,note,step,duration,channel,velocity
0,48.0,0,480,5.0,87.0
1,60.0,40,480,5.0,85.0
2,55.0,0,480,4.0,84.0
3,64.0,0,480,4.0,84.0
4,84.0,0,480,1.0,84.0
5,72.0,0,480,2.0,85.0
6,76.0,0,480,3.0,84.0
7,79.0,40,480,3.0,84.0
8,52.0,0,120,2.0,64.0
9,64.0,0,120,1.0,64.0
10,60.0,0,120,2.0,64.0
11,48.0,0,120,4.0,64.0
12,43.0,640,120,4.0,64.0
13,36.0,0,120,5.0,64.0
14,48.0,0,360,4.0,66.0
15,52.0,0,360,2.0,66.0
16,60.0,0,360,2.0,66.0
17,64.0,0,360,1.0,66.0
18,36.0,240,360,5.0,66.0
19,43.0,0,360,4.0,66.0
20,65.0,0,120,1.0,65.0
21,38.0,0,120,5.0,65.0
22,53.0,0,120,2.0,65.0
23,60.0,0,120,2.0,65.0
24,50.0,480,120,4.0,65.0
25,67.0,240,120,1.0,66.0
26,55.0,0,120,2.0,66.0
27,60.0,0,120,2.0,66.0
28,52.0,0,120,4.0,66.0
29,40.0,0,120,5.0,66.0
30,48.0,0,156,4.0,70.0
31,53.0,0,156,4.0,70.0
32,57.0,240,156,2.0,70.0
33,69.0,0,156,1.0,70.0
34,60.0,0,156,2.0,70.0
35,41.0,0,192,5.0,70.0
36,52.0,480,156,4.0,64.0
37,67.0,0,156,1.0,64.0
38,55.0,0,156,2.0,64.0
39,48.0,0,156,4.0,64.0
40,60.0,0,156,2.0,64.0
41,40.0,0,192,5.0,64.0
42,43.0,0,120,4.0,69.0
43,48.0,0,120,4.0,69.0
44,64.0,0,120,1.0,69.0
45,36.0,1200,120,5.0,69.0
46,60.0,0,120,2.0,69.0
47,52.0,0,120,2.0,69.0
48,52.0,0,360,2.0,71.0
49,60.0,0,360,2.0,71.0
50,64.0,0,360,1.0,71.0
51,48.0,0,360,4.0,71.0
52,43.0,0,360,4.0,71.0
53,36.0,240,360,5.0,71.0
54,53.0,0,120,2.0,69.0
55,60.0,0,120,2.0,69.0
56,65.0,0,120,1.0,69.0
57,38.0,480,120,5.0,69.0
58,50.0,0,120,4.0,69.0
59,52.0,0,120,4.0,71.0
60,67.0,0,120,1.0,71.0
61,55.0,0,120,2.0,71.0
62,40.0,0,120,5.0,71.0
63,60.0,240,120,2.0,71.0
64,41.0,0,360,5.0,74.0
65,60.0,240,360,2.0,74.0
66,57.0,0,360,2.0,74.0
67,69.0,0,360,1.0,74.0
68,53.0,0,360,4.0,74.0
69,48.0,0,360,4.0,74.0
70,60.0,0,120,2.0,73.0
71,40.0,480,120,5.0,73.0
72,48.0,0,120,4.0,73.0
73,55.0,0,120,2.0,73.0
74,52.0,0,120,4.0,73.0
75,67.0,0,120,1.0,73.0
76,53.0,0,120,4.0,77.0
77,41.0,0,120,5.0,77.0
78,48.0,0,120,4.0,77.0
79,60.0,240,120,2.0,78.0
80,57.0,0,120,2.0,78.0
81,69.0,0,120,1.0,77.0
82,60.0,0,156,2.0,82.0
83,43.0,0,156,5.0,81.0
84,55.0,0,156,4.0,81.0
85,48.0,240,156,4.0,81.0
86,70.0,0,156,1.0,82.0
87,58.0,0,156,2.0,82.0
88,60.0,0,156,2.0,70.0
89,53.0,0,156,4.0,70.0
90,48.0,0,156,4.0,70.0
91,41.0,480,156,5.0,70.0
92,57.0,0,156,2.0,70.0
93,69.0,0,156,1.0,70.0
94,60.0,960,120,2.0,72.0
95,67.0,0,120,1.0,72.0
96,48.0,0,120,4.0,72.0
97,52.0,0,120,4.0,72.0
98,55.0,0,120,2.0,72.0
99,40.0,0,120,5.0,72.0
100,53.0,0,120,4.0,73.0
101,48.0,0,120,4.0,73.0
102,41.0,0,120,5.0,73.0
103,60.0,0,120,2.0,73.0
104,57.0,0,120,2.0,73.0
105,69.0,240,120,1.0,73.0
106,50.0,0,192,4.0,74.0
107,38.0,240,192,5.0,74.0
108,71.0,0,192,1.0,74.0
109,59.0,0,192,2.0,74.0
110,65.0,0,192,2.0,74.0
111,72.0,480,192,1.0,76.0
112,40.0,0,192,5.0,76.0
113,52.0,0,192,4.0,76.0
114,64.0,0,192,2.0,75.0
115,60.0,0,192,2.0,75.0
116,62.0,0,192,2.0,79.0
117,67.0,0,192,2.0,79.0
118,35.0,480,192,5.0,80.0
119,74.0,0,192,1.0,79.0
120,47.0,0,192,4.0,80.0
121,36.0,0,192,5.0,83.0
122,76.0,0,192,1.0,83.0
123,64.0,0,192,2.0,83.0
124,67.0,480,192,2.0,83.0
125,48.0,0,192,4.0,84.0
126,78.0,0,121,1.0,84.0
127,79.0,80,127,1.0,74.0
128,78.0,80,132,1.0,75.0
129,79.0,80,137,1.0,76.0
130,78.0,80,142,1.0,77.0
131,79.0,80,147,1.0,78.0
132,78.0,80,152,1.0,79.0
133,79.0,80,158,1.0,81.0
134,78.0,80,163,1.0,82.0
135,76.0,80,168,1.0,83.0
136,74.0,0,960,2.0,87.0
137,72.0,0,960,2.0,87.0
138,38.0,480,960,4.0,87.0
139,45.0,0,960,4.0,87.0
140,33.0,0,960,5.0,86.0
141,78.0,120,176,1.0,84.0
142,79.0,0,360,1.0,91.0
143,71.0,0,360,2.0,87.0
144,31.0,0,360,5.0,86.0
145,38.0,0,360,4.0,86.0
146,43.0,120,360,4.0,86.0
147,62.0,480,120,5.0,85.0
148,74.0,0,120,1.0,85.0
149,78.0,240,120,1.0,81.0
150,66.0,0,120,5.0,81.0
151,79.0,240,180,1.0,77.0
152,67.0,0,180,5.0,77.0
153,50.0,480,120,5.0,80.0
154,62.0,0,120,1.0,80.0
155,66.0,0,120,1.0,77.0
156,54.0,240,120,5.0,77.0
157,67.0,0,180,1.0,73.0
158,55.0,240,180,5.0,73.0
159,50.0,0,120,1.0,67.0
160,38.0,480,120,5.0,71.0
161,54.0,240,120,1.0,69.0
162,42.0,0,120,5.0,73.0
163,55.0,0,160,1.0,71.0
164,43.0,240,180,5.0,75.0
165,59.0,160,160,1.0,73.0
166,60.0,160,160,1.0,74.0
167,62.0,160,160,1.0,76.0
168,64.0,160,160,1.0,77.0
169,66.0,160,160,1.0,79.0
170,67.0,160,158,1.0,81.0
171,70.0,120,172,1.0,83.0
172,72.0,120,186,1.0,85.0
173,74.0,120,200,1.0,87.0
174,76.0,120,214,1.0,89.0
175,78.0,120,229,1.0,92.0
176,58.0,0,960,4.0,83.0
177,55.0,0,960,5.0,83.0
178,79.0,120,262,1.0,95.0
179,81.0,120,294,1.0,98.0
180,46.0,120,480,5.0,94.0
181,53.0,40,480,4.0,94.0
182,82.0,0,480,1.0,106.0
183,62.0,0,480,4.0,95.0
184,58.0,0,480,4.0,95.0
185,77.0,0,480,2.0,98.0
186,74.0,40,480,2.0,98.0
187,70.0,0,480,2.0,98.0
188,46.0,0,120,4.0,81.0
189,74.0,0,120,1.0,81.0
190,34.0,640,120,5.0,81.0
191,62.0,0,120,2.0,81.0
192,70.0,0,120,2.0,81.0
193,46.0,240,360,4.0,82.0
194,34.0,0,360,5.0,82.0
195,62.0,0,360,2.0,82.0
196,70.0,0,360,2.0,82.0
197,74.0,0,360,1.0,82.0
198,75.0,0,120,1.0,84.0
199,36.0,0,120,5.0,79.0
200,63.0,0,120,2.0,81.0
201,70.0,0,120,2.0,81.0
202,48.0,480,120,4.0,80.0
203,70.0,0,120,2.0,87.0
204,65.0,0,120,2.0,87.0
205,77.0,0,120,1.0,89.0
206,38.0,0,120,5.0,85.0
207,50.0,240,120,4.0,86.0
208,79.0,0,156,1.0,98.0
209,39.0,240,156,5.0,91.0
210,51.0,0,156,4.0,93.0
211,46.0,0,156,4.0,93.0
212,70.0,0,156,2.0,94.0
213,67.0,0,156,2.0,94.0
214,38.0,0,156,5.0,83.0
215,77.0,0,156,1.0,83.0
216,50.0,0,156,4.0,83.0
217,46.0,0,156,4.0,83.0
218,70.0,480,156,2.0,83.0
219,65.0,0,156,2.0,83.0
220,70.0,0,120,2.0,71.0
221,46.0,1200,120,4.0,70.0
222,34.0,0,120,5.0,70.0
223,62.0,0,120,2.0,71.0
224,74.0,0,120,1.0,70.0
225,34.0,0,360,5.0,74.0
226,62.0,0,360,2.0,73.0
227,70.0,240,360,2.0,73.0
228,46.0,0,360,4.0,74.0
229,74.0,0,360,1.0,73.0
230,63.0,480,120,2.0,69.0
231,70.0,0,120,2.0,69.0
232,48.0,0,120,4.0,71.0
233,75.0,0,120,1.0,71.0
234,36.0,0,120,5.0,72.0
235,38.0,0,120,5.0,75.0
236,77.0,240,120,1.0,74.0
237,50.0,0,120,4.0,74.0
238,65.0,0,120,2.0,72.0
239,70.0,0,120,2.0,72.0
240,51.0,0,360,4.0,77.0
241,79.0,0,360,1.0,77.0
242,46.0,0,360,4.0,77.0
243,67.0,240,360,2.0,75.0
244,70.0,0,360,2.0,75.0
245,39.0,0,360,5.0,79.0
246,50.0,0,120,4.0,77.0
247,46.0,0,120,4.0,77.0
248,65.0,0,120,2.0,77.0
249,38.0,0,120,5.0,77.0
250,77.0,480,120,1.0,76.0
251,70.0,0,120,2.0,77.0
252,39.0,0,120,5.0,80.0
253,46.0,0,120,4.0,81.0
254,51.0,240,120,4.0,81.0
255,79.0,0,120,1.0,80.0
256,67.0,0,120,2.0,81.0
257,70.0,0,120,2.0,81.0
258,70.0,0,156,2.0,84.0
259,68.0,0,156,2.0,84.0
260,80.0,0,156,1.0,85.0
261,41.0,0,156,5.0,83.0
262,46.0,240,156,4.0,85.0
263,53.0,0,156,4.0,85.0
264,51.0,480,156,4.0,76.0
265,39.0,0,156,5.0,76.0
266,79.0,0,156,1.0,76.0
267,70.0,0,156,2.0,76.0
268,46.0,0,156,4.0,76.0
269,67.0,0,156,2.0,76.0
270,38.0,0,120,5.0,59.0
271,50.0,0,120,4.0,59.0
272,70.0,960,120,2.0,61.0
273,65.0,0,120,2.0,61.0
274,77.0,0,120,1.0,61.0
275,39.0,240,120,5.0,59.0
276,51.0,0,120,4.0,59.0
277,79.0,0,120,1.0,61.0
278,67.0,0,120,2.0,61.0
279,70.0,0,120,2.0,61.0
280,41.0,0,192,5.0,60.0
281,83.0,0,192,1.0,62.0
282,53.0,240,192,4.0,60.0
283,79.0,0,192,2.0,62.0
284,71.0,0,192,2.0,62.0
285,72.0,0,192,2.0,65.0
286,84.0,0,192,1.0,65.0
287,51.0,0,192,4.0,62.0
288,79.0,480,192,2.0,65.0
289,39.0,0,192,5.0,62.0
290,47.0,0,192,4.0,64.0
291,79.0,0,192,2.0,66.0
292,74.0,480,192,2.0,66.0
293,35.0,0,192,5.0,64.0
294,86.0,0,192,1.0,66.0
295,79.0,0,192,2.0,68.0
296,48.0,0,192,4.0,66.0
297,75.0,480,192,2.0,68.0
298,87.0,0,192,1.0,68.0
299,36.0,0,192,5.0,66.0
300,77.0,480,240,2.0,69.0
301,89.0,0,240,1.0,69.0
302,33.0,0,240,5.0,68.0
303,45.0,0,240,4.0,68.0
304,84.0,0,240,2.0,69.0
305,78.0,0,960,2.0,71.0
306,86.0,0,960,2.0,71.0
307,84.0,0,960,2.0,71.0
308,90.0,480,960,1.0,76.0
309,32.0,0,960,5.0,73.0
310,44.0,0,960,4.0,72.0
311,38.0,0,0,4.0,79.0
312,31.0,0,960,5.0,78.0
313,79.0,0,960,2.0,78.0
314,86.0,0,960,2.0,78.0
315,84.0,960,960,2.0,78.0
316,43.0,0,960,4.0,79.0
317,91.0,0,960,1.0,80.0
318,42.0,960,960,4.0,83.0
319,38.0,0,960,4.0,83.0
320,93.0,0,960,1.0,85.0
321,86.0,0,0,2.0,89.0
322,30.0,0,0,5.0,84.0
323,81.0,0,960,2.0,84.0
324,84.0,0,960,2.0,84.0
325,38.0,960,240,4.0,87.0
326,42.0,0,240,4.0,87.0
327,84.0,0,595,2.0,89.0
328,81.0,0,600,2.0,89.0
329,93.0,0,600,1.0,89.0
330,31.0,480,245,5.0,82.0
331,38.0,0,270,4.0,84.0
332,43.0,0,270,4.0,84.0
333,79.0,0,120,2.0,85.0
334,91.0,240,120,1.0,87.0
335,83.0,0,120,2.0,85.0
336,77.0,240,120,2.0,81.0
337,89.0,0,120,1.0,84.0
338,74.0,240,120,2.0,78.0
339,86.0,0,120,1.0,80.0
340,71.0,0,120,2.0,75.0
341,83.0,240,120,1.0,77.0
342,67.0,240,120,2.0,71.0
343,79.0,0,120,1.0,73.0
344,50.0,0,960,5.0,77.0
345,59.0,0,960,4.0,78.0
346,55.0,0,960,4.0,78.0
347,53.0,0,960,4.0,78.0
348,65.0,0,120,2.0,68.0
349,77.0,240,120,1.0,70.0
350,31.0,0,240,5.0,68.0
351,43.0,0,240,4.0,67.0
352,74.0,0,120,1.0,66.0
353,62.0,240,120,2.0,64.0
354,36.0,240,240,5.0,64.0
355,48.0,0,240,4.0,61.0
356,43.0,0,240,4.0,61.0
357,60.0,0,720,2.0,61.0
358,64.0,0,720,2.0,61.0
359,72.0,0,720,1.0,62.0
360,48.0,720,120,5.0,46.0
361,52.0,0,120,5.0,46.0
362,48.0,240,480,5.0,48.0
363,52.0,0,480,5.0,48.0
364,53.0,0,120,5.0,48.0
365,50.0,480,120,5.0,48.0
366,60.0,0,120,2.0,49.0
367,52.0,240,120,5.0,49.0
368,55.0,0,120,5.0,49.0
369,57.0,0,120,5.0,52.0
370,53.0,240,120,5.0,52.0
371,60.0,0,480,2.0,50.0
372,52.0,480,120,5.0,51.0
373,55.0,0,120,5.0,51.0
374,62.0,0,120,2.0,51.0
375,64.0,240,120,2.0,51.0
376,55.0,0,480,5.0,52.0
377,59.0,0,480,5.0,52.0
378,65.0,240,480,2.0,56.0
379,57.0,0,120,5.0,54.0
380,60.0,480,120,5.0,54.0
381,65.0,0,120,2.0,54.0
382,65.0,0,120,2.0,54.0
383,59.0,240,120,5.0,54.0
384,62.0,0,120,5.0,54.0
385,67.0,0,120,2.0,59.0
386,67.0,0,480,2.0,62.0
387,65.0,240,480,5.0,58.0
388,60.0,0,480,5.0,58.0
389,64.0,0,120,5.0,58.0
390,60.0,0,120,5.0,58.0
391,69.0,480,120,2.0,58.0
392,71.0,240,120,2.0,60.0
393,55.0,0,120,5.0,60.0
394,62.0,0,120,5.0,60.0
395,79.0,0,120,1.0,65.0
396,60.0,0,480,5.0,66.0
397,64.0,240,480,5.0,66.0
398,72.0,0,480,2.0,62.0
399,62.0,480,120,5.0,56.0
400,74.0,0,120,2.0,56.0
401,79.0,0,600,1.0,67.0
402,55.0,0,120,5.0,56.0
403,79.0,0,120,1.0,59.0
404,76.0,240,120,2.0,54.0
405,60.0,0,120,5.0,54.0
406,52.0,0,120,5.0,54.0
407,79.0,240,240,1.0,58.0
408,78.0,240,120,1.0,52.0
409,59.0,0,595,5.0,56.0
410,55.0,0,595,5.0,56.0
411,77.0,0,595,2.0,58.0
412,81.0,240,120,1.0,54.0
413,64.0,0,120,5.0,56.0
414,60.0,0,120,5.0,56.0
415,79.0,240,120,1.0,56.0
416,76.0,0,120,2.0,56.0
417,79.0,0,240,1.0,63.0
418,78.0,240,120,1.0,59.0
419,59.0,0,595,5.0,64.0
420,81.0,240,120,1.0,63.0
421,77.0,240,600,2.0,63.0
422,55.0,0,600,5.0,64.0
423,67.0,0,120,5.0,65.0
424,79.0,240,120,1.0,67.0
425,64.0,0,120,5.0,65.0
426,72.0,0,120,2.0,66.0
427,73.0,0,480,2.0,71.0
428,64.0,240,480,5.0,70.0
429,67.0,0,480,5.0,70.0
430,82.0,0,480,1.0,70.0
431,65.0,0,180,5.0,58.0
432,74.0,480,180,2.0,59.0
433,81.0,0,180,1.0,60.0
434,53.0,480,480,5.0,54.0
435,50.0,0,480,5.0,54.0
436,55.0,480,120,5.0,55.0
437,52.0,0,120,5.0,55.0
438,62.0,0,120,2.0,56.0
439,57.0,0,120,5.0,56.0
440,53.0,240,120,5.0,56.0
441,58.0,240,120,5.0,60.0
442,55.0,0,120,5.0,60.0
443,62.0,0,0,2.0,58.0
444,53.0,0,120,5.0,58.0
445,57.0,480,120,5.0,58.0
446,64.0,240,120,2.0,59.0
447,61.0,0,480,5.0,60.0
448,67.0,480,0,2.0,61.0
449,57.0,0,480,5.0,60.0
450,62.0,0,120,5.0,61.0
451,59.0,0,120,5.0,61.0
452,69.0,240,120,2.0,67.0
453,67.0,0,120,2.0,62.0
454,60.0,0,120,5.0,62.0
455,64.0,0,120,5.0,62.0
456,67.0,0,480,2.0,63.0
457,69.0,240,480,2.0,63.0
458,62.0,0,0,5.0,67.0
459,65.0,0,120,5.0,67.0
460,71.0,480,120,2.0,67.0
461,57.0,0,120,5.0,68.0
462,81.0,240,120,1.0,73.0
463,73.0,0,120,2.0,68.0
464,64.0,0,120,5.0,68.0
465,62.0,0,480,5.0,74.0
466,65.0,0,480,5.0,74.0
467,74.0,0,480,2.0,72.0
468,64.0,480,120,5.0,66.0
469,76.0,0,120,2.0,66.0
470,81.0,240,600,1.0,77.0
471,57.0,0,120,5.0,66.0
472,62.0,0,120,5.0,63.0
473,53.0,0,120,5.0,63.0
474,81.0,0,120,1.0,68.0
475,77.0,240,120,2.0,63.0
476,81.0,240,240,1.0,66.0
477,80.0,240,120,1.0,61.0
478,57.0,0,595,5.0,69.0
479,79.0,0,600,2.0,66.0
480,82.0,240,120,1.0,62.0
481,61.0,0,600,5.0,69.0
482,62.0,240,120,5.0,64.0
483,65.0,0,120,5.0,64.0
484,81.0,0,120,1.0,64.0
485,81.0,240,240,1.0,70.0
486,80.0,240,120,1.0,65.0
487,62.0,0,595,5.0,69.0
488,77.0,0,595,2.0,70.0
489,65.0,0,600,5.0,69.0
490,82.0,240,120,1.0,69.0
491,65.0,0,120,5.0,71.0
492,81.0,0,120,1.0,72.0
493,74.0,0,120,2.0,73.0
494,69.0,240,120,5.0,71.0
495,69.0,0,480,5.0,78.0
496,75.0,240,480,2.0,79.0
497,66.0,0,480,5.0,78.0
498,84.0,0,480,1.0,77.0
499,67.0,0,120,5.0,69.0
500,83.0,0,180,1.0,68.0
501,76.0,480,180,2.0,68.0
502,52.0,0,480,5.0,64.0
503,55.0,480,480,5.0,64.0
504,54.0,0,120,5.0,68.0
505,57.0,480,120,5.0,68.0
506,59.0,0,120,5.0,70.0
507,55.0,240,120,5.0,70.0
508,88.0,0,480,1.0,78.0
509,57.0,0,595,5.0,76.0
510,60.0,240,595,5.0,76.0
511,87.0,480,180,1.0,68.0
512,78.0,0,660,2.0,76.0
513,64.0,0,480,5.0,63.0
514,55.0,480,480,5.0,63.0
515,57.0,480,120,5.0,67.0
516,66.0,0,120,5.0,67.0
517,59.0,0,120,5.0,70.0
518,67.0,240,120,5.0,70.0
519,81.0,0,1,2.0,78.0
520,91.0,0,480,1.0,78.0
521,63.0,0,600,4.0,78.0
522,60.0,0,605,5.0,78.0
523,69.0,240,605,5.0,78.0
524,90.0,480,180,1.0,69.0
525,63.0,240,120,4.0,74.0
526,60.0,0,120,5.0,74.0
527,69.0,0,120,5.0,74.0
528,82.0,0,1,2.0,87.0
529,93.0,0,480,1.0,86.0
530,70.0,0,595,5.0,86.0
531,61.0,0,600,5.0,86.0
532,64.0,240,605,4.0,86.0
533,91.0,480,180,1.0,74.0
534,47.0,0,120,5.0,61.0
535,51.0,1200,120,5.0,61.0
536,51.0,240,480,5.0,68.0
537,47.0,0,480,5.0,68.0
538,49.0,480,120,5.0,62.0
539,52.0,0,120,5.0,62.0
540,54.0,0,120,5.0,63.0
541,51.0,240,120,5.0,63.0
542,52.0,0,480,5.0,68.0
543,76.0,0,480,1.0,68.0
544,56.0,0,0,5.0,65.0
545,64.0,240,480,2.0,63.0
546,75.0,480,120,1.0,65.0
547,59.0,0,120,5.0,65.0
548,57.0,240,120,5.0,65.0
549,73.0,0,120,1.0,65.0
550,61.0,0,120,5.0,65.0
551,81.0,0,480,1.0,71.0
552,63.0,0,480,5.0,72.0
553,59.0,240,480,5.0,72.0
554,71.0,0,480,2.0,66.0
555,64.0,0,120,5.0,67.0
556,80.0,480,120,1.0,67.0
557,61.0,0,120,5.0,67.0
558,78.0,0,120,1.0,67.0
559,63.0,0,120,5.0,67.0
560,66.0,240,120,5.0,67.0
561,68.0,0,475,5.0,74.0
562,83.0,0,480,1.0,72.0
563,64.0,0,480,5.0,74.0
564,66.0,0,120,5.0,69.0
565,69.0,480,120,5.0,69.0
566,81.0,0,120,1.0,69.0
567,71.0,0,120,5.0,69.0
568,68.0,0,120,5.0,69.0
569,80.0,240,120,1.0,69.0
570,76.0,240,845,2.0,72.0
571,72.0,0,240,5.0,70.0
572,69.0,0,240,5.0,70.0
573,78.0,0,240,1.0,70.0
574,76.0,240,360,2.0,70.0
575,70.0,0,120,5.0,73.0
576,79.0,0,120,1.0,74.0
577,73.0,240,120,5.0,73.0
578,70.0,0,715,5.0,80.0
579,76.0,240,720,2.0,80.0
580,73.0,0,725,5.0,80.0
581,79.0,0,725,1.0,79.0
582,69.0,720,120,5.0,73.0
583,72.0,0,120,5.0,73.0
584,78.0,0,120,1.0,73.0
585,69.0,0,240,5.0,73.0
586,78.0,0,240,1.0,73.0
587,72.0,240,240,5.0,73.0
588,79.0,240,120,1.0,74.0
589,76.0,0,360,2.0,73.0
590,73.0,0,120,5.0,74.0
591,70.0,0,120,5.0,74.0
592,70.0,0,240,5.0,75.0
593,79.0,0,240,1.0,77.0
594,73.0,240,240,5.0,75.0
595,76.0,0,355,2.0,75.0
596,71.0,0,120,5.0,77.0
597,74.0,0,120,5.0,77.0
598,80.0,240,120,1.0,81.0
599,76.0,0,715,2.0,84.0
600,80.0,0,715,1.0,84.0
601,74.0,240,715,5.0,84.0
602,71.0,0,720,5.0,84.0
603,79.0,0,120,1.0,77.0
604,70.0,0,120,5.0,77.0
605,73.0,720,120,5.0,77.0
606,70.0,0,240,5.0,79.0
607,73.0,240,240,5.0,79.0
608,79.0,0,240,1.0,79.0
609,80.0,240,120,1.0,81.0
610,71.0,0,120,5.0,81.0
611,74.0,0,120,5.0,81.0
612,76.0,0,360,2.0,79.0
613,74.0,240,240,5.0,83.0
614,80.0,0,240,1.0,83.0
615,76.0,0,360,2.0,83.0
616,72.0,240,120,5.0,84.0
617,81.0,0,120,1.0,88.0
618,76.0,0,715,2.0,91.0
619,72.0,0,720,5.0,91.0
620,81.0,240,725,1.0,95.0
621,82.0,720,120,1.0,83.0
622,76.0,0,120,2.0,83.0
623,73.0,0,120,5.0,83.0
624,73.0,0,240,5.0,84.0
625,82.0,240,240,1.0,84.0
626,79.0,240,120,2.0,86.0
627,76.0,0,360,2.0,84.0
628,70.0,0,120,5.0,86.0
629,85.0,0,120,1.0,86.0
630,85.0,0,240,1.0,89.0
631,79.0,240,240,2.0,89.0
632,70.0,0,240,5.0,89.0
633,82.0,240,120,2.0,91.0
634,67.0,0,120,5.0,93.0
635,88.0,0,120,1.0,91.0
636,88.0,0,240,1.0,94.0
637,67.0,0,240,5.0,96.0
638,82.0,240,240,2.0,94.0
639,85.0,0,120,2.0,102.0
640,58.0,0,120,5.0,100.0
641,91.0,240,120,1.0,102.0
642,90.0,0,156,1.0,109.0
643,59.0,240,156,5.0,104.0
644,87.0,0,156,2.0,109.0
645,47.0,240,240,5.0,88.0
646,60.0,240,720,5.0,97.0
647,48.0,0,720,5.0,97.0
648,35.0,240,240,5.0,95.0
649,78.0,0,720,1.0,108.0
650,48.0,0,480,5.0,102.0
651,36.0,240,480,5.0,102.0
652,76.0,240,240,1.0,94.0
653,69.0,240,0,2.0,90.0
654,66.0,240,1200,2.0,92.0
655,75.0,0,156,1.0,90.0
656,66.0,0,156,2.0,90.0
657,35.0,240,240,5.0,93.0
658,60.0,240,480,5.0,102.0
659,48.0,0,480,5.0,102.0
660,35.0,240,240,5.0,100.0
661,90.0,0,720,1.0,110.0
662,78.0,240,1195,2.0,98.0
663,81.0,240,960,2.0,110.0
664,48.0,240,480,5.0,106.0
665,36.0,0,480,5.0,106.0
666,88.0,240,240,1.0,99.0
667,78.0,240,192,2.0,95.0
668,87.0,0,192,1.0,95.0
669,47.0,0,192,5.0,96.0
670,35.0,0,192,5.0,96.0
671,81.0,0,192,2.0,95.0
672,47.0,0,192,5.0,88.0
673,51.0,0,192,4.0,88.0
674,54.0,0,192,4.0,88.0
675,59.0,0,192,5.0,88.0
676,93.0,0,240,1.0,86.0
677,81.0,0,240,2.0,87.0
678,87.0,480,240,2.0,87.0
679,90.0,0,240,2.0,87.0
680,66.0,960,480,1.0,70.0
681,60.0,240,240,3.0,74.0
682,64.0,240,240,3.0,66.0
683,76.0,240,240,3.0,58.0
684,69.0,480,1200,1.0,78.0
685,66.0,720,480,1.0,50.0
686,59.0,240,240,3.0,55.0
687,63.0,240,240,3.0,48.0
688,75.0,240,240,3.0,42.0
689,69.0,480,1440,1.0,58.0
690,66.0,720,480,1.0,42.0
691,60.0,240,240,3.0,42.0
692,64.0,240,240,3.0,43.0
693,69.0,480,960,1.0,44.0
694,60.0,240,240,3.0,45.0
695,64.0,0,240,3.0,46.0
696,60.0,240,240,3.0,48.0
697,64.0,240,240,3.0,49.0
698,71.0,240,720,1.0,46.0
699,69.0,240,240,3.0,51.0
700,72.0,240,0,1.0,52.0
701,62.0,240,240,3.0,50.0
702,65.0,240,240,3.0,47.0
703,62.0,240,240,3.0,45.0
704,65.0,240,240,3.0,45.0
705,62.0,240,240,3.0,48.0
706,71.0,0,480,1.0,45.0
707,65.0,240,240,3.0,51.0
708,69.0,0,240,3.0,54.0
709,74.0,240,240,1.0,54.0
710,52.0,240,240,3.0,54.0
711,56.0,240,240,3.0,51.0
712,77.0,240,960,1.0,56.0
713,52.0,240,240,3.0,49.0
714,56.0,240,240,3.0,47.0
715,52.0,240,240,3.0,47.0
716,76.0,0,720,1.0,47.0
717,56.0,240,240,3.0,48.0
718,71.0,240,240,1.0,49.0
719,62.0,0,240,3.0,49.0
720,57.0,240,240,3.0,49.0
721,64.0,240,240,3.0,47.0
722,74.0,240,960,1.0,51.0
723,57.0,240,240,3.0,45.0
724,64.0,240,240,3.0,42.0
725,72.0,0,480,1.0,45.0
726,57.0,240,240,3.0,40.0
727,64.0,240,240,3.0,38.0
728,69.0,240,240,3.0,40.0
729,45.0,240,240,3.0,42.0
730,52.0,240,240,3.0,44.0
731,45.0,240,240,3.0,45.0
732,72.0,240,0,1.0,47.0
733,52.0,0,240,3.0,47.0
734,45.0,240,240,3.0,48.0
735,52.0,240,240,3.0,50.0
736,74.0,240,240,1.0,51.0
737,54.0,0,240,3.0,51.0
738,76.0,240,480,1.0,53.0
739,52.0,240,240,3.0,56.0
740,55.0,240,240,3.0,57.0
741,43.0,240,960,5.0,54.0
742,60.0,240,240,3.0,59.0
743,55.0,240,240,3.0,60.0
744,52.0,240,240,3.0,62.0
745,48.0,240,240,3.0,63.0
746,76.0,0,1440,2.0,64.0
747,79.0,0,1440,1.0,64.0
748,47.0,240,240,3.0,66.0
749,52.0,240,240,3.0,68.0
750,42.0,240,960,5.0,65.0
751,55.0,240,240,3.0,69.0
752,47.0,240,240,3.0,72.0
753,52.0,240,240,3.0,74.0
754,40.0,0,960,5.0,71.0
755,55.0,240,240,3.0,76.0
756,83.0,240,1440,1.0,76.0
757,79.0,0,1440,2.0,76.0
758,47.0,240,240,3.0,79.0
759,50.0,240,240,3.0,80.0
760,35.0,240,960,5.0,77.0
761,55.0,240,240,3.0,82.0
762,67.0,240,240,3.0,83.0
763,62.0,160,240,3.0,80.0
764,59.0,240,240,3.0,78.0
765,55.0,240,240,3.0,77.0
766,50.0,240,240,3.0,74.0
767,74.0,0,1680,2.0,88.0
768,79.0,40,1640,2.0,88.0
769,55.0,240,240,3.0,73.0
770,86.0,40,1607,1.0,88.0
771,83.0,0,240,1.0,71.0
772,47.0,240,960,3.0,75.0
773,62.0,240,240,3.0,71.0
774,51.0,240,240,3.0,69.0
775,57.0,240,240,3.0,67.0
776,84.0,240,720,1.0,75.0
777,60.0,240,240,3.0,66.0
778,81.0,0,240,1.0,66.0
779,78.0,0,960,2.0,70.0
780,52.0,240,240,3.0,63.0
781,55.0,240,240,3.0,62.0
782,79.0,240,960,1.0,64.0
783,60.0,240,240,3.0,60.0
784,53.0,240,240,3.0,57.0
785,57.0,240,240,3.0,56.0
786,81.0,240,720,1.0,66.0
787,77.0,0,240,1.0,55.0
788,60.0,240,240,3.0,55.0
789,55.0,240,240,3.0,52.0
790,60.0,240,240,3.0,50.0
791,76.0,240,960,1.0,53.0
792,72.0,0,1920,2.0,66.0
793,64.0,240,240,3.0,49.0
794,62.0,240,240,3.0,46.0
795,65.0,240,240,3.0,45.0
796,71.0,0,960,2.0,48.0
797,56.0,0,960,5.0,48.0
798,68.0,240,240,3.0,43.0
799,60.0,240,240,3.0,41.0
800,65.0,240,240,3.0,39.0
801,77.0,240,1680,1.0,53.0
802,57.0,240,960,5.0,42.0
803,72.0,0,960,2.0,42.0
804,76.0,0,240,1.0,38.0
805,69.0,240,240,3.0,38.0
806,63.0,240,240,3.0,35.0
807,66.0,240,240,3.0,34.0
808,78.0,240,720,1.0,36.0
809,69.0,0,900,2.0,36.0
810,71.0,240,187,3.0,32.0
811,75.0,0,187,1.0,32.0
812,59.0,0,907,5.0,36.0
813,52.0,240,240,3.0,34.0
814,64.0,240,480,5.0,38.0
815,88.0,0,960,1.0,38.0
816,64.0,240,480,5.0,35.0
817,84.0,0,960,2.0,38.0
818,52.0,240,240,3.0,36.0
819,52.0,240,240,3.0,38.0
820,86.0,0,480,1.0,36.0
821,62.0,0,480,5.0,36.0
822,83.0,240,480,2.0,36.0
823,59.0,0,480,5.0,36.0
824,60.0,0,480,5.0,40.0
825,52.0,240,240,3.0,42.0
826,88.0,0,480,1.0,40.0
827,64.0,0,480,5.0,40.0
828,84.0,240,480,2.0,40.0
829,76.0,0,0,2.0,46.0
830,52.0,240,240,3.0,40.0
831,65.0,0,480,5.0,46.0
832,62.0,0,480,5.0,46.0
833,86.0,0,720,2.0,46.0
834,89.0,240,720,1.0,46.0
835,62.0,240,480,5.0,39.0
836,86.0,0,240,1.0,37.0
837,59.0,0,0,5.0,36.0
838,83.0,0,240,2.0,37.0
839,52.0,240,240,3.0,37.0
840,83.0,0,420,1.0,36.0
841,80.0,0,427,2.0,36.0
842,56.0,240,480,5.0,36.0
843,52.0,240,240,3.0,37.0
844,84.0,0,480,1.0,38.0
845,81.0,0,480,2.0,38.0
846,57.0,0,480,5.0,38.0
847,60.0,240,480,5.0,38.0
848,52.0,240,240,3.0,39.0
849,83.0,0,480,2.0,42.0
850,52.0,240,240,3.0,38.0
851,86.0,0,480,1.0,42.0
852,62.0,0,480,5.0,42.0
853,59.0,0,480,5.0,42.0
854,52.0,240,240,3.0,34.0
855,84.0,0,480,1.0,36.0
856,57.0,0,480,5.0,36.0
857,60.0,0,480,5.0,36.0
858,81.0,240,480,2.0,36.0
859,55.0,0,480,5.0,34.0
860,59.0,0,480,5.0,34.0
861,52.0,240,240,3.0,34.0
862,79.0,0,480,2.0,34.0
863,83.0,240,480,1.0,34.0
864,76.0,240,1920,2.0,42.0
865,53.0,0,480,5.0,35.0
866,57.0,240,480,5.0,35.0
867,81.0,0,480,1.0,35.0
868,52.0,240,240,3.0,35.0
869,77.0,0,480,2.0,35.0
870,52.0,240,240,3.0,35.0
871,56.0,0,480,5.0,40.0
872,80.0,0,720,1.0,40.0
873,54.0,0,480,5.0,35.0
874,81.0,0,240,1.0,34.0
875,78.0,240,240,2.0,34.0
876,57.0,240,480,5.0,35.0
877,52.0,0,240,3.0,34.0
878,76.0,240,1380,2.0,40.0
879,80.0,0,420,2.0,33.0
880,83.0,240,420,1.0,33.0
881,59.0,0,480,5.0,33.0
882,56.0,240,0,5.0,32.0
883,52.0,240,240,3.0,33.0
884,52.0,240,240,3.0,32.0
885,64.0,0,480,5.0,43.0
886,52.0,240,240,3.0,39.0
887,60.0,240,480,5.0,43.0
888,84.0,0,960,2.0,43.0
889,88.0,0,960,1.0,43.0
890,52.0,240,240,3.0,38.0
891,64.0,240,480,5.0,39.0
892,60.0,0,480,5.0,39.0
893,83.0,240,480,2.0,38.0
894,86.0,0,480,1.0,38.0
895,59.0,0,480,5.0,38.0
896,52.0,240,240,3.0,40.0
897,62.0,0,480,5.0,38.0
898,64.0,0,480,5.0,41.0
899,60.0,0,480,5.0,41.0
900,52.0,240,240,3.0,43.0
901,84.0,0,480,2.0,41.0
902,76.0,0,2400,2.0,32.0
903,88.0,240,480,1.0,41.0
904,52.0,160,240,3.0,43.0
905,64.0,240,480,5.0,50.0
906,67.0,0,480,5.0,50.0
907,88.0,40,687,2.0,50.0
908,91.0,40,655,1.0,50.0
909,86.0,0,240,2.0,41.0
910,65.0,0,480,5.0,42.0
911,62.0,0,0,5.0,40.0
912,89.0,240,240,1.0,41.0
913,52.0,0,240,3.0,41.0
914,86.0,0,420,1.0,40.0
915,83.0,240,427,2.0,40.0
916,52.0,240,240,3.0,41.0
917,59.0,0,480,5.0,40.0
918,86.0,0,480,2.0,43.0
919,76.0,240,0,2.0,48.0
920,62.0,0,480,5.0,43.0
921,65.0,0,480,5.0,43.0
922,89.0,240,480,1.0,43.0
923,52.0,240,240,3.0,44.0
924,84.0,0,480,2.0,48.0
925,88.0,0,480,1.0,48.0
926,52.0,240,240,3.0,42.0
927,60.0,0,0,5.0,40.0
928,64.0,0,480,5.0,48.0
929,57.0,0,480,5.0,40.0
930,84.0,240,480,1.0,40.0
931,81.0,0,480,2.0,40.0
932,52.0,240,240,3.0,38.0
933,86.0,0,480,1.0,36.0
934,52.0,240,240,3.0,37.0
935,59.0,240,480,5.0,36.0
936,83.0,0,480,2.0,36.0
937,62.0,0,480,5.0,36.0
938,59.0,0,480,5.0,38.0
939,52.0,240,240,3.0,39.0
940,56.0,0,480,5.0,38.0
941,83.0,0,480,1.0,38.0
942,80.0,240,480,2.0,38.0
943,52.0,240,240,3.0,37.0
944,81.0,0,480,2.0,42.0
945,57.0,0,480,5.0,42.0
946,60.0,0,480,5.0,42.0
947,84.0,240,480,1.0,42.0
948,52.0,240,240,3.0,36.0
949,81.0,0,480,1.0,36.0
950,54.0,240,480,5.0,36.0
951,57.0,0,480,5.0,36.0
952,78.0,0,480,2.0,36.0
953,76.0,0,1440,2.0,42.0
954,83.0,0,480,1.0,35.0
955,59.0,0,480,5.0,35.0
956,56.0,0,0,5.0,34.0
957,80.0,240,480,2.0,35.0
958,52.0,240,240,3.0,35.0
959,76.0,240,420,1.0,34.0
960,52.0,240,180,3.0,34.0
961,60.0,240,240,3.0,34.0
962,57.0,0,240,3.0,34.0
963,64.0,240,240,3.0,34.0
964,52.0,0,240,3.0,35.0
965,48.0,0,240,3.0,35.0
966,76.0,240,240,3.0,35.0
967,69.0,240,480,1.0,44.0
968,60.0,240,240,3.0,35.0
969,64.0,240,240,3.0,35.0
970,57.0,0,240,3.0,35.0
971,52.0,240,240,3.0,36.0
972,71.0,0,480,1.0,45.0
973,48.0,0,240,3.0,36.0
974,76.0,240,240,3.0,36.0
975,62.0,240,240,3.0,36.0
976,57.0,0,240,3.0,37.0
977,69.0,240,480,1.0,46.0
978,72.0,0,240,3.0,37.0
979,53.0,240,240,3.0,37.0
980,77.0,0,240,3.0,37.0
981,50.0,240,240,3.0,37.0
982,62.0,240,240,3.0,38.0
983,57.0,0,240,3.0,38.0
984,65.0,240,480,1.0,48.0
985,53.0,0,240,3.0,38.0
986,71.0,240,240,3.0,38.0
987,77.0,0,240,3.0,38.0
988,50.0,240,240,3.0,38.0
989,62.0,240,240,3.0,39.0
990,69.0,0,240,3.0,39.0
991,59.0,240,240,3.0,39.0
992,57.0,240,240,3.0,39.0
993,83.0,0,240,3.0,40.0
994,52.0,240,240,3.0,40.0
995,77.0,0,480,1.0,49.0
996,62.0,240,240,3.0,40.0
997,68.0,240,240,3.0,40.0
998,59.0,0,240,3.0,40.0
999,56.0,240,240,3.0,41.0
1000,76.0,0,480,1.0,51.0
1001,83.0,0,240,3.0,41.0
1002,52.0,240,240,3.0,41.0
1003,69.0,240,240,3.0,41.0
1004,65.0,0,240,3.0,41.0
1005,74.0,240,480,1.0,51.0
1006,83.0,240,240,3.0,42.0
1007,64.0,0,240,3.0,42.0
1008,57.0,240,240,3.0,42.0
1009,88.0,0,240,3.0,42.0
1010,69.0,240,240,3.0,42.0
1011,64.0,0,240,3.0,43.0
1012,72.0,240,480,1.0,53.0
1013,60.0,240,240,3.0,43.0
1014,81.0,0,240,3.0,43.0
1015,88.0,240,240,3.0,43.0
1016,57.0,0,240,3.0,43.0
1017,65.0,0,600,2.0,62.0
1018,69.0,0,605,2.0,62.0
1019,71.0,0,610,1.0,62.0
1020,72.0,120,133,1.0,61.0
1021,71.0,120,154,1.0,64.0
1022,69.0,120,176,1.0,67.0
1023,71.0,120,198,1.0,70.0
1024,72.0,120,219,1.0,75.0
1025,74.0,120,241,1.0,81.0
1026,76.0,120,263,1.0,86.0
1027,79.0,120,480,1.0,92.0
1028,50.0,240,2400,5.0,49.0
1029,53.0,240,2160,5.0,52.0
1030,57.0,240,1920,5.0,56.0
1031,62.0,240,1680,5.0,61.0
1032,77.0,480,240,1.0,66.0
1033,38.0,240,2647,5.0,45.0
1034,65.0,0,600,2.0,61.0
1035,71.0,0,610,1.0,61.0
1036,68.0,0,622,2.0,61.0
1037,72.0,120,109,1.0,57.0
1038,71.0,120,130,1.0,59.0
1039,69.0,120,150,1.0,61.0
1040,71.0,120,170,1.0,65.0
1041,72.0,120,191,1.0,69.0
1042,74.0,120,211,1.0,73.0
1043,76.0,120,231,1.0,77.0
1044,79.0,120,480,1.0,83.0
1045,56.0,240,1920,5.0,53.0
1046,77.0,480,240,1.0,60.0
1047,59.0,240,1680,5.0,55.0
1048,38.0,1440,2647,5.0,46.0
1049,50.0,240,2407,5.0,48.0
1050,53.0,240,2167,5.0,51.0
1051,84.0,0,480,1.0,72.0
1052,65.0,0,720,4.0,72.0
1053,74.0,0,720,2.0,72.0
1054,56.0,0,720,5.0,72.0
1055,58.0,480,720,5.0,72.0
1056,82.0,480,240,1.0,57.0
1057,70.0,0,720,4.0,72.0
1058,62.0,0,720,4.0,72.0
1059,43.0,1440,103,5.0,38.0
1060,44.0,120,117,5.0,40.0
1061,43.0,120,131,5.0,42.0
1062,42.0,120,145,5.0,44.0
1063,43.0,120,159,5.0,45.0
1064,46.0,120,172,5.0,47.0
1065,51.0,120,186,5.0,49.0
1066,55.0,120,200,5.0,51.0
1067,62.0,0,111,2.0,56.0
1068,63.0,120,129,2.0,46.0
1069,62.0,120,148,2.0,48.0
1070,72.0,0,480,1.0,56.0
1071,61.0,120,166,2.0,50.0
1072,62.0,120,184,2.0,52.0
1073,70.0,0,240,1.0,52.0
1074,58.0,120,720,5.0,60.0
1075,56.0,0,720,5.0,60.0
1076,65.0,120,202,2.0,53.0
1077,68.0,120,220,2.0,55.0
1078,55.0,0,110,5.0,51.0
1079,70.0,120,238,2.0,57.0
1080,56.0,120,128,5.0,53.0
1081,55.0,120,146,5.0,55.0
1082,84.0,0,480,1.0,65.0
1083,54.0,120,164,5.0,57.0
1084,55.0,120,181,5.0,59.0
1085,75.0,120,720,2.0,65.0
1086,82.0,0,240,1.0,61.0
1087,58.0,120,199,5.0,61.0
1088,63.0,120,217,5.0,62.0
1089,74.0,0,103,2.0,70.0
1090,67.0,120,234,5.0,64.0
1091,75.0,120,117,2.0,58.0
1092,74.0,120,131,2.0,60.0
1093,84.0,120,480,1.0,70.0
1094,73.0,120,146,2.0,62.0
1095,74.0,0,160,2.0,65.0
1096,68.0,0,720,5.0,74.0
1097,70.0,0,720,5.0,74.0
1098,82.0,120,240,1.0,65.0
1099,77.0,120,174,2.0,67.0
1100,80.0,120,188,2.0,69.0
1101,82.0,120,202,2.0,71.0
1102,80.0,0,103,5.0,67.0
1103,77.0,120,117,5.0,68.0
1104,74.0,120,131,5.0,70.0
1105,96.0,0,480,1.0,81.0
1106,70.0,120,145,5.0,71.0
1107,68.0,0,159,5.0,72.0
1108,86.0,120,720,2.0,85.0
1109,65.0,120,174,5.0,73.0
1110,62.0,120,188,5.0,74.0
1111,56.0,120,202,5.0,76.0
1112,94.0,120,720,1.0,81.0
1113,93.0,240,240,1.0,74.0
1114,92.0,240,240,1.0,70.0
1115,91.0,240,240,1.0,67.0
1116,90.0,0,240,1.0,64.0
1117,89.0,240,240,1.0,61.0
1118,88.0,240,240,1.0,57.0
1119,87.0,240,240,1.0,54.0
1120,62.0,240,960,5.0,64.0
1121,53.0,0,960,5.0,64.0
1122,86.0,240,240,1.0,52.0
1123,85.0,240,240,1.0,53.0
1124,84.0,240,240,1.0,55.0
1125,64.0,0,960,5.0,52.0
1126,83.0,240,240,1.0,58.0
1127,52.0,0,960,5.0,52.0
1128,82.0,240,240,1.0,60.0
1129,81.0,240,240,1.0,62.0
1130,80.0,240,240,1.0,64.0
1131,79.0,240,240,1.0,67.0
1132,78.0,240,240,1.0,71.0
1133,77.0,240,240,1.0,66.0
1134,76.0,240,240,1.0,62.0
1135,75.0,240,240,1.0,57.0
1136,50.0,0,1920,5.0,57.0
1137,65.0,0,1920,5.0,57.0
1138,74.0,0,240,1.0,52.0
1139,73.0,240,240,1.0,47.0
1140,72.0,240,240,1.0,43.0
1141,71.0,240,240,1.0,38.0
1142,53.0,0,960,5.0,53.0
1143,62.0,240,960,5.0,53.0
1144,57.0,120,6705,5.0,82.0
1145,52.0,0,960,5.0,45.0
1146,60.0,240,960,5.0,45.0
1147,72.0,480,480,1.0,41.0
1148,75.0,480,480,1.0,45.0
1149,81.0,480,480,1.0,39.0
1150,77.0,0,480,1.0,42.0
1151,65.0,480,480,5.0,42.0
1152,52.0,480,960,5.0,37.0
1153,56.0,0,960,4.0,37.0
1154,59.0,0,960,4.0,37.0
1155,76.0,0,480,1.0,37.0
1156,64.0,480,480,5.0,37.0
1157,56.0,0,420,5.0,30.0
1158,68.0,480,427,1.0,30.0
1159,69.0,240,240,3.0,30.0
1160,77.0,480,480,2.0,29.0
1161,69.0,240,240,3.0,32.0
1162,81.0,0,960,1.0,29.0
1163,77.0,240,480,2.0,31.0
1164,57.0,0,960,4.0,29.0
1165,76.0,0,480,2.0,33.0
1166,67.0,0,480,5.0,33.0
1167,64.0,0,480,5.0,33.0
1168,79.0,240,480,1.0,33.0
1169,57.0,240,240,3.0,34.0
1170,45.0,0,1920,5.0,29.0
1171,65.0,0,480,5.0,35.0
1172,69.0,240,480,5.0,35.0
1173,57.0,240,240,3.0,37.0
1174,81.0,0,480,1.0,35.0
1175,77.0,0,480,2.0,35.0
1176,57.0,240,240,3.0,39.0
1177,67.0,0,0,5.0,39.0
1178,70.0,240,487,5.0,38.0
1179,79.0,0,720,2.0,38.0
1180,82.0,0,720,1.0,38.0
1181,79.0,240,240,1.0,38.0
1182,64.0,240,0,5.0,38.0
1183,57.0,0,240,3.0,38.0
1184,76.0,0,240,2.0,38.0
1185,76.0,0,420,1.0,38.0
1186,73.0,0,427,2.0,38.0
1187,57.0,240,240,3.0,38.0
1188,61.0,0,480,5.0,38.0
1189,62.0,0,480,5.0,37.0
1190,74.0,0,480,2.0,37.0
1191,57.0,240,240,3.0,37.0
1192,65.0,240,480,5.0,37.0
1193,77.0,0,480,1.0,37.0
1194,76.0,0,480,2.0,37.0
1195,79.0,0,480,1.0,37.0
1196,67.0,0,480,5.0,37.0
1197,57.0,240,240,3.0,36.0
1198,64.0,240,480,5.0,37.0
1199,65.0,0,480,5.0,36.0
1200,62.0,0,480,5.0,36.0
1201,57.0,240,240,3.0,35.0
1202,77.0,240,480,1.0,36.0
1203,74.0,0,480,2.0,36.0
1204,57.0,240,240,3.0,35.0
1205,72.0,0,480,2.0,35.0
1206,60.0,0,480,5.0,35.0
1207,64.0,0,480,5.0,35.0
1208,76.0,240,480,1.0,35.0
1209,62.0,0,480,5.0,34.0
1210,58.0,0,480,5.0,34.0
1211,57.0,240,240,3.0,34.0
1212,70.0,240,480,2.0,34.0
1213,74.0,0,480,1.0,34.0
1214,57.0,240,240,3.0,33.0
1215,61.0,0,480,5.0,34.0
1216,73.0,0,720,1.0,34.0
1217,69.0,240,727,2.0,34.0
1218,62.0,0,480,5.0,33.0
1219,59.0,240,480,5.0,33.0
1220,57.0,0,240,3.0,33.0
1221,74.0,0,247,1.0,33.0
1222,71.0,240,247,2.0,33.0
1223,73.0,0,480,2.0,32.0
1224,57.0,240,240,3.0,32.0
1225,76.0,0,480,1.0,32.0
1226,64.0,0,0,5.0,31.0
1227,61.0,240,0,5.0,31.0
1228,57.0,240,240,3.0,31.0
1229,57.0,240,240,3.0,30.0
1230,69.0,240,0,5.0,30.0
1231,85.0,0,720,1.0,31.0
1232,81.0,240,720,2.0,31.0
1233,86.0,0,240,1.0,30.0
1234,83.0,0,240,2.0,30.0
1235,57.0,240,240,3.0,30.0
1236,88.0,0,480,1.0,29.0
1237,69.0,240,0,5.0,29.0
1238,57.0,240,240,3.0,29.0
1239,85.0,240,480,2.0,29.0
1240,57.0,240,240,3.0,28.0
1241,64.0,0,480,5.0,28.0
1242,57.0,240,240,3.0,29.0
1243,72.0,0,720,1.0,28.0
1244,69.0,240,720,2.0,28.0
1245,64.0,240,0,5.0,32.0
1246,71.0,0,240,2.0,31.0
1247,57.0,0,240,3.0,31.0
1248,74.0,240,240,1.0,31.0
1249,57.0,240,240,3.0,33.0
1250,64.0,240,0,5.0,34.0
1251,57.0,240,240,3.0,35.0
1252,67.0,240,480,5.0,36.0
1253,55.0,240,240,3.0,37.0
1254,72.0,0,1680,2.0,32.0
1255,76.0,0,1680,1.0,32.0
1256,67.0,240,0,5.0,40.0
1257,74.0,0,240,2.0,39.0
1258,55.0,240,240,3.0,39.0
1259,77.0,0,240,1.0,39.0
1260,55.0,240,240,3.0,41.0
1261,67.0,240,480,5.0,42.0
1262,55.0,240,240,3.0,43.0
1263,55.0,240,240,3.0,45.0
1264,66.0,240,0,5.0,46.0
1265,79.0,0,1702,1.0,40.0
1266,76.0,0,1702,2.0,40.0
1267,55.0,240,240,3.0,47.0
1268,81.0,0,240,1.0,47.0
1269,77.0,0,240,2.0,47.0
1270,55.0,240,240,3.0,49.0
1271,65.0,0,480,5.0,56.0
1272,55.0,240,240,3.0,51.0
1273,74.0,0,960,2.0,56.0
1274,65.0,240,480,5.0,50.0
1275,64.0,0,480,5.0,60.0
1276,55.0,240,240,3.0,53.0
1277,83.0,0,1688,1.0,56.0
1278,79.0,240,1884,2.0,56.0
1279,72.0,240,960,2.0,60.0
1280,64.0,240,480,5.0,54.0
1281,84.0,240,240,1.0,55.0
1282,55.0,0,240,3.0,55.0
1283,55.0,240,240,3.0,56.0
1284,62.0,240,0,5.0,57.0
1285,55.0,240,240,3.0,58.0
1286,83.0,0,960,2.0,62.0
1287,74.0,0,960,2.0,62.0
1288,77.0,0,960,2.0,62.0
1289,60.0,240,480,5.0,70.0
1290,55.0,240,240,3.0,60.0
1291,86.0,0,1695,1.0,62.0
1292,55.0,0,240,3.0,62.0
1293,60.0,240,480,5.0,61.0
1294,76.0,0,960,2.0,70.0
1295,79.0,0,960,2.0,70.0
1296,88.0,240,240,1.0,62.0
1297,59.0,240,0,5.0,65.0
1298,55.0,240,240,3.0,64.0
1299,55.0,240,240,3.0,66.0
1300,89.0,0,1080,1.0,71.0
1301,86.0,0,1080,2.0,71.0
1302,77.0,0,1095,2.0,71.0
1303,67.0,240,156,5.0,69.0
1304,88.0,0,240,1.0,74.0
1305,55.0,0,240,5.0,73.0
1306,76.0,0,240,2.0,73.0
1307,85.0,240,240,2.0,73.0
1308,67.0,240,156,5.0,77.0
1309,89.0,0,156,1.0,78.0
1310,77.0,0,156,2.0,77.0
1311,86.0,0,156,2.0,77.0
1312,55.0,0,240,5.0,81.0
1313,76.0,0,240,2.0,81.0
1314,85.0,0,240,2.0,81.0
1315,88.0,240,240,1.0,82.0
1316,77.0,0,156,2.0,84.0
1317,86.0,0,156,2.0,84.0
1318,67.0,240,156,5.0,84.0
1319,89.0,0,156,1.0,87.0
1320,88.0,0,240,1.0,91.0
1321,85.0,240,240,2.0,88.0
1322,55.0,0,240,5.0,88.0
1323,76.0,0,240,2.0,88.0
1324,89.0,240,156,1.0,95.0
1325,67.0,0,156,5.0,92.0
1326,86.0,0,156,2.0,92.0
1327,77.0,0,156,2.0,92.0
1328,55.0,0,240,5.0,96.0
1329,88.0,0,240,1.0,100.0
1330,76.0,240,240,2.0,96.0
1331,85.0,0,240,2.0,96.0
1332,89.0,0,120,2.0,106.0
1333,91.0,0,120,2.0,106.0
1334,71.0,0,156,5.0,106.0
1335,65.0,240,156,4.0,106.0
1336,62.0,0,156,4.0,106.0
1337,55.0,0,156,5.0,106.0
1338,101.0,0,233,1.0,106.0
1339,98.0,120,228,1.0,103.0
1340,95.0,0,224,1.0,101.0
1341,64.0,0,240,5.0,97.0
1342,76.0,120,240,5.0,97.0
1343,91.0,120,219,1.0,99.0
1344,65.0,0,156,5.0,84.0
1345,77.0,120,156,5.0,84.0
1346,89.0,0,214,1.0,97.0
1347,86.0,120,210,1.0,95.0
1348,73.0,0,156,5.0,91.0
1349,61.0,0,156,5.0,91.0
1350,83.0,120,205,1.0,94.0
1351,79.0,120,200,1.0,92.0
1352,62.0,0,156,5.0,77.0
1353,74.0,120,156,5.0,77.0
1354,89.0,0,196,1.0,90.0
1355,86.0,120,191,1.0,88.0
1356,83.0,120,187,1.0,86.0
1357,70.0,0,240,5.0,85.0
1358,58.0,0,240,5.0,85.0
1359,79.0,120,182,1.0,84.0
1360,59.0,0,156,5.0,70.0
1361,71.0,120,156,5.0,70.0
1362,77.0,0,177,1.0,82.0
1363,74.0,120,173,1.0,80.0
1364,67.0,0,156,5.0,64.0
1365,55.0,120,156,5.0,64.0
1366,71.0,0,168,1.0,78.0
1367,67.0,120,164,1.0,76.0
1368,89.0,120,159,1.0,75.0
1369,86.0,120,154,1.0,73.0
1370,83.0,0,150,1.0,70.0
1371,40.0,0,240,5.0,70.0
1372,52.0,120,240,5.0,70.0
1373,79.0,120,145,1.0,68.0
1374,77.0,0,140,1.0,66.0
1375,41.0,120,156,5.0,60.0
1376,53.0,0,156,5.0,60.0
1377,74.0,120,136,1.0,64.0
1378,71.0,0,131,1.0,62.0
1379,49.0,120,156,5.0,62.0
1380,37.0,0,156,5.0,62.0
1381,67.0,120,127,1.0,59.0
1382,65.0,0,122,1.0,57.0
1383,50.0,0,156,5.0,55.0
1384,38.0,120,156,5.0,55.0
1385,62.0,80,117,1.0,56.0
1386,59.0,80,113,1.0,54.0
1387,55.0,80,108,1.0,53.0
1388,59.0,80,104,1.0,51.0
1389,34.0,0,240,5.0,58.0
1390,46.0,0,240,5.0,58.0
1391,62.0,80,99,1.0,50.0
1392,65.0,80,94,1.0,48.0
1393,47.0,0,156,5.0,49.0
1394,35.0,0,156,5.0,49.0
1395,67.0,80,90,1.0,47.0
1396,74.0,80,90,1.0,46.0
1397,77.0,0,90,1.0,44.0
1398,43.0,80,156,5.0,45.0
1399,35.0,0,156,5.0,45.0
1400,79.0,80,90,1.0,43.0
1401,83.0,80,90,1.0,41.0
1402,48.0,80,480,5.0,87.0
1403,60.0,40,480,5.0,85.0
1404,55.0,0,480,4.0,84.0
1405,84.0,0,480,1.0,84.0
1406,64.0,0,480,4.0,84.0
1407,76.0,40,480,3.0,84.0
1408,79.0,0,480,3.0,84.0
1409,72.0,0,480,2.0,85.0
1410,43.0,640,120,4.0,64.0
1411,48.0,0,120,4.0,64.0
1412,64.0,0,120,1.0,64.0
1413,36.0,0,120,5.0,64.0
1414,60.0,0,120,2.0,64.0
1415,52.0,0,120,2.0,64.0
1416,36.0,0,360,5.0,66.0
1417,48.0,240,360,4.0,66.0
1418,43.0,0,360,4.0,66.0
1419,60.0,0,360,2.0,66.0
1420,64.0,0,360,1.0,66.0
1421,52.0,0,360,2.0,66.0
1422,53.0,0,120,2.0,65.0
1423,65.0,0,120,1.0,65.0
1424,50.0,0,120,4.0,65.0
1425,60.0,480,120,2.0,65.0
1426,38.0,0,120,5.0,65.0
1427,60.0,0,120,2.0,66.0
1428,40.0,0,120,5.0,66.0
1429,52.0,0,120,4.0,66.0
1430,67.0,0,120,1.0,66.0
1431,55.0,240,120,2.0,66.0
1432,69.0,0,156,1.0,70.0
1433,53.0,240,156,4.0,70.0
1434,48.0,0,156,4.0,70.0
1435,60.0,0,156,2.0,70.0
1436,57.0,0,156,2.0,70.0
1437,41.0,0,192,5.0,70.0
1438,48.0,0,156,4.0,64.0
1439,52.0,0,156,4.0,64.0
1440,60.0,0,156,2.0,64.0
1441,55.0,0,156,2.0,64.0
1442,67.0,0,156,1.0,64.0
1443,40.0,480,192,5.0,64.0
1444,60.0,0,120,2.0,69.0
1445,52.0,0,120,2.0,69.0
1446,48.0,0,120,4.0,69.0
1447,64.0,0,120,1.0,69.0
1448,43.0,0,120,4.0,69.0
1449,36.0,1200,120,5.0,69.0
1450,43.0,240,360,4.0,71.0
1451,60.0,0,360,2.0,71.0
1452,48.0,0,360,4.0,71.0
1453,52.0,0,360,2.0,71.0
1454,64.0,0,360,1.0,71.0
1455,36.0,0,360,5.0,71.0
1456,38.0,480,120,5.0,69.0
1457,65.0,0,120,1.0,69.0
1458,60.0,0,120,2.0,69.0
1459,53.0,0,120,2.0,69.0
1460,50.0,0,120,4.0,69.0
1461,52.0,0,120,4.0,71.0
1462,40.0,0,120,5.0,71.0
1463,67.0,240,120,1.0,71.0
1464,60.0,0,120,2.0,71.0
1465,55.0,0,120,2.0,71.0
1466,57.0,0,360,2.0,74.0
1467,60.0,0,360,2.0,74.0
1468,41.0,0,360,5.0,74.0
1469,53.0,0,360,4.0,74.0
1470,69.0,0,360,1.0,74.0
1471,48.0,240,360,4.0,74.0
1472,40.0,0,120,5.0,73.0
1473,60.0,0,120,2.0,73.0
1474,48.0,0,120,4.0,73.0
1475,52.0,0,120,4.0,73.0
1476,55.0,480,120,2.0,73.0
1477,67.0,0,120,1.0,73.0
1478,57.0,240,120,2.0,78.0
1479,48.0,0,120,4.0,77.0
1480,53.0,0,120,4.0,77.0
1481,60.0,0,120,2.0,78.0
1482,69.0,0,120,1.0,77.0
1483,41.0,0,120,5.0,77.0
1484,55.0,0,156,4.0,81.0
1485,58.0,0,156,2.0,82.0
1486,60.0,240,156,2.0,82.0
1487,70.0,0,156,1.0,82.0
1488,43.0,0,156,5.0,81.0
1489,48.0,0,156,4.0,81.0
1490,53.0,0,156,4.0,70.0
1491,48.0,0,156,4.0,70.0
1492,41.0,0,156,5.0,70.0
1493,60.0,480,156,2.0,70.0
1494,69.0,0,156,1.0,70.0
1495,57.0,0,156,2.0,70.0
1496,52.0,0,120,4.0,72.0
1497,40.0,960,120,5.0,72.0
1498,67.0,0,120,1.0,72.0
1499,48.0,0,120,4.0,72.0
1500,60.0,0,120,2.0,72.0
1501,55.0,0,120,2.0,72.0
1502,60.0,240,120,2.0,73.0
1503,53.0,0,120,4.0,73.0
1504,48.0,0,120,4.0,73.0
1505,41.0,0,120,5.0,73.0
1506,69.0,0,120,1.0,73.0
1507,57.0,0,120,2.0,73.0
1508,71.0,0,192,1.0,74.0
1509,65.0,0,192,2.0,74.0
1510,38.0,0,192,5.0,74.0
1511,59.0,240,192,2.0,74.0
1512,50.0,0,192,4.0,74.0
1513,52.0,0,192,4.0,76.0
1514,72.0,0,192,1.0,76.0
1515,40.0,0,192,5.0,76.0
1516,64.0,0,192,2.0,75.0
1517,60.0,480,192,2.0,75.0
1518,62.0,480,192,2.0,79.0
1519,67.0,0,192,2.0,79.0
1520,35.0,0,192,5.0,80.0
1521,47.0,0,192,4.0,80.0
1522,74.0,0,192,1.0,79.0
1523,76.0,0,192,1.0,83.0
1524,48.0,0,192,4.0,84.0
1525,64.0,480,192,2.0,83.0
1526,67.0,0,192,2.0,83.0
1527,36.0,0,192,5.0,83.0
1528,78.0,0,121,1.0,84.0
1529,79.0,80,127,1.0,74.0
1530,78.0,80,132,1.0,75.0
1531,79.0,80,137,1.0,76.0
1532,78.0,80,142,1.0,77.0
1533,79.0,80,147,1.0,78.0
1534,78.0,80,152,1.0,79.0
1535,79.0,80,158,1.0,81.0
1536,78.0,80,163,1.0,82.0
1537,76.0,80,168,1.0,83.0
1538,45.0,0,960,4.0,87.0
1539,74.0,0,960,2.0,87.0
1540,72.0,480,960,2.0,87.0
1541,38.0,0,0,4.0,86.0
1542,33.0,0,960,5.0,86.0
1543,78.0,120,176,1.0,84.0
1544,71.0,0,360,2.0,87.0
1545,79.0,0,360,1.0,91.0
1546,43.0,120,360,4.0,86.0
1547,31.0,0,360,5.0,86.0
1548,62.0,0,120,5.0,85.0
1549,74.0,480,120,1.0,85.0
1550,78.0,0,120,1.0,81.0
1551,66.0,240,120,5.0,81.0
1552,79.0,240,180,1.0,77.0
1553,67.0,0,180,5.0,77.0
1554,62.0,480,120,1.0,80.0
1555,50.0,0,120,5.0,80.0
1556,66.0,240,120,1.0,77.0
1557,54.0,0,120,5.0,77.0
1558,55.0,0,180,5.0,73.0
1559,67.0,240,180,1.0,73.0
1560,50.0,0,120,1.0,67.0
1561,38.0,480,120,5.0,71.0
1562,54.0,0,120,1.0,69.0
1563,42.0,240,120,5.0,73.0
1564,55.0,0,160,1.0,71.0
1565,43.0,240,180,5.0,75.0
1566,59.0,160,160,1.0,73.0
1567,60.0,160,160,1.0,74.0
1568,62.0,160,160,1.0,76.0
1569,64.0,160,160,1.0,77.0
1570,66.0,160,160,1.0,79.0
1571,67.0,0,158,1.0,81.0
1572,70.0,120,172,1.0,83.0
1573,72.0,120,186,1.0,85.0
1574,74.0,120,200,1.0,87.0
1575,76.0,120,214,1.0,89.0
1576,78.0,120,229,1.0,92.0
1577,55.0,160,960,5.0,83.0
1578,58.0,0,960,4.0,83.0
1579,79.0,120,262,1.0,95.0
1580,81.0,120,294,1.0,98.0
1581,46.0,120,480,5.0,94.0
1582,53.0,40,480,4.0,94.0
1583,70.0,0,480,2.0,98.0
1584,74.0,0,480,2.0,98.0
1585,77.0,40,480,2.0,98.0
1586,58.0,0,480,4.0,95.0
1587,82.0,0,480,1.0,106.0
1588,62.0,0,480,4.0,95.0
1589,70.0,0,120,2.0,81.0
1590,62.0,0,120,2.0,81.0
1591,46.0,640,120,4.0,81.0
1592,34.0,0,120,5.0,81.0
1593,74.0,0,120,1.0,81.0
1594,46.0,0,360,4.0,82.0
1595,62.0,0,360,2.0,82.0
1596,34.0,0,360,5.0,82.0
1597,74.0,240,360,1.0,82.0
1598,70.0,0,360,2.0,82.0
1599,48.0,480,120,4.0,80.0
1600,36.0,0,120,5.0,79.0
1601,75.0,0,120,1.0,84.0
1602,63.0,0,120,2.0,81.0
1603,70.0,0,120,2.0,81.0
1604,77.0,0,120,1.0,89.0
1605,38.0,0,120,5.0,85.0
1606,50.0,0,120,4.0,86.0
1607,70.0,240,120,2.0,87.0
1608,65.0,0,120,2.0,87.0
1609,46.0,0,156,4.0,93.0
1610,51.0,240,156,4.0,93.0
1611,70.0,0,156,2.0,94.0
1612,39.0,0,156,5.0,91.0
1613,67.0,0,156,2.0,94.0
1614,79.0,0,156,1.0,98.0
1615,65.0,0,156,2.0,83.0
1616,77.0,480,156,1.0,83.0
1617,46.0,0,156,4.0,83.0
1618,50.0,0,156,4.0,83.0
1619,70.0,0,156,2.0,83.0
1620,38.0,0,156,5.0,83.0
1621,34.0,0,120,5.0,70.0
1622,46.0,1200,120,4.0,70.0
1623,62.0,0,120,2.0,71.0
1624,70.0,0,120,2.0,71.0
1625,74.0,0,120,1.0,70.0
1626,46.0,0,360,4.0,74.0
1627,34.0,0,360,5.0,74.0
1628,74.0,0,360,1.0,73.0
1629,62.0,0,360,2.0,73.0
1630,70.0,240,360,2.0,73.0
1631,63.0,480,120,2.0,69.0
1632,75.0,0,120,1.0,71.0
1633,48.0,0,120,4.0,71.0
1634,70.0,0,120,2.0,69.0
1635,36.0,0,120,5.0,72.0
1636,38.0,240,120,5.0,75.0
1637,77.0,0,120,1.0,74.0
1638,50.0,0,120,4.0,74.0
1639,70.0,0,120,2.0,72.0
1640,65.0,0,120,2.0,72.0
1641,39.0,240,360,5.0,79.0
1642,46.0,0,360,4.0,77.0
1643,51.0,0,360,4.0,77.0
1644,70.0,0,360,2.0,75.0
1645,79.0,0,360,1.0,77.0
1646,67.0,0,360,2.0,75.0
1647,77.0,0,120,1.0,76.0
1648,38.0,0,120,5.0,77.0
1649,65.0,480,120,2.0,77.0
1650,70.0,0,120,2.0,77.0
1651,46.0,0,120,4.0,77.0
1652,50.0,0,120,4.0,77.0
1653,46.0,0,120,4.0,81.0
1654,51.0,0,120,4.0,81.0
1655,79.0,0,120,1.0,80.0
1656,39.0,0,120,5.0,80.0
1657,67.0,0,120,2.0,81.0
1658,70.0,240,120,2.0,81.0
1659,53.0,240,156,4.0,85.0
1660,46.0,0,156,4.0,85.0
1661,41.0,0,156,5.0,83.0
1662,68.0,0,156,2.0,84.0
1663,70.0,0,156,2.0,84.0
1664,80.0,0,156,1.0,85.0
1665,70.0,0,156,2.0,76.0
1666,51.0,0,156,4.0,76.0
1667,67.0,0,156,2.0,76.0
1668,79.0,480,156,1.0,76.0
1669,39.0,0,156,5.0,76.0
1670,46.0,0,156,4.0,76.0
1671,77.0,960,120,1.0,61.0
1672,50.0,0,120,4.0,59.0
1673,38.0,0,120,5.0,59.0
1674,70.0,0,120,2.0,61.0
1675,65.0,0,120,2.0,61.0
1676,67.0,240,120,2.0,61.0
1677,51.0,0,120,4.0,59.0
1678,39.0,0,120,5.0,59.0
1679,79.0,0,120,1.0,61.0
1680,70.0,0,120,2.0,61.0
1681,83.0,240,192,1.0,62.0
1682,41.0,0,192,5.0,60.0
1683,79.0,0,192,2.0,62.0
1684,71.0,0,192,2.0,62.0
1685,53.0,0,192,4.0,60.0
1686,51.0,0,192,4.0,62.0
1687,79.0,0,192,2.0,65.0
1688,39.0,0,192,5.0,62.0
1689,72.0,0,192,2.0,65.0
1690,84.0,480,192,1.0,65.0
1691,47.0,0,192,4.0,64.0
1692,79.0,0,192,2.0,66.0
1693,74.0,0,192,2.0,66.0
1694,86.0,0,192,1.0,66.0
1695,35.0,480,192,5.0,64.0
1696,48.0,480,192,4.0,66.0
1697,75.0,0,192,2.0,68.0
1698,87.0,0,192,1.0,68.0
1699,79.0,0,192,2.0,68.0
1700,36.0,0,192,5.0,66.0
1701,89.0,480,240,1.0,69.0
1702,84.0,0,240,2.0,69.0
1703,45.0,0,240,4.0,68.0
1704,33.0,0,240,5.0,68.0
1705,77.0,0,240,2.0,69.0
1706,38.0,0,960,4.0,72.0
1707,84.0,0,960,2.0,71.0
1708,86.0,0,960,2.0,71.0
1709,44.0,0,960,4.0,72.0
1710,90.0,480,960,1.0,76.0
1711,78.0,0,960,2.0,71.0
1712,32.0,0,960,5.0,73.0
1713,31.0,0,960,5.0,78.0
1714,43.0,0,960,4.0,79.0
1715,38.0,0,960,4.0,79.0
1716,84.0,0,960,2.0,78.0
1717,79.0,960,960,2.0,78.0
1718,91.0,0,960,1.0,80.0
1719,86.0,0,0,2.0,84.0
1720,81.0,0,960,2.0,84.0
1721,30.0,0,960,5.0,83.0
1722,38.0,0,960,4.0,83.0
1723,93.0,0,0,1.0,89.0
1724,42.0,0,0,4.0,87.0
1725,86.0,0,0,2.0,89.0
1726,84.0,0,0,2.0,89.0
1727,38.0,0,240,4.0,87.0
1728,30.0,0,240,5.0,84.0
1729,81.0,960,600,2.0,89.0
1730,31.0,480,245,5.0,82.0
1731,38.0,0,270,4.0,84.0
1732,43.0,0,270,4.0,84.0
1733,79.0,0,120,2.0,85.0
1734,83.0,240,120,2.0,85.0
1735,91.0,0,120,1.0,87.0
1736,77.0,240,120,2.0,81.0
1737,89.0,0,120,1.0,84.0
1738,74.0,0,120,2.0,78.0
1739,86.0,240,120,1.0,80.0
1740,83.0,0,120,1.0,77.0
1741,71.0,240,120,2.0,75.0
1742,67.0,0,120,2.0,71.0
1743,79.0,240,120,1.0,73.0
1744,50.0,0,960,5.0,77.0
1745,55.0,0,960,4.0,78.0
1746,59.0,0,960,4.0,78.0
1747,53.0,0,960,4.0,78.0
1748,65.0,240,120,2.0,68.0
1749,77.0,0,120,1.0,70.0
1750,31.0,0,240,5.0,68.0
1751,43.0,0,240,4.0,67.0
1752,62.0,0,120,2.0,64.0
1753,74.0,240,120,1.0,66.0
1754,43.0,0,240,4.0,61.0
1755,48.0,0,240,4.0,61.0
1756,36.0,0,240,5.0,64.0
1757,72.0,240,720,1.0,62.0
1758,60.0,0,720,2.0,61.0
1759,64.0,0,720,2.0,61.0
1760,52.0,0,120,5.0,46.0
1761,48.0,720,120,5.0,46.0
1762,48.0,0,480,5.0,48.0
1763,52.0,240,480,5.0,48.0
1764,53.0,480,120,5.0,48.0
1765,50.0,0,120,5.0,48.0
1766,52.0,240,120,5.0,49.0
1767,55.0,0,120,5.0,49.0
1768,60.0,0,120,2.0,49.0
1769,53.0,0,120,5.0,52.0
1770,57.0,240,120,5.0,52.0
1771,60.0,0,480,2.0,50.0
1772,52.0,0,120,5.0,51.0
1773,55.0,0,120,5.0,51.0
1774,62.0,480,120,2.0,51.0
1775,64.0,240,120,2.0,51.0
1776,55.0,0,480,5.0,52.0
1777,65.0,0,480,2.0,56.0
1778,59.0,240,480,5.0,52.0
1779,65.0,480,120,2.0,54.0
1780,57.0,0,120,5.0,54.0
1781,60.0,0,120,5.0,54.0
1782,59.0,0,120,5.0,54.0
1783,65.0,240,120,2.0,54.0
1784,67.0,0,120,2.0,59.0
1785,62.0,0,120,5.0,54.0
1786,65.0,0,480,5.0,58.0
1787,60.0,240,480,5.0,58.0
1788,67.0,0,480,2.0,62.0
1789,60.0,0,120,5.0,58.0
1790,64.0,480,120,5.0,58.0
1791,69.0,0,120,2.0,58.0
1792,71.0,240,120,2.0,60.0
1793,79.0,0,120,1.0,65.0
1794,55.0,0,120,5.0,60.0
1795,62.0,0,120,5.0,60.0
1796,72.0,240,480,2.0,62.0
1797,64.0,0,480,5.0,66.0
1798,60.0,0,480,5.0,66.0
1799,74.0,480,120,2.0,56.0
1800,55.0,0,120,5.0,56.0
1801,79.0,0,600,1.0,67.0
1802,62.0,0,120,5.0,56.0
1803,76.0,240,120,2.0,54.0
1804,79.0,0,120,1.0,59.0
1805,60.0,0,120,5.0,54.0
1806,52.0,0,120,5.0,54.0
1807,79.0,0,240,1.0,58.0
1808,78.0,240,120,1.0,52.0
1809,77.0,0,595,2.0,58.0
1810,59.0,0,595,5.0,56.0
1811,55.0,240,595,5.0,56.0
1812,81.0,240,120,1.0,54.0
1813,76.0,240,120,2.0,56.0
1814,79.0,0,120,1.0,56.0
1815,60.0,0,120,5.0,56.0
1816,64.0,0,120,5.0,56.0
1817,79.0,0,240,1.0,63.0
1818,78.0,240,120,1.0,59.0
1819,59.0,0,595,5.0,64.0
1820,55.0,0,600,5.0,64.0
1821,81.0,240,120,1.0,63.0
1822,77.0,240,600,2.0,63.0
1823,64.0,0,120,5.0,65.0
1824,72.0,0,120,2.0,66.0
1825,79.0,240,120,1.0,67.0
1826,67.0,0,120,5.0,65.0
1827,82.0,0,480,1.0,70.0
1828,64.0,0,480,5.0,70.0
1829,73.0,240,480,2.0,71.0
1830,67.0,0,480,5.0,70.0
1831,74.0,0,180,2.0,59.0
1832,81.0,480,180,1.0,60.0
1833,65.0,0,180,5.0,58.0
1834,53.0,0,480,5.0,54.0
1835,50.0,480,480,5.0,54.0
1836,55.0,480,120,5.0,55.0
1837,52.0,0,120,5.0,55.0
1838,62.0,240,120,2.0,56.0
1839,53.0,0,120,5.0,56.0
1840,57.0,0,120,5.0,56.0
1841,58.0,0,120,5.0,60.0
1842,55.0,0,120,5.0,60.0
1843,62.0,0,0,2.0,58.0
1844,57.0,0,120,5.0,58.0
1845,53.0,480,120,5.0,58.0
1846,64.0,240,120,2.0,59.0
1847,61.0,0,480,5.0,60.0
1848,57.0,0,480,5.0,60.0
1849,67.0,0,0,2.0,61.0
1850,62.0,480,120,5.0,61.0
1851,59.0,0,120,5.0,61.0
1852,67.0,0,120,2.0,62.0
1853,69.0,0,120,2.0,67.0
1854,64.0,0,120,5.0,62.0
1855,60.0,240,120,5.0,62.0
1856,67.0,240,480,2.0,63.0
1857,69.0,0,480,2.0,63.0
1858,62.0,0,480,5.0,68.0
1859,71.0,480,120,2.0,67.0
1860,62.0,0,120,5.0,67.0
1861,65.0,0,120,5.0,67.0
1862,57.0,0,120,5.0,68.0
1863,81.0,0,120,1.0,73.0
1864,73.0,240,120,2.0,68.0
1865,64.0,0,120,5.0,68.0
1866,74.0,240,480,2.0,72.0
1867,65.0,0,480,5.0,74.0
1868,62.0,0,480,5.0,74.0
1869,81.0,0,600,1.0,77.0
1870,57.0,0,120,5.0,66.0
1871,64.0,0,120,5.0,66.0
1872,76.0,480,120,2.0,66.0
1873,77.0,0,120,2.0,63.0
1874,81.0,0,120,1.0,68.0
1875,53.0,240,120,5.0,63.0
1876,62.0,0,120,5.0,63.0
1877,81.0,240,240,1.0,66.0
1878,80.0,240,120,1.0,61.0
1879,57.0,0,595,5.0,69.0
1880,61.0,0,600,5.0,69.0
1881,82.0,240,120,1.0,62.0
1882,79.0,0,600,2.0,66.0
1883,62.0,0,120,5.0,64.0
1884,81.0,0,120,1.0,64.0
1885,65.0,240,120,5.0,64.0
1886,81.0,0,240,1.0,70.0
1887,80.0,240,120,1.0,65.0
1888,62.0,240,595,5.0,69.0
1889,77.0,0,595,2.0,70.0
1890,82.0,240,120,1.0,69.0
1891,65.0,0,600,5.0,69.0
1892,69.0,0,120,5.0,71.0
1893,74.0,0,120,2.0,73.0
1894,65.0,240,120,5.0,71.0
1895,81.0,0,120,1.0,72.0
1896,84.0,240,480,1.0,77.0
1897,66.0,0,480,5.0,78.0
1898,69.0,0,480,5.0,78.0
1899,75.0,0,480,2.0,79.0
1900,67.0,480,180,5.0,69.0
1901,83.0,0,180,1.0,68.0
1902,76.0,0,180,2.0,68.0
1903,55.0,0,480,5.0,64.0
1904,52.0,480,480,5.0,64.0
1905,54.0,0,120,5.0,68.0
1906,57.0,480,120,5.0,68.0
1907,55.0,240,120,5.0,70.0
1908,59.0,0,120,5.0,70.0
1909,88.0,0,480,1.0,78.0
1910,60.0,0,595,5.0,76.0
1911,57.0,0,595,5.0,76.0
1912,87.0,480,180,1.0,68.0
1913,78.0,240,660,2.0,76.0
1914,64.0,480,480,5.0,63.0
1915,55.0,0,480,5.0,63.0
1916,66.0,480,120,5.0,67.0
1917,57.0,0,120,5.0,67.0
1918,59.0,240,120,5.0,70.0
1919,67.0,0,120,5.0,70.0
1920,81.0,0,480,2.0,78.0
1921,91.0,0,480,1.0,78.0
1922,63.0,0,600,4.0,78.0
1923,69.0,240,605,5.0,78.0
1924,60.0,0,605,5.0,78.0
1925,90.0,480,180,1.0,69.0
1926,63.0,240,120,4.0,74.0
1927,60.0,0,120,5.0,74.0
1928,69.0,0,120,5.0,74.0
1929,93.0,0,480,1.0,86.0
1930,82.0,0,480,2.0,87.0
1931,70.0,240,595,5.0,86.0
1932,61.0,0,600,5.0,86.0
1933,64.0,0,605,4.0,86.0
1934,91.0,480,180,1.0,74.0
1935,47.0,0,120,5.0,61.0
1936,51.0,1200,120,5.0,61.0
1937,51.0,240,480,5.0,68.0
1938,47.0,0,480,5.0,68.0
1939,49.0,0,120,5.0,62.0
1940,52.0,480,120,5.0,62.0
1941,54.0,0,120,5.0,63.0
1942,51.0,240,120,5.0,63.0
1943,76.0,0,480,1.0,68.0
1944,56.0,0,480,5.0,68.0
1945,64.0,0,480,2.0,63.0
1946,52.0,240,480,5.0,68.0
1947,75.0,0,120,1.0,65.0
1948,59.0,0,120,5.0,65.0
1949,56.0,480,120,5.0,65.0
1950,73.0,240,120,1.0,65.0
1951,57.0,0,120,5.0,65.0
1952,61.0,0,120,5.0,65.0
1953,81.0,240,480,1.0,71.0
1954,59.0,0,480,5.0,72.0
1955,63.0,0,480,5.0,72.0
1956,71.0,0,480,2.0,66.0
1957,64.0,480,120,5.0,67.0
1958,61.0,0,120,5.0,67.0
1959,80.0,0,120,1.0,67.0
1960,66.0,240,120,5.0,67.0
1961,63.0,0,120,5.0,67.0
1962,78.0,0,120,1.0,67.0
1963,68.0,0,475,5.0,74.0
1964,83.0,0,480,1.0,72.0
1965,64.0,0,480,5.0,74.0
1966,69.0,480,120,5.0,69.0
1967,81.0,0,120,1.0,69.0
1968,66.0,0,120,5.0,69.0
1969,68.0,0,120,5.0,69.0
1970,71.0,240,120,5.0,69.0
1971,80.0,0,120,1.0,69.0
1972,76.0,240,845,2.0,72.0
1973,69.0,0,240,5.0,70.0
1974,72.0,0,240,5.0,70.0
1975,78.0,240,240,1.0,70.0
1976,70.0,0,120,5.0,73.0
1977,73.0,240,120,5.0,73.0
1978,76.0,0,360,2.0,70.0
1979,79.0,0,120,1.0,74.0
1980,70.0,0,715,5.0,80.0
1981,76.0,0,720,2.0,80.0
1982,73.0,240,725,5.0,80.0
1983,79.0,0,725,1.0,79.0
1984,78.0,0,120,1.0,73.0
1985,69.0,720,120,5.0,73.0
1986,72.0,0,120,5.0,73.0
1987,69.0,0,240,5.0,73.0
1988,72.0,0,240,5.0,73.0
1989,78.0,0,240,1.0,73.0
1990,76.0,240,360,2.0,73.0
1991,79.0,240,120,1.0,74.0
1992,73.0,0,120,5.0,74.0
1993,70.0,0,120,5.0,74.0
1994,73.0,0,240,5.0,75.0
1995,79.0,0,240,1.0,77.0
1996,70.0,240,240,5.0,75.0
1997,76.0,0,355,2.0,75.0
1998,74.0,0,120,5.0,77.0
1999,71.0,240,120,5.0,77.0
2000,80.0,0,120,1.0,81.0
2001,80.0,240,715,1.0,84.0
2002,74.0,0,715,5.0,84.0
2003,76.0,0,715,2.0,84.0
2004,71.0,0,720,5.0,84.0
2005,79.0,0,120,1.0,77.0
2006,70.0,720,120,5.0,77.0
2007,73.0,0,120,5.0,77.0
2008,73.0,0,240,5.0,79.0
2009,70.0,240,240,5.0,79.0
2010,79.0,0,240,1.0,79.0
2011,74.0,0,120,5.0,81.0
2012,80.0,0,120,1.0,81.0
2013,76.0,0,360,2.0,79.0
2014,71.0,240,120,5.0,81.0
2015,80.0,0,240,1.0,83.0
2016,74.0,0,240,5.0,83.0
2017,76.0,240,360,2.0,83.0
2018,72.0,240,120,5.0,84.0
2019,81.0,0,120,1.0,88.0
2020,76.0,0,715,2.0,91.0
2021,72.0,0,720,5.0,91.0
2022,81.0,240,725,1.0,95.0
2023,73.0,0,120,5.0,83.0
2024,82.0,0,120,1.0,83.0
2025,76.0,720,120,2.0,83.0
2026,82.0,240,240,1.0,84.0
2027,73.0,0,240,5.0,84.0
2028,85.0,0,120,1.0,86.0
2029,70.0,0,120,5.0,86.0
2030,76.0,0,360,2.0,84.0
2031,79.0,240,120,2.0,86.0
2032,85.0,240,240,1.0,89.0
2033,79.0,0,240,2.0,89.0
2034,70.0,0,240,5.0,89.0
2035,82.0,240,120,2.0,91.0
2036,67.0,0,120,5.0,93.0
2037,88.0,0,120,1.0,91.0
2038,88.0,240,240,1.0,94.0
2039,67.0,0,240,5.0,96.0
2040,82.0,0,240,2.0,94.0
2041,58.0,0,120,5.0,100.0
2042,91.0,240,120,1.0,102.0
2043,85.0,0,120,2.0,102.0
2044,87.0,0,156,2.0,109.0
2045,59.0,240,156,5.0,104.0
2046,90.0,0,156,1.0,109.0
2047,47.0,240,240,5.0,88.0
2048,48.0,240,720,5.0,97.0
2049,60.0,0,720,5.0,97.0
2050,35.0,240,240,5.0,95.0
2051,78.0,0,720,1.0,108.0
2052,66.0,240,1200,2.0,92.0
2053,76.0,240,240,1.0,94.0
2054,36.0,240,480,5.0,102.0
2055,48.0,0,480,5.0,102.0
2056,69.0,240,960,2.0,104.0
2057,66.0,0,156,2.0,90.0
2058,75.0,240,156,1.0,90.0
2059,69.0,0,156,2.0,90.0
2060,35.0,240,240,5.0,93.0
2061,48.0,240,480,5.0,102.0
2062,60.0,0,480,5.0,102.0
2063,35.0,240,240,5.0,100.0
2064,90.0,240,720,1.0,110.0
2065,78.0,240,1195,2.0,98.0
2066,88.0,240,240,1.0,99.0
2067,36.0,0,480,5.0,106.0
2068,48.0,240,480,5.0,106.0
2069,81.0,0,0,2.0,95.0
2070,87.0,0,192,1.0,95.0
2071,35.0,240,192,5.0,96.0
2072,78.0,0,192,2.0,95.0
2073,47.0,0,192,5.0,96.0
2074,47.0,0,192,5.0,88.0
2075,59.0,0,192,5.0,88.0
2076,51.0,0,192,4.0,88.0
2077,54.0,0,192,4.0,88.0
2078,93.0,480,240,1.0,86.0
2079,90.0,0,240,2.0,87.0
2080,87.0,0,240,2.0,87.0
2081,81.0,0,240,2.0,87.0
2082,66.0,960,480,1.0,70.0
2083,60.0,240,240,3.0,74.0
2084,64.0,240,240,3.0,66.0
2085,76.0,240,240,3.0,58.0
2086,69.0,480,1200,1.0,78.0
2087,66.0,720,480,1.0,50.0
2088,59.0,240,240,3.0,55.0
2089,63.0,240,240,3.0,48.0
2090,75.0,240,240,3.0,42.0
2091,69.0,480,1440,1.0,58.0
2092,66.0,720,480,1.0,42.0
2093,60.0,240,240,3.0,42.0
2094,64.0,240,240,3.0,43.0
2095,69.0,480,960,1.0,44.0
2096,60.0,240,240,3.0,45.0
2097,64.0,240,240,3.0,46.0
2098,60.0,240,240,3.0,48.0
2099,71.0,0,720,1.0,46.0
2100,64.0,240,240,3.0,49.0
2101,72.0,240,0,1.0,52.0
2102,69.0,0,240,3.0,51.0
2103,62.0,240,240,3.0,50.0
2104,65.0,240,240,3.0,47.0
2105,62.0,240,240,3.0,45.0
2106,65.0,240,240,3.0,45.0
2107,71.0,0,480,1.0,45.0
2108,62.0,240,240,3.0,48.0
2109,65.0,240,240,3.0,51.0
2110,69.0,240,240,3.0,54.0
2111,74.0,0,240,1.0,54.0
2112,52.0,240,240,3.0,54.0
2113,56.0,240,240,3.0,51.0
2114,77.0,240,960,1.0,56.0
2115,52.0,240,240,3.0,49.0
2116,56.0,0,240,3.0,47.0
2117,52.0,240,240,3.0,47.0
2118,76.0,240,720,1.0,47.0
2119,56.0,240,240,3.0,48.0
2120,62.0,240,240,3.0,49.0
2121,71.0,0,240,1.0,49.0
2122,57.0,240,240,3.0,49.0
2123,64.0,240,240,3.0,47.0
2124,57.0,240,240,3.0,45.0
2125,74.0,240,960,1.0,51.0
2126,64.0,0,240,3.0,42.0
2127,72.0,240,480,1.0,45.0
2128,57.0,240,240,3.0,40.0
2129,64.0,240,240,3.0,38.0
2130,69.0,240,240,3.0,40.0
2131,45.0,240,240,3.0,42.0
2132,52.0,240,240,3.0,44.0
2133,45.0,240,240,3.0,45.0
2134,72.0,240,960,1.0,41.0
2135,52.0,240,240,3.0,47.0
2136,45.0,240,240,3.0,48.0
2137,52.0,240,240,3.0,50.0
2138,54.0,240,240,3.0,51.0
2139,74.0,0,240,1.0,51.0
2140,76.0,240,480,1.0,53.0
2141,72.0,0,1440,1.0,47.0
2142,52.0,240,240,3.0,56.0
2143,55.0,240,240,3.0,57.0
2144,60.0,240,240,3.0,59.0
2145,43.0,240,960,5.0,54.0
2146,55.0,240,240,3.0,60.0
2147,52.0,240,240,3.0,62.0
2148,48.0,240,240,3.0,63.0
2149,79.0,0,1440,1.0,64.0
2150,76.0,0,1440,2.0,64.0
2151,47.0,240,240,3.0,66.0
2152,52.0,240,240,3.0,68.0
2153,42.0,240,960,5.0,65.0
2154,55.0,240,240,3.0,69.0
2155,47.0,240,240,3.0,72.0
2156,52.0,240,240,3.0,74.0
2157,40.0,0,960,5.0,71.0
2158,55.0,240,240,3.0,76.0
2159,83.0,240,1440,1.0,76.0
2160,47.0,240,240,3.0,79.0
2161,79.0,0,1440,2.0,76.0
2162,50.0,240,240,3.0,80.0
2163,35.0,240,960,5.0,77.0
2164,55.0,240,240,3.0,82.0
2165,67.0,0,240,3.0,83.0
2166,62.0,160,240,3.0,80.0
2167,59.0,240,240,3.0,78.0
2168,55.0,240,240,3.0,77.0
2169,50.0,240,240,3.0,74.0
2170,79.0,40,1640,2.0,88.0
2171,55.0,240,240,3.0,73.0
2172,74.0,240,1680,2.0,88.0
2173,86.0,40,1607,1.0,88.0
2174,83.0,240,240,1.0,71.0
2175,47.0,240,960,3.0,75.0
2176,62.0,0,240,3.0,71.0
2177,51.0,240,240,3.0,69.0
2178,57.0,240,240,3.0,67.0
2179,84.0,240,720,1.0,75.0
2180,60.0,240,240,3.0,66.0
2181,78.0,0,960,2.0,70.0
2182,81.0,0,240,1.0,66.0
2183,52.0,240,240,3.0,63.0
2184,55.0,240,240,3.0,62.0
2185,79.0,240,960,1.0,64.0
2186,60.0,240,240,3.0,60.0
2187,53.0,240,240,3.0,57.0
2188,57.0,240,240,3.0,56.0
2189,81.0,240,720,1.0,66.0
2190,77.0,240,240,1.0,55.0
2191,60.0,0,240,3.0,55.0
2192,55.0,240,240,3.0,52.0
2193,60.0,240,240,3.0,50.0
2194,76.0,240,960,1.0,53.0
2195,72.0,0,1920,2.0,66.0
2196,64.0,240,240,3.0,49.0
2197,62.0,240,240,3.0,46.0
2198,65.0,240,240,3.0,45.0
2199,71.0,0,960,2.0,48.0
2200,56.0,0,960,5.0,48.0
2201,68.0,240,240,3.0,43.0
2202,60.0,240,240,3.0,41.0
2203,77.0,240,1680,1.0,53.0
2204,65.0,240,240,3.0,39.0
2205,76.0,0,240,1.0,38.0
2206,69.0,240,240,3.0,38.0
2207,57.0,0,960,5.0,42.0
2208,72.0,240,960,2.0,42.0
2209,63.0,240,240,3.0,35.0
2210,78.0,0,720,1.0,36.0
2211,66.0,240,240,3.0,34.0
2212,69.0,240,900,2.0,36.0
2213,75.0,240,187,1.0,32.0
2214,71.0,0,187,3.0,32.0
2215,59.0,0,907,5.0,36.0
2216,52.0,240,240,3.0,34.0
2217,64.0,240,0,5.0,35.0
2218,88.0,0,960,1.0,38.0
2219,84.0,0,960,2.0,38.0
2220,52.0,240,240,3.0,36.0
2221,86.0,240,480,1.0,36.0
2222,83.0,0,480,2.0,36.0
2223,52.0,240,240,3.0,38.0
2224,59.0,0,480,5.0,36.0
2225,62.0,0,480,5.0,36.0
2226,88.0,0,480,1.0,40.0
2227,84.0,240,480,2.0,40.0
2228,76.0,240,0,2.0,46.0
2229,52.0,240,240,3.0,42.0
2230,60.0,0,480,5.0,40.0
2231,64.0,0,480,5.0,40.0
2232,52.0,240,240,3.0,40.0
2233,62.0,0,480,5.0,46.0
2234,65.0,0,480,5.0,46.0
2235,89.0,0,720,1.0,46.0
2236,86.0,0,720,2.0,46.0
2237,83.0,0,240,2.0,37.0
2238,86.0,0,240,1.0,37.0
2239,59.0,240,0,5.0,36.0
2240,62.0,0,480,5.0,39.0
2241,52.0,240,240,3.0,37.0
2242,83.0,0,420,1.0,36.0
2243,80.0,0,427,2.0,36.0
2244,52.0,240,240,3.0,37.0
2245,56.0,0,480,5.0,36.0
2246,81.0,240,480,2.0,38.0
2247,57.0,0,480,5.0,38.0
2248,52.0,240,240,3.0,39.0
2249,60.0,0,480,5.0,38.0
2250,84.0,0,480,1.0,38.0
2251,86.0,0,480,1.0,42.0
2252,59.0,0,480,5.0,42.0
2253,62.0,0,480,5.0,42.0
2254,52.0,240,240,3.0,38.0
2255,83.0,240,480,2.0,42.0
2256,81.0,0,480,2.0,36.0
2257,52.0,240,240,3.0,34.0
2258,57.0,0,480,5.0,36.0
2259,84.0,240,480,1.0,36.0
2260,60.0,0,480,5.0,36.0
2261,52.0,240,240,3.0,34.0
2262,79.0,240,480,2.0,34.0
2263,83.0,0,480,1.0,34.0
2264,55.0,0,480,5.0,34.0
2265,59.0,0,480,5.0,34.0
2266,53.0,0,480,5.0,35.0
2267,57.0,0,480,5.0,35.0
2268,77.0,240,480,2.0,35.0
2269,81.0,0,480,1.0,35.0
2270,52.0,240,240,3.0,35.0
2271,76.0,0,0,2.0,40.0
2272,52.0,240,240,3.0,35.0
2273,56.0,0,480,5.0,40.0
2274,80.0,240,720,1.0,40.0
2275,78.0,0,240,2.0,34.0
2276,52.0,240,240,3.0,34.0
2277,57.0,0,480,5.0,35.0
2278,81.0,0,240,1.0,34.0
2279,54.0,240,480,5.0,35.0
2280,80.0,0,420,2.0,33.0
2281,83.0,240,420,1.0,33.0
2282,56.0,0,480,5.0,33.0
2283,59.0,0,480,5.0,33.0
2284,52.0,240,240,3.0,33.0
2285,56.0,0,480,5.0,32.0
2286,52.0,240,240,3.0,32.0
2287,52.0,240,240,3.0,39.0
2288,60.0,0,480,5.0,43.0
2289,64.0,240,480,5.0,43.0
2290,84.0,0,960,2.0,43.0
2291,60.0,0,480,5.0,39.0
2292,52.0,240,240,3.0,38.0
2293,64.0,240,480,5.0,39.0
2294,88.0,0,960,1.0,43.0
2295,83.0,240,480,2.0,38.0
2296,62.0,0,480,5.0,38.0
2297,59.0,0,480,5.0,38.0
2298,52.0,240,240,3.0,40.0
2299,86.0,0,480,1.0,38.0
2300,60.0,0,480,5.0,41.0
2301,64.0,0,480,5.0,41.0
2302,84.0,240,480,2.0,41.0
2303,52.0,240,240,3.0,43.0
2304,88.0,0,480,1.0,41.0
2305,76.0,0,0,2.0,50.0
2306,64.0,0,480,5.0,50.0
2307,67.0,240,480,5.0,50.0
2308,52.0,160,240,3.0,43.0
2309,88.0,40,687,2.0,50.0
2310,91.0,40,655,1.0,50.0
2311,62.0,240,480,5.0,42.0
2312,65.0,0,480,5.0,42.0
2313,89.0,0,240,1.0,41.0
2314,86.0,0,240,2.0,41.0
2315,52.0,240,240,3.0,41.0
2316,86.0,0,420,1.0,40.0
2317,83.0,0,427,2.0,40.0
2318,52.0,240,240,3.0,41.0
2319,59.0,0,480,5.0,40.0
2320,62.0,0,0,5.0,43.0
2321,86.0,0,480,2.0,43.0
2322,76.0,0,0,2.0,48.0
2323,65.0,0,480,5.0,43.0
2324,52.0,240,240,3.0,44.0
2325,89.0,240,480,1.0,43.0
2326,84.0,240,480,2.0,48.0
2327,52.0,240,240,3.0,42.0
2328,88.0,0,480,1.0,48.0
2329,64.0,0,480,5.0,48.0
2330,60.0,0,0,5.0,40.0
2331,81.0,240,480,2.0,40.0
2332,52.0,240,240,3.0,38.0
2333,84.0,0,480,1.0,40.0
2334,57.0,0,480,5.0,40.0
2335,62.0,0,480,5.0,36.0
2336,59.0,0,480,5.0,36.0
2337,83.0,240,480,2.0,36.0
2338,52.0,240,240,3.0,37.0
2339,86.0,0,480,1.0,36.0
2340,80.0,0,480,2.0,38.0
2341,56.0,240,480,5.0,38.0
2342,59.0,0,480,5.0,38.0
2343,83.0,0,480,1.0,38.0
2344,52.0,240,240,3.0,39.0
2345,57.0,0,0,5.0,36.0
2346,81.0,0,480,2.0,42.0
2347,52.0,240,240,3.0,37.0
2348,60.0,240,480,5.0,42.0
2349,84.0,0,480,1.0,42.0
2350,54.0,0,480,5.0,36.0
2351,81.0,240,480,1.0,36.0
2352,52.0,240,240,3.0,36.0
2353,78.0,0,480,2.0,36.0
2354,56.0,240,480,5.0,35.0
2355,76.0,0,1440,2.0,42.0
2356,80.0,0,480,2.0,35.0
2357,52.0,240,240,3.0,35.0
2358,83.0,0,480,1.0,35.0
2359,59.0,0,480,5.0,35.0
2360,56.0,240,420,5.0,34.0
2361,52.0,240,180,3.0,34.0
2362,76.0,0,420,1.0,34.0
2363,60.0,240,240,3.0,34.0
2364,64.0,0,240,3.0,34.0
2365,57.0,240,240,3.0,34.0
2366,52.0,240,240,3.0,35.0
2367,48.0,0,240,3.0,35.0
2368,76.0,240,240,3.0,35.0
2369,69.0,0,480,1.0,44.0
2370,60.0,240,240,3.0,35.0
2371,64.0,240,240,3.0,35.0
2372,57.0,0,240,3.0,35.0
2373,52.0,240,240,3.0,36.0
2374,71.0,0,480,1.0,45.0
2375,48.0,0,240,3.0,36.0
2376,76.0,240,240,3.0,36.0
2377,62.0,240,240,3.0,36.0
2378,57.0,240,240,3.0,37.0
2379,53.0,240,240,3.0,37.0
2380,72.0,0,240,3.0,37.0
2381,69.0,0,480,1.0,46.0
2382,50.0,240,240,3.0,37.0
2383,77.0,0,240,3.0,37.0
2384,62.0,240,240,3.0,38.0
2385,57.0,0,240,3.0,38.0
2386,71.0,240,240,3.0,38.0
2387,65.0,240,480,1.0,48.0
2388,53.0,0,240,3.0,38.0
2389,77.0,240,240,3.0,38.0
2390,50.0,0,240,3.0,38.0
2391,62.0,240,240,3.0,39.0
2392,59.0,0,240,3.0,39.0
2393,69.0,240,240,3.0,39.0
2394,57.0,0,240,3.0,39.0
2395,52.0,0,240,3.0,40.0
2396,83.0,240,240,3.0,40.0
2397,77.0,240,480,1.0,49.0
2398,62.0,240,240,3.0,40.0
2399,68.0,240,240,3.0,40.0
2400,59.0,0,240,3.0,40.0
2401,56.0,0,240,3.0,41.0
2402,52.0,0,240,3.0,41.0
2403,83.0,240,240,3.0,41.0
2404,76.0,240,480,1.0,51.0
2405,69.0,240,240,3.0,41.0
2406,65.0,240,240,3.0,41.0
2407,64.0,0,240,3.0,42.0
2408,83.0,240,240,3.0,42.0
2409,74.0,0,480,1.0,51.0
2410,57.0,0,240,3.0,42.0
2411,88.0,240,240,3.0,42.0
2412,69.0,240,240,3.0,42.0
2413,64.0,0,240,3.0,43.0
2414,60.0,240,240,3.0,43.0
2415,81.0,0,240,3.0,43.0
2416,72.0,240,480,1.0,53.0
2417,57.0,0,240,3.0,43.0
2418,88.0,240,240,3.0,43.0
2419,65.0,0,600,2.0,62.0
2420,69.0,0,605,2.0,62.0
2421,71.0,0,610,1.0,62.0
2422,72.0,120,133,1.0,61.0
2423,71.0,120,154,1.0,64.0
2424,69.0,120,176,1.0,67.0
2425,71.0,120,198,1.0,70.0
2426,72.0,120,219,1.0,75.0
2427,74.0,120,241,1.0,81.0
2428,76.0,120,263,1.0,86.0
2429,79.0,120,480,1.0,92.0
2430,77.0,480,240,1.0,66.0
2431,53.0,240,2160,5.0,52.0
2432,62.0,240,1680,5.0,61.0
2433,50.0,240,2400,5.0,49.0
2434,57.0,240,1920,5.0,56.0
2435,38.0,240,2647,5.0,45.0
2436,65.0,0,600,2.0,61.0
2437,71.0,240,610,1.0,61.0
2438,68.0,0,622,2.0,61.0
2439,72.0,120,109,1.0,57.0
2440,71.0,120,130,1.0,59.0
2441,69.0,120,150,1.0,61.0
2442,71.0,120,170,1.0,65.0
2443,72.0,120,191,1.0,69.0
2444,74.0,120,211,1.0,73.0
2445,76.0,120,231,1.0,77.0
2446,79.0,120,480,1.0,83.0
2447,77.0,480,240,1.0,60.0
2448,59.0,240,1680,5.0,55.0
2449,56.0,240,1920,5.0,53.0
2450,38.0,1440,2647,5.0,46.0
2451,50.0,240,2407,5.0,48.0
2452,53.0,0,2167,5.0,51.0
2453,84.0,0,480,1.0,72.0
2454,62.0,0,720,4.0,72.0
2455,70.0,0,720,4.0,72.0
2456,74.0,0,720,2.0,72.0
2457,65.0,0,720,4.0,72.0
2458,56.0,0,720,5.0,72.0
2459,82.0,480,240,1.0,57.0
2460,58.0,480,720,5.0,72.0
2461,43.0,1440,103,5.0,38.0
2462,44.0,120,117,5.0,40.0
2463,43.0,120,131,5.0,42.0
2464,42.0,120,145,5.0,44.0
2465,43.0,120,159,5.0,45.0
2466,46.0,120,172,5.0,47.0
2467,51.0,120,186,5.0,49.0
2468,55.0,120,200,5.0,51.0
2469,62.0,120,111,2.0,56.0
2470,63.0,120,129,2.0,46.0
2471,62.0,120,148,2.0,48.0
2472,72.0,0,480,1.0,56.0
2473,61.0,120,166,2.0,50.0
2474,62.0,0,184,2.0,52.0
2475,56.0,0,720,5.0,60.0
2476,58.0,0,720,5.0,60.0
2477,70.0,120,240,1.0,52.0
2478,65.0,120,202,2.0,53.0
2479,68.0,120,220,2.0,55.0
2480,55.0,120,110,5.0,51.0
2481,70.0,120,238,2.0,57.0
2482,56.0,120,128,5.0,53.0
2483,55.0,120,146,5.0,55.0
2484,84.0,0,480,1.0,65.0
2485,54.0,120,164,5.0,57.0
2486,55.0,120,181,5.0,59.0
2487,75.0,0,720,2.0,65.0
2488,82.0,0,240,1.0,61.0
2489,58.0,120,199,5.0,61.0
2490,63.0,120,217,5.0,62.0
2491,74.0,0,103,2.0,70.0
2492,67.0,120,234,5.0,64.0
2493,75.0,120,117,2.0,58.0
2494,74.0,120,131,2.0,60.0
2495,84.0,0,480,1.0,70.0
2496,73.0,120,146,2.0,62.0
2497,74.0,0,160,2.0,65.0
2498,68.0,120,720,5.0,74.0
2499,70.0,0,720,5.0,74.0
2500,82.0,120,240,1.0,65.0
2501,77.0,120,174,2.0,67.0
2502,80.0,120,188,2.0,69.0
2503,82.0,120,202,2.0,71.0
2504,80.0,0,103,5.0,67.0
2505,77.0,120,117,5.0,68.0
2506,74.0,120,131,5.0,70.0
2507,96.0,120,480,1.0,81.0
2508,70.0,120,145,5.0,71.0
2509,68.0,0,159,5.0,72.0
2510,86.0,0,720,2.0,85.0
2511,65.0,120,174,5.0,73.0
2512,62.0,120,188,5.0,74.0
2513,56.0,120,202,5.0,76.0
2514,94.0,120,720,1.0,81.0
2515,93.0,240,240,1.0,74.0
2516,92.0,240,240,1.0,70.0
2517,91.0,240,240,1.0,67.0
2518,90.0,240,240,1.0,64.0
2519,89.0,240,240,1.0,61.0
2520,88.0,240,240,1.0,57.0
2521,87.0,240,240,1.0,54.0
2522,62.0,0,960,5.0,64.0
2523,53.0,0,960,5.0,64.0
2524,86.0,0,240,1.0,52.0
2525,85.0,240,240,1.0,53.0
2526,84.0,240,240,1.0,55.0
2527,52.0,0,960,5.0,52.0
2528,83.0,240,240,1.0,58.0
2529,64.0,240,960,5.0,52.0
2530,82.0,0,240,1.0,60.0
2531,81.0,240,240,1.0,62.0
2532,80.0,240,240,1.0,64.0
2533,79.0,240,240,1.0,67.0
2534,78.0,240,240,1.0,71.0
2535,77.0,240,240,1.0,66.0
2536,76.0,240,240,1.0,62.0
2537,65.0,0,1920,5.0,57.0
2538,75.0,240,240,1.0,57.0
2539,50.0,240,1920,5.0,57.0
2540,74.0,240,240,1.0,52.0
2541,73.0,240,240,1.0,47.0
2542,72.0,240,240,1.0,43.0
2543,71.0,240,240,1.0,38.0
2544,53.0,0,960,5.0,53.0
2545,62.0,0,960,5.0,53.0
2546,57.0,120,6705,5.0,82.0
2547,60.0,240,960,5.0,45.0
2548,52.0,0,960,5.0,45.0
2549,72.0,480,480,1.0,41.0
2550,75.0,480,480,1.0,45.0
2551,81.0,480,480,1.0,39.0
2552,52.0,480,960,5.0,37.0
2553,65.0,480,480,5.0,42.0
2554,59.0,0,960,4.0,37.0
2555,56.0,0,960,4.0,37.0
2556,77.0,0,480,1.0,42.0
2557,64.0,480,480,5.0,37.0
2558,76.0,0,480,1.0,37.0
2559,56.0,480,420,5.0,30.0
2560,68.0,0,427,1.0,30.0
2561,77.0,480,480,2.0,29.0
2562,69.0,240,240,3.0,30.0
2563,69.0,240,240,3.0,32.0
2564,81.0,0,960,1.0,29.0
2565,77.0,240,480,2.0,31.0
2566,57.0,0,960,4.0,29.0
2567,57.0,240,240,3.0,34.0
2568,67.0,0,480,5.0,33.0
2569,64.0,0,480,5.0,33.0
2570,76.0,240,480,2.0,33.0
2571,79.0,0,480,1.0,33.0
2572,65.0,0,480,5.0,35.0
2573,69.0,0,480,5.0,35.0
2574,45.0,0,1920,5.0,29.0
2575,57.0,240,240,3.0,37.0
2576,81.0,240,480,1.0,35.0
2577,77.0,0,480,2.0,35.0
2578,67.0,240,0,5.0,39.0
2579,57.0,240,240,3.0,39.0
2580,70.0,240,487,5.0,38.0
2581,82.0,0,720,1.0,38.0
2582,79.0,0,720,2.0,38.0
2583,57.0,0,240,3.0,38.0
2584,76.0,240,240,2.0,38.0
2585,64.0,0,480,5.0,39.0
2586,79.0,0,240,1.0,38.0
2587,76.0,0,420,1.0,38.0
2588,73.0,240,427,2.0,38.0
2589,57.0,240,240,3.0,38.0
2590,61.0,0,480,5.0,38.0
2591,64.0,0,480,5.0,38.0
2592,65.0,0,480,5.0,37.0
2593,74.0,0,480,2.0,37.0
2594,62.0,0,480,5.0,37.0
2595,57.0,240,240,3.0,37.0
2596,77.0,240,480,1.0,37.0
2597,64.0,240,480,5.0,37.0
2598,79.0,0,480,1.0,37.0
2599,76.0,0,480,2.0,37.0
2600,67.0,0,480,5.0,37.0
2601,57.0,240,240,3.0,36.0
2602,57.0,240,240,3.0,35.0
2603,65.0,240,480,5.0,36.0
2604,74.0,0,480,2.0,36.0
2605,77.0,0,480,1.0,36.0
2606,62.0,0,480,5.0,36.0
2607,76.0,0,480,1.0,35.0
2608,72.0,240,480,2.0,35.0
2609,60.0,0,480,5.0,35.0
2610,57.0,240,240,3.0,35.0
2611,64.0,0,480,5.0,35.0
2612,74.0,0,480,1.0,34.0
2613,62.0,240,480,5.0,34.0
2614,58.0,0,480,5.0,34.0
2615,70.0,0,480,2.0,34.0
2616,57.0,240,240,3.0,34.0
2617,61.0,0,480,5.0,34.0
2618,57.0,240,240,3.0,33.0
2619,73.0,0,720,1.0,34.0
2620,69.0,240,727,2.0,34.0
2621,62.0,240,480,5.0,33.0
2622,59.0,0,480,5.0,33.0
2623,57.0,240,240,3.0,33.0
2624,71.0,0,247,2.0,33.0
2625,74.0,0,247,1.0,33.0
2626,73.0,0,480,2.0,32.0
2627,76.0,240,480,1.0,32.0
2628,57.0,240,240,3.0,32.0
2629,64.0,0,480,5.0,32.0
2630,61.0,240,0,5.0,31.0
2631,57.0,240,240,3.0,31.0
2632,64.0,0,480,5.0,31.0
2633,57.0,240,240,3.0,30.0
2634,69.0,240,0,5.0,30.0
2635,81.0,240,720,2.0,31.0
2636,85.0,0,720,1.0,31.0
2637,83.0,240,240,2.0,30.0
2638,57.0,0,240,3.0,30.0
2639,86.0,0,240,1.0,30.0
2640,57.0,240,240,3.0,29.0
2641,85.0,240,480,2.0,29.0
2642,88.0,0,480,1.0,29.0
2643,69.0,0,480,5.0,29.0
2644,57.0,240,240,3.0,28.0
2645,69.0,240,480,5.0,29.0
2646,57.0,240,240,3.0,29.0
2647,64.0,0,480,5.0,28.0
2648,69.0,0,720,2.0,28.0
2649,72.0,240,720,1.0,28.0
2650,64.0,240,480,5.0,30.0
2651,71.0,0,240,2.0,31.0
2652,74.0,0,240,1.0,31.0
2653,57.0,240,240,3.0,31.0
2654,64.0,0,480,5.0,32.0
2655,57.0,240,240,3.0,33.0
2656,57.0,240,240,3.0,35.0
2657,64.0,240,480,5.0,34.0
2658,55.0,240,240,3.0,37.0
2659,67.0,240,0,5.0,38.0
2660,76.0,0,1680,1.0,32.0
2661,72.0,240,1680,2.0,32.0
2662,55.0,0,240,3.0,39.0
2663,77.0,240,240,1.0,39.0
2664,74.0,0,240,2.0,39.0
2665,55.0,240,240,3.0,41.0
2666,67.0,240,0,5.0,42.0
2667,55.0,240,240,3.0,43.0
2668,66.0,240,480,5.0,44.0
2669,55.0,240,240,3.0,45.0
2670,76.0,0,1702,2.0,40.0
2671,79.0,240,1702,1.0,40.0
2672,55.0,0,240,3.0,47.0
2673,81.0,0,240,1.0,47.0
2674,77.0,240,240,2.0,47.0
2675,66.0,240,480,5.0,46.0
2676,65.0,0,480,5.0,56.0
2677,55.0,240,240,3.0,49.0
2678,55.0,240,240,3.0,51.0
2679,74.0,0,960,2.0,56.0
2680,65.0,240,480,5.0,50.0
2681,55.0,240,240,3.0,53.0
2682,64.0,240,0,5.0,54.0
2683,83.0,0,1688,1.0,56.0
2684,79.0,240,1884,2.0,56.0
2685,72.0,0,960,2.0,60.0
2686,55.0,240,240,3.0,55.0
2687,84.0,0,240,1.0,55.0
2688,62.0,0,480,5.0,66.0
2689,55.0,240,240,3.0,56.0
2690,55.0,240,240,3.0,58.0
2691,62.0,240,480,5.0,57.0
2692,74.0,0,960,2.0,62.0
2693,77.0,240,960,2.0,62.0
2694,83.0,0,960,2.0,62.0
2695,60.0,240,480,5.0,70.0
2696,55.0,240,240,3.0,60.0
2697,86.0,0,1695,1.0,62.0
2698,60.0,240,480,5.0,61.0
2699,79.0,0,960,2.0,70.0
2700,76.0,0,960,2.0,70.0
2701,55.0,0,240,3.0,62.0
2702,88.0,240,240,1.0,62.0
2703,55.0,240,240,3.0,64.0
2704,59.0,240,0,5.0,65.0
2705,55.0,240,240,3.0,66.0
2706,86.0,0,1080,2.0,71.0
2707,89.0,240,1080,1.0,71.0
2708,77.0,0,1095,2.0,71.0
2709,67.0,240,156,5.0,69.0
2710,55.0,0,240,5.0,73.0
2711,88.0,0,240,1.0,74.0
2712,85.0,240,240,2.0,73.0
2713,76.0,0,240,2.0,73.0
2714,89.0,0,156,1.0,78.0
2715,67.0,240,156,5.0,77.0
2716,77.0,0,156,2.0,77.0
2717,86.0,0,156,2.0,77.0
2718,76.0,0,240,2.0,81.0
2719,85.0,0,240,2.0,81.0
2720,88.0,0,240,1.0,82.0
2721,55.0,240,240,5.0,81.0
2722,77.0,0,156,2.0,84.0
2723,86.0,0,156,2.0,84.0
2724,89.0,240,156,1.0,87.0
2725,67.0,0,156,5.0,84.0
2726,55.0,0,240,5.0,88.0
2727,85.0,240,240,2.0,88.0
2728,76.0,0,240,2.0,88.0
2729,88.0,0,240,1.0,91.0
2730,77.0,0,156,2.0,92.0
2731,86.0,0,156,2.0,92.0
2732,89.0,0,156,1.0,95.0
2733,67.0,240,156,5.0,92.0
2734,76.0,240,240,2.0,96.0
2735,85.0,0,240,2.0,96.0
2736,55.0,0,240,5.0,96.0
2737,88.0,0,240,1.0,100.0
2738,89.0,0,120,2.0,106.0
2739,91.0,0,120,2.0,106.0
2740,55.0,0,156,5.0,106.0
2741,65.0,0,156,4.0,106.0
2742,62.0,240,156,4.0,106.0
2743,71.0,0,156,5.0,106.0
2744,101.0,0,233,1.0,106.0
2745,98.0,120,228,1.0,103.0
2746,95.0,120,224,1.0,101.0
2747,76.0,0,240,5.0,97.0
2748,64.0,0,240,5.0,97.0
2749,91.0,120,219,1.0,99.0
2750,65.0,0,156,5.0,84.0
2751,77.0,0,156,5.0,84.0
2752,89.0,120,214,1.0,97.0
2753,86.0,120,210,1.0,95.0
2754,73.0,120,156,5.0,91.0
2755,61.0,0,156,5.0,91.0
2756,83.0,0,205,1.0,94.0
2757,79.0,120,200,1.0,92.0
2758,62.0,0,156,5.0,77.0
2759,74.0,120,156,5.0,77.0
2760,89.0,0,196,1.0,90.0
2761,86.0,120,191,1.0,88.0
2762,83.0,120,187,1.0,86.0
2763,79.0,120,182,1.0,84.0
2764,77.0,120,177,1.0,82.0
2765,74.0,120,173,1.0,80.0
2766,71.0,120,168,1.0,78.0
2767,67.0,120,164,1.0,76.0
2768,77.0,120,159,1.0,74.0
2769,74.0,120,154,1.0,72.0
2770,71.0,120,150,1.0,70.0
2771,52.0,0,240,5.0,70.0
2772,67.0,120,145,1.0,68.0
2773,65.0,120,140,1.0,65.0
2774,53.0,0,156,5.0,60.0
2775,62.0,120,136,1.0,63.0
2776,59.0,0,131,1.0,60.0
2777,49.0,120,156,5.0,62.0
2778,55.0,120,127,1.0,58.0
2779,65.0,0,122,1.0,55.0
2780,50.0,120,156,5.0,50.0
2781,62.0,120,117,1.0,53.0
2782,59.0,120,113,1.0,50.0
2783,55.0,120,108,1.0,48.0
2784,53.0,120,104,1.0,45.0
2785,50.0,120,99,1.0,43.0
2786,47.0,120,94,1.0,40.0
2787,43.0,120,90,1.0,38.0
2788,55.0,240,240,4.0,45.0
2789,56.0,240,240,4.0,46.0
2790,67.0,0,960,5.0,50.0
2791,63.0,0,960,5.0,50.0
2792,55.0,240,240,4.0,46.0
2793,65.0,0,480,5.0,47.0
2794,62.0,240,480,5.0,47.0
2795,55.0,240,240,4.0,48.0
2796,63.0,240,480,5.0,49.0
2797,67.0,0,480,5.0,49.0
2798,31.0,120,1920,5.0,50.0
2799,55.0,240,240,4.0,50.0
2800,55.0,240,240,4.0,53.0
2801,68.0,0,720,5.0,59.0
2802,56.0,240,240,4.0,52.0
2803,65.0,240,720,5.0,59.0
2804,62.0,0,240,5.0,52.0
2805,55.0,240,240,4.0,52.0
2806,79.0,0,960,1.0,59.0
2807,65.0,0,240,5.0,52.0
2808,62.0,0,427,5.0,52.0
2809,59.0,240,427,5.0,52.0
2810,77.0,0,480,1.0,52.0
2811,55.0,240,240,4.0,51.0
2812,55.0,240,240,4.0,50.0
2813,79.0,0,480,1.0,51.0
2814,60.0,0,480,5.0,51.0
2815,63.0,240,480,5.0,51.0
2816,55.0,240,240,4.0,49.0
2817,65.0,240,480,5.0,56.0
2818,62.0,0,480,5.0,56.0
2819,80.0,0,720,1.0,56.0
2820,55.0,240,240,4.0,48.0
2821,63.0,240,480,5.0,49.0
2822,60.0,0,480,5.0,49.0
2823,77.0,0,240,1.0,48.0
2824,74.0,0,420,1.0,48.0
2825,62.0,240,480,5.0,48.0
2826,55.0,240,240,4.0,48.0
2827,58.0,0,480,5.0,48.0
2828,75.0,0,480,1.0,47.0
2829,63.0,240,480,5.0,47.0
2830,60.0,0,480,5.0,47.0
2831,55.0,240,240,4.0,47.0
2832,55.0,240,240,4.0,46.0
2833,74.0,0,480,2.0,54.0
2834,77.0,0,480,1.0,54.0
2835,56.0,240,240,4.0,45.0
2836,59.0,240,720,5.0,54.0
2837,60.0,240,240,5.0,45.0
2838,75.0,0,480,1.0,45.0
2839,72.0,0,480,2.0,45.0
2840,55.0,0,240,4.0,45.0
2841,55.0,240,240,4.0,44.0
2842,62.0,0,480,5.0,45.0
2843,70.0,240,480,2.0,45.0
2844,74.0,0,480,1.0,45.0
2845,68.0,240,480,2.0,44.0
2846,72.0,0,480,1.0,44.0
2847,55.0,240,240,4.0,43.0
2848,55.0,240,240,4.0,42.0
2849,71.0,0,720,1.0,50.0
2850,56.0,240,240,4.0,42.0
2851,69.0,0,240,2.0,41.0
2852,62.0,240,960,5.0,50.0
2853,67.0,0,960,5.0,50.0
2854,55.0,240,240,4.0,41.0
2855,72.0,0,240,1.0,41.0
2856,74.0,0,480,1.0,41.0
2857,55.0,240,240,4.0,41.0
2858,71.0,0,480,2.0,41.0
2859,62.0,0,480,5.0,41.0
2860,65.0,240,480,5.0,41.0
2861,67.0,240,420,5.0,40.0
2862,63.0,0,420,5.0,40.0
2863,55.0,240,180,4.0,40.0
2864,67.0,240,240,5.0,52.0
2865,55.0,240,240,4.0,44.0
2866,56.0,240,240,4.0,45.0
2867,79.0,0,720,1.0,52.0
2868,75.0,0,720,2.0,52.0
2869,70.0,0,720,5.0,52.0
2870,55.0,0,240,4.0,46.0
2871,68.0,0,240,5.0,46.0
2872,62.0,240,427,5.0,46.0
2873,65.0,0,427,5.0,46.0
2874,74.0,240,720,2.0,46.0
2875,77.0,0,720,1.0,46.0
2876,55.0,240,240,4.0,47.0
2877,67.0,0,240,5.0,48.0
2878,70.0,0,240,5.0,48.0
2879,75.0,240,480,2.0,48.0
2880,65.0,0,240,5.0,49.0
2881,68.0,240,240,5.0,49.0
2882,79.0,0,480,1.0,48.0
2883,67.0,0,480,5.0,57.0
2884,55.0,240,240,4.0,49.0
2885,63.0,240,0,5.0,48.0
2886,82.0,0,720,1.0,57.0
2887,80.0,240,240,1.0,48.0
2888,75.0,240,960,2.0,57.0
2889,55.0,0,240,4.0,48.0
2890,60.0,0,480,5.0,48.0
2891,77.0,0,420,1.0,47.0
2892,74.0,240,427,2.0,47.0
2893,55.0,240,240,4.0,47.0
2894,62.0,0,480,5.0,47.0
2895,65.0,0,480,5.0,47.0
2896,59.0,0,480,5.0,46.0
2897,80.0,240,480,1.0,46.0
2898,62.0,0,480,5.0,46.0
2899,77.0,0,480,2.0,46.0
2900,55.0,240,240,4.0,46.0
2901,60.0,0,480,5.0,54.0
2902,63.0,0,480,5.0,54.0
2903,79.0,240,480,1.0,54.0
2904,75.0,0,480,2.0,54.0
2905,55.0,240,240,4.0,45.0
2906,60.0,240,480,5.0,44.0
2907,55.0,240,240,4.0,44.0
2908,75.0,0,480,1.0,44.0
2909,57.0,0,480,5.0,44.0
2910,72.0,0,480,2.0,44.0
2911,74.0,0,480,2.0,43.0
2912,77.0,240,480,1.0,43.0
2913,55.0,240,240,4.0,43.0
2914,59.0,0,480,5.0,43.0
2915,62.0,0,480,5.0,43.0
2916,74.0,0,420,1.0,42.0
2917,71.0,240,420,2.0,42.0
2918,67.0,240,240,2.0,43.0
2919,72.0,240,0,2.0,42.0
2920,75.0,0,960,1.0,49.0
2921,60.0,240,960,4.0,49.0
2922,67.0,240,240,2.0,41.0
2923,55.0,240,1200,5.0,42.0
2924,51.0,0,960,5.0,49.0
2925,65.0,240,240,2.0,39.0
2926,68.0,0,480,2.0,40.0
2927,56.0,0,960,4.0,40.0
2928,53.0,0,960,5.0,40.0
2929,68.0,240,480,2.0,39.0
2930,65.0,240,240,2.0,38.0
2931,61.0,0,960,4.0,40.0
2932,73.0,240,960,1.0,40.0
2933,67.0,0,240,2.0,41.0
2934,59.0,240,240,2.0,39.0
2935,67.0,240,240,2.0,37.0
2936,59.0,240,240,2.0,36.0
2937,55.0,240,960,5.0,41.0
2938,62.0,0,960,4.0,41.0
2939,67.0,240,240,2.0,35.0
2940,71.0,0,1440,1.0,41.0
2941,59.0,240,240,2.0,33.0
2942,55.0,240,480,2.0,32.0
2943,72.0,240,320,2.0,39.0
2944,67.0,320,320,2.0,36.0
2945,72.0,320,320,2.0,35.0
2946,75.0,0,960,1.0,39.0
2947,48.0,0,960,4.0,39.0
2948,39.0,0,960,5.0,39.0
2949,43.0,240,1200,5.0,36.0
2950,68.0,320,320,2.0,33.0
2951,65.0,320,320,2.0,32.0
2952,44.0,0,960,4.0,33.0
2953,49.0,0,960,4.0,33.0
2954,68.0,320,320,2.0,30.0
2955,73.0,0,960,1.0,33.0
2956,41.0,0,960,5.0,33.0
2957,67.0,0,320,2.0,29.0
2958,59.0,320,320,2.0,26.0
2959,50.0,0,960,4.0,29.0
2960,67.0,320,320,2.0,24.0
2961,43.0,320,960,5.0,29.0
2962,55.0,320,240,2.0,23.0
2963,71.0,0,1440,1.0,29.0
2964,31.0,0,240,5.0,47.0
2965,43.0,480,240,5.0,47.0
2966,70.0,0,240,2.0,79.0
2967,75.0,480,240,3.0,79.0
2968,82.0,240,0,1.0,70.0
2969,75.0,0,480,3.0,70.0
2970,70.0,0,0,2.0,71.0
2971,82.0,0,0,1.0,71.0
2972,43.0,0,960,5.0,79.0
2973,55.0,0,960,5.0,79.0
2974,75.0,0,0,3.0,72.0
2975,53.0,240,480,5.0,71.0
2976,41.0,0,480,5.0,71.0
2977,80.0,0,480,3.0,72.0
2978,70.0,0,0,2.0,72.0
2979,82.0,0,0,1.0,72.0
2980,75.0,0,0,3.0,72.0
2981,55.0,240,480,5.0,72.0
2982,43.0,0,480,5.0,72.0
2983,82.0,240,0,1.0,73.0
2984,79.0,240,480,3.0,72.0
2985,74.0,0,480,3.0,73.0
2986,56.0,0,720,5.0,78.0
2987,44.0,240,720,5.0,78.0
2988,70.0,0,480,2.0,73.0
2989,77.0,0,480,3.0,73.0
2990,53.0,0,240,5.0,74.0
2991,41.0,0,240,5.0,74.0
2992,82.0,0,480,1.0,74.0
2993,80.0,0,0,3.0,75.0
2994,74.0,0,480,3.0,74.0
2995,70.0,0,480,2.0,74.0
2996,50.0,240,480,5.0,74.0
2997,38.0,0,480,5.0,74.0
2998,70.0,0,0,2.0,75.0
2999,77.0,240,480,3.0,75.0
3000,82.0,0,480,1.0,75.0
3001,51.0,0,480,5.0,75.0
3002,39.0,240,480,5.0,75.0
3003,79.0,240,480,3.0,75.0
3004,75.0,0,480,3.0,75.0
3005,82.0,0,480,1.0,75.0
3006,53.0,240,480,5.0,76.0
3007,41.0,0,480,5.0,76.0
3008,86.0,0,480,1.0,76.0
3009,80.0,0,480,3.0,76.0
3010,82.0,0,0,3.0,77.0
3011,74.0,240,480,2.0,76.0
3012,51.0,240,480,5.0,77.0
3013,39.0,0,480,5.0,77.0
3014,87.0,240,480,1.0,77.0
3015,75.0,0,480,2.0,77.0
3016,79.0,0,480,3.0,77.0
3017,50.0,0,480,5.0,77.0
3018,38.0,240,480,5.0,77.0
3019,77.0,0,480,2.0,78.0
3020,82.0,0,480,3.0,78.0
3021,89.0,240,480,1.0,78.0
3022,80.0,0,480,3.0,78.0
3023,36.0,240,480,5.0,78.0
3024,48.0,0,480,5.0,78.0
3025,87.0,0,480,3.0,78.0
3026,79.0,0,480,2.0,78.0
3027,91.0,240,480,1.0,78.0
3028,89.0,480,0,3.0,83.0
3029,86.0,0,0,3.0,83.0
3030,80.0,0,0,2.0,83.0
3031,92.0,0,0,1.0,83.0
3032,47.0,240,960,5.0,80.0
3033,35.0,0,960,5.0,80.0
3034,80.0,240,0,2.0,89.0
3035,46.0,0,480,5.0,86.0
3036,34.0,240,480,5.0,86.0
3037,92.0,0,480,1.0,89.0
3038,86.0,240,0,3.0,96.0
3039,89.0,0,0,3.0,96.0
3040,33.0,0,397,5.0,93.0
3041,45.0,240,397,5.0,93.0
3042,92.0,0,160,1.0,96.0
3043,81.0,0,160,2.0,96.0
3044,32.0,160,720,5.0,104.0
3045,44.0,40,685,5.0,104.0
3046,65.0,0,720,4.0,104.0
3047,56.0,0,720,5.0,104.0
3048,58.0,0,720,4.0,104.0
3049,62.0,0,720,4.0,104.0
3050,46.0,720,192,5.0,93.0
3051,58.0,0,192,5.0,93.0
3052,94.0,0,960,1.0,104.0
3053,82.0,40,960,2.0,104.0
3054,86.0,0,960,3.0,104.0
3055,89.0,0,960,3.0,104.0
3056,92.0,0,480,1.0,95.0
3057,46.0,0,480,5.0,95.0
3058,58.0,240,480,5.0,95.0
3059,80.0,0,480,2.0,95.0
3060,89.0,0,0,3.0,99.0
3061,86.0,0,0,3.0,99.0
3062,48.0,0,192,5.0,99.0
3063,60.0,0,192,5.0,99.0
3064,62.0,240,192,5.0,101.0
3065,50.0,0,192,5.0,101.0
3066,94.0,480,480,1.0,99.0
3067,82.0,0,480,2.0,99.0
3068,56.0,0,480,4.0,106.0
3069,59.0,0,480,4.0,106.0
3070,51.0,0,480,5.0,106.0
3071,63.0,240,480,5.0,106.0
3072,95.0,0,720,1.0,106.0
3073,92.0,0,720,3.0,106.0
3074,87.0,0,720,3.0,106.0
3075,83.0,0,720,2.0,106.0
3076,44.0,480,480,5.0,95.0
3077,32.0,0,480,5.0,95.0
3078,92.0,240,240,1.0,96.0
3079,80.0,0,240,2.0,96.0
3080,87.0,240,360,1.0,98.0
3081,75.0,0,360,2.0,98.0
3082,83.0,480,480,2.0,101.0
3083,95.0,0,480,1.0,101.0
3084,92.0,0,480,3.0,101.0
3085,87.0,0,480,3.0,101.0
3086,63.0,0,480,5.0,101.0
3087,51.0,0,480,5.0,101.0
3088,59.0,0,480,4.0,101.0
3089,56.0,0,480,4.0,101.0
3090,63.0,0,720,4.0,109.0
3091,60.0,0,720,4.0,109.0
3092,68.0,0,720,5.0,109.0
3093,56.0,0,720,5.0,109.0
3094,42.0,0,0,5.0,100.0
3095,54.0,0,720,4.0,109.0
3096,54.0,0,192,5.0,100.0
3097,44.0,240,240,4.0,100.0
3098,88.0,0,960,3.0,109.0
3099,96.0,0,960,1.0,109.0
3100,92.0,0,960,3.0,109.0
3101,84.0,480,960,2.0,109.0
3102,30.0,0,480,5.0,98.0
3103,44.0,240,480,4.0,102.0
3104,87.0,0,0,3.0,105.0
3105,94.0,0,480,1.0,102.0
3106,82.0,0,480,2.0,102.0
3107,54.0,0,480,5.0,102.0
3108,42.0,0,480,5.0,102.0
3109,61.0,0,192,5.0,105.0
3110,49.0,0,192,5.0,105.0
3111,63.0,240,192,5.0,106.0
3112,51.0,0,192,5.0,106.0
3113,96.0,0,480,1.0,105.0
3114,84.0,0,480,2.0,105.0
3115,92.0,0,0,3.0,112.0
3116,56.0,0,480,4.0,112.0
3117,61.0,0,480,4.0,112.0
3118,53.0,0,480,5.0,112.0
3119,65.0,240,480,5.0,112.0
3120,97.0,0,720,1.0,112.0
3121,85.0,0,720,2.0,112.0
3122,92.0,0,240,1.0,103.0
3123,80.0,240,240,2.0,103.0
3124,41.0,0,480,5.0,102.0
3125,29.0,480,480,5.0,102.0
3126,89.0,240,360,1.0,105.0
3127,77.0,0,360,2.0,105.0
3128,53.0,0,480,5.0,111.0
3129,65.0,0,480,5.0,111.0
3130,92.0,480,0,3.0,116.0
3131,61.0,0,480,4.0,111.0
3132,85.0,0,480,2.0,111.0
3133,56.0,0,480,4.0,111.0
3134,97.0,480,480,1.0,111.0
3135,77.0,0,240,5.0,116.0
3136,68.0,0,240,4.0,116.0
3137,71.0,0,240,4.0,116.0
3138,65.0,0,240,5.0,116.0
3139,71.0,0,240,5.0,103.0
3140,59.0,240,240,5.0,103.0
3141,68.0,0,240,5.0,105.0
3142,56.0,240,240,5.0,105.0
3143,53.0,240,240,5.0,107.0
3144,65.0,0,240,5.0,107.0
3145,95.0,0,960,3.0,116.0
3146,86.0,0,960,2.0,116.0
3147,98.0,0,960,1.0,116.0
3148,50.0,0,240,5.0,109.0
3149,62.0,240,240,5.0,109.0
3150,84.0,0,480,2.0,109.0
3151,95.0,0,480,3.0,109.0
3152,96.0,0,480,1.0,109.0
3153,59.0,0,240,5.0,112.0
3154,47.0,240,240,5.0,112.0
3155,92.0,0,0,3.0,114.0
3156,44.0,0,240,5.0,114.0
3157,56.0,0,240,5.0,114.0
3158,95.0,0,480,3.0,114.0
3159,98.0,0,480,1.0,114.0
3160,86.0,240,480,2.0,114.0
3161,53.0,0,240,5.0,116.0
3162,41.0,240,240,5.0,116.0
3163,89.0,0,192,2.0,120.0
3164,101.0,0,192,1.0,120.0
3165,96.0,0,192,3.0,120.0
3166,93.0,240,192,3.0,120.0
3167,88.0,0,192,2.0,120.0
3168,76.0,0,192,5.0,115.0
3169,100.0,240,192,1.0,120.0
3170,98.0,0,192,1.0,117.0
3171,84.0,0,192,2.0,117.0
3172,72.0,240,192,5.0,112.0
3173,69.0,0,192,5.0,109.0
3174,81.0,240,192,2.0,114.0
3175,93.0,0,192,1.0,114.0
3176,66.0,0,192,5.0,106.0
3177,90.0,240,192,1.0,111.0
3178,78.0,0,192,2.0,111.0
3179,75.0,0,192,2.0,108.0
3180,87.0,240,192,1.0,108.0
3181,63.0,0,192,5.0,103.0
3182,72.0,240,192,2.0,104.0
3183,60.0,0,192,5.0,101.0
3184,84.0,0,192,1.0,104.0
3185,57.0,0,1665,4.0,120.0
3186,57.0,0,192,5.0,98.0
3187,81.0,0,192,1.0,101.0
3188,69.0,240,192,2.0,101.0
3189,42.0,0,1915,5.0,120.0
3190,45.0,0,1920,4.0,120.0
3191,48.0,0,1920,4.0,120.0
3192,54.0,240,0,5.0,95.0
3193,51.0,0,1925,4.0,120.0
3194,66.0,0,192,2.0,98.0
3195,78.0,0,192,1.0,98.0
3196,75.0,0,192,1.0,95.0
3197,63.0,0,192,2.0,95.0
3198,51.0,240,192,5.0,92.0
3199,72.0,240,192,1.0,92.0
3200,48.0,0,192,5.0,89.0
3201,60.0,0,192,2.0,92.0
3202,45.0,0,192,5.0,86.0
3203,69.0,240,192,1.0,89.0
3204,57.0,0,192,2.0,89.0
3205,42.0,240,192,5.0,83.0
3206,66.0,0,192,1.0,86.0
3207,54.0,0,192,2.0,86.0
3208,39.0,240,192,5.0,80.0
3209,63.0,0,192,1.0,83.0
3210,51.0,0,192,2.0,83.0
3211,60.0,240,192,1.0,80.0
3212,36.0,0,192,5.0,77.0
3213,48.0,0,192,2.0,80.0
3214,42.0,240,192,2.0,74.0
3215,54.0,0,192,1.0,77.0
3216,30.0,0,192,5.0,74.0
3217,55.0,0,960,2.0,87.0
3218,48.0,0,960,2.0,87.0
3219,31.0,0,960,5.0,87.0
3220,43.0,240,960,5.0,87.0
3221,60.0,0,960,1.0,87.0
3222,63.0,720,240,1.0,81.0
3223,66.0,0,240,1.0,81.0
3224,69.0,240,240,1.0,81.0
3225,62.0,0,720,5.0,81.0
3226,50.0,240,720,5.0,81.0
3227,72.0,240,240,1.0,82.0
3228,63.0,240,240,5.0,82.0
3229,51.0,0,240,5.0,82.0
3230,75.0,0,240,1.0,82.0
3231,78.0,240,240,1.0,82.0
3232,31.0,240,240,5.0,83.0
3233,79.0,0,240,1.0,83.0
3234,36.0,240,240,5.0,83.0
3235,75.0,0,156,2.0,83.0
3236,87.0,0,156,1.0,83.0
3237,79.0,0,156,3.0,83.0
3238,39.0,240,240,5.0,83.0
3239,43.0,0,240,5.0,84.0
3240,48.0,240,240,5.0,84.0
3241,87.0,0,480,1.0,93.0
3242,75.0,240,480,2.0,93.0
3243,79.0,0,480,3.0,93.0
3244,74.0,0,156,2.0,84.0
3245,77.0,240,156,3.0,84.0
3246,86.0,0,156,1.0,84.0
3247,51.0,0,240,5.0,84.0
3248,75.0,0,156,3.0,85.0
3249,72.0,0,156,2.0,85.0
3250,84.0,240,156,1.0,85.0
3251,55.0,0,240,5.0,85.0
3252,67.0,240,240,1.0,85.0
3253,73.0,240,240,1.0,86.0
3254,49.0,0,960,5.0,92.0
3255,61.0,240,960,5.0,92.0
3256,76.0,240,240,1.0,86.0
3257,78.0,0,240,1.0,86.0
3258,79.0,240,240,1.0,87.0
3259,62.0,240,720,5.0,86.0
3260,50.0,0,720,5.0,86.0
3261,85.0,240,240,1.0,87.0
3262,64.0,0,240,5.0,87.0
3263,52.0,240,240,5.0,87.0
3264,88.0,0,240,1.0,87.0
3265,90.0,240,240,1.0,88.0
3266,91.0,0,240,1.0,88.0
3267,31.0,240,240,5.0,88.0
3268,37.0,240,240,5.0,88.0
3269,88.0,0,156,1.0,89.0
3270,76.0,0,156,2.0,89.0
3271,79.0,240,156,3.0,89.0
3272,40.0,0,240,5.0,89.0
3273,43.0,0,240,5.0,89.0
3274,79.0,240,480,3.0,96.0
3275,49.0,240,240,5.0,89.0
3276,88.0,0,480,1.0,96.0
3277,76.0,0,480,2.0,96.0
3278,86.0,240,156,1.0,90.0
3279,77.0,0,156,3.0,90.0
3280,74.0,0,156,2.0,90.0
3281,52.0,0,240,5.0,90.0
3282,85.0,240,156,1.0,90.0
3283,73.0,0,156,2.0,90.0
3284,76.0,0,156,3.0,90.0
3285,55.0,0,240,5.0,90.0
3286,65.0,240,240,1.0,91.0
3287,68.0,240,240,1.0,91.0
3288,80.0,240,156,3.0,91.0
3289,77.0,0,156,2.0,91.0
3290,89.0,0,156,1.0,91.0
3291,62.0,240,960,5.0,98.0
3292,50.0,0,960,5.0,98.0
3293,77.0,0,480,2.0,102.0
3294,80.0,0,480,3.0,102.0
3295,89.0,0,480,1.0,102.0
3296,76.0,480,156,2.0,92.0
3297,88.0,0,156,1.0,92.0
3298,79.0,0,156,3.0,92.0
3299,64.0,240,720,5.0,92.0
3300,52.0,0,720,5.0,92.0
3301,74.0,0,156,2.0,93.0
3302,77.0,0,156,3.0,93.0
3303,86.0,0,156,1.0,93.0
3304,53.0,240,240,5.0,93.0
3305,65.0,0,240,5.0,93.0
3306,89.0,0,480,3.0,102.0
3307,92.0,0,480,1.0,102.0
3308,80.0,240,480,2.0,102.0
3309,86.0,0,480,3.0,102.0
3310,91.0,0,156,1.0,94.0
3311,79.0,0,156,2.0,94.0
3312,87.0,0,156,3.0,94.0
3313,86.0,0,156,3.0,94.0
3314,77.0,0,156,2.0,94.0
3315,89.0,240,156,1.0,94.0
3316,47.0,0,480,5.0,94.0
3317,59.0,480,480,5.0,94.0
3318,86.0,0,480,2.0,102.0
3319,89.0,0,0,3.0,95.0
3320,92.0,480,0,3.0,95.0
3321,98.0,0,480,1.0,102.0
3322,96.0,0,156,1.0,95.0
3323,84.0,0,156,2.0,95.0
3324,48.0,0,720,5.0,99.0
3325,60.0,240,720,5.0,99.0
3326,83.0,0,156,2.0,95.0
3327,95.0,0,156,1.0,95.0
3328,89.0,0,156,3.0,95.0
3329,92.0,240,156,3.0,95.0
3330,62.0,0,240,5.0,95.0
3331,50.0,0,240,5.0,95.0
3332,89.0,240,480,2.0,104.0
3333,98.0,0,480,3.0,104.0
3334,101.0,0,480,1.0,104.0
3335,92.0,0,480,3.0,104.0
3336,96.0,0,156,3.0,95.0
3337,87.0,480,156,2.0,95.0
3338,99.0,0,156,1.0,95.0
3339,86.0,240,156,2.0,97.0
3340,95.0,0,156,3.0,97.0
3341,98.0,0,156,1.0,97.0
3342,43.0,0,480,5.0,96.0
3343,55.0,0,480,5.0,96.0
3344,93.0,0,156,3.0,99.0
3345,84.0,0,156,2.0,99.0
3346,96.0,0,156,1.0,99.0
3347,91.0,0,156,3.0,100.0
3348,83.0,0,156,2.0,100.0
3349,95.0,240,156,1.0,100.0
3350,81.0,240,156,2.0,102.0
3351,89.0,0,156,3.0,102.0
3352,93.0,0,156,1.0,102.0
3353,57.0,240,720,5.0,102.0
3354,45.0,0,720,5.0,102.0
3355,89.0,240,156,3.0,104.0
3356,80.0,0,156,2.0,104.0
3357,92.0,0,156,1.0,104.0
3358,47.0,0,240,5.0,100.0
3359,59.0,0,240,5.0,100.0
3360,90.0,0,240,1.0,108.0
3361,78.0,240,240,2.0,108.0
3362,91.0,240,240,1.0,101.0
3363,79.0,0,240,2.0,101.0
3364,41.0,0,240,5.0,101.0
3365,47.0,240,240,4.0,101.0
3366,53.0,0,240,4.0,101.0
3367,80.0,0,240,2.0,102.0
3368,92.0,240,0,1.0,110.0
3369,86.0,0,0,3.0,110.0
3370,83.0,0,0,3.0,110.0
3371,41.0,0,240,5.0,102.0
3372,80.0,0,480,2.0,110.0
3373,47.0,240,240,5.0,103.0
3374,59.0,0,240,4.0,103.0
3375,91.0,0,240,1.0,103.0
3376,53.0,0,240,4.0,103.0
3377,79.0,240,240,2.0,103.0
3378,89.0,0,240,1.0,104.0
3379,77.0,0,240,2.0,104.0
3380,47.0,240,240,5.0,104.0
3381,66.0,240,240,2.0,111.0
3382,78.0,0,240,1.0,111.0
3383,79.0,240,240,1.0,105.0
3384,41.0,0,240,5.0,105.0
3385,67.0,0,240,2.0,105.0
3386,47.0,0,240,4.0,106.0
3387,53.0,240,240,4.0,106.0
3388,86.0,0,240,3.0,106.0
3389,83.0,0,240,3.0,106.0
3390,92.0,240,0,1.0,113.0
3391,41.0,240,240,5.0,106.0
3392,80.0,0,240,2.0,106.0
3393,80.0,0,480,2.0,113.0
3394,83.0,0,480,3.0,113.0
3395,86.0,0,480,3.0,113.0
3396,47.0,240,240,5.0,107.0
3397,59.0,0,240,4.0,108.0
3398,91.0,0,240,1.0,108.0
3399,79.0,240,240,2.0,108.0
3400,53.0,0,240,4.0,108.0
3401,47.0,0,240,5.0,108.0
3402,89.0,240,240,1.0,108.0
3403,77.0,0,240,2.0,108.0
3404,92.0,240,240,1.0,116.0
3405,80.0,0,240,2.0,116.0
3406,82.0,0,240,2.0,109.0
3407,40.0,0,240,5.0,109.0
3408,94.0,240,240,1.0,109.0
3409,42.0,240,240,4.0,110.0
3410,52.0,0,240,4.0,110.0
3411,90.0,0,240,3.0,110.0
3412,40.0,240,240,5.0,110.0
3413,83.0,240,0,2.0,116.0
3414,95.0,0,240,1.0,110.0
3415,38.0,240,240,5.0,111.0
3416,90.0,0,480,3.0,116.0
3417,95.0,0,480,1.0,116.0
3418,42.0,240,240,4.0,112.0
3419,90.0,0,240,1.0,112.0
3420,78.0,0,240,2.0,112.0
3421,50.0,0,240,4.0,112.0
3422,38.0,0,240,5.0,113.0
3423,86.0,240,240,1.0,113.0
3424,74.0,0,240,2.0,113.0
3425,83.0,240,240,1.0,113.0
3426,71.0,0,240,2.0,113.0
3427,37.0,240,240,5.0,114.0
3428,85.0,0,240,1.0,114.0
3429,73.0,0,240,2.0,114.0
3430,49.0,240,240,4.0,114.0
3431,42.0,0,240,4.0,114.0
3432,98.0,0,240,1.0,115.0
3433,90.0,240,0,3.0,115.0
3434,86.0,240,240,2.0,115.0
3435,37.0,0,240,5.0,115.0
3436,86.0,0,480,2.0,115.0
3437,35.0,240,240,5.0,116.0
3438,98.0,0,480,1.0,115.0
3439,50.0,0,240,4.0,116.0
3440,95.0,0,240,1.0,116.0
3441,83.0,240,240,2.0,116.0
3442,42.0,0,240,4.0,116.0
3443,90.0,240,240,1.0,117.0
3444,78.0,0,240,2.0,117.0
3445,35.0,0,240,5.0,117.0
3446,91.0,240,480,3.0,121.0
3447,95.0,0,480,3.0,121.0
3448,88.0,0,480,2.0,121.0
3449,71.0,0,480,4.0,117.0
3450,64.0,0,480,4.0,117.0
3451,76.0,0,480,4.0,117.0
3452,68.0,0,480,4.0,117.0
3453,100.0,0,480,1.0,121.0
3454,37.0,0,480,5.0,115.0
3455,49.0,480,480,5.0,115.0
3456,67.0,0,480,4.0,114.0
3457,98.0,0,480,1.0,117.0
3458,90.0,0,480,3.0,117.0
3459,93.0,0,480,3.0,117.0
3460,62.0,0,480,4.0,114.0
3461,86.0,480,480,2.0,117.0
3462,74.0,0,480,4.0,114.0
3463,71.0,0,480,4.0,114.0
3464,38.0,480,480,5.0,112.0
3465,50.0,0,480,5.0,112.0
3466,97.0,0,480,1.0,113.0
3467,91.0,0,480,3.0,113.0
3468,85.0,480,480,2.0,113.0
3469,95.0,0,480,3.0,113.0
3470,67.0,0,480,4.0,110.0
3471,61.0,0,480,4.0,110.0
3472,73.0,0,480,4.0,110.0
3473,71.0,0,480,4.0,110.0
3474,40.0,480,480,5.0,108.0
3475,52.0,0,480,5.0,108.0
3476,90.0,0,480,3.0,110.0
3477,58.0,0,480,4.0,106.0
3478,61.0,0,480,4.0,106.0
3479,66.0,0,480,4.0,106.0
3480,70.0,0,480,4.0,106.0
3481,82.0,0,480,2.0,110.0
3482,85.0,0,480,3.0,110.0
3483,94.0,480,480,1.0,110.0
3484,30.0,0,480,5.0,102.0
3485,42.0,480,480,5.0,102.0
3486,54.0,480,160,3.0,88.0
3487,59.0,160,160,3.0,89.0
3488,47.0,480,960,5.0,94.0
3489,35.0,0,960,5.0,94.0
3490,66.0,0,0,3.0,89.0
3491,78.0,240,240,3.0,89.0
3492,49.0,160,720,5.0,89.0
3493,70.0,240,240,3.0,89.0
3494,37.0,0,720,5.0,89.0
3495,71.0,0,240,3.0,90.0
3496,50.0,240,0,5.0,96.0
3497,38.0,0,0,5.0,96.0
3498,54.0,480,160,3.0,90.0
3499,59.0,160,160,3.0,91.0
3500,66.0,0,0,3.0,91.0
3501,78.0,240,240,3.0,91.0
3502,73.0,240,240,3.0,91.0
3503,52.0,160,720,5.0,92.0
3504,40.0,0,720,5.0,92.0
3505,74.0,0,240,3.0,92.0
3506,42.0,240,240,5.0,96.0
3507,54.0,0,240,5.0,96.0
3508,45.0,0,480,5.0,101.0
3509,57.0,240,480,5.0,101.0
3510,71.0,480,160,3.0,92.0
3511,83.0,160,160,3.0,93.0
3512,64.0,0,156,1.0,93.0
3513,59.0,80,156,2.0,93.0
3514,83.0,80,160,3.0,93.0
3515,95.0,0,160,3.0,93.0
3516,94.0,160,160,3.0,93.0
3517,64.0,160,480,1.0,100.0
3518,97.0,160,160,3.0,93.0
3519,59.0,0,480,2.0,100.0
3520,66.0,160,156,1.0,93.0
3521,63.0,0,156,2.0,93.0
3522,95.0,0,160,3.0,93.0
3523,91.0,160,160,3.0,93.0
3524,67.0,0,156,1.0,94.0
3525,64.0,80,156,2.0,94.0
3526,88.0,80,160,3.0,94.0
3527,82.0,160,160,3.0,94.0
3528,64.0,0,240,2.0,102.0
3529,67.0,0,240,1.0,102.0
3530,85.0,160,160,3.0,94.0
3531,82.0,160,160,3.0,94.0
3532,43.0,0,1440,5.0,100.0
3533,55.0,0,1447,5.0,100.0
3534,69.0,160,156,1.0,94.0
3535,79.0,0,160,3.0,94.0
3536,40.0,0,240,5.0,94.0
3537,52.0,0,240,5.0,94.0
3538,82.0,160,160,3.0,94.0
3539,70.0,80,156,1.0,95.0
3540,79.0,80,160,3.0,95.0
3541,79.0,0,160,3.0,95.0
3542,49.0,0,240,5.0,95.0
3543,37.0,0,240,5.0,95.0
3544,82.0,160,160,3.0,95.0
3545,79.0,160,160,3.0,95.0
3546,70.0,160,480,1.0,95.0
3547,71.0,0,156,1.0,95.0
3548,76.0,0,160,3.0,95.0
3549,45.0,160,240,5.0,95.0
3550,33.0,0,240,5.0,95.0
3551,79.0,160,160,3.0,95.0
3552,73.0,80,156,1.0,96.0
3553,76.0,80,160,3.0,96.0
3554,38.0,480,160,4.0,96.0
3555,45.0,160,160,4.0,96.0
3556,74.0,0,960,1.0,104.0
3557,50.0,160,160,4.0,97.0
3558,66.0,160,960,3.0,104.0
3559,62.0,0,960,2.0,104.0
3560,50.0,0,240,4.0,97.0
3561,62.0,240,240,4.0,97.0
3562,76.0,160,720,1.0,97.0
3563,56.0,240,240,4.0,97.0
3564,64.0,0,720,2.0,97.0
3565,69.0,0,720,3.0,97.0
3566,57.0,0,240,4.0,98.0
3567,78.0,240,240,1.0,98.0
3568,66.0,0,240,2.0,98.0
3569,69.0,0,0,3.0,106.0
3570,38.0,480,160,3.0,98.0
3571,45.0,160,160,3.0,98.0
3572,66.0,0,960,2.0,106.0
3573,50.0,0,0,3.0,99.0
3574,78.0,240,960,1.0,106.0
3575,62.0,240,240,3.0,99.0
3576,79.0,0,720,1.0,99.0
3577,74.0,0,0,3.0,104.0
3578,53.0,240,240,3.0,99.0
3579,67.0,160,720,2.0,99.0
3580,69.0,0,240,2.0,104.0
3581,81.0,0,240,1.0,104.0
3582,54.0,240,240,3.0,100.0
3583,85.0,240,480,1.0,106.0
3584,73.0,0,480,2.0,106.0
3585,44.0,480,160,3.0,100.0
3586,56.0,160,160,3.0,100.0
3587,86.0,0,156,1.0,101.0
3588,74.0,80,156,2.0,101.0
3589,56.0,80,160,3.0,101.0
3590,68.0,160,160,3.0,101.0
3591,66.0,160,160,3.0,101.0
3592,74.0,0,480,2.0,108.0
3593,86.0,0,480,1.0,108.0
3594,69.0,160,160,3.0,101.0
3595,88.0,0,156,1.0,101.0
3596,76.0,160,156,2.0,101.0
3597,68.0,0,160,3.0,101.0
3598,65.0,160,160,3.0,101.0
3599,77.0,80,156,2.0,102.0
3600,89.0,0,156,1.0,102.0
3601,62.0,80,160,3.0,102.0
3602,83.0,0,960,3.0,108.0
3603,59.0,0,160,3.0,102.0
3604,56.0,160,160,3.0,102.0
3605,89.0,0,480,1.0,108.0
3606,87.0,160,480,3.0,108.0
3607,53.0,160,160,3.0,102.0
3608,77.0,0,480,2.0,108.0
3609,79.0,0,156,2.0,102.0
3610,87.0,0,156,3.0,102.0
3611,91.0,160,156,1.0,102.0
3612,49.0,0,160,3.0,102.0
3613,53.0,160,160,3.0,102.0
3614,80.0,0,156,2.0,103.0
3615,92.0,80,156,1.0,103.0
3616,89.0,0,156,3.0,103.0
3617,49.0,80,160,3.0,103.0
3618,47.0,0,160,3.0,103.0
3619,92.0,0,240,1.0,103.0
3620,80.0,0,240,2.0,103.0
3621,89.0,160,240,3.0,103.0
3622,49.0,160,160,3.0,103.0
3623,47.0,160,160,3.0,103.0
3624,44.0,160,160,3.0,103.0
3625,97.0,40,120,1.0,103.0
3626,85.0,0,240,2.0,103.0
3627,92.0,40,167,3.0,103.0
3628,89.0,40,207,3.0,103.0
3629,47.0,40,160,3.0,103.0
3630,44.0,160,160,3.0,104.0
3631,57.0,480,160,3.0,104.0
3632,66.0,160,160,3.0,104.0
3633,73.0,160,160,3.0,105.0
3634,54.0,0,960,5.0,112.0
3635,42.0,160,960,5.0,112.0
3636,73.0,0,240,3.0,105.0
3637,85.0,240,240,3.0,105.0
3638,56.0,0,720,5.0,105.0
3639,77.0,240,240,3.0,105.0
3640,44.0,160,720,5.0,105.0
3641,57.0,0,240,5.0,105.0
3642,78.0,240,240,3.0,105.0
3643,45.0,0,240,5.0,105.0
3644,61.0,480,160,3.0,106.0
3645,66.0,160,160,3.0,106.0
3646,57.0,240,960,5.0,106.0
3647,45.0,0,960,5.0,106.0
3648,73.0,0,0,3.0,107.0
3649,85.0,240,240,3.0,107.0
3650,59.0,0,720,5.0,107.0
3651,47.0,160,720,5.0,107.0
3652,80.0,240,240,3.0,107.0
3653,61.0,0,240,5.0,109.0
3654,49.0,240,240,5.0,109.0
3655,81.0,0,240,3.0,107.0
3656,52.0,240,480,5.0,112.0
3657,64.0,0,480,5.0,112.0
3658,66.0,480,160,4.0,108.0
3659,78.0,80,0,3.0,109.0
3660,66.0,80,156,4.0,108.0
3661,69.0,0,156,4.0,108.0
3662,90.0,0,160,3.0,109.0
3663,89.0,160,160,3.0,109.0
3664,69.0,0,480,4.0,116.0
3665,91.0,160,160,3.0,109.0
3666,66.0,0,480,4.0,116.0
3667,67.0,0,156,4.0,109.0
3668,71.0,0,156,4.0,109.0
3669,90.0,160,160,3.0,109.0
3670,84.0,160,160,3.0,109.0
3671,72.0,0,156,4.0,109.0
3672,69.0,80,156,4.0,109.0
3673,81.0,80,160,3.0,110.0
3674,78.0,0,160,3.0,110.0
3675,72.0,0,240,4.0,119.0
3676,69.0,160,240,4.0,119.0
3677,81.0,160,160,3.0,110.0
3678,78.0,160,160,3.0,110.0
3679,62.0,160,1440,5.0,116.0
3680,50.0,0,1440,5.0,116.0
3681,79.0,160,160,3.0,110.0
3682,57.0,0,240,5.0,110.0
3683,45.0,0,240,5.0,110.0
3684,83.0,160,160,3.0,110.0
3685,72.0,0,0,4.0,111.0
3686,84.0,160,160,3.0,111.0
3687,81.0,0,160,3.0,111.0
3688,81.0,0,160,3.0,111.0
3689,54.0,0,240,5.0,111.0
3690,42.0,160,240,5.0,111.0
3691,84.0,160,160,3.0,111.0
3692,72.0,160,160,4.0,111.0
3693,81.0,0,160,3.0,111.0
3694,83.0,0,160,3.0,111.0
3695,74.0,0,160,4.0,111.0
3696,38.0,160,240,5.0,111.0
3697,50.0,0,240,5.0,111.0
3698,86.0,160,160,3.0,111.0
3699,84.0,0,160,3.0,112.0
3700,75.0,0,160,4.0,112.0
3701,87.0,160,160,3.0,112.0
3702,36.0,160,153,5.0,112.0
3703,38.0,137,133,5.0,112.0
3704,36.0,137,133,5.0,112.0
3705,38.0,137,133,5.0,112.0
3706,36.0,149,133,5.0,112.0
3707,38.0,120,133,5.0,112.0
3708,84.0,0,480,1.0,119.0
3709,81.0,0,480,3.0,119.0
3710,72.0,0,480,2.0,119.0
3711,60.0,160,480,4.0,120.0
3712,69.0,0,480,4.0,120.0
3713,86.0,0,156,1.0,113.0
3714,80.0,0,156,3.0,113.0
3715,83.0,0,156,3.0,113.0
3716,71.0,0,156,4.0,113.0
3717,74.0,0,156,2.0,113.0
3718,62.0,480,156,4.0,113.0
3719,63.0,240,156,4.0,113.0
3720,87.0,0,156,1.0,113.0
3721,72.0,0,156,4.0,113.0
3722,84.0,0,156,3.0,113.0
3723,75.0,0,156,2.0,113.0
3724,36.0,120,1105,5.0,113.0
3725,36.0,240,153,5.0,114.0
3726,38.0,137,133,5.0,114.0
3727,36.0,137,133,5.0,114.0
3728,38.0,137,133,5.0,114.0
3729,36.0,149,133,5.0,114.0
3730,38.0,120,133,5.0,114.0
3731,81.0,0,480,3.0,120.0
3732,69.0,0,480,4.0,122.0
3733,84.0,160,480,1.0,120.0
3734,60.0,0,480,4.0,122.0
3735,72.0,0,480,2.0,120.0
3736,80.0,480,156,3.0,115.0
3737,83.0,0,156,3.0,115.0
3738,74.0,0,156,2.0,115.0
3739,62.0,0,156,4.0,115.0
3740,71.0,0,156,4.0,115.0
3741,86.0,0,156,1.0,115.0
3742,87.0,0,156,1.0,115.0
3743,84.0,240,156,3.0,115.0
3744,75.0,0,156,2.0,115.0
3745,63.0,0,156,4.0,115.0
3746,72.0,0,156,4.0,115.0
3747,36.0,120,1090,5.0,115.0
3748,36.0,240,160,5.0,124.0
3749,38.0,160,160,5.0,113.0
3750,36.0,160,160,5.0,106.0
3751,38.0,160,160,5.0,98.0
3752,36.0,160,160,5.0,91.0
3753,38.0,160,160,5.0,83.0
3754,36.0,160,160,5.0,75.0
3755,38.0,160,160,5.0,68.0
3756,36.0,160,160,5.0,60.0
3757,38.0,160,160,5.0,52.0
3758,36.0,160,160,5.0,45.0
3759,38.0,160,160,5.0,37.0
3760,76.0,160,480,2.0,39.0
3761,88.0,0,480,1.0,39.0
3762,84.0,0,480,1.0,39.0
3763,83.0,0,156,1.0,30.0
3764,86.0,0,156,1.0,30.0
3765,74.0,480,156,2.0,30.0
3766,72.0,0,156,2.0,31.0
3767,84.0,0,156,1.0,31.0
3768,81.0,240,156,1.0,31.0
3769,81.0,240,480,1.0,38.0
3770,84.0,0,480,1.0,38.0
3771,72.0,0,480,2.0,38.0
3772,71.0,0,156,2.0,32.0
3773,83.0,480,156,1.0,32.0
3774,79.0,0,156,1.0,32.0
3775,69.0,240,156,2.0,32.0
3776,81.0,0,156,1.0,32.0
3777,78.0,0,156,1.0,32.0
3778,64.0,0,480,4.0,41.0
3779,81.0,0,480,1.0,41.0
3780,78.0,0,480,1.0,41.0
3781,76.0,0,480,4.0,41.0
3782,72.0,240,480,4.0,41.0
3783,69.0,0,480,4.0,41.0
3784,79.0,480,156,1.0,33.0
3785,83.0,0,156,1.0,33.0
3786,62.0,0,156,4.0,33.0
3787,71.0,0,156,4.0,33.0
3788,74.0,0,156,4.0,33.0
3789,84.0,240,156,1.0,33.0
3790,81.0,0,156,1.0,33.0
3791,72.0,0,156,4.0,33.0
3792,60.0,0,156,4.0,33.0
3793,69.0,0,156,4.0,33.0
3794,72.0,240,480,4.0,42.0
3795,64.0,0,480,4.0,42.0
3796,60.0,0,480,4.0,42.0
3797,84.0,0,480,1.0,42.0
3798,81.0,0,480,1.0,42.0
3799,71.0,0,156,4.0,34.0
3800,86.0,0,156,1.0,34.0
3801,83.0,0,156,1.0,34.0
3802,59.0,480,156,4.0,34.0
3803,62.0,0,156,4.0,34.0
3804,84.0,240,156,1.0,35.0
3805,88.0,0,156,1.0,35.0
3806,69.0,0,156,4.0,35.0
3807,57.0,0,156,4.0,35.0
3808,60.0,0,156,4.0,35.0
3809,60.0,0,480,4.0,44.0
3810,88.0,240,480,1.0,44.0
3811,57.0,0,480,4.0,44.0
3812,69.0,0,480,4.0,44.0
3813,91.0,0,480,1.0,44.0
3814,71.0,480,156,4.0,36.0
3815,86.0,0,156,1.0,36.0
3816,89.0,0,156,1.0,36.0
3817,62.0,0,156,4.0,36.0
3818,59.0,0,156,4.0,36.0
3819,60.0,0,156,4.0,36.0
3820,64.0,0,156,4.0,36.0
3821,72.0,0,156,4.0,36.0
3822,84.0,0,156,1.0,36.0
3823,88.0,240,156,1.0,36.0
3824,88.0,0,480,1.0,45.0
3825,84.0,240,480,1.0,45.0
3826,64.0,0,480,4.0,45.0
3827,60.0,0,480,4.0,45.0
3828,72.0,0,480,4.0,45.0
3829,62.0,0,156,4.0,37.0
3830,66.0,0,156,4.0,37.0
3831,74.0,0,156,4.0,37.0
3832,86.0,0,156,1.0,37.0
3833,83.0,480,156,1.0,37.0
3834,81.0,0,156,1.0,37.0
3835,84.0,0,156,1.0,37.0
3836,64.0,240,156,4.0,37.0
3837,76.0,0,156,4.0,37.0
3838,67.0,0,156,4.0,37.0
3839,36.0,0,5760,5.0,39.0
3840,84.0,0,480,1.0,46.0
3841,81.0,0,480,1.0,46.0
3842,76.0,0,480,4.0,46.0
3843,67.0,0,480,4.0,46.0
3844,79.0,240,480,4.0,46.0
3845,74.0,0,156,4.0,38.0
3846,86.0,0,156,1.0,38.0
3847,83.0,480,156,1.0,38.0
3848,78.0,0,156,4.0,38.0
3849,66.0,0,156,4.0,38.0
3850,76.0,240,156,4.0,38.0
3851,64.0,0,156,4.0,38.0
3852,72.0,0,156,4.0,38.0
3853,84.0,0,156,1.0,38.0
3854,88.0,0,156,1.0,38.0
3855,76.0,0,480,4.0,47.0
3856,67.0,240,480,4.0,47.0
3857,64.0,0,480,4.0,47.0
3858,88.0,0,480,1.0,47.0
3859,84.0,0,480,1.0,47.0
3860,62.0,0,156,4.0,39.0
3861,74.0,0,156,4.0,39.0
3862,86.0,0,156,1.0,39.0
3863,90.0,0,156,1.0,39.0
3864,66.0,480,156,4.0,39.0
3865,60.0,0,156,4.0,40.0
3866,72.0,0,156,4.0,40.0
3867,64.0,240,156,4.0,40.0
3868,88.0,0,156,1.0,40.0
3869,91.0,0,156,1.0,40.0
3870,64.0,0,480,4.0,48.0
3871,60.0,0,480,4.0,48.0
3872,72.0,240,480,4.0,48.0
3873,95.0,0,480,1.0,48.0
3874,91.0,0,480,1.0,48.0
3875,66.0,0,156,4.0,41.0
3876,62.0,0,156,4.0,41.0
3877,74.0,0,156,4.0,41.0
3878,93.0,0,156,1.0,41.0
3879,90.0,480,156,1.0,41.0
3880,88.0,0,156,1.0,41.0
3881,91.0,0,156,1.0,41.0
3882,67.0,0,156,4.0,41.0
3883,76.0,0,156,4.0,41.0
3884,64.0,240,156,4.0,41.0
3885,64.0,0,480,4.0,48.0
3886,88.0,240,480,1.0,48.0
3887,91.0,0,480,1.0,48.0
3888,67.0,0,480,4.0,48.0
3889,76.0,0,480,4.0,48.0
3890,90.0,0,156,1.0,42.0
3891,86.0,480,156,1.0,42.0
3892,69.0,0,156,4.0,42.0
3893,78.0,0,156,4.0,42.0
3894,66.0,0,156,4.0,42.0
3895,67.0,0,156,4.0,42.0
3896,71.0,0,156,4.0,42.0
3897,79.0,0,156,4.0,42.0
3898,84.0,0,156,1.0,42.0
3899,88.0,240,156,1.0,42.0
3900,79.0,0,480,4.0,50.0
3901,84.0,0,480,1.0,50.0
3902,88.0,240,480,1.0,50.0
3903,71.0,0,480,4.0,50.0
3904,78.0,0,156,4.0,43.0
3905,81.0,0,156,4.0,43.0
3906,69.0,0,156,4.0,43.0
3907,86.0,0,156,1.0,43.0
3908,90.0,480,156,1.0,43.0
3909,79.0,0,156,4.0,44.0
3910,67.0,0,156,4.0,44.0
3911,76.0,0,156,4.0,44.0
3912,91.0,0,156,1.0,44.0
3913,88.0,240,156,1.0,44.0
3914,71.0,240,480,4.0,53.0
3915,67.0,0,480,4.0,53.0
3916,79.0,0,480,4.0,53.0
3917,91.0,0,480,1.0,53.0
3918,88.0,0,480,1.0,53.0
3919,66.0,480,156,4.0,45.0
3920,69.0,0,156,4.0,45.0
3921,78.0,0,156,4.0,45.0
3922,93.0,0,156,1.0,45.0
3923,90.0,0,156,1.0,45.0
3924,64.0,0,156,4.0,45.0
3925,76.0,0,156,4.0,45.0
3926,67.0,240,156,4.0,45.0
3927,91.0,0,156,1.0,45.0
3928,95.0,0,156,1.0,45.0
3929,83.0,240,480,1.0,53.0
3930,95.0,0,480,1.0,53.0
3931,91.0,0,480,2.0,53.0
3932,84.0,480,0,2.0,45.0
3933,64.0,0,480,4.0,53.0
3934,72.0,0,480,4.0,53.0
3935,67.0,0,0,4.0,45.0
3936,76.0,0,0,4.0,45.0
3937,93.0,0,156,1.0,45.0
3938,81.0,0,156,1.0,45.0
3939,72.0,0,156,4.0,45.0
3940,64.0,0,156,4.0,45.0
3941,76.0,0,156,4.0,44.0
3942,72.0,0,156,4.0,44.0
3943,67.0,0,156,4.0,44.0
3944,64.0,0,156,4.0,44.0
3945,91.0,0,156,1.0,44.0
3946,84.0,240,156,2.0,44.0
3947,79.0,0,156,1.0,44.0
3948,57.0,240,153,5.0,50.0
3949,59.0,137,133,5.0,44.0
3950,57.0,137,133,5.0,44.0
3951,59.0,137,133,5.0,44.0
3952,57.0,149,133,5.0,44.0
3953,59.0,120,133,5.0,43.0
3954,72.0,480,0,2.0,43.0
3955,76.0,0,480,2.0,50.0
3956,79.0,160,480,1.0,50.0
3957,71.0,0,480,2.0,50.0
3958,78.0,0,240,1.0,43.0
3959,69.0,0,240,2.0,43.0
3960,72.0,240,0,2.0,42.0
3961,57.0,120,1060,5.0,43.0
3962,76.0,0,240,1.0,42.0
3963,67.0,0,240,2.0,42.0
3964,69.0,0,240,2.0,42.0
3965,45.0,240,153,5.0,50.0
3966,47.0,137,133,5.0,42.0
3967,45.0,137,133,5.0,42.0
3968,47.0,137,133,5.0,41.0
3969,45.0,149,133,5.0,41.0
3970,47.0,120,133,5.0,41.0
3971,67.0,0,480,4.0,50.0
3972,75.0,0,480,4.0,50.0
3973,72.0,0,480,4.0,50.0
3974,91.0,0,480,2.0,50.0
3975,83.0,0,480,2.0,50.0
3976,84.0,480,0,2.0,40.0
3977,95.0,160,480,1.0,50.0
3978,63.0,0,0,4.0,40.0
3979,81.0,240,0,2.0,40.0
3980,63.0,0,0,4.0,40.0
3981,75.0,0,0,4.0,40.0
3982,67.0,0,0,4.0,40.0
3983,72.0,0,0,4.0,40.0
3984,93.0,0,240,1.0,40.0
3985,84.0,0,0,2.0,40.0
3986,45.0,120,1060,5.0,41.0
3987,91.0,0,240,1.0,40.0
3988,79.0,0,240,2.0,40.0
3989,57.0,240,153,5.0,48.0
3990,59.0,137,133,5.0,40.0
3991,57.0,137,133,5.0,39.0
3992,59.0,137,133,5.0,39.0
3993,57.0,149,133,5.0,39.0
3994,59.0,120,133,5.0,39.0
3995,79.0,160,480,1.0,48.0
3996,72.0,0,480,2.0,48.0
3997,76.0,0,480,2.0,48.0
3998,71.0,0,480,2.0,48.0
3999,69.0,0,240,2.0,38.0
4000,72.0,0,0,2.0,38.0
4001,78.0,480,240,1.0,38.0
4002,57.0,120,1067,5.0,39.0
4003,76.0,240,240,1.0,38.0
4004,69.0,0,240,2.0,38.0
4005,67.0,0,240,2.0,38.0
4006,45.0,240,153,5.0,40.0
4007,47.0,137,133,5.0,43.0
4008,45.0,137,133,5.0,46.0
4009,47.0,137,133,5.0,49.0
4010,45.0,149,133,5.0,52.0
4011,47.0,120,133,5.0,55.0
4012,38.0,0,160,5.0,68.0
4013,40.0,160,160,5.0,63.0
4014,38.0,160,160,5.0,63.0
4015,91.0,0,480,2.0,68.0
4016,96.0,0,480,2.0,68.0
4017,100.0,0,480,1.0,68.0
4018,93.0,0,0,2.0,59.0
4019,91.0,0,156,2.0,59.0
4020,96.0,0,156,1.0,59.0
4021,40.0,160,160,5.0,62.0
4022,38.0,160,160,5.0,61.0
4023,91.0,80,156,2.0,58.0
4024,88.0,0,156,2.0,58.0
4025,93.0,0,156,1.0,58.0
4026,40.0,80,160,5.0,60.0
4027,38.0,160,160,5.0,59.0
4028,40.0,160,160,5.0,58.0
4029,88.0,0,480,2.0,65.0
4030,38.0,160,160,5.0,58.0
4031,91.0,0,480,1.0,65.0
4032,84.0,160,0,2.0,55.0
4033,88.0,0,156,1.0,55.0
4034,81.0,0,156,2.0,55.0
4035,40.0,0,160,5.0,57.0
4036,38.0,160,160,5.0,56.0
4037,81.0,80,156,2.0,54.0
4038,84.0,0,156,1.0,54.0
4039,79.0,0,156,2.0,54.0
4040,40.0,80,160,5.0,55.0
4041,38.0,0,160,5.0,54.0
4042,40.0,160,160,5.0,54.0
4043,81.0,160,480,1.0,60.0
4044,38.0,160,160,5.0,53.0
4045,79.0,0,480,2.0,60.0
4046,76.0,0,0,2.0,51.0
4047,72.0,0,156,2.0,51.0
4048,79.0,0,156,1.0,51.0
4049,40.0,160,160,5.0,52.0
4050,38.0,160,160,5.0,51.0
4051,72.0,0,156,2.0,50.0
4052,69.0,0,156,2.0,50.0
4053,76.0,80,156,1.0,50.0
4054,40.0,80,160,5.0,50.0
4055,38.0,0,160,5.0,49.0
4056,40.0,160,160,5.0,49.0
4057,38.0,160,160,5.0,48.0
4058,67.0,0,0,2.0,47.0
4059,69.0,0,480,2.0,57.0
4060,72.0,160,480,1.0,57.0
4061,69.0,0,156,1.0,47.0
4062,64.0,160,156,2.0,47.0
4063,40.0,0,160,5.0,47.0
4064,38.0,160,160,5.0,46.0
4065,67.0,80,156,1.0,46.0
4066,64.0,0,156,2.0,46.0
4067,60.0,0,156,2.0,46.0
4068,40.0,80,160,5.0,45.0
4069,38.0,0,160,5.0,45.0
4070,40.0,160,160,5.0,44.0
4071,38.0,160,160,5.0,43.0
4072,40.0,160,160,5.0,42.0
4073,38.0,160,160,5.0,41.0
4074,40.0,160,160,5.0,40.0
4075,36.0,160,160,5.0,40.0
4076,38.0,160,160,5.0,39.0
4077,36.0,160,160,5.0,38.0
4078,38.0,160,160,5.0,37.0
4079,36.0,160,160,5.0,36.0
4080,38.0,160,160,5.0,36.0
4081,55.0,0,1920,5.0,45.0
4082,36.0,0,160,5.0,35.0
4083,38.0,160,160,5.0,34.0
4084,36.0,160,160,5.0,33.0
4085,38.0,160,160,5.0,32.0
4086,36.0,160,160,5.0,31.0
4087,64.0,160,2875,1.0,45.0
4088,38.0,160,160,5.0,31.0
4089,33.0,160,160,5.0,30.0
4090,38.0,160,160,5.0,29.0
4091,33.0,160,160,5.0,28.0
4092,38.0,160,160,5.0,27.0
4093,33.0,160,160,5.0,27.0
4094,45.0,120,7820,5.0,57.0
4095,62.0,0,960,1.0,33.0
4096,57.0,0,3840,2.0,45.0
4097,60.0,0,3840,2.0,45.0
4098,38.0,160,160,5.0,26.0
4099,54.0,160,1920,5.0,35.0
4100,59.0,240,240,3.0,37.0
4101,64.0,240,240,3.0,39.0
4102,71.0,160,960,1.0,38.0
4103,62.0,240,240,3.0,41.0
4104,69.0,0,240,3.0,43.0
4105,67.0,240,240,3.0,41.0
4106,62.0,240,240,3.0,40.0
4107,72.0,240,720,1.0,41.0
4108,31.0,0,1920,5.0,36.0
4109,59.0,240,240,3.0,38.0
4110,74.0,0,240,1.0,43.0
4111,52.0,240,240,5.0,43.0
4112,59.0,240,240,3.0,45.0
4113,57.0,240,240,3.0,48.0
4114,79.0,240,960,1.0,44.0
4115,74.0,0,960,2.0,44.0
4116,66.0,0,240,3.0,51.0
4117,73.0,240,480,2.0,46.0
4118,64.0,240,240,3.0,48.0
4119,81.0,0,720,1.0,46.0
4120,61.0,240,240,3.0,46.0
4121,76.0,0,240,2.0,48.0
4122,83.0,240,0,1.0,49.0
4123,55.0,0,240,3.0,44.0
4124,50.0,240,240,5.0,49.0
4125,64.0,240,240,3.0,51.0
4126,79.0,0,960,2.0,49.0
4127,62.0,240,240,3.0,54.0
4128,72.0,0,240,3.0,57.0
4129,81.0,0,480,1.0,52.0
4130,69.0,240,240,3.0,55.0
4131,78.0,240,480,2.0,52.0
4132,66.0,240,240,3.0,54.0
4133,72.0,0,240,2.0,54.0
4134,62.0,0,240,3.0,52.0
4135,84.0,240,240,1.0,54.0
4136,55.0,240,240,5.0,49.0
4137,64.0,240,240,3.0,51.0
4138,73.0,0,960,2.0,57.0
4139,88.0,240,960,1.0,57.0
4140,62.0,240,240,3.0,53.0
4141,69.0,0,240,3.0,54.0
4142,74.0,0,480,2.0,50.0
4143,67.0,240,240,3.0,51.0
4144,86.0,240,480,1.0,50.0
4145,62.0,240,240,3.0,48.0
4146,59.0,240,240,3.0,45.0
4147,40.0,240,240,5.0,43.0
4148,54.0,240,240,3.0,45.0
4149,67.0,240,960,1.0,46.0
4150,52.0,240,240,3.0,48.0
4151,60.0,240,240,3.0,53.0
4152,59.0,240,240,3.0,51.0
4153,69.0,0,720,1.0,49.0
4154,55.0,240,240,3.0,49.0
4155,52.0,0,240,3.0,47.0
4156,71.0,240,240,1.0,52.0
4157,51.0,240,240,5.0,50.0
4158,55.0,240,240,3.0,53.0
4159,71.0,240,960,2.0,53.0
4160,76.0,0,960,1.0,53.0
4161,54.0,240,240,3.0,57.0
4162,64.0,0,240,3.0,60.0
4163,61.0,240,240,3.0,59.0
4164,70.0,240,480,2.0,56.0
4165,78.0,0,720,1.0,56.0
4166,58.0,240,240,3.0,57.0
4167,79.0,0,240,1.0,58.0
4168,76.0,240,240,2.0,58.0
4169,54.0,0,240,3.0,54.0
4170,42.0,240,240,5.0,57.0
4171,62.0,240,240,3.0,60.0
4172,83.0,240,960,1.0,59.0
4173,61.0,240,240,3.0,64.0
4174,79.0,0,960,2.0,59.0
4175,66.0,0,240,3.0,67.0
4176,82.0,240,480,1.0,63.0
4177,64.0,240,240,3.0,64.0
4178,78.0,0,480,2.0,63.0
4179,61.0,240,240,3.0,61.0
4180,88.0,0,240,1.0,65.0
4181,73.0,240,240,2.0,65.0
4182,54.0,0,240,3.0,58.0
4183,47.0,240,240,5.0,60.0
4184,61.0,240,240,3.0,57.0
4185,88.0,0,960,1.0,64.0
4186,59.0,240,240,3.0,53.0
4187,76.0,240,960,2.0,64.0
4188,55.0,240,240,3.0,49.0
4189,54.0,240,240,3.0,46.0
4190,86.0,0,480,1.0,49.0
4191,74.0,0,480,2.0,49.0
4192,50.0,240,240,3.0,42.0
4193,47.0,240,240,3.0,39.0
4194,69.0,480,160,2.0,35.0
4195,81.0,160,128,2.0,35.0
4196,81.0,160,128,2.0,35.0
4197,62.0,60,960,5.0,36.0
4198,54.0,0,960,5.0,36.0
4199,93.0,0,160,2.0,36.0
4200,92.0,160,160,2.0,36.0
4201,95.0,160,160,2.0,36.0
4202,93.0,160,160,2.0,36.0
4203,64.0,0,720,5.0,36.0
4204,57.0,160,720,5.0,36.0
4205,90.0,160,160,2.0,37.0
4206,81.0,80,160,2.0,37.0
4207,66.0,0,240,5.0,36.0
4208,62.0,80,240,5.0,36.0
4209,69.0,480,160,2.0,38.0
4210,81.0,160,128,2.0,39.0
4211,81.0,160,128,2.0,39.0
4212,66.0,160,960,5.0,36.0
4213,62.0,0,960,5.0,36.0
4214,93.0,160,160,2.0,39.0
4215,92.0,160,160,2.0,39.0
4216,95.0,160,160,2.0,40.0
4217,57.0,0,480,5.0,36.0
4218,64.0,0,480,5.0,36.0
4219,93.0,160,160,2.0,40.0
4220,90.0,160,160,2.0,40.0
4221,45.0,180,3847,5.0,36.0
4222,57.0,80,240,5.0,36.0
4223,64.0,0,240,5.0,36.0
4224,81.0,80,160,2.0,41.0
4225,33.0,480,160,4.0,37.0
4226,45.0,160,128,4.0,37.0
4227,45.0,160,128,4.0,37.0
4228,69.0,0,960,1.0,43.0
4229,66.0,160,960,2.0,43.0
4230,57.0,160,160,4.0,37.0
4231,56.0,160,160,4.0,37.0
4232,59.0,160,160,4.0,37.0
4233,57.0,160,160,4.0,37.0
4234,66.0,0,720,1.0,41.0
4235,62.0,0,720,2.0,41.0
4236,54.0,160,160,4.0,37.0
4237,45.0,80,160,4.0,37.0
4238,64.0,80,240,1.0,39.0
4239,57.0,0,240,2.0,39.0
4240,33.0,480,160,4.0,37.0
4241,45.0,160,128,4.0,37.0
4242,45.0,160,128,4.0,37.0
4243,66.0,0,960,2.0,38.0
4244,69.0,160,960,1.0,38.0
4245,57.0,0,160,4.0,37.0
4246,56.0,160,160,4.0,37.0
4247,59.0,160,160,4.0,37.0
4248,57.0,160,160,4.0,37.0
4249,66.0,0,720,1.0,36.0
4250,62.0,160,720,2.0,36.0
4251,54.0,160,160,4.0,37.0
4252,45.0,80,160,4.0,37.0
4253,64.0,0,240,1.0,34.0
4254,57.0,80,240,2.0,34.0
4255,69.0,480,160,2.0,36.0
4256,81.0,160,128,2.0,36.0
4257,81.0,160,128,2.0,37.0
4258,62.0,60,960,5.0,37.0
4259,54.0,0,960,5.0,37.0
4260,93.0,160,160,2.0,37.0
4261,92.0,160,160,2.0,37.0
4262,95.0,160,160,2.0,37.0
4263,93.0,160,160,2.0,37.0
4264,64.0,0,720,5.0,37.0
4265,57.0,0,720,5.0,37.0
4266,90.0,160,160,2.0,38.0
4267,45.0,100,1920,5.0,37.0
4268,66.0,80,240,5.0,38.0
4269,62.0,0,0,5.0,38.0
4270,81.0,80,160,2.0,38.0
4271,69.0,480,160,2.0,39.0
4272,81.0,160,128,2.0,39.0
4273,81.0,160,128,2.0,39.0
4274,66.0,160,960,5.0,38.0
4275,93.0,0,160,2.0,39.0
4276,92.0,160,160,2.0,39.0
4277,64.0,0,480,5.0,39.0
4278,57.0,160,480,5.0,39.0
4279,95.0,160,160,2.0,40.0
4280,93.0,160,160,2.0,40.0
4281,90.0,160,160,2.0,40.0
4282,81.0,80,160,2.0,40.0
4283,57.0,0,240,5.0,40.0
4284,64.0,80,240,5.0,40.0
4285,73.0,480,160,2.0,41.0
4286,85.0,160,128,2.0,41.0
4287,85.0,160,128,2.0,41.0
4288,67.0,160,0,5.0,42.0
4289,71.0,160,960,5.0,40.0
4290,95.0,0,160,2.0,42.0
4291,94.0,160,160,2.0,42.0
4292,97.0,160,160,2.0,42.0
4293,95.0,160,160,2.0,42.0
4294,64.0,0,0,5.0,42.0
4295,91.0,160,160,2.0,42.0
4296,61.0,80,240,5.0,42.0
4297,88.0,80,160,2.0,42.0
4298,73.0,480,160,2.0,43.0
4299,85.0,160,128,2.0,43.0
4300,85.0,160,128,2.0,44.0
4301,67.0,0,960,5.0,43.0
4302,71.0,160,960,5.0,43.0
4303,95.0,0,160,2.0,44.0
4304,94.0,160,160,2.0,44.0
4305,97.0,160,160,2.0,44.0
4306,95.0,160,160,2.0,44.0
4307,64.0,160,720,5.0,44.0
4308,67.0,0,720,5.0,44.0
4309,91.0,160,160,2.0,45.0
4310,88.0,80,160,2.0,45.0
4311,61.0,80,240,5.0,45.0
4312,64.0,0,240,5.0,45.0
4313,73.0,480,160,2.0,46.0
4314,85.0,160,128,2.0,46.0
4315,85.0,160,128,2.0,46.0
4316,70.0,160,960,5.0,45.0
4317,67.0,0,0,5.0,46.0
4318,94.0,0,160,2.0,46.0
4319,93.0,160,160,2.0,46.0
4320,96.0,160,160,2.0,47.0
4321,94.0,160,160,2.0,47.0
4322,64.0,80,0,5.0,47.0
4323,91.0,160,160,2.0,47.0
4324,61.0,0,240,5.0,47.0
4325,88.0,80,160,2.0,47.0
4326,85.0,160,160,2.0,48.0
4327,67.0,0,480,5.0,47.0
4328,70.0,160,480,5.0,47.0
4329,96.0,160,160,2.0,49.0
4330,94.0,0,160,2.0,51.0
4331,91.0,160,160,2.0,52.0
4332,67.0,160,320,5.0,51.0
4333,64.0,0,320,5.0,51.0
4334,88.0,160,160,2.0,53.0
4335,64.0,0,160,5.0,53.0
4336,61.0,0,160,5.0,53.0
4337,85.0,160,160,2.0,56.0
4338,70.0,0,480,5.0,55.0
4339,67.0,160,0,5.0,59.0
4340,96.0,160,160,2.0,57.0
4341,94.0,0,160,2.0,59.0
4342,91.0,160,160,2.0,60.0
4343,64.0,0,320,5.0,59.0
4344,61.0,0,160,5.0,61.0
4345,64.0,160,160,5.0,61.0
4346,88.0,0,160,2.0,61.0
4347,94.0,0,160,1.0,64.0
4348,70.0,0,160,5.0,64.0
4349,67.0,160,160,5.0,64.0
4350,91.0,160,160,2.0,65.0
4351,64.0,0,160,5.0,65.0
4352,60.0,0,160,5.0,67.0
4353,88.0,160,160,2.0,67.0
4354,94.0,160,160,1.0,68.0
4355,72.0,0,160,5.0,68.0
4356,91.0,160,160,2.0,69.0
4357,70.0,0,160,5.0,69.0
4358,67.0,0,160,5.0,71.0
4359,88.0,160,160,2.0,71.0
4360,94.0,160,160,1.0,72.0
4361,76.0,0,160,5.0,72.0
4362,72.0,160,160,5.0,74.0
4363,91.0,0,160,2.0,74.0
4364,70.0,160,160,5.0,75.0
4365,88.0,0,160,2.0,75.0
4366,79.0,160,160,5.0,76.0
4367,94.0,0,160,1.0,76.0
4368,91.0,0,160,2.0,78.0
4369,76.0,160,160,5.0,78.0
4370,88.0,160,160,2.0,79.0
4371,72.0,0,160,5.0,79.0
4372,82.0,0,160,2.0,82.0
4373,94.0,160,160,1.0,82.0
4374,91.0,160,160,2.0,84.0
4375,88.0,160,160,2.0,87.0
4376,52.0,0,156,5.0,90.0
4377,64.0,0,156,5.0,90.0
4378,94.0,0,160,1.0,90.0
4379,82.0,160,160,2.0,90.0
4380,91.0,160,160,2.0,92.0
4381,49.0,80,156,5.0,94.0
4382,61.0,0,156,5.0,94.0
4383,88.0,80,160,2.0,95.0
4384,58.0,0,156,5.0,98.0
4385,46.0,0,156,5.0,98.0
4386,82.0,160,160,2.0,98.0
4387,94.0,0,160,1.0,98.0
4388,91.0,160,160,2.0,100.0
4389,43.0,80,156,5.0,102.0
4390,55.0,0,156,5.0,102.0
4391,88.0,80,160,2.0,103.0
4392,52.0,0,156,5.0,106.0
4393,40.0,0,156,5.0,106.0
4394,82.0,0,160,2.0,106.0
4395,94.0,160,160,1.0,106.0
4396,91.0,160,160,2.0,110.0
4397,37.0,80,156,5.0,111.0
4398,49.0,0,156,5.0,111.0
4399,88.0,80,160,2.0,113.0
4400,82.0,0,480,1.0,118.0
4401,36.0,0,480,5.0,118.0
4402,76.0,0,480,3.0,118.0
4403,79.0,0,480,3.0,118.0
4404,43.0,0,480,4.0,118.0
4405,70.0,0,480,2.0,118.0
4406,48.0,160,480,5.0,118.0
4407,60.0,0,120,3.0,90.0
4408,58.0,720,120,3.0,90.0
4409,43.0,0,120,4.0,90.0
4410,48.0,0,120,5.0,90.0
4411,64.0,0,120,1.0,90.0
4412,52.0,0,120,2.0,90.0
4413,36.0,0,120,5.0,90.0
4414,52.0,0,360,2.0,93.0
4415,43.0,240,360,4.0,93.0
4416,48.0,0,360,5.0,93.0
4417,36.0,0,360,5.0,93.0
4418,58.0,0,360,3.0,93.0
4419,60.0,0,360,3.0,93.0
4420,64.0,0,360,1.0,93.0
4421,50.0,0,120,5.0,91.0
4422,38.0,480,120,5.0,91.0
4423,53.0,0,120,2.0,91.0
4424,60.0,0,120,3.0,91.0
4425,65.0,0,120,1.0,91.0
4426,55.0,0,120,2.0,96.0
4427,67.0,0,120,1.0,96.0
4428,60.0,0,120,3.0,96.0
4429,52.0,240,120,5.0,96.0
4430,40.0,0,120,5.0,96.0
4431,57.0,240,156,2.0,100.0
4432,53.0,0,156,5.0,100.0
4433,60.0,0,156,3.0,100.0
4434,69.0,0,156,1.0,100.0
4435,48.0,0,156,4.0,100.0
4436,41.0,0,192,5.0,100.0
4437,67.0,0,156,1.0,91.0
4438,60.0,480,156,3.0,91.0
4439,48.0,0,156,4.0,91.0
4440,55.0,0,156,2.0,91.0
4441,52.0,0,156,5.0,91.0
4442,40.0,0,192,5.0,91.0
4443,58.0,0,120,3.0,94.0
4444,60.0,0,120,3.0,94.0
4445,64.0,0,120,1.0,94.0
4446,48.0,1200,120,5.0,94.0
4447,36.0,0,120,5.0,94.0
4448,43.0,0,120,4.0,94.0
4449,52.0,0,120,2.0,94.0
4450,58.0,240,307,3.0,99.0
4451,52.0,0,360,2.0,99.0
4452,64.0,0,360,1.0,99.0
4453,36.0,0,360,5.0,99.0
4454,60.0,0,360,3.0,99.0
4455,43.0,0,360,4.0,99.0
4456,48.0,0,360,5.0,99.0
4457,38.0,0,120,5.0,95.0
4458,53.0,0,120,2.0,95.0
4459,50.0,0,120,5.0,95.0
4460,60.0,480,120,3.0,95.0
4461,65.0,0,120,1.0,95.0
4462,55.0,0,120,2.0,99.0
4463,52.0,240,120,5.0,99.0
4464,40.0,0,120,5.0,99.0
4465,60.0,0,120,3.0,99.0
4466,67.0,0,120,1.0,99.0
4467,69.0,0,360,1.0,102.0
4468,48.0,0,360,4.0,102.0
4469,60.0,0,360,3.0,102.0
4470,53.0,0,360,5.0,102.0
4471,41.0,240,360,5.0,102.0
4472,57.0,0,360,2.0,102.0
4473,40.0,480,120,5.0,100.0
4474,52.0,0,120,5.0,100.0
4475,67.0,0,120,1.0,100.0
4476,55.0,0,120,2.0,100.0
4477,48.0,0,120,4.0,100.0
4478,60.0,0,120,3.0,100.0
4479,48.0,0,120,4.0,104.0
4480,69.0,0,120,1.0,104.0
4481,60.0,0,120,3.0,104.0
4482,57.0,0,120,2.0,104.0
4483,41.0,240,120,5.0,104.0
4484,53.0,0,120,5.0,104.0
4485,60.0,0,156,3.0,110.0
4486,70.0,0,156,1.0,110.0
4487,55.0,0,156,5.0,110.0
4488,48.0,240,156,4.0,110.0
4489,58.0,0,156,2.0,110.0
4490,43.0,0,156,5.0,110.0
4491,41.0,0,156,5.0,99.0
4492,53.0,0,156,5.0,99.0
4493,69.0,0,156,1.0,98.0
4494,60.0,480,156,3.0,98.0
4495,48.0,0,156,4.0,99.0
4496,57.0,0,156,2.0,98.0
4497,60.0,0,120,3.0,99.0
4498,40.0,960,120,5.0,99.0
4499,52.0,0,120,5.0,99.0
4500,55.0,0,120,2.0,99.0
4501,67.0,0,120,1.0,99.0
4502,53.0,240,120,5.0,102.0
4503,57.0,0,120,2.0,102.0
4504,48.0,0,120,4.0,99.0
4505,41.0,0,120,5.0,102.0
4506,60.0,0,120,3.0,102.0
4507,69.0,0,120,1.0,102.0
4508,48.0,0,120,4.0,102.0
4509,71.0,0,192,1.0,104.0
4510,38.0,0,192,5.0,104.0
4511,59.0,240,192,2.0,104.0
4512,65.0,0,192,3.0,104.0
4513,50.0,0,192,5.0,104.0
4514,67.0,0,192,3.0,104.0
4515,72.0,0,192,1.0,105.0
4516,52.0,0,192,5.0,105.0
4517,40.0,0,192,5.0,105.0
4518,60.0,0,192,2.0,105.0
4519,67.0,480,192,3.0,105.0
4520,64.0,0,192,3.0,105.0
4521,47.0,0,192,5.0,106.0
4522,35.0,480,192,5.0,106.0
4523,74.0,0,192,1.0,106.0
4524,62.0,0,192,2.0,106.0
4525,67.0,0,192,3.0,106.0
4526,67.0,0,192,3.0,107.0
4527,64.0,480,192,2.0,107.0
4528,76.0,0,192,1.0,107.0
4529,36.0,0,192,5.0,107.0
4530,48.0,0,192,5.0,107.0
4531,78.0,0,80,1.0,109.0
4532,79.0,80,92,1.0,96.0
4533,78.0,80,100,1.0,97.0
4534,79.0,80,108,1.0,98.0
4535,78.0,80,117,1.0,99.0
4536,79.0,80,125,1.0,100.0
4537,78.0,80,133,1.0,101.0
4538,79.0,80,142,1.0,102.0
4539,78.0,80,150,1.0,103.0
4540,76.0,80,158,1.0,104.0
4541,33.0,0,960,5.0,109.0
4542,45.0,0,960,5.0,109.0
4543,74.0,0,960,2.0,109.0
4544,72.0,480,960,2.0,109.0
4545,38.0,0,0,4.0,114.0
4546,78.0,120,171,1.0,105.0
4547,79.0,120,360,1.0,114.0
4548,71.0,0,360,2.0,114.0
4549,31.0,0,360,5.0,114.0
4550,43.0,0,360,5.0,114.0
4551,74.0,480,120,1.0,108.0
4552,62.0,0,120,2.0,108.0
4553,78.0,0,120,1.0,106.0
4554,66.0,240,120,2.0,106.0
4555,79.0,0,192,1.0,103.0
4556,67.0,240,192,2.0,103.0
4557,50.0,480,120,5.0,98.0
4558,62.0,0,120,1.0,98.0
4559,66.0,0,120,1.0,95.0
4560,54.0,240,120,5.0,95.0
4561,55.0,0,192,5.0,92.0
4562,67.0,240,192,1.0,92.0
4563,50.0,0,120,1.0,87.0
4564,38.0,480,120,2.0,87.0
4565,54.0,240,120,1.0,84.0
4566,42.0,0,120,2.0,84.0
4567,55.0,0,120,1.0,87.0
4568,59.0,120,120,1.0,89.0
4569,60.0,120,120,1.0,90.0
4570,62.0,120,120,1.0,91.0
4571,64.0,120,120,1.0,92.0
4572,43.0,240,720,5.0,87.0
4573,66.0,120,120,1.0,93.0
4574,67.0,120,120,1.0,95.0
4575,69.0,120,120,1.0,96.0
4576,71.0,0,120,1.0,95.0
4577,74.0,120,120,1.0,97.0
4578,76.0,120,120,1.0,99.0
4579,78.0,120,120,1.0,101.0
4580,79.0,120,120,1.0,104.0
4581,55.0,0,720,5.0,97.0
4582,83.0,120,120,1.0,106.0
4583,62.0,120,720,4.0,97.0
4584,59.0,0,720,4.0,97.0
4585,84.0,120,120,1.0,108.0
4586,86.0,120,120,1.0,110.0
4587,79.0,0,480,3.0,115.0
4588,51.0,120,480,4.0,110.0
4589,48.0,0,480,5.0,110.0
4590,84.0,0,480,3.0,115.0
4591,55.0,40,480,4.0,110.0
4592,60.0,0,480,5.0,110.0
4593,75.0,40,480,2.0,115.0
4594,87.0,0,480,1.0,115.0
4595,51.0,640,120,2.0,90.0
4596,48.0,0,120,5.0,90.0
4597,36.0,0,120,5.0,90.0
4598,43.0,0,120,4.0,90.0
4599,60.0,0,120,3.0,90.0
4600,63.0,0,120,1.0,90.0
4601,60.0,0,360,3.0,92.0
4602,43.0,0,360,4.0,92.0
4603,63.0,0,360,1.0,92.0
4604,36.0,0,360,5.0,92.0
4605,48.0,0,360,5.0,92.0
4606,51.0,240,360,2.0,92.0
4607,38.0,0,120,5.0,89.0
4608,53.0,0,120,2.0,89.0
4609,65.0,0,120,1.0,89.0
4610,60.0,480,120,3.0,89.0
4611,50.0,0,120,5.0,89.0
4612,60.0,0,120,3.0,93.0
4613,39.0,0,120,5.0,93.0
4614,55.0,0,120,2.0,93.0
4615,67.0,240,120,1.0,93.0
4616,51.0,0,120,5.0,93.0
4617,68.0,240,156,1.0,100.0
4618,56.0,0,156,2.0,100.0
4619,53.0,0,156,5.0,100.0
4620,60.0,0,156,3.0,100.0
4621,48.0,0,156,4.0,100.0
4622,41.0,0,156,5.0,100.0
4623,41.0,0,156,5.0,89.0
4624,53.0,480,156,5.0,89.0
4625,48.0,0,156,4.0,89.0
4626,56.0,0,156,2.0,89.0
4627,68.0,0,156,1.0,89.0
4628,60.0,0,156,3.0,89.0
4629,80.0,0,240,1.0,92.0
4630,68.0,960,240,2.0,92.0
4631,44.0,0,240,5.0,92.0
4632,56.0,0,240,5.0,92.0
4633,80.0,480,480,3.0,108.0
4634,56.0,0,480,4.0,108.0
4635,49.0,0,480,5.0,108.0
4636,65.0,40,480,4.0,108.0
4637,89.0,40,480,1.0,108.0
4638,77.0,0,480,2.0,108.0
4639,61.0,0,480,5.0,108.0
4640,37.0,0,120,5.0,92.0
4641,49.0,0,120,5.0,92.0
4642,53.0,0,120,2.0,92.0
4643,61.0,0,120,3.0,92.0
4644,65.0,640,120,1.0,92.0
4645,65.0,0,360,1.0,95.0
4646,53.0,0,360,2.0,95.0
4647,49.0,0,360,5.0,95.0
4648,37.0,0,360,5.0,95.0
4649,61.0,240,360,3.0,95.0
4650,58.0,0,120,3.0,93.0
4651,39.0,0,120,5.0,93.0
4652,51.0,0,120,5.0,93.0
4653,66.0,0,120,1.0,93.0
4654,54.0,480,120,2.0,93.0
4655,56.0,240,120,2.0,97.0
4656,41.0,0,120,5.0,97.0
4657,53.0,0,120,5.0,97.0
4658,68.0,0,120,1.0,97.0
4659,61.0,80,120,3.0,97.0
4660,42.0,0,156,5.0,102.0
4661,57.0,160,156,2.0,102.0
4662,69.0,0,156,1.0,102.0
4663,49.0,0,156,4.0,102.0
4664,54.0,0,156,5.0,102.0
4665,66.0,0,156,3.0,102.0
4666,69.0,0,156,1.0,92.0
4667,66.0,0,156,3.0,92.0
4668,57.0,0,156,2.0,92.0
4669,49.0,0,156,4.0,93.0
4670,42.0,480,156,5.0,93.0
4671,54.0,0,156,5.0,93.0
4672,45.0,0,240,5.0,97.0
4673,57.0,960,240,5.0,97.0
4674,81.0,0,240,1.0,97.0
4675,69.0,0,240,2.0,97.0
4676,81.0,0,480,3.0,108.0
4677,50.0,480,480,5.0,108.0
4678,57.0,40,480,4.0,108.0
4679,78.0,0,480,2.0,108.0
4680,66.0,40,480,4.0,108.0
4681,62.0,0,480,5.0,108.0
4682,90.0,0,480,1.0,108.0
4683,62.0,0,120,3.0,96.0
4684,54.0,640,120,2.0,96.0
4685,66.0,0,120,1.0,96.0
4686,50.0,0,120,5.0,96.0
4687,38.0,0,120,5.0,96.0
4688,62.0,0,360,3.0,98.0
4689,66.0,0,360,1.0,98.0
4690,50.0,240,360,5.0,98.0
4691,38.0,0,360,5.0,98.0
4692,54.0,0,360,2.0,98.0
4693,67.0,0,120,1.0,96.0
4694,55.0,480,120,2.0,96.0
4695,62.0,0,120,3.0,96.0
4696,52.0,0,120,5.0,96.0
4697,40.0,0,120,5.0,96.0
4698,42.0,0,120,5.0,101.0
4699,62.0,0,120,3.0,101.0
4700,57.0,0,120,2.0,101.0
4701,69.0,240,120,1.0,101.0
4702,54.0,0,120,5.0,101.0
4703,58.0,0,156,2.0,106.0
4704,62.0,0,156,3.0,106.0
4705,70.0,240,156,1.0,106.0
4706,43.0,0,156,5.0,106.0
4707,55.0,0,156,5.0,106.0
4708,50.0,0,156,4.0,106.0
4709,69.0,0,156,1.0,98.0
4710,62.0,0,156,3.0,98.0
4711,54.0,0,156,5.0,98.0
4712,42.0,0,156,5.0,98.0
4713,57.0,0,156,2.0,98.0
4714,50.0,480,156,4.0,98.0
4715,61.0,0,240,2.0,100.0
4716,51.0,0,240,5.0,100.0
4717,73.0,960,240,1.0,100.0
4718,67.0,0,240,3.0,100.0
4719,39.0,0,240,5.0,100.0
4720,66.0,480,192,3.0,101.0
4721,62.0,0,192,2.0,101.0
4722,38.0,0,192,5.0,101.0
4723,50.0,0,192,5.0,101.0
4724,74.0,0,192,1.0,101.0
4725,50.0,240,240,5.0,101.0
4726,63.0,0,480,5.0,109.0
4727,51.0,240,480,5.0,109.0
4728,38.0,240,240,5.0,102.0
4729,72.0,0,720,2.0,107.0
4730,81.0,240,720,1.0,107.0
4731,69.0,240,960,1.0,101.0
4732,39.0,240,480,5.0,112.0
4733,51.0,0,480,5.0,112.0
4734,79.0,240,240,1.0,103.0
4735,78.0,240,240,1.0,102.0
4736,50.0,240,240,5.0,102.0
4737,51.0,240,480,5.0,109.0
4738,63.0,0,480,5.0,109.0
4739,38.0,240,240,5.0,103.0
4740,81.0,240,960,1.0,103.0
4741,93.0,240,720,1.0,109.0
4742,84.0,0,0,2.0,105.0
4743,93.0,0,240,1.0,105.0
4744,81.0,240,240,2.0,105.0
4745,51.0,0,480,5.0,110.0
4746,39.0,240,480,5.0,110.0
4747,80.0,0,192,2.0,104.0
4748,52.0,0,192,5.0,104.0
4749,83.0,0,192,2.0,104.0
4750,40.0,0,192,5.0,104.0
4751,92.0,240,192,1.0,104.0
4752,52.0,240,240,5.0,104.0
4753,53.0,240,480,5.0,113.0
4754,65.0,0,480,5.0,113.0
4755,40.0,240,240,5.0,105.0
4756,83.0,0,720,1.0,111.0
4757,74.0,240,960,2.0,111.0
4758,53.0,0,480,5.0,112.0
4759,41.0,240,480,5.0,112.0
4760,81.0,240,240,1.0,106.0
4761,71.0,240,1200,1.0,104.0
4762,80.0,240,240,1.0,104.0
4763,74.0,0,240,2.0,104.0
4764,71.0,0,240,2.0,104.0
4765,52.0,240,240,5.0,105.0
4766,65.0,0,480,5.0,112.0
4767,53.0,240,480,5.0,112.0
4768,40.0,240,240,5.0,106.0
4769,83.0,240,975,1.0,106.0
4770,95.0,0,742,1.0,115.0
4771,86.0,240,742,2.0,115.0
4772,53.0,0,720,5.0,114.0
4773,41.0,240,0,5.0,107.0
4774,84.0,240,945,1.0,107.0
4775,87.0,240,720,2.0,112.0
4776,96.0,0,720,1.0,112.0
4777,42.0,240,720,5.0,114.0
4778,54.0,0,720,5.0,114.0
4779,43.0,240,0,5.0,114.0
4780,84.0,240,937,1.0,107.0
4781,96.0,0,720,1.0,114.0
4782,87.0,240,720,2.0,114.0
4783,43.0,240,0,5.0,108.0
4784,55.0,0,720,5.0,114.0
4785,87.0,240,720,2.0,115.0
4786,96.0,0,720,1.0,115.0
4787,84.0,240,960,1.0,108.0
4788,57.0,0,720,5.0,114.0
4789,45.0,240,720,5.0,114.0
4790,46.0,0,0,5.0,117.0
4791,82.0,240,945,1.0,109.0
4792,94.0,0,720,1.0,116.0
4793,86.0,240,720,2.0,116.0
4794,58.0,240,720,5.0,117.0
4795,46.0,240,240,5.0,110.0
4796,93.0,0,712,1.0,118.0
4797,87.0,240,720,2.0,118.0
4798,81.0,240,960,1.0,110.0
4799,60.0,0,720,5.0,118.0
4800,48.0,240,0,5.0,111.0
4801,82.0,240,720,2.0,117.0
4802,79.0,240,960,1.0,110.0
4803,88.0,0,727,2.0,117.0
4804,91.0,0,727,1.0,117.0
4805,61.0,0,480,5.0,118.0
4806,49.0,240,480,5.0,118.0
4807,86.0,240,192,2.0,119.0
4808,90.0,0,192,1.0,119.0
4809,78.0,240,432,1.0,111.0
4810,62.0,0,192,5.0,113.0
4811,50.0,0,192,5.0,113.0
4812,74.0,240,240,1.0,116.0
4813,86.0,0,156,1.0,114.0
4814,78.0,240,156,2.0,114.0
4815,81.0,0,156,2.0,114.0
4816,69.0,240,240,1.0,111.0
4817,81.0,240,156,1.0,109.0
4818,74.0,0,156,2.0,109.0
4819,78.0,0,156,2.0,109.0
4820,50.0,0,156,5.0,107.0
4821,54.0,0,156,4.0,107.0
4822,62.0,0,156,5.0,107.0
4823,57.0,0,156,4.0,107.0
4824,66.0,240,240,1.0,106.0
4825,78.0,0,156,1.0,103.0
4826,69.0,0,156,2.0,103.0
4827,74.0,240,156,2.0,103.0
4828,62.0,240,240,1.0,101.0
4829,50.0,0,240,5.0,101.0
4830,74.0,240,240,1.0,98.0
4831,66.0,0,240,2.0,98.0
4832,45.0,0,240,4.0,101.0
4833,54.0,0,240,4.0,101.0
4834,38.0,0,240,5.0,101.0
4835,69.0,0,240,2.0,98.0
4836,69.0,1440,480,1.0,77.0
4837,63.0,240,240,3.0,74.0
4838,67.0,240,240,3.0,68.0
4839,79.0,240,240,3.0,63.0
4840,72.0,480,960,1.0,79.0
4841,69.0,720,480,1.0,44.0
4842,62.0,240,240,3.0,46.0
4843,66.0,240,240,3.0,42.0
4844,78.0,240,240,3.0,38.0
4845,72.0,480,960,1.0,50.0
4846,69.0,720,480,1.0,38.0
4847,63.0,240,240,3.0,40.0
4848,67.0,240,240,3.0,41.0
4849,63.0,240,240,3.0,42.0
4850,72.0,480,960,1.0,39.0
4851,67.0,240,240,3.0,42.0
4852,63.0,240,240,3.0,43.0
4853,74.0,0,720,1.0,42.0
4854,67.0,240,240,3.0,44.0
4855,75.0,240,240,1.0,45.0
4856,72.0,0,240,3.0,45.0
4857,65.0,240,240,3.0,47.0
4858,68.0,240,240,3.0,45.0
4859,75.0,240,960,1.0,48.0
4860,65.0,240,240,3.0,44.0
4861,68.0,240,240,3.0,43.0
4862,74.0,0,480,1.0,43.0
4863,65.0,240,240,3.0,43.0
4864,68.0,240,240,3.0,46.0
4865,77.0,0,240,1.0,48.0
4866,72.0,240,240,3.0,48.0
4867,55.0,240,240,3.0,48.0
4868,59.0,240,240,3.0,47.0
4869,55.0,240,240,3.0,46.0
4870,80.0,240,960,1.0,55.0
4871,59.0,240,240,3.0,45.0
4872,55.0,240,240,3.0,44.0
4873,79.0,0,720,1.0,45.0
4874,59.0,240,240,3.0,43.0
4875,65.0,0,240,3.0,42.0
4876,74.0,240,240,1.0,42.0
4877,60.0,240,240,3.0,43.0
4878,67.0,240,240,3.0,42.0
4879,77.0,240,960,1.0,46.0
4880,60.0,240,240,3.0,40.0
4881,67.0,240,240,3.0,39.0
4882,75.0,0,480,1.0,39.0
4883,60.0,240,240,3.0,38.0
4884,67.0,240,240,3.0,37.0
4885,72.0,240,240,1.0,36.0
4886,48.0,240,240,3.0,39.0
4887,55.0,240,240,3.0,40.0
4888,75.0,0,0,1.0,42.0
4889,48.0,240,240,3.0,41.0
4890,55.0,240,240,3.0,42.0
4891,48.0,240,240,3.0,43.0
4892,55.0,240,240,3.0,44.0
4893,77.0,240,240,1.0,45.0
4894,57.0,0,240,3.0,45.0
4895,79.0,240,480,1.0,46.0
4896,46.0,240,240,5.0,47.0
4897,55.0,240,240,3.0,48.0
4898,58.0,240,240,3.0,56.0
4899,63.0,240,240,3.0,50.0
4900,58.0,240,240,3.0,51.0
4901,55.0,240,240,3.0,52.0
4902,51.0,240,240,3.0,53.0
4903,45.0,240,240,5.0,62.0
4904,50.0,240,240,3.0,55.0
4905,82.0,0,1440,1.0,50.0
4906,79.0,0,1440,2.0,50.0
4907,55.0,240,240,3.0,56.0
4908,58.0,240,240,3.0,57.0
4909,43.0,0,240,5.0,68.0
4910,50.0,240,240,3.0,58.0
4911,55.0,240,240,3.0,59.0
4912,58.0,240,240,3.0,60.0
4913,38.0,240,240,5.0,80.0
4914,82.0,240,1440,2.0,64.0
4915,50.0,240,240,3.0,62.0
4916,86.0,0,1440,1.0,64.0
4917,53.0,240,240,3.0,63.0
4918,58.0,240,240,3.0,64.0
4919,70.0,0,240,3.0,74.0
4920,65.0,160,240,3.0,65.0
4921,62.0,240,240,3.0,64.0
4922,58.0,240,240,3.0,63.0
4923,50.0,240,240,5.0,62.0
4924,89.0,40,1360,1.0,74.0
4925,77.0,240,1440,2.0,74.0
4926,53.0,240,240,4.0,61.0
4927,82.0,40,1407,2.0,74.0
4928,58.0,240,240,4.0,60.0
4929,86.0,240,240,1.0,59.0
4930,65.0,0,240,4.0,59.0
4931,54.0,240,240,4.0,57.0
4932,60.0,240,240,4.0,56.0
4933,81.0,0,720,2.0,67.0
4934,87.0,240,720,1.0,67.0
4935,84.0,240,240,1.0,55.0
4936,63.0,0,240,4.0,55.0
4937,55.0,240,240,4.0,53.0
4938,58.0,240,240,4.0,52.0
4939,63.0,240,240,4.0,51.0
4940,82.0,240,960,1.0,54.0
4941,56.0,240,240,4.0,49.0
4942,60.0,240,240,4.0,48.0
4943,84.0,240,720,1.0,57.0
4944,63.0,240,240,4.0,47.0
4945,80.0,0,240,1.0,47.0
4946,58.0,240,240,4.0,45.0
4947,63.0,240,240,4.0,44.0
4948,79.0,240,960,1.0,46.0
4949,75.0,0,1920,2.0,57.0
4950,67.0,240,240,4.0,43.0
4951,59.0,0,240,5.0,50.0
4952,65.0,240,240,4.0,41.0
4953,68.0,240,240,4.0,41.0
4954,74.0,0,960,2.0,50.0
4955,71.0,240,240,4.0,40.0
4956,60.0,240,240,5.0,48.0
4957,63.0,240,240,4.0,38.0
4958,80.0,240,1680,1.0,50.0
4959,68.0,240,240,4.0,37.0
4960,79.0,0,240,1.0,36.0
4961,72.0,240,240,4.0,36.0
4962,75.0,0,960,2.0,39.0
4963,62.0,240,240,5.0,41.0
4964,66.0,240,240,4.0,34.0
4965,72.0,0,712,2.0,41.0
4966,69.0,240,240,4.0,33.0
4967,81.0,0,720,1.0,41.0
4968,78.0,0,240,1.0,32.0
4969,72.0,240,240,4.0,32.0
4970,67.0,240,0,5.0,33.0
4971,55.0,240,240,4.0,33.0
4972,55.0,240,240,4.0,34.0
4973,91.0,0,960,1.0,38.0
4974,87.0,0,960,2.0,38.0
4975,89.0,0,480,1.0,34.0
4976,62.0,0,480,5.0,34.0
4977,65.0,240,480,5.0,34.0
4978,55.0,240,240,4.0,35.0
4979,86.0,0,480,2.0,34.0
4980,55.0,240,240,4.0,36.0
4981,79.0,240,0,2.0,44.0
4982,91.0,240,480,1.0,36.0
4983,87.0,0,480,2.0,36.0
4984,63.0,0,480,5.0,36.0
4985,67.0,0,480,5.0,36.0
4986,65.0,0,480,5.0,44.0
4987,55.0,240,240,4.0,39.0
4988,68.0,0,480,5.0,44.0
4989,89.0,0,720,2.0,44.0
4990,92.0,0,720,1.0,44.0
4991,91.0,0,240,1.0,38.0
4992,62.0,0,480,5.0,38.0
4993,65.0,240,480,5.0,38.0
4994,87.0,240,240,2.0,38.0
4995,55.0,0,240,4.0,38.0
4996,59.0,240,480,5.0,38.0
4997,86.0,0,480,1.0,38.0
4998,83.0,0,480,2.0,38.0
4999,55.0,240,240,4.0,37.0
5000,62.0,0,480,5.0,38.0
5001,84.0,0,480,2.0,37.0
5002,55.0,240,240,4.0,36.0
5003,87.0,0,480,1.0,37.0
5004,63.0,240,480,5.0,37.0
5005,60.0,0,480,5.0,37.0
5006,89.0,240,480,1.0,42.0
5007,55.0,240,240,4.0,36.0
5008,65.0,0,480,5.0,42.0
5009,62.0,0,480,5.0,42.0
5010,86.0,0,480,2.0,42.0
5011,84.0,0,480,2.0,35.0
5012,63.0,240,480,5.0,35.0
5013,60.0,0,480,5.0,35.0
5014,55.0,240,240,4.0,35.0
5015,87.0,0,480,1.0,35.0
5016,82.0,0,480,2.0,34.0
5017,86.0,0,480,1.0,34.0
5018,55.0,240,240,4.0,34.0
5019,62.0,0,480,5.0,34.0
5020,58.0,240,480,5.0,34.0
5021,56.0,240,480,4.0,33.0
5022,55.0,240,240,4.0,33.0
5023,80.0,0,480,2.0,33.0
5024,79.0,240,0,2.0,36.0
5025,60.0,0,480,5.0,33.0
5026,84.0,0,480,1.0,33.0
5027,59.0,0,480,5.0,36.0
5028,55.0,240,240,4.0,32.0
5029,83.0,0,720,1.0,36.0
5030,60.0,240,480,5.0,32.0
5031,80.0,240,240,2.0,31.0
5032,55.0,0,240,4.0,31.0
5033,57.0,0,480,5.0,32.0
5034,84.0,0,240,1.0,31.0
5035,62.0,0,480,5.0,31.0
5036,59.0,240,0,5.0,36.0
5037,83.0,240,480,2.0,31.0
5038,86.0,0,480,1.0,31.0
5039,55.0,240,240,4.0,30.0
5040,55.0,240,240,4.0,30.0
5041,63.0,0,480,5.0,38.0
5042,67.0,0,480,5.0,38.0
5043,55.0,240,240,4.0,34.0
5044,91.0,0,960,1.0,38.0
5045,63.0,240,480,5.0,38.0
5046,55.0,240,240,4.0,42.0
5047,87.0,240,960,2.0,38.0
5048,67.0,0,480,5.0,38.0
5049,86.0,0,480,2.0,47.0
5050,89.0,240,480,1.0,47.0
5051,65.0,0,480,5.0,47.0
5052,62.0,0,480,5.0,47.0
5053,55.0,240,240,4.0,54.0
5054,87.0,0,480,2.0,60.0
5055,79.0,0,2400,2.0,36.0
5056,55.0,240,240,4.0,66.0
5057,63.0,0,480,5.0,60.0
5058,91.0,240,480,1.0,60.0
5059,67.0,0,0,5.0,79.0
5060,70.0,0,480,5.0,79.0
5061,55.0,160,240,4.0,68.0
5062,94.0,40,640,1.0,79.0
5063,91.0,40,685,2.0,79.0
5064,55.0,0,240,4.0,62.0
5065,92.0,240,240,1.0,62.0
5066,89.0,0,240,2.0,62.0
5067,68.0,240,480,5.0,65.0
5068,65.0,240,0,5.0,59.0
5069,62.0,0,480,5.0,59.0
5070,86.0,0,480,2.0,59.0
5071,89.0,0,480,1.0,59.0
5072,55.0,240,240,4.0,56.0
5073,79.0,240,1912,2.0,79.0
5074,92.0,0,480,1.0,53.0
5075,55.0,240,240,4.0,50.0
5076,68.0,0,480,5.0,53.0
5077,65.0,0,480,5.0,53.0
5078,89.0,240,480,2.0,53.0
5079,67.0,0,480,5.0,55.0
5080,87.0,0,480,2.0,55.0
5081,91.0,0,480,1.0,55.0
5082,63.0,240,480,5.0,55.0
5083,55.0,240,240,4.0,48.0
5084,55.0,240,240,4.0,46.0
5085,87.0,0,480,1.0,47.0
5086,84.0,0,480,2.0,47.0
5087,60.0,240,480,5.0,47.0
5088,63.0,0,480,5.0,47.0
5089,55.0,240,240,4.0,44.0
5090,62.0,0,480,5.0,45.0
5091,86.0,0,480,2.0,45.0
5092,65.0,0,480,5.0,45.0
5093,89.0,240,480,1.0,45.0
5094,86.0,240,480,1.0,44.0
5095,79.0,240,0,2.0,48.0
5096,55.0,240,240,4.0,43.0
5097,83.0,0,480,2.0,44.0
5098,59.0,0,480,5.0,44.0
5099,62.0,0,480,5.0,44.0
5100,60.0,0,0,5.0,40.0
5101,55.0,240,240,4.0,41.0
5102,63.0,0,480,5.0,48.0
5103,87.0,0,480,1.0,48.0
5104,84.0,0,480,2.0,48.0
5105,84.0,0,480,1.0,40.0
5106,81.0,0,480,2.0,40.0
5107,55.0,240,240,4.0,39.0
5108,57.0,240,480,5.0,40.0
5109,83.0,0,480,2.0,39.0
5110,62.0,0,480,5.0,39.0
5111,59.0,240,0,5.0,37.0
5112,86.0,240,480,1.0,39.0
5113,55.0,240,240,4.0,38.0
5114,55.0,240,240,4.0,36.0
5115,79.0,0,480,1.0,37.0
5116,63.0,240,240,4.0,34.0
5117,67.0,0,240,3.0,34.0
5118,60.0,240,240,4.0,34.0
5119,55.0,0,240,4.0,35.0
5120,72.0,240,480,1.0,40.0
5121,51.0,240,240,4.0,35.0
5122,79.0,0,240,3.0,35.0
5123,63.0,240,240,4.0,35.0
5124,67.0,0,240,3.0,35.0
5125,60.0,240,240,4.0,35.0
5126,55.0,0,240,4.0,36.0
5127,74.0,240,480,1.0,41.0
5128,79.0,0,240,3.0,36.0
5129,51.0,240,240,4.0,36.0
5130,65.0,240,240,4.0,36.0
5131,60.0,0,240,4.0,37.0
5132,56.0,240,240,4.0,37.0
5133,72.0,240,480,1.0,42.0
5134,75.0,0,240,3.0,37.0
5135,53.0,240,240,4.0,37.0
5136,80.0,0,240,3.0,37.0
5137,65.0,240,240,4.0,38.0
5138,60.0,0,240,4.0,38.0
5139,56.0,240,240,4.0,38.0
5140,68.0,240,480,1.0,40.0
5141,74.0,0,240,3.0,38.0
5142,53.0,240,240,4.0,38.0
5143,80.0,0,240,3.0,38.0
5144,65.0,240,240,4.0,39.0
5145,72.0,240,240,3.0,39.0
5146,62.0,0,240,4.0,39.0
5147,60.0,0,240,4.0,39.0
5148,86.0,240,240,3.0,40.0
5149,55.0,0,240,4.0,40.0
5150,80.0,240,480,1.0,44.0
5151,65.0,240,240,4.0,40.0
5152,62.0,0,240,4.0,40.0
5153,71.0,240,240,3.0,40.0
5154,59.0,0,240,4.0,41.0
5155,86.0,240,240,3.0,41.0
5156,55.0,0,240,4.0,41.0
5157,79.0,240,480,1.0,46.0
5158,72.0,240,240,4.0,41.0
5159,68.0,0,240,4.0,41.0
5160,77.0,240,480,1.0,46.0
5161,67.0,0,240,4.0,42.0
5162,86.0,240,240,3.0,42.0
5163,60.0,0,240,4.0,42.0
5164,91.0,240,240,3.0,42.0
5165,72.0,240,240,4.0,42.0
5166,67.0,240,240,4.0,43.0
5167,63.0,240,240,4.0,43.0
5168,75.0,0,480,1.0,48.0
5169,84.0,0,240,3.0,43.0
5170,60.0,240,240,4.0,43.0
5171,91.0,0,240,3.0,43.0
5172,68.0,0,600,2.0,62.0
5173,72.0,0,605,2.0,62.0
5174,74.0,240,610,1.0,62.0
5175,75.0,120,120,1.0,61.0
5176,74.0,120,120,1.0,64.0
5177,72.0,120,120,1.0,67.0
5178,74.0,120,120,1.0,70.0
5179,75.0,120,120,1.0,74.0
5180,77.0,120,120,1.0,77.0
5181,79.0,120,120,1.0,80.0
5182,82.0,120,480,1.0,88.0
5183,80.0,480,240,1.0,59.0
5184,65.0,240,1680,5.0,61.0
5185,60.0,240,1927,5.0,61.0
5186,56.0,0,2167,5.0,56.0
5187,53.0,240,2407,5.0,52.0
5188,29.0,240,2647,5.0,49.0
5189,68.0,0,600,2.0,61.0
5190,74.0,240,610,1.0,61.0
5191,71.0,0,622,2.0,61.0
5192,75.0,120,120,1.0,56.0
5193,74.0,120,120,1.0,59.0
5194,72.0,120,120,1.0,62.0
5195,74.0,120,120,1.0,65.0
5196,75.0,120,120,1.0,68.0
5197,77.0,120,120,1.0,71.0
5198,79.0,120,120,1.0,73.0
5199,82.0,120,480,1.0,80.0
5200,80.0,480,240,1.0,60.0
5201,56.0,0,2160,5.0,53.0
5202,53.0,240,2400,5.0,51.0
5203,41.0,1440,2640,5.0,48.0
5204,59.0,240,1927,5.0,55.0
5205,62.0,240,1687,5.0,57.0
5206,87.0,0,480,1.0,72.0
5207,65.0,0,720,5.0,72.0
5208,85.0,480,240,1.0,52.0
5209,61.0,480,720,5.0,72.0
5210,77.0,0,720,2.0,72.0
5211,68.0,0,720,5.0,72.0
5212,73.0,0,720,5.0,72.0
5213,46.0,1440,120,5.0,38.0
5214,47.0,120,120,5.0,40.0
5215,46.0,120,120,5.0,43.0
5216,45.0,120,120,5.0,45.0
5217,46.0,120,120,5.0,47.0
5218,49.0,120,120,5.0,50.0
5219,54.0,120,120,5.0,52.0
5220,58.0,120,120,5.0,54.0
5221,65.0,0,120,2.0,56.0
5222,66.0,120,120,2.0,46.0
5223,65.0,120,120,2.0,48.0
5224,64.0,120,120,2.0,50.0
5225,75.0,0,480,1.0,56.0
5226,65.0,120,120,2.0,52.0
5227,73.0,0,240,1.0,52.0
5228,68.0,120,120,2.0,53.0
5229,61.0,120,720,5.0,60.0
5230,59.0,0,720,5.0,60.0
5231,71.0,120,120,2.0,55.0
5232,73.0,120,120,2.0,57.0
5233,58.0,0,120,5.0,51.0
5234,59.0,120,120,5.0,53.0
5235,58.0,120,120,5.0,55.0
5236,87.0,0,480,1.0,65.0
5237,57.0,120,120,5.0,57.0
5238,58.0,0,120,5.0,59.0
5239,85.0,120,240,1.0,61.0
5240,78.0,120,720,2.0,65.0
5241,61.0,120,120,5.0,61.0
5242,66.0,120,120,5.0,62.0
5243,70.0,120,120,5.0,64.0
5244,77.0,0,120,2.0,70.0
5245,78.0,120,120,2.0,58.0
5246,77.0,120,120,2.0,60.0
5247,76.0,120,120,2.0,62.0
5248,87.0,0,480,1.0,70.0
5249,77.0,0,120,2.0,65.0
5250,85.0,120,240,1.0,65.0
5251,80.0,120,120,2.0,67.0
5252,73.0,0,720,5.0,70.0
5253,71.0,120,720,5.0,70.0
5254,83.0,120,120,2.0,69.0
5255,85.0,120,120,2.0,71.0
5256,83.0,120,120,5.0,67.0
5257,80.0,120,120,5.0,68.0
5258,77.0,120,120,5.0,70.0
5259,73.0,120,120,5.0,71.0
5260,99.0,0,480,1.0,77.0
5261,71.0,120,120,5.0,72.0
5262,89.0,0,720,2.0,77.0
5263,68.0,120,120,5.0,73.0
5264,65.0,120,120,5.0,76.0
5265,59.0,120,120,5.0,79.0
5266,97.0,0,720,1.0,77.0
5267,96.0,240,240,1.0,74.0
5268,95.0,240,240,1.0,70.0
5269,94.0,240,240,1.0,67.0
5270,93.0,0,240,1.0,64.0
5271,92.0,240,240,1.0,61.0
5272,91.0,240,240,1.0,57.0
5273,90.0,240,240,1.0,54.0
5274,56.0,240,960,5.0,64.0
5275,65.0,0,960,5.0,64.0
5276,89.0,240,240,1.0,52.0
5277,88.0,240,240,1.0,51.0
5278,87.0,240,240,1.0,54.0
5279,55.0,0,960,5.0,52.0
5280,86.0,240,240,1.0,57.0
5281,67.0,0,960,5.0,52.0
5282,85.0,0,240,1.0,60.0
5283,84.0,240,240,1.0,63.0
5284,83.0,240,240,1.0,66.0
5285,82.0,240,240,1.0,68.0
5286,81.0,240,240,1.0,72.0
5287,80.0,240,240,1.0,68.0
5288,79.0,240,240,1.0,63.0
5289,68.0,240,1920,5.0,60.0
5290,53.0,0,1920,5.0,60.0
5291,78.0,240,240,1.0,59.0
5292,77.0,0,240,1.0,54.0
5293,76.0,240,240,1.0,50.0
5294,75.0,240,240,1.0,46.0
5295,56.0,240,960,5.0,54.0
5296,65.0,0,960,5.0,54.0
5297,74.0,240,240,1.0,41.0
5298,60.0,120,6705,5.0,82.0
5299,63.0,240,960,5.0,45.0
5300,75.0,480,480,1.0,41.0
5301,55.0,0,960,5.0,45.0
5302,78.0,480,480,1.0,45.0
5303,84.0,480,480,1.0,39.0
5304,80.0,480,480,1.0,42.0
5305,68.0,0,480,2.0,42.0
5306,62.0,480,960,5.0,37.0
5307,55.0,0,960,5.0,37.0
5308,59.0,0,960,5.0,37.0
5309,67.0,0,480,2.0,37.0
5310,79.0,480,480,1.0,37.0
5311,59.0,0,480,2.0,32.0
5312,71.0,480,480,1.0,32.0
5313,80.0,240,0,2.0,31.0
5314,72.0,240,240,4.0,30.0
5315,84.0,0,960,1.0,32.0
5316,72.0,240,240,4.0,33.0
5317,60.0,240,240,4.0,36.0
5318,79.0,0,480,2.0,34.0
5319,82.0,240,480,1.0,34.0
5320,70.0,0,480,5.0,34.0
5321,67.0,0,480,5.0,34.0
5322,80.0,240,480,2.0,37.0
5323,72.0,0,480,5.0,37.0
5324,60.0,240,240,4.0,39.0
5325,68.0,0,480,5.0,37.0
5326,84.0,0,480,1.0,37.0
5327,48.0,480,1920,5.0,32.0
5328,60.0,0,1920,5.0,32.0
5329,60.0,240,240,4.0,39.0
5330,70.0,0,480,5.0,42.0
5331,73.0,0,487,5.0,42.0
5332,82.0,240,720,2.0,42.0
5333,85.0,0,720,1.0,42.0
5334,60.0,0,240,4.0,38.0
5335,67.0,240,480,5.0,39.0
5336,79.0,240,240,2.0,38.0
5337,82.0,0,240,1.0,38.0
5338,70.0,0,480,5.0,39.0
5339,60.0,240,240,4.0,38.0
5340,76.0,0,480,2.0,38.0
5341,64.0,0,480,5.0,38.0
5342,67.0,0,480,5.0,38.0
5343,79.0,240,480,1.0,38.0
5344,77.0,0,480,2.0,37.0
5345,65.0,0,480,5.0,37.0
5346,60.0,240,240,4.0,37.0
5347,68.0,240,480,5.0,37.0
5348,80.0,0,480,1.0,37.0
5349,79.0,240,480,2.0,40.0
5350,60.0,240,240,4.0,36.0
5351,67.0,0,480,5.0,40.0
5352,70.0,0,480,5.0,40.0
5353,82.0,0,480,1.0,40.0
5354,65.0,0,480,5.0,36.0
5355,60.0,240,240,4.0,35.0
5356,68.0,0,480,5.0,36.0
5357,80.0,0,480,1.0,36.0
5358,77.0,240,480,2.0,36.0
5359,63.0,240,480,5.0,35.0
5360,67.0,0,480,5.0,35.0
5361,75.0,0,480,2.0,35.0
5362,60.0,240,240,4.0,35.0
5363,79.0,0,480,1.0,35.0
5364,77.0,0,480,1.0,34.0
5365,60.0,240,240,4.0,34.0
5366,73.0,0,480,2.0,34.0
5367,61.0,0,480,5.0,34.0
5368,65.0,240,480,5.0,34.0
5369,60.0,240,240,4.0,34.0
5370,64.0,0,480,5.0,36.0
5371,72.0,0,720,2.0,36.0
5372,76.0,240,727,1.0,36.0
5373,62.0,0,480,5.0,33.0
5374,65.0,240,480,5.0,33.0
5375,60.0,0,240,4.0,31.0
5376,77.0,240,247,1.0,31.0
5377,74.0,0,247,2.0,31.0
5378,60.0,240,172,4.0,28.0
5379,76.0,0,420,2.0,30.0
5380,67.0,0,420,5.0,30.0
5381,79.0,0,420,1.0,30.0
5382,64.0,240,420,5.0,30.0
5383,72.0,0,480,2.0,44.0
5384,84.0,240,480,1.0,44.0
5385,49.0,420,60,5.0,47.0
5386,61.0,0,240,5.0,49.0
5387,59.0,480,120,5.0,46.0
5388,61.0,240,120,5.0,47.0
5389,73.0,60,960,2.0,49.0
5390,85.0,0,960,1.0,49.0
5391,62.0,0,240,5.0,48.0
5392,59.0,240,120,5.0,50.0
5393,80.0,240,480,2.0,48.0
5394,83.0,0,480,1.0,48.0
5395,56.0,240,120,5.0,51.0
5396,57.0,240,120,5.0,53.0
5397,85.0,0,480,1.0,51.0
5398,81.0,0,480,2.0,51.0
5399,59.0,0,240,5.0,57.0
5400,56.0,240,120,5.0,53.0
5401,53.0,240,120,5.0,50.0
5402,83.0,240,720,2.0,57.0
5403,86.0,0,720,1.0,57.0
5404,54.0,0,120,5.0,48.0
5405,80.0,240,240,2.0,48.0
5406,83.0,0,240,1.0,48.0
5407,56.0,0,120,5.0,46.0
5408,80.0,240,240,1.0,46.0
5409,77.0,0,240,2.0,46.0
5410,53.0,240,120,5.0,44.0
5411,73.0,0,1440,2.0,57.0
5412,49.0,0,120,5.0,56.0
5413,85.0,240,240,1.0,56.0
5414,73.0,0,240,2.0,56.0
5415,83.0,0,240,2.0,56.0
5416,54.0,420,60,5.0,60.0
5417,66.0,0,240,5.0,62.0
5418,64.0,480,120,5.0,56.0
5419,66.0,240,120,5.0,58.0
5420,90.0,60,960,1.0,62.0
5421,82.0,0,960,2.0,62.0
5422,67.0,0,240,5.0,59.0
5423,64.0,240,120,5.0,61.0
5424,85.0,240,480,2.0,59.0
5425,88.0,0,480,1.0,59.0
5426,61.0,0,120,5.0,62.0
5427,62.0,240,120,5.0,64.0
5428,90.0,240,480,1.0,62.0
5429,78.0,0,0,2.0,72.0
5430,86.0,0,480,2.0,62.0
5431,64.0,0,240,5.0,72.0
5432,61.0,240,120,5.0,66.0
5433,58.0,240,120,5.0,65.0
5434,91.0,0,720,1.0,72.0
5435,88.0,240,720,2.0,72.0
5436,59.0,240,120,5.0,63.0
5437,88.0,0,240,1.0,63.0
5438,85.0,0,240,2.0,63.0
5439,61.0,0,120,5.0,62.0
5440,58.0,240,120,5.0,60.0
5441,82.0,0,480,2.0,62.0
5442,85.0,240,480,1.0,62.0
5443,54.0,240,120,5.0,69.0
5444,90.0,0,480,1.0,69.0
5445,88.0,0,480,2.0,69.0
5446,78.0,0,480,2.0,69.0
5447,87.0,0,240,3.0,81.0
5448,93.0,0,240,3.0,81.0
5449,83.0,0,240,2.0,81.0
5450,95.0,480,240,1.0,81.0
5451,81.0,480,120,2.0,74.0
5452,93.0,0,120,1.0,74.0
5453,95.0,240,120,1.0,75.0
5454,47.0,0,960,5.0,81.0
5455,59.0,0,960,5.0,81.0
5456,96.0,0,240,1.0,75.0
5457,84.0,240,240,2.0,75.0
5458,93.0,240,120,1.0,75.0
5459,81.0,0,120,2.0,75.0
5460,57.0,0,480,5.0,75.0
5461,45.0,0,480,5.0,75.0
5462,78.0,0,120,2.0,76.0
5463,90.0,240,120,1.0,76.0
5464,79.0,0,120,2.0,76.0
5465,91.0,240,120,1.0,76.0
5466,47.0,0,480,5.0,76.0
5467,59.0,0,480,5.0,76.0
5468,93.0,0,240,1.0,86.0
5469,81.0,0,240,2.0,86.0
5470,90.0,240,120,1.0,77.0
5471,78.0,0,120,2.0,77.0
5472,84.0,240,120,1.0,77.0
5473,72.0,0,120,2.0,77.0
5474,48.0,240,720,5.0,86.0
5475,60.0,0,720,5.0,86.0
5476,86.0,240,120,1.0,77.0
5477,74.0,0,120,2.0,77.0
5478,45.0,0,240,5.0,77.0
5479,57.0,0,240,5.0,77.0
5480,75.0,240,240,2.0,78.0
5481,42.0,0,240,5.0,78.0
5482,54.0,0,240,5.0,78.0
5483,87.0,0,240,1.0,78.0
5484,72.0,240,120,2.0,78.0
5485,84.0,0,120,1.0,78.0
5486,81.0,0,120,1.0,78.0
5487,69.0,240,120,2.0,78.0
5488,55.0,0,240,5.0,78.0
5489,43.0,0,240,5.0,78.0
5490,71.0,0,120,2.0,79.0
5491,83.0,240,120,1.0,79.0
5492,84.0,240,240,1.0,79.0
5493,72.0,0,240,2.0,79.0
5494,81.0,240,120,1.0,79.0
5495,69.0,0,120,2.0,79.0
5496,78.0,0,120,1.0,80.0
5497,66.0,240,120,2.0,80.0
5498,45.0,0,720,5.0,79.0
5499,57.0,0,720,5.0,79.0
5500,67.0,0,120,2.0,80.0
5501,79.0,240,120,1.0,80.0
5502,42.0,0,240,5.0,80.0
5503,54.0,0,240,5.0,80.0
5504,51.0,0,240,5.0,80.0
5505,81.0,0,240,1.0,80.0
5506,69.0,0,240,2.0,80.0
5507,39.0,240,240,5.0,80.0
5508,78.0,0,120,1.0,80.0
5509,66.0,240,120,2.0,80.0
5510,52.0,240,240,5.0,81.0
5511,40.0,0,240,5.0,81.0
5512,79.0,240,120,1.0,81.0
5513,67.0,0,120,2.0,81.0
5514,73.0,0,120,3.0,81.0
5515,69.0,0,120,3.0,81.0
5516,81.0,240,120,1.0,83.0
5517,69.0,0,120,2.0,83.0
5518,75.0,0,120,3.0,83.0
5519,78.0,0,120,3.0,83.0
5520,47.0,0,480,5.0,82.0
5521,35.0,240,480,5.0,82.0
5522,79.0,0,120,3.0,85.0
5523,76.0,240,120,3.0,85.0
5524,69.0,0,120,2.0,85.0
5525,81.0,0,120,1.0,85.0
5526,37.0,0,480,5.0,84.0
5527,49.0,240,480,5.0,84.0
5528,78.0,0,120,3.0,87.0
5529,75.0,0,120,3.0,87.0
5530,72.0,0,120,2.0,87.0
5531,84.0,240,120,1.0,87.0
5532,33.0,0,480,5.0,86.0
5533,45.0,240,480,5.0,86.0
5534,81.0,240,120,3.0,89.0
5535,85.0,0,120,1.0,89.0
5536,73.0,0,120,2.0,89.0
5537,76.0,0,120,3.0,89.0
5538,43.0,0,360,5.0,88.0
5539,31.0,240,360,5.0,88.0
5540,53.0,960,0,5.0,87.0
5541,82.0,0,960,2.0,99.0
5542,58.0,0,960,4.0,99.0
5543,61.0,0,960,4.0,99.0
5544,64.0,0,960,4.0,99.0
5545,91.0,60,960,3.0,99.0
5546,85.0,0,960,3.0,99.0
5547,94.0,0,960,1.0,99.0
5548,41.0,60,1500,5.0,95.0
5549,89.0,0,480,3.0,87.0
5550,81.0,0,480,2.0,87.0
5551,86.0,0,480,3.0,87.0
5552,29.0,120,1560,5.0,92.0
5553,57.0,0,480,4.0,87.0
5554,62.0,0,480,4.0,87.0
5555,65.0,0,480,4.0,87.0
5556,93.0,0,480,1.0,87.0
5557,85.0,720,160,1.0,88.0
5558,73.0,0,160,2.0,88.0
5559,41.0,40,1,5.0,100.0
5560,53.0,0,960,5.0,100.0
5561,91.0,0,960,3.0,100.0
5562,58.0,0,960,4.0,100.0
5563,61.0,0,960,4.0,100.0
5564,64.0,0,960,4.0,100.0
5565,85.0,0,960,3.0,100.0
5566,94.0,40,960,1.0,100.0
5567,82.0,0,960,2.0,100.0
5568,93.0,0,480,1.0,90.0
5569,53.0,0,480,5.0,90.0
5570,89.0,0,480,3.0,90.0
5571,86.0,0,480,3.0,90.0
5572,81.0,0,480,2.0,90.0
5573,57.0,960,480,4.0,90.0
5574,62.0,0,480,4.0,90.0
5575,65.0,0,480,4.0,90.0
5576,29.0,160,1527,5.0,100.0
5577,73.0,0,155,2.0,91.0
5578,85.0,720,160,1.0,91.0
5579,41.0,40,1,5.0,96.0
5580,29.0,160,95,5.0,96.0
5581,95.0,0,960,1.0,96.0
5582,83.0,0,960,2.0,96.0
5583,86.0,0,960,3.0,96.0
5584,92.0,0,960,3.0,96.0
5585,59.0,0,960,3.0,96.0
5586,40.0,0,960,5.0,96.0
5587,28.0,40,960,5.0,96.0
5588,61.0,0,960,3.0,100.0
5589,97.0,0,960,1.0,100.0
5590,88.0,0,960,3.0,100.0
5591,93.0,0,0,3.0,104.0
5592,45.0,0,960,5.0,100.0
5593,33.0,0,960,5.0,100.0
5594,40.0,960,960,4.0,100.0
5595,85.0,0,960,2.0,100.0
5596,98.0,0,960,1.0,104.0
5597,93.0,0,0,3.0,109.0
5598,62.0,0,960,3.0,104.0
5599,41.0,0,960,5.0,104.0
5600,29.0,0,960,5.0,104.0
5601,86.0,960,960,2.0,104.0
5602,38.0,0,960,4.0,104.0
5603,89.0,0,960,2.0,109.0
5604,33.0,0,960,4.0,109.0
5605,101.0,960,960,1.0,109.0
5606,26.0,0,960,5.0,109.0
5607,38.0,0,960,5.0,109.0
5608,65.0,0,960,3.0,109.0
5609,96.0,960,720,1.0,113.0
5610,84.0,0,0,2.0,97.0
5611,91.0,0,720,3.0,113.0
5612,88.0,0,720,3.0,113.0
5613,88.0,720,120,1.0,97.0
5614,76.0,0,120,3.0,97.0
5615,64.0,0,960,3.0,113.0
5616,43.0,0,960,5.0,113.0
5617,31.0,0,960,5.0,113.0
5618,84.0,0,360,2.0,107.0
5619,76.0,0,360,3.0,107.0
5620,88.0,0,360,1.0,107.0
5621,89.0,0,120,1.0,98.0
5622,77.0,480,120,3.0,98.0
5623,86.0,0,120,2.0,98.0
5624,91.0,0,120,1.0,98.0
5625,88.0,240,120,2.0,98.0
5626,79.0,0,120,3.0,98.0
5627,52.0,0,875,3.0,107.0
5628,60.0,240,875,4.0,107.0
5629,43.0,0,880,5.0,107.0
5630,59.0,0,360,4.0,108.0
5631,93.0,0,360,1.0,108.0
5632,81.0,0,360,3.0,108.0
5633,89.0,40,360,2.0,108.0
5634,60.0,0,120,4.0,99.0
5635,93.0,480,360,1.0,99.0
5636,62.0,240,120,4.0,100.0
5637,89.0,0,360,2.0,99.0
5638,81.0,0,360,3.0,99.0
5639,50.0,40,915,3.0,108.0
5640,43.0,160,955,5.0,108.0
5641,64.0,40,360,4.0,108.0
5642,91.0,0,360,1.0,108.0
5643,88.0,0,360,2.0,108.0
5644,79.0,0,360,3.0,108.0
5645,60.0,480,120,4.0,101.0
5646,88.0,0,120,2.0,101.0
5647,96.0,0,120,1.0,101.0
5648,84.0,0,120,3.0,101.0
5649,98.0,0,120,1.0,101.0
5650,86.0,0,120,3.0,101.0
5651,59.0,240,120,4.0,101.0
5652,91.0,0,120,2.0,101.0
5653,52.0,40,910,3.0,108.0
5654,43.0,160,0,5.0,109.0
5655,100.0,0,360,1.0,109.0
5656,57.0,0,360,4.0,109.0
5657,97.0,40,360,2.0,109.0
5658,88.0,0,360,3.0,109.0
5659,61.0,480,120,4.0,97.0
5660,100.0,0,360,1.0,97.0
5661,64.0,240,120,4.0,97.0
5662,88.0,0,360,3.0,97.0
5663,97.0,0,360,2.0,97.0
5664,49.0,40,910,3.0,109.0
5665,43.0,160,0,5.0,106.0
5666,81.0,0,360,3.0,106.0
5667,93.0,40,360,1.0,106.0
5668,89.0,0,360,2.0,106.0
5669,65.0,0,360,4.0,106.0
5670,95.0,0,120,2.0,96.0
5671,86.0,480,120,3.0,96.0
5672,98.0,0,120,1.0,96.0
5673,62.0,0,120,4.0,96.0
5674,100.0,0,120,1.0,96.0
5675,96.0,0,120,2.0,96.0
5676,60.0,240,120,4.0,96.0
5677,88.0,0,120,3.0,96.0
5678,50.0,40,920,3.0,106.0
5679,43.0,160,0,5.0,107.0
5680,59.0,40,360,4.0,107.0
5681,101.0,0,360,1.0,107.0
5682,98.0,0,360,2.0,107.0
5683,89.0,0,360,3.0,107.0
5684,98.0,0,120,1.0,95.0
5685,95.0,0,120,2.0,95.0
5686,86.0,0,120,3.0,95.0
5687,62.0,480,120,4.0,95.0
5688,96.0,0,120,1.0,95.0
5689,63.0,240,120,4.0,95.0
5690,84.0,0,120,3.0,95.0
5691,93.0,0,120,2.0,95.0
5692,43.0,160,0,5.0,105.0
5693,50.0,40,920,3.0,107.0
5694,83.0,40,1,3.0,105.0
5695,95.0,0,360,1.0,105.0
5696,64.0,0,360,4.0,105.0
5697,91.0,0,360,2.0,105.0
5698,93.0,0,120,2.0,94.0
5699,60.0,0,120,4.0,94.0
5700,96.0,0,120,1.0,94.0
5701,84.0,480,120,3.0,94.0
5702,59.0,0,120,4.0,94.0
5703,86.0,0,120,3.0,94.0
5704,98.0,240,120,1.0,94.0
5705,95.0,0,120,2.0,94.0
5706,52.0,40,915,3.0,105.0
5707,43.0,160,0,5.0,103.0
5708,57.0,40,360,4.0,103.0
5709,88.0,0,360,3.0,103.0
5710,100.0,0,360,1.0,103.0
5711,96.0,0,360,2.0,103.0
5712,96.0,0,120,1.0,93.0
5713,60.0,480,120,4.0,93.0
5714,84.0,0,120,3.0,93.0
5715,93.0,0,120,2.0,93.0
5716,95.0,0,120,1.0,93.0
5717,83.0,0,120,3.0,93.0
5718,61.0,0,120,4.0,93.0
5719,91.0,240,120,2.0,93.0
5720,43.0,160,0,5.0,101.0
5721,48.0,40,925,3.0,103.0
5722,89.0,40,360,2.0,101.0
5723,93.0,0,360,1.0,101.0
5724,62.0,0,360,4.0,101.0
5725,81.0,0,360,3.0,101.0
5726,95.0,0,120,1.0,92.0
5727,83.0,0,120,3.0,92.0
5728,91.0,0,120,2.0,92.0
5729,59.0,480,120,4.0,92.0
5730,84.0,0,120,3.0,92.0
5731,57.0,0,120,4.0,92.0
5732,93.0,0,120,2.0,92.0
5733,96.0,240,120,1.0,92.0
5734,50.0,40,915,3.0,101.0
5735,43.0,160,0,5.0,101.0
5736,86.0,0,360,3.0,101.0
5737,95.0,0,360,2.0,101.0
5738,55.0,40,360,4.0,101.0
5739,98.0,0,360,1.0,101.0
5740,83.0,0,120,3.0,91.0
5741,57.0,0,120,4.0,91.0
5742,95.0,0,120,1.0,91.0
5743,91.0,480,120,2.0,91.0
5744,81.0,240,120,3.0,91.0
5745,59.0,0,120,4.0,91.0
5746,89.0,0,120,2.0,91.0
5747,93.0,0,120,1.0,91.0
5748,43.0,160,0,5.0,100.0
5749,47.0,40,920,3.0,101.0
5750,91.0,40,360,1.0,100.0
5751,60.0,0,360,4.0,100.0
5752,79.0,0,360,3.0,100.0
5753,86.0,0,360,2.0,100.0
5754,77.0,480,120,3.0,90.0
5755,62.0,0,120,4.0,90.0
5756,86.0,0,120,2.0,90.0
5757,89.0,0,120,1.0,90.0
5758,88.0,0,120,1.0,90.0
5759,84.0,0,120,2.0,90.0
5760,76.0,0,120,3.0,90.0
5761,64.0,240,120,4.0,90.0
5762,48.0,40,915,3.0,100.0
5763,43.0,160,0,5.0,98.0
5764,48.0,40,360,3.0,98.0
5765,54.0,0,360,3.0,98.0
5766,81.0,0,360,3.0,98.0
5767,87.0,0,360,1.0,98.0
5768,66.0,40,360,4.0,98.0
5769,84.0,0,360,3.0,98.0
5770,78.0,0,360,3.0,98.0
5771,75.0,0,360,2.0,98.0
5772,72.0,0,865,2.0,107.0
5773,48.0,40,915,3.0,107.0
5774,75.0,0,875,3.0,107.0
5775,63.0,0,880,4.0,107.0
5776,81.0,0,880,3.0,107.0
5777,54.0,40,880,3.0,107.0
5778,84.0,0,880,1.0,107.0
5779,43.0,880,0,5.0,101.0
5780,78.0,0,880,3.0,107.0
5781,48.0,40,360,3.0,101.0
5782,69.0,0,360,2.0,101.0
5783,81.0,0,360,1.0,101.0
5784,54.0,0,360,3.0,101.0
5785,75.0,0,360,3.0,101.0
5786,72.0,0,360,3.0,101.0
5787,60.0,0,360,4.0,101.0
5788,78.0,40,360,3.0,101.0
5789,43.0,400,360,5.0,97.0
5790,50.0,40,360,3.0,97.0
5791,67.0,0,360,2.0,97.0
5792,74.0,0,360,3.0,97.0
5793,55.0,0,360,3.0,97.0
5794,59.0,0,360,4.0,97.0
5795,79.0,40,360,1.0,97.0
5796,71.0,0,360,3.0,97.0
5797,77.0,0,360,3.0,97.0
5798,67.0,0,160,2.0,90.0
5799,43.0,0,234,5.0,90.0
5800,47.0,480,234,5.0,90.0
5801,79.0,160,160,2.0,90.0
5802,47.0,40,78,5.0,91.0
5803,77.0,160,160,2.0,91.0
5804,79.0,0,160,2.0,91.0
5805,82.0,120,160,2.0,91.0
5806,89.0,160,160,2.0,91.0
5807,49.0,0,480,5.0,91.0
5808,88.0,160,160,2.0,91.0
5809,70.0,0,160,2.0,92.0
5810,67.0,0,160,2.0,92.0
5811,77.0,160,160,2.0,92.0
5812,76.0,160,160,2.0,92.0
5813,61.0,160,480,5.0,92.0
5814,69.0,0,160,2.0,92.0
5815,65.0,0,160,2.0,92.0
5816,62.0,160,240,5.0,92.0
5817,43.0,0,1200,5.0,91.0
5818,76.0,160,160,2.0,93.0
5819,74.0,160,160,2.0,93.0
5820,77.0,0,160,2.0,93.0
5821,81.0,0,160,2.0,93.0
5822,50.0,160,234,5.0,93.0
5823,88.0,160,160,2.0,93.0
5824,50.0,40,78,5.0,94.0
5825,86.0,160,160,2.0,94.0
5826,81.0,120,160,2.0,94.0
5827,84.0,0,160,2.0,94.0
5828,91.0,160,160,2.0,94.0
5829,90.0,160,160,2.0,94.0
5830,51.0,0,480,5.0,94.0
5831,65.0,0,160,2.0,94.0
5832,69.0,160,160,2.0,94.0
5833,79.0,160,160,2.0,95.0
5834,78.0,160,160,2.0,95.0
5835,63.0,0,480,5.0,94.0
5836,67.0,0,160,2.0,95.0
5837,72.0,160,160,2.0,95.0
5838,64.0,0,240,5.0,95.0
5839,43.0,0,1200,5.0,94.0
5840,81.0,160,160,2.0,95.0
5841,79.0,0,0,2.0,96.0
5842,84.0,0,160,2.0,96.0
5843,52.0,160,234,5.0,96.0
5844,93.0,160,160,2.0,96.0
5845,52.0,40,78,5.0,96.0
5846,91.0,160,160,2.0,96.0
5847,86.0,120,160,2.0,97.0
5848,84.0,0,160,2.0,97.0
5849,95.0,160,160,2.0,97.0
5850,93.0,160,160,2.0,97.0
5851,53.0,0,480,5.0,97.0
5852,72.0,0,160,2.0,97.0
5853,74.0,0,160,2.0,97.0
5854,62.0,160,234,5.0,97.0
5855,83.0,160,160,2.0,98.0
5856,53.0,40,78,5.0,98.0
5857,43.0,120,0,5.0,98.0
5858,81.0,160,160,2.0,98.0
5859,72.0,0,160,2.0,98.0
5860,74.0,0,160,2.0,98.0
5861,83.0,160,160,2.0,98.0
5862,54.0,0,480,5.0,98.0
5863,81.0,160,160,2.0,99.0
5864,84.0,0,160,2.0,99.0
5865,86.0,0,160,2.0,99.0
5866,66.0,160,234,5.0,99.0
5867,95.0,160,160,2.0,99.0
5868,54.0,40,78,5.0,99.0
5869,93.0,160,160,2.0,99.0
5870,95.0,120,160,2.0,99.0
5871,89.0,0,160,2.0,99.0
5872,100.0,160,160,2.0,100.0
5873,50.0,0,480,4.0,99.0
5874,43.0,0,480,5.0,99.0
5875,53.0,0,480,5.0,99.0
5876,55.0,160,0,5.0,100.0
5877,98.0,160,160,2.0,100.0
5878,83.0,0,160,2.0,100.0
5879,77.0,0,160,2.0,100.0
5880,88.0,160,160,2.0,100.0
5881,67.0,0,480,5.0,100.0
5882,62.0,0,480,4.0,100.0
5883,65.0,0,480,4.0,100.0
5884,86.0,160,160,2.0,101.0
5885,31.0,160,160,5.0,101.0
5886,43.0,160,160,4.0,101.0
5887,76.0,0,480,3.0,101.0
5888,43.0,160,160,4.0,101.0
5889,72.0,0,480,2.0,101.0
5890,84.0,0,480,1.0,101.0
5891,55.0,160,160,4.0,102.0
5892,72.0,0,234,1.0,102.0
5893,60.0,0,234,2.0,102.0
5894,67.0,0,234,3.0,102.0
5895,54.0,160,160,4.0,102.0
5896,67.0,0,78,3.0,102.0
5897,60.0,40,78,2.0,102.0
5898,72.0,0,78,1.0,102.0
5899,57.0,160,160,4.0,102.0
5900,55.0,0,160,4.0,102.0
5901,52.0,160,160,4.0,103.0
5902,73.0,120,480,1.0,102.0
5903,61.0,0,480,2.0,102.0
5904,46.0,160,160,4.0,103.0
5905,70.0,0,480,3.0,102.0
5906,64.0,0,480,3.0,102.0
5907,43.0,0,160,4.0,103.0
5908,39.0,160,160,4.0,103.0
5909,34.0,160,160,4.0,103.0
5910,76.0,0,480,3.0,103.0
5911,82.0,0,0,3.0,104.0
5912,73.0,0,480,2.0,103.0
5913,85.0,160,480,1.0,103.0
5914,29.0,160,160,5.0,104.0
5915,41.0,160,0,4.0,104.0
5916,74.0,0,480,2.0,104.0
5917,86.0,0,480,1.0,104.0
5918,77.0,0,480,3.0,104.0
5919,52.0,0,160,4.0,104.0
5920,70.0,0,234,3.0,104.0
5921,74.0,160,234,1.0,104.0
5922,62.0,0,234,2.0,104.0
5923,55.0,160,160,4.0,105.0
5924,70.0,0,82,3.0,105.0
5925,74.0,0,82,1.0,105.0
5926,62.0,40,90,2.0,105.0
5927,53.0,160,160,4.0,105.0
5928,52.0,0,160,4.0,105.0
5929,49.0,160,160,4.0,105.0
5930,70.0,0,480,3.0,105.0
5931,73.0,120,480,3.0,105.0
5932,76.0,0,480,1.0,105.0
5933,46.0,160,160,4.0,106.0
5934,64.0,0,480,2.0,105.0
5935,43.0,0,160,4.0,106.0
5936,40.0,160,160,4.0,106.0
5937,37.0,160,160,4.0,106.0
5938,88.0,0,480,1.0,106.0
5939,82.0,0,480,3.0,106.0
5940,85.0,160,480,3.0,106.0
5941,76.0,0,480,2.0,106.0
5942,26.0,0,160,5.0,107.0
5943,38.0,160,160,4.0,107.0
5944,38.0,160,160,4.0,107.0
5945,81.0,0,480,3.0,107.0
5946,89.0,160,480,1.0,107.0
5947,77.0,0,480,2.0,107.0
5948,86.0,0,480,3.0,107.0
5949,50.0,0,160,4.0,107.0
5950,69.0,0,240,2.0,107.0
5951,65.0,0,240,2.0,107.0
5952,77.0,0,240,1.0,107.0
5953,74.0,160,240,2.0,107.0
5954,49.0,160,160,4.0,108.0
5955,77.0,0,80,1.0,107.0
5956,65.0,0,80,2.0,107.0
5957,74.0,40,80,2.0,107.0
5958,69.0,0,80,2.0,107.0
5959,52.0,160,160,4.0,108.0
5960,50.0,0,160,4.0,108.0
5961,45.0,160,160,4.0,108.0
5962,69.0,0,480,2.0,108.0
5963,72.0,0,480,2.0,108.0
5964,77.0,120,480,2.0,108.0
5965,41.0,160,160,4.0,108.0
5966,81.0,0,480,1.0,108.0
5967,38.0,0,160,4.0,109.0
5968,33.0,160,160,4.0,109.0
5969,29.0,160,160,4.0,109.0
5970,31.0,160,160,5.0,109.0
5971,43.0,160,0,4.0,110.0
5972,93.0,0,960,1.0,109.0
5973,84.0,0,960,3.0,109.0
5974,89.0,0,0,3.0,110.0
5975,81.0,0,960,2.0,109.0
5976,55.0,160,160,4.0,110.0
5977,54.0,160,160,4.0,110.0
5978,55.0,160,160,4.0,111.0
5979,43.0,160,160,5.0,111.0
5980,55.0,160,0,4.0,111.0
5981,81.0,0,960,2.0,110.0
5982,93.0,0,960,1.0,110.0
5983,84.0,0,960,3.0,110.0
5984,67.0,0,160,4.0,112.0
5985,66.0,160,160,4.0,112.0
5986,67.0,160,160,4.0,112.0
5987,67.0,160,160,5.0,112.0
5988,64.0,160,160,5.0,112.0
5989,83.0,0,960,3.0,112.0
5990,91.0,0,960,1.0,112.0
5991,79.0,160,960,2.0,112.0
5992,88.0,0,960,3.0,112.0
5993,59.0,160,160,5.0,113.0
5994,55.0,0,160,5.0,113.0
5995,50.0,160,160,5.0,113.0
5996,47.0,160,160,5.0,113.0
5997,43.0,160,160,5.0,114.0
5998,38.0,160,160,5.0,114.0
5999,77.0,0,960,2.0,113.0
6000,89.0,0,960,1.0,113.0
6001,83.0,0,960,3.0,113.0
6002,35.0,160,160,5.0,114.0
6003,86.0,160,960,3.0,113.0
6004,31.0,0,160,5.0,114.0
6005,38.0,160,160,5.0,115.0
6006,77.0,0,480,3.0,114.0
6007,79.0,160,0,3.0,115.0
6008,43.0,160,160,5.0,115.0
6009,71.0,160,480,2.0,114.0
6010,83.0,0,480,1.0,114.0
6011,36.0,0,480,5.0,125.0
6012,72.0,0,480,2.0,115.0
6013,84.0,0,480,1.0,115.0
6014,76.0,0,480,3.0,115.0
6015,76.0,0,120,1.0,109.0
6016,72.0,0,120,3.0,109.0
6017,48.0,0,120,5.0,109.0
6018,64.0,0,120,2.0,109.0
6019,55.0,720,120,4.0,109.0
6020,60.0,0,120,4.0,109.0
6021,72.0,0,360,3.0,115.0
6022,48.0,0,360,5.0,115.0
6023,60.0,0,360,4.0,115.0
6024,76.0,0,360,1.0,115.0
6025,55.0,0,360,4.0,115.0
6026,64.0,240,360,2.0,115.0
6027,72.0,0,120,3.0,113.0
6028,62.0,480,120,4.0,113.0
6029,50.0,0,120,5.0,113.0
6030,77.0,0,120,1.0,113.0
6031,65.0,0,120,2.0,113.0
6032,52.0,0,120,5.0,116.0
6033,67.0,240,120,2.0,116.0
6034,64.0,0,120,4.0,116.0
6035,72.0,0,120,3.0,116.0
6036,79.0,0,120,1.0,116.0
6037,69.0,0,156,2.0,121.0
6038,65.0,240,156,4.0,121.0
6039,72.0,0,156,3.0,121.0
6040,81.0,0,156,1.0,121.0
6041,53.0,0,156,5.0,121.0
6042,60.0,0,156,4.0,121.0
6043,72.0,0,156,3.0,110.0
6044,64.0,480,156,4.0,110.0
6045,79.0,0,156,1.0,110.0
6046,67.0,0,156,2.0,110.0
6047,52.0,0,156,5.0,110.0
6048,60.0,0,156,4.0,110.0
6049,57.0,0,180,2.0,117.0
6050,52.0,0,180,2.0,117.0
6051,60.0,1200,180,1.0,117.0
6052,33.0,0,180,5.0,119.0
6053,45.0,0,180,4.0,119.0
6054,60.0,0,960,1.0,120.0
6055,57.0,0,960,2.0,120.0
6056,33.0,0,960,5.0,121.0
6057,52.0,0,960,2.0,120.0
6058,45.0,240,960,4.0,121.0
6059,60.0,0,480,2.0,117.0
6060,29.0,0,480,5.0,117.0
6061,57.0,0,0,2.0,118.0
6062,62.0,0,480,1.0,117.0
6063,41.0,960,480,4.0,117.0
6064,60.0,480,480,2.0,118.0
6065,64.0,0,480,1.0,118.0
6066,40.0,0,480,4.0,118.0
6067,28.0,0,480,5.0,118.0
6068,26.0,0,960,5.0,120.0
6069,38.0,0,960,4.0,120.0
6070,57.0,480,960,2.0,120.0
6071,60.0,0,960,2.0,120.0
6072,38.0,960,960,4.0,122.0
6073,43.0,0,960,4.0,122.0
6074,65.0,0,1920,1.0,120.0
6075,55.0,0,0,2.0,124.0
6076,59.0,0,960,2.0,122.0
6077,31.0,0,960,5.0,122.0
6078,24.0,960,1920,5.0,125.0
6079,36.0,0,1920,4.0,125.0
6080,48.0,0,1920,4.0,125.0
6081,64.0,0,1920,1.0,124.0
6082,60.0,0,1920,2.0,124.0
6083,55.0,3600,192,4.0,54.0
6084,60.0,240,192,4.0,56.0
6085,62.0,240,192,4.0,54.0
6086,63.0,240,192,4.0,52.0
6087,60.0,240,192,4.0,50.0
6088,59.0,240,192,4.0,48.0
6089,60.0,240,192,4.0,44.0
6090,62.0,240,1327,4.0,40.0
6091,60.0,1440,360,1.0,33.0
6092,51.0,0,360,4.0,33.0
6093,55.0,0,360,2.0,33.0
6094,48.0,0,360,5.0,33.0
6095,55.0,480,360,4.0,38.0
6096,67.0,0,360,1.0,38.0
6097,60.0,0,360,2.0,38.0
6098,51.0,0,360,5.0,38.0
6099,60.0,480,236,2.0,35.0
6100,55.0,0,240,5.0,35.0
6101,63.0,0,240,1.0,35.0
6102,62.0,0,180,1.0,33.0
6103,53.0,240,240,4.0,33.0
6104,59.0,0,240,2.0,33.0
6105,63.0,180,60,1.0,31.0
6106,43.0,0,240,5.0,33.0
6107,55.0,0,1140,2.0,28.0
6108,48.0,0,1140,5.0,28.0
6109,51.0,0,1143,4.0,28.0
6110,60.0,60,1143,1.0,28.0
6111,55.0,1200,192,4.0,47.0
6112,60.0,240,192,4.0,48.0
6113,62.0,240,192,4.0,46.0
6114,63.0,240,192,4.0,44.0
6115,60.0,240,192,4.0,43.0
6116,59.0,240,192,4.0,41.0
6117,60.0,240,192,4.0,37.0
6118,62.0,240,1327,4.0,32.0
6119,51.0,0,360,4.0,30.0
6120,60.0,0,360,1.0,30.0
6121,48.0,0,360,5.0,30.0
6122,55.0,1440,360,2.0,30.0
6123,60.0,0,360,2.0,34.0
6124,67.0,480,360,1.0,34.0
6125,39.0,0,360,5.0,34.0
6126,48.0,0,367,4.0,28.0
6127,60.0,480,236,2.0,31.0
6128,55.0,0,240,4.0,31.0
6129,63.0,0,240,1.0,31.0
6130,43.0,0,0,5.0,29.0
6131,62.0,0,180,1.0,29.0
6132,53.0,240,240,4.0,29.0
6133,59.0,0,240,2.0,29.0
6134,63.0,180,60,1.0,27.0
6135,60.0,0,1380,1.0,25.0
6136,55.0,0,1383,2.0,25.0
6137,36.0,0,1383,5.0,25.0
6138,51.0,60,1387,4.0,25.0
6139,55.0,0,240,2.0,32.0
6140,48.0,0,240,5.0,32.0
6141,60.0,0,240,1.0,32.0
6142,51.0,1440,240,4.0,32.0
6143,53.0,0,120,4.0,33.0
6144,55.0,0,120,2.0,33.0
6145,59.0,0,120,1.0,33.0
6146,50.0,240,120,5.0,33.0
6147,48.0,0,120,5.0,34.0
6148,55.0,0,120,2.0,34.0
6149,51.0,120,120,4.0,34.0
6150,60.0,0,120,1.0,34.0
6151,55.0,120,420,2.0,36.0
6152,47.0,0,420,5.0,36.0
6153,62.0,0,427,1.0,36.0
6154,50.0,0,427,4.0,36.0
6155,55.0,0,240,2.0,26.0
6156,48.0,480,240,5.0,26.0
6157,51.0,0,240,4.0,26.0
6158,60.0,0,240,1.0,26.0
6159,53.0,240,120,4.0,28.0
6160,55.0,0,0,2.0,29.0
6161,50.0,0,120,5.0,28.0
6162,59.0,0,120,1.0,28.0
6163,51.0,120,120,4.0,29.0
6164,60.0,0,120,1.0,29.0
6165,48.0,0,120,5.0,29.0
6166,47.0,0,420,5.0,30.0
6167,59.0,0,420,2.0,30.0
6168,50.0,120,427,4.0,30.0
6169,62.0,0,427,1.0,30.0
6170,60.0,0,360,1.0,35.0
6171,51.0,0,360,4.0,35.0
6172,55.0,480,360,2.0,35.0
6173,48.0,0,360,5.0,35.0
6174,58.0,0,192,2.0,40.0
6175,67.0,0,192,1.0,40.0
6176,46.0,0,192,4.0,40.0
6177,39.0,0,192,5.0,40.0
6178,51.0,480,192,4.0,40.0
6179,67.0,0,192,1.0,42.0
6180,51.0,0,192,4.0,42.0
6181,58.0,0,192,2.0,42.0
6182,46.0,0,192,4.0,42.0
6183,39.0,240,192,5.0,42.0
6184,43.0,240,0,5.0,35.0
6185,55.0,0,240,4.0,38.0
6186,63.0,0,240,1.0,38.0
6187,60.0,0,240,2.0,38.0
6188,62.0,0,180,1.0,35.0
6189,59.0,0,240,2.0,35.0
6190,53.0,0,240,4.0,35.0
6191,63.0,180,60,1.0,32.0
6192,60.0,0,1140,1.0,31.0
6193,51.0,60,1140,4.0,31.0
6194,36.0,0,1140,5.0,31.0
6195,55.0,0,1145,2.0,31.0
6196,55.0,0,64,4.0,43.0
6197,55.0,80,64,4.0,44.0
6198,43.0,1200,192,5.0,43.0
6199,55.0,80,64,4.0,46.0
6200,48.0,80,192,5.0,49.0
6201,60.0,120,96,3.0,48.0
6202,50.0,120,192,5.0,47.0
6203,62.0,120,96,3.0,46.0
6204,51.0,120,192,5.0,45.0
6205,63.0,120,96,3.0,44.0
6206,48.0,120,192,5.0,43.0
6207,60.0,120,96,3.0,42.0
6208,47.0,120,192,5.0,45.0
6209,59.0,120,96,3.0,42.0
6210,48.0,120,192,5.0,40.0
6211,60.0,120,96,3.0,39.0
6212,62.0,120,1250,3.0,35.0
6213,55.0,0,2820,4.0,49.0
6214,50.0,120,1380,5.0,37.0
6215,55.0,0,360,2.0,41.0
6216,48.0,0,360,5.0,41.0
6217,60.0,1320,360,1.0,41.0
6218,51.0,0,360,4.0,41.0
6219,60.0,0,360,2.0,46.0
6220,51.0,480,360,5.0,46.0
6221,55.0,0,360,4.0,46.0
6222,67.0,0,360,1.0,46.0
6223,60.0,0,236,2.0,43.0
6224,63.0,0,240,1.0,43.0
6225,43.0,480,240,5.0,43.0
6226,55.0,0,240,4.0,43.0
6227,55.0,0,64,4.0,41.0
6228,55.0,80,64,4.0,42.0
6229,62.0,240,180,1.0,41.0
6230,55.0,80,64,4.0,43.0
6231,53.0,0,240,4.0,41.0
6232,59.0,0,240,2.0,41.0
6233,43.0,0,240,5.0,41.0
6234,63.0,20,60,1.0,44.0
6235,54.0,60,360,4.0,47.0
6236,44.0,0,360,4.0,47.0
6237,55.0,0,770,4.0,31.0
6238,43.0,360,780,4.0,31.0
6239,36.0,0,1140,5.0,47.0
6240,51.0,0,1143,4.0,47.0
6241,60.0,0,1143,1.0,47.0
6242,55.0,840,64,4.0,43.0
6243,67.0,0,64,2.0,43.0
6244,55.0,0,64,4.0,44.0
6245,67.0,80,64,2.0,44.0
6246,43.0,0,192,5.0,43.0
6247,55.0,80,64,4.0,45.0
6248,67.0,0,64,2.0,45.0
6249,72.0,0,64,3.0,47.0
6250,60.0,80,64,3.0,47.0
6251,48.0,0,192,5.0,47.0
6252,72.0,0,64,3.0,46.0
6253,60.0,80,64,3.0,46.0
6254,74.0,80,64,3.0,45.0
6255,62.0,0,64,3.0,45.0
6256,50.0,80,192,5.0,46.0
6257,62.0,0,64,3.0,45.0
6258,74.0,80,64,3.0,45.0
6259,63.0,80,64,3.0,44.0
6260,75.0,0,64,3.0,44.0
6261,51.0,80,192,5.0,45.0
6262,75.0,0,64,3.0,44.0
6263,63.0,80,64,3.0,44.0
6264,60.0,80,64,3.0,43.0
6265,72.0,0,64,3.0,43.0
6266,48.0,80,192,5.0,43.0
6267,72.0,80,64,3.0,42.0
6268,60.0,0,64,3.0,42.0
6269,71.0,0,64,3.0,44.0
6270,59.0,80,64,3.0,44.0
6271,47.0,80,192,5.0,43.0
6272,71.0,0,64,3.0,46.0
6273,59.0,80,64,3.0,46.0
6274,62.0,0,64,3.0,50.0
6275,74.0,80,64,3.0,50.0
6276,50.0,80,192,5.0,48.0
6277,62.0,80,64,3.0,52.0
6278,74.0,0,64,3.0,52.0
6279,55.0,80,1440,4.0,47.0
6280,67.0,0,1440,2.0,47.0
6281,56.0,80,420,5.0,54.0
6282,80.0,120,307,1.0,60.0
6283,68.0,0,307,2.0,60.0
6284,53.0,360,480,5.0,47.0
6285,61.0,0,480,4.0,47.0
6286,65.0,0,480,4.0,47.0
6287,56.0,0,480,4.0,47.0
6288,73.0,0,480,1.0,47.0
6289,68.0,0,480,2.0,47.0
6290,72.0,0,480,2.0,52.0
6291,63.0,0,480,4.0,52.0
6292,54.0,0,480,5.0,52.0
6293,60.0,0,480,4.0,52.0
6294,56.0,0,480,4.0,52.0
6295,68.0,0,480,2.0,52.0
6296,80.0,0,0,1.0,44.0
6297,66.0,480,480,4.0,52.0
6298,75.0,0,480,2.0,52.0
6299,61.0,0,240,4.0,44.0
6300,65.0,0,240,4.0,44.0
6301,56.0,0,240,4.0,44.0
6302,53.0,480,240,5.0,44.0
6303,73.0,0,240,2.0,44.0
6304,68.0,0,240,2.0,44.0
6305,67.0,0,64,4.0,36.0
6306,67.0,80,64,4.0,37.0
6307,65.0,0,180,2.0,36.0
6308,71.0,0,180,2.0,36.0
6309,74.0,0,180,1.0,36.0
6310,67.0,80,64,4.0,39.0
6311,55.0,240,240,5.0,36.0
6312,75.0,20,60,1.0,40.0
6313,72.0,0,425,1.0,44.0
6314,60.0,0,430,5.0,44.0
6315,67.0,60,435,4.0,44.0
6316,63.0,0,435,2.0,44.0
6317,48.0,480,156,5.0,39.0
6318,51.0,0,156,4.0,39.0
6319,60.0,0,78,1.0,40.0
6320,55.0,120,78,2.0,40.0
6321,50.0,120,78,5.0,41.0
6322,59.0,0,78,1.0,41.0
6323,53.0,0,78,4.0,41.0
6324,55.0,0,78,2.0,41.0
6325,55.0,120,78,2.0,42.0
6326,51.0,0,78,4.0,42.0
6327,60.0,0,78,1.0,42.0
6328,48.0,0,78,5.0,42.0
6329,50.0,120,156,4.0,44.0
6330,43.0,0,156,5.0,44.0
6331,62.0,0,78,1.0,45.0
6332,59.0,0,78,2.0,45.0
6333,55.0,120,78,2.0,45.0
6334,72.0,0,64,3.0,48.0
6335,60.0,80,64,3.0,48.0
6336,55.0,0,156,4.0,47.0
6337,51.0,240,156,4.0,47.0
6338,48.0,0,156,5.0,47.0
6339,60.0,0,64,3.0,49.0
6340,72.0,80,64,3.0,49.0
6341,50.0,0,78,5.0,50.0
6342,53.0,80,78,4.0,50.0
6343,55.0,0,78,4.0,50.0
6344,59.0,80,64,3.0,51.0
6345,71.0,0,64,3.0,51.0
6346,51.0,0,78,4.0,52.0
6347,55.0,0,78,4.0,52.0
6348,48.0,40,78,5.0,52.0
6349,67.0,120,700,1.0,53.0
6350,72.0,0,64,3.0,52.0
6351,60.0,40,64,3.0,52.0
6352,55.0,0,156,4.0,53.0
6353,50.0,80,156,4.0,53.0
6354,47.0,0,156,5.0,53.0
6355,62.0,120,78,2.0,55.0
6356,74.0,0,78,1.0,55.0
6357,80.0,0,710,1.0,62.0
6358,68.0,120,710,2.0,62.0
6359,61.0,0,480,4.0,64.0
6360,56.0,240,480,4.0,64.0
6361,65.0,0,480,4.0,64.0
6362,53.0,0,480,5.0,64.0
6363,73.0,0,480,2.0,64.0
6364,81.0,480,360,1.0,74.0
6365,75.0,0,0,2.0,59.0
6366,69.0,0,360,2.0,74.0
6367,72.0,0,0,2.0,59.0
6368,54.0,360,0,5.0,59.0
6369,66.0,0,360,4.0,74.0
6370,63.0,0,360,4.0,74.0
6371,60.0,0,360,4.0,74.0
6372,81.0,0,120,1.0,59.0
6373,60.0,0,0,4.0,53.0
6374,66.0,0,120,4.0,59.0
6375,63.0,0,0,4.0,53.0
6376,69.0,0,120,2.0,59.0
6377,75.0,0,0,2.0,53.0
6378,72.0,120,0,2.0,53.0
6379,55.0,0,192,5.0,53.0
6380,67.0,0,192,4.0,53.0
6381,79.0,0,192,1.0,53.0
6382,55.0,240,64,4.0,45.0
6383,59.0,0,144,4.0,45.0
6384,55.0,80,64,4.0,46.0
6385,62.0,0,180,1.0,45.0
6386,55.0,80,64,4.0,47.0
6387,43.0,0,240,5.0,45.0
6388,53.0,0,240,4.0,45.0
6389,63.0,20,180,1.0,47.0
6390,54.0,0,360,4.0,52.0
6391,44.0,0,360,4.0,52.0
6392,55.0,0,770,4.0,35.0
6393,36.0,0,1140,5.0,52.0
6394,43.0,360,780,4.0,35.0
6395,51.0,0,1143,4.0,52.0
6396,60.0,60,1143,1.0,52.0
6397,79.0,840,80,3.0,41.0
6398,91.0,80,80,3.0,42.0
6399,31.0,0,192,5.0,41.0
6400,43.0,0,192,5.0,41.0
6401,89.0,80,80,3.0,44.0
6402,87.0,20,0,3.0,45.0
6403,89.0,20,40,3.0,45.0
6404,86.0,40,80,3.0,44.0
6405,36.0,0,192,5.0,45.0
6406,48.0,0,192,5.0,45.0
6407,84.0,80,80,3.0,44.0
6408,83.0,0,80,3.0,43.0
6409,84.0,80,80,3.0,43.0
6410,38.0,0,192,5.0,43.0
6411,50.0,80,192,5.0,43.0
6412,86.0,80,80,3.0,42.0
6413,84.0,0,40,3.0,41.0
6414,86.0,20,40,3.0,41.0
6415,84.0,20,40,3.0,41.0
6416,79.0,40,80,3.0,41.0
6417,39.0,0,192,5.0,41.0
6418,51.0,80,192,5.0,41.0
6419,77.0,80,80,3.0,40.0
6420,75.0,0,80,3.0,40.0
6421,74.0,80,80,3.0,39.0
6422,48.0,80,192,5.0,40.0
6423,36.0,0,192,5.0,40.0
6424,72.0,80,80,3.0,38.0
6425,74.0,0,80,3.0,38.0
6426,79.0,80,80,3.0,39.0
6427,35.0,80,192,5.0,38.0
6428,47.0,0,192,5.0,38.0
6429,67.0,80,80,3.0,40.0
6430,66.0,0,80,3.0,41.0
6431,69.0,80,80,3.0,42.0
6432,50.0,80,192,5.0,41.0
6433,38.0,0,192,5.0,41.0
6434,72.0,80,80,3.0,43.0
6435,70.0,80,40,3.0,42.0
6436,72.0,20,40,3.0,42.0
6437,70.0,20,40,3.0,42.0
6438,69.0,40,80,3.0,41.0
6439,55.0,0,425,5.0,42.0
6440,67.0,80,265,3.0,39.0
6441,43.0,0,430,5.0,42.0
6442,69.0,0,80,3.0,41.0
6443,62.0,80,80,3.0,42.0
6444,42.0,0,192,5.0,41.0
6445,54.0,320,192,5.0,41.0
6446,74.0,80,80,3.0,43.0
6447,73.0,0,80,3.0,44.0
6448,76.0,80,80,3.0,45.0
6449,45.0,0,192,5.0,44.0
6450,57.0,80,192,5.0,44.0
6451,79.0,80,80,3.0,46.0
6452,77.0,0,40,3.0,46.0
6453,79.0,40,40,3.0,45.0
6454,77.0,0,40,3.0,44.0
6455,76.0,40,80,3.0,44.0
6456,74.0,80,263,3.0,43.0
6457,50.0,80,425,5.0,46.0
6458,62.0,0,425,5.0,46.0
6459,70.0,320,40,3.0,44.0
6460,72.0,20,40,3.0,44.0
6461,70.0,20,40,3.0,44.0
6462,69.0,40,80,3.0,45.0
6463,67.0,80,80,3.0,45.0
6464,66.0,80,80,3.0,46.0
6465,67.0,80,80,3.0,46.0
6466,58.0,0,480,5.0,44.0
6467,62.0,0,480,4.0,44.0
6468,74.0,0,480,1.0,44.0
6469,69.0,80,80,3.0,47.0
6470,70.0,0,80,3.0,48.0
6471,69.0,80,80,3.0,48.0
6472,70.0,80,80,3.0,49.0
6473,75.0,80,80,3.0,49.0
6474,70.0,80,80,3.0,50.0
6475,79.0,0,480,1.0,48.0
6476,67.0,80,80,3.0,51.0
6477,58.0,0,0,4.0,53.0
6478,51.0,80,480,5.0,48.0
6479,63.0,0,480,4.0,48.0
6480,74.0,20,0,3.0,52.0
6481,75.0,20,40,3.0,53.0
6482,72.0,40,80,3.0,52.0
6483,62.0,0,192,4.0,53.0
6484,53.0,0,192,5.0,53.0
6485,77.0,80,200,1.0,53.0
6486,70.0,80,80,3.0,51.0
6487,69.0,0,80,3.0,50.0
6488,70.0,80,80,3.0,49.0
6489,75.0,0,190,1.0,50.0
6490,54.0,0,192,5.0,50.0
6491,60.0,80,192,4.0,50.0
6492,69.0,80,80,3.0,48.0
6493,70.0,20,0,3.0,46.0
6494,72.0,20,40,3.0,46.0
6495,69.0,40,80,3.0,45.0
6496,67.0,80,260,3.0,44.0
6497,74.0,0,420,1.0,47.0
6498,58.0,80,420,4.0,47.0
6499,55.0,0,425,5.0,47.0
6500,70.0,320,40,3.0,46.0
6501,72.0,20,40,3.0,46.0
6502,70.0,20,40,3.0,46.0
6503,69.0,40,80,3.0,47.0
6504,67.0,80,80,3.0,47.0
6505,66.0,80,80,3.0,48.0
6506,67.0,80,80,3.0,49.0
6507,74.0,0,480,1.0,46.0
6508,58.0,0,480,5.0,46.0
6509,62.0,0,480,4.0,46.0
6510,69.0,80,80,3.0,49.0
6511,70.0,0,80,3.0,50.0
6512,69.0,80,80,3.0,50.0
6513,79.0,80,190,1.0,50.0
6514,51.0,0,192,5.0,50.0
6515,63.0,0,192,4.0,50.0
6516,58.0,0,192,4.0,50.0
6517,70.0,80,80,3.0,51.0
6518,74.0,0,80,3.0,52.0
6519,75.0,80,80,3.0,52.0
6520,77.0,0,180,1.0,52.0
6521,53.0,0,192,5.0,52.0
6522,62.0,80,192,4.0,52.0
6523,58.0,0,192,4.0,52.0
6524,74.0,80,80,3.0,53.0
6525,72.0,20,0,3.0,52.0
6526,74.0,20,40,3.0,53.0
6527,71.0,40,80,3.0,52.0
6528,75.0,0,180,1.0,53.0
6529,63.0,0,192,4.0,53.0
6530,60.0,80,192,4.0,53.0
6531,55.0,0,192,5.0,53.0
6532,70.0,80,80,3.0,51.0
6533,68.0,0,80,3.0,50.0
6534,65.0,0,150,4.0,50.0
6535,67.0,80,80,3.0,49.0
6536,55.0,0,192,5.0,50.0
6537,59.0,0,192,4.0,50.0
6538,74.0,80,200,1.0,50.0
6539,65.0,80,70,3.0,48.0
6540,63.0,80,40,3.0,47.0
6541,65.0,20,40,3.0,47.0
6542,63.0,40,0,3.0,46.0
6543,62.0,80,80,3.0,45.0
6544,72.0,0,1135,1.0,47.0
6545,48.0,0,1135,5.0,47.0
6546,60.0,80,895,3.0,45.0
6547,55.0,0,1145,4.0,47.0
6548,55.0,0,80,4.0,52.0
6549,67.0,80,80,4.0,52.0
6550,77.0,960,192,2.0,52.0
6551,71.0,0,192,2.0,52.0
6552,74.0,0,192,2.0,52.0
6553,79.0,0,192,1.0,52.0
6554,65.0,80,80,4.0,52.0
6555,63.0,20,0,4.0,53.0
6556,65.0,20,40,4.0,52.0
6557,62.0,40,80,4.0,53.0
6558,79.0,0,192,2.0,52.0
6559,84.0,0,192,1.0,52.0
6560,75.0,0,192,2.0,52.0
6561,72.0,0,192,2.0,52.0
6562,60.0,80,80,4.0,53.0
6563,59.0,0,80,4.0,53.0
6564,60.0,80,80,4.0,53.0
6565,79.0,0,192,2.0,53.0
6566,77.0,0,192,2.0,53.0
6567,86.0,80,192,1.0,53.0
6568,74.0,0,192,2.0,53.0
6569,62.0,80,80,4.0,54.0
6570,60.0,20,0,4.0,54.0
6571,62.0,20,40,4.0,54.0
6572,55.0,40,80,4.0,54.0
6573,79.0,80,192,2.0,54.0
6574,75.0,0,192,2.0,54.0
6575,87.0,0,192,1.0,54.0
6576,53.0,80,80,4.0,54.0
6577,51.0,80,80,4.0,55.0
6578,50.0,80,80,4.0,55.0
6579,72.0,0,192,2.0,55.0
6580,79.0,0,192,2.0,55.0
6581,84.0,0,192,1.0,55.0
6582,48.0,80,80,4.0,55.0
6583,50.0,0,80,4.0,55.0
6584,43.0,80,80,4.0,53.0
6585,71.0,0,192,2.0,55.0
6586,79.0,80,192,2.0,55.0
6587,74.0,0,192,2.0,55.0
6588,83.0,0,192,1.0,55.0
6589,55.0,80,80,4.0,52.0
6590,54.0,80,80,4.0,51.0
6591,57.0,80,80,4.0,49.0
6592,74.0,0,192,2.0,51.0
6593,81.0,0,192,2.0,51.0
6594,86.0,0,192,1.0,51.0
6595,84.0,0,192,2.0,51.0
6596,62.0,80,80,4.0,48.0
6597,58.0,20,0,4.0,45.0
6598,60.0,20,40,4.0,46.0
6599,57.0,40,80,4.0,44.0
6600,79.0,0,423,2.0,46.0
6601,82.0,80,423,2.0,46.0
6602,91.0,0,423,1.0,46.0
6603,86.0,0,423,2.0,46.0
6604,55.0,80,263,4.0,42.0
6605,57.0,320,80,4.0,44.0
6606,50.0,80,80,4.0,43.0
6607,81.0,0,192,2.0,44.0
6608,78.0,0,192,2.0,44.0
6609,86.0,0,192,2.0,44.0
6610,90.0,0,192,1.0,44.0
6611,62.0,80,80,4.0,42.0
6612,61.0,80,80,4.0,41.0
6613,64.0,80,80,4.0,40.0
6614,91.0,0,192,2.0,41.0
6615,88.0,0,192,2.0,41.0
6616,81.0,0,192,2.0,41.0
6617,93.0,0,192,1.0,41.0
6618,69.0,80,80,4.0,39.0
6619,65.0,20,0,4.0,38.0
6620,67.0,20,40,4.0,38.0
6621,64.0,40,80,4.0,37.0
6622,98.0,0,414,1.0,38.0
6623,86.0,0,415,2.0,38.0
6624,62.0,80,260,4.0,36.0
6625,89.0,0,420,2.0,38.0
6626,93.0,0,420,2.0,38.0
6627,58.0,0,40,4.0,63.0
6628,60.0,20,40,4.0,63.0
6629,58.0,20,40,4.0,63.0
6630,57.0,40,80,4.0,63.0
6631,55.0,80,80,4.0,64.0
6632,53.0,80,80,4.0,64.0
6633,55.0,80,80,4.0,65.0
6634,74.0,320,480,1.0,63.0
6635,57.0,80,80,4.0,65.0
6636,65.0,0,480,2.0,63.0
6637,58.0,80,80,4.0,66.0
6638,57.0,80,80,4.0,67.0
6639,58.0,80,80,4.0,67.0
6640,63.0,80,80,4.0,68.0
6641,58.0,80,80,4.0,68.0
6642,79.0,0,480,1.0,66.0
6643,55.0,80,80,4.0,69.0
6644,67.0,0,480,2.0,66.0
6645,70.0,0,480,2.0,66.0
6646,51.0,0,480,5.0,66.0
6647,74.0,80,40,3.0,69.0
6648,75.0,20,40,3.0,68.0
6649,74.0,20,40,3.0,68.0
6650,58.0,0,80,4.0,69.0
6651,57.0,0,80,4.0,67.0
6652,72.0,40,80,3.0,67.0
6653,70.0,80,80,3.0,65.0
6654,77.0,0,240,1.0,69.0
6655,55.0,0,80,4.0,65.0
6656,53.0,0,240,5.0,69.0
6657,69.0,80,80,3.0,63.0
6658,70.0,80,80,3.0,61.0
6659,55.0,0,80,4.0,61.0
6660,75.0,0,240,1.0,63.0
6661,72.0,0,80,3.0,59.0
6662,57.0,80,80,4.0,59.0
6663,54.0,0,240,5.0,63.0
6664,70.0,20,0,3.0,57.0
6665,72.0,20,40,3.0,57.0
6666,69.0,0,80,3.0,56.0
6667,57.0,40,80,4.0,56.0
6668,74.0,0,420,1.0,58.0
6669,67.0,80,260,3.0,54.0
6670,58.0,0,265,4.0,54.0
6671,55.0,0,480,5.0,58.0
6672,58.0,20,0,4.0,47.0
6673,60.0,20,40,4.0,47.0
6674,57.0,40,80,4.0,47.0
6675,55.0,80,80,4.0,48.0
6676,53.0,80,80,4.0,48.0
6677,55.0,80,80,4.0,49.0
6678,74.0,0,480,1.0,47.0
6679,65.0,0,480,2.0,47.0
6680,57.0,80,80,4.0,49.0
6681,58.0,0,80,4.0,50.0
6682,57.0,80,80,4.0,50.0
6683,51.0,80,240,5.0,50.0
6684,67.0,0,240,2.0,50.0
6685,58.0,80,80,4.0,51.0
6686,79.0,0,240,1.0,50.0
6687,70.0,20,0,3.0,52.0
6688,72.0,20,40,3.0,52.0
6689,62.0,0,80,4.0,51.0
6690,60.0,40,80,4.0,52.0
6691,69.0,0,80,3.0,52.0
6692,53.0,80,240,5.0,51.0
6693,77.0,0,240,1.0,51.0
6694,62.0,0,80,4.0,52.0
6695,70.0,80,80,3.0,52.0
6696,72.0,0,40,3.0,53.0
6697,74.0,20,40,3.0,53.0
6698,63.0,0,80,4.0,53.0
6699,72.0,20,40,3.0,53.0
6700,71.0,0,80,3.0,53.0
6701,62.0,40,80,4.0,53.0
6702,55.0,80,240,5.0,53.0
6703,75.0,0,240,1.0,53.0
6704,63.0,80,80,4.0,50.0
6705,70.0,0,80,3.0,50.0
6706,68.0,0,40,3.0,49.0
6707,70.0,20,40,3.0,49.0
6708,68.0,20,40,3.0,48.0
6709,65.0,0,80,4.0,49.0
6710,62.0,0,80,4.0,48.0
6711,67.0,40,80,3.0,48.0
6712,59.0,80,80,4.0,46.0
6713,65.0,0,80,3.0,46.0
6714,74.0,0,240,1.0,49.0
6715,55.0,80,240,5.0,49.0
6716,60.0,0,40,4.0,51.0
6717,63.0,0,40,3.0,44.0
6718,65.0,20,40,3.0,43.0
6719,60.0,80,80,3.0,44.0
6720,63.0,20,40,3.0,42.0
6721,55.0,0,80,4.0,42.0
6722,62.0,40,80,3.0,42.0
6723,60.0,0,80,3.0,40.0
6724,72.0,0,415,1.0,44.0
6725,51.0,80,260,4.0,40.0
6726,48.0,0,425,5.0,44.0
6727,44.0,0,240,5.0,36.0
6728,60.0,320,240,1.0,36.0
6729,56.0,0,240,2.0,36.0
6730,51.0,0,0,4.0,39.0
6731,55.0,0,120,2.0,39.0
6732,58.0,0,120,1.0,39.0
6733,46.0,240,120,5.0,39.0
6734,51.0,0,0,4.0,40.0
6735,56.0,120,0,2.0,42.0
6736,44.0,0,120,5.0,40.0
6737,60.0,0,120,1.0,40.0
6738,41.0,0,420,5.0,42.0
6739,61.0,0,423,1.0,42.0
6740,53.0,0,427,4.0,42.0
6741,56.0,0,240,2.0,31.0
6742,51.0,0,240,4.0,31.0
6743,44.0,0,240,5.0,31.0
6744,60.0,480,240,1.0,31.0
6745,51.0,0,120,4.0,34.0
6746,55.0,0,120,2.0,34.0
6747,46.0,240,120,5.0,34.0
6748,58.0,0,120,1.0,34.0
6749,56.0,0,120,2.0,35.0
6750,60.0,120,120,1.0,35.0
6751,51.0,0,120,4.0,35.0
6752,44.0,0,120,5.0,35.0
6753,58.0,0,420,2.0,36.0
6754,43.0,0,420,5.0,36.0
6755,55.0,0,427,4.0,36.0
6756,63.0,120,457,1.0,36.0
6757,44.0,480,360,5.0,36.0
6758,60.0,0,360,1.0,36.0
6759,51.0,0,360,4.0,36.0
6760,56.0,0,360,2.0,36.0
6761,41.0,0,192,5.0,43.0
6762,53.0,480,192,4.0,43.0
6763,68.0,0,192,1.0,43.0
6764,61.0,0,192,2.0,43.0
6765,62.0,0,192,2.0,46.0
6766,68.0,0,192,1.0,46.0
6767,53.0,0,192,4.0,46.0
6768,41.0,240,192,5.0,46.0
6769,63.0,0,240,2.0,44.0
6770,48.0,0,240,4.0,44.0
6771,55.0,0,240,4.0,44.0
6772,67.0,0,240,1.0,44.0
6773,43.0,0,0,5.0,42.0
6774,62.0,0,180,1.0,42.0
6775,53.0,0,240,4.0,42.0
6776,63.0,180,60,1.0,40.0
6777,59.0,240,240,2.0,42.0
6778,51.0,60,415,4.0,40.0
6779,60.0,0,420,1.0,40.0
6780,55.0,0,420,2.0,40.0
6781,48.0,0,425,5.0,40.0
6782,51.0,0,192,4.0,26.0
6783,60.0,0,192,1.0,26.0
6784,44.0,480,192,5.0,26.0
6785,56.0,0,192,2.0,26.0
6786,55.0,0,96,2.0,30.0
6787,46.0,0,96,5.0,30.0
6788,58.0,240,96,1.0,30.0
6789,51.0,0,96,4.0,30.0
6790,44.0,0,96,5.0,32.0
6791,51.0,120,96,4.0,32.0
6792,56.0,0,96,2.0,32.0
6793,60.0,0,96,1.0,32.0
6794,73.0,180,39,4.0,32.0
6795,65.0,0,39,4.0,32.0
6796,92.0,0,39,1.0,32.0
6797,85.0,0,39,2.0,32.0
6798,80.0,0,39,2.0,32.0
6799,77.0,0,39,5.0,32.0
6800,85.0,0,39,2.0,32.0
6801,82.0,0,39,2.0,32.0
6802,73.0,0,39,4.0,32.0
6803,75.0,0,39,5.0,32.0
6804,91.0,60,39,1.0,32.0
6805,67.0,0,39,4.0,32.0
6806,80.0,0,39,2.0,31.0
6807,85.0,0,39,2.0,31.0
6808,68.0,0,39,4.0,31.0
6809,73.0,0,39,5.0,31.0
6810,89.0,60,39,1.0,31.0
6811,68.0,60,60,4.0,30.0
6812,80.0,0,60,2.0,30.0
6813,85.0,0,60,2.0,30.0
6814,73.0,0,0,5.0,29.0
6815,89.0,0,60,1.0,30.0
6816,70.0,60,39,4.0,29.0
6817,79.0,0,39,2.0,29.0
6818,87.0,0,39,1.0,29.0
6819,73.0,0,39,5.0,29.0
6820,87.0,0,39,1.0,29.0
6821,85.0,60,39,2.0,29.0
6822,70.0,0,39,4.0,29.0
6823,79.0,0,39,2.0,29.0
6824,77.0,0,39,5.0,28.0
6825,73.0,0,39,4.0,28.0
6826,92.0,0,39,1.0,28.0
6827,65.0,60,39,4.0,28.0
6828,85.0,0,39,2.0,28.0
6829,80.0,0,39,2.0,28.0
6830,73.0,0,39,4.0,27.0
6831,67.0,0,39,4.0,27.0
6832,91.0,0,39,1.0,27.0
6833,75.0,60,39,5.0,27.0
6834,85.0,0,39,2.0,27.0
6835,82.0,0,39,2.0,27.0
6836,85.0,0,39,2.0,27.0
6837,73.0,0,39,5.0,27.0
6838,80.0,0,39,2.0,27.0
6839,68.0,0,39,4.0,27.0
6840,89.0,60,39,1.0,27.0
6841,89.0,60,60,1.0,27.0
6842,80.0,0,60,2.0,27.0
6843,68.0,0,60,4.0,27.0
6844,73.0,60,0,5.0,25.0
6845,85.0,0,60,2.0,27.0
6846,79.0,0,39,2.0,25.0
6847,87.0,0,39,1.0,25.0
6848,70.0,0,39,4.0,25.0
6849,55.0,120,955,4.0,38.0
6850,58.0,0,955,2.0,38.0
6851,63.0,0,960,1.0,38.0
6852,73.0,0,120,5.0,24.0
6853,70.0,0,120,4.0,24.0
6854,43.0,0,960,5.0,38.0
6855,85.0,0,123,2.0,24.0
6856,79.0,0,123,2.0,24.0
6857,87.0,60,123,1.0,24.0
6858,44.0,0,192,5.0,26.0
6859,60.0,600,192,1.0,26.0
6860,51.0,0,192,4.0,26.0
6861,56.0,0,192,2.0,26.0
6862,46.0,0,96,5.0,30.0
6863,58.0,240,96,1.0,30.0
6864,51.0,0,96,4.0,30.0
6865,55.0,0,96,2.0,30.0
6866,51.0,120,96,4.0,32.0
6867,56.0,0,96,2.0,32.0
6868,60.0,0,96,1.0,32.0
6869,44.0,0,96,5.0,32.0
6870,94.0,0,39,1.0,32.0
6871,82.0,0,39,2.0,32.0
6872,87.0,0,39,2.0,32.0
6873,67.0,0,39,4.0,32.0
6874,75.0,0,39,4.0,32.0
6875,79.0,180,39,5.0,32.0
6876,75.0,60,39,4.0,32.0
6877,87.0,0,39,2.0,32.0
6878,77.0,0,39,5.0,32.0
6879,93.0,0,39,1.0,32.0
6880,84.0,0,39,2.0,32.0
6881,69.0,0,39,4.0,32.0
6882,91.0,60,39,1.0,31.0
6883,70.0,0,39,4.0,31.0
6884,82.0,0,39,2.0,31.0
6885,87.0,0,39,2.0,31.0
6886,75.0,0,39,5.0,31.0
6887,70.0,0,60,4.0,30.0
6888,75.0,0,0,5.0,30.0
6889,82.0,0,60,2.0,30.0
6890,87.0,0,60,2.0,30.0
6891,91.0,60,60,1.0,30.0
6892,81.0,0,39,2.0,30.0
6893,72.0,60,39,4.0,30.0
6894,89.0,0,39,1.0,30.0
6895,72.0,0,39,4.0,29.0
6896,75.0,0,39,5.0,29.0
6897,89.0,0,39,1.0,29.0
6898,81.0,60,39,2.0,29.0
6899,87.0,0,39,2.0,29.0
6900,87.0,0,39,2.0,29.0
6901,75.0,0,39,4.0,29.0
6902,82.0,0,39,2.0,29.0
6903,94.0,60,39,1.0,29.0
6904,79.0,0,39,5.0,29.0
6905,67.0,0,39,4.0,29.0
6906,77.0,60,39,5.0,28.0
6907,69.0,0,39,4.0,28.0
6908,75.0,0,39,4.0,28.0
6909,84.0,0,39,2.0,28.0
6910,87.0,0,39,2.0,28.0
6911,93.0,0,39,1.0,28.0
6912,82.0,0,39,2.0,28.0
6913,91.0,0,39,1.0,28.0
6914,77.0,60,39,5.0,28.0
6915,87.0,0,39,2.0,28.0
6916,75.0,0,60,5.0,29.0
6917,87.0,0,60,2.0,29.0
6918,82.0,0,60,2.0,29.0
6919,91.0,60,60,1.0,29.0
6920,75.0,0,39,5.0,27.0
6921,89.0,0,39,1.0,27.0
6922,81.0,60,39,2.0,27.0
6923,58.0,0,955,2.0,38.0
6924,55.0,0,960,4.0,38.0
6925,63.0,120,960,1.0,38.0
6926,43.0,0,960,5.0,38.0
6927,89.0,60,123,1.0,26.0
6928,87.0,0,123,2.0,26.0
6929,75.0,0,123,5.0,26.0
6930,81.0,0,127,2.0,26.0
6931,58.0,0,40,4.0,41.0
6932,60.0,20,40,4.0,41.0
6933,58.0,20,40,4.0,41.0
6934,57.0,40,80,4.0,41.0
6935,55.0,80,80,4.0,42.0
6936,53.0,80,80,4.0,42.0
6937,55.0,80,80,4.0,43.0
6938,65.0,0,480,2.0,41.0
6939,57.0,80,80,4.0,43.0
6940,74.0,600,480,1.0,41.0
6941,58.0,0,80,4.0,44.0
6942,57.0,80,80,4.0,45.0
6943,58.0,80,80,4.0,45.0
6944,79.0,0,240,1.0,44.0
6945,51.0,80,240,5.0,44.0
6946,67.0,0,240,2.0,44.0
6947,70.0,0,40,3.0,46.0
6948,72.0,20,40,3.0,46.0
6949,62.0,80,80,4.0,46.0
6950,70.0,20,40,3.0,46.0
6951,69.0,0,80,3.0,46.0
6952,60.0,40,80,4.0,46.0
6953,77.0,0,240,1.0,46.0
6954,53.0,0,240,5.0,46.0
6955,70.0,80,80,3.0,47.0
6956,62.0,0,80,4.0,47.0
6957,72.0,0,40,3.0,47.0
6958,74.0,20,40,3.0,47.0
6959,63.0,0,80,4.0,47.0
6960,72.0,20,40,3.0,46.0
6961,62.0,0,80,4.0,46.0
6962,71.0,40,80,3.0,46.0
6963,63.0,0,80,4.0,45.0
6964,70.0,80,80,3.0,45.0
6965,55.0,0,240,5.0,47.0
6966,75.0,80,240,1.0,47.0
6967,68.0,20,0,3.0,43.0
6968,70.0,20,40,3.0,44.0
6969,65.0,80,80,4.0,44.0
6970,62.0,0,80,4.0,43.0
6971,67.0,40,80,3.0,43.0
6972,65.0,80,80,3.0,42.0
6973,55.0,0,240,5.0,44.0
6974,59.0,0,80,4.0,42.0
6975,74.0,0,240,1.0,44.0
6976,63.0,20,0,3.0,40.0
6977,65.0,20,40,3.0,41.0
6978,60.0,0,80,4.0,41.0
6979,62.0,0,80,3.0,40.0
6980,55.0,40,80,4.0,40.0
6981,60.0,80,80,3.0,39.0
6982,72.0,0,1140,1.0,41.0
6983,48.0,0,1147,5.0,41.0
6984,51.0,0,987,4.0,39.0
6985,71.0,80,80,3.0,81.0
6986,65.0,0,80,3.0,81.0
6987,79.0,1040,160,1.0,81.0
6988,77.0,80,80,1.0,80.0
6989,31.0,0,240,5.0,81.0
6990,43.0,0,240,5.0,81.0
6991,67.0,80,80,3.0,79.0
6992,72.0,0,80,3.0,79.0
6993,76.0,80,240,1.0,80.0
6994,48.0,0,240,5.0,80.0
6995,36.0,0,240,5.0,80.0
6996,64.0,80,80,3.0,79.0
6997,67.0,0,80,3.0,78.0
6998,71.0,80,80,3.0,78.0
6999,74.0,80,240,1.0,79.0
7000,65.0,80,80,3.0,78.0
7001,50.0,0,240,5.0,79.0
7002,38.0,0,240,5.0,79.0
7003,67.0,80,80,3.0,77.0
7004,52.0,80,240,5.0,77.0
7005,60.0,80,80,3.0,76.0
7006,72.0,0,240,1.0,77.0
7007,40.0,0,240,5.0,77.0
7008,64.0,80,80,3.0,76.0
7009,69.0,0,180,1.0,76.0
7010,36.0,0,240,5.0,76.0
7011,60.0,80,80,3.0,75.0
7012,48.0,80,240,5.0,76.0
7013,62.0,80,80,3.0,74.0
7014,55.0,0,80,3.0,74.0
7015,67.0,0,165,1.0,75.0
7016,47.0,0,240,5.0,75.0
7017,35.0,80,240,5.0,75.0
7018,65.0,80,80,1.0,74.0
7019,60.0,80,80,3.0,73.0
7020,64.0,0,240,1.0,74.0
7021,55.0,80,80,3.0,73.0
7022,36.0,80,240,5.0,74.0
7023,48.0,0,240,5.0,74.0
7024,59.0,80,80,3.0,72.0
7025,55.0,80,80,3.0,72.0
7026,59.0,80,80,3.0,71.0
7027,62.0,80,395,1.0,72.0
7028,55.0,80,80,3.0,71.0
7029,43.0,0,480,5.0,72.0
7030,31.0,0,480,5.0,72.0
7031,62.0,80,80,1.0,70.0
7032,60.0,80,80,3.0,71.0
7033,55.0,80,80,3.0,71.0
7034,64.0,0,240,1.0,70.0
7035,64.0,80,80,3.0,72.0
7036,48.0,0,480,5.0,70.0
7037,36.0,80,480,5.0,70.0
7038,60.0,80,80,3.0,73.0
7039,67.0,80,245,1.0,72.0
7040,65.0,80,160,1.0,74.0
7041,59.0,80,80,3.0,74.0
7042,60.0,0,80,3.0,75.0
7043,64.0,80,80,1.0,75.0
7044,59.0,80,80,3.0,76.0
7045,62.0,80,240,1.0,75.0
7046,55.0,80,80,3.0,76.0
7047,43.0,0,480,5.0,74.0
7048,55.0,0,480,5.0,74.0
7049,55.0,80,80,3.0,78.0
7050,52.0,80,80,3.0,78.0
7051,60.0,80,240,1.0,77.0
7052,40.0,0,240,5.0,77.0
7053,52.0,0,240,5.0,77.0
7054,59.0,80,80,3.0,79.0
7055,55.0,0,80,3.0,79.0
7056,50.0,0,240,5.0,79.0
7057,53.0,80,80,3.0,80.0
7058,38.0,80,240,5.0,79.0
7059,62.0,0,245,1.0,79.0
7060,55.0,0,80,3.0,81.0
7061,60.0,80,80,3.0,81.0
7062,36.0,0,1140,5.0,81.0
7063,48.0,0,1140,5.0,81.0
7064,64.0,80,1140,1.0,81.0
7065,52.0,80,983,3.0,82.0
7066,71.0,80,80,3.0,82.0
7067,65.0,0,80,3.0,82.0
7068,79.0,1040,160,1.0,83.0
7069,31.0,0,240,5.0,83.0
7070,43.0,0,240,5.0,83.0
7071,77.0,80,80,1.0,81.0
7072,72.0,80,80,3.0,79.0
7073,67.0,0,80,3.0,79.0
7074,48.0,0,240,5.0,80.0
7075,64.0,80,80,3.0,79.0
7076,76.0,0,240,1.0,80.0
7077,36.0,80,240,5.0,80.0
7078,71.0,0,80,3.0,77.0
7079,67.0,80,80,3.0,77.0
7080,50.0,0,240,5.0,78.0
7081,65.0,80,80,3.0,76.0
7082,74.0,80,240,1.0,78.0
7083,38.0,0,240,5.0,78.0
7084,67.0,80,80,3.0,75.0
7085,52.0,0,240,5.0,75.0
7086,40.0,0,240,5.0,75.0
7087,60.0,80,80,3.0,74.0
7088,72.0,80,240,1.0,75.0
7089,64.0,80,80,3.0,72.0
7090,69.0,0,240,1.0,73.0
7091,60.0,80,80,3.0,71.0
7092,36.0,80,240,5.0,73.0
7093,48.0,0,240,5.0,73.0
7094,55.0,80,80,3.0,70.0
7095,62.0,0,80,3.0,70.0
7096,67.0,80,165,1.0,71.0
7097,65.0,80,80,1.0,69.0
7098,35.0,0,240,5.0,71.0
7099,47.0,0,240,5.0,71.0
7100,60.0,80,80,3.0,67.0
7101,55.0,80,80,3.0,65.0
7102,48.0,0,240,5.0,68.0
7103,36.0,0,240,5.0,68.0
7104,64.0,80,240,1.0,68.0
7105,59.0,80,80,3.0,61.0
7106,55.0,80,80,3.0,58.0
7107,59.0,80,80,3.0,56.0
7108,55.0,80,80,3.0,54.0
7109,62.0,80,475,1.0,63.0
7110,43.0,0,480,5.0,63.0
7111,31.0,0,480,5.0,63.0
7112,59.0,80,80,3.0,51.0
7113,56.0,80,80,3.0,49.0
7114,51.0,80,80,3.0,49.0
7115,56.0,80,80,3.0,50.0
7116,51.0,80,80,3.0,51.0
7117,60.0,0,475,1.0,48.0
7118,32.0,80,480,5.0,48.0
7119,44.0,0,480,5.0,48.0
7120,56.0,80,80,3.0,52.0
7121,58.0,80,80,3.0,53.0
7122,56.0,80,80,3.0,54.0
7123,58.0,80,80,3.0,55.0
7124,56.0,80,80,3.0,55.0
7125,58.0,80,80,3.0,56.0
7126,37.0,80,480,5.0,52.0
7127,49.0,0,480,5.0,52.0
7128,65.0,0,480,1.0,52.0
7129,56.0,80,80,3.0,58.0
7130,51.0,80,80,3.0,58.0
7131,63.0,80,240,1.0,59.0
7132,48.0,0,240,5.0,59.0
7133,36.0,0,240,5.0,59.0
7134,55.0,80,80,3.0,56.0
7135,34.0,0,240,5.0,57.0
7136,46.0,0,240,5.0,57.0
7137,61.0,80,240,1.0,57.0
7138,51.0,80,80,3.0,55.0
7139,51.0,80,80,3.0,53.0
7140,56.0,80,160,3.0,54.0
7141,54.0,80,153,3.0,52.0
7142,51.0,80,80,3.0,52.0
7143,54.0,80,80,3.0,51.0
7144,60.0,0,480,1.0,55.0
7145,32.0,0,480,5.0,55.0
7146,44.0,80,480,5.0,55.0
7147,55.0,80,80,3.0,50.0
7148,60.0,0,240,1.0,50.0
7149,52.0,80,80,3.0,49.0
7150,53.0,80,80,3.0,47.0
7151,59.0,80,165,1.0,48.0
7152,31.0,0,480,5.0,50.0
7153,43.0,80,480,5.0,50.0
7154,52.0,80,80,3.0,46.0
7155,60.0,0,80,1.0,46.0
7156,59.0,80,80,3.0,47.0
7157,50.0,40,120,5.0,47.0
7158,55.0,40,80,3.0,48.0
7159,55.0,80,120,5.0,49.0
7160,57.0,0,225,3.0,49.0
7161,62.0,80,470,1.0,46.0
7162,43.0,0,480,5.0,46.0
7163,53.0,120,120,5.0,50.0
7164,67.0,80,80,3.0,52.0
7165,60.0,80,80,3.0,53.0
7166,52.0,120,240,5.0,51.0
7167,72.0,0,245,1.0,51.0
7168,53.0,80,120,5.0,54.0
7169,67.0,0,80,3.0,55.0
7170,62.0,80,80,3.0,55.0
7171,71.0,0,165,1.0,54.0
7172,60.0,40,80,3.0,56.0
7173,72.0,0,80,1.0,56.0
7174,52.0,40,120,5.0,55.0
7175,71.0,80,80,3.0,57.0
7176,50.0,0,240,5.0,57.0
7177,67.0,80,80,3.0,58.0
7178,71.0,0,80,3.0,59.0
7179,67.0,80,80,3.0,60.0
7180,71.0,80,80,3.0,62.0
7181,55.0,80,240,5.0,59.0
7182,43.0,0,960,5.0,51.0
7183,74.0,80,485,1.0,57.0
7184,72.0,80,80,3.0,64.0
7185,60.0,0,240,5.0,63.0
7186,67.0,80,80,3.0,66.0
7187,72.0,0,80,3.0,67.0
7188,67.0,80,80,3.0,68.0
7189,76.0,80,480,1.0,63.0
7190,58.0,80,240,5.0,67.0
7191,72.0,80,80,3.0,69.0
7192,48.0,0,480,5.0,63.0
7193,76.0,80,80,3.0,72.0
7194,81.0,80,230,1.0,71.0
7195,57.0,0,240,5.0,71.0
7196,72.0,80,80,3.0,73.0
7197,74.0,80,80,3.0,73.0
7198,81.0,0,235,1.0,74.0
7199,59.0,80,240,5.0,74.0
7200,53.0,0,480,5.0,71.0
7201,69.0,80,80,3.0,69.0
7202,72.0,80,80,3.0,64.0
7203,76.0,0,80,3.0,64.0
7204,79.0,0,230,1.0,66.0
7205,60.0,0,240,5.0,66.0
7206,52.0,80,240,5.0,66.0
7207,67.0,80,80,3.0,63.0
7208,71.0,80,80,3.0,59.0
7209,77.0,80,230,1.0,61.0
7210,67.0,80,80,3.0,57.0
7211,59.0,0,240,5.0,61.0
7212,50.0,0,240,5.0,61.0
7213,72.0,80,80,3.0,53.0
7214,66.0,80,80,3.0,51.0
7215,67.0,80,80,3.0,49.0
7216,60.0,0,390,5.0,55.0
7217,64.0,80,80,3.0,47.0
7218,60.0,80,75,3.0,44.0
7219,48.0,80,480,5.0,55.0
7220,76.0,0,480,1.0,55.0
7221,62.0,80,52,1.0,47.0
7222,57.0,0,52,3.0,47.0
7223,60.0,0,52,3.0,47.0
7224,62.0,0,52,1.0,48.0
7225,57.0,0,52,3.0,48.0
7226,60.0,80,52,3.0,48.0
7227,57.0,80,52,3.0,49.0
7228,62.0,0,52,1.0,49.0
7229,60.0,0,52,3.0,49.0
7230,60.0,0,52,3.0,50.0
7231,57.0,80,52,3.0,50.0
7232,61.0,0,52,1.0,50.0
7233,62.0,80,52,1.0,51.0
7234,57.0,0,52,3.0,51.0
7235,60.0,0,52,3.0,51.0
7236,53.0,80,480,5.0,46.0
7237,41.0,0,480,5.0,46.0
7238,48.0,0,480,4.0,46.0
7239,60.0,0,52,3.0,53.0
7240,62.0,80,52,3.0,53.0
7241,69.0,0,52,1.0,53.0
7242,60.0,80,52,3.0,53.0
7243,62.0,0,52,3.0,53.0
7244,69.0,0,52,1.0,53.0
7245,60.0,80,52,3.0,54.0
7246,62.0,0,52,3.0,54.0
7247,69.0,0,52,1.0,54.0
7248,68.0,80,52,1.0,55.0
7249,60.0,0,52,3.0,55.0
7250,62.0,0,52,3.0,55.0
7251,60.0,0,52,3.0,56.0
7252,62.0,80,52,3.0,56.0
7253,69.0,0,52,1.0,56.0
7254,42.0,80,480,5.0,52.0
7255,54.0,0,480,5.0,52.0
7256,50.0,80,0,4.0,57.0
7257,62.0,0,52,3.0,58.0
7258,66.0,80,52,3.0,58.0
7259,72.0,0,52,1.0,58.0
7260,72.0,0,52,1.0,59.0
7261,62.0,0,52,3.0,59.0
7262,66.0,80,52,3.0,59.0
7263,66.0,80,52,3.0,60.0
7264,72.0,0,52,1.0,60.0
7265,62.0,0,52,3.0,60.0
7266,71.0,80,52,1.0,61.0
7267,66.0,0,52,3.0,61.0
7268,62.0,0,52,3.0,61.0
7269,66.0,0,52,3.0,62.0
7270,72.0,0,52,1.0,62.0
7271,62.0,80,52,3.0,62.0
7272,57.0,0,480,5.0,57.0
7273,45.0,0,480,5.0,57.0
7274,56.0,0,52,5.0,65.0
7275,44.0,0,52,5.0,65.0
7276,51.0,80,52,4.0,65.0
7277,75.0,0,52,3.0,69.0
7278,60.0,0,52,5.0,69.0
7279,72.0,0,52,3.0,69.0
7280,63.0,0,52,4.0,69.0
7281,66.0,0,52,4.0,69.0
7282,78.0,80,52,1.0,69.0
7283,75.0,80,52,3.0,73.0
7284,72.0,0,52,3.0,73.0
7285,63.0,0,52,4.0,73.0
7286,60.0,0,52,5.0,73.0
7287,66.0,0,52,4.0,73.0
7288,78.0,0,52,1.0,73.0
7289,60.0,0,52,5.0,81.0
7290,75.0,0,52,3.0,77.0
7291,72.0,0,52,3.0,77.0
7292,66.0,80,52,4.0,77.0
7293,63.0,0,52,4.0,77.0
7294,78.0,0,52,1.0,77.0
7295,65.0,0,48,4.0,85.0
7296,72.0,0,52,3.0,81.0
7297,77.0,0,52,1.0,81.0
7298,63.0,0,52,4.0,85.0
7299,75.0,80,52,3.0,81.0
7300,60.0,0,52,5.0,85.0
7301,75.0,0,52,3.0,85.0
7302,72.0,80,52,3.0,85.0
7303,66.0,0,52,4.0,85.0
7304,78.0,0,52,1.0,85.0
7305,63.0,0,52,4.0,85.0
7306,60.0,0,52,5.0,85.0
7307,55.0,80,52,5.0,93.0
7308,52.0,0,52,5.0,93.0
7309,43.0,0,52,5.0,93.0
7310,64.0,0,52,5.0,93.0
7311,72.0,0,52,3.0,93.0
7312,76.0,0,52,3.0,93.0
7313,67.0,0,52,4.0,93.0
7314,79.0,60,52,1.0,93.0
7315,72.0,0,52,3.0,88.0
7316,76.0,0,52,1.0,88.0
7317,60.0,80,52,5.0,88.0
7318,67.0,0,52,4.0,88.0
7319,64.0,0,52,4.0,84.0
7320,72.0,80,52,1.0,84.0
7321,55.0,0,52,5.0,84.0
7322,67.0,20,52,3.0,79.0
7323,67.0,60,52,1.0,79.0
7324,52.0,0,52,5.0,79.0
7325,60.0,0,52,4.0,79.0
7326,64.0,0,52,3.0,79.0
7327,55.0,0,52,4.0,75.0
7328,48.0,0,52,5.0,75.0
7329,64.0,80,52,1.0,75.0
7330,60.0,0,52,3.0,75.0
7331,52.0,80,52,4.0,70.0
7332,45.0,0,52,5.0,70.0
7333,57.0,0,52,3.0,70.0
7334,60.0,0,52,1.0,70.0
7335,53.0,0,52,4.0,72.0
7336,50.0,80,52,5.0,67.0
7337,47.0,80,52,5.0,63.0
7338,43.0,80,0,5.0,58.0
7339,55.0,80,360,1.0,72.0
7340,41.0,80,52,5.0,53.0
7341,38.0,60,75,5.0,49.0
7342,36.0,80,140,5.0,38.0
7343,36.0,200,190,4.0,36.0
7344,36.0,240,192,4.0,28.0
7345,48.0,240,192,4.0,26.0
7346,55.0,0,192,5.0,26.0
7347,59.0,240,192,5.0,26.0
7348,48.0,0,192,4.0,26.0
7349,60.0,240,192,5.0,27.0
7350,48.0,0,192,4.0,27.0
7351,64.0,240,192,5.0,28.0
7352,48.0,0,192,4.0,28.0
7353,48.0,240,192,4.0,28.0
7354,67.0,0,192,3.0,28.0
7355,59.0,0,192,5.0,28.0
7356,76.0,0,192,2.0,28.0
7357,72.0,0,192,3.0,28.0
7358,76.0,240,192,2.0,29.0
7359,48.0,0,192,4.0,29.0
7360,65.0,0,192,3.0,29.0
7361,72.0,0,192,3.0,29.0
7362,72.0,0,192,3.0,29.0
7363,48.0,0,192,4.0,29.0
7364,77.0,0,192,2.0,29.0
7365,76.0,240,192,3.0,29.0
7366,57.0,0,480,5.0,29.0
7367,76.0,0,192,3.0,30.0
7368,72.0,0,192,3.0,30.0
7369,48.0,240,192,4.0,30.0
7370,81.0,0,192,2.0,30.0
7371,76.0,0,192,2.0,30.0
7372,48.0,0,192,4.0,30.0
7373,72.0,0,192,3.0,30.0
7374,65.0,240,192,3.0,30.0
7375,57.0,0,192,5.0,30.0
7376,48.0,0,192,4.0,31.0
7377,57.0,0,192,5.0,31.0
7378,71.0,0,192,3.0,31.0
7379,65.0,0,192,3.0,31.0
7380,74.0,240,192,2.0,31.0
7381,59.0,0,192,5.0,31.0
7382,74.0,240,192,2.0,31.0
7383,71.0,0,192,3.0,31.0
7384,65.0,0,192,3.0,31.0
7385,48.0,0,192,4.0,31.0
7386,62.0,240,192,5.0,32.0
7387,71.0,0,192,3.0,32.0
7388,74.0,240,192,2.0,32.0
7389,57.0,0,192,5.0,32.0
7390,48.0,0,192,4.0,32.0
7391,65.0,0,192,3.0,32.0
7392,71.0,0,192,3.0,33.0
7393,64.0,240,192,3.0,33.0
7394,74.0,0,192,2.0,33.0
7395,48.0,0,192,4.0,33.0
7396,48.0,0,192,4.0,33.0
7397,74.0,0,192,3.0,33.0
7398,71.0,240,192,3.0,33.0
7399,76.0,0,192,2.0,33.0
7400,55.0,0,480,5.0,33.0
7401,74.0,0,192,3.0,34.0
7402,71.0,240,192,3.0,34.0
7403,48.0,0,192,4.0,34.0
7404,79.0,0,192,2.0,34.0
7405,74.0,0,192,2.0,34.0
7406,55.0,0,192,5.0,34.0
7407,71.0,0,192,3.0,34.0
7408,48.0,0,192,4.0,34.0
7409,64.0,240,192,3.0,34.0
7410,69.0,0,192,3.0,35.0
7411,64.0,0,192,3.0,35.0
7412,48.0,240,192,4.0,35.0
7413,55.0,0,192,5.0,35.0
7414,72.0,0,192,2.0,35.0
7415,64.0,0,192,3.0,35.0
7416,69.0,0,192,3.0,35.0
7417,57.0,0,192,5.0,35.0
7418,48.0,240,192,4.0,35.0
7419,72.0,0,192,2.0,35.0
7420,60.0,240,192,5.0,36.0
7421,55.0,0,192,5.0,36.0
7422,72.0,0,192,2.0,36.0
7423,48.0,0,192,4.0,36.0
7424,69.0,0,192,3.0,36.0
7425,64.0,240,192,3.0,36.0
7426,69.0,0,192,3.0,37.0
7427,72.0,0,192,2.0,37.0
7428,62.0,0,192,3.0,37.0
7429,48.0,0,192,4.0,37.0
7430,48.0,240,192,4.0,38.0
7431,74.0,0,192,2.0,38.0
7432,69.0,0,192,3.0,38.0
7433,72.0,0,192,3.0,38.0
7434,53.0,240,480,5.0,37.0
7435,48.0,0,192,4.0,38.0
7436,69.0,0,192,3.0,38.0
7437,77.0,0,192,2.0,38.0
7438,72.0,240,192,3.0,38.0
7439,69.0,0,192,3.0,39.0
7440,53.0,0,192,5.0,39.0
7441,72.0,0,192,2.0,39.0
7442,48.0,0,192,4.0,39.0
7443,62.0,240,192,3.0,39.0
7444,48.0,0,192,4.0,39.0
7445,62.0,240,192,3.0,39.0
7446,67.0,0,192,3.0,39.0
7447,71.0,0,192,2.0,39.0
7448,53.0,0,192,5.0,39.0
7449,57.0,0,192,5.0,40.0
7450,48.0,0,192,4.0,40.0
7451,71.0,0,192,2.0,40.0
7452,62.0,240,192,3.0,40.0
7453,67.0,0,192,3.0,40.0
7454,48.0,0,192,4.0,40.0
7455,55.0,240,192,5.0,40.0
7456,55.0,240,192,2.0,41.0
7457,48.0,0,192,4.0,41.0
7458,53.0,0,192,5.0,41.0
7459,48.0,0,192,5.0,41.0
7460,52.0,0,192,3.0,41.0
7461,60.0,240,192,2.0,41.0
7462,36.0,0,192,4.0,41.0
7463,36.0,0,192,4.0,42.0
7464,53.0,0,192,3.0,42.0
7465,43.0,240,192,5.0,42.0
7466,62.0,0,192,2.0,42.0
7467,36.0,240,192,4.0,42.0
7468,55.0,0,192,3.0,42.0
7469,48.0,0,192,5.0,42.0
7470,64.0,0,192,2.0,42.0
7471,36.0,0,192,4.0,43.0
7472,60.0,0,192,2.0,43.0
7473,43.0,0,192,5.0,43.0
7474,52.0,240,192,3.0,43.0
7475,58.0,0,960,3.0,41.0
7476,36.0,240,192,4.0,43.0
7477,65.0,0,192,2.0,43.0
7478,48.0,0,192,5.0,43.0
7479,43.0,0,192,5.0,44.0
7480,67.0,0,192,2.0,44.0
7481,36.0,240,192,4.0,44.0
7482,60.0,0,192,3.0,44.0
7483,65.0,240,192,3.0,44.0
7484,36.0,0,192,4.0,44.0
7485,48.0,0,192,5.0,44.0
7486,69.0,0,192,2.0,44.0
7487,36.0,0,192,4.0,45.0
7488,43.0,0,192,5.0,45.0
7489,53.0,240,192,3.0,45.0
7490,57.0,0,960,3.0,43.0
7491,48.0,0,192,5.0,45.0
7492,59.0,0,192,2.0,45.0
7493,50.0,0,192,3.0,45.0
7494,36.0,240,192,4.0,45.0
7495,60.0,0,192,2.0,46.0
7496,43.0,240,192,5.0,46.0
7497,52.0,0,192,3.0,46.0
7498,36.0,0,192,4.0,46.0
7499,36.0,0,192,4.0,46.0
7500,48.0,240,192,5.0,46.0
7501,62.0,0,192,2.0,46.0
7502,53.0,0,192,3.0,46.0
7503,50.0,0,192,3.0,47.0
7504,59.0,0,192,2.0,47.0
7505,36.0,0,192,4.0,47.0
7506,43.0,240,192,5.0,47.0
7507,56.0,0,960,3.0,45.0
7508,36.0,0,192,4.0,47.0
7509,48.0,0,192,5.0,47.0
7510,43.0,0,192,5.0,44.0
7511,36.0,240,192,4.0,44.0
7512,55.0,240,480,2.0,47.0
7513,52.0,0,480,1.0,47.0
7514,48.0,0,192,5.0,41.0
7515,36.0,0,192,4.0,41.0
7516,43.0,240,192,5.0,38.0
7517,36.0,0,192,4.0,38.0
7518,55.0,240,480,1.0,41.0
7519,58.0,0,480,2.0,41.0
7520,48.0,0,192,5.0,35.0
7521,36.0,240,192,4.0,35.0
7522,36.0,240,192,4.0,32.0
7523,43.0,0,192,5.0,32.0
7524,57.0,0,480,2.0,35.0
7525,53.0,0,480,1.0,35.0
7526,36.0,240,192,4.0,29.0
7527,48.0,0,192,5.0,29.0
7528,43.0,0,217,5.0,26.0
7529,36.0,240,225,4.0,26.0
7530,50.0,0,480,1.0,29.0
7531,53.0,0,525,2.0,29.0
7532,60.0,0,1972,2.0,47.0
7533,55.0,0,2797,2.0,22.0
7534,43.0,300,2805,5.0,22.0
7535,60.0,0,2805,2.0,22.0
7536,52.0,0,2805,1.0,22.0
7537,48.0,0,2812,5.0,22.0
7538,36.0,0,2812,4.0,22.0
7539,52.0,0,0,4.0,110.0
7540,86.0,720,720,1.0,110.0
7541,59.0,0,720,4.0,110.0
7542,74.0,0,720,2.0,110.0
7543,83.0,0,720,2.0,110.0
7544,62.0,0,720,4.0,110.0
7545,73.0,0,720,2.0,107.0
7546,81.0,0,720,2.0,107.0
7547,61.0,0,720,4.0,107.0
7548,57.0,0,720,4.0,107.0
7549,85.0,720,720,1.0,107.0
7550,54.0,0,720,4.0,105.0
7551,57.0,0,720,4.0,105.0
7552,78.0,0,720,2.0,105.0
7553,69.0,720,720,2.0,105.0
7554,81.0,0,720,1.0,105.0
7555,28.0,0,3022,5.0,122.0
7556,40.0,0,3022,5.0,122.0
7557,55.0,720,156,4.0,99.0
7558,59.0,0,156,4.0,99.0
7559,71.0,0,156,2.0,99.0
7560,83.0,0,156,1.0,99.0
7561,79.0,0,156,2.0,99.0
7562,79.0,240,156,1.0,97.0
7563,55.0,0,156,4.0,97.0
7564,52.0,0,156,4.0,97.0
7565,76.0,0,156,2.0,97.0
7566,64.0,0,156,2.0,97.0
7567,54.0,0,156,4.0,96.0
7568,81.0,0,156,1.0,96.0
7569,57.0,240,156,4.0,96.0
7570,66.0,0,156,2.0,96.0
7571,78.0,0,156,2.0,96.0
7572,78.0,240,156,1.0,95.0
7573,75.0,0,156,2.0,95.0
7574,63.0,0,156,2.0,95.0
7575,54.0,0,156,4.0,95.0
7576,51.0,0,156,4.0,95.0
7577,55.0,240,156,4.0,93.0
7578,52.0,0,156,4.0,93.0
7579,64.0,0,156,2.0,93.0
7580,76.0,0,156,2.0,93.0
7581,79.0,0,156,1.0,93.0
7582,49.0,0,156,4.0,92.0
7583,64.0,0,156,2.0,92.0
7584,73.0,0,156,2.0,92.0
7585,52.0,0,156,4.0,92.0
7586,76.0,240,156,1.0,92.0
7587,54.0,240,156,4.0,90.0
7588,51.0,0,156,4.0,90.0
7589,75.0,0,156,2.0,90.0
7590,66.0,0,156,2.0,90.0
7591,78.0,0,156,1.0,90.0
7592,66.0,480,156,2.0,88.0
7593,78.0,0,156,1.0,88.0
7594,75.0,0,156,2.0,88.0
7595,59.0,240,960,5.0,112.0
7596,47.0,0,965,5.0,112.0
7597,61.0,960,156,2.0,89.0
7598,73.0,0,156,1.0,89.0
7599,49.0,0,156,5.0,89.0
7600,75.0,240,156,1.0,88.0
7601,63.0,0,156,2.0,88.0
7602,51.0,0,156,5.0,88.0
7603,52.0,0,156,5.0,86.0
7604,64.0,0,156,2.0,86.0
7605,76.0,240,156,1.0,86.0
7606,54.0,0,156,5.0,85.0
7607,78.0,0,156,1.0,85.0
7608,66.0,240,156,2.0,85.0
7609,55.0,0,156,5.0,84.0
7610,79.0,240,156,1.0,84.0
7611,67.0,0,156,2.0,84.0
7612,78.0,0,156,1.0,82.0
7613,54.0,0,156,5.0,82.0
7614,66.0,240,156,2.0,82.0
7615,51.0,0,156,5.0,82.0
7616,75.0,0,156,2.0,82.0
7617,71.0,0,156,2.0,80.0
7618,83.0,480,156,1.0,80.0
7619,47.0,0,955,5.0,106.0
7620,59.0,240,960,5.0,106.0
7621,61.0,0,156,2.0,82.0
7622,73.0,0,156,1.0,82.0
7623,49.0,960,156,5.0,82.0
7624,51.0,0,156,5.0,81.0
7625,75.0,240,156,1.0,81.0
7626,63.0,0,156,2.0,81.0
7627,76.0,0,156,1.0,80.0
7628,64.0,240,156,2.0,80.0
7629,52.0,0,156,5.0,80.0
7630,78.0,0,156,1.0,79.0
7631,54.0,240,156,5.0,79.0
7632,66.0,0,156,2.0,79.0
7633,55.0,0,156,5.0,77.0
7634,79.0,0,156,1.0,77.0
7635,67.0,240,156,2.0,77.0
7636,54.0,0,156,5.0,76.0
7637,66.0,240,156,2.0,76.0
7638,57.0,0,156,5.0,76.0
7639,81.0,0,156,1.0,76.0
7640,78.0,0,156,2.0,76.0
7641,86.0,0,156,1.0,74.0
7642,74.0,480,156,2.0,74.0
7643,50.0,240,712,5.0,100.0
7644,62.0,0,720,1.0,95.0
7645,55.0,720,712,4.0,110.0
7646,81.0,0,720,2.0,95.0
7647,93.0,0,720,1.0,95.0
7648,89.0,720,720,2.0,95.0
7649,69.0,0,720,4.0,95.0
7650,65.0,0,720,4.0,95.0
7651,64.0,0,720,4.0,92.0
7652,91.0,0,720,1.0,92.0
7653,67.0,0,720,4.0,92.0
7654,79.0,720,720,2.0,92.0
7655,88.0,0,720,2.0,92.0
7656,76.0,0,720,2.0,89.0
7657,64.0,0,720,4.0,89.0
7658,88.0,720,720,1.0,89.0
7659,84.0,0,720,2.0,89.0
7660,60.0,0,720,4.0,89.0
7661,43.0,0,3000,5.0,110.0
7662,55.0,0,2295,4.0,95.0
7663,31.0,0,3022,5.0,110.0
7664,89.0,0,156,1.0,80.0
7665,86.0,720,156,2.0,80.0
7666,77.0,0,156,2.0,80.0
7667,65.0,0,156,4.0,80.0
7668,62.0,0,156,4.0,80.0
7669,86.0,0,156,1.0,79.0
7670,74.0,240,156,2.0,79.0
7671,62.0,0,156,4.0,79.0
7672,59.0,0,156,4.0,79.0
7673,83.0,0,156,2.0,79.0
7674,84.0,0,156,2.0,78.0
7675,88.0,0,156,1.0,78.0
7676,76.0,0,156,2.0,78.0
7677,64.0,0,156,4.0,78.0
7678,60.0,240,156,4.0,78.0
7679,57.0,0,156,4.0,77.0
7680,60.0,0,156,4.0,77.0
7681,81.0,240,156,2.0,77.0
7682,84.0,0,156,1.0,77.0
7683,72.0,0,156,2.0,77.0
7684,83.0,0,156,2.0,76.0
7685,74.0,240,156,2.0,76.0
7686,62.0,0,156,4.0,76.0
7687,86.0,0,156,1.0,76.0
7688,59.0,0,156,4.0,76.0
7689,79.0,0,156,2.0,75.0
7690,83.0,240,156,1.0,75.0
7691,71.0,0,156,2.0,75.0
7692,59.0,0,156,4.0,75.0
7693,55.0,0,156,4.0,75.0
7694,81.0,0,156,2.0,74.0
7695,72.0,0,156,2.0,74.0
7696,84.0,0,156,1.0,74.0
7697,60.0,0,156,4.0,74.0
7698,57.0,240,156,4.0,74.0
7699,84.0,480,156,1.0,72.0
7700,60.0,0,156,4.0,72.0
7701,57.0,0,156,4.0,72.0
7702,81.0,0,156,2.0,72.0
7703,72.0,0,156,2.0,72.0
7704,53.0,0,720,4.0,92.0
7705,81.0,0,720,1.0,92.0
7706,57.0,240,720,4.0,92.0
7707,69.0,0,720,2.0,92.0
7708,77.0,0,720,2.0,92.0
7709,67.0,240,156,2.0,70.0
7710,79.0,0,156,1.0,70.0
7711,83.0,0,156,1.0,69.0
7712,71.0,240,156,2.0,69.0
7713,52.0,0,720,5.0,71.0
7714,40.0,720,720,5.0,71.0
7715,84.0,0,156,1.0,68.0
7716,72.0,0,156,2.0,68.0
7717,86.0,0,156,1.0,67.0
7718,74.0,240,156,2.0,67.0
7719,55.0,0,480,4.0,68.0
7720,52.0,240,480,4.0,68.0
7721,60.0,0,480,4.0,68.0
7722,76.0,240,156,2.0,65.0
7723,88.0,0,156,1.0,65.0
7724,88.0,0,156,2.0,64.0
7725,91.0,0,156,1.0,64.0
7726,79.0,240,156,2.0,64.0
7727,77.0,0,156,2.0,62.0
7728,89.0,480,156,1.0,62.0
7729,38.0,0,720,5.0,64.0
7730,50.0,0,720,5.0,64.0
7731,53.0,0,480,4.0,78.0
7732,60.0,0,480,4.0,78.0
7733,57.0,0,480,4.0,78.0
7734,50.0,0,480,4.0,78.0
7735,84.0,240,720,1.0,82.0
7736,72.0,0,727,2.0,82.0
7737,81.0,240,156,1.0,77.0
7738,69.0,0,156,2.0,77.0
7739,83.0,240,156,1.0,80.0
7740,71.0,0,156,2.0,80.0
7741,48.0,720,720,5.0,74.0
7742,36.0,0,720,5.0,74.0
7743,72.0,0,156,2.0,84.0
7744,84.0,0,156,1.0,84.0
7745,86.0,0,156,1.0,87.0
7746,74.0,240,156,2.0,87.0
7747,48.0,0,480,4.0,84.0
7748,52.0,240,480,4.0,84.0
7749,60.0,0,480,4.0,84.0
7750,57.0,0,480,4.0,84.0
7751,88.0,240,156,1.0,90.0
7752,76.0,0,156,2.0,90.0
7753,91.0,0,156,1.0,100.0
7754,79.0,240,156,2.0,100.0
7755,87.0,0,156,2.0,100.0
7756,78.0,0,156,2.0,82.0
7757,90.0,480,156,1.0,82.0
7758,47.0,0,720,5.0,104.0
7759,35.0,0,720,5.0,104.0
7760,54.0,0,480,4.0,97.0
7761,59.0,0,480,4.0,97.0
7762,63.0,0,480,4.0,97.0
7763,69.0,240,720,2.0,96.0
7764,81.0,0,720,1.0,96.0
7765,52.0,720,0,4.0,110.0
7766,59.0,0,720,4.0,110.0
7767,62.0,0,720,4.0,110.0
7768,74.0,0,720,2.0,110.0
7769,83.0,0,720,2.0,110.0
7770,86.0,0,720,1.0,110.0
7771,85.0,0,720,1.0,107.0
7772,57.0,720,0,4.0,105.0
7773,81.0,0,720,2.0,107.0
7774,73.0,0,720,2.0,107.0
7775,61.0,720,720,4.0,107.0
7776,54.0,0,720,4.0,105.0
7777,69.0,0,720,2.0,105.0
7778,81.0,0,720,1.0,105.0
7779,78.0,0,720,2.0,105.0
7780,40.0,0,3022,5.0,122.0
7781,28.0,720,3022,5.0,122.0
7782,79.0,0,156,2.0,99.0
7783,55.0,0,156,4.0,99.0
7784,59.0,720,156,4.0,99.0
7785,83.0,0,156,1.0,99.0
7786,71.0,0,156,2.0,99.0
7787,55.0,0,156,4.0,97.0
7788,79.0,0,156,1.0,97.0
7789,76.0,0,156,2.0,97.0
7790,52.0,240,156,4.0,97.0
7791,64.0,0,156,2.0,97.0
7792,54.0,0,156,4.0,96.0
7793,57.0,0,156,4.0,96.0
7794,81.0,0,156,1.0,96.0
7795,66.0,0,156,2.0,96.0
7796,78.0,240,156,2.0,96.0
7797,75.0,240,156,2.0,95.0
7798,54.0,0,156,4.0,95.0
7799,51.0,0,156,4.0,95.0
7800,78.0,0,156,1.0,95.0
7801,63.0,0,156,2.0,95.0
7802,52.0,0,156,4.0,93.0
7803,64.0,0,156,2.0,93.0
7804,76.0,240,156,2.0,93.0
7805,79.0,0,156,1.0,93.0
7806,55.0,0,156,4.0,93.0
7807,49.0,0,156,4.0,92.0
7808,52.0,0,156,4.0,92.0
7809,73.0,240,156,2.0,92.0
7810,64.0,0,156,2.0,92.0
7811,76.0,0,156,1.0,92.0
7812,78.0,0,156,1.0,90.0
7813,75.0,0,156,2.0,90.0
7814,66.0,0,156,2.0,90.0
7815,54.0,0,156,4.0,90.0
7816,51.0,240,156,4.0,90.0
7817,66.0,0,156,2.0,88.0
7818,75.0,0,156,2.0,88.0
7819,78.0,480,156,1.0,88.0
7820,59.0,240,960,5.0,112.0
7821,47.0,0,965,5.0,112.0
7822,61.0,960,156,2.0,89.0
7823,73.0,0,156,1.0,89.0
7824,49.0,0,156,5.0,89.0
7825,75.0,0,156,1.0,88.0
7826,63.0,0,156,2.0,88.0
7827,51.0,240,156,5.0,88.0
7828,52.0,240,156,5.0,86.0
7829,64.0,0,156,2.0,86.0
7830,76.0,0,156,1.0,86.0
7831,54.0,0,156,5.0,85.0
7832,78.0,240,156,1.0,85.0
7833,66.0,0,156,2.0,85.0
7834,67.0,0,156,2.0,84.0
7835,55.0,240,156,5.0,84.0
7836,79.0,0,156,1.0,84.0
7837,54.0,0,156,5.0,82.0
7838,78.0,0,156,1.0,82.0
7839,51.0,0,156,5.0,82.0
7840,66.0,0,156,2.0,82.0
7841,75.0,240,156,2.0,82.0
7842,71.0,480,156,2.0,80.0
7843,83.0,0,156,1.0,80.0
7844,47.0,240,955,5.0,106.0
7845,59.0,0,960,5.0,106.0
7846,61.0,0,156,2.0,82.0
7847,73.0,0,156,1.0,82.0
7848,49.0,960,156,5.0,82.0
7849,51.0,0,156,5.0,81.0
7850,63.0,240,156,2.0,81.0
7851,75.0,0,156,1.0,81.0
7852,52.0,0,156,5.0,80.0
7853,76.0,240,156,1.0,80.0
7854,64.0,0,156,2.0,80.0
7855,66.0,240,156,2.0,79.0
7856,78.0,0,156,1.0,79.0
7857,54.0,0,156,5.0,79.0
7858,79.0,0,156,1.0,77.0
7859,67.0,240,156,2.0,77.0
7860,55.0,0,156,5.0,77.0
7861,54.0,0,156,5.0,76.0
7862,57.0,0,156,5.0,76.0
7863,78.0,240,156,2.0,76.0
7864,66.0,0,156,2.0,76.0
7865,81.0,0,156,1.0,76.0
7866,74.0,480,156,2.0,74.0
7867,86.0,0,156,1.0,74.0
7868,50.0,240,712,5.0,100.0
7869,62.0,0,720,1.0,95.0
7870,55.0,720,712,4.0,110.0
7871,89.0,0,720,2.0,95.0
7872,65.0,0,720,4.0,95.0
7873,93.0,0,720,1.0,95.0
7874,69.0,0,720,4.0,95.0
7875,81.0,720,720,2.0,95.0
7876,79.0,0,720,2.0,92.0
7877,67.0,0,720,4.0,92.0
7878,88.0,0,720,2.0,92.0
7879,64.0,0,0,4.0,89.0
7880,91.0,720,720,1.0,92.0
7881,60.0,0,720,4.0,89.0
7882,76.0,0,720,2.0,89.0
7883,84.0,720,720,2.0,89.0
7884,88.0,0,720,1.0,89.0
7885,43.0,0,3000,5.0,110.0
7886,55.0,0,2295,4.0,95.0
7887,31.0,0,3022,5.0,110.0
7888,65.0,0,156,4.0,80.0
7889,62.0,720,156,4.0,80.0
7890,89.0,0,156,1.0,80.0
7891,86.0,0,156,2.0,80.0
7892,77.0,0,156,2.0,80.0
7893,83.0,0,156,2.0,79.0
7894,62.0,0,156,4.0,79.0
7895,59.0,0,156,4.0,79.0
7896,86.0,0,156,1.0,79.0
7897,74.0,240,156,2.0,79.0
7898,60.0,240,156,4.0,78.0
7899,88.0,0,156,1.0,78.0
7900,84.0,0,156,2.0,78.0
7901,76.0,0,156,2.0,78.0
7902,64.0,0,156,4.0,78.0
7903,60.0,240,156,4.0,77.0
7904,84.0,0,156,1.0,77.0
7905,57.0,0,156,4.0,77.0
7906,81.0,0,156,2.0,77.0
7907,72.0,0,156,2.0,77.0
7908,86.0,240,156,1.0,76.0
7909,59.0,0,156,4.0,76.0
7910,62.0,0,156,4.0,76.0
7911,83.0,0,156,2.0,76.0
7912,74.0,0,156,2.0,76.0
7913,79.0,0,156,2.0,75.0
7914,83.0,0,156,1.0,75.0
7915,71.0,240,156,2.0,75.0
7916,59.0,0,156,4.0,75.0
7917,55.0,0,156,4.0,75.0
7918,84.0,0,156,1.0,74.0
7919,57.0,240,156,4.0,74.0
7920,60.0,0,156,4.0,74.0
7921,72.0,0,156,2.0,74.0
7922,81.0,0,156,2.0,74.0
7923,57.0,0,156,4.0,72.0
7924,72.0,0,156,2.0,72.0
7925,84.0,0,156,1.0,72.0
7926,60.0,0,156,4.0,72.0
7927,81.0,480,156,2.0,72.0
7928,81.0,0,720,1.0,92.0
7929,57.0,0,720,4.0,92.0
7930,53.0,0,720,4.0,92.0
7931,69.0,240,720,2.0,92.0
7932,77.0,0,720,2.0,92.0
7933,67.0,240,156,2.0,70.0
7934,79.0,0,156,1.0,70.0
7935,71.0,240,156,2.0,69.0
7936,83.0,0,156,1.0,69.0
7937,52.0,0,720,5.0,71.0
7938,40.0,720,720,5.0,71.0
7939,84.0,0,156,1.0,68.0
7940,72.0,240,156,2.0,68.0
7941,74.0,0,156,2.0,67.0
7942,86.0,240,156,1.0,67.0
7943,55.0,0,480,4.0,68.0
7944,52.0,0,480,4.0,68.0
7945,60.0,0,480,4.0,68.0
7946,76.0,0,156,2.0,65.0
7947,88.0,240,156,1.0,65.0
7948,79.0,0,156,2.0,64.0
7949,88.0,240,156,2.0,64.0
7950,91.0,0,156,1.0,64.0
7951,77.0,480,156,2.0,62.0
7952,89.0,0,156,1.0,62.0
7953,38.0,0,720,5.0,64.0
7954,50.0,0,720,5.0,64.0
7955,53.0,0,480,4.0,78.0
7956,57.0,0,480,4.0,78.0
7957,60.0,240,480,4.0,78.0
7958,50.0,0,480,4.0,78.0
7959,84.0,0,720,1.0,82.0
7960,72.0,0,727,2.0,82.0
7961,81.0,0,156,1.0,77.0
7962,69.0,240,156,2.0,77.0
7963,71.0,240,156,2.0,80.0
7964,83.0,0,156,1.0,80.0
7965,36.0,720,720,5.0,74.0
7966,48.0,0,720,5.0,74.0
7967,84.0,240,156,1.0,84.0
7968,72.0,0,156,2.0,84.0
7969,86.0,240,156,1.0,87.0
7970,74.0,0,156,2.0,87.0
7971,52.0,0,480,4.0,84.0
7972,48.0,0,480,4.0,84.0
7973,57.0,0,480,4.0,84.0
7974,60.0,0,480,4.0,84.0
7975,88.0,240,156,1.0,90.0
7976,76.0,0,156,2.0,90.0
7977,91.0,0,156,1.0,100.0
7978,79.0,0,156,2.0,100.0
7979,87.0,0,156,2.0,100.0
7980,90.0,480,156,1.0,82.0
7981,78.0,0,156,2.0,82.0
7982,35.0,240,720,5.0,104.0
7983,47.0,0,720,5.0,104.0
7984,59.0,0,480,4.0,97.0
7985,63.0,0,480,4.0,97.0
7986,54.0,0,480,4.0,97.0
7987,81.0,0,720,1.0,96.0
7988,69.0,240,720,2.0,96.0
7989,48.0,720,720,4.0,86.0
7990,36.0,0,720,5.0,86.0
7991,70.0,720,720,1.0,78.0
7992,67.0,0,720,2.0,78.0
7993,58.0,0,720,2.0,78.0
7994,46.0,0,720,4.0,78.0
7995,43.0,0,720,4.0,78.0
7996,45.0,0,720,4.0,76.0
7997,57.0,0,720,2.0,76.0
7998,41.0,0,720,4.0,76.0
7999,69.0,720,720,1.0,76.0
8000,65.0,0,720,2.0,76.0
8001,38.0,0,720,4.0,74.0
8002,41.0,0,720,4.0,74.0
8003,65.0,0,720,1.0,74.0
8004,53.0,720,720,2.0,74.0
8005,62.0,0,720,2.0,74.0
8006,24.0,0,3007,5.0,86.0
8007,36.0,0,2310,5.0,78.0
8008,43.0,0,156,4.0,66.0
8009,67.0,0,156,1.0,66.0
8010,40.0,720,156,4.0,66.0
8011,64.0,0,156,2.0,66.0
8012,55.0,0,156,2.0,66.0
8013,64.0,0,156,1.0,64.0
8014,52.0,240,156,2.0,64.0
8015,37.0,0,156,4.0,64.0
8016,65.0,240,156,1.0,63.0
8017,53.0,0,156,2.0,63.0
8018,38.0,0,156,4.0,63.0
8019,35.0,0,156,4.0,62.0
8020,50.0,240,156,2.0,62.0
8021,62.0,0,156,1.0,62.0
8022,52.0,0,156,2.0,60.0
8023,64.0,240,156,1.0,60.0
8024,36.0,0,156,4.0,60.0
8025,49.0,0,156,2.0,59.0
8026,33.0,240,156,4.0,59.0
8027,61.0,0,156,1.0,59.0
8028,50.0,0,156,2.0,57.0
8029,38.0,240,156,4.0,57.0
8030,62.0,0,156,1.0,57.0
8031,62.0,480,156,1.0,73.0
8032,50.0,0,156,2.0,73.0
8033,26.0,0,720,5.0,98.0
8034,38.0,240,720,5.0,98.0
8035,39.0,0,0,5.0,83.0
8036,49.0,720,720,4.0,83.0
8037,73.0,0,720,1.0,83.0
8038,46.0,0,720,4.0,83.0
8039,70.0,0,720,2.0,83.0
8040,61.0,0,720,2.0,83.0
8041,68.0,0,720,2.0,81.0
8042,60.0,0,720,2.0,81.0
8043,44.0,0,720,4.0,81.0
8044,48.0,0,720,4.0,81.0
8045,72.0,720,720,1.0,81.0
8046,41.0,0,720,4.0,78.0
8047,44.0,0,720,4.0,78.0
8048,68.0,0,720,1.0,78.0
8049,65.0,720,720,2.0,78.0
8050,56.0,0,720,2.0,78.0
8051,27.0,720,3015,5.0,86.0
8052,43.0,0,156,4.0,74.0
8053,46.0,720,156,4.0,74.0
8054,70.0,0,156,1.0,74.0
8055,58.0,0,156,2.0,74.0
8056,67.0,0,156,2.0,74.0
8057,55.0,0,156,2.0,74.0
8058,40.0,0,156,4.0,74.0
8059,67.0,240,156,1.0,74.0
8060,68.0,240,156,1.0,73.0
8061,42.0,0,156,4.0,73.0
8062,56.0,0,156,2.0,73.0
8063,65.0,0,156,1.0,73.0
8064,38.0,240,156,4.0,73.0
8065,53.0,0,156,2.0,73.0
8066,55.0,240,156,2.0,72.0
8067,40.0,0,156,4.0,72.0
8068,67.0,0,156,1.0,72.0
8069,36.0,240,156,4.0,72.0
8070,52.0,0,156,2.0,72.0
8071,64.0,0,156,1.0,72.0
8072,65.0,0,156,1.0,71.0
8073,41.0,0,156,4.0,71.0
8074,53.0,240,156,2.0,71.0
8075,53.0,480,156,2.0,70.0
8076,65.0,0,156,1.0,70.0
8077,41.0,0,720,5.0,93.0
8078,29.0,240,720,5.0,93.0
8079,54.0,0,0,4.0,99.0
8080,88.0,0,720,1.0,99.0
8081,76.0,0,720,2.0,99.0
8082,85.0,0,720,2.0,99.0
8083,64.0,0,720,4.0,99.0
8084,61.0,720,720,4.0,99.0
8085,87.0,720,720,1.0,95.0
8086,59.0,720,0,4.0,92.0
8087,63.0,0,720,4.0,95.0
8088,75.0,0,720,2.0,95.0
8089,83.0,0,720,2.0,95.0
8090,30.0,0,2812,5.0,106.0
8091,80.0,0,660,2.0,92.0
8092,83.0,0,660,1.0,92.0
8093,56.0,0,667,4.0,92.0
8094,71.0,0,667,2.0,92.0
8095,42.0,720,2827,5.0,106.0
8096,64.0,0,720,1.0,66.0
8097,55.0,720,720,4.0,66.0
8098,54.0,0,720,4.0,63.0
8099,62.0,720,720,1.0,63.0
8100,42.0,720,2820,5.0,79.0
8101,50.0,720,660,4.0,60.0
8102,59.0,0,667,1.0,60.0
8103,88.0,0,240,1.0,106.0
8104,61.0,0,240,4.0,106.0
8105,64.0,480,240,4.0,106.0
8106,76.0,0,240,2.0,106.0
8107,85.0,0,240,2.0,106.0
8108,83.0,0,472,2.0,105.0
8109,59.0,240,480,4.0,105.0
8110,63.0,0,480,4.0,105.0
8111,75.0,0,480,2.0,105.0
8112,87.0,0,480,1.0,105.0
8113,54.0,720,1380,1.0,113.0
8114,83.0,0,180,1.0,102.0
8115,42.0,0,1380,5.0,113.0
8116,80.0,0,187,2.0,102.0
8117,71.0,0,187,2.0,102.0
8118,30.0,0,1387,5.0,113.0
8119,59.0,0,187,4.0,102.0
8120,56.0,480,187,4.0,102.0
8121,88.0,480,240,2.0,117.0
8122,80.0,0,240,2.0,117.0
8123,68.0,0,240,4.0,117.0
8124,64.0,0,240,4.0,117.0
8125,92.0,0,240,1.0,117.0
8126,54.0,240,720,1.0,125.0
8127,90.0,0,480,1.0,115.0
8128,87.0,0,480,2.0,115.0
8129,78.0,0,480,2.0,115.0
8130,66.0,240,480,4.0,115.0
8131,63.0,0,0,4.0,112.0
8132,30.0,0,1380,5.0,125.0
8133,42.0,0,1380,5.0,125.0
8134,83.0,480,180,2.0,112.0
8135,59.0,0,187,4.0,112.0
8136,75.0,0,187,2.0,112.0
8137,87.0,0,240,1.0,112.0
8138,55.0,0,240,4.0,44.0
8139,64.0,480,240,1.0,44.0
8140,54.0,240,480,4.0,43.0
8141,62.0,0,480,1.0,43.0
8142,59.0,0,187,1.0,50.0
8143,50.0,480,187,4.0,50.0
8144,42.0,240,1387,5.0,56.0
8145,52.0,480,240,4.0,36.0
8146,61.0,0,240,1.0,36.0
8147,59.0,240,480,1.0,34.0
8148,50.0,0,480,4.0,34.0
8149,47.0,0,180,4.0,30.0
8150,42.0,240,1387,5.0,39.0
8151,55.0,480,187,1.0,30.0
8152,42.0,240,156,5.0,26.0
8153,35.0,240,156,5.0,27.0
8154,54.0,0,480,1.0,26.0
8155,42.0,240,156,5.0,27.0
8156,35.0,240,156,5.0,27.0
8157,42.0,240,156,5.0,28.0
8158,35.0,240,156,5.0,28.0
8159,42.0,240,156,5.0,29.0
8160,35.0,240,156,5.0,29.0
8161,42.0,240,156,5.0,30.0
8162,58.0,240,156,2.0,30.0
8163,61.0,0,156,2.0,30.0
8164,66.0,0,156,1.0,30.0
8165,64.0,0,156,2.0,30.0
8166,66.0,240,156,1.0,30.0
8167,58.0,0,156,2.0,30.0
8168,64.0,0,156,2.0,30.0
8169,61.0,0,156,2.0,30.0
8170,66.0,0,156,1.0,31.0
8171,61.0,240,156,2.0,31.0
8172,64.0,0,156,2.0,31.0
8173,58.0,0,156,2.0,31.0
8174,59.0,0,156,2.0,31.0
8175,63.0,240,156,2.0,31.0
8176,42.0,0,156,5.0,31.0
8177,66.0,0,192,1.0,31.0
8178,35.0,240,156,5.0,32.0
8179,42.0,240,156,5.0,32.0
8180,58.0,0,156,2.0,32.0
8181,61.0,0,156,1.0,32.0
8182,52.0,240,156,2.0,32.0
8183,54.0,0,156,2.0,32.0
8184,63.0,0,156,1.0,33.0
8185,58.0,240,156,2.0,33.0
8186,52.0,0,156,2.0,33.0
8187,54.0,0,156,2.0,33.0
8188,58.0,0,156,2.0,33.0
8189,54.0,240,156,2.0,33.0
8190,52.0,0,156,2.0,33.0
8191,61.0,0,156,1.0,33.0
8192,59.0,0,156,1.0,34.0
8193,42.0,0,156,5.0,34.0
8194,54.0,240,156,2.0,34.0
8195,51.0,0,156,2.0,34.0
8196,35.0,240,156,5.0,34.0
8197,42.0,240,156,5.0,34.0
8198,66.0,0,156,1.0,35.0
8199,58.0,0,156,2.0,35.0
8200,64.0,0,156,2.0,35.0
8201,61.0,240,156,2.0,35.0
8202,58.0,0,156,2.0,35.0
8203,64.0,0,156,2.0,35.0
8204,66.0,0,156,1.0,35.0
8205,61.0,240,156,2.0,35.0
8206,61.0,0,156,2.0,36.0
8207,64.0,0,156,2.0,36.0
8208,58.0,0,156,2.0,36.0
8209,66.0,240,156,1.0,36.0
8210,59.0,0,156,2.0,36.0
8211,63.0,0,156,2.0,36.0
8212,42.0,0,156,5.0,36.0
8213,66.0,240,156,1.0,36.0
8214,35.0,240,156,5.0,37.0
8215,42.0,240,156,5.0,37.0
8216,61.0,0,156,1.0,37.0
8217,54.0,240,156,2.0,37.0
8218,58.0,0,156,2.0,37.0
8219,52.0,0,156,2.0,38.0
8220,58.0,0,156,2.0,38.0
8221,54.0,0,156,2.0,38.0
8222,63.0,240,156,1.0,38.0
8223,61.0,240,156,1.0,38.0
8224,58.0,0,156,2.0,38.0
8225,52.0,0,156,2.0,38.0
8226,54.0,0,156,2.0,38.0
8227,42.0,0,156,5.0,39.0
8228,54.0,0,156,2.0,39.0
8229,51.0,240,156,2.0,39.0
8230,59.0,0,156,1.0,39.0
8231,35.0,240,156,5.0,39.0
8232,42.0,240,156,5.0,38.0
8233,66.0,0,156,2.0,40.0
8234,60.0,240,156,2.0,40.0
8235,63.0,0,156,2.0,40.0
8236,68.0,0,156,1.0,40.0
8237,68.0,0,156,1.0,42.0
8238,66.0,240,156,2.0,42.0
8239,60.0,0,156,2.0,42.0
8240,63.0,0,156,2.0,42.0
8241,63.0,0,156,2.0,43.0
8242,66.0,240,156,2.0,43.0
8243,68.0,0,156,1.0,43.0
8244,60.0,0,156,2.0,43.0
8245,68.0,0,156,1.0,45.0
8246,64.0,0,156,2.0,45.0
8247,61.0,240,156,2.0,45.0
8248,42.0,0,156,5.0,45.0
8249,35.0,240,156,5.0,47.0
8250,42.0,240,156,5.0,49.0
8251,61.0,0,156,2.0,51.0
8252,58.0,240,156,2.0,51.0
8253,64.0,0,156,2.0,51.0
8254,66.0,0,156,1.0,51.0
8255,66.0,0,156,1.0,53.0
8256,63.0,0,156,2.0,53.0
8257,58.0,240,156,2.0,53.0
8258,64.0,0,156,2.0,53.0
8259,66.0,240,156,1.0,55.0
8260,61.0,0,156,2.0,55.0
8261,64.0,0,156,2.0,55.0
8262,58.0,0,156,2.0,55.0
8263,35.0,0,156,5.0,57.0
8264,66.0,240,156,1.0,57.0
8265,59.0,0,156,2.0,57.0
8266,63.0,0,156,2.0,57.0
8267,42.0,240,156,5.0,59.0
8268,35.0,240,156,5.0,61.0
8269,63.0,0,156,2.0,63.0
8270,42.0,0,156,5.0,63.0
8271,69.0,240,156,1.0,63.0
8272,66.0,0,156,2.0,63.0
8273,63.0,0,156,2.0,65.0
8274,66.0,0,156,2.0,65.0
8275,71.0,0,156,1.0,65.0
8276,69.0,240,156,2.0,65.0
8277,63.0,0,156,2.0,67.0
8278,66.0,240,156,2.0,67.0
8279,69.0,0,156,1.0,67.0
8280,35.0,240,156,5.0,69.0
8281,64.0,0,156,2.0,69.0
8282,68.0,0,156,2.0,69.0
8283,71.0,0,156,1.0,69.0
8284,42.0,240,156,5.0,70.0
8285,35.0,240,156,5.0,72.0
8286,68.0,0,156,2.0,74.0
8287,71.0,0,156,2.0,74.0
8288,65.0,0,156,2.0,74.0
8289,73.0,0,156,1.0,74.0
8290,42.0,240,156,5.0,74.0
8291,68.0,240,156,2.0,76.0
8292,73.0,0,156,1.0,76.0
8293,65.0,0,156,2.0,76.0
8294,68.0,0,156,2.0,78.0
8295,73.0,0,156,1.0,78.0
8296,65.0,240,156,2.0,78.0
8297,71.0,0,156,2.0,78.0
8298,73.0,0,156,1.0,80.0
8299,66.0,0,156,2.0,80.0
8300,70.0,0,156,2.0,80.0
8301,35.0,240,156,5.0,80.0
8302,42.0,240,156,5.0,82.0
8303,35.0,240,156,5.0,84.0
8304,82.0,0,156,2.0,88.0
8305,85.0,240,156,2.0,88.0
8306,90.0,0,156,1.0,88.0
8307,42.0,0,156,5.0,88.0
8308,76.0,0,156,2.0,88.0
8309,90.0,0,156,1.0,91.0
8310,76.0,0,156,2.0,91.0
8311,82.0,240,156,2.0,91.0
8312,85.0,0,156,2.0,91.0
8313,76.0,0,156,2.0,95.0
8314,85.0,0,156,2.0,95.0
8315,90.0,240,156,1.0,95.0
8316,82.0,0,156,2.0,95.0
8317,35.0,0,156,5.0,98.0
8318,90.0,240,156,1.0,98.0
8319,47.0,0,156,5.0,98.0
8320,82.0,0,156,2.0,98.0
8321,76.0,0,156,2.0,98.0
8322,85.0,0,156,2.0,98.0
8323,54.0,0,156,5.0,102.0
8324,82.0,0,156,2.0,102.0
8325,85.0,240,156,2.0,102.0
8326,76.0,0,156,2.0,102.0
8327,42.0,0,156,5.0,102.0
8328,90.0,0,156,1.0,102.0
8329,47.0,240,156,5.0,105.0
8330,35.0,0,156,5.0,105.0
8331,85.0,0,156,2.0,105.0
8332,76.0,0,156,2.0,105.0
8333,82.0,0,156,2.0,105.0
8334,90.0,0,156,1.0,105.0
8335,90.0,0,156,1.0,109.0
8336,85.0,0,156,2.0,109.0
8337,82.0,0,156,2.0,109.0
8338,76.0,0,156,2.0,109.0
8339,54.0,0,156,5.0,109.0
8340,42.0,240,156,5.0,109.0
8341,90.0,0,156,1.0,112.0
8342,85.0,240,156,2.0,112.0
8343,35.0,0,156,5.0,112.0
8344,47.0,0,156,5.0,112.0
8345,82.0,0,156,2.0,112.0
8346,76.0,0,156,2.0,112.0
8347,54.0,0,156,5.0,116.0
8348,42.0,240,156,5.0,116.0
8349,76.0,0,156,2.0,116.0
8350,90.0,0,156,1.0,116.0
8351,85.0,0,156,2.0,116.0
8352,82.0,0,156,2.0,116.0
8353,75.0,240,156,2.0,120.0
8354,87.0,0,156,1.0,120.0
8355,47.0,0,156,5.0,120.0
8356,35.0,0,156,5.0,120.0
8357,83.0,0,156,2.0,120.0
8358,59.0,0,156,5.0,106.0
8359,83.0,0,156,1.0,106.0
8360,71.0,480,156,2.0,106.0
8361,54.0,240,156,5.0,103.0
8362,66.0,0,156,2.0,103.0
8363,78.0,0,156,1.0,103.0
8364,51.0,480,156,5.0,98.0
8365,75.0,0,156,1.0,98.0
8366,63.0,0,156,2.0,98.0
8367,47.0,240,156,5.0,95.0
8368,71.0,0,156,1.0,95.0
8369,59.0,0,156,2.0,95.0
8370,43.0,0,156,5.0,95.0
8371,67.0,480,156,1.0,95.0
8372,55.0,0,156,2.0,95.0
8373,85.0,0,156,2.0,99.0
8374,54.0,0,156,2.0,99.0
8375,76.0,0,156,2.0,99.0
8376,82.0,0,156,2.0,99.0
8377,90.0,0,156,1.0,99.0
8378,42.0,240,156,5.0,99.0
8379,35.0,0,156,5.0,103.0
8380,76.0,0,156,2.0,103.0
8381,47.0,0,156,2.0,103.0
8382,82.0,0,156,2.0,103.0
8383,85.0,0,156,2.0,103.0
8384,90.0,240,156,1.0,103.0
8385,90.0,0,156,1.0,108.0
8386,54.0,0,156,2.0,108.0
8387,82.0,0,156,2.0,108.0
8388,85.0,0,156,2.0,108.0
8389,76.0,0,156,2.0,108.0
8390,42.0,240,156,5.0,108.0
8391,35.0,0,156,5.0,114.0
8392,75.0,0,156,2.0,115.0
8393,83.0,240,156,2.0,115.0
8394,87.0,0,156,1.0,115.0
8395,47.0,0,156,2.0,115.0
8396,83.0,480,156,1.0,110.0
8397,71.0,0,156,2.0,110.0
8398,59.0,0,156,5.0,110.0
8399,66.0,240,156,2.0,108.0
8400,78.0,0,156,1.0,108.0
8401,54.0,0,156,5.0,108.0
8402,63.0,0,156,2.0,104.0
8403,51.0,480,156,5.0,104.0
8404,75.0,0,156,1.0,104.0
8405,71.0,0,156,1.0,103.0
8406,47.0,240,156,5.0,103.0
8407,59.0,0,156,2.0,103.0
8408,55.0,0,156,2.0,107.0
8409,67.0,480,156,1.0,107.0
8410,43.0,0,156,5.0,107.0
8411,85.0,0,156,2.0,111.0
8412,76.0,0,156,2.0,111.0
8413,82.0,0,156,2.0,111.0
8414,54.0,0,156,2.0,111.0
8415,90.0,0,156,1.0,111.0
8416,42.0,240,156,5.0,111.0
8417,35.0,0,156,5.0,115.0
8418,76.0,0,156,2.0,115.0
8419,85.0,0,156,2.0,115.0
8420,47.0,0,156,2.0,115.0
8421,82.0,0,156,2.0,115.0
8422,90.0,240,156,1.0,115.0
8423,90.0,0,156,1.0,119.0
8424,76.0,0,156,2.0,119.0
8425,85.0,0,156,2.0,119.0
8426,82.0,0,156,2.0,119.0
8427,42.0,240,156,5.0,119.0
8428,54.0,0,156,2.0,119.0
8429,35.0,0,156,5.0,124.0
8430,47.0,0,156,2.0,124.0
8431,83.0,240,156,2.0,124.0
8432,75.0,0,156,2.0,124.0
8433,87.0,0,156,1.0,124.0
8434,59.0,0,156,5.0,117.0
8435,83.0,0,156,1.0,117.0
8436,71.0,480,156,2.0,117.0
8437,78.0,0,156,1.0,114.0
8438,66.0,0,156,2.0,114.0
8439,54.0,240,156,5.0,114.0
8440,64.0,480,156,2.0,108.0
8441,52.0,0,156,5.0,108.0
8442,76.0,0,156,1.0,108.0
8443,48.0,240,156,5.0,105.0
8444,72.0,0,156,1.0,105.0
8445,60.0,0,156,2.0,105.0
8446,69.0,0,156,1.0,100.0
8447,57.0,0,156,2.0,100.0
8448,45.0,480,156,5.0,100.0
8449,66.0,0,156,1.0,97.0
8450,42.0,240,156,5.0,97.0
8451,54.0,0,156,2.0,97.0
8452,63.0,0,156,1.0,91.0
8453,39.0,480,156,5.0,91.0
8454,51.0,0,156,2.0,91.0
8455,59.0,0,240,1.0,88.0
8456,35.0,0,240,5.0,88.0
8457,47.0,240,240,2.0,88.0
8458,31.0,1440,240,5.0,61.0
8459,43.0,0,240,2.0,61.0
8460,55.0,0,240,1.0,61.0
8461,40.0,0,240,2.0,58.0
8462,52.0,0,240,1.0,58.0
8463,28.0,1440,720,5.0,58.0
8464,86.0,0,720,1.0,54.0
8465,32.0,0,720,5.0,54.0
8466,83.0,720,720,2.0,54.0
8467,33.0,0,720,5.0,52.0
8468,84.0,720,720,1.0,52.0
8469,81.0,0,720,2.0,52.0
8470,78.0,0,720,2.0,50.0
8471,36.0,0,720,5.0,50.0
8472,81.0,720,720,1.0,50.0
8473,83.0,0,156,1.0,47.0
8474,79.0,0,156,2.0,47.0
8475,79.0,240,156,1.0,47.0
8476,76.0,0,156,2.0,47.0
8477,81.0,240,156,1.0,46.0
8478,78.0,0,156,2.0,46.0
8479,40.0,720,720,5.0,47.0
8480,78.0,240,156,1.0,45.0
8481,75.0,0,156,2.0,45.0
8482,79.0,240,156,1.0,45.0
8483,76.0,0,156,2.0,45.0
8484,73.0,0,156,2.0,44.0
8485,76.0,240,156,1.0,44.0
8486,34.0,0,720,5.0,45.0
8487,75.0,240,156,2.0,43.0
8488,78.0,0,156,1.0,43.0
8489,75.0,480,156,2.0,42.0
8490,78.0,0,156,1.0,42.0
8491,35.0,0,720,5.0,43.0
8492,47.0,240,720,5.0,62.0
8493,71.0,0,870,1.0,62.0
8494,70.0,0,156,2.0,42.0
8495,73.0,240,156,1.0,42.0
8496,75.0,0,156,1.0,41.0
8497,71.0,240,156,2.0,41.0
8498,43.0,720,720,5.0,42.0
8499,73.0,240,156,2.0,41.0
8500,76.0,0,156,1.0,41.0
8501,75.0,240,156,2.0,40.0
8502,78.0,0,156,1.0,40.0
8503,76.0,0,156,2.0,39.0
8504,79.0,240,156,1.0,39.0
8505,40.0,0,720,5.0,41.0
8506,78.0,0,156,1.0,39.0
8507,75.0,0,156,2.0,39.0
8508,83.0,480,156,1.0,38.0
8509,35.0,240,720,5.0,39.0
8510,47.0,0,720,5.0,57.0
8511,71.0,240,900,1.0,57.0
8512,70.0,0,156,2.0,35.0
8513,73.0,240,156,1.0,35.0
8514,75.0,0,156,1.0,35.0
8515,71.0,240,156,2.0,35.0
8516,43.0,720,720,5.0,36.0
8517,76.0,0,156,1.0,34.0
8518,73.0,0,156,2.0,34.0
8519,75.0,0,156,2.0,34.0
8520,78.0,240,156,1.0,34.0
8521,79.0,0,156,1.0,33.0
8522,76.0,240,156,2.0,33.0
8523,40.0,240,720,5.0,34.0
8524,78.0,240,192,1.0,32.0
8525,73.0,0,192,2.0,32.0
8526,70.0,0,192,2.0,32.0
8527,42.0,0,720,5.0,32.0
8528,90.0,0,660,1.0,45.0
8529,85.0,480,900,1.0,31.0
8530,37.0,0,660,5.0,40.0
8531,78.0,240,667,2.0,45.0
8532,82.0,0,667,2.0,45.0
8533,66.0,0,240,2.0,29.0
8534,70.0,0,240,1.0,29.0
8535,61.0,720,480,5.0,29.0
8536,58.0,0,480,5.0,29.0
8537,54.0,0,480,5.0,29.0
8538,37.0,240,480,5.0,39.0
8539,78.0,0,660,2.0,42.0
8540,85.0,480,900,1.0,28.0
8541,82.0,0,667,2.0,42.0
8542,90.0,0,667,1.0,42.0
8543,70.0,720,240,1.0,26.0
8544,66.0,0,240,2.0,26.0
8545,54.0,0,480,5.0,26.0
8546,61.0,0,480,5.0,26.0
8547,58.0,0,480,5.0,26.0
8548,90.0,240,2040,1.0,37.0
8549,82.0,0,2040,2.0,37.0
8550,78.0,0,2040,2.0,37.0
8551,85.0,480,2287,1.0,25.0
8552,37.0,0,2047,5.0,32.0
8553,49.0,0,156,5.0,99.0
8554,73.0,0,156,1.0,99.0
8555,61.0,2400,156,2.0,99.0
8556,37.0,0,156,5.0,99.0
8557,39.0,0,156,5.0,102.0
8558,51.0,0,156,5.0,102.0
8559,63.0,0,156,2.0,102.0
8560,75.0,240,156,1.0,102.0
8561,53.0,0,156,5.0,105.0
8562,77.0,240,156,1.0,105.0
8563,41.0,0,156,5.0,105.0
8564,65.0,0,156,2.0,105.0
8565,42.0,0,156,5.0,109.0
8566,78.0,240,156,1.0,109.0
8567,54.0,0,156,5.0,109.0
8568,66.0,0,156,2.0,109.0
8569,68.0,0,156,2.0,112.0
8570,56.0,0,156,5.0,112.0
8571,80.0,240,156,1.0,112.0
8572,44.0,0,156,5.0,112.0
8573,73.0,0,156,2.0,117.0
8574,58.0,240,156,5.0,117.0
8575,78.0,0,156,2.0,117.0
8576,46.0,0,156,5.0,117.0
8577,70.0,0,156,2.0,117.0
8578,82.0,0,156,1.0,117.0
8579,85.0,0,156,1.0,115.0
8580,49.0,0,156,5.0,115.0
8581,37.0,480,156,5.0,115.0
8582,73.0,0,156,2.0,115.0
8583,78.0,240,156,2.0,123.0
8584,90.0,0,156,1.0,123.0
8585,42.0,0,156,5.0,123.0
8586,30.0,0,156,5.0,123.0
8587,59.0,0,0,4.0,119.0
8588,85.0,0,720,2.0,119.0
8589,93.0,720,720,2.0,119.0
8590,97.0,0,720,1.0,119.0
8591,73.0,0,720,4.0,119.0
8592,69.0,0,720,4.0,119.0
8593,92.0,720,720,2.0,117.0
8594,83.0,0,720,2.0,117.0
8595,95.0,0,720,1.0,117.0
8596,68.0,0,0,4.0,114.0
8597,71.0,0,720,4.0,116.0
8598,64.0,0,720,4.0,114.0
8599,92.0,0,720,1.0,114.0
8600,80.0,0,720,2.0,114.0
8601,88.0,720,720,2.0,114.0
8602,47.0,0,3007,5.0,126.0
8603,35.0,0,3015,5.0,126.0
8604,93.0,0,156,1.0,106.0
8605,90.0,0,156,2.0,106.0
8606,81.0,0,156,2.0,106.0
8607,69.0,0,156,4.0,106.0
8608,66.0,720,156,4.0,106.0
8609,87.0,0,156,2.0,106.0
8610,90.0,0,156,1.0,106.0
8611,78.0,0,156,2.0,106.0
8612,63.0,240,156,4.0,106.0
8613,66.0,0,156,4.0,106.0
8614,80.0,0,156,2.0,105.0
8615,68.0,0,156,4.0,105.0
8616,64.0,240,156,4.0,105.0
8617,88.0,0,156,2.0,105.0
8618,92.0,0,156,1.0,105.0
8619,61.0,0,156,4.0,105.0
8620,64.0,240,156,4.0,105.0
8621,76.0,0,156,2.0,105.0
8622,85.0,0,156,2.0,105.0
8623,88.0,0,156,1.0,105.0
8624,78.0,0,156,2.0,104.0
8625,63.0,0,156,4.0,104.0
8626,87.0,240,156,2.0,104.0
8627,66.0,0,156,4.0,104.0
8628,90.0,0,156,1.0,104.0
8629,83.0,0,156,2.0,104.0
8630,75.0,240,156,2.0,104.0
8631,87.0,0,156,1.0,104.0
8632,59.0,0,156,4.0,104.0
8633,63.0,0,156,4.0,104.0
8634,61.0,0,156,4.0,104.0
8635,64.0,0,156,4.0,104.0
8636,85.0,0,156,2.0,104.0
8637,88.0,0,156,1.0,104.0
8638,76.0,240,156,2.0,104.0
8639,61.0,0,156,4.0,103.0
8640,85.0,0,156,2.0,103.0
8641,76.0,0,156,2.0,103.0
8642,64.0,480,156,4.0,103.0
8643,88.0,0,156,1.0,103.0
8644,81.0,0,660,2.0,119.0
8645,73.0,0,660,2.0,119.0
8646,57.0,0,667,4.0,120.0
8647,61.0,240,667,4.0,120.0
8648,85.0,0,667,1.0,119.0
8649,71.0,240,156,2.0,100.0
8650,83.0,0,156,1.0,100.0
8651,87.0,240,156,1.0,100.0
8652,75.0,0,156,2.0,100.0
8653,44.0,720,720,5.0,101.0
8654,56.0,0,720,5.0,101.0
8655,88.0,0,156,1.0,99.0
8656,76.0,0,156,2.0,99.0
8657,78.0,0,156,2.0,99.0
8658,90.0,240,156,1.0,99.0
8659,59.0,0,480,4.0,99.0
8660,64.0,240,480,4.0,99.0
8661,56.0,0,480,4.0,99.0
8662,80.0,0,156,2.0,98.0
8663,92.0,240,156,1.0,98.0
8664,95.0,0,156,1.0,98.0
8665,88.0,0,156,2.0,98.0
8666,83.0,0,156,2.0,98.0
8667,81.0,0,156,2.0,97.0
8668,93.0,480,156,1.0,97.0
8669,42.0,240,720,5.0,98.0
8670,54.0,0,720,5.0,98.0
8671,57.0,0,480,4.0,114.0
8672,64.0,0,480,4.0,114.0
8673,61.0,240,480,4.0,114.0
8674,54.0,0,480,4.0,114.0
8675,88.0,0,660,1.0,114.0
8676,76.0,0,667,2.0,114.0
8677,85.0,240,156,1.0,99.0
8678,73.0,0,156,2.0,99.0
8679,87.0,0,156,1.0,102.0
8680,75.0,240,156,2.0,102.0
8681,52.0,0,720,5.0,95.0
8682,40.0,720,720,5.0,95.0
8683,76.0,0,156,2.0,106.0
8684,88.0,240,156,1.0,106.0
8685,78.0,240,156,2.0,110.0
8686,90.0,0,156,1.0,110.0
8687,64.0,0,480,4.0,106.0
8688,52.0,0,480,4.0,106.0
8689,56.0,0,480,4.0,106.0
8690,61.0,0,480,4.0,106.0
8691,92.0,240,156,1.0,113.0
8692,80.0,0,156,2.0,113.0
8693,83.0,0,156,2.0,120.0
8694,95.0,0,156,1.0,120.0
8695,87.0,0,156,2.0,120.0
8696,93.0,0,156,1.0,111.0
8697,81.0,480,156,2.0,111.0
8698,47.0,240,720,5.0,120.0
8699,35.0,0,720,5.0,120.0
8700,54.0,0,480,4.0,112.0
8701,57.0,0,480,4.0,112.0
8702,63.0,0,480,4.0,112.0
8703,59.0,0,480,4.0,112.0
8704,75.0,0,660,2.0,118.0
8705,87.0,240,660,1.0,118.0
8706,77.0,0,240,2.0,113.0
8707,86.0,0,240,2.0,113.0
8708,52.0,0,720,2.0,122.0
8709,89.0,480,240,1.0,113.0
8710,76.0,240,480,2.0,121.0
8711,84.0,0,480,2.0,121.0
8712,88.0,0,480,1.0,121.0
8713,84.0,0,240,1.0,116.0
8714,65.0,0,240,5.0,112.0
8715,72.0,0,240,2.0,116.0
8716,81.0,480,240,2.0,116.0
8717,86.0,0,156,1.0,115.0
8718,74.0,0,156,2.0,115.0
8719,83.0,0,156,2.0,115.0
8720,71.0,0,156,2.0,113.0
8721,80.0,0,156,2.0,113.0
8722,83.0,240,156,1.0,113.0
8723,64.0,240,487,5.0,118.0
8724,84.0,0,156,1.0,112.0
8725,81.0,0,156,2.0,112.0
8726,72.0,0,156,2.0,112.0
8727,60.0,240,240,5.0,112.0
8728,81.0,0,156,1.0,111.0
8729,78.0,0,156,2.0,111.0
8730,69.0,0,156,2.0,111.0
8731,71.0,0,156,2.0,110.0
8732,80.0,0,156,2.0,110.0
8733,83.0,240,156,1.0,110.0
8734,62.0,240,487,5.0,110.0
8735,76.0,240,156,2.0,108.0
8736,80.0,0,156,1.0,108.0
8737,68.0,0,156,2.0,108.0
8738,52.0,0,2152,5.0,120.0
8739,59.0,0,247,5.0,108.0
8740,28.0,0,3015,5.0,122.0
8741,40.0,720,3030,5.0,122.0
8742,61.0,0,156,5.0,106.0
8743,76.0,240,156,2.0,107.0
8744,70.0,0,156,2.0,107.0
8745,52.0,0,156,5.0,106.0
8746,82.0,0,156,1.0,107.0
8747,91.0,0,240,1.0,108.0
8748,79.0,480,240,2.0,108.0
8749,88.0,0,240,2.0,108.0
8750,78.0,240,480,2.0,115.0
8751,87.0,0,480,2.0,115.0
8752,90.0,0,480,1.0,115.0
8753,83.0,0,240,2.0,110.0
8754,75.0,0,240,2.0,110.0
8755,67.0,0,240,5.0,106.0
8756,87.0,480,240,1.0,110.0
8757,76.0,0,156,2.0,109.0
8758,85.0,0,156,2.0,109.0
8759,88.0,0,156,1.0,109.0
8760,73.0,0,156,2.0,108.0
8761,82.0,240,156,2.0,108.0
8762,85.0,0,156,1.0,108.0
8763,66.0,240,487,5.0,116.0
8764,75.0,0,156,2.0,107.0
8765,87.0,0,156,1.0,107.0
8766,83.0,240,156,2.0,107.0
8767,63.0,0,240,5.0,108.0
8768,83.0,240,156,1.0,107.0
8769,71.0,0,156,2.0,107.0
8770,79.0,0,156,2.0,107.0
8771,72.0,0,156,2.0,106.0
8772,81.0,0,156,2.0,106.0
8773,84.0,240,156,1.0,106.0
8774,64.0,0,487,5.0,106.0
8775,81.0,240,156,1.0,105.0
8776,69.0,0,156,2.0,105.0
8777,78.0,0,156,2.0,105.0
8778,52.0,0,0,5.0,102.0
8779,61.0,0,240,5.0,104.0
8780,28.0,0,2280,5.0,116.0
8781,40.0,0,2287,5.0,116.0
8782,63.0,0,156,5.0,102.0
8783,83.0,0,156,1.0,104.0
8784,71.0,0,156,2.0,104.0
8785,78.0,240,156,2.0,104.0
8786,84.0,0,240,2.0,102.0
8787,93.0,0,240,2.0,102.0
8788,96.0,480,240,1.0,102.0
8789,91.0,240,480,2.0,111.0
8790,95.0,0,480,1.0,111.0
8791,83.0,0,480,2.0,111.0
8792,91.0,0,240,1.0,100.0
8793,79.0,0,240,2.0,100.0
8794,60.0,0,240,5.0,100.0
8795,72.0,480,240,5.0,100.0
8796,88.0,0,240,2.0,100.0
8797,40.0,0,847,5.0,113.0
8798,28.0,0,847,5.0,113.0
8799,90.0,240,156,2.0,104.0
8800,81.0,0,156,2.0,104.0
8801,93.0,0,156,1.0,104.0
8802,78.0,0,156,2.0,105.0
8803,87.0,240,156,2.0,105.0
8804,90.0,0,156,1.0,105.0
8805,71.0,0,495,5.0,108.0
8806,59.0,0,495,5.0,108.0
8807,91.0,0,156,1.0,106.0
8808,79.0,0,156,2.0,106.0
8809,88.0,0,156,2.0,106.0
8810,67.0,0,156,5.0,103.0
8811,55.0,240,156,5.0,103.0
8812,88.0,0,156,1.0,107.0
8813,84.0,0,156,2.0,107.0
8814,76.0,240,156,2.0,107.0
8815,57.0,0,156,5.0,104.0
8816,69.0,0,156,5.0,104.0
8817,90.0,240,156,1.0,108.0
8818,78.0,0,156,2.0,108.0
8819,86.0,0,156,2.0,108.0
8820,66.0,0,156,5.0,106.0
8821,54.0,0,156,5.0,106.0
8822,55.0,0,156,5.0,107.0
8823,67.0,0,156,5.0,107.0
8824,74.0,0,156,2.0,109.0
8825,83.0,0,156,2.0,109.0
8826,86.0,240,156,1.0,109.0
8827,88.0,0,156,1.0,110.0
8828,76.0,0,156,2.0,110.0
8829,84.0,240,156,2.0,110.0
8830,64.0,0,156,5.0,108.0
8831,52.0,0,156,5.0,108.0
8832,72.0,0,156,2.0,111.0
8833,81.0,240,156,2.0,111.0
8834,84.0,0,156,1.0,111.0
8835,54.0,0,156,5.0,110.0
8836,66.0,0,156,5.0,110.0
8837,83.0,0,156,2.0,112.0
8838,74.0,0,156,2.0,112.0
8839,50.0,0,156,5.0,111.0
8840,62.0,0,156,5.0,111.0
8841,86.0,240,156,1.0,112.0
8842,79.0,0,156,2.0,113.0
8843,71.0,0,156,2.0,113.0
8844,52.0,240,156,5.0,112.0
8845,64.0,0,156,5.0,112.0
8846,83.0,0,156,1.0,113.0
8847,81.0,0,156,2.0,114.0
8848,72.0,0,156,2.0,114.0
8849,84.0,0,156,1.0,114.0
8850,48.0,0,156,5.0,114.0
8851,60.0,240,156,5.0,114.0
8852,69.0,0,156,2.0,115.0
8853,78.0,0,156,2.0,115.0
8854,62.0,0,156,5.0,115.0
8855,50.0,0,156,5.0,115.0
8856,81.0,240,156,1.0,115.0
8857,47.0,0,156,5.0,116.0
8858,71.0,240,156,2.0,116.0
8859,79.0,0,156,2.0,116.0
8860,59.0,0,156,5.0,116.0
8861,83.0,0,156,1.0,116.0
8862,48.0,240,156,5.0,118.0
8863,79.0,0,156,1.0,117.0
8864,60.0,0,156,5.0,118.0
8865,67.0,0,156,2.0,117.0
8866,76.0,0,156,2.0,117.0
8867,81.0,0,156,1.0,118.0
8868,78.0,0,156,2.0,118.0
8869,69.0,0,156,2.0,118.0
8870,45.0,240,156,5.0,119.0
8871,57.0,0,156,5.0,119.0
8872,75.0,240,156,2.0,119.0
8873,66.0,0,156,2.0,119.0
8874,59.0,0,156,5.0,120.0
8875,47.0,0,156,5.0,120.0
8876,78.0,0,156,1.0,119.0
8877,67.0,0,156,2.0,120.0
8878,76.0,0,156,2.0,120.0
8879,55.0,0,156,5.0,122.0
8880,43.0,0,156,5.0,122.0
8881,79.0,240,156,1.0,120.0
8882,57.0,0,156,5.0,123.0
8883,45.0,0,156,5.0,123.0
8884,72.0,0,156,2.0,121.0
8885,64.0,0,156,2.0,121.0
8886,76.0,240,156,1.0,121.0
8887,59.0,0,480,5.0,125.0
8888,71.0,0,480,5.0,125.0
8889,92.0,40,480,1.0,125.0
8890,68.0,0,480,4.0,125.0
8891,80.0,0,480,2.0,125.0
8892,88.0,0,480,2.0,125.0
8893,64.0,0,0,4.0,123.0
8894,91.0,0,480,1.0,123.0
8895,79.0,0,480,2.0,123.0
8896,88.0,0,480,2.0,123.0
8897,71.0,0,480,5.0,123.0
8898,59.0,480,480,5.0,123.0
8899,67.0,0,480,4.0,123.0
8900,87.0,0,480,2.0,122.0
8901,90.0,480,480,1.0,122.0
8902,63.0,0,480,4.0,122.0
8903,66.0,0,480,4.0,122.0
8904,78.0,0,480,2.0,122.0
8905,59.0,0,480,5.0,122.0
8906,71.0,0,480,5.0,122.0
8907,62.0,0,480,4.0,120.0
8908,65.0,0,480,4.0,120.0
8909,86.0,480,480,2.0,120.0
8910,77.0,0,480,2.0,120.0
8911,89.0,0,480,1.0,120.0
8912,71.0,0,0,5.0,118.0
8913,59.0,0,0,5.0,118.0
8914,61.0,480,480,4.0,118.0
8915,76.0,0,480,2.0,118.0
8916,88.0,0,480,1.0,118.0
8917,85.0,0,480,2.0,118.0
8918,64.0,0,480,4.0,118.0
8919,71.0,0,0,5.0,116.0
8920,59.0,0,0,5.0,116.0
8921,63.0,0,480,4.0,116.0
8922,87.0,480,480,1.0,116.0
8923,84.0,0,480,2.0,116.0
8924,75.0,0,480,2.0,116.0
8925,86.0,0,480,1.0,115.0
8926,74.0,0,480,2.0,115.0
8927,83.0,0,480,2.0,115.0
8928,62.0,480,480,4.0,115.0
8929,71.0,0,0,5.0,113.0
8930,59.0,0,480,5.0,115.0
8931,58.0,0,480,5.0,113.0
8932,71.0,0,0,5.0,111.0
8933,61.0,0,480,4.0,113.0
8934,73.0,0,480,2.0,113.0
8935,82.0,0,480,2.0,113.0
8936,85.0,480,480,1.0,113.0
8937,57.0,0,480,5.0,111.0
8938,60.0,480,480,4.0,111.0
8939,81.0,0,480,2.0,111.0
8940,72.0,0,480,2.0,111.0
8941,84.0,0,480,1.0,111.0
8942,71.0,0,480,2.0,109.0
8943,80.0,0,480,2.0,109.0
8944,83.0,480,480,1.0,109.0
8945,59.0,0,0,4.0,108.0
8946,56.0,0,480,5.0,109.0
8947,68.0,0,480,5.0,109.0
8948,47.0,40,5056,5.0,125.0
8949,79.0,480,400,2.0,108.0
8950,83.0,0,400,1.0,108.0
8951,67.0,0,400,5.0,108.0
8952,55.0,0,400,5.0,108.0
8953,71.0,0,400,2.0,108.0
8954,35.0,160,5720,5.0,125.0
8955,57.0,40,480,4.0,106.0
8956,78.0,0,480,2.0,106.0
8957,75.0,0,480,2.0,106.0
8958,71.0,0,480,2.0,106.0
8959,54.0,40,520,5.0,106.0
8960,47.0,400,560,5.0,106.0
8961,66.0,0,480,5.0,106.0
8962,83.0,0,480,1.0,106.0
8963,40.0,0,156,5.0,102.0
8964,52.0,0,156,5.0,102.0
8965,64.0,480,156,2.0,102.0
8966,76.0,0,156,1.0,102.0
8967,74.0,0,156,1.0,101.0
8968,50.0,240,156,4.0,101.0
8969,47.0,0,156,5.0,101.0
8970,71.0,0,156,2.0,101.0
8971,40.0,240,156,5.0,101.0
8972,52.0,0,156,5.0,101.0
8973,64.0,0,156,2.0,101.0
8974,76.0,0,156,1.0,101.0
8975,72.0,0,156,1.0,100.0
8976,45.0,0,156,5.0,100.0
8977,48.0,0,156,4.0,100.0
8978,69.0,240,156,2.0,100.0
8979,64.0,0,156,2.0,99.0
8980,76.0,0,156,1.0,99.0
8981,40.0,0,156,5.0,99.0
8982,52.0,240,156,5.0,99.0
8983,43.0,0,156,5.0,98.0
8984,71.0,240,156,1.0,98.0
8985,47.0,0,156,4.0,98.0
8986,67.0,0,156,2.0,98.0
8987,52.0,0,156,5.0,97.0
8988,40.0,0,156,5.0,97.0
8989,76.0,0,156,1.0,97.0
8990,64.0,240,156,2.0,97.0
8991,66.0,240,156,2.0,96.0
8992,42.0,0,156,5.0,96.0
8993,45.0,0,156,4.0,96.0
8994,69.0,0,156,1.0,96.0
8995,76.0,240,156,1.0,95.0
8996,40.0,0,156,5.0,95.0
8997,52.0,0,156,5.0,95.0
8998,64.0,0,156,2.0,95.0
8999,43.0,0,156,4.0,94.0
9000,67.0,240,156,1.0,94.0
9001,64.0,0,156,2.0,94.0
9002,76.0,240,156,1.0,94.0
9003,52.0,0,156,5.0,94.0
9004,40.0,0,156,5.0,94.0
9005,66.0,0,156,1.0,93.0
9006,42.0,0,156,4.0,93.0
9007,38.0,240,156,5.0,93.0
9008,62.0,0,156,2.0,93.0
9009,64.0,0,156,2.0,92.0
9010,52.0,240,156,5.0,92.0
9011,76.0,0,156,1.0,92.0
9012,60.0,0,156,2.0,91.0
9013,36.0,240,156,5.0,91.0
9014,40.0,0,156,4.0,91.0
9015,64.0,0,156,1.0,91.0
9016,64.0,0,156,2.0,90.0
9017,40.0,0,156,5.0,90.0
9018,76.0,240,156,1.0,90.0
9019,59.0,0,156,2.0,89.0
9020,38.0,0,156,4.0,89.0
9021,62.0,240,156,1.0,89.0
9022,35.0,0,156,5.0,89.0
9023,64.0,0,156,2.0,88.0
9024,40.0,240,156,5.0,88.0
9025,76.0,0,156,1.0,88.0
9026,33.0,0,156,5.0,87.0
9027,57.0,0,156,2.0,87.0
9028,36.0,240,156,4.0,87.0
9029,60.0,0,156,1.0,87.0
9030,64.0,0,156,2.0,86.0
9031,40.0,240,156,5.0,86.0
9032,76.0,0,156,1.0,86.0
9033,35.0,240,156,4.0,86.0
9034,55.0,0,156,2.0,86.0
9035,31.0,0,156,5.0,86.0
9036,59.0,0,156,1.0,86.0
9037,76.0,240,156,1.0,85.0
9038,40.0,0,156,5.0,85.0
9039,64.0,0,156,2.0,85.0
9040,54.0,240,156,2.0,84.0
9041,30.0,0,156,5.0,84.0
9042,57.0,0,156,1.0,84.0
9043,33.0,0,156,4.0,84.0
9044,40.0,240,156,5.0,85.0
9045,64.0,0,156,2.0,85.0
9046,76.0,0,156,1.0,85.0
9047,57.0,240,156,1.0,86.0
9048,53.0,0,156,2.0,86.0
9049,33.0,0,156,4.0,86.0
9050,29.0,0,156,5.0,86.0
9051,52.0,0,156,2.0,86.0
9052,55.0,240,156,1.0,86.0
9053,40.0,0,156,5.0,87.0
9054,28.0,0,156,5.0,87.0
9055,55.0,0,156,1.0,90.0
9056,40.0,0,156,5.0,90.0
9057,52.0,240,156,2.0,90.0
9058,28.0,0,156,5.0,90.0
9059,52.0,0,156,2.0,95.0
9060,55.0,0,156,1.0,95.0
9061,40.0,240,156,5.0,93.0
9062,28.0,0,156,5.0,93.0
9063,53.0,0,720,2.0,104.0
9064,57.0,240,720,1.0,104.0
9065,45.0,0,720,5.0,102.0
9066,48.0,0,720,4.0,102.0
9067,40.0,0,156,5.0,93.0
9068,55.0,720,156,1.0,95.0
9069,52.0,0,156,2.0,95.0
9070,28.0,0,156,5.0,93.0
9071,28.0,240,156,5.0,97.0
9072,52.0,0,156,2.0,98.0
9073,40.0,0,156,5.0,97.0
9074,55.0,0,156,1.0,98.0
9075,52.0,0,156,2.0,102.0
9076,40.0,240,156,5.0,101.0
9077,28.0,0,156,5.0,101.0
9078,55.0,0,156,1.0,102.0
9079,45.0,0,720,5.0,110.0
9080,60.0,240,720,2.0,112.0
9081,69.0,0,720,1.0,112.0
9082,53.0,0,720,4.0,110.0
9083,57.0,0,720,2.0,112.0
9084,52.0,0,156,2.0,103.0
9085,28.0,0,156,5.0,101.0
9086,40.0,720,156,5.0,101.0
9087,55.0,0,156,1.0,103.0
9088,40.0,0,156,5.0,104.0
9089,28.0,240,156,5.0,104.0
9090,55.0,0,156,1.0,107.0
9091,52.0,0,156,2.0,107.0
9092,52.0,0,156,2.0,110.0
9093,55.0,240,156,1.0,110.0
9094,40.0,0,156,5.0,108.0
9095,28.0,0,156,5.0,108.0
9096,55.0,0,960,4.0,118.0
9097,60.0,0,960,4.0,118.0
9098,46.0,0,960,5.0,118.0
9099,84.0,240,960,1.0,120.0
9100,52.0,0,960,4.0,118.0
9101,48.0,0,960,4.0,118.0
9102,76.0,0,960,2.0,120.0
9103,72.0,0,960,2.0,120.0
9104,79.0,0,960,2.0,120.0
9105,52.0,1440,240,2.0,108.0
9106,55.0,0,240,1.0,108.0
9107,28.0,0,240,5.0,109.0
9108,40.0,0,240,5.0,109.0
9109,28.0,720,240,5.0,114.0
9110,40.0,0,240,5.0,114.0
9111,52.0,0,240,2.0,113.0
9112,55.0,0,240,1.0,113.0
9113,52.0,0,240,2.0,118.0
9114,55.0,0,240,1.0,118.0
9115,28.0,0,240,5.0,120.0
9116,40.0,720,240,5.0,120.0
9117,77.0,0,1440,2.0,126.0
9118,89.0,0,1440,1.0,126.0
9119,81.0,0,1440,2.0,126.0
9120,84.0,0,1440,2.0,126.0
9121,41.0,720,1440,4.0,126.0
9122,36.0,0,1440,4.0,126.0
9123,48.0,0,1440,4.0,126.0
9124,33.0,0,1440,5.0,126.0
9125,60.0,1680,156,5.0,119.0
9126,72.0,0,156,5.0,119.0
9127,96.0,120,78,1.0,119.0
9128,84.0,0,78,2.0,119.0
9129,69.0,0,156,5.0,118.0
9130,57.0,120,156,5.0,118.0
9131,81.0,0,78,2.0,118.0
9132,93.0,120,78,1.0,118.0
9133,65.0,0,156,5.0,118.0
9134,53.0,120,156,5.0,118.0
9135,89.0,120,78,1.0,117.0
9136,77.0,0,78,2.0,117.0
9137,48.0,0,156,5.0,117.0
9138,60.0,120,156,5.0,117.0
9139,84.0,0,78,1.0,116.0
9140,72.0,120,78,2.0,116.0
9141,45.0,120,156,5.0,116.0
9142,57.0,0,156,5.0,116.0
9143,69.0,120,78,2.0,116.0
9144,81.0,0,78,1.0,116.0
9145,41.0,120,156,5.0,115.0
9146,53.0,0,156,5.0,115.0
9147,65.0,0,78,2.0,115.0
9148,77.0,120,78,1.0,115.0
9149,36.0,0,156,5.0,115.0
9150,48.0,120,156,5.0,115.0
9151,60.0,120,78,2.0,114.0
9152,72.0,0,78,1.0,114.0
9153,33.0,120,156,5.0,114.0
9154,45.0,0,156,5.0,114.0
9155,69.0,120,78,1.0,114.0
9156,57.0,0,78,2.0,114.0
9157,29.0,0,156,5.0,113.0
9158,41.0,120,156,5.0,113.0
9159,65.0,0,78,1.0,113.0
9160,53.0,120,78,2.0,113.0
9161,36.0,120,156,5.0,113.0
9162,24.0,0,156,5.0,113.0
9163,60.0,0,78,1.0,112.0
9164,48.0,120,78,2.0,112.0
9165,38.0,120,156,5.0,112.0
9166,26.0,0,156,5.0,112.0
9167,50.0,120,78,2.0,112.0
9168,62.0,0,78,1.0,112.0
9169,55.0,0,240,2.0,121.0
9170,59.0,0,240,2.0,121.0
9171,52.0,0,240,2.0,121.0
9172,28.0,0,240,5.0,121.0
9173,40.0,120,240,5.0,121.0
9174,64.0,0,240,1.0,121.0
9175,64.0,0,240,1.0,121.0
9176,28.0,0,240,5.0,121.0
9177,40.0,1440,240,5.0,121.0
9178,55.0,0,240,2.0,121.0
9179,59.0,0,240,2.0,121.0
9180,52.0,0,240,2.0,121.0
9181,59.0,0,240,2.0,118.0
9182,64.0,0,240,1.0,118.0
9183,40.0,0,240,5.0,118.0
9184,28.0,0,240,5.0,118.0
9185,52.0,1440,240,2.0,118.0
9186,55.0,0,240,2.0,118.0
9187,55.0,1440,1440,5.0,35.0
9188,64.0,2880,2880,1.0,41.0
9189,55.0,240,240,3.0,38.0
9190,60.0,0,480,2.0,48.0
9191,55.0,240,240,3.0,39.0
9192,60.0,240,0,2.0,39.0
9193,55.0,240,240,3.0,40.0
9194,60.0,240,0,2.0,40.0
9195,64.0,0,1920,1.0,48.0
9196,55.0,240,240,3.0,41.0
9197,55.0,240,240,3.0,42.0
9198,62.0,0,480,2.0,41.0
9199,65.0,240,480,1.0,41.0
9200,55.0,240,240,3.0,43.0
9201,66.0,240,480,1.0,42.0
9202,63.0,0,480,2.0,42.0
9203,55.0,240,240,3.0,44.0
9204,67.0,240,480,1.0,42.0
9205,64.0,0,480,2.0,42.0
9206,65.0,240,480,2.0,45.0
9207,55.0,240,240,3.0,47.0
9208,69.0,0,480,1.0,45.0
9209,55.0,240,240,3.0,49.0
9210,71.0,0,480,1.0,48.0
9211,62.0,240,480,2.0,48.0
9212,72.0,240,480,1.0,51.0
9213,64.0,0,480,2.0,51.0
9214,60.0,240,240,3.0,52.0
9215,60.0,240,240,3.0,55.0
9216,74.0,240,480,1.0,54.0
9217,65.0,0,480,2.0,54.0
9218,36.0,1440,5745,5.0,48.0
9219,76.0,240,480,1.0,57.0
9220,43.0,0,5760,5.0,48.0
9221,60.0,240,240,3.0,58.0
9222,67.0,0,480,2.0,57.0
9223,70.0,240,0,2.0,58.0
9224,73.0,0,480,2.0,71.0
9225,64.0,240,240,3.0,59.0
9226,64.0,240,240,3.0,57.0
9227,73.0,0,480,2.0,58.0
9228,79.0,0,1440,1.0,71.0
9229,73.0,0,480,2.0,57.0
9230,64.0,240,240,3.0,56.0
9231,70.0,240,480,2.0,57.0
9232,65.0,240,240,4.0,55.0
9233,69.0,240,480,2.0,55.0
9234,74.0,0,480,2.0,55.0
9235,74.0,240,480,2.0,54.0
9236,77.0,0,960,1.0,55.0
9237,69.0,0,480,2.0,54.0
9238,65.0,240,240,4.0,53.0
9239,41.0,0,2820,5.0,71.0
9240,29.0,240,2850,5.0,71.0
9241,67.0,240,240,4.0,52.0
9242,73.0,0,480,2.0,53.0
9243,70.0,0,0,2.0,53.0
9244,76.0,240,0,1.0,53.0
9245,67.0,240,240,4.0,52.0
9246,70.0,0,0,2.0,51.0
9247,73.0,240,0,2.0,51.0
9248,67.0,240,240,4.0,50.0
9249,69.0,0,480,2.0,49.0
9250,74.0,240,480,1.0,49.0
9251,65.0,240,240,4.0,48.0
9252,73.0,240,480,2.0,47.0
9253,64.0,240,240,4.0,46.0
9254,69.0,240,0,2.0,46.0
9255,73.0,0,480,2.0,46.0
9256,64.0,240,240,4.0,45.0
9257,76.0,0,960,1.0,47.0
9258,77.0,0,480,1.0,44.0
9259,62.0,240,240,4.0,46.0
9260,41.0,0,2880,5.0,53.0
9261,74.0,240,480,2.0,44.0
9262,69.0,0,480,2.0,44.0
9263,29.0,0,2880,5.0,53.0
9264,67.0,0,480,2.0,55.0
9265,64.0,240,240,4.0,48.0
9266,67.0,240,480,2.0,49.0
9267,64.0,240,240,4.0,50.0
9268,67.0,240,0,2.0,52.0
9269,64.0,240,240,4.0,51.0
9270,64.0,240,240,4.0,53.0
9271,43.0,0,1920,5.0,55.0
9272,52.0,0,1920,5.0,55.0
9273,67.0,240,480,2.0,54.0
9274,53.0,0,480,5.0,54.0
9275,64.0,240,240,4.0,55.0
9276,54.0,240,480,5.0,55.0
9277,69.0,0,480,2.0,55.0
9278,64.0,240,240,4.0,56.0
9279,72.0,240,2895,1.0,55.0
9280,55.0,240,0,5.0,60.0
9281,67.0,0,480,2.0,57.0
9282,62.0,240,240,4.0,59.0
9283,71.0,240,480,1.0,57.0
9284,72.0,0,480,1.0,60.0
9285,57.0,0,480,5.0,60.0
9286,67.0,0,480,2.0,60.0
9287,65.0,240,240,4.0,62.0
9288,67.0,0,480,2.0,64.0
9289,65.0,240,240,4.0,66.0
9290,74.0,240,480,1.0,64.0
9291,59.0,0,480,5.0,64.0
9292,64.0,240,240,4.0,70.0
9293,60.0,0,480,5.0,68.0
9294,67.0,240,480,2.0,68.0
9295,76.0,0,480,1.0,68.0
9296,67.0,240,240,4.0,73.0
9297,77.0,240,480,1.0,71.0
9298,71.0,0,480,2.0,71.0
9299,62.0,0,480,5.0,71.0
9300,64.0,240,480,5.0,75.0
9301,79.0,0,480,1.0,78.0
9302,67.0,240,240,4.0,77.0
9303,72.0,0,480,2.0,78.0
9304,70.0,240,240,3.0,77.0
9305,73.0,240,0,2.0,76.0
9306,70.0,240,240,3.0,75.0
9307,52.0,0,1440,5.0,86.0
9308,70.0,240,240,3.0,72.0
9309,73.0,240,480,2.0,74.0
9310,82.0,0,1440,1.0,86.0
9311,58.0,0,1440,4.0,86.0
9312,61.0,0,1440,4.0,86.0
9313,67.0,0,1440,5.0,86.0
9314,69.0,240,240,3.0,66.0
9315,74.0,240,0,2.0,63.0
9316,69.0,240,240,3.0,60.0
9317,57.0,0,960,4.0,70.0
9318,54.0,0,960,5.0,70.0
9319,81.0,0,960,1.0,70.0
9320,62.0,0,960,4.0,70.0
9321,66.0,0,960,5.0,70.0
9322,71.0,240,240,3.0,54.0
9323,74.0,0,480,2.0,57.0
9324,56.0,240,480,5.0,57.0
9325,65.0,0,480,5.0,57.0
9326,80.0,0,480,1.0,57.0
9327,69.0,240,240,3.0,56.0
9328,73.0,240,0,2.0,57.0
9329,79.0,240,960,1.0,55.0
9330,69.0,240,240,3.0,58.0
9331,64.0,0,960,5.0,55.0
9332,78.0,0,480,1.0,59.0
9333,63.0,0,480,5.0,59.0
9334,69.0,240,240,3.0,60.0
9335,73.0,240,480,2.0,59.0
9336,69.0,240,240,3.0,62.0
9337,57.0,0,1920,5.0,55.0
9338,73.0,0,480,2.0,61.0
9339,64.0,0,960,5.0,61.0
9340,79.0,240,960,1.0,61.0
9341,73.0,0,0,2.0,65.0
9342,69.0,240,240,3.0,64.0
9343,82.0,0,480,1.0,65.0
9344,67.0,240,480,5.0,65.0
9345,69.0,240,240,3.0,66.0
9346,73.0,0,480,2.0,75.0
9347,69.0,240,240,3.0,67.0
9348,69.0,240,240,3.0,64.0
9349,73.0,240,0,2.0,62.0
9350,81.0,0,1440,1.0,75.0
9351,69.0,240,240,3.0,61.0
9352,65.0,240,1440,5.0,75.0
9353,70.0,240,240,3.0,58.0
9354,58.0,0,1920,5.0,75.0
9355,73.0,0,480,2.0,59.0
9356,79.0,240,480,1.0,59.0
9357,70.0,240,240,3.0,55.0
9358,64.0,240,0,5.0,53.0
9359,73.0,240,480,2.0,56.0
9360,79.0,0,480,1.0,53.0
9361,73.0,0,480,2.0,53.0
9362,64.0,0,0,5.0,50.0
9363,70.0,240,240,3.0,51.0
9364,71.0,240,240,3.0,51.0
9365,76.0,240,0,2.0,51.0
9366,76.0,240,0,2.0,53.0
9367,79.0,0,960,1.0,50.0
9368,71.0,240,240,3.0,52.0
9369,78.0,0,480,1.0,53.0
9370,63.0,0,480,5.0,53.0
9371,76.0,0,0,2.0,55.0
9372,71.0,240,240,3.0,54.0
9373,71.0,240,240,3.0,55.0
9374,76.0,240,0,2.0,56.0
9375,64.0,0,960,5.0,50.0
9376,71.0,240,240,3.0,57.0
9377,79.0,240,960,1.0,55.0
9378,67.0,0,480,5.0,58.0
9379,76.0,0,480,2.0,58.0
9380,71.0,240,240,3.0,58.0
9381,83.0,240,480,1.0,58.0
9382,59.0,0,2887,5.0,50.0
9383,70.0,240,240,3.0,57.0
9384,76.0,0,480,2.0,67.0
9385,76.0,240,480,2.0,57.0
9386,70.0,240,240,3.0,56.0
9387,76.0,240,480,2.0,55.0
9388,66.0,0,1440,5.0,67.0
9389,60.0,240,1440,5.0,67.0
9390,70.0,240,240,3.0,55.0
9391,81.0,0,1440,1.0,67.0
9392,79.0,0,480,1.0,54.0
9393,70.0,240,240,3.0,54.0
9394,76.0,0,480,2.0,54.0
9395,76.0,240,480,2.0,53.0
9396,70.0,240,240,3.0,52.0
9397,76.0,0,480,2.0,52.0
9398,61.0,240,1440,5.0,54.0
9399,64.0,0,1440,5.0,54.0
9400,70.0,240,240,3.0,51.0
9401,79.0,0,0,1.0,51.0
9402,71.0,240,0,2.0,49.0
9403,67.0,240,240,3.0,50.0
9404,67.0,240,240,3.0,49.0
9405,78.0,240,480,1.0,49.0
9406,67.0,240,240,3.0,49.0
9407,71.0,240,0,2.0,48.0
9408,67.0,240,240,3.0,48.0
9409,71.0,240,480,2.0,48.0
9410,79.0,0,960,1.0,48.0
9411,67.0,240,240,3.0,47.0
9412,74.0,0,480,1.0,47.0
9413,67.0,240,240,3.0,47.0
9414,71.0,240,480,2.0,47.0
9415,62.0,0,2887,5.0,51.0
9416,67.0,240,240,3.0,46.0
9417,70.0,240,480,2.0,46.0
9418,67.0,240,240,3.0,45.0
9419,70.0,240,480,2.0,45.0
9420,55.0,0,960,1.0,46.0
9421,54.0,240,480,1.0,45.0
9422,67.0,240,240,3.0,44.0
9423,70.0,0,480,2.0,45.0
9424,67.0,240,240,3.0,44.0
9425,70.0,240,0,2.0,43.0
9426,55.0,240,960,1.0,44.0
9427,67.0,240,240,3.0,43.0
9428,67.0,240,240,3.0,42.0
9429,50.0,240,480,1.0,43.0
9430,70.0,0,480,2.0,43.0
9431,66.0,0,480,2.0,42.0
9432,62.0,240,240,3.0,42.0
9433,74.0,240,960,1.0,42.0
9434,66.0,240,480,2.0,41.0
9435,62.0,240,240,3.0,41.0
9436,62.0,240,240,3.0,40.0
9437,73.0,0,480,1.0,41.0
9438,66.0,0,0,2.0,40.0
9439,62.0,240,240,3.0,40.0
9440,62.0,240,240,3.0,39.0
9441,74.0,240,960,1.0,40.0
9442,66.0,0,0,2.0,39.0
9443,69.0,240,480,1.0,39.0
9444,62.0,240,240,3.0,38.0
9445,62.0,240,240,3.0,37.0
9446,65.0,240,480,2.0,45.0
9447,50.0,0,960,1.0,45.0
9448,62.0,240,240,3.0,37.0
9449,65.0,0,0,2.0,36.0
9450,62.0,240,240,3.0,36.0
9451,49.0,240,480,1.0,36.0
9452,65.0,0,0,2.0,36.0
9453,62.0,240,240,3.0,35.0
9454,65.0,240,0,2.0,35.0
9455,50.0,240,960,1.0,36.0
9456,62.0,240,240,3.0,35.0
9457,62.0,240,240,3.0,34.0
9458,45.0,0,480,1.0,34.0
9459,65.0,240,0,2.0,34.0
9460,62.0,240,240,3.0,33.0
9461,65.0,240,0,2.0,33.0
9462,62.0,240,240,3.0,33.0
9463,74.0,0,960,1.0,34.0
9464,65.0,0,0,2.0,32.0
9465,62.0,240,240,3.0,32.0
9466,73.0,240,480,1.0,32.0
9467,65.0,240,0,2.0,32.0
9468,62.0,240,240,3.0,31.0
9469,62.0,240,240,3.0,31.0
9470,50.0,0,960,1.0,32.0
9471,65.0,240,480,2.0,31.0
9472,62.0,240,240,3.0,30.0
9473,44.0,0,480,1.0,30.0
9474,65.0,0,0,2.0,31.0
9475,62.0,240,240,3.0,33.0
9476,62.0,240,240,3.0,36.0
9477,65.0,240,0,2.0,37.0
9478,62.0,240,240,3.0,39.0
9479,65.0,240,0,2.0,40.0
9480,65.0,240,0,2.0,43.0
9481,62.0,240,240,3.0,41.0
9482,50.0,0,960,1.0,40.0
9483,62.0,240,240,3.0,44.0
9484,74.0,240,2415,1.0,31.0
9485,55.0,240,240,3.0,47.0
9486,59.0,240,480,2.0,46.0
9487,65.0,0,480,1.0,46.0
9488,43.0,0,480,1.0,46.0
9489,60.0,240,480,2.0,48.0
9490,55.0,240,240,3.0,38.0
9491,60.0,240,480,2.0,38.0
9492,55.0,240,240,3.0,39.0
9493,60.0,240,480,2.0,39.0
9494,55.0,240,240,3.0,40.0
9495,55.0,240,240,3.0,41.0
9496,60.0,240,480,2.0,40.0
9497,64.0,0,1920,1.0,48.0
9498,55.0,240,240,3.0,42.0
9499,62.0,240,480,2.0,41.0
9500,65.0,0,480,1.0,41.0
9501,63.0,240,480,2.0,42.0
9502,66.0,0,480,1.0,42.0
9503,55.0,240,240,3.0,43.0
9504,67.0,0,480,1.0,42.0
9505,55.0,240,240,3.0,44.0
9506,64.0,240,480,2.0,42.0
9507,55.0,240,240,3.0,47.0
9508,69.0,240,480,1.0,45.0
9509,65.0,0,480,2.0,45.0
9510,71.0,240,480,1.0,48.0
9511,62.0,0,480,2.0,48.0
9512,55.0,240,240,3.0,49.0
9513,64.0,0,480,2.0,51.0
9514,72.0,240,480,1.0,51.0
9515,60.0,240,240,3.0,52.0
9516,60.0,240,240,3.0,55.0
9517,65.0,0,480,2.0,54.0
9518,74.0,240,480,1.0,54.0
9519,36.0,0,5745,5.0,48.0
9520,76.0,240,480,1.0,57.0
9521,67.0,0,480,2.0,57.0
9522,60.0,240,240,3.0,58.0
9523,43.0,0,5760,5.0,48.0
9524,73.0,0,480,2.0,71.0
9525,70.0,0,480,2.0,71.0
9526,64.0,240,240,3.0,59.0
9527,73.0,240,480,2.0,58.0
9528,70.0,0,0,2.0,57.0
9529,64.0,240,240,3.0,57.0
9530,64.0,240,240,3.0,56.0
9531,79.0,240,1440,1.0,71.0
9532,73.0,240,480,2.0,57.0
9533,74.0,0,480,2.0,55.0
9534,65.0,240,240,4.0,55.0
9535,69.0,240,0,2.0,54.0
9536,65.0,240,240,4.0,53.0
9537,74.0,0,480,2.0,54.0
9538,77.0,0,960,1.0,55.0
9539,41.0,0,2820,5.0,71.0
9540,29.0,0,2850,5.0,71.0
9541,76.0,240,480,1.0,53.0
9542,70.0,0,480,2.0,53.0
9543,73.0,0,0,2.0,53.0
9544,67.0,240,240,4.0,52.0
9545,73.0,240,0,2.0,51.0
9546,67.0,240,240,4.0,52.0
9547,70.0,0,0,2.0,51.0
9548,67.0,240,240,4.0,50.0
9549,76.0,240,975,1.0,53.0
9550,69.0,240,0,2.0,47.0
9551,65.0,240,240,4.0,48.0
9552,74.0,240,480,1.0,49.0
9553,64.0,240,240,4.0,46.0
9554,73.0,240,0,2.0,46.0
9555,64.0,240,240,4.0,45.0
9556,76.0,0,960,1.0,47.0
9557,69.0,240,0,2.0,44.0
9558,74.0,0,480,2.0,44.0
9559,77.0,0,480,1.0,44.0
9560,41.0,0,2880,5.0,53.0
9561,29.0,0,2880,5.0,53.0
9562,62.0,240,240,4.0,46.0
9563,67.0,240,480,2.0,55.0
9564,64.0,240,240,4.0,48.0
9565,64.0,240,240,4.0,50.0
9566,67.0,240,0,2.0,50.0
9567,64.0,240,240,4.0,51.0
9568,43.0,0,1920,5.0,55.0
9569,52.0,0,1920,5.0,55.0
9570,64.0,240,240,4.0,53.0
9571,67.0,240,0,2.0,54.0
9572,53.0,0,480,5.0,54.0
9573,64.0,240,240,4.0,55.0
9574,69.0,0,480,2.0,55.0
9575,64.0,240,240,4.0,56.0
9576,54.0,240,480,5.0,55.0
9577,72.0,0,2895,1.0,55.0
9578,55.0,240,0,5.0,60.0
9579,62.0,240,240,4.0,59.0
9580,67.0,0,0,2.0,60.0
9581,71.0,240,480,1.0,57.0
9582,72.0,0,480,1.0,60.0
9583,57.0,0,480,5.0,60.0
9584,65.0,240,240,4.0,62.0
9585,74.0,0,480,1.0,64.0
9586,65.0,240,240,4.0,66.0
9587,59.0,240,480,5.0,64.0
9588,67.0,240,0,2.0,68.0
9589,60.0,0,480,5.0,68.0
9590,64.0,240,240,4.0,70.0
9591,76.0,0,480,1.0,68.0
9592,62.0,0,480,5.0,71.0
9593,77.0,240,480,1.0,71.0
9594,71.0,0,480,2.0,71.0
9595,67.0,240,240,4.0,73.0
9596,79.0,0,480,1.0,78.0
9597,67.0,240,240,4.0,77.0
9598,64.0,0,480,5.0,75.0
9599,72.0,240,480,2.0,78.0
9600,73.0,0,480,2.0,86.0
9601,70.0,240,240,3.0,77.0
9602,70.0,240,240,3.0,75.0
9603,73.0,240,480,2.0,76.0
9604,58.0,0,1440,4.0,86.0
9605,73.0,240,480,2.0,74.0
9606,61.0,0,1440,4.0,86.0
9607,70.0,240,240,3.0,72.0
9608,52.0,0,1440,5.0,86.0
9609,67.0,0,1440,5.0,86.0
9610,82.0,240,1440,1.0,86.0
9611,69.0,240,240,3.0,66.0
9612,74.0,240,0,2.0,63.0
9613,57.0,0,960,4.0,70.0
9614,54.0,0,960,5.0,70.0
9615,66.0,0,960,5.0,70.0
9616,62.0,0,960,4.0,70.0
9617,69.0,240,240,3.0,60.0
9618,81.0,0,960,1.0,70.0
9619,80.0,0,480,1.0,57.0
9620,71.0,240,240,3.0,54.0
9621,56.0,0,480,5.0,57.0
9622,65.0,240,480,5.0,57.0
9623,74.0,0,480,2.0,57.0
9624,73.0,0,480,2.0,55.0
9625,69.0,240,240,3.0,56.0
9626,64.0,0,960,5.0,55.0
9627,79.0,240,960,1.0,55.0
9628,69.0,240,240,3.0,58.0
9629,73.0,0,0,2.0,59.0
9630,69.0,240,240,3.0,60.0
9631,78.0,0,480,1.0,59.0
9632,63.0,240,480,5.0,59.0
9633,73.0,0,480,2.0,61.0
9634,69.0,240,240,3.0,62.0
9635,57.0,0,1920,5.0,55.0
9636,69.0,240,240,3.0,64.0
9637,73.0,240,480,2.0,63.0
9638,79.0,0,960,1.0,61.0
9639,64.0,240,960,5.0,61.0
9640,67.0,0,480,5.0,65.0
9641,73.0,240,0,2.0,75.0
9642,69.0,240,240,3.0,66.0
9643,82.0,0,480,1.0,65.0
9644,69.0,240,240,3.0,67.0
9645,73.0,240,0,2.0,65.0
9646,69.0,240,240,3.0,64.0
9647,73.0,240,0,2.0,62.0
9648,73.0,240,0,2.0,59.0
9649,81.0,0,1440,1.0,75.0
9650,65.0,0,1440,5.0,75.0
9651,69.0,240,240,3.0,61.0
9652,79.0,0,480,1.0,59.0
9653,58.0,0,1920,5.0,75.0
9654,70.0,240,240,3.0,58.0
9655,70.0,240,240,3.0,55.0
9656,73.0,240,480,2.0,56.0
9657,64.0,0,0,5.0,53.0
9658,64.0,0,0,5.0,50.0
9659,79.0,0,480,1.0,53.0
9660,70.0,240,240,3.0,51.0
9661,73.0,240,480,2.0,53.0
9662,71.0,240,240,3.0,51.0
9663,76.0,0,480,2.0,50.0
9664,79.0,0,960,1.0,50.0
9665,71.0,240,240,3.0,52.0
9666,76.0,0,0,2.0,53.0
9667,78.0,240,480,1.0,53.0
9668,63.0,0,480,5.0,53.0
9669,71.0,240,240,3.0,54.0
9670,71.0,240,240,3.0,55.0
9671,76.0,240,0,2.0,56.0
9672,79.0,240,960,1.0,55.0
9673,64.0,0,960,5.0,50.0
9674,71.0,240,240,3.0,57.0
9675,83.0,240,480,1.0,58.0
9676,71.0,240,240,3.0,58.0
9677,76.0,0,480,2.0,58.0
9678,67.0,0,480,5.0,58.0
9679,59.0,240,2887,5.0,50.0
9680,70.0,240,240,3.0,57.0
9681,76.0,0,480,2.0,67.0
9682,76.0,240,0,2.0,55.0
9683,70.0,240,240,3.0,56.0
9684,70.0,240,240,3.0,55.0
9685,66.0,0,1440,5.0,67.0
9686,60.0,0,1440,5.0,67.0
9687,81.0,240,1440,1.0,67.0
9688,76.0,0,480,2.0,54.0
9689,70.0,240,240,3.0,54.0
9690,79.0,0,480,1.0,54.0
9691,70.0,240,240,3.0,52.0
9692,76.0,240,0,2.0,52.0
9693,70.0,240,240,3.0,51.0
9694,79.0,0,480,1.0,52.0
9695,61.0,240,1440,5.0,54.0
9696,64.0,0,1440,5.0,54.0
9697,71.0,0,480,2.0,51.0
9698,67.0,240,240,3.0,50.0
9699,67.0,240,240,3.0,49.0
9700,71.0,240,0,2.0,49.0
9701,79.0,0,960,1.0,51.0
9702,78.0,0,480,1.0,49.0
9703,67.0,240,240,3.0,49.0
9704,67.0,240,240,3.0,48.0
9705,71.0,240,0,2.0,48.0
9706,79.0,240,960,1.0,48.0
9707,67.0,240,240,3.0,47.0
9708,74.0,0,480,1.0,47.0
9709,71.0,240,480,2.0,47.0
9710,67.0,240,240,3.0,47.0
9711,62.0,240,2887,5.0,51.0
9712,70.0,240,480,2.0,46.0
9713,67.0,240,240,3.0,46.0
9714,67.0,240,240,3.0,45.0
9715,55.0,0,960,1.0,46.0
9716,70.0,240,480,2.0,45.0
9717,67.0,240,240,3.0,44.0
9718,70.0,0,480,2.0,45.0
9719,54.0,240,480,1.0,45.0
9720,67.0,240,240,3.0,44.0
9721,70.0,0,480,2.0,44.0
9722,55.0,240,960,1.0,44.0
9723,67.0,240,240,3.0,43.0
9724,70.0,240,480,2.0,43.0
9725,50.0,240,480,1.0,43.0
9726,70.0,0,480,2.0,43.0
9727,67.0,240,240,3.0,42.0
9728,66.0,0,480,2.0,42.0
9729,62.0,240,240,3.0,42.0
9730,74.0,240,960,1.0,42.0
9731,62.0,240,240,3.0,41.0
9732,66.0,240,0,2.0,41.0
9733,73.0,0,480,1.0,41.0
9734,62.0,240,240,3.0,40.0
9735,66.0,240,0,2.0,39.0
9736,62.0,240,240,3.0,40.0
9737,74.0,0,960,1.0,40.0
9738,62.0,240,240,3.0,39.0
9739,69.0,240,480,1.0,39.0
9740,62.0,240,240,3.0,38.0
9741,66.0,0,480,2.0,39.0
9742,65.0,0,480,2.0,45.0
9743,62.0,240,240,3.0,37.0
9744,62.0,240,240,3.0,37.0
9745,65.0,240,480,2.0,37.0
9746,50.0,240,960,1.0,45.0
9747,62.0,240,240,3.0,36.0
9748,49.0,240,480,1.0,36.0
9749,65.0,240,0,2.0,36.0
9750,62.0,240,240,3.0,35.0
9751,62.0,240,240,3.0,35.0
9752,65.0,240,480,2.0,35.0
9753,50.0,0,960,1.0,36.0
9754,65.0,240,0,2.0,34.0
9755,62.0,240,240,3.0,34.0
9756,45.0,240,480,1.0,34.0
9757,62.0,240,240,3.0,33.0
9758,65.0,240,0,2.0,33.0
9759,62.0,240,240,3.0,33.0
9760,65.0,0,0,2.0,32.0
9761,74.0,0,960,1.0,34.0
9762,65.0,240,0,2.0,32.0
9763,73.0,240,480,1.0,32.0
9764,62.0,240,240,3.0,32.0
9765,62.0,240,240,3.0,31.0
9766,50.0,0,960,1.0,32.0
9767,62.0,240,240,3.0,31.0
9768,65.0,240,0,2.0,30.0
9769,44.0,0,480,1.0,30.0
9770,62.0,240,240,3.0,30.0
9771,65.0,240,480,2.0,31.0
9772,62.0,240,240,3.0,33.0
9773,65.0,240,480,2.0,34.0
9774,62.0,240,240,3.0,36.0
9775,65.0,0,0,2.0,40.0
9776,62.0,240,240,3.0,39.0
9777,62.0,240,240,3.0,41.0
9778,65.0,240,0,2.0,43.0
9779,62.0,240,240,3.0,44.0
9780,50.0,240,960,1.0,40.0
9781,74.0,0,2415,1.0,31.0
9782,59.0,0,480,2.0,46.0
9783,65.0,0,480,1.0,46.0
9784,55.0,240,240,3.0,47.0
9785,43.0,240,480,1.0,46.0
9786,55.0,240,240,3.0,49.0
9787,60.0,240,0,2.0,49.0
9788,55.0,240,240,3.0,50.0
9789,60.0,240,0,2.0,50.0
9790,55.0,240,240,3.0,51.0
9791,60.0,240,0,2.0,52.0
9792,55.0,240,240,3.0,52.0
9793,63.0,0,1920,1.0,58.0
9794,55.0,240,240,3.0,53.0
9795,62.0,0,480,2.0,53.0
9796,65.0,240,480,1.0,53.0
9797,66.0,0,480,1.0,54.0
9798,62.0,240,480,2.0,54.0
9799,55.0,240,240,3.0,54.0
9800,63.0,240,480,2.0,55.0
9801,67.0,0,480,1.0,55.0
9802,55.0,240,240,3.0,57.0
9803,55.0,240,240,3.0,59.0
9804,69.0,0,480,1.0,58.0
9805,65.0,240,480,2.0,58.0
9806,55.0,240,240,3.0,62.0
9807,62.0,240,480,2.0,61.0
9808,71.0,0,480,1.0,61.0
9809,63.0,0,480,2.0,63.0
9810,72.0,240,480,1.0,63.0
9811,60.0,240,240,3.0,65.0
9812,74.0,240,480,1.0,66.0
9813,60.0,240,240,3.0,68.0
9814,65.0,0,480,2.0,66.0
9815,75.0,240,480,1.0,72.0
9816,36.0,240,5760,5.0,58.0
9817,67.0,0,480,2.0,72.0
9818,43.0,0,5760,5.0,58.0
9819,60.0,240,240,3.0,70.0
9820,70.0,240,480,2.0,78.0
9821,73.0,0,480,2.0,78.0
9822,64.0,240,240,3.0,70.0
9823,73.0,240,480,2.0,70.0
9824,70.0,240,0,2.0,68.0
9825,64.0,240,240,3.0,69.0
9826,79.0,0,1440,1.0,78.0
9827,64.0,240,240,3.0,67.0
9828,73.0,0,480,2.0,68.0
9829,73.0,0,480,2.0,66.0
9830,65.0,240,240,3.0,66.0
9831,68.0,240,0,2.0,65.0
9832,65.0,240,240,3.0,64.0
9833,73.0,0,480,2.0,65.0
9834,68.0,240,0,2.0,63.0
9835,77.0,240,960,1.0,66.0
9836,75.0,0,480,1.0,63.0
9837,41.0,0,0,5.0,78.0
9838,68.0,0,0,2.0,62.0
9839,29.0,0,0,5.0,78.0
9840,65.0,240,240,3.0,63.0
9841,65.0,240,240,3.0,61.0
9842,68.0,240,0,2.0,60.0
9843,65.0,240,240,3.0,59.0
9844,75.0,240,960,1.0,62.0
9845,73.0,240,480,1.0,57.0
9846,68.0,0,0,2.0,55.0
9847,65.0,240,240,3.0,56.0
9848,65.0,240,240,3.0,53.0
9849,68.0,240,0,2.0,52.0
9850,77.0,240,960,1.0,55.0
9851,65.0,240,240,3.0,51.0
9852,65.0,240,240,3.0,48.0
9853,68.0,240,480,2.0,50.0
9854,73.0,0,480,1.0,50.0
9855,67.0,0,480,2.0,59.0
9856,63.0,240,240,3.0,50.0
9857,67.0,240,480,2.0,51.0
9858,63.0,240,240,3.0,52.0
9859,63.0,240,240,3.0,53.0
9860,67.0,240,480,2.0,52.0
9861,51.0,0,1920,5.0,59.0
9862,63.0,240,240,3.0,54.0
9863,67.0,240,480,2.0,53.0
9864,53.0,240,480,5.0,55.0
9865,63.0,240,240,3.0,55.0
9866,67.0,0,480,2.0,55.0
9867,63.0,240,240,3.0,56.0
9868,72.0,0,2880,1.0,59.0
9869,54.0,240,480,5.0,56.0
9870,43.0,240,2880,5.0,59.0
9871,69.0,0,480,2.0,56.0
9872,62.0,240,240,3.0,60.0
9873,71.0,0,480,1.0,58.0
9874,55.0,0,0,5.0,61.0
9875,67.0,0,0,2.0,61.0
9876,57.0,0,480,5.0,61.0
9877,65.0,240,240,3.0,63.0
9878,72.0,240,480,1.0,61.0
9879,65.0,240,240,3.0,66.0
9880,74.0,0,480,1.0,64.0
9881,59.0,240,480,5.0,64.0
9882,67.0,0,0,2.0,67.0
9883,75.0,240,480,1.0,67.0
9884,63.0,240,240,3.0,69.0
9885,60.0,0,480,5.0,67.0
9886,62.0,0,480,5.0,70.0
9887,77.0,240,480,1.0,70.0
9888,71.0,0,480,2.0,70.0
9889,67.0,240,240,3.0,71.0
9890,63.0,240,480,5.0,73.0
9891,72.0,0,480,2.0,75.0
9892,79.0,0,480,1.0,75.0
9893,67.0,240,240,3.0,74.0
9894,70.0,240,240,3.0,75.0
9895,73.0,240,0,2.0,74.0
9896,73.0,240,0,2.0,73.0
9897,70.0,240,240,3.0,73.0
9898,67.0,0,1440,5.0,83.0
9899,52.0,240,1440,5.0,83.0
9900,70.0,240,240,3.0,72.0
9901,61.0,0,1440,4.0,83.0
9902,58.0,0,1440,4.0,83.0
9903,82.0,0,1440,1.0,83.0
9904,73.0,0,0,2.0,71.0
9905,68.0,240,240,3.0,71.0
9906,73.0,240,0,2.0,70.0
9907,65.0,0,960,5.0,71.0
9908,80.0,0,960,1.0,71.0
9909,61.0,0,960,4.0,71.0
9910,53.0,0,960,5.0,71.0
9911,68.0,240,240,3.0,69.0
9912,73.0,0,0,2.0,69.0
9913,56.0,240,960,5.0,71.0
9914,55.0,0,480,5.0,69.0
9915,73.0,0,0,2.0,67.0
9916,79.0,240,480,1.0,69.0
9917,70.0,240,240,3.0,68.0
9918,61.0,0,0,4.0,67.0
9919,63.0,0,0,5.0,67.0
9920,70.0,240,240,3.0,65.0
9921,73.0,240,0,2.0,63.0
9922,70.0,240,240,3.0,61.0
9923,55.0,240,1440,5.0,67.0
9924,61.0,0,0,4.0,56.0
9925,70.0,240,240,3.0,58.0
9926,79.0,0,1440,1.0,67.0
9927,73.0,0,0,2.0,56.0
9928,68.0,240,240,3.0,54.0
9929,77.0,240,960,1.0,56.0
9930,73.0,240,480,2.0,52.0
9931,61.0,240,0,4.0,48.0
9932,68.0,240,240,3.0,50.0
9933,56.0,0,960,5.0,56.0
9934,65.0,0,960,5.0,56.0
9935,63.0,0,480,5.0,48.0
9936,58.0,0,480,5.0,48.0
9937,75.0,0,480,1.0,48.0
9938,73.0,0,0,2.0,44.0
9939,67.0,240,240,3.0,46.0
9940,73.0,240,0,2.0,46.0
9941,67.0,240,240,3.0,45.0
9942,73.0,240,0,2.0,49.0
9943,67.0,240,240,3.0,48.0
9944,67.0,240,240,3.0,50.0
9945,73.0,240,0,2.0,51.0
9946,67.0,240,240,3.0,52.0
9947,73.0,240,0,2.0,54.0
9948,73.0,240,0,2.0,70.0
9949,67.0,240,240,3.0,58.0
9950,63.0,0,2400,5.0,44.0
9951,58.0,240,2400,5.0,44.0
9952,75.0,0,2400,1.0,44.0
9953,61.0,0,2400,4.0,44.0
9954,61.0,0,480,4.0,70.0
9955,77.0,0,480,1.0,70.0
9956,56.0,0,480,5.0,70.0
9957,68.0,240,240,3.0,50.0
9958,65.0,0,480,5.0,70.0
9959,67.0,240,240,3.0,51.0
9960,73.0,0,480,2.0,50.0
9961,67.0,240,240,3.0,53.0
9962,73.0,240,0,2.0,54.0
9963,67.0,240,240,3.0,55.0
9964,73.0,240,0,2.0,56.0
9965,67.0,240,240,3.0,57.0
9966,67.0,240,240,3.0,62.0
9967,75.0,240,2400,1.0,50.0
9968,61.0,0,2400,4.0,50.0
9969,63.0,0,2400,5.0,50.0
9970,58.0,0,2400,5.0,50.0
9971,73.0,0,0,2.0,75.0
9972,73.0,240,0,2.0,58.0
9973,77.0,0,480,1.0,75.0
9974,61.0,240,480,4.0,75.0
9975,68.0,240,240,3.0,56.0
9976,65.0,0,480,5.0,75.0
9977,56.0,0,480,5.0,75.0
9978,67.0,240,240,3.0,60.0
9979,67.0,240,240,3.0,63.0
9980,73.0,240,480,2.0,61.0
9981,73.0,240,480,2.0,64.0
9982,67.0,240,240,3.0,66.0
9983,73.0,240,480,2.0,68.0
9984,67.0,240,240,3.0,69.0
9985,61.0,0,2400,4.0,58.0
9986,67.0,240,240,3.0,73.0
9987,73.0,240,480,2.0,71.0
9988,63.0,0,2400,5.0,58.0
9989,58.0,0,2400,5.0,58.0
9990,75.0,0,2400,1.0,58.0
9991,65.0,0,395,5.0,93.0
9992,61.0,0,435,4.0,93.0
9993,82.0,0,400,1.0,93.0
9994,56.0,40,440,5.0,93.0
9995,53.0,240,480,5.0,93.0
9996,70.0,160,240,2.0,64.0
9997,67.0,240,240,3.0,67.0
9998,73.0,240,0,2.0,69.0
9999,67.0,240,240,3.0,70.0
10000,67.0,240,240,3.0,73.0
10001,73.0,240,480,2.0,71.0
10002,67.0,240,240,3.0,76.0
10003,73.0,240,0,2.0,77.0
10004,58.0,0,2400,5.0,66.0
10005,63.0,0,2400,5.0,66.0
10006,67.0,240,240,3.0,79.0
10007,75.0,240,2400,1.0,66.0
10008,61.0,0,2400,4.0,66.0
10009,56.0,40,430,5.0,100.0
10010,61.0,0,440,4.0,100.0
10011,70.0,160,240,3.0,66.0
10012,65.0,40,400,5.0,100.0
10013,53.0,240,480,5.0,100.0
10014,82.0,0,400,1.0,100.0
10015,70.0,240,240,3.0,66.0
10016,73.0,0,880,2.0,100.0
10017,70.0,240,240,3.0,67.0
10018,73.0,240,0,2.0,67.0
10019,70.0,240,240,3.0,67.0
10020,75.0,0,1440,1.0,66.0
10021,63.0,0,1440,5.0,66.0
10022,73.0,0,0,2.0,78.0
10023,73.0,240,0,2.0,68.0
10024,70.0,240,240,3.0,68.0
10025,70.0,240,240,3.0,69.0
10026,70.0,240,240,3.0,69.0
10027,73.0,240,480,2.0,69.0
10028,55.0,0,2880,5.0,66.0
10029,61.0,240,2880,4.0,66.0
10030,71.0,240,240,3.0,70.0
10031,74.0,240,0,2.0,70.0
10032,71.0,240,240,3.0,70.0
10033,74.0,240,480,2.0,71.0
10034,71.0,240,240,3.0,71.0
10035,76.0,0,2880,1.0,78.0
10036,64.0,240,2880,5.0,78.0
10037,71.0,240,240,3.0,72.0
10038,74.0,240,0,2.0,72.0
10039,74.0,240,0,2.0,73.0
10040,71.0,240,240,3.0,72.0
10041,71.0,240,240,3.0,73.0
10042,62.0,0,2880,4.0,70.0
10043,56.0,0,2895,5.0,70.0
10044,72.0,240,240,3.0,73.0
10045,75.0,0,480,2.0,73.0
10046,75.0,240,0,2.0,74.0
10047,72.0,240,240,3.0,74.0
10048,65.0,0,2880,5.0,83.0
10049,75.0,240,0,2.0,86.0
10050,77.0,240,2880,1.0,83.0
10051,72.0,240,240,3.0,75.0
10052,72.0,240,240,3.0,75.0
10053,75.0,240,0,2.0,76.0
10054,72.0,240,240,3.0,76.0
10055,75.0,240,0,2.0,76.0
10056,72.0,240,240,3.0,76.0
10057,66.0,0,1440,5.0,86.0
10058,78.0,0,1440,1.0,86.0
10059,57.0,240,0,5.0,88.0
10060,63.0,240,2880,4.0,73.0
10061,72.0,240,240,3.0,77.0
10062,78.0,0,480,2.0,88.0
10063,72.0,240,240,3.0,78.0
10064,78.0,240,480,2.0,77.0
10065,72.0,240,240,3.0,78.0
10066,45.0,0,0,5.0,91.0
10067,84.0,0,1440,1.0,88.0
10068,78.0,240,480,2.0,78.0
10069,51.0,0,1440,4.0,88.0
10070,78.0,0,0,2.0,79.0
10071,74.0,240,240,3.0,79.0
10072,84.0,240,0,2.0,79.0
10073,74.0,240,240,3.0,79.0
10074,84.0,240,0,2.0,80.0
10075,86.0,0,1355,1.0,91.0
10076,36.0,0,1355,4.0,91.0
10077,33.0,240,1360,5.0,91.0
10078,74.0,240,160,3.0,80.0
10079,78.0,0,400,2.0,80.0
10080,79.0,0,480,2.0,93.0
10081,76.0,240,240,3.0,81.0
10082,84.0,240,0,2.0,81.0
10083,79.0,0,480,2.0,81.0
10084,76.0,240,240,3.0,81.0
10085,76.0,240,240,3.0,82.0
10086,79.0,240,480,2.0,82.0
10087,84.0,0,480,2.0,82.0
10088,48.0,20,1965,4.0,93.0
10089,76.0,240,240,3.0,82.0
10090,84.0,240,480,2.0,82.0
10091,79.0,0,480,2.0,82.0
10092,52.0,0,1925,5.0,93.0
10093,88.0,60,1935,1.0,93.0
10094,62.0,220,480,4.0,82.0
10095,89.0,0,480,1.0,83.0
10096,65.0,0,480,5.0,82.0
10097,86.0,20,480,2.0,83.0
10098,77.0,240,240,3.0,83.0
10099,63.0,220,480,4.0,84.0
10100,87.0,20,480,2.0,83.0
10101,66.0,0,480,5.0,84.0
10102,78.0,240,240,3.0,84.0
10103,90.0,0,480,1.0,83.0
10104,42.0,160,2972,5.0,93.0
10105,64.0,220,480,4.0,85.0
10106,79.0,240,240,3.0,85.0
10107,67.0,0,480,5.0,85.0
10108,88.0,20,480,2.0,84.0
10109,91.0,0,0,1.0,85.0
10110,60.0,220,480,4.0,86.0
10111,69.0,20,480,5.0,86.0
10112,79.0,240,240,3.0,87.0
10113,81.0,0,480,2.0,85.0
10114,62.0,220,440,4.0,87.0
10115,79.0,240,195,3.0,88.0
10116,83.0,20,435,2.0,87.0
10117,71.0,0,440,5.0,87.0
10118,43.0,200,0,5.0,88.0
10119,91.0,0,480,1.0,87.0
10120,64.0,20,480,4.0,88.0
10121,79.0,240,240,3.0,89.0
10122,72.0,0,480,5.0,88.0
10123,84.0,20,480,2.0,88.0
10124,91.0,0,0,1.0,89.0
10125,65.0,220,480,4.0,90.0
10126,86.0,0,480,2.0,89.0
10127,74.0,20,480,5.0,90.0
10128,79.0,240,240,3.0,90.0
10129,67.0,220,355,4.0,91.0
10130,76.0,0,360,5.0,91.0
10131,79.0,240,120,3.0,91.0
10132,88.0,0,360,2.0,91.0
10133,91.0,20,360,1.0,91.0
10134,88.0,240,0,2.0,88.0
10135,79.0,240,240,3.0,88.0
10136,82.0,0,0,2.0,88.0
10137,85.0,0,0,2.0,88.0
10138,79.0,240,240,3.0,88.0
10139,64.0,40,1425,4.0,98.0
10140,61.0,40,1472,4.0,98.0
10141,58.0,40,1512,4.0,98.0
10142,79.0,240,240,3.0,89.0
10143,91.0,0,1440,1.0,98.0
10144,88.0,240,480,2.0,89.0
10145,82.0,0,480,2.0,89.0
10146,85.0,0,480,2.0,89.0
10147,81.0,0,480,2.0,89.0
10148,86.0,0,480,2.0,89.0
10149,77.0,240,240,3.0,90.0
10150,81.0,240,480,2.0,90.0
10151,86.0,0,480,2.0,90.0
10152,57.0,0,960,4.0,89.0
10153,89.0,0,960,1.0,89.0
10154,65.0,0,960,4.0,89.0
10155,62.0,240,960,4.0,89.0
10156,77.0,240,240,3.0,90.0
10157,53.0,120,2520,5.0,98.0
10158,85.0,240,480,2.0,91.0
10159,82.0,0,480,2.0,91.0
10160,76.0,240,240,3.0,91.0
10161,88.0,240,0,1.0,91.0
10162,55.0,0,480,5.0,91.0
10163,85.0,0,0,2.0,92.0
10164,82.0,240,0,2.0,92.0
10165,76.0,240,240,3.0,91.0
10166,76.0,240,240,3.0,92.0
10167,55.0,0,960,5.0,91.0
10168,53.0,0,480,5.0,92.0
10169,74.0,240,240,3.0,93.0
10170,86.0,240,480,1.0,92.0
10171,81.0,0,0,2.0,93.0
10172,76.0,240,240,3.0,93.0
10173,41.0,0,1920,5.0,91.0
10174,85.0,0,480,2.0,93.0
10175,81.0,0,0,2.0,94.0
10176,52.0,0,960,5.0,93.0
10177,81.0,0,0,2.0,94.0
10178,88.0,240,960,1.0,93.0
10179,76.0,240,240,3.0,94.0
10180,85.0,240,480,2.0,94.0
10181,86.0,0,480,2.0,94.0
10182,50.0,240,480,5.0,94.0
10183,89.0,0,480,1.0,94.0
10184,77.0,240,240,3.0,94.0
10185,76.0,240,0,2.0,95.0
10186,79.0,240,480,2.0,105.0
10187,72.0,240,240,3.0,95.0
10188,72.0,240,240,3.0,96.0
10189,79.0,0,480,2.0,95.0
10190,84.0,0,1440,1.0,105.0
10191,72.0,240,240,3.0,96.0
10192,76.0,0,480,2.0,96.0
10193,79.0,0,0,2.0,97.0
10194,74.0,0,0,2.0,96.0
10195,71.0,240,240,3.0,94.0
10196,52.0,0,1920,5.0,105.0
10197,79.0,240,0,2.0,96.0
10198,53.0,0,480,5.0,95.0
10199,83.0,240,960,1.0,97.0
10200,71.0,240,240,3.0,96.0
10201,81.0,0,480,1.0,97.0
10202,54.0,240,480,5.0,96.0
10203,43.0,0,2880,5.0,105.0
10204,74.0,0,480,2.0,97.0
10205,69.0,240,240,3.0,97.0
10206,83.0,240,480,1.0,99.0
10207,71.0,240,240,3.0,98.0
10208,74.0,0,480,2.0,99.0
10209,72.0,240,240,3.0,100.0
10210,79.0,0,480,2.0,100.0
10211,84.0,240,480,1.0,100.0
10212,57.0,0,480,5.0,99.0
10213,86.0,0,480,1.0,101.0
10214,79.0,0,480,2.0,101.0
10215,59.0,240,480,5.0,100.0
10216,74.0,240,240,3.0,101.0
10217,84.0,240,480,2.0,102.0
10218,76.0,240,240,3.0,102.0
10219,88.0,0,480,1.0,102.0
10220,60.0,0,480,5.0,102.0
10221,84.0,240,480,2.0,103.0
10222,89.0,0,480,1.0,103.0
10223,62.0,0,480,5.0,103.0
10224,77.0,240,240,3.0,104.0
10225,64.0,0,480,5.0,104.0
10226,55.0,0,2880,5.0,98.0
10227,84.0,240,480,2.0,105.0
10228,79.0,240,240,3.0,105.0
10229,91.0,0,480,1.0,105.0
10230,85.0,0,480,2.0,112.0
10231,82.0,240,240,3.0,102.0
10232,94.0,0,960,1.0,112.0
10233,46.0,240,960,4.0,112.0
10234,82.0,240,240,3.0,103.0
10235,40.0,0,960,5.0,112.0
10236,52.0,0,960,5.0,112.0
10237,49.0,0,960,4.0,112.0
10238,85.0,240,480,2.0,103.0
10239,91.0,0,960,2.0,112.0
10240,81.0,240,240,3.0,103.0
10241,84.0,0,480,2.0,114.0
10242,93.0,240,960,1.0,114.0
10243,81.0,240,240,3.0,104.0
10244,41.0,0,960,5.0,114.0
10245,48.0,0,960,4.0,114.0
10246,53.0,0,960,5.0,114.0
10247,89.0,0,960,2.0,114.0
10248,84.0,0,0,2.0,116.0
10249,80.0,240,240,3.0,105.0
10250,92.0,240,960,1.0,116.0
10251,48.0,0,960,4.0,116.0
10252,51.0,0,960,4.0,116.0
10253,80.0,240,240,3.0,105.0
10254,87.0,0,0,2.0,116.0
10255,84.0,0,0,2.0,116.0
10256,54.0,0,960,5.0,116.0
10257,42.0,0,960,5.0,116.0
10258,79.0,240,240,3.0,106.0
10259,91.0,240,960,1.0,116.0
10260,79.0,240,240,3.0,106.0
10261,43.0,0,960,5.0,116.0
10262,55.0,0,960,5.0,116.0
10263,51.0,0,960,4.0,116.0
10264,84.0,0,0,2.0,118.0
10265,48.0,0,0,4.0,118.0
10266,78.0,240,240,3.0,107.0
10267,84.0,240,480,2.0,107.0
10268,51.0,0,960,4.0,118.0
10269,90.0,240,960,1.0,118.0
10270,57.0,0,960,5.0,118.0
10271,78.0,240,240,3.0,108.0
10272,87.0,0,960,2.0,118.0
10273,45.0,0,960,5.0,118.0
10274,77.0,240,240,3.0,108.0
10275,86.0,0,480,2.0,117.0
10276,86.0,240,480,2.0,109.0
10277,89.0,240,960,1.0,117.0
10278,47.0,0,960,5.0,117.0
10279,59.0,0,960,5.0,117.0
10280,55.0,0,0,4.0,117.0
10281,77.0,240,240,3.0,109.0
10282,50.0,0,960,4.0,117.0
10283,76.0,240,240,3.0,109.0
10284,84.0,0,480,2.0,117.0
10285,79.0,240,0,2.0,110.0
10286,88.0,0,960,1.0,117.0
10287,48.0,0,960,5.0,117.0
10288,60.0,0,960,5.0,117.0
10289,84.0,0,480,2.0,110.0
10290,52.0,0,960,4.0,117.0
10291,76.0,240,240,3.0,110.0
10292,49.0,0,480,5.0,119.0
10293,82.0,0,480,2.0,119.0
10294,79.0,240,240,3.0,111.0
10295,91.0,240,480,1.0,119.0
10296,58.0,0,480,4.0,119.0
10297,55.0,0,480,4.0,119.0
10298,61.0,0,480,5.0,119.0
10299,88.0,0,480,2.0,119.0
10300,81.0,0,480,2.0,119.0
10301,86.0,0,480,2.0,119.0
10302,77.0,240,240,3.0,111.0
10303,57.0,0,960,4.0,119.0
10304,50.0,0,960,5.0,119.0
10305,62.0,0,960,5.0,119.0
10306,86.0,240,480,2.0,112.0
10307,81.0,0,480,2.0,112.0
10308,53.0,0,960,4.0,119.0
10309,77.0,240,240,3.0,112.0
10310,89.0,240,960,1.0,119.0
10311,65.0,0,480,5.0,112.0
10312,74.0,240,240,3.0,112.0
10313,57.0,0,480,4.0,112.0
10314,62.0,0,480,4.0,112.0
10315,53.0,240,480,5.0,112.0
10316,81.0,0,480,2.0,112.0
10317,86.0,0,480,1.0,112.0
10318,79.0,0,480,2.0,122.0
10319,76.0,0,480,2.0,122.0
10320,72.0,240,240,3.0,113.0
10321,72.0,240,240,3.0,115.0
10322,79.0,0,0,2.0,115.0
10323,76.0,240,0,2.0,115.0
10324,55.0,0,1440,5.0,122.0
10325,60.0,0,1440,4.0,122.0
10326,64.0,240,1440,4.0,122.0
10327,72.0,240,240,3.0,116.0
10328,84.0,0,1440,1.0,122.0
10329,67.0,0,1440,5.0,122.0
10330,77.0,0,480,2.0,125.0
10331,83.0,0,0,2.0,117.0
10332,76.0,240,240,3.0,117.0
10333,88.0,240,960,1.0,125.0
10334,77.0,240,480,2.0,117.0
10335,76.0,240,240,3.0,118.0
10336,77.0,0,480,2.0,126.0
10337,74.0,240,240,3.0,119.0
10338,43.0,0,1440,5.0,125.0
10339,31.0,0,1440,5.0,125.0
10340,83.0,0,480,2.0,126.0
10341,86.0,240,480,1.0,126.0
10342,72.0,240,240,3.0,118.0
10343,76.0,0,0,2.0,117.0
10344,79.0,240,0,2.0,117.0
10345,72.0,240,240,3.0,117.0
10346,84.0,0,0,1.0,123.0
10347,48.0,0,1440,5.0,126.0
10348,36.0,240,1440,5.0,126.0
10349,72.0,240,240,3.0,115.0
10350,79.0,0,0,2.0,123.0
10351,76.0,240,480,2.0,116.0
10352,43.0,0,1440,5.0,126.0
10353,82.0,240,0,2.0,112.0
10354,79.0,0,0,2.0,112.0
10355,72.0,240,240,3.0,113.0
10356,72.0,240,240,3.0,111.0
10357,82.0,240,0,2.0,110.0
10358,72.0,240,240,3.0,109.0
10359,55.0,240,1440,4.0,123.0
10360,58.0,0,1440,4.0,123.0
10361,79.0,0,480,2.0,110.0
10362,77.0,0,480,2.0,108.0
10363,81.0,240,480,2.0,108.0
10364,72.0,240,240,3.0,107.0
10365,72.0,240,240,3.0,106.0
10366,77.0,0,480,2.0,107.0
10367,81.0,240,480,2.0,107.0
10368,72.0,240,240,3.0,104.0
10369,77.0,0,480,2.0,105.0
10370,81.0,240,480,2.0,105.0
10371,57.0,0,1440,4.0,108.0
10372,53.0,0,0,4.0,103.0
10373,74.0,240,480,2.0,103.0
10374,77.0,0,480,2.0,103.0
10375,72.0,240,240,3.0,102.0
10376,77.0,240,480,2.0,101.0
10377,74.0,0,480,2.0,101.0
10378,72.0,240,240,3.0,100.0
10379,72.0,240,240,3.0,98.0
10380,50.0,0,1440,4.0,103.0
10381,77.0,0,480,2.0,99.0
10382,74.0,240,480,2.0,99.0
10383,72.0,240,240,3.0,97.0
10384,60.0,0,4800,5.0,123.0
10385,76.0,240,0,2.0,96.0
10386,55.0,0,480,4.0,97.0
10387,52.0,240,480,4.0,97.0
10388,79.0,0,0,2.0,96.0
10389,48.0,0,4815,5.0,123.0
10390,52.0,0,360,5.0,96.0
10391,40.0,0,360,5.0,96.0
10392,72.0,240,240,3.0,95.0
10393,53.0,0,360,5.0,94.0
10394,41.0,0,360,5.0,94.0
10395,79.0,240,480,2.0,94.0
10396,76.0,0,480,2.0,94.0
10397,72.0,240,240,3.0,93.0
10398,50.0,0,360,5.0,103.0
10399,38.0,0,360,5.0,103.0
10400,67.0,0,480,2.0,103.0
10401,70.0,240,0,2.0,90.0
10402,60.0,240,240,3.0,91.0
10403,52.0,0,360,5.0,90.0
10404,40.0,0,360,5.0,90.0
10405,70.0,0,0,2.0,88.0
10406,67.0,240,0,2.0,88.0
10407,60.0,240,240,3.0,89.0
10408,60.0,240,240,3.0,87.0
10409,46.0,0,1440,4.0,103.0
10410,60.0,240,240,3.0,86.0
10411,65.0,240,0,2.0,85.0
10412,69.0,0,0,2.0,85.0
10413,60.0,240,240,3.0,84.0
10414,65.0,240,0,2.0,83.0
10415,41.0,0,1440,4.0,87.0
10416,45.0,0,1440,4.0,87.0
10417,69.0,0,480,2.0,83.0
10418,60.0,240,240,3.0,82.0
10419,65.0,0,0,2.0,79.0
10420,62.0,240,0,2.0,79.0
10421,60.0,240,240,3.0,80.0
10422,60.0,240,240,3.0,78.0
10423,38.0,240,1440,5.0,81.0
10424,60.0,240,240,3.0,77.0
10425,62.0,0,480,2.0,77.0
10426,65.0,240,480,2.0,77.0
10427,41.0,0,1440,4.0,81.0
10428,67.0,0,480,2.0,76.0
10429,64.0,240,480,2.0,76.0
10430,60.0,240,240,3.0,74.0
10431,40.0,0,480,4.0,76.0
10432,43.0,0,480,4.0,76.0
10433,36.0,0,3855,5.0,88.0
10434,48.0,0,3870,5.0,88.0
10435,40.0,0,360,5.0,74.0
10436,64.0,240,480,2.0,74.0
10437,67.0,0,480,2.0,74.0
10438,60.0,240,240,3.0,73.0
10439,41.0,240,360,5.0,72.0
10440,64.0,240,0,2.0,71.0
10441,67.0,0,480,2.0,72.0
10442,60.0,240,240,3.0,72.0
10443,38.0,0,360,5.0,71.0
10444,60.0,240,240,3.0,70.0
10445,64.0,240,0,2.0,69.0
10446,40.0,0,375,5.0,69.0
10447,60.0,240,240,3.0,69.0
10448,60.0,240,240,3.0,67.0
10449,64.0,0,480,2.0,68.0
10450,64.0,240,480,2.0,66.0
10451,60.0,240,240,3.0,66.0
10452,64.0,240,0,2.0,63.0
10453,60.0,240,240,3.0,64.0
10454,60.0,240,240,3.0,63.0
10455,64.0,240,0,2.0,62.0
10456,60.0,240,240,3.0,61.0
10457,64.0,240,480,2.0,60.0
10458,60.0,240,240,3.0,60.0
10459,60.0,240,240,3.0,58.0
10460,64.0,240,0,2.0,58.0
10461,72.0,0,10095,1.0,103.0
10462,36.0,240,3735,5.0,72.0
10463,64.0,240,0,2.0,56.0
10464,60.0,240,240,3.0,57.0
10465,36.0,0,360,5.0,56.0
10466,60.0,240,240,3.0,55.0
10467,38.0,0,360,5.0,55.0
10468,60.0,240,240,3.0,54.0
10469,64.0,240,480,2.0,55.0
10470,35.0,240,360,5.0,53.0
10471,60.0,240,240,3.0,52.0
10472,64.0,0,0,2.0,52.0
10473,36.0,240,360,5.0,52.0
10474,60.0,240,240,3.0,51.0
10475,64.0,0,480,2.0,50.0
10476,60.0,240,240,3.0,49.0
10477,64.0,240,480,2.0,49.0
10478,60.0,240,240,3.0,48.0
10479,60.0,240,240,3.0,47.0
10480,64.0,240,0,2.0,46.0
10481,60.0,240,240,3.0,45.0
10482,64.0,240,480,2.0,44.0
10483,60.0,240,240,3.0,44.0
10484,64.0,240,480,2.0,43.0
10485,60.0,240,240,3.0,42.0
10486,60.0,240,240,3.0,41.0
10487,64.0,240,480,2.0,41.0
10488,33.0,240,3630,5.0,50.0
10489,64.0,0,0,2.0,38.0
10490,60.0,240,240,3.0,39.0
10491,33.0,240,360,5.0,38.0
10492,64.0,240,0,2.0,37.0
10493,60.0,240,240,3.0,38.0
10494,35.0,0,360,5.0,37.0
10495,60.0,240,240,3.0,36.0
10496,31.0,240,360,5.0,36.0
10497,60.0,240,240,3.0,35.0
10498,64.0,240,0,2.0,34.0
10499,33.0,0,360,5.0,34.0
10500,64.0,240,0,2.0,33.0
10501,60.0,240,240,3.0,33.0
10502,60.0,240,240,3.0,32.0
10503,64.0,240,0,2.0,30.0
10504,60.0,240,240,3.0,30.0
10505,60.0,240,240,3.0,29.0
10506,64.0,240,0,2.0,28.0
10507,60.0,240,240,3.0,27.0
10508,64.0,240,0,2.0,27.0
10509,60.0,240,240,3.0,26.0
10510,64.0,240,480,2.0,25.0
10511,60.0,240,705,3.0,25.0
10512,29.0,0,3360,5.0,36.0
10513,64.0,720,240,1.0,114.0
10514,40.0,0,240,5.0,114.0
10515,62.0,240,240,1.0,103.0
10516,38.0,0,240,5.0,103.0
10517,60.0,240,240,1.0,102.0
10518,36.0,0,240,5.0,102.0
10519,59.0,240,240,1.0,101.0
10520,35.0,0,240,5.0,101.0
10521,57.0,240,240,1.0,99.0
10522,33.0,0,240,5.0,99.0
10523,31.0,240,240,5.0,98.0
10524,55.0,0,240,1.0,98.0
10525,29.0,240,480,5.0,97.0
10526,53.0,0,480,1.0,97.0
10527,52.0,720,0,4.0,110.0
10528,86.0,0,720,1.0,110.0
10529,74.0,0,720,2.0,110.0
10530,59.0,0,720,4.0,110.0
10531,83.0,0,720,2.0,110.0
10532,62.0,0,720,4.0,110.0
10533,85.0,720,720,1.0,107.0
10534,73.0,0,720,2.0,107.0
10535,61.0,0,720,4.0,107.0
10536,81.0,0,720,2.0,107.0
10537,57.0,0,720,4.0,107.0
10538,78.0,0,720,2.0,105.0
10539,69.0,0,720,2.0,105.0
10540,54.0,720,720,4.0,105.0
10541,57.0,0,720,4.0,105.0
10542,81.0,0,720,1.0,105.0
10543,28.0,0,3022,5.0,122.0
10544,40.0,1440,3022,5.0,122.0
10545,71.0,720,156,2.0,99.0
10546,79.0,0,156,2.0,99.0
10547,59.0,0,156,4.0,99.0
10548,55.0,0,156,4.0,99.0
10549,83.0,0,156,1.0,99.0
10550,55.0,0,156,4.0,97.0
10551,64.0,0,156,2.0,97.0
10552,76.0,0,156,2.0,97.0
10553,79.0,0,156,1.0,97.0
10554,52.0,240,156,4.0,97.0
10555,81.0,0,156,1.0,96.0
10556,66.0,0,156,2.0,96.0
10557,78.0,0,156,2.0,96.0
10558,57.0,0,156,4.0,96.0
10559,54.0,240,156,4.0,96.0
10560,63.0,0,156,2.0,95.0
10561,75.0,0,156,2.0,95.0
10562,54.0,240,156,4.0,95.0
10563,51.0,0,156,4.0,95.0
10564,78.0,0,156,1.0,95.0
10565,79.0,0,156,1.0,93.0
10566,52.0,240,156,4.0,93.0
10567,55.0,0,156,4.0,93.0
10568,76.0,0,156,2.0,93.0
10569,64.0,0,156,2.0,93.0
10570,49.0,0,156,4.0,92.0
10571,64.0,0,156,2.0,92.0
10572,73.0,240,156,2.0,92.0
10573,76.0,0,156,1.0,92.0
10574,52.0,0,156,4.0,92.0
10575,54.0,0,156,4.0,90.0
10576,75.0,240,156,2.0,90.0
10577,66.0,0,156,2.0,90.0
10578,51.0,0,156,4.0,90.0
10579,78.0,0,156,1.0,90.0
10580,75.0,480,156,2.0,88.0
10581,66.0,0,156,2.0,88.0
10582,78.0,0,156,1.0,88.0
10583,59.0,240,960,5.0,112.0
10584,47.0,0,965,5.0,112.0
10585,49.0,0,156,5.0,89.0
10586,61.0,0,156,2.0,89.0
10587,73.0,960,156,1.0,89.0
10588,51.0,0,156,5.0,88.0
10589,63.0,240,156,2.0,88.0
10590,75.0,0,156,1.0,88.0
10591,64.0,0,156,2.0,86.0
10592,76.0,240,156,1.0,86.0
10593,52.0,0,156,5.0,86.0
10594,66.0,240,156,2.0,85.0
10595,78.0,0,156,1.0,85.0
10596,54.0,0,156,5.0,85.0
10597,55.0,0,156,5.0,84.0
10598,67.0,240,156,2.0,84.0
10599,79.0,0,156,1.0,84.0
10600,51.0,0,156,5.0,82.0
10601,54.0,0,156,5.0,82.0
10602,66.0,0,156,2.0,82.0
10603,75.0,0,156,2.0,82.0
10604,78.0,240,156,1.0,82.0
10605,83.0,480,156,1.0,80.0
10606,71.0,0,156,2.0,80.0
10607,47.0,240,955,5.0,106.0
10608,59.0,0,960,5.0,106.0
10609,49.0,0,156,5.0,82.0
10610,61.0,0,156,2.0,82.0
10611,73.0,960,156,1.0,82.0
10612,51.0,0,156,5.0,81.0
10613,75.0,240,156,1.0,81.0
10614,63.0,0,156,2.0,81.0
10615,52.0,240,156,5.0,80.0
10616,76.0,0,156,1.0,80.0
10617,64.0,0,156,2.0,80.0
10618,78.0,240,156,1.0,79.0
10619,54.0,0,156,5.0,79.0
10620,66.0,0,156,2.0,79.0
10621,67.0,240,156,2.0,77.0
10622,55.0,0,156,5.0,77.0
10623,79.0,0,156,1.0,77.0
10624,57.0,0,156,5.0,76.0
10625,66.0,0,156,2.0,76.0
10626,78.0,0,156,2.0,76.0
10627,81.0,0,156,1.0,76.0
10628,54.0,240,156,5.0,76.0
10629,74.0,0,156,2.0,74.0
10630,86.0,480,156,1.0,74.0
10631,50.0,240,712,5.0,100.0
10632,62.0,0,720,1.0,95.0
10633,55.0,0,712,4.0,110.0
10634,93.0,0,720,1.0,95.0
10635,89.0,0,720,2.0,95.0
10636,65.0,0,720,4.0,95.0
10637,69.0,0,720,4.0,95.0
10638,81.0,0,720,2.0,95.0
10639,79.0,0,720,2.0,92.0
10640,64.0,0,720,4.0,92.0
10641,88.0,720,720,2.0,92.0
10642,67.0,0,720,4.0,92.0
10643,91.0,0,720,1.0,92.0
10644,64.0,0,720,4.0,89.0
10645,88.0,0,720,1.0,89.0
10646,60.0,0,720,4.0,89.0
10647,76.0,720,720,2.0,89.0
10648,84.0,0,720,2.0,89.0
10649,43.0,720,3000,5.0,110.0
10650,55.0,720,2295,4.0,95.0
10651,31.0,0,3022,5.0,110.0
10652,65.0,0,156,4.0,80.0
10653,62.0,720,156,4.0,80.0
10654,89.0,0,156,1.0,80.0
10655,77.0,0,156,2.0,80.0
10656,86.0,0,156,2.0,80.0
10657,59.0,240,156,4.0,79.0
10658,83.0,0,156,2.0,79.0
10659,74.0,0,156,2.0,79.0
10660,86.0,0,156,1.0,79.0
10661,62.0,0,156,4.0,79.0
10662,60.0,0,156,4.0,78.0
10663,76.0,0,156,2.0,78.0
10664,88.0,0,156,1.0,78.0
10665,64.0,240,156,4.0,78.0
10666,84.0,0,156,2.0,78.0
10667,81.0,0,156,2.0,77.0
10668,72.0,0,156,2.0,77.0
10669,84.0,240,156,1.0,77.0
10670,60.0,0,156,4.0,77.0
10671,57.0,0,156,4.0,77.0
10672,59.0,0,156,4.0,76.0
10673,83.0,240,156,2.0,76.0
10674,74.0,0,156,2.0,76.0
10675,86.0,0,156,1.0,76.0
10676,62.0,0,156,4.0,76.0
10677,71.0,240,156,2.0,75.0
10678,79.0,0,156,2.0,75.0
10679,83.0,0,156,1.0,75.0
10680,59.0,0,156,4.0,75.0
10681,55.0,0,156,4.0,75.0
10682,57.0,240,156,4.0,74.0
10683,72.0,0,156,2.0,74.0
10684,81.0,0,156,2.0,74.0
10685,60.0,0,156,4.0,74.0
10686,84.0,0,156,1.0,74.0
10687,84.0,480,156,1.0,72.0
10688,57.0,0,156,4.0,72.0
10689,60.0,0,156,4.0,72.0
10690,72.0,0,156,2.0,72.0
10691,81.0,0,156,2.0,72.0
10692,53.0,0,720,4.0,92.0
10693,81.0,240,720,1.0,92.0
10694,57.0,0,720,4.0,92.0
10695,77.0,0,720,2.0,92.0
10696,69.0,0,720,2.0,92.0
10697,79.0,0,156,1.0,70.0
10698,67.0,240,156,2.0,70.0
10699,71.0,0,156,2.0,69.0
10700,83.0,240,156,1.0,69.0
10701,40.0,720,720,5.0,71.0
10702,52.0,0,720,5.0,71.0
10703,84.0,0,156,1.0,68.0
10704,72.0,240,156,2.0,68.0
10705,74.0,240,156,2.0,67.0
10706,86.0,0,156,1.0,67.0
10707,52.0,0,480,4.0,68.0
10708,60.0,0,480,4.0,68.0
10709,55.0,0,480,4.0,68.0
10710,76.0,240,156,2.0,65.0
10711,88.0,0,156,1.0,65.0
10712,79.0,0,156,2.0,64.0
10713,88.0,0,156,2.0,64.0
10714,91.0,0,156,1.0,64.0
10715,77.0,480,156,2.0,62.0
10716,89.0,0,156,1.0,62.0
10717,38.0,0,720,5.0,64.0
10718,50.0,240,720,5.0,64.0
10719,57.0,0,480,4.0,78.0
10720,50.0,0,480,4.0,78.0
10721,53.0,240,480,4.0,78.0
10722,60.0,0,480,4.0,78.0
10723,84.0,0,720,1.0,82.0
10724,72.0,0,727,2.0,82.0
10725,81.0,0,156,1.0,77.0
10726,69.0,240,156,2.0,77.0
10727,83.0,240,156,1.0,80.0
10728,71.0,0,156,2.0,80.0
10729,48.0,0,720,5.0,74.0
10730,36.0,720,720,5.0,74.0
10731,84.0,0,156,1.0,84.0
10732,72.0,0,156,2.0,84.0
10733,86.0,240,156,1.0,87.0
10734,74.0,0,156,2.0,87.0
10735,48.0,0,480,4.0,84.0
10736,57.0,0,480,4.0,84.0
10737,60.0,0,480,4.0,84.0
10738,52.0,240,480,4.0,84.0
10739,76.0,0,156,2.0,90.0
10740,88.0,240,156,1.0,90.0
10741,79.0,0,156,2.0,100.0
10742,87.0,0,156,2.0,100.0
10743,91.0,0,156,1.0,100.0
10744,78.0,0,156,2.0,82.0
10745,90.0,480,156,1.0,82.0
10746,47.0,240,720,5.0,104.0
10747,35.0,0,720,5.0,104.0
10748,54.0,0,480,4.0,97.0
10749,63.0,0,480,4.0,97.0
10750,59.0,0,480,4.0,97.0
10751,81.0,0,720,1.0,96.0
10752,69.0,240,720,2.0,96.0
10753,52.0,0,0,4.0,110.0
10754,86.0,0,720,1.0,110.0
10755,83.0,0,720,2.0,110.0
10756,74.0,720,720,2.0,110.0
10757,62.0,0,720,4.0,110.0
10758,59.0,0,720,4.0,110.0
10759,61.0,0,720,4.0,107.0
10760,57.0,0,720,4.0,107.0
10761,73.0,0,720,2.0,107.0
10762,81.0,0,720,2.0,107.0
10763,85.0,720,720,1.0,107.0
10764,69.0,0,720,2.0,105.0
10765,78.0,720,720,2.0,105.0
10766,57.0,0,720,4.0,105.0
10767,54.0,0,720,4.0,105.0
10768,81.0,0,720,1.0,105.0
10769,40.0,0,3022,5.0,122.0
10770,28.0,720,3022,5.0,122.0
10771,83.0,0,156,1.0,99.0
10772,71.0,720,156,2.0,99.0
10773,79.0,0,156,2.0,99.0
10774,59.0,0,156,4.0,99.0
10775,55.0,0,156,4.0,99.0
10776,76.0,0,156,2.0,97.0
10777,64.0,0,156,2.0,97.0
10778,79.0,0,156,1.0,97.0
10779,55.0,240,156,4.0,97.0
10780,52.0,0,156,4.0,97.0
10781,66.0,240,156,2.0,96.0
10782,78.0,0,156,2.0,96.0
10783,81.0,0,156,1.0,96.0
10784,54.0,0,156,4.0,96.0
10785,57.0,0,156,4.0,96.0
10786,78.0,0,156,1.0,95.0
10787,75.0,240,156,2.0,95.0
10788,63.0,0,156,2.0,95.0
10789,51.0,0,156,4.0,95.0
10790,54.0,0,156,4.0,95.0
10791,76.0,0,156,2.0,93.0
10792,64.0,240,156,2.0,93.0
10793,52.0,0,156,4.0,93.0
10794,55.0,0,156,4.0,93.0
10795,79.0,0,156,1.0,93.0
10796,73.0,0,156,2.0,92.0
10797,49.0,0,156,4.0,92.0
10798,52.0,0,156,4.0,92.0
10799,76.0,240,156,1.0,92.0
10800,64.0,0,156,2.0,92.0
10801,51.0,240,156,4.0,90.0
10802,75.0,0,156,2.0,90.0
10803,66.0,0,156,2.0,90.0
10804,54.0,0,156,4.0,90.0
10805,78.0,0,156,1.0,90.0
10806,75.0,0,156,2.0,88.0
10807,78.0,0,156,1.0,88.0
10808,66.0,480,156,2.0,88.0
10809,59.0,240,960,5.0,112.0
10810,47.0,0,965,5.0,112.0
10811,61.0,0,156,2.0,89.0
10812,49.0,960,156,5.0,89.0
10813,73.0,0,156,1.0,89.0
10814,75.0,0,156,1.0,88.0
10815,51.0,240,156,5.0,88.0
10816,63.0,0,156,2.0,88.0
10817,64.0,240,156,2.0,86.0
10818,76.0,0,156,1.0,86.0
10819,52.0,0,156,5.0,86.0
10820,66.0,0,156,2.0,85.0
10821,78.0,0,156,1.0,85.0
10822,54.0,240,156,5.0,85.0
10823,55.0,240,156,5.0,84.0
10824,67.0,0,156,2.0,84.0
10825,79.0,0,156,1.0,84.0
10826,78.0,0,156,1.0,82.0
10827,51.0,240,156,5.0,82.0
10828,54.0,0,156,5.0,82.0
10829,75.0,0,156,2.0,82.0
10830,66.0,0,156,2.0,82.0
10831,83.0,480,156,1.0,80.0
10832,71.0,0,156,2.0,80.0
10833,47.0,0,955,5.0,106.0
10834,59.0,240,960,5.0,106.0
10835,73.0,0,156,1.0,82.0
10836,61.0,0,156,2.0,82.0
10837,49.0,960,156,5.0,82.0
10838,63.0,0,156,2.0,81.0
10839,75.0,240,156,1.0,81.0
10840,51.0,0,156,5.0,81.0
10841,64.0,0,156,2.0,80.0
10842,52.0,240,156,5.0,80.0
10843,76.0,0,156,1.0,80.0
10844,54.0,0,156,5.0,79.0
10845,78.0,240,156,1.0,79.0
10846,66.0,0,156,2.0,79.0
10847,67.0,0,156,2.0,77.0
10848,79.0,240,156,1.0,77.0
10849,55.0,0,156,5.0,77.0
10850,78.0,0,156,2.0,76.0
10851,81.0,240,156,1.0,76.0
10852,66.0,0,156,2.0,76.0
10853,57.0,0,156,5.0,76.0
10854,54.0,0,156,5.0,76.0
10855,86.0,480,156,1.0,74.0
10856,74.0,0,156,2.0,74.0
10857,50.0,240,712,5.0,100.0
10858,62.0,0,720,1.0,95.0
10859,55.0,720,712,4.0,110.0
10860,65.0,0,720,4.0,95.0
10861,69.0,0,720,4.0,95.0
10862,93.0,720,720,1.0,95.0
10863,81.0,0,720,2.0,95.0
10864,89.0,0,720,2.0,95.0
10865,79.0,0,720,2.0,92.0
10866,88.0,0,720,2.0,92.0
10867,64.0,0,720,4.0,92.0
10868,67.0,720,720,4.0,92.0
10869,91.0,0,720,1.0,92.0
10870,84.0,0,720,2.0,89.0
10871,76.0,720,720,2.0,89.0
10872,60.0,0,720,4.0,89.0
10873,64.0,0,720,4.0,89.0
10874,88.0,0,720,1.0,89.0
10875,43.0,0,3000,5.0,110.0
10876,55.0,0,2295,4.0,95.0
10877,31.0,0,3022,5.0,110.0
10878,65.0,0,156,4.0,80.0
10879,62.0,0,156,4.0,80.0
10880,89.0,0,156,1.0,80.0
10881,86.0,0,156,2.0,80.0
10882,77.0,720,156,2.0,80.0
10883,86.0,0,156,1.0,79.0
10884,74.0,0,156,2.0,79.0
10885,62.0,240,156,4.0,79.0
10886,59.0,0,156,4.0,79.0
10887,83.0,0,156,2.0,79.0
10888,88.0,0,156,1.0,78.0
10889,84.0,0,156,2.0,78.0
10890,64.0,0,156,4.0,78.0
10891,60.0,0,156,4.0,78.0
10892,76.0,240,156,2.0,78.0
10893,72.0,240,156,2.0,77.0
10894,81.0,0,156,2.0,77.0
10895,84.0,0,156,1.0,77.0
10896,60.0,0,156,4.0,77.0
10897,57.0,0,156,4.0,77.0
10898,74.0,240,156,2.0,76.0
10899,86.0,0,156,1.0,76.0
10900,83.0,0,156,2.0,76.0
10901,59.0,0,156,4.0,76.0
10902,62.0,0,156,4.0,76.0
10903,59.0,0,156,4.0,75.0
10904,55.0,240,156,4.0,75.0
10905,83.0,0,156,1.0,75.0
10906,79.0,0,156,2.0,75.0
10907,71.0,0,156,2.0,75.0
10908,81.0,0,156,2.0,74.0
10909,72.0,0,156,2.0,74.0
10910,57.0,0,156,4.0,74.0
10911,60.0,0,156,4.0,74.0
10912,84.0,240,156,1.0,74.0
10913,84.0,480,156,1.0,72.0
10914,60.0,0,156,4.0,72.0
10915,57.0,0,156,4.0,72.0
10916,81.0,0,156,2.0,72.0
10917,72.0,0,156,2.0,72.0
10918,53.0,0,720,4.0,92.0
10919,57.0,240,720,4.0,92.0
10920,69.0,0,720,2.0,92.0
10921,81.0,0,720,1.0,92.0
10922,77.0,0,720,2.0,92.0
10923,79.0,240,156,1.0,70.0
10924,67.0,0,156,2.0,70.0
10925,71.0,240,156,2.0,69.0
10926,83.0,0,156,1.0,69.0
10927,40.0,720,720,5.0,71.0
10928,52.0,0,720,5.0,71.0
10929,84.0,0,156,1.0,68.0
10930,72.0,240,156,2.0,68.0
10931,74.0,240,156,2.0,67.0
10932,86.0,0,156,1.0,67.0
10933,52.0,0,480,4.0,68.0
10934,60.0,0,480,4.0,68.0
10935,55.0,0,480,4.0,68.0
10936,88.0,240,156,1.0,65.0
10937,76.0,0,156,2.0,65.0
10938,91.0,0,156,1.0,64.0
10939,88.0,240,156,2.0,64.0
10940,79.0,0,156,2.0,64.0
10941,77.0,0,156,2.0,62.0
10942,89.0,480,156,1.0,62.0
10943,38.0,0,720,5.0,64.0
10944,50.0,0,720,5.0,64.0
10945,50.0,0,480,4.0,78.0
10946,53.0,0,480,4.0,78.0
10947,57.0,0,480,4.0,78.0
10948,60.0,0,480,4.0,78.0
10949,84.0,0,720,1.0,82.0
10950,72.0,240,727,2.0,82.0
10951,69.0,0,156,2.0,77.0
10952,81.0,240,156,1.0,77.0
10953,83.0,0,156,1.0,80.0
10954,71.0,240,156,2.0,80.0
10955,36.0,720,720,5.0,74.0
10956,48.0,0,720,5.0,74.0
10957,84.0,0,156,1.0,84.0
10958,72.0,0,156,2.0,84.0
10959,86.0,240,156,1.0,87.0
10960,74.0,0,156,2.0,87.0
10961,52.0,0,480,4.0,84.0
10962,60.0,0,480,4.0,84.0
10963,48.0,240,480,4.0,84.0
10964,57.0,0,480,4.0,84.0
10965,88.0,240,156,1.0,90.0
10966,76.0,0,156,2.0,90.0
10967,91.0,240,156,1.0,100.0
10968,87.0,0,156,2.0,100.0
10969,79.0,0,156,2.0,100.0
10970,90.0,480,156,1.0,82.0
10971,78.0,0,156,2.0,82.0
10972,47.0,0,720,5.0,104.0
10973,35.0,0,720,5.0,104.0
10974,59.0,0,480,4.0,97.0
10975,63.0,0,480,4.0,97.0
10976,54.0,0,480,4.0,97.0
10977,69.0,0,720,2.0,96.0
10978,81.0,240,720,1.0,96.0
10979,36.0,0,720,5.0,86.0
10980,48.0,0,720,4.0,86.0
10981,70.0,0,720,1.0,78.0
10982,43.0,0,720,4.0,78.0
10983,46.0,0,720,4.0,78.0
10984,58.0,0,720,2.0,78.0
10985,67.0,0,720,2.0,78.0
10986,65.0,0,720,2.0,76.0
10987,57.0,0,720,2.0,76.0
10988,41.0,0,720,4.0,76.0
10989,69.0,720,720,1.0,76.0
10990,45.0,0,720,4.0,76.0
10991,62.0,0,720,2.0,74.0
10992,53.0,720,720,2.0,74.0
10993,38.0,0,720,4.0,74.0
10994,65.0,0,720,1.0,74.0
10995,41.0,0,720,4.0,74.0
10996,24.0,720,3007,5.0,86.0
10997,36.0,720,2310,5.0,78.0
10998,64.0,720,156,2.0,66.0
10999,40.0,0,156,4.0,66.0
11000,43.0,0,156,4.0,66.0
11001,67.0,0,156,1.0,66.0
11002,55.0,0,156,2.0,66.0
11003,52.0,240,156,2.0,64.0
11004,64.0,0,156,1.0,64.0
11005,37.0,0,156,4.0,64.0
11006,65.0,0,156,1.0,63.0
11007,38.0,240,156,4.0,63.0
11008,53.0,0,156,2.0,63.0
11009,62.0,240,156,1.0,62.0
11010,50.0,0,156,2.0,62.0
11011,35.0,0,156,4.0,62.0
11012,64.0,0,156,1.0,60.0
11013,52.0,240,156,2.0,60.0
11014,36.0,0,156,4.0,60.0
11015,33.0,0,156,4.0,59.0
11016,61.0,240,156,1.0,59.0
11017,49.0,0,156,2.0,59.0
11018,62.0,240,156,1.0,57.0
11019,50.0,0,156,2.0,57.0
11020,38.0,0,156,4.0,57.0
11021,50.0,480,156,2.0,73.0
11022,62.0,0,156,1.0,73.0
11023,38.0,240,720,5.0,98.0
11024,26.0,0,720,5.0,98.0
11025,39.0,720,720,5.0,86.0
11026,70.0,0,720,2.0,83.0
11027,73.0,0,720,1.0,83.0
11028,61.0,0,720,2.0,83.0
11029,46.0,0,720,4.0,83.0
11030,49.0,720,720,4.0,83.0
11031,44.0,0,0,4.0,78.0
11032,48.0,0,720,4.0,81.0
11033,72.0,0,720,1.0,81.0
11034,68.0,720,720,2.0,81.0
11035,60.0,0,720,2.0,81.0
11036,56.0,0,720,2.0,78.0
11037,65.0,0,720,2.0,78.0
11038,41.0,720,720,4.0,78.0
11039,68.0,0,720,1.0,78.0
11040,27.0,0,3015,5.0,86.0
11041,39.0,0,2310,5.0,83.0
11042,70.0,0,156,1.0,74.0
11043,67.0,720,156,2.0,74.0
11044,58.0,0,156,2.0,74.0
11045,46.0,0,156,4.0,74.0
11046,43.0,0,156,4.0,74.0
11047,67.0,0,156,1.0,74.0
11048,40.0,240,156,4.0,74.0
11049,55.0,0,156,2.0,74.0
11050,68.0,0,156,1.0,73.0
11051,42.0,240,156,4.0,73.0
11052,56.0,0,156,2.0,73.0
11053,38.0,0,156,4.0,73.0
11054,53.0,0,156,2.0,73.0
11055,65.0,240,156,1.0,73.0
11056,55.0,0,156,2.0,72.0
11057,40.0,240,156,4.0,72.0
11058,67.0,0,156,1.0,72.0
11059,52.0,0,156,2.0,72.0
11060,64.0,0,156,1.0,72.0
11061,36.0,240,156,4.0,72.0
11062,65.0,240,156,1.0,71.0
11063,41.0,0,156,4.0,71.0
11064,53.0,0,156,2.0,71.0
11065,53.0,0,156,2.0,70.0
11066,65.0,480,156,1.0,70.0
11067,41.0,0,720,5.0,93.0
11068,29.0,240,720,5.0,93.0
11069,54.0,0,720,4.0,106.0
11070,76.0,0,720,2.0,99.0
11071,88.0,0,720,1.0,99.0
11072,85.0,0,720,2.0,99.0
11073,61.0,720,720,4.0,99.0
11074,64.0,0,720,4.0,99.0
11075,54.0,0,720,4.0,99.0
11076,63.0,0,720,4.0,95.0
11077,87.0,0,720,1.0,95.0
11078,59.0,0,0,4.0,92.0
11079,75.0,720,720,2.0,95.0
11080,83.0,0,720,2.0,95.0
11081,30.0,0,2812,5.0,106.0
11082,83.0,0,660,1.0,92.0
11083,80.0,0,660,2.0,92.0
11084,56.0,720,667,4.0,92.0
11085,42.0,720,2827,5.0,106.0
11086,71.0,0,667,2.0,92.0
11087,64.0,720,720,1.0,66.0
11088,55.0,0,720,4.0,66.0
11089,54.0,0,720,4.0,63.0
11090,62.0,720,720,1.0,63.0
11091,42.0,720,2820,5.0,79.0
11092,50.0,720,660,4.0,60.0
11093,59.0,0,667,1.0,60.0
11094,88.0,0,240,1.0,106.0
11095,64.0,0,240,4.0,106.0
11096,61.0,0,240,4.0,106.0
11097,85.0,0,240,2.0,106.0
11098,76.0,480,240,2.0,106.0
11099,83.0,240,472,2.0,105.0
11100,87.0,0,480,1.0,105.0
11101,75.0,0,480,2.0,105.0
11102,59.0,0,480,4.0,105.0
11103,63.0,0,480,4.0,105.0
11104,83.0,0,180,1.0,102.0
11105,54.0,0,1380,1.0,113.0
11106,42.0,0,1380,5.0,113.0
11107,80.0,0,187,2.0,102.0
11108,56.0,0,187,4.0,102.0
11109,59.0,480,187,4.0,102.0
11110,30.0,720,1387,5.0,113.0
11111,71.0,0,187,2.0,102.0
11112,88.0,0,240,2.0,117.0
11113,64.0,0,240,4.0,117.0
11114,92.0,480,240,1.0,117.0
11115,54.0,240,720,1.0,125.0
11116,68.0,0,240,4.0,117.0
11117,80.0,0,240,2.0,117.0
11118,63.0,0,480,4.0,115.0
11119,87.0,0,480,2.0,115.0
11120,90.0,0,480,1.0,115.0
11121,78.0,0,480,2.0,115.0
11122,66.0,240,480,4.0,115.0
11123,30.0,0,1380,5.0,125.0
11124,42.0,0,1380,5.0,125.0
11125,63.0,0,180,4.0,112.0
11126,83.0,0,180,2.0,112.0
11127,59.0,480,187,4.0,112.0
11128,75.0,0,187,2.0,112.0
11129,87.0,0,240,1.0,112.0
11130,64.0,0,240,1.0,44.0
11131,55.0,480,240,4.0,44.0
11132,62.0,240,480,1.0,43.0
11133,54.0,0,480,4.0,43.0
11134,59.0,480,187,1.0,50.0
11135,42.0,240,1387,5.0,56.0
11136,50.0,0,187,4.0,50.0
11137,52.0,480,240,4.0,36.0
11138,61.0,0,240,1.0,36.0
11139,50.0,240,480,4.0,34.0
11140,59.0,0,480,1.0,34.0
11141,47.0,0,180,4.0,30.0
11142,55.0,480,187,1.0,30.0
11143,42.0,240,1387,5.0,39.0
11144,42.0,0,156,5.0,26.0
11145,35.0,240,156,5.0,27.0
11146,54.0,240,480,1.0,26.0
11147,42.0,240,156,5.0,27.0
11148,35.0,240,156,5.0,27.0
11149,42.0,240,156,5.0,28.0
11150,35.0,240,156,5.0,28.0
11151,42.0,240,156,5.0,29.0
11152,35.0,240,156,5.0,29.0
11153,42.0,240,156,5.0,30.0
11154,58.0,0,156,2.0,30.0
11155,64.0,0,156,2.0,30.0
11156,66.0,240,156,1.0,30.0
11157,61.0,0,156,2.0,30.0
11158,58.0,240,156,2.0,30.0
11159,64.0,0,156,2.0,30.0
11160,61.0,0,156,2.0,30.0
11161,66.0,0,156,1.0,30.0
11162,61.0,0,156,2.0,31.0
11163,66.0,0,156,1.0,31.0
11164,64.0,0,156,2.0,31.0
11165,58.0,240,156,2.0,31.0
11166,63.0,0,156,2.0,31.0
11167,59.0,0,156,2.0,31.0
11168,42.0,240,156,5.0,31.0
11169,66.0,0,192,1.0,31.0
11170,35.0,240,156,5.0,32.0
11171,42.0,240,156,5.0,32.0
11172,58.0,240,156,2.0,32.0
11173,52.0,0,156,2.0,32.0
11174,54.0,0,156,2.0,32.0
11175,61.0,0,156,1.0,32.0
11176,63.0,240,156,1.0,33.0
11177,52.0,0,156,2.0,33.0
11178,54.0,0,156,2.0,33.0
11179,58.0,0,156,2.0,33.0
11180,58.0,240,156,2.0,33.0
11181,52.0,0,156,2.0,33.0
11182,54.0,0,156,2.0,33.0
11183,61.0,0,156,1.0,33.0
11184,51.0,240,156,2.0,34.0
11185,59.0,0,156,1.0,34.0
11186,54.0,0,156,2.0,34.0
11187,42.0,0,156,5.0,34.0
11188,35.0,240,156,5.0,34.0
11189,42.0,240,156,5.0,34.0
11190,66.0,240,156,1.0,35.0
11191,58.0,0,156,2.0,35.0
11192,64.0,0,156,2.0,35.0
11193,61.0,0,156,2.0,35.0
11194,61.0,0,156,2.0,35.0
11195,66.0,240,156,1.0,35.0
11196,58.0,0,156,2.0,35.0
11197,64.0,0,156,2.0,35.0
11198,58.0,0,156,2.0,36.0
11199,66.0,0,156,1.0,36.0
11200,64.0,240,156,2.0,36.0
11201,61.0,0,156,2.0,36.0
11202,63.0,0,156,2.0,36.0
11203,59.0,0,156,2.0,36.0
11204,66.0,240,156,1.0,36.0
11205,42.0,0,156,5.0,36.0
11206,35.0,240,156,5.0,37.0
11207,42.0,240,156,5.0,37.0
11208,54.0,0,156,2.0,37.0
11209,61.0,240,156,1.0,37.0
11210,58.0,0,156,2.0,37.0
11211,52.0,0,156,2.0,38.0
11212,63.0,0,156,1.0,38.0
11213,54.0,240,156,2.0,38.0
11214,58.0,0,156,2.0,38.0
11215,58.0,0,156,2.0,38.0
11216,54.0,240,156,2.0,38.0
11217,52.0,0,156,2.0,38.0
11218,61.0,0,156,1.0,38.0
11219,54.0,0,156,2.0,39.0
11220,51.0,0,156,2.0,39.0
11221,42.0,0,156,5.0,39.0
11222,59.0,240,156,1.0,39.0
11223,35.0,240,156,5.0,39.0
11224,42.0,240,156,5.0,38.0
11225,66.0,0,156,2.0,40.0
11226,60.0,0,156,2.0,40.0
11227,63.0,240,156,2.0,40.0
11228,68.0,0,156,1.0,40.0
11229,60.0,0,156,2.0,42.0
11230,63.0,0,156,2.0,42.0
11231,66.0,240,156,2.0,42.0
11232,68.0,0,156,1.0,42.0
11233,66.0,240,156,2.0,43.0
11234,68.0,0,156,1.0,43.0
11235,60.0,0,156,2.0,43.0
11236,63.0,0,156,2.0,43.0
11237,64.0,0,156,2.0,45.0
11238,61.0,0,156,2.0,45.0
11239,42.0,0,156,5.0,45.0
11240,68.0,240,156,1.0,45.0
11241,35.0,240,156,5.0,47.0
11242,42.0,240,156,5.0,49.0
11243,64.0,0,156,2.0,51.0
11244,58.0,0,156,2.0,51.0
11245,61.0,240,156,2.0,51.0
11246,66.0,0,156,1.0,51.0
11247,58.0,240,156,2.0,53.0
11248,66.0,0,156,1.0,53.0
11249,63.0,0,156,2.0,53.0
11250,64.0,0,156,2.0,53.0
11251,64.0,0,156,2.0,55.0
11252,58.0,240,156,2.0,55.0
11253,61.0,0,156,2.0,55.0
11254,66.0,0,156,1.0,55.0
11255,66.0,0,156,1.0,57.0
11256,35.0,0,156,5.0,57.0
11257,63.0,0,156,2.0,57.0
11258,59.0,240,156,2.0,57.0
11259,42.0,240,156,5.0,59.0
11260,35.0,240,156,5.0,61.0
11261,66.0,0,156,2.0,63.0
11262,63.0,0,156,2.0,63.0
11263,42.0,240,156,5.0,63.0
11264,69.0,0,156,1.0,63.0
11265,71.0,0,156,1.0,65.0
11266,63.0,0,156,2.0,65.0
11267,66.0,240,156,2.0,65.0
11268,69.0,0,156,2.0,65.0
11269,66.0,240,156,2.0,67.0
11270,69.0,0,156,1.0,67.0
11271,63.0,0,156,2.0,67.0
11272,35.0,0,156,5.0,69.0
11273,71.0,0,156,1.0,69.0
11274,68.0,0,156,2.0,69.0
11275,64.0,240,156,2.0,69.0
11276,42.0,240,156,5.0,70.0
11277,35.0,240,156,5.0,72.0
11278,68.0,0,156,2.0,74.0
11279,71.0,0,156,2.0,74.0
11280,42.0,240,156,5.0,74.0
11281,73.0,0,156,1.0,74.0
11282,65.0,0,156,2.0,74.0
11283,65.0,240,156,2.0,76.0
11284,68.0,0,156,2.0,76.0
11285,73.0,0,156,1.0,76.0
11286,73.0,0,156,1.0,78.0
11287,68.0,0,156,2.0,78.0
11288,71.0,240,156,2.0,78.0
11289,65.0,0,156,2.0,78.0
11290,73.0,0,156,1.0,80.0
11291,35.0,0,156,5.0,80.0
11292,70.0,240,156,2.0,80.0
11293,66.0,0,156,2.0,80.0
11294,42.0,240,156,5.0,82.0
11295,35.0,240,156,5.0,84.0
11296,82.0,240,156,2.0,88.0
11297,85.0,0,156,2.0,88.0
11298,76.0,0,156,2.0,88.0
11299,42.0,0,156,5.0,88.0
11300,90.0,0,156,1.0,88.0
11301,90.0,0,156,1.0,91.0
11302,85.0,0,156,2.0,91.0
11303,82.0,0,156,2.0,91.0
11304,76.0,240,156,2.0,91.0
11305,82.0,0,156,2.0,95.0
11306,76.0,0,156,2.0,95.0
11307,85.0,0,156,2.0,95.0
11308,90.0,240,156,1.0,95.0
11309,47.0,240,156,5.0,98.0
11310,35.0,0,156,5.0,98.0
11311,90.0,0,156,1.0,98.0
11312,82.0,0,156,2.0,98.0
11313,76.0,0,156,2.0,98.0
11314,85.0,0,156,2.0,98.0
11315,82.0,0,156,2.0,102.0
11316,90.0,240,156,1.0,102.0
11317,42.0,0,156,5.0,102.0
11318,54.0,0,156,5.0,102.0
11319,85.0,0,156,2.0,102.0
11320,76.0,0,156,2.0,102.0
11321,82.0,0,156,2.0,105.0
11322,35.0,240,156,5.0,105.0
11323,47.0,0,156,5.0,105.0
11324,85.0,0,156,2.0,105.0
11325,76.0,0,156,2.0,105.0
11326,90.0,0,156,1.0,105.0
11327,85.0,0,156,2.0,109.0
11328,54.0,0,156,5.0,109.0
11329,42.0,0,156,5.0,109.0
11330,76.0,0,156,2.0,109.0
11331,82.0,0,156,2.0,109.0
11332,90.0,240,156,1.0,109.0
11333,82.0,0,156,2.0,112.0
11334,90.0,0,156,1.0,112.0
11335,35.0,0,156,5.0,112.0
11336,47.0,240,156,5.0,112.0
11337,85.0,0,156,2.0,112.0
11338,76.0,0,156,2.0,112.0
11339,76.0,0,156,2.0,116.0
11340,85.0,0,156,2.0,116.0
11341,54.0,0,156,5.0,116.0
11342,42.0,0,156,5.0,116.0
11343,90.0,0,156,1.0,116.0
11344,82.0,240,156,2.0,116.0
11345,47.0,0,156,5.0,120.0
11346,87.0,0,156,1.0,120.0
11347,35.0,0,156,5.0,120.0
11348,83.0,0,156,2.0,120.0
11349,75.0,240,156,2.0,120.0
11350,59.0,0,156,5.0,106.0
11351,83.0,480,156,1.0,106.0
11352,71.0,0,156,2.0,106.0
11353,54.0,240,156,5.0,103.0
11354,66.0,0,156,2.0,103.0
11355,78.0,0,156,1.0,103.0
11356,63.0,480,156,2.0,98.0
11357,75.0,0,156,1.0,98.0
11358,51.0,0,156,5.0,98.0
11359,47.0,240,156,5.0,95.0
11360,71.0,0,156,1.0,95.0
11361,59.0,0,156,2.0,95.0
11362,55.0,0,156,2.0,95.0
11363,43.0,480,156,5.0,95.0
11364,67.0,0,156,1.0,95.0
11365,42.0,0,156,5.0,99.0
11366,90.0,0,156,1.0,99.0
11367,85.0,0,156,2.0,99.0
11368,76.0,0,156,2.0,99.0
11369,82.0,240,156,2.0,99.0
11370,54.0,0,156,2.0,99.0
11371,35.0,0,156,5.0,103.0
11372,85.0,0,156,2.0,103.0
11373,76.0,0,156,2.0,103.0
11374,90.0,240,156,1.0,103.0
11375,47.0,0,156,2.0,103.0
11376,82.0,0,156,2.0,103.0
11377,90.0,0,156,1.0,108.0
11378,76.0,0,156,2.0,108.0
11379,54.0,0,156,2.0,108.0
11380,82.0,240,156,2.0,108.0
11381,42.0,0,156,5.0,108.0
11382,85.0,0,156,2.0,108.0
11383,47.0,0,156,2.0,115.0
11384,87.0,0,156,1.0,115.0
11385,75.0,240,156,2.0,115.0
11386,83.0,0,156,2.0,115.0
11387,35.0,0,156,5.0,114.0
11388,71.0,480,156,2.0,110.0
11389,59.0,0,156,5.0,110.0
11390,83.0,0,156,1.0,110.0
11391,54.0,0,156,5.0,108.0
11392,66.0,0,156,2.0,108.0
11393,78.0,240,156,1.0,108.0
11394,51.0,0,156,5.0,104.0
11395,75.0,0,156,1.0,104.0
11396,63.0,480,156,2.0,104.0
11397,71.0,0,156,1.0,103.0
11398,59.0,0,156,2.0,103.0
11399,47.0,240,156,5.0,103.0
11400,43.0,0,156,5.0,107.0
11401,55.0,0,156,2.0,107.0
11402,67.0,480,156,1.0,107.0
11403,85.0,0,156,2.0,111.0
11404,76.0,240,156,2.0,111.0
11405,82.0,0,156,2.0,111.0
11406,54.0,0,156,2.0,111.0
11407,90.0,0,156,1.0,111.0
11408,42.0,0,156,5.0,111.0
11409,47.0,0,156,2.0,115.0
11410,76.0,0,156,2.0,115.0
11411,85.0,0,156,2.0,115.0
11412,82.0,0,156,2.0,115.0
11413,90.0,0,156,1.0,115.0
11414,35.0,240,156,5.0,115.0
11415,82.0,0,156,2.0,119.0
11416,85.0,0,156,2.0,119.0
11417,76.0,0,156,2.0,119.0
11418,42.0,240,156,5.0,119.0
11419,90.0,0,156,1.0,119.0
11420,54.0,0,156,2.0,119.0
11421,87.0,240,156,1.0,124.0
11422,75.0,0,156,2.0,124.0
11423,47.0,0,156,2.0,124.0
11424,83.0,0,156,2.0,124.0
11425,35.0,0,156,5.0,124.0
11426,59.0,0,156,5.0,117.0
11427,83.0,0,156,1.0,117.0
11428,71.0,480,156,2.0,117.0
11429,78.0,240,156,1.0,114.0
11430,54.0,0,156,5.0,114.0
11431,66.0,0,156,2.0,114.0
11432,64.0,0,156,2.0,108.0
11433,76.0,0,156,1.0,108.0
11434,52.0,480,156,5.0,108.0
11435,72.0,0,156,1.0,105.0
11436,60.0,240,156,2.0,105.0
11437,48.0,0,156,5.0,105.0
11438,45.0,0,156,5.0,100.0
11439,69.0,0,156,1.0,100.0
11440,57.0,480,156,2.0,100.0
11441,42.0,0,156,5.0,97.0
11442,66.0,240,156,1.0,97.0
11443,54.0,0,156,2.0,97.0
11444,51.0,0,156,2.0,91.0
11445,63.0,0,156,1.0,91.0
11446,39.0,480,156,5.0,91.0
11447,47.0,240,240,2.0,88.0
11448,35.0,0,240,5.0,88.0
11449,59.0,0,240,1.0,88.0
11450,31.0,0,240,5.0,61.0
11451,55.0,0,240,1.0,61.0
11452,43.0,1440,240,2.0,61.0
11453,40.0,0,240,2.0,58.0
11454,52.0,1440,240,1.0,58.0
11455,28.0,0,720,5.0,58.0
11456,83.0,0,720,2.0,54.0
11457,86.0,0,720,1.0,54.0
11458,32.0,720,720,5.0,54.0
11459,81.0,720,720,2.0,52.0
11460,84.0,0,720,1.0,52.0
11461,33.0,0,720,5.0,52.0
11462,36.0,0,720,5.0,50.0
11463,81.0,0,720,1.0,50.0
11464,78.0,720,720,2.0,50.0
11465,79.0,0,156,2.0,47.0
11466,83.0,0,156,1.0,47.0
11467,76.0,240,156,2.0,47.0
11468,79.0,0,156,1.0,47.0
11469,78.0,0,156,2.0,46.0
11470,81.0,240,156,1.0,46.0
11471,40.0,720,720,5.0,47.0
11472,78.0,0,156,1.0,45.0
11473,75.0,0,156,2.0,45.0
11474,76.0,240,156,2.0,45.0
11475,79.0,0,156,1.0,45.0
11476,76.0,0,156,1.0,44.0
11477,73.0,240,156,2.0,44.0
11478,34.0,240,720,5.0,45.0
11479,75.0,240,156,2.0,43.0
11480,78.0,0,156,1.0,43.0
11481,75.0,0,156,2.0,42.0
11482,78.0,480,156,1.0,42.0
11483,35.0,0,720,5.0,43.0
11484,47.0,240,720,5.0,62.0
11485,71.0,0,870,1.0,62.0
11486,73.0,0,156,1.0,42.0
11487,70.0,240,156,2.0,42.0
11488,71.0,0,156,2.0,41.0
11489,75.0,240,156,1.0,41.0
11490,43.0,720,720,5.0,42.0
11491,73.0,240,156,2.0,41.0
11492,76.0,0,156,1.0,41.0
11493,75.0,240,156,2.0,40.0
11494,78.0,0,156,1.0,40.0
11495,79.0,240,156,1.0,39.0
11496,76.0,0,156,2.0,39.0
11497,40.0,0,720,5.0,41.0
11498,78.0,0,156,1.0,39.0
11499,75.0,240,156,2.0,39.0
11500,83.0,480,156,1.0,38.0
11501,35.0,0,720,5.0,39.0
11502,47.0,0,720,5.0,57.0
11503,71.0,240,900,1.0,57.0
11504,73.0,0,156,1.0,35.0
11505,70.0,240,156,2.0,35.0
11506,75.0,240,156,1.0,35.0
11507,71.0,0,156,2.0,35.0
11508,43.0,720,720,5.0,36.0
11509,73.0,240,156,2.0,34.0
11510,76.0,0,156,1.0,34.0
11511,78.0,0,156,1.0,34.0
11512,75.0,240,156,2.0,34.0
11513,76.0,240,156,2.0,33.0
11514,79.0,0,156,1.0,33.0
11515,40.0,0,720,5.0,34.0
11516,70.0,0,192,2.0,32.0
11517,73.0,240,192,2.0,32.0
11518,78.0,0,192,1.0,32.0
11519,42.0,0,720,5.0,32.0
11520,90.0,0,660,1.0,45.0
11521,37.0,240,660,5.0,40.0
11522,85.0,480,900,1.0,31.0
11523,78.0,0,667,2.0,45.0
11524,82.0,0,667,2.0,45.0
11525,70.0,0,240,1.0,29.0
11526,66.0,0,240,2.0,29.0
11527,58.0,0,480,5.0,29.0
11528,54.0,0,480,5.0,29.0
11529,61.0,720,480,5.0,29.0
11530,37.0,240,480,5.0,39.0
11531,78.0,0,660,2.0,42.0
11532,85.0,480,900,1.0,28.0
11533,90.0,0,667,1.0,42.0
11534,82.0,0,667,2.0,42.0
11535,70.0,0,240,1.0,26.0
11536,66.0,0,240,2.0,26.0
11537,54.0,720,480,5.0,26.0
11538,58.0,0,480,5.0,26.0
11539,61.0,0,480,5.0,26.0
11540,90.0,240,2040,1.0,37.0
11541,82.0,0,2040,2.0,37.0
11542,78.0,0,2040,2.0,37.0
11543,37.0,0,2047,5.0,32.0
11544,85.0,480,2287,1.0,25.0
11545,61.0,0,156,2.0,99.0
11546,49.0,0,156,5.0,99.0
11547,37.0,2400,156,5.0,99.0
11548,73.0,0,156,1.0,99.0
11549,51.0,0,156,5.0,102.0
11550,39.0,240,156,5.0,102.0
11551,75.0,0,156,1.0,102.0
11552,63.0,0,156,2.0,102.0
11553,41.0,0,156,5.0,105.0
11554,65.0,0,156,2.0,105.0
11555,77.0,240,156,1.0,105.0
11556,53.0,0,156,5.0,105.0
11557,78.0,240,156,1.0,109.0
11558,42.0,0,156,5.0,109.0
11559,54.0,0,156,5.0,109.0
11560,66.0,0,156,2.0,109.0
11561,56.0,0,156,5.0,112.0
11562,68.0,240,156,2.0,112.0
11563,44.0,0,156,5.0,112.0
11564,80.0,0,156,1.0,112.0
11565,82.0,0,156,1.0,117.0
11566,46.0,0,156,5.0,117.0
11567,58.0,0,156,5.0,117.0
11568,70.0,0,156,2.0,117.0
11569,73.0,240,156,2.0,117.0
11570,78.0,0,156,2.0,117.0
11571,85.0,480,156,1.0,115.0
11572,73.0,0,156,2.0,115.0
11573,49.0,0,156,5.0,115.0
11574,37.0,0,156,5.0,115.0
11575,42.0,0,156,5.0,123.0
11576,30.0,240,156,5.0,123.0
11577,78.0,0,156,2.0,123.0
11578,90.0,0,156,1.0,123.0
11579,59.0,720,720,4.0,126.0
11580,73.0,0,720,4.0,119.0
11581,93.0,0,720,2.0,119.0
11582,85.0,720,720,2.0,119.0
11583,97.0,0,720,1.0,119.0
11584,69.0,0,720,4.0,119.0
11585,71.0,720,720,4.0,116.0
11586,68.0,0,0,4.0,114.0
11587,92.0,0,720,2.0,117.0
11588,83.0,0,720,2.0,117.0
11589,95.0,0,720,1.0,117.0
11590,88.0,0,720,2.0,114.0
11591,64.0,720,720,4.0,114.0
11592,80.0,0,720,2.0,114.0
11593,92.0,0,720,1.0,114.0
11594,59.0,0,2280,4.0,119.0
11595,47.0,0,3007,5.0,126.0
11596,35.0,0,3015,5.0,126.0
11597,69.0,720,156,4.0,106.0
11598,90.0,0,156,2.0,106.0
11599,81.0,0,156,2.0,106.0
11600,66.0,0,156,4.0,106.0
11601,93.0,0,156,1.0,106.0
11602,63.0,0,156,4.0,106.0
11603,66.0,0,156,4.0,106.0
11604,78.0,0,156,2.0,106.0
11605,87.0,0,156,2.0,106.0
11606,90.0,240,156,1.0,106.0
11607,64.0,0,156,4.0,105.0
11608,68.0,0,156,4.0,105.0
11609,80.0,0,156,2.0,105.0
11610,88.0,0,156,2.0,105.0
11611,92.0,240,156,1.0,105.0
11612,88.0,0,156,1.0,105.0
11613,64.0,0,156,4.0,105.0
11614,76.0,240,156,2.0,105.0
11615,85.0,0,156,2.0,105.0
11616,61.0,0,156,4.0,105.0
11617,66.0,0,156,4.0,104.0
11618,78.0,0,156,2.0,104.0
11619,87.0,240,156,2.0,104.0
11620,63.0,0,156,4.0,104.0
11621,90.0,0,156,1.0,104.0
11622,87.0,240,156,1.0,104.0
11623,59.0,0,156,4.0,104.0
11624,63.0,0,156,4.0,104.0
11625,83.0,0,156,2.0,104.0
11626,75.0,0,156,2.0,104.0
11627,61.0,0,156,4.0,104.0
11628,64.0,0,156,4.0,104.0
11629,76.0,0,156,2.0,104.0
11630,85.0,240,156,2.0,104.0
11631,88.0,0,156,1.0,104.0
11632,85.0,0,156,2.0,103.0
11633,61.0,0,156,4.0,103.0
11634,88.0,480,156,1.0,103.0
11635,76.0,0,156,2.0,103.0
11636,64.0,0,156,4.0,103.0
11637,73.0,0,660,2.0,119.0
11638,81.0,240,660,2.0,119.0
11639,85.0,0,667,1.0,119.0
11640,61.0,0,667,4.0,120.0
11641,57.0,0,667,4.0,120.0
11642,71.0,240,156,2.0,100.0
11643,83.0,0,156,1.0,100.0
11644,75.0,240,156,2.0,100.0
11645,87.0,0,156,1.0,100.0
11646,44.0,720,720,5.0,101.0
11647,56.0,0,720,5.0,101.0
11648,88.0,240,156,1.0,99.0
11649,76.0,0,156,2.0,99.0
11650,90.0,240,156,1.0,99.0
11651,78.0,0,156,2.0,99.0
11652,64.0,0,480,4.0,99.0
11653,56.0,0,480,4.0,99.0
11654,59.0,0,480,4.0,99.0
11655,80.0,0,156,2.0,98.0
11656,92.0,240,156,1.0,98.0
11657,83.0,0,156,2.0,98.0
11658,88.0,240,156,2.0,98.0
11659,95.0,0,156,1.0,98.0
11660,81.0,480,156,2.0,97.0
11661,93.0,0,156,1.0,97.0
11662,54.0,0,720,5.0,98.0
11663,42.0,0,720,5.0,98.0
11664,54.0,0,480,4.0,114.0
11665,61.0,0,480,4.0,114.0
11666,57.0,0,480,4.0,114.0
11667,64.0,0,480,4.0,114.0
11668,88.0,0,660,1.0,114.0
11669,76.0,240,667,2.0,114.0
11670,73.0,240,156,2.0,99.0
11671,85.0,0,156,1.0,99.0
11672,75.0,240,156,2.0,102.0
11673,87.0,0,156,1.0,102.0
11674,40.0,0,720,5.0,95.0
11675,52.0,720,720,5.0,95.0
11676,88.0,0,156,1.0,106.0
11677,76.0,0,156,2.0,106.0
11678,90.0,0,156,1.0,110.0
11679,78.0,240,156,2.0,110.0
11680,64.0,0,480,4.0,106.0
11681,52.0,0,480,4.0,106.0
11682,61.0,0,480,4.0,106.0
11683,56.0,240,480,4.0,106.0
11684,80.0,0,156,2.0,113.0
11685,92.0,240,156,1.0,113.0
11686,95.0,0,156,1.0,120.0
11687,87.0,0,156,2.0,120.0
11688,83.0,0,156,2.0,120.0
11689,93.0,480,156,1.0,111.0
11690,81.0,0,156,2.0,111.0
11691,35.0,0,720,5.0,120.0
11692,47.0,240,720,5.0,120.0
11693,54.0,0,480,4.0,112.0
11694,63.0,240,480,4.0,112.0
11695,57.0,0,480,4.0,112.0
11696,59.0,0,480,4.0,112.0
11697,87.0,0,660,1.0,118.0
11698,75.0,0,660,2.0,118.0
11699,77.0,0,240,2.0,113.0
11700,52.0,720,720,2.0,122.0
11701,86.0,480,240,2.0,113.0
11702,89.0,0,240,1.0,113.0
11703,76.0,0,480,2.0,121.0
11704,84.0,240,480,2.0,121.0
11705,88.0,0,480,1.0,121.0
11706,81.0,0,240,2.0,116.0
11707,65.0,0,240,5.0,112.0
11708,72.0,480,240,2.0,116.0
11709,84.0,0,240,1.0,116.0
11710,86.0,0,156,1.0,115.0
11711,74.0,0,156,2.0,115.0
11712,83.0,0,156,2.0,115.0
11713,83.0,240,156,1.0,113.0
11714,80.0,0,156,2.0,113.0
11715,71.0,0,156,2.0,113.0
11716,64.0,240,487,5.0,118.0
11717,81.0,0,156,2.0,112.0
11718,72.0,240,156,2.0,112.0
11719,84.0,0,156,1.0,112.0
11720,60.0,0,240,5.0,112.0
11721,81.0,0,156,1.0,111.0
11722,69.0,0,156,2.0,111.0
11723,78.0,0,156,2.0,111.0
11724,71.0,240,156,2.0,110.0
11725,80.0,0,156,2.0,110.0
11726,83.0,0,156,1.0,110.0
11727,62.0,240,487,5.0,110.0
11728,80.0,0,156,1.0,108.0
11729,76.0,240,156,2.0,108.0
11730,68.0,0,156,2.0,108.0
11731,52.0,0,2152,5.0,120.0
11732,59.0,0,247,5.0,108.0
11733,28.0,0,3015,5.0,122.0
11734,40.0,0,3030,5.0,122.0
11735,82.0,0,156,1.0,107.0
11736,76.0,240,156,2.0,107.0
11737,52.0,0,156,5.0,106.0
11738,70.0,0,156,2.0,107.0
11739,61.0,0,156,5.0,106.0
11740,79.0,0,240,2.0,108.0
11741,91.0,480,240,1.0,108.0
11742,88.0,0,240,2.0,108.0
11743,90.0,0,480,1.0,115.0
11744,87.0,0,480,2.0,115.0
11745,78.0,0,480,2.0,115.0
11746,83.0,0,240,2.0,110.0
11747,75.0,0,240,2.0,110.0
11748,87.0,480,240,1.0,110.0
11749,67.0,0,240,5.0,106.0
11750,88.0,0,156,1.0,109.0
11751,85.0,0,156,2.0,109.0
11752,76.0,0,156,2.0,109.0
11753,85.0,240,156,1.0,108.0
11754,73.0,0,156,2.0,108.0
11755,82.0,0,156,2.0,108.0
11756,66.0,0,487,5.0,116.0
11757,87.0,240,156,1.0,107.0
11758,83.0,0,156,2.0,107.0
11759,75.0,0,156,2.0,107.0
11760,63.0,0,240,5.0,108.0
11761,71.0,240,156,2.0,107.0
11762,83.0,0,156,1.0,107.0
11763,79.0,0,156,2.0,107.0
11764,81.0,0,156,2.0,106.0
11765,72.0,0,156,2.0,106.0
11766,84.0,240,156,1.0,106.0
11767,64.0,0,487,5.0,106.0
11768,81.0,0,156,1.0,105.0
11769,78.0,240,156,2.0,105.0
11770,69.0,0,156,2.0,105.0
11771,52.0,0,0,5.0,102.0
11772,61.0,0,240,5.0,104.0
11773,28.0,0,2280,5.0,116.0
11774,40.0,240,2287,5.0,116.0
11775,63.0,0,156,5.0,102.0
11776,83.0,0,156,1.0,104.0
11777,71.0,240,156,2.0,104.0
11778,78.0,0,156,2.0,104.0
11779,96.0,0,240,1.0,102.0
11780,84.0,480,240,2.0,102.0
11781,93.0,0,240,2.0,102.0
11782,83.0,0,480,2.0,111.0
11783,95.0,0,480,1.0,111.0
11784,91.0,0,480,2.0,111.0
11785,79.0,0,240,2.0,100.0
11786,88.0,0,240,2.0,100.0
11787,60.0,0,240,5.0,100.0
11788,91.0,480,240,1.0,100.0
11789,72.0,0,240,5.0,100.0
11790,28.0,240,847,5.0,113.0
11791,40.0,0,847,5.0,113.0
11792,93.0,0,156,1.0,104.0
11793,90.0,0,156,2.0,104.0
11794,81.0,240,156,2.0,104.0
11795,90.0,0,156,1.0,105.0
11796,87.0,240,156,2.0,105.0
11797,78.0,0,156,2.0,105.0
11798,59.0,0,495,5.0,108.0
11799,71.0,0,495,5.0,108.0
11800,79.0,240,156,2.0,106.0
11801,67.0,0,156,5.0,103.0
11802,91.0,0,156,1.0,106.0
11803,55.0,0,156,5.0,103.0
11804,88.0,0,156,2.0,106.0
11805,88.0,240,156,1.0,107.0
11806,69.0,0,156,5.0,104.0
11807,57.0,0,156,5.0,104.0
11808,76.0,0,156,2.0,107.0
11809,84.0,0,156,2.0,107.0
11810,54.0,240,156,5.0,106.0
11811,90.0,0,156,1.0,108.0
11812,66.0,0,156,5.0,106.0
11813,86.0,0,156,2.0,108.0
11814,78.0,0,156,2.0,108.0
11815,86.0,0,156,1.0,109.0
11816,74.0,240,156,2.0,109.0
11817,83.0,0,156,2.0,109.0
11818,67.0,0,156,5.0,107.0
11819,55.0,0,156,5.0,107.0
11820,52.0,0,156,5.0,108.0
11821,88.0,240,156,1.0,110.0
11822,64.0,0,156,5.0,108.0
11823,76.0,0,156,2.0,110.0
11824,84.0,0,156,2.0,110.0
11825,66.0,240,156,5.0,110.0
11826,72.0,0,156,2.0,111.0
11827,81.0,0,156,2.0,111.0
11828,84.0,0,156,1.0,111.0
11829,54.0,0,156,5.0,110.0
11830,50.0,240,156,5.0,111.0
11831,74.0,0,156,2.0,112.0
11832,83.0,0,156,2.0,112.0
11833,62.0,0,156,5.0,111.0
11834,86.0,0,156,1.0,112.0
11835,52.0,0,156,5.0,112.0
11836,64.0,240,156,5.0,112.0
11837,79.0,0,156,2.0,113.0
11838,71.0,0,156,2.0,113.0
11839,83.0,0,156,1.0,113.0
11840,81.0,240,156,2.0,114.0
11841,60.0,0,156,5.0,114.0
11842,48.0,0,156,5.0,114.0
11843,72.0,0,156,2.0,114.0
11844,84.0,0,156,1.0,114.0
11845,69.0,240,156,2.0,115.0
11846,50.0,0,156,5.0,115.0
11847,62.0,0,156,5.0,115.0
11848,78.0,0,156,2.0,115.0
11849,81.0,0,156,1.0,115.0
11850,71.0,0,156,2.0,116.0
11851,79.0,0,156,2.0,116.0
11852,47.0,0,156,5.0,116.0
11853,59.0,0,156,5.0,116.0
11854,83.0,240,156,1.0,116.0
11855,76.0,240,156,2.0,117.0
11856,79.0,0,156,1.0,117.0
11857,67.0,0,156,2.0,117.0
11858,48.0,0,156,5.0,118.0
11859,60.0,0,156,5.0,118.0
11860,81.0,240,156,1.0,118.0
11861,45.0,0,156,5.0,119.0
11862,78.0,0,156,2.0,118.0
11863,69.0,0,156,2.0,118.0
11864,57.0,0,156,5.0,119.0
11865,75.0,0,156,2.0,119.0
11866,66.0,0,156,2.0,119.0
11867,78.0,0,156,1.0,119.0
11868,59.0,0,156,5.0,120.0
11869,47.0,240,156,5.0,120.0
11870,79.0,0,156,1.0,120.0
11871,67.0,240,156,2.0,120.0
11872,55.0,0,156,5.0,122.0
11873,43.0,0,156,5.0,122.0
11874,76.0,0,156,2.0,120.0
11875,45.0,0,156,5.0,123.0
11876,57.0,0,156,5.0,123.0
11877,76.0,240,156,1.0,121.0
11878,72.0,0,156,2.0,121.0
11879,64.0,0,156,2.0,121.0
11880,80.0,0,480,2.0,125.0
11881,59.0,480,0,5.0,123.0
11882,71.0,40,480,5.0,125.0
11883,68.0,0,480,4.0,125.0
11884,64.0,0,0,4.0,123.0
11885,88.0,0,480,2.0,125.0
11886,92.0,0,480,1.0,125.0
11887,71.0,480,0,5.0,122.0
11888,79.0,0,480,2.0,123.0
11889,67.0,0,480,4.0,123.0
11890,91.0,0,480,1.0,123.0
11891,88.0,0,480,2.0,123.0
11892,59.0,0,0,5.0,122.0
11893,78.0,0,480,2.0,122.0
11894,87.0,0,480,2.0,122.0
11895,63.0,0,480,4.0,122.0
11896,66.0,0,480,4.0,122.0
11897,59.0,0,0,5.0,120.0
11898,71.0,0,0,5.0,120.0
11899,90.0,0,480,1.0,122.0
11900,89.0,0,480,1.0,120.0
11901,77.0,480,480,2.0,120.0
11902,86.0,0,480,2.0,120.0
11903,62.0,0,480,4.0,120.0
11904,65.0,0,480,4.0,120.0
11905,59.0,480,0,5.0,118.0
11906,64.0,0,480,4.0,118.0
11907,85.0,0,480,2.0,118.0
11908,76.0,0,480,2.0,118.0
11909,71.0,0,480,5.0,118.0
11910,61.0,0,480,4.0,118.0
11911,88.0,0,480,1.0,118.0
11912,75.0,0,480,2.0,116.0
11913,84.0,0,480,2.0,116.0
11914,63.0,0,480,4.0,116.0
11915,59.0,480,480,5.0,116.0
11916,87.0,0,480,1.0,116.0
11917,71.0,0,0,5.0,115.0
11918,86.0,0,480,1.0,115.0
11919,62.0,480,480,4.0,115.0
11920,83.0,0,480,2.0,115.0
11921,59.0,0,480,5.0,115.0
11922,74.0,0,480,2.0,115.0
11923,61.0,0,480,4.0,113.0
11924,58.0,0,480,5.0,113.0
11925,85.0,480,480,1.0,113.0
11926,71.0,0,480,5.0,113.0
11927,82.0,0,480,2.0,113.0
11928,73.0,0,480,2.0,113.0
11929,60.0,0,480,4.0,111.0
11930,84.0,480,480,1.0,111.0
11931,81.0,0,480,2.0,111.0
11932,71.0,0,480,5.0,111.0
11933,72.0,0,480,2.0,111.0
11934,57.0,0,480,5.0,111.0
11935,56.0,480,480,5.0,109.0
11936,68.0,0,480,5.0,109.0
11937,59.0,0,0,4.0,108.0
11938,83.0,0,0,1.0,108.0
11939,71.0,0,0,2.0,108.0
11940,80.0,0,480,2.0,109.0
11941,47.0,40,5056,5.0,125.0
11942,55.0,0,400,5.0,108.0
11943,67.0,480,400,5.0,108.0
11944,79.0,0,400,2.0,108.0
11945,35.0,160,5720,5.0,125.0
11946,83.0,0,480,1.0,106.0
11947,57.0,40,480,4.0,106.0
11948,47.0,400,560,5.0,106.0
11949,78.0,0,480,2.0,106.0
11950,75.0,0,480,2.0,106.0
11951,71.0,0,480,2.0,106.0
11952,66.0,0,480,5.0,106.0
11953,54.0,40,520,5.0,106.0
11954,64.0,0,156,2.0,102.0
11955,52.0,0,156,5.0,102.0
11956,40.0,0,156,5.0,102.0
11957,76.0,480,156,1.0,102.0
11958,50.0,0,156,4.0,101.0
11959,71.0,0,156,2.0,101.0
11960,47.0,0,156,5.0,101.0
11961,74.0,240,156,1.0,101.0
11962,52.0,0,156,5.0,101.0
11963,76.0,0,156,1.0,101.0
11964,64.0,0,156,2.0,101.0
11965,40.0,240,156,5.0,101.0
11966,45.0,0,156,5.0,100.0
11967,48.0,0,156,4.0,100.0
11968,69.0,0,156,2.0,100.0
11969,72.0,240,156,1.0,100.0
11970,52.0,0,156,5.0,99.0
11971,76.0,0,156,1.0,99.0
11972,40.0,0,156,5.0,99.0
11973,64.0,240,156,2.0,99.0
11974,47.0,240,156,4.0,98.0
11975,43.0,0,156,5.0,98.0
11976,67.0,0,156,2.0,98.0
11977,71.0,0,156,1.0,98.0
11978,64.0,0,156,2.0,97.0
11979,76.0,0,156,1.0,97.0
11980,52.0,240,156,5.0,97.0
11981,40.0,0,156,5.0,97.0
11982,42.0,0,156,5.0,96.0
11983,45.0,240,156,4.0,96.0
11984,66.0,0,156,2.0,96.0
11985,69.0,0,156,1.0,96.0
11986,64.0,0,156,2.0,95.0
11987,40.0,0,156,5.0,95.0
11988,52.0,0,156,5.0,95.0
11989,76.0,240,156,1.0,95.0
11990,43.0,0,156,4.0,94.0
11991,67.0,240,156,1.0,94.0
11992,52.0,0,156,5.0,94.0
11993,76.0,240,156,1.0,94.0
11994,40.0,0,156,5.0,94.0
11995,64.0,0,156,2.0,94.0
11996,42.0,0,156,4.0,93.0
11997,66.0,0,156,1.0,93.0
11998,38.0,0,156,5.0,93.0
11999,62.0,240,156,2.0,93.0
12000,76.0,0,156,1.0,92.0
12001,64.0,240,156,2.0,92.0
12002,52.0,0,156,5.0,92.0
12003,60.0,240,156,2.0,91.0
12004,40.0,0,156,4.0,91.0
12005,64.0,0,156,1.0,91.0
12006,36.0,0,156,5.0,91.0
12007,40.0,0,156,5.0,90.0
12008,64.0,240,156,2.0,90.0
12009,76.0,0,156,1.0,90.0
12010,59.0,240,156,2.0,89.0
12011,38.0,0,156,4.0,89.0
12012,62.0,0,156,1.0,89.0
12013,35.0,0,156,5.0,89.0
12014,64.0,0,156,2.0,88.0
12015,40.0,0,156,5.0,88.0
12016,76.0,240,156,1.0,88.0
12017,57.0,0,156,2.0,87.0
12018,33.0,0,156,5.0,87.0
12019,36.0,0,156,4.0,87.0
12020,60.0,240,156,1.0,87.0
12021,76.0,0,156,1.0,86.0
12022,40.0,240,156,5.0,86.0
12023,64.0,0,156,2.0,86.0
12024,31.0,0,156,5.0,86.0
12025,35.0,0,156,4.0,86.0
12026,59.0,0,156,1.0,86.0
12027,55.0,240,156,2.0,86.0
12028,40.0,0,156,5.0,85.0
12029,64.0,240,156,2.0,85.0
12030,76.0,0,156,1.0,85.0
12031,33.0,240,156,4.0,84.0
12032,54.0,0,156,2.0,84.0
12033,30.0,0,156,5.0,84.0
12034,57.0,0,156,1.0,84.0
12035,64.0,0,156,2.0,85.0
12036,40.0,0,156,5.0,85.0
12037,76.0,240,156,1.0,85.0
12038,57.0,0,156,1.0,86.0
12039,53.0,240,156,2.0,86.0
12040,33.0,0,156,4.0,86.0
12041,29.0,0,156,5.0,86.0
12042,55.0,240,156,1.0,86.0
12043,52.0,0,156,2.0,86.0
12044,28.0,0,156,5.0,87.0
12045,40.0,0,156,5.0,87.0
12046,28.0,0,156,5.0,90.0
12047,40.0,240,156,5.0,90.0
12048,52.0,0,156,2.0,90.0
12049,55.0,0,156,1.0,90.0
12050,52.0,0,156,2.0,95.0
12051,40.0,0,156,5.0,93.0
12052,28.0,0,156,5.0,93.0
12053,55.0,240,156,1.0,95.0
12054,53.0,0,720,2.0,104.0
12055,57.0,240,720,1.0,104.0
12056,45.0,0,720,5.0,102.0
12057,48.0,0,720,4.0,102.0
12058,40.0,720,156,5.0,93.0
12059,28.0,0,156,5.0,93.0
12060,52.0,0,156,2.0,95.0
12061,55.0,0,156,1.0,95.0
12062,52.0,0,156,2.0,98.0
12063,28.0,0,156,5.0,97.0
12064,40.0,0,156,5.0,97.0
12065,55.0,240,156,1.0,98.0
12066,28.0,0,156,5.0,101.0
12067,40.0,0,156,5.0,101.0
12068,55.0,240,156,1.0,102.0
12069,52.0,0,156,2.0,102.0
12070,69.0,240,720,1.0,112.0
12071,45.0,0,720,5.0,110.0
12072,60.0,0,720,2.0,112.0
12073,57.0,0,720,2.0,112.0
12074,53.0,0,720,4.0,110.0
12075,28.0,720,156,5.0,101.0
12076,40.0,0,156,5.0,101.0
12077,52.0,0,156,2.0,103.0
12078,55.0,0,156,1.0,103.0
12079,52.0,0,156,2.0,107.0
12080,55.0,240,156,1.0,107.0
12081,40.0,0,156,5.0,104.0
12082,28.0,0,156,5.0,104.0
12083,55.0,0,156,1.0,110.0
12084,40.0,0,156,5.0,108.0
12085,28.0,240,156,5.0,108.0
12086,52.0,0,156,2.0,110.0
12087,79.0,0,960,2.0,120.0
12088,72.0,0,960,2.0,120.0
12089,76.0,0,960,2.0,120.0
12090,84.0,0,960,1.0,120.0
12091,52.0,0,960,4.0,118.0
12092,48.0,0,960,4.0,118.0
12093,55.0,0,960,4.0,118.0
12094,60.0,0,960,4.0,118.0
12095,46.0,240,960,5.0,118.0
12096,52.0,0,240,2.0,108.0
12097,28.0,1440,240,5.0,109.0
12098,55.0,0,240,1.0,108.0
12099,40.0,0,240,5.0,109.0
12100,55.0,0,240,1.0,113.0
12101,28.0,0,240,5.0,114.0
12102,40.0,0,240,5.0,114.0
12103,52.0,720,240,2.0,113.0
12104,55.0,720,240,1.0,118.0
12105,52.0,0,240,2.0,118.0
12106,40.0,0,240,5.0,120.0
12107,28.0,0,240,5.0,120.0
12108,89.0,0,1440,1.0,126.0
12109,77.0,0,1440,2.0,126.0
12110,81.0,0,1440,2.0,126.0
12111,84.0,0,1440,2.0,126.0
12112,33.0,0,1440,5.0,126.0
12113,41.0,720,1440,4.0,126.0
12114,36.0,0,1440,4.0,126.0
12115,48.0,0,1440,4.0,126.0
12116,72.0,1680,156,5.0,119.0
12117,60.0,0,156,5.0,119.0
12118,96.0,0,78,1.0,119.0
12119,84.0,120,78,2.0,119.0
12120,69.0,120,156,5.0,118.0
12121,57.0,0,156,5.0,118.0
12122,93.0,0,78,1.0,118.0
12123,81.0,120,78,2.0,118.0
12124,65.0,120,156,5.0,118.0
12125,53.0,0,156,5.0,118.0
12126,77.0,0,78,2.0,117.0
12127,89.0,120,78,1.0,117.0
12128,60.0,120,156,5.0,117.0
12129,48.0,0,156,5.0,117.0
12130,84.0,120,78,1.0,116.0
12131,72.0,0,78,2.0,116.0
12132,45.0,120,156,5.0,116.0
12133,57.0,0,156,5.0,116.0
12134,81.0,120,78,1.0,116.0
12135,69.0,0,78,2.0,116.0
12136,53.0,0,156,5.0,115.0
12137,41.0,120,156,5.0,115.0
12138,77.0,120,78,1.0,115.0
12139,65.0,0,78,2.0,115.0
12140,36.0,0,156,5.0,115.0
12141,48.0,120,156,5.0,115.0
12142,60.0,120,78,2.0,114.0
12143,72.0,0,78,1.0,114.0
12144,45.0,0,156,5.0,114.0
12145,33.0,120,156,5.0,114.0
12146,69.0,120,78,1.0,114.0
12147,57.0,0,78,2.0,114.0
12148,29.0,120,156,5.0,113.0
12149,41.0,0,156,5.0,113.0
12150,53.0,120,78,2.0,113.0
12151,65.0,0,78,1.0,113.0
12152,24.0,120,156,5.0,113.0
12153,36.0,0,156,5.0,113.0
12154,60.0,120,78,1.0,112.0
12155,48.0,0,78,2.0,112.0
12156,26.0,120,156,5.0,112.0
12157,38.0,0,156,5.0,112.0
12158,62.0,120,78,1.0,112.0
12159,50.0,0,78,2.0,112.0
12160,52.0,0,240,2.0,121.0
12161,59.0,0,240,2.0,121.0
12162,55.0,120,240,2.0,121.0
12163,40.0,0,240,5.0,121.0
12164,64.0,0,240,1.0,121.0
12165,28.0,0,240,5.0,121.0
12166,64.0,1440,240,1.0,121.0
12167,59.0,0,240,2.0,121.0
12168,28.0,0,240,5.0,121.0
12169,40.0,0,240,5.0,121.0
12170,55.0,0,240,2.0,121.0
12171,52.0,0,240,2.0,121.0
12172,55.0,0,240,2.0,118.0
12173,59.0,1440,240,2.0,118.0
12174,52.0,0,240,2.0,118.0
12175,28.0,0,240,5.0,118.0
12176,40.0,0,240,5.0,118.0
12177,64.0,0,240,1.0,118.0
12178,72.0,5040,156,2.0,81.0
12179,36.0,0,156,5.0,81.0
12180,76.0,40,156,2.0,81.0
12181,84.0,40,156,1.0,82.0
12182,43.0,160,156,3.0,75.0
12183,60.0,240,156,2.0,75.0
12184,48.0,0,156,3.0,75.0
12185,64.0,0,156,1.0,75.0
12186,64.0,0,156,1.0,76.0
12187,60.0,0,156,2.0,76.0
12188,36.0,240,156,5.0,76.0
12189,62.0,240,156,2.0,76.0
12190,65.0,0,156,1.0,76.0
12191,43.0,0,156,3.0,76.0
12192,67.0,0,156,1.0,77.0
12193,64.0,240,156,2.0,77.0
12194,48.0,0,156,3.0,77.0
12195,65.0,0,156,2.0,77.0
12196,69.0,240,156,1.0,77.0
12197,36.0,0,156,5.0,77.0
12198,64.0,0,156,2.0,78.0
12199,43.0,0,156,3.0,78.0
12200,67.0,240,156,1.0,78.0
12201,48.0,240,156,3.0,85.0
12202,72.0,0,156,2.0,85.0
12203,76.0,40,156,2.0,84.0
12204,84.0,40,156,1.0,84.0
12205,36.0,160,156,5.0,79.0
12206,64.0,0,156,1.0,79.0
12207,60.0,0,156,2.0,79.0
12208,43.0,240,156,3.0,79.0
12209,62.0,0,156,2.0,79.0
12210,65.0,0,156,1.0,79.0
12211,67.0,240,156,1.0,80.0
12212,48.0,0,156,3.0,80.0
12213,64.0,0,156,2.0,80.0
12214,65.0,240,156,2.0,80.0
12215,36.0,0,156,5.0,80.0
12216,69.0,0,156,1.0,80.0
12217,64.0,0,156,2.0,81.0
12218,67.0,240,156,1.0,81.0
12219,43.0,0,156,3.0,81.0
12220,65.0,0,156,2.0,81.0
12221,48.0,240,156,3.0,81.0
12222,69.0,0,156,1.0,81.0
12223,67.0,0,156,2.0,82.0
12224,36.0,240,156,5.0,82.0
12225,71.0,0,156,1.0,82.0
12226,43.0,240,156,3.0,82.0
12227,72.0,0,156,1.0,82.0
12228,69.0,0,156,2.0,82.0
12229,74.0,240,156,1.0,83.0
12230,71.0,0,156,2.0,83.0
12231,48.0,0,156,3.0,83.0
12232,76.0,240,156,2.0,89.0
12233,36.0,0,156,5.0,89.0
12234,84.0,40,156,2.0,88.0
12235,79.0,0,156,2.0,88.0
12236,88.0,40,156,1.0,88.0
12237,43.0,160,156,3.0,82.0
12238,67.0,240,156,1.0,84.0
12239,48.0,0,156,3.0,84.0
12240,64.0,0,156,2.0,84.0
12241,36.0,240,156,5.0,86.0
12242,67.0,0,156,1.0,86.0
12243,64.0,0,156,2.0,86.0
12244,69.0,240,156,1.0,87.0
12245,65.0,0,156,2.0,87.0
12246,43.0,0,156,3.0,87.0
12247,71.0,240,156,1.0,89.0
12248,48.0,0,156,3.0,89.0
12249,67.0,0,156,2.0,89.0
12250,36.0,0,156,5.0,91.0
12251,69.0,0,156,2.0,91.0
12252,72.0,240,156,1.0,91.0
12253,67.0,240,156,2.0,93.0
12254,43.0,0,156,3.0,93.0
12255,71.0,0,156,1.0,93.0
12256,76.0,0,156,2.0,101.0
12257,48.0,240,156,3.0,101.0
12258,84.0,0,156,2.0,102.0
12259,79.0,40,156,2.0,102.0
12260,88.0,40,156,1.0,103.0
12261,36.0,0,156,5.0,97.0
12262,67.0,0,156,2.0,97.0
12263,71.0,160,156,1.0,97.0
12264,72.0,0,156,1.0,99.0
12265,69.0,240,156,2.0,99.0
12266,43.0,0,156,3.0,99.0
12267,74.0,240,156,1.0,100.0
12268,71.0,0,156,2.0,100.0
12269,48.0,0,156,3.0,100.0
12270,72.0,0,156,2.0,102.0
12271,76.0,0,156,1.0,102.0
12272,36.0,240,156,5.0,102.0
12273,71.0,240,156,2.0,104.0
12274,74.0,0,156,1.0,104.0
12275,43.0,0,156,3.0,104.0
12276,76.0,0,156,1.0,106.0
12277,48.0,240,156,3.0,106.0
12278,72.0,0,156,2.0,106.0
12279,74.0,0,156,2.0,107.0
12280,78.0,240,156,1.0,107.0
12281,36.0,0,156,5.0,107.0
12282,76.0,0,156,2.0,109.0
12283,43.0,0,156,3.0,109.0
12284,79.0,240,156,1.0,109.0
12285,48.0,240,156,3.0,111.0
12286,78.0,0,156,2.0,111.0
12287,81.0,0,156,1.0,111.0
12288,35.0,0,156,5.0,117.0
12289,43.0,240,156,3.0,110.0
12290,47.0,240,156,3.0,109.0
12291,83.0,0,840,2.0,117.0
12292,91.0,240,845,2.0,117.0
12293,95.0,0,845,1.0,117.0
12294,35.0,240,156,5.0,108.0
12295,90.0,0,156,2.0,108.0
12296,43.0,240,156,3.0,108.0
12297,81.0,0,156,2.0,108.0
12298,93.0,0,156,1.0,108.0
12299,47.0,0,156,3.0,107.0
12300,79.0,0,156,2.0,107.0
12301,88.0,240,156,2.0,107.0
12302,91.0,0,156,1.0,107.0
12303,35.0,0,156,5.0,112.0
12304,42.0,240,156,3.0,105.0
12305,47.0,240,156,3.0,105.0
12306,81.0,0,720,2.0,112.0
12307,90.0,0,835,2.0,112.0
12308,93.0,240,840,1.0,112.0
12309,35.0,240,156,5.0,104.0
12310,88.0,0,156,2.0,103.0
12311,91.0,240,156,1.0,103.0
12312,42.0,0,156,3.0,103.0
12313,79.0,0,156,2.0,103.0
12314,87.0,240,156,2.0,102.0
12315,90.0,0,156,1.0,102.0
12316,47.0,0,156,3.0,102.0
12317,78.0,0,156,2.0,102.0
12318,88.0,0,156,2.0,102.0
12319,91.0,0,156,1.0,102.0
12320,35.0,240,156,5.0,102.0
12321,79.0,0,156,2.0,102.0
12322,90.0,240,156,1.0,101.0
12323,87.0,0,156,2.0,101.0
12324,78.0,0,156,2.0,101.0
12325,40.0,0,156,3.0,101.0
12326,47.0,0,156,3.0,100.0
12327,88.0,240,156,1.0,100.0
12328,76.0,0,156,2.0,100.0
12329,85.0,0,156,2.0,100.0
12330,35.0,0,156,5.0,100.0
12331,90.0,0,156,1.0,100.0
12332,78.0,240,156,2.0,100.0
12333,87.0,0,156,2.0,100.0
12334,39.0,240,156,3.0,99.0
12335,83.0,240,156,1.0,105.0
12336,47.0,0,156,3.0,105.0
12337,71.0,0,156,2.0,105.0
12338,28.0,0,156,5.0,110.0
12339,35.0,240,156,3.0,102.0
12340,40.0,240,156,3.0,102.0
12341,83.0,0,840,2.0,110.0
12342,92.0,240,845,2.0,110.0
12343,95.0,0,845,1.0,110.0
12344,28.0,240,156,5.0,101.0
12345,35.0,0,156,3.0,100.0
12346,81.0,0,156,2.0,100.0
12347,90.0,0,156,2.0,100.0
12348,93.0,240,156,1.0,100.0
12349,88.0,0,156,2.0,99.0
12350,92.0,0,156,1.0,99.0
12351,80.0,0,156,2.0,99.0
12352,40.0,240,156,3.0,99.0
12353,28.0,0,156,5.0,106.0
12354,35.0,240,156,3.0,98.0
12355,40.0,240,156,3.0,97.0
12356,81.0,0,720,2.0,106.0
12357,93.0,0,840,1.0,106.0
12358,90.0,240,840,2.0,106.0
12359,28.0,240,156,5.0,96.0
12360,92.0,240,156,1.0,95.0
12361,35.0,0,156,3.0,95.0
12362,88.0,0,156,2.0,95.0
12363,80.0,0,156,2.0,95.0
12364,78.0,0,156,2.0,95.0
12365,87.0,0,156,2.0,95.0
12366,40.0,0,156,3.0,95.0
12367,90.0,240,156,1.0,95.0
12368,88.0,240,156,2.0,94.0
12369,80.0,0,156,2.0,94.0
12370,92.0,0,156,1.0,94.0
12371,28.0,0,156,5.0,94.0
12372,78.0,0,156,2.0,93.0
12373,87.0,0,156,2.0,93.0
12374,90.0,0,156,1.0,93.0
12375,35.0,240,156,3.0,93.0
12376,40.0,0,156,3.0,92.0
12377,88.0,0,156,1.0,92.0
12378,76.0,0,156,2.0,92.0
12379,85.0,240,156,2.0,92.0
12380,78.0,0,156,2.0,91.0
12381,87.0,0,156,2.0,91.0
12382,90.0,240,156,1.0,91.0
12383,28.0,0,156,5.0,91.0
12384,35.0,240,156,3.0,91.0
12385,83.0,0,156,1.0,96.0
12386,40.0,240,156,3.0,96.0
12387,71.0,0,156,2.0,96.0
12388,95.0,240,156,1.0,101.0
12389,28.0,0,156,5.0,103.0
12390,92.0,0,156,2.0,101.0
12391,83.0,0,156,2.0,101.0
12392,52.0,480,480,5.0,101.0
12393,92.0,0,480,1.0,99.0
12394,64.0,0,0,4.0,99.0
12395,56.0,0,480,4.0,101.0
12396,80.0,0,480,2.0,99.0
12397,88.0,0,480,2.0,99.0
12398,59.0,0,480,4.0,101.0
12399,93.0,480,720,1.0,97.0
12400,52.0,0,0,5.0,96.0
12401,61.0,0,720,4.0,99.0
12402,57.0,0,0,4.0,96.0
12403,81.0,0,720,2.0,97.0
12404,88.0,0,0,2.0,94.0
12405,90.0,0,288,1.0,94.0
12406,78.0,720,288,2.0,94.0
12407,54.0,0,288,4.0,96.0
12408,64.0,0,288,4.0,96.0
12409,88.0,0,96,2.0,89.0
12410,80.0,360,96,2.0,89.0
12411,52.0,0,96,5.0,89.0
12412,92.0,0,96,1.0,89.0
12413,64.0,0,96,4.0,89.0
12414,56.0,0,96,4.0,89.0
12415,59.0,0,96,4.0,89.0
12416,64.0,0,156,4.0,87.0
12417,88.0,0,156,2.0,87.0
12418,92.0,120,156,1.0,87.0
12419,56.0,0,156,4.0,87.0
12420,59.0,0,156,4.0,87.0
12421,80.0,0,156,2.0,87.0
12422,52.0,0,156,5.0,87.0
12423,52.0,0,480,4.0,96.0
12424,80.0,0,480,1.0,96.0
12425,47.0,480,480,4.0,96.0
12426,76.0,0,0,2.0,95.0
12427,68.0,0,480,2.0,96.0
12428,40.0,0,480,5.0,96.0
12429,40.0,0,720,5.0,95.0
12430,81.0,0,720,1.0,95.0
12431,52.0,480,720,4.0,95.0
12432,69.0,0,720,2.0,95.0
12433,76.0,720,0,2.0,92.0
12434,49.0,0,720,4.0,95.0
12435,52.0,0,288,4.0,92.0
12436,45.0,0,288,4.0,92.0
12437,40.0,0,288,5.0,92.0
12438,66.0,0,288,2.0,92.0
12439,78.0,0,288,1.0,92.0
12440,40.0,0,96,5.0,87.0
12441,76.0,0,96,2.0,88.0
12442,68.0,0,96,2.0,88.0
12443,47.0,0,96,4.0,88.0
12444,80.0,360,96,1.0,88.0
12445,52.0,0,96,4.0,88.0
12446,80.0,0,156,1.0,87.0
12447,28.0,0,156,5.0,87.0
12448,68.0,120,156,2.0,87.0
12449,76.0,0,156,2.0,87.0
12450,35.0,240,156,3.0,84.0
12451,76.0,0,156,2.0,92.0
12452,40.0,240,156,3.0,83.0
12453,80.0,40,156,2.0,92.0
12454,88.0,40,156,1.0,92.0
12455,64.0,160,156,1.0,83.0
12456,28.0,0,156,5.0,78.0
12457,52.0,0,156,2.0,83.0
12458,35.0,240,156,3.0,82.0
12459,40.0,240,156,3.0,81.0
12460,28.0,240,156,5.0,75.0
12461,35.0,240,156,3.0,80.0
12462,40.0,0,156,3.0,79.0
12463,76.0,240,156,2.0,81.0
12464,80.0,40,156,2.0,80.0
12465,88.0,40,156,1.0,80.0
12466,52.0,0,156,2.0,74.0
12467,28.0,0,156,5.0,73.0
12468,64.0,160,156,1.0,74.0
12469,35.0,240,156,3.0,74.0
12470,40.0,240,156,3.0,73.0
12471,28.0,240,156,5.0,71.0
12472,35.0,240,156,3.0,72.0
12473,40.0,240,156,3.0,71.0
12474,28.0,240,156,5.0,68.0
12475,35.0,240,156,3.0,69.0
12476,40.0,240,156,3.0,69.0
12477,28.0,240,156,5.0,66.0
12478,35.0,240,156,3.0,67.0
12479,68.0,0,156,2.0,65.0
12480,40.0,0,156,3.0,66.0
12481,64.0,0,156,2.0,65.0
12482,76.0,240,156,1.0,65.0
12483,28.0,240,156,5.0,64.0
12484,52.0,0,156,1.0,65.0
12485,35.0,240,156,3.0,65.0
12486,40.0,240,156,3.0,64.0
12487,28.0,240,156,5.0,62.0
12488,35.0,240,156,3.0,62.0
12489,76.0,0,156,1.0,60.0
12490,64.0,240,156,2.0,60.0
12491,40.0,0,156,3.0,61.0
12492,68.0,0,156,2.0,60.0
12493,28.0,240,156,5.0,59.0
12494,52.0,0,156,1.0,59.0
12495,35.0,240,156,3.0,60.0
12496,40.0,240,156,3.0,59.0
12497,28.0,240,156,5.0,57.0
12498,35.0,240,156,3.0,57.0
12499,40.0,240,156,3.0,56.0
12500,28.0,240,156,5.0,55.0
12501,36.0,0,156,5.0,81.0
12502,72.0,720,156,2.0,81.0
12503,76.0,40,156,2.0,81.0
12504,84.0,40,156,1.0,82.0
12505,43.0,160,156,3.0,75.0
12506,64.0,240,156,1.0,75.0
12507,48.0,0,156,3.0,75.0
12508,60.0,0,156,2.0,75.0
12509,60.0,240,156,2.0,76.0
12510,36.0,0,156,5.0,76.0
12511,64.0,0,156,1.0,76.0
12512,65.0,240,156,1.0,76.0
12513,43.0,0,156,3.0,76.0
12514,62.0,0,156,2.0,76.0
12515,64.0,240,156,2.0,77.0
12516,48.0,0,156,3.0,77.0
12517,67.0,0,156,1.0,77.0
12518,69.0,0,156,1.0,77.0
12519,36.0,0,156,5.0,77.0
12520,65.0,240,156,2.0,77.0
12521,64.0,0,156,2.0,78.0
12522,43.0,240,156,3.0,78.0
12523,67.0,0,156,1.0,78.0
12524,72.0,0,156,2.0,85.0
12525,48.0,240,156,3.0,85.0
12526,76.0,40,156,2.0,84.0
12527,84.0,40,156,1.0,84.0
12528,64.0,0,156,1.0,79.0
12529,36.0,0,156,5.0,79.0
12530,60.0,160,156,2.0,79.0
12531,65.0,0,156,1.0,79.0
12532,43.0,240,156,3.0,79.0
12533,62.0,0,156,2.0,79.0
12534,64.0,0,156,2.0,80.0
12535,48.0,240,156,3.0,80.0
12536,67.0,0,156,1.0,80.0
12537,69.0,240,156,1.0,80.0
12538,65.0,0,156,2.0,80.0
12539,36.0,0,156,5.0,80.0
12540,43.0,0,156,3.0,81.0
12541,64.0,0,156,2.0,81.0
12542,67.0,240,156,1.0,81.0
12543,65.0,240,156,2.0,81.0
12544,69.0,0,156,1.0,81.0
12545,48.0,0,156,3.0,81.0
12546,67.0,240,156,2.0,82.0
12547,71.0,0,156,1.0,82.0
12548,36.0,0,156,5.0,82.0
12549,72.0,240,156,1.0,82.0
12550,69.0,0,156,2.0,82.0
12551,43.0,0,156,3.0,82.0
12552,48.0,0,156,3.0,83.0
12553,74.0,0,156,1.0,83.0
12554,71.0,240,156,2.0,83.0
12555,76.0,0,156,2.0,89.0
12556,36.0,240,156,5.0,89.0
12557,84.0,40,156,2.0,88.0
12558,79.0,0,156,2.0,88.0
12559,88.0,40,156,1.0,88.0
12560,43.0,160,156,3.0,82.0
12561,64.0,240,156,2.0,84.0
12562,67.0,0,156,1.0,84.0
12563,48.0,0,156,3.0,84.0
12564,67.0,0,156,1.0,86.0
12565,64.0,240,156,2.0,86.0
12566,36.0,0,156,5.0,86.0
12567,65.0,0,156,2.0,87.0
12568,43.0,240,156,3.0,87.0
12569,69.0,0,156,1.0,87.0
12570,67.0,0,156,2.0,89.0
12571,48.0,0,156,3.0,89.0
12572,71.0,240,156,1.0,89.0
12573,69.0,0,156,2.0,91.0
12574,72.0,0,156,1.0,91.0
12575,36.0,240,156,5.0,91.0
12576,71.0,0,156,1.0,93.0
12577,43.0,240,156,3.0,93.0
12578,67.0,0,156,2.0,93.0
12579,76.0,240,156,2.0,101.0
12580,48.0,0,156,3.0,101.0
12581,79.0,0,156,2.0,102.0
12582,84.0,40,156,2.0,102.0
12583,88.0,40,156,1.0,103.0
12584,36.0,0,156,5.0,97.0
12585,71.0,160,156,1.0,97.0
12586,67.0,0,156,2.0,97.0
12587,72.0,240,156,1.0,99.0
12588,69.0,0,156,2.0,99.0
12589,43.0,0,156,3.0,99.0
12590,71.0,0,156,2.0,100.0
12591,48.0,0,156,3.0,100.0
12592,74.0,240,156,1.0,100.0
12593,72.0,0,156,2.0,102.0
12594,76.0,0,156,1.0,102.0
12595,36.0,240,156,5.0,102.0
12596,74.0,240,156,1.0,104.0
12597,71.0,0,156,2.0,104.0
12598,43.0,0,156,3.0,104.0
12599,72.0,240,156,2.0,106.0
12600,48.0,0,156,3.0,106.0
12601,76.0,0,156,1.0,106.0
12602,78.0,0,156,1.0,107.0
12603,74.0,0,156,2.0,107.0
12604,36.0,240,156,5.0,107.0
12605,43.0,0,156,3.0,109.0
12606,76.0,240,156,2.0,109.0
12607,79.0,0,156,1.0,109.0
12608,78.0,240,156,2.0,111.0
12609,81.0,0,156,1.0,111.0
12610,48.0,0,156,3.0,111.0
12611,35.0,240,156,5.0,117.0
12612,43.0,240,156,3.0,110.0
12613,47.0,240,156,3.0,109.0
12614,83.0,0,840,2.0,117.0
12615,95.0,0,845,1.0,117.0
12616,91.0,0,845,2.0,117.0
12617,35.0,240,156,5.0,108.0
12618,81.0,0,156,2.0,108.0
12619,90.0,240,156,2.0,108.0
12620,43.0,0,156,3.0,108.0
12621,93.0,0,156,1.0,108.0
12622,47.0,240,156,3.0,107.0
12623,91.0,0,156,1.0,107.0
12624,79.0,0,156,2.0,107.0
12625,88.0,0,156,2.0,107.0
12626,35.0,0,156,5.0,112.0
12627,42.0,240,156,3.0,105.0
12628,47.0,240,156,3.0,105.0
12629,81.0,0,720,2.0,112.0
12630,90.0,240,835,2.0,112.0
12631,93.0,0,840,1.0,112.0
12632,35.0,240,156,5.0,104.0
12633,42.0,0,156,3.0,103.0
12634,79.0,0,156,2.0,103.0
12635,88.0,240,156,2.0,103.0
12636,91.0,0,156,1.0,103.0
12637,87.0,0,156,2.0,102.0
12638,47.0,0,156,3.0,102.0
12639,78.0,240,156,2.0,102.0
12640,90.0,0,156,1.0,102.0
12641,35.0,0,156,5.0,102.0
12642,88.0,0,156,2.0,102.0
12643,79.0,240,156,2.0,102.0
12644,91.0,0,156,1.0,102.0
12645,90.0,0,156,1.0,101.0
12646,40.0,0,156,3.0,101.0
12647,78.0,240,156,2.0,101.0
12648,87.0,0,156,2.0,101.0
12649,76.0,0,156,2.0,100.0
12650,85.0,0,156,2.0,100.0
12651,47.0,0,156,3.0,100.0
12652,88.0,240,156,1.0,100.0
12653,90.0,240,156,1.0,100.0
12654,35.0,0,156,5.0,100.0
12655,78.0,0,156,2.0,100.0
12656,87.0,0,156,2.0,100.0
12657,39.0,240,156,3.0,99.0
12658,47.0,0,156,3.0,105.0
12659,83.0,0,156,1.0,105.0
12660,71.0,240,156,2.0,105.0
12661,28.0,0,156,5.0,110.0
12662,35.0,240,156,3.0,102.0
12663,40.0,240,156,3.0,102.0
12664,83.0,240,840,2.0,110.0
12665,92.0,0,845,2.0,110.0
12666,95.0,0,845,1.0,110.0
12667,28.0,240,156,5.0,101.0
12668,81.0,0,156,2.0,100.0
12669,93.0,240,156,1.0,100.0
12670,35.0,0,156,3.0,100.0
12671,90.0,0,156,2.0,100.0
12672,40.0,240,156,3.0,99.0
12673,92.0,0,156,1.0,99.0
12674,88.0,0,156,2.0,99.0
12675,80.0,0,156,2.0,99.0
12676,28.0,0,156,5.0,106.0
12677,35.0,240,156,3.0,98.0
12678,40.0,240,156,3.0,97.0
12679,81.0,240,720,2.0,106.0
12680,90.0,0,840,2.0,106.0
12681,93.0,0,840,1.0,106.0
12682,28.0,240,156,5.0,96.0
12683,88.0,0,156,2.0,95.0
12684,80.0,240,156,2.0,95.0
12685,92.0,0,156,1.0,95.0
12686,35.0,0,156,3.0,95.0
12687,40.0,240,156,3.0,95.0
12688,87.0,0,156,2.0,95.0
12689,78.0,0,156,2.0,95.0
12690,90.0,0,156,1.0,95.0
12691,92.0,0,156,1.0,94.0
12692,88.0,0,156,2.0,94.0
12693,28.0,0,156,5.0,94.0
12694,80.0,240,156,2.0,94.0
12695,90.0,240,156,1.0,93.0
12696,35.0,0,156,3.0,93.0
12697,87.0,0,156,2.0,93.0
12698,78.0,0,156,2.0,93.0
12699,40.0,0,156,3.0,92.0
12700,76.0,240,156,2.0,92.0
12701,88.0,0,156,1.0,92.0
12702,85.0,0,156,2.0,92.0
12703,28.0,0,156,5.0,91.0
12704,78.0,240,156,2.0,91.0
12705,90.0,0,156,1.0,91.0
12706,87.0,0,156,2.0,91.0
12707,35.0,240,156,3.0,91.0
12708,83.0,240,156,1.0,96.0
12709,71.0,0,156,2.0,96.0
12710,40.0,0,156,3.0,96.0
12711,95.0,0,156,1.0,101.0
12712,83.0,240,156,2.0,101.0
12713,92.0,0,156,2.0,101.0
12714,28.0,0,156,5.0,103.0
12715,80.0,0,480,2.0,99.0
12716,59.0,480,480,4.0,101.0
12717,88.0,0,480,2.0,99.0
12718,56.0,0,480,4.0,101.0
12719,64.0,480,0,4.0,99.0
12720,52.0,0,480,5.0,101.0
12721,92.0,0,480,1.0,99.0
12722,93.0,0,720,1.0,97.0
12723,52.0,0,720,5.0,99.0
12724,61.0,0,720,4.0,99.0
12725,57.0,0,720,4.0,99.0
12726,81.0,0,720,2.0,97.0
12727,88.0,0,0,2.0,94.0
12728,90.0,720,288,1.0,94.0
12729,78.0,0,288,2.0,94.0
12730,64.0,0,288,4.0,96.0
12731,54.0,0,288,4.0,96.0
12732,52.0,0,288,5.0,96.0
12733,57.0,0,288,4.0,96.0
12734,52.0,0,96,5.0,89.0
12735,80.0,360,96,2.0,89.0
12736,92.0,0,96,1.0,89.0
12737,59.0,0,96,4.0,89.0
12738,56.0,0,96,4.0,89.0
12739,64.0,0,96,4.0,89.0
12740,88.0,0,96,2.0,89.0
12741,88.0,0,156,2.0,87.0
12742,64.0,0,156,4.0,87.0
12743,59.0,0,156,4.0,87.0
12744,52.0,0,156,5.0,87.0
12745,56.0,0,156,4.0,87.0
12746,80.0,120,156,2.0,87.0
12747,92.0,0,156,1.0,87.0
12748,76.0,0,480,2.0,96.0
12749,68.0,0,480,2.0,96.0
12750,52.0,480,0,4.0,95.0
12751,47.0,0,480,4.0,96.0
12752,80.0,0,480,1.0,96.0
12753,40.0,0,0,5.0,95.0
12754,69.0,0,720,2.0,95.0
12755,76.0,0,720,2.0,95.0
12756,52.0,0,0,4.0,92.0
12757,49.0,0,720,4.0,95.0
12758,81.0,0,720,1.0,95.0
12759,45.0,0,288,4.0,92.0
12760,66.0,0,288,2.0,92.0
12761,76.0,0,288,2.0,92.0
12762,40.0,720,288,5.0,92.0
12763,78.0,0,288,1.0,92.0
12764,40.0,0,96,5.0,87.0
12765,47.0,0,96,4.0,88.0
12766,68.0,360,96,2.0,88.0
12767,76.0,0,96,2.0,88.0
12768,80.0,0,96,1.0,88.0
12769,52.0,0,96,4.0,88.0
12770,76.0,0,156,2.0,87.0
12771,68.0,0,156,2.0,87.0
12772,28.0,0,156,5.0,87.0
12773,80.0,120,156,1.0,87.0
12774,35.0,240,156,3.0,84.0
12775,76.0,240,156,2.0,92.0
12776,40.0,0,156,3.0,83.0
12777,80.0,40,156,2.0,92.0
12778,88.0,40,156,1.0,92.0
12779,28.0,160,156,5.0,78.0
12780,64.0,0,156,1.0,83.0
12781,52.0,0,156,2.0,83.0
12782,35.0,240,156,3.0,82.0
12783,40.0,240,156,3.0,81.0
12784,28.0,240,156,5.0,75.0
12785,35.0,240,156,3.0,80.0
12786,40.0,0,156,3.0,79.0
12787,76.0,240,156,2.0,81.0
12788,80.0,40,156,2.0,80.0
12789,88.0,40,156,1.0,80.0
12790,52.0,160,156,2.0,74.0
12791,28.0,0,156,5.0,73.0
12792,64.0,0,156,1.0,74.0
12793,35.0,240,156,3.0,74.0
12794,40.0,240,156,3.0,73.0
12795,28.0,240,156,5.0,71.0
12796,35.0,240,156,3.0,72.0
12797,40.0,240,156,3.0,71.0
12798,28.0,240,156,5.0,68.0
12799,76.0,480,156,1.0,91.0
12800,73.0,0,156,2.0,94.0
12801,81.0,0,156,1.0,94.0
12802,69.0,240,156,2.0,94.0
12803,33.0,0,156,5.0,94.0
12804,64.0,240,156,1.0,86.0
12805,61.0,0,156,2.0,86.0
12806,62.0,240,156,1.0,83.0
12807,59.0,0,156,2.0,83.0
12808,57.0,240,156,2.0,80.0
12809,61.0,0,156,1.0,80.0
12810,57.0,240,156,2.0,77.0
12811,61.0,0,156,1.0,77.0
12812,52.0,0,156,2.0,74.0
12813,59.0,240,156,1.0,74.0
12814,57.0,0,156,1.0,71.0
12815,49.0,240,156,2.0,71.0
12816,40.0,480,156,5.0,76.0
12817,45.0,240,156,5.0,89.0
12818,61.0,240,156,2.0,83.0
12819,64.0,0,156,1.0,83.0
12820,59.0,240,156,2.0,79.0
12821,62.0,0,156,1.0,79.0
12822,61.0,0,156,1.0,77.0
12823,57.0,240,156,2.0,77.0
12824,61.0,240,156,1.0,74.0
12825,57.0,0,156,2.0,74.0
12826,59.0,240,156,1.0,72.0
12827,52.0,0,156,2.0,72.0
12828,33.0,0,156,5.0,72.0
12829,57.0,0,156,1.0,69.0
12830,33.0,240,156,5.0,74.0
12831,49.0,0,156,2.0,69.0
12832,35.0,240,156,5.0,78.0
12833,37.0,240,156,5.0,82.0
12834,69.0,0,156,1.0,82.0
12835,38.0,0,156,5.0,91.0
12836,77.0,240,156,1.0,89.0
12837,65.0,0,156,2.0,89.0
12838,69.0,240,156,1.0,82.0
12839,65.0,0,156,2.0,82.0
12840,67.0,0,156,1.0,79.0
12841,64.0,240,156,2.0,79.0
12842,65.0,0,156,1.0,77.0
12843,62.0,240,156,2.0,77.0
12844,65.0,240,156,1.0,74.0
12845,62.0,0,156,2.0,74.0
12846,64.0,240,156,1.0,71.0
12847,57.0,0,156,2.0,71.0
12848,62.0,0,156,1.0,68.0
12849,53.0,240,156,2.0,68.0
12850,33.0,480,156,5.0,75.0
12851,38.0,240,156,5.0,86.0
12852,69.0,240,156,1.0,73.0
12853,65.0,0,156,2.0,73.0
12854,64.0,0,156,2.0,70.0
12855,67.0,240,156,1.0,70.0
12856,65.0,240,156,1.0,68.0
12857,62.0,0,156,2.0,68.0
12858,62.0,0,156,2.0,65.0
12859,65.0,240,156,1.0,65.0
12860,57.0,0,156,2.0,63.0
12861,64.0,240,156,1.0,63.0
12862,38.0,0,156,5.0,64.0
12863,38.0,0,156,5.0,68.0
12864,53.0,240,156,2.0,61.0
12865,62.0,0,156,1.0,61.0
12866,39.0,240,156,5.0,72.0
12867,40.0,0,156,5.0,77.0
12868,72.0,240,156,1.0,72.0
12869,81.0,240,156,1.0,84.0
12870,41.0,0,156,5.0,84.0
12871,69.0,0,156,2.0,84.0
12872,69.0,240,156,2.0,78.0
12873,72.0,0,156,1.0,78.0
12874,67.0,240,156,2.0,75.0
12875,70.0,0,156,1.0,75.0
12876,69.0,0,156,1.0,72.0
12877,65.0,240,156,2.0,72.0
12878,65.0,0,156,2.0,69.0
12879,69.0,240,156,1.0,69.0
12880,67.0,240,156,1.0,66.0
12881,60.0,0,156,2.0,66.0
12882,57.0,240,156,2.0,63.0
12883,65.0,0,156,1.0,63.0
12884,48.0,480,156,5.0,66.0
12885,53.0,240,156,5.0,76.0
12886,69.0,240,156,2.0,70.0
12887,72.0,0,156,1.0,70.0
12888,67.0,240,156,2.0,69.0
12889,70.0,0,156,1.0,69.0
12890,69.0,0,156,1.0,67.0
12891,65.0,240,156,2.0,67.0
12892,69.0,0,156,1.0,64.0
12893,65.0,240,156,2.0,64.0
12894,60.0,0,156,2.0,61.0
12895,67.0,0,156,1.0,61.0
12896,41.0,240,156,5.0,65.0
12897,57.0,0,156,2.0,58.0
12898,41.0,0,156,5.0,68.0
12899,65.0,240,156,1.0,58.0
12900,43.0,240,156,5.0,71.0
12901,45.0,240,156,5.0,74.0
12902,77.0,0,156,1.0,74.0
12903,86.0,0,156,1.0,82.0
12904,46.0,0,156,5.0,82.0
12905,74.0,240,156,2.0,82.0
12906,74.0,240,156,1.0,72.0
12907,70.0,0,156,2.0,72.0
12908,72.0,240,156,1.0,68.0
12909,65.0,0,156,2.0,68.0
12910,70.0,240,156,1.0,65.0
12911,62.0,0,156,2.0,65.0
12912,44.0,240,156,5.0,58.0
12913,45.0,240,156,5.0,63.0
12914,47.0,240,156,5.0,68.0
12915,47.0,240,156,5.0,73.0
12916,48.0,0,156,5.0,78.0
12917,74.0,240,156,1.0,70.0
12918,50.0,240,156,5.0,87.0
12919,83.0,0,156,1.0,87.0
12920,68.0,0,156,2.0,72.0
12921,71.0,240,156,1.0,72.0
12922,66.0,240,156,2.0,69.0
12923,69.0,0,156,1.0,69.0
12924,65.0,0,156,2.0,65.0
12925,68.0,240,156,1.0,65.0
12926,47.0,240,156,5.0,56.0
12927,48.0,240,156,5.0,60.0
12928,50.0,240,156,5.0,64.0
12929,50.0,240,156,5.0,68.0
12930,71.0,0,156,1.0,66.0
12931,52.0,240,156,5.0,72.0
12932,80.0,0,156,1.0,80.0
12933,53.0,0,156,5.0,80.0
12934,68.0,240,156,2.0,80.0
12935,68.0,240,156,1.0,69.0
12936,65.0,0,156,2.0,69.0
12937,67.0,240,156,1.0,65.0
12938,64.0,0,156,2.0,65.0
12939,62.0,0,156,2.0,61.0
12940,65.0,240,156,1.0,61.0
12941,53.0,240,156,5.0,53.0
12942,55.0,240,156,5.0,56.0
12943,56.0,240,156,5.0,60.0
12944,56.0,240,156,5.0,63.0
12945,71.0,240,156,1.0,66.0
12946,57.0,0,156,5.0,67.0
12947,65.0,0,156,2.0,76.0
12948,77.0,240,156,1.0,76.0
12949,59.0,0,156,5.0,76.0
12950,59.0,0,590,5.0,57.0
12951,62.0,0,595,4.0,57.0
12952,65.0,480,600,1.0,57.0
12953,65.0,0,595,1.0,61.0
12954,59.0,0,600,5.0,61.0
12955,62.0,720,600,4.0,61.0
12956,71.0,720,240,1.0,71.0
12957,59.0,0,156,5.0,88.0
12958,66.0,0,156,2.0,88.0
12959,63.0,0,156,4.0,88.0
12960,78.0,240,156,1.0,88.0
12961,63.0,0,600,4.0,71.0
12962,59.0,0,600,5.0,71.0
12963,66.0,480,605,1.0,71.0
12964,59.0,720,600,5.0,75.0
12965,66.0,0,600,1.0,75.0
12966,63.0,0,605,4.0,75.0
12967,71.0,720,240,1.0,80.0
12968,67.0,0,156,2.0,98.0
12969,74.0,0,156,2.0,98.0
12970,65.0,240,156,4.0,98.0
12971,62.0,0,156,4.0,98.0
12972,79.0,0,156,1.0,98.0
12973,77.0,0,156,2.0,98.0
12974,55.0,0,156,5.0,98.0
12975,67.0,720,0,2.0,89.0
12976,77.0,0,720,2.0,84.0
12977,74.0,0,720,2.0,84.0
12978,79.0,0,720,1.0,84.0
12979,31.0,0,156,5.0,87.0
12980,43.0,0,156,3.0,87.0
12981,43.0,240,156,3.0,90.0
12982,31.0,0,156,5.0,90.0
12983,33.0,0,156,5.0,92.0
12984,45.0,240,156,3.0,92.0
12985,74.0,0,720,2.0,89.0
12986,77.0,0,720,2.0,89.0
12987,79.0,240,0,1.0,94.0
12988,67.0,0,156,2.0,94.0
12989,77.0,0,156,2.0,94.0
12990,74.0,0,156,2.0,94.0
12991,47.0,0,156,3.0,95.0
12992,35.0,0,156,5.0,95.0
12993,79.0,0,156,2.0,102.0
12994,36.0,240,156,5.0,102.0
12995,83.0,40,156,2.0,103.0
12996,91.0,40,156,1.0,103.0
12997,43.0,160,156,3.0,97.0
12998,48.0,0,156,3.0,98.0
12999,36.0,240,156,5.0,100.0
13000,43.0,240,156,3.0,101.0
13001,77.0,0,720,2.0,98.0
13002,79.0,0,720,1.0,98.0
13003,67.0,0,0,2.0,103.0
13004,48.0,0,156,3.0,103.0
13005,77.0,240,156,2.0,103.0
13006,79.0,0,156,1.0,103.0
13007,77.0,0,156,2.0,104.0
13008,67.0,240,156,2.0,104.0
13009,36.0,0,156,5.0,104.0
13010,79.0,0,156,1.0,104.0
13011,81.0,0,156,1.0,106.0
13012,69.0,0,156,2.0,106.0
13013,77.0,0,156,2.0,106.0
13014,43.0,240,156,3.0,106.0
13015,71.0,240,156,2.0,108.0
13016,83.0,0,156,1.0,108.0
13017,79.0,0,156,2.0,108.0
13018,48.0,0,156,3.0,108.0
13019,72.0,240,156,2.0,115.0
13020,36.0,0,156,5.0,115.0
13021,76.0,40,156,2.0,114.0
13022,84.0,40,156,1.0,114.0
13023,43.0,160,156,3.0,100.0
13024,60.0,0,156,2.0,97.0
13025,64.0,0,156,1.0,97.0
13026,48.0,240,156,3.0,97.0
13027,36.0,240,156,5.0,94.0
13028,60.0,0,156,2.0,94.0
13029,64.0,0,156,1.0,94.0
13030,43.0,0,156,3.0,91.0
13031,65.0,0,156,1.0,91.0
13032,62.0,240,156,2.0,91.0
13033,67.0,0,156,1.0,87.0
13034,48.0,0,156,3.0,87.0
13035,64.0,240,156,2.0,87.0
13036,36.0,0,156,5.0,84.0
13037,65.0,0,156,2.0,84.0
13038,69.0,240,156,1.0,84.0
13039,64.0,0,156,2.0,81.0
13040,43.0,240,156,3.0,81.0
13041,67.0,0,156,1.0,81.0
13042,72.0,0,156,2.0,86.0
13043,48.0,240,156,3.0,86.0
13044,76.0,40,156,2.0,86.0
13045,84.0,40,156,1.0,86.0
13046,64.0,0,156,1.0,81.0
13047,36.0,160,156,5.0,81.0
13048,60.0,0,156,2.0,81.0
13049,62.0,0,156,2.0,79.0
13050,43.0,0,156,3.0,79.0
13051,65.0,240,156,1.0,79.0
13052,64.0,240,156,2.0,77.0
13053,48.0,0,156,3.0,77.0
13054,67.0,0,156,1.0,77.0
13055,36.0,0,156,5.0,74.0
13056,65.0,240,156,2.0,74.0
13057,69.0,0,156,1.0,74.0
13058,64.0,240,156,2.0,72.0
13059,43.0,0,156,3.0,72.0
13060,67.0,0,156,1.0,72.0
13061,69.0,0,156,1.0,70.0
13062,48.0,240,156,3.0,70.0
13063,65.0,0,156,2.0,70.0
13064,67.0,0,156,2.0,68.0
13065,71.0,240,156,1.0,68.0
13066,36.0,0,156,5.0,68.0
13067,43.0,240,156,3.0,66.0
13068,69.0,0,156,2.0,66.0
13069,72.0,0,156,1.0,66.0
13070,71.0,0,156,2.0,62.0
13071,74.0,0,156,1.0,62.0
13072,48.0,240,156,3.0,62.0
13073,33.0,0,156,5.0,71.0
13074,76.0,240,156,2.0,71.0
13075,85.0,0,156,2.0,70.0
13076,79.0,40,156,2.0,70.0
13077,88.0,40,156,1.0,70.0
13078,40.0,160,156,3.0,62.0
13079,45.0,240,156,3.0,63.0
13080,64.0,0,156,1.0,63.0
13081,61.0,0,156,2.0,63.0
13082,61.0,0,156,2.0,64.0
13083,64.0,0,156,1.0,64.0
13084,33.0,240,156,5.0,64.0
13085,65.0,0,156,1.0,65.0
13086,40.0,0,156,3.0,65.0
13087,62.0,240,156,2.0,65.0
13088,45.0,240,156,3.0,67.0
13089,64.0,0,156,2.0,67.0
13090,67.0,0,156,1.0,67.0
13091,65.0,240,156,2.0,68.0
13092,69.0,0,156,1.0,68.0
13093,33.0,0,156,5.0,68.0
13094,67.0,240,156,1.0,69.0
13095,40.0,0,156,3.0,69.0
13096,64.0,0,156,2.0,69.0
13097,45.0,0,156,3.0,78.0
13098,76.0,240,156,2.0,78.0
13099,85.0,0,156,2.0,78.0
13100,79.0,40,156,2.0,78.0
13101,88.0,40,156,1.0,78.0
13102,67.0,160,156,1.0,71.0
13103,33.0,0,156,5.0,71.0
13104,64.0,0,156,2.0,71.0
13105,40.0,0,156,3.0,73.0
13106,69.0,240,156,1.0,73.0
13107,65.0,0,156,2.0,73.0
13108,71.0,0,156,1.0,74.0
13109,67.0,240,156,2.0,74.0
13110,45.0,0,156,3.0,74.0
13111,69.0,0,156,2.0,75.0
13112,73.0,240,156,1.0,75.0
13113,33.0,0,156,5.0,75.0
13114,40.0,240,156,3.0,76.0
13115,71.0,0,156,1.0,76.0
13116,67.0,0,156,2.0,76.0
13117,69.0,240,156,2.0,77.0
13118,45.0,0,156,3.0,77.0
13119,73.0,0,156,1.0,77.0
13120,33.0,0,156,5.0,78.0
13121,74.0,240,156,1.0,78.0
13122,71.0,0,156,2.0,78.0
13123,76.0,240,156,1.0,80.0
13124,40.0,0,156,3.0,80.0
13125,73.0,0,156,2.0,80.0
13126,79.0,240,156,1.0,81.0
13127,76.0,0,156,2.0,81.0
13128,43.0,0,156,3.0,81.0
13129,81.0,240,156,2.0,90.0
13130,29.0,0,156,5.0,90.0
13131,89.0,40,156,2.0,90.0
13132,84.0,0,156,2.0,90.0
13133,93.0,40,156,1.0,90.0
13134,36.0,160,156,3.0,83.0
13135,65.0,240,156,2.0,84.0
13136,41.0,0,156,3.0,84.0
13137,69.0,0,156,1.0,84.0
13138,29.0,240,156,5.0,85.0
13139,65.0,0,156,2.0,85.0
13140,69.0,0,156,1.0,85.0
13141,70.0,0,156,1.0,87.0
13142,36.0,240,156,3.0,87.0
13143,67.0,0,156,2.0,87.0
13144,41.0,0,156,3.0,88.0
13145,72.0,0,156,1.0,88.0
13146,69.0,240,156,2.0,88.0
13147,74.0,0,156,1.0,89.0
13148,29.0,240,156,5.0,89.0
13149,70.0,0,156,2.0,89.0
13150,36.0,240,156,3.0,90.0
13151,69.0,0,156,2.0,90.0
13152,72.0,0,156,1.0,90.0
13153,41.0,0,156,3.0,98.0
13154,81.0,240,180,2.0,98.0
13155,89.0,40,145,2.0,98.0
13156,84.0,0,156,2.0,98.0
13157,93.0,40,156,1.0,98.0
13158,86.0,160,156,1.0,91.0
13159,71.0,0,156,2.0,91.0
13160,83.0,0,156,2.0,91.0
13161,29.0,0,156,5.0,91.0
13162,84.0,0,156,2.0,93.0
13163,72.0,240,156,2.0,93.0
13164,31.0,0,156,3.0,93.0
13165,88.0,0,156,1.0,93.0
13166,41.0,0,156,3.0,95.0
13167,86.0,0,156,2.0,95.0
13168,74.0,0,156,2.0,95.0
13169,89.0,240,156,1.0,95.0
13170,84.0,0,156,2.0,97.0
13171,29.0,240,156,5.0,97.0
13172,88.0,0,156,1.0,97.0
13173,76.0,0,156,2.0,97.0
13174,77.0,0,156,2.0,99.0
13175,86.0,240,156,2.0,99.0
13176,31.0,0,156,3.0,99.0
13177,89.0,0,156,1.0,99.0
13178,41.0,0,156,3.0,101.0
13179,83.0,0,156,2.0,101.0
13180,79.0,240,156,2.0,101.0
13181,91.0,0,156,1.0,101.0
13182,79.0,0,156,2.0,103.0
13183,91.0,240,156,1.0,103.0
13184,83.0,0,156,2.0,103.0
13185,29.0,0,156,5.0,103.0
13186,83.0,240,156,2.0,105.0
13187,79.0,0,156,2.0,105.0
13188,91.0,0,156,1.0,105.0
13189,31.0,0,156,3.0,105.0
13190,79.0,0,156,2.0,107.0
13191,83.0,0,156,2.0,107.0
13192,41.0,0,156,3.0,107.0
13193,91.0,240,156,1.0,107.0
13194,40.0,240,156,4.0,117.0
13195,28.0,0,156,5.0,117.0
13196,26.0,240,156,5.0,111.0
13197,38.0,0,156,4.0,111.0
13198,36.0,240,156,4.0,110.0
13199,24.0,0,156,5.0,110.0
13200,84.0,0,840,2.0,117.0
13201,91.0,0,840,1.0,117.0
13202,79.0,0,847,2.0,117.0
13203,77.0,240,156,2.0,109.0
13204,84.0,0,156,2.0,109.0
13205,89.0,0,156,1.0,109.0
13206,88.0,240,156,1.0,108.0
13207,84.0,0,156,2.0,108.0
13208,76.0,0,156,2.0,108.0
13209,26.0,240,840,5.0,115.0
13210,38.0,0,855,4.0,115.0
13211,48.0,240,156,4.0,107.0
13212,36.0,0,156,5.0,107.0
13213,47.0,0,156,4.0,107.0
13214,35.0,240,156,5.0,107.0
13215,89.0,240,840,1.0,116.0
13216,77.0,0,840,2.0,116.0
13217,84.0,0,847,2.0,116.0
13218,88.0,240,156,1.0,105.0
13219,76.0,0,156,2.0,105.0
13220,84.0,0,156,2.0,105.0
13221,74.0,0,156,2.0,105.0
13222,86.0,0,156,1.0,105.0
13223,84.0,240,156,2.0,105.0
13224,48.0,0,840,4.0,114.0
13225,36.0,240,847,5.0,114.0
13226,88.0,240,156,1.0,104.0
13227,84.0,0,156,2.0,104.0
13228,76.0,0,156,2.0,104.0
13229,86.0,0,156,1.0,104.0
13230,47.0,0,156,4.0,104.0
13231,35.0,240,156,5.0,104.0
13232,74.0,0,156,2.0,104.0
13233,84.0,240,156,1.0,103.0
13234,33.0,0,156,5.0,103.0
13235,72.0,0,156,2.0,103.0
13236,45.0,0,156,4.0,103.0
13237,35.0,240,156,5.0,103.0
13238,74.0,0,156,2.0,103.0
13239,47.0,0,156,4.0,103.0
13240,86.0,0,156,1.0,103.0
13241,79.0,0,156,1.0,101.0
13242,31.0,0,156,5.0,101.0
13243,67.0,480,156,2.0,101.0
13244,43.0,0,156,4.0,101.0
13245,39.0,0,156,5.0,108.0
13246,51.0,0,156,4.0,108.0
13247,38.0,240,156,5.0,100.0
13248,50.0,0,156,4.0,100.0
13249,36.0,0,156,5.0,100.0
13250,48.0,240,156,4.0,100.0
13251,84.0,240,840,2.0,108.0
13252,79.0,0,840,2.0,108.0
13253,91.0,0,840,1.0,108.0
13254,89.0,240,156,1.0,99.0
13255,84.0,0,156,2.0,99.0
13256,77.0,0,156,2.0,99.0
13257,87.0,0,156,1.0,98.0
13258,75.0,240,156,2.0,98.0
13259,84.0,0,156,2.0,98.0
13260,50.0,0,847,4.0,106.0
13261,38.0,240,847,5.0,106.0
13262,36.0,240,156,5.0,97.0
13263,48.0,0,156,4.0,97.0
13264,47.0,240,156,4.0,96.0
13265,35.0,0,156,5.0,96.0
13266,84.0,240,840,2.0,106.0
13267,89.0,0,847,1.0,106.0
13268,77.0,0,847,2.0,106.0
13269,75.0,0,156,2.0,95.0
13270,84.0,240,156,2.0,95.0
13271,87.0,0,156,1.0,95.0
13272,74.0,0,156,2.0,94.0
13273,84.0,240,156,2.0,94.0
13274,86.0,0,156,1.0,94.0
13275,48.0,240,832,4.0,104.0
13276,36.0,0,847,5.0,104.0
13277,87.0,0,156,1.0,93.0
13278,84.0,240,156,2.0,93.0
13279,75.0,0,156,2.0,93.0
13280,35.0,0,156,5.0,92.0
13281,47.0,0,156,4.0,92.0
13282,74.0,240,156,2.0,92.0
13283,86.0,0,156,1.0,92.0
13284,33.0,0,156,5.0,91.0
13285,84.0,240,156,1.0,91.0
13286,45.0,0,156,4.0,91.0
13287,72.0,0,156,2.0,91.0
13288,47.0,0,156,4.0,90.0
13289,35.0,0,156,5.0,90.0
13290,74.0,0,156,2.0,90.0
13291,86.0,240,156,1.0,90.0
13292,79.0,0,156,1.0,101.0
13293,43.0,0,156,4.0,99.0
13294,31.0,480,156,5.0,99.0
13295,67.0,0,156,2.0,101.0
13296,43.0,0,156,4.0,103.0
13297,36.0,0,156,5.0,103.0
13298,91.0,240,156,1.0,100.0
13299,52.0,0,156,4.0,103.0
13300,79.0,0,156,2.0,100.0
13301,84.0,0,156,2.0,100.0
13302,88.0,0,480,1.0,99.0
13303,48.0,0,0,5.0,99.0
13304,60.0,480,480,4.0,101.0
13305,55.0,0,480,4.0,101.0
13306,52.0,0,480,4.0,101.0
13307,84.0,0,480,2.0,99.0
13308,76.0,0,480,2.0,99.0
13309,57.0,0,720,4.0,99.0
13310,84.0,720,0,2.0,96.0
13311,77.0,0,720,2.0,98.0
13312,53.0,0,720,4.0,99.0
13313,60.0,0,720,4.0,99.0
13314,89.0,480,720,1.0,98.0
13315,86.0,0,288,1.0,96.0
13316,53.0,0,288,4.0,96.0
13317,60.0,0,288,4.0,96.0
13318,50.0,0,288,4.0,96.0
13319,48.0,0,288,5.0,96.0
13320,74.0,0,288,2.0,96.0
13321,48.0,0,96,5.0,93.0
13322,88.0,0,96,1.0,93.0
13323,60.0,0,96,4.0,93.0
13324,55.0,0,96,4.0,93.0
13325,52.0,360,96,4.0,93.0
13326,84.0,0,96,2.0,93.0
13327,76.0,0,96,2.0,93.0
13328,55.0,0,156,4.0,92.0
13329,60.0,0,156,4.0,92.0
13330,52.0,120,156,4.0,92.0
13331,84.0,0,156,2.0,92.0
13332,76.0,0,156,2.0,92.0
13333,48.0,0,156,5.0,92.0
13334,88.0,0,156,1.0,92.0
13335,76.0,0,480,1.0,96.0
13336,72.0,0,480,2.0,96.0
13337,64.0,480,480,2.0,96.0
13338,43.0,0,480,4.0,96.0
13339,36.0,0,0,5.0,94.0
13340,48.0,0,0,4.0,94.0
13341,77.0,480,720,1.0,95.0
13342,72.0,0,0,2.0,92.0
13343,65.0,0,720,2.0,95.0
13344,45.0,0,720,4.0,94.0
13345,36.0,720,288,5.0,92.0
13346,48.0,0,288,4.0,92.0
13347,41.0,0,288,4.0,92.0
13348,62.0,0,288,2.0,92.0
13349,74.0,0,288,1.0,92.0
13350,76.0,0,96,1.0,89.0
13351,72.0,360,96,2.0,89.0
13352,64.0,0,96,2.0,89.0
13353,48.0,0,96,4.0,89.0
13354,36.0,0,96,5.0,89.0
13355,43.0,0,96,4.0,89.0
13356,76.0,0,192,1.0,87.0
13357,72.0,120,192,2.0,87.0
13358,36.0,0,192,5.0,87.0
13359,64.0,0,192,2.0,87.0
13360,43.0,240,192,3.0,85.0
13361,48.0,0,192,3.0,90.0
13362,72.0,240,192,2.0,90.0
13363,76.0,40,192,2.0,89.0
13364,84.0,40,192,1.0,89.0
13365,60.0,160,192,1.0,82.0
13366,36.0,0,192,5.0,82.0
13367,43.0,240,192,3.0,80.0
13368,48.0,240,192,3.0,79.0
13369,36.0,240,192,5.0,77.0
13370,43.0,240,192,3.0,75.0
13371,72.0,240,192,2.0,79.0
13372,48.0,0,192,3.0,79.0
13373,76.0,40,192,2.0,78.0
13374,84.0,40,192,1.0,78.0
13375,36.0,160,192,5.0,72.0
13376,60.0,0,192,1.0,72.0
13377,43.0,240,192,3.0,70.0
13378,48.0,240,192,3.0,68.0
13379,36.0,240,192,5.0,67.0
13380,43.0,240,192,3.0,65.0
13381,48.0,240,192,3.0,63.0
13382,36.0,240,192,5.0,61.0
13383,43.0,240,192,3.0,60.0
13384,48.0,240,192,3.0,58.0
13385,33.0,240,192,5.0,56.0
13386,38.0,240,192,3.0,57.0
13387,72.0,0,192,2.0,66.0
13388,45.0,240,192,3.0,66.0
13389,78.0,0,192,2.0,66.0
13390,74.0,40,192,2.0,66.0
13391,84.0,40,192,1.0,66.0
13392,33.0,0,192,5.0,56.0
13393,60.0,160,192,1.0,56.0
13394,38.0,240,192,3.0,55.0
13395,45.0,240,192,3.0,54.0
13396,33.0,240,192,5.0,54.0
13397,38.0,240,192,3.0,53.0
13398,45.0,0,192,3.0,59.0
13399,72.0,240,192,2.0,59.0
13400,78.0,40,192,2.0,58.0
13401,74.0,0,192,2.0,58.0
13402,84.0,40,192,1.0,58.0
13403,33.0,160,192,5.0,52.0
13404,60.0,0,192,1.0,52.0
13405,38.0,240,192,3.0,51.0
13406,45.0,240,192,3.0,50.0
13407,33.0,240,192,5.0,50.0
13408,38.0,240,192,3.0,49.0
13409,45.0,240,192,3.0,48.0
13410,33.0,240,192,5.0,48.0
13411,38.0,240,192,3.0,47.0
13412,45.0,240,192,3.0,46.0
13413,43.0,240,240,4.0,46.0
13414,31.0,0,240,5.0,46.0
13415,50.0,240,240,4.0,47.0
13416,55.0,0,240,4.0,48.0
13417,71.0,0,0,1.0,53.0
13418,62.0,0,0,2.0,53.0
13419,67.0,240,0,2.0,53.0
13420,59.0,0,240,4.0,49.0
13421,55.0,240,240,4.0,50.0
13422,50.0,240,240,4.0,51.0
13423,40.0,240,240,5.0,52.0
13424,55.0,240,240,4.0,53.0
13425,67.0,0,0,2.0,54.0
13426,59.0,0,240,4.0,54.0
13427,74.0,0,0,1.0,61.0
13428,64.0,0,0,2.0,61.0
13429,71.0,0,0,2.0,61.0
13430,62.0,0,240,4.0,56.0
13431,59.0,240,240,4.0,58.0
13432,55.0,240,240,4.0,61.0
13433,52.0,240,960,2.0,61.0
13434,67.0,0,960,2.0,61.0
13435,45.0,240,240,5.0,63.0
13436,33.0,0,240,5.0,63.0
13437,64.0,0,240,4.0,74.0
13438,79.0,0,0,1.0,84.0
13439,72.0,0,0,2.0,84.0
13440,69.0,0,0,2.0,84.0
13441,76.0,0,0,2.0,84.0
13442,57.0,0,720,5.0,84.0
13443,64.0,240,721,4.0,84.0
13444,67.0,0,721,4.0,84.0
13445,60.0,240,1201,4.0,67.0
13446,67.0,0,240,2.0,50.0
13447,69.0,0,240,2.0,50.0
13448,55.0,1920,240,5.0,50.0
13449,57.0,0,240,4.0,50.0
13450,64.0,0,240,4.0,50.0
13451,76.0,0,240,1.0,50.0
13452,60.0,0,480,4.0,49.0
13453,55.0,0,480,4.0,49.0
13454,72.0,0,480,1.0,49.0
13455,64.0,240,480,2.0,49.0
13456,67.0,0,0,2.0,49.0
13457,52.0,0,480,5.0,49.0
13458,71.0,0,240,1.0,49.0
13459,50.0,0,240,5.0,49.0
13460,55.0,0,240,4.0,49.0
13461,59.0,480,240,4.0,49.0
13462,62.0,0,240,2.0,49.0
13463,38.0,0,240,5.0,50.0
13464,65.0,0,0,2.0,53.0
13465,59.0,0,480,2.0,50.0
13466,68.0,240,480,1.0,50.0
13467,57.0,480,240,4.0,53.0
13468,48.0,0,240,5.0,53.0
13469,69.0,0,240,1.0,53.0
13470,60.0,0,240,2.0,53.0
13471,64.0,0,720,2.0,58.0
13472,60.0,0,720,4.0,58.0
13473,52.0,0,720,5.0,58.0
13474,72.0,240,720,1.0,58.0
13475,57.0,0,480,4.0,45.0
13476,66.0,0,480,1.0,45.0
13477,62.0,720,480,2.0,45.0
13478,50.0,0,480,5.0,45.0
13479,31.0,0,240,5.0,47.0
13480,43.0,720,240,4.0,47.0
13481,50.0,240,240,4.0,48.0
13482,71.0,0,0,1.0,54.0
13483,62.0,240,0,2.0,54.0
13484,67.0,0,0,2.0,54.0
13485,55.0,0,240,4.0,49.0
13486,59.0,0,240,4.0,50.0
13487,55.0,240,240,4.0,51.0
13488,50.0,240,240,4.0,52.0
13489,40.0,240,240,5.0,54.0
13490,67.0,240,0,2.0,56.0
13491,55.0,240,240,4.0,55.0
13492,71.0,0,0,2.0,62.0
13493,64.0,0,240,2.0,56.0
13494,59.0,0,240,4.0,56.0
13495,74.0,0,0,1.0,62.0
13496,62.0,0,240,4.0,57.0
13497,59.0,240,240,4.0,58.0
13498,55.0,240,240,4.0,61.0
13499,33.0,0,240,5.0,64.0
13500,45.0,240,240,5.0,64.0
13501,67.0,0,960,2.0,62.0
13502,64.0,0,960,2.0,62.0
13503,52.0,240,960,2.0,62.0
13504,76.0,0,240,2.0,78.0
13505,79.0,0,0,2.0,87.0
13506,73.0,0,0,2.0,87.0
13507,83.0,240,240,1.0,78.0
13508,61.0,0,1912,5.0,87.0
13509,76.0,240,1920,2.0,87.0
13510,71.0,0,1920,4.0,87.0
13511,83.0,0,1927,1.0,87.0
13512,67.0,0,2167,4.0,78.0
13513,69.0,1920,240,2.0,54.0
13514,76.0,0,240,2.0,54.0
13515,64.0,240,2640,4.0,70.0
13516,61.0,240,0,4.0,52.0
13517,81.0,0,240,1.0,54.0
13518,67.0,0,480,2.0,52.0
13519,59.0,0,480,5.0,52.0
13520,79.0,0,480,1.0,52.0
13521,73.0,0,480,2.0,52.0
13522,66.0,0,240,2.0,48.0
13523,60.0,480,240,4.0,48.0
13524,69.0,0,240,2.0,48.0
13525,72.0,0,240,2.0,48.0
13526,78.0,0,240,1.0,48.0
13527,57.0,0,240,5.0,48.0
13528,66.0,0,240,2.0,48.0
13529,73.0,0,240,2.0,48.0
13530,45.0,0,240,5.0,48.0
13531,33.0,0,240,5.0,48.0
13532,75.0,240,240,1.0,48.0
13533,76.0,240,240,1.0,51.0
13534,73.0,0,0,2.0,55.0
13535,67.0,0,240,2.0,51.0
13536,59.0,0,240,5.0,55.0
13537,67.0,0,240,2.0,55.0
13538,61.0,0,240,4.0,55.0
13539,79.0,240,240,1.0,55.0
13540,57.0,240,1192,5.0,59.0
13541,66.0,0,1200,2.0,59.0
13542,78.0,0,1200,1.0,59.0
13543,72.0,0,1207,2.0,59.0
13544,60.0,0,1207,4.0,59.0
13545,69.0,0,1207,2.0,59.0
13546,64.0,0,240,4.0,50.0
13547,76.0,0,240,1.0,50.0
13548,67.0,1200,240,2.0,50.0
13549,61.0,0,240,4.0,50.0
13550,73.0,0,240,2.0,50.0
13551,55.0,0,240,5.0,50.0
13552,50.0,0,240,5.0,48.0
13553,38.0,0,240,5.0,48.0
13554,54.0,240,240,5.0,46.0
13555,57.0,240,240,5.0,44.0
13556,66.0,240,240,5.0,42.0
13557,66.0,240,1052,2.0,48.0
13558,74.0,0,1080,1.0,48.0
13559,69.0,0,1087,2.0,48.0
13560,76.0,480,240,1.0,41.0
13561,72.0,240,480,1.0,42.0
13562,71.0,480,240,1.0,46.0
13563,38.0,0,240,5.0,43.0
13564,68.0,240,480,1.0,48.0
13565,69.0,480,240,1.0,44.0
13566,64.0,480,240,5.0,44.0
13567,60.0,240,480,5.0,45.0
13568,72.0,240,1207,1.0,42.0
13569,67.0,480,240,1.0,45.0
13570,59.0,0,240,5.0,48.0
13571,56.0,0,480,5.0,50.0
13572,65.0,0,480,1.0,48.0
13573,66.0,0,240,1.0,45.0
13574,57.0,480,240,5.0,46.0
13575,79.0,0,240,1.0,46.0
13576,60.0,240,1207,5.0,44.0
13577,76.0,240,495,1.0,47.0
13578,50.0,240,2160,5.0,50.0
13579,72.0,0,240,1.0,50.0
13580,55.0,480,240,5.0,47.0
13581,69.0,480,967,2.0,46.0
13582,71.0,0,480,1.0,53.0
13583,50.0,0,480,5.0,51.0
13584,68.0,0,480,2.0,53.0
13585,53.0,240,480,5.0,51.0
13586,62.0,0,487,2.0,53.0
13587,54.0,0,240,5.0,47.0
13588,72.0,480,240,1.0,50.0
13589,69.0,0,240,2.0,50.0
13590,38.0,0,240,5.0,48.0
13591,67.0,480,240,5.0,48.0
13592,62.0,0,1167,2.0,48.0
13593,72.0,240,1200,2.0,48.0
13594,76.0,0,1207,1.0,48.0
13595,64.0,240,487,5.0,49.0
13596,67.0,480,240,1.0,49.0
13597,60.0,0,240,5.0,52.0
13598,68.0,0,480,1.0,53.0
13599,59.0,0,480,5.0,54.0
13600,65.0,0,480,2.0,53.0
13601,60.0,0,240,5.0,52.0
13602,69.0,480,240,1.0,49.0
13603,66.0,0,240,2.0,49.0
13604,83.0,480,240,1.0,55.0
13605,64.0,240,1207,5.0,50.0
13606,79.0,240,495,1.0,54.0
13607,72.0,0,960,2.0,55.0
13608,76.0,0,240,1.0,50.0
13609,60.0,480,240,5.0,51.0
13610,56.0,240,480,5.0,55.0
13611,83.0,480,240,1.0,54.0
13612,50.0,240,2880,5.0,54.0
13613,57.0,0,240,5.0,51.0
13614,79.0,240,495,1.0,53.0
13615,76.0,480,240,1.0,49.0
13616,71.0,0,240,5.0,53.0
13617,72.0,0,975,2.0,54.0
13618,67.0,240,487,5.0,51.0
13619,81.0,0,240,1.0,53.0
13620,72.0,0,240,2.0,53.0
13621,64.0,480,240,5.0,48.0
13622,59.0,0,240,5.0,46.0
13623,79.0,240,480,1.0,51.0
13624,69.0,0,240,5.0,51.0
13625,76.0,480,240,1.0,48.0
13626,67.0,240,480,5.0,50.0
13627,79.0,480,240,1.0,49.0
13628,64.0,0,240,5.0,47.0
13629,38.0,240,240,5.0,46.0
13630,76.0,0,480,1.0,47.0
13631,67.0,480,240,5.0,49.0
13632,72.0,0,240,1.0,44.0
13633,69.0,0,960,2.0,49.0
13634,64.0,240,480,5.0,47.0
13635,60.0,480,240,5.0,44.0
13636,78.0,0,240,1.0,46.0
13637,72.0,0,240,2.0,46.0
13638,69.0,240,0,2.0,45.0
13639,38.0,0,240,5.0,42.0
13640,76.0,0,480,1.0,45.0
13641,72.0,0,480,2.0,45.0
13642,69.0,240,0,2.0,42.0
13643,66.0,480,240,5.0,46.0
13644,57.0,0,240,5.0,46.0
13645,74.0,0,240,1.0,43.0
13646,60.0,0,240,4.0,46.0
13647,64.0,0,480,5.0,43.0
13648,72.0,0,480,1.0,42.0
13649,55.0,0,0,5.0,38.0
13650,60.0,0,480,4.0,43.0
13651,67.0,480,240,1.0,39.0
13652,62.0,0,240,5.0,38.0
13653,61.0,0,1200,5.0,43.0
13654,58.0,1200,495,5.0,36.0
13655,73.0,0,502,1.0,37.0
13656,67.0,0,2160,2.0,44.0
13657,50.0,0,2160,5.0,43.0
13658,70.0,240,2160,1.0,44.0
13659,76.0,0,487,1.0,34.0
13660,55.0,480,487,5.0,34.0
13661,69.0,480,1920,1.0,31.0
13662,60.0,0,1920,4.0,31.0
13663,50.0,0,1920,5.0,31.0
13664,62.0,0,1920,2.0,31.0
13665,54.0,0,1920,5.0,31.0
13666,31.0,2160,240,5.0,44.0
13667,43.0,0,240,4.0,44.0
13668,50.0,240,240,4.0,45.0
13669,71.0,0,240,1.0,45.0
13670,55.0,0,240,4.0,45.0
13671,67.0,0,0,2.0,53.0
13672,62.0,0,0,2.0,53.0
13673,59.0,240,240,4.0,46.0
13674,55.0,240,240,4.0,46.0
13675,50.0,240,240,4.0,47.0
13676,40.0,240,240,5.0,47.0
13677,67.0,240,0,2.0,48.0
13678,55.0,240,240,4.0,48.0
13679,71.0,0,1200,1.0,53.0
13680,64.0,0,240,2.0,48.0
13681,71.0,0,240,2.0,48.0
13682,74.0,0,0,1.0,56.0
13683,59.0,0,240,4.0,48.0
13684,62.0,0,240,4.0,50.0
13685,59.0,240,240,4.0,52.0
13686,55.0,240,240,4.0,54.0
13687,64.0,0,960,2.0,56.0
13688,67.0,240,960,2.0,56.0
13689,45.0,240,240,5.0,56.0
13690,33.0,0,240,5.0,56.0
13691,71.0,0,960,2.0,56.0
13692,76.0,240,240,2.0,64.0
13693,79.0,0,0,1.0,72.0
13694,69.0,0,240,2.0,64.0
13695,72.0,0,0,2.0,72.0
13696,64.0,0,0,4.0,72.0
13697,57.0,240,720,5.0,72.0
13698,69.0,0,721,2.0,72.0
13699,76.0,0,721,2.0,72.0
13700,60.0,240,1201,4.0,58.0
13701,67.0,0,721,4.0,72.0
13702,69.0,1920,225,2.0,51.0
13703,67.0,0,240,2.0,51.0
13704,76.0,0,240,1.0,51.0
13705,57.0,0,240,4.0,51.0
13706,64.0,0,240,4.0,51.0
13707,55.0,0,240,5.0,51.0
13708,52.0,0,480,5.0,49.0
13709,64.0,240,480,2.0,49.0
13710,67.0,0,480,2.0,49.0
13711,55.0,0,480,4.0,49.0
13712,72.0,0,480,1.0,49.0
13713,60.0,0,480,4.0,49.0
13714,55.0,0,240,4.0,45.0
13715,62.0,0,240,2.0,45.0
13716,59.0,0,240,2.0,45.0
13717,50.0,480,240,5.0,45.0
13718,67.0,0,240,1.0,45.0
13719,38.0,0,240,5.0,44.0
13720,65.0,240,480,2.0,44.0
13721,68.0,0,480,1.0,44.0
13722,59.0,0,480,2.0,44.0
13723,57.0,0,240,4.0,49.0
13724,69.0,480,240,1.0,49.0
13725,65.0,0,240,2.0,49.0
13726,60.0,0,240,2.0,49.0
13727,48.0,0,240,5.0,49.0
13728,64.0,0,720,2.0,52.0
13729,52.0,0,720,5.0,52.0
13730,60.0,0,720,4.0,52.0
13731,72.0,240,720,1.0,52.0
13732,57.0,0,480,4.0,44.0
13733,66.0,0,480,1.0,44.0
13734,50.0,720,480,5.0,44.0
13735,62.0,0,480,2.0,44.0
13736,43.0,720,240,5.0,46.0
13737,50.0,240,240,4.0,47.0
13738,55.0,0,240,4.0,47.0
13739,71.0,240,0,1.0,54.0
13740,67.0,0,0,2.0,54.0
13741,62.0,0,240,2.0,47.0
13742,59.0,0,240,4.0,48.0
13743,55.0,240,240,4.0,49.0
13744,50.0,240,240,4.0,50.0
13745,40.0,240,240,5.0,51.0
13746,62.0,0,1200,2.0,54.0
13747,55.0,240,240,4.0,51.0
13748,59.0,0,240,4.0,52.0
13749,71.0,0,240,2.0,52.0
13750,64.0,0,240,2.0,52.0
13751,74.0,0,0,1.0,57.0
13752,62.0,0,240,4.0,53.0
13753,59.0,240,240,4.0,54.0
13754,55.0,240,240,4.0,54.0
13755,52.0,240,720,2.0,53.0
13756,47.0,240,240,5.0,55.0
13757,64.0,0,1192,2.0,57.0
13758,54.0,240,240,4.0,56.0
13759,67.0,0,1200,2.0,57.0
13760,74.0,0,0,1.0,63.0
13761,59.0,0,240,4.0,57.0
13762,66.0,0,0,2.0,63.0
13763,71.0,0,0,2.0,63.0
13764,62.0,240,240,4.0,58.0
13765,59.0,240,240,4.0,58.0
13766,54.0,240,240,4.0,59.0
13767,43.0,240,240,5.0,60.0
13768,59.0,240,240,4.0,61.0
13769,74.0,0,240,2.0,61.0
13770,78.0,0,240,1.0,61.0
13771,67.0,240,0,2.0,69.0
13772,62.0,240,240,4.0,61.0
13773,66.0,0,240,4.0,62.0
13774,62.0,240,240,4.0,63.0
13775,59.0,240,240,4.0,64.0
13776,55.0,0,720,2.0,62.0
13777,50.0,240,240,5.0,65.0
13778,57.0,240,240,4.0,65.0
13779,74.0,0,1200,2.0,69.0
13780,78.0,0,1200,1.0,69.0
13781,62.0,240,240,4.0,66.0
13782,78.0,240,0,1.0,73.0
13783,69.0,0,240,2.0,66.0
13784,74.0,0,240,2.0,66.0
13785,66.0,0,240,4.0,66.0
13786,62.0,240,240,4.0,67.0
13787,57.0,240,240,4.0,69.0
13788,47.0,240,240,5.0,71.0
13789,74.0,0,1192,2.0,73.0
13790,69.0,0,1200,2.0,73.0
13791,62.0,240,240,4.0,73.0
13792,81.0,240,240,1.0,74.0
13793,78.0,0,0,2.0,84.0
13794,74.0,0,0,2.0,84.0
13795,71.0,0,240,2.0,74.0
13796,66.0,0,1447,4.0,74.0
13797,59.0,0,2880,5.0,84.0
13798,40.0,1680,240,5.0,79.0
13799,65.0,1200,2160,4.0,69.0
13800,74.0,0,0,2.0,79.0
13801,77.0,0,2160,2.0,69.0
13802,81.0,0,3367,1.0,84.0
13803,69.0,240,3367,4.0,84.0
13804,62.0,480,945,5.0,79.0
13805,68.0,0,945,5.0,79.0
13806,80.0,0,960,1.0,79.0
13807,71.0,0,720,5.0,86.0
13808,83.0,240,720,1.0,86.0
13809,59.0,0,967,5.0,79.0
13810,56.0,0,480,5.0,77.0
13811,62.0,0,480,5.0,77.0
13812,68.0,0,487,2.0,77.0
13813,74.0,720,487,1.0,77.0
13814,45.0,720,240,5.0,63.0
13815,76.0,240,720,1.0,71.0
13816,57.0,0,960,5.0,63.0
13817,61.0,0,960,5.0,63.0
13818,64.0,0,720,5.0,71.0
13819,73.0,480,960,1.0,63.0
13820,69.0,0,967,2.0,63.0
13821,67.0,720,480,1.0,62.0
13822,55.0,0,480,5.0,62.0
13823,38.0,720,240,5.0,79.0
13824,66.0,0,952,5.0,79.0
13825,72.0,0,960,5.0,79.0
13826,64.0,0,960,5.0,79.0
13827,76.0,0,960,2.0,79.0
13828,78.0,480,960,2.0,79.0
13829,88.0,0,727,1.0,86.0
13830,84.0,0,967,1.0,79.0
13831,76.0,240,727,5.0,86.0
13832,78.0,720,480,1.0,77.0
13833,72.0,0,480,2.0,77.0
13834,62.0,0,480,5.0,77.0
13835,66.0,0,480,5.0,77.0
13836,43.0,720,240,5.0,63.0
13837,74.0,0,960,2.0,63.0
13838,60.0,480,967,5.0,63.0
13839,77.0,0,967,1.0,63.0
13840,72.0,0,967,2.0,63.0
13841,69.0,0,727,5.0,72.0
13842,81.0,240,735,1.0,72.0
13843,59.0,720,720,5.0,61.0
13844,67.0,0,720,5.0,61.0
13845,65.0,0,1680,5.0,63.0
13846,71.0,0,720,2.0,61.0
13847,74.0,0,720,1.0,61.0
13848,62.0,0,1687,5.0,63.0
13849,36.0,720,240,5.0,46.0
13850,48.0,0,240,4.0,46.0
13851,55.0,240,240,4.0,47.0
13852,60.0,0,240,4.0,48.0
13853,76.0,240,240,1.0,48.0
13854,67.0,0,240,2.0,48.0
13855,72.0,0,0,2.0,55.0
13856,64.0,240,240,4.0,49.0
13857,60.0,240,240,4.0,49.0
13858,55.0,240,240,4.0,50.0
13859,45.0,240,240,5.0,51.0
13860,67.0,0,1200,2.0,55.0
13861,60.0,240,240,4.0,52.0
13862,76.0,0,1200,1.0,55.0
13863,79.0,0,240,1.0,53.0
13864,64.0,0,240,4.0,53.0
13865,76.0,0,0,2.0,60.0
13866,69.0,0,0,2.0,60.0
13867,67.0,0,240,4.0,55.0
13868,64.0,240,240,4.0,56.0
13869,60.0,240,240,4.0,58.0
13870,38.0,240,240,5.0,61.0
13871,50.0,0,240,4.0,61.0
13872,72.0,0,960,2.0,60.0
13873,57.0,0,967,2.0,55.0
13874,79.0,240,975,1.0,60.0
13875,69.0,240,240,4.0,65.0
13876,78.0,240,240,2.0,68.0
13877,84.0,0,240,2.0,68.0
13878,88.0,0,0,1.0,79.0
13879,66.0,240,1912,5.0,79.0
13880,78.0,0,1920,2.0,79.0
13881,84.0,0,1920,2.0,79.0
13882,72.0,0,2160,4.0,68.0
13883,76.0,0,1920,4.0,79.0
13884,66.0,0,240,5.0,58.0
13885,74.0,0,240,4.0,58.0
13886,69.0,0,240,4.0,58.0
13887,86.0,0,240,1.0,58.0
13888,78.0,0,0,2.0,56.0
13889,72.0,0,480,4.0,56.0
13890,66.0,480,0,4.0,54.0
13891,76.0,0,480,2.0,56.0
13892,78.0,0,0,2.0,54.0
13893,84.0,0,480,1.0,56.0
13894,64.0,240,480,5.0,56.0
13895,74.0,0,240,2.0,54.0
13896,78.0,240,0,2.0,52.0
13897,71.0,0,240,2.0,54.0
13898,83.0,0,240,1.0,54.0
13899,62.0,0,240,5.0,54.0
13900,50.0,0,240,5.0,52.0
13901,80.0,0,240,1.0,52.0
13902,38.0,0,240,5.0,52.0
13903,71.0,0,240,2.0,52.0
13904,78.0,240,240,2.0,54.0
13905,72.0,0,240,2.0,54.0
13906,81.0,0,240,1.0,54.0
13907,84.0,240,240,1.0,56.0
13908,64.0,0,240,5.0,56.0
13909,66.0,0,0,4.0,63.0
13910,76.0,0,240,2.0,56.0
13911,78.0,0,0,2.0,63.0
13912,72.0,0,240,4.0,56.0
13913,78.0,1200,0,2.0,51.0
13914,66.0,0,0,4.0,51.0
13915,71.0,240,1200,4.0,63.0
13916,74.0,0,1200,2.0,63.0
13917,62.0,0,1200,5.0,63.0
13918,83.0,0,1207,1.0,63.0
13919,69.0,0,240,4.0,51.0
13920,81.0,0,240,1.0,51.0
13921,72.0,0,240,2.0,51.0
13922,60.0,0,240,5.0,51.0
13923,56.0,0,240,4.0,44.0
13924,54.0,0,0,4.0,47.0
13925,47.0,0,240,5.0,44.0
13926,68.0,240,240,1.0,44.0
13927,59.0,0,240,2.0,44.0
13928,66.0,240,0,2.0,47.0
13929,48.0,0,240,5.0,47.0
13930,60.0,0,240,2.0,47.0
13931,57.0,0,240,4.0,47.0
13932,66.0,240,0,2.0,49.0
13933,69.0,0,240,1.0,47.0
13934,64.0,0,240,2.0,49.0
13935,72.0,0,240,1.0,49.0
13936,60.0,0,240,4.0,49.0
13937,52.0,0,240,5.0,49.0
13938,54.0,0,240,4.0,49.0
13939,66.0,0,952,2.0,56.0
13940,62.0,240,960,2.0,56.0
13941,54.0,0,960,4.0,56.0
13942,59.0,0,960,4.0,56.0
13943,50.0,0,960,5.0,56.0
13944,71.0,0,967,1.0,56.0
13945,57.0,0,480,4.0,47.0
13946,54.0,0,480,4.0,47.0
13947,60.0,0,480,2.0,47.0
13948,48.0,0,480,5.0,47.0
13949,69.0,0,480,1.0,47.0
13950,66.0,960,480,2.0,47.0
13951,50.0,0,240,5.0,50.0
13952,38.0,0,240,5.0,50.0
13953,82.0,0,240,1.0,50.0
13954,73.0,0,240,2.0,50.0
13955,80.0,480,240,2.0,50.0
13956,83.0,240,240,1.0,53.0
13957,80.0,0,240,2.0,53.0
13958,74.0,0,240,2.0,53.0
13959,80.0,0,240,2.0,57.0
13960,65.0,240,240,5.0,57.0
13961,77.0,0,240,2.0,57.0
13962,68.0,0,240,4.0,57.0
13963,86.0,0,240,1.0,57.0
13964,74.0,0,240,4.0,57.0
13965,64.0,240,1200,5.0,63.0
13966,76.0,0,1200,2.0,63.0
13967,72.0,0,1200,4.0,63.0
13968,80.0,0,0,2.0,51.0
13969,68.0,0,0,4.0,51.0
13970,84.0,0,1207,1.0,63.0
13971,71.0,0,240,4.0,51.0
13972,74.0,0,240,2.0,51.0
13973,62.0,0,240,5.0,51.0
13974,83.0,1200,240,1.0,51.0
13975,70.0,0,240,1.0,44.0
13976,58.0,0,240,4.0,44.0
13977,61.0,0,240,2.0,44.0
13978,68.0,0,240,2.0,44.0
13979,49.0,0,240,5.0,44.0
13980,56.0,0,0,4.0,47.0
13981,62.0,0,240,2.0,47.0
13982,71.0,240,240,1.0,47.0
13983,59.0,0,240,4.0,47.0
13984,50.0,0,240,5.0,47.0
13985,68.0,0,0,2.0,49.0
13986,74.0,240,240,1.0,49.0
13987,65.0,0,240,2.0,49.0
13988,56.0,0,0,4.0,56.0
13989,53.0,0,240,5.0,49.0
13990,62.0,0,240,4.0,49.0
13991,68.0,0,952,2.0,56.0
13992,60.0,0,960,4.0,56.0
13993,56.0,960,0,4.0,47.0
13994,52.0,0,960,5.0,56.0
13995,64.0,0,960,2.0,56.0
13996,72.0,240,967,1.0,56.0
13997,59.0,0,480,4.0,47.0
13998,68.0,0,480,2.0,47.0
13999,71.0,0,480,1.0,47.0
14000,62.0,0,480,2.0,47.0
14001,50.0,0,0,5.0,49.0
14002,80.0,0,240,2.0,49.0
14003,74.0,0,240,2.0,49.0
14004,38.0,480,240,5.0,49.0
14005,83.0,0,240,1.0,49.0
14006,84.0,0,240,1.0,52.0
14007,76.0,240,240,2.0,52.0
14008,69.0,240,240,5.0,54.0
14009,84.0,0,240,2.0,54.0
14010,90.0,0,0,1.0,67.0
14011,72.0,0,240,4.0,54.0
14012,78.0,0,0,4.0,65.0
14013,72.0,0,1200,4.0,65.0
14014,69.0,240,1200,5.0,65.0
14015,84.0,1200,0,2.0,60.0
14016,76.0,0,240,4.0,59.0
14017,72.0,0,0,5.0,58.0
14018,93.0,0,240,1.0,60.0
14019,81.0,0,240,4.0,59.0
14020,88.0,240,0,2.0,58.0
14021,84.0,0,1200,2.0,58.0
14022,76.0,0,1207,4.0,58.0
14023,81.0,0,1207,4.0,58.0
14024,93.0,0,1215,1.0,58.0
14025,78.0,1200,240,4.0,50.0
14026,72.0,0,240,4.0,50.0
14027,90.0,0,240,1.0,50.0
14028,69.0,0,240,5.0,50.0
14029,84.0,0,240,2.0,50.0
14030,66.0,0,480,5.0,49.0
14031,78.0,0,480,2.0,49.0
14032,86.0,0,480,1.0,49.0
14033,74.0,240,480,4.0,49.0
14034,69.0,0,480,4.0,49.0
14035,76.0,480,240,2.0,47.0
14036,64.0,0,240,5.0,47.0
14037,69.0,0,240,4.0,47.0
14038,84.0,0,240,1.0,47.0
14039,72.0,0,240,4.0,47.0
14040,59.0,0,240,5.0,47.0
14041,80.0,0,240,1.0,47.0
14042,71.0,0,240,2.0,47.0
14043,78.0,0,0,2.0,49.0
14044,66.0,0,0,4.0,49.0
14045,68.0,0,240,4.0,47.0
14046,72.0,0,240,2.0,49.0
14047,60.0,240,240,5.0,49.0
14048,81.0,0,240,1.0,49.0
14049,69.0,0,240,4.0,49.0
14050,64.0,0,240,5.0,51.0
14051,72.0,240,240,4.0,51.0
14052,76.0,0,240,2.0,51.0
14053,78.0,0,240,2.0,51.0
14054,66.0,0,0,4.0,53.0
14055,84.0,0,240,1.0,51.0
14056,78.0,0,952,2.0,53.0
14057,62.0,240,960,5.0,53.0
14058,66.0,0,0,4.0,47.0
14059,71.0,0,960,4.0,53.0
14060,74.0,0,960,2.0,53.0
14061,83.0,0,967,1.0,53.0
14062,69.0,0,480,4.0,47.0
14063,60.0,960,480,5.0,47.0
14064,81.0,0,480,1.0,47.0
14065,78.0,0,480,2.0,47.0
14066,72.0,0,480,2.0,47.0
14067,67.0,0,156,2.0,54.0
14068,43.0,480,156,5.0,54.0
14069,71.0,40,156,2.0,54.0
14070,79.0,40,156,1.0,55.0
14071,50.0,160,156,3.0,46.0
14072,59.0,240,156,1.0,47.0
14073,55.0,0,156,2.0,47.0
14074,55.0,240,156,2.0,47.0
14075,43.0,0,156,5.0,47.0
14076,59.0,0,156,1.0,47.0
14077,60.0,0,156,1.0,47.0
14078,57.0,240,156,2.0,47.0
14079,50.0,0,156,3.0,47.0
14080,62.0,0,156,1.0,48.0
14081,55.0,0,156,3.0,48.0
14082,59.0,240,156,2.0,48.0
14083,43.0,240,156,5.0,48.0
14084,64.0,0,156,1.0,48.0
14085,60.0,0,156,2.0,48.0
14086,62.0,240,156,1.0,49.0
14087,59.0,0,156,2.0,49.0
14088,50.0,0,156,3.0,49.0
14089,55.0,240,156,3.0,56.0
14090,67.0,0,156,2.0,56.0
14091,71.0,40,156,2.0,57.0
14092,79.0,40,156,1.0,57.0
14093,43.0,0,156,5.0,49.0
14094,59.0,160,156,1.0,49.0
14095,55.0,0,156,2.0,49.0
14096,57.0,0,156,2.0,50.0
14097,50.0,240,156,3.0,50.0
14098,60.0,0,156,1.0,50.0
14099,55.0,0,156,3.0,50.0
14100,59.0,0,156,2.0,50.0
14101,62.0,240,156,1.0,50.0
14102,43.0,0,156,5.0,51.0
14103,64.0,240,156,1.0,51.0
14104,60.0,0,156,2.0,51.0
14105,59.0,240,156,2.0,51.0
14106,50.0,0,156,3.0,51.0
14107,62.0,0,156,1.0,51.0
14108,55.0,0,156,3.0,58.0
14109,71.0,240,156,2.0,58.0
14110,74.0,40,156,2.0,59.0
14111,79.0,40,156,1.0,59.0
14112,43.0,160,156,5.0,52.0
14113,50.0,240,156,3.0,52.0
14114,71.0,240,156,2.0,60.0
14115,55.0,0,156,3.0,60.0
14116,74.0,40,156,2.0,60.0
14117,79.0,40,156,1.0,60.0
14118,41.0,0,156,5.0,61.0
14119,69.0,160,156,2.0,61.0
14120,72.0,40,156,2.0,61.0
14121,81.0,40,156,1.0,61.0
14122,45.0,160,156,3.0,53.0
14123,53.0,0,156,2.0,54.0
14124,57.0,240,156,1.0,54.0
14125,57.0,0,156,1.0,54.0
14126,53.0,240,156,2.0,54.0
14127,41.0,0,156,5.0,54.0
14128,58.0,0,156,1.0,54.0
14129,45.0,240,156,3.0,54.0
14130,55.0,0,156,2.0,54.0
14131,60.0,240,156,1.0,55.0
14132,53.0,0,156,3.0,55.0
14133,57.0,0,156,2.0,55.0
14134,41.0,0,156,5.0,55.0
14135,62.0,0,156,1.0,55.0
14136,58.0,240,156,2.0,55.0
14137,60.0,240,156,1.0,55.0
14138,57.0,0,156,2.0,55.0
14139,45.0,0,156,3.0,55.0
14140,53.0,0,156,3.0,65.0
14141,69.0,240,156,2.0,65.0
14142,72.0,40,156,2.0,66.0
14143,81.0,40,156,1.0,67.0
14144,53.0,160,156,2.0,56.0
14145,57.0,0,156,1.0,56.0
14146,41.0,0,156,5.0,56.0
14147,55.0,0,156,2.0,57.0
14148,58.0,0,156,1.0,57.0
14149,45.0,240,156,3.0,57.0
14150,60.0,240,156,1.0,57.0
14151,53.0,0,156,3.0,57.0
14152,57.0,0,156,2.0,57.0
14153,41.0,240,156,5.0,57.0
14154,45.0,240,156,3.0,58.0
14155,53.0,240,156,3.0,67.0
14156,69.0,0,156,2.0,67.0
14157,72.0,40,156,2.0,66.0
14158,81.0,40,156,1.0,66.0
14159,41.0,160,156,5.0,58.0
14160,45.0,240,156,3.0,59.0
14161,53.0,240,156,3.0,68.0
14162,69.0,0,156,2.0,68.0
14163,72.0,40,156,2.0,68.0
14164,81.0,40,156,1.0,68.0
14165,71.0,0,156,2.0,69.0
14166,40.0,160,156,5.0,69.0
14167,80.0,40,156,2.0,69.0
14168,83.0,40,156,1.0,69.0
14169,47.0,160,156,3.0,60.0
14170,52.0,0,156,2.0,60.0
14171,56.0,240,156,1.0,60.0
14172,40.0,0,156,5.0,61.0
14173,52.0,0,156,2.0,61.0
14174,56.0,240,156,1.0,61.0
14175,47.0,0,156,3.0,61.0
14176,57.0,240,156,1.0,61.0
14177,54.0,0,156,2.0,61.0
14178,52.0,0,156,3.0,62.0
14179,56.0,0,156,2.0,62.0
14180,59.0,240,156,1.0,62.0
14181,40.0,240,156,5.0,62.0
14182,57.0,0,156,2.0,62.0
14183,60.0,0,156,1.0,62.0
14184,59.0,240,156,1.0,62.0
14185,56.0,0,156,2.0,62.0
14186,47.0,0,156,3.0,62.0
14187,71.0,240,156,2.0,72.0
14188,52.0,0,156,3.0,72.0
14189,80.0,40,156,2.0,72.0
14190,83.0,40,156,1.0,72.0
14191,40.0,0,156,5.0,63.0
14192,52.0,160,156,2.0,63.0
14193,56.0,0,156,1.0,63.0
14194,57.0,0,156,1.0,63.0
14195,47.0,240,156,3.0,63.0
14196,54.0,0,156,2.0,63.0
14197,56.0,0,156,2.0,64.0
14198,52.0,240,156,3.0,64.0
14199,59.0,0,156,1.0,64.0
14200,40.0,240,156,5.0,64.0
14201,47.0,240,156,3.0,65.0
14202,52.0,0,156,3.0,74.0
14203,71.0,240,156,2.0,74.0
14204,80.0,40,156,2.0,74.0
14205,83.0,40,156,1.0,74.0
14206,40.0,160,156,5.0,65.0
14207,47.0,240,156,3.0,66.0
14208,71.0,0,156,2.0,76.0
14209,52.0,240,156,3.0,76.0
14210,80.0,40,156,2.0,76.0
14211,83.0,40,156,1.0,76.0
14212,74.0,0,156,2.0,76.0
14213,38.0,160,156,5.0,76.0
14214,77.0,40,156,2.0,76.0
14215,86.0,40,156,1.0,76.0
14216,41.0,160,156,3.0,67.0
14217,62.0,0,156,2.0,67.0
14218,50.0,240,156,3.0,67.0
14219,65.0,0,156,1.0,67.0
14220,38.0,0,156,5.0,68.0
14221,65.0,0,156,1.0,68.0
14222,62.0,240,156,2.0,68.0
14223,67.0,0,156,1.0,68.0
14224,41.0,0,156,3.0,68.0
14225,64.0,240,156,2.0,68.0
14226,69.0,240,156,1.0,68.0
14227,50.0,0,156,3.0,68.0
14228,65.0,0,156,2.0,68.0
14229,38.0,240,156,5.0,69.0
14230,67.0,0,156,2.0,69.0
14231,70.0,0,156,1.0,69.0
14232,41.0,240,156,3.0,69.0
14233,69.0,0,156,1.0,69.0
14234,65.0,0,156,2.0,69.0
14235,74.0,240,156,2.0,78.0
14236,50.0,0,156,3.0,78.0
14237,77.0,40,156,2.0,79.0
14238,86.0,40,156,1.0,79.0
14239,65.0,0,156,1.0,70.0
14240,62.0,160,156,2.0,70.0
14241,38.0,0,156,5.0,70.0
14242,64.0,240,156,2.0,70.0
14243,41.0,0,156,3.0,70.0
14244,67.0,0,156,1.0,70.0
14245,50.0,0,156,3.0,71.0
14246,65.0,240,156,2.0,71.0
14247,69.0,0,156,1.0,71.0
14248,38.0,240,156,5.0,71.0
14249,41.0,240,156,4.0,71.0
14250,74.0,240,156,2.0,80.0
14251,50.0,0,156,4.0,80.0
14252,77.0,40,156,2.0,80.0
14253,86.0,40,156,1.0,80.0
14254,38.0,160,156,5.0,72.0
14255,41.0,240,156,4.0,73.0
14256,74.0,240,156,2.0,82.0
14257,50.0,0,156,4.0,82.0
14258,77.0,40,156,2.0,82.0
14259,86.0,40,156,1.0,82.0
14260,77.0,0,156,2.0,83.0
14261,36.0,160,156,5.0,83.0
14262,83.0,40,156,2.0,83.0
14263,91.0,40,156,1.0,83.0
14264,43.0,160,156,4.0,74.0
14265,67.0,0,156,2.0,74.0
14266,71.0,240,156,1.0,74.0
14267,48.0,0,156,4.0,74.0
14268,67.0,0,156,2.0,74.0
14269,71.0,0,156,1.0,74.0
14270,36.0,240,156,5.0,74.0
14271,43.0,240,156,4.0,75.0
14272,69.0,0,156,2.0,75.0
14273,72.0,0,156,1.0,75.0
14274,48.0,240,156,4.0,75.0
14275,74.0,0,156,1.0,75.0
14276,71.0,0,156,2.0,75.0
14277,72.0,240,156,2.0,76.0
14278,76.0,0,156,1.0,76.0
14279,36.0,0,156,5.0,76.0
14280,43.0,240,156,4.0,76.0
14281,71.0,0,156,2.0,76.0
14282,74.0,0,156,1.0,76.0
14283,48.0,240,156,4.0,85.0
14284,77.0,0,156,2.0,85.0
14285,83.0,40,156,2.0,84.0
14286,91.0,40,156,1.0,84.0
14287,67.0,160,156,2.0,77.0
14288,71.0,0,156,1.0,77.0
14289,36.0,0,156,5.0,77.0
14290,43.0,0,156,4.0,77.0
14291,72.0,240,156,1.0,77.0
14292,69.0,0,156,2.0,77.0
14293,74.0,0,156,1.0,77.0
14294,71.0,240,156,2.0,77.0
14295,48.0,0,156,4.0,77.0
14296,72.0,0,156,2.0,78.0
14297,36.0,0,156,5.0,78.0
14298,76.0,240,156,1.0,78.0
14299,74.0,0,156,1.0,78.0
14300,43.0,0,156,4.0,78.0
14301,71.0,240,156,2.0,78.0
14302,48.0,240,156,4.0,79.0
14303,76.0,0,156,1.0,79.0
14304,72.0,0,156,2.0,79.0
14305,77.0,0,156,1.0,79.0
14306,36.0,0,156,5.0,79.0
14307,74.0,240,156,2.0,79.0
14308,43.0,0,156,4.0,79.0
14309,76.0,0,156,2.0,79.0
14310,79.0,240,156,1.0,79.0
14311,77.0,0,156,2.0,80.0
14312,48.0,0,156,4.0,80.0
14313,81.0,240,156,1.0,80.0
14314,79.0,240,156,2.0,88.0
14315,36.0,0,156,5.0,88.0
14316,83.0,40,156,2.0,89.0
14317,91.0,40,156,1.0,89.0
14318,43.0,160,156,4.0,81.0
14319,74.0,0,156,1.0,81.0
14320,48.0,240,156,4.0,81.0
14321,71.0,0,156,2.0,81.0
14322,36.0,0,156,5.0,81.0
14323,71.0,240,156,2.0,81.0
14324,74.0,0,156,1.0,81.0
14325,72.0,0,156,2.0,82.0
14326,43.0,0,156,4.0,82.0
14327,76.0,240,156,1.0,82.0
14328,77.0,0,156,1.0,82.0
14329,74.0,240,156,2.0,82.0
14330,48.0,0,156,4.0,82.0
14331,36.0,0,156,5.0,82.0
14332,76.0,0,156,2.0,82.0
14333,79.0,240,156,1.0,82.0
14334,77.0,0,156,1.0,83.0
14335,43.0,240,156,4.0,83.0
14336,74.0,0,156,2.0,83.0
14337,48.0,240,156,4.0,92.0
14338,79.0,0,156,2.0,92.0
14339,83.0,40,156,2.0,92.0
14340,91.0,40,156,1.0,93.0
14341,83.0,0,156,2.0,88.0
14342,74.0,160,156,2.0,88.0
14343,36.0,0,156,5.0,88.0
14344,86.0,0,156,1.0,88.0
14345,84.0,240,156,2.0,90.0
14346,43.0,0,156,4.0,90.0
14347,76.0,0,156,2.0,90.0
14348,88.0,0,156,1.0,90.0
14349,77.0,240,156,2.0,92.0
14350,86.0,0,156,2.0,92.0
14351,89.0,0,156,1.0,92.0
14352,48.0,0,156,4.0,92.0
14353,91.0,0,156,1.0,94.0
14354,79.0,0,156,2.0,94.0
14355,88.0,0,156,2.0,94.0
14356,36.0,240,156,5.0,94.0
14357,81.0,0,156,2.0,94.0
14358,89.0,0,156,2.0,94.0
14359,93.0,0,156,1.0,96.0
14360,43.0,240,156,4.0,96.0
14361,48.0,0,156,4.0,98.0
14362,94.0,240,156,1.0,98.0
14363,91.0,0,156,2.0,98.0
14364,82.0,0,156,2.0,98.0
14365,82.0,0,156,2.0,100.0
14366,36.0,240,156,5.0,100.0
14367,91.0,0,156,2.0,100.0
14368,94.0,0,156,1.0,100.0
14369,91.0,0,156,2.0,102.0
14370,82.0,0,156,2.0,102.0
14371,43.0,0,156,4.0,102.0
14372,94.0,240,156,1.0,102.0
14373,94.0,240,156,1.0,104.0
14374,82.0,0,156,2.0,104.0
14375,91.0,0,156,2.0,104.0
14376,48.0,0,156,4.0,104.0
14377,35.0,240,156,5.0,112.0
14378,43.0,240,156,4.0,107.0
14379,47.0,240,156,4.0,106.0
14380,91.0,0,847,2.0,112.0
14381,95.0,0,847,1.0,112.0
14382,83.0,0,855,2.0,112.0
14383,35.0,240,156,5.0,106.0
14384,90.0,0,156,2.0,105.0
14385,81.0,0,156,2.0,105.0
14386,43.0,0,156,4.0,105.0
14387,93.0,240,156,1.0,105.0
14388,91.0,240,156,1.0,105.0
14389,79.0,0,156,2.0,105.0
14390,88.0,0,156,2.0,105.0
14391,47.0,0,156,4.0,105.0
14392,35.0,240,156,5.0,111.0
14393,42.0,240,156,4.0,105.0
14394,47.0,240,156,4.0,104.0
14395,81.0,0,720,2.0,111.0
14396,93.0,0,840,1.0,111.0
14397,90.0,0,847,2.0,111.0
14398,35.0,240,156,5.0,102.0
14399,91.0,0,156,1.0,101.0
14400,79.0,0,156,2.0,101.0
14401,41.0,240,156,4.0,101.0
14402,88.0,0,156,2.0,101.0
14403,87.0,240,156,2.0,100.0
14404,78.0,0,156,2.0,100.0
14405,90.0,0,156,1.0,100.0
14406,47.0,0,156,4.0,100.0
14407,91.0,240,156,1.0,99.0
14408,35.0,0,156,5.0,99.0
14409,88.0,0,156,2.0,99.0
14410,79.0,0,156,2.0,99.0
14411,87.0,0,156,2.0,98.0
14412,78.0,0,156,2.0,98.0
14413,40.0,240,156,4.0,98.0
14414,90.0,0,156,1.0,98.0
14415,47.0,0,156,4.0,97.0
14416,88.0,0,156,1.0,97.0
14417,76.0,0,156,2.0,97.0
14418,85.0,240,156,2.0,97.0
14419,35.0,0,156,5.0,95.0
14420,87.0,240,156,2.0,95.0
14421,90.0,0,156,1.0,95.0
14422,78.0,0,156,2.0,95.0
14423,39.0,240,156,4.0,94.0
14424,83.0,240,156,1.0,99.0
14425,71.0,0,156,2.0,99.0
14426,28.0,0,156,5.0,105.0
14427,35.0,240,156,4.0,98.0
14428,40.0,240,156,4.0,97.0
14429,91.0,0,847,2.0,105.0
14430,95.0,240,847,1.0,105.0
14431,83.0,0,855,2.0,105.0
14432,28.0,240,156,5.0,97.0
14433,35.0,0,156,4.0,96.0
14434,90.0,0,156,2.0,96.0
14435,81.0,240,156,2.0,96.0
14436,93.0,0,156,1.0,96.0
14437,91.0,0,156,1.0,96.0
14438,88.0,0,156,2.0,96.0
14439,40.0,0,156,4.0,96.0
14440,79.0,240,156,2.0,96.0
14441,28.0,0,156,5.0,102.0
14442,35.0,240,156,4.0,95.0
14443,40.0,240,156,4.0,94.0
14444,81.0,0,720,2.0,102.0
14445,90.0,240,847,2.0,102.0
14446,93.0,0,855,1.0,102.0
14447,28.0,240,156,5.0,93.0
14448,79.0,0,156,2.0,93.0
14449,88.0,0,156,2.0,93.0
14450,91.0,0,156,1.0,93.0
14451,35.0,240,156,4.0,93.0
14452,40.0,0,156,4.0,92.0
14453,78.0,0,156,2.0,92.0
14454,87.0,0,156,2.0,92.0
14455,90.0,240,156,1.0,92.0
14456,91.0,240,156,1.0,91.0
14457,28.0,0,156,5.0,91.0
14458,88.0,0,156,2.0,91.0
14459,79.0,0,156,2.0,91.0
14460,87.0,0,156,2.0,90.0
14461,35.0,0,156,4.0,90.0
14462,90.0,240,156,1.0,90.0
14463,78.0,0,156,2.0,90.0
14464,40.0,240,156,4.0,89.0
14465,76.0,0,156,2.0,89.0
14466,85.0,0,156,2.0,89.0
14467,88.0,0,156,1.0,89.0
14468,28.0,0,156,5.0,89.0
14469,87.0,0,156,2.0,89.0
14470,78.0,0,156,2.0,89.0
14471,90.0,240,156,1.0,89.0
14472,35.0,240,156,4.0,88.0
14473,83.0,0,156,1.0,90.0
14474,40.0,0,156,4.0,90.0
14475,71.0,240,156,2.0,90.0
14476,95.0,0,156,1.0,97.0
14477,83.0,0,156,2.0,97.0
14478,92.0,0,156,2.0,97.0
14479,28.0,240,156,5.0,97.0
14480,64.0,0,465,4.0,96.0
14481,52.0,480,465,5.0,96.0
14482,88.0,0,472,2.0,96.0
14483,59.0,0,480,4.0,96.0
14484,80.0,0,480,2.0,96.0
14485,56.0,0,487,4.0,96.0
14486,92.0,0,495,1.0,96.0
14487,52.0,0,690,5.0,95.0
14488,57.0,480,705,4.0,95.0
14489,64.0,0,712,4.0,95.0
14490,61.0,0,712,4.0,95.0
14491,81.0,0,720,2.0,95.0
14492,93.0,0,720,1.0,95.0
14493,88.0,720,0,2.0,94.0
14494,52.0,0,240,5.0,94.0
14495,54.0,0,288,4.0,94.0
14496,57.0,0,288,4.0,94.0
14497,64.0,0,288,4.0,94.0
14498,78.0,0,288,2.0,94.0
14499,90.0,0,288,1.0,94.0
14500,92.0,0,96,1.0,90.0
14501,80.0,0,96,2.0,90.0
14502,64.0,0,96,4.0,90.0
14503,88.0,0,96,2.0,90.0
14504,56.0,360,96,4.0,90.0
14505,52.0,0,96,5.0,90.0
14506,59.0,0,96,4.0,90.0
14507,52.0,0,156,5.0,88.0
14508,80.0,0,156,2.0,88.0
14509,88.0,0,156,2.0,88.0
14510,92.0,120,156,1.0,88.0
14511,64.0,0,156,4.0,88.0
14512,59.0,0,156,4.0,88.0
14513,56.0,0,156,4.0,88.0
14514,52.0,0,465,4.0,92.0
14515,40.0,0,465,5.0,92.0
14516,76.0,0,472,2.0,92.0
14517,47.0,0,480,4.0,92.0
14518,68.0,0,480,2.0,92.0
14519,44.0,0,487,4.0,92.0
14520,80.0,480,495,1.0,92.0
14521,40.0,480,690,5.0,92.0
14522,45.0,0,705,4.0,92.0
14523,52.0,0,712,4.0,92.0
14524,69.0,0,712,2.0,92.0
14525,49.0,0,712,4.0,92.0
14526,81.0,0,720,1.0,92.0
14527,76.0,0,0,2.0,90.0
14528,40.0,0,240,5.0,90.0
14529,78.0,720,288,1.0,90.0
14530,66.0,0,288,2.0,90.0
14531,52.0,0,288,4.0,90.0
14532,45.0,0,288,4.0,90.0
14533,42.0,0,288,4.0,90.0
14534,68.0,0,96,2.0,88.0
14535,76.0,360,96,2.0,88.0
14536,80.0,0,96,1.0,88.0
14537,44.0,0,96,4.0,88.0
14538,47.0,0,96,4.0,88.0
14539,40.0,0,96,5.0,88.0
14540,52.0,0,96,4.0,88.0
14541,68.0,0,156,2.0,86.0
14542,80.0,0,156,1.0,86.0
14543,40.0,120,156,5.0,86.0
14544,76.0,0,156,2.0,86.0
14545,47.0,240,156,3.0,89.0
14546,52.0,240,156,3.0,98.0
14547,76.0,0,156,2.0,98.0
14548,80.0,40,156,2.0,98.0
14549,88.0,40,156,1.0,97.0
14550,28.0,0,156,5.0,87.0
14551,64.0,160,156,1.0,87.0
14552,52.0,0,156,2.0,87.0
14553,35.0,240,156,3.0,86.0
14554,40.0,240,156,3.0,85.0
14555,28.0,240,156,5.0,83.0
14556,35.0,240,156,3.0,82.0
14557,40.0,0,156,3.0,93.0
14558,76.0,240,156,2.0,93.0
14559,80.0,40,156,2.0,92.0
14560,83.0,0,156,2.0,92.0
14561,88.0,40,156,1.0,92.0
14562,52.0,160,156,2.0,80.0
14563,64.0,0,156,1.0,80.0
14564,28.0,0,156,5.0,80.0
14565,35.0,240,156,3.0,79.0
14566,40.0,240,156,3.0,77.0
14567,28.0,240,156,5.0,76.0
14568,35.0,240,156,3.0,75.0
14569,40.0,240,156,3.0,74.0
14570,28.0,240,156,5.0,73.0
14571,64.0,480,240,1.0,72.0
14572,52.0,0,720,4.0,74.0
14573,45.0,240,720,5.0,74.0
14574,64.0,0,720,1.0,74.0
14575,60.0,0,720,2.0,74.0
14576,57.0,720,480,4.0,78.0
14577,48.0,0,480,5.0,78.0
14578,69.0,0,480,1.0,78.0
14579,64.0,0,480,2.0,78.0
14580,52.0,0,240,5.0,81.0
14581,71.0,480,240,1.0,81.0
14582,64.0,0,240,2.0,81.0
14583,59.0,0,240,4.0,81.0
14584,60.0,0,720,5.0,84.0
14585,64.0,240,720,4.0,84.0
14586,76.0,0,720,1.0,85.0
14587,72.0,0,720,2.0,85.0
14588,72.0,0,420,1.0,79.0
14589,57.0,0,420,5.0,79.0
14590,60.0,720,427,4.0,79.0
14591,69.0,0,427,2.0,79.0
14592,64.0,480,240,1.0,75.0
14593,52.0,0,240,5.0,75.0
14594,45.0,240,720,5.0,74.0
14595,60.0,0,720,2.0,74.0
14596,64.0,0,720,1.0,74.0
14597,52.0,0,720,4.0,74.0
14598,64.0,720,480,2.0,78.0
14599,69.0,0,480,1.0,78.0
14600,48.0,0,480,5.0,78.0
14601,57.0,0,480,4.0,78.0
14602,52.0,480,240,5.0,80.0
14603,64.0,0,240,2.0,80.0
14604,59.0,0,240,4.0,80.0
14605,71.0,0,240,1.0,80.0
14606,60.0,240,1132,5.0,86.0
14607,76.0,0,1147,1.0,87.0
14608,72.0,0,1147,2.0,87.0
14609,64.0,0,1147,4.0,86.0
14610,60.0,0,240,4.0,86.0
14611,76.0,1200,240,1.0,86.0
14612,72.0,0,240,2.0,86.0
14613,57.0,0,240,5.0,86.0
14614,43.0,0,720,5.0,92.0
14615,55.0,0,720,4.0,92.0
14616,67.0,0,907,2.0,92.0
14617,76.0,240,915,2.0,92.0
14618,79.0,0,922,1.0,92.0
14619,62.0,0,192,4.0,83.0
14620,77.0,0,192,1.0,83.0
14621,65.0,240,192,4.0,83.0
14622,74.0,0,192,2.0,83.0
14623,60.0,0,192,4.0,81.0
14624,64.0,240,192,4.0,81.0
14625,72.0,0,192,2.0,81.0
14626,76.0,0,192,1.0,81.0
14627,55.0,720,720,5.0,85.0
14628,55.0,0,720,5.0,82.0
14629,59.0,0,720,4.0,82.0
14630,62.0,0,720,4.0,82.0
14631,71.0,0,720,2.0,82.0
14632,74.0,240,720,1.0,82.0
14633,67.0,720,427,1.0,77.0
14634,55.0,0,435,2.0,77.0
14635,55.0,0,240,2.0,77.0
14636,67.0,480,240,1.0,77.0
14637,64.0,0,720,2.0,83.0
14638,60.0,240,720,4.0,83.0
14639,48.0,0,720,5.0,83.0
14640,76.0,0,907,1.0,83.0
14641,72.0,0,907,2.0,83.0
14642,74.0,0,192,1.0,74.0
14643,71.0,240,192,2.0,74.0
14644,69.0,0,192,2.0,71.0
14645,72.0,240,192,1.0,71.0
14646,62.0,720,720,4.0,77.0
14647,50.0,0,720,5.0,77.0
14648,64.0,240,1140,4.0,70.0
14649,71.0,0,1140,1.0,69.0
14650,52.0,0,1140,5.0,70.0
14651,68.0,0,1147,2.0,69.0
14652,52.0,0,240,5.0,65.0
14653,64.0,0,0,1.0,68.0
14654,61.0,240,720,2.0,68.0
14655,45.0,0,720,5.0,68.0
14656,52.0,0,720,4.0,68.0
14657,57.0,720,480,4.0,71.0
14658,69.0,0,480,1.0,71.0
14659,64.0,0,480,2.0,71.0
14660,49.0,0,480,5.0,71.0
14661,71.0,0,240,1.0,75.0
14662,64.0,0,240,2.0,75.0
14663,59.0,0,240,4.0,75.0
14664,52.0,480,240,5.0,75.0
14665,73.0,0,720,2.0,80.0
14666,61.0,0,720,5.0,80.0
14667,64.0,0,720,4.0,80.0
14668,76.0,240,720,1.0,80.0
14669,61.0,0,480,4.0,80.0
14670,73.0,0,480,1.0,80.0
14671,69.0,0,480,2.0,80.0
14672,57.0,720,480,5.0,80.0
14673,57.0,480,240,4.0,84.0
14674,76.0,0,240,1.0,84.0
14675,45.0,0,240,5.0,84.0
14676,73.0,0,240,2.0,84.0
14677,44.0,0,720,5.0,92.0
14678,56.0,240,720,4.0,92.0
14679,80.0,0,960,1.0,92.0
14680,76.0,0,960,2.0,92.0
14681,75.0,240,240,2.0,81.0
14682,78.0,0,240,1.0,81.0
14683,66.0,0,240,4.0,81.0
14684,63.0,0,240,4.0,81.0
14685,73.0,240,240,2.0,79.0
14686,76.0,0,240,1.0,79.0
14687,61.0,0,240,4.0,79.0
14688,64.0,0,240,4.0,79.0
14689,56.0,720,960,5.0,84.0
14690,68.0,0,2152,2.0,92.0
14691,75.0,0,1192,1.0,83.0
14692,59.0,0,1440,4.0,83.0
14693,63.0,240,1440,4.0,83.0
14694,56.0,720,720,5.0,77.0
14695,68.0,0,720,2.0,77.0
14696,71.0,0,1440,2.0,83.0
14697,75.0,0,0,1.0,76.0
14698,68.0,0,720,2.0,76.0
14699,64.0,720,0,4.0,78.0
14700,76.0,0,0,1.0,81.0
14701,56.0,0,1440,5.0,76.0
14702,68.0,0,720,2.0,79.0
14703,71.0,0,1440,2.0,76.0
14704,59.0,0,1440,4.0,76.0
14705,64.0,0,0,4.0,81.0
14706,76.0,0,0,1.0,83.0
14707,69.0,0,0,2.0,86.0
14708,72.0,0,0,2.0,86.0
14709,60.0,0,0,4.0,86.0
14710,57.0,240,720,5.0,81.0
14711,79.0,0,480,1.0,86.0
14712,67.0,0,480,4.0,86.0
14713,77.0,480,240,1.0,79.0
14714,72.0,0,0,2.0,76.0
14715,65.0,0,240,4.0,79.0
14716,60.0,0,0,4.0,76.0
14717,50.0,0,720,5.0,86.0
14718,57.0,720,720,4.0,86.0
14719,64.0,0,720,4.0,76.0
14720,76.0,240,720,1.0,76.0
14721,67.0,0,720,2.0,76.0
14722,55.0,0,720,5.0,76.0
14723,62.0,0,480,4.0,69.0
14724,74.0,0,480,1.0,68.0
14725,74.0,480,240,1.0,63.0
14726,53.0,0,720,5.0,69.0
14727,57.0,720,720,4.0,69.0
14728,62.0,0,240,4.0,64.0
14729,69.0,0,720,2.0,68.0
14730,52.0,0,1132,5.0,61.0
14731,59.0,0,1140,4.0,61.0
14732,64.0,240,1140,4.0,61.0
14733,68.0,0,1140,2.0,61.0
14734,76.0,0,1140,1.0,61.0
14735,76.0,1200,240,1.0,59.0
14736,36.0,0,720,5.0,60.0
14737,72.0,0,720,2.0,60.0
14738,76.0,240,720,1.0,60.0
14739,67.0,0,720,2.0,60.0
14740,79.0,0,480,1.0,66.0
14741,69.0,240,0,2.0,57.0
14742,72.0,0,720,2.0,66.0
14743,77.0,480,240,1.0,60.0
14744,41.0,720,720,5.0,66.0
14745,45.0,0,720,5.0,57.0
14746,72.0,0,720,2.0,57.0
14747,76.0,0,720,1.0,57.0
14748,74.0,480,0,1.0,40.0
14749,71.0,0,720,2.0,47.0
14750,65.0,720,720,2.0,47.0
14751,47.0,0,720,5.0,47.0
14752,40.0,0,240,5.0,41.0
14753,64.0,0,480,2.0,41.0
14754,68.0,0,480,2.0,41.0
14755,53.0,240,240,4.0,41.0
14756,52.0,240,192,4.0,42.0
14757,52.0,240,192,4.0,43.0
14758,52.0,240,192,4.0,44.0
14759,52.0,0,192,4.0,45.0
14760,69.0,0,240,1.0,45.0
14761,60.0,240,240,2.0,45.0
14762,52.0,0,192,4.0,45.0
14763,52.0,240,192,4.0,46.0
14764,71.0,240,480,1.0,45.0
14765,62.0,0,480,2.0,45.0
14766,52.0,240,192,4.0,47.0
14767,72.0,0,240,1.0,47.0
14768,64.0,0,0,2.0,48.0
14769,40.0,0,240,5.0,48.0
14770,53.0,240,240,4.0,49.0
14771,52.0,240,192,4.0,49.0
14772,72.0,0,720,1.0,48.0
14773,69.0,240,720,2.0,48.0
14774,64.0,0,0,2.0,50.0
14775,52.0,0,192,4.0,50.0
14776,52.0,240,192,4.0,51.0
14777,71.0,240,480,1.0,50.0
14778,68.0,0,480,2.0,50.0
14779,64.0,0,0,2.0,52.0
14780,52.0,0,192,4.0,52.0
14781,69.0,0,240,2.0,52.0
14782,72.0,240,240,1.0,52.0
14783,52.0,240,192,4.0,53.0
14784,52.0,240,192,4.0,53.0
14785,76.0,240,4042,1.0,41.0
14786,74.0,0,480,1.0,53.0
14787,69.0,0,0,2.0,54.0
14788,65.0,0,480,2.0,53.0
14789,52.0,0,192,4.0,54.0
14790,67.0,0,240,2.0,54.0
14791,76.0,240,240,1.0,54.0
14792,38.0,240,240,5.0,57.0
14793,52.0,240,240,4.0,55.0
14794,50.0,240,192,4.0,54.0
14795,79.0,0,720,1.0,57.0
14796,50.0,0,192,4.0,53.0
14797,50.0,240,192,4.0,52.0
14798,69.0,0,1185,2.0,57.0
14799,71.0,0,1185,2.0,57.0
14800,77.0,240,480,1.0,53.0
14801,50.0,0,192,4.0,52.0
14802,50.0,0,192,4.0,51.0
14803,50.0,240,192,4.0,50.0
14804,74.0,240,480,1.0,51.0
14805,50.0,0,192,4.0,49.0
14806,69.0,240,952,2.0,52.0
14807,71.0,0,960,1.0,52.0
14808,77.0,240,240,1.0,49.0
14809,40.0,0,240,5.0,49.0
14810,53.0,240,240,4.0,48.0
14811,52.0,240,192,4.0,47.0
14812,77.0,0,720,1.0,49.0
14813,71.0,0,720,2.0,49.0
14814,69.0,240,720,2.0,49.0
14815,52.0,0,192,4.0,47.0
14816,52.0,240,192,4.0,46.0
14817,52.0,240,192,4.0,45.0
14818,71.0,0,240,1.0,45.0
14819,68.0,240,720,1.0,47.0
14820,52.0,0,192,4.0,44.0
14821,52.0,240,192,4.0,44.0
14822,76.0,240,480,1.0,44.0
14823,52.0,0,192,4.0,43.0
14824,71.0,240,240,1.0,43.0
14825,68.0,0,720,2.0,44.0
14826,64.0,240,0,2.0,42.0
14827,45.0,0,240,5.0,42.0
14828,53.0,240,240,4.0,41.0
14829,52.0,240,192,4.0,41.0
14830,73.0,0,720,1.0,42.0
14831,69.0,0,720,2.0,42.0
14832,52.0,240,192,4.0,40.0
14833,52.0,240,192,4.0,41.0
14834,52.0,0,192,4.0,44.0
14835,61.0,240,240,2.0,44.0
14836,69.0,0,240,1.0,44.0
14837,52.0,0,192,4.0,47.0
14838,52.0,240,192,4.0,50.0
14839,71.0,240,480,1.0,47.0
14840,62.0,0,480,2.0,47.0
14841,52.0,0,192,4.0,54.0
14842,64.0,0,195,2.0,54.0
14843,69.0,240,200,2.0,54.0
14844,73.0,0,200,1.0,54.0
14845,38.0,200,280,5.0,57.0
14846,50.0,0,240,3.0,57.0
14847,53.0,240,240,3.0,60.0
14848,57.0,240,240,3.0,63.0
14849,76.0,0,720,1.0,57.0
14850,62.0,240,240,3.0,67.0
14851,57.0,240,240,3.0,70.0
14852,74.0,0,480,1.0,67.0
14853,77.0,0,240,1.0,73.0
14854,69.0,40,1440,2.0,57.0
14855,65.0,0,0,2.0,81.0
14856,53.0,240,240,3.0,73.0
14857,62.0,0,240,3.0,77.0
14858,76.0,240,480,1.0,81.0
14859,58.0,240,240,3.0,71.0
14860,74.0,240,240,1.0,66.0
14861,55.0,0,240,3.0,66.0
14862,70.0,0,720,2.0,81.0
14863,52.0,0,240,5.0,60.0
14864,55.0,240,240,3.0,57.0
14865,58.0,240,240,3.0,55.0
14866,60.0,240,240,3.0,54.0
14867,58.0,240,240,3.0,52.0
14868,55.0,0,240,3.0,50.0
14869,79.0,240,240,1.0,50.0
14870,50.0,240,240,3.0,48.0
14871,55.0,240,240,3.0,46.0
14872,77.0,0,480,1.0,48.0
14873,76.0,0,240,1.0,45.0
14874,58.0,240,240,3.0,45.0
14875,48.0,0,240,5.0,43.0
14876,55.0,240,240,3.0,41.0
14877,72.0,240,2880,1.0,60.0
14878,76.0,240,720,1.0,43.0
14879,67.0,0,2880,2.0,60.0
14880,58.0,240,240,3.0,39.0
14881,70.0,0,2895,2.0,60.0
14882,60.0,240,240,3.0,38.0
14883,58.0,240,240,3.0,38.0
14884,67.0,120,295,1.0,39.0
14885,64.0,0,300,2.0,39.0
14886,55.0,120,240,3.0,39.0
14887,60.0,240,240,3.0,40.0
14888,67.0,0,300,2.0,40.0
14889,64.0,0,300,2.0,40.0
14890,69.0,0,300,1.0,40.0
14891,55.0,240,240,3.0,41.0
14892,70.0,120,295,1.0,42.0
14893,67.0,0,300,2.0,42.0
14894,64.0,0,305,2.0,42.0
14895,52.0,120,240,3.0,42.0
14896,47.0,0,240,5.0,47.0
14897,52.0,240,240,3.0,44.0
14898,55.0,240,240,3.0,46.0
14899,59.0,240,240,3.0,48.0
14900,55.0,240,240,3.0,49.0
14901,52.0,240,240,3.0,51.0
14902,67.0,0,1440,2.0,46.0
14903,71.0,0,0,1.0,53.0
14904,64.0,0,0,2.0,53.0
14905,59.0,240,240,3.0,53.0
14906,55.0,240,240,3.0,55.0
14907,67.0,0,720,2.0,53.0
14908,52.0,240,240,3.0,56.0
14909,47.0,0,240,5.0,60.0
14910,54.0,240,240,3.0,56.0
14911,57.0,240,240,3.0,54.0
14912,69.0,240,720,2.0,60.0
14913,72.0,0,720,1.0,60.0
14914,59.0,240,240,3.0,53.0
14915,57.0,240,240,3.0,52.0
14916,71.0,0,720,1.0,53.0
14917,54.0,240,240,3.0,50.0
14918,67.0,0,720,2.0,53.0
14919,59.0,0,240,3.0,49.0
14920,54.0,240,240,3.0,47.0
14921,51.0,240,240,3.0,46.0
14922,69.0,240,720,1.0,49.0
14923,63.0,0,2160,2.0,60.0
14924,66.0,0,720,2.0,49.0
14925,48.0,240,240,5.0,45.0
14926,55.0,240,240,3.0,43.0
14927,67.0,0,720,1.0,45.0
14928,64.0,0,720,2.0,45.0
14929,58.0,240,240,3.0,42.0
14930,60.0,240,240,3.0,40.0
14931,58.0,240,240,3.0,45.0
14932,67.0,0,240,2.0,46.0
14933,79.0,0,240,1.0,46.0
14934,76.0,120,240,2.0,46.0
14935,55.0,120,240,3.0,47.0
14936,69.0,240,240,2.0,50.0
14937,60.0,0,240,3.0,50.0
14938,76.0,0,240,2.0,50.0
14939,81.0,0,240,1.0,50.0
14940,55.0,240,240,3.0,53.0
14941,70.0,0,240,2.0,54.0
14942,82.0,120,240,1.0,54.0
14943,80.0,0,240,2.0,54.0
14944,76.0,0,240,2.0,54.0
14945,52.0,120,240,3.0,56.0
14946,52.0,240,247,5.0,70.0
14947,55.0,240,240,5.0,73.0
14948,76.0,0,1027,2.0,69.0
14949,79.0,0,1035,2.0,69.0
14950,71.0,240,1035,2.0,69.0
14951,59.0,240,315,5.0,77.0
14952,83.0,0,1042,1.0,69.0
14953,47.0,0,1050,5.0,69.0
14954,76.0,360,240,2.0,81.0
14955,79.0,0,240,1.0,81.0
14956,83.0,40,240,1.0,86.0
14957,79.0,0,240,2.0,86.0
14958,59.0,280,790,5.0,91.0
14959,67.0,40,755,5.0,91.0
14960,88.0,480,240,1.0,93.0
14961,76.0,0,720,5.0,91.0
14962,79.0,0,240,2.0,93.0
14963,75.0,0,480,5.0,99.0
14964,76.0,480,120,5.0,91.0
14965,93.0,0,720,1.0,96.0
14966,84.0,0,720,2.0,96.0
14967,75.0,120,120,5.0,90.0
14968,79.0,0,720,2.0,88.0
14969,83.0,0,720,2.0,88.0
14970,73.0,0,720,5.0,89.0
14971,91.0,120,720,1.0,88.0
14972,90.0,0,720,1.0,82.0
14973,78.0,720,720,2.0,82.0
14974,75.0,0,720,5.0,81.0
14975,59.0,240,2160,5.0,99.0
14976,69.0,0,2160,5.0,99.0
14977,66.0,0,2175,5.0,99.0
14978,52.0,720,240,5.0,74.0
14979,65.0,240,240,5.0,81.0
14980,64.0,240,192,5.0,68.0
14981,88.0,0,720,1.0,75.0
14982,80.0,0,720,2.0,75.0
14983,76.0,0,720,2.0,75.0
14984,53.0,240,240,5.0,78.0
14985,52.0,240,192,5.0,66.0
14986,41.0,240,240,5.0,76.0
14987,40.0,240,192,5.0,64.0
14988,40.0,240,192,5.0,63.0
14989,76.0,0,192,2.0,70.0
14990,88.0,0,192,1.0,70.0
14991,40.0,240,192,5.0,68.0
14992,84.0,0,720,2.0,70.0
14993,76.0,240,720,2.0,70.0
14994,33.0,0,720,5.0,70.0
14995,40.0,0,720,4.0,70.0
14996,88.0,0,720,1.0,70.0
14997,36.0,720,480,5.0,75.0
14998,45.0,0,480,4.0,75.0
14999,72.0,0,480,2.0,75.0
15000,84.0,0,480,1.0,75.0
15001,47.0,0,240,4.0,79.0
15002,40.0,480,240,5.0,79.0
15003,83.0,0,240,1.0,79.0
15004,71.0,0,240,2.0,79.0
15005,80.0,0,240,2.0,79.0
15006,72.0,0,720,2.0,86.0
15007,64.0,0,720,2.0,86.0
15008,48.0,0,720,5.0,86.0
15009,52.0,240,720,4.0,86.0
15010,76.0,0,720,1.0,86.0
15011,72.0,0,480,2.0,79.0
15012,69.0,0,480,2.0,79.0
15013,48.0,0,480,4.0,79.0
15014,45.0,720,480,5.0,79.0
15015,81.0,0,480,1.0,79.0
15016,76.0,0,240,2.0,77.0
15017,84.0,480,240,2.0,77.0
15018,40.0,0,0,4.0,77.0
15019,33.0,0,0,5.0,77.0
15020,88.0,0,0,1.0,77.0
15021,84.0,240,720,2.0,77.0
15022,76.0,0,720,2.0,77.0
15023,36.0,0,480,5.0,82.0
15024,45.0,0,480,4.0,82.0
15025,84.0,0,480,1.0,82.0
15026,72.0,720,480,2.0,82.0
15027,40.0,0,240,5.0,86.0
15028,71.0,0,240,2.0,86.0
15029,80.0,480,240,2.0,86.0
15030,47.0,0,240,4.0,86.0
15031,83.0,0,240,1.0,86.0
15032,52.0,0,720,4.0,92.0
15033,48.0,0,720,5.0,92.0
15034,76.0,480,0,1.0,82.0
15035,45.0,0,480,5.0,83.0
15036,72.0,0,0,2.0,82.0
15037,48.0,720,480,4.0,83.0
15038,64.0,0,0,2.0,82.0
15039,48.0,0,240,5.0,82.0
15040,52.0,0,0,4.0,85.0
15041,72.0,0,0,2.0,85.0
15042,64.0,0,720,2.0,85.0
15043,76.0,0,720,1.0,85.0
15044,55.0,240,840,4.0,85.0
15045,53.0,0,156,4.0,78.0
15046,50.0,240,156,4.0,78.0
15047,77.0,0,480,1.0,80.0
15048,65.0,720,480,2.0,80.0
15049,74.0,0,480,2.0,80.0
15050,48.0,0,156,4.0,77.0
15051,52.0,0,156,4.0,77.0
15052,79.0,240,240,1.0,77.0
15053,43.0,0,0,5.0,81.0
15054,67.0,0,240,2.0,77.0
15055,76.0,0,240,2.0,77.0
15056,79.0,240,720,1.0,81.0
15057,71.0,0,720,2.0,81.0
15058,67.0,0,720,2.0,81.0
15059,50.0,0,1192,4.0,81.0
15060,77.0,720,480,1.0,76.0
15061,43.0,0,0,5.0,73.0
15062,65.0,0,480,2.0,76.0
15063,71.0,0,0,2.0,73.0
15064,74.0,480,240,1.0,73.0
15065,62.0,0,240,2.0,73.0
15066,50.0,0,240,4.0,73.0
15067,72.0,0,367,1.0,75.0
15068,74.0,360,120,1.0,70.0
15069,72.0,120,120,1.0,72.0
15070,71.0,120,120,1.0,73.0
15071,60.0,0,840,2.0,75.0
15072,48.0,240,840,4.0,75.0
15073,69.0,0,847,2.0,75.0
15074,52.0,0,847,4.0,75.0
15075,72.0,120,156,1.0,77.0
15076,48.0,0,156,4.0,71.0
15077,52.0,0,156,4.0,71.0
15078,74.0,240,240,1.0,74.0
15079,71.0,0,240,2.0,74.0
15080,47.0,0,156,4.0,69.0
15081,50.0,240,156,4.0,69.0
15082,40.0,0,1440,5.0,75.0
15083,72.0,0,240,2.0,71.0
15084,76.0,0,0,1.0,68.0
15085,47.0,240,720,4.0,66.0
15086,40.0,0,720,5.0,66.0
15087,64.0,0,720,2.0,68.0
15088,68.0,0,720,2.0,68.0
15089,40.0,1200,240,5.0,74.0
15090,88.0,0,240,1.0,74.0
15091,76.0,0,240,2.0,74.0
15092,88.0,0,720,1.0,76.0
15093,40.0,0,720,4.0,76.0
15094,85.0,0,720,2.0,76.0
15095,33.0,240,720,5.0,76.0
15096,76.0,0,720,2.0,76.0
15097,45.0,0,480,4.0,80.0
15098,73.0,720,480,2.0,80.0
15099,37.0,0,480,5.0,80.0
15100,85.0,0,480,1.0,80.0
15101,83.0,0,240,1.0,83.0
15102,80.0,0,240,2.0,83.0
15103,71.0,0,240,2.0,83.0
15104,40.0,480,240,5.0,83.0
15105,47.0,0,240,4.0,83.0
15106,64.0,0,720,2.0,87.0
15107,49.0,0,720,5.0,87.0
15108,73.0,0,0,2.0,81.0
15109,52.0,0,720,4.0,87.0
15110,76.0,0,720,1.0,87.0
15111,45.0,0,480,5.0,81.0
15112,69.0,0,480,2.0,81.0
15113,81.0,720,480,1.0,81.0
15114,49.0,0,480,4.0,81.0
15115,76.0,480,240,2.0,78.0
15116,85.0,0,240,2.0,78.0
15117,33.0,0,240,5.0,78.0
15118,88.0,0,240,1.0,78.0
15119,45.0,0,240,4.0,78.0
15120,44.0,0,720,4.0,76.0
15121,32.0,0,720,5.0,76.0
15122,88.0,240,840,2.0,76.0
15123,92.0,0,840,1.0,76.0
15124,80.0,0,855,2.0,76.0
15125,87.0,0,156,2.0,78.0
15126,66.0,0,156,4.0,78.0
15127,63.0,0,156,4.0,78.0
15128,78.0,0,156,2.0,78.0
15129,90.0,480,156,1.0,78.0
15130,85.0,0,156,2.0,80.0
15131,76.0,0,156,2.0,80.0
15132,88.0,240,156,1.0,80.0
15133,64.0,0,156,4.0,80.0
15134,61.0,0,156,4.0,80.0
15135,56.0,480,1440,5.0,77.0
15136,75.0,0,1192,2.0,84.0
15137,87.0,720,0,1.0,81.0
15138,60.0,0,1200,4.0,84.0
15139,84.0,0,1200,2.0,84.0
15140,63.0,240,1440,4.0,84.0
15141,75.0,0,0,2.0,82.0
15142,56.0,480,960,5.0,80.0
15143,63.0,0,720,4.0,83.0
15144,87.0,0,720,1.0,82.0
15145,64.0,0,480,4.0,86.0
15146,76.0,0,480,2.0,85.0
15147,88.0,480,0,1.0,87.0
15148,64.0,0,240,4.0,88.0
15149,76.0,0,240,2.0,87.0
15150,88.0,240,0,1.0,89.0
15151,83.0,240,1440,2.0,82.0
15152,56.0,0,1440,5.0,83.0
15153,59.0,0,1440,4.0,83.0
15154,64.0,0,720,4.0,89.0
15155,76.0,0,720,2.0,89.0
15156,65.0,720,480,4.0,91.0
15157,89.0,0,0,1.0,94.0
15158,77.0,0,480,2.0,92.0
15159,57.0,0,1440,5.0,89.0
15160,65.0,480,240,4.0,93.0
15161,60.0,0,1440,4.0,89.0
15162,84.0,0,1440,2.0,89.0
15163,77.0,0,0,2.0,95.0
15164,59.0,0,670,5.0,94.0
15165,65.0,0,670,4.0,94.0
15166,89.0,0,675,1.0,95.0
15167,62.0,240,675,4.0,94.0
15168,86.0,0,680,2.0,95.0
15169,83.0,0,480,2.0,101.0
15170,86.0,0,480,2.0,101.0
15171,93.0,40,480,1.0,101.0
15172,79.0,0,240,2.0,97.0
15173,53.0,0,720,4.0,100.0
15174,55.0,0,720,4.0,100.0
15175,62.0,0,720,4.0,100.0
15176,47.0,680,760,5.0,100.0
15177,91.0,480,240,1.0,97.0
15178,84.0,0,0,2.0,90.0
15179,53.0,0,720,4.0,94.0
15180,48.0,0,0,5.0,87.0
15181,89.0,0,720,1.0,95.0
15182,77.0,0,720,2.0,95.0
15183,57.0,0,720,4.0,94.0
15184,60.0,0,720,4.0,94.0
15185,82.0,720,480,2.0,90.0
15186,79.0,0,480,2.0,90.0
15187,76.0,0,480,2.0,90.0
15188,60.0,0,480,4.0,87.0
15189,88.0,0,480,1.0,90.0
15190,55.0,0,480,4.0,87.0
15191,89.0,480,240,1.0,87.0
15192,77.0,240,0,2.0,85.0
15193,48.0,0,240,5.0,83.0
15194,84.0,0,720,2.0,85.0
15195,48.0,0,720,4.0,81.0
15196,41.0,0,720,5.0,81.0
15197,89.0,0,720,1.0,85.0
15198,53.0,720,480,4.0,72.0
15199,48.0,0,0,5.0,77.0
15200,60.0,0,156,2.0,77.0
15201,72.0,0,156,1.0,77.0
15202,55.0,480,240,4.0,77.0
15203,69.0,0,720,2.0,83.0
15204,61.0,0,720,2.0,83.0
15205,57.0,0,720,4.0,83.0
15206,53.0,240,720,4.0,83.0
15207,73.0,0,720,1.0,83.0
15208,65.0,720,156,2.0,77.0
15209,77.0,0,156,1.0,77.0
15210,69.0,0,156,2.0,80.0
15211,81.0,240,156,1.0,80.0
15212,45.0,0,480,5.0,77.0
15213,53.0,0,480,4.0,77.0
15214,49.0,0,480,4.0,77.0
15215,85.0,240,156,1.0,83.0
15216,73.0,0,156,2.0,83.0
15217,49.0,0,720,4.0,89.0
15218,77.0,0,720,2.0,89.0
15219,89.0,0,720,1.0,89.0
15220,46.0,0,0,5.0,80.0
15221,85.0,240,720,2.0,89.0
15222,54.0,0,240,4.0,80.0
15223,49.0,240,240,5.0,82.0
15224,86.0,240,0,2.0,85.0
15225,90.0,0,0,1.0,85.0
15226,78.0,0,0,2.0,85.0
15227,58.0,0,240,4.0,82.0
15228,61.0,0,240,4.0,85.0
15229,54.0,0,240,5.0,85.0
15230,78.0,0,0,2.0,92.0
15231,90.0,0,0,1.0,92.0
15232,62.0,240,720,4.0,92.0
15233,86.0,0,0,2.0,89.0
15234,59.0,0,720,5.0,92.0
15235,47.0,0,240,5.0,89.0
15236,55.0,0,240,4.0,89.0
15237,79.0,240,0,2.0,96.0
15238,50.0,0,240,5.0,92.0
15239,91.0,0,480,1.0,89.0
15240,59.0,240,240,4.0,92.0
15241,91.0,0,240,1.0,96.0
15242,62.0,0,240,4.0,96.0
15243,79.0,0,0,2.0,102.0
15244,55.0,0,240,5.0,96.0
15245,64.0,240,675,4.0,102.0
15246,60.0,0,675,5.0,102.0
15247,91.0,0,680,1.0,102.0
15248,88.0,0,680,2.0,102.0
15249,83.0,0,480,2.0,100.0
15250,88.0,0,480,2.0,100.0
15251,91.0,0,480,2.0,100.0
15252,95.0,0,480,1.0,100.0
15253,64.0,0,720,4.0,100.0
15254,57.0,0,720,4.0,100.0
15255,55.0,40,720,4.0,100.0
15256,93.0,480,240,1.0,96.0
15257,48.0,680,765,5.0,100.0
15258,86.0,0,0,2.0,89.0
15259,83.0,0,720,2.0,94.0
15260,50.0,0,720,5.0,94.0
15261,62.0,0,720,4.0,94.0
15262,55.0,0,720,4.0,94.0
15263,59.0,0,720,4.0,94.0
15264,79.0,0,720,2.0,94.0
15265,91.0,0,720,1.0,94.0
15266,90.0,0,480,1.0,89.0
15267,78.0,0,480,2.0,89.0
15268,84.0,720,480,2.0,89.0
15269,57.0,0,480,4.0,89.0
15270,50.0,0,480,5.0,89.0
15271,62.0,0,480,4.0,89.0
15272,50.0,0,240,5.0,86.0
15273,91.0,0,0,1.0,84.0
15274,79.0,0,240,2.0,86.0
15275,43.0,0,720,5.0,84.0
15276,50.0,240,720,4.0,84.0
15277,79.0,0,720,2.0,84.0
15278,83.0,0,720,2.0,84.0
15279,86.0,0,720,2.0,84.0
15280,45.0,720,480,5.0,78.0
15281,53.0,0,480,4.0,78.0
15282,62.0,0,240,2.0,82.0
15283,74.0,0,240,1.0,82.0
15284,57.0,480,240,4.0,82.0
15285,50.0,0,240,5.0,82.0
15286,55.0,0,720,5.0,86.0
15287,71.0,240,825,2.0,86.0
15288,63.0,0,840,2.0,86.0
15289,75.0,0,847,1.0,86.0
15290,59.0,0,855,4.0,86.0
15291,47.0,0,240,5.0,80.0
15292,49.0,720,240,4.0,80.0
15293,55.0,0,240,4.0,80.0
15294,79.0,0,156,1.0,83.0
15295,67.0,240,156,2.0,83.0
15296,81.0,0,156,1.0,85.0
15297,69.0,0,156,2.0,85.0
15298,43.0,240,240,5.0,85.0
15299,49.0,0,240,4.0,85.0
15300,43.0,0,720,5.0,88.0
15301,50.0,240,720,4.0,88.0
15302,74.0,0,1200,2.0,88.0
15303,79.0,0,1200,2.0,88.0
15304,47.0,720,480,5.0,85.0
15305,71.0,0,1200,2.0,88.0
15306,83.0,0,1200,1.0,88.0
15307,55.0,0,480,4.0,85.0
15308,57.0,0,240,4.0,90.0
15309,74.0,480,240,1.0,90.0
15310,62.0,0,240,2.0,90.0
15311,50.0,0,240,5.0,90.0
15312,55.0,0,840,5.0,95.0
15313,75.0,0,840,1.0,95.0
15314,59.0,240,847,4.0,95.0
15315,63.0,0,847,2.0,95.0
15316,71.0,0,847,2.0,95.0
15317,67.0,960,156,2.0,89.0
15318,79.0,0,156,1.0,89.0
15319,69.0,0,156,2.0,93.0
15320,81.0,240,156,1.0,93.0
15321,50.0,0,240,4.0,93.0
15322,41.0,0,240,5.0,93.0
15323,47.0,240,720,4.0,97.0
15324,40.0,0,720,5.0,97.0
15325,83.0,0,1200,1.0,97.0
15326,74.0,0,1200,2.0,97.0
15327,80.0,0,1200,2.0,97.0
15328,40.0,0,480,5.0,86.0
15329,47.0,720,480,4.0,86.0
15330,71.0,0,1200,2.0,97.0
15331,74.0,0,240,1.0,79.0
15332,62.0,480,240,2.0,79.0
15333,57.0,0,240,4.0,79.0
15334,50.0,0,240,5.0,79.0
15335,75.0,240,288,1.0,80.0
15336,71.0,0,288,2.0,80.0
15337,63.0,0,288,2.0,80.0
15338,76.0,360,288,1.0,82.0
15339,71.0,0,288,2.0,82.0
15340,64.0,0,288,2.0,82.0
15341,56.0,0,1440,5.0,80.0
15342,59.0,0,1440,4.0,80.0
15343,68.0,720,0,2.0,68.0
15344,74.0,0,1440,2.0,86.0
15345,77.0,0,1440,1.0,86.0
15346,50.0,720,720,4.0,82.0
15347,65.0,0,0,2.0,68.0
15348,71.0,0,0,2.0,68.0
15349,40.0,0,720,5.0,82.0
15350,56.0,0,480,4.0,73.0
15351,47.0,0,480,5.0,73.0
15352,50.0,0,240,5.0,69.0
15353,59.0,240,0,4.0,71.0
15354,74.0,0,1440,1.0,68.0
15355,65.0,0,0,2.0,57.0
15356,56.0,0,1440,5.0,71.0
15357,71.0,720,1440,1.0,57.0
15358,62.0,0,1440,2.0,57.0
15359,68.0,0,1440,2.0,57.0
15360,40.0,720,1440,5.0,60.0
15361,50.0,0,1440,4.0,60.0
15362,62.0,0,1440,2.0,46.0
15363,65.0,0,1440,2.0,46.0
15364,59.0,720,0,2.0,35.0
15365,68.0,720,1440,1.0,46.0
15366,62.0,0,720,1.0,35.0
15367,47.0,720,1440,5.0,49.0
15368,56.0,0,1440,4.0,49.0
15369,59.0,720,1920,1.0,32.0
15370,40.0,0,1920,5.0,39.0
15371,50.0,0,1920,4.0,39.0
15372,56.0,0,1920,2.0,32.0
15373,65.0,0,156,2.0,54.0
15374,41.0,2880,156,5.0,54.0
15375,69.0,40,156,2.0,54.0
15376,77.0,40,156,1.0,54.0
15377,48.0,160,156,4.0,46.0
15378,57.0,0,156,1.0,46.0
15379,48.0,240,156,4.0,46.0
15380,53.0,0,156,2.0,46.0
15381,53.0,240,156,2.0,46.0
15382,41.0,0,156,5.0,46.0
15383,57.0,0,156,1.0,46.0
15384,58.0,0,156,1.0,47.0
15385,55.0,240,156,2.0,47.0
15386,48.0,0,156,4.0,47.0
15387,57.0,0,156,2.0,47.0
15388,60.0,0,156,1.0,47.0
15389,48.0,240,156,4.0,47.0
15390,58.0,240,156,2.0,47.0
15391,62.0,0,156,1.0,47.0
15392,41.0,0,156,5.0,47.0
15393,48.0,240,156,4.0,47.0
15394,60.0,0,156,1.0,47.0
15395,57.0,0,156,2.0,47.0
15396,65.0,0,156,2.0,55.0
15397,48.0,240,156,4.0,55.0
15398,69.0,40,156,2.0,54.0
15399,77.0,40,156,1.0,54.0
15400,57.0,160,156,1.0,48.0
15401,41.0,0,156,5.0,48.0
15402,53.0,0,156,2.0,48.0
15403,48.0,0,156,4.0,48.0
15404,55.0,240,156,2.0,48.0
15405,58.0,0,156,1.0,48.0
15406,48.0,0,156,4.0,48.0
15407,60.0,240,156,1.0,48.0
15408,57.0,0,156,2.0,48.0
15409,58.0,240,156,2.0,48.0
15410,41.0,0,156,5.0,48.0
15411,62.0,0,156,1.0,48.0
15412,60.0,0,156,1.0,49.0
15413,48.0,240,156,4.0,49.0
15414,57.0,0,156,2.0,49.0
15415,62.0,0,156,1.0,49.0
15416,58.0,0,156,2.0,49.0
15417,48.0,240,156,4.0,49.0
15418,41.0,0,156,5.0,49.0
15419,60.0,0,156,2.0,49.0
15420,64.0,240,156,1.0,49.0
15421,48.0,240,156,4.0,49.0
15422,62.0,0,156,2.0,49.0
15423,65.0,0,156,1.0,49.0
15424,67.0,240,156,1.0,49.0
15425,64.0,0,156,2.0,49.0
15426,48.0,0,156,4.0,49.0
15427,41.0,240,156,5.0,51.0
15428,48.0,240,156,4.0,52.0
15429,48.0,240,156,4.0,54.0
15430,69.0,0,720,1.0,51.0
15431,65.0,0,720,2.0,51.0
15432,41.0,0,156,5.0,56.0
15433,48.0,240,156,4.0,58.0
15434,69.0,0,480,2.0,56.0
15435,72.0,240,480,1.0,56.0
15436,48.0,0,156,4.0,60.0
15437,77.0,0,240,1.0,60.0
15438,72.0,240,240,2.0,60.0
15439,41.0,0,156,5.0,63.0
15440,48.0,240,156,4.0,61.0
15441,48.0,240,156,4.0,59.0
15442,81.0,240,720,1.0,66.0
15443,77.0,0,720,2.0,66.0
15444,41.0,0,156,5.0,57.0
15445,48.0,240,156,4.0,55.0
15446,48.0,240,156,4.0,53.0
15447,69.0,240,720,1.0,57.0
15448,65.0,0,720,2.0,57.0
15449,41.0,240,156,5.0,51.0
15450,48.0,240,156,4.0,49.0
15451,48.0,240,156,4.0,47.0
15452,41.0,0,156,5.0,48.0
15453,48.0,240,156,4.0,53.0
15454,48.0,240,156,4.0,57.0
15455,77.0,240,720,2.0,48.0
15456,81.0,0,720,1.0,48.0
15457,40.0,0,156,5.0,61.0
15458,73.0,240,156,2.0,61.0
15459,85.0,80,156,1.0,62.0
15460,49.0,160,156,4.0,54.0
15461,61.0,240,156,1.0,54.0
15462,49.0,0,156,4.0,54.0
15463,57.0,0,156,2.0,54.0
15464,57.0,240,156,2.0,54.0
15465,40.0,0,156,5.0,54.0
15466,61.0,0,156,1.0,54.0
15467,62.0,0,156,1.0,55.0
15468,49.0,0,156,4.0,55.0
15469,59.0,240,156,2.0,55.0
15470,61.0,0,156,2.0,55.0
15471,49.0,240,156,4.0,55.0
15472,64.0,0,156,1.0,55.0
15473,62.0,0,156,2.0,55.0
15474,40.0,0,156,5.0,55.0
15475,66.0,240,156,1.0,55.0
15476,64.0,0,156,1.0,55.0
15477,49.0,0,156,4.0,55.0
15478,61.0,240,156,2.0,55.0
15479,49.0,0,156,4.0,63.0
15480,69.0,0,156,2.0,63.0
15481,73.0,240,156,1.0,63.0
15482,61.0,240,156,1.0,56.0
15483,57.0,0,156,2.0,56.0
15484,40.0,0,156,5.0,56.0
15485,49.0,240,156,4.0,56.0
15486,59.0,0,156,2.0,56.0
15487,62.0,0,156,1.0,56.0
15488,61.0,0,156,2.0,56.0
15489,64.0,0,156,1.0,56.0
15490,49.0,240,156,4.0,56.0
15491,66.0,240,156,1.0,56.0
15492,40.0,0,156,5.0,56.0
15493,62.0,0,156,2.0,56.0
15494,64.0,240,156,1.0,57.0
15495,61.0,0,156,2.0,57.0
15496,49.0,0,156,4.0,57.0
15497,62.0,0,156,2.0,57.0
15498,49.0,240,156,4.0,57.0
15499,66.0,0,156,1.0,57.0
15500,40.0,240,156,5.0,57.0
15501,64.0,0,156,2.0,57.0
15502,68.0,0,156,1.0,57.0
15503,66.0,240,156,2.0,57.0
15504,69.0,0,156,1.0,57.0
15505,49.0,0,156,4.0,57.0
15506,71.0,240,156,1.0,57.0
15507,49.0,0,156,4.0,57.0
15508,68.0,0,156,2.0,57.0
15509,39.0,240,156,5.0,57.0
15510,49.0,160,156,4.0,60.0
15511,49.0,240,156,4.0,62.0
15512,67.0,0,675,2.0,57.0
15513,69.0,40,680,2.0,57.0
15514,61.0,0,727,2.0,57.0
15515,39.0,0,156,5.0,65.0
15516,49.0,240,156,4.0,67.0
15517,66.0,0,480,2.0,65.0
15518,78.0,240,480,1.0,65.0
15519,73.0,40,1120,1.0,58.0
15520,49.0,240,156,4.0,70.0
15521,67.0,0,240,2.0,70.0
15522,73.0,0,240,2.0,70.0
15523,79.0,0,240,1.0,70.0
15524,39.0,240,156,5.0,72.0
15525,49.0,160,156,4.0,70.0
15526,49.0,240,156,4.0,69.0
15527,79.0,40,670,2.0,72.0
15528,73.0,240,0,2.0,67.0
15529,85.0,40,640,1.0,72.0
15530,39.0,0,156,5.0,67.0
15531,49.0,240,156,4.0,65.0
15532,49.0,240,156,4.0,63.0
15533,69.0,0,720,2.0,67.0
15534,81.0,0,720,1.0,67.0
15535,79.0,0,727,2.0,67.0
15536,39.0,240,156,5.0,62.0
15537,49.0,240,156,4.0,60.0
15538,49.0,240,156,4.0,58.0
15539,39.0,240,156,5.0,60.0
15540,49.0,240,156,4.0,63.0
15541,49.0,240,156,4.0,67.0
15542,81.0,0,710,1.0,60.0
15543,79.0,0,712,2.0,60.0
15544,73.0,0,727,2.0,60.0
15545,69.0,0,727,2.0,60.0
15546,74.0,240,156,2.0,72.0
15547,38.0,0,156,5.0,72.0
15548,78.0,40,156,2.0,72.0
15549,86.0,40,156,1.0,72.0
15550,50.0,160,156,4.0,62.0
15551,62.0,0,156,2.0,62.0
15552,66.0,0,156,1.0,62.0
15553,50.0,240,156,4.0,62.0
15554,66.0,240,156,1.0,62.0
15555,38.0,0,156,5.0,62.0
15556,62.0,0,156,2.0,62.0
15557,64.0,240,156,2.0,62.0
15558,50.0,0,156,4.0,62.0
15559,67.0,0,156,1.0,62.0
15560,50.0,0,156,4.0,63.0
15561,69.0,0,156,1.0,63.0
15562,66.0,240,156,2.0,63.0
15563,71.0,0,156,1.0,63.0
15564,38.0,240,156,5.0,63.0
15565,67.0,0,156,2.0,63.0
15566,50.0,240,156,4.0,63.0
15567,69.0,0,156,1.0,63.0
15568,66.0,0,156,2.0,63.0
15569,74.0,240,156,2.0,74.0
15570,50.0,0,156,4.0,74.0
15571,78.0,40,156,2.0,73.0
15572,86.0,40,156,1.0,73.0
15573,66.0,160,156,1.0,64.0
15574,38.0,0,156,5.0,64.0
15575,62.0,0,156,2.0,64.0
15576,64.0,0,156,2.0,64.0
15577,50.0,0,156,4.0,64.0
15578,67.0,240,156,1.0,64.0
15579,69.0,0,156,1.0,64.0
15580,50.0,240,156,4.0,64.0
15581,66.0,0,156,2.0,64.0
15582,71.0,240,156,1.0,64.0
15583,38.0,0,156,5.0,64.0
15584,67.0,0,156,2.0,64.0
15585,69.0,240,156,1.0,64.0
15586,50.0,0,156,4.0,64.0
15587,66.0,0,156,2.0,64.0
15588,71.0,240,156,1.0,65.0
15589,67.0,0,156,2.0,65.0
15590,50.0,0,156,4.0,65.0
15591,38.0,240,156,5.0,65.0
15592,69.0,0,156,2.0,65.0
15593,73.0,0,156,1.0,65.0
15594,74.0,240,156,1.0,65.0
15595,71.0,0,156,2.0,65.0
15596,50.0,0,156,4.0,65.0
15597,73.0,240,156,2.0,65.0
15598,50.0,0,156,4.0,65.0
15599,76.0,0,156,1.0,65.0
15600,38.0,0,156,5.0,65.0
15601,50.0,240,156,4.0,67.0
15602,50.0,240,156,4.0,69.0
15603,81.0,240,720,1.0,65.0
15604,77.0,0,720,2.0,65.0
15605,69.0,0,720,2.0,65.0
15606,38.0,240,156,5.0,72.0
15607,50.0,240,156,4.0,74.0
15608,77.0,0,480,2.0,72.0
15609,86.0,0,480,1.0,72.0
15610,74.0,0,480,2.0,72.0
15611,88.0,0,156,1.0,76.0
15612,76.0,0,156,2.0,76.0
15613,50.0,240,156,4.0,76.0
15614,38.0,0,156,5.0,78.0
15615,50.0,240,156,4.0,75.0
15616,50.0,240,156,4.0,73.0
15617,89.0,240,720,1.0,80.0
15618,38.0,240,156,5.0,70.0
15619,77.0,0,312,2.0,70.0
15620,86.0,0,312,1.0,70.0
15621,50.0,240,156,4.0,67.0
15622,89.0,240,156,1.0,64.0
15623,50.0,0,156,4.0,64.0
15624,84.0,0,156,2.0,77.0
15625,36.0,240,156,5.0,77.0
15626,94.0,0,156,2.0,78.0
15627,88.0,40,156,2.0,78.0
15628,96.0,40,156,1.0,78.0
15629,43.0,160,156,3.0,68.0
15630,64.0,240,156,1.0,69.0
15631,48.0,0,156,3.0,69.0
15632,60.0,0,156,2.0,69.0
15633,36.0,240,156,5.0,69.0
15634,64.0,0,156,1.0,69.0
15635,60.0,0,156,2.0,69.0
15636,43.0,0,156,3.0,69.0
15637,62.0,0,156,2.0,69.0
15638,65.0,240,156,1.0,69.0
15639,48.0,240,156,3.0,69.0
15640,64.0,0,156,2.0,69.0
15641,67.0,0,156,1.0,69.0
15642,69.0,0,156,1.0,70.0
15643,65.0,240,156,2.0,70.0
15644,36.0,0,156,5.0,70.0
15645,43.0,0,156,3.0,70.0
15646,64.0,240,156,2.0,70.0
15647,67.0,0,156,1.0,70.0
15648,48.0,0,156,3.0,80.0
15649,72.0,240,156,2.0,80.0
15650,76.0,40,156,2.0,80.0
15651,82.0,0,156,2.0,80.0
15652,84.0,40,156,1.0,80.0
15653,36.0,0,156,5.0,70.0
15654,64.0,160,156,1.0,70.0
15655,60.0,0,156,2.0,70.0
15656,65.0,0,156,1.0,70.0
15657,62.0,240,156,2.0,70.0
15658,43.0,0,156,3.0,70.0
15659,64.0,0,156,2.0,71.0
15660,48.0,240,156,3.0,71.0
15661,67.0,0,156,1.0,71.0
15662,65.0,240,156,2.0,71.0
15663,36.0,0,156,5.0,71.0
15664,69.0,0,156,1.0,71.0
15665,67.0,0,156,1.0,71.0
15666,64.0,240,156,2.0,71.0
15667,43.0,0,156,3.0,71.0
15668,48.0,240,156,3.0,71.0
15669,69.0,0,156,1.0,71.0
15670,65.0,0,156,2.0,71.0
15671,36.0,240,156,5.0,72.0
15672,70.0,0,156,1.0,72.0
15673,67.0,0,156,2.0,72.0
15674,69.0,240,156,2.0,72.0
15675,72.0,0,156,1.0,72.0
15676,43.0,0,156,3.0,72.0
15677,74.0,240,156,1.0,72.0
15678,70.0,0,156,2.0,72.0
15679,48.0,0,156,3.0,72.0
15680,38.0,240,156,5.0,73.0
15681,50.0,160,156,4.0,75.0
15682,50.0,240,156,4.0,78.0
15683,82.0,40,675,2.0,73.0
15684,76.0,0,720,2.0,73.0
15685,88.0,40,640,1.0,74.0
15686,38.0,0,156,5.0,80.0
15687,50.0,240,156,4.0,82.0
15688,82.0,0,480,2.0,80.0
15689,90.0,0,480,1.0,80.0
15690,78.0,240,480,2.0,80.0
15691,50.0,0,156,4.0,85.0
15692,91.0,0,240,1.0,85.0
15693,82.0,240,240,2.0,85.0
15694,79.0,0,240,2.0,85.0
15695,38.0,240,156,5.0,88.0
15696,50.0,160,156,4.0,86.0
15697,50.0,240,156,4.0,84.0
15698,100.0,40,640,1.0,88.0
15699,88.0,0,720,2.0,88.0
15700,94.0,0,0,2.0,81.0
15701,38.0,0,156,5.0,81.0
15702,50.0,240,156,4.0,79.0
15703,88.0,240,0,2.0,77.0
15704,94.0,0,0,2.0,77.0
15705,82.0,240,480,2.0,81.0
15706,50.0,0,156,4.0,77.0
15707,100.0,0,240,1.0,77.0
15708,91.0,240,156,2.0,85.0
15709,36.0,0,156,5.0,85.0
15710,94.0,40,156,2.0,86.0
15711,103.0,40,156,1.0,86.0
15712,43.0,160,156,3.0,76.0
15713,67.0,240,156,2.0,77.0
15714,48.0,0,156,3.0,77.0
15715,70.0,0,156,1.0,77.0
15716,70.0,0,156,1.0,78.0
15717,36.0,240,156,5.0,78.0
15718,67.0,0,156,2.0,78.0
15719,43.0,0,156,3.0,79.0
15720,69.0,0,156,2.0,79.0
15721,72.0,240,156,1.0,79.0
15722,48.0,240,156,3.0,81.0
15723,74.0,0,156,1.0,81.0
15724,70.0,0,156,2.0,81.0
15725,72.0,0,156,2.0,82.0
15726,76.0,0,156,1.0,82.0
15727,36.0,240,156,5.0,82.0
15728,43.0,0,156,3.0,83.0
15729,70.0,240,156,2.0,83.0
15730,74.0,0,156,1.0,83.0
15731,91.0,0,156,2.0,96.0
15732,48.0,240,156,3.0,96.0
15733,94.0,40,156,2.0,96.0
15734,103.0,40,156,1.0,96.0
15735,82.0,0,156,2.0,84.0
15736,74.0,0,156,2.0,84.0
15737,86.0,160,156,1.0,84.0
15738,36.0,0,156,5.0,84.0
15739,84.0,0,156,2.0,86.0
15740,43.0,0,156,3.0,86.0
15741,88.0,0,156,1.0,86.0
15742,76.0,240,156,2.0,86.0
15743,86.0,0,156,2.0,88.0
15744,89.0,0,156,1.0,88.0
15745,48.0,240,156,3.0,88.0
15746,77.0,0,156,2.0,88.0
15747,88.0,0,156,2.0,90.0
15748,79.0,0,156,2.0,90.0
15749,36.0,240,156,5.0,90.0
15750,91.0,0,156,1.0,90.0
15751,43.0,0,156,3.0,92.0
15752,93.0,0,156,1.0,92.0
15753,89.0,0,156,2.0,90.0
15754,81.0,240,156,2.0,90.0
15755,91.0,240,156,2.0,94.0
15756,48.0,0,156,3.0,94.0
15757,94.0,0,156,1.0,94.0
15758,82.0,0,156,2.0,94.0
15759,94.0,0,156,1.0,96.0
15760,82.0,0,156,2.0,96.0
15761,91.0,240,156,2.0,96.0
15762,36.0,0,156,5.0,96.0
15763,82.0,240,156,2.0,98.0
15764,94.0,0,156,1.0,98.0
15765,91.0,0,156,2.0,98.0
15766,43.0,0,156,3.0,98.0
15767,48.0,0,156,3.0,100.0
15768,82.0,0,156,2.0,100.0
15769,94.0,0,156,1.0,100.0
15770,91.0,240,156,2.0,100.0
15771,35.0,0,156,5.0,110.0
15772,43.0,240,156,3.0,103.0
15773,47.0,240,156,3.0,102.0
15774,95.0,240,832,1.0,110.0
15775,91.0,0,840,2.0,110.0
15776,83.0,0,847,2.0,110.0
15777,35.0,240,156,5.0,103.0
15778,93.0,240,156,1.0,103.0
15779,43.0,0,156,3.0,103.0
15780,81.0,0,156,2.0,103.0
15781,90.0,0,156,2.0,103.0
15782,79.0,0,156,2.0,102.0
15783,88.0,0,156,2.0,102.0
15784,47.0,240,156,3.0,102.0
15785,91.0,0,156,1.0,102.0
15786,35.0,240,156,5.0,112.0
15787,42.0,240,156,3.0,101.0
15788,47.0,240,156,3.0,101.0
15789,90.0,0,720,2.0,112.0
15790,81.0,0,720,2.0,112.0
15791,93.0,0,840,1.0,112.0
15792,35.0,240,156,5.0,100.0
15793,42.0,0,156,3.0,100.0
15794,91.0,0,156,1.0,100.0
15795,88.0,0,156,2.0,100.0
15796,79.0,240,156,2.0,100.0
15797,47.0,0,156,3.0,99.0
15798,90.0,240,156,1.0,99.0
15799,87.0,0,156,2.0,99.0
15800,78.0,0,156,2.0,99.0
15801,88.0,0,156,2.0,99.0
15802,79.0,0,156,2.0,99.0
15803,35.0,0,156,5.0,99.0
15804,91.0,240,156,1.0,99.0
15805,40.0,0,156,3.0,98.0
15806,78.0,0,156,2.0,98.0
15807,87.0,240,156,2.0,98.0
15808,90.0,0,156,1.0,98.0
15809,47.0,240,156,3.0,98.0
15810,85.0,0,156,2.0,98.0
15811,76.0,0,156,2.0,98.0
15812,88.0,0,156,1.0,98.0
15813,35.0,0,156,5.0,98.0
15814,87.0,0,156,2.0,98.0
15815,90.0,240,156,1.0,98.0
15816,78.0,0,156,2.0,98.0
15817,39.0,240,156,3.0,97.0
15818,71.0,0,156,2.0,102.0
15819,47.0,240,156,3.0,102.0
15820,83.0,0,156,1.0,102.0
15821,28.0,240,156,5.0,106.0
15822,35.0,240,156,3.0,96.0
15823,40.0,240,156,3.0,95.0
15824,93.0,0,840,2.0,106.0
15825,85.0,0,840,2.0,106.0
15826,97.0,0,847,1.0,106.0
15827,28.0,240,156,5.0,95.0
15828,35.0,0,156,3.0,94.0
15829,83.0,240,156,2.0,94.0
15830,92.0,0,156,2.0,94.0
15831,95.0,0,156,1.0,94.0
15832,40.0,0,156,3.0,94.0
15833,81.0,0,156,2.0,94.0
15834,90.0,0,156,2.0,94.0
15835,93.0,240,156,1.0,94.0
15836,28.0,0,156,5.0,104.0
15837,35.0,240,156,3.0,92.0
15838,40.0,240,156,3.0,93.0
15839,95.0,0,840,1.0,104.0
15840,91.0,0,840,2.0,104.0
15841,83.0,240,840,2.0,104.0
15842,28.0,240,156,5.0,92.0
15843,93.0,0,156,1.0,92.0
15844,35.0,240,156,3.0,92.0
15845,90.0,0,156,2.0,92.0
15846,81.0,0,156,2.0,92.0
15847,88.0,0,156,2.0,91.0
15848,80.0,0,156,2.0,91.0
15849,92.0,240,156,1.0,91.0
15850,40.0,0,156,3.0,91.0
15851,28.0,0,156,5.0,91.0
15852,93.0,240,156,1.0,91.0
15853,90.0,0,156,2.0,91.0
15854,81.0,0,156,2.0,91.0
15855,80.0,0,156,2.0,90.0
15856,88.0,0,156,2.0,90.0
15857,92.0,240,156,1.0,90.0
15858,35.0,0,156,3.0,90.0
15859,87.0,0,156,2.0,90.0
15860,90.0,0,156,1.0,90.0
15861,40.0,0,156,3.0,90.0
15862,78.0,240,156,2.0,90.0
15863,80.0,0,156,2.0,89.0
15864,28.0,240,156,5.0,89.0
15865,92.0,0,156,1.0,89.0
15866,88.0,0,156,2.0,89.0
15867,35.0,240,156,3.0,89.0
15868,40.0,240,156,3.0,92.0
15869,76.0,0,156,2.0,92.0
15870,88.0,0,156,1.0,92.0
15871,88.0,240,156,2.0,99.0
15872,100.0,0,156,1.0,99.0
15873,28.0,0,156,5.0,99.0
15874,95.0,0,156,2.0,99.0
15875,92.0,0,156,2.0,99.0
15876,68.0,0,430,4.0,97.0
15877,59.0,0,435,4.0,97.0
15878,83.0,0,435,2.0,97.0
15879,88.0,40,435,2.0,97.0
15880,95.0,0,435,1.0,97.0
15881,52.0,440,480,5.0,97.0
15882,69.0,0,665,4.0,95.0
15883,61.0,0,665,4.0,95.0
15884,97.0,0,670,1.0,95.0
15885,85.0,0,670,2.0,95.0
15886,88.0,40,675,2.0,95.0
15887,52.0,440,720,5.0,95.0
15888,81.0,0,240,2.0,92.0
15889,66.0,0,288,4.0,92.0
15890,61.0,0,288,4.0,92.0
15891,88.0,40,288,2.0,92.0
15892,93.0,0,288,1.0,92.0
15893,57.0,0,288,4.0,92.0
15894,52.0,680,335,5.0,92.0
15895,59.0,0,96,4.0,89.0
15896,68.0,360,96,4.0,89.0
15897,83.0,0,96,2.0,89.0
15898,88.0,0,96,2.0,89.0
15899,95.0,0,96,1.0,89.0
15900,95.0,0,156,1.0,87.0
15901,88.0,0,156,2.0,87.0
15902,83.0,0,156,2.0,87.0
15903,52.0,120,156,5.0,87.0
15904,68.0,0,156,4.0,87.0
15905,59.0,0,156,4.0,87.0
15906,56.0,0,430,4.0,96.0
15907,71.0,0,430,2.0,96.0
15908,47.0,0,435,4.0,96.0
15909,83.0,40,435,1.0,96.0
15910,76.0,0,435,2.0,96.0
15911,40.0,440,480,5.0,96.0
15912,57.0,0,670,4.0,94.0
15913,73.0,0,675,2.0,94.0
15914,76.0,0,680,2.0,94.0
15915,40.0,680,0,5.0,91.0
15916,85.0,0,680,1.0,94.0
15917,49.0,40,0,4.0,91.0
15918,69.0,0,288,2.0,90.0
15919,76.0,0,288,2.0,90.0
15920,81.0,0,288,1.0,90.0
15921,45.0,0,288,4.0,91.0
15922,54.0,0,288,4.0,91.0
15923,83.0,0,96,1.0,83.0
15924,56.0,0,96,4.0,83.0
15925,71.0,0,96,2.0,83.0
15926,76.0,360,96,2.0,83.0
15927,47.0,0,96,4.0,83.0
15928,71.0,0,156,2.0,82.0
15929,76.0,120,156,2.0,82.0
15930,83.0,0,156,1.0,82.0
15931,28.0,0,156,5.0,82.0
15932,35.0,240,156,3.0,80.0
15933,40.0,0,156,3.0,89.0
15934,76.0,240,192,2.0,89.0
15935,80.0,40,192,2.0,89.0
15936,88.0,40,192,1.0,88.0
15937,28.0,160,156,5.0,75.0
15938,64.0,0,192,1.0,75.0
15939,52.0,0,192,2.0,75.0
15940,35.0,240,156,3.0,73.0
15941,40.0,240,156,3.0,71.0
15942,28.0,240,156,5.0,68.0
15943,35.0,240,156,3.0,66.0
15944,40.0,240,156,3.0,76.0
15945,76.0,0,192,2.0,76.0
15946,80.0,40,192,2.0,76.0
15947,88.0,40,192,1.0,76.0
15948,28.0,0,156,5.0,62.0
15949,64.0,0,192,1.0,62.0
15950,52.0,160,192,2.0,62.0
15951,35.0,240,156,3.0,59.0
15952,40.0,240,156,3.0,57.0
15953,28.0,240,156,5.0,55.0
15954,35.0,240,156,3.0,53.0
15955,40.0,240,156,3.0,50.0
15956,28.0,240,156,5.0,48.0
15957,76.0,480,192,1.0,46.0
15958,28.0,0,156,5.0,54.0
15959,33.0,240,192,3.0,54.0
15960,81.0,0,192,1.0,54.0
15961,73.0,0,192,2.0,54.0
15962,76.0,0,192,2.0,54.0
15963,61.0,0,192,2.0,52.0
15964,64.0,240,192,1.0,52.0
15965,62.0,0,192,1.0,50.0
15966,59.0,240,192,1.0,50.0
15967,61.0,240,192,1.0,49.0
15968,57.0,0,192,2.0,49.0
15969,61.0,240,192,1.0,47.0
15970,57.0,0,192,2.0,47.0
15971,52.0,0,192,2.0,45.0
15972,59.0,240,192,1.0,45.0
15973,49.0,240,192,2.0,43.0
15974,57.0,0,192,1.0,43.0
15975,40.0,480,192,5.0,49.0
15976,45.0,240,192,5.0,57.0
15977,61.0,0,192,2.0,49.0
15978,64.0,240,192,1.0,49.0
15979,62.0,0,192,1.0,46.0
15980,59.0,240,192,2.0,46.0
15981,57.0,240,192,2.0,44.0
15982,61.0,0,192,1.0,44.0
15983,61.0,0,192,1.0,42.0
15984,57.0,240,192,2.0,42.0
15985,33.0,0,192,5.0,48.0
15986,59.0,240,192,1.0,40.0
15987,52.0,0,192,2.0,40.0
15988,49.0,0,192,2.0,38.0
15989,33.0,0,192,5.0,51.0
15990,57.0,240,192,1.0,38.0
15991,35.0,240,192,5.0,53.0
15992,69.0,240,192,1.0,52.0
15993,37.0,0,192,5.0,56.0
15994,38.0,0,192,5.0,60.0
15995,65.0,240,192,2.0,60.0
15996,77.0,0,192,1.0,60.0
15997,65.0,0,192,2.0,56.0
15998,69.0,240,192,1.0,56.0
15999,67.0,240,192,1.0,54.0
16000,64.0,0,192,2.0,54.0
16001,62.0,240,192,2.0,52.0
16002,65.0,0,192,1.0,52.0
16003,62.0,240,192,2.0,50.0
16004,65.0,0,192,1.0,50.0
16005,57.0,240,192,2.0,48.0
16006,64.0,0,192,1.0,48.0
16007,62.0,240,192,1.0,46.0
16008,53.0,0,192,2.0,46.0
16009,45.0,480,192,5.0,55.0
16010,50.0,240,192,5.0,63.0
16011,65.0,0,192,2.0,56.0
16012,69.0,240,192,1.0,56.0
16013,64.0,240,192,2.0,54.0
16014,67.0,0,192,1.0,54.0
16015,65.0,0,192,1.0,52.0
16016,62.0,240,192,2.0,52.0
16017,65.0,240,192,1.0,50.0
16018,62.0,0,192,2.0,50.0
16019,57.0,240,192,2.0,49.0
16020,64.0,0,192,1.0,49.0
16021,38.0,0,192,5.0,54.0
16022,62.0,0,192,1.0,47.0
16023,53.0,240,192,2.0,47.0
16024,38.0,0,192,5.0,57.0
16025,39.0,240,192,5.0,60.0
16026,40.0,240,192,5.0,63.0
16027,72.0,0,192,1.0,58.0
16028,41.0,0,192,5.0,70.0
16029,69.0,0,192,2.0,70.0
16030,81.0,240,192,1.0,70.0
16031,72.0,240,192,1.0,64.0
16032,69.0,0,192,2.0,64.0
16033,70.0,240,192,1.0,62.0
16034,67.0,0,192,2.0,62.0
16035,65.0,0,192,2.0,60.0
16036,69.0,240,192,1.0,60.0
16037,65.0,0,192,2.0,58.0
16038,69.0,240,192,1.0,58.0
16039,67.0,240,192,1.0,56.0
16040,60.0,0,192,2.0,56.0
16041,57.0,0,192,2.0,54.0
16042,65.0,240,192,1.0,54.0
16043,48.0,480,192,5.0,61.0
16044,53.0,240,192,5.0,73.0
16045,72.0,0,192,1.0,62.0
16046,69.0,240,192,2.0,62.0
16047,70.0,0,192,1.0,60.0
16048,67.0,240,192,2.0,60.0
16049,69.0,0,192,1.0,58.0
16050,65.0,240,192,2.0,58.0
16051,65.0,240,192,2.0,56.0
16052,69.0,0,192,1.0,56.0
16053,60.0,0,192,2.0,54.0
16054,67.0,0,192,1.0,54.0
16055,41.0,240,192,5.0,61.0
16056,65.0,240,192,1.0,52.0
16057,41.0,0,192,5.0,63.0
16058,57.0,0,192,2.0,52.0
16059,43.0,240,192,5.0,66.0
16060,77.0,240,192,1.0,64.0
16061,45.0,0,192,5.0,68.0
16062,74.0,0,192,2.0,74.0
16063,86.0,240,192,1.0,74.0
16064,46.0,0,192,5.0,74.0
16065,70.0,0,192,2.0,68.0
16066,74.0,240,192,1.0,68.0
16067,72.0,0,192,1.0,65.0
16068,65.0,240,192,2.0,65.0
16069,62.0,0,192,2.0,62.0
16070,70.0,240,192,1.0,62.0
16071,44.0,240,192,5.0,61.0
16072,45.0,240,192,5.0,64.0
16073,47.0,240,192,5.0,66.0
16074,47.0,240,192,5.0,69.0
16075,74.0,240,192,1.0,68.0
16076,48.0,0,192,5.0,72.0
16077,83.0,0,192,1.0,76.0
16078,50.0,240,192,5.0,76.0
16079,71.0,0,192,2.0,76.0
16080,71.0,0,192,1.0,72.0
16081,68.0,240,192,2.0,72.0
16082,69.0,240,192,1.0,69.0
16083,66.0,0,192,2.0,69.0
16084,68.0,240,192,1.0,66.0
16085,65.0,0,192,2.0,66.0
16086,47.0,240,192,5.0,64.0
16087,48.0,240,192,5.0,67.0
16088,50.0,240,192,5.0,70.0
16089,50.0,240,192,5.0,72.0
16090,71.0,0,192,1.0,71.0
16091,52.0,240,192,5.0,75.0
16092,68.0,240,192,2.0,82.0
16093,53.0,0,192,5.0,82.0
16094,80.0,0,192,1.0,82.0
16095,65.0,0,192,2.0,70.0
16096,68.0,240,192,1.0,70.0
16097,64.0,240,192,2.0,68.0
16098,67.0,0,192,1.0,68.0
16099,65.0,240,192,1.0,66.0
16100,62.0,0,192,2.0,66.0
16101,53.0,240,192,5.0,62.0
16102,55.0,240,192,5.0,65.0
16103,56.0,240,192,5.0,68.0
16104,56.0,240,192,5.0,71.0
16105,57.0,240,192,5.0,74.0
16106,71.0,0,240,1.0,72.0
16107,77.0,240,192,1.0,81.0
16108,59.0,0,192,5.0,81.0
16109,65.0,0,192,2.0,81.0
16110,59.0,0,480,5.0,56.0
16111,62.0,480,480,4.0,56.0
16112,65.0,0,480,1.0,56.0
16113,62.0,0,480,4.0,58.0
16114,65.0,720,480,1.0,58.0
16115,59.0,0,480,5.0,58.0
16116,71.0,720,240,1.0,77.0
16117,59.0,0,240,5.0,85.0
16118,78.0,0,240,1.0,85.0
16119,66.0,240,240,2.0,85.0
16120,63.0,0,240,4.0,85.0
16121,59.0,480,480,5.0,64.0
16122,66.0,0,480,1.0,64.0
16123,63.0,0,480,4.0,64.0
16124,59.0,0,480,5.0,67.0
16125,63.0,720,480,4.0,67.0
16126,66.0,0,480,1.0,67.0
16127,71.0,720,240,1.0,79.0
16128,77.0,0,240,2.0,87.0
16129,55.0,0,240,5.0,87.0
16130,79.0,0,240,1.0,87.0
16131,74.0,240,240,2.0,87.0
16132,62.0,0,240,4.0,87.0
16133,65.0,0,240,4.0,87.0
16134,67.0,0,240,2.0,87.0
16135,71.0,0,480,2.0,73.0
16136,74.0,0,480,2.0,73.0
16137,67.0,0,480,2.0,73.0
16138,77.0,0,480,2.0,73.0
16139,79.0,480,480,1.0,73.0
16140,31.0,0,156,5.0,75.0
16141,43.0,0,156,3.0,75.0
16142,43.0,240,156,3.0,79.0
16143,31.0,0,156,5.0,79.0
16144,77.0,720,480,2.0,77.0
16145,71.0,0,480,2.0,77.0
16146,79.0,0,480,1.0,77.0
16147,74.0,0,480,2.0,77.0
16148,67.0,0,480,2.0,77.0
16149,33.0,240,156,5.0,84.0
16150,45.0,0,156,3.0,84.0
16151,79.0,0,156,1.0,81.0
16152,35.0,240,156,5.0,88.0
16153,71.0,0,156,2.0,81.0
16154,67.0,0,156,2.0,81.0
16155,77.0,0,156,2.0,81.0
16156,74.0,0,156,2.0,81.0
16157,47.0,0,156,3.0,88.0
16158,79.0,0,156,2.0,98.0
16159,83.0,240,156,2.0,98.0
16160,36.0,0,156,5.0,98.0
16161,91.0,0,156,1.0,98.0
16162,43.0,240,156,2.0,78.0
16163,48.0,0,156,3.0,79.0
16164,36.0,240,156,5.0,80.0
16165,67.0,240,480,2.0,79.0
16166,79.0,0,480,1.0,79.0
16167,77.0,0,480,2.0,79.0
16168,43.0,240,156,3.0,81.0
16169,79.0,0,156,1.0,83.0
16170,67.0,0,156,2.0,83.0
16171,77.0,240,156,2.0,83.0
16172,48.0,0,156,3.0,82.0
16173,67.0,0,156,2.0,86.0
16174,79.0,0,156,1.0,86.0
16175,77.0,240,156,2.0,86.0
16176,36.0,0,156,5.0,83.0
16177,81.0,0,156,1.0,89.0
16178,69.0,0,156,2.0,89.0
16179,43.0,240,156,3.0,84.0
16180,77.0,0,156,2.0,89.0
16181,83.0,240,156,1.0,92.0
16182,48.0,0,156,3.0,85.0
16183,71.0,0,156,2.0,92.0
16184,77.0,0,156,2.0,92.0
16185,84.0,240,156,1.0,98.0
16186,36.0,0,156,5.0,98.0
16187,76.0,0,156,2.0,98.0
16188,72.0,0,156,2.0,98.0
16189,43.0,240,156,3.0,87.0
16190,64.0,0,156,1.0,87.0
16191,48.0,0,156,3.0,87.0
16192,60.0,240,156,2.0,87.0
16193,64.0,0,156,1.0,88.0
16194,36.0,240,156,5.0,88.0
16195,60.0,0,156,2.0,88.0
16196,62.0,0,156,2.0,88.0
16197,43.0,240,156,3.0,88.0
16198,65.0,0,156,1.0,88.0
16199,64.0,0,156,2.0,88.0
16200,48.0,0,156,3.0,88.0
16201,67.0,240,156,1.0,88.0
16202,69.0,0,156,1.0,89.0
16203,36.0,240,156,5.0,89.0
16204,65.0,0,156,2.0,89.0
16205,64.0,240,156,2.0,89.0
16206,67.0,0,156,1.0,89.0
16207,43.0,0,156,3.0,89.0
16208,72.0,0,156,2.0,100.0
16209,48.0,240,156,3.0,100.0
16210,76.0,40,156,2.0,101.0
16211,84.0,40,156,1.0,101.0
16212,36.0,0,156,5.0,90.0
16213,64.0,0,156,1.0,90.0
16214,60.0,160,156,2.0,90.0
16215,65.0,0,156,1.0,90.0
16216,43.0,240,156,3.0,90.0
16217,62.0,0,156,2.0,90.0
16218,48.0,240,156,3.0,91.0
16219,67.0,0,156,1.0,91.0
16220,64.0,0,156,2.0,91.0
16221,69.0,0,156,1.0,91.0
16222,65.0,0,156,2.0,91.0
16223,36.0,240,156,5.0,91.0
16224,64.0,0,156,2.0,91.0
16225,67.0,240,156,1.0,91.0
16226,43.0,0,156,3.0,91.0
16227,69.0,0,156,1.0,92.0
16228,48.0,0,156,3.0,92.0
16229,65.0,240,156,2.0,92.0
16230,67.0,240,156,2.0,92.0
16231,35.0,0,156,5.0,92.0
16232,71.0,0,156,1.0,92.0
16233,72.0,0,156,1.0,92.0
16234,43.0,0,156,3.0,92.0
16235,69.0,240,156,2.0,92.0
16236,74.0,240,156,1.0,93.0
16237,47.0,0,156,3.0,93.0
16238,71.0,0,156,2.0,93.0
16239,76.0,240,156,2.0,104.0
16240,33.0,0,156,5.0,104.0
16241,79.0,0,156,2.0,104.0
16242,85.0,40,156,2.0,104.0
16243,88.0,40,156,1.0,104.0
16244,40.0,160,156,3.0,93.0
16245,61.0,0,156,2.0,94.0
16246,64.0,240,156,1.0,94.0
16247,45.0,0,156,3.0,94.0
16248,64.0,240,156,1.0,94.0
16249,33.0,0,156,5.0,94.0
16250,61.0,0,156,2.0,94.0
16251,40.0,0,156,3.0,94.0
16252,65.0,240,156,1.0,94.0
16253,62.0,0,156,2.0,94.0
16254,64.0,0,156,2.0,95.0
16255,67.0,240,156,1.0,95.0
16256,45.0,0,156,3.0,95.0
16257,65.0,0,156,2.0,95.0
16258,69.0,0,156,1.0,95.0
16259,33.0,240,156,5.0,95.0
16260,67.0,0,156,1.0,95.0
16261,40.0,240,156,3.0,95.0
16262,64.0,0,156,2.0,95.0
16263,45.0,240,156,3.0,109.0
16264,76.0,0,156,2.0,109.0
16265,85.0,0,156,2.0,110.0
16266,79.0,40,156,2.0,110.0
16267,88.0,40,156,1.0,111.0
16268,67.0,0,156,1.0,96.0
16269,33.0,0,156,5.0,96.0
16270,64.0,160,156,2.0,96.0
16271,65.0,240,156,2.0,96.0
16272,69.0,0,156,1.0,96.0
16273,40.0,0,156,3.0,96.0
16274,45.0,0,156,3.0,97.0
16275,71.0,240,156,1.0,97.0
16276,67.0,0,156,2.0,97.0
16277,73.0,0,156,1.0,97.0
16278,33.0,240,156,5.0,97.0
16279,69.0,0,156,2.0,97.0
16280,40.0,0,156,3.0,97.0
16281,67.0,0,156,2.0,97.0
16282,71.0,240,156,1.0,97.0
16283,45.0,240,156,3.0,98.0
16284,73.0,0,156,1.0,98.0
16285,69.0,0,156,2.0,98.0
16286,31.0,0,156,5.0,98.0
16287,74.0,0,156,1.0,98.0
16288,71.0,240,156,2.0,98.0
16289,76.0,240,156,1.0,99.0
16290,40.0,0,156,3.0,99.0
16291,73.0,0,156,2.0,99.0
16292,79.0,240,156,1.0,99.0
16293,43.0,0,156,3.0,99.0
16294,76.0,0,156,2.0,99.0
16295,29.0,240,156,5.0,110.0
16296,81.0,0,156,2.0,111.0
16297,84.0,40,156,2.0,111.0
16298,89.0,0,156,2.0,111.0
16299,93.0,40,156,1.0,111.0
16300,36.0,160,156,3.0,100.0
16301,41.0,240,156,3.0,100.0
16302,65.0,0,156,2.0,100.0
16303,69.0,0,156,1.0,100.0
16304,69.0,0,156,1.0,100.0
16305,65.0,240,156,2.0,100.0
16306,29.0,0,156,5.0,100.0
16307,36.0,240,156,3.0,101.0
16308,70.0,0,156,1.0,101.0
16309,67.0,0,156,2.0,101.0
16310,69.0,0,156,2.0,101.0
16311,41.0,0,156,3.0,101.0
16312,72.0,240,156,1.0,101.0
16313,29.0,240,156,5.0,101.0
16314,74.0,0,156,1.0,101.0
16315,70.0,0,156,2.0,101.0
16316,36.0,240,156,3.0,102.0
16317,72.0,0,156,1.0,102.0
16318,69.0,0,156,2.0,102.0
16319,41.0,0,156,3.0,114.0
16320,81.0,240,156,2.0,111.0
16321,89.0,40,156,2.0,111.0
16322,84.0,0,156,2.0,115.0
16323,93.0,40,156,1.0,115.0
16324,29.0,0,156,5.0,102.0
16325,81.0,0,156,1.0,102.0
16326,69.0,160,156,2.0,102.0
16327,36.0,240,156,3.0,103.0
16328,82.0,0,156,1.0,103.0
16329,70.0,0,156,2.0,103.0
16330,71.0,0,156,2.0,104.0
16331,41.0,240,156,3.0,104.0
16332,83.0,0,156,1.0,104.0
16333,29.0,240,156,5.0,106.0
16334,84.0,0,156,1.0,106.0
16335,72.0,0,156,2.0,106.0
16336,86.0,0,156,1.0,107.0
16337,74.0,240,156,2.0,107.0
16338,36.0,0,156,3.0,107.0
16339,88.0,0,156,1.0,108.0
16340,41.0,240,156,3.0,108.0
16341,76.0,0,156,2.0,108.0
16342,77.0,0,156,2.0,110.0
16343,89.0,240,156,1.0,110.0
16344,29.0,0,156,5.0,109.0
16345,36.0,0,156,3.0,110.0
16346,79.0,240,156,2.0,113.0
16347,91.0,0,156,1.0,113.0
16348,41.0,0,156,3.0,112.0
16349,80.0,240,156,2.0,116.0
16350,92.0,0,156,1.0,116.0
16351,30.0,0,1,5.0,122.0
16352,42.0,0,156,3.0,122.0
16353,87.0,0,156,2.0,122.0
16354,84.0,240,156,2.0,122.0
16355,93.0,0,156,1.0,122.0
16356,54.0,240,240,4.0,59.0
16357,54.0,240,240,4.0,61.0
16358,54.0,240,0,4.0,66.0
16359,54.0,0,0,4.0,68.0
16360,72.0,0,240,1.0,68.0
16361,69.0,240,240,2.0,68.0
16362,54.0,0,0,4.0,70.0
16363,54.0,240,0,4.0,67.0
16364,71.0,0,480,2.0,70.0
16365,74.0,240,480,1.0,70.0
16366,75.0,0,240,1.0,64.0
16367,72.0,240,240,2.0,64.0
16368,54.0,0,240,4.0,64.0
16369,54.0,240,240,4.0,61.0
16370,54.0,240,240,4.0,62.0
16371,54.0,240,240,4.0,64.0
16372,54.0,240,0,4.0,68.0
16373,54.0,0,0,4.0,70.0
16374,72.0,0,240,1.0,70.0
16375,69.0,240,240,2.0,70.0
16376,54.0,0,240,4.0,74.0
16377,54.0,240,240,4.0,69.0
16378,71.0,0,480,2.0,74.0
16379,42.0,0,1920,5.0,61.0
16380,74.0,240,480,1.0,74.0
16381,54.0,0,240,4.0,66.0
16382,75.0,0,240,1.0,66.0
16383,72.0,240,240,2.0,66.0
16384,54.0,240,0,4.0,68.0
16385,72.0,240,240,2.0,72.0
16386,69.0,0,240,2.0,72.0
16387,75.0,0,240,1.0,72.0
16388,54.0,240,0,4.0,76.0
16389,54.0,240,240,4.0,80.0
16390,70.0,120,240,2.0,82.0
16391,73.0,0,240,2.0,82.0
16392,76.0,0,240,1.0,82.0
16393,54.0,0,0,4.0,87.0
16394,82.0,240,240,1.0,87.0
16395,54.0,240,0,4.0,91.0
16396,76.0,0,240,2.0,87.0
16397,72.0,0,240,2.0,87.0
16398,54.0,120,0,4.0,95.0
16399,42.0,0,1920,5.0,65.0
16400,82.0,120,240,2.0,93.0
16401,76.0,0,240,2.0,93.0
16402,85.0,0,240,1.0,93.0
16403,82.0,0,240,2.0,101.0
16404,76.0,240,240,2.0,101.0
16405,88.0,0,240,1.0,101.0
16406,54.0,240,240,4.0,96.0
16407,85.0,120,240,1.0,94.0
16408,82.0,0,240,2.0,94.0
16409,76.0,0,240,2.0,94.0
16410,54.0,240,0,4.0,87.0
16411,54.0,240,0,4.0,83.0
16412,54.0,240,0,4.0,78.0
16413,73.0,0,0,2.0,74.0
16414,82.0,0,720,1.0,87.0
16415,76.0,0,720,2.0,87.0
16416,54.0,0,240,4.0,74.0
16417,30.0,0,1920,5.0,101.0
16418,42.0,0,1920,5.0,101.0
16419,54.0,240,240,4.0,70.0
16420,70.0,240,720,2.0,74.0
16421,54.0,240,240,4.0,65.0
16422,76.0,0,720,1.0,74.0
16423,54.0,0,240,4.0,63.0
16424,54.0,240,0,4.0,67.0
16425,75.0,0,720,1.0,63.0
16426,54.0,240,0,4.0,69.0
16427,71.0,240,720,2.0,63.0
16428,54.0,0,0,4.0,74.0
16429,73.0,0,240,1.0,74.0
16430,70.0,240,240,2.0,74.0
16431,54.0,0,240,4.0,78.0
16432,71.0,0,480,2.0,78.0
16433,42.0,0,1920,5.0,63.0
16434,75.0,240,480,1.0,78.0
16435,54.0,240,240,4.0,72.0
16436,54.0,0,240,4.0,69.0
16437,76.0,0,240,1.0,69.0
16438,73.0,240,240,2.0,69.0
16439,54.0,240,0,4.0,66.0
16440,54.0,240,0,4.0,68.0
16441,54.0,240,240,4.0,71.0
16442,54.0,240,240,4.0,73.0
16443,54.0,0,240,4.0,75.0
16444,70.0,240,240,2.0,75.0
16445,73.0,0,240,1.0,75.0
16446,54.0,240,0,4.0,75.0
16447,54.0,240,0,4.0,72.0
16448,42.0,0,1920,5.0,64.0
16449,75.0,0,480,1.0,78.0
16450,71.0,0,480,2.0,78.0
16451,73.0,0,240,2.0,72.0
16452,76.0,0,240,1.0,72.0
16453,55.0,240,240,4.0,67.0
16454,55.0,240,0,4.0,76.0
16455,76.0,0,240,1.0,79.0
16456,70.0,0,240,2.0,79.0
16457,55.0,240,0,4.0,80.0
16458,73.0,0,240,2.0,79.0
16459,55.0,120,0,4.0,89.0
16460,77.0,120,240,1.0,91.0
16461,74.0,0,240,2.0,91.0
16462,71.0,0,240,2.0,91.0
16463,55.0,0,0,4.0,94.0
16464,74.0,240,240,2.0,98.0
16465,83.0,0,240,1.0,98.0
16466,77.0,0,240,2.0,98.0
16467,55.0,120,0,4.0,103.0
16468,43.0,0,1920,5.0,67.0
16469,83.0,0,240,2.0,106.0
16470,77.0,0,240,2.0,106.0
16471,86.0,120,240,1.0,106.0
16472,89.0,0,240,1.0,115.0
16473,77.0,0,240,2.0,115.0
16474,83.0,0,240,2.0,115.0
16475,55.0,120,0,4.0,98.0
16476,86.0,0,240,1.0,108.0
16477,77.0,120,240,2.0,108.0
16478,83.0,0,240,2.0,108.0
16479,55.0,240,0,4.0,95.0
16480,55.0,240,0,4.0,91.0
16481,55.0,240,0,4.0,87.0
16482,83.0,0,720,1.0,101.0
16483,55.0,240,0,4.0,83.0
16484,74.0,0,720,2.0,101.0
16485,77.0,0,720,2.0,101.0
16486,55.0,240,0,4.0,80.0
16487,31.0,0,1920,5.0,107.0
16488,43.0,240,1920,5.0,107.0
16489,55.0,240,240,4.0,76.0
16490,74.0,0,720,2.0,87.0
16491,77.0,0,720,1.0,87.0
16492,71.0,0,720,2.0,87.0
16493,48.0,240,240,5.0,72.0
16494,72.0,0,240,2.0,73.0
16495,76.0,0,240,1.0,73.0
16496,36.0,720,240,5.0,82.0
16497,40.0,240,240,3.0,73.0
16498,44.0,240,240,3.0,74.0
16499,68.0,0,720,2.0,82.0
16500,69.0,0,240,2.0,74.0
16501,72.0,0,960,2.0,82.0
16502,76.0,0,960,1.0,82.0
16503,45.0,240,240,3.0,74.0
16504,64.0,0,960,2.0,82.0
16505,47.0,240,240,3.0,75.0
16506,45.0,240,192,3.0,75.0
16507,36.0,240,240,5.0,86.0
16508,40.0,240,240,3.0,76.0
16509,68.0,0,720,2.0,86.0
16510,44.0,240,240,3.0,77.0
16511,69.0,240,240,2.0,77.0
16512,72.0,0,960,2.0,86.0
16513,64.0,0,960,2.0,86.0
16514,76.0,0,960,1.0,86.0
16515,45.0,0,240,3.0,77.0
16516,47.0,240,240,3.0,78.0
16517,45.0,240,192,3.0,78.0
16518,36.0,240,240,5.0,89.0
16519,40.0,240,240,3.0,79.0
16520,44.0,240,240,3.0,80.0
16521,68.0,0,720,2.0,89.0
16522,72.0,0,960,2.0,89.0
16523,45.0,240,240,3.0,80.0
16524,64.0,0,960,2.0,89.0
16525,69.0,0,240,2.0,80.0
16526,76.0,0,960,1.0,89.0
16527,47.0,240,240,3.0,81.0
16528,45.0,240,192,3.0,81.0
16529,36.0,0,240,5.0,95.0
16530,40.0,240,240,3.0,82.0
16531,44.0,240,120,3.0,83.0
16532,68.0,0,615,2.0,95.0
16533,72.0,240,622,2.0,95.0
16534,76.0,0,630,1.0,95.0
16535,64.0,0,630,2.0,95.0
16536,81.0,40,40,1.0,96.0
16537,45.0,40,240,5.0,98.0
16538,48.0,240,240,3.0,91.0
16539,79.0,0,720,1.0,96.0
16540,72.0,240,0,2.0,93.0
16541,57.0,240,240,3.0,90.0
16542,65.0,120,845,2.0,96.0
16543,43.0,0,240,5.0,90.0
16544,48.0,240,240,3.0,89.0
16545,64.0,0,720,2.0,93.0
16546,55.0,240,240,3.0,88.0
16547,76.0,0,720,1.0,93.0
16548,41.0,0,240,5.0,88.0
16549,48.0,240,240,3.0,87.0
16550,53.0,240,240,3.0,86.0
16551,62.0,0,0,2.0,89.0
16552,74.0,0,720,1.0,91.0
16553,69.0,0,0,2.0,89.0
16554,42.0,0,240,5.0,86.0
16555,50.0,240,240,3.0,85.0
16556,60.0,240,720,2.0,89.0
16557,72.0,0,720,1.0,89.0
16558,54.0,240,240,3.0,84.0
16559,43.0,0,240,5.0,84.0
16560,50.0,240,240,3.0,83.0
16561,62.0,0,720,2.0,86.0
16562,59.0,0,720,2.0,86.0
16563,55.0,240,240,3.0,82.0
16564,67.0,240,720,1.0,86.0
16565,41.0,240,240,5.0,82.0
16566,43.0,240,240,3.0,81.0
16567,62.0,0,720,2.0,84.0
16568,53.0,240,240,3.0,80.0
16569,59.0,0,720,2.0,84.0
16570,69.0,0,720,1.0,84.0
16571,40.0,240,240,5.0,80.0
16572,43.0,240,240,3.0,79.0
16573,52.0,240,240,3.0,78.0
16574,64.0,0,720,2.0,81.0
16575,60.0,0,720,2.0,81.0
16576,67.0,0,720,1.0,81.0
16577,38.0,0,240,5.0,78.0
16578,43.0,240,240,3.0,77.0
16579,59.0,240,720,2.0,79.0
16580,55.0,0,720,2.0,79.0
16581,65.0,0,720,1.0,79.0
16582,50.0,240,240,3.0,77.0
16583,60.0,240,240,2.0,76.0
16584,48.0,0,240,5.0,76.0
16585,64.0,0,240,1.0,76.0
16586,36.0,720,240,5.0,85.0
16587,40.0,240,240,3.0,76.0
16588,44.0,240,240,3.0,77.0
16589,68.0,0,720,2.0,85.0
16590,76.0,0,960,1.0,85.0
16591,45.0,240,240,3.0,77.0
16592,69.0,0,240,2.0,77.0
16593,72.0,0,960,2.0,85.0
16594,64.0,0,960,2.0,85.0
16595,47.0,240,240,3.0,78.0
16596,45.0,240,192,3.0,79.0
16597,36.0,0,240,5.0,88.0
16598,40.0,240,240,3.0,80.0
16599,44.0,240,240,3.0,81.0
16600,68.0,0,720,2.0,88.0
16601,69.0,240,240,2.0,81.0
16602,45.0,0,240,3.0,81.0
16603,64.0,240,960,2.0,88.0
16604,76.0,0,960,1.0,88.0
16605,72.0,0,960,2.0,88.0
16606,47.0,240,240,3.0,82.0
16607,45.0,240,192,3.0,83.0
16608,36.0,0,240,5.0,90.0
16609,40.0,240,240,3.0,84.0
16610,44.0,240,240,3.0,85.0
16611,68.0,0,720,2.0,90.0
16612,76.0,0,960,1.0,90.0
16613,45.0,0,240,3.0,85.0
16614,69.0,240,240,2.0,85.0
16615,64.0,240,960,2.0,90.0
16616,72.0,0,960,2.0,90.0
16617,47.0,240,240,3.0,86.0
16618,45.0,240,192,3.0,87.0
16619,36.0,240,240,5.0,95.0
16620,40.0,240,240,3.0,88.0
16621,64.0,0,592,2.0,95.0
16622,44.0,240,120,3.0,89.0
16623,68.0,0,622,2.0,95.0
16624,76.0,0,622,1.0,95.0
16625,72.0,0,630,2.0,95.0
16626,83.0,40,40,1.0,98.0
16627,45.0,40,240,5.0,98.0
16628,48.0,240,240,3.0,95.0
16629,72.0,40,800,2.0,97.0
16630,57.0,240,240,3.0,94.0
16631,79.0,0,720,1.0,98.0
16632,65.0,120,847,2.0,97.0
16633,43.0,0,240,5.0,93.0
16634,48.0,240,240,3.0,93.0
16635,64.0,0,720,2.0,95.0
16636,72.0,240,720,2.0,95.0
16637,55.0,240,240,3.0,92.0
16638,76.0,0,720,1.0,95.0
16639,41.0,0,240,5.0,91.0
16640,48.0,240,240,3.0,90.0
16641,74.0,240,720,1.0,93.0
16642,53.0,240,240,3.0,90.0
16643,69.0,0,720,2.0,93.0
16644,62.0,0,720,2.0,93.0
16645,42.0,240,240,5.0,89.0
16646,50.0,240,240,3.0,88.0
16647,62.0,0,0,2.0,88.0
16648,60.0,0,720,2.0,91.0
16649,69.0,0,720,2.0,91.0
16650,72.0,0,720,1.0,91.0
16651,54.0,240,240,3.0,87.0
16652,43.0,0,240,5.0,87.0
16653,50.0,240,240,3.0,86.0
16654,67.0,240,720,2.0,88.0
16655,71.0,0,720,1.0,88.0
16656,55.0,240,240,3.0,85.0
16657,41.0,0,240,5.0,84.0
16658,43.0,240,240,3.0,84.0
16659,81.0,0,720,1.0,86.0
16660,53.0,240,240,3.0,83.0
16661,71.0,240,720,2.0,86.0
16662,69.0,0,720,2.0,86.0
16663,40.0,240,240,5.0,82.0
16664,43.0,240,240,3.0,81.0
16665,52.0,240,240,3.0,81.0
16666,79.0,0,720,1.0,83.0
16667,72.0,0,720,2.0,83.0
16668,67.0,0,720,2.0,83.0
16669,38.0,0,240,5.0,80.0
16670,43.0,240,240,3.0,79.0
16671,77.0,0,720,1.0,81.0
16672,50.0,240,240,3.0,78.0
16673,65.0,240,720,2.0,81.0
16674,71.0,0,720,2.0,81.0
16675,36.0,0,240,5.0,78.0
16676,43.0,240,240,3.0,77.0
16677,48.0,240,240,3.0,76.0
16678,76.0,240,720,1.0,78.0
16679,72.0,0,720,2.0,78.0
16680,64.0,0,720,2.0,78.0
16681,40.0,240,240,5.0,76.0
16682,48.0,240,240,3.0,75.0
16683,67.0,0,655,2.0,76.0
16684,52.0,240,175,3.0,74.0
16685,70.0,0,655,2.0,76.0
16686,79.0,0,660,1.0,76.0
16687,65.0,180,300,2.0,74.0
16688,41.0,60,240,5.0,72.0
16689,77.0,0,305,1.0,74.0
16690,48.0,240,240,3.0,74.0
16691,64.0,120,240,2.0,75.0
16692,76.0,0,240,1.0,75.0
16693,53.0,120,240,3.0,76.0
16694,77.0,240,240,1.0,77.0
16695,65.0,0,240,2.0,77.0
16696,41.0,0,240,5.0,77.0
16697,48.0,240,240,3.0,79.0
16698,76.0,120,240,1.0,80.0
16699,64.0,0,240,2.0,80.0
16700,53.0,120,240,3.0,81.0
16701,69.0,0,240,2.0,82.0
16702,74.0,0,240,1.0,82.0
16703,64.0,240,240,2.0,82.0
16704,42.0,240,240,5.0,84.0
16705,54.0,120,0,5.0,86.0
16706,72.0,120,240,1.0,85.0
16707,69.0,0,240,2.0,85.0
16708,64.0,0,240,2.0,85.0
16709,42.0,240,240,5.0,87.0
16710,69.0,0,240,2.0,87.0
16711,64.0,0,240,2.0,87.0
16712,54.0,240,0,5.0,89.0
16713,71.0,0,240,1.0,87.0
16714,72.0,120,240,1.0,90.0
16715,69.0,0,240,2.0,90.0
16716,64.0,0,240,2.0,90.0
16717,42.0,120,240,5.0,90.0
16718,76.0,240,1207,1.0,96.0
16719,65.0,0,1440,2.0,96.0
16720,43.0,0,1440,5.0,96.0
16721,74.0,1200,240,1.0,85.0
16722,64.0,0,240,2.0,83.0
16723,72.0,240,240,1.0,83.0
16724,48.0,0,240,5.0,84.0
16725,55.0,0,1680,5.0,96.0
16726,41.0,0,240,5.0,90.0
16727,45.0,240,240,3.0,81.0
16728,49.0,240,240,3.0,82.0
16729,73.0,720,720,2.0,90.0
16730,74.0,0,240,2.0,82.0
16731,50.0,240,240,3.0,82.0
16732,77.0,0,960,2.0,90.0
16733,69.0,0,960,2.0,90.0
16734,81.0,0,960,1.0,90.0
16735,52.0,240,240,3.0,83.0
16736,50.0,240,192,3.0,84.0
16737,41.0,0,240,5.0,94.0
16738,45.0,240,240,3.0,85.0
16739,73.0,0,720,2.0,94.0
16740,49.0,240,240,3.0,85.0
16741,74.0,240,240,2.0,86.0
16742,50.0,0,240,3.0,86.0
16743,69.0,0,960,2.0,94.0
16744,77.0,0,960,2.0,94.0
16745,81.0,240,960,1.0,94.0
16746,52.0,240,240,3.0,87.0
16747,50.0,240,192,3.0,87.0
16748,41.0,0,240,5.0,96.0
16749,45.0,240,240,3.0,88.0
16750,73.0,0,720,2.0,96.0
16751,49.0,240,240,3.0,89.0
16752,77.0,0,960,2.0,96.0
16753,81.0,0,960,1.0,96.0
16754,50.0,0,240,3.0,89.0
16755,74.0,240,240,2.0,89.0
16756,69.0,240,960,2.0,96.0
16757,52.0,240,240,3.0,90.0
16758,50.0,240,192,3.0,91.0
16759,41.0,0,240,5.0,98.0
16760,45.0,240,240,3.0,92.0
16761,73.0,0,595,2.0,98.0
16762,77.0,0,595,2.0,98.0
16763,81.0,240,600,1.0,98.0
16764,69.0,0,600,2.0,98.0
16765,49.0,240,160,3.0,92.0
16766,84.0,40,40,1.0,103.0
16767,50.0,40,240,5.0,103.0
16768,53.0,240,240,3.0,99.0
16769,70.0,120,830,2.0,102.0
16770,77.0,40,795,2.0,102.0
16771,82.0,0,720,1.0,103.0
16772,62.0,240,240,2.0,100.0
16773,48.0,0,240,5.0,98.0
16774,53.0,240,240,3.0,97.0
16775,60.0,240,240,3.0,97.0
16776,77.0,0,720,2.0,100.0
16777,69.0,240,720,2.0,100.0
16778,81.0,0,720,1.0,100.0
16779,46.0,0,240,5.0,96.0
16780,53.0,240,240,3.0,96.0
16781,79.0,0,720,1.0,98.0
16782,74.0,0,0,2.0,96.0
16783,67.0,0,0,2.0,96.0
16784,58.0,240,240,3.0,95.0
16785,47.0,0,240,5.0,95.0
16786,53.0,240,240,3.0,94.0
16787,77.0,240,720,1.0,96.0
16788,59.0,240,240,3.0,94.0
16789,67.0,0,0,2.0,94.0
16790,48.0,0,240,5.0,93.0
16791,55.0,240,240,3.0,92.0
16792,60.0,240,240,3.0,92.0
16793,67.0,0,0,2.0,92.0
16794,72.0,240,720,2.0,94.0
16795,76.0,0,720,1.0,94.0
16796,48.0,240,240,5.0,91.0
16797,53.0,240,240,3.0,91.0
16798,74.0,0,720,1.0,92.0
16799,59.0,240,240,3.0,90.0
16800,67.0,0,0,2.0,90.0
16801,65.0,0,720,2.0,92.0
16802,48.0,0,240,5.0,90.0
16803,52.0,240,240,3.0,89.0
16804,72.0,240,720,1.0,90.0
16805,64.0,0,720,2.0,90.0
16806,60.0,240,240,3.0,89.0
16807,48.0,0,240,5.0,88.0
16808,55.0,240,240,3.0,88.0
16809,60.0,240,240,3.0,87.0
16810,67.0,0,720,2.0,88.0
16811,64.0,0,720,2.0,88.0
16812,70.0,240,720,1.0,88.0
16813,69.0,0,240,1.0,86.0
16814,65.0,0,240,2.0,86.0
16815,53.0,240,240,5.0,86.0
16816,41.0,0,240,5.0,98.0
16817,45.0,240,240,3.0,89.0
16818,49.0,240,240,3.0,89.0
16819,73.0,0,720,2.0,98.0
16820,77.0,0,960,2.0,98.0
16821,69.0,0,960,2.0,98.0
16822,50.0,240,240,3.0,90.0
16823,81.0,720,960,1.0,98.0
16824,74.0,0,240,2.0,90.0
16825,52.0,240,240,3.0,90.0
16826,50.0,240,192,3.0,90.0
16827,37.0,0,240,5.0,99.0
16828,40.0,240,240,3.0,91.0
16829,45.0,240,240,3.0,92.0
16830,76.0,0,720,2.0,99.0
16831,81.0,240,960,1.0,99.0
16832,69.0,0,960,2.0,99.0
16833,77.0,0,240,2.0,92.0
16834,38.0,240,240,3.0,92.0
16835,41.0,240,240,3.0,92.0
16836,45.0,240,192,3.0,93.0
16837,45.0,0,240,5.0,102.0
16838,48.0,240,240,3.0,94.0
16839,52.0,240,240,3.0,94.0
16840,76.0,0,720,2.0,102.0
16841,84.0,0,960,1.0,102.0
16842,77.0,240,240,2.0,94.0
16843,53.0,0,240,3.0,94.0
16844,72.0,240,960,2.0,102.0
16845,55.0,240,240,3.0,95.0
16846,53.0,240,192,3.0,95.0
16847,40.0,0,240,5.0,106.0
16848,44.0,240,240,3.0,96.0
16849,48.0,240,240,3.0,96.0
16850,80.0,0,720,2.0,106.0
16851,72.0,0,960,2.0,106.0
16852,81.0,0,240,2.0,97.0
16853,41.0,240,240,3.0,97.0
16854,84.0,240,960,1.0,106.0
16855,45.0,240,240,3.0,97.0
16856,48.0,240,192,3.0,98.0
16857,44.0,0,240,5.0,109.0
16858,48.0,240,240,3.0,98.0
16859,52.0,240,120,3.0,99.0
16860,84.0,0,600,2.0,109.0
16861,88.0,0,605,1.0,109.0
16862,76.0,240,610,2.0,109.0
16863,91.0,40,40,1.0,109.0
16864,45.0,40,240,5.0,110.0
16865,48.0,240,240,3.0,103.0
16866,84.0,40,785,2.0,109.0
16867,77.0,120,835,2.0,108.0
16868,89.0,0,720,1.0,110.0
16869,57.0,240,240,3.0,102.0
16870,43.0,240,240,5.0,101.0
16871,48.0,240,240,3.0,100.0
16872,76.0,0,720,2.0,103.0
16873,84.0,0,720,2.0,103.0
16874,55.0,240,240,3.0,99.0
16875,88.0,0,720,1.0,103.0
16876,41.0,0,240,5.0,98.0
16877,48.0,240,240,3.0,97.0
16878,74.0,0,720,2.0,99.0
16879,53.0,240,240,3.0,96.0
16880,86.0,240,720,1.0,99.0
16881,42.0,0,240,5.0,95.0
16882,50.0,240,240,3.0,94.0
16883,54.0,240,240,3.0,93.0
16884,74.0,0,720,2.0,96.0
16885,72.0,0,720,2.0,96.0
16886,84.0,240,720,1.0,96.0
16887,43.0,0,240,5.0,92.0
16888,50.0,240,240,3.0,92.0
16889,74.0,0,630,2.0,92.0
16890,79.0,0,635,2.0,92.0
16891,71.0,0,640,2.0,92.0
16892,83.0,240,640,1.0,92.0
16893,55.0,240,165,3.0,94.0
16894,41.0,40,240,5.0,95.0
16895,43.0,240,240,3.0,97.0
16896,83.0,40,750,2.0,95.0
16897,81.0,160,790,2.0,95.0
16898,53.0,240,240,3.0,99.0
16899,93.0,0,720,1.0,95.0
16900,40.0,240,240,5.0,104.0
16901,43.0,240,240,3.0,100.0
16902,52.0,240,240,3.0,99.0
16903,91.0,0,720,1.0,104.0
16904,84.0,0,720,2.0,104.0
16905,79.0,0,720,2.0,104.0
16906,38.0,0,240,5.0,98.0
16907,43.0,240,240,3.0,97.0
16908,50.0,240,240,3.0,96.0
16909,83.0,0,720,2.0,98.0
16910,77.0,0,720,2.0,98.0
16911,89.0,240,720,1.0,98.0
16912,36.0,240,240,5.0,96.0
16913,43.0,240,240,3.0,95.0
16914,88.0,0,720,1.0,96.0
16915,76.0,0,720,2.0,96.0
16916,84.0,0,720,2.0,96.0
16917,48.0,240,240,3.0,94.0
16918,40.0,0,240,5.0,93.0
16919,48.0,240,240,3.0,92.0
16920,79.0,0,635,2.0,93.0
16921,82.0,0,650,2.0,93.0
16922,91.0,240,655,1.0,93.0
16923,52.0,240,240,3.0,91.0
16924,41.0,60,240,5.0,92.0
16925,89.0,180,305,1.0,90.0
16926,77.0,0,305,2.0,90.0
16927,48.0,240,240,3.0,93.0
16928,88.0,120,240,1.0,92.0
16929,79.0,0,240,2.0,92.0
16930,76.0,0,240,2.0,92.0
16931,53.0,120,240,3.0,94.0
16932,41.0,240,240,5.0,95.0
16933,89.0,0,240,1.0,94.0
16934,77.0,0,240,2.0,94.0
16935,48.0,240,240,3.0,96.0
16936,86.0,120,240,1.0,96.0
16937,74.0,0,240,2.0,96.0
16938,53.0,120,240,3.0,97.0
16939,76.0,0,240,2.0,99.0
16940,74.0,0,240,2.0,99.0
16941,86.0,0,240,1.0,99.0
16942,43.0,240,240,5.0,99.0
16943,54.0,120,0,5.0,100.0
16944,84.0,0,240,1.0,101.0
16945,72.0,120,240,2.0,101.0
16946,76.0,0,240,2.0,101.0
16947,71.0,0,240,2.0,103.0
16948,76.0,0,240,2.0,103.0
16949,43.0,240,240,5.0,101.0
16950,83.0,0,240,1.0,103.0
16951,54.0,240,0,5.0,102.0
16952,43.0,120,115,5.0,103.0
16953,84.0,0,240,1.0,105.0
16954,76.0,0,240,2.0,105.0
16955,72.0,120,240,2.0,105.0
16956,76.0,0,1175,2.0,111.0
16957,88.0,0,1200,1.0,111.0
16958,71.0,0,1355,2.0,111.0
16959,74.0,0,155,2.0,98.0
16960,65.0,0,1360,2.0,111.0
16961,83.0,60,1360,2.0,111.0
16962,86.0,1200,160,1.0,98.0
16963,77.0,0,1360,2.0,111.0
16964,43.0,120,1480,5.0,105.0
16965,55.0,60,1425,4.0,107.0
16966,72.0,0,240,2.0,96.0
16967,64.0,40,240,4.0,96.0
16968,60.0,0,240,4.0,96.0
16969,79.0,0,240,2.0,96.0
16970,76.0,0,240,2.0,96.0
16971,84.0,0,240,1.0,96.0
16972,55.0,40,280,4.0,96.0
16973,48.0,160,320,5.0,96.0
16974,84.0,0,240,2.0,94.0
16975,88.0,0,240,1.0,94.0
16976,54.0,0,240,5.0,94.0
16977,76.0,720,240,2.0,94.0
16978,52.0,240,240,5.0,95.0
16979,54.0,240,240,5.0,95.0
16980,55.0,0,240,5.0,95.0
16981,74.0,0,240,2.0,95.0
16982,83.0,240,240,2.0,95.0
16983,86.0,0,240,1.0,95.0
16984,50.0,240,240,5.0,95.0
16985,43.0,240,240,5.0,96.0
16986,76.0,240,240,2.0,96.0
16987,88.0,0,240,1.0,96.0
16988,54.0,0,240,5.0,96.0
16989,84.0,0,240,2.0,96.0
16990,52.0,240,240,5.0,96.0
16991,54.0,240,240,5.0,97.0
16992,74.0,0,240,2.0,97.0
16993,83.0,240,240,2.0,97.0
16994,55.0,0,240,5.0,97.0
16995,86.0,0,240,1.0,97.0
16996,50.0,240,240,5.0,97.0
16997,43.0,240,240,5.0,97.0
16998,67.0,240,240,4.0,98.0
16999,59.0,0,240,4.0,98.0
17000,55.0,0,240,5.0,98.0
17001,83.0,0,240,2.0,98.0
17002,95.0,0,240,1.0,98.0
17003,65.0,0,240,4.0,98.0
17004,93.0,240,240,1.0,98.0
17005,95.0,240,240,1.0,98.0
17006,84.0,240,240,2.0,99.0
17007,96.0,0,240,1.0,99.0
17008,48.0,0,240,5.0,99.0
17009,55.0,40,240,4.0,99.0
17010,60.0,0,240,4.0,99.0
17011,64.0,40,240,4.0,99.0
17012,91.0,160,240,1.0,99.0
17013,88.0,240,240,1.0,99.0
17014,95.0,0,240,1.0,100.0
17015,55.0,240,240,5.0,100.0
17016,83.0,0,240,2.0,100.0
17017,59.0,40,240,4.0,100.0
17018,65.0,40,240,4.0,100.0
17019,67.0,0,240,4.0,100.0
17020,93.0,160,240,1.0,100.0
17021,95.0,240,240,1.0,100.0
17022,48.0,0,240,5.0,100.0
17023,84.0,240,240,2.0,100.0
17024,96.0,0,240,1.0,100.0
17025,55.0,40,240,4.0,100.0
17026,64.0,40,240,4.0,100.0
17027,60.0,0,240,4.0,100.0
17028,91.0,160,240,1.0,101.0
17029,88.0,0,0,1.0,101.0
17030,54.0,0,240,5.0,101.0
17031,76.0,0,240,2.0,101.0
17032,84.0,240,240,2.0,101.0
17033,52.0,240,240,5.0,102.0
17034,54.0,240,240,5.0,102.0
17035,83.0,0,240,2.0,102.0
17036,74.0,0,240,2.0,102.0
17037,86.0,240,240,1.0,102.0
17038,55.0,0,240,5.0,102.0
17039,50.0,240,240,5.0,102.0
17040,43.0,240,240,5.0,103.0
17041,54.0,240,240,5.0,103.0
17042,88.0,0,240,1.0,103.0
17043,76.0,0,240,2.0,103.0
17044,84.0,0,240,2.0,103.0
17045,52.0,240,240,5.0,103.0
17046,54.0,240,240,5.0,104.0
17047,74.0,240,240,2.0,104.0
17048,86.0,0,240,1.0,104.0
17049,55.0,0,240,5.0,104.0
17050,50.0,240,240,5.0,104.0
17051,43.0,240,240,5.0,105.0
17052,67.0,240,240,4.0,105.0
17053,55.0,0,240,5.0,105.0
17054,95.0,0,240,1.0,105.0
17055,59.0,0,240,4.0,105.0
17056,65.0,0,240,4.0,105.0
17057,83.0,0,240,2.0,105.0
17058,93.0,240,156,1.0,105.0
17059,95.0,240,156,1.0,105.0
17060,96.0,0,156,1.0,106.0
17061,84.0,240,156,2.0,106.0
17062,48.0,0,240,5.0,106.0
17063,55.0,40,240,4.0,106.0
17064,64.0,40,240,4.0,106.0
17065,60.0,0,240,4.0,106.0
17066,91.0,160,156,1.0,106.0
17067,88.0,240,156,1.0,106.0
17068,83.0,240,156,2.0,107.0
17069,95.0,0,156,1.0,107.0
17070,55.0,0,240,5.0,107.0
17071,59.0,40,240,4.0,107.0
17072,67.0,40,240,4.0,107.0
17073,65.0,0,240,4.0,107.0
17074,93.0,160,156,1.0,107.0
17075,95.0,240,156,1.0,107.0
17076,84.0,0,156,2.0,107.0
17077,96.0,240,156,1.0,107.0
17078,48.0,0,240,5.0,107.0
17079,55.0,40,240,4.0,107.0
17080,60.0,0,240,4.0,107.0
17081,64.0,40,240,4.0,107.0
17082,91.0,160,156,2.0,108.0
17083,88.0,240,156,2.0,108.0
17084,100.0,240,156,1.0,108.0
17085,88.0,0,156,2.0,108.0
17086,45.0,0,240,5.0,108.0
17087,48.0,40,240,4.0,108.0
17088,52.0,40,240,4.0,108.0
17089,60.0,0,240,4.0,108.0
17090,96.0,160,156,2.0,109.0
17091,93.0,240,156,2.0,109.0
17092,103.0,0,156,1.0,109.0
17093,91.0,0,156,2.0,109.0
17094,43.0,240,240,5.0,109.0
17095,55.0,0,240,5.0,109.0
17096,100.0,240,156,2.0,110.0
17097,48.0,0,240,4.0,110.0
17098,96.0,240,156,2.0,110.0
17099,52.0,0,240,4.0,110.0
17100,100.0,240,156,1.0,110.0
17101,88.0,0,156,2.0,110.0
17102,48.0,0,240,5.0,110.0
17103,60.0,0,240,5.0,110.0
17104,96.0,0,156,2.0,110.0
17105,52.0,240,240,4.0,110.0
17106,91.0,240,156,2.0,110.0
17107,55.0,0,240,4.0,110.0
17108,96.0,0,156,1.0,110.0
17109,84.0,0,156,2.0,110.0
17110,64.0,0,240,5.0,110.0
17111,52.0,240,240,5.0,110.0
17112,91.0,240,156,2.0,110.0
17113,55.0,0,240,4.0,110.0
17114,88.0,0,156,2.0,110.0
17115,60.0,240,240,4.0,110.0
17116,91.0,0,156,1.0,110.0
17117,79.0,0,156,2.0,110.0
17118,67.0,240,240,5.0,110.0
17119,55.0,0,240,5.0,110.0
17120,88.0,0,156,2.0,111.0
17121,60.0,240,240,4.0,111.0
17122,84.0,240,156,2.0,111.0
17123,64.0,0,240,4.0,111.0
17124,79.0,240,240,1.0,113.0
17125,67.0,0,240,5.0,113.0
17126,91.0,0,240,1.0,114.0
17127,79.0,720,240,2.0,114.0
17128,84.0,0,240,2.0,114.0
17129,88.0,0,240,2.0,114.0
17130,43.0,640,240,5.0,112.0
17131,47.0,40,240,4.0,112.0
17132,50.0,40,240,4.0,112.0
17133,53.0,0,240,4.0,112.0
17134,55.0,0,240,4.0,112.0
17135,95.0,0,240,1.0,110.0
17136,86.0,720,240,2.0,110.0
17137,96.0,0,240,1.0,102.0
17138,88.0,0,240,2.0,102.0
17139,84.0,720,240,2.0,102.0
17140,36.0,0,240,5.0,102.0
17141,43.0,240,240,3.0,90.0
17142,64.0,0,156,1.0,92.0
17143,60.0,0,156,2.0,92.0
17144,48.0,240,240,3.0,92.0
17145,60.0,0,240,2.0,93.0
17146,64.0,240,240,1.0,93.0
17147,36.0,0,240,5.0,93.0
17148,65.0,0,240,1.0,95.0
17149,43.0,240,240,3.0,95.0
17150,62.0,0,240,2.0,95.0
17151,67.0,0,240,1.0,96.0
17152,64.0,240,240,2.0,96.0
17153,48.0,0,240,3.0,96.0
17154,69.0,0,240,1.0,98.0
17155,36.0,0,240,5.0,98.0
17156,65.0,240,240,2.0,98.0
17157,67.0,240,240,1.0,99.0
17158,64.0,0,240,2.0,99.0
17159,43.0,0,240,3.0,99.0
17160,65.0,240,240,2.0,101.0
17161,69.0,0,240,1.0,101.0
17162,48.0,0,240,3.0,101.0
17163,36.0,0,240,5.0,102.0
17164,71.0,0,240,1.0,102.0
17165,67.0,240,240,2.0,102.0
17166,69.0,0,240,2.0,104.0
17167,72.0,0,240,1.0,104.0
17168,43.0,240,240,3.0,104.0
17169,74.0,0,240,1.0,105.0
17170,71.0,240,240,2.0,105.0
17171,48.0,0,240,3.0,105.0
17172,84.0,0,156,2.0,114.0
17173,76.0,0,156,2.0,114.0
17174,88.0,0,156,1.0,114.0
17175,36.0,240,240,5.0,114.0
17176,43.0,240,240,3.0,96.0
17177,64.0,240,156,2.0,98.0
17178,67.0,0,156,1.0,98.0
17179,48.0,0,240,3.0,98.0
17180,67.0,0,240,1.0,99.0
17181,36.0,240,240,5.0,99.0
17182,64.0,0,240,2.0,99.0
17183,65.0,0,240,2.0,101.0
17184,43.0,0,240,3.0,101.0
17185,69.0,240,240,1.0,101.0
17186,48.0,0,240,3.0,102.0
17187,71.0,240,240,1.0,102.0
17188,67.0,0,240,2.0,102.0
17189,69.0,0,240,2.0,104.0
17190,72.0,240,240,1.0,104.0
17191,36.0,0,240,5.0,104.0
17192,71.0,240,240,1.0,105.0
17193,43.0,0,240,3.0,105.0
17194,67.0,0,240,2.0,105.0
17195,48.0,240,240,3.0,107.0
17196,69.0,0,240,2.0,107.0
17197,72.0,0,240,1.0,107.0
17198,36.0,0,240,5.0,108.0
17199,74.0,0,240,1.0,108.0
17200,71.0,240,240,2.0,108.0
17201,76.0,240,240,1.0,110.0
17202,72.0,0,240,2.0,110.0
17203,43.0,0,240,3.0,110.0
17204,48.0,0,240,3.0,111.0
17205,77.0,0,240,1.0,111.0
17206,74.0,240,240,2.0,111.0
17207,67.0,0,156,2.0,121.0
17208,79.0,0,156,1.0,121.0
17209,76.0,0,156,2.0,121.0
17210,36.0,240,240,5.0,121.0
17211,43.0,240,240,3.0,102.0
17212,71.0,240,156,2.0,103.0
17213,86.0,0,156,1.0,103.0
17214,83.0,0,156,2.0,103.0
17215,48.0,0,240,3.0,103.0
17216,86.0,0,156,1.0,105.0
17217,83.0,0,156,2.0,105.0
17218,71.0,0,156,2.0,105.0
17219,36.0,240,240,5.0,105.0
17220,72.0,0,156,2.0,106.0
17221,88.0,0,156,1.0,106.0
17222,84.0,0,156,2.0,106.0
17223,43.0,240,240,3.0,106.0
17224,89.0,240,156,1.0,107.0
17225,86.0,0,156,2.0,107.0
17226,74.0,0,156,2.0,107.0
17227,48.0,0,240,3.0,107.0
17228,76.0,0,156,2.0,108.0
17229,91.0,0,156,1.0,108.0
17230,88.0,0,156,2.0,108.0
17231,36.0,240,240,5.0,108.0
17232,74.0,0,156,2.0,109.0
17233,86.0,240,156,2.0,109.0
17234,89.0,0,156,1.0,109.0
17235,43.0,0,240,3.0,109.0
17236,91.0,240,156,1.0,110.0
17237,88.0,0,156,2.0,110.0
17238,76.0,0,156,2.0,110.0
17239,48.0,0,240,3.0,110.0
17240,89.0,0,156,2.0,111.0
17241,77.0,240,156,2.0,111.0
17242,93.0,0,156,1.0,111.0
17243,36.0,0,240,5.0,111.0
17244,79.0,0,156,2.0,112.0
17245,95.0,0,156,1.0,112.0
17246,91.0,0,156,2.0,112.0
17247,43.0,240,240,3.0,112.0
17248,93.0,0,156,2.0,114.0
17249,96.0,240,156,1.0,114.0
17250,81.0,0,156,2.0,114.0
17251,48.0,0,240,3.0,114.0
17252,83.0,240,240,2.0,122.0
17253,28.0,0,240,5.0,122.0
17254,91.0,0,240,2.0,122.0
17255,40.0,0,240,4.0,122.0
17256,95.0,0,240,1.0,122.0
17257,41.0,0,240,4.0,120.0
17258,29.0,0,240,5.0,120.0
17259,84.0,0,240,2.0,120.0
17260,93.0,720,240,1.0,120.0
17261,79.0,0,240,2.0,120.0
17262,84.0,720,240,2.0,120.0
17263,91.0,0,240,1.0,120.0
17264,36.0,0,240,5.0,120.0
17265,48.0,0,240,4.0,120.0
17266,88.0,0,240,2.0,120.0
17267,40.0,720,240,5.0,120.0
17268,88.0,0,240,1.0,120.0
17269,83.0,0,240,2.0,120.0
17270,79.0,0,240,2.0,120.0
17271,76.0,0,240,2.0,120.0
17272,52.0,0,240,4.0,120.0
17273,57.0,40,325,4.0,127.0
17274,72.0,0,288,2.0,127.0
17275,76.0,0,288,2.0,127.0
17276,60.0,40,288,4.0,127.0
17277,84.0,0,288,1.0,127.0
17278,52.0,40,370,4.0,127.0
17279,45.0,600,410,5.0,127.0
17280,55.0,40,325,4.0,126.0
17281,74.0,0,288,2.0,126.0
17282,79.0,0,288,2.0,126.0
17283,83.0,40,288,2.0,126.0
17284,86.0,0,288,1.0,126.0
17285,59.0,0,288,4.0,126.0
17286,62.0,0,288,4.0,126.0
17287,43.0,1320,410,5.0,126.0
17288,50.0,40,370,4.0,126.0
17289,88.0,0,0,1.0,121.0
17290,79.0,0,240,2.0,121.0
17291,76.0,0,0,2.0,121.0
17292,84.0,0,0,2.0,121.0
17293,36.0,1440,1920,5.0,121.0
17294,43.0,60,1940,4.0,121.0
17295,48.0,60,1920,4.0,121.0
17296,52.0,60,1920,4.0,121.0
17297,67.0,0,1920,4.0,121.0
17298,55.0,0,1920,4.0,121.0
17299,60.0,60,1920,4.0,121.0
17300,79.0,0,1920,2.0,121.0
