,note,step,duration,channel,velocity
0,70.0,0,240,1.0,0.0
1,39.0,480,240,5.0,0.0
2,63.0,0,480,2.0,0.0
3,75.0,0,480,1.0,0.0
4,55.0,0,480,4.0,0.0
5,74.0,0,240,1.0,0.0
6,55.0,0,240,4.0,0.0
7,72.0,0,240,1.0,0.0
8,51.0,240,15,5.0,0.0
9,75.0,0,240,2.0,0.0
10,63.0,480,240,2.0,0.0
11,51.0,0,15,5.0,0.0
12,55.0,0,480,4.0,0.0
13,70.0,0,480,1.0,0.0
14,39.0,0,240,5.0,0.0
15,68.0,120,120,1.0,0.0
16,75.0,0,15,2.0,0.0
17,63.0,120,15,2.0,0.0
18,67.0,0,120,1.0,0.0
19,55.0,0,480,4.0,0.0
20,65.0,240,240,1.0,0.0
21,63.0,0,240,1.0,0.0
22,75.0,0,15,2.0,0.0
23,67.0,480,240,1.0,0.0
24,51.0,240,15,5.0,0.0
25,55.0,0,240,4.0,0.0
26,55.0,120,480,4.0,0.0
27,51.0,0,480,5.0,0.0
28,75.0,0,15,2.0,0.0
29,63.0,0,480,2.0,0.0
30,70.0,0,480,1.0,0.0
31,72.0,120,120,1.0,0.0
32,31.0,0,240,5.0,0.0
33,75.0,480,240,2.0,0.0
34,74.0,0,120,1.0,0.0
35,75.0,0,480,1.0,0.0
36,63.0,0,15,2.0,0.0
37,43.0,0,480,5.0,0.0
38,74.0,240,240,1.0,0.0
39,63.0,480,240,2.0,0.0
40,72.0,0,240,1.0,0.0
41,55.0,0,15,4.0,0.0
42,51.0,0,15,4.0,0.0
43,75.0,0,240,2.0,0.0
44,55.0,0,15,4.0,0.0
45,43.0,0,15,5.0,0.0
46,51.0,0,480,4.0,0.0
47,70.0,0,480,1.0,0.0
48,75.0,0,480,2.0,0.0
49,63.0,0,15,2.0,0.0
50,34.0,0,240,5.0,0.0
51,68.0,0,240,1.0,0.0
52,67.0,0,120,1.0,0.0
53,70.0,240,240,1.0,0.0
54,75.0,0,15,2.0,0.0
55,55.0,20,480,4.0,0.0
56,63.0,0,240,1.0,0.0
57,67.0,220,60,1.0,0.0
58,74.0,0,240,2.0,0.0
59,56.0,0,240,4.0,0.0
60,65.0,0,240,1.0,0.0
61,46.0,0,15,5.0,0.0
62,55.0,120,480,4.0,0.0
63,63.0,120,360,1.0,0.0
64,75.0,0,480,2.0,0.0
65,51.0,0,480,5.0,0.0
66,67.0,0,120,1.0,0.0
67,39.0,240,240,5.0,0.0
68,70.0,120,120,1.0,0.0
69,79.0,0,120,1.0,0.0
70,60.0,0,480,4.0,0.0
71,77.0,240,240,1.0,0.0
72,68.0,0,480,2.0,0.0
73,51.0,240,480,5.0,0.0
74,80.0,0,480,2.0,0.0
75,72.0,0,240,1.0,0.0
76,74.0,0,240,1.0,0.0
77,77.0,0,240,2.0,0.0
78,56.0,0,240,4.0,0.0
79,65.0,0,240,2.0,0.0
80,79.0,0,480,2.0,0.0
81,67.0,0,480,2.0,0.0
82,58.0,120,480,4.0,0.0
83,70.0,120,360,1.0,0.0
84,51.0,360,15,5.0,0.0
85,75.0,0,120,1.0,0.0
86,39.0,240,240,5.0,0.0
87,70.0,0,240,2.0,0.0
88,79.0,120,120,1.0,0.0
89,82.0,0,240,2.0,0.0
90,75.0,0,120,1.0,0.0
91,60.0,0,480,4.0,0.0
92,80.0,0,480,2.0,0.0
93,68.0,0,480,2.0,0.0
94,77.0,240,240,1.0,0.0
95,72.0,240,240,1.0,0.0
96,77.0,0,240,2.0,0.0
97,56.0,0,240,4.0,0.0
98,51.0,0,15,5.0,0.0
99,65.0,0,240,2.0,0.0
100,74.0,0,240,1.0,0.0
101,79.0,0,480,2.0,0.0
102,75.0,240,240,1.0,0.0
103,58.0,240,480,4.0,0.0
104,70.0,0,240,1.0,0.0
105,75.0,0,240,1.0,0.0
106,51.0,0,15,5.0,0.0
107,39.0,0,240,5.0,0.0
108,72.0,0,240,2.0,0.0
109,67.0,0,15,2.0,0.0
110,77.0,0,480,1.0,0.0
111,65.0,0,480,1.0,0.0
112,46.0,240,240,5.0,0.0
113,58.0,0,240,5.0,0.0
114,45.0,0,240,5.0,0.0
115,57.0,0,240,5.0,0.0
116,70.0,0,480,1.0,0.0
117,82.0,240,480,1.0,0.0
118,43.0,240,240,5.0,0.0
119,55.0,0,240,5.0,0.0
120,74.0,240,15,2.0,0.0
121,53.0,120,480,5.0,0.0
122,41.0,0,480,5.0,0.0
123,74.0,0,240,2.0,0.0
124,70.0,0,15,2.0,0.0
125,77.0,240,240,2.0,0.0
126,39.0,0,120,5.0,0.0
127,81.0,0,240,1.0,0.0
128,51.0,120,120,5.0,0.0
129,38.0,0,120,5.0,0.0
130,50.0,0,120,5.0,0.0
131,79.0,0,240,1.0,0.0
132,53.0,0,450,5.0,0.0
133,70.0,0,240,2.0,0.0
134,75.0,195,240,2.0,0.0
135,41.0,3,420,5.0,0.0
136,69.0,154,210,2.0,0.0
137,77.0,4,210,1.0,0.0
138,74.0,4,210,2.0,0.0
139,72.0,116,120,2.0,0.0
140,46.0,4,240,5.0,0.0
141,75.0,0,120,1.0,0.0
142,67.0,0,120,2.0,0.0
143,34.0,0,240,5.0,0.0
144,65.0,0,120,2.0,0.0
145,70.0,0,120,2.0,0.0
146,74.0,1,120,1.0,0.0
147,63.0,5,270,2.0,0.0
148,72.0,236,240,2.0,0.0
149,34.0,234,15,5.0,0.0
150,46.0,4,480,5.0,0.0
151,77.0,0,240,1.0,0.0
152,68.0,0,480,2.0,0.0
153,70.0,120,240,1.0,0.0
154,62.0,0,240,2.0,0.0
155,63.0,0,120,2.0,0.0
156,56.0,0,240,4.0,0.0
157,72.0,0,120,1.0,0.0
158,46.0,440,240,5.0,0.0
159,60.0,120,120,2.0,0.0
160,70.0,0,120,1.0,0.0
161,62.0,0,120,2.0,0.0
162,65.0,0,120,2.0,0.0
163,39.0,40,480,5.0,0.0
164,75.0,240,480,1.0,0.0
165,55.0,0,480,4.0,0.0
166,63.0,0,480,2.0,0.0
167,74.0,0,240,1.0,0.0
168,75.0,480,240,2.0,0.0
169,72.0,0,240,1.0,0.0
170,51.0,0,240,5.0,0.0
171,51.0,0,480,5.0,0.0
172,63.0,0,15,2.0,0.0
173,55.0,0,15,4.0,0.0
174,70.0,0,480,1.0,0.0
175,75.0,0,480,2.0,0.0
176,68.0,120,120,1.0,0.0
177,63.0,120,15,2.0,0.0
178,39.0,0,240,5.0,0.0
179,67.0,0,120,1.0,0.0
180,51.0,0,480,5.0,0.0
181,65.0,240,240,1.0,0.0
182,75.0,240,15,2.0,0.0
183,63.0,0,240,1.0,0.0
184,55.0,0,15,4.0,0.0
185,75.0,240,15,2.0,0.0
186,67.0,0,240,1.0,0.0
187,51.0,0,15,5.0,0.0
188,70.0,0,480,1.0,0.0
189,75.0,480,15,2.0,0.0
190,55.0,120,480,4.0,0.0
191,75.0,0,15,2.0,0.0
192,72.0,120,120,1.0,0.0
193,63.0,0,15,2.0,0.0
194,36.0,0,240,5.0,0.0
195,74.0,0,120,1.0,0.0
196,63.0,480,15,2.0,0.0
197,75.0,0,480,1.0,0.0
198,55.0,0,480,4.0,0.0
199,74.0,240,240,1.0,0.0
200,75.0,0,240,2.0,0.0
201,48.0,0,15,5.0,0.0
202,72.0,0,240,1.0,0.0
203,63.0,0,15,2.0,0.0
204,70.0,240,480,1.0,0.0
205,55.0,480,15,4.0,0.0
206,48.0,0,480,5.0,0.0
207,75.0,0,15,2.0,0.0
208,63.0,0,240,2.0,0.0
209,69.0,0,240,1.0,0.0
210,41.0,240,240,5.0,0.0
211,67.0,0,120,1.0,0.0
212,60.0,0,480,4.0,0.0
213,75.0,0,15,2.0,0.0
214,65.0,0,480,2.0,0.0
215,69.0,240,240,1.0,0.0
216,70.0,0,240,1.0,0.0
217,57.0,0,240,4.0,0.0
218,65.0,0,240,2.0,0.0
219,75.0,0,240,2.0,0.0
220,72.0,0,240,1.0,0.0
221,53.0,240,15,5.0,0.0
222,77.0,0,480,2.0,0.0
223,65.0,120,360,2.0,0.0
224,70.0,0,360,2.0,0.0
225,46.0,0,480,5.0,0.0
226,75.0,0,360,1.0,0.0
227,58.0,120,480,4.0,0.0
228,74.0,0,120,1.0,0.0
229,82.0,0,240,2.0,0.0
230,62.0,440,240,4.0,0.0
231,58.0,12,240,5.0,0.0
232,72.0,108,120,1.0,0.0
233,68.0,0,240,4.0,0.0
234,70.0,0,120,1.0,0.0
235,51.0,10,480,5.0,0.0
236,75.0,0,480,2.0,0.0
237,87.0,0,480,1.0,0.0
238,58.0,30,420,4.0,0.0
239,86.0,240,240,1.0,0.0
240,51.0,4,510,5.0,0.0
241,58.0,16,480,4.0,0.0
242,67.0,0,15,4.0,0.0
243,75.0,0,480,2.0,0.0
244,87.0,0,480,2.0,0.0
245,84.0,220,240,1.0,0.0
246,74.0,0,240,2.0,0.0
247,82.0,240,240,1.0,0.0
248,58.0,0,480,4.0,0.0
249,51.0,0,480,5.0,0.0
250,72.0,240,240,2.0,0.0
251,80.0,0,240,1.0,0.0
252,79.0,0,240,1.0,0.0
253,70.0,0,240,2.0,0.0
254,58.0,0,480,4.0,0.0
255,68.0,120,240,2.0,0.0
256,77.0,0,240,1.0,0.0
257,51.0,120,480,5.0,0.0
258,75.0,240,15,2.0,0.0
259,75.0,0,240,1.0,0.0
260,67.0,120,120,2.0,0.0
261,65.0,0,120,2.0,0.0
262,72.0,0,240,1.0,0.0
263,51.0,240,480,5.0,0.0
264,63.0,120,120,2.0,0.0
265,67.0,240,120,2.0,0.0
266,70.0,120,480,1.0,0.0
267,55.0,0,15,4.0,0.0
268,43.0,480,480,5.0,0.0
269,72.0,120,120,1.0,0.0
270,74.0,0,120,1.0,0.0
271,55.0,0,15,4.0,0.0
272,51.0,0,15,4.0,0.0
273,63.0,0,15,2.0,0.0
274,75.0,0,480,1.0,0.0
275,45.0,0,480,5.0,0.0
276,74.0,0,240,1.0,0.0
277,55.0,0,15,4.0,0.0
278,72.0,240,240,1.0,0.0
279,51.0,240,15,4.0,0.0
280,46.0,0,480,5.0,0.0
281,70.0,120,480,1.0,0.0
282,48.0,0,480,5.0,0.0
283,63.0,240,15,2.0,0.0
284,75.0,0,15,2.0,0.0
285,51.0,240,480,4.0,0.0
286,55.0,0,15,4.0,0.0
287,68.0,120,120,1.0,0.0
288,67.0,0,120,1.0,0.0
289,70.0,240,240,1.0,0.0
290,46.0,0,480,5.0,0.0
291,75.0,0,15,2.0,0.0
292,55.0,0,15,4.0,0.0
293,63.0,0,240,1.0,0.0
294,67.0,220,60,1.0,0.0
295,74.0,480,240,2.0,0.0
296,46.0,0,240,5.0,0.0
297,65.0,0,240,1.0,0.0
298,56.0,0,240,4.0,0.0
299,75.0,120,480,2.0,0.0
300,55.0,0,480,4.0,0.0
301,63.0,0,480,1.0,0.0
302,51.0,0,480,5.0,0.0
303,64.0,0,120,1.0,0.0
304,76.0,120,120,1.0,0.0
305,40.0,0,120,5.0,0.0
306,52.0,0,120,5.0,0.0
307,78.0,0,120,1.0,0.0
308,42.0,240,120,5.0,0.0
309,54.0,0,120,5.0,0.0
310,66.0,0,120,1.0,0.0
311,80.0,0,240,1.0,0.0
312,68.0,240,240,1.0,0.0
313,56.0,0,240,5.0,0.0
314,44.0,0,240,5.0,0.0
315,66.0,0,240,1.0,0.0
316,54.0,0,240,5.0,0.0
317,42.0,240,240,5.0,0.0
318,78.0,0,240,1.0,0.0
319,40.0,0,240,5.0,0.0
320,64.0,0,240,1.0,0.0
321,76.0,0,240,1.0,0.0
322,52.0,480,240,5.0,0.0
323,51.0,0,480,5.0,0.0
324,39.0,120,480,5.0,0.0
325,75.0,0,480,1.0,0.0
326,63.0,0,480,1.0,0.0
327,51.0,0,240,1.0,0.0
328,63.0,0,240,1.0,0.0
329,61.0,0,240,2.0,0.0
330,49.0,0,120,5.0,0.0
331,37.0,120,120,5.0,0.0
332,47.0,240,120,5.0,0.0
333,35.0,0,120,5.0,0.0
334,59.0,240,480,2.0,0.0
335,63.0,0,480,1.0,0.0
336,34.0,240,240,5.0,0.0
337,46.0,0,240,5.0,0.0
338,32.0,0,240,5.0,0.0
339,44.0,0,240,5.0,0.0
340,51.0,0,15,1.0,0.0
341,47.0,0,240,5.0,0.0
342,56.0,0,240,2.0,0.0
343,35.0,0,240,5.0,0.0
344,51.0,0,480,1.0,0.0
345,39.0,120,480,5.0,0.0
346,63.0,480,15,1.0,0.0
347,61.0,0,240,4.0,0.0
348,76.0,0,120,1.0,0.0
349,64.0,120,120,1.0,0.0
350,66.0,240,120,1.0,0.0
351,78.0,0,120,1.0,0.0
352,51.0,0,15,5.0,0.0
353,59.0,0,480,4.0,0.0
354,68.0,0,240,1.0,0.0
355,80.0,240,240,1.0,0.0
356,66.0,0,240,1.0,0.0
357,78.0,240,240,1.0,0.0
358,76.0,0,240,1.0,0.0
359,51.0,0,15,5.0,0.0
360,64.0,0,240,1.0,0.0
361,56.0,480,240,4.0,0.0
362,51.0,0,15,5.0,0.0
363,63.0,0,480,1.0,0.0
364,75.0,120,480,1.0,0.0
365,49.0,0,240,5.0,0.0
366,37.0,0,240,5.0,0.0
367,64.0,120,120,1.0,0.0
368,76.0,0,120,1.0,0.0
369,66.0,0,120,1.0,0.0
370,78.0,0,120,1.0,0.0
371,75.0,240,120,2.0,0.0
372,68.0,0,240,1.0,0.0
373,34.0,0,480,5.0,0.0
374,46.0,240,480,5.0,0.0
375,76.0,240,240,2.0,0.0
376,80.0,0,240,1.0,0.0
377,66.0,0,240,1.0,0.0
378,78.0,0,240,1.0,0.0
379,75.0,0,240,2.0,0.0
380,76.0,240,240,1.0,0.0
381,64.0,0,240,1.0,0.0
382,31.0,0,480,5.0,0.0
383,43.0,0,480,5.0,0.0
384,73.0,0,240,2.0,0.0
385,75.0,0,240,1.0,0.0
386,63.0,240,240,1.0,0.0
387,71.0,0,240,2.0,0.0
388,73.0,0,240,1.0,0.0
389,70.0,0,240,2.0,0.0
390,61.0,240,240,1.0,0.0
391,32.0,1560,480,5.0,0.0
392,44.0,0,480,5.0,0.0
393,68.0,0,240,2.0,0.0
394,71.0,0,240,1.0,0.0
395,59.0,0,240,1.0,0.0
396,34.0,120,120,5.0,0.0
397,46.0,120,120,4.0,0.0
398,66.0,240,240,2.0,0.0
399,51.0,120,120,4.0,0.0
400,70.0,0,240,1.0,0.0
401,54.0,0,120,4.0,0.0
402,58.0,120,240,4.0,0.0
403,68.0,0,240,2.0,0.0
404,34.0,120,120,5.0,0.0
405,71.0,120,240,1.0,0.0
406,46.0,0,120,4.0,0.0
407,53.0,120,120,4.0,0.0
408,59.0,240,240,4.0,0.0
409,56.0,0,120,4.0,0.0
410,65.0,0,240,4.0,0.0
411,68.0,120,240,1.0,0.0
412,56.0,0,240,4.0,0.0
413,34.0,120,120,5.0,0.0
414,46.0,120,120,4.0,0.0
415,50.0,120,120,4.0,0.0
416,80.0,0,240,1.0,0.0
417,77.0,240,240,2.0,0.0
418,53.0,0,120,4.0,0.0
419,68.0,120,240,4.0,0.0
420,34.0,120,120,5.0,0.0
421,82.0,120,240,1.0,0.0
422,78.0,0,240,2.0,0.0
423,46.0,0,120,4.0,0.0
424,51.0,120,120,4.0,0.0
425,70.0,0,240,4.0,0.0
426,54.0,240,120,4.0,0.0
427,75.0,120,240,4.0,0.0
428,78.0,0,240,1.0,0.0
429,34.0,120,120,5.0,0.0
430,66.0,120,240,4.0,0.0
431,46.0,0,120,4.0,0.0
432,66.0,0,240,1.0,0.0
433,63.0,240,240,2.0,0.0
434,47.0,120,120,4.0,0.0
435,51.0,0,120,4.0,0.0
436,54.0,120,240,4.0,0.0
437,65.0,0,240,1.0,0.0
438,32.0,120,120,5.0,0.0
439,59.0,0,240,2.0,0.0
440,63.0,0,240,2.0,0.0
441,44.0,120,120,4.0,0.0
442,53.0,0,240,4.0,0.0
443,47.0,120,120,4.0,0.0
444,51.0,240,120,4.0,0.0
445,59.0,0,240,4.0,0.0
446,63.0,120,240,2.0,0.0
447,65.0,0,240,1.0,0.0
448,32.0,120,120,5.0,0.0
449,44.0,120,120,4.0,0.0
450,77.0,0,240,1.0,0.0
451,70.0,0,240,2.0,0.0
452,73.0,0,240,2.0,0.0
453,46.0,120,120,4.0,0.0
454,49.0,240,120,4.0,0.0
455,65.0,120,240,4.0,0.0
456,30.0,120,120,5.0,0.0
457,70.0,120,240,2.0,0.0
458,73.0,0,240,2.0,0.0
459,75.0,0,240,1.0,0.0
460,42.0,0,120,4.0,0.0
461,46.0,120,120,4.0,0.0
462,63.0,240,240,4.0,0.0
463,49.0,0,120,4.0,0.0
464,75.0,120,240,1.0,0.0
465,73.0,0,240,2.0,0.0
466,70.0,0,240,4.0,0.0
467,30.0,120,120,5.0,0.0
468,42.0,120,120,4.0,0.0
469,58.0,0,240,2.0,0.0
470,60.0,0,240,2.0,0.0
471,64.0,240,240,1.0,0.0
472,46.0,120,120,4.0,0.0
473,48.0,0,120,4.0,0.0
474,52.0,120,240,4.0,0.0
475,29.0,120,120,5.0,0.0
476,60.0,120,240,2.0,0.0
477,58.0,0,240,2.0,0.0
478,65.0,0,240,1.0,0.0
479,41.0,0,120,4.0,0.0
480,46.0,120,120,4.0,0.0
481,53.0,240,240,4.0,0.0
482,48.0,0,120,4.0,0.0
483,58.0,0,240,4.0,0.0
484,60.0,480,240,1.0,0.0
485,45.0,0,720,4.0,0.0
486,69.0,0,720,2.0,0.0
487,65.0,0,720,1.0,0.0
488,77.0,0,720,1.0,0.0
489,73.0,0,240,2.0,0.0
490,49.0,240,240,4.0,0.0
491,72.0,0,240,2.0,0.0
492,48.0,480,240,4.0,0.0
493,46.0,0,720,4.0,0.0
494,53.0,0,15,5.0,0.0
495,41.0,0,15,5.0,0.0
496,75.0,0,15,2.0,0.0
497,77.0,0,720,1.0,0.0
498,65.0,0,720,1.0,0.0
499,70.0,0,720,2.0,0.0
500,51.0,0,15,4.0,0.0
501,49.0,120,240,4.0,0.0
502,73.0,0,240,2.0,0.0
503,30.0,120,120,5.0,0.0
504,42.0,120,120,4.0,0.0
505,60.0,0,240,2.0,0.0
506,58.0,0,240,2.0,0.0
507,46.0,120,120,4.0,0.0
508,64.0,240,240,1.0,0.0
509,48.0,0,120,4.0,0.0
510,52.0,120,240,4.0,0.0
511,66.0,0,240,1.0,0.0
512,24.0,120,120,5.0,0.0
513,58.0,0,240,2.0,0.0
514,63.0,120,240,2.0,0.0
515,36.0,0,120,4.0,0.0
516,54.0,240,240,4.0,0.0
517,39.0,120,120,4.0,0.0
518,46.0,0,120,4.0,0.0
519,60.0,480,240,1.0,0.0
520,54.0,0,240,2.0,0.0
521,53.0,0,720,5.0,0.0
522,41.0,0,720,5.0,0.0
523,51.0,0,15,4.0,0.0
524,45.0,240,720,4.0,0.0
525,75.0,0,720,2.0,0.0
526,69.0,0,720,2.0,0.0
527,77.0,0,720,1.0,0.0
528,65.0,0,720,1.0,0.0
529,49.0,240,240,4.0,0.0
530,73.0,0,240,2.0,0.0
531,48.0,0,240,4.0,0.0
532,72.0,0,240,2.0,0.0
533,80.0,0,240,1.0,0.0
534,68.0,0,240,1.0,0.0
535,46.0,120,720,4.0,0.0
536,50.0,0,720,4.0,0.0
537,44.0,5,240,5.0,0.0
538,74.0,0,720,2.0,0.0
539,70.0,0,720,2.0,0.0
540,56.0,235,240,5.0,0.0
541,54.0,240,240,5.0,0.0
542,42.0,0,240,5.0,0.0
543,78.0,0,240,1.0,0.0
544,66.0,0,240,1.0,0.0
545,77.0,0,240,1.0,0.0
546,65.0,0,240,1.0,0.0
547,53.0,0,240,5.0,0.0
548,41.0,0,240,5.0,0.0
549,39.0,120,120,5.0,0.0
550,46.0,120,120,4.0,0.0
551,66.0,240,240,2.0,0.0
552,51.0,120,120,4.0,0.0
553,70.0,0,240,1.0,0.0
554,54.0,0,120,4.0,0.0
555,58.0,120,240,4.0,0.0
556,32.0,120,120,5.0,0.0
557,71.0,0,240,1.0,0.0
558,68.0,120,240,2.0,0.0
559,44.0,0,120,4.0,0.0
560,59.0,240,240,4.0,0.0
561,47.0,120,120,4.0,0.0
562,52.0,0,120,4.0,0.0
563,64.0,120,240,4.0,0.0
564,68.0,0,240,1.0,0.0
565,56.0,120,240,4.0,0.0
566,34.0,120,120,5.0,0.0
567,46.0,0,120,4.0,0.0
568,80.0,0,240,1.0,0.0
569,49.0,120,120,4.0,0.0
570,73.0,0,240,2.0,0.0
571,70.0,0,240,2.0,0.0
572,76.0,0,240,2.0,0.0
573,52.0,240,120,4.0,0.0
574,68.0,120,240,4.0,0.0
575,73.0,0,240,2.0,0.0
576,79.0,0,240,2.0,0.0
577,39.0,120,120,4.0,0.0
578,82.0,120,240,1.0,0.0
579,27.0,0,120,5.0,0.0
580,46.0,0,120,4.0,0.0
581,51.0,120,120,4.0,0.0
582,70.0,240,240,4.0,0.0
583,55.0,0,120,4.0,0.0
584,73.0,0,240,1.0,0.0
585,70.0,120,240,2.0,0.0
586,61.0,0,240,4.0,0.0
587,32.0,120,120,5.0,0.0
588,39.0,120,120,4.0,0.0
589,44.0,120,120,4.0,0.0
590,60.0,0,240,2.0,0.0
591,66.0,240,240,1.0,0.0
592,63.0,0,240,2.0,0.0
593,48.0,0,120,4.0,0.0
594,54.0,120,240,4.0,0.0
595,63.0,0,240,2.0,0.0
596,32.0,120,120,5.0,0.0
597,59.0,0,240,2.0,0.0
598,66.0,120,240,1.0,0.0
599,39.0,0,120,4.0,0.0
600,54.0,240,240,4.0,0.0
601,44.0,120,120,4.0,0.0
602,47.0,0,120,4.0,0.0
603,63.0,0,240,2.0,0.0
604,64.0,0,240,1.0,0.0
605,59.0,120,240,4.0,0.0
606,34.0,120,120,5.0,0.0
607,46.0,120,120,4.0,0.0
608,73.0,0,240,2.0,0.0
609,76.0,0,240,2.0,0.0
610,70.0,240,240,2.0,0.0
611,49.0,120,120,4.0,0.0
612,80.0,0,240,1.0,0.0
613,52.0,0,120,4.0,0.0
614,68.0,120,240,4.0,0.0
615,77.0,0,240,1.0,0.0
616,31.0,120,120,5.0,0.0
617,70.0,0,240,2.0,0.0
618,73.0,120,240,2.0,0.0
619,43.0,0,120,4.0,0.0
620,46.0,120,120,4.0,0.0
621,64.0,240,240,4.0,0.0
622,51.0,0,120,4.0,0.0
623,75.0,0,240,1.0,0.0
624,73.0,0,240,2.0,0.0
625,70.0,120,240,4.0,0.0
626,32.0,120,120,5.0,0.0
627,39.0,120,120,4.0,0.0
628,62.0,0,240,1.0,0.0
629,44.0,120,120,4.0,0.0
630,59.0,240,240,2.0,0.0
631,47.0,0,120,4.0,0.0
632,53.0,120,240,4.0,0.0
633,58.0,120,240,2.0,0.0
634,63.0,0,240,1.0,0.0
635,30.0,120,120,5.0,0.0
636,39.0,0,120,4.0,0.0
637,42.0,120,120,4.0,0.0
638,51.0,0,240,4.0,0.0
639,46.0,240,120,4.0,0.0
640,54.0,0,240,4.0,0.0
641,58.0,480,15,1.0,0.0
642,50.0,0,720,4.0,0.0
643,62.0,0,720,2.0,0.0
644,56.0,0,720,5.0,0.0
645,66.0,240,240,2.0,0.0
646,54.0,0,240,4.0,0.0
647,53.0,0,240,4.0,0.0
648,65.0,0,240,2.0,0.0
649,51.0,0,720,4.0,0.0
650,70.0,0,15,1.0,0.0
651,58.0,480,15,1.0,0.0
652,46.0,0,15,5.0,0.0
653,68.0,0,15,2.0,0.0
654,63.0,0,720,2.0,0.0
655,56.0,240,480,5.0,0.0
656,54.0,0,240,4.0,0.0
657,66.0,0,240,2.0,0.0
658,32.0,120,120,5.0,0.0
659,44.0,120,120,4.0,0.0
660,71.0,0,240,2.0,0.0
661,68.0,240,240,2.0,0.0
662,47.0,120,120,4.0,0.0
663,76.0,0,240,1.0,0.0
664,52.0,0,120,4.0,0.0
665,64.0,120,240,4.0,0.0
666,75.0,0,240,1.0,0.0
667,34.0,120,120,5.0,0.0
668,66.0,0,240,2.0,0.0
669,70.0,0,240,2.0,0.0
670,42.0,120,120,4.0,0.0
671,46.0,120,120,4.0,0.0
672,63.0,0,240,4.0,0.0
673,51.0,240,120,4.0,0.0
674,70.0,0,240,1.0,0.0
675,66.0,480,240,4.0,0.0
676,44.0,240,480,5.0,0.0
677,50.0,0,720,2.0,0.0
678,56.0,0,720,2.0,0.0
679,42.0,480,480,5.0,0.0
680,46.0,0,15,4.0,0.0
681,56.0,0,720,2.0,0.0
682,50.0,0,720,2.0,0.0
683,58.0,240,15,1.0,0.0
684,41.0,480,480,5.0,0.0
685,51.0,0,720,2.0,0.0
686,55.0,0,720,2.0,0.0
687,63.0,0,480,1.0,0.0
688,61.0,0,720,5.0,0.0
689,39.0,240,720,5.0,0.0
690,49.0,240,480,5.0,0.0
691,59.0,438,480,5.0,0.0
692,47.0,0,480,5.0,0.0
693,63.0,4,690,1.0,0.0
694,51.0,274,690,2.0,0.0
695,55.0,0,690,2.0,0.0
696,39.0,0,690,5.0,0.0
697,58.0,4,450,5.0,0.0
698,46.0,0,450,5.0,0.0
699,39.0,0,510,5.0,0.0
700,46.0,0,510,4.0,0.0
701,55.0,240,480,4.0,0.0
702,63.0,240,240,1.0,0.0
703,67.0,0,240,2.0,0.0
704,75.0,0,240,1.0,0.0
705,62.0,0,240,1.0,0.0
706,74.0,0,240,1.0,0.0
707,63.0,0,240,2.0,0.0
708,60.0,0,240,1.0,0.0
709,72.0,0,240,1.0,0.0
710,63.0,0,480,2.0,0.0
711,79.0,0,15,2.0,0.0
712,75.0,480,15,2.0,0.0
713,87.0,0,15,2.0,0.0
714,70.0,0,480,1.0,0.0
715,58.0,0,480,1.0,0.0
716,56.0,120,120,1.0,0.0
717,46.0,0,240,4.0,0.0
718,68.0,0,120,1.0,0.0
719,67.0,0,120,1.0,0.0
720,55.0,0,120,1.0,0.0
721,53.0,0,240,1.0,0.0
722,39.0,240,15,5.0,0.0
723,46.0,0,240,4.0,0.0
724,65.0,240,240,1.0,0.0
725,51.0,0,240,1.0,0.0
726,63.0,240,240,1.0,0.0
727,67.0,0,240,1.0,0.0
728,63.0,480,240,2.0,0.0
729,75.0,0,240,2.0,0.0
730,55.0,0,240,1.0,0.0
731,79.0,0,240,2.0,0.0
732,87.0,0,240,2.0,0.0
733,70.0,0,480,1.0,0.0
734,58.0,0,480,1.0,0.0
735,63.0,0,480,2.0,0.0
736,87.0,120,480,2.0,0.0
737,75.0,0,480,2.0,0.0
738,79.0,0,480,2.0,0.0
739,60.0,0,120,1.0,0.0
740,72.0,120,120,1.0,0.0
741,74.0,240,120,1.0,0.0
742,62.0,0,120,1.0,0.0
743,43.0,0,15,5.0,0.0
744,70.0,240,240,2.0,0.0
745,51.0,0,15,4.0,0.0
746,75.0,0,240,1.0,0.0
747,63.0,0,240,1.0,0.0
748,74.0,0,240,1.0,0.0
749,62.0,240,240,1.0,0.0
750,87.0,0,240,2.0,0.0
751,72.0,0,240,1.0,0.0
752,60.0,480,240,1.0,0.0
753,75.0,0,240,2.0,0.0
754,63.0,0,15,2.0,0.0
755,87.0,0,480,2.0,0.0
756,75.0,0,480,2.0,0.0
757,79.0,0,15,2.0,0.0
758,58.0,120,480,1.0,0.0
759,70.0,0,480,1.0,0.0
760,46.0,0,240,4.0,0.0
761,56.0,120,120,1.0,0.0
762,68.0,0,120,1.0,0.0
763,34.0,0,240,5.0,0.0
764,55.0,240,120,1.0,0.0
765,67.0,0,120,1.0,0.0
766,46.0,0,480,5.0,0.0
767,51.0,0,480,4.0,0.0
768,70.0,240,240,1.0,0.0
769,55.0,20,480,4.0,0.0
770,58.0,0,480,1.0,0.0
771,63.0,0,240,1.0,0.0
772,67.0,220,60,1.0,0.0
773,62.0,360,240,2.0,0.0
774,34.0,0,240,5.0,0.0
775,65.0,0,240,1.0,0.0
776,56.0,0,240,2.0,0.0
777,63.0,120,360,1.0,0.0
778,46.0,0,15,4.0,0.0
779,55.0,120,480,2.0,0.0
780,67.0,0,120,1.0,0.0
781,39.0,0,15,5.0,0.0
782,70.0,120,120,1.0,0.0
783,67.0,0,240,2.0,0.0
784,79.0,0,120,1.0,0.0
785,60.0,240,480,4.0,0.0
786,68.0,0,480,2.0,0.0
787,80.0,0,480,2.0,0.0
788,77.0,240,240,1.0,0.0
789,72.0,0,240,1.0,0.0
790,74.0,0,240,1.0,0.0
791,51.0,0,15,5.0,0.0
792,56.0,475,240,4.0,0.0
793,65.0,0,240,2.0,0.0
794,77.0,0,240,2.0,0.0
795,79.0,5,480,1.0,0.0
796,67.0,0,480,1.0,0.0
797,51.0,120,480,5.0,0.0
798,58.0,0,480,4.0,0.0
799,75.0,0,120,2.0,0.0
800,70.0,0,240,1.0,0.0
801,82.0,120,240,1.0,0.0
802,79.0,120,120,2.0,0.0
803,39.0,0,240,5.0,0.0
804,75.0,0,120,2.0,0.0
805,60.0,0,480,4.0,0.0
806,68.0,120,480,1.0,0.0
807,80.0,0,480,1.0,0.0
808,77.0,120,120,2.0,0.0
809,75.0,120,120,2.0,0.0
810,77.0,120,120,2.0,0.0
811,72.0,0,120,2.0,0.0
812,75.0,120,120,2.0,0.0
813,51.0,0,15,5.0,0.0
814,56.0,120,240,4.0,0.0
815,65.0,0,240,1.0,0.0
816,77.0,0,240,1.0,0.0
817,74.0,0,120,2.0,0.0
818,51.0,0,15,5.0,0.0
819,79.0,0,480,1.0,0.0
820,67.0,0,480,1.0,0.0
821,58.0,0,480,4.0,0.0
822,75.0,120,120,2.0,0.0
823,74.0,120,120,2.0,0.0
824,75.0,120,120,2.0,0.0
825,70.0,120,120,2.0,0.0
826,51.0,0,15,5.0,0.0
827,39.0,0,240,5.0,0.0
828,67.0,0,240,2.0,0.0
829,72.0,120,120,2.0,0.0
830,63.0,0,240,1.0,0.0
831,75.0,120,240,1.0,0.0
832,70.0,0,120,2.0,0.0
833,46.0,120,240,5.0,0.0
834,58.0,0,240,5.0,0.0
835,74.0,120,120,2.0,0.0
836,65.0,0,480,1.0,0.0
837,77.0,0,480,1.0,0.0
838,72.0,0,120,2.0,0.0
839,74.0,120,120,2.0,0.0
840,57.0,0,240,5.0,0.0
841,45.0,0,240,5.0,0.0
842,70.0,120,120,2.0,0.0
843,43.0,0,240,5.0,0.0
844,55.0,0,240,5.0,0.0
845,63.0,120,240,1.0,0.0
846,75.0,0,240,1.0,0.0
847,46.0,0,240,4.0,0.0
848,72.0,120,120,2.0,0.0
849,70.0,0,120,2.0,0.0
850,41.0,0,480,5.0,0.0
851,53.0,0,480,5.0,0.0
852,74.0,120,120,2.0,0.0
853,65.0,0,480,1.0,0.0
854,77.0,0,480,1.0,0.0
855,46.0,120,480,4.0,0.0
856,72.0,120,120,2.0,0.0
857,74.0,120,120,2.0,0.0
858,70.0,0,120,2.0,0.0
859,69.0,0,240,1.0,0.0
860,77.0,120,240,2.0,0.0
861,51.0,0,120,5.0,0.0
862,39.0,120,120,5.0,0.0
863,81.0,0,240,1.0,0.0
864,70.0,0,120,2.0,0.0
865,38.0,0,120,5.0,0.0
866,50.0,0,120,5.0,0.0
867,41.0,120,480,5.0,0.0
868,53.0,0,480,5.0,0.0
869,67.0,0,240,1.0,0.0
870,79.0,0,240,1.0,0.0
871,70.0,120,120,2.0,0.0
872,75.0,0,240,2.0,0.0
873,67.0,120,120,2.0,0.0
874,77.0,0,240,1.0,0.0
875,74.0,0,240,2.0,0.0
876,69.0,120,120,2.0,0.0
877,65.0,0,120,2.0,0.0
878,67.0,0,120,2.0,0.0
879,72.0,0,120,2.0,0.0
880,75.0,120,120,1.0,0.0
881,34.0,0,240,5.0,0.0
882,46.0,0,240,5.0,0.0
883,70.0,0,120,2.0,0.0
884,74.0,120,120,1.0,0.0
885,65.0,0,120,2.0,0.0
886,63.0,120,120,2.0,0.0
887,68.0,0,240,2.0,0.0
888,46.0,0,480,5.0,0.0
889,72.0,240,240,1.0,0.0
890,34.0,0,480,5.0,0.0
891,60.0,0,120,2.0,0.0
892,62.0,0,240,2.0,0.0
893,67.0,120,240,2.0,0.0
894,58.0,0,120,2.0,0.0
895,68.0,4,210,2.0,0.0
896,70.0,0,15,1.0,0.0
897,60.0,0,120,2.0,0.0
898,63.0,78,120,2.0,0.0
899,46.0,4,210,5.0,0.0
900,56.0,0,90,4.0,0.0
901,65.0,514,90,2.0,0.0
902,62.0,0,90,2.0,0.0
903,39.0,0,510,5.0,0.0
904,63.0,0,480,2.0,0.0
905,75.0,0,480,1.0,0.0
906,74.0,0,240,1.0,0.0
907,51.0,480,240,5.0,0.0
908,72.0,0,240,1.0,0.0
909,75.0,0,240,2.0,0.0
910,63.0,0,240,2.0,0.0
911,55.0,240,15,4.0,0.0
912,55.0,0,15,4.0,0.0
913,63.0,0,480,2.0,0.0
914,70.0,0,480,1.0,0.0
915,51.0,0,480,5.0,0.0
916,68.0,120,120,1.0,0.0
917,75.0,0,15,2.0,0.0
918,39.0,0,240,5.0,0.0
919,63.0,0,240,2.0,0.0
920,67.0,240,120,1.0,0.0
921,51.0,0,480,5.0,0.0
922,75.0,0,15,2.0,0.0
923,65.0,240,240,1.0,0.0
924,55.0,240,480,4.0,0.0
925,63.0,0,240,1.0,0.0
926,67.0,480,240,1.0,0.0
927,75.0,0,240,2.0,0.0
928,51.0,0,240,5.0,0.0
929,55.0,0,240,4.0,0.0
930,55.0,0,480,4.0,0.0
931,70.0,0,480,1.0,0.0
932,51.0,0,480,5.0,0.0
933,72.0,120,120,1.0,0.0
934,36.0,0,240,5.0,0.0
935,75.0,120,15,2.0,0.0
936,63.0,0,15,2.0,0.0
937,74.0,0,120,1.0,0.0
938,48.0,0,480,5.0,0.0
939,75.0,0,480,1.0,0.0
940,63.0,0,15,2.0,0.0
941,74.0,0,240,1.0,0.0
942,55.0,240,15,4.0,0.0
943,48.0,480,240,5.0,0.0
944,72.0,0,240,1.0,0.0
945,63.0,0,15,2.0,0.0
946,75.0,0,240,2.0,0.0
947,55.0,0,15,4.0,0.0
948,70.0,0,480,1.0,0.0
949,48.0,120,480,5.0,0.0
950,69.0,120,120,1.0,0.0
951,75.0,0,15,2.0,0.0
952,63.0,0,15,2.0,0.0
953,38.0,0,240,5.0,0.0
954,67.0,240,120,1.0,0.0
955,50.0,0,480,5.0,0.0
956,54.0,0,480,4.0,0.0
957,60.0,240,480,4.0,0.0
958,69.0,240,240,1.0,0.0
959,75.0,0,480,2.0,0.0
960,63.0,0,480,2.0,0.0
961,70.0,0,240,1.0,0.0
962,74.0,0,240,2.0,0.0
963,50.0,0,240,5.0,0.0
964,72.0,352,240,1.0,0.0
965,54.0,0,240,4.0,0.0
966,57.0,0,240,4.0,0.0
967,62.0,0,15,2.0,0.0
968,74.0,8,360,2.0,0.0
969,70.0,120,360,1.0,0.0
970,55.0,0,480,4.0,0.0
971,43.0,0,480,5.0,0.0
972,74.0,120,120,2.0,0.0
973,62.0,0,210,4.0,0.0
974,70.0,360,240,4.0,0.0
975,58.0,38,210,5.0,0.0
976,72.0,82,120,2.0,0.0
977,82.0,0,210,1.0,0.0
978,70.0,0,90,2.0,0.0
979,51.0,20,480,5.0,0.0
980,58.0,20,480,4.0,0.0
981,87.0,80,360,1.0,0.0
982,75.0,0,480,2.0,0.0
983,86.0,120,120,1.0,0.0
984,51.0,40,240,5.0,0.0
985,67.0,0,15,4.0,0.0
986,87.0,80,120,1.0,0.0
987,75.0,105,360,2.0,0.0
988,84.0,0,120,1.0,0.0
989,51.0,40,480,5.0,0.0
990,67.0,120,15,4.0,0.0
991,58.0,0,15,4.0,0.0
992,87.0,15,120,1.0,0.0
993,82.0,65,240,1.0,0.0
994,74.0,120,120,2.0,0.0
995,75.0,15,120,2.0,0.0
996,80.0,115,240,1.0,0.0
997,72.0,0,120,2.0,0.0
998,75.0,5,120,2.0,0.0
999,51.0,120,240,5.0,0.0
1000,70.0,100,270,2.0,0.0
1001,79.0,0,120,1.0,0.0
1002,58.0,0,15,4.0,0.0
1003,77.0,20,120,1.0,0.0
1004,51.0,53,420,5.0,0.0
1005,68.0,62,240,2.0,0.0
1006,74.0,120,120,1.0,0.0
1007,75.0,5,120,1.0,0.0
1008,67.0,0,120,2.0,0.0
1009,79.0,0,120,1.0,0.0
1010,56.0,20,240,4.0,0.0
1011,65.0,80,120,2.0,0.0
1012,82.0,75,600,1.0,0.0
1013,62.0,125,120,2.0,0.0
1014,51.0,20,15,5.0,0.0
1015,63.0,115,120,2.0,0.0
1016,67.0,125,120,2.0,0.0
1017,70.0,475,480,2.0,0.0
1018,72.0,20,120,1.0,0.0
1019,51.0,0,720,4.0,0.0
1020,55.0,100,20,4.0,0.0
1021,74.0,120,120,1.0,0.0
1022,43.0,0,240,5.0,0.0
1023,77.0,5,120,1.0,0.0
1024,45.0,0,480,5.0,0.0
1025,75.0,240,480,1.0,0.0
1026,74.0,0,240,1.0,0.0
1027,46.0,0,480,5.0,0.0
1028,75.0,0,480,2.0,0.0
1029,63.0,0,15,2.0,0.0
1030,51.0,0,480,4.0,0.0
1031,55.0,0,480,4.0,0.0
1032,72.0,240,240,1.0,0.0
1033,70.0,120,480,1.0,0.0
1034,51.0,0,480,4.0,0.0
1035,63.0,240,15,2.0,0.0
1036,48.0,0,480,5.0,0.0
1037,68.0,120,120,1.0,0.0
1038,67.0,0,120,1.0,0.0
1039,55.0,0,15,4.0,0.0
1040,70.0,240,240,1.0,0.0
1041,75.0,240,15,2.0,0.0
1042,46.0,0,480,5.0,0.0
1043,63.0,120,240,1.0,0.0
1044,74.0,3,660,2.0,0.0
1045,67.0,555,120,1.0,0.0
1046,46.0,278,690,5.0,0.0
1047,56.0,0,690,4.0,0.0
1048,65.0,4,570,1.0,0.0
1049,44.0,20,720,5.0,0.0
1050,51.0,20,720,4.0,0.0
1051,60.0,0,720,4.0,0.0
1052,72.0,440,240,1.0,0.0
1053,70.0,235,480,1.0,0.0
1054,51.0,240,720,4.0,0.0
1055,63.0,0,15,2.0,0.0
1056,75.0,5,15,2.0,0.0
1057,48.0,0,720,5.0,0.0
1058,69.0,480,240,1.0,0.0
1059,68.0,0,480,1.0,0.0
1060,46.0,0,720,5.0,0.0
1061,67.0,240,240,1.0,0.0
1062,63.0,240,480,2.0,0.0
1063,55.0,0,720,4.0,0.0
1064,75.0,0,720,2.0,0.0
1065,70.0,0,240,1.0,0.0
1066,63.0,120,240,1.0,0.0
1067,56.0,0,960,4.0,0.0
1068,46.0,480,960,5.0,0.0
1069,74.0,0,960,2.0,0.0
1070,67.0,725,120,1.0,0.0
1071,65.0,115,720,1.0,0.0
1072,63.0,0,120,1.0,0.0
1073,75.0,0,480,2.0,0.0
1074,51.0,0,480,5.0,0.0
1075,55.0,0,480,4.0,0.0
1076,63.0,720,480,1.0,0.0
1077,55.0,0,480,2.0,0.0
1078,46.0,2160,480,2.0,0.0
1079,58.0,0,480,1.0,0.0
1080,39.0,0,480,5.0,0.0
1081,27.0,0,480,5.0,0.0
1082,63.0,0,1920,5.0,0.0
1083,51.0,0,1920,5.0,0.0
1084,75.0,0,1920,2.0,0.0
1085,67.0,0,1920,2.0,0.0
1086,79.0,0,1920,1.0,0.0
1087,55.0,2160,1920,4.0,0.0
1088,73.0,60,60,1.0,0.0
1089,72.0,60,60,1.0,0.0
1090,39.0,60,240,5.0,0.0
1091,66.0,60,60,3.0,0.0
1092,60.0,60,60,3.0,0.0
1093,72.0,0,60,1.0,0.0
1094,70.0,60,60,1.0,0.0
1095,37.0,60,240,5.0,0.0
1096,65.0,60,60,3.0,0.0
1097,58.0,60,60,3.0,0.0
1098,52.0,0,60,3.0,0.0
1099,53.0,60,60,3.0,0.0
1100,58.0,60,60,3.0,0.0
1101,65.0,60,60,3.0,0.0
1102,70.0,60,60,1.0,0.0
1103,39.0,60,240,5.0,0.0
1104,72.0,60,60,1.0,0.0
1105,66.0,60,60,3.0,0.0
1106,60.0,60,60,3.0,0.0
1107,72.0,0,60,1.0,0.0
1108,37.0,0,240,5.0,0.0
1109,77.0,60,60,1.0,0.0
1110,70.0,60,60,3.0,0.0
1111,65.0,60,60,3.0,0.0
1112,57.0,60,60,3.0,0.0
1113,58.0,60,60,3.0,0.0
1114,65.0,60,60,3.0,0.0
1115,70.0,60,60,3.0,0.0
1116,77.0,60,60,1.0,0.0
1117,34.0,0,240,5.0,0.0
1118,80.0,60,60,1.0,0.0
1119,73.0,60,60,3.0,0.0
1120,68.0,60,60,3.0,0.0
1121,80.0,60,60,1.0,0.0
1122,78.0,60,60,1.0,0.0
1123,39.0,60,240,5.0,0.0
1124,73.0,60,60,3.0,0.0
1125,66.0,60,60,3.0,0.0
1126,57.0,0,60,3.0,0.0
1127,58.0,60,60,3.0,0.0
1128,61.0,60,60,3.0,0.0
1129,70.0,60,60,3.0,0.0
1130,73.0,60,60,1.0,0.0
1131,32.0,0,240,5.0,0.0
1132,78.0,60,60,1.0,0.0
1133,72.0,60,60,3.0,0.0
1134,66.0,60,60,3.0,0.0
1135,78.0,60,60,1.0,0.0
1136,37.0,60,240,5.0,0.0
1137,77.0,60,60,1.0,0.0
1138,72.0,60,60,3.0,0.0
1139,65.0,60,60,3.0,0.0
1140,55.0,0,60,3.0,0.0
1141,56.0,60,60,3.0,0.0
1142,60.0,60,60,3.0,0.0
1143,68.0,60,60,3.0,0.0
1144,72.0,60,60,1.0,0.0
1145,77.0,60,60,1.0,0.0
1146,30.0,0,240,5.0,0.0
1147,70.0,60,60,3.0,0.0
1148,65.0,60,60,3.0,0.0
1149,77.0,60,60,1.0,0.0
1150,75.0,60,60,1.0,0.0
1151,36.0,0,240,5.0,0.0
1152,70.0,60,60,3.0,0.0
1153,63.0,60,60,3.0,0.0
1154,73.0,60,60,1.0,0.0
1155,72.0,60,60,1.0,0.0
1156,39.0,60,240,5.0,0.0
1157,66.0,60,60,3.0,0.0
1158,60.0,60,60,3.0,0.0
1159,53.0,0,120,3.0,0.0
1160,54.0,60,60,3.0,0.0
1161,58.0,60,60,3.0,0.0
1162,66.0,60,60,3.0,0.0
1163,77.0,60,60,1.0,0.0
1164,29.0,60,240,5.0,0.0
1165,75.0,60,60,1.0,0.0
1166,69.0,60,60,3.0,0.0
1167,63.0,60,60,3.0,0.0
1168,73.0,0,60,1.0,0.0
1169,41.0,60,240,5.0,0.0
1170,72.0,60,60,1.0,0.0
1171,69.0,60,60,3.0,0.0
1172,63.0,60,60,3.0,0.0
1173,52.0,60,120,3.0,0.0
1174,53.0,0,60,3.0,0.0
1175,57.0,60,60,3.0,0.0
1176,65.0,60,60,3.0,0.0
1177,78.0,120,60,1.0,0.0
1178,77.0,0,240,1.0,0.0
1179,72.0,60,60,3.0,0.0
1180,69.0,60,60,3.0,0.0
1181,65.0,120,60,5.0,0.0
1182,76.0,120,240,1.0,0.0
1183,72.0,60,60,3.0,0.0
1184,69.0,60,60,3.0,0.0
1185,65.0,0,60,5.0,0.0
1186,75.0,0,240,1.0,0.0
1187,72.0,60,60,3.0,0.0
1188,69.0,60,60,3.0,0.0
1189,65.0,120,60,5.0,0.0
1190,73.0,60,240,1.0,0.0
1191,69.0,60,60,5.0,0.0
1192,66.0,60,60,5.0,0.0
1193,61.0,0,60,5.0,0.0
1194,57.0,60,60,5.0,0.0
1195,54.0,60,60,5.0,0.0
1196,49.0,60,60,5.0,0.0
1197,45.0,60,60,5.0,0.0
1198,42.0,60,60,5.0,0.0
1199,37.0,60,60,5.0,0.0
1200,33.0,60,60,5.0,0.0
1201,30.0,120,60,5.0,0.0
1202,27.0,0,240,5.0,0.0
1203,39.0,60,60,4.0,0.0
1204,42.0,60,60,4.0,0.0
1205,45.0,60,60,4.0,0.0
1206,51.0,60,60,4.0,0.0
1207,54.0,60,60,4.0,0.0
1208,57.0,60,60,4.0,0.0
1209,73.0,60,60,1.0,0.0
1210,72.0,60,60,1.0,0.0
1211,39.0,60,240,5.0,0.0
1212,67.0,60,60,3.0,0.0
1213,60.0,60,60,3.0,0.0
1214,72.0,0,60,1.0,0.0
1215,70.0,60,60,1.0,0.0
1216,37.0,60,240,5.0,0.0
1217,65.0,60,60,3.0,0.0
1218,58.0,60,60,3.0,0.0
1219,52.0,0,60,3.0,0.0
1220,53.0,60,60,3.0,0.0
1221,58.0,60,60,3.0,0.0
1222,65.0,60,60,3.0,0.0
1223,70.0,60,60,1.0,0.0
1224,72.0,60,60,1.0,0.0
1225,39.0,0,240,5.0,0.0
1226,67.0,60,60,3.0,0.0
1227,60.0,60,60,3.0,0.0
1228,72.0,60,60,1.0,0.0
1229,37.0,60,240,5.0,0.0
1230,77.0,60,60,1.0,0.0
1231,72.0,60,60,3.0,0.0
1232,65.0,60,60,3.0,0.0
1233,57.0,0,60,3.0,0.0
1234,58.0,60,60,3.0,0.0
1235,65.0,60,60,3.0,0.0
1236,70.0,60,60,3.0,0.0
1237,77.0,60,60,1.0,0.0
1238,36.0,0,240,5.0,0.0
1239,82.0,60,60,1.0,0.0
1240,76.0,60,60,3.0,0.0
1241,70.0,60,60,3.0,0.0
1242,82.0,60,60,1.0,0.0
1243,81.0,60,60,1.0,0.0
1244,41.0,60,240,5.0,0.0
1245,75.0,60,60,3.0,0.0
1246,69.0,60,60,3.0,0.0
1247,59.0,0,60,3.0,0.0
1248,60.0,60,60,3.0,0.0
1249,63.0,60,60,3.0,0.0
1250,72.0,60,60,3.0,0.0
1251,77.0,60,60,1.0,0.0
1252,80.0,60,60,1.0,0.0
1253,34.0,60,240,5.0,0.0
1254,74.0,60,60,3.0,0.0
1255,68.0,60,60,3.0,0.0
1256,80.0,0,60,1.0,0.0
1257,79.0,60,60,1.0,0.0
1258,39.0,0,240,5.0,0.0
1259,73.0,60,60,3.0,0.0
1260,67.0,60,60,3.0,0.0
1261,57.0,60,60,3.0,0.0
1262,58.0,60,60,3.0,0.0
1263,61.0,60,60,3.0,0.0
1264,70.0,60,60,3.0,0.0
1265,75.0,60,60,1.0,0.0
1266,78.0,60,60,1.0,0.0
1267,32.0,60,240,5.0,0.0
1268,72.0,60,60,3.0,0.0
1269,66.0,60,60,3.0,0.0
1270,78.0,0,60,1.0,0.0
1271,77.0,60,60,1.0,0.0
1272,37.0,0,240,5.0,0.0
1273,71.0,60,60,3.0,0.0
1274,65.0,60,60,3.0,0.0
1275,75.0,60,60,1.0,0.0
1276,49.0,60,240,5.0,0.0
1277,73.0,60,60,1.0,0.0
1278,71.0,60,60,3.0,0.0
1279,65.0,60,60,3.0,0.0
1280,55.0,0,60,3.0,0.0
1281,56.0,60,60,3.0,0.0
1282,59.0,60,60,3.0,0.0
1283,68.0,60,60,3.0,0.0
1284,76.0,60,60,1.0,0.0
1285,77.0,60,60,1.0,0.0
1286,36.0,0,240,5.0,0.0
1287,68.0,60,60,3.0,0.0
1288,65.0,60,60,3.0,0.0
1289,73.0,60,60,1.0,0.0
1290,48.0,0,240,5.0,0.0
1291,72.0,60,60,1.0,0.0
1292,68.0,60,60,3.0,0.0
1293,65.0,60,60,3.0,0.0
1294,52.0,60,60,3.0,0.0
1295,53.0,60,60,3.0,0.0
1296,56.0,60,60,3.0,0.0
1297,65.0,60,60,3.0,0.0
1298,72.0,120,60,1.0,0.0
1299,73.0,120,240,1.0,0.0
1300,67.0,60,60,3.0,0.0
1301,64.0,60,60,3.0,0.0
1302,60.0,0,60,5.0,0.0
1303,70.0,0,240,1.0,0.0
1304,67.0,60,60,3.0,0.0
1305,61.0,60,60,3.0,0.0
1306,60.0,120,60,5.0,0.0
1307,67.0,60,240,1.0,0.0
1308,64.0,60,60,3.0,0.0
1309,58.0,60,60,3.0,0.0
1310,60.0,0,60,5.0,0.0
1311,70.0,60,60,1.0,0.0
1312,65.0,60,60,5.0,0.0
1313,60.0,60,60,5.0,0.0
1314,53.0,60,60,5.0,0.0
1315,48.0,60,60,5.0,0.0
1316,44.0,60,60,5.0,0.0
1317,41.0,60,60,5.0,0.0
1318,68.0,0,60,3.0,0.0
1319,36.0,0,60,5.0,0.0
1320,80.0,60,60,1.0,0.0
1321,32.0,60,60,5.0,0.0
1322,78.0,0,60,1.0,0.0
1323,44.0,60,60,5.0,0.0
1324,72.0,0,60,3.0,0.0
1325,66.0,60,60,3.0,0.0
1326,78.0,60,60,1.0,0.0
1327,77.0,60,60,1.0,0.0
1328,37.0,0,60,5.0,0.0
1329,71.0,60,60,3.0,0.0
1330,65.0,60,60,3.0,0.0
1331,75.0,60,60,1.0,0.0
1332,73.0,0,60,1.0,0.0
1333,49.0,60,60,5.0,0.0
1334,71.0,60,60,3.0,0.0
1335,65.0,60,60,3.0,0.0
1336,55.0,60,60,3.0,0.0
1337,56.0,60,60,3.0,0.0
1338,59.0,60,60,3.0,0.0
1339,68.0,60,60,3.0,0.0
1340,74.0,60,60,1.0,0.0
1341,37.0,0,60,5.0,0.0
1342,73.0,60,60,1.0,0.0
1343,68.0,60,60,3.0,0.0
1344,65.0,60,60,3.0,0.0
1345,72.0,60,60,1.0,0.0
1346,71.0,0,60,1.0,0.0
1347,49.0,60,60,5.0,0.0
1348,68.0,60,60,3.0,0.0
1349,62.0,60,60,3.0,0.0
1350,52.0,60,60,3.0,0.0
1351,53.0,60,60,3.0,0.0
1352,56.0,60,60,3.0,0.0
1353,65.0,60,60,3.0,0.0
1354,73.0,120,60,1.0,0.0
1355,71.0,0,240,1.0,0.0
1356,68.0,60,60,3.0,0.0
1357,62.0,60,60,3.0,0.0
1358,30.0,120,60,5.0,0.0
1359,69.0,0,240,1.0,0.0
1360,66.0,60,60,3.0,0.0
1361,61.0,60,60,3.0,0.0
1362,30.0,120,60,5.0,0.0
1363,68.0,120,240,1.0,0.0
1364,65.0,60,60,3.0,0.0
1365,59.0,60,60,3.0,0.0
1366,30.0,0,60,5.0,0.0
1367,66.0,60,240,1.0,0.0
1368,62.0,60,60,5.0,0.0
1369,57.0,60,60,5.0,0.0
1370,54.0,0,60,5.0,0.0
1371,50.0,60,60,5.0,0.0
1372,45.0,60,60,5.0,0.0
1373,42.0,60,60,5.0,0.0
1374,38.0,60,60,5.0,0.0
1375,33.0,60,60,5.0,0.0
1376,30.0,60,60,5.0,0.0
1377,33.0,60,60,5.0,0.0
1378,38.0,80,60,5.0,0.0
1379,42.0,80,90,5.0,0.0
1380,45.0,80,90,3.0,0.0
1381,50.0,120,90,3.0,0.0
1382,54.0,840,120,3.0,0.0
1383,32.0,105,240,5.0,0.0
1384,56.0,120,120,2.0,0.0
1385,65.0,0,120,1.0,0.0
1386,60.0,15,240,2.0,0.0
1387,54.0,0,120,2.0,0.0
1388,63.0,0,15,1.0,0.0
1389,54.0,240,120,2.0,0.0
1390,60.0,0,120,2.0,0.0
1391,37.0,0,120,5.0,0.0
1392,53.0,0,360,2.0,0.0
1393,37.0,120,360,5.0,0.0
1394,61.0,0,360,1.0,0.0
1395,43.0,120,120,5.0,0.0
1396,44.0,120,360,5.0,0.0
1397,65.0,120,120,2.0,0.0
1398,73.0,0,120,1.0,0.0
1399,56.0,115,480,4.0,0.0
1400,66.0,0,120,2.0,0.0
1401,75.0,0,15,1.0,0.0
1402,72.0,0,15,2.0,0.0
1403,66.0,0,120,2.0,0.0
1404,77.0,0,360,2.0,0.0
1405,65.0,5,360,2.0,0.0
1406,80.0,120,360,1.0,0.0
1407,60.0,115,120,4.0,0.0
1408,61.0,0,480,4.0,0.0
1409,73.0,0,120,2.0,0.0
1410,77.0,120,120,1.0,0.0
1411,49.0,0,15,5.0,0.0
1412,66.0,0,120,2.0,0.0
1413,82.0,0,120,1.0,0.0
1414,56.0,110,360,4.0,0.0
1415,78.0,120,120,2.0,0.0
1416,72.0,0,120,2.0,0.0
1417,75.0,130,120,1.0,0.0
1418,77.0,5,360,2.0,0.0
1419,65.0,120,360,2.0,0.0
1420,80.0,0,360,1.0,0.0
1421,55.0,115,120,4.0,0.0
1422,56.0,0,480,4.0,0.0
1423,77.0,120,120,1.0,0.0
1424,73.0,0,120,2.0,0.0
1425,61.0,0,120,2.0,0.0
1426,68.0,115,120,2.0,0.0
1427,46.0,0,240,5.0,0.0
1428,53.0,5,240,4.0,0.0
1429,72.0,0,120,1.0,0.0
1430,73.0,120,120,1.0,0.0
1431,70.0,0,120,2.0,0.0
1432,58.0,0,120,2.0,0.0
1433,39.0,120,120,5.0,0.0
1434,65.0,10,360,2.0,0.0
1435,68.0,0,360,1.0,0.0
1436,46.0,110,120,4.0,0.0
1437,51.0,120,120,4.0,0.0
1438,63.0,235,120,2.0,0.0
1439,66.0,0,120,1.0,0.0
1440,58.0,0,120,4.0,0.0
1441,66.0,0,240,1.0,0.0
1442,63.0,5,240,2.0,0.0
1443,58.0,120,120,2.0,0.0
1444,46.0,0,120,4.0,0.0
1445,65.0,0,240,2.0,0.0
1446,38.0,0,240,5.0,0.0
1447,68.0,0,240,1.0,0.0
1448,47.0,120,120,4.0,0.0
1449,59.0,0,120,2.0,0.0
1450,58.0,0,120,2.0,0.0
1451,46.0,120,120,4.0,0.0
1452,57.0,0,120,2.0,0.0
1453,45.0,120,120,4.0,0.0
1454,63.0,0,240,2.0,0.0
1455,46.0,120,120,4.0,0.0
1456,58.0,0,120,2.0,0.0
1457,66.0,0,15,1.0,0.0
1458,47.0,120,120,4.0,0.0
1459,63.0,0,240,2.0,0.0
1460,59.0,0,120,2.0,0.0
1461,39.0,0,15,5.0,0.0
1462,48.0,0,120,4.0,0.0
1463,60.0,0,120,2.0,0.0
1464,63.0,0,120,2.0,0.0
1465,66.0,0,240,1.0,0.0
1466,41.0,0,240,5.0,0.0
1467,51.0,120,120,4.0,0.0
1468,61.0,0,120,2.0,0.0
1469,49.0,0,120,4.0,0.0
1470,48.0,0,120,4.0,0.0
1471,56.0,120,15,2.0,0.0
1472,60.0,120,120,2.0,0.0
1473,41.0,0,240,5.0,0.0
1474,49.0,0,120,4.0,0.0
1475,61.0,0,120,2.0,0.0
1476,48.0,120,120,4.0,0.0
1477,65.0,120,15,1.0,0.0
1478,60.0,0,120,2.0,0.0
1479,37.0,0,240,5.0,0.0
1480,53.0,120,240,2.0,0.0
1481,46.0,0,120,4.0,0.0
1482,58.0,0,120,2.0,0.0
1483,65.0,0,15,1.0,0.0
1484,57.0,0,120,2.0,0.0
1485,45.0,120,120,4.0,0.0
1486,42.0,120,240,5.0,0.0
1487,53.0,0,240,2.0,0.0
1488,58.0,0,120,2.0,0.0
1489,46.0,0,120,4.0,0.0
1490,51.0,0,240,2.0,0.0
1491,63.0,0,240,1.0,0.0
1492,61.0,120,120,2.0,0.0
1493,49.0,0,120,4.0,0.0
1494,48.0,120,120,4.0,0.0
1495,60.0,0,120,2.0,0.0
1496,42.0,0,15,5.0,0.0
1497,52.0,245,240,2.0,0.0
1498,58.0,0,120,2.0,0.0
1499,46.0,120,120,4.0,0.0
1500,64.0,0,240,1.0,0.0
1501,48.0,0,450,4.0,0.0
1502,60.0,0,120,2.0,0.0
1503,41.0,0,330,5.0,0.0
1504,65.0,8,330,1.0,0.0
1505,58.0,73,240,2.0,0.0
1506,53.0,0,330,2.0,0.0
1507,57.0,154,90,2.0,0.0
1508,65.0,0,120,1.0,0.0
1509,32.0,0,240,5.0,0.0
1510,56.0,120,120,2.0,0.0
1511,63.0,120,120,1.0,0.0
1512,54.0,0,15,2.0,0.0
1513,37.0,125,240,5.0,0.0
1514,60.0,0,15,2.0,0.0
1515,63.0,0,120,1.0,0.0
1516,53.0,125,360,2.0,0.0
1517,61.0,0,360,1.0,0.0
1518,43.0,115,120,5.0,0.0
1519,44.0,120,480,5.0,0.0
1520,56.0,115,480,4.0,0.0
1521,65.0,120,120,2.0,0.0
1522,73.0,0,120,1.0,0.0
1523,75.0,0,120,1.0,0.0
1524,66.0,120,120,2.0,0.0
1525,75.0,0,120,1.0,0.0
1526,72.0,0,15,2.0,0.0
1527,49.0,10,600,5.0,0.0
1528,66.0,0,120,2.0,0.0
1529,65.0,0,360,2.0,0.0
1530,80.0,110,360,1.0,0.0
1531,77.0,0,360,2.0,0.0
1532,58.0,120,120,4.0,0.0
1533,59.0,120,600,4.0,0.0
1534,73.0,0,120,2.0,0.0
1535,77.0,120,120,1.0,0.0
1536,66.0,0,120,2.0,0.0
1537,78.0,120,120,2.0,0.0
1538,49.0,5,720,5.0,0.0
1539,82.0,0,120,1.0,0.0
1540,71.0,0,120,2.0,0.0
1541,75.0,120,120,1.0,0.0
1542,65.0,115,360,2.0,0.0
1543,77.0,5,360,2.0,0.0
1544,80.0,0,360,1.0,0.0
1545,58.0,115,120,4.0,0.0
1546,59.0,115,240,4.0,0.0
1547,77.0,0,120,1.0,0.0
1548,61.0,0,120,2.0,0.0
1549,73.0,5,120,2.0,0.0
1550,68.0,0,120,2.0,0.0
1551,71.0,120,120,1.0,0.0
1552,53.0,5,240,4.0,0.0
1553,49.0,115,240,5.0,0.0
1554,58.0,0,120,2.0,0.0
1555,70.0,0,120,2.0,0.0
1556,73.0,0,120,1.0,0.0
1557,65.0,5,360,2.0,0.0
1558,42.0,120,120,5.0,0.0
1559,69.0,115,360,1.0,0.0
1560,49.0,120,120,4.0,0.0
1561,54.0,0,120,4.0,0.0
1562,61.0,0,120,4.0,0.0
1563,66.0,0,15,2.0,0.0
1564,70.0,235,15,1.0,0.0
1565,49.0,0,120,4.0,0.0
1566,61.0,120,120,2.0,0.0
1567,50.0,120,120,4.0,0.0
1568,69.0,0,240,1.0,0.0
1569,66.0,120,240,2.0,0.0
1570,62.0,0,120,2.0,0.0
1571,42.0,0,240,5.0,0.0
1572,49.0,0,120,4.0,0.0
1573,61.0,0,120,2.0,0.0
1574,42.0,0,240,5.0,0.0
1575,66.0,0,240,2.0,0.0
1576,60.0,120,120,2.0,0.0
1577,48.0,0,120,4.0,0.0
1578,49.0,0,120,4.0,0.0
1579,61.0,120,120,2.0,0.0
1580,42.0,0,240,5.0,0.0
1581,70.0,0,15,1.0,0.0
1582,50.0,120,120,4.0,0.0
1583,62.0,0,120,2.0,0.0
1584,66.0,0,240,2.0,0.0
1585,61.0,120,120,2.0,0.0
1586,49.0,0,120,4.0,0.0
1587,71.0,0,240,1.0,0.0
1588,41.0,0,240,5.0,0.0
1589,51.0,120,120,4.0,0.0
1590,68.0,0,240,2.0,0.0
1591,63.0,0,120,2.0,0.0
1592,49.0,0,120,4.0,0.0
1593,61.0,120,120,2.0,0.0
1594,70.0,120,240,1.0,0.0
1595,42.0,0,240,5.0,0.0
1596,48.0,120,120,4.0,0.0
1597,60.0,0,120,2.0,0.0
1598,66.0,0,240,2.0,0.0
1599,61.0,0,120,2.0,0.0
1600,49.0,0,120,4.0,0.0
1601,55.0,120,240,2.0,0.0
1602,63.0,0,120,2.0,0.0
1603,46.0,0,240,5.0,0.0
1604,51.0,120,120,4.0,0.0
1605,67.0,0,240,1.0,0.0
1606,61.0,0,120,2.0,0.0
1607,68.0,120,240,1.0,0.0
1608,53.0,120,120,2.0,0.0
1609,56.0,0,240,2.0,0.0
1610,65.0,0,120,2.0,0.0
1611,44.0,0,240,5.0,0.0
1612,49.0,0,15,4.0,0.0
1613,61.0,0,120,2.0,0.0
1614,51.0,0,120,4.0,0.0
1615,44.0,0,480,5.0,0.0
1616,54.0,0,480,2.0,0.0
1617,60.0,120,120,2.0,0.0
1618,66.0,240,480,1.0,0.0
1619,58.0,0,120,2.0,0.0
1620,49.0,120,120,4.0,0.0
1621,56.0,0,120,2.0,0.0
1622,48.0,120,120,4.0,0.0
1623,60.0,0,120,2.0,0.0
1624,37.0,3,360,5.0,0.0
1625,65.0,101,360,1.0,0.0
1626,53.0,0,360,2.0,0.0
1627,63.0,120,120,2.0,0.0
1628,61.0,4,120,2.0,0.0
1629,61.0,0,60,1.0,0.0
1630,49.0,108,60,5.0,0.0
1631,73.0,0,60,1.0,0.0
1632,72.0,0,90,1.0,0.0
1633,60.0,0,90,1.0,0.0
1634,48.0,132,90,5.0,0.0
1635,72.0,0,60,1.0,0.0
1636,60.0,192,60,1.0,0.0
1637,48.0,0,60,5.0,0.0
1638,46.0,60,180,5.0,0.0
1639,70.0,0,240,1.0,0.0
1640,58.0,60,240,1.0,0.0
1641,40.0,0,60,5.0,0.0
1642,65.0,0,240,1.0,0.0
1643,41.0,60,60,5.0,0.0
1644,45.0,60,60,3.0,0.0
1645,53.0,60,60,3.0,0.0
1646,41.0,60,60,5.0,0.0
1647,42.0,60,60,5.0,0.0
1648,46.0,60,60,3.0,0.0
1649,54.0,60,60,3.0,0.0
1650,77.0,60,60,1.0,0.0
1651,76.0,60,60,1.0,0.0
1652,73.0,60,60,3.0,0.0
1653,64.0,60,60,3.0,0.0
1654,76.0,0,60,1.0,0.0
1655,54.0,60,60,5.0,0.0
1656,75.0,0,60,1.0,0.0
1657,55.0,60,60,5.0,0.0
1658,58.0,60,60,3.0,0.0
1659,73.0,0,60,3.0,0.0
1660,63.0,60,60,3.0,0.0
1661,67.0,0,60,3.0,0.0
1662,55.0,60,60,5.0,0.0
1663,56.0,60,60,5.0,0.0
1664,60.0,60,60,3.0,0.0
1665,68.0,60,60,3.0,0.0
1666,80.0,60,60,1.0,0.0
1667,78.0,60,60,1.0,0.0
1668,75.0,60,60,3.0,0.0
1669,66.0,60,60,3.0,0.0
1670,44.0,60,60,5.0,0.0
1671,78.0,0,60,1.0,0.0
1672,45.0,60,60,5.0,0.0
1673,77.0,0,60,1.0,0.0
1674,48.0,0,60,3.0,0.0
1675,75.0,60,60,3.0,0.0
1676,65.0,60,60,3.0,0.0
1677,57.0,0,60,3.0,0.0
1678,45.0,60,60,5.0,0.0
1679,46.0,60,60,5.0,0.0
1680,50.0,60,60,3.0,0.0
1681,58.0,60,60,3.0,0.0
1682,82.0,60,60,1.0,0.0
1683,80.0,60,60,1.0,0.0
1684,77.0,0,60,3.0,0.0
1685,58.0,60,60,5.0,0.0
1686,68.0,0,60,3.0,0.0
1687,59.0,60,60,5.0,0.0
1688,62.0,60,60,3.0,0.0
1689,71.0,60,60,3.0,0.0
1690,82.0,0,60,1.0,0.0
1691,59.0,60,60,5.0,0.0
1692,60.0,0,60,5.0,0.0
1693,80.0,60,60,1.0,0.0
1694,65.0,0,60,3.0,0.0
1695,77.0,60,60,3.0,0.0
1696,68.0,60,60,3.0,0.0
1697,72.0,0,60,3.0,0.0
1698,60.0,60,60,5.0,0.0
1699,61.0,60,60,5.0,0.0
1700,65.0,0,60,3.0,0.0
1701,82.0,60,60,1.0,0.0
1702,73.0,0,60,5.0,0.0
1703,80.0,60,60,1.0,0.0
1704,77.0,60,60,3.0,0.0
1705,71.0,60,60,3.0,0.0
1706,70.0,60,60,5.0,0.0
1707,68.0,60,60,5.0,0.0
1708,65.0,60,60,5.0,0.0
1709,59.0,60,60,5.0,0.0
1710,58.0,60,60,1.0,0.0
1711,56.0,60,60,5.0,0.0
1712,53.0,60,60,5.0,0.0
1713,47.0,60,60,5.0,0.0
1714,36.0,60,60,1.0,0.0
1715,37.0,60,60,5.0,0.0
1716,44.0,60,60,5.0,0.0
1717,47.0,60,60,5.0,0.0
1718,48.0,60,60,1.0,0.0
1719,49.0,60,60,5.0,0.0
1720,56.0,60,60,5.0,0.0
1721,59.0,60,60,5.0,0.0
1722,60.0,60,60,1.0,0.0
1723,61.0,60,60,5.0,0.0
1724,68.0,60,60,5.0,0.0
1725,71.0,60,60,5.0,0.0
1726,80.0,60,60,1.0,0.0
1727,79.0,60,60,1.0,0.0
1728,76.0,60,60,5.0,0.0
1729,70.0,60,60,5.0,0.0
1730,68.0,60,60,1.0,0.0
1731,67.0,60,60,5.0,0.0
1732,64.0,60,60,5.0,0.0
1733,58.0,60,60,5.0,0.0
1734,56.0,60,60,1.0,0.0
1735,55.0,60,60,5.0,0.0
1736,52.0,60,60,5.0,0.0
1737,46.0,60,60,5.0,0.0
1738,35.0,60,60,1.0,0.0
1739,36.0,60,60,5.0,0.0
1740,43.0,60,60,5.0,0.0
1741,46.0,60,60,5.0,0.0
1742,47.0,60,60,1.0,0.0
1743,48.0,60,60,5.0,0.0
1744,55.0,60,60,5.0,0.0
1745,58.0,60,60,5.0,0.0
1746,59.0,60,60,1.0,0.0
1747,60.0,60,60,5.0,0.0
1748,67.0,60,60,5.0,0.0
1749,70.0,60,60,5.0,0.0
1750,82.0,0,240,2.0,0.0
1751,79.0,0,240,2.0,0.0
1752,85.0,120,120,1.0,0.0
1753,76.0,0,240,2.0,0.0
1754,84.0,120,120,1.0,0.0
1755,64.0,0,210,4.0,0.0
1756,59.0,78,120,5.0,0.0
1757,67.0,0,210,4.0,0.0
1758,60.0,162,90,5.0,0.0
1759,70.0,0,210,2.0,0.0
1760,63.0,0,210,2.0,0.0
1761,66.0,0,210,2.0,0.0
1762,73.0,78,120,1.0,0.0
1763,72.0,162,90,1.0,0.0
1764,51.0,0,210,4.0,0.0
1765,54.0,0,210,4.0,0.0
1766,47.0,78,120,5.0,0.0
1767,48.0,162,90,5.0,0.0
1768,53.0,0,480,2.0,0.0
1769,57.0,0,480,2.0,0.0
1770,51.0,0,480,2.0,0.0
1771,61.0,240,120,1.0,0.0
1772,60.0,60,360,1.0,0.0
1773,28.0,120,120,5.0,0.0
1774,29.0,60,180,5.0,0.0
1775,41.0,60,60,5.0,0.0
1776,45.0,60,60,5.0,0.0
1777,48.0,60,60,5.0,0.0
1778,51.0,0,60,5.0,0.0
1779,85.0,60,60,1.0,0.0
1780,54.0,0,60,5.0,0.0
1781,75.0,60,60,3.0,0.0
1782,57.0,0,60,5.0,0.0
1783,84.0,60,60,1.0,0.0
1784,60.0,60,60,5.0,0.0
1785,78.0,0,60,3.0,0.0
1786,66.0,60,60,5.0,0.0
1787,82.0,0,60,1.0,0.0
1788,63.0,60,60,5.0,0.0
1789,72.0,0,60,3.0,0.0
1790,54.0,0,60,5.0,0.0
1791,81.0,60,60,1.0,0.0
1792,75.0,0,60,3.0,0.0
1793,57.0,60,60,5.0,0.0
1794,80.0,60,60,1.0,0.0
1795,63.0,0,60,5.0,0.0
1796,60.0,0,60,5.0,0.0
1797,69.0,60,60,3.0,0.0
1798,51.0,60,60,5.0,0.0
1799,78.0,0,60,1.0,0.0
1800,54.0,0,60,5.0,0.0
1801,72.0,60,60,3.0,0.0
1802,60.0,60,60,5.0,0.0
1803,77.0,0,60,1.0,0.0
1804,66.0,0,60,3.0,0.0
1805,57.0,60,60,5.0,0.0
1806,75.0,0,60,1.0,0.0
1807,48.0,60,60,5.0,0.0
1808,51.0,60,60,5.0,0.0
1809,69.0,0,60,3.0,0.0
1810,57.0,60,60,5.0,0.0
1811,54.0,60,60,5.0,0.0
1812,51.0,60,60,5.0,0.0
1813,48.0,60,60,5.0,0.0
1814,45.0,0,60,5.0,0.0
1815,73.0,60,60,1.0,0.0
1816,42.0,0,60,5.0,0.0
1817,63.0,60,60,3.0,0.0
1818,39.0,0,60,5.0,0.0
1819,72.0,60,60,1.0,0.0
1820,66.0,60,60,3.0,0.0
1821,45.0,0,60,3.0,0.0
1822,54.0,240,60,3.0,0.0
1823,39.0,0,60,5.0,0.0
1824,73.0,60,60,1.0,0.0
1825,65.0,0,60,3.0,0.0
1826,44.0,60,60,3.0,0.0
1827,71.0,60,60,1.0,0.0
1828,53.0,0,60,3.0,0.0
1829,68.0,60,60,3.0,0.0
1830,59.0,60,60,3.0,0.0
1831,71.0,60,60,1.0,0.0
1832,70.0,60,60,1.0,0.0
1833,38.0,0,60,5.0,0.0
1834,68.0,60,60,3.0,0.0
1835,58.0,60,60,3.0,0.0
1836,52.0,60,60,3.0,0.0
1837,53.0,60,60,3.0,0.0
1838,56.0,60,60,3.0,0.0
1839,65.0,60,60,3.0,0.0
1840,70.0,60,60,1.0,0.0
1841,71.0,0,60,1.0,0.0
1842,39.0,60,60,5.0,0.0
1843,68.0,60,60,3.0,0.0
1844,59.0,60,60,3.0,0.0
1845,71.0,60,60,1.0,0.0
1846,38.0,0,60,5.0,0.0
1847,77.0,60,60,1.0,0.0
1848,68.0,60,60,3.0,0.0
1849,65.0,60,60,3.0,0.0
1850,57.0,60,60,3.0,0.0
1851,58.0,60,60,3.0,0.0
1852,65.0,60,60,3.0,0.0
1853,70.0,60,60,3.0,0.0
1854,77.0,60,60,1.0,0.0
1855,80.0,60,60,1.0,0.0
1856,34.0,0,60,5.0,0.0
1857,74.0,60,60,3.0,0.0
1858,68.0,60,60,3.0,0.0
1859,80.0,60,60,1.0,0.0
1860,78.0,0,60,1.0,0.0
1861,39.0,60,60,5.0,0.0
1862,75.0,60,60,3.0,0.0
1863,66.0,60,60,3.0,0.0
1864,57.0,60,60,3.0,0.0
1865,58.0,60,60,3.0,0.0
1866,61.0,60,60,3.0,0.0
1867,70.0,60,60,3.0,0.0
1868,73.0,60,60,1.0,0.0
1869,32.0,60,60,5.0,0.0
1870,78.0,0,60,1.0,0.0
1871,72.0,60,60,3.0,0.0
1872,66.0,60,60,3.0,0.0
1873,78.0,60,60,1.0,0.0
1874,37.0,60,60,5.0,0.0
1875,77.0,0,60,1.0,0.0
1876,72.0,60,60,3.0,0.0
1877,65.0,60,60,3.0,0.0
1878,55.0,60,60,3.0,0.0
1879,56.0,60,60,3.0,0.0
1880,60.0,60,60,3.0,0.0
1881,68.0,60,60,3.0,0.0
1882,72.0,60,60,1.0,0.0
1883,30.0,60,60,5.0,0.0
1884,77.0,0,60,1.0,0.0
1885,70.0,60,60,3.0,0.0
1886,65.0,60,60,3.0,0.0
1887,77.0,60,60,1.0,0.0
1888,36.0,0,60,5.0,0.0
1889,75.0,60,60,1.0,0.0
1890,70.0,60,60,3.0,0.0
1891,63.0,60,60,3.0,0.0
1892,73.0,60,60,1.0,0.0
1893,72.0,0,60,1.0,0.0
1894,39.0,60,60,5.0,0.0
1895,66.0,60,60,3.0,0.0
1896,60.0,60,60,3.0,0.0
1897,53.0,60,60,3.0,0.0
1898,54.0,60,60,3.0,0.0
1899,58.0,60,60,3.0,0.0
1900,66.0,60,60,3.0,0.0
1901,77.0,60,60,1.0,0.0
1902,75.0,60,60,1.0,0.0
1903,29.0,0,60,5.0,0.0
1904,69.0,60,60,3.0,0.0
1905,63.0,60,60,3.0,0.0
1906,73.0,60,60,1.0,0.0
1907,41.0,60,60,5.0,0.0
1908,72.0,0,60,1.0,0.0
1909,69.0,60,60,3.0,0.0
1910,63.0,60,60,3.0,0.0
1911,52.0,60,60,3.0,0.0
1912,53.0,60,60,3.0,0.0
1913,57.0,60,60,3.0,0.0
1914,65.0,60,60,3.0,0.0
1915,78.0,120,60,1.0,0.0
1916,77.0,0,240,1.0,0.0
1917,72.0,60,60,3.0,0.0
1918,69.0,60,60,3.0,0.0
1919,65.0,120,60,5.0,0.0
1920,76.0,5,240,1.0,0.0
1921,72.0,60,60,3.0,0.0
1922,69.0,55,60,3.0,0.0
1923,65.0,120,60,5.0,0.0
1924,75.0,5,240,1.0,0.0
1925,72.0,60,60,3.0,0.0
1926,69.0,55,60,3.0,0.0
1927,65.0,120,60,5.0,0.0
1928,73.0,60,240,1.0,0.0
1929,69.0,60,60,5.0,0.0
1930,66.0,60,60,5.0,0.0
1931,61.0,0,60,5.0,0.0
1932,57.0,60,60,5.0,0.0
1933,54.0,60,60,5.0,0.0
1934,49.0,60,60,5.0,0.0
1935,45.0,60,60,5.0,0.0
1936,42.0,60,60,5.0,0.0
1937,37.0,60,60,5.0,0.0
1938,33.0,60,60,5.0,0.0
1939,30.0,120,60,5.0,0.0
1940,27.0,0,120,5.0,0.0
1941,85.0,60,60,1.0,0.0
1942,83.0,60,60,1.0,0.0
1943,39.0,0,60,3.0,0.0
1944,81.0,60,60,1.0,0.0
1945,42.0,0,60,3.0,0.0
1946,45.0,60,60,3.0,0.0
1947,80.0,0,60,1.0,0.0
1948,78.0,0,60,1.0,0.0
1949,51.0,60,60,3.0,0.0
1950,75.0,60,60,1.0,0.0
1951,73.0,60,60,1.0,0.0
1952,39.0,60,60,5.0,0.0
1953,72.0,0,60,1.0,0.0
1954,67.0,60,60,3.0,0.0
1955,60.0,60,60,3.0,0.0
1956,72.0,60,60,1.0,0.0
1957,70.0,0,60,1.0,0.0
1958,37.0,60,60,5.0,0.0
1959,65.0,60,60,3.0,0.0
1960,58.0,60,60,3.0,0.0
1961,52.0,60,60,3.0,0.0
1962,53.0,60,60,3.0,0.0
1963,58.0,60,60,3.0,0.0
1964,65.0,60,60,3.0,0.0
1965,70.0,60,60,1.0,0.0
1966,73.0,0,60,1.0,0.0
1967,37.0,60,60,5.0,0.0
1968,66.0,60,60,3.0,0.0
1969,58.0,60,60,3.0,0.0
1970,73.0,60,60,1.0,0.0
1971,39.0,0,60,5.0,0.0
1972,78.0,60,60,1.0,0.0
1973,71.0,60,60,3.0,0.0
1974,66.0,60,60,3.0,0.0
1975,53.0,60,60,3.0,0.0
1976,54.0,60,60,3.0,0.0
1977,59.0,60,60,3.0,0.0
1978,66.0,60,60,3.0,0.0
1979,75.0,60,60,1.0,0.0
1980,40.0,60,60,5.0,0.0
1981,73.0,0,60,1.0,0.0
1982,67.0,60,60,3.0,0.0
1983,58.0,60,60,3.0,0.0
1984,73.0,60,60,1.0,0.0
1985,39.0,60,60,5.0,0.0
1986,71.0,0,60,1.0,0.0
1987,66.0,60,60,3.0,0.0
1988,59.0,60,60,3.0,0.0
1989,53.0,60,60,3.0,0.0
1990,54.0,60,60,3.0,0.0
1991,59.0,60,60,3.0,0.0
1992,66.0,60,60,3.0,0.0
1993,71.0,60,60,1.0,0.0
1994,42.0,0,60,5.0,0.0
1995,75.0,0,60,1.0,0.0
1996,72.0,60,60,3.0,0.0
1997,68.0,60,60,3.0,0.0
1998,60.0,60,60,3.0,0.0
1999,75.0,60,60,1.0,0.0
2000,41.0,0,60,5.0,0.0
2001,80.0,60,60,1.0,0.0
2002,73.0,60,60,3.0,0.0
2003,68.0,60,60,3.0,0.0
2004,55.0,60,60,3.0,0.0
2005,56.0,60,60,3.0,0.0
2006,61.0,60,60,3.0,0.0
2007,68.0,60,60,3.0,0.0
2008,73.0,60,60,1.0,0.0
2009,40.0,0,60,5.0,0.0
2010,80.0,60,60,1.0,0.0
2011,73.0,60,60,3.0,0.0
2012,68.0,60,60,3.0,0.0
2013,80.0,60,60,1.0,0.0
2014,85.0,60,60,1.0,0.0
2015,39.0,0,60,5.0,0.0
2016,79.0,60,60,3.0,0.0
2017,73.0,60,60,3.0,0.0
2018,57.0,60,60,3.0,0.0
2019,58.0,60,60,3.0,0.0
2020,61.0,60,60,3.0,0.0
2021,70.0,60,60,3.0,0.0
2022,73.0,60,60,1.0,0.0
2023,38.0,0,60,5.0,0.0
2024,78.0,60,60,1.0,0.0
2025,72.0,60,60,3.0,0.0
2026,66.0,60,60,3.0,0.0
2027,78.0,60,60,1.0,0.0
2028,37.0,0,60,5.0,0.0
2029,83.0,60,60,1.0,0.0
2030,77.0,60,60,3.0,0.0
2031,71.0,60,60,3.0,0.0
2032,55.0,60,60,3.0,0.0
2033,56.0,60,60,3.0,0.0
2034,59.0,60,60,3.0,0.0
2035,68.0,60,60,3.0,0.0
2036,74.0,60,60,1.0,0.0
2037,36.0,0,60,5.0,0.0
2038,76.0,60,60,1.0,0.0
2039,70.0,60,60,3.0,0.0
2040,64.0,60,60,3.0,0.0
2041,76.0,60,60,1.0,0.0
2042,35.0,60,60,5.0,0.0
2043,81.0,0,60,1.0,0.0
2044,75.0,60,60,3.0,0.0
2045,69.0,60,60,3.0,0.0
2046,59.0,60,60,5.0,0.0
2047,78.0,60,60,1.0,0.0
2048,75.0,60,60,3.0,0.0
2049,69.0,60,60,3.0,0.0
2050,47.0,60,60,5.0,0.0
2051,75.0,60,60,1.0,0.0
2052,69.0,60,60,3.0,0.0
2053,66.0,60,60,3.0,0.0
2054,35.0,60,60,5.0,0.0
2055,69.0,60,60,1.0,0.0
2056,63.0,60,60,3.0,0.0
2057,57.0,60,60,3.0,0.0
2058,47.0,60,60,5.0,0.0
2059,68.0,60,60,1.0,0.0
2060,63.0,60,60,3.0,0.0
2061,57.0,60,60,3.0,0.0
2062,35.0,60,60,5.0,0.0
2063,66.0,60,60,1.0,0.0
2064,63.0,60,60,3.0,0.0
2065,57.0,60,60,3.0,0.0
2066,47.0,60,60,5.0,0.0
2067,57.0,0,270,1.0,0.0
2068,65.0,57,270,1.0,0.0
2069,63.0,0,270,1.0,0.0
2070,41.0,0,60,4.0,0.0
2071,48.0,60,60,5.0,0.0
2072,87.0,0,60,1.0,0.0
2073,36.0,0,60,5.0,0.0
2074,81.0,60,60,3.0,0.0
2075,75.0,60,60,3.0,0.0
2076,65.0,3,60,4.0,0.0
2077,60.0,0,60,5.0,0.0
2078,80.0,60,60,1.0,0.0
2079,75.0,60,60,3.0,0.0
2080,69.0,60,60,3.0,0.0
2081,53.0,60,60,5.0,0.0
2082,60.0,0,60,4.0,0.0
2083,75.0,60,60,1.0,0.0
2084,69.0,60,60,3.0,0.0
2085,63.0,60,60,3.0,0.0
2086,48.0,0,60,5.0,0.0
2087,53.0,60,60,4.0,0.0
2088,69.0,60,60,1.0,0.0
2089,63.0,60,60,3.0,0.0
2090,57.0,60,60,3.0,0.0
2091,41.0,0,240,5.0,0.0
2092,48.0,60,60,4.0,0.0
2093,68.0,60,60,1.0,0.0
2094,63.0,60,60,3.0,0.0
2095,57.0,120,60,3.0,0.0
2096,29.0,0,240,5.0,0.0
2097,66.0,60,60,1.0,0.0
2098,63.0,60,60,3.0,0.0
2099,57.0,60,60,3.0,0.0
2100,48.0,60,60,4.0,0.0
2101,41.0,120,240,5.0,0.0
2102,65.0,60,60,1.0,0.0
2103,60.0,60,60,3.0,0.0
2104,57.0,0,60,3.0,0.0
2105,29.0,0,240,5.0,0.0
2106,64.0,60,60,1.0,0.0
2107,60.0,60,60,3.0,0.0
2108,57.0,60,60,3.0,0.0
2109,48.0,146,60,4.0,0.0
2110,41.0,37,240,5.0,0.0
2111,63.0,239,240,1.0,0.0
2112,60.0,34,60,3.0,0.0
2113,57.0,24,60,3.0,0.0
2114,29.0,240,240,5.0,0.0
2115,57.0,0,240,2.0,0.0
2116,41.0,3,240,5.0,0.0
2117,62.0,117,120,1.0,0.0
2118,51.0,0,120,4.0,0.0
2119,51.0,0,120,4.0,0.0
2120,57.0,0,120,2.0,0.0
2121,53.0,0,15,2.0,0.0
2122,41.0,120,240,5.0,0.0
2123,60.0,120,15,1.0,0.0
2124,58.0,0,360,1.0,0.0
2125,50.0,120,1080,4.0,0.0
2126,40.0,120,120,5.0,0.0
2127,41.0,3,840,5.0,0.0
2128,76.0,120,120,1.0,0.0
2129,77.0,120,120,1.0,0.0
2130,74.0,120,120,1.0,0.0
2131,70.0,120,120,1.0,0.0
2132,65.0,117,120,1.0,0.0
2133,62.0,0,120,1.0,0.0
2134,65.0,5,120,1.0,0.0
2135,56.0,0,120,2.0,0.0
2136,61.0,109,120,2.0,0.0
2137,41.0,6,240,5.0,0.0
2138,57.0,0,120,2.0,0.0
2139,60.0,0,120,2.0,0.0
2140,57.0,0,120,2.0,0.0
2141,54.0,120,15,4.0,0.0
2142,63.0,0,15,1.0,0.0
2143,41.0,120,240,5.0,0.0
2144,60.0,0,120,2.0,0.0
2145,61.0,3,360,1.0,0.0
2146,53.0,3,1080,4.0,0.0
2147,56.0,120,360,2.0,0.0
2148,40.0,117,120,5.0,0.0
2149,41.0,6,840,5.0,0.0
2150,79.0,120,120,1.0,0.0
2151,80.0,120,120,1.0,0.0
2152,77.0,120,120,1.0,0.0
2153,73.0,120,120,1.0,0.0
2154,68.0,111,120,1.0,0.0
2155,65.0,120,120,1.0,0.0
2156,41.0,9,240,5.0,0.0
2157,73.0,111,120,1.0,0.0
2158,60.0,0,240,2.0,0.0
2159,51.0,0,240,4.0,0.0
2160,66.0,3,240,2.0,0.0
2161,57.0,3,240,2.0,0.0
2162,41.0,120,240,5.0,0.0
2163,72.0,114,15,1.0,0.0
2164,70.0,117,360,1.0,0.0
2165,53.0,3,480,4.0,0.0
2166,50.0,0,480,4.0,0.0
2167,65.0,0,480,2.0,0.0
2168,58.0,3,480,2.0,0.0
2169,40.0,117,120,5.0,0.0
2170,41.0,117,600,5.0,0.0
2171,70.0,120,120,1.0,0.0
2172,49.0,3,240,4.0,0.0
2173,59.0,0,240,2.0,0.0
2174,71.0,117,120,1.0,0.0
2175,53.0,123,240,4.0,0.0
2176,65.0,0,240,2.0,0.0
2177,71.0,0,120,1.0,0.0
2178,72.0,120,360,1.0,0.0
2179,60.0,3,480,2.0,0.0
2180,48.0,0,480,4.0,0.0
2181,64.0,3,480,2.0,0.0
2182,55.0,0,480,4.0,0.0
2183,40.0,114,120,5.0,0.0
2184,41.0,123,600,5.0,0.0
2185,72.0,120,120,1.0,0.0
2186,70.0,117,120,1.0,0.0
2187,48.0,0,240,4.0,0.0
2188,55.0,3,240,4.0,0.0
2189,58.0,0,240,2.0,0.0
2190,63.0,0,240,2.0,0.0
2191,70.0,117,120,1.0,0.0
2192,53.0,0,480,4.0,0.0
2193,56.0,3,480,2.0,0.0
2194,65.0,3,480,2.0,0.0
2195,49.0,120,480,4.0,0.0
2196,68.0,120,360,1.0,0.0
2197,40.0,114,120,5.0,0.0
2198,41.0,117,600,5.0,0.0
2199,68.0,0,120,1.0,0.0
2200,63.0,3,240,2.0,0.0
2201,57.0,3,240,2.0,0.0
2202,47.0,0,240,4.0,0.0
2203,53.0,3,240,4.0,0.0
2204,69.0,111,15,1.0,0.0
2205,46.0,120,480,4.0,0.0
2206,70.0,114,360,1.0,0.0
2207,53.0,3,480,4.0,0.0
2208,62.0,3,480,2.0,0.0
2209,58.0,6,360,2.0,0.0
2210,40.0,114,120,5.0,0.0
2211,41.0,120,600,5.0,0.0
2212,58.0,0,120,1.0,0.0
2213,61.0,120,120,1.0,0.0
2214,46.0,0,240,4.0,0.0
2215,61.0,0,120,1.0,0.0
2216,53.0,120,15,4.0,0.0
2217,48.0,0,360,4.0,0.0
2218,60.0,0,360,2.0,0.0
2219,58.0,0,15,2.0,0.0
2220,65.0,240,360,1.0,0.0
2221,40.0,114,120,5.0,0.0
2222,41.0,240,480,5.0,0.0
2223,53.0,120,240,4.0,0.0
2224,60.0,0,120,1.0,0.0
2225,60.0,0,120,1.0,0.0
2226,63.0,0,240,1.0,0.0
2227,29.0,120,720,5.0,0.0
2228,57.0,240,240,2.0,0.0
2229,54.0,0,240,2.0,0.0
2230,53.0,240,240,2.0,0.0
2231,56.0,0,240,2.0,0.0
2232,61.0,0,240,1.0,0.0
2233,60.0,0,720,1.0,0.0
2234,51.0,120,720,2.0,0.0
2235,56.0,0,720,2.0,0.0
2236,22.0,120,120,5.0,0.0
2237,34.0,120,120,4.0,0.0
2238,41.0,120,120,4.0,0.0
2239,46.0,0,120,4.0,0.0
2240,49.0,120,120,4.0,0.0
2241,58.0,120,240,1.0,0.0
2242,53.0,0,120,4.0,0.0
2243,46.0,0,480,5.0,0.0
2244,49.0,120,480,4.0,0.0
2245,58.0,120,120,1.0,0.0
2246,61.0,120,120,1.0,0.0
2247,65.0,120,120,1.0,0.0
2248,70.0,0,120,1.0,0.0
2249,73.0,120,120,1.0,0.0
2250,89.0,1440,120,1.0,0.0
2251,77.0,0,120,2.0,0.0
2252,94.0,0,1440,1.0,0.0
2253,49.0,0,1440,4.0,0.0
2254,34.0,0,15,5.0,0.0
2255,82.0,1560,1440,2.0,0.0
2256,41.0,0,1440,4.0,0.0
2257,61.0,0,120,1.0,0.0
2258,37.0,0,120,5.0,0.0
2259,49.0,120,120,4.0,0.0
2260,63.0,240,120,1.0,0.0
2261,39.0,0,120,5.0,0.0
2262,51.0,0,120,4.0,0.0
2263,64.0,0,240,1.0,0.0
2264,40.0,0,240,5.0,0.0
2265,52.0,120,240,4.0,0.0
2266,51.0,0,120,4.0,0.0
2267,39.0,0,120,5.0,0.0
2268,63.0,120,120,1.0,0.0
2269,52.0,0,120,4.0,0.0
2270,40.0,240,120,5.0,0.0
2271,64.0,0,120,1.0,0.0
2272,51.0,0,240,4.0,0.0
2273,39.0,0,240,5.0,0.0
2274,63.0,120,240,1.0,0.0
2275,37.0,0,120,5.0,0.0
2276,61.0,120,120,1.0,0.0
2277,49.0,0,120,4.0,0.0
2278,51.0,120,120,4.0,0.0
2279,39.0,0,120,5.0,0.0
2280,63.0,0,120,1.0,0.0
2281,66.0,120,120,1.0,0.0
2282,42.0,0,120,5.0,0.0
2283,54.0,0,120,4.0,0.0
2284,52.0,0,120,4.0,0.0
2285,40.0,120,120,5.0,0.0
2286,64.0,0,120,1.0,0.0
2287,39.0,120,120,5.0,0.0
2288,51.0,0,120,4.0,0.0
2289,63.0,0,120,1.0,0.0
2290,40.0,0,120,5.0,0.0
2291,64.0,240,120,1.0,0.0
2292,52.0,0,120,4.0,0.0
2293,39.0,0,240,5.0,0.0
2294,63.0,0,240,1.0,0.0
2295,51.0,120,240,4.0,0.0
2296,64.0,0,120,1.0,0.0
2297,40.0,120,120,5.0,0.0
2298,52.0,0,120,4.0,0.0
2299,42.0,0,120,5.0,0.0
2300,66.0,0,120,1.0,0.0
2301,54.0,240,120,4.0,0.0
2302,68.0,120,240,1.0,0.0
2303,44.0,0,240,5.0,0.0
2304,56.0,0,240,4.0,0.0
2305,42.0,0,120,5.0,0.0
2306,66.0,120,120,1.0,0.0
2307,54.0,0,120,4.0,0.0
2308,56.0,0,120,4.0,0.0
2309,68.0,0,120,1.0,0.0
2310,44.0,240,120,5.0,0.0
2311,57.0,0,240,4.0,0.0
2312,45.0,120,240,5.0,0.0
2313,69.0,0,240,1.0,0.0
2314,68.0,120,120,1.0,0.0
2315,56.0,0,120,4.0,0.0
2316,44.0,0,120,5.0,0.0
2317,57.0,0,120,4.0,0.0
2318,69.0,0,120,1.0,0.0
2319,45.0,240,120,5.0,0.0
2320,71.0,0,240,1.0,0.0
2321,59.0,120,240,4.0,0.0
2322,47.0,0,240,5.0,0.0
2323,56.0,0,120,4.0,0.0
2324,68.0,120,120,1.0,0.0
2325,44.0,0,120,5.0,0.0
2326,45.0,0,120,5.0,0.0
2327,57.0,240,120,4.0,0.0
2328,69.0,0,120,1.0,0.0
2329,42.0,0,240,5.0,0.0
2330,66.0,0,240,1.0,0.0
2331,54.0,120,240,4.0,0.0
2332,68.0,120,120,1.0,0.0
2333,40.0,0,120,5.0,0.0
2334,61.0,0,240,2.0,0.0
2335,52.0,0,240,4.0,0.0
2336,56.0,0,240,4.0,0.0
2337,49.0,240,240,4.0,0.0
2338,64.0,0,120,1.0,0.0
2339,44.0,0,120,5.0,0.0
2340,59.0,120,360,2.0,0.0
2341,54.0,120,240,4.0,0.0
2342,42.0,0,240,5.0,0.0
2343,63.0,0,360,1.0,0.0
2344,39.0,0,240,5.0,0.0
2345,51.0,0,240,4.0,0.0
2346,57.0,0,120,2.0,0.0
2347,61.0,240,120,1.0,0.0
2348,44.0,0,240,5.0,0.0
2349,60.0,120,240,1.0,0.0
2350,56.0,0,240,4.0,0.0
2351,49.0,120,120,2.0,0.0
2352,61.0,0,120,1.0,0.0
2353,51.0,240,120,2.0,0.0
2354,63.0,0,120,1.0,0.0
2355,37.0,0,240,5.0,0.0
2356,64.0,0,240,1.0,0.0
2357,52.0,120,240,2.0,0.0
2358,44.0,0,120,4.0,0.0
2359,51.0,120,120,2.0,0.0
2360,63.0,0,120,1.0,0.0
2361,52.0,0,120,2.0,0.0
2362,64.0,240,120,1.0,0.0
2363,32.0,0,240,5.0,0.0
2364,63.0,0,240,1.0,0.0
2365,51.0,120,240,2.0,0.0
2366,44.0,0,120,4.0,0.0
2367,61.0,0,120,1.0,0.0
2368,49.0,120,120,2.0,0.0
2369,63.0,120,120,1.0,0.0
2370,51.0,0,120,2.0,0.0
2371,37.0,0,240,5.0,0.0
2372,54.0,120,120,2.0,0.0
2373,66.0,0,120,1.0,0.0
2374,52.0,0,120,2.0,0.0
2375,44.0,120,120,4.0,0.0
2376,64.0,0,120,1.0,0.0
2377,51.0,120,120,2.0,0.0
2378,63.0,0,120,1.0,0.0
2379,64.0,0,120,1.0,0.0
2380,52.0,240,120,2.0,0.0
2381,32.0,0,240,5.0,0.0
2382,51.0,0,240,2.0,0.0
2383,63.0,0,240,1.0,0.0
2384,44.0,120,120,4.0,0.0
2385,52.0,120,120,2.0,0.0
2386,64.0,0,120,1.0,0.0
2387,54.0,240,120,2.0,0.0
2388,66.0,0,120,1.0,0.0
2389,56.0,0,240,2.0,0.0
2390,40.0,0,240,5.0,0.0
2391,68.0,120,240,1.0,0.0
2392,49.0,0,120,4.0,0.0
2393,66.0,0,120,1.0,0.0
2394,54.0,120,120,2.0,0.0
2395,68.0,240,120,1.0,0.0
2396,56.0,0,120,2.0,0.0
2397,58.0,0,240,2.0,0.0
2398,37.0,120,240,5.0,0.0
2399,70.0,0,240,1.0,0.0
2400,52.0,0,120,4.0,0.0
2401,68.0,0,120,1.0,0.0
2402,56.0,120,120,2.0,0.0
2403,70.0,240,120,1.0,0.0
2404,58.0,0,120,2.0,0.0
2405,71.0,120,240,1.0,0.0
2406,35.0,0,240,5.0,0.0
2407,59.0,0,240,2.0,0.0
2408,51.0,0,120,4.0,0.0
2409,56.0,0,120,2.0,0.0
2410,68.0,120,120,1.0,0.0
2411,58.0,240,120,2.0,0.0
2412,70.0,0,120,1.0,0.0
2413,54.0,0,240,2.0,0.0
2414,66.0,120,240,1.0,0.0
2415,37.0,0,240,5.0,0.0
2416,44.0,0,120,4.0,0.0
2417,52.0,0,120,2.0,0.0
2418,64.0,120,120,1.0,0.0
2419,49.0,0,120,2.0,0.0
2420,61.0,240,120,1.0,0.0
2421,59.0,240,240,1.0,0.0
2422,56.0,0,240,2.0,0.0
2423,39.0,0,240,5.0,0.0
2424,51.0,0,120,4.0,0.0
2425,55.0,240,240,2.0,0.0
2426,58.0,0,240,1.0,0.0
2427,32.0,240,240,5.0,0.0
2428,56.0,0,240,1.0,0.0
2429,44.0,0,120,4.0,0.0
2430,68.0,240,240,1.0,0.0
2431,69.0,0,240,1.0,0.0
2432,57.0,240,240,4.0,0.0
2433,45.0,0,240,5.0,0.0
2434,64.0,240,240,1.0,0.0
2435,40.0,0,240,5.0,0.0
2436,49.0,0,240,4.0,0.0
2437,37.0,240,240,5.0,0.0
2438,61.0,0,240,1.0,0.0
2439,40.0,0,240,5.0,0.0
2440,64.0,240,240,1.0,0.0
2441,44.0,0,240,5.0,0.0
2442,56.0,0,240,4.0,0.0
2443,68.0,240,240,1.0,0.0
2444,39.0,240,240,5.0,0.0
2445,63.0,0,240,1.0,0.0
2446,59.0,240,240,1.0,0.0
2447,47.0,0,240,4.0,0.0
2448,35.0,0,240,5.0,0.0
2449,39.0,0,240,5.0,0.0
2450,63.0,240,240,1.0,0.0
2451,54.0,0,240,4.0,0.0
2452,42.0,120,240,5.0,0.0
2453,66.0,0,240,1.0,0.0
2454,64.0,0,120,1.0,0.0
2455,52.0,0,120,4.0,0.0
2456,40.0,120,120,5.0,0.0
2457,63.0,240,120,1.0,0.0
2458,39.0,0,120,5.0,0.0
2459,51.0,0,120,4.0,0.0
2460,61.0,120,240,1.0,0.0
2461,37.0,0,240,5.0,0.0
2462,49.0,0,240,4.0,0.0
2463,35.0,0,120,5.0,0.0
2464,47.0,0,120,4.0,0.0
2465,59.0,120,120,1.0,0.0
2466,58.0,0,120,1.0,0.0
2467,34.0,240,120,5.0,0.0
2468,46.0,0,120,4.0,0.0
2469,51.0,0,240,4.0,0.0
2470,63.0,0,240,1.0,0.0
2471,39.0,240,240,5.0,0.0
2472,40.0,0,240,5.0,0.0
2473,64.0,0,240,1.0,0.0
2474,52.0,240,240,4.0,0.0
2475,61.0,0,240,1.0,0.0
2476,37.0,240,240,5.0,0.0
2477,49.0,0,240,4.0,0.0
2478,63.0,0,240,1.0,0.0
2479,51.0,0,240,4.0,0.0
2480,39.0,240,240,5.0,0.0
2481,55.0,0,240,2.0,0.0
2482,61.0,0,240,1.0,0.0
2483,32.0,240,720,5.0,0.0
2484,44.0,0,720,4.0,0.0
2485,52.0,240,240,4.0,0.0
2486,59.0,0,240,2.0,0.0
2487,56.0,0,240,2.0,0.0
2488,51.0,240,240,4.0,0.0
2489,49.0,0,240,4.0,0.0
2490,54.0,0,240,2.0,0.0
2491,58.0,0,240,2.0,0.0
2492,44.0,120,240,4.0,0.0
2493,80.0,0,240,1.0,0.0
2494,47.0,0,240,2.0,0.0
2495,56.0,0,240,2.0,0.0
2496,68.0,0,240,1.0,0.0
2497,49.0,120,480,5.0,0.0
2498,52.0,120,120,4.0,0.0
2499,81.0,120,240,1.0,0.0
2500,69.0,0,240,1.0,0.0
2501,52.0,120,240,4.0,0.0
2502,64.0,0,240,1.0,0.0
2503,76.0,0,240,1.0,0.0
2504,57.0,0,120,4.0,0.0
2505,56.0,0,480,4.0,0.0
2506,61.0,0,240,1.0,0.0
2507,73.0,120,240,1.0,0.0
2508,52.0,120,120,5.0,0.0
2509,52.0,120,240,5.0,0.0
2510,64.0,0,240,1.0,0.0
2511,76.0,0,240,1.0,0.0
2512,49.0,120,120,5.0,0.0
2513,68.0,0,240,1.0,0.0
2514,47.0,120,480,5.0,0.0
2515,80.0,120,240,1.0,0.0
2516,51.0,120,120,4.0,0.0
2517,51.0,120,240,4.0,0.0
2518,75.0,0,240,1.0,0.0
2519,63.0,0,240,1.0,0.0
2520,56.0,0,120,4.0,0.0
2521,59.0,120,240,1.0,0.0
2522,51.0,120,120,5.0,0.0
2523,71.0,0,240,1.0,0.0
2524,54.0,120,480,4.0,0.0
2525,51.0,120,240,5.0,0.0
2526,63.0,0,240,1.0,0.0
2527,75.0,0,240,1.0,0.0
2528,47.0,0,120,5.0,0.0
2529,46.0,120,480,5.0,0.0
2530,66.0,120,240,1.0,0.0
2531,78.0,0,240,1.0,0.0
2532,49.0,120,15,4.0,0.0
2533,76.0,0,120,1.0,0.0
2534,64.0,0,120,1.0,0.0
2535,54.0,0,120,4.0,0.0
2536,75.0,0,120,1.0,0.0
2537,63.0,0,120,1.0,0.0
2538,73.0,120,240,1.0,0.0
2539,61.0,0,240,1.0,0.0
2540,45.0,0,480,5.0,0.0
2541,52.0,120,15,4.0,0.0
2542,63.0,0,120,1.0,0.0
2543,75.0,0,120,1.0,0.0
2544,76.0,240,120,1.0,0.0
2545,64.0,0,120,1.0,0.0
2546,49.0,0,120,4.0,0.0
2547,44.0,0,240,5.0,0.0
2548,56.0,0,240,1.0,0.0
2549,52.0,0,120,4.0,0.0
2550,49.0,0,120,4.0,0.0
2551,61.0,0,120,2.0,0.0
2552,64.0,240,120,2.0,0.0
2553,45.0,0,240,5.0,0.0
2554,57.0,0,240,1.0,0.0
2555,64.0,0,120,2.0,0.0
2556,49.0,240,120,4.0,0.0
2557,52.0,0,120,4.0,0.0
2558,61.0,0,120,2.0,0.0
2559,42.0,0,240,5.0,0.0
2560,54.0,0,240,1.0,0.0
2561,51.0,240,120,4.0,0.0
2562,61.0,0,120,2.0,0.0
2563,63.0,0,120,2.0,0.0
2564,49.0,0,120,4.0,0.0
2565,56.0,0,240,1.0,0.0
2566,44.0,0,240,5.0,0.0
2567,63.0,240,120,2.0,0.0
2568,48.0,0,120,4.0,0.0
2569,51.0,0,120,4.0,0.0
2570,60.0,0,120,2.0,0.0
2571,54.0,240,240,1.0,0.0
2572,45.0,0,240,4.0,0.0
2573,49.0,0,720,4.0,0.0
2574,44.0,0,240,4.0,0.0
2575,52.0,240,240,1.0,0.0
2576,42.0,0,240,4.0,0.0
2577,51.0,0,240,1.0,0.0
2578,40.0,0,240,4.0,0.0
2579,49.0,0,240,1.0,0.0
2580,61.0,120,120,1.0,0.0
2581,37.0,120,15,5.0,0.0
2582,63.0,0,120,1.0,0.0
2583,64.0,0,240,1.0,0.0
2584,42.0,120,120,5.0,0.0
2585,73.0,0,240,2.0,0.0
2586,49.0,0,120,4.0,0.0
2587,63.0,120,120,1.0,0.0
2588,69.0,120,15,2.0,0.0
2589,54.0,0,120,4.0,0.0
2590,64.0,0,120,1.0,0.0
2591,57.0,0,600,4.0,0.0
2592,63.0,120,240,1.0,0.0
2593,54.0,120,480,5.0,0.0
2594,69.0,240,15,2.0,0.0
2595,73.0,0,15,2.0,0.0
2596,61.0,120,120,1.0,0.0
2597,63.0,0,120,1.0,0.0
2598,69.0,120,240,2.0,0.0
2599,66.0,0,120,1.0,0.0
2600,45.0,120,120,5.0,0.0
2601,49.0,0,120,4.0,0.0
2602,64.0,0,120,1.0,0.0
2603,54.0,0,120,4.0,0.0
2604,63.0,120,120,1.0,0.0
2605,73.0,0,15,2.0,0.0
2606,57.0,0,600,4.0,0.0
2607,64.0,0,120,1.0,0.0
2608,73.0,0,15,2.0,0.0
2609,69.0,240,15,2.0,0.0
2610,54.0,0,480,5.0,0.0
2611,63.0,120,240,1.0,0.0
2612,64.0,120,120,1.0,0.0
2613,66.0,0,120,1.0,0.0
2614,40.0,120,120,5.0,0.0
2615,68.0,120,240,1.0,0.0
2616,64.0,0,240,2.0,0.0
2617,73.0,0,240,2.0,0.0
2618,52.0,0,120,4.0,0.0
2619,56.0,120,120,4.0,0.0
2620,66.0,0,120,1.0,0.0
2621,61.0,120,120,4.0,0.0
2622,68.0,0,120,1.0,0.0
2623,69.0,0,240,1.0,0.0
2624,64.0,0,15,2.0,0.0
2625,73.0,0,15,2.0,0.0
2626,37.0,120,120,5.0,0.0
2627,52.0,120,120,4.0,0.0
2628,64.0,0,240,2.0,0.0
2629,73.0,0,240,2.0,0.0
2630,68.0,0,120,1.0,0.0
2631,57.0,120,120,4.0,0.0
2632,69.0,120,120,1.0,0.0
2633,61.0,0,120,4.0,0.0
2634,39.0,120,120,5.0,0.0
2635,75.0,0,240,2.0,0.0
2636,66.0,0,240,2.0,0.0
2637,71.0,0,240,1.0,0.0
2638,51.0,120,120,4.0,0.0
2639,68.0,120,120,1.0,0.0
2640,73.0,120,240,2.0,0.0
2641,64.0,0,240,2.0,0.0
2642,40.0,0,120,5.0,0.0
2643,69.0,0,120,1.0,0.0
2644,52.0,0,120,4.0,0.0
2645,66.0,0,240,1.0,0.0
2646,42.0,120,120,5.0,0.0
2647,72.0,0,240,2.0,0.0
2648,63.0,0,240,2.0,0.0
2649,54.0,120,120,4.0,0.0
2650,44.0,120,120,5.0,0.0
2651,61.0,0,240,2.0,0.0
2652,73.0,0,240,2.0,0.0
2653,68.0,0,120,1.0,0.0
2654,56.0,120,120,4.0,0.0
2655,64.0,0,120,1.0,0.0
2656,71.0,0,360,2.0,0.0
2657,63.0,0,360,2.0,0.0
2658,66.0,0,480,1.0,0.0
2659,42.0,120,120,5.0,0.0
2660,54.0,120,120,4.0,0.0
2661,39.0,120,120,5.0,0.0
2662,51.0,240,120,4.0,0.0
2663,61.0,0,120,2.0,0.0
2664,69.0,0,120,2.0,0.0
2665,63.0,0,240,1.0,0.0
2666,68.0,0,240,2.0,0.0
2667,44.0,120,240,5.0,0.0
2668,60.0,0,240,2.0,0.0
2669,69.0,0,240,2.0,0.0
2670,61.0,0,120,1.0,0.0
2671,42.0,120,120,5.0,0.0
2672,49.0,0,120,4.0,0.0
2673,63.0,0,120,1.0,0.0
2674,54.0,120,120,5.0,0.0
2675,64.0,0,240,1.0,0.0
2676,73.0,120,15,2.0,0.0
2677,57.0,0,120,4.0,0.0
2678,69.0,120,15,2.0,0.0
2679,73.0,0,15,2.0,0.0
2680,63.0,0,120,1.0,0.0
2681,54.0,120,120,4.0,0.0
2682,57.0,0,120,4.0,0.0
2683,64.0,0,120,1.0,0.0
2684,54.0,120,120,4.0,0.0
2685,73.0,0,15,2.0,0.0
2686,63.0,120,240,1.0,0.0
2687,69.0,120,15,2.0,0.0
2688,49.0,0,120,4.0,0.0
2689,61.0,120,120,1.0,0.0
2690,45.0,0,120,5.0,0.0
2691,73.0,0,15,2.0,0.0
2692,69.0,0,240,2.0,0.0
2693,49.0,0,120,4.0,0.0
2694,63.0,120,120,1.0,0.0
2695,73.0,0,15,2.0,0.0
2696,57.0,0,120,4.0,0.0
2697,66.0,120,120,1.0,0.0
2698,64.0,120,120,1.0,0.0
2699,54.0,0,120,4.0,0.0
2700,73.0,0,15,2.0,0.0
2701,69.0,0,15,2.0,0.0
2702,57.0,0,120,4.0,0.0
2703,63.0,120,120,1.0,0.0
2704,54.0,0,120,4.0,0.0
2705,64.0,0,120,1.0,0.0
2706,69.0,120,15,2.0,0.0
2707,73.0,0,15,2.0,0.0
2708,63.0,120,240,1.0,0.0
2709,49.0,120,120,4.0,0.0
2710,45.0,0,120,4.0,0.0
2711,69.0,0,240,2.0,0.0
2712,39.0,0,120,5.0,0.0
2713,64.0,120,120,1.0,0.0
2714,51.0,0,120,4.0,0.0
2715,66.0,0,120,1.0,0.0
2716,40.0,120,120,5.0,0.0
2717,73.0,120,15,2.0,0.0
2718,68.0,0,240,1.0,0.0
2719,64.0,0,240,2.0,0.0
2720,52.0,120,120,4.0,0.0
2721,66.0,0,120,1.0,0.0
2722,73.0,0,15,2.0,0.0
2723,56.0,120,120,4.0,0.0
2724,68.0,120,120,1.0,0.0
2725,61.0,0,120,4.0,0.0
2726,76.0,0,240,2.0,0.0
2727,64.0,0,15,2.0,0.0
2728,37.0,120,120,5.0,0.0
2729,70.0,120,240,1.0,0.0
2730,52.0,0,120,4.0,0.0
2731,68.0,0,120,1.0,0.0
2732,76.0,0,240,2.0,0.0
2733,58.0,120,120,4.0,0.0
2734,64.0,0,240,2.0,0.0
2735,61.0,120,120,4.0,0.0
2736,70.0,0,120,1.0,0.0
2737,71.0,0,240,1.0,0.0
2738,39.0,120,120,5.0,0.0
2739,66.0,0,240,2.0,0.0
2740,75.0,0,240,2.0,0.0
2741,51.0,120,120,4.0,0.0
2742,68.0,120,120,1.0,0.0
2743,64.0,120,240,2.0,0.0
2744,73.0,0,240,2.0,0.0
2745,40.0,0,120,5.0,0.0
2746,70.0,0,120,1.0,0.0
2747,52.0,0,120,4.0,0.0
2748,42.0,120,120,5.0,0.0
2749,66.0,120,240,1.0,0.0
2750,71.0,0,240,2.0,0.0
2751,63.0,0,240,2.0,0.0
2752,54.0,0,120,4.0,0.0
2753,68.0,0,240,2.0,0.0
2754,34.0,0,120,5.0,0.0
2755,56.0,0,240,2.0,0.0
2756,64.0,120,120,1.0,0.0
2757,61.0,240,120,1.0,0.0
2758,46.0,0,120,4.0,0.0
2759,39.0,0,240,5.0,0.0
2760,56.0,0,240,4.0,0.0
2761,59.0,0,240,4.0,0.0
2762,51.0,0,120,4.0,0.0
2763,63.0,240,15,1.0,0.0
2764,58.0,0,240,4.0,0.0
2765,55.0,240,240,4.0,0.0
2766,32.0,0,240,5.0,0.0
2767,56.0,240,240,1.0,0.0
2768,44.0,0,120,4.0,0.0
2769,56.0,240,240,4.0,0.0
2770,68.0,0,240,1.0,0.0
2771,69.0,0,240,1.0,0.0
2772,45.0,240,240,5.0,0.0
2773,57.0,0,240,4.0,0.0
2774,64.0,240,240,1.0,0.0
2775,40.0,0,240,5.0,0.0
2776,37.0,0,240,5.0,0.0
2777,61.0,240,240,1.0,0.0
2778,49.0,0,240,4.0,0.0
2779,40.0,240,240,5.0,0.0
2780,64.0,0,240,1.0,0.0
2781,68.0,240,240,1.0,0.0
2782,56.0,0,240,4.0,0.0
2783,44.0,0,240,5.0,0.0
2784,63.0,0,240,1.0,0.0
2785,39.0,240,240,5.0,0.0
2786,47.0,0,240,4.0,0.0
2787,59.0,0,240,1.0,0.0
2788,35.0,240,240,5.0,0.0
2789,63.0,0,240,1.0,0.0
2790,39.0,240,240,5.0,0.0
2791,66.0,120,240,1.0,0.0
2792,42.0,0,240,5.0,0.0
2793,54.0,0,240,4.0,0.0
2794,40.0,0,120,5.0,0.0
2795,52.0,0,120,4.0,0.0
2796,64.0,120,120,1.0,0.0
2797,51.0,0,120,4.0,0.0
2798,39.0,240,120,5.0,0.0
2799,63.0,0,120,1.0,0.0
2800,61.0,0,240,1.0,0.0
2801,37.0,0,240,5.0,0.0
2802,49.0,120,240,4.0,0.0
2803,59.0,120,120,1.0,0.0
2804,47.0,0,120,4.0,0.0
2805,35.0,0,120,5.0,0.0
2806,58.0,0,120,1.0,0.0
2807,34.0,0,120,5.0,0.0
2808,46.0,240,120,4.0,0.0
2809,51.0,0,240,4.0,0.0
2810,39.0,0,240,5.0,0.0
2811,63.0,240,240,1.0,0.0
2812,52.0,240,240,4.0,0.0
2813,40.0,0,240,5.0,0.0
2814,64.0,0,240,1.0,0.0
2815,49.0,0,240,4.0,0.0
2816,61.0,0,240,1.0,0.0
2817,37.0,240,240,5.0,0.0
2818,39.0,240,240,5.0,0.0
2819,51.0,0,240,4.0,0.0
2820,63.0,0,240,1.0,0.0
2821,44.0,0,720,4.0,0.0
2822,52.0,0,240,4.0,0.0
2823,61.0,0,240,1.0,0.0
2824,32.0,240,720,5.0,0.0
2825,55.0,240,240,2.0,0.0
2826,59.0,240,240,2.0,0.0
2827,56.0,0,240,4.0,0.0
2828,51.0,0,240,4.0,0.0
2829,54.0,0,240,4.0,0.0
2830,49.0,0,240,4.0,0.0
2831,58.0,0,240,2.0,0.0
2832,56.0,0,240,2.0,0.0
2833,68.0,0,240,1.0,0.0
2834,44.0,0,240,5.0,0.0
2835,80.0,0,240,1.0,0.0
2836,47.0,120,240,4.0,0.0
2837,69.0,120,240,1.0,0.0
2838,81.0,0,240,1.0,0.0
2839,49.0,120,480,5.0,0.0
2840,52.0,120,120,4.0,0.0
2841,52.0,120,240,4.0,0.0
2842,76.0,0,240,1.0,0.0
2843,64.0,0,240,1.0,0.0
2844,57.0,0,120,4.0,0.0
2845,56.0,0,480,4.0,0.0
2846,61.0,120,240,1.0,0.0
2847,73.0,0,240,1.0,0.0
2848,52.0,120,15,5.0,0.0
2849,76.0,0,240,1.0,0.0
2850,64.0,0,240,1.0,0.0
2851,49.0,120,120,5.0,0.0
2852,47.0,120,480,5.0,0.0
2853,68.0,120,240,1.0,0.0
2854,80.0,0,240,1.0,0.0
2855,51.0,120,120,4.0,0.0
2856,51.0,120,240,4.0,0.0
2857,63.0,0,240,1.0,0.0
2858,75.0,0,240,1.0,0.0
2859,56.0,0,120,4.0,0.0
2860,54.0,120,480,4.0,0.0
2861,59.0,0,240,1.0,0.0
2862,71.0,120,240,1.0,0.0
2863,51.0,120,15,5.0,0.0
2864,75.0,0,240,1.0,0.0
2865,63.0,0,240,1.0,0.0
2866,47.0,0,120,5.0,0.0
2867,46.0,120,480,5.0,0.0
2868,78.0,0,240,1.0,0.0
2869,66.0,120,240,1.0,0.0
2870,49.0,120,120,4.0,0.0
2871,49.0,0,240,4.0,0.0
2872,76.0,120,120,1.0,0.0
2873,64.0,0,120,1.0,0.0
2874,63.0,0,120,1.0,0.0
2875,75.0,0,120,1.0,0.0
2876,54.0,0,120,4.0,0.0
2877,61.0,0,240,1.0,0.0
2878,52.0,120,120,4.0,0.0
2879,45.0,0,480,5.0,0.0
2880,73.0,120,240,1.0,0.0
2881,52.0,0,240,4.0,0.0
2882,63.0,0,120,1.0,0.0
2883,75.0,120,120,1.0,0.0
2884,49.0,0,120,4.0,0.0
2885,76.0,0,120,1.0,0.0
2886,64.0,240,120,1.0,0.0
2887,44.0,0,240,5.0,0.0
2888,68.0,0,240,1.0,0.0
2889,49.0,0,120,4.0,0.0
2890,52.0,240,120,4.0,0.0
2891,61.0,0,120,2.0,0.0
2892,64.0,0,120,2.0,0.0
2893,56.0,0,120,5.0,0.0
2894,69.0,0,240,1.0,0.0
2895,45.0,0,240,5.0,0.0
2896,57.0,0,120,5.0,0.0
2897,61.0,0,120,2.0,0.0
2898,64.0,0,120,2.0,0.0
2899,49.0,0,120,4.0,0.0
2900,52.0,240,120,4.0,0.0
2901,42.0,0,240,5.0,0.0
2902,66.0,240,240,1.0,0.0
2903,51.0,0,120,4.0,0.0
2904,49.0,0,120,4.0,0.0
2905,63.0,0,120,2.0,0.0
2906,61.0,0,120,2.0,0.0
2907,54.0,0,120,5.0,0.0
2908,68.0,0,240,1.0,0.0
2909,44.0,240,240,5.0,0.0
2910,56.0,0,120,5.0,0.0
2911,48.0,0,120,4.0,0.0
2912,60.0,0,120,2.0,0.0
2913,63.0,0,120,2.0,0.0
2914,51.0,0,120,4.0,0.0
2915,45.0,240,240,4.0,0.0
2916,49.0,0,720,4.0,0.0
2917,61.0,0,720,1.0,0.0
2918,54.0,0,240,1.0,0.0
2919,44.0,0,240,4.0,0.0
2920,52.0,240,240,1.0,0.0
2921,42.0,0,240,4.0,0.0
2922,51.0,120,240,1.0,0.0
2923,61.0,0,120,1.0,0.0
2924,49.0,720,240,1.0,0.0
2925,37.0,0,15,5.0,0.0
2926,40.0,0,240,4.0,0.0
2927,73.0,120,120,1.0,0.0
2928,63.0,0,120,1.0,0.0
2929,75.0,0,120,1.0,0.0
2930,76.0,0,720,1.0,0.0
2931,68.0,120,720,2.0,0.0
2932,73.0,0,720,2.0,0.0
2933,37.0,0,960,5.0,0.0
2934,64.0,0,720,1.0,0.0
2935,44.0,720,720,4.0,0.0
2936,49.0,0,720,4.0,0.0
2937,52.0,0,480,4.0,0.0
2938,56.0,0,480,4.0,0.0
2939,75.0,0,120,1.0,0.0
2940,63.0,120,120,1.0,0.0
2941,76.0,0,120,1.0,0.0
2942,64.0,0,120,1.0,0.0
2943,68.0,0,720,2.0,0.0
2944,63.0,0,720,1.0,0.0
2945,75.0,120,720,1.0,0.0
2946,73.0,0,720,2.0,0.0
2947,44.0,0,720,4.0,0.0
2948,49.0,0,720,4.0,0.0
2949,51.0,360,480,4.0,0.0
2950,56.0,0,480,4.0,0.0
2951,61.0,120,120,1.0,0.0
2952,73.0,0,120,1.0,0.0
2953,75.0,0,120,1.0,0.0
2954,63.0,0,120,1.0,0.0
2955,37.0,0,15,5.0,0.0
2956,78.0,0,360,1.0,0.0
2957,66.0,120,360,1.0,0.0
2958,44.0,0,720,4.0,0.0
2959,49.0,120,720,4.0,0.0
2960,76.0,120,120,1.0,0.0
2961,64.0,0,120,1.0,0.0
2962,63.0,0,120,1.0,0.0
2963,75.0,120,120,1.0,0.0
2964,52.0,0,480,4.0,0.0
2965,56.0,0,480,4.0,0.0
2966,64.0,120,120,1.0,0.0
2967,76.0,0,120,1.0,0.0
2968,66.0,120,120,1.0,0.0
2969,78.0,0,120,1.0,0.0
2970,76.0,0,120,1.0,0.0
2971,64.0,0,120,1.0,0.0
2972,75.0,0,120,1.0,0.0
2973,63.0,120,120,1.0,0.0
2974,73.0,0,15,2.0,0.0
2975,68.0,0,15,2.0,0.0
2976,76.0,240,120,1.0,0.0
2977,64.0,0,120,1.0,0.0
2978,75.0,0,600,1.0,0.0
2979,49.0,0,240,4.0,0.0
2980,44.0,0,480,4.0,0.0
2981,63.0,113,600,1.0,0.0
2982,72.0,0,480,2.0,0.0
2983,56.0,0,240,4.0,0.0
2984,51.0,127,240,4.0,0.0
2985,66.0,0,480,2.0,0.0
2986,60.0,480,240,4.0,0.0
2987,54.0,0,240,4.0,0.0
2988,61.0,0,120,1.0,0.0
2989,73.0,0,15,1.0,0.0
2990,37.0,0,15,5.0,0.0
2991,61.0,0,720,1.0,0.0
2992,68.0,0,720,2.0,0.0
2993,64.0,0,720,2.0,0.0
2994,44.0,240,240,4.0,0.0
2995,56.0,240,480,4.0,0.0
2996,52.0,0,480,4.0,0.0
2997,49.0,0,240,4.0,0.0
2998,64.0,240,480,1.0,0.0
2999,52.0,120,120,1.0,0.0
3000,61.0,120,120,4.0,0.0
3001,33.0,120,960,5.0,0.0
3002,52.0,120,120,4.0,0.0
3003,61.0,0,120,4.0,0.0
3004,77.0,0,480,1.0,0.0
3005,65.0,5,480,1.0,0.0
3006,62.0,120,120,4.0,0.0
3007,59.0,115,120,4.0,0.0
3008,52.0,120,120,4.0,0.0
3009,64.0,0,480,1.0,0.0
3010,76.0,0,480,1.0,0.0
3011,73.0,120,120,4.0,0.0
3012,64.0,120,120,4.0,0.0
3013,73.0,120,120,4.0,0.0
3014,83.0,5,480,1.0,0.0
3015,95.0,0,480,1.0,0.0
3016,77.0,120,120,4.0,0.0
3017,74.0,120,120,4.0,0.0
3018,64.0,115,120,4.0,0.0
3019,74.0,120,120,4.0,0.0
3020,80.0,0,480,1.0,0.0
3021,68.0,120,120,1.0,0.0
3022,45.0,0,15,5.0,0.0
3023,76.0,120,120,4.0,0.0
3024,68.0,120,120,4.0,0.0
3025,76.0,120,120,4.0,0.0
3026,69.0,5,480,1.0,0.0
3027,81.0,120,480,1.0,0.0
3028,66.0,120,120,4.0,0.0
3029,62.0,120,120,4.0,0.0
3030,54.0,115,120,4.0,0.0
3031,62.0,0,120,4.0,0.0
3032,60.0,5,1800,1.0,0.0
3033,72.0,120,1800,1.0,0.0
3034,33.0,120,120,5.0,0.0
3035,42.0,120,120,4.0,0.0
3036,63.0,120,240,2.0,0.0
3037,45.0,120,120,4.0,0.0
3038,48.0,0,120,4.0,0.0
3039,66.0,0,240,2.0,0.0
3040,51.0,120,120,4.0,0.0
3041,54.0,120,120,4.0,0.0
3042,68.0,120,240,2.0,0.0
3043,59.0,120,120,4.0,0.0
3044,57.0,0,120,4.0,0.0
3045,54.0,120,120,4.0,0.0
3046,71.0,120,240,2.0,0.0
3047,51.0,0,120,4.0,0.0
3048,69.0,0,240,2.0,0.0
3049,48.0,120,120,4.0,0.0
3050,47.0,120,120,4.0,0.0
3051,45.0,115,120,4.0,0.0
3052,66.0,0,240,2.0,0.0
3053,48.0,0,120,4.0,0.0
3054,51.0,120,120,4.0,0.0
3055,64.0,115,480,1.0,0.0
3056,52.0,120,120,1.0,0.0
3057,61.0,120,120,4.0,0.0
3058,33.0,120,960,5.0,0.0
3059,52.0,120,120,4.0,0.0
3060,61.0,5,120,4.0,0.0
3061,63.0,120,120,4.0,0.0
3062,65.0,0,480,1.0,0.0
3063,77.0,120,480,1.0,0.0
3064,59.0,120,120,4.0,0.0
3065,52.0,120,120,4.0,0.0
3066,59.0,0,120,4.0,0.0
3067,76.0,5,480,1.0,0.0
3068,64.0,0,120,1.0,0.0
3069,45.0,0,960,5.0,0.0
3070,73.0,120,120,4.0,0.0
3071,64.0,115,120,4.0,0.0
3072,73.0,120,120,4.0,0.0
3073,85.0,120,480,1.0,0.0
3074,97.0,0,480,1.0,0.0
3075,75.0,120,120,4.0,0.0
3076,66.0,120,120,4.0,0.0
3077,63.0,120,120,4.0,0.0
3078,66.0,0,120,4.0,0.0
3079,78.0,120,480,1.0,0.0
3080,66.0,120,120,1.0,0.0
3081,44.0,120,960,5.0,0.0
3082,75.0,120,120,4.0,0.0
3083,66.0,120,120,4.0,0.0
3084,75.0,0,120,4.0,0.0
3085,64.0,120,120,4.0,0.0
3086,71.0,10,480,1.0,0.0
3087,83.0,120,480,1.0,0.0
3088,56.0,120,120,4.0,0.0
3089,52.0,110,120,4.0,0.0
3090,56.0,0,120,4.0,0.0
3091,71.0,120,600,1.0,0.0
3092,59.0,0,600,1.0,0.0
3093,42.0,120,120,5.0,0.0
3094,49.0,120,120,4.0,0.0
3095,61.0,0,120,4.0,0.0
3096,52.0,120,120,4.0,0.0
3097,42.0,0,120,5.0,0.0
3098,57.0,0,480,1.0,0.0
3099,64.0,0,240,2.0,0.0
3100,69.0,0,480,1.0,0.0
3101,35.0,120,120,5.0,0.0
3102,47.0,120,120,4.0,0.0
3103,54.0,120,120,4.0,0.0
3104,63.0,0,240,2.0,0.0
3105,47.0,240,120,4.0,0.0
3106,28.0,0,960,5.0,0.0
3107,68.0,0,720,1.0,0.0
3108,56.0,105,720,1.0,0.0
3109,66.0,115,240,2.0,0.0
3110,40.0,5,120,4.0,0.0
3111,64.0,0,240,2.0,0.0
3112,44.0,120,120,4.0,0.0
3113,47.0,120,120,4.0,0.0
3114,62.0,5,360,2.0,0.0
3115,52.0,120,120,4.0,0.0
3116,56.0,10,120,4.0,0.0
3117,59.0,120,120,4.0,0.0
3118,61.0,120,480,1.0,0.0
3119,49.0,120,120,1.0,0.0
3120,56.0,120,120,4.0,0.0
3121,41.0,0,960,5.0,0.0
3122,49.0,120,120,4.0,0.0
3123,56.0,0,120,4.0,0.0
3124,74.0,0,480,1.0,0.0
3125,59.0,120,120,4.0,0.0
3126,62.0,120,480,1.0,0.0
3127,56.0,120,120,4.0,0.0
3128,49.0,120,120,4.0,0.0
3129,56.0,0,120,4.0,0.0
3130,61.0,120,120,1.0,0.0
3131,73.0,0,480,1.0,0.0
3132,40.0,120,960,5.0,0.0
3133,67.0,120,120,4.0,0.0
3134,61.0,120,120,4.0,0.0
3135,67.0,120,120,4.0,0.0
3136,86.0,0,480,1.0,0.0
3137,70.0,120,120,4.0,0.0
3138,74.0,0,480,1.0,0.0
3139,67.0,120,120,4.0,0.0
3140,58.0,120,120,4.0,0.0
3141,67.0,120,120,4.0,0.0
3142,73.0,5,480,1.0,0.0
3143,61.0,0,120,1.0,0.0
3144,39.0,120,960,5.0,0.0
3145,67.0,120,120,4.0,0.0
3146,61.0,115,120,4.0,0.0
3147,67.0,120,120,4.0,0.0
3148,64.0,120,120,4.0,0.0
3149,70.0,0,480,1.0,0.0
3150,58.0,0,480,1.0,0.0
3151,55.0,120,120,4.0,0.0
3152,51.0,120,120,4.0,0.0
3153,55.0,120,120,4.0,0.0
3154,62.0,115,240,2.0,0.0
3155,71.0,0,240,1.0,0.0
3156,26.0,5,120,5.0,0.0
3157,61.0,120,240,2.0,0.0
3158,38.0,120,120,4.0,0.0
3159,69.0,115,240,1.0,0.0
3160,59.0,5,240,2.0,0.0
3161,67.0,0,240,1.0,0.0
3162,38.0,120,120,5.0,0.0
3163,56.0,120,240,2.0,0.0
3164,50.0,125,120,4.0,0.0
3165,65.0,115,240,1.0,0.0
3166,57.0,115,240,2.0,0.0
3167,66.0,5,240,1.0,0.0
3168,33.0,0,120,5.0,0.0
3169,59.0,120,240,2.0,0.0
3170,45.0,120,120,4.0,0.0
3171,68.0,5,240,1.0,0.0
3172,60.0,115,120,2.0,0.0
3173,30.0,120,120,5.0,0.0
3174,69.0,120,240,1.0,0.0
3175,42.0,0,120,4.0,0.0
3176,51.0,120,240,2.0,0.0
3177,60.0,0,120,1.0,0.0
3178,61.0,5,480,1.0,0.0
3179,49.0,120,120,1.0,0.0
3180,29.0,120,120,5.0,0.0
3181,56.0,0,120,4.0,0.0
3182,41.0,0,120,5.0,0.0
3183,49.0,115,120,4.0,0.0
3184,56.0,120,120,4.0,0.0
3185,74.0,120,480,1.0,0.0
3186,59.0,120,120,4.0,0.0
3187,62.0,5,480,1.0,0.0
3188,56.0,120,120,4.0,0.0
3189,49.0,115,120,4.0,0.0
3190,56.0,0,120,4.0,0.0
3191,61.0,120,120,1.0,0.0
3192,73.0,120,480,1.0,0.0
3193,47.0,0,120,5.0,0.0
3194,35.0,120,120,5.0,0.0
3195,68.0,0,120,4.0,0.0
3196,61.0,120,120,4.0,0.0
3197,68.0,0,120,4.0,0.0
3198,65.0,120,120,4.0,0.0
3199,86.0,240,480,1.0,0.0
3200,74.0,0,480,1.0,0.0
3201,56.0,120,120,4.0,0.0
3202,53.0,120,120,4.0,0.0
3203,56.0,0,120,4.0,0.0
3204,73.0,120,360,1.0,0.0
3205,34.0,0,480,5.0,0.0
3206,67.0,120,120,2.0,0.0
3207,64.0,0,120,2.0,0.0
3208,46.0,0,120,4.0,0.0
3209,67.0,1,120,2.0,0.0
3210,50.0,0,120,4.0,0.0
3211,74.0,0,240,1.0,0.0
3212,55.0,120,120,4.0,0.0
3213,62.0,119,15,2.0,0.0
3214,52.0,0,120,4.0,0.0
3215,46.0,0,480,5.0,0.0
3216,68.0,120,120,2.0,0.0
3217,73.0,0,240,1.0,0.0
3218,55.0,120,120,4.0,0.0
3219,64.0,0,120,2.0,0.0
3220,74.0,0,240,1.0,0.0
3221,50.0,0,120,4.0,0.0
3222,68.0,120,120,2.0,0.0
3223,55.0,120,120,4.0,0.0
3224,62.0,0,120,2.0,0.0
3225,33.0,120,120,5.0,0.0
3226,75.0,120,240,1.0,0.0
3227,66.0,115,240,2.0,0.0
3228,45.0,0,120,4.0,0.0
3229,76.0,0,240,1.0,0.0
3230,49.0,5,120,4.0,0.0
3231,67.0,115,240,2.0,0.0
3232,52.0,120,120,4.0,0.0
3233,73.0,5,240,1.0,0.0
3234,45.0,0,120,4.0,0.0
3235,49.0,120,120,4.0,0.0
3236,64.0,0,240,2.0,0.0
3237,69.0,115,240,1.0,0.0
3238,52.0,110,120,4.0,0.0
3239,57.0,5,120,4.0,0.0
3240,61.0,10,120,2.0,0.0
3241,38.0,120,120,5.0,0.0
3242,67.0,115,480,1.0,0.0
3243,57.0,120,360,2.0,0.0
3244,45.0,120,120,4.0,0.0
3245,50.0,0,120,4.0,0.0
3246,45.0,5,120,4.0,0.0
3247,59.0,0,120,2.0,0.0
3248,60.0,0,360,2.0,0.0
3249,66.0,120,360,1.0,0.0
3250,39.0,120,120,5.0,0.0
3251,45.0,120,120,4.0,0.0
3252,51.0,0,120,4.0,0.0
3253,64.0,0,480,1.0,0.0
3254,52.0,120,120,1.0,0.0
3255,61.0,0,120,4.0,0.0
3256,40.0,120,120,5.0,0.0
3257,52.0,120,120,4.0,0.0
3258,61.0,120,120,4.0,0.0
3259,77.0,115,480,1.0,0.0
3260,65.0,5,480,1.0,0.0
3261,62.0,120,120,4.0,0.0
3262,59.0,120,120,4.0,0.0
3263,52.0,120,120,4.0,0.0
3264,59.0,0,120,4.0,0.0
3265,76.0,115,480,1.0,0.0
3266,64.0,120,120,1.0,0.0
3267,73.0,0,120,4.0,0.0
3268,40.0,120,120,5.0,0.0
3269,64.0,120,120,4.0,0.0
3270,73.0,5,120,4.0,0.0
3271,77.0,120,120,4.0,0.0
3272,95.0,0,480,1.0,0.0
3273,83.0,5,480,1.0,0.0
3274,74.0,120,120,4.0,0.0
3275,64.0,115,120,4.0,0.0
3276,74.0,120,120,4.0,0.0
3277,80.0,5,480,1.0,0.0
3278,68.0,120,120,1.0,0.0
3279,76.0,120,120,4.0,0.0
3280,33.0,0,120,5.0,0.0
3281,68.0,115,120,4.0,0.0
3282,76.0,120,120,4.0,0.0
3283,66.0,120,120,4.0,0.0
3284,69.0,0,480,1.0,0.0
3285,81.0,0,480,1.0,0.0
3286,62.0,120,120,4.0,0.0
3287,54.0,120,120,4.0,0.0
3288,62.0,240,120,4.0,0.0
3289,60.0,8,1800,1.0,0.0
3290,72.0,0,1800,1.0,0.0
3291,33.0,120,120,5.0,0.0
3292,39.0,120,120,4.0,0.0
3293,63.0,120,240,2.0,0.0
3294,45.0,120,120,4.0,0.0
3295,48.0,0,120,4.0,0.0
3296,51.0,120,120,4.0,0.0
3297,66.0,0,240,2.0,0.0
3298,54.0,120,120,4.0,0.0
3299,59.0,120,120,4.0,0.0
3300,68.0,240,240,2.0,0.0
3301,57.0,0,120,4.0,0.0
3302,71.0,0,240,2.0,0.0
3303,57.0,120,120,4.0,0.0
3304,69.0,0,240,2.0,0.0
3305,54.0,120,120,4.0,0.0
3306,51.0,120,120,4.0,0.0
3307,66.0,0,240,2.0,0.0
3308,48.0,112,120,4.0,0.0
3309,57.0,120,120,4.0,0.0
3310,63.0,120,120,4.0,0.0
3311,52.0,120,120,1.0,0.0
3312,64.0,110,480,1.0,0.0
3313,33.0,120,120,5.0,0.0
3314,61.0,0,120,4.0,0.0
3315,52.0,120,120,4.0,0.0
3316,61.0,10,120,4.0,0.0
3317,62.0,120,120,4.0,0.0
3318,65.0,0,480,1.0,0.0
3319,77.0,120,480,1.0,0.0
3320,59.0,120,120,4.0,0.0
3321,52.0,120,120,4.0,0.0
3322,59.0,0,120,4.0,0.0
3323,76.0,105,480,1.0,0.0
3324,52.0,120,120,1.0,0.0
3325,73.0,0,120,4.0,0.0
3326,45.0,120,120,5.0,0.0
3327,64.0,120,120,4.0,0.0
3328,73.0,15,120,4.0,0.0
3329,85.0,0,480,1.0,0.0
3330,97.0,115,480,1.0,0.0
3331,79.0,120,120,4.0,0.0
3332,76.0,120,120,4.0,0.0
3333,67.0,120,120,4.0,0.0
3334,76.0,5,120,4.0,0.0
3335,70.0,120,120,1.0,0.0
3336,82.0,115,480,1.0,0.0
3337,39.0,120,120,5.0,0.0
3338,73.0,0,120,4.0,0.0
3339,70.0,120,120,4.0,0.0
3340,73.0,5,120,4.0,0.0
3341,71.0,10,480,1.0,0.0
3342,74.0,120,120,4.0,0.0
3343,83.0,350,480,1.0,0.0
3344,66.0,120,120,4.0,0.0
3345,62.0,120,120,4.0,0.0
3346,66.0,0,120,4.0,0.0
3347,53.0,0,600,1.0,0.0
3348,65.0,0,600,1.0,0.0
3349,28.0,0,480,5.0,0.0
3350,40.0,120,120,4.0,0.0
3351,58.0,0,240,2.0,0.0
3352,44.0,120,120,4.0,0.0
3353,50.0,120,120,4.0,0.0
3354,52.0,240,480,1.0,0.0
3355,44.0,120,120,4.0,0.0
3356,64.0,0,480,1.0,0.0
3357,59.0,0,240,2.0,0.0
3358,40.0,120,120,4.0,0.0
3359,44.0,120,120,4.0,0.0
3360,61.0,0,240,2.0,0.0
3361,50.0,0,120,4.0,0.0
3362,33.0,1080,720,5.0,0.0
3363,62.0,0,480,1.0,0.0
3364,59.0,240,480,2.0,0.0
3365,52.0,0,720,1.0,0.0
3366,40.0,120,120,4.0,0.0
3367,44.0,120,120,4.0,0.0
3368,45.0,0,120,4.0,0.0
3369,61.0,0,240,1.0,0.0
3370,57.0,0,240,2.0,0.0
3371,32.0,0,240,5.0,0.0
3372,72.0,120,120,1.0,0.0
3373,78.0,120,240,2.0,0.0
3374,73.0,0,120,1.0,0.0
3375,69.0,120,120,1.0,0.0
3376,44.0,0,720,5.0,0.0
3377,54.0,0,720,4.0,0.0
3378,78.0,0,240,2.0,0.0
3379,51.0,0,720,4.0,0.0
3380,71.0,0,120,1.0,0.0
3381,66.0,120,120,1.0,0.0
3382,75.0,120,15,2.0,0.0
3383,68.0,0,120,1.0,0.0
3384,63.0,120,120,1.0,0.0
3385,69.0,0,240,2.0,0.0
3386,72.0,0,15,2.0,0.0
3387,64.0,120,120,1.0,0.0
3388,32.0,0,240,5.0,0.0
3389,60.0,120,120,1.0,0.0
3390,61.0,240,120,1.0,0.0
3391,54.0,0,720,4.0,0.0
3392,51.0,0,720,4.0,0.0
3393,66.0,0,15,2.0,0.0
3394,69.0,0,15,2.0,0.0
3395,44.0,0,720,5.0,0.0
3396,63.0,0,240,1.0,0.0
3397,66.0,120,15,2.0,0.0
3398,60.0,120,120,1.0,0.0
3399,61.0,0,120,1.0,0.0
3400,68.0,0,15,2.0,0.0
3401,63.0,120,240,1.0,0.0
3402,66.0,240,15,2.0,0.0
3403,69.0,0,240,2.0,0.0
3404,66.0,0,240,2.0,0.0
3405,59.0,120,120,1.0,0.0
3406,38.0,240,240,5.0,0.0
3407,61.0,0,120,1.0,0.0
3408,69.0,0,240,2.0,0.0
3409,50.0,0,720,4.0,0.0
3410,62.0,0,240,1.0,0.0
3411,54.0,0,720,4.0,0.0
3412,47.0,1080,720,5.0,0.0
3413,59.0,120,120,1.0,0.0
3414,66.0,120,15,2.0,0.0
3415,61.0,240,120,1.0,0.0
3416,66.0,0,15,2.0,0.0
3417,68.0,0,15,2.0,0.0
3418,62.0,0,240,1.0,0.0
3419,80.0,120,240,2.0,0.0
3420,34.0,0,240,5.0,0.0
3421,74.0,120,120,1.0,0.0
3422,75.0,0,120,1.0,0.0
3423,71.0,120,120,1.0,0.0
3424,46.0,0,720,5.0,0.0
3425,53.0,120,720,4.0,0.0
3426,56.0,0,720,4.0,0.0
3427,80.0,120,240,2.0,0.0
3428,73.0,0,120,1.0,0.0
3429,77.0,0,15,2.0,0.0
3430,68.0,120,120,1.0,0.0
3431,74.0,0,240,2.0,0.0
3432,70.0,0,120,1.0,0.0
3433,65.0,120,120,1.0,0.0
3434,74.0,0,240,2.0,0.0
3435,66.0,0,120,1.0,0.0
3436,71.0,0,15,2.0,0.0
3437,34.0,0,240,5.0,0.0
3438,62.0,120,120,1.0,0.0
3439,63.0,0,120,1.0,0.0
3440,65.0,120,240,1.0,0.0
3441,46.0,0,720,5.0,0.0
3442,53.0,0,720,4.0,0.0
3443,56.0,0,720,4.0,0.0
3444,71.0,0,15,2.0,0.0
3445,68.0,240,15,2.0,0.0
3446,62.0,120,120,1.0,0.0
3447,70.0,0,240,2.0,0.0
3448,63.0,240,120,1.0,0.0
3449,68.0,0,15,2.0,0.0
3450,70.0,0,240,2.0,0.0
3451,65.0,120,240,1.0,0.0
3452,68.0,0,15,2.0,0.0
3453,40.0,0,240,5.0,0.0
3454,61.0,120,120,1.0,0.0
3455,63.0,240,120,1.0,0.0
3456,56.0,0,720,4.0,0.0
3457,52.0,1080,720,4.0,0.0
3458,49.0,0,720,5.0,0.0
3459,68.0,0,15,2.0,0.0
3460,71.0,0,15,2.0,0.0
3461,64.0,0,240,1.0,0.0
3462,68.0,0,15,2.0,0.0
3463,70.0,0,240,2.0,0.0
3464,61.0,120,120,1.0,0.0
3465,63.0,240,120,1.0,0.0
3466,64.0,0,240,1.0,0.0
3467,70.0,0,240,2.0,0.0
3468,68.0,0,240,2.0,0.0
3469,70.0,120,240,2.0,0.0
3470,61.0,120,120,1.0,0.0
3471,73.0,0,240,2.0,0.0
3472,63.0,0,120,1.0,0.0
3473,39.0,120,120,5.0,0.0
3474,73.0,120,240,2.0,0.0
3475,70.0,0,240,2.0,0.0
3476,64.0,0,240,1.0,0.0
3477,46.0,0,120,4.0,0.0
3478,63.0,120,120,1.0,0.0
3479,55.0,0,120,4.0,0.0
3480,70.0,120,240,2.0,0.0
3481,64.0,0,120,1.0,0.0
3482,39.0,120,120,5.0,0.0
3483,63.0,0,240,1.0,0.0
3484,70.0,0,240,2.0,0.0
3485,46.0,120,120,4.0,0.0
3486,61.0,0,120,1.0,0.0
3487,55.0,120,120,4.0,0.0
3488,73.0,120,240,2.0,0.0
3489,70.0,0,240,2.0,0.0
3490,63.0,0,120,1.0,0.0
3491,66.0,0,120,1.0,0.0
3492,32.0,120,120,5.0,0.0
3493,73.0,0,240,2.0,0.0
3494,44.0,0,120,4.0,0.0
3495,64.0,120,120,1.0,0.0
3496,69.0,0,15,2.0,0.0
3497,72.0,120,240,2.0,0.0
3498,63.0,120,120,1.0,0.0
3499,54.0,0,120,4.0,0.0
3500,64.0,0,120,1.0,0.0
3501,63.0,0,240,1.0,0.0
3502,32.0,120,120,5.0,0.0
3503,44.0,120,120,4.0,0.0
3504,69.0,0,15,2.0,0.0
3505,72.0,0,15,2.0,0.0
3506,64.0,0,120,1.0,0.0
3507,54.0,120,120,4.0,0.0
3508,66.0,120,120,1.0,0.0
3509,64.0,0,240,2.0,0.0
3510,40.0,120,120,5.0,0.0
3511,73.0,0,240,2.0,0.0
3512,68.0,0,240,1.0,0.0
3513,52.0,120,120,4.0,0.0
3514,73.0,0,240,2.0,0.0
3515,56.0,0,120,4.0,0.0
3516,64.0,0,240,2.0,0.0
3517,66.0,120,120,1.0,0.0
3518,68.0,120,120,1.0,0.0
3519,73.0,0,240,2.0,0.0
3520,69.0,0,240,1.0,0.0
3521,37.0,120,120,5.0,0.0
3522,52.0,0,120,4.0,0.0
3523,64.0,120,15,2.0,0.0
3524,68.0,120,120,1.0,0.0
3525,57.0,0,120,4.0,0.0
3526,73.0,0,240,2.0,0.0
3527,69.0,0,120,1.0,0.0
3528,66.0,120,240,2.0,0.0
3529,75.0,0,240,2.0,0.0
3530,71.0,0,240,1.0,0.0
3531,39.0,120,120,5.0,0.0
3532,51.0,0,120,4.0,0.0
3533,40.0,120,120,5.0,0.0
3534,64.0,0,240,2.0,0.0
3535,73.0,0,240,2.0,0.0
3536,68.0,0,120,1.0,0.0
3537,52.0,120,120,4.0,0.0
3538,69.0,0,120,1.0,0.0
3539,63.0,0,240,2.0,0.0
3540,72.0,120,240,2.0,0.0
3541,66.0,0,240,1.0,0.0
3542,42.0,120,120,5.0,0.0
3543,54.0,0,120,4.0,0.0
3544,68.0,120,120,1.0,0.0
3545,61.0,120,240,2.0,0.0
3546,73.0,0,240,2.0,0.0
3547,40.0,0,120,5.0,0.0
3548,49.0,0,120,4.0,0.0
3549,64.0,0,120,1.0,0.0
3550,66.0,0,480,1.0,0.0
3551,63.0,0,360,2.0,0.0
3552,71.0,0,360,2.0,0.0
3553,42.0,120,120,5.0,0.0
3554,54.0,120,120,4.0,0.0
3555,39.0,120,120,5.0,0.0
3556,61.0,120,120,2.0,0.0
3557,51.0,0,120,4.0,0.0
3558,69.0,0,120,2.0,0.0
3559,44.0,120,120,5.0,0.0
3560,60.0,0,240,2.0,0.0
3561,68.0,0,240,2.0,0.0
3562,63.0,120,240,1.0,0.0
3563,56.0,0,120,4.0,0.0
3564,49.0,0,120,5.0,0.0
3565,57.0,0,120,4.0,0.0
3566,73.0,0,240,2.0,0.0
3567,61.0,120,120,1.0,0.0
3568,52.0,0,120,4.0,0.0
3569,63.0,120,120,1.0,0.0
3570,69.0,0,15,2.0,0.0
3571,73.0,0,240,2.0,0.0
3572,64.0,0,240,1.0,0.0
3573,49.0,120,120,5.0,0.0
3574,45.0,120,120,5.0,0.0
3575,63.0,120,120,1.0,0.0
3576,37.0,0,120,5.0,0.0
3577,45.0,120,120,5.0,0.0
3578,64.0,0,120,1.0,0.0
3579,63.0,120,240,1.0,0.0
3580,73.0,0,15,2.0,0.0
3581,69.0,0,15,2.0,0.0
3582,42.0,120,120,5.0,0.0
3583,49.0,0,120,5.0,0.0
3584,73.0,0,15,2.0,0.0
3585,61.0,0,120,1.0,0.0
3586,57.0,120,120,4.0,0.0
3587,63.0,0,120,1.0,0.0
3588,52.0,0,120,4.0,0.0
3589,73.0,120,15,2.0,0.0
3590,69.0,0,15,2.0,0.0
3591,49.0,0,120,4.0,0.0
3592,66.0,120,120,1.0,0.0
3593,64.0,120,120,1.0,0.0
3594,45.0,0,120,4.0,0.0
3595,69.0,0,240,2.0,0.0
3596,73.0,0,240,2.0,0.0
3597,37.0,120,120,5.0,0.0
3598,63.0,0,120,1.0,0.0
3599,45.0,120,120,4.0,0.0
3600,64.0,0,120,1.0,0.0
3601,63.0,0,240,1.0,0.0
3602,42.0,120,120,5.0,0.0
3603,69.0,120,240,2.0,0.0
3604,49.0,0,120,4.0,0.0
3605,73.0,0,15,2.0,0.0
3606,64.0,120,120,1.0,0.0
3607,57.0,0,120,4.0,0.0
3608,69.0,0,240,2.0,0.0
3609,66.0,0,120,1.0,0.0
3610,51.0,120,120,4.0,0.0
3611,40.0,120,120,5.0,0.0
3612,64.0,0,240,2.0,0.0
3613,73.0,0,240,2.0,0.0
3614,68.0,0,240,1.0,0.0
3615,52.0,120,120,4.0,0.0
3616,66.0,0,120,1.0,0.0
3617,56.0,120,120,4.0,0.0
3618,64.0,0,240,2.0,0.0
3619,73.0,0,240,2.0,0.0
3620,68.0,0,120,1.0,0.0
3621,61.0,120,120,4.0,0.0
3622,70.0,0,240,1.0,0.0
3623,76.0,0,240,2.0,0.0
3624,37.0,120,120,5.0,0.0
3625,52.0,120,120,4.0,0.0
3626,58.0,120,120,4.0,0.0
3627,68.0,0,120,1.0,0.0
3628,76.0,0,240,2.0,0.0
3629,64.0,0,15,2.0,0.0
3630,70.0,0,120,1.0,0.0
3631,61.0,120,120,4.0,0.0
3632,71.0,0,240,1.0,0.0
3633,66.0,0,240,2.0,0.0
3634,75.0,120,240,2.0,0.0
3635,35.0,120,120,5.0,0.0
3636,51.0,0,120,4.0,0.0
3637,37.0,120,120,5.0,0.0
3638,68.0,0,120,1.0,0.0
3639,73.0,0,240,2.0,0.0
3640,64.0,120,240,2.0,0.0
3641,70.0,0,120,1.0,0.0
3642,52.0,0,120,4.0,0.0
3643,66.0,0,240,1.0,0.0
3644,63.0,0,240,2.0,0.0
3645,71.0,0,240,2.0,0.0
3646,39.0,120,120,5.0,0.0
3647,54.0,120,120,4.0,0.0
3648,64.0,0,240,2.0,0.0
3649,71.0,120,120,1.0,0.0
3650,68.0,0,120,2.0,0.0
3651,37.0,0,120,5.0,0.0
3652,70.0,0,120,2.0,0.0
3653,52.0,120,120,4.0,0.0
3654,73.0,0,120,1.0,0.0
3655,35.0,0,120,5.0,0.0
3656,75.0,120,120,1.0,0.0
3657,66.0,120,240,2.0,0.0
3658,63.0,0,240,2.0,0.0
3659,71.0,0,120,1.0,0.0
3660,51.0,0,120,4.0,0.0
3661,68.0,120,120,1.0,0.0
3662,37.0,0,120,5.0,0.0
3663,64.0,0,120,2.0,0.0
3664,61.0,120,120,2.0,0.0
3665,70.0,0,120,1.0,0.0
3666,52.0,0,120,4.0,0.0
3667,39.0,120,120,5.0,0.0
3668,54.0,120,240,2.0,0.0
3669,59.0,0,240,2.0,0.0
3670,66.0,0,120,1.0,0.0
3671,47.0,0,120,4.0,0.0
3672,63.0,0,120,1.0,0.0
3673,44.0,120,120,4.0,0.0
3674,61.0,0,120,1.0,0.0
3675,53.0,0,240,2.0,0.0
3676,59.0,120,240,2.0,0.0
3677,63.0,0,120,1.0,0.0
3678,37.0,0,120,5.0,0.0
3679,39.0,120,120,5.0,0.0
3680,59.0,0,240,1.0,0.0
3681,56.0,0,240,2.0,0.0
3682,51.0,240,120,4.0,0.0
3683,55.0,120,240,2.0,0.0
3684,58.0,0,240,1.0,0.0
3685,56.0,0,240,1.0,0.0
3686,32.0,120,120,5.0,0.0
3687,44.0,240,120,4.0,0.0
3688,68.0,240,240,1.0,0.0
3689,57.0,240,240,4.0,0.0
3690,69.0,0,240,1.0,0.0
3691,45.0,0,240,5.0,0.0
3692,64.0,240,240,1.0,0.0
3693,40.0,0,240,5.0,0.0
3694,37.0,0,240,5.0,0.0
3695,49.0,0,240,4.0,0.0
3696,61.0,240,240,1.0,0.0
3697,40.0,0,240,5.0,0.0
3698,64.0,240,240,1.0,0.0
3699,68.0,0,240,1.0,0.0
3700,44.0,240,240,5.0,0.0
3701,56.0,0,240,4.0,0.0
3702,63.0,0,240,1.0,0.0
3703,39.0,240,240,5.0,0.0
3704,47.0,0,240,4.0,0.0
3705,59.0,0,240,1.0,0.0
3706,35.0,240,240,5.0,0.0
3707,39.0,0,240,5.0,0.0
3708,63.0,240,240,1.0,0.0
3709,66.0,0,240,1.0,0.0
3710,42.0,120,240,5.0,0.0
3711,54.0,0,240,4.0,0.0
3712,64.0,0,120,1.0,0.0
3713,52.0,0,120,4.0,0.0
3714,40.0,120,120,5.0,0.0
3715,63.0,240,120,1.0,0.0
3716,39.0,0,120,5.0,0.0
3717,51.0,0,120,4.0,0.0
3718,61.0,0,240,1.0,0.0
3719,49.0,0,240,4.0,0.0
3720,37.0,120,240,5.0,0.0
3721,47.0,120,120,4.0,0.0
3722,35.0,0,120,5.0,0.0
3723,59.0,0,120,1.0,0.0
3724,58.0,0,120,1.0,0.0
3725,46.0,0,120,4.0,0.0
3726,34.0,240,120,5.0,0.0
3727,51.0,0,240,4.0,0.0
3728,63.0,0,240,1.0,0.0
3729,39.0,240,240,5.0,0.0
3730,40.0,0,240,5.0,0.0
3731,64.0,240,240,1.0,0.0
3732,52.0,0,240,4.0,0.0
3733,37.0,0,240,5.0,0.0
3734,49.0,0,240,4.0,0.0
3735,61.0,240,240,1.0,0.0
3736,39.0,0,240,5.0,0.0
3737,63.0,0,240,1.0,0.0
3738,51.0,240,240,4.0,0.0
3739,52.0,0,240,5.0,0.0
3740,32.0,0,720,5.0,0.0
3741,44.0,0,720,5.0,0.0
3742,55.0,0,240,4.0,0.0
3743,61.0,240,240,1.0,0.0
3744,59.0,0,240,2.0,0.0
3745,56.0,0,240,4.0,0.0
3746,51.0,240,240,5.0,0.0
3747,54.0,0,240,4.0,0.0
3748,58.0,240,240,2.0,0.0
3749,49.0,0,240,5.0,0.0
3750,47.0,0,240,4.0,0.0
3751,68.0,0,240,1.0,0.0
3752,80.0,120,240,1.0,0.0
3753,56.0,0,240,2.0,0.0
3754,44.0,0,240,5.0,0.0
3755,69.0,0,240,1.0,0.0
3756,81.0,0,240,1.0,0.0
3757,49.0,120,120,5.0,0.0
3758,52.0,0,120,4.0,0.0
3759,52.0,240,120,4.0,0.0
3760,76.0,0,240,1.0,0.0
3761,64.0,120,240,1.0,0.0
3762,57.0,0,120,4.0,0.0
3763,52.0,0,120,5.0,0.0
3764,61.0,0,240,1.0,0.0
3765,73.0,240,240,1.0,0.0
3766,56.0,120,120,4.0,0.0
3767,52.0,0,120,5.0,0.0
3768,76.0,120,240,1.0,0.0
3769,64.0,0,240,1.0,0.0
3770,49.0,0,120,5.0,0.0
3771,80.0,0,240,1.0,0.0
3772,47.0,120,120,5.0,0.0
3773,68.0,240,240,1.0,0.0
3774,51.0,0,120,4.0,0.0
3775,51.0,0,120,4.0,0.0
3776,75.0,120,240,1.0,0.0
3777,63.0,0,240,1.0,0.0
3778,56.0,0,120,4.0,0.0
3779,51.0,120,120,5.0,0.0
3780,59.0,0,240,1.0,0.0
3781,71.0,240,240,1.0,0.0
3782,54.0,0,120,4.0,0.0
3783,51.0,0,120,5.0,0.0
3784,75.0,0,240,1.0,0.0
3785,63.0,120,240,1.0,0.0
3786,47.0,0,120,5.0,0.0
3787,46.0,0,120,5.0,0.0
3788,78.0,0,240,1.0,0.0
3789,66.0,0,240,1.0,0.0
3790,49.0,120,15,4.0,0.0
3791,64.0,120,120,1.0,0.0
3792,76.0,0,120,1.0,0.0
3793,75.0,0,120,1.0,0.0
3794,54.0,0,120,4.0,0.0
3795,63.0,120,120,1.0,0.0
3796,45.0,0,120,5.0,0.0
3797,61.0,120,240,1.0,0.0
3798,73.0,0,240,1.0,0.0
3799,52.0,120,15,4.0,0.0
3800,75.0,0,120,1.0,0.0
3801,63.0,120,120,1.0,0.0
3802,64.0,0,120,1.0,0.0
3803,76.0,0,120,1.0,0.0
3804,49.0,240,120,4.0,0.0
3805,44.0,0,240,5.0,0.0
3806,68.0,0,240,1.0,0.0
3807,64.0,0,120,2.0,0.0
3808,61.0,0,120,2.0,0.0
3809,52.0,0,120,4.0,0.0
3810,49.0,240,120,4.0,0.0
3811,56.0,0,120,4.0,0.0
3812,45.0,0,240,5.0,0.0
3813,69.0,0,240,1.0,0.0
3814,61.0,0,120,2.0,0.0
3815,57.0,240,120,4.0,0.0
3816,49.0,0,120,4.0,0.0
3817,64.0,0,120,2.0,0.0
3818,52.0,0,120,4.0,0.0
3819,42.0,0,240,5.0,0.0
3820,66.0,0,240,1.0,0.0
3821,63.0,0,120,2.0,0.0
3822,49.0,0,120,4.0,0.0
3823,51.0,240,120,4.0,0.0
3824,61.0,0,120,2.0,0.0
3825,54.0,0,120,4.0,0.0
3826,44.0,0,240,5.0,0.0
3827,68.0,240,240,1.0,0.0
3828,60.0,0,120,2.0,0.0
3829,63.0,0,120,2.0,0.0
3830,48.0,0,120,4.0,0.0
3831,51.0,0,120,4.0,0.0
3832,56.0,0,120,4.0,0.0
3833,45.0,240,240,5.0,0.0
3834,37.0,0,960,5.0,0.0
3835,54.0,0,240,4.0,0.0
3836,52.0,0,240,4.0,0.0
3837,44.0,240,240,5.0,0.0
3838,51.0,0,240,4.0,0.0
3839,42.0,0,240,5.0,0.0
3840,61.0,120,15,1.0,0.0
3841,40.0,0,240,5.0,0.0
3842,49.0,120,240,4.0,0.0
3843,73.0,120,120,1.0,0.0
3844,63.0,0,120,1.0,0.0
3845,75.0,0,120,1.0,0.0
3846,34.0,120,120,5.0,0.0
3847,76.0,0,720,1.0,0.0
3848,64.0,0,720,1.0,0.0
3849,68.0,120,720,2.0,0.0
3850,73.0,0,720,2.0,0.0
3851,49.0,120,120,4.0,0.0
3852,52.0,120,120,4.0,0.0
3853,56.0,120,120,4.0,0.0
3854,61.0,120,120,4.0,0.0
3855,75.0,120,120,1.0,0.0
3856,63.0,0,120,1.0,0.0
3857,64.0,0,120,1.0,0.0
3858,76.0,120,120,1.0,0.0
3859,39.0,120,120,5.0,0.0
3860,73.0,0,720,2.0,0.0
3861,67.0,0,720,2.0,0.0
3862,75.0,0,720,1.0,0.0
3863,63.0,120,720,1.0,0.0
3864,49.0,120,120,4.0,0.0
3865,55.0,120,120,4.0,0.0
3866,58.0,120,120,4.0,0.0
3867,61.0,120,120,4.0,0.0
3868,61.0,0,120,1.0,0.0
3869,73.0,120,120,1.0,0.0
3870,75.0,120,120,1.0,0.0
3871,63.0,0,120,1.0,0.0
3872,78.0,0,600,1.0,0.0
3873,27.0,120,120,5.0,0.0
3874,69.0,120,960,2.0,0.0
3875,66.0,0,600,1.0,0.0
3876,49.0,120,120,4.0,0.0
3877,54.0,120,120,4.0,0.0
3878,57.0,120,120,4.0,0.0
3879,61.0,120,120,4.0,0.0
3880,64.0,0,120,1.0,0.0
3881,76.0,120,120,1.0,0.0
3882,63.0,0,120,1.0,0.0
3883,75.0,120,120,1.0,0.0
3884,76.0,0,120,1.0,0.0
3885,64.0,0,120,1.0,0.0
3886,32.0,0,120,5.0,0.0
3887,66.0,0,120,1.0,0.0
3888,78.0,120,120,1.0,0.0
3889,73.0,0,15,2.0,0.0
3890,68.0,0,480,2.0,0.0
3891,49.0,120,120,4.0,0.0
3892,64.0,0,120,1.0,0.0
3893,76.0,0,120,1.0,0.0
3894,63.0,0,120,1.0,0.0
3895,75.0,0,120,1.0,0.0
3896,56.0,120,120,4.0,0.0
3897,61.0,0,120,4.0,0.0
3898,64.0,120,120,1.0,0.0
3899,76.0,0,120,1.0,0.0
3900,44.0,120,120,5.0,0.0
3901,75.0,120,360,1.0,0.0
3902,72.0,0,480,2.0,0.0
3903,66.0,0,480,2.0,0.0
3904,63.0,0,360,1.0,0.0
3905,56.0,120,120,4.0,0.0
3906,51.0,0,120,4.0,0.0
3907,60.0,0,120,4.0,0.0
3908,54.0,0,120,4.0,0.0
3909,61.0,240,120,1.0,0.0
3910,73.0,0,120,1.0,0.0
3911,64.0,0,1920,2.0,0.0
3912,68.0,0,1920,2.0,0.0
3913,37.0,720,240,5.0,0.0
3914,61.0,0,1920,1.0,0.0
3915,73.0,0,1920,1.0,0.0
3916,56.0,0,1440,4.0,0.0
3917,52.0,0,1440,4.0,0.0
3918,44.0,960,480,5.0,0.0
3919,49.0,0,960,5.0,0.0
