,note,step,duration,channel,velocity
0,74.0,1,600,10.0,0.0
1,74.0,2,600,11.0,0.0
2,62.0,6,600,12.0,0.0
3,50.0,2,2640,13.0,0.0
4,54.0,120,120,3.0,0.0
5,62.0,0,120,3.0,0.0
6,38.0,113,2640,14.0,0.0
7,61.0,0,120,3.0,0.0
8,57.0,120,120,3.0,0.0
9,55.0,120,120,3.0,0.0
10,59.0,0,120,3.0,0.0
11,57.0,0,120,3.0,0.0
12,54.0,111,120,3.0,0.0
13,55.0,111,120,3.0,0.0
14,52.0,0,120,3.0,0.0
15,74.0,1,120,10.0,0.0
16,74.0,2,120,11.0,0.0
17,62.0,3,120,12.0,0.0
18,50.0,117,120,3.0,0.0
19,54.0,0,120,3.0,0.0
20,79.0,1,120,10.0,0.0
21,79.0,2,120,11.0,0.0
22,67.0,3,120,12.0,0.0
23,49.0,114,120,3.0,0.0
24,52.0,0,120,3.0,0.0
25,78.0,1,120,10.0,0.0
26,78.0,2,120,11.0,0.0
27,66.0,3,120,12.0,0.0
28,50.0,114,120,3.0,0.0
29,54.0,0,120,3.0,0.0
30,76.0,1,120,10.0,0.0
31,76.0,2,120,11.0,0.0
32,64.0,3,120,12.0,0.0
33,52.0,0,120,3.0,0.0
34,55.0,111,120,3.0,0.0
35,74.0,1,120,10.0,0.0
36,74.0,2,120,11.0,0.0
37,62.0,6,120,12.0,0.0
38,57.0,0,120,3.0,0.0
39,54.0,111,120,3.0,0.0
40,73.0,1,120,10.0,0.0
41,73.0,2,120,11.0,0.0
42,61.0,6,120,12.0,0.0
43,55.0,0,120,3.0,0.0
44,59.0,111,120,3.0,0.0
45,71.0,1,120,10.0,0.0
46,71.0,2,120,11.0,0.0
47,59.0,3,120,12.0,0.0
48,57.0,123,120,3.0,0.0
49,61.0,0,120,3.0,0.0
50,69.0,1,240,10.0,0.0
51,69.0,2,240,11.0,0.0
52,57.0,114,240,12.0,0.0
53,59.0,114,120,3.0,0.0
54,62.0,0,120,3.0,0.0
55,64.0,0,240,3.0,0.0
56,61.0,120,240,3.0,0.0
57,67.0,1,120,10.0,0.0
58,67.0,2,120,11.0,0.0
59,55.0,6,120,12.0,0.0
60,66.0,1,240,10.0,0.0
61,66.0,2,240,11.0,0.0
62,54.0,117,240,12.0,0.0
63,66.0,111,120,3.0,0.0
64,62.0,0,120,3.0,0.0
65,61.0,0,240,3.0,0.0
66,64.0,114,240,3.0,0.0
67,69.0,1,120,10.0,0.0
68,69.0,2,120,11.0,0.0
69,57.0,3,120,12.0,0.0
70,74.0,1,120,10.0,0.0
71,74.0,2,120,11.0,0.0
72,62.0,6,120,12.0,0.0
73,62.0,0,120,3.0,0.0
74,59.0,111,120,3.0,0.0
75,74.0,1,120,10.0,0.0
76,74.0,2,120,11.0,0.0
77,62.0,6,120,12.0,0.0
78,62.0,0,120,3.0,0.0
79,66.0,111,120,3.0,0.0
80,76.0,1,120,10.0,0.0
81,76.0,2,120,11.0,0.0
82,64.0,6,120,12.0,0.0
83,61.0,119,120,3.0,0.0
84,64.0,0,120,3.0,0.0
85,78.0,1,240,10.0,0.0
86,78.0,2,240,11.0,0.0
87,66.0,2,240,12.0,0.0
88,59.0,120,480,3.0,0.0
89,62.0,0,480,3.0,0.0
90,49.0,2,120,13.0,0.0
91,37.0,110,120,14.0,0.0
92,80.0,1,120,10.0,0.0
93,80.0,2,120,11.0,0.0
94,68.0,2,120,12.0,0.0
95,47.0,2,120,13.0,0.0
96,35.0,122,120,14.0,0.0
97,81.0,1,600,10.0,0.0
98,81.0,1,600,11.0,0.0
99,57.0,2,600,4.0,0.0
100,69.0,1,600,12.0,0.0
101,45.0,1,600,13.0,0.0
102,33.0,2,600,14.0,0.0
103,57.0,0,120,3.0,0.0
104,61.0,120,120,3.0,0.0
105,62.0,120,120,3.0,0.0
106,59.0,0,120,3.0,0.0
107,61.0,0,120,3.0,0.0
108,64.0,112,120,3.0,0.0
109,66.0,115,120,3.0,0.0
110,62.0,0,120,3.0,0.0
111,57.0,4,120,4.0,0.0
112,57.0,2,120,13.0,0.0
113,64.0,0,360,3.0,0.0
114,67.0,2,360,3.0,0.0
115,57.0,114,120,14.0,0.0
116,62.0,4,120,4.0,0.0
117,62.0,2,120,13.0,0.0
118,62.0,114,120,14.0,0.0
119,61.0,2,120,4.0,0.0
120,61.0,2,120,13.0,0.0
121,61.0,111,120,14.0,0.0
122,76.0,1,120,10.0,0.0
123,76.0,2,120,11.0,0.0
124,59.0,2,120,4.0,0.0
125,64.0,2,120,12.0,0.0
126,59.0,1,120,13.0,0.0
127,68.0,0,120,3.0,0.0
128,62.0,1,120,3.0,0.0
129,59.0,113,120,14.0,0.0
130,79.0,1,120,10.0,0.0
131,57.0,2,960,4.0,0.0
132,79.0,2,120,11.0,0.0
133,67.0,3,120,12.0,0.0
134,57.0,1,240,13.0,0.0
135,69.0,114,120,3.0,0.0
136,61.0,111,240,3.0,0.0
137,57.0,2,240,14.0,0.0
138,76.0,1,120,10.0,0.0
139,76.0,1,120,11.0,0.0
140,64.0,1,120,12.0,0.0
141,67.0,0,120,3.0,0.0
142,74.0,1,120,10.0,0.0
143,74.0,2,120,11.0,0.0
144,62.0,3,120,12.0,0.0
145,45.0,2,120,13.0,0.0
146,66.0,0,120,3.0,0.0
147,62.0,2,120,3.0,0.0
148,33.0,113,120,14.0,0.0
149,74.0,1,120,10.0,0.0
150,74.0,2,120,11.0,0.0
151,62.0,2,120,12.0,0.0
152,55.0,1,120,13.0,0.0
153,64.0,1,120,3.0,0.0
154,57.0,0,600,3.0,0.0
155,43.0,110,120,14.0,0.0
156,73.0,1,120,10.0,0.0
157,73.0,2,120,11.0,0.0
158,61.0,5,120,12.0,0.0
159,52.0,1,120,13.0,0.0
160,67.0,1,120,3.0,0.0
161,40.0,113,120,14.0,0.0
162,74.0,1,120,10.0,0.0
163,74.0,2,120,11.0,0.0
164,62.0,2,120,12.0,0.0
165,50.0,1,120,13.0,0.0
166,66.0,1,120,3.0,0.0
167,38.0,113,120,14.0,0.0
168,78.0,1,120,10.0,0.0
169,78.0,2,120,11.0,0.0
170,66.0,2,120,12.0,0.0
171,49.0,2,120,13.0,0.0
172,67.0,2,240,3.0,0.0
173,37.0,111,120,14.0,0.0
174,76.0,1,120,10.0,0.0
175,76.0,2,120,11.0,0.0
176,64.0,0,120,12.0,0.0
177,50.0,2,120,13.0,0.0
178,38.0,111,120,14.0,0.0
179,74.0,1,120,10.0,0.0
180,74.0,1,120,11.0,0.0
181,54.0,2,120,4.0,0.0
182,62.0,1,120,12.0,0.0
183,48.0,1,120,13.0,0.0
184,57.0,0,120,3.0,0.0
185,66.0,114,120,3.0,0.0
186,36.0,2,120,14.0,0.0
187,79.0,1,120,10.0,0.0
188,79.0,2,120,11.0,0.0
189,50.0,0,600,4.0,0.0
190,67.0,2,120,12.0,0.0
191,47.0,1,120,13.0,0.0
192,55.0,1,360,3.0,0.0
193,62.0,1,120,3.0,0.0
194,35.0,113,120,14.0,0.0
195,74.0,1,120,10.0,0.0
196,74.0,2,120,11.0,0.0
197,62.0,2,120,12.0,0.0
198,50.0,1,120,13.0,0.0
199,59.0,1,120,3.0,0.0
200,38.0,113,120,14.0,0.0
201,76.0,1,120,10.0,0.0
202,76.0,2,120,11.0,0.0
203,64.0,2,120,12.0,0.0
204,47.0,1,120,13.0,0.0
205,62.0,114,600,3.0,0.0
206,35.0,113,120,14.0,0.0
207,78.0,1,120,10.0,0.0
208,78.0,2,120,11.0,0.0
209,66.0,2,120,12.0,0.0
210,45.0,2,120,13.0,0.0
211,54.0,2,240,3.0,0.0
212,33.0,113,120,14.0,0.0
213,66.0,1,120,10.0,0.0
214,66.0,2,120,11.0,0.0
215,54.0,0,120,12.0,0.0
216,50.0,2,120,13.0,0.0
217,38.0,113,120,14.0,0.0
218,67.0,1,120,10.0,0.0
219,67.0,2,120,11.0,0.0
220,55.0,2,120,12.0,0.0
221,47.0,1,120,13.0,0.0
222,50.0,1,120,3.0,0.0
223,35.0,119,120,14.0,0.0
224,69.0,1,240,10.0,0.0
225,69.0,2,240,11.0,0.0
226,57.0,2,240,12.0,0.0
227,45.0,1,240,13.0,0.0
228,52.0,0,240,3.0,0.0
229,33.0,115,240,14.0,0.0
230,59.0,1,120,3.0,0.0
231,69.0,4,120,1.0,0.0
232,69.0,3,240,2.0,0.0
233,61.0,0,120,3.0,0.0
234,79.0,0,120,1.0,0.0
235,76.0,120,120,2.0,0.0
236,57.0,113,15,3.0,0.0
237,49.0,113,240,3.0,0.0
238,76.0,4,120,1.0,0.0
239,69.0,0,480,2.0,0.0
240,67.0,0,120,2.0,0.0
241,66.0,6,120,2.0,0.0
242,74.0,0,120,1.0,0.0
243,45.0,0,120,5.0,0.0
244,45.0,1,120,13.0,0.0
245,50.0,1,120,3.0,0.0
246,33.0,115,120,14.0,0.0
247,57.0,0,240,5.0,0.0
248,74.0,3,120,1.0,0.0
249,64.0,0,120,2.0,0.0
250,55.0,1,120,13.0,0.0
251,52.0,1,120,3.0,0.0
252,43.0,112,120,14.0,0.0
253,67.0,3,120,2.0,0.0
254,73.0,3,120,1.0,0.0
255,52.0,2,120,13.0,0.0
256,40.0,112,120,14.0,0.0
257,74.0,1,120,10.0,0.0
258,74.0,1,120,11.0,0.0
259,54.0,0,120,5.0,0.0
260,74.0,1,120,1.0,0.0
261,66.0,0,120,2.0,0.0
262,74.0,1,120,2.0,0.0
263,62.0,1,120,12.0,0.0
264,50.0,0,120,13.0,0.0
265,38.0,116,120,14.0,0.0
266,84.0,1,120,10.0,0.0
267,84.0,1,120,11.0,0.0
268,50.0,1,1440,5.0,0.0
269,74.0,1,120,1.0,0.0
270,81.0,0,120,2.0,0.0
271,72.0,116,120,12.0,0.0
272,42.0,2,240,13.0,0.0
273,62.0,2,240,3.0,0.0
274,30.0,110,240,14.0,0.0
275,81.0,1,120,10.0,0.0
276,81.0,2,120,11.0,0.0
277,74.0,0,480,2.0,0.0
278,72.0,1,120,1.0,0.0
279,69.0,0,120,12.0,0.0
280,79.0,1,120,10.0,0.0
281,79.0,1,120,11.0,0.0
282,71.0,1,120,1.0,0.0
283,67.0,2,120,12.0,0.0
284,43.0,2,120,13.0,0.0
285,62.0,114,120,3.0,0.0
286,31.0,2,120,14.0,0.0
287,79.0,1,120,10.0,0.0
288,79.0,2,120,11.0,0.0
289,69.0,1,240,1.0,0.0
290,67.0,3,120,12.0,0.0
291,48.0,2,240,13.0,0.0
292,50.0,2,240,3.0,0.0
293,69.0,111,120,3.0,0.0
294,36.0,113,240,14.0,0.0
295,78.0,1,120,10.0,0.0
296,78.0,2,120,11.0,0.0
297,66.0,2,120,12.0,0.0
298,62.0,114,360,3.0,0.0
299,79.0,1,120,10.0,0.0
300,79.0,1,120,11.0,0.0
301,67.0,0,120,1.0,0.0
302,67.0,1,120,12.0,0.0
303,47.0,1,120,13.0,0.0
304,50.0,114,120,3.0,0.0
305,35.0,2,120,14.0,0.0
306,74.0,1,120,10.0,0.0
307,74.0,2,120,11.0,0.0
308,62.0,3,120,12.0,0.0
309,42.0,1,240,13.0,0.0
310,57.0,0,120,3.0,0.0
311,30.0,110,240,14.0,0.0
312,72.0,1,120,10.0,0.0
313,72.0,2,120,11.0,0.0
314,60.0,2,120,12.0,0.0
315,50.0,0,240,3.0,0.0
316,69.0,1,120,3.0,0.0
317,71.0,1,120,10.0,0.0
318,71.0,2,120,11.0,0.0
319,59.0,2,120,12.0,0.0
320,43.0,1,120,13.0,0.0
321,67.0,1,120,3.0,0.0
322,31.0,116,120,14.0,0.0
323,69.0,1,120,10.0,0.0
324,69.0,2,120,11.0,0.0
325,57.0,2,120,12.0,0.0
326,45.0,2,120,13.0,0.0
327,50.0,120,360,3.0,0.0
328,66.0,1,240,3.0,0.0
329,33.0,113,120,14.0,0.0
330,66.0,1,120,10.0,0.0
331,66.0,2,120,11.0,0.0
332,54.0,2,120,12.0,0.0
333,50.0,1,120,13.0,0.0
334,38.0,110,120,14.0,0.0
335,67.0,1,120,10.0,0.0
336,67.0,1,120,11.0,0.0
337,55.0,2,120,12.0,0.0
338,47.0,1,120,13.0,0.0
339,62.0,1,120,3.0,0.0
340,35.0,2,120,14.0,0.0
341,69.0,1,240,10.0,0.0
342,69.0,2,240,11.0,0.0
343,45.0,1,360,5.0,0.0
344,57.0,3,240,12.0,0.0
345,45.0,1,360,13.0,0.0
346,52.0,234,360,3.0,0.0
347,62.0,111,120,3.0,0.0
348,33.0,2,360,14.0,0.0
349,59.0,114,120,3.0,0.0
350,69.0,1,120,10.0,0.0
351,69.0,1,120,11.0,0.0
352,57.0,2,120,12.0,0.0
353,61.0,1,120,3.0,0.0
354,69.0,1,240,10.0,0.0
355,69.0,2,240,11.0,0.0
356,38.0,56,1440,5.0,0.0
357,57.0,114,240,12.0,0.0
358,38.0,1,840,13.0,0.0
359,55.0,114,720,3.0,0.0
360,61.0,360,360,3.0,0.0
361,38.0,110,840,14.0,0.0
362,62.0,1,120,10.0,0.0
363,62.0,2,120,11.0,0.0
364,50.0,6,120,12.0,0.0
365,62.0,1,480,10.0,0.0
366,62.0,0,480,11.0,0.0
367,50.0,0,480,12.0,0.0
368,59.0,0,360,3.0,0.0
369,54.0,1,120,3.0,0.0
370,57.0,0,120,3.0,0.0
371,74.0,1,240,7.0,0.0
372,62.0,2,240,8.0,0.0
373,66.0,2,120,7.0,0.0
374,54.0,2,120,8.0,0.0
375,69.0,0,120,7.0,0.0
376,73.0,1,120,7.0,0.0
377,61.0,0,120,8.0,0.0
378,57.0,116,120,8.0,0.0
379,74.0,1,240,7.0,0.0
380,67.0,1,120,7.0,0.0
381,71.0,2,120,7.0,0.0
382,62.0,1,240,8.0,0.0
383,59.0,1,120,8.0,0.0
384,55.0,115,120,8.0,0.0
385,69.0,2,120,7.0,0.0
386,66.0,0,120,7.0,0.0
387,57.0,58,120,8.0,0.0
388,54.0,0,120,8.0,0.0
389,74.0,3,60,7.0,0.0
390,67.0,1,120,7.0,0.0
391,64.0,3,120,7.0,0.0
392,62.0,54,60,8.0,0.0
393,52.0,58,120,8.0,0.0
394,55.0,0,120,8.0,0.0
395,73.0,2,60,7.0,0.0
396,61.0,0,60,8.0,0.0
397,73.0,2,60,7.0,0.0
398,66.0,1,120,7.0,0.0
399,62.0,1,120,7.0,0.0
400,61.0,54,60,8.0,0.0
401,54.0,1,120,8.0,0.0
402,50.0,1,120,8.0,0.0
403,71.0,2,60,7.0,0.0
404,59.0,1,60,8.0,0.0
405,71.0,3,60,7.0,0.0
406,61.0,3,120,7.0,0.0
407,64.0,0,120,7.0,0.0
408,59.0,57,60,8.0,0.0
409,49.0,0,120,8.0,0.0
410,52.0,55,120,8.0,0.0
411,69.0,2,120,7.0,0.0
412,57.0,55,120,8.0,0.0
413,62.0,0,240,7.0,0.0
414,59.0,1,240,7.0,0.0
415,50.0,1,240,8.0,0.0
416,47.0,1,240,8.0,0.0
417,67.0,4,60,7.0,0.0
418,55.0,59,60,8.0,0.0
419,67.0,3,60,7.0,0.0
420,55.0,59,60,8.0,0.0
421,74.0,1,60,7.0,0.0
422,62.0,54,60,8.0,0.0
423,67.0,3,60,7.0,0.0
424,57.0,1,120,7.0,0.0
425,62.0,2,120,7.0,0.0
426,55.0,58,60,8.0,0.0
427,45.0,59,120,8.0,0.0
428,50.0,0,120,8.0,0.0
429,66.0,2,120,7.0,0.0
430,54.0,52,120,8.0,0.0
431,59.0,3,360,7.0,0.0
432,62.0,1,240,7.0,0.0
433,43.0,58,360,8.0,0.0
434,50.0,1,240,8.0,0.0
435,64.0,4,60,7.0,0.0
436,52.0,58,60,8.0,0.0
437,64.0,4,60,7.0,0.0
438,52.0,59,60,8.0,0.0
439,71.0,1,60,7.0,0.0
440,59.0,58,60,8.0,0.0
441,62.0,2,60,7.0,0.0
442,50.0,56,60,8.0,0.0
443,61.0,4,120,7.0,0.0
444,49.0,56,120,8.0,0.0
445,57.0,1,240,7.0,0.0
446,45.0,2,240,8.0,0.0
447,64.0,4,60,7.0,0.0
448,52.0,57,60,8.0,0.0
449,67.0,3,60,7.0,0.0
450,55.0,56,60,8.0,0.0
451,73.0,1,60,7.0,0.0
452,61.0,87,60,8.0,0.0
453,79.0,3,90,7.0,0.0
454,67.0,24,90,8.0,0.0
455,78.0,2,30,7.0,0.0
456,66.0,119,30,8.0,0.0
457,78.0,2,360,7.0,0.0
458,74.0,3,120,7.0,0.0
459,66.0,1,360,8.0,0.0
460,62.0,118,120,8.0,0.0
461,76.0,0,120,7.0,0.0
462,73.0,3,120,7.0,0.0
463,64.0,114,120,8.0,0.0
464,61.0,0,120,8.0,0.0
465,71.0,2,120,7.0,0.0
466,74.0,0,120,7.0,0.0
467,59.0,1,120,8.0,0.0
468,62.0,58,120,8.0,0.0
469,78.0,3,60,7.0,0.0
470,73.0,2,120,7.0,0.0
471,69.0,0,120,7.0,0.0
472,66.0,54,60,8.0,0.0
473,57.0,0,120,8.0,0.0
474,61.0,57,120,8.0,0.0
475,80.0,1,60,7.0,0.0
476,68.0,2,60,8.0,0.0
477,80.0,4,60,7.0,0.0
478,74.0,1,120,7.0,0.0
479,71.0,2,120,7.0,0.0
480,68.0,54,60,8.0,0.0
481,62.0,1,120,8.0,0.0
482,59.0,57,120,8.0,0.0
483,81.0,1,60,7.0,0.0
484,69.0,0,60,8.0,0.0
485,81.0,3,60,7.0,0.0
486,69.0,57,60,8.0,0.0
487,73.0,3,120,7.0,0.0
488,61.0,54,120,8.0,0.0
489,76.0,3,120,7.0,0.0
490,64.0,53,120,8.0,0.0
491,47.0,3,120,8.0,0.0
492,54.0,4,120,8.0,0.0
493,57.0,6,120,8.0,0.0
494,66.0,7,120,7.0,0.0
495,69.0,45,120,7.0,0.0
496,74.0,2,120,7.0,0.0
497,62.0,53,120,8.0,0.0
498,49.0,3,120,8.0,0.0
499,52.0,4,120,8.0,0.0
500,57.0,6,120,8.0,0.0
501,64.0,7,120,7.0,0.0
502,73.0,3,120,7.0,0.0
503,61.0,117,120,8.0,0.0
504,54.0,2,240,8.0,0.0
505,57.0,2,240,8.0,0.0
506,66.0,1,240,7.0,0.0
507,69.0,45,15,7.0,0.0
508,71.0,2,120,7.0,0.0
509,59.0,56,120,8.0,0.0
510,71.0,2,60,7.0,0.0
511,59.0,56,60,8.0,0.0
512,73.0,4,60,7.0,0.0
513,68.0,1,120,7.0,0.0
514,64.0,0,120,7.0,0.0
515,61.0,54,60,8.0,0.0
516,56.0,118,120,8.0,0.0
517,74.0,1,60,7.0,0.0
518,62.0,2,60,8.0,0.0
519,52.0,1,15,8.0,0.0
520,57.0,0,240,8.0,0.0
521,57.0,0,240,4.0,0.0
522,62.0,113,120,8.0,0.0
523,64.0,1,240,7.0,0.0
524,69.0,1,240,7.0,0.0
525,74.0,4,120,7.0,0.0
526,57.0,118,240,3.0,0.0
527,73.0,1,120,7.0,0.0
528,61.0,3,120,8.0,0.0
529,67.0,1,240,0.0,0.0
530,57.0,5,120,4.0,0.0
531,64.0,0,240,2.0,0.0
532,67.0,2,240,2.0,0.0
533,57.0,112,120,3.0,0.0
534,62.0,5,120,4.0,0.0
535,62.0,55,120,3.0,0.0
536,67.0,1,60,0.0,0.0
537,61.0,1,120,4.0,0.0
538,64.0,4,120,2.0,0.0
539,67.0,56,60,2.0,0.0
540,61.0,55,120,3.0,0.0
541,68.0,1,60,0.0,0.0
542,68.0,2,60,2.0,0.0
543,68.0,1,60,0.0,0.0
544,59.0,1,120,4.0,0.0
545,68.0,56,60,2.0,0.0
546,62.0,4,120,2.0,0.0
547,59.0,55,120,3.0,0.0
548,69.0,1,60,0.0,0.0
549,69.0,2,60,2.0,0.0
550,57.0,1,240,4.0,0.0
551,69.0,1,60,0.0,0.0
552,61.0,0,240,2.0,0.0
553,69.0,55,60,2.0,0.0
554,57.0,114,240,3.0,0.0
555,64.0,123,60,0.0,0.0
556,64.0,1,60,2.0,0.0
557,64.0,0,120,0.0,0.0
558,64.0,4,120,2.0,0.0
559,64.0,1,120,10.0,0.0
560,60.0,2,120,11.0,0.0
561,57.0,2,120,12.0,0.0
562,45.0,2,120,13.0,0.0
563,33.0,113,120,14.0,0.0
564,67.0,5,120,10.0,0.0
565,59.0,2,240,11.0,0.0
566,55.0,0,240,12.0,0.0
567,40.0,2,120,13.0,0.0
568,28.0,111,120,14.0,0.0
569,64.0,5,120,10.0,0.0
570,43.0,2,120,13.0,0.0
571,31.0,113,120,14.0,0.0
572,66.0,5,120,10.0,0.0
573,61.0,116,240,11.0,0.0
574,54.0,2,360,12.0,0.0
575,45.0,2,120,13.0,0.0
576,33.0,114,120,14.0,0.0
577,62.0,1,240,10.0,0.0
578,47.0,2,240,13.0,0.0
579,35.0,116,240,14.0,0.0
580,59.0,2,120,11.0,0.0
581,64.0,1,120,10.0,0.0
582,59.0,4,120,11.0,0.0
583,52.0,2,360,12.0,0.0
584,44.0,2,120,13.0,0.0
585,32.0,113,120,14.0,0.0
586,57.0,2,240,8.0,0.0
587,45.0,4,240,8.0,0.0
588,62.0,114,120,10.0,0.0
589,57.0,2,240,11.0,0.0
590,45.0,2,240,13.0,0.0
591,33.0,112,240,14.0,0.0
592,61.0,1,120,10.0,0.0
593,67.0,2,240,7.0,0.0
594,64.0,3,240,7.0,0.0
595,57.0,5,120,8.0,0.0
596,45.0,110,120,8.0,0.0
597,62.0,3,120,8.0,0.0
598,50.0,58,120,8.0,0.0
599,67.0,1,120,7.0,0.0
600,61.0,3,120,8.0,0.0
601,64.0,55,60,7.0,0.0
602,49.0,56,120,8.0,0.0
603,66.0,2,60,7.0,0.0
604,62.0,2,60,7.0,0.0
605,68.0,1,120,7.0,0.0
606,62.0,57,60,7.0,0.0
607,66.0,0,60,7.0,0.0
608,59.0,1,120,8.0,0.0
609,47.0,56,120,8.0,0.0
610,61.0,0,60,7.0,0.0
611,64.0,2,60,7.0,0.0
612,69.0,2,240,7.0,0.0
613,57.0,1,240,8.0,0.0
614,61.0,1,60,7.0,0.0
615,64.0,59,60,7.0,0.0
616,45.0,120,240,8.0,0.0
617,62.0,1,60,7.0,0.0
618,59.0,59,60,7.0,0.0
619,62.0,1,60,7.0,0.0
620,59.0,57,60,7.0,0.0
621,61.0,1,60,7.0,0.0
622,57.0,3,60,7.0,0.0
623,72.0,1,240,7.0,0.0
624,60.0,0,240,8.0,0.0
625,69.0,2,180,7.0,0.0
626,57.0,1,120,4.0,0.0
627,45.0,59,120,5.0,0.0
628,57.0,53,180,8.0,0.0
629,50.0,1,480,4.0,0.0
630,38.0,58,480,5.0,0.0
631,67.0,0,60,7.0,0.0
632,71.0,1,60,7.0,0.0
633,55.0,63,60,8.0,0.0
634,59.0,0,60,8.0,0.0
635,72.0,1,120,7.0,0.0
636,60.0,1,120,8.0,0.0
637,59.0,0,60,8.0,0.0
638,71.0,0,60,7.0,0.0
639,67.0,1,60,7.0,0.0
640,55.0,54,60,8.0,0.0
641,69.0,0,60,7.0,0.0
642,66.0,1,60,7.0,0.0
643,57.0,0,60,8.0,0.0
644,54.0,61,60,8.0,0.0
645,61.0,0,120,8.0,0.0
646,73.0,3,120,7.0,0.0
647,66.0,1,60,7.0,0.0
648,69.0,1,60,7.0,0.0
649,57.0,1,60,8.0,0.0
650,54.0,53,60,8.0,0.0
651,64.0,0,60,7.0,0.0
652,67.0,0,60,7.0,0.0
653,52.0,0,60,8.0,0.0
654,55.0,61,60,8.0,0.0
655,74.0,2,120,7.0,0.0
656,67.0,1,60,7.0,0.0
657,64.0,1,60,7.0,0.0
658,52.0,1,60,8.0,0.0
659,55.0,52,60,8.0,0.0
660,66.0,1,60,7.0,0.0
661,62.0,1,60,7.0,0.0
662,54.0,0,60,8.0,0.0
663,50.0,2,60,8.0,0.0
664,64.0,60,300,8.0,0.0
665,76.0,0,300,7.0,0.0
666,72.0,3,60,7.0,0.0
667,60.0,54,60,8.0,0.0
668,42.0,2,120,13.0,0.0
669,30.0,52,120,14.0,0.0
670,71.0,1,60,7.0,0.0
671,74.0,1,60,7.0,0.0
672,59.0,1,60,8.0,0.0
673,62.0,5,60,8.0,0.0
674,71.0,1,60,7.0,0.0
675,74.0,2,60,7.0,0.0
676,59.0,1,60,8.0,0.0
677,62.0,54,60,8.0,0.0
678,43.0,2,120,13.0,0.0
679,31.0,49,120,14.0,0.0
680,69.0,1,60,7.0,0.0
681,72.0,0,60,7.0,0.0
682,57.0,0,60,8.0,0.0
683,60.0,7,60,8.0,0.0
684,69.0,0,120,7.0,0.0
685,72.0,1,120,7.0,0.0
686,60.0,2,120,8.0,0.0
687,57.0,5,120,8.0,0.0
688,45.0,2,120,13.0,0.0
689,33.0,50,120,14.0,0.0
690,78.0,0,60,7.0,0.0
691,66.0,1,60,8.0,0.0
692,78.0,2,60,7.0,0.0
693,74.0,0,120,7.0,0.0
694,66.0,56,60,8.0,0.0
695,71.0,2,120,7.0,0.0
696,59.0,5,120,8.0,0.0
697,62.0,0,120,8.0,0.0
698,47.0,2,120,13.0,0.0
699,35.0,52,120,14.0,0.0
700,79.0,1,60,7.0,0.0
701,67.0,2,60,8.0,0.0
702,79.0,2,60,7.0,0.0
703,69.0,1,120,7.0,0.0
704,76.0,0,120,7.0,0.0
705,67.0,53,60,8.0,0.0
706,57.0,0,120,8.0,0.0
707,64.0,4,120,8.0,0.0
708,49.0,2,120,13.0,0.0
709,37.0,57,120,14.0,0.0
710,81.0,2,60,7.0,0.0
711,69.0,1,60,8.0,0.0
712,78.0,2,180,7.0,0.0
713,76.0,1,60,7.0,0.0
714,69.0,1,180,7.0,0.0
715,64.0,57,60,8.0,0.0
716,50.0,2,120,13.0,0.0
717,38.0,49,120,14.0,0.0
718,74.0,4,60,7.0,0.0
719,62.0,2,60,8.0,0.0
720,61.0,53,60,8.0,0.0
721,73.0,0,60,7.0,0.0
722,47.0,2,120,13.0,0.0
723,35.0,51,120,14.0,0.0
724,78.0,2,60,7.0,0.0
725,69.0,1,60,7.0,0.0
726,66.0,1,15,8.0,0.0
727,57.0,1,15,8.0,0.0
728,74.0,0,60,7.0,0.0
729,62.0,7,60,8.0,0.0
730,78.0,2,60,7.0,0.0
731,69.0,55,60,7.0,0.0
732,57.0,0,60,8.0,0.0
733,66.0,0,120,8.0,0.0
734,71.0,0,120,7.0,0.0
735,59.0,3,120,8.0,0.0
736,52.0,2,120,13.0,0.0
737,40.0,57,120,14.0,0.0
738,79.0,2,60,7.0,0.0
739,67.0,1,60,7.0,0.0
740,55.0,1,60,8.0,0.0
741,76.0,1,180,7.0,0.0
742,55.0,2,180,8.0,0.0
743,67.0,0,180,7.0,0.0
744,74.0,2,60,7.0,0.0
745,64.0,1,180,8.0,0.0
746,62.0,58,60,8.0,0.0
747,49.0,2,120,13.0,0.0
748,37.0,48,120,14.0,0.0
749,73.0,1,60,7.0,0.0
750,61.0,3,60,8.0,0.0
751,71.0,2,60,7.0,0.0
752,59.0,54,60,8.0,0.0
753,45.0,2,120,13.0,0.0
754,33.0,51,120,14.0,0.0
755,76.0,1,60,7.0,0.0
756,73.0,0,60,7.0,0.0
757,67.0,1,60,7.0,0.0
758,55.0,0,60,8.0,0.0
759,64.0,1,60,8.0,0.0
760,61.0,7,60,8.0,0.0
761,76.0,2,60,7.0,0.0
762,69.0,1,120,7.0,0.0
763,55.0,1,60,8.0,0.0
764,67.0,54,60,7.0,0.0
765,64.0,2,120,8.0,0.0
766,57.0,2,120,8.0,0.0
767,50.0,2,120,13.0,0.0
768,38.0,55,120,14.0,0.0
769,78.0,1,60,7.0,0.0
770,54.0,1,60,8.0,0.0
771,74.0,0,180,7.0,0.0
772,66.0,0,15,7.0,0.0
773,73.0,3,60,7.0,0.0
774,54.0,2,180,8.0,0.0
775,62.0,3,180,8.0,0.0
776,61.0,57,60,8.0,0.0
777,47.0,2,120,13.0,0.0
778,35.0,47,120,14.0,0.0
779,71.0,3,60,7.0,0.0
780,59.0,3,60,8.0,0.0
781,69.0,2,60,7.0,0.0
782,57.0,51,60,8.0,0.0
783,43.0,2,120,13.0,0.0
784,31.0,52,120,14.0,0.0
785,66.0,1,60,7.0,0.0
786,74.0,1,60,7.0,0.0
787,71.0,1,60,7.0,0.0
788,62.0,1,60,8.0,0.0
789,54.0,0,60,8.0,0.0
790,59.0,7,60,8.0,0.0
791,74.0,1,60,7.0,0.0
792,67.0,1,120,7.0,0.0
793,62.0,1,120,8.0,0.0
794,66.0,3,60,7.0,0.0
795,55.0,2,120,8.0,0.0
796,54.0,51,60,8.0,0.0
797,49.0,2,120,13.0,0.0
798,37.0,56,120,14.0,0.0
799,76.0,2,60,7.0,0.0
800,64.0,1,60,7.0,0.0
801,52.0,1,60,8.0,0.0
802,73.0,2,120,7.0,0.0
803,61.0,2,120,8.0,0.0
804,69.0,1,60,7.0,0.0
805,57.0,0,60,8.0,0.0
806,66.0,2,60,7.0,0.0
807,54.0,52,60,8.0,0.0
808,42.0,2,120,13.0,0.0
809,30.0,56,120,14.0,0.0
810,67.0,0,60,7.0,0.0
811,64.0,0,60,7.0,0.0
812,55.0,0,60,8.0,0.0
813,52.0,3,60,8.0,0.0
814,74.0,1,120,7.0,0.0
815,62.0,0,120,8.0,0.0
816,64.0,1,60,7.0,0.0
817,55.0,3,60,8.0,0.0
818,67.0,0,60,7.0,0.0
819,52.0,51,60,8.0,0.0
820,47.0,2,120,13.0,0.0
821,35.0,55,120,14.0,0.0
822,66.0,4,60,7.0,0.0
823,62.0,0,60,7.0,0.0
824,54.0,1,60,8.0,0.0
825,50.0,1,60,8.0,0.0
826,67.0,2,120,7.0,0.0
827,62.0,0,60,7.0,0.0
828,66.0,2,60,7.0,0.0
829,55.0,1,120,8.0,0.0
830,54.0,3,60,8.0,0.0
831,50.0,51,60,8.0,0.0
832,40.0,2,120,13.0,0.0
833,28.0,56,120,14.0,0.0
834,52.0,0,60,8.0,0.0
835,61.0,2,60,7.0,0.0
836,64.0,0,60,7.0,0.0
837,49.0,2,60,8.0,0.0
838,67.0,0,120,7.0,0.0
839,55.0,1,120,8.0,0.0
840,61.0,0,60,7.0,0.0
841,64.0,2,60,7.0,0.0
842,49.0,1,60,8.0,0.0
843,52.0,53,60,8.0,0.0
844,45.0,2,120,13.0,0.0
845,33.0,53,120,14.0,0.0
846,59.0,0,60,7.0,0.0
847,62.0,2,60,7.0,0.0
848,47.0,1,60,8.0,0.0
849,50.0,5,60,8.0,0.0
850,66.0,1,60,7.0,0.0
851,45.0,54,60,8.0,0.0
852,49.0,0,60,8.0,0.0
853,64.0,1,60,7.0,0.0
854,57.0,1,15,7.0,0.0
855,61.0,0,15,7.0,0.0
856,52.0,2,60,8.0,0.0
857,49.0,1,60,8.0,0.0
858,43.0,57,60,8.0,0.0
859,69.0,3,60,7.0,0.0
860,57.0,0,120,7.0,0.0
861,50.0,3,60,8.0,0.0
862,54.0,0,60,8.0,0.0
863,42.0,52,60,8.0,0.0
864,53.0,2,60,8.0,0.0
865,62.0,0,60,7.0,0.0
866,50.0,1,60,8.0,0.0
867,41.0,1,60,8.0,0.0
868,62.0,61,15,7.0,0.0
869,52.0,2,120,8.0,0.0
870,57.0,56,60,7.0,0.0
871,47.0,1,120,8.0,0.0
872,40.0,116,120,8.0,0.0
873,56.0,2,60,7.0,0.0
874,52.0,0,240,8.0,0.0
875,57.0,1,240,7.0,0.0
876,45.0,117,240,8.0,0.0
877,54.0,115,60,8.0,0.0
878,61.0,2,120,7.0,0.0
879,55.0,5,120,8.0,0.0
880,62.0,120,480,10.0,0.0
881,62.0,2,120,7.0,0.0
882,54.0,2,360,12.0,0.0
883,54.0,1,120,8.0,0.0
884,38.0,1,120,8.0,0.0
885,50.0,0,120,13.0,0.0
886,50.0,2,120,8.0,0.0
887,38.0,118,120,14.0,0.0
888,47.0,2,120,13.0,0.0
889,35.0,116,120,14.0,0.0
890,45.0,2,120,13.0,0.0
891,33.0,113,120,14.0,0.0
892,52.0,2,480,12.0,0.0
893,44.0,2,360,13.0,0.0
894,32.0,116,360,14.0,0.0
895,61.0,117,120,10.0,0.0
896,59.0,5,120,10.0,0.0
897,59.0,3,120,10.0,0.0
898,45.0,2,120,13.0,0.0
899,33.0,116,120,14.0,0.0
900,60.0,120,360,10.0,0.0
901,51.0,2,120,12.0,0.0
902,42.0,2,120,13.0,0.0
903,30.0,116,120,14.0,0.0
904,52.0,2,120,12.0,0.0
905,40.0,2,120,13.0,0.0
906,28.0,113,120,14.0,0.0
907,54.0,1,360,12.0,0.0
908,39.0,1,360,13.0,0.0
909,39.0,54,360,14.0,0.0
910,59.0,120,120,10.0,0.0
911,57.0,2,120,10.0,0.0
912,40.0,62,60,8.0,0.0
913,74.0,1,330,7.0,0.0
914,56.0,3,120,10.0,0.0
915,52.0,0,120,12.0,0.0
916,40.0,2,120,13.0,0.0
917,40.0,34,120,14.0,0.0
918,86.0,22,150,7.0,0.0
919,52.0,2,60,8.0,0.0
920,40.0,17,60,8.0,0.0
921,85.0,39,30,7.0,0.0
922,54.0,36,60,8.0,0.0
923,86.0,5,30,7.0,0.0
924,85.0,25,30,7.0,0.0
925,40.0,15,60,8.0,0.0
926,83.0,36,30,7.0,0.0
927,56.0,66,60,8.0,0.0
928,72.0,1,360,7.0,0.0
929,84.0,23,180,7.0,0.0
930,40.0,60,60,8.0,0.0
931,57.0,37,60,8.0,0.0
932,40.0,16,60,8.0,0.0
933,83.0,41,30,7.0,0.0
934,59.0,37,60,8.0,0.0
935,84.0,3,30,7.0,0.0
936,83.0,25,30,7.0,0.0
937,40.0,14,60,8.0,0.0
938,81.0,45,30,7.0,0.0
939,60.0,35,60,8.0,0.0
940,73.0,3,150,7.0,0.0
941,82.0,24,90,7.0,0.0
942,41.0,17,60,8.0,0.0
943,80.0,39,30,7.0,0.0
944,60.0,37,60,8.0,0.0
945,81.0,23,90,7.0,0.0
946,70.0,5,120,7.0,0.0
947,41.0,17,60,8.0,0.0
948,76.0,39,30,7.0,0.0
949,61.0,36,60,8.0,0.0
950,79.0,25,90,7.0,0.0
951,69.0,2,120,7.0,0.0
952,41.0,14,60,8.0,0.0
953,77.0,40,30,7.0,0.0
954,62.0,6,60,8.0,0.0
955,76.0,4,30,7.0,0.0
956,74.0,9,15,7.0,0.0
957,40.0,16,60,8.0,0.0
958,76.0,21,15,7.0,0.0
959,74.0,23,20,7.0,0.0
960,71.0,40,30,7.0,0.0
961,64.0,60,60,8.0,0.0
962,72.0,3,30,7.0,0.0
963,81.0,2,120,7.0,0.0
964,72.0,0,120,7.0,0.0
965,39.0,58,60,8.0,0.0
966,66.0,60,60,8.0,0.0
967,71.0,2,120,7.0,0.0
968,80.0,3,120,7.0,0.0
969,40.0,56,60,8.0,0.0
970,64.0,121,60,8.0,0.0
971,64.0,120,480,10.0,0.0
972,56.0,2,360,12.0,0.0
973,52.0,2,120,13.0,0.0
974,40.0,118,120,14.0,0.0
975,49.0,2,120,13.0,0.0
976,37.0,116,120,14.0,0.0
977,47.0,2,120,13.0,0.0
978,35.0,113,120,14.0,0.0
979,55.0,2,480,12.0,0.0
980,46.0,2,360,13.0,0.0
981,34.0,116,360,14.0,0.0
982,62.0,117,120,10.0,0.0
983,61.0,5,120,10.0,0.0
984,61.0,3,120,10.0,0.0
985,47.0,2,120,13.0,0.0
986,35.0,116,120,14.0,0.0
987,62.0,120,360,10.0,0.0
988,53.0,2,120,12.0,0.0
989,44.0,2,120,13.0,0.0
990,32.0,116,120,14.0,0.0
991,54.0,2,120,12.0,0.0
992,42.0,2,120,13.0,0.0
993,30.0,113,120,14.0,0.0
994,56.0,1,360,12.0,0.0
995,41.0,1,360,13.0,0.0
996,29.0,58,360,14.0,0.0
997,61.0,120,120,10.0,0.0
998,59.0,2,120,10.0,0.0
999,58.0,2,120,10.0,0.0
1000,42.0,58,60,8.0,0.0
1001,54.0,2,120,12.0,0.0
1002,42.0,2,120,13.0,0.0
1003,30.0,31,120,14.0,0.0
1004,76.0,3,300,7.0,0.0
1005,88.0,24,150,7.0,0.0
1006,54.0,1,60,8.0,0.0
1007,42.0,16,60,8.0,0.0
1008,87.0,40,30,7.0,0.0
1009,56.0,36,60,8.0,0.0
1010,88.0,4,30,7.0,0.0
1011,87.0,24,30,7.0,0.0
1012,42.0,18,60,8.0,0.0
1013,85.0,39,30,7.0,0.0
1014,58.0,60,60,8.0,0.0
1015,86.0,29,210,7.0,0.0
1016,74.0,38,240,7.0,0.0
1017,42.0,60,60,8.0,0.0
1018,59.0,31,60,8.0,0.0
1019,42.0,16,60,8.0,0.0
1020,85.0,2,30,7.0,0.0
1021,61.0,60,60,8.0,0.0
1022,86.0,4,30,7.0,0.0
1023,85.0,2,90,7.0,0.0
1024,42.0,16,60,8.0,0.0
1025,83.0,38,30,7.0,0.0
1026,62.0,60,60,8.0,0.0
1027,84.0,4,30,7.0,0.0
1028,71.0,2,150,7.0,0.0
1029,43.0,16,60,8.0,0.0
1030,82.0,42,30,7.0,0.0
1031,62.0,36,60,8.0,0.0
1032,83.0,24,90,7.0,0.0
1033,72.0,2,240,7.0,0.0
1034,43.0,16,60,8.0,0.0
1035,78.0,44,30,7.0,0.0
1036,63.0,36,60,8.0,0.0
1037,81.0,24,90,7.0,0.0
1038,43.0,16,60,8.0,0.0
1039,78.0,42,30,7.0,0.0
1040,64.0,36,60,8.0,0.0
1041,79.0,24,90,7.0,0.0
1042,71.0,2,120,7.0,0.0
1043,43.0,16,60,8.0,0.0
1044,76.0,42,30,7.0,0.0
1045,62.0,36,60,8.0,0.0
1046,77.0,24,90,7.0,0.0
1047,67.0,2,120,7.0,0.0
1048,43.0,16,60,8.0,0.0
1049,75.0,42,30,7.0,0.0
1050,60.0,36,60,8.0,0.0
1051,76.0,24,90,7.0,0.0
1052,65.0,2,120,7.0,0.0
1053,43.0,16,60,8.0,0.0
1054,73.0,42,30,7.0,0.0
1055,59.0,36,60,8.0,0.0
1056,74.0,24,90,7.0,0.0
1057,64.0,38,600,7.0,0.0
1058,43.0,16,60,8.0,0.0
1059,72.0,44,30,7.0,0.0
1060,58.0,36,60,8.0,0.0
1061,73.0,24,90,7.0,0.0
1062,42.0,16,60,8.0,0.0
1063,75.0,44,30,7.0,0.0
1064,58.0,36,60,8.0,0.0
1065,76.0,24,90,7.0,0.0
1066,43.0,16,60,8.0,0.0
1067,72.0,80,30,7.0,0.0
1068,58.0,36,180,8.0,0.0
1069,73.0,40,90,7.0,0.0
1070,42.0,0,120,8.0,0.0
1071,75.0,40,30,7.0,0.0
1072,76.0,4,30,7.0,0.0
1073,72.0,40,30,7.0,0.0
1074,42.0,0,240,8.0,0.0
1075,30.0,36,240,8.0,0.0
1076,73.0,40,30,7.0,0.0
1077,69.0,2,30,7.0,0.0
1078,70.0,40,30,7.0,0.0
1079,66.0,40,30,7.0,0.0
1080,67.0,4,30,7.0,0.0
1081,63.0,40,30,7.0,0.0
1082,64.0,40,30,7.0,0.0
1083,60.0,40,30,7.0,0.0
1084,61.0,40,30,7.0,0.0
1085,57.0,40,30,7.0,0.0
1086,58.0,40,30,7.0,0.0
1087,54.0,40,30,7.0,0.0
1088,55.0,40,30,7.0,0.0
1089,52.0,40,30,7.0,0.0
1090,55.0,40,30,7.0,0.0
1091,50.0,40,30,7.0,0.0
1092,55.0,40,30,7.0,0.0
1093,49.0,40,30,7.0,0.0
1094,52.0,40,30,7.0,0.0
1095,55.0,40,30,7.0,0.0
1096,61.0,40,30,7.0,0.0
1097,64.0,40,30,7.0,0.0
1098,67.0,120,30,7.0,0.0
1099,66.0,3,120,7.0,0.0
1100,47.0,0,120,8.0,0.0
1101,62.0,1,60,8.0,0.0
1102,50.0,116,60,8.0,0.0
1103,78.0,63,120,7.0,0.0
1104,49.0,0,240,8.0,0.0
1105,64.0,1,120,8.0,0.0
1106,52.0,56,120,8.0,0.0
1107,70.0,3,120,7.0,0.0
1108,64.0,1,60,8.0,0.0
1109,52.0,116,60,8.0,0.0
1110,71.0,3,120,7.0,0.0
1111,50.0,0,120,8.0,0.0
1112,66.0,1,60,8.0,0.0
1113,54.0,116,60,8.0,0.0
1114,83.0,63,120,7.0,0.0
1115,51.0,56,240,8.0,0.0
1116,69.0,1,120,8.0,0.0
1117,78.0,3,120,7.0,0.0
1118,69.0,1,60,8.0,0.0
1119,57.0,56,15,8.0,0.0
1120,79.0,60,60,7.0,0.0
1121,52.0,119,240,8.0,0.0
1122,76.0,63,60,7.0,0.0
1123,72.0,3,120,7.0,0.0
1124,67.0,1,15,8.0,0.0
1125,55.0,56,15,8.0,0.0
1126,71.0,60,180,7.0,0.0
1127,53.0,56,120,8.0,0.0
1128,68.0,1,60,8.0,0.0
1129,56.0,0,60,8.0,0.0
1130,70.0,63,60,7.0,0.0
1131,66.0,1,120,8.0,0.0
1132,54.0,0,120,8.0,0.0
1133,74.0,2,120,7.0,0.0
1134,71.0,61,120,7.0,0.0
1135,68.0,0,120,7.0,0.0
1136,65.0,1,120,8.0,0.0
1137,53.0,116,120,8.0,0.0
1138,73.0,2,180,7.0,0.0
1139,70.0,1,180,7.0,0.0
1140,66.0,1,120,8.0,0.0
1141,54.0,56,120,8.0,0.0
1142,71.0,2,60,7.0,0.0
1143,68.0,61,60,7.0,0.0
1144,65.0,1,120,8.0,0.0
1145,53.0,57,120,8.0,0.0
1146,80.0,1,120,7.0,0.0
1147,71.0,61,120,7.0,0.0
1148,74.0,0,120,7.0,0.0
1149,66.0,1,120,8.0,0.0
1150,54.0,57,120,8.0,0.0
1151,73.0,1,120,7.0,0.0
1152,70.0,61,120,7.0,0.0
1153,65.0,1,120,8.0,0.0
1154,53.0,57,120,8.0,0.0
1155,83.0,1,120,7.0,0.0
1156,74.0,0,120,7.0,0.0
1157,80.0,61,120,7.0,0.0
1158,66.0,1,120,8.0,0.0
1159,54.0,57,120,8.0,0.0
1160,82.0,1,120,7.0,0.0
1161,78.0,61,120,7.0,0.0
1162,73.0,0,120,7.0,0.0
1163,61.0,1,120,8.0,0.0
1164,49.0,57,120,8.0,0.0
1165,81.0,1,120,7.0,0.0
1166,78.0,61,120,7.0,0.0
1167,73.0,0,120,7.0,0.0
1168,54.0,1,120,8.0,0.0
1169,42.0,57,120,8.0,0.0
1170,80.0,1,120,7.0,0.0
1171,74.0,61,120,7.0,0.0
1172,71.0,0,120,7.0,0.0
1173,56.0,1,120,8.0,0.0
1174,44.0,57,120,8.0,0.0
1175,78.0,1,120,7.0,0.0
1176,73.0,58,120,7.0,0.0
1177,69.0,0,120,7.0,0.0
1178,57.0,1,120,8.0,0.0
1179,45.0,56,120,8.0,0.0
1180,76.0,3,60,7.0,0.0
1181,66.0,1,120,7.0,0.0
1182,74.0,2,60,7.0,0.0
1183,59.0,1,60,8.0,0.0
1184,47.0,116,60,8.0,0.0
1185,72.0,2,120,7.0,0.0
1186,66.0,2,120,7.0,0.0
1187,50.0,59,120,8.0,0.0
1188,62.0,117,120,8.0,0.0
1189,73.0,2,180,7.0,0.0
1190,65.0,1,180,7.0,0.0
1191,49.0,56,180,8.0,0.0
1192,61.0,1,120,8.0,0.0
1193,61.0,3,60,7.0,0.0
1194,59.0,1,60,8.0,0.0
1195,47.0,116,60,8.0,0.0
1196,61.0,3,120,7.0,0.0
1197,46.0,116,120,8.0,0.0
1198,64.0,1,60,8.0,0.0
1199,52.0,0,60,8.0,0.0
1200,73.0,63,120,7.0,0.0
1201,47.0,59,240,8.0,0.0
1202,52.0,56,120,8.0,0.0
1203,67.0,4,120,7.0,0.0
1204,64.0,1,15,8.0,0.0
1205,66.0,4,120,7.0,0.0
1206,49.0,59,120,8.0,0.0
1207,64.0,1,15,8.0,0.0
1208,52.0,56,15,8.0,0.0
1209,81.0,63,120,7.0,0.0
1210,51.0,20,240,8.0,0.0
1211,66.0,1,120,8.0,0.0
1212,72.0,3,120,7.0,0.0
1213,66.0,1,60,8.0,0.0
1214,54.0,56,15,8.0,0.0
1215,71.0,24,20,7.0,0.0
1216,52.0,59,120,8.0,0.0
1217,73.0,24,20,7.0,0.0
1218,71.0,24,20,7.0,0.0
1219,68.0,1,120,8.0,0.0
1220,56.0,60,120,8.0,0.0
1221,70.0,24,20,7.0,0.0
1222,71.0,4,20,7.0,0.0
1223,83.0,3,180,7.0,0.0
1224,53.0,56,120,8.0,0.0
1225,56.0,56,120,8.0,0.0
1226,47.0,59,120,8.0,0.0
1227,77.0,4,60,7.0,0.0
1228,68.0,1,15,8.0,0.0
1229,61.0,116,120,8.0,0.0
1230,80.0,3,180,7.0,0.0
1231,45.0,0,360,8.0,0.0
1232,69.0,1,120,8.0,0.0
1233,61.0,56,120,8.0,0.0
1234,78.0,60,60,7.0,0.0
1235,57.0,0,120,8.0,0.0
1236,61.0,60,120,8.0,0.0
1237,66.0,4,60,7.0,0.0
1238,76.0,60,120,7.0,0.0
1239,54.0,0,60,8.0,0.0
1240,57.0,56,60,8.0,0.0
1241,47.0,0,360,8.0,0.0
1242,74.0,60,60,7.0,0.0
1243,62.0,0,120,8.0,0.0
1244,78.0,4,60,7.0,0.0
1245,74.0,60,60,7.0,0.0
1246,59.0,56,15,8.0,0.0
1247,54.0,60,120,8.0,0.0
1248,71.0,4,60,7.0,0.0
1249,69.0,60,120,7.0,0.0
1250,50.0,0,60,8.0,0.0
1251,54.0,56,60,8.0,0.0
1252,47.0,0,360,8.0,0.0
1253,68.0,60,60,7.0,0.0
1254,66.0,0,120,8.0,0.0
1255,59.0,56,120,8.0,0.0
1256,76.0,4,60,7.0,0.0
1257,74.0,60,60,7.0,0.0
1258,56.0,56,120,8.0,0.0
1259,71.0,4,60,7.0,0.0
1260,68.0,4,60,7.0,0.0
1261,54.0,0,15,8.0,0.0
1262,50.0,0,60,8.0,0.0
1263,66.0,2,120,7.0,0.0
1264,57.0,62,120,7.0,0.0
1265,37.0,31,360,8.0,0.0
1266,49.0,56,120,8.0,0.0
1267,68.0,2,120,7.0,0.0
1268,59.0,62,120,7.0,0.0
1269,49.0,56,120,8.0,0.0
1270,65.0,2,120,7.0,0.0
1271,56.0,2,120,7.0,0.0
1272,49.0,0,60,8.0,0.0
1273,66.0,2,120,7.0,0.0
1274,57.0,3,120,7.0,0.0
1275,42.0,30,30,8.0,0.0
1276,49.0,30,30,8.0,0.0
1277,54.0,25,30,8.0,0.0
1278,61.0,27,30,8.0,0.0
1279,69.0,30,30,7.0,0.0
1280,66.0,30,30,7.0,0.0
1281,61.0,25,30,7.0,0.0
1282,69.0,0,60,2.0,0.0
1283,73.0,8,60,2.0,0.0
1284,54.0,27,30,8.0,0.0
1285,69.0,3,30,7.0,0.0
1286,69.0,5,60,2.0,0.0
1287,73.0,0,60,2.0,0.0
1288,42.0,22,30,8.0,0.0
1289,66.0,30,30,7.0,0.0
1290,61.0,25,30,7.0,0.0
1291,73.0,0,60,2.0,0.0
1292,69.0,8,60,2.0,0.0
1293,47.0,27,30,8.0,0.0
1294,69.0,3,30,7.0,0.0
1295,69.0,0,240,2.0,0.0
1296,73.0,4,240,2.0,0.0
1297,35.0,27,30,8.0,0.0
1298,66.0,30,30,7.0,0.0
1299,62.0,33,30,7.0,0.0
1300,47.0,27,30,8.0,0.0
1301,69.0,30,30,7.0,0.0
1302,35.0,27,60,8.0,0.0
1303,66.0,3,30,7.0,0.0
1304,62.0,29,30,7.0,0.0
1305,47.0,27,30,8.0,0.0
1306,68.0,30,30,7.0,0.0
1307,74.0,0,90,2.0,0.0
1308,71.0,27,90,2.0,0.0
1309,35.0,27,60,8.0,0.0
1310,66.0,3,30,7.0,0.0
1311,56.0,2,30,7.0,0.0
1312,68.0,4,30,2.0,0.0
1313,71.0,0,30,2.0,0.0
1314,47.0,27,30,8.0,0.0
1315,68.0,30,30,7.0,0.0
1316,68.0,0,240,2.0,0.0
1317,65.0,4,240,2.0,0.0
1318,37.0,27,60,8.0,0.0
1319,65.0,3,30,7.0,0.0
1320,56.0,33,30,7.0,0.0
1321,49.0,27,30,8.0,0.0
1322,68.0,30,30,7.0,0.0
1323,37.0,27,60,8.0,0.0
1324,65.0,3,30,7.0,0.0
1325,56.0,29,30,7.0,0.0
1326,49.0,27,30,8.0,0.0
1327,65.0,30,30,7.0,0.0
1328,68.0,4,120,2.0,0.0
1329,71.0,0,120,2.0,0.0
1330,37.0,27,60,8.0,0.0
1331,62.0,24,120,3.0,0.0
1332,62.0,3,30,7.0,0.0
1333,56.0,29,30,7.0,0.0
1334,49.0,3,30,8.0,0.0
1335,61.0,30,30,7.0,0.0
1336,69.0,1,180,2.0,0.0
1337,66.0,0,180,2.0,0.0
1338,37.0,27,60,8.0,0.0
1339,61.0,27,180,3.0,0.0
1340,57.0,3,30,7.0,0.0
1341,54.0,33,30,7.0,0.0
1342,49.0,27,30,8.0,0.0
1343,61.0,29,30,7.0,0.0
1344,37.0,0,60,8.0,0.0
1345,57.0,3,30,7.0,0.0
1346,54.0,24,30,7.0,0.0
1347,66.0,0,60,2.0,0.0
1348,57.0,9,60,2.0,0.0
1349,61.0,0,120,3.0,0.0
1350,49.0,27,30,8.0,0.0
1351,61.0,24,30,7.0,0.0
1352,68.0,0,60,2.0,0.0
1353,59.0,6,60,2.0,0.0
1354,37.0,27,60,8.0,0.0
1355,56.0,3,30,7.0,0.0
1356,53.0,24,30,7.0,0.0
1357,56.0,0,60,2.0,0.0
1358,65.0,9,60,2.0,0.0
1359,61.0,24,180,3.0,0.0
1360,49.0,27,30,8.0,0.0
1361,61.0,30,30,7.0,0.0
1362,57.0,0,120,2.0,0.0
1363,66.0,1,120,2.0,0.0
1364,37.0,27,60,8.0,0.0
1365,57.0,3,30,7.0,0.0
1366,54.0,32,30,7.0,0.0
1367,45.0,3,30,8.0,0.0
1368,61.0,30,30,7.0,0.0
1369,33.0,12,60,8.0,0.0
1370,57.0,3,30,7.0,0.0
1371,61.0,1,15,10.0,0.0
1372,54.0,7,30,7.0,0.0
1373,85.0,1,60,0.0,0.0
1374,57.0,2,15,11.0,0.0
1375,73.0,0,60,2.0,0.0
1376,69.0,0,60,1.0,0.0
1377,73.0,4,60,1.0,0.0
1378,81.0,0,60,2.0,0.0
1379,49.0,2,15,12.0,0.0
1380,45.0,10,15,13.0,0.0
1381,61.0,0,60,3.0,0.0
1382,54.0,2,60,3.0,0.0
1383,42.0,8,30,14.0,0.0
1384,66.0,1,15,10.0,0.0
1385,61.0,2,15,11.0,0.0
1386,42.0,12,30,8.0,0.0
1387,54.0,2,15,12.0,0.0
1388,49.0,6,15,13.0,0.0
1389,69.0,1,15,10.0,0.0
1390,85.0,1,60,0.0,0.0
1391,66.0,2,15,11.0,0.0
1392,73.0,0,60,2.0,0.0
1393,69.0,0,60,1.0,0.0
1394,81.0,4,60,2.0,0.0
1395,73.0,0,60,1.0,0.0
1396,57.0,2,15,12.0,0.0
1397,30.0,12,60,8.0,0.0
1398,54.0,17,15,13.0,0.0
1399,61.0,2,60,3.0,0.0
1400,54.0,0,60,3.0,0.0
1401,42.0,8,30,14.0,0.0
1402,73.0,1,15,10.0,0.0
1403,69.0,2,15,11.0,0.0
1404,61.0,2,15,12.0,0.0
1405,57.0,6,15,13.0,0.0
1406,78.0,1,15,10.0,0.0
1407,73.0,2,15,11.0,0.0
1408,85.0,1,60,0.0,0.0
1409,69.0,0,60,1.0,0.0
1410,73.0,0,60,1.0,0.0
1411,81.0,0,60,2.0,0.0
1412,73.0,4,60,2.0,0.0
1413,66.0,2,15,12.0,0.0
1414,61.0,17,15,13.0,0.0
1415,54.0,0,60,3.0,0.0
1416,61.0,72,60,3.0,0.0
1417,42.0,8,30,14.0,0.0
1418,81.0,1,15,10.0,0.0
1419,78.0,2,15,11.0,0.0
1420,69.0,2,15,12.0,0.0
1421,66.0,6,15,13.0,0.0
1422,85.0,1,120,10.0,0.0
1423,80.0,1,120,11.0,0.0
1424,85.0,1,240,0.0,0.0
1425,73.0,3,240,2.0,0.0
1426,80.0,0,240,2.0,0.0
1427,73.0,0,240,1.0,0.0
1428,68.0,0,240,1.0,0.0
1429,56.0,0,120,12.0,0.0
1430,61.0,11,120,12.0,0.0
1431,61.0,1,120,13.0,0.0
1432,61.0,1,240,3.0,0.0
1433,52.0,0,240,3.0,0.0
1434,40.0,81,240,14.0,0.0
1435,64.0,2,15,7.0,0.0
1436,61.0,1,15,7.0,0.0
1437,52.0,0,15,8.0,0.0
1438,49.0,28,15,8.0,0.0
1439,68.0,1,15,7.0,0.0
1440,64.0,2,15,7.0,0.0
1441,56.0,13,15,8.0,0.0
1442,52.0,0,15,8.0,0.0
1443,73.0,1,15,7.0,0.0
1444,68.0,1,15,7.0,0.0
1445,56.0,0,15,8.0,0.0
1446,61.0,28,15,8.0,0.0
1447,52.0,1,120,13.0,0.0
1448,76.0,1,15,7.0,0.0
1449,73.0,1,15,7.0,0.0
1450,61.0,1,15,8.0,0.0
1451,64.0,26,15,8.0,0.0
1452,80.0,2,15,7.0,0.0
1453,76.0,1,15,7.0,0.0
1454,68.0,1,15,8.0,0.0
1455,64.0,27,15,8.0,0.0
1456,85.0,1,15,7.0,0.0
1457,80.0,1,15,7.0,0.0
1458,73.0,1,15,8.0,0.0
1459,68.0,11,15,8.0,0.0
1460,86.0,3,90,7.0,0.0
1461,54.0,1,90,8.0,0.0
1462,81.0,0,90,7.0,0.0
1463,86.0,0,90,0.0,0.0
1464,74.0,0,90,7.0,0.0
1465,62.0,0,90,8.0,0.0
1466,74.0,0,90,2.0,0.0
1467,78.0,0,90,2.0,0.0
1468,57.0,0,90,8.0,0.0
1469,69.0,0,90,8.0,0.0
1470,69.0,3,90,1.0,0.0
1471,74.0,0,90,1.0,0.0
1472,54.0,1,90,13.0,0.0
1473,54.0,0,90,3.0,0.0
1474,62.0,1,90,3.0,0.0
1475,42.0,21,90,14.0,0.0
1476,83.0,2,30,7.0,0.0
1477,76.0,1,30,7.0,0.0
1478,74.0,0,30,7.0,0.0
1479,83.0,0,30,0.0,0.0
1480,68.0,0,30,8.0,0.0
1481,71.0,0,30,7.0,0.0
1482,59.0,1,30,8.0,0.0
1483,76.0,0,30,2.0,0.0
1484,64.0,0,30,8.0,0.0
1485,56.0,0,30,8.0,0.0
1486,74.0,0,30,2.0,0.0
1487,71.0,3,30,1.0,0.0
1488,76.0,0,30,1.0,0.0
1489,56.0,1,30,13.0,0.0
1490,59.0,1,30,3.0,0.0
1491,56.0,0,30,3.0,0.0
1492,44.0,112,30,14.0,0.0
1493,85.0,2,120,7.0,0.0
1494,76.0,1,120,7.0,0.0
1495,85.0,1,120,0.0,0.0
1496,64.0,0,120,8.0,0.0
1497,73.0,0,120,7.0,0.0
1498,69.0,2,120,8.0,0.0
1499,57.0,0,120,8.0,0.0
1500,76.0,0,120,1.0,0.0
1501,76.0,0,120,2.0,0.0
1502,73.0,3,120,1.0,0.0
1503,73.0,0,120,2.0,0.0
1504,57.0,1,120,13.0,0.0
1505,57.0,0,120,3.0,0.0
1506,61.0,1,120,3.0,0.0
1507,45.0,68,120,14.0,0.0
1508,61.0,1,15,10.0,0.0
1509,57.0,2,15,11.0,0.0
1510,88.0,1,60,0.0,0.0
1511,85.0,0,60,2.0,0.0
1512,76.0,4,60,1.0,0.0
1513,73.0,0,60,1.0,0.0
1514,76.0,0,60,2.0,0.0
1515,49.0,2,15,12.0,0.0
1516,45.0,25,15,13.0,0.0
1517,64.0,3,60,3.0,0.0
1518,57.0,0,60,3.0,0.0
1519,45.0,11,60,14.0,0.0
1520,64.0,1,15,10.0,0.0
1521,61.0,2,15,11.0,0.0
1522,52.0,2,15,12.0,0.0
1523,49.0,6,15,13.0,0.0
1524,69.0,1,15,10.0,0.0
1525,64.0,2,15,11.0,0.0
1526,88.0,1,60,0.0,0.0
1527,73.0,4,60,1.0,0.0
1528,76.0,0,60,1.0,0.0
1529,85.0,0,60,2.0,0.0
1530,76.0,0,60,2.0,0.0
1531,57.0,2,15,12.0,0.0
1532,52.0,25,15,13.0,0.0
1533,64.0,3,60,3.0,0.0
1534,57.0,0,60,3.0,0.0
1535,45.0,11,60,14.0,0.0
1536,73.0,1,15,10.0,0.0
1537,69.0,2,15,11.0,0.0
1538,61.0,2,15,12.0,0.0
1539,57.0,6,15,13.0,0.0
1540,76.0,1,15,10.0,0.0
1541,88.0,1,60,0.0,0.0
1542,73.0,2,15,11.0,0.0
1543,73.0,0,60,1.0,0.0
1544,76.0,0,60,1.0,0.0
1545,76.0,4,60,2.0,0.0
1546,85.0,0,60,2.0,0.0
1547,64.0,2,15,12.0,0.0
1548,61.0,25,15,13.0,0.0
1549,57.0,0,60,3.0,0.0
1550,64.0,3,60,3.0,0.0
1551,45.0,70,60,14.0,0.0
1552,81.0,1,15,10.0,0.0
1553,76.0,2,15,11.0,0.0
1554,69.0,2,15,12.0,0.0
1555,64.0,6,15,13.0,0.0
1556,88.0,1,120,10.0,0.0
1557,83.0,2,120,11.0,0.0
1558,88.0,1,240,0.0,0.0
1559,76.0,0,120,11.0,0.0
1560,76.0,0,240,1.0,0.0
1561,71.0,0,240,1.0,0.0
1562,83.0,3,240,2.0,0.0
1563,76.0,0,240,2.0,0.0
1564,71.0,11,120,12.0,0.0
1565,56.0,1,240,13.0,0.0
1566,56.0,1,240,3.0,0.0
1567,64.0,0,240,3.0,0.0
1568,44.0,82,240,14.0,0.0
1569,59.0,1,15,7.0,0.0
1570,56.0,1,15,7.0,0.0
1571,47.0,1,15,8.0,0.0
1572,44.0,27,15,8.0,0.0
1573,64.0,2,15,7.0,0.0
1574,59.0,1,15,7.0,0.0
1575,52.0,13,15,8.0,0.0
1576,47.0,0,15,8.0,0.0
1577,71.0,2,15,7.0,0.0
1578,59.0,0,15,8.0,0.0
1579,68.0,1,15,7.0,0.0
1580,56.0,26,15,8.0,0.0
1581,76.0,3,15,7.0,0.0
1582,64.0,1,15,8.0,0.0
1583,71.0,0,15,7.0,0.0
1584,59.0,26,15,8.0,0.0
1585,83.0,3,15,7.0,0.0
1586,80.0,0,15,7.0,0.0
1587,68.0,1,15,8.0,0.0
1588,71.0,26,15,8.0,0.0
1589,88.0,2,15,7.0,0.0
1590,83.0,2,15,7.0,0.0
1591,76.0,11,15,8.0,0.0
1592,71.0,0,15,8.0,0.0
1593,90.0,1,90,7.0,0.0
1594,78.0,1,90,7.0,0.0
1595,90.0,0,90,0.0,0.0
1596,85.0,1,90,7.0,0.0
1597,61.0,0,90,8.0,0.0
1598,73.0,0,90,1.0,0.0
1599,49.0,0,90,8.0,0.0
1600,54.0,0,90,8.0,0.0
1601,78.0,0,90,1.0,0.0
1602,82.0,3,90,2.0,0.0
1603,78.0,0,90,2.0,0.0
1604,46.0,0,90,8.0,0.0
1605,46.0,1,90,13.0,0.0
1606,66.0,1,90,3.0,0.0
1607,58.0,0,90,3.0,0.0
1608,46.0,23,90,14.0,0.0
1609,87.0,0,30,7.0,0.0
1610,75.0,1,30,7.0,0.0
1611,87.0,0,30,0.0,0.0
1612,54.0,0,30,8.0,0.0
1613,48.0,1,30,8.0,0.0
1614,80.0,0,30,7.0,0.0
1615,78.0,0,30,2.0,0.0
1616,80.0,0,30,2.0,0.0
1617,56.0,0,30,8.0,0.0
1618,80.0,0,30,1.0,0.0
1619,63.0,3,30,8.0,0.0
1620,75.0,0,30,1.0,0.0
1621,48.0,1,30,13.0,0.0
1622,63.0,1,30,3.0,0.0
1623,60.0,0,30,3.0,0.0
1624,48.0,19,30,14.0,0.0
1625,90.0,2,120,7.0,0.0
1626,88.0,1,20,10.0,0.0
1627,85.0,0,480,0.0,0.0
1628,88.0,0,480,0.0,0.0
1629,80.0,0,120,7.0,0.0
1630,64.0,1,120,8.0,0.0
1631,56.0,0,120,8.0,0.0
1632,85.0,2,20,11.0,0.0
1633,76.0,0,120,7.0,0.0
1634,76.0,0,480,1.0,0.0
1635,80.0,0,240,1.0,0.0
1636,49.0,0,120,8.0,0.0
1637,76.0,0,480,2.0,0.0
1638,80.0,2,240,2.0,0.0
1639,52.0,24,120,8.0,0.0
1640,76.0,0,20,12.0,0.0
1641,73.0,24,20,12.0,0.0
1642,49.0,0,240,13.0,0.0
1643,61.0,1,480,3.0,0.0
1644,64.0,0,480,3.0,0.0
1645,49.0,14,240,14.0,0.0
1646,85.0,1,20,10.0,0.0
1647,80.0,2,20,11.0,0.0
1648,73.0,30,20,12.0,0.0
1649,68.0,0,20,12.0,0.0
1650,85.0,1,20,10.0,0.0
1651,80.0,2,20,11.0,0.0
1652,68.0,24,20,12.0,0.0
1653,73.0,0,20,12.0,0.0
1654,80.0,1,20,10.0,0.0
1655,76.0,2,20,11.0,0.0
1656,68.0,0,20,12.0,0.0
1657,64.0,3,20,12.0,0.0
1658,80.0,1,20,10.0,0.0
1659,76.0,2,20,11.0,0.0
1660,68.0,0,20,12.0,0.0
1661,64.0,24,20,12.0,0.0
1662,76.0,1,20,10.0,0.0
1663,73.0,2,20,11.0,0.0
1664,64.0,30,20,12.0,0.0
1665,61.0,0,20,12.0,0.0
1666,76.0,1,20,10.0,0.0
1667,73.0,2,20,11.0,0.0
1668,61.0,0,20,12.0,0.0
1669,64.0,24,20,12.0,0.0
1670,73.0,1,20,10.0,0.0
1671,68.0,2,20,11.0,0.0
1672,61.0,0,20,12.0,0.0
1673,56.0,9,20,12.0,0.0
1674,73.0,1,20,10.0,0.0
1675,68.0,2,20,11.0,0.0
1676,79.0,0,240,1.0,0.0
1677,79.0,1,240,2.0,0.0
1678,61.0,0,20,12.0,0.0
1679,56.0,27,20,12.0,0.0
1680,47.0,2,120,13.0,0.0
1681,47.0,54,120,14.0,0.0
1682,68.0,1,20,10.0,0.0
1683,64.0,2,20,11.0,0.0
1684,52.0,0,20,12.0,0.0
1685,56.0,27,20,12.0,0.0
1686,68.0,1,20,10.0,0.0
1687,64.0,2,20,11.0,0.0
1688,56.0,27,20,12.0,0.0
1689,52.0,0,20,12.0,0.0
1690,67.0,1,20,10.0,0.0
1691,64.0,2,20,11.0,0.0
1692,52.0,11,20,12.0,0.0
1693,55.0,0,20,12.0,0.0
1694,61.0,62,60,7.0,0.0
1695,67.0,1,120,10.0,0.0
1696,64.0,1,120,11.0,0.0
1697,52.0,0,120,12.0,0.0
1698,55.0,0,120,12.0,0.0
1699,46.0,2,120,8.0,0.0
1700,46.0,1,120,13.0,0.0
1701,46.0,51,120,14.0,0.0
1702,72.0,4,120,7.0,0.0
1703,64.0,1,120,8.0,0.0
1704,52.0,115,120,8.0,0.0
1705,47.0,55,240,8.0,0.0
1706,73.0,4,120,7.0,0.0
1707,64.0,1,120,8.0,0.0
1708,52.0,55,120,8.0,0.0
1709,67.0,5,60,7.0,0.0
1710,64.0,1,120,8.0,0.0
1711,52.0,60,120,8.0,0.0
1712,66.0,4,60,7.0,0.0
1713,49.0,55,120,8.0,0.0
1714,80.0,4,120,7.0,0.0
1715,64.0,1,120,8.0,0.0
1716,52.0,115,120,8.0,0.0
1717,51.0,19,240,8.0,0.0
1718,81.0,4,120,7.0,0.0
1719,66.0,1,120,8.0,0.0
1720,54.0,55,120,8.0,0.0
1721,72.0,4,60,7.0,0.0
1722,66.0,1,60,8.0,0.0
1723,54.0,0,60,8.0,0.0
1724,71.0,24,20,7.0,0.0
1725,52.0,55,120,8.0,0.0
1726,73.0,24,20,7.0,0.0
1727,71.0,24,20,7.0,0.0
1728,68.0,1,120,8.0,0.0
1729,56.0,60,120,8.0,0.0
1730,70.0,24,20,7.0,0.0
1731,71.0,5,20,7.0,0.0
1732,85.0,4,60,7.0,0.0
1733,53.0,55,120,8.0,0.0
1734,86.0,4,120,7.0,0.0
1735,56.0,55,120,8.0,0.0
1736,47.0,59,120,8.0,0.0
1737,77.0,5,60,7.0,0.0
1738,68.0,1,15,8.0,0.0
1739,80.0,24,150,7.0,0.0
1740,45.0,35,360,8.0,0.0
1741,69.0,1,120,8.0,0.0
1742,61.0,95,15,8.0,0.0
1743,78.0,40,30,7.0,0.0
1744,61.0,15,15,8.0,0.0
1745,77.0,40,30,7.0,0.0
1746,78.0,24,30,7.0,0.0
1747,66.0,44,30,7.0,0.0
1748,57.0,15,15,8.0,0.0
1749,54.0,0,60,8.0,0.0
1750,76.0,25,90,7.0,0.0
1751,47.0,15,60,8.0,0.0
1752,73.0,40,30,7.0,0.0
1753,59.0,0,120,8.0,0.0
1754,62.0,15,120,8.0,0.0
1755,74.0,40,30,7.0,0.0
1756,77.0,25,30,7.0,0.0
1757,78.0,40,30,7.0,0.0
1758,54.0,60,120,8.0,0.0
1759,59.0,0,120,8.0,0.0
1760,74.0,60,30,7.0,0.0
1761,71.0,5,60,7.0,0.0
1762,69.0,25,90,7.0,0.0
1763,50.0,0,60,8.0,0.0
1764,54.0,35,60,8.0,0.0
1765,40.0,15,60,8.0,0.0
1766,66.0,40,30,7.0,0.0
1767,49.0,0,120,8.0,0.0
1768,59.0,0,120,8.0,0.0
1769,67.0,40,30,7.0,0.0
1770,70.0,25,30,7.0,0.0
1771,71.0,40,30,7.0,0.0
1772,52.0,15,15,8.0,0.0
1773,47.0,0,120,8.0,0.0
1774,67.0,60,30,7.0,0.0
1775,64.0,5,60,7.0,0.0
1776,61.0,2,60,7.0,0.0
1777,55.0,3,60,7.0,0.0
1778,47.0,115,60,8.0,0.0
1779,40.0,0,60,8.0,0.0
1780,59.0,2,120,7.0,0.0
1781,50.0,63,120,7.0,0.0
1782,54.0,3,240,7.0,0.0
1783,30.0,60,240,8.0,0.0
1784,42.0,55,120,8.0,0.0
1785,61.0,2,120,7.0,0.0
1786,52.0,0,120,7.0,0.0
1787,58.0,2,120,7.0,0.0
1788,49.0,3,120,7.0,0.0
1789,42.0,55,15,8.0,0.0
1790,59.0,2,120,7.0,0.0
1791,50.0,3,120,7.0,0.0
1792,35.0,30,30,8.0,0.0
1793,42.0,30,30,8.0,0.0
1794,47.0,25,30,8.0,0.0
1795,54.0,27,30,8.0,0.0
1796,66.0,30,30,7.0,0.0
1797,62.0,30,30,7.0,0.0
1798,54.0,23,30,7.0,0.0
1799,74.0,0,60,1.0,0.0
1800,78.0,10,60,1.0,0.0
1801,47.0,27,30,8.0,0.0
1802,66.0,23,30,7.0,0.0
1803,78.0,7,60,1.0,0.0
1804,74.0,0,60,1.0,0.0
1805,35.0,27,60,8.0,0.0
1806,62.0,3,30,7.0,0.0
1807,54.0,23,30,7.0,0.0
1808,78.0,10,60,1.0,0.0
1809,74.0,0,60,1.0,0.0
1810,47.0,27,30,8.0,0.0
1811,66.0,30,30,7.0,0.0
1812,74.0,0,240,1.0,0.0
1813,78.0,4,240,1.0,0.0
1814,40.0,27,60,8.0,0.0
1815,62.0,3,30,7.0,0.0
1816,55.0,33,30,7.0,0.0
1817,47.0,27,30,8.0,0.0
1818,66.0,30,30,7.0,0.0
1819,40.0,27,60,8.0,0.0
1820,62.0,3,30,7.0,0.0
1821,55.0,29,30,7.0,0.0
1822,47.0,27,30,8.0,0.0
1823,64.0,30,30,7.0,0.0
1824,79.0,27,90,1.0,0.0
1825,40.0,27,60,8.0,0.0
1826,61.0,3,30,7.0,0.0
1827,55.0,2,30,7.0,0.0
1828,76.0,0,15,1.0,0.0
1829,73.0,4,30,1.0,0.0
1830,47.0,27,30,8.0,0.0
1831,61.0,30,30,7.0,0.0
1832,70.0,4,240,1.0,0.0
1833,73.0,0,240,1.0,0.0
1834,42.0,27,60,8.0,0.0
1835,58.0,3,30,7.0,0.0
1836,55.0,33,30,7.0,0.0
1837,54.0,27,30,8.0,0.0
1838,61.0,30,30,7.0,0.0
1839,42.0,27,60,8.0,0.0
1840,58.0,3,30,7.0,0.0
1841,55.0,29,30,7.0,0.0
1842,54.0,27,30,8.0,0.0
1843,61.0,30,30,7.0,0.0
1844,73.0,0,120,1.0,0.0
1845,76.0,4,120,1.0,0.0
1846,42.0,27,60,8.0,0.0
1847,67.0,3,120,3.0,0.0
1848,58.0,3,30,7.0,0.0
1849,55.0,26,30,7.0,0.0
1850,54.0,27,30,8.0,0.0
1851,59.0,30,30,7.0,0.0
1852,71.0,0,180,1.0,0.0
1853,74.0,4,180,1.0,0.0
1854,42.0,27,60,8.0,0.0
1855,66.0,3,180,3.0,0.0
1856,54.0,3,30,7.0,0.0
1857,50.0,33,30,7.0,0.0
1858,42.0,27,30,8.0,0.0
1859,59.0,26,30,7.0,0.0
1860,30.0,27,60,8.0,0.0
1861,54.0,0,30,7.0,0.0
1862,50.0,23,30,7.0,0.0
1863,71.0,4,60,1.0,0.0
1864,62.0,6,60,3.0,0.0
1865,42.0,27,30,8.0,0.0
1866,58.0,23,30,7.0,0.0
1867,73.0,4,60,1.0,0.0
1868,30.0,27,60,8.0,0.0
1869,64.0,3,60,3.0,0.0
1870,54.0,2,30,7.0,0.0
1871,49.0,23,30,7.0,0.0
1872,66.0,1,15,1.0,0.0
1873,70.0,4,60,1.0,0.0
1874,61.0,6,60,3.0,0.0
1875,42.0,27,30,8.0,0.0
1876,59.0,30,30,7.0,0.0
1877,66.0,1,180,1.0,0.0
1878,71.0,0,180,1.0,0.0
1879,35.0,27,60,8.0,0.0
1880,59.0,24,180,3.0,0.0
1881,54.0,3,30,7.0,0.0
1882,47.0,33,30,7.0,0.0
1883,42.0,27,30,8.0,0.0
1884,63.0,0,30,7.0,0.0
1885,59.0,30,30,7.0,0.0
1886,35.0,3,60,8.0,0.0
1887,54.0,2,30,7.0,0.0
1888,63.0,2,60,10.0,0.0
1889,51.0,21,30,7.0,0.0
1890,78.0,0,60,2.0,0.0
1891,75.0,4,60,2.0,0.0
1892,63.0,0,60,3.0,0.0
1893,66.0,6,60,3.0,0.0
1894,47.0,27,30,8.0,0.0
1895,63.0,2,60,10.0,0.0
1896,63.0,0,30,7.0,0.0
1897,66.0,21,30,7.0,0.0
1898,75.0,4,60,2.0,0.0
1899,78.0,0,60,2.0,0.0
1900,35.0,27,60,8.0,0.0
1901,66.0,0,60,3.0,0.0
1902,63.0,3,60,3.0,0.0
1903,59.0,3,30,7.0,0.0
1904,54.0,21,30,7.0,0.0
1905,63.0,2,60,10.0,0.0
1906,75.0,0,60,2.0,0.0
1907,78.0,4,60,2.0,0.0
1908,63.0,6,60,3.0,0.0
1909,66.0,0,60,3.0,0.0
1910,42.0,27,30,8.0,0.0
1911,66.0,30,30,7.0,0.0
1912,56.0,2,600,10.0,0.0
1913,78.0,0,240,2.0,0.0
1914,75.0,1,240,2.0,0.0
1915,28.0,27,60,8.0,0.0
1916,63.0,24,240,3.0,0.0
1917,66.0,0,240,3.0,0.0
1918,63.0,3,30,7.0,0.0
1919,56.0,33,30,7.0,0.0
1920,40.0,27,30,8.0,0.0
1921,66.0,30,30,7.0,0.0
1922,28.0,27,60,8.0,0.0
1923,63.0,3,30,7.0,0.0
1924,56.0,32,30,7.0,0.0
1925,40.0,3,30,8.0,0.0
1926,64.0,30,30,7.0,0.0
1927,80.0,4,90,2.0,0.0
1928,28.0,27,60,8.0,0.0
1929,68.0,0,90,3.0,0.0
1930,61.0,3,30,7.0,0.0
1931,56.0,2,30,7.0,0.0
1932,76.0,0,15,2.0,0.0
1933,73.0,0,30,2.0,0.0
1934,40.0,3,30,8.0,0.0
1935,64.0,26,15,3.0,0.0
1936,61.0,30,30,7.0,0.0
1937,68.0,1,240,2.0,0.0
1938,73.0,0,240,2.0,0.0
1939,29.0,27,60,8.0,0.0
1940,53.0,24,240,3.0,0.0
1941,61.0,24,15,3.0,0.0
1942,56.0,3,30,7.0,0.0
1943,49.0,33,30,7.0,0.0
1944,41.0,27,30,8.0,0.0
1945,61.0,30,30,7.0,0.0
1946,29.0,27,60,8.0,0.0
1947,56.0,3,30,7.0,0.0
1948,49.0,30,30,7.0,0.0
1949,41.0,3,30,8.0,0.0
1950,65.0,2,120,10.0,0.0
1951,56.0,30,30,7.0,0.0
1952,59.0,0,30,7.0,0.0
1953,25.0,27,60,8.0,0.0
1954,56.0,24,120,3.0,0.0
1955,61.0,0,120,3.0,0.0
1956,53.0,3,30,7.0,0.0
1957,49.0,30,30,7.0,0.0
1958,37.0,3,30,8.0,0.0
1959,66.0,0,300,10.0,0.0
1960,59.0,30,30,7.0,0.0
1961,71.0,1,15,2.0,0.0
1962,26.0,27,60,8.0,0.0
1963,63.0,24,240,3.0,0.0
1964,54.0,0,240,3.0,0.0
1965,54.0,3,30,7.0,0.0
1966,51.0,33,30,7.0,0.0
1967,42.0,27,30,8.0,0.0
1968,59.0,30,30,7.0,0.0
1969,26.0,27,60,8.0,0.0
1970,54.0,3,30,7.0,0.0
1971,51.0,32,30,7.0,0.0
1972,42.0,3,30,8.0,0.0
1973,58.0,30,30,7.0,0.0
1974,73.0,4,90,2.0,0.0
1975,26.0,27,60,8.0,0.0
1976,64.0,26,90,3.0,0.0
1977,54.0,3,30,7.0,0.0
1978,49.0,2,30,7.0,0.0
1979,70.0,1,30,2.0,0.0
1980,42.0,3,30,8.0,0.0
1981,61.0,54,30,3.0,0.0
1982,26.0,27,60,8.0,0.0
1983,59.0,2,240,12.0,0.0
1984,50.0,38,240,13.0,0.0
1985,54.0,3,30,7.0,0.0
1986,42.0,30,30,7.0,0.0
1987,42.0,60,30,7.0,0.0
1988,26.0,27,60,8.0,0.0
1989,54.0,3,30,7.0,0.0
1990,42.0,30,15,7.0,0.0
1991,61.0,2,90,12.0,0.0
1992,30.0,37,30,8.0,0.0
1993,52.0,28,90,13.0,0.0
1994,54.0,13,30,7.0,0.0
1995,42.0,2,30,8.0,0.0
1996,58.0,0,30,12.0,0.0
1997,49.0,38,30,13.0,0.0
1998,30.0,37,30,8.0,0.0
1999,42.0,2,240,13.0,0.0
2000,30.0,88,240,14.0,0.0
2001,54.0,43,30,7.0,0.0
2002,42.0,60,30,8.0,0.0
2003,30.0,62,60,8.0,0.0
2004,43.0,2,90,13.0,0.0
2005,31.0,28,90,14.0,0.0
2006,40.0,2,30,13.0,0.0
2007,28.0,113,30,14.0,0.0
2008,61.0,2,120,7.0,0.0
2009,58.0,3,120,7.0,0.0
2010,54.0,0,120,7.0,0.0
2011,54.0,115,120,8.0,0.0
2012,53.0,120,240,7.0,0.0
2013,62.0,120,120,7.0,0.0
2014,56.0,0,240,7.0,0.0
2015,42.0,0,360,8.0,0.0
2016,59.0,0,120,7.0,0.0
2017,54.0,2,120,7.0,0.0
2018,66.0,1,600,4.0,0.0
2019,78.0,3,240,1.0,0.0
2020,70.0,1,120,2.0,0.0
2021,78.0,0,120,2.0,0.0
2022,54.0,116,600,5.0,0.0
2023,30.0,3,120,8.0,0.0
2024,66.0,4,240,13.0,0.0
2025,66.0,0,120,3.0,0.0
2026,58.0,113,120,3.0,0.0
2027,73.0,0,120,2.0,0.0
2028,76.0,0,120,2.0,0.0
2029,64.0,0,120,3.0,0.0
2030,61.0,116,120,3.0,0.0
2031,78.0,3,240,1.0,0.0
2032,71.0,4,120,2.0,0.0
2033,74.0,0,120,2.0,0.0
2034,66.0,4,240,13.0,0.0
2035,62.0,113,120,3.0,0.0
2036,59.0,0,120,3.0,0.0
2037,73.0,0,120,2.0,0.0
2038,70.0,0,120,2.0,0.0
2039,58.0,0,120,3.0,0.0
2040,61.0,115,120,3.0,0.0
2041,69.0,3,240,2.0,0.0
2042,78.0,0,240,1.0,0.0
2043,72.0,0,240,2.0,0.0
2044,66.0,1,240,13.0,0.0
2045,57.0,119,240,3.0,0.0
2046,60.0,0,240,3.0,0.0
2047,62.0,1,120,4.0,0.0
2048,50.0,0,120,5.0,0.0
2049,50.0,1,1560,4.0,0.0
2050,38.0,4,1560,5.0,0.0
2051,71.0,0,120,2.0,0.0
2052,74.0,3,120,2.0,0.0
2053,79.0,0,120,1.0,0.0
2054,67.0,1,120,13.0,0.0
2055,59.0,116,120,3.0,0.0
2056,55.0,0,120,3.0,0.0
2057,38.0,115,1920,14.0,0.0
2058,78.0,0,120,1.0,0.0
2059,69.0,3,120,2.0,0.0
2060,73.0,0,120,2.0,0.0
2061,66.0,1,120,13.0,0.0
2062,61.0,0,120,3.0,0.0
2063,57.0,116,120,3.0,0.0
2064,67.0,0,120,2.0,0.0
2065,76.0,3,120,1.0,0.0
2066,71.0,0,120,2.0,0.0
2067,64.0,1,120,13.0,0.0
2068,55.0,0,120,3.0,0.0
2069,59.0,116,120,3.0,0.0
2070,74.0,3,120,1.0,0.0
2071,66.0,0,120,2.0,0.0
2072,69.0,0,120,2.0,0.0
2073,62.0,1,120,13.0,0.0
2074,57.0,116,120,3.0,0.0
2075,54.0,0,120,3.0,0.0
2076,67.0,0,120,2.0,0.0
2077,64.0,0,120,2.0,0.0
2078,73.0,3,120,1.0,0.0
2079,61.0,1,120,13.0,0.0
2080,52.0,110,120,3.0,0.0
2081,55.0,0,120,3.0,0.0
2082,62.0,0,120,2.0,0.0
2083,71.0,4,120,1.0,0.0
2084,66.0,0,120,2.0,0.0
2085,59.0,120,120,13.0,0.0
2086,54.0,0,120,3.0,0.0
2087,50.0,2,120,3.0,0.0
2088,69.0,0,240,1.0,0.0
2089,64.0,4,120,2.0,0.0
2090,61.0,0,120,2.0,0.0
2091,57.0,1,240,13.0,0.0
2092,52.0,116,120,3.0,0.0
2093,49.0,0,120,3.0,0.0
2094,62.0,0,120,2.0,0.0
2095,59.0,3,120,2.0,0.0
2096,50.0,0,120,3.0,0.0
2097,47.0,116,120,3.0,0.0
2098,61.0,3,120,2.0,0.0
2099,64.0,0,120,2.0,0.0
2100,67.0,0,120,1.0,0.0
2101,55.0,1,120,13.0,0.0
2102,49.0,0,120,3.0,0.0
2103,52.0,116,120,3.0,0.0
2104,66.0,6,240,1.0,0.0
2105,62.0,4,120,2.0,0.0
2106,66.0,0,120,2.0,0.0
2107,54.0,114,240,13.0,0.0
2108,54.0,110,120,3.0,0.0
2109,50.0,0,120,3.0,0.0
2110,61.0,4,240,2.0,0.0
2111,64.0,0,240,2.0,0.0
2112,52.0,0,240,3.0,0.0
2113,49.0,5,240,3.0,0.0
2114,69.0,0,120,1.0,0.0
2115,57.0,111,120,13.0,0.0
2116,74.0,0,120,1.0,0.0
2117,59.0,4,240,2.0,0.0
2118,62.0,5,120,2.0,0.0
2119,50.0,2,480,13.0,0.0
2120,47.0,0,120,3.0,0.0
2121,54.0,110,120,3.0,0.0
2122,62.0,0,120,2.0,0.0
2123,74.0,6,120,1.0,0.0
2124,62.0,0,120,3.0,0.0
2125,66.0,110,120,3.0,0.0
2126,64.0,0,120,2.0,0.0
2127,76.0,6,120,1.0,0.0
2128,61.0,4,120,2.0,0.0
2129,61.0,116,120,3.0,0.0
2130,64.0,0,120,3.0,0.0
2131,66.0,3,240,2.0,0.0
2132,62.0,3,120,2.0,0.0
2133,78.0,0,240,1.0,0.0
2134,59.0,0,480,3.0,0.0
2135,62.0,120,480,3.0,0.0
2136,49.0,2,120,13.0,0.0
2137,37.0,109,120,14.0,0.0
2138,80.0,0,120,1.0,0.0
2139,68.0,6,120,2.0,0.0
2140,47.0,2,120,13.0,0.0
2141,35.0,122,120,14.0,0.0
2142,57.0,4,600,4.0,0.0
2143,69.0,2,600,2.0,0.0
2144,81.0,0,600,1.0,0.0
2145,45.0,3,600,13.0,0.0
2146,33.0,2,600,14.0,0.0
2147,61.0,0,120,3.0,0.0
2148,57.0,120,120,3.0,0.0
2149,59.0,120,120,3.0,0.0
2150,62.0,0,120,3.0,0.0
2151,61.0,109,120,3.0,0.0
2152,64.0,0,120,3.0,0.0
2153,62.0,0,120,3.0,0.0
2154,66.0,115,120,3.0,0.0
2155,57.0,4,120,4.0,0.0
2156,57.0,116,120,13.0,0.0
2157,67.0,114,360,3.0,0.0
2158,64.0,0,360,3.0,0.0
2159,62.0,4,120,4.0,0.0
2160,62.0,116,120,13.0,0.0
2161,61.0,4,120,4.0,0.0
2162,61.0,1,120,13.0,0.0
2163,76.0,1,120,10.0,0.0
2164,76.0,2,120,11.0,0.0
2165,59.0,0,120,4.0,0.0
2166,64.0,2,120,12.0,0.0
2167,59.0,1,120,13.0,0.0
2168,62.0,0,120,3.0,0.0
2169,68.0,114,120,3.0,0.0
2170,79.0,1,120,10.0,0.0
2171,79.0,2,120,11.0,0.0
2172,57.0,5,960,4.0,0.0
2173,67.0,3,120,12.0,0.0
2174,57.0,1,240,13.0,0.0
2175,61.0,111,240,3.0,0.0
2176,69.0,114,120,3.0,0.0
2177,76.0,1,120,10.0,0.0
2178,76.0,1,120,11.0,0.0
2179,64.0,3,120,12.0,0.0
2180,67.0,0,120,3.0,0.0
2181,74.0,1,120,10.0,0.0
2182,74.0,2,120,11.0,0.0
2183,62.0,0,120,12.0,0.0
2184,45.0,2,120,13.0,0.0
2185,66.0,5,120,3.0,0.0
2186,62.0,0,120,3.0,0.0
2187,33.0,113,120,14.0,0.0
2188,74.0,1,120,10.0,0.0
2189,74.0,2,120,11.0,0.0
2190,62.0,2,120,12.0,0.0
2191,55.0,1,120,13.0,0.0
2192,57.0,1,600,3.0,0.0
2193,64.0,1,120,3.0,0.0
2194,43.0,110,120,14.0,0.0
2195,73.0,1,120,10.0,0.0
2196,73.0,2,120,11.0,0.0
2197,61.0,5,120,12.0,0.0
2198,52.0,1,120,13.0,0.0
2199,67.0,1,120,3.0,0.0
2200,40.0,113,120,14.0,0.0
2201,74.0,1,120,10.0,0.0
2202,74.0,1,120,11.0,0.0
2203,62.0,1,120,12.0,0.0
2204,50.0,1,120,13.0,0.0
2205,66.0,114,120,3.0,0.0
2206,38.0,2,120,14.0,0.0
2207,78.0,1,120,10.0,0.0
2208,78.0,2,120,11.0,0.0
2209,66.0,2,120,12.0,0.0
2210,49.0,2,120,13.0,0.0
2211,67.0,1,240,3.0,0.0
2212,37.0,108,120,14.0,0.0
2213,76.0,0,120,10.0,0.0
2214,76.0,2,120,11.0,0.0
2215,64.0,2,120,12.0,0.0
2216,50.0,1,120,13.0,0.0
2217,38.0,108,120,14.0,0.0
2218,74.0,1,120,10.0,0.0
2219,54.0,5,120,4.0,0.0
2220,74.0,1,120,11.0,0.0
2221,62.0,1,120,12.0,0.0
2222,48.0,1,120,13.0,0.0
2223,57.0,0,120,3.0,0.0
2224,66.0,0,120,3.0,0.0
2225,36.0,116,120,14.0,0.0
2226,79.0,1,120,10.0,0.0
2227,50.0,2,480,4.0,0.0
2228,79.0,2,120,11.0,0.0
2229,67.0,2,120,12.0,0.0
2230,47.0,1,120,13.0,0.0
2231,55.0,0,360,3.0,0.0
2232,62.0,1,120,3.0,0.0
2233,35.0,113,120,14.0,0.0
2234,74.0,1,120,10.0,0.0
2235,74.0,2,120,11.0,0.0
2236,62.0,2,120,12.0,0.0
2237,50.0,1,120,13.0,0.0
2238,59.0,1,120,3.0,0.0
2239,38.0,113,120,14.0,0.0
2240,76.0,1,120,10.0,0.0
2241,76.0,2,120,11.0,0.0
2242,64.0,2,120,12.0,0.0
2243,47.0,2,120,13.0,0.0
2244,62.0,0,120,3.0,0.0
2245,35.0,113,120,14.0,0.0
2246,78.0,1,120,10.0,0.0
2247,78.0,0,120,11.0,0.0
2248,66.0,2,120,12.0,0.0
2249,45.0,2,120,13.0,0.0
2250,62.0,114,480,3.0,0.0
2251,54.0,0,240,3.0,0.0
2252,33.0,113,120,14.0,0.0
2253,66.0,1,120,10.0,0.0
2254,66.0,2,120,11.0,0.0
2255,54.0,2,120,12.0,0.0
2256,50.0,2,120,13.0,0.0
2257,38.0,113,120,14.0,0.0
2258,67.0,1,120,10.0,0.0
2259,67.0,1,120,11.0,0.0
2260,55.0,1,120,12.0,0.0
2261,47.0,1,120,13.0,0.0
2262,50.0,0,120,3.0,0.0
2263,35.0,122,120,14.0,0.0
2264,69.0,1,240,10.0,0.0
2265,69.0,2,240,11.0,0.0
2266,57.0,2,240,12.0,0.0
2267,45.0,1,240,13.0,0.0
2268,52.0,0,240,3.0,0.0
2269,33.0,115,240,14.0,0.0
2270,59.0,1,120,3.0,0.0
2271,69.0,4,120,1.0,0.0
2272,61.0,0,120,3.0,0.0
2273,79.0,0,120,1.0,0.0
2274,76.0,0,120,2.0,0.0
2275,49.0,110,240,3.0,0.0
2276,57.0,116,15,3.0,0.0
2277,76.0,4,120,1.0,0.0
2278,69.0,120,15,2.0,0.0
2279,67.0,0,120,2.0,0.0
2280,45.0,0,120,5.0,0.0
2281,66.0,9,120,2.0,0.0
2282,74.0,0,120,1.0,0.0
2283,45.0,1,120,13.0,0.0
2284,50.0,1,120,3.0,0.0
2285,33.0,115,120,14.0,0.0
2286,64.0,3,120,2.0,0.0
2287,57.0,6,240,5.0,0.0
2288,74.0,0,120,1.0,0.0
2289,55.0,1,120,13.0,0.0
2290,52.0,1,120,3.0,0.0
2291,43.0,109,120,14.0,0.0
2292,73.0,0,120,1.0,0.0
2293,67.0,0,120,2.0,0.0
2294,52.0,2,120,13.0,0.0
2295,40.0,109,120,14.0,0.0
2296,74.0,1,120,10.0,0.0
2297,74.0,1,120,11.0,0.0
2298,74.0,4,120,1.0,0.0
2299,54.0,0,120,5.0,0.0
2300,66.0,0,120,2.0,0.0
2301,74.0,1,120,2.0,0.0
2302,62.0,1,120,12.0,0.0
2303,50.0,0,120,13.0,0.0
2304,38.0,116,120,14.0,0.0
2305,84.0,1,120,10.0,0.0
2306,84.0,1,120,11.0,0.0
2307,50.0,1,1440,5.0,0.0
2308,74.0,1,120,1.0,0.0
2309,81.0,0,120,2.0,0.0
2310,72.0,117,120,12.0,0.0
2311,42.0,0,240,13.0,0.0
2312,62.0,1,240,3.0,0.0
2313,30.0,112,240,14.0,0.0
2314,81.0,0,120,10.0,0.0
2315,81.0,1,120,11.0,0.0
2316,72.0,1,120,1.0,0.0
2317,74.0,2,480,2.0,0.0
2318,69.0,1,120,12.0,0.0
2319,79.0,1,120,10.0,0.0
2320,79.0,2,120,11.0,0.0
2321,71.0,1,120,1.0,0.0
2322,67.0,2,120,12.0,0.0
2323,43.0,2,120,13.0,0.0
2324,62.0,114,120,3.0,0.0
2325,31.0,2,120,14.0,0.0
2326,79.0,1,120,10.0,0.0
2327,79.0,2,120,11.0,0.0
2328,69.0,1,240,1.0,0.0
2329,67.0,3,120,12.0,0.0
2330,48.0,0,240,13.0,0.0
2331,69.0,110,120,3.0,0.0
2332,50.0,2,240,3.0,0.0
2333,36.0,116,240,14.0,0.0
2334,78.0,1,120,10.0,0.0
2335,78.0,2,120,11.0,0.0
2336,66.0,0,120,12.0,0.0
2337,62.0,114,360,3.0,0.0
2338,79.0,1,120,10.0,0.0
2339,91.0,0,120,0.0,0.0
2340,79.0,0,120,0.0,0.0
2341,79.0,1,120,11.0,0.0
2342,67.0,0,120,1.0,0.0
2343,67.0,1,120,12.0,0.0
2344,47.0,1,120,13.0,0.0
2345,50.0,114,120,3.0,0.0
2346,35.0,2,120,14.0,0.0
2347,74.0,1,120,10.0,0.0
2348,62.0,0,480,4.0,0.0
2349,74.0,2,120,11.0,0.0
2350,81.0,0,240,0.0,0.0
2351,86.0,0,120,0.0,0.0
2352,74.0,1,1080,1.0,0.0
2353,62.0,3,120,12.0,0.0
2354,42.0,1,240,13.0,0.0
2355,57.0,0,120,3.0,0.0
2356,30.0,2,240,14.0,0.0
2357,72.0,1,120,10.0,0.0
2358,84.0,1,120,0.0,0.0
2359,72.0,0,120,11.0,0.0
2360,60.0,1,120,12.0,0.0
2361,50.0,0,240,3.0,0.0
2362,69.0,109,120,3.0,0.0
2363,71.0,1,120,10.0,0.0
2364,83.0,0,120,0.0,0.0
2365,79.0,2,120,0.0,0.0
2366,71.0,2,120,11.0,0.0
2367,59.0,2,120,12.0,0.0
2368,43.0,2,120,13.0,0.0
2369,67.0,0,120,3.0,0.0
2370,31.0,116,120,14.0,0.0
2371,69.0,1,120,10.0,0.0
2372,69.0,0,120,11.0,0.0
2373,81.0,0,120,0.0,0.0
2374,57.0,2,120,12.0,0.0
2375,45.0,2,120,13.0,0.0
2376,50.0,0,360,3.0,0.0
2377,66.0,1,240,3.0,0.0
2378,33.0,113,120,14.0,0.0
2379,66.0,1,120,10.0,0.0
2380,74.0,0,120,0.0,0.0
2381,78.0,2,15,0.0,0.0
2382,66.0,0,120,11.0,0.0
2383,69.0,2,120,4.0,0.0
2384,54.0,2,120,12.0,0.0
2385,50.0,1,120,13.0,0.0
2386,38.0,108,120,14.0,0.0
2387,67.0,1,120,10.0,0.0
2388,79.0,1,120,0.0,0.0
2389,67.0,2,120,11.0,0.0
2390,67.0,1,120,4.0,0.0
2391,55.0,0,120,12.0,0.0
2392,47.0,2,120,13.0,0.0
2393,62.0,1,120,3.0,0.0
2394,35.0,122,120,14.0,0.0
2395,69.0,1,240,10.0,0.0
2396,69.0,2,240,11.0,0.0
2397,81.0,2,240,0.0,0.0
2398,64.0,5,240,4.0,0.0
2399,45.0,0,360,5.0,0.0
2400,57.0,1,240,12.0,0.0
2401,45.0,2,360,13.0,0.0
2402,52.0,2,360,3.0,0.0
2403,62.0,109,120,3.0,0.0
2404,33.0,236,360,14.0,0.0
2405,59.0,109,120,3.0,0.0
2406,69.0,1,120,10.0,0.0
2407,69.0,2,120,11.0,0.0
2408,81.0,1,120,0.0,0.0
2409,67.0,0,120,4.0,0.0
2410,57.0,0,120,12.0,0.0
2411,61.0,0,120,3.0,0.0
2412,69.0,1,240,10.0,0.0
2413,81.0,2,240,0.0,0.0
2414,69.0,0,240,11.0,0.0
2415,67.0,1,720,4.0,0.0
2416,38.0,56,1440,5.0,0.0
2417,73.0,4,360,1.0,0.0
2418,57.0,112,240,12.0,0.0
2419,38.0,1,840,13.0,0.0
2420,61.0,355,360,3.0,0.0
2421,52.0,0,720,3.0,0.0
2422,26.0,109,840,14.0,0.0
2423,62.0,1,120,10.0,0.0
2424,62.0,2,120,11.0,0.0
2425,74.0,2,120,0.0,0.0
2426,50.0,2,120,12.0,0.0
2427,62.0,0,480,10.0,0.0
2428,74.0,0,480,0.0,0.0
2429,62.0,0,480,11.0,0.0
2430,71.0,4,360,1.0,0.0
2431,50.0,2,480,12.0,0.0
2432,59.0,112,360,3.0,0.0
2433,74.0,1,240,7.0,0.0
2434,66.0,2,120,7.0,0.0
2435,62.0,1,240,8.0,0.0
2436,66.0,1,120,4.0,0.0
2437,69.0,1,120,1.0,0.0
2438,54.0,1,120,8.0,0.0
2439,57.0,1,120,3.0,0.0
2440,54.0,0,120,3.0,0.0
2441,69.0,1,120,7.0,0.0
2442,73.0,0,120,7.0,0.0
2443,61.0,2,120,8.0,0.0
2444,57.0,116,120,8.0,0.0
2445,74.0,1,240,7.0,0.0
2446,67.0,1,120,7.0,0.0
2447,71.0,2,120,7.0,0.0
2448,62.0,1,240,8.0,0.0
2449,59.0,1,120,8.0,0.0
2450,55.0,115,120,8.0,0.0
2451,66.0,2,120,7.0,0.0
2452,69.0,0,120,7.0,0.0
2453,57.0,0,120,8.0,0.0
2454,54.0,58,120,8.0,0.0
2455,74.0,3,60,7.0,0.0
2456,68.0,1,120,7.0,0.0
2457,62.0,54,60,8.0,0.0
2458,65.0,3,120,7.0,0.0
2459,53.0,58,120,8.0,0.0
2460,56.0,0,120,8.0,0.0
2461,73.0,2,60,7.0,0.0
2462,61.0,0,60,8.0,0.0
2463,74.0,2,60,7.0,0.0
2464,68.0,1,120,7.0,0.0
2465,64.0,1,120,7.0,0.0
2466,62.0,54,60,8.0,0.0
2467,56.0,1,120,8.0,0.0
2468,52.0,1,120,8.0,0.0
2469,71.0,2,60,7.0,0.0
2470,59.0,1,60,8.0,0.0
2471,69.0,4,60,7.0,0.0
2472,62.0,2,240,7.0,0.0
2473,66.0,2,120,7.0,0.0
2474,57.0,58,60,8.0,0.0
2475,54.0,53,120,8.0,0.0
2476,50.0,0,240,8.0,0.0
2477,68.0,4,120,7.0,0.0
2478,56.0,56,120,8.0,0.0
2479,64.0,2,120,7.0,0.0
2480,52.0,59,120,8.0,0.0
2481,68.0,4,120,7.0,0.0
2482,56.0,53,120,8.0,0.0
2483,61.0,2,120,7.0,0.0
2484,64.0,0,120,7.0,0.0
2485,49.0,0,120,8.0,0.0
2486,52.0,0,120,8.0,0.0
2487,69.0,2,60,7.0,0.0
2488,57.0,59,60,8.0,0.0
2489,67.0,4,60,7.0,0.0
2490,61.0,2,240,7.0,0.0
2491,64.0,2,120,7.0,0.0
2492,49.0,59,240,8.0,0.0
2493,52.0,56,120,8.0,0.0
2494,55.0,55,60,8.0,0.0
2495,66.0,4,120,7.0,0.0
2496,54.0,58,120,8.0,0.0
2497,62.0,0,120,7.0,0.0
2498,50.0,0,120,8.0,0.0
2499,66.0,4,120,7.0,0.0
2500,54.0,55,120,8.0,0.0
2501,62.0,0,120,7.0,0.0
2502,59.0,1,120,7.0,0.0
2503,50.0,3,120,8.0,0.0
2504,47.0,0,120,8.0,0.0
2505,67.0,1,60,7.0,0.0
2506,55.0,56,60,8.0,0.0
2507,74.0,4,60,7.0,0.0
2508,50.0,0,120,8.0,0.0
2509,62.0,57,60,8.0,0.0
2510,46.0,56,120,8.0,0.0
2511,67.0,4,120,7.0,0.0
2512,55.0,58,120,8.0,0.0
2513,62.0,1,120,7.0,0.0
2514,50.0,3,120,8.0,0.0
2515,45.0,0,120,8.0,0.0
2516,66.0,1,60,7.0,0.0
2517,54.0,56,60,8.0,0.0
2518,71.0,4,60,7.0,0.0
2519,62.0,2,120,7.0,0.0
2520,44.0,0,120,8.0,0.0
2521,59.0,55,60,8.0,0.0
2522,50.0,56,120,8.0,0.0
2523,64.0,4,120,7.0,0.0
2524,52.0,46,120,8.0,0.0
2525,57.0,2,120,7.0,0.0
2526,61.0,0,120,7.0,0.0
2527,49.0,0,120,8.0,0.0
2528,43.0,9,120,8.0,0.0
2529,64.0,12,60,7.0,0.0
2530,52.0,0,60,8.0,0.0
2531,67.0,41,20,7.0,0.0
2532,61.0,0,120,7.0,0.0
2533,57.0,2,120,7.0,0.0
2534,49.0,0,120,8.0,0.0
2535,42.0,0,120,8.0,0.0
2536,45.0,0,120,8.0,0.0
2537,54.0,50,60,8.0,0.0
2538,66.0,10,30,7.0,0.0
2539,64.0,8,60,7.0,0.0
2540,52.0,50,60,8.0,0.0
2541,66.0,10,60,7.0,0.0
2542,61.0,2,120,7.0,0.0
2543,57.0,0,120,7.0,0.0
2544,40.0,0,120,8.0,0.0
2545,49.0,0,120,8.0,0.0
2546,54.0,50,60,8.0,0.0
2547,67.0,8,60,7.0,0.0
2548,55.0,119,60,8.0,0.0
2549,45.0,0,15,8.0,0.0
2550,50.0,0,120,8.0,0.0
2551,69.0,2,120,7.0,0.0
2552,54.0,0,120,8.0,0.0
2553,66.0,0,120,7.0,0.0
2554,57.0,0,120,7.0,0.0
2555,62.0,1,240,4.0,0.0
2556,50.0,4,240,5.0,0.0
2557,50.0,0,240,13.0,0.0
2558,38.0,6,4200,14.0,0.0
2559,74.0,2,120,7.0,0.0
2560,62.0,2,15,7.0,0.0
2561,38.0,111,15,8.0,0.0
2562,26.0,0,120,8.0,0.0
2563,81.0,2,120,7.0,0.0
2564,72.0,2,120,7.0,0.0
2565,50.0,1,240,4.0,0.0
2566,69.0,0,120,8.0,0.0
2567,38.0,4,240,5.0,0.0
2568,60.0,111,120,8.0,0.0
2569,62.0,0,240,13.0,0.0
2570,80.0,2,120,7.0,0.0
2571,71.0,0,120,7.0,0.0
2572,68.0,0,120,8.0,0.0
2573,59.0,58,120,8.0,0.0
2574,79.0,2,120,7.0,0.0
2575,74.0,2,15,7.0,0.0
2576,70.0,2,120,7.0,0.0
2577,50.0,1,240,4.0,0.0
2578,58.0,58,120,8.0,0.0
2579,67.0,0,120,8.0,0.0
2580,62.0,0,15,8.0,0.0
2581,38.0,4,240,5.0,0.0
2582,50.0,2,240,13.0,0.0
2583,73.0,0,60,7.0,0.0
2584,61.0,0,60,8.0,0.0
2585,78.0,2,120,7.0,0.0
2586,74.0,2,60,7.0,0.0
2587,57.0,0,120,8.0,0.0
2588,62.0,51,60,8.0,0.0
2589,66.0,0,120,8.0,0.0
2590,77.0,0,120,7.0,0.0
2591,71.0,0,15,7.0,0.0
2592,69.0,0,15,7.0,0.0
2593,50.0,1,3000,4.0,0.0
2594,65.0,58,120,8.0,0.0
2595,59.0,58,15,8.0,0.0
2596,38.0,1,3000,5.0,0.0
2597,57.0,55,60,8.0,0.0
2598,38.0,2,3480,13.0,0.0
2599,56.0,55,120,8.0,0.0
2600,74.0,2,15,7.0,0.0
2601,76.0,2,120,7.0,0.0
2602,71.0,2,120,7.0,0.0
2603,59.0,0,15,8.0,0.0
2604,62.0,0,15,8.0,0.0
2605,68.0,3,15,7.0,0.0
2606,56.0,55,120,8.0,0.0
2607,76.0,2,120,7.0,0.0
2608,73.0,0,120,7.0,0.0
2609,64.0,58,15,8.0,0.0
2610,61.0,0,120,8.0,0.0
2611,75.0,0,120,7.0,0.0
2612,69.0,2,15,7.0,0.0
2613,67.0,3,60,7.0,0.0
2614,60.0,0,120,8.0,0.0
2615,57.0,57,15,8.0,0.0
2616,63.0,58,120,8.0,0.0
2617,55.0,55,60,8.0,0.0
2618,72.0,2,15,7.0,0.0
2619,69.0,2,15,7.0,0.0
2620,57.0,0,15,8.0,0.0
2621,60.0,1,120,8.0,0.0
2622,62.0,0,120,8.0,0.0
2623,66.0,3,15,7.0,0.0
2624,54.0,55,15,8.0,0.0
2625,74.0,0,15,7.0,0.0
2626,71.0,2,120,7.0,0.0
2627,67.0,3,60,7.0,0.0
2628,62.0,1,120,8.0,0.0
2629,59.0,0,120,8.0,0.0
2630,55.0,55,60,8.0,0.0
2631,65.0,2,60,7.0,0.0
2632,53.0,57,60,8.0,0.0
2633,72.0,2,120,7.0,0.0
2634,64.0,3,60,7.0,0.0
2635,71.0,2,120,7.0,0.0
2636,59.0,1,120,8.0,0.0
2637,52.0,55,60,8.0,0.0
2638,62.0,0,60,7.0,0.0
2639,50.0,57,60,8.0,0.0
2640,64.0,3,60,7.0,0.0
2641,60.0,0,15,8.0,0.0
2642,57.0,1,120,8.0,0.0
2643,52.0,55,60,8.0,0.0
2644,57.0,2,60,7.0,0.0
2645,45.0,57,60,8.0,0.0
2646,72.0,2,15,7.0,0.0
2647,69.0,0,15,7.0,0.0
2648,66.0,3,60,7.0,0.0
2649,60.0,1,120,8.0,0.0
2650,54.0,55,60,8.0,0.0
2651,64.0,2,60,7.0,0.0
2652,52.0,57,60,8.0,0.0
2653,62.0,3,60,7.0,0.0
2654,69.0,0,120,7.0,0.0
2655,57.0,0,15,8.0,0.0
2656,59.0,0,120,8.0,0.0
2657,50.0,55,60,8.0,0.0
2658,61.0,2,60,7.0,0.0
2659,49.0,57,60,8.0,0.0
2660,71.0,2,15,7.0,0.0
2661,62.0,3,60,7.0,0.0
2662,59.0,0,120,8.0,0.0
2663,55.0,1,120,8.0,0.0
2664,50.0,55,60,8.0,0.0
2665,55.0,0,60,7.0,0.0
2666,43.0,57,60,8.0,0.0
2667,74.0,2,120,7.0,0.0
2668,67.0,2,15,7.0,0.0
2669,71.0,0,120,7.0,0.0
2670,59.0,0,120,8.0,0.0
2671,62.0,1,120,8.0,0.0
2672,55.0,55,60,8.0,0.0
2673,66.0,2,60,7.0,0.0
2674,54.0,57,60,8.0,0.0
2675,73.0,2,120,7.0,0.0
2676,64.0,3,60,7.0,0.0
2677,57.0,0,120,8.0,0.0
2678,52.0,55,60,8.0,0.0
2679,57.0,2,60,7.0,0.0
2680,45.0,57,60,8.0,0.0
2681,76.0,1,120,7.0,0.0
2682,73.0,2,120,7.0,0.0
2683,69.0,0,15,7.0,0.0
2684,61.0,1,15,8.0,0.0
2685,57.0,56,60,8.0,0.0
2686,67.0,0,60,7.0,0.0
2687,55.0,57,60,8.0,0.0
2688,76.0,1,120,7.0,0.0
2689,66.0,3,60,7.0,0.0
2690,72.0,2,120,7.0,0.0
2691,64.0,1,15,8.0,0.0
2692,60.0,0,120,8.0,0.0
2693,54.0,56,60,8.0,0.0
2694,60.0,0,60,7.0,0.0
2695,48.0,57,60,8.0,0.0
2696,81.0,1,120,7.0,0.0
2697,72.0,3,60,7.0,0.0
2698,78.0,0,120,7.0,0.0
2699,66.0,0,120,8.0,0.0
2700,60.0,56,60,8.0,0.0
2701,69.0,2,60,7.0,0.0
2702,57.0,57,60,8.0,0.0
2703,84.0,1,120,7.0,0.0
2704,81.0,2,120,7.0,0.0
2705,76.0,3,60,7.0,0.0
2706,69.0,1,15,8.0,0.0
2707,64.0,56,60,8.0,0.0
2708,72.0,0,60,7.0,0.0
2709,60.0,57,60,8.0,0.0
2710,88.0,1,120,7.0,0.0
2711,81.0,3,60,7.0,0.0
2712,84.0,2,120,7.0,0.0
2713,72.0,1,15,8.0,0.0
2714,76.0,0,120,8.0,0.0
2715,69.0,56,60,8.0,0.0
2716,79.0,0,60,7.0,0.0
2717,67.0,57,60,8.0,0.0
2718,86.0,1,120,7.0,0.0
2719,78.0,3,60,7.0,0.0
2720,74.0,0,120,8.0,0.0
2721,66.0,56,60,8.0,0.0
2722,76.0,0,60,7.0,0.0
2723,64.0,57,60,8.0,0.0
2724,81.0,2,15,7.0,0.0
2725,74.0,3,60,7.0,0.0
2726,69.0,1,15,8.0,0.0
2727,62.0,56,60,8.0,0.0
2728,72.0,0,60,7.0,0.0
2729,78.0,2,15,7.0,0.0
2730,71.0,3,60,7.0,0.0
2731,66.0,0,15,8.0,0.0
2732,60.0,57,15,8.0,0.0
2733,59.0,56,60,8.0,0.0
2734,69.0,0,60,7.0,0.0
2735,57.0,57,60,8.0,0.0
2736,79.0,1,120,7.0,0.0
2737,72.0,2,15,7.0,0.0
2738,67.0,0,120,8.0,0.0
2739,60.0,56,60,8.0,0.0
2740,74.0,2,15,7.0,0.0
2741,69.0,3,60,7.0,0.0
2742,71.0,0,15,7.0,0.0
2743,62.0,1,15,8.0,0.0
2744,59.0,57,15,8.0,0.0
2745,57.0,56,60,8.0,0.0
2746,67.0,0,60,7.0,0.0
2747,55.0,57,60,8.0,0.0
2748,74.0,1,120,7.0,0.0
2749,66.0,3,60,7.0,0.0
2750,71.0,2,120,7.0,0.0
2751,62.0,1,15,8.0,0.0
2752,59.0,0,120,8.0,0.0
2753,54.0,56,60,8.0,0.0
2754,67.0,0,60,7.0,0.0
2755,55.0,57,60,8.0,0.0
2756,76.0,2,120,7.0,0.0
2757,73.0,1,120,7.0,0.0
2758,70.0,3,60,7.0,0.0
2759,64.0,0,120,8.0,0.0
2760,61.0,0,120,8.0,0.0
2761,58.0,55,60,8.0,0.0
2762,67.0,0,60,7.0,0.0
2763,70.0,2,120,7.0,0.0
2764,64.0,3,60,7.0,0.0
2765,67.0,2,120,7.0,0.0
2766,58.0,1,120,8.0,0.0
2767,55.0,57,15,8.0,0.0
2768,52.0,55,60,8.0,0.0
2769,61.0,0,60,7.0,0.0
2770,64.0,2,120,7.0,0.0
2771,58.0,3,60,7.0,0.0
2772,61.0,0,120,7.0,0.0
2773,52.0,1,120,8.0,0.0
2774,49.0,57,15,8.0,0.0
2775,46.0,55,60,8.0,0.0
2776,55.0,2,60,7.0,0.0
2777,43.0,57,60,8.0,0.0
2778,62.0,0,120,7.0,0.0
2779,54.0,3,60,7.0,0.0
2780,57.0,2,120,7.0,0.0
2781,45.0,1,120,8.0,0.0
2782,50.0,0,120,8.0,0.0
2783,42.0,55,60,8.0,0.0
2784,52.0,2,60,7.0,0.0
2785,40.0,115,60,8.0,0.0
2786,50.0,5,120,7.0,0.0
2787,38.0,2,120,8.0,0.0
2788,57.0,2,120,4.0,0.0
2789,81.0,1,120,0.0,0.0
2790,66.0,0,120,2.0,0.0
2791,62.0,0,120,2.0,0.0
2792,69.0,1,120,1.0,0.0
2793,48.0,1,15,7.0,0.0
2794,36.0,5,15,8.0,0.0
2795,48.0,8,120,3.0,0.0
2796,54.0,0,120,3.0,0.0
2797,50.0,3,15,7.0,0.0
2798,38.0,6,15,8.0,0.0
2799,48.0,2,15,7.0,0.0
2800,36.0,5,15,8.0,0.0
2801,50.0,1,15,7.0,0.0
2802,38.0,7,15,8.0,0.0
2803,48.0,1,15,7.0,0.0
2804,36.0,4,15,8.0,0.0
2805,50.0,2,15,7.0,0.0
2806,38.0,8,15,8.0,0.0
2807,48.0,2,15,7.0,0.0
2808,36.0,2,15,8.0,0.0
2809,50.0,3,15,7.0,0.0
2810,38.0,5,15,8.0,0.0
2811,48.0,4,15,7.0,0.0
2812,36.0,3,15,8.0,0.0
2813,50.0,4,15,7.0,0.0
2814,38.0,5,15,8.0,0.0
2815,48.0,1,15,7.0,0.0
2816,36.0,18,15,8.0,0.0
2817,47.0,3,15,7.0,0.0
2818,35.0,8,15,8.0,0.0
2819,48.0,0,15,7.0,0.0
2820,36.0,6,15,8.0,0.0
2821,35.0,14,15,8.0,0.0
2822,62.0,1,240,4.0,0.0
2823,86.0,1,240,0.0,0.0
2824,67.0,1,240,2.0,0.0
2825,62.0,0,240,2.0,0.0
2826,74.0,0,240,1.0,0.0
2827,55.0,0,240,3.0,0.0
2828,47.0,8,240,3.0,0.0
2829,47.0,14,15,8.0,0.0
2830,50.0,14,15,8.0,0.0
2831,55.0,14,15,8.0,0.0
2832,59.0,14,15,8.0,0.0
2833,62.0,14,15,7.0,0.0
2834,67.0,14,15,7.0,0.0
2835,71.0,14,15,7.0,0.0
2836,74.0,14,15,7.0,0.0
2837,71.0,15,15,7.0,0.0
2838,67.0,14,15,7.0,0.0
2839,62.0,14,15,7.0,0.0
2840,59.0,14,15,8.0,0.0
2841,55.0,14,15,8.0,0.0
2842,50.0,14,15,8.0,0.0
2843,47.0,11,15,8.0,0.0
2844,35.0,2,15,8.0,0.0
2845,57.0,0,120,4.0,0.0
2846,48.0,2,15,7.0,0.0
2847,81.0,1,120,0.0,0.0
2848,62.0,1,120,2.0,0.0
2849,66.0,0,120,2.0,0.0
2850,69.0,0,120,1.0,0.0
2851,36.0,5,15,8.0,0.0
2852,48.0,10,120,3.0,0.0
2853,54.0,0,120,3.0,0.0
2854,50.0,1,15,7.0,0.0
2855,38.0,7,15,8.0,0.0
2856,48.0,2,15,7.0,0.0
2857,36.0,4,15,8.0,0.0
2858,50.0,2,15,7.0,0.0
2859,38.0,5,15,8.0,0.0
2860,48.0,2,15,7.0,0.0
2861,36.0,7,15,8.0,0.0
2862,50.0,1,15,7.0,0.0
2863,38.0,6,15,8.0,0.0
2864,48.0,2,15,7.0,0.0
2865,36.0,6,15,8.0,0.0
2866,50.0,2,15,7.0,0.0
2867,38.0,4,15,8.0,0.0
2868,48.0,2,15,7.0,0.0
2869,36.0,5,15,8.0,0.0
2870,50.0,3,15,7.0,0.0
2871,38.0,6,15,8.0,0.0
2872,48.0,3,15,7.0,0.0
2873,36.0,6,15,8.0,0.0
2874,38.0,0,15,8.0,0.0
2875,50.0,7,15,7.0,0.0
2876,48.0,1,15,7.0,0.0
2877,36.0,8,15,8.0,0.0
2878,50.0,2,15,7.0,0.0
2879,38.0,6,15,8.0,0.0
2880,48.0,0,15,7.0,0.0
2881,36.0,8,15,8.0,0.0
2882,86.0,1,240,0.0,0.0
2883,62.0,1,240,4.0,0.0
2884,67.0,1,240,2.0,0.0
2885,62.0,0,240,2.0,0.0
2886,35.0,12,15,8.0,0.0
2887,74.0,0,240,1.0,0.0
2888,47.0,6,240,3.0,0.0
2889,55.0,0,240,3.0,0.0
2890,47.0,14,15,8.0,0.0
2891,50.0,14,15,8.0,0.0
2892,55.0,14,15,8.0,0.0
2893,59.0,14,15,8.0,0.0
2894,62.0,14,15,7.0,0.0
2895,67.0,14,15,7.0,0.0
2896,71.0,14,15,7.0,0.0
2897,74.0,14,15,7.0,0.0
2898,71.0,15,15,7.0,0.0
2899,67.0,14,15,7.0,0.0
2900,62.0,14,15,7.0,0.0
2901,59.0,14,15,8.0,0.0
2902,55.0,14,15,8.0,0.0
2903,50.0,14,15,8.0,0.0
2904,47.0,11,15,8.0,0.0
2905,35.0,2,15,8.0,0.0
2906,46.0,3,15,7.0,0.0
2907,62.0,3,120,4.0,0.0
2908,86.0,1,120,0.0,0.0
2909,74.0,4,120,1.0,0.0
2910,67.0,0,120,2.0,0.0
2911,74.0,0,120,2.0,0.0
2912,34.0,6,15,8.0,0.0
2913,46.0,0,120,3.0,0.0
2914,62.0,7,120,3.0,0.0
2915,48.0,1,15,7.0,0.0
2916,36.0,5,15,8.0,0.0
2917,46.0,4,15,7.0,0.0
2918,34.0,5,15,8.0,0.0
2919,48.0,1,15,7.0,0.0
2920,36.0,5,15,8.0,0.0
2921,46.0,4,15,7.0,0.0
2922,34.0,5,15,8.0,0.0
2923,48.0,2,15,7.0,0.0
2924,36.0,4,15,8.0,0.0
2925,46.0,2,15,7.0,0.0
2926,34.0,7,15,8.0,0.0
2927,48.0,2,15,7.0,0.0
2928,36.0,6,15,8.0,0.0
2929,46.0,1,15,7.0,0.0
2930,34.0,4,15,8.0,0.0
2931,48.0,2,15,7.0,0.0
2932,36.0,8,15,8.0,0.0
2933,46.0,1,15,7.0,0.0
2934,34.0,5,15,8.0,0.0
2935,48.0,2,15,7.0,0.0
2936,36.0,7,15,8.0,0.0
2937,46.0,3,15,7.0,0.0
2938,34.0,5,15,8.0,0.0
2939,48.0,1,15,7.0,0.0
2940,36.0,7,15,8.0,0.0
2941,34.0,3,15,8.0,0.0
2942,46.0,0,15,7.0,0.0
2943,33.0,13,15,8.0,0.0
2944,67.0,0,120,4.0,0.0
2945,91.0,1,120,0.0,0.0
2946,73.0,0,120,2.0,0.0
2947,67.0,2,120,2.0,0.0
2948,79.0,4,120,1.0,0.0
2949,45.0,7,600,3.0,0.0
2950,61.0,9,120,3.0,0.0
2951,45.0,13,15,8.0,0.0
2952,49.0,14,15,8.0,0.0
2953,52.0,13,15,8.0,0.0
2954,57.0,13,15,7.0,0.0
2955,61.0,14,15,7.0,0.0
2956,64.0,13,15,7.0,0.0
2957,69.0,11,15,7.0,0.0
2958,73.0,2,15,7.0,0.0
2959,76.0,15,15,7.0,0.0
2960,64.0,0,120,4.0,0.0
2961,88.0,1,120,0.0,0.0
2962,71.0,4,120,2.0,0.0
2963,67.0,0,120,2.0,0.0
2964,76.0,0,120,1.0,0.0
2965,55.0,9,120,3.0,0.0
2966,73.0,15,15,7.0,0.0
2967,69.0,15,15,7.0,0.0
2968,64.0,15,15,7.0,0.0
2969,59.0,15,15,8.0,0.0
2970,55.0,15,15,8.0,0.0
2971,52.0,15,15,8.0,0.0
2972,45.0,1,15,8.0,0.0
2973,74.0,15,15,7.0,0.0
2974,62.0,1,120,4.0,0.0
2975,86.0,0,120,0.0,0.0
2976,66.0,0,120,2.0,0.0
2977,69.0,0,120,2.0,0.0
2978,74.0,4,120,1.0,0.0
2979,54.0,9,120,3.0,0.0
2980,69.0,15,15,7.0,0.0
2981,66.0,15,15,7.0,0.0
2982,62.0,15,15,7.0,0.0
2983,57.0,15,15,8.0,0.0
2984,54.0,15,15,8.0,0.0
2985,50.0,15,15,8.0,0.0
2986,45.0,1,15,8.0,0.0
2987,73.0,15,15,7.0,0.0
2988,85.0,1,120,0.0,0.0
2989,61.0,0,120,4.0,0.0
2990,67.0,0,120,2.0,0.0
2991,64.0,4,120,2.0,0.0
2992,73.0,0,120,1.0,0.0
2993,52.0,9,120,3.0,0.0
2994,67.0,15,15,7.0,0.0
2995,64.0,15,15,7.0,0.0
2996,61.0,15,15,7.0,0.0
2997,55.0,15,15,8.0,0.0
2998,52.0,15,15,8.0,0.0
2999,45.0,15,15,8.0,0.0
3000,33.0,1,15,8.0,0.0
3001,71.0,15,15,7.0,0.0
3002,83.0,1,120,0.0,0.0
3003,59.0,2,120,4.0,0.0
3004,71.0,0,120,1.0,0.0
3005,62.0,1,120,2.0,0.0
3006,66.0,0,120,2.0,0.0
3007,50.0,5,120,3.0,0.0
3008,66.0,15,15,7.0,0.0
3009,62.0,15,15,7.0,0.0
3010,59.0,15,15,7.0,0.0
3011,54.0,15,15,8.0,0.0
3012,50.0,15,15,8.0,0.0
3013,45.0,11,15,8.0,0.0
3014,33.0,1,15,8.0,0.0
3015,69.0,3,15,7.0,0.0
3016,31.0,10,15,8.0,0.0
3017,81.0,1,120,0.0,0.0
3018,57.0,1,120,4.0,0.0
3019,69.0,1,120,1.0,0.0
3020,61.0,0,120,2.0,0.0
3021,64.0,0,120,2.0,0.0
3022,49.0,7,120,3.0,0.0
3023,43.0,0,120,3.0,0.0
3024,64.0,6,15,7.0,0.0
3025,43.0,0,15,8.0,0.0
3026,45.0,7,15,8.0,0.0
3027,61.0,0,15,7.0,0.0
3028,43.0,7,15,8.0,0.0
3029,45.0,7,15,8.0,0.0
3030,57.0,3,15,7.0,0.0
3031,43.0,5,15,8.0,0.0
3032,45.0,8,15,8.0,0.0
3033,55.0,1,15,7.0,0.0
3034,43.0,6,15,8.0,0.0
3035,57.0,6,15,7.0,0.0
3036,45.0,4,15,8.0,0.0
3037,43.0,6,15,8.0,0.0
3038,55.0,13,15,7.0,0.0
3039,45.0,2,15,8.0,0.0
3040,42.0,0,15,8.0,0.0
3041,54.0,9,15,7.0,0.0
3042,55.0,4,15,7.0,0.0
3043,43.0,3,15,8.0,0.0
3044,30.0,12,15,8.0,0.0
3045,86.0,1,240,0.0,0.0
3046,62.0,1,240,4.0,0.0
3047,74.0,0,240,1.0,0.0
3048,62.0,1,240,2.0,0.0
3049,69.0,0,240,2.0,0.0
3050,57.0,16,240,3.0,0.0
3051,42.0,0,240,3.0,0.0
3052,42.0,13,15,8.0,0.0
3053,45.0,12,15,8.0,0.0
3054,50.0,13,15,8.0,0.0
3055,54.0,13,15,8.0,0.0
3056,57.0,12,15,8.0,0.0
3057,62.0,13,15,7.0,0.0
3058,66.0,12,15,7.0,0.0
3059,69.0,13,15,7.0,0.0
3060,74.0,13,15,7.0,0.0
3061,69.0,12,15,7.0,0.0
3062,66.0,13,15,7.0,0.0
3063,62.0,12,15,7.0,0.0
3064,57.0,13,15,8.0,0.0
3065,54.0,13,15,8.0,0.0
3066,50.0,12,15,8.0,0.0
3067,45.0,13,15,8.0,0.0
3068,42.0,9,15,8.0,0.0
3069,30.0,2,15,8.0,0.0
3070,57.0,0,120,4.0,0.0
3071,81.0,1,120,0.0,0.0
3072,69.0,0,120,2.0,0.0
3073,62.0,0,120,2.0,0.0
3074,29.0,5,15,8.0,0.0
3075,69.0,1,120,1.0,0.0
3076,50.0,0,120,3.0,0.0
3077,41.0,13,120,3.0,0.0
3078,53.0,2,15,7.0,0.0
3079,41.0,4,15,8.0,0.0
3080,55.0,2,15,7.0,0.0
3081,43.0,5,15,8.0,0.0
3082,53.0,3,15,7.0,0.0
3083,41.0,4,15,8.0,0.0
3084,55.0,2,15,7.0,0.0
3085,43.0,6,15,8.0,0.0
3086,53.0,1,15,7.0,0.0
3087,41.0,4,15,8.0,0.0
3088,55.0,2,15,7.0,0.0
3089,43.0,5,15,8.0,0.0
3090,53.0,3,15,7.0,0.0
3091,41.0,5,15,8.0,0.0
3092,55.0,1,15,7.0,0.0
3093,43.0,5,15,8.0,0.0
3094,53.0,3,15,7.0,0.0
3095,41.0,4,15,8.0,0.0
3096,55.0,3,15,7.0,0.0
3097,43.0,6,15,8.0,0.0
3098,53.0,1,15,7.0,0.0
3099,41.0,5,15,8.0,0.0
3100,55.0,2,15,7.0,0.0
3101,43.0,3,15,8.0,0.0
3102,53.0,3,15,7.0,0.0
3103,41.0,5,15,8.0,0.0
3104,55.0,3,15,7.0,0.0
3105,43.0,2,15,8.0,0.0
3106,53.0,0,15,7.0,0.0
3107,41.0,3,15,8.0,0.0
3108,28.0,13,15,8.0,0.0
3109,86.0,0,120,0.0,0.0
3110,62.0,1,120,4.0,0.0
3111,68.0,0,120,2.0,0.0
3112,64.0,10,240,2.0,0.0
3113,74.0,1,120,1.0,0.0
3114,40.0,0,120,3.0,0.0
3115,56.0,10,120,3.0,0.0
3116,40.0,14,15,8.0,0.0
3117,44.0,13,15,8.0,0.0
3118,47.0,14,15,8.0,0.0
3119,52.0,14,15,8.0,0.0
3120,56.0,13,15,7.0,0.0
3121,59.0,14,15,7.0,0.0
3122,62.0,12,15,7.0,0.0
3123,68.0,3,15,7.0,0.0
3124,60.0,2,120,4.0,0.0
3125,84.0,1,120,0.0,0.0
3126,69.0,0,120,2.0,0.0
3127,71.0,14,15,7.0,0.0
3128,72.0,1,120,1.0,0.0
3129,45.0,0,120,3.0,0.0
3130,57.0,1,120,3.0,0.0
3131,74.0,12,15,7.0,0.0
3132,33.0,10,15,8.0,0.0
3133,45.0,11,15,8.0,0.0
3134,48.0,11,15,8.0,0.0
3135,52.0,12,15,8.0,0.0
3136,57.0,11,15,8.0,0.0
3137,60.0,11,15,7.0,0.0
3138,64.0,8,15,7.0,0.0
3139,69.0,1,15,7.0,0.0
3140,72.0,5,15,7.0,0.0
3141,62.0,3,120,4.0,0.0
3142,86.0,1,120,0.0,0.0
3143,67.0,0,120,2.0,0.0
3144,74.0,1,120,1.0,0.0
3145,29.0,6,15,8.0,0.0
3146,71.0,0,120,2.0,0.0
3147,41.0,9,120,3.0,0.0
3148,59.0,0,120,3.0,0.0
3149,74.0,2,15,7.0,0.0
3150,41.0,6,15,8.0,0.0
3151,71.0,5,15,7.0,0.0
3152,43.0,2,15,8.0,0.0
3153,41.0,5,15,8.0,0.0
3154,67.0,5,15,7.0,0.0
3155,43.0,2,15,8.0,0.0
3156,41.0,6,15,8.0,0.0
3157,62.0,1,15,7.0,0.0
3158,43.0,9,15,8.0,0.0
3159,41.0,1,15,8.0,0.0
3160,53.0,4,15,8.0,0.0
3161,43.0,4,15,8.0,0.0
3162,55.0,4,15,8.0,0.0
3163,41.0,4,15,8.0,0.0
3164,53.0,3,15,8.0,0.0
3165,43.0,3,15,8.0,0.0
3166,55.0,5,15,8.0,0.0
3167,41.0,5,15,8.0,0.0
3168,53.0,1,15,8.0,0.0
3169,43.0,4,15,8.0,0.0
3170,55.0,1,15,8.0,0.0
3171,41.0,8,15,8.0,0.0
3172,53.0,1,15,8.0,0.0
3173,43.0,2,15,8.0,0.0
3174,41.0,0,15,8.0,0.0
3175,28.0,10,15,8.0,0.0
3176,67.0,3,240,4.0,0.0
3177,91.0,1,240,0.0,0.0
3178,72.0,0,240,2.0,0.0
3179,79.0,1,240,1.0,0.0
3180,67.0,0,240,2.0,0.0
3181,60.0,0,240,3.0,0.0
3182,40.0,8,120,3.0,0.0
3183,40.0,10,15,8.0,0.0
3184,43.0,11,15,8.0,0.0
3185,48.0,10,15,8.0,0.0
3186,52.0,10,15,8.0,0.0
3187,55.0,11,15,7.0,0.0
3188,60.0,10,15,7.0,0.0
3189,64.0,10,15,7.0,0.0
3190,67.0,11,15,7.0,0.0
3191,72.0,10,15,7.0,0.0
3192,76.0,10,15,7.0,0.0
3193,79.0,3,15,7.0,0.0
3194,76.0,10,15,7.0,0.0
3195,52.0,17,120,3.0,0.0
3196,72.0,10,15,7.0,0.0
3197,67.0,11,15,7.0,0.0
3198,64.0,10,15,7.0,0.0
3199,60.0,10,15,7.0,0.0
3200,55.0,11,15,8.0,0.0
3201,52.0,10,15,8.0,0.0
3202,48.0,11,15,8.0,0.0
3203,43.0,10,15,8.0,0.0
3204,40.0,9,15,8.0,0.0
3205,28.0,0,15,8.0,0.0
3206,62.0,0,120,4.0,0.0
3207,86.0,1,120,0.0,0.0
3208,74.0,0,120,1.0,0.0
3209,71.0,0,120,2.0,0.0
3210,67.0,1,120,2.0,0.0
3211,29.0,3,15,8.0,0.0
3212,59.0,0,120,3.0,0.0
3213,53.0,9,120,3.0,0.0
3214,53.0,4,15,7.0,0.0
3215,41.0,3,15,8.0,0.0
3216,55.0,2,15,7.0,0.0
3217,43.0,4,15,8.0,0.0
3218,53.0,3,15,7.0,0.0
3219,41.0,4,15,8.0,0.0
3220,55.0,4,15,7.0,0.0
3221,43.0,5,15,8.0,0.0
3222,53.0,6,15,7.0,0.0
3223,41.0,0,15,8.0,0.0
3224,55.0,1,15,7.0,0.0
3225,43.0,6,15,8.0,0.0
3226,53.0,3,15,7.0,0.0
3227,41.0,4,15,8.0,0.0
3228,55.0,1,15,7.0,0.0
3229,43.0,6,15,8.0,0.0
3230,53.0,1,15,7.0,0.0
3231,41.0,7,15,8.0,0.0
3232,43.0,6,15,8.0,0.0
3233,55.0,0,15,7.0,0.0
3234,53.0,3,15,7.0,0.0
3235,41.0,2,15,8.0,0.0
3236,55.0,4,15,7.0,0.0
3237,43.0,5,15,8.0,0.0
3238,53.0,0,15,7.0,0.0
3239,41.0,6,15,8.0,0.0
3240,43.0,0,15,8.0,0.0
3241,55.0,5,15,7.0,0.0
3242,53.0,3,15,7.0,0.0
3243,41.0,0,15,8.0,0.0
3244,28.0,10,15,8.0,0.0
3245,91.0,0,120,0.0,0.0
3246,67.0,1,120,4.0,0.0
3247,72.0,0,240,2.0,0.0
3248,67.0,0,240,2.0,0.0
3249,79.0,6,120,1.0,0.0
3250,60.0,10,240,3.0,0.0
3251,52.0,0,240,3.0,0.0
3252,40.0,10,15,8.0,0.0
3253,43.0,11,15,8.0,0.0
3254,48.0,10,15,8.0,0.0
3255,52.0,12,15,8.0,0.0
3256,55.0,11,15,7.0,0.0
3257,60.0,10,15,7.0,0.0
3258,64.0,10,15,7.0,0.0
3259,67.0,11,15,7.0,0.0
3260,72.0,13,15,7.0,0.0
3261,76.0,3,15,7.0,0.0
3262,79.0,11,15,7.0,0.0
3263,64.0,3,120,4.0,0.0
3264,88.0,1,120,0.0,0.0
3265,76.0,1,120,1.0,0.0
3266,76.0,10,15,7.0,0.0
3267,72.0,10,15,7.0,0.0
3268,67.0,13,15,7.0,0.0
3269,64.0,10,15,7.0,0.0
3270,60.0,10,15,7.0,0.0
3271,55.0,11,15,8.0,0.0
3272,52.0,11,15,8.0,0.0
3273,48.0,13,15,8.0,0.0
3274,43.0,9,15,8.0,0.0
3275,40.0,0,15,8.0,0.0
3276,27.0,11,15,8.0,0.0
3277,84.0,1,120,0.0,0.0
3278,60.0,3,120,4.0,0.0
3279,60.0,0,120,2.0,0.0
3280,67.0,2,240,2.0,0.0
3281,72.0,1,120,1.0,0.0
3282,55.0,0,120,3.0,0.0
3283,51.0,1,120,3.0,0.0
3284,39.0,11,15,8.0,0.0
3285,43.0,11,15,8.0,0.0
3286,48.0,11,15,8.0,0.0
3287,51.0,11,15,8.0,0.0
3288,55.0,11,15,7.0,0.0
3289,60.0,11,15,7.0,0.0
3290,63.0,11,15,7.0,0.0
3291,67.0,11,15,7.0,0.0
3292,72.0,6,15,7.0,0.0
3293,79.0,11,15,7.0,0.0
3294,26.0,13,15,8.0,0.0
3295,71.0,1,120,0.0,0.0
3296,83.0,0,120,0.0,0.0
3297,62.0,1,240,4.0,0.0
3298,71.0,11,120,1.0,0.0
3299,62.0,0,120,2.0,0.0
3300,50.0,6,240,3.0,0.0
3301,59.0,0,240,3.0,0.0
3302,38.0,13,15,8.0,0.0
3303,43.0,14,15,8.0,0.0
3304,47.0,13,15,8.0,0.0
3305,50.0,13,15,8.0,0.0
3306,55.0,14,15,7.0,0.0
3307,59.0,13,15,7.0,0.0
3308,62.0,11,15,7.0,0.0
3309,67.0,2,15,7.0,0.0
3310,71.0,13,15,7.0,0.0
3311,69.0,0,120,0.0,0.0
3312,81.0,0,120,0.0,0.0
3313,69.0,4,120,1.0,0.0
3314,67.0,13,15,7.0,0.0
3315,62.0,14,15,7.0,0.0
3316,59.0,13,15,7.0,0.0
3317,55.0,13,15,7.0,0.0
3318,50.0,14,15,8.0,0.0
3319,47.0,13,15,8.0,0.0
3320,43.0,13,15,8.0,0.0
3321,38.0,2,15,8.0,0.0
3322,25.0,12,15,8.0,0.0
3323,79.0,1,120,0.0,0.0
3324,67.0,0,120,0.0,0.0
3325,64.0,3,120,4.0,0.0
3326,67.0,4,120,1.0,0.0
3327,49.0,5,120,3.0,0.0
3328,58.0,0,120,3.0,0.0
3329,37.0,12,15,8.0,0.0
3330,43.0,12,15,8.0,0.0
3331,49.0,13,15,8.0,0.0
3332,52.0,12,15,8.0,0.0
3333,55.0,12,15,7.0,0.0
3334,58.0,13,15,7.0,0.0
3335,64.0,12,15,7.0,0.0
3336,67.0,8,15,7.0,0.0
3337,70.0,0,15,7.0,0.0
3338,26.0,10,15,8.0,0.0
3339,60.0,0,360,4.0,0.0
3340,66.0,1,120,0.0,0.0
3341,78.0,0,120,0.0,0.0
3342,66.0,13,120,1.0,0.0
3343,50.0,54,360,3.0,0.0
3344,57.0,0,360,3.0,0.0
3345,38.0,11,15,8.0,0.0
3346,45.0,11,15,8.0,0.0
3347,50.0,11,15,8.0,0.0
3348,57.0,11,15,7.0,0.0
3349,62.0,11,15,7.0,0.0
3350,69.0,11,15,7.0,0.0
3351,62.0,11,15,7.0,0.0
3352,57.0,11,15,7.0,0.0
3353,50.0,11,15,8.0,0.0
3354,45.0,1,15,8.0,0.0
3355,38.0,15,15,8.0,0.0
3356,76.0,0,120,0.0,0.0
3357,64.0,16,120,0.0,0.0
3358,45.0,15,15,8.0,0.0
3359,50.0,15,15,8.0,0.0
3360,57.0,15,15,7.0,0.0
3361,62.0,15,15,7.0,0.0
3362,57.0,15,15,7.0,0.0
3363,50.0,15,15,8.0,0.0
3364,45.0,1,15,8.0,0.0
3365,38.0,17,15,8.0,0.0
3366,62.0,0,120,0.0,0.0
3367,74.0,5,120,0.0,0.0
3368,45.0,17,15,8.0,0.0
3369,50.0,17,15,8.0,0.0
3370,57.0,17,15,7.0,0.0
3371,50.0,17,15,8.0,0.0
3372,45.0,17,15,8.0,0.0
3373,38.0,2,15,8.0,0.0
3374,26.0,61,60,8.0,0.0
3375,60.0,0,120,0.0,0.0
3376,72.0,4,120,0.0,0.0
3377,60.0,2,480,11.0,0.0
3378,60.0,118,480,12.0,0.0
3379,50.0,2,120,13.0,0.0
3380,54.0,2,1080,13.0,0.0
3381,38.0,118,120,14.0,0.0
3382,48.0,2,120,13.0,0.0
3383,37.0,118,120,14.0,0.0
3384,47.0,2,120,13.0,0.0
3385,35.0,114,120,14.0,0.0
3386,45.0,2,480,13.0,0.0
3387,33.0,118,480,14.0,0.0
3388,59.0,2,120,11.0,0.0
3389,59.0,113,120,12.0,0.0
3390,57.0,2,120,11.0,0.0
3391,57.0,127,120,12.0,0.0
3392,59.0,2,480,11.0,0.0
3393,59.0,118,480,12.0,0.0
3394,43.0,2,120,13.0,0.0
3395,31.0,118,120,14.0,0.0
3396,42.0,0,120,13.0,0.0
3397,30.0,114,120,14.0,0.0
3398,49.0,0,360,13.0,0.0
3399,40.0,2,360,13.0,0.0
3400,28.0,54,360,14.0,0.0
3401,57.0,2,120,11.0,0.0
3402,57.0,118,120,12.0,0.0
3403,55.0,2,120,11.0,0.0
3404,55.0,2,120,12.0,0.0
3405,38.0,60,60,8.0,0.0
3406,54.0,2,120,11.0,0.0
3407,54.0,2,120,12.0,0.0
3408,72.0,41,330,7.0,0.0
3409,50.0,2,120,13.0,0.0
3410,38.0,0,120,13.0,0.0
3411,38.0,33,120,14.0,0.0
3412,84.0,21,150,7.0,0.0
3413,50.0,0,60,8.0,0.0
3414,38.0,17,60,8.0,0.0
3415,83.0,40,30,7.0,0.0
3416,52.0,37,60,8.0,0.0
3417,84.0,3,30,7.0,0.0
3418,83.0,23,30,7.0,0.0
3419,38.0,17,60,8.0,0.0
3420,81.0,2,30,7.0,0.0
3421,54.0,60,60,8.0,0.0
3422,70.0,38,240,7.0,0.0
3423,82.0,23,180,7.0,0.0
3424,38.0,60,60,8.0,0.0
3425,55.0,37,60,8.0,0.0
3426,38.0,17,60,8.0,0.0
3427,81.0,2,30,7.0,0.0
3428,57.0,37,60,8.0,0.0
3429,82.0,3,30,7.0,0.0
3430,81.0,23,30,7.0,0.0
3431,38.0,17,60,8.0,0.0
3432,79.0,43,30,7.0,0.0
3433,58.0,37,60,8.0,0.0
3434,80.0,23,90,7.0,0.0
3435,71.0,1,150,7.0,0.0
3436,39.0,17,60,8.0,0.0
3437,78.0,42,30,7.0,0.0
3438,58.0,37,60,8.0,0.0
3439,79.0,23,90,7.0,0.0
3440,67.0,1,360,7.0,0.0
3441,39.0,17,60,8.0,0.0
3442,74.0,43,30,7.0,0.0
3443,59.0,37,60,8.0,0.0
3444,77.0,23,90,7.0,0.0
3445,39.0,17,60,8.0,0.0
3446,75.0,40,30,7.0,0.0
3447,61.0,7,60,8.0,0.0
3448,74.0,3,30,7.0,0.0
3449,72.0,10,15,7.0,0.0
3450,38.0,17,60,8.0,0.0
3451,74.0,10,15,7.0,0.0
3452,72.0,10,15,7.0,0.0
3453,74.0,23,15,7.0,0.0
3454,69.0,40,30,7.0,0.0
3455,62.0,60,60,8.0,0.0
3456,70.0,2,30,7.0,0.0
3457,79.0,2,120,7.0,0.0
3458,70.0,1,120,7.0,0.0
3459,37.0,57,60,8.0,0.0
3460,64.0,60,60,8.0,0.0
3461,78.0,2,120,7.0,0.0
3462,69.0,1,120,7.0,0.0
3463,38.0,57,60,8.0,0.0
3464,62.0,124,60,8.0,0.0
3465,62.0,1,480,10.0,0.0
3466,62.0,119,480,11.0,0.0
3467,54.0,2,240,12.0,0.0
3468,50.0,2,120,13.0,0.0
3469,38.0,116,120,14.0,0.0
3470,47.0,2,120,13.0,0.0
3471,35.0,116,120,14.0,0.0
3472,53.0,2,120,12.0,0.0
3473,45.0,2,120,13.0,0.0
3474,33.0,113,120,14.0,0.0
3475,52.0,2,480,12.0,0.0
3476,44.0,2,360,13.0,0.0
3477,32.0,113,360,14.0,0.0
3478,60.0,1,120,10.0,0.0
3479,60.0,119,120,11.0,0.0
3480,59.0,1,120,10.0,0.0
3481,59.0,1,120,10.0,0.0
3482,59.0,4,15,11.0,0.0
3483,45.0,2,120,13.0,0.0
3484,45.0,116,120,14.0,0.0
3485,60.0,1,360,10.0,0.0
3486,60.0,119,360,11.0,0.0
3487,50.0,2,120,12.0,0.0
3488,42.0,2,120,13.0,0.0
3489,42.0,116,120,14.0,0.0
3490,55.0,2,120,12.0,0.0
3491,40.0,2,120,13.0,0.0
3492,40.0,113,120,14.0,0.0
3493,54.0,2,360,12.0,0.0
3494,38.0,2,360,13.0,0.0
3495,38.0,55,360,14.0,0.0
3496,59.0,1,120,10.0,0.0
3497,59.0,119,120,11.0,0.0
3498,57.0,1,120,10.0,0.0
3499,57.0,2,120,11.0,0.0
3500,59.0,1,120,10.0,0.0
3501,59.0,1,120,11.0,0.0
3502,43.0,58,60,8.0,0.0
3503,55.0,2,120,12.0,0.0
3504,77.0,42,330,7.0,0.0
3505,43.0,2,120,13.0,0.0
3506,31.0,33,120,14.0,0.0
3507,89.0,22,150,7.0,0.0
3508,55.0,1,60,8.0,0.0
3509,43.0,16,60,8.0,0.0
3510,88.0,40,30,7.0,0.0
3511,57.0,36,60,8.0,0.0
3512,89.0,4,30,7.0,0.0
3513,88.0,24,30,7.0,0.0
3514,43.0,16,60,8.0,0.0
3515,85.0,2,30,7.0,0.0
3516,58.0,36,60,8.0,0.0
3517,77.0,2,150,7.0,0.0
3518,88.0,24,60,7.0,0.0
3519,43.0,16,60,8.0,0.0
3520,86.0,40,30,7.0,0.0
3521,59.0,36,60,8.0,0.0
3522,89.0,2,30,7.0,0.0
3523,88.0,24,30,7.0,0.0
3524,43.0,16,60,8.0,0.0
3525,83.0,42,30,7.0,0.0
3526,61.0,36,60,8.0,0.0
3527,86.0,24,90,7.0,0.0
3528,79.0,2,15,7.0,0.0
3529,74.0,0,120,7.0,0.0
3530,43.0,16,60,8.0,0.0
3531,84.0,42,30,7.0,0.0
3532,62.0,36,60,8.0,0.0
3533,83.0,24,90,7.0,0.0
3534,72.0,2,120,7.0,0.0
3535,78.0,0,120,7.0,0.0
3536,43.0,16,60,8.0,0.0
3537,80.0,42,30,7.0,0.0
3538,63.0,36,60,8.0,0.0
3539,81.0,24,90,7.0,0.0
3540,78.0,2,120,7.0,0.0
3541,75.0,0,120,7.0,0.0
3542,43.0,16,60,8.0,0.0
3543,83.0,42,30,7.0,0.0
3544,62.0,36,60,8.0,0.0
3545,84.0,24,90,7.0,0.0
3546,81.0,2,120,7.0,0.0
3547,78.0,0,120,7.0,0.0
3548,43.0,16,60,8.0,0.0
3549,86.0,42,30,7.0,0.0
3550,60.0,36,60,8.0,0.0
3551,87.0,24,90,7.0,0.0
3552,79.0,0,120,7.0,0.0
3553,43.0,16,60,8.0,0.0
3554,85.0,42,30,7.0,0.0
3555,58.0,36,60,8.0,0.0
3556,86.0,24,90,7.0,0.0
3557,85.0,2,120,7.0,0.0
3558,82.0,2,15,7.0,0.0
3559,43.0,16,60,8.0,0.0
3560,88.0,40,30,7.0,0.0
3561,57.0,36,60,8.0,0.0
3562,90.0,2,30,7.0,0.0
3563,91.0,24,30,7.0,0.0
3564,85.0,2,120,7.0,0.0
3565,88.0,0,120,7.0,0.0
3566,43.0,16,60,8.0,0.0
3567,93.0,42,30,7.0,0.0
3568,55.0,36,60,8.0,0.0
3569,94.0,24,90,7.0,0.0
3570,81.0,2,120,7.0,0.0
3571,42.0,16,60,8.0,0.0
3572,93.0,42,30,7.0,0.0
3573,57.0,36,60,8.0,0.0
3574,86.0,24,90,7.0,0.0
3575,41.0,16,60,8.0,0.0
3576,81.0,44,30,7.0,0.0
3577,53.0,36,60,8.0,0.0
3578,74.0,24,90,7.0,0.0
3579,40.0,16,60,8.0,0.0
3580,69.0,44,30,7.0,0.0
3581,52.0,36,60,8.0,0.0
3582,68.0,24,90,7.0,0.0
3583,38.0,16,60,8.0,0.0
3584,88.0,44,30,7.0,0.0
3585,50.0,36,60,8.0,0.0
3586,81.0,24,90,7.0,0.0
3587,37.0,16,60,8.0,0.0
3588,76.0,44,30,7.0,0.0
3589,49.0,36,60,8.0,0.0
3590,69.0,24,90,7.0,0.0
3591,36.0,16,60,8.0,0.0
3592,64.0,44,30,7.0,0.0
3593,48.0,36,60,8.0,0.0
3594,63.0,24,90,7.0,0.0
3595,35.0,16,60,8.0,0.0
3596,74.0,44,30,7.0,0.0
3597,47.0,36,60,8.0,0.0
3598,67.0,24,90,7.0,0.0
3599,34.0,16,60,8.0,0.0
3600,62.0,44,30,7.0,0.0
3601,46.0,36,60,8.0,0.0
3602,55.0,24,90,7.0,0.0
3603,33.0,16,60,8.0,0.0
3604,50.0,40,30,7.0,0.0
3605,45.0,13,60,8.0,0.0
3606,49.0,4,30,7.0,0.0
3607,50.0,9,15,7.0,0.0
3608,33.0,8,120,8.0,0.0
3609,49.0,9,15,7.0,0.0
3610,50.0,8,15,7.0,0.0
3611,49.0,9,15,7.0,0.0
3612,50.0,9,15,7.0,0.0
3613,49.0,9,15,7.0,0.0
3614,50.0,9,15,7.0,0.0
3615,49.0,8,15,7.0,0.0
3616,50.0,9,15,7.0,0.0
3617,49.0,10,15,7.0,0.0
3618,50.0,8,15,7.0,0.0
3619,49.0,8,15,7.0,0.0
3620,50.0,3,15,7.0,0.0
3621,49.0,8,15,7.0,0.0
3622,50.0,8,15,7.0,0.0
3623,49.0,9,15,7.0,0.0
3624,50.0,9,15,7.0,0.0
3625,49.0,9,15,7.0,0.0
3626,50.0,10,15,7.0,0.0
3627,49.0,8,15,7.0,0.0
3628,50.0,10,15,7.0,0.0
3629,49.0,8,15,7.0,0.0
3630,50.0,8,15,7.0,0.0
3631,49.0,9,15,7.0,0.0
3632,50.0,10,15,7.0,0.0
3633,49.0,8,15,7.0,0.0
3634,50.0,10,15,7.0,0.0
3635,49.0,7,15,7.0,0.0
3636,50.0,10,15,7.0,0.0
3637,49.0,8,15,7.0,0.0
3638,50.0,10,15,7.0,0.0
3639,49.0,7,15,7.0,0.0
3640,50.0,10,15,7.0,0.0
3641,49.0,12,15,7.0,0.0
3642,50.0,9,15,7.0,0.0
3643,49.0,11,15,7.0,0.0
3644,50.0,14,15,7.0,0.0
3645,49.0,10,15,7.0,0.0
3646,50.0,14,15,7.0,0.0
3647,49.0,7,30,7.0,0.0
3648,57.0,8,15,8.0,0.0
3649,55.0,1,15,8.0,0.0
3650,50.0,2,30,7.0,0.0
3651,57.0,9,15,8.0,0.0
3652,55.0,6,15,8.0,0.0
3653,57.0,11,15,8.0,0.0
3654,49.0,6,30,7.0,0.0
3655,55.0,7,15,8.0,0.0
3656,57.0,5,15,8.0,0.0
3657,55.0,7,15,8.0,0.0
3658,50.0,7,30,7.0,0.0
3659,57.0,9,15,8.0,0.0
3660,55.0,2,15,8.0,0.0
3661,57.0,10,15,8.0,0.0
3662,49.0,1,30,7.0,0.0
3663,55.0,7,15,8.0,0.0
3664,57.0,9,15,8.0,0.0
3665,47.0,3,30,7.0,0.0
3666,55.0,8,15,8.0,0.0
3667,57.0,7,15,8.0,0.0
3668,55.0,8,15,8.0,0.0
3669,49.0,4,30,7.0,0.0
3670,57.0,9,15,8.0,0.0
3671,55.0,5,15,8.0,0.0
3672,57.0,9,15,8.0,0.0
3673,52.0,8,30,7.0,0.0
3674,55.0,8,15,8.0,0.0
3675,57.0,2,15,8.0,0.0
3676,55.0,9,15,8.0,0.0
3677,49.0,1,30,7.0,0.0
3678,57.0,8,15,8.0,0.0
3679,55.0,7,15,8.0,0.0
3680,57.0,11,15,8.0,0.0
3681,45.0,3,30,7.0,0.0
3682,55.0,5,15,8.0,0.0
3683,57.0,10,15,8.0,0.0
3684,40.0,6,30,7.0,0.0
3685,55.0,8,15,8.0,0.0
3686,57.0,3,15,8.0,0.0
3687,55.0,9,15,8.0,0.0
3688,45.0,7,30,7.0,0.0
3689,57.0,8,15,8.0,0.0
3690,55.0,1,15,8.0,0.0
3691,57.0,11,15,8.0,0.0
3692,49.0,9,30,7.0,0.0
3693,55.0,8,15,8.0,0.0
3694,57.0,0,15,8.0,0.0
3695,52.0,4,30,7.0,0.0
3696,55.0,9,15,8.0,0.0
3697,57.0,5,15,8.0,0.0
3698,55.0,8,15,8.0,0.0
3699,57.0,5,30,7.0,0.0
3700,57.0,13,15,8.0,0.0
3701,61.0,9,15,7.0,0.0
3702,55.0,2,20,8.0,0.0
3703,62.0,7,15,7.0,0.0
3704,61.0,9,15,7.0,0.0
3705,57.0,6,20,8.0,0.0
3706,62.0,9,15,7.0,0.0
3707,61.0,3,15,7.0,0.0
3708,62.0,9,15,7.0,0.0
3709,55.0,9,20,8.0,0.0
3710,61.0,9,15,7.0,0.0
3711,62.0,1,15,7.0,0.0
3712,57.0,4,20,8.0,0.0
3713,61.0,7,15,7.0,0.0
3714,62.0,7,15,7.0,0.0
3715,61.0,8,15,7.0,0.0
3716,55.0,5,20,8.0,0.0
3717,62.0,9,15,7.0,0.0
3718,61.0,4,15,7.0,0.0
3719,62.0,10,15,7.0,0.0
3720,54.0,9,20,8.0,0.0
3721,61.0,7,15,7.0,0.0
3722,62.0,2,15,7.0,0.0
3723,61.0,7,15,7.0,0.0
3724,55.0,3,20,8.0,0.0
3725,62.0,8,15,7.0,0.0
3726,61.0,8,15,7.0,0.0
3727,57.0,5,20,8.0,0.0
3728,62.0,9,15,7.0,0.0
3729,61.0,4,15,7.0,0.0
3730,62.0,10,15,7.0,0.0
3731,55.0,10,20,8.0,0.0
3732,61.0,7,15,7.0,0.0
3733,62.0,1,15,7.0,0.0
3734,61.0,8,15,7.0,0.0
3735,52.0,3,20,8.0,0.0
3736,62.0,7,15,7.0,0.0
3737,61.0,8,15,7.0,0.0
3738,45.0,4,20,8.0,0.0
3739,62.0,10,15,7.0,0.0
3740,61.0,3,15,7.0,0.0
3741,62.0,10,15,7.0,0.0
3742,52.0,9,20,8.0,0.0
3743,61.0,8,15,7.0,0.0
3744,62.0,1,15,7.0,0.0
3745,61.0,9,15,7.0,0.0
3746,55.0,4,20,8.0,0.0
3747,62.0,6,15,7.0,0.0
3748,61.0,7,15,7.0,0.0
3749,62.0,10,15,7.0,0.0
3750,57.0,5,20,8.0,0.0
3751,61.0,4,15,7.0,0.0
3752,62.0,9,15,7.0,0.0
3753,64.0,11,20,8.0,0.0
3754,61.0,9,15,7.0,0.0
3755,62.0,0,15,7.0,0.0
3756,61.0,6,20,7.0,0.0
3757,67.0,7,15,8.0,0.0
3758,69.0,5,15,8.0,0.0
3759,67.0,7,15,8.0,0.0
3760,62.0,7,20,7.0,0.0
3761,69.0,10,15,8.0,0.0
3762,67.0,2,15,8.0,0.0
3763,69.0,10,15,8.0,0.0
3764,61.0,1,20,7.0,0.0
3765,67.0,7,15,8.0,0.0
3766,69.0,10,15,8.0,0.0
3767,62.0,5,20,7.0,0.0
3768,67.0,8,15,8.0,0.0
3769,69.0,4,15,8.0,0.0
3770,67.0,9,15,8.0,0.0
3771,61.0,7,20,7.0,0.0
3772,69.0,9,15,8.0,0.0
3773,67.0,2,15,8.0,0.0
3774,69.0,9,15,8.0,0.0
3775,59.0,2,20,7.0,0.0
3776,67.0,7,15,8.0,0.0
3777,69.0,9,15,8.0,0.0
3778,67.0,8,15,8.0,0.0
3779,61.0,4,20,7.0,0.0
3780,69.0,6,15,8.0,0.0
3781,67.0,9,15,8.0,0.0
3782,64.0,7,20,7.0,0.0
3783,69.0,10,15,8.0,0.0
3784,67.0,1,15,8.0,0.0
3785,69.0,10,15,8.0,0.0
3786,61.0,1,20,7.0,0.0
3787,67.0,7,15,8.0,0.0
3788,69.0,9,15,8.0,0.0
3789,67.0,8,15,8.0,0.0
3790,57.0,5,20,7.0,0.0
3791,69.0,6,15,8.0,0.0
3792,67.0,8,15,8.0,0.0
3793,52.0,7,20,7.0,0.0
3794,69.0,9,15,8.0,0.0
3795,67.0,1,15,8.0,0.0
3796,69.0,10,15,8.0,0.0
3797,57.0,2,20,7.0,0.0
3798,67.0,7,15,8.0,0.0
3799,69.0,9,15,8.0,0.0
3800,61.0,5,20,7.0,0.0
3801,67.0,8,15,8.0,0.0
3802,69.0,5,15,8.0,0.0
3803,67.0,9,15,8.0,0.0
3804,64.0,8,20,7.0,0.0
3805,69.0,10,15,8.0,0.0
3806,67.0,0,15,8.0,0.0
3807,69.0,10,15,8.0,0.0
3808,69.0,1,20,7.0,0.0
3809,67.0,6,15,8.0,0.0
3810,69.0,10,15,8.0,0.0
3811,73.0,8,15,7.0,0.0
3812,67.0,2,20,8.0,0.0
3813,74.0,7,15,7.0,0.0
3814,73.0,8,15,7.0,0.0
3815,69.0,5,20,8.0,0.0
3816,74.0,11,15,7.0,0.0
3817,73.0,2,15,7.0,0.0
3818,74.0,11,15,7.0,0.0
3819,67.0,9,20,8.0,0.0
3820,73.0,8,15,7.0,0.0
3821,74.0,1,15,7.0,0.0
3822,73.0,8,15,7.0,0.0
3823,69.0,2,20,8.0,0.0
3824,74.0,7,15,7.0,0.0
3825,73.0,9,15,7.0,0.0
3826,67.0,5,20,8.0,0.0
3827,74.0,9,15,7.0,0.0
3828,73.0,4,15,7.0,0.0
3829,74.0,10,15,7.0,0.0
3830,66.0,9,20,8.0,0.0
3831,73.0,7,15,7.0,0.0
3832,74.0,2,15,7.0,0.0
3833,73.0,8,15,7.0,0.0
3834,67.0,3,20,8.0,0.0
3835,74.0,7,15,7.0,0.0
3836,73.0,8,15,7.0,0.0
3837,69.0,5,20,8.0,0.0
3838,74.0,10,15,7.0,0.0
3839,73.0,3,15,7.0,0.0
3840,74.0,10,15,7.0,0.0
3841,67.0,8,20,8.0,0.0
3842,73.0,7,15,7.0,0.0
3843,74.0,2,15,7.0,0.0
3844,73.0,8,15,7.0,0.0
3845,64.0,4,20,8.0,0.0
3846,74.0,7,15,7.0,0.0
3847,73.0,7,15,7.0,0.0
3848,57.0,6,20,8.0,0.0
3849,74.0,10,15,7.0,0.0
3850,73.0,3,15,7.0,0.0
3851,74.0,10,15,7.0,0.0
3852,64.0,9,20,8.0,0.0
3853,73.0,7,15,7.0,0.0
3854,74.0,1,15,7.0,0.0
3855,73.0,8,15,7.0,0.0
3856,67.0,3,20,8.0,0.0
3857,74.0,8,15,7.0,0.0
3858,73.0,8,15,7.0,0.0
3859,69.0,5,20,8.0,0.0
3860,74.0,10,15,7.0,0.0
3861,73.0,2,15,7.0,0.0
3862,74.0,10,15,7.0,0.0
3863,76.0,8,20,8.0,0.0
3864,73.0,9,15,7.0,0.0
3865,74.0,1,15,7.0,0.0
3866,79.0,9,15,8.0,0.0
3867,73.0,3,20,7.0,0.0
3868,81.0,6,15,8.0,0.0
3869,79.0,7,15,8.0,0.0
3870,74.0,4,20,7.0,0.0
3871,81.0,10,15,8.0,0.0
3872,79.0,3,15,8.0,0.0
3873,81.0,10,15,8.0,0.0
3874,73.0,7,20,7.0,0.0
3875,79.0,8,15,8.0,0.0
3876,81.0,3,15,8.0,0.0
3877,79.0,8,15,8.0,0.0
3878,74.0,2,20,7.0,0.0
3879,81.0,8,15,8.0,0.0
3880,79.0,7,15,8.0,0.0
3881,81.0,9,15,8.0,0.0
3882,73.0,3,20,7.0,0.0
3883,79.0,6,15,8.0,0.0
3884,81.0,9,15,8.0,0.0
3885,71.0,4,20,7.0,0.0
3886,79.0,7,15,8.0,0.0
3887,81.0,6,15,8.0,0.0
3888,79.0,8,15,8.0,0.0
3889,73.0,6,20,7.0,0.0
3890,81.0,10,15,8.0,0.0
3891,79.0,2,15,8.0,0.0
3892,81.0,10,15,8.0,0.0
3893,76.0,1,20,7.0,0.0
3894,79.0,7,15,8.0,0.0
3895,81.0,9,15,8.0,0.0
3896,73.0,2,20,7.0,0.0
3897,79.0,7,15,8.0,0.0
3898,81.0,7,15,8.0,0.0
3899,79.0,9,15,8.0,0.0
3900,69.0,4,20,7.0,0.0
3901,81.0,10,15,8.0,0.0
3902,79.0,4,15,8.0,0.0
3903,81.0,9,15,8.0,0.0
3904,64.0,6,20,7.0,0.0
3905,79.0,7,15,8.0,0.0
3906,81.0,4,15,8.0,0.0
3907,79.0,9,15,8.0,0.0
3908,69.0,7,20,7.0,0.0
3909,81.0,8,15,8.0,0.0
3910,79.0,1,15,8.0,0.0
3911,81.0,9,15,8.0,0.0
3912,73.0,1,20,7.0,0.0
3913,79.0,7,15,8.0,0.0
3914,81.0,11,15,8.0,0.0
3915,76.0,4,20,7.0,0.0
3916,79.0,8,15,8.0,0.0
3917,81.0,4,15,8.0,0.0
3918,79.0,9,15,8.0,0.0
3919,81.0,6,20,7.0,0.0
3920,81.0,10,15,8.0,0.0
3921,79.0,2,15,8.0,0.0
3922,81.0,4,15,8.0,0.0
3923,85.0,1,15,7.0,0.0
3924,79.0,6,15,8.0,0.0
3925,86.0,2,15,7.0,0.0
3926,81.0,9,15,8.0,0.0
3927,79.0,0,15,8.0,0.0
3928,85.0,8,15,7.0,0.0
3929,81.0,9,15,8.0,0.0
3930,86.0,0,15,7.0,0.0
3931,85.0,1,15,7.0,0.0
3932,79.0,7,15,8.0,0.0
3933,86.0,1,15,7.0,0.0
3934,81.0,10,15,8.0,0.0
3935,85.0,0,15,7.0,0.0
3936,79.0,7,15,8.0,0.0
3937,86.0,1,15,7.0,0.0
3938,81.0,9,15,8.0,0.0
3939,85.0,1,15,7.0,0.0
3940,79.0,7,15,8.0,0.0
3941,86.0,2,15,7.0,0.0
3942,81.0,9,15,8.0,0.0
3943,85.0,0,15,7.0,0.0
3944,79.0,8,15,8.0,0.0
3945,86.0,1,15,7.0,0.0
3946,81.0,8,15,8.0,0.0
3947,85.0,1,15,7.0,0.0
3948,79.0,8,15,8.0,0.0
3949,86.0,1,15,7.0,0.0
3950,81.0,8,15,8.0,0.0
3951,85.0,1,15,7.0,0.0
3952,79.0,7,15,8.0,0.0
3953,86.0,2,15,7.0,0.0
3954,81.0,8,15,8.0,0.0
3955,85.0,2,15,7.0,0.0
3956,79.0,6,15,8.0,0.0
3957,86.0,2,15,7.0,0.0
3958,81.0,9,15,8.0,0.0
3959,85.0,1,15,7.0,0.0
3960,79.0,7,15,8.0,0.0
3961,81.0,0,15,8.0,0.0
3962,86.0,10,15,7.0,0.0
3963,85.0,7,15,7.0,0.0
3964,79.0,0,15,8.0,0.0
3965,86.0,2,15,7.0,0.0
3966,81.0,8,15,8.0,0.0
3967,85.0,2,15,7.0,0.0
3968,79.0,6,15,8.0,0.0
3969,86.0,2,15,7.0,0.0
3970,81.0,8,15,8.0,0.0
3971,85.0,2,15,7.0,0.0
3972,79.0,7,15,8.0,0.0
3973,86.0,1,15,7.0,0.0
3974,81.0,9,15,8.0,0.0
3975,85.0,1,15,7.0,0.0
3976,79.0,6,15,8.0,0.0
3977,86.0,1,15,7.0,0.0
3978,81.0,10,15,8.0,0.0
3979,85.0,1,15,7.0,0.0
3980,79.0,6,15,8.0,0.0
3981,86.0,1,15,7.0,0.0
3982,81.0,10,15,8.0,0.0
3983,79.0,8,15,8.0,0.0
3984,85.0,0,15,7.0,0.0
3985,86.0,9,15,7.0,0.0
3986,81.0,0,15,8.0,0.0
3987,85.0,1,15,7.0,0.0
3988,79.0,7,15,8.0,0.0
3989,86.0,1,15,7.0,0.0
3990,81.0,9,15,8.0,0.0
3991,85.0,1,15,7.0,0.0
3992,79.0,22,15,8.0,0.0
3993,83.0,1,20,7.0,0.0
3994,78.0,20,20,8.0,0.0
3995,85.0,0,20,7.0,0.0
3996,79.0,40,20,8.0,0.0
3997,83.0,1,30,8.0,0.0
3998,86.0,0,30,7.0,0.0
3999,91.0,39,30,7.0,0.0
4000,85.0,0,30,7.0,0.0
4001,81.0,1,30,8.0,0.0
4002,90.0,39,30,7.0,0.0
4003,83.0,1,30,7.0,0.0
4004,88.0,39,30,7.0,0.0
4005,79.0,0,30,8.0,0.0
4006,81.0,1,30,7.0,0.0
4007,86.0,0,30,7.0,0.0
4008,78.0,40,30,8.0,0.0
4009,79.0,0,30,7.0,0.0
4010,85.0,39,30,7.0,0.0
4011,76.0,0,30,8.0,0.0
4012,78.0,0,30,7.0,0.0
4013,74.0,1,30,8.0,0.0
4014,83.0,39,30,7.0,0.0
4015,81.0,0,30,7.0,0.0
4016,76.0,1,30,7.0,0.0
4017,73.0,39,30,8.0,0.0
4018,71.0,0,90,8.0,0.0
4019,86.0,40,30,7.0,0.0
4020,79.0,1,30,7.0,0.0
4021,74.0,39,15,7.0,0.0
4022,69.0,0,30,8.0,0.0
4023,78.0,39,30,7.0,0.0
4024,68.0,0,90,8.0,0.0
4025,83.0,40,30,7.0,0.0
4026,74.0,39,90,7.0,0.0
4027,76.0,1,30,7.0,0.0
4028,67.0,1,30,8.0,0.0
4029,73.0,0,90,7.0,0.0
4030,76.0,39,30,7.0,0.0
4031,66.0,1,30,8.0,0.0
4032,78.0,40,30,7.0,0.0
4033,64.0,0,30,8.0,0.0
4034,73.0,39,30,7.0,0.0
4035,79.0,0,30,7.0,0.0
4036,61.0,1,30,8.0,0.0
4037,83.0,0,30,7.0,0.0
4038,57.0,0,15,8.0,0.0
4039,79.0,39,30,7.0,0.0
4040,81.0,1,30,7.0,0.0
4041,78.0,39,30,7.0,0.0
4042,62.0,0,30,8.0,0.0
4043,79.0,0,30,7.0,0.0
4044,64.0,1,30,8.0,0.0
4045,76.0,39,30,7.0,0.0
4046,74.0,1,60,7.0,0.0
4047,66.0,35,30,8.0,0.0
4048,78.0,5,60,7.0,0.0
4049,57.0,0,60,8.0,0.0
4050,67.0,39,30,8.0,0.0
4051,57.0,5,60,8.0,0.0
4052,68.0,35,30,8.0,0.0
4053,78.0,0,90,7.0,0.0
4054,69.0,40,30,8.0,0.0
4055,79.0,0,30,7.0,0.0
4056,74.0,0,15,7.0,0.0
4057,71.0,35,30,8.0,0.0
4058,57.0,5,60,8.0,0.0
4059,68.0,1,30,8.0,0.0
4060,74.0,1,240,7.0,0.0
4061,57.0,6,120,8.0,0.0
4062,76.0,10,15,7.0,0.0
4063,69.0,0,360,8.0,0.0
4064,78.0,11,15,7.0,0.0
4065,76.0,7,15,7.0,0.0
4066,78.0,10,15,7.0,0.0
4067,76.0,8,15,7.0,0.0
4068,78.0,10,15,7.0,0.0
4069,76.0,8,15,7.0,0.0
4070,78.0,10,15,7.0,0.0
4071,76.0,8,15,7.0,0.0
4072,78.0,11,15,7.0,0.0
4073,76.0,7,15,7.0,0.0
4074,78.0,11,15,7.0,0.0
4075,76.0,2,15,7.0,0.0
4076,78.0,10,15,7.0,0.0
4077,57.0,4,120,8.0,0.0
4078,76.0,7,15,7.0,0.0
4079,78.0,11,15,7.0,0.0
4080,76.0,8,15,7.0,0.0
4081,78.0,10,15,7.0,0.0
4082,76.0,7,15,7.0,0.0
4083,78.0,10,15,7.0,0.0
4084,76.0,9,15,7.0,0.0
4085,78.0,9,15,7.0,0.0
4086,76.0,9,15,7.0,0.0
4087,78.0,9,15,7.0,0.0
4088,76.0,9,15,7.0,0.0
4089,78.0,5,15,7.0,0.0
4090,76.0,7,15,7.0,0.0
4091,78.0,10,15,7.0,0.0
4092,45.0,9,120,8.0,0.0
4093,76.0,9,15,7.0,0.0
4094,78.0,10,15,7.0,0.0
4095,76.0,7,15,7.0,0.0
4096,78.0,10,15,7.0,0.0
4097,76.0,18,15,7.0,0.0
4098,74.0,15,15,7.0,0.0
4099,73.0,14,15,7.0,0.0
4100,71.0,15,15,7.0,0.0
4101,73.0,2,15,7.0,0.0
4102,76.0,0,15,7.0,0.0
4103,73.0,7,15,7.0,0.0
4104,33.0,116,480,8.0,0.0
4105,78.0,1,15,7.0,0.0
4106,74.0,9,15,7.0,0.0
4107,73.0,0,15,7.0,0.0
4108,76.0,9,15,7.0,0.0
4109,74.0,0,15,7.0,0.0
4110,78.0,9,15,7.0,0.0
4111,73.0,1,15,7.0,0.0
4112,76.0,7,15,7.0,0.0
4113,74.0,0,15,7.0,0.0
4114,78.0,10,15,7.0,0.0
4115,76.0,1,15,7.0,0.0
4116,73.0,7,15,7.0,0.0
4117,74.0,1,15,7.0,0.0
4118,78.0,9,15,7.0,0.0
4119,73.0,0,15,7.0,0.0
4120,76.0,8,15,7.0,0.0
4121,74.0,0,15,7.0,0.0
4122,78.0,11,15,7.0,0.0
4123,57.0,4,390,8.0,0.0
4124,73.0,1,15,7.0,0.0
4125,76.0,0,15,7.0,0.0
4126,67.0,6,15,8.0,0.0
4127,78.0,1,15,7.0,0.0
4128,74.0,1,15,7.0,0.0
4129,69.0,8,15,8.0,0.0
4130,76.0,2,15,7.0,0.0
4131,73.0,0,15,7.0,0.0
4132,67.0,7,15,8.0,0.0
4133,78.0,1,15,7.0,0.0
4134,74.0,0,15,7.0,0.0
4135,69.0,8,15,8.0,0.0
4136,76.0,2,15,7.0,0.0
4137,73.0,0,15,7.0,0.0
4138,67.0,6,15,8.0,0.0
4139,78.0,0,15,7.0,0.0
4140,74.0,1,15,7.0,0.0
4141,69.0,9,15,8.0,0.0
4142,73.0,0,15,7.0,0.0
4143,76.0,1,15,7.0,0.0
4144,67.0,7,15,8.0,0.0
4145,78.0,1,15,7.0,0.0
4146,74.0,9,15,7.0,0.0
4147,69.0,0,15,8.0,0.0
4148,73.0,1,15,7.0,0.0
4149,76.0,0,15,7.0,0.0
4150,67.0,7,15,8.0,0.0
4151,74.0,1,15,7.0,0.0
4152,69.0,9,15,8.0,0.0
4153,78.0,0,15,7.0,0.0
4154,73.0,1,15,7.0,0.0
4155,76.0,0,15,7.0,0.0
4156,67.0,7,15,8.0,0.0
4157,78.0,2,15,7.0,0.0
4158,74.0,0,15,7.0,0.0
4159,69.0,8,15,8.0,0.0
4160,76.0,1,15,7.0,0.0
4161,73.0,1,15,7.0,0.0
4162,67.0,6,15,8.0,0.0
4163,78.0,1,15,7.0,0.0
4164,74.0,1,15,7.0,0.0
4165,69.0,9,15,8.0,0.0
4166,73.0,1,15,7.0,0.0
4167,76.0,0,15,7.0,0.0
4168,67.0,7,15,8.0,0.0
4169,78.0,0,15,7.0,0.0
4170,69.0,0,15,8.0,0.0
4171,74.0,10,15,7.0,0.0
4172,67.0,7,15,8.0,0.0
4173,76.0,0,15,7.0,0.0
4174,73.0,0,15,7.0,0.0
4175,74.0,0,15,7.0,0.0
4176,78.0,1,15,7.0,0.0
4177,69.0,10,15,8.0,0.0
4178,76.0,8,15,7.0,0.0
4179,67.0,0,15,8.0,0.0
4180,73.0,0,15,7.0,0.0
4181,74.0,0,15,7.0,0.0
4182,69.0,0,15,8.0,0.0
4183,78.0,10,15,7.0,0.0
4184,76.0,1,15,7.0,0.0
4185,73.0,0,15,7.0,0.0
4186,67.0,6,15,8.0,0.0
4187,78.0,1,15,7.0,0.0
4188,74.0,10,15,7.0,0.0
4189,69.0,0,15,8.0,0.0
4190,67.0,0,15,8.0,0.0
4191,73.0,0,15,7.0,0.0
4192,76.0,7,15,7.0,0.0
4193,74.0,1,15,7.0,0.0
4194,69.0,0,15,8.0,0.0
4195,78.0,11,15,7.0,0.0
4196,67.0,7,15,8.0,0.0
4197,73.0,0,15,7.0,0.0
4198,76.0,0,15,7.0,0.0
4199,74.0,1,15,7.0,0.0
4200,78.0,0,15,7.0,0.0
4201,69.0,10,15,8.0,0.0
4202,73.0,0,15,7.0,0.0
4203,76.0,1,15,7.0,0.0
4204,67.0,7,15,8.0,0.0
4205,78.0,1,15,7.0,0.0
4206,69.0,10,15,8.0,0.0
4207,74.0,0,15,7.0,0.0
4208,73.0,1,15,7.0,0.0
4209,76.0,1,15,7.0,0.0
4210,67.0,6,15,8.0,0.0
4211,78.0,1,15,7.0,0.0
4212,74.0,1,15,7.0,0.0
4213,69.0,8,15,8.0,0.0
4214,76.0,0,15,7.0,0.0
4215,73.0,1,15,7.0,0.0
4216,67.0,7,15,8.0,0.0
4217,74.0,1,15,7.0,0.0
4218,78.0,1,15,7.0,0.0
4219,69.0,8,15,8.0,0.0
4220,73.0,0,15,7.0,0.0
4221,76.0,2,15,7.0,0.0
4222,67.0,6,15,8.0,0.0
4223,78.0,1,15,7.0,0.0
4224,74.0,1,15,7.0,0.0
4225,69.0,8,15,8.0,0.0
4226,76.0,0,15,7.0,0.0
4227,73.0,1,15,7.0,0.0
4228,67.0,8,15,8.0,0.0
4229,78.0,0,15,7.0,0.0
4230,74.0,1,15,7.0,0.0
4231,69.0,9,15,8.0,0.0
4232,76.0,1,15,7.0,0.0
4233,67.0,7,15,8.0,0.0
4234,73.0,0,15,7.0,0.0
4235,74.0,1,15,7.0,0.0
4236,78.0,1,15,7.0,0.0
4237,69.0,9,15,8.0,0.0
4238,73.0,1,15,7.0,0.0
4239,76.0,1,15,7.0,0.0
4240,67.0,25,15,8.0,0.0
4241,74.0,1,20,7.0,0.0
4242,69.0,0,20,7.0,0.0
4243,66.0,2,20,8.0,0.0
4244,74.0,1,120,7.0,0.0
4245,69.0,2,120,7.0,0.0
4246,66.0,2,120,8.0,0.0
4247,62.0,4,120,8.0,0.0
4248,50.0,1,2160,13.0,0.0
4249,62.0,1,600,13.0,0.0
4250,54.0,120,120,3.0,0.0
4251,62.0,0,120,3.0,0.0
4252,38.0,123,2160,14.0,0.0
4253,60.0,0,120,3.0,0.0
4254,57.0,120,120,3.0,0.0
4255,59.0,120,120,3.0,0.0
4256,55.0,0,120,3.0,0.0
4257,54.0,0,120,3.0,0.0
4258,57.0,114,120,3.0,0.0
4259,52.0,0,120,3.0,0.0
4260,55.0,114,120,3.0,0.0
4261,74.0,1,15,10.0,0.0
4262,74.0,4,15,11.0,0.0
4263,62.0,1,120,13.0,0.0
4264,54.0,0,120,3.0,0.0
4265,50.0,114,120,3.0,0.0
4266,79.0,1,120,10.0,0.0
4267,79.0,4,120,11.0,0.0
4268,67.0,1,120,13.0,0.0
4269,48.0,0,120,3.0,0.0
4270,52.0,114,120,3.0,0.0
4271,78.0,1,120,10.0,0.0
4272,78.0,4,120,11.0,0.0
4273,66.0,1,120,13.0,0.0
4274,54.0,114,120,3.0,0.0
4275,50.0,0,120,3.0,0.0
4276,76.0,1,120,10.0,0.0
4277,76.0,4,120,11.0,0.0
4278,64.0,115,120,13.0,0.0
4279,55.0,114,240,3.0,0.0
4280,52.0,0,240,3.0,0.0
4281,74.0,1,120,10.0,0.0
4282,74.0,4,120,11.0,0.0
4283,62.0,1,120,13.0,0.0
4284,72.0,1,120,10.0,0.0
4285,72.0,4,120,11.0,0.0
4286,60.0,1,120,13.0,0.0
4287,57.0,109,120,3.0,0.0
4288,54.0,0,120,3.0,0.0
4289,71.0,1,120,10.0,0.0
4290,71.0,4,120,11.0,0.0
4291,59.0,1,120,13.0,0.0
4292,59.0,0,120,3.0,0.0
4293,55.0,125,120,3.0,0.0
4294,69.0,1,240,10.0,0.0
4295,69.0,4,240,11.0,0.0
4296,57.0,1,240,13.0,0.0
4297,57.0,0,120,3.0,0.0
4298,61.0,114,120,3.0,0.0
4299,59.0,0,120,3.0,0.0
4300,62.0,114,120,3.0,0.0
4301,67.0,1,120,10.0,0.0
4302,67.0,4,120,11.0,0.0
4303,55.0,1,120,13.0,0.0
4304,64.0,120,120,3.0,0.0
4305,61.0,0,120,3.0,0.0
4306,66.0,1,240,10.0,0.0
4307,66.0,4,240,11.0,0.0
4308,54.0,115,240,13.0,0.0
4309,62.0,0,120,3.0,0.0
4310,66.0,114,120,3.0,0.0
4311,61.0,0,240,3.0,0.0
4312,67.0,1,240,3.0,0.0
4313,64.0,0,120,10.0,0.0
4314,64.0,0,120,11.0,0.0
4315,69.0,0,120,1.0,0.0
4316,52.0,0,120,13.0,0.0
4317,62.0,1,240,10.0,0.0
4318,62.0,4,240,11.0,0.0
4319,74.0,3,480,1.0,0.0
4320,62.0,2,600,12.0,0.0
4321,38.0,2,120,13.0,0.0
4322,50.0,0,120,13.0,0.0
4323,62.0,0,240,3.0,0.0
4324,66.0,1,240,3.0,0.0
4325,38.0,113,120,14.0,0.0
4326,48.0,1,120,13.0,0.0
4327,36.0,118,120,14.0,0.0
4328,47.0,1,120,13.0,0.0
4329,67.0,1,120,3.0,0.0
4330,62.0,1,360,3.0,0.0
4331,35.0,115,120,14.0,0.0
4332,45.0,2,120,13.0,0.0
4333,60.0,0,240,3.0,0.0
4334,33.0,116,120,14.0,0.0
4335,43.0,1,120,13.0,0.0
4336,31.0,113,120,14.0,0.0
4337,74.0,0,120,0.0,0.0
4338,62.0,120,120,12.0,0.0
4339,41.0,1,120,13.0,0.0
4340,59.0,1,120,3.0,0.0
4341,41.0,1,120,14.0,0.0
4342,79.0,2,480,0.0,0.0
4343,67.0,2,120,12.0,0.0
4344,40.0,2,120,13.0,0.0
4345,60.0,1,240,3.0,0.0
4346,40.0,116,120,14.0,0.0
4347,66.0,2,120,12.0,0.0
4348,38.0,1,120,13.0,0.0
4349,38.0,114,120,14.0,0.0
4350,84.0,2,120,0.0,0.0
4351,64.0,2,120,12.0,0.0
4352,36.0,2,120,13.0,0.0
4353,55.0,1,240,3.0,0.0
4354,36.0,114,120,14.0,0.0
4355,91.0,2,240,0.0,0.0
4356,62.0,2,120,12.0,0.0
4357,47.0,1,120,13.0,0.0
4358,35.0,114,120,14.0,0.0
4359,60.0,2,120,12.0,0.0
4360,45.0,2,120,13.0,0.0
4361,50.0,1,480,3.0,0.0
4362,33.0,111,120,14.0,0.0
4363,59.0,2,120,12.0,0.0
4364,43.0,2,120,13.0,0.0
4365,31.0,123,120,14.0,0.0
4366,57.0,2,240,12.0,0.0
4367,42.0,2,120,13.0,0.0
4368,30.0,111,120,14.0,0.0
4369,41.0,1,120,13.0,0.0
4370,29.0,236,120,14.0,0.0
4371,56.0,2,240,12.0,0.0
4372,40.0,1,240,13.0,0.0
4373,50.0,1,240,3.0,0.0
4374,28.0,233,240,14.0,0.0
4375,55.0,2,240,12.0,0.0
4376,45.0,1,240,13.0,0.0
4377,49.0,1,240,3.0,0.0
4378,33.0,234,240,14.0,0.0
4379,54.0,0,240,12.0,0.0
4380,38.0,1,240,13.0,0.0
4381,50.0,1,240,3.0,0.0
4382,38.0,116,240,14.0,0.0
4383,45.0,2,120,15.0,0.0
4384,54.0,0,240,12.0,0.0
4385,38.0,1,240,13.0,0.0
4386,50.0,1,240,3.0,0.0
4387,38.0,116,240,14.0,0.0
4388,45.0,120,120,15.0,0.0
4389,45.0,2,120,15.0,0.0
4390,54.0,0,240,12.0,0.0
4391,38.0,1,240,13.0,0.0
4392,50.0,1,240,3.0,0.0
4393,38.0,16,240,14.0,0.0
4394,45.0,120,120,15.0,0.0
4395,45.0,2,120,15.0,0.0
4396,62.0,1,720,10.0,0.0
4397,74.0,0,720,10.0,0.0
4398,50.0,0,720,4.0,0.0
4399,86.0,0,720,0.0,0.0
4400,81.0,0,720,0.0,0.0
4401,62.0,1,720,11.0,0.0
4402,69.0,0,720,11.0,0.0
4403,74.0,0,720,1.0,0.0
4404,38.0,0,720,5.0,0.0
4405,78.0,1,720,1.0,0.0
4406,74.0,0,720,2.0,0.0
4407,66.0,0,720,2.0,0.0
4408,54.0,2,720,12.0,0.0
4409,38.0,1,720,13.0,0.0
4410,57.0,0,720,3.0,0.0
4411,50.0,1,720,3.0,0.0
4412,38.0,721,720,14.0,0.0
4413,45.0,4,15,15.0,0.0
4414,45.0,4,15,15.0,0.0
4415,45.0,4,15,15.0,0.0
4416,45.0,4,15,15.0,0.0
4417,45.0,5,15,15.0,0.0
4418,45.0,6,15,15.0,0.0
4419,45.0,4,15,15.0,0.0
4420,45.0,5,15,15.0,0.0
4421,45.0,5,15,15.0,0.0
4422,45.0,4,15,15.0,0.0
4423,45.0,5,15,15.0,0.0
4424,45.0,5,15,15.0,0.0
4425,45.0,5,15,15.0,0.0
4426,45.0,4,15,15.0,0.0
4427,45.0,5,15,15.0,0.0
4428,45.0,4,15,15.0,0.0
4429,45.0,5,15,15.0,0.0
4430,45.0,5,15,15.0,0.0
4431,45.0,4,15,15.0,0.0
4432,45.0,4,15,15.0,0.0
4433,45.0,4,15,15.0,0.0
4434,45.0,5,15,15.0,0.0
4435,45.0,5,15,15.0,0.0
4436,45.0,4,15,15.0,0.0
4437,45.0,4,15,15.0,0.0
4438,45.0,5,15,15.0,0.0
4439,45.0,4,15,15.0,0.0
4440,45.0,5,15,15.0,0.0
4441,45.0,4,15,15.0,0.0
4442,45.0,6,15,15.0,0.0
4443,45.0,5,15,15.0,0.0
4444,45.0,4,15,15.0,0.0
4445,45.0,6,15,15.0,0.0
4446,45.0,4,15,15.0,0.0
4447,45.0,6,15,15.0,0.0
4448,45.0,4,15,15.0,0.0
4449,45.0,4,15,15.0,0.0
4450,45.0,4,15,15.0,0.0
4451,45.0,4,15,15.0,0.0
4452,45.0,3,15,15.0,0.0
4453,45.0,5,15,15.0,0.0
4454,45.0,4,15,15.0,0.0
4455,45.0,5,15,15.0,0.0
4456,45.0,4,15,15.0,0.0
4457,45.0,5,15,15.0,0.0
4458,45.0,4,15,15.0,0.0
4459,45.0,4,15,15.0,0.0
4460,45.0,5,15,15.0,0.0
4461,45.0,4,15,15.0,0.0
4462,45.0,5,15,15.0,0.0
4463,45.0,4,15,15.0,0.0
4464,45.0,5,15,15.0,0.0
4465,45.0,4,15,15.0,0.0
4466,45.0,5,15,15.0,0.0
4467,45.0,5,15,15.0,0.0
4468,45.0,4,15,15.0,0.0
4469,45.0,5,15,15.0,0.0
4470,45.0,5,15,15.0,0.0
4471,45.0,5,15,15.0,0.0
4472,45.0,5,15,15.0,0.0
4473,45.0,4,15,15.0,0.0
4474,45.0,6,15,15.0,0.0
4475,45.0,4,15,15.0,0.0
4476,45.0,4,15,15.0,0.0
4477,45.0,5,15,15.0,0.0
4478,45.0,4,15,15.0,0.0
4479,45.0,4,15,15.0,0.0
4480,45.0,5,15,15.0,0.0
4481,45.0,5,15,15.0,0.0
4482,45.0,5,15,15.0,0.0
4483,45.0,4,15,15.0,0.0
4484,45.0,5,15,15.0,0.0
4485,45.0,5,15,15.0,0.0
4486,45.0,5,15,15.0,0.0
4487,45.0,6,15,15.0,0.0
4488,45.0,5,15,15.0,0.0
4489,45.0,4,15,15.0,0.0
4490,45.0,6,15,15.0,0.0
4491,45.0,4,15,15.0,0.0
4492,45.0,5,15,15.0,0.0
4493,45.0,5,15,15.0,0.0
4494,45.0,5,15,15.0,0.0
4495,45.0,4,15,15.0,0.0
4496,45.0,4,15,15.0,0.0
4497,45.0,5,15,15.0,0.0
4498,45.0,4,15,15.0,0.0
4499,45.0,5,15,15.0,0.0
4500,45.0,5,15,15.0,0.0
4501,45.0,5,15,15.0,0.0
4502,45.0,5,15,15.0,0.0
4503,45.0,5,15,15.0,0.0
4504,45.0,4,15,15.0,0.0
4505,45.0,5,15,15.0,0.0
4506,45.0,4,15,15.0,0.0
4507,45.0,6,15,15.0,0.0
4508,45.0,5,15,15.0,0.0
