,note,step,duration,channel,velocity
0,64.0,0,512,6.0,96.0
1,71.0,0,512,7.0,96.0
2,80.0,0,512,4.0,96.0
3,72.0,0,256,7.0,96.0
4,76.0,0,1024,5.0,96.0
5,74.0,256,256,7.0,96.0
6,68.0,0,512,6.0,96.0
7,69.0,0,512,6.0,96.0
8,83.0,512,1024,4.0,96.0
9,57.0,256,256,4.0,96.0
10,59.0,0,256,4.0,96.0
11,60.0,256,512,6.0,96.0
12,76.0,256,1024,5.0,96.0
13,60.0,256,256,4.0,96.0
14,72.0,0,1024,7.0,96.0
15,62.0,0,512,6.0,96.0
16,77.0,256,512,5.0,96.0
17,81.0,0,1024,4.0,96.0
18,64.0,512,512,6.0,96.0
19,71.0,0,1024,7.0,96.0
20,76.0,0,512,5.0,96.0
21,80.0,0,512,4.0,96.0
22,50.0,0,1024,4.0,96.0
23,48.0,256,256,4.0,96.0
24,57.0,512,512,6.0,96.0
25,81.0,0,512,4.0,96.0
26,50.0,0,256,4.0,96.0
27,60.0,256,512,6.0,96.0
28,76.0,0,512,4.0,96.0
29,52.0,256,256,4.0,96.0
30,72.0,0,1024,5.0,96.0
31,69.0,0,1024,7.0,96.0
32,71.0,0,512,7.0,96.0
33,74.0,256,512,4.0,96.0
34,62.0,0,512,6.0,96.0
35,71.0,0,512,5.0,96.0
36,69.0,512,512,5.0,96.0
37,64.0,0,512,6.0,96.0
38,72.0,0,512,7.0,96.0
39,72.0,0,512,4.0,96.0
40,41.0,0,1024,4.0,96.0
41,65.0,0,512,6.0,96.0
42,55.0,256,256,4.0,96.0
43,71.0,0,512,4.0,96.0
44,57.0,0,256,4.0,96.0
45,74.0,512,1024,7.0,96.0
46,59.0,256,256,4.0,96.0
47,67.0,256,512,6.0,96.0
48,60.0,0,512,6.0,96.0
49,83.0,0,1024,4.0,96.0
50,67.0,0,1536,5.0,96.0
51,81.0,0,512,4.0,96.0
52,65.0,512,512,6.0,96.0
53,48.0,0,1024,4.0,96.0
54,69.0,0,512,5.0,96.0
55,76.0,256,1024,7.0,96.0
56,80.0,0,512,4.0,96.0
57,52.0,256,256,4.0,96.0
58,59.0,512,512,6.0,96.0
59,54.0,0,256,4.0,96.0
60,56.0,256,256,4.0,96.0
61,74.0,0,1024,7.0,96.0
62,64.0,256,512,6.0,96.0
63,57.0,0,512,6.0,96.0
64,71.0,0,1536,5.0,96.0
65,76.0,0,1024,4.0,96.0
66,45.0,256,1024,4.0,96.0
67,78.0,0,512,4.0,96.0
68,69.0,512,512,6.0,96.0
69,69.0,0,512,5.0,96.0
70,72.0,0,1024,7.0,96.0
71,75.0,512,512,4.0,96.0
72,59.0,256,256,4.0,96.0
73,71.0,0,512,6.0,96.0
74,60.0,256,256,4.0,96.0
75,59.0,0,512,6.0,96.0
76,66.0,0,1024,5.0,96.0
77,71.0,0,1024,7.0,96.0
78,62.0,256,256,4.0,96.0
79,83.0,0,1024,4.0,96.0
80,64.0,0,1024,2.0,96.0
81,52.0,0,1024,3.0,96.0
82,68.0,0,1024,5.0,96.0
83,64.0,256,1024,6.0,96.0
84,74.0,512,512,4.0,96.0
85,52.0,0,1024,4.0,96.0
86,71.0,0,1024,0.0,96.0
87,68.0,0,1024,1.0,96.0
88,71.0,0,1024,7.0,96.0
89,72.0,0,512,4.0,96.0
90,57.0,256,256,4.0,96.0
91,59.0,256,256,4.0,96.0
92,64.0,0,1024,2.0,96.0
93,57.0,0,1024,3.0,96.0
94,72.0,0,1024,7.0,96.0
95,64.0,0,1024,6.0,96.0
96,72.0,0,1024,0.0,96.0
97,69.0,512,1024,5.0,96.0
98,60.0,256,256,4.0,96.0
99,69.0,0,1024,1.0,96.0
100,65.0,0,512,5.0,96.0
101,81.0,0,1024,4.0,96.0
102,50.0,0,512,3.0,96.0
103,65.0,0,512,1.0,96.0
104,62.0,256,1024,2.0,96.0
105,64.0,0,0,5.0,96.0
106,62.0,0,1024,6.0,96.0
107,80.0,0,512,4.0,96.0
108,64.0,0,512,1.0,96.0
109,71.0,0,1024,0.0,96.0
110,71.0,0,1024,7.0,96.0
111,52.0,0,512,3.0,96.0
112,50.0,0,1024,4.0,96.0
113,45.0,0,512,3.0,96.0
114,81.0,0,512,4.0,96.0
115,48.0,256,256,4.0,96.0
116,64.0,0,512,1.0,96.0
117,50.0,0,256,4.0,96.0
118,60.0,0,1024,2.0,96.0
119,60.0,0,1024,6.0,96.0
120,65.0,0,512,5.0,96.0
121,55.0,0,512,3.0,96.0
122,76.0,256,512,4.0,96.0
123,52.0,256,256,4.0,96.0
124,69.0,512,1024,0.0,96.0
125,69.0,0,1024,7.0,96.0
126,65.0,0,512,1.0,96.0
127,74.0,0,512,4.0,96.0
128,53.0,0,512,3.0,96.0
129,67.0,0,512,1.0,96.0
130,67.0,256,512,5.0,96.0
131,71.0,0,512,7.0,96.0
132,62.0,0,512,2.0,96.0
133,71.0,0,512,0.0,96.0
134,62.0,0,512,6.0,96.0
135,72.0,0,512,0.0,96.0
136,69.0,0,512,5.0,96.0
137,72.0,0,512,7.0,96.0
138,64.0,0,512,2.0,96.0
139,52.0,512,512,3.0,96.0
140,64.0,0,512,6.0,96.0
141,69.0,0,512,1.0,96.0
142,72.0,0,512,4.0,96.0
143,41.0,0,1024,4.0,96.0
144,55.0,256,256,4.0,96.0
145,71.0,0,512,4.0,96.0
146,50.0,0,512,3.0,96.0
147,57.0,0,256,4.0,96.0
148,65.0,0,1024,6.0,96.0
149,55.0,0,512,3.0,96.0
150,74.0,0,1024,0.0,96.0
151,71.0,512,1024,5.0,96.0
152,59.0,256,256,4.0,96.0
153,74.0,0,1024,7.0,96.0
154,71.0,0,1024,1.0,96.0
155,65.0,0,1024,2.0,96.0
156,72.0,0,512,5.0,96.0
157,72.0,0,512,1.0,96.0
158,83.0,256,1024,4.0,96.0
159,76.0,0,1024,7.0,96.0
160,64.0,0,0,2.0,96.0
161,48.0,0,1024,4.0,96.0
162,81.0,512,512,4.0,96.0
163,76.0,0,1024,0.0,96.0
164,64.0,0,512,1.0,96.0
165,64.0,0,512,5.0,96.0
166,48.0,0,1024,3.0,96.0
167,52.0,256,256,4.0,96.0
168,80.0,0,512,4.0,96.0
169,64.0,256,1536,6.0,96.0
170,54.0,0,256,4.0,96.0
171,47.0,0,1024,3.0,96.0
172,59.0,256,512,6.0,96.0
173,68.0,0,1024,1.0,96.0
174,74.0,512,1024,7.0,96.0
175,68.0,0,1024,5.0,96.0
176,74.0,0,1024,0.0,96.0
177,56.0,256,256,4.0,96.0
178,59.0,0,512,2.0,96.0
179,76.0,0,1024,4.0,96.0
180,60.0,0,512,2.0,96.0
181,60.0,0,512,6.0,96.0
182,45.0,256,1024,3.0,96.0
183,57.0,0,512,2.0,96.0
184,45.0,0,1024,4.0,96.0
185,78.0,512,512,4.0,96.0
186,69.0,0,1024,1.0,96.0
187,57.0,0,512,6.0,96.0
188,72.0,0,1024,0.0,96.0
189,72.0,0,1024,7.0,96.0
190,69.0,0,1024,5.0,96.0
191,59.0,256,256,4.0,96.0
192,54.0,0,512,6.0,96.0
193,75.0,0,512,4.0,96.0
194,60.0,0,256,4.0,96.0
195,47.0,0,1024,3.0,96.0
196,63.0,0,1024,5.0,96.0
197,54.0,512,1024,2.0,96.0
198,62.0,256,256,4.0,96.0
199,63.0,0,1024,1.0,96.0
200,71.0,0,1024,7.0,96.0
201,66.0,256,512,6.0,96.0
202,71.0,0,1024,0.0,96.0
203,83.0,0,1024,4.0,96.0
204,68.0,0,512,6.0,96.0
205,64.0,0,512,6.0,96.0
206,52.0,0,1024,4.0,96.0
207,79.0,512,512,4.0,96.0
208,74.0,0,1024,7.0,96.0
209,69.0,512,512,6.0,96.0
210,76.0,0,512,4.0,96.0
211,48.0,256,256,4.0,96.0
212,71.0,256,1536,5.0,96.0
213,50.0,0,256,4.0,96.0
214,52.0,256,256,4.0,96.0
215,69.0,0,512,5.0,96.0
216,60.0,256,512,6.0,96.0
217,72.0,0,1024,7.0,96.0
218,62.0,0,512,6.0,96.0
219,71.0,256,512,5.0,96.0
220,81.0,0,1024,4.0,96.0
221,40.0,0,1024,4.0,96.0
222,64.0,512,512,6.0,96.0
223,71.0,0,1024,7.0,96.0
224,80.0,0,512,4.0,96.0
225,76.0,0,1024,5.0,96.0
226,57.0,256,256,4.0,96.0
227,57.0,512,512,6.0,96.0
228,81.0,0,512,4.0,96.0
229,59.0,0,256,4.0,96.0
230,69.0,0,512,6.0,96.0
231,60.0,256,256,4.0,96.0
232,77.0,256,512,5.0,96.0
233,72.0,0,1024,7.0,96.0
234,77.0,0,1024,4.0,96.0
235,68.0,0,512,6.0,96.0
236,74.0,0,512,5.0,96.0
237,47.0,0,1024,4.0,96.0
238,68.0,0,1024,1.0,96.0
239,59.0,0,1024,2.0,96.0
240,74.0,256,1024,7.0,96.0
241,74.0,0,1024,0.0,96.0
242,59.0,0,512,6.0,96.0
243,71.0,0,512,5.0,96.0
244,59.0,0,1024,3.0,96.0
245,76.0,512,1024,4.0,96.0
246,64.0,0,512,1.0,96.0
247,48.0,256,256,4.0,96.0
248,64.0,0,512,5.0,96.0
249,50.0,0,256,4.0,96.0
250,57.0,0,1024,3.0,96.0
251,72.0,0,1024,0.0,96.0
252,65.0,256,512,5.0,96.0
253,65.0,0,512,1.0,96.0
254,60.0,512,1024,2.0,96.0
255,60.0,0,1024,6.0,96.0
256,52.0,256,256,4.0,96.0
257,72.0,0,1024,7.0,96.0
258,55.0,0,512,3.0,96.0
259,74.0,0,1024,4.0,96.0
260,53.0,512,512,3.0,96.0
261,62.0,256,1024,6.0,96.0
262,67.0,0,0,1.0,96.0
263,41.0,0,1024,4.0,96.0
264,67.0,0,0,5.0,96.0
265,71.0,0,1024,7.0,96.0
266,62.0,0,1024,2.0,96.0
267,71.0,0,1024,0.0,96.0
268,79.0,0,1024,4.0,96.0
269,60.0,256,256,4.0,96.0
270,62.0,0,256,4.0,96.0
271,72.0,0,1024,0.0,96.0
272,52.0,0,1024,3.0,96.0
273,72.0,0,1024,7.0,96.0
274,64.0,256,256,4.0,96.0
275,60.0,512,1536,6.0,96.0
276,72.0,256,1024,4.0,96.0
277,60.0,0,1536,2.0,96.0
278,69.0,0,1024,0.0,96.0
279,53.0,256,1024,3.0,96.0
280,57.0,0,0,6.0,96.0
281,69.0,0,1024,7.0,96.0
282,65.0,0,512,1.0,96.0
283,74.0,0,512,4.0,96.0
284,57.0,0,512,2.0,96.0
285,53.0,0,1024,4.0,96.0
286,65.0,0,512,5.0,96.0
287,76.0,0,512,4.0,96.0
288,57.0,256,256,4.0,96.0
289,59.0,256,256,4.0,96.0
290,49.0,0,1024,3.0,96.0
291,67.0,512,1024,0.0,96.0
292,67.0,0,1024,7.0,96.0
293,61.0,256,256,4.0,96.0
294,53.0,0,256,4.0,96.0
295,50.0,256,256,4.0,96.0
296,64.0,0,1536,5.0,96.0
297,64.0,0,1536,1.0,96.0
298,69.0,0,1024,4.0,96.0
299,52.0,256,256,4.0,96.0
300,62.0,0,256,1.0,96.0
301,62.0,0,256,5.0,96.0
302,60.0,0,256,5.0,96.0
303,65.0,256,1024,0.0,96.0
304,65.0,0,1024,7.0,96.0
305,53.0,0,256,4.0,96.0
306,57.0,0,2048,2.0,96.0
307,50.0,0,1024,3.0,96.0
308,71.0,0,512,4.0,96.0
309,60.0,256,256,1.0,96.0
310,64.0,0,1024,2.0,96.0
311,52.0,0,1024,3.0,96.0
312,59.0,0,1024,5.0,96.0
313,40.0,0,1024,4.0,96.0
314,64.0,256,1024,0.0,96.0
315,59.0,0,1024,1.0,96.0
316,64.0,0,1024,7.0,96.0
317,64.0,0,0,6.0,96.0
318,68.0,0,1024,4.0,96.0
319,71.0,0,512,7.0,96.0
320,80.0,0,512,4.0,96.0
321,72.0,0,256,7.0,96.0
322,68.0,512,512,6.0,96.0
323,81.0,0,512,4.0,96.0
324,74.0,256,256,7.0,96.0
325,76.0,0,0,5.0,96.0
326,57.0,256,256,4.0,96.0
327,69.0,256,512,6.0,96.0
328,83.0,0,512,4.0,96.0
329,59.0,0,256,4.0,96.0
330,60.0,256,256,4.0,96.0
331,60.0,0,512,6.0,96.0
332,72.0,0,1024,7.0,96.0
333,77.0,0,512,5.0,96.0
334,81.0,256,1024,4.0,96.0
335,62.0,0,512,6.0,96.0
336,71.0,0,1024,7.0,96.0
337,76.0,0,512,5.0,96.0
338,50.0,256,1024,4.0,96.0
339,64.0,512,512,6.0,96.0
340,80.0,0,512,4.0,96.0
341,57.0,0,512,6.0,96.0
342,48.0,256,256,4.0,96.0
343,81.0,0,512,4.0,96.0
344,50.0,0,256,4.0,96.0
345,72.0,512,1024,5.0,96.0
346,76.0,0,512,4.0,96.0
347,52.0,256,256,4.0,96.0
348,60.0,256,512,6.0,96.0
349,69.0,0,1024,7.0,96.0
350,62.0,0,512,6.0,96.0
351,71.0,0,512,5.0,96.0
352,74.0,256,512,4.0,96.0
353,71.0,0,512,7.0,96.0
354,41.0,0,1024,4.0,96.0
355,64.0,512,512,6.0,96.0
356,72.0,0,512,4.0,96.0
357,69.0,0,512,5.0,96.0
358,72.0,0,512,7.0,96.0
359,55.0,256,256,4.0,96.0
360,71.0,0,512,4.0,96.0
361,65.0,512,512,6.0,96.0
362,57.0,256,256,4.0,96.0
363,67.0,0,512,6.0,96.0
364,59.0,256,256,4.0,96.0
365,74.0,0,1024,7.0,96.0
366,60.0,0,512,6.0,96.0
367,67.0,0,1536,5.0,96.0
368,83.0,0,1024,4.0,96.0
369,81.0,0,512,4.0,96.0
370,76.0,256,1024,7.0,96.0
371,65.0,0,512,6.0,96.0
372,69.0,512,512,5.0,96.0
373,48.0,0,1024,4.0,96.0
374,59.0,0,512,6.0,96.0
375,80.0,512,512,4.0,96.0
376,52.0,256,256,4.0,96.0
377,54.0,0,256,4.0,96.0
378,56.0,256,256,4.0,96.0
379,64.0,256,512,6.0,96.0
380,74.0,0,1024,7.0,96.0
381,71.0,0,1536,5.0,96.0
382,57.0,0,512,6.0,96.0
383,76.0,0,1024,4.0,96.0
384,45.0,0,1024,4.0,96.0
385,69.0,0,512,6.0,96.0
386,69.0,512,512,5.0,96.0
387,72.0,256,1024,7.0,96.0
388,78.0,0,512,4.0,96.0
389,71.0,512,512,6.0,96.0
390,59.0,256,256,4.0,96.0
391,75.0,0,512,4.0,96.0
392,60.0,0,256,4.0,96.0
393,59.0,0,512,6.0,96.0
394,71.0,0,1024,7.0,96.0
395,66.0,0,1024,5.0,96.0
396,62.0,256,256,4.0,96.0
397,83.0,256,1024,4.0,96.0
398,52.0,0,1024,3.0,96.0
399,68.0,0,1024,1.0,96.0
400,64.0,0,0,6.0,96.0
401,74.0,512,512,4.0,96.0
402,52.0,0,1024,4.0,96.0
403,64.0,0,1024,2.0,96.0
404,68.0,0,1024,5.0,96.0
405,71.0,256,1024,7.0,96.0
406,71.0,0,1024,0.0,96.0
407,57.0,256,256,4.0,96.0
408,72.0,0,512,4.0,96.0
409,59.0,256,256,4.0,96.0
410,72.0,0,1024,0.0,96.0
411,60.0,256,256,4.0,96.0
412,69.0,0,1024,5.0,96.0
413,69.0,512,1024,1.0,96.0
414,64.0,0,1024,2.0,96.0
415,57.0,0,1024,3.0,96.0
416,72.0,0,1024,7.0,96.0
417,81.0,0,1024,4.0,96.0
418,65.0,0,512,5.0,96.0
419,50.0,0,512,3.0,96.0
420,65.0,0,512,1.0,96.0
421,62.0,0,1024,2.0,96.0
422,64.0,512,0,1.0,96.0
423,50.0,0,1024,4.0,96.0
424,80.0,0,512,4.0,96.0
425,62.0,0,1024,6.0,96.0
426,64.0,0,512,5.0,96.0
427,71.0,256,1024,0.0,96.0
428,71.0,0,1024,7.0,96.0
429,52.0,512,512,3.0,96.0
430,81.0,0,512,4.0,96.0
431,48.0,256,256,4.0,96.0
432,45.0,0,512,3.0,96.0
433,64.0,0,512,5.0,96.0
434,50.0,256,256,4.0,96.0
435,55.0,0,512,3.0,96.0
436,65.0,0,512,1.0,96.0
437,69.0,0,1024,7.0,96.0
438,69.0,0,1024,0.0,96.0
439,52.0,256,256,4.0,96.0
440,60.0,0,1024,2.0,96.0
441,60.0,0,1024,6.0,96.0
442,76.0,0,512,4.0,96.0
443,65.0,0,512,5.0,96.0
444,74.0,0,512,4.0,96.0
445,53.0,256,512,3.0,96.0
446,71.0,0,512,7.0,96.0
447,62.0,0,512,6.0,96.0
448,62.0,0,512,2.0,96.0
449,71.0,0,512,0.0,96.0
450,67.0,0,512,1.0,96.0
451,67.0,0,512,5.0,96.0
452,72.0,0,512,4.0,96.0
453,52.0,0,512,3.0,96.0
454,72.0,0,512,7.0,96.0
455,69.0,0,512,1.0,96.0
456,72.0,0,512,0.0,96.0
457,64.0,0,512,2.0,96.0
458,64.0,0,512,6.0,96.0
459,41.0,0,1024,4.0,96.0
460,69.0,512,512,5.0,96.0
461,71.0,0,512,4.0,96.0
462,55.0,256,256,4.0,96.0
463,50.0,512,512,3.0,96.0
464,57.0,0,256,4.0,96.0
465,59.0,256,256,4.0,96.0
466,55.0,0,512,3.0,96.0
467,74.0,0,1024,0.0,96.0
468,65.0,0,1024,6.0,96.0
469,71.0,0,1024,5.0,96.0
470,65.0,0,1024,2.0,96.0
471,71.0,0,1024,1.0,96.0
472,74.0,0,1024,7.0,96.0
473,72.0,0,512,5.0,96.0
474,83.0,256,1024,4.0,96.0
475,72.0,0,512,1.0,96.0
476,76.0,256,1024,0.0,96.0
477,81.0,512,512,4.0,96.0
478,76.0,0,1024,7.0,96.0
479,48.0,0,1024,3.0,96.0
480,64.0,0,512,1.0,96.0
481,64.0,0,512,5.0,96.0
482,64.0,0,0,2.0,96.0
483,48.0,0,1024,4.0,96.0
484,80.0,0,512,4.0,96.0
485,52.0,256,256,4.0,96.0
486,64.0,0,1536,6.0,96.0
487,54.0,0,256,4.0,96.0
488,47.0,0,1024,3.0,96.0
489,68.0,0,1024,5.0,96.0
490,74.0,0,1024,7.0,96.0
491,56.0,256,256,4.0,96.0
492,74.0,512,1024,0.0,96.0
493,59.0,0,512,6.0,96.0
494,68.0,0,1024,1.0,96.0
495,59.0,0,512,2.0,96.0
496,60.0,0,512,6.0,96.0
497,60.0,0,512,2.0,96.0
498,76.0,256,1024,4.0,96.0
499,57.0,0,512,2.0,96.0
500,69.0,0,1024,1.0,96.0
501,45.0,0,1024,3.0,96.0
502,72.0,0,1024,7.0,96.0
503,69.0,256,1024,5.0,96.0
504,57.0,0,512,6.0,96.0
505,78.0,512,512,4.0,96.0
506,45.0,0,1024,4.0,96.0
507,72.0,0,1024,0.0,96.0
508,54.0,0,512,6.0,96.0
509,75.0,0,512,4.0,96.0
510,59.0,256,256,4.0,96.0
511,60.0,0,256,4.0,96.0
512,62.0,256,256,4.0,96.0
513,63.0,0,1024,5.0,96.0
514,71.0,0,1024,0.0,96.0
515,54.0,512,1024,2.0,96.0
516,66.0,0,512,6.0,96.0
517,47.0,0,1024,3.0,96.0
518,63.0,0,1024,1.0,96.0
519,71.0,0,1024,7.0,96.0
520,68.0,0,512,6.0,96.0
521,83.0,256,1024,4.0,96.0
522,74.0,0,1024,7.0,96.0
523,64.0,0,512,6.0,96.0
524,79.0,512,512,4.0,96.0
525,52.0,256,1024,4.0,96.0
526,71.0,0,1536,5.0,96.0
527,48.0,256,256,4.0,96.0
528,69.0,0,512,6.0,96.0
529,76.0,0,512,4.0,96.0
530,50.0,0,256,4.0,96.0
531,60.0,0,512,6.0,96.0
532,69.0,0,512,5.0,96.0
533,72.0,512,1024,7.0,96.0
534,52.0,256,256,4.0,96.0
535,71.0,0,512,5.0,96.0
536,81.0,256,1024,4.0,96.0
537,62.0,256,512,6.0,96.0
538,71.0,0,1024,7.0,96.0
539,80.0,0,512,4.0,96.0
540,64.0,0,512,6.0,96.0
541,40.0,0,1024,4.0,96.0
542,76.0,512,1024,5.0,96.0
543,57.0,256,256,4.0,96.0
544,81.0,0,512,4.0,96.0
545,57.0,512,512,6.0,96.0
546,59.0,0,256,4.0,96.0
547,60.0,256,256,4.0,96.0
548,77.0,256,512,5.0,96.0
549,69.0,0,512,6.0,96.0
550,72.0,0,1024,7.0,96.0
551,74.0,256,512,5.0,96.0
552,77.0,0,1024,4.0,96.0
553,68.0,0,512,6.0,96.0
554,71.0,512,512,5.0,96.0
555,59.0,0,1024,3.0,96.0
556,74.0,0,1024,7.0,96.0
557,68.0,0,1024,1.0,96.0
558,47.0,0,1024,4.0,96.0
559,59.0,0,1024,2.0,96.0
560,74.0,0,1024,0.0,96.0
561,59.0,0,512,6.0,96.0
562,64.0,512,512,5.0,96.0
563,48.0,256,256,4.0,96.0
564,76.0,0,1024,4.0,96.0
565,64.0,0,512,1.0,96.0
566,50.0,0,256,4.0,96.0
567,60.0,0,1024,2.0,96.0
568,60.0,0,1024,6.0,96.0
569,52.0,256,256,4.0,96.0
570,65.0,0,512,5.0,96.0
571,72.0,0,1024,7.0,96.0
572,57.0,0,1024,3.0,96.0
573,65.0,256,512,1.0,96.0
574,72.0,0,1024,0.0,96.0
575,55.0,256,512,3.0,96.0
576,74.0,0,1024,4.0,96.0
577,62.0,0,1024,2.0,96.0
578,62.0,0,1024,6.0,96.0
579,67.0,512,0,1.0,96.0
580,41.0,0,1024,4.0,96.0
581,71.0,0,1024,0.0,96.0
582,53.0,512,512,3.0,96.0
583,67.0,0,0,5.0,96.0
584,71.0,0,1024,7.0,96.0
585,60.0,256,256,4.0,96.0
586,79.0,0,1024,4.0,96.0
587,62.0,256,256,4.0,96.0
588,64.0,256,256,4.0,96.0
589,72.0,0,1024,7.0,96.0
590,72.0,0,1024,0.0,96.0
591,52.0,0,1024,3.0,96.0
592,60.0,0,1536,2.0,96.0
593,72.0,0,1024,4.0,96.0
594,60.0,0,1536,6.0,96.0
595,69.0,0,1024,0.0,96.0
596,53.0,0,1024,3.0,96.0
597,69.0,256,1024,7.0,96.0
598,53.0,0,1024,4.0,96.0
599,65.0,512,512,1.0,96.0
600,57.0,0,512,6.0,96.0
601,74.0,0,512,4.0,96.0
602,57.0,0,0,2.0,96.0
603,65.0,0,512,5.0,96.0
604,57.0,256,256,4.0,96.0
605,76.0,0,512,4.0,96.0
606,59.0,0,256,4.0,96.0
607,67.0,0,1024,0.0,96.0
608,61.0,256,256,4.0,96.0
609,49.0,0,1024,3.0,96.0
610,67.0,512,1024,7.0,96.0
611,53.0,256,256,4.0,96.0
612,64.0,0,1536,1.0,96.0
613,50.0,256,256,4.0,96.0
614,69.0,256,1024,4.0,96.0
615,64.0,0,1536,5.0,96.0
616,62.0,0,256,5.0,96.0
617,52.0,0,256,4.0,96.0
618,62.0,0,256,1.0,96.0
619,53.0,256,256,4.0,96.0
620,50.0,0,1024,3.0,96.0
621,65.0,0,1024,0.0,96.0
622,60.0,0,256,5.0,96.0
623,71.0,256,512,4.0,96.0
624,60.0,0,256,1.0,96.0
625,57.0,0,2048,6.0,96.0
626,65.0,0,1024,7.0,96.0
627,59.0,0,1024,1.0,96.0
628,52.0,0,1024,3.0,96.0
629,64.0,0,1024,2.0,96.0
630,64.0,256,1024,7.0,96.0
631,64.0,0,1024,6.0,96.0
632,64.0,0,1024,0.0,96.0
633,68.0,0,1024,4.0,96.0
634,40.0,0,1024,4.0,96.0
635,59.0,0,1024,5.0,96.0
636,71.0,0,512,5.0,96.0
637,64.0,0,512,6.0,96.0
638,60.0,0,512,6.0,96.0
639,67.0,1024,1024,7.0,96.0
640,57.0,512,512,6.0,96.0
641,72.0,0,1024,5.0,96.0
642,76.0,512,1024,4.0,96.0
643,55.0,256,256,4.0,96.0
644,57.0,0,256,4.0,96.0
645,59.0,0,512,6.0,96.0
646,65.0,0,1024,7.0,96.0
647,59.0,256,256,4.0,96.0
648,67.0,256,512,5.0,96.0
649,74.0,0,1024,4.0,96.0
650,60.0,0,512,6.0,96.0
651,48.0,0,1024,4.0,96.0
652,67.0,0,1024,5.0,96.0
653,64.0,256,1024,7.0,96.0
654,52.0,0,512,6.0,96.0
655,69.0,0,512,5.0,96.0
656,53.0,0,512,6.0,96.0
657,72.0,512,1024,4.0,96.0
658,55.0,256,256,4.0,96.0
659,57.0,0,256,4.0,96.0
660,62.0,512,1024,7.0,96.0
661,67.0,0,512,5.0,96.0
662,59.0,256,256,4.0,96.0
663,71.0,0,512,4.0,96.0
664,55.0,256,1024,6.0,96.0
665,57.0,0,512,2.0,96.0
666,64.0,256,512,4.0,96.0
667,64.0,0,1024,5.0,96.0
668,49.0,0,1024,4.0,96.0
669,52.0,0,512,6.0,96.0
670,52.0,512,512,2.0,96.0
671,67.0,0,1024,0.0,96.0
672,49.0,0,1024,3.0,96.0
673,64.0,0,1024,1.0,96.0
674,67.0,0,1024,7.0,96.0
675,50.0,0,512,3.0,96.0
676,53.0,0,512,6.0,96.0
677,53.0,0,512,2.0,96.0
678,76.0,0,1024,4.0,96.0
679,50.0,256,256,4.0,96.0
680,52.0,0,256,4.0,96.0
681,65.0,0,1024,7.0,96.0
682,57.0,0,1024,1.0,96.0
683,62.0,256,512,2.0,96.0
684,62.0,0,512,6.0,96.0
685,53.0,256,256,4.0,96.0
686,65.0,0,1024,0.0,96.0
687,59.0,0,512,3.0,96.0
688,57.0,512,1024,5.0,96.0
689,59.0,256,512,1.0,96.0
690,59.0,0,512,2.0,96.0
691,56.0,0,512,3.0,96.0
692,59.0,0,512,5.0,96.0
693,59.0,0,512,6.0,96.0
694,74.0,0,1024,4.0,96.0
695,57.0,0,512,3.0,96.0
696,57.0,512,512,2.0,96.0
697,60.0,0,512,1.0,96.0
698,64.0,0,1024,7.0,96.0
699,64.0,0,1024,0.0,96.0
700,57.0,0,512,6.0,96.0
701,72.0,0,512,4.0,96.0
702,60.0,0,512,5.0,96.0
703,44.0,0,1024,4.0,96.0
704,57.0,0,512,2.0,96.0
705,71.0,0,512,4.0,96.0
706,47.0,256,256,4.0,96.0
707,57.0,0,512,6.0,96.0
708,48.0,0,256,4.0,96.0
709,62.0,0,512,6.0,96.0
710,62.0,256,512,2.0,96.0
711,62.0,0,1024,7.0,96.0
712,50.0,256,256,4.0,96.0
713,53.0,0,1024,3.0,96.0
714,62.0,0,1024,0.0,96.0
715,59.0,0,512,2.0,96.0
716,59.0,0,512,6.0,96.0
717,81.0,0,1024,4.0,96.0
718,62.0,512,1536,1.0,96.0
719,62.0,0,1536,5.0,96.0
720,60.0,0,256,5.0,96.0
721,60.0,0,256,1.0,96.0
722,40.0,0,1024,4.0,96.0
723,80.0,0,512,4.0,96.0
724,59.0,256,256,5.0,96.0
725,59.0,0,256,1.0,96.0
726,64.0,0,1024,7.0,96.0
727,64.0,256,1024,0.0,96.0
728,52.0,0,1024,3.0,96.0
729,64.0,0,1024,2.0,96.0
730,64.0,512,1024,6.0,96.0
731,53.0,0,512,3.0,96.0
732,45.0,256,256,4.0,96.0
733,81.0,0,512,4.0,96.0
734,47.0,0,256,4.0,96.0
735,62.0,0,256,6.0,96.0
736,62.0,0,256,2.0,96.0
737,60.0,0,1024,7.0,96.0
738,57.0,0,1024,1.0,96.0
739,60.0,0,256,6.0,96.0
740,60.0,0,256,2.0,96.0
741,57.0,256,1024,5.0,96.0
742,48.0,256,256,4.0,96.0
743,52.0,0,512,3.0,96.0
744,60.0,0,1024,0.0,96.0
745,77.0,256,1024,4.0,96.0
746,59.0,0,512,2.0,96.0
747,59.0,0,512,6.0,96.0
748,79.0,0,256,4.0,96.0
749,38.0,256,1024,4.0,96.0
750,62.0,0,512,6.0,96.0
751,59.0,0,1024,1.0,96.0
752,62.0,0,1024,7.0,96.0
753,59.0,0,1024,5.0,96.0
754,62.0,512,512,2.0,96.0
755,77.0,256,256,4.0,96.0
756,50.0,0,1024,3.0,96.0
757,62.0,0,1024,0.0,96.0
758,76.0,0,512,4.0,96.0
759,48.0,256,256,4.0,96.0
760,55.0,256,512,6.0,96.0
761,50.0,0,256,4.0,96.0
762,55.0,0,1024,2.0,96.0
763,52.0,256,256,4.0,96.0
764,60.0,0,1024,1.0,96.0
765,60.0,0,1024,5.0,96.0
766,48.0,0,1024,3.0,96.0
767,64.0,0,1024,0.0,96.0
768,64.0,0,1024,7.0,96.0
769,77.0,256,512,4.0,96.0
770,62.0,0,512,6.0,96.0
771,76.0,0,512,4.0,96.0
772,64.0,0,512,6.0,96.0
773,44.0,0,1024,4.0,96.0
774,56.0,0,512,6.0,96.0
775,71.0,256,1024,7.0,96.0
776,74.0,0,512,4.0,96.0
777,57.0,512,512,6.0,96.0
778,72.0,0,512,4.0,96.0
779,57.0,256,256,4.0,96.0
780,71.0,512,1024,5.0,96.0
781,59.0,0,256,4.0,96.0
782,60.0,256,256,4.0,96.0
783,64.0,256,512,6.0,96.0
784,69.0,0,512,5.0,96.0
785,72.0,0,1024,7.0,96.0
786,66.0,0,512,6.0,96.0
787,71.0,0,512,7.0,96.0
788,81.0,0,1024,4.0,96.0
789,63.0,0,512,6.0,96.0
790,51.0,256,1024,4.0,96.0
791,69.0,512,512,7.0,96.0
792,78.0,0,512,4.0,96.0
793,64.0,0,512,6.0,96.0
794,83.0,0,512,4.0,96.0
795,50.0,256,256,4.0,96.0
796,52.0,0,256,4.0,96.0
797,62.0,256,512,6.0,96.0
798,68.0,512,1024,7.0,96.0
799,53.0,256,256,4.0,96.0
800,71.0,0,2048,5.0,96.0
801,60.0,0,512,6.0,96.0
802,76.0,0,1024,4.0,96.0
803,64.0,0,1024,1.0,96.0
804,64.0,0,1024,5.0,96.0
805,71.0,0,1024,0.0,96.0
806,44.0,0,1024,4.0,96.0
807,74.0,512,512,4.0,96.0
808,56.0,0,1024,3.0,96.0
809,71.0,256,1024,7.0,96.0
810,64.0,0,1024,2.0,96.0
811,59.0,0,512,6.0,96.0
812,45.0,256,256,4.0,96.0
813,72.0,0,512,4.0,96.0
814,64.0,0,512,2.0,96.0
815,63.0,256,256,2.0,96.0
816,47.0,0,256,4.0,96.0
817,72.0,0,1024,7.0,96.0
818,64.0,256,256,2.0,96.0
819,69.0,0,1024,5.0,96.0
820,48.0,0,256,4.0,96.0
821,57.0,512,1024,3.0,96.0
822,69.0,0,1024,1.0,96.0
823,72.0,0,1024,0.0,96.0
824,57.0,0,1024,6.0,96.0
825,51.0,0,512,3.0,96.0
826,71.0,0,512,0.0,96.0
827,66.0,0,512,2.0,96.0
828,78.0,0,1024,4.0,96.0
829,71.0,0,512,7.0,96.0
830,76.0,0,256,4.0,96.0
831,59.0,256,1024,6.0,96.0
832,39.0,0,1024,4.0,96.0
833,66.0,0,1024,5.0,96.0
834,68.0,0,1024,1.0,96.0
835,75.0,256,256,4.0,96.0
836,47.0,512,512,3.0,96.0
837,69.0,0,512,0.0,96.0
838,69.0,0,512,7.0,96.0
839,59.0,0,0,2.0,96.0
840,65.0,0,512,1.0,96.0
841,47.0,256,256,4.0,96.0
842,59.0,0,512,6.0,96.0
843,64.0,256,512,5.0,96.0
844,48.0,256,256,4.0,96.0
845,50.0,256,256,4.0,96.0
846,62.0,0,512,2.0,96.0
847,65.0,0,512,5.0,96.0
848,68.0,0,1024,7.0,96.0
849,68.0,0,1024,0.0,96.0
850,52.0,0,1024,3.0,96.0
851,62.0,0,512,6.0,96.0
852,67.0,0,512,1.0,96.0
853,64.0,0,512,5.0,96.0
854,54.0,0,512,3.0,96.0
855,65.0,0,512,1.0,96.0
856,69.0,0,512,7.0,96.0
857,69.0,0,512,0.0,96.0
858,60.0,256,512,6.0,96.0
859,60.0,0,512,2.0,96.0
860,56.0,0,512,3.0,96.0
861,59.0,0,512,6.0,96.0
862,64.0,0,512,1.0,96.0
863,59.0,0,512,2.0,96.0
864,62.0,0,512,5.0,96.0
865,40.0,0,1024,4.0,96.0
866,71.0,0,512,7.0,96.0
867,71.0,512,512,0.0,96.0
868,76.0,0,2560,4.0,96.0
869,57.0,256,256,4.0,96.0
870,57.0,0,512,2.0,96.0
871,62.0,0,512,1.0,96.0
872,57.0,0,512,6.0,96.0
873,60.0,512,512,5.0,96.0
874,62.0,0,256,5.0,96.0
875,59.0,256,256,4.0,96.0
876,64.0,0,256,1.0,96.0
877,72.0,0,1024,0.0,96.0
878,60.0,0,256,4.0,96.0
879,64.0,256,256,5.0,96.0
880,57.0,0,1024,3.0,96.0
881,60.0,0,512,2.0,96.0
882,72.0,0,1024,7.0,96.0
883,60.0,0,512,6.0,96.0
884,65.0,0,256,1.0,96.0
885,81.0,0,1024,4.0,96.0
886,59.0,0,512,6.0,96.0
887,59.0,0,512,2.0,96.0
888,83.0,512,512,4.0,96.0
889,50.0,256,1024,4.0,96.0
890,65.0,0,1024,5.0,96.0
891,57.0,0,512,6.0,96.0
892,74.0,0,1024,0.0,96.0
893,50.0,0,1024,3.0,96.0
894,57.0,0,512,2.0,96.0
895,74.0,0,1024,7.0,96.0
896,67.0,0,1024,1.0,96.0
897,64.0,0,512,6.0,96.0
898,80.0,512,512,4.0,96.0
899,56.0,256,256,4.0,96.0
900,57.0,256,256,4.0,96.0
901,76.0,0,512,4.0,96.0
902,64.0,0,1024,5.0,96.0
903,71.0,0,1024,7.0,96.0
904,59.0,256,256,4.0,96.0
905,71.0,0,1024,0.0,96.0
906,56.0,0,512,6.0,96.0
907,65.0,0,1024,1.0,96.0
908,64.0,0,1024,2.0,96.0
909,52.0,0,1024,3.0,96.0
910,81.0,0,512,4.0,96.0
911,57.0,0,512,6.0,96.0
912,48.0,0,1024,4.0,96.0
913,79.0,512,512,4.0,96.0
914,60.0,0,512,6.0,96.0
915,64.0,0,1024,5.0,96.0
916,76.0,256,1024,7.0,96.0
917,50.0,256,256,4.0,96.0
918,62.0,0,512,6.0,96.0
919,78.0,512,512,4.0,96.0
920,52.0,0,256,4.0,96.0
921,54.0,256,256,4.0,96.0
922,74.0,0,1024,7.0,96.0
923,54.0,0,512,6.0,96.0
924,69.0,0,1024,5.0,96.0
925,81.0,256,1024,4.0,96.0
926,55.0,0,512,6.0,96.0
927,43.0,0,1024,4.0,96.0
928,62.0,256,1024,5.0,96.0
929,57.0,512,512,6.0,96.0
930,71.0,0,1024,7.0,96.0
931,55.0,256,256,4.0,96.0
932,79.0,0,1024,4.0,96.0
933,59.0,0,512,6.0,96.0
934,57.0,0,256,4.0,96.0
935,77.0,256,512,4.0,96.0
936,59.0,256,256,4.0,96.0
937,74.0,512,1024,7.0,96.0
938,55.0,0,512,6.0,96.0
939,67.0,0,512,1.0,96.0
940,67.0,0,1536,5.0,96.0
941,60.0,256,512,3.0,96.0
942,76.0,0,512,4.0,96.0
943,57.0,0,512,3.0,96.0
944,60.0,0,1024,2.0,96.0
945,81.0,0,512,4.0,96.0
946,48.0,0,1024,4.0,96.0
947,72.0,512,512,1.0,96.0
948,76.0,0,1024,0.0,96.0
949,60.0,0,1024,6.0,96.0
950,76.0,0,1024,7.0,96.0
951,72.0,0,512,5.0,96.0
952,74.0,0,512,4.0,96.0
953,50.0,256,256,4.0,96.0
954,52.0,0,256,4.0,96.0
955,69.0,0,1024,5.0,96.0
956,74.0,0,1024,0.0,96.0
957,69.0,0,1024,1.0,96.0
958,54.0,0,1024,3.0,96.0
959,54.0,256,256,4.0,96.0
960,62.0,512,1024,2.0,96.0
961,62.0,0,1024,6.0,96.0
962,74.0,0,1024,7.0,96.0
963,71.0,0,512,7.0,96.0
964,62.0,0,512,2.0,96.0
965,71.0,0,512,0.0,96.0
966,62.0,0,512,6.0,96.0
967,81.0,256,1024,4.0,96.0
968,79.0,0,256,4.0,96.0
969,78.0,256,256,4.0,96.0
970,71.0,0,1024,5.0,96.0
971,55.0,0,1024,3.0,96.0
972,60.0,0,512,6.0,96.0
973,72.0,0,512,0.0,96.0
974,71.0,256,1024,1.0,96.0
975,60.0,0,512,2.0,96.0
976,72.0,512,512,7.0,96.0
977,43.0,0,1024,4.0,96.0
978,79.0,256,512,4.0,96.0
979,55.0,256,256,4.0,96.0
980,57.0,0,256,4.0,96.0
981,74.0,0,1024,0.0,96.0
982,74.0,0,1024,7.0,96.0
983,77.0,256,512,4.0,96.0
984,59.0,256,256,4.0,96.0
985,59.0,0,1024,2.0,96.0
986,67.0,0,1024,1.0,96.0
987,59.0,0,1024,6.0,96.0
988,67.0,0,1024,5.0,96.0
989,61.0,0,512,2.0,96.0
990,49.0,0,512,4.0,96.0
991,76.0,0,512,4.0,96.0
992,55.0,0,1536,3.0,96.0
993,61.0,0,512,6.0,96.0
994,69.0,0,1024,7.0,96.0
995,62.0,0,512,2.0,96.0
996,69.0,256,1024,1.0,96.0
997,69.0,0,1024,0.0,96.0
998,62.0,512,512,6.0,96.0
999,53.0,0,512,3.0,96.0
1000,69.0,0,1024,5.0,96.0
1001,74.0,0,512,4.0,96.0
1002,73.0,0,512,4.0,96.0
1003,45.0,256,256,4.0,96.0
1004,47.0,0,256,4.0,96.0
1005,52.0,0,1024,3.0,96.0
1006,49.0,256,256,4.0,96.0
1007,67.0,512,1024,7.0,96.0
1008,64.0,0,1024,6.0,96.0
1009,64.0,0,1024,2.0,96.0
1010,61.0,0,1024,5.0,96.0
1011,61.0,0,1024,1.0,96.0
1012,67.0,0,1024,0.0,96.0
1013,57.0,0,512,6.0,96.0
1014,53.0,256,512,3.0,96.0
1015,38.0,0,512,4.0,96.0
1016,81.0,256,1024,4.0,96.0
1017,57.0,0,512,2.0,96.0
1018,82.0,0,512,4.0,96.0
1019,65.0,0,1024,0.0,96.0
1020,55.0,512,512,3.0,96.0
1021,62.0,0,512,2.0,96.0
1022,62.0,0,512,6.0,96.0
1023,62.0,0,1024,1.0,96.0
1024,65.0,0,1024,7.0,96.0
1025,62.0,0,1024,5.0,96.0
1026,73.0,0,512,4.0,96.0
1027,57.0,256,256,4.0,96.0
1028,57.0,512,512,5.0,96.0
1029,59.0,0,256,4.0,96.0
1030,64.0,0,512,5.0,96.0
1031,64.0,0,1024,7.0,96.0
1032,61.0,0,1024,6.0,96.0
1033,57.0,0,1024,3.0,96.0
1034,57.0,0,1024,1.0,96.0
1035,64.0,0,1024,0.0,96.0
1036,61.0,256,256,4.0,96.0
1037,61.0,0,1024,2.0,96.0
1038,50.0,0,512,4.0,96.0
1039,81.0,256,1024,4.0,96.0
1040,60.0,0,512,6.0,96.0
1041,72.0,512,512,4.0,96.0
1042,62.0,0,1024,7.0,96.0
1043,57.0,0,512,6.0,96.0
1044,66.0,256,1024,5.0,96.0
1045,67.0,0,512,5.0,96.0
1046,64.0,0,512,6.0,96.0
1047,71.0,0,512,4.0,96.0
1048,52.0,256,256,4.0,96.0
1049,54.0,0,256,4.0,96.0
1050,59.0,0,512,6.0,96.0
1051,67.0,512,1024,7.0,96.0
1052,71.0,256,512,5.0,96.0
1053,55.0,256,256,4.0,96.0
1054,79.0,0,1024,4.0,96.0
1055,45.0,0,512,4.0,96.0
1056,60.0,256,512,6.0,96.0
1057,69.0,0,512,5.0,96.0
1058,69.0,0,1024,7.0,96.0
1059,78.0,512,512,4.0,96.0
1060,62.0,0,512,6.0,96.0
1061,74.0,0,512,5.0,96.0
1062,79.0,512,512,4.0,96.0
1063,55.0,256,256,4.0,96.0
1064,57.0,0,256,4.0,96.0
1065,59.0,256,256,4.0,96.0
1066,74.0,0,1024,5.0,96.0
1067,71.0,0,1024,7.0,96.0
1068,55.0,0,1024,6.0,96.0
1069,48.0,256,512,4.0,96.0
1070,74.0,256,1024,4.0,96.0
1071,57.0,0,1024,6.0,96.0
1072,66.0,0,1024,1.0,96.0
1073,57.0,0,1024,2.0,96.0
1074,72.0,512,512,4.0,96.0
1075,62.0,0,1024,7.0,96.0
1076,50.0,0,1024,3.0,96.0
1077,62.0,0,1024,0.0,96.0
1078,66.0,0,1024,5.0,96.0
1079,52.0,256,256,4.0,96.0
1080,71.0,512,512,4.0,96.0
1081,52.0,0,512,3.0,96.0
1082,54.0,0,256,4.0,96.0
1083,67.0,0,1024,5.0,96.0
1084,59.0,0,1024,1.0,96.0
1085,67.0,0,1024,7.0,96.0
1086,67.0,0,1024,0.0,96.0
1087,55.0,256,256,4.0,96.0
1088,50.0,0,512,3.0,96.0
1089,64.0,0,1536,2.0,96.0
1090,64.0,0,1536,6.0,96.0
1091,79.0,256,1024,4.0,96.0
1092,72.0,256,512,5.0,96.0
1093,64.0,0,512,1.0,96.0
1094,48.0,0,512,3.0,96.0
1095,45.0,0,512,4.0,96.0
1096,62.0,0,256,2.0,96.0
1097,62.0,512,256,6.0,96.0
1098,60.0,256,256,2.0,96.0
1099,69.0,0,512,5.0,96.0
1100,69.0,0,1024,0.0,96.0
1101,78.0,0,512,4.0,96.0
1102,69.0,0,1024,7.0,96.0
1103,60.0,0,256,6.0,96.0
1104,66.0,0,512,1.0,96.0
1105,50.0,0,512,3.0,96.0
1106,55.0,0,512,3.0,96.0
1107,67.0,0,512,5.0,96.0
1108,59.0,256,512,2.0,96.0
1109,59.0,0,512,6.0,96.0
1110,52.0,256,256,4.0,96.0
1111,62.0,0,512,1.0,96.0
1112,79.0,0,512,4.0,96.0
1113,54.0,256,256,4.0,96.0
1114,55.0,0,512,2.0,96.0
1115,64.0,0,512,1.0,96.0
1116,71.0,0,1024,0.0,96.0
1117,71.0,0,512,5.0,96.0
1118,52.0,0,512,3.0,96.0
1119,55.0,0,512,6.0,96.0
1120,71.0,0,1024,7.0,96.0
1121,55.0,256,256,4.0,96.0
1122,57.0,0,512,1.0,96.0
1123,72.0,0,1024,4.0,96.0
1124,54.0,0,512,3.0,96.0
1125,71.0,512,256,4.0,96.0
1126,74.0,0,1024,7.0,96.0
1127,69.0,0,512,1.0,96.0
1128,74.0,0,1024,0.0,96.0
1129,42.0,0,1024,4.0,96.0
1130,69.0,256,256,4.0,96.0
1131,57.0,0,1024,6.0,96.0
1132,50.0,0,512,3.0,96.0
1133,57.0,0,1024,2.0,96.0
1134,74.0,0,512,4.0,96.0
1135,69.0,0,512,1.0,96.0
1136,59.0,0,512,6.0,96.0
1137,59.0,0,512,2.0,96.0
1138,55.0,0,512,3.0,96.0
1139,69.0,256,1536,5.0,96.0
1140,55.0,256,256,4.0,96.0
1141,67.0,0,256,1.0,96.0
1142,61.0,0,256,6.0,96.0
1143,67.0,256,256,5.0,96.0
1144,61.0,0,256,2.0,96.0
1145,57.0,0,256,4.0,96.0
1146,62.0,0,256,2.0,96.0
1147,62.0,0,256,6.0,96.0
1148,66.0,256,256,1.0,96.0
1149,66.0,0,256,5.0,96.0
1150,71.0,0,1024,0.0,96.0
1151,59.0,0,256,4.0,96.0
1152,52.0,0,512,3.0,96.0
1153,71.0,0,0,7.0,96.0
1154,64.0,0,512,2.0,96.0
1155,49.0,0,512,4.0,96.0
1156,79.0,0,1024,4.0,96.0
1157,67.0,0,0,1.0,96.0
1158,78.0,512,256,4.0,96.0
1159,67.0,0,1024,5.0,96.0
1160,64.0,0,1024,6.0,96.0
1161,49.0,0,1024,3.0,96.0
1162,64.0,0,512,2.0,96.0
1163,71.0,0,1024,0.0,96.0
1164,76.0,256,256,4.0,96.0
1165,57.0,0,512,6.0,96.0
1166,78.0,0,512,4.0,96.0
1167,48.0,256,256,4.0,96.0
1168,50.0,0,256,4.0,96.0
1169,52.0,256,256,4.0,96.0
1170,62.0,256,0,5.0,96.0
1171,79.0,0,512,4.0,96.0
1172,66.0,0,1024,1.0,96.0
1173,55.0,256,512,6.0,96.0
1174,69.0,0,1024,0.0,96.0
1175,50.0,0,1024,3.0,96.0
1176,69.0,256,1024,7.0,96.0
1177,57.0,0,1024,2.0,96.0
1178,81.0,0,512,4.0,96.0
1179,54.0,0,512,6.0,96.0
1180,72.0,0,1024,7.0,96.0
1181,42.0,0,1024,4.0,96.0
1182,66.0,0,512,6.0,96.0
1183,68.0,0,512,6.0,96.0
1184,56.0,256,256,4.0,96.0
1185,74.0,512,1024,4.0,96.0
1186,64.0,512,512,5.0,96.0
1187,57.0,0,256,4.0,96.0
1188,71.0,0,1024,7.0,96.0
1189,59.0,256,256,4.0,96.0
1190,68.0,0,512,5.0,96.0
1191,64.0,256,512,6.0,96.0
1192,69.0,0,512,5.0,96.0
1193,60.0,256,512,6.0,96.0
1194,76.0,0,1024,4.0,96.0
1195,62.0,0,512,6.0,96.0
1196,69.0,0,1024,7.0,96.0
1197,48.0,0,1024,4.0,96.0
1198,72.0,512,512,5.0,96.0
1199,52.0,256,256,4.0,96.0
1200,64.0,512,512,6.0,96.0
1201,77.0,0,1024,4.0,96.0
1202,54.0,256,256,4.0,96.0
1203,71.0,0,1024,5.0,96.0
1204,67.0,0,1024,7.0,96.0
1205,55.0,256,256,4.0,96.0
1206,59.0,0,512,6.0,96.0
1207,76.0,0,1024,4.0,96.0
1208,60.0,0,512,6.0,96.0
1209,72.0,0,1024,0.0,96.0
1210,69.0,0,1024,5.0,96.0
1211,45.0,0,1024,4.0,96.0
1212,78.0,512,512,4.0,96.0
1213,69.0,0,1024,1.0,96.0
1214,57.0,256,1024,3.0,96.0
1215,64.0,0,1024,2.0,96.0
1216,62.0,0,512,6.0,96.0
1217,72.0,0,1024,7.0,96.0
1218,67.0,0,512,1.0,96.0
1219,52.0,512,512,3.0,96.0
1220,67.0,0,512,5.0,96.0
1221,48.0,256,256,4.0,96.0
1222,50.0,0,256,4.0,96.0
1223,64.0,0,512,5.0,96.0
1224,64.0,256,512,1.0,96.0
1225,52.0,256,256,4.0,96.0
1226,71.0,0,1024,0.0,96.0
1227,71.0,0,1024,7.0,96.0
1228,48.0,0,512,3.0,96.0
1229,64.0,0,1536,2.0,96.0
1230,60.0,0,512,5.0,96.0
1231,79.0,0,1536,4.0,96.0
1232,60.0,0,512,1.0,96.0
1233,64.0,0,1536,6.0,96.0
1234,62.0,0,512,2.0,96.0
1235,69.0,256,1024,0.0,96.0
1236,62.0,512,512,1.0,96.0
1237,62.0,0,512,6.0,96.0
1238,69.0,0,1024,7.0,96.0
1239,53.0,0,1024,3.0,96.0
1240,41.0,0,1024,4.0,96.0
1241,67.0,0,512,2.0,96.0
1242,47.0,0,512,3.0,96.0
1243,67.0,512,512,6.0,96.0
1244,62.0,0,1024,5.0,96.0
1245,62.0,0,512,1.0,96.0
1246,77.0,0,1024,4.0,96.0
1247,43.0,256,256,4.0,96.0
1248,76.0,0,256,4.0,96.0
1249,45.0,0,256,4.0,96.0
1250,59.0,0,512,6.0,96.0
1251,74.0,0,256,4.0,96.0
1252,47.0,256,256,4.0,96.0
1253,67.0,0,1024,7.0,96.0
1254,59.0,256,512,2.0,96.0
1255,43.0,0,512,3.0,96.0
1256,67.0,0,1024,0.0,96.0
1257,60.0,0,512,6.0,96.0
1258,67.0,0,1024,5.0,96.0
1259,60.0,0,512,2.0,96.0
1260,77.0,256,512,4.0,96.0
1261,67.0,0,1024,1.0,96.0
1262,65.0,0,512,1.0,96.0
1263,64.0,0,1024,7.0,96.0
1264,64.0,0,1024,0.0,96.0
1265,48.0,0,1024,3.0,96.0
1266,62.0,512,512,6.0,96.0
1267,36.0,0,1024,4.0,96.0
1268,65.0,0,512,5.0,96.0
1269,62.0,0,512,2.0,96.0
1270,57.0,256,256,4.0,96.0
1271,82.0,0,1024,4.0,96.0
1272,59.0,0,256,4.0,96.0
1273,67.0,0,1024,0.0,96.0
1274,64.0,0,1024,2.0,96.0
1275,64.0,0,1024,6.0,96.0
1276,67.0,0,1024,7.0,96.0
1277,64.0,512,1024,1.0,96.0
1278,61.0,256,256,4.0,96.0
1279,64.0,0,1024,5.0,96.0
1280,49.0,0,1024,3.0,96.0
1281,81.0,256,1024,4.0,96.0
1282,57.0,0,1024,6.0,96.0
1283,65.0,0,1024,7.0,96.0
1284,65.0,0,1024,0.0,96.0
1285,57.0,256,1024,2.0,96.0
1286,65.0,0,1024,5.0,96.0
1287,83.0,512,512,4.0,96.0
1288,50.0,0,1024,4.0,96.0
1289,65.0,0,1024,1.0,96.0
1290,59.0,0,512,6.0,96.0
1291,59.0,256,0,1.0,96.0
1292,80.0,0,512,4.0,96.0
1293,50.0,0,1536,3.0,96.0
1294,56.0,256,256,4.0,96.0
1295,59.0,512,512,2.0,96.0
1296,57.0,0,256,4.0,96.0
1297,59.0,256,256,4.0,96.0
1298,56.0,0,512,2.0,96.0
1299,62.0,0,512,3.0,96.0
1300,56.0,0,512,6.0,96.0
1301,59.0,0,1024,5.0,96.0
1302,76.0,0,1024,4.0,96.0
1303,60.0,0,512,3.0,96.0
1304,60.0,0,512,1.0,96.0
1305,57.0,0,512,2.0,96.0
1306,57.0,0,512,6.0,96.0
1307,60.0,0,512,5.0,96.0
1308,48.0,256,1024,4.0,96.0
1309,59.0,0,512,2.0,96.0
1310,62.0,0,512,5.0,96.0
1311,59.0,0,512,6.0,96.0
1312,62.0,0,512,1.0,96.0
1313,74.0,0,512,4.0,96.0
1314,59.0,512,512,3.0,96.0
1315,60.0,0,512,6.0,96.0
1316,64.0,0,512,5.0,96.0
1317,64.0,0,512,1.0,96.0
1318,60.0,0,512,2.0,96.0
1319,50.0,256,256,4.0,96.0
1320,52.0,0,256,4.0,96.0
1321,59.0,0,256,2.0,96.0
1322,57.0,256,512,6.0,96.0
1323,57.0,0,1024,3.0,96.0
1324,57.0,0,256,2.0,96.0
1325,53.0,256,256,4.0,96.0
1326,72.0,512,1024,4.0,96.0
1327,64.0,0,1024,5.0,96.0
1328,71.0,0,512,4.0,96.0
1329,64.0,0,1024,1.0,96.0
1330,62.0,0,512,5.0,96.0
1331,62.0,0,512,1.0,96.0
1332,56.0,0,1024,3.0,96.0
1333,44.0,0,1024,4.0,96.0
1334,60.0,512,512,5.0,96.0
1335,64.0,256,1536,2.0,96.0
1336,83.0,512,1024,4.0,96.0
1337,64.0,0,1536,6.0,96.0
1338,60.0,0,512,1.0,96.0
1339,56.0,256,256,4.0,96.0
1340,57.0,0,256,4.0,96.0
1341,59.0,256,512,1.0,96.0
1342,80.0,0,512,4.0,96.0
1343,57.0,0,1024,3.0,96.0
1344,64.0,0,512,6.0,96.0
1345,64.0,0,512,2.0,96.0
1346,59.0,0,512,5.0,96.0
1347,59.0,256,256,4.0,96.0
1348,48.0,0,256,4.0,96.0
1349,60.0,0,512,2.0,96.0
1350,45.0,256,256,4.0,96.0
1351,60.0,0,512,5.0,96.0
1352,60.0,256,512,6.0,96.0
1353,60.0,0,512,1.0,96.0
1354,47.0,0,256,4.0,96.0
1355,62.0,0,512,1.0,96.0
1356,57.0,0,512,6.0,96.0
1357,45.0,0,1024,3.0,96.0
1358,48.0,256,256,4.0,96.0
1359,62.0,256,512,5.0,96.0
1360,57.0,0,512,2.0,96.0
1361,81.0,0,2048,4.0,96.0
1362,80.0,1024,512,4.0,96.0
1363,64.0,0,2048,1.0,96.0
1364,78.0,512,512,4.0,96.0
1365,59.0,0,0,2.0,96.0
1366,64.0,512,2048,1.0,96.0
1367,52.0,0,4096,3.0,96.0
1368,59.0,256,4096,6.0,96.0
1369,64.0,0,10240,7.0,96.0
1370,64.0,0,4096,5.0,96.0
1371,40.0,0,4096,4.0,96.0
1372,80.0,0,2048,4.0,96.0
1373,64.0,0,10240,0.0,96.0
