,note,step,duration,channel,velocity
0,67.0,512,512,5.0,96.0
1,43.0,0,1536,4.0,96.0
2,69.0,512,512,5.0,96.0
3,71.0,0,512,5.0,96.0
4,74.0,512,512,5.0,96.0
5,67.0,0,1024,6.0,96.0
6,66.0,512,512,6.0,96.0
7,55.0,512,1536,4.0,96.0
8,62.0,0,1536,7.0,96.0
9,72.0,0,512,5.0,96.0
10,72.0,0,512,5.0,96.0
11,76.0,512,512,5.0,96.0
12,67.0,512,1024,6.0,96.0
13,64.0,0,1536,7.0,96.0
14,69.0,512,512,6.0,96.0
15,52.0,0,1536,4.0,96.0
16,74.0,0,0,5.0,96.0
17,71.0,0,1024,6.0,96.0
18,79.0,512,512,5.0,96.0
19,78.0,512,512,5.0,96.0
20,67.0,512,1536,7.0,96.0
21,47.0,0,1536,4.0,96.0
22,69.0,0,512,6.0,96.0
23,79.0,0,512,5.0,96.0
24,71.0,0,1024,6.0,96.0
25,74.0,512,512,5.0,96.0
26,67.0,0,512,6.0,96.0
27,71.0,512,512,5.0,96.0
28,52.0,0,1536,4.0,96.0
29,64.0,512,1536,7.0,96.0
30,67.0,512,512,5.0,96.0
31,64.0,0,1024,6.0,96.0
32,69.0,512,512,5.0,96.0
33,62.0,512,512,6.0,96.0
34,40.0,0,1536,4.0,96.0
35,71.0,0,512,5.0,96.0
36,59.0,0,1536,7.0,96.0
37,72.0,0,512,5.0,96.0
38,74.0,512,512,5.0,96.0
39,64.0,512,1024,6.0,96.0
40,45.0,0,1536,4.0,96.0
41,76.0,512,512,5.0,96.0
42,57.0,0,1536,7.0,96.0
43,66.0,0,512,6.0,96.0
44,74.0,0,512,5.0,96.0
45,67.0,0,1024,6.0,96.0
46,72.0,512,512,5.0,96.0
47,62.0,0,1536,7.0,96.0
48,47.0,512,1536,4.0,96.0
49,62.0,512,512,6.0,96.0
50,71.0,0,512,5.0,96.0
51,69.0,0,512,5.0,96.0
52,64.0,0,1024,6.0,96.0
53,71.0,512,512,5.0,96.0
54,48.0,0,1536,4.0,96.0
55,59.0,0,512,6.0,96.0
56,67.0,512,512,5.0,96.0
57,66.0,0,512,5.0,96.0
58,67.0,512,512,5.0,96.0
59,57.0,0,1024,6.0,96.0
60,62.0,0,512,6.0,96.0
61,69.0,512,512,5.0,96.0
62,50.0,512,1536,4.0,96.0
63,60.0,512,3072,7.0,96.0
64,62.0,512,512,5.0,96.0
65,66.0,512,512,5.0,96.0
66,69.0,0,1024,6.0,96.0
67,67.0,512,512,6.0,96.0
68,57.0,0,1536,7.0,96.0
69,54.0,0,1536,4.0,96.0
70,69.0,0,512,5.0,96.0
71,72.0,0,512,5.0,96.0
72,71.0,512,512,5.0,96.0
73,69.0,0,1024,6.0,96.0
74,66.0,512,512,6.0,96.0
75,69.0,0,512,5.0,96.0
76,50.0,512,1536,4.0,96.0
77,66.0,0,1536,7.0,96.0
78,71.0,0,512,5.0,96.0
79,62.0,512,1024,6.0,96.0
80,67.0,512,512,5.0,96.0
81,69.0,0,512,5.0,96.0
82,67.0,0,1536,7.0,96.0
83,66.0,512,512,6.0,96.0
84,55.0,0,1536,4.0,96.0
85,71.0,512,512,5.0,96.0
86,67.0,0,1024,6.0,96.0
87,74.0,512,512,5.0,96.0
88,55.0,0,1536,7.0,96.0
89,72.0,0,0,5.0,96.0
90,52.0,0,1536,4.0,96.0
91,66.0,512,512,6.0,96.0
92,67.0,512,1024,6.0,96.0
93,76.0,512,512,5.0,96.0
94,69.0,512,512,6.0,96.0
95,64.0,0,1536,7.0,96.0
96,48.0,0,1536,4.0,96.0
97,74.0,0,0,5.0,96.0
98,79.0,512,512,5.0,96.0
99,71.0,512,1024,6.0,96.0
100,69.0,512,512,6.0,96.0
101,67.0,0,1536,7.0,96.0
102,47.0,0,1536,4.0,96.0
103,78.0,0,512,5.0,96.0
104,79.0,512,512,5.0,96.0
105,74.0,512,512,5.0,96.0
106,71.0,0,1024,6.0,96.0
107,71.0,512,512,5.0,96.0
108,67.0,0,512,6.0,96.0
109,52.0,0,1536,4.0,96.0
110,64.0,0,1536,7.0,96.0
111,67.0,512,512,5.0,96.0
112,69.0,512,512,5.0,96.0
113,64.0,0,1024,6.0,96.0
114,67.0,0,512,6.0,96.0
115,50.0,0,1536,4.0,96.0
116,71.0,512,512,5.0,96.0
117,59.0,0,1536,7.0,96.0
118,64.0,512,512,5.0,96.0
119,69.0,0,1024,6.0,96.0
120,74.0,512,512,5.0,96.0
121,60.0,0,1536,7.0,96.0
122,48.0,0,1536,4.0,96.0
123,66.0,512,512,6.0,96.0
124,72.0,0,512,5.0,96.0
125,71.0,0,512,5.0,96.0
126,69.0,512,512,5.0,96.0
127,67.0,0,1024,6.0,96.0
128,49.0,0,1536,4.0,96.0
129,64.0,512,512,6.0,96.0
130,67.0,0,512,5.0,96.0
131,64.0,512,1536,7.0,96.0
132,62.0,0,512,5.0,96.0
133,57.0,512,1024,6.0,96.0
134,67.0,512,512,5.0,96.0
135,50.0,0,1536,4.0,96.0
136,62.0,0,1536,7.0,96.0
137,60.0,0,512,6.0,96.0
138,66.0,512,512,5.0,96.0
139,67.0,0,512,5.0,96.0
140,59.0,0,1024,6.0,96.0
141,71.0,512,512,5.0,96.0
142,74.0,512,512,5.0,96.0
143,67.0,0,512,6.0,96.0
144,43.0,512,1536,4.0,96.0
145,62.0,0,1536,7.0,96.0
146,79.0,512,512,5.0,96.0
147,71.0,0,1024,6.0,96.0
148,74.0,512,512,5.0,96.0
149,74.0,512,512,6.0,96.0
150,55.0,0,512,4.0,96.0
151,71.0,0,512,5.0,96.0
152,62.0,0,512,7.0,96.0
153,67.0,0,512,5.0,96.0
154,59.0,512,1024,7.0,96.0
155,71.0,512,512,5.0,96.0
156,79.0,0,1024,6.0,96.0
157,50.0,0,1024,4.0,96.0
158,67.0,0,512,7.0,96.0
159,74.0,0,512,5.0,96.0
160,47.0,0,512,4.0,96.0
161,74.0,512,512,6.0,96.0
162,55.0,0,1536,3.0,96.0
163,62.0,0,1536,7.0,96.0
164,71.0,0,1536,6.0,96.0
165,79.0,0,1536,5.0,96.0
166,43.0,0,1536,4.0,96.0
167,62.0,0,3072,2.0,96.0
168,71.0,512,3072,0.0,96.0
169,67.0,0,0,1.0,96.0
170,54.0,1536,1536,3.0,96.0
171,54.0,0,1536,4.0,96.0
172,52.0,0,1536,4.0,96.0
173,72.0,0,1536,0.0,96.0
174,64.0,1536,1536,2.0,96.0
175,52.0,0,1536,3.0,96.0
176,54.0,0,1536,4.0,96.0
177,54.0,0,1536,3.0,96.0
178,69.0,0,1536,1.0,96.0
179,74.0,1536,3072,0.0,96.0
180,52.0,0,1536,3.0,96.0
181,57.0,0,3072,2.0,96.0
182,52.0,1536,1536,4.0,96.0
183,67.0,0,1536,1.0,96.0
184,50.0,0,1536,3.0,96.0
185,59.0,1536,0,2.0,96.0
186,50.0,0,1536,4.0,96.0
187,74.0,0,1536,0.0,96.0
188,66.0,1536,1536,1.0,96.0
189,52.0,0,1536,3.0,96.0
190,52.0,0,1536,4.0,96.0
191,67.0,0,1536,1.0,96.0
192,57.0,0,1536,2.0,96.0
193,72.0,0,3072,0.0,96.0
194,54.0,1536,1536,3.0,96.0
195,54.0,0,1536,4.0,96.0
196,71.0,0,1536,0.0,96.0
197,55.0,0,1536,3.0,96.0
198,62.0,0,3072,1.0,96.0
199,55.0,0,1536,4.0,96.0
200,55.0,1536,1536,2.0,96.0
201,62.0,512,512,5.0,96.0
202,69.0,512,0,0.0,96.0
203,50.0,0,0,3.0,96.0
204,50.0,0,1536,4.0,96.0
205,54.0,0,1536,2.0,96.0
206,64.0,512,512,5.0,96.0
207,62.0,0,0,1.0,96.0
208,66.0,0,512,5.0,96.0
209,62.0,0,1024,6.0,96.0
210,69.0,512,512,5.0,96.0
211,57.0,0,0,7.0,96.0
212,64.0,0,512,6.0,96.0
213,57.0,0,1536,2.0,96.0
214,67.0,0,512,5.0,96.0
215,50.0,512,512,4.0,96.0
216,69.0,512,512,5.0,96.0
217,66.0,0,1024,6.0,96.0
218,72.0,512,512,5.0,96.0
219,50.0,0,1024,4.0,96.0
220,62.0,0,1024,7.0,96.0
221,50.0,0,512,4.0,96.0
222,62.0,0,512,7.0,96.0
223,71.0,0,512,5.0,96.0
224,67.0,512,512,6.0,96.0
225,72.0,0,512,5.0,96.0
226,69.0,512,512,5.0,96.0
227,69.0,512,1024,6.0,96.0
228,66.0,0,1024,7.0,96.0
229,69.0,0,512,7.0,96.0
230,38.0,0,1536,4.0,96.0
231,72.0,512,512,6.0,96.0
232,66.0,0,512,5.0,96.0
233,62.0,0,512,5.0,96.0
234,69.0,0,1024,6.0,96.0
235,66.0,512,1024,7.0,96.0
236,66.0,512,512,5.0,96.0
237,69.0,0,512,5.0,96.0
238,62.0,0,512,7.0,96.0
239,66.0,512,512,6.0,96.0
240,50.0,0,512,4.0,96.0
241,72.0,512,512,5.0,96.0
242,50.0,0,1024,4.0,96.0
243,62.0,0,1024,6.0,96.0
244,57.0,0,1024,7.0,96.0
245,71.0,512,512,5.0,96.0
246,62.0,0,0,7.0,96.0
247,69.0,0,512,5.0,96.0
248,50.0,0,512,4.0,96.0
249,66.0,0,512,6.0,96.0
250,71.0,0,512,5.0,96.0
251,67.0,512,512,5.0,96.0
252,67.0,0,1024,6.0,96.0
253,62.0,512,512,6.0,96.0
254,55.0,0,1536,4.0,96.0
255,55.0,0,1536,3.0,96.0
256,62.0,0,0,7.0,96.0
257,69.0,0,512,5.0,96.0
258,71.0,0,512,5.0,96.0
259,67.0,0,1024,6.0,96.0
260,74.0,512,512,5.0,96.0
261,54.0,0,1536,4.0,96.0
262,67.0,512,3072,1.0,96.0
263,62.0,0,3072,2.0,96.0
264,66.0,512,512,6.0,96.0
265,54.0,512,1536,3.0,96.0
266,72.0,0,512,5.0,96.0
267,71.0,0,3072,0.0,96.0
268,72.0,0,512,5.0,96.0
269,67.0,0,1024,6.0,96.0
270,76.0,512,512,5.0,96.0
271,52.0,0,1536,3.0,96.0
272,74.0,0,0,5.0,96.0
273,69.0,0,512,6.0,96.0
274,72.0,0,1536,0.0,96.0
275,64.0,0,1536,2.0,96.0
276,64.0,0,1536,7.0,96.0
277,67.0,0,0,1.0,96.0
278,52.0,512,1536,4.0,96.0
279,71.0,0,1024,6.0,96.0
280,79.0,512,512,5.0,96.0
281,59.0,0,1536,3.0,96.0
282,69.0,512,512,6.0,96.0
283,62.0,512,1536,2.0,96.0
284,67.0,0,1536,7.0,96.0
285,78.0,0,512,5.0,96.0
286,59.0,0,1536,4.0,96.0
287,79.0,0,512,5.0,96.0
288,67.0,0,1024,6.0,96.0
289,74.0,512,512,5.0,96.0
290,59.0,0,1536,2.0,96.0
291,66.0,512,512,6.0,96.0
292,47.0,512,1536,4.0,96.0
293,74.0,0,3072,0.0,96.0
294,47.0,0,1536,3.0,96.0
295,62.0,0,1536,7.0,96.0
296,62.0,0,1536,1.0,96.0
297,71.0,0,512,5.0,96.0
298,67.0,0,512,5.0,96.0
299,69.0,512,512,5.0,96.0
300,64.0,512,1024,6.0,96.0
301,52.0,0,1536,3.0,96.0
302,59.0,0,1536,7.0,96.0
303,71.0,0,1536,0.0,96.0
304,71.0,0,512,5.0,96.0
305,52.0,0,1536,4.0,96.0
306,59.0,0,1536,2.0,96.0
307,67.0,512,512,6.0,96.0
308,64.0,0,0,1.0,96.0
309,64.0,512,512,5.0,96.0
310,69.0,0,768,0.0,96.0
311,60.0,0,768,2.0,96.0
312,60.0,0,768,7.0,96.0
313,69.0,0,1024,6.0,96.0
314,74.0,512,512,5.0,96.0
315,71.0,256,384,0.0,96.0
316,57.0,0,768,2.0,96.0
317,48.0,0,1536,3.0,96.0
318,67.0,256,512,6.0,96.0
319,57.0,0,768,7.0,96.0
320,72.0,128,384,0.0,96.0
321,48.0,0,1536,4.0,96.0
322,72.0,0,512,5.0,96.0
323,71.0,0,512,5.0,96.0
324,62.0,0,768,2.0,96.0
325,66.0,0,768,1.0,96.0
326,62.0,0,768,7.0,96.0
327,69.0,512,512,5.0,96.0
328,66.0,384,1024,6.0,96.0
329,64.0,0,768,1.0,96.0
330,59.0,0,768,2.0,96.0
331,67.0,256,512,5.0,96.0
332,50.0,0,1536,3.0,96.0
333,59.0,256,768,7.0,96.0
334,50.0,0,1536,4.0,96.0
335,67.0,0,512,6.0,96.0
336,71.0,0,1536,0.0,96.0
337,62.0,512,512,5.0,96.0
338,60.0,0,768,7.0,96.0
339,67.0,512,512,5.0,96.0
340,69.0,0,1024,6.0,96.0
341,69.0,0,1536,0.0,96.0
342,66.0,0,1536,1.0,96.0
343,60.0,0,1536,2.0,96.0
344,50.0,0,1536,3.0,96.0
345,57.0,256,768,7.0,96.0
346,66.0,256,512,5.0,96.0
347,60.0,0,512,6.0,96.0
348,38.0,0,1536,4.0,96.0
349,67.0,0,512,5.0,96.0
350,59.0,0,1024,6.0,96.0
351,71.0,512,512,5.0,96.0
352,59.0,0,1536,7.0,96.0
353,69.0,0,512,5.0,96.0
354,62.0,512,512,6.0,96.0
355,43.0,0,1536,4.0,96.0
356,71.0,0,512,5.0,96.0
357,74.0,512,512,5.0,96.0
358,67.0,0,1024,6.0,96.0
359,66.0,512,512,6.0,96.0
360,62.0,0,3072,1.0,96.0
361,67.0,0,3072,0.0,96.0
362,72.0,0,0,5.0,96.0
363,59.0,0,3072,2.0,96.0
364,55.0,0,1536,4.0,96.0
365,62.0,512,1536,7.0,96.0
366,43.0,512,3072,3.0,96.0
367,67.0,512,1024,6.0,96.0
368,76.0,512,512,5.0,96.0
369,64.0,0,1536,7.0,96.0
370,74.0,0,512,5.0,96.0
371,69.0,512,512,6.0,96.0
372,52.0,0,1536,4.0,96.0
373,74.0,0,512,5.0,96.0
374,71.0,512,1024,6.0,96.0
375,79.0,512,512,5.0,96.0
376,78.0,512,512,5.0,96.0
377,69.0,0,512,6.0,96.0
378,47.0,0,1536,4.0,96.0
379,67.0,0,1536,7.0,96.0
380,79.0,512,512,5.0,96.0
381,74.0,512,512,5.0,96.0
382,71.0,0,1024,6.0,96.0
383,64.0,0,1536,7.0,96.0
384,52.0,0,1536,4.0,96.0
385,71.0,0,512,5.0,96.0
386,67.0,512,512,6.0,96.0
387,67.0,0,512,5.0,96.0
388,69.0,512,512,5.0,96.0
389,64.0,0,1024,6.0,96.0
390,62.0,512,512,6.0,96.0
391,71.0,0,512,5.0,96.0
392,59.0,512,1536,7.0,96.0
393,40.0,0,1536,4.0,96.0
394,72.0,0,512,5.0,96.0
395,74.0,512,512,5.0,96.0
396,64.0,0,1024,6.0,96.0
397,76.0,512,512,5.0,96.0
398,57.0,0,1536,7.0,96.0
399,45.0,512,1536,4.0,96.0
400,66.0,0,512,6.0,96.0
401,74.0,512,512,5.0,96.0
402,67.0,0,1024,6.0,96.0
403,72.0,512,512,5.0,96.0
404,62.0,0,512,6.0,96.0
405,62.0,0,1536,7.0,96.0
406,47.0,0,1536,4.0,96.0
407,71.0,512,512,5.0,96.0
408,69.0,0,512,5.0,96.0
409,64.0,512,1024,6.0,96.0
410,71.0,512,512,5.0,96.0
411,67.0,512,512,5.0,96.0
412,59.0,0,512,6.0,96.0
413,48.0,0,1536,4.0,96.0
414,66.0,512,512,5.0,96.0
415,57.0,0,1024,6.0,96.0
416,67.0,512,512,5.0,96.0
417,62.0,512,512,6.0,96.0
418,69.0,0,512,5.0,96.0
419,50.0,0,1536,4.0,96.0
420,60.0,0,3072,7.0,96.0
421,62.0,0,512,5.0,96.0
422,69.0,512,1024,6.0,96.0
423,66.0,512,512,5.0,96.0
424,67.0,0,512,6.0,96.0
425,57.0,0,1536,7.0,96.0
426,54.0,0,1536,4.0,96.0
427,69.0,512,512,5.0,96.0
428,72.0,0,512,5.0,96.0
429,69.0,0,1024,6.0,96.0
430,71.0,512,512,5.0,96.0
431,50.0,512,1536,4.0,96.0
432,66.0,512,512,6.0,96.0
433,69.0,0,512,5.0,96.0
434,66.0,0,1536,7.0,96.0
435,71.0,0,512,5.0,96.0
436,67.0,512,512,5.0,96.0
437,62.0,512,1024,6.0,96.0
438,69.0,512,512,5.0,96.0
439,55.0,0,1536,4.0,96.0
440,66.0,0,512,6.0,96.0
441,67.0,0,1536,7.0,96.0
442,71.0,512,512,5.0,96.0
443,74.0,512,512,5.0,96.0
444,67.0,0,1024,6.0,96.0
445,55.0,0,1536,7.0,96.0
446,66.0,0,512,6.0,96.0
447,72.0,512,512,5.0,96.0
448,52.0,0,1536,4.0,96.0
449,72.0,0,512,5.0,96.0
450,76.0,512,512,5.0,96.0
451,67.0,0,1024,6.0,96.0
452,64.0,0,1536,7.0,96.0
453,48.0,512,1536,4.0,96.0
454,74.0,512,512,5.0,96.0
455,69.0,0,512,6.0,96.0
456,74.0,0,512,5.0,96.0
457,71.0,0,1024,6.0,96.0
458,79.0,512,512,5.0,96.0
459,78.0,512,512,5.0,96.0
460,47.0,0,1536,4.0,96.0
461,67.0,512,1536,7.0,96.0
462,69.0,0,512,6.0,96.0
463,79.0,0,512,5.0,96.0
464,74.0,512,512,5.0,96.0
465,71.0,0,1024,6.0,96.0
466,71.0,512,512,5.0,96.0
467,67.0,0,512,6.0,96.0
468,52.0,512,1536,4.0,96.0
469,64.0,0,1536,7.0,96.0
470,67.0,512,512,5.0,96.0
471,69.0,512,512,5.0,96.0
472,64.0,0,1024,6.0,96.0
473,71.0,512,512,5.0,96.0
474,67.0,0,512,6.0,96.0
475,59.0,0,1536,7.0,96.0
476,50.0,0,1536,4.0,96.0
477,64.0,0,512,5.0,96.0
478,69.0,0,1024,6.0,96.0
479,74.0,512,512,5.0,96.0
480,72.0,512,512,5.0,96.0
481,60.0,0,1536,7.0,96.0
482,66.0,0,512,6.0,96.0
483,48.0,512,1536,4.0,96.0
484,71.0,512,512,5.0,96.0
485,69.0,512,512,5.0,96.0
486,67.0,0,1024,6.0,96.0
487,49.0,0,1536,4.0,96.0
488,64.0,0,512,6.0,96.0
489,67.0,512,512,5.0,96.0
490,64.0,0,1536,7.0,96.0
491,62.0,0,512,5.0,96.0
492,57.0,512,1024,6.0,96.0
493,67.0,512,512,5.0,96.0
494,62.0,512,0,7.0,96.0
495,66.0,0,512,5.0,96.0
496,60.0,512,512,6.0,96.0
497,50.0,0,1536,4.0,96.0
498,67.0,0,1536,5.0,96.0
499,43.0,0,1536,4.0,96.0
500,55.0,0,1536,3.0,96.0
501,59.0,0,1536,6.0,96.0
502,67.0,1536,0,1.0,96.0
503,71.0,0,3072,0.0,96.0
504,54.0,1536,1536,3.0,96.0
505,62.0,0,3072,2.0,96.0
506,54.0,0,1536,4.0,96.0
507,72.0,0,1536,0.0,96.0
508,64.0,0,1536,2.0,96.0
509,52.0,0,1536,4.0,96.0
510,52.0,0,1536,3.0,96.0
511,69.0,0,1536,1.0,96.0
512,54.0,0,1536,3.0,96.0
513,54.0,0,1536,4.0,96.0
514,67.0,0,1536,1.0,96.0
515,52.0,1536,1536,3.0,96.0
516,52.0,0,1536,4.0,96.0
517,74.0,0,0,0.0,96.0
518,57.0,1536,3072,2.0,96.0
519,66.0,0,1536,1.0,96.0
520,59.0,0,0,2.0,96.0
521,50.0,0,1536,3.0,96.0
522,50.0,1536,1536,4.0,96.0
523,52.0,0,1536,3.0,96.0
524,67.0,1536,1536,1.0,96.0
525,52.0,0,1536,4.0,96.0
526,57.0,0,1536,2.0,96.0
527,54.0,0,1536,4.0,96.0
528,72.0,0,3072,0.0,96.0
529,54.0,1536,1536,3.0,96.0
530,55.0,0,1536,3.0,96.0
531,62.0,0,0,1.0,96.0
532,55.0,0,1536,4.0,96.0
533,71.0,0,1536,0.0,96.0
534,55.0,1536,1536,2.0,96.0
535,62.0,512,512,5.0,96.0
536,54.0,0,1536,2.0,96.0
537,50.0,0,1536,3.0,96.0
538,50.0,1536,1536,4.0,96.0
539,64.0,512,512,5.0,96.0
540,69.0,0,1536,0.0,96.0
541,62.0,0,0,1.0,96.0
542,66.0,0,512,5.0,96.0
543,69.0,512,512,5.0,96.0
544,57.0,0,1024,7.0,96.0
545,62.0,0,1024,6.0,96.0
546,64.0,0,512,6.0,96.0
547,50.0,0,0,4.0,96.0
548,50.0,0,1536,3.0,96.0
549,69.0,0,1536,0.0,96.0
550,57.0,0,512,7.0,96.0
551,57.0,512,1536,2.0,96.0
552,67.0,0,512,5.0,96.0
553,69.0,512,512,5.0,96.0
554,62.0,0,1024,7.0,96.0
555,72.0,512,512,5.0,96.0
556,66.0,0,1024,6.0,96.0
557,50.0,0,512,4.0,96.0
558,62.0,0,512,7.0,96.0
559,71.0,512,512,5.0,96.0
560,67.0,0,512,6.0,96.0
561,72.0,0,512,5.0,96.0
562,69.0,512,512,5.0,96.0
563,66.0,0,1024,7.0,96.0
564,69.0,512,1024,6.0,96.0
565,38.0,0,1536,4.0,96.0
566,69.0,0,512,7.0,96.0
567,66.0,512,512,5.0,96.0
568,72.0,0,512,6.0,96.0
569,62.0,0,512,5.0,96.0
570,66.0,512,1024,7.0,96.0
571,66.0,512,512,5.0,96.0
572,69.0,0,1024,6.0,96.0
573,66.0,0,512,6.0,96.0
574,50.0,0,512,4.0,96.0
575,62.0,512,512,7.0,96.0
576,69.0,0,512,5.0,96.0
577,72.0,0,512,5.0,96.0
578,50.0,0,1024,4.0,96.0
579,57.0,0,1024,7.0,96.0
580,71.0,512,512,5.0,96.0
581,62.0,512,1024,6.0,96.0
582,62.0,512,512,7.0,96.0
583,66.0,0,512,6.0,96.0
584,69.0,0,512,5.0,96.0
585,50.0,0,512,4.0,96.0
586,71.0,512,512,5.0,96.0
587,67.0,0,1024,6.0,96.0
588,67.0,512,512,5.0,96.0
589,62.0,0,1536,7.0,96.0
590,62.0,512,512,6.0,96.0
591,55.0,0,1536,3.0,96.0
592,69.0,0,512,5.0,96.0
593,55.0,0,1536,4.0,96.0
594,71.0,0,512,5.0,96.0
595,74.0,512,512,5.0,96.0
596,67.0,0,1024,6.0,96.0
597,62.0,0,3072,2.0,96.0
598,54.0,512,1536,3.0,96.0
599,62.0,0,1536,7.0,96.0
600,54.0,0,1536,4.0,96.0
601,71.0,0,3072,0.0,96.0
602,66.0,512,512,6.0,96.0
603,67.0,0,3072,1.0,96.0
604,72.0,0,0,5.0,96.0
605,76.0,512,512,5.0,96.0
606,67.0,0,1024,6.0,96.0
607,52.0,512,1536,3.0,96.0
608,64.0,0,1536,7.0,96.0
609,67.0,0,1536,1.0,96.0
610,69.0,512,512,6.0,96.0
611,74.0,0,512,5.0,96.0
612,72.0,0,1536,0.0,96.0
613,52.0,0,1536,4.0,96.0
614,64.0,0,1536,2.0,96.0
615,74.0,0,512,5.0,96.0
616,71.0,0,1024,6.0,96.0
617,79.0,512,512,5.0,96.0
618,59.0,0,1536,3.0,96.0
619,78.0,0,512,5.0,96.0
620,67.0,0,1536,1.0,96.0
621,67.0,512,1536,7.0,96.0
622,62.0,0,1536,2.0,96.0
623,59.0,0,1536,4.0,96.0
624,69.0,512,512,6.0,96.0
625,79.0,512,512,5.0,96.0
626,67.0,0,1024,6.0,96.0
627,74.0,512,512,5.0,96.0
628,47.0,0,1536,3.0,96.0
629,66.0,512,512,6.0,96.0
630,62.0,0,1536,1.0,96.0
631,62.0,0,1536,7.0,96.0
632,74.0,0,3072,0.0,96.0
633,59.0,0,0,2.0,96.0
634,47.0,0,1536,4.0,96.0
635,71.0,0,512,5.0,96.0
636,67.0,0,512,5.0,96.0
637,69.0,512,512,5.0,96.0
638,64.0,512,1024,6.0,96.0
639,67.0,0,512,6.0,96.0
640,64.0,0,1536,1.0,96.0
641,52.0,0,1536,3.0,96.0
642,71.0,512,512,5.0,96.0
643,59.0,0,1536,7.0,96.0
644,52.0,0,1536,4.0,96.0
645,71.0,0,1536,0.0,96.0
646,64.0,0,512,5.0,96.0
647,69.0,0,768,0.0,96.0
648,60.0,0,768,2.0,96.0
649,60.0,0,768,7.0,96.0
650,74.0,512,512,5.0,96.0
651,69.0,0,1024,6.0,96.0
652,71.0,0,384,0.0,96.0
653,72.0,256,512,5.0,96.0
654,72.0,128,384,0.0,96.0
655,48.0,0,1536,4.0,96.0
656,48.0,0,1536,3.0,96.0
657,57.0,256,768,2.0,96.0
658,67.0,0,512,6.0,96.0
659,57.0,0,768,7.0,96.0
660,64.0,512,1536,1.0,96.0
661,71.0,0,512,5.0,96.0
662,62.0,0,768,2.0,96.0
663,62.0,0,768,7.0,96.0
664,66.0,0,768,1.0,96.0
665,69.0,512,512,5.0,96.0
666,66.0,0,1024,6.0,96.0
667,59.0,0,768,2.0,96.0
668,50.0,0,1536,4.0,96.0
669,64.0,256,768,1.0,96.0
670,67.0,256,512,6.0,96.0
671,59.0,0,768,7.0,96.0
672,50.0,0,1536,3.0,96.0
673,67.0,0,512,5.0,96.0
674,71.0,384,1536,0.0,96.0
675,62.0,0,512,5.0,96.0
676,60.0,0,768,7.0,96.0
677,69.0,0,1024,6.0,96.0
678,67.0,512,512,5.0,96.0
679,60.0,256,512,6.0,96.0
680,66.0,0,1536,1.0,96.0
681,69.0,0,1536,0.0,96.0
682,38.0,0,1536,4.0,96.0
683,50.0,0,1536,3.0,96.0
684,66.0,0,512,5.0,96.0
685,60.0,512,1536,2.0,96.0
686,57.0,256,768,7.0,96.0
687,67.0,0,512,5.0,96.0
688,59.0,512,1024,6.0,96.0
689,71.0,512,512,5.0,96.0
690,59.0,0,1536,7.0,96.0
691,62.0,512,512,6.0,96.0
692,43.0,0,1536,4.0,96.0
693,69.0,0,512,5.0,96.0
694,71.0,0,512,5.0,96.0
695,74.0,512,512,5.0,96.0
696,67.0,512,1024,6.0,96.0
697,67.0,0,3072,0.0,96.0
698,43.0,0,3072,3.0,96.0
699,72.0,512,512,5.0,96.0
700,59.0,0,3072,2.0,96.0
701,55.0,0,1536,4.0,96.0
702,66.0,0,512,6.0,96.0
703,62.0,0,3072,1.0,96.0
704,62.0,0,1536,7.0,96.0
705,72.0,512,512,5.0,96.0
706,76.0,512,512,5.0,96.0
707,67.0,0,1024,6.0,96.0
708,64.0,0,1536,7.0,96.0
709,74.0,512,0,5.0,96.0
710,52.0,0,1536,4.0,96.0
711,69.0,0,512,6.0,96.0
712,71.0,0,1024,6.0,96.0
713,79.0,512,512,5.0,96.0
714,67.0,0,1536,7.0,96.0
715,78.0,0,512,5.0,96.0
716,69.0,512,512,6.0,96.0
717,47.0,0,1536,4.0,96.0
718,79.0,512,512,5.0,96.0
719,71.0,0,1024,6.0,96.0
720,74.0,512,512,5.0,96.0
721,71.0,0,512,5.0,96.0
722,64.0,0,1536,7.0,96.0
723,67.0,512,512,6.0,96.0
724,52.0,0,1536,4.0,96.0
725,67.0,0,512,5.0,96.0
726,64.0,0,1024,6.0,96.0
727,69.0,512,512,5.0,96.0
728,59.0,512,1536,7.0,96.0
729,71.0,0,512,5.0,96.0
730,40.0,0,1536,4.0,96.0
731,62.0,512,512,6.0,96.0
732,72.0,0,512,5.0,96.0
733,74.0,512,512,5.0,96.0
734,64.0,512,1024,6.0,96.0
735,76.0,512,512,5.0,96.0
736,66.0,0,512,6.0,96.0
737,57.0,0,1536,7.0,96.0
738,45.0,0,1536,4.0,96.0
739,74.0,512,512,5.0,96.0
740,67.0,0,1024,6.0,96.0
741,72.0,512,512,5.0,96.0
742,62.0,0,1536,7.0,96.0
743,47.0,0,1536,4.0,96.0
744,62.0,512,512,6.0,96.0
745,71.0,0,512,5.0,96.0
746,69.0,0,512,5.0,96.0
747,64.0,0,1024,6.0,96.0
748,71.0,512,512,5.0,96.0
749,59.0,0,512,6.0,96.0
750,48.0,0,1536,4.0,96.0
751,67.0,512,512,5.0,96.0
752,66.0,0,512,5.0,96.0
753,67.0,512,512,5.0,96.0
754,57.0,0,1024,6.0,96.0
755,60.0,512,3072,7.0,96.0
756,69.0,0,512,5.0,96.0
757,50.0,512,1536,4.0,96.0
758,62.0,512,512,6.0,96.0
759,67.0,512,512,6.0,96.0
760,62.0,0,512,5.0,96.0
761,66.0,0,512,5.0,96.0
762,67.0,512,1024,6.0,96.0
763,54.0,0,1536,4.0,96.0
764,57.0,0,1536,7.0,96.0
765,69.0,512,512,5.0,96.0
766,72.0,0,512,5.0,96.0
767,69.0,512,1024,6.0,96.0
768,71.0,512,512,5.0,96.0
769,66.0,0,1536,7.0,96.0
770,69.0,0,512,5.0,96.0
771,50.0,0,1536,4.0,96.0
772,66.0,512,512,6.0,96.0
773,71.0,512,512,5.0,96.0
774,67.0,512,512,5.0,96.0
775,62.0,0,1024,6.0,96.0
776,67.0,0,1536,7.0,96.0
777,69.0,512,512,5.0,96.0
778,66.0,0,512,6.0,96.0
779,55.0,0,1536,4.0,96.0
780,71.0,0,512,5.0,96.0
781,67.0,0,1024,6.0,96.0
782,74.0,512,512,5.0,96.0
783,52.0,0,1536,4.0,96.0
784,55.0,512,1536,7.0,96.0
785,72.0,0,512,5.0,96.0
786,66.0,512,512,6.0,96.0
787,72.0,0,512,5.0,96.0
788,67.0,0,1024,6.0,96.0
789,76.0,512,512,5.0,96.0
790,64.0,0,1536,7.0,96.0
791,48.0,512,1536,4.0,96.0
792,69.0,512,512,6.0,96.0
793,74.0,0,0,5.0,96.0
794,79.0,512,512,5.0,96.0
795,71.0,0,1024,6.0,96.0
796,69.0,0,512,6.0,96.0
797,78.0,512,512,5.0,96.0
798,67.0,512,1536,7.0,96.0
799,47.0,0,1536,4.0,96.0
800,79.0,0,512,5.0,96.0
801,74.0,512,512,5.0,96.0
802,71.0,0,1024,6.0,96.0
803,64.0,0,1536,7.0,96.0
804,52.0,512,1536,4.0,96.0
805,67.0,512,512,6.0,96.0
806,71.0,0,512,5.0,96.0
807,67.0,0,512,5.0,96.0
808,69.0,512,512,5.0,96.0
809,64.0,0,1024,6.0,96.0
810,71.0,0,512,5.0,96.0
811,67.0,512,512,6.0,96.0
812,50.0,0,1536,4.0,96.0
813,59.0,512,1536,7.0,96.0
814,64.0,512,512,5.0,96.0
815,74.0,512,512,5.0,96.0
816,69.0,0,1024,6.0,96.0
817,48.0,0,1536,4.0,96.0
818,60.0,0,1536,7.0,96.0
819,66.0,0,512,6.0,96.0
820,72.0,512,512,5.0,96.0
821,71.0,512,512,5.0,96.0
822,67.0,0,1024,6.0,96.0
823,69.0,512,512,5.0,96.0
824,49.0,0,1536,4.0,96.0
825,64.0,0,1536,7.0,96.0
826,64.0,0,512,6.0,96.0
827,67.0,512,512,5.0,96.0
828,62.0,0,512,5.0,96.0
829,67.0,512,512,5.0,96.0
830,57.0,0,1024,6.0,96.0
831,62.0,0,1536,7.0,96.0
832,66.0,0,512,5.0,96.0
833,50.0,512,1536,4.0,96.0
834,60.0,512,512,6.0,96.0
835,67.0,0,512,5.0,96.0
836,59.0,0,512,6.0,96.0
837,71.0,0,512,5.0,96.0
838,62.0,0,1536,7.0,96.0
839,74.0,512,512,5.0,96.0
840,43.0,512,1536,4.0,96.0
841,67.0,512,1024,6.0,96.0
842,79.0,512,512,5.0,96.0
843,74.0,512,512,5.0,96.0
844,71.0,0,1024,6.0,96.0
845,74.0,512,512,6.0,96.0
846,71.0,0,512,5.0,96.0
847,67.0,0,512,7.0,96.0
848,55.0,0,512,4.0,96.0
849,67.0,0,512,5.0,96.0
850,71.0,512,512,5.0,96.0
851,54.0,512,1024,4.0,96.0
852,79.0,0,1024,6.0,96.0
853,62.0,0,1024,7.0,96.0
854,73.0,0,512,5.0,96.0
855,52.0,0,512,4.0,96.0
856,67.0,512,512,6.0,96.0
857,64.0,0,512,7.0,96.0
858,74.0,0,512,5.0,96.0
859,62.0,512,512,5.0,96.0
860,69.0,0,1024,6.0,96.0
861,66.0,0,1536,7.0,96.0
862,64.0,512,512,5.0,96.0
863,50.0,0,1536,4.0,96.0
864,50.0,0,1536,3.0,96.0
865,67.0,0,512,6.0,96.0
866,66.0,512,512,5.0,96.0
867,69.0,0,1024,6.0,96.0
868,69.0,512,512,5.0,96.0
869,74.0,0,512,6.0,96.0
870,62.0,512,0,7.0,96.0
871,48.0,0,1536,4.0,96.0
872,66.0,512,3072,1.0,96.0
873,69.0,0,3072,0.0,96.0
874,48.0,0,1536,3.0,96.0
875,62.0,0,3072,2.0,96.0
876,68.0,0,0,5.0,96.0
877,62.0,0,1024,6.0,96.0
878,71.0,512,512,5.0,96.0
879,71.0,0,1536,0.0,96.0
880,62.0,0,1536,2.0,96.0
881,68.0,0,1536,1.0,96.0
882,47.0,0,1536,4.0,96.0
883,47.0,0,1536,3.0,96.0
884,69.0,0,0,5.0,96.0
885,60.0,0,0,6.0,96.0
886,72.0,512,512,5.0,96.0
887,62.0,512,512,6.0,96.0
888,64.0,0,1536,7.0,96.0
889,45.0,0,1536,3.0,96.0
890,45.0,0,1536,4.0,96.0
891,71.0,0,512,5.0,96.0
892,72.0,0,512,5.0,96.0
893,57.0,512,768,3.0,96.0
894,57.0,0,768,4.0,96.0
895,69.0,512,512,5.0,96.0
896,64.0,0,1024,6.0,96.0
897,57.0,0,1536,7.0,96.0
898,72.0,512,0,0.0,96.0
899,60.0,0,512,6.0,96.0
900,64.0,256,512,5.0,96.0
901,55.0,0,768,4.0,96.0
902,69.0,0,0,1.0,96.0
903,55.0,256,768,3.0,96.0
904,64.0,0,3072,2.0,96.0
905,60.0,0,512,5.0,96.0
906,53.0,0,768,3.0,96.0
907,53.0,0,768,4.0,96.0
908,57.0,0,1024,6.0,96.0
909,62.0,512,512,5.0,96.0
910,64.0,0,512,5.0,96.0
911,52.0,0,768,3.0,96.0
912,52.0,256,768,4.0,96.0
913,65.0,0,1536,2.0,96.0
914,60.0,256,512,6.0,96.0
915,65.0,512,512,5.0,96.0
916,62.0,0,1024,6.0,96.0
917,74.0,512,512,5.0,96.0
918,50.0,0,1536,3.0,96.0
919,64.0,512,512,6.0,96.0
920,50.0,0,1536,4.0,96.0
921,72.0,0,512,5.0,96.0
922,65.0,0,1536,2.0,96.0
923,69.0,0,3072,7.0,96.0
924,74.0,0,512,5.0,96.0
925,71.0,0,2304,0.0,96.0
926,65.0,512,1024,6.0,96.0
927,71.0,512,512,5.0,96.0
928,72.0,256,384,0.0,96.0
929,62.0,0,1536,2.0,96.0
930,47.0,0,1536,4.0,96.0
931,74.0,128,384,0.0,96.0
932,69.0,0,1536,7.0,96.0
933,62.0,256,512,6.0,96.0
934,69.0,0,3072,1.0,96.0
935,47.0,0,1536,3.0,96.0
936,68.0,0,512,5.0,96.0
937,64.0,0,512,5.0,96.0
938,66.0,512,512,5.0,96.0
939,59.0,0,1024,6.0,96.0
940,52.0,0,1536,3.0,96.0
941,68.0,0,1536,1.0,96.0
942,68.0,384,1536,7.0,96.0
943,64.0,0,1536,2.0,96.0
944,71.0,0,1536,0.0,96.0
945,62.0,0,512,6.0,96.0
946,52.0,0,1536,4.0,96.0
947,68.0,512,512,5.0,96.0
948,69.0,0,512,5.0,96.0
949,72.0,512,512,5.0,96.0
950,60.0,0,1024,6.0,96.0
951,69.0,0,1536,0.0,96.0
952,69.0,0,1536,1.0,96.0
953,71.0,512,512,5.0,96.0
954,64.0,0,1536,7.0,96.0
955,64.0,0,512,6.0,96.0
956,45.0,0,1536,4.0,96.0
957,60.0,0,0,2.0,96.0
958,45.0,0,0,3.0,96.0
959,72.0,0,512,5.0,96.0
960,69.0,0,1024,6.0,96.0
961,76.0,512,512,5.0,96.0
962,74.0,512,512,5.0,96.0
963,57.0,0,1536,7.0,96.0
964,69.0,0,1536,1.0,96.0
965,68.0,0,512,6.0,96.0
966,53.0,0,1536,4.0,96.0
967,69.0,512,1536,0.0,96.0
968,74.0,0,512,5.0,96.0
969,77.0,512,512,5.0,96.0
970,69.0,0,1024,6.0,96.0
971,65.0,512,1536,7.0,96.0
972,50.0,0,1536,4.0,96.0
973,76.0,0,512,5.0,96.0
974,71.0,512,512,6.0,96.0
975,76.0,0,512,5.0,96.0
976,81.0,512,512,5.0,96.0
977,72.0,0,1024,6.0,96.0
978,71.0,512,512,6.0,96.0
979,69.0,0,1536,7.0,96.0
980,48.0,512,1536,4.0,96.0
981,80.0,0,512,5.0,96.0
982,81.0,0,512,5.0,96.0
983,76.0,512,512,5.0,96.0
984,72.0,0,1024,6.0,96.0
985,53.0,512,1536,4.0,96.0
986,72.0,512,512,5.0,96.0
987,65.0,0,1536,7.0,96.0
988,69.0,0,512,6.0,96.0
989,69.0,0,512,5.0,96.0
990,65.0,512,512,6.0,96.0
991,71.0,0,512,5.0,96.0
992,72.0,512,512,5.0,96.0
993,69.0,512,1024,6.0,96.0
994,60.0,0,1536,7.0,96.0
995,52.0,0,1536,4.0,96.0
996,77.0,512,512,5.0,96.0
997,76.0,512,512,5.0,96.0
998,69.0,0,1024,6.0,96.0
999,50.0,0,1536,4.0,96.0
1000,62.0,0,1536,7.0,96.0
1001,68.0,0,512,6.0,96.0
1002,74.0,512,512,5.0,96.0
1003,72.0,0,512,5.0,96.0
1004,71.0,512,512,5.0,96.0
1005,69.0,0,1024,6.0,96.0
1006,66.0,512,512,6.0,96.0
1007,51.0,0,1536,4.0,96.0
1008,66.0,512,1536,7.0,96.0
1009,69.0,0,512,5.0,96.0
1010,64.0,0,512,5.0,96.0
1011,69.0,512,512,5.0,96.0
1012,59.0,512,1024,6.0,96.0
1013,64.0,0,0,7.0,96.0
1014,52.0,0,1536,4.0,96.0
1015,68.0,0,512,5.0,96.0
1016,62.0,512,512,6.0,96.0
1017,69.0,0,512,5.0,96.0
1018,72.0,512,512,5.0,96.0
1019,76.0,512,512,5.0,96.0
1020,45.0,0,1536,4.0,96.0
1021,60.0,0,1536,6.0,96.0
1022,81.0,0,512,5.0,96.0
1023,69.0,0,3072,1.0,96.0
1024,57.0,0,3072,3.0,96.0
1025,72.0,0,3072,0.0,96.0
1026,64.0,512,3072,2.0,96.0
1027,57.0,512,1536,4.0,96.0
1028,62.0,0,1536,2.0,96.0
1029,59.0,0,1536,4.0,96.0
1030,74.0,1536,1536,0.0,96.0
1031,67.0,0,1536,1.0,96.0
1032,59.0,0,1536,3.0,96.0
1033,72.0,512,512,5.0,96.0
1034,67.0,0,1536,1.0,96.0
1035,60.0,1536,1536,4.0,96.0
1036,74.0,512,512,5.0,96.0
1037,60.0,0,1536,3.0,96.0
1038,76.0,0,512,5.0,96.0
1039,72.0,0,1024,6.0,96.0
1040,79.0,512,512,5.0,96.0
1041,69.0,0,1536,7.0,96.0
1042,77.0,0,512,5.0,96.0
1043,72.0,512,1536,1.0,96.0
1044,76.0,0,3072,0.0,96.0
1045,57.0,0,1536,3.0,96.0
1046,60.0,512,0,2.0,96.0
1047,74.0,512,512,6.0,96.0
1048,57.0,0,1536,4.0,96.0
1049,79.0,0,512,5.0,96.0
1050,82.0,512,512,5.0,96.0
1051,76.0,0,1024,6.0,96.0
1052,52.0,0,1536,3.0,96.0
1053,72.0,512,512,6.0,96.0
1054,67.0,0,1536,1.0,96.0
1055,67.0,0,1536,7.0,96.0
1056,52.0,0,1536,4.0,96.0
1057,81.0,0,512,5.0,96.0
1058,76.0,0,1536,0.0,96.0
1059,81.0,0,512,5.0,96.0
1060,65.0,0,1024,6.0,96.0
1061,84.0,512,512,5.0,96.0
1062,65.0,0,1536,1.0,96.0
1063,62.0,0,1536,7.0,96.0
1064,53.0,0,1536,4.0,96.0
1065,53.0,512,1536,3.0,96.0
1066,67.0,512,512,6.0,96.0
1067,83.0,0,512,5.0,96.0
1068,84.0,0,512,5.0,96.0
1069,74.0,0,2304,0.0,96.0
1070,69.0,512,1024,6.0,96.0
1071,81.0,512,512,5.0,96.0
1072,76.0,256,384,0.0,96.0
1073,77.0,256,512,5.0,96.0
1074,74.0,0,512,6.0,96.0
1075,65.0,0,1536,7.0,96.0
1076,57.0,0,3072,2.0,96.0
1077,50.0,0,1536,3.0,96.0
1078,50.0,0,1536,4.0,96.0
1079,77.0,128,384,0.0,96.0
1080,69.0,0,1536,1.0,96.0
1081,71.0,0,512,6.0,96.0
1082,74.0,384,512,5.0,96.0
1083,76.0,0,512,5.0,96.0
1084,77.0,512,512,5.0,96.0
1085,67.0,512,0,7.0,96.0
1086,74.0,0,1536,0.0,96.0
1087,55.0,0,1536,4.0,96.0
1088,74.0,512,1024,6.0,96.0
1089,59.0,0,1536,2.0,96.0
1090,67.0,0,0,1.0,96.0
1091,55.0,0,1536,3.0,96.0
1092,76.0,0,512,5.0,96.0
1093,79.0,512,512,5.0,96.0
1094,72.0,0,1024,6.0,96.0
1095,77.0,512,512,5.0,96.0
1096,64.0,0,0,2.0,96.0
1097,48.0,0,0,3.0,96.0
1098,48.0,0,1536,4.0,96.0
1099,72.0,512,0,0.0,96.0
1100,67.0,0,512,6.0,96.0
1101,79.0,0,512,5.0,96.0
1102,72.0,0,1024,6.0,96.0
1103,76.0,512,512,5.0,96.0
1104,67.0,512,512,6.0,96.0
1105,64.0,0,1536,7.0,96.0
1106,52.0,0,1536,4.0,96.0
1107,67.0,0,1536,1.0,96.0
1108,72.0,0,512,5.0,96.0
1109,67.0,0,512,5.0,96.0
1110,69.0,512,512,5.0,96.0
1111,64.0,512,1024,6.0,96.0
1112,48.0,0,1536,4.0,96.0
1113,62.0,512,512,6.0,96.0
1114,70.0,0,512,5.0,96.0
1115,67.0,0,1536,7.0,96.0
1116,69.0,0,512,5.0,96.0
1117,60.0,0,1024,6.0,96.0
1118,72.0,512,512,5.0,96.0
1119,71.0,0,512,5.0,96.0
1120,64.0,512,512,6.0,96.0
1121,65.0,512,1536,7.0,96.0
1122,53.0,0,1536,4.0,96.0
1123,72.0,0,512,5.0,96.0
1124,65.0,512,1024,6.0,96.0
1125,69.0,512,512,5.0,96.0
1126,50.0,0,1536,4.0,96.0
1127,69.0,512,512,6.0,96.0
1128,69.0,0,1536,7.0,96.0
1129,65.0,0,512,5.0,96.0
1130,62.0,0,512,5.0,96.0
1131,64.0,512,512,5.0,96.0
1132,71.0,0,1024,6.0,96.0
1133,65.0,0,512,5.0,96.0
1134,55.0,512,1536,4.0,96.0
1135,67.0,0,1536,7.0,96.0
1136,74.0,512,512,6.0,96.0
1137,64.0,512,512,5.0,96.0
1138,72.0,0,1024,6.0,96.0
1139,60.0,512,512,5.0,96.0
1140,67.0,0,1536,7.0,96.0
1141,62.0,0,512,5.0,96.0
1142,67.0,512,512,6.0,96.0
1143,48.0,0,1536,4.0,96.0
1144,64.0,0,512,5.0,96.0
1145,72.0,512,1024,6.0,96.0
1146,67.0,512,512,5.0,96.0
1147,48.0,0,512,4.0,96.0
1148,69.0,512,512,6.0,96.0
1149,66.0,0,512,5.0,96.0
1150,62.0,0,512,7.0,96.0
1151,67.0,0,512,5.0,96.0
1152,62.0,0,1024,7.0,96.0
1153,47.0,512,1024,4.0,96.0
1154,71.0,512,512,5.0,96.0
1155,74.0,0,1024,6.0,96.0
1156,66.0,0,512,6.0,96.0
1157,50.0,0,512,4.0,96.0
1158,62.0,512,512,7.0,96.0
1159,69.0,0,512,5.0,96.0
1160,71.0,0,512,5.0,96.0
1161,67.0,512,512,5.0,96.0
1162,67.0,0,1024,6.0,96.0
1163,62.0,0,1536,7.0,96.0
1164,62.0,0,512,6.0,96.0
1165,43.0,0,1536,4.0,96.0
1166,69.0,512,512,5.0,96.0
1167,71.0,0,512,5.0,96.0
1168,74.0,512,512,5.0,96.0
1169,67.0,512,1024,6.0,96.0
1170,66.0,0,512,6.0,96.0
1171,67.0,512,3072,1.0,96.0
1172,55.0,0,1536,4.0,96.0
1173,72.0,0,0,5.0,96.0
1174,62.0,0,1536,7.0,96.0
1175,71.0,0,3072,0.0,96.0
1176,62.0,0,3072,2.0,96.0
1177,55.0,0,3072,3.0,96.0
1178,76.0,512,512,5.0,96.0
1179,67.0,512,1024,6.0,96.0
1180,64.0,0,1536,2.0,96.0
1181,52.0,0,1536,3.0,96.0
1182,74.0,0,512,5.0,96.0
1183,64.0,0,1536,7.0,96.0
1184,52.0,0,1536,4.0,96.0
1185,67.0,0,0,1.0,96.0
1186,72.0,0,1536,0.0,96.0
1187,69.0,512,512,6.0,96.0
1188,74.0,0,512,5.0,96.0
1189,79.0,512,512,5.0,96.0
1190,71.0,0,1024,6.0,96.0
1191,69.0,512,512,6.0,96.0
1192,47.0,0,1536,4.0,96.0
1193,78.0,0,512,5.0,96.0
1194,59.0,0,1536,3.0,96.0
1195,62.0,512,1536,2.0,96.0
1196,67.0,0,1536,7.0,96.0
1197,79.0,0,512,5.0,96.0
1198,74.0,512,512,5.0,96.0
1199,71.0,512,1024,6.0,96.0
1200,64.0,0,1536,7.0,96.0
1201,74.0,0,0,0.0,96.0
1202,67.0,0,512,6.0,96.0
1203,52.0,0,1536,4.0,96.0
1204,59.0,0,1536,2.0,96.0
1205,67.0,0,0,1.0,96.0
1206,71.0,512,512,5.0,96.0
1207,64.0,0,1536,3.0,96.0
1208,67.0,0,512,5.0,96.0
1209,64.0,0,1024,6.0,96.0
1210,69.0,512,512,5.0,96.0
1211,59.0,0,1536,2.0,96.0
1212,59.0,512,1536,7.0,96.0
1213,62.0,512,512,6.0,96.0
1214,52.0,0,1536,3.0,96.0
1215,40.0,0,1536,4.0,96.0
1216,71.0,0,512,5.0,96.0
1217,72.0,0,512,5.0,96.0
1218,67.0,0,768,1.0,96.0
1219,74.0,512,512,5.0,96.0
1220,64.0,0,1024,6.0,96.0
1221,66.0,0,512,6.0,96.0
1222,60.0,0,1536,2.0,96.0
1223,45.0,0,1536,3.0,96.0
1224,66.0,256,768,1.0,96.0
1225,76.0,256,512,5.0,96.0
1226,72.0,512,1536,0.0,96.0
1227,57.0,0,1536,7.0,96.0
1228,45.0,0,1536,4.0,96.0
1229,74.0,0,512,5.0,96.0
1230,72.0,512,512,5.0,96.0
1231,67.0,0,1024,6.0,96.0
1232,71.0,0,512,5.0,96.0
1233,47.0,0,1536,4.0,96.0
1234,62.0,0,1536,7.0,96.0
1235,47.0,0,1536,3.0,96.0
1236,62.0,0,1536,2.0,96.0
1237,62.0,512,512,6.0,96.0
1238,69.0,512,512,5.0,96.0
1239,71.0,512,512,5.0,96.0
1240,64.0,0,1024,6.0,96.0
1241,59.0,0,512,6.0,96.0
1242,48.0,0,1536,3.0,96.0
1243,67.0,512,3072,1.0,96.0
1244,71.0,0,3072,0.0,96.0
1245,67.0,512,512,5.0,96.0
1246,48.0,0,1536,4.0,96.0
1247,64.0,0,1536,2.0,96.0
1248,66.0,0,512,5.0,96.0
1249,57.0,0,1024,6.0,96.0
1250,50.0,0,1024,4.0,96.0
1251,62.0,512,512,5.0,96.0
1252,60.0,0,3072,7.0,96.0
1253,64.0,0,512,5.0,96.0
1254,61.0,512,512,6.0,96.0
1255,66.0,512,512,5.0,96.0
1256,69.0,512,512,5.0,96.0
1257,62.0,0,1024,6.0,96.0
1258,57.0,0,0,7.0,96.0
1259,50.0,512,512,4.0,96.0
1260,64.0,0,512,6.0,96.0
1261,66.0,0,3072,1.0,96.0
1262,67.0,0,512,5.0,96.0
1263,50.0,512,3072,3.0,96.0
1264,57.0,0,3072,2.0,96.0
1265,69.0,0,3072,0.0,96.0
1266,69.0,0,512,5.0,96.0
1267,72.0,512,512,5.0,96.0
1268,50.0,0,1024,4.0,96.0
1269,66.0,0,1024,6.0,96.0
1270,62.0,512,1024,7.0,96.0
1271,67.0,0,512,6.0,96.0
1272,62.0,0,512,7.0,96.0
1273,71.0,512,512,5.0,96.0
1274,50.0,0,512,4.0,96.0
1275,72.0,0,512,5.0,96.0
1276,66.0,512,1024,7.0,96.0
1277,69.0,512,512,5.0,96.0
1278,38.0,0,1024,4.0,96.0
1279,69.0,0,1024,6.0,96.0
1280,72.0,0,512,6.0,96.0
1281,69.0,512,512,7.0,96.0
1282,66.0,0,512,5.0,96.0
1283,62.0,0,512,5.0,96.0
1284,66.0,512,1024,7.0,96.0
1285,69.0,0,1024,6.0,96.0
1286,66.0,512,512,5.0,96.0
1287,69.0,0,512,5.0,96.0
1288,66.0,512,512,6.0,96.0
1289,50.0,0,0,4.0,96.0
1290,62.0,0,512,7.0,96.0
1291,72.0,0,512,5.0,96.0
1292,62.0,0,1024,6.0,96.0
1293,71.0,512,512,5.0,96.0
1294,57.0,512,1024,7.0,96.0
1295,62.0,0,0,7.0,96.0
1296,50.0,0,512,4.0,96.0
1297,69.0,0,512,5.0,96.0
1298,66.0,512,512,6.0,96.0
1299,71.0,0,512,5.0,96.0
1300,67.0,512,512,5.0,96.0
1301,67.0,0,1024,6.0,96.0
1302,62.0,512,512,6.0,96.0
1303,69.0,0,512,5.0,96.0
1304,55.0,512,1536,3.0,96.0
1305,55.0,0,1536,4.0,96.0
1306,71.0,0,512,5.0,96.0
1307,67.0,512,1024,6.0,96.0
1308,74.0,512,512,5.0,96.0
1309,67.0,512,0,1.0,96.0
1310,62.0,0,3072,2.0,96.0
1311,66.0,0,512,6.0,96.0
1312,72.0,512,512,5.0,96.0
1313,54.0,0,1536,3.0,96.0
1314,54.0,0,1536,4.0,96.0
1315,62.0,0,1536,7.0,96.0
1316,71.0,0,3072,0.0,96.0
1317,72.0,0,512,5.0,96.0
1318,76.0,512,512,5.0,96.0
1319,67.0,0,1024,6.0,96.0
1320,72.0,0,1536,0.0,96.0
1321,74.0,512,512,5.0,96.0
1322,64.0,0,1536,2.0,96.0
1323,64.0,0,1536,7.0,96.0
1324,69.0,0,512,6.0,96.0
1325,67.0,0,0,1.0,96.0
1326,52.0,0,1536,4.0,96.0
1327,52.0,0,1536,3.0,96.0
1328,74.0,0,512,5.0,96.0
1329,79.0,512,512,5.0,96.0
1330,71.0,0,1024,6.0,96.0
1331,67.0,0,1536,7.0,96.0
1332,78.0,512,512,5.0,96.0
1333,59.0,0,1536,3.0,96.0
1334,59.0,0,1536,4.0,96.0
1335,69.0,0,512,6.0,96.0
1336,62.0,512,1536,2.0,96.0
1337,79.0,0,512,5.0,96.0
1338,67.0,512,1024,6.0,96.0
1339,74.0,512,512,5.0,96.0
1340,47.0,0,1536,4.0,96.0
1341,62.0,0,1536,1.0,96.0
1342,71.0,0,512,5.0,96.0
1343,47.0,0,1536,3.0,96.0
1344,66.0,512,512,6.0,96.0
1345,62.0,0,1536,7.0,96.0
1346,74.0,0,3072,0.0,96.0
1347,59.0,0,0,2.0,96.0
1348,67.0,0,512,5.0,96.0
1349,64.0,0,1024,6.0,96.0
1350,69.0,512,512,5.0,96.0
1351,52.0,512,1536,3.0,96.0
1352,52.0,0,1536,4.0,96.0
1353,71.0,0,1536,0.0,96.0
1354,64.0,0,0,1.0,96.0
1355,59.0,0,1536,7.0,96.0
1356,67.0,0,512,6.0,96.0
1357,71.0,512,512,5.0,96.0
1358,64.0,0,512,5.0,96.0
1359,69.0,512,768,0.0,96.0
1360,60.0,0,768,7.0,96.0
1361,60.0,0,768,2.0,96.0
1362,69.0,0,1024,6.0,96.0
1363,74.0,512,512,5.0,96.0
1364,71.0,0,384,0.0,96.0
1365,72.0,0,512,5.0,96.0
1366,67.0,256,512,6.0,96.0
1367,57.0,256,768,7.0,96.0
1368,48.0,0,1536,4.0,96.0
1369,57.0,0,768,2.0,96.0
1370,48.0,0,1536,3.0,96.0
1371,72.0,128,384,0.0,96.0
1372,71.0,0,512,5.0,96.0
1373,62.0,0,768,7.0,96.0
1374,66.0,0,768,1.0,96.0
1375,62.0,384,768,2.0,96.0
1376,69.0,512,512,5.0,96.0
1377,66.0,0,1024,6.0,96.0
1378,64.0,0,768,1.0,96.0
1379,50.0,0,1536,4.0,96.0
1380,59.0,256,768,2.0,96.0
1381,59.0,0,768,7.0,96.0
1382,67.0,256,512,5.0,96.0
1383,67.0,0,512,6.0,96.0
1384,62.0,0,512,5.0,96.0
1385,60.0,0,768,7.0,96.0
1386,67.0,512,512,5.0,96.0
1387,69.0,0,1024,6.0,96.0
1388,38.0,512,1536,4.0,96.0
1389,69.0,0,3072,0.0,96.0
1390,60.0,0,512,6.0,96.0
1391,66.0,256,512,5.0,96.0
1392,66.0,0,1536,1.0,96.0
1393,60.0,0,1536,2.0,96.0
1394,50.0,0,3072,3.0,96.0
1395,57.0,256,768,7.0,96.0
1396,67.0,0,512,5.0,96.0
1397,59.0,512,1024,6.0,96.0
1398,71.0,512,512,5.0,96.0
1399,74.0,0,512,5.0,96.0
1400,67.0,512,512,6.0,96.0
1401,59.0,0,1536,7.0,96.0
1402,79.0,0,512,5.0,96.0
1403,74.0,512,512,5.0,96.0
1404,71.0,512,1024,6.0,96.0
1405,74.0,0,512,6.0,96.0
1406,71.0,0,512,5.0,96.0
1407,67.0,512,512,7.0,96.0
1408,67.0,0,512,5.0,96.0
1409,71.0,512,512,5.0,96.0
1410,62.0,0,1024,7.0,96.0
1411,79.0,512,1024,6.0,96.0
1412,62.0,0,4608,1.0,96.0
1413,67.0,0,4608,0.0,96.0
1414,67.0,512,512,7.0,96.0
1415,43.0,0,4608,3.0,96.0
1416,59.0,0,4608,2.0,96.0
1417,74.0,0,512,5.0,96.0
1418,74.0,0,512,6.0,96.0
1419,77.0,0,512,5.0,96.0
1420,71.0,512,1024,6.0,96.0
1421,74.0,512,512,5.0,96.0
1422,67.0,0,512,6.0,96.0
1423,62.0,0,1536,7.0,96.0
1424,71.0,512,512,5.0,96.0
1425,67.0,512,512,5.0,96.0
1426,74.0,0,1024,6.0,96.0
1427,71.0,512,512,5.0,96.0
1428,74.0,0,512,5.0,96.0
1429,67.0,0,512,7.0,96.0
1430,71.0,512,512,6.0,96.0
1431,76.0,0,512,5.0,96.0
1432,72.0,512,512,5.0,96.0
1433,64.0,512,1024,7.0,96.0
1434,60.0,0,512,7.0,96.0
1435,69.0,512,512,5.0,96.0
1436,66.0,512,512,5.0,96.0
1437,69.0,512,512,5.0,96.0
1438,72.0,0,2560,6.0,96.0
1439,57.0,0,1536,7.0,96.0
1440,69.0,512,512,6.0,96.0
1441,72.0,0,512,5.0,96.0
1442,74.0,0,512,5.0,96.0
1443,71.0,512,512,5.0,96.0
1444,62.0,512,512,7.0,96.0
1445,67.0,0,512,5.0,96.0
1446,64.0,0,512,5.0,96.0
1447,71.0,512,2560,6.0,96.0
1448,67.0,512,512,5.0,96.0
1449,59.0,512,1024,7.0,96.0
1450,64.0,0,512,7.0,96.0
1451,71.0,512,512,5.0,96.0
1452,67.0,0,512,6.0,96.0
1453,72.0,512,512,5.0,96.0
1454,69.0,512,512,5.0,96.0
1455,52.0,0,1024,7.0,96.0
1456,66.0,0,512,5.0,96.0
1457,57.0,512,512,7.0,96.0
1458,62.0,512,512,5.0,96.0
1459,69.0,0,2560,6.0,96.0
1460,54.0,0,1024,7.0,96.0
1461,66.0,512,512,5.0,96.0
1462,66.0,512,512,6.0,96.0
1463,69.0,0,512,7.0,96.0
1464,69.0,0,512,5.0,96.0
1465,72.0,0,512,5.0,96.0
1466,66.0,512,1024,7.0,96.0
1467,62.0,0,1024,6.0,96.0
1468,71.0,512,512,5.0,96.0
1469,62.0,512,512,7.0,96.0
1470,69.0,0,512,5.0,96.0
1471,66.0,0,512,6.0,96.0
1472,71.0,0,512,5.0,96.0
1473,67.0,512,512,5.0,96.0
1474,67.0,512,1024,6.0,96.0
1475,69.0,512,512,5.0,96.0
1476,62.0,0,1536,7.0,96.0
1477,62.0,0,512,6.0,96.0
1478,43.0,0,19968,4.0,96.0
1479,71.0,512,512,5.0,96.0
1480,67.0,0,1024,6.0,96.0
1481,74.0,512,512,5.0,96.0
1482,72.0,0,512,5.0,96.0
1483,55.0,0,1536,4.0,96.0
1484,66.0,512,512,6.0,96.0
1485,62.0,0,1536,7.0,96.0
1486,72.0,0,512,5.0,96.0
1487,67.0,0,1024,6.0,96.0
1488,76.0,512,512,5.0,96.0
1489,52.0,512,1536,4.0,96.0
1490,74.0,0,512,5.0,96.0
1491,69.0,512,512,6.0,96.0
1492,64.0,0,1536,7.0,96.0
1493,74.0,0,512,5.0,96.0
1494,79.0,512,512,5.0,96.0
1495,71.0,0,1024,6.0,96.0
1496,69.0,0,512,6.0,96.0
1497,67.0,0,1536,7.0,96.0
1498,78.0,512,512,5.0,96.0
1499,47.0,512,1536,4.0,96.0
1500,79.0,0,512,5.0,96.0
1501,71.0,0,1024,6.0,96.0
1502,74.0,512,512,5.0,96.0
1503,64.0,512,1536,7.0,96.0
1504,67.0,0,512,6.0,96.0
1505,52.0,0,1536,4.0,96.0
1506,71.0,512,512,5.0,96.0
1507,67.0,512,512,5.0,96.0
1508,64.0,0,1024,6.0,96.0
1509,69.0,512,512,5.0,96.0
1510,59.0,0,1536,7.0,96.0
1511,40.0,0,1536,4.0,96.0
1512,62.0,512,512,6.0,96.0
1513,71.0,0,512,5.0,96.0
1514,72.0,0,512,5.0,96.0
1515,64.0,0,1024,6.0,96.0
1516,74.0,512,512,5.0,96.0
1517,66.0,512,512,6.0,96.0
1518,45.0,0,1536,4.0,96.0
1519,57.0,512,1536,7.0,96.0
1520,76.0,0,512,5.0,96.0
1521,74.0,0,512,5.0,96.0
1522,67.0,512,1024,6.0,96.0
1523,72.0,512,512,5.0,96.0
1524,62.0,512,512,6.0,96.0
1525,62.0,0,1536,7.0,96.0
1526,71.0,0,512,5.0,96.0
1527,47.0,0,1536,4.0,96.0
1528,69.0,0,512,5.0,96.0
1529,71.0,512,512,5.0,96.0
1530,64.0,512,1024,6.0,96.0
1531,48.0,0,1536,4.0,96.0
1532,59.0,0,512,6.0,96.0
1533,67.0,512,512,5.0,96.0
1534,66.0,512,512,5.0,96.0
1535,67.0,512,512,5.0,96.0
1536,57.0,0,1024,6.0,96.0
1537,69.0,0,512,5.0,96.0
1538,62.0,512,512,6.0,96.0
1539,60.0,0,3072,7.0,96.0
1540,50.0,0,1536,4.0,96.0
1541,62.0,0,512,5.0,96.0
1542,69.0,512,1024,6.0,96.0
1543,66.0,512,512,5.0,96.0
1544,67.0,512,512,6.0,96.0
1545,57.0,0,1536,7.0,96.0
1546,54.0,0,1536,4.0,96.0
1547,69.0,0,512,5.0,96.0
1548,72.0,0,512,5.0,96.0
1549,69.0,0,1024,6.0,96.0
1550,71.0,512,512,5.0,96.0
1551,50.0,0,1536,4.0,96.0
1552,66.0,512,1536,7.0,96.0
1553,69.0,512,512,5.0,96.0
1554,66.0,0,512,6.0,96.0
1555,71.0,0,512,5.0,96.0
1556,62.0,0,1024,6.0,96.0
1557,67.0,512,512,5.0,96.0
1558,55.0,512,1536,4.0,96.0
1559,69.0,0,512,5.0,96.0
1560,66.0,512,512,6.0,96.0
1561,67.0,0,1536,7.0,96.0
1562,71.0,0,512,5.0,96.0
1563,74.0,512,512,5.0,96.0
1564,67.0,0,1024,6.0,96.0
1565,66.0,0,512,6.0,96.0
1566,52.0,512,1536,4.0,96.0
1567,55.0,0,1536,7.0,96.0
1568,72.0,0,0,5.0,96.0
1569,76.0,512,512,5.0,96.0
1570,67.0,512,1024,6.0,96.0
1571,48.0,0,1536,4.0,96.0
1572,64.0,0,1536,7.0,96.0
1573,69.0,512,512,6.0,96.0
1574,74.0,0,0,5.0,96.0
1575,71.0,0,1024,6.0,96.0
1576,79.0,512,512,5.0,96.0
1577,47.0,0,1536,4.0,96.0
1578,78.0,0,512,5.0,96.0
1579,69.0,512,512,6.0,96.0
1580,67.0,512,1536,7.0,96.0
1581,79.0,0,512,5.0,96.0
1582,74.0,512,512,5.0,96.0
1583,71.0,512,1024,6.0,96.0
1584,52.0,0,1536,4.0,96.0
1585,64.0,0,1536,7.0,96.0
1586,71.0,0,512,5.0,96.0
1587,67.0,512,512,6.0,96.0
1588,67.0,0,512,5.0,96.0
1589,69.0,512,512,5.0,96.0
1590,64.0,0,1024,6.0,96.0
1591,71.0,0,512,5.0,96.0
1592,50.0,0,1536,4.0,96.0
1593,59.0,512,1536,7.0,96.0
1594,67.0,512,512,6.0,96.0
1595,64.0,0,512,5.0,96.0
1596,69.0,0,1024,6.0,96.0
1597,74.0,512,512,5.0,96.0
1598,66.0,512,512,6.0,96.0
1599,72.0,0,512,5.0,96.0
1600,60.0,0,1536,7.0,96.0
1601,48.0,512,1536,4.0,96.0
1602,71.0,512,512,5.0,96.0
1603,69.0,512,512,5.0,96.0
1604,67.0,0,1024,6.0,96.0
1605,64.0,512,512,6.0,96.0
1606,64.0,0,1536,7.0,96.0
1607,67.0,0,512,5.0,96.0
1608,49.0,0,1536,4.0,96.0
1609,62.0,0,512,5.0,96.0
1610,67.0,512,512,5.0,96.0
1611,57.0,512,1024,6.0,96.0
1612,62.0,512,0,7.0,96.0
1613,60.0,0,512,6.0,96.0
1614,50.0,0,1536,4.0,96.0
1615,66.0,512,512,5.0,96.0
1616,59.0,0,4608,6.0,96.0
1617,67.0,0,4608,5.0,96.0
1618,43.0,0,4608,4.0,96.0
