,note,step,duration,channel,velocity
0,65.0,0,1024,0.0,96.0
1,60.0,0,1024,1.0,96.0
2,53.0,0,1024,3.0,96.0
3,77.0,0,1024,4.0,96.0
4,57.0,0,1024,2.0,96.0
5,72.0,0,512,0.0,96.0
6,52.0,1024,1024,3.0,96.0
7,79.0,0,1024,4.0,96.0
8,55.0,0,1024,2.0,96.0
9,60.0,0,0,1.0,96.0
10,70.0,512,512,0.0,96.0
11,53.0,0,512,3.0,96.0
12,69.0,0,512,0.0,96.0
13,53.0,512,512,2.0,96.0
14,52.0,512,512,3.0,96.0
15,55.0,0,512,2.0,96.0
16,67.0,0,512,0.0,96.0
17,57.0,512,512,2.0,96.0
18,62.0,0,512,1.0,96.0
19,81.0,0,1536,4.0,96.0
20,50.0,0,1024,3.0,96.0
21,58.0,0,512,2.0,96.0
22,65.0,0,1024,0.0,96.0
23,64.0,512,512,1.0,96.0
24,79.0,0,512,4.0,96.0
25,77.0,0,512,4.0,96.0
26,60.0,0,1024,2.0,96.0
27,72.0,0,1024,0.0,96.0
28,65.0,0,0,1.0,96.0
29,75.0,512,512,4.0,96.0
30,45.0,512,1024,3.0,96.0
31,74.0,512,512,4.0,96.0
32,60.0,0,512,2.0,96.0
33,46.0,0,512,3.0,96.0
34,58.0,0,256,2.0,96.0
35,57.0,256,256,2.0,96.0
36,74.0,256,0,0.0,96.0
37,48.0,512,512,3.0,96.0
38,76.0,0,512,4.0,96.0
39,58.0,512,0,2.0,96.0
40,77.0,0,512,4.0,96.0
41,50.0,0,512,3.0,96.0
42,52.0,0,512,3.0,96.0
43,65.0,0,0,1.0,96.0
44,79.0,0,512,4.0,96.0
45,57.0,512,1229,2.0,96.0
46,81.0,0,1229,4.0,96.0
47,53.0,0,1229,3.0,96.0
48,72.0,0,205,0.0,96.0
49,79.0,0,1024,4.0,96.0
50,67.0,1024,1024,1.0,96.0
51,52.0,0,1024,3.0,96.0
52,60.0,0,0,2.0,96.0
53,69.0,0,1024,1.0,96.0
54,74.0,0,1024,0.0,96.0
55,53.0,0,1024,3.0,96.0
56,77.0,1024,1024,4.0,96.0
57,59.0,0,1024,2.0,96.0
58,76.0,0,1024,0.0,96.0
59,55.0,0,1024,3.0,96.0
60,67.0,1024,1024,1.0,96.0
61,65.0,1024,512,1.0,96.0
62,60.0,0,512,2.0,96.0
63,57.0,0,512,3.0,96.0
64,76.0,0,1536,4.0,96.0
65,59.0,512,512,3.0,96.0
66,77.0,0,1024,0.0,96.0
67,67.0,512,0,1.0,96.0
68,62.0,0,512,2.0,96.0
69,60.0,0,512,3.0,96.0
70,74.0,0,1024,4.0,96.0
71,64.0,0,512,2.0,96.0
72,52.0,0,512,3.0,96.0
73,55.0,512,512,2.0,96.0
74,76.0,0,1024,0.0,96.0
75,72.0,0,512,4.0,96.0
76,57.0,0,512,2.0,96.0
77,81.0,0,512,4.0,96.0
78,53.0,512,512,3.0,96.0
79,62.0,0,512,2.0,96.0
80,65.0,0,0,1.0,96.0
81,77.0,512,512,4.0,96.0
82,74.0,0,0,0.0,96.0
83,50.0,0,512,3.0,96.0
84,74.0,0,512,4.0,96.0
85,55.0,0,1024,3.0,96.0
86,59.0,512,1024,2.0,96.0
87,79.0,512,1024,4.0,96.0
88,76.0,512,512,4.0,96.0
89,72.0,0,1229,0.0,96.0
90,48.0,512,1229,3.0,96.0
91,60.0,512,205,2.0,96.0
92,64.0,0,1229,1.0,96.0
93,72.0,0,512,4.0,96.0
94,65.0,0,1024,1.0,96.0
95,69.0,0,1024,0.0,96.0
96,53.0,0,1024,3.0,96.0
97,77.0,512,1024,4.0,96.0
98,58.0,512,512,2.0,96.0
99,57.0,512,512,2.0,96.0
100,65.0,0,1024,1.0,96.0
101,74.0,0,1024,0.0,96.0
102,46.0,0,1024,3.0,96.0
103,79.0,0,1024,4.0,96.0
104,64.0,512,1024,1.0,96.0
105,55.0,0,1024,2.0,96.0
106,48.0,0,1024,3.0,96.0
107,81.0,512,512,4.0,96.0
108,72.0,0,1024,0.0,96.0
109,62.0,0,512,2.0,96.0
110,50.0,0,512,3.0,96.0
111,70.0,0,512,4.0,96.0
112,65.0,0,512,1.0,96.0
113,60.0,512,512,2.0,96.0
114,52.0,0,512,3.0,96.0
115,67.0,0,512,1.0,96.0
116,70.0,512,1024,0.0,96.0
117,53.0,512,512,3.0,96.0
118,72.0,0,1024,4.0,96.0
119,69.0,0,1024,0.0,96.0
120,65.0,0,0,1.0,96.0
121,60.0,0,1024,2.0,96.0
122,46.0,0,512,3.0,96.0
123,74.0,512,512,4.0,96.0
124,67.0,0,512,4.0,96.0
125,69.0,512,512,4.0,96.0
126,70.0,0,512,4.0,96.0
127,67.0,512,2048,0.0,96.0
128,60.0,0,0,2.0,96.0
129,48.0,0,2048,3.0,96.0
130,72.0,512,512,4.0,96.0
131,64.0,512,1024,1.0,96.0
132,41.0,0,1229,3.0,96.0
133,65.0,1024,205,0.0,96.0
134,69.0,0,1229,4.0,96.0
135,65.0,0,1434,1.0,96.0
136,57.0,0,1024,2.0,96.0
137,77.0,0,1024,4.0,96.0
138,60.0,0,0,1.0,96.0
139,53.0,0,1024,3.0,96.0
140,72.0,0,512,0.0,96.0
141,79.0,0,1024,4.0,96.0
142,52.0,0,1024,3.0,96.0
143,55.0,1024,1024,2.0,96.0
144,70.0,512,512,0.0,96.0
145,60.0,512,0,1.0,96.0
146,69.0,0,512,0.0,96.0
147,53.0,0,512,2.0,96.0
148,53.0,0,512,3.0,96.0
149,55.0,0,512,2.0,96.0
150,67.0,512,512,0.0,96.0
151,52.0,0,512,3.0,96.0
152,81.0,0,1536,4.0,96.0
153,57.0,512,512,2.0,96.0
154,62.0,0,512,1.0,96.0
155,64.0,0,512,1.0,96.0
156,58.0,0,512,2.0,96.0
157,79.0,512,512,4.0,96.0
158,65.0,0,1024,0.0,96.0
159,50.0,0,1024,3.0,96.0
160,77.0,0,512,4.0,96.0
161,45.0,0,1024,3.0,96.0
162,75.0,512,512,4.0,96.0
163,72.0,0,1024,0.0,96.0
164,65.0,0,1024,1.0,96.0
165,60.0,512,1024,2.0,96.0
166,60.0,0,512,2.0,96.0
167,46.0,0,512,3.0,96.0
168,74.0,512,512,4.0,96.0
169,58.0,0,256,2.0,96.0
170,48.0,512,512,3.0,96.0
171,57.0,256,256,2.0,96.0
172,76.0,0,512,4.0,96.0
173,65.0,0,1024,1.0,96.0
174,74.0,0,0,0.0,96.0
175,77.0,0,512,4.0,96.0
176,58.0,0,0,2.0,96.0
177,50.0,0,512,3.0,96.0
178,79.0,512,512,4.0,96.0
179,52.0,0,512,3.0,96.0
180,65.0,0,1024,1.0,96.0
181,65.0,0,1229,1.0,96.0
182,81.0,0,1229,4.0,96.0
183,72.0,0,205,0.0,96.0
184,53.0,0,1229,3.0,96.0
185,57.0,512,1229,2.0,96.0
186,79.0,1024,1024,4.0,96.0
187,52.0,0,1024,3.0,96.0
188,67.0,0,1024,1.0,96.0
189,60.0,0,0,2.0,96.0
190,53.0,1024,1024,3.0,96.0
191,77.0,0,1024,4.0,96.0
192,74.0,0,1024,0.0,96.0
193,69.0,0,1024,1.0,96.0
194,59.0,0,1024,2.0,96.0
195,55.0,0,1024,3.0,96.0
196,67.0,0,1024,1.0,96.0
197,76.0,0,1024,0.0,96.0
198,65.0,0,512,1.0,96.0
199,60.0,0,512,2.0,96.0
200,76.0,1024,1536,4.0,96.0
201,57.0,0,512,3.0,96.0
202,67.0,512,0,1.0,96.0
203,59.0,0,512,3.0,96.0
204,77.0,1024,1024,0.0,96.0
205,62.0,0,512,2.0,96.0
206,64.0,0,512,2.0,96.0
207,74.0,0,1024,4.0,96.0
208,60.0,0,512,3.0,96.0
209,72.0,0,512,4.0,96.0
210,76.0,0,1024,0.0,96.0
211,52.0,512,512,3.0,96.0
212,55.0,0,512,2.0,96.0
213,53.0,0,512,3.0,96.0
214,81.0,0,512,4.0,96.0
215,57.0,512,512,2.0,96.0
216,65.0,0,1024,1.0,96.0
217,62.0,0,512,2.0,96.0
218,50.0,0,512,3.0,96.0
219,74.0,0,1024,0.0,96.0
220,77.0,512,512,4.0,96.0
221,74.0,0,512,4.0,96.0
222,74.0,0,1024,0.0,96.0
223,59.0,512,1024,2.0,96.0
224,65.0,0,1024,1.0,96.0
225,55.0,0,1024,3.0,96.0
226,79.0,512,1024,4.0,96.0
227,76.0,512,512,4.0,96.0
228,48.0,0,1229,3.0,96.0
229,60.0,0,205,2.0,96.0
230,64.0,512,1229,1.0,96.0
231,72.0,0,1229,0.0,96.0
232,72.0,0,512,4.0,96.0
233,69.0,0,1024,0.0,96.0
234,53.0,512,1024,3.0,96.0
235,65.0,0,1024,1.0,96.0
236,58.0,0,512,2.0,96.0
237,77.0,512,1024,4.0,96.0
238,46.0,512,1024,3.0,96.0
239,57.0,512,512,2.0,96.0
240,65.0,0,1024,1.0,96.0
241,74.0,0,1024,0.0,96.0
242,79.0,0,1024,4.0,96.0
243,64.0,0,1024,1.0,96.0
244,72.0,0,1024,0.0,96.0
245,55.0,512,1024,2.0,96.0
246,81.0,512,512,4.0,96.0
247,48.0,0,1024,3.0,96.0
248,70.0,0,512,4.0,96.0
249,62.0,0,512,2.0,96.0
250,50.0,0,512,3.0,96.0
251,65.0,512,512,1.0,96.0
252,70.0,0,1024,0.0,96.0
253,60.0,0,0,2.0,96.0
254,52.0,0,512,3.0,96.0
255,67.0,512,512,1.0,96.0
256,53.0,0,512,3.0,96.0
257,72.0,0,1024,4.0,96.0
258,46.0,512,512,3.0,96.0
259,65.0,512,1024,1.0,96.0
260,74.0,0,512,4.0,96.0
261,69.0,0,1024,0.0,96.0
262,67.0,0,512,4.0,96.0
263,65.0,0,1024,1.0,96.0
264,69.0,512,512,4.0,96.0
265,70.0,512,512,4.0,96.0
266,64.0,0,1024,1.0,96.0
267,72.0,512,512,4.0,96.0
268,67.0,0,2048,0.0,96.0
269,60.0,512,0,2.0,96.0
270,48.0,0,2048,3.0,96.0
271,41.0,0,1229,3.0,96.0
272,69.0,0,1229,4.0,96.0
273,65.0,0,1229,0.0,96.0
274,65.0,0,1229,1.0,96.0
275,72.0,0,512,4.0,96.0
276,76.0,512,512,4.0,96.0
277,60.0,0,2048,2.0,96.0
278,52.0,0,2048,3.0,96.0
279,67.0,2048,2048,1.0,96.0
280,72.0,0,2048,0.0,96.0
281,79.0,512,1536,4.0,96.0
282,77.0,512,256,4.0,96.0
283,76.0,256,256,4.0,96.0
284,69.0,0,2048,0.0,96.0
285,53.0,0,2048,3.0,96.0
286,69.0,0,2048,1.0,96.0
287,60.0,0,0,2.0,96.0
288,77.0,256,1536,4.0,96.0
289,79.0,512,256,4.0,96.0
290,77.0,256,256,4.0,96.0
291,76.0,256,256,4.0,96.0
292,77.0,256,256,4.0,96.0
293,74.0,256,256,4.0,96.0
294,76.0,256,256,4.0,96.0
295,48.0,0,2048,3.0,96.0
296,67.0,0,2048,1.0,96.0
297,72.0,1024,2048,0.0,96.0
298,77.0,0,512,4.0,96.0
299,79.0,512,512,4.0,96.0
300,81.0,512,512,4.0,96.0
301,82.0,512,512,4.0,96.0
302,41.0,512,410,3.0,96.0
303,60.0,0,410,2.0,96.0
304,69.0,0,410,0.0,96.0
305,65.0,0,410,1.0,96.0
306,43.0,512,512,3.0,96.0
307,84.0,0,1024,4.0,96.0
308,65.0,0,0,1.0,96.0
309,72.0,0,512,4.0,96.0
310,45.0,0,512,3.0,96.0
311,46.0,512,512,3.0,96.0
312,60.0,0,1024,2.0,96.0
313,69.0,512,1024,0.0,96.0
314,74.0,0,512,4.0,96.0
315,64.0,0,512,1.0,96.0
316,48.0,512,512,3.0,96.0
317,76.0,0,512,4.0,96.0
318,67.0,512,0,0.0,96.0
319,62.0,0,512,1.0,96.0
320,50.0,0,512,3.0,96.0
321,77.0,512,512,4.0,96.0
322,60.0,0,0,2.0,96.0
323,52.0,0,512,3.0,96.0
324,60.0,512,0,1.0,96.0
325,58.0,0,512,2.0,96.0
326,48.0,512,512,3.0,96.0
327,53.0,0,512,3.0,96.0
328,79.0,0,1536,4.0,96.0
329,57.0,0,512,2.0,96.0
330,77.0,512,256,4.0,96.0
331,76.0,256,256,4.0,96.0
332,55.0,0,512,3.0,96.0
333,69.0,0,1024,0.0,96.0
334,60.0,0,0,1.0,96.0
335,58.0,0,512,2.0,96.0
336,77.0,256,256,4.0,96.0
337,57.0,0,512,3.0,96.0
338,81.0,256,256,4.0,96.0
339,79.0,256,256,4.0,96.0
340,69.0,0,1024,0.0,96.0
341,77.0,256,256,4.0,96.0
342,62.0,0,512,1.0,96.0
343,58.0,0,512,3.0,96.0
344,60.0,0,0,2.0,96.0
345,60.0,0,512,3.0,96.0
346,76.0,0,512,4.0,96.0
347,58.0,512,512,3.0,96.0
348,64.0,512,0,1.0,96.0
349,60.0,0,0,2.0,96.0
350,67.0,0,0,0.0,96.0
351,74.0,0,512,4.0,96.0
352,72.0,0,512,4.0,96.0
353,57.0,0,512,3.0,96.0
354,70.0,512,512,4.0,96.0
355,60.0,0,0,2.0,96.0
356,55.0,0,512,3.0,96.0
357,53.0,0,512,3.0,96.0
358,69.0,0,512,4.0,96.0
359,67.0,512,512,4.0,96.0
360,52.0,0,512,3.0,96.0
361,69.0,0,1024,0.0,96.0
362,65.0,512,1024,1.0,96.0
363,65.0,0,512,4.0,96.0
364,50.0,512,512,3.0,96.0
365,62.0,0,1024,2.0,96.0
366,48.0,512,512,3.0,96.0
367,64.0,0,512,4.0,96.0
368,69.0,0,1024,0.0,96.0
369,65.0,0,0,1.0,96.0
370,46.0,512,512,3.0,96.0
371,62.0,0,512,4.0,96.0
372,43.0,512,512,3.0,96.0
373,62.0,0,1024,2.0,96.0
374,70.0,0,1024,4.0,96.0
375,60.0,512,512,2.0,96.0
376,69.0,512,256,4.0,96.0
377,64.0,0,1024,1.0,96.0
378,67.0,0,2048,0.0,96.0
379,67.0,256,256,4.0,96.0
380,58.0,0,512,2.0,96.0
381,48.0,0,1024,3.0,96.0
382,69.0,0,512,4.0,96.0
383,72.0,512,512,4.0,96.0
384,74.0,512,512,4.0,96.0
385,76.0,512,512,4.0,96.0
386,65.0,0,2458,1.0,96.0
387,41.0,256,2458,3.0,96.0
388,65.0,0,2458,0.0,96.0
389,57.0,0,2458,2.0,96.0
390,77.0,0,512,4.0,96.0
391,38.0,512,512,3.0,96.0
392,62.0,0,512,2.0,96.0
393,60.0,0,512,2.0,96.0
394,69.0,0,512,4.0,96.0
395,41.0,512,512,3.0,96.0
396,77.0,0,1024,0.0,96.0
397,69.0,0,1024,1.0,96.0
398,70.0,0,512,4.0,96.0
399,43.0,0,512,3.0,96.0
400,72.0,512,512,4.0,96.0
401,58.0,0,1024,2.0,96.0
402,76.0,0,1024,0.0,96.0
403,45.0,0,512,3.0,96.0
404,67.0,512,1024,1.0,96.0
405,74.0,512,512,4.0,96.0
406,58.0,0,512,2.0,96.0
407,65.0,0,1024,1.0,96.0
408,74.0,0,1024,0.0,96.0
409,57.0,0,512,2.0,96.0
410,46.0,0,1024,3.0,96.0
411,82.0,512,1024,4.0,96.0
412,72.0,0,1024,0.0,96.0
413,48.0,0,1024,3.0,96.0
414,55.0,0,1024,2.0,96.0
415,64.0,512,1024,1.0,96.0
416,81.0,512,1024,4.0,96.0
417,53.0,0,512,2.0,96.0
418,50.0,0,512,3.0,96.0
419,70.0,512,1024,0.0,96.0
420,52.0,0,512,3.0,96.0
421,62.0,0,1024,1.0,96.0
422,55.0,512,512,2.0,96.0
423,53.0,0,512,3.0,96.0
424,57.0,0,512,2.0,96.0
425,79.0,0,1024,4.0,96.0
426,60.0,0,1024,1.0,96.0
427,45.0,512,512,3.0,96.0
428,69.0,512,1024,0.0,96.0
429,60.0,0,512,2.0,96.0
430,46.0,0,512,3.0,96.0
431,77.0,0,1024,4.0,96.0
432,58.0,0,768,2.0,96.0
433,79.0,0,256,4.0,96.0
434,81.0,0,256,4.0,96.0
435,57.0,256,256,2.0,96.0
436,43.0,512,512,3.0,96.0
437,62.0,0,1024,1.0,96.0
438,48.0,0,1024,3.0,96.0
439,67.0,512,2048,0.0,96.0
440,76.0,0,1024,4.0,96.0
441,55.0,0,1024,2.0,96.0
442,60.0,256,1024,1.0,96.0
443,41.0,1024,1229,3.0,96.0
444,65.0,0,1229,0.0,96.0
445,60.0,0,1229,1.0,96.0
446,77.0,0,1229,4.0,96.0
447,57.0,0,1229,2.0,96.0
