,note,step,duration,channel,velocity
0,69.0,0,1024,1.0,96.0
1,64.0,0,1024,2.0,96.0
2,57.0,0,1024,3.0,96.0
3,73.0,0,1024,0.0,96.0
4,74.0,0,1024,0.0,96.0
5,69.0,1024,1024,1.0,96.0
6,66.0,0,1024,2.0,96.0
7,54.0,0,1024,3.0,96.0
8,64.0,0,512,2.0,96.0
9,68.0,0,1024,1.0,96.0
10,49.0,1024,1024,3.0,96.0
11,76.0,0,0,0.0,96.0
12,62.0,512,512,2.0,96.0
13,69.0,1024,0,1.0,96.0
14,54.0,0,1024,3.0,96.0
15,61.0,0,1024,2.0,96.0
16,68.0,512,512,1.0,96.0
17,74.0,0,1024,0.0,96.0
18,47.0,0,1024,3.0,96.0
19,62.0,0,1024,2.0,96.0
20,49.0,512,512,3.0,96.0
21,69.0,0,1024,1.0,96.0
22,50.0,512,512,3.0,96.0
23,73.0,0,1024,0.0,96.0
24,64.0,512,0,2.0,96.0
25,52.0,0,1024,3.0,96.0
26,68.0,0,1024,1.0,96.0
27,71.0,0,0,0.0,96.0
28,68.0,0,1024,1.0,96.0
29,64.0,0,1024,2.0,96.0
30,52.0,1024,1024,3.0,96.0
31,57.0,0,512,3.0,96.0
32,56.0,512,512,3.0,96.0
33,64.0,0,1024,2.0,96.0
34,69.0,1024,1024,1.0,96.0
35,73.0,0,1024,0.0,96.0
36,66.0,0,1024,2.0,96.0
37,74.0,0,1024,0.0,96.0
38,69.0,0,1024,1.0,96.0
39,54.0,512,1024,3.0,96.0
40,76.0,1024,512,0.0,96.0
41,74.0,512,512,0.0,96.0
42,56.0,0,1024,3.0,96.0
43,71.0,0,1536,1.0,96.0
44,64.0,0,1536,2.0,96.0
45,66.0,0,256,2.0,96.0
46,73.0,512,1024,0.0,96.0
47,67.0,256,256,2.0,96.0
48,57.0,0,1024,3.0,96.0
49,69.0,0,0,1.0,96.0
50,66.0,0,1024,2.0,96.0
51,71.0,256,1024,0.0,96.0
52,50.0,0,1024,3.0,96.0
53,64.0,0,512,2.0,96.0
54,68.0,1024,1024,1.0,96.0
55,52.0,0,1024,3.0,96.0
56,71.0,0,1024,0.0,96.0
57,62.0,512,512,2.0,96.0
58,45.0,512,2048,3.0,96.0
59,64.0,0,2048,1.0,96.0
60,69.0,0,2048,0.0,96.0
61,61.0,0,2048,2.0,96.0
62,64.0,0,1024,2.0,96.0
63,69.0,2048,1024,1.0,96.0
64,57.0,0,1024,3.0,96.0
65,73.0,0,1024,0.0,96.0
66,74.0,0,1024,0.0,96.0
67,66.0,0,1024,2.0,96.0
68,54.0,1024,1024,3.0,96.0
69,69.0,0,1024,1.0,96.0
70,64.0,0,512,2.0,96.0
71,62.0,512,512,2.0,96.0
72,49.0,0,1024,3.0,96.0
73,76.0,0,1024,0.0,96.0
74,68.0,1024,1024,1.0,96.0
75,69.0,0,1024,1.0,96.0
76,61.0,512,1024,2.0,96.0
77,76.0,0,1024,0.0,96.0
78,54.0,0,1024,3.0,96.0
79,69.0,1024,512,1.0,96.0
80,62.0,0,1024,2.0,96.0
81,74.0,0,1024,0.0,96.0
82,47.0,0,1024,3.0,96.0
83,68.0,512,512,1.0,96.0
84,49.0,0,512,3.0,96.0
85,73.0,0,1024,0.0,96.0
86,69.0,0,1024,1.0,96.0
87,64.0,512,1024,2.0,96.0
88,50.0,512,512,3.0,96.0
89,64.0,1024,0,2.0,96.0
90,52.0,0,1024,3.0,96.0
91,68.0,0,1024,1.0,96.0
92,71.0,0,0,0.0,96.0
93,52.0,0,1024,3.0,96.0
94,68.0,0,1024,1.0,96.0
95,64.0,0,0,2.0,96.0
96,57.0,0,512,3.0,96.0
97,56.0,512,512,3.0,96.0
98,73.0,0,1024,0.0,96.0
99,69.0,0,0,1.0,96.0
100,54.0,512,1024,3.0,96.0
101,66.0,0,1024,2.0,96.0
102,74.0,0,1024,0.0,96.0
103,76.0,0,512,0.0,96.0
104,56.0,0,1024,3.0,96.0
105,74.0,512,512,0.0,96.0
106,71.0,1024,1536,1.0,96.0
107,64.0,0,1536,2.0,96.0
108,66.0,512,256,2.0,96.0
109,67.0,256,256,2.0,96.0
110,57.0,512,1024,3.0,96.0
111,73.0,0,1024,0.0,96.0
112,69.0,256,0,1.0,96.0
113,66.0,0,1024,2.0,96.0
114,50.0,0,1024,3.0,96.0
115,71.0,0,0,0.0,96.0
116,64.0,0,512,2.0,96.0
117,52.0,0,1024,3.0,96.0
118,68.0,1024,1024,1.0,96.0
119,62.0,512,512,2.0,96.0
120,61.0,0,2048,2.0,96.0
121,45.0,512,2048,3.0,96.0
122,69.0,0,2048,0.0,96.0
123,64.0,0,2048,1.0,96.0
124,68.0,0,1024,1.0,96.0
125,71.0,0,1024,0.0,96.0
126,52.0,2048,1024,3.0,96.0
127,64.0,0,1024,2.0,96.0
128,50.0,0,512,3.0,96.0
129,64.0,0,1024,2.0,96.0
130,70.0,1024,1024,1.0,96.0
131,49.0,512,512,3.0,96.0
132,73.0,0,1024,0.0,96.0
133,47.0,0,512,3.0,96.0
134,49.0,512,512,3.0,96.0
135,74.0,0,1024,0.0,96.0
136,66.0,0,0,2.0,96.0
137,71.0,0,1024,1.0,96.0
138,50.0,512,512,3.0,96.0
139,71.0,0,1024,1.0,96.0
140,66.0,512,0,2.0,96.0
141,74.0,0,1024,0.0,96.0
142,52.0,512,512,3.0,96.0
143,73.0,0,1024,0.0,96.0
144,67.0,512,512,2.0,96.0
145,71.0,0,1024,1.0,96.0
146,54.0,0,0,3.0,96.0
147,66.0,512,512,2.0,96.0
148,70.0,0,1024,1.0,96.0
149,64.0,512,512,2.0,96.0
150,73.0,0,1024,0.0,96.0
151,47.0,0,2048,3.0,96.0
152,66.0,0,0,1.0,96.0
153,71.0,512,2048,0.0,96.0
154,62.0,0,0,2.0,96.0
155,59.0,0,1024,3.0,96.0
156,74.0,2048,1024,0.0,96.0
157,57.0,0,512,3.0,96.0
158,55.0,512,512,3.0,96.0
159,69.0,0,1024,1.0,96.0
160,61.0,1024,1024,2.0,96.0
161,76.0,0,1024,0.0,96.0
162,54.0,0,512,3.0,96.0
163,52.0,512,512,3.0,96.0
164,62.0,512,1024,2.0,96.0
165,78.0,0,0,0.0,96.0
166,69.0,0,1536,1.0,96.0
167,71.0,512,256,1.0,96.0
168,72.0,256,256,1.0,96.0
169,62.0,256,0,2.0,96.0
170,50.0,512,1024,3.0,96.0
171,71.0,0,1024,1.0,96.0
172,55.0,0,1024,3.0,96.0
173,76.0,1024,0,0.0,96.0
174,69.0,0,512,1.0,96.0
175,61.0,0,1024,2.0,96.0
176,67.0,512,512,1.0,96.0
177,57.0,0,1024,3.0,96.0
178,74.0,0,2048,0.0,96.0
179,66.0,0,2048,1.0,96.0
180,50.0,512,2048,3.0,96.0
181,57.0,0,2048,2.0,96.0
182,57.0,0,512,3.0,96.0
183,56.0,512,512,3.0,96.0
184,64.0,0,1024,1.0,96.0
185,73.0,2048,1024,0.0,96.0
186,57.0,0,0,2.0,96.0
187,69.0,0,1024,1.0,96.0
188,74.0,0,1024,0.0,96.0
189,54.0,512,1024,3.0,96.0
190,64.0,1024,512,1.0,96.0
191,55.0,0,1024,3.0,96.0
192,66.0,512,512,1.0,96.0
193,76.0,0,0,0.0,96.0
194,59.0,0,1024,2.0,96.0
195,46.0,512,1024,3.0,96.0
196,67.0,0,1024,1.0,96.0
197,66.0,0,512,1.0,96.0
198,61.0,0,1536,2.0,96.0
199,68.0,0,512,1.0,96.0
200,74.0,0,1024,0.0,96.0
201,47.0,1024,1024,3.0,96.0
202,64.0,512,512,1.0,96.0
203,49.0,0,512,3.0,96.0
204,59.0,512,1024,2.0,96.0
205,66.0,512,512,1.0,96.0
206,50.0,0,512,3.0,96.0
207,73.0,0,1024,0.0,96.0
208,57.0,0,512,2.0,96.0
209,71.0,1024,0,0.0,96.0
210,68.0,0,0,1.0,96.0
211,64.0,0,1024,2.0,96.0
212,52.0,0,1024,3.0,96.0
213,64.0,0,1024,2.0,96.0
214,52.0,0,1024,3.0,96.0
215,45.0,0,512,3.0,96.0
216,57.0,512,512,3.0,96.0
217,73.0,1024,1024,0.0,96.0
218,69.0,512,0,1.0,96.0
219,64.0,0,1024,2.0,96.0
220,56.0,0,512,3.0,96.0
221,66.0,0,1024,2.0,96.0
222,74.0,0,1024,0.0,96.0
223,54.0,512,512,3.0,96.0
224,76.0,0,512,0.0,96.0
225,71.0,0,512,1.0,96.0
226,56.0,0,512,3.0,96.0
227,52.0,512,512,3.0,96.0
228,68.0,0,512,1.0,96.0
229,74.0,0,512,0.0,96.0
230,64.0,512,1024,2.0,96.0
231,57.0,512,512,3.0,96.0
232,64.0,0,1024,2.0,96.0
233,73.0,0,1024,0.0,96.0
234,69.0,0,1024,1.0,96.0
235,49.0,512,512,3.0,96.0
236,50.0,0,512,3.0,96.0
237,69.0,0,1024,1.0,96.0
238,66.0,512,1024,2.0,96.0
239,71.0,0,0,0.0,96.0
240,47.0,512,512,3.0,96.0
241,64.0,0,512,2.0,96.0
242,52.0,0,1024,3.0,96.0
243,68.0,512,1024,1.0,96.0
244,62.0,512,512,2.0,96.0
245,61.0,0,2048,2.0,96.0
246,45.0,512,2048,3.0,96.0
247,69.0,0,2048,0.0,96.0
248,64.0,0,2048,1.0,96.0
