,note,step,duration,channel,velocity
0,43.0,0,512,3.0,96.0
1,58.0,0,1024,2.0,96.0
2,45.0,512,512,3.0,96.0
3,62.0,0,0,1.0,96.0
4,67.0,0,1024,0.0,96.0
5,46.0,0,512,3.0,96.0
6,48.0,512,512,3.0,96.0
7,67.0,0,1024,0.0,96.0
8,58.0,512,1024,2.0,96.0
9,62.0,0,0,1.0,96.0
10,50.0,512,512,3.0,96.0
11,66.0,0,1024,0.0,96.0
12,57.0,0,1024,2.0,96.0
13,48.0,512,512,3.0,96.0
14,46.0,0,512,3.0,96.0
15,67.0,0,1024,0.0,96.0
16,43.0,512,512,3.0,96.0
17,58.0,512,1024,2.0,96.0
18,62.0,0,1024,1.0,96.0
19,63.0,512,512,1.0,96.0
20,62.0,512,512,1.0,96.0
21,69.0,0,1024,0.0,96.0
22,42.0,0,1024,3.0,96.0
23,60.0,0,1024,2.0,96.0
24,58.0,0,512,2.0,96.0
25,62.0,512,512,1.0,96.0
26,62.0,512,512,2.0,96.0
27,43.0,0,1024,3.0,96.0
28,70.0,0,1024,0.0,96.0
29,67.0,0,0,1.0,96.0
30,48.0,512,1024,3.0,96.0
31,63.0,0,1024,2.0,96.0
32,62.0,0,512,2.0,96.0
33,50.0,0,1024,3.0,96.0
34,60.0,512,512,2.0,96.0
35,69.0,0,2048,0.0,96.0
36,66.0,1024,1024,1.0,96.0
37,58.0,512,2048,2.0,96.0
38,67.0,0,2048,0.0,96.0
39,62.0,0,2048,1.0,96.0
40,46.0,0,2048,3.0,96.0
41,43.0,0,512,3.0,96.0
42,67.0,0,0,0.0,96.0
43,58.0,0,1024,2.0,96.0
44,62.0,0,1024,1.0,96.0
45,45.0,512,512,3.0,96.0
46,46.0,512,512,3.0,96.0
47,62.0,0,1024,1.0,96.0
48,48.0,512,512,3.0,96.0
49,58.0,0,1024,2.0,96.0
50,50.0,0,512,3.0,96.0
51,62.0,512,1024,1.0,96.0
52,48.0,512,512,3.0,96.0
53,57.0,0,1024,2.0,96.0
54,66.0,0,1024,0.0,96.0
55,46.0,0,512,3.0,96.0
56,67.0,0,1024,0.0,96.0
57,58.0,512,1024,2.0,96.0
58,43.0,512,512,3.0,96.0
59,62.0,0,1024,1.0,96.0
60,63.0,0,512,1.0,96.0
61,60.0,512,1024,2.0,96.0
62,69.0,0,1024,0.0,96.0
63,42.0,0,1024,3.0,96.0
64,62.0,0,0,1.0,96.0
65,58.0,0,512,2.0,96.0
66,67.0,512,0,1.0,96.0
67,43.0,512,1024,3.0,96.0
68,70.0,0,1024,0.0,96.0
69,62.0,0,512,2.0,96.0
70,48.0,0,1024,3.0,96.0
71,63.0,0,1024,2.0,96.0
72,62.0,0,512,2.0,96.0
73,50.0,0,1024,3.0,96.0
74,66.0,1024,1024,1.0,96.0
75,69.0,0,2048,0.0,96.0
76,60.0,512,512,2.0,96.0
77,46.0,512,2048,3.0,96.0
78,67.0,0,2048,0.0,96.0
79,58.0,0,2048,2.0,96.0
80,62.0,0,2048,1.0,96.0
81,55.0,2048,1024,3.0,96.0
82,62.0,0,0,2.0,96.0
83,70.0,0,1024,0.0,96.0
84,67.0,0,1024,1.0,96.0
85,67.0,0,512,1.0,96.0
86,60.0,256,256,2.0,96.0
87,66.0,512,512,1.0,96.0
88,69.0,0,1024,0.0,96.0
89,50.0,1024,1024,3.0,96.0
90,58.0,256,512,2.0,96.0
91,51.0,0,1024,3.0,96.0
92,67.0,0,0,1.0,96.0
93,60.0,512,512,2.0,96.0
94,67.0,0,1024,0.0,96.0
95,62.0,0,1024,2.0,96.0
96,70.0,0,1024,0.0,96.0
97,46.0,512,1024,3.0,96.0
98,65.0,512,512,1.0,96.0
99,63.0,0,512,1.0,96.0
100,62.0,512,512,1.0,96.0
101,69.0,0,1024,0.0,96.0
102,60.0,512,1024,2.0,96.0
103,48.0,0,1024,3.0,96.0
104,58.0,0,512,2.0,96.0
105,57.0,0,0,2.0,96.0
106,67.0,512,1024,0.0,96.0
107,64.0,0,1024,1.0,96.0
108,49.0,0,1024,3.0,96.0
109,50.0,512,2048,3.0,96.0
110,62.0,0,2048,1.0,96.0
111,66.0,0,2048,0.0,96.0
112,50.0,0,512,3.0,96.0
113,57.0,0,512,1.0,96.0
114,53.0,0,1024,2.0,96.0
115,65.0,2048,1024,0.0,96.0
116,58.0,512,512,1.0,96.0
117,48.0,0,512,3.0,96.0
118,46.0,0,512,3.0,96.0
119,63.0,512,1024,0.0,96.0
120,53.0,512,0,2.0,96.0
121,60.0,0,1024,1.0,96.0
122,45.0,512,512,3.0,96.0
123,46.0,0,512,3.0,96.0
124,58.0,0,512,1.0,96.0
125,45.0,512,512,3.0,96.0
126,62.0,0,1024,0.0,96.0
127,60.0,0,512,1.0,96.0
128,43.0,512,512,3.0,96.0
129,62.0,0,1024,1.0,96.0
130,67.0,0,1024,0.0,96.0
131,58.0,0,1024,2.0,96.0
132,46.0,512,512,3.0,96.0
133,48.0,0,512,3.0,96.0
134,45.0,512,512,3.0,96.0
135,63.0,0,1024,1.0,96.0
136,67.0,0,1024,0.0,96.0
137,57.0,512,1280,2.0,96.0
138,58.0,256,256,2.0,96.0
139,60.0,256,512,2.0,96.0
140,66.0,0,1024,0.0,96.0
141,50.0,512,1024,3.0,96.0
142,62.0,0,0,1.0,96.0
143,67.0,0,2048,0.0,96.0
144,58.0,0,2048,2.0,96.0
145,43.0,512,2048,3.0,96.0
146,62.0,0,1024,2.0,96.0
147,55.0,0,1024,3.0,96.0
148,67.0,0,1024,1.0,96.0
149,70.0,2048,1024,0.0,96.0
150,53.0,0,512,3.0,96.0
151,69.0,0,1024,1.0,96.0
152,65.0,1024,1024,2.0,96.0
153,51.0,512,512,3.0,96.0
154,72.0,0,1024,0.0,96.0
155,50.0,512,512,3.0,96.0
156,74.0,512,0,0.0,96.0
157,65.0,0,1024,2.0,96.0
158,48.0,512,512,3.0,96.0
159,70.0,0,0,1.0,96.0
160,65.0,0,1024,2.0,96.0
161,68.0,512,512,1.0,96.0
162,67.0,0,512,1.0,96.0
163,63.0,0,512,2.0,96.0
164,46.0,0,1536,3.0,96.0
165,60.0,0,512,2.0,96.0
166,45.0,0,512,3.0,96.0
167,72.0,512,1024,0.0,96.0
168,65.0,0,0,1.0,96.0
169,62.0,512,512,2.0,96.0
170,46.0,0,512,3.0,96.0
171,50.0,512,512,3.0,96.0
172,70.0,0,1024,0.0,96.0
173,58.0,0,1024,2.0,96.0
174,51.0,0,512,3.0,96.0
175,57.0,0,256,2.0,96.0
176,55.0,256,256,2.0,96.0
177,67.0,512,1024,1.0,96.0
178,48.0,512,512,3.0,96.0
179,65.0,0,512,1.0,96.0
180,53.0,0,1024,3.0,96.0
181,57.0,256,1024,2.0,96.0
182,72.0,0,2048,0.0,96.0
183,63.0,512,512,1.0,96.0
184,58.0,0,2048,2.0,96.0
185,46.0,0,0,3.0,96.0
186,70.0,0,2048,0.0,96.0
187,62.0,0,2048,1.0,96.0
188,65.0,1024,0,1.0,96.0
189,62.0,2048,1024,2.0,96.0
190,70.0,0,1024,0.0,96.0
191,45.0,512,512,3.0,96.0
192,72.0,0,1024,0.0,96.0
193,60.0,0,1024,2.0,96.0
194,46.0,512,512,3.0,96.0
195,60.0,0,512,2.0,96.0
196,58.0,0,256,2.0,96.0
197,53.0,512,512,3.0,96.0
198,74.0,0,1024,0.0,96.0
199,65.0,0,0,1.0,96.0
200,57.0,256,256,2.0,96.0
201,58.0,256,1024,2.0,96.0
202,58.0,0,1024,3.0,96.0
203,74.0,0,1024,0.0,96.0
204,65.0,0,512,1.0,96.0
205,53.0,0,1024,3.0,96.0
206,72.0,1024,1024,0.0,96.0
207,57.0,0,1024,2.0,96.0
208,63.0,512,512,1.0,96.0
209,55.0,0,512,3.0,96.0
210,62.0,512,1024,1.0,96.0
211,58.0,512,0,2.0,96.0
212,70.0,0,1024,0.0,96.0
213,53.0,512,512,3.0,96.0
214,51.0,0,1024,3.0,96.0
215,67.0,0,1024,1.0,96.0
216,65.0,0,512,1.0,96.0
217,57.0,1024,1024,2.0,96.0
218,53.0,0,1024,3.0,96.0
219,72.0,0,2048,0.0,96.0
220,63.0,512,512,1.0,96.0
221,53.0,0,2048,2.0,96.0
222,46.0,0,2048,3.0,96.0
223,70.0,0,0,0.0,96.0
224,62.0,0,2048,1.0,96.0
225,43.0,2048,1024,3.0,96.0
226,55.0,0,1024,2.0,96.0
227,62.0,0,0,1.0,96.0
228,69.0,0,1024,0.0,96.0
229,60.0,512,512,1.0,96.0
230,54.0,0,1024,2.0,96.0
231,50.0,1024,1024,3.0,96.0
232,67.0,0,1024,0.0,96.0
233,55.0,0,1024,2.0,96.0
234,58.0,512,1024,1.0,96.0
235,51.0,0,1536,3.0,96.0
236,63.0,0,512,1.0,96.0
237,70.0,1024,1024,0.0,96.0
238,55.0,0,1024,2.0,96.0
239,62.0,0,512,1.0,96.0
240,52.0,512,512,3.0,96.0
241,60.0,0,512,1.0,96.0
242,53.0,0,512,3.0,96.0
243,69.0,512,1024,0.0,96.0
244,62.0,512,0,1.0,96.0
245,54.0,0,512,3.0,96.0
246,57.0,0,1024,2.0,96.0
247,55.0,0,512,3.0,96.0
248,58.0,0,1024,2.0,96.0
249,43.0,512,512,3.0,96.0
250,67.0,0,1024,0.0,96.0
251,62.0,0,0,1.0,96.0
252,50.0,0,2048,3.0,96.0
253,66.0,0,2048,0.0,96.0
254,57.0,512,2048,2.0,96.0
255,47.0,2048,1024,3.0,96.0
256,62.0,0,0,1.0,96.0
257,55.0,0,0,2.0,96.0
258,65.0,0,1024,0.0,96.0
259,60.0,512,256,1.0,96.0
260,63.0,0,1024,0.0,96.0
261,58.0,256,256,1.0,96.0
262,48.0,1024,1536,3.0,96.0
263,46.0,512,256,3.0,96.0
264,62.0,256,1024,0.0,96.0
265,45.0,256,256,3.0,96.0
266,57.0,0,1024,1.0,96.0
267,54.0,0,1024,2.0,96.0
268,46.0,0,512,3.0,96.0
269,55.0,0,512,2.0,96.0
270,43.0,512,512,3.0,96.0
271,58.0,0,512,2.0,96.0
272,67.0,0,0,0.0,96.0
273,62.0,0,1024,1.0,96.0
274,48.0,512,512,3.0,96.0
275,45.0,512,512,3.0,96.0
276,63.0,0,1024,1.0,96.0
277,57.0,0,1536,2.0,96.0
278,50.0,0,1024,3.0,96.0
279,66.0,0,1024,0.0,96.0
280,60.0,512,512,2.0,96.0
281,62.0,512,0,1.0,96.0
282,43.0,0,4096,3.0,96.0
283,67.0,0,4096,0.0,96.0
284,59.0,0,4096,2.0,96.0
