,note,step,duration,channel,velocity
0,62.0,0,1024,1.0,96.0
1,62.0,1024,1024,1.0,96.0
2,62.0,1024,1024,1.0,96.0
3,55.0,0,0,2.0,96.0
4,64.0,1024,0,1.0,96.0
5,62.0,256,256,1.0,96.0
6,64.0,256,256,1.0,96.0
7,55.0,0,1024,2.0,96.0
8,65.0,256,256,1.0,96.0
9,62.0,0,512,1.0,96.0
10,64.0,512,256,1.0,96.0
11,59.0,256,0,2.0,96.0
12,66.0,256,256,1.0,96.0
13,57.0,256,256,2.0,96.0
14,59.0,256,256,2.0,96.0
15,60.0,256,256,2.0,96.0
16,50.0,0,1024,3.0,96.0
17,38.0,0,1024,4.0,96.0
18,57.0,256,512,2.0,96.0
19,59.0,512,256,2.0,96.0
20,38.0,0,1024,4.0,96.0
21,50.0,256,0,3.0,96.0
22,61.0,256,256,2.0,96.0
23,67.0,0,2304,1.0,96.0
24,66.0,256,256,1.0,96.0
25,64.0,256,256,1.0,96.0
26,66.0,256,256,1.0,96.0
27,38.0,0,1024,4.0,96.0
28,67.0,256,512,1.0,96.0
29,69.0,512,256,1.0,96.0
30,52.0,0,0,3.0,96.0
31,71.0,256,256,1.0,96.0
32,40.0,0,1024,4.0,96.0
33,62.0,0,2048,2.0,96.0
34,69.0,256,512,1.0,96.0
35,67.0,512,512,1.0,96.0
36,40.0,0,1024,4.0,96.0
37,66.0,512,512,1.0,96.0
38,50.0,0,512,3.0,96.0
39,38.0,0,512,4.0,96.0
40,52.0,512,256,3.0,96.0
41,67.0,0,256,1.0,96.0
42,40.0,0,256,4.0,96.0
43,54.0,0,256,3.0,96.0
44,42.0,0,256,4.0,96.0
45,69.0,256,256,1.0,96.0
46,60.0,0,2304,2.0,96.0
47,59.0,256,256,2.0,96.0
48,62.0,0,512,1.0,96.0
49,57.0,256,256,2.0,96.0
50,67.0,0,512,1.0,96.0
51,59.0,256,256,2.0,96.0
52,60.0,256,512,2.0,96.0
53,64.0,0,512,1.0,96.0
54,66.0,512,256,1.0,96.0
55,62.0,0,256,2.0,96.0
56,64.0,256,256,2.0,96.0
57,43.0,256,2048,4.0,96.0
58,67.0,0,256,1.0,96.0
59,55.0,0,2048,3.0,96.0
60,62.0,256,512,2.0,96.0
61,42.0,0,1024,4.0,96.0
62,60.0,512,512,2.0,96.0
63,54.0,0,1024,3.0,96.0
64,59.0,0,512,2.0,96.0
65,69.0,0,1536,1.0,96.0
66,55.0,0,512,3.0,96.0
67,43.0,512,512,4.0,96.0
68,45.0,512,256,4.0,96.0
69,57.0,0,256,3.0,96.0
70,60.0,0,256,2.0,96.0
71,62.0,256,256,2.0,96.0
72,59.0,0,256,3.0,96.0
73,47.0,0,256,4.0,96.0
74,67.0,0,512,1.0,96.0
75,45.0,256,512,4.0,96.0
76,64.0,0,512,2.0,96.0
77,57.0,0,512,3.0,96.0
78,66.0,0,256,2.0,96.0
79,55.0,512,512,3.0,96.0
80,43.0,0,512,4.0,96.0
81,67.0,256,256,2.0,96.0
82,69.0,0,512,2.0,96.0
83,54.0,256,512,3.0,96.0
84,72.0,0,1536,1.0,96.0
85,42.0,0,512,4.0,96.0
86,71.0,0,256,1.0,96.0
87,69.0,256,256,1.0,96.0
88,38.0,512,512,4.0,96.0
89,50.0,0,512,3.0,96.0
90,66.0,0,512,2.0,96.0
91,71.0,256,512,1.0,96.0
92,72.0,512,256,1.0,96.0
93,74.0,256,0,0.0,96.0
94,71.0,256,256,1.0,96.0
95,67.0,0,1024,2.0,96.0
96,55.0,0,1536,3.0,96.0
97,43.0,0,1536,4.0,96.0
98,54.0,512,256,3.0,96.0
99,42.0,0,256,4.0,96.0
100,40.0,256,256,4.0,96.0
101,52.0,0,256,3.0,96.0
102,54.0,0,512,3.0,96.0
103,42.0,256,512,4.0,96.0
104,62.0,0,1024,2.0,96.0
105,60.0,0,512,2.0,96.0
106,50.0,512,512,3.0,96.0
107,38.0,0,512,4.0,96.0
108,43.0,0,512,4.0,96.0
109,69.0,0,2560,1.0,96.0
110,55.0,512,512,3.0,96.0
111,67.0,512,256,1.0,96.0
112,47.0,0,512,4.0,96.0
113,66.0,256,256,1.0,96.0
114,59.0,0,512,3.0,96.0
115,59.0,0,1536,2.0,96.0
116,52.0,0,512,3.0,96.0
117,40.0,256,512,4.0,96.0
118,57.0,512,256,2.0,96.0
119,55.0,0,512,3.0,96.0
120,59.0,256,256,2.0,96.0
121,74.0,0,2048,0.0,96.0
122,43.0,0,512,4.0,96.0
123,60.0,0,512,2.0,96.0
124,48.0,256,512,3.0,96.0
125,36.0,0,512,4.0,96.0
126,60.0,0,256,3.0,96.0
127,48.0,0,256,4.0,96.0
128,64.0,512,256,2.0,96.0
129,67.0,0,2048,1.0,96.0
130,62.0,0,256,2.0,96.0
131,47.0,0,256,4.0,96.0
132,59.0,256,256,3.0,96.0
133,60.0,0,512,3.0,96.0
134,48.0,0,512,4.0,96.0
135,64.0,0,512,2.0,96.0
136,69.0,256,512,1.0,96.0
137,76.0,0,2048,0.0,96.0
138,44.0,0,512,4.0,96.0
139,56.0,0,512,3.0,96.0
140,71.0,0,512,1.0,96.0
141,59.0,512,512,2.0,96.0
142,64.0,0,256,1.0,96.0
143,57.0,0,512,3.0,96.0
144,45.0,0,512,4.0,96.0
145,62.0,256,256,1.0,96.0
146,64.0,0,256,1.0,96.0
147,60.0,0,512,3.0,96.0
148,66.0,256,256,1.0,96.0
149,48.0,256,512,4.0,96.0
150,52.0,0,512,3.0,96.0
151,67.0,256,512,1.0,96.0
152,40.0,0,512,4.0,96.0
153,43.0,0,512,4.0,96.0
154,76.0,512,2048,0.0,96.0
155,55.0,0,512,3.0,96.0
156,64.0,512,512,1.0,96.0
157,69.0,512,512,1.0,96.0
158,42.0,0,512,4.0,96.0
159,54.0,0,512,3.0,96.0
160,67.0,512,256,1.0,96.0
161,38.0,0,512,4.0,96.0
162,60.0,0,3072,2.0,96.0
163,66.0,256,256,1.0,96.0
164,50.0,0,512,3.0,96.0
165,55.0,0,512,3.0,96.0
166,43.0,256,512,4.0,96.0
167,59.0,0,512,2.0,96.0
168,60.0,0,256,2.0,96.0
169,59.0,256,256,2.0,96.0
170,43.0,512,512,3.0,96.0
171,31.0,0,512,4.0,96.0
172,57.0,0,512,2.0,96.0
173,55.0,512,512,2.0,96.0
174,67.0,0,2048,1.0,96.0
175,50.0,256,1024,3.0,96.0
176,38.0,0,1024,4.0,96.0
177,57.0,0,512,2.0,96.0
178,59.0,512,256,2.0,96.0
179,26.0,0,1024,4.0,96.0
180,38.0,0,1024,3.0,96.0
181,66.0,512,1024,1.0,96.0
182,74.0,0,4096,0.0,96.0
183,60.0,256,256,2.0,96.0
184,43.0,256,512,3.0,96.0
185,31.0,0,512,4.0,96.0
186,38.0,0,512,4.0,96.0
187,50.0,512,512,3.0,96.0
188,59.0,512,0,2.0,96.0
189,67.0,0,1024,1.0,96.0
190,71.0,512,512,1.0,96.0
191,55.0,0,1536,3.0,96.0
192,43.0,0,1536,4.0,96.0
193,64.0,512,512,1.0,96.0
194,69.0,0,512,1.0,96.0
195,60.0,0,1024,2.0,96.0
196,54.0,0,512,3.0,96.0
197,42.0,512,512,4.0,96.0
198,62.0,0,512,1.0,96.0
199,55.0,0,512,3.0,96.0
200,43.0,512,512,4.0,96.0
201,52.0,0,512,3.0,96.0
202,40.0,0,512,4.0,96.0
203,59.0,0,1024,2.0,96.0
204,36.0,512,512,4.0,96.0
205,48.0,0,512,3.0,96.0
206,67.0,512,1024,1.0,96.0
207,50.0,0,512,3.0,96.0
208,38.0,512,512,4.0,96.0
209,57.0,0,1024,2.0,96.0
210,31.0,0,512,4.0,96.0
211,43.0,512,512,3.0,96.0
212,66.0,0,1024,1.0,96.0
213,59.0,0,1024,2.0,96.0
214,48.0,512,512,3.0,96.0
215,36.0,0,512,4.0,96.0
216,64.0,0,1024,1.0,96.0
217,63.0,512,256,1.0,96.0
218,42.0,512,1024,3.0,96.0
219,30.0,0,1024,4.0,96.0
220,61.0,256,256,1.0,96.0
221,63.0,0,256,1.0,96.0
222,64.0,256,256,1.0,96.0
223,61.0,256,256,1.0,96.0
224,57.0,0,2048,2.0,96.0
225,47.0,256,1024,3.0,96.0
226,35.0,0,1024,4.0,96.0
227,63.0,256,256,1.0,96.0
228,64.0,0,256,1.0,96.0
229,55.0,256,256,2.0,96.0
230,28.0,0,512,4.0,96.0
231,57.0,0,256,2.0,96.0
232,66.0,256,256,1.0,96.0
233,40.0,0,512,3.0,96.0
234,59.0,0,256,2.0,96.0
235,40.0,256,512,4.0,96.0
236,61.0,256,256,2.0,96.0
237,67.0,0,512,1.0,96.0
238,52.0,0,512,3.0,96.0
239,54.0,0,256,3.0,96.0
240,42.0,256,256,4.0,96.0
241,52.0,256,256,3.0,96.0
242,40.0,0,256,4.0,96.0
243,54.0,0,256,3.0,96.0
244,42.0,256,256,4.0,96.0
245,38.0,256,256,4.0,96.0
246,66.0,0,1024,1.0,96.0
247,50.0,0,256,3.0,96.0
248,45.0,0,512,4.0,96.0
249,57.0,0,512,3.0,96.0
250,62.0,0,1536,2.0,96.0
251,33.0,512,512,4.0,96.0
252,64.0,256,1024,1.0,96.0
253,45.0,0,512,3.0,96.0
254,61.0,0,768,2.0,96.0
255,58.0,256,256,2.0,96.0
256,59.0,256,256,2.0,96.0
257,66.0,0,1024,1.0,96.0
258,62.0,256,256,2.0,96.0
259,56.0,256,512,2.0,96.0
260,50.0,512,1536,3.0,96.0
261,38.0,0,1536,4.0,96.0
262,49.0,0,256,3.0,96.0
263,58.0,0,256,2.0,96.0
264,37.0,512,256,4.0,96.0
265,59.0,0,256,2.0,96.0
266,47.0,256,256,3.0,96.0
267,35.0,0,256,4.0,96.0
268,58.0,256,256,2.0,96.0
269,37.0,0,512,4.0,96.0
270,49.0,0,512,3.0,96.0
271,59.0,256,256,2.0,96.0
272,56.0,0,256,2.0,96.0
273,30.0,256,512,4.0,96.0
274,42.0,0,512,3.0,96.0
275,66.0,0,2048,1.0,96.0
276,58.0,256,256,2.0,96.0
277,59.0,0,256,2.0,96.0
278,54.0,256,256,2.0,96.0
279,59.0,256,256,2.0,96.0
280,57.0,256,256,2.0,96.0
281,64.0,256,0,1.0,96.0
282,67.0,256,256,1.0,96.0
283,47.0,0,2048,3.0,96.0
284,66.0,256,256,1.0,96.0
285,35.0,256,2048,4.0,96.0
286,55.0,256,1280,2.0,96.0
287,52.0,256,256,2.0,96.0
288,64.0,256,768,1.0,96.0
289,36.0,0,1024,4.0,96.0
290,48.0,0,1024,3.0,96.0
291,72.0,256,256,1.0,96.0
292,62.0,0,256,1.0,96.0
293,57.0,256,1024,2.0,96.0
294,60.0,256,256,1.0,96.0
295,62.0,0,256,1.0,96.0
296,47.0,0,1024,3.0,96.0
297,64.0,256,256,1.0,96.0
298,35.0,256,1024,4.0,96.0
299,60.0,0,256,1.0,96.0
300,55.0,256,1024,2.0,96.0
301,64.0,256,256,1.0,96.0
302,62.0,0,256,1.0,96.0
303,33.0,0,1024,4.0,96.0
304,45.0,256,1024,3.0,96.0
305,60.0,256,256,1.0,96.0
306,62.0,0,256,1.0,96.0
307,60.0,256,256,1.0,96.0
308,54.0,256,1024,2.0,96.0
309,59.0,256,256,1.0,96.0
310,47.0,0,1024,3.0,96.0
311,62.0,256,256,1.0,96.0
312,35.0,256,1024,4.0,96.0
313,55.0,0,1024,2.0,96.0
314,60.0,256,512,1.0,96.0
315,54.0,512,256,2.0,96.0
316,52.0,256,256,2.0,96.0
317,69.0,0,1024,1.0,96.0
318,54.0,256,1024,2.0,96.0
319,60.0,512,512,1.0,96.0
320,45.0,0,2048,3.0,96.0
321,33.0,0,2048,4.0,96.0
322,59.0,512,512,1.0,96.0
323,60.0,512,256,1.0,96.0
324,43.0,0,1024,3.0,96.0
325,31.0,0,1024,4.0,96.0
326,62.0,256,256,1.0,96.0
327,55.0,0,1536,2.0,96.0
328,54.0,512,256,2.0,96.0
329,55.0,256,256,2.0,96.0
330,71.0,0,2048,0.0,96.0
331,64.0,256,1536,1.0,96.0
332,62.0,512,256,1.0,96.0
333,64.0,256,256,1.0,96.0
334,66.0,256,512,1.0,96.0
335,57.0,256,1536,2.0,96.0
336,64.0,0,256,1.0,96.0
337,55.0,512,256,2.0,96.0
338,57.0,0,256,2.0,96.0
339,66.0,256,256,1.0,96.0
340,72.0,0,2048,0.0,96.0
341,59.0,256,512,2.0,96.0
342,60.0,512,256,2.0,96.0
343,43.0,0,512,3.0,96.0
344,31.0,0,512,4.0,96.0
345,62.0,256,256,2.0,96.0
346,64.0,256,512,2.0,96.0
347,67.0,0,1536,1.0,96.0
348,66.0,512,512,1.0,96.0
349,62.0,0,512,2.0,96.0
350,71.0,0,2048,0.0,96.0
351,55.0,0,1536,3.0,96.0
352,43.0,0,1536,4.0,96.0
353,42.0,0,256,4.0,96.0
354,54.0,512,256,3.0,96.0
355,40.0,256,256,4.0,96.0
356,52.0,0,256,3.0,96.0
357,64.0,0,1024,1.0,96.0
358,54.0,256,512,3.0,96.0
359,42.0,0,512,4.0,96.0
360,60.0,512,2048,2.0,96.0
361,50.0,0,512,3.0,96.0
362,69.0,0,2048,0.0,96.0
363,38.0,512,512,4.0,96.0
364,43.0,0,512,4.0,96.0
365,55.0,0,512,3.0,96.0
366,62.0,0,1536,1.0,96.0
367,64.0,0,256,1.0,96.0
368,66.0,256,256,1.0,96.0
369,39.0,512,512,4.0,96.0
370,51.0,0,512,3.0,96.0
371,59.0,512,1536,2.0,96.0
372,52.0,0,512,3.0,96.0
373,40.0,256,512,4.0,96.0
374,60.0,512,256,2.0,96.0
375,35.0,0,512,4.0,96.0
376,62.0,256,256,2.0,96.0
377,71.0,0,2048,0.0,96.0
378,47.0,0,512,3.0,96.0
379,67.0,0,1280,1.0,96.0
380,69.0,256,256,1.0,96.0
381,67.0,256,256,1.0,96.0
382,36.0,256,1024,4.0,96.0
383,64.0,0,1024,2.0,96.0
384,48.0,0,1024,3.0,96.0
385,66.0,256,256,1.0,96.0
386,64.0,512,512,2.0,96.0
387,49.0,0,512,3.0,96.0
388,37.0,0,512,4.0,96.0
389,67.0,256,1280,1.0,96.0
390,57.0,512,512,2.0,96.0
391,67.0,256,256,1.0,96.0
392,66.0,0,256,1.0,96.0
393,64.0,256,256,1.0,96.0
394,38.0,0,1024,4.0,96.0
395,50.0,0,1024,3.0,96.0
396,62.0,256,1024,2.0,96.0
397,51.0,512,512,3.0,96.0
398,69.0,0,4096,0.0,96.0
399,60.0,0,512,2.0,96.0
400,39.0,0,512,4.0,96.0
401,66.0,256,1280,1.0,96.0
402,66.0,256,256,1.0,96.0
403,64.0,256,256,1.0,96.0
404,63.0,256,256,1.0,96.0
405,40.0,0,1024,4.0,96.0
406,52.0,512,1024,3.0,96.0
407,59.0,0,1280,2.0,96.0
408,57.0,256,256,2.0,96.0
409,59.0,0,256,2.0,96.0
410,40.0,0,512,4.0,96.0
411,52.0,256,512,3.0,96.0
412,64.0,256,1024,1.0,96.0
413,60.0,256,256,2.0,96.0
414,62.0,0,256,2.0,96.0
415,60.0,256,256,2.0,96.0
416,59.0,256,256,2.0,96.0
417,57.0,256,256,2.0,96.0
418,47.0,0,1024,3.0,96.0
419,62.0,0,1024,1.0,96.0
420,35.0,256,1024,4.0,96.0
421,55.0,256,256,2.0,96.0
422,53.0,256,256,2.0,96.0
423,52.0,0,256,2.0,96.0
424,50.0,256,256,2.0,96.0
425,35.0,0,512,4.0,96.0
426,47.0,256,512,3.0,96.0
427,52.0,0,1024,2.0,96.0
428,36.0,0,1024,4.0,96.0
429,55.0,512,512,1.0,96.0
430,48.0,256,1024,3.0,96.0
431,57.0,512,512,1.0,96.0
432,31.0,512,512,4.0,96.0
433,43.0,0,512,3.0,96.0
434,50.0,0,512,2.0,96.0
435,67.0,0,6144,0.0,96.0
436,59.0,0,512,1.0,96.0
437,60.0,0,512,1.0,96.0
438,52.0,512,512,2.0,96.0
439,36.0,0,768,3.0,96.0
440,24.0,0,768,4.0,96.0
441,48.0,256,256,3.0,96.0
442,36.0,0,256,4.0,96.0
443,62.0,512,512,1.0,96.0
444,54.0,0,512,2.0,96.0
445,47.0,0,256,3.0,96.0
446,35.0,0,256,4.0,96.0
447,55.0,256,512,2.0,96.0
448,48.0,0,256,3.0,96.0
449,36.0,256,256,4.0,96.0
450,64.0,0,512,1.0,96.0
451,45.0,0,256,3.0,96.0
452,33.0,0,256,4.0,96.0
453,66.0,0,512,1.0,96.0
454,35.0,256,256,4.0,96.0
455,47.0,0,256,3.0,96.0
456,57.0,256,512,2.0,96.0
457,43.0,0,1024,3.0,96.0
458,67.0,0,1024,1.0,96.0
459,31.0,256,1024,4.0,96.0
460,59.0,0,1024,2.0,96.0
461,62.0,1024,1024,1.0,96.0
462,62.0,1024,1024,1.0,96.0
463,62.0,0,1024,1.0,96.0
464,55.0,0,0,2.0,96.0
465,64.0,1024,1024,1.0,96.0
466,64.0,0,256,1.0,96.0
467,62.0,256,256,1.0,96.0
468,64.0,256,256,1.0,96.0
469,65.0,256,256,1.0,96.0
470,55.0,1024,1024,2.0,96.0
471,62.0,0,512,1.0,96.0
472,64.0,512,256,1.0,96.0
473,66.0,256,256,1.0,96.0
474,59.0,256,1024,2.0,96.0
475,59.0,0,256,2.0,96.0
476,57.0,256,256,2.0,96.0
477,59.0,256,256,2.0,96.0
478,50.0,0,1024,3.0,96.0
479,38.0,0,0,4.0,96.0
480,60.0,256,256,2.0,96.0
481,57.0,0,512,2.0,96.0
482,59.0,512,256,2.0,96.0
483,50.0,256,1024,3.0,96.0
484,61.0,256,256,2.0,96.0
485,67.0,256,2304,1.0,96.0
486,66.0,256,256,1.0,96.0
487,64.0,256,256,1.0,96.0
488,66.0,256,256,1.0,96.0
489,50.0,0,1024,3.0,96.0
490,38.0,256,1024,4.0,96.0
491,67.0,0,512,1.0,96.0
492,69.0,512,256,1.0,96.0
493,71.0,256,256,1.0,96.0
494,40.0,256,0,4.0,96.0
495,62.0,0,2048,2.0,96.0
496,52.0,256,1024,3.0,96.0
497,69.0,0,512,1.0,96.0
498,67.0,512,512,1.0,96.0
499,52.0,0,1024,3.0,96.0
500,50.0,0,512,3.0,96.0
501,38.0,0,512,4.0,96.0
502,66.0,512,512,1.0,96.0
503,67.0,0,256,1.0,96.0
504,40.0,0,256,4.0,96.0
505,52.0,512,256,3.0,96.0
506,42.0,256,256,4.0,96.0
507,54.0,0,256,3.0,96.0
508,69.0,0,256,1.0,96.0
509,60.0,0,2304,2.0,96.0
510,62.0,0,512,1.0,96.0
511,59.0,256,256,2.0,96.0
512,57.0,256,256,2.0,96.0
513,67.0,0,512,1.0,96.0
514,59.0,256,256,2.0,96.0
515,64.0,0,512,1.0,96.0
516,60.0,256,512,2.0,96.0
517,66.0,512,256,1.0,96.0
518,62.0,0,256,2.0,96.0
519,64.0,256,256,2.0,96.0
520,55.0,256,2048,3.0,96.0
521,67.0,0,256,1.0,96.0
522,43.0,0,2048,4.0,96.0
523,62.0,0,512,2.0,96.0
524,42.0,0,1024,4.0,96.0
525,54.0,256,1024,3.0,96.0
526,60.0,512,512,2.0,96.0
527,69.0,0,1536,1.0,96.0
528,55.0,0,512,3.0,96.0
529,43.0,512,512,4.0,96.0
530,59.0,0,512,2.0,96.0
531,45.0,0,256,4.0,96.0
532,60.0,0,256,2.0,96.0
533,57.0,512,256,3.0,96.0
534,59.0,0,256,3.0,96.0
535,67.0,0,512,1.0,96.0
536,47.0,256,256,4.0,96.0
537,62.0,0,256,2.0,96.0
538,57.0,0,512,3.0,96.0
539,64.0,0,512,2.0,96.0
540,45.0,256,512,4.0,96.0
541,66.0,0,256,2.0,96.0
542,43.0,0,512,4.0,96.0
543,55.0,512,512,3.0,96.0
544,67.0,256,256,2.0,96.0
545,72.0,0,1536,1.0,96.0
546,54.0,0,512,3.0,96.0
547,69.0,256,512,2.0,96.0
548,42.0,0,512,4.0,96.0
549,71.0,512,256,1.0,96.0
550,50.0,0,512,3.0,96.0
551,69.0,256,256,1.0,96.0
552,66.0,0,512,2.0,96.0
553,38.0,0,512,4.0,96.0
554,71.0,0,512,1.0,96.0
555,72.0,512,256,1.0,96.0
556,71.0,256,256,1.0,96.0
557,67.0,256,1024,2.0,96.0
558,74.0,0,2048,0.0,96.0
559,43.0,0,1536,4.0,96.0
560,55.0,0,1536,3.0,96.0
561,54.0,0,256,3.0,96.0
562,42.0,0,256,4.0,96.0
563,40.0,0,256,4.0,96.0
564,52.0,256,256,3.0,96.0
565,62.0,512,1024,2.0,96.0
566,54.0,256,512,3.0,96.0
567,42.0,0,512,4.0,96.0
568,60.0,512,512,2.0,96.0
569,38.0,0,512,4.0,96.0
570,74.0,0,2048,0.0,96.0
571,50.0,0,512,3.0,96.0
572,43.0,0,512,4.0,96.0
573,69.0,256,2560,1.0,96.0
574,55.0,0,512,3.0,96.0
575,67.0,0,256,1.0,96.0
576,66.0,256,256,1.0,96.0
577,47.0,0,512,4.0,96.0
578,59.0,512,512,3.0,96.0
579,52.0,256,512,3.0,96.0
580,59.0,512,1536,2.0,96.0
581,40.0,0,512,4.0,96.0
582,57.0,0,256,2.0,96.0
583,59.0,256,256,2.0,96.0
584,55.0,512,512,3.0,96.0
585,74.0,0,2048,0.0,96.0
586,43.0,0,512,4.0,96.0
587,36.0,0,512,4.0,96.0
588,48.0,0,512,3.0,96.0
589,60.0,0,512,2.0,96.0
590,48.0,512,256,4.0,96.0
591,60.0,0,256,3.0,96.0
592,64.0,0,256,2.0,96.0
593,47.0,256,256,4.0,96.0
594,67.0,0,2048,1.0,96.0
595,62.0,0,256,2.0,96.0
596,59.0,0,256,3.0,96.0
597,60.0,0,512,3.0,96.0
598,48.0,256,512,4.0,96.0
599,64.0,0,512,2.0,96.0
600,69.0,0,512,1.0,96.0
601,44.0,0,512,4.0,96.0
602,71.0,512,512,1.0,96.0
603,59.0,0,512,2.0,96.0
604,56.0,0,512,3.0,96.0
605,76.0,0,0,0.0,96.0
606,64.0,0,256,1.0,96.0
607,57.0,0,512,3.0,96.0
608,45.0,512,512,4.0,96.0
609,62.0,256,256,1.0,96.0
610,64.0,0,256,1.0,96.0
611,48.0,0,512,4.0,96.0
612,66.0,256,256,1.0,96.0
613,60.0,256,512,3.0,96.0
614,40.0,256,512,4.0,96.0
615,67.0,0,512,1.0,96.0
616,52.0,0,512,3.0,96.0
617,55.0,0,512,3.0,96.0
618,43.0,512,512,4.0,96.0
619,64.0,0,512,1.0,96.0
620,54.0,0,512,3.0,96.0
621,69.0,0,512,1.0,96.0
622,42.0,0,512,4.0,96.0
623,67.0,0,256,1.0,96.0
624,50.0,512,512,3.0,96.0
625,66.0,256,256,1.0,96.0
626,60.0,0,3072,2.0,96.0
627,38.0,0,512,4.0,96.0
628,55.0,0,512,3.0,96.0
629,59.0,0,512,2.0,96.0
630,43.0,256,512,4.0,96.0
631,60.0,0,256,2.0,96.0
632,43.0,512,512,3.0,96.0
633,31.0,0,512,4.0,96.0
634,59.0,256,256,2.0,96.0
635,57.0,0,512,2.0,96.0
636,67.0,0,2048,1.0,96.0
637,50.0,256,1024,3.0,96.0
638,38.0,0,1024,4.0,96.0
639,55.0,512,512,2.0,96.0
640,57.0,0,512,2.0,96.0
641,59.0,512,256,2.0,96.0
642,66.0,0,1024,1.0,96.0
643,74.0,512,4096,0.0,96.0
644,60.0,256,256,2.0,96.0
645,38.0,0,1024,3.0,96.0
646,26.0,512,1024,4.0,96.0
647,43.0,0,512,3.0,96.0
648,31.0,256,512,4.0,96.0
649,59.0,0,1024,2.0,96.0
650,38.0,512,512,4.0,96.0
651,67.0,0,1024,1.0,96.0
652,50.0,0,512,3.0,96.0
653,71.0,512,512,1.0,96.0
654,59.0,0,1024,2.0,96.0
655,43.0,512,1536,4.0,96.0
656,64.0,512,512,1.0,96.0
657,55.0,0,1536,3.0,96.0
658,54.0,0,512,3.0,96.0
659,60.0,0,1024,2.0,96.0
660,69.0,512,512,1.0,96.0
661,42.0,0,512,4.0,96.0
662,62.0,0,512,1.0,96.0
663,55.0,0,512,3.0,96.0
664,43.0,0,512,4.0,96.0
665,59.0,512,1024,2.0,96.0
666,52.0,512,512,3.0,96.0
667,40.0,0,512,4.0,96.0
668,48.0,0,512,3.0,96.0
669,36.0,0,512,4.0,96.0
670,67.0,0,1024,1.0,96.0
671,57.0,512,1024,2.0,96.0
672,38.0,0,512,4.0,96.0
673,50.0,0,512,3.0,96.0
674,31.0,0,512,4.0,96.0
675,43.0,512,512,3.0,96.0
676,66.0,512,1024,1.0,96.0
677,48.0,0,512,3.0,96.0
678,59.0,0,1024,2.0,96.0
679,36.0,512,512,4.0,96.0
680,64.0,0,1024,1.0,96.0
681,63.0,512,256,1.0,96.0
682,61.0,256,256,1.0,96.0
683,42.0,512,1024,3.0,96.0
684,30.0,0,1024,4.0,96.0
685,63.0,0,256,1.0,96.0
686,64.0,256,256,1.0,96.0
687,61.0,256,256,1.0,96.0
688,35.0,0,1024,4.0,96.0
689,63.0,256,256,1.0,96.0
690,47.0,256,1024,3.0,96.0
691,57.0,0,2048,2.0,96.0
692,55.0,0,256,2.0,96.0
693,64.0,0,256,1.0,96.0
694,28.0,256,512,4.0,96.0
695,66.0,256,256,1.0,96.0
696,57.0,0,256,2.0,96.0
697,40.0,0,512,3.0,96.0
698,59.0,0,256,2.0,96.0
699,52.0,0,512,3.0,96.0
700,40.0,256,512,4.0,96.0
701,61.0,256,256,2.0,96.0
702,67.0,0,512,1.0,96.0
703,42.0,0,256,4.0,96.0
704,54.0,0,256,3.0,96.0
705,52.0,0,256,3.0,96.0
706,40.0,256,256,4.0,96.0
707,54.0,0,256,3.0,96.0
708,42.0,256,256,4.0,96.0
709,38.0,0,256,4.0,96.0
710,50.0,256,256,3.0,96.0
711,66.0,256,1024,1.0,96.0
712,45.0,256,512,4.0,96.0
713,57.0,0,512,3.0,96.0
714,62.0,0,1536,2.0,96.0
715,64.0,0,1024,1.0,96.0
716,33.0,512,512,4.0,96.0
717,45.0,0,512,3.0,96.0
718,61.0,0,768,2.0,96.0
719,58.0,256,256,2.0,96.0
720,59.0,256,256,2.0,96.0
721,66.0,0,1024,1.0,96.0
722,62.0,256,256,2.0,96.0
723,56.0,256,512,2.0,96.0
724,38.0,0,1536,4.0,96.0
725,50.0,512,1536,3.0,96.0
726,37.0,0,256,4.0,96.0
727,49.0,0,256,3.0,96.0
728,58.0,512,256,2.0,96.0
729,35.0,256,256,4.0,96.0
730,47.0,0,256,3.0,96.0
731,59.0,0,256,2.0,96.0
732,58.0,0,256,2.0,96.0
733,49.0,0,512,3.0,96.0
734,37.0,256,512,4.0,96.0
735,59.0,256,256,2.0,96.0
736,56.0,0,256,2.0,96.0
737,66.0,0,2048,1.0,96.0
738,42.0,0,512,3.0,96.0
739,58.0,256,256,2.0,96.0
740,30.0,256,512,4.0,96.0
741,59.0,0,256,2.0,96.0
742,54.0,256,256,2.0,96.0
743,59.0,256,256,2.0,96.0
744,57.0,256,256,2.0,96.0
745,64.0,256,1280,1.0,96.0
746,64.0,256,256,1.0,96.0
747,67.0,256,256,1.0,96.0
748,66.0,256,256,1.0,96.0
749,35.0,0,2048,4.0,96.0
750,47.0,0,2048,3.0,96.0
751,55.0,256,1280,2.0,96.0
752,52.0,256,256,2.0,96.0
753,64.0,256,768,1.0,96.0
754,36.0,0,1024,4.0,96.0
755,48.0,0,1024,3.0,96.0
756,72.0,256,256,1.0,96.0
757,62.0,256,256,1.0,96.0
758,57.0,256,1024,2.0,96.0
759,60.0,256,256,1.0,96.0
760,62.0,0,256,1.0,96.0
761,35.0,0,1024,4.0,96.0
762,47.0,0,1024,3.0,96.0
763,64.0,256,256,1.0,96.0
764,60.0,0,256,1.0,96.0
765,55.0,256,1024,2.0,96.0
766,64.0,256,256,1.0,96.0
767,62.0,0,256,1.0,96.0
768,33.0,0,1024,4.0,96.0
769,60.0,256,256,1.0,96.0
770,45.0,256,1024,3.0,96.0
771,62.0,0,256,1.0,96.0
772,54.0,256,1024,2.0,96.0
773,60.0,256,256,1.0,96.0
774,59.0,0,256,1.0,96.0
775,62.0,256,256,1.0,96.0
776,35.0,0,1024,4.0,96.0
777,47.0,256,1024,3.0,96.0
778,60.0,0,512,1.0,96.0
779,55.0,256,1024,2.0,96.0
780,54.0,0,256,2.0,96.0
781,52.0,256,256,2.0,96.0
782,69.0,512,1024,1.0,96.0
783,33.0,256,2048,4.0,96.0
784,60.0,512,512,1.0,96.0
785,45.0,0,2048,3.0,96.0
786,54.0,256,1024,2.0,96.0
787,59.0,0,512,1.0,96.0
788,60.0,512,256,1.0,96.0
789,62.0,256,256,1.0,96.0
790,43.0,512,1024,3.0,96.0
791,31.0,0,1024,4.0,96.0
792,55.0,0,1536,2.0,96.0
793,54.0,512,256,2.0,96.0
794,71.0,0,2048,0.0,96.0
795,55.0,256,256,2.0,96.0
796,64.0,256,1536,1.0,96.0
797,62.0,512,256,1.0,96.0
798,64.0,256,256,1.0,96.0
799,66.0,256,512,1.0,96.0
800,57.0,0,1536,2.0,96.0
801,55.0,0,256,2.0,96.0
802,64.0,512,256,1.0,96.0
803,72.0,256,2048,0.0,96.0
804,66.0,256,256,1.0,96.0
805,57.0,0,256,2.0,96.0
806,59.0,0,512,2.0,96.0
807,60.0,512,256,2.0,96.0
808,62.0,256,256,2.0,96.0
809,43.0,0,512,3.0,96.0
810,31.0,0,512,4.0,96.0
811,64.0,0,512,2.0,96.0
812,67.0,0,1536,1.0,96.0
813,62.0,0,512,2.0,96.0
814,66.0,512,512,1.0,96.0
815,71.0,256,2048,0.0,96.0
816,43.0,0,1536,4.0,96.0
817,55.0,256,1536,3.0,96.0
818,54.0,512,256,3.0,96.0
819,42.0,0,256,4.0,96.0
820,40.0,256,256,4.0,96.0
821,64.0,512,1024,1.0,96.0
822,52.0,0,256,3.0,96.0
823,54.0,0,512,3.0,96.0
824,42.0,256,512,4.0,96.0
825,69.0,0,2048,0.0,96.0
826,50.0,512,512,3.0,96.0
827,60.0,0,2048,2.0,96.0
828,38.0,0,512,4.0,96.0
829,43.0,0,512,4.0,96.0
830,62.0,0,1536,1.0,96.0
831,55.0,0,512,3.0,96.0
832,64.0,512,256,1.0,96.0
833,39.0,0,512,4.0,96.0
834,66.0,256,256,1.0,96.0
835,51.0,0,512,3.0,96.0
836,40.0,256,512,4.0,96.0
837,59.0,0,1536,2.0,96.0
838,52.0,0,512,3.0,96.0
839,60.0,0,256,2.0,96.0
840,62.0,256,256,2.0,96.0
841,47.0,0,512,3.0,96.0
842,35.0,512,512,4.0,96.0
843,71.0,512,2048,0.0,96.0
844,67.0,0,1280,1.0,96.0
845,69.0,256,256,1.0,96.0
846,67.0,256,256,1.0,96.0
847,36.0,0,1024,4.0,96.0
848,64.0,256,1024,2.0,96.0
849,66.0,256,256,1.0,96.0
850,48.0,0,1024,3.0,96.0
851,64.0,512,512,2.0,96.0
852,49.0,0,512,3.0,96.0
853,37.0,0,512,4.0,96.0
854,67.0,256,1280,1.0,96.0
855,67.0,256,256,1.0,96.0
856,57.0,512,512,2.0,96.0
857,66.0,256,256,1.0,96.0
858,64.0,256,256,1.0,96.0
859,50.0,0,1024,3.0,96.0
860,38.0,0,1024,4.0,96.0
861,62.0,0,1024,2.0,96.0
862,60.0,512,512,2.0,96.0
863,39.0,0,512,4.0,96.0
864,51.0,0,512,3.0,96.0
865,69.0,0,4096,0.0,96.0
866,66.0,256,1280,1.0,96.0
867,66.0,256,256,1.0,96.0
868,64.0,256,256,1.0,96.0
869,40.0,512,1024,4.0,96.0
870,63.0,256,256,1.0,96.0
871,52.0,0,1024,3.0,96.0
872,59.0,0,1280,2.0,96.0
873,57.0,256,256,2.0,96.0
874,59.0,256,256,2.0,96.0
875,64.0,256,1024,1.0,96.0
876,40.0,0,512,4.0,96.0
877,60.0,256,256,2.0,96.0
878,52.0,0,512,3.0,96.0
879,62.0,0,256,2.0,96.0
880,60.0,256,256,2.0,96.0
881,59.0,256,256,2.0,96.0
882,57.0,256,256,2.0,96.0
883,35.0,0,1024,4.0,96.0
884,62.0,256,1024,1.0,96.0
885,47.0,0,1024,3.0,96.0
886,55.0,256,256,2.0,96.0
887,53.0,256,256,2.0,96.0
888,52.0,0,256,2.0,96.0
889,50.0,256,256,2.0,96.0
890,47.0,0,512,3.0,96.0
891,35.0,256,512,4.0,96.0
892,55.0,256,256,1.0,96.0
893,36.0,256,512,4.0,96.0
894,48.0,0,512,3.0,96.0
895,57.0,0,256,1.0,96.0
896,43.0,256,512,3.0,96.0
897,31.0,0,512,4.0,96.0
898,52.0,0,1024,2.0,96.0
899,59.0,256,256,1.0,96.0
900,60.0,0,256,1.0,96.0
901,28.0,0,512,4.0,96.0
902,62.0,256,256,1.0,96.0
903,40.0,256,512,3.0,96.0
904,36.0,0,512,3.0,96.0
905,64.0,0,512,1.0,96.0
906,24.0,256,512,4.0,96.0
907,60.0,256,512,2.0,96.0
908,60.0,256,256,2.0,96.0
909,59.0,256,256,2.0,96.0
910,57.0,256,256,2.0,96.0
911,59.0,256,256,2.0,96.0
912,55.0,256,256,2.0,96.0
913,62.0,256,1792,1.0,96.0
914,61.0,256,256,1.0,96.0
915,43.0,0,2048,3.0,96.0
916,31.0,0,2048,4.0,96.0
917,67.0,0,8192,0.0,96.0
918,52.0,256,512,2.0,96.0
919,54.0,0,1024,2.0,96.0
920,38.0,0,1024,3.0,96.0
921,26.0,0,1024,4.0,96.0
922,62.0,256,1024,1.0,96.0
923,57.0,1024,1024,2.0,96.0
924,57.0,1024,1024,2.0,96.0
925,38.0,0,1024,4.0,96.0
926,57.0,1024,1024,2.0,96.0
927,50.0,0,1024,3.0,96.0
928,50.0,1024,0,3.0,96.0
929,38.0,1024,1024,4.0,96.0
930,59.0,0,1024,2.0,96.0
931,59.0,0,256,2.0,96.0
932,57.0,256,256,2.0,96.0
933,59.0,256,256,2.0,96.0
934,60.0,256,256,2.0,96.0
935,38.0,0,1024,4.0,96.0
936,57.0,0,512,2.0,96.0
937,59.0,512,256,2.0,96.0
938,54.0,256,0,3.0,96.0
939,42.0,0,1024,4.0,96.0
940,61.0,256,256,2.0,96.0
941,62.0,0,256,2.0,96.0
942,57.0,256,256,2.0,96.0
943,42.0,0,1024,4.0,96.0
944,62.0,256,1024,2.0,96.0
945,52.0,0,512,3.0,96.0
946,40.0,512,512,4.0,96.0
947,54.0,0,256,3.0,96.0
948,42.0,512,256,4.0,96.0
949,61.0,0,256,2.0,96.0
950,43.0,0,256,4.0,96.0
951,55.0,256,256,3.0,96.0
952,59.0,0,256,2.0,96.0
953,45.0,256,256,4.0,96.0
954,57.0,0,256,3.0,96.0
955,52.0,0,256,3.0,96.0
956,40.0,256,256,4.0,96.0
957,61.0,0,768,2.0,96.0
958,64.0,0,1024,1.0,96.0
959,62.0,256,256,2.0,96.0
960,57.0,256,1024,3.0,96.0
961,45.0,0,1024,4.0,96.0
962,59.0,256,768,2.0,96.0
963,61.0,256,0,2.0,96.0
964,64.0,0,0,1.0,96.0
965,55.0,0,768,3.0,96.0
966,43.0,512,768,4.0,96.0
967,42.0,256,256,4.0,96.0
968,54.0,0,256,3.0,96.0
969,55.0,256,256,3.0,96.0
970,43.0,0,256,4.0,96.0
971,59.0,0,128,2.0,96.0
972,61.0,128,128,2.0,96.0
973,52.0,256,256,3.0,96.0
974,40.0,0,256,4.0,96.0
975,59.0,0,512,3.0,96.0
976,47.0,128,512,4.0,96.0
977,35.0,0,512,4.0,96.0
978,47.0,512,512,3.0,96.0
979,66.0,0,1280,1.0,96.0
980,64.0,256,256,1.0,96.0
981,59.0,0,512,3.0,96.0
982,47.0,512,512,4.0,96.0
983,66.0,0,256,1.0,96.0
984,57.0,0,512,3.0,96.0
985,45.0,256,512,4.0,96.0
986,67.0,256,256,1.0,96.0
987,62.0,0,2304,2.0,96.0
988,44.0,256,512,4.0,96.0
989,61.0,256,256,2.0,96.0
990,56.0,0,512,3.0,96.0
991,62.0,256,256,2.0,96.0
992,52.0,0,512,3.0,96.0
993,40.0,0,512,4.0,96.0
994,59.0,256,256,2.0,96.0
995,64.0,0,1280,1.0,96.0
996,57.0,0,512,3.0,96.0
997,62.0,256,256,1.0,96.0
998,45.0,256,512,4.0,96.0
999,64.0,0,256,1.0,96.0
1000,69.0,256,256,1.0,96.0
1001,43.0,0,512,4.0,96.0
1002,55.0,256,512,3.0,96.0
1003,61.0,0,1280,2.0,96.0
1004,42.0,0,512,4.0,96.0
1005,54.0,0,512,3.0,96.0
1006,59.0,256,256,2.0,96.0
1007,60.0,0,256,2.0,96.0
1008,38.0,256,512,4.0,96.0
1009,50.0,0,512,3.0,96.0
1010,57.0,256,256,2.0,96.0
1011,62.0,256,1280,1.0,96.0
1012,61.0,256,256,1.0,96.0
1013,62.0,256,256,1.0,96.0
1014,67.0,256,256,1.0,96.0
1015,59.0,0,1024,2.0,96.0
1016,43.0,256,1280,4.0,96.0
1017,55.0,0,1280,3.0,96.0
1018,54.0,0,256,3.0,96.0
1019,42.0,256,256,4.0,96.0
1020,61.0,256,768,1.0,96.0
1021,55.0,0,256,3.0,96.0
1022,43.0,256,256,4.0,96.0
1023,57.0,0,1024,2.0,96.0
1024,40.0,0,256,4.0,96.0
1025,61.0,0,256,1.0,96.0
1026,52.0,256,256,3.0,96.0
1027,62.0,0,256,1.0,96.0
1028,66.0,256,256,1.0,96.0
1029,42.0,256,512,4.0,96.0
1030,54.0,0,512,3.0,96.0
1031,64.0,0,256,1.0,96.0
1032,67.0,256,256,1.0,96.0
1033,37.0,0,512,4.0,96.0
1034,49.0,256,512,3.0,96.0
1035,69.0,0,2048,0.0,96.0
1036,66.0,0,256,1.0,96.0
1037,67.0,256,256,1.0,96.0
1038,38.0,0,512,4.0,96.0
1039,50.0,256,512,3.0,96.0
1040,66.0,256,256,1.0,96.0
1041,52.0,0,512,3.0,96.0
1042,64.0,256,256,1.0,96.0
1043,40.0,0,512,4.0,96.0
1044,62.0,0,256,1.0,96.0
1045,61.0,256,256,1.0,96.0
1046,54.0,256,512,3.0,96.0
1047,42.0,0,512,4.0,96.0
1048,59.0,256,256,1.0,96.0
1049,57.0,256,256,1.0,96.0
1050,69.0,0,2048,0.0,96.0
1051,55.0,0,512,3.0,96.0
1052,43.0,0,512,4.0,96.0
1053,62.0,256,512,1.0,96.0
1054,42.0,0,512,4.0,96.0
1055,54.0,0,512,3.0,96.0
1056,52.0,0,512,3.0,96.0
1057,49.0,512,512,2.0,96.0
1058,55.0,0,512,1.0,96.0
1059,40.0,0,512,4.0,96.0
1060,50.0,512,256,2.0,96.0
1061,38.0,0,512,4.0,96.0
1062,54.0,0,512,1.0,96.0
1063,50.0,0,512,3.0,96.0
1064,54.0,256,256,2.0,96.0
1065,52.0,0,256,2.0,96.0
1066,69.0,0,2048,0.0,96.0
1067,49.0,0,512,3.0,96.0
1068,55.0,256,256,2.0,96.0
1069,37.0,256,512,4.0,96.0
1070,54.0,0,256,2.0,96.0
1071,51.0,0,512,3.0,96.0
1072,52.0,256,256,2.0,96.0
1073,39.0,0,512,4.0,96.0
1074,54.0,0,256,2.0,96.0
1075,57.0,256,256,2.0,96.0
1076,35.0,0,512,4.0,96.0
1077,47.0,256,512,3.0,96.0
1078,55.0,0,256,2.0,96.0
1079,37.0,0,512,4.0,96.0
1080,49.0,256,512,3.0,96.0
1081,54.0,256,256,2.0,96.0
1082,52.0,0,256,2.0,96.0
1083,54.0,256,256,2.0,96.0
1084,39.0,0,512,4.0,96.0
1085,71.0,256,2048,0.0,96.0
1086,51.0,256,512,3.0,96.0
1087,55.0,0,512,2.0,96.0
1088,52.0,0,512,3.0,96.0
1089,40.0,256,512,4.0,96.0
1090,59.0,256,256,1.0,96.0
1091,64.0,0,256,1.0,96.0
1092,63.0,256,256,1.0,96.0
1093,54.0,0,512,3.0,96.0
1094,57.0,0,512,2.0,96.0
1095,42.0,256,512,4.0,96.0
1096,64.0,0,256,1.0,96.0
1097,43.0,0,512,4.0,96.0
1098,55.0,0,512,3.0,96.0
1099,66.0,256,256,1.0,96.0
1100,59.0,256,0,2.0,96.0
1101,71.0,0,2048,0.0,96.0
1102,52.0,256,512,3.0,96.0
1103,40.0,0,512,4.0,96.0
1104,64.0,256,256,2.0,96.0
1105,62.0,256,256,2.0,96.0
1106,67.0,0,1024,1.0,96.0
1107,49.0,0,512,3.0,96.0
1108,37.0,0,512,4.0,96.0
1109,61.0,256,256,2.0,96.0
1110,45.0,0,512,3.0,96.0
1111,33.0,0,512,4.0,96.0
1112,67.0,0,512,1.0,96.0
1113,64.0,256,256,2.0,96.0
1114,66.0,0,256,1.0,96.0
1115,35.0,0,512,4.0,96.0
1116,67.0,256,256,1.0,96.0
1117,62.0,256,512,2.0,96.0
1118,47.0,0,512,3.0,96.0
1119,64.0,0,256,1.0,96.0
1120,37.0,256,512,4.0,96.0
1121,66.0,256,256,1.0,96.0
1122,49.0,0,512,3.0,96.0
1123,55.0,0,512,2.0,96.0
1124,62.0,0,256,1.0,96.0
1125,57.0,256,256,1.0,96.0
1126,38.0,256,512,4.0,96.0
1127,50.0,0,512,3.0,96.0
1128,54.0,256,0,2.0,96.0
1129,30.0,256,256,4.0,96.0
1130,42.0,0,256,3.0,96.0
1131,31.0,0,256,4.0,96.0
1132,43.0,0,256,3.0,96.0
1133,62.0,256,0,1.0,96.0
1134,33.0,256,512,4.0,96.0
1135,45.0,0,512,3.0,96.0
1136,52.0,0,768,2.0,96.0
1137,55.0,256,256,2.0,96.0
1138,69.0,0,4096,0.0,96.0
1139,45.0,0,512,3.0,96.0
1140,33.0,0,512,4.0,96.0
1141,61.0,256,512,1.0,96.0
1142,62.0,0,1024,1.0,96.0
1143,26.0,0,1024,4.0,96.0
1144,54.0,256,1024,2.0,96.0
1145,38.0,0,1024,3.0,96.0
1146,57.0,1024,1024,2.0,96.0
1147,59.0,1024,512,2.0,96.0
1148,61.0,512,512,2.0,96.0
1149,50.0,0,1024,3.0,96.0
1150,38.0,512,1024,4.0,96.0
1151,40.0,0,512,4.0,96.0
1152,52.0,1024,512,3.0,96.0
1153,54.0,512,512,3.0,96.0
1154,42.0,0,512,4.0,96.0
1155,62.0,0,2048,2.0,96.0
1156,61.0,0,1024,2.0,96.0
1157,62.0,1024,512,2.0,96.0
1158,43.0,512,2048,4.0,96.0
1159,57.0,512,512,2.0,96.0
1160,55.0,0,2048,3.0,96.0
1161,62.0,0,512,2.0,96.0
1162,60.0,512,512,2.0,96.0
1163,42.0,0,1024,4.0,96.0
1164,54.0,0,1024,3.0,96.0
1165,62.0,512,1024,1.0,96.0
1166,59.0,0,512,2.0,96.0
1167,64.0,0,512,1.0,96.0
1168,43.0,512,512,4.0,96.0
1169,55.0,0,512,3.0,96.0
1170,45.0,0,512,4.0,96.0
1171,57.0,512,512,3.0,96.0
1172,66.0,0,512,1.0,96.0
1173,60.0,0,512,2.0,96.0
1174,59.0,512,512,3.0,96.0
1175,47.0,0,512,4.0,96.0
1176,62.0,0,512,2.0,96.0
1177,64.0,0,256,2.0,96.0
1178,55.0,512,512,3.0,96.0
1179,62.0,256,256,2.0,96.0
1180,43.0,0,512,4.0,96.0
1181,45.0,256,512,4.0,96.0
1182,57.0,0,512,3.0,96.0
1183,60.0,0,512,2.0,96.0
1184,67.0,0,2048,1.0,96.0
1185,59.0,0,512,2.0,96.0
1186,55.0,0,512,3.0,96.0
1187,43.0,512,512,4.0,96.0
1188,57.0,0,512,3.0,96.0
1189,45.0,0,512,4.0,96.0
1190,60.0,0,512,2.0,96.0
1191,62.0,0,256,2.0,96.0
1192,60.0,256,256,2.0,96.0
1193,66.0,512,1024,1.0,96.0
1194,38.0,512,512,4.0,96.0
1195,50.0,0,512,3.0,96.0
1196,55.0,256,512,3.0,96.0
1197,59.0,0,512,2.0,96.0
1198,43.0,0,512,4.0,96.0
1199,67.0,0,512,1.0,96.0
1200,42.0,0,512,4.0,96.0
1201,62.0,0,512,1.0,96.0
1202,57.0,512,512,2.0,96.0
1203,54.0,0,512,3.0,96.0
1204,40.0,512,512,4.0,96.0
1205,67.0,0,512,1.0,96.0
1206,52.0,0,512,3.0,96.0
1207,66.0,0,512,1.0,96.0
1208,38.0,512,512,4.0,96.0
1209,50.0,0,512,3.0,96.0
1210,49.0,0,512,3.0,96.0
1211,55.0,0,1536,2.0,96.0
1212,37.0,0,512,4.0,96.0
1213,54.0,0,256,2.0,96.0
1214,52.0,256,256,2.0,96.0
1215,33.0,0,512,4.0,96.0
1216,45.0,512,512,3.0,96.0
1217,64.0,512,1536,1.0,96.0
1218,62.0,512,256,1.0,96.0
1219,69.0,0,2048,0.0,96.0
1220,60.0,256,256,1.0,96.0
1221,38.0,0,1536,4.0,96.0
1222,50.0,0,1536,3.0,96.0
1223,54.0,256,1536,2.0,96.0
1224,55.0,0,256,2.0,96.0
1225,59.0,0,1024,1.0,96.0
1226,51.0,512,512,3.0,96.0
1227,39.0,0,512,4.0,96.0
1228,57.0,256,256,2.0,96.0
1229,52.0,256,512,3.0,96.0
1230,71.0,256,1536,0.0,96.0
1231,40.0,0,512,4.0,96.0
1232,34.0,0,512,4.0,96.0
1233,73.0,0,512,0.0,96.0
1234,64.0,0,1024,1.0,96.0
1235,46.0,512,512,3.0,96.0
1236,55.0,0,1024,2.0,96.0
1237,35.0,0,512,4.0,96.0
1238,47.0,0,512,3.0,96.0
1239,62.0,512,512,1.0,96.0
1240,54.0,0,512,2.0,96.0
1241,66.0,0,256,1.0,96.0
1242,64.0,256,256,1.0,96.0
1243,59.0,0,1024,3.0,96.0
1244,47.0,512,1024,4.0,96.0
1245,62.0,256,512,1.0,96.0
1246,64.0,512,256,1.0,96.0
1247,45.0,0,512,4.0,96.0
1248,57.0,0,512,3.0,96.0
1249,66.0,256,256,1.0,96.0
1250,74.0,0,0,0.0,96.0
1251,43.0,256,512,4.0,96.0
1252,55.0,0,512,3.0,96.0
1253,59.0,0,256,2.0,96.0
1254,54.0,0,512,3.0,96.0
1255,64.0,0,1024,1.0,96.0
1256,42.0,512,512,4.0,96.0
1257,57.0,256,256,2.0,96.0
1258,52.0,256,512,3.0,96.0
1259,55.0,0,512,2.0,96.0
1260,40.0,0,512,4.0,96.0
1261,57.0,0,256,2.0,96.0
1262,54.0,512,256,3.0,96.0
1263,42.0,0,256,4.0,96.0
1264,55.0,0,256,3.0,96.0
1265,59.0,0,256,2.0,96.0
1266,43.0,256,256,4.0,96.0
1267,52.0,0,512,2.0,96.0
1268,45.0,0,512,4.0,96.0
1269,57.0,0,512,3.0,96.0
1270,64.0,0,256,1.0,96.0
1271,33.0,0,512,4.0,96.0
1272,66.0,256,256,1.0,96.0
1273,45.0,512,512,3.0,96.0
1274,45.0,256,512,4.0,96.0
1275,57.0,0,512,3.0,96.0
1276,67.0,0,512,1.0,96.0
1277,66.0,0,256,1.0,96.0
1278,43.0,512,512,4.0,96.0
1279,73.0,256,2048,0.0,96.0
1280,55.0,0,512,3.0,96.0
1281,64.0,256,256,1.0,96.0
1282,69.0,256,512,1.0,96.0
1283,42.0,0,512,4.0,96.0
1284,54.0,0,512,3.0,96.0
1285,57.0,0,256,2.0,96.0
1286,59.0,256,256,2.0,96.0
1287,38.0,0,512,4.0,96.0
1288,50.0,512,512,3.0,96.0
1289,60.0,0,512,2.0,96.0
1290,40.0,256,512,4.0,96.0
1291,52.0,0,512,3.0,96.0
1292,59.0,512,256,2.0,96.0
1293,42.0,0,512,4.0,96.0
1294,54.0,0,512,3.0,96.0
1295,57.0,256,256,2.0,96.0
1296,62.0,256,256,1.0,96.0
1297,55.0,0,512,3.0,96.0
1298,43.0,0,512,4.0,96.0
1299,43.0,0,256,3.0,96.0
1300,64.0,0,256,1.0,96.0
1301,31.0,256,256,4.0,96.0
1302,45.0,256,256,3.0,96.0
1303,66.0,0,256,1.0,96.0
1304,33.0,0,256,4.0,96.0
1305,67.0,0,256,1.0,96.0
1306,35.0,0,512,4.0,96.0
1307,66.0,256,256,1.0,96.0
1308,47.0,256,512,3.0,96.0
1309,64.0,0,256,1.0,96.0
1310,59.0,256,2048,2.0,96.0
1311,49.0,256,512,3.0,96.0
1312,67.0,256,256,1.0,96.0
1313,37.0,0,512,4.0,96.0
1314,74.0,0,4096,0.0,96.0
1315,66.0,0,256,1.0,96.0
1316,38.0,0,512,4.0,96.0
1317,64.0,256,256,1.0,96.0
1318,50.0,0,512,3.0,96.0
1319,66.0,0,256,1.0,96.0
1320,40.0,256,512,4.0,96.0
1321,67.0,256,256,1.0,96.0
1322,57.0,256,1024,2.0,96.0
1323,52.0,0,512,3.0,96.0
1324,42.0,256,512,4.0,96.0
1325,54.0,0,512,3.0,96.0
1326,50.0,512,512,3.0,96.0
1327,69.0,0,1024,1.0,96.0
1328,38.0,0,512,4.0,96.0
1329,43.0,0,512,4.0,96.0
1330,55.0,512,512,3.0,96.0
1331,45.0,0,512,4.0,96.0
1332,57.0,512,512,3.0,96.0
1333,43.0,0,512,4.0,96.0
1334,55.0,512,512,3.0,96.0
1335,71.0,0,1536,1.0,96.0
1336,62.0,0,1024,2.0,96.0
1337,54.0,0,512,3.0,96.0
1338,69.0,0,512,1.0,96.0
1339,42.0,512,512,4.0,96.0
1340,52.0,0,512,3.0,96.0
1341,40.0,0,512,4.0,96.0
1342,67.0,512,1024,1.0,96.0
1343,36.0,512,512,4.0,96.0
1344,48.0,0,512,3.0,96.0
1345,64.0,0,1536,2.0,96.0
1346,45.0,0,512,3.0,96.0
1347,33.0,512,512,4.0,96.0
1348,62.0,512,512,2.0,96.0
1349,47.0,0,512,3.0,96.0
1350,66.0,0,1024,1.0,96.0
1351,35.0,0,512,4.0,96.0
1352,68.0,0,512,1.0,96.0
1353,40.0,512,1024,3.0,96.0
1354,28.0,0,1024,4.0,96.0
1355,60.0,0,1024,2.0,96.0
1356,69.0,512,1024,1.0,96.0
1357,59.0,512,1024,2.0,96.0
1358,61.0,512,512,2.0,96.0
1359,67.0,512,1024,1.0,96.0
1360,66.0,512,512,1.0,96.0
1361,64.0,0,512,1.0,96.0
1362,62.0,0,1024,2.0,96.0
1363,61.0,0,512,2.0,96.0
1364,45.0,0,1024,4.0,96.0
1365,57.0,512,1024,3.0,96.0
1366,69.0,512,768,1.0,96.0
1367,67.0,256,256,1.0,96.0
1368,66.0,256,256,1.0,96.0
1369,62.0,512,1024,2.0,96.0
1370,67.0,256,256,1.0,96.0
1371,47.0,0,1536,4.0,96.0
1372,64.0,256,512,2.0,96.0
1373,59.0,0,1536,3.0,96.0
1374,66.0,0,512,2.0,96.0
1375,45.0,0,512,4.0,96.0
1376,57.0,512,512,3.0,96.0
1377,67.0,0,256,2.0,96.0
1378,55.0,256,256,2.0,96.0
1379,72.0,0,1536,1.0,96.0
1380,54.0,256,256,2.0,96.0
1381,43.0,512,1024,4.0,96.0
1382,55.0,0,1024,3.0,96.0
1383,55.0,256,256,2.0,96.0
1384,71.0,0,1024,1.0,96.0
1385,54.0,0,1024,3.0,96.0
1386,42.0,256,1024,4.0,96.0
1387,69.0,512,768,1.0,96.0
1388,60.0,0,1536,2.0,96.0
1389,43.0,0,512,4.0,96.0
1390,62.0,256,256,1.0,96.0
1391,55.0,512,512,3.0,96.0
1392,67.0,0,256,1.0,96.0
1393,69.0,256,256,1.0,96.0
1394,31.0,0,512,4.0,96.0
1395,43.0,0,512,3.0,96.0
1396,33.0,256,512,4.0,96.0
1397,67.0,0,512,1.0,96.0
1398,45.0,0,512,3.0,96.0
1399,59.0,256,1024,2.0,96.0
1400,35.0,512,512,4.0,96.0
1401,47.0,0,512,3.0,96.0
1402,65.0,0,512,1.0,96.0
1403,74.0,0,2048,0.0,96.0
1404,57.0,0,512,2.0,96.0
1405,64.0,0,256,1.0,96.0
1406,55.0,0,512,2.0,96.0
1407,65.0,256,256,1.0,96.0
1408,24.0,0,512,4.0,96.0
1409,36.0,512,512,3.0,96.0
1410,64.0,256,256,1.0,96.0
1411,36.0,0,512,4.0,96.0
1412,48.0,0,512,3.0,96.0
1413,62.0,256,256,1.0,96.0
1414,60.0,256,256,1.0,96.0
1415,50.0,0,512,3.0,96.0
1416,59.0,256,256,1.0,96.0
1417,38.0,0,512,4.0,96.0
1418,57.0,0,256,1.0,96.0
1419,56.0,256,256,1.0,96.0
1420,52.0,256,512,3.0,96.0
1421,40.0,0,512,4.0,96.0
1422,57.0,0,256,1.0,96.0
1423,64.0,256,256,2.0,96.0
1424,41.0,256,512,4.0,96.0
1425,53.0,0,512,3.0,96.0
1426,62.0,256,256,2.0,96.0
1427,40.0,0,512,4.0,96.0
1428,76.0,0,3072,0.0,96.0
1429,60.0,256,256,2.0,96.0
1430,52.0,0,512,3.0,96.0
1431,59.0,0,256,2.0,96.0
1432,41.0,256,512,4.0,96.0
1433,57.0,256,256,2.0,96.0
1434,53.0,0,512,3.0,96.0
1435,56.0,0,256,2.0,96.0
1436,50.0,256,512,3.0,96.0
1437,74.0,0,1024,0.0,96.0
1438,54.0,256,256,2.0,96.0
1439,38.0,0,512,4.0,96.0
1440,52.0,0,512,3.0,96.0
1441,56.0,0,512,2.0,96.0
1442,64.0,256,256,1.0,96.0
1443,40.0,0,512,4.0,96.0
1444,66.0,0,256,1.0,96.0
1445,47.0,256,512,3.0,96.0
1446,35.0,0,512,4.0,96.0
1447,68.0,256,256,1.0,96.0
1448,36.0,0,512,4.0,96.0
1449,60.0,256,256,2.0,96.0
1450,48.0,256,512,3.0,96.0
1451,62.0,256,256,2.0,96.0
1452,72.0,256,2048,0.0,96.0
1453,53.0,0,512,3.0,96.0
1454,41.0,0,512,4.0,96.0
1455,64.0,256,256,2.0,96.0
1456,65.0,0,256,2.0,96.0
1457,38.0,0,512,4.0,96.0
1458,64.0,256,256,2.0,96.0
1459,50.0,256,512,3.0,96.0
1460,62.0,0,256,2.0,96.0
1461,47.0,0,512,3.0,96.0
1462,35.0,256,512,4.0,96.0
1463,60.0,256,256,2.0,96.0
1464,69.0,0,2304,1.0,96.0
1465,40.0,0,512,4.0,96.0
1466,68.0,256,256,1.0,96.0
1467,59.0,0,512,2.0,96.0
1468,52.0,256,512,3.0,96.0
1469,66.0,0,256,1.0,96.0
1470,68.0,256,256,1.0,96.0
1471,71.0,0,2048,0.0,96.0
1472,28.0,256,512,4.0,96.0
1473,40.0,0,512,3.0,96.0
1474,64.0,0,768,2.0,96.0
1475,65.0,256,256,2.0,96.0
1476,69.0,0,512,1.0,96.0
1477,33.0,0,512,4.0,96.0
1478,45.0,0,512,3.0,96.0
1479,64.0,256,256,2.0,96.0
1480,62.0,256,256,2.0,96.0
1481,64.0,256,256,2.0,96.0
1482,45.0,0,1024,4.0,96.0
1483,57.0,0,1024,3.0,96.0
1484,60.0,256,256,2.0,96.0
1485,59.0,0,256,2.0,96.0
1486,55.0,256,512,3.0,96.0
1487,57.0,256,256,2.0,96.0
1488,43.0,0,512,4.0,96.0
1489,54.0,256,512,3.0,96.0
1490,71.0,256,256,1.0,96.0
1491,42.0,0,512,4.0,96.0
1492,69.0,256,256,1.0,96.0
1493,67.0,256,256,1.0,96.0
1494,69.0,256,256,1.0,96.0
1495,63.0,0,1536,2.0,96.0
1496,30.0,0,1024,4.0,96.0
1497,42.0,0,1024,3.0,96.0
1498,67.0,0,0,1.0,96.0
1499,28.0,256,512,4.0,96.0
1500,64.0,0,512,2.0,96.0
1501,72.0,256,4096,0.0,96.0
1502,69.0,256,256,1.0,96.0
1503,40.0,0,512,3.0,96.0
1504,66.0,0,256,2.0,96.0
1505,39.0,0,512,3.0,96.0
1506,27.0,256,512,4.0,96.0
1507,59.0,256,256,2.0,96.0
1508,57.0,0,256,2.0,96.0
1509,55.0,256,256,2.0,96.0
1510,57.0,256,256,2.0,96.0
1511,40.0,0,1024,3.0,96.0
1512,28.0,256,1024,4.0,96.0
1513,60.0,256,256,2.0,96.0
1514,59.0,0,256,2.0,96.0
1515,66.0,0,2048,1.0,96.0
1516,39.0,256,512,3.0,96.0
1517,27.0,0,512,4.0,96.0
1518,57.0,256,256,2.0,96.0
1519,55.0,0,256,2.0,96.0
1520,28.0,256,512,4.0,96.0
1521,62.0,256,256,2.0,96.0
1522,40.0,0,512,3.0,96.0
1523,61.0,256,256,2.0,96.0
1524,64.0,0,1024,1.0,96.0
1525,59.0,256,256,2.0,96.0
1526,58.0,0,256,2.0,96.0
1527,40.0,0,1024,4.0,96.0
1528,54.0,256,256,2.0,96.0
1529,52.0,0,1024,3.0,96.0
1530,66.0,256,1024,1.0,96.0
1531,50.0,0,512,3.0,96.0
1532,38.0,0,512,4.0,96.0
1533,59.0,256,768,2.0,96.0
1534,58.0,256,256,2.0,96.0
1535,37.0,0,512,4.0,96.0
1536,49.0,0,512,3.0,96.0
1537,59.0,0,256,2.0,96.0
1538,35.0,256,512,4.0,96.0
1539,56.0,256,256,2.0,96.0
1540,47.0,0,512,3.0,96.0
1541,64.0,512,1280,1.0,96.0
1542,49.0,0,512,3.0,96.0
1543,37.0,0,512,4.0,96.0
1544,62.0,256,256,1.0,96.0
1545,64.0,0,256,1.0,96.0
1546,61.0,256,256,1.0,96.0
1547,58.0,256,1024,2.0,96.0
1548,42.0,256,512,3.0,96.0
1549,30.0,0,512,4.0,96.0
1550,62.0,256,256,1.0,96.0
1551,66.0,256,256,1.0,96.0
1552,64.0,256,256,1.0,96.0
1553,62.0,256,256,1.0,96.0
1554,47.0,0,1024,3.0,96.0
1555,35.0,0,1024,4.0,96.0
1556,40.0,0,256,4.0,96.0
1557,52.0,256,256,3.0,96.0
1558,47.0,0,256,3.0,96.0
1559,35.0,256,256,4.0,96.0
1560,59.0,0,2048,2.0,96.0
1561,50.0,256,256,3.0,96.0
1562,38.0,0,256,4.0,96.0
1563,37.0,256,256,4.0,96.0
1564,49.0,0,256,3.0,96.0
1565,33.0,0,256,4.0,96.0
1566,45.0,256,256,3.0,96.0
1567,67.0,256,1792,1.0,96.0
1568,57.0,0,1024,2.0,96.0
1569,66.0,256,256,1.0,96.0
1570,38.0,0,768,4.0,96.0
1571,50.0,256,768,3.0,96.0
1572,35.0,0,256,4.0,96.0
1573,47.0,256,256,3.0,96.0
1574,74.0,256,768,1.0,96.0
1575,67.0,256,256,1.0,96.0
1576,59.0,0,1024,2.0,96.0
1577,52.0,256,768,3.0,96.0
1578,40.0,0,768,4.0,96.0
1579,72.0,256,512,1.0,96.0
1580,51.0,0,256,3.0,96.0
1581,39.0,256,256,4.0,96.0
1582,52.0,256,256,3.0,96.0
1583,40.0,0,256,4.0,96.0
1584,49.0,256,256,3.0,96.0
1585,37.0,0,256,4.0,96.0
1586,66.0,0,512,1.0,96.0
1587,57.0,0,1280,2.0,96.0
1588,55.0,256,256,2.0,96.0
1589,38.0,0,512,4.0,96.0
1590,50.0,0,512,3.0,96.0
1591,57.0,256,256,2.0,96.0
1592,54.0,256,256,2.0,96.0
1593,47.0,0,512,3.0,96.0
1594,35.0,0,512,4.0,96.0
1595,71.0,256,1280,1.0,96.0
1596,52.0,256,512,3.0,96.0
1597,69.0,256,256,1.0,96.0
1598,40.0,0,512,4.0,96.0
1599,71.0,0,256,1.0,96.0
1600,35.0,0,512,4.0,96.0
1601,76.0,256,256,1.0,96.0
1602,47.0,256,512,3.0,96.0
1603,55.0,0,1280,2.0,96.0
1604,49.0,256,512,3.0,96.0
1605,37.0,0,512,4.0,96.0
1606,54.0,256,256,2.0,96.0
1607,55.0,0,256,2.0,96.0
1608,45.0,256,512,3.0,96.0
1609,33.0,0,512,4.0,96.0
1610,52.0,256,256,2.0,96.0
1611,69.0,0,1280,1.0,96.0
1612,67.0,256,256,1.0,96.0
1613,38.0,0,512,4.0,96.0
1614,50.0,0,512,3.0,96.0
1615,69.0,0,256,1.0,96.0
1616,33.0,0,512,4.0,96.0
1617,74.0,256,256,1.0,96.0
1618,45.0,256,512,3.0,96.0
1619,54.0,256,1280,2.0,96.0
1620,47.0,0,512,3.0,96.0
1621,35.0,0,512,4.0,96.0
1622,52.0,256,256,2.0,96.0
1623,54.0,256,256,2.0,96.0
1624,31.0,0,512,4.0,96.0
1625,43.0,0,512,3.0,96.0
1626,51.0,256,256,2.0,96.0
1627,67.0,256,1280,1.0,96.0
1628,52.0,256,256,2.0,96.0
1629,64.0,256,256,2.0,96.0
1630,36.0,0,512,4.0,96.0
1631,66.0,0,256,1.0,96.0
1632,48.0,0,512,3.0,96.0
1633,67.0,0,256,1.0,96.0
1634,67.0,0,256,2.0,96.0
1635,66.0,256,256,2.0,96.0
1636,31.0,256,512,4.0,96.0
1637,43.0,0,512,3.0,96.0
1638,72.0,0,256,1.0,96.0
1639,71.0,0,256,1.0,96.0
1640,64.0,256,256,2.0,96.0
1641,45.0,0,512,3.0,96.0
1642,63.0,0,256,2.0,96.0
1643,33.0,0,512,4.0,96.0
1644,69.0,256,256,1.0,96.0
1645,64.0,0,256,2.0,96.0
1646,67.0,0,256,1.0,96.0
1647,59.0,256,256,2.0,96.0
1648,35.0,0,512,4.0,96.0
1649,47.0,256,512,3.0,96.0
1650,66.0,0,256,1.0,96.0
1651,57.0,256,256,2.0,96.0
1652,28.0,0,512,4.0,96.0
1653,40.0,0,512,3.0,96.0
1654,59.0,256,256,2.0,96.0
1655,67.0,0,1024,1.0,96.0
1656,35.0,0,512,4.0,96.0
1657,47.0,256,512,3.0,96.0
1658,52.0,0,512,3.0,96.0
1659,59.0,256,256,1.0,96.0
1660,40.0,512,512,4.0,96.0
1661,55.0,0,1024,2.0,96.0
1662,60.0,0,256,1.0,96.0
1663,71.0,0,2048,0.0,96.0
1664,50.0,256,512,3.0,96.0
1665,62.0,256,256,1.0,96.0
1666,38.0,0,512,4.0,96.0
1667,64.0,0,256,1.0,96.0
1668,62.0,256,256,1.0,96.0
1669,36.0,0,512,4.0,96.0
1670,48.0,256,512,3.0,96.0
1671,60.0,256,256,1.0,96.0
1672,59.0,256,256,1.0,96.0
1673,33.0,0,512,4.0,96.0
1674,45.0,0,512,3.0,96.0
1675,55.0,0,1024,2.0,96.0
1676,57.0,256,256,1.0,96.0
1677,50.0,0,512,3.0,96.0
1678,62.0,256,256,1.0,96.0
1679,38.0,0,512,4.0,96.0
1680,60.0,0,256,1.0,96.0
1681,26.0,256,512,4.0,96.0
1682,69.0,0,2048,0.0,96.0
1683,38.0,0,512,3.0,96.0
1684,54.0,0,1024,2.0,96.0
1685,62.0,256,256,1.0,96.0
1686,59.0,0,512,1.0,96.0
1687,55.0,0,512,2.0,96.0
1688,43.0,256,512,3.0,96.0
1689,31.0,0,512,4.0,96.0
1690,38.0,512,512,4.0,96.0
1691,50.0,0,512,3.0,96.0
1692,59.0,0,512,2.0,96.0
1693,64.0,0,512,2.0,96.0
1694,67.0,256,256,1.0,96.0
1695,66.0,256,256,1.0,96.0
1696,62.0,0,512,2.0,96.0
1697,67.0,256,256,1.0,96.0
1698,71.0,0,2048,0.0,96.0
1699,55.0,0,1536,3.0,96.0
1700,43.0,512,1536,4.0,96.0
1701,61.0,256,512,2.0,96.0
1702,64.0,0,512,1.0,96.0
1703,42.0,0,256,4.0,96.0
1704,54.0,512,256,3.0,96.0
1705,57.0,0,512,2.0,96.0
1706,40.0,256,256,4.0,96.0
1707,52.0,0,256,3.0,96.0
1708,42.0,0,512,4.0,96.0
1709,62.0,256,512,2.0,96.0
1710,54.0,0,512,3.0,96.0
1711,69.0,256,256,1.0,96.0
1712,67.0,0,256,1.0,96.0
1713,37.0,0,512,4.0,96.0
1714,49.0,256,512,3.0,96.0
1715,69.0,256,256,1.0,96.0
1716,69.0,0,2048,0.0,96.0
1717,64.0,256,0,2.0,96.0
1718,50.0,256,512,3.0,96.0
1719,38.0,0,512,4.0,96.0
1720,62.0,0,256,2.0,96.0
1721,45.0,256,512,4.0,96.0
1722,57.0,0,512,3.0,96.0
1723,61.0,256,256,2.0,96.0
1724,66.0,0,1280,1.0,96.0
1725,67.0,256,256,1.0,96.0
1726,62.0,0,512,3.0,96.0
1727,50.0,256,512,4.0,96.0
1728,64.0,256,256,1.0,96.0
1729,69.0,0,2048,0.0,96.0
1730,60.0,0,512,3.0,96.0
1731,48.0,0,512,4.0,96.0
1732,66.0,256,256,1.0,96.0
1733,67.0,256,256,1.0,96.0
1734,47.0,0,512,4.0,96.0
1735,59.0,0,512,3.0,96.0
1736,65.0,256,256,1.0,96.0
1737,64.0,0,256,1.0,96.0
1738,43.0,256,512,4.0,96.0
1739,55.0,0,512,3.0,96.0
1740,62.0,256,256,1.0,96.0
1741,62.0,0,2304,2.0,96.0
1742,59.0,256,256,2.0,96.0
1743,60.0,256,256,2.0,96.0
1744,64.0,0,1024,1.0,96.0
1745,54.0,256,256,2.0,96.0
1746,62.0,256,256,1.0,96.0
1747,60.0,256,256,1.0,96.0
1748,60.0,0,1536,3.0,96.0
1749,48.0,256,1536,4.0,96.0
1750,62.0,256,256,1.0,96.0
1751,47.0,0,256,4.0,96.0
1752,59.0,0,256,3.0,96.0
1753,64.0,0,256,1.0,96.0
1754,57.0,0,256,3.0,96.0
1755,45.0,256,256,4.0,96.0
1756,62.0,0,256,1.0,96.0
1757,65.0,256,256,1.0,96.0
1758,59.0,256,512,3.0,96.0
1759,47.0,0,512,4.0,96.0
1760,59.0,256,256,1.0,96.0
1761,43.0,0,512,4.0,96.0
1762,55.0,0,512,3.0,96.0
1763,62.0,256,256,1.0,96.0
1764,60.0,0,256,1.0,96.0
1765,62.0,256,256,1.0,96.0
1766,52.0,0,512,3.0,96.0
1767,40.0,256,512,4.0,96.0
1768,55.0,0,2816,2.0,96.0
1769,48.0,0,512,3.0,96.0
1770,64.0,256,512,1.0,96.0
1771,36.0,0,512,4.0,96.0
1772,60.0,256,512,2.0,96.0
1773,60.0,256,256,2.0,96.0
1774,59.0,256,256,2.0,96.0
1775,57.0,256,256,2.0,96.0
1776,62.0,0,1280,1.0,96.0
1777,43.0,256,1536,4.0,96.0
1778,60.0,256,256,1.0,96.0
1779,55.0,0,1536,3.0,96.0
1780,62.0,256,256,1.0,96.0
1781,41.0,0,256,4.0,96.0
1782,53.0,0,256,3.0,96.0
1783,64.0,0,256,1.0,96.0
1784,52.0,0,256,3.0,96.0
1785,40.0,256,256,4.0,96.0
1786,62.0,0,256,1.0,96.0
1787,41.0,0,512,4.0,96.0
1788,64.0,256,256,1.0,96.0
1789,53.0,256,512,3.0,96.0
1790,59.0,256,1792,2.0,96.0
1791,50.0,0,512,3.0,96.0
1792,38.0,0,512,4.0,96.0
1793,57.0,256,256,2.0,96.0
1794,65.0,256,512,1.0,96.0
1795,66.0,0,256,1.0,96.0
1796,60.0,0,512,2.0,96.0
1797,52.0,256,512,3.0,96.0
1798,40.0,0,512,4.0,96.0
1799,64.0,256,256,1.0,96.0
1800,62.0,256,256,2.0,96.0
1801,53.0,256,256,2.0,96.0
1802,47.0,0,512,3.0,96.0
1803,35.0,0,512,4.0,96.0
1804,62.0,0,768,1.0,96.0
1805,52.0,256,512,2.0,96.0
1806,36.0,0,512,4.0,96.0
1807,48.0,0,512,3.0,96.0
1808,60.0,256,512,1.0,96.0
1809,31.0,256,512,4.0,96.0
1810,43.0,0,512,3.0,96.0
1811,59.0,256,256,1.0,96.0
1812,50.0,0,512,2.0,96.0
1813,52.0,0,256,2.0,96.0
1814,40.0,0,512,3.0,96.0
1815,28.0,0,512,4.0,96.0
1816,50.0,256,256,2.0,96.0
1817,52.0,0,256,2.0,96.0
1818,43.0,256,512,3.0,96.0
1819,31.0,0,512,4.0,96.0
1820,53.0,256,256,2.0,96.0
1821,55.0,0,256,2.0,96.0
1822,40.0,256,512,3.0,96.0
1823,28.0,0,512,4.0,96.0
1824,53.0,256,256,2.0,96.0
1825,52.0,0,256,2.0,96.0
1826,24.0,0,512,4.0,96.0
1827,53.0,256,256,2.0,96.0
1828,36.0,256,512,3.0,96.0
1829,60.0,256,0,1.0,96.0
1830,59.0,256,256,1.0,96.0
1831,57.0,256,256,1.0,96.0
1832,59.0,256,512,1.0,96.0
1833,50.0,256,1536,2.0,96.0
1834,55.0,256,512,1.0,96.0
1835,57.0,0,512,1.0,96.0
1836,48.0,256,512,2.0,96.0
1837,54.0,256,256,1.0,96.0
1838,43.0,0,5120,3.0,96.0
1839,67.0,0,17408,0.0,96.0
1840,55.0,256,3072,1.0,96.0
1841,59.0,0,3072,1.0,96.0
1842,31.0,0,5120,4.0,96.0
1843,50.0,0,3072,2.0,96.0
