,note,step,duration,channel,velocity
0,55.0,512,0,2.0,96.0
1,57.0,512,512,2.0,96.0
2,59.0,512,1024,2.0,96.0
3,57.0,1024,512,2.0,96.0
4,59.0,512,512,2.0,96.0
5,60.0,512,512,2.0,96.0
6,59.0,512,512,2.0,96.0
7,67.0,0,0,1.0,96.0
8,66.0,512,512,1.0,96.0
9,57.0,512,1024,2.0,96.0
10,55.0,512,512,2.0,96.0
11,64.0,0,1024,1.0,96.0
12,56.0,512,512,2.0,96.0
13,66.0,0,512,1.0,96.0
14,57.0,512,512,2.0,96.0
15,64.0,512,512,1.0,96.0
16,58.0,0,512,2.0,96.0
17,62.0,512,512,1.0,96.0
18,64.0,512,512,1.0,96.0
19,59.0,0,1536,2.0,96.0
20,66.0,512,1024,1.0,96.0
21,57.0,512,512,2.0,96.0
22,59.0,512,512,2.0,96.0
23,61.0,512,512,2.0,96.0
24,67.0,0,1536,1.0,96.0
25,66.0,512,512,1.0,96.0
26,62.0,512,1536,2.0,96.0
27,64.0,512,512,1.0,96.0
28,69.0,0,512,1.0,96.0
29,60.0,512,512,2.0,96.0
30,59.0,0,512,2.0,96.0
31,62.0,512,512,1.0,96.0
32,64.0,512,512,2.0,96.0
33,67.0,0,1024,1.0,96.0
34,66.0,0,256,1.0,96.0
35,50.0,0,0,3.0,96.0
36,38.0,0,512,4.0,96.0
37,64.0,256,256,1.0,96.0
38,38.0,0,512,4.0,96.0
39,66.0,256,512,1.0,96.0
40,52.0,0,512,3.0,96.0
41,67.0,0,512,1.0,96.0
42,40.0,512,512,4.0,96.0
43,57.0,512,2560,2.0,96.0
44,69.0,0,1024,1.0,96.0
45,42.0,0,1024,4.0,96.0
46,54.0,512,1024,3.0,96.0
47,59.0,512,512,2.0,96.0
48,52.0,0,512,3.0,96.0
49,67.0,512,512,1.0,96.0
50,40.0,0,512,4.0,96.0
51,60.0,0,1024,2.0,96.0
52,69.0,0,512,1.0,96.0
53,42.0,0,512,4.0,96.0
54,54.0,512,512,3.0,96.0
55,55.0,0,512,3.0,96.0
56,59.0,0,512,2.0,96.0
57,43.0,512,512,4.0,96.0
58,71.0,0,512,1.0,96.0
59,54.0,0,512,3.0,96.0
60,57.0,512,512,2.0,96.0
61,42.0,0,512,4.0,96.0
62,62.0,0,0,1.0,96.0
63,61.0,512,512,1.0,96.0
64,52.0,512,1024,3.0,96.0
65,40.0,0,1024,4.0,96.0
66,38.0,512,512,4.0,96.0
67,50.0,0,512,3.0,96.0
68,55.0,0,1536,2.0,96.0
69,59.0,0,1024,1.0,96.0
70,39.0,0,512,4.0,96.0
71,54.0,512,512,2.0,96.0
72,51.0,0,512,3.0,96.0
73,61.0,512,512,1.0,96.0
74,40.0,0,512,4.0,96.0
75,55.0,0,512,2.0,96.0
76,52.0,0,512,3.0,96.0
77,59.0,0,512,1.0,96.0
78,56.0,0,512,2.0,96.0
79,53.0,0,512,3.0,96.0
80,41.0,512,512,4.0,96.0
81,57.0,512,512,1.0,96.0
82,59.0,512,512,1.0,96.0
83,54.0,0,1536,3.0,96.0
84,42.0,0,1536,4.0,96.0
85,57.0,0,1536,2.0,96.0
86,61.0,512,1024,1.0,96.0
87,52.0,512,512,3.0,96.0
88,40.0,0,512,4.0,96.0
89,55.0,0,512,2.0,96.0
90,57.0,0,512,2.0,96.0
91,54.0,0,512,3.0,96.0
92,42.0,512,512,4.0,96.0
93,55.0,0,256,2.0,96.0
94,47.0,512,512,3.0,96.0
95,35.0,0,512,4.0,96.0
96,54.0,256,256,2.0,96.0
97,62.0,0,1536,1.0,96.0
98,60.0,512,256,1.0,96.0
99,59.0,256,256,1.0,96.0
100,55.0,0,1536,2.0,96.0
101,40.0,0,1536,4.0,96.0
102,52.0,256,1536,3.0,96.0
103,54.0,0,256,2.0,96.0
104,52.0,256,256,2.0,96.0
105,45.0,512,512,3.0,96.0
106,33.0,0,512,4.0,96.0
107,60.0,256,1536,1.0,96.0
108,59.0,512,256,1.0,96.0
109,38.0,0,1024,4.0,96.0
110,57.0,256,256,1.0,96.0
111,50.0,256,1024,3.0,96.0
112,54.0,0,1024,2.0,96.0
113,31.0,256,512,4.0,96.0
114,43.0,0,512,3.0,96.0
115,59.0,0,512,1.0,96.0
116,55.0,0,512,2.0,96.0
117,59.0,512,512,1.0,96.0
118,55.0,0,512,2.0,96.0
119,59.0,512,512,1.0,96.0
120,67.0,0,2048,0.0,96.0
121,57.0,512,512,2.0,96.0
122,60.0,0,512,1.0,96.0
123,43.0,0,0,4.0,96.0
124,59.0,0,1024,2.0,96.0
125,67.0,512,1024,0.0,96.0
126,55.0,0,0,3.0,96.0
127,62.0,0,1024,1.0,96.0
128,69.0,512,512,0.0,96.0
129,64.0,0,512,1.0,96.0
130,61.0,0,512,2.0,96.0
131,72.0,512,256,0.0,96.0
132,66.0,0,512,1.0,96.0
133,71.0,256,0,0.0,96.0
134,63.0,0,512,2.0,96.0
135,42.0,0,512,4.0,96.0
136,54.0,0,512,3.0,96.0
137,64.0,0,512,2.0,96.0
138,67.0,0,512,1.0,96.0
139,40.0,0,768,4.0,96.0
140,52.0,0,768,3.0,96.0
141,50.0,0,256,3.0,96.0
142,38.0,256,256,4.0,96.0
143,55.0,256,0,2.0,96.0
144,59.0,512,512,1.0,96.0
145,64.0,0,512,1.0,96.0
146,36.0,0,512,4.0,96.0
147,48.0,0,512,3.0,96.0
148,69.0,0,768,0.0,96.0
149,50.0,0,512,3.0,96.0
150,71.0,256,256,0.0,96.0
151,38.0,512,512,4.0,96.0
152,54.0,0,512,2.0,96.0
153,62.0,0,512,1.0,96.0
154,33.0,256,512,4.0,96.0
155,45.0,0,512,3.0,96.0
156,60.0,0,512,1.0,96.0
157,52.0,0,512,2.0,96.0
158,30.0,0,512,4.0,96.0
159,62.0,0,512,1.0,96.0
160,72.0,0,1024,0.0,96.0
161,42.0,0,512,3.0,96.0
162,43.0,0,512,3.0,96.0
163,57.0,512,1024,2.0,96.0
164,31.0,0,512,4.0,96.0
165,47.0,512,512,3.0,96.0
166,71.0,0,1024,0.0,96.0
167,62.0,512,1024,1.0,96.0
168,35.0,0,512,4.0,96.0
169,64.0,0,512,1.0,96.0
170,48.0,0,512,3.0,96.0
171,55.0,0,1024,2.0,96.0
172,36.0,0,512,4.0,96.0
173,33.0,512,512,4.0,96.0
174,45.0,0,512,3.0,96.0
175,60.0,0,512,1.0,96.0
176,69.0,512,1280,0.0,96.0
177,55.0,0,1024,2.0,96.0
178,62.0,512,512,1.0,96.0
179,50.0,0,512,3.0,96.0
180,38.0,0,512,4.0,96.0
181,67.0,256,256,0.0,96.0
182,69.0,0,512,0.0,96.0
183,26.0,0,512,4.0,96.0
184,60.0,0,512,1.0,96.0
185,38.0,0,512,3.0,96.0
186,54.0,256,512,2.0,96.0
187,59.0,0,512,1.0,96.0
188,40.0,0,512,3.0,96.0
189,28.0,0,512,4.0,96.0
190,55.0,0,512,2.0,96.0
191,60.0,512,512,1.0,96.0
192,40.0,0,512,4.0,96.0
193,55.0,0,512,2.0,96.0
194,52.0,0,512,3.0,96.0
195,55.0,0,512,2.0,96.0
196,47.0,0,512,3.0,96.0
197,35.0,512,512,4.0,96.0
198,33.0,0,256,4.0,96.0
199,45.0,0,256,3.0,96.0
200,47.0,0,256,3.0,96.0
201,35.0,256,256,4.0,96.0
202,53.0,512,512,2.0,96.0
203,62.0,0,1536,1.0,96.0
204,60.0,512,256,1.0,96.0
205,59.0,256,256,1.0,96.0
206,52.0,0,1536,2.0,96.0
207,60.0,256,512,1.0,96.0
208,57.0,0,512,1.0,96.0
209,51.0,512,512,2.0,96.0
210,67.0,512,4096,0.0,96.0
211,36.0,256,2048,4.0,96.0
212,48.0,0,2048,3.0,96.0
213,31.0,0,512,4.0,96.0
214,50.0,512,512,2.0,96.0
215,43.0,0,512,3.0,96.0
216,59.0,0,512,1.0,96.0
217,59.0,512,512,2.0,96.0
218,60.0,512,512,2.0,96.0
219,59.0,512,512,2.0,96.0
220,57.0,512,512,2.0,96.0
221,64.0,0,512,1.0,96.0
222,55.0,512,512,2.0,96.0
223,54.0,512,512,2.0,96.0
224,62.0,0,512,1.0,96.0
225,55.0,0,512,2.0,96.0
226,64.0,512,512,1.0,96.0
227,57.0,512,512,2.0,96.0
228,66.0,0,512,1.0,96.0
229,59.0,512,512,2.0,96.0
230,67.0,0,512,1.0,96.0
231,69.0,0,512,1.0,96.0
232,67.0,512,512,1.0,96.0
233,38.0,0,512,4.0,96.0
234,50.0,512,512,3.0,96.0
235,60.0,512,2048,2.0,96.0
236,66.0,512,1024,1.0,96.0
237,67.0,0,512,1.0,96.0
238,52.0,512,512,3.0,96.0
239,40.0,0,512,4.0,96.0
240,50.0,0,512,3.0,96.0
241,59.0,0,1024,2.0,96.0
242,38.0,512,512,4.0,96.0
243,68.0,0,512,1.0,96.0
244,36.0,0,512,4.0,96.0
245,48.0,512,512,3.0,96.0
246,69.0,0,512,1.0,96.0
247,52.0,0,1024,2.0,96.0
248,47.0,0,512,3.0,96.0
249,67.0,0,512,1.0,96.0
250,35.0,512,512,4.0,96.0
251,45.0,0,512,3.0,96.0
252,33.0,0,512,4.0,96.0
253,66.0,0,512,1.0,96.0
254,64.0,512,256,1.0,96.0
255,35.0,0,512,4.0,96.0
256,63.0,256,256,1.0,96.0
257,47.0,0,512,3.0,96.0
258,57.0,512,1536,2.0,96.0
259,55.0,512,256,2.0,96.0
260,54.0,256,256,2.0,96.0
261,48.0,0,1536,3.0,96.0
262,36.0,256,1536,4.0,96.0
263,35.0,512,256,4.0,96.0
264,47.0,0,256,3.0,96.0
265,46.0,0,256,3.0,96.0
266,34.0,256,256,4.0,96.0
267,55.0,256,1536,2.0,96.0
268,54.0,512,256,2.0,96.0
269,52.0,256,256,2.0,96.0
270,64.0,0,3584,1.0,96.0
271,62.0,512,256,1.0,96.0
272,61.0,256,256,1.0,96.0
273,62.0,256,512,1.0,96.0
274,54.0,256,2048,2.0,96.0
275,35.0,0,3072,4.0,96.0
276,47.0,256,3072,3.0,96.0
277,66.0,512,512,1.0,96.0
278,67.0,512,512,1.0,96.0
279,54.0,512,512,2.0,96.0
280,66.0,0,512,1.0,96.0
281,55.0,0,512,2.0,96.0
282,64.0,512,512,1.0,96.0
283,35.0,0,512,4.0,96.0
284,47.0,512,512,3.0,96.0
285,62.0,0,512,1.0,96.0
286,56.0,0,512,2.0,96.0
287,61.0,0,512,1.0,96.0
288,45.0,0,512,3.0,96.0
289,33.0,512,512,4.0,96.0
290,35.0,0,512,4.0,96.0
291,63.0,512,512,1.0,96.0
292,47.0,0,512,3.0,96.0
293,48.0,0,512,3.0,96.0
294,36.0,0,512,4.0,96.0
295,57.0,0,1536,2.0,96.0
296,55.0,512,256,2.0,96.0
297,50.0,0,512,3.0,96.0
298,54.0,256,256,2.0,96.0
299,38.0,0,512,4.0,96.0
300,40.0,0,512,4.0,96.0
301,64.0,512,1536,1.0,96.0
302,52.0,256,512,3.0,96.0
303,66.0,0,256,1.0,96.0
304,50.0,0,512,3.0,96.0
305,38.0,512,512,4.0,96.0
306,67.0,256,256,1.0,96.0
307,49.0,256,512,3.0,96.0
308,37.0,0,512,4.0,96.0
309,55.0,0,1536,2.0,96.0
310,54.0,0,256,2.0,96.0
311,45.0,512,512,3.0,96.0
312,52.0,256,256,2.0,96.0
313,33.0,0,512,4.0,96.0
314,54.0,256,512,2.0,96.0
315,69.0,0,1536,1.0,96.0
316,67.0,512,256,1.0,96.0
317,59.0,0,512,2.0,96.0
318,66.0,256,256,1.0,96.0
319,38.0,0,1536,4.0,96.0
320,50.0,0,1536,3.0,96.0
321,49.0,0,256,3.0,96.0
322,37.0,512,256,4.0,96.0
323,47.0,256,256,3.0,96.0
324,35.0,0,256,4.0,96.0
325,37.0,256,512,4.0,96.0
326,49.0,0,512,3.0,96.0
327,52.0,256,1536,2.0,96.0
328,67.0,0,1536,1.0,96.0
329,66.0,0,256,1.0,96.0
330,64.0,256,256,1.0,96.0
331,57.0,512,512,2.0,96.0
332,36.0,0,1024,4.0,96.0
333,48.0,0,1024,3.0,96.0
334,66.0,0,512,1.0,96.0
335,35.0,0,256,4.0,96.0
336,47.0,0,256,3.0,96.0
337,33.0,0,256,4.0,96.0
338,50.0,256,1024,2.0,96.0
339,45.0,256,256,3.0,96.0
340,62.0,512,512,1.0,96.0
341,62.0,256,256,2.0,96.0
342,35.0,0,512,4.0,96.0
343,47.0,0,512,3.0,96.0
344,64.0,256,256,2.0,96.0
345,43.0,0,512,3.0,96.0
346,62.0,256,256,2.0,96.0
347,31.0,0,512,4.0,96.0
348,60.0,256,512,2.0,96.0
349,45.0,0,512,3.0,96.0
350,33.0,0,512,4.0,96.0
351,35.0,0,256,4.0,96.0
352,47.0,0,256,3.0,96.0
353,36.0,256,256,4.0,96.0
354,59.0,512,512,2.0,96.0
355,48.0,0,256,3.0,96.0
356,67.0,256,2304,1.0,96.0
357,64.0,256,256,1.0,96.0
358,57.0,0,512,2.0,96.0
359,62.0,256,256,1.0,96.0
360,59.0,0,512,2.0,96.0
361,64.0,256,256,1.0,96.0
362,50.0,256,1536,3.0,96.0
363,38.0,0,1536,4.0,96.0
364,66.0,0,512,1.0,96.0
365,52.0,0,512,3.0,96.0
366,40.0,512,512,4.0,96.0
367,67.0,0,512,1.0,96.0
368,69.0,0,512,1.0,96.0
369,54.0,512,512,3.0,96.0
370,42.0,0,512,4.0,96.0
371,60.0,256,1536,2.0,96.0
372,59.0,512,256,2.0,96.0
373,67.0,0,256,1.0,96.0
374,50.0,0,512,3.0,96.0
375,38.0,0,512,4.0,96.0
376,66.0,256,256,1.0,96.0
377,57.0,0,256,2.0,96.0
378,67.0,0,512,1.0,96.0
379,59.0,0,0,2.0,96.0
380,62.0,512,512,1.0,96.0
381,62.0,512,512,1.0,96.0
382,59.0,0,512,2.0,96.0
383,64.0,512,512,1.0,96.0
384,60.0,0,512,2.0,96.0
385,55.0,0,0,3.0,96.0
386,43.0,256,2560,4.0,96.0
387,65.0,512,512,1.0,96.0
388,67.0,512,256,1.0,96.0
389,55.0,256,0,3.0,96.0
390,66.0,256,256,1.0,96.0
391,62.0,0,1024,2.0,96.0
392,43.0,0,512,4.0,96.0
393,64.0,0,512,1.0,96.0
394,43.0,0,512,4.0,96.0
395,53.0,0,512,3.0,96.0
396,71.0,0,2048,0.0,96.0
397,62.0,512,512,1.0,96.0
398,41.0,0,512,4.0,96.0
399,67.0,0,1536,2.0,96.0
400,60.0,0,512,1.0,96.0
401,40.0,0,512,4.0,96.0
402,52.0,0,0,3.0,96.0
403,55.0,512,256,2.0,96.0
404,72.0,0,1024,0.0,96.0
405,40.0,0,512,4.0,96.0
406,57.0,256,256,2.0,96.0
407,67.0,256,0,1.0,96.0
408,52.0,0,512,3.0,96.0
409,40.0,0,512,4.0,96.0
410,59.0,0,512,2.0,96.0
411,60.0,0,256,2.0,96.0
412,38.0,0,512,4.0,96.0
413,66.0,0,512,1.0,96.0
414,50.0,512,512,3.0,96.0
415,62.0,256,256,2.0,96.0
416,71.0,0,1024,0.0,96.0
417,64.0,0,512,2.0,96.0
418,36.0,0,0,4.0,96.0
419,64.0,256,512,1.0,96.0
420,48.0,0,512,3.0,96.0
421,69.0,0,1024,0.0,96.0
422,66.0,0,512,1.0,96.0
423,62.0,512,512,2.0,96.0
424,48.0,0,512,3.0,96.0
425,36.0,512,512,4.0,96.0
426,48.0,0,512,3.0,96.0
427,62.0,0,512,2.0,96.0
428,64.0,0,256,2.0,96.0
429,47.0,512,512,3.0,96.0
430,62.0,256,256,2.0,96.0
431,67.0,0,1024,0.0,96.0
432,35.0,0,512,4.0,96.0
433,67.0,0,1024,1.0,96.0
434,33.0,0,512,4.0,96.0
435,45.0,0,512,3.0,96.0
436,60.0,256,512,2.0,96.0
437,59.0,0,256,2.0,96.0
438,50.0,0,512,3.0,96.0
439,57.0,256,256,2.0,96.0
440,38.0,512,512,4.0,96.0
441,62.0,0,512,1.0,96.0
442,66.0,0,1024,0.0,96.0
443,47.0,256,512,3.0,96.0
444,62.0,0,512,1.0,96.0
445,59.0,0,512,2.0,96.0
446,35.0,0,512,4.0,96.0
447,61.0,0,256,1.0,96.0
448,52.0,0,512,3.0,96.0
449,67.0,0,1024,0.0,96.0
450,59.0,256,256,1.0,96.0
451,40.0,512,512,4.0,96.0
452,37.0,256,512,4.0,96.0
453,64.0,0,512,1.0,96.0
454,55.0,0,0,2.0,96.0
455,49.0,0,512,3.0,96.0
456,45.0,0,256,3.0,96.0
457,33.0,512,256,4.0,96.0
458,61.0,0,256,1.0,96.0
459,62.0,0,256,1.0,96.0
460,54.0,256,256,2.0,96.0
461,35.0,0,256,4.0,96.0
462,47.0,0,256,3.0,96.0
463,64.0,256,512,1.0,96.0
464,49.0,0,512,3.0,96.0
465,37.0,0,512,4.0,96.0
466,52.0,0,512,2.0,96.0
467,54.0,0,256,2.0,96.0
468,45.0,0,512,3.0,96.0
469,33.0,0,512,4.0,96.0
470,61.0,512,512,1.0,96.0
471,55.0,256,256,2.0,96.0
472,62.0,0,256,1.0,96.0
473,57.0,0,512,2.0,96.0
474,64.0,256,256,1.0,96.0
475,42.0,256,512,4.0,96.0
476,54.0,0,512,3.0,96.0
477,66.0,256,512,1.0,96.0
478,50.0,0,512,3.0,96.0
479,38.0,0,512,4.0,96.0
480,64.0,0,256,1.0,96.0
481,45.0,512,512,4.0,96.0
482,62.0,0,1024,2.0,96.0
483,57.0,0,512,3.0,96.0
484,66.0,256,256,1.0,96.0
485,69.0,0,4096,0.0,96.0
486,45.0,0,512,3.0,96.0
487,67.0,0,512,1.0,96.0
488,33.0,256,512,4.0,96.0
489,61.0,0,512,2.0,96.0
490,38.0,512,512,4.0,96.0
491,62.0,0,512,2.0,96.0
492,66.0,0,512,1.0,96.0
493,50.0,0,512,3.0,96.0
494,62.0,512,512,2.0,96.0
495,60.0,512,512,2.0,96.0
496,59.0,512,512,2.0,96.0
497,57.0,512,1024,2.0,96.0
498,54.0,1024,1024,2.0,96.0
499,55.0,1024,512,2.0,96.0
500,54.0,0,512,2.0,96.0
501,57.0,512,512,1.0,96.0
502,59.0,0,512,1.0,96.0
503,52.0,512,1024,2.0,96.0
504,61.0,512,512,1.0,96.0
505,50.0,512,512,2.0,96.0
506,60.0,512,512,2.0,96.0
507,62.0,0,1024,1.0,96.0
508,59.0,512,512,2.0,96.0
509,65.0,0,1024,1.0,96.0
510,57.0,512,512,2.0,96.0
511,56.0,0,512,2.0,96.0
512,64.0,512,512,1.0,96.0
513,50.0,512,512,3.0,96.0
514,66.0,0,512,1.0,96.0
515,38.0,0,512,4.0,96.0
516,57.0,0,512,2.0,96.0
517,48.0,512,512,3.0,96.0
518,36.0,0,512,4.0,96.0
519,35.0,512,512,4.0,96.0
520,68.0,0,1024,1.0,96.0
521,47.0,0,512,3.0,96.0
522,59.0,0,1024,2.0,96.0
523,69.0,0,512,1.0,96.0
524,60.0,0,1024,2.0,96.0
525,45.0,0,1024,3.0,96.0
526,33.0,512,1024,4.0,96.0
527,65.0,512,512,1.0,96.0
528,64.0,0,512,1.0,96.0
529,32.0,0,1024,4.0,96.0
530,62.0,512,512,1.0,96.0
531,59.0,512,1024,2.0,96.0
532,44.0,0,1024,3.0,96.0
533,61.0,512,256,1.0,96.0
534,52.0,0,256,2.0,96.0
535,33.0,0,512,4.0,96.0
536,54.0,0,256,2.0,96.0
537,63.0,256,256,1.0,96.0
538,45.0,0,512,3.0,96.0
539,55.0,0,512,2.0,96.0
540,43.0,0,512,3.0,96.0
541,31.0,256,512,4.0,96.0
542,64.0,0,1024,1.0,96.0
543,57.0,0,512,2.0,96.0
544,63.0,512,512,1.0,96.0
545,59.0,0,512,2.0,96.0
546,30.0,0,1024,4.0,96.0
547,42.0,512,1024,3.0,96.0
548,28.0,0,512,4.0,96.0
549,40.0,0,512,3.0,96.0
550,64.0,0,768,1.0,96.0
551,66.0,256,256,1.0,96.0
552,33.0,512,512,4.0,96.0
553,45.0,0,512,3.0,96.0
554,60.0,512,1024,2.0,96.0
555,31.0,0,512,4.0,96.0
556,43.0,0,512,3.0,96.0
557,67.0,256,768,1.0,96.0
558,64.0,0,1024,2.0,96.0
559,69.0,256,256,1.0,96.0
560,36.0,512,512,4.0,96.0
561,48.0,0,512,3.0,96.0
