,note,step,duration,channel,velocity
0,65.0,0,96,0.0,92.0
1,64.0,96,96,0.0,92.0
2,65.0,96,96,0.0,92.0
3,60.0,96,96,0.0,92.0
4,69.0,96,96,0.0,92.0
5,65.0,96,96,0.0,92.0
6,67.0,96,96,0.0,92.0
7,65.0,96,96,0.0,92.0
8,67.0,96,96,0.0,92.0
9,60.0,96,96,0.0,92.0
10,70.0,96,96,0.0,92.0
11,67.0,96,96,0.0,92.0
12,53.0,96,96,0.0,92.0
13,52.0,96,96,0.0,92.0
14,69.0,0,192,0.0,92.0
15,53.0,96,96,0.0,92.0
16,48.0,96,96,0.0,92.0
17,65.0,0,192,0.0,92.0
18,57.0,0,96,0.0,92.0
19,53.0,96,96,0.0,92.0
20,55.0,96,96,0.0,92.0
21,53.0,96,96,0.0,92.0
22,77.0,96,384,0.0,92.0
23,76.0,0,24,0.0,92.0
24,77.0,24,24,0.0,92.0
25,55.0,96,96,0.0,92.0
26,48.0,48,96,0.0,92.0
27,76.0,24,240,0.0,92.0
28,58.0,96,96,0.0,92.0
29,74.0,0,48,0.0,92.0
30,76.0,48,48,0.0,92.0
31,55.0,96,96,0.0,92.0
32,77.0,0,96,0.0,92.0
33,57.0,48,192,0.0,92.0
34,76.0,96,96,0.0,92.0
35,77.0,0,96,0.0,92.0
36,72.0,96,96,0.0,92.0
37,53.0,96,192,0.0,92.0
38,74.0,96,96,0.0,92.0
39,69.0,96,96,0.0,92.0
40,70.0,96,96,0.0,92.0
41,65.0,0,384,0.0,92.0
42,69.0,96,96,0.0,92.0
43,64.0,96,24,0.0,92.0
44,65.0,24,24,0.0,92.0
45,70.0,0,96,0.0,92.0
46,67.0,48,96,0.0,92.0
47,72.0,96,96,0.0,92.0
48,64.0,24,240,0.0,92.0
49,62.0,0,48,0.0,92.0
50,67.0,96,96,0.0,92.0
51,64.0,48,48,0.0,92.0
52,65.0,0,96,0.0,92.0
53,69.0,48,96,0.0,92.0
54,64.0,0,96,0.0,92.0
55,70.0,96,96,0.0,92.0
56,65.0,96,96,0.0,92.0
57,69.0,0,96,0.0,92.0
58,67.0,0,96,0.0,92.0
59,60.0,96,96,0.0,92.0
60,65.0,96,96,0.0,92.0
61,62.0,0,96,0.0,92.0
62,57.0,0,96,0.0,92.0
63,69.0,96,96,0.0,92.0
64,58.0,96,96,0.0,92.0
65,67.0,0,96,0.0,92.0
66,69.0,0,96,0.0,92.0
67,57.0,96,96,0.0,92.0
68,67.0,96,96,0.0,92.0
69,58.0,0,96,0.0,92.0
70,55.0,0,96,0.0,92.0
71,65.0,96,96,0.0,92.0
72,64.0,0,96,0.0,92.0
73,60.0,96,96,0.0,92.0
74,55.0,0,96,0.0,92.0
75,67.0,96,96,0.0,92.0
76,57.0,96,96,0.0,92.0
77,65.0,0,96,0.0,92.0
78,64.0,96,96,0.0,92.0
79,58.0,0,96,0.0,92.0
80,65.0,96,96,0.0,92.0
81,57.0,0,96,0.0,92.0
82,55.0,96,96,0.0,92.0
83,67.0,0,96,0.0,92.0
84,69.0,0,96,0.0,92.0
85,53.0,96,96,0.0,92.0
86,57.0,96,96,0.0,92.0
87,65.0,0,96,0.0,92.0
88,67.0,0,96,0.0,92.0
89,55.0,96,96,0.0,92.0
90,65.0,96,96,0.0,92.0
91,57.0,0,96,0.0,92.0
92,67.0,0,96,0.0,92.0
93,55.0,96,96,0.0,92.0
94,53.0,0,96,0.0,92.0
95,69.0,96,96,0.0,92.0
96,52.0,96,96,0.0,92.0
97,70.0,0,96,0.0,92.0
98,67.0,0,96,0.0,92.0
99,55.0,96,96,0.0,92.0
100,69.0,96,96,0.0,92.0
101,53.0,0,96,0.0,92.0
102,67.0,96,96,0.0,92.0
103,52.0,0,96,0.0,92.0
104,53.0,0,96,0.0,92.0
105,69.0,96,96,0.0,92.0
106,70.0,0,96,0.0,92.0
107,55.0,96,96,0.0,92.0
108,57.0,0,96,0.0,92.0
109,72.0,96,96,0.0,92.0
110,53.0,96,96,0.0,92.0
111,69.0,0,96,0.0,92.0
112,55.0,96,96,0.0,92.0
113,70.0,0,96,0.0,92.0
114,53.0,0,96,0.0,92.0
115,69.0,96,96,0.0,92.0
116,70.0,96,96,0.0,92.0
117,55.0,0,96,0.0,92.0
118,57.0,96,96,0.0,92.0
119,72.0,0,96,0.0,92.0
120,58.0,96,96,0.0,92.0
121,74.0,0,96,0.0,92.0
122,70.0,96,96,0.0,92.0
123,55.0,0,96,0.0,92.0
124,72.0,96,96,0.0,92.0
125,57.0,0,96,0.0,92.0
126,70.0,0,96,0.0,92.0
127,55.0,96,96,0.0,92.0
128,57.0,96,96,0.0,92.0
129,72.0,0,96,0.0,92.0
130,65.0,0,96,0.0,92.0
131,58.0,96,96,0.0,92.0
132,60.0,0,96,0.0,92.0
133,75.0,96,96,0.0,92.0
134,57.0,0,96,0.0,92.0
135,72.0,96,96,0.0,92.0
136,58.0,96,96,0.0,92.0
137,74.0,0,96,0.0,92.0
138,72.0,96,96,0.0,92.0
139,57.0,0,96,0.0,92.0
140,74.0,96,96,0.0,92.0
141,58.0,0,96,0.0,92.0
142,60.0,0,96,0.0,92.0
143,65.0,96,96,0.0,92.0
144,62.0,96,96,0.0,92.0
145,77.0,0,96,0.0,92.0
146,58.0,96,96,0.0,92.0
147,74.0,0,96,0.0,92.0
148,60.0,96,96,0.0,92.0
149,75.0,0,96,0.0,92.0
150,74.0,0,96,0.0,92.0
151,58.0,96,96,0.0,92.0
152,75.0,96,96,0.0,92.0
153,60.0,0,96,0.0,92.0
154,53.0,0,96,0.0,92.0
155,77.0,96,96,0.0,92.0
156,63.0,0,96,0.0,92.0
157,79.0,96,96,0.0,92.0
158,60.0,96,96,0.0,92.0
159,81.0,0,96,0.0,92.0
160,82.0,96,96,0.0,92.0
161,62.0,0,96,0.0,92.0
162,60.0,96,96,0.0,92.0
163,81.0,0,96,0.0,92.0
164,62.0,96,96,0.0,92.0
165,82.0,0,96,0.0,92.0
166,53.0,96,96,0.0,92.0
167,84.0,0,96,0.0,92.0
168,65.0,96,96,0.0,92.0
169,81.0,0,96,0.0,92.0
170,62.0,96,96,0.0,92.0
171,82.0,0,96,0.0,92.0
172,84.0,96,96,0.0,92.0
173,63.0,0,96,0.0,92.0
174,62.0,96,96,0.0,92.0
175,82.0,0,96,0.0,92.0
176,63.0,96,96,0.0,92.0
177,81.0,0,96,0.0,92.0
178,79.0,96,96,0.0,92.0
179,65.0,0,96,0.0,92.0
180,77.0,0,96,0.0,92.0
181,67.0,96,96,0.0,92.0
182,75.0,96,96,0.0,92.0
183,69.0,0,96,0.0,92.0
184,74.0,96,96,0.0,92.0
185,70.0,0,96,0.0,92.0
186,77.0,0,96,0.0,92.0
187,69.0,96,96,0.0,92.0
188,79.0,96,96,0.0,92.0
189,70.0,0,96,0.0,92.0
190,72.0,0,96,0.0,92.0
191,77.0,96,96,0.0,92.0
192,75.0,96,96,0.0,92.0
193,69.0,0,96,0.0,92.0
194,74.0,96,96,0.0,92.0
195,70.0,0,96,0.0,92.0
196,75.0,96,96,0.0,92.0
197,72.0,0,96,0.0,92.0
198,70.0,96,96,0.0,92.0
199,74.0,0,96,0.0,92.0
200,69.0,0,96,0.0,92.0
201,75.0,96,96,0.0,92.0
202,72.0,96,96,0.0,92.0
203,67.0,0,96,0.0,92.0
204,77.0,96,96,0.0,92.0
205,65.0,0,96,0.0,92.0
206,63.0,0,96,0.0,92.0
207,69.0,96,96,0.0,92.0
208,70.0,96,96,0.0,92.0
209,62.0,0,96,0.0,92.0
210,69.0,96,96,0.0,92.0
211,65.0,0,96,0.0,92.0
212,70.0,96,96,0.0,92.0
213,67.0,0,96,0.0,92.0
214,72.0,96,96,0.0,92.0
215,65.0,0,96,0.0,92.0
216,69.0,0,96,0.0,92.0
217,63.0,96,96,0.0,92.0
218,62.0,0,96,0.0,92.0
219,70.0,96,96,0.0,92.0
220,63.0,0,96,0.0,92.0
221,72.0,96,96,0.0,92.0
222,62.0,96,96,0.0,92.0
223,70.0,0,96,0.0,92.0
224,72.0,0,96,0.0,92.0
225,63.0,96,96,0.0,92.0
226,74.0,0,96,0.0,92.0
227,60.0,96,96,0.0,92.0
228,70.0,96,96,0.0,92.0
229,65.0,0,96,0.0,92.0
230,57.0,96,96,0.0,92.0
231,72.0,0,96,0.0,92.0
232,58.0,96,96,0.0,92.0
233,74.0,0,96,0.0,92.0
234,57.0,96,96,0.0,92.0
235,72.0,0,96,0.0,92.0
236,58.0,96,96,0.0,92.0
237,74.0,0,96,0.0,92.0
238,60.0,96,96,0.0,92.0
239,75.0,0,96,0.0,92.0
240,57.0,96,96,0.0,92.0
241,77.0,0,96,0.0,92.0
242,58.0,96,96,0.0,92.0
243,79.0,0,96,0.0,92.0
244,69.0,0,96,0.0,92.0
245,60.0,96,96,0.0,92.0
246,72.0,0,96,0.0,92.0
247,58.0,96,96,0.0,92.0
248,60.0,0,96,0.0,92.0
249,70.0,96,96,0.0,92.0
250,62.0,96,96,0.0,92.0
251,69.0,0,96,0.0,92.0
252,58.0,96,96,0.0,92.0
253,67.0,0,96,0.0,92.0
254,65.0,0,96,0.0,92.0
255,60.0,96,96,0.0,92.0
256,70.0,96,96,0.0,92.0
257,62.0,0,96,0.0,92.0
258,60.0,0,96,0.0,92.0
259,69.0,96,96,0.0,92.0
260,70.0,0,96,0.0,92.0
261,62.0,96,96,0.0,92.0
262,65.0,96,96,0.0,92.0
263,63.0,0,96,0.0,92.0
264,74.0,96,96,0.0,92.0
265,65.0,0,96,0.0,92.0
266,70.0,0,96,0.0,92.0
267,67.0,96,96,0.0,92.0
268,72.0,0,96,0.0,92.0
269,57.0,96,96,0.0,92.0
270,70.0,0,96,0.0,92.0
271,60.0,96,96,0.0,92.0
272,72.0,96,96,0.0,92.0
273,58.0,0,96,0.0,92.0
274,57.0,0,96,0.0,92.0
275,65.0,96,96,0.0,92.0
276,55.0,0,96,0.0,92.0
277,75.0,96,96,0.0,92.0
278,53.0,0,96,0.0,92.0
279,72.0,96,96,0.0,92.0
280,58.0,0,96,0.0,92.0
281,74.0,96,192,0.0,92.0
282,57.0,96,96,0.0,92.0
283,58.0,96,96,0.0,92.0
284,65.0,0,192,0.0,92.0
285,53.0,96,96,0.0,92.0
286,62.0,0,96,0.0,92.0
287,58.0,96,96,0.0,92.0
288,60.0,96,96,0.0,92.0
289,70.0,96,384,0.0,92.0
290,58.0,96,96,0.0,92.0
291,69.0,0,24,0.0,92.0
292,70.0,24,24,0.0,92.0
293,60.0,96,96,0.0,92.0
294,53.0,48,96,0.0,92.0
295,63.0,96,96,0.0,92.0
296,69.0,24,240,0.0,92.0
297,67.0,0,48,0.0,92.0
298,69.0,48,48,0.0,92.0
299,60.0,96,96,0.0,92.0
300,70.0,48,96,0.0,92.0
301,62.0,0,192,0.0,92.0
302,69.0,96,96,0.0,92.0
303,70.0,0,96,0.0,92.0
304,65.0,96,96,0.0,92.0
305,53.0,96,192,0.0,92.0
306,67.0,96,96,0.0,92.0
307,62.0,96,96,0.0,92.0
308,63.0,96,96,0.0,92.0
309,58.0,0,384,0.0,92.0
310,62.0,96,96,0.0,92.0
311,57.0,0,24,0.0,92.0
312,58.0,24,24,0.0,92.0
313,63.0,96,96,0.0,92.0
314,60.0,48,96,0.0,92.0
315,57.0,24,240,0.0,92.0
316,65.0,96,96,0.0,92.0
317,55.0,96,48,0.0,92.0
318,60.0,0,96,0.0,92.0
319,57.0,48,48,0.0,92.0
320,58.0,48,96,0.0,92.0
321,62.0,0,96,0.0,92.0
322,60.0,96,96,0.0,92.0
323,57.0,0,96,0.0,92.0
324,62.0,96,96,0.0,92.0
325,58.0,0,96,0.0,92.0
326,53.0,0,96,0.0,92.0
327,65.0,96,96,0.0,92.0
328,58.0,96,96,0.0,92.0
329,55.0,0,96,0.0,92.0
330,62.0,96,96,0.0,92.0
331,50.0,0,96,0.0,92.0
332,51.0,96,96,0.0,92.0
333,60.0,0,96,0.0,92.0
334,58.0,0,96,0.0,92.0
335,50.0,96,96,0.0,92.0
336,51.0,0,96,0.0,92.0
337,60.0,96,96,0.0,92.0
338,63.0,0,96,0.0,92.0
339,48.0,96,96,0.0,92.0
340,53.0,0,96,0.0,92.0
341,57.0,96,96,0.0,92.0
342,60.0,0,96,0.0,92.0
343,48.0,96,96,0.0,92.0
344,58.0,96,96,0.0,92.0
345,50.0,0,96,0.0,92.0
346,48.0,0,96,0.0,92.0
347,57.0,96,96,0.0,92.0
348,58.0,96,96,0.0,92.0
349,50.0,0,96,0.0,92.0
350,53.0,0,96,0.0,92.0
351,60.0,96,96,0.0,92.0
352,46.0,0,96,0.0,92.0
353,62.0,96,96,0.0,92.0
354,50.0,96,96,0.0,92.0
355,63.0,0,96,0.0,92.0
356,65.0,96,96,0.0,92.0
357,48.0,0,96,0.0,92.0
358,67.0,0,96,0.0,92.0
359,46.0,96,96,0.0,92.0
360,69.0,96,96,0.0,92.0
361,48.0,0,96,0.0,92.0
362,70.0,96,96,0.0,92.0
363,51.0,0,96,0.0,92.0
364,45.0,96,96,0.0,92.0
365,72.0,0,96,0.0,92.0
366,48.0,96,96,0.0,92.0
367,69.0,0,96,0.0,92.0
368,74.0,0,96,0.0,92.0
369,46.0,96,96,0.0,92.0
370,72.0,96,96,0.0,92.0
371,45.0,0,96,0.0,92.0
372,74.0,96,96,0.0,92.0
373,46.0,0,96,0.0,92.0
374,75.0,96,96,0.0,92.0
375,48.0,0,96,0.0,92.0
376,50.0,96,96,0.0,92.0
377,77.0,0,96,0.0,92.0
378,79.0,96,96,0.0,92.0
379,51.0,0,96,0.0,92.0
380,53.0,96,96,0.0,92.0
381,81.0,0,96,0.0,92.0
382,82.0,0,96,0.0,92.0
383,55.0,96,96,0.0,92.0
384,57.0,0,96,0.0,92.0
385,79.0,0,96,0.0,92.0
386,58.0,96,96,0.0,92.0
387,60.0,96,96,0.0,92.0
388,81.0,0,96,0.0,92.0
389,57.0,96,96,0.0,92.0
390,75.0,0,96,0.0,92.0
391,62.0,96,96,0.0,92.0
392,84.0,96,480,0.0,92.0
393,60.0,0,96,0.0,92.0
394,81.0,96,96,0.0,92.0
395,62.0,96,96,0.0,92.0
396,77.0,0,288,0.0,92.0
397,63.0,0,96,0.0,92.0
398,72.0,96,96,0.0,92.0
399,82.0,0,288,0.0,92.0
400,65.0,96,96,0.0,92.0
401,82.0,0,96,0.0,92.0
402,67.0,96,96,0.0,92.0
403,69.0,0,96,0.0,92.0
404,74.0,0,384,0.0,92.0
405,70.0,96,96,0.0,92.0
406,72.0,0,96,0.0,92.0
407,67.0,96,96,0.0,92.0
408,75.0,96,576,0.0,92.0
409,69.0,96,192,0.0,92.0
410,63.0,96,96,0.0,92.0
411,65.0,96,96,0.0,92.0
412,69.0,96,96,0.0,92.0
413,70.0,0,96,0.0,92.0
414,65.0,96,96,0.0,92.0
415,67.0,96,0,0.0,92.0
416,62.0,96,96,0.0,92.0
417,74.0,0,672,0.0,92.0
418,70.0,96,96,0.0,92.0
419,67.0,96,96,0.0,92.0
420,63.0,0,480,0.0,92.0
421,69.0,96,96,0.0,92.0
422,63.0,96,96,0.0,92.0
423,60.0,0,96,0.0,92.0
424,72.0,96,480,0.0,92.0
425,69.0,96,96,0.0,92.0
426,65.0,96,288,0.0,92.0
427,65.0,96,96,0.0,92.0
428,62.0,0,480,0.0,92.0
429,67.0,96,96,0.0,92.0
430,62.0,0,96,0.0,92.0
431,58.0,96,96,0.0,92.0
432,70.0,96,480,0.0,92.0
433,67.0,96,96,0.0,92.0
434,63.0,96,288,0.0,92.0
435,62.0,96,96,0.0,92.0
436,60.0,0,480,0.0,92.0
437,63.0,96,192,0.0,92.0
438,53.0,96,96,0.0,92.0
439,69.0,96,480,0.0,92.0
440,65.0,96,96,0.0,92.0
441,62.0,96,288,0.0,92.0
442,60.0,96,96,0.0,92.0
443,58.0,0,480,0.0,92.0
444,62.0,96,192,0.0,92.0
445,52.0,96,96,0.0,92.0
446,67.0,96,480,0.0,92.0
447,64.0,96,96,0.0,92.0
448,60.0,96,288,0.0,92.0
449,58.0,96,96,0.0,92.0
450,57.0,0,480,0.0,92.0
451,50.0,96,96,0.0,92.0
452,60.0,96,192,0.0,92.0
453,65.0,96,480,0.0,92.0
454,62.0,96,96,0.0,92.0
455,58.0,0,288,0.0,92.0
456,57.0,96,96,0.0,92.0
457,55.0,96,480,0.0,92.0
458,64.0,96,384,0.0,92.0
459,48.0,96,96,0.0,92.0
460,58.0,96,192,0.0,92.0
461,65.0,96,96,0.0,92.0
462,64.0,96,96,0.0,92.0
463,57.0,0,192,0.0,92.0
464,65.0,96,96,0.0,92.0
465,48.0,0,192,0.0,92.0
466,53.0,0,384,0.0,92.0
467,60.0,96,96,0.0,92.0
468,69.0,96,96,0.0,92.0
469,65.0,96,96,0.0,92.0
470,67.0,96,96,0.0,92.0
471,65.0,96,96,0.0,92.0
472,53.0,0,384,0.0,92.0
473,52.0,0,24,0.0,92.0
474,53.0,24,24,0.0,92.0
475,67.0,96,96,0.0,92.0
476,60.0,48,96,0.0,92.0
477,52.0,24,240,0.0,92.0
478,70.0,96,96,0.0,92.0
479,50.0,96,48,0.0,92.0
480,52.0,48,48,0.0,92.0
481,67.0,0,96,0.0,92.0
482,69.0,0,96,0.0,92.0
483,53.0,48,96,0.0,92.0
484,52.0,0,96,0.0,92.0
485,67.0,96,96,0.0,92.0
486,53.0,96,96,0.0,92.0
487,69.0,0,96,0.0,92.0
488,48.0,96,96,0.0,92.0
489,70.0,0,96,0.0,92.0
490,57.0,0,96,0.0,92.0
491,72.0,96,96,0.0,92.0
492,53.0,96,96,0.0,92.0
493,69.0,0,96,0.0,92.0
494,70.0,0,96,0.0,92.0
495,55.0,96,96,0.0,92.0
496,53.0,0,96,0.0,92.0
497,69.0,96,96,0.0,92.0
498,70.0,96,96,0.0,92.0
499,55.0,0,96,0.0,92.0
500,72.0,0,96,0.0,92.0
501,48.0,96,96,0.0,92.0
502,58.0,96,96,0.0,92.0
503,74.0,0,96,0.0,92.0
504,70.0,0,96,0.0,92.0
505,55.0,96,96,0.0,92.0
506,72.0,96,96,0.0,92.0
507,57.0,0,96,0.0,92.0
508,55.0,96,96,0.0,92.0
509,70.0,0,96,0.0,92.0
510,57.0,96,96,0.0,92.0
511,72.0,0,96,0.0,92.0
512,74.0,0,96,0.0,92.0
513,58.0,96,96,0.0,92.0
514,60.0,96,96,0.0,92.0
515,75.0,0,96,0.0,92.0
516,72.0,0,96,0.0,92.0
517,57.0,96,96,0.0,92.0
518,74.0,96,96,0.0,92.0
519,58.0,0,96,0.0,92.0
520,57.0,0,96,0.0,92.0
521,72.0,96,96,0.0,92.0
522,74.0,96,96,0.0,92.0
523,58.0,0,96,0.0,92.0
524,60.0,0,96,0.0,92.0
525,76.0,96,96,0.0,92.0
526,77.0,0,96,0.0,92.0
527,62.0,96,96,0.0,92.0
528,79.0,0,96,0.0,92.0
529,58.0,96,96,0.0,92.0
530,81.0,96,96,0.0,92.0
531,60.0,0,96,0.0,92.0
532,58.0,0,96,0.0,92.0
533,79.0,96,96,0.0,92.0
534,60.0,96,96,0.0,92.0
535,81.0,0,96,0.0,92.0
536,62.0,96,96,0.0,92.0
537,82.0,0,96,0.0,92.0
538,63.0,96,96,0.0,92.0
539,79.0,0,96,0.0,92.0
540,60.0,96,96,0.0,92.0
541,81.0,0,96,0.0,92.0
542,82.0,96,96,0.0,92.0
543,62.0,0,96,0.0,92.0
544,81.0,96,96,0.0,92.0
545,60.0,0,96,0.0,92.0
546,82.0,96,96,0.0,92.0
547,62.0,0,96,0.0,92.0
548,84.0,96,96,0.0,92.0
549,64.0,0,96,0.0,92.0
550,81.0,0,96,0.0,92.0
551,65.0,96,96,0.0,92.0
552,82.0,0,96,0.0,92.0
553,67.0,96,96,0.0,92.0
554,69.0,0,96,0.0,92.0
555,67.0,96,96,0.0,92.0
556,84.0,96,192,0.0,92.0
557,69.0,96,96,0.0,92.0
558,70.0,96,96,0.0,92.0
559,67.0,96,96,0.0,92.0
560,69.0,96,96,0.0,92.0
561,70.0,96,96,0.0,92.0
562,69.0,96,96,0.0,92.0
563,70.0,96,96,0.0,92.0
564,72.0,96,96,0.0,92.0
565,69.0,96,96,0.0,92.0
566,41.0,0,31104,0.0,102.0
567,70.0,96,96,0.0,92.0
568,53.0,96,96,0.0,102.0
569,72.0,0,192,0.0,92.0
570,52.0,96,96,0.0,102.0
571,53.0,96,96,0.0,102.0
572,48.0,96,96,0.0,102.0
573,57.0,96,96,0.0,102.0
574,53.0,96,96,0.0,102.0
575,55.0,96,96,0.0,102.0
576,53.0,96,96,0.0,102.0
577,55.0,96,96,0.0,102.0
578,48.0,96,96,0.0,102.0
579,58.0,96,96,0.0,102.0
580,55.0,96,96,0.0,102.0
581,57.0,96,96,0.0,102.0
582,55.0,96,96,0.0,102.0
583,57.0,96,96,0.0,102.0
584,53.0,96,96,0.0,102.0
585,60.0,96,96,0.0,102.0
586,57.0,96,96,0.0,102.0
587,58.0,96,96,0.0,102.0
588,57.0,96,96,0.0,102.0
589,58.0,96,96,0.0,102.0
590,53.0,96,96,0.0,102.0
591,62.0,96,96,0.0,102.0
592,58.0,96,96,0.0,102.0
593,60.0,96,96,0.0,102.0
594,58.0,96,96,0.0,102.0
595,60.0,96,96,0.0,102.0
596,57.0,96,96,0.0,102.0
597,62.0,96,96,0.0,102.0
598,57.0,96,96,0.0,102.0
599,58.0,96,96,0.0,102.0
600,57.0,96,96,0.0,102.0
601,58.0,96,96,0.0,102.0
602,55.0,96,96,0.0,102.0
603,60.0,96,96,0.0,102.0
604,55.0,96,96,0.0,102.0
605,57.0,96,96,0.0,102.0
606,55.0,96,96,0.0,102.0
607,57.0,96,96,0.0,102.0
608,53.0,96,96,0.0,102.0
609,60.0,96,96,0.0,102.0
610,51.0,96,96,0.0,102.0
611,53.0,96,96,0.0,102.0
612,51.0,96,96,0.0,102.0
613,53.0,96,96,0.0,102.0
614,50.0,96,96,0.0,102.0
615,58.0,96,96,0.0,102.0
616,50.0,96,96,0.0,102.0
617,51.0,96,96,0.0,102.0
618,50.0,96,96,0.0,102.0
619,51.0,96,96,0.0,102.0
620,48.0,96,96,0.0,102.0
621,57.0,96,96,0.0,102.0
622,48.0,96,96,0.0,102.0
623,50.0,96,96,0.0,102.0
624,48.0,96,96,0.0,102.0
625,50.0,96,96,0.0,102.0
626,46.0,96,96,0.0,102.0
627,53.0,96,96,0.0,102.0
628,50.0,96,96,0.0,102.0
629,58.0,96,96,0.0,102.0
630,57.0,96,96,0.0,102.0
631,58.0,96,96,0.0,102.0
632,53.0,96,96,0.0,102.0
633,55.0,96,96,0.0,102.0
634,50.0,96,96,0.0,102.0
635,52.0,96,96,0.0,102.0
636,50.0,96,96,0.0,102.0
637,52.0,96,96,0.0,102.0
638,48.0,96,96,0.0,102.0
639,55.0,96,96,0.0,102.0
640,52.0,96,96,0.0,102.0
641,58.0,96,96,0.0,102.0
642,57.0,96,96,0.0,102.0
643,58.0,96,96,0.0,102.0
644,53.0,96,96,0.0,102.0
645,55.0,96,96,0.0,102.0
646,50.0,96,96,0.0,102.0
647,52.0,96,96,0.0,102.0
648,50.0,96,96,0.0,102.0
649,52.0,96,96,0.0,102.0
650,48.0,96,96,0.0,102.0
651,55.0,96,96,0.0,102.0
652,52.0,96,96,0.0,102.0
653,57.0,96,96,0.0,102.0
654,55.0,96,96,0.0,102.0
655,57.0,96,96,0.0,102.0
656,52.0,96,96,0.0,102.0
657,53.0,96,96,0.0,102.0
658,48.0,96,96,0.0,102.0
659,50.0,96,96,0.0,102.0
660,48.0,96,96,0.0,102.0
661,50.0,96,96,0.0,102.0
662,47.0,96,96,0.0,102.0
663,53.0,96,96,0.0,102.0
664,50.0,96,96,0.0,102.0
665,55.0,96,96,0.0,102.0
666,53.0,96,96,0.0,102.0
667,55.0,96,96,0.0,102.0
668,50.0,96,96,0.0,102.0
669,52.0,96,96,0.0,102.0
670,47.0,96,96,0.0,102.0
671,48.0,96,96,0.0,102.0
672,47.0,96,96,0.0,102.0
673,48.0,96,96,0.0,102.0
674,45.0,96,96,0.0,102.0
675,52.0,96,96,0.0,102.0
676,48.0,96,96,0.0,102.0
677,53.0,96,96,0.0,102.0
678,52.0,96,96,0.0,102.0
679,53.0,96,96,0.0,102.0
680,48.0,96,96,0.0,102.0
681,50.0,96,96,0.0,102.0
682,45.0,96,96,0.0,102.0
683,47.0,96,96,0.0,102.0
684,45.0,96,96,0.0,102.0
685,47.0,96,96,0.0,102.0
686,43.0,96,96,0.0,102.0
687,50.0,96,96,0.0,102.0
688,47.0,96,96,0.0,102.0
689,53.0,96,96,0.0,102.0
690,52.0,96,96,0.0,102.0
691,53.0,96,96,0.0,102.0
692,48.0,96,96,0.0,102.0
693,50.0,96,96,0.0,102.0
694,45.0,96,96,0.0,102.0
695,47.0,96,96,0.0,102.0
696,45.0,96,96,0.0,102.0
697,47.0,96,96,0.0,102.0
698,43.0,96,96,0.0,102.0
699,50.0,96,96,0.0,102.0
700,47.0,96,96,0.0,102.0
701,51.0,96,96,0.0,102.0
702,50.0,96,96,0.0,102.0
703,51.0,96,96,0.0,102.0
704,47.0,96,96,0.0,102.0
705,48.0,96,96,0.0,102.0
706,43.0,96,96,0.0,102.0
707,45.0,96,96,0.0,102.0
708,43.0,96,96,0.0,102.0
709,45.0,96,96,0.0,102.0
710,42.0,96,96,0.0,102.0
711,48.0,96,96,0.0,102.0
712,45.0,96,96,0.0,102.0
713,51.0,96,96,0.0,102.0
714,50.0,96,96,0.0,102.0
715,51.0,96,96,0.0,102.0
716,47.0,96,96,0.0,102.0
717,48.0,96,96,0.0,102.0
718,43.0,96,96,0.0,102.0
719,45.0,96,96,0.0,102.0
720,43.0,96,96,0.0,102.0
721,45.0,96,96,0.0,102.0
722,42.0,96,96,0.0,102.0
723,48.0,96,96,0.0,102.0
724,45.0,96,96,0.0,102.0
725,42.0,96,192,0.0,102.0
726,72.0,0,192,0.0,92.0
727,64.0,0,192,0.0,92.0
728,67.0,0,192,0.0,92.0
729,48.0,0,192,0.0,92.0
730,55.0,192,0,0.0,92.0
731,52.0,0,192,0.0,92.0
732,43.0,0,384,0.0,102.0
733,50.0,0,192,0.0,92.0
734,71.0,0,192,0.0,92.0
735,67.0,0,192,0.0,92.0
736,62.0,0,192,0.0,92.0
737,53.0,0,192,0.0,92.0
738,52.0,0,192,0.0,92.0
739,67.0,0,192,0.0,92.0
740,64.0,0,192,0.0,92.0
741,48.0,0,192,0.0,92.0
742,55.0,0,192,0.0,92.0
743,36.0,0,192,0.0,102.0
744,72.0,192,192,0.0,92.0
745,48.0,0,96,0.0,92.0
746,47.0,96,96,0.0,92.0
747,48.0,96,96,0.0,92.0
748,43.0,96,96,0.0,92.0
749,52.0,96,96,0.0,92.0
750,48.0,96,96,0.0,92.0
751,50.0,96,96,0.0,92.0
752,48.0,96,96,0.0,92.0
753,50.0,96,96,0.0,92.0
754,43.0,96,96,0.0,92.0
755,53.0,96,96,0.0,92.0
756,50.0,96,96,0.0,92.0
757,72.0,0,96,0.0,92.0
758,52.0,96,192,0.0,92.0
759,71.0,96,96,0.0,92.0
760,72.0,0,96,0.0,92.0
761,67.0,96,96,0.0,92.0
762,48.0,96,192,0.0,92.0
763,76.0,0,96,0.0,92.0
764,72.0,96,96,0.0,92.0
765,74.0,96,96,0.0,92.0
766,72.0,96,96,0.0,92.0
767,60.0,96,384,0.0,92.0
768,59.0,0,24,0.0,92.0
769,60.0,24,24,0.0,92.0
770,74.0,96,96,0.0,92.0
771,67.0,48,96,0.0,92.0
772,59.0,24,240,0.0,92.0
773,77.0,96,96,0.0,92.0
774,57.0,96,48,0.0,92.0
775,74.0,0,96,0.0,92.0
776,59.0,48,48,0.0,92.0
777,60.0,0,96,0.0,92.0
778,59.0,96,96,0.0,92.0
779,76.0,48,192,0.0,92.0
780,60.0,96,96,0.0,92.0
781,55.0,96,96,0.0,92.0
782,72.0,0,192,0.0,92.0
783,57.0,96,96,0.0,92.0
784,52.0,96,96,0.0,92.0
785,53.0,96,96,0.0,92.0
786,84.0,0,384,0.0,92.0
787,52.0,96,96,0.0,92.0
788,83.0,0,24,0.0,92.0
789,84.0,24,24,0.0,92.0
790,53.0,96,96,0.0,92.0
791,50.0,48,96,0.0,92.0
792,83.0,24,240,0.0,92.0
793,55.0,96,96,0.0,92.0
794,81.0,96,48,0.0,92.0
795,83.0,48,48,0.0,92.0
796,50.0,0,96,0.0,92.0
797,52.0,48,96,0.0,92.0
798,84.0,0,96,0.0,92.0
799,53.0,96,96,0.0,92.0
800,83.0,0,96,0.0,92.0
801,84.0,96,96,0.0,92.0
802,52.0,0,96,0.0,92.0
803,50.0,0,96,0.0,92.0
804,79.0,96,96,0.0,92.0
805,48.0,96,96,0.0,92.0
806,81.0,0,96,0.0,92.0
807,52.0,0,96,0.0,92.0
808,76.0,96,96,0.0,92.0
809,50.0,0,96,0.0,92.0
810,77.0,96,96,0.0,92.0
811,52.0,0,96,0.0,92.0
812,76.0,96,96,0.0,92.0
813,50.0,96,96,0.0,92.0
814,77.0,0,96,0.0,92.0
815,74.0,96,96,0.0,92.0
816,48.0,0,96,0.0,92.0
817,79.0,96,96,0.0,92.0
818,47.0,0,96,0.0,92.0
819,74.0,96,96,0.0,92.0
820,50.0,0,96,0.0,92.0
821,76.0,0,96,0.0,92.0
822,48.0,96,96,0.0,92.0
823,47.0,0,96,0.0,92.0
824,77.0,96,96,0.0,92.0
825,48.0,96,96,0.0,92.0
826,76.0,0,96,0.0,92.0
827,74.0,96,96,0.0,92.0
828,50.0,0,96,0.0,92.0
829,72.0,96,96,0.0,92.0
830,52.0,0,96,0.0,92.0
831,76.0,96,96,0.0,92.0
832,48.0,0,96,0.0,92.0
833,50.0,0,96,0.0,92.0
834,74.0,96,96,0.0,92.0
835,48.0,96,96,0.0,92.0
836,76.0,0,96,0.0,92.0
837,50.0,96,96,0.0,92.0
838,74.0,0,96,0.0,92.0
839,52.0,96,96,0.0,92.0
840,72.0,0,96,0.0,92.0
841,71.0,0,96,0.0,92.0
842,53.0,96,96,0.0,92.0
843,50.0,0,96,0.0,92.0
844,74.0,96,96,0.0,92.0
845,72.0,0,96,0.0,92.0
846,52.0,96,96,0.0,92.0
847,50.0,0,96,0.0,92.0
848,71.0,96,96,0.0,92.0
849,72.0,96,96,0.0,92.0
850,52.0,0,96,0.0,92.0
851,74.0,96,96,0.0,92.0
852,53.0,0,96,0.0,92.0
853,55.0,96,96,0.0,92.0
854,76.0,0,96,0.0,92.0
855,72.0,96,96,0.0,92.0
856,52.0,0,96,0.0,92.0
857,74.0,96,96,0.0,92.0
858,53.0,0,96,0.0,92.0
859,52.0,96,96,0.0,92.0
860,72.0,0,96,0.0,92.0
861,53.0,96,96,0.0,92.0
862,74.0,0,96,0.0,92.0
863,55.0,0,96,0.0,92.0
864,76.0,96,96,0.0,92.0
865,77.0,0,96,0.0,92.0
866,57.0,96,96,0.0,92.0
867,74.0,96,96,0.0,92.0
868,53.0,0,96,0.0,92.0
869,76.0,96,96,0.0,92.0
870,55.0,0,96,0.0,92.0
871,74.0,96,96,0.0,92.0
872,53.0,0,96,0.0,92.0
873,76.0,96,96,0.0,92.0
874,55.0,0,96,0.0,92.0
875,48.0,96,96,0.0,92.0
876,77.0,0,96,0.0,92.0
877,58.0,0,96,0.0,92.0
878,79.0,96,96,0.0,92.0
879,76.0,96,96,0.0,92.0
880,55.0,0,96,0.0,92.0
881,77.0,96,96,0.0,92.0
882,57.0,0,96,0.0,92.0
883,76.0,96,96,0.0,92.0
884,55.0,0,96,0.0,92.0
885,57.0,96,96,0.0,92.0
886,77.0,0,96,0.0,92.0
887,48.0,96,96,0.0,92.0
888,79.0,0,96,0.0,92.0
889,81.0,96,96,0.0,92.0
890,60.0,0,96,0.0,92.0
891,57.0,96,96,0.0,92.0
892,77.0,0,96,0.0,92.0
893,79.0,96,96,0.0,92.0
894,58.0,0,96,0.0,92.0
895,77.0,96,96,0.0,92.0
896,57.0,0,96,0.0,92.0
897,79.0,96,96,0.0,92.0
898,58.0,0,96,0.0,92.0
899,60.0,0,96,0.0,92.0
900,72.0,96,96,0.0,92.0
901,62.0,0,96,0.0,92.0
902,82.0,96,96,0.0,92.0
903,79.0,0,96,0.0,92.0
904,64.0,96,96,0.0,92.0
905,81.0,0,96,0.0,92.0
906,65.0,96,96,0.0,92.0
907,79.0,0,96,0.0,92.0
908,64.0,96,96,0.0,92.0
909,81.0,0,96,0.0,92.0
910,65.0,96,96,0.0,92.0
911,67.0,96,96,0.0,92.0
912,72.0,0,96,0.0,92.0
913,64.0,96,96,0.0,92.0
914,84.0,0,96,0.0,92.0
915,81.0,96,96,0.0,92.0
916,65.0,0,96,0.0,92.0
917,82.0,0,96,0.0,92.0
918,67.0,96,96,0.0,92.0
919,81.0,96,96,0.0,92.0
920,65.0,0,96,0.0,92.0
921,64.0,0,96,0.0,92.0
922,82.0,96,96,0.0,92.0
923,62.0,96,96,0.0,92.0
924,79.0,0,96,0.0,92.0
925,84.0,96,96,0.0,92.0
926,60.0,0,96,0.0,92.0
927,58.0,96,96,0.0,92.0
928,76.0,0,96,0.0,92.0
929,57.0,96,96,0.0,92.0
930,77.0,0,96,0.0,92.0
931,76.0,0,96,0.0,92.0
932,60.0,96,96,0.0,92.0
933,62.0,0,96,0.0,92.0
934,77.0,96,96,0.0,92.0
935,60.0,0,96,0.0,92.0
936,79.0,96,96,0.0,92.0
937,76.0,0,96,0.0,92.0
938,58.0,96,96,0.0,92.0
939,57.0,0,96,0.0,92.0
940,77.0,96,96,0.0,92.0
941,58.0,0,96,0.0,92.0
942,79.0,96,96,0.0,92.0
943,57.0,0,96,0.0,92.0
944,77.0,96,96,0.0,92.0
945,58.0,96,96,0.0,92.0
946,76.0,0,96,0.0,92.0
947,55.0,96,96,0.0,92.0
948,74.0,0,96,0.0,92.0
949,60.0,96,96,0.0,92.0
950,72.0,0,96,0.0,92.0
951,70.0,96,96,0.0,92.0
952,52.0,0,96,0.0,92.0
953,53.0,0,96,0.0,92.0
954,69.0,96,96,0.0,92.0
955,72.0,0,96,0.0,92.0
956,52.0,96,96,0.0,92.0
957,53.0,0,96,0.0,92.0
958,74.0,96,96,0.0,92.0
959,55.0,96,96,0.0,92.0
960,72.0,0,96,0.0,92.0
961,52.0,96,96,0.0,92.0
962,70.0,0,96,0.0,92.0
963,69.0,0,96,0.0,92.0
964,53.0,96,96,0.0,92.0
965,70.0,0,96,0.0,92.0
966,55.0,96,96,0.0,92.0
967,53.0,0,96,0.0,92.0
968,69.0,96,96,0.0,92.0
969,55.0,96,96,0.0,92.0
970,70.0,0,96,0.0,92.0
971,57.0,96,96,0.0,92.0
972,67.0,0,96,0.0,92.0
973,53.0,0,96,0.0,92.0
974,72.0,96,96,0.0,92.0
975,64.0,96,96,0.0,92.0
976,55.0,0,96,0.0,92.0
977,65.0,0,96,0.0,92.0
978,57.0,96,96,0.0,92.0
979,55.0,0,96,0.0,92.0
980,64.0,96,96,0.0,92.0
981,65.0,0,96,0.0,92.0
982,57.0,96,96,0.0,92.0
983,58.0,96,96,0.0,92.0
984,67.0,0,96,0.0,92.0
985,64.0,0,96,0.0,92.0
986,60.0,96,96,0.0,92.0
987,65.0,0,96,0.0,92.0
988,62.0,96,96,0.0,92.0
989,67.0,96,96,0.0,92.0
990,52.0,0,96,0.0,92.0
991,65.0,0,96,0.0,92.0
992,55.0,96,96,0.0,92.0
993,67.0,96,96,0.0,92.0
994,53.0,0,96,0.0,92.0
995,52.0,0,96,0.0,92.0
996,69.0,96,96,0.0,92.0
997,65.0,96,96,0.0,92.0
998,50.0,0,96,0.0,92.0
999,67.0,96,96,0.0,92.0
1000,48.0,0,96,0.0,92.0
1001,53.0,0,96,0.0,92.0
1002,69.0,96,96,0.0,92.0
1003,67.0,0,96,0.0,92.0
1004,52.0,96,96,0.0,92.0
1005,69.0,96,96,0.0,92.0
1006,53.0,0,96,0.0,92.0
1007,48.0,0,96,0.0,92.0
1008,70.0,96,96,0.0,92.0
1009,57.0,96,96,0.0,92.0
1010,72.0,0,96,0.0,92.0
1011,74.0,96,96,0.0,92.0
1012,53.0,0,96,0.0,92.0
1013,64.0,96,96,0.0,92.0
1014,55.0,0,96,0.0,92.0
1015,53.0,0,96,0.0,92.0
1016,67.0,96,96,0.0,92.0
1017,65.0,96,96,0.0,92.0
1018,55.0,0,96,0.0,92.0
1019,64.0,96,96,0.0,92.0
1020,48.0,0,96,0.0,92.0
1021,62.0,0,96,0.0,92.0
1022,58.0,96,96,0.0,92.0
1023,60.0,96,96,0.0,92.0
1024,55.0,0,96,0.0,92.0
1025,65.0,96,96,0.0,92.0
1026,57.0,0,192,0.0,92.0
1027,64.0,96,96,0.0,92.0
1028,65.0,0,96,0.0,92.0
1029,48.0,96,192,0.0,92.0
1030,60.0,96,96,0.0,92.0
1031,69.0,0,96,0.0,92.0
1032,65.0,96,96,0.0,92.0
1033,67.0,96,96,0.0,92.0
1034,65.0,96,96,0.0,92.0
1035,53.0,96,384,0.0,92.0
1036,52.0,96,24,0.0,92.0
1037,53.0,24,24,0.0,92.0
1038,67.0,0,96,0.0,92.0
1039,60.0,48,96,0.0,92.0
1040,52.0,24,240,0.0,92.0
1041,70.0,96,96,0.0,92.0
1042,50.0,96,48,0.0,92.0
1043,67.0,0,96,0.0,92.0
1044,52.0,48,48,0.0,92.0
1045,53.0,48,96,0.0,92.0
1046,52.0,96,96,0.0,92.0
1047,69.0,0,192,0.0,92.0
1048,53.0,0,96,0.0,92.0
1049,48.0,96,96,0.0,92.0
1050,60.0,96,192,0.0,92.0
1051,50.0,96,96,0.0,92.0
1052,45.0,96,96,0.0,92.0
1053,46.0,96,96,0.0,92.0
1054,45.0,96,96,0.0,92.0
1055,65.0,0,384,0.0,92.0
1056,64.0,0,24,0.0,92.0
1057,65.0,24,24,0.0,92.0
1058,46.0,96,96,0.0,92.0
1059,43.0,48,96,0.0,92.0
1060,64.0,24,240,0.0,92.0
1061,48.0,96,96,0.0,92.0
1062,62.0,96,48,0.0,92.0
1063,64.0,48,48,0.0,92.0
1064,43.0,0,96,0.0,92.0
1065,45.0,0,96,0.0,92.0
1066,65.0,48,96,0.0,92.0
1067,43.0,0,96,0.0,92.0
1068,64.0,96,96,0.0,92.0
1069,65.0,96,96,0.0,92.0
1070,45.0,0,96,0.0,92.0
1071,60.0,0,96,0.0,92.0
1072,48.0,96,96,0.0,92.0
1073,62.0,96,96,0.0,92.0
1074,41.0,0,96,0.0,92.0
1075,57.0,0,96,0.0,92.0
1076,45.0,96,96,0.0,92.0
1077,58.0,96,96,0.0,92.0
1078,43.0,0,96,0.0,92.0
1079,41.0,96,96,0.0,92.0
1080,57.0,0,96,0.0,92.0
1081,58.0,0,96,0.0,92.0
1082,43.0,96,96,0.0,92.0
1083,55.0,0,96,0.0,92.0
1084,46.0,96,96,0.0,92.0
1085,60.0,0,96,0.0,92.0
1086,40.0,96,96,0.0,92.0
1087,55.0,96,96,0.0,92.0
1088,43.0,0,96,0.0,92.0
1089,41.0,96,96,0.0,92.0
1090,57.0,0,96,0.0,92.0
1091,40.0,0,96,0.0,92.0
1092,55.0,96,96,0.0,92.0
1093,41.0,96,96,0.0,92.0
1094,57.0,0,96,0.0,92.0
1095,60.0,0,96,0.0,92.0
1096,43.0,96,96,0.0,92.0
1097,45.0,96,96,0.0,92.0
1098,53.0,0,96,0.0,92.0
1099,41.0,0,96,0.0,92.0
1100,57.0,96,96,0.0,92.0
1101,55.0,96,96,0.0,92.0
1102,40.0,0,96,0.0,92.0
1103,38.0,96,96,0.0,92.0
1104,53.0,0,96,0.0,92.0
1105,40.0,96,96,0.0,92.0
1106,55.0,0,96,0.0,92.0
1107,58.0,96,96,0.0,92.0
1108,41.0,0,96,0.0,92.0
1109,43.0,96,96,0.0,92.0
1110,52.0,0,96,0.0,92.0
1111,55.0,0,96,0.0,92.0
1112,40.0,96,96,0.0,92.0
1113,45.0,0,96,0.0,92.0
1114,53.0,96,96,0.0,92.0
1115,52.0,96,96,0.0,92.0
1116,43.0,0,96,0.0,92.0
1117,45.0,96,96,0.0,92.0
1118,53.0,0,96,0.0,92.0
1119,46.0,0,96,0.0,92.0
1120,55.0,96,96,0.0,92.0
1121,48.0,0,96,0.0,92.0
1122,57.0,96,96,0.0,92.0
1123,58.0,0,96,0.0,92.0
1124,50.0,96,96,0.0,92.0
1125,60.0,0,96,0.0,92.0
1126,52.0,96,96,0.0,92.0
1127,53.0,0,96,0.0,92.0
1128,62.0,96,96,0.0,92.0
1129,64.0,0,96,0.0,92.0
1130,55.0,96,96,0.0,92.0
1131,57.0,0,96,0.0,92.0
1132,65.0,96,96,0.0,92.0
1133,58.0,0,96,0.0,92.0
1134,67.0,96,96,0.0,92.0
1135,64.0,96,96,0.0,92.0
1136,55.0,0,96,0.0,92.0
1137,60.0,0,96,0.0,92.0
1138,69.0,96,96,0.0,92.0
1139,58.0,0,96,0.0,92.0
1140,67.0,96,96,0.0,92.0
1141,60.0,96,96,0.0,92.0
1142,69.0,0,96,0.0,92.0
1143,70.0,96,96,0.0,92.0
1144,55.0,0,96,0.0,92.0
1145,72.0,96,96,0.0,92.0
1146,57.0,0,96,0.0,92.0
1147,74.0,96,96,0.0,92.0
1148,53.0,0,96,0.0,92.0
1149,76.0,96,96,0.0,92.0
1150,58.0,0,96,0.0,92.0
1151,77.0,96,96,0.0,92.0
1152,57.0,0,96,0.0,92.0
1153,79.0,0,96,0.0,92.0
1154,58.0,96,96,0.0,92.0
1155,74.0,96,96,0.0,92.0
1156,53.0,0,96,0.0,92.0
1157,76.0,0,96,0.0,92.0
1158,55.0,96,96,0.0,92.0
1159,52.0,0,96,0.0,92.0
1160,70.0,96,96,0.0,92.0
1161,72.0,96,96,0.0,92.0
1162,57.0,0,96,0.0,92.0
1163,55.0,96,96,0.0,92.0
1164,76.0,0,96,0.0,92.0
1165,57.0,96,96,0.0,92.0
1166,77.0,0,96,0.0,92.0
1167,52.0,96,96,0.0,92.0
1168,72.0,0,96,0.0,92.0
1169,53.0,96,96,0.0,92.0
1170,74.0,0,96,0.0,92.0
1171,50.0,96,96,0.0,92.0
1172,69.0,0,96,0.0,92.0
1173,55.0,96,96,0.0,92.0
1174,53.0,96,96,0.0,92.0
1175,55.0,96,96,0.0,92.0
1176,50.0,96,96,0.0,92.0
1177,70.0,0,480,0.0,92.0
1178,67.0,0,96,0.0,92.0
1179,58.0,96,96,0.0,92.0
1180,52.0,96,288,0.0,92.0
1181,52.0,96,96,0.0,92.0
1182,60.0,96,0,0.0,92.0
1183,62.0,96,96,0.0,92.0
1184,69.0,0,480,0.0,92.0
1185,57.0,96,96,0.0,92.0
1186,65.0,0,96,0.0,92.0
1187,53.0,96,480,0.0,92.0
1188,50.0,96,96,0.0,92.0
1189,59.0,96,0,0.0,92.0
1190,60.0,96,96,0.0,92.0
1191,67.0,0,480,0.0,92.0
1192,60.0,0,96,0.0,92.0
1193,55.0,96,96,0.0,92.0
1194,52.0,96,480,0.0,92.0
1195,48.0,96,96,0.0,92.0
1196,57.0,96,0,0.0,92.0
1197,59.0,96,96,0.0,92.0
1198,65.0,0,480,0.0,92.0
1199,59.0,0,96,0.0,92.0
1200,53.0,96,96,0.0,92.0
1201,50.0,96,480,0.0,92.0
1202,47.0,96,96,0.0,92.0
1203,55.0,0,288,0.0,92.0
1204,55.0,96,96,0.0,92.0
1205,64.0,96,480,0.0,92.0
1206,57.0,96,0,0.0,92.0
1207,52.0,0,96,0.0,92.0
1208,48.0,96,480,0.0,92.0
1209,45.0,96,96,0.0,92.0
1210,53.0,96,0,0.0,92.0
1211,62.0,96,480,0.0,92.0
1212,55.0,96,96,0.0,92.0
1213,55.0,0,96,0.0,92.0
1214,47.0,96,384,0.0,92.0
1215,50.0,96,96,0.0,92.0
1216,48.0,0,96,0.0,92.0
1217,60.0,96,192,0.0,92.0
1218,47.0,96,96,0.0,92.0
1219,52.0,0,192,0.0,92.0
1220,48.0,0,96,0.0,92.0
1221,43.0,96,96,0.0,92.0
1222,55.0,96,192,0.0,92.0
1223,52.0,96,96,0.0,92.0
1224,48.0,96,96,0.0,92.0
1225,50.0,96,96,0.0,92.0
1226,60.0,0,384,0.0,92.0
1227,48.0,96,96,0.0,92.0
1228,59.0,96,24,0.0,92.0
1229,60.0,24,24,0.0,92.0
1230,50.0,0,96,0.0,92.0
1231,43.0,48,96,0.0,92.0
1232,53.0,96,96,0.0,92.0
1233,59.0,24,240,0.0,92.0
1234,57.0,0,48,0.0,92.0
1235,50.0,96,96,0.0,92.0
1236,59.0,48,48,0.0,92.0
1237,60.0,0,96,0.0,92.0
1238,52.0,48,96,0.0,92.0
1239,50.0,96,96,0.0,92.0
1240,59.0,0,96,0.0,92.0
1241,52.0,96,96,0.0,92.0
1242,60.0,0,96,0.0,92.0
1243,55.0,0,96,0.0,92.0
1244,53.0,96,96,0.0,92.0
1245,64.0,96,96,0.0,92.0
1246,55.0,0,96,0.0,92.0
1247,52.0,0,96,0.0,92.0
1248,60.0,96,96,0.0,92.0
1249,53.0,0,96,0.0,92.0
1250,62.0,96,96,0.0,92.0
1251,52.0,0,96,0.0,92.0
1252,60.0,96,96,0.0,92.0
1253,62.0,96,96,0.0,92.0
1254,53.0,0,96,0.0,92.0
1255,55.0,0,96,0.0,92.0
1256,65.0,0,96,0.0,92.0
1257,57.0,96,96,0.0,92.0
1258,62.0,96,96,0.0,92.0
1259,53.0,0,96,0.0,92.0
1260,64.0,96,96,0.0,92.0
1261,55.0,0,96,0.0,92.0
1262,53.0,0,96,0.0,92.0
1263,62.0,96,96,0.0,92.0
1264,64.0,96,96,0.0,92.0
1265,55.0,0,96,0.0,92.0
1266,65.0,96,96,0.0,92.0
1267,57.0,0,96,0.0,92.0
1268,58.0,96,96,0.0,92.0
1269,67.0,0,96,0.0,92.0
1270,55.0,96,96,0.0,92.0
1271,64.0,0,96,0.0,92.0
1272,57.0,0,96,0.0,92.0
1273,65.0,96,96,0.0,92.0
1274,55.0,0,96,0.0,92.0
1275,64.0,96,96,0.0,92.0
1276,65.0,0,96,0.0,92.0
1277,57.0,96,96,0.0,92.0
1278,59.0,0,96,0.0,92.0
1279,67.0,96,96,0.0,92.0
1280,69.0,0,96,0.0,92.0
1281,60.0,96,96,0.0,92.0
1282,62.0,0,96,0.0,92.0
1283,65.0,96,96,0.0,92.0
1284,67.0,0,96,0.0,92.0
1285,64.0,96,96,0.0,92.0
1286,62.0,0,96,0.0,92.0
1287,65.0,96,96,0.0,92.0
1288,64.0,0,96,0.0,92.0
1289,67.0,96,96,0.0,92.0
1290,69.0,96,96,0.0,92.0
1291,65.0,0,96,0.0,92.0
1292,70.0,0,96,0.0,92.0
1293,62.0,96,96,0.0,92.0
1294,64.0,96,96,0.0,92.0
1295,67.0,0,96,0.0,92.0
1296,65.0,96,96,0.0,92.0
1297,69.0,0,96,0.0,92.0
1298,64.0,0,96,0.0,92.0
1299,67.0,96,96,0.0,92.0
1300,65.0,96,96,0.0,92.0
1301,69.0,0,96,0.0,92.0
1302,67.0,0,96,0.0,92.0
1303,71.0,96,96,0.0,92.0
1304,64.0,0,96,0.0,92.0
1305,72.0,96,96,0.0,92.0
1306,65.0,96,96,0.0,92.0
1307,74.0,0,96,0.0,92.0
1308,76.0,96,96,0.0,92.0
1309,74.0,96,96,0.0,92.0
1310,67.0,0,192,0.0,92.0
1311,76.0,96,96,0.0,92.0
1312,77.0,96,96,0.0,92.0
1313,74.0,96,96,0.0,92.0
1314,76.0,96,96,0.0,92.0
1315,77.0,96,96,0.0,92.0
1316,76.0,96,96,0.0,92.0
1317,77.0,96,96,0.0,92.0
1318,79.0,96,96,0.0,92.0
1319,76.0,96,96,0.0,92.0
1320,77.0,96,96,0.0,92.0
1321,36.0,576,31104,0.0,102.0
1322,48.0,0,96,0.0,102.0
1323,79.0,96,192,0.0,92.0
1324,47.0,96,96,0.0,102.0
1325,48.0,96,96,0.0,102.0
1326,43.0,96,96,0.0,102.0
1327,52.0,96,96,0.0,102.0
1328,48.0,96,96,0.0,102.0
1329,50.0,96,96,0.0,102.0
1330,48.0,96,96,0.0,102.0
1331,50.0,96,96,0.0,102.0
1332,43.0,96,96,0.0,102.0
1333,53.0,96,96,0.0,102.0
1334,50.0,96,96,0.0,102.0
1335,52.0,96,96,0.0,102.0
1336,50.0,96,96,0.0,102.0
1337,52.0,96,96,0.0,102.0
1338,48.0,96,96,0.0,102.0
1339,55.0,96,96,0.0,102.0
1340,52.0,96,96,0.0,102.0
1341,53.0,96,96,0.0,102.0
1342,52.0,96,96,0.0,102.0
1343,53.0,96,96,0.0,102.0
1344,48.0,96,96,0.0,102.0
1345,57.0,96,96,0.0,102.0
1346,53.0,96,96,0.0,102.0
1347,55.0,96,96,0.0,102.0
1348,53.0,96,96,0.0,102.0
1349,55.0,96,96,0.0,102.0
1350,52.0,96,96,0.0,102.0
1351,57.0,96,96,0.0,102.0
1352,52.0,96,96,0.0,102.0
1353,53.0,96,96,0.0,102.0
1354,52.0,96,96,0.0,102.0
1355,53.0,96,96,0.0,102.0
1356,50.0,96,96,0.0,102.0
1357,55.0,96,96,0.0,102.0
1358,50.0,96,96,0.0,102.0
1359,52.0,96,96,0.0,102.0
1360,50.0,96,96,0.0,102.0
1361,52.0,96,96,0.0,102.0
1362,48.0,96,96,0.0,102.0
1363,55.0,96,96,0.0,102.0
1364,46.0,96,96,0.0,102.0
1365,48.0,96,96,0.0,102.0
1366,46.0,96,96,0.0,102.0
1367,48.0,96,96,0.0,102.0
1368,45.0,96,96,0.0,102.0
1369,53.0,96,96,0.0,102.0
1370,45.0,96,96,0.0,102.0
1371,46.0,96,96,0.0,102.0
1372,45.0,96,96,0.0,102.0
1373,46.0,96,96,0.0,102.0
1374,43.0,96,96,0.0,102.0
1375,52.0,96,96,0.0,102.0
1376,43.0,96,96,0.0,102.0
1377,45.0,96,96,0.0,102.0
1378,43.0,96,96,0.0,102.0
1379,45.0,96,96,0.0,102.0
1380,41.0,96,96,0.0,102.0
1381,48.0,96,96,0.0,102.0
1382,45.0,96,96,0.0,102.0
1383,53.0,96,96,0.0,102.0
1384,52.0,96,96,0.0,102.0
1385,53.0,96,96,0.0,102.0
1386,48.0,96,96,0.0,102.0
1387,50.0,96,96,0.0,102.0
1388,45.0,96,96,0.0,102.0
1389,47.0,96,96,0.0,102.0
1390,45.0,96,96,0.0,102.0
1391,47.0,96,96,0.0,102.0
1392,43.0,96,96,0.0,102.0
1393,50.0,96,96,0.0,102.0
1394,47.0,96,96,0.0,102.0
1395,53.0,96,96,0.0,102.0
1396,52.0,96,96,0.0,102.0
1397,53.0,96,96,0.0,102.0
1398,48.0,96,96,0.0,102.0
1399,50.0,96,96,0.0,102.0
1400,45.0,96,96,0.0,102.0
1401,47.0,96,96,0.0,102.0
1402,45.0,96,96,0.0,102.0
1403,47.0,96,96,0.0,102.0
1404,43.0,96,96,0.0,102.0
1405,50.0,96,96,0.0,102.0
1406,47.0,96,96,0.0,102.0
1407,52.0,96,96,0.0,102.0
1408,50.0,96,96,0.0,102.0
1409,52.0,96,96,0.0,102.0
1410,48.0,96,96,0.0,102.0
1411,55.0,96,96,0.0,102.0
1412,52.0,96,96,0.0,102.0
1413,58.0,96,96,0.0,102.0
1414,57.0,96,96,0.0,102.0
1415,58.0,96,96,0.0,102.0
1416,53.0,96,96,0.0,102.0
1417,55.0,96,96,0.0,102.0
1418,50.0,96,96,0.0,102.0
1419,52.0,96,96,0.0,102.0
1420,50.0,96,96,0.0,102.0
1421,52.0,96,96,0.0,102.0
1422,48.0,96,96,0.0,102.0
1423,55.0,96,96,0.0,102.0
1424,52.0,96,96,0.0,102.0
1425,58.0,96,96,0.0,102.0
1426,57.0,96,96,0.0,102.0
1427,58.0,96,96,0.0,102.0
1428,55.0,96,96,0.0,102.0
1429,60.0,96,96,0.0,102.0
1430,55.0,96,96,0.0,102.0
1431,57.0,96,96,0.0,102.0
1432,55.0,96,96,0.0,102.0
1433,57.0,96,96,0.0,102.0
1434,53.0,96,96,0.0,102.0
1435,60.0,96,96,0.0,102.0
1436,57.0,96,96,0.0,102.0
1437,65.0,96,96,0.0,102.0
1438,64.0,96,96,0.0,102.0
1439,65.0,96,96,0.0,102.0
1440,60.0,96,96,0.0,102.0
1441,62.0,96,96,0.0,102.0
1442,57.0,96,96,0.0,102.0
1443,59.0,96,96,0.0,102.0
1444,57.0,96,96,0.0,102.0
1445,59.0,96,96,0.0,102.0
1446,55.0,96,96,0.0,102.0
1447,62.0,96,96,0.0,102.0
1448,59.0,96,96,0.0,102.0
1449,64.0,96,96,0.0,102.0
1450,62.0,96,96,0.0,102.0
1451,64.0,96,96,0.0,102.0
1452,59.0,96,96,0.0,102.0
1453,60.0,96,96,0.0,102.0
1454,55.0,96,96,0.0,102.0
1455,57.0,96,96,0.0,102.0
1456,55.0,96,96,0.0,102.0
1457,57.0,96,96,0.0,102.0
1458,53.0,96,96,0.0,102.0
1459,60.0,96,96,0.0,102.0
1460,57.0,96,96,0.0,102.0
1461,62.0,96,96,0.0,102.0
1462,60.0,96,96,0.0,102.0
1463,62.0,96,96,0.0,102.0
1464,57.0,96,96,0.0,102.0
1465,59.0,96,96,0.0,102.0
1466,53.0,96,96,0.0,102.0
1467,55.0,96,96,0.0,102.0
1468,53.0,96,96,0.0,102.0
1469,55.0,96,96,0.0,102.0
1470,52.0,96,96,0.0,102.0
1471,59.0,96,96,0.0,102.0
1472,55.0,96,96,0.0,102.0
1473,60.0,96,96,0.0,102.0
1474,59.0,96,96,0.0,102.0
1475,60.0,96,96,0.0,102.0
1476,55.0,96,96,0.0,102.0
1477,57.0,96,96,0.0,102.0
1478,52.0,96,96,0.0,102.0
1479,53.0,96,96,0.0,102.0
1480,52.0,96,96,0.0,102.0
1481,53.0,96,96,0.0,102.0
1482,50.0,96,96,0.0,102.0
1483,57.0,96,96,0.0,102.0
1484,53.0,96,96,0.0,102.0
1485,59.0,96,96,0.0,102.0
1486,57.0,96,96,0.0,102.0
1487,59.0,96,96,0.0,102.0
1488,53.0,96,96,0.0,102.0
1489,55.0,96,96,0.0,102.0
1490,50.0,96,96,0.0,102.0
1491,52.0,96,96,0.0,102.0
1492,50.0,96,96,0.0,102.0
1493,52.0,96,96,0.0,102.0
1494,48.0,96,96,0.0,102.0
1495,55.0,96,96,0.0,102.0
1496,52.0,96,96,0.0,102.0
1497,60.0,96,96,0.0,102.0
1498,59.0,96,96,0.0,102.0
1499,60.0,96,96,0.0,102.0
1500,55.0,96,96,0.0,102.0
1501,57.0,96,96,0.0,102.0
1502,52.0,96,96,0.0,102.0
1503,54.0,96,96,0.0,102.0
1504,52.0,96,96,0.0,102.0
1505,54.0,96,96,0.0,102.0
1506,50.0,96,96,0.0,102.0
1507,57.0,96,96,0.0,102.0
1508,54.0,96,96,0.0,102.0
1509,60.0,96,96,0.0,102.0
1510,59.0,96,96,0.0,102.0
1511,60.0,96,96,0.0,102.0
1512,55.0,96,96,0.0,102.0
1513,57.0,96,96,0.0,102.0
1514,54.0,96,96,0.0,102.0
1515,55.0,0,0,0.0,92.0
1516,51.0,0,192,0.0,92.0
1517,48.0,0,192,0.0,92.0
1518,63.0,192,192,0.0,92.0
1519,72.0,0,192,0.0,92.0
1520,67.0,0,0,0.0,92.0
1521,53.0,0,192,0.0,92.0
1522,50.0,192,192,0.0,92.0
1523,62.0,0,192,0.0,92.0
1524,71.0,0,192,0.0,92.0
1525,67.0,0,0,0.0,92.0
1526,72.0,0,192,0.0,92.0
1527,75.0,0,192,0.0,92.0
1528,60.0,192,192,0.0,92.0
1529,55.0,192,0,0.0,92.0
1530,51.0,0,192,0.0,92.0
1531,43.0,192,384,0.0,102.0
1532,71.0,0,192,0.0,92.0
1533,53.0,0,192,0.0,92.0
1534,55.0,192,0,0.0,102.0
1535,62.0,0,192,0.0,92.0
1536,74.0,0,192,0.0,92.0
1537,67.0,0,192,0.0,92.0
1538,72.0,0,192,0.0,92.0
1539,79.0,0,192,0.0,92.0
1540,55.0,0,0,0.0,92.0
1541,60.0,192,192,0.0,92.0
1542,51.0,0,192,0.0,92.0
1543,77.0,0,192,0.0,92.0
1544,71.0,192,192,0.0,92.0
1545,67.0,0,192,0.0,92.0
1546,62.0,0,192,0.0,92.0
1547,50.0,0,192,0.0,92.0
1548,75.0,0,192,0.0,92.0
1549,43.0,192,384,0.0,102.0
1550,48.0,0,192,0.0,92.0
1551,55.0,0,0,0.0,92.0
1552,72.0,0,192,0.0,92.0
1553,67.0,192,192,0.0,92.0
1554,51.0,0,192,0.0,92.0
1555,58.0,0,192,0.0,92.0
1556,46.0,192,192,0.0,92.0
1557,74.0,0,192,0.0,92.0
1558,67.0,0,192,0.0,92.0
1559,44.0,192,192,0.0,92.0
1560,48.0,0,192,0.0,92.0
1561,53.0,0,192,0.0,92.0
1562,55.0,0,0,0.0,92.0
1563,68.0,0,192,0.0,92.0
1564,77.0,0,192,0.0,92.0
1565,72.0,0,192,0.0,92.0
1566,43.0,0,192,0.0,92.0
1567,70.0,0,192,0.0,92.0
1568,63.0,0,192,0.0,92.0
1569,51.0,0,192,0.0,92.0
1570,75.0,192,192,0.0,92.0
1571,53.0,0,192,0.0,92.0
1572,41.0,0,192,0.0,92.0
1573,43.0,192,384,0.0,102.0
1574,62.0,192,192,0.0,92.0
1575,65.0,0,192,0.0,92.0
1576,68.0,0,192,0.0,92.0
1577,74.0,0,192,0.0,92.0
1578,69.0,0,192,0.0,92.0
1579,63.0,0,192,0.0,92.0
1580,48.0,0,192,0.0,92.0
1581,72.0,0,192,0.0,92.0
1582,42.0,192,192,0.0,92.0
1583,63.0,0,192,0.0,92.0
1584,43.0,0,192,0.0,92.0
1585,72.0,0,192,0.0,92.0
1586,55.0,0,0,0.0,92.0
1587,60.0,192,192,0.0,92.0
1588,67.0,0,0,0.0,92.0
1589,71.0,192,192,0.0,92.0
1590,67.0,192,0,0.0,92.0
1591,62.0,0,192,0.0,92.0
1592,65.0,0,192,0.0,92.0
1593,55.0,0,0,0.0,92.0
1594,48.0,96,96,0.0,102.0
1595,52.0,96,96,0.0,102.0
1596,64.0,0,384,0.0,92.0
1597,72.0,0,384,0.0,92.0
1598,48.0,96,96,0.0,102.0
1599,55.0,96,0,0.0,102.0
1600,60.0,0,384,0.0,92.0
1601,52.0,96,96,0.0,102.0
1602,72.0,96,96,0.0,92.0
1603,76.0,96,96,0.0,92.0
1604,60.0,96,384,0.0,102.0
1605,72.0,96,96,0.0,92.0
1606,79.0,0,96,0.0,92.0
1607,58.0,96,192,0.0,102.0
1608,76.0,96,96,0.0,92.0
1609,60.0,96,96,0.0,92.0
1610,64.0,0,96,0.0,92.0
1611,72.0,96,192,0.0,92.0
1612,84.0,0,384,0.0,92.0
1613,60.0,96,96,0.0,92.0
1614,57.0,96,384,0.0,102.0
1615,67.0,0,96,0.0,92.0
1616,76.0,0,192,0.0,92.0
1617,82.0,0,192,0.0,92.0
1618,64.0,96,96,0.0,92.0
1619,55.0,96,192,0.0,102.0
1620,53.0,96,96,0.0,92.0
1621,72.0,0,0,0.0,92.0
1622,77.0,0,0,0.0,92.0
1623,81.0,96,192,0.0,92.0
1624,57.0,96,96,0.0,92.0
1625,69.0,0,192,0.0,92.0
1626,72.0,0,0,0.0,92.0
1627,53.0,96,96,0.0,92.0
1628,60.0,0,96,0.0,92.0
1629,48.0,96,96,0.0,92.0
1630,76.0,0,192,0.0,92.0
1631,72.0,96,0,0.0,92.0
1632,70.0,0,192,0.0,92.0
1633,67.0,96,192,0.0,92.0
1634,41.0,96,96,0.0,102.0
1635,45.0,96,96,0.0,102.0
1636,65.0,0,384,0.0,92.0
1637,69.0,0,384,0.0,92.0
1638,53.0,0,384,0.0,92.0
1639,77.0,0,384,0.0,92.0
1640,41.0,96,96,0.0,102.0
1641,48.0,96,96,0.0,102.0
1642,45.0,96,96,0.0,102.0
1643,65.0,96,96,0.0,92.0
1644,69.0,96,96,0.0,92.0
1645,53.0,96,384,0.0,102.0
1646,65.0,96,96,0.0,92.0
1647,72.0,0,96,0.0,92.0
1648,69.0,96,96,0.0,92.0
1649,51.0,96,192,0.0,102.0
1650,53.0,96,96,0.0,92.0
1651,57.0,0,96,0.0,92.0
1652,77.0,96,384,0.0,92.0
1653,65.0,96,192,0.0,92.0
1654,50.0,0,384,0.0,102.0
1655,53.0,96,96,0.0,92.0
1656,60.0,0,96,0.0,92.0
1657,48.0,96,192,0.0,102.0
1658,57.0,96,96,0.0,92.0
1659,75.0,0,192,0.0,92.0
1660,69.0,0,192,0.0,92.0
1661,46.0,96,96,0.0,92.0
1662,70.0,0,192,0.0,92.0
1663,65.0,0,192,0.0,92.0
1664,74.0,0,192,0.0,92.0
1665,50.0,96,96,0.0,92.0
1666,46.0,96,96,0.0,92.0
1667,70.0,0,192,0.0,92.0
1668,65.0,0,192,0.0,92.0
1669,62.0,0,192,0.0,92.0
1670,53.0,96,96,0.0,92.0
1671,41.0,96,96,0.0,92.0
1672,69.0,0,192,0.0,92.0
1673,65.0,0,192,0.0,92.0
1674,60.0,0,192,0.0,92.0
1675,63.0,0,192,0.0,92.0
1676,46.0,96,96,0.0,102.0
1677,50.0,96,96,0.0,102.0
1678,46.0,96,96,0.0,102.0
1679,62.0,0,384,0.0,92.0
1680,65.0,0,384,0.0,92.0
1681,70.0,0,384,0.0,92.0
1682,58.0,0,384,0.0,92.0
1683,53.0,96,96,0.0,102.0
1684,50.0,96,96,0.0,102.0
1685,70.0,96,96,0.0,92.0
1686,74.0,96,96,0.0,92.0
1687,58.0,96,384,0.0,102.0
1688,70.0,96,96,0.0,92.0
1689,77.0,0,96,0.0,92.0
1690,57.0,96,192,0.0,102.0
1691,74.0,96,96,0.0,92.0
1692,58.0,96,96,0.0,92.0
1693,62.0,0,96,0.0,92.0
1694,55.0,96,384,0.0,102.0
1695,58.0,96,96,0.0,92.0
1696,82.0,0,384,0.0,92.0
1697,70.0,96,192,0.0,92.0
1698,65.0,0,96,0.0,92.0
1699,53.0,96,192,0.0,102.0
1700,62.0,96,96,0.0,92.0
1701,81.0,0,192,0.0,92.0
1702,74.0,0,192,0.0,92.0
1703,70.0,0,192,0.0,92.0
1704,76.0,0,192,0.0,92.0
1705,52.0,96,96,0.0,92.0
1706,79.0,0,192,0.0,92.0
1707,55.0,0,96,0.0,92.0
1708,52.0,96,96,0.0,92.0
1709,67.0,0,192,0.0,92.0
1710,70.0,0,0,0.0,92.0
1711,76.0,96,192,0.0,92.0
1712,58.0,96,96,0.0,92.0
1713,65.0,0,192,0.0,92.0
1714,74.0,0,192,0.0,92.0
1715,55.0,96,96,0.0,92.0
1716,45.0,96,96,0.0,102.0
1717,49.0,96,96,0.0,102.0
1718,73.0,96,384,0.0,92.0
1719,64.0,0,384,0.0,92.0
1720,69.0,0,384,0.0,92.0
1721,57.0,0,384,0.0,92.0
1722,45.0,96,96,0.0,102.0
1723,52.0,96,96,0.0,102.0
1724,49.0,96,96,0.0,102.0
1725,69.0,96,96,0.0,92.0
1726,73.0,96,96,0.0,92.0
1727,69.0,96,96,0.0,92.0
1728,57.0,96,384,0.0,102.0
1729,76.0,96,96,0.0,92.0
1730,55.0,0,192,0.0,102.0
1731,73.0,96,96,0.0,92.0
1732,57.0,96,96,0.0,92.0
1733,61.0,0,96,0.0,92.0
1734,69.0,96,192,0.0,92.0
1735,57.0,96,96,0.0,92.0
1736,81.0,0,384,0.0,92.0
1737,53.0,96,384,0.0,102.0
1738,64.0,96,96,0.0,92.0
1739,61.0,96,96,0.0,92.0
1740,52.0,0,192,0.0,102.0
1741,79.0,0,192,0.0,92.0
1742,73.0,0,192,0.0,92.0
1743,69.0,0,0,0.0,92.0
1744,77.0,0,192,0.0,92.0
1745,74.0,96,0,0.0,92.0
1746,50.0,96,96,0.0,92.0
1747,53.0,0,96,0.0,92.0
1748,65.0,0,192,0.0,92.0
1749,50.0,96,96,0.0,92.0
1750,57.0,96,96,0.0,92.0
1751,54.0,96,96,0.0,92.0
1752,72.0,0,192,0.0,92.0
1753,69.0,0,192,0.0,92.0
1754,63.0,0,192,0.0,92.0
1755,43.0,96,96,0.0,102.0
1756,46.0,96,96,0.0,102.0
1757,43.0,96,96,0.0,102.0
1758,55.0,0,384,0.0,92.0
1759,70.0,96,384,0.0,92.0
1760,67.0,0,384,0.0,92.0
1761,62.0,0,384,0.0,92.0
1762,50.0,96,96,0.0,102.0
1763,46.0,96,96,0.0,102.0
1764,67.0,96,96,0.0,92.0
1765,70.0,96,96,0.0,92.0
1766,67.0,96,96,0.0,92.0
1767,55.0,96,384,0.0,102.0
1768,74.0,0,96,0.0,92.0
1769,53.0,96,192,0.0,102.0
1770,70.0,96,96,0.0,92.0
1771,55.0,96,96,0.0,92.0
1772,58.0,96,96,0.0,92.0
1773,55.0,96,96,0.0,92.0
1774,67.0,0,192,0.0,92.0
1775,52.0,96,384,0.0,102.0
1776,79.0,0,384,0.0,92.0
1777,62.0,96,96,0.0,92.0
1778,77.0,0,192,0.0,92.0
1779,70.0,0,192,0.0,92.0
1780,58.0,96,96,0.0,92.0
1781,50.0,0,192,0.0,102.0
1782,64.0,96,96,0.0,92.0
1783,61.0,96,96,0.0,92.0
1784,67.0,0,384,0.0,92.0
1785,70.0,0,384,0.0,92.0
1786,76.0,96,384,0.0,92.0
1787,49.0,0,384,0.0,102.0
1788,64.0,96,96,0.0,92.0
1789,57.0,0,96,0.0,92.0
1790,50.0,0,192,0.0,102.0
1791,65.0,0,192,0.0,92.0
1792,69.0,0,192,0.0,92.0
1793,74.0,96,192,0.0,92.0
1794,62.0,96,96,0.0,92.0
1795,58.0,0,96,0.0,92.0
1796,67.0,0,192,0.0,92.0
1797,75.0,0,192,0.0,92.0
1798,63.0,96,96,0.0,92.0
1799,55.0,96,96,0.0,92.0
1800,73.0,0,192,0.0,92.0
1801,64.0,0,192,0.0,92.0
1802,43.0,0,384,0.0,102.0
1803,70.0,96,384,0.0,92.0
1804,58.0,96,96,0.0,92.0
1805,50.0,0,96,0.0,92.0
1806,74.0,0,192,0.0,92.0
1807,53.0,96,96,0.0,92.0
1808,44.0,0,192,0.0,102.0
1809,71.0,96,192,0.0,92.0
1810,65.0,0,192,0.0,92.0
1811,45.0,96,384,0.0,102.0
1812,57.0,0,192,0.0,92.0
1813,53.0,0,192,0.0,92.0
1814,50.0,192,192,0.0,92.0
1815,65.0,0,192,0.0,92.0
1816,69.0,0,0,0.0,92.0
1817,74.0,0,192,0.0,92.0
1818,64.0,0,192,0.0,92.0
1819,73.0,0,192,0.0,92.0
1820,52.0,0,192,0.0,92.0
1821,57.0,192,0,0.0,102.0
1822,55.0,192,192,0.0,92.0
1823,57.0,0,192,0.0,92.0
1824,62.0,0,192,0.0,92.0
1825,53.0,0,192,0.0,92.0
1826,77.0,192,192,0.0,92.0
1827,74.0,0,192,0.0,92.0
1828,69.0,0,192,0.0,92.0
1829,57.0,0,192,0.0,92.0
1830,55.0,192,192,0.0,92.0
1831,64.0,0,192,0.0,92.0
1832,76.0,0,192,0.0,92.0
1833,73.0,0,192,0.0,92.0
1834,69.0,0,192,0.0,92.0
1835,45.0,192,384,0.0,102.0
1836,62.0,0,192,0.0,92.0
1837,57.0,0,192,0.0,92.0
1838,53.0,192,192,0.0,92.0
1839,81.0,0,192,0.0,92.0
1840,74.0,0,192,0.0,92.0
1841,69.0,0,0,0.0,92.0
1842,73.0,0,192,0.0,92.0
1843,64.0,192,192,0.0,92.0
1844,57.0,0,192,0.0,92.0
1845,79.0,0,192,0.0,92.0
1846,52.0,0,192,0.0,92.0
1847,77.0,0,192,0.0,92.0
1848,57.0,0,192,0.0,92.0
1849,69.0,0,192,0.0,92.0
1850,57.0,0,0,0.0,92.0
1851,53.0,0,192,0.0,92.0
1852,50.0,192,192,0.0,92.0
1853,74.0,0,192,0.0,92.0
1854,48.0,0,192,0.0,92.0
1855,60.0,192,192,0.0,92.0
1856,76.0,0,192,0.0,92.0
1857,69.0,0,192,0.0,92.0
1858,50.0,0,192,0.0,92.0
1859,46.0,192,192,0.0,92.0
1860,79.0,0,192,0.0,92.0
1861,45.0,0,0,0.0,92.0
1862,74.0,0,192,0.0,92.0
1863,70.0,0,192,0.0,92.0
1864,55.0,0,192,0.0,92.0
1865,72.0,192,192,0.0,92.0
1866,65.0,0,192,0.0,92.0
1867,57.0,0,192,0.0,92.0
1868,77.0,0,192,0.0,92.0
1869,53.0,0,192,0.0,92.0
1870,64.0,192,192,0.0,92.0
1871,55.0,0,192,0.0,92.0
1872,76.0,0,192,0.0,92.0
1873,70.0,0,192,0.0,92.0
1874,67.0,0,192,0.0,92.0
1875,57.0,192,384,0.0,102.0
1876,43.0,0,192,0.0,92.0
1877,71.0,0,192,0.0,92.0
1878,65.0,0,192,0.0,92.0
1879,44.0,0,192,0.0,92.0
1880,50.0,192,192,0.0,92.0
1881,74.0,0,192,0.0,92.0
1882,69.0,0,192,0.0,92.0
1883,65.0,0,192,0.0,92.0
1884,62.0,0,192,0.0,92.0
1885,74.0,0,192,0.0,92.0
1886,45.0,0,192,0.0,92.0
1887,57.0,192,192,0.0,92.0
1888,57.0,0,192,0.0,92.0
1889,73.0,0,192,0.0,92.0
1890,69.0,0,192,0.0,92.0
1891,67.0,192,192,0.0,92.0
1892,64.0,0,192,0.0,92.0
1893,46.0,96,96,0.0,92.0
1894,50.0,96,96,0.0,92.0
1895,74.0,0,384,0.0,92.0
1896,70.0,0,384,0.0,92.0
1897,46.0,96,96,0.0,92.0
1898,44.0,0,384,0.0,102.0
1899,65.0,192,384,0.0,92.0
1900,53.0,96,96,0.0,92.0
1901,50.0,96,96,0.0,92.0
1902,63.0,96,96,0.0,92.0
1903,67.0,96,96,0.0,92.0
1904,58.0,0,384,0.0,92.0
1905,63.0,96,96,0.0,92.0
1906,43.0,96,384,0.0,102.0
1907,70.0,96,96,0.0,92.0
1908,48.0,96,96,0.0,92.0
1909,52.0,96,96,0.0,92.0
1910,48.0,96,96,0.0,92.0
1911,76.0,0,384,0.0,92.0
1912,72.0,0,384,0.0,92.0
1913,46.0,96,384,0.0,102.0
1914,67.0,96,480,0.0,92.0
1915,55.0,96,96,0.0,92.0
1916,52.0,96,96,0.0,92.0
1917,65.0,96,96,0.0,92.0
1918,69.0,96,96,0.0,92.0
1919,60.0,0,384,0.0,92.0
1920,65.0,96,96,0.0,92.0
1921,45.0,96,384,0.0,102.0
1922,72.0,96,96,0.0,92.0
1923,50.0,96,96,0.0,92.0
1924,54.0,96,96,0.0,92.0
1925,74.0,0,384,0.0,92.0
1926,48.0,0,384,0.0,102.0
1927,78.0,96,384,0.0,92.0
1928,50.0,96,96,0.0,92.0
1929,69.0,96,480,0.0,92.0
1930,57.0,96,96,0.0,92.0
1931,54.0,96,96,0.0,92.0
1932,67.0,96,96,0.0,92.0
1933,70.0,96,96,0.0,92.0
1934,67.0,96,96,0.0,92.0
1935,46.0,96,384,0.0,102.0
1936,62.0,0,384,0.0,92.0
1937,74.0,96,96,0.0,92.0
1938,70.0,96,96,0.0,92.0
1939,79.0,0,96,0.0,92.0
1940,77.0,96,96,0.0,92.0
1941,79.0,96,96,0.0,92.0
1942,74.0,96,96,0.0,92.0
1943,58.0,0,384,0.0,92.0
1944,43.0,96,384,0.0,102.0
1945,63.0,0,384,0.0,92.0
1946,55.0,0,384,0.0,92.0
1947,75.0,96,96,0.0,92.0
1948,70.0,96,96,0.0,92.0
1949,67.0,0,96,0.0,92.0
1950,65.0,96,96,0.0,92.0
1951,67.0,96,96,0.0,92.0
1952,58.0,0,384,0.0,92.0
1953,63.0,0,384,0.0,92.0
1954,62.0,96,96,0.0,92.0
1955,55.0,96,384,0.0,92.0
1956,43.0,0,384,0.0,102.0
1957,63.0,96,96,0.0,92.0
1958,55.0,96,96,0.0,92.0
1959,53.0,96,96,0.0,92.0
1960,55.0,96,96,0.0,92.0
1961,43.0,0,384,0.0,102.0
1962,63.0,0,384,0.0,92.0
1963,67.0,0,384,0.0,92.0
1964,70.0,0,384,0.0,92.0
1965,58.0,96,480,0.0,92.0
1966,50.0,96,96,0.0,92.0
1967,51.0,96,96,0.0,92.0
1968,43.0,96,96,0.0,102.0
1969,41.0,96,96,0.0,102.0
1970,43.0,96,96,0.0,102.0
1971,52.0,0,384,0.0,92.0
1972,55.0,0,384,0.0,92.0
1973,67.0,0,384,0.0,92.0
1974,46.0,96,480,0.0,92.0
1975,73.0,0,384,0.0,92.0
1976,64.0,0,384,0.0,92.0
1977,70.0,0,384,0.0,92.0
1978,40.0,96,96,0.0,102.0
1979,46.0,96,96,0.0,102.0
1980,43.0,96,96,0.0,102.0
1981,49.0,0,96,0.0,102.0
1982,47.0,96,96,0.0,102.0
1983,49.0,96,96,0.0,102.0
1984,64.0,0,384,0.0,92.0
1985,67.0,0,384,0.0,92.0
1986,76.0,0,384,0.0,92.0
1987,45.0,96,96,0.0,102.0
1988,69.0,0,384,0.0,92.0
1989,52.0,96,0,0.0,102.0
1990,57.0,0,384,0.0,92.0
1991,49.0,96,96,0.0,102.0
1992,55.0,0,96,0.0,102.0
1993,53.0,96,96,0.0,102.0
1994,55.0,96,96,0.0,102.0
1995,50.0,96,96,0.0,102.0
1996,64.0,0,384,0.0,92.0
1997,73.0,0,384,0.0,92.0
1998,45.0,0,384,0.0,92.0
1999,52.0,96,384,0.0,92.0
2000,57.0,0,384,0.0,92.0
2001,69.0,0,384,0.0,92.0
2002,52.0,96,96,0.0,102.0
2003,47.0,96,96,0.0,102.0
2004,49.0,0,96,0.0,102.0
2005,47.0,96,96,0.0,102.0
2006,49.0,96,96,0.0,102.0
2007,61.0,0,384,0.0,92.0
2008,45.0,96,96,0.0,102.0
2009,64.0,0,384,0.0,92.0
2010,52.0,96,384,0.0,92.0
2011,69.0,0,384,0.0,92.0
2012,57.0,0,384,0.0,92.0
2013,52.0,96,96,0.0,102.0
2014,43.0,96,96,0.0,102.0
2015,77.0,0,192,0.0,92.0
2016,81.0,0,192,0.0,92.0
2017,74.0,0,192,0.0,92.0
2018,53.0,0,192,0.0,92.0
2019,50.0,0,192,0.0,92.0
2020,45.0,0,192,0.0,92.0
2021,69.0,0,0,0.0,92.0
2022,74.0,192,192,0.0,92.0
2023,77.0,0,192,0.0,92.0
2024,53.0,0,192,0.0,92.0
2025,41.0,96,384,0.0,102.0
2026,50.0,0,192,0.0,92.0
2027,57.0,0,0,0.0,92.0
2028,45.0,0,192,0.0,102.0
2029,76.0,192,192,0.0,92.0
2030,73.0,0,192,0.0,92.0
2031,55.0,0,192,0.0,92.0
2032,52.0,0,192,0.0,92.0
2033,50.0,0,96,0.0,92.0
2034,69.0,96,0,0.0,92.0
2035,74.0,192,192,0.0,92.0
2036,77.0,0,192,0.0,92.0
2037,53.0,0,192,0.0,92.0
2038,49.0,96,96,0.0,92.0
2039,57.0,0,192,0.0,92.0
2040,50.0,0,96,0.0,92.0
2041,65.0,0,192,0.0,92.0
2042,45.0,96,96,0.0,92.0
2043,41.0,0,192,0.0,102.0
2044,74.0,0,192,0.0,92.0
2045,52.0,96,96,0.0,92.0
2046,73.0,0,192,0.0,92.0
2047,69.0,0,192,0.0,92.0
2048,67.0,0,192,0.0,92.0
2049,64.0,0,192,0.0,92.0
2050,45.0,96,96,0.0,92.0
2051,74.0,0,96,0.0,92.0
2052,38.0,0,192,0.0,102.0
2053,73.0,96,96,0.0,92.0
2054,53.0,0,192,0.0,92.0
2055,69.0,0,192,0.0,92.0
2056,65.0,0,192,0.0,92.0
2057,62.0,96,192,0.0,92.0
2058,74.0,0,96,0.0,92.0
2059,57.0,96,192,0.0,92.0
2060,41.0,0,192,0.0,102.0
2061,69.0,96,96,0.0,92.0
2062,77.0,0,96,0.0,92.0
2063,74.0,96,96,0.0,92.0
2064,46.0,0,192,0.0,102.0
2065,76.0,96,96,0.0,92.0
2066,43.0,0,192,0.0,102.0
2067,74.0,96,96,0.0,92.0
2068,62.0,96,384,0.0,92.0
2069,61.0,0,24,0.0,92.0
2070,62.0,24,24,0.0,92.0
2071,76.0,0,96,0.0,92.0
2072,69.0,48,96,0.0,92.0
2073,40.0,96,192,0.0,102.0
2074,61.0,24,240,0.0,92.0
2075,79.0,96,96,0.0,92.0
2076,59.0,0,48,0.0,92.0
2077,76.0,96,96,0.0,92.0
2078,45.0,0,192,0.0,102.0
2079,61.0,48,48,0.0,92.0
2080,62.0,0,96,0.0,92.0
2081,77.0,48,192,0.0,92.0
2082,61.0,96,96,0.0,92.0
2083,62.0,96,96,0.0,92.0
2084,57.0,96,96,0.0,92.0
2085,69.0,0,192,0.0,92.0
2086,38.0,0,384,0.0,102.0
2087,65.0,96,96,0.0,92.0
2088,62.0,96,96,0.0,92.0
2089,64.0,96,96,0.0,92.0
2090,62.0,96,96,0.0,92.0
2091,74.0,0,384,0.0,92.0
2092,73.0,0,24,0.0,92.0
2093,74.0,24,24,0.0,92.0
2094,64.0,96,96,0.0,92.0
2095,57.0,48,96,0.0,92.0
2096,67.0,96,96,0.0,92.0
2097,73.0,24,240,0.0,92.0
2098,71.0,0,48,0.0,92.0
2099,73.0,48,48,0.0,92.0
2100,64.0,96,96,0.0,92.0
2101,50.0,0,96,0.0,102.0
2102,74.0,48,192,0.0,92.0
2103,65.0,0,192,0.0,92.0
2104,49.0,96,96,0.0,102.0
2105,50.0,0,96,0.0,102.0
2106,57.0,0,192,0.0,92.0
2107,45.0,96,96,0.0,102.0
2108,77.0,96,192,0.0,92.0
2109,53.0,96,96,0.0,102.0
2110,81.0,0,192,0.0,92.0
2111,50.0,96,96,0.0,102.0
2112,79.0,96,24,0.0,92.0
2113,81.0,24,24,0.0,92.0
2114,52.0,0,96,0.0,102.0
2115,50.0,48,96,0.0,102.0
2116,62.0,0,384,0.0,92.0
2117,52.0,96,96,0.0,102.0
2118,61.0,0,192,0.0,92.0
2119,45.0,96,96,0.0,102.0
2120,55.0,96,96,0.0,102.0
2121,79.0,24,432,0.0,92.0
2122,77.0,0,48,0.0,92.0
2123,52.0,96,96,0.0,102.0
2124,79.0,48,48,0.0,92.0
2125,81.0,0,24,0.0,92.0
2126,82.0,24,24,0.0,92.0
2127,53.0,48,96,0.0,102.0
2128,52.0,48,96,0.0,102.0
2129,64.0,0,384,0.0,92.0
2130,53.0,96,96,0.0,102.0
2131,50.0,96,96,0.0,102.0
2132,62.0,0,192,0.0,92.0
2133,81.0,24,432,0.0,92.0
2134,57.0,0,96,0.0,102.0
2135,79.0,0,48,0.0,92.0
2136,53.0,96,96,0.0,102.0
2137,81.0,48,48,0.0,92.0
2138,55.0,48,96,0.0,102.0
2139,82.0,0,96,0.0,92.0
2140,81.0,0,96,0.0,92.0
2141,65.0,96,384,0.0,92.0
2142,53.0,96,96,0.0,102.0
2143,55.0,96,96,0.0,102.0
2144,79.0,0,96,0.0,92.0
2145,52.0,96,96,0.0,102.0
2146,64.0,0,192,0.0,92.0
2147,77.0,0,96,0.0,92.0
2148,76.0,0,96,0.0,92.0
2149,58.0,0,96,0.0,102.0
2150,55.0,0,96,0.0,102.0
2151,74.0,96,96,0.0,92.0
2152,73.0,96,96,0.0,92.0
2153,67.0,96,288,0.0,92.0
2154,65.0,0,96,0.0,92.0
2155,74.0,96,96,0.0,92.0
2156,74.0,96,24,0.0,92.0
2157,76.0,24,24,0.0,92.0
2158,67.0,0,96,0.0,92.0
2159,74.0,24,48,0.0,92.0
2160,73.0,0,48,0.0,92.0
2161,64.0,48,96,0.0,92.0
2162,74.0,48,48,0.0,92.0
2163,69.0,48,96,0.0,92.0
2164,64.0,96,96,0.0,92.0
2165,76.0,0,288,0.0,92.0
2166,74.0,96,96,0.0,92.0
2167,76.0,96,96,0.0,92.0
2168,73.0,96,96,0.0,92.0
2169,77.0,96,96,0.0,92.0
2170,73.0,96,96,0.0,92.0
2171,65.0,96,672,0.0,92.0
2172,57.0,0,1248,0.0,102.0
2173,64.0,0,96,0.0,92.0
2174,55.0,96,96,0.0,102.0
2175,57.0,96,96,0.0,102.0
2176,65.0,0,96,0.0,92.0
2177,53.0,96,96,0.0,102.0
2178,62.0,0,96,0.0,92.0
2179,67.0,96,96,0.0,92.0
2180,58.0,0,96,0.0,102.0
2181,53.0,0,96,0.0,102.0
2182,62.0,96,96,0.0,92.0
2183,55.0,0,96,0.0,102.0
2184,64.0,96,96,0.0,92.0
2185,62.0,96,96,0.0,92.0
2186,74.0,96,768,0.0,92.0
2187,53.0,0,96,0.0,102.0
2188,64.0,96,96,0.0,92.0
2189,55.0,0,96,0.0,102.0
2190,60.0,96,96,0.0,92.0
2191,82.0,0,192,0.0,92.0
2192,52.0,0,96,0.0,102.0
2193,57.0,0,96,0.0,102.0
2194,65.0,96,96,0.0,92.0
2195,52.0,96,96,0.0,102.0
2196,60.0,0,96,0.0,92.0
2197,53.0,96,96,0.0,102.0
2198,62.0,0,96,0.0,92.0
2199,72.0,0,384,0.0,92.0
2200,52.0,96,96,0.0,102.0
2201,60.0,0,96,0.0,92.0
2202,53.0,96,96,0.0,102.0
2203,62.0,0,96,0.0,92.0
2204,50.0,96,96,0.0,102.0
2205,81.0,0,192,0.0,92.0
2206,58.0,0,96,0.0,92.0
2207,55.0,0,96,0.0,102.0
2208,64.0,0,96,0.0,92.0
2209,50.0,0,96,0.0,102.0
2210,58.0,96,96,0.0,92.0
2211,52.0,96,96,0.0,102.0
2212,60.0,0,96,0.0,92.0
2213,58.0,0,96,0.0,92.0
2214,50.0,96,96,0.0,102.0
2215,70.0,96,384,0.0,92.0
2216,52.0,0,96,0.0,102.0
2217,60.0,0,96,0.0,92.0
2218,79.0,96,192,0.0,92.0
2219,48.0,0,96,0.0,102.0
2220,57.0,96,96,0.0,92.0
2221,53.0,96,96,0.0,102.0
2222,62.0,0,96,0.0,92.0
2223,57.0,0,96,0.0,92.0
2224,48.0,96,96,0.0,102.0
2225,50.0,0,96,0.0,102.0
2226,48.0,96,96,0.0,102.0
2227,69.0,0,384,0.0,92.0
2228,59.0,96,288,0.0,92.0
2229,50.0,96,96,0.0,102.0
2230,62.0,0,96,0.0,92.0
2231,47.0,96,96,0.0,102.0
2232,77.0,0,192,0.0,92.0
2233,61.0,0,96,0.0,92.0
2234,52.0,96,96,0.0,102.0
2235,62.0,0,96,0.0,92.0
2236,47.0,96,96,0.0,102.0
2237,67.0,0,288,0.0,92.0
2238,69.0,96,96,0.0,92.0
2239,71.0,96,96,0.0,92.0
2240,73.0,96,96,0.0,92.0
2241,49.0,0,384,0.0,102.0
2242,74.0,96,96,0.0,92.0
2243,76.0,96,96,0.0,92.0
2244,64.0,96,672,0.0,92.0
2245,62.0,96,96,0.0,92.0
2246,60.0,96,96,0.0,92.0
2247,58.0,96,96,0.0,92.0
2248,50.0,0,384,0.0,102.0
2249,57.0,96,96,0.0,92.0
2250,55.0,96,96,0.0,92.0
2251,65.0,96,672,0.0,92.0
2252,64.0,96,96,0.0,92.0
2253,62.0,0,288,0.0,92.0
2254,61.0,96,96,0.0,92.0
2255,46.0,96,384,0.0,102.0
2256,65.0,96,288,0.0,92.0
2257,65.0,96,48,0.0,92.0
2258,67.0,48,24,0.0,92.0
2259,69.0,24,24,0.0,92.0
2260,62.0,96,288,0.0,92.0
2261,70.0,0,96,0.0,92.0
2262,60.0,96,96,0.0,92.0
2263,69.0,0,96,0.0,92.0
2264,58.0,96,96,0.0,92.0
2265,67.0,0,96,0.0,92.0
2266,43.0,24,384,0.0,102.0
2267,57.0,96,96,0.0,92.0
2268,65.0,0,96,0.0,92.0
2269,64.0,0,96,0.0,92.0
2270,55.0,96,96,0.0,92.0
2271,53.0,96,96,0.0,92.0
2272,62.0,0,96,0.0,92.0
2273,61.0,96,24,0.0,92.0
2274,52.0,0,24,0.0,92.0
2275,53.0,0,24,0.0,92.0
2276,62.0,24,24,0.0,92.0
2277,45.0,48,96,0.0,102.0
2278,49.0,96,96,0.0,102.0
2279,45.0,96,96,0.0,102.0
2280,52.0,96,96,0.0,102.0
2281,49.0,96,96,0.0,102.0
2282,61.0,0,528,0.0,92.0
2283,69.0,96,96,0.0,92.0
2284,73.0,96,96,0.0,92.0
2285,69.0,96,96,0.0,92.0
2286,57.0,96,384,0.0,102.0
2287,76.0,96,96,0.0,92.0
2288,55.0,0,192,0.0,102.0
2289,73.0,96,96,0.0,92.0
2290,57.0,96,96,0.0,92.0
2291,61.0,96,96,0.0,92.0
2292,81.0,0,384,0.0,92.0
2293,69.0,0,192,0.0,92.0
2294,53.0,96,384,0.0,102.0
2295,57.0,96,96,0.0,92.0
2296,64.0,0,96,0.0,92.0
2297,52.0,0,192,0.0,102.0
2298,73.0,96,192,0.0,92.0
2299,79.0,0,192,0.0,92.0
2300,61.0,96,96,0.0,92.0
2301,50.0,96,96,0.0,92.0
2302,69.0,96,192,0.0,92.0
2303,74.0,0,0,0.0,92.0
2304,77.0,0,192,0.0,92.0
2305,53.0,96,96,0.0,92.0
2306,50.0,96,96,0.0,92.0
2307,69.0,0,192,0.0,92.0
2308,65.0,0,192,0.0,92.0
2309,57.0,96,96,0.0,92.0
2310,69.0,0,192,0.0,92.0
2311,67.0,0,192,0.0,92.0
2312,73.0,0,192,0.0,92.0
2313,45.0,96,96,0.0,92.0
2314,64.0,0,192,0.0,92.0
2315,50.0,96,96,0.0,102.0
2316,54.0,96,96,0.0,102.0
2317,66.0,0,384,0.0,92.0
2318,69.0,0,384,0.0,92.0
2319,74.0,0,384,0.0,92.0
2320,50.0,96,96,0.0,102.0
2321,62.0,96,384,0.0,92.0
2322,57.0,96,96,0.0,102.0
2323,54.0,96,96,0.0,102.0
2324,62.0,96,96,0.0,92.0
2325,66.0,96,96,0.0,92.0
2326,62.0,96,96,0.0,92.0
2327,69.0,0,96,0.0,92.0
2328,60.0,96,192,0.0,102.0
2329,66.0,96,96,0.0,92.0
2330,50.0,96,96,0.0,92.0
2331,54.0,0,96,0.0,92.0
2332,50.0,96,96,0.0,92.0
2333,74.0,96,384,0.0,92.0
2334,62.0,96,192,0.0,92.0
2335,59.0,0,384,0.0,102.0
2336,57.0,0,96,0.0,92.0
2337,72.0,0,192,0.0,92.0
2338,66.0,96,192,0.0,92.0
2339,54.0,96,96,0.0,92.0
2340,55.0,96,96,0.0,92.0
2341,71.0,96,192,0.0,92.0
2342,67.0,0,192,0.0,92.0
2343,62.0,0,192,0.0,92.0
2344,59.0,96,96,0.0,92.0
2345,55.0,96,96,0.0,92.0
2346,71.0,0,192,0.0,92.0
2347,79.0,0,192,0.0,92.0
2348,74.0,0,0,0.0,92.0
2349,62.0,0,96,0.0,92.0
2350,78.0,0,192,0.0,92.0
2351,69.0,96,192,0.0,92.0
2352,72.0,0,192,0.0,92.0
2353,50.0,96,96,0.0,92.0
2354,43.0,96,96,0.0,102.0
2355,47.0,96,96,0.0,102.0
2356,79.0,0,384,0.0,92.0
2357,74.0,0,384,0.0,92.0
2358,71.0,0,384,0.0,92.0
2359,67.0,96,384,0.0,92.0
2360,55.0,0,384,0.0,92.0
2361,43.0,96,96,0.0,102.0
2362,50.0,96,96,0.0,102.0
2363,47.0,96,96,0.0,102.0
2364,67.0,96,96,0.0,92.0
2365,71.0,96,96,0.0,92.0
2366,55.0,96,384,0.0,102.0
2367,67.0,96,96,0.0,92.0
2368,74.0,96,96,0.0,92.0
2369,71.0,96,96,0.0,92.0
2370,53.0,0,192,0.0,102.0
2371,55.0,96,96,0.0,92.0
2372,59.0,96,96,0.0,92.0
2373,55.0,96,96,0.0,92.0
2374,52.0,96,384,0.0,102.0
2375,79.0,0,384,0.0,92.0
2376,67.0,0,192,0.0,92.0
2377,62.0,0,96,0.0,92.0
2378,50.0,96,192,0.0,102.0
2379,59.0,96,96,0.0,92.0
2380,77.0,0,192,0.0,92.0
2381,71.0,0,192,0.0,92.0
2382,48.0,96,96,0.0,92.0
2383,67.0,0,192,0.0,92.0
2384,72.0,96,192,0.0,92.0
2385,76.0,0,192,0.0,92.0
2386,52.0,0,96,0.0,92.0
2387,48.0,96,96,0.0,92.0
2388,64.0,96,192,0.0,92.0
2389,72.0,0,192,0.0,92.0
2390,67.0,0,192,0.0,92.0
2391,55.0,96,96,0.0,92.0
2392,52.0,96,96,0.0,92.0
2393,62.0,0,192,0.0,92.0
2394,67.0,0,192,0.0,92.0
2395,70.0,0,192,0.0,92.0
2396,41.0,96,96,0.0,102.0
2397,45.0,96,96,0.0,102.0
2398,69.0,0,384,0.0,92.0
2399,41.0,96,96,0.0,102.0
2400,53.0,96,384,0.0,92.0
2401,60.0,0,384,0.0,92.0
2402,65.0,0,384,0.0,92.0
2403,48.0,96,96,0.0,102.0
2404,45.0,96,96,0.0,102.0
2405,65.0,96,96,0.0,92.0
2406,69.0,96,96,0.0,92.0
2407,65.0,96,96,0.0,92.0
2408,53.0,96,384,0.0,102.0
2409,72.0,96,96,0.0,92.0
2410,52.0,0,192,0.0,102.0
2411,69.0,96,96,0.0,92.0
2412,53.0,96,96,0.0,92.0
2413,57.0,96,96,0.0,92.0
2414,65.0,0,192,0.0,92.0
2415,77.0,0,384,0.0,92.0
2416,50.0,96,384,0.0,102.0
2417,53.0,96,96,0.0,92.0
2418,60.0,0,96,0.0,92.0
2419,69.0,96,192,0.0,92.0
2420,57.0,96,96,0.0,92.0
2421,48.0,0,192,0.0,102.0
2422,76.0,0,192,0.0,92.0
2423,65.0,0,192,0.0,92.0
2424,71.0,0,192,0.0,92.0
2425,74.0,0,192,0.0,92.0
2426,47.0,96,96,0.0,92.0
2427,50.0,0,96,0.0,92.0
2428,62.0,0,192,0.0,92.0
2429,65.0,0,192,0.0,92.0
2430,71.0,96,192,0.0,92.0
2431,47.0,96,96,0.0,92.0
2432,53.0,0,96,0.0,92.0
2433,65.0,0,192,0.0,92.0
2434,50.0,96,96,0.0,92.0
2435,69.0,0,192,0.0,92.0
2436,60.0,96,192,0.0,92.0
2437,52.0,96,96,0.0,102.0
2438,56.0,96,96,0.0,102.0
2439,68.0,0,384,0.0,92.0
2440,52.0,96,96,0.0,102.0
2441,59.0,96,0,0.0,102.0
2442,64.0,0,384,0.0,92.0
2443,56.0,96,96,0.0,102.0
2444,64.0,96,96,0.0,92.0
2445,68.0,96,96,0.0,92.0
2446,64.0,96,96,0.0,92.0
2447,71.0,96,96,0.0,92.0
2448,62.0,0,192,0.0,102.0
2449,68.0,96,96,0.0,92.0
2450,52.0,96,96,0.0,92.0
2451,56.0,0,96,0.0,92.0
2452,60.0,0,384,0.0,102.0
2453,52.0,96,96,0.0,92.0
2454,76.0,96,384,0.0,92.0
2455,64.0,96,192,0.0,92.0
2456,59.0,0,96,0.0,92.0
2457,68.0,0,192,0.0,92.0
2458,56.0,96,96,0.0,92.0
2459,74.0,0,192,0.0,92.0
2460,72.0,0,192,0.0,92.0
2461,69.0,0,192,0.0,92.0
2462,64.0,0,0,0.0,92.0
2463,45.0,96,96,0.0,92.0
2464,48.0,96,96,0.0,92.0
2465,60.0,0,192,0.0,92.0
2466,57.0,0,384,0.0,102.0
2467,45.0,96,96,0.0,92.0
2468,64.0,96,0,0.0,92.0
2469,69.0,0,192,0.0,92.0
2470,52.0,0,96,0.0,92.0
2471,49.0,96,96,0.0,92.0
2472,58.0,0,192,0.0,92.0
2473,67.0,0,192,0.0,92.0
2474,50.0,96,96,0.0,102.0
2475,53.0,96,96,0.0,102.0
2476,62.0,0,384,0.0,92.0
2477,50.0,96,96,0.0,102.0
2478,57.0,0,384,0.0,92.0
2479,65.0,0,384,0.0,92.0
2480,57.0,96,96,0.0,102.0
2481,53.0,96,96,0.0,102.0
2482,62.0,96,96,0.0,92.0
2483,65.0,96,96,0.0,92.0
2484,62.0,96,96,0.0,92.0
2485,69.0,0,96,0.0,92.0
2486,60.0,96,192,0.0,102.0
2487,65.0,96,96,0.0,92.0
2488,50.0,96,96,0.0,92.0
2489,53.0,96,96,0.0,92.0
2490,62.0,0,192,0.0,92.0
2491,74.0,0,384,0.0,92.0
2492,50.0,96,96,0.0,92.0
2493,59.0,96,384,0.0,102.0
2494,57.0,0,96,0.0,102.0
2495,65.0,0,192,0.0,92.0
2496,72.0,0,192,0.0,92.0
2497,53.0,96,96,0.0,92.0
2498,59.0,96,96,0.0,92.0
2499,56.0,96,96,0.0,92.0
2500,71.0,0,384,0.0,92.0
2501,59.0,96,96,0.0,92.0
2502,65.0,0,384,0.0,92.0
2503,62.0,0,384,0.0,92.0
2504,52.0,0,96,0.0,92.0
2505,57.0,96,96,0.0,92.0
2506,69.0,0,192,0.0,92.0
2507,64.0,0,192,0.0,92.0
2508,60.0,96,192,0.0,92.0
2509,53.0,96,96,0.0,92.0
2510,58.0,96,96,0.0,92.0
2511,62.0,0,192,0.0,92.0
2512,70.0,0,192,0.0,92.0
2513,50.0,96,96,0.0,92.0
2514,59.0,0,192,0.0,92.0
2515,68.0,0,192,0.0,92.0
2516,53.0,96,96,0.0,92.0
2517,65.0,0,384,0.0,92.0
2518,45.0,0,96,0.0,92.0
2519,60.0,0,192,0.0,92.0
2520,69.0,0,192,0.0,92.0
2521,51.0,0,192,0.0,102.0
2522,48.0,96,96,0.0,92.0
2523,66.0,96,192,0.0,92.0
2524,48.0,0,192,0.0,92.0
2525,52.0,0,192,0.0,92.0
2526,45.0,192,192,0.0,92.0
2527,69.0,0,192,0.0,92.0
2528,64.0,0,192,0.0,92.0
2529,60.0,0,192,0.0,92.0
2530,50.0,192,192,0.0,92.0
2531,68.0,0,192,0.0,92.0
2532,52.0,0,192,0.0,92.0
2533,47.0,0,192,0.0,92.0
2534,64.0,0,192,0.0,92.0
2535,59.0,0,192,0.0,92.0
2536,48.0,0,192,0.0,92.0
2537,55.0,192,192,0.0,92.0
2538,52.0,0,192,0.0,92.0
2539,64.0,0,192,0.0,92.0
2540,40.0,192,384,0.0,102.0
2541,72.0,0,192,0.0,92.0
2542,69.0,0,192,0.0,92.0
2543,64.0,0,192,0.0,92.0
2544,68.0,0,192,0.0,92.0
2545,50.0,0,192,0.0,92.0
2546,52.0,192,192,0.0,92.0
2547,59.0,0,192,0.0,92.0
2548,71.0,0,192,0.0,92.0
2549,69.0,0,192,0.0,92.0
2550,52.0,0,192,0.0,92.0
2551,57.0,192,192,0.0,92.0
2552,48.0,0,192,0.0,92.0
2553,76.0,0,192,0.0,92.0
2554,64.0,0,192,0.0,92.0
2555,47.0,0,192,0.0,92.0
2556,59.0,0,192,0.0,92.0
2557,74.0,0,192,0.0,92.0
2558,68.0,0,192,0.0,92.0
2559,64.0,0,192,0.0,92.0
2560,52.0,192,192,0.0,92.0
2561,72.0,0,192,0.0,92.0
2562,69.0,0,192,0.0,92.0
2563,64.0,0,192,0.0,92.0
2564,40.0,192,384,0.0,102.0
2565,45.0,0,192,0.0,92.0
2566,48.0,192,192,0.0,92.0
2567,52.0,0,0,0.0,92.0
2568,43.0,0,192,0.0,92.0
2569,55.0,192,192,0.0,92.0
2570,64.0,0,192,0.0,92.0
2571,71.0,0,192,0.0,92.0
2572,65.0,0,192,0.0,92.0
2573,69.0,0,192,0.0,92.0
2574,45.0,0,192,0.0,92.0
2575,41.0,0,192,0.0,92.0
2576,74.0,192,192,0.0,92.0
2577,50.0,0,192,0.0,92.0
2578,52.0,192,384,0.0,102.0
2579,40.0,0,192,0.0,92.0
2580,72.0,192,192,0.0,92.0
2581,67.0,0,192,0.0,92.0
2582,60.0,0,192,0.0,92.0
2583,48.0,0,192,0.0,92.0
2584,52.0,0,192,0.0,92.0
2585,50.0,0,192,0.0,92.0
2586,59.0,192,192,0.0,92.0
2587,62.0,0,192,0.0,92.0
2588,65.0,0,192,0.0,92.0
2589,71.0,0,192,0.0,92.0
2590,38.0,0,192,0.0,92.0
2591,40.0,192,384,0.0,102.0
2592,45.0,0,192,0.0,92.0
2593,39.0,192,192,0.0,92.0
2594,60.0,0,192,0.0,92.0
2595,69.0,0,192,0.0,92.0
2596,66.0,0,192,0.0,92.0
2597,40.0,192,192,0.0,92.0
2598,52.0,0,0,0.0,92.0
2599,57.0,0,192,0.0,92.0
2600,64.0,0,0,0.0,92.0
2601,69.0,0,192,0.0,92.0
2602,60.0,0,192,0.0,92.0
2603,52.0,0,0,0.0,92.0
2604,59.0,0,192,0.0,92.0
2605,64.0,0,0,0.0,92.0
2606,68.0,0,192,0.0,92.0
2607,62.0,192,192,0.0,92.0
2608,45.0,0,96,0.0,92.0
2609,44.0,96,96,0.0,102.0
2610,69.0,0,192,0.0,92.0
2611,60.0,0,192,0.0,92.0
2612,45.0,0,96,0.0,102.0
2613,57.0,0,384,0.0,92.0
2614,76.0,0,192,0.0,92.0
2615,72.0,96,192,0.0,92.0
2616,81.0,0,192,0.0,92.0
2617,40.0,96,96,0.0,102.0
2618,47.0,0,96,0.0,102.0
2619,71.0,0,192,0.0,92.0
2620,76.0,96,192,0.0,92.0
2621,80.0,0,192,0.0,92.0
2622,40.0,96,96,0.0,102.0
2623,57.0,96,96,0.0,92.0
2624,48.0,0,192,0.0,102.0
2625,56.0,96,96,0.0,92.0
2626,57.0,0,96,0.0,92.0
2627,52.0,96,96,0.0,92.0
2628,69.0,0,384,0.0,92.0
2629,76.0,0,0,0.0,92.0
2630,81.0,0,0,0.0,92.0
2631,45.0,96,192,0.0,102.0
2632,60.0,0,96,0.0,92.0
2633,57.0,96,96,0.0,92.0
2634,59.0,0,96,0.0,92.0
2635,77.0,0,192,0.0,92.0
2636,57.0,96,96,0.0,92.0
2637,56.0,0,48,0.0,102.0
2638,57.0,48,48,0.0,102.0
2639,59.0,0,96,0.0,92.0
2640,74.0,96,288,0.0,92.0
2641,52.0,0,96,0.0,92.0
2642,72.0,48,96,0.0,92.0
2643,71.0,0,96,0.0,92.0
2644,62.0,96,96,0.0,92.0
2645,56.0,0,288,0.0,102.0
2646,74.0,96,96,0.0,92.0
2647,59.0,0,96,0.0,92.0
2648,57.0,0,96,0.0,102.0
2649,60.0,0,192,0.0,92.0
2650,56.0,96,96,0.0,102.0
2651,76.0,96,672,0.0,92.0
2652,72.0,96,288,0.0,92.0
2653,57.0,96,96,0.0,102.0
2654,74.0,0,96,0.0,92.0
2655,71.0,96,96,0.0,92.0
2656,52.0,0,96,0.0,102.0
2657,64.0,0,192,0.0,92.0
2658,72.0,0,96,0.0,92.0
2659,60.0,0,96,0.0,102.0
2660,57.0,0,96,0.0,102.0
2661,76.0,96,96,0.0,92.0
2662,69.0,0,192,0.0,92.0
2663,59.0,96,96,0.0,102.0
2664,74.0,0,96,0.0,92.0
2665,65.0,0,192,0.0,92.0
2666,72.0,0,96,0.0,92.0
2667,57.0,96,96,0.0,102.0
2668,68.0,0,24,0.0,92.0
2669,71.0,96,24,0.0,92.0
2670,69.0,24,24,0.0,92.0
2671,72.0,0,24,0.0,92.0
2672,59.0,0,96,0.0,102.0
2673,62.0,0,192,0.0,92.0
2674,52.0,48,96,0.0,102.0
2675,71.0,0,240,0.0,92.0
2676,62.0,0,96,0.0,102.0
2677,68.0,24,240,0.0,92.0
2678,66.0,0,48,0.0,92.0
2679,68.0,48,48,0.0,92.0
2680,59.0,0,96,0.0,102.0
2681,64.0,0,0,0.0,92.0
2682,69.0,0,0,0.0,92.0
2683,60.0,0,192,0.0,102.0
2684,68.0,96,96,0.0,92.0
2685,69.0,0,96,0.0,92.0
2686,64.0,96,96,0.0,92.0
2687,52.0,96,192,0.0,102.0
2688,60.0,0,192,0.0,92.0
2689,72.0,0,96,0.0,92.0
2690,64.0,96,192,0.0,92.0
2691,69.0,96,96,0.0,92.0
2692,62.0,96,24,0.0,92.0
2693,64.0,24,24,0.0,92.0
2694,71.0,0,96,0.0,92.0
2695,57.0,0,384,0.0,102.0
2696,69.0,48,96,0.0,92.0
2697,71.0,96,96,0.0,92.0
2698,56.0,0,192,0.0,102.0
2699,64.0,96,96,0.0,92.0
2700,74.0,0,96,0.0,92.0
2701,62.0,24,432,0.0,92.0
2702,60.0,96,48,0.0,92.0
2703,71.0,0,96,0.0,92.0
2704,62.0,48,48,0.0,92.0
2705,64.0,0,24,0.0,92.0
2706,65.0,24,24,0.0,92.0
2707,72.0,48,96,0.0,92.0
2708,59.0,96,384,0.0,102.0
2709,71.0,48,96,0.0,92.0
2710,72.0,96,96,0.0,92.0
2711,57.0,0,192,0.0,102.0
2712,69.0,96,96,0.0,92.0
2713,76.0,96,96,0.0,92.0
2714,64.0,24,432,0.0,92.0
2715,62.0,0,48,0.0,92.0
2716,72.0,96,96,0.0,92.0
2717,64.0,48,48,0.0,92.0
2718,74.0,48,96,0.0,92.0
2719,65.0,0,96,0.0,92.0
2720,72.0,0,96,0.0,92.0
2721,60.0,0,384,0.0,102.0
2722,64.0,96,96,0.0,92.0
2723,62.0,96,96,0.0,92.0
2724,74.0,0,96,0.0,92.0
2725,71.0,0,96,0.0,92.0
2726,60.0,96,96,0.0,92.0
2727,59.0,96,0,0.0,92.0
2728,77.0,0,96,0.0,92.0
2729,74.0,96,96,0.0,92.0
2730,57.0,0,96,0.0,92.0
2731,62.0,0,288,0.0,102.0
2732,56.0,0,96,0.0,92.0
2733,57.0,96,96,0.0,92.0
2734,60.0,0,96,0.0,102.0
2735,57.0,96,24,0.0,92.0
2736,58.0,24,24,0.0,92.0
2737,57.0,24,48,0.0,92.0
2738,62.0,0,96,0.0,102.0
2739,56.0,0,48,0.0,92.0
2740,57.0,48,48,0.0,92.0
2741,59.0,48,0,0.0,92.0
2742,64.0,0,96,0.0,102.0
2743,59.0,96,96,0.0,102.0
2744,57.0,96,96,0.0,92.0
2745,59.0,96,96,0.0,92.0
2746,56.0,96,96,0.0,92.0
2747,60.0,96,96,0.0,92.0
2748,56.0,96,96,0.0,92.0
2749,76.0,96,1248,0.0,92.0
2750,59.0,0,96,0.0,102.0
2751,74.0,96,96,0.0,92.0
2752,60.0,96,96,0.0,102.0
2753,76.0,0,96,0.0,92.0
2754,72.0,0,96,0.0,92.0
2755,57.0,96,96,0.0,102.0
2756,62.0,0,96,0.0,102.0
2757,77.0,96,96,0.0,92.0
2758,72.0,96,96,0.0,92.0
2759,57.0,0,96,0.0,102.0
2760,74.0,0,96,0.0,92.0
2761,59.0,96,96,0.0,102.0
2762,57.0,0,96,0.0,102.0
2763,72.0,96,96,0.0,92.0
2764,74.0,96,96,0.0,92.0
2765,59.0,0,96,0.0,102.0
2766,65.0,0,192,0.0,92.0
2767,71.0,96,96,0.0,92.0
2768,55.0,0,96,0.0,102.0
2769,76.0,0,96,0.0,92.0
2770,60.0,96,96,0.0,102.0
2771,55.0,96,96,0.0,102.0
2772,71.0,0,96,0.0,92.0
2773,57.0,96,96,0.0,102.0
2774,72.0,0,96,0.0,92.0
2775,55.0,96,96,0.0,102.0
2776,71.0,0,96,0.0,92.0
2777,57.0,0,96,0.0,102.0
2778,72.0,0,96,0.0,92.0
2779,69.0,96,96,0.0,92.0
2780,53.0,0,0,0.0,92.0
2781,64.0,96,192,0.0,92.0
2782,74.0,96,96,0.0,92.0
2783,59.0,0,96,0.0,102.0
2784,69.0,96,96,0.0,92.0
2785,53.0,0,96,0.0,102.0
2786,55.0,0,96,0.0,102.0
2787,71.0,96,96,0.0,92.0
2788,53.0,0,96,0.0,102.0
2789,69.0,96,96,0.0,92.0
2790,71.0,96,96,0.0,92.0
2791,55.0,0,96,0.0,102.0
2792,52.0,0,96,0.0,102.0
2793,62.0,0,192,0.0,92.0
2794,67.0,96,96,0.0,92.0
2795,57.0,0,96,0.0,102.0
2796,72.0,0,96,0.0,92.0
2797,67.0,0,96,0.0,92.0
2798,52.0,96,96,0.0,102.0
2799,69.0,96,96,0.0,92.0
2800,67.0,96,96,0.0,92.0
2801,69.0,96,96,0.0,92.0
2802,54.0,0,288,0.0,102.0
2803,60.0,0,192,0.0,92.0
2804,66.0,96,96,0.0,92.0
2805,57.0,0,96,0.0,102.0
2806,56.0,0,96,0.0,102.0
2807,71.0,96,96,0.0,92.0
2808,66.0,0,96,0.0,92.0
2809,57.0,96,96,0.0,102.0
2810,50.0,0,288,0.0,92.0
2811,54.0,96,96,0.0,92.0
2812,56.0,96,96,0.0,92.0
2813,47.0,0,288,0.0,102.0
2814,59.0,96,96,0.0,92.0
2815,52.0,96,0,0.0,92.0
2816,50.0,0,96,0.0,102.0
2817,52.0,96,0,0.0,102.0
2818,62.0,0,96,0.0,92.0
2819,68.0,96,672,0.0,92.0
2820,71.0,96,96,0.0,92.0
2821,68.0,96,96,0.0,92.0
2822,45.0,96,384,0.0,102.0
2823,64.0,96,96,0.0,92.0
2824,74.0,96,96,0.0,92.0
2825,68.0,96,96,0.0,92.0
2826,60.0,0,672,0.0,92.0
2827,59.0,96,96,0.0,92.0
2828,69.0,0,288,0.0,92.0
2829,41.0,96,384,0.0,102.0
2830,68.0,96,96,0.0,92.0
2831,60.0,96,288,0.0,92.0
2832,60.0,96,48,0.0,92.0
2833,62.0,48,24,0.0,92.0
2834,64.0,24,24,0.0,92.0
2835,69.0,96,288,0.0,92.0
2836,65.0,24,96,0.0,92.0
2837,72.0,96,96,0.0,92.0
2838,64.0,0,96,0.0,92.0
2839,62.0,0,96,0.0,92.0
2840,77.0,96,96,0.0,92.0
2841,60.0,96,96,0.0,92.0
2842,38.0,0,384,0.0,102.0
2843,76.0,0,96,0.0,92.0
2844,59.0,96,96,0.0,92.0
2845,74.0,0,96,0.0,92.0
2846,72.0,96,96,0.0,92.0
2847,57.0,0,96,0.0,92.0
2848,56.0,0,24,0.0,92.0
2849,71.0,96,24,0.0,92.0
2850,57.0,24,24,0.0,92.0
2851,72.0,0,24,0.0,92.0
2852,40.0,48,96,0.0,102.0
2853,44.0,96,96,0.0,102.0
2854,56.0,24,336,0.0,92.0
2855,40.0,96,96,0.0,102.0
2856,71.0,0,336,0.0,92.0
2857,47.0,96,96,0.0,102.0
2858,44.0,96,96,0.0,102.0
2859,64.0,96,96,0.0,92.0
2860,68.0,96,96,0.0,92.0
2861,64.0,96,96,0.0,92.0
2862,52.0,96,384,0.0,102.0
2863,71.0,96,96,0.0,92.0
2864,68.0,96,96,0.0,92.0
2865,50.0,0,192,0.0,102.0
2866,52.0,96,96,0.0,92.0
2867,56.0,0,96,0.0,92.0
2868,64.0,96,192,0.0,92.0
2869,76.0,96,384,0.0,92.0
2870,48.0,0,384,0.0,102.0
2871,52.0,96,96,0.0,92.0
2872,59.0,0,96,0.0,92.0
2873,47.0,0,192,0.0,102.0
2874,56.0,96,96,0.0,92.0
2875,74.0,96,192,0.0,92.0
2876,68.0,0,192,0.0,92.0
2877,69.0,0,192,0.0,92.0
2878,72.0,0,192,0.0,92.0
2879,57.0,96,96,0.0,92.0
2880,64.0,0,192,0.0,92.0
2881,60.0,0,96,0.0,92.0
2882,45.0,96,384,0.0,102.0
2883,72.0,0,192,0.0,92.0
2884,76.0,96,0,0.0,92.0
2885,81.0,0,192,0.0,92.0
2886,57.0,96,96,0.0,92.0
2887,64.0,0,96,0.0,92.0
2888,80.0,0,192,0.0,92.0
2889,76.0,96,0,0.0,92.0
2890,74.0,0,192,0.0,92.0
2891,71.0,0,192,0.0,92.0
2892,52.0,96,96,0.0,92.0
2893,45.0,96,96,0.0,102.0
2894,49.0,96,96,0.0,102.0
2895,81.0,0,384,0.0,92.0
2896,73.0,0,384,0.0,92.0
2897,69.0,0,384,0.0,92.0
2898,45.0,96,96,0.0,102.0
2899,57.0,0,384,0.0,92.0
2900,52.0,96,96,0.0,102.0
2901,49.0,96,96,0.0,102.0
2902,69.0,96,96,0.0,92.0
2903,73.0,96,96,0.0,92.0
2904,69.0,96,96,0.0,92.0
2905,57.0,96,384,0.0,102.0
2906,76.0,96,96,0.0,92.0
2907,55.0,0,192,0.0,102.0
2908,73.0,96,96,0.0,92.0
2909,57.0,96,96,0.0,92.0
2910,61.0,96,96,0.0,92.0
2911,57.0,96,96,0.0,92.0
2912,69.0,0,192,0.0,92.0
2913,81.0,96,384,0.0,92.0
2914,53.0,0,384,0.0,102.0
2915,64.0,0,96,0.0,92.0
2916,52.0,0,192,0.0,102.0
2917,61.0,96,96,0.0,92.0
2918,79.0,96,192,0.0,92.0
2919,73.0,0,192,0.0,92.0
2920,69.0,0,192,0.0,92.0
2921,50.0,96,96,0.0,92.0
2922,74.0,0,0,0.0,92.0
2923,77.0,0,192,0.0,92.0
2924,53.0,0,96,0.0,92.0
2925,69.0,0,0,0.0,92.0
2926,50.0,96,96,0.0,92.0
2927,65.0,96,192,0.0,92.0
2928,57.0,0,96,0.0,92.0
2929,64.0,0,192,0.0,92.0
2930,45.0,96,96,0.0,92.0
2931,73.0,96,192,0.0,92.0
2932,67.0,0,192,0.0,92.0
2933,50.0,96,96,0.0,102.0
2934,54.0,96,96,0.0,102.0
2935,74.0,0,384,0.0,92.0
2936,50.0,96,96,0.0,102.0
2937,62.0,0,384,0.0,92.0
2938,69.0,0,384,0.0,92.0
2939,66.0,0,384,0.0,92.0
2940,57.0,96,96,0.0,102.0
2941,54.0,96,96,0.0,102.0
2942,62.0,96,96,0.0,92.0
2943,66.0,96,96,0.0,92.0
2944,62.0,96,96,0.0,92.0
2945,69.0,96,96,0.0,92.0
2946,60.0,0,192,0.0,102.0
2947,66.0,96,96,0.0,92.0
2948,50.0,96,96,0.0,92.0
2949,54.0,96,96,0.0,92.0
2950,50.0,96,96,0.0,92.0
2951,58.0,96,384,0.0,102.0
2952,62.0,0,192,0.0,92.0
2953,74.0,0,384,0.0,92.0
2954,57.0,0,96,0.0,102.0
2955,66.0,0,192,0.0,92.0
2956,54.0,96,96,0.0,92.0
2957,72.0,0,192,0.0,92.0
2958,55.0,96,96,0.0,92.0
2959,62.0,0,192,0.0,92.0
2960,67.0,96,192,0.0,92.0
2961,70.0,0,0,0.0,92.0
2962,58.0,0,96,0.0,92.0
2963,55.0,96,96,0.0,92.0
2964,74.0,96,0,0.0,92.0
2965,79.0,96,192,0.0,92.0
2966,62.0,0,96,0.0,92.0
2967,50.0,96,96,0.0,92.0
2968,78.0,0,192,0.0,92.0
2969,74.0,0,0,0.0,92.0
2970,72.0,0,192,0.0,92.0
2971,69.0,0,192,0.0,92.0
2972,43.0,96,96,0.0,102.0
2973,47.0,96,96,0.0,102.0
2974,79.0,0,384,0.0,92.0
2975,67.0,0,384,0.0,92.0
2976,55.0,96,384,0.0,92.0
2977,43.0,96,96,0.0,102.0
2978,71.0,0,384,0.0,92.0
2979,50.0,96,96,0.0,102.0
2980,47.0,96,96,0.0,102.0
2981,67.0,96,96,0.0,92.0
2982,71.0,96,96,0.0,92.0
2983,55.0,96,384,0.0,102.0
2984,67.0,96,96,0.0,92.0
2985,74.0,0,96,0.0,92.0
2986,71.0,96,96,0.0,92.0
2987,53.0,96,192,0.0,102.0
2988,55.0,96,96,0.0,92.0
2989,59.0,0,96,0.0,92.0
2990,51.0,0,384,0.0,102.0
2991,79.0,96,384,0.0,92.0
2992,67.0,96,192,0.0,92.0
2993,55.0,96,96,0.0,92.0
2994,62.0,0,96,0.0,92.0
2995,71.0,0,192,0.0,92.0
2996,77.0,96,192,0.0,92.0
2997,59.0,96,96,0.0,92.0
2998,50.0,0,192,0.0,102.0
2999,75.0,0,192,0.0,92.0
3000,72.0,0,192,0.0,92.0
3001,67.0,96,192,0.0,92.0
3002,48.0,96,96,0.0,92.0
3003,51.0,0,96,0.0,92.0
3004,48.0,96,96,0.0,92.0
3005,67.0,96,192,0.0,92.0
3006,63.0,0,192,0.0,92.0
3007,72.0,0,192,0.0,92.0
3008,55.0,0,96,0.0,92.0
3009,67.0,96,0,0.0,92.0
3010,71.0,0,192,0.0,92.0
3011,65.0,0,192,0.0,92.0
3012,62.0,96,192,0.0,92.0
3013,43.0,96,96,0.0,92.0
3014,48.0,96,96,0.0,102.0
3015,51.0,96,96,0.0,102.0
3016,63.0,0,384,0.0,92.0
3017,48.0,96,96,0.0,102.0
3018,72.0,0,384,0.0,92.0
3019,60.0,0,384,0.0,92.0
3020,55.0,96,96,0.0,102.0
3021,51.0,96,96,0.0,102.0
3022,72.0,96,96,0.0,92.0
3023,75.0,96,96,0.0,92.0
3024,60.0,96,384,0.0,102.0
3025,72.0,96,96,0.0,92.0
3026,79.0,96,96,0.0,92.0
3027,58.0,0,192,0.0,102.0
3028,75.0,96,96,0.0,92.0
3029,60.0,96,96,0.0,92.0
3030,63.0,96,96,0.0,92.0
3031,60.0,96,96,0.0,92.0
3032,72.0,0,192,0.0,92.0
3033,57.0,0,384,0.0,102.0
3034,84.0,96,384,0.0,92.0
3035,67.0,0,96,0.0,92.0
3036,63.0,96,96,0.0,92.0
3037,75.0,96,192,0.0,92.0
3038,55.0,0,192,0.0,102.0
3039,82.0,0,192,0.0,92.0
3040,69.0,96,96,0.0,92.0
3041,66.0,96,96,0.0,92.0
3042,69.0,96,96,0.0,92.0
3043,81.0,96,384,0.0,92.0
3044,75.0,0,384,0.0,92.0
3045,72.0,0,384,0.0,92.0
3046,54.0,0,384,0.0,102.0
3047,62.0,96,96,0.0,92.0
3048,79.0,0,192,0.0,92.0
3049,74.0,0,192,0.0,92.0
3050,70.0,0,192,0.0,92.0
3051,67.0,96,96,0.0,92.0
3052,55.0,0,192,0.0,102.0
3053,63.0,0,96,0.0,92.0
3054,80.0,0,192,0.0,92.0
3055,68.0,96,96,0.0,92.0
3056,72.0,96,192,0.0,92.0
3057,60.0,96,96,0.0,92.0
3058,63.0,96,96,0.0,92.0
3059,48.0,0,384,0.0,102.0
3060,78.0,0,192,0.0,92.0
3061,75.0,0,384,0.0,92.0
3062,69.0,0,192,0.0,92.0
3063,55.0,96,96,0.0,92.0
3064,49.0,0,192,0.0,102.0
3065,79.0,0,192,0.0,92.0
3066,76.0,0,192,0.0,92.0
3067,58.0,96,96,0.0,92.0
3068,70.0,0,192,0.0,92.0
3069,55.0,192,192,0.0,92.0
3070,50.0,96,384,0.0,102.0
3071,58.0,0,192,0.0,92.0
3072,62.0,0,0,0.0,92.0
3073,70.0,0,192,0.0,92.0
3074,79.0,0,192,0.0,92.0
3075,74.0,0,192,0.0,92.0
3076,74.0,0,192,0.0,92.0
3077,69.0,0,192,0.0,92.0
3078,57.0,192,192,0.0,92.0
3079,78.0,0,192,0.0,92.0
3080,60.0,0,192,0.0,92.0
3081,38.0,192,384,0.0,102.0
3082,82.0,0,192,0.0,92.0
3083,67.0,192,192,0.0,92.0
3084,62.0,0,192,0.0,92.0
3085,58.0,0,192,0.0,92.0
3086,79.0,0,192,0.0,92.0
3087,74.0,0,0,0.0,92.0
3088,78.0,0,192,0.0,92.0
3089,62.0,0,192,0.0,92.0
3090,69.0,0,192,0.0,92.0
3091,81.0,0,192,0.0,92.0
3092,60.0,192,192,0.0,92.0
3093,62.0,0,192,0.0,92.0
3094,50.0,192,384,0.0,102.0
3095,67.0,0,192,0.0,92.0
3096,74.0,0,192,0.0,92.0
3097,58.0,0,192,0.0,92.0
3098,62.0,0,0,0.0,92.0
3099,69.0,0,192,0.0,92.0
3100,72.0,0,192,0.0,92.0
3101,62.0,0,192,0.0,92.0
3102,57.0,192,192,0.0,92.0
3103,66.0,0,192,0.0,92.0
3104,70.0,0,192,0.0,92.0
3105,67.0,0,192,0.0,92.0
3106,55.0,192,192,0.0,92.0
3107,38.0,192,384,0.0,102.0
3108,62.0,192,0,0.0,92.0
3109,58.0,0,192,0.0,92.0
3110,62.0,0,0,0.0,92.0
3111,69.0,0,192,0.0,92.0
3112,53.0,0,192,0.0,92.0
3113,65.0,0,192,0.0,92.0
3114,84.0,0,192,0.0,92.0
3115,79.0,0,192,0.0,92.0
3116,75.0,192,192,0.0,92.0
3117,50.0,192,384,0.0,102.0
3118,51.0,0,192,0.0,92.0
3119,55.0,0,192,0.0,92.0
3120,60.0,0,192,0.0,92.0
3121,77.0,0,192,0.0,92.0
3122,70.0,192,192,0.0,92.0
3123,82.0,0,192,0.0,92.0
3124,58.0,0,192,0.0,92.0
3125,62.0,0,192,0.0,92.0
3126,50.0,0,192,0.0,92.0
3127,38.0,192,384,0.0,102.0
3128,48.0,0,192,0.0,92.0
3129,60.0,0,192,0.0,92.0
3130,81.0,192,192,0.0,92.0
3131,75.0,0,192,0.0,92.0
3132,72.0,0,192,0.0,92.0
3133,69.0,0,192,0.0,92.0
3134,49.0,192,192,0.0,92.0
3135,76.0,0,192,0.0,92.0
3136,70.0,0,192,0.0,92.0
3137,55.0,0,192,0.0,92.0
3138,79.0,0,192,0.0,92.0
3139,74.0,0,192,0.0,92.0
3140,50.0,192,192,0.0,92.0
3141,67.0,0,192,0.0,92.0
3142,70.0,0,192,0.0,92.0
3143,62.0,0,192,0.0,92.0
3144,79.0,0,192,0.0,92.0
3145,62.0,0,192,0.0,92.0
3146,74.0,0,192,0.0,92.0
3147,72.0,0,192,0.0,92.0
3148,69.0,0,192,0.0,92.0
3149,78.0,192,192,0.0,92.0
3150,51.0,96,96,0.0,92.0
3151,55.0,96,96,0.0,92.0
3152,70.0,0,384,0.0,92.0
3153,75.0,0,384,0.0,92.0
3154,67.0,0,384,0.0,92.0
3155,51.0,96,96,0.0,92.0
3156,49.0,0,384,0.0,102.0
3157,79.0,192,384,0.0,92.0
3158,58.0,96,96,0.0,92.0
3159,55.0,96,96,0.0,92.0
3160,68.0,96,96,0.0,92.0
3161,72.0,96,96,0.0,92.0
3162,63.0,0,384,0.0,92.0
3163,68.0,96,96,0.0,92.0
3164,48.0,96,384,0.0,102.0
3165,75.0,96,96,0.0,92.0
3166,53.0,96,96,0.0,92.0
3167,57.0,96,96,0.0,92.0
3168,72.0,96,480,0.0,92.0
3169,51.0,96,384,0.0,102.0
3170,77.0,0,384,0.0,92.0
3171,53.0,96,96,0.0,92.0
3172,81.0,0,384,0.0,92.0
3173,60.0,96,96,0.0,92.0
3174,57.0,96,96,0.0,92.0
3175,70.0,96,96,0.0,92.0
3176,74.0,96,96,0.0,92.0
3177,70.0,96,96,0.0,92.0
3178,50.0,0,384,0.0,102.0
3179,65.0,96,384,0.0,92.0
3180,77.0,96,96,0.0,92.0
3181,55.0,96,96,0.0,92.0
3182,59.0,96,96,0.0,92.0
3183,55.0,96,96,0.0,92.0
3184,74.0,96,480,0.0,92.0
3185,53.0,0,384,0.0,102.0
3186,79.0,0,384,0.0,92.0
3187,83.0,96,384,0.0,92.0
3188,62.0,96,96,0.0,92.0
3189,59.0,96,96,0.0,92.0
3190,72.0,96,96,0.0,92.0
3191,75.0,96,96,0.0,92.0
3192,67.0,0,384,0.0,92.0
3193,51.0,96,384,0.0,102.0
3194,72.0,96,96,0.0,92.0
3195,79.0,96,96,0.0,92.0
3196,75.0,96,96,0.0,92.0
3197,84.0,96,96,0.0,92.0
3198,82.0,96,96,0.0,92.0
3199,84.0,96,96,0.0,92.0
3200,68.0,0,384,0.0,92.0
3201,48.0,0,384,0.0,102.0
3202,60.0,0,384,0.0,92.0
3203,63.0,0,384,0.0,92.0
3204,79.0,96,96,0.0,92.0
3205,80.0,96,96,0.0,92.0
3206,75.0,96,96,0.0,92.0
3207,72.0,96,96,0.0,92.0
3208,70.0,96,96,0.0,92.0
3209,72.0,96,96,0.0,92.0
3210,63.0,0,384,0.0,92.0
3211,68.0,0,384,0.0,92.0
3212,67.0,96,96,0.0,92.0
3213,60.0,0,384,0.0,92.0
3214,48.0,0,384,0.0,102.0
3215,68.0,96,96,0.0,92.0
3216,60.0,0,96,0.0,92.0
3217,58.0,96,96,0.0,92.0
3218,60.0,96,96,0.0,92.0
3219,63.0,96,480,0.0,92.0
3220,48.0,0,384,0.0,102.0
3221,68.0,0,384,0.0,92.0
3222,72.0,0,384,0.0,92.0
3223,75.0,96,384,0.0,92.0
3224,55.0,96,96,0.0,92.0
3225,56.0,96,96,0.0,92.0
3226,48.0,0,96,0.0,102.0
3227,46.0,96,96,0.0,102.0
3228,48.0,96,96,0.0,102.0
3229,51.0,96,480,0.0,92.0
3230,57.0,96,384,0.0,92.0
3231,60.0,0,384,0.0,92.0
3232,78.0,0,384,0.0,92.0
3233,75.0,0,384,0.0,92.0
3234,45.0,96,96,0.0,102.0
3235,69.0,0,384,0.0,92.0
3236,72.0,0,384,0.0,92.0
3237,51.0,96,96,0.0,102.0
3238,48.0,96,96,0.0,102.0
3239,54.0,0,96,0.0,102.0
3240,52.0,96,96,0.0,102.0
3241,54.0,96,96,0.0,102.0
3242,50.0,96,96,0.0,102.0
3243,69.0,0,384,0.0,92.0
3244,57.0,96,0,0.0,102.0
3245,72.0,0,384,0.0,92.0
3246,74.0,0,384,0.0,92.0
3247,81.0,0,384,0.0,92.0
3248,62.0,96,384,0.0,92.0
3249,54.0,96,96,0.0,102.0
3250,60.0,0,96,0.0,102.0
3251,58.0,96,96,0.0,102.0
3252,60.0,96,96,0.0,102.0
3253,74.0,0,384,0.0,92.0
3254,69.0,0,384,0.0,92.0
3255,50.0,96,384,0.0,92.0
3256,57.0,0,384,0.0,92.0
3257,62.0,0,384,0.0,92.0
3258,78.0,0,384,0.0,92.0
3259,55.0,96,96,0.0,102.0
3260,57.0,96,96,0.0,102.0
3261,52.0,96,96,0.0,102.0
3262,54.0,0,96,0.0,102.0
3263,52.0,96,96,0.0,102.0
3264,54.0,96,96,0.0,102.0
3265,50.0,96,96,0.0,102.0
3266,66.0,0,384,0.0,92.0
3267,69.0,0,384,0.0,92.0
3268,57.0,0,384,0.0,92.0
3269,74.0,0,384,0.0,92.0
3270,62.0,96,384,0.0,92.0
3271,57.0,96,96,0.0,102.0
3272,48.0,96,96,0.0,102.0
3273,79.0,192,192,0.0,92.0
3274,70.0,0,192,0.0,92.0
3275,74.0,0,0,0.0,92.0
3276,46.0,96,384,0.0,102.0
3277,50.0,0,192,0.0,102.0
3278,69.0,192,192,0.0,92.0
3279,78.0,0,192,0.0,92.0
3280,79.0,0,96,0.0,92.0
3281,55.0,192,192,0.0,102.0
3282,78.0,96,96,0.0,92.0
3283,74.0,0,192,0.0,92.0
3284,70.0,0,192,0.0,92.0
3285,79.0,0,96,0.0,92.0
3286,58.0,0,192,0.0,92.0
3287,46.0,96,192,0.0,102.0
3288,62.0,0,192,0.0,92.0
3289,67.0,0,192,0.0,92.0
3290,74.0,96,96,0.0,92.0
3291,81.0,0,96,0.0,92.0
3292,66.0,0,192,0.0,92.0
3293,62.0,0,192,0.0,92.0
3294,57.0,0,192,0.0,92.0
3295,50.0,96,192,0.0,102.0
3296,72.0,96,96,0.0,92.0
3297,55.0,0,96,0.0,92.0
3298,54.0,96,96,0.0,102.0
3299,55.0,96,0,0.0,102.0
3300,70.0,0,192,0.0,92.0
3301,62.0,0,384,0.0,92.0
3302,67.0,0,0,0.0,92.0
3303,50.0,96,96,0.0,102.0
3304,74.0,0,192,0.0,92.0
3305,58.0,0,96,0.0,102.0
3306,62.0,96,192,0.0,92.0
3307,55.0,96,96,0.0,102.0
3308,57.0,0,96,0.0,102.0
3309,79.0,0,384,0.0,92.0
3310,55.0,96,96,0.0,102.0
3311,63.0,96,192,0.0,92.0
3312,78.0,96,24,0.0,92.0
3313,79.0,24,24,0.0,92.0
3314,57.0,0,96,0.0,102.0
3315,60.0,0,288,0.0,92.0
3316,50.0,48,96,0.0,102.0
3317,58.0,0,96,0.0,92.0
3318,60.0,96,96,0.0,102.0
3319,78.0,24,240,0.0,92.0
3320,57.0,0,96,0.0,92.0
3321,76.0,0,48,0.0,92.0
3322,57.0,0,96,0.0,102.0
3323,78.0,48,48,0.0,92.0
3324,60.0,96,96,0.0,92.0
3325,79.0,48,96,0.0,92.0
3326,78.0,96,96,0.0,92.0
3327,58.0,0,192,0.0,102.0
3328,79.0,96,96,0.0,92.0
3329,62.0,0,672,0.0,92.0
3330,50.0,0,192,0.0,102.0
3331,57.0,0,96,0.0,92.0
3332,74.0,96,96,0.0,92.0
3333,60.0,0,96,0.0,92.0
3334,58.0,0,96,0.0,92.0
3335,82.0,0,96,0.0,92.0
3336,55.0,0,192,0.0,92.0
3337,62.0,96,96,0.0,92.0
3338,79.0,0,96,0.0,92.0
3339,60.0,0,96,0.0,92.0
3340,81.0,0,96,0.0,92.0
3341,63.0,96,192,0.0,92.0
3342,58.0,96,96,0.0,92.0
3343,79.0,0,96,0.0,92.0
3344,54.0,0,48,0.0,102.0
3345,81.0,0,96,0.0,92.0
3346,55.0,48,48,0.0,102.0
3347,74.0,48,96,0.0,92.0
3348,57.0,0,288,0.0,92.0
3349,84.0,96,96,0.0,92.0
3350,81.0,0,96,0.0,92.0
3351,62.0,96,384,0.0,92.0
3352,54.0,0,288,0.0,102.0
3353,55.0,0,0,0.0,102.0
3354,67.0,0,96,0.0,92.0
3355,55.0,0,192,0.0,92.0
3356,82.0,96,192,0.0,92.0
3357,66.0,96,96,0.0,92.0
3358,67.0,0,96,0.0,92.0
3359,58.0,96,192,0.0,102.0
3360,62.0,0,0,0.0,102.0
3361,74.0,0,192,0.0,92.0
3362,70.0,0,96,0.0,92.0
3363,67.0,96,96,0.0,92.0
3364,69.0,96,96,0.0,92.0
3365,67.0,96,96,0.0,92.0
3366,79.0,96,384,0.0,92.0
3367,69.0,96,96,0.0,92.0
3368,62.0,96,96,0.0,92.0
3369,60.0,0,384,0.0,102.0
3370,78.0,0,192,0.0,92.0
3371,72.0,0,96,0.0,92.0
3372,69.0,96,96,0.0,92.0
3373,54.0,96,192,0.0,102.0
3374,70.0,96,96,0.0,92.0
3375,81.0,0,384,0.0,92.0
3376,69.0,96,96,0.0,92.0
3377,70.0,0,96,0.0,92.0
3378,67.0,96,96,0.0,92.0
3379,79.0,96,192,0.0,92.0
3380,62.0,0,384,0.0,102.0
3381,74.0,0,96,0.0,92.0
3382,70.0,96,96,0.0,92.0
3383,55.0,0,192,0.0,102.0
3384,72.0,0,96,0.0,92.0
3385,63.0,96,192,0.0,102.0
3386,70.0,96,96,0.0,92.0
3387,82.0,96,384,0.0,92.0
3388,72.0,96,96,0.0,92.0
3389,81.0,0,192,0.0,92.0
3390,60.0,0,192,0.0,102.0
3391,69.0,96,96,0.0,92.0
3392,75.0,96,96,0.0,92.0
3393,57.0,0,192,0.0,102.0
3394,72.0,96,96,0.0,92.0
3395,84.0,0,288,0.0,92.0
3396,81.0,96,96,0.0,92.0
3397,54.0,96,192,0.0,102.0
3398,78.0,96,96,0.0,92.0
3399,57.0,0,96,0.0,102.0
3400,74.0,96,96,0.0,92.0
3401,55.0,0,96,0.0,102.0
3402,78.0,96,96,0.0,92.0
3403,81.0,96,96,0.0,92.0
3404,82.0,96,24,0.0,92.0
3405,84.0,24,24,0.0,92.0
3406,57.0,0,288,0.0,102.0
3407,55.0,48,96,0.0,102.0
3408,54.0,96,96,0.0,102.0
3409,57.0,96,96,0.0,102.0
3410,50.0,96,96,0.0,102.0
3411,54.0,96,96,0.0,102.0
3412,82.0,24,624,0.0,92.0
3413,72.0,96,96,0.0,92.0
3414,81.0,0,96,0.0,92.0
3415,82.0,0,96,0.0,92.0
3416,74.0,96,96,0.0,92.0
3417,79.0,0,96,0.0,92.0
3418,70.0,96,96,0.0,92.0
3419,84.0,96,96,0.0,92.0
3420,75.0,0,96,0.0,92.0
3421,70.0,0,96,0.0,92.0
3422,79.0,96,96,0.0,92.0
3423,72.0,96,96,0.0,92.0
3424,81.0,0,96,0.0,92.0
3425,79.0,96,96,0.0,92.0
3426,70.0,0,96,0.0,92.0
3427,55.0,96,768,0.0,102.0
3428,81.0,0,96,0.0,92.0
3429,72.0,0,96,0.0,92.0
3430,69.0,0,96,0.0,92.0
3431,63.0,96,192,0.0,102.0
3432,77.0,96,96,0.0,92.0
3433,82.0,0,96,0.0,92.0
3434,74.0,96,96,0.0,92.0
3435,77.0,96,96,0.0,92.0
3436,69.0,0,96,0.0,92.0
3437,79.0,0,96,0.0,92.0
3438,70.0,96,96,0.0,92.0
3439,69.0,0,96,0.0,92.0
3440,77.0,96,96,0.0,92.0
3441,53.0,0,384,0.0,102.0
3442,70.0,96,96,0.0,92.0
3443,79.0,0,96,0.0,92.0
3444,75.0,0,96,0.0,92.0
3445,62.0,0,192,0.0,102.0
3446,67.0,96,96,0.0,92.0
3447,81.0,0,96,0.0,92.0
3448,72.0,96,96,0.0,92.0
3449,67.0,96,96,0.0,92.0
3450,75.0,0,96,0.0,92.0
3451,69.0,0,96,0.0,92.0
3452,77.0,96,96,0.0,92.0
3453,67.0,96,96,0.0,92.0
3454,51.0,0,384,0.0,102.0
3455,75.0,0,96,0.0,92.0
3456,69.0,96,96,0.0,92.0
3457,77.0,0,96,0.0,92.0
3458,74.0,0,96,0.0,92.0
3459,65.0,96,96,0.0,92.0
3460,60.0,0,192,0.0,102.0
3461,70.0,0,96,0.0,92.0
3462,79.0,96,96,0.0,92.0
3463,65.0,0,96,0.0,92.0
3464,74.0,96,96,0.0,92.0
3465,67.0,96,96,0.0,92.0
3466,50.0,0,384,0.0,102.0
3467,65.0,96,96,0.0,92.0
3468,76.0,0,288,0.0,92.0
3469,67.0,0,96,0.0,92.0
3470,64.0,96,96,0.0,92.0
3471,58.0,96,192,0.0,102.0
3472,79.0,0,96,0.0,92.0
3473,78.0,0,96,0.0,92.0
3474,69.0,0,96,0.0,92.0
3475,64.0,0,96,0.0,92.0
3476,79.0,96,96,0.0,92.0
3477,48.0,96,288,0.0,102.0
3478,50.0,96,96,0.0,102.0
3479,40.0,96,96,0.0,102.0
3480,54.0,96,96,0.0,102.0
3481,43.0,96,96,0.0,102.0
3482,57.0,96,96,0.0,102.0
3483,81.0,0,672,0.0,92.0
3484,66.0,96,672,0.0,92.0
3485,70.0,0,96,0.0,92.0
3486,79.0,96,96,0.0,92.0
3487,78.0,0,96,0.0,92.0
3488,69.0,96,96,0.0,92.0
3489,75.0,0,96,0.0,92.0
3490,67.0,96,96,0.0,92.0
3491,66.0,96,96,0.0,92.0
3492,74.0,0,96,0.0,92.0
3493,72.0,0,96,0.0,92.0
3494,69.0,96,96,0.0,92.0
3495,79.0,96,96,0.0,92.0
3496,46.0,96,768,0.0,102.0
3497,77.0,96,96,0.0,92.0
3498,62.0,0,192,0.0,92.0
3499,75.0,0,96,0.0,92.0
3500,67.0,0,96,0.0,92.0
3501,74.0,96,96,0.0,92.0
3502,45.0,96,192,0.0,102.0
3503,66.0,0,96,0.0,92.0
3504,72.0,96,96,0.0,92.0
3505,46.0,0,192,0.0,102.0
3506,70.0,96,96,0.0,92.0
3507,75.0,96,96,0.0,92.0
3508,67.0,0,288,0.0,92.0
3509,48.0,0,192,0.0,102.0
3510,74.0,96,96,0.0,92.0
3511,65.0,0,96,0.0,92.0
3512,63.0,0,96,0.0,92.0
3513,72.0,0,96,0.0,92.0
3514,62.0,0,96,0.0,92.0
3515,46.0,96,192,0.0,102.0
3516,70.0,96,96,0.0,92.0
3517,60.0,96,96,0.0,92.0
3518,69.0,0,96,0.0,92.0
3519,67.0,0,96,0.0,92.0
3520,58.0,96,96,0.0,92.0
3521,48.0,0,192,0.0,102.0
3522,66.0,0,24,0.0,92.0
3523,67.0,24,24,0.0,92.0
3524,50.0,48,96,0.0,102.0
3525,54.0,96,96,0.0,102.0
3526,50.0,96,96,0.0,102.0
3527,57.0,96,96,0.0,102.0
3528,54.0,96,96,0.0,102.0
3529,66.0,24,528,0.0,92.0
3530,62.0,96,96,0.0,92.0
3531,66.0,96,96,0.0,92.0
3532,62.0,96,96,0.0,92.0
3533,69.0,96,96,0.0,92.0
3534,60.0,0,192,0.0,102.0
3535,66.0,96,96,0.0,92.0
3536,50.0,96,96,0.0,92.0
3537,54.0,96,96,0.0,92.0
3538,74.0,0,384,0.0,92.0
3539,62.0,0,192,0.0,92.0
3540,50.0,96,96,0.0,92.0
3541,58.0,96,384,0.0,102.0
3542,57.0,0,96,0.0,102.0
3543,54.0,96,96,0.0,92.0
3544,66.0,96,192,0.0,92.0
3545,72.0,0,192,0.0,92.0
3546,55.0,96,96,0.0,92.0
3547,62.0,0,192,0.0,92.0
3548,67.0,0,192,0.0,92.0
3549,70.0,0,192,0.0,92.0
3550,58.0,0,96,0.0,92.0
3551,79.0,96,192,0.0,92.0
3552,74.0,0,192,0.0,92.0
3553,70.0,0,192,0.0,92.0
3554,55.0,96,96,0.0,92.0
3555,62.0,0,96,0.0,92.0
3556,50.0,96,96,0.0,92.0
3557,69.0,0,192,0.0,92.0
3558,72.0,0,192,0.0,92.0
3559,78.0,96,192,0.0,92.0
3560,74.0,0,192,0.0,92.0
3561,43.0,96,96,0.0,102.0
3562,46.0,96,96,0.0,102.0
3563,79.0,0,384,0.0,92.0
3564,43.0,96,96,0.0,102.0
3565,55.0,0,384,0.0,92.0
3566,74.0,0,384,0.0,92.0
3567,70.0,96,384,0.0,92.0
3568,67.0,0,384,0.0,92.0
3569,50.0,96,96,0.0,102.0
3570,46.0,96,96,0.0,102.0
3571,67.0,96,96,0.0,92.0
3572,71.0,96,96,0.0,92.0
3573,67.0,96,96,0.0,92.0
3574,55.0,96,384,0.0,102.0
3575,74.0,96,96,0.0,92.0
3576,71.0,96,96,0.0,92.0
3577,53.0,0,192,0.0,102.0
3578,55.0,96,96,0.0,92.0
3579,59.0,0,96,0.0,92.0
3580,51.0,0,384,0.0,102.0
3581,67.0,96,192,0.0,92.0
3582,55.0,96,96,0.0,92.0
3583,79.0,96,384,0.0,92.0
3584,62.0,0,96,0.0,92.0
3585,59.0,96,96,0.0,92.0
3586,71.0,0,192,0.0,92.0
3587,77.0,0,192,0.0,92.0
3588,50.0,96,192,0.0,102.0
3589,75.0,0,192,0.0,92.0
3590,60.0,96,96,0.0,92.0
3591,67.0,96,192,0.0,92.0
3592,72.0,0,192,0.0,92.0
3593,63.0,96,96,0.0,92.0
3594,75.0,0,192,0.0,92.0
3595,84.0,0,192,0.0,92.0
3596,79.0,0,192,0.0,92.0
3597,48.0,0,384,0.0,102.0
3598,60.0,96,96,0.0,92.0
3599,67.0,0,96,0.0,92.0
3600,83.0,96,192,0.0,92.0
3601,79.0,0,192,0.0,92.0
3602,77.0,0,192,0.0,92.0
3603,74.0,0,192,0.0,92.0
3604,55.0,96,96,0.0,92.0
3605,48.0,96,96,0.0,102.0
3606,51.0,96,96,0.0,102.0
3607,84.0,0,384,0.0,92.0
3608,79.0,0,384,0.0,92.0
3609,75.0,0,384,0.0,92.0
3610,72.0,0,384,0.0,92.0
3611,60.0,96,384,0.0,92.0
3612,48.0,96,96,0.0,102.0
3613,55.0,96,96,0.0,102.0
3614,51.0,96,96,0.0,102.0
3615,60.0,96,96,0.0,92.0
3616,64.0,96,96,0.0,92.0
3617,60.0,96,96,0.0,92.0
3618,67.0,0,96,0.0,92.0
3619,64.0,96,96,0.0,92.0
3620,58.0,96,192,0.0,102.0
3621,48.0,96,96,0.0,92.0
3622,52.0,0,96,0.0,92.0
3623,57.0,0,384,0.0,102.0
3624,72.0,96,384,0.0,92.0
3625,60.0,96,192,0.0,92.0
3626,48.0,96,96,0.0,92.0
3627,55.0,0,96,0.0,92.0
3628,64.0,0,192,0.0,92.0
3629,70.0,96,192,0.0,92.0
3630,52.0,96,96,0.0,92.0
3631,53.0,96,96,0.0,92.0
3632,60.0,0,192,0.0,92.0
3633,65.0,96,192,0.0,92.0
3634,69.0,96,0,0.0,92.0
3635,57.0,0,96,0.0,92.0
3636,72.0,0,192,0.0,92.0
3637,53.0,96,96,0.0,92.0
3638,77.0,0,192,0.0,92.0
3639,60.0,0,96,0.0,92.0
3640,48.0,96,96,0.0,92.0
3641,67.0,96,192,0.0,92.0
3642,70.0,0,192,0.0,92.0
3643,72.0,0,0,0.0,92.0
3644,76.0,0,192,0.0,92.0
3645,41.0,96,96,0.0,102.0
3646,45.0,96,96,0.0,102.0
3647,53.0,96,384,0.0,92.0
3648,65.0,0,384,0.0,92.0
3649,41.0,96,96,0.0,102.0
3650,77.0,0,384,0.0,92.0
3651,69.0,0,384,0.0,92.0
3652,48.0,96,96,0.0,102.0
3653,45.0,96,96,0.0,102.0
3654,65.0,96,96,0.0,92.0
3655,69.0,96,96,0.0,92.0
3656,65.0,96,96,0.0,92.0
3657,53.0,96,384,0.0,102.0
3658,72.0,0,96,0.0,92.0
3659,51.0,96,192,0.0,102.0
3660,69.0,96,96,0.0,92.0
3661,53.0,96,96,0.0,92.0
3662,57.0,96,96,0.0,92.0
3663,65.0,0,192,0.0,92.0
3664,50.0,96,384,0.0,102.0
3665,77.0,0,384,0.0,92.0
3666,53.0,96,96,0.0,92.0
3667,60.0,0,96,0.0,92.0
3668,57.0,96,96,0.0,92.0
3669,48.0,0,192,0.0,102.0
3670,75.0,96,192,0.0,92.0
3671,69.0,0,192,0.0,92.0
3672,70.0,96,192,0.0,92.0
3673,58.0,96,96,0.0,92.0
3674,65.0,0,192,0.0,92.0
3675,74.0,0,0,0.0,92.0
3676,62.0,96,96,0.0,92.0
3677,77.0,96,0,0.0,92.0
3678,58.0,96,96,0.0,92.0
3679,82.0,0,192,0.0,92.0
3680,65.0,0,96,0.0,92.0
3681,63.0,96,96,0.0,92.0
3682,72.0,0,192,0.0,92.0
3683,81.0,0,192,0.0,92.0
3684,62.0,96,96,0.0,92.0
3685,60.0,96,96,0.0,92.0
3686,62.0,0,96,0.0,92.0
3687,70.0,0,0,0.0,92.0
3688,77.0,0,192,0.0,92.0
3689,80.0,96,192,0.0,92.0
3690,58.0,96,96,0.0,92.0
3691,63.0,0,96,0.0,92.0
3692,75.0,96,192,0.0,92.0
3693,58.0,96,96,0.0,92.0
3694,79.0,0,192,0.0,92.0
3695,60.0,96,96,0.0,92.0
3696,58.0,96,96,0.0,92.0
3697,60.0,0,96,0.0,92.0
3698,79.0,0,192,0.0,92.0
3699,75.0,96,192,0.0,92.0
3700,69.0,0,192,0.0,92.0
3701,57.0,96,96,0.0,92.0
3702,62.0,96,96,0.0,92.0
3703,77.0,0,192,0.0,92.0
3704,74.0,0,192,0.0,92.0
3705,69.0,0,192,0.0,92.0
3706,57.0,96,96,0.0,92.0
3707,58.0,96,96,0.0,92.0
3708,57.0,96,96,0.0,92.0
3709,58.0,96,96,0.0,92.0
3710,67.0,0,0,0.0,92.0
3711,74.0,0,192,0.0,92.0
3712,77.0,0,192,0.0,92.0
3713,55.0,96,96,0.0,92.0
3714,60.0,0,96,0.0,92.0
3715,72.0,0,192,0.0,92.0
3716,75.0,96,192,0.0,92.0
3717,55.0,96,96,0.0,92.0
3718,57.0,96,96,0.0,92.0
3719,55.0,96,96,0.0,92.0
3720,57.0,96,96,0.0,92.0
3721,75.0,0,192,0.0,92.0
3722,72.0,0,192,0.0,92.0
3723,65.0,0,192,0.0,92.0
3724,46.0,0,0,0.0,102.0
3725,53.0,96,96,0.0,92.0
3726,58.0,0,96,0.0,92.0
3727,53.0,96,96,0.0,92.0
3728,74.0,0,192,0.0,92.0
3729,70.0,0,192,0.0,92.0
3730,65.0,96,192,0.0,92.0
3731,63.0,96,96,0.0,92.0
3732,67.0,96,96,0.0,92.0
3733,51.0,0,384,0.0,102.0
3734,63.0,96,96,0.0,92.0
3735,70.0,0,96,0.0,92.0
3736,67.0,96,96,0.0,92.0
3737,50.0,96,192,0.0,102.0
3738,60.0,96,96,0.0,92.0
3739,63.0,96,96,0.0,92.0
3740,60.0,96,96,0.0,92.0
3741,48.0,0,384,0.0,102.0
3742,67.0,96,96,0.0,92.0
3743,46.0,0,192,0.0,102.0
3744,55.0,0,1152,0.0,92.0
3745,74.0,96,1152,0.0,92.0
3746,63.0,96,96,0.0,92.0
3747,53.0,96,96,0.0,92.0
3748,57.0,96,96,0.0,92.0
3749,45.0,96,384,0.0,102.0
3750,65.0,0,384,0.0,92.0
3751,72.0,0,384,0.0,92.0
3752,53.0,96,96,0.0,92.0
3753,60.0,96,96,0.0,92.0
3754,57.0,96,96,0.0,92.0
3755,43.0,0,192,0.0,102.0
3756,70.0,0,192,0.0,92.0
3757,67.0,0,192,0.0,92.0
3758,75.0,0,0,0.0,92.0
3759,41.0,96,384,0.0,102.0
3760,65.0,0,0,0.0,92.0
3761,69.0,0,384,0.0,92.0
3762,72.0,0,384,0.0,92.0
3763,60.0,0,192,0.0,92.0
3764,57.0,192,192,0.0,92.0
3765,62.0,0,192,0.0,92.0
3766,58.0,0,192,0.0,92.0
3767,74.0,192,192,0.0,92.0
3768,70.0,0,192,0.0,92.0
3769,63.0,0,192,0.0,92.0
3770,60.0,0,192,0.0,92.0
3771,53.0,192,384,0.0,102.0
3772,72.0,192,192,0.0,92.0
3773,69.0,0,192,0.0,92.0
3774,65.0,0,192,0.0,92.0
3775,62.0,0,192,0.0,92.0
3776,70.0,192,192,0.0,92.0
3777,65.0,0,192,0.0,92.0
3778,63.0,0,192,0.0,92.0
3779,69.0,0,192,0.0,92.0
3780,41.0,192,384,0.0,102.0
3781,72.0,192,192,0.0,92.0
3782,79.0,0,192,0.0,92.0
3783,77.0,0,192,0.0,92.0
3784,74.0,0,192,0.0,92.0
3785,70.0,0,192,0.0,92.0
3786,65.0,0,192,0.0,92.0
3787,62.0,192,192,0.0,92.0
3788,69.0,0,192,0.0,92.0
3789,60.0,192,192,0.0,92.0
3790,65.0,0,192,0.0,92.0
3791,75.0,0,192,0.0,92.0
3792,53.0,192,384,0.0,102.0
3793,70.0,0,192,0.0,92.0
3794,62.0,192,192,0.0,92.0
3795,58.0,0,192,0.0,92.0
3796,74.0,0,192,0.0,92.0
3797,65.0,0,192,0.0,92.0
3798,55.0,0,192,0.0,92.0
3799,75.0,0,192,0.0,92.0
3800,70.0,0,192,0.0,92.0
3801,63.0,0,192,0.0,92.0
3802,58.0,192,192,0.0,92.0
3803,41.0,192,384,0.0,102.0
3804,68.0,0,192,0.0,92.0
3805,53.0,0,192,0.0,92.0
3806,58.0,0,192,0.0,92.0
3807,74.0,0,192,0.0,92.0
3808,65.0,192,192,0.0,92.0
3809,60.0,0,192,0.0,92.0
3810,51.0,0,192,0.0,92.0
3811,69.0,0,192,0.0,92.0
3812,66.0,192,192,0.0,92.0
3813,72.0,0,192,0.0,92.0
3814,53.0,192,384,0.0,102.0
3815,52.0,0,192,0.0,92.0
3816,61.0,192,192,0.0,92.0
3817,70.0,0,192,0.0,92.0
3818,67.0,0,192,0.0,92.0
3819,65.0,0,192,0.0,92.0
3820,60.0,0,192,0.0,92.0
3821,70.0,0,192,0.0,92.0
3822,53.0,192,192,0.0,92.0
3823,41.0,0,0,0.0,92.0
3824,60.0,192,192,0.0,92.0
3825,63.0,0,192,0.0,92.0
3826,65.0,192,0,0.0,92.0
3827,69.0,0,192,0.0,92.0
3828,53.0,0,0,0.0,92.0
3829,46.0,96,96,0.0,102.0
3830,50.0,96,96,0.0,102.0
3831,46.0,96,96,0.0,102.0
3832,70.0,0,384,0.0,92.0
3833,62.0,0,384,0.0,92.0
3834,53.0,96,0,0.0,102.0
3835,58.0,0,384,0.0,92.0
3836,50.0,96,96,0.0,102.0
3837,70.0,96,96,0.0,92.0
3838,74.0,96,96,0.0,92.0
3839,70.0,96,96,0.0,92.0
3840,58.0,96,384,0.0,102.0
3841,77.0,96,96,0.0,92.0
3842,74.0,96,96,0.0,92.0
3843,57.0,0,192,0.0,102.0
3844,67.0,96,96,0.0,92.0
3845,70.0,96,96,0.0,92.0
3846,55.0,0,384,0.0,102.0
3847,67.0,96,96,0.0,92.0
3848,74.0,0,96,0.0,92.0
3849,70.0,96,96,0.0,92.0
3850,53.0,96,192,0.0,102.0
3851,60.0,96,96,0.0,92.0
3852,64.0,96,96,0.0,92.0
3853,79.0,0,384,0.0,92.0
3854,60.0,96,96,0.0,92.0
3855,52.0,96,384,0.0,102.0
3856,67.0,0,96,0.0,92.0
3857,50.0,96,192,0.0,102.0
3858,64.0,96,96,0.0,92.0
3859,77.0,0,192,0.0,92.0
3860,67.0,96,96,0.0,92.0
3861,64.0,96,96,0.0,92.0
3862,67.0,96,96,0.0,92.0
3863,48.0,0,384,0.0,102.0
3864,60.0,96,96,0.0,92.0
3865,64.0,96,96,0.0,92.0
3866,46.0,0,192,0.0,102.0
3867,67.0,96,96,0.0,92.0
3868,64.0,96,96,0.0,92.0
3869,60.0,96,96,0.0,92.0
3870,64.0,96,96,0.0,92.0
3871,45.0,0,384,0.0,102.0
3872,57.0,96,96,0.0,92.0
3873,43.0,0,192,0.0,102.0
3874,60.0,96,96,0.0,92.0
3875,76.0,96,1152,0.0,92.0
3876,82.0,96,2496,0.0,92.0
3877,41.0,96,96,0.0,102.0
3878,45.0,96,96,0.0,102.0
3879,77.0,0,384,0.0,92.0
3880,81.0,0,192,0.0,92.0
3881,41.0,96,96,0.0,102.0
3882,72.0,0,1536,0.0,92.0
3883,65.0,96,384,0.0,92.0
3884,48.0,96,96,0.0,102.0
3885,45.0,96,96,0.0,102.0
3886,65.0,96,96,0.0,92.0
3887,69.0,96,96,0.0,92.0
3888,53.0,96,384,0.0,102.0
3889,65.0,96,96,0.0,92.0
3890,72.0,96,96,0.0,92.0
3891,69.0,96,96,0.0,92.0
3892,52.0,0,192,0.0,102.0
3893,62.0,96,96,0.0,92.0
3894,65.0,96,96,0.0,92.0
3895,50.0,0,384,0.0,102.0
3896,62.0,96,96,0.0,92.0
3897,69.0,0,96,0.0,92.0
3898,48.0,96,192,0.0,102.0
3899,65.0,96,96,0.0,92.0
3900,55.0,96,96,0.0,92.0
3901,59.0,96,96,0.0,92.0
3902,55.0,96,96,0.0,92.0
3903,47.0,0,384,0.0,102.0
3904,74.0,96,384,0.0,92.0
3905,62.0,0,96,0.0,92.0
3906,72.0,96,192,0.0,92.0
3907,45.0,0,192,0.0,102.0
3908,59.0,96,96,0.0,92.0
3909,62.0,96,96,0.0,92.0
3910,59.0,96,96,0.0,92.0
3911,43.0,96,384,0.0,102.0
3912,62.0,96,96,0.0,92.0
3913,55.0,96,96,0.0,92.0
3914,41.0,0,192,0.0,102.0
3915,59.0,96,96,0.0,92.0
3916,62.0,96,96,0.0,92.0
3917,59.0,96,96,0.0,92.0
3918,55.0,96,96,0.0,92.0
3919,59.0,96,96,0.0,92.0
3920,40.0,0,384,0.0,102.0
3921,52.0,0,96,0.0,92.0
3922,71.0,0,1152,0.0,92.0
3923,38.0,96,192,0.0,102.0
3924,55.0,96,96,0.0,92.0
3925,60.0,0,96,0.0,92.0
3926,55.0,96,96,0.0,92.0
3927,77.0,96,2496,0.0,92.0
3928,76.0,0,96,0.0,92.0
3929,52.0,96,96,0.0,92.0
3930,55.0,0,96,0.0,92.0
3931,74.0,96,96,0.0,92.0
3932,48.0,0,96,0.0,92.0
3933,52.0,96,96,0.0,92.0
3934,67.0,0,1728,0.0,92.0
3935,72.0,96,576,0.0,92.0
3936,57.0,96,96,0.0,92.0
3937,53.0,96,96,0.0,92.0
3938,76.0,96,384,0.0,92.0
3939,74.0,0,96,0.0,92.0
3940,50.0,96,96,0.0,92.0
3941,53.0,0,96,0.0,92.0
3942,72.0,96,96,0.0,92.0
3943,69.0,0,384,0.0,92.0
3944,47.0,0,96,0.0,92.0
3945,65.0,0,576,0.0,92.0
3946,50.0,96,96,0.0,92.0
3947,55.0,0,96,0.0,92.0
3948,52.0,96,96,0.0,92.0
3949,74.0,0,384,0.0,92.0
3950,48.0,96,96,0.0,92.0
3951,72.0,0,96,0.0,92.0
3952,67.0,96,576,0.0,92.0
3953,71.0,96,96,0.0,92.0
3954,52.0,0,96,0.0,92.0
3955,45.0,0,96,0.0,92.0
3956,48.0,96,96,0.0,92.0
3957,64.0,96,576,0.0,92.0
3958,53.0,0,96,0.0,92.0
3959,72.0,96,384,0.0,92.0
3960,50.0,96,96,0.0,92.0
3961,71.0,96,96,0.0,92.0
3962,47.0,0,96,0.0,92.0
3963,69.0,96,96,0.0,92.0
3964,50.0,0,96,0.0,92.0
3965,65.0,0,576,0.0,92.0
3966,43.0,0,96,0.0,92.0
3967,53.0,96,96,0.0,92.0
3968,67.0,96,192,0.0,92.0
3969,71.0,0,192,0.0,92.0
3970,62.0,96,576,0.0,92.0
3971,72.0,0,96,0.0,92.0
3972,67.0,0,96,0.0,92.0
3973,67.0,96,96,0.0,92.0
3974,60.0,0,192,0.0,92.0
3975,52.0,96,192,0.0,92.0
3976,64.0,0,96,0.0,92.0
3977,67.0,96,96,0.0,92.0
3978,48.0,96,192,0.0,92.0
3979,60.0,0,96,0.0,92.0
3980,55.0,0,192,0.0,92.0
3981,64.0,96,96,0.0,92.0
3982,69.0,0,96,0.0,92.0
3983,65.0,96,96,0.0,92.0
3984,52.0,96,384,0.0,92.0
3985,50.0,96,96,0.0,92.0
3986,62.0,0,96,0.0,92.0
3987,48.0,96,96,0.0,92.0
3988,65.0,0,96,0.0,92.0
3989,59.0,96,96,0.0,92.0
3990,53.0,96,576,0.0,92.0
3991,62.0,96,96,0.0,92.0
3992,67.0,96,96,0.0,92.0
3993,64.0,96,96,0.0,92.0
3994,50.0,0,384,0.0,92.0
3995,48.0,96,96,0.0,92.0
3996,60.0,0,96,0.0,92.0
3997,47.0,96,96,0.0,92.0
3998,64.0,0,96,0.0,92.0
3999,57.0,0,96,0.0,92.0
4000,60.0,96,96,0.0,92.0
4001,52.0,0,576,0.0,92.0
4002,65.0,96,96,0.0,92.0
4003,48.0,96,384,0.0,92.0
4004,62.0,96,96,0.0,92.0
4005,47.0,96,96,0.0,92.0
4006,59.0,0,96,0.0,92.0
4007,62.0,96,96,0.0,92.0
4008,45.0,0,96,0.0,92.0
4009,55.0,96,96,0.0,92.0
4010,50.0,0,576,0.0,92.0
4011,65.0,96,96,0.0,92.0
4012,47.0,0,192,0.0,92.0
4013,64.0,96,96,0.0,92.0
4014,48.0,0,192,0.0,92.0
4015,60.0,96,96,0.0,92.0
4016,67.0,96,96,0.0,92.0
4017,52.0,0,96,0.0,92.0
4018,64.0,96,96,0.0,92.0
4019,48.0,0,96,0.0,92.0
4020,55.0,0,96,0.0,92.0
4021,60.0,96,0,0.0,92.0
4022,64.0,0,192,0.0,92.0
4023,67.0,0,192,0.0,92.0
4024,70.0,0,192,0.0,92.0
4025,52.0,96,96,0.0,92.0
4026,69.0,0,96,0.0,92.0
4027,65.0,96,96,0.0,92.0
4028,57.0,96,96,0.0,92.0
4029,72.0,0,96,0.0,92.0
4030,53.0,96,96,0.0,92.0
4031,69.0,0,96,0.0,92.0
4032,62.0,96,96,0.0,92.0
4033,77.0,0,192,0.0,92.0
4034,59.0,96,96,0.0,92.0
4035,67.0,96,0,0.0,92.0
4036,71.0,0,192,0.0,92.0
4037,74.0,0,192,0.0,92.0
4038,76.0,0,96,0.0,92.0
4039,72.0,96,96,0.0,92.0
4040,79.0,0,96,0.0,92.0
4041,64.0,96,96,0.0,92.0
4042,76.0,96,96,0.0,92.0
4043,60.0,0,96,0.0,92.0
4044,67.0,0,96,0.0,92.0
4045,76.0,0,192,0.0,92.0
4046,72.0,96,0,0.0,92.0
4047,64.0,96,96,0.0,92.0
4048,79.0,0,192,0.0,92.0
4049,82.0,96,192,0.0,92.0
4050,81.0,0,96,0.0,92.0
4051,84.0,96,96,0.0,92.0
4052,77.0,0,96,0.0,92.0
4053,69.0,96,96,0.0,92.0
4054,72.0,96,96,0.0,92.0
4055,81.0,0,96,0.0,92.0
4056,65.0,96,96,0.0,92.0
4057,74.0,0,96,0.0,92.0
4058,69.0,96,96,0.0,92.0
4059,77.0,0,96,0.0,92.0
4060,79.0,96,96,0.0,92.0
4061,82.0,96,96,0.0,92.0
4062,70.0,0,192,0.0,92.0
4063,76.0,96,96,0.0,92.0
4064,67.0,0,96,0.0,92.0
4065,79.0,96,96,0.0,92.0
4066,70.0,0,96,0.0,92.0
4067,64.0,0,96,0.0,92.0
4068,72.0,96,96,0.0,92.0
4069,76.0,0,96,0.0,92.0
4070,67.0,96,96,0.0,92.0
4071,77.0,96,96,0.0,92.0
4072,81.0,96,96,0.0,92.0
4073,69.0,0,192,0.0,92.0
4074,74.0,96,96,0.0,92.0
4075,65.0,0,96,0.0,92.0
4076,69.0,0,96,0.0,92.0
4077,77.0,96,96,0.0,92.0
4078,71.0,96,96,0.0,92.0
4079,62.0,0,96,0.0,92.0
4080,65.0,96,96,0.0,92.0
4081,74.0,0,96,0.0,92.0
4082,76.0,96,96,0.0,92.0
4083,79.0,96,96,0.0,92.0
4084,67.0,0,192,0.0,92.0
4085,72.0,96,96,0.0,92.0
4086,64.0,0,96,0.0,92.0
4087,67.0,96,96,0.0,92.0
4088,76.0,0,96,0.0,92.0
4089,69.0,96,96,0.0,92.0
4090,60.0,0,96,0.0,92.0
4091,64.0,96,96,0.0,92.0
4092,72.0,0,96,0.0,92.0
4093,65.0,0,96,0.0,92.0
4094,74.0,96,96,0.0,92.0
4095,77.0,96,96,0.0,92.0
4096,64.0,0,96,0.0,92.0
4097,62.0,0,96,0.0,92.0
4098,71.0,96,96,0.0,92.0
4099,60.0,96,96,0.0,92.0
4100,74.0,0,96,0.0,92.0
4101,67.0,96,96,0.0,92.0
4102,59.0,0,96,0.0,92.0
4103,71.0,0,96,0.0,92.0
4104,57.0,96,96,0.0,92.0
4105,64.0,96,96,0.0,92.0
4106,55.0,0,96,0.0,92.0
4107,53.0,0,96,0.0,92.0
4108,67.0,96,96,0.0,92.0
4109,52.0,96,96,0.0,92.0
4110,60.0,0,96,0.0,92.0
4111,64.0,96,96,0.0,92.0
4112,50.0,0,96,0.0,92.0
4113,57.0,0,96,0.0,92.0
4114,48.0,96,96,0.0,92.0
4115,47.0,0,96,0.0,92.0
4116,60.0,96,96,0.0,92.0
4117,53.0,96,96,0.0,92.0
4118,45.0,0,96,0.0,92.0
4119,43.0,0,96,0.0,92.0
4120,57.0,96,96,0.0,92.0
4121,41.0,0,96,0.0,92.0
4122,50.0,96,96,0.0,92.0
4123,40.0,0,96,0.0,92.0
4124,53.0,96,96,0.0,92.0
4125,38.0,96,96,0.0,92.0
4126,47.0,0,96,0.0,92.0
4127,47.0,0,96,0.0,92.0
4128,53.0,96,96,0.0,92.0
4129,48.0,0,96,0.0,92.0
4130,52.0,96,96,0.0,92.0
4131,48.0,96,96,0.0,92.0
4132,43.0,0,96,0.0,92.0
4133,55.0,0,96,0.0,92.0
4134,40.0,96,96,0.0,92.0
4135,52.0,0,0,0.0,92.0
4136,36.0,0,96,0.0,92.0
4137,43.0,0,96,0.0,92.0
4138,58.0,0,192,0.0,92.0
4139,55.0,96,192,0.0,92.0
4140,40.0,96,96,0.0,92.0
4141,48.0,0,0,0.0,92.0
4142,57.0,96,96,0.0,92.0
4143,53.0,96,96,0.0,92.0
4144,60.0,0,96,0.0,92.0
4145,45.0,96,96,0.0,92.0
4146,41.0,96,96,0.0,92.0
4147,57.0,0,96,0.0,92.0
4148,50.0,0,96,0.0,92.0
4149,47.0,96,96,0.0,92.0
4150,62.0,0,192,0.0,92.0
4151,65.0,0,192,0.0,92.0
4152,55.0,96,0,0.0,92.0
4153,59.0,96,192,0.0,92.0
4154,64.0,0,96,0.0,92.0
4155,60.0,96,96,0.0,92.0
4156,52.0,96,96,0.0,92.0
4157,67.0,0,96,0.0,92.0
4158,64.0,96,0,0.0,92.0
4159,48.0,96,96,0.0,92.0
4160,55.0,0,96,0.0,92.0
4161,70.0,0,192,0.0,92.0
4162,52.0,96,96,0.0,92.0
4163,67.0,0,192,0.0,92.0
4164,60.0,0,192,0.0,92.0
4165,69.0,96,96,0.0,92.0
4166,60.0,0,192,0.0,92.0
4167,65.0,96,96,0.0,92.0
4168,57.0,96,96,0.0,92.0
4169,72.0,0,96,0.0,92.0
4170,53.0,96,96,0.0,92.0
4171,69.0,0,96,0.0,92.0
4172,62.0,96,96,0.0,92.0
4173,71.0,0,192,0.0,92.0
4174,74.0,0,192,0.0,92.0
4175,77.0,0,192,0.0,92.0
4176,67.0,0,192,0.0,92.0
4177,59.0,96,96,0.0,92.0
4178,76.0,96,96,0.0,92.0
4179,67.0,0,192,0.0,92.0
4180,72.0,96,96,0.0,92.0
4181,64.0,0,96,0.0,92.0
4182,79.0,96,96,0.0,92.0
4183,60.0,96,96,0.0,92.0
4184,76.0,0,96,0.0,92.0
4185,67.0,0,96,0.0,92.0
4186,72.0,96,0,0.0,92.0
4187,76.0,0,192,0.0,92.0
4188,79.0,0,192,0.0,92.0
4189,64.0,96,96,0.0,92.0
4190,82.0,0,192,0.0,92.0
4191,84.0,0,192,0.0,92.0
4192,77.0,0,192,0.0,92.0
4193,48.0,0,384,0.0,102.0
4194,69.0,192,192,0.0,92.0
4195,82.0,0,192,0.0,92.0
4196,67.0,192,192,0.0,92.0
4197,76.0,0,192,0.0,92.0
4198,81.0,0,192,0.0,92.0
4199,69.0,0,192,0.0,92.0
4200,77.0,0,192,0.0,92.0
4201,36.0,192,384,0.0,102.0
4202,65.0,192,192,0.0,92.0
4203,79.0,192,192,0.0,92.0
4204,64.0,0,192,0.0,92.0
4205,70.0,0,192,0.0,92.0
4206,77.0,0,192,0.0,92.0
4207,69.0,0,192,0.0,92.0
4208,48.0,192,384,0.0,102.0
4209,65.0,192,192,0.0,92.0
4210,76.0,0,192,0.0,92.0
4211,67.0,192,192,0.0,92.0
4212,70.0,0,192,0.0,92.0
4213,74.0,0,192,0.0,92.0
4214,36.0,192,384,0.0,102.0
4215,52.0,0,192,0.0,92.0
4216,70.0,0,192,0.0,92.0
4217,48.0,192,192,0.0,92.0
4218,50.0,0,192,0.0,92.0
4219,53.0,0,192,0.0,92.0
4220,69.0,0,192,0.0,92.0
4221,72.0,192,192,0.0,92.0
4222,55.0,0,192,0.0,92.0
4223,48.0,192,384,0.0,102.0
4224,70.0,0,192,0.0,92.0
4225,67.0,0,192,0.0,92.0
4226,52.0,192,192,0.0,92.0
4227,69.0,0,192,0.0,92.0
4228,57.0,0,192,0.0,92.0
4229,53.0,0,192,0.0,92.0
4230,65.0,192,192,0.0,92.0
4231,36.0,192,384,0.0,102.0
4232,55.0,0,192,0.0,92.0
4233,60.0,0,1728,0.0,92.0
4234,64.0,0,192,0.0,92.0
4235,67.0,192,192,0.0,92.0
4236,58.0,0,192,0.0,92.0
4237,62.0,0,192,0.0,92.0
4238,65.0,0,192,0.0,92.0
4239,56.0,192,192,0.0,92.0
4240,59.0,0,192,0.0,92.0
4241,65.0,192,192,0.0,92.0
4242,48.0,0,192,0.0,92.0
4243,60.0,0,0,0.0,92.0
4244,55.0,0,0,0.0,92.0
4245,36.0,192,192,0.0,92.0
4246,64.0,0,192,0.0,92.0
4247,58.0,0,192,0.0,92.0
4248,53.0,96,0,0.0,92.0
4249,49.0,96,96,0.0,92.0
4250,49.0,96,96,0.0,92.0
4251,65.0,0,384,0.0,92.0
4252,47.0,0,384,0.0,102.0
4253,61.0,0,384,0.0,92.0
4254,56.0,96,0,0.0,92.0
4255,53.0,96,96,0.0,92.0
4256,66.0,96,96,0.0,92.0
4257,70.0,96,96,0.0,92.0
4258,66.0,96,96,0.0,92.0
4259,61.0,96,384,0.0,92.0
4260,46.0,0,384,0.0,102.0
4261,73.0,96,96,0.0,92.0
4262,51.0,96,96,0.0,92.0
4263,55.0,96,96,0.0,92.0
4264,70.0,96,480,0.0,92.0
4265,51.0,96,96,0.0,92.0
4266,75.0,0,384,0.0,92.0
4267,49.0,96,384,0.0,102.0
4268,79.0,0,384,0.0,92.0
4269,58.0,96,96,0.0,92.0
4270,55.0,96,96,0.0,92.0
4271,68.0,96,96,0.0,92.0
4272,72.0,96,96,0.0,92.0
4273,63.0,0,384,0.0,92.0
4274,48.0,96,384,0.0,102.0
4275,68.0,96,96,0.0,92.0
4276,75.0,96,96,0.0,92.0
4277,53.0,96,96,0.0,92.0
4278,57.0,96,96,0.0,92.0
4279,53.0,96,96,0.0,92.0
4280,72.0,96,480,0.0,92.0
4281,77.0,0,384,0.0,92.0
4282,81.0,0,384,0.0,92.0
4283,51.0,96,384,0.0,102.0
4284,60.0,96,96,0.0,92.0
4285,57.0,96,96,0.0,92.0
4286,70.0,96,96,0.0,92.0
4287,73.0,96,96,0.0,92.0
4288,65.0,0,384,0.0,92.0
4289,49.0,96,384,0.0,102.0
4290,70.0,96,96,0.0,92.0
4291,77.0,96,96,0.0,92.0
4292,73.0,96,96,0.0,92.0
4293,82.0,0,96,0.0,92.0
4294,80.0,96,96,0.0,92.0
4295,82.0,96,96,0.0,92.0
4296,77.0,96,96,0.0,92.0
4297,46.0,0,384,0.0,102.0
4298,58.0,0,384,0.0,92.0
4299,61.0,96,384,0.0,92.0
4300,66.0,0,384,0.0,92.0
4301,78.0,96,96,0.0,92.0
4302,73.0,96,96,0.0,92.0
4303,70.0,0,96,0.0,92.0
4304,68.0,96,96,0.0,92.0
4305,70.0,96,96,0.0,92.0
4306,65.0,96,96,0.0,92.0
4307,46.0,0,384,0.0,102.0
4308,66.0,96,0,0.0,92.0
4309,61.0,0,384,0.0,92.0
4310,58.0,96,384,0.0,92.0
4311,58.0,0,96,0.0,92.0
4312,56.0,96,96,0.0,92.0
4313,58.0,96,96,0.0,92.0
4314,46.0,0,384,0.0,102.0
4315,66.0,0,384,0.0,92.0
4316,73.0,0,384,0.0,92.0
4317,61.0,96,480,0.0,92.0
4318,53.0,96,96,0.0,92.0
4319,70.0,96,384,0.0,92.0
4320,54.0,96,96,0.0,92.0
4321,46.0,0,96,0.0,102.0
4322,44.0,96,96,0.0,102.0
4323,46.0,96,96,0.0,102.0
4324,73.0,0,384,0.0,92.0
4325,76.0,0,384,0.0,92.0
4326,55.0,0,384,0.0,92.0
4327,58.0,0,384,0.0,92.0
4328,49.0,96,480,0.0,92.0
4329,43.0,96,96,0.0,102.0
4330,70.0,0,384,0.0,92.0
4331,67.0,96,384,0.0,92.0
4332,49.0,96,96,0.0,102.0
4333,46.0,96,96,0.0,102.0
4334,52.0,0,96,0.0,102.0
4335,50.0,96,96,0.0,102.0
4336,52.0,96,96,0.0,102.0
4337,48.0,96,96,0.0,102.0
4338,79.0,0,384,0.0,92.0
4339,72.0,0,384,0.0,92.0
4340,70.0,0,384,0.0,92.0
4341,67.0,96,384,0.0,92.0
4342,55.0,96,0,0.0,102.0
4343,60.0,0,384,0.0,92.0
4344,52.0,96,96,0.0,102.0
4345,58.0,0,96,0.0,102.0
4346,56.0,96,96,0.0,102.0
4347,58.0,96,96,0.0,102.0
4348,48.0,0,384,0.0,92.0
4349,55.0,0,384,0.0,92.0
4350,60.0,0,384,0.0,92.0
4351,67.0,0,384,0.0,92.0
4352,72.0,0,384,0.0,92.0
4353,76.0,96,384,0.0,92.0
4354,53.0,96,96,0.0,102.0
4355,55.0,96,96,0.0,102.0
4356,50.0,96,96,0.0,102.0
4357,52.0,0,96,0.0,102.0
4358,50.0,96,96,0.0,102.0
4359,52.0,96,96,0.0,102.0
4360,64.0,0,384,0.0,92.0
4361,67.0,0,384,0.0,92.0
4362,72.0,96,384,0.0,92.0
4363,60.0,0,384,0.0,92.0
4364,55.0,0,384,0.0,92.0
4365,48.0,96,96,0.0,102.0
4366,55.0,96,96,0.0,102.0
4367,46.0,96,96,0.0,102.0
4368,45.0,96,192,0.0,102.0
4369,77.0,0,192,0.0,92.0
4370,72.0,0,0,0.0,92.0
4371,69.0,0,192,0.0,92.0
4372,60.0,0,192,0.0,92.0
4373,57.0,0,192,0.0,92.0
4374,53.0,0,192,0.0,92.0
4375,46.0,192,192,0.0,102.0
4376,55.0,0,192,0.0,92.0
4377,48.0,192,0,0.0,92.0
4378,67.0,0,192,0.0,92.0
4379,70.0,0,192,0.0,92.0
4380,60.0,0,192,0.0,92.0
4381,76.0,0,192,0.0,92.0
4382,60.0,0,384,0.0,92.0
4383,41.0,0,384,0.0,102.0
4384,53.0,0,384,0.0,92.0
4385,57.0,0,384,0.0,92.0
4386,77.0,0,384,0.0,92.0
4387,72.0,0,384,0.0,92.0
4388,69.0,0,384,0.0,92.0
4389,65.0,0,384,0.0,92.0
4390,53.0,2112,1536,0.0,92.0
4391,52.0,1536,768,0.0,92.0
4392,51.0,768,768,0.0,92.0
4393,50.0,768,768,0.0,92.0
4394,58.0,768,1536,0.0,92.0
4395,57.0,1536,768,0.0,92.0
4396,55.0,768,1536,0.0,92.0
4397,53.0,0,384,0.0,92.0
4398,55.0,384,384,0.0,92.0
4399,60.0,1536,1536,0.0,92.0
4400,57.0,384,1152,0.0,92.0
4401,50.0,384,192,0.0,92.0
4402,59.0,768,768,0.0,92.0
4403,48.0,192,192,0.0,92.0
4404,50.0,0,384,0.0,92.0
4405,58.0,192,768,0.0,92.0
4406,52.0,384,384,0.0,92.0
4407,53.0,384,384,0.0,92.0
4408,55.0,384,384,0.0,92.0
4409,57.0,384,0,0.0,92.0
4410,59.0,384,384,0.0,92.0
4411,60.0,384,384,0.0,92.0
4412,55.0,384,384,0.0,92.0
4413,65.0,0,1536,0.0,92.0
4414,64.0,0,768,0.0,92.0
4415,60.0,384,1536,0.0,92.0
4416,62.0,768,1536,0.0,92.0
4417,58.0,768,1152,0.0,92.0
4418,57.0,384,192,0.0,92.0
4419,55.0,192,192,0.0,92.0
4420,57.0,192,384,0.0,92.0
4421,53.0,384,384,0.0,92.0
4422,60.0,768,1920,0.0,92.0
4423,50.0,384,384,0.0,92.0
4424,59.0,384,192,0.0,92.0
4425,60.0,192,192,0.0,92.0
4426,43.0,0,768,0.0,92.0
4427,45.0,384,192,0.0,92.0
4428,47.0,192,192,0.0,92.0
4429,65.0,0,1536,0.0,92.0
4430,62.0,192,1152,0.0,92.0
4431,55.0,384,192,0.0,92.0
4432,53.0,192,192,0.0,92.0
4433,64.0,192,768,0.0,92.0
4434,48.0,0,1152,0.0,92.0
4435,55.0,192,384,0.0,92.0
4436,57.0,384,384,0.0,92.0
4437,63.0,0,768,0.0,92.0
4438,48.0,0,384,0.0,92.0
4439,58.0,384,384,0.0,92.0
4440,62.0,0,768,0.0,92.0
4441,60.0,384,384,0.0,92.0
4442,62.0,0,384,0.0,92.0
4443,55.0,0,1152,0.0,92.0
4444,53.0,384,192,0.0,92.0
4445,52.0,192,192,0.0,92.0
4446,64.0,0,384,0.0,92.0
4447,65.0,0,384,0.0,92.0
4448,50.0,192,384,0.0,92.0
4449,52.0,384,384,0.0,92.0
4450,70.0,384,1536,0.0,92.0
4451,60.0,0,384,0.0,92.0
4452,53.0,384,384,0.0,92.0
4453,69.0,0,768,0.0,92.0
4454,45.0,384,384,0.0,92.0
4455,46.0,0,384,0.0,92.0
4456,43.0,384,384,0.0,92.0
4457,65.0,0,1536,0.0,92.0
4458,48.0,384,384,0.0,92.0
4459,67.0,384,1536,0.0,92.0
4460,46.0,384,384,0.0,92.0
4461,45.0,0,384,0.0,92.0
4462,57.0,384,384,0.0,92.0
4463,64.0,0,1536,0.0,92.0
4464,59.0,0,384,0.0,92.0
4465,65.0,384,1536,0.0,92.0
4466,55.0,384,384,0.0,92.0
4467,64.0,0,384,0.0,92.0
4468,60.0,384,384,0.0,92.0
4469,65.0,384,192,0.0,92.0
4470,55.0,0,384,0.0,92.0
4471,67.0,192,192,0.0,92.0
4472,62.0,384,1536,0.0,92.0
4473,60.0,0,384,0.0,92.0
4474,52.0,192,384,0.0,92.0
4475,62.0,384,192,0.0,92.0
4476,64.0,192,192,0.0,92.0
4477,48.0,0,384,0.0,92.0
4478,69.0,0,1152,0.0,92.0
4479,50.0,0,384,0.0,92.0
4480,55.0,0,192,0.0,92.0
4481,62.0,384,192,0.0,92.0
4482,65.0,192,768,0.0,92.0
4483,57.0,192,192,0.0,92.0
4484,47.0,0,768,0.0,102.0
4485,60.0,0,192,0.0,92.0
4486,58.0,192,384,0.0,92.0
4487,62.0,0,384,0.0,92.0
4488,67.0,0,768,0.0,92.0
4489,64.0,384,384,0.0,92.0
4490,46.0,0,768,0.0,102.0
4491,60.0,384,384,0.0,92.0
4492,65.0,0,384,0.0,92.0
4493,58.0,384,384,0.0,92.0
4494,67.0,0,384,0.0,92.0
4495,45.0,0,768,0.0,102.0
4496,69.0,0,384,0.0,92.0
4497,60.0,0,384,0.0,92.0
4498,71.0,0,384,0.0,92.0
4499,62.0,384,384,0.0,92.0
4500,55.0,384,384,0.0,92.0
4501,72.0,0,384,0.0,92.0
4502,67.0,0,384,0.0,92.0
4503,53.0,384,1536,0.0,102.0
4504,65.0,192,192,0.0,92.0
4505,67.0,0,384,0.0,92.0
4506,60.0,384,768,0.0,92.0
4507,52.0,0,768,0.0,102.0
4508,55.0,0,384,0.0,92.0
4509,64.0,384,384,0.0,92.0
4510,57.0,0,384,0.0,92.0
4511,62.0,384,192,0.0,92.0
4512,60.0,192,192,0.0,92.0
4513,72.0,192,1536,0.0,92.0
4514,62.0,192,384,0.0,92.0
4515,71.0,0,768,0.0,92.0
4516,50.0,384,384,0.0,92.0
4517,55.0,0,384,0.0,92.0
4518,65.0,0,1920,0.0,92.0
4519,57.0,0,192,0.0,92.0
4520,64.0,384,192,0.0,92.0
4521,59.0,0,192,0.0,92.0
4522,62.0,192,192,0.0,92.0
4523,72.0,0,1152,0.0,92.0
4524,60.0,192,384,0.0,92.0
4525,64.0,0,384,0.0,92.0
4526,70.0,0,384,0.0,92.0
4527,52.0,0,384,0.0,92.0
4528,55.0,384,384,0.0,92.0
4529,54.0,384,384,0.0,92.0
4530,69.0,0,384,0.0,92.0
4531,55.0,384,192,0.0,92.0
4532,74.0,0,192,0.0,92.0
4533,62.0,0,768,0.0,92.0
4534,48.0,384,2304,0.0,102.0
4535,57.0,0,192,0.0,92.0
4536,72.0,192,192,0.0,92.0
4537,58.0,0,192,0.0,92.0
4538,57.0,192,192,0.0,92.0
4539,74.0,0,384,0.0,92.0
4540,58.0,0,192,0.0,92.0
4541,62.0,192,384,0.0,92.0
4542,67.0,192,0,0.0,92.0
4543,55.0,192,192,0.0,92.0
4544,52.0,0,384,0.0,92.0
4545,69.0,384,192,0.0,92.0
4546,53.0,0,192,0.0,92.0
4547,55.0,192,192,0.0,92.0
4548,70.0,0,192,0.0,92.0
4549,60.0,0,768,0.0,92.0
4550,46.0,192,1536,0.0,102.0
4551,57.0,0,192,0.0,92.0
4552,55.0,192,192,0.0,92.0
4553,57.0,0,192,0.0,92.0
4554,65.0,192,384,0.0,92.0
4555,72.0,192,768,0.0,92.0
4556,53.0,192,192,0.0,92.0
4557,45.0,0,1152,0.0,102.0
4558,65.0,192,384,0.0,92.0
4559,43.0,384,192,0.0,102.0
4560,67.0,0,192,0.0,92.0
4561,41.0,0,192,0.0,102.0
4562,69.0,192,192,0.0,92.0
4563,58.0,0,1152,0.0,92.0
4564,62.0,0,1152,0.0,92.0
4565,70.0,0,384,0.0,92.0
4566,43.0,192,384,0.0,102.0
4567,72.0,0,384,0.0,92.0
4568,45.0,0,384,0.0,102.0
4569,57.0,384,768,0.0,92.0
4570,46.0,0,384,0.0,102.0
4571,74.0,384,384,0.0,92.0
4572,60.0,0,768,0.0,92.0
4573,48.0,384,384,0.0,102.0
4574,76.0,0,384,0.0,92.0
4575,58.0,0,384,0.0,92.0
4576,55.0,0,384,0.0,92.0
4577,50.0,0,384,0.0,102.0
4578,57.0,384,384,0.0,92.0
4579,53.0,0,384,0.0,92.0
4580,77.0,0,384,0.0,92.0
4581,76.0,0,192,0.0,92.0
4582,74.0,192,192,0.0,92.0
4583,52.0,384,384,0.0,102.0
4584,55.0,0,384,0.0,92.0
4585,53.0,192,384,0.0,102.0
4586,57.0,0,384,0.0,92.0
4587,58.0,384,192,0.0,92.0
4588,60.0,192,192,0.0,92.0
4589,48.0,0,384,0.0,102.0
4590,72.0,0,1152,0.0,92.0
4591,70.0,384,192,0.0,92.0
4592,69.0,192,192,0.0,92.0
4593,62.0,192,1152,0.0,92.0
4594,60.0,384,192,0.0,92.0
4595,53.0,0,1536,0.0,102.0
4596,58.0,192,192,0.0,92.0
4597,70.0,192,1152,0.0,92.0
4598,69.0,384,192,0.0,92.0
4599,67.0,192,192,0.0,92.0
4600,60.0,192,1152,0.0,92.0
4601,53.0,384,192,0.0,92.0
4602,52.0,192,192,0.0,92.0
4603,69.0,192,768,0.0,92.0
4604,53.0,0,384,0.0,92.0
4605,65.0,0,1536,0.0,92.0
4606,55.0,384,384,0.0,92.0
4607,50.0,0,768,0.0,102.0
4608,71.0,192,768,0.0,92.0
4609,57.0,0,384,0.0,92.0
4610,72.0,384,384,0.0,92.0
4611,67.0,384,192,0.0,92.0
4612,48.0,0,768,0.0,102.0
4613,65.0,192,192,0.0,92.0
4614,64.0,0,768,0.0,92.0
4615,59.0,0,384,0.0,92.0
4616,67.0,192,384,0.0,92.0
4617,69.0,384,384,0.0,92.0
4618,63.0,0,768,0.0,92.0
4619,60.0,0,768,0.0,92.0
4620,36.0,0,384,0.0,102.0
4621,58.0,0,192,0.0,92.0
4622,60.0,192,192,0.0,92.0
4623,70.0,384,384,0.0,92.0
4624,58.0,0,192,0.0,92.0
4625,57.0,192,192,0.0,92.0
4626,62.0,0,768,0.0,92.0
4627,43.0,0,768,0.0,102.0
4628,72.0,192,384,0.0,92.0
4629,55.0,192,192,0.0,92.0
4630,74.0,0,384,0.0,92.0
4631,53.0,192,192,0.0,92.0
4632,55.0,192,192,0.0,92.0
4633,43.0,0,384,0.0,102.0
4634,76.0,0,384,0.0,92.0
4635,57.0,192,192,0.0,92.0
4636,53.0,0,192,0.0,92.0
4637,55.0,192,192,0.0,92.0
4638,77.0,192,384,0.0,92.0
4639,50.0,0,384,0.0,102.0
4640,57.0,192,192,0.0,92.0
4641,45.0,0,192,0.0,102.0
4642,43.0,192,192,0.0,102.0
4643,72.0,0,384,0.0,92.0
4644,70.0,0,1536,0.0,92.0
4645,58.0,0,192,0.0,92.0
4646,45.0,192,384,0.0,102.0
4647,69.0,0,768,0.0,92.0
4648,46.0,384,384,0.0,102.0
4649,60.0,0,960,0.0,92.0
4650,59.0,192,192,0.0,92.0
4651,48.0,0,384,0.0,102.0
4652,60.0,0,192,0.0,92.0
4653,50.0,192,384,0.0,102.0
4654,77.0,0,1536,0.0,92.0
4655,59.0,192,192,0.0,92.0
4656,52.0,192,384,0.0,102.0
4657,76.0,0,768,0.0,92.0
4658,53.0,384,384,0.0,102.0
4659,55.0,0,384,0.0,102.0
4660,60.0,0,1152,0.0,92.0
4661,58.0,0,192,0.0,92.0
4662,60.0,192,192,0.0,92.0
4663,57.0,384,384,0.0,102.0
4664,67.0,384,2688,0.0,92.0
4665,62.0,0,768,0.0,92.0
4666,65.0,384,384,0.0,92.0
4667,74.0,384,1536,0.0,92.0
4668,67.0,0,384,0.0,92.0
4669,64.0,384,384,0.0,92.0
4670,65.0,384,192,0.0,92.0
4671,72.0,0,192,0.0,92.0
4672,58.0,192,1536,0.0,102.0
4673,70.0,0,192,0.0,92.0
4674,67.0,192,192,0.0,92.0
4675,60.0,384,0,0.0,92.0
4676,72.0,0,384,0.0,92.0
4677,74.0,0,384,0.0,92.0
4678,65.0,0,768,0.0,92.0
4679,59.0,192,192,0.0,92.0
4680,64.0,192,384,0.0,92.0
4681,76.0,0,384,0.0,92.0
4682,60.0,0,384,0.0,92.0
4683,57.0,192,1152,0.0,102.0
4684,70.0,384,192,0.0,92.0
4685,55.0,0,192,0.0,102.0
4686,72.0,0,192,0.0,92.0
4687,77.0,0,384,0.0,92.0
4688,57.0,192,192,0.0,102.0
4689,62.0,0,384,0.0,92.0
4690,70.0,192,384,0.0,92.0
4691,79.0,0,384,0.0,92.0
4692,64.0,0,384,0.0,92.0
4693,55.0,0,384,0.0,102.0
4694,81.0,0,384,0.0,92.0
4695,69.0,0,384,0.0,92.0
4696,65.0,384,384,0.0,92.0
4697,53.0,0,384,0.0,102.0
4698,67.0,0,384,0.0,92.0
4699,52.0,0,384,0.0,102.0
4700,65.0,0,384,0.0,92.0
4701,50.0,384,384,0.0,102.0
4702,64.0,384,384,0.0,92.0
4703,48.0,0,384,0.0,102.0
4704,65.0,384,192,0.0,92.0
4705,67.0,192,192,0.0,92.0
4706,46.0,0,384,0.0,102.0
4707,45.0,0,384,0.0,102.0
4708,60.0,0,384,0.0,92.0
4709,62.0,0,192,0.0,92.0
4710,43.0,384,384,0.0,102.0
4711,82.0,384,2304,0.0,92.0
4712,64.0,192,192,0.0,92.0
4713,41.0,192,384,0.0,102.0
4714,40.0,384,384,0.0,102.0
4715,65.0,0,1152,0.0,92.0
4716,62.0,384,192,0.0,92.0
4717,81.0,0,1536,0.0,92.0
4718,61.0,192,192,0.0,92.0
4719,59.0,384,768,0.0,92.0
4720,62.0,0,384,0.0,92.0
4721,58.0,0,768,0.0,92.0
4722,64.0,384,384,0.0,92.0
4723,79.0,192,1152,0.0,92.0
4724,65.0,384,384,0.0,92.0
4725,77.0,384,192,0.0,92.0
4726,38.0,0,2304,0.0,102.0
4727,57.0,0,768,0.0,92.0
4728,67.0,0,384,0.0,92.0
4729,76.0,192,192,0.0,92.0
4730,69.0,192,384,0.0,92.0
4731,77.0,0,384,0.0,92.0
4732,79.0,384,384,0.0,92.0
4733,71.0,0,384,0.0,92.0
4734,72.0,384,384,0.0,92.0
4735,81.0,0,384,0.0,92.0
4736,52.0,0,192,0.0,102.0
4737,65.0,0,1536,0.0,92.0
4738,83.0,384,384,0.0,92.0
4739,67.0,0,384,0.0,92.0
4740,50.0,192,192,0.0,102.0
4741,84.0,0,384,0.0,92.0
4742,52.0,0,384,0.0,102.0
4743,83.0,0,192,0.0,92.0
4744,64.0,192,768,0.0,92.0
4745,81.0,192,192,0.0,92.0
4746,53.0,384,384,0.0,102.0
4747,79.0,0,192,0.0,92.0
4748,77.0,192,192,0.0,92.0
4749,55.0,0,384,0.0,102.0
4750,76.0,0,192,0.0,92.0
4751,53.0,192,384,0.0,102.0
4752,72.0,0,1536,0.0,92.0
4753,77.0,192,192,0.0,92.0
4754,79.0,192,192,0.0,92.0
4755,77.0,192,96,0.0,92.0
4756,79.0,96,96,0.0,92.0
4757,55.0,0,384,0.0,102.0
4758,77.0,0,96,0.0,92.0
4759,79.0,96,96,0.0,92.0
4760,77.0,96,96,0.0,92.0
4761,62.0,192,1536,0.0,92.0
4762,43.0,96,384,0.0,102.0
4763,71.0,0,768,0.0,92.0
4764,79.0,96,96,0.0,92.0
4765,77.0,0,96,0.0,92.0
4766,79.0,96,96,0.0,92.0
4767,77.0,96,96,0.0,92.0
4768,72.0,0,384,0.0,92.0
4769,79.0,96,96,0.0,92.0
4770,77.0,96,192,0.0,92.0
4771,67.0,0,192,0.0,92.0
4772,76.0,192,96,0.0,92.0
4773,69.0,0,192,0.0,92.0
4774,77.0,96,96,0.0,92.0
4775,48.0,96,768,0.0,102.0
4776,76.0,96,384,0.0,92.0
4777,67.0,0,384,0.0,92.0
4778,60.0,0,1152,0.0,92.0
4779,48.0,384,192,0.0,92.0
4780,74.0,0,384,0.0,92.0
4781,65.0,0,384,0.0,92.0
4782,47.0,192,192,0.0,92.0
4783,64.0,192,384,0.0,92.0
4784,72.0,0,384,0.0,92.0
4785,48.0,0,384,0.0,92.0
4786,62.0,0,384,0.0,92.0
4787,50.0,0,384,0.0,92.0
4788,70.0,384,768,0.0,92.0
4789,52.0,0,384,0.0,92.0
4790,69.0,0,192,0.0,92.0
4791,53.0,384,384,0.0,92.0
4792,67.0,192,192,0.0,92.0
4793,60.0,384,1152,0.0,92.0
4794,69.0,0,384,0.0,92.0
4795,51.0,192,384,0.0,92.0
4796,50.0,0,384,0.0,92.0
4797,58.0,0,384,0.0,92.0
4798,70.0,384,384,0.0,92.0
4799,72.0,0,384,0.0,92.0
4800,48.0,384,384,0.0,92.0
4801,57.0,0,384,0.0,92.0
4802,74.0,0,384,0.0,92.0
4803,55.0,384,384,0.0,92.0
4804,46.0,0,384,0.0,92.0
4805,53.0,384,384,0.0,92.0
4806,45.0,0,384,0.0,92.0
4807,46.0,384,192,0.0,92.0
4808,45.0,192,192,0.0,92.0
4809,75.0,0,768,0.0,92.0
4810,72.0,0,768,0.0,92.0
4811,46.0,0,384,0.0,92.0
4812,70.0,0,192,0.0,92.0
4813,69.0,192,192,0.0,92.0
4814,48.0,384,384,0.0,92.0
4815,50.0,192,384,0.0,92.0
4816,74.0,192,1152,0.0,92.0
4817,79.0,0,384,0.0,92.0
4818,52.0,384,384,0.0,92.0
4819,70.0,0,1152,0.0,92.0
4820,53.0,0,384,0.0,92.0
4821,69.0,0,192,0.0,92.0
4822,67.0,192,192,0.0,92.0
4823,55.0,384,384,0.0,92.0
4824,57.0,0,384,0.0,92.0
4825,58.0,384,192,0.0,92.0
4826,60.0,192,192,0.0,92.0
4827,72.0,384,1920,0.0,92.0
4828,70.0,384,192,0.0,92.0
4829,53.0,192,1536,0.0,102.0
4830,65.0,0,1536,0.0,92.0
4831,69.0,192,192,0.0,92.0
4832,67.0,0,384,0.0,92.0
4833,62.0,192,1152,0.0,92.0
4834,55.0,0,192,0.0,92.0
4835,53.0,192,192,0.0,92.0
4836,52.0,192,768,0.0,102.0
4837,55.0,192,384,0.0,92.0
4838,72.0,384,768,0.0,92.0
4839,51.0,0,768,0.0,102.0
4840,57.0,0,384,0.0,92.0
4841,58.0,0,384,0.0,92.0
4842,77.0,384,768,0.0,92.0
4843,65.0,0,192,0.0,92.0
4844,60.0,384,384,0.0,92.0
4845,63.0,192,192,0.0,92.0
4846,75.0,0,384,0.0,92.0
4847,50.0,384,768,0.0,102.0
4848,62.0,192,384,0.0,92.0
4849,65.0,0,384,0.0,92.0
4850,64.0,384,384,0.0,92.0
4851,67.0,0,384,0.0,92.0
4852,74.0,0,768,0.0,92.0
4853,65.0,384,384,0.0,92.0
4854,69.0,0,384,0.0,92.0
4855,58.0,0,1536,0.0,102.0
4856,60.0,0,384,0.0,92.0
4857,70.0,384,384,0.0,92.0
4858,72.0,0,0,0.0,92.0
4859,70.0,384,192,0.0,92.0
4860,57.0,384,768,0.0,102.0
4861,69.0,192,192,0.0,92.0
4862,70.0,0,384,0.0,92.0
4863,72.0,384,384,0.0,92.0
4864,65.0,0,1536,0.0,92.0
4865,74.0,384,384,0.0,92.0
4866,55.0,192,1536,0.0,102.0
4867,75.0,384,384,0.0,92.0
4868,69.0,0,384,0.0,92.0
4869,67.0,384,192,0.0,92.0
4870,63.0,0,1536,0.0,92.0
4871,65.0,192,192,0.0,92.0
4872,62.0,0,384,0.0,92.0
4873,60.0,384,192,0.0,92.0
4874,58.0,192,192,0.0,92.0
4875,70.0,192,1152,0.0,92.0
4876,60.0,192,384,0.0,92.0
4877,53.0,0,192,0.0,92.0
4878,69.0,384,192,0.0,92.0
4879,52.0,192,192,0.0,92.0
4880,67.0,0,192,0.0,92.0
4881,69.0,0,384,0.0,92.0
4882,53.0,0,384,0.0,92.0
4883,55.0,0,384,0.0,92.0
4884,70.0,384,384,0.0,92.0
4885,57.0,0,384,0.0,92.0
4886,72.0,384,384,0.0,92.0
4887,51.0,192,1536,0.0,102.0
4888,58.0,384,384,0.0,92.0
4889,65.0,0,768,0.0,92.0
4890,60.0,0,384,0.0,92.0
4891,62.0,0,384,0.0,92.0
4892,77.0,0,1536,0.0,92.0
4893,55.0,0,384,0.0,92.0
4894,50.0,384,1152,0.0,102.0
4895,70.0,384,768,0.0,92.0
4896,43.0,0,192,0.0,102.0
4897,58.0,384,192,0.0,92.0
4898,41.0,192,192,0.0,102.0
4899,57.0,0,192,0.0,92.0
4900,76.0,384,768,0.0,92.0
4901,74.0,0,768,0.0,92.0
4902,58.0,192,384,0.0,92.0
4903,43.0,0,384,0.0,102.0
4904,60.0,0,384,0.0,92.0
4905,75.0,0,768,0.0,92.0
4906,45.0,0,384,0.0,102.0
4907,46.0,0,384,0.0,102.0
4908,72.0,384,768,0.0,92.0
4909,62.0,384,384,0.0,92.0
4910,70.0,0,192,0.0,92.0
4911,74.0,0,768,0.0,92.0
4912,64.0,0,384,0.0,92.0
4913,69.0,192,192,0.0,92.0
4914,48.0,384,384,0.0,102.0
4915,50.0,0,384,0.0,102.0
4916,65.0,192,384,0.0,92.0
4917,70.0,0,384,0.0,92.0
4918,72.0,384,384,0.0,92.0
4919,52.0,0,384,0.0,102.0
4920,67.0,0,384,0.0,92.0
4921,53.0,0,384,0.0,102.0
4922,74.0,384,384,0.0,92.0
4923,65.0,0,384,0.0,92.0
4924,64.0,0,192,0.0,92.0
4925,48.0,384,384,0.0,102.0
4926,82.0,0,1536,0.0,92.0
4927,76.0,0,384,0.0,92.0
4928,62.0,192,192,0.0,92.0
4929,77.0,192,192,0.0,92.0
4930,60.0,0,384,0.0,92.0
4931,76.0,192,192,0.0,92.0
4932,74.0,0,192,0.0,92.0
4933,65.0,192,384,0.0,92.0
4934,81.0,0,768,0.0,92.0
4935,72.0,192,192,0.0,92.0
4936,71.0,0,192,0.0,92.0
4937,69.0,192,192,0.0,92.0
4938,71.0,192,192,0.0,92.0
4939,62.0,192,768,0.0,92.0
4940,73.0,192,192,0.0,92.0
4941,53.0,0,1536,0.0,102.0
4942,74.0,0,192,0.0,92.0
4943,73.0,192,192,0.0,92.0
4944,71.0,192,192,0.0,92.0
4945,73.0,192,192,0.0,92.0
4946,64.0,192,768,0.0,92.0
4947,52.0,0,768,0.0,102.0
4948,57.0,0,384,0.0,92.0
4949,74.0,192,384,0.0,92.0
4950,79.0,0,1920,0.0,92.0
4951,62.0,384,192,0.0,92.0
4952,77.0,0,192,0.0,92.0
4953,65.0,0,384,0.0,92.0
4954,63.0,192,192,0.0,92.0
4955,79.0,0,192,0.0,92.0
4956,67.0,192,384,0.0,92.0
4957,62.0,0,384,0.0,92.0
4958,77.0,0,384,0.0,92.0
4959,69.0,0,384,0.0,92.0
4960,60.0,384,384,0.0,92.0
4961,75.0,0,384,0.0,92.0
4962,70.0,0,384,0.0,92.0
4963,74.0,0,384,0.0,92.0
4964,58.0,384,384,0.0,92.0
4965,50.0,0,1920,0.0,102.0
4966,55.0,0,192,0.0,102.0
4967,57.0,192,192,0.0,102.0
4968,72.0,384,384,0.0,92.0
4969,66.0,0,384,0.0,92.0
4970,55.0,0,384,0.0,102.0
4971,58.0,192,384,0.0,92.0
4972,53.0,384,384,0.0,102.0
4973,62.0,0,384,0.0,92.0
4974,52.0,384,384,0.0,102.0
4975,67.0,0,1152,0.0,92.0
4976,50.0,384,384,0.0,102.0
4977,65.0,0,384,0.0,92.0
4978,48.0,384,384,0.0,102.0
4979,70.0,0,1920,0.0,92.0
4980,72.0,0,192,0.0,92.0
4981,74.0,192,192,0.0,92.0
4982,46.0,384,384,0.0,102.0
4983,72.0,192,384,0.0,92.0
4984,55.0,0,1920,0.0,92.0
4985,60.0,384,192,0.0,92.0
4986,64.0,0,1536,0.0,92.0
4987,62.0,192,192,0.0,92.0
4988,70.0,0,384,0.0,92.0
4989,69.0,192,384,0.0,92.0
4990,65.0,0,384,0.0,92.0
4991,60.0,0,384,0.0,92.0
4992,64.0,0,192,0.0,92.0
4993,62.0,192,192,0.0,92.0
4994,67.0,384,384,0.0,92.0
4995,58.0,0,384,0.0,92.0
4996,57.0,0,384,0.0,92.0
4997,65.0,0,384,0.0,92.0
4998,55.0,384,384,0.0,92.0
4999,63.0,0,384,0.0,92.0
5000,60.0,192,768,0.0,92.0
5001,62.0,0,192,0.0,92.0
5002,64.0,192,192,0.0,92.0
5003,45.0,0,2688,0.0,102.0
5004,62.0,192,192,0.0,92.0
5005,46.0,0,192,0.0,102.0
5006,48.0,0,192,0.0,102.0
5007,64.0,192,0,0.0,92.0
5008,53.0,384,768,0.0,92.0
5009,65.0,48,48,0.0,92.0
5010,46.0,0,384,0.0,102.0
5011,64.0,48,480,0.0,92.0
5012,62.0,192,96,0.0,92.0
5013,58.0,0,1536,0.0,92.0
5014,64.0,96,96,0.0,92.0
5015,55.0,0,768,0.0,92.0
5016,45.0,288,384,0.0,102.0
5017,65.0,0,48,0.0,92.0
5018,67.0,48,48,0.0,92.0
5019,43.0,0,384,0.0,102.0
5020,65.0,48,480,0.0,92.0
5021,64.0,192,96,0.0,92.0
5022,41.0,288,384,0.0,102.0
5023,65.0,96,96,0.0,92.0
5024,57.0,0,768,0.0,92.0
5025,67.0,96,48,0.0,92.0
5026,69.0,48,48,0.0,92.0
5027,55.0,0,384,0.0,92.0
5028,40.0,0,384,0.0,102.0
5029,53.0,288,192,0.0,92.0
5030,67.0,48,480,0.0,92.0
5031,65.0,0,96,0.0,92.0
5032,67.0,96,96,0.0,92.0
5033,36.0,0,384,0.0,102.0
5034,52.0,192,192,0.0,92.0
5035,60.0,96,1536,0.0,92.0
5036,69.0,96,384,0.0,92.0
5037,53.0,0,384,0.0,92.0
5038,71.0,0,384,0.0,92.0
5039,55.0,384,384,0.0,92.0
5040,57.0,384,384,0.0,92.0
5041,72.0,0,384,0.0,92.0
5042,41.0,0,1152,0.0,102.0
5043,77.0,0,384,0.0,92.0
5044,38.0,384,384,0.0,102.0
5045,59.0,0,384,0.0,92.0
5046,45.0,0,384,0.0,102.0
5047,76.0,384,384,0.0,92.0
5048,81.0,0,192,0.0,92.0
5049,41.0,384,384,0.0,102.0
5050,79.0,192,192,0.0,92.0
5051,77.0,0,192,0.0,92.0
5052,76.0,192,192,0.0,92.0
5053,74.0,0,192,0.0,92.0
5054,67.0,192,192,0.0,92.0
5055,72.0,0,192,0.0,92.0
5056,69.0,192,192,0.0,92.0
5057,60.0,0,1536,0.0,92.0
5058,76.0,0,384,0.0,92.0
5059,67.0,192,384,0.0,92.0
5060,74.0,0,48,0.0,92.0
5061,76.0,48,48,0.0,92.0
5062,74.0,48,288,0.0,92.0
5063,65.0,384,384,0.0,92.0
5064,43.0,192,1536,0.0,102.0
5065,59.0,0,768,0.0,92.0
5066,64.0,0,384,0.0,92.0
5067,60.0,0,768,0.0,92.0
5068,36.0,288,768,0.0,102.0
5069,62.0,384,384,0.0,92.0
5070,72.0,0,1152,0.0,92.0
5071,76.0,384,192,0.0,92.0
5072,72.0,192,192,0.0,92.0
5073,79.0,192,384,0.0,92.0
5074,60.0,384,1152,0.0,92.0
5075,74.0,0,192,0.0,92.0
5076,59.0,384,384,0.0,92.0
5077,77.0,192,192,0.0,92.0
5078,60.0,192,192,0.0,92.0
5079,67.0,192,192,0.0,92.0
5080,76.0,0,384,0.0,92.0
5081,79.0,192,192,0.0,92.0
5082,64.0,0,192,0.0,92.0
5083,67.0,192,192,0.0,92.0
5084,76.0,0,192,0.0,92.0
5085,69.0,0,192,0.0,92.0
5086,70.0,192,192,0.0,92.0
5087,77.0,192,384,0.0,92.0
5088,69.0,0,192,0.0,92.0
5089,72.0,192,192,0.0,92.0
5090,67.0,0,192,0.0,92.0
5091,76.0,192,192,0.0,92.0
5092,74.0,192,384,0.0,92.0
5093,77.0,384,192,0.0,92.0
5094,74.0,192,192,0.0,92.0
5095,65.0,0,960,0.0,92.0
5096,62.0,192,192,0.0,92.0
5097,83.0,192,384,0.0,92.0
5098,64.0,0,192,0.0,92.0
5099,65.0,192,192,0.0,92.0
5100,64.0,192,192,0.0,92.0
5101,79.0,192,768,0.0,92.0
5102,62.0,192,192,0.0,92.0
5103,60.0,192,192,0.0,92.0
5104,62.0,192,192,0.0,92.0
5105,64.0,192,192,0.0,92.0
5106,65.0,192,192,0.0,92.0
5107,84.0,0,768,0.0,92.0
5108,67.0,192,192,0.0,92.0
5109,83.0,0,192,0.0,92.0
5110,81.0,0,192,0.0,92.0
5111,69.0,192,192,0.0,92.0
5112,71.0,0,192,0.0,92.0
5113,72.0,192,192,0.0,92.0
5114,79.0,192,384,0.0,92.0
5115,74.0,0,192,0.0,92.0
5116,77.0,192,384,0.0,92.0
5117,71.0,192,192,0.0,92.0
5118,76.0,0,192,0.0,92.0
5119,77.0,192,192,0.0,92.0
5120,72.0,192,384,0.0,92.0
5121,76.0,0,192,0.0,92.0
5122,67.0,192,192,0.0,92.0
5123,74.0,0,192,0.0,92.0
5124,70.0,192,192,0.0,92.0
5125,72.0,192,192,0.0,92.0
5126,74.0,192,192,0.0,92.0
5127,69.0,0,384,0.0,92.0
5128,76.0,0,192,0.0,92.0
5129,72.0,192,192,0.0,92.0
5130,77.0,0,192,0.0,92.0
5131,69.0,192,192,0.0,92.0
5132,79.0,0,192,0.0,92.0
5133,82.0,192,192,0.0,92.0
5134,70.0,192,384,0.0,92.0
5135,81.0,192,192,0.0,92.0
5136,65.0,0,192,0.0,92.0
5137,84.0,0,192,0.0,92.0
5138,69.0,192,192,0.0,92.0
5139,82.0,192,192,0.0,92.0
5140,81.0,192,192,0.0,92.0
5141,67.0,0,384,0.0,92.0
5142,79.0,0,192,0.0,92.0
5143,70.0,192,192,0.0,92.0
5144,67.0,192,192,0.0,92.0
5145,82.0,0,192,0.0,92.0
5146,72.0,192,192,0.0,92.0
5147,76.0,0,384,0.0,92.0
5148,82.0,192,192,0.0,92.0
5149,81.0,192,192,0.0,92.0
5150,79.0,192,192,0.0,92.0
5151,81.0,192,192,0.0,92.0
5152,84.0,192,192,0.0,92.0
5153,72.0,0,768,0.0,92.0
5154,82.0,0,192,0.0,92.0
5155,81.0,192,192,0.0,92.0
5156,77.0,192,768,0.0,92.0
5157,76.0,384,192,0.0,92.0
5158,74.0,192,192,0.0,92.0
5159,72.0,192,384,0.0,92.0
5160,70.0,384,384,0.0,92.0
5161,79.0,192,1728,0.0,92.0
5162,77.0,192,192,0.0,92.0
5163,69.0,384,384,0.0,92.0
5164,76.0,0,192,0.0,92.0
5165,79.0,192,192,0.0,92.0
5166,67.0,192,384,0.0,92.0
5167,77.0,192,192,0.0,92.0
5168,76.0,192,192,0.0,92.0
5169,74.0,192,192,0.0,92.0
5170,72.0,192,192,0.0,92.0
5171,69.0,0,960,0.0,92.0
5172,67.0,192,192,0.0,92.0
5173,65.0,192,192,0.0,92.0
5174,69.0,192,192,0.0,92.0
5175,67.0,192,192,0.0,92.0
5176,65.0,192,192,0.0,92.0
5177,64.0,192,192,0.0,92.0
5178,62.0,192,192,0.0,92.0
5179,70.0,192,1728,0.0,92.0
5180,60.0,192,384,0.0,92.0
5181,69.0,192,192,0.0,92.0
5182,67.0,192,192,0.0,92.0
5183,70.0,192,192,0.0,92.0
5184,58.0,0,384,0.0,92.0
5185,69.0,0,192,0.0,92.0
5186,67.0,192,192,0.0,92.0
5187,53.0,0,1152,0.0,92.0
5188,60.0,192,384,0.0,92.0
5189,57.0,192,192,0.0,92.0
5190,53.0,0,192,0.0,92.0
5191,69.0,192,192,0.0,92.0
5192,60.0,0,384,0.0,92.0
5193,65.0,0,768,0.0,92.0
5194,55.0,0,192,0.0,92.0
5195,64.0,384,384,0.0,92.0
5196,67.0,192,768,0.0,92.0
5197,58.0,192,192,0.0,92.0
5198,57.0,0,384,0.0,92.0
5199,60.0,384,192,0.0,92.0
5200,69.0,0,192,0.0,92.0
5201,72.0,0,192,0.0,92.0
5202,57.0,192,192,0.0,92.0
5203,65.0,192,1152,0.0,92.0
5204,58.0,0,384,0.0,92.0
5205,69.0,384,192,0.0,92.0
5206,53.0,0,192,0.0,92.0
5207,72.0,192,192,0.0,92.0
5208,57.0,0,192,0.0,92.0
5209,74.0,192,1152,0.0,92.0
5210,55.0,0,384,0.0,92.0
5211,58.0,384,192,0.0,92.0
5212,55.0,192,192,0.0,92.0
5213,79.0,0,384,0.0,92.0
5214,70.0,192,0,0.0,92.0
5215,64.0,192,384,0.0,92.0
5216,69.0,0,192,0.0,92.0
5217,67.0,192,192,0.0,92.0
5218,72.0,0,960,0.0,92.0
5219,70.0,192,192,0.0,92.0
5220,60.0,192,768,0.0,92.0
5221,72.0,0,192,0.0,92.0
5222,69.0,192,768,0.0,92.0
5223,74.0,192,192,0.0,92.0
5224,65.0,192,768,0.0,92.0
5225,64.0,384,192,0.0,92.0
5226,62.0,192,192,0.0,92.0
5227,60.0,192,384,0.0,92.0
5228,58.0,384,384,0.0,92.0
5229,67.0,0,1728,0.0,92.0
5230,57.0,384,384,0.0,92.0
5231,65.0,192,192,0.0,92.0
5232,64.0,192,192,0.0,92.0
5233,67.0,192,192,0.0,92.0
5234,55.0,0,384,0.0,92.0
5235,70.0,192,2304,0.0,92.0
5236,65.0,0,192,0.0,92.0
5237,57.0,0,384,0.0,92.0
5238,64.0,192,192,0.0,92.0
5239,62.0,192,192,0.0,92.0
5240,53.0,0,384,0.0,92.0
5241,60.0,192,192,0.0,92.0
5242,69.0,192,960,0.0,92.0
5243,55.0,192,384,0.0,92.0
5244,67.0,192,192,0.0,92.0
5245,59.0,0,384,0.0,92.0
5246,65.0,0,192,0.0,92.0
5247,69.0,192,192,0.0,92.0
5248,57.0,192,384,0.0,92.0
5249,60.0,0,384,0.0,92.0
5250,67.0,0,192,0.0,92.0
5251,59.0,192,384,0.0,92.0
5252,62.0,0,384,0.0,92.0
5253,65.0,192,192,0.0,92.0
5254,64.0,0,192,0.0,92.0
5255,55.0,0,384,0.0,92.0
5256,62.0,192,192,0.0,92.0
5257,59.0,192,384,0.0,92.0
5258,48.0,192,192,0.0,92.0
5259,64.0,0,384,0.0,92.0
5260,47.0,192,192,0.0,92.0
5261,48.0,192,192,0.0,92.0
5262,67.0,0,384,0.0,92.0
5263,60.0,0,768,0.0,92.0
5264,52.0,192,192,0.0,92.0
5265,50.0,0,192,0.0,92.0
5266,48.0,192,192,0.0,92.0
5267,62.0,0,192,0.0,92.0
5268,47.0,192,192,0.0,92.0
5269,60.0,192,192,0.0,92.0
5270,45.0,0,192,0.0,92.0
5271,43.0,0,384,0.0,92.0
5272,72.0,192,1152,0.0,92.0
5273,67.0,192,384,0.0,92.0
5274,62.0,384,192,0.0,92.0
5275,71.0,0,384,0.0,92.0
5276,65.0,192,192,0.0,92.0
5277,72.0,0,192,0.0,92.0
5278,64.0,192,384,0.0,92.0
5279,79.0,192,192,0.0,92.0
5280,67.0,0,192,0.0,92.0
5281,76.0,0,192,0.0,92.0
5282,79.0,192,192,0.0,92.0
5283,64.0,0,192,0.0,92.0
5284,60.0,192,384,0.0,92.0
5285,81.0,0,192,0.0,92.0
5286,53.0,192,384,0.0,92.0
5287,65.0,0,384,0.0,92.0
5288,82.0,192,192,0.0,92.0
5289,81.0,192,192,0.0,92.0
5290,60.0,0,192,0.0,92.0
5291,79.0,0,192,0.0,92.0
5292,64.0,192,192,0.0,92.0
5293,62.0,192,384,0.0,92.0
5294,65.0,384,192,0.0,92.0
5295,62.0,192,192,0.0,92.0
5296,77.0,0,960,0.0,92.0
5297,71.0,192,384,0.0,92.0
5298,55.0,0,384,0.0,92.0
5299,74.0,192,192,0.0,92.0
5300,76.0,192,192,0.0,92.0
5301,60.0,0,384,0.0,92.0
5302,77.0,192,192,0.0,92.0
5303,76.0,0,192,0.0,92.0
5304,67.0,0,768,0.0,92.0
5305,59.0,192,384,0.0,92.0
5306,74.0,192,192,0.0,92.0
5307,74.0,192,192,0.0,92.0
5308,57.0,0,384,0.0,92.0
5309,76.0,0,192,0.0,92.0
5310,72.0,192,768,0.0,92.0
5311,55.0,192,384,0.0,92.0
5312,77.0,192,192,0.0,92.0
5313,71.0,192,192,0.0,92.0
5314,79.0,0,192,0.0,92.0
5315,69.0,0,192,0.0,92.0
5316,81.0,192,192,0.0,92.0
5317,83.0,192,192,0.0,92.0
5318,84.0,192,192,0.0,92.0
5319,67.0,0,384,0.0,92.0
5320,81.0,0,192,0.0,92.0
5321,65.0,0,384,0.0,92.0
5322,83.0,192,192,0.0,92.0
5323,56.0,192,384,0.0,92.0
5324,57.0,0,192,0.0,92.0
5325,59.0,192,192,0.0,92.0
5326,64.0,0,384,0.0,92.0
5327,60.0,192,192,0.0,92.0
5328,62.0,192,192,0.0,92.0
5329,84.0,192,768,0.0,92.0
5330,64.0,0,192,0.0,92.0
5331,65.0,192,192,0.0,92.0
5332,81.0,0,768,0.0,92.0
5333,62.0,0,192,0.0,92.0
5334,80.0,192,384,0.0,92.0
5335,83.0,192,768,0.0,92.0
5336,64.0,192,192,0.0,92.0
5337,65.0,0,384,0.0,92.0
5338,74.0,192,192,0.0,92.0
5339,72.0,0,192,0.0,92.0
5340,64.0,192,384,0.0,92.0
5341,76.0,192,192,0.0,92.0
5342,74.0,0,192,0.0,92.0
5343,65.0,192,384,0.0,92.0
5344,72.0,192,192,0.0,92.0
5345,71.0,0,192,0.0,92.0
5346,69.0,192,192,0.0,92.0
5347,62.0,192,384,0.0,92.0
5348,81.0,192,1728,0.0,92.0
5349,79.0,192,192,0.0,92.0
5350,78.0,192,192,0.0,92.0
5351,72.0,192,768,0.0,92.0
5352,81.0,192,192,0.0,92.0
5353,79.0,192,192,0.0,92.0
5354,77.0,192,192,0.0,92.0
5355,64.0,0,1152,0.0,92.0
5356,76.0,0,192,0.0,92.0
5357,65.0,192,384,0.0,92.0
5358,71.0,0,768,0.0,92.0
5359,74.0,192,192,0.0,92.0
5360,67.0,192,192,0.0,92.0
5361,73.0,0,192,0.0,92.0
5362,65.0,192,192,0.0,92.0
5363,74.0,0,192,0.0,92.0
5364,64.0,192,192,0.0,92.0
5365,76.0,0,192,0.0,92.0
5366,73.0,0,192,0.0,92.0
5367,70.0,0,768,0.0,92.0
5368,67.0,192,192,0.0,92.0
5369,65.0,0,192,0.0,92.0
5370,74.0,0,192,0.0,92.0
5371,76.0,192,192,0.0,92.0
5372,64.0,0,192,0.0,92.0
5373,62.0,0,192,0.0,92.0
5374,60.0,192,192,0.0,92.0
5375,69.0,192,768,0.0,92.0
5376,77.0,192,576,0.0,92.0
5377,76.0,192,192,0.0,92.0
5378,67.0,0,384,0.0,92.0
5379,74.0,192,192,0.0,92.0
5380,77.0,192,192,0.0,92.0
5381,65.0,0,384,0.0,92.0
5382,59.0,192,768,0.0,92.0
5383,76.0,192,192,0.0,92.0
5384,74.0,192,192,0.0,92.0
5385,58.0,0,384,0.0,92.0
5386,73.0,192,192,0.0,92.0
5387,57.0,0,192,0.0,92.0
5388,55.0,192,192,0.0,92.0
5389,71.0,0,192,0.0,92.0
5390,67.0,0,960,0.0,92.0
5391,53.0,192,384,0.0,92.0
5392,65.0,192,192,0.0,92.0
5393,64.0,0,192,0.0,92.0
5394,57.0,192,384,0.0,92.0
5395,67.0,192,192,0.0,92.0
5396,65.0,0,192,0.0,92.0
5397,62.0,192,384,0.0,92.0
5398,64.0,192,192,0.0,92.0
5399,62.0,0,192,0.0,92.0
5400,53.0,192,384,0.0,92.0
5401,60.0,192,192,0.0,92.0
5402,69.0,0,1728,0.0,92.0
5403,67.0,192,192,0.0,92.0
5404,55.0,192,384,0.0,92.0
5405,65.0,192,192,0.0,92.0
5406,69.0,192,192,0.0,92.0
5407,50.0,0,384,0.0,92.0
5408,67.0,0,192,0.0,92.0
5409,46.0,192,384,0.0,92.0
5410,65.0,192,192,0.0,92.0
5411,64.0,0,192,0.0,92.0
5412,43.0,192,384,0.0,92.0
5413,62.0,192,192,0.0,92.0
5414,58.0,0,1728,0.0,92.0
5415,57.0,192,192,0.0,92.0
5416,45.0,192,384,0.0,92.0
5417,55.0,192,192,0.0,92.0
5418,58.0,192,192,0.0,92.0
5419,52.0,0,384,0.0,92.0
5420,61.0,0,768,0.0,92.0
5421,57.0,192,192,0.0,92.0
5422,55.0,192,192,0.0,92.0
5423,49.0,0,384,0.0,92.0
5424,53.0,192,192,0.0,92.0
5425,52.0,192,192,0.0,92.0
5426,45.0,0,384,0.0,92.0
5427,64.0,0,960,0.0,92.0
5428,65.0,192,192,0.0,92.0
5429,53.0,192,384,0.0,92.0
5430,67.0,192,192,0.0,92.0
5431,57.0,0,384,0.0,92.0
5432,64.0,192,192,0.0,92.0
5433,65.0,0,192,0.0,92.0
5434,50.0,0,1152,0.0,92.0
5435,67.0,192,192,0.0,92.0
5436,62.0,192,384,0.0,92.0
5437,69.0,192,192,0.0,92.0
5438,53.0,0,192,0.0,92.0
5439,50.0,192,192,0.0,92.0
5440,71.0,0,192,0.0,92.0
5441,73.0,0,192,0.0,92.0
5442,74.0,192,192,0.0,92.0
5443,57.0,192,384,0.0,92.0
5444,76.0,192,192,0.0,92.0
5445,52.0,0,192,0.0,92.0
5446,55.0,0,192,0.0,92.0
5447,73.0,192,192,0.0,92.0
5448,74.0,192,192,0.0,92.0
5449,53.0,0,384,0.0,92.0
5450,76.0,192,192,0.0,92.0
5451,57.0,192,192,0.0,92.0
5452,77.0,0,192,0.0,92.0
5453,53.0,192,192,0.0,92.0
5454,74.0,0,192,0.0,92.0
5455,81.0,192,192,0.0,92.0
5456,55.0,0,384,0.0,92.0
5457,79.0,192,192,0.0,92.0
5458,50.0,0,192,0.0,92.0
5459,77.0,192,192,0.0,92.0
5460,53.0,0,192,0.0,92.0
5461,79.0,192,192,0.0,92.0
5462,52.0,0,384,0.0,92.0
5463,77.0,192,192,0.0,92.0
5464,55.0,0,192,0.0,92.0
5465,76.0,192,192,0.0,92.0
5466,74.0,0,192,0.0,92.0
5467,52.0,192,192,0.0,92.0
5468,82.0,192,1728,0.0,92.0
5469,81.0,192,192,0.0,92.0
5470,76.0,192,384,0.0,92.0
5471,61.0,0,0,0.0,92.0
5472,79.0,0,192,0.0,92.0
5473,82.0,192,192,0.0,92.0
5474,81.0,192,192,0.0,92.0
5475,79.0,192,192,0.0,92.0
5476,57.0,192,768,0.0,92.0
5477,77.0,192,192,0.0,92.0
5478,65.0,0,768,0.0,92.0
5479,81.0,192,192,0.0,92.0
5480,79.0,0,192,0.0,92.0
5481,62.0,0,768,0.0,92.0
5482,77.0,192,192,0.0,92.0
5483,76.0,0,192,0.0,92.0
5484,60.0,192,192,0.0,92.0
5485,58.0,0,192,0.0,92.0
5486,79.0,192,192,0.0,92.0
5487,70.0,192,960,0.0,92.0
5488,57.0,0,384,0.0,92.0
5489,72.0,192,384,0.0,92.0
5490,64.0,192,192,0.0,92.0
5491,66.0,192,192,0.0,92.0
5492,55.0,0,384,0.0,92.0
5493,67.0,192,192,0.0,92.0
5494,69.0,192,192,0.0,92.0
5495,70.0,192,192,0.0,92.0
5496,54.0,0,384,0.0,92.0
5497,72.0,0,192,0.0,92.0
5498,69.0,192,192,0.0,92.0
5499,50.0,192,384,0.0,92.0
5500,55.0,0,192,0.0,92.0
5501,54.0,0,192,0.0,92.0
5502,74.0,192,192,0.0,92.0
5503,70.0,192,384,0.0,92.0
5504,76.0,0,192,0.0,92.0
5505,55.0,192,192,0.0,92.0
5506,78.0,0,192,0.0,92.0
5507,57.0,192,192,0.0,92.0
5508,58.0,0,192,0.0,92.0
5509,79.0,192,192,0.0,92.0
5510,60.0,192,192,0.0,92.0
5511,81.0,0,192,0.0,92.0
5512,82.0,192,192,0.0,92.0
5513,62.0,0,192,0.0,92.0
5514,79.0,192,192,0.0,92.0
5515,58.0,0,192,0.0,92.0
5516,84.0,0,192,0.0,92.0
5517,63.0,192,192,0.0,92.0
5518,62.0,0,192,0.0,92.0
5519,82.0,192,192,0.0,92.0
5520,81.0,192,192,0.0,92.0
5521,60.0,0,192,0.0,92.0
5522,63.0,192,192,0.0,92.0
5523,79.0,0,192,0.0,92.0
5524,78.0,192,192,0.0,92.0
5525,62.0,0,192,0.0,92.0
5526,81.0,192,192,0.0,92.0
5527,60.0,0,192,0.0,92.0
5528,74.0,192,192,0.0,92.0
5529,58.0,0,192,0.0,92.0
5530,72.0,192,192,0.0,92.0
5531,57.0,0,192,0.0,92.0
5532,70.0,192,192,0.0,92.0
5533,55.0,0,192,0.0,92.0
5534,69.0,192,192,0.0,92.0
5535,57.0,0,192,0.0,92.0
5536,67.0,0,192,0.0,92.0
5537,58.0,192,192,0.0,92.0
5538,55.0,0,192,0.0,92.0
5539,70.0,192,192,0.0,92.0
5540,60.0,192,192,0.0,92.0
5541,63.0,0,192,0.0,92.0
5542,58.0,0,192,0.0,92.0
5543,67.0,192,192,0.0,92.0
5544,69.0,192,192,0.0,92.0
5545,57.0,0,192,0.0,92.0
5546,55.0,192,192,0.0,92.0
5547,70.0,0,192,0.0,92.0
5548,54.0,192,192,0.0,92.0
5549,55.0,192,192,0.0,92.0
5550,57.0,192,192,0.0,92.0
5551,54.0,192,192,0.0,92.0
5552,72.0,0,960,0.0,92.0
5553,75.0,192,192,0.0,92.0
5554,46.0,0,384,0.0,92.0
5555,74.0,192,192,0.0,92.0
5556,50.0,0,384,0.0,92.0
5557,55.0,192,768,0.0,92.0
5558,72.0,192,192,0.0,92.0
5559,70.0,192,192,0.0,92.0
5560,69.0,192,192,0.0,92.0
5561,67.0,192,192,0.0,92.0
5562,55.0,0,576,0.0,92.0
5563,58.0,0,192,0.0,92.0
5564,70.0,192,192,0.0,92.0
5565,55.0,0,576,0.0,92.0
5566,62.0,192,384,0.0,92.0
5567,57.0,0,192,0.0,92.0
5568,54.0,384,384,0.0,92.0
5569,60.0,192,192,0.0,92.0
5570,55.0,0,192,0.0,92.0
5571,69.0,0,1152,0.0,92.0
5572,58.0,192,384,0.0,92.0
5573,50.0,192,192,0.0,92.0
5574,62.0,192,192,0.0,92.0
5575,46.0,0,192,0.0,92.0
5576,58.0,192,192,0.0,92.0
5577,50.0,0,192,0.0,92.0
5578,51.0,192,192,0.0,92.0
5579,53.0,192,192,0.0,92.0
5580,60.0,0,384,0.0,92.0
5581,51.0,0,192,0.0,92.0
5582,55.0,192,192,0.0,92.0
5583,50.0,0,192,0.0,92.0
5584,58.0,192,192,0.0,92.0
5585,67.0,0,1344,0.0,92.0
5586,57.0,0,384,0.0,92.0
5587,75.0,192,192,0.0,92.0
5588,69.0,0,192,0.0,92.0
5589,60.0,192,192,0.0,92.0
5590,72.0,192,192,0.0,92.0
5591,57.0,0,192,0.0,92.0
5592,48.0,192,960,0.0,92.0
5593,66.0,192,384,0.0,92.0
5594,45.0,192,192,0.0,92.0
5595,46.0,0,192,0.0,92.0
5596,48.0,192,192,0.0,92.0
5597,46.0,192,192,0.0,92.0
5598,45.0,192,192,0.0,92.0
5599,62.0,192,768,0.0,92.0
5600,43.0,192,192,0.0,92.0
5601,45.0,192,192,0.0,92.0
5602,46.0,192,192,0.0,92.0
5603,48.0,192,192,0.0,92.0
5604,67.0,0,768,0.0,92.0
5605,50.0,0,192,0.0,92.0
5606,65.0,192,192,0.0,92.0
5607,51.0,0,192,0.0,92.0
5608,74.0,0,2304,0.0,92.0
5609,63.0,192,192,0.0,92.0
5610,53.0,192,192,0.0,92.0
5611,62.0,0,384,0.0,92.0
5612,55.0,192,192,0.0,92.0
5613,56.0,0,192,0.0,92.0
5614,60.0,192,384,0.0,92.0
5615,53.0,192,192,0.0,92.0
5616,55.0,0,192,0.0,92.0
5617,53.0,192,192,0.0,92.0
5618,59.0,192,384,0.0,92.0
5619,51.0,192,192,0.0,92.0
5620,50.0,192,192,0.0,92.0
5621,51.0,192,192,0.0,92.0
5622,55.0,0,576,0.0,92.0
5623,53.0,192,192,0.0,92.0
5624,59.0,0,192,0.0,92.0
5625,51.0,192,192,0.0,92.0
5626,60.0,0,192,0.0,92.0
5627,62.0,192,192,0.0,92.0
5628,50.0,0,192,0.0,92.0
5629,48.0,0,192,0.0,92.0
5630,63.0,192,192,0.0,92.0
5631,50.0,192,192,0.0,92.0
5632,65.0,0,192,0.0,92.0
5633,51.0,192,192,0.0,92.0
5634,67.0,0,192,0.0,92.0
5635,63.0,0,192,0.0,92.0
5636,48.0,192,192,0.0,92.0
5637,53.0,192,192,0.0,92.0
5638,68.0,0,192,0.0,92.0
5639,51.0,0,192,0.0,92.0
5640,67.0,192,192,0.0,92.0
5641,50.0,192,192,0.0,92.0
5642,65.0,0,192,0.0,92.0
5643,48.0,0,192,0.0,92.0
5644,68.0,192,192,0.0,92.0
5645,47.0,192,192,0.0,92.0
5646,67.0,0,192,0.0,92.0
5647,65.0,0,192,0.0,92.0
5648,50.0,192,192,0.0,92.0
5649,55.0,192,192,0.0,92.0
5650,63.0,0,192,0.0,92.0
5651,53.0,192,192,0.0,92.0
5652,62.0,0,192,0.0,92.0
5653,60.0,0,192,0.0,92.0
5654,51.0,192,192,0.0,92.0
5655,50.0,192,192,0.0,92.0
5656,62.0,0,192,0.0,92.0
5657,63.0,0,192,0.0,92.0
5658,48.0,192,192,0.0,92.0
5659,60.0,192,192,0.0,92.0
5660,51.0,0,192,0.0,92.0
5661,65.0,192,192,0.0,92.0
5662,44.0,0,192,0.0,92.0
5663,48.0,192,192,0.0,92.0
5664,63.0,0,192,0.0,92.0
5665,50.0,192,192,0.0,92.0
5666,62.0,0,192,0.0,92.0
5667,60.0,192,192,0.0,92.0
5668,51.0,0,192,0.0,92.0
5669,59.0,192,192,0.0,92.0
5670,60.0,192,192,0.0,92.0
5671,62.0,192,192,0.0,92.0
5672,59.0,192,192,0.0,92.0
5673,53.0,192,0,0.0,92.0
5674,51.0,192,192,0.0,92.0
5675,55.0,192,768,0.0,92.0
5676,50.0,192,192,0.0,92.0
5677,51.0,192,192,0.0,92.0
5678,55.0,192,192,0.0,92.0
5679,72.0,0,1152,0.0,92.0
5680,75.0,0,192,0.0,92.0
5681,72.0,192,192,0.0,92.0
5682,79.0,192,384,0.0,92.0
5683,62.0,192,192,0.0,92.0
5684,60.0,192,960,0.0,92.0
5685,74.0,192,192,0.0,92.0
5686,59.0,0,192,0.0,92.0
5687,77.0,192,192,0.0,92.0
5688,67.0,0,576,0.0,92.0
5689,75.0,0,384,0.0,92.0
5690,62.0,192,192,0.0,92.0
5691,79.0,192,192,0.0,92.0
5692,60.0,192,576,0.0,92.0
5693,75.0,0,192,0.0,92.0
5694,58.0,192,192,0.0,92.0
5695,63.0,0,576,0.0,92.0
5696,77.0,192,384,0.0,92.0
5697,60.0,192,192,0.0,92.0
5698,72.0,0,192,0.0,92.0
5699,57.0,0,576,0.0,92.0
5700,57.0,192,192,0.0,92.0
5701,75.0,0,192,0.0,92.0
5702,65.0,192,576,0.0,92.0
5703,60.0,192,192,0.0,92.0
5704,74.0,192,384,0.0,92.0
5705,58.0,0,576,0.0,92.0
5706,77.0,192,192,0.0,92.0
5707,74.0,0,192,0.0,92.0
5708,56.0,192,192,0.0,92.0
5709,55.0,0,192,0.0,92.0
5710,59.0,192,192,0.0,92.0
5711,62.0,192,0,0.0,92.0
5712,83.0,192,384,0.0,92.0
5713,65.0,192,192,0.0,92.0
5714,71.0,0,384,0.0,92.0
5715,63.0,0,192,0.0,92.0
5716,79.0,0,768,0.0,92.0
5717,60.0,192,192,0.0,92.0
5718,72.0,192,384,0.0,92.0
5719,56.0,0,192,0.0,92.0
5720,75.0,192,384,0.0,92.0
5721,60.0,192,192,0.0,92.0
5722,53.0,0,192,0.0,92.0
5723,56.0,192,192,0.0,92.0
5724,84.0,0,768,0.0,92.0
5725,82.0,0,192,0.0,92.0
5726,62.0,192,192,0.0,92.0
5727,65.0,0,192,0.0,92.0
5728,80.0,192,192,0.0,92.0
5729,59.0,0,192,0.0,92.0
5730,79.0,192,384,0.0,92.0
5731,62.0,192,192,0.0,92.0
5732,55.0,0,192,0.0,92.0
5733,59.0,192,192,0.0,92.0
5734,77.0,192,384,0.0,92.0
5735,60.0,192,192,0.0,92.0
5736,58.0,192,192,0.0,92.0
5737,74.0,192,1920,0.0,92.0
5738,56.0,192,192,0.0,92.0
5739,60.0,192,192,0.0,92.0
5740,75.0,0,768,0.0,92.0
5741,58.0,192,192,0.0,92.0
5742,56.0,192,192,0.0,92.0
5743,72.0,0,768,0.0,92.0
5744,76.0,0,384,0.0,92.0
5745,55.0,192,192,0.0,92.0
5746,53.0,192,192,0.0,92.0
5747,77.0,0,384,0.0,92.0
5748,52.0,192,192,0.0,92.0
5749,70.0,0,576,0.0,92.0
5750,68.0,192,192,0.0,92.0
5751,53.0,0,192,0.0,92.0
5752,67.0,192,192,0.0,92.0
5753,55.0,0,192,0.0,92.0
5754,70.0,0,192,0.0,92.0
5755,52.0,192,192,0.0,92.0
5756,53.0,0,192,0.0,92.0
5757,51.0,192,192,0.0,92.0
5758,79.0,0,1152,0.0,92.0
5759,50.0,192,192,0.0,92.0
5760,48.0,192,192,0.0,92.0
5761,77.0,0,576,0.0,92.0
5762,75.0,192,192,0.0,92.0
5763,74.0,192,192,0.0,92.0
5764,47.0,192,768,0.0,92.0
5765,77.0,192,192,0.0,92.0
5766,68.0,192,1536,0.0,92.0
5767,75.0,192,192,0.0,92.0
5768,73.0,192,192,0.0,92.0
5769,46.0,0,384,0.0,92.0
5770,67.0,0,576,0.0,92.0
5771,68.0,192,192,0.0,92.0
5772,58.0,0,384,0.0,92.0
5773,69.0,192,192,0.0,92.0
5774,53.0,0,384,0.0,92.0
5775,67.0,192,192,0.0,92.0
5776,70.0,192,192,0.0,92.0
5777,69.0,192,192,0.0,92.0
5778,44.0,0,384,0.0,92.0
5779,67.0,192,192,0.0,92.0
5780,65.0,192,192,0.0,92.0
5781,74.0,192,1536,0.0,92.0
5782,64.0,0,192,0.0,92.0
5783,45.0,0,768,0.0,92.0
5784,73.0,192,384,0.0,92.0
5785,67.0,192,192,0.0,92.0
5786,65.0,0,192,0.0,92.0
5787,50.0,192,192,0.0,92.0
5788,57.0,0,192,0.0,92.0
5789,64.0,192,192,0.0,92.0
5790,74.0,0,384,0.0,92.0
5791,62.0,192,192,0.0,92.0
5792,59.0,0,192,0.0,92.0
5793,64.0,192,192,0.0,92.0
5794,61.0,0,192,0.0,92.0
5795,72.0,192,192,0.0,92.0
5796,70.0,192,192,0.0,92.0
5797,69.0,192,192,0.0,92.0
5798,65.0,192,768,0.0,92.0
5799,67.0,0,192,0.0,92.0
5800,62.0,0,1152,0.0,92.0
5801,69.0,192,192,0.0,92.0
5802,55.0,192,192,0.0,92.0
5803,53.0,192,192,0.0,92.0
5804,64.0,192,768,0.0,92.0
5805,70.0,0,576,0.0,92.0
5806,69.0,192,192,0.0,92.0
5807,55.0,192,384,0.0,92.0
5808,70.0,0,192,0.0,92.0
5809,63.0,0,768,0.0,92.0
5810,72.0,192,192,0.0,92.0
5811,57.0,192,384,0.0,92.0
5812,74.0,192,192,0.0,92.0
5813,58.0,0,384,0.0,92.0
5814,72.0,192,192,0.0,92.0
5815,74.0,0,192,0.0,92.0
5816,60.0,192,384,0.0,92.0
5817,62.0,0,768,0.0,92.0
5818,76.0,192,192,0.0,92.0
5819,77.0,0,192,0.0,92.0
5820,76.0,192,192,0.0,92.0
5821,62.0,0,384,0.0,92.0
5822,77.0,0,192,0.0,92.0
5823,79.0,192,192,0.0,92.0
5824,64.0,192,384,0.0,92.0
5825,72.0,192,192,0.0,92.0
5826,65.0,0,384,0.0,92.0
5827,74.0,192,192,0.0,92.0
5828,76.0,192,192,0.0,92.0
5829,79.0,192,192,0.0,92.0
5830,70.0,192,1536,0.0,92.0
5831,60.0,0,384,0.0,92.0
5832,77.0,0,192,0.0,92.0
5833,76.0,192,192,0.0,92.0
5834,74.0,192,192,0.0,92.0
5835,69.0,192,768,0.0,92.0
5836,72.0,192,192,0.0,92.0
5837,70.0,0,192,0.0,92.0
5838,69.0,192,192,0.0,92.0
5839,70.0,192,192,0.0,92.0
5840,74.0,192,192,0.0,92.0
5841,65.0,0,1536,0.0,92.0
5842,72.0,192,192,0.0,92.0
5843,70.0,192,192,0.0,92.0
5844,69.0,192,192,0.0,92.0
5845,67.0,192,1344,0.0,92.0
5846,67.0,192,192,0.0,92.0
5847,64.0,0,960,0.0,92.0
5848,69.0,192,384,0.0,92.0
5849,64.0,192,192,0.0,92.0
5850,62.0,192,192,0.0,92.0
5851,71.0,0,192,0.0,92.0
5852,60.0,192,192,0.0,92.0
5853,72.0,0,192,0.0,92.0
5854,59.0,192,192,0.0,92.0
5855,60.0,192,192,0.0,92.0
5856,74.0,0,384,0.0,92.0
5857,62.0,192,192,0.0,92.0
5858,59.0,192,192,0.0,92.0
5859,65.0,192,0,0.0,92.0
5860,67.0,0,768,0.0,92.0
5861,64.0,0,192,0.0,92.0
5862,69.0,192,192,0.0,92.0
5863,71.0,0,192,0.0,92.0
5864,62.0,192,192,0.0,92.0
5865,60.0,192,768,0.0,92.0
5866,64.0,0,192,0.0,92.0
5867,48.0,0,1152,0.0,102.0
5868,62.0,192,192,0.0,92.0
5869,52.0,192,192,0.0,102.0
5870,60.0,0,192,0.0,92.0
5871,48.0,192,192,0.0,102.0
5872,64.0,0,192,0.0,92.0
5873,72.0,0,768,0.0,92.0
5874,62.0,0,192,0.0,92.0
5875,55.0,0,384,0.0,102.0
5876,64.0,192,192,0.0,92.0
5877,65.0,192,192,0.0,92.0
5878,50.0,0,192,0.0,102.0
5879,53.0,0,192,0.0,102.0
5880,71.0,192,768,0.0,92.0
5881,62.0,192,192,0.0,92.0
5882,57.0,192,192,0.0,92.0
5883,52.0,192,384,0.0,102.0
5884,55.0,0,192,0.0,102.0
5885,58.0,192,192,0.0,92.0
5886,70.0,0,768,0.0,92.0
5887,52.0,0,192,0.0,102.0
5888,55.0,192,192,0.0,92.0
5889,67.0,0,960,0.0,92.0
5890,65.0,192,192,0.0,92.0
5891,53.0,0,384,0.0,102.0
5892,64.0,192,192,0.0,92.0
5893,48.0,0,192,0.0,102.0
5894,69.0,192,768,0.0,92.0
5895,52.0,0,192,0.0,102.0
5896,67.0,192,192,0.0,92.0
5897,60.0,0,960,0.0,92.0
5898,65.0,0,384,0.0,92.0
5899,59.0,192,192,0.0,92.0
5900,50.0,0,384,0.0,102.0
5901,53.0,0,192,0.0,102.0
5902,57.0,192,192,0.0,92.0
5903,69.0,0,384,0.0,92.0
5904,50.0,0,192,0.0,102.0
5905,62.0,192,192,0.0,92.0
5906,74.0,0,192,0.0,92.0
5907,55.0,192,0,0.0,102.0
5908,59.0,192,384,0.0,102.0
5909,72.0,192,192,0.0,92.0
5910,71.0,0,192,0.0,92.0
5911,77.0,192,1536,0.0,92.0
5912,69.0,192,192,0.0,92.0
5913,62.0,0,576,0.0,92.0
5914,67.0,0,192,0.0,92.0
5915,65.0,0,192,0.0,92.0
5916,62.0,192,192,0.0,92.0
5917,60.0,0,192,0.0,102.0
5918,67.0,0,192,0.0,92.0
5919,64.0,192,192,0.0,92.0
5920,59.0,0,192,0.0,92.0
5921,76.0,192,768,0.0,92.0
5922,57.0,192,192,0.0,92.0
5923,64.0,192,192,0.0,92.0
5924,62.0,0,192,0.0,92.0
5925,59.0,192,192,0.0,102.0
5926,60.0,192,192,0.0,92.0
5927,57.0,0,192,0.0,102.0
5928,65.0,0,960,0.0,92.0
5929,55.0,192,384,0.0,102.0
5930,62.0,192,192,0.0,92.0
5931,64.0,0,192,0.0,92.0
5932,53.0,192,384,0.0,102.0
5933,65.0,192,192,0.0,92.0
5934,59.0,192,0,0.0,92.0
5935,74.0,0,1728,0.0,92.0
5936,74.0,0,192,0.0,92.0
5937,76.0,192,192,0.0,92.0
5938,60.0,0,192,0.0,92.0
5939,77.0,0,192,0.0,92.0
5940,62.0,192,192,0.0,92.0
5941,79.0,192,192,0.0,92.0
5942,52.0,192,960,0.0,102.0
5943,50.0,0,192,0.0,102.0
5944,71.0,192,192,0.0,92.0
5945,52.0,0,192,0.0,102.0
5946,48.0,192,192,0.0,102.0
5947,64.0,0,960,0.0,92.0
5948,72.0,192,576,0.0,92.0
5949,62.0,192,192,0.0,92.0
5950,71.0,0,192,0.0,92.0
5951,72.0,192,192,0.0,92.0
5952,64.0,0,192,0.0,92.0
5953,69.0,192,192,0.0,92.0
5954,60.0,0,192,0.0,92.0
5955,55.0,192,960,0.0,102.0
5956,67.0,0,2688,0.0,92.0
5957,43.0,192,192,0.0,102.0
5958,47.0,0,192,0.0,102.0
5959,65.0,192,384,0.0,92.0
5960,43.0,192,192,0.0,102.0
5961,62.0,192,960,0.0,92.0
5962,71.0,192,0,0.0,92.0
5963,55.0,0,192,0.0,92.0
5964,57.0,192,192,0.0,92.0
5965,72.0,0,192,0.0,92.0
5966,74.0,0,192,0.0,92.0
5967,59.0,192,192,0.0,92.0
5968,76.0,192,192,0.0,92.0
5969,48.0,192,960,0.0,102.0
5970,68.0,192,192,0.0,92.0
5971,47.0,0,192,0.0,102.0
5972,48.0,0,192,0.0,102.0
5973,45.0,192,192,0.0,102.0
5974,60.0,0,960,0.0,92.0
5975,69.0,192,576,0.0,92.0
5976,68.0,0,192,0.0,92.0
5977,59.0,192,192,0.0,92.0
5978,60.0,0,192,0.0,92.0
5979,69.0,192,192,0.0,92.0
5980,57.0,0,192,0.0,92.0
5981,52.0,192,768,0.0,102.0
5982,66.0,192,192,0.0,92.0
5983,64.0,0,2688,0.0,92.0
5984,68.0,0,576,0.0,92.0
5985,62.0,384,384,0.0,92.0
5986,40.0,0,768,0.0,102.0
5987,69.0,0,0,0.0,92.0
5988,59.0,192,768,0.0,92.0
5989,57.0,192,384,0.0,92.0
5990,52.0,384,192,0.0,92.0
5991,61.0,0,768,0.0,92.0
5992,45.0,0,768,0.0,102.0
5993,55.0,192,192,0.0,92.0
5994,54.0,192,384,0.0,92.0
5995,57.0,384,192,0.0,92.0
5996,60.0,0,768,0.0,92.0
5997,54.0,192,192,0.0,92.0
5998,55.0,192,384,0.0,92.0
5999,50.0,384,192,0.0,92.0
6000,53.0,192,192,0.0,92.0
6001,59.0,0,768,0.0,92.0
6002,76.0,192,192,0.0,92.0
6003,52.0,0,384,0.0,92.0
6004,55.0,0,192,0.0,92.0
6005,74.0,192,192,0.0,92.0
6006,76.0,192,192,0.0,92.0
6007,52.0,0,192,0.0,92.0
6008,69.0,192,192,0.0,92.0
6009,71.0,192,192,0.0,92.0
6010,61.0,0,384,0.0,92.0
6011,73.0,192,192,0.0,92.0
6012,67.0,192,1536,0.0,92.0
6013,76.0,192,192,0.0,92.0
6014,74.0,0,192,0.0,92.0
6015,57.0,0,768,0.0,92.0
6016,72.0,192,192,0.0,92.0
6017,70.0,0,192,0.0,92.0
6018,69.0,192,192,0.0,92.0
6019,65.0,192,768,0.0,92.0
6020,67.0,0,192,0.0,92.0
6021,62.0,192,768,0.0,92.0
6022,69.0,192,192,0.0,92.0
6023,70.0,0,192,0.0,92.0
6024,64.0,192,768,0.0,92.0
6025,74.0,192,192,0.0,92.0
6026,72.0,192,192,0.0,92.0
6027,55.0,192,768,0.0,92.0
6028,70.0,192,192,0.0,92.0
6029,69.0,0,192,0.0,92.0
6030,67.0,192,192,0.0,92.0
6031,63.0,0,768,0.0,92.0
6032,66.0,0,192,0.0,92.0
6033,60.0,192,768,0.0,92.0
6034,67.0,192,192,0.0,92.0
6035,69.0,192,192,0.0,92.0
6036,72.0,192,192,0.0,92.0
6037,54.0,0,384,0.0,92.0
6038,70.0,192,192,0.0,92.0
6039,69.0,192,192,0.0,92.0
6040,55.0,0,384,0.0,92.0
6041,67.0,192,192,0.0,92.0
6042,50.0,0,1536,0.0,102.0
6043,65.0,192,192,0.0,92.0
6044,62.0,192,1536,0.0,92.0
6045,64.0,0,192,0.0,92.0
6046,66.0,192,192,0.0,92.0
6047,58.0,0,768,0.0,92.0
6048,67.0,192,192,0.0,92.0
6049,52.0,0,384,0.0,92.0
6050,70.0,192,192,0.0,92.0
6051,49.0,192,768,0.0,102.0
6052,69.0,0,192,0.0,92.0
6053,54.0,0,384,0.0,92.0
6054,67.0,192,192,0.0,92.0
6055,66.0,192,192,0.0,92.0
6056,64.0,192,192,0.0,92.0
6057,48.0,192,768,0.0,102.0
6058,62.0,0,192,0.0,92.0
6059,57.0,0,576,0.0,92.0
6060,55.0,0,192,0.0,92.0
6061,64.0,192,192,0.0,92.0
6062,57.0,192,192,0.0,92.0
6063,66.0,0,192,0.0,92.0
6064,60.0,0,192,0.0,92.0
6065,69.0,192,192,0.0,92.0
6066,46.0,192,768,0.0,102.0
6067,58.0,192,192,0.0,92.0
6068,67.0,0,192,0.0,92.0
6069,65.0,192,192,0.0,92.0
6070,57.0,0,192,0.0,92.0
6071,64.0,192,192,0.0,92.0
6072,55.0,0,192,0.0,92.0
6073,62.0,192,192,0.0,92.0
6074,53.0,0,192,0.0,92.0
6075,52.0,0,192,0.0,92.0
6076,50.0,192,192,0.0,92.0
6077,73.0,192,384,0.0,92.0
6078,49.0,192,192,0.0,92.0
6079,52.0,192,192,0.0,92.0
6080,50.0,0,192,0.0,92.0
6081,69.0,0,768,0.0,92.0
6082,48.0,192,192,0.0,92.0
6083,46.0,0,192,0.0,92.0
6084,53.0,192,768,0.0,102.0
6085,45.0,192,192,0.0,92.0
6086,43.0,192,192,0.0,92.0
6087,55.0,192,192,0.0,92.0
6088,74.0,192,768,0.0,92.0
6089,72.0,0,192,0.0,92.0
6090,57.0,192,192,0.0,92.0
6091,58.0,0,192,0.0,92.0
6092,70.0,192,192,0.0,92.0
6093,52.0,0,768,0.0,102.0
6094,69.0,0,192,0.0,92.0
6095,70.0,192,192,0.0,92.0
6096,67.0,192,192,0.0,92.0
6097,69.0,192,192,0.0,92.0
6098,51.0,192,768,0.0,102.0
6099,66.0,192,192,0.0,92.0
6100,50.0,0,384,0.0,102.0
6101,69.0,192,192,0.0,92.0
6102,67.0,0,192,0.0,92.0
6103,52.0,192,384,0.0,102.0
6104,70.0,192,192,0.0,92.0
6105,69.0,0,192,0.0,92.0
6106,67.0,192,192,0.0,92.0
6107,54.0,192,384,0.0,102.0
6108,66.0,192,192,0.0,92.0
6109,60.0,0,2304,0.0,92.0
6110,64.0,192,192,0.0,92.0
6111,50.0,0,384,0.0,102.0
6112,58.0,0,192,0.0,92.0
6113,62.0,192,192,0.0,92.0
6114,60.0,0,192,0.0,92.0
6115,55.0,0,384,0.0,102.0
6116,63.0,192,192,0.0,92.0
6117,65.0,0,192,0.0,92.0
6118,62.0,192,192,0.0,92.0
6119,65.0,0,192,0.0,92.0
6120,68.0,192,192,0.0,92.0
6121,43.0,0,384,0.0,102.0
6122,63.0,0,192,0.0,92.0
6123,67.0,192,192,0.0,92.0
6124,62.0,192,192,0.0,92.0
6125,65.0,0,192,0.0,92.0
6126,63.0,0,192,0.0,92.0
6127,60.0,192,192,0.0,92.0
6128,70.0,0,1536,0.0,92.0
6129,58.0,0,192,0.0,92.0
6130,62.0,192,192,0.0,92.0
6131,60.0,192,192,0.0,92.0
6132,62.0,192,192,0.0,92.0
6133,55.0,0,1152,0.0,102.0
6134,63.0,192,0,0.0,92.0
6135,48.0,0,192,0.0,102.0
6136,69.0,0,768,0.0,92.0
6137,51.0,192,192,0.0,102.0
6138,67.0,0,192,0.0,92.0
6139,65.0,0,192,0.0,92.0
6140,63.0,192,192,0.0,92.0
6141,50.0,0,384,0.0,102.0
6142,62.0,0,192,0.0,92.0
6143,53.0,192,192,0.0,102.0
6144,68.0,192,768,0.0,92.0
6145,60.0,192,192,0.0,92.0
6146,50.0,0,192,0.0,102.0
6147,58.0,192,192,0.0,92.0
6148,60.0,192,192,0.0,92.0
6149,51.0,0,384,0.0,102.0
6150,46.0,192,192,0.0,102.0
6151,62.0,0,192,0.0,92.0
6152,67.0,0,768,0.0,92.0
6153,65.0,192,192,0.0,92.0
6154,50.0,0,192,0.0,102.0
6155,63.0,0,192,0.0,92.0
6156,48.0,192,384,0.0,102.0
6157,62.0,192,192,0.0,92.0
6158,51.0,192,192,0.0,102.0
6159,60.0,0,192,0.0,92.0
6160,58.0,192,192,0.0,92.0
6161,48.0,0,192,0.0,102.0
6162,79.0,0,384,0.0,92.0
6163,60.0,192,192,0.0,92.0
6164,77.0,0,192,0.0,92.0
6165,57.0,0,384,0.0,102.0
6166,58.0,192,192,0.0,92.0
6167,79.0,0,192,0.0,92.0
6168,60.0,0,192,0.0,92.0
6169,81.0,0,192,0.0,92.0
6170,84.0,0,192,0.0,92.0
6171,75.0,0,1536,0.0,92.0
6172,57.0,192,192,0.0,92.0
6173,82.0,0,192,0.0,92.0
6174,58.0,192,192,0.0,92.0
6175,81.0,192,192,0.0,92.0
6176,53.0,192,768,0.0,102.0
6177,60.0,0,192,0.0,92.0
6178,79.0,192,192,0.0,92.0
6179,62.0,0,192,0.0,92.0
6180,58.0,0,192,0.0,92.0
6181,77.0,192,192,0.0,92.0
6182,74.0,0,768,0.0,92.0
6183,65.0,192,192,0.0,92.0
6184,76.0,0,384,0.0,92.0
6185,60.0,192,192,0.0,92.0
6186,62.0,0,192,0.0,92.0
6187,77.0,192,192,0.0,92.0
6188,57.0,0,192,0.0,102.0
6189,79.0,192,192,0.0,92.0
6190,64.0,0,192,0.0,92.0
6191,55.0,0,192,0.0,102.0
6192,65.0,0,192,0.0,92.0
6193,81.0,192,384,0.0,92.0
6194,64.0,192,192,0.0,92.0
6195,53.0,0,384,0.0,102.0
6196,65.0,0,192,0.0,92.0
6197,52.0,0,384,0.0,102.0
6198,67.0,192,192,0.0,92.0
6199,79.0,192,384,0.0,92.0
6200,69.0,0,192,0.0,92.0
6201,72.0,0,1728,0.0,92.0
6202,76.0,0,192,0.0,92.0
6203,67.0,192,192,0.0,92.0
6204,65.0,192,192,0.0,92.0
6205,74.0,0,192,0.0,92.0
6206,72.0,0,192,0.0,92.0
6207,50.0,192,768,0.0,102.0
6208,64.0,192,192,0.0,92.0
6209,71.0,192,192,0.0,92.0
6210,62.0,0,192,0.0,92.0
6211,72.0,0,192,0.0,92.0
6212,60.0,192,192,0.0,92.0
6213,69.0,192,192,0.0,92.0
6214,77.0,0,1536,0.0,92.0
6215,71.0,192,192,0.0,92.0
6216,55.0,0,768,0.0,102.0
6217,62.0,0,384,0.0,92.0
6218,72.0,0,192,0.0,92.0
6219,69.0,192,192,0.0,92.0
6220,60.0,0,384,0.0,92.0
6221,55.0,0,192,0.0,92.0
6222,70.0,192,192,0.0,92.0
6223,48.0,0,768,0.0,102.0
6224,76.0,192,768,0.0,92.0
6225,67.0,0,192,0.0,92.0
6226,58.0,192,192,0.0,92.0
6227,57.0,192,384,0.0,92.0
6228,53.0,192,192,0.0,102.0
6229,51.0,192,192,0.0,102.0
6230,60.0,0,192,0.0,92.0
6231,57.0,0,192,0.0,92.0
6232,53.0,192,192,0.0,102.0
6233,75.0,0,768,0.0,92.0
6234,65.0,0,960,0.0,92.0
6235,67.0,192,192,0.0,92.0
6236,58.0,0,384,0.0,92.0
6237,69.0,192,192,0.0,92.0
6238,53.0,0,192,0.0,92.0
6239,57.0,0,192,0.0,92.0
6240,46.0,0,768,0.0,102.0
6241,72.0,192,192,0.0,92.0
6242,74.0,192,768,0.0,92.0
6243,55.0,192,192,0.0,102.0
6244,70.0,0,384,0.0,92.0
6245,53.0,0,192,0.0,102.0
6246,58.0,0,192,0.0,92.0
6247,55.0,0,192,0.0,102.0
6248,74.0,192,384,0.0,92.0
6249,72.0,0,192,0.0,92.0
6250,64.0,0,384,0.0,92.0
6251,65.0,192,192,0.0,92.0
6252,48.0,192,384,0.0,102.0
6253,67.0,0,192,0.0,92.0
6254,52.0,0,192,0.0,102.0
6255,48.0,0,192,0.0,102.0
6256,82.0,0,1536,0.0,92.0
6257,64.0,192,192,0.0,92.0
6258,65.0,0,192,0.0,92.0
6259,60.0,192,768,0.0,92.0
6260,53.0,192,384,0.0,102.0
6261,67.0,192,192,0.0,92.0
6262,50.0,0,192,0.0,102.0
6263,69.0,0,384,0.0,92.0
6264,81.0,0,768,0.0,92.0
6265,53.0,192,192,0.0,102.0
6266,74.0,0,192,0.0,92.0
6267,65.0,192,768,0.0,92.0
6268,46.0,192,384,0.0,102.0
6269,69.0,192,192,0.0,92.0
6270,70.0,0,192,0.0,92.0
6271,64.0,192,192,0.0,92.0
6272,62.0,0,192,0.0,92.0
6273,67.0,192,192,0.0,92.0
6274,43.0,0,384,0.0,102.0
6275,60.0,0,192,0.0,92.0
6276,48.0,0,384,0.0,102.0
6277,76.0,192,384,0.0,92.0
6278,62.0,192,192,0.0,92.0
6279,58.0,0,192,0.0,92.0
6280,36.0,192,384,0.0,102.0
6281,60.0,192,192,0.0,92.0
6282,57.0,0,192,0.0,92.0
6283,75.0,0,768,0.0,92.0
6284,79.0,0,1920,0.0,92.0
6285,55.0,192,192,0.0,92.0
6286,77.0,192,192,0.0,92.0
6287,57.0,0,192,0.0,92.0
6288,79.0,0,192,0.0,92.0
6289,58.0,192,192,0.0,92.0
6290,74.0,0,384,0.0,92.0
6291,60.0,0,192,0.0,92.0
6292,81.0,0,384,0.0,92.0
6293,58.0,192,192,0.0,92.0
6294,72.0,192,384,0.0,92.0
6295,56.0,0,192,0.0,92.0
6296,41.0,192,1536,0.0,102.0
6297,74.0,192,384,0.0,92.0
6298,83.0,0,384,0.0,92.0
6299,58.0,192,192,0.0,92.0
6300,76.0,0,192,0.0,92.0
6301,60.0,192,192,0.0,92.0
6302,84.0,0,384,0.0,92.0
6303,55.0,0,384,0.0,92.0
6304,79.0,192,192,0.0,92.0
6305,64.0,0,192,0.0,92.0
6306,67.0,192,192,0.0,92.0
6307,82.0,0,192,0.0,92.0
6308,40.0,192,768,0.0,102.0
6309,53.0,192,192,0.0,92.0
6310,81.0,0,384,0.0,92.0
6311,57.0,192,192,0.0,92.0
6312,84.0,0,192,0.0,92.0
6313,39.0,0,768,0.0,102.0
6314,81.0,192,192,0.0,92.0
6315,60.0,0,192,0.0,92.0
6316,72.0,192,768,0.0,92.0
6317,74.0,192,192,0.0,92.0
6318,82.0,0,384,0.0,92.0
6319,65.0,0,384,0.0,92.0
6320,70.0,0,192,0.0,92.0
6321,77.0,192,192,0.0,92.0
6322,65.0,0,192,0.0,92.0
6323,81.0,192,192,0.0,92.0
6324,38.0,192,768,0.0,102.0
6325,62.0,192,192,0.0,92.0
6326,60.0,192,192,0.0,92.0
6327,79.0,0,384,0.0,92.0
6328,82.0,192,192,0.0,92.0
6329,62.0,0,192,0.0,92.0
6330,79.0,192,192,0.0,92.0
6331,58.0,0,192,0.0,92.0
6332,48.0,192,192,0.0,92.0
6333,76.0,0,384,0.0,92.0
6334,55.0,192,384,0.0,92.0
6335,52.0,0,192,0.0,92.0
6336,46.0,0,1536,0.0,102.0
6337,55.0,192,192,0.0,92.0
6338,67.0,192,384,0.0,92.0
6339,60.0,192,192,0.0,92.0
6340,65.0,0,384,0.0,92.0
6341,72.0,0,768,0.0,92.0
6342,62.0,192,192,0.0,92.0
6343,60.0,0,192,0.0,92.0
6344,45.0,0,768,0.0,102.0
6345,57.0,192,192,0.0,92.0
6346,69.0,0,384,0.0,92.0
6347,70.0,0,192,0.0,92.0
6348,77.0,192,768,0.0,92.0
6349,69.0,192,192,0.0,92.0
6350,62.0,0,384,0.0,92.0
6351,76.0,0,192,0.0,92.0
6352,67.0,192,192,0.0,92.0
6353,74.0,192,192,0.0,92.0
6354,65.0,0,192,0.0,92.0
6355,64.0,0,192,0.0,92.0
6356,72.0,192,384,0.0,92.0
6357,65.0,192,192,0.0,92.0
6358,62.0,0,192,0.0,92.0
6359,70.0,192,384,0.0,92.0
6360,64.0,192,192,0.0,92.0
6361,43.0,192,1536,0.0,102.0
6362,41.0,192,384,0.0,102.0
6363,69.0,0,384,0.0,92.0
6364,65.0,0,384,0.0,92.0
6365,62.0,192,192,0.0,92.0
6366,60.0,0,192,0.0,92.0
6367,58.0,192,192,0.0,92.0
6368,74.0,192,384,0.0,92.0
6369,43.0,0,384,0.0,102.0
6370,64.0,0,384,0.0,92.0
6371,57.0,0,192,0.0,92.0
6372,55.0,192,192,0.0,92.0
6373,45.0,0,384,0.0,102.0
6374,72.0,0,384,0.0,92.0
6375,53.0,0,192,0.0,92.0
6376,70.0,0,384,0.0,92.0
6377,62.0,192,384,0.0,92.0
6378,55.0,192,192,0.0,92.0
6379,46.0,0,384,0.0,102.0
6380,57.0,0,192,0.0,92.0
6381,58.0,192,192,0.0,92.0
6382,55.0,192,192,0.0,92.0
6383,69.0,192,0,0.0,92.0
6384,48.0,0,768,0.0,102.0
6385,65.0,192,1536,0.0,92.0
6386,57.0,192,192,0.0,92.0
6387,67.0,48,48,0.0,92.0
6388,69.0,48,48,0.0,92.0
6389,58.0,0,192,0.0,92.0
6390,67.0,48,48,0.0,92.0
6391,69.0,0,48,0.0,92.0
6392,67.0,48,48,0.0,92.0
6393,69.0,48,48,0.0,92.0
6394,67.0,48,48,0.0,92.0
6395,57.0,48,192,0.0,92.0
6396,69.0,0,48,0.0,92.0
6397,67.0,48,48,0.0,92.0
6398,69.0,48,48,0.0,92.0
6399,67.0,48,48,0.0,92.0
6400,69.0,48,48,0.0,92.0
6401,67.0,48,48,0.0,92.0
6402,69.0,48,48,0.0,92.0
6403,60.0,0,0,0.0,92.0
6404,58.0,48,384,0.0,92.0
6405,67.0,48,48,0.0,92.0
6406,64.0,0,768,0.0,92.0
6407,36.0,0,768,0.0,102.0
6408,65.0,0,1536,0.0,92.0
6409,41.0,48,1536,0.0,102.0
6410,57.0,0,1536,0.0,92.0
