,note,step,duration,channel,velocity
0,64.0,0,92,1.0,68.0
1,60.0,2,101,2.0,70.0
2,48.0,2,100,3.0,80.0
3,67.0,4,106,4.0,68.0
4,48.0,0,113,6.0,80.0
5,67.0,0,124,0.0,72.0
6,67.0,0,122,5.0,72.0
7,60.0,2,110,3.0,87.0
8,60.0,226,116,6.0,80.0
9,72.0,3,135,0.0,80.0
10,72.0,0,137,5.0,82.0
11,64.0,0,151,1.0,64.0
12,72.0,4,157,4.0,85.0
13,48.0,223,108,6.0,70.0
14,48.0,1,111,3.0,87.0
15,55.0,4,355,2.0,70.0
16,76.0,5,143,5.0,80.0
17,76.0,3,148,0.0,85.0
18,76.0,4,144,4.0,82.0
19,67.0,5,148,1.0,80.0
20,74.0,3,135,4.0,57.0
21,74.0,97,147,5.0,70.0
22,65.0,7,133,1.0,68.0
23,74.0,9,146,0.0,78.0
24,59.0,106,111,6.0,80.0
25,59.0,7,111,3.0,80.0
26,55.0,1,113,2.0,70.0
27,64.0,2,117,1.0,66.0
28,72.0,2,118,5.0,64.0
29,72.0,0,127,0.0,68.0
30,72.0,0,130,4.0,64.0
31,62.0,109,83,1.0,74.0
32,71.0,4,75,4.0,66.0
33,71.0,1,79,0.0,72.0
34,71.0,5,90,5.0,76.0
35,72.0,5,73,0.0,76.0
36,64.0,121,81,1.0,66.0
37,72.0,2,81,5.0,72.0
38,72.0,0,80,4.0,80.0
39,57.0,1,105,6.0,78.0
40,57.0,4,107,3.0,89.0
41,74.0,3,77,4.0,82.0
42,74.0,5,71,0.0,82.0
43,74.0,2,79,5.0,82.0
44,65.0,100,86,1.0,76.0
45,67.0,1,64,1.0,68.0
46,76.0,112,65,4.0,76.0
47,76.0,0,66,5.0,70.0
48,76.0,1,68,0.0,82.0
49,55.0,3,97,6.0,68.0
50,55.0,12,97,3.0,82.0
51,60.0,0,346,2.0,68.0
52,77.0,97,62,4.0,85.0
53,69.0,1,66,1.0,70.0
54,77.0,4,65,5.0,80.0
55,77.0,2,66,0.0,87.0
56,53.0,0,106,6.0,74.0
57,53.0,2,113,3.0,80.0
58,62.0,0,123,2.0,78.0
59,71.0,117,144,1.0,70.0
60,64.0,0,104,2.0,80.0
61,52.0,234,104,3.0,87.0
62,52.0,0,118,6.0,85.0
63,79.0,0,394,4.0,89.0
64,79.0,9,394,0.0,87.0
65,79.0,6,425,5.0,87.0
66,53.0,1,107,6.0,78.0
67,53.0,6,108,3.0,82.0
68,81.0,1,102,4.0,80.0
69,60.0,228,120,2.0,68.0
70,81.0,3,117,0.0,85.0
71,72.0,7,356,1.0,80.0
72,81.0,3,124,5.0,82.0
73,77.0,0,102,5.0,82.0
74,77.0,4,113,4.0,82.0
75,50.0,224,118,3.0,85.0
76,50.0,7,110,6.0,72.0
77,65.0,1,121,2.0,74.0
78,72.0,3,126,1.0,70.0
79,77.0,0,118,0.0,82.0
80,55.0,7,111,3.0,82.0
81,55.0,2,110,6.0,85.0
82,67.0,1,127,2.0,60.0
83,71.0,3,146,1.0,76.0
84,74.0,4,142,0.0,82.0
85,74.0,5,144,4.0,70.0
86,74.0,221,180,5.0,82.0
87,43.0,2,85,3.0,89.0
88,43.0,7,101,6.0,78.0
89,72.0,1,108,1.0,68.0
90,69.0,222,121,2.0,74.0
91,72.0,0,141,0.0,85.0
92,72.0,2,146,5.0,82.0
93,72.0,7,140,4.0,78.0
94,71.0,92,136,0.0,68.0
95,71.0,3,134,5.0,72.0
96,71.0,12,132,4.0,78.0
97,53.0,4,97,6.0,74.0
98,53.0,8,103,3.0,85.0
99,74.0,0,102,1.0,80.0
100,71.0,0,110,2.0,87.0
101,69.0,5,124,5.0,68.0
102,69.0,100,139,0.0,72.0
103,69.0,2,126,4.0,66.0
104,67.0,2,82,5.0,68.0
105,67.0,0,84,4.0,68.0
106,67.0,100,90,0.0,70.0
107,52.0,3,99,3.0,89.0
108,52.0,4,107,6.0,85.0
109,72.0,4,117,4.0,82.0
110,72.0,0,128,2.0,82.0
111,72.0,1,140,0.0,82.0
112,72.0,136,148,5.0,80.0
113,60.0,223,97,3.0,82.0
114,60.0,1,119,6.0,80.0
115,60.0,7,104,2.0,66.0
116,67.0,0,377,1.0,66.0
117,76.0,5,132,0.0,87.0
118,76.0,7,142,5.0,87.0
119,76.0,1,148,4.0,89.0
120,74.0,96,148,0.0,78.0
121,74.0,3,143,4.0,78.0
122,74.0,9,146,5.0,82.0
123,62.0,0,92,2.0,80.0
124,59.0,3,115,3.0,82.0
125,59.0,3,118,6.0,85.0
126,67.0,9,105,1.0,68.0
127,72.0,4,117,4.0,64.0
128,72.0,112,133,0.0,68.0
129,72.0,1,141,5.0,63.0
130,71.0,8,75,4.0,60.0
131,71.0,95,99,0.0,64.0
132,71.0,7,89,5.0,60.0
133,57.0,0,116,3.0,87.0
134,57.0,2,102,6.0,70.0
135,74.0,9,135,5.0,85.0
136,74.0,1,148,4.0,89.0
137,74.0,1,150,0.0,87.0
138,72.0,2,134,5.0,66.0
139,72.0,3,139,4.0,68.0
140,72.0,101,151,0.0,78.0
141,55.0,109,99,3.0,82.0
142,55.0,1,105,6.0,80.0
143,71.0,1,114,4.0,66.0
144,64.0,109,366,2.0,85.0
145,71.0,4,118,5.0,66.0
146,71.0,6,135,0.0,66.0
147,69.0,11,370,1.0,78.0
148,69.0,108,74,5.0,70.0
149,69.0,2,73,4.0,70.0
150,69.0,2,86,0.0,76.0
151,54.0,5,105,6.0,74.0
152,62.0,115,112,2.0,78.0
153,54.0,0,112,3.0,76.0
154,69.0,2,156,1.0,76.0
155,55.0,3,103,6.0,76.0
156,55.0,219,106,3.0,80.0
157,67.0,1,107,2.0,85.0
158,71.0,5,109,1.0,68.0
159,74.0,4,409,4.0,80.0
160,74.0,8,415,5.0,82.0
161,74.0,6,409,0.0,76.0
162,72.0,237,78,5.0,72.0
163,72.0,0,73,0.0,78.0
164,47.0,1,96,3.0,85.0
165,67.0,4,106,1.0,76.0
166,62.0,0,111,2.0,80.0
167,72.0,1,100,4.0,78.0
168,47.0,7,112,6.0,85.0
169,71.0,104,73,5.0,82.0
170,71.0,7,68,4.0,68.0
171,71.0,4,75,0.0,70.0
172,69.0,109,81,5.0,74.0
173,69.0,2,80,4.0,70.0
174,69.0,2,81,0.0,68.0
175,50.0,4,90,3.0,82.0
176,66.0,3,99,1.0,72.0
177,60.0,1,98,2.0,74.0
178,50.0,1,102,6.0,78.0
179,71.0,1,75,4.0,80.0
180,71.0,105,84,5.0,82.0
181,71.0,4,80,0.0,82.0
182,43.0,3,125,6.0,82.0
183,43.0,5,156,3.0,89.0
184,55.0,222,71,6.0,70.0
185,55.0,11,79,3.0,74.0
186,67.0,0,339,4.0,85.0
187,67.0,2,341,0.0,80.0
188,62.0,126,348,1.0,82.0
189,67.0,1,354,5.0,80.0
190,59.0,0,361,2.0,74.0
191,53.0,97,66,6.0,78.0
192,53.0,10,68,3.0,87.0
193,52.0,104,65,6.0,70.0
194,52.0,12,79,3.0,80.0
195,60.0,0,111,2.0,74.0
196,64.0,9,103,1.0,80.0
197,67.0,4,120,4.0,80.0
198,67.0,4,119,5.0,82.0
199,67.0,23,107,0.0,82.0
200,50.0,60,72,6.0,76.0
201,50.0,7,71,3.0,80.0
202,48.0,5,105,6.0,87.0
203,48.0,129,120,3.0,82.0
204,72.0,8,111,4.0,82.0
205,72.0,6,137,0.0,85.0
206,72.0,2,151,5.0,85.0
207,64.0,1,170,1.0,76.0
208,60.0,8,96,6.0,82.0
209,60.0,0,100,3.0,82.0
210,76.0,224,144,4.0,89.0
211,76.0,4,134,0.0,85.0
212,76.0,1,140,5.0,91.0
213,55.0,1,381,2.0,78.0
214,67.0,6,140,1.0,80.0
215,65.0,7,127,1.0,70.0
216,74.0,1,139,0.0,80.0
217,74.0,96,147,4.0,82.0
218,74.0,0,142,5.0,80.0
219,59.0,6,115,6.0,74.0
220,72.0,109,126,0.0,64.0
221,59.0,14,111,3.0,80.0
222,64.0,2,132,1.0,64.0
223,55.0,12,101,2.0,80.0
224,72.0,1,129,4.0,76.0
225,72.0,0,134,5.0,72.0
226,62.0,6,79,1.0,76.0
227,71.0,84,91,0.0,68.0
228,71.0,7,79,4.0,76.0
229,71.0,6,77,5.0,78.0
230,72.0,3,79,0.0,70.0
231,72.0,5,70,5.0,80.0
232,64.0,1,83,1.0,70.0
233,72.0,7,72,4.0,80.0
234,57.0,114,105,6.0,68.0
235,57.0,1,124,3.0,85.0
236,74.0,3,71,5.0,76.0
237,74.0,0,75,4.0,85.0
238,74.0,0,75,0.0,78.0
239,65.0,100,81,1.0,70.0
240,67.0,0,68,1.0,72.0
241,76.0,2,61,5.0,80.0
242,76.0,112,70,4.0,82.0
243,76.0,1,68,0.0,80.0
244,55.0,5,98,6.0,74.0
245,55.0,0,119,3.0,60.0
246,60.0,2,368,2.0,68.0
247,77.0,6,62,5.0,87.0
248,69.0,105,68,1.0,74.0
249,77.0,0,66,4.0,85.0
250,77.0,2,69,0.0,85.0
251,53.0,3,97,6.0,72.0
252,71.0,113,119,1.0,78.0
253,53.0,1,119,3.0,87.0
254,62.0,5,129,2.0,82.0
255,52.0,14,105,6.0,85.0
256,64.0,2,112,2.0,85.0
257,52.0,222,131,3.0,91.0
258,79.0,5,373,0.0,85.0
259,79.0,1,381,4.0,87.0
260,79.0,3,406,5.0,87.0
261,60.0,8,102,2.0,74.0
262,81.0,0,110,4.0,78.0
263,53.0,227,116,3.0,80.0
264,53.0,6,113,6.0,72.0
265,81.0,0,119,0.0,82.0
266,81.0,4,111,5.0,80.0
267,72.0,0,383,1.0,80.0
268,72.0,6,100,1.0,85.0
269,50.0,0,107,6.0,66.0
270,50.0,223,116,3.0,85.0
271,77.0,2,122,4.0,82.0
272,65.0,0,128,2.0,80.0
273,77.0,1,138,5.0,80.0
274,77.0,5,152,0.0,80.0
275,76.0,1,43,0.0,93.0
276,76.0,5,52,4.0,82.0
277,76.0,5,54,5.0,87.0
278,74.0,32,40,0.0,85.0
279,74.0,7,41,4.0,66.0
280,74.0,11,42,5.0,60.0
281,55.0,3,108,6.0,80.0
282,55.0,0,111,3.0,89.0
283,76.0,6,38,5.0,64.0
284,76.0,17,54,0.0,80.0
285,67.0,4,132,2.0,72.0
286,76.0,9,48,4.0,87.0
287,71.0,226,143,1.0,80.0
288,76.0,30,34,5.0,72.0
289,74.0,10,104,4.0,68.0
290,74.0,23,116,0.0,70.0
291,74.0,3,142,5.0,76.0
292,43.0,3,92,6.0,80.0
293,43.0,1,107,3.0,87.0
294,72.0,74,116,1.0,78.0
295,69.0,3,123,2.0,80.0
296,72.0,14,117,5.0,82.0
297,72.0,14,135,0.0,89.0
298,72.0,1,137,4.0,76.0
299,71.0,90,123,5.0,53.0
300,71.0,1,131,0.0,66.0
301,71.0,4,142,4.0,68.0
302,53.0,107,110,3.0,85.0
303,71.0,2,108,2.0,85.0
304,53.0,3,103,6.0,78.0
305,74.0,7,115,1.0,82.0
306,69.0,1,115,0.0,63.0
307,69.0,3,118,4.0,61.0
308,69.0,2,136,5.0,80.0
309,67.0,3,74,4.0,70.0
310,67.0,101,83,0.0,74.0
311,67.0,1,89,5.0,68.0
312,52.0,2,126,6.0,80.0
313,72.0,1,115,4.0,82.0
314,52.0,4,126,3.0,93.0
315,72.0,4,132,0.0,80.0
316,72.0,2,143,2.0,74.0
317,72.0,10,143,5.0,80.0
318,60.0,5,99,2.0,72.0
319,60.0,0,104,6.0,82.0
320,60.0,2,99,3.0,82.0
321,76.0,3,124,0.0,85.0
322,76.0,222,136,4.0,91.0
323,76.0,5,126,5.0,93.0
324,67.0,122,388,1.0,70.0
325,74.0,96,135,0.0,80.0
326,74.0,1,142,4.0,80.0
327,74.0,6,143,5.0,78.0
328,62.0,5,99,2.0,85.0
329,59.0,4,123,6.0,72.0
330,72.0,110,131,0.0,61.0
331,72.0,4,123,4.0,60.0
332,72.0,7,119,5.0,66.0
333,67.0,0,127,1.0,61.0
334,59.0,3,125,3.0,82.0
335,71.0,93,85,0.0,62.0
336,71.0,1,84,4.0,61.0
337,71.0,9,85,5.0,72.0
338,57.0,4,114,6.0,74.0
339,57.0,1,115,3.0,85.0
340,74.0,127,143,0.0,87.0
341,74.0,1,139,4.0,85.0
342,74.0,3,141,5.0,85.0
343,72.0,5,141,4.0,68.0
344,72.0,98,148,0.0,78.0
345,72.0,8,145,5.0,66.0
346,55.0,103,109,6.0,68.0
347,71.0,2,118,0.0,61.0
348,71.0,6,116,4.0,64.0
349,55.0,9,125,3.0,68.0
350,71.0,5,118,5.0,60.0
351,64.0,3,374,2.0,85.0
352,69.0,1,409,1.0,78.0
353,69.0,4,66,5.0,70.0
354,69.0,1,73,4.0,68.0
355,69.0,105,75,0.0,78.0
356,54.0,3,110,6.0,68.0
357,54.0,111,117,3.0,76.0
358,62.0,3,114,2.0,66.0
359,69.0,11,134,1.0,78.0
360,55.0,222,103,3.0,87.0
361,55.0,8,106,6.0,80.0
362,67.0,3,105,2.0,85.0
363,71.0,3,125,1.0,82.0
364,74.0,1,417,4.0,80.0
365,74.0,5,418,0.0,80.0
366,74.0,0,434,5.0,82.0
367,72.0,1,85,4.0,80.0
368,72.0,11,73,5.0,85.0
369,72.0,1,90,0.0,78.0
370,47.0,222,110,3.0,82.0
371,47.0,5,99,6.0,82.0
372,62.0,1,113,2.0,82.0
373,67.0,9,117,1.0,74.0
374,71.0,2,71,0.0,72.0
375,71.0,98,74,4.0,74.0
376,71.0,7,71,5.0,80.0
377,50.0,3,82,3.0,89.0
378,69.0,2,87,0.0,68.0
379,69.0,0,82,5.0,76.0
380,50.0,1,86,6.0,80.0
381,69.0,111,95,4.0,70.0
382,66.0,0,107,1.0,74.0
383,60.0,3,107,2.0,72.0
384,71.0,7,81,0.0,85.0
385,71.0,6,75,5.0,85.0
386,71.0,107,89,4.0,85.0
387,59.0,0,286,2.0,82.0
388,67.0,0,289,4.0,85.0
389,43.0,1,301,3.0,87.0
390,62.0,117,316,1.0,72.0
391,43.0,0,314,6.0,82.0
392,67.0,6,316,0.0,80.0
393,67.0,6,331,5.0,82.0
394,71.0,462,92,1.0,82.0
395,74.0,0,91,5.0,85.0
396,67.0,10,107,2.0,72.0
397,43.0,4,104,3.0,76.0
398,74.0,2,113,0.0,78.0
399,74.0,0,118,4.0,76.0
400,43.0,10,105,6.0,70.0
401,55.0,1,90,6.0,72.0
402,55.0,3,113,3.0,68.0
403,71.0,4,165,5.0,74.0
404,71.0,0,176,0.0,64.0
405,71.0,2,185,4.0,70.0
406,62.0,0,327,2.0,68.0
407,57.0,2,94,6.0,70.0
408,67.0,215,349,1.0,70.0
409,57.0,2,121,3.0,70.0
410,72.0,1,130,4.0,78.0
411,72.0,227,141,5.0,76.0
412,72.0,5,138,0.0,82.0
413,71.0,2,122,4.0,70.0
414,71.0,101,133,0.0,76.0
415,71.0,2,135,5.0,82.0
416,67.0,0,109,1.0,70.0
417,59.0,0,106,6.0,72.0
418,69.0,6,110,4.0,59.0
419,69.0,2,113,5.0,64.0
420,69.0,112,123,0.0,64.0
421,59.0,3,111,3.0,64.0
422,62.0,2,115,2.0,74.0
423,67.0,99,55,4.0,68.0
424,67.0,1,64,0.0,68.0
425,67.0,8,59,5.0,74.0
426,60.0,22,111,3.0,68.0
427,60.0,0,110,6.0,80.0
428,67.0,106,141,1.0,72.0
429,76.0,5,125,0.0,82.0
430,60.0,2,130,2.0,66.0
431,76.0,0,127,5.0,85.0
432,76.0,6,127,4.0,78.0
433,77.0,99,115,0.0,76.0
434,77.0,4,117,4.0,70.0
435,77.0,4,127,5.0,68.0
436,48.0,5,83,6.0,76.0
437,76.0,9,108,1.0,76.0
438,79.0,97,124,0.0,70.0
439,48.0,2,102,3.0,63.0
440,79.0,4,121,4.0,66.0
441,79.0,3,126,5.0,61.0
442,72.0,1,124,2.0,72.0
443,81.0,95,76,0.0,68.0
444,81.0,14,79,4.0,70.0
445,81.0,1,98,5.0,68.0
446,50.0,0,104,6.0,76.0
447,65.0,9,114,2.0,74.0
448,74.0,110,124,1.0,74.0
449,50.0,4,116,3.0,78.0
450,52.0,227,108,6.0,68.0
451,64.0,0,107,2.0,78.0
452,52.0,1,108,3.0,72.0
453,73.0,3,117,1.0,70.0
454,82.0,4,405,5.0,64.0
455,82.0,7,422,4.0,72.0
456,82.0,1,442,0.0,85.0
457,49.0,4,98,6.0,63.0
458,76.0,2,92,1.0,80.0
459,49.0,235,104,3.0,66.0
460,57.0,5,106,2.0,68.0
461,81.0,2,108,5.0,68.0
462,81.0,6,107,4.0,70.0
463,81.0,9,117,0.0,76.0
464,73.0,1,90,1.0,63.0
465,69.0,0,111,2.0,60.0
466,79.0,6,109,5.0,68.0
467,79.0,219,116,0.0,78.0
468,45.0,1,113,6.0,64.0
469,79.0,0,105,4.0,66.0
470,45.0,8,105,3.0,64.0
471,50.0,3,107,6.0,78.0
472,50.0,5,121,3.0,76.0
473,77.0,4,150,5.0,63.0
474,77.0,219,165,0.0,78.0
475,77.0,1,153,4.0,68.0
476,48.0,1,87,6.0,60.0
477,48.0,0,99,3.0,68.0
478,69.0,1,335,2.0,80.0
479,74.0,0,338,1.0,74.0
480,79.0,233,136,5.0,74.0
481,79.0,1,139,4.0,80.0
482,79.0,0,143,0.0,74.0
483,77.0,105,146,5.0,68.0
484,77.0,4,137,0.0,63.0
485,77.0,5,144,4.0,70.0
486,46.0,2,88,6.0,63.0
487,67.0,117,105,1.0,66.0
488,76.0,0,100,0.0,70.0
489,70.0,0,101,2.0,68.0
490,46.0,1,101,3.0,63.0
491,76.0,5,113,5.0,63.0
492,76.0,3,116,4.0,64.0
493,74.0,107,76,0.0,68.0
494,74.0,5,81,5.0,70.0
495,74.0,1,82,4.0,68.0
496,73.0,115,69,0.0,63.0
497,73.0,2,85,5.0,64.0
498,73.0,5,86,4.0,61.0
499,45.0,0,107,3.0,66.0
500,45.0,3,104,6.0,64.0
501,64.0,4,164,2.0,74.0
502,74.0,92,78,0.0,64.0
503,74.0,5,79,4.0,70.0
504,74.0,10,85,5.0,66.0
505,69.0,2,251,1.0,74.0
506,57.0,3,82,2.0,66.0
507,49.0,2,98,6.0,58.0
508,49.0,112,102,3.0,62.0
509,76.0,0,118,5.0,66.0
510,76.0,2,135,0.0,85.0
511,76.0,9,131,4.0,64.0
512,59.0,116,67,2.0,80.0
513,69.0,111,74,1.0,76.0
514,61.0,4,77,2.0,78.0
515,52.0,0,88,6.0,68.0
516,52.0,2,101,3.0,70.0
517,62.0,3,75,2.0,82.0
518,71.0,101,86,1.0,64.0
519,73.0,120,78,1.0,68.0
520,64.0,3,119,2.0,80.0
521,81.0,1,404,0.0,82.0
522,81.0,0,402,4.0,76.0
523,81.0,4,410,5.0,76.0
524,74.0,99,70,1.0,72.0
525,76.0,125,116,1.0,78.0
526,79.0,5,132,0.0,82.0
527,79.0,6,133,4.0,82.0
528,79.0,0,137,5.0,72.0
529,69.0,0,180,2.0,85.0
530,77.0,4,126,5.0,70.0
531,55.0,5,478,6.0,68.0
532,55.0,16,486,3.0,72.0
533,77.0,5,138,4.0,68.0
534,77.0,104,147,0.0,64.0
535,67.0,119,77,2.0,82.0
536,76.0,3,121,0.0,59.0
537,76.0,3,121,4.0,66.0
538,76.0,0,129,5.0,59.0
539,65.0,4,77,2.0,72.0
540,74.0,4,85,5.0,66.0
541,74.0,109,98,0.0,59.0
542,74.0,3,92,4.0,61.0
543,64.0,3,79,2.0,68.0
544,55.0,0,109,3.0,70.0
545,55.0,13,100,6.0,64.0
546,73.0,0,135,0.0,78.0
547,73.0,116,137,5.0,64.0
548,73.0,1,136,4.0,76.0
549,81.0,1,396,1.0,85.0
550,62.0,1,63,2.0,66.0
551,74.0,1,135,4.0,70.0
552,74.0,87,152,0.0,74.0
553,74.0,11,141,5.0,64.0
554,61.0,119,89,2.0,70.0
555,52.0,4,90,6.0,63.0
556,52.0,3,101,3.0,74.0
557,76.0,1,130,4.0,70.0
558,76.0,2,132,0.0,66.0
559,76.0,2,131,5.0,68.0
560,79.0,0,139,1.0,82.0
561,62.0,100,76,2.0,70.0
562,77.0,1,70,5.0,74.0
563,77.0,2,89,4.0,70.0
564,77.0,4,85,0.0,78.0
565,77.0,4,137,1.0,72.0
566,49.0,0,87,6.0,62.0
567,49.0,2,94,3.0,66.0
568,64.0,1,115,2.0,80.0
569,76.0,0,121,1.0,64.0
570,74.0,102,93,1.0,68.0
571,73.0,131,108,1.0,76.0
572,64.0,2,107,2.0,82.0
573,79.0,119,421,0.0,72.0
574,79.0,0,422,4.0,72.0
575,79.0,11,429,5.0,74.0
576,77.0,4,137,0.0,80.0
577,77.0,6,135,4.0,82.0
578,77.0,0,142,5.0,76.0
579,69.0,227,165,1.0,68.0
580,61.0,1,193,2.0,76.0
581,76.0,107,122,0.0,66.0
582,76.0,1,128,4.0,63.0
583,45.0,3,490,3.0,66.0
584,76.0,7,132,5.0,60.0
585,45.0,7,491,6.0,64.0
586,74.0,116,123,0.0,63.0
587,74.0,4,120,5.0,63.0
588,74.0,6,137,4.0,63.0
589,73.0,96,79,0.0,55.0
590,73.0,4,85,5.0,60.0
591,73.0,13,89,4.0,57.0
592,74.0,104,69,0.0,78.0
593,74.0,5,64,5.0,76.0
594,74.0,1,72,4.0,82.0
595,46.0,2,97,6.0,70.0
596,46.0,2,114,3.0,59.0
597,69.0,97,76,0.0,72.0
598,69.0,10,69,4.0,70.0
599,69.0,5,68,5.0,68.0
600,58.0,2,112,6.0,62.0
601,58.0,3,118,3.0,80.0
602,62.0,11,371,2.0,63.0
603,77.0,110,150,0.0,85.0
604,77.0,4,145,5.0,80.0
605,65.0,3,383,1.0,60.0
606,77.0,0,144,4.0,82.0
607,76.0,106,120,0.0,78.0
608,76.0,8,121,4.0,70.0
609,76.0,0,126,5.0,74.0
610,57.0,8,95,6.0,64.0
611,57.0,1,99,3.0,80.0
612,74.0,105,132,0.0,60.0
613,74.0,0,123,5.0,60.0
614,74.0,7,132,4.0,63.0
615,65.0,1,124,1.0,70.0
616,62.0,3,131,2.0,66.0
617,72.0,98,67,0.0,59.0
618,72.0,4,70,5.0,66.0
619,72.0,4,75,4.0,66.0
620,55.0,1,107,6.0,70.0
621,70.0,116,128,0.0,66.0
622,55.0,8,103,3.0,80.0
623,70.0,8,128,5.0,68.0
624,62.0,4,125,2.0,66.0
625,70.0,0,130,4.0,56.0
626,67.0,4,143,1.0,63.0
627,74.0,84,78,0.0,70.0
628,74.0,10,75,5.0,72.0
629,74.0,9,82,4.0,70.0
630,79.0,2,56,5.0,82.0
631,79.0,4,58,4.0,80.0
632,79.0,5,68,0.0,85.0
633,49.0,112,110,6.0,55.0
634,64.0,1,112,2.0,72.0
635,69.0,3,108,1.0,70.0
636,49.0,0,108,3.0,68.0
637,76.0,9,59,4.0,66.0
638,76.0,1,63,5.0,70.0
639,76.0,104,74,0.0,76.0
640,50.0,113,108,6.0,78.0
641,50.0,7,115,3.0,82.0
642,69.0,0,117,1.0,82.0
643,62.0,1,136,2.0,66.0
644,77.0,1,295,5.0,76.0
645,77.0,5,324,4.0,80.0
646,77.0,5,351,0.0,82.0
647,46.0,229,108,6.0,62.0
648,46.0,5,107,3.0,68.0
649,74.0,0,119,1.0,82.0
650,65.0,3,116,2.0,64.0
651,74.0,11,59,5.0,72.0
652,74.0,10,49,4.0,72.0
653,74.0,104,74,0.0,60.0
654,43.0,1,96,6.0,82.0
655,70.0,0,105,1.0,68.0
656,43.0,3,114,3.0,78.0
657,67.0,3,109,2.0,80.0
658,77.0,104,122,0.0,82.0
659,77.0,4,107,4.0,80.0
660,77.0,4,133,5.0,76.0
661,76.0,96,73,0.0,76.0
662,76.0,7,69,5.0,76.0
663,76.0,18,75,4.0,64.0
664,45.0,1,95,6.0,70.0
665,45.0,12,86,3.0,82.0
666,74.0,94,120,0.0,66.0
667,74.0,7,116,5.0,70.0
668,64.0,9,111,2.0,76.0
669,74.0,4,122,4.0,82.0
670,69.0,0,139,1.0,68.0
671,73.0,3,82,5.0,57.0
672,73.0,81,88,0.0,58.0
673,73.0,12,94,4.0,58.0
674,50.0,0,96,3.0,76.0
675,50.0,1,102,6.0,66.0
676,38.0,219,85,6.0,74.0
677,74.0,2,332,5.0,66.0
678,38.0,6,90,3.0,80.0
679,74.0,123,342,0.0,68.0
680,74.0,12,326,4.0,80.0
681,69.0,2,342,1.0,72.0
682,65.0,4,361,2.0,63.0
683,69.0,3,66,5.0,68.0
684,69.0,0,75,0.0,78.0
685,69.0,1,77,4.0,76.0
686,50.0,2,111,6.0,64.0
687,50.0,235,117,3.0,76.0
688,66.0,0,121,1.0,60.0
689,62.0,3,128,2.0,78.0
690,71.0,1,68,0.0,70.0
691,71.0,7,61,5.0,70.0
692,71.0,112,70,4.0,76.0
693,52.0,2,112,6.0,68.0
694,52.0,1,109,3.0,78.0
695,60.0,2,122,2.0,66.0
696,67.0,114,136,1.0,66.0
697,72.0,2,156,0.0,78.0
698,72.0,1,162,5.0,66.0
699,72.0,1,167,4.0,76.0
700,54.0,1,91,6.0,62.0
701,54.0,2,99,3.0,68.0
702,57.0,227,113,2.0,68.0
703,69.0,3,112,1.0,64.0
704,74.0,3,142,0.0,78.0
705,74.0,6,138,5.0,74.0
706,74.0,0,149,4.0,80.0
707,72.0,98,151,0.0,66.0
708,72.0,7,144,4.0,68.0
709,72.0,8,152,5.0,70.0
710,50.0,109,86,6.0,70.0
711,50.0,6,90,3.0,74.0
712,66.0,4,96,1.0,63.0
713,62.0,0,112,2.0,70.0
714,71.0,0,112,0.0,66.0
715,71.0,1,123,4.0,60.0
716,71.0,0,124,5.0,60.0
717,69.0,103,87,0.0,66.0
718,69.0,15,80,5.0,63.0
719,69.0,2,83,4.0,66.0
720,71.0,111,87,0.0,74.0
721,55.0,4,100,3.0,85.0
722,71.0,0,96,4.0,74.0
723,71.0,1,102,5.0,74.0
724,55.0,0,128,6.0,68.0
725,69.0,100,78,0.0,66.0
726,69.0,0,78,5.0,70.0
727,69.0,15,82,4.0,68.0
728,67.0,109,87,0.0,70.0
729,67.0,3,92,4.0,68.0
730,62.0,4,329,2.0,78.0
731,43.0,12,87,3.0,82.0
732,67.0,4,106,5.0,68.0
733,43.0,0,106,6.0,63.0
734,67.0,7,361,1.0,78.0
735,69.0,1,82,0.0,70.0
736,69.0,2,98,4.0,66.0
737,69.0,98,108,5.0,63.0
738,71.0,1,73,0.0,70.0
739,71.0,5,84,4.0,72.0
740,71.0,0,86,5.0,72.0
741,45.0,3,93,6.0,68.0
742,60.0,121,114,2.0,62.0
743,45.0,1,104,3.0,70.0
744,72.0,98,87,0.0,59.0
745,72.0,5,93,4.0,62.0
746,72.0,2,101,5.0,63.0
747,74.0,116,92,0.0,85.0
748,74.0,0,105,5.0,70.0
749,47.0,6,114,6.0,68.0
750,47.0,2,112,3.0,78.0
751,74.0,2,117,4.0,80.0
752,55.0,4,127,2.0,68.0
753,65.0,1,373,1.0,80.0
754,76.0,102,84,0.0,85.0
755,76.0,4,90,5.0,66.0
756,76.0,3,96,4.0,78.0
757,43.0,0,98,3.0,61.0
758,43.0,4,102,6.0,66.0
759,77.0,116,125,0.0,82.0
760,71.0,5,116,1.0,70.0
761,67.0,3,117,2.0,66.0
762,77.0,2,131,5.0,80.0
763,77.0,2,128,4.0,82.0
764,48.0,232,98,6.0,70.0
765,48.0,0,102,3.0,70.0
766,72.0,0,106,1.0,72.0
767,76.0,1,115,0.0,82.0
768,67.0,7,111,2.0,72.0
769,76.0,2,124,4.0,72.0
770,76.0,4,143,5.0,68.0
771,71.0,2,91,1.0,82.0
772,74.0,225,115,0.0,80.0
773,74.0,2,107,4.0,80.0
774,74.0,2,111,5.0,68.0
775,67.0,4,124,2.0,78.0
776,72.0,90,62,0.0,78.0
777,69.0,1,72,1.0,80.0
778,72.0,5,88,4.0,64.0
779,72.0,3,101,5.0,64.0
780,71.0,103,79,0.0,78.0
781,71.0,3,93,4.0,68.0
782,71.0,8,101,5.0,62.0
783,43.0,6,344,3.0,72.0
784,67.0,6,115,1.0,66.0
785,62.0,4,107,2.0,60.0
786,43.0,13,388,6.0,76.0
787,69.0,10,70,1.0,80.0
788,72.0,94,80,0.0,76.0
789,72.0,6,95,4.0,70.0
790,72.0,0,106,5.0,66.0
791,74.0,4,70,0.0,78.0
792,71.0,109,82,1.0,82.0
793,74.0,3,88,4.0,78.0
794,74.0,1,92,5.0,68.0
795,67.0,4,127,2.0,70.0
796,55.0,4,131,3.0,70.0
797,55.0,10,144,6.0,70.0
798,67.0,88,71,1.0,76.0
799,76.0,2,85,0.0,53.0
800,76.0,4,83,4.0,68.0
801,76.0,4,90,5.0,68.0
802,77.0,2,85,0.0,82.0
803,57.0,3,78,6.0,64.0
804,77.0,0,89,5.0,70.0
805,57.0,6,83,3.0,78.0
806,77.0,1,86,4.0,78.0
807,60.0,2,126,2.0,68.0
808,55.0,103,83,3.0,70.0
809,79.0,5,77,4.0,80.0
810,55.0,0,85,6.0,66.0
811,79.0,0,83,0.0,80.0
812,79.0,4,91,5.0,72.0
813,53.0,109,95,3.0,64.0
814,53.0,1,98,6.0,61.0
815,81.0,1,115,4.0,76.0
816,65.0,0,116,2.0,68.0
817,81.0,9,122,0.0,80.0
818,81.0,6,116,5.0,82.0
819,72.0,122,405,1.0,78.0
820,52.0,92,90,3.0,64.0
821,52.0,8,106,6.0,59.0
822,53.0,119,82,3.0,78.0
823,53.0,1,98,6.0,72.0
824,71.0,0,107,1.0,66.0
825,62.0,16,114,2.0,68.0
826,50.0,96,80,3.0,68.0
827,50.0,3,109,6.0,64.0
828,79.0,1,352,4.0,82.0
829,72.0,2,113,1.0,76.0
830,79.0,1,367,5.0,82.0
831,52.0,4,125,3.0,82.0
832,67.0,1,126,2.0,80.0
833,79.0,5,363,0.0,85.0
834,52.0,133,140,6.0,70.0
835,70.0,232,82,0.0,70.0
836,70.0,8,92,5.0,63.0
837,70.0,0,99,4.0,72.0
838,50.0,0,106,3.0,66.0
839,65.0,4,108,1.0,70.0
840,65.0,1,115,2.0,63.0
841,50.0,6,113,6.0,70.0
842,69.0,92,79,0.0,64.0
843,69.0,5,78,4.0,68.0
844,69.0,4,82,5.0,60.0
845,70.0,113,84,0.0,64.0
846,70.0,0,94,4.0,68.0
847,70.0,1,103,5.0,62.0
848,48.0,8,105,3.0,70.0
849,67.0,3,118,2.0,68.0
850,64.0,3,122,1.0,63.0
851,48.0,7,114,6.0,62.0
852,67.0,1,82,4.0,66.0
853,67.0,92,83,0.0,68.0
854,67.0,11,88,5.0,68.0
855,69.0,118,100,0.0,85.0
856,69.0,5,97,4.0,85.0
857,69.0,3,107,5.0,74.0
858,53.0,2,108,6.0,70.0
859,60.0,1,115,2.0,64.0
860,53.0,0,119,3.0,76.0
861,65.0,0,120,1.0,66.0
862,50.0,227,103,6.0,66.0
863,74.0,0,96,4.0,85.0
864,50.0,0,101,3.0,68.0
865,74.0,0,103,0.0,85.0
866,69.0,5,104,1.0,70.0
867,74.0,4,100,5.0,80.0
868,65.0,6,111,2.0,76.0
869,55.0,0,90,6.0,80.0
870,71.0,3,92,0.0,82.0
871,71.0,4,99,4.0,82.0
872,55.0,0,103,3.0,82.0
873,71.0,0,107,5.0,70.0
874,62.0,229,113,2.0,74.0
875,67.0,4,109,1.0,74.0
876,48.0,3,311,3.0,72.0
877,72.0,239,329,4.0,80.0
878,64.0,3,330,2.0,68.0
879,48.0,2,337,6.0,76.0
880,72.0,2,340,0.0,78.0
881,72.0,0,355,5.0,70.0
882,67.0,4,357,1.0,70.0
883,74.0,4,89,4.0,85.0
884,74.0,462,98,0.0,87.0
885,67.0,2,107,2.0,78.0
886,71.0,1,108,1.0,80.0
887,43.0,1,111,6.0,80.0
888,74.0,3,113,5.0,68.0
889,43.0,0,121,3.0,80.0
890,55.0,4,126,3.0,72.0
891,55.0,4,133,6.0,68.0
892,71.0,2,168,0.0,82.0
893,71.0,7,169,5.0,61.0
894,71.0,4,184,4.0,82.0
895,62.0,218,331,2.0,66.0
896,57.0,1,101,3.0,80.0
897,67.0,0,341,1.0,58.0
898,57.0,226,115,6.0,76.0
899,72.0,1,144,4.0,78.0
900,72.0,4,140,5.0,76.0
901,72.0,3,137,0.0,85.0
902,71.0,2,119,4.0,72.0
903,71.0,106,125,0.0,78.0
904,71.0,4,123,5.0,74.0
905,69.0,3,108,4.0,62.0
906,62.0,3,98,2.0,68.0
907,59.0,1,110,3.0,82.0
908,67.0,8,114,1.0,68.0
909,69.0,111,127,0.0,64.0
910,69.0,0,130,5.0,63.0
911,59.0,1,135,6.0,70.0
912,67.0,101,64,0.0,82.0
913,67.0,6,68,5.0,72.0
914,67.0,2,75,4.0,72.0
915,60.0,0,127,6.0,70.0
916,60.0,122,127,3.0,80.0
917,60.0,5,128,2.0,59.0
918,76.0,4,119,5.0,78.0
919,67.0,0,136,1.0,76.0
920,76.0,4,128,4.0,51.0
921,76.0,1,131,0.0,54.0
922,77.0,2,133,4.0,64.0
923,77.0,95,139,0.0,82.0
924,77.0,9,132,5.0,70.0
925,48.0,7,90,3.0,64.0
926,79.0,108,114,4.0,70.0
927,79.0,3,112,0.0,70.0
928,76.0,0,106,1.0,80.0
929,48.0,5,119,6.0,68.0
930,72.0,2,120,2.0,74.0
931,79.0,3,119,5.0,70.0
932,81.0,90,97,0.0,82.0
933,81.0,4,109,4.0,72.0
934,81.0,21,105,5.0,74.0
935,65.0,0,102,2.0,70.0
936,50.0,2,105,3.0,76.0
937,74.0,4,129,1.0,78.0
938,50.0,105,138,6.0,82.0
939,52.0,9,112,3.0,80.0
940,52.0,218,125,6.0,70.0
941,73.0,0,120,1.0,66.0
942,64.0,7,115,2.0,74.0
943,82.0,8,420,4.0,76.0
944,82.0,4,425,5.0,82.0
945,82.0,2,453,0.0,85.0
946,49.0,232,103,3.0,70.0
947,76.0,0,100,1.0,82.0
948,49.0,7,101,6.0,70.0
949,81.0,6,100,4.0,80.0
950,57.0,6,114,2.0,70.0
951,81.0,1,115,5.0,66.0
952,81.0,4,117,0.0,68.0
953,73.0,3,95,1.0,63.0
954,69.0,8,107,2.0,63.0
955,79.0,2,101,4.0,70.0
956,79.0,3,111,0.0,78.0
957,45.0,216,125,3.0,76.0
958,45.0,0,110,6.0,72.0
959,79.0,4,119,5.0,63.0
960,50.0,213,130,3.0,66.0
961,77.0,0,128,5.0,64.0
962,50.0,9,136,6.0,78.0
963,77.0,8,154,0.0,72.0
964,77.0,1,168,4.0,74.0
965,48.0,213,123,3.0,64.0
966,69.0,6,337,2.0,74.0
967,79.0,0,138,0.0,80.0
968,74.0,0,376,1.0,78.0
969,48.0,18,141,6.0,68.0
970,79.0,3,136,4.0,80.0
971,79.0,7,140,5.0,74.0
972,77.0,10,129,4.0,70.0
973,77.0,100,140,0.0,68.0
974,77.0,0,142,5.0,68.0
975,70.0,6,87,2.0,70.0
976,76.0,1,110,0.0,70.0
977,67.0,4,106,1.0,70.0
978,76.0,2,110,5.0,63.0
979,46.0,117,124,3.0,59.0
980,76.0,0,113,4.0,66.0
981,46.0,0,144,6.0,57.0
982,74.0,103,87,0.0,70.0
983,74.0,4,88,4.0,66.0
984,74.0,6,103,5.0,72.0
985,73.0,4,76,0.0,70.0
986,73.0,3,95,5.0,68.0
987,45.0,110,119,3.0,80.0
988,73.0,0,127,4.0,76.0
989,45.0,2,145,6.0,68.0
990,74.0,97,80,0.0,68.0
991,64.0,4,186,2.0,70.0
992,74.0,4,92,5.0,78.0
993,74.0,14,126,4.0,72.0
994,57.0,3,81,2.0,66.0
995,69.0,3,324,1.0,72.0
996,49.0,8,106,3.0,63.0
997,76.0,108,123,0.0,82.0
998,76.0,3,120,5.0,78.0
999,76.0,3,117,4.0,78.0
1000,49.0,0,130,6.0,62.0
1001,59.0,110,73,2.0,78.0
1002,61.0,0,63,2.0,72.0
1003,69.0,0,80,1.0,78.0
1004,52.0,3,103,3.0,78.0
1005,52.0,10,110,6.0,78.0
1006,62.0,17,73,2.0,80.0
1007,71.0,94,90,1.0,82.0
1008,73.0,112,78,1.0,62.0
1009,64.0,4,140,2.0,72.0
1010,81.0,115,399,0.0,85.0
1011,81.0,1,388,4.0,85.0
1012,81.0,0,408,5.0,76.0
1013,74.0,96,82,1.0,70.0
1014,76.0,125,118,1.0,85.0
1015,79.0,7,136,0.0,80.0
1016,79.0,1,139,4.0,82.0
1017,79.0,13,136,5.0,76.0
1018,69.0,4,197,2.0,78.0
1019,55.0,6,480,6.0,70.0
1020,77.0,91,135,0.0,66.0
1021,77.0,8,132,5.0,70.0
1022,55.0,8,485,3.0,78.0
1023,77.0,8,142,4.0,64.0
1024,67.0,3,76,2.0,78.0
1025,76.0,115,111,0.0,63.0
1026,76.0,0,128,5.0,63.0
1027,76.0,3,126,4.0,70.0
1028,65.0,4,77,2.0,64.0
1029,74.0,107,88,0.0,70.0
1030,74.0,4,86,5.0,70.0
1031,74.0,7,99,4.0,70.0
1032,64.0,106,87,2.0,68.0
1033,55.0,1,127,6.0,68.0
1034,55.0,12,110,3.0,70.0
1035,73.0,6,135,0.0,82.0
1036,73.0,3,139,4.0,68.0
1037,73.0,3,142,5.0,66.0
1038,62.0,1,63,2.0,66.0
1039,81.0,3,430,1.0,82.0
1040,74.0,95,137,0.0,68.0
1041,74.0,8,131,4.0,72.0
1042,74.0,0,148,5.0,66.0
1043,61.0,109,97,2.0,70.0
1044,52.0,3,96,3.0,72.0
1045,52.0,7,107,6.0,57.0
1046,76.0,0,127,0.0,68.0
1047,76.0,5,131,4.0,72.0
1048,76.0,4,128,5.0,70.0
1049,79.0,0,135,1.0,85.0
1050,77.0,95,78,0.0,76.0
1051,62.0,2,72,2.0,70.0
1052,77.0,9,74,4.0,74.0
1053,77.0,2,81,5.0,68.0
1054,77.0,1,132,1.0,66.0
1055,49.0,0,102,3.0,70.0
1056,49.0,9,109,6.0,64.0
1057,64.0,1,112,2.0,70.0
1058,76.0,1,121,1.0,78.0
1059,74.0,111,84,1.0,70.0
1060,64.0,126,115,2.0,76.0
1061,73.0,2,125,1.0,80.0
1062,79.0,110,415,0.0,80.0
1063,79.0,6,406,5.0,78.0
1064,79.0,3,436,4.0,76.0
1065,77.0,230,132,0.0,78.0
1066,77.0,14,120,4.0,95.0
1067,77.0,4,138,5.0,78.0
1068,69.0,2,156,1.0,78.0
1069,61.0,2,192,2.0,82.0
1070,45.0,4,470,6.0,66.0
1071,76.0,87,131,0.0,63.0
1072,76.0,4,123,4.0,60.0
1073,45.0,5,483,3.0,66.0
1074,76.0,9,137,5.0,68.0
1075,74.0,115,124,0.0,60.0
1076,74.0,1,122,4.0,78.0
1077,74.0,5,130,5.0,58.0
1078,73.0,101,95,0.0,56.0
1079,73.0,3,94,5.0,49.0
1080,73.0,5,99,4.0,66.0
1081,74.0,120,71,0.0,74.0
1082,74.0,2,71,4.0,80.0
1083,74.0,6,85,5.0,80.0
1084,46.0,3,104,3.0,64.0
1085,46.0,3,111,6.0,59.0
1086,69.0,12,66,4.0,70.0
1087,69.0,95,82,0.0,60.0
1088,69.0,3,72,5.0,64.0
1089,58.0,0,93,3.0,78.0
1090,58.0,6,96,6.0,74.0
1091,62.0,0,355,2.0,62.0
1092,65.0,2,365,1.0,57.0
1093,77.0,112,144,0.0,80.0
1094,77.0,0,140,4.0,87.0
1095,77.0,5,144,5.0,80.0
1096,76.0,102,131,0.0,78.0
1097,76.0,1,130,5.0,78.0
1098,76.0,5,133,4.0,78.0
1099,57.0,0,91,6.0,70.0
1100,57.0,4,104,3.0,78.0
1101,74.0,113,133,0.0,58.0
1102,65.0,1,122,1.0,68.0
1103,62.0,4,129,2.0,64.0
1104,74.0,4,135,4.0,60.0
1105,74.0,0,136,5.0,60.0
1106,72.0,99,78,0.0,57.0
1107,72.0,4,74,5.0,66.0
1108,72.0,7,86,4.0,62.0
1109,55.0,5,109,6.0,68.0
1110,70.0,115,128,0.0,70.0
1111,55.0,3,113,3.0,72.0
1112,70.0,5,135,4.0,74.0
1113,62.0,1,124,2.0,68.0
1114,70.0,4,133,5.0,54.0
1115,67.0,0,128,1.0,80.0
1116,74.0,101,88,0.0,68.0
1117,74.0,5,96,4.0,70.0
1118,74.0,1,98,5.0,74.0
1119,79.0,2,54,5.0,80.0
1120,79.0,120,64,0.0,85.0
1121,79.0,0,54,4.0,76.0
1122,49.0,4,106,6.0,57.0
1123,69.0,1,104,1.0,82.0
1124,49.0,1,104,3.0,66.0
1125,64.0,4,114,2.0,66.0
1126,76.0,110,56,0.0,80.0
1127,76.0,8,58,4.0,68.0
1128,76.0,0,58,5.0,78.0
1129,50.0,111,113,6.0,68.0
1130,62.0,3,102,2.0,78.0
1131,50.0,0,115,3.0,80.0
1132,69.0,6,131,1.0,72.0
1133,77.0,0,318,0.0,85.0
1134,77.0,7,313,4.0,78.0
1135,77.0,2,318,5.0,78.0
1136,46.0,220,103,3.0,63.0
1137,46.0,13,90,6.0,72.0
1138,65.0,10,116,2.0,70.0
1139,74.0,0,130,1.0,80.0
1140,74.0,1,55,5.0,72.0
1141,74.0,3,67,4.0,66.0
1142,74.0,107,78,0.0,64.0
1143,43.0,1,108,3.0,80.0
1144,67.0,2,117,2.0,74.0
1145,70.0,7,108,1.0,70.0
1146,43.0,111,130,6.0,70.0
1147,77.0,1,124,0.0,78.0
1148,77.0,1,125,4.0,80.0
1149,77.0,5,137,5.0,78.0
1150,76.0,0,78,0.0,80.0
1151,76.0,4,79,4.0,78.0
1152,76.0,100,87,5.0,76.0
1153,45.0,114,96,6.0,64.0
1154,74.0,0,110,5.0,68.0
1155,45.0,1,104,3.0,78.0
1156,74.0,6,111,0.0,70.0
1157,69.0,8,103,1.0,78.0
1158,74.0,2,114,4.0,66.0
1159,64.0,0,112,2.0,72.0
1160,73.0,92,91,5.0,56.0
1161,73.0,1,94,0.0,58.0
1162,73.0,4,97,4.0,60.0
1163,50.0,0,107,6.0,74.0
1164,50.0,0,107,3.0,76.0
1165,74.0,8,324,0.0,68.0
1166,65.0,0,333,2.0,66.0
1167,74.0,3,337,4.0,66.0
1168,38.0,234,107,6.0,66.0
1169,38.0,4,104,3.0,64.0
1170,74.0,132,374,5.0,74.0
1171,69.0,4,381,1.0,74.0
1172,69.0,1,66,4.0,63.0
1173,69.0,3,75,5.0,63.0
1174,69.0,224,91,0.0,70.0
1175,62.0,0,124,2.0,68.0
1176,50.0,5,130,6.0,68.0
1177,50.0,1,122,3.0,76.0
1178,66.0,3,137,1.0,62.0
1179,71.0,102,76,0.0,78.0
1180,71.0,12,66,4.0,70.0
1181,71.0,2,65,5.0,72.0
1182,60.0,113,114,2.0,66.0
1183,52.0,8,113,3.0,72.0
1184,67.0,1,129,1.0,72.0
1185,52.0,3,120,6.0,60.0
1186,72.0,0,158,5.0,80.0
1187,72.0,1,157,4.0,80.0
1188,72.0,1,182,0.0,82.0
1189,54.0,217,116,3.0,61.0
1190,57.0,0,112,2.0,60.0
1191,69.0,8,111,1.0,72.0
1192,54.0,6,122,6.0,63.0
1193,74.0,1,139,5.0,76.0
1194,74.0,1,142,0.0,78.0
1195,74.0,3,145,4.0,76.0
1196,72.0,5,138,5.0,66.0
1197,72.0,1,147,4.0,64.0
1198,72.0,107,155,0.0,68.0
1199,50.0,1,88,3.0,74.0
1200,62.0,2,107,2.0,70.0
1201,50.0,1,110,6.0,64.0
1202,66.0,1,104,1.0,66.0
1203,71.0,117,125,5.0,62.0
1204,71.0,1,117,0.0,60.0
1205,71.0,5,123,4.0,63.0
1206,69.0,4,85,5.0,66.0
1207,69.0,105,90,0.0,63.0
1208,69.0,7,82,4.0,66.0
1209,71.0,109,107,0.0,82.0
1210,71.0,5,97,4.0,72.0
1211,71.0,4,115,5.0,85.0
1212,55.0,0,140,6.0,78.0
1213,55.0,0,145,3.0,82.0
1214,69.0,101,75,5.0,60.0
1215,69.0,9,81,4.0,63.0
1216,69.0,4,91,0.0,62.0
1217,67.0,103,100,5.0,66.0
1218,62.0,2,332,2.0,72.0
1219,67.0,7,93,4.0,66.0
1220,43.0,1,109,3.0,57.0
1221,43.0,0,112,6.0,52.0
1222,67.0,11,112,0.0,68.0
1223,67.0,2,359,1.0,72.0
1224,69.0,102,98,5.0,70.0
1225,69.0,10,97,0.0,76.0
1226,69.0,5,106,4.0,74.0
1227,71.0,106,99,5.0,64.0
1228,71.0,2,88,0.0,80.0
1229,71.0,8,83,4.0,78.0
1230,45.0,4,115,6.0,63.0
1231,60.0,0,124,2.0,63.0
1232,45.0,2,124,3.0,80.0
1233,72.0,4,91,4.0,72.0
1234,72.0,1,103,5.0,66.0
1235,72.0,101,108,0.0,64.0
1236,47.0,115,117,6.0,68.0
1237,74.0,2,111,4.0,82.0
1238,74.0,4,115,5.0,76.0
1239,74.0,2,108,0.0,82.0
1240,47.0,5,113,3.0,78.0
1241,55.0,3,114,2.0,68.0
1242,65.0,3,426,1.0,68.0
1243,76.0,1,99,5.0,70.0
1244,76.0,104,103,4.0,70.0
1245,76.0,12,90,0.0,80.0
1246,43.0,110,108,6.0,68.0
1247,43.0,3,110,3.0,70.0
1248,67.0,5,125,2.0,66.0
1249,77.0,1,126,4.0,82.0
1250,77.0,3,128,5.0,80.0
1251,77.0,3,129,0.0,82.0
1252,71.0,13,127,1.0,78.0
1253,48.0,220,97,6.0,80.0
1254,48.0,5,107,3.0,76.0
1255,76.0,0,114,5.0,70.0
1256,76.0,0,132,0.0,68.0
1257,67.0,3,124,2.0,72.0
1258,76.0,1,124,4.0,80.0
1259,72.0,5,133,1.0,72.0
1260,74.0,229,104,0.0,68.0
1261,74.0,4,107,4.0,76.0
1262,71.0,1,109,1.0,82.0
1263,74.0,0,112,5.0,82.0
1264,67.0,3,135,2.0,78.0
1265,69.0,1,77,1.0,72.0
1266,72.0,2,80,4.0,68.0
1267,72.0,104,91,0.0,62.0
1268,72.0,8,84,5.0,66.0
1269,43.0,4,302,3.0,72.0
1270,71.0,2,93,0.0,66.0
1271,67.0,107,104,1.0,74.0
1272,43.0,1,335,6.0,70.0
1273,71.0,4,107,5.0,72.0
1274,71.0,0,114,4.0,80.0
1275,62.0,9,107,2.0,61.0
1276,72.0,104,88,0.0,70.0
1277,72.0,2,94,4.0,76.0
1278,69.0,1,94,1.0,76.0
1279,72.0,1,109,5.0,78.0
1280,71.0,1,86,1.0,80.0
1281,74.0,1,94,0.0,78.0
1282,74.0,0,96,4.0,80.0
1283,74.0,4,99,5.0,72.0
1284,67.0,116,128,2.0,76.0
1285,55.0,4,127,6.0,72.0
1286,55.0,5,141,3.0,70.0
1287,67.0,103,85,1.0,76.0
1288,76.0,6,80,0.0,76.0
1289,76.0,3,92,4.0,64.0
1290,76.0,1,99,5.0,78.0
1291,77.0,1,95,5.0,78.0
1292,57.0,12,78,3.0,80.0
1293,77.0,1,91,0.0,85.0
1294,77.0,1,104,4.0,82.0
1295,57.0,2,101,6.0,68.0
1296,60.0,4,124,2.0,59.0
1297,55.0,96,78,6.0,66.0
1298,79.0,2,83,5.0,78.0
1299,55.0,4,75,3.0,74.0
1300,79.0,0,90,4.0,80.0
1301,79.0,5,86,0.0,89.0
1302,53.0,95,104,6.0,59.0
1303,53.0,16,92,3.0,68.0
1304,81.0,2,114,4.0,85.0
1305,81.0,2,122,5.0,78.0
1306,65.0,2,119,2.0,66.0
1307,81.0,3,127,0.0,85.0
1308,72.0,116,413,1.0,78.0
1309,52.0,99,91,3.0,64.0
1310,52.0,1,101,6.0,64.0
1311,53.0,116,93,6.0,60.0
1312,53.0,2,91,3.0,76.0
1313,62.0,5,130,2.0,68.0
1314,71.0,3,125,1.0,78.0
1315,50.0,5,95,3.0,68.0
1316,50.0,78,116,6.0,62.0
1317,79.0,18,342,5.0,80.0
1318,79.0,2,349,4.0,80.0
1319,79.0,6,344,0.0,87.0
1320,52.0,140,128,6.0,66.0
1321,72.0,2,121,1.0,78.0
1322,52.0,3,129,3.0,80.0
1323,67.0,6,126,2.0,82.0
1324,70.0,231,78,0.0,72.0
1325,70.0,2,101,5.0,66.0
1326,70.0,2,100,4.0,68.0
1327,65.0,1,113,1.0,72.0
1328,50.0,3,111,6.0,64.0
1329,50.0,3,108,3.0,66.0
1330,65.0,1,118,2.0,66.0
1331,69.0,88,84,4.0,68.0
1332,69.0,3,85,5.0,59.0
1333,69.0,4,83,0.0,72.0
1334,70.0,0,95,0.0,64.0
1335,70.0,4,101,5.0,66.0
1336,70.0,118,106,4.0,64.0
1337,48.0,5,109,3.0,66.0
1338,67.0,5,115,2.0,70.0
1339,64.0,4,112,1.0,76.0
1340,48.0,0,118,6.0,64.0
1341,67.0,92,86,4.0,66.0
1342,67.0,8,84,0.0,70.0
1343,67.0,5,86,5.0,68.0
1344,69.0,6,96,5.0,82.0
1345,69.0,0,109,4.0,85.0
1346,69.0,126,110,0.0,87.0
1347,60.0,2,113,2.0,63.0
1348,53.0,3,104,3.0,80.0
1349,65.0,2,118,1.0,70.0
1350,53.0,1,118,6.0,68.0
1351,65.0,3,104,2.0,68.0
1352,50.0,2,101,6.0,64.0
1353,74.0,1,110,4.0,85.0
1354,69.0,227,114,1.0,78.0
1355,74.0,1,109,5.0,85.0
1356,50.0,5,102,3.0,80.0
1357,74.0,1,111,0.0,89.0
1358,72.0,218,46,0.0,85.0
1359,72.0,1,38,5.0,82.0
1360,72.0,0,45,4.0,76.0
1361,71.0,22,41,0.0,85.0
1362,71.0,4,41,4.0,63.0
1363,55.0,9,82,6.0,78.0
1364,71.0,4,48,5.0,85.0
1365,55.0,1,96,3.0,78.0
1366,62.0,5,99,2.0,78.0
1367,67.0,4,110,1.0,72.0
1368,72.0,4,45,5.0,68.0
1369,72.0,29,49,0.0,82.0
1370,72.0,0,53,4.0,82.0
1371,71.0,4,62,5.0,72.0
1372,71.0,4,69,4.0,66.0
1373,71.0,32,78,0.0,80.0
1374,48.0,4,413,3.0,68.0
1375,48.0,7,457,6.0,62.0
1376,64.0,2,477,2.0,72.0
1377,72.0,3,488,0.0,82.0
1378,67.0,125,491,1.0,70.0
1379,72.0,5,506,4.0,78.0
1380,72.0,2,500,5.0,70.0
1381,79.0,458,96,5.0,59.0
1382,79.0,4,89,4.0,70.0
1383,55.0,11,117,1.0,68.0
1384,55.0,0,142,2.0,60.0
1385,55.0,3,142,0.0,64.0
1386,77.0,14,75,4.0,64.0
1387,77.0,94,91,5.0,59.0
1388,76.0,2,142,5.0,59.0
1389,76.0,2,137,4.0,70.0
1390,60.0,114,172,2.0,57.0
1391,60.0,7,150,0.0,58.0
1392,60.0,1,173,1.0,62.0
1393,60.0,4,195,3.0,50.0
1394,60.0,7,201,6.0,60.0
1395,74.0,4,121,5.0,48.0
1396,74.0,99,141,4.0,59.0
1397,72.0,0,132,4.0,54.0
1398,72.0,1,139,5.0,47.0
1399,64.0,8,141,1.0,63.0
1400,64.0,3,141,0.0,68.0
1401,64.0,4,147,2.0,66.0
1402,60.0,1,184,6.0,53.0
1403,60.0,112,204,3.0,57.0
1404,62.0,4,113,0.0,66.0
1405,62.0,107,127,1.0,68.0
1406,74.0,0,136,4.0,60.0
1407,74.0,0,137,5.0,59.0
1408,62.0,8,136,2.0,64.0
1409,60.0,1,122,0.0,61.0
1410,60.0,100,135,1.0,58.0
1411,76.0,0,143,4.0,60.0
1412,60.0,5,136,2.0,52.0
1413,76.0,11,154,5.0,51.0
1414,59.0,99,84,0.0,59.0
1415,60.0,1,192,3.0,59.0
1416,59.0,5,82,1.0,60.0
1417,77.0,0,85,4.0,66.0
1418,60.0,2,195,6.0,42.0
1419,59.0,9,95,2.0,62.0
1420,77.0,3,96,5.0,59.0
1421,60.0,1,129,1.0,58.0
1422,76.0,4,138,5.0,60.0
1423,76.0,4,143,4.0,64.0
1424,60.0,2,139,0.0,58.0
1425,60.0,0,144,2.0,59.0
1426,57.0,103,203,6.0,51.0
1427,57.0,5,200,3.0,53.0
1428,74.0,8,119,5.0,53.0
1429,62.0,3,133,0.0,64.0
1430,74.0,1,139,4.0,52.0
1431,62.0,108,143,1.0,60.0
1432,62.0,4,148,2.0,64.0
1433,72.0,2,120,5.0,54.0
1434,64.0,112,123,0.0,58.0
1435,64.0,1,130,1.0,58.0
1436,72.0,0,137,4.0,66.0
1437,64.0,8,135,2.0,66.0
1438,65.0,96,77,0.0,61.0
1439,65.0,4,81,1.0,63.0
1440,57.0,4,189,3.0,53.0
1441,57.0,1,198,6.0,53.0
1442,65.0,4,87,2.0,60.0
1443,74.0,0,137,5.0,58.0
1444,74.0,2,142,4.0,62.0
1445,76.0,7,117,5.0,50.0
1446,76.0,4,144,4.0,59.0
1447,57.0,1,178,3.0,58.0
1448,77.0,103,80,4.0,66.0
1449,57.0,0,214,6.0,53.0
1450,77.0,8,96,5.0,57.0
1451,76.0,111,136,4.0,66.0
1452,76.0,1,131,5.0,58.0
1453,67.0,105,415,1.0,68.0
1454,67.0,11,418,0.0,57.0
1455,67.0,1,409,2.0,66.0
1456,53.0,2,205,3.0,47.0
1457,53.0,7,211,6.0,53.0
1458,74.0,103,128,4.0,60.0
1459,74.0,15,113,5.0,45.0
1460,69.0,2,111,0.0,55.0
1461,69.0,8,103,1.0,64.0
1462,69.0,3,119,2.0,66.0
1463,77.0,4,126,5.0,51.0
1464,77.0,107,149,4.0,68.0
1465,53.0,1,193,6.0,59.0
1466,53.0,3,196,3.0,66.0
1467,76.0,103,133,4.0,66.0
1468,76.0,12,129,5.0,59.0
1469,65.0,103,116,1.0,58.0
1470,65.0,1,123,0.0,49.0
1471,65.0,2,117,2.0,62.0
1472,74.0,6,125,4.0,58.0
1473,74.0,4,120,5.0,51.0
1474,53.0,6,195,3.0,58.0
1475,72.0,107,87,4.0,70.0
1476,53.0,2,229,6.0,58.0
1477,72.0,14,103,5.0,53.0
1478,71.0,4,110,4.0,66.0
1479,71.0,11,96,5.0,36.0
1480,62.0,12,165,0.0,44.0
1481,62.0,94,190,1.0,63.0
1482,62.0,0,192,2.0,63.0
1483,55.0,3,182,3.0,54.0
1484,55.0,2,222,6.0,40.0
1485,72.0,96,136,4.0,66.0
1486,72.0,3,140,5.0,47.0
1487,60.0,6,138,2.0,60.0
1488,74.0,1,131,5.0,57.0
1489,74.0,4,142,4.0,70.0
1490,60.0,4,144,0.0,66.0
1491,60.0,2,148,1.0,63.0
1492,57.0,0,200,6.0,53.0
1493,57.0,108,222,3.0,52.0
1494,59.0,4,128,1.0,64.0
1495,59.0,104,135,2.0,64.0
1496,59.0,3,128,0.0,60.0
1497,76.0,0,135,4.0,63.0
1498,76.0,5,146,5.0,60.0
1499,57.0,4,114,0.0,49.0
1500,57.0,0,118,2.0,59.0
1501,57.0,6,124,1.0,54.0
1502,77.0,3,129,5.0,59.0
1503,77.0,108,146,4.0,64.0
1504,55.0,0,70,0.0,59.0
1505,59.0,0,194,3.0,52.0
1506,59.0,1,193,6.0,55.0
1507,55.0,5,87,1.0,66.0
1508,55.0,105,94,2.0,59.0
1509,79.0,0,90,4.0,60.0
1510,79.0,11,100,5.0,57.0
1511,76.0,5,138,5.0,57.0
1512,76.0,1,147,4.0,64.0
1513,60.0,2,167,0.0,55.0
1514,60.0,2,174,2.0,56.0
1515,60.0,1,178,1.0,58.0
1516,60.0,110,203,3.0,48.0
1517,60.0,0,221,6.0,55.0
1518,74.0,0,115,5.0,52.0
1519,74.0,115,132,4.0,56.0
1520,72.0,114,129,5.0,53.0
1521,72.0,9,128,4.0,59.0
1522,64.0,0,145,0.0,70.0
1523,64.0,1,147,2.0,70.0
1524,64.0,0,148,1.0,64.0
1525,60.0,3,194,3.0,59.0
1526,60.0,8,194,6.0,59.0
1527,71.0,91,137,5.0,40.0
1528,62.0,14,125,2.0,64.0
1529,62.0,1,127,1.0,66.0
1530,71.0,4,146,4.0,55.0
1531,62.0,2,142,0.0,64.0
1532,69.0,5,98,4.0,56.0
1533,69.0,6,105,5.0,50.0
1534,60.0,0,115,0.0,57.0
1535,60.0,103,137,2.0,55.0
1536,60.0,0,129,1.0,57.0
1537,59.0,95,82,2.0,61.0
1538,59.0,1,73,0.0,52.0
1539,60.0,2,189,3.0,55.0
1540,60.0,12,199,6.0,58.0
1541,59.0,11,82,1.0,52.0
1542,67.0,1,91,4.0,64.0
1543,67.0,0,100,5.0,64.0
1544,66.0,3,86,4.0,58.0
1545,66.0,4,110,5.0,42.0
1546,62.0,1,133,1.0,66.0
1547,62.0,1,131,0.0,66.0
1548,62.0,115,145,2.0,66.0
1549,60.0,0,76,2.0,57.0
1550,60.0,6,70,0.0,64.0
1551,60.0,95,81,1.0,64.0
1552,48.0,5,185,3.0,50.0
1553,48.0,3,198,6.0,53.0
1554,69.0,10,94,4.0,61.0
1555,69.0,0,116,5.0,66.0
1556,74.0,1,93,4.0,74.0
1557,74.0,3,104,5.0,68.0
1558,59.0,8,114,2.0,72.0
1559,59.0,9,128,1.0,64.0
1560,59.0,0,122,0.0,60.0
1561,57.0,96,80,2.0,68.0
1562,48.0,1,207,6.0,41.0
1563,48.0,101,208,3.0,51.0
1564,57.0,1,83,1.0,61.0
1565,57.0,7,86,0.0,55.0
1566,72.0,2,83,5.0,66.0
1567,72.0,8,98,4.0,66.0
1568,71.0,116,107,5.0,64.0
1569,71.0,0,112,4.0,60.0
1570,48.0,1,198,3.0,54.0
1571,48.0,3,208,6.0,51.0
1572,69.0,17,91,4.0,59.0
1573,69.0,97,112,5.0,59.0
1574,67.0,114,136,5.0,61.0
1575,67.0,4,135,4.0,70.0
1576,62.0,2,392,1.0,64.0
1577,62.0,5,400,2.0,70.0
1578,62.0,5,405,0.0,63.0
1579,47.0,1,181,3.0,60.0
1580,47.0,7,187,6.0,59.0
1581,69.0,0,117,5.0,57.0
1582,69.0,5,117,4.0,62.0
1583,60.0,223,137,2.0,63.0
1584,60.0,2,130,1.0,66.0
1585,60.0,5,136,0.0,60.0
1586,59.0,94,70,2.0,66.0
1587,48.0,4,180,3.0,53.0
1588,48.0,1,186,6.0,56.0
1589,59.0,6,81,0.0,56.0
1590,59.0,4,81,1.0,66.0
1591,66.0,3,106,5.0,54.0
1592,66.0,4,110,4.0,56.0
1593,57.0,1,125,2.0,60.0
1594,57.0,3,126,1.0,63.0
1595,57.0,2,134,0.0,57.0
1596,50.0,120,168,3.0,54.0
1597,50.0,1,171,6.0,53.0
1598,59.0,3,82,2.0,68.0
1599,59.0,97,94,0.0,59.0
1600,59.0,3,104,1.0,74.0
1601,55.0,3,326,2.0,54.0
1602,55.0,3,329,0.0,57.0
1603,55.0,10,332,1.0,66.0
1604,67.0,126,369,5.0,52.0
1605,67.0,1,391,4.0,57.0
1606,43.0,3,444,6.0,52.0
1607,43.0,5,439,3.0,58.0
1608,79.0,0,80,4.0,66.0
1609,79.0,3,117,5.0,59.0
1610,55.0,4,108,1.0,70.0
1611,55.0,449,139,2.0,61.0
1612,55.0,8,138,0.0,60.0
1613,77.0,115,66,4.0,68.0
1614,77.0,0,79,5.0,59.0
1615,60.0,0,137,2.0,53.0
1616,76.0,0,137,5.0,60.0
1617,76.0,4,142,4.0,64.0
1618,60.0,1,145,0.0,56.0
1619,60.0,116,165,1.0,64.0
1620,60.0,0,201,6.0,52.0
1621,60.0,0,203,3.0,53.0
1622,74.0,0,132,4.0,58.0
1623,74.0,120,139,5.0,52.0
1624,72.0,3,136,5.0,58.0
1625,72.0,4,137,4.0,62.0
1626,64.0,110,153,0.0,56.0
1627,64.0,0,146,1.0,64.0
1628,64.0,0,154,2.0,68.0
1629,60.0,0,187,3.0,66.0
1630,60.0,5,196,6.0,53.0
1631,62.0,4,125,2.0,68.0
1632,62.0,113,133,0.0,57.0
1633,62.0,2,136,1.0,68.0
1634,74.0,1,140,4.0,63.0
1635,74.0,0,137,5.0,54.0
1636,60.0,4,113,0.0,58.0
1637,60.0,109,134,2.0,52.0
1638,60.0,0,131,1.0,60.0
1639,76.0,3,148,4.0,59.0
1640,76.0,9,138,5.0,57.0
1641,60.0,1,178,3.0,61.0
1642,59.0,0,85,0.0,58.0
1643,59.0,7,79,2.0,60.0
1644,60.0,2,195,6.0,60.0
1645,59.0,4,83,1.0,62.0
1646,77.0,97,117,4.0,63.0
1647,77.0,9,108,5.0,56.0
1648,76.0,6,144,4.0,63.0
1649,60.0,2,133,0.0,60.0
1650,60.0,1,133,1.0,64.0
1651,76.0,4,132,5.0,55.0
1652,60.0,5,151,2.0,60.0
1653,57.0,7,187,6.0,51.0
1654,57.0,97,204,3.0,52.0
1655,62.0,0,138,0.0,64.0
1656,62.0,1,131,2.0,53.0
1657,62.0,2,143,1.0,66.0
1658,74.0,7,140,5.0,50.0
1659,74.0,103,151,4.0,56.0
1660,64.0,1,127,0.0,62.0
1661,64.0,2,120,2.0,58.0
1662,72.0,2,128,5.0,48.0
1663,64.0,3,133,1.0,68.0
1664,72.0,1,139,4.0,53.0
1665,57.0,111,190,3.0,57.0
1666,57.0,0,188,6.0,52.0
1667,65.0,107,83,0.0,59.0
1668,65.0,2,89,1.0,70.0
1669,65.0,3,94,2.0,60.0
1670,74.0,4,132,5.0,52.0
1671,74.0,0,155,4.0,60.0
1672,76.0,3,138,5.0,52.0
1673,76.0,1,159,4.0,63.0
1674,57.0,1,182,3.0,57.0
1675,57.0,2,204,6.0,53.0
1676,77.0,116,93,5.0,57.0
1677,77.0,2,95,4.0,64.0
1678,76.0,112,129,5.0,59.0
1679,76.0,2,141,4.0,64.0
1680,67.0,2,411,2.0,68.0
1681,53.0,0,186,3.0,51.0
1682,67.0,4,429,1.0,70.0
1683,53.0,2,193,6.0,50.0
1684,67.0,114,443,0.0,60.0
1685,74.0,115,120,5.0,47.0
1686,74.0,4,134,4.0,60.0
1687,69.0,1,107,1.0,60.0
1688,69.0,1,111,2.0,60.0
1689,77.0,8,121,5.0,59.0
1690,69.0,7,132,0.0,60.0
1691,77.0,3,141,4.0,61.0
1692,53.0,3,209,3.0,57.0
1693,53.0,110,229,6.0,60.0
1694,76.0,96,131,5.0,58.0
1695,76.0,16,134,4.0,63.0
1696,65.0,3,107,1.0,64.0
1697,74.0,7,111,5.0,53.0
1698,65.0,108,132,2.0,52.0
1699,65.0,0,129,0.0,53.0
1700,74.0,4,125,4.0,57.0
1701,53.0,0,196,3.0,59.0
1702,53.0,1,202,6.0,39.0
1703,72.0,107,105,5.0,59.0
1704,72.0,9,100,4.0,66.0
1705,71.0,1,102,5.0,55.0
1706,71.0,1,119,4.0,66.0
1707,62.0,3,152,0.0,46.0
1708,62.0,104,173,2.0,52.0
1709,62.0,3,186,1.0,57.0
1710,55.0,1,206,3.0,61.0
1711,55.0,12,207,6.0,52.0
1712,72.0,105,137,5.0,53.0
1713,72.0,1,146,4.0,62.0
1714,74.0,1,124,5.0,54.0
1715,60.0,15,137,2.0,60.0
1716,60.0,2,140,0.0,62.0
1717,60.0,2,140,1.0,66.0
1718,74.0,1,144,4.0,61.0
1719,57.0,104,206,3.0,57.0
1720,57.0,4,199,6.0,52.0
1721,59.0,4,117,2.0,60.0
1722,59.0,101,121,1.0,63.0
1723,59.0,1,125,0.0,62.0
1724,76.0,8,141,5.0,58.0
1725,76.0,5,158,4.0,64.0
1726,57.0,8,123,1.0,54.0
1727,57.0,4,120,0.0,52.0
1728,57.0,4,120,2.0,50.0
1729,77.0,8,124,5.0,60.0
1730,77.0,2,157,4.0,64.0
1731,59.0,91,186,3.0,60.0
1732,59.0,1,181,6.0,52.0
1733,55.0,99,74,0.0,57.0
1734,55.0,5,79,1.0,60.0
1735,55.0,1,81,2.0,59.0
1736,79.0,7,100,5.0,60.0
1737,79.0,6,103,4.0,61.0
1738,76.0,5,135,5.0,60.0
1739,76.0,0,143,4.0,64.0
1740,60.0,0,161,2.0,58.0
1741,60.0,0,173,1.0,58.0
1742,60.0,106,178,0.0,53.0
1743,60.0,4,197,3.0,57.0
1744,60.0,4,210,6.0,53.0
1745,74.0,0,137,4.0,59.0
1746,74.0,114,138,5.0,51.0
1747,72.0,0,122,5.0,59.0
1748,72.0,20,134,4.0,60.0
1749,64.0,4,140,1.0,68.0
1750,64.0,1,147,0.0,60.0
1751,64.0,1,144,2.0,74.0
1752,60.0,108,205,3.0,53.0
1753,60.0,4,185,6.0,59.0
1754,62.0,0,109,2.0,66.0
1755,71.0,3,132,5.0,56.0
1756,62.0,4,125,0.0,62.0
1757,62.0,8,136,1.0,64.0
1758,71.0,99,150,4.0,55.0
1759,69.0,2,102,5.0,47.0
1760,60.0,1,118,0.0,56.0
1761,60.0,2,124,1.0,56.0
1762,69.0,11,116,4.0,57.0
1763,60.0,106,133,2.0,47.0
1764,60.0,2,172,3.0,59.0
1765,59.0,98,83,2.0,57.0
1766,59.0,4,80,0.0,51.0
1767,59.0,0,88,1.0,53.0
1768,60.0,1,206,6.0,52.0
1769,67.0,9,94,5.0,57.0
1770,67.0,3,107,4.0,63.0
1771,66.0,0,96,4.0,50.0
1772,66.0,111,112,5.0,46.0
1773,62.0,1,131,1.0,66.0
1774,62.0,2,134,2.0,70.0
1775,62.0,4,149,0.0,63.0
1776,60.0,0,80,2.0,55.0
1777,60.0,96,81,1.0,64.0
1778,60.0,8,77,0.0,61.0
1779,48.0,0,198,6.0,51.0
1780,48.0,2,202,3.0,52.0
1781,69.0,16,103,4.0,64.0
1782,69.0,5,115,5.0,63.0
1783,74.0,5,99,5.0,64.0
1784,59.0,6,118,0.0,57.0
1785,74.0,4,110,4.0,70.0
1786,59.0,1,121,2.0,64.0
1787,59.0,99,131,1.0,62.0
1788,57.0,85,86,2.0,60.0
1789,57.0,0,87,0.0,53.0
1790,57.0,9,94,1.0,59.0
1791,48.0,0,207,6.0,30.0
1792,48.0,5,202,3.0,51.0
1793,72.0,17,86,4.0,66.0
1794,72.0,7,86,5.0,58.0
1795,71.0,0,108,4.0,62.0
1796,71.0,0,104,5.0,52.0
1797,48.0,107,201,3.0,42.0
1798,48.0,1,192,6.0,39.0
1799,69.0,5,103,5.0,51.0
1800,69.0,105,109,4.0,56.0
1801,67.0,120,122,5.0,59.0
1802,67.0,3,132,4.0,70.0
1803,62.0,8,408,1.0,66.0
1804,62.0,3,403,2.0,68.0
1805,62.0,2,420,0.0,60.0
1806,47.0,5,185,3.0,60.0
1807,47.0,1,190,6.0,58.0
1808,69.0,14,104,5.0,57.0
1809,60.0,217,142,0.0,59.0
1810,60.0,9,137,1.0,64.0
1811,60.0,1,136,2.0,55.0
1812,69.0,3,125,4.0,63.0
1813,48.0,4,169,3.0,54.0
1814,59.0,86,89,0.0,58.0
1815,59.0,4,80,2.0,66.0
1816,59.0,6,87,1.0,60.0
1817,48.0,0,204,6.0,44.0
1818,57.0,117,133,0.0,64.0
1819,57.0,0,115,2.0,61.0
1820,57.0,7,129,1.0,70.0
1821,66.0,1,145,5.0,55.0
1822,50.0,3,157,3.0,56.0
1823,66.0,5,165,4.0,53.0
1824,50.0,2,194,6.0,57.0
1825,59.0,6,88,2.0,60.0
1826,59.0,90,112,0.0,61.0
1827,59.0,8,115,1.0,64.0
1828,67.0,1,99,4.0,60.0
1829,67.0,2,101,5.0,53.0
1830,66.0,110,96,4.0,60.0
1831,66.0,7,105,5.0,54.0
1832,55.0,4,275,2.0,66.0
1833,55.0,1,305,1.0,60.0
1834,55.0,4,314,0.0,66.0
1835,67.0,114,103,4.0,66.0
1836,67.0,13,93,5.0,61.0
1837,43.0,0,355,6.0,53.0
1838,43.0,130,436,3.0,64.0
1839,69.0,110,88,4.0,62.0
1840,69.0,5,94,5.0,56.0
1841,71.0,110,80,4.0,66.0
1842,71.0,4,83,5.0,66.0
1843,62.0,3,107,1.0,70.0
1844,62.0,2,117,2.0,68.0
1845,62.0,2,124,0.0,66.0
1846,72.0,94,99,4.0,64.0
1847,72.0,17,102,5.0,59.0
1848,74.0,0,125,5.0,57.0
1849,74.0,5,133,4.0,59.0
1850,59.0,110,173,2.0,57.0
1851,59.0,1,181,0.0,64.0
1852,59.0,2,182,1.0,66.0
1853,43.0,3,215,3.0,51.0
1854,43.0,2,208,6.0,55.0
1855,77.0,1,151,4.0,64.0
1856,77.0,106,152,5.0,66.0
1857,60.0,4,128,2.0,64.0
1858,76.0,6,124,4.0,60.0
1859,76.0,0,140,5.0,64.0
1860,60.0,3,150,0.0,70.0
1861,60.0,2,152,1.0,74.0
1862,43.0,0,195,6.0,70.0
1863,43.0,119,203,3.0,68.0
1864,59.0,1,120,0.0,74.0
1865,59.0,1,115,1.0,72.0
1866,59.0,104,129,2.0,66.0
1867,74.0,1,124,4.0,55.0
1868,74.0,10,130,5.0,53.0
1869,57.0,100,103,0.0,57.0
1870,57.0,2,102,1.0,57.0
1871,57.0,1,117,2.0,59.0
1872,72.0,16,129,4.0,60.0
1873,72.0,1,132,5.0,60.0
1874,55.0,16,74,2.0,66.0
1875,55.0,87,110,0.0,64.0
1876,43.0,1,221,3.0,70.0
1877,43.0,3,217,6.0,60.0
1878,55.0,2,120,1.0,60.0
1879,71.0,1,100,4.0,57.0
1880,71.0,5,113,5.0,58.0
1881,64.0,99,86,1.0,68.0
1882,64.0,3,100,0.0,58.0
1883,64.0,1,87,2.0,50.0
1884,73.0,0,149,4.0,53.0
1885,73.0,4,150,5.0,47.0
1886,65.0,103,75,0.0,68.0
1887,65.0,5,77,1.0,70.0
1888,55.0,1,194,6.0,59.0
1889,65.0,7,71,2.0,62.0
1890,55.0,12,208,3.0,57.0
1891,69.0,3,139,4.0,58.0
1892,69.0,5,143,5.0,57.0
1893,67.0,94,78,0.0,61.0
1894,67.0,3,62,1.0,82.0
1895,67.0,2,73,2.0,66.0
1896,71.0,13,144,4.0,52.0
1897,71.0,1,138,5.0,55.0
1898,69.0,6,62,2.0,68.0
1899,55.0,9,171,6.0,52.0
1900,69.0,11,74,1.0,82.0
1901,69.0,89,88,0.0,70.0
1902,55.0,2,200,3.0,59.0
1903,73.0,9,132,5.0,48.0
1904,73.0,1,135,4.0,57.0
1905,74.0,4,115,5.0,70.0
1906,74.0,0,120,4.0,57.0
1907,55.0,4,199,6.0,46.0
1908,55.0,7,214,3.0,64.0
1909,73.0,110,112,5.0,53.0
1910,73.0,5,115,4.0,51.0
1911,76.0,9,119,5.0,62.0
1912,76.0,4,121,4.0,53.0
1913,70.0,4,435,1.0,78.0
1914,70.0,99,448,0.0,64.0
1915,74.0,110,88,4.0,56.0
1916,70.0,1,438,2.0,66.0
1917,49.0,0,205,6.0,51.0
1918,49.0,111,214,3.0,57.0
1919,74.0,9,91,5.0,62.0
1920,77.0,0,103,5.0,66.0
1921,77.0,4,108,4.0,66.0
1922,69.0,1,124,1.0,68.0
1923,69.0,1,132,0.0,66.0
1924,69.0,13,121,2.0,68.0
1925,76.0,5,75,4.0,57.0
1926,49.0,4,200,6.0,63.0
1927,76.0,97,90,5.0,63.0
1928,49.0,111,211,3.0,56.0
1929,82.0,3,108,5.0,68.0
1930,67.0,4,122,0.0,64.0
1931,82.0,1,130,4.0,64.0
1932,67.0,1,140,1.0,68.0
1933,67.0,6,144,2.0,58.0
1934,49.0,1,185,3.0,60.0
1935,81.0,4,74,4.0,66.0
1936,81.0,107,83,5.0,68.0
1937,49.0,119,212,6.0,57.0
1938,81.0,4,132,4.0,64.0
1939,81.0,2,139,5.0,68.0
1940,65.0,101,171,0.0,66.0
1941,65.0,4,162,2.0,59.0
1942,65.0,15,167,1.0,66.0
1943,50.0,2,207,6.0,59.0
1944,50.0,4,206,3.0,64.0
1945,77.0,100,140,4.0,53.0
1946,77.0,8,140,5.0,59.0
1947,76.0,4,115,4.0,46.0
1948,67.0,0,125,2.0,66.0
1949,76.0,10,114,5.0,49.0
1950,67.0,4,139,1.0,76.0
1951,67.0,116,143,0.0,78.0
1952,48.0,0,207,3.0,53.0
1953,48.0,0,210,6.0,58.0
1954,65.0,92,124,2.0,58.0
1955,74.0,5,119,4.0,55.0
1956,74.0,8,117,5.0,57.0
1957,65.0,5,137,1.0,68.0
1958,65.0,4,142,0.0,68.0
1959,64.0,100,114,2.0,60.0
1960,64.0,2,112,0.0,57.0
1961,64.0,4,110,1.0,57.0
1962,73.0,2,138,4.0,45.0
1963,73.0,0,137,5.0,52.0
1964,46.0,3,199,3.0,55.0
1965,62.0,102,103,2.0,60.0
1966,74.0,3,91,4.0,59.0
1967,62.0,9,95,1.0,66.0
1968,62.0,4,104,0.0,66.0
1969,46.0,1,230,6.0,55.0
1970,74.0,6,106,5.0,66.0
1971,61.0,107,86,2.0,72.0
1972,61.0,0,97,1.0,62.0
1973,61.0,0,101,0.0,57.0
1974,76.0,0,129,4.0,66.0
1975,76.0,0,132,5.0,63.0
1976,45.0,7,202,3.0,59.0
1977,62.0,107,91,2.0,66.0
1978,62.0,1,93,0.0,66.0
1979,62.0,2,95,1.0,68.0
1980,45.0,5,218,6.0,52.0
1981,77.0,4,135,5.0,60.0
1982,77.0,2,139,4.0,61.0
1983,64.0,7,121,2.0,62.0
1984,64.0,2,127,1.0,70.0
1985,79.0,4,127,4.0,62.0
1986,79.0,5,120,5.0,58.0
1987,64.0,2,151,0.0,68.0
1988,76.0,1,76,4.0,57.0
1989,76.0,108,79,5.0,60.0
1990,45.0,107,214,3.0,57.0
1991,45.0,4,212,6.0,49.0
1992,77.0,4,111,5.0,61.0
1993,77.0,0,112,4.0,60.0
1994,74.0,4,90,5.0,60.0
1995,74.0,100,98,4.0,60.0
1996,45.0,113,216,3.0,53.0
1997,45.0,1,221,6.0,58.0
1998,73.0,120,139,5.0,58.0
1999,73.0,8,138,4.0,57.0
2000,69.0,10,373,0.0,66.0
2001,69.0,0,408,2.0,64.0
2002,69.0,1,412,1.0,66.0
2003,55.0,4,190,6.0,54.0
2004,55.0,0,198,3.0,60.0
2005,71.0,101,138,5.0,59.0
2006,71.0,7,133,4.0,63.0
2007,73.0,0,130,5.0,52.0
2008,67.0,119,131,0.0,70.0
2009,67.0,3,133,2.0,68.0
2010,73.0,5,132,4.0,49.0
2011,67.0,5,140,1.0,70.0
2012,55.0,0,188,6.0,61.0
2013,55.0,1,205,3.0,57.0
2014,65.0,1,130,0.0,64.0
2015,65.0,4,116,1.0,66.0
2016,74.0,99,136,5.0,58.0
2017,74.0,5,135,4.0,59.0
2018,65.0,5,141,2.0,57.0
2019,64.0,5,124,0.0,60.0
2020,64.0,2,119,1.0,54.0
2021,64.0,5,122,2.0,61.0
2022,76.0,5,120,5.0,63.0
2023,76.0,6,119,4.0,66.0
2024,55.0,3,178,3.0,53.0
2025,55.0,103,207,6.0,60.0
2026,62.0,98,96,2.0,63.0
2027,62.0,3,99,0.0,63.0
2028,77.0,6,95,4.0,64.0
2029,62.0,4,107,1.0,60.0
2030,77.0,1,134,5.0,68.0
2031,61.0,4,112,2.0,78.0
2032,79.0,1,123,4.0,64.0
2033,79.0,0,127,5.0,60.0
2034,61.0,0,137,1.0,56.0
2035,61.0,1,140,0.0,64.0
2036,52.0,0,197,3.0,40.0
2037,52.0,109,212,6.0,53.0
2038,77.0,1,128,5.0,55.0
2039,62.0,106,137,2.0,66.0
2040,77.0,2,135,4.0,56.0
2041,62.0,3,141,0.0,51.0
2042,62.0,3,144,1.0,64.0
2043,79.0,4,123,4.0,58.0
2044,79.0,4,121,5.0,52.0
2045,64.0,113,139,2.0,64.0
2046,64.0,3,140,0.0,66.0
2047,64.0,3,135,1.0,66.0
2048,52.0,3,194,3.0,53.0
2049,52.0,2,201,6.0,57.0
2050,65.0,2,100,1.0,64.0
2051,65.0,96,117,2.0,59.0
2052,65.0,1,103,0.0,59.0
2053,81.0,12,136,4.0,57.0
2054,81.0,4,136,5.0,51.0
2055,82.0,5,116,5.0,54.0
2056,82.0,1,124,4.0,59.0
2057,52.0,100,218,3.0,59.0
2058,79.0,2,96,4.0,59.0
2059,52.0,12,215,6.0,63.0
2060,79.0,105,114,5.0,45.0
2061,81.0,4,123,4.0,60.0
2062,81.0,8,135,5.0,51.0
2063,67.0,5,394,0.0,68.0
2064,67.0,0,422,1.0,70.0
2065,67.0,8,438,2.0,63.0
2066,49.0,113,211,3.0,58.0
2067,49.0,1,230,6.0,58.0
2068,82.0,107,144,4.0,56.0
2069,82.0,8,144,5.0,49.0
2070,65.0,2,131,0.0,68.0
2071,65.0,0,132,1.0,68.0
2072,81.0,2,140,4.0,53.0
2073,81.0,1,142,5.0,57.0
2074,65.0,3,155,2.0,58.0
2075,47.0,111,209,3.0,57.0
2076,47.0,4,211,6.0,52.0
2077,64.0,103,128,0.0,60.0
2078,64.0,5,128,1.0,60.0
2079,64.0,7,132,2.0,66.0
2080,79.0,4,132,5.0,48.0
2081,79.0,1,136,4.0,49.0
2082,62.0,2,116,0.0,63.0
2083,62.0,1,117,1.0,60.0
2084,77.0,1,117,4.0,52.0
2085,62.0,2,121,2.0,64.0
2086,77.0,1,120,5.0,51.0
2087,61.0,6,94,1.0,62.0
2088,61.0,8,91,2.0,57.0
2089,45.0,114,204,3.0,47.0
2090,61.0,85,111,0.0,56.0
2091,45.0,4,205,6.0,59.0
2092,76.0,7,102,5.0,56.0
2093,76.0,5,107,4.0,59.0
2094,62.0,4,74,2.0,64.0
2095,62.0,106,86,1.0,78.0
2096,62.0,4,109,0.0,72.0
2097,57.0,7,72,2.0,57.0
2098,57.0,1,83,1.0,58.0
2099,50.0,2,195,3.0,64.0
2100,50.0,1,204,6.0,58.0
2101,57.0,97,111,0.0,61.0
2102,65.0,3,127,0.0,68.0
2103,65.0,3,133,2.0,64.0
2104,65.0,114,154,1.0,70.0
2105,52.0,1,221,3.0,58.0
2106,64.0,3,118,2.0,68.0
2107,52.0,0,234,6.0,64.0
2108,64.0,109,123,0.0,63.0
2109,64.0,2,126,1.0,66.0
2110,62.0,112,112,2.0,62.0
2111,62.0,1,119,0.0,60.0
2112,62.0,9,135,1.0,58.0
2113,60.0,2,75,2.0,55.0
2114,60.0,10,83,1.0,58.0
2115,60.0,91,102,0.0,60.0
2116,53.0,6,203,3.0,63.0
2117,53.0,6,210,6.0,54.0
2118,77.0,9,777,4.0,63.0
2119,77.0,6,795,5.0,57.0
2120,58.0,114,124,0.0,57.0
2121,58.0,4,125,2.0,55.0
2122,58.0,2,133,1.0,62.0
2123,55.0,6,201,3.0,66.0
2124,55.0,9,204,6.0,57.0
2125,62.0,0,116,0.0,70.0
2126,62.0,2,122,1.0,68.0
2127,77.0,5,135,5.0,58.0
2128,77.0,8,147,4.0,61.0
2129,62.0,92,155,2.0,66.0
2130,67.0,1,65,2.0,70.0
2131,67.0,2,69,1.0,66.0
2132,76.0,0,109,4.0,63.0
2133,76.0,2,111,5.0,59.0
2134,67.0,3,117,0.0,55.0
2135,64.0,95,70,1.0,64.0
2136,64.0,0,59,2.0,70.0
2137,55.0,5,191,6.0,64.0
2138,55.0,120,204,3.0,57.0
2139,64.0,5,83,0.0,61.0
2140,73.0,12,140,4.0,45.0
2141,73.0,2,134,5.0,54.0
2142,74.0,1,111,4.0,66.0
2143,74.0,3,119,5.0,58.0
2144,55.0,2,200,3.0,59.0
2145,55.0,4,210,6.0,57.0
2146,76.0,8,100,5.0,58.0
2147,76.0,101,108,4.0,64.0
2148,65.0,11,286,2.0,62.0
2149,65.0,110,313,1.0,68.0
2150,65.0,2,340,0.0,66.0
2151,69.0,4,130,5.0,59.0
2152,69.0,17,158,4.0,64.0
2153,62.0,1,61,2.0,60.0
2154,62.0,94,82,1.0,53.0
2155,62.0,8,77,0.0,62.0
2156,57.0,4,201,6.0,58.0
2157,57.0,107,210,3.0,59.0
2158,81.0,8,116,5.0,58.0
2159,65.0,2,133,1.0,68.0
2160,65.0,0,137,0.0,68.0
2161,65.0,121,141,2.0,63.0
2162,81.0,8,145,4.0,66.0
2163,64.0,90,66,2.0,70.0
2164,64.0,2,72,1.0,78.0
2165,64.0,2,81,0.0,66.0
2166,57.0,4,210,3.0,66.0
2167,57.0,0,215,6.0,63.0
2168,62.0,121,122,0.0,72.0
2169,62.0,4,120,2.0,64.0
2170,62.0,4,124,1.0,64.0
2171,76.0,0,146,5.0,61.0
2172,61.0,4,81,2.0,64.0
2173,61.0,94,87,0.0,62.0
2174,76.0,4,184,4.0,60.0
2175,61.0,1,87,1.0,64.0
2176,57.0,3,196,3.0,68.0
2177,57.0,2,210,6.0,64.0
2178,77.0,3,128,5.0,59.0
2179,77.0,1,140,4.0,64.0
2180,50.0,130,213,3.0,62.0
2181,50.0,2,209,6.0,58.0
2182,76.0,104,140,5.0,57.0
2183,76.0,4,138,4.0,58.0
2184,62.0,4,353,1.0,72.0
2185,62.0,4,339,2.0,52.0
2186,62.0,4,355,0.0,64.0
2187,77.0,1,120,5.0,57.0
2188,77.0,3,132,4.0,59.0
2189,53.0,103,215,3.0,53.0
2190,53.0,12,207,6.0,55.0
2191,79.0,115,135,5.0,52.0
2192,79.0,9,137,4.0,58.0
2193,57.0,107,78,2.0,55.0
2194,57.0,0,76,1.0,61.0
2195,57.0,0,106,0.0,72.0
2196,77.0,0,124,5.0,60.0
2197,77.0,8,128,4.0,63.0
2198,59.0,8,64,2.0,58.0
2199,59.0,0,75,1.0,66.0
2200,57.0,1,200,3.0,64.0
2201,59.0,106,90,0.0,59.0
2202,57.0,4,217,6.0,68.0
2203,76.0,4,107,4.0,58.0
2204,76.0,1,123,5.0,52.0
2205,60.0,1,178,1.0,70.0
2206,60.0,0,181,0.0,70.0
2207,60.0,5,178,2.0,58.0
2208,54.0,110,231,6.0,48.0
2209,62.0,7,121,1.0,74.0
2210,62.0,4,127,2.0,68.0
2211,62.0,3,142,0.0,72.0
2212,54.0,4,432,3.0,52.0
2213,54.0,225,220,6.0,38.0
2214,60.0,1,127,0.0,66.0
2215,60.0,101,130,1.0,68.0
2216,60.0,3,149,2.0,59.0
2217,59.0,7,110,1.0,59.0
2218,59.0,4,126,0.0,60.0
2219,59.0,4,126,2.0,66.0
2220,54.0,111,190,3.0,58.0
2221,54.0,10,187,6.0,51.0
2222,57.0,5,100,2.0,59.0
2223,57.0,1,101,0.0,59.0
2224,57.0,95,111,1.0,61.0
2225,74.0,2,808,4.0,59.0
2226,59.0,1,118,1.0,70.0
2227,74.0,7,827,5.0,57.0
2228,59.0,0,130,0.0,76.0
2229,59.0,6,137,2.0,74.0
2230,57.0,103,87,1.0,60.0
2231,53.0,119,215,3.0,58.0
2232,53.0,5,219,6.0,53.0
2233,57.0,7,117,0.0,60.0
2234,57.0,0,129,2.0,54.0
2235,72.0,3,129,4.0,52.0
2236,72.0,3,127,5.0,59.0
2237,55.0,0,101,0.0,61.0
2238,55.0,115,110,1.0,68.0
2239,71.0,4,120,5.0,59.0
2240,71.0,1,130,4.0,60.0
2241,55.0,2,130,2.0,59.0
2242,53.0,0,208,3.0,57.0
2243,57.0,4,99,1.0,66.0
2244,53.0,15,201,6.0,58.0
2245,57.0,4,114,0.0,64.0
2246,72.0,90,144,5.0,60.0
2247,57.0,4,135,2.0,61.0
2248,72.0,0,151,4.0,66.0
2249,59.0,112,95,0.0,62.0
2250,59.0,0,97,1.0,63.0
2251,59.0,1,123,2.0,59.0
2252,74.0,8,120,4.0,60.0
2253,74.0,2,128,5.0,62.0
2254,53.0,2,196,3.0,56.0
2255,60.0,88,96,0.0,66.0
2256,60.0,4,101,1.0,62.0
2257,76.0,6,91,5.0,62.0
2258,53.0,10,213,6.0,53.0
2259,76.0,3,98,4.0,70.0
2260,60.0,11,108,2.0,60.0
2261,62.0,92,110,0.0,63.0
2262,62.0,3,113,1.0,64.0
2263,62.0,11,116,2.0,80.0
2264,77.0,6,135,5.0,62.0
2265,77.0,9,135,4.0,70.0
2266,47.0,4,206,3.0,60.0
2267,64.0,8,96,1.0,70.0
2268,64.0,87,106,0.0,66.0
2269,64.0,4,107,2.0,59.0
2270,47.0,3,217,6.0,55.0
2271,76.0,7,125,4.0,64.0
2272,76.0,7,141,5.0,60.0
2273,74.0,0,120,5.0,48.0
2274,74.0,8,121,4.0,49.0
2275,65.0,2,151,0.0,80.0
2276,65.0,103,159,1.0,82.0
2277,65.0,1,154,2.0,66.0
2278,47.0,4,208,3.0,53.0
2279,47.0,0,211,6.0,44.0
2280,76.0,113,134,5.0,57.0
2281,76.0,7,136,4.0,66.0
2282,74.0,0,120,4.0,62.0
2283,74.0,11,128,5.0,55.0
2284,64.0,4,140,1.0,63.0
2285,64.0,2,151,0.0,66.0
2286,64.0,1,156,2.0,61.0
2287,48.0,103,205,3.0,62.0
2288,48.0,4,203,6.0,53.0
2289,72.0,113,92,4.0,58.0
2290,72.0,0,108,5.0,64.0
2291,62.0,0,111,0.0,52.0
2292,62.0,3,110,1.0,68.0
2293,71.0,108,136,5.0,60.0
2294,71.0,2,127,4.0,68.0
2295,62.0,6,130,2.0,63.0
2296,60.0,98,102,0.0,63.0
2297,55.0,6,214,6.0,60.0
2298,55.0,1,209,3.0,68.0
2299,60.0,11,103,1.0,59.0
2300,69.0,0,125,5.0,46.0
2301,60.0,7,120,2.0,55.0
2302,69.0,1,128,4.0,60.0
2303,59.0,100,112,0.0,60.0
2304,59.0,0,105,1.0,61.0
2305,67.0,0,138,5.0,54.0
2306,59.0,7,125,2.0,60.0
2307,67.0,10,146,4.0,54.0
2308,53.0,4,204,6.0,64.0
2309,53.0,4,200,3.0,45.0
2310,60.0,4,100,1.0,68.0
2311,60.0,95,119,0.0,59.0
2312,60.0,3,115,2.0,61.0
2313,69.0,6,133,5.0,58.0
2314,69.0,7,143,4.0,58.0
2315,62.0,2,98,0.0,70.0
2316,62.0,100,122,1.0,62.0
2317,62.0,1,97,2.0,66.0
2318,71.0,2,112,5.0,56.0
2319,71.0,13,117,4.0,58.0
2320,52.0,1,185,3.0,54.0
2321,52.0,8,210,6.0,57.0
2322,64.0,0,95,1.0,63.0
2323,64.0,2,97,0.0,64.0
2324,64.0,8,105,2.0,70.0
2325,72.0,4,105,4.0,59.0
2326,72.0,96,120,5.0,51.0
2327,65.0,4,96,1.0,61.0
2328,65.0,105,113,0.0,70.0
2329,65.0,2,101,2.0,63.0
2330,74.0,2,136,5.0,59.0
2331,74.0,5,138,4.0,63.0
2332,67.0,2,89,1.0,72.0
2333,50.0,2,198,6.0,58.0
2334,67.0,100,104,0.0,72.0
2335,50.0,2,223,3.0,62.0
2336,67.0,1,114,2.0,70.0
2337,76.0,4,139,5.0,61.0
2338,76.0,9,140,4.0,63.0
2339,77.0,4,126,5.0,60.0
2340,69.0,1,122,2.0,70.0
2341,69.0,3,125,1.0,78.0
2342,77.0,1,129,4.0,60.0
2343,69.0,0,151,0.0,80.0
2344,48.0,111,216,3.0,59.0
2345,48.0,4,219,6.0,62.0
2346,74.0,4,136,4.0,61.0
2347,74.0,106,141,5.0,53.0
2348,76.0,3,139,5.0,61.0
2349,76.0,0,147,4.0,63.0
2350,46.0,1,202,3.0,53.0
2351,46.0,118,212,6.0,47.0
2352,77.0,2,101,4.0,63.0
2353,77.0,112,107,5.0,57.0
2354,67.0,7,350,0.0,68.0
2355,79.0,6,120,5.0,55.0
2356,79.0,4,128,4.0,66.0
2357,67.0,0,389,2.0,59.0
2358,67.0,7,389,1.0,68.0
2359,40.0,118,204,6.0,62.0
2360,40.0,0,218,3.0,58.0
2361,81.0,106,145,5.0,56.0
2362,81.0,8,146,4.0,64.0
2363,58.0,106,105,0.0,64.0
2364,58.0,2,108,2.0,64.0
2365,58.0,3,115,1.0,66.0
2366,79.0,13,123,5.0,59.0
2367,79.0,4,126,4.0,59.0
2368,40.0,1,179,3.0,57.0
2369,40.0,0,201,6.0,57.0
2370,57.0,82,140,0.0,66.0
2371,57.0,12,129,2.0,68.0
2372,77.0,5,132,5.0,55.0
2373,57.0,0,132,1.0,68.0
2374,77.0,14,121,4.0,60.0
2375,58.0,95,112,0.0,64.0
2376,58.0,4,103,2.0,60.0
2377,58.0,4,105,1.0,66.0
2378,76.0,4,110,5.0,52.0
2379,76.0,7,108,4.0,52.0
2380,55.0,2,89,2.0,63.0
2381,40.0,7,205,3.0,59.0
2382,55.0,81,103,0.0,68.0
2383,55.0,6,107,1.0,60.0
2384,40.0,7,195,6.0,47.0
2385,74.0,3,108,4.0,60.0
2386,74.0,4,114,5.0,61.0
2387,57.0,1,97,1.0,70.0
2388,57.0,121,102,0.0,78.0
2389,72.0,0,103,5.0,55.0
2390,57.0,1,111,2.0,74.0
2391,72.0,1,118,4.0,70.0
2392,41.0,3,187,6.0,68.0
2393,41.0,2,195,3.0,72.0
2394,79.0,105,134,5.0,53.0
2395,79.0,4,149,4.0,58.0
2396,62.0,118,107,0.0,80.0
2397,62.0,1,98,1.0,80.0
2398,62.0,7,105,2.0,68.0
2399,77.0,4,118,5.0,58.0
2400,77.0,4,115,4.0,66.0
2401,38.0,0,167,3.0,57.0
2402,38.0,0,213,6.0,59.0
2403,76.0,110,126,5.0,57.0
2404,76.0,1,131,4.0,62.0
2405,59.0,3,102,0.0,61.0
2406,59.0,1,98,1.0,70.0
2407,59.0,4,104,2.0,59.0
2408,74.0,118,125,5.0,45.0
2409,74.0,4,129,4.0,47.0
2410,43.0,2,125,3.0,80.0
2411,43.0,3,162,6.0,63.0
2412,76.0,97,107,5.0,57.0
2413,76.0,11,128,4.0,62.0
2414,72.0,1,111,4.0,62.0
2415,72.0,124,129,5.0,59.0
2416,76.0,94,131,4.0,63.0
2417,76.0,8,142,5.0,53.0
2418,60.0,2,324,2.0,59.0
2419,60.0,4,338,0.0,64.0
2420,60.0,0,347,1.0,64.0
2421,74.0,108,136,4.0,57.0
2422,74.0,16,137,5.0,59.0
2423,36.0,2,458,3.0,63.0
2424,36.0,4,466,6.0,63.0
2425,72.0,106,141,4.0,57.0
2426,72.0,18,132,5.0,51.0
2427,62.0,0,109,0.0,78.0
2428,62.0,4,117,1.0,60.0
2429,62.0,2,125,2.0,60.0
2430,71.0,117,129,4.0,59.0
2431,71.0,2,128,5.0,57.0
2432,72.0,106,94,4.0,60.0
2433,72.0,11,97,5.0,59.0
2434,74.0,1,127,5.0,59.0
2435,74.0,11,135,4.0,64.0
2436,59.0,6,175,1.0,59.0
2437,59.0,0,184,0.0,60.0
2438,59.0,0,183,2.0,57.0
2439,43.0,99,217,3.0,59.0
2440,43.0,0,203,6.0,54.0
2441,77.0,2,140,4.0,59.0
2442,77.0,114,150,5.0,51.0
2443,60.0,2,124,2.0,66.0
2444,76.0,1,128,4.0,56.0
2445,76.0,4,137,5.0,59.0
2446,60.0,1,143,1.0,70.0
2447,60.0,0,146,0.0,70.0
2448,43.0,114,182,3.0,57.0
2449,43.0,8,192,6.0,48.0
2450,59.0,1,119,0.0,70.0
2451,59.0,105,128,2.0,61.0
2452,59.0,0,129,1.0,70.0
2453,74.0,3,137,4.0,57.0
2454,74.0,5,144,5.0,59.0
2455,57.0,3,102,1.0,59.0
2456,57.0,2,107,0.0,60.0
2457,57.0,1,106,2.0,53.0
2458,72.0,1,111,4.0,52.0
2459,72.0,7,117,5.0,44.0
2460,55.0,7,82,2.0,60.0
2461,43.0,98,218,3.0,58.0
2462,55.0,99,99,0.0,62.0
2463,55.0,1,103,1.0,58.0
2464,71.0,1,114,4.0,53.0
2465,43.0,11,240,6.0,59.0
2466,71.0,4,123,5.0,52.0
2467,64.0,5,72,2.0,52.0
2468,64.0,0,79,0.0,64.0
2469,64.0,3,78,1.0,66.0
2470,73.0,1,128,4.0,52.0
2471,73.0,4,152,5.0,52.0
2472,65.0,9,69,2.0,63.0
2473,65.0,4,84,0.0,72.0
2474,65.0,1,79,1.0,57.0
2475,55.0,106,212,3.0,57.0
2476,55.0,5,210,6.0,61.0
2477,69.0,95,145,4.0,51.0
2478,69.0,6,135,5.0,52.0
2479,67.0,2,62,1.0,74.0
2480,67.0,4,68,0.0,72.0
2481,67.0,3,76,2.0,62.0
2482,71.0,107,135,4.0,56.0
2483,71.0,4,133,5.0,57.0
2484,69.0,2,64,1.0,74.0
2485,69.0,4,66,2.0,72.0
2486,55.0,2,187,3.0,61.0
2487,69.0,4,76,0.0,68.0
2488,55.0,10,177,6.0,64.0
2489,73.0,95,131,4.0,54.0
2490,73.0,7,136,5.0,50.0
2491,74.0,0,109,4.0,51.0
2492,74.0,9,115,5.0,55.0
2493,55.0,96,216,3.0,68.0
2494,73.0,3,88,4.0,52.0
2495,55.0,9,224,6.0,62.0
2496,73.0,106,106,5.0,50.0
2497,76.0,5,108,4.0,60.0
2498,76.0,3,113,5.0,63.0
2499,70.0,2,429,1.0,72.0
2500,70.0,4,420,2.0,63.0
2501,70.0,2,437,0.0,68.0
2502,74.0,7,83,5.0,44.0
2503,74.0,101,94,4.0,30.0
2504,49.0,113,211,3.0,57.0
2505,49.0,4,208,6.0,57.0
2506,77.0,119,101,5.0,63.0
2507,77.0,2,99,4.0,70.0
2508,69.0,5,107,1.0,76.0
2509,69.0,6,120,2.0,66.0
2510,69.0,3,145,0.0,68.0
2511,76.0,87,74,4.0,57.0
2512,49.0,6,194,3.0,52.0
2513,76.0,5,88,5.0,53.0
2514,49.0,4,211,6.0,57.0
2515,82.0,0,111,5.0,63.0
2516,67.0,2,113,1.0,68.0
2517,82.0,131,125,4.0,68.0
2518,67.0,5,138,0.0,60.0
2519,67.0,0,142,2.0,60.0
2520,81.0,100,81,4.0,70.0
2521,81.0,4,77,5.0,66.0
2522,49.0,0,196,3.0,57.0
2523,49.0,9,211,6.0,63.0
2524,81.0,8,130,5.0,60.0
2525,81.0,0,139,4.0,64.0
2526,65.0,123,157,1.0,66.0
2527,65.0,0,162,0.0,68.0
2528,65.0,0,191,2.0,60.0
2529,50.0,0,184,3.0,68.0
2530,50.0,10,192,6.0,58.0
2531,77.0,94,141,4.0,53.0
2532,77.0,5,136,5.0,57.0
2533,76.0,0,107,4.0,52.0
2534,76.0,4,115,5.0,47.0
2535,67.0,5,125,2.0,74.0
2536,67.0,0,133,1.0,68.0
2537,67.0,2,143,0.0,74.0
2538,48.0,121,221,3.0,58.0
2539,48.0,0,223,6.0,57.0
2540,65.0,99,121,2.0,57.0
2541,65.0,3,128,1.0,68.0
2542,74.0,1,117,4.0,63.0
2543,74.0,13,112,5.0,57.0
2544,65.0,11,137,0.0,70.0
2545,64.0,95,106,1.0,59.0
2546,64.0,2,118,2.0,54.0
2547,64.0,0,110,0.0,63.0
2548,73.0,7,136,4.0,50.0
2549,73.0,0,139,5.0,48.0
2550,46.0,3,198,3.0,57.0
2551,62.0,98,104,2.0,62.0
2552,62.0,4,100,1.0,64.0
2553,62.0,5,96,0.0,70.0
2554,74.0,7,89,4.0,64.0
2555,46.0,8,213,6.0,54.0
2556,74.0,1,99,5.0,59.0
2557,61.0,1,81,2.0,72.0
2558,61.0,7,98,0.0,63.0
2559,61.0,105,106,1.0,58.0
2560,76.0,4,122,4.0,76.0
2561,76.0,1,123,5.0,66.0
2562,62.0,0,74,1.0,41.0
2563,62.0,99,84,0.0,72.0
2564,62.0,0,90,2.0,63.0
2565,45.0,3,206,3.0,59.0
2566,45.0,7,202,6.0,57.0
2567,77.0,2,129,4.0,66.0
2568,77.0,6,147,5.0,68.0
2569,64.0,2,116,0.0,66.0
2570,64.0,3,132,2.0,59.0
2571,64.0,1,128,1.0,64.0
2572,79.0,1,131,5.0,58.0
2573,79.0,4,143,4.0,62.0
2574,45.0,4,191,3.0,57.0
2575,45.0,113,206,6.0,49.0
2576,76.0,119,78,5.0,54.0
2577,76.0,0,80,4.0,57.0
2578,77.0,5,111,4.0,66.0
2579,77.0,2,116,5.0,59.0
2580,74.0,116,85,4.0,64.0
2581,74.0,2,85,5.0,60.0
2582,45.0,105,223,3.0,59.0
2583,45.0,4,222,6.0,57.0
2584,73.0,8,132,4.0,60.0
2585,69.0,0,377,0.0,68.0
2586,73.0,1,135,5.0,55.0
2587,69.0,0,400,2.0,64.0
2588,69.0,1,400,1.0,66.0
2589,55.0,2,174,3.0,68.0
2590,55.0,114,193,6.0,59.0
2591,71.0,2,130,5.0,60.0
2592,71.0,108,140,4.0,60.0
2593,67.0,1,127,2.0,68.0
2594,73.0,4,129,4.0,49.0
2595,73.0,4,129,5.0,47.0
2596,67.0,0,138,0.0,68.0
2597,67.0,2,144,1.0,63.0
2598,55.0,3,202,3.0,54.0
2599,55.0,110,206,6.0,59.0
2600,65.0,3,116,1.0,68.0
2601,65.0,1,126,0.0,60.0
2602,74.0,4,128,5.0,64.0
2603,65.0,105,149,2.0,57.0
2604,74.0,3,148,4.0,57.0
2605,64.0,5,113,1.0,54.0
2606,64.0,108,127,0.0,56.0
2607,64.0,2,124,2.0,54.0
2608,76.0,4,116,5.0,58.0
2609,76.0,12,119,4.0,68.0
2610,55.0,6,190,3.0,60.0
2611,62.0,82,107,2.0,60.0
2612,62.0,3,93,1.0,64.0
2613,55.0,0,211,6.0,58.0
2614,62.0,9,104,0.0,64.0
2615,77.0,4,103,5.0,63.0
2616,77.0,6,94,4.0,64.0
2617,61.0,2,120,2.0,74.0
2618,79.0,1,128,5.0,66.0
2619,61.0,109,136,0.0,68.0
2620,61.0,2,131,1.0,61.0
2621,79.0,7,130,4.0,64.0
2622,52.0,2,192,6.0,57.0
2623,52.0,1,225,3.0,59.0
2624,62.0,4,131,2.0,66.0
2625,62.0,99,143,0.0,64.0
2626,77.0,0,146,5.0,52.0
2627,62.0,7,137,1.0,68.0
2628,77.0,1,142,4.0,48.0
2629,79.0,9,132,5.0,51.0
2630,64.0,1,127,1.0,63.0
2631,64.0,106,149,2.0,57.0
2632,79.0,2,129,4.0,61.0
2633,64.0,9,143,0.0,68.0
2634,65.0,1,87,1.0,66.0
2635,52.0,5,187,3.0,49.0
2636,52.0,3,203,6.0,53.0
2637,65.0,92,119,2.0,53.0
2638,65.0,6,116,0.0,66.0
2639,81.0,5,139,5.0,58.0
2640,81.0,8,133,4.0,60.0
2641,82.0,110,132,5.0,54.0
2642,82.0,7,136,4.0,59.0
2643,52.0,3,195,3.0,62.0
2644,79.0,8,95,4.0,56.0
2645,79.0,105,111,5.0,45.0
2646,52.0,5,229,6.0,57.0
2647,81.0,4,125,4.0,66.0
2648,81.0,111,143,5.0,55.0
2649,67.0,2,421,1.0,70.0
2650,67.0,0,424,2.0,64.0
2651,67.0,0,440,0.0,64.0
2652,49.0,3,215,3.0,57.0
2653,49.0,3,225,6.0,56.0
2654,82.0,106,144,4.0,55.0
2655,82.0,6,161,5.0,51.0
2656,65.0,4,125,1.0,68.0
2657,81.0,1,141,4.0,57.0
2658,65.0,2,140,0.0,64.0
2659,65.0,119,147,2.0,59.0
2660,81.0,0,140,5.0,55.0
2661,47.0,3,204,3.0,51.0
2662,64.0,2,115,1.0,59.0
2663,47.0,3,228,6.0,54.0
2664,64.0,9,116,0.0,59.0
2665,64.0,102,133,2.0,64.0
2666,79.0,6,130,5.0,48.0
2667,79.0,0,139,4.0,47.0
2668,62.0,6,114,1.0,60.0
2669,62.0,0,121,0.0,59.0
2670,62.0,6,122,2.0,62.0
2671,77.0,12,116,4.0,54.0
2672,77.0,1,132,5.0,52.0
2673,45.0,104,177,3.0,57.0
2674,45.0,0,178,6.0,60.0
2675,61.0,88,91,1.0,55.0
2676,61.0,3,89,2.0,52.0
2677,61.0,1,102,0.0,57.0
2678,76.0,11,96,5.0,53.0
2679,76.0,5,99,4.0,58.0
2680,62.0,3,82,2.0,63.0
2681,62.0,104,90,1.0,66.0
2682,62.0,1,99,0.0,80.0
2683,57.0,99,78,2.0,54.0
2684,57.0,6,86,1.0,57.0
2685,57.0,3,83,0.0,64.0
2686,50.0,3,218,3.0,66.0
2687,50.0,1,219,6.0,66.0
2688,65.0,114,141,2.0,63.0
2689,65.0,5,137,1.0,80.0
2690,65.0,2,145,0.0,68.0
2691,52.0,4,204,3.0,60.0
2692,64.0,102,112,1.0,66.0
2693,64.0,5,129,2.0,61.0
2694,64.0,13,118,0.0,64.0
2695,52.0,3,240,6.0,55.0
2696,62.0,111,90,2.0,59.0
2697,62.0,0,118,1.0,44.0
2698,62.0,4,127,0.0,56.0
2699,60.0,99,76,2.0,52.0
2700,60.0,9,78,0.0,59.0
2701,53.0,1,202,3.0,57.0
2702,60.0,3,92,1.0,58.0
2703,53.0,4,220,6.0,55.0
2704,77.0,8,786,5.0,58.0
2705,77.0,3,795,4.0,68.0
2706,58.0,1,112,1.0,59.0
2707,58.0,107,136,2.0,60.0
2708,58.0,12,135,0.0,68.0
2709,55.0,7,211,3.0,61.0
2710,55.0,8,201,6.0,55.0
2711,62.0,1,115,1.0,70.0
2712,62.0,90,134,2.0,66.0
2713,62.0,11,122,0.0,76.0
2714,77.0,0,142,5.0,60.0
2715,77.0,5,142,4.0,60.0
2716,67.0,113,68,2.0,78.0
2717,67.0,1,61,1.0,66.0
2718,67.0,1,91,0.0,76.0
2719,76.0,4,104,5.0,59.0
2720,76.0,6,125,4.0,66.0
2721,64.0,105,63,2.0,66.0
2722,64.0,6,67,1.0,72.0
2723,64.0,4,80,0.0,66.0
2724,55.0,3,190,6.0,62.0
2725,55.0,0,206,3.0,58.0
2726,73.0,0,138,5.0,49.0
2727,73.0,0,142,4.0,51.0
2728,74.0,6,116,5.0,57.0
2729,74.0,4,109,4.0,63.0
2730,55.0,113,207,6.0,54.0
2731,55.0,3,208,3.0,57.0
2732,76.0,97,111,4.0,66.0
2733,76.0,7,111,5.0,60.0
2734,65.0,2,284,1.0,68.0
2735,65.0,1,300,2.0,58.0
2736,65.0,3,315,0.0,70.0
2737,69.0,3,149,5.0,59.0
2738,69.0,3,160,4.0,66.0
2739,62.0,104,66,2.0,64.0
2740,62.0,4,58,1.0,64.0
2741,62.0,5,74,0.0,68.0
2742,57.0,4,193,3.0,58.0
2743,57.0,125,218,6.0,58.0
2744,65.0,115,133,1.0,70.0
2745,65.0,1,135,2.0,66.0
2746,65.0,4,132,0.0,66.0
2747,81.0,13,129,5.0,57.0
2748,81.0,1,134,4.0,68.0
2749,64.0,2,65,2.0,72.0
2750,64.0,3,75,0.0,78.0
2751,64.0,92,83,1.0,70.0
2752,57.0,0,194,3.0,53.0
2753,57.0,3,195,6.0,56.0
2754,77.0,119,43,5.0,60.0
2755,77.0,0,44,4.0,59.0
2756,76.0,37,41,5.0,43.0
2757,76.0,5,36,4.0,49.0
2758,62.0,2,116,1.0,66.0
2759,62.0,4,117,2.0,64.0
2760,77.0,30,45,5.0,60.0
2761,62.0,2,119,0.0,66.0
2762,77.0,2,51,4.0,60.0
2763,57.0,2,193,3.0,63.0
2764,61.0,28,86,1.0,61.0
2765,61.0,5,83,2.0,66.0
2766,61.0,0,95,0.0,64.0
2767,76.0,4,98,5.0,59.0
2768,57.0,1,223,6.0,58.0
2769,76.0,4,110,4.0,60.0
2770,77.0,0,131,5.0,61.0
2771,77.0,8,134,4.0,64.0
2772,50.0,116,209,3.0,61.0
2773,50.0,0,210,6.0,52.0
2774,76.0,107,139,5.0,49.0
2775,76.0,8,137,4.0,60.0
2776,62.0,0,341,0.0,59.0
2777,62.0,7,372,2.0,66.0
2778,77.0,4,132,5.0,59.0
2779,62.0,1,383,1.0,60.0
2780,77.0,1,145,4.0,60.0
2781,53.0,110,198,6.0,57.0
2782,53.0,4,202,3.0,59.0
2783,79.0,113,136,5.0,56.0
2784,79.0,3,148,4.0,58.0
2785,57.0,4,74,2.0,61.0
2786,57.0,108,81,0.0,63.0
2787,57.0,3,74,1.0,68.0
2788,77.0,2,136,5.0,57.0
2789,77.0,2,129,4.0,63.0
2790,59.0,2,72,1.0,70.0
2791,59.0,3,66,2.0,59.0
2792,59.0,103,78,0.0,68.0
2793,57.0,5,193,6.0,62.0
2794,57.0,1,196,3.0,64.0
2795,76.0,4,99,4.0,54.0
2796,76.0,5,108,5.0,48.0
2797,60.0,4,177,1.0,68.0
2798,60.0,107,199,2.0,63.0
2799,60.0,5,198,0.0,66.0
2800,54.0,1,203,3.0,49.0
2801,54.0,3,210,6.0,51.0
2802,62.0,7,121,2.0,72.0
2803,62.0,3,144,0.0,64.0
2804,62.0,1,136,1.0,66.0
2805,54.0,1,206,6.0,53.0
2806,54.0,228,210,3.0,57.0
2807,60.0,6,122,1.0,64.0
2808,60.0,101,139,2.0,63.0
2809,60.0,7,135,0.0,66.0
2810,59.0,1,107,2.0,66.0
2811,59.0,114,115,1.0,60.0
2812,59.0,2,122,0.0,64.0
2813,54.0,5,192,3.0,57.0
2814,54.0,0,200,6.0,55.0
2815,57.0,105,110,2.0,59.0
2816,57.0,0,110,1.0,62.0
2817,57.0,7,103,0.0,61.0
2818,59.0,1,111,2.0,62.0
2819,59.0,118,119,1.0,66.0
2820,74.0,2,829,4.0,63.0
2821,74.0,2,830,5.0,48.0
2822,59.0,2,146,0.0,72.0
2823,53.0,2,196,3.0,59.0
2824,53.0,3,203,6.0,55.0
2825,57.0,104,111,1.0,61.0
2826,72.0,10,105,4.0,58.0
2827,57.0,5,121,2.0,57.0
2828,72.0,1,116,5.0,54.0
2829,57.0,0,140,0.0,57.0
2830,55.0,1,92,1.0,68.0
2831,55.0,112,104,2.0,66.0
2832,71.0,6,129,5.0,58.0
2833,71.0,3,139,4.0,58.0
2834,55.0,6,134,0.0,64.0
2835,53.0,1,196,3.0,59.0
2836,53.0,0,210,6.0,57.0
2837,57.0,2,100,1.0,64.0
2838,57.0,99,111,2.0,64.0
2839,57.0,11,121,0.0,68.0
2840,72.0,6,134,5.0,64.0
2841,72.0,0,138,4.0,66.0
2842,59.0,2,93,1.0,70.0
2843,59.0,4,109,2.0,57.0
2844,74.0,7,130,4.0,68.0
2845,74.0,0,137,5.0,61.0
2846,59.0,0,143,0.0,68.0
2847,53.0,104,202,3.0,57.0
2848,76.0,18,87,5.0,60.0
2849,60.0,91,114,2.0,58.0
2850,60.0,0,96,1.0,80.0
2851,76.0,0,96,4.0,68.0
2852,53.0,4,206,6.0,49.0
2853,60.0,1,98,0.0,62.0
2854,62.0,111,115,2.0,64.0
2855,62.0,2,123,1.0,76.0
2856,62.0,6,121,0.0,68.0
2857,77.0,0,138,5.0,70.0
2858,77.0,0,140,4.0,68.0
2859,47.0,2,190,3.0,60.0
2860,47.0,7,206,6.0,62.0
2861,64.0,4,108,1.0,72.0
2862,64.0,5,105,2.0,63.0
2863,64.0,98,126,0.0,66.0
2864,76.0,1,137,4.0,66.0
2865,76.0,4,139,5.0,59.0
2866,74.0,8,124,5.0,48.0
2867,74.0,0,132,4.0,55.0
2868,65.0,1,140,2.0,63.0
2869,65.0,11,150,1.0,78.0
2870,65.0,0,146,0.0,59.0
2871,47.0,103,215,3.0,66.0
2872,47.0,0,218,6.0,66.0
2873,76.0,113,135,5.0,57.0
2874,76.0,4,159,4.0,66.0
2875,74.0,4,131,5.0,57.0
2876,64.0,4,120,2.0,68.0
2877,64.0,6,139,1.0,64.0
2878,74.0,5,131,4.0,66.0
2879,64.0,3,134,0.0,68.0
2880,48.0,110,198,3.0,53.0
2881,48.0,2,214,6.0,62.0
2882,72.0,13,99,4.0,61.0
2883,72.0,101,116,5.0,54.0
2884,62.0,13,117,1.0,70.0
2885,62.0,3,119,2.0,66.0
2886,62.0,102,137,0.0,64.0
2887,71.0,1,119,5.0,58.0
2888,71.0,3,137,4.0,70.0
2889,60.0,1,99,1.0,60.0
2890,55.0,2,207,6.0,60.0
2891,60.0,2,110,0.0,60.0
2892,55.0,1,242,3.0,64.0
2893,60.0,101,120,2.0,52.0
2894,69.0,0,124,4.0,58.0
2895,69.0,12,126,5.0,49.0
2896,59.0,1,106,1.0,66.0
2897,59.0,2,113,0.0,64.0
2898,59.0,1,119,2.0,60.0
2899,67.0,107,138,5.0,49.0
2900,67.0,0,143,4.0,52.0
2901,60.0,0,88,1.0,72.0
2902,53.0,3,197,3.0,58.0
2903,60.0,1,109,2.0,60.0
2904,53.0,3,223,6.0,61.0
2905,60.0,104,122,0.0,66.0
2906,69.0,7,135,5.0,59.0
2907,69.0,12,135,4.0,62.0
2908,62.0,101,100,1.0,68.0
2909,62.0,0,109,0.0,64.0
2910,62.0,6,110,2.0,59.0
2911,71.0,2,111,5.0,63.0
2912,71.0,4,136,4.0,74.0
2913,52.0,5,202,3.0,58.0
2914,64.0,93,95,1.0,72.0
2915,64.0,7,98,2.0,70.0
2916,52.0,6,201,6.0,59.0
2917,64.0,2,107,0.0,66.0
2918,72.0,3,112,5.0,55.0
2919,72.0,5,115,4.0,58.0
2920,65.0,94,111,0.0,66.0
2921,65.0,1,106,2.0,66.0
2922,65.0,12,117,1.0,70.0
2923,74.0,1,129,5.0,68.0
2924,74.0,5,127,4.0,57.0
2925,67.0,4,95,2.0,70.0
2926,50.0,12,191,6.0,64.0
2927,67.0,1,95,1.0,68.0
2928,67.0,86,112,0.0,64.0
2929,50.0,3,222,3.0,60.0
2930,76.0,9,137,5.0,60.0
2931,76.0,8,140,4.0,68.0
2932,69.0,7,104,2.0,70.0
2933,77.0,7,118,5.0,57.0
2934,69.0,0,132,1.0,76.0
2935,77.0,4,135,4.0,68.0
2936,69.0,103,156,0.0,64.0
2937,48.0,1,219,3.0,62.0
2938,48.0,1,222,6.0,64.0
2939,74.0,108,141,5.0,57.0
2940,74.0,4,151,4.0,64.0
2941,76.0,1,135,4.0,64.0
2942,76.0,0,140,5.0,59.0
2943,46.0,118,217,3.0,52.0
2944,46.0,3,208,6.0,58.0
2945,77.0,4,100,5.0,63.0
2946,77.0,113,108,4.0,64.0
2947,79.0,116,118,5.0,59.0
2948,79.0,7,130,4.0,63.0
2949,67.0,2,392,0.0,68.0
2950,67.0,4,398,2.0,68.0
2951,67.0,2,397,1.0,66.0
2952,40.0,0,204,6.0,59.0
2953,40.0,1,217,3.0,68.0
2954,81.0,103,141,5.0,57.0
2955,81.0,9,155,4.0,61.0
2956,58.0,4,106,1.0,63.0
2957,58.0,2,118,0.0,62.0
2958,79.0,124,130,5.0,60.0
2959,58.0,4,123,2.0,63.0
2960,79.0,0,136,4.0,60.0
2961,40.0,0,184,3.0,61.0
2962,40.0,4,179,6.0,54.0
2963,57.0,97,121,1.0,70.0
2964,57.0,0,135,2.0,60.0
2965,77.0,2,132,5.0,57.0
2966,57.0,4,136,0.0,70.0
2967,77.0,9,136,4.0,59.0
2968,58.0,3,97,1.0,58.0
2969,58.0,2,102,2.0,57.0
2970,58.0,1,112,0.0,58.0
2971,76.0,8,110,5.0,52.0
2972,76.0,3,115,4.0,56.0
2973,55.0,1,86,2.0,59.0
2974,40.0,1,198,3.0,59.0
2975,40.0,106,209,6.0,59.0
2976,55.0,95,103,1.0,58.0
2977,55.0,2,113,0.0,64.0
2978,74.0,9,108,4.0,58.0
2979,74.0,2,109,5.0,60.0
2980,57.0,107,91,2.0,74.0
2981,57.0,8,96,1.0,82.0
2982,72.0,2,93,5.0,57.0
2983,57.0,4,105,0.0,80.0
2984,72.0,2,107,4.0,66.0
2985,41.0,3,185,3.0,68.0
2986,41.0,4,206,6.0,64.0
2987,79.0,108,139,4.0,66.0
2988,79.0,8,135,5.0,51.0
2989,62.0,0,83,2.0,78.0
2990,62.0,6,109,1.0,82.0
2991,62.0,7,110,0.0,80.0
2992,77.0,7,136,4.0,68.0
2993,77.0,0,132,5.0,63.0
2994,38.0,0,167,3.0,59.0
2995,38.0,104,215,6.0,59.0
2996,76.0,8,128,5.0,64.0
2997,76.0,108,141,4.0,66.0
2998,60.0,94,43,2.0,70.0
2999,60.0,3,42,1.0,68.0
3000,60.0,13,46,0.0,63.0
3001,59.0,15,34,2.0,57.0
3002,59.0,8,39,1.0,62.0
3003,59.0,5,44,0.0,64.0
3004,43.0,2,103,3.0,66.0
3005,60.0,16,55,2.0,60.0
3006,60.0,14,49,1.0,61.0
3007,60.0,10,46,0.0,66.0
3008,74.0,4,119,4.0,53.0
3009,74.0,0,130,5.0,48.0
3010,43.0,4,159,6.0,66.0
3011,59.0,19,68,2.0,68.0
3012,59.0,6,72,1.0,70.0
3013,59.0,12,73,0.0,63.0
3014,76.0,7,108,5.0,58.0
3015,76.0,6,124,4.0,63.0
3016,60.0,1,404,0.0,62.0
3017,60.0,107,412,2.0,57.0
3018,60.0,4,442,1.0,59.0
3019,36.0,3,450,3.0,59.0
3020,72.0,5,464,5.0,54.0
3021,72.0,7,469,4.0,58.0
3022,36.0,11,480,6.0,63.0
3023,64.0,0,92,1.0,68.0
3024,60.0,0,101,2.0,70.0
3025,48.0,2,100,3.0,80.0
3026,67.0,0,106,4.0,68.0
3027,48.0,4,113,6.0,80.0
3028,67.0,461,124,0.0,72.0
3029,67.0,2,122,5.0,72.0
3030,60.0,2,110,3.0,87.0
3031,60.0,226,116,6.0,80.0
3032,72.0,3,135,0.0,80.0
3033,72.0,0,137,5.0,82.0
3034,64.0,0,151,1.0,64.0
3035,72.0,4,157,4.0,85.0
3036,48.0,223,108,6.0,70.0
3037,48.0,1,111,3.0,87.0
3038,55.0,4,355,2.0,70.0
3039,76.0,5,143,5.0,80.0
3040,76.0,3,148,0.0,85.0
3041,76.0,4,144,4.0,82.0
3042,67.0,5,148,1.0,80.0
3043,74.0,3,135,4.0,57.0
3044,74.0,97,147,5.0,70.0
3045,65.0,7,133,1.0,68.0
3046,74.0,9,146,0.0,78.0
3047,59.0,106,111,6.0,80.0
3048,59.0,7,111,3.0,80.0
3049,55.0,1,113,2.0,70.0
3050,64.0,2,117,1.0,66.0
3051,72.0,2,118,5.0,64.0
3052,72.0,0,127,0.0,68.0
3053,72.0,0,130,4.0,64.0
3054,62.0,109,83,1.0,74.0
3055,71.0,4,75,4.0,66.0
3056,71.0,1,79,0.0,72.0
3057,71.0,5,90,5.0,76.0
3058,64.0,121,81,1.0,66.0
3059,72.0,0,73,0.0,76.0
3060,72.0,0,81,5.0,72.0
3061,72.0,5,80,4.0,80.0
3062,57.0,1,105,6.0,78.0
3063,57.0,4,107,3.0,89.0
3064,74.0,3,77,4.0,82.0
3065,74.0,5,71,0.0,82.0
3066,74.0,2,79,5.0,82.0
3067,65.0,100,86,1.0,76.0
3068,76.0,112,65,4.0,76.0
3069,67.0,1,64,1.0,68.0
3070,76.0,0,66,5.0,70.0
3071,76.0,1,68,0.0,82.0
3072,55.0,3,97,6.0,68.0
3073,55.0,12,97,3.0,82.0
3074,60.0,2,346,2.0,68.0
3075,77.0,97,62,4.0,85.0
3076,69.0,1,66,1.0,70.0
3077,77.0,4,65,5.0,80.0
3078,77.0,2,66,0.0,87.0
3079,53.0,6,106,6.0,74.0
3080,53.0,0,113,3.0,80.0
3081,62.0,0,123,2.0,78.0
3082,71.0,117,144,1.0,70.0
3083,64.0,0,104,2.0,80.0
3084,52.0,234,104,3.0,87.0
3085,52.0,0,118,6.0,85.0
3086,79.0,2,394,4.0,89.0
3087,79.0,9,394,0.0,87.0
3088,79.0,0,425,5.0,87.0
3089,53.0,6,108,3.0,82.0
3090,53.0,1,107,6.0,78.0
3091,81.0,1,102,4.0,80.0
3092,60.0,228,120,2.0,68.0
3093,81.0,3,117,0.0,85.0
3094,72.0,7,356,1.0,80.0
3095,81.0,3,124,5.0,82.0
3096,77.0,0,102,5.0,82.0
3097,77.0,4,113,4.0,82.0
3098,50.0,224,118,3.0,85.0
3099,50.0,0,110,6.0,72.0
3100,65.0,1,121,2.0,74.0
3101,72.0,3,126,1.0,70.0
3102,77.0,7,118,0.0,82.0
3103,55.0,7,111,3.0,82.0
3104,55.0,2,110,6.0,85.0
3105,67.0,1,127,2.0,60.0
3106,71.0,3,146,1.0,76.0
3107,74.0,4,142,0.0,82.0
3108,74.0,5,144,4.0,70.0
3109,74.0,221,180,5.0,82.0
3110,43.0,2,85,3.0,89.0
3111,72.0,0,108,1.0,68.0
3112,43.0,7,101,6.0,78.0
3113,69.0,222,121,2.0,74.0
3114,72.0,1,141,0.0,85.0
3115,72.0,2,146,5.0,82.0
3116,72.0,7,140,4.0,78.0
3117,71.0,92,136,0.0,68.0
3118,71.0,3,134,5.0,72.0
3119,71.0,12,132,4.0,78.0
3120,53.0,8,103,3.0,85.0
3121,53.0,0,97,6.0,74.0
3122,74.0,0,102,1.0,80.0
3123,71.0,4,110,2.0,87.0
3124,69.0,5,124,5.0,68.0
3125,69.0,100,139,0.0,72.0
3126,69.0,2,126,4.0,66.0
3127,67.0,0,84,4.0,68.0
3128,67.0,2,82,5.0,68.0
3129,67.0,100,90,0.0,70.0
3130,52.0,3,99,3.0,89.0
3131,52.0,4,107,6.0,85.0
3132,72.0,4,117,4.0,82.0
3133,72.0,0,128,2.0,82.0
3134,72.0,1,140,0.0,82.0
3135,72.0,0,148,5.0,80.0
3136,60.0,223,97,3.0,82.0
3137,60.0,1,119,6.0,80.0
3138,60.0,7,104,2.0,66.0
3139,67.0,136,377,1.0,66.0
3140,76.0,5,132,0.0,87.0
3141,76.0,7,142,5.0,87.0
3142,76.0,1,148,4.0,89.0
3143,74.0,96,148,0.0,78.0
3144,74.0,9,146,5.0,82.0
3145,74.0,3,143,4.0,78.0
3146,62.0,4,92,2.0,80.0
3147,59.0,3,115,3.0,82.0
3148,59.0,3,118,6.0,85.0
3149,67.0,9,105,1.0,68.0
3150,72.0,0,117,4.0,64.0
3151,72.0,112,133,0.0,68.0
3152,72.0,1,141,5.0,63.0
3153,71.0,8,75,4.0,60.0
3154,71.0,95,99,0.0,64.0
3155,71.0,7,89,5.0,60.0
3156,57.0,109,116,3.0,87.0
3157,57.0,2,102,6.0,70.0
3158,74.0,9,135,5.0,85.0
3159,74.0,1,148,4.0,89.0
3160,74.0,1,150,0.0,87.0
3161,72.0,2,134,5.0,66.0
3162,72.0,3,139,4.0,68.0
3163,72.0,101,151,0.0,78.0
3164,55.0,109,99,3.0,82.0
3165,55.0,1,105,6.0,80.0
3166,71.0,1,114,4.0,66.0
3167,64.0,0,366,2.0,85.0
3168,71.0,4,118,5.0,66.0
3169,71.0,6,135,0.0,66.0
3170,69.0,11,370,1.0,78.0
3171,69.0,108,74,5.0,70.0
3172,69.0,2,73,4.0,70.0
3173,69.0,2,86,0.0,76.0
3174,54.0,5,105,6.0,74.0
3175,62.0,115,112,2.0,78.0
3176,54.0,0,112,3.0,76.0
3177,69.0,2,156,1.0,76.0
3178,55.0,219,106,3.0,80.0
3179,55.0,3,103,6.0,76.0
3180,67.0,1,107,2.0,85.0
3181,71.0,5,109,1.0,68.0
3182,74.0,4,409,4.0,80.0
3183,74.0,8,415,5.0,82.0
3184,74.0,6,409,0.0,76.0
3185,72.0,0,78,5.0,72.0
3186,72.0,1,73,0.0,78.0
3187,47.0,1,96,3.0,85.0
3188,67.0,4,106,1.0,76.0
3189,62.0,237,111,2.0,80.0
3190,72.0,0,100,4.0,78.0
3191,47.0,7,112,6.0,85.0
3192,71.0,104,73,5.0,82.0
3193,71.0,7,68,4.0,68.0
3194,71.0,4,75,0.0,70.0
3195,69.0,109,81,5.0,74.0
3196,69.0,2,80,4.0,70.0
3197,69.0,2,81,0.0,68.0
3198,50.0,4,90,3.0,82.0
3199,66.0,3,99,1.0,72.0
3200,60.0,1,98,2.0,74.0
3201,50.0,1,102,6.0,78.0
3202,71.0,1,75,4.0,80.0
3203,71.0,105,84,5.0,82.0
3204,71.0,4,80,0.0,82.0
3205,43.0,3,125,6.0,82.0
3206,43.0,5,156,3.0,89.0
3207,55.0,222,71,6.0,70.0
3208,55.0,11,79,3.0,74.0
3209,67.0,0,339,4.0,85.0
3210,67.0,2,341,0.0,80.0
3211,62.0,126,348,1.0,82.0
3212,67.0,1,354,5.0,80.0
3213,59.0,0,361,2.0,74.0
3214,53.0,97,66,6.0,78.0
3215,53.0,10,68,3.0,87.0
3216,52.0,104,65,6.0,70.0
3217,52.0,12,79,3.0,80.0
3218,60.0,0,111,2.0,74.0
3219,64.0,9,103,1.0,80.0
3220,67.0,4,120,4.0,80.0
3221,67.0,4,119,5.0,82.0
3222,67.0,23,107,0.0,82.0
3223,50.0,60,72,6.0,76.0
3224,50.0,7,71,3.0,80.0
3225,48.0,5,105,6.0,87.0
3226,48.0,129,120,3.0,82.0
3227,72.0,8,111,4.0,82.0
3228,72.0,6,137,0.0,85.0
3229,72.0,2,151,5.0,85.0
3230,64.0,1,170,1.0,76.0
3231,60.0,0,96,6.0,82.0
3232,60.0,8,100,3.0,82.0
3233,76.0,224,144,4.0,89.0
3234,76.0,4,134,0.0,85.0
3235,76.0,1,140,5.0,91.0
3236,55.0,1,381,2.0,78.0
3237,67.0,6,140,1.0,80.0
3238,65.0,7,127,1.0,70.0
3239,74.0,1,139,0.0,80.0
3240,74.0,96,147,4.0,82.0
3241,74.0,0,142,5.0,80.0
3242,59.0,6,115,6.0,74.0
3243,72.0,109,126,0.0,64.0
3244,59.0,14,111,3.0,80.0
3245,64.0,2,132,1.0,64.0
3246,55.0,12,101,2.0,80.0
3247,72.0,1,129,4.0,76.0
3248,72.0,0,134,5.0,72.0
3249,62.0,6,79,1.0,76.0
3250,71.0,84,91,0.0,68.0
3251,71.0,7,79,4.0,76.0
3252,71.0,6,77,5.0,78.0
3253,72.0,3,79,0.0,70.0
3254,72.0,5,70,5.0,80.0
3255,64.0,1,83,1.0,70.0
3256,72.0,7,72,4.0,80.0
3257,57.0,114,105,6.0,68.0
3258,57.0,1,124,3.0,85.0
3259,74.0,3,71,5.0,76.0
3260,74.0,0,75,0.0,78.0
3261,74.0,0,75,4.0,85.0
3262,65.0,100,81,1.0,70.0
3263,67.0,0,68,1.0,72.0
3264,76.0,2,61,5.0,80.0
3265,76.0,0,70,4.0,82.0
3266,76.0,1,68,0.0,80.0
3267,55.0,5,98,6.0,74.0
3268,55.0,112,119,3.0,60.0
3269,60.0,2,368,2.0,68.0
3270,77.0,0,62,5.0,87.0
3271,69.0,105,68,1.0,74.0
3272,77.0,6,66,4.0,85.0
3273,77.0,2,69,0.0,85.0
3274,53.0,3,97,6.0,72.0
3275,71.0,113,119,1.0,78.0
3276,53.0,1,119,3.0,87.0
3277,62.0,5,129,2.0,82.0
3278,52.0,14,105,6.0,85.0
3279,64.0,2,112,2.0,85.0
3280,52.0,222,131,3.0,91.0
3281,79.0,5,373,0.0,85.0
3282,79.0,1,381,4.0,87.0
3283,79.0,3,406,5.0,87.0
3284,53.0,227,116,3.0,80.0
3285,60.0,8,102,2.0,74.0
3286,81.0,0,110,4.0,78.0
3287,53.0,0,113,6.0,72.0
3288,81.0,6,119,0.0,82.0
3289,81.0,4,111,5.0,80.0
3290,72.0,0,383,1.0,80.0
3291,72.0,6,100,1.0,85.0
3292,50.0,0,107,6.0,66.0
3293,50.0,223,116,3.0,85.0
3294,77.0,0,122,4.0,82.0
3295,65.0,2,128,2.0,80.0
3296,77.0,1,138,5.0,80.0
3297,77.0,5,152,0.0,80.0
3298,76.0,1,43,0.0,93.0
3299,76.0,0,52,4.0,82.0
3300,76.0,5,54,5.0,87.0
3301,74.0,32,40,0.0,85.0
3302,74.0,7,41,4.0,66.0
3303,74.0,11,42,5.0,60.0
3304,55.0,3,108,6.0,80.0
3305,55.0,5,111,3.0,89.0
3306,76.0,6,38,5.0,64.0
3307,76.0,17,54,0.0,80.0
3308,67.0,4,132,2.0,72.0
3309,76.0,9,48,4.0,87.0
3310,71.0,226,143,1.0,80.0
3311,76.0,30,34,5.0,72.0
3312,74.0,10,104,4.0,68.0
3313,74.0,23,116,0.0,70.0
3314,74.0,3,142,5.0,76.0
3315,43.0,3,92,6.0,80.0
3316,43.0,1,107,3.0,87.0
3317,72.0,74,116,1.0,78.0
3318,69.0,3,123,2.0,80.0
3319,72.0,14,117,5.0,82.0
3320,72.0,14,135,0.0,89.0
3321,72.0,1,137,4.0,76.0
3322,71.0,90,123,5.0,53.0
3323,71.0,1,131,0.0,66.0
3324,71.0,4,142,4.0,68.0
3325,53.0,107,110,3.0,85.0
3326,71.0,2,108,2.0,85.0
3327,53.0,3,103,6.0,78.0
3328,74.0,7,115,1.0,82.0
3329,69.0,1,115,0.0,63.0
3330,69.0,3,118,4.0,61.0
3331,69.0,2,136,5.0,80.0
3332,67.0,3,74,4.0,70.0
3333,67.0,101,83,0.0,74.0
3334,67.0,1,89,5.0,68.0
3335,72.0,1,115,4.0,82.0
3336,52.0,2,126,6.0,80.0
3337,52.0,4,126,3.0,93.0
3338,72.0,4,132,0.0,80.0
3339,72.0,2,143,2.0,74.0
3340,72.0,10,143,5.0,80.0
3341,60.0,222,104,6.0,82.0
3342,60.0,5,99,2.0,72.0
3343,60.0,2,99,3.0,82.0
3344,76.0,3,124,0.0,85.0
3345,76.0,0,136,4.0,91.0
3346,76.0,5,126,5.0,93.0
3347,67.0,122,388,1.0,70.0
3348,74.0,96,135,0.0,80.0
3349,74.0,1,142,4.0,80.0
3350,74.0,6,143,5.0,78.0
3351,62.0,5,99,2.0,85.0
3352,59.0,4,123,6.0,72.0
3353,72.0,110,131,0.0,61.0
3354,72.0,4,123,4.0,60.0
3355,72.0,7,119,5.0,66.0
3356,67.0,0,127,1.0,61.0
3357,59.0,3,125,3.0,82.0
3358,71.0,93,85,0.0,62.0
3359,71.0,1,84,4.0,61.0
3360,71.0,9,85,5.0,72.0
3361,57.0,4,114,6.0,74.0
3362,57.0,1,115,3.0,85.0
3363,74.0,127,143,0.0,87.0
3364,74.0,1,139,4.0,85.0
3365,74.0,3,141,5.0,85.0
3366,72.0,5,141,4.0,68.0
3367,72.0,98,148,0.0,78.0
3368,72.0,8,145,5.0,66.0
3369,55.0,103,109,6.0,68.0
3370,71.0,2,118,0.0,61.0
3371,71.0,6,116,4.0,64.0
3372,55.0,9,125,3.0,68.0
3373,71.0,5,118,5.0,60.0
3374,64.0,3,374,2.0,85.0
3375,69.0,1,409,1.0,78.0
3376,69.0,4,66,5.0,70.0
3377,69.0,1,73,4.0,68.0
3378,69.0,105,75,0.0,78.0
3379,54.0,3,110,6.0,68.0
3380,54.0,111,117,3.0,76.0
3381,62.0,3,114,2.0,66.0
3382,69.0,11,134,1.0,78.0
3383,55.0,222,103,3.0,87.0
3384,55.0,8,106,6.0,80.0
3385,67.0,3,105,2.0,85.0
3386,71.0,3,125,1.0,82.0
3387,74.0,1,417,4.0,80.0
3388,74.0,5,418,0.0,80.0
3389,74.0,0,434,5.0,82.0
3390,72.0,1,85,4.0,80.0
3391,72.0,11,73,5.0,85.0
3392,72.0,1,90,0.0,78.0
3393,47.0,222,110,3.0,82.0
3394,47.0,5,99,6.0,82.0
3395,62.0,1,113,2.0,82.0
3396,67.0,9,117,1.0,74.0
3397,71.0,2,71,0.0,72.0
3398,71.0,98,74,4.0,74.0
3399,71.0,7,71,5.0,80.0
3400,50.0,3,82,3.0,89.0
3401,69.0,2,87,0.0,68.0
3402,69.0,3,82,5.0,76.0
3403,50.0,1,86,6.0,80.0
3404,69.0,111,95,4.0,70.0
3405,66.0,0,107,1.0,74.0
3406,60.0,0,107,2.0,72.0
3407,71.0,7,81,0.0,85.0
3408,71.0,6,75,5.0,85.0
3409,71.0,107,89,4.0,85.0
3410,59.0,0,286,2.0,82.0
3411,67.0,0,289,4.0,85.0
3412,43.0,1,301,3.0,87.0
3413,62.0,117,316,1.0,72.0
3414,43.0,6,314,6.0,82.0
3415,67.0,6,316,0.0,80.0
3416,67.0,0,331,5.0,82.0
3417,71.0,462,92,1.0,82.0
3418,74.0,4,91,5.0,85.0
3419,67.0,0,107,2.0,72.0
3420,43.0,0,104,3.0,76.0
3421,74.0,2,113,0.0,78.0
3422,74.0,10,118,4.0,76.0
3423,43.0,10,105,6.0,70.0
3424,55.0,1,90,6.0,72.0
3425,55.0,3,113,3.0,68.0
3426,71.0,0,165,5.0,74.0
3427,71.0,215,176,0.0,64.0
3428,71.0,2,185,4.0,70.0
3429,62.0,4,327,2.0,68.0
3430,57.0,2,94,6.0,70.0
3431,67.0,0,349,1.0,70.0
3432,57.0,2,121,3.0,70.0
3433,72.0,1,130,4.0,78.0
3434,72.0,227,141,5.0,76.0
3435,72.0,5,138,0.0,82.0
3436,71.0,2,122,4.0,70.0
3437,71.0,101,133,0.0,76.0
3438,71.0,2,135,5.0,82.0
3439,67.0,112,109,1.0,70.0
3440,69.0,6,110,4.0,59.0
3441,59.0,2,106,6.0,72.0
3442,69.0,2,113,5.0,64.0
3443,69.0,0,123,0.0,64.0
3444,59.0,3,111,3.0,64.0
3445,62.0,0,115,2.0,74.0
3446,67.0,99,55,4.0,68.0
3447,67.0,1,64,0.0,68.0
3448,67.0,8,59,5.0,74.0
3449,60.0,22,111,3.0,68.0
3450,60.0,0,110,6.0,80.0
3451,67.0,106,141,1.0,72.0
3452,60.0,2,130,2.0,66.0
3453,76.0,5,125,0.0,82.0
3454,76.0,0,127,5.0,85.0
3455,76.0,6,127,4.0,78.0
3456,77.0,99,115,0.0,76.0
3457,77.0,4,117,4.0,70.0
3458,77.0,4,127,5.0,68.0
3459,48.0,5,83,6.0,76.0
3460,76.0,9,108,1.0,76.0
3461,79.0,97,124,0.0,70.0
3462,48.0,2,102,3.0,63.0
3463,79.0,4,121,4.0,66.0
3464,79.0,3,126,5.0,61.0
3465,72.0,1,124,2.0,72.0
3466,81.0,95,76,0.0,68.0
3467,81.0,14,79,4.0,70.0
3468,81.0,1,98,5.0,68.0
3469,50.0,7,104,6.0,76.0
3470,65.0,9,114,2.0,74.0
3471,74.0,110,124,1.0,74.0
3472,50.0,4,116,3.0,78.0
3473,52.0,227,108,6.0,68.0
3474,64.0,0,107,2.0,78.0
3475,52.0,1,108,3.0,72.0
3476,73.0,3,117,1.0,70.0
3477,82.0,4,405,5.0,64.0
3478,82.0,0,422,4.0,72.0
3479,82.0,1,442,0.0,85.0
3480,49.0,4,98,6.0,63.0
3481,76.0,2,92,1.0,80.0
3482,49.0,235,104,3.0,66.0
3483,57.0,5,106,2.0,68.0
3484,81.0,2,108,5.0,68.0
3485,81.0,6,107,4.0,70.0
3486,81.0,9,117,0.0,76.0
3487,73.0,1,90,1.0,63.0
3488,69.0,0,111,2.0,60.0
3489,79.0,6,109,5.0,68.0
3490,79.0,219,116,0.0,78.0
3491,45.0,1,113,6.0,64.0
3492,79.0,8,105,4.0,66.0
3493,45.0,0,105,3.0,64.0
3494,50.0,3,107,6.0,78.0
3495,50.0,5,121,3.0,76.0
3496,77.0,4,150,5.0,63.0
3497,77.0,219,165,0.0,78.0
3498,77.0,1,153,4.0,68.0
3499,48.0,0,87,6.0,60.0
3500,48.0,1,99,3.0,68.0
3501,69.0,1,335,2.0,80.0
3502,74.0,0,338,1.0,74.0
3503,79.0,233,136,5.0,74.0
3504,79.0,0,139,4.0,80.0
3505,79.0,1,143,0.0,74.0
3506,77.0,105,146,5.0,68.0
3507,77.0,4,137,0.0,63.0
3508,77.0,5,144,4.0,70.0
3509,46.0,2,88,6.0,63.0
3510,67.0,117,105,1.0,66.0
3511,76.0,0,100,0.0,70.0
3512,70.0,3,101,2.0,68.0
3513,46.0,1,101,3.0,63.0
3514,76.0,5,113,5.0,63.0
3515,76.0,0,116,4.0,64.0
3516,74.0,107,76,0.0,68.0
3517,74.0,5,81,5.0,70.0
3518,74.0,1,82,4.0,68.0
3519,73.0,115,69,0.0,63.0
3520,73.0,2,85,5.0,64.0
3521,73.0,5,86,4.0,61.0
3522,45.0,4,107,3.0,66.0
3523,45.0,3,104,6.0,64.0
3524,64.0,0,164,2.0,74.0
3525,74.0,92,78,0.0,64.0
3526,74.0,5,79,4.0,70.0
3527,74.0,10,85,5.0,66.0
3528,69.0,2,251,1.0,74.0
3529,57.0,3,82,2.0,66.0
3530,49.0,2,98,6.0,58.0
3531,49.0,112,102,3.0,62.0
3532,76.0,9,118,5.0,66.0
3533,76.0,2,135,0.0,85.0
3534,76.0,0,131,4.0,64.0
3535,59.0,116,67,2.0,80.0
3536,69.0,111,74,1.0,76.0
3537,61.0,4,77,2.0,78.0
3538,52.0,4,88,6.0,68.0
3539,52.0,2,101,3.0,70.0
3540,62.0,3,75,2.0,82.0
3541,71.0,101,86,1.0,64.0
3542,73.0,120,78,1.0,68.0
3543,64.0,3,119,2.0,80.0
3544,81.0,1,404,0.0,82.0
3545,81.0,0,402,4.0,76.0
3546,81.0,0,410,5.0,76.0
3547,74.0,99,70,1.0,72.0
3548,76.0,125,116,1.0,78.0
3549,79.0,5,132,0.0,82.0
3550,79.0,6,133,4.0,82.0
3551,79.0,0,137,5.0,72.0
3552,69.0,0,180,2.0,85.0
3553,77.0,4,126,5.0,70.0
3554,55.0,5,478,6.0,68.0
3555,55.0,16,486,3.0,72.0
3556,77.0,5,138,4.0,68.0
3557,77.0,104,147,0.0,64.0
3558,67.0,0,77,2.0,82.0
3559,76.0,3,121,0.0,59.0
3560,76.0,3,121,4.0,66.0
3561,76.0,119,129,5.0,59.0
3562,65.0,4,77,2.0,72.0
3563,74.0,4,85,5.0,66.0
3564,74.0,109,98,0.0,59.0
3565,74.0,3,92,4.0,61.0
3566,64.0,3,79,2.0,68.0
3567,55.0,0,109,3.0,70.0
3568,55.0,13,100,6.0,64.0
3569,73.0,116,135,0.0,78.0
3570,73.0,0,137,5.0,64.0
3571,73.0,1,136,4.0,76.0
3572,81.0,1,396,1.0,85.0
3573,62.0,1,63,2.0,66.0
3574,74.0,1,135,4.0,70.0
3575,74.0,11,141,5.0,64.0
3576,74.0,87,152,0.0,74.0
3577,61.0,119,89,2.0,70.0
3578,52.0,4,90,6.0,63.0
3579,52.0,0,101,3.0,74.0
3580,76.0,1,130,4.0,70.0
3581,76.0,2,132,0.0,66.0
3582,76.0,2,131,5.0,68.0
3583,79.0,3,139,1.0,82.0
3584,62.0,100,76,2.0,70.0
3585,77.0,1,70,5.0,74.0
3586,77.0,4,85,0.0,78.0
3587,77.0,2,89,4.0,70.0
3588,77.0,4,137,1.0,72.0
3589,49.0,119,87,6.0,62.0
3590,49.0,2,94,3.0,66.0
3591,64.0,1,115,2.0,80.0
3592,76.0,0,121,1.0,64.0
3593,74.0,102,93,1.0,68.0
3594,73.0,131,108,1.0,76.0
3595,64.0,2,107,2.0,82.0
3596,79.0,0,421,0.0,72.0
3597,79.0,0,422,4.0,72.0
3598,79.0,11,429,5.0,74.0
3599,77.0,4,137,0.0,80.0
3600,77.0,6,135,4.0,82.0
3601,77.0,0,142,5.0,76.0
3602,69.0,227,165,1.0,68.0
3603,61.0,1,193,2.0,76.0
3604,76.0,107,122,0.0,66.0
3605,76.0,1,128,4.0,63.0
3606,45.0,3,490,3.0,66.0
3607,76.0,7,132,5.0,60.0
3608,45.0,7,491,6.0,64.0
3609,74.0,116,123,0.0,63.0
3610,74.0,4,120,5.0,63.0
3611,74.0,6,137,4.0,63.0
3612,73.0,96,79,0.0,55.0
3613,73.0,13,89,4.0,57.0
3614,73.0,4,85,5.0,60.0
3615,74.0,104,69,0.0,78.0
3616,74.0,1,72,4.0,82.0
3617,74.0,5,64,5.0,76.0
3618,46.0,2,97,6.0,70.0
3619,46.0,2,114,3.0,59.0
3620,69.0,97,76,0.0,72.0
3621,69.0,10,69,4.0,70.0
3622,69.0,5,68,5.0,68.0
3623,58.0,3,118,3.0,80.0
3624,58.0,0,112,6.0,62.0
3625,62.0,11,371,2.0,63.0
3626,77.0,110,150,0.0,85.0
3627,65.0,3,383,1.0,60.0
3628,77.0,4,145,5.0,80.0
3629,77.0,2,144,4.0,82.0
3630,76.0,106,120,0.0,78.0
3631,76.0,8,121,4.0,70.0
3632,76.0,0,126,5.0,74.0
3633,57.0,8,95,6.0,64.0
3634,57.0,1,99,3.0,80.0
3635,74.0,105,132,0.0,60.0
3636,74.0,0,123,5.0,60.0
3637,74.0,7,132,4.0,63.0
3638,65.0,1,124,1.0,70.0
3639,62.0,3,131,2.0,66.0
3640,72.0,98,67,0.0,59.0
3641,72.0,4,70,5.0,66.0
3642,72.0,4,75,4.0,66.0
3643,55.0,1,107,6.0,70.0
3644,70.0,116,128,0.0,66.0
3645,55.0,8,103,3.0,80.0
3646,70.0,8,128,5.0,68.0
3647,62.0,4,125,2.0,66.0
3648,70.0,0,130,4.0,56.0
3649,67.0,4,143,1.0,63.0
3650,74.0,84,78,0.0,70.0
3651,74.0,10,75,5.0,72.0
3652,74.0,9,82,4.0,70.0
3653,79.0,2,56,5.0,82.0
3654,79.0,4,58,4.0,80.0
3655,79.0,5,68,0.0,85.0
3656,49.0,112,110,6.0,55.0
3657,64.0,1,112,2.0,72.0
3658,49.0,3,108,3.0,68.0
3659,69.0,0,108,1.0,70.0
3660,76.0,9,59,4.0,66.0
3661,76.0,1,63,5.0,70.0
3662,76.0,104,74,0.0,76.0
3663,50.0,113,108,6.0,78.0
3664,50.0,0,115,3.0,82.0
3665,69.0,7,117,1.0,82.0
3666,62.0,1,136,2.0,66.0
3667,77.0,1,295,5.0,76.0
3668,77.0,5,324,4.0,80.0
3669,77.0,5,351,0.0,82.0
3670,46.0,229,108,6.0,62.0
3671,46.0,0,107,3.0,68.0
3672,65.0,3,116,2.0,64.0
3673,74.0,5,119,1.0,82.0
3674,74.0,10,49,4.0,72.0
3675,74.0,11,59,5.0,72.0
3676,74.0,104,74,0.0,60.0
3677,43.0,1,96,6.0,82.0
3678,70.0,0,105,1.0,68.0
3679,43.0,3,114,3.0,78.0
3680,67.0,3,109,2.0,80.0
3681,77.0,4,107,4.0,80.0
3682,77.0,104,122,0.0,82.0
3683,77.0,4,133,5.0,76.0
3684,76.0,96,73,0.0,76.0
3685,76.0,7,69,5.0,76.0
3686,76.0,18,75,4.0,64.0
3687,45.0,1,95,6.0,70.0
3688,45.0,12,86,3.0,82.0
3689,74.0,94,120,0.0,66.0
3690,74.0,7,116,5.0,70.0
3691,64.0,9,111,2.0,76.0
3692,74.0,4,122,4.0,82.0
3693,69.0,0,139,1.0,68.0
3694,73.0,3,82,5.0,57.0
3695,73.0,81,88,0.0,58.0
3696,73.0,12,94,4.0,58.0
3697,50.0,0,96,3.0,76.0
3698,50.0,1,102,6.0,66.0
3699,38.0,219,85,6.0,74.0
3700,74.0,2,332,5.0,66.0
3701,38.0,6,90,3.0,80.0
3702,74.0,123,342,0.0,68.0
3703,74.0,12,326,4.0,80.0
3704,69.0,2,342,1.0,72.0
3705,65.0,4,361,2.0,63.0
3706,69.0,0,66,5.0,68.0
3707,69.0,0,75,0.0,78.0
3708,69.0,1,77,4.0,76.0
3709,50.0,2,111,6.0,64.0
3710,50.0,235,117,3.0,76.0
3711,66.0,3,121,1.0,60.0
3712,62.0,3,128,2.0,78.0
3713,71.0,1,68,0.0,70.0
3714,71.0,7,61,5.0,70.0
3715,71.0,112,70,4.0,76.0
3716,52.0,2,112,6.0,68.0
3717,52.0,1,109,3.0,78.0
3718,60.0,2,122,2.0,66.0
3719,67.0,114,136,1.0,66.0
3720,72.0,2,156,0.0,78.0
3721,72.0,1,162,5.0,66.0
3722,72.0,1,167,4.0,76.0
3723,54.0,1,91,6.0,62.0
3724,54.0,2,99,3.0,68.0
3725,57.0,227,113,2.0,68.0
3726,69.0,0,112,1.0,64.0
3727,74.0,3,142,0.0,78.0
3728,74.0,6,138,5.0,74.0
3729,74.0,3,149,4.0,80.0
3730,72.0,98,151,0.0,66.0
3731,72.0,7,144,4.0,68.0
3732,72.0,8,152,5.0,70.0
3733,50.0,109,86,6.0,70.0
3734,50.0,0,90,3.0,74.0
3735,66.0,4,96,1.0,63.0
3736,71.0,0,112,0.0,66.0
3737,62.0,6,112,2.0,70.0
3738,71.0,1,123,4.0,60.0
3739,71.0,0,124,5.0,60.0
3740,69.0,103,87,0.0,66.0
3741,69.0,15,80,5.0,63.0
3742,69.0,2,83,4.0,66.0
3743,71.0,0,87,0.0,74.0
3744,55.0,4,100,3.0,85.0
3745,71.0,1,96,4.0,74.0
3746,71.0,0,102,5.0,74.0
3747,55.0,111,128,6.0,68.0
3748,69.0,100,78,0.0,66.0
3749,69.0,0,78,5.0,70.0
3750,69.0,15,82,4.0,68.0
3751,67.0,109,87,0.0,70.0
3752,67.0,3,92,4.0,68.0
3753,62.0,4,329,2.0,78.0
3754,43.0,12,87,3.0,82.0
3755,43.0,0,106,6.0,63.0
3756,67.0,4,106,5.0,68.0
3757,67.0,7,361,1.0,78.0
3758,69.0,1,82,0.0,70.0
3759,69.0,2,98,4.0,66.0
3760,69.0,98,108,5.0,63.0
3761,71.0,1,73,0.0,70.0
3762,71.0,5,84,4.0,72.0
3763,71.0,0,86,5.0,72.0
3764,45.0,3,93,6.0,68.0
3765,45.0,1,104,3.0,70.0
3766,60.0,121,114,2.0,62.0
3767,72.0,98,87,0.0,59.0
3768,72.0,5,93,4.0,62.0
3769,72.0,2,101,5.0,63.0
3770,74.0,116,92,0.0,85.0
3771,74.0,0,105,5.0,70.0
3772,47.0,2,112,3.0,78.0
3773,47.0,6,114,6.0,68.0
3774,74.0,2,117,4.0,80.0
3775,55.0,4,127,2.0,68.0
3776,65.0,1,373,1.0,80.0
3777,76.0,102,84,0.0,85.0
3778,76.0,4,90,5.0,66.0
3779,76.0,3,96,4.0,78.0
3780,43.0,4,98,3.0,61.0
3781,43.0,0,102,6.0,66.0
3782,77.0,116,125,0.0,82.0
3783,71.0,5,116,1.0,70.0
3784,67.0,3,117,2.0,66.0
3785,77.0,2,131,5.0,80.0
3786,77.0,2,128,4.0,82.0
3787,48.0,0,98,6.0,70.0
3788,48.0,232,102,3.0,70.0
3789,72.0,0,106,1.0,72.0
3790,76.0,1,115,0.0,82.0
3791,67.0,7,111,2.0,72.0
3792,76.0,2,124,4.0,72.0
3793,76.0,4,143,5.0,68.0
3794,71.0,2,91,1.0,82.0
3795,74.0,2,107,4.0,80.0
3796,74.0,225,115,0.0,80.0
3797,74.0,2,111,5.0,68.0
3798,67.0,4,124,2.0,78.0
3799,72.0,90,62,0.0,78.0
3800,69.0,1,72,1.0,80.0
3801,72.0,5,88,4.0,64.0
3802,72.0,3,101,5.0,64.0
3803,71.0,103,79,0.0,78.0
3804,71.0,3,93,4.0,68.0
3805,71.0,8,101,5.0,62.0
3806,43.0,6,344,3.0,72.0
3807,67.0,6,115,1.0,66.0
3808,62.0,4,107,2.0,60.0
3809,43.0,13,388,6.0,76.0
3810,72.0,94,80,0.0,76.0
3811,69.0,10,70,1.0,80.0
3812,72.0,6,95,4.0,70.0
3813,72.0,0,106,5.0,66.0
3814,74.0,4,70,0.0,78.0
3815,71.0,109,82,1.0,82.0
3816,74.0,3,88,4.0,78.0
3817,74.0,1,92,5.0,68.0
3818,67.0,4,127,2.0,70.0
3819,55.0,4,131,3.0,70.0
3820,55.0,10,144,6.0,70.0
3821,67.0,88,71,1.0,76.0
3822,76.0,2,85,0.0,53.0
3823,76.0,4,83,4.0,68.0
3824,76.0,4,90,5.0,68.0
3825,77.0,2,85,0.0,82.0
3826,57.0,3,78,6.0,64.0
3827,77.0,0,89,5.0,70.0
3828,57.0,6,83,3.0,78.0
3829,77.0,1,86,4.0,78.0
3830,60.0,2,126,2.0,68.0
3831,55.0,103,83,3.0,70.0
3832,79.0,5,77,4.0,80.0
3833,55.0,0,85,6.0,66.0
3834,79.0,0,83,0.0,80.0
3835,79.0,4,91,5.0,72.0
3836,53.0,109,95,3.0,64.0
3837,53.0,1,98,6.0,61.0
3838,81.0,1,115,4.0,76.0
3839,65.0,9,116,2.0,68.0
3840,81.0,0,122,0.0,80.0
3841,81.0,6,116,5.0,82.0
3842,72.0,122,405,1.0,78.0
3843,52.0,92,90,3.0,64.0
3844,52.0,8,106,6.0,59.0
3845,53.0,119,82,3.0,78.0
3846,53.0,1,98,6.0,72.0
3847,71.0,0,107,1.0,66.0
3848,62.0,16,114,2.0,68.0
3849,50.0,96,80,3.0,68.0
3850,50.0,3,109,6.0,64.0
3851,79.0,1,352,4.0,82.0
3852,72.0,2,113,1.0,76.0
3853,79.0,1,367,5.0,82.0
3854,52.0,4,125,3.0,82.0
3855,79.0,5,363,0.0,85.0
3856,67.0,1,126,2.0,80.0
3857,52.0,133,140,6.0,70.0
3858,70.0,232,82,0.0,70.0
3859,70.0,8,92,5.0,63.0
3860,70.0,1,99,4.0,72.0
3861,50.0,0,106,3.0,66.0
3862,65.0,4,108,1.0,70.0
3863,65.0,0,115,2.0,63.0
3864,50.0,6,113,6.0,70.0
3865,69.0,92,79,0.0,64.0
3866,69.0,5,78,4.0,68.0
3867,69.0,4,82,5.0,60.0
3868,70.0,113,84,0.0,64.0
3869,70.0,0,94,4.0,68.0
3870,70.0,1,103,5.0,62.0
3871,48.0,8,105,3.0,70.0
3872,67.0,3,118,2.0,68.0
3873,64.0,3,122,1.0,63.0
3874,48.0,7,114,6.0,62.0
3875,67.0,92,83,0.0,68.0
3876,67.0,1,82,4.0,66.0
3877,67.0,11,88,5.0,68.0
3878,69.0,118,100,0.0,85.0
3879,69.0,5,97,4.0,85.0
3880,69.0,3,107,5.0,74.0
3881,53.0,2,108,6.0,70.0
3882,60.0,0,115,2.0,64.0
3883,53.0,1,119,3.0,76.0
3884,65.0,0,120,1.0,66.0
3885,50.0,227,103,6.0,66.0
3886,74.0,5,96,4.0,85.0
3887,50.0,0,101,3.0,68.0
3888,74.0,0,103,0.0,85.0
3889,74.0,4,100,5.0,80.0
3890,69.0,0,104,1.0,70.0
3891,65.0,6,111,2.0,76.0
3892,55.0,0,90,6.0,80.0
3893,71.0,3,92,0.0,82.0
3894,71.0,4,99,4.0,82.0
3895,55.0,0,103,3.0,82.0
3896,71.0,0,107,5.0,70.0
3897,67.0,4,109,1.0,74.0
3898,62.0,229,113,2.0,74.0
3899,48.0,3,311,3.0,72.0
3900,72.0,239,329,4.0,80.0
3901,64.0,0,330,2.0,68.0
3902,48.0,2,337,6.0,76.0
3903,72.0,2,340,0.0,78.0
3904,72.0,3,355,5.0,70.0
3905,67.0,4,357,1.0,70.0
3906,74.0,4,89,4.0,85.0
3907,74.0,462,98,0.0,87.0
3908,67.0,2,107,2.0,78.0
3909,71.0,1,108,1.0,80.0
3910,43.0,1,111,6.0,80.0
3911,74.0,3,113,5.0,68.0
3912,43.0,0,121,3.0,80.0
3913,55.0,4,126,3.0,72.0
3914,55.0,4,133,6.0,68.0
3915,71.0,2,168,0.0,82.0
3916,71.0,7,169,5.0,61.0
3917,71.0,0,184,4.0,82.0
3918,62.0,218,331,2.0,66.0
3919,57.0,1,101,3.0,80.0
3920,67.0,4,341,1.0,58.0
3921,57.0,226,115,6.0,76.0
3922,72.0,1,144,4.0,78.0
3923,72.0,4,140,5.0,76.0
3924,72.0,3,137,0.0,85.0
3925,71.0,2,119,4.0,72.0
3926,71.0,106,125,0.0,78.0
3927,71.0,4,123,5.0,74.0
3928,69.0,3,108,4.0,62.0
3929,62.0,3,98,2.0,68.0
3930,59.0,1,110,3.0,82.0
3931,69.0,111,127,0.0,64.0
3932,67.0,8,114,1.0,68.0
3933,69.0,0,130,5.0,63.0
3934,59.0,1,135,6.0,70.0
3935,67.0,101,64,0.0,82.0
3936,67.0,6,68,5.0,72.0
3937,67.0,2,75,4.0,72.0
3938,60.0,122,127,6.0,70.0
3939,60.0,0,127,3.0,80.0
3940,60.0,5,128,2.0,59.0
3941,76.0,4,119,5.0,78.0
3942,67.0,0,136,1.0,76.0
3943,76.0,4,128,4.0,51.0
3944,76.0,1,131,0.0,54.0
3945,77.0,2,133,4.0,64.0
3946,77.0,95,139,0.0,82.0
3947,77.0,9,132,5.0,70.0
3948,48.0,0,90,3.0,64.0
3949,79.0,108,114,4.0,70.0
3950,79.0,3,112,0.0,70.0
3951,76.0,7,106,1.0,80.0
3952,48.0,5,119,6.0,68.0
3953,72.0,2,120,2.0,74.0
3954,79.0,3,119,5.0,70.0
3955,81.0,90,97,0.0,82.0
3956,81.0,4,109,4.0,72.0
3957,81.0,21,105,5.0,74.0
3958,65.0,0,102,2.0,70.0
3959,50.0,2,105,3.0,76.0
3960,74.0,4,129,1.0,78.0
3961,50.0,105,138,6.0,82.0
3962,52.0,9,112,3.0,80.0
3963,52.0,218,125,6.0,70.0
3964,73.0,0,120,1.0,66.0
3965,64.0,7,115,2.0,74.0
3966,82.0,8,420,4.0,76.0
3967,82.0,4,425,5.0,82.0
3968,82.0,2,453,0.0,85.0
3969,49.0,232,103,3.0,70.0
3970,76.0,7,100,1.0,82.0
3971,49.0,0,101,6.0,70.0
3972,81.0,6,100,4.0,80.0
3973,57.0,6,114,2.0,70.0
3974,81.0,1,115,5.0,66.0
3975,81.0,4,117,0.0,68.0
3976,73.0,3,95,1.0,63.0
3977,69.0,8,107,2.0,63.0
3978,79.0,2,101,4.0,70.0
3979,79.0,3,111,0.0,78.0
3980,45.0,216,125,3.0,76.0
3981,45.0,0,110,6.0,72.0
3982,79.0,4,119,5.0,63.0
3983,50.0,213,130,3.0,66.0
3984,77.0,0,128,5.0,64.0
3985,50.0,9,136,6.0,78.0
3986,77.0,8,154,0.0,72.0
3987,77.0,1,168,4.0,74.0
3988,48.0,213,123,3.0,64.0
3989,69.0,6,337,2.0,74.0
3990,79.0,0,138,0.0,80.0
3991,74.0,0,376,1.0,78.0
3992,48.0,18,141,6.0,68.0
3993,79.0,3,136,4.0,80.0
3994,79.0,7,140,5.0,74.0
3995,77.0,10,129,4.0,70.0
3996,77.0,100,140,0.0,68.0
3997,77.0,0,142,5.0,68.0
3998,70.0,6,87,2.0,70.0
3999,76.0,1,110,0.0,70.0
4000,67.0,0,106,1.0,70.0
4001,76.0,2,110,5.0,63.0
4002,46.0,117,124,3.0,59.0
4003,76.0,4,113,4.0,66.0
4004,46.0,0,144,6.0,57.0
4005,74.0,103,87,0.0,70.0
4006,74.0,4,88,4.0,66.0
4007,74.0,6,103,5.0,72.0
4008,73.0,4,76,0.0,70.0
4009,73.0,0,95,5.0,68.0
4010,45.0,110,119,3.0,80.0
4011,73.0,3,127,4.0,76.0
4012,45.0,2,145,6.0,68.0
4013,74.0,97,80,0.0,68.0
4014,64.0,4,186,2.0,70.0
4015,74.0,4,92,5.0,78.0
4016,74.0,14,126,4.0,72.0
4017,57.0,3,81,2.0,66.0
4018,69.0,3,324,1.0,72.0
4019,49.0,0,106,3.0,63.0
4020,76.0,108,123,0.0,82.0
4021,76.0,3,117,4.0,78.0
4022,76.0,3,120,5.0,78.0
4023,49.0,8,130,6.0,62.0
4024,59.0,110,73,2.0,78.0
4025,61.0,3,63,2.0,72.0
4026,69.0,115,80,1.0,78.0
4027,52.0,0,103,3.0,78.0
4028,52.0,10,110,6.0,78.0
4029,62.0,17,73,2.0,80.0
4030,71.0,94,90,1.0,82.0
4031,73.0,112,78,1.0,62.0
4032,64.0,4,140,2.0,72.0
4033,81.0,0,399,0.0,85.0
4034,81.0,1,388,4.0,85.0
4035,81.0,0,408,5.0,76.0
4036,74.0,96,82,1.0,70.0
4037,76.0,125,118,1.0,85.0
4038,79.0,7,136,0.0,80.0
4039,79.0,1,139,4.0,82.0
4040,79.0,13,136,5.0,76.0
4041,69.0,4,197,2.0,78.0
4042,55.0,6,480,6.0,70.0
4043,77.0,91,135,0.0,66.0
4044,55.0,8,485,3.0,78.0
4045,77.0,8,132,5.0,70.0
4046,77.0,8,142,4.0,64.0
4047,67.0,3,76,2.0,78.0
4048,76.0,115,111,0.0,63.0
4049,76.0,0,128,5.0,63.0
4050,76.0,3,126,4.0,70.0
4051,65.0,4,77,2.0,64.0
4052,74.0,107,88,0.0,70.0
4053,74.0,4,86,5.0,70.0
4054,74.0,7,99,4.0,70.0
4055,64.0,106,87,2.0,68.0
4056,55.0,1,127,6.0,68.0
4057,55.0,12,110,3.0,70.0
4058,73.0,6,135,0.0,82.0
4059,73.0,3,139,4.0,68.0
4060,73.0,3,142,5.0,66.0
4061,62.0,1,63,2.0,66.0
4062,81.0,3,430,1.0,82.0
4063,74.0,95,137,0.0,68.0
4064,74.0,0,131,4.0,72.0
4065,74.0,8,148,5.0,66.0
4066,61.0,109,97,2.0,70.0
4067,52.0,3,96,3.0,72.0
4068,52.0,7,107,6.0,57.0
4069,76.0,0,127,0.0,68.0
4070,76.0,5,131,4.0,72.0
4071,76.0,4,128,5.0,70.0
4072,79.0,0,135,1.0,85.0
4073,77.0,95,78,0.0,76.0
4074,77.0,9,74,4.0,74.0
4075,62.0,2,72,2.0,70.0
4076,77.0,2,81,5.0,68.0
4077,77.0,1,132,1.0,66.0
4078,49.0,1,102,3.0,70.0
4079,49.0,9,109,6.0,64.0
4080,64.0,0,112,2.0,70.0
4081,76.0,1,121,1.0,78.0
4082,74.0,111,84,1.0,70.0
4083,64.0,126,115,2.0,76.0
4084,73.0,2,125,1.0,80.0
4085,79.0,110,415,0.0,80.0
4086,79.0,6,406,5.0,78.0
4087,79.0,3,436,4.0,76.0
4088,77.0,230,132,0.0,78.0
4089,77.0,14,120,4.0,95.0
4090,77.0,4,138,5.0,78.0
4091,69.0,2,156,1.0,78.0
4092,61.0,2,192,2.0,82.0
4093,76.0,87,131,0.0,63.0
4094,45.0,4,470,6.0,66.0
4095,76.0,4,123,4.0,60.0
4096,45.0,5,483,3.0,66.0
4097,76.0,9,137,5.0,68.0
4098,74.0,115,124,0.0,60.0
4099,74.0,1,122,4.0,78.0
4100,74.0,5,130,5.0,58.0
4101,73.0,101,95,0.0,56.0
4102,73.0,3,94,5.0,49.0
4103,73.0,5,99,4.0,66.0
4104,74.0,120,71,0.0,74.0
4105,74.0,0,71,4.0,80.0
4106,74.0,6,85,5.0,80.0
4107,46.0,3,104,3.0,64.0
4108,46.0,3,111,6.0,59.0
4109,69.0,12,66,4.0,70.0
4110,69.0,95,82,0.0,60.0
4111,69.0,3,72,5.0,64.0
4112,58.0,5,93,3.0,78.0
4113,58.0,6,96,6.0,74.0
4114,62.0,2,355,2.0,62.0
4115,65.0,2,365,1.0,57.0
4116,77.0,112,144,0.0,80.0
4117,77.0,0,140,4.0,87.0
4118,77.0,0,144,5.0,80.0
4119,76.0,102,131,0.0,78.0
4120,76.0,1,130,5.0,78.0
4121,76.0,5,133,4.0,78.0
4122,57.0,4,91,6.0,70.0
4123,57.0,0,104,3.0,78.0
4124,74.0,113,133,0.0,58.0
4125,65.0,1,122,1.0,68.0
4126,62.0,4,129,2.0,64.0
4127,74.0,0,135,4.0,60.0
4128,74.0,4,136,5.0,60.0
4129,72.0,99,78,0.0,57.0
4130,72.0,4,74,5.0,66.0
4131,72.0,7,86,4.0,62.0
4132,55.0,5,109,6.0,68.0
4133,70.0,115,128,0.0,70.0
4134,55.0,3,113,3.0,72.0
4135,70.0,5,135,4.0,74.0
4136,62.0,1,124,2.0,68.0
4137,70.0,4,133,5.0,54.0
4138,67.0,0,128,1.0,80.0
4139,74.0,101,88,0.0,68.0
4140,74.0,5,96,4.0,70.0
4141,74.0,1,98,5.0,74.0
4142,79.0,2,54,5.0,80.0
4143,79.0,120,64,0.0,85.0
4144,79.0,0,54,4.0,76.0
4145,49.0,4,106,6.0,57.0
4146,69.0,1,104,1.0,82.0
4147,49.0,1,104,3.0,66.0
4148,64.0,4,114,2.0,66.0
4149,76.0,110,56,0.0,80.0
4150,76.0,0,58,4.0,68.0
4151,76.0,8,58,5.0,78.0
4152,50.0,111,113,6.0,68.0
4153,62.0,3,102,2.0,78.0
4154,50.0,0,115,3.0,80.0
4155,69.0,6,131,1.0,72.0
4156,77.0,0,318,0.0,85.0
4157,77.0,7,313,4.0,78.0
4158,77.0,2,318,5.0,78.0
4159,46.0,220,103,3.0,63.0
4160,46.0,13,90,6.0,72.0
4161,65.0,0,116,2.0,70.0
4162,74.0,10,130,1.0,80.0
4163,74.0,1,55,5.0,72.0
4164,74.0,3,67,4.0,66.0
4165,74.0,107,78,0.0,64.0
4166,43.0,1,108,3.0,80.0
4167,70.0,7,108,1.0,70.0
4168,67.0,2,117,2.0,74.0
4169,43.0,111,130,6.0,70.0
4170,77.0,1,125,4.0,80.0
4171,77.0,1,124,0.0,78.0
4172,77.0,5,137,5.0,78.0
4173,76.0,4,78,0.0,80.0
4174,76.0,0,79,4.0,78.0
4175,76.0,100,87,5.0,76.0
4176,45.0,0,96,6.0,64.0
4177,74.0,114,110,5.0,68.0
4178,45.0,1,104,3.0,78.0
4179,74.0,6,111,0.0,70.0
4180,69.0,0,103,1.0,78.0
4181,74.0,2,114,4.0,66.0
4182,64.0,8,112,2.0,72.0
4183,73.0,92,91,5.0,56.0
4184,73.0,1,94,0.0,58.0
4185,73.0,4,97,4.0,60.0
4186,50.0,0,107,6.0,74.0
4187,50.0,4,107,3.0,76.0
4188,74.0,8,324,0.0,68.0
4189,65.0,0,333,2.0,66.0
4190,74.0,3,337,4.0,66.0
4191,38.0,234,107,6.0,66.0
4192,38.0,4,104,3.0,64.0
4193,74.0,132,374,5.0,74.0
4194,69.0,0,381,1.0,74.0
4195,69.0,1,66,4.0,63.0
4196,69.0,3,75,5.0,63.0
4197,69.0,0,91,0.0,70.0
4198,62.0,224,124,2.0,68.0
4199,50.0,1,122,3.0,76.0
4200,50.0,5,130,6.0,68.0
4201,66.0,3,137,1.0,62.0
4202,71.0,102,76,0.0,78.0
4203,71.0,12,66,4.0,70.0
4204,71.0,2,65,5.0,72.0
4205,60.0,113,114,2.0,66.0
4206,52.0,0,113,3.0,72.0
4207,67.0,1,129,1.0,72.0
4208,52.0,3,120,6.0,60.0
4209,72.0,8,158,5.0,80.0
4210,72.0,1,157,4.0,80.0
4211,72.0,1,182,0.0,82.0
4212,54.0,217,116,3.0,61.0
4213,57.0,0,112,2.0,60.0
4214,69.0,8,111,1.0,72.0
4215,54.0,6,122,6.0,63.0
4216,74.0,1,139,5.0,76.0
4217,74.0,1,142,0.0,78.0
4218,74.0,3,145,4.0,76.0
4219,72.0,5,138,5.0,66.0
4220,72.0,1,147,4.0,64.0
4221,72.0,107,155,0.0,68.0
4222,50.0,1,88,3.0,74.0
4223,62.0,2,107,2.0,70.0
4224,50.0,1,110,6.0,64.0
4225,66.0,1,104,1.0,66.0
4226,71.0,117,125,5.0,62.0
4227,71.0,1,117,0.0,60.0
4228,71.0,5,123,4.0,63.0
4229,69.0,4,85,5.0,66.0
4230,69.0,105,90,0.0,63.0
4231,69.0,7,82,4.0,66.0
4232,71.0,0,107,0.0,82.0
4233,71.0,5,97,4.0,72.0
4234,71.0,4,115,5.0,85.0
4235,55.0,0,140,6.0,78.0
4236,55.0,109,145,3.0,82.0
4237,69.0,101,75,5.0,60.0
4238,69.0,9,81,4.0,63.0
4239,69.0,4,91,0.0,62.0
4240,67.0,103,100,5.0,66.0
4241,62.0,2,332,2.0,72.0
4242,67.0,7,93,4.0,66.0
4243,43.0,1,109,3.0,57.0
4244,43.0,0,112,6.0,52.0
4245,67.0,11,112,0.0,68.0
4246,67.0,2,359,1.0,72.0
4247,69.0,102,98,5.0,70.0
4248,69.0,10,97,0.0,76.0
4249,69.0,5,106,4.0,74.0
4250,71.0,2,88,0.0,80.0
4251,71.0,106,99,5.0,64.0
4252,71.0,8,83,4.0,78.0
4253,45.0,4,115,6.0,63.0
4254,60.0,2,124,2.0,63.0
4255,45.0,0,124,3.0,80.0
4256,72.0,4,91,4.0,72.0
4257,72.0,1,103,5.0,66.0
4258,72.0,101,108,0.0,64.0
4259,47.0,115,117,6.0,68.0
4260,74.0,2,111,4.0,82.0
4261,74.0,4,115,5.0,76.0
4262,74.0,2,108,0.0,82.0
4263,47.0,5,113,3.0,78.0
4264,55.0,3,114,2.0,68.0
4265,65.0,3,426,1.0,68.0
4266,76.0,1,99,5.0,70.0
4267,76.0,104,103,4.0,70.0
4268,76.0,12,90,0.0,80.0
4269,43.0,110,108,6.0,68.0
4270,43.0,3,110,3.0,70.0
4271,67.0,5,125,2.0,66.0
4272,77.0,1,126,4.0,82.0
4273,77.0,3,128,5.0,80.0
4274,77.0,3,129,0.0,82.0
4275,71.0,13,127,1.0,78.0
4276,48.0,220,97,6.0,80.0
4277,48.0,5,107,3.0,76.0
4278,76.0,1,114,5.0,70.0
4279,67.0,3,124,2.0,72.0
4280,76.0,0,132,0.0,68.0
4281,76.0,0,124,4.0,80.0
4282,72.0,5,133,1.0,72.0
4283,74.0,229,104,0.0,68.0
4284,74.0,4,107,4.0,76.0
4285,71.0,1,109,1.0,82.0
4286,74.0,0,112,5.0,82.0
4287,67.0,3,135,2.0,78.0
4288,69.0,1,77,1.0,72.0
4289,72.0,104,91,0.0,62.0
4290,72.0,2,80,4.0,68.0
4291,72.0,8,84,5.0,66.0
4292,43.0,4,302,3.0,72.0
4293,71.0,2,93,0.0,66.0
4294,67.0,0,104,1.0,74.0
4295,43.0,1,335,6.0,70.0
4296,71.0,4,107,5.0,72.0
4297,71.0,107,114,4.0,80.0
4298,62.0,9,107,2.0,61.0
4299,72.0,104,88,0.0,70.0
4300,72.0,2,94,4.0,76.0
4301,69.0,1,94,1.0,76.0
4302,72.0,1,109,5.0,78.0
4303,71.0,1,86,1.0,80.0
4304,74.0,0,94,0.0,78.0
4305,74.0,1,96,4.0,80.0
4306,74.0,4,99,5.0,72.0
4307,67.0,116,128,2.0,76.0
4308,55.0,4,127,6.0,72.0
4309,55.0,5,141,3.0,70.0
4310,67.0,103,85,1.0,76.0
4311,76.0,6,80,0.0,76.0
4312,76.0,3,92,4.0,64.0
4313,76.0,1,99,5.0,78.0
4314,77.0,1,95,5.0,78.0
4315,57.0,12,78,3.0,80.0
4316,77.0,1,91,0.0,85.0
4317,77.0,1,104,4.0,82.0
4318,57.0,2,101,6.0,68.0
4319,60.0,4,124,2.0,59.0
4320,55.0,96,78,6.0,66.0
4321,79.0,2,83,5.0,78.0
4322,55.0,4,75,3.0,74.0
4323,79.0,0,90,4.0,80.0
4324,79.0,5,86,0.0,89.0
4325,53.0,95,104,6.0,59.0
4326,53.0,16,92,3.0,68.0
4327,81.0,2,114,4.0,85.0
4328,81.0,2,122,5.0,78.0
4329,65.0,2,119,2.0,66.0
4330,81.0,3,127,0.0,85.0
4331,72.0,116,413,1.0,78.0
4332,52.0,99,91,3.0,64.0
4333,52.0,1,101,6.0,64.0
4334,53.0,116,93,6.0,60.0
4335,53.0,2,91,3.0,76.0
4336,62.0,5,130,2.0,68.0
4337,71.0,3,125,1.0,78.0
4338,50.0,5,95,3.0,68.0
4339,50.0,78,116,6.0,62.0
4340,79.0,18,342,5.0,80.0
4341,79.0,2,349,4.0,80.0
4342,79.0,6,344,0.0,87.0
4343,52.0,140,128,6.0,66.0
4344,52.0,3,129,3.0,80.0
4345,72.0,2,121,1.0,78.0
4346,67.0,6,126,2.0,82.0
4347,70.0,231,78,0.0,72.0
4348,70.0,2,101,5.0,66.0
4349,70.0,2,100,4.0,68.0
4350,65.0,1,113,1.0,72.0
4351,50.0,3,108,3.0,66.0
4352,50.0,3,111,6.0,64.0
4353,65.0,1,118,2.0,66.0
4354,69.0,88,84,4.0,68.0
4355,69.0,3,85,5.0,59.0
4356,69.0,4,83,0.0,72.0
4357,70.0,4,95,0.0,64.0
4358,70.0,0,101,5.0,66.0
4359,70.0,118,106,4.0,64.0
4360,48.0,0,109,3.0,66.0
4361,67.0,5,115,2.0,70.0
4362,64.0,4,112,1.0,76.0
4363,48.0,5,118,6.0,64.0
4364,67.0,92,86,4.0,66.0
4365,67.0,8,84,0.0,70.0
4366,67.0,5,86,5.0,68.0
4367,69.0,6,96,5.0,82.0
4368,69.0,126,109,4.0,85.0
4369,69.0,0,110,0.0,87.0
4370,53.0,3,104,3.0,80.0
4371,60.0,2,113,2.0,63.0
4372,65.0,2,118,1.0,70.0
4373,53.0,1,118,6.0,68.0
4374,50.0,2,101,6.0,64.0
4375,65.0,3,104,2.0,68.0
4376,74.0,1,110,4.0,85.0
4377,69.0,227,114,1.0,78.0
4378,74.0,1,109,5.0,85.0
4379,50.0,5,102,3.0,80.0
4380,74.0,1,111,0.0,89.0
4381,72.0,218,46,0.0,85.0
4382,72.0,1,38,5.0,82.0
4383,72.0,9,45,4.0,76.0
4384,71.0,22,41,0.0,85.0
4385,55.0,0,82,6.0,78.0
4386,71.0,4,41,4.0,63.0
4387,71.0,4,48,5.0,85.0
4388,55.0,1,96,3.0,78.0
4389,62.0,5,99,2.0,78.0
4390,67.0,4,110,1.0,72.0
4391,72.0,4,45,5.0,68.0
4392,72.0,29,49,0.0,82.0
4393,72.0,0,53,4.0,82.0
4394,71.0,4,62,5.0,72.0
4395,71.0,4,69,4.0,66.0
4396,71.0,32,78,0.0,80.0
4397,48.0,4,413,3.0,68.0
4398,48.0,7,457,6.0,62.0
4399,64.0,2,477,2.0,72.0
4400,72.0,3,488,0.0,82.0
4401,67.0,125,491,1.0,70.0
4402,72.0,5,506,4.0,78.0
4403,72.0,2,500,5.0,70.0
