,note,step,duration,channel,velocity
0,72.0,0,274,1.0,82.0
1,36.0,1,278,6.0,89.0
2,36.0,1,290,3.0,102.0
3,71.0,277,43,1.0,70.0
4,55.0,11,34,6.0,80.0
5,55.0,5,31,3.0,80.0
6,72.0,41,38,1.0,78.0
7,57.0,8,37,3.0,72.0
8,57.0,2,39,6.0,80.0
9,59.0,6,32,3.0,89.0
10,59.0,3,33,6.0,89.0
11,74.0,46,45,1.0,82.0
12,76.0,4,508,0.0,85.0
13,76.0,1,518,5.0,78.0
14,76.0,5,512,4.0,100.0
15,76.0,54,86,1.0,63.0
16,67.0,3,585,2.0,87.0
17,74.0,57,57,5.0,70.0
18,74.0,0,56,0.0,70.0
19,74.0,6,60,4.0,60.0
20,76.0,53,54,5.0,76.0
21,76.0,3,54,0.0,82.0
22,76.0,3,53,4.0,80.0
23,74.0,1,35,1.0,82.0
24,67.0,49,46,2.0,82.0
25,77.0,6,44,5.0,66.0
26,77.0,1,49,0.0,78.0
27,77.0,1,56,4.0,70.0
28,79.0,57,47,5.0,78.0
29,79.0,2,48,0.0,80.0
30,79.0,1,46,4.0,87.0
31,76.0,3,73,1.0,85.0
32,60.0,1,79,2.0,68.0
33,77.0,53,53,5.0,72.0
34,77.0,4,49,0.0,82.0
35,77.0,3,56,4.0,80.0
36,79.0,3,43,0.0,74.0
37,79.0,54,47,5.0,68.0
38,79.0,3,46,4.0,82.0
39,72.0,4,28,1.0,80.0
40,64.0,0,36,2.0,78.0
41,81.0,2,43,0.0,82.0
42,81.0,53,52,5.0,76.0
43,81.0,3,51,4.0,87.0
44,60.0,3,607,6.0,78.0
45,60.0,8,625,3.0,100.0
46,60.0,171,36,6.0,82.0
47,60.0,8,39,3.0,80.0
48,74.0,0,261,0.0,70.0
49,74.0,4,264,4.0,82.0
50,74.0,0,269,5.0,60.0
51,59.0,54,83,6.0,82.0
52,59.0,12,82,3.0,89.0
53,74.0,0,52,5.0,74.0
54,74.0,41,57,0.0,72.0
55,65.0,2,348,2.0,64.0
56,74.0,3,62,4.0,68.0
57,69.0,59,361,1.0,68.0
58,76.0,54,54,0.0,66.0
59,76.0,6,56,5.0,72.0
60,76.0,2,55,4.0,85.0
61,57.0,2,33,3.0,80.0
62,57.0,2,32,6.0,70.0
63,69.0,49,43,1.0,80.0
64,69.0,1,41,2.0,87.0
65,77.0,1,46,0.0,78.0
66,77.0,1,42,5.0,66.0
67,77.0,4,49,4.0,82.0
68,79.0,1,45,5.0,78.0
69,79.0,56,58,0.0,82.0
70,79.0,5,52,4.0,87.0
71,59.0,1,78,6.0,85.0
72,67.0,1,78,2.0,68.0
73,74.0,0,81,1.0,85.0
74,59.0,1,89,3.0,85.0
75,77.0,55,44,5.0,70.0
76,77.0,0,47,0.0,70.0
77,77.0,4,55,4.0,74.0
78,76.0,54,52,0.0,72.0
79,76.0,1,53,5.0,72.0
80,76.0,3,54,4.0,61.0
81,57.0,46,33,3.0,80.0
82,57.0,2,34,6.0,72.0
83,72.0,3,30,1.0,78.0
84,69.0,2,39,2.0,80.0
85,77.0,0,46,0.0,82.0
86,77.0,4,46,5.0,68.0
87,77.0,2,48,4.0,80.0
88,79.0,1,47,5.0,76.0
89,79.0,3,49,0.0,80.0
90,79.0,1,55,4.0,82.0
91,59.0,2,81,3.0,89.0
92,74.0,2,73,1.0,85.0
93,59.0,2,77,6.0,85.0
94,67.0,51,87,2.0,87.0
95,76.0,0,45,5.0,64.0
96,76.0,55,46,0.0,70.0
97,76.0,6,50,4.0,60.0
98,77.0,53,45,0.0,80.0
99,77.0,1,44,5.0,70.0
100,77.0,2,48,4.0,70.0
101,55.0,44,40,3.0,76.0
102,65.0,0,34,2.0,66.0
103,71.0,3,31,1.0,78.0
104,55.0,7,42,6.0,70.0
105,79.0,3,47,5.0,78.0
106,79.0,0,48,0.0,82.0
107,79.0,3,52,4.0,82.0
108,72.0,1,153,4.0,82.0
109,72.0,3,156,5.0,70.0
110,72.0,2,159,0.0,78.0
111,64.0,0,195,1.0,68.0
112,69.0,177,36,5.0,66.0
113,69.0,3,29,0.0,74.0
114,69.0,5,34,4.0,78.0
115,71.0,18,28,5.0,72.0
116,71.0,2,28,4.0,68.0
117,71.0,2,29,0.0,68.0
118,57.0,0,253,6.0,80.0
119,57.0,1,254,3.0,85.0
120,57.0,41,46,3.0,85.0
121,57.0,5,45,6.0,82.0
122,72.0,1,127,4.0,85.0
123,64.0,58,376,2.0,68.0
124,72.0,0,130,0.0,82.0
125,72.0,34,132,5.0,76.0
126,59.0,2,42,6.0,82.0
127,59.0,59,46,3.0,82.0
128,60.0,2,32,6.0,82.0
129,74.0,2,26,5.0,72.0
130,60.0,54,36,3.0,85.0
131,74.0,1,28,0.0,80.0
132,74.0,6,33,4.0,80.0
133,64.0,7,31,2.0,85.0
134,76.0,13,27,0.0,70.0
135,76.0,0,31,4.0,82.0
136,76.0,5,29,5.0,66.0
137,62.0,0,42,3.0,98.0
138,62.0,29,46,6.0,87.0
139,60.0,49,38,6.0,72.0
140,60.0,1,41,3.0,98.0
141,69.0,2,360,1.0,78.0
142,59.0,5,36,6.0,70.0
143,59.0,56,41,3.0,87.0
144,60.0,54,35,3.0,95.0
145,60.0,4,32,6.0,80.0
146,69.0,4,42,1.0,80.0
147,62.0,54,44,3.0,91.0
148,62.0,7,40,6.0,80.0
149,71.0,4,87,1.0,87.0
150,59.0,45,43,3.0,78.0
151,59.0,9,38,6.0,68.0
152,62.0,0,363,2.0,76.0
153,77.0,2,374,0.0,72.0
154,77.0,7,374,4.0,85.0
155,77.0,3,379,5.0,72.0
156,60.0,53,35,3.0,82.0
157,60.0,8,33,6.0,68.0
158,62.0,54,35,3.0,89.0
159,77.0,3,32,0.0,93.0
160,62.0,3,26,2.0,89.0
161,77.0,2,36,4.0,91.0
162,77.0,0,37,5.0,70.0
163,72.0,3,34,1.0,72.0
164,62.0,1,40,6.0,85.0
165,77.0,53,49,5.0,80.0
166,77.0,0,52,0.0,91.0
167,77.0,2,52,4.0,91.0
168,71.0,3,99,1.0,70.0
169,79.0,56,41,5.0,74.0
170,79.0,0,46,4.0,80.0
171,79.0,3,45,0.0,78.0
172,55.0,0,120,3.0,89.0
173,55.0,1,129,6.0,80.0
174,77.0,1,48,0.0,66.0
175,77.0,52,52,5.0,80.0
176,77.0,1,51,4.0,80.0
177,62.0,1,168,2.0,82.0
178,72.0,49,37,1.0,78.0
179,57.0,4,33,3.0,82.0
180,57.0,2,33,6.0,66.0
181,76.0,2,44,5.0,68.0
182,76.0,2,44,0.0,78.0
183,76.0,1,46,4.0,68.0
184,77.0,0,48,5.0,74.0
185,77.0,0,53,4.0,80.0
186,77.0,1,56,0.0,80.0
187,74.0,0,91,1.0,82.0
188,59.0,54,93,3.0,89.0
189,59.0,4,89,6.0,85.0
190,76.0,59,44,5.0,78.0
191,76.0,4,40,0.0,70.0
192,76.0,2,52,4.0,76.0
193,67.0,2,145,2.0,85.0
194,74.0,53,53,5.0,80.0
195,74.0,6,57,4.0,78.0
196,74.0,0,58,0.0,74.0
197,55.0,38,40,3.0,70.0
198,55.0,5,36,6.0,70.0
199,71.0,6,35,1.0,82.0
200,76.0,2,49,5.0,70.0
201,76.0,8,46,4.0,80.0
202,76.0,1,55,0.0,70.0
203,77.0,0,55,5.0,70.0
204,77.0,3,53,4.0,76.0
205,77.0,2,65,0.0,68.0
206,74.0,1,69,1.0,78.0
207,76.0,39,31,5.0,55.0
208,76.0,8,36,4.0,55.0
209,76.0,9,32,0.0,55.0
210,72.0,5,31,1.0,58.0
211,77.0,9,29,5.0,63.0
212,77.0,6,29,0.0,70.0
213,77.0,12,35,4.0,52.0
214,76.0,2,22,5.0,58.0
215,74.0,5,26,1.0,58.0
216,76.0,3,18,0.0,58.0
217,76.0,16,23,4.0,58.0
218,72.0,3,19,1.0,62.0
219,60.0,47,155,3.0,95.0
220,77.0,2,24,5.0,60.0
221,60.0,6,161,6.0,87.0
222,77.0,16,21,4.0,60.0
223,77.0,1,21,0.0,60.0
224,76.0,3,19,5.0,55.0
225,74.0,2,22,1.0,62.0
226,76.0,1,17,0.0,66.0
227,76.0,13,20,4.0,62.0
228,72.0,3,17,1.0,60.0
229,77.0,6,20,5.0,66.0
230,77.0,1,14,0.0,70.0
231,74.0,0,18,1.0,66.0
232,77.0,11,20,4.0,74.0
233,76.0,7,20,5.0,57.0
234,72.0,3,13,1.0,62.0
235,76.0,7,18,0.0,68.0
236,76.0,1,20,4.0,66.0
237,77.0,9,20,5.0,78.0
238,77.0,1,23,0.0,76.0
239,74.0,4,24,1.0,76.0
240,77.0,5,24,4.0,80.0
241,67.0,2,366,2.0,82.0
242,72.0,0,141,1.0,70.0
243,48.0,3,141,6.0,82.0
244,76.0,2,152,0.0,74.0
245,76.0,2,148,4.0,70.0
246,48.0,6,150,3.0,85.0
247,76.0,10,163,5.0,60.0
248,74.0,2,28,5.0,72.0
249,74.0,172,30,0.0,72.0
250,74.0,1,30,1.0,85.0
251,74.0,8,24,4.0,85.0
252,67.0,1,31,2.0,82.0
253,74.0,0,289,5.0,62.0
254,74.0,2,299,0.0,68.0
255,74.0,1,311,4.0,80.0
256,67.0,10,52,5.0,60.0
257,67.0,293,62,0.0,82.0
258,69.0,24,35,5.0,72.0
259,69.0,0,41,0.0,78.0
260,71.0,17,36,5.0,66.0
261,71.0,4,35,0.0,80.0
262,72.0,17,25,5.0,68.0
263,72.0,2,26,0.0,78.0
264,67.0,1,50,4.0,68.0
265,69.0,7,28,4.0,68.0
266,74.0,9,29,5.0,66.0
267,74.0,2,30,0.0,85.0
268,71.0,1,36,4.0,68.0
269,76.0,9,36,5.0,63.0
270,72.0,5,28,4.0,68.0
271,76.0,5,36,0.0,78.0
272,78.0,12,31,5.0,61.0
273,74.0,5,26,4.0,82.0
274,78.0,3,31,0.0,76.0
275,79.0,2,22,0.0,72.0
276,79.0,1,25,5.0,68.0
277,76.0,11,31,4.0,57.0
278,81.0,12,33,0.0,66.0
279,78.0,1,33,4.0,68.0
280,81.0,4,34,5.0,78.0
281,55.0,48,512,6.0,62.0
282,79.0,1,28,4.0,70.0
283,55.0,2,526,3.0,98.0
284,81.0,9,36,4.0,76.0
285,54.0,10,43,6.0,74.0
286,54.0,0,44,3.0,80.0
287,71.0,7,622,1.0,62.0
288,67.0,3,624,2.0,80.0
289,55.0,58,46,6.0,82.0
290,55.0,3,50,3.0,87.0
291,57.0,59,31,6.0,85.0
292,62.0,2,30,2.0,76.0
293,72.0,1,32,1.0,85.0
294,57.0,1,36,3.0,89.0
295,59.0,56,37,6.0,87.0
296,59.0,1,39,3.0,93.0
297,67.0,4,89,2.0,89.0
298,74.0,0,89,1.0,80.0
299,55.0,0,37,6.0,74.0
300,55.0,54,43,3.0,85.0
301,83.0,8,360,5.0,68.0
302,83.0,17,369,0.0,85.0
303,83.0,27,338,4.0,78.0
304,57.0,64,29,6.0,87.0
305,57.0,5,37,3.0,95.0
306,83.0,1,34,5.0,82.0
307,66.0,1,39,2.0,66.0
308,59.0,54,41,6.0,80.0
309,67.0,1,42,1.0,68.0
310,83.0,3,32,4.0,93.0
311,83.0,2,37,0.0,93.0
312,59.0,4,43,3.0,85.0
313,64.0,0,101,2.0,85.0
314,83.0,50,115,5.0,82.0
315,83.0,4,115,0.0,87.0
316,83.0,4,133,4.0,95.0
317,67.0,159,43,2.0,64.0
318,79.0,1,42,0.0,72.0
319,79.0,7,40,4.0,82.0
320,79.0,2,39,5.0,80.0
321,69.0,56,97,2.0,85.0
322,78.0,0,117,0.0,60.0
323,78.0,1,121,5.0,70.0
324,78.0,2,135,4.0,70.0
325,71.0,168,37,2.0,78.0
326,76.0,2,42,0.0,74.0
327,76.0,6,36,5.0,72.0
328,76.0,5,38,4.0,80.0
329,48.0,2,493,3.0,87.0
330,48.0,3,494,6.0,85.0
331,47.0,43,31,6.0,72.0
332,47.0,7,40,3.0,70.0
333,72.0,53,109,2.0,70.0
334,76.0,3,604,1.0,89.0
335,45.0,49,43,6.0,64.0
336,45.0,9,46,3.0,74.0
337,71.0,0,36,2.0,74.0
338,47.0,48,41,6.0,64.0
339,47.0,10,38,3.0,82.0
340,74.0,4,50,1.0,85.0
341,48.0,48,47,6.0,89.0
342,48.0,3,43,3.0,80.0
343,76.0,12,79,1.0,87.0
344,69.0,5,100,2.0,82.0
345,45.0,41,44,6.0,80.0
346,45.0,9,42,3.0,85.0
347,81.0,3,357,0.0,76.0
348,81.0,4,382,5.0,78.0
349,81.0,5,380,4.0,87.0
350,47.0,53,41,6.0,64.0
351,47.0,7,39,3.0,82.0
352,81.0,5,30,0.0,78.0
353,81.0,0,31,5.0,80.0
354,81.0,1,31,4.0,80.0
355,48.0,51,47,6.0,82.0
356,48.0,2,44,3.0,91.0
357,78.0,3,40,1.0,74.0
358,57.0,4,50,2.0,68.0
359,81.0,0,143,0.0,68.0
360,81.0,61,149,5.0,68.0
361,81.0,2,149,4.0,80.0
362,40.0,1,167,3.0,89.0
363,40.0,2,196,6.0,82.0
364,83.0,165,39,0.0,68.0
365,83.0,4,34,4.0,68.0
366,83.0,8,40,5.0,60.0
367,81.0,0,31,0.0,66.0
368,81.0,15,35,5.0,70.0
369,81.0,6,34,4.0,68.0
370,79.0,1,112,0.0,85.0
371,79.0,5,118,4.0,89.0
372,79.0,0,125,5.0,68.0
373,81.0,159,34,5.0,64.0
374,81.0,0,34,0.0,68.0
375,81.0,5,34,4.0,64.0
376,78.0,21,28,5.0,70.0
377,78.0,2,26,0.0,68.0
378,78.0,2,31,4.0,82.0
379,52.0,2,250,6.0,66.0
380,52.0,33,267,3.0,82.0
381,50.0,49,48,6.0,70.0
382,50.0,7,44,3.0,82.0
383,64.0,1,591,2.0,72.0
384,71.0,2,603,1.0,68.0
385,52.0,55,42,6.0,70.0
386,52.0,3,43,3.0,78.0
387,54.0,55,39,6.0,76.0
388,71.0,2,35,1.0,80.0
389,54.0,3,42,3.0,85.0
390,64.0,5,40,2.0,80.0
391,55.0,2,37,6.0,82.0
392,55.0,57,44,3.0,85.0
393,76.0,5,82,1.0,87.0
394,54.0,0,32,6.0,80.0
395,54.0,51,41,3.0,85.0
396,71.0,1,100,2.0,82.0
397,79.0,0,374,0.0,78.0
398,79.0,35,390,5.0,68.0
399,79.0,5,386,4.0,78.0
400,55.0,61,40,3.0,82.0
401,55.0,4,40,6.0,76.0
402,79.0,0,34,0.0,87.0
403,71.0,56,39,2.0,82.0
404,79.0,4,32,4.0,89.0
405,79.0,2,37,5.0,82.0
406,74.0,1,37,1.0,76.0
407,52.0,3,43,6.0,63.0
408,52.0,0,49,3.0,64.0
409,79.0,1,272,5.0,70.0
410,79.0,55,284,0.0,85.0
411,79.0,5,273,4.0,87.0
412,78.0,5,39,5.0,58.0
413,78.0,282,49,0.0,70.0
414,78.0,5,41,4.0,68.0
415,76.0,49,55,0.0,68.0
416,76.0,8,49,5.0,74.0
417,76.0,3,51,4.0,72.0
418,78.0,43,43,0.0,64.0
419,78.0,5,44,5.0,59.0
420,78.0,10,42,4.0,66.0
421,79.0,4,44,5.0,72.0
422,79.0,50,56,0.0,72.0
423,79.0,7,47,4.0,82.0
424,61.0,1,568,3.0,82.0
425,78.0,51,48,5.0,70.0
426,78.0,2,46,0.0,64.0
427,78.0,5,44,4.0,80.0
428,76.0,0,583,1.0,76.0
429,69.0,4,595,2.0,87.0
430,61.0,2,614,6.0,63.0
431,79.0,1,41,5.0,70.0
432,79.0,53,49,0.0,76.0
433,79.0,4,45,4.0,82.0
434,59.0,0,33,3.0,63.0
435,62.0,45,41,2.0,66.0
436,74.0,2,40,1.0,70.0
437,59.0,3,37,6.0,76.0
438,83.0,3,45,5.0,72.0
439,83.0,1,52,4.0,82.0
440,83.0,7,55,0.0,72.0
441,81.0,6,46,4.0,82.0
442,81.0,1,47,5.0,68.0
443,81.0,1,48,0.0,72.0
444,61.0,2,75,6.0,85.0
445,61.0,0,88,3.0,87.0
446,76.0,1,92,1.0,78.0
447,79.0,1,44,0.0,72.0
448,69.0,50,107,2.0,85.0
449,79.0,51,47,4.0,85.0
450,79.0,6,51,5.0,76.0
451,78.0,1,39,0.0,74.0
452,78.0,55,41,4.0,80.0
453,78.0,5,38,5.0,74.0
454,79.0,48,34,0.0,61.0
455,79.0,2,33,4.0,85.0
456,69.0,1,35,2.0,85.0
457,57.0,0,36,6.0,80.0
458,73.0,0,36,1.0,63.0
459,57.0,2,36,3.0,64.0
460,79.0,1,35,5.0,74.0
461,79.0,4,38,5.0,60.0
462,79.0,2,45,4.0,64.0
463,79.0,55,50,0.0,72.0
464,78.0,27,22,5.0,47.0
465,78.0,4,22,4.0,56.0
466,78.0,2,22,0.0,64.0
467,79.0,17,21,5.0,70.0
468,79.0,0,20,4.0,74.0
469,79.0,5,24,0.0,63.0
470,78.0,12,21,5.0,60.0
471,69.0,1,103,2.0,82.0
472,78.0,4,21,4.0,63.0
473,78.0,2,26,0.0,68.0
474,79.0,16,28,5.0,76.0
475,79.0,5,24,4.0,76.0
476,79.0,2,29,0.0,64.0
477,78.0,12,66,5.0,68.0
478,78.0,1,65,4.0,74.0
479,78.0,3,64,0.0,70.0
480,67.0,46,41,2.0,80.0
481,76.0,27,25,0.0,68.0
482,76.0,6,19,4.0,54.0
483,76.0,1,26,5.0,60.0
484,74.0,12,34,0.0,74.0
485,74.0,5,31,5.0,74.0
486,74.0,3,36,4.0,82.0
487,66.0,12,91,2.0,76.0
488,74.0,3,350,1.0,76.0
489,81.0,16,124,0.0,68.0
490,81.0,2,122,5.0,85.0
491,81.0,7,125,4.0,85.0
492,72.0,159,35,0.0,66.0
493,72.0,1,32,5.0,66.0
494,72.0,1,34,4.0,78.0
495,69.0,2,40,2.0,82.0
496,66.0,4,37,1.0,68.0
497,62.0,1,82,2.0,82.0
498,62.0,1,589,6.0,82.0
499,62.0,4,591,3.0,82.0
500,67.0,1,119,1.0,72.0
501,71.0,56,150,0.0,68.0
502,71.0,3,151,5.0,74.0
503,71.0,3,149,4.0,80.0
504,69.0,154,25,1.0,76.0
505,72.0,0,27,5.0,70.0
506,72.0,0,32,0.0,64.0
507,72.0,1,31,4.0,70.0
508,67.0,1,42,2.0,82.0
509,64.0,8,47,6.0,80.0
510,67.0,6,37,1.0,64.0
511,64.0,9,45,3.0,82.0
512,71.0,6,34,5.0,64.0
513,71.0,2,34,0.0,63.0
514,71.0,3,34,4.0,66.0
515,69.0,18,31,1.0,60.0
516,72.0,5,29,5.0,60.0
517,72.0,3,27,0.0,59.0
518,72.0,1,30,4.0,66.0
519,71.0,2,32,1.0,59.0
520,74.0,5,32,0.0,59.0
521,74.0,4,33,5.0,59.0
522,69.0,16,18,1.0,62.0
523,74.0,4,37,4.0,70.0
524,72.0,1,20,0.0,60.0
525,72.0,7,22,5.0,47.0
526,72.0,10,21,4.0,46.0
527,71.0,1,22,1.0,72.0
528,74.0,4,21,0.0,66.0
529,62.0,11,83,6.0,85.0
530,66.0,0,84,2.0,70.0
531,74.0,9,21,5.0,61.0
532,69.0,6,18,1.0,63.0
533,72.0,4,15,0.0,66.0
534,62.0,5,95,3.0,87.0
535,74.0,0,23,4.0,68.0
536,72.0,11,13,5.0,57.0
537,71.0,4,18,1.0,66.0
538,74.0,1,20,0.0,64.0
539,72.0,4,17,4.0,57.0
540,69.0,4,16,1.0,68.0
541,74.0,7,20,5.0,63.0
542,72.0,2,15,0.0,63.0
543,72.0,6,13,5.0,61.0
544,74.0,5,21,4.0,68.0
545,72.0,6,15,4.0,66.0
546,71.0,2,26,1.0,68.0
547,74.0,4,26,0.0,63.0
548,74.0,5,22,5.0,64.0
549,72.0,0,25,0.0,60.0
550,69.0,5,28,1.0,68.0
551,74.0,6,23,4.0,70.0
552,72.0,5,25,5.0,66.0
553,72.0,10,26,4.0,61.0
554,71.0,2,39,0.0,70.0
555,67.0,3,39,1.0,68.0
556,71.0,1,37,5.0,59.0
557,60.0,6,39,6.0,74.0
558,69.0,6,35,2.0,82.0
559,71.0,1,38,4.0,62.0
560,72.0,3,33,0.0,64.0
561,60.0,6,37,3.0,82.0
562,69.0,3,34,1.0,68.0
563,72.0,7,28,5.0,61.0
564,72.0,6,29,4.0,70.0
565,74.0,25,281,0.0,74.0
566,74.0,1,282,5.0,64.0
567,74.0,4,291,4.0,64.0
568,76.0,2,38,5.0,59.0
569,76.0,283,55,0.0,82.0
570,71.0,3,358,1.0,80.0
571,76.0,9,62,4.0,74.0
572,74.0,25,47,5.0,68.0
573,74.0,7,43,0.0,70.0
574,74.0,14,43,4.0,68.0
575,72.0,11,34,0.0,63.0
576,72.0,0,36,5.0,58.0
577,71.0,3,25,0.0,82.0
578,72.0,17,29,4.0,62.0
579,71.0,0,35,5.0,53.0
580,71.0,13,26,4.0,82.0
581,69.0,9,21,0.0,72.0
582,69.0,1,22,4.0,64.0
583,69.0,1,37,5.0,64.0
584,67.0,4,28,0.0,82.0
585,74.0,10,36,1.0,93.0
586,67.0,3,36,5.0,61.0
587,67.0,14,27,4.0,80.0
588,65.0,5,27,5.0,72.0
589,65.0,1,29,0.0,63.0
590,65.0,15,24,4.0,61.0
591,64.0,3,28,5.0,76.0
592,64.0,6,33,0.0,63.0
593,64.0,12,39,4.0,62.0
594,59.0,5,510,3.0,80.0
595,59.0,3,519,6.0,72.0
596,67.0,2,561,2.0,82.0
597,57.0,31,34,3.0,78.0
598,57.0,3,33,6.0,78.0
599,55.0,54,45,3.0,80.0
600,55.0,0,40,6.0,66.0
601,59.0,7,48,2.0,66.0
602,57.0,52,33,3.0,85.0
603,57.0,5,33,6.0,78.0
604,60.0,5,41,2.0,70.0
605,59.0,53,42,3.0,85.0
606,59.0,3,39,6.0,72.0
607,62.0,7,39,2.0,85.0
608,55.0,52,39,6.0,76.0
609,59.0,5,36,2.0,85.0
610,55.0,1,44,3.0,87.0
611,62.0,2,367,1.0,82.0
612,65.0,10,359,5.0,82.0
613,65.0,18,342,4.0,62.0
614,65.0,1,363,0.0,80.0
615,57.0,55,32,6.0,82.0
616,57.0,4,33,3.0,98.0
617,60.0,1,34,2.0,98.0
618,65.0,0,35,0.0,82.0
619,65.0,1,31,5.0,78.0
620,65.0,2,34,4.0,78.0
621,62.0,4,38,2.0,89.0
622,59.0,0,39,3.0,82.0
623,62.0,0,39,1.0,87.0
624,59.0,52,51,6.0,68.0
625,62.0,1,80,1.0,87.0
626,65.0,1,130,5.0,70.0
627,65.0,56,139,0.0,82.0
628,65.0,1,159,4.0,85.0
629,64.0,0,34,5.0,57.0
630,64.0,162,36,0.0,62.0
631,55.0,2,41,1.0,70.0
632,64.0,13,32,4.0,66.0
633,62.0,17,28,0.0,76.0
634,62.0,0,32,5.0,68.0
635,62.0,12,34,4.0,66.0
636,60.0,1,80,1.0,87.0
637,64.0,26,125,0.0,76.0
638,64.0,1,128,5.0,74.0
639,64.0,12,132,4.0,85.0
640,66.0,2,32,5.0,64.0
641,66.0,1,38,0.0,78.0
642,62.0,161,43,1.0,76.0
643,66.0,8,34,4.0,85.0
644,48.0,1,497,6.0,78.0
645,48.0,6,516,3.0,82.0
646,64.0,55,88,1.0,80.0
647,47.0,48,44,6.0,66.0
648,47.0,6,48,3.0,82.0
649,55.0,3,599,2.0,74.0
650,48.0,60,46,3.0,89.0
651,48.0,2,50,6.0,74.0
652,50.0,3,32,6.0,76.0
653,50.0,53,39,3.0,82.0
654,55.0,1,39,2.0,82.0
655,62.0,0,41,1.0,82.0
656,52.0,0,41,3.0,85.0
657,52.0,5,41,6.0,85.0
658,60.0,1,76,1.0,80.0
659,60.0,59,86,2.0,80.0
660,48.0,54,42,6.0,66.0
661,48.0,1,44,3.0,85.0
662,67.0,3,356,5.0,70.0
663,67.0,3,369,0.0,74.0
664,67.0,1,379,4.0,85.0
665,50.0,61,31,6.0,76.0
666,50.0,3,37,3.0,102.0
667,62.0,34,42,2.0,72.0
668,67.0,16,33,5.0,85.0
669,67.0,2,31,4.0,80.0
670,67.0,1,31,0.0,91.0
671,59.0,1,37,1.0,82.0
672,52.0,5,45,6.0,74.0
673,52.0,1,44,3.0,76.0
674,67.0,1,147,0.0,74.0
675,67.0,15,152,4.0,85.0
676,67.0,2,152,5.0,74.0
677,64.0,44,180,2.0,85.0
678,60.0,0,170,1.0,82.0
679,66.0,1,32,4.0,55.0
680,66.0,169,36,5.0,82.0
681,66.0,1,36,0.0,80.0
682,64.0,19,34,4.0,68.0
683,64.0,3,32,0.0,74.0
684,64.0,3,32,5.0,82.0
685,72.0,1,127,0.0,82.0
686,72.0,2,137,5.0,82.0
687,72.0,0,139,4.0,85.0
688,57.0,1,154,2.0,78.0
689,64.0,31,166,1.0,80.0
690,71.0,174,33,0.0,82.0
691,71.0,1,33,4.0,74.0
692,71.0,2,35,5.0,72.0
693,69.0,20,30,4.0,85.0
694,69.0,2,28,0.0,85.0
695,69.0,3,27,5.0,78.0
696,45.0,2,485,6.0,85.0
697,45.0,3,489,3.0,91.0
698,43.0,2,45,6.0,74.0
699,43.0,57,48,3.0,82.0
700,78.0,3,128,0.0,76.0
701,78.0,2,134,5.0,64.0
702,78.0,1,147,4.0,80.0
703,45.0,1,44,6.0,68.0
704,45.0,61,53,3.0,85.0
705,76.0,49,32,0.0,68.0
706,76.0,5,30,5.0,70.0
707,76.0,2,31,4.0,78.0
708,47.0,2,37,3.0,82.0
709,47.0,0,37,6.0,66.0
710,74.0,14,28,0.0,85.0
711,74.0,5,25,5.0,82.0
712,74.0,1,27,4.0,85.0
713,48.0,2,39,3.0,89.0
714,48.0,3,38,6.0,66.0
715,47.0,53,43,3.0,82.0
716,47.0,3,47,6.0,68.0
717,60.0,2,348,2.0,68.0
718,81.0,32,116,0.0,91.0
719,81.0,1,118,5.0,89.0
720,69.0,27,365,1.0,87.0
721,81.0,5,135,4.0,89.0
722,48.0,55,41,3.0,87.0
723,48.0,9,39,6.0,68.0
724,72.0,40,33,0.0,80.0
725,57.0,0,37,2.0,78.0
726,66.0,2,39,1.0,59.0
727,72.0,7,32,5.0,72.0
728,72.0,0,39,4.0,80.0
729,50.0,3,39,3.0,80.0
730,50.0,5,36,6.0,72.0
731,67.0,1,110,1.0,80.0
732,52.0,3,123,6.0,70.0
733,52.0,2,144,3.0,85.0
734,66.0,160,42,1.0,61.0
735,71.0,49,269,0.0,70.0
736,71.0,7,272,5.0,66.0
737,71.0,2,273,4.0,78.0
738,67.0,65,99,1.0,85.0
739,69.0,39,53,0.0,76.0
740,69.0,15,49,4.0,68.0
741,69.0,3,48,5.0,68.0
742,64.0,5,117,3.0,80.0
743,64.0,4,130,6.0,70.0
744,64.0,3,370,2.0,91.0
745,67.0,48,52,0.0,70.0
746,67.0,10,48,4.0,68.0
747,67.0,3,46,5.0,80.0
748,69.0,42,42,1.0,66.0
749,59.0,4,38,2.0,72.0
750,66.0,3,51,0.0,64.0
751,66.0,5,47,4.0,61.0
752,66.0,3,46,5.0,58.0
753,67.0,53,58,0.0,68.0
754,67.0,5,54,4.0,70.0
755,67.0,3,50,5.0,68.0
756,64.0,0,90,2.0,89.0
757,71.0,1,95,1.0,82.0
758,62.0,5,49,5.0,70.0
759,62.0,0,58,4.0,66.0
760,62.0,51,60,0.0,78.0
761,62.0,0,123,3.0,85.0
762,62.0,3,121,6.0,78.0
763,64.0,3,53,5.0,61.0
764,64.0,6,56,4.0,62.0
765,64.0,51,64,0.0,70.0
766,62.0,50,38,2.0,70.0
767,72.0,1,41,1.0,78.0
768,66.0,1,56,4.0,63.0
769,66.0,2,57,0.0,82.0
770,66.0,4,57,5.0,64.0
771,67.0,59,59,0.0,80.0
772,67.0,0,59,4.0,78.0
773,67.0,1,57,5.0,80.0
774,64.0,0,83,2.0,91.0
775,71.0,3,89,1.0,80.0
776,69.0,2,48,0.0,80.0
777,69.0,1,53,5.0,62.0
778,60.0,1,113,3.0,87.0
779,69.0,57,60,4.0,72.0
780,60.0,1,128,6.0,66.0
781,71.0,3,46,0.0,82.0
782,71.0,1,49,5.0,66.0
783,71.0,59,50,4.0,78.0
784,69.0,49,39,1.0,70.0
785,60.0,1,39,2.0,66.0
786,72.0,0,40,0.0,63.0
787,72.0,3,42,4.0,78.0
788,72.0,3,47,5.0,68.0
789,67.0,0,106,1.0,72.0
790,59.0,5,112,3.0,87.0
791,59.0,1,137,6.0,70.0
792,67.0,169,39,1.0,68.0
793,74.0,1,266,0.0,78.0
794,74.0,2,275,4.0,80.0
795,74.0,56,281,5.0,85.0
796,69.0,3,80,1.0,89.0
797,72.0,43,44,0.0,80.0
798,72.0,8,48,5.0,68.0
799,72.0,1,48,4.0,68.0
800,47.0,62,115,3.0,85.0
801,47.0,3,122,6.0,70.0
802,67.0,2,369,2.0,80.0
803,74.0,50,47,0.0,70.0
804,74.0,9,47,4.0,82.0
805,74.0,0,48,5.0,68.0
806,71.0,3,35,1.0,80.0
807,62.0,1,34,2.0,78.0
808,76.0,2,46,5.0,76.0
809,76.0,4,50,4.0,82.0
810,76.0,48,66,0.0,68.0
811,67.0,2,53,4.0,68.0
812,67.0,5,56,5.0,68.0
813,67.0,55,80,0.0,68.0
814,66.0,50,24,4.0,57.0
815,66.0,1,25,5.0,47.0
816,72.0,2,98,1.0,78.0
817,67.0,16,22,4.0,66.0
818,66.0,5,38,0.0,85.0
819,69.0,1,104,2.0,87.0
820,67.0,3,23,5.0,58.0
821,45.0,2,116,3.0,85.0
822,66.0,15,22,4.0,58.0
823,66.0,3,17,5.0,51.0
824,67.0,4,29,0.0,57.0
825,45.0,5,132,6.0,68.0
826,67.0,4,20,5.0,70.0
827,67.0,13,25,4.0,66.0
828,66.0,6,19,0.0,50.0
829,66.0,5,18,5.0,62.0
830,66.0,6,11,0.0,49.0
831,67.0,13,30,5.0,68.0
832,67.0,5,51,0.0,64.0
833,74.0,2,45,1.0,78.0
834,67.0,4,47,2.0,80.0
835,66.0,7,155,4.0,60.0
836,66.0,7,118,5.0,58.0
837,66.0,12,114,0.0,66.0
838,69.0,47,91,2.0,82.0
839,72.0,4,87,1.0,82.0
840,67.0,56,42,5.0,82.0
841,67.0,8,45,4.0,72.0
842,67.0,7,41,0.0,78.0
843,43.0,0,120,3.0,85.0
844,43.0,1,144,6.0,68.0
845,69.0,43,54,5.0,68.0
846,69.0,3,49,4.0,80.0
847,69.0,6,54,0.0,66.0
848,71.0,2,35,1.0,72.0
849,64.0,46,45,2.0,85.0
850,71.0,3,43,0.0,80.0
851,71.0,3,41,4.0,80.0
852,71.0,0,47,5.0,68.0
853,69.0,1,87,1.0,80.0
854,57.0,1,100,2.0,82.0
855,72.0,59,110,0.0,72.0
856,72.0,0,125,5.0,80.0
857,72.0,3,140,4.0,82.0
858,42.0,0,191,6.0,64.0
859,42.0,2,200,3.0,85.0
860,62.0,160,39,1.0,64.0
861,69.0,0,38,0.0,70.0
862,69.0,7,45,2.0,82.0
863,69.0,5,42,5.0,64.0
864,69.0,11,43,4.0,68.0
865,67.0,46,104,1.0,85.0
866,62.0,5,99,2.0,78.0
867,71.0,1,116,0.0,82.0
868,71.0,0,121,5.0,78.0
869,71.0,4,120,4.0,85.0
870,43.0,3,133,3.0,85.0
871,43.0,2,148,6.0,74.0
872,64.0,157,39,2.0,78.0
873,72.0,8,35,0.0,78.0
874,69.0,3,34,1.0,76.0
875,48.0,2,34,6.0,70.0
876,72.0,0,38,5.0,68.0
877,72.0,5,34,4.0,80.0
878,48.0,3,36,3.0,87.0
879,71.0,2,65,0.0,68.0
880,71.0,1,66,5.0,66.0
881,64.0,51,72,2.0,78.0
882,71.0,3,74,4.0,85.0
883,67.0,2,81,1.0,89.0
884,69.0,51,28,0.0,53.0
885,62.0,0,26,2.0,53.0
886,69.0,5,33,5.0,51.0
887,69.0,11,33,4.0,54.0
888,66.0,1,33,1.0,57.0
889,71.0,12,26,0.0,60.0
890,64.0,4,25,2.0,68.0
891,71.0,3,31,5.0,57.0
892,69.0,4,20,0.0,57.0
893,62.0,5,16,2.0,63.0
894,71.0,10,31,4.0,60.0
895,67.0,3,28,1.0,70.0
896,69.0,6,21,5.0,57.0
897,66.0,10,17,1.0,64.0
898,64.0,2,17,2.0,66.0
899,69.0,0,21,4.0,57.0
900,71.0,1,21,0.0,66.0
901,71.0,7,23,5.0,60.0
902,50.0,3,163,3.0,85.0
903,69.0,0,17,0.0,58.0
904,50.0,0,175,6.0,74.0
905,67.0,9,21,1.0,74.0
906,62.0,2,20,2.0,74.0
907,71.0,0,22,4.0,62.0
908,69.0,11,20,5.0,64.0
909,66.0,6,20,1.0,66.0
910,71.0,1,21,0.0,72.0
911,69.0,3,20,4.0,66.0
912,64.0,0,24,2.0,82.0
913,71.0,10,18,5.0,66.0
914,69.0,1,20,0.0,63.0
915,67.0,4,22,1.0,74.0
916,71.0,4,21,4.0,80.0
917,69.0,7,20,5.0,66.0
918,66.0,5,24,1.0,72.0
919,71.0,2,23,0.0,76.0
920,69.0,5,21,4.0,70.0
921,71.0,6,23,5.0,70.0
922,62.0,0,56,2.0,62.0
923,71.0,3,25,4.0,78.0
924,67.0,2,29,1.0,80.0
925,71.0,13,5,5.0,33.0
926,69.0,7,152,0.0,68.0
927,66.0,2,132,1.0,85.0
928,69.0,0,145,5.0,72.0
929,69.0,2,137,4.0,70.0
930,38.0,2,149,3.0,89.0
931,38.0,5,169,6.0,85.0
932,60.0,7,184,2.0,68.0
933,67.0,152,36,0.0,74.0
934,67.0,5,35,5.0,64.0
935,67.0,5,34,1.0,80.0
936,67.0,5,33,4.0,76.0
937,43.0,2,227,6.0,76.0
938,43.0,0,244,3.0,95.0
939,42.0,285,36,3.0,87.0
940,42.0,5,35,6.0,63.0
941,43.0,52,46,3.0,76.0
942,43.0,2,50,6.0,70.0
943,45.0,59,36,3.0,80.0
944,45.0,2,37,6.0,82.0
945,47.0,60,45,3.0,91.0
946,47.0,3,46,6.0,74.0
947,45.0,1,33,6.0,63.0
948,45.0,56,41,3.0,87.0
949,43.0,57,44,3.0,80.0
950,43.0,2,48,6.0,63.0
951,45.0,55,35,3.0,87.0
952,45.0,5,34,6.0,60.0
953,47.0,53,46,3.0,95.0
954,47.0,5,43,6.0,72.0
955,43.0,1,44,6.0,66.0
956,43.0,55,46,3.0,82.0
957,45.0,57,37,6.0,62.0
958,45.0,4,39,3.0,74.0
959,62.0,1,896,1.0,74.0
960,59.0,52,915,2.0,74.0
961,67.0,3,909,4.0,63.0
962,47.0,2,34,3.0,93.0
963,47.0,55,38,6.0,68.0
964,67.0,5,931,5.0,60.0
965,67.0,2,933,0.0,66.0
966,48.0,1,252,6.0,68.0
967,48.0,1,258,3.0,93.0
968,72.0,5,278,1.0,78.0
969,71.0,288,36,1.0,66.0
970,55.0,3,37,6.0,74.0
971,55.0,0,38,3.0,82.0
972,57.0,2,36,3.0,85.0
973,57.0,2,38,6.0,68.0
974,72.0,54,46,1.0,74.0
975,59.0,53,38,6.0,74.0
976,74.0,0,37,1.0,85.0
977,59.0,4,37,3.0,87.0
978,76.0,1,499,4.0,85.0
979,76.0,0,502,5.0,95.0
980,76.0,68,514,0.0,91.0
981,76.0,0,77,1.0,72.0
982,74.0,56,48,4.0,72.0
983,67.0,2,584,2.0,82.0
984,74.0,3,51,5.0,68.0
985,74.0,2,54,0.0,72.0
986,76.0,53,48,4.0,80.0
987,76.0,3,47,5.0,68.0
988,76.0,0,47,0.0,80.0
989,67.0,2,35,2.0,72.0
990,77.0,1,39,4.0,80.0
991,77.0,0,42,5.0,70.0
992,74.0,54,43,1.0,80.0
993,77.0,1,50,0.0,78.0
994,79.0,0,40,5.0,76.0
995,79.0,57,43,4.0,82.0
996,79.0,4,47,0.0,78.0
997,76.0,2,70,1.0,78.0
998,60.0,2,76,2.0,68.0
999,77.0,51,40,5.0,68.0
1000,77.0,3,45,4.0,76.0
1001,77.0,1,48,0.0,78.0
1002,79.0,56,36,5.0,70.0
1003,79.0,5,36,4.0,68.0
1004,79.0,1,44,0.0,72.0
1005,64.0,52,33,2.0,76.0
1006,72.0,3,29,1.0,82.0
1007,81.0,2,35,5.0,78.0
1008,81.0,0,43,0.0,85.0
1009,81.0,4,38,4.0,80.0
1010,60.0,64,556,6.0,78.0
1011,60.0,3,560,3.0,93.0
1012,81.0,6,118,5.0,76.0
1013,81.0,52,125,0.0,80.0
1014,81.0,5,117,4.0,82.0
1015,60.0,55,37,6.0,80.0
1016,60.0,3,43,3.0,85.0
1017,74.0,2,146,4.0,57.0
1018,74.0,4,156,5.0,52.0
1019,74.0,110,163,0.0,57.0
1020,59.0,4,60,3.0,87.0
1021,59.0,59,70,6.0,80.0
1022,74.0,54,41,5.0,68.0
1023,65.0,1,346,2.0,64.0
1024,74.0,3,47,0.0,72.0
1025,69.0,1,354,1.0,66.0
1026,74.0,7,48,4.0,80.0
1027,76.0,49,47,5.0,68.0
1028,76.0,3,48,0.0,74.0
1029,76.0,4,49,4.0,74.0
1030,69.0,43,40,1.0,66.0
1031,57.0,1,39,3.0,72.0
1032,57.0,4,34,6.0,64.0
1033,77.0,0,37,5.0,72.0
1034,69.0,4,45,2.0,80.0
1035,77.0,5,41,4.0,70.0
1036,77.0,0,47,0.0,82.0
1037,79.0,0,45,5.0,78.0
1038,79.0,0,45,4.0,82.0
1039,79.0,1,58,0.0,85.0
1040,59.0,54,66,3.0,85.0
1041,59.0,3,71,6.0,70.0
1042,74.0,2,83,1.0,89.0
1043,67.0,2,81,2.0,87.0
1044,77.0,59,34,5.0,72.0
1045,77.0,0,44,0.0,68.0
1046,77.0,3,41,4.0,76.0
1047,76.0,2,35,5.0,60.0
1048,76.0,2,43,4.0,72.0
1049,76.0,55,47,0.0,64.0
1050,57.0,46,31,3.0,72.0
1051,57.0,1,32,6.0,64.0
1052,72.0,0,34,1.0,78.0
1053,77.0,0,38,5.0,63.0
1054,77.0,2,42,0.0,78.0
1055,69.0,5,45,2.0,78.0
1056,77.0,4,39,4.0,78.0
1057,79.0,5,42,5.0,68.0
1058,79.0,3,41,4.0,76.0
1059,79.0,0,49,0.0,72.0
1060,59.0,52,67,3.0,87.0
1061,74.0,1,61,1.0,89.0
1062,59.0,0,68,6.0,66.0
1063,67.0,0,76,2.0,82.0
1064,76.0,3,32,5.0,54.0
1065,76.0,56,38,4.0,63.0
1066,76.0,0,44,0.0,68.0
1067,77.0,2,39,5.0,60.0
1068,77.0,2,44,4.0,78.0
1069,77.0,56,46,0.0,74.0
1070,65.0,2,33,2.0,59.0
1071,55.0,43,37,3.0,76.0
1072,55.0,1,40,6.0,68.0
1073,71.0,7,33,1.0,78.0
1074,79.0,3,46,5.0,72.0
1075,79.0,0,46,4.0,80.0
1076,79.0,1,51,0.0,80.0
1077,72.0,1,136,5.0,66.0
1078,72.0,2,142,4.0,76.0
1079,72.0,2,146,0.0,74.0
1080,64.0,0,169,1.0,68.0
1081,69.0,173,30,5.0,63.0
1082,69.0,4,29,4.0,76.0
1083,69.0,6,32,0.0,66.0
1084,71.0,14,26,5.0,66.0
1085,71.0,5,24,4.0,68.0
1086,71.0,8,27,0.0,68.0
1087,57.0,1,255,6.0,59.0
1088,57.0,2,263,3.0,85.0
1089,57.0,46,40,3.0,78.0
1090,57.0,0,45,6.0,72.0
1091,72.0,1,118,5.0,66.0
1092,72.0,4,110,0.0,82.0
1093,64.0,61,365,2.0,64.0
1094,72.0,6,123,4.0,80.0
1095,59.0,62,42,6.0,68.0
1096,59.0,4,44,3.0,85.0
1097,74.0,2,31,5.0,66.0
1098,60.0,53,33,6.0,70.0
1099,64.0,0,34,2.0,78.0
1100,60.0,3,30,3.0,82.0
1101,74.0,0,34,4.0,74.0
1102,74.0,1,37,0.0,66.0
1103,76.0,19,33,5.0,70.0
1104,76.0,1,31,0.0,70.0
1105,76.0,3,32,4.0,64.0
1106,77.0,32,34,4.0,53.0
1107,77.0,1,35,5.0,57.0
1108,77.0,4,35,0.0,66.0
1109,62.0,1,42,3.0,91.0
1110,62.0,0,44,6.0,82.0
1111,76.0,21,29,4.0,63.0
1112,76.0,2,30,5.0,64.0
1113,76.0,2,29,0.0,68.0
1114,60.0,1,33,6.0,66.0
1115,60.0,2,37,3.0,80.0
1116,69.0,22,387,1.0,78.0
1117,59.0,0,38,6.0,57.0
1118,59.0,58,39,3.0,80.0
1119,69.0,3,31,1.0,70.0
1120,60.0,56,34,3.0,80.0
1121,60.0,2,32,6.0,66.0
1122,62.0,4,40,6.0,72.0
1123,62.0,57,47,3.0,78.0
1124,71.0,1,88,1.0,80.0
1125,59.0,57,36,6.0,57.0
1126,59.0,0,40,3.0,68.0
1127,62.0,2,360,2.0,72.0
1128,77.0,24,312,4.0,72.0
1129,77.0,0,314,5.0,61.0
1130,77.0,3,318,0.0,80.0
1131,60.0,61,36,3.0,80.0
1132,60.0,2,36,6.0,64.0
1133,77.0,0,33,4.0,85.0
1134,62.0,2,35,3.0,87.0
1135,77.0,53,38,5.0,76.0
1136,62.0,1,31,2.0,66.0
1137,72.0,0,35,1.0,66.0
1138,77.0,1,37,0.0,70.0
1139,62.0,3,41,6.0,68.0
1140,77.0,2,41,4.0,82.0
1141,77.0,0,43,5.0,80.0
1142,77.0,0,57,0.0,89.0
1143,55.0,0,84,3.0,80.0
1144,55.0,3,92,6.0,76.0
1145,79.0,1,34,5.0,72.0
1146,71.0,57,98,1.0,66.0
1147,79.0,57,41,4.0,74.0
1148,79.0,2,39,0.0,80.0
1149,62.0,1,155,2.0,70.0
1150,77.0,3,41,4.0,82.0
1151,77.0,1,49,0.0,85.0
1152,77.0,54,50,5.0,64.0
1153,57.0,41,33,6.0,60.0
1154,57.0,1,36,3.0,80.0
1155,72.0,9,38,1.0,66.0
1156,76.0,2,41,5.0,58.0
1157,76.0,2,37,4.0,82.0
1158,76.0,2,41,0.0,78.0
1159,77.0,0,51,5.0,78.0
1160,77.0,5,47,4.0,87.0
1161,77.0,0,57,0.0,91.0
1162,59.0,50,80,6.0,80.0
1163,59.0,0,82,3.0,87.0
1164,74.0,3,82,1.0,78.0
1165,76.0,0,39,5.0,66.0
1166,76.0,6,37,4.0,85.0
1167,76.0,56,44,0.0,80.0
1168,67.0,5,121,2.0,72.0
1169,74.0,54,43,5.0,70.0
1170,74.0,4,44,4.0,76.0
1171,74.0,1,48,0.0,76.0
1172,71.0,7,32,1.0,82.0
1173,55.0,41,40,3.0,68.0
1174,55.0,5,38,6.0,64.0
1175,76.0,1,40,5.0,68.0
1176,76.0,5,37,4.0,78.0
1177,76.0,3,44,0.0,74.0
1178,77.0,0,62,0.0,80.0
1179,77.0,1,63,5.0,64.0
1180,74.0,54,70,1.0,72.0
1181,77.0,2,70,4.0,82.0
1182,76.0,50,30,0.0,60.0
1183,76.0,6,30,5.0,52.0
1184,72.0,4,28,1.0,51.0
1185,76.0,0,30,4.0,63.0
1186,77.0,20,31,0.0,64.0
1187,77.0,6,30,5.0,58.0
1188,74.0,3,27,1.0,58.0
1189,77.0,2,31,4.0,68.0
1190,76.0,14,21,0.0,64.0
1191,76.0,8,21,5.0,57.0
1192,72.0,2,20,1.0,60.0
1193,76.0,4,20,4.0,66.0
1194,60.0,0,151,3.0,89.0
1195,77.0,10,23,0.0,68.0
1196,74.0,3,17,1.0,57.0
1197,77.0,6,23,5.0,60.0
1198,77.0,4,21,4.0,63.0
1199,76.0,6,17,0.0,64.0
1200,60.0,0,167,6.0,80.0
1201,76.0,8,18,5.0,59.0
1202,72.0,0,19,1.0,60.0
1203,76.0,5,19,4.0,61.0
1204,77.0,8,19,0.0,66.0
1205,77.0,1,17,5.0,72.0
1206,74.0,6,21,1.0,66.0
1207,77.0,5,20,4.0,72.0
1208,76.0,5,18,0.0,60.0
1209,76.0,2,12,5.0,51.0
1210,72.0,6,19,1.0,66.0
1211,76.0,5,15,4.0,59.0
1212,77.0,4,24,0.0,80.0
1213,77.0,6,20,5.0,66.0
1214,74.0,2,23,1.0,66.0
1215,77.0,5,24,4.0,76.0
1216,67.0,1,343,2.0,78.0
1217,72.0,4,125,1.0,66.0
1218,76.0,6,141,5.0,60.0
1219,76.0,5,137,4.0,70.0
1220,76.0,1,148,0.0,63.0
1221,48.0,7,140,3.0,87.0
1222,48.0,1,156,6.0,70.0
1223,74.0,164,32,5.0,66.0
1224,74.0,0,32,1.0,82.0
1225,67.0,2,28,2.0,85.0
1226,74.0,2,34,4.0,72.0
1227,74.0,2,36,0.0,70.0
1228,74.0,2,265,4.0,68.0
1229,74.0,2,280,5.0,68.0
1230,74.0,0,294,0.0,70.0
1231,67.0,5,45,0.0,59.0
1232,67.0,306,52,4.0,62.0
1233,69.0,1,29,4.0,66.0
1234,69.0,18,30,5.0,60.0
1235,69.0,2,27,0.0,63.0
1236,67.0,1,55,5.0,68.0
1237,71.0,7,45,0.0,68.0
1238,71.0,1,41,5.0,61.0
1239,71.0,3,45,4.0,66.0
1240,72.0,17,31,0.0,64.0
1241,72.0,5,33,5.0,59.0
1242,72.0,2,31,4.0,61.0
1243,74.0,14,31,0.0,59.0
1244,74.0,9,26,5.0,82.0
1245,74.0,2,27,4.0,68.0
1246,76.0,6,35,0.0,63.0
1247,76.0,4,32,4.0,61.0
1248,76.0,3,34,5.0,58.0
1249,78.0,11,34,0.0,64.0
1250,78.0,4,35,4.0,60.0
1251,78.0,4,34,5.0,58.0
1252,79.0,13,28,0.0,76.0
1253,79.0,1,21,4.0,70.0
1254,79.0,9,24,5.0,66.0
1255,81.0,8,36,0.0,76.0
1256,81.0,3,34,4.0,76.0
1257,81.0,4,34,5.0,66.0
1258,55.0,0,522,3.0,80.0
1259,55.0,59,527,6.0,68.0
1260,54.0,43,42,6.0,64.0
1261,54.0,11,41,3.0,78.0
1262,67.0,3,602,2.0,68.0
1263,71.0,0,615,1.0,64.0
1264,55.0,49,42,6.0,68.0
1265,55.0,10,44,3.0,80.0
1266,57.0,49,33,6.0,80.0
1267,62.0,0,29,2.0,72.0
1268,72.0,10,31,1.0,78.0
1269,57.0,0,36,3.0,87.0
1270,59.0,51,38,6.0,80.0
1271,59.0,8,39,3.0,82.0
1272,74.0,1,74,1.0,78.0
1273,67.0,5,80,2.0,87.0
1274,55.0,49,43,6.0,66.0
1275,55.0,3,44,3.0,82.0
1276,83.0,3,360,4.0,82.0
1277,83.0,21,370,0.0,76.0
1278,83.0,2,370,5.0,72.0
1279,57.0,63,37,3.0,85.0
1280,57.0,5,34,6.0,70.0
1281,67.0,1,32,1.0,82.0
1282,83.0,0,31,5.0,85.0
1283,66.0,0,39,2.0,63.0
1284,83.0,1,40,0.0,91.0
1285,59.0,1,41,6.0,76.0
1286,59.0,57,49,3.0,80.0
1287,83.0,4,45,4.0,85.0
1288,64.0,0,83,2.0,80.0
1289,83.0,3,97,4.0,91.0
1290,83.0,1,102,0.0,91.0
1291,83.0,57,104,5.0,82.0
1292,79.0,1,23,5.0,80.0
1293,79.0,0,26,0.0,85.0
1294,79.0,6,26,4.0,85.0
1295,67.0,162,40,2.0,68.0
1296,79.0,56,28,5.0,72.0
1297,79.0,2,29,4.0,82.0
1298,79.0,1,25,0.0,87.0
1299,78.0,15,20,5.0,70.0
1300,78.0,6,22,4.0,87.0
1301,78.0,0,23,0.0,68.0
1302,69.0,3,63,2.0,85.0
1303,79.0,14,30,5.0,76.0
1304,79.0,4,30,4.0,72.0
1305,79.0,3,35,0.0,82.0
1306,78.0,2,52,4.0,74.0
1307,78.0,14,62,5.0,63.0
1308,78.0,5,66,0.0,78.0
1309,71.0,106,35,2.0,72.0
1310,76.0,10,29,5.0,76.0
1311,76.0,1,31,4.0,85.0
1312,76.0,2,34,0.0,85.0
1313,48.0,1,487,6.0,82.0
1314,48.0,1,493,3.0,87.0
1315,81.0,3,29,5.0,66.0
1316,81.0,1,28,0.0,80.0
1317,81.0,4,30,4.0,80.0
1318,79.0,19,31,5.0,78.0
1319,79.0,1,31,0.0,82.0
1320,79.0,3,30,4.0,87.0
1321,72.0,53,74,2.0,70.0
1322,47.0,3,41,6.0,61.0
1323,47.0,21,44,3.0,70.0
1324,76.0,3,602,1.0,87.0
1325,45.0,54,45,3.0,72.0
1326,45.0,3,44,6.0,70.0
1327,47.0,54,37,3.0,70.0
1328,71.0,3,38,2.0,74.0
1329,47.0,0,40,6.0,64.0
1330,74.0,3,40,1.0,82.0
1331,48.0,55,47,3.0,89.0
1332,48.0,4,47,6.0,82.0
1333,69.0,3,74,2.0,82.0
1334,76.0,1,75,1.0,78.0
1335,45.0,54,43,3.0,72.0
1336,45.0,5,44,6.0,74.0
1337,81.0,2,312,4.0,68.0
1338,81.0,1,319,0.0,80.0
1339,81.0,2,321,5.0,62.0
1340,47.0,3,33,6.0,70.0
1341,47.0,54,41,3.0,74.0
1342,78.0,1,37,1.0,78.0
1343,81.0,10,29,5.0,74.0
1344,48.0,56,42,6.0,78.0
1345,81.0,1,28,4.0,87.0
1346,57.0,1,42,2.0,85.0
1347,48.0,1,44,3.0,85.0
1348,81.0,3,32,0.0,85.0
1349,81.0,2,114,0.0,85.0
1350,81.0,4,127,5.0,66.0
1351,81.0,0,123,4.0,82.0
1352,40.0,53,159,3.0,85.0
1353,40.0,0,183,6.0,66.0
1354,83.0,170,33,0.0,64.0
1355,83.0,2,34,5.0,66.0
1356,83.0,8,32,4.0,68.0
1357,81.0,10,31,0.0,78.0
1358,81.0,4,30,5.0,66.0
1359,81.0,6,28,4.0,66.0
1360,79.0,7,98,0.0,95.0
1361,79.0,5,101,4.0,87.0
1362,79.0,4,108,5.0,87.0
1363,81.0,152,36,0.0,70.0
1364,81.0,10,35,5.0,63.0
1365,81.0,6,33,4.0,63.0
1366,78.0,13,24,0.0,93.0
1367,78.0,9,20,5.0,74.0
1368,78.0,4,20,4.0,91.0
1369,52.0,23,266,3.0,82.0
1370,52.0,0,258,6.0,64.0
1371,50.0,55,50,6.0,64.0
1372,50.0,2,53,3.0,80.0
1373,71.0,2,588,1.0,78.0
1374,78.0,9,121,5.0,89.0
1375,78.0,1,122,4.0,91.0
1376,64.0,2,599,2.0,72.0
1377,78.0,27,139,0.0,89.0
1378,52.0,4,37,6.0,66.0
1379,52.0,58,47,3.0,76.0
1380,64.0,48,38,2.0,76.0
1381,71.0,2,37,1.0,66.0
1382,54.0,0,38,6.0,80.0
1383,54.0,1,42,3.0,68.0
1384,55.0,63,41,3.0,85.0
1385,55.0,0,42,6.0,68.0
1386,71.0,2,75,2.0,82.0
1387,76.0,6,71,1.0,89.0
1388,54.0,1,36,6.0,80.0
1389,54.0,52,39,3.0,70.0
1390,79.0,2,252,4.0,60.0
1391,79.0,1,254,5.0,57.0
1392,79.0,2,255,0.0,62.0
1393,55.0,4,39,6.0,70.0
1394,55.0,59,44,3.0,72.0
1395,79.0,1,35,0.0,85.0
1396,79.0,56,37,5.0,82.0
1397,71.0,1,34,2.0,82.0
1398,74.0,1,35,1.0,80.0
1399,79.0,1,39,4.0,78.0
1400,52.0,0,47,3.0,68.0
1401,52.0,1,46,6.0,62.0
1402,79.0,2,260,4.0,78.0
1403,79.0,4,262,0.0,89.0
1404,79.0,55,269,5.0,74.0
1405,78.0,271,39,0.0,63.0
1406,78.0,13,38,4.0,82.0
1407,78.0,3,39,5.0,68.0
1408,76.0,47,50,0.0,78.0
1409,76.0,6,42,5.0,70.0
1410,76.0,7,48,4.0,70.0
1411,78.0,6,32,5.0,68.0
1412,78.0,2,39,4.0,63.0
1413,78.0,46,42,0.0,87.0
1414,79.0,1,39,5.0,78.0
1415,79.0,5,44,4.0,70.0
1416,79.0,51,50,0.0,87.0
1417,61.0,3,552,3.0,80.0
1418,78.0,1,39,4.0,72.0
1419,78.0,3,38,5.0,59.0
1420,78.0,57,46,0.0,78.0
1421,61.0,4,568,6.0,63.0
1422,69.0,2,584,2.0,78.0
1423,76.0,2,587,1.0,76.0
1424,79.0,3,39,4.0,70.0
1425,79.0,1,38,5.0,68.0
1426,79.0,56,49,0.0,85.0
1427,62.0,48,33,2.0,66.0
1428,59.0,2,36,3.0,78.0
1429,59.0,3,33,6.0,63.0
1430,74.0,1,36,1.0,70.0
1431,83.0,1,38,5.0,68.0
1432,83.0,2,42,4.0,82.0
1433,83.0,1,47,0.0,76.0
1434,81.0,0,44,4.0,72.0
1435,81.0,0,43,5.0,68.0
1436,81.0,0,49,0.0,85.0
1437,76.0,2,72,1.0,82.0
1438,61.0,0,83,6.0,64.0
1439,69.0,3,80,2.0,85.0
1440,61.0,59,86,3.0,82.0
1441,79.0,54,42,4.0,76.0
1442,79.0,3,40,5.0,72.0
1443,79.0,0,47,0.0,76.0
1444,78.0,60,35,5.0,70.0
1445,78.0,1,36,4.0,70.0
1446,78.0,1,42,0.0,80.0
1447,73.0,54,36,1.0,62.0
1448,79.0,1,31,5.0,66.0
1449,79.0,0,35,4.0,78.0
1450,57.0,2,37,6.0,61.0
1451,79.0,1,37,0.0,82.0
1452,57.0,0,38,3.0,82.0
1453,69.0,1,37,2.0,82.0
1454,79.0,62,33,4.0,68.0
1455,79.0,0,31,5.0,66.0
1456,79.0,2,35,0.0,82.0
1457,78.0,24,25,4.0,74.0
1458,78.0,3,21,0.0,64.0
1459,78.0,1,24,5.0,46.0
1460,79.0,18,26,4.0,68.0
1461,79.0,2,27,0.0,78.0
1462,79.0,1,27,5.0,70.0
1463,69.0,2,81,2.0,87.0
1464,78.0,1,22,0.0,72.0
1465,79.0,19,22,0.0,76.0
1466,78.0,16,85,4.0,63.0
1467,78.0,3,94,5.0,62.0
1468,78.0,13,76,0.0,64.0
1469,67.0,68,41,2.0,72.0
1470,76.0,6,25,4.0,63.0
1471,76.0,7,23,5.0,60.0
1472,76.0,12,37,0.0,64.0
1473,74.0,3,25,0.0,82.0
1474,74.0,13,30,4.0,76.0
1475,74.0,1,31,5.0,66.0
1476,66.0,23,80,2.0,70.0
1477,81.0,2,96,0.0,87.0
1478,74.0,1,346,1.0,68.0
1479,81.0,10,106,4.0,85.0
1480,81.0,4,105,5.0,70.0
1481,72.0,161,30,5.0,59.0
1482,72.0,0,34,4.0,64.0
1483,66.0,2,36,1.0,68.0
1484,72.0,3,36,0.0,80.0
1485,69.0,0,42,2.0,82.0
1486,62.0,3,78,2.0,85.0
1487,62.0,0,560,3.0,82.0
1488,62.0,0,578,6.0,70.0
1489,67.0,4,114,1.0,70.0
1490,71.0,0,137,4.0,78.0
1491,71.0,57,141,5.0,70.0
1492,71.0,2,144,0.0,80.0
1493,72.0,158,27,5.0,59.0
1494,72.0,3,28,4.0,60.0
1495,69.0,0,29,1.0,59.0
1496,72.0,3,28,0.0,63.0
1497,67.0,4,36,2.0,76.0
1498,71.0,6,35,5.0,66.0
1499,64.0,0,48,3.0,82.0
1500,67.0,4,33,1.0,66.0
1501,71.0,2,38,4.0,64.0
1502,71.0,1,34,0.0,64.0
1503,64.0,3,49,6.0,76.0
1504,72.0,23,28,5.0,63.0
1505,72.0,0,28,4.0,66.0
1506,72.0,2,26,0.0,60.0
1507,69.0,5,30,1.0,62.0
1508,74.0,0,34,5.0,58.0
1509,74.0,0,33,0.0,63.0
1510,71.0,1,33,1.0,62.0
1511,74.0,5,34,4.0,62.0
1512,72.0,22,21,5.0,56.0
1513,72.0,3,21,0.0,62.0
1514,69.0,1,20,1.0,60.0
1515,72.0,1,19,4.0,57.0
1516,62.0,2,72,6.0,87.0
1517,74.0,19,22,5.0,58.0
1518,66.0,13,83,2.0,74.0
1519,71.0,1,22,1.0,66.0
1520,74.0,2,24,0.0,59.0
1521,62.0,6,82,3.0,87.0
1522,74.0,2,23,4.0,63.0
1523,72.0,13,18,5.0,60.0
1524,72.0,4,18,0.0,68.0
1525,69.0,0,18,1.0,57.0
1526,72.0,4,17,4.0,58.0
1527,74.0,12,17,5.0,59.0
1528,71.0,3,16,1.0,68.0
1529,74.0,2,20,0.0,59.0
1530,74.0,3,18,4.0,62.0
1531,72.0,7,13,5.0,54.0
1532,72.0,3,15,0.0,66.0
1533,69.0,1,15,1.0,60.0
1534,72.0,4,13,4.0,58.0
1535,74.0,7,27,5.0,66.0
1536,74.0,4,26,0.0,68.0
1537,74.0,3,25,4.0,68.0
1538,71.0,2,30,1.0,70.0
1539,72.0,9,28,5.0,64.0
1540,72.0,2,34,0.0,66.0
1541,69.0,7,30,1.0,53.0
1542,72.0,0,32,4.0,60.0
1543,71.0,18,38,5.0,64.0
1544,71.0,4,39,0.0,68.0
1545,71.0,1,39,4.0,58.0
1546,67.0,1,41,1.0,58.0
1547,60.0,6,34,3.0,80.0
1548,69.0,0,36,2.0,80.0
1549,60.0,3,38,6.0,66.0
1550,72.0,12,33,5.0,59.0
1551,72.0,3,32,0.0,78.0
1552,72.0,2,33,4.0,68.0
1553,69.0,1,35,1.0,66.0
1554,74.0,4,265,4.0,78.0
1555,74.0,26,280,5.0,78.0
1556,74.0,8,290,0.0,85.0
1557,76.0,281,42,4.0,61.0
1558,76.0,5,37,5.0,66.0
1559,76.0,6,43,0.0,64.0
1560,71.0,1,358,1.0,80.0
1561,74.0,13,45,4.0,70.0
1562,74.0,2,46,5.0,68.0
1563,74.0,9,47,0.0,66.0
1564,72.0,2,33,5.0,60.0
1565,72.0,16,35,4.0,58.0
1566,71.0,0,22,5.0,60.0
1567,72.0,7,35,0.0,66.0
1568,71.0,13,24,4.0,66.0
1569,71.0,10,23,0.0,64.0
1570,69.0,10,26,5.0,68.0
1571,69.0,0,27,4.0,74.0
1572,69.0,8,26,0.0,82.0
1573,67.0,11,30,5.0,64.0
1574,67.0,4,29,4.0,68.0
1575,67.0,3,33,0.0,66.0
1576,74.0,7,34,1.0,87.0
1577,65.0,9,33,5.0,68.0
1578,65.0,3,33,4.0,64.0
1579,65.0,5,32,0.0,78.0
1580,64.0,2,32,5.0,66.0
1581,64.0,20,36,4.0,72.0
1582,64.0,5,37,0.0,82.0
1583,59.0,6,498,6.0,70.0
1584,59.0,1,510,3.0,82.0
1585,67.0,2,553,2.0,80.0
1586,57.0,5,38,6.0,62.0
1587,57.0,52,43,3.0,70.0
1588,55.0,55,45,3.0,72.0
1589,59.0,5,44,2.0,82.0
1590,55.0,1,44,6.0,59.0
1591,57.0,52,39,3.0,80.0
1592,57.0,1,34,6.0,70.0
1593,60.0,7,38,2.0,68.0
1594,59.0,2,40,6.0,68.0
1595,62.0,6,39,2.0,85.0
1596,59.0,56,48,3.0,82.0
1597,59.0,1,36,2.0,70.0
1598,55.0,50,44,6.0,66.0
1599,55.0,6,41,3.0,82.0
1600,62.0,1,357,1.0,80.0
1601,65.0,18,374,4.0,82.0
1602,65.0,5,374,5.0,60.0
1603,57.0,56,33,6.0,76.0
1604,60.0,3,36,2.0,85.0
1605,65.0,4,396,0.0,78.0
1606,57.0,2,37,3.0,82.0
1607,65.0,50,33,4.0,70.0
1608,65.0,1,30,5.0,63.0
1609,62.0,1,33,2.0,82.0
1610,65.0,6,28,0.0,93.0
1611,62.0,0,36,1.0,85.0
1612,59.0,2,45,6.0,68.0
1613,59.0,7,40,3.0,87.0
1614,67.0,54,24,4.0,85.0
1615,67.0,0,24,0.0,87.0
1616,67.0,2,25,5.0,74.0
1617,65.0,12,22,4.0,57.0
1618,65.0,2,22,0.0,66.0
1619,65.0,4,21,5.0,61.0
1620,67.0,15,29,4.0,72.0
1621,67.0,1,29,0.0,68.0
1622,67.0,4,31,5.0,66.0
1623,62.0,1,84,1.0,87.0
1624,65.0,5,54,5.0,66.0
1625,65.0,10,73,4.0,60.0
1626,65.0,4,77,0.0,78.0
1627,64.0,2,31,5.0,59.0
1628,64.0,3,35,4.0,61.0
1629,64.0,3,31,0.0,64.0
1630,55.0,112,40,1.0,72.0
1631,62.0,19,32,5.0,66.0
1632,62.0,2,32,4.0,74.0
1633,62.0,6,28,0.0,80.0
1634,60.0,2,74,1.0,91.0
1635,64.0,28,104,5.0,72.0
1636,64.0,3,105,0.0,87.0
1637,64.0,2,109,4.0,85.0
1638,66.0,168,32,0.0,89.0
1639,66.0,0,31,5.0,70.0
1640,62.0,3,37,1.0,72.0
1641,66.0,0,40,4.0,70.0
1642,48.0,2,488,6.0,70.0
1643,48.0,0,496,3.0,85.0
1644,64.0,2,77,1.0,82.0
1645,47.0,50,46,3.0,82.0
1646,47.0,1,48,6.0,74.0
1647,55.0,2,585,2.0,62.0
1648,48.0,5,46,6.0,76.0
1649,48.0,57,51,3.0,85.0
1650,50.0,0,37,3.0,80.0
1651,50.0,4,39,6.0,70.0
1652,55.0,53,44,2.0,70.0
1653,62.0,6,37,1.0,82.0
1654,52.0,3,40,6.0,70.0
1655,52.0,53,45,3.0,76.0
1656,60.0,1,74,1.0,85.0
1657,60.0,6,79,2.0,82.0
1658,48.0,48,43,3.0,78.0
1659,48.0,6,40,6.0,68.0
1660,67.0,59,368,0.0,87.0
1661,67.0,0,378,4.0,80.0
1662,67.0,6,377,5.0,68.0
1663,50.0,56,39,3.0,87.0
1664,50.0,5,36,6.0,76.0
1665,62.0,50,36,2.0,66.0
1666,67.0,3,29,4.0,89.0
1667,67.0,4,26,5.0,85.0
1668,67.0,1,38,0.0,89.0
1669,52.0,4,43,3.0,82.0
1670,59.0,3,35,1.0,80.0
1671,52.0,2,48,6.0,74.0
1672,69.0,2,23,4.0,82.0
1673,69.0,0,23,5.0,66.0
1674,69.0,1,26,0.0,85.0
1675,67.0,4,23,5.0,63.0
1676,67.0,10,29,4.0,66.0
1677,67.0,2,25,0.0,68.0
1678,69.0,17,29,4.0,64.0
1679,69.0,0,33,0.0,74.0
1680,69.0,3,33,5.0,72.0
1681,67.0,7,64,0.0,76.0
1682,67.0,15,75,4.0,70.0
1683,67.0,1,69,5.0,66.0
1684,64.0,53,141,2.0,82.0
1685,60.0,0,138,1.0,85.0
1686,66.0,106,40,0.0,64.0
1687,66.0,3,41,4.0,63.0
1688,66.0,5,40,5.0,60.0
1689,64.0,17,35,0.0,78.0
1690,64.0,7,32,4.0,64.0
1691,64.0,1,33,5.0,68.0
1692,74.0,0,25,4.0,72.0
1693,74.0,0,27,0.0,87.0
1694,74.0,1,25,5.0,78.0
1695,72.0,1,19,4.0,57.0
1696,72.0,16,23,0.0,82.0
1697,72.0,5,23,5.0,68.0
1698,74.0,1,31,4.0,72.0
1699,74.0,12,34,0.0,85.0
1700,74.0,7,29,5.0,59.0
1701,64.0,31,133,1.0,80.0
1702,72.0,13,75,0.0,80.0
1703,72.0,5,70,5.0,70.0
1704,72.0,3,79,4.0,64.0
1705,57.0,5,139,2.0,76.0
1706,71.0,116,37,5.0,80.0
1707,71.0,1,36,0.0,80.0
1708,71.0,1,38,4.0,74.0
1709,69.0,21,27,5.0,82.0
1710,69.0,3,28,0.0,85.0
1711,69.0,0,29,4.0,78.0
1712,45.0,3,486,6.0,72.0
1713,79.0,27,28,4.0,66.0
1714,45.0,3,499,3.0,85.0
1715,79.0,1,28,5.0,66.0
1716,79.0,2,31,0.0,80.0
1717,78.0,12,21,4.0,72.0
1718,78.0,5,23,5.0,51.0
1719,78.0,2,24,0.0,89.0
1720,79.0,16,34,4.0,72.0
1721,79.0,2,34,0.0,74.0
1722,79.0,2,37,5.0,70.0
1723,43.0,14,50,3.0,76.0
1724,43.0,0,50,6.0,68.0
1725,78.0,4,72,0.0,68.0
1726,78.0,2,71,5.0,57.0
1727,78.0,3,88,4.0,63.0
1728,45.0,53,49,3.0,82.0
1729,45.0,5,45,6.0,74.0
1730,76.0,3,32,0.0,80.0
1731,76.0,3,31,5.0,76.0
1732,47.0,2,36,6.0,64.0
1733,76.0,1,32,4.0,68.0
1734,47.0,54,41,3.0,82.0
1735,74.0,18,26,0.0,91.0
1736,74.0,3,27,5.0,85.0
1737,74.0,3,25,4.0,87.0
1738,69.0,2,268,1.0,82.0
1739,48.0,0,35,6.0,66.0
1740,48.0,2,43,3.0,80.0
1741,60.0,2,292,2.0,80.0
1742,81.0,27,96,0.0,85.0
1743,47.0,0,50,6.0,70.0
1744,81.0,4,106,5.0,76.0
1745,47.0,52,57,3.0,66.0
1746,81.0,0,110,4.0,78.0
1747,48.0,64,45,3.0,82.0
1748,48.0,6,39,6.0,82.0
1749,72.0,2,25,5.0,80.0
1750,72.0,0,27,4.0,78.0
1751,72.0,3,33,0.0,82.0
1752,57.0,43,39,2.0,76.0
1753,50.0,5,34,6.0,66.0
1754,50.0,1,41,3.0,82.0
1755,66.0,2,45,1.0,72.0
1756,72.0,0,120,5.0,89.0
1757,67.0,57,121,1.0,82.0
1758,52.0,0,118,3.0,66.0
1759,72.0,0,125,0.0,78.0
1760,72.0,2,124,4.0,78.0
1761,52.0,0,124,6.0,68.0
1762,66.0,44,41,1.0,58.0
1763,71.0,1,163,4.0,66.0
1764,71.0,112,170,5.0,58.0
1765,71.0,6,170,0.0,68.0
1766,67.0,64,98,1.0,70.0
1767,64.0,2,341,2.0,91.0
1768,69.0,3,45,4.0,85.0
1769,69.0,5,42,0.0,82.0
1770,69.0,56,51,5.0,66.0
1771,64.0,3,124,3.0,87.0
1772,64.0,10,134,6.0,66.0
1773,67.0,1,39,4.0,66.0
1774,67.0,49,42,5.0,64.0
1775,67.0,5,38,0.0,72.0
1776,59.0,47,37,2.0,70.0
1777,69.0,1,39,1.0,74.0
1778,66.0,1,43,5.0,64.0
1779,66.0,0,44,4.0,66.0
1780,66.0,5,47,0.0,89.0
1781,67.0,56,46,5.0,68.0
1782,67.0,2,46,4.0,72.0
1783,67.0,1,54,0.0,82.0
1784,64.0,2,87,2.0,89.0
1785,71.0,1,90,1.0,85.0
1786,62.0,49,41,5.0,60.0
1787,62.0,2,47,4.0,74.0
1788,62.0,5,47,0.0,82.0
1789,62.0,4,117,3.0,82.0
1790,62.0,3,125,6.0,70.0
1791,64.0,54,44,5.0,59.0
1792,64.0,2,42,4.0,72.0
1793,64.0,2,50,0.0,68.0
1794,72.0,49,35,1.0,80.0
1795,62.0,3,35,2.0,80.0
1796,66.0,1,41,4.0,80.0
1797,66.0,3,49,5.0,60.0
1798,66.0,2,44,0.0,82.0
1799,67.0,0,48,4.0,68.0
1800,67.0,0,52,0.0,80.0
1801,67.0,2,55,5.0,72.0
1802,64.0,3,77,2.0,85.0
1803,71.0,1,91,1.0,82.0
1804,69.0,56,45,4.0,85.0
1805,69.0,3,43,5.0,76.0
1806,69.0,1,50,0.0,87.0
1807,60.0,0,125,3.0,80.0
1808,60.0,54,131,6.0,66.0
1809,71.0,58,47,4.0,78.0
1810,71.0,0,47,0.0,82.0
1811,71.0,4,44,5.0,72.0
1812,60.0,48,39,2.0,68.0
1813,69.0,3,34,1.0,70.0
1814,72.0,4,44,4.0,72.0
1815,72.0,4,39,5.0,72.0
1816,72.0,1,51,0.0,85.0
1817,67.0,0,108,1.0,72.0
1818,59.0,4,118,3.0,87.0
1819,59.0,1,127,6.0,68.0
1820,67.0,170,43,1.0,70.0
1821,74.0,2,265,0.0,87.0
1822,74.0,54,268,4.0,76.0
1823,74.0,2,277,5.0,76.0
1824,69.0,4,83,1.0,87.0
1825,72.0,40,46,0.0,89.0
1826,72.0,4,45,4.0,76.0
1827,72.0,6,42,5.0,80.0
1828,67.0,6,336,2.0,85.0
1829,47.0,0,112,3.0,80.0
1830,47.0,64,131,6.0,66.0
1831,74.0,0,35,5.0,74.0
1832,74.0,52,47,0.0,80.0
1833,74.0,4,45,4.0,74.0
1834,76.0,3,33,5.0,78.0
1835,76.0,1,42,4.0,64.0
1836,71.0,1,39,1.0,78.0
1837,62.0,7,33,2.0,76.0
1838,76.0,48,51,0.0,74.0
1839,67.0,56,59,4.0,64.0
1840,67.0,1,58,5.0,64.0
1841,67.0,3,54,0.0,80.0
1842,66.0,0,20,5.0,49.0
1843,66.0,43,21,4.0,60.0
1844,66.0,3,18,0.0,64.0
1845,72.0,0,88,1.0,80.0
1846,69.0,2,80,2.0,85.0
1847,67.0,2,25,4.0,62.0
1848,67.0,16,27,5.0,68.0
1849,67.0,1,25,0.0,80.0
1850,66.0,18,19,5.0,60.0
1851,66.0,1,16,4.0,55.0
1852,66.0,3,22,0.0,80.0
1853,45.0,4,119,3.0,76.0
1854,45.0,3,122,6.0,63.0
1855,67.0,0,23,5.0,74.0
1856,67.0,16,26,4.0,70.0
1857,67.0,0,29,0.0,78.0
1858,74.0,4,42,1.0,80.0
1859,67.0,36,47,2.0,70.0
1860,66.0,4,132,4.0,80.0
1861,66.0,14,144,5.0,64.0
1862,66.0,1,148,0.0,70.0
1863,72.0,2,80,1.0,80.0
1864,69.0,65,87,2.0,85.0
1865,67.0,3,36,5.0,68.0
1866,67.0,61,40,4.0,74.0
1867,67.0,4,42,0.0,82.0
1868,43.0,2,134,3.0,70.0
1869,43.0,4,131,6.0,59.0
1870,69.0,1,41,5.0,68.0
1871,69.0,55,43,4.0,72.0
1872,69.0,0,47,0.0,80.0
1873,71.0,6,31,1.0,80.0
1874,64.0,44,37,2.0,72.0
1875,71.0,2,34,5.0,78.0
1876,71.0,5,36,4.0,72.0
1877,71.0,0,44,0.0,85.0
1878,57.0,0,76,2.0,85.0
1879,69.0,0,83,1.0,87.0
1880,72.0,1,110,0.0,85.0
1881,72.0,59,117,4.0,78.0
1882,72.0,0,133,5.0,74.0
1883,42.0,1,196,3.0,78.0
1884,71.0,162,33,4.0,63.0
1885,42.0,5,205,6.0,61.0
1886,71.0,9,33,0.0,72.0
1887,69.0,1,44,2.0,82.0
1888,71.0,5,33,5.0,72.0
1889,69.0,10,27,4.0,80.0
1890,62.0,0,45,1.0,82.0
1891,69.0,10,28,0.0,76.0
1892,69.0,4,31,5.0,72.0
1893,67.0,2,83,1.0,82.0
1894,62.0,3,83,2.0,87.0
1895,71.0,4,100,5.0,70.0
1896,71.0,1,105,0.0,87.0
1897,71.0,26,118,4.0,85.0
1898,43.0,1,127,3.0,87.0
1899,43.0,4,128,6.0,66.0
1900,72.0,0,31,4.0,68.0
1901,69.0,164,32,1.0,80.0
1902,64.0,1,32,2.0,82.0
1903,72.0,1,34,0.0,82.0
1904,72.0,7,31,5.0,82.0
1905,48.0,2,41,3.0,82.0
1906,48.0,1,35,6.0,66.0
1907,71.0,52,70,0.0,72.0
1908,64.0,2,67,2.0,82.0
1909,71.0,5,70,4.0,85.0
1910,67.0,1,67,1.0,89.0
1911,71.0,0,71,5.0,87.0
1912,69.0,52,29,0.0,63.0
1913,62.0,0,23,2.0,53.0
1914,66.0,2,28,1.0,64.0
1915,69.0,4,33,4.0,52.0
1916,69.0,1,31,5.0,56.0
1917,64.0,3,23,2.0,60.0
1918,71.0,22,31,0.0,70.0
1919,67.0,0,27,1.0,61.0
1920,71.0,1,28,4.0,59.0
1921,71.0,4,31,5.0,64.0
1922,62.0,0,17,2.0,60.0
1923,69.0,19,21,0.0,63.0
1924,66.0,4,17,1.0,63.0
1925,69.0,3,18,4.0,55.0
1926,69.0,4,16,5.0,49.0
1927,64.0,9,17,2.0,70.0
1928,67.0,0,22,1.0,61.0
1929,71.0,2,23,0.0,70.0
1930,71.0,0,23,5.0,61.0
1931,71.0,6,23,4.0,61.0
1932,50.0,0,165,3.0,82.0
1933,62.0,9,17,2.0,64.0
1934,69.0,1,18,0.0,70.0
1935,66.0,5,20,1.0,80.0
1936,69.0,6,17,4.0,61.0
1937,69.0,2,15,5.0,58.0
1938,64.0,4,23,2.0,85.0
1939,67.0,6,21,1.0,68.0
1940,71.0,1,20,0.0,82.0
1941,71.0,0,17,4.0,74.0
1942,71.0,5,20,5.0,64.0
1943,50.0,3,198,6.0,74.0
1944,69.0,3,19,0.0,74.0
1945,69.0,1,18,4.0,68.0
1946,69.0,3,19,5.0,64.0
1947,66.0,3,25,1.0,70.0
1948,71.0,13,23,0.0,85.0
1949,62.0,7,51,2.0,59.0
1950,71.0,1,25,5.0,74.0
1951,67.0,2,28,1.0,76.0
1952,71.0,2,27,4.0,85.0
1953,66.0,1,114,1.0,80.0
1954,69.0,13,128,0.0,87.0
1955,69.0,3,123,4.0,72.0
1956,69.0,3,130,5.0,80.0
1957,38.0,4,150,3.0,95.0
1958,38.0,6,152,6.0,70.0
1959,60.0,3,176,2.0,68.0
1960,67.0,0,35,5.0,70.0
1961,67.0,1,37,4.0,80.0
1962,67.0,2,39,1.0,85.0
1963,67.0,159,42,0.0,82.0
1964,67.0,2,49,4.0,82.0
1965,67.0,2,69,0.0,80.0
1966,67.0,3,65,5.0,82.0
1967,43.0,0,88,6.0,78.0
1968,43.0,0,110,3.0,87.0
1969,59.0,68,138,2.0,82.0
1970,62.0,3,131,1.0,76.0
1971,79.0,112,30,0.0,72.0
1972,79.0,3,29,5.0,72.0
1973,79.0,10,34,4.0,82.0
1974,79.0,101,35,0.0,87.0
1975,79.0,7,35,5.0,72.0
1976,79.0,6,38,4.0,80.0
1977,79.0,107,36,0.0,85.0
1978,79.0,11,33,5.0,76.0
1979,79.0,1,37,4.0,80.0
1980,76.0,108,106,0.0,70.0
1981,76.0,1,108,5.0,62.0
1982,76.0,9,114,4.0,66.0
1983,77.0,105,52,0.0,76.0
1984,77.0,7,48,5.0,56.0
1985,77.0,1,49,4.0,66.0
1986,79.0,42,42,0.0,74.0
1987,79.0,2,50,5.0,68.0
1988,79.0,4,52,4.0,68.0
1989,81.0,53,36,0.0,82.0
1990,81.0,6,33,4.0,68.0
1991,81.0,8,42,5.0,76.0
1992,77.0,106,37,0.0,82.0
1993,77.0,5,38,4.0,76.0
1994,77.0,14,45,5.0,78.0
1995,74.0,106,38,0.0,68.0
1996,74.0,13,41,5.0,68.0
1997,74.0,7,38,4.0,70.0
1998,79.0,101,43,0.0,74.0
1999,79.0,15,38,5.0,82.0
2000,79.0,3,43,4.0,85.0
2001,67.0,110,55,0.0,70.0
2002,67.0,3,58,5.0,66.0
2003,67.0,9,51,4.0,68.0
2004,77.0,117,43,0.0,80.0
2005,77.0,2,48,5.0,80.0
2006,77.0,5,45,4.0,82.0
2007,76.0,0,60,4.0,74.0
2008,76.0,117,61,0.0,85.0
2009,76.0,6,62,5.0,72.0
2010,74.0,4,50,0.0,66.0
2011,74.0,45,60,4.0,66.0
2012,74.0,6,54,5.0,63.0
2013,72.0,54,36,1.0,74.0
2014,72.0,1,65,0.0,66.0
2015,72.0,3,62,5.0,64.0
2016,72.0,2,69,4.0,63.0
2017,74.0,48,59,0.0,60.0
2018,74.0,4,55,5.0,63.0
2019,74.0,4,60,4.0,72.0
2020,72.0,0,42,1.0,80.0
2021,76.0,54,51,0.0,78.0
2022,76.0,2,47,4.0,62.0
2023,76.0,8,49,5.0,68.0
2024,74.0,4,54,5.0,68.0
2025,74.0,47,64,0.0,64.0
2026,74.0,1,61,4.0,64.0
2027,72.0,0,38,1.0,87.0
2028,76.0,54,48,0.0,61.0
2029,76.0,3,53,5.0,57.0
2030,76.0,8,60,4.0,59.0
2031,78.0,40,43,0.0,63.0
2032,78.0,6,41,5.0,58.0
2033,78.0,3,49,4.0,55.0
2034,79.0,5,97,4.0,74.0
2035,79.0,5,107,5.0,74.0
2036,71.0,3,120,1.0,87.0
2037,79.0,58,130,0.0,70.0
2038,72.0,106,48,1.0,63.0
2039,74.0,49,49,1.0,70.0
2040,74.0,17,35,0.0,68.0
2041,74.0,7,31,5.0,64.0
2042,74.0,4,32,4.0,57.0
2043,76.0,38,43,1.0,82.0
2044,79.0,14,116,0.0,82.0
2045,79.0,8,109,4.0,85.0
2046,79.0,1,111,5.0,85.0
2047,72.0,100,44,1.0,80.0
2048,79.0,69,26,0.0,72.0
2049,79.0,3,28,5.0,61.0
2050,79.0,1,31,4.0,70.0
2051,69.0,52,45,1.0,72.0
2052,79.0,2,105,0.0,89.0
2053,79.0,3,101,5.0,87.0
2054,79.0,7,107,4.0,85.0
2055,74.0,108,44,1.0,80.0
2056,78.0,42,37,0.0,64.0
2057,78.0,4,39,4.0,64.0
2058,78.0,6,36,5.0,61.0
2059,76.0,24,40,0.0,60.0
2060,78.0,22,19,0.0,54.0
2061,76.0,8,41,4.0,66.0
2062,76.0,0,41,5.0,61.0
2063,78.0,6,23,4.0,53.0
2064,78.0,0,27,5.0,58.0
2065,79.0,9,36,0.0,68.0
2066,62.0,8,48,1.0,78.0
2067,79.0,11,36,4.0,61.0
2068,79.0,4,39,5.0,70.0
2069,78.0,12,28,0.0,76.0
2070,78.0,13,29,5.0,68.0
2071,78.0,2,28,4.0,64.0
2072,79.0,11,44,0.0,80.0
2073,79.0,14,46,5.0,72.0
2074,79.0,4,45,4.0,72.0
2075,78.0,7,54,0.0,68.0
2076,78.0,20,44,5.0,50.0
2077,78.0,2,46,4.0,58.0
2078,72.0,9,42,1.0,80.0
2079,79.0,60,33,0.0,70.0
2080,79.0,1,31,4.0,72.0
2081,79.0,6,32,5.0,72.0
2082,71.0,1,58,1.0,100.0
2083,79.0,0,90,5.0,82.0
2084,79.0,2,100,0.0,82.0
2085,79.0,58,106,4.0,87.0
2086,69.0,53,53,1.0,72.0
2087,67.0,59,40,2.0,80.0
2088,77.0,4,57,5.0,64.0
2089,77.0,3,55,0.0,68.0
2090,67.0,2,64,1.0,63.0
2091,77.0,3,55,4.0,64.0
2092,69.0,44,51,1.0,58.0
2093,76.0,8,42,4.0,61.0
2094,76.0,1,53,0.0,62.0
2095,76.0,2,55,5.0,58.0
2096,74.0,1,33,0.0,62.0
2097,74.0,52,45,5.0,62.0
2098,67.0,2,43,2.0,82.0
2099,74.0,2,59,4.0,62.0
2100,71.0,2,59,1.0,80.0
2101,71.0,40,53,0.0,70.0
2102,71.0,6,50,5.0,57.0
2103,71.0,6,56,4.0,78.0
2104,67.0,2,57,1.0,68.0
2105,72.0,42,43,0.0,66.0
2106,72.0,5,52,5.0,64.0
2107,67.0,2,42,2.0,80.0
2108,72.0,7,49,4.0,55.0
2109,69.0,5,55,1.0,59.0
2110,71.0,1,36,1.0,70.0
2111,74.0,0,45,5.0,68.0
2112,74.0,44,49,0.0,70.0
2113,74.0,8,47,4.0,66.0
2114,67.0,4,40,4.0,63.0
2115,67.0,6,53,0.0,82.0
2116,67.0,54,59,5.0,64.0
2117,72.0,6,98,1.0,80.0
2118,64.0,2,110,2.0,80.0
2119,79.0,1,35,0.0,74.0
2120,79.0,6,38,5.0,70.0
2121,79.0,2,36,4.0,74.0
2122,65.0,113,51,2.0,64.0
2123,67.0,43,34,1.0,57.0
2124,67.0,3,44,2.0,80.0
2125,69.0,63,37,2.0,85.0
2126,76.0,4,36,0.0,68.0
2127,76.0,2,35,5.0,74.0
2128,76.0,7,36,4.0,70.0
2129,72.0,5,107,1.0,93.0
2130,65.0,98,48,2.0,66.0
2131,81.0,12,46,0.0,82.0
2132,81.0,3,46,5.0,80.0
2133,81.0,10,44,4.0,82.0
2134,72.0,35,32,1.0,68.0
2135,62.0,69,47,2.0,82.0
2136,72.0,3,62,1.0,89.0
2137,77.0,3,61,5.0,82.0
2138,77.0,8,64,0.0,95.0
2139,77.0,2,61,4.0,82.0
2140,71.0,48,52,1.0,76.0
2141,79.0,1,55,0.0,70.0
2142,79.0,4,53,5.0,60.0
2143,79.0,3,53,4.0,68.0
2144,67.0,2,40,2.0,89.0
2145,69.0,45,66,1.0,68.0
2146,77.0,1,58,0.0,60.0
2147,77.0,7,63,4.0,59.0
2148,77.0,4,58,5.0,52.0
2149,71.0,40,28,1.0,68.0
2150,76.0,3,50,5.0,49.0
2151,76.0,15,56,4.0,51.0
2152,76.0,3,54,0.0,52.0
2153,72.0,44,35,1.0,87.0
2154,55.0,7,52,2.0,80.0
2155,71.0,9,39,1.0,68.0
2156,74.0,5,56,4.0,61.0
2157,74.0,2,62,0.0,62.0
2158,74.0,3,60,5.0,58.0
2159,72.0,30,45,1.0,66.0
2160,77.0,12,65,4.0,59.0
2161,71.0,9,49,1.0,63.0
2162,77.0,5,69,0.0,66.0
2163,77.0,6,68,5.0,59.0
2164,65.0,36,46,2.0,74.0
2165,76.0,8,53,4.0,51.0
2166,76.0,1,55,0.0,61.0
2167,76.0,8,55,5.0,51.0
2168,72.0,35,30,1.0,64.0
2169,74.0,12,37,0.0,57.0
2170,74.0,1,48,4.0,62.0
2171,74.0,7,43,5.0,59.0
2172,64.0,4,62,2.0,89.0
2173,79.0,5,67,0.0,93.0
2174,79.0,1,63,4.0,82.0
2175,79.0,3,71,5.0,70.0
2176,72.0,49,98,1.0,87.0
2177,77.0,46,58,0.0,76.0
2178,77.0,2,60,4.0,68.0
2179,62.0,8,59,2.0,78.0
2180,77.0,1,75,5.0,57.0
2181,60.0,3,29,3.0,70.0
2182,60.0,54,39,6.0,85.0
2183,67.0,1,50,1.0,70.0
2184,76.0,1,62,0.0,60.0
2185,76.0,1,58,5.0,57.0
2186,60.0,0,58,2.0,70.0
2187,76.0,2,61,4.0,53.0
2188,65.0,48,44,1.0,60.0
2189,74.0,1,41,5.0,58.0
2190,62.0,3,50,2.0,68.0
2191,74.0,0,53,0.0,52.0
2192,74.0,0,61,4.0,56.0
2193,60.0,59,40,6.0,80.0
2194,67.0,0,40,1.0,85.0
2195,60.0,4,36,3.0,85.0
2196,64.0,1,48,2.0,80.0
2197,72.0,0,48,0.0,52.0
2198,72.0,3,54,4.0,60.0
2199,72.0,0,56,5.0,68.0
2200,71.0,0,43,0.0,41.0
2201,71.0,3,53,4.0,51.0
2202,71.0,3,53,5.0,51.0
2203,62.0,46,63,2.0,78.0
2204,72.0,49,50,0.0,57.0
2205,76.0,3,37,1.0,95.0
2206,60.0,0,36,6.0,78.0
2207,72.0,2,42,4.0,54.0
2208,72.0,9,53,5.0,66.0
2209,60.0,3,46,3.0,82.0
2210,64.0,1,58,2.0,70.0
2211,69.0,43,36,0.0,59.0
2212,66.0,5,40,2.0,68.0
2213,69.0,3,42,4.0,60.0
2214,69.0,5,45,5.0,68.0
2215,74.0,1,66,1.0,93.0
2216,74.0,51,90,0.0,66.0
2217,67.0,0,101,2.0,87.0
2218,74.0,2,105,4.0,78.0
2219,74.0,2,101,5.0,64.0
2220,59.0,3,111,6.0,85.0
2221,72.0,51,62,1.0,78.0
2222,59.0,6,121,3.0,87.0
2223,76.0,4,42,0.0,62.0
2224,60.0,55,56,3.0,78.0
2225,71.0,2,49,1.0,68.0
2226,76.0,2,48,4.0,59.0
2227,60.0,1,53,6.0,74.0
2228,76.0,7,46,5.0,59.0
2229,62.0,1,28,2.0,64.0
2230,78.0,2,35,0.0,61.0
2231,62.0,39,43,3.0,82.0
2232,62.0,4,36,6.0,78.0
2233,69.0,2,45,1.0,57.0
2234,78.0,1,41,4.0,59.0
2235,78.0,1,42,5.0,62.0
2236,64.0,1,47,3.0,87.0
2237,64.0,2,43,6.0,82.0
2238,67.0,52,64,1.0,76.0
2239,79.0,0,86,5.0,82.0
2240,79.0,0,92,4.0,89.0
2241,79.0,8,101,0.0,82.0
2242,67.0,2,102,2.0,91.0
2243,81.0,2,36,0.0,76.0
2244,60.0,2,48,3.0,82.0
2245,60.0,1,41,6.0,74.0
2246,81.0,5,46,5.0,63.0
2247,81.0,5,42,4.0,63.0
2248,76.0,109,62,1.0,82.0
2249,67.0,2,30,2.0,74.0
2250,83.0,3,31,0.0,80.0
2251,83.0,2,39,5.0,66.0
2252,83.0,2,42,4.0,60.0
2253,74.0,42,48,1.0,74.0
2254,76.0,0,38,1.0,93.0
2255,57.0,4,49,6.0,74.0
2256,57.0,1,54,3.0,85.0
2257,67.0,3,104,2.0,95.0
2258,84.0,55,119,5.0,76.0
2259,84.0,1,119,0.0,82.0
2260,84.0,1,114,4.0,82.0
2261,62.0,1,36,6.0,80.0
2262,62.0,1,41,3.0,85.0
2263,69.0,115,48,1.0,85.0
2264,66.0,29,34,2.0,58.0
2265,83.0,23,28,5.0,78.0
2266,83.0,4,26,0.0,72.0
2267,83.0,7,25,4.0,72.0
2268,64.0,4,36,2.0,58.0
2269,66.0,20,32,2.0,66.0
2270,83.0,24,28,5.0,85.0
2271,83.0,2,28,0.0,91.0
2272,83.0,4,28,4.0,87.0
2273,67.0,4,37,2.0,72.0
2274,50.0,2,51,6.0,82.0
2275,81.0,12,35,0.0,78.0
2276,81.0,2,33,5.0,61.0
2277,50.0,1,58,3.0,82.0
2278,81.0,4,28,4.0,66.0
2279,66.0,10,33,2.0,82.0
2280,74.0,1,67,1.0,95.0
2281,83.0,12,43,5.0,72.0
2282,83.0,4,44,0.0,70.0
2283,83.0,1,37,4.0,72.0
2284,67.0,7,42,2.0,82.0
2285,72.0,2,64,1.0,78.0
2286,66.0,2,57,2.0,70.0
2287,81.0,17,73,5.0,62.0
2288,81.0,3,73,0.0,66.0
2289,81.0,6,66,4.0,64.0
2290,60.0,4,41,6.0,82.0
2291,60.0,0,46,3.0,87.0
2292,71.0,30,68,1.0,68.0
2293,79.0,1,35,4.0,74.0
2294,67.0,45,40,2.0,80.0
2295,79.0,1,29,5.0,74.0
2296,79.0,9,30,0.0,70.0
2297,72.0,10,46,1.0,68.0
2298,59.0,0,55,6.0,89.0
2299,67.0,51,68,2.0,82.0
2300,59.0,1,59,3.0,82.0
2301,69.0,43,56,2.0,82.0
2302,79.0,3,103,0.0,85.0
2303,57.0,12,52,3.0,78.0
2304,57.0,2,50,6.0,68.0
2305,79.0,3,115,5.0,85.0
2306,79.0,3,124,4.0,85.0
2307,71.0,40,55,2.0,70.0
2308,77.0,3,46,0.0,68.0
2309,77.0,1,49,5.0,60.0
2310,77.0,9,42,4.0,63.0
2311,55.0,13,67,3.0,68.0
2312,55.0,6,64,6.0,64.0
2313,76.0,4,32,0.0,60.0
2314,72.0,24,50,2.0,72.0
2315,76.0,0,35,5.0,58.0
2316,76.0,3,41,4.0,53.0
2317,57.0,4,45,6.0,63.0
2318,57.0,13,53,3.0,66.0
2319,74.0,0,255,1.0,76.0
2320,74.0,46,46,2.0,100.0
2321,74.0,6,58,0.0,64.0
2322,74.0,2,53,5.0,60.0
2323,59.0,1,56,6.0,85.0
2324,74.0,2,59,4.0,54.0
2325,59.0,4,67,3.0,87.0
2326,71.0,1,41,1.0,82.0
2327,55.0,0,51,6.0,72.0
2328,55.0,4,57,3.0,80.0
2329,76.0,4,62,0.0,70.0
2330,76.0,0,60,4.0,62.0
2331,76.0,43,74,5.0,66.0
2332,72.0,0,36,1.0,85.0
2333,67.0,51,44,2.0,85.0
2334,77.0,0,46,0.0,72.0
2335,77.0,3,44,4.0,68.0
2336,77.0,1,49,5.0,64.0
2337,57.0,4,56,6.0,63.0
2338,57.0,1,63,3.0,66.0
2339,59.0,47,43,3.0,72.0
2340,74.0,2,37,1.0,82.0
2341,59.0,1,42,6.0,72.0
2342,74.0,4,46,0.0,57.0
2343,74.0,0,50,5.0,60.0
2344,74.0,6,45,4.0,62.0
2345,60.0,56,55,3.0,80.0
2346,60.0,2,53,6.0,80.0
2347,76.0,1,50,5.0,64.0
2348,76.0,3,52,4.0,70.0
2349,76.0,2,57,0.0,76.0
2350,79.0,1,58,0.0,60.0
2351,79.0,4,59,4.0,62.0
2352,79.0,52,64,5.0,55.0
2353,67.0,0,129,1.0,87.0
2354,72.0,0,148,2.0,72.0
2355,55.0,55,46,6.0,78.0
2356,55.0,0,48,3.0,82.0
2357,77.0,3,52,0.0,52.0
2358,77.0,5,56,5.0,44.0
2359,77.0,0,60,4.0,52.0
2360,74.0,48,37,1.0,82.0
2361,79.0,5,47,0.0,59.0
2362,79.0,1,55,5.0,70.0
2363,79.0,3,50,4.0,58.0
2364,81.0,0,62,5.0,74.0
2365,81.0,1,65,0.0,80.0
2366,81.0,6,61,4.0,80.0
2367,72.0,0,74,1.0,82.0
2368,79.0,49,57,0.0,64.0
2369,64.0,48,127,2.0,85.0
2370,71.0,2,57,1.0,82.0
2371,79.0,1,58,4.0,64.0
2372,79.0,1,62,5.0,61.0
2373,60.0,10,134,3.0,89.0
2374,60.0,1,141,6.0,82.0
2375,69.0,2,51,1.0,58.0
2376,77.0,57,59,0.0,56.0
2377,77.0,0,60,4.0,59.0
2378,77.0,5,64,5.0,50.0
2379,64.0,38,41,2.0,68.0
2380,60.0,3,26,6.0,80.0
2381,67.0,11,36,1.0,61.0
2382,60.0,3,32,3.0,78.0
2383,76.0,2,45,4.0,60.0
2384,76.0,1,54,0.0,57.0
2385,76.0,5,57,5.0,52.0
2386,69.0,47,50,2.0,89.0
2387,60.0,3,42,6.0,80.0
2388,74.0,4,62,4.0,72.0
2389,60.0,2,53,3.0,85.0
2390,74.0,1,61,0.0,64.0
2391,74.0,2,55,5.0,61.0
2392,59.0,0,39,6.0,76.0
2393,59.0,2,48,3.0,85.0
2394,77.0,2,59,4.0,64.0
2395,77.0,46,65,0.0,59.0
2396,65.0,3,128,1.0,82.0
2397,77.0,6,67,5.0,58.0
2398,60.0,51,42,6.0,76.0
2399,60.0,2,46,3.0,80.0
2400,57.0,0,55,2.0,78.0
2401,76.0,5,55,0.0,44.0
2402,76.0,2,63,4.0,44.0
2403,76.0,7,59,5.0,44.0
2404,72.0,0,33,1.0,72.0
2405,57.0,0,42,3.0,68.0
2406,57.0,40,50,6.0,64.0
2407,77.0,0,48,0.0,59.0
2408,77.0,8,50,5.0,59.0
2409,77.0,8,61,4.0,54.0
2410,79.0,3,55,4.0,72.0
2411,79.0,3,60,0.0,82.0
2412,79.0,4,61,5.0,57.0
2413,71.0,4,79,1.0,76.0
2414,77.0,47,62,4.0,62.0
2415,77.0,0,63,0.0,64.0
2416,69.0,1,67,1.0,60.0
2417,77.0,3,64,5.0,64.0
2418,62.0,50,140,2.0,87.0
2419,59.0,0,135,6.0,82.0
2420,59.0,0,142,3.0,87.0
2421,67.0,0,52,1.0,60.0
2422,76.0,1,58,0.0,58.0
2423,76.0,2,57,5.0,63.0
2424,76.0,60,63,4.0,57.0
2425,59.0,1,32,3.0,80.0
2426,59.0,4,29,6.0,68.0
2427,62.0,53,39,2.0,64.0
2428,65.0,0,44,1.0,56.0
2429,74.0,3,46,5.0,59.0
2430,74.0,0,48,0.0,54.0
2431,74.0,0,55,4.0,57.0
2432,59.0,1,41,6.0,80.0
2433,59.0,3,42,3.0,93.0
2434,72.0,1,44,4.0,60.0
2435,67.0,1,48,2.0,93.0
2436,72.0,52,54,0.0,66.0
2437,72.0,1,48,5.0,59.0
2438,76.0,46,63,0.0,60.0
2439,76.0,7,66,5.0,58.0
2440,64.0,2,122,1.0,82.0
2441,76.0,5,64,4.0,63.0
2442,52.0,1,45,3.0,89.0
2443,52.0,4,47,6.0,78.0
2444,55.0,3,55,2.0,89.0
2445,74.0,0,59,0.0,39.0
2446,74.0,55,63,5.0,52.0
2447,74.0,0,64,4.0,55.0
2448,71.0,2,28,1.0,80.0
2449,76.0,48,44,0.0,57.0
2450,76.0,1,49,4.0,60.0
2451,76.0,4,60,5.0,60.0
2452,77.0,55,61,0.0,74.0
2453,77.0,2,59,5.0,60.0
2454,77.0,4,61,4.0,78.0
2455,69.0,2,83,1.0,95.0
2456,76.0,42,64,0.0,60.0
2457,76.0,0,65,5.0,58.0
2458,76.0,5,67,4.0,66.0
2459,67.0,17,60,1.0,76.0
2460,60.0,3,134,2.0,74.0
2461,57.0,1,142,6.0,85.0
2462,57.0,2,148,3.0,89.0
2463,74.0,42,59,0.0,58.0
2464,74.0,2,59,5.0,58.0
2465,74.0,1,61,4.0,57.0
2466,65.0,12,52,1.0,63.0
2467,60.0,1,33,2.0,57.0
2468,57.0,0,30,6.0,70.0
2469,57.0,2,30,3.0,87.0
2470,64.0,0,36,1.0,60.0
2471,72.0,0,53,0.0,57.0
2472,72.0,44,59,5.0,53.0
2473,72.0,7,51,4.0,57.0
2474,71.0,3,43,5.0,52.0
2475,65.0,6,50,2.0,78.0
2476,71.0,52,60,0.0,59.0
2477,71.0,2,51,4.0,60.0
2478,57.0,3,52,3.0,91.0
2479,57.0,0,56,6.0,87.0
2480,55.0,1,45,3.0,76.0
2481,55.0,3,50,6.0,78.0
2482,74.0,2,63,0.0,60.0
2483,74.0,43,68,5.0,62.0
2484,74.0,4,67,4.0,68.0
2485,62.0,1,121,1.0,82.0
2486,57.0,49,42,3.0,64.0
2487,57.0,4,47,6.0,72.0
2488,72.0,0,62,5.0,52.0
2489,53.0,12,49,2.0,78.0
2490,72.0,0,63,0.0,42.0
2491,72.0,1,70,4.0,48.0
2492,53.0,29,38,3.0,78.0
2493,69.0,1,31,1.0,82.0
2494,74.0,2,48,0.0,60.0
2495,74.0,0,52,5.0,60.0
2496,53.0,14,56,6.0,63.0
2497,74.0,6,52,4.0,59.0
2498,76.0,2,55,5.0,53.0
2499,76.0,8,61,0.0,72.0
2500,76.0,1,56,4.0,68.0
2501,67.0,7,79,1.0,91.0
2502,74.0,40,63,0.0,60.0
2503,74.0,3,63,5.0,58.0
2504,74.0,5,68,4.0,68.0
2505,65.0,2,70,1.0,70.0
2506,55.0,44,148,3.0,76.0
2507,59.0,3,131,2.0,82.0
2508,55.0,1,145,6.0,70.0
2509,72.0,49,56,0.0,58.0
2510,72.0,1,52,5.0,55.0
2511,64.0,12,55,1.0,66.0
2512,72.0,1,58,4.0,59.0
2513,55.0,2,32,6.0,82.0
2514,62.0,5,36,1.0,60.0
2515,55.0,2,35,3.0,80.0
2516,71.0,46,49,0.0,43.0
2517,59.0,5,41,2.0,63.0
2518,71.0,2,58,5.0,52.0
2519,71.0,0,61,4.0,55.0
2520,55.0,2,39,3.0,89.0
2521,55.0,9,43,6.0,80.0
2522,69.0,42,58,0.0,58.0
2523,64.0,0,46,2.0,93.0
2524,69.0,1,48,5.0,56.0
2525,69.0,7,51,4.0,64.0
2526,72.0,34,66,0.0,55.0
2527,72.0,1,53,5.0,60.0
2528,72.0,22,58,4.0,58.0
2529,60.0,1,136,1.0,82.0
2530,48.0,3,47,6.0,85.0
2531,52.0,2,55,2.0,87.0
2532,48.0,0,52,3.0,100.0
2533,71.0,45,69,0.0,39.0
2534,71.0,10,66,5.0,41.0
2535,71.0,1,64,4.0,36.0
2536,72.0,42,41,0.0,57.0
2537,67.0,10,35,1.0,68.0
2538,72.0,4,45,5.0,53.0
2539,72.0,0,51,4.0,60.0
2540,74.0,46,69,0.0,64.0
2541,74.0,1,57,5.0,56.0
2542,74.0,1,68,4.0,55.0
2543,65.0,0,75,1.0,78.0
2544,64.0,4,55,1.0,68.0
2545,72.0,40,73,0.0,64.0
2546,72.0,4,70,4.0,63.0
2547,72.0,5,72,5.0,63.0
2548,57.0,1,129,2.0,85.0
2549,53.0,12,144,6.0,80.0
2550,53.0,3,148,3.0,89.0
2551,62.0,10,43,1.0,66.0
2552,71.0,3,44,4.0,58.0
2553,71.0,0,47,5.0,55.0
2554,71.0,47,61,0.0,57.0
2555,57.0,4,29,2.0,64.0
2556,60.0,2,40,1.0,64.0
2557,53.0,5,29,6.0,82.0
2558,53.0,5,27,3.0,78.0
2559,69.0,47,62,0.0,60.0
2560,69.0,5,55,4.0,64.0
2561,69.0,0,59,5.0,68.0
2562,71.0,44,36,0.0,64.0
2563,71.0,3,39,4.0,70.0
2564,67.0,4,58,1.0,80.0
2565,71.0,4,52,5.0,60.0
2566,53.0,1,48,6.0,89.0
2567,53.0,2,52,3.0,91.0
2568,62.0,3,60,2.0,80.0
2569,60.0,0,51,2.0,64.0
2570,52.0,45,51,6.0,72.0
2571,52.0,3,51,3.0,72.0
2572,79.0,0,31,0.0,64.0
2573,79.0,6,32,5.0,72.0
2574,62.0,5,42,2.0,63.0
2575,53.0,52,50,6.0,66.0
2576,53.0,1,52,3.0,68.0
2577,71.0,2,46,1.0,80.0
2578,79.0,4,39,4.0,82.0
2579,50.0,37,32,6.0,63.0
2580,50.0,3,38,3.0,62.0
2581,59.0,0,49,2.0,78.0
2582,79.0,2,35,0.0,85.0
2583,79.0,8,33,5.0,78.0
2584,79.0,4,40,4.0,87.0
2585,52.0,62,65,6.0,68.0
2586,64.0,6,61,2.0,89.0
2587,52.0,4,64,3.0,85.0
2588,67.0,1,67,1.0,85.0
2589,53.0,32,62,6.0,66.0
2590,53.0,10,55,3.0,64.0
2591,69.0,1,60,1.0,80.0
2592,55.0,46,46,6.0,70.0
2593,62.0,2,40,2.0,85.0
2594,55.0,9,47,3.0,70.0
2595,79.0,7,39,0.0,82.0
2596,79.0,7,37,5.0,68.0
2597,71.0,2,57,1.0,70.0
2598,79.0,11,39,4.0,85.0
2599,67.0,2,39,1.0,72.0
2600,52.0,5,43,3.0,66.0
2601,52.0,23,50,6.0,57.0
2602,57.0,62,66,6.0,76.0
2603,57.0,4,64,3.0,91.0
2604,72.0,2,63,1.0,82.0
2605,58.0,2,52,3.0,78.0
2606,60.0,1,111,2.0,80.0
2607,74.0,4,57,1.0,82.0
2608,76.0,6,118,0.0,80.0
2609,76.0,9,110,5.0,64.0
2610,58.0,33,75,6.0,70.0
2611,76.0,4,110,4.0,85.0
2612,72.0,2,50,1.0,70.0
2613,62.0,1,50,2.0,78.0
2614,77.0,11,53,0.0,74.0
2615,77.0,4,50,5.0,57.0
2616,57.0,57,72,3.0,72.0
2617,57.0,1,73,6.0,70.0
2618,77.0,8,51,4.0,82.0
2619,64.0,22,50,2.0,78.0
2620,70.0,2,49,1.0,57.0
2621,79.0,4,46,5.0,66.0
2622,79.0,3,43,0.0,76.0
2623,55.0,1,54,3.0,60.0
2624,55.0,9,60,6.0,74.0
2625,79.0,14,46,4.0,72.0
2626,81.0,9,35,0.0,85.0
2627,81.0,5,40,5.0,64.0
2628,65.0,1,59,2.0,85.0
2629,81.0,7,39,4.0,80.0
2630,53.0,32,69,3.0,66.0
2631,53.0,3,70,6.0,60.0
2632,69.0,3,54,1.0,89.0
2633,52.0,3,65,6.0,66.0
2634,52.0,31,73,3.0,55.0
2635,77.0,4,38,0.0,85.0
2636,77.0,5,33,5.0,66.0
2637,69.0,5,41,1.0,87.0
2638,65.0,5,47,2.0,82.0
2639,77.0,2,41,4.0,76.0
2640,50.0,59,63,6.0,70.0
2641,50.0,6,66,3.0,64.0
2642,48.0,33,50,6.0,64.0
2643,48.0,10,41,3.0,66.0
2644,74.0,2,38,4.0,78.0
2645,74.0,1,37,0.0,78.0
2646,74.0,5,35,5.0,63.0
2647,67.0,1,49,2.0,87.0
2648,47.0,49,66,6.0,70.0
2649,47.0,13,74,3.0,82.0
2650,74.0,3,64,1.0,85.0
2651,72.0,1,53,1.0,80.0
2652,45.0,38,71,6.0,64.0
2653,45.0,14,64,3.0,80.0
2654,79.0,0,34,0.0,82.0
2655,79.0,52,41,5.0,72.0
2656,64.0,0,34,2.0,64.0
2657,79.0,1,43,4.0,74.0
2658,71.0,0,57,1.0,72.0
2659,62.0,2,59,2.0,64.0
2660,43.0,4,56,6.0,59.0
2661,43.0,5,57,3.0,74.0
2662,72.0,50,47,1.0,64.0
2663,45.0,2,43,3.0,78.0
2664,45.0,5,53,6.0,70.0
2665,67.0,0,49,0.0,80.0
2666,67.0,51,53,2.0,85.0
2667,67.0,0,53,5.0,59.0
2668,67.0,3,52,4.0,72.0
2669,74.0,1,53,1.0,82.0
2670,47.0,0,55,3.0,82.0
2671,47.0,5,59,6.0,68.0
2672,72.0,43,56,1.0,66.0
2673,45.0,0,51,3.0,80.0
2674,45.0,11,53,6.0,74.0
2675,47.0,3,38,6.0,70.0
2676,77.0,2,40,0.0,82.0
2677,47.0,51,49,3.0,66.0
2678,77.0,1,43,4.0,82.0
2679,71.0,2,53,2.0,87.0
2680,74.0,0,53,1.0,72.0
2681,77.0,4,52,5.0,72.0
2682,71.0,5,38,1.0,66.0
2683,43.0,46,50,6.0,57.0
2684,43.0,1,54,3.0,63.0
2685,49.0,55,10,3.0,76.0
2686,48.0,4,49,6.0,76.0
2687,67.0,0,60,2.0,85.0
2688,48.0,1,61,3.0,87.0
2689,72.0,2,113,1.0,82.0
2690,76.0,1,129,0.0,78.0
2691,76.0,6,137,5.0,68.0
2692,76.0,3,140,4.0,80.0
2693,69.0,112,51,2.0,85.0
2694,53.0,5,44,6.0,74.0
2695,53.0,2,53,3.0,89.0
2696,74.0,31,23,1.0,68.0
2697,74.0,20,28,0.0,63.0
2698,74.0,7,25,5.0,59.0
2699,74.0,5,31,4.0,63.0
2700,72.0,34,32,1.0,80.0
2701,76.0,6,28,0.0,74.0
2702,76.0,2,31,4.0,78.0
2703,76.0,1,36,5.0,66.0
2704,62.0,11,49,2.0,80.0
2705,71.0,1,36,1.0,85.0
2706,55.0,1,37,6.0,80.0
2707,55.0,5,50,3.0,91.0
2708,74.0,12,34,0.0,63.0
2709,74.0,2,24,4.0,63.0
2710,72.0,5,38,1.0,70.0
2711,76.0,9,39,0.0,64.0
2712,76.0,9,38,4.0,60.0
2713,76.0,3,38,5.0,63.0
2714,71.0,2,63,1.0,80.0
2715,74.0,11,52,0.0,66.0
2716,74.0,8,70,4.0,70.0
2717,74.0,12,120,5.0,55.0
2718,67.0,31,48,2.0,89.0
2719,43.0,8,42,6.0,72.0
2720,43.0,4,50,3.0,89.0
2721,72.0,40,29,0.0,64.0
2722,72.0,9,33,5.0,66.0
2723,67.0,5,29,1.0,72.0
2724,72.0,3,35,4.0,64.0
2725,48.0,3,58,6.0,66.0
2726,72.0,0,79,5.0,70.0
2727,47.0,44,69,6.0,66.0
2728,67.0,1,131,1.0,89.0
2729,64.0,57,142,2.0,89.0
2730,72.0,0,144,0.0,78.0
2731,48.0,7,141,3.0,93.0
2732,76.0,13,38,5.0,66.0
2733,48.0,60,61,6.0,62.0
2734,72.0,1,166,4.0,72.0
2735,50.0,48,46,6.0,72.0
2736,48.0,59,51,6.0,68.0
2737,76.0,8,43,5.0,64.0
2738,50.0,44,62,6.0,68.0
2739,52.0,63,39,6.0,66.0
2740,76.0,16,34,5.0,78.0
2741,48.0,39,51,6.0,57.0
2742,53.0,68,56,6.0,62.0
2743,55.0,55,47,6.0,60.0
2744,72.0,10,116,5.0,68.0
2745,53.0,62,52,6.0,59.0
2746,74.0,4,53,5.0,66.0
2747,76.0,54,51,5.0,68.0
2748,52.0,1,52,6.0,57.0
2749,77.0,1,38,5.0,64.0
2750,50.0,4,52,6.0,61.0
2751,52.0,56,43,6.0,62.0
2752,74.0,5,40,5.0,66.0
2753,53.0,59,48,6.0,68.0
2754,50.0,51,48,6.0,57.0
2755,52.0,64,49,6.0,66.0
2756,71.0,4,45,5.0,68.0
2757,50.0,50,49,6.0,56.0
2758,76.0,10,36,5.0,72.0
2759,52.0,57,52,6.0,57.0
2760,53.0,52,54,6.0,60.0
2761,81.0,59,486,4.0,60.0
2762,52.0,59,53,6.0,59.0
2763,64.0,8,51,5.0,66.0
2764,50.0,41,55,6.0,59.0
2765,74.0,8,37,5.0,74.0
2766,48.0,69,51,6.0,46.0
2767,47.0,48,54,6.0,52.0
2768,80.0,5,222,4.0,48.0
2769,45.0,67,58,6.0,57.0
2770,81.0,9,67,4.0,57.0
2771,47.0,42,66,6.0,63.0
2772,76.0,2,35,4.0,61.0
2773,48.0,65,56,6.0,57.0
2774,50.0,51,45,6.0,60.0
2775,72.0,8,243,5.0,53.0
2776,76.0,18,38,4.0,80.0
2777,52.0,56,67,6.0,68.0
2778,54.0,37,53,6.0,55.0
2779,56.0,63,55,6.0,63.0
2780,76.0,21,43,4.0,72.0
2781,52.0,35,43,6.0,68.0
2782,57.0,69,48,6.0,68.0
2783,55.0,45,50,6.0,60.0
2784,72.0,17,111,4.0,78.0
2785,53.0,59,52,6.0,59.0
2786,74.0,21,49,4.0,72.0
2787,52.0,43,42,6.0,58.0
2788,76.0,4,47,4.0,68.0
2789,77.0,1,41,4.0,70.0
2790,50.0,56,54,6.0,60.0
2791,52.0,56,46,6.0,62.0
2792,53.0,55,46,6.0,58.0
2793,74.0,14,47,4.0,80.0
2794,50.0,44,49,6.0,59.0
2795,71.0,9,47,4.0,68.0
2796,52.0,64,57,6.0,61.0
2797,50.0,48,46,6.0,53.0
2798,76.0,9,38,4.0,76.0
2799,52.0,63,54,6.0,60.0
2800,53.0,51,40,6.0,64.0
2801,81.0,4,472,5.0,57.0
2802,52.0,1,46,6.0,68.0
2803,64.0,8,48,4.0,68.0
2804,50.0,48,56,6.0,61.0
2805,48.0,63,46,6.0,57.0
2806,74.0,6,46,4.0,80.0
2807,47.0,53,49,6.0,64.0
2808,80.0,61,233,5.0,52.0
2809,72.0,62,59,4.0,72.0
2810,45.0,11,57,6.0,74.0
2811,71.0,37,67,4.0,59.0
2812,57.0,14,37,6.0,74.0
2813,81.0,2,162,5.0,57.0
2814,69.0,70,68,4.0,58.0
2815,71.0,43,66,4.0,55.0
2816,57.0,6,40,6.0,82.0
2817,72.0,0,49,4.0,62.0
2818,71.0,55,62,4.0,60.0
2819,57.0,0,37,6.0,85.0
2820,72.0,64,55,4.0,58.0
2821,74.0,55,57,4.0,60.0
2822,71.0,61,56,4.0,66.0
2823,55.0,4,98,6.0,82.0
2824,74.0,51,55,4.0,60.0
2825,57.0,63,44,6.0,64.0
2826,72.0,3,59,4.0,57.0
2827,77.0,62,445,5.0,60.0
2828,59.0,54,40,6.0,59.0
2829,74.0,0,64,4.0,64.0
2830,60.0,4,43,6.0,85.0
2831,76.0,62,61,4.0,68.0
2832,79.0,54,64,4.0,68.0
2833,57.0,9,43,6.0,80.0
2834,78.0,60,65,4.0,55.0
2835,79.0,56,50,4.0,68.0
2836,54.0,61,44,6.0,66.0
2837,81.0,3,62,4.0,62.0
2838,79.0,52,52,4.0,59.0
2839,59.0,6,42,6.0,80.0
2840,78.0,57,60,4.0,54.0
2841,76.0,0,427,5.0,51.0
2842,79.0,47,65,4.0,61.0
2843,81.0,62,52,4.0,66.0
2844,47.0,2,51,6.0,74.0
2845,83.0,46,68,4.0,82.0
2846,59.0,7,43,6.0,70.0
2847,80.0,63,75,4.0,64.0
2848,81.0,62,52,4.0,72.0
2849,56.0,57,44,6.0,78.0
2850,83.0,11,65,4.0,70.0
2851,81.0,57,60,4.0,63.0
2852,52.0,51,46,6.0,59.0
2853,80.0,9,64,4.0,57.0
2854,74.0,6,464,5.0,53.0
2855,78.0,62,60,4.0,48.0
2856,57.0,3,41,6.0,80.0
2857,76.0,10,48,4.0,64.0
2858,72.0,56,63,5.0,64.0
2859,74.0,71,51,4.0,55.0
2860,50.0,40,44,6.0,82.0
2861,71.0,4,55,5.0,57.0
2862,76.0,7,63,4.0,60.0
2863,77.0,58,55,4.0,58.0
2864,76.0,112,27,0.0,68.0
2865,52.0,4,143,6.0,76.0
2866,72.0,62,156,4.0,68.0
2867,69.0,0,163,5.0,68.0
2868,72.0,1,37,4.0,72.0
2869,69.0,107,40,5.0,60.0
2870,76.0,12,35,0.0,74.0
2871,68.0,13,27,5.0,58.0
2872,71.0,11,28,4.0,45.0
2873,69.0,20,39,5.0,60.0
2874,72.0,4,42,4.0,64.0
2875,40.0,0,146,6.0,78.0
2876,76.0,38,42,0.0,85.0
2877,68.0,23,108,5.0,64.0
2878,71.0,9,101,4.0,66.0
2879,69.0,2,56,4.0,72.0
2880,69.0,2,57,5.0,68.0
2881,72.0,121,116,0.0,76.0
2882,72.0,1,55,5.0,64.0
2883,72.0,51,68,4.0,60.0
2884,57.0,7,61,2.0,80.0
2885,69.0,7,35,1.0,66.0
2886,74.0,52,49,4.0,66.0
2887,74.0,2,46,0.0,74.0
2888,74.0,1,53,5.0,62.0
2889,59.0,1,56,2.0,80.0
2890,76.0,34,54,4.0,61.0
2891,76.0,4,38,0.0,64.0
2892,60.0,6,43,2.0,68.0
2893,76.0,10,54,5.0,60.0
2894,45.0,0,222,6.0,64.0
2895,77.0,48,45,4.0,70.0
2896,69.0,1,42,1.0,80.0
2897,77.0,0,43,5.0,68.0
2898,77.0,7,46,0.0,85.0
2899,62.0,6,46,2.0,78.0
2900,59.0,52,59,2.0,66.0
2901,74.0,1,36,0.0,80.0
2902,74.0,54,46,5.0,72.0
2903,60.0,3,50,2.0,52.0
2904,69.0,2,43,1.0,82.0
2905,74.0,4,45,4.0,74.0
2906,62.0,43,65,2.0,63.0
2907,71.0,3,35,5.0,66.0
2908,71.0,2,43,0.0,78.0
2909,71.0,5,38,4.0,68.0
2910,64.0,68,64,2.0,74.0
2911,65.0,42,55,2.0,89.0
2912,67.0,1,120,1.0,80.0
2913,64.0,64,46,2.0,61.0
2914,76.0,2,39,0.0,76.0
2915,76.0,0,46,5.0,66.0
2916,69.0,6,52,1.0,64.0
2917,76.0,6,46,4.0,74.0
2918,62.0,6,42,2.0,60.0
2919,71.0,39,50,1.0,74.0
2920,72.0,59,42,1.0,82.0
2921,64.0,5,53,0.0,68.0
2922,64.0,5,50,5.0,68.0
2923,60.0,2,61,2.0,66.0
2924,64.0,11,46,4.0,64.0
2925,62.0,41,45,2.0,59.0
2926,69.0,1,44,1.0,74.0
2927,64.0,55,51,2.0,53.0
2928,76.0,12,38,0.0,87.0
2929,76.0,6,36,5.0,78.0
2930,76.0,9,42,4.0,80.0
2931,60.0,23,42,2.0,57.0
2932,62.0,2,45,2.0,68.0
2933,66.0,73,48,1.0,64.0
2934,69.0,6,104,4.0,68.0
2935,69.0,2,116,0.0,85.0
2936,69.0,5,113,5.0,68.0
2937,60.0,51,72,3.0,82.0
2938,60.0,6,67,6.0,70.0
2939,71.0,47,46,1.0,85.0
2940,62.0,7,49,2.0,91.0
2941,71.0,1,47,0.0,76.0
2942,71.0,1,50,4.0,66.0
2943,59.0,1,56,3.0,66.0
2944,71.0,9,46,5.0,63.0
2945,59.0,3,58,6.0,64.0
2946,72.0,34,43,0.0,78.0
2947,72.0,7,40,5.0,60.0
2948,72.0,5,48,4.0,68.0
2949,57.0,2,45,6.0,51.0
2950,57.0,1,51,3.0,66.0
2951,56.0,0,40,3.0,63.0
2952,62.0,1,51,2.0,87.0
2953,59.0,52,65,1.0,72.0
2954,56.0,1,56,6.0,63.0
2955,57.0,43,71,3.0,62.0
2956,57.0,11,71,6.0,64.0
2957,69.0,51,42,1.0,87.0
2958,62.0,2,46,2.0,85.0
2959,56.0,1,51,3.0,60.0
2960,56.0,6,63,6.0,57.0
2961,54.0,42,54,3.0,55.0
2962,54.0,16,54,6.0,60.0
2963,74.0,6,244,4.0,64.0
2964,74.0,4,268,0.0,70.0
2965,74.0,2,260,5.0,68.0
2966,52.0,47,55,3.0,68.0
2967,52.0,8,49,6.0,70.0
2968,59.0,4,117,2.0,82.0
2969,68.0,5,115,1.0,78.0
2970,77.0,7,54,0.0,78.0
2971,77.0,4,55,5.0,76.0
2972,62.0,49,67,3.0,80.0
2973,77.0,2,64,4.0,72.0
2974,62.0,0,66,6.0,70.0
2975,69.0,2,49,1.0,74.0
2976,60.0,42,54,2.0,66.0
2977,60.0,3,56,3.0,78.0
2978,60.0,2,53,6.0,78.0
2979,76.0,9,59,0.0,60.0
2980,76.0,4,56,4.0,68.0
2981,76.0,0,64,5.0,60.0
2982,62.0,36,48,2.0,76.0
2983,71.0,5,45,1.0,70.0
2984,59.0,1,55,3.0,64.0
2985,74.0,11,52,0.0,60.0
2986,74.0,0,54,5.0,59.0
2987,59.0,0,59,6.0,59.0
2988,74.0,5,63,4.0,58.0
2989,57.0,1,45,3.0,60.0
2990,64.0,45,46,2.0,78.0
2991,72.0,3,50,1.0,85.0
2992,72.0,3,51,0.0,66.0
2993,57.0,3,45,6.0,57.0
2994,72.0,4,52,5.0,63.0
2995,72.0,3,52,4.0,60.0
2996,71.0,6,40,0.0,59.0
2997,71.0,2,53,5.0,55.0
2998,59.0,38,73,3.0,64.0
2999,71.0,4,65,4.0,53.0
3000,59.0,10,64,6.0,64.0
3001,72.0,37,42,0.0,57.0
3002,72.0,2,40,5.0,58.0
3003,60.0,4,51,2.0,68.0
3004,76.0,5,46,1.0,85.0
3005,72.0,5,44,4.0,48.0
3006,57.0,3,67,3.0,59.0
3007,69.0,34,25,0.0,74.0
3008,57.0,4,67,6.0,56.0
3009,69.0,5,35,5.0,66.0
3010,69.0,7,33,4.0,70.0
3011,55.0,2,66,3.0,66.0
3012,55.0,10,61,6.0,57.0
3013,72.0,0,40,1.0,72.0
3014,57.0,3,53,2.0,76.0
3015,53.0,39,62,3.0,59.0
3016,53.0,9,53,6.0,60.0
3017,52.0,39,59,3.0,64.0
3018,52.0,18,48,6.0,55.0
3019,81.0,4,135,0.0,78.0
3020,81.0,6,137,5.0,58.0
3021,81.0,0,128,4.0,64.0
3022,62.0,7,41,2.0,82.0
3023,53.0,40,53,3.0,68.0
3024,77.0,7,44,1.0,85.0
3025,53.0,4,47,6.0,57.0
3026,83.0,2,26,0.0,61.0
3027,83.0,6,28,5.0,59.0
3028,83.0,6,27,4.0,60.0
3029,50.0,41,56,3.0,66.0
3030,50.0,11,46,6.0,66.0
3031,81.0,0,30,0.0,85.0
3032,81.0,6,31,5.0,66.0
3033,71.0,2,45,1.0,80.0
3034,81.0,8,30,4.0,80.0
3035,52.0,41,56,3.0,85.0
3036,52.0,0,57,2.0,80.0
3037,52.0,8,50,6.0,76.0
3038,80.0,7,33,0.0,64.0
3039,80.0,13,29,5.0,76.0
3040,80.0,7,28,4.0,57.0
3041,81.0,8,44,0.0,66.0
3042,81.0,15,45,5.0,61.0
3043,81.0,1,46,4.0,57.0
3044,80.0,13,51,0.0,70.0
3045,80.0,12,58,5.0,66.0
3046,74.0,6,35,1.0,82.0
3047,80.0,7,57,4.0,63.0
3048,64.0,1,41,2.0,78.0
3049,40.0,11,50,3.0,87.0
3050,40.0,4,50,6.0,64.0
3051,81.0,56,29,0.0,72.0
3052,81.0,8,30,4.0,66.0
3053,81.0,7,25,5.0,60.0
3054,64.0,40,55,2.0,80.0
3055,81.0,0,56,0.0,82.0
3056,72.0,1,60,1.0,82.0
3057,81.0,2,50,5.0,68.0
3058,81.0,9,57,4.0,74.0
3059,45.0,3,92,3.0,89.0
3060,45.0,4,89,6.0,64.0
3061,83.0,43,54,0.0,74.0
3062,74.0,3,56,1.0,82.0
3063,83.0,0,61,4.0,68.0
3064,83.0,5,67,5.0,66.0
3065,84.0,0,42,0.0,62.0
3066,57.0,7,41,3.0,70.0
3067,69.0,51,52,2.0,85.0
3068,57.0,0,47,6.0,66.0
3069,76.0,4,61,1.0,68.0
3070,84.0,1,51,4.0,68.0
3071,84.0,2,54,5.0,64.0
3072,83.0,44,39,0.0,68.0
3073,74.0,5,39,1.0,76.0
3074,83.0,2,48,5.0,68.0
3075,83.0,3,58,4.0,63.0
3076,57.0,3,43,3.0,76.0
3077,72.0,1,49,1.0,68.0
3078,81.0,54,52,0.0,74.0
3079,57.0,1,43,6.0,76.0
3080,64.0,1,55,2.0,85.0
3081,81.0,3,51,5.0,63.0
3082,81.0,4,57,4.0,64.0
3083,79.0,40,39,0.0,68.0
3084,71.0,7,53,1.0,59.0
3085,79.0,1,56,5.0,61.0
3086,79.0,5,63,4.0,57.0
3087,81.0,49,43,0.0,66.0
3088,57.0,2,43,3.0,82.0
3089,72.0,5,47,1.0,72.0
3090,57.0,3,36,6.0,76.0
3091,66.0,2,49,2.0,82.0
3092,81.0,3,51,5.0,57.0
3093,81.0,2,56,4.0,56.0
3094,78.0,38,35,0.0,70.0
3095,69.0,2,44,1.0,64.0
3096,78.0,1,46,5.0,52.0
3097,78.0,8,53,4.0,51.0
3098,83.0,1,54,0.0,66.0
3099,64.0,54,55,1.0,82.0
3100,83.0,3,50,4.0,76.0
3101,67.0,5,59,2.0,80.0
3102,83.0,2,62,5.0,76.0
3103,55.0,9,106,6.0,82.0
3104,55.0,1,120,3.0,87.0
3105,72.0,37,75,1.0,70.0
3106,63.0,3,51,2.0,70.0
3107,71.0,5,54,0.0,82.0
3108,71.0,0,62,1.0,68.0
3109,71.0,61,63,5.0,68.0
3110,71.0,3,46,4.0,64.0
3111,57.0,0,58,3.0,78.0
3112,57.0,9,63,6.0,68.0
3113,59.0,39,46,3.0,74.0
3114,59.0,10,44,6.0,70.0
3115,69.0,3,58,1.0,63.0
3116,60.0,50,50,3.0,95.0
3117,60.0,7,39,6.0,74.0
3118,67.0,2,56,1.0,64.0
3119,66.0,32,57,1.0,64.0
3120,76.0,1,122,5.0,72.0
3121,76.0,1,129,0.0,82.0
3122,76.0,12,116,4.0,78.0
3123,64.0,3,143,2.0,85.0
3124,67.0,62,44,1.0,66.0
3125,57.0,9,38,6.0,76.0
3126,57.0,3,49,3.0,82.0
3127,76.0,4,28,0.0,72.0
3128,64.0,4,33,2.0,80.0
3129,76.0,3,29,5.0,64.0
3130,64.0,51,43,1.0,60.0
3131,76.0,7,31,4.0,64.0
3132,54.0,41,53,3.0,82.0
3133,54.0,0,41,6.0,70.0
3134,76.0,13,48,0.0,80.0
3135,69.0,1,46,1.0,70.0
3136,76.0,2,48,5.0,63.0
3137,66.0,0,53,2.0,66.0
3138,76.0,8,52,4.0,74.0
3139,79.0,45,51,0.0,70.0
3140,64.0,5,51,2.0,62.0
3141,79.0,1,57,5.0,68.0
3142,79.0,5,56,4.0,64.0
3143,59.0,46,43,3.0,87.0
3144,59.0,2,36,6.0,85.0
3145,69.0,1,43,1.0,85.0
3146,63.0,2,42,2.0,51.0
3147,78.0,2,50,0.0,59.0
3148,78.0,0,61,5.0,53.0
3149,78.0,3,56,4.0,51.0
3150,76.0,42,41,0.0,60.0
3151,76.0,2,37,5.0,61.0
3152,64.0,3,48,2.0,63.0
3153,76.0,3,55,4.0,60.0
3154,75.0,53,51,0.0,78.0
3155,69.0,2,44,1.0,87.0
3156,47.0,2,52,3.0,85.0
3157,75.0,0,56,5.0,82.0
3158,66.0,0,58,2.0,74.0
3159,47.0,3,54,6.0,80.0
3160,75.0,7,62,4.0,60.0
3161,73.0,35,54,0.0,52.0
3162,67.0,4,42,2.0,68.0
3163,73.0,9,68,5.0,48.0
3164,73.0,2,65,4.0,52.0
3165,75.0,44,42,0.0,62.0
3166,75.0,6,45,5.0,61.0
3167,69.0,3,40,1.0,87.0
3168,64.0,5,55,2.0,64.0
3169,59.0,6,43,3.0,91.0
3170,59.0,3,41,6.0,87.0
3171,75.0,1,48,4.0,62.0
3172,71.0,33,40,0.0,57.0
3173,71.0,6,45,5.0,66.0
3174,66.0,1,48,2.0,78.0
3175,71.0,9,51,4.0,70.0
3176,67.0,3,50,2.0,82.0
3177,83.0,55,69,0.0,76.0
3178,83.0,2,79,5.0,68.0
3179,83.0,7,77,4.0,70.0
3180,81.0,3,43,0.0,64.0
3181,81.0,35,51,5.0,68.0
3182,67.0,3,118,1.0,80.0
3183,81.0,8,54,4.0,72.0
3184,64.0,8,39,2.0,82.0
3185,79.0,0,52,0.0,60.0
3186,69.0,1,52,1.0,85.0
3187,79.0,46,62,5.0,55.0
3188,79.0,3,66,4.0,60.0
3189,71.0,39,49,1.0,80.0
3190,78.0,0,59,0.0,57.0
3191,78.0,4,59,5.0,52.0
3192,78.0,17,58,4.0,52.0
3193,52.0,6,225,6.0,66.0
3194,52.0,7,239,3.0,74.0
3195,72.0,45,41,1.0,87.0
3196,76.0,4,44,5.0,57.0
3197,76.0,1,53,0.0,52.0
3198,76.0,4,62,4.0,57.0
3199,74.0,41,68,0.0,57.0
3200,74.0,2,69,5.0,43.0
3201,74.0,11,76,4.0,55.0
3202,69.0,51,43,1.0,85.0
3203,72.0,3,47,0.0,49.0
3204,72.0,4,63,5.0,53.0
3205,72.0,17,59,4.0,53.0
3206,71.0,40,35,0.0,64.0
3207,71.0,7,31,5.0,60.0
3208,71.0,6,43,4.0,57.0
3209,66.0,46,43,1.0,82.0
3210,69.0,1,55,5.0,66.0
3211,69.0,11,60,0.0,80.0
3212,69.0,8,62,4.0,58.0
3213,69.0,7,320,2.0,82.0
3214,72.0,51,51,0.0,78.0
3215,72.0,2,51,5.0,66.0
3216,72.0,6,56,4.0,64.0
3217,71.0,44,45,1.0,87.0
3218,68.0,6,54,2.0,91.0
3219,74.0,4,51,0.0,70.0
3220,74.0,2,60,5.0,64.0
3221,74.0,9,60,4.0,63.0
3222,66.0,38,45,2.0,76.0
3223,76.0,5,41,0.0,66.0
3224,76.0,2,41,5.0,68.0
3225,76.0,10,45,4.0,59.0
3226,59.0,45,52,1.0,85.0
3227,74.0,1,60,5.0,78.0
3228,74.0,7,62,0.0,76.0
3229,68.0,0,75,2.0,87.0
3230,74.0,7,65,4.0,70.0
3231,72.0,3,55,5.0,61.0
3232,72.0,49,58,0.0,60.0
3233,72.0,7,58,4.0,58.0
3234,69.0,45,45,1.0,82.0
3235,71.0,5,47,0.0,56.0
3236,69.0,1,43,2.0,85.0
3237,71.0,3,58,5.0,59.0
3238,71.0,4,59,4.0,57.0
3239,69.0,3,33,0.0,53.0
3240,69.0,51,37,5.0,58.0
3241,69.0,2,45,4.0,59.0
3242,68.0,55,45,1.0,72.0
3243,71.0,3,60,2.0,78.0
3244,69.0,61,54,2.0,60.0
3245,74.0,3,122,0.0,85.0
3246,74.0,1,127,5.0,82.0
3247,74.0,2,123,4.0,76.0
3248,71.0,1,46,2.0,66.0
3249,64.0,51,48,1.0,82.0
3250,76.0,53,30,5.0,61.0
3251,76.0,5,30,0.0,72.0
3252,68.0,1,35,2.0,72.0
3253,76.0,4,33,4.0,64.0
3254,74.0,0,29,5.0,68.0
3255,74.0,3,25,4.0,68.0
3256,74.0,3,32,0.0,87.0
3257,72.0,20,30,5.0,68.0
3258,72.0,1,30,4.0,57.0
3259,72.0,3,32,0.0,80.0
3260,69.0,3,70,2.0,80.0
3261,74.0,25,39,4.0,70.0
3262,74.0,2,37,0.0,66.0
3263,74.0,1,43,5.0,62.0
3264,72.0,24,43,0.0,80.0
3265,71.0,1,79,2.0,78.0
3266,72.0,3,57,5.0,62.0
3267,72.0,1,66,4.0,64.0
3268,72.0,32,60,2.0,66.0
3269,71.0,3,33,0.0,70.0
3270,71.0,7,39,5.0,66.0
3271,71.0,6,39,4.0,70.0
3272,74.0,57,55,2.0,78.0
3273,76.0,51,56,2.0,85.0
3274,69.0,54,341,1.0,85.0
3275,71.0,38,46,2.0,58.0
3276,72.0,2,107,0.0,82.0
3277,72.0,2,130,5.0,80.0
3278,72.0,11,117,4.0,78.0
3279,52.0,64,44,3.0,80.0
3280,72.0,1,44,2.0,64.0
3281,52.0,7,38,6.0,74.0
3282,74.0,1,22,0.0,70.0
3283,71.0,49,27,1.0,76.0
3284,74.0,6,31,5.0,66.0
3285,74.0,4,31,4.0,66.0
3286,69.0,0,42,2.0,87.0
3287,72.0,52,31,0.0,78.0
3288,72.0,0,23,4.0,78.0
3289,72.0,1,25,5.0,80.0
3290,69.0,0,31,1.0,82.0
3291,52.0,2,47,3.0,82.0
3292,71.0,13,30,0.0,72.0
3293,52.0,8,44,6.0,78.0
3294,68.0,10,30,1.0,82.0
3295,71.0,1,32,4.0,57.0
3296,71.0,1,36,5.0,66.0
3297,72.0,15,36,0.0,59.0
3298,72.0,8,45,4.0,70.0
3299,69.0,2,44,1.0,80.0
3300,72.0,5,46,5.0,63.0
3301,71.0,11,57,0.0,66.0
3302,68.0,12,49,1.0,74.0
3303,71.0,1,66,4.0,66.0
3304,71.0,2,71,5.0,66.0
3305,52.0,34,44,3.0,82.0
3306,52.0,8,50,6.0,78.0
3307,69.0,6,27,5.0,64.0
3308,69.0,35,34,0.0,70.0
3309,69.0,6,28,4.0,57.0
3310,69.0,2,29,1.0,80.0
3311,64.0,0,267,2.0,80.0
3312,69.0,50,66,0.0,70.0
3313,69.0,7,56,5.0,68.0
3314,69.0,5,70,4.0,60.0
3315,76.0,37,51,0.0,74.0
3316,62.0,2,48,2.0,82.0
3317,76.0,7,55,4.0,78.0
3318,48.0,1,113,3.0,87.0
3319,76.0,5,55,5.0,53.0
3320,48.0,6,113,6.0,85.0
3321,78.0,2,44,0.0,60.0
3322,60.0,43,50,2.0,74.0
3323,78.0,3,47,5.0,51.0
3324,78.0,4,61,4.0,51.0
3325,50.0,5,60,3.0,82.0
3326,50.0,12,56,6.0,74.0
3327,80.0,25,43,0.0,64.0
3328,59.0,8,36,2.0,64.0
3329,80.0,0,50,5.0,58.0
3330,52.0,2,45,3.0,80.0
3331,80.0,6,48,4.0,60.0
3332,52.0,13,41,6.0,70.0
3333,69.0,2,236,1.0,85.0
3334,53.0,4,48,3.0,82.0
3335,53.0,4,42,6.0,80.0
3336,57.0,39,71,2.0,57.0
3337,69.0,38,49,1.0,80.0
3338,60.0,0,55,2.0,63.0
3339,71.0,62,48,1.0,80.0
3340,50.0,7,47,3.0,87.0
3341,50.0,6,43,6.0,80.0
3342,62.0,1,56,2.0,70.0
3343,72.0,44,41,1.0,78.0
3344,64.0,1,46,2.0,76.0
3345,81.0,8,259,0.0,85.0
3346,81.0,1,259,5.0,70.0
3347,81.0,4,262,4.0,76.0
3348,65.0,60,42,2.0,95.0
3349,47.0,8,54,3.0,82.0
3350,47.0,3,52,6.0,66.0
3351,74.0,4,67,1.0,87.0
3352,84.0,5,55,0.0,78.0
3353,76.0,52,67,1.0,82.0
3354,84.0,6,63,5.0,68.0
3355,84.0,11,61,4.0,70.0
3356,52.0,33,42,3.0,85.0
3357,52.0,2,35,6.0,76.0
3358,83.0,5,46,0.0,70.0
3359,56.0,0,58,2.0,66.0
3360,74.0,4,63,1.0,74.0
3361,83.0,5,60,4.0,70.0
3362,83.0,8,79,5.0,68.0
3363,81.0,4,47,0.0,64.0
3364,72.0,37,53,1.0,66.0
3365,81.0,11,62,5.0,60.0
3366,81.0,4,63,4.0,66.0
3367,59.0,45,39,2.0,72.0
3368,80.0,3,44,0.0,66.0
3369,71.0,1,54,1.0,68.0
3370,40.0,1,60,3.0,95.0
3371,80.0,7,51,5.0,62.0
3372,40.0,6,60,6.0,78.0
3373,80.0,5,65,4.0,63.0
3374,81.0,34,47,0.0,74.0
3375,81.0,9,50,5.0,62.0
3376,69.0,5,66,1.0,62.0
3377,81.0,6,55,4.0,72.0
3378,83.0,1,43,0.0,66.0
3379,64.0,1,35,2.0,85.0
3380,68.0,40,54,1.0,60.0
3381,50.0,8,47,3.0,89.0
3382,50.0,2,43,6.0,82.0
3383,83.0,5,55,5.0,57.0
3384,83.0,3,50,4.0,70.0
3385,71.0,35,49,1.0,64.0
3386,80.0,2,50,0.0,47.0
3387,80.0,9,54,5.0,58.0
3388,80.0,7,58,4.0,58.0
3389,76.0,0,44,0.0,57.0
3390,76.0,4,35,5.0,58.0
3391,76.0,2,39,4.0,59.0
3392,69.0,50,69,1.0,85.0
3393,48.0,3,57,6.0,85.0
3394,48.0,9,68,3.0,85.0
3395,64.0,3,86,2.0,85.0
3396,71.0,35,67,1.0,70.0
3397,47.0,4,54,6.0,72.0
3398,47.0,12,64,3.0,85.0
3399,72.0,44,50,1.0,66.0
3400,76.0,3,38,5.0,68.0
3401,76.0,3,36,0.0,87.0
3402,76.0,1,40,4.0,82.0
3403,69.0,0,52,2.0,80.0
3404,45.0,13,60,3.0,70.0
3405,45.0,3,60,6.0,60.0
3406,68.0,13,43,2.0,60.0
3407,74.0,30,58,1.0,74.0
3408,47.0,4,48,6.0,59.0
3409,47.0,1,58,3.0,64.0
3410,69.0,0,43,2.0,85.0
3411,76.0,3,38,5.0,76.0
3412,76.0,10,42,4.0,80.0
3413,76.0,0,40,0.0,85.0
3414,48.0,9,60,6.0,60.0
3415,76.0,49,76,1.0,61.0
3416,48.0,2,65,3.0,72.0
3417,78.0,38,60,1.0,74.0
3418,50.0,0,62,3.0,80.0
3419,50.0,10,75,6.0,62.0
3420,52.0,6,40,3.0,68.0
3421,80.0,53,47,1.0,82.0
3422,52.0,4,42,6.0,68.0
3423,76.0,1,44,4.0,80.0
3424,76.0,1,43,0.0,82.0
3425,76.0,4,46,5.0,72.0
3426,72.0,4,51,2.0,82.0
3427,76.0,38,34,1.0,80.0
3428,48.0,3,42,3.0,76.0
3429,71.0,4,48,2.0,80.0
3430,48.0,6,55,6.0,66.0
3431,81.0,51,50,1.0,87.0
3432,69.0,4,50,2.0,74.0
3433,53.0,2,61,3.0,85.0
3434,53.0,2,62,6.0,64.0
3435,71.0,1,54,2.0,66.0
3436,55.0,3,52,6.0,68.0
3437,55.0,47,58,3.0,87.0
3438,72.0,0,109,4.0,78.0
3439,72.0,3,107,0.0,80.0
3440,72.0,5,114,5.0,70.0
3441,69.0,57,45,1.0,80.0
3442,69.0,1,54,2.0,66.0
3443,74.0,2,44,0.0,72.0
3444,53.0,5,55,6.0,59.0
3445,74.0,4,54,5.0,59.0
3446,74.0,0,57,4.0,70.0
3447,53.0,0,69,3.0,66.0
3448,67.0,43,40,2.0,66.0
3449,76.0,0,41,0.0,68.0
3450,76.0,0,55,4.0,70.0
3451,52.0,0,57,6.0,57.0
3452,76.0,2,58,5.0,63.0
3453,52.0,5,62,3.0,70.0
3454,77.0,3,34,5.0,64.0
3455,77.0,1,43,0.0,78.0
3456,65.0,55,47,2.0,68.0
3457,77.0,2,44,4.0,63.0
3458,50.0,0,58,6.0,63.0
3459,50.0,3,70,3.0,53.0
3460,64.0,1,50,2.0,82.0
3461,48.0,8,45,3.0,57.0
3462,48.0,46,57,6.0,57.0
3463,74.0,1,38,5.0,74.0
3464,74.0,8,39,0.0,78.0
3465,65.0,46,58,2.0,68.0
3466,50.0,7,60,3.0,59.0
3467,50.0,2,59,6.0,63.0
3468,74.0,6,46,4.0,80.0
3469,62.0,39,42,2.0,82.0
3470,47.0,0,49,3.0,61.0
3471,47.0,7,45,6.0,61.0
3472,71.0,57,50,0.0,78.0
3473,71.0,1,49,5.0,66.0
3474,74.0,2,290,1.0,89.0
3475,71.0,1,53,4.0,68.0
3476,52.0,5,58,6.0,80.0
3477,52.0,3,65,3.0,87.0
3478,56.0,3,65,2.0,72.0
3479,53.0,49,54,6.0,76.0
3480,53.0,6,70,3.0,87.0
3481,76.0,51,37,0.0,85.0
3482,76.0,6,35,5.0,74.0
3483,76.0,3,39,4.0,78.0
3484,52.0,0,53,6.0,61.0
3485,52.0,4,58,3.0,76.0
3486,68.0,2,54,2.0,68.0
3487,72.0,1,55,1.0,80.0
3488,71.0,0,45,1.0,72.0
3489,50.0,46,60,6.0,57.0
3490,50.0,3,65,3.0,60.0
3491,64.0,56,47,0.0,72.0
3492,48.0,6,42,6.0,60.0
3493,76.0,0,44,1.0,82.0
3494,64.0,0,47,5.0,63.0
3495,48.0,4,47,3.0,85.0
3496,69.0,0,55,2.0,87.0
3497,64.0,0,56,4.0,66.0
3498,50.0,1,53,6.0,66.0
3499,50.0,56,77,3.0,68.0
3500,74.0,2,39,0.0,82.0
3501,68.0,0,45,1.0,82.0
3502,74.0,0,40,5.0,78.0
3503,71.0,56,48,2.0,82.0
3504,74.0,1,43,4.0,80.0
3505,48.0,4,51,6.0,59.0
3506,48.0,1,63,3.0,66.0
3507,47.0,55,45,6.0,68.0
3508,47.0,1,58,3.0,85.0
3509,45.0,1,50,3.0,78.0
3510,45.0,1,53,6.0,70.0
3511,64.0,2,66,2.0,82.0
3512,69.0,2,123,1.0,82.0
3513,72.0,54,137,0.0,74.0
3514,72.0,1,135,5.0,64.0
3515,72.0,3,142,4.0,76.0
3516,50.0,2,43,6.0,80.0
3517,50.0,4,46,3.0,89.0
3518,65.0,113,54,2.0,74.0
3519,71.0,49,26,1.0,80.0
3520,71.0,5,28,0.0,62.0
3521,71.0,5,31,5.0,58.0
3522,71.0,7,32,4.0,68.0
3523,72.0,2,28,5.0,64.0
3524,72.0,5,34,0.0,80.0
3525,64.0,45,43,2.0,82.0
3526,69.0,1,37,1.0,85.0
3527,72.0,8,29,4.0,82.0
3528,52.0,0,39,6.0,82.0
3529,52.0,1,42,3.0,87.0
3530,71.0,3,31,5.0,48.0
3531,71.0,14,34,0.0,62.0
3532,68.0,1,30,1.0,87.0
3533,71.0,11,37,4.0,59.0
3534,72.0,9,38,0.0,64.0
3535,72.0,1,38,5.0,66.0
3536,69.0,7,41,1.0,72.0
3537,72.0,12,38,4.0,66.0
3538,68.0,6,55,1.0,78.0
3539,71.0,5,62,0.0,51.0
3540,71.0,4,73,5.0,54.0
3541,71.0,10,66,4.0,58.0
3542,62.0,20,51,2.0,87.0
3543,40.0,4,47,3.0,89.0
3544,40.0,7,42,6.0,80.0
3545,69.0,1,30,1.0,78.0
3546,69.0,45,32,0.0,76.0
3547,69.0,5,34,4.0,64.0
3548,69.0,3,38,5.0,66.0
3549,69.0,1,58,5.0,68.0
3550,60.0,56,91,2.0,78.0
3551,69.0,5,104,0.0,89.0
3552,77.0,57,42,5.0,78.0
3553,69.0,1,126,4.0,66.0
3554,69.0,3,13,1.0,82.0
3555,69.0,58,37,2.0,66.0
3556,76.0,1,39,5.0,78.0
3557,69.0,1,40,0.0,80.0
3558,74.0,56,51,5.0,76.0
3559,45.0,1,236,3.0,91.0
3560,45.0,3,241,6.0,66.0
3561,69.0,56,42,2.0,70.0
3562,69.0,2,40,0.0,80.0
3563,72.0,4,39,5.0,66.0
3564,69.0,2,40,1.0,80.0
3565,71.0,56,40,5.0,63.0
3566,69.0,55,36,2.0,74.0
3567,72.0,4,34,5.0,62.0
3568,69.0,4,35,1.0,76.0
3569,69.0,3,41,0.0,78.0
3570,69.0,49,55,5.0,57.0
3571,67.0,54,108,2.0,82.0
3572,84.0,57,42,4.0,66.0
3573,67.0,4,107,1.0,68.0
3574,67.0,11,117,0.0,64.0
3575,69.0,47,45,2.0,66.0
3576,83.0,11,43,4.0,74.0
3577,69.0,6,37,1.0,78.0
3578,69.0,3,46,0.0,80.0
3579,71.0,34,37,2.0,72.0
3580,71.0,10,42,0.0,82.0
3581,71.0,4,34,1.0,72.0
3582,81.0,7,50,4.0,56.0
3583,72.0,41,40,2.0,82.0
3584,72.0,6,41,0.0,89.0
3585,72.0,9,40,1.0,80.0
3586,79.0,1,43,4.0,59.0
3587,78.0,60,44,4.0,55.0
3588,69.0,1,37,2.0,78.0
3589,79.0,9,32,4.0,64.0
3590,69.0,3,42,1.0,70.0
3591,69.0,50,48,0.0,82.0
3592,76.0,50,47,4.0,51.0
3593,66.0,58,49,2.0,63.0
3594,66.0,3,41,1.0,64.0
3595,81.0,7,53,4.0,72.0
3596,66.0,0,50,0.0,68.0
3597,83.0,56,42,4.0,62.0
3598,71.0,3,32,1.0,72.0
3599,71.0,0,43,2.0,68.0
3600,71.0,5,35,0.0,85.0
3601,81.0,58,49,4.0,57.0
3602,79.0,47,40,4.0,57.0
3603,76.0,1,704,5.0,70.0
3604,78.0,3,49,4.0,60.0
3605,59.0,0,48,1.0,72.0
3606,59.0,2,59,2.0,63.0
3607,59.0,1,58,0.0,82.0
3608,76.0,55,44,4.0,61.0
3609,71.0,1,38,0.0,74.0
3610,71.0,6,32,1.0,68.0
3611,78.0,55,46,4.0,66.0
3612,71.0,7,42,2.0,74.0
3613,75.0,61,218,5.0,53.0
3614,71.0,54,36,4.0,46.0
3615,64.0,2,51,1.0,66.0
3616,64.0,0,81,0.0,74.0
3617,60.0,51,38,6.0,80.0
3618,64.0,3,95,2.0,70.0
3619,60.0,11,33,3.0,72.0
3620,59.0,48,36,6.0,76.0
3621,59.0,0,35,3.0,63.0
3622,71.0,9,37,1.0,87.0
3623,76.0,0,45,0.0,93.0
3624,67.0,1,47,2.0,93.0
3625,57.0,4,41,3.0,64.0
3626,57.0,50,56,6.0,70.0
3627,55.0,3,33,3.0,72.0
3628,55.0,56,43,6.0,68.0
3629,71.0,1,40,1.0,100.0
3630,67.0,2,41,2.0,100.0
3631,76.0,3,49,0.0,93.0
3632,54.0,49,32,3.0,66.0
3633,54.0,1,37,6.0,56.0
3634,55.0,57,30,3.0,87.0
3635,55.0,6,40,6.0,62.0
3636,76.0,3,41,0.0,95.0
3637,71.0,6,37,1.0,102.0
3638,67.0,2,40,2.0,102.0
3639,52.0,39,29,3.0,82.0
3640,52.0,1,34,6.0,60.0
3641,76.0,56,508,5.0,66.0
3642,57.0,3,42,6.0,85.0
3643,57.0,69,48,3.0,91.0
3644,73.0,0,85,0.0,98.0
3645,64.0,0,93,2.0,89.0
3646,69.0,6,94,1.0,105.0
3647,77.0,53,47,5.0,72.0
3648,69.0,3,35,0.0,80.0
3649,69.0,6,31,1.0,80.0
3650,76.0,57,51,5.0,62.0
3651,69.0,8,41,2.0,70.0
3652,45.0,1,65,6.0,63.0
3653,45.0,2,74,3.0,82.0
3654,74.0,40,40,5.0,68.0
3655,79.0,2,709,4.0,70.0
3656,69.0,12,35,1.0,68.0
3657,69.0,0,35,2.0,82.0
3658,73.0,61,53,5.0,60.0
3659,69.0,1,40,0.0,78.0
3660,71.0,49,40,5.0,42.0
3661,69.0,4,37,1.0,63.0
3662,69.0,2,43,2.0,78.0
3663,69.0,0,47,0.0,78.0
3664,73.0,59,49,5.0,33.0
3665,69.0,59,45,5.0,58.0
3666,65.0,0,103,1.0,68.0
3667,65.0,2,105,0.0,85.0
3668,65.0,59,110,2.0,68.0
3669,82.0,57,47,4.0,64.0
3670,67.0,54,47,0.0,70.0
3671,67.0,2,48,2.0,68.0
3672,81.0,3,50,4.0,62.0
3673,67.0,9,45,1.0,61.0
3674,69.0,1,42,0.0,72.0
3675,69.0,41,50,2.0,68.0
3676,69.0,4,38,1.0,61.0
3677,79.0,7,58,4.0,57.0
3678,70.0,53,37,2.0,55.0
3679,70.0,0,39,1.0,62.0
3680,77.0,2,41,4.0,66.0
3681,70.0,4,43,0.0,63.0
3682,76.0,59,49,4.0,60.0
3683,67.0,53,42,2.0,62.0
3684,67.0,1,41,0.0,76.0
3685,67.0,4,37,1.0,70.0
3686,77.0,1,53,4.0,62.0
3687,74.0,52,44,4.0,70.0
3688,64.0,3,45,0.0,66.0
3689,64.0,6,40,1.0,66.0
3690,64.0,59,52,2.0,66.0
3691,79.0,2,50,4.0,74.0
3692,81.0,51,45,4.0,59.0
3693,69.0,1,33,1.0,76.0
3694,79.0,57,39,4.0,59.0
3695,69.0,1,39,0.0,80.0
3696,69.0,1,39,2.0,66.0
3697,77.0,52,45,4.0,62.0
3698,74.0,7,710,5.0,61.0
3699,57.0,0,51,1.0,63.0
3700,76.0,1,51,4.0,63.0
3701,57.0,62,57,0.0,72.0
3702,57.0,2,56,2.0,61.0
3703,74.0,46,36,4.0,63.0
3704,69.0,55,35,1.0,74.0
3705,69.0,3,35,0.0,76.0
3706,69.0,2,38,2.0,64.0
3707,76.0,2,48,4.0,63.0
3708,69.0,51,47,4.0,66.0
3709,73.0,14,222,5.0,55.0
3710,62.0,1,52,1.0,82.0
3711,62.0,1,92,0.0,85.0
3712,62.0,2,92,2.0,66.0
3713,58.0,43,38,6.0,66.0
3714,58.0,3,39,3.0,82.0
3715,57.0,1,34,6.0,74.0
3716,57.0,57,39,3.0,87.0
3717,69.0,5,41,1.0,93.0
3718,74.0,3,46,0.0,87.0
3719,65.0,3,52,2.0,85.0
3720,55.0,46,51,6.0,68.0
3721,55.0,0,65,3.0,80.0
3722,53.0,63,37,6.0,63.0
3723,53.0,2,34,3.0,66.0
3724,74.0,0,44,0.0,91.0
3725,69.0,5,44,1.0,102.0
3726,65.0,3,44,2.0,102.0
3727,52.0,4,34,3.0,64.0
3728,52.0,50,39,6.0,54.0
3729,74.0,2,37,0.0,85.0
3730,53.0,55,41,6.0,61.0
3731,53.0,2,40,3.0,68.0
3732,69.0,8,35,1.0,100.0
3733,65.0,3,42,2.0,100.0
3734,50.0,43,40,6.0,60.0
3735,50.0,5,38,3.0,64.0
3736,74.0,11,496,5.0,60.0
3737,55.0,60,44,6.0,70.0
3738,55.0,0,47,3.0,76.0
3739,71.0,1,91,0.0,85.0
3740,67.0,6,93,1.0,102.0
3741,76.0,44,56,5.0,68.0
3742,62.0,7,103,2.0,82.0
3743,74.0,59,43,5.0,66.0
3744,67.0,0,41,0.0,80.0
3745,67.0,3,39,1.0,60.0
3746,67.0,3,42,2.0,82.0
3747,43.0,8,60,6.0,74.0
3748,43.0,1,71,3.0,68.0
3749,72.0,43,43,5.0,64.0
3750,77.0,67,726,4.0,58.0
3751,71.0,58,49,5.0,60.0
3752,67.0,14,43,0.0,70.0
3753,67.0,4,43,1.0,78.0
3754,67.0,6,41,2.0,76.0
3755,69.0,30,59,5.0,59.0
3756,71.0,58,50,5.0,53.0
3757,67.0,24,42,1.0,78.0
3758,67.0,0,45,0.0,76.0
3759,67.0,5,41,2.0,80.0
3760,67.0,36,49,5.0,60.0
3761,81.0,48,45,4.0,70.0
3762,64.0,5,99,2.0,80.0
3763,64.0,2,106,1.0,80.0
3764,64.0,10,110,0.0,80.0
3765,79.0,60,42,4.0,61.0
3766,65.0,5,46,0.0,78.0
3767,65.0,5,43,2.0,70.0
3768,65.0,0,46,1.0,70.0
3769,67.0,4,41,1.0,72.0
3770,67.0,48,45,0.0,68.0
3771,67.0,6,36,2.0,70.0
3772,77.0,0,54,4.0,57.0
3773,69.0,4,31,1.0,74.0
3774,69.0,50,35,0.0,64.0
3775,76.0,0,40,4.0,61.0
3776,69.0,4,42,2.0,87.0
3777,74.0,52,46,4.0,63.0
3778,65.0,58,38,1.0,74.0
3779,65.0,2,41,0.0,70.0
3780,65.0,1,42,2.0,66.0
3781,76.0,2,46,4.0,68.0
3782,72.0,53,37,4.0,57.0
3783,62.0,61,42,1.0,72.0
3784,62.0,0,42,0.0,76.0
3785,77.0,0,49,4.0,82.0
3786,62.0,11,39,2.0,63.0
3787,79.0,45,56,4.0,68.0
3788,67.0,61,37,1.0,82.0
3789,67.0,0,37,0.0,78.0
3790,67.0,3,40,2.0,70.0
3791,77.0,3,49,4.0,64.0
3792,76.0,59,45,4.0,59.0
3793,72.0,61,715,5.0,64.0
3794,55.0,52,51,1.0,74.0
3795,55.0,3,49,2.0,74.0
3796,55.0,4,53,0.0,78.0
3797,74.0,4,49,4.0,66.0
3798,72.0,51,54,4.0,58.0
3799,67.0,41,40,0.0,80.0
3800,67.0,3,39,1.0,70.0
3801,67.0,7,50,2.0,80.0
3802,74.0,10,47,4.0,59.0
3803,71.0,8,220,5.0,60.0
3804,67.0,60,58,4.0,68.0
3805,60.0,0,51,2.0,68.0
3806,76.0,4,57,4.0,72.0
3807,60.0,5,69,1.0,87.0
3808,72.0,19,56,5.0,62.0
3809,60.0,56,90,0.0,66.0
3810,65.0,30,50,2.0,66.0
3811,74.0,6,57,4.0,55.0
3812,71.0,18,59,5.0,68.0
3813,72.0,6,38,1.0,80.0
3814,64.0,37,54,2.0,72.0
3815,72.0,4,51,0.0,82.0
3816,72.0,9,54,5.0,63.0
3817,72.0,3,65,4.0,58.0
3818,62.0,34,38,2.0,70.0
3819,74.0,1,47,0.0,80.0
3820,74.0,18,55,4.0,53.0
3821,74.0,5,60,5.0,59.0
3822,76.0,5,40,0.0,85.0
3823,72.0,4,42,1.0,89.0
3824,60.0,39,53,2.0,87.0
3825,76.0,13,46,5.0,62.0
3826,76.0,7,41,4.0,78.0
3827,59.0,28,47,2.0,59.0
3828,74.0,7,46,0.0,66.0
3829,74.0,5,48,4.0,70.0
3830,74.0,11,59,5.0,66.0
3831,76.0,6,37,0.0,72.0
3832,60.0,40,47,2.0,68.0
3833,72.0,3,40,1.0,91.0
3834,76.0,4,52,5.0,70.0
3835,76.0,9,50,4.0,55.0
3836,57.0,34,39,2.0,66.0
3837,78.0,5,36,0.0,74.0
3838,78.0,8,38,4.0,64.0
3839,78.0,4,48,5.0,68.0
3840,64.0,3,63,2.0,66.0
3841,79.0,48,105,0.0,80.0
3842,62.0,52,45,2.0,68.0
3843,71.0,6,104,1.0,80.0
3844,53.0,9,39,3.0,70.0
3845,53.0,2,39,6.0,74.0
3846,79.0,4,131,4.0,70.0
3847,79.0,1,136,5.0,76.0
3848,72.0,45,43,1.0,80.0
3849,52.0,8,36,3.0,80.0
3850,52.0,1,35,6.0,78.0
3851,64.0,3,49,2.0,70.0
3852,74.0,1,31,0.0,68.0
3853,74.0,42,41,1.0,70.0
3854,66.0,4,44,2.0,80.0
3855,74.0,4,29,4.0,63.0
3856,74.0,1,33,5.0,66.0
3857,50.0,3,50,6.0,63.0
3858,50.0,8,56,3.0,66.0
3859,76.0,38,46,1.0,89.0
3860,48.0,2,37,3.0,68.0
3861,48.0,4,33,6.0,64.0
3862,67.0,8,47,2.0,95.0
3863,47.0,51,37,3.0,70.0
3864,47.0,5,37,6.0,68.0
3865,79.0,4,106,0.0,87.0
3866,79.0,1,123,4.0,82.0
3867,79.0,1,129,5.0,85.0
3868,64.0,0,40,2.0,85.0
3869,72.0,50,44,1.0,80.0
3870,48.0,2,45,3.0,66.0
3871,48.0,5,42,6.0,74.0
3872,79.0,5,32,0.0,80.0
3873,79.0,7,25,5.0,76.0
3874,79.0,2,27,4.0,60.0
3875,45.0,58,44,3.0,68.0
3876,45.0,1,44,6.0,62.0
3877,69.0,43,44,1.0,80.0
3878,50.0,1,42,6.0,66.0
3879,62.0,1,44,2.0,72.0
3880,50.0,10,49,3.0,85.0
3881,79.0,1,89,0.0,91.0
3882,79.0,2,105,4.0,82.0
3883,79.0,0,111,5.0,91.0
3884,74.0,106,33,1.0,87.0
3885,62.0,7,47,2.0,91.0
3886,38.0,1,57,6.0,63.0
3887,38.0,5,74,3.0,80.0
3888,78.0,29,39,5.0,66.0
3889,78.0,7,35,4.0,60.0
3890,78.0,12,40,0.0,62.0
3891,76.0,17,39,5.0,63.0
3892,76.0,6,39,4.0,62.0
3893,78.0,14,22,5.0,57.0
3894,78.0,5,21,4.0,54.0
3895,76.0,8,45,0.0,68.0
3896,78.0,14,31,0.0,61.0
3897,79.0,5,32,4.0,66.0
3898,79.0,3,39,5.0,68.0
3899,62.0,0,43,2.0,95.0
3900,62.0,4,48,1.0,89.0
3901,78.0,2,27,4.0,62.0
3902,78.0,3,29,5.0,91.0
3903,79.0,20,38,0.0,85.0
3904,78.0,23,35,0.0,82.0
3905,79.0,1,38,5.0,70.0
3906,79.0,2,41,4.0,70.0
3907,79.0,0,39,0.0,82.0
3908,78.0,1,55,4.0,64.0
3909,78.0,21,72,5.0,78.0
3910,78.0,19,52,0.0,58.0
3911,62.0,2,38,2.0,89.0
3912,79.0,48,31,4.0,66.0
3913,79.0,6,36,5.0,78.0
3914,79.0,12,30,0.0,85.0
3915,74.0,24,134,1.0,93.0
3916,59.0,1,112,2.0,89.0
3917,62.0,60,51,1.0,64.0
3918,55.0,49,38,3.0,80.0
3919,55.0,1,35,6.0,74.0
3920,60.0,5,52,2.0,59.0
3921,64.0,11,52,1.0,76.0
3922,62.0,40,43,2.0,78.0
3923,66.0,16,46,1.0,74.0
3924,79.0,3,239,5.0,80.0
3925,79.0,6,238,0.0,85.0
3926,79.0,50,259,4.0,68.0
3927,64.0,3,40,2.0,95.0
3928,55.0,46,47,3.0,78.0
3929,55.0,6,39,6.0,80.0
3930,67.0,8,48,1.0,70.0
3931,71.0,57,46,1.0,85.0
3932,60.0,1,44,2.0,85.0
3933,55.0,2,47,3.0,80.0
3934,55.0,1,43,6.0,70.0
3935,69.0,5,44,1.0,66.0
3936,71.0,49,45,1.0,76.0
3937,76.0,0,141,4.0,76.0
3938,76.0,2,147,0.0,80.0
3939,57.0,61,46,2.0,76.0
3940,76.0,43,168,5.0,68.0
3941,72.0,1,48,1.0,93.0
3942,71.0,52,45,1.0,80.0
3943,54.0,3,101,6.0,68.0
3944,79.0,1,48,4.0,80.0
3945,79.0,4,43,0.0,85.0
3946,54.0,1,113,3.0,74.0
3947,79.0,10,52,5.0,80.0
3948,62.0,2,36,2.0,85.0
3949,69.0,40,45,1.0,70.0
3950,55.0,4,40,3.0,68.0
3951,55.0,1,49,6.0,70.0
3952,78.0,2,47,5.0,70.0
3953,78.0,6,39,0.0,91.0
3954,78.0,5,55,4.0,68.0
3955,57.0,4,35,6.0,64.0
3956,57.0,3,36,3.0,80.0
3957,67.0,3,52,1.0,54.0
3958,76.0,40,56,4.0,66.0
3959,76.0,0,57,5.0,62.0
3960,76.0,2,57,0.0,78.0
3961,74.0,49,39,4.0,62.0
3962,59.0,1,41,6.0,76.0
3963,59.0,4,38,3.0,80.0
3964,74.0,1,39,0.0,66.0
3965,50.0,3,41,2.0,89.0
3966,74.0,2,61,5.0,59.0
3967,72.0,43,54,4.0,54.0
3968,72.0,4,48,0.0,55.0
3969,72.0,6,53,5.0,49.0
3970,66.0,1,111,1.0,78.0
3971,71.0,51,46,4.0,58.0
3972,55.0,2,37,6.0,72.0
3973,67.0,1,42,1.0,74.0
3974,55.0,2,44,3.0,80.0
3975,71.0,6,48,5.0,52.0
3976,71.0,0,46,0.0,50.0
3977,69.0,31,37,4.0,66.0
3978,69.0,4,35,0.0,63.0
3979,69.0,7,40,1.0,82.0
3980,69.0,2,65,5.0,58.0
3981,71.0,0,42,1.0,82.0
3982,67.0,55,45,4.0,72.0
3983,52.0,1,46,3.0,74.0
3984,52.0,2,42,6.0,68.0
3985,67.0,2,49,5.0,49.0
3986,67.0,3,59,0.0,68.0
3987,62.0,11,192,2.0,91.0
3988,67.0,0,42,1.0,70.0
3989,71.0,50,58,4.0,68.0
3990,71.0,1,54,5.0,66.0
3991,71.0,5,56,0.0,64.0
3992,57.0,1,36,6.0,76.0
3993,57.0,2,35,3.0,80.0
3994,66.0,51,48,1.0,61.0
3995,69.0,2,41,4.0,57.0
3996,69.0,5,48,5.0,57.0
3997,69.0,2,52,0.0,55.0
3998,60.0,10,39,2.0,70.0
3999,67.0,5,33,4.0,52.0
4000,67.0,2,30,0.0,62.0
4001,67.0,35,41,1.0,72.0
4002,59.0,2,43,2.0,63.0
4003,67.0,3,41,5.0,56.0
4004,69.0,3,47,1.0,93.0
4005,45.0,1,41,6.0,82.0
4006,72.0,52,53,4.0,78.0
4007,45.0,1,52,3.0,82.0
4008,72.0,3,54,0.0,85.0
4009,72.0,3,62,5.0,66.0
4010,67.0,46,41,1.0,82.0
4011,76.0,2,41,4.0,66.0
4012,76.0,2,52,0.0,85.0
4013,76.0,6,55,5.0,68.0
4014,66.0,46,39,1.0,89.0
4015,55.0,1,31,6.0,80.0
4016,74.0,2,44,4.0,68.0
4017,55.0,8,35,3.0,85.0
4018,74.0,3,48,0.0,68.0
4019,74.0,3,58,5.0,66.0
4020,72.0,8,23,0.0,76.0
4021,72.0,1,30,4.0,56.0
4022,64.0,38,40,1.0,80.0
4023,72.0,10,42,5.0,60.0
4024,60.0,0,250,2.0,85.0
4025,81.0,1,45,0.0,89.0
4026,81.0,2,65,4.0,70.0
4027,81.0,10,60,5.0,87.0
4028,54.0,55,95,3.0,68.0
4029,54.0,2,93,6.0,68.0
4030,57.0,38,59,2.0,80.0
4031,74.0,2,39,0.0,87.0
4032,74.0,3,44,4.0,74.0
4033,59.0,61,66,2.0,64.0
4034,55.0,2,47,6.0,70.0
4035,55.0,13,56,3.0,72.0
4036,74.0,2,59,5.0,70.0
4037,62.0,0,210,1.0,85.0
4038,60.0,34,52,2.0,70.0
4039,57.0,11,39,6.0,64.0
4040,57.0,10,60,3.0,68.0
4041,59.0,3,42,6.0,72.0
4042,59.0,4,48,3.0,63.0
4043,62.0,49,52,2.0,78.0
4044,60.0,35,46,3.0,78.0
4045,71.0,3,43,1.0,80.0
4046,60.0,3,46,6.0,66.0
4047,64.0,2,46,2.0,82.0
4048,62.0,48,27,6.0,59.0
4049,79.0,8,140,0.0,87.0
4050,60.0,2,29,3.0,63.0
4051,62.0,0,32,3.0,60.0
4052,66.0,7,38,2.0,74.0
4053,69.0,0,42,1.0,80.0
4054,79.0,5,146,5.0,82.0
4055,79.0,7,152,4.0,78.0
4056,64.0,47,46,3.0,63.0
4057,67.0,2,37,1.0,78.0
4058,79.0,9,29,0.0,78.0
4059,64.0,3,46,6.0,72.0
4060,67.0,5,46,2.0,82.0
4061,79.0,15,27,5.0,78.0
4062,79.0,1,29,4.0,82.0
4063,79.0,1,38,0.0,89.0
4064,57.0,35,48,6.0,55.0
4065,57.0,4,49,3.0,52.0
4066,69.0,1,50,2.0,100.0
4067,79.0,3,43,4.0,87.0
4068,79.0,13,50,5.0,87.0
4069,78.0,0,36,0.0,105.0
4070,60.0,34,43,6.0,60.0
4071,60.0,1,52,3.0,64.0
4072,78.0,16,40,5.0,72.0
4073,78.0,5,36,4.0,91.0
4074,72.0,4,130,1.0,98.0
4075,79.0,37,34,0.0,91.0
4076,59.0,0,40,6.0,47.0
4077,79.0,3,38,5.0,80.0
4078,59.0,6,49,3.0,53.0
4079,79.0,9,35,4.0,82.0
4080,76.0,35,25,0.0,80.0
4081,72.0,5,33,1.0,82.0
4082,76.0,2,36,5.0,66.0
4083,76.0,7,30,4.0,72.0
4084,60.0,3,40,6.0,62.0
4085,60.0,1,44,3.0,59.0
4086,57.0,6,106,2.0,85.0
4087,62.0,2,47,6.0,82.0
4088,72.0,5,59,1.0,93.0
4089,62.0,2,54,3.0,98.0
4090,76.0,42,45,1.0,87.0
4091,60.0,7,40,6.0,70.0
4092,60.0,2,46,3.0,66.0
4093,78.0,43,137,0.0,98.0
4094,78.0,4,143,5.0,63.0
4095,74.0,52,35,1.0,89.0
4096,78.0,4,144,4.0,64.0
4097,59.0,8,40,6.0,60.0
4098,59.0,2,44,3.0,57.0
4099,72.0,40,36,1.0,85.0
4100,78.0,9,28,0.0,82.0
4101,78.0,1,27,4.0,82.0
4102,78.0,2,32,5.0,89.0
4103,57.0,3,39,6.0,52.0
4104,57.0,2,44,3.0,54.0
4105,62.0,3,118,2.0,91.0
4106,78.0,3,37,4.0,85.0
4107,55.0,5,36,6.0,53.0
4108,78.0,0,43,0.0,102.0
4109,78.0,0,44,5.0,91.0
4110,55.0,54,49,3.0,66.0
4111,67.0,46,44,2.0,87.0
4112,59.0,8,42,6.0,66.0
4113,59.0,6,58,3.0,62.0
4114,66.0,39,51,2.0,80.0
4115,57.0,19,37,3.0,52.0
4116,71.0,1,39,0.0,76.0
4117,71.0,0,42,4.0,68.0
4118,57.0,7,40,6.0,48.0
4119,71.0,2,47,5.0,72.0
4120,67.0,27,41,2.0,82.0
4121,59.0,21,39,3.0,82.0
4122,59.0,7,37,6.0,59.0
4123,71.0,1,261,1.0,93.0
4124,64.0,41,51,2.0,74.0
4125,60.0,4,45,6.0,80.0
4126,60.0,12,55,3.0,85.0
4127,74.0,40,39,1.0,80.0
4128,59.0,5,50,3.0,66.0
4129,59.0,8,42,6.0,64.0
4130,76.0,4,135,0.0,91.0
4131,72.0,0,33,1.0,80.0
4132,76.0,0,147,4.0,82.0
4133,76.0,4,146,5.0,78.0
4134,57.0,50,50,3.0,60.0
4135,57.0,6,45,6.0,60.0
4136,71.0,49,38,1.0,89.0
4137,76.0,4,28,0.0,78.0
4138,76.0,5,27,4.0,68.0
4139,76.0,2,27,5.0,70.0
4140,55.0,9,45,3.0,57.0
4141,55.0,2,44,6.0,49.0
4142,54.0,2,39,6.0,53.0
4143,69.0,0,168,2.0,85.0
4144,76.0,7,38,0.0,89.0
4145,76.0,3,37,4.0,76.0
4146,54.0,4,52,3.0,47.0
4147,76.0,5,47,5.0,85.0
4148,74.0,1,33,0.0,80.0
4149,74.0,2,35,4.0,82.0
4150,74.0,5,38,5.0,78.0
4151,57.0,43,56,6.0,60.0
4152,57.0,4,54,3.0,58.0
4153,69.0,42,143,1.0,82.0
4154,76.0,3,30,4.0,72.0
4155,76.0,0,37,5.0,87.0
4156,76.0,4,40,0.0,89.0
4157,72.0,3,41,2.0,93.0
4158,55.0,1,50,6.0,52.0
4159,55.0,48,70,3.0,44.0
4160,69.0,43,34,1.0,80.0
4161,72.0,0,31,0.0,80.0
4162,72.0,1,32,4.0,64.0
4163,72.0,6,38,5.0,76.0
4164,57.0,6,44,6.0,61.0
4165,57.0,0,52,3.0,66.0
4166,66.0,1,42,2.0,82.0
4167,69.0,52,54,1.0,91.0
4168,59.0,7,48,6.0,72.0
4169,59.0,0,63,3.0,68.0
4170,72.0,43,38,1.0,80.0
4171,57.0,1,57,3.0,68.0
4172,57.0,12,51,6.0,59.0
4173,74.0,3,140,0.0,87.0
4174,74.0,3,137,4.0,70.0
4175,74.0,0,138,5.0,70.0
4176,71.0,43,39,1.0,85.0
4177,55.0,8,57,3.0,54.0
4178,55.0,6,68,6.0,63.0
4179,74.0,2,33,4.0,70.0
4180,69.0,38,38,1.0,89.0
4181,74.0,2,36,5.0,82.0
4182,74.0,2,33,0.0,66.0
4183,54.0,6,37,6.0,70.0
4184,54.0,5,48,3.0,60.0
4185,74.0,49,33,4.0,76.0
4186,71.0,8,146,2.0,98.0
4187,74.0,1,43,5.0,87.0
4188,52.0,1,43,3.0,56.0
4189,52.0,3,40,6.0,66.0
4190,74.0,2,39,0.0,87.0
4191,55.0,44,50,3.0,68.0
4192,55.0,11,41,6.0,55.0
4193,64.0,13,43,2.0,82.0
4194,54.0,34,53,3.0,74.0
4195,67.0,9,46,4.0,70.0
4196,54.0,1,40,6.0,55.0
4197,67.0,5,41,0.0,82.0
4198,67.0,1,55,5.0,78.0
4199,62.0,6,60,2.0,64.0
4200,55.0,40,43,3.0,66.0
4201,55.0,2,35,6.0,72.0
4202,64.0,9,43,2.0,70.0
4203,67.0,1,274,1.0,80.0
4204,60.0,2,42,2.0,78.0
4205,57.0,56,51,3.0,82.0
4206,57.0,3,40,6.0,82.0
4207,55.0,40,44,3.0,63.0
4208,71.0,12,43,1.0,70.0
4209,55.0,4,41,6.0,66.0
4210,72.0,1,124,0.0,89.0
4211,72.0,0,128,4.0,66.0
4212,72.0,7,147,5.0,80.0
4213,54.0,34,56,3.0,57.0
4214,54.0,19,44,6.0,63.0
4215,69.0,4,42,1.0,82.0
4216,52.0,34,45,3.0,53.0
4217,72.0,4,29,0.0,80.0
4218,52.0,3,34,6.0,53.0
4219,72.0,6,25,4.0,70.0
4220,67.0,13,41,1.0,74.0
4221,72.0,2,34,5.0,78.0
4222,69.0,6,141,2.0,98.0
4223,72.0,0,44,0.0,91.0
4224,72.0,7,38,4.0,70.0
4225,72.0,1,46,5.0,87.0
4226,50.0,4,60,6.0,66.0
4227,66.0,1,70,1.0,89.0
4228,50.0,48,76,3.0,63.0
4229,67.0,43,46,2.0,80.0
4230,76.0,1,39,4.0,70.0
4231,76.0,6,49,0.0,85.0
4232,76.0,6,46,5.0,66.0
4233,62.0,5,43,6.0,70.0
4234,66.0,46,50,2.0,82.0
4235,74.0,1,44,0.0,87.0
4236,62.0,2,38,3.0,74.0
4237,69.0,0,46,1.0,89.0
4238,74.0,5,52,5.0,74.0
4239,74.0,4,50,4.0,70.0
4240,72.0,3,40,0.0,80.0
4241,72.0,2,57,5.0,60.0
4242,64.0,43,63,2.0,78.0
4243,72.0,7,53,4.0,58.0
4244,62.0,42,45,2.0,63.0
4245,62.0,4,39,6.0,80.0
4246,71.0,0,42,4.0,70.0
4247,71.0,2,51,5.0,66.0
4248,66.0,3,46,1.0,93.0
4249,62.0,2,44,3.0,85.0
4250,71.0,9,55,0.0,64.0
4251,60.0,38,45,2.0,66.0
4252,69.0,2,37,0.0,68.0
4253,69.0,1,45,4.0,60.0
4254,69.0,7,52,5.0,57.0
4255,67.0,7,34,0.0,74.0
4256,59.0,53,53,2.0,70.0
4257,62.0,3,38,6.0,87.0
4258,62.0,2,39,3.0,87.0
4259,62.0,3,39,1.0,87.0
4260,67.0,3,55,4.0,63.0
4261,67.0,3,53,5.0,64.0
4262,57.0,0,31,2.0,62.0
4263,66.0,41,46,4.0,60.0
4264,66.0,1,55,0.0,63.0
4265,66.0,9,57,5.0,85.0
4266,67.0,51,61,4.0,68.0
4267,67.0,9,56,5.0,72.0
4268,67.0,4,52,0.0,66.0
4269,71.0,3,42,4.0,66.0
4270,62.0,3,95,2.0,95.0
4271,71.0,46,48,5.0,60.0
4272,59.0,2,103,6.0,85.0
4273,71.0,8,45,0.0,72.0
4274,59.0,0,108,3.0,80.0
4275,60.0,1,42,6.0,74.0
4276,64.0,5,46,2.0,85.0
4277,60.0,1,43,3.0,80.0
4278,76.0,51,54,5.0,78.0
4279,76.0,1,51,4.0,66.0
4280,76.0,2,58,0.0,85.0
4281,67.0,2,185,1.0,85.0
4282,66.0,7,40,2.0,82.0
4283,74.0,41,52,5.0,70.0
4284,62.0,0,40,6.0,80.0
4285,62.0,5,42,3.0,66.0
4286,74.0,2,48,0.0,78.0
4287,74.0,1,47,4.0,66.0
4288,64.0,0,38,3.0,85.0
4289,64.0,1,41,6.0,89.0
4290,67.0,4,42,2.0,95.0
4291,72.0,3,40,0.0,70.0
4292,72.0,52,48,5.0,58.0
4293,72.0,3,42,4.0,61.0
4294,71.0,39,55,5.0,56.0
4295,67.0,3,43,1.0,82.0
4296,71.0,10,51,0.0,72.0
4297,71.0,0,52,4.0,52.0
4298,69.0,53,47,5.0,57.0
4299,60.0,0,39,3.0,78.0
4300,60.0,4,40,6.0,82.0
4301,69.0,4,45,0.0,87.0
4302,69.0,0,50,1.0,68.0
4303,64.0,1,49,2.0,85.0
4304,69.0,4,64,4.0,57.0
4305,67.0,1,28,5.0,63.0
4306,67.0,1,22,4.0,63.0
4307,71.0,43,44,1.0,82.0
4308,67.0,7,40,0.0,82.0
4309,72.0,57,42,1.0,87.0
4310,57.0,0,39,3.0,66.0
4311,78.0,6,48,0.0,100.0
4312,57.0,3,45,6.0,82.0
4313,78.0,1,51,4.0,89.0
4314,78.0,1,56,5.0,82.0
4315,69.0,2,66,2.0,98.0
4316,69.0,42,51,1.0,68.0
4317,76.0,2,42,4.0,60.0
4318,67.0,1,55,2.0,82.0
4319,76.0,7,61,5.0,62.0
4320,76.0,3,62,0.0,70.0
4321,62.0,51,43,3.0,82.0
4322,62.0,1,39,6.0,87.0
4323,71.0,1,48,1.0,70.0
4324,74.0,0,44,4.0,57.0
4325,74.0,3,44,5.0,58.0
4326,74.0,2,50,0.0,68.0
4327,66.0,5,58,2.0,68.0
4328,72.0,42,43,1.0,80.0
4329,76.0,3,36,4.0,56.0
4330,76.0,1,35,0.0,70.0
4331,76.0,2,47,5.0,59.0
4332,64.0,8,53,2.0,68.0
4333,62.0,47,46,2.0,64.0
4334,78.0,8,46,0.0,93.0
4335,50.0,2,46,3.0,80.0
4336,78.0,0,48,4.0,78.0
4337,50.0,1,48,6.0,85.0
4338,78.0,0,52,5.0,80.0
4339,76.0,0,42,4.0,57.0
4340,76.0,4,39,0.0,80.0
4341,76.0,2,46,5.0,70.0
4342,60.0,50,58,2.0,66.0
4343,74.0,0,121,1.0,85.0
4344,78.0,0,46,0.0,98.0
4345,60.0,1,45,3.0,76.0
4346,60.0,5,38,6.0,82.0
4347,78.0,2,45,4.0,72.0
4348,78.0,1,44,5.0,72.0
4349,59.0,55,57,2.0,60.0
4350,74.0,47,34,0.0,82.0
4351,74.0,0,37,1.0,91.0
4352,74.0,1,37,4.0,60.0
4353,57.0,3,42,2.0,66.0
4354,74.0,1,41,5.0,70.0
4355,59.0,4,43,3.0,70.0
4356,59.0,1,42,6.0,72.0
4357,55.0,0,48,2.0,82.0
4358,74.0,3,51,1.0,102.0
4359,79.0,61,117,0.0,89.0
4360,72.0,56,54,1.0,89.0
4361,79.0,0,122,4.0,80.0
4362,79.0,1,137,5.0,85.0
4363,55.0,55,42,3.0,70.0
4364,71.0,1,40,1.0,85.0
4365,55.0,3,41,6.0,72.0
4366,62.0,2,41,2.0,82.0
4367,72.0,0,26,1.0,91.0
4368,81.0,50,30,0.0,85.0
4369,81.0,6,26,4.0,66.0
4370,81.0,1,27,5.0,66.0
4371,71.0,53,36,1.0,95.0
4372,79.0,1,32,0.0,93.0
4373,62.0,2,40,3.0,76.0
4374,79.0,5,29,4.0,82.0
4375,62.0,5,37,6.0,87.0
4376,79.0,4,28,5.0,85.0
4377,62.0,2,47,2.0,89.0
4378,78.0,13,28,0.0,82.0
4379,69.0,6,26,1.0,82.0
4380,78.0,2,25,4.0,72.0
4381,78.0,0,28,5.0,82.0
4382,71.0,3,37,1.0,91.0
4383,79.0,19,40,0.0,80.0
4384,79.0,1,39,4.0,60.0
4385,79.0,2,44,5.0,63.0
4386,78.0,19,46,0.0,85.0
4387,78.0,4,52,4.0,64.0
4388,69.0,3,69,1.0,95.0
4389,78.0,4,61,5.0,68.0
4390,50.0,2,42,6.0,80.0
4391,62.0,6,40,2.0,91.0
4392,50.0,28,53,3.0,68.0
4393,79.0,54,26,0.0,82.0
4394,79.0,6,25,4.0,62.0
4395,71.0,2,29,1.0,85.0
4396,79.0,1,37,5.0,70.0
4397,43.0,1,45,6.0,80.0
4398,79.0,6,72,5.0,87.0
4399,59.0,42,49,6.0,72.0
4400,43.0,1,144,3.0,72.0
4401,74.0,2,37,5.0,66.0
4402,57.0,60,55,6.0,70.0
4403,55.0,61,42,6.0,66.0
4404,79.0,0,242,0.0,95.0
4405,71.0,1,250,1.0,98.0
4406,79.0,1,253,4.0,76.0
4407,62.0,60,270,2.0,102.0
4408,74.0,64,40,5.0,66.0
4409,54.0,3,48,6.0,89.0
4410,52.0,57,40,6.0,70.0
4411,74.0,6,39,5.0,78.0
4412,54.0,57,47,6.0,70.0
4413,50.0,52,41,6.0,64.0
4414,52.0,8,56,6.0,80.0
4415,54.0,59,48,6.0,60.0
4416,71.0,59,117,5.0,66.0
4417,72.0,8,43,5.0,80.0
4418,52.0,58,53,6.0,66.0
4419,74.0,3,39,5.0,66.0
4420,50.0,49,58,6.0,66.0
4421,76.0,61,36,5.0,76.0
4422,48.0,0,39,6.0,61.0
4423,47.0,56,49,6.0,66.0
4424,72.0,5,35,5.0,66.0
4425,48.0,60,46,6.0,64.0
4426,45.0,55,49,6.0,53.0
4427,69.0,7,39,5.0,63.0
4428,50.0,61,54,6.0,66.0
4429,48.0,57,45,6.0,62.0
4430,74.0,60,37,5.0,70.0
4431,50.0,1,50,6.0,60.0
4432,52.0,61,57,6.0,68.0
4433,79.0,1,490,4.0,55.0
4434,62.0,52,53,5.0,64.0
4435,50.0,6,53,6.0,61.0
4436,48.0,57,46,6.0,58.0
4437,72.0,2,34,5.0,64.0
4438,47.0,66,47,6.0,55.0
4439,45.0,54,47,6.0,53.0
4440,78.0,2,239,4.0,53.0
4441,43.0,62,59,6.0,60.0
4442,79.0,3,105,4.0,66.0
4443,45.0,57,68,6.0,56.0
4444,74.0,57,36,4.0,59.0
4445,47.0,5,47,6.0,64.0
4446,48.0,57,56,6.0,56.0
4447,71.0,2,240,5.0,60.0
4448,74.0,57,44,4.0,66.0
4449,50.0,5,52,6.0,55.0
4450,52.0,59,49,6.0,64.0
4451,74.0,56,45,4.0,66.0
4452,54.0,4,43,6.0,58.0
4453,50.0,48,46,6.0,64.0
4454,55.0,2,49,6.0,70.0
4455,54.0,58,52,6.0,66.0
4456,71.0,61,132,4.0,68.0
4457,52.0,60,47,6.0,60.0
4458,72.0,12,58,4.0,64.0
4459,50.0,42,40,6.0,60.0
4460,74.0,10,56,4.0,66.0
4461,48.0,52,53,6.0,59.0
4462,76.0,7,50,4.0,62.0
4463,50.0,54,50,6.0,66.0
4464,52.0,60,47,6.0,60.0
4465,72.0,7,44,4.0,68.0
4466,48.0,47,49,6.0,57.0
4467,50.0,68,57,6.0,68.0
4468,69.0,5,54,4.0,63.0
4469,48.0,51,46,6.0,53.0
4470,74.0,2,53,4.0,70.0
4471,50.0,64,63,6.0,66.0
4472,52.0,60,53,6.0,61.0
4473,79.0,1,473,5.0,63.0
4474,50.0,57,53,6.0,63.0
4475,62.0,6,55,4.0,66.0
4476,48.0,40,54,6.0,60.0
4477,47.0,63,40,6.0,53.0
4478,72.0,16,49,4.0,66.0
4479,78.0,9,184,5.0,57.0
4480,45.0,45,40,6.0,68.0
4481,79.0,72,47,5.0,80.0
4482,43.0,1,67,6.0,80.0
4483,83.0,49,44,5.0,74.0
4484,59.0,7,37,6.0,74.0
4485,81.0,54,49,5.0,72.0
4486,79.0,45,45,5.0,59.0
4487,71.0,8,227,4.0,53.0
4488,59.0,15,38,6.0,82.0
4489,78.0,60,56,5.0,60.0
4490,76.0,40,49,5.0,59.0
4491,78.0,59,51,5.0,48.0
4492,59.0,17,40,6.0,82.0
4493,74.0,37,53,5.0,58.0
4494,55.0,13,106,6.0,85.0
4495,84.0,54,66,4.0,68.0
4496,57.0,8,44,6.0,64.0
4497,83.0,61,68,4.0,63.0
4498,59.0,4,44,6.0,78.0
4499,81.0,50,55,4.0,55.0
4500,60.0,1,38,6.0,80.0
4501,79.0,58,51,4.0,55.0
4502,78.0,47,64,4.0,64.0
4503,79.0,70,40,4.0,57.0
4504,57.0,2,40,6.0,78.0
4505,76.0,57,48,4.0,57.0
4506,54.0,65,48,6.0,70.0
4507,81.0,8,63,4.0,74.0
4508,83.0,58,84,4.0,59.0
4509,59.0,58,38,6.0,76.0
4510,81.0,7,52,4.0,57.0
4511,76.0,69,708,5.0,60.0
4512,79.0,57,48,4.0,57.0
4513,47.0,52,58,6.0,66.0
4514,78.0,4,62,4.0,52.0
4515,76.0,64,44,4.0,58.0
4516,57.0,60,33,6.0,78.0
4517,78.0,0,57,4.0,57.0
4518,75.0,0,194,5.0,66.0
4519,71.0,58,50,4.0,58.0
4520,55.0,8,62,6.0,68.0
4521,83.0,4,68,4.0,60.0
4522,76.0,52,84,5.0,60.0
4523,54.0,55,49,6.0,72.0
4524,81.0,6,50,4.0,60.0
4525,71.0,2,33,0.0,80.0
4526,71.0,3,43,1.0,55.0
4527,71.0,11,28,2.0,74.0
4528,76.0,3,48,5.0,82.0
4529,52.0,47,57,6.0,66.0
4530,79.0,1,59,4.0,58.0
4531,75.0,31,49,5.0,63.0
4532,54.0,11,43,6.0,72.0
4533,78.0,2,58,4.0,51.0
4534,76.0,53,32,5.0,76.0
4535,71.0,4,36,0.0,85.0
4536,71.0,3,39,1.0,55.0
4537,71.0,2,38,2.0,66.0
4538,55.0,3,66,6.0,72.0
4539,57.0,51,52,6.0,64.0
4540,71.0,1,34,0.0,85.0
4541,59.0,61,42,6.0,68.0
4542,71.0,3,37,2.0,64.0
4543,71.0,0,46,1.0,57.0
4544,71.0,3,43,5.0,66.0
4545,55.0,46,43,6.0,62.0
4546,60.0,1,56,6.0,82.0
4547,67.0,2,111,2.0,68.0
4548,62.0,54,55,6.0,66.0
4549,67.0,63,121,1.0,60.0
4550,67.0,7,111,0.0,82.0
4551,64.0,1,125,5.0,66.0
4552,69.0,0,41,2.0,70.0
4553,69.0,5,43,1.0,62.0
4554,69.0,3,45,0.0,82.0
4555,60.0,62,53,6.0,66.0
4556,66.0,11,48,5.0,64.0
4557,71.0,35,37,2.0,70.0
4558,71.0,1,45,1.0,66.0
4559,59.0,5,43,6.0,59.0
4560,71.0,0,43,0.0,82.0
4561,67.0,2,50,5.0,62.0
4562,72.0,53,38,1.0,62.0
4563,72.0,2,42,0.0,68.0
4564,72.0,2,44,2.0,61.0
4565,57.0,3,52,6.0,66.0
4566,69.0,3,64,5.0,70.0
4567,59.0,4,48,6.0,70.0
4568,67.0,52,52,5.0,64.0
4569,69.0,51,41,2.0,78.0
4570,69.0,1,40,0.0,78.0
4571,69.0,5,45,1.0,64.0
4572,66.0,1,52,5.0,57.0
4573,60.0,3,51,6.0,72.0
4574,64.0,44,49,5.0,64.0
4575,57.0,10,49,6.0,63.0
4576,66.0,52,55,2.0,62.0
4577,66.0,0,50,1.0,60.0
4578,66.0,3,52,0.0,68.0
4579,59.0,2,53,6.0,66.0
4580,71.0,8,95,5.0,70.0
4581,57.0,55,43,6.0,54.0
4582,71.0,48,39,2.0,78.0
4583,71.0,1,44,1.0,64.0
4584,71.0,2,43,0.0,82.0
4585,59.0,11,63,6.0,74.0
4586,76.0,1,906,4.0,53.0
4587,69.0,2,77,5.0,60.0
4588,60.0,54,51,6.0,66.0
4589,59.0,59,44,2.0,85.0
4590,76.0,4,35,4.0,63.0
4591,59.0,8,43,0.0,80.0
4592,59.0,1,54,6.0,72.0
4593,59.0,5,60,1.0,68.0
4594,75.0,31,28,4.0,61.0
4595,67.0,1,84,5.0,57.0
4596,57.0,12,55,6.0,57.0
4597,76.0,14,47,4.0,59.0
4598,71.0,3,37,0.0,80.0
4599,69.0,3,41,1.0,63.0
4600,59.0,16,59,2.0,68.0
4601,55.0,0,63,6.0,58.0
4602,66.0,4,89,5.0,55.0
4603,75.0,31,111,4.0,56.0
4604,54.0,48,54,6.0,72.0
4605,55.0,62,63,6.0,66.0
4606,54.0,42,47,6.0,60.0
4607,76.0,5,114,4.0,68.0
4608,55.0,61,64,6.0,74.0
4609,57.0,50,52,6.0,63.0
4610,71.0,13,113,4.0,63.0
4611,67.0,0,233,1.0,56.0
4612,64.0,3,238,2.0,59.0
4613,71.0,4,250,0.0,64.0
4614,64.0,4,258,5.0,58.0
4615,55.0,63,54,6.0,72.0
4616,76.0,9,99,4.0,66.0
4617,54.0,47,52,6.0,68.0
4618,52.0,0,55,6.0,64.0
4619,78.0,63,108,4.0,57.0
4620,51.0,56,57,6.0,50.0
4621,52.0,4,42,6.0,64.0
4622,51.0,56,51,6.0,55.0
4623,52.0,54,56,6.0,57.0
4624,54.0,40,42,6.0,80.0
4625,71.0,24,103,5.0,53.0
4626,55.0,57,63,6.0,61.0
4627,57.0,41,52,6.0,58.0
4628,76.0,22,120,5.0,70.0
4629,59.0,66,58,6.0,64.0
4630,74.0,13,96,5.0,64.0
4631,55.0,46,56,6.0,59.0
4632,57.0,71,60,6.0,64.0
4633,79.0,61,577,4.0,52.0
4634,55.0,57,47,6.0,78.0
4635,57.0,10,47,6.0,64.0
4636,69.0,50,111,4.0,57.0
4637,59.0,54,60,6.0,68.0
4638,57.0,9,55,6.0,61.0
4639,55.0,55,46,6.0,58.0
4640,76.0,52,112,4.0,64.0
4641,54.0,56,72,6.0,61.0
4642,52.0,58,49,6.0,59.0
4643,79.0,5,122,4.0,64.0
4644,72.0,1,485,5.0,59.0
4645,50.0,57,66,6.0,58.0
4646,48.0,44,48,6.0,63.0
4647,50.0,8,49,6.0,59.0
4648,52.0,57,39,6.0,60.0
4649,62.0,64,119,5.0,66.0
4650,54.0,57,50,6.0,60.0
4651,55.0,50,52,6.0,70.0
4652,69.0,4,110,5.0,60.0
4653,57.0,65,47,6.0,61.0
4654,54.0,47,48,6.0,53.0
4655,72.0,9,116,5.0,62.0
4656,55.0,68,60,6.0,74.0
4657,78.0,15,564,4.0,44.0
4658,54.0,49,53,6.0,60.0
4659,83.0,12,48,4.0,68.0
4660,55.0,56,65,6.0,60.0
4661,57.0,54,48,6.0,60.0
4662,83.0,11,42,4.0,72.0
4663,55.0,62,64,6.0,66.0
4664,54.0,50,60,6.0,62.0
4665,83.0,4,42,4.0,74.0
4666,52.0,63,46,6.0,72.0
4667,71.0,7,444,5.0,53.0
4668,50.0,50,58,6.0,62.0
4669,48.0,64,45,6.0,78.0
4670,50.0,45,71,6.0,63.0
4671,76.0,6,120,4.0,70.0
4672,78.0,6,35,5.0,61.0
4673,48.0,59,58,6.0,59.0
4674,78.0,6,59,4.0,58.0
4675,79.0,9,42,4.0,60.0
4676,47.0,44,68,6.0,58.0
4677,78.0,11,40,5.0,66.0
4678,45.0,50,54,6.0,74.0
4679,43.0,41,61,6.0,63.0
4680,78.0,10,45,5.0,68.0
4681,42.0,65,56,6.0,61.0
4682,40.0,52,63,6.0,68.0
4683,39.0,69,65,6.0,78.0
4684,81.0,4,325,4.0,66.0
4685,72.0,52,42,2.0,80.0
4686,72.0,0,44,0.0,72.0
4687,72.0,2,48,1.0,68.0
4688,71.0,5,118,5.0,64.0
4689,71.0,1,42,0.0,72.0
4690,71.0,56,46,2.0,70.0
4691,71.0,0,49,1.0,63.0
4692,47.0,7,46,6.0,62.0
4693,79.0,2,47,4.0,70.0
4694,73.0,4,53,5.0,55.0
4695,78.0,41,47,4.0,56.0
4696,75.0,4,45,5.0,64.0
4697,69.0,0,52,1.0,57.0
4698,69.0,1,50,0.0,64.0
4699,69.0,0,51,2.0,57.0
4700,67.0,3,42,2.0,64.0
4701,79.0,1,46,4.0,70.0
4702,48.0,2,49,6.0,63.0
4703,67.0,53,65,1.0,59.0
4704,67.0,0,66,0.0,62.0
4705,66.0,1,40,2.0,55.0
4706,66.0,47,56,1.0,62.0
4707,66.0,4,54,0.0,80.0
4708,67.0,53,41,2.0,60.0
4709,67.0,0,44,1.0,59.0
4710,67.0,2,47,0.0,66.0
4711,47.0,12,49,6.0,68.0
4712,84.0,4,46,4.0,76.0
4713,64.0,2,39,0.0,59.0
4714,64.0,43,44,1.0,63.0
4715,64.0,2,50,2.0,52.0
4716,45.0,0,46,6.0,68.0
4717,72.0,59,55,1.0,78.0
4718,72.0,7,49,2.0,70.0
4719,72.0,2,57,0.0,80.0
4720,71.0,39,44,1.0,72.0
4721,71.0,3,43,2.0,68.0
4722,71.0,5,48,0.0,72.0
4723,76.0,5,351,5.0,70.0
4724,69.0,49,41,1.0,72.0
4725,69.0,8,42,2.0,60.0
4726,69.0,1,43,0.0,76.0
4727,42.0,2,53,6.0,61.0
4728,74.0,3,51,5.0,70.0
4729,67.0,3,44,2.0,64.0
4730,72.0,4,45,5.0,53.0
4731,67.0,43,54,1.0,62.0
4732,67.0,0,52,0.0,68.0
4733,78.0,12,251,4.0,62.0
4734,66.0,7,40,2.0,76.0
4735,66.0,1,44,1.0,61.0
4736,66.0,2,42,0.0,72.0
4737,47.0,2,45,6.0,78.0
4738,78.0,53,57,4.0,58.0
4739,71.0,6,37,2.0,74.0
4740,71.0,0,37,0.0,80.0
4741,71.0,2,40,1.0,70.0
4742,45.0,6,43,6.0,78.0
4743,80.0,54,63,4.0,68.0
4744,81.0,38,58,4.0,72.0
4745,83.0,68,58,4.0,62.0
4746,44.0,2,49,6.0,64.0
4747,81.0,39,57,4.0,64.0
4748,52.0,10,44,6.0,78.0
4749,80.0,63,61,4.0,51.0
4750,78.0,47,59,4.0,51.0
4751,74.0,60,475,5.0,64.0
4752,64.0,2,232,0.0,60.0
4753,64.0,8,238,1.0,57.0
4754,64.0,1,242,2.0,58.0
4755,57.0,77,46,6.0,74.0
4756,76.0,0,50,4.0,68.0
4757,81.0,62,52,4.0,64.0
4758,55.0,6,43,6.0,80.0
4759,83.0,57,54,4.0,63.0
4760,84.0,45,48,4.0,66.0
4761,72.0,2,264,5.0,60.0
4762,54.0,71,96,6.0,64.0
4763,72.0,48,63,5.0,72.0
4764,71.0,56,56,5.0,58.0
4765,62.0,13,59,6.0,82.0
4766,60.0,14,32,6.0,80.0
4767,69.0,43,47,5.0,59.0
4768,59.0,7,37,6.0,64.0
4769,68.0,49,55,5.0,53.0
4770,69.0,47,56,5.0,68.0
4771,57.0,10,44,6.0,70.0
4772,71.0,60,55,5.0,57.0
4773,68.0,45,55,5.0,59.0
4774,74.0,9,499,4.0,53.0
4775,64.0,62,55,5.0,59.0
4776,56.0,23,54,6.0,68.0
4777,77.0,52,75,4.0,80.0
4778,76.0,7,36,0.0,66.0
4779,76.0,1,39,1.0,62.0
4780,68.0,52,48,5.0,62.0
4781,52.0,2,53,6.0,66.0
4782,76.0,1,68,4.0,64.0
4783,74.0,62,56,4.0,59.0
4784,76.0,0,41,0.0,66.0
4785,76.0,50,47,1.0,62.0
4786,57.0,5,46,6.0,72.0
4787,72.0,4,56,4.0,63.0
4788,71.0,54,47,4.0,52.0
4789,76.0,58,43,0.0,76.0
4790,76.0,0,45,1.0,66.0
4791,72.0,4,44,4.0,55.0
4792,60.0,4,63,6.0,64.0
4793,69.0,54,59,4.0,62.0
4794,69.0,0,262,5.0,60.0
4795,65.0,3,58,6.0,70.0
4796,72.0,55,112,1.0,64.0
4797,72.0,6,116,0.0,74.0
4798,77.0,49,77,5.0,72.0
4799,56.0,56,56,6.0,62.0
4800,74.0,1,52,1.0,78.0
4801,76.0,5,57,5.0,66.0
4802,74.0,5,52,0.0,85.0
4803,76.0,47,43,1.0,64.0
4804,76.0,2,46,0.0,72.0
4805,74.0,5,59,5.0,62.0
4806,77.0,52,43,1.0,66.0
4807,77.0,1,44,0.0,72.0
4808,72.0,3,50,5.0,59.0
4809,57.0,4,57,6.0,66.0
4810,71.0,45,62,5.0,56.0
4811,74.0,1,43,1.0,64.0
4812,74.0,4,39,0.0,70.0
4813,72.0,64,51,5.0,53.0
4814,53.0,6,49,6.0,61.0
4815,69.0,40,48,5.0,60.0
4816,71.0,7,48,1.0,68.0
4817,50.0,0,49,6.0,70.0
4818,71.0,4,50,0.0,68.0
4819,74.0,65,62,5.0,72.0
4820,76.0,42,72,5.0,66.0
4821,74.0,3,35,0.0,70.0
4822,74.0,2,41,1.0,70.0
4823,74.0,65,56,5.0,66.0
4824,47.0,10,51,6.0,70.0
4825,81.0,11,689,4.0,49.0
4826,72.0,43,58,5.0,60.0
4827,71.0,4,49,5.0,57.0
4828,52.0,5,46,6.0,80.0
4829,64.0,1,48,1.0,70.0
4830,64.0,1,53,0.0,64.0
4831,69.0,44,57,5.0,58.0
4832,74.0,2,35,0.0,74.0
4833,74.0,3,38,1.0,62.0
4834,40.0,4,44,6.0,82.0
4835,71.0,65,56,5.0,58.0
4836,80.0,61,230,4.0,58.0
4837,64.0,49,74,5.0,53.0
4838,72.0,2,74,1.0,59.0
4839,72.0,4,83,0.0,78.0
4840,45.0,66,93,6.0,87.0
4841,81.0,1,43,0.0,76.0
4842,72.0,108,49,2.0,76.0
4843,76.0,3,47,1.0,91.0
4844,64.0,3,45,3.0,82.0
4845,64.0,5,49,6.0,82.0
4846,62.0,4,32,6.0,76.0
4847,62.0,52,40,3.0,68.0
4848,60.0,1,42,6.0,82.0
4849,60.0,1,44,3.0,63.0
4850,72.0,52,48,2.0,85.0
4851,81.0,5,40,0.0,80.0
4852,76.0,1,45,1.0,85.0
4853,59.0,0,43,3.0,80.0
4854,59.0,48,53,6.0,70.0
4855,60.0,60,41,6.0,68.0
4856,60.0,0,43,3.0,66.0
4857,72.0,7,44,2.0,87.0
4858,81.0,3,42,0.0,89.0
4859,76.0,0,43,1.0,82.0
4860,57.0,46,41,6.0,61.0
4861,57.0,0,50,3.0,68.0
4862,81.0,9,512,4.0,68.0
4863,62.0,1,39,6.0,85.0
4864,62.0,66,51,3.0,87.0
4865,78.0,5,98,0.0,80.0
4866,74.0,5,115,1.0,80.0
4867,69.0,1,136,2.0,76.0
4868,82.0,62,70,4.0,85.0
4869,74.0,5,33,0.0,68.0
4870,50.0,1,49,6.0,76.0
4871,74.0,5,45,1.0,64.0
4872,81.0,9,61,4.0,57.0
4873,50.0,48,77,3.0,78.0
4874,79.0,50,50,4.0,62.0
4875,72.0,4,731,5.0,57.0
4876,62.0,52,45,6.0,76.0
4877,74.0,3,37,0.0,72.0
4878,74.0,2,45,1.0,62.0
4879,78.0,7,53,4.0,63.0
4880,76.0,51,54,4.0,49.0
4881,58.0,4,42,6.0,58.0
4882,74.0,0,44,1.0,60.0
4883,74.0,1,45,0.0,68.0
4884,78.0,56,62,4.0,52.0
4885,74.0,54,54,4.0,63.0
4886,63.0,63,41,6.0,63.0
4887,70.0,3,109,1.0,57.0
4888,70.0,4,117,0.0,63.0
4889,75.0,49,77,5.0,64.0
4890,54.0,14,40,6.0,59.0
4891,74.0,57,58,5.0,58.0
4892,72.0,2,46,1.0,64.0
4893,72.0,5,48,0.0,66.0
4894,72.0,39,45,5.0,59.0
4895,74.0,10,51,1.0,62.0
4896,74.0,1,56,0.0,72.0
4897,70.0,44,54,5.0,62.0
4898,55.0,3,34,6.0,68.0
4899,75.0,2,40,1.0,55.0
4900,75.0,17,42,0.0,61.0
4901,69.0,39,53,5.0,34.0
4902,51.0,2,32,6.0,60.0
4903,72.0,3,30,1.0,60.0
4904,72.0,18,41,0.0,66.0
4905,70.0,52,66,5.0,53.0
4906,67.0,40,48,5.0,58.0
4907,48.0,0,43,6.0,80.0
4908,69.0,9,47,1.0,62.0
4909,72.0,64,58,5.0,72.0
4910,69.0,3,46,0.0,58.0
4911,74.0,40,71,5.0,66.0
4912,72.0,3,33,1.0,57.0
4913,45.0,0,45,6.0,62.0
4914,72.0,8,39,0.0,66.0
4915,72.0,66,62,5.0,61.0
4916,79.0,0,708,4.0,64.0
4917,70.0,48,73,5.0,55.0
4918,50.0,65,42,6.0,80.0
4919,62.0,1,51,1.0,66.0
4920,69.0,1,47,5.0,59.0
4921,62.0,1,55,0.0,72.0
4922,67.0,48,62,5.0,53.0
4923,72.0,2,32,1.0,59.0
4924,72.0,64,39,0.0,70.0
4925,38.0,1,42,6.0,80.0
4926,69.0,2,52,5.0,57.0
4927,78.0,3,232,4.0,53.0
4928,62.0,56,69,5.0,48.0
4929,70.0,4,86,1.0,60.0
4930,70.0,60,95,0.0,66.0
4931,43.0,1,93,6.0,74.0
4932,74.0,115,47,1.0,87.0
4933,70.0,0,49,2.0,78.0
4934,79.0,0,46,0.0,98.0
4935,62.0,3,54,3.0,82.0
4936,62.0,3,52,6.0,70.0
4937,60.0,3,32,6.0,72.0
4938,60.0,54,39,3.0,80.0
4939,58.0,48,35,3.0,64.0
4940,58.0,4,39,6.0,66.0
4941,74.0,7,46,1.0,100.0
4942,79.0,4,41,0.0,93.0
4943,70.0,3,48,2.0,91.0
4944,57.0,37,41,3.0,82.0
4945,57.0,5,38,6.0,78.0
4946,58.0,54,49,3.0,85.0
4947,58.0,5,47,6.0,82.0
4948,70.0,3,40,2.0,82.0
4949,74.0,0,46,1.0,95.0
4950,79.0,14,49,0.0,93.0
4951,55.0,36,41,3.0,68.0
4952,55.0,6,44,6.0,68.0
4953,60.0,54,48,3.0,87.0
4954,79.0,5,525,4.0,45.0
4955,60.0,1,45,6.0,87.0
4956,72.0,19,94,1.0,95.0
4957,76.0,1,93,0.0,87.0
4958,81.0,66,65,4.0,68.0
4959,67.0,1,133,2.0,72.0
4960,72.0,2,36,1.0,62.0
4961,72.0,1,37,0.0,57.0
4962,48.0,1,47,6.0,66.0
4963,48.0,45,73,3.0,76.0
4964,79.0,10,65,4.0,64.0
4965,77.0,59,59,4.0,57.0
4966,70.0,3,731,5.0,51.0
4967,72.0,2,38,0.0,70.0
4968,72.0,58,45,1.0,64.0
4969,60.0,6,38,6.0,82.0
4970,76.0,1,51,4.0,68.0
4971,74.0,45,62,4.0,64.0
4972,72.0,3,38,1.0,66.0
4973,72.0,2,42,0.0,72.0
4974,57.0,4,39,6.0,68.0
4975,76.0,63,51,4.0,60.0
4976,72.0,49,53,4.0,64.0
4977,62.0,5,41,6.0,80.0
4978,69.0,61,101,1.0,64.0
4979,69.0,2,101,0.0,82.0
4980,74.0,51,70,5.0,64.0
4981,70.0,1,47,1.0,62.0
4982,52.0,6,50,6.0,64.0
4983,70.0,7,46,0.0,60.0
4984,72.0,54,60,5.0,63.0
4985,72.0,0,36,0.0,64.0
4986,72.0,8,41,1.0,66.0
4987,70.0,42,64,5.0,56.0
4988,74.0,2,34,1.0,70.0
4989,74.0,7,41,0.0,70.0
4990,69.0,55,54,5.0,52.0
4991,53.0,0,48,6.0,68.0
4992,67.0,42,68,5.0,58.0
4993,70.0,6,39,1.0,64.0
4994,70.0,3,38,0.0,61.0
4995,69.0,66,55,5.0,57.0
4996,50.0,1,58,6.0,76.0
4997,65.0,47,64,5.0,57.0
4998,67.0,5,46,1.0,70.0
4999,67.0,0,46,0.0,74.0
5000,46.0,5,55,6.0,66.0
5001,70.0,63,72,5.0,64.0
5002,72.0,52,59,5.0,66.0
5003,70.0,3,43,1.0,64.0
5004,70.0,7,37,0.0,68.0
5005,43.0,1,51,6.0,66.0
5006,70.0,61,70,5.0,60.0
5007,69.0,53,53,5.0,59.0
5008,77.0,5,723,4.0,68.0
5009,48.0,7,43,6.0,80.0
5010,60.0,56,51,1.0,78.0
5011,67.0,1,54,5.0,56.0
5012,60.0,4,46,0.0,80.0
5013,65.0,38,64,5.0,57.0
5014,70.0,1,33,1.0,64.0
5015,67.0,64,57,5.0,61.0
5016,70.0,6,52,0.0,66.0
5017,36.0,5,56,6.0,64.0
5018,76.0,3,211,4.0,68.0
5019,60.0,48,55,5.0,64.0
5020,69.0,1,50,0.0,80.0
5021,69.0,4,63,5.0,63.0
5022,69.0,4,67,1.0,78.0
5023,77.0,62,85,4.0,53.0
5024,70.0,6,33,2.0,87.0
5025,67.0,35,52,0.0,70.0
5026,67.0,0,73,5.0,51.0
5027,41.0,15,114,6.0,80.0
5028,77.0,2,38,1.0,80.0
5029,69.0,1,52,2.0,76.0
5030,65.0,53,64,0.0,72.0
5031,65.0,8,66,4.0,66.0
5032,65.0,3,63,5.0,59.0
5033,67.0,2,42,2.0,63.0
5034,67.0,41,55,0.0,64.0
5035,67.0,11,58,4.0,70.0
5036,67.0,3,64,5.0,64.0
5037,69.0,46,45,0.0,85.0
5038,65.0,1,48,2.0,80.0
5039,69.0,14,44,4.0,80.0
5040,69.0,0,44,5.0,63.0
5041,77.0,1,46,1.0,85.0
5042,64.0,36,54,2.0,63.0
5043,67.0,1,55,0.0,74.0
5044,67.0,0,65,5.0,55.0
5045,67.0,15,65,4.0,60.0
5046,69.0,3,47,0.0,72.0
5047,65.0,46,52,2.0,64.0
5048,77.0,14,41,1.0,82.0
5049,69.0,2,51,5.0,59.0
5050,69.0,2,56,4.0,66.0
5051,71.0,38,41,0.0,80.0
5052,62.0,3,39,2.0,64.0
5053,71.0,8,45,4.0,68.0
5054,71.0,6,53,5.0,58.0
5055,69.0,3,63,2.0,53.0
5056,72.0,53,110,0.0,80.0
5057,58.0,4,41,3.0,82.0
5058,76.0,1,109,1.0,89.0
5059,67.0,52,53,2.0,70.0
5060,58.0,12,42,6.0,66.0
5061,72.0,6,122,5.0,76.0
5062,72.0,3,126,4.0,78.0
5063,69.0,5,32,2.0,52.0
5064,57.0,0,42,3.0,80.0
5065,77.0,46,47,1.0,80.0
5066,57.0,8,40,6.0,78.0
5067,67.0,3,29,0.0,68.0
5068,79.0,5,43,1.0,87.0
5069,70.0,32,51,2.0,63.0
5070,67.0,9,30,4.0,57.0
5071,67.0,0,37,5.0,57.0
5072,55.0,6,53,3.0,76.0
5073,55.0,2,46,6.0,66.0
5074,81.0,42,40,1.0,87.0
5075,53.0,3,41,3.0,61.0
5076,53.0,5,43,6.0,66.0
5077,72.0,1,51,2.0,89.0
5078,52.0,44,38,3.0,61.0
5079,52.0,9,45,6.0,53.0
5080,72.0,5,112,0.0,87.0
5081,72.0,3,110,5.0,82.0
5082,72.0,1,125,4.0,82.0
5083,53.0,45,46,3.0,63.0
5084,69.0,2,45,2.0,78.0
5085,77.0,5,51,1.0,85.0
5086,53.0,6,43,6.0,43.0
5087,50.0,43,46,3.0,66.0
5088,72.0,10,29,0.0,85.0
5089,72.0,0,32,4.0,66.0
5090,50.0,10,47,6.0,68.0
5091,72.0,5,33,5.0,68.0
5092,55.0,37,50,3.0,82.0
5093,67.0,3,49,2.0,82.0
5094,74.0,2,55,1.0,82.0
5095,55.0,1,50,6.0,78.0
5096,72.0,0,104,0.0,100.0
5097,72.0,0,106,5.0,82.0
5098,72.0,9,113,4.0,80.0
5099,79.0,1,43,1.0,87.0
5100,67.0,4,57,2.0,87.0
5101,43.0,111,73,3.0,66.0
5102,43.0,12,65,6.0,89.0
5103,71.0,32,38,5.0,60.0
5104,71.0,7,33,0.0,63.0
5105,69.0,20,42,5.0,64.0
5106,69.0,2,40,0.0,74.0
5107,69.0,4,42,4.0,66.0
5108,71.0,0,28,0.0,63.0
5109,71.0,26,28,5.0,59.0
5110,71.0,4,88,4.0,59.0
5111,72.0,2,32,0.0,82.0
5112,72.0,9,35,5.0,72.0
5113,67.0,1,48,1.0,93.0
5114,72.0,5,35,4.0,72.0
5115,67.0,15,61,2.0,89.0
5116,71.0,19,33,0.0,82.0
5117,71.0,4,30,5.0,76.0
5118,71.0,5,36,4.0,76.0
5119,72.0,15,37,0.0,85.0
5120,72.0,8,38,5.0,80.0
5121,72.0,4,40,4.0,64.0
5122,71.0,7,54,0.0,62.0
5123,71.0,0,58,4.0,53.0
5124,71.0,13,58,5.0,78.0
5125,67.0,25,65,2.0,87.0
5126,72.0,53,28,5.0,70.0
5127,72.0,3,27,0.0,82.0
5128,72.0,1,30,4.0,74.0
5129,79.0,5,144,1.0,85.0
5130,64.0,3,100,2.0,91.0
5131,67.0,53,63,1.0,80.0
5132,60.0,8,36,6.0,72.0
5133,65.0,5,45,2.0,80.0
5134,60.0,3,39,3.0,76.0
5135,69.0,57,68,1.0,80.0
5136,71.0,0,47,1.0,80.0
5137,67.0,47,49,2.0,85.0
5138,72.0,9,232,0.0,89.0
5139,72.0,0,249,5.0,72.0
5140,72.0,59,251,4.0,64.0
5141,60.0,4,39,6.0,72.0
5142,69.0,6,44,2.0,91.0
5143,60.0,6,47,3.0,80.0
5144,72.0,59,67,1.0,85.0
5145,76.0,42,62,1.0,61.0
5146,74.0,3,55,1.0,59.0
5147,60.0,4,40,6.0,80.0
5148,65.0,10,51,2.0,80.0
5149,60.0,1,46,3.0,82.0
5150,76.0,39,51,1.0,70.0
5151,81.0,57,156,5.0,70.0
5152,81.0,2,155,4.0,85.0
5153,81.0,0,160,0.0,87.0
5154,62.0,10,51,2.0,82.0
5155,77.0,63,63,1.0,85.0
5156,84.0,2,49,0.0,82.0
5157,84.0,0,50,4.0,78.0
5158,76.0,43,57,1.0,74.0
5159,59.0,3,103,6.0,68.0
5160,84.0,5,58,5.0,66.0
5161,59.0,5,117,3.0,66.0
5162,67.0,3,42,2.0,95.0
5163,60.0,8,32,6.0,68.0
5164,83.0,1,45,5.0,62.0
5165,83.0,1,46,4.0,70.0
5166,74.0,53,56,1.0,64.0
5167,83.0,3,52,0.0,76.0
5168,60.0,2,48,3.0,80.0
5169,62.0,37,46,6.0,68.0
5170,72.0,3,45,1.0,64.0
5171,62.0,1,47,3.0,82.0
5172,81.0,4,50,0.0,72.0
5173,81.0,3,59,5.0,64.0
5174,81.0,0,56,4.0,80.0
5175,64.0,52,45,6.0,80.0
5176,64.0,1,42,3.0,87.0
5177,55.0,4,54,2.0,82.0
5178,79.0,0,54,5.0,61.0
5179,79.0,1,57,4.0,64.0
5180,79.0,4,55,0.0,74.0
5181,77.0,52,47,4.0,68.0
5182,77.0,0,54,5.0,60.0
5183,77.0,4,59,0.0,74.0
5184,71.0,0,121,1.0,87.0
5185,60.0,3,41,6.0,78.0
5186,72.0,0,41,1.0,64.0
5187,60.0,3,42,3.0,82.0
5188,76.0,2,54,0.0,58.0
5189,76.0,0,49,4.0,59.0
5190,76.0,52,57,5.0,58.0
5191,74.0,49,46,1.0,82.0
5192,74.0,3,52,0.0,57.0
5193,74.0,3,49,4.0,48.0
5194,74.0,1,57,5.0,53.0
5195,57.0,6,45,3.0,74.0
5196,72.0,1,47,4.0,57.0
5197,57.0,1,44,6.0,64.0
5198,72.0,1,55,0.0,78.0
5199,72.0,4,53,5.0,66.0
5200,76.0,54,74,1.0,87.0
5201,67.0,3,195,2.0,100.0
5202,76.0,50,54,4.0,57.0
5203,72.0,3,52,1.0,78.0
5204,76.0,3,57,0.0,68.0
5205,76.0,2,58,5.0,61.0
5206,62.0,2,38,3.0,82.0
5207,62.0,0,36,6.0,78.0
5208,71.0,45,52,1.0,59.0
5209,74.0,4,49,4.0,53.0
5210,74.0,6,48,0.0,58.0
5211,74.0,1,60,5.0,52.0
5212,65.0,7,60,2.0,93.0
5213,72.0,38,40,1.0,64.0
5214,72.0,2,45,4.0,63.0
5215,72.0,7,38,0.0,64.0
5216,64.0,4,40,2.0,82.0
5217,72.0,4,47,5.0,60.0
5218,50.0,8,50,3.0,78.0
5219,65.0,3,49,2.0,100.0
5220,50.0,1,49,6.0,80.0
5221,74.0,41,71,1.0,80.0
5222,72.0,43,46,1.0,68.0
5223,64.0,9,45,2.0,80.0
5224,77.0,3,138,0.0,82.0
5225,77.0,5,143,4.0,82.0
5226,77.0,0,144,5.0,74.0
5227,60.0,3,43,3.0,85.0
5228,71.0,53,51,1.0,70.0
5229,60.0,7,42,6.0,80.0
5230,62.0,0,53,2.0,66.0
5231,69.0,44,45,1.0,68.0
5232,77.0,10,28,0.0,87.0
5233,77.0,2,31,4.0,89.0
5234,60.0,7,46,2.0,70.0
5235,77.0,4,32,5.0,80.0
5236,59.0,42,46,3.0,78.0
5237,67.0,5,56,1.0,82.0
5238,59.0,0,45,6.0,80.0
5239,62.0,3,59,2.0,87.0
5240,77.0,4,61,4.0,93.0
5241,77.0,4,61,0.0,91.0
5242,77.0,9,55,5.0,82.0
5243,76.0,48,50,4.0,85.0
5244,76.0,1,50,0.0,76.0
5245,76.0,6,49,5.0,66.0
5246,55.0,42,45,3.0,60.0
5247,55.0,7,39,6.0,63.0
5248,71.0,2,48,1.0,85.0
5249,74.0,2,51,4.0,64.0
5250,67.0,2,48,2.0,91.0
5251,74.0,0,57,0.0,70.0
5252,74.0,5,52,5.0,68.0
5253,76.0,46,28,0.0,60.0
5254,76.0,3,30,5.0,58.0
5255,76.0,2,34,4.0,59.0
5256,60.0,50,40,3.0,87.0
5257,77.0,1,28,5.0,76.0
5258,77.0,4,32,0.0,87.0
5259,60.0,10,37,6.0,85.0
5260,77.0,2,31,4.0,74.0
5261,67.0,1,48,2.0,85.0
5262,76.0,0,30,0.0,82.0
5263,76.0,23,32,5.0,64.0
5264,76.0,4,31,4.0,80.0
5265,72.0,0,66,1.0,98.0
5266,77.0,19,42,0.0,68.0
5267,77.0,4,36,5.0,72.0
5268,65.0,3,38,2.0,95.0
5269,77.0,0,38,4.0,70.0
5270,74.0,4,55,1.0,87.0
5271,76.0,14,58,0.0,74.0
5272,76.0,7,61,5.0,72.0
5273,76.0,3,65,4.0,80.0
5274,48.0,19,49,3.0,78.0
5275,67.0,3,43,2.0,85.0
5276,76.0,0,44,1.0,82.0
5277,48.0,9,52,6.0,68.0
5278,76.0,1,32,0.0,78.0
5279,72.0,1,38,1.0,91.0
5280,76.0,4,35,5.0,78.0
5281,76.0,1,35,4.0,87.0
5282,64.0,55,48,2.0,85.0
5283,76.0,0,42,4.0,89.0
5284,76.0,2,51,0.0,91.0
5285,76.0,1,53,5.0,85.0
5286,41.0,0,93,6.0,68.0
5287,41.0,0,95,3.0,80.0
5288,60.0,55,109,2.0,76.0
5289,69.0,56,54,4.0,66.0
5290,69.0,1,56,0.0,70.0
5291,69.0,3,58,5.0,66.0
5292,71.0,54,40,4.0,53.0
5293,53.0,2,37,3.0,70.0
5294,53.0,3,40,6.0,62.0
5295,71.0,2,45,5.0,53.0
5296,71.0,2,46,0.0,66.0
5297,62.0,1,54,2.0,85.0
5298,72.0,45,40,4.0,68.0
5299,72.0,4,34,0.0,66.0
5300,72.0,4,43,5.0,64.0
5301,64.0,3,69,2.0,80.0
5302,53.0,55,43,3.0,80.0
5303,53.0,5,43,6.0,70.0
5304,69.0,3,286,1.0,89.0
5305,65.0,2,46,2.0,78.0
5306,67.0,3,44,1.0,82.0
5307,64.0,45,59,2.0,76.0
5308,74.0,2,138,5.0,74.0
5309,74.0,0,143,4.0,74.0
5310,74.0,3,139,0.0,80.0
5311,53.0,0,45,3.0,82.0
5312,69.0,56,47,1.0,85.0
5313,65.0,1,53,2.0,64.0
5314,53.0,10,47,6.0,68.0
5315,65.0,46,45,1.0,80.0
5316,74.0,9,37,4.0,89.0
5317,74.0,3,34,0.0,82.0
5318,74.0,4,33,5.0,82.0
5319,62.0,0,51,2.0,64.0
5320,74.0,3,55,0.0,89.0
5321,59.0,4,64,2.0,78.0
5322,74.0,2,57,4.0,87.0
5323,74.0,9,51,5.0,87.0
5324,52.0,49,110,3.0,76.0
5325,72.0,47,45,0.0,70.0
5326,52.0,2,109,6.0,85.0
5327,72.0,1,48,4.0,80.0
5328,72.0,4,45,5.0,66.0
5329,53.0,0,50,3.0,76.0
5330,53.0,2,47,6.0,82.0
5331,64.0,47,60,2.0,82.0
5332,74.0,3,55,5.0,60.0
5333,74.0,1,58,0.0,80.0
5334,74.0,6,63,4.0,66.0
5335,55.0,37,50,3.0,80.0
5336,71.0,2,42,4.0,68.0
5337,55.0,15,46,6.0,76.0
5338,71.0,0,41,0.0,66.0
5339,71.0,3,50,5.0,64.0
5340,57.0,44,44,3.0,87.0
5341,57.0,8,46,6.0,80.0
5342,67.0,1,287,1.0,82.0
5343,72.0,5,48,0.0,82.0
5344,72.0,1,54,4.0,85.0
5345,60.0,6,59,2.0,70.0
5346,72.0,2,51,5.0,66.0
5347,76.0,51,45,0.0,78.0
5348,64.0,2,48,1.0,91.0
5349,76.0,0,51,4.0,70.0
5350,76.0,6,46,5.0,68.0
5351,53.0,45,46,3.0,74.0
5352,53.0,1,43,6.0,68.0
5353,74.0,2,46,0.0,59.0
5354,65.0,0,58,1.0,76.0
5355,57.0,3,60,2.0,80.0
5356,74.0,2,55,5.0,55.0
5357,74.0,0,60,4.0,54.0
5358,67.0,54,36,1.0,85.0
5359,76.0,1,37,0.0,68.0
5360,76.0,2,43,4.0,66.0
5361,76.0,4,43,5.0,64.0
5362,50.0,49,47,3.0,74.0
5363,50.0,0,48,6.0,80.0
5364,77.0,7,62,0.0,87.0
5365,77.0,2,58,5.0,82.0
5366,77.0,3,62,4.0,85.0
5367,69.0,1,111,1.0,89.0
5368,79.0,0,55,5.0,72.0
5369,79.0,56,57,0.0,72.0
5370,79.0,2,59,4.0,74.0
5371,62.0,0,152,2.0,87.0
5372,55.0,1,40,6.0,80.0
5373,55.0,51,42,3.0,85.0
5374,77.0,1,52,0.0,64.0
5375,77.0,5,57,4.0,66.0
5376,77.0,5,54,5.0,70.0
5377,71.0,0,62,1.0,78.0
5378,64.0,44,45,2.0,82.0
5379,72.0,5,47,1.0,82.0
5380,76.0,2,48,4.0,66.0
5381,76.0,1,49,0.0,62.0
5382,76.0,4,55,5.0,70.0
5383,67.0,27,16,2.0,47.0
5384,74.0,1,47,0.0,76.0
5385,74.0,0,50,4.0,87.0
5386,43.0,2,52,3.0,80.0
5387,74.0,2,49,5.0,70.0
5388,43.0,5,57,6.0,78.0
5389,71.0,0,58,1.0,98.0
5390,72.0,22,47,0.0,63.0
5391,72.0,1,47,4.0,68.0
5392,65.0,51,111,2.0,63.0
5393,72.0,6,53,5.0,58.0
5394,53.0,2,41,3.0,80.0
5395,53.0,2,44,6.0,82.0
5396,74.0,2,43,1.0,91.0
5397,67.0,3,45,2.0,87.0
5398,74.0,49,59,0.0,63.0
5399,74.0,1,59,5.0,63.0
5400,74.0,6,64,4.0,62.0
5401,71.0,42,42,0.0,63.0
5402,71.0,2,43,5.0,60.0
5403,71.0,7,52,4.0,64.0
5404,62.0,7,47,2.0,82.0
5405,52.0,4,48,3.0,85.0
5406,72.0,50,56,0.0,70.0
5407,52.0,2,49,6.0,82.0
5408,64.0,4,55,2.0,93.0
5409,72.0,1,61,5.0,66.0
5410,72.0,1,67,4.0,64.0
5411,67.0,2,111,1.0,82.0
5412,74.0,47,60,0.0,66.0
5413,74.0,3,67,5.0,70.0
5414,74.0,4,79,4.0,68.0
5415,76.0,56,49,0.0,66.0
5416,55.0,2,48,3.0,87.0
5417,55.0,0,49,6.0,85.0
5418,76.0,1,46,5.0,64.0
5419,76.0,3,49,4.0,68.0
5420,72.0,1,55,1.0,85.0
5421,60.0,1,69,2.0,72.0
5422,77.0,0,58,5.0,72.0
5423,74.0,0,61,1.0,82.0
5424,77.0,6,58,4.0,78.0
5425,77.0,51,65,0.0,80.0
5426,76.0,52,50,1.0,68.0
5427,52.0,3,50,3.0,78.0
5428,79.0,0,52,0.0,61.0
5429,79.0,1,56,5.0,57.0
5430,79.0,3,57,4.0,55.0
5431,52.0,8,51,6.0,70.0
5432,72.0,0,66,2.0,85.0
5433,77.0,40,41,1.0,57.0
5434,81.0,6,56,0.0,74.0
5435,81.0,3,61,5.0,72.0
5436,81.0,3,59,4.0,68.0
5437,74.0,50,52,1.0,64.0
5438,48.0,2,51,3.0,72.0
5439,82.0,3,53,0.0,82.0
5440,82.0,0,50,5.0,68.0
5441,67.0,4,53,2.0,87.0
5442,82.0,4,60,4.0,64.0
5443,48.0,3,56,6.0,66.0
5444,76.0,35,43,1.0,78.0
5445,79.0,12,35,0.0,60.0
5446,79.0,2,38,4.0,58.0
5447,79.0,0,44,5.0,58.0
5448,53.0,53,52,3.0,87.0
5449,53.0,4,53,6.0,68.0
5450,81.0,11,63,5.0,82.0
5451,60.0,4,59,2.0,70.0
5452,81.0,0,64,4.0,87.0
5453,81.0,0,66,0.0,82.0
5454,82.0,48,47,4.0,74.0
5455,82.0,1,46,0.0,70.0
5456,82.0,0,53,5.0,59.0
5457,77.0,1,171,1.0,82.0
5458,50.0,0,52,3.0,85.0
5459,81.0,56,67,0.0,76.0
5460,81.0,4,64,4.0,76.0
5461,81.0,2,65,5.0,64.0
5462,65.0,2,63,2.0,76.0
5463,50.0,2,62,6.0,80.0
5464,76.0,5,50,1.0,85.0
5465,79.0,48,61,4.0,72.0
5466,79.0,4,56,5.0,66.0
5467,79.0,1,63,0.0,66.0
5468,52.0,1,44,3.0,85.0
5469,77.0,2,50,5.0,59.0
5470,77.0,52,53,4.0,66.0
5471,77.0,2,48,0.0,68.0
5472,74.0,1,57,1.0,91.0
5473,67.0,5,53,2.0,85.0
5474,52.0,2,51,6.0,82.0
5475,72.0,3,48,1.0,78.0
5476,76.0,40,59,4.0,66.0
5477,76.0,1,57,0.0,59.0
5478,76.0,5,66,5.0,57.0
5479,74.0,50,50,4.0,62.0
5480,71.0,3,48,1.0,70.0
5481,53.0,3,44,3.0,87.0
5482,74.0,4,54,5.0,56.0
5483,69.0,4,46,2.0,87.0
5484,74.0,3,50,0.0,56.0
5485,53.0,5,45,6.0,80.0
5486,69.0,5,40,1.0,89.0
5487,72.0,33,46,4.0,74.0
5488,72.0,3,42,5.0,60.0
5489,72.0,7,45,0.0,66.0
5490,71.0,8,49,5.0,72.0
5491,71.0,8,52,0.0,62.0
5492,76.0,45,62,5.0,60.0
5493,67.0,4,148,1.0,85.0
5494,79.0,6,38,0.0,80.0
5495,74.0,63,53,5.0,70.0
5496,71.0,51,188,4.0,62.0
5497,72.0,57,45,5.0,56.0
5498,55.0,1,246,3.0,74.0
5499,62.0,0,244,2.0,80.0
5500,55.0,1,270,6.0,78.0
5501,71.0,60,45,5.0,70.0
5502,79.0,9,39,0.0,93.0
5503,69.0,40,66,5.0,63.0
5504,71.0,68,50,5.0,63.0
5505,79.0,15,40,0.0,91.0
5506,67.0,45,46,5.0,60.0
5507,76.0,8,103,0.0,93.0
5508,81.0,48,64,4.0,82.0
5509,79.0,60,51,4.0,70.0
5510,77.0,12,47,0.0,82.0
5511,77.0,46,54,4.0,68.0
5512,79.0,10,49,0.0,82.0
5513,76.0,47,50,4.0,63.0
5514,81.0,12,42,0.0,87.0
5515,74.0,42,56,4.0,68.0
5516,76.0,66,58,4.0,53.0
5517,77.0,12,48,0.0,85.0
5518,72.0,50,44,4.0,63.0
5519,74.0,7,45,0.0,80.0
5520,77.0,61,66,4.0,82.0
5521,79.0,52,55,4.0,80.0
5522,79.0,5,43,0.0,87.0
5523,77.0,63,52,4.0,74.0
5524,76.0,55,52,4.0,70.0
5525,72.0,63,723,5.0,63.0
5526,67.0,62,53,0.0,82.0
5527,74.0,2,52,4.0,76.0
5528,72.0,45,53,4.0,76.0
5529,77.0,63,42,0.0,85.0
5530,74.0,1,54,4.0,70.0
5531,71.0,9,198,5.0,68.0
5532,67.0,58,55,4.0,74.0
5533,72.0,5,56,5.0,76.0
5534,76.0,65,62,0.0,87.0
5535,76.0,1,67,4.0,76.0
5536,74.0,50,56,0.0,82.0
5537,74.0,6,65,4.0,68.0
5538,71.0,2,72,5.0,59.0
5539,72.0,55,54,0.0,64.0
5540,72.0,5,44,1.0,80.0
5541,72.0,6,51,4.0,66.0
5542,72.0,1,66,5.0,64.0
5543,74.0,42,52,0.0,72.0
5544,74.0,7,53,4.0,63.0
5545,74.0,11,70,5.0,68.0
5546,76.0,45,46,0.0,82.0
5547,72.0,7,45,1.0,87.0
5548,76.0,0,46,4.0,68.0
5549,76.0,13,46,5.0,76.0
5550,74.0,33,51,0.0,78.0
5551,74.0,9,48,4.0,70.0
5552,74.0,15,53,5.0,66.0
5553,72.0,8,42,1.0,87.0
5554,76.0,39,53,0.0,70.0
5555,76.0,2,54,4.0,61.0
5556,76.0,16,51,5.0,59.0
5557,78.0,27,42,0.0,66.0
5558,78.0,12,45,4.0,55.0
5559,78.0,5,43,5.0,56.0
5560,71.0,49,117,1.0,85.0
5561,79.0,1,117,0.0,85.0
5562,79.0,8,128,4.0,82.0
5563,79.0,4,132,5.0,80.0
5564,72.0,112,45,1.0,68.0
5565,74.0,3,32,0.0,70.0
5566,74.0,49,54,1.0,74.0
5567,74.0,15,39,4.0,68.0
5568,74.0,7,32,5.0,68.0
5569,76.0,0,46,1.0,82.0
5570,79.0,42,120,0.0,89.0
5571,79.0,11,123,4.0,87.0
5572,79.0,12,124,5.0,87.0
5573,72.0,98,47,1.0,82.0
5574,79.0,63,29,0.0,76.0
5575,79.0,3,26,5.0,82.0
5576,79.0,8,32,4.0,82.0
5577,69.0,0,51,1.0,80.0
5578,79.0,48,116,0.0,93.0
5579,79.0,3,114,4.0,89.0
5580,79.0,6,116,5.0,91.0
5581,74.0,110,41,1.0,87.0
5582,78.0,41,38,0.0,74.0
5583,78.0,9,34,4.0,57.0
5584,78.0,0,36,5.0,64.0
5585,76.0,26,42,0.0,72.0
5586,76.0,0,43,4.0,66.0
5587,76.0,9,39,5.0,64.0
5588,78.0,19,23,0.0,58.0
5589,78.0,9,20,5.0,53.0
5590,78.0,2,31,4.0,58.0
5591,79.0,11,35,0.0,72.0
5592,79.0,9,35,5.0,66.0
5593,78.0,12,23,0.0,70.0
5594,62.0,4,57,1.0,82.0
5595,79.0,2,36,4.0,80.0
5596,78.0,10,34,5.0,64.0
5597,78.0,3,31,4.0,68.0
5598,79.0,6,42,0.0,66.0
5599,79.0,6,38,4.0,82.0
5600,79.0,16,52,5.0,72.0
5601,78.0,2,59,0.0,78.0
5602,78.0,15,49,4.0,66.0
5603,78.0,18,51,5.0,66.0
5604,72.0,9,47,1.0,82.0
5605,79.0,49,33,0.0,78.0
5606,79.0,11,34,4.0,68.0
5607,79.0,14,34,5.0,87.0
5608,71.0,3,61,1.0,87.0
5609,79.0,6,95,4.0,87.0
5610,79.0,45,106,0.0,100.0
5611,79.0,11,99,5.0,93.0
5612,69.0,46,56,1.0,80.0
5613,77.0,0,44,4.0,64.0
5614,67.0,1,45,2.0,82.0
5615,77.0,1,49,0.0,68.0
5616,67.0,58,60,1.0,72.0
5617,77.0,10,50,5.0,70.0
5618,76.0,38,43,0.0,66.0
5619,69.0,2,45,1.0,76.0
5620,76.0,9,38,5.0,66.0
5621,76.0,0,51,4.0,66.0
5622,74.0,1,40,4.0,64.0
5623,74.0,46,57,0.0,57.0
5624,74.0,3,53,5.0,66.0
5625,71.0,6,56,1.0,98.0
5626,67.0,8,46,2.0,82.0
5627,71.0,1,52,0.0,57.0
5628,67.0,3,49,1.0,80.0
5629,71.0,40,56,4.0,60.0
5630,71.0,3,54,5.0,66.0
5631,72.0,56,45,0.0,68.0
5632,72.0,3,44,4.0,58.0
5633,67.0,6,38,2.0,80.0
5634,69.0,3,49,1.0,76.0
5635,72.0,3,46,5.0,60.0
5636,74.0,42,34,0.0,72.0
5637,71.0,4,40,1.0,72.0
5638,74.0,1,43,5.0,64.0
5639,74.0,0,46,4.0,74.0
5640,67.0,5,42,5.0,68.0
5641,67.0,54,59,0.0,61.0
5642,67.0,11,59,4.0,61.0
5643,64.0,1,111,2.0,85.0
5644,72.0,1,135,1.0,87.0
5645,79.0,116,43,0.0,82.0
5646,65.0,7,41,2.0,70.0
5647,79.0,1,43,4.0,80.0
5648,79.0,2,43,5.0,80.0
5649,67.0,45,35,1.0,60.0
5650,67.0,1,46,2.0,72.0
5651,69.0,64,42,2.0,89.0
5652,76.0,2,41,0.0,76.0
5653,76.0,3,46,4.0,78.0
5654,76.0,12,42,5.0,68.0
5655,72.0,1,129,1.0,85.0
5656,81.0,101,44,0.0,85.0
5657,65.0,1,50,2.0,78.0
5658,81.0,2,47,5.0,85.0
5659,81.0,9,49,4.0,85.0
5660,72.0,50,33,1.0,82.0
5661,62.0,59,47,2.0,78.0
5662,77.0,3,63,0.0,100.0
5663,77.0,4,60,4.0,95.0
5664,77.0,3,58,5.0,87.0
5665,79.0,50,50,0.0,87.0
5666,79.0,6,44,4.0,82.0
5667,72.0,4,115,1.0,89.0
5668,79.0,2,47,5.0,72.0
5669,67.0,47,42,2.0,82.0
5670,77.0,8,55,0.0,78.0
5671,77.0,4,54,4.0,70.0
5672,77.0,4,53,5.0,60.0
5673,71.0,26,32,1.0,61.0
5674,69.0,3,32,1.0,72.0
5675,76.0,25,48,0.0,70.0
5676,76.0,0,49,5.0,58.0
5677,71.0,24,28,1.0,63.0
5678,76.0,2,58,4.0,66.0
5679,72.0,28,29,1.0,78.0
5680,71.0,11,27,1.0,87.0
5681,55.0,4,56,2.0,85.0
5682,74.0,3,54,0.0,66.0
5683,74.0,3,51,5.0,68.0
5684,74.0,3,58,4.0,70.0
5685,72.0,23,40,1.0,82.0
5686,77.0,19,57,0.0,66.0
5687,77.0,1,58,5.0,72.0
5688,71.0,0,66,1.0,87.0
5689,77.0,4,68,4.0,66.0
5690,65.0,53,43,2.0,80.0
5691,76.0,1,47,0.0,53.0
5692,76.0,7,50,5.0,59.0
5693,76.0,2,57,4.0,59.0
5694,72.0,42,34,1.0,78.0
5695,74.0,6,41,0.0,60.0
5696,74.0,5,37,5.0,66.0
5697,74.0,2,43,4.0,64.0
5698,64.0,2,58,2.0,80.0
5699,79.0,6,60,0.0,98.0
5700,79.0,2,58,5.0,87.0
5701,79.0,5,59,4.0,85.0
5702,72.0,51,96,1.0,89.0
5703,77.0,47,51,0.0,85.0
5704,62.0,4,52,2.0,66.0
5705,77.0,0,57,5.0,80.0
5706,77.0,3,62,4.0,72.0
5707,60.0,1,37,6.0,82.0
5708,67.0,53,47,1.0,80.0
5709,60.0,4,38,3.0,87.0
5710,60.0,2,58,2.0,74.0
5711,76.0,1,61,5.0,62.0
5712,76.0,4,62,0.0,66.0
5713,76.0,2,65,4.0,58.0
5714,65.0,43,42,1.0,78.0
5715,62.0,0,45,2.0,80.0
5716,74.0,1,58,0.0,76.0
5717,74.0,3,61,5.0,61.0
5718,74.0,7,63,4.0,59.0
5719,67.0,51,47,1.0,95.0
5720,72.0,2,47,0.0,62.0
5721,72.0,2,45,5.0,66.0
5722,64.0,5,42,2.0,80.0
5723,72.0,3,41,4.0,59.0
5724,60.0,0,47,6.0,74.0
5725,60.0,2,43,3.0,91.0
5726,71.0,49,45,0.0,59.0
5727,71.0,0,51,5.0,52.0
5728,71.0,5,46,4.0,57.0
5729,62.0,1,57,2.0,80.0
5730,76.0,48,41,1.0,93.0
5731,72.0,1,42,0.0,66.0
5732,72.0,6,43,5.0,57.0
5733,72.0,2,47,4.0,63.0
5734,60.0,3,51,6.0,78.0
5735,60.0,6,44,3.0,91.0
5736,64.0,0,62,2.0,80.0
5737,69.0,40,37,0.0,56.0
5738,69.0,4,41,5.0,58.0
5739,66.0,8,41,2.0,82.0
5740,69.0,1,45,4.0,57.0
5741,67.0,0,51,2.0,85.0
5742,74.0,55,65,1.0,93.0
5743,74.0,3,90,4.0,85.0
5744,74.0,5,94,5.0,74.0
5745,74.0,1,105,0.0,85.0
5746,72.0,43,50,1.0,87.0
5747,59.0,3,103,3.0,85.0
5748,59.0,3,106,6.0,66.0
5749,60.0,5,40,3.0,66.0
5750,76.0,0,41,5.0,66.0
5751,71.0,59,51,1.0,87.0
5752,62.0,0,44,2.0,80.0
5753,76.0,3,52,4.0,76.0
5754,60.0,4,42,6.0,78.0
5755,76.0,1,49,0.0,70.0
5756,62.0,40,45,3.0,80.0
5757,78.0,0,40,0.0,66.0
5758,78.0,0,40,5.0,61.0
5759,62.0,0,45,6.0,76.0
5760,69.0,4,50,1.0,87.0
5761,78.0,5,48,4.0,60.0
5762,64.0,51,46,3.0,95.0
5763,64.0,5,42,6.0,85.0
5764,67.0,2,83,1.0,85.0
5765,79.0,3,87,4.0,87.0
5766,79.0,4,93,5.0,78.0
5767,79.0,0,94,0.0,87.0
5768,67.0,3,135,2.0,87.0
5769,60.0,108,45,3.0,82.0
5770,81.0,2,40,0.0,66.0
5771,81.0,1,40,5.0,72.0
5772,60.0,3,48,6.0,78.0
5773,81.0,4,41,4.0,64.0
5774,76.0,0,63,1.0,91.0
5775,67.0,1,30,2.0,89.0
5776,83.0,0,38,5.0,80.0
5777,83.0,5,40,0.0,87.0
5778,83.0,2,40,4.0,80.0
5779,74.0,45,51,1.0,85.0
5780,76.0,1,37,1.0,95.0
5781,57.0,56,46,3.0,76.0
5782,57.0,1,41,6.0,64.0
5783,67.0,3,105,2.0,95.0
5784,84.0,1,106,0.0,91.0
5785,84.0,3,123,5.0,85.0
5786,84.0,0,127,4.0,87.0
5787,62.0,3,33,6.0,76.0
5788,62.0,113,41,3.0,85.0
5789,69.0,1,59,1.0,76.0
5790,66.0,22,37,2.0,66.0
5791,83.0,19,26,0.0,82.0
5792,83.0,11,20,5.0,57.0
5793,83.0,4,26,4.0,78.0
5794,64.0,3,41,2.0,70.0
5795,66.0,30,27,2.0,66.0
5796,83.0,13,25,0.0,87.0
5797,83.0,10,24,5.0,87.0
5798,83.0,1,24,4.0,85.0
5799,67.0,2,32,2.0,80.0
5800,81.0,2,28,0.0,87.0
5801,50.0,4,44,3.0,85.0
5802,81.0,6,29,5.0,78.0
5803,50.0,3,49,6.0,78.0
5804,81.0,7,31,4.0,64.0
5805,74.0,4,62,1.0,93.0
5806,83.0,10,38,0.0,76.0
5807,83.0,4,43,5.0,57.0
5808,83.0,5,40,4.0,80.0
5809,67.0,10,32,2.0,80.0
5810,72.0,3,51,1.0,85.0
5811,81.0,6,63,5.0,66.0
5812,81.0,3,63,4.0,66.0
5813,81.0,8,75,0.0,80.0
5814,66.0,3,120,2.0,76.0
5815,60.0,41,45,3.0,93.0
5816,60.0,4,45,6.0,78.0
5817,71.0,3,62,1.0,82.0
5818,66.0,5,14,2.0,58.0
5819,79.0,49,35,4.0,63.0
5820,79.0,0,32,5.0,70.0
5821,79.0,0,38,0.0,70.0
5822,72.0,0,44,1.0,91.0
5823,67.0,30,24,2.0,46.0
5824,59.0,34,57,3.0,89.0
5825,59.0,9,57,6.0,80.0
5826,67.0,9,61,2.0,102.0
5827,79.0,0,100,5.0,74.0
5828,79.0,0,105,0.0,95.0
5829,79.0,1,111,4.0,80.0
5830,57.0,35,59,3.0,82.0
5831,69.0,6,49,2.0,66.0
5832,57.0,7,57,6.0,68.0
5833,71.0,1,51,2.0,78.0
5834,77.0,1,51,4.0,68.0
5835,77.0,2,57,0.0,72.0
5836,77.0,7,61,5.0,60.0
5837,55.0,46,70,3.0,70.0
5838,55.0,1,62,6.0,68.0
5839,76.0,2,36,4.0,64.0
5840,72.0,4,49,2.0,87.0
5841,57.0,45,55,3.0,68.0
5842,57.0,1,50,6.0,61.0
5843,76.0,2,52,0.0,68.0
5844,76.0,6,51,5.0,52.0
5845,74.0,0,270,1.0,87.0
5846,74.0,2,52,2.0,93.0
5847,74.0,2,54,4.0,60.0
5848,59.0,50,60,3.0,87.0
5849,74.0,1,57,0.0,80.0
5850,74.0,4,51,5.0,64.0
5851,59.0,2,58,6.0,85.0
5852,76.0,1,41,0.0,66.0
5853,71.0,0,42,1.0,80.0
5854,76.0,5,45,5.0,57.0
5855,76.0,3,50,4.0,64.0
5856,55.0,41,60,3.0,82.0
5857,55.0,6,59,6.0,68.0
5858,72.0,2,40,1.0,87.0
5859,77.0,2,43,0.0,72.0
5860,67.0,1,45,2.0,80.0
5861,57.0,49,49,3.0,74.0
5862,77.0,0,50,4.0,66.0
5863,57.0,1,53,6.0,68.0
5864,77.0,2,51,5.0,59.0
5865,74.0,47,41,0.0,66.0
5866,74.0,1,42,1.0,87.0
5867,74.0,1,46,4.0,61.0
5868,74.0,1,46,5.0,60.0
5869,59.0,1,49,3.0,80.0
5870,59.0,3,53,6.0,66.0
5871,60.0,58,47,3.0,78.0
5872,76.0,4,45,0.0,89.0
5873,76.0,1,44,5.0,80.0
5874,60.0,1,55,6.0,78.0
5875,76.0,1,49,4.0,80.0
5876,72.0,2,51,2.0,95.0
5877,62.0,46,60,6.0,72.0
5878,71.0,11,51,2.0,76.0
5879,62.0,0,63,3.0,87.0
5880,69.0,5,44,2.0,91.0
5881,72.0,5,39,0.0,82.0
5882,60.0,3,50,6.0,66.0
5883,60.0,48,53,3.0,80.0
5884,72.0,4,36,4.0,80.0
5885,72.0,2,44,5.0,68.0
5886,59.0,38,54,3.0,85.0
5887,67.0,3,61,2.0,82.0
5888,59.0,2,64,6.0,59.0
5889,67.0,3,239,1.0,80.0
5890,57.0,53,58,3.0,82.0
5891,57.0,4,55,6.0,63.0
5892,65.0,12,59,2.0,64.0
5893,55.0,27,63,3.0,76.0
5894,76.0,12,51,1.0,80.0
5895,55.0,5,67,6.0,68.0
5896,84.0,0,131,0.0,89.0
5897,84.0,5,140,5.0,85.0
5898,84.0,8,145,4.0,72.0
5899,74.0,5,51,1.0,95.0
5900,53.0,6,60,6.0,52.0
5901,53.0,41,69,3.0,53.0
5902,67.0,10,57,2.0,70.0
5903,72.0,0,46,1.0,82.0
5904,84.0,11,32,0.0,95.0
5905,52.0,4,55,6.0,49.0
5906,84.0,18,26,5.0,76.0
5907,52.0,45,60,3.0,68.0
5908,84.0,1,31,4.0,76.0
5909,69.0,2,48,2.0,85.0
5910,50.0,1,58,3.0,80.0
5911,84.0,4,50,0.0,95.0
5912,50.0,31,65,6.0,78.0
5913,84.0,13,45,5.0,87.0
5914,84.0,5,49,4.0,95.0
5915,82.0,10,42,0.0,72.0
5916,74.0,0,54,2.0,85.0
5917,53.0,32,60,6.0,61.0
5918,82.0,1,42,4.0,78.0
5919,82.0,11,45,5.0,80.0
5920,53.0,1,67,3.0,66.0
5921,77.0,4,141,1.0,91.0
5922,72.0,35,48,2.0,91.0
5923,84.0,2,43,0.0,89.0
5924,84.0,3,38,5.0,87.0
5925,84.0,10,44,4.0,68.0
5926,52.0,9,57,6.0,39.0
5927,52.0,1,63,3.0,55.0
5928,74.0,31,41,2.0,89.0
5929,81.0,8,37,0.0,66.0
5930,77.0,4,37,1.0,91.0
5931,81.0,5,38,5.0,68.0
5932,53.0,0,50,3.0,68.0
5933,53.0,1,50,6.0,63.0
5934,81.0,3,41,4.0,63.0
5935,62.0,50,52,2.0,80.0
5936,55.0,2,57,6.0,72.0
5937,55.0,2,61,3.0,100.0
5938,77.0,1,66,1.0,95.0
5939,81.0,3,49,1.0,87.0
5940,53.0,1,53,3.0,80.0
5941,53.0,49,57,6.0,62.0
5942,82.0,3,128,0.0,87.0
5943,82.0,2,127,5.0,85.0
5944,82.0,3,137,4.0,63.0
5945,79.0,2,44,1.0,85.0
5946,52.0,52,55,6.0,52.0
5947,52.0,4,55,3.0,58.0
5948,82.0,5,29,0.0,68.0
5949,77.0,5,43,1.0,95.0
5950,82.0,6,29,5.0,76.0
5951,82.0,1,29,4.0,66.0
5952,50.0,46,61,6.0,57.0
5953,50.0,3,54,3.0,72.0
5954,67.0,3,156,2.0,87.0
5955,82.0,5,45,0.0,82.0
5956,82.0,1,42,5.0,85.0
5957,82.0,3,43,4.0,98.0
5958,48.0,46,55,3.0,70.0
5959,48.0,0,50,6.0,52.0
5960,72.0,1,46,2.0,76.0
5961,52.0,7,54,6.0,66.0
5962,52.0,47,66,3.0,64.0
5963,70.0,2,39,2.0,100.0
5964,76.0,7,41,0.0,82.0
5965,50.0,2,49,6.0,60.0
5966,76.0,4,42,5.0,66.0
5967,76.0,3,44,4.0,74.0
5968,50.0,55,65,3.0,70.0
5969,72.0,0,39,2.0,87.0
5970,52.0,40,50,3.0,80.0
5971,52.0,2,54,6.0,62.0
5972,76.0,1,267,1.0,98.0
5973,60.0,63,51,2.0,82.0
5974,53.0,0,62,3.0,89.0
5975,53.0,6,56,6.0,72.0
5976,79.0,8,43,1.0,85.0
5977,52.0,4,53,6.0,62.0
5978,52.0,37,60,3.0,82.0
5979,81.0,0,114,0.0,85.0
5980,81.0,5,132,5.0,82.0
5981,77.0,2,35,1.0,89.0
5982,81.0,9,147,4.0,82.0
5983,50.0,49,53,6.0,47.0
5984,50.0,1,53,3.0,58.0
5985,76.0,4,42,1.0,100.0
5986,81.0,8,34,0.0,85.0
5987,81.0,6,34,4.0,74.0
5988,81.0,4,31,5.0,85.0
5989,48.0,44,59,3.0,57.0
5990,48.0,3,60,6.0,51.0
5991,65.0,7,148,2.0,85.0
5992,47.0,40,53,3.0,74.0
5993,81.0,6,52,0.0,91.0
5994,47.0,2,60,6.0,60.0
5995,81.0,0,46,5.0,82.0
5996,81.0,9,49,4.0,93.0
5997,79.0,3,38,0.0,68.0
5998,79.0,1,40,5.0,72.0
5999,79.0,4,45,4.0,64.0
6000,71.0,5,52,2.0,85.0
6001,50.0,1,65,6.0,53.0
6002,50.0,42,68,3.0,59.0
6003,74.0,1,141,1.0,85.0
6004,69.0,49,45,2.0,85.0
6005,81.0,1,49,0.0,80.0
6006,81.0,2,47,5.0,78.0
6007,81.0,2,44,4.0,64.0
6008,48.0,2,55,3.0,53.0
6009,48.0,4,61,6.0,40.0
6010,74.0,41,34,1.0,100.0
6011,77.0,0,34,0.0,66.0
6012,71.0,2,46,2.0,80.0
6013,77.0,2,35,5.0,70.0
6014,77.0,1,45,4.0,66.0
6015,50.0,2,45,3.0,64.0
6016,50.0,6,52,6.0,60.0
6017,59.0,9,49,2.0,70.0
6018,74.0,48,59,1.0,89.0
6019,52.0,2,54,3.0,95.0
6020,52.0,0,61,6.0,78.0
6021,77.0,46,52,1.0,85.0
6022,50.0,0,58,3.0,80.0
6023,79.0,1,113,0.0,70.0
6024,50.0,3,65,6.0,64.0
6025,79.0,0,131,5.0,80.0
6026,79.0,1,134,4.0,72.0
6027,76.0,60,44,1.0,82.0
6028,48.0,1,51,3.0,66.0
6029,48.0,1,60,6.0,57.0
6030,79.0,2,27,0.0,76.0
6031,79.0,5,36,4.0,72.0
6032,79.0,0,35,5.0,68.0
6033,74.0,52,44,1.0,95.0
6034,47.0,0,54,3.0,78.0
6035,47.0,0,64,6.0,59.0
6036,64.0,4,143,2.0,89.0
6037,79.0,0,40,4.0,78.0
6038,79.0,53,44,0.0,89.0
6039,79.0,0,43,5.0,80.0
6040,45.0,1,53,3.0,68.0
6041,45.0,3,57,6.0,62.0
6042,69.0,3,49,2.0,87.0
6043,48.0,1,67,6.0,61.0
6044,48.0,49,68,3.0,68.0
6045,67.0,54,46,2.0,74.0
6046,72.0,3,43,0.0,78.0
6047,72.0,3,47,4.0,68.0
6048,72.0,6,41,5.0,76.0
6049,47.0,7,66,3.0,55.0
6050,47.0,2,72,6.0,52.0
6051,69.0,36,33,2.0,82.0
6052,48.0,5,49,3.0,72.0
6053,48.0,2,53,6.0,62.0
6054,72.0,3,279,1.0,82.0
6055,57.0,1,44,2.0,80.0
6056,50.0,2,59,3.0,89.0
6057,50.0,62,63,6.0,82.0
6058,48.0,0,54,3.0,76.0
6059,48.0,30,56,6.0,72.0
6060,76.0,13,48,1.0,82.0
6061,77.0,1,135,0.0,82.0
6062,77.0,4,141,5.0,80.0
6063,77.0,17,137,4.0,85.0
6064,47.0,0,55,3.0,62.0
6065,74.0,4,43,1.0,85.0
6066,47.0,44,60,6.0,62.0
6067,77.0,5,33,0.0,70.0
6068,72.0,7,44,1.0,89.0
6069,45.0,44,58,6.0,58.0
6070,45.0,0,60,3.0,62.0
6071,77.0,17,33,5.0,72.0
6072,77.0,10,34,4.0,87.0
6073,62.0,11,142,2.0,95.0
6074,77.0,6,52,0.0,85.0
6075,71.0,30,66,1.0,87.0
6076,43.0,1,72,3.0,80.0
6077,77.0,15,55,5.0,85.0
6078,43.0,1,81,6.0,82.0
6079,77.0,5,62,4.0,91.0
6080,81.0,1,41,0.0,80.0
6081,72.0,37,47,2.0,91.0
6082,81.0,14,52,5.0,76.0
6083,81.0,7,47,4.0,87.0
6084,55.0,5,28,6.0,64.0
6085,55.0,0,37,3.0,80.0
6086,79.0,0,47,0.0,78.0
6087,74.0,2,50,1.0,87.0
6088,79.0,7,46,5.0,70.0
6089,71.0,36,67,2.0,74.0
6090,79.0,9,47,4.0,76.0
6091,77.0,36,47,0.0,66.0
6092,69.0,3,57,2.0,82.0
6093,77.0,8,70,5.0,64.0
6094,77.0,5,87,4.0,78.0
6095,55.0,10,42,6.0,78.0
6096,55.0,0,41,3.0,82.0
6097,67.0,1,57,2.0,68.0
6098,76.0,41,60,0.0,63.0
6099,71.0,0,53,1.0,87.0
6100,76.0,1,57,5.0,57.0
6101,76.0,7,56,4.0,66.0
6102,74.0,40,49,0.0,63.0
6103,74.0,5,41,4.0,64.0
6104,65.0,1,62,2.0,80.0
6105,74.0,10,58,5.0,58.0
6106,64.0,1,39,2.0,87.0
6107,72.0,46,49,0.0,56.0
6108,55.0,3,43,6.0,76.0
6109,55.0,2,45,3.0,80.0
6110,67.0,1,53,1.0,85.0
6111,72.0,3,64,5.0,54.0
6112,72.0,2,66,4.0,66.0
6113,62.0,43,26,2.0,66.0
6114,71.0,1,42,0.0,64.0
6115,71.0,6,52,5.0,49.0
6116,71.0,4,50,4.0,61.0
6117,72.0,2,51,5.0,70.0
6118,72.0,59,55,0.0,63.0
6119,72.0,3,58,4.0,68.0
6120,76.0,3,41,0.0,68.0
6121,76.0,44,53,5.0,52.0
6122,52.0,2,112,3.0,89.0
6123,76.0,4,52,4.0,53.0
6124,52.0,3,107,6.0,87.0
6125,67.0,3,108,2.0,82.0
6126,69.0,4,41,2.0,80.0
6127,53.0,6,47,6.0,72.0
6128,53.0,58,57,3.0,78.0
6129,81.0,0,56,5.0,82.0
6130,81.0,3,57,4.0,78.0
6131,81.0,0,61,0.0,85.0
6132,72.0,3,175,1.0,89.0
6133,71.0,0,35,2.0,80.0
6134,79.0,6,44,0.0,74.0
6135,55.0,39,51,3.0,82.0
6136,55.0,1,50,6.0,74.0
6137,79.0,0,51,4.0,76.0
6138,79.0,4,48,5.0,66.0
6139,57.0,50,40,3.0,85.0
6140,72.0,3,38,2.0,98.0
6141,57.0,1,45,6.0,72.0
6142,77.0,0,55,0.0,82.0
6143,77.0,7,65,4.0,60.0
6144,77.0,2,68,5.0,60.0
6145,60.0,36,63,1.0,89.0
6146,76.0,2,59,0.0,64.0
6147,76.0,17,62,4.0,60.0
6148,76.0,1,59,5.0,60.0
6149,53.0,10,48,3.0,85.0
6150,53.0,0,50,6.0,78.0
6151,62.0,44,64,1.0,80.0
6152,74.0,3,49,5.0,64.0
6153,57.0,4,52,2.0,85.0
6154,74.0,4,57,0.0,66.0
6155,74.0,0,56,4.0,62.0
6156,72.0,6,38,0.0,60.0
6157,64.0,39,49,1.0,82.0
6158,72.0,7,31,5.0,47.0
6159,72.0,6,47,4.0,53.0
6160,50.0,1,48,3.0,85.0
6161,65.0,51,52,1.0,91.0
6162,50.0,0,53,6.0,64.0
6163,71.0,2,68,0.0,68.0
6164,71.0,4,65,4.0,85.0
6165,71.0,3,66,5.0,74.0
6166,62.0,5,61,2.0,100.0
6167,69.0,2,51,0.0,60.0
6168,62.0,45,53,1.0,85.0
6169,69.0,3,44,4.0,63.0
6170,60.0,2,48,2.0,72.0
6171,69.0,3,58,5.0,61.0
6172,55.0,49,41,3.0,85.0
6173,55.0,0,47,6.0,80.0
6174,67.0,0,50,4.0,58.0
6175,67.0,2,49,0.0,57.0
6176,64.0,4,60,1.0,82.0
6177,67.0,4,53,5.0,60.0
6178,59.0,1,64,2.0,85.0
6179,69.0,0,39,0.0,61.0
6180,65.0,3,45,1.0,82.0
6181,69.0,1,45,4.0,64.0
6182,69.0,4,50,5.0,63.0
6183,57.0,48,58,2.0,80.0
6184,43.0,4,46,3.0,89.0
6185,71.0,1,44,4.0,82.0
6186,55.0,50,53,2.0,68.0
6187,71.0,2,51,0.0,85.0
6188,43.0,1,50,6.0,61.0
6189,71.0,4,53,5.0,78.0
6190,69.0,0,45,0.0,64.0
6191,53.0,44,58,2.0,89.0
6192,69.0,5,54,4.0,53.0
6193,69.0,0,55,5.0,58.0
6194,67.0,4,130,1.0,87.0
6195,52.0,48,45,2.0,85.0
6196,71.0,4,43,0.0,80.0
6197,53.0,7,47,3.0,85.0
6198,71.0,2,44,5.0,64.0
6199,71.0,0,45,4.0,58.0
6200,53.0,2,49,6.0,78.0
6201,67.0,11,36,1.0,87.0
6202,67.0,0,41,0.0,63.0
6203,67.0,2,41,5.0,63.0
6204,67.0,6,38,4.0,56.0
6205,50.0,41,58,2.0,62.0
6206,52.0,0,47,3.0,89.0
6207,67.0,1,52,1.0,89.0
6208,52.0,2,47,6.0,72.0
6209,48.0,0,67,2.0,70.0
6210,65.0,48,45,1.0,70.0
6211,72.0,0,119,0.0,85.0
6212,72.0,55,142,5.0,78.0
6213,72.0,5,140,4.0,78.0
6214,48.0,4,43,6.0,60.0
6215,48.0,1,52,3.0,82.0
6216,64.0,62,54,1.0,89.0
6217,55.0,9,45,2.0,82.0
6218,74.0,35,28,0.0,74.0
6219,65.0,2,32,1.0,80.0
6220,74.0,15,26,5.0,66.0
6221,74.0,1,27,4.0,70.0
6222,72.0,48,30,0.0,95.0
6223,64.0,2,31,1.0,98.0
6224,55.0,1,34,3.0,95.0
6225,72.0,0,27,4.0,91.0
6226,72.0,9,28,5.0,82.0
6227,55.0,4,40,6.0,85.0
6228,71.0,8,28,0.0,66.0
6229,62.0,4,28,1.0,80.0
6230,71.0,8,29,5.0,80.0
6231,71.0,3,28,4.0,82.0
6232,55.0,4,52,2.0,87.0
6233,72.0,8,33,0.0,66.0
6234,64.0,3,38,1.0,76.0
6235,72.0,12,40,4.0,78.0
6236,72.0,2,41,5.0,76.0
6237,71.0,9,52,0.0,74.0
6238,62.0,5,53,1.0,82.0
6239,71.0,1,52,5.0,66.0
6240,71.0,15,53,4.0,72.0
6241,43.0,1,45,3.0,82.0
6242,55.0,12,46,2.0,87.0
6243,43.0,29,59,6.0,70.0
6244,72.0,39,33,0.0,78.0
6245,72.0,3,29,5.0,76.0
6246,64.0,3,36,1.0,74.0
6247,72.0,8,34,4.0,78.0
6248,64.0,1,66,1.0,95.0
6249,72.0,54,68,0.0,95.0
6250,77.0,50,45,0.0,76.0
6251,72.0,0,99,4.0,85.0
6252,69.0,7,47,1.0,91.0
6253,67.0,7,36,1.0,70.0
6254,76.0,52,45,0.0,82.0
6255,79.0,8,39,4.0,85.0
6256,65.0,4,48,1.0,78.0
6257,74.0,44,57,0.0,68.0
6258,72.0,1,241,5.0,72.0
6259,55.0,6,244,2.0,80.0
6260,48.0,1,249,6.0,66.0
6261,48.0,0,260,3.0,89.0
6262,72.0,56,53,0.0,68.0
6263,64.0,9,47,1.0,78.0
6264,79.0,12,46,4.0,80.0
6265,70.0,40,42,0.0,54.0
6266,62.0,0,59,1.0,70.0
6267,64.0,56,43,1.0,64.0
6268,72.0,6,50,0.0,66.0
6269,79.0,17,36,4.0,82.0
6270,69.0,3,43,0.0,56.0
6271,60.0,35,51,1.0,61.0
6272,58.0,50,45,6.0,68.0
6273,76.0,9,113,4.0,76.0
6274,70.0,7,158,0.0,59.0
6275,67.0,59,168,1.0,68.0
6276,57.0,59,55,6.0,70.0
6277,77.0,16,47,4.0,68.0
6278,79.0,2,46,4.0,70.0
6279,55.0,46,54,6.0,64.0
6280,81.0,1,36,4.0,87.0
6281,53.0,62,41,6.0,64.0
6282,52.0,48,45,6.0,58.0
6283,77.0,10,37,4.0,82.0
6284,53.0,60,59,6.0,62.0
6285,50.0,48,48,6.0,58.0
6286,74.0,4,38,4.0,78.0
6287,55.0,66,48,6.0,80.0
6288,53.0,56,46,6.0,60.0
6289,79.0,4,37,4.0,85.0
6290,55.0,58,47,6.0,64.0
6291,57.0,57,47,6.0,70.0
6292,72.0,6,476,5.0,66.0
6293,67.0,61,40,4.0,72.0
6294,55.0,1,40,6.0,78.0
6295,53.0,48,38,6.0,68.0
6296,52.0,58,47,6.0,64.0
6297,77.0,12,38,4.0,82.0
6298,50.0,43,44,6.0,70.0
6299,71.0,8,231,5.0,62.0
6300,72.0,13,91,5.0,44.0
6301,59.0,4,58,0.0,82.0
6302,59.0,41,62,2.0,68.0
6303,59.0,5,61,1.0,82.0
6304,60.0,5,53,0.0,66.0
6305,60.0,52,58,2.0,55.0
6306,60.0,5,55,1.0,78.0
6307,79.0,8,49,5.0,62.0
6308,62.0,38,56,2.0,66.0
6309,62.0,7,50,0.0,70.0
6310,62.0,4,52,1.0,68.0
6311,76.0,2,240,4.0,68.0
6312,48.0,67,267,6.0,59.0
6313,64.0,2,43,0.0,80.0
6314,64.0,57,45,2.0,70.0
6315,64.0,4,45,1.0,78.0
6316,79.0,11,41,5.0,85.0
6317,62.0,3,64,2.0,66.0
6318,62.0,2,64,1.0,68.0
6319,62.0,34,71,0.0,64.0
6320,79.0,9,40,5.0,85.0
6321,64.0,4,57,2.0,59.0
6322,64.0,62,64,0.0,66.0
6323,64.0,5,57,1.0,64.0
6324,65.0,46,51,0.0,72.0
6325,65.0,4,51,2.0,55.0
6326,65.0,3,51,1.0,61.0
6327,67.0,58,60,0.0,74.0
6328,67.0,2,57,1.0,68.0
6329,67.0,6,64,2.0,68.0
6330,70.0,1,53,1.0,70.0
6331,70.0,50,59,0.0,68.0
6332,70.0,4,61,2.0,57.0
6333,76.0,1,127,5.0,78.0
6334,69.0,52,58,0.0,68.0
6335,69.0,2,50,2.0,70.0
6336,69.0,8,56,1.0,80.0
6337,77.0,8,49,5.0,78.0
6338,67.0,1,47,2.0,62.0
6339,67.0,41,56,0.0,63.0
6340,79.0,6,50,5.0,72.0
6341,67.0,1,49,1.0,60.0
6342,81.0,3,38,5.0,72.0
6343,65.0,54,49,0.0,66.0
6344,65.0,1,51,2.0,63.0
6345,65.0,2,51,1.0,63.0
6346,64.0,48,51,0.0,60.0
6347,64.0,4,49,2.0,57.0
6348,64.0,1,49,1.0,51.0
6349,65.0,54,52,0.0,68.0
6350,65.0,9,45,1.0,58.0
6351,77.0,4,43,5.0,76.0
6352,65.0,0,58,2.0,57.0
6353,62.0,7,39,2.0,58.0
6354,62.0,40,51,0.0,76.0
6355,62.0,2,47,1.0,60.0
6356,67.0,56,49,0.0,87.0
6357,67.0,6,48,1.0,80.0
6358,67.0,1,52,2.0,70.0
6359,74.0,12,42,5.0,66.0
6360,65.0,38,49,0.0,85.0
6361,65.0,7,44,1.0,70.0
6362,65.0,1,48,2.0,40.0
6363,67.0,52,53,0.0,78.0
6364,79.0,9,36,5.0,76.0
6365,67.0,5,53,1.0,66.0
6366,67.0,6,58,2.0,63.0
6367,69.0,1,46,0.0,74.0
6368,69.0,45,52,1.0,66.0
6369,69.0,9,51,2.0,63.0
6370,72.0,1,468,4.0,56.0
6371,67.0,51,45,0.0,76.0
6372,67.0,2,53,1.0,70.0
6373,67.0,3,48,2.0,62.0
6374,67.0,5,46,5.0,62.0
6375,65.0,47,44,0.0,68.0
6376,65.0,1,49,1.0,64.0
6377,65.0,2,48,2.0,60.0
6378,64.0,56,51,0.0,70.0
6379,64.0,4,48,1.0,59.0
6380,77.0,11,34,5.0,76.0
6381,64.0,3,46,2.0,62.0
6382,71.0,3,203,4.0,59.0
6383,62.0,39,38,0.0,78.0
6384,62.0,7,41,1.0,68.0
6385,62.0,2,54,2.0,66.0
6386,60.0,58,60,0.0,89.0
6387,76.0,6,52,5.0,72.0
6388,60.0,5,71,1.0,80.0
6389,72.0,8,58,4.0,64.0
6390,76.0,3,49,0.0,66.0
6391,79.0,53,57,5.0,66.0
6392,79.0,0,59,4.0,78.0
6393,60.0,49,43,3.0,76.0
6394,60.0,0,40,6.0,70.0
6395,76.0,3,53,1.0,85.0
6396,77.0,3,51,0.0,68.0
6397,77.0,0,46,5.0,50.0
6398,77.0,6,57,4.0,51.0
6399,79.0,46,43,0.0,80.0
6400,79.0,4,46,5.0,53.0
6401,79.0,0,52,4.0,66.0
6402,60.0,1,258,2.0,68.0
6403,60.0,54,44,3.0,78.0
6404,60.0,1,44,6.0,74.0
6405,72.0,5,45,1.0,82.0
6406,81.0,0,54,5.0,74.0
6407,81.0,1,57,4.0,80.0
6408,81.0,3,58,0.0,95.0
6409,79.0,3,55,5.0,61.0
6410,79.0,4,53,0.0,80.0
6411,79.0,45,61,4.0,70.0
6412,60.0,5,41,3.0,80.0
6413,60.0,1,41,6.0,78.0
6414,64.0,2,41,2.0,82.0
6415,77.0,54,55,4.0,57.0
6416,77.0,3,49,0.0,68.0
6417,77.0,2,49,5.0,53.0
6418,76.0,6,40,0.0,68.0
6419,76.0,4,44,5.0,49.0
6420,76.0,40,59,4.0,48.0
6421,74.0,56,44,0.0,68.0
6422,65.0,5,49,2.0,64.0
6423,74.0,3,59,5.0,72.0
6424,74.0,0,71,4.0,82.0
6425,69.0,3,211,1.0,72.0
6426,77.0,45,58,0.0,66.0
6427,59.0,1,108,3.0,80.0
6428,77.0,5,52,5.0,62.0
6429,59.0,0,114,6.0,78.0
6430,77.0,5,60,4.0,66.0
6431,62.0,5,43,2.0,87.0
6432,76.0,50,54,0.0,62.0
6433,67.0,5,38,1.0,87.0
6434,76.0,0,46,5.0,46.0
6435,60.0,5,50,3.0,76.0
6436,76.0,2,56,4.0,41.0
6437,60.0,2,51,6.0,78.0
6438,77.0,0,45,0.0,82.0
6439,62.0,3,45,3.0,72.0
6440,62.0,37,51,6.0,72.0
6441,65.0,1,48,1.0,80.0
6442,77.0,7,50,5.0,57.0
6443,77.0,1,54,4.0,58.0
6444,64.0,49,41,6.0,80.0
6445,64.0,1,45,3.0,87.0
6446,79.0,6,50,5.0,68.0
6447,64.0,1,46,1.0,85.0
6448,79.0,2,61,0.0,91.0
6449,79.0,1,55,4.0,72.0
6450,77.0,47,47,0.0,78.0
6451,77.0,2,58,5.0,60.0
6452,77.0,3,60,4.0,64.0
6453,59.0,3,116,2.0,85.0
6454,60.0,1,42,6.0,80.0
6455,60.0,0,43,3.0,82.0
6456,67.0,2,41,1.0,87.0
6457,76.0,58,49,0.0,72.0
6458,60.0,3,44,2.0,76.0
6459,76.0,3,57,5.0,59.0
6460,76.0,1,60,4.0,58.0
6461,62.0,0,39,2.0,80.0
6462,74.0,48,50,0.0,66.0
6463,74.0,6,48,5.0,57.0
6464,74.0,3,53,4.0,57.0
6465,72.0,52,48,0.0,80.0
6466,57.0,0,43,6.0,72.0
6467,72.0,6,46,5.0,63.0
6468,57.0,3,54,3.0,72.0
6469,64.0,1,52,2.0,82.0
6470,72.0,1,60,4.0,76.0
6471,76.0,41,46,0.0,66.0
6472,67.0,13,56,2.0,82.0
6473,76.0,1,59,4.0,68.0
6474,76.0,0,60,5.0,64.0
6475,62.0,46,45,3.0,80.0
6476,74.0,3,45,0.0,78.0
6477,62.0,7,44,6.0,89.0
6478,65.0,1,57,2.0,63.0
6479,74.0,0,61,5.0,44.0
6480,74.0,2,65,4.0,48.0
6481,76.0,45,47,0.0,85.0
6482,76.0,11,48,5.0,61.0
6483,64.0,1,49,2.0,72.0
6484,76.0,2,51,4.0,59.0
6485,69.0,2,255,1.0,82.0
6486,62.0,3,45,2.0,80.0
6487,50.0,48,60,3.0,85.0
6488,50.0,0,49,6.0,82.0
6489,60.0,44,49,2.0,64.0
6490,69.0,4,52,1.0,80.0
6491,77.0,11,132,5.0,70.0
6492,77.0,1,145,0.0,82.0
6493,77.0,2,146,4.0,74.0
6494,59.0,55,46,2.0,60.0
6495,71.0,2,48,1.0,82.0
6496,60.0,6,51,3.0,80.0
6497,60.0,6,46,6.0,82.0
6498,77.0,5,34,0.0,91.0
6499,57.0,42,44,2.0,87.0
6500,77.0,9,31,5.0,78.0
6501,72.0,5,45,1.0,80.0
6502,77.0,9,32,4.0,82.0
6503,74.0,0,49,1.0,87.0
6504,59.0,3,52,3.0,82.0
6505,59.0,0,48,6.0,80.0
6506,77.0,5,53,0.0,98.0
6507,77.0,3,54,5.0,74.0
6508,77.0,11,51,4.0,89.0
6509,72.0,0,44,1.0,80.0
6510,76.0,39,47,0.0,78.0
6511,76.0,4,55,5.0,58.0
6512,76.0,5,53,4.0,59.0
6513,55.0,41,132,2.0,82.0
6514,77.0,2,40,0.0,82.0
6515,74.0,2,44,1.0,87.0
6516,55.0,3,42,6.0,68.0
6517,55.0,48,50,3.0,63.0
6518,77.0,1,50,5.0,60.0
6519,77.0,1,55,4.0,68.0
6520,74.0,33,46,0.0,74.0
6521,71.0,3,43,1.0,78.0
6522,74.0,3,48,4.0,64.0
6523,74.0,3,54,5.0,64.0
6524,60.0,54,41,3.0,89.0
6525,60.0,0,37,6.0,82.0
6526,76.0,4,53,0.0,93.0
6527,76.0,1,53,5.0,66.0
6528,67.0,16,158,2.0,85.0
6529,76.0,0,57,4.0,80.0
6530,79.0,53,48,0.0,82.0
6531,79.0,1,61,4.0,64.0
6532,79.0,7,55,5.0,60.0
6533,64.0,7,56,2.0,78.0
6534,77.0,0,44,0.0,78.0
6535,48.0,0,42,6.0,85.0
6536,48.0,43,54,3.0,85.0
6537,77.0,3,56,4.0,56.0
6538,77.0,6,59,5.0,41.0
6539,62.0,4,63,2.0,63.0
6540,79.0,3,46,0.0,87.0
6541,79.0,4,53,5.0,60.0
6542,79.0,44,60,4.0,72.0
6543,64.0,5,60,2.0,80.0
6544,72.0,4,265,1.0,89.0
6545,53.0,1,49,6.0,82.0
6546,53.0,51,55,3.0,85.0
6547,72.0,0,51,1.0,78.0
6548,57.0,2,54,6.0,80.0
6549,57.0,50,59,3.0,80.0
6550,70.0,54,46,1.0,72.0
6551,55.0,2,52,3.0,51.0
6552,55.0,7,56,6.0,60.0
6553,72.0,46,48,1.0,87.0
6554,57.0,3,56,6.0,74.0
6555,65.0,2,228,2.0,74.0
6556,57.0,6,59,3.0,66.0
6557,81.0,3,276,0.0,78.0
6558,81.0,5,278,5.0,66.0
6559,58.0,58,57,6.0,80.0
6560,58.0,2,57,3.0,74.0
6561,81.0,1,300,4.0,80.0
6562,74.0,5,48,0.0,87.0
6563,65.0,1,54,2.0,64.0
6564,57.0,2,58,6.0,72.0
6565,57.0,53,64,3.0,63.0
6566,74.0,4,60,5.0,64.0
6567,74.0,18,51,4.0,78.0
6568,76.0,4,39,0.0,72.0
6569,67.0,33,59,2.0,78.0
6570,55.0,0,57,3.0,60.0
6571,55.0,2,58,6.0,57.0
6572,76.0,1,54,5.0,68.0
6573,76.0,13,53,4.0,64.0
6574,77.0,39,39,0.0,87.0
6575,53.0,1,43,3.0,68.0
6576,69.0,1,45,2.0,82.0
6577,53.0,3,43,6.0,58.0
6578,77.0,0,51,5.0,63.0
6579,77.0,12,56,4.0,66.0
6580,67.0,2,35,2.0,85.0
6581,74.0,1,276,1.0,80.0
6582,52.0,45,45,3.0,72.0
6583,52.0,0,45,6.0,64.0
6584,76.0,5,45,1.0,82.0
6585,67.0,0,51,2.0,85.0
6586,55.0,34,63,3.0,59.0
6587,55.0,1,62,6.0,61.0
6588,74.0,2,37,1.0,80.0
6589,69.0,53,47,2.0,74.0
6590,53.0,4,65,3.0,53.0
6591,53.0,3,64,6.0,56.0
6592,76.0,2,38,1.0,76.0
6593,70.0,49,47,2.0,74.0
6594,55.0,2,47,3.0,70.0
6595,55.0,4,46,6.0,72.0
6596,79.0,0,277,0.0,82.0
6597,79.0,11,265,4.0,68.0
6598,57.0,1,50,3.0,85.0
6599,64.0,7,53,2.0,82.0
6600,79.0,9,286,5.0,76.0
6601,57.0,2,60,6.0,85.0
6602,55.0,56,49,3.0,66.0
6603,55.0,0,58,6.0,64.0
6604,72.0,4,59,0.0,74.0
6605,72.0,8,58,5.0,70.0
6606,72.0,3,59,4.0,70.0
6607,53.0,2,46,3.0,57.0
6608,74.0,1,45,0.0,82.0
6609,53.0,1,48,6.0,60.0
6610,74.0,5,62,5.0,63.0
6611,74.0,1,61,4.0,68.0
6612,76.0,47,42,0.0,87.0
6613,52.0,2,41,3.0,64.0
6614,52.0,1,40,6.0,57.0
6615,76.0,8,53,5.0,60.0
6616,76.0,2,51,4.0,66.0
6617,69.0,46,162,2.0,89.0
6618,77.0,52,50,0.0,98.0
6619,77.0,1,59,5.0,72.0
6620,77.0,1,61,4.0,82.0
6621,72.0,54,342,1.0,82.0
6622,76.0,45,44,0.0,87.0
6623,67.0,0,53,2.0,87.0
6624,50.0,10,103,6.0,78.0
6625,50.0,1,114,3.0,80.0
6626,76.0,11,56,5.0,60.0
6627,76.0,2,56,4.0,70.0
6628,65.0,45,40,2.0,82.0
6629,71.0,7,48,1.0,89.0
6630,74.0,0,57,0.0,85.0
6631,52.0,0,45,6.0,70.0
6632,52.0,8,46,3.0,80.0
6633,74.0,2,56,5.0,52.0
6634,74.0,1,65,4.0,58.0
6635,72.0,4,36,0.0,64.0
6636,64.0,35,47,2.0,95.0
6637,53.0,3,36,6.0,66.0
6638,69.0,5,46,1.0,82.0
6639,72.0,0,42,5.0,57.0
6640,53.0,4,42,3.0,70.0
6641,72.0,3,50,4.0,66.0
6642,62.0,46,54,2.0,85.0
6643,55.0,6,43,6.0,87.0
6644,67.0,3,50,1.0,82.0
6645,71.0,3,60,0.0,82.0
6646,55.0,3,45,3.0,85.0
6647,71.0,1,51,4.0,58.0
6648,71.0,2,54,5.0,58.0
6649,74.0,44,56,0.0,80.0
6650,74.0,9,61,4.0,66.0
6651,74.0,3,59,5.0,59.0
6652,67.0,50,38,2.0,87.0
6653,43.0,3,41,6.0,82.0
6654,43.0,1,42,3.0,87.0
6655,71.0,0,45,1.0,85.0
6656,76.0,1,59,0.0,70.0
6657,76.0,2,67,4.0,63.0
6658,76.0,6,76,5.0,63.0
6659,77.0,45,43,0.0,78.0
6660,77.0,0,41,4.0,66.0
6661,77.0,11,45,5.0,63.0
6662,76.0,49,51,0.0,89.0
6663,76.0,2,57,4.0,78.0
6664,76.0,3,57,5.0,66.0
6665,48.0,1,61,3.0,91.0
6666,48.0,3,61,6.0,85.0
6667,79.0,41,52,0.0,74.0
6668,79.0,3,58,5.0,63.0
6669,79.0,7,62,4.0,60.0
6670,55.0,10,50,3.0,80.0
6671,55.0,4,47,6.0,80.0
6672,72.0,1,145,1.0,95.0
6673,77.0,37,53,0.0,57.0
6674,57.0,0,47,3.0,74.0
6675,57.0,0,50,6.0,70.0
6676,77.0,11,57,4.0,57.0
6677,67.0,7,185,2.0,93.0
6678,77.0,5,59,5.0,41.0
6679,79.0,45,46,0.0,70.0
6680,59.0,3,42,3.0,85.0
6681,59.0,0,46,6.0,85.0
6682,74.0,2,50,1.0,85.0
6683,79.0,1,49,4.0,63.0
6684,79.0,4,48,5.0,58.0
6685,72.0,53,39,1.0,74.0
6686,81.0,2,60,4.0,64.0
6687,81.0,1,65,0.0,89.0
6688,81.0,6,60,5.0,70.0
6689,71.0,41,42,1.0,87.0
6690,79.0,7,54,0.0,74.0
6691,79.0,0,61,4.0,64.0
6692,79.0,5,56,5.0,59.0
6693,60.0,1,130,6.0,85.0
6694,64.0,1,130,2.0,95.0
6695,60.0,4,141,3.0,80.0
6696,69.0,48,43,1.0,85.0
6697,77.0,6,58,0.0,72.0
6698,77.0,1,62,4.0,53.0
6699,77.0,5,63,5.0,53.0
6700,67.0,41,35,1.0,87.0
6701,60.0,3,30,6.0,91.0
6702,60.0,1,34,3.0,80.0
6703,64.0,7,52,2.0,78.0
6704,76.0,5,48,4.0,55.0
6705,76.0,3,50,0.0,72.0
6706,76.0,5,54,5.0,56.0
6707,69.0,1,50,2.0,95.0
6708,60.0,5,50,3.0,89.0
6709,74.0,4,61,0.0,89.0
6710,60.0,2,56,6.0,91.0
6711,74.0,0,69,4.0,80.0
6712,74.0,3,56,5.0,70.0
6713,59.0,0,45,3.0,80.0
6714,77.0,0,56,0.0,70.0
6715,59.0,5,51,6.0,82.0
6716,77.0,46,67,4.0,63.0
6717,77.0,5,57,5.0,62.0
6718,65.0,49,135,1.0,89.0
6719,60.0,0,44,3.0,82.0
6720,76.0,4,47,0.0,57.0
6721,60.0,2,46,6.0,78.0
6722,57.0,50,57,2.0,87.0
6723,76.0,7,55,5.0,49.0
6724,76.0,0,64,4.0,49.0
6725,72.0,42,44,1.0,78.0
6726,57.0,2,46,3.0,68.0
6727,77.0,5,43,0.0,78.0
6728,57.0,0,46,6.0,66.0
6729,77.0,3,49,5.0,59.0
6730,77.0,4,59,4.0,59.0
6731,79.0,1,58,0.0,95.0
6732,79.0,2,55,5.0,66.0
6733,79.0,1,62,4.0,68.0
6734,71.0,0,72,1.0,85.0
6735,69.0,1,39,1.0,78.0
6736,77.0,1,48,0.0,85.0
6737,77.0,3,59,5.0,60.0
6738,77.0,52,67,4.0,66.0
6739,59.0,54,145,3.0,87.0
6740,62.0,3,143,2.0,85.0
6741,59.0,0,147,6.0,89.0
6742,67.0,51,47,1.0,98.0
6743,76.0,6,52,0.0,78.0
6744,76.0,3,56,5.0,58.0
6745,76.0,2,62,4.0,60.0
6746,65.0,43,42,1.0,78.0
6747,59.0,3,30,3.0,87.0
6748,59.0,3,35,6.0,91.0
6749,74.0,1,46,0.0,85.0
6750,74.0,2,45,4.0,58.0
6751,62.0,11,50,2.0,89.0
6752,74.0,1,53,5.0,58.0
6753,59.0,4,36,3.0,91.0
6754,72.0,1,50,0.0,82.0
6755,67.0,2,53,2.0,98.0
6756,72.0,0,51,5.0,59.0
6757,59.0,8,43,6.0,87.0
6758,72.0,1,62,4.0,78.0
6759,76.0,41,59,0.0,66.0
6760,76.0,5,63,5.0,63.0
6761,76.0,4,65,4.0,68.0
6762,64.0,47,138,1.0,85.0
6763,55.0,0,48,2.0,91.0
6764,52.0,5,45,3.0,82.0
6765,52.0,1,46,6.0,89.0
6766,74.0,2,60,0.0,53.0
6767,74.0,55,66,5.0,45.0
6768,74.0,0,61,4.0,52.0
6769,71.0,47,35,1.0,82.0
6770,76.0,7,42,0.0,76.0
6771,76.0,2,53,5.0,53.0
6772,76.0,5,56,4.0,55.0
6773,77.0,0,55,5.0,57.0
6774,69.0,1,56,1.0,100.0
6775,77.0,5,58,4.0,61.0
6776,77.0,3,65,0.0,87.0
6777,67.0,45,44,1.0,80.0
6778,76.0,4,53,0.0,72.0
6779,76.0,1,61,5.0,60.0
6780,76.0,3,56,4.0,66.0
6781,57.0,3,135,3.0,80.0
6782,57.0,3,135,6.0,85.0
6783,60.0,48,152,2.0,78.0
6784,65.0,53,45,1.0,87.0
6785,74.0,5,50,4.0,47.0
6786,74.0,6,56,0.0,64.0
6787,74.0,0,61,5.0,51.0
6788,57.0,3,31,3.0,85.0
6789,64.0,44,41,1.0,72.0
6790,57.0,1,30,6.0,82.0
6791,60.0,6,39,2.0,87.0
6792,72.0,1,48,0.0,68.0
6793,72.0,3,45,5.0,52.0
6794,72.0,1,54,4.0,46.0
6795,65.0,0,47,2.0,87.0
6796,57.0,2,49,3.0,85.0
6797,71.0,16,55,0.0,80.0
6798,57.0,4,50,6.0,91.0
6799,71.0,2,57,5.0,68.0
6800,71.0,0,69,4.0,76.0
6801,55.0,44,44,3.0,68.0
6802,55.0,5,49,6.0,64.0
6803,74.0,0,61,0.0,68.0
6804,74.0,2,60,5.0,64.0
6805,74.0,4,64,4.0,68.0
6806,62.0,39,153,1.0,68.0
6807,57.0,47,41,3.0,80.0
6808,57.0,7,44,6.0,74.0
6809,53.0,1,49,2.0,76.0
6810,72.0,5,57,0.0,62.0
6811,72.0,4,56,4.0,44.0
6812,72.0,1,58,5.0,33.0
6813,53.0,37,43,3.0,70.0
6814,53.0,8,45,6.0,68.0
6815,69.0,1,34,1.0,89.0
6816,74.0,8,47,0.0,76.0
6817,74.0,4,56,4.0,57.0
6818,74.0,0,56,5.0,53.0
6819,67.0,4,35,1.0,91.0
6820,76.0,1,59,4.0,63.0
6821,76.0,1,59,0.0,82.0
6822,76.0,0,62,5.0,55.0
6823,65.0,1,44,1.0,98.0
6824,74.0,1,54,0.0,72.0
6825,74.0,48,61,4.0,64.0
6826,74.0,5,59,5.0,58.0
6827,55.0,44,142,3.0,68.0
6828,55.0,1,139,6.0,72.0
6829,59.0,10,154,2.0,85.0
6830,64.0,52,41,1.0,95.0
6831,72.0,4,54,4.0,58.0
6832,72.0,2,52,0.0,64.0
6833,72.0,3,57,5.0,55.0
6834,55.0,45,35,3.0,91.0
6835,62.0,2,39,1.0,85.0
6836,55.0,3,33,6.0,68.0
6837,71.0,2,40,5.0,43.0
6838,71.0,5,46,0.0,74.0
6839,71.0,3,60,4.0,54.0
6840,59.0,1,51,2.0,72.0
6841,55.0,48,45,3.0,91.0
6842,55.0,2,38,6.0,82.0
6843,69.0,4,50,0.0,78.0
6844,64.0,4,54,2.0,95.0
6845,69.0,0,60,5.0,68.0
6846,69.0,3,62,4.0,68.0
6847,72.0,48,52,0.0,64.0
6848,72.0,6,55,5.0,59.0
6849,72.0,0,56,4.0,64.0
6850,60.0,1,154,1.0,82.0
6851,48.0,0,46,3.0,91.0
6852,48.0,1,46,6.0,82.0
6853,52.0,4,51,2.0,89.0
6854,71.0,0,57,4.0,43.0
6855,71.0,3,55,5.0,36.0
6856,71.0,54,66,0.0,60.0
6857,72.0,0,40,0.0,76.0
6858,72.0,50,50,4.0,60.0
6859,72.0,0,53,5.0,64.0
6860,67.0,10,43,1.0,80.0
6861,65.0,1,47,1.0,82.0
6862,74.0,3,61,5.0,59.0
6863,74.0,1,64,4.0,66.0
6864,74.0,51,66,0.0,78.0
6865,64.0,3,46,1.0,78.0
6866,72.0,1,58,0.0,64.0
6867,72.0,0,63,5.0,64.0
6868,72.0,45,67,4.0,64.0
6869,57.0,2,139,2.0,85.0
6870,53.0,2,144,3.0,85.0
6871,53.0,4,141,6.0,78.0
6872,62.0,57,36,1.0,74.0
6873,71.0,0,41,5.0,59.0
6874,71.0,0,43,0.0,61.0
6875,71.0,2,46,4.0,54.0
6876,60.0,49,40,1.0,78.0
6877,53.0,7,27,6.0,85.0
6878,57.0,6,36,2.0,76.0
6879,53.0,3,29,3.0,87.0
6880,69.0,0,49,4.0,63.0
6881,69.0,4,52,0.0,74.0
6882,69.0,1,67,5.0,60.0
6883,53.0,1,47,6.0,93.0
6884,71.0,1,52,0.0,85.0
6885,67.0,3,50,1.0,80.0
6886,53.0,5,49,3.0,98.0
6887,71.0,2,61,4.0,68.0
6888,71.0,50,65,5.0,57.0
6889,62.0,0,59,2.0,85.0
6890,60.0,2,45,2.0,72.0
6891,52.0,43,52,6.0,57.0
6892,52.0,6,49,3.0,80.0
6893,79.0,2,32,5.0,80.0
6894,62.0,4,46,2.0,80.0
6895,53.0,1,47,3.0,76.0
6896,79.0,8,40,0.0,91.0
6897,53.0,51,54,6.0,70.0
6898,79.0,0,42,4.0,87.0
6899,71.0,0,50,1.0,87.0
6900,50.0,1,42,6.0,68.0
6901,50.0,42,45,3.0,72.0
6902,59.0,2,47,2.0,78.0
6903,79.0,0,33,5.0,82.0
6904,79.0,1,38,0.0,93.0
6905,79.0,0,39,4.0,87.0
6906,52.0,59,58,3.0,82.0
6907,52.0,4,58,6.0,87.0
6908,64.0,9,63,2.0,85.0
6909,67.0,2,59,1.0,89.0
6910,53.0,44,62,3.0,80.0
6911,69.0,5,53,1.0,80.0
6912,53.0,6,66,6.0,80.0
6913,55.0,51,37,3.0,74.0
6914,55.0,6,44,6.0,70.0
6915,79.0,0,39,5.0,85.0
6916,79.0,6,34,4.0,87.0
6917,79.0,3,44,0.0,91.0
6918,62.0,4,43,2.0,80.0
6919,71.0,0,55,1.0,87.0
6920,52.0,30,47,3.0,63.0
6921,67.0,14,41,1.0,85.0
6922,52.0,1,47,6.0,62.0
6923,72.0,1,59,1.0,85.0
6924,57.0,58,72,3.0,82.0
6925,57.0,6,65,6.0,85.0
6926,74.0,41,45,1.0,87.0
6927,60.0,3,102,2.0,85.0
6928,58.0,3,52,6.0,66.0
6929,76.0,3,106,0.0,95.0
6930,76.0,2,111,4.0,82.0
6931,58.0,6,59,3.0,64.0
6932,76.0,3,110,5.0,78.0
6933,72.0,53,48,1.0,91.0
6934,62.0,2,49,2.0,66.0
6935,77.0,6,48,0.0,87.0
6936,57.0,3,57,6.0,80.0
6937,77.0,4,49,5.0,70.0
6938,57.0,3,67,3.0,68.0
6939,77.0,0,58,4.0,74.0
6940,70.0,39,42,1.0,82.0
6941,64.0,5,48,2.0,76.0
6942,79.0,1,48,0.0,89.0
6943,79.0,4,47,5.0,68.0
6944,79.0,2,53,4.0,72.0
6945,55.0,0,59,6.0,82.0
6946,55.0,3,58,3.0,72.0
6947,81.0,5,37,0.0,89.0
6948,81.0,2,35,5.0,78.0
6949,81.0,2,39,4.0,82.0
6950,69.0,50,54,1.0,95.0
6951,53.0,1,57,6.0,66.0
6952,53.0,1,60,3.0,64.0
6953,65.0,0,66,2.0,85.0
6954,52.0,45,62,6.0,57.0
6955,52.0,4,62,3.0,55.0
6956,65.0,0,43,2.0,78.0
6957,69.0,4,47,1.0,87.0
6958,77.0,5,41,0.0,85.0
6959,77.0,2,39,5.0,70.0
6960,77.0,2,41,4.0,82.0
6961,50.0,57,63,6.0,62.0
6962,50.0,2,59,3.0,59.0
6963,48.0,5,47,3.0,72.0
6964,48.0,46,52,6.0,64.0
6965,74.0,2,43,4.0,80.0
6966,74.0,1,47,0.0,87.0
6967,74.0,1,44,5.0,70.0
6968,74.0,1,53,1.0,91.0
6969,47.0,57,64,6.0,68.0
6970,47.0,1,65,3.0,70.0
6971,67.0,5,62,2.0,85.0
6972,72.0,5,47,1.0,87.0
6973,45.0,0,59,6.0,78.0
6974,45.0,55,59,3.0,62.0
6975,79.0,1,41,0.0,91.0
6976,79.0,1,39,4.0,85.0
6977,79.0,4,41,5.0,82.0
6978,71.0,0,47,1.0,85.0
6979,62.0,52,59,2.0,82.0
6980,43.0,0,55,3.0,64.0
6981,43.0,3,61,6.0,57.0
6982,72.0,55,40,1.0,95.0
6983,45.0,1,44,3.0,68.0
6984,45.0,1,48,6.0,72.0
6985,67.0,56,43,0.0,82.0
6986,74.0,1,50,1.0,93.0
6987,67.0,0,51,5.0,64.0
6988,47.0,1,50,3.0,80.0
6989,67.0,2,54,4.0,80.0
6990,47.0,4,53,6.0,80.0
6991,67.0,2,67,2.0,87.0
6992,72.0,3,52,1.0,87.0
6993,45.0,46,62,3.0,68.0
6994,45.0,6,61,6.0,72.0
6995,47.0,1,39,3.0,68.0
6996,77.0,0,39,0.0,87.0
6997,74.0,51,48,1.0,89.0
6998,77.0,1,41,5.0,80.0
6999,47.0,6,43,6.0,70.0
7000,77.0,1,42,4.0,85.0
7001,71.0,1,55,2.0,85.0
7002,71.0,46,48,1.0,78.0
7003,43.0,2,50,3.0,61.0
7004,43.0,7,50,6.0,66.0
7005,48.0,1,52,3.0,78.0
7006,48.0,1,51,6.0,82.0
7007,67.0,1,65,2.0,85.0
7008,72.0,58,135,1.0,91.0
7009,76.0,3,133,0.0,87.0
7010,76.0,4,141,5.0,78.0
7011,76.0,2,145,4.0,80.0
7012,53.0,111,46,3.0,82.0
7013,69.0,2,50,2.0,85.0
7014,53.0,7,45,6.0,80.0
7015,74.0,36,32,1.0,82.0
7016,74.0,3,25,0.0,78.0
7017,74.0,16,28,5.0,64.0
7018,74.0,2,27,4.0,60.0
7019,72.0,45,24,1.0,93.0
7020,76.0,3,23,4.0,82.0
7021,76.0,7,29,5.0,78.0
7022,76.0,2,29,0.0,100.0
7023,55.0,1,34,6.0,87.0
7024,55.0,1,36,3.0,87.0
7025,71.0,5,32,1.0,82.0
7026,62.0,1,54,2.0,82.0
7027,74.0,4,36,5.0,63.0
7028,74.0,11,42,4.0,63.0
7029,74.0,4,38,0.0,87.0
7030,72.0,10,38,1.0,82.0
7031,76.0,11,38,4.0,82.0
7032,76.0,5,37,5.0,82.0
7033,76.0,4,39,0.0,78.0
7034,71.0,5,64,1.0,76.0
7035,74.0,9,58,4.0,40.0
7036,74.0,8,55,0.0,66.0
7037,74.0,2,64,5.0,63.0
7038,43.0,2,37,6.0,87.0
7039,43.0,2,41,3.0,89.0
7040,67.0,35,54,2.0,85.0
7041,67.0,43,36,1.0,78.0
7042,72.0,6,31,4.0,70.0
7043,72.0,2,33,0.0,74.0
7044,72.0,7,30,5.0,70.0
7045,67.0,53,154,1.0,93.0
7046,64.0,6,150,2.0,93.0
7047,65.0,138,36,1.0,82.0
7048,62.0,28,40,2.0,89.0
7049,72.0,1,224,5.0,57.0
7050,72.0,2,243,0.0,80.0
7051,72.0,1,249,4.0,76.0
7052,64.0,39,105,1.0,82.0
7053,60.0,23,82,2.0,70.0
7054,72.0,50,41,0.0,82.0
7055,72.0,4,38,5.0,85.0
7056,72.0,13,37,4.0,87.0
7057,70.0,43,43,0.0,82.0
7058,70.0,4,40,5.0,78.0
7059,70.0,7,40,4.0,78.0
7060,65.0,46,38,1.0,80.0
7061,62.0,2,40,2.0,87.0
7062,69.0,4,35,5.0,82.0
7063,69.0,2,39,0.0,82.0
7064,69.0,5,42,4.0,80.0
7065,36.0,4,595,6.0,85.0
7066,36.0,6,593,3.0,76.0
7067,48.0,116,42,3.0,85.0
7068,48.0,1,46,6.0,87.0
7069,50.0,2,43,6.0,87.0
7070,50.0,56,45,3.0,85.0
7071,64.0,50,274,2.0,82.0
7072,67.0,5,271,1.0,87.0
7073,52.0,60,41,6.0,78.0
7074,52.0,0,44,3.0,85.0
7075,64.0,54,40,2.0,87.0
7076,67.0,0,44,1.0,76.0
7077,50.0,3,43,6.0,72.0
7078,50.0,1,46,3.0,80.0
7079,67.0,5,368,0.0,74.0
7080,67.0,1,371,5.0,76.0
7081,67.0,7,369,4.0,85.0
7082,62.0,53,36,2.0,78.0
7083,52.0,0,38,6.0,80.0
7084,65.0,5,44,1.0,93.0
7085,52.0,2,54,3.0,82.0
7086,60.0,47,38,2.0,61.0
7087,53.0,0,37,6.0,68.0
7088,53.0,7,42,3.0,82.0
7089,64.0,4,41,1.0,93.0
7090,69.0,4,41,0.0,68.0
7091,69.0,3,43,5.0,72.0
7092,69.0,3,43,4.0,68.0
7093,67.0,45,90,2.0,85.0
7094,70.0,0,92,0.0,76.0
7095,70.0,2,90,5.0,70.0
7096,62.0,1,92,1.0,87.0
7097,70.0,3,92,4.0,80.0
7098,65.0,3,41,1.0,78.0
7099,70.0,169,46,0.0,68.0
7100,69.0,1,45,2.0,82.0
7101,70.0,5,48,5.0,66.0
7102,70.0,1,49,4.0,70.0
7103,55.0,8,248,3.0,80.0
7104,55.0,0,252,6.0,74.0
7105,67.0,3,81,2.0,89.0
7106,72.0,2,79,5.0,82.0
7107,72.0,52,88,0.0,82.0
7108,64.0,1,89,1.0,85.0
7109,72.0,2,89,4.0,82.0
7110,55.0,51,50,3.0,82.0
7111,55.0,5,46,6.0,82.0
7112,57.0,4,38,6.0,80.0
7113,57.0,60,43,3.0,82.0
7114,74.0,2,37,0.0,82.0
7115,62.0,1,33,1.0,85.0
7116,65.0,47,45,2.0,78.0
7117,58.0,2,47,3.0,76.0
7118,58.0,0,40,6.0,78.0
7119,74.0,5,43,4.0,91.0
7120,74.0,2,41,5.0,85.0
7121,60.0,3,41,6.0,82.0
7122,60.0,1,45,3.0,80.0
7123,64.0,48,89,2.0,85.0
7124,67.0,2,92,0.0,78.0
7125,58.0,50,36,3.0,82.0
7126,58.0,1,36,6.0,64.0
7127,60.0,1,100,1.0,87.0
7128,67.0,4,95,5.0,85.0
7129,67.0,1,108,4.0,85.0
7130,57.0,57,41,3.0,78.0
7131,57.0,2,39,6.0,57.0
7132,58.0,55,44,3.0,64.0
7133,58.0,2,42,6.0,78.0
7134,67.0,2,42,0.0,74.0
7135,62.0,0,48,2.0,78.0
7136,62.0,3,44,1.0,80.0
7137,67.0,3,43,5.0,82.0
7138,67.0,2,46,4.0,82.0
7139,64.0,31,29,1.0,70.0
7140,65.0,6,33,1.0,59.0
7141,60.0,18,46,6.0,82.0
7142,60.0,2,45,3.0,80.0
7143,64.0,23,19,1.0,72.0
7144,65.0,20,25,1.0,80.0
7145,69.0,0,86,0.0,87.0
7146,60.0,0,93,2.0,68.0
7147,64.0,20,17,1.0,57.0
7148,57.0,3,38,3.0,82.0
7149,57.0,1,44,6.0,64.0
7150,69.0,2,95,5.0,85.0
7151,65.0,19,21,1.0,68.0
7152,69.0,5,111,4.0,89.0
7153,64.0,2,15,1.0,58.0
7154,65.0,16,20,1.0,78.0
7155,58.0,0,39,6.0,60.0
7156,58.0,18,42,3.0,82.0
7157,65.0,16,23,1.0,76.0
7158,64.0,21,50,1.0,60.0
7159,60.0,0,35,3.0,85.0
7160,60.0,2,39,6.0,78.0
7161,60.0,2,39,2.0,78.0
7162,70.0,7,41,0.0,66.0
7163,70.0,0,39,5.0,72.0
7164,70.0,6,44,4.0,68.0
7165,62.0,11,37,1.0,72.0
7166,64.0,27,29,1.0,76.0
7167,60.0,2,92,2.0,82.0
7168,65.0,3,89,1.0,85.0
7169,53.0,1,119,6.0,74.0
7170,53.0,15,132,3.0,82.0
7171,50.0,3,30,6.0,70.0
7172,50.0,4,30,3.0,78.0
7173,69.0,1,37,1.0,89.0
7174,65.0,169,44,2.0,74.0
7175,52.0,20,28,6.0,78.0
7176,52.0,1,28,3.0,80.0
7177,69.0,2,245,5.0,80.0
7178,69.0,2,253,0.0,82.0
7179,69.0,1,260,4.0,78.0
7180,65.0,30,84,1.0,85.0
7181,69.0,0,89,2.0,89.0
7182,53.0,4,91,6.0,85.0
7183,69.0,49,45,5.0,82.0
7184,53.0,3,100,3.0,87.0
7185,69.0,4,44,0.0,80.0
7186,69.0,2,47,4.0,80.0
7187,71.0,60,45,5.0,70.0
7188,71.0,3,43,4.0,80.0
7189,71.0,0,48,0.0,80.0
7190,55.0,4,33,3.0,76.0
7191,55.0,1,32,6.0,68.0
7192,67.0,45,44,2.0,78.0
7193,64.0,3,44,1.0,80.0
7194,73.0,2,43,5.0,57.0
7195,73.0,2,43,0.0,62.0
7196,73.0,0,45,4.0,66.0
7197,57.0,16,30,3.0,74.0
7198,57.0,9,31,6.0,66.0
7199,74.0,1,47,5.0,72.0
7200,74.0,0,49,0.0,82.0
7201,74.0,0,48,4.0,80.0
7202,62.0,5,100,1.0,95.0
7203,73.0,61,39,4.0,80.0
7204,73.0,2,40,0.0,87.0
7205,73.0,0,43,5.0,76.0
7206,74.0,1,43,4.0,80.0
7207,74.0,53,51,0.0,76.0
7208,74.0,4,50,5.0,70.0
7209,69.0,48,44,1.0,82.0
7210,76.0,9,39,0.0,80.0
7211,76.0,1,43,4.0,80.0
7212,76.0,2,42,5.0,70.0
7213,77.0,3,45,4.0,85.0
7214,77.0,5,52,0.0,85.0
7215,77.0,4,47,5.0,85.0
7216,65.0,1,335,2.0,93.0
7217,76.0,50,44,0.0,76.0
7218,76.0,3,48,4.0,85.0
7219,76.0,5,46,5.0,82.0
7220,58.0,0,365,6.0,58.0
7221,58.0,28,380,3.0,80.0
7222,77.0,55,40,0.0,82.0
7223,77.0,2,39,4.0,87.0
7224,77.0,3,46,5.0,85.0
7225,62.0,38,40,2.0,80.0
7226,58.0,0,36,6.0,78.0
7227,58.0,11,37,3.0,95.0
7228,74.0,3,48,0.0,80.0
7229,74.0,2,48,4.0,72.0
7230,74.0,3,48,5.0,80.0
7231,58.0,3,38,6.0,82.0
7232,58.0,5,49,3.0,85.0
7233,60.0,41,38,6.0,80.0
7234,60.0,2,40,3.0,82.0
7235,74.0,50,348,1.0,91.0
7236,58.0,0,38,3.0,80.0
7237,58.0,57,39,6.0,72.0
7238,57.0,61,42,6.0,72.0
7239,57.0,1,44,3.0,76.0
7240,77.0,5,49,1.0,89.0
7241,58.0,0,36,6.0,68.0
7242,58.0,59,41,3.0,80.0
7243,76.0,6,78,1.0,93.0
7244,55.0,50,39,6.0,60.0
7245,55.0,2,39,3.0,74.0
7246,79.0,8,339,5.0,85.0
7247,70.0,50,360,2.0,87.0
7248,79.0,1,348,0.0,85.0
7249,79.0,4,360,4.0,87.0
7250,57.0,1,37,6.0,80.0
7251,57.0,62,40,3.0,87.0
7252,74.0,0,31,1.0,87.0
7253,58.0,56,39,6.0,64.0
7254,79.0,1,34,5.0,72.0
7255,58.0,3,39,3.0,82.0
7256,70.0,3,39,2.0,87.0
7257,79.0,4,35,0.0,82.0
7258,79.0,3,40,4.0,82.0
7259,74.0,43,49,1.0,80.0
7260,73.0,26,22,1.0,56.0
7261,74.0,22,25,1.0,76.0
7262,73.0,23,18,1.0,56.0
7263,74.0,19,21,1.0,76.0
7264,79.0,7,124,4.0,70.0
7265,79.0,1,135,0.0,87.0
7266,73.0,18,18,1.0,57.0
7267,79.0,9,138,5.0,74.0
7268,74.0,15,21,1.0,78.0
7269,57.0,2,167,3.0,85.0
7270,73.0,19,22,1.0,61.0
7271,57.0,2,176,6.0,72.0
7272,74.0,19,24,1.0,78.0
7273,64.0,0,207,2.0,87.0
7274,81.0,15,27,0.0,82.0
7275,81.0,0,26,5.0,82.0
7276,81.0,5,28,4.0,82.0
7277,82.0,20,24,0.0,64.0
7278,82.0,5,19,5.0,59.0
7279,82.0,2,30,4.0,70.0
7280,81.0,15,97,0.0,91.0
7281,81.0,1,110,5.0,87.0
7282,81.0,2,113,4.0,82.0
7283,73.0,1,180,1.0,63.0
7284,45.0,0,133,3.0,87.0
7285,45.0,1,145,6.0,68.0
7286,79.0,169,27,0.0,72.0
7287,69.0,13,218,2.0,82.0
7288,79.0,0,28,4.0,70.0
7289,79.0,1,29,5.0,70.0
7290,73.0,4,39,1.0,76.0
7291,77.0,11,31,0.0,55.0
7292,77.0,6,28,4.0,63.0
7293,77.0,1,27,5.0,55.0
7294,76.0,15,29,0.0,64.0
7295,76.0,2,25,5.0,72.0
7296,76.0,3,27,4.0,72.0
7297,74.0,1,91,1.0,91.0
7298,69.0,20,98,2.0,87.0
7299,77.0,4,97,0.0,85.0
7300,77.0,0,107,5.0,61.0
7301,77.0,4,112,4.0,74.0
7302,69.0,150,45,1.0,72.0
7303,65.0,14,44,2.0,70.0
7304,74.0,7,38,0.0,72.0
7305,74.0,0,39,4.0,82.0
7306,74.0,2,40,5.0,74.0
7307,50.0,0,302,3.0,85.0
7308,50.0,5,319,6.0,78.0
7309,74.0,48,91,1.0,98.0
7310,62.0,4,84,2.0,89.0
7311,77.0,2,92,0.0,87.0
7312,77.0,1,104,4.0,87.0
7313,77.0,2,114,5.0,87.0
7314,52.0,115,30,6.0,68.0
7315,52.0,3,39,3.0,68.0
7316,53.0,11,32,3.0,70.0
7317,53.0,15,49,6.0,85.0
7318,81.0,10,29,0.0,80.0
7319,55.0,20,42,6.0,82.0
7320,81.0,1,32,5.0,76.0
7321,55.0,1,35,3.0,78.0
7322,72.0,1,32,1.0,85.0
7323,81.0,4,32,4.0,80.0
7324,57.0,5,32,6.0,80.0
7325,57.0,3,42,2.0,85.0
7326,57.0,6,32,3.0,80.0
7327,59.0,15,29,6.0,87.0
7328,59.0,3,36,3.0,89.0
7329,72.0,3,54,1.0,82.0
7330,79.0,0,60,0.0,91.0
7331,60.0,2,47,3.0,95.0
7332,79.0,1,67,5.0,85.0
7333,60.0,18,72,6.0,82.0
7334,71.0,39,26,1.0,57.0
7335,79.0,4,76,4.0,89.0
7336,78.0,0,36,0.0,76.0
7337,78.0,10,38,5.0,55.0
7338,72.0,2,25,1.0,62.0
7339,59.0,0,43,6.0,66.0
7340,78.0,3,41,4.0,63.0
7341,71.0,3,20,1.0,63.0
7342,79.0,7,36,0.0,63.0
7343,59.0,10,49,3.0,74.0
7344,79.0,12,38,5.0,63.0
7345,78.0,1,22,0.0,68.0
7346,72.0,6,21,1.0,68.0
7347,79.0,14,38,4.0,62.0
7348,78.0,2,25,5.0,64.0
7349,71.0,2,20,1.0,68.0
7350,79.0,8,25,0.0,64.0
7351,78.0,5,26,4.0,63.0
7352,60.0,7,46,6.0,80.0
7353,78.0,1,21,0.0,78.0
7354,72.0,3,19,1.0,76.0
7355,60.0,0,51,3.0,76.0
7356,79.0,11,26,5.0,60.0
7357,78.0,2,18,5.0,66.0
7358,71.0,5,25,1.0,72.0
7359,79.0,11,32,4.0,68.0
7360,79.0,0,25,0.0,60.0
7361,78.0,0,19,4.0,66.0
7362,78.0,0,20,0.0,78.0
7363,72.0,7,23,1.0,85.0
7364,64.0,5,38,6.0,78.0
7365,79.0,4,20,5.0,59.0
7366,71.0,16,13,1.0,53.0
7367,78.0,2,16,5.0,57.0
7368,64.0,7,47,3.0,78.0
7369,79.0,0,24,0.0,72.0
7370,79.0,2,24,4.0,57.0
7371,72.0,9,21,1.0,87.0
7372,78.0,6,19,0.0,78.0
7373,78.0,1,20,4.0,63.0
7374,79.0,2,23,5.0,63.0
7375,78.0,3,14,5.0,63.0
7376,79.0,8,23,0.0,68.0
7377,79.0,3,25,4.0,63.0
7378,62.0,2,45,6.0,78.0
7379,78.0,13,19,0.0,80.0
7380,79.0,2,23,5.0,70.0
7381,62.0,5,52,3.0,93.0
7382,78.0,5,20,4.0,78.0
7383,78.0,1,18,5.0,70.0
7384,79.0,14,21,0.0,70.0
7385,78.0,7,17,0.0,72.0
7386,79.0,5,28,4.0,61.0
7387,79.0,3,21,5.0,66.0
7388,60.0,4,38,6.0,66.0
7389,78.0,8,19,4.0,68.0
7390,60.0,1,45,3.0,80.0
7391,79.0,7,22,0.0,72.0
7392,78.0,4,18,5.0,74.0
7393,78.0,4,16,0.0,66.0
7394,62.0,3,357,2.0,82.0
7395,71.0,2,130,1.0,74.0
7396,79.0,10,26,4.0,62.0
7397,78.0,3,17,4.0,57.0
7398,79.0,6,27,5.0,64.0
7399,79.0,1,26,0.0,82.0
7400,59.0,1,35,6.0,80.0
7401,78.0,9,30,5.0,80.0
7402,59.0,5,44,3.0,80.0
7403,79.0,8,25,4.0,72.0
7404,78.0,1,29,0.0,78.0
7405,78.0,15,29,4.0,63.0
7406,76.0,6,41,5.0,60.0
7407,76.0,3,40,0.0,74.0
7408,60.0,10,38,3.0,80.0
7409,60.0,0,36,6.0,80.0
7410,62.0,2,37,2.0,80.0
7411,76.0,5,34,4.0,70.0
7412,78.0,0,27,0.0,74.0
7413,72.0,3,41,1.0,85.0
7414,78.0,7,30,5.0,66.0
7415,78.0,16,29,4.0,82.0
7416,74.0,0,101,1.0,87.0
7417,62.0,5,106,2.0,82.0
7418,59.0,2,112,3.0,85.0
7419,59.0,3,111,6.0,80.0
7420,72.0,0,37,1.0,82.0
7421,57.0,2,41,3.0,70.0
7422,57.0,5,37,6.0,64.0
7423,69.0,165,49,2.0,85.0
7424,74.0,55,78,1.0,80.0
7425,59.0,2,83,3.0,87.0
7426,59.0,3,86,6.0,89.0
7427,67.0,2,95,2.0,87.0
7428,71.0,4,35,1.0,82.0
7429,55.0,171,47,3.0,80.0
7430,55.0,3,42,6.0,76.0
7431,65.0,0,47,2.0,76.0
7432,79.0,5,482,4.0,87.0
7433,79.0,17,512,0.0,78.0
7434,79.0,9,504,5.0,70.0
7435,72.0,60,87,1.0,89.0
7436,81.0,54,44,5.0,74.0
7437,81.0,6,41,0.0,82.0
7438,64.0,1,104,2.0,82.0
7439,81.0,0,46,4.0,82.0
7440,79.0,52,41,5.0,72.0
7441,79.0,2,40,0.0,80.0
7442,79.0,2,43,4.0,76.0
7443,77.0,4,36,0.0,80.0
7444,65.0,49,40,2.0,68.0
7445,77.0,2,36,4.0,82.0
7446,77.0,1,39,5.0,76.0
7447,74.0,1,42,1.0,76.0
7448,76.0,3,37,0.0,82.0
7449,76.0,2,36,4.0,76.0
7450,76.0,1,38,5.0,72.0
7451,76.0,2,73,1.0,89.0
7452,67.0,54,85,2.0,80.0
7453,74.0,49,46,4.0,70.0
7454,74.0,2,44,0.0,66.0
7455,64.0,3,340,6.0,82.0
7456,64.0,2,348,3.0,87.0
7457,74.0,1,59,5.0,68.0
7458,76.0,59,36,0.0,82.0
7459,76.0,2,43,4.0,80.0
7460,76.0,3,43,5.0,74.0
7461,64.0,46,33,2.0,78.0
7462,64.0,0,38,3.0,85.0
7463,79.0,7,39,1.0,85.0
7464,64.0,2,32,6.0,78.0
7465,72.0,2,43,0.0,80.0
7466,72.0,4,49,4.0,78.0
7467,72.0,3,46,5.0,78.0
7468,72.0,1,85,1.0,89.0
7469,65.0,4,93,2.0,87.0
7470,64.0,49,110,3.0,82.0
7471,64.0,5,122,6.0,80.0
7472,65.0,1,34,6.0,72.0
7473,72.0,3,37,1.0,78.0
7474,65.0,1,38,3.0,74.0
7475,69.0,159,44,2.0,87.0
7476,64.0,24,28,6.0,66.0
7477,64.0,1,30,3.0,76.0
7478,77.0,0,77,1.0,85.0
7479,74.0,1,78,2.0,89.0
7480,62.0,3,81,3.0,93.0
7481,62.0,37,92,6.0,78.0
7482,64.0,1,27,6.0,60.0
7483,64.0,167,33,3.0,78.0
7484,76.0,1,41,1.0,87.0
7485,60.0,18,29,6.0,72.0
7486,69.0,1,49,2.0,85.0
7487,60.0,6,29,3.0,80.0
7488,81.0,6,480,4.0,82.0
7489,81.0,4,487,0.0,80.0
7490,81.0,1,486,5.0,80.0
7491,79.0,60,47,4.0,89.0
7492,79.0,0,43,5.0,87.0
7493,79.0,6,43,0.0,85.0
7494,81.0,1,42,0.0,76.0
7495,81.0,55,45,4.0,80.0
7496,81.0,2,43,5.0,78.0
7497,83.0,1,37,0.0,80.0
7498,83.0,0,39,5.0,80.0
7499,83.0,55,48,4.0,85.0
7500,62.0,2,268,2.0,85.0
7501,77.0,4,278,1.0,93.0
7502,84.0,58,40,5.0,80.0
7503,84.0,0,39,0.0,72.0
7504,84.0,2,43,4.0,80.0
7505,60.0,50,41,2.0,72.0
7506,76.0,2,41,1.0,85.0
7507,81.0,7,40,5.0,64.0
7508,81.0,1,42,0.0,63.0
7509,81.0,0,43,4.0,64.0
7510,62.0,1,359,3.0,80.0
7511,62.0,35,363,6.0,70.0
7512,83.0,7,36,4.0,68.0
7513,74.0,1,44,1.0,89.0
7514,62.0,48,49,2.0,68.0
7515,83.0,5,36,5.0,72.0
7516,83.0,2,36,0.0,74.0
7517,62.0,0,31,3.0,85.0
7518,62.0,6,25,6.0,76.0
7519,84.0,0,40,4.0,70.0
7520,72.0,48,40,1.0,85.0
7521,64.0,3,37,2.0,87.0
7522,84.0,1,31,5.0,70.0
7523,84.0,2,36,0.0,70.0
7524,77.0,1,44,4.0,80.0
7525,65.0,52,49,2.0,82.0
7526,77.0,1,43,5.0,78.0
7527,77.0,3,47,0.0,80.0
7528,67.0,47,46,2.0,80.0
7529,76.0,6,42,5.0,66.0
7530,76.0,2,43,0.0,80.0
7531,76.0,0,55,4.0,78.0
7532,77.0,0,42,0.0,80.0
7533,77.0,1,43,5.0,80.0
7534,69.0,56,51,2.0,80.0
7535,77.0,5,46,4.0,78.0
7536,67.0,52,42,2.0,74.0
7537,79.0,5,37,5.0,76.0
7538,79.0,0,42,0.0,80.0
7539,79.0,3,43,4.0,74.0
7540,62.0,0,272,3.0,89.0
7541,81.0,4,37,0.0,68.0
7542,62.0,6,277,6.0,63.0
7543,81.0,1,39,4.0,74.0
7544,81.0,0,43,5.0,70.0
7545,65.0,52,49,2.0,80.0
7546,77.0,5,38,0.0,68.0
7547,60.0,49,45,3.0,70.0
7548,60.0,2,32,6.0,68.0
7549,64.0,1,43,2.0,80.0
7550,77.0,5,42,4.0,66.0
7551,77.0,1,44,5.0,63.0
7552,71.0,1,366,1.0,85.0
7553,79.0,0,41,0.0,76.0
7554,59.0,0,42,6.0,68.0
7555,79.0,6,37,5.0,70.0
7556,79.0,0,39,4.0,74.0
7557,59.0,48,50,3.0,78.0
7558,62.0,4,47,2.0,80.0
7559,74.0,1,33,1.0,89.0
7560,60.0,52,38,6.0,76.0
7561,64.0,0,39,2.0,78.0
7562,60.0,1,42,3.0,80.0
7563,81.0,5,39,0.0,85.0
7564,81.0,0,44,4.0,85.0
7565,81.0,1,43,5.0,70.0
7566,62.0,51,40,6.0,74.0
7567,62.0,0,48,3.0,82.0
7568,60.0,37,56,6.0,60.0
7569,60.0,9,57,3.0,76.0
7570,62.0,60,43,6.0,70.0
7571,62.0,4,52,3.0,80.0
7572,65.0,52,47,6.0,74.0
7573,65.0,3,46,3.0,85.0
7574,64.0,59,49,6.0,78.0
7575,64.0,3,48,3.0,82.0
7576,62.0,56,43,6.0,70.0
7577,62.0,3,42,3.0,85.0
7578,67.0,2,348,1.0,82.0
7579,65.0,6,354,2.0,80.0
7580,71.0,3,357,0.0,74.0
7581,71.0,3,369,4.0,66.0
7582,71.0,6,371,5.0,70.0
7583,60.0,59,47,3.0,87.0
7584,60.0,4,44,6.0,66.0
7585,64.0,1,37,2.0,78.0
7586,67.0,0,34,1.0,82.0
7587,72.0,3,34,5.0,82.0
7588,72.0,56,38,0.0,78.0
7589,72.0,2,38,4.0,82.0
7590,62.0,0,51,3.0,89.0
7591,62.0,1,49,6.0,78.0
7592,74.0,4,43,4.0,85.0
7593,74.0,0,50,0.0,80.0
7594,74.0,57,53,5.0,87.0
7595,62.0,1,87,2.0,80.0
7596,71.0,49,40,5.0,61.0
7597,71.0,2,39,0.0,74.0
7598,71.0,4,40,4.0,76.0
7599,67.0,53,48,5.0,76.0
7600,67.0,3,46,0.0,72.0
7601,67.0,4,45,4.0,70.0
7602,69.0,1,37,5.0,68.0
7603,64.0,51,38,2.0,80.0
7604,69.0,4,37,0.0,78.0
7605,69.0,4,36,4.0,66.0
7606,67.0,1,256,1.0,80.0
7607,71.0,51,40,0.0,76.0
7608,71.0,3,40,4.0,66.0
7609,71.0,0,46,5.0,64.0
7610,62.0,3,82,2.0,87.0
7611,72.0,50,37,0.0,78.0
7612,72.0,4,39,5.0,76.0
7613,69.0,2,43,1.0,85.0
7614,72.0,3,39,4.0,72.0
7615,71.0,52,43,1.0,80.0
7616,74.0,0,45,0.0,60.0
7617,74.0,4,43,4.0,53.0
7618,74.0,4,49,5.0,58.0
7619,72.0,48,35,1.0,87.0
7620,76.0,3,41,0.0,80.0
7621,60.0,2,40,2.0,76.0
7622,76.0,1,42,5.0,70.0
7623,76.0,3,43,4.0,80.0
7624,59.0,4,508,6.0,63.0
7625,59.0,2,520,3.0,91.0
7626,59.0,57,74,2.0,87.0
7627,60.0,54,39,3.0,82.0
7628,60.0,1,40,6.0,70.0
7629,59.0,4,37,6.0,72.0
7630,59.0,56,41,3.0,91.0
7631,62.0,45,38,2.0,64.0
7632,57.0,6,45,3.0,82.0
7633,57.0,5,52,6.0,63.0
7634,55.0,51,46,3.0,78.0
7635,55.0,3,46,6.0,66.0
7636,67.0,4,78,2.0,85.0
7637,53.0,54,34,3.0,78.0
7638,53.0,5,47,6.0,61.0
7639,77.0,3,360,4.0,82.0
7640,77.0,2,360,5.0,82.0
7641,74.0,0,373,1.0,87.0
7642,77.0,3,375,0.0,80.0
7643,52.0,49,44,3.0,85.0
7644,52.0,12,45,6.0,64.0
7645,50.0,43,42,3.0,78.0
7646,71.0,0,39,2.0,82.0
7647,77.0,8,36,0.0,82.0
7648,50.0,14,45,6.0,72.0
7649,74.0,1,33,1.0,80.0
7650,77.0,5,39,5.0,85.0
7651,77.0,3,42,4.0,80.0
7652,71.0,0,81,2.0,85.0
7653,74.0,0,95,1.0,87.0
7654,77.0,3,109,0.0,72.0
7655,77.0,5,106,4.0,85.0
7656,77.0,2,117,5.0,82.0
7657,72.0,172,29,1.0,76.0
7658,76.0,3,31,0.0,66.0
7659,76.0,2,27,5.0,60.0
7660,76.0,3,32,4.0,63.0
7661,67.0,0,36,2.0,76.0
7662,71.0,13,32,1.0,70.0
7663,74.0,0,32,0.0,76.0
7664,74.0,2,34,5.0,74.0
7665,74.0,4,32,4.0,82.0
7666,60.0,1,80,2.0,66.0
7667,72.0,33,92,1.0,85.0
7668,76.0,1,97,5.0,70.0
7669,76.0,3,102,0.0,80.0
7670,76.0,2,99,4.0,85.0
7671,77.0,7,29,5.0,70.0
7672,62.0,170,39,2.0,82.0
7673,77.0,3,28,0.0,66.0
7674,77.0,0,28,4.0,78.0
7675,69.0,1,38,1.0,80.0
7676,79.0,20,32,5.0,72.0
7677,79.0,1,32,4.0,61.0
7678,79.0,2,34,0.0,82.0
7679,48.0,43,523,3.0,91.0
7680,48.0,5,520,6.0,76.0
7681,46.0,48,31,3.0,74.0
7682,46.0,3,36,6.0,68.0
7683,45.0,51,40,3.0,80.0
7684,45.0,3,41,6.0,72.0
7685,46.0,54,41,3.0,78.0
7686,46.0,3,44,6.0,76.0
7687,48.0,4,41,6.0,74.0
7688,48.0,57,47,3.0,82.0
7689,45.0,57,40,3.0,82.0
7690,45.0,7,37,6.0,74.0
7691,70.0,5,344,5.0,58.0
7692,70.0,2,343,0.0,58.0
7693,70.0,1,346,4.0,78.0
7694,67.0,0,354,1.0,80.0
7695,64.0,33,360,2.0,85.0
7696,46.0,54,39,3.0,87.0
7697,46.0,9,46,6.0,82.0
7698,48.0,48,36,3.0,95.0
7699,70.0,1,32,0.0,70.0
7700,67.0,0,38,1.0,82.0
7701,64.0,1,38,2.0,82.0
7702,70.0,4,34,5.0,74.0
7703,48.0,10,41,6.0,78.0
7704,70.0,0,41,4.0,72.0
7705,64.0,1,83,2.0,87.0
7706,70.0,3,103,4.0,82.0
7707,67.0,2,100,1.0,85.0
7708,70.0,54,116,5.0,85.0
7709,70.0,0,118,0.0,78.0
7710,69.0,162,36,0.0,76.0
7711,65.0,5,31,1.0,61.0
7712,69.0,4,32,5.0,70.0
7713,60.0,3,37,2.0,80.0
7714,69.0,4,33,4.0,61.0
7715,67.0,10,28,0.0,66.0
7716,64.0,2,31,1.0,80.0
7717,67.0,5,32,5.0,70.0
7718,67.0,7,30,4.0,70.0
7719,65.0,1,84,2.0,87.0
7720,65.0,3,101,1.0,85.0
7721,69.0,26,105,0.0,87.0
7722,69.0,4,98,4.0,87.0
7723,69.0,6,106,5.0,64.0
7724,71.0,3,37,0.0,82.0
7725,64.0,164,45,2.0,76.0
7726,71.0,5,38,5.0,78.0
7727,67.0,2,44,1.0,82.0
7728,71.0,13,37,4.0,78.0
7729,41.0,3,488,6.0,70.0
7730,41.0,1,502,3.0,82.0
7731,62.0,1,97,2.0,87.0
7732,69.0,2,96,1.0,82.0
7733,40.0,41,51,3.0,76.0
7734,40.0,7,47,6.0,70.0
7735,41.0,56,49,3.0,85.0
7736,41.0,8,49,6.0,85.0
7737,43.0,48,40,3.0,80.0
7738,64.0,1,47,2.0,78.0
7739,67.0,8,41,1.0,82.0
7740,43.0,1,45,6.0,70.0
7741,45.0,50,44,3.0,82.0
7742,45.0,0,39,6.0,66.0
7743,65.0,3,81,1.0,89.0
7744,65.0,7,91,2.0,85.0
7745,41.0,51,41,3.0,82.0
7746,41.0,6,44,6.0,68.0
7747,72.0,3,347,5.0,78.0
7748,72.0,41,363,0.0,78.0
7749,72.0,11,354,4.0,87.0
7750,43.0,52,38,3.0,93.0
7751,43.0,9,44,6.0,68.0
7752,45.0,51,47,3.0,80.0
7753,64.0,3,40,1.0,82.0
7754,72.0,6,35,5.0,82.0
7755,72.0,3,33,0.0,85.0
7756,72.0,1,39,4.0,85.0
7757,45.0,1,49,6.0,68.0
7758,67.0,5,52,2.0,78.0
7759,72.0,1,92,0.0,82.0
7760,72.0,0,102,5.0,80.0
7761,72.0,2,116,4.0,80.0
7762,65.0,49,137,1.0,85.0
7763,69.0,2,167,2.0,85.0
7764,71.0,162,35,4.0,68.0
7765,71.0,3,32,0.0,62.0
7766,71.0,1,32,5.0,64.0
7767,69.0,18,33,0.0,64.0
7768,69.0,4,31,4.0,78.0
7769,69.0,3,32,5.0,70.0
7770,77.0,29,95,0.0,87.0
7771,77.0,0,93,4.0,91.0
7772,77.0,2,101,5.0,82.0
7773,69.0,2,109,1.0,82.0
7774,62.0,6,140,2.0,80.0
7775,76.0,166,35,0.0,58.0
7776,76.0,5,34,5.0,70.0
7777,76.0,4,35,4.0,60.0
7778,74.0,15,34,0.0,70.0
7779,74.0,6,31,5.0,68.0
7780,74.0,1,32,4.0,66.0
7781,38.0,3,470,3.0,89.0
7782,38.0,3,480,6.0,68.0
7783,83.0,2,96,0.0,85.0
7784,83.0,2,98,5.0,80.0
7785,83.0,3,96,4.0,87.0
7786,36.0,12,40,6.0,63.0
7787,36.0,47,52,3.0,82.0
7788,38.0,57,44,3.0,87.0
7789,38.0,8,45,6.0,80.0
7790,81.0,0,36,0.0,63.0
7791,81.0,6,32,5.0,63.0
7792,40.0,48,39,3.0,80.0
7793,81.0,5,34,4.0,63.0
7794,40.0,2,41,6.0,64.0
7795,79.0,8,35,0.0,66.0
7796,79.0,3,33,5.0,66.0
7797,79.0,9,32,4.0,74.0
7798,41.0,29,43,3.0,80.0
7799,41.0,3,42,6.0,70.0
7800,86.0,0,80,0.0,87.0
7801,40.0,47,37,3.0,89.0
7802,86.0,5,95,5.0,87.0
7803,74.0,4,347,1.0,93.0
7804,40.0,9,41,6.0,74.0
7805,86.0,4,98,4.0,91.0
7806,65.0,29,367,2.0,76.0
7807,41.0,48,35,3.0,85.0
7808,41.0,12,34,6.0,66.0
7809,38.0,42,41,3.0,61.0
7810,77.0,2,34,0.0,64.0
7811,38.0,3,39,6.0,64.0
7812,69.0,1,42,2.0,87.0
7813,77.0,4,32,5.0,70.0
7814,77.0,4,37,4.0,76.0
7815,72.0,10,48,1.0,82.0
7816,71.0,50,106,1.0,78.0
7817,62.0,3,105,2.0,80.0
7818,43.0,3,108,3.0,93.0
7819,43.0,0,118,6.0,80.0
7820,71.0,165,47,1.0,82.0
7821,43.0,2,45,3.0,78.0
7822,65.0,4,50,2.0,70.0
7823,43.0,4,46,6.0,72.0
7824,77.0,1,247,0.0,70.0
7825,77.0,3,255,5.0,68.0
7826,77.0,0,283,4.0,74.0
7827,45.0,0,78,3.0,91.0
7828,72.0,54,90,1.0,95.0
7829,64.0,3,89,2.0,89.0
7830,45.0,7,84,6.0,87.0
7831,81.0,47,39,0.0,74.0
7832,81.0,13,35,5.0,80.0
7833,81.0,2,38,4.0,80.0
7834,79.0,44,44,0.0,70.0
7835,79.0,8,41,5.0,85.0
7836,79.0,5,52,4.0,78.0
7837,77.0,45,35,0.0,76.0
7838,77.0,2,33,5.0,74.0
7839,74.0,8,37,1.0,87.0
7840,77.0,1,33,4.0,78.0
7841,47.0,1,40,3.0,85.0
7842,47.0,2,42,6.0,72.0
7843,62.0,0,44,2.0,80.0
7844,76.0,0,47,0.0,74.0
7845,76.0,2,43,5.0,64.0
7846,76.0,2,45,4.0,68.0
7847,48.0,2,87,3.0,89.0
7848,72.0,52,40,0.0,72.0
7849,48.0,0,97,6.0,80.0
7850,67.0,54,102,1.0,74.0
7851,72.0,2,36,5.0,64.0
7852,72.0,4,41,4.0,72.0
7853,74.0,2,36,5.0,63.0
7854,74.0,54,42,0.0,68.0
7855,74.0,3,40,4.0,72.0
7856,48.0,43,42,6.0,63.0
7857,76.0,2,39,5.0,63.0
7858,48.0,0,42,3.0,78.0
7859,70.0,7,45,1.0,80.0
7860,76.0,2,39,4.0,74.0
7861,76.0,2,44,0.0,66.0
7862,77.0,0,41,5.0,66.0
7863,77.0,1,43,0.0,76.0
7864,77.0,0,49,4.0,82.0
7865,69.0,0,86,1.0,85.0
7866,50.0,3,86,3.0,89.0
7867,50.0,57,101,6.0,87.0
7868,60.0,3,331,2.0,64.0
7869,79.0,53,46,5.0,61.0
7870,79.0,9,37,4.0,80.0
7871,79.0,1,54,0.0,72.0
7872,81.0,57,40,4.0,66.0
7873,81.0,1,40,5.0,70.0
7874,81.0,4,41,0.0,62.0
7875,52.0,41,44,3.0,78.0
7876,52.0,4,36,6.0,64.0
7877,67.0,0,42,1.0,68.0
7878,60.0,5,43,2.0,68.0
7879,82.0,1,34,5.0,70.0
7880,82.0,5,36,0.0,68.0
7881,82.0,1,44,4.0,72.0
7882,81.0,0,46,0.0,76.0
7883,81.0,2,45,4.0,82.0
7884,81.0,2,47,5.0,68.0
7885,65.0,0,89,1.0,85.0
7886,60.0,2,98,2.0,72.0
7887,79.0,54,42,0.0,63.0
7888,79.0,7,37,5.0,61.0
7889,79.0,1,44,4.0,76.0
7890,77.0,2,34,4.0,72.0
7891,77.0,6,41,5.0,66.0
7892,77.0,49,48,0.0,66.0
7893,57.0,43,44,2.0,72.0
7894,67.0,6,44,1.0,74.0
7895,76.0,6,42,0.0,64.0
7896,76.0,1,44,4.0,70.0
7897,76.0,0,44,5.0,63.0
7898,77.0,1,39,5.0,72.0
7899,77.0,1,44,4.0,80.0
7900,77.0,3,50,0.0,78.0
7901,69.0,2,78,1.0,91.0
7902,62.0,57,94,2.0,91.0
7903,74.0,2,40,5.0,78.0
7904,74.0,1,42,4.0,80.0
7905,74.0,51,47,0.0,66.0
7906,76.0,59,37,5.0,80.0
7907,76.0,3,36,4.0,78.0
7908,76.0,0,40,0.0,87.0
7909,77.0,53,37,5.0,66.0
7910,77.0,5,34,0.0,80.0
7911,65.0,1,45,1.0,80.0
7912,77.0,2,48,4.0,80.0
7913,60.0,3,50,2.0,62.0
7914,53.0,1,508,6.0,66.0
7915,53.0,54,512,3.0,80.0
7916,62.0,1,90,1.0,87.0
7917,55.0,42,43,3.0,87.0
7918,55.0,2,42,6.0,76.0
7919,59.0,3,87,2.0,85.0
7920,53.0,58,36,6.0,72.0
7921,53.0,1,47,3.0,82.0
7922,52.0,3,34,6.0,70.0
7923,52.0,4,36,3.0,85.0
7924,67.0,54,47,1.0,70.0
7925,60.0,10,40,2.0,64.0
7926,50.0,46,47,3.0,87.0
7927,50.0,4,43,6.0,70.0
7928,67.0,57,289,5.0,64.0
7929,67.0,1,299,0.0,56.0
7930,67.0,6,310,4.0,66.0
7931,74.0,2,82,1.0,95.0
7932,48.0,37,40,3.0,82.0
7933,48.0,7,44,6.0,72.0
7934,59.0,12,92,2.0,82.0
7935,47.0,52,49,3.0,82.0
7936,69.0,1,37,5.0,66.0
7937,69.0,9,44,0.0,74.0
7938,69.0,1,43,4.0,63.0
7939,71.0,22,28,0.0,61.0
7940,47.0,3,52,6.0,78.0
7941,71.0,0,29,5.0,72.0
7942,71.0,2,31,4.0,72.0
7943,72.0,0,33,0.0,80.0
7944,72.0,3,33,5.0,70.0
7945,72.0,3,34,4.0,68.0
7946,72.0,4,42,1.0,85.0
7947,74.0,4,28,0.0,80.0
7948,45.0,26,54,3.0,95.0
7949,74.0,3,28,5.0,72.0
7950,45.0,1,44,6.0,85.0
7951,60.0,8,44,2.0,68.0
7952,74.0,7,32,4.0,70.0
7953,76.0,11,28,0.0,76.0
7954,76.0,0,30,5.0,80.0
7955,76.0,10,28,4.0,80.0
7956,71.0,1,91,1.0,87.0
7957,43.0,1,94,3.0,85.0
7958,77.0,12,99,0.0,82.0
7959,77.0,2,88,4.0,85.0
7960,62.0,6,92,2.0,87.0
7961,43.0,2,100,6.0,80.0
7962,77.0,1,108,5.0,85.0
7963,74.0,0,36,5.0,87.0
7964,47.0,1,39,3.0,78.0
7965,74.0,171,44,0.0,78.0
7966,55.0,3,43,2.0,91.0
7967,74.0,3,37,1.0,87.0
7968,47.0,1,43,6.0,85.0
7969,74.0,1,43,4.0,78.0
7970,76.0,1,72,4.0,91.0
7971,76.0,54,76,0.0,91.0
7972,76.0,2,74,5.0,87.0
7973,48.0,0,72,6.0,87.0
7974,72.0,0,75,1.0,85.0
7975,67.0,1,80,2.0,89.0
7976,48.0,0,82,3.0,91.0
7977,74.0,162,33,1.0,76.0
7978,77.0,5,36,4.0,78.0
7979,41.0,0,33,6.0,78.0
7980,77.0,3,36,0.0,78.0
7981,69.0,2,35,2.0,87.0
7982,77.0,0,36,5.0,82.0
7983,41.0,7,35,3.0,80.0
7984,72.0,55,70,1.0,80.0
7985,76.0,1,73,5.0,82.0
7986,76.0,0,75,4.0,82.0
7987,76.0,0,81,0.0,80.0
7988,71.0,55,26,1.0,66.0
7989,74.0,2,33,4.0,52.0
7990,74.0,4,40,5.0,51.0
7991,74.0,5,36,0.0,58.0
7992,72.0,18,24,1.0,68.0
7993,76.0,10,28,4.0,62.0
7994,71.0,4,16,1.0,58.0
7995,76.0,2,34,5.0,58.0
7996,76.0,6,28,0.0,63.0
7997,74.0,14,18,4.0,55.0
7998,67.0,2,149,2.0,82.0
7999,72.0,5,18,1.0,64.0
8000,74.0,1,19,5.0,61.0
8001,74.0,1,19,0.0,60.0
8002,71.0,1,15,1.0,58.0
8003,76.0,15,19,4.0,64.0
8004,43.0,1,175,6.0,82.0
8005,76.0,7,20,0.0,61.0
8006,76.0,1,20,5.0,58.0
8007,74.0,10,15,4.0,68.0
8008,72.0,0,16,1.0,68.0
8009,74.0,2,16,5.0,63.0
8010,43.0,5,184,3.0,85.0
8011,74.0,5,18,0.0,68.0
8012,71.0,8,16,1.0,66.0
8013,76.0,5,16,4.0,70.0
8014,76.0,3,18,0.0,60.0
8015,76.0,2,21,5.0,66.0
8016,74.0,0,18,4.0,68.0
8017,72.0,8,19,1.0,80.0
8018,74.0,5,17,0.0,68.0
8019,74.0,5,14,5.0,64.0
8020,71.0,6,18,1.0,68.0
8021,76.0,3,20,4.0,85.0
8022,76.0,2,25,0.0,66.0
8023,76.0,5,23,5.0,74.0
8024,72.0,6,23,1.0,87.0
8025,71.0,1,92,1.0,82.0
8026,74.0,4,109,4.0,82.0
8027,74.0,2,118,0.0,80.0
8028,74.0,4,118,5.0,70.0
8029,43.0,1,151,3.0,80.0
8030,62.0,1,164,2.0,85.0
8031,43.0,1,158,6.0,76.0
8032,67.0,158,40,1.0,80.0
8033,72.0,3,35,5.0,76.0
8034,72.0,8,38,4.0,82.0
8035,72.0,2,38,0.0,80.0
8036,72.0,2,37,4.0,89.0
8037,72.0,2,44,5.0,87.0
8038,72.0,3,57,0.0,80.0
8039,36.0,0,59,6.0,100.0
8040,67.0,1,67,1.0,89.0
8041,36.0,2,82,3.0,91.0
8042,64.0,60,99,2.0,85.0
8043,79.0,111,30,0.0,72.0
8044,79.0,3,29,5.0,72.0
8045,79.0,10,34,4.0,82.0
8046,79.0,101,35,0.0,87.0
8047,79.0,7,35,5.0,72.0
8048,79.0,6,38,4.0,80.0
8049,79.0,107,36,0.0,85.0
8050,79.0,11,33,5.0,76.0
8051,79.0,1,37,4.0,80.0
8052,76.0,108,106,0.0,70.0
8053,76.0,1,108,5.0,62.0
8054,76.0,9,114,4.0,66.0
8055,77.0,105,52,0.0,76.0
8056,77.0,7,48,5.0,56.0
8057,77.0,1,49,4.0,66.0
8058,79.0,42,42,0.0,74.0
8059,79.0,2,50,5.0,68.0
8060,79.0,4,52,4.0,68.0
8061,81.0,53,36,0.0,82.0
8062,81.0,6,33,4.0,68.0
8063,81.0,8,42,5.0,76.0
8064,77.0,106,37,0.0,82.0
8065,77.0,5,38,4.0,76.0
8066,77.0,14,45,5.0,78.0
8067,74.0,106,38,0.0,68.0
8068,74.0,13,41,5.0,68.0
8069,74.0,7,38,4.0,70.0
8070,79.0,101,43,0.0,74.0
8071,79.0,15,38,5.0,82.0
8072,79.0,3,43,4.0,85.0
8073,67.0,110,55,0.0,70.0
8074,67.0,3,58,5.0,66.0
8075,67.0,9,51,4.0,68.0
8076,77.0,117,43,0.0,80.0
8077,77.0,2,48,5.0,80.0
8078,77.0,5,45,4.0,82.0
8079,76.0,117,60,4.0,74.0
8080,76.0,0,61,0.0,85.0
8081,76.0,6,62,5.0,72.0
8082,74.0,4,50,0.0,66.0
8083,74.0,45,60,4.0,66.0
8084,74.0,6,54,5.0,63.0
8085,72.0,54,36,1.0,74.0
8086,72.0,1,65,0.0,66.0
8087,72.0,3,62,5.0,64.0
8088,72.0,2,69,4.0,63.0
8089,74.0,4,55,5.0,63.0
8090,74.0,48,59,0.0,60.0
8091,74.0,4,60,4.0,72.0
8092,72.0,54,42,1.0,80.0
8093,76.0,0,51,0.0,78.0
8094,76.0,8,49,5.0,68.0
8095,76.0,2,47,4.0,62.0
8096,74.0,4,54,5.0,68.0
8097,74.0,47,64,0.0,64.0
8098,74.0,1,61,4.0,64.0
8099,72.0,0,38,1.0,87.0
8100,76.0,54,48,0.0,61.0
8101,76.0,3,53,5.0,57.0
8102,76.0,8,60,4.0,59.0
8103,78.0,40,43,0.0,63.0
8104,78.0,6,41,5.0,58.0
8105,78.0,3,49,4.0,55.0
8106,79.0,5,97,4.0,74.0
8107,79.0,5,107,5.0,74.0
8108,71.0,3,120,1.0,87.0
8109,79.0,58,130,0.0,70.0
8110,72.0,106,48,1.0,63.0
8111,74.0,49,49,1.0,70.0
8112,74.0,17,35,0.0,68.0
8113,74.0,7,31,5.0,64.0
8114,74.0,4,32,4.0,57.0
8115,76.0,38,43,1.0,82.0
8116,79.0,14,116,0.0,82.0
8117,79.0,8,109,4.0,85.0
8118,79.0,1,111,5.0,85.0
8119,72.0,100,44,1.0,80.0
8120,79.0,69,26,0.0,72.0
8121,79.0,3,28,5.0,61.0
8122,79.0,1,31,4.0,70.0
8123,69.0,52,45,1.0,72.0
8124,79.0,2,105,0.0,89.0
8125,79.0,3,101,5.0,87.0
8126,79.0,7,107,4.0,85.0
8127,74.0,108,44,1.0,80.0
8128,78.0,42,37,0.0,64.0
8129,78.0,4,39,4.0,64.0
8130,78.0,6,36,5.0,61.0
8131,76.0,24,40,0.0,60.0
8132,76.0,0,41,4.0,66.0
8133,78.0,22,19,0.0,54.0
8134,76.0,8,41,5.0,61.0
8135,78.0,6,23,4.0,53.0
8136,78.0,0,27,5.0,58.0
8137,79.0,9,36,0.0,68.0
8138,62.0,8,48,1.0,78.0
8139,79.0,11,36,4.0,61.0
8140,79.0,4,39,5.0,70.0
8141,78.0,12,28,0.0,76.0
8142,78.0,13,29,5.0,68.0
8143,78.0,2,28,4.0,64.0
8144,79.0,11,44,0.0,80.0
8145,79.0,14,46,5.0,72.0
8146,79.0,4,45,4.0,72.0
8147,78.0,7,54,0.0,68.0
8148,78.0,20,44,5.0,50.0
8149,78.0,2,46,4.0,58.0
8150,72.0,9,42,1.0,80.0
8151,79.0,60,33,0.0,70.0
8152,79.0,6,32,5.0,72.0
8153,79.0,1,31,4.0,72.0
8154,71.0,0,58,1.0,100.0
8155,79.0,1,90,5.0,82.0
8156,79.0,2,100,0.0,82.0
8157,79.0,58,106,4.0,87.0
8158,69.0,53,53,1.0,72.0
8159,67.0,59,40,2.0,80.0
8160,77.0,4,57,5.0,64.0
8161,77.0,3,55,0.0,68.0
8162,67.0,2,64,1.0,63.0
8163,77.0,3,55,4.0,64.0
8164,69.0,44,51,1.0,58.0
8165,76.0,8,42,4.0,61.0
8166,76.0,1,53,0.0,62.0
8167,76.0,2,55,5.0,58.0
8168,74.0,1,33,0.0,62.0
8169,74.0,52,45,5.0,62.0
8170,67.0,2,43,2.0,82.0
8171,74.0,2,59,4.0,62.0
8172,71.0,2,59,1.0,80.0
8173,71.0,40,53,0.0,70.0
8174,71.0,6,50,5.0,57.0
8175,71.0,6,56,4.0,78.0
8176,67.0,2,57,1.0,68.0
8177,72.0,42,43,0.0,66.0
8178,72.0,5,52,5.0,64.0
8179,67.0,2,42,2.0,80.0
8180,72.0,7,49,4.0,55.0
8181,69.0,5,55,1.0,59.0
8182,74.0,44,45,5.0,68.0
8183,71.0,1,36,1.0,70.0
8184,74.0,0,49,0.0,70.0
8185,74.0,8,47,4.0,66.0
8186,67.0,4,40,4.0,63.0
8187,67.0,6,53,0.0,82.0
8188,67.0,54,59,5.0,64.0
8189,72.0,6,98,1.0,80.0
8190,64.0,2,110,2.0,80.0
8191,79.0,1,35,0.0,74.0
8192,79.0,2,36,4.0,74.0
8193,79.0,6,38,5.0,70.0
8194,65.0,113,51,2.0,64.0
8195,67.0,43,34,1.0,57.0
8196,67.0,3,44,2.0,80.0
8197,69.0,63,37,2.0,85.0
8198,76.0,4,36,0.0,68.0
8199,76.0,2,35,5.0,74.0
8200,76.0,7,36,4.0,70.0
8201,72.0,5,107,1.0,93.0
8202,65.0,98,48,2.0,66.0
8203,81.0,12,46,0.0,82.0
8204,81.0,3,46,5.0,80.0
8205,81.0,10,44,4.0,82.0
8206,72.0,35,32,1.0,68.0
8207,62.0,69,47,2.0,82.0
8208,72.0,3,62,1.0,89.0
8209,77.0,8,64,0.0,95.0
8210,77.0,3,61,5.0,82.0
8211,77.0,2,61,4.0,82.0
8212,71.0,48,52,1.0,76.0
8213,79.0,1,55,0.0,70.0
8214,79.0,4,53,5.0,60.0
8215,79.0,3,53,4.0,68.0
8216,67.0,2,40,2.0,89.0
8217,69.0,45,66,1.0,68.0
8218,77.0,1,58,0.0,60.0
8219,77.0,7,63,4.0,59.0
8220,77.0,4,58,5.0,52.0
8221,71.0,40,28,1.0,68.0
8222,76.0,15,56,4.0,51.0
8223,76.0,3,50,5.0,49.0
8224,76.0,3,54,0.0,52.0
8225,72.0,44,35,1.0,87.0
8226,55.0,7,52,2.0,80.0
8227,71.0,9,39,1.0,68.0
8228,74.0,5,56,4.0,61.0
8229,74.0,2,62,0.0,62.0
8230,74.0,3,60,5.0,58.0
8231,72.0,30,45,1.0,66.0
8232,77.0,12,65,4.0,59.0
8233,71.0,9,49,1.0,63.0
8234,77.0,5,69,0.0,66.0
8235,77.0,6,68,5.0,59.0
8236,65.0,36,46,2.0,74.0
8237,76.0,8,53,4.0,51.0
8238,76.0,1,55,0.0,61.0
8239,76.0,8,55,5.0,51.0
8240,72.0,35,30,1.0,64.0
8241,74.0,12,37,0.0,57.0
8242,74.0,1,48,4.0,62.0
8243,74.0,7,43,5.0,59.0
8244,64.0,4,62,2.0,89.0
8245,79.0,5,67,0.0,93.0
8246,79.0,1,63,4.0,82.0
8247,79.0,3,71,5.0,70.0
8248,72.0,49,98,1.0,87.0
8249,77.0,46,58,0.0,76.0
8250,77.0,2,60,4.0,68.0
8251,62.0,8,59,2.0,78.0
8252,77.0,1,75,5.0,57.0
8253,60.0,3,29,3.0,70.0
8254,60.0,54,39,6.0,85.0
8255,67.0,1,50,1.0,70.0
8256,76.0,1,62,0.0,60.0
8257,60.0,0,58,2.0,70.0
8258,76.0,1,58,5.0,57.0
8259,76.0,2,61,4.0,53.0
8260,65.0,0,44,1.0,60.0
8261,74.0,1,41,5.0,58.0
8262,62.0,3,50,2.0,68.0
8263,74.0,0,53,0.0,52.0
8264,74.0,48,61,4.0,56.0
8265,60.0,59,40,6.0,80.0
8266,67.0,0,40,1.0,85.0
8267,60.0,4,36,3.0,85.0
8268,64.0,1,48,2.0,80.0
8269,72.0,3,48,0.0,52.0
8270,72.0,0,54,4.0,60.0
8271,72.0,0,56,5.0,68.0
8272,71.0,0,43,0.0,41.0
8273,71.0,3,53,4.0,51.0
8274,71.0,3,53,5.0,51.0
8275,62.0,46,63,2.0,78.0
8276,72.0,49,50,0.0,57.0
8277,76.0,3,37,1.0,95.0
8278,72.0,2,42,4.0,54.0
8279,60.0,3,36,6.0,78.0
8280,72.0,9,53,5.0,66.0
8281,60.0,0,46,3.0,82.0
8282,64.0,1,58,2.0,70.0
8283,69.0,43,36,0.0,59.0
8284,66.0,5,40,2.0,68.0
8285,69.0,3,42,4.0,60.0
8286,69.0,5,45,5.0,68.0
8287,74.0,1,66,1.0,93.0
8288,74.0,51,90,0.0,66.0
8289,67.0,0,101,2.0,87.0
8290,74.0,2,105,4.0,78.0
8291,74.0,2,101,5.0,64.0
8292,59.0,3,111,6.0,85.0
8293,59.0,6,121,3.0,87.0
8294,72.0,51,62,1.0,78.0
8295,76.0,4,42,0.0,62.0
8296,71.0,2,49,1.0,68.0
8297,60.0,55,56,3.0,78.0
8298,76.0,2,48,4.0,59.0
8299,60.0,1,53,6.0,74.0
8300,76.0,7,46,5.0,59.0
8301,62.0,1,28,2.0,64.0
8302,78.0,2,35,0.0,61.0
8303,62.0,39,43,3.0,82.0
8304,62.0,4,36,6.0,78.0
8305,69.0,2,45,1.0,57.0
8306,78.0,1,41,4.0,59.0
8307,78.0,1,42,5.0,62.0
8308,64.0,1,47,3.0,87.0
8309,64.0,2,43,6.0,82.0
8310,67.0,52,64,1.0,76.0
8311,79.0,0,86,5.0,82.0
8312,79.0,0,92,4.0,89.0
8313,79.0,8,101,0.0,82.0
8314,67.0,2,102,2.0,91.0
8315,81.0,2,36,0.0,76.0
8316,60.0,2,48,3.0,82.0
8317,60.0,1,41,6.0,74.0
8318,81.0,5,46,5.0,63.0
8319,81.0,5,42,4.0,63.0
8320,76.0,109,62,1.0,82.0
8321,67.0,2,30,2.0,74.0
8322,83.0,3,31,0.0,80.0
8323,83.0,2,39,5.0,66.0
8324,83.0,2,42,4.0,60.0
8325,74.0,42,48,1.0,74.0
8326,76.0,0,38,1.0,93.0
8327,57.0,4,49,6.0,74.0
8328,57.0,1,54,3.0,85.0
8329,67.0,3,104,2.0,95.0
8330,84.0,55,119,5.0,76.0
8331,84.0,1,119,0.0,82.0
8332,84.0,1,114,4.0,82.0
8333,62.0,1,36,6.0,80.0
8334,62.0,1,41,3.0,85.0
8335,69.0,115,48,1.0,85.0
8336,66.0,29,34,2.0,58.0
8337,83.0,23,28,5.0,78.0
8338,83.0,4,26,0.0,72.0
8339,83.0,7,25,4.0,72.0
8340,64.0,4,36,2.0,58.0
8341,66.0,20,32,2.0,66.0
8342,83.0,24,28,5.0,85.0
8343,83.0,2,28,0.0,91.0
8344,83.0,4,28,4.0,87.0
8345,67.0,4,37,2.0,72.0
8346,50.0,2,51,6.0,82.0
8347,81.0,12,35,0.0,78.0
8348,81.0,2,33,5.0,61.0
8349,50.0,1,58,3.0,82.0
8350,81.0,4,28,4.0,66.0
8351,66.0,10,33,2.0,82.0
8352,74.0,1,67,1.0,95.0
8353,83.0,12,43,5.0,72.0
8354,83.0,4,44,0.0,70.0
8355,83.0,1,37,4.0,72.0
8356,67.0,7,42,2.0,82.0
8357,72.0,2,64,1.0,78.0
8358,66.0,2,57,2.0,70.0
8359,81.0,17,73,5.0,62.0
8360,81.0,3,73,0.0,66.0
8361,81.0,6,66,4.0,64.0
8362,60.0,4,41,6.0,82.0
8363,60.0,30,46,3.0,87.0
8364,71.0,0,68,1.0,68.0
8365,79.0,1,35,4.0,74.0
8366,67.0,45,40,2.0,80.0
8367,79.0,1,29,5.0,74.0
8368,79.0,9,30,0.0,70.0
8369,72.0,10,46,1.0,68.0
8370,59.0,3,55,6.0,89.0
8371,67.0,51,68,2.0,82.0
8372,59.0,1,59,3.0,82.0
8373,69.0,43,56,2.0,82.0
8374,79.0,3,103,0.0,85.0
8375,57.0,2,50,6.0,68.0
8376,57.0,12,52,3.0,78.0
8377,79.0,0,115,5.0,85.0
8378,79.0,3,124,4.0,85.0
8379,71.0,40,55,2.0,70.0
8380,77.0,3,46,0.0,68.0
8381,77.0,1,49,5.0,60.0
8382,77.0,9,42,4.0,63.0
8383,55.0,13,67,3.0,68.0
8384,55.0,6,64,6.0,64.0
8385,76.0,4,32,0.0,60.0
8386,72.0,24,50,2.0,72.0
8387,76.0,0,35,5.0,58.0
8388,76.0,3,41,4.0,53.0
8389,57.0,13,53,3.0,66.0
8390,57.0,4,45,6.0,63.0
8391,74.0,0,255,1.0,76.0
8392,74.0,46,46,2.0,100.0
8393,74.0,6,58,0.0,64.0
8394,74.0,2,53,5.0,60.0
8395,59.0,1,56,6.0,85.0
8396,74.0,2,59,4.0,54.0
8397,59.0,4,67,3.0,87.0
8398,71.0,0,41,1.0,82.0
8399,55.0,1,51,6.0,72.0
8400,55.0,4,57,3.0,80.0
8401,76.0,4,62,0.0,70.0
8402,76.0,0,60,4.0,62.0
8403,76.0,43,74,5.0,66.0
8404,72.0,0,36,1.0,85.0
8405,67.0,51,44,2.0,85.0
8406,77.0,1,46,0.0,72.0
8407,77.0,3,44,4.0,68.0
8408,77.0,0,49,5.0,64.0
8409,57.0,4,56,6.0,63.0
8410,57.0,1,63,3.0,66.0
8411,59.0,47,43,3.0,72.0
8412,74.0,2,37,1.0,82.0
8413,59.0,1,42,6.0,72.0
8414,74.0,4,46,0.0,57.0
8415,74.0,0,50,5.0,60.0
8416,74.0,6,45,4.0,62.0
8417,76.0,1,50,5.0,64.0
8418,60.0,2,53,6.0,80.0
8419,60.0,0,55,3.0,80.0
8420,76.0,0,52,4.0,70.0
8421,76.0,2,57,0.0,76.0
8422,79.0,1,58,0.0,60.0
8423,79.0,4,59,4.0,62.0
8424,79.0,52,64,5.0,55.0
8425,67.0,3,129,1.0,87.0
8426,72.0,56,148,2.0,72.0
8427,55.0,55,46,6.0,78.0
8428,55.0,0,48,3.0,82.0
8429,77.0,0,52,0.0,52.0
8430,77.0,5,56,5.0,44.0
8431,77.0,3,60,4.0,52.0
8432,74.0,48,37,1.0,82.0
8433,79.0,5,47,0.0,59.0
8434,79.0,1,55,5.0,70.0
8435,79.0,3,50,4.0,58.0
8436,81.0,0,62,5.0,74.0
8437,81.0,1,65,0.0,80.0
8438,81.0,6,61,4.0,80.0
8439,72.0,0,74,1.0,82.0
8440,79.0,49,57,0.0,64.0
8441,64.0,48,127,2.0,85.0
8442,71.0,2,57,1.0,82.0
8443,79.0,1,58,4.0,64.0
8444,79.0,1,62,5.0,61.0
8445,60.0,10,134,3.0,89.0
8446,60.0,1,141,6.0,82.0
8447,69.0,2,51,1.0,58.0
8448,77.0,57,59,0.0,56.0
8449,77.0,0,60,4.0,59.0
8450,77.0,5,64,5.0,50.0
8451,64.0,38,41,2.0,68.0
8452,60.0,3,26,6.0,80.0
8453,67.0,11,36,1.0,61.0
8454,60.0,3,32,3.0,78.0
8455,76.0,2,45,4.0,60.0
8456,76.0,1,54,0.0,57.0
8457,76.0,5,57,5.0,52.0
8458,69.0,47,50,2.0,89.0
8459,60.0,3,42,6.0,80.0
8460,60.0,2,53,3.0,85.0
8461,74.0,1,61,0.0,64.0
8462,74.0,4,62,4.0,72.0
8463,74.0,2,55,5.0,61.0
8464,59.0,0,39,6.0,76.0
8465,59.0,2,48,3.0,85.0
8466,77.0,2,59,4.0,64.0
8467,77.0,46,65,0.0,59.0
8468,65.0,3,128,1.0,82.0
8469,77.0,6,67,5.0,58.0
8470,60.0,51,42,6.0,76.0
8471,60.0,2,46,3.0,80.0
8472,57.0,0,55,2.0,78.0
8473,76.0,5,55,0.0,44.0
8474,76.0,2,63,4.0,44.0
8475,76.0,7,59,5.0,44.0
8476,72.0,40,33,1.0,72.0
8477,57.0,0,42,3.0,68.0
8478,57.0,0,50,6.0,64.0
8479,77.0,0,48,0.0,59.0
8480,77.0,8,50,5.0,59.0
8481,77.0,8,61,4.0,54.0
8482,79.0,3,55,4.0,72.0
8483,79.0,3,60,0.0,82.0
8484,79.0,4,61,5.0,57.0
8485,71.0,4,79,1.0,76.0
8486,77.0,47,62,4.0,62.0
8487,77.0,0,63,0.0,64.0
8488,77.0,3,64,5.0,64.0
8489,69.0,1,67,1.0,60.0
8490,62.0,50,140,2.0,87.0
8491,59.0,0,142,3.0,87.0
8492,59.0,0,135,6.0,82.0
8493,67.0,60,52,1.0,60.0
8494,76.0,1,58,0.0,58.0
8495,76.0,2,57,5.0,63.0
8496,76.0,0,63,4.0,57.0
8497,59.0,1,32,3.0,80.0
8498,59.0,4,29,6.0,68.0
8499,62.0,53,39,2.0,64.0
8500,65.0,0,44,1.0,56.0
8501,74.0,3,46,5.0,59.0
8502,74.0,0,48,0.0,54.0
8503,74.0,0,55,4.0,57.0
8504,59.0,1,41,6.0,80.0
8505,59.0,3,42,3.0,93.0
8506,67.0,1,48,2.0,93.0
8507,72.0,1,44,4.0,60.0
8508,72.0,52,54,0.0,66.0
8509,72.0,1,48,5.0,59.0
8510,76.0,46,63,0.0,60.0
8511,76.0,7,66,5.0,58.0
8512,64.0,2,122,1.0,82.0
8513,76.0,5,64,4.0,63.0
8514,52.0,0,45,3.0,89.0
8515,52.0,4,47,6.0,78.0
8516,55.0,3,55,2.0,89.0
8517,74.0,55,59,0.0,39.0
8518,74.0,0,63,5.0,52.0
8519,74.0,1,64,4.0,55.0
8520,71.0,2,28,1.0,80.0
8521,76.0,48,44,0.0,57.0
8522,76.0,1,49,4.0,60.0
8523,76.0,4,60,5.0,60.0
8524,77.0,2,59,5.0,60.0
8525,77.0,55,61,0.0,74.0
8526,77.0,4,61,4.0,78.0
8527,69.0,2,83,1.0,95.0
8528,76.0,42,64,0.0,60.0
8529,76.0,0,65,5.0,58.0
8530,76.0,5,67,4.0,66.0
8531,67.0,17,60,1.0,76.0
8532,60.0,3,134,2.0,74.0
8533,57.0,1,142,6.0,85.0
8534,57.0,2,148,3.0,89.0
8535,74.0,42,59,0.0,58.0
8536,74.0,2,59,5.0,58.0
8537,74.0,1,61,4.0,57.0
8538,65.0,12,52,1.0,63.0
8539,60.0,0,33,2.0,57.0
8540,57.0,0,30,6.0,70.0
8541,57.0,0,30,3.0,87.0
8542,64.0,2,36,1.0,60.0
8543,72.0,1,53,0.0,57.0
8544,72.0,44,59,5.0,53.0
8545,72.0,7,51,4.0,57.0
8546,71.0,3,43,5.0,52.0
8547,65.0,6,50,2.0,78.0
8548,71.0,52,60,0.0,59.0
8549,71.0,2,51,4.0,60.0
8550,57.0,3,52,3.0,91.0
8551,57.0,1,56,6.0,87.0
8552,55.0,1,45,3.0,76.0
8553,55.0,3,50,6.0,78.0
8554,74.0,2,63,0.0,60.0
8555,74.0,43,68,5.0,62.0
8556,74.0,4,67,4.0,68.0
8557,62.0,0,121,1.0,82.0
8558,57.0,49,42,3.0,64.0
8559,57.0,4,47,6.0,72.0
8560,72.0,0,62,5.0,52.0
8561,53.0,12,49,2.0,78.0
8562,72.0,1,63,0.0,42.0
8563,72.0,0,70,4.0,48.0
8564,53.0,29,38,3.0,78.0
8565,69.0,0,31,1.0,82.0
8566,74.0,2,48,0.0,60.0
8567,74.0,1,52,5.0,60.0
8568,53.0,14,56,6.0,63.0
8569,74.0,6,52,4.0,59.0
8570,76.0,2,55,5.0,53.0
8571,76.0,8,61,0.0,72.0
8572,76.0,1,56,4.0,68.0
8573,67.0,7,79,1.0,91.0
8574,74.0,40,63,0.0,60.0
8575,74.0,3,63,5.0,58.0
8576,74.0,5,68,4.0,68.0
8577,65.0,2,70,1.0,70.0
8578,55.0,44,148,3.0,76.0
8579,59.0,3,131,2.0,82.0
8580,55.0,1,145,6.0,70.0
8581,72.0,49,56,0.0,58.0
8582,72.0,1,52,5.0,55.0
8583,64.0,12,55,1.0,66.0
8584,72.0,1,58,4.0,59.0
8585,55.0,2,32,6.0,82.0
8586,62.0,5,36,1.0,60.0
8587,55.0,2,35,3.0,80.0
8588,71.0,46,49,0.0,43.0
8589,59.0,5,41,2.0,63.0
8590,71.0,2,58,5.0,52.0
8591,71.0,0,61,4.0,55.0
8592,55.0,2,39,3.0,89.0
8593,55.0,9,43,6.0,80.0
8594,69.0,42,58,0.0,58.0
8595,64.0,0,46,2.0,93.0
8596,69.0,1,48,5.0,56.0
8597,69.0,7,51,4.0,64.0
8598,72.0,34,66,0.0,55.0
8599,72.0,1,53,5.0,60.0
8600,72.0,22,58,4.0,58.0
8601,60.0,1,136,1.0,82.0
8602,48.0,0,47,6.0,85.0
8603,48.0,3,52,3.0,100.0
8604,52.0,2,55,2.0,87.0
8605,71.0,45,69,0.0,39.0
8606,71.0,10,66,5.0,41.0
8607,71.0,1,64,4.0,36.0
8608,72.0,42,41,0.0,57.0
8609,67.0,10,35,1.0,68.0
8610,72.0,0,45,5.0,53.0
8611,72.0,4,51,4.0,60.0
8612,74.0,46,69,0.0,64.0
8613,74.0,1,57,5.0,56.0
8614,74.0,1,68,4.0,55.0
8615,65.0,3,75,1.0,78.0
8616,64.0,4,55,1.0,68.0
8617,72.0,40,73,0.0,64.0
8618,72.0,4,70,4.0,63.0
8619,72.0,5,72,5.0,63.0
8620,57.0,1,129,2.0,85.0
8621,53.0,12,144,6.0,80.0
8622,53.0,0,148,3.0,89.0
8623,62.0,0,43,1.0,66.0
8624,71.0,10,47,5.0,55.0
8625,71.0,3,44,4.0,58.0
8626,71.0,47,61,0.0,57.0
8627,57.0,4,29,2.0,64.0
8628,60.0,2,40,1.0,64.0
8629,53.0,5,29,6.0,82.0
8630,53.0,5,27,3.0,78.0
8631,69.0,47,62,0.0,60.0
8632,69.0,0,55,4.0,64.0
8633,69.0,5,59,5.0,68.0
8634,71.0,44,36,0.0,64.0
8635,71.0,3,39,4.0,70.0
8636,67.0,4,58,1.0,80.0
8637,71.0,4,52,5.0,60.0
8638,53.0,1,48,6.0,89.0
8639,53.0,2,52,3.0,91.0
8640,62.0,3,60,2.0,80.0
8641,52.0,0,51,6.0,72.0
8642,60.0,45,51,2.0,64.0
8643,52.0,3,51,3.0,72.0
8644,79.0,2,31,0.0,64.0
8645,79.0,6,32,5.0,72.0
8646,62.0,5,42,2.0,63.0
8647,53.0,52,50,6.0,66.0
8648,53.0,1,52,3.0,68.0
8649,71.0,0,46,1.0,80.0
8650,79.0,4,39,4.0,82.0
8651,50.0,37,32,6.0,63.0
8652,50.0,3,38,3.0,62.0
8653,59.0,0,49,2.0,78.0
8654,79.0,2,35,0.0,85.0
8655,79.0,8,33,5.0,78.0
8656,79.0,4,40,4.0,87.0
8657,52.0,62,65,6.0,68.0
8658,64.0,6,61,2.0,89.0
8659,52.0,4,64,3.0,85.0
8660,67.0,1,67,1.0,85.0
8661,53.0,32,62,6.0,66.0
8662,53.0,10,55,3.0,64.0
8663,69.0,1,60,1.0,80.0
8664,55.0,46,46,6.0,70.0
8665,62.0,2,40,2.0,85.0
8666,55.0,9,47,3.0,70.0
8667,79.0,7,39,0.0,82.0
8668,79.0,7,37,5.0,68.0
8669,71.0,2,57,1.0,70.0
8670,79.0,11,39,4.0,85.0
8671,67.0,2,39,1.0,72.0
8672,52.0,5,43,3.0,66.0
8673,52.0,23,50,6.0,57.0
8674,57.0,62,66,6.0,76.0
8675,57.0,4,64,3.0,91.0
8676,72.0,2,63,1.0,82.0
8677,58.0,2,52,3.0,78.0
8678,60.0,1,111,2.0,80.0
8679,74.0,4,57,1.0,82.0
8680,76.0,6,118,0.0,80.0
8681,76.0,9,110,5.0,64.0
8682,58.0,33,75,6.0,70.0
8683,76.0,4,110,4.0,85.0
8684,72.0,2,50,1.0,70.0
8685,62.0,1,50,2.0,78.0
8686,77.0,11,53,0.0,74.0
8687,77.0,4,50,5.0,57.0
8688,57.0,57,72,3.0,72.0
8689,57.0,1,73,6.0,70.0
8690,77.0,8,51,4.0,82.0
8691,64.0,22,50,2.0,78.0
8692,70.0,2,49,1.0,57.0
8693,79.0,4,46,5.0,66.0
8694,79.0,3,43,0.0,76.0
8695,55.0,1,54,3.0,60.0
8696,55.0,9,60,6.0,74.0
8697,79.0,14,46,4.0,72.0
8698,81.0,9,35,0.0,85.0
8699,81.0,5,40,5.0,64.0
8700,65.0,1,59,2.0,85.0
8701,81.0,7,39,4.0,80.0
8702,53.0,32,69,3.0,66.0
8703,53.0,3,70,6.0,60.0
8704,69.0,3,54,1.0,89.0
8705,52.0,3,65,6.0,66.0
8706,52.0,31,73,3.0,55.0
8707,77.0,4,38,0.0,85.0
8708,77.0,5,33,5.0,66.0
8709,69.0,5,41,1.0,87.0
8710,65.0,5,47,2.0,82.0
8711,77.0,2,41,4.0,76.0
8712,50.0,59,63,6.0,70.0
8713,50.0,6,66,3.0,64.0
8714,48.0,33,50,6.0,64.0
8715,48.0,10,41,3.0,66.0
8716,74.0,2,38,4.0,78.0
8717,74.0,1,37,0.0,78.0
8718,74.0,5,35,5.0,63.0
8719,67.0,1,49,2.0,87.0
8720,47.0,49,66,6.0,70.0
8721,47.0,13,74,3.0,82.0
8722,74.0,3,64,1.0,85.0
8723,72.0,1,53,1.0,80.0
8724,45.0,38,71,6.0,64.0
8725,45.0,14,64,3.0,80.0
8726,79.0,1,34,0.0,82.0
8727,64.0,4,34,2.0,64.0
8728,79.0,52,41,5.0,72.0
8729,79.0,0,43,4.0,74.0
8730,71.0,2,57,1.0,72.0
8731,62.0,0,59,2.0,64.0
8732,43.0,0,56,6.0,59.0
8733,43.0,5,57,3.0,74.0
8734,72.0,50,47,1.0,64.0
8735,45.0,2,43,3.0,78.0
8736,45.0,5,53,6.0,70.0
8737,67.0,0,49,0.0,80.0
8738,67.0,0,53,5.0,59.0
8739,67.0,51,53,2.0,85.0
8740,67.0,3,52,4.0,72.0
8741,74.0,1,53,1.0,82.0
8742,47.0,0,55,3.0,82.0
8743,47.0,5,59,6.0,68.0
8744,72.0,43,56,1.0,66.0
8745,45.0,0,51,3.0,80.0
8746,45.0,11,53,6.0,74.0
8747,47.0,3,38,6.0,70.0
8748,77.0,2,40,0.0,82.0
8749,47.0,51,49,3.0,66.0
8750,77.0,1,43,4.0,82.0
8751,71.0,2,53,2.0,87.0
8752,74.0,0,53,1.0,72.0
8753,77.0,4,52,5.0,72.0
8754,71.0,5,38,1.0,66.0
8755,43.0,46,50,6.0,57.0
8756,43.0,1,54,3.0,63.0
8757,49.0,55,10,3.0,76.0
8758,48.0,4,49,6.0,76.0
8759,67.0,0,60,2.0,85.0
8760,48.0,1,61,3.0,87.0
8761,72.0,2,113,1.0,82.0
8762,76.0,1,129,0.0,78.0
8763,76.0,6,137,5.0,68.0
8764,76.0,3,140,4.0,80.0
8765,53.0,5,44,6.0,74.0
8766,69.0,112,51,2.0,85.0
8767,53.0,2,53,3.0,89.0
8768,74.0,31,23,1.0,68.0
8769,74.0,20,28,0.0,63.0
8770,74.0,7,25,5.0,59.0
8771,74.0,5,31,4.0,63.0
8772,72.0,34,32,1.0,80.0
8773,76.0,6,28,0.0,74.0
8774,76.0,2,31,4.0,78.0
8775,76.0,1,36,5.0,66.0
8776,62.0,11,49,2.0,80.0
8777,71.0,1,36,1.0,85.0
8778,55.0,1,37,6.0,80.0
8779,55.0,5,50,3.0,91.0
8780,74.0,12,34,0.0,63.0
8781,74.0,2,24,4.0,63.0
8782,72.0,5,38,1.0,70.0
8783,76.0,9,39,0.0,64.0
8784,76.0,9,38,4.0,60.0
8785,76.0,3,38,5.0,63.0
8786,71.0,2,63,1.0,80.0
8787,74.0,11,52,0.0,66.0
8788,74.0,8,70,4.0,70.0
8789,74.0,12,120,5.0,55.0
8790,67.0,31,48,2.0,89.0
8791,43.0,8,42,6.0,72.0
8792,43.0,4,50,3.0,89.0
8793,72.0,40,29,0.0,64.0
8794,72.0,9,33,5.0,66.0
8795,67.0,5,29,1.0,72.0
8796,72.0,3,35,4.0,64.0
8797,48.0,3,58,6.0,66.0
8798,72.0,0,79,5.0,70.0
8799,47.0,44,69,6.0,66.0
8800,67.0,1,131,1.0,89.0
8801,64.0,0,142,2.0,89.0
8802,72.0,57,144,0.0,78.0
8803,48.0,7,141,3.0,93.0
8804,76.0,13,38,5.0,66.0
8805,48.0,60,61,6.0,62.0
8806,72.0,1,166,4.0,72.0
8807,50.0,48,46,6.0,72.0
8808,76.0,8,43,5.0,64.0
8809,48.0,59,51,6.0,68.0
8810,50.0,44,62,6.0,68.0
8811,52.0,63,39,6.0,66.0
8812,76.0,16,34,5.0,78.0
8813,48.0,39,51,6.0,57.0
8814,53.0,68,56,6.0,62.0
8815,55.0,55,47,6.0,60.0
8816,72.0,10,116,5.0,68.0
8817,53.0,62,52,6.0,59.0
8818,74.0,4,53,5.0,66.0
8819,76.0,54,51,5.0,68.0
8820,52.0,1,52,6.0,57.0
8821,77.0,1,38,5.0,64.0
8822,50.0,4,52,6.0,61.0
8823,52.0,56,43,6.0,62.0
8824,74.0,5,40,5.0,66.0
8825,53.0,59,48,6.0,68.0
8826,50.0,51,48,6.0,57.0
8827,71.0,4,45,5.0,68.0
8828,52.0,64,49,6.0,66.0
8829,50.0,50,49,6.0,56.0
8830,76.0,10,36,5.0,72.0
8831,52.0,57,52,6.0,57.0
8832,53.0,52,54,6.0,60.0
8833,81.0,59,486,4.0,60.0
8834,52.0,59,53,6.0,59.0
8835,64.0,8,51,5.0,66.0
8836,50.0,41,55,6.0,59.0
8837,74.0,8,37,5.0,74.0
8838,48.0,69,51,6.0,46.0
8839,47.0,48,54,6.0,52.0
8840,80.0,5,222,4.0,48.0
8841,45.0,67,58,6.0,57.0
8842,81.0,9,67,4.0,57.0
8843,47.0,42,66,6.0,63.0
8844,76.0,2,35,4.0,61.0
8845,48.0,65,56,6.0,57.0
8846,50.0,51,45,6.0,60.0
8847,72.0,8,243,5.0,53.0
8848,76.0,18,38,4.0,80.0
8849,52.0,56,67,6.0,68.0
8850,54.0,37,53,6.0,55.0
8851,56.0,63,55,6.0,63.0
8852,76.0,21,43,4.0,72.0
8853,52.0,35,43,6.0,68.0
8854,57.0,69,48,6.0,68.0
8855,55.0,45,50,6.0,60.0
8856,72.0,17,111,4.0,78.0
8857,53.0,59,52,6.0,59.0
8858,74.0,21,49,4.0,72.0
8859,52.0,43,42,6.0,58.0
8860,76.0,4,47,4.0,68.0
8861,77.0,1,41,4.0,70.0
8862,50.0,56,54,6.0,60.0
8863,52.0,56,46,6.0,62.0
8864,53.0,55,46,6.0,58.0
8865,74.0,14,47,4.0,80.0
8866,50.0,44,49,6.0,59.0
8867,71.0,9,47,4.0,68.0
8868,52.0,64,57,6.0,61.0
8869,50.0,48,46,6.0,53.0
8870,76.0,9,38,4.0,76.0
8871,52.0,63,54,6.0,60.0
8872,53.0,51,40,6.0,64.0
8873,81.0,4,472,5.0,57.0
8874,52.0,1,46,6.0,68.0
8875,64.0,8,48,4.0,68.0
8876,50.0,48,56,6.0,61.0
8877,48.0,63,46,6.0,57.0
8878,74.0,6,46,4.0,80.0
8879,47.0,53,49,6.0,64.0
8880,80.0,61,233,5.0,52.0
8881,72.0,62,59,4.0,72.0
8882,45.0,11,57,6.0,74.0
8883,71.0,37,67,4.0,59.0
8884,57.0,14,37,6.0,74.0
8885,81.0,2,162,5.0,57.0
8886,69.0,70,68,4.0,58.0
8887,71.0,43,66,4.0,55.0
8888,57.0,0,40,6.0,82.0
8889,72.0,6,49,4.0,62.0
8890,71.0,55,62,4.0,60.0
8891,57.0,64,37,6.0,85.0
8892,72.0,0,55,4.0,58.0
8893,74.0,55,57,4.0,60.0
8894,71.0,61,56,4.0,66.0
8895,55.0,4,98,6.0,82.0
8896,74.0,51,55,4.0,60.0
8897,57.0,63,44,6.0,64.0
8898,72.0,3,59,4.0,57.0
8899,77.0,62,445,5.0,60.0
8900,59.0,54,40,6.0,59.0
8901,74.0,0,64,4.0,64.0
8902,60.0,4,43,6.0,85.0
8903,76.0,62,61,4.0,68.0
8904,79.0,54,64,4.0,68.0
8905,57.0,9,43,6.0,80.0
8906,78.0,60,65,4.0,55.0
8907,79.0,56,50,4.0,68.0
8908,54.0,61,44,6.0,66.0
8909,81.0,3,62,4.0,62.0
8910,79.0,52,52,4.0,59.0
8911,59.0,6,42,6.0,80.0
8912,78.0,57,60,4.0,54.0
8913,76.0,0,427,5.0,51.0
8914,79.0,47,65,4.0,61.0
8915,81.0,62,52,4.0,66.0
8916,47.0,2,51,6.0,74.0
8917,83.0,46,68,4.0,82.0
8918,59.0,7,43,6.0,70.0
8919,80.0,63,75,4.0,64.0
8920,81.0,62,52,4.0,72.0
8921,56.0,57,44,6.0,78.0
8922,83.0,11,65,4.0,70.0
8923,81.0,57,60,4.0,63.0
8924,52.0,51,46,6.0,59.0
8925,80.0,9,64,4.0,57.0
8926,74.0,6,464,5.0,53.0
8927,78.0,62,60,4.0,48.0
8928,57.0,3,41,6.0,80.0
8929,76.0,10,48,4.0,64.0
8930,72.0,56,63,5.0,64.0
8931,74.0,71,51,4.0,55.0
8932,50.0,40,44,6.0,82.0
8933,71.0,4,55,5.0,57.0
8934,76.0,7,63,4.0,60.0
8935,77.0,58,55,4.0,58.0
8936,76.0,112,27,0.0,68.0
8937,52.0,4,143,6.0,76.0
8938,72.0,62,156,4.0,68.0
8939,69.0,0,163,5.0,68.0
8940,72.0,1,37,4.0,72.0
8941,69.0,107,40,5.0,60.0
8942,76.0,0,35,0.0,74.0
8943,68.0,13,27,5.0,58.0
8944,71.0,11,28,4.0,45.0
8945,69.0,20,39,5.0,60.0
8946,72.0,4,42,4.0,64.0
8947,40.0,12,146,6.0,78.0
8948,76.0,38,42,0.0,85.0
8949,68.0,23,108,5.0,64.0
8950,71.0,9,101,4.0,66.0
8951,69.0,2,56,4.0,72.0
8952,69.0,0,57,5.0,68.0
8953,72.0,121,116,0.0,76.0
8954,72.0,1,55,5.0,64.0
8955,72.0,51,68,4.0,60.0
8956,57.0,7,61,2.0,80.0
8957,69.0,7,35,1.0,66.0
8958,74.0,52,49,4.0,66.0
8959,74.0,2,46,0.0,74.0
8960,74.0,1,53,5.0,62.0
8961,59.0,1,56,2.0,80.0
8962,76.0,34,54,4.0,61.0
8963,76.0,4,38,0.0,64.0
8964,60.0,6,43,2.0,68.0
8965,76.0,10,54,5.0,60.0
8966,45.0,2,222,6.0,64.0
8967,77.0,48,45,4.0,70.0
8968,77.0,0,43,5.0,68.0
8969,69.0,1,42,1.0,80.0
8970,77.0,7,46,0.0,85.0
8971,62.0,6,46,2.0,78.0
8972,59.0,52,59,2.0,66.0
8973,74.0,1,36,0.0,80.0
8974,74.0,54,46,5.0,72.0
8975,60.0,3,50,2.0,52.0
8976,69.0,2,43,1.0,82.0
8977,74.0,4,45,4.0,74.0
8978,62.0,43,65,2.0,63.0
8979,71.0,3,35,5.0,66.0
8980,71.0,2,43,0.0,78.0
8981,71.0,5,38,4.0,68.0
8982,64.0,68,64,2.0,74.0
8983,65.0,42,55,2.0,89.0
8984,67.0,1,120,1.0,80.0
8985,64.0,64,46,2.0,61.0
8986,76.0,2,39,0.0,76.0
8987,76.0,6,46,5.0,66.0
8988,69.0,0,52,1.0,64.0
8989,76.0,6,46,4.0,74.0
8990,62.0,6,42,2.0,60.0
8991,71.0,39,50,1.0,74.0
8992,72.0,59,42,1.0,82.0
8993,64.0,5,53,0.0,68.0
8994,64.0,5,50,5.0,68.0
8995,60.0,2,61,2.0,66.0
8996,64.0,11,46,4.0,64.0
8997,62.0,41,45,2.0,59.0
8998,69.0,1,44,1.0,74.0
8999,76.0,12,38,0.0,87.0
9000,64.0,55,51,2.0,53.0
9001,76.0,6,36,5.0,78.0
9002,76.0,9,42,4.0,80.0
9003,60.0,23,42,2.0,57.0
9004,62.0,2,45,2.0,68.0
9005,66.0,73,48,1.0,64.0
9006,69.0,6,104,4.0,68.0
9007,69.0,2,116,0.0,85.0
9008,69.0,5,113,5.0,68.0
9009,60.0,51,72,3.0,82.0
9010,60.0,6,67,6.0,70.0
9011,71.0,47,46,1.0,85.0
9012,62.0,7,49,2.0,91.0
9013,71.0,1,47,0.0,76.0
9014,71.0,1,50,4.0,66.0
9015,59.0,1,56,3.0,66.0
9016,71.0,9,46,5.0,63.0
9017,59.0,3,58,6.0,64.0
9018,72.0,34,43,0.0,78.0
9019,72.0,7,40,5.0,60.0
9020,72.0,5,48,4.0,68.0
9021,57.0,2,45,6.0,51.0
9022,57.0,1,51,3.0,66.0
9023,56.0,4,40,3.0,63.0
9024,62.0,1,51,2.0,87.0
9025,59.0,52,65,1.0,72.0
9026,56.0,1,56,6.0,63.0
9027,57.0,43,71,3.0,62.0
9028,57.0,11,71,6.0,64.0
9029,69.0,51,42,1.0,87.0
9030,62.0,2,46,2.0,85.0
9031,56.0,1,51,3.0,60.0
9032,56.0,6,63,6.0,57.0
9033,54.0,42,54,3.0,55.0
9034,54.0,16,54,6.0,60.0
9035,74.0,6,244,4.0,64.0
9036,74.0,0,268,0.0,70.0
9037,74.0,2,260,5.0,68.0
9038,52.0,47,55,3.0,68.0
9039,52.0,8,49,6.0,70.0
9040,59.0,4,117,2.0,82.0
9041,68.0,5,115,1.0,78.0
9042,77.0,7,54,0.0,78.0
9043,77.0,0,55,5.0,76.0
9044,62.0,49,67,3.0,80.0
9045,77.0,2,64,4.0,72.0
9046,62.0,4,66,6.0,70.0
9047,60.0,42,54,2.0,66.0
9048,69.0,2,49,1.0,74.0
9049,60.0,3,56,3.0,78.0
9050,76.0,9,59,0.0,60.0
9051,60.0,2,53,6.0,78.0
9052,76.0,4,56,4.0,68.0
9053,76.0,0,64,5.0,60.0
9054,62.0,36,48,2.0,76.0
9055,71.0,5,45,1.0,70.0
9056,59.0,1,55,3.0,64.0
9057,74.0,11,52,0.0,60.0
9058,74.0,0,54,5.0,59.0
9059,59.0,0,59,6.0,59.0
9060,74.0,5,63,4.0,58.0
9061,57.0,1,45,3.0,60.0
9062,64.0,45,46,2.0,78.0
9063,72.0,3,50,1.0,85.0
9064,72.0,3,51,0.0,66.0
9065,57.0,3,45,6.0,57.0
9066,72.0,4,52,5.0,63.0
9067,72.0,3,52,4.0,60.0
9068,71.0,6,40,0.0,59.0
9069,71.0,2,53,5.0,55.0
9070,59.0,38,73,3.0,64.0
9071,71.0,4,65,4.0,53.0
9072,59.0,10,64,6.0,64.0
9073,72.0,37,42,0.0,57.0
9074,72.0,2,40,5.0,58.0
9075,60.0,4,51,2.0,68.0
9076,76.0,5,46,1.0,85.0
9077,72.0,5,44,4.0,48.0
9078,57.0,3,67,3.0,59.0
9079,69.0,34,25,0.0,74.0
9080,57.0,4,67,6.0,56.0
9081,69.0,5,35,5.0,66.0
9082,69.0,7,33,4.0,70.0
9083,55.0,2,66,3.0,66.0
9084,55.0,10,61,6.0,57.0
9085,72.0,0,40,1.0,72.0
9086,57.0,3,53,2.0,76.0
9087,53.0,39,62,3.0,59.0
9088,53.0,9,53,6.0,60.0
9089,52.0,39,59,3.0,64.0
9090,52.0,18,48,6.0,55.0
9091,81.0,4,135,0.0,78.0
9092,81.0,6,137,5.0,58.0
9093,81.0,0,128,4.0,64.0
9094,62.0,7,41,2.0,82.0
9095,53.0,40,53,3.0,68.0
9096,77.0,7,44,1.0,85.0
9097,53.0,4,47,6.0,57.0
9098,83.0,2,26,0.0,61.0
9099,83.0,6,28,5.0,59.0
9100,83.0,6,27,4.0,60.0
9101,50.0,41,56,3.0,66.0
9102,50.0,11,46,6.0,66.0
9103,81.0,2,30,0.0,85.0
9104,81.0,6,31,5.0,66.0
9105,71.0,0,45,1.0,80.0
9106,81.0,8,30,4.0,80.0
9107,52.0,41,56,3.0,85.0
9108,52.0,0,57,2.0,80.0
9109,52.0,8,50,6.0,76.0
9110,80.0,7,33,0.0,64.0
9111,80.0,13,29,5.0,76.0
9112,80.0,7,28,4.0,57.0
9113,81.0,8,44,0.0,66.0
9114,81.0,15,45,5.0,61.0
9115,81.0,1,46,4.0,57.0
9116,80.0,13,51,0.0,70.0
9117,80.0,12,58,5.0,66.0
9118,74.0,6,35,1.0,82.0
9119,80.0,7,57,4.0,63.0
9120,64.0,1,41,2.0,78.0
9121,40.0,11,50,3.0,87.0
9122,40.0,4,50,6.0,64.0
9123,81.0,56,29,0.0,72.0
9124,81.0,8,30,4.0,66.0
9125,81.0,7,25,5.0,60.0
9126,64.0,40,55,2.0,80.0
9127,81.0,1,56,0.0,82.0
9128,72.0,0,60,1.0,82.0
9129,81.0,2,50,5.0,68.0
9130,81.0,9,57,4.0,74.0
9131,45.0,3,92,3.0,89.0
9132,45.0,4,89,6.0,64.0
9133,83.0,43,54,0.0,74.0
9134,74.0,3,56,1.0,82.0
9135,83.0,5,61,4.0,68.0
9136,83.0,0,67,5.0,66.0
9137,84.0,0,42,0.0,62.0
9138,57.0,7,41,3.0,70.0
9139,69.0,51,52,2.0,85.0
9140,57.0,0,47,6.0,66.0
9141,84.0,1,51,4.0,68.0
9142,76.0,4,61,1.0,68.0
9143,84.0,2,54,5.0,64.0
9144,83.0,44,39,0.0,68.0
9145,74.0,5,39,1.0,76.0
9146,83.0,2,48,5.0,68.0
9147,83.0,3,58,4.0,63.0
9148,57.0,3,43,3.0,76.0
9149,72.0,1,49,1.0,68.0
9150,81.0,54,52,0.0,74.0
9151,57.0,1,43,6.0,76.0
9152,64.0,1,55,2.0,85.0
9153,81.0,3,51,5.0,63.0
9154,81.0,4,57,4.0,64.0
9155,79.0,40,39,0.0,68.0
9156,71.0,7,53,1.0,59.0
9157,79.0,1,56,5.0,61.0
9158,79.0,5,63,4.0,57.0
9159,81.0,49,43,0.0,66.0
9160,57.0,2,43,3.0,82.0
9161,72.0,5,47,1.0,72.0
9162,57.0,3,36,6.0,76.0
9163,66.0,2,49,2.0,82.0
9164,81.0,3,51,5.0,57.0
9165,81.0,2,56,4.0,56.0
9166,78.0,38,35,0.0,70.0
9167,69.0,2,44,1.0,64.0
9168,78.0,1,46,5.0,52.0
9169,78.0,8,53,4.0,51.0
9170,64.0,54,55,1.0,82.0
9171,83.0,1,54,0.0,66.0
9172,83.0,3,50,4.0,76.0
9173,67.0,5,59,2.0,80.0
9174,83.0,2,62,5.0,76.0
9175,55.0,9,106,6.0,82.0
9176,55.0,1,120,3.0,87.0
9177,72.0,37,75,1.0,70.0
9178,63.0,3,51,2.0,70.0
9179,71.0,5,54,0.0,82.0
9180,71.0,0,62,1.0,68.0
9181,71.0,61,63,5.0,68.0
9182,57.0,0,58,3.0,78.0
9183,71.0,3,46,4.0,64.0
9184,57.0,9,63,6.0,68.0
9185,59.0,39,46,3.0,74.0
9186,59.0,10,44,6.0,70.0
9187,69.0,3,58,1.0,63.0
9188,60.0,50,50,3.0,95.0
9189,60.0,7,39,6.0,74.0
9190,67.0,2,56,1.0,64.0
9191,66.0,32,57,1.0,64.0
9192,76.0,1,122,5.0,72.0
9193,76.0,12,116,4.0,78.0
9194,76.0,1,129,0.0,82.0
9195,64.0,3,143,2.0,85.0
9196,67.0,62,44,1.0,66.0
9197,57.0,9,38,6.0,76.0
9198,57.0,3,49,3.0,82.0
9199,76.0,4,28,0.0,72.0
9200,64.0,4,33,2.0,80.0
9201,76.0,3,29,5.0,64.0
9202,64.0,51,43,1.0,60.0
9203,76.0,7,31,4.0,64.0
9204,54.0,41,53,3.0,82.0
9205,54.0,13,41,6.0,70.0
9206,76.0,0,48,0.0,80.0
9207,69.0,1,46,1.0,70.0
9208,76.0,2,48,5.0,63.0
9209,66.0,0,53,2.0,66.0
9210,76.0,8,52,4.0,74.0
9211,79.0,45,51,0.0,70.0
9212,64.0,5,51,2.0,62.0
9213,79.0,1,57,5.0,68.0
9214,79.0,5,56,4.0,64.0
9215,59.0,46,43,3.0,87.0
9216,69.0,1,43,1.0,85.0
9217,59.0,2,36,6.0,85.0
9218,63.0,2,42,2.0,51.0
9219,78.0,2,50,0.0,59.0
9220,78.0,0,61,5.0,53.0
9221,78.0,3,56,4.0,51.0
9222,76.0,42,41,0.0,60.0
9223,76.0,2,37,5.0,61.0
9224,64.0,3,48,2.0,63.0
9225,76.0,3,55,4.0,60.0
9226,75.0,53,51,0.0,78.0
9227,69.0,2,44,1.0,87.0
9228,47.0,2,52,3.0,85.0
9229,75.0,0,56,5.0,82.0
9230,66.0,7,58,2.0,74.0
9231,47.0,3,54,6.0,80.0
9232,75.0,0,62,4.0,60.0
9233,73.0,35,54,0.0,52.0
9234,67.0,4,42,2.0,68.0
9235,73.0,9,68,5.0,48.0
9236,73.0,2,65,4.0,52.0
9237,75.0,44,42,0.0,62.0
9238,75.0,6,45,5.0,61.0
9239,64.0,5,55,2.0,64.0
9240,69.0,3,40,1.0,87.0
9241,59.0,6,43,3.0,91.0
9242,59.0,3,41,6.0,87.0
9243,75.0,1,48,4.0,62.0
9244,71.0,33,40,0.0,57.0
9245,71.0,6,45,5.0,66.0
9246,66.0,1,48,2.0,78.0
9247,71.0,9,51,4.0,70.0
9248,67.0,3,50,2.0,82.0
9249,83.0,55,69,0.0,76.0
9250,83.0,2,79,5.0,68.0
9251,83.0,7,77,4.0,70.0
9252,81.0,3,43,0.0,64.0
9253,81.0,35,51,5.0,68.0
9254,67.0,3,118,1.0,80.0
9255,81.0,8,54,4.0,72.0
9256,64.0,8,39,2.0,82.0
9257,79.0,46,52,0.0,60.0
9258,69.0,1,52,1.0,85.0
9259,79.0,0,62,5.0,55.0
9260,79.0,3,66,4.0,60.0
9261,71.0,39,49,1.0,80.0
9262,78.0,4,59,5.0,52.0
9263,78.0,0,59,0.0,57.0
9264,78.0,17,58,4.0,52.0
9265,52.0,6,225,6.0,66.0
9266,52.0,7,239,3.0,74.0
9267,72.0,45,41,1.0,87.0
9268,76.0,4,44,5.0,57.0
9269,76.0,1,53,0.0,52.0
9270,76.0,4,62,4.0,57.0
9271,74.0,41,68,0.0,57.0
9272,74.0,2,69,5.0,43.0
9273,74.0,11,76,4.0,55.0
9274,69.0,51,43,1.0,85.0
9275,72.0,3,47,0.0,49.0
9276,72.0,4,63,5.0,53.0
9277,72.0,17,59,4.0,53.0
9278,71.0,40,35,0.0,64.0
9279,71.0,7,31,5.0,60.0
9280,71.0,6,43,4.0,57.0
9281,66.0,46,43,1.0,82.0
9282,69.0,1,55,5.0,66.0
9283,69.0,11,60,0.0,80.0
9284,69.0,8,62,4.0,58.0
9285,69.0,7,320,2.0,82.0
9286,72.0,51,51,0.0,78.0
9287,72.0,2,51,5.0,66.0
9288,72.0,6,56,4.0,64.0
9289,71.0,44,45,1.0,87.0
9290,68.0,6,54,2.0,91.0
9291,74.0,4,51,0.0,70.0
9292,74.0,2,60,5.0,64.0
9293,74.0,9,60,4.0,63.0
9294,66.0,38,45,2.0,76.0
9295,76.0,5,41,0.0,66.0
9296,76.0,2,41,5.0,68.0
9297,76.0,10,45,4.0,59.0
9298,59.0,45,52,1.0,85.0
9299,74.0,1,60,5.0,78.0
9300,74.0,7,62,0.0,76.0
9301,68.0,0,75,2.0,87.0
9302,74.0,7,65,4.0,70.0
9303,72.0,3,55,5.0,61.0
9304,72.0,49,58,0.0,60.0
9305,72.0,7,58,4.0,58.0
9306,69.0,45,45,1.0,82.0
9307,71.0,5,47,0.0,56.0
9308,69.0,1,43,2.0,85.0
9309,71.0,3,58,5.0,59.0
9310,71.0,4,59,4.0,57.0
9311,69.0,3,33,0.0,53.0
9312,69.0,51,37,5.0,58.0
9313,69.0,2,45,4.0,59.0
9314,68.0,55,45,1.0,72.0
9315,71.0,3,60,2.0,78.0
9316,69.0,61,54,2.0,60.0
9317,74.0,3,122,0.0,85.0
9318,74.0,1,127,5.0,82.0
9319,74.0,2,123,4.0,76.0
9320,71.0,1,46,2.0,66.0
9321,64.0,51,48,1.0,82.0
9322,76.0,53,30,5.0,61.0
9323,76.0,5,30,0.0,72.0
9324,68.0,1,35,2.0,72.0
9325,76.0,4,33,4.0,64.0
9326,74.0,3,29,5.0,68.0
9327,74.0,3,25,4.0,68.0
9328,74.0,3,32,0.0,87.0
9329,72.0,20,30,5.0,68.0
9330,72.0,1,30,4.0,57.0
9331,72.0,3,32,0.0,80.0
9332,69.0,0,70,2.0,80.0
9333,74.0,25,39,4.0,70.0
9334,74.0,2,37,0.0,66.0
9335,74.0,1,43,5.0,62.0
9336,72.0,24,43,0.0,80.0
9337,71.0,1,79,2.0,78.0
9338,72.0,3,57,5.0,62.0
9339,72.0,1,66,4.0,64.0
9340,72.0,32,60,2.0,66.0
9341,71.0,3,33,0.0,70.0
9342,71.0,7,39,5.0,66.0
9343,74.0,57,55,2.0,78.0
9344,71.0,6,39,4.0,70.0
9345,76.0,51,56,2.0,85.0
9346,69.0,54,341,1.0,85.0
9347,71.0,38,46,2.0,58.0
9348,72.0,2,107,0.0,82.0
9349,72.0,11,117,4.0,78.0
9350,72.0,2,130,5.0,80.0
9351,52.0,64,44,3.0,80.0
9352,72.0,1,44,2.0,64.0
9353,52.0,7,38,6.0,74.0
9354,74.0,1,22,0.0,70.0
9355,71.0,49,27,1.0,76.0
9356,74.0,0,31,5.0,66.0
9357,74.0,4,31,4.0,66.0
9358,69.0,6,42,2.0,87.0
9359,72.0,52,31,0.0,78.0
9360,72.0,0,23,4.0,78.0
9361,72.0,0,25,5.0,80.0
9362,69.0,1,31,1.0,82.0
9363,52.0,2,47,3.0,82.0
9364,52.0,8,44,6.0,78.0
9365,71.0,13,30,0.0,72.0
9366,68.0,10,30,1.0,82.0
9367,71.0,1,32,4.0,57.0
9368,71.0,1,36,5.0,66.0
9369,72.0,15,36,0.0,59.0
9370,72.0,8,45,4.0,70.0
9371,69.0,2,44,1.0,80.0
9372,72.0,5,46,5.0,63.0
9373,71.0,11,57,0.0,66.0
9374,68.0,12,49,1.0,74.0
9375,71.0,1,66,4.0,66.0
9376,71.0,2,71,5.0,66.0
9377,52.0,34,44,3.0,82.0
9378,52.0,8,50,6.0,78.0
9379,69.0,6,27,5.0,64.0
9380,69.0,35,34,0.0,70.0
9381,69.0,6,28,4.0,57.0
9382,69.0,2,29,1.0,80.0
9383,64.0,0,267,2.0,80.0
9384,69.0,50,66,0.0,70.0
9385,69.0,7,56,5.0,68.0
9386,69.0,5,70,4.0,60.0
9387,76.0,37,51,0.0,74.0
9388,62.0,2,48,2.0,82.0
9389,76.0,7,55,4.0,78.0
9390,48.0,1,113,3.0,87.0
9391,76.0,5,55,5.0,53.0
9392,48.0,6,113,6.0,85.0
9393,78.0,2,44,0.0,60.0
9394,60.0,43,50,2.0,74.0
9395,78.0,3,47,5.0,51.0
9396,78.0,4,61,4.0,51.0
9397,50.0,5,60,3.0,82.0
9398,50.0,12,56,6.0,74.0
9399,80.0,25,43,0.0,64.0
9400,59.0,8,36,2.0,64.0
9401,80.0,0,50,5.0,58.0
9402,52.0,2,45,3.0,80.0
9403,80.0,6,48,4.0,60.0
9404,52.0,13,41,6.0,70.0
9405,69.0,2,236,1.0,85.0
9406,53.0,4,48,3.0,82.0
9407,53.0,4,42,6.0,80.0
9408,57.0,39,71,2.0,57.0
9409,69.0,0,49,1.0,80.0
9410,60.0,38,55,2.0,63.0
9411,71.0,62,48,1.0,80.0
9412,50.0,7,47,3.0,87.0
9413,50.0,6,43,6.0,80.0
9414,62.0,1,56,2.0,70.0
9415,72.0,44,41,1.0,78.0
9416,64.0,1,46,2.0,76.0
9417,81.0,8,259,0.0,85.0
9418,81.0,1,259,5.0,70.0
9419,81.0,4,262,4.0,76.0
9420,65.0,60,42,2.0,95.0
9421,47.0,8,54,3.0,82.0
9422,47.0,3,52,6.0,66.0
9423,74.0,4,67,1.0,87.0
9424,84.0,5,55,0.0,78.0
9425,76.0,52,67,1.0,82.0
9426,84.0,6,63,5.0,68.0
9427,84.0,11,61,4.0,70.0
9428,52.0,33,42,3.0,85.0
9429,52.0,2,35,6.0,76.0
9430,83.0,5,46,0.0,70.0
9431,56.0,0,58,2.0,66.0
9432,74.0,4,63,1.0,74.0
9433,83.0,5,60,4.0,70.0
9434,83.0,8,79,5.0,68.0
9435,81.0,4,47,0.0,64.0
9436,72.0,37,53,1.0,66.0
9437,81.0,11,62,5.0,60.0
9438,81.0,4,63,4.0,66.0
9439,59.0,45,39,2.0,72.0
9440,80.0,3,44,0.0,66.0
9441,71.0,1,54,1.0,68.0
9442,40.0,1,60,3.0,95.0
9443,80.0,7,51,5.0,62.0
9444,40.0,6,60,6.0,78.0
9445,80.0,5,65,4.0,63.0
9446,81.0,34,47,0.0,74.0
9447,81.0,9,50,5.0,62.0
9448,69.0,5,66,1.0,62.0
9449,81.0,6,55,4.0,72.0
9450,83.0,1,43,0.0,66.0
9451,64.0,1,35,2.0,85.0
9452,68.0,40,54,1.0,60.0
9453,50.0,8,47,3.0,89.0
9454,50.0,2,43,6.0,82.0
9455,83.0,5,55,5.0,57.0
9456,83.0,3,50,4.0,70.0
9457,71.0,35,49,1.0,64.0
9458,80.0,2,50,0.0,47.0
9459,80.0,9,54,5.0,58.0
9460,80.0,7,58,4.0,58.0
9461,76.0,9,44,0.0,57.0
9462,76.0,4,35,5.0,58.0
9463,76.0,2,39,4.0,59.0
9464,69.0,50,69,1.0,85.0
9465,48.0,3,57,6.0,85.0
9466,48.0,0,68,3.0,85.0
9467,64.0,3,86,2.0,85.0
9468,71.0,35,67,1.0,70.0
9469,47.0,4,54,6.0,72.0
9470,47.0,12,64,3.0,85.0
9471,72.0,44,50,1.0,66.0
9472,76.0,3,38,5.0,68.0
9473,76.0,3,36,0.0,87.0
9474,76.0,1,40,4.0,82.0
9475,69.0,13,52,2.0,80.0
9476,45.0,0,60,3.0,70.0
9477,45.0,3,60,6.0,60.0
9478,68.0,13,43,2.0,60.0
9479,74.0,30,58,1.0,74.0
9480,47.0,4,48,6.0,59.0
9481,47.0,1,58,3.0,64.0
9482,69.0,0,43,2.0,85.0
9483,76.0,0,38,5.0,76.0
9484,76.0,10,42,4.0,80.0
9485,76.0,3,40,0.0,85.0
9486,48.0,9,60,6.0,60.0
9487,48.0,2,65,3.0,72.0
9488,76.0,49,76,1.0,61.0
9489,78.0,38,60,1.0,74.0
9490,50.0,0,62,3.0,80.0
9491,50.0,10,75,6.0,62.0
9492,52.0,6,40,3.0,68.0
9493,80.0,53,47,1.0,82.0
9494,52.0,4,42,6.0,68.0
9495,76.0,1,43,0.0,82.0
9496,76.0,1,44,4.0,80.0
9497,76.0,4,46,5.0,72.0
9498,72.0,4,51,2.0,82.0
9499,76.0,38,34,1.0,80.0
9500,48.0,3,42,3.0,76.0
9501,71.0,4,48,2.0,80.0
9502,48.0,6,55,6.0,66.0
9503,81.0,51,50,1.0,87.0
9504,69.0,4,50,2.0,74.0
9505,53.0,2,61,3.0,85.0
9506,53.0,2,62,6.0,64.0
9507,71.0,1,54,2.0,66.0
9508,55.0,3,52,6.0,68.0
9509,55.0,47,58,3.0,87.0
9510,72.0,0,109,4.0,78.0
9511,72.0,3,107,0.0,80.0
9512,72.0,5,114,5.0,70.0
9513,69.0,57,45,1.0,80.0
9514,69.0,1,54,2.0,66.0
9515,74.0,2,44,0.0,72.0
9516,53.0,5,55,6.0,59.0
9517,74.0,4,54,5.0,59.0
9518,74.0,0,57,4.0,70.0
9519,53.0,0,69,3.0,66.0
9520,67.0,43,40,2.0,66.0
9521,76.0,2,41,0.0,68.0
9522,76.0,0,55,4.0,70.0
9523,52.0,5,57,6.0,57.0
9524,76.0,0,58,5.0,63.0
9525,52.0,0,62,3.0,70.0
9526,77.0,3,34,5.0,64.0
9527,65.0,55,47,2.0,68.0
9528,77.0,1,43,0.0,78.0
9529,77.0,2,44,4.0,63.0
9530,50.0,0,58,6.0,63.0
9531,50.0,3,70,3.0,53.0
9532,64.0,1,50,2.0,82.0
9533,48.0,8,45,3.0,57.0
9534,48.0,46,57,6.0,57.0
9535,74.0,1,38,5.0,74.0
9536,74.0,8,39,0.0,78.0
9537,65.0,46,58,2.0,68.0
9538,50.0,7,60,3.0,59.0
9539,50.0,2,59,6.0,63.0
9540,74.0,6,46,4.0,80.0
9541,62.0,0,42,2.0,82.0
9542,47.0,39,49,3.0,61.0
9543,47.0,7,45,6.0,61.0
9544,71.0,57,50,0.0,78.0
9545,71.0,1,49,5.0,66.0
9546,74.0,2,290,1.0,89.0
9547,52.0,5,58,6.0,80.0
9548,71.0,1,53,4.0,68.0
9549,52.0,3,65,3.0,87.0
9550,56.0,3,65,2.0,72.0
9551,53.0,49,54,6.0,76.0
9552,53.0,6,70,3.0,87.0
9553,76.0,51,37,0.0,85.0
9554,76.0,0,35,5.0,74.0
9555,76.0,3,39,4.0,78.0
9556,52.0,6,53,6.0,61.0
9557,52.0,4,58,3.0,76.0
9558,68.0,2,54,2.0,68.0
9559,72.0,1,55,1.0,80.0
9560,71.0,0,45,1.0,72.0
9561,50.0,46,60,6.0,57.0
9562,50.0,3,65,3.0,60.0
9563,64.0,56,47,0.0,72.0
9564,48.0,0,42,6.0,60.0
9565,76.0,0,44,1.0,82.0
9566,64.0,6,47,5.0,63.0
9567,48.0,4,47,3.0,85.0
9568,69.0,0,55,2.0,87.0
9569,64.0,0,56,4.0,66.0
9570,50.0,1,53,6.0,66.0
9571,50.0,56,77,3.0,68.0
9572,74.0,0,39,0.0,82.0
9573,68.0,2,45,1.0,82.0
9574,74.0,0,40,5.0,78.0
9575,71.0,56,48,2.0,82.0
9576,74.0,1,43,4.0,80.0
9577,48.0,4,51,6.0,59.0
9578,48.0,1,63,3.0,66.0
9579,47.0,55,45,6.0,68.0
9580,47.0,1,58,3.0,85.0
9581,45.0,1,50,3.0,78.0
9582,45.0,1,53,6.0,70.0
9583,64.0,2,66,2.0,82.0
9584,69.0,2,123,1.0,82.0
9585,72.0,54,137,0.0,74.0
9586,72.0,1,135,5.0,64.0
9587,72.0,3,142,4.0,76.0
9588,50.0,2,43,6.0,80.0
9589,50.0,4,46,3.0,89.0
9590,65.0,113,54,2.0,74.0
9591,71.0,49,26,1.0,80.0
9592,71.0,5,28,0.0,62.0
9593,71.0,5,31,5.0,58.0
9594,71.0,7,32,4.0,68.0
9595,72.0,0,28,5.0,64.0
9596,72.0,5,34,0.0,80.0
9597,69.0,1,37,1.0,85.0
9598,64.0,45,43,2.0,82.0
9599,72.0,8,29,4.0,82.0
9600,52.0,2,39,6.0,82.0
9601,52.0,1,42,3.0,87.0
9602,71.0,3,31,5.0,48.0
9603,71.0,14,34,0.0,62.0
9604,68.0,1,30,1.0,87.0
9605,71.0,11,37,4.0,59.0
9606,72.0,9,38,0.0,64.0
9607,72.0,1,38,5.0,66.0
9608,69.0,7,41,1.0,72.0
9609,72.0,12,38,4.0,66.0
9610,68.0,6,55,1.0,78.0
9611,71.0,5,62,0.0,51.0
9612,71.0,4,73,5.0,54.0
9613,71.0,10,66,4.0,58.0
9614,40.0,4,47,3.0,89.0
9615,62.0,20,51,2.0,87.0
9616,40.0,7,42,6.0,80.0
9617,69.0,1,30,1.0,78.0
9618,69.0,45,32,0.0,76.0
9619,69.0,5,34,4.0,64.0
9620,69.0,3,38,5.0,66.0
9621,69.0,1,58,5.0,68.0
9622,60.0,56,91,2.0,78.0
9623,69.0,5,104,0.0,89.0
9624,77.0,57,42,5.0,78.0
9625,69.0,1,126,4.0,66.0
9626,69.0,3,13,1.0,82.0
9627,69.0,58,37,2.0,66.0
9628,69.0,1,40,0.0,80.0
9629,76.0,1,39,5.0,78.0
9630,74.0,56,51,5.0,76.0
9631,45.0,1,236,3.0,91.0
9632,45.0,3,241,6.0,66.0
9633,69.0,2,40,0.0,80.0
9634,69.0,56,42,2.0,70.0
9635,72.0,4,39,5.0,66.0
9636,69.0,2,40,1.0,80.0
9637,71.0,56,40,5.0,63.0
9638,69.0,55,36,2.0,74.0
9639,72.0,4,34,5.0,62.0
9640,69.0,4,35,1.0,76.0
9641,69.0,3,41,0.0,78.0
9642,69.0,49,55,5.0,57.0
9643,67.0,54,108,2.0,82.0
9644,84.0,57,42,4.0,66.0
9645,67.0,4,107,1.0,68.0
9646,67.0,11,117,0.0,64.0
9647,69.0,47,45,2.0,66.0
9648,83.0,11,43,4.0,74.0
9649,69.0,6,37,1.0,78.0
9650,69.0,3,46,0.0,80.0
9651,71.0,34,37,2.0,72.0
9652,71.0,10,42,0.0,82.0
9653,71.0,4,34,1.0,72.0
9654,81.0,7,50,4.0,56.0
9655,72.0,41,40,2.0,82.0
9656,72.0,6,41,0.0,89.0
9657,72.0,9,40,1.0,80.0
9658,79.0,1,43,4.0,59.0
9659,78.0,60,44,4.0,55.0
9660,69.0,1,37,2.0,78.0
9661,79.0,9,32,4.0,64.0
9662,69.0,3,42,1.0,70.0
9663,69.0,50,48,0.0,82.0
9664,76.0,50,47,4.0,51.0
9665,66.0,58,49,2.0,63.0
9666,66.0,3,41,1.0,64.0
9667,81.0,7,53,4.0,72.0
9668,66.0,0,50,0.0,68.0
9669,83.0,56,42,4.0,62.0
9670,71.0,3,32,1.0,72.0
9671,71.0,0,43,2.0,68.0
9672,71.0,5,35,0.0,85.0
9673,81.0,58,49,4.0,57.0
9674,79.0,47,40,4.0,57.0
9675,76.0,1,704,5.0,70.0
9676,78.0,3,49,4.0,60.0
9677,59.0,2,48,1.0,72.0
9678,59.0,1,58,0.0,82.0
9679,59.0,0,59,2.0,63.0
9680,76.0,55,44,4.0,61.0
9681,71.0,6,32,1.0,68.0
9682,71.0,1,38,0.0,74.0
9683,78.0,55,46,4.0,66.0
9684,71.0,7,42,2.0,74.0
9685,75.0,61,218,5.0,53.0
9686,71.0,54,36,4.0,46.0
9687,64.0,2,51,1.0,66.0
9688,64.0,3,81,0.0,74.0
9689,60.0,51,38,6.0,80.0
9690,64.0,0,95,2.0,70.0
9691,60.0,11,33,3.0,72.0
9692,59.0,48,36,6.0,76.0
9693,59.0,0,35,3.0,63.0
9694,71.0,0,37,1.0,87.0
9695,76.0,9,45,0.0,93.0
9696,67.0,1,47,2.0,93.0
9697,57.0,4,41,3.0,64.0
9698,57.0,50,56,6.0,70.0
9699,55.0,3,33,3.0,72.0
9700,55.0,56,43,6.0,68.0
9701,67.0,2,41,2.0,100.0
9702,71.0,1,40,1.0,100.0
9703,76.0,3,49,0.0,93.0
9704,54.0,49,32,3.0,66.0
9705,54.0,1,37,6.0,56.0
9706,55.0,57,30,3.0,87.0
9707,55.0,6,40,6.0,62.0
9708,76.0,3,41,0.0,95.0
9709,71.0,6,37,1.0,102.0
9710,67.0,2,40,2.0,102.0
9711,52.0,39,29,3.0,82.0
9712,52.0,1,34,6.0,60.0
9713,76.0,56,508,5.0,66.0
9714,57.0,3,42,6.0,85.0
9715,57.0,69,48,3.0,91.0
9716,73.0,0,85,0.0,98.0
9717,64.0,6,93,2.0,89.0
9718,69.0,0,94,1.0,105.0
9719,77.0,53,47,5.0,72.0
9720,69.0,3,35,0.0,80.0
9721,69.0,6,31,1.0,80.0
9722,76.0,57,51,5.0,62.0
9723,69.0,8,41,2.0,70.0
9724,45.0,1,65,6.0,63.0
9725,45.0,2,74,3.0,82.0
9726,74.0,40,40,5.0,68.0
9727,79.0,2,709,4.0,70.0
9728,69.0,0,35,1.0,68.0
9729,69.0,12,35,2.0,82.0
9730,69.0,1,40,0.0,78.0
9731,73.0,61,53,5.0,60.0
9732,71.0,49,40,5.0,42.0
9733,69.0,4,37,1.0,63.0
9734,69.0,2,43,2.0,78.0
9735,73.0,59,49,5.0,33.0
9736,69.0,0,47,0.0,78.0
9737,69.0,59,45,5.0,58.0
9738,65.0,0,103,1.0,68.0
9739,65.0,2,105,0.0,85.0
9740,65.0,59,110,2.0,68.0
9741,82.0,57,47,4.0,64.0
9742,67.0,54,47,0.0,70.0
9743,67.0,2,48,2.0,68.0
9744,81.0,3,50,4.0,62.0
9745,67.0,9,45,1.0,61.0
9746,69.0,1,42,0.0,72.0
9747,69.0,41,50,2.0,68.0
9748,69.0,4,38,1.0,61.0
9749,79.0,7,58,4.0,57.0
9750,70.0,53,37,2.0,55.0
9751,70.0,0,39,1.0,62.0
9752,70.0,4,43,0.0,63.0
9753,77.0,2,41,4.0,66.0
9754,76.0,59,49,4.0,60.0
9755,67.0,1,41,0.0,76.0
9756,67.0,53,42,2.0,62.0
9757,67.0,4,37,1.0,70.0
9758,77.0,1,53,4.0,62.0
9759,74.0,52,44,4.0,70.0
9760,64.0,3,45,0.0,66.0
9761,64.0,6,40,1.0,66.0
9762,64.0,59,52,2.0,66.0
9763,79.0,2,50,4.0,74.0
9764,81.0,51,45,4.0,59.0
9765,69.0,1,33,1.0,76.0
9766,79.0,57,39,4.0,59.0
9767,69.0,1,39,0.0,80.0
9768,69.0,1,39,2.0,66.0
9769,77.0,52,45,4.0,62.0
9770,74.0,7,710,5.0,61.0
9771,57.0,0,51,1.0,63.0
9772,76.0,1,51,4.0,63.0
9773,57.0,62,57,0.0,72.0
9774,57.0,2,56,2.0,61.0
9775,74.0,46,36,4.0,63.0
9776,69.0,55,35,1.0,74.0
9777,69.0,3,35,0.0,76.0
9778,69.0,2,38,2.0,64.0
9779,76.0,2,48,4.0,63.0
9780,69.0,51,47,4.0,66.0
9781,73.0,14,222,5.0,55.0
9782,62.0,1,52,1.0,82.0
9783,62.0,1,92,0.0,85.0
9784,62.0,2,92,2.0,66.0
9785,58.0,43,38,6.0,66.0
9786,58.0,3,39,3.0,82.0
9787,57.0,1,34,6.0,74.0
9788,57.0,57,39,3.0,87.0
9789,69.0,5,41,1.0,93.0
9790,74.0,3,46,0.0,87.0
9791,65.0,3,52,2.0,85.0
9792,55.0,0,51,6.0,68.0
9793,55.0,46,65,3.0,80.0
9794,53.0,63,37,6.0,63.0
9795,53.0,2,34,3.0,66.0
9796,74.0,0,44,0.0,91.0
9797,69.0,5,44,1.0,102.0
9798,65.0,3,44,2.0,102.0
9799,52.0,4,34,3.0,64.0
9800,52.0,50,39,6.0,54.0
9801,74.0,2,37,0.0,85.0
9802,53.0,55,41,6.0,61.0
9803,53.0,2,40,3.0,68.0
9804,69.0,8,35,1.0,100.0
9805,65.0,3,42,2.0,100.0
9806,50.0,43,40,6.0,60.0
9807,50.0,5,38,3.0,64.0
9808,74.0,11,496,5.0,60.0
9809,55.0,60,44,6.0,70.0
9810,55.0,0,47,3.0,76.0
9811,71.0,1,91,0.0,85.0
9812,67.0,6,93,1.0,102.0
9813,76.0,44,56,5.0,68.0
9814,62.0,7,103,2.0,82.0
9815,74.0,59,43,5.0,66.0
9816,67.0,0,41,0.0,80.0
9817,67.0,3,39,1.0,60.0
9818,67.0,3,42,2.0,82.0
9819,43.0,8,60,6.0,74.0
9820,43.0,1,71,3.0,68.0
9821,72.0,43,43,5.0,64.0
9822,77.0,67,726,4.0,58.0
9823,71.0,58,49,5.0,60.0
9824,67.0,14,43,0.0,70.0
9825,67.0,4,43,1.0,78.0
9826,67.0,6,41,2.0,76.0
9827,69.0,30,59,5.0,59.0
9828,71.0,58,50,5.0,53.0
9829,67.0,0,42,1.0,78.0
9830,67.0,24,45,0.0,76.0
9831,67.0,5,41,2.0,80.0
9832,67.0,36,49,5.0,60.0
9833,81.0,48,45,4.0,70.0
9834,64.0,5,99,2.0,80.0
9835,64.0,2,106,1.0,80.0
9836,64.0,10,110,0.0,80.0
9837,79.0,60,42,4.0,61.0
9838,65.0,5,46,0.0,78.0
9839,65.0,0,43,2.0,70.0
9840,65.0,5,46,1.0,70.0
9841,67.0,4,41,1.0,72.0
9842,67.0,0,45,0.0,68.0
9843,67.0,6,36,2.0,70.0
9844,77.0,48,54,4.0,57.0
9845,69.0,0,31,1.0,74.0
9846,69.0,50,35,0.0,64.0
9847,76.0,4,40,4.0,61.0
9848,69.0,4,42,2.0,87.0
9849,74.0,52,46,4.0,63.0
9850,65.0,58,38,1.0,74.0
9851,65.0,2,41,0.0,70.0
9852,65.0,1,42,2.0,66.0
9853,76.0,2,46,4.0,68.0
9854,72.0,53,37,4.0,57.0
9855,62.0,0,42,0.0,76.0
9856,62.0,0,42,1.0,72.0
9857,77.0,61,49,4.0,82.0
9858,62.0,11,39,2.0,63.0
9859,79.0,45,56,4.0,68.0
9860,67.0,61,37,1.0,82.0
9861,67.0,0,37,0.0,78.0
9862,67.0,3,40,2.0,70.0
9863,77.0,3,49,4.0,64.0
9864,76.0,59,45,4.0,59.0
9865,72.0,61,715,5.0,64.0
9866,55.0,52,51,1.0,74.0
9867,55.0,3,49,2.0,74.0
9868,55.0,4,53,0.0,78.0
9869,74.0,4,49,4.0,66.0
9870,72.0,51,54,4.0,58.0
9871,67.0,41,40,0.0,80.0
9872,67.0,3,39,1.0,70.0
9873,67.0,7,50,2.0,80.0
9874,74.0,10,47,4.0,59.0
9875,71.0,8,220,5.0,60.0
9876,67.0,60,58,4.0,68.0
9877,60.0,0,51,2.0,68.0
9878,76.0,4,57,4.0,72.0
9879,60.0,5,69,1.0,87.0
9880,72.0,19,56,5.0,62.0
9881,60.0,56,90,0.0,66.0
9882,65.0,30,50,2.0,66.0
9883,74.0,6,57,4.0,55.0
9884,71.0,18,59,5.0,68.0
9885,72.0,6,38,1.0,80.0
9886,64.0,37,54,2.0,72.0
9887,72.0,4,51,0.0,82.0
9888,72.0,9,54,5.0,63.0
9889,72.0,3,65,4.0,58.0
9890,62.0,34,38,2.0,70.0
9891,74.0,1,47,0.0,80.0
9892,74.0,18,55,4.0,53.0
9893,74.0,5,60,5.0,59.0
9894,76.0,5,40,0.0,85.0
9895,72.0,4,42,1.0,89.0
9896,60.0,39,53,2.0,87.0
9897,76.0,13,46,5.0,62.0
9898,76.0,7,41,4.0,78.0
9899,59.0,28,47,2.0,59.0
9900,74.0,7,46,0.0,66.0
9901,74.0,5,48,4.0,70.0
9902,74.0,11,59,5.0,66.0
9903,76.0,6,37,0.0,72.0
9904,60.0,40,47,2.0,68.0
9905,72.0,3,40,1.0,91.0
9906,76.0,4,52,5.0,70.0
9907,76.0,9,50,4.0,55.0
9908,57.0,34,39,2.0,66.0
9909,78.0,5,36,0.0,74.0
9910,78.0,8,38,4.0,64.0
9911,78.0,4,48,5.0,68.0
9912,64.0,3,63,2.0,66.0
9913,79.0,48,105,0.0,80.0
9914,62.0,52,45,2.0,68.0
9915,71.0,6,104,1.0,80.0
9916,53.0,9,39,3.0,70.0
9917,53.0,2,39,6.0,74.0
9918,79.0,4,131,4.0,70.0
9919,79.0,1,136,5.0,76.0
9920,72.0,45,43,1.0,80.0
9921,52.0,1,35,6.0,78.0
9922,52.0,8,36,3.0,80.0
9923,64.0,3,49,2.0,70.0
9924,74.0,1,31,0.0,68.0
9925,74.0,42,41,1.0,70.0
9926,66.0,4,44,2.0,80.0
9927,74.0,4,29,4.0,63.0
9928,74.0,1,33,5.0,66.0
9929,50.0,3,50,6.0,63.0
9930,50.0,8,56,3.0,66.0
9931,76.0,38,46,1.0,89.0
9932,48.0,2,37,3.0,68.0
9933,48.0,4,33,6.0,64.0
9934,67.0,8,47,2.0,95.0
9935,47.0,51,37,3.0,70.0
9936,47.0,5,37,6.0,68.0
9937,79.0,4,106,0.0,87.0
9938,79.0,1,123,4.0,82.0
9939,79.0,1,129,5.0,85.0
9940,64.0,0,40,2.0,85.0
9941,72.0,50,44,1.0,80.0
9942,48.0,2,45,3.0,66.0
9943,48.0,5,42,6.0,74.0
9944,79.0,7,25,5.0,76.0
9945,79.0,5,32,0.0,80.0
9946,79.0,2,27,4.0,60.0
9947,45.0,58,44,3.0,68.0
9948,45.0,1,44,6.0,62.0
9949,69.0,43,44,1.0,80.0
9950,50.0,1,42,6.0,66.0
9951,62.0,1,44,2.0,72.0
9952,50.0,10,49,3.0,85.0
9953,79.0,1,89,0.0,91.0
9954,79.0,2,105,4.0,82.0
9955,79.0,0,111,5.0,91.0
9956,74.0,106,33,1.0,87.0
9957,62.0,7,47,2.0,91.0
9958,38.0,1,57,6.0,63.0
9959,38.0,5,74,3.0,80.0
9960,78.0,29,39,5.0,66.0
9961,78.0,7,35,4.0,60.0
9962,78.0,12,40,0.0,62.0
9963,76.0,17,39,5.0,63.0
9964,76.0,6,39,4.0,62.0
9965,78.0,14,22,5.0,57.0
9966,78.0,5,21,4.0,54.0
9967,76.0,8,45,0.0,68.0
9968,78.0,14,31,0.0,61.0
9969,79.0,5,32,4.0,66.0
9970,79.0,3,39,5.0,68.0
9971,62.0,0,43,2.0,95.0
9972,62.0,4,48,1.0,89.0
9973,78.0,2,27,4.0,62.0
9974,78.0,3,29,5.0,91.0
9975,79.0,20,38,0.0,85.0
9976,78.0,23,35,0.0,82.0
9977,79.0,1,38,5.0,70.0
9978,79.0,2,41,4.0,70.0
9979,79.0,0,39,0.0,82.0
9980,78.0,1,55,4.0,64.0
9981,78.0,21,72,5.0,78.0
9982,78.0,19,52,0.0,58.0
9983,62.0,2,38,2.0,89.0
9984,79.0,48,31,4.0,66.0
9985,79.0,6,36,5.0,78.0
9986,79.0,12,30,0.0,85.0
9987,74.0,24,134,1.0,93.0
9988,59.0,1,112,2.0,89.0
9989,62.0,60,51,1.0,64.0
9990,55.0,49,38,3.0,80.0
9991,55.0,1,35,6.0,74.0
9992,60.0,5,52,2.0,59.0
9993,64.0,11,52,1.0,76.0
9994,62.0,40,43,2.0,78.0
9995,66.0,16,46,1.0,74.0
9996,79.0,3,239,5.0,80.0
9997,79.0,6,238,0.0,85.0
9998,79.0,50,259,4.0,68.0
9999,64.0,3,40,2.0,95.0
10000,55.0,46,47,3.0,78.0
10001,55.0,6,39,6.0,80.0
10002,67.0,8,48,1.0,70.0
10003,71.0,57,46,1.0,85.0
10004,60.0,1,44,2.0,85.0
10005,55.0,2,47,3.0,80.0
10006,55.0,1,43,6.0,70.0
10007,69.0,5,44,1.0,66.0
10008,71.0,49,45,1.0,76.0
10009,76.0,0,141,4.0,76.0
10010,76.0,2,147,0.0,80.0
10011,57.0,61,46,2.0,76.0
10012,76.0,43,168,5.0,68.0
10013,72.0,1,48,1.0,93.0
10014,71.0,52,45,1.0,80.0
10015,54.0,3,101,6.0,68.0
10016,79.0,1,48,4.0,80.0
10017,54.0,1,113,3.0,74.0
10018,79.0,4,43,0.0,85.0
10019,79.0,10,52,5.0,80.0
10020,62.0,2,36,2.0,85.0
10021,69.0,40,45,1.0,70.0
10022,55.0,4,40,3.0,68.0
10023,55.0,1,49,6.0,70.0
10024,78.0,2,47,5.0,70.0
10025,78.0,6,39,0.0,91.0
10026,78.0,5,55,4.0,68.0
10027,57.0,4,35,6.0,64.0
10028,57.0,3,36,3.0,80.0
10029,67.0,0,52,1.0,54.0
10030,76.0,40,56,4.0,66.0
10031,76.0,3,57,5.0,62.0
10032,76.0,2,57,0.0,78.0
10033,74.0,49,39,4.0,62.0
10034,59.0,1,41,6.0,76.0
10035,59.0,4,38,3.0,80.0
10036,50.0,3,41,2.0,89.0
10037,74.0,1,39,0.0,66.0
10038,74.0,2,61,5.0,59.0
10039,72.0,43,54,4.0,54.0
10040,72.0,4,48,0.0,55.0
10041,72.0,6,53,5.0,49.0
10042,66.0,1,111,1.0,78.0
10043,71.0,51,46,4.0,58.0
10044,55.0,2,37,6.0,72.0
10045,67.0,0,42,1.0,74.0
10046,55.0,2,44,3.0,80.0
10047,71.0,6,48,5.0,52.0
10048,71.0,1,46,0.0,50.0
10049,69.0,31,37,4.0,66.0
10050,69.0,4,35,0.0,63.0
10051,69.0,7,40,1.0,82.0
10052,69.0,2,65,5.0,58.0
10053,71.0,0,42,1.0,82.0
10054,67.0,55,45,4.0,72.0
10055,52.0,1,46,3.0,74.0
10056,52.0,2,42,6.0,68.0
10057,67.0,2,49,5.0,49.0
10058,67.0,3,59,0.0,68.0
10059,62.0,11,192,2.0,91.0
10060,67.0,0,42,1.0,70.0
10061,71.0,50,58,4.0,68.0
10062,71.0,1,54,5.0,66.0
10063,71.0,5,56,0.0,64.0
10064,57.0,1,36,6.0,76.0
10065,57.0,2,35,3.0,80.0
10066,66.0,51,48,1.0,61.0
10067,69.0,2,41,4.0,57.0
10068,69.0,5,48,5.0,57.0
10069,60.0,10,39,2.0,70.0
10070,69.0,2,52,0.0,55.0
10071,67.0,5,33,4.0,52.0
10072,67.0,2,30,0.0,62.0
10073,67.0,35,41,1.0,72.0
10074,59.0,2,43,2.0,63.0
10075,67.0,3,41,5.0,56.0
10076,69.0,3,47,1.0,93.0
10077,45.0,1,41,6.0,82.0
10078,72.0,52,53,4.0,78.0
10079,45.0,1,52,3.0,82.0
10080,72.0,3,54,0.0,85.0
10081,72.0,0,62,5.0,66.0
10082,67.0,46,41,1.0,82.0
10083,76.0,2,41,4.0,66.0
10084,76.0,2,52,0.0,85.0
10085,76.0,6,55,5.0,68.0
10086,66.0,46,39,1.0,89.0
10087,55.0,1,31,6.0,80.0
10088,74.0,2,44,4.0,68.0
10089,55.0,8,35,3.0,85.0
10090,74.0,3,48,0.0,68.0
10091,74.0,3,58,5.0,66.0
10092,72.0,8,23,0.0,76.0
10093,72.0,1,30,4.0,56.0
10094,64.0,38,40,1.0,80.0
10095,72.0,10,42,5.0,60.0
10096,60.0,3,250,2.0,85.0
10097,81.0,1,45,0.0,89.0
10098,81.0,2,65,4.0,70.0
10099,81.0,10,60,5.0,87.0
10100,54.0,55,95,3.0,68.0
10101,54.0,2,93,6.0,68.0
10102,57.0,38,59,2.0,80.0
10103,74.0,2,39,0.0,87.0
10104,74.0,3,44,4.0,74.0
10105,59.0,61,66,2.0,64.0
10106,55.0,13,56,3.0,72.0
10107,55.0,2,47,6.0,70.0
10108,74.0,2,59,5.0,70.0
10109,62.0,0,210,1.0,85.0
10110,60.0,34,52,2.0,70.0
10111,57.0,11,39,6.0,64.0
10112,57.0,10,60,3.0,68.0
10113,59.0,3,42,6.0,72.0
10114,62.0,49,52,2.0,78.0
10115,59.0,4,48,3.0,63.0
10116,60.0,35,46,3.0,78.0
10117,60.0,3,46,6.0,66.0
10118,71.0,3,43,1.0,80.0
10119,64.0,2,46,2.0,82.0
10120,62.0,48,27,6.0,59.0
10121,79.0,8,140,0.0,87.0
10122,60.0,2,29,3.0,63.0
10123,62.0,0,32,3.0,60.0
10124,66.0,7,38,2.0,74.0
10125,69.0,0,42,1.0,80.0
10126,79.0,5,146,5.0,82.0
10127,79.0,7,152,4.0,78.0
10128,64.0,47,46,3.0,63.0
10129,67.0,2,37,1.0,78.0
10130,79.0,9,29,0.0,78.0
10131,64.0,3,46,6.0,72.0
10132,67.0,5,46,2.0,82.0
10133,79.0,15,27,5.0,78.0
10134,79.0,1,29,4.0,82.0
10135,79.0,1,38,0.0,89.0
10136,57.0,35,48,6.0,55.0
10137,57.0,4,49,3.0,52.0
10138,69.0,1,50,2.0,100.0
10139,79.0,3,43,4.0,87.0
10140,79.0,13,50,5.0,87.0
10141,78.0,0,36,0.0,105.0
10142,60.0,34,43,6.0,60.0
10143,60.0,1,52,3.0,64.0
10144,78.0,16,40,5.0,72.0
10145,78.0,5,36,4.0,91.0
10146,72.0,4,130,1.0,98.0
10147,79.0,37,34,0.0,91.0
10148,59.0,6,40,6.0,47.0
10149,79.0,3,38,5.0,80.0
10150,59.0,0,49,3.0,53.0
10151,79.0,9,35,4.0,82.0
10152,76.0,35,25,0.0,80.0
10153,72.0,5,33,1.0,82.0
10154,76.0,2,36,5.0,66.0
10155,76.0,7,30,4.0,72.0
10156,60.0,3,40,6.0,62.0
10157,60.0,1,44,3.0,59.0
10158,57.0,6,106,2.0,85.0
10159,62.0,2,47,6.0,82.0
10160,72.0,5,59,1.0,93.0
10161,62.0,2,54,3.0,98.0
10162,76.0,42,45,1.0,87.0
10163,60.0,7,40,6.0,70.0
10164,60.0,2,46,3.0,66.0
10165,78.0,43,137,0.0,98.0
10166,78.0,4,143,5.0,63.0
10167,74.0,52,35,1.0,89.0
10168,78.0,4,144,4.0,64.0
10169,59.0,8,40,6.0,60.0
10170,59.0,2,44,3.0,57.0
10171,72.0,40,36,1.0,85.0
10172,78.0,9,28,0.0,82.0
10173,78.0,1,27,4.0,82.0
10174,78.0,2,32,5.0,89.0
10175,57.0,3,39,6.0,52.0
10176,57.0,2,44,3.0,54.0
10177,62.0,3,118,2.0,91.0
10178,78.0,3,37,4.0,85.0
10179,55.0,5,36,6.0,53.0
10180,78.0,0,44,5.0,91.0
10181,78.0,1,43,0.0,102.0
10182,55.0,54,49,3.0,66.0
10183,67.0,46,44,2.0,87.0
10184,59.0,8,42,6.0,66.0
10185,59.0,6,58,3.0,62.0
10186,66.0,39,51,2.0,80.0
10187,57.0,19,37,3.0,52.0
10188,71.0,1,39,0.0,76.0
10189,71.0,0,42,4.0,68.0
10190,71.0,2,47,5.0,72.0
10191,57.0,7,40,6.0,48.0
10192,67.0,27,41,2.0,82.0
10193,59.0,21,39,3.0,82.0
10194,59.0,7,37,6.0,59.0
10195,71.0,0,261,1.0,93.0
10196,64.0,41,51,2.0,74.0
10197,60.0,0,45,6.0,80.0
10198,60.0,12,55,3.0,85.0
10199,74.0,40,39,1.0,80.0
10200,59.0,5,50,3.0,66.0
10201,59.0,8,42,6.0,64.0
10202,76.0,4,135,0.0,91.0
10203,72.0,0,33,1.0,80.0
10204,76.0,4,147,4.0,82.0
10205,76.0,4,146,5.0,78.0
10206,57.0,0,50,3.0,60.0
10207,57.0,6,45,6.0,60.0
10208,71.0,49,38,1.0,89.0
10209,76.0,4,28,0.0,78.0
10210,76.0,5,27,4.0,68.0
10211,76.0,2,27,5.0,70.0
10212,55.0,9,45,3.0,57.0
10213,55.0,2,44,6.0,49.0
10214,54.0,2,39,6.0,53.0
10215,69.0,50,168,2.0,85.0
10216,76.0,7,38,0.0,89.0
10217,76.0,3,37,4.0,76.0
10218,54.0,4,52,3.0,47.0
10219,76.0,5,47,5.0,85.0
10220,74.0,1,33,0.0,80.0
10221,74.0,2,35,4.0,82.0
10222,74.0,5,38,5.0,78.0
10223,57.0,43,56,6.0,60.0
10224,57.0,4,54,3.0,58.0
10225,69.0,42,143,1.0,82.0
10226,76.0,3,30,4.0,72.0
10227,76.0,4,40,0.0,89.0
10228,76.0,0,37,5.0,87.0
10229,72.0,3,41,2.0,93.0
10230,55.0,1,50,6.0,52.0
10231,55.0,48,70,3.0,44.0
10232,69.0,43,34,1.0,80.0
10233,72.0,6,31,0.0,80.0
10234,72.0,0,32,4.0,64.0
10235,72.0,0,38,5.0,76.0
10236,57.0,6,44,6.0,61.0
10237,57.0,1,52,3.0,66.0
10238,66.0,1,42,2.0,82.0
10239,69.0,52,54,1.0,91.0
10240,59.0,7,48,6.0,72.0
10241,59.0,0,63,3.0,68.0
10242,72.0,43,38,1.0,80.0
10243,57.0,1,57,3.0,68.0
10244,57.0,12,51,6.0,59.0
10245,74.0,3,137,4.0,70.0
10246,74.0,3,140,0.0,87.0
10247,74.0,0,138,5.0,70.0
10248,71.0,43,39,1.0,85.0
10249,55.0,8,57,3.0,54.0
10250,55.0,6,68,6.0,63.0
10251,74.0,2,33,4.0,70.0
10252,69.0,38,38,1.0,89.0
10253,74.0,2,36,5.0,82.0
10254,74.0,2,33,0.0,66.0
10255,54.0,6,37,6.0,70.0
10256,54.0,5,48,3.0,60.0
10257,74.0,49,33,4.0,76.0
10258,71.0,8,146,2.0,98.0
10259,74.0,1,43,5.0,87.0
10260,52.0,1,43,3.0,56.0
10261,52.0,3,40,6.0,66.0
10262,74.0,2,39,0.0,87.0
10263,55.0,44,50,3.0,68.0
10264,55.0,11,41,6.0,55.0
10265,64.0,13,43,2.0,82.0
10266,54.0,34,53,3.0,74.0
10267,67.0,9,46,4.0,70.0
10268,54.0,1,40,6.0,55.0
10269,67.0,5,41,0.0,82.0
10270,67.0,1,55,5.0,78.0
10271,62.0,6,60,2.0,64.0
10272,55.0,40,43,3.0,66.0
10273,55.0,2,35,6.0,72.0
10274,64.0,9,43,2.0,70.0
10275,67.0,1,274,1.0,80.0
10276,57.0,56,51,3.0,82.0
10277,60.0,2,42,2.0,78.0
10278,57.0,3,40,6.0,82.0
10279,55.0,40,44,3.0,63.0
10280,71.0,12,43,1.0,70.0
10281,55.0,4,41,6.0,66.0
10282,72.0,0,124,0.0,89.0
10283,72.0,1,128,4.0,66.0
10284,72.0,7,147,5.0,80.0
10285,54.0,34,56,3.0,57.0
10286,54.0,19,44,6.0,63.0
10287,69.0,4,42,1.0,82.0
10288,52.0,34,45,3.0,53.0
10289,72.0,4,29,0.0,80.0
10290,52.0,3,34,6.0,53.0
10291,72.0,6,25,4.0,70.0
10292,67.0,13,41,1.0,74.0
10293,72.0,2,34,5.0,78.0
10294,69.0,6,141,2.0,98.0
10295,72.0,1,44,0.0,91.0
10296,72.0,7,38,4.0,70.0
10297,72.0,1,46,5.0,87.0
10298,50.0,4,60,6.0,66.0
10299,66.0,0,70,1.0,89.0
10300,50.0,48,76,3.0,63.0
10301,67.0,43,46,2.0,80.0
10302,76.0,1,39,4.0,70.0
10303,76.0,6,49,0.0,85.0
10304,76.0,6,46,5.0,66.0
10305,62.0,5,43,6.0,70.0
10306,74.0,1,44,0.0,87.0
10307,66.0,46,50,2.0,82.0
10308,62.0,2,38,3.0,74.0
10309,69.0,0,46,1.0,89.0
10310,74.0,5,52,5.0,74.0
10311,74.0,4,50,4.0,70.0
10312,72.0,3,40,0.0,80.0
10313,72.0,2,57,5.0,60.0
10314,64.0,43,63,2.0,78.0
10315,72.0,7,53,4.0,58.0
10316,62.0,42,45,2.0,63.0
10317,62.0,4,39,6.0,80.0
10318,71.0,0,42,4.0,70.0
10319,71.0,2,51,5.0,66.0
10320,62.0,2,44,3.0,85.0
10321,66.0,3,46,1.0,93.0
10322,71.0,9,55,0.0,64.0
10323,60.0,38,45,2.0,66.0
10324,69.0,2,37,0.0,68.0
10325,69.0,1,45,4.0,60.0
10326,69.0,7,52,5.0,57.0
10327,67.0,7,34,0.0,74.0
10328,59.0,53,53,2.0,70.0
10329,62.0,3,38,6.0,87.0
10330,62.0,2,39,3.0,87.0
10331,62.0,3,39,1.0,87.0
10332,67.0,3,55,4.0,63.0
10333,67.0,3,53,5.0,64.0
10334,57.0,0,31,2.0,62.0
10335,66.0,41,46,4.0,60.0
10336,66.0,1,55,0.0,63.0
10337,66.0,9,57,5.0,85.0
10338,67.0,51,61,4.0,68.0
10339,67.0,9,56,5.0,72.0
10340,67.0,4,52,0.0,66.0
10341,71.0,3,42,4.0,66.0
10342,62.0,3,95,2.0,95.0
10343,71.0,46,48,5.0,60.0
10344,59.0,2,103,6.0,85.0
10345,71.0,8,45,0.0,72.0
10346,59.0,0,108,3.0,80.0
10347,60.0,1,42,6.0,74.0
10348,64.0,5,46,2.0,85.0
10349,60.0,1,43,3.0,80.0
10350,76.0,51,54,5.0,78.0
10351,76.0,1,51,4.0,66.0
10352,76.0,2,58,0.0,85.0
10353,67.0,2,185,1.0,85.0
10354,66.0,7,40,2.0,82.0
10355,74.0,41,52,5.0,70.0
10356,62.0,0,40,6.0,80.0
10357,62.0,5,42,3.0,66.0
10358,74.0,1,47,4.0,66.0
10359,74.0,2,48,0.0,78.0
10360,64.0,4,38,3.0,85.0
10361,64.0,1,41,6.0,89.0
10362,67.0,0,42,2.0,95.0
10363,72.0,52,48,5.0,58.0
10364,72.0,3,40,0.0,70.0
10365,72.0,3,42,4.0,61.0
10366,71.0,39,55,5.0,56.0
10367,67.0,3,43,1.0,82.0
10368,71.0,10,51,0.0,72.0
10369,71.0,0,52,4.0,52.0
10370,69.0,0,47,5.0,57.0
10371,60.0,0,39,3.0,78.0
10372,60.0,4,40,6.0,82.0
10373,69.0,4,45,0.0,87.0
10374,69.0,53,50,1.0,68.0
10375,64.0,1,49,2.0,85.0
10376,69.0,4,64,4.0,57.0
10377,67.0,1,28,5.0,63.0
10378,67.0,1,22,4.0,63.0
10379,71.0,43,44,1.0,82.0
10380,67.0,7,40,0.0,82.0
10381,72.0,57,42,1.0,87.0
10382,57.0,6,39,3.0,66.0
10383,78.0,0,48,0.0,100.0
10384,57.0,3,45,6.0,82.0
10385,78.0,1,51,4.0,89.0
10386,78.0,1,56,5.0,82.0
10387,69.0,2,66,2.0,98.0
10388,69.0,42,51,1.0,68.0
10389,76.0,2,42,4.0,60.0
10390,67.0,1,55,2.0,82.0
10391,76.0,7,61,5.0,62.0
10392,76.0,3,62,0.0,70.0
10393,62.0,51,43,3.0,82.0
10394,62.0,1,39,6.0,87.0
10395,71.0,1,48,1.0,70.0
10396,74.0,0,44,4.0,57.0
10397,74.0,3,44,5.0,58.0
10398,74.0,2,50,0.0,68.0
10399,66.0,5,58,2.0,68.0
10400,72.0,42,43,1.0,80.0
10401,76.0,1,35,0.0,70.0
10402,76.0,3,36,4.0,56.0
10403,76.0,2,47,5.0,59.0
10404,64.0,8,53,2.0,68.0
10405,62.0,47,46,2.0,64.0
10406,78.0,0,46,0.0,93.0
10407,50.0,0,46,3.0,80.0
10408,78.0,2,48,4.0,78.0
10409,50.0,0,48,6.0,85.0
10410,78.0,1,52,5.0,80.0
10411,76.0,2,42,4.0,57.0
10412,76.0,4,39,0.0,80.0
10413,76.0,0,46,5.0,70.0
10414,60.0,50,58,2.0,66.0
10415,74.0,8,121,1.0,85.0
10416,60.0,1,45,3.0,76.0
10417,78.0,0,46,0.0,98.0
10418,60.0,5,38,6.0,82.0
10419,78.0,2,45,4.0,72.0
10420,78.0,1,44,5.0,72.0
10421,59.0,55,57,2.0,60.0
10422,74.0,47,34,0.0,82.0
10423,74.0,0,37,1.0,91.0
10424,74.0,1,37,4.0,60.0
10425,57.0,3,42,2.0,66.0
10426,74.0,1,41,5.0,70.0
10427,59.0,4,43,3.0,70.0
10428,59.0,1,42,6.0,72.0
10429,55.0,0,48,2.0,82.0
10430,74.0,3,51,1.0,102.0
10431,79.0,61,117,0.0,89.0
10432,72.0,56,54,1.0,89.0
10433,79.0,0,122,4.0,80.0
10434,79.0,1,137,5.0,85.0
10435,55.0,55,42,3.0,70.0
10436,71.0,1,40,1.0,85.0
10437,55.0,3,41,6.0,72.0
10438,62.0,2,41,2.0,82.0
10439,72.0,0,26,1.0,91.0
10440,81.0,50,30,0.0,85.0
10441,81.0,6,26,4.0,66.0
10442,81.0,1,27,5.0,66.0
10443,71.0,53,36,1.0,95.0
10444,79.0,1,32,0.0,93.0
10445,62.0,2,40,3.0,76.0
10446,79.0,5,29,4.0,82.0
10447,62.0,5,37,6.0,87.0
10448,79.0,4,28,5.0,85.0
10449,62.0,2,47,2.0,89.0
10450,78.0,13,28,0.0,82.0
10451,69.0,6,26,1.0,82.0
10452,78.0,0,25,4.0,72.0
10453,78.0,2,28,5.0,82.0
10454,71.0,3,37,1.0,91.0
10455,79.0,19,40,0.0,80.0
10456,79.0,1,39,4.0,60.0
10457,79.0,2,44,5.0,63.0
10458,78.0,19,46,0.0,85.0
10459,78.0,4,52,4.0,64.0
10460,69.0,3,69,1.0,95.0
10461,78.0,4,61,5.0,68.0
10462,50.0,2,42,6.0,80.0
10463,62.0,6,40,2.0,91.0
10464,50.0,28,53,3.0,68.0
10465,79.0,54,26,0.0,82.0
10466,79.0,6,25,4.0,62.0
10467,71.0,2,29,1.0,85.0
10468,79.0,1,37,5.0,70.0
10469,43.0,1,45,6.0,80.0
10470,79.0,6,72,5.0,87.0
10471,59.0,42,49,6.0,72.0
10472,43.0,1,144,3.0,72.0
10473,74.0,2,37,5.0,66.0
10474,57.0,60,55,6.0,70.0
10475,55.0,61,42,6.0,66.0
10476,79.0,60,242,0.0,95.0
10477,71.0,1,250,1.0,98.0
10478,79.0,1,253,4.0,76.0
10479,62.0,0,270,2.0,102.0
10480,74.0,64,40,5.0,66.0
10481,54.0,3,48,6.0,89.0
10482,52.0,57,40,6.0,70.0
10483,74.0,6,39,5.0,78.0
10484,54.0,57,47,6.0,70.0
10485,50.0,52,41,6.0,64.0
10486,52.0,8,56,6.0,80.0
10487,54.0,59,48,6.0,60.0
10488,71.0,59,117,5.0,66.0
10489,72.0,8,43,5.0,80.0
10490,52.0,58,53,6.0,66.0
10491,74.0,3,39,5.0,66.0
10492,50.0,49,58,6.0,66.0
10493,76.0,61,36,5.0,76.0
10494,48.0,0,39,6.0,61.0
10495,47.0,56,49,6.0,66.0
10496,72.0,5,35,5.0,66.0
10497,48.0,60,46,6.0,64.0
10498,45.0,55,49,6.0,53.0
10499,69.0,7,39,5.0,63.0
10500,50.0,61,54,6.0,66.0
10501,48.0,57,45,6.0,62.0
10502,74.0,60,37,5.0,70.0
10503,50.0,1,50,6.0,60.0
10504,52.0,61,57,6.0,68.0
10505,79.0,1,490,4.0,55.0
10506,62.0,52,53,5.0,64.0
10507,50.0,6,53,6.0,61.0
10508,48.0,57,46,6.0,58.0
10509,72.0,2,34,5.0,64.0
10510,47.0,66,47,6.0,55.0
10511,45.0,54,47,6.0,53.0
10512,78.0,2,239,4.0,53.0
10513,43.0,62,59,6.0,60.0
10514,79.0,3,105,4.0,66.0
10515,45.0,57,68,6.0,56.0
10516,74.0,57,36,4.0,59.0
10517,47.0,5,47,6.0,64.0
10518,48.0,57,56,6.0,56.0
10519,71.0,2,240,5.0,60.0
10520,74.0,57,44,4.0,66.0
10521,50.0,5,52,6.0,55.0
10522,52.0,59,49,6.0,64.0
10523,74.0,56,45,4.0,66.0
10524,54.0,4,43,6.0,58.0
10525,50.0,48,46,6.0,64.0
10526,55.0,2,49,6.0,70.0
10527,54.0,58,52,6.0,66.0
10528,71.0,61,132,4.0,68.0
10529,52.0,60,47,6.0,60.0
10530,72.0,12,58,4.0,64.0
10531,50.0,42,40,6.0,60.0
10532,74.0,10,56,4.0,66.0
10533,48.0,52,53,6.0,59.0
10534,76.0,7,50,4.0,62.0
10535,50.0,54,50,6.0,66.0
10536,52.0,60,47,6.0,60.0
10537,72.0,7,44,4.0,68.0
10538,48.0,47,49,6.0,57.0
10539,50.0,68,57,6.0,68.0
10540,69.0,5,54,4.0,63.0
10541,48.0,51,46,6.0,53.0
10542,74.0,2,53,4.0,70.0
10543,50.0,64,63,6.0,66.0
10544,52.0,60,53,6.0,61.0
10545,79.0,1,473,5.0,63.0
10546,50.0,57,53,6.0,63.0
10547,62.0,6,55,4.0,66.0
10548,48.0,40,54,6.0,60.0
10549,47.0,63,40,6.0,53.0
10550,72.0,16,49,4.0,66.0
10551,78.0,9,184,5.0,57.0
10552,45.0,45,40,6.0,68.0
10553,79.0,72,47,5.0,80.0
10554,43.0,1,67,6.0,80.0
10555,83.0,49,44,5.0,74.0
10556,59.0,7,37,6.0,74.0
10557,81.0,54,49,5.0,72.0
10558,79.0,45,45,5.0,59.0
10559,71.0,8,227,4.0,53.0
10560,59.0,15,38,6.0,82.0
10561,78.0,60,56,5.0,60.0
10562,76.0,40,49,5.0,59.0
10563,78.0,59,51,5.0,48.0
10564,59.0,17,40,6.0,82.0
10565,74.0,37,53,5.0,58.0
10566,55.0,13,106,6.0,85.0
10567,84.0,54,66,4.0,68.0
10568,57.0,8,44,6.0,64.0
10569,83.0,61,68,4.0,63.0
10570,59.0,4,44,6.0,78.0
10571,81.0,50,55,4.0,55.0
10572,60.0,1,38,6.0,80.0
10573,79.0,58,51,4.0,55.0
10574,78.0,47,64,4.0,64.0
10575,79.0,70,40,4.0,57.0
10576,57.0,2,40,6.0,78.0
10577,76.0,57,48,4.0,57.0
10578,54.0,65,48,6.0,70.0
10579,81.0,8,63,4.0,74.0
10580,83.0,58,84,4.0,59.0
10581,59.0,58,38,6.0,76.0
10582,81.0,7,52,4.0,57.0
10583,76.0,69,708,5.0,60.0
10584,79.0,57,48,4.0,57.0
10585,47.0,52,58,6.0,66.0
10586,78.0,4,62,4.0,52.0
10587,76.0,64,44,4.0,58.0
10588,57.0,0,33,6.0,78.0
10589,78.0,60,57,4.0,57.0
10590,75.0,0,194,5.0,66.0
10591,71.0,58,50,4.0,58.0
10592,55.0,8,62,6.0,68.0
10593,83.0,4,68,4.0,60.0
10594,76.0,52,84,5.0,60.0
10595,54.0,55,49,6.0,72.0
10596,81.0,6,50,4.0,60.0
10597,71.0,2,33,0.0,80.0
10598,71.0,3,43,1.0,55.0
10599,71.0,11,28,2.0,74.0
10600,76.0,3,48,5.0,82.0
10601,52.0,47,57,6.0,66.0
10602,79.0,1,59,4.0,58.0
10603,75.0,31,49,5.0,63.0
10604,54.0,11,43,6.0,72.0
10605,78.0,2,58,4.0,51.0
10606,76.0,53,32,5.0,76.0
10607,71.0,4,36,0.0,85.0
10608,71.0,3,39,1.0,55.0
10609,71.0,2,38,2.0,66.0
10610,55.0,3,66,6.0,72.0
10611,57.0,51,52,6.0,64.0
10612,71.0,1,34,0.0,85.0
10613,59.0,61,42,6.0,68.0
10614,71.0,3,37,2.0,64.0
10615,71.0,3,43,5.0,66.0
10616,71.0,0,46,1.0,57.0
10617,55.0,46,43,6.0,62.0
10618,60.0,1,56,6.0,82.0
10619,67.0,2,111,2.0,68.0
10620,62.0,54,55,6.0,66.0
10621,67.0,7,111,0.0,82.0
10622,67.0,63,121,1.0,60.0
10623,64.0,1,125,5.0,66.0
10624,69.0,0,41,2.0,70.0
10625,69.0,5,43,1.0,62.0
10626,69.0,3,45,0.0,82.0
10627,60.0,62,53,6.0,66.0
10628,66.0,11,48,5.0,64.0
10629,71.0,35,37,2.0,70.0
10630,71.0,1,45,1.0,66.0
10631,59.0,0,43,6.0,59.0
10632,71.0,5,43,0.0,82.0
10633,67.0,2,50,5.0,62.0
10634,72.0,53,38,1.0,62.0
10635,72.0,2,42,0.0,68.0
10636,72.0,2,44,2.0,61.0
10637,57.0,3,52,6.0,66.0
10638,69.0,3,64,5.0,70.0
10639,67.0,52,52,5.0,64.0
10640,59.0,4,48,6.0,70.0
10641,69.0,51,41,2.0,78.0
10642,69.0,1,40,0.0,78.0
10643,69.0,5,45,1.0,64.0
10644,66.0,1,52,5.0,57.0
10645,60.0,3,51,6.0,72.0
10646,64.0,44,49,5.0,64.0
10647,57.0,10,49,6.0,63.0
10648,66.0,52,55,2.0,62.0
10649,66.0,3,50,1.0,60.0
10650,66.0,0,52,0.0,68.0
10651,59.0,2,53,6.0,66.0
10652,71.0,8,95,5.0,70.0
10653,57.0,55,43,6.0,54.0
10654,71.0,48,39,2.0,78.0
10655,71.0,1,44,1.0,64.0
10656,71.0,2,43,0.0,82.0
10657,59.0,11,63,6.0,74.0
10658,76.0,1,906,4.0,53.0
10659,69.0,2,77,5.0,60.0
10660,60.0,54,51,6.0,66.0
10661,59.0,59,44,2.0,85.0
10662,76.0,4,35,4.0,63.0
10663,59.0,8,43,0.0,80.0
10664,59.0,1,54,6.0,72.0
10665,59.0,5,60,1.0,68.0
10666,75.0,31,28,4.0,61.0
10667,67.0,1,84,5.0,57.0
10668,57.0,12,55,6.0,57.0
10669,76.0,14,47,4.0,59.0
10670,71.0,3,37,0.0,80.0
10671,69.0,3,41,1.0,63.0
10672,59.0,0,59,2.0,68.0
10673,55.0,16,63,6.0,58.0
10674,66.0,4,89,5.0,55.0
10675,75.0,31,111,4.0,56.0
10676,54.0,48,54,6.0,72.0
10677,55.0,62,63,6.0,66.0
10678,54.0,42,47,6.0,60.0
10679,76.0,5,114,4.0,68.0
10680,55.0,61,64,6.0,74.0
10681,57.0,50,52,6.0,63.0
10682,71.0,13,113,4.0,63.0
10683,67.0,3,233,1.0,56.0
10684,64.0,0,238,2.0,59.0
10685,71.0,4,250,0.0,64.0
10686,64.0,4,258,5.0,58.0
10687,55.0,63,54,6.0,72.0
10688,76.0,9,99,4.0,66.0
10689,54.0,47,52,6.0,68.0
10690,52.0,0,55,6.0,64.0
10691,78.0,63,108,4.0,57.0
10692,51.0,56,57,6.0,50.0
10693,52.0,4,42,6.0,64.0
10694,51.0,56,51,6.0,55.0
10695,52.0,54,56,6.0,57.0
10696,54.0,40,42,6.0,80.0
10697,71.0,24,103,5.0,53.0
10698,55.0,57,63,6.0,61.0
10699,57.0,41,52,6.0,58.0
10700,76.0,22,120,5.0,70.0
10701,59.0,66,58,6.0,64.0
10702,74.0,13,96,5.0,64.0
10703,55.0,46,56,6.0,59.0
10704,57.0,71,60,6.0,64.0
10705,79.0,61,577,4.0,52.0
10706,55.0,57,47,6.0,78.0
10707,57.0,10,47,6.0,64.0
10708,69.0,50,111,4.0,57.0
10709,59.0,54,60,6.0,68.0
10710,57.0,9,55,6.0,61.0
10711,55.0,55,46,6.0,58.0
10712,76.0,52,112,4.0,64.0
10713,54.0,56,72,6.0,61.0
10714,52.0,58,49,6.0,59.0
10715,79.0,5,122,4.0,64.0
10716,72.0,1,485,5.0,59.0
10717,50.0,57,66,6.0,58.0
10718,48.0,44,48,6.0,63.0
10719,50.0,8,49,6.0,59.0
10720,52.0,57,39,6.0,60.0
10721,62.0,64,119,5.0,66.0
10722,54.0,57,50,6.0,60.0
10723,55.0,50,52,6.0,70.0
10724,69.0,4,110,5.0,60.0
10725,57.0,65,47,6.0,61.0
10726,54.0,47,48,6.0,53.0
10727,72.0,9,116,5.0,62.0
10728,55.0,68,60,6.0,74.0
10729,78.0,15,564,4.0,44.0
10730,54.0,49,53,6.0,60.0
10731,83.0,12,48,4.0,68.0
10732,55.0,56,65,6.0,60.0
10733,57.0,54,48,6.0,60.0
10734,83.0,11,42,4.0,72.0
10735,55.0,62,64,6.0,66.0
10736,54.0,50,60,6.0,62.0
10737,83.0,4,42,4.0,74.0
10738,52.0,63,46,6.0,72.0
10739,71.0,7,444,5.0,53.0
10740,50.0,50,58,6.0,62.0
10741,48.0,64,45,6.0,78.0
10742,50.0,45,71,6.0,63.0
10743,76.0,6,120,4.0,70.0
10744,78.0,6,35,5.0,61.0
10745,48.0,59,58,6.0,59.0
10746,78.0,6,59,4.0,58.0
10747,79.0,9,42,4.0,60.0
10748,47.0,44,68,6.0,58.0
10749,78.0,11,40,5.0,66.0
10750,45.0,50,54,6.0,74.0
10751,43.0,41,61,6.0,63.0
10752,78.0,10,45,5.0,68.0
10753,42.0,65,56,6.0,61.0
10754,40.0,52,63,6.0,68.0
10755,39.0,69,65,6.0,78.0
10756,81.0,4,325,4.0,66.0
10757,72.0,52,42,2.0,80.0
10758,72.0,0,44,0.0,72.0
10759,72.0,2,48,1.0,68.0
10760,71.0,5,118,5.0,64.0
10761,71.0,1,42,0.0,72.0
10762,71.0,0,46,2.0,70.0
10763,71.0,56,49,1.0,63.0
10764,47.0,7,46,6.0,62.0
10765,79.0,2,47,4.0,70.0
10766,73.0,4,53,5.0,55.0
10767,78.0,41,47,4.0,56.0
10768,75.0,4,45,5.0,64.0
10769,69.0,0,52,1.0,57.0
10770,69.0,1,50,0.0,64.0
10771,69.0,0,51,2.0,57.0
10772,67.0,0,42,2.0,64.0
10773,79.0,1,46,4.0,70.0
10774,48.0,2,49,6.0,63.0
10775,67.0,53,65,1.0,59.0
10776,67.0,3,66,0.0,62.0
10777,66.0,1,40,2.0,55.0
10778,66.0,47,56,1.0,62.0
10779,66.0,4,54,0.0,80.0
10780,67.0,53,41,2.0,60.0
10781,67.0,0,44,1.0,59.0
10782,67.0,2,47,0.0,66.0
10783,47.0,12,49,6.0,68.0
10784,84.0,4,46,4.0,76.0
10785,64.0,2,39,0.0,59.0
10786,64.0,43,44,1.0,63.0
10787,64.0,2,50,2.0,52.0
10788,72.0,59,55,1.0,78.0
10789,45.0,2,46,6.0,68.0
10790,72.0,7,49,2.0,70.0
10791,72.0,0,57,0.0,80.0
10792,71.0,39,44,1.0,72.0
10793,71.0,3,43,2.0,68.0
10794,71.0,5,48,0.0,72.0
10795,76.0,5,351,5.0,70.0
10796,69.0,49,41,1.0,72.0
10797,69.0,8,42,2.0,60.0
10798,69.0,1,43,0.0,76.0
10799,42.0,2,53,6.0,61.0
10800,74.0,3,51,5.0,70.0
10801,67.0,3,44,2.0,64.0
10802,72.0,0,45,5.0,53.0
10803,67.0,43,54,1.0,62.0
10804,67.0,4,52,0.0,68.0
10805,78.0,12,251,4.0,62.0
10806,66.0,7,40,2.0,76.0
10807,66.0,1,44,1.0,61.0
10808,66.0,2,42,0.0,72.0
10809,47.0,2,45,6.0,78.0
10810,78.0,53,57,4.0,58.0
10811,71.0,6,37,2.0,74.0
10812,71.0,2,37,0.0,80.0
10813,71.0,0,40,1.0,70.0
10814,45.0,6,43,6.0,78.0
10815,80.0,54,63,4.0,68.0
10816,81.0,38,58,4.0,72.0
10817,83.0,68,58,4.0,62.0
10818,44.0,2,49,6.0,64.0
10819,81.0,39,57,4.0,64.0
10820,52.0,10,44,6.0,78.0
10821,80.0,63,61,4.0,51.0
10822,78.0,47,59,4.0,51.0
10823,74.0,60,475,5.0,64.0
10824,64.0,2,232,0.0,60.0
10825,64.0,8,238,1.0,57.0
10826,64.0,1,242,2.0,58.0
10827,57.0,77,46,6.0,74.0
10828,76.0,0,50,4.0,68.0
10829,81.0,62,52,4.0,64.0
10830,55.0,6,43,6.0,80.0
10831,83.0,57,54,4.0,63.0
10832,84.0,45,48,4.0,66.0
10833,72.0,2,264,5.0,60.0
10834,54.0,71,96,6.0,64.0
10835,72.0,48,63,5.0,72.0
10836,71.0,56,56,5.0,58.0
10837,62.0,13,59,6.0,82.0
10838,60.0,14,32,6.0,80.0
10839,69.0,43,47,5.0,59.0
10840,59.0,7,37,6.0,64.0
10841,68.0,49,55,5.0,53.0
10842,69.0,47,56,5.0,68.0
10843,57.0,10,44,6.0,70.0
10844,71.0,60,55,5.0,57.0
10845,68.0,45,55,5.0,59.0
10846,74.0,9,499,4.0,53.0
10847,64.0,62,55,5.0,59.0
10848,56.0,23,54,6.0,68.0
10849,77.0,52,75,4.0,80.0
10850,76.0,7,36,0.0,66.0
10851,76.0,1,39,1.0,62.0
10852,68.0,52,48,5.0,62.0
10853,52.0,2,53,6.0,66.0
10854,76.0,1,68,4.0,64.0
10855,74.0,62,56,4.0,59.0
10856,76.0,50,41,0.0,66.0
10857,76.0,0,47,1.0,62.0
10858,57.0,5,46,6.0,72.0
10859,72.0,4,56,4.0,63.0
10860,71.0,54,47,4.0,52.0
10861,76.0,0,43,0.0,76.0
10862,76.0,58,45,1.0,66.0
10863,72.0,4,44,4.0,55.0
10864,60.0,4,63,6.0,64.0
10865,69.0,54,59,4.0,62.0
10866,69.0,0,262,5.0,60.0
10867,65.0,3,58,6.0,70.0
10868,72.0,55,112,1.0,64.0
10869,72.0,6,116,0.0,74.0
10870,77.0,49,77,5.0,72.0
10871,56.0,56,56,6.0,62.0
10872,74.0,1,52,1.0,78.0
10873,76.0,5,57,5.0,66.0
10874,74.0,5,52,0.0,85.0
10875,76.0,47,43,1.0,64.0
10876,76.0,2,46,0.0,72.0
10877,74.0,5,59,5.0,62.0
10878,77.0,52,43,1.0,66.0
10879,77.0,1,44,0.0,72.0
10880,72.0,3,50,5.0,59.0
10881,57.0,4,57,6.0,66.0
10882,71.0,45,62,5.0,56.0
10883,74.0,4,39,0.0,70.0
10884,74.0,1,43,1.0,64.0
10885,72.0,64,51,5.0,53.0
10886,53.0,6,49,6.0,61.0
10887,69.0,40,48,5.0,60.0
10888,71.0,0,48,1.0,68.0
10889,50.0,7,49,6.0,70.0
10890,71.0,4,50,0.0,68.0
10891,74.0,65,62,5.0,72.0
10892,76.0,42,72,5.0,66.0
10893,74.0,3,35,0.0,70.0
10894,74.0,2,41,1.0,70.0
10895,74.0,65,56,5.0,66.0
10896,47.0,10,51,6.0,70.0
10897,72.0,43,58,5.0,60.0
10898,81.0,11,689,4.0,49.0
10899,71.0,4,49,5.0,57.0
10900,52.0,5,46,6.0,80.0
10901,64.0,1,48,1.0,70.0
10902,64.0,1,53,0.0,64.0
10903,69.0,44,57,5.0,58.0
10904,74.0,2,35,0.0,74.0
10905,74.0,3,38,1.0,62.0
10906,40.0,4,44,6.0,82.0
10907,71.0,65,56,5.0,58.0
10908,80.0,61,230,4.0,58.0
10909,64.0,49,74,5.0,53.0
10910,72.0,2,74,1.0,59.0
10911,72.0,4,83,0.0,78.0
10912,45.0,66,93,6.0,87.0
10913,81.0,1,43,0.0,76.0
10914,72.0,108,49,2.0,76.0
10915,76.0,3,47,1.0,91.0
10916,64.0,3,45,3.0,82.0
10917,64.0,5,49,6.0,82.0
10918,62.0,4,32,6.0,76.0
10919,62.0,52,40,3.0,68.0
10920,60.0,1,42,6.0,82.0
10921,60.0,1,44,3.0,63.0
10922,81.0,5,40,0.0,80.0
10923,72.0,52,48,2.0,85.0
10924,76.0,1,45,1.0,85.0
10925,59.0,0,43,3.0,80.0
10926,59.0,48,53,6.0,70.0
10927,60.0,60,41,6.0,68.0
10928,60.0,0,43,3.0,66.0
10929,72.0,7,44,2.0,87.0
10930,81.0,0,42,0.0,89.0
10931,76.0,3,43,1.0,82.0
10932,57.0,0,41,6.0,61.0
10933,57.0,46,50,3.0,68.0
10934,62.0,1,39,6.0,85.0
10935,81.0,9,512,4.0,68.0
10936,62.0,66,51,3.0,87.0
10937,78.0,5,98,0.0,80.0
10938,74.0,5,115,1.0,80.0
10939,69.0,1,136,2.0,76.0
10940,82.0,62,70,4.0,85.0
10941,74.0,5,33,0.0,68.0
10942,50.0,1,49,6.0,76.0
10943,74.0,5,45,1.0,64.0
10944,81.0,9,61,4.0,57.0
10945,50.0,48,77,3.0,78.0
10946,79.0,50,50,4.0,62.0
10947,72.0,4,731,5.0,57.0
10948,62.0,52,45,6.0,76.0
10949,74.0,3,37,0.0,72.0
10950,74.0,2,45,1.0,62.0
10951,78.0,7,53,4.0,63.0
10952,76.0,51,54,4.0,49.0
10953,58.0,4,42,6.0,58.0
10954,74.0,0,44,1.0,60.0
10955,74.0,1,45,0.0,68.0
10956,78.0,56,62,4.0,52.0
10957,74.0,54,54,4.0,63.0
10958,63.0,63,41,6.0,63.0
10959,70.0,3,109,1.0,57.0
10960,70.0,4,117,0.0,63.0
10961,75.0,49,77,5.0,64.0
10962,54.0,14,40,6.0,59.0
10963,74.0,57,58,5.0,58.0
10964,72.0,2,46,1.0,64.0
10965,72.0,5,48,0.0,66.0
10966,72.0,39,45,5.0,59.0
10967,74.0,10,51,1.0,62.0
10968,74.0,1,56,0.0,72.0
10969,70.0,44,54,5.0,62.0
10970,55.0,3,34,6.0,68.0
10971,75.0,2,40,1.0,55.0
10972,75.0,17,42,0.0,61.0
10973,69.0,39,53,5.0,34.0
10974,51.0,2,32,6.0,60.0
10975,72.0,3,30,1.0,60.0
10976,72.0,18,41,0.0,66.0
10977,70.0,52,66,5.0,53.0
10978,67.0,40,48,5.0,58.0
10979,48.0,0,43,6.0,80.0
10980,69.0,9,47,1.0,62.0
10981,72.0,64,58,5.0,72.0
10982,69.0,3,46,0.0,58.0
10983,74.0,40,71,5.0,66.0
10984,72.0,3,33,1.0,57.0
10985,45.0,0,45,6.0,62.0
10986,72.0,8,39,0.0,66.0
10987,72.0,66,62,5.0,61.0
10988,79.0,0,708,4.0,64.0
10989,70.0,48,73,5.0,55.0
10990,50.0,65,42,6.0,80.0
10991,62.0,1,51,1.0,66.0
10992,69.0,1,47,5.0,59.0
10993,62.0,1,55,0.0,72.0
10994,67.0,48,62,5.0,53.0
10995,72.0,2,32,1.0,59.0
10996,72.0,64,39,0.0,70.0
10997,38.0,1,42,6.0,80.0
10998,69.0,2,52,5.0,57.0
10999,78.0,3,232,4.0,53.0
11000,62.0,56,69,5.0,48.0
11001,70.0,4,86,1.0,60.0
11002,70.0,60,95,0.0,66.0
11003,43.0,1,93,6.0,74.0
11004,74.0,0,47,1.0,87.0
11005,70.0,115,49,2.0,78.0
11006,79.0,0,46,0.0,98.0
11007,62.0,3,54,3.0,82.0
11008,62.0,3,52,6.0,70.0
11009,60.0,3,32,6.0,72.0
11010,60.0,54,39,3.0,80.0
11011,58.0,48,35,3.0,64.0
11012,58.0,4,39,6.0,66.0
11013,74.0,7,46,1.0,100.0
11014,79.0,4,41,0.0,93.0
11015,70.0,3,48,2.0,91.0
11016,57.0,37,41,3.0,82.0
11017,57.0,5,38,6.0,78.0
11018,58.0,54,49,3.0,85.0
11019,58.0,5,47,6.0,82.0
11020,70.0,3,40,2.0,82.0
11021,74.0,0,46,1.0,95.0
11022,79.0,14,49,0.0,93.0
11023,55.0,36,41,3.0,68.0
11024,55.0,6,44,6.0,68.0
11025,60.0,54,48,3.0,87.0
11026,79.0,5,525,4.0,45.0
11027,60.0,1,45,6.0,87.0
11028,72.0,19,94,1.0,95.0
11029,76.0,1,93,0.0,87.0
11030,81.0,66,65,4.0,68.0
11031,67.0,1,133,2.0,72.0
11032,72.0,2,36,1.0,62.0
11033,72.0,1,37,0.0,57.0
11034,48.0,1,47,6.0,66.0
11035,48.0,45,73,3.0,76.0
11036,79.0,10,65,4.0,64.0
11037,77.0,59,59,4.0,57.0
11038,70.0,3,731,5.0,51.0
11039,72.0,2,38,0.0,70.0
11040,72.0,58,45,1.0,64.0
11041,60.0,6,38,6.0,82.0
11042,76.0,1,51,4.0,68.0
11043,74.0,45,62,4.0,64.0
11044,72.0,3,38,1.0,66.0
11045,72.0,2,42,0.0,72.0
11046,57.0,4,39,6.0,68.0
11047,76.0,63,51,4.0,60.0
11048,72.0,49,53,4.0,64.0
11049,62.0,5,41,6.0,80.0
11050,69.0,61,101,1.0,64.0
11051,69.0,2,101,0.0,82.0
11052,74.0,51,70,5.0,64.0
11053,70.0,1,47,1.0,62.0
11054,52.0,6,50,6.0,64.0
11055,70.0,7,46,0.0,60.0
11056,72.0,54,60,5.0,63.0
11057,72.0,8,36,0.0,64.0
11058,72.0,0,41,1.0,66.0
11059,70.0,42,64,5.0,56.0
11060,74.0,2,34,1.0,70.0
11061,74.0,0,41,0.0,70.0
11062,69.0,55,54,5.0,52.0
11063,53.0,7,48,6.0,68.0
11064,67.0,42,68,5.0,58.0
11065,70.0,6,39,1.0,64.0
11066,70.0,3,38,0.0,61.0
11067,69.0,66,55,5.0,57.0
11068,50.0,1,58,6.0,76.0
11069,65.0,47,64,5.0,57.0
11070,67.0,5,46,1.0,70.0
11071,67.0,0,46,0.0,74.0
11072,46.0,5,55,6.0,66.0
11073,70.0,63,72,5.0,64.0
11074,72.0,52,59,5.0,66.0
11075,70.0,3,43,1.0,64.0
11076,70.0,7,37,0.0,68.0
11077,43.0,1,51,6.0,66.0
11078,70.0,61,70,5.0,60.0
11079,69.0,53,53,5.0,59.0
11080,77.0,5,723,4.0,68.0
11081,48.0,7,43,6.0,80.0
11082,60.0,56,51,1.0,78.0
11083,67.0,1,54,5.0,56.0
11084,60.0,4,46,0.0,80.0
11085,65.0,38,64,5.0,57.0
11086,70.0,1,33,1.0,64.0
11087,67.0,64,57,5.0,61.0
11088,70.0,6,52,0.0,66.0
11089,36.0,5,56,6.0,64.0
11090,76.0,3,211,4.0,68.0
11091,60.0,48,55,5.0,64.0
11092,69.0,1,50,0.0,80.0
11093,69.0,4,63,5.0,63.0
11094,69.0,4,67,1.0,78.0
11095,77.0,62,85,4.0,53.0
11096,70.0,6,33,2.0,87.0
11097,67.0,0,52,0.0,70.0
11098,67.0,35,73,5.0,51.0
11099,41.0,15,114,6.0,80.0
11100,77.0,2,38,1.0,80.0
11101,69.0,1,52,2.0,76.0
11102,65.0,53,64,0.0,72.0
11103,65.0,3,63,5.0,59.0
11104,65.0,8,66,4.0,66.0
11105,67.0,2,42,2.0,63.0
11106,67.0,41,55,0.0,64.0
11107,67.0,11,58,4.0,70.0
11108,67.0,3,64,5.0,64.0
11109,69.0,46,45,0.0,85.0
11110,65.0,1,48,2.0,80.0
11111,69.0,14,44,4.0,80.0
11112,69.0,0,44,5.0,63.0
11113,77.0,1,46,1.0,85.0
11114,64.0,36,54,2.0,63.0
11115,67.0,1,55,0.0,74.0
11116,67.0,0,65,4.0,60.0
11117,67.0,15,65,5.0,55.0
11118,69.0,3,47,0.0,72.0
11119,65.0,46,52,2.0,64.0
11120,77.0,14,41,1.0,82.0
11121,69.0,2,51,5.0,59.0
11122,69.0,2,56,4.0,66.0
11123,71.0,38,41,0.0,80.0
11124,62.0,3,39,2.0,64.0
11125,71.0,8,45,4.0,68.0
11126,71.0,6,53,5.0,58.0
11127,69.0,3,63,2.0,53.0
11128,72.0,53,110,0.0,80.0
11129,58.0,4,41,3.0,82.0
11130,76.0,1,109,1.0,89.0
11131,67.0,52,53,2.0,70.0
11132,58.0,12,42,6.0,66.0
11133,72.0,6,122,5.0,76.0
11134,72.0,3,126,4.0,78.0
11135,69.0,5,32,2.0,52.0
11136,57.0,46,42,3.0,80.0
11137,77.0,0,47,1.0,80.0
11138,57.0,8,40,6.0,78.0
11139,67.0,3,29,0.0,68.0
11140,79.0,5,43,1.0,87.0
11141,70.0,32,51,2.0,63.0
11142,67.0,9,30,4.0,57.0
11143,67.0,0,37,5.0,57.0
11144,55.0,6,53,3.0,76.0
11145,55.0,2,46,6.0,66.0
11146,81.0,42,40,1.0,87.0
11147,53.0,3,41,3.0,61.0
11148,72.0,1,51,2.0,89.0
11149,53.0,5,43,6.0,66.0
11150,52.0,44,38,3.0,61.0
11151,52.0,9,45,6.0,53.0
11152,72.0,5,112,0.0,87.0
11153,72.0,3,110,5.0,82.0
11154,72.0,1,125,4.0,82.0
11155,53.0,45,46,3.0,63.0
11156,69.0,2,45,2.0,78.0
11157,77.0,5,51,1.0,85.0
11158,53.0,6,43,6.0,43.0
11159,50.0,43,46,3.0,66.0
11160,72.0,0,29,0.0,85.0
11161,72.0,10,32,4.0,66.0
11162,50.0,10,47,6.0,68.0
11163,72.0,5,33,5.0,68.0
11164,55.0,37,50,3.0,82.0
11165,67.0,3,49,2.0,82.0
11166,74.0,2,55,1.0,82.0
11167,55.0,1,50,6.0,78.0
11168,72.0,0,104,0.0,100.0
11169,72.0,0,106,5.0,82.0
11170,72.0,9,113,4.0,80.0
11171,79.0,1,43,1.0,87.0
11172,67.0,4,57,2.0,87.0
11173,43.0,111,73,3.0,66.0
11174,43.0,12,65,6.0,89.0
11175,71.0,32,38,5.0,60.0
11176,71.0,7,33,0.0,63.0
11177,69.0,20,42,5.0,64.0
11178,69.0,2,40,0.0,74.0
11179,69.0,4,42,4.0,66.0
11180,71.0,26,28,5.0,59.0
11181,71.0,0,28,0.0,63.0
11182,71.0,4,88,4.0,59.0
11183,72.0,2,32,0.0,82.0
11184,72.0,9,35,5.0,72.0
11185,67.0,1,48,1.0,93.0
11186,72.0,5,35,4.0,72.0
11187,67.0,15,61,2.0,89.0
11188,71.0,19,33,0.0,82.0
11189,71.0,4,30,5.0,76.0
11190,71.0,5,36,4.0,76.0
11191,72.0,15,37,0.0,85.0
11192,72.0,8,38,5.0,80.0
11193,72.0,4,40,4.0,64.0
11194,71.0,7,54,0.0,62.0
11195,71.0,13,58,4.0,53.0
11196,71.0,0,58,5.0,78.0
11197,67.0,25,65,2.0,87.0
11198,72.0,53,28,5.0,70.0
11199,72.0,3,27,0.0,82.0
11200,72.0,1,30,4.0,74.0
11201,79.0,5,144,1.0,85.0
11202,64.0,3,100,2.0,91.0
11203,67.0,53,63,1.0,80.0
11204,60.0,8,36,6.0,72.0
11205,65.0,5,45,2.0,80.0
11206,60.0,3,39,3.0,76.0
11207,69.0,57,68,1.0,80.0
11208,71.0,47,47,1.0,80.0
11209,67.0,0,49,2.0,85.0
11210,72.0,9,232,0.0,89.0
11211,72.0,0,249,5.0,72.0
11212,72.0,59,251,4.0,64.0
11213,60.0,4,39,6.0,72.0
11214,69.0,6,44,2.0,91.0
11215,60.0,6,47,3.0,80.0
11216,72.0,59,67,1.0,85.0
11217,76.0,42,62,1.0,61.0
11218,74.0,3,55,1.0,59.0
11219,60.0,4,40,6.0,80.0
11220,65.0,0,51,2.0,80.0
11221,60.0,1,46,3.0,82.0
11222,76.0,39,51,1.0,70.0
11223,81.0,57,156,5.0,70.0
11224,81.0,2,155,4.0,85.0
11225,81.0,10,160,0.0,87.0
11226,62.0,10,51,2.0,82.0
11227,77.0,63,63,1.0,85.0
11228,84.0,2,49,0.0,82.0
11229,84.0,0,50,4.0,78.0
11230,76.0,43,57,1.0,74.0
11231,59.0,3,103,6.0,68.0
11232,84.0,5,58,5.0,66.0
11233,59.0,5,117,3.0,66.0
11234,67.0,3,42,2.0,95.0
11235,60.0,8,32,6.0,68.0
11236,83.0,1,45,5.0,62.0
11237,83.0,1,46,4.0,70.0
11238,74.0,53,56,1.0,64.0
11239,83.0,3,52,0.0,76.0
11240,60.0,2,48,3.0,80.0
11241,62.0,37,46,6.0,68.0
11242,72.0,3,45,1.0,64.0
11243,62.0,1,47,3.0,82.0
11244,81.0,4,50,0.0,72.0
11245,81.0,3,59,5.0,64.0
11246,81.0,0,56,4.0,80.0
11247,64.0,52,45,6.0,80.0
11248,64.0,1,42,3.0,87.0
11249,55.0,4,54,2.0,82.0
11250,79.0,1,54,5.0,61.0
11251,79.0,0,57,4.0,64.0
11252,79.0,4,55,0.0,74.0
11253,77.0,0,47,4.0,68.0
11254,77.0,52,54,5.0,60.0
11255,77.0,4,59,0.0,74.0
11256,71.0,0,121,1.0,87.0
11257,60.0,3,41,6.0,78.0
11258,72.0,0,41,1.0,64.0
11259,60.0,3,42,3.0,82.0
11260,76.0,2,54,0.0,58.0
11261,76.0,52,57,5.0,58.0
11262,76.0,0,49,4.0,59.0
11263,74.0,49,46,1.0,82.0
11264,74.0,3,52,0.0,57.0
11265,74.0,3,49,4.0,48.0
11266,74.0,1,57,5.0,53.0
11267,57.0,6,45,3.0,74.0
11268,72.0,1,47,4.0,57.0
11269,57.0,1,44,6.0,64.0
11270,72.0,1,55,0.0,78.0
11271,72.0,4,53,5.0,66.0
11272,76.0,54,74,1.0,87.0
11273,67.0,3,195,2.0,100.0
11274,76.0,50,54,4.0,57.0
11275,72.0,3,52,1.0,78.0
11276,76.0,3,57,0.0,68.0
11277,76.0,2,58,5.0,61.0
11278,62.0,2,38,3.0,82.0
11279,62.0,1,36,6.0,78.0
11280,71.0,45,52,1.0,59.0
11281,74.0,4,49,4.0,53.0
11282,74.0,6,48,0.0,58.0
11283,74.0,0,60,5.0,52.0
11284,65.0,7,60,2.0,93.0
11285,72.0,38,40,1.0,64.0
11286,72.0,2,45,4.0,63.0
11287,72.0,7,38,0.0,64.0
11288,64.0,4,40,2.0,82.0
11289,72.0,4,47,5.0,60.0
11290,50.0,8,50,3.0,78.0
11291,65.0,3,49,2.0,100.0
11292,50.0,1,49,6.0,80.0
11293,74.0,41,71,1.0,80.0
11294,72.0,43,46,1.0,68.0
11295,64.0,9,45,2.0,80.0
11296,77.0,3,138,0.0,82.0
11297,77.0,5,143,4.0,82.0
11298,77.0,0,144,5.0,74.0
11299,60.0,0,43,3.0,85.0
11300,71.0,53,51,1.0,70.0
11301,60.0,7,42,6.0,80.0
11302,62.0,3,53,2.0,66.0
11303,77.0,10,28,0.0,87.0
11304,69.0,44,45,1.0,68.0
11305,77.0,2,31,4.0,89.0
11306,60.0,7,46,2.0,70.0
11307,77.0,4,32,5.0,80.0
11308,59.0,42,46,3.0,78.0
11309,59.0,0,45,6.0,80.0
11310,67.0,5,56,1.0,82.0
11311,62.0,3,59,2.0,87.0
11312,77.0,4,61,4.0,93.0
11313,77.0,4,61,0.0,91.0
11314,77.0,9,55,5.0,82.0
11315,76.0,48,50,4.0,85.0
11316,76.0,1,50,0.0,76.0
11317,76.0,6,49,5.0,66.0
11318,55.0,42,45,3.0,60.0
11319,55.0,7,39,6.0,63.0
11320,71.0,2,48,1.0,85.0
11321,74.0,2,51,4.0,64.0
11322,67.0,2,48,2.0,91.0
11323,74.0,0,57,0.0,70.0
11324,74.0,5,52,5.0,68.0
11325,76.0,46,28,0.0,60.0
11326,76.0,3,30,5.0,58.0
11327,76.0,2,34,4.0,59.0
11328,60.0,50,40,3.0,87.0
11329,77.0,1,28,5.0,76.0
11330,77.0,0,32,0.0,87.0
11331,60.0,10,37,6.0,85.0
11332,77.0,2,31,4.0,74.0
11333,67.0,1,48,2.0,85.0
11334,76.0,0,30,0.0,82.0
11335,76.0,23,32,5.0,64.0
11336,76.0,4,31,4.0,80.0
11337,72.0,4,66,1.0,98.0
11338,77.0,19,42,0.0,68.0
11339,77.0,4,36,5.0,72.0
11340,77.0,3,38,4.0,70.0
11341,65.0,0,38,2.0,95.0
11342,74.0,4,55,1.0,87.0
11343,76.0,14,58,0.0,74.0
11344,76.0,7,61,5.0,72.0
11345,76.0,3,65,4.0,80.0
11346,48.0,19,49,3.0,78.0
11347,67.0,0,43,2.0,85.0
11348,76.0,3,44,1.0,82.0
11349,48.0,9,52,6.0,68.0
11350,76.0,1,32,0.0,78.0
11351,72.0,1,38,1.0,91.0
11352,76.0,4,35,5.0,78.0
11353,76.0,1,35,4.0,87.0
11354,64.0,55,48,2.0,85.0
11355,76.0,1,42,4.0,89.0
11356,76.0,2,51,0.0,91.0
11357,76.0,0,53,5.0,85.0
11358,41.0,0,93,6.0,68.0
11359,41.0,0,95,3.0,80.0
11360,60.0,55,109,2.0,76.0
11361,69.0,56,54,4.0,66.0
11362,69.0,1,56,0.0,70.0
11363,69.0,3,58,5.0,66.0
11364,71.0,54,40,4.0,53.0
11365,53.0,2,37,3.0,70.0
11366,53.0,3,40,6.0,62.0
11367,71.0,2,45,5.0,53.0
11368,71.0,2,46,0.0,66.0
11369,62.0,1,54,2.0,85.0
11370,72.0,45,40,4.0,68.0
11371,72.0,4,34,0.0,66.0
11372,72.0,4,43,5.0,64.0
11373,64.0,3,69,2.0,80.0
11374,53.0,55,43,3.0,80.0
11375,69.0,3,286,1.0,89.0
11376,53.0,0,43,6.0,70.0
11377,65.0,2,46,2.0,78.0
11378,67.0,3,44,1.0,82.0
11379,64.0,45,59,2.0,76.0
11380,74.0,2,138,5.0,74.0
11381,74.0,5,143,4.0,74.0
11382,74.0,3,139,0.0,80.0
11383,53.0,1,45,3.0,82.0
11384,69.0,56,47,1.0,85.0
11385,65.0,0,53,2.0,64.0
11386,53.0,10,47,6.0,68.0
11387,65.0,46,45,1.0,80.0
11388,74.0,3,34,0.0,82.0
11389,74.0,9,37,4.0,89.0
11390,74.0,4,33,5.0,82.0
11391,62.0,0,51,2.0,64.0
11392,74.0,3,55,0.0,89.0
11393,74.0,2,57,4.0,87.0
11394,59.0,4,64,2.0,78.0
11395,74.0,9,51,5.0,87.0
11396,52.0,49,110,3.0,76.0
11397,72.0,47,45,0.0,70.0
11398,52.0,2,109,6.0,85.0
11399,72.0,1,48,4.0,80.0
11400,72.0,4,45,5.0,66.0
11401,53.0,47,50,3.0,76.0
11402,53.0,2,47,6.0,82.0
11403,64.0,0,60,2.0,82.0
11404,74.0,3,55,5.0,60.0
11405,74.0,1,58,0.0,80.0
11406,74.0,6,63,4.0,66.0
11407,55.0,37,50,3.0,80.0
11408,71.0,2,42,4.0,68.0
11409,55.0,15,46,6.0,76.0
11410,71.0,3,41,0.0,66.0
11411,71.0,0,50,5.0,64.0
11412,57.0,44,44,3.0,87.0
11413,57.0,8,46,6.0,80.0
11414,67.0,1,287,1.0,82.0
11415,72.0,5,48,0.0,82.0
11416,72.0,1,54,4.0,85.0
11417,72.0,2,51,5.0,66.0
11418,60.0,6,59,2.0,70.0
11419,76.0,51,45,0.0,78.0
11420,64.0,2,48,1.0,91.0
11421,76.0,0,51,4.0,70.0
11422,76.0,6,46,5.0,68.0
11423,53.0,45,46,3.0,74.0
11424,53.0,1,43,6.0,68.0
11425,74.0,2,46,0.0,59.0
11426,65.0,3,58,1.0,76.0
11427,57.0,0,60,2.0,80.0
11428,74.0,2,55,5.0,55.0
11429,74.0,0,60,4.0,54.0
11430,67.0,54,36,1.0,85.0
11431,76.0,1,37,0.0,68.0
11432,76.0,2,43,4.0,66.0
11433,76.0,4,43,5.0,64.0
11434,50.0,49,47,3.0,74.0
11435,50.0,7,48,6.0,80.0
11436,77.0,0,62,0.0,87.0
11437,77.0,2,58,5.0,82.0
11438,77.0,3,62,4.0,85.0
11439,69.0,1,111,1.0,89.0
11440,79.0,2,55,5.0,72.0
11441,79.0,56,57,0.0,72.0
11442,79.0,0,59,4.0,74.0
11443,62.0,0,152,2.0,87.0
11444,55.0,1,40,6.0,80.0
11445,55.0,51,42,3.0,85.0
11446,77.0,1,52,0.0,64.0
11447,77.0,5,57,4.0,66.0
11448,77.0,5,54,5.0,70.0
11449,71.0,0,62,1.0,78.0
11450,64.0,44,45,2.0,82.0
11451,72.0,5,47,1.0,82.0
11452,76.0,2,48,4.0,66.0
11453,76.0,1,49,0.0,62.0
11454,76.0,4,55,5.0,70.0
11455,67.0,27,16,2.0,47.0
11456,74.0,1,47,0.0,76.0
11457,74.0,2,50,4.0,87.0
11458,43.0,0,52,3.0,80.0
11459,74.0,2,49,5.0,70.0
11460,43.0,5,57,6.0,78.0
11461,71.0,0,58,1.0,98.0
11462,72.0,22,47,0.0,63.0
11463,72.0,1,47,4.0,68.0
11464,65.0,51,111,2.0,63.0
11465,72.0,6,53,5.0,58.0
11466,53.0,2,41,3.0,80.0
11467,53.0,2,44,6.0,82.0
11468,74.0,49,59,0.0,63.0
11469,74.0,2,43,1.0,91.0
11470,67.0,3,45,2.0,87.0
11471,74.0,1,59,5.0,63.0
11472,74.0,6,64,4.0,62.0
11473,71.0,42,42,0.0,63.0
11474,71.0,2,43,5.0,60.0
11475,71.0,7,52,4.0,64.0
11476,62.0,7,47,2.0,82.0
11477,52.0,4,48,3.0,85.0
11478,72.0,50,56,0.0,70.0
11479,52.0,2,49,6.0,82.0
11480,72.0,1,61,5.0,66.0
11481,64.0,4,55,2.0,93.0
11482,72.0,1,67,4.0,64.0
11483,67.0,2,111,1.0,82.0
11484,74.0,47,60,0.0,66.0
11485,74.0,3,67,5.0,70.0
11486,74.0,4,79,4.0,68.0
11487,76.0,56,49,0.0,66.0
11488,55.0,2,48,3.0,87.0
11489,55.0,0,49,6.0,85.0
11490,76.0,1,46,5.0,64.0
11491,76.0,3,49,4.0,68.0
11492,72.0,1,55,1.0,85.0
11493,60.0,1,69,2.0,72.0
11494,77.0,0,58,5.0,72.0
11495,74.0,0,61,1.0,82.0
11496,77.0,6,58,4.0,78.0
11497,77.0,51,65,0.0,80.0
11498,76.0,52,50,1.0,68.0
11499,52.0,0,50,3.0,78.0
11500,79.0,0,52,0.0,61.0
11501,79.0,1,56,5.0,57.0
11502,79.0,3,57,4.0,55.0
11503,52.0,8,51,6.0,70.0
11504,72.0,3,66,2.0,85.0
11505,77.0,40,41,1.0,57.0
11506,81.0,6,56,0.0,74.0
11507,81.0,3,61,5.0,72.0
11508,81.0,3,59,4.0,68.0
11509,74.0,50,52,1.0,64.0
11510,48.0,2,51,3.0,72.0
11511,82.0,3,53,0.0,82.0
11512,82.0,4,50,5.0,68.0
11513,67.0,4,53,2.0,87.0
11514,82.0,0,60,4.0,64.0
11515,48.0,3,56,6.0,66.0
11516,76.0,35,43,1.0,78.0
11517,79.0,12,35,0.0,60.0
11518,79.0,2,38,4.0,58.0
11519,79.0,0,44,5.0,58.0
11520,53.0,53,52,3.0,87.0
11521,53.0,4,53,6.0,68.0
11522,60.0,4,59,2.0,70.0
11523,81.0,0,63,5.0,82.0
11524,81.0,0,64,4.0,87.0
11525,81.0,11,66,0.0,82.0
11526,82.0,1,46,0.0,70.0
11527,82.0,48,47,4.0,74.0
11528,82.0,0,53,5.0,59.0
11529,77.0,1,171,1.0,82.0
11530,50.0,0,52,3.0,85.0
11531,81.0,56,67,0.0,76.0
11532,81.0,4,64,4.0,76.0
11533,81.0,2,65,5.0,64.0
11534,65.0,2,63,2.0,76.0
11535,50.0,2,62,6.0,80.0
11536,76.0,5,50,1.0,85.0
11537,79.0,4,56,5.0,66.0
11538,79.0,48,61,4.0,72.0
11539,79.0,1,63,0.0,66.0
11540,52.0,1,44,3.0,85.0
11541,77.0,2,50,5.0,59.0
11542,77.0,52,53,4.0,66.0
11543,77.0,2,48,0.0,68.0
11544,74.0,1,57,1.0,91.0
11545,52.0,2,51,6.0,82.0
11546,67.0,5,53,2.0,85.0
11547,72.0,3,48,1.0,78.0
11548,76.0,40,59,4.0,66.0
11549,76.0,1,57,0.0,59.0
11550,76.0,5,66,5.0,57.0
11551,74.0,50,50,4.0,62.0
11552,71.0,3,48,1.0,70.0
11553,53.0,3,44,3.0,87.0
11554,74.0,4,54,5.0,56.0
11555,74.0,3,50,0.0,56.0
11556,69.0,4,46,2.0,87.0
11557,53.0,5,45,6.0,80.0
11558,69.0,5,40,1.0,89.0
11559,72.0,33,46,4.0,74.0
11560,72.0,3,42,5.0,60.0
11561,72.0,7,45,0.0,66.0
11562,71.0,8,49,5.0,72.0
11563,71.0,8,52,0.0,62.0
11564,76.0,45,62,5.0,60.0
11565,67.0,4,148,1.0,85.0
11566,79.0,6,38,0.0,80.0
11567,74.0,63,53,5.0,70.0
11568,71.0,51,188,4.0,62.0
11569,72.0,57,45,5.0,56.0
11570,55.0,1,246,3.0,74.0
11571,62.0,0,244,2.0,80.0
11572,55.0,1,270,6.0,78.0
11573,71.0,60,45,5.0,70.0
11574,79.0,9,39,0.0,93.0
11575,69.0,40,66,5.0,63.0
11576,71.0,68,50,5.0,63.0
11577,79.0,15,40,0.0,91.0
11578,67.0,45,46,5.0,60.0
11579,76.0,8,103,0.0,93.0
11580,81.0,48,64,4.0,82.0
11581,79.0,60,51,4.0,70.0
11582,77.0,12,47,0.0,82.0
11583,77.0,46,54,4.0,68.0
11584,79.0,10,49,0.0,82.0
11585,76.0,47,50,4.0,63.0
11586,81.0,12,42,0.0,87.0
11587,74.0,42,56,4.0,68.0
11588,76.0,66,58,4.0,53.0
11589,77.0,12,48,0.0,85.0
11590,72.0,50,44,4.0,63.0
11591,74.0,7,45,0.0,80.0
11592,77.0,61,66,4.0,82.0
11593,79.0,52,55,4.0,80.0
11594,79.0,5,43,0.0,87.0
11595,77.0,63,52,4.0,74.0
11596,76.0,55,52,4.0,70.0
11597,72.0,63,723,5.0,63.0
11598,67.0,62,53,0.0,82.0
11599,74.0,2,52,4.0,76.0
11600,72.0,45,53,4.0,76.0
11601,77.0,63,42,0.0,85.0
11602,74.0,1,54,4.0,70.0
11603,71.0,9,198,5.0,68.0
11604,67.0,58,55,4.0,74.0
11605,72.0,5,56,5.0,76.0
11606,76.0,65,62,0.0,87.0
11607,76.0,1,67,4.0,76.0
11608,74.0,50,56,0.0,82.0
11609,74.0,6,65,4.0,68.0
11610,71.0,2,72,5.0,59.0
11611,72.0,55,54,0.0,64.0
11612,72.0,5,44,1.0,80.0
11613,72.0,6,51,4.0,66.0
11614,72.0,1,66,5.0,64.0
11615,74.0,42,52,0.0,72.0
11616,74.0,7,53,4.0,63.0
11617,74.0,11,70,5.0,68.0
11618,76.0,45,46,0.0,82.0
11619,72.0,7,45,1.0,87.0
11620,76.0,0,46,4.0,68.0
11621,76.0,13,46,5.0,76.0
11622,74.0,33,51,0.0,78.0
11623,74.0,9,48,4.0,70.0
11624,74.0,15,53,5.0,66.0
11625,72.0,8,42,1.0,87.0
11626,76.0,39,53,0.0,70.0
11627,76.0,2,54,4.0,61.0
11628,76.0,16,51,5.0,59.0
11629,78.0,27,42,0.0,66.0
11630,78.0,12,45,4.0,55.0
11631,78.0,5,43,5.0,56.0
11632,71.0,49,117,1.0,85.0
11633,79.0,1,117,0.0,85.0
11634,79.0,8,128,4.0,82.0
11635,79.0,4,132,5.0,80.0
11636,72.0,112,45,1.0,68.0
11637,74.0,3,32,0.0,70.0
11638,74.0,49,54,1.0,74.0
11639,74.0,15,39,4.0,68.0
11640,74.0,7,32,5.0,68.0
11641,76.0,0,46,1.0,82.0
11642,79.0,42,120,0.0,89.0
11643,79.0,11,123,4.0,87.0
11644,79.0,12,124,5.0,87.0
11645,72.0,98,47,1.0,82.0
11646,79.0,63,29,0.0,76.0
11647,79.0,3,26,5.0,82.0
11648,79.0,8,32,4.0,82.0
11649,69.0,0,51,1.0,80.0
11650,79.0,48,116,0.0,93.0
11651,79.0,3,114,4.0,89.0
11652,79.0,6,116,5.0,91.0
11653,74.0,110,41,1.0,87.0
11654,78.0,41,38,0.0,74.0
11655,78.0,0,34,4.0,57.0
11656,78.0,9,36,5.0,64.0
11657,76.0,0,42,0.0,72.0
11658,76.0,26,43,4.0,66.0
11659,76.0,9,39,5.0,64.0
11660,78.0,19,23,0.0,58.0
11661,78.0,9,20,5.0,53.0
11662,78.0,2,31,4.0,58.0
11663,79.0,11,35,0.0,72.0
11664,79.0,9,35,5.0,66.0
11665,78.0,12,23,0.0,70.0
11666,62.0,4,57,1.0,82.0
11667,79.0,2,36,4.0,80.0
11668,78.0,3,31,4.0,68.0
11669,78.0,10,34,5.0,64.0
11670,79.0,6,42,0.0,66.0
11671,79.0,6,38,4.0,82.0
11672,79.0,16,52,5.0,72.0
11673,78.0,2,59,0.0,78.0
11674,78.0,15,49,4.0,66.0
11675,78.0,18,51,5.0,66.0
11676,72.0,9,47,1.0,82.0
11677,79.0,49,33,0.0,78.0
11678,79.0,11,34,4.0,68.0
11679,79.0,14,34,5.0,87.0
11680,71.0,3,61,1.0,87.0
11681,79.0,6,95,4.0,87.0
11682,79.0,45,106,0.0,100.0
11683,79.0,11,99,5.0,93.0
11684,69.0,46,56,1.0,80.0
11685,77.0,0,44,4.0,64.0
11686,67.0,1,45,2.0,82.0
11687,77.0,1,49,0.0,68.0
11688,67.0,58,60,1.0,72.0
11689,77.0,10,50,5.0,70.0
11690,76.0,38,43,0.0,66.0
11691,69.0,2,45,1.0,76.0
11692,76.0,9,38,5.0,66.0
11693,76.0,0,51,4.0,66.0
11694,74.0,1,40,4.0,64.0
11695,74.0,46,57,0.0,57.0
11696,71.0,6,56,1.0,98.0
11697,74.0,3,53,5.0,66.0
11698,67.0,8,46,2.0,82.0
11699,71.0,1,52,0.0,57.0
11700,67.0,3,49,1.0,80.0
11701,71.0,40,56,4.0,60.0
11702,71.0,3,54,5.0,66.0
11703,72.0,56,45,0.0,68.0
11704,72.0,3,44,4.0,58.0
11705,67.0,6,38,2.0,80.0
11706,72.0,3,46,5.0,60.0
11707,69.0,3,49,1.0,76.0
11708,74.0,42,34,0.0,72.0
11709,71.0,0,40,1.0,72.0
11710,74.0,1,43,5.0,64.0
11711,74.0,4,46,4.0,74.0
11712,67.0,54,59,0.0,61.0
11713,67.0,5,42,5.0,68.0
11714,67.0,11,59,4.0,61.0
11715,64.0,1,111,2.0,85.0
11716,72.0,1,135,1.0,87.0
11717,79.0,116,43,0.0,82.0
11718,65.0,7,41,2.0,70.0
11719,79.0,1,43,4.0,80.0
11720,79.0,2,43,5.0,80.0
11721,67.0,45,35,1.0,60.0
11722,67.0,1,46,2.0,72.0
11723,69.0,64,42,2.0,89.0
11724,76.0,2,41,0.0,76.0
11725,76.0,3,46,4.0,78.0
11726,76.0,12,42,5.0,68.0
11727,72.0,1,129,1.0,85.0
11728,81.0,101,44,0.0,85.0
11729,65.0,1,50,2.0,78.0
11730,81.0,9,49,4.0,85.0
11731,81.0,2,47,5.0,85.0
11732,72.0,50,33,1.0,82.0
11733,62.0,59,47,2.0,78.0
11734,77.0,3,63,0.0,100.0
11735,77.0,4,60,4.0,95.0
11736,77.0,3,58,5.0,87.0
11737,79.0,50,50,0.0,87.0
11738,79.0,6,44,4.0,82.0
11739,79.0,2,47,5.0,72.0
11740,72.0,4,115,1.0,89.0
11741,67.0,47,42,2.0,82.0
11742,77.0,8,55,0.0,78.0
11743,77.0,4,54,4.0,70.0
11744,77.0,4,53,5.0,60.0
11745,71.0,26,32,1.0,61.0
11746,69.0,3,32,1.0,72.0
11747,76.0,25,48,0.0,70.0
11748,76.0,2,49,5.0,58.0
11749,71.0,24,28,1.0,63.0
11750,76.0,0,58,4.0,66.0
11751,72.0,28,29,1.0,78.0
11752,71.0,11,27,1.0,87.0
11753,55.0,4,56,2.0,85.0
11754,74.0,3,54,0.0,66.0
11755,74.0,3,51,5.0,68.0
11756,74.0,3,58,4.0,70.0
11757,72.0,23,40,1.0,82.0
11758,77.0,19,57,0.0,66.0
11759,77.0,1,58,5.0,72.0
11760,71.0,0,66,1.0,87.0
11761,77.0,4,68,4.0,66.0
11762,65.0,53,43,2.0,80.0
11763,76.0,1,47,0.0,53.0
11764,76.0,7,50,5.0,59.0
11765,76.0,2,57,4.0,59.0
11766,72.0,42,34,1.0,78.0
11767,74.0,6,41,0.0,60.0
11768,74.0,5,37,5.0,66.0
11769,74.0,2,43,4.0,64.0
11770,64.0,2,58,2.0,80.0
11771,79.0,6,60,0.0,98.0
11772,79.0,2,58,5.0,87.0
11773,79.0,5,59,4.0,85.0
11774,72.0,51,96,1.0,89.0
11775,77.0,0,51,0.0,85.0
11776,62.0,4,52,2.0,66.0
11777,77.0,47,57,5.0,80.0
11778,77.0,3,62,4.0,72.0
11779,60.0,1,37,6.0,82.0
11780,67.0,53,47,1.0,80.0
11781,60.0,4,38,3.0,87.0
11782,60.0,2,58,2.0,74.0
11783,76.0,4,62,0.0,66.0
11784,76.0,1,61,5.0,62.0
11785,76.0,2,65,4.0,58.0
11786,65.0,43,42,1.0,78.0
11787,62.0,7,45,2.0,80.0
11788,74.0,1,58,0.0,76.0
11789,74.0,3,61,5.0,61.0
11790,74.0,0,63,4.0,59.0
11791,67.0,51,47,1.0,95.0
11792,72.0,2,45,5.0,66.0
11793,72.0,2,47,0.0,62.0
11794,64.0,0,42,2.0,80.0
11795,72.0,3,41,4.0,59.0
11796,60.0,5,47,6.0,74.0
11797,60.0,2,43,3.0,91.0
11798,71.0,0,45,0.0,59.0
11799,71.0,49,51,5.0,52.0
11800,71.0,5,46,4.0,57.0
11801,62.0,1,57,2.0,80.0
11802,76.0,48,41,1.0,93.0
11803,72.0,1,42,0.0,66.0
11804,72.0,6,43,5.0,57.0
11805,72.0,2,47,4.0,63.0
11806,60.0,3,51,6.0,78.0
11807,60.0,6,44,3.0,91.0
11808,64.0,0,62,2.0,80.0
11809,69.0,40,37,0.0,56.0
11810,69.0,4,41,5.0,58.0
11811,66.0,8,41,2.0,82.0
11812,69.0,1,45,4.0,57.0
11813,67.0,3,51,2.0,85.0
11814,74.0,55,65,1.0,93.0
11815,74.0,3,90,4.0,85.0
11816,74.0,5,94,5.0,74.0
11817,74.0,1,105,0.0,85.0
11818,72.0,43,50,1.0,87.0
11819,59.0,0,103,3.0,85.0
11820,59.0,3,106,6.0,66.0
11821,60.0,0,40,3.0,66.0
11822,76.0,5,41,5.0,66.0
11823,71.0,59,51,1.0,87.0
11824,62.0,0,44,2.0,80.0
11825,60.0,4,42,6.0,78.0
11826,76.0,3,52,4.0,76.0
11827,76.0,1,49,0.0,70.0
11828,62.0,40,45,3.0,80.0
11829,78.0,0,40,5.0,61.0
11830,78.0,5,40,0.0,66.0
11831,69.0,4,50,1.0,87.0
11832,62.0,0,45,6.0,76.0
11833,78.0,0,48,4.0,60.0
11834,64.0,51,46,3.0,95.0
11835,64.0,5,42,6.0,85.0
11836,67.0,2,83,1.0,85.0
11837,79.0,3,87,4.0,87.0
11838,79.0,4,93,5.0,78.0
11839,79.0,0,94,0.0,87.0
11840,67.0,3,135,2.0,87.0
11841,60.0,108,45,3.0,82.0
11842,81.0,2,40,0.0,66.0
11843,81.0,1,40,5.0,72.0
11844,81.0,4,41,4.0,64.0
11845,60.0,3,48,6.0,78.0
11846,76.0,0,63,1.0,91.0
11847,67.0,1,30,2.0,89.0
11848,83.0,0,38,5.0,80.0
11849,83.0,5,40,0.0,87.0
11850,83.0,2,40,4.0,80.0
11851,74.0,45,51,1.0,85.0
11852,76.0,1,37,1.0,95.0
11853,57.0,56,46,3.0,76.0
11854,57.0,0,41,6.0,64.0
11855,67.0,3,105,2.0,95.0
11856,84.0,1,106,0.0,91.0
11857,84.0,3,123,5.0,85.0
11858,84.0,1,127,4.0,87.0
11859,62.0,3,33,6.0,76.0
11860,62.0,113,41,3.0,85.0
11861,69.0,1,59,1.0,76.0
11862,66.0,22,37,2.0,66.0
11863,83.0,19,26,0.0,82.0
11864,83.0,11,20,5.0,57.0
11865,83.0,4,26,4.0,78.0
11866,64.0,3,41,2.0,70.0
11867,66.0,30,27,2.0,66.0
11868,83.0,13,25,0.0,87.0
11869,83.0,10,24,5.0,87.0
11870,83.0,1,24,4.0,85.0
11871,67.0,2,32,2.0,80.0
11872,81.0,2,28,0.0,87.0
11873,50.0,4,44,3.0,85.0
11874,81.0,6,29,5.0,78.0
11875,50.0,3,49,6.0,78.0
11876,81.0,7,31,4.0,64.0
11877,74.0,4,62,1.0,93.0
11878,83.0,10,38,0.0,76.0
11879,83.0,4,43,5.0,57.0
11880,83.0,5,40,4.0,80.0
11881,67.0,10,32,2.0,80.0
11882,72.0,3,51,1.0,85.0
11883,81.0,6,63,5.0,66.0
11884,81.0,3,63,4.0,66.0
11885,81.0,8,75,0.0,80.0
11886,66.0,3,120,2.0,76.0
11887,60.0,41,45,3.0,93.0
11888,60.0,4,45,6.0,78.0
11889,71.0,3,62,1.0,82.0
11890,66.0,0,14,2.0,58.0
11891,79.0,0,35,4.0,63.0
11892,79.0,5,32,5.0,70.0
11893,79.0,49,38,0.0,70.0
11894,72.0,0,44,1.0,91.0
11895,67.0,30,24,2.0,46.0
11896,59.0,34,57,3.0,89.0
11897,59.0,9,57,6.0,80.0
11898,67.0,9,61,2.0,102.0
11899,79.0,0,100,5.0,74.0
11900,79.0,0,105,0.0,95.0
11901,79.0,1,111,4.0,80.0
11902,57.0,35,59,3.0,82.0
11903,69.0,6,49,2.0,66.0
11904,57.0,7,57,6.0,68.0
11905,71.0,1,51,2.0,78.0
11906,77.0,1,51,4.0,68.0
11907,77.0,2,57,0.0,72.0
11908,77.0,7,61,5.0,60.0
11909,55.0,46,70,3.0,70.0
11910,55.0,1,62,6.0,68.0
11911,76.0,2,36,4.0,64.0
11912,72.0,4,49,2.0,87.0
11913,57.0,45,55,3.0,68.0
11914,57.0,1,50,6.0,61.0
11915,76.0,2,52,0.0,68.0
11916,76.0,6,51,5.0,52.0
11917,74.0,0,270,1.0,87.0
11918,74.0,2,54,4.0,60.0
11919,74.0,2,52,2.0,93.0
11920,59.0,50,60,3.0,87.0
11921,74.0,1,57,0.0,80.0
11922,74.0,4,51,5.0,64.0
11923,59.0,2,58,6.0,85.0
11924,76.0,1,41,0.0,66.0
11925,71.0,3,42,1.0,80.0
11926,76.0,5,45,5.0,57.0
11927,76.0,0,50,4.0,64.0
11928,55.0,41,60,3.0,82.0
11929,55.0,6,59,6.0,68.0
11930,72.0,2,40,1.0,87.0
11931,67.0,0,45,2.0,80.0
11932,77.0,2,43,0.0,72.0
11933,57.0,49,49,3.0,74.0
11934,77.0,1,50,4.0,66.0
11935,57.0,1,53,6.0,68.0
11936,77.0,2,51,5.0,59.0
11937,74.0,47,41,0.0,66.0
11938,74.0,1,42,1.0,87.0
11939,74.0,1,46,4.0,61.0
11940,74.0,1,46,5.0,60.0
11941,59.0,1,49,3.0,80.0
11942,59.0,3,53,6.0,66.0
11943,60.0,58,47,3.0,78.0
11944,76.0,4,45,0.0,89.0
11945,76.0,1,44,5.0,80.0
11946,60.0,1,55,6.0,78.0
11947,76.0,1,49,4.0,80.0
11948,72.0,2,51,2.0,95.0
11949,62.0,46,60,6.0,72.0
11950,71.0,11,51,2.0,76.0
11951,62.0,0,63,3.0,87.0
11952,72.0,5,39,0.0,82.0
11953,69.0,5,44,2.0,91.0
11954,60.0,3,50,6.0,66.0
11955,60.0,48,53,3.0,80.0
11956,72.0,4,36,4.0,80.0
11957,72.0,2,44,5.0,68.0
11958,59.0,38,54,3.0,85.0
11959,59.0,2,64,6.0,59.0
11960,67.0,3,61,2.0,82.0
11961,67.0,3,239,1.0,80.0
11962,57.0,53,58,3.0,82.0
11963,57.0,4,55,6.0,63.0
11964,65.0,12,59,2.0,64.0
11965,55.0,27,63,3.0,76.0
11966,76.0,12,51,1.0,80.0
11967,55.0,5,67,6.0,68.0
11968,84.0,0,131,0.0,89.0
11969,84.0,8,145,4.0,72.0
11970,84.0,5,140,5.0,85.0
11971,74.0,5,51,1.0,95.0
11972,53.0,6,60,6.0,52.0
11973,53.0,41,69,3.0,53.0
11974,67.0,10,57,2.0,70.0
11975,72.0,45,46,1.0,82.0
11976,84.0,11,32,0.0,95.0
11977,52.0,4,55,6.0,49.0
11978,84.0,18,26,5.0,76.0
11979,52.0,0,60,3.0,68.0
11980,84.0,1,31,4.0,76.0
11981,69.0,2,48,2.0,85.0
11982,50.0,1,58,3.0,80.0
11983,84.0,4,50,0.0,95.0
11984,50.0,31,65,6.0,78.0
11985,84.0,13,45,5.0,87.0
11986,84.0,5,49,4.0,95.0
11987,82.0,10,42,0.0,72.0
11988,74.0,0,54,2.0,85.0
11989,53.0,32,60,6.0,61.0
11990,82.0,1,42,4.0,78.0
11991,82.0,11,45,5.0,80.0
11992,53.0,1,67,3.0,66.0
11993,77.0,4,141,1.0,91.0
11994,72.0,35,48,2.0,91.0
11995,84.0,2,43,0.0,89.0
11996,84.0,3,38,5.0,87.0
11997,52.0,9,57,6.0,39.0
11998,84.0,10,44,4.0,68.0
11999,52.0,1,63,3.0,55.0
12000,74.0,31,41,2.0,89.0
12001,81.0,8,37,0.0,66.0
12002,77.0,4,37,1.0,91.0
12003,81.0,5,38,5.0,68.0
12004,53.0,1,50,3.0,68.0
12005,53.0,0,50,6.0,63.0
12006,81.0,3,41,4.0,63.0
12007,62.0,50,52,2.0,80.0
12008,55.0,2,57,6.0,72.0
12009,55.0,2,61,3.0,100.0
12010,77.0,1,66,1.0,95.0
12011,81.0,3,49,1.0,87.0
12012,53.0,1,53,3.0,80.0
12013,53.0,49,57,6.0,62.0
12014,82.0,3,128,0.0,87.0
12015,82.0,2,127,5.0,85.0
12016,82.0,3,137,4.0,63.0
12017,79.0,2,44,1.0,85.0
12018,52.0,52,55,6.0,52.0
12019,52.0,4,55,3.0,58.0
12020,82.0,5,29,0.0,68.0
12021,77.0,5,43,1.0,95.0
12022,82.0,6,29,5.0,76.0
12023,82.0,1,29,4.0,66.0
12024,50.0,46,61,6.0,57.0
12025,50.0,3,54,3.0,72.0
12026,67.0,3,156,2.0,87.0
12027,82.0,5,45,0.0,82.0
12028,82.0,0,43,4.0,98.0
12029,82.0,1,42,5.0,85.0
12030,48.0,46,55,3.0,70.0
12031,48.0,3,50,6.0,52.0
12032,72.0,1,46,2.0,76.0
12033,52.0,7,54,6.0,66.0
12034,52.0,47,66,3.0,64.0
12035,70.0,2,39,2.0,100.0
12036,76.0,7,41,0.0,82.0
12037,50.0,2,49,6.0,60.0
12038,76.0,4,42,5.0,66.0
12039,76.0,3,44,4.0,74.0
12040,50.0,55,65,3.0,70.0
12041,72.0,0,39,2.0,87.0
12042,52.0,40,50,3.0,80.0
12043,52.0,2,54,6.0,62.0
12044,76.0,1,267,1.0,98.0
12045,60.0,0,51,2.0,82.0
12046,53.0,6,56,6.0,72.0
12047,53.0,63,62,3.0,89.0
12048,79.0,8,43,1.0,85.0
12049,52.0,4,53,6.0,62.0
12050,52.0,37,60,3.0,82.0
12051,81.0,5,114,0.0,85.0
12052,81.0,0,132,5.0,82.0
12053,77.0,2,35,1.0,89.0
12054,81.0,9,147,4.0,82.0
12055,50.0,49,53,6.0,47.0
12056,50.0,1,53,3.0,58.0
12057,81.0,8,34,0.0,85.0
12058,76.0,4,42,1.0,100.0
12059,81.0,6,34,4.0,74.0
12060,81.0,4,31,5.0,85.0
12061,48.0,44,59,3.0,57.0
12062,48.0,3,60,6.0,51.0
12063,65.0,7,148,2.0,85.0
12064,47.0,40,53,3.0,74.0
12065,81.0,6,52,0.0,91.0
12066,47.0,2,60,6.0,60.0
12067,81.0,9,46,5.0,82.0
12068,81.0,0,49,4.0,93.0
12069,79.0,3,38,0.0,68.0
12070,79.0,1,40,5.0,72.0
12071,71.0,5,52,2.0,85.0
12072,79.0,4,45,4.0,64.0
12073,50.0,1,65,6.0,53.0
12074,50.0,42,68,3.0,59.0
12075,74.0,1,141,1.0,85.0
12076,69.0,49,45,2.0,85.0
12077,81.0,1,49,0.0,80.0
12078,81.0,2,47,5.0,78.0
12079,81.0,2,44,4.0,64.0
12080,48.0,2,55,3.0,53.0
12081,48.0,4,61,6.0,40.0
12082,74.0,41,34,1.0,100.0
12083,77.0,0,34,0.0,66.0
12084,71.0,2,46,2.0,80.0
12085,77.0,2,35,5.0,70.0
12086,77.0,1,45,4.0,66.0
12087,50.0,2,45,3.0,64.0
12088,50.0,6,52,6.0,60.0
12089,59.0,0,49,2.0,70.0
12090,74.0,48,59,1.0,89.0
12091,52.0,2,54,3.0,95.0
12092,52.0,9,61,6.0,78.0
12093,77.0,46,52,1.0,85.0
12094,50.0,3,58,3.0,80.0
12095,79.0,1,113,0.0,70.0
12096,50.0,0,65,6.0,64.0
12097,79.0,0,131,5.0,80.0
12098,79.0,1,134,4.0,72.0
12099,76.0,60,44,1.0,82.0
12100,48.0,1,51,3.0,66.0
12101,48.0,1,60,6.0,57.0
12102,79.0,0,27,0.0,76.0
12103,79.0,5,36,4.0,72.0
12104,79.0,2,35,5.0,68.0
12105,74.0,0,44,1.0,95.0
12106,47.0,52,54,3.0,78.0
12107,47.0,0,64,6.0,59.0
12108,64.0,4,143,2.0,89.0
12109,79.0,3,40,4.0,78.0
12110,79.0,53,44,0.0,89.0
12111,79.0,0,43,5.0,80.0
12112,45.0,1,53,3.0,68.0
12113,45.0,0,57,6.0,62.0
12114,69.0,3,49,2.0,87.0
12115,48.0,1,67,6.0,61.0
12116,48.0,49,68,3.0,68.0
12117,67.0,54,46,2.0,74.0
12118,72.0,3,43,0.0,78.0
12119,72.0,3,47,4.0,68.0
12120,72.0,6,41,5.0,76.0
12121,47.0,7,66,3.0,55.0
12122,47.0,2,72,6.0,52.0
12123,69.0,36,33,2.0,82.0
12124,48.0,5,49,3.0,72.0
12125,48.0,2,53,6.0,62.0
12126,72.0,3,279,1.0,82.0
12127,57.0,1,44,2.0,80.0
12128,50.0,2,59,3.0,89.0
12129,50.0,62,63,6.0,82.0
12130,48.0,0,54,3.0,76.0
12131,48.0,30,56,6.0,72.0
12132,76.0,13,48,1.0,82.0
12133,77.0,1,135,0.0,82.0
12134,77.0,4,141,5.0,80.0
12135,77.0,17,137,4.0,85.0
12136,47.0,44,55,3.0,62.0
12137,74.0,4,43,1.0,85.0
12138,47.0,0,60,6.0,62.0
12139,77.0,5,33,0.0,70.0
12140,72.0,7,44,1.0,89.0
12141,45.0,44,58,6.0,58.0
12142,45.0,0,60,3.0,62.0
12143,77.0,17,33,5.0,72.0
12144,77.0,10,34,4.0,87.0
12145,62.0,11,142,2.0,95.0
12146,77.0,6,52,0.0,85.0
12147,71.0,30,66,1.0,87.0
12148,43.0,1,72,3.0,80.0
12149,77.0,15,55,5.0,85.0
12150,43.0,1,81,6.0,82.0
12151,77.0,5,62,4.0,91.0
12152,81.0,1,41,0.0,80.0
12153,72.0,37,47,2.0,91.0
12154,81.0,14,52,5.0,76.0
12155,81.0,7,47,4.0,87.0
12156,55.0,0,28,6.0,64.0
12157,55.0,5,37,3.0,80.0
12158,79.0,2,47,0.0,78.0
12159,74.0,0,50,1.0,87.0
12160,79.0,7,46,5.0,70.0
12161,71.0,36,67,2.0,74.0
12162,79.0,9,47,4.0,76.0
12163,77.0,36,47,0.0,66.0
12164,69.0,3,57,2.0,82.0
12165,77.0,8,70,5.0,64.0
12166,77.0,5,87,4.0,78.0
12167,55.0,0,42,6.0,78.0
12168,55.0,0,41,3.0,82.0
12169,67.0,1,57,2.0,68.0
12170,76.0,41,60,0.0,63.0
12171,71.0,10,53,1.0,87.0
12172,76.0,1,57,5.0,57.0
12173,76.0,7,56,4.0,66.0
12174,74.0,40,49,0.0,63.0
12175,74.0,5,41,4.0,64.0
12176,65.0,1,62,2.0,80.0
12177,74.0,10,58,5.0,58.0
12178,64.0,1,39,2.0,87.0
12179,72.0,46,49,0.0,56.0
12180,55.0,3,43,6.0,76.0
12181,55.0,2,45,3.0,80.0
12182,67.0,1,53,1.0,85.0
12183,72.0,3,64,5.0,54.0
12184,72.0,2,66,4.0,66.0
12185,62.0,43,26,2.0,66.0
12186,71.0,1,42,0.0,64.0
12187,71.0,6,52,5.0,49.0
12188,71.0,4,50,4.0,61.0
12189,72.0,2,51,5.0,70.0
12190,72.0,59,55,0.0,63.0
12191,72.0,3,58,4.0,68.0
12192,76.0,3,41,0.0,68.0
12193,76.0,44,53,5.0,52.0
12194,52.0,2,112,3.0,89.0
12195,76.0,4,52,4.0,53.0
12196,52.0,3,107,6.0,87.0
12197,67.0,3,108,2.0,82.0
12198,69.0,4,41,2.0,80.0
12199,53.0,6,47,6.0,72.0
12200,53.0,0,57,3.0,78.0
12201,81.0,3,56,5.0,82.0
12202,81.0,0,57,4.0,78.0
12203,81.0,58,61,0.0,85.0
12204,72.0,3,175,1.0,89.0
12205,71.0,0,35,2.0,80.0
12206,79.0,6,44,0.0,74.0
12207,55.0,39,51,3.0,82.0
12208,55.0,0,50,6.0,74.0
12209,79.0,1,51,4.0,76.0
12210,79.0,4,48,5.0,66.0
12211,57.0,50,40,3.0,85.0
12212,72.0,3,38,2.0,98.0
12213,57.0,0,45,6.0,72.0
12214,77.0,1,55,0.0,82.0
12215,77.0,7,65,4.0,60.0
12216,77.0,2,68,5.0,60.0
12217,60.0,36,63,1.0,89.0
12218,76.0,2,59,0.0,64.0
12219,76.0,1,59,5.0,60.0
12220,76.0,17,62,4.0,60.0
12221,53.0,0,48,3.0,85.0
12222,53.0,10,50,6.0,78.0
12223,62.0,44,64,1.0,80.0
12224,57.0,4,52,2.0,85.0
12225,74.0,3,49,5.0,64.0
12226,74.0,4,57,0.0,66.0
12227,74.0,0,56,4.0,62.0
12228,72.0,6,38,0.0,60.0
12229,64.0,39,49,1.0,82.0
12230,72.0,7,31,5.0,47.0
12231,72.0,6,47,4.0,53.0
12232,50.0,1,48,3.0,85.0
12233,65.0,51,52,1.0,91.0
12234,50.0,0,53,6.0,64.0
12235,71.0,2,68,0.0,68.0
12236,71.0,4,65,4.0,85.0
12237,71.0,3,66,5.0,74.0
12238,62.0,5,61,2.0,100.0
12239,62.0,45,53,1.0,85.0
12240,69.0,2,51,0.0,60.0
12241,69.0,3,44,4.0,63.0
12242,60.0,2,48,2.0,72.0
12243,69.0,3,58,5.0,61.0
12244,55.0,0,41,3.0,85.0
12245,55.0,49,47,6.0,80.0
12246,67.0,0,50,4.0,58.0
12247,67.0,2,49,0.0,57.0
12248,64.0,4,60,1.0,82.0
12249,67.0,4,53,5.0,60.0
12250,59.0,1,64,2.0,85.0
12251,69.0,4,39,0.0,61.0
12252,65.0,3,45,1.0,82.0
12253,69.0,1,45,4.0,64.0
12254,69.0,0,50,5.0,63.0
12255,57.0,48,58,2.0,80.0
12256,43.0,4,46,3.0,89.0
12257,55.0,50,53,2.0,68.0
12258,71.0,1,44,4.0,82.0
12259,43.0,1,50,6.0,61.0
12260,71.0,2,51,0.0,85.0
12261,71.0,4,53,5.0,78.0
12262,69.0,5,45,0.0,64.0
12263,53.0,44,58,2.0,89.0
12264,69.0,0,54,4.0,53.0
12265,69.0,0,55,5.0,58.0
12266,67.0,4,130,1.0,87.0
12267,52.0,48,45,2.0,85.0
12268,53.0,7,47,3.0,85.0
12269,71.0,4,43,0.0,80.0
12270,71.0,2,44,5.0,64.0
12271,71.0,0,45,4.0,58.0
12272,53.0,2,49,6.0,78.0
12273,67.0,0,36,1.0,87.0
12274,67.0,11,41,0.0,63.0
12275,67.0,2,41,5.0,63.0
12276,67.0,6,38,4.0,56.0
12277,50.0,41,58,2.0,62.0
12278,52.0,55,47,3.0,89.0
12279,67.0,1,52,1.0,89.0
12280,52.0,2,47,6.0,72.0
12281,48.0,0,67,2.0,70.0
12282,65.0,48,45,1.0,70.0
12283,72.0,0,119,0.0,85.0
12284,72.0,0,142,5.0,78.0
12285,72.0,5,140,4.0,78.0
12286,48.0,4,43,6.0,60.0
12287,48.0,1,52,3.0,82.0
12288,64.0,62,54,1.0,89.0
12289,55.0,9,45,2.0,82.0
12290,74.0,35,28,0.0,74.0
12291,65.0,2,32,1.0,80.0
12292,74.0,15,26,5.0,66.0
12293,74.0,1,27,4.0,70.0
12294,72.0,48,30,0.0,95.0
12295,64.0,2,31,1.0,98.0
12296,55.0,1,34,3.0,95.0
12297,72.0,0,27,4.0,91.0
12298,72.0,9,28,5.0,82.0
12299,55.0,4,40,6.0,85.0
12300,71.0,8,28,0.0,66.0
12301,62.0,4,28,1.0,80.0
12302,71.0,8,29,5.0,80.0
12303,71.0,3,28,4.0,82.0
12304,55.0,4,52,2.0,87.0
12305,72.0,8,33,0.0,66.0
12306,64.0,3,38,1.0,76.0
12307,72.0,12,40,4.0,78.0
12308,72.0,2,41,5.0,76.0
12309,71.0,9,52,0.0,74.0
12310,62.0,5,53,1.0,82.0
12311,71.0,15,53,4.0,72.0
12312,71.0,1,52,5.0,66.0
12313,43.0,1,45,3.0,82.0
12314,43.0,29,59,6.0,70.0
12315,55.0,12,46,2.0,87.0
12316,72.0,39,33,0.0,78.0
12317,72.0,3,29,5.0,76.0
12318,64.0,3,36,1.0,74.0
12319,72.0,8,34,4.0,78.0
12320,64.0,1,66,1.0,95.0
12321,72.0,54,68,0.0,95.0
12322,77.0,50,45,0.0,76.0
12323,72.0,0,99,4.0,85.0
12324,69.0,7,47,1.0,91.0
12325,67.0,7,36,1.0,70.0
12326,76.0,52,45,0.0,82.0
12327,79.0,8,39,4.0,85.0
12328,65.0,4,48,1.0,78.0
12329,74.0,44,57,0.0,68.0
12330,72.0,1,241,5.0,72.0
12331,55.0,6,244,2.0,80.0
12332,48.0,1,249,6.0,66.0
12333,48.0,0,260,3.0,89.0
12334,72.0,56,53,0.0,68.0
12335,64.0,9,47,1.0,78.0
12336,79.0,12,46,4.0,80.0
12337,70.0,0,42,0.0,54.0
12338,62.0,40,59,1.0,70.0
12339,64.0,56,43,1.0,64.0
12340,72.0,6,50,0.0,66.0
12341,79.0,17,36,4.0,82.0
12342,69.0,3,43,0.0,56.0
12343,60.0,35,51,1.0,61.0
12344,58.0,50,45,6.0,68.0
12345,76.0,9,113,4.0,76.0
12346,70.0,7,158,0.0,59.0
12347,67.0,59,168,1.0,68.0
12348,57.0,59,55,6.0,70.0
12349,77.0,16,47,4.0,68.0
12350,79.0,2,46,4.0,70.0
12351,55.0,46,54,6.0,64.0
12352,81.0,1,36,4.0,87.0
12353,53.0,62,41,6.0,64.0
12354,52.0,48,45,6.0,58.0
12355,77.0,10,37,4.0,82.0
12356,53.0,60,59,6.0,62.0
12357,50.0,48,48,6.0,58.0
12358,74.0,4,38,4.0,78.0
12359,55.0,66,48,6.0,80.0
12360,53.0,56,46,6.0,60.0
12361,79.0,4,37,4.0,85.0
12362,55.0,58,47,6.0,64.0
12363,57.0,57,47,6.0,70.0
12364,72.0,6,476,5.0,66.0
12365,67.0,61,40,4.0,72.0
12366,55.0,1,40,6.0,78.0
12367,53.0,48,38,6.0,68.0
12368,52.0,58,47,6.0,64.0
12369,77.0,12,38,4.0,82.0
12370,50.0,43,44,6.0,70.0
12371,71.0,8,231,5.0,62.0
12372,72.0,13,91,5.0,44.0
12373,59.0,41,62,2.0,68.0
12374,59.0,4,58,0.0,82.0
12375,59.0,5,61,1.0,82.0
12376,60.0,5,53,0.0,66.0
12377,60.0,52,58,2.0,55.0
12378,60.0,5,55,1.0,78.0
12379,79.0,8,49,5.0,62.0
12380,62.0,38,56,2.0,66.0
12381,62.0,7,50,0.0,70.0
12382,62.0,4,52,1.0,68.0
12383,76.0,2,240,4.0,68.0
12384,48.0,67,267,6.0,59.0
12385,64.0,2,43,0.0,80.0
12386,64.0,57,45,2.0,70.0
12387,64.0,4,45,1.0,78.0
12388,79.0,11,41,5.0,85.0
12389,62.0,3,64,2.0,66.0
12390,62.0,2,64,1.0,68.0
12391,62.0,34,71,0.0,64.0
12392,79.0,9,40,5.0,85.0
12393,64.0,4,57,2.0,59.0
12394,64.0,62,64,0.0,66.0
12395,64.0,5,57,1.0,64.0
12396,65.0,46,51,0.0,72.0
12397,65.0,4,51,2.0,55.0
12398,65.0,3,51,1.0,61.0
12399,67.0,58,60,0.0,74.0
12400,67.0,2,57,1.0,68.0
12401,67.0,6,64,2.0,68.0
12402,70.0,1,53,1.0,70.0
12403,70.0,50,59,0.0,68.0
12404,70.0,4,61,2.0,57.0
12405,76.0,1,127,5.0,78.0
12406,69.0,52,58,0.0,68.0
12407,69.0,2,50,2.0,70.0
12408,69.0,8,56,1.0,80.0
12409,77.0,8,49,5.0,78.0
12410,67.0,1,47,2.0,62.0
12411,67.0,41,56,0.0,63.0
12412,79.0,6,50,5.0,72.0
12413,67.0,1,49,1.0,60.0
12414,81.0,3,38,5.0,72.0
12415,65.0,54,49,0.0,66.0
12416,65.0,1,51,2.0,63.0
12417,65.0,2,51,1.0,63.0
12418,64.0,48,51,0.0,60.0
12419,64.0,4,49,2.0,57.0
12420,64.0,1,49,1.0,51.0
12421,65.0,54,52,0.0,68.0
12422,65.0,9,45,1.0,58.0
12423,77.0,4,43,5.0,76.0
12424,65.0,0,58,2.0,57.0
12425,62.0,7,39,2.0,58.0
12426,62.0,40,51,0.0,76.0
12427,62.0,2,47,1.0,60.0
12428,67.0,56,49,0.0,87.0
12429,67.0,6,48,1.0,80.0
12430,67.0,1,52,2.0,70.0
12431,74.0,12,42,5.0,66.0
12432,65.0,38,49,0.0,85.0
12433,65.0,7,44,1.0,70.0
12434,65.0,1,48,2.0,40.0
12435,67.0,52,53,0.0,78.0
12436,79.0,9,36,5.0,76.0
12437,67.0,5,53,1.0,66.0
12438,67.0,6,58,2.0,63.0
12439,69.0,1,46,0.0,74.0
12440,69.0,45,52,1.0,66.0
12441,72.0,1,468,4.0,56.0
12442,69.0,9,51,2.0,63.0
12443,67.0,51,45,0.0,76.0
12444,67.0,2,53,1.0,70.0
12445,67.0,3,48,2.0,62.0
12446,67.0,5,46,5.0,62.0
12447,65.0,47,44,0.0,68.0
12448,65.0,1,49,1.0,64.0
12449,65.0,2,48,2.0,60.0
12450,64.0,56,51,0.0,70.0
12451,64.0,4,48,1.0,59.0
12452,77.0,11,34,5.0,76.0
12453,64.0,3,46,2.0,62.0
12454,71.0,3,203,4.0,59.0
12455,62.0,39,38,0.0,78.0
12456,62.0,7,41,1.0,68.0
12457,62.0,2,54,2.0,66.0
12458,60.0,58,60,0.0,89.0
12459,76.0,6,52,5.0,72.0
12460,60.0,5,71,1.0,80.0
12461,72.0,8,58,4.0,64.0
12462,76.0,3,49,0.0,66.0
12463,79.0,53,57,5.0,66.0
12464,79.0,0,59,4.0,78.0
12465,60.0,49,43,3.0,76.0
12466,60.0,0,40,6.0,70.0
12467,76.0,3,53,1.0,85.0
12468,77.0,3,51,0.0,68.0
12469,77.0,0,46,5.0,50.0
12470,77.0,6,57,4.0,51.0
12471,79.0,46,43,0.0,80.0
12472,79.0,4,46,5.0,53.0
12473,79.0,0,52,4.0,66.0
12474,60.0,1,258,2.0,68.0
12475,60.0,54,44,3.0,78.0
12476,60.0,1,44,6.0,74.0
12477,72.0,5,45,1.0,82.0
12478,81.0,1,57,4.0,80.0
12479,81.0,0,54,5.0,74.0
12480,81.0,3,58,0.0,95.0
12481,79.0,3,55,5.0,61.0
12482,79.0,4,53,0.0,80.0
12483,79.0,45,61,4.0,70.0
12484,60.0,5,41,3.0,80.0
12485,60.0,1,41,6.0,78.0
12486,64.0,2,41,2.0,82.0
12487,77.0,54,55,4.0,57.0
12488,77.0,3,49,0.0,68.0
12489,77.0,2,49,5.0,53.0
12490,76.0,6,40,0.0,68.0
12491,76.0,4,44,5.0,49.0
12492,76.0,40,59,4.0,48.0
12493,74.0,0,44,0.0,68.0
12494,65.0,5,49,2.0,64.0
12495,74.0,0,59,5.0,72.0
12496,74.0,56,71,4.0,82.0
12497,69.0,3,211,1.0,72.0
12498,77.0,45,58,0.0,66.0
12499,59.0,1,108,3.0,80.0
12500,77.0,5,52,5.0,62.0
12501,59.0,3,114,6.0,78.0
12502,77.0,5,60,4.0,66.0
12503,62.0,5,43,2.0,87.0
12504,76.0,50,54,0.0,62.0
12505,67.0,5,38,1.0,87.0
12506,76.0,0,46,5.0,46.0
12507,60.0,5,50,3.0,76.0
12508,76.0,2,56,4.0,41.0
12509,60.0,2,51,6.0,78.0
12510,77.0,0,45,0.0,82.0
12511,62.0,3,45,3.0,72.0
12512,62.0,37,51,6.0,72.0
12513,65.0,1,48,1.0,80.0
12514,77.0,7,50,5.0,57.0
12515,77.0,1,54,4.0,58.0
12516,64.0,49,41,6.0,80.0
12517,64.0,1,45,3.0,87.0
12518,79.0,6,50,5.0,68.0
12519,64.0,1,46,1.0,85.0
12520,79.0,2,61,0.0,91.0
12521,79.0,1,55,4.0,72.0
12522,77.0,47,47,0.0,78.0
12523,77.0,2,58,5.0,60.0
12524,77.0,3,60,4.0,64.0
12525,59.0,3,116,2.0,85.0
12526,60.0,0,42,6.0,80.0
12527,60.0,1,43,3.0,82.0
12528,67.0,2,41,1.0,87.0
12529,76.0,58,49,0.0,72.0
12530,60.0,3,44,2.0,76.0
12531,76.0,3,57,5.0,59.0
12532,76.0,1,60,4.0,58.0
12533,62.0,0,39,2.0,80.0
12534,74.0,48,50,0.0,66.0
12535,74.0,6,48,5.0,57.0
12536,74.0,3,53,4.0,57.0
12537,72.0,52,48,0.0,80.0
12538,57.0,0,43,6.0,72.0
12539,72.0,6,46,5.0,63.0
12540,57.0,3,54,3.0,72.0
12541,64.0,1,52,2.0,82.0
12542,72.0,1,60,4.0,76.0
12543,76.0,41,46,0.0,66.0
12544,67.0,0,56,2.0,82.0
12545,76.0,1,59,4.0,68.0
12546,76.0,13,60,5.0,64.0
12547,62.0,46,45,3.0,80.0
12548,74.0,3,45,0.0,78.0
12549,62.0,7,44,6.0,89.0
12550,65.0,0,57,2.0,63.0
12551,74.0,1,61,5.0,44.0
12552,74.0,2,65,4.0,48.0
12553,76.0,45,47,0.0,85.0
12554,76.0,11,48,5.0,61.0
12555,64.0,1,49,2.0,72.0
12556,76.0,2,51,4.0,59.0
12557,69.0,2,255,1.0,82.0
12558,62.0,3,45,2.0,80.0
12559,50.0,48,60,3.0,85.0
12560,50.0,0,49,6.0,82.0
12561,60.0,44,49,2.0,64.0
12562,69.0,4,52,1.0,80.0
12563,77.0,11,132,5.0,70.0
12564,77.0,1,145,0.0,82.0
12565,77.0,2,146,4.0,74.0
12566,59.0,55,46,2.0,60.0
12567,71.0,2,48,1.0,82.0
12568,60.0,6,51,3.0,80.0
12569,60.0,6,46,6.0,82.0
12570,77.0,5,34,0.0,91.0
12571,57.0,42,44,2.0,87.0
12572,72.0,5,45,1.0,80.0
12573,77.0,9,31,5.0,78.0
12574,77.0,9,32,4.0,82.0
12575,74.0,3,49,1.0,87.0
12576,59.0,0,52,3.0,82.0
12577,59.0,3,48,6.0,80.0
12578,77.0,5,53,0.0,98.0
12579,77.0,0,54,5.0,74.0
12580,77.0,11,51,4.0,89.0
12581,72.0,0,44,1.0,80.0
12582,76.0,39,47,0.0,78.0
12583,76.0,4,55,5.0,58.0
12584,76.0,5,53,4.0,59.0
12585,55.0,41,132,2.0,82.0
12586,77.0,2,40,0.0,82.0
12587,74.0,2,44,1.0,87.0
12588,55.0,48,50,3.0,63.0
12589,55.0,3,42,6.0,68.0
12590,77.0,1,50,5.0,60.0
12591,77.0,1,55,4.0,68.0
12592,74.0,33,46,0.0,74.0
12593,71.0,3,43,1.0,78.0
12594,74.0,3,48,4.0,64.0
12595,74.0,3,54,5.0,64.0
12596,60.0,0,37,6.0,82.0
12597,60.0,54,41,3.0,89.0
12598,76.0,4,53,0.0,93.0
12599,67.0,16,158,2.0,85.0
12600,76.0,0,53,5.0,66.0
12601,76.0,1,57,4.0,80.0
12602,79.0,53,48,0.0,82.0
12603,79.0,1,61,4.0,64.0
12604,79.0,7,55,5.0,60.0
12605,64.0,7,56,2.0,78.0
12606,77.0,3,44,0.0,78.0
12607,48.0,0,42,6.0,85.0
12608,48.0,43,54,3.0,85.0
12609,77.0,0,56,4.0,56.0
12610,77.0,6,59,5.0,41.0
12611,62.0,4,63,2.0,63.0
12612,79.0,3,46,0.0,87.0
12613,79.0,4,53,5.0,60.0
12614,79.0,44,60,4.0,72.0
12615,64.0,5,60,2.0,80.0
12616,72.0,4,265,1.0,89.0
12617,53.0,1,49,6.0,82.0
12618,53.0,51,55,3.0,85.0
12619,72.0,50,51,1.0,78.0
12620,57.0,2,54,6.0,80.0
12621,57.0,0,59,3.0,80.0
12622,70.0,54,46,1.0,72.0
12623,55.0,2,52,3.0,51.0
12624,55.0,7,56,6.0,60.0
12625,72.0,46,48,1.0,87.0
12626,57.0,3,56,6.0,74.0
12627,65.0,2,228,2.0,74.0
12628,57.0,6,59,3.0,66.0
12629,81.0,3,276,0.0,78.0
12630,81.0,5,278,5.0,66.0
12631,58.0,58,57,6.0,80.0
12632,58.0,2,57,3.0,74.0
12633,81.0,1,300,4.0,80.0
12634,74.0,5,48,0.0,87.0
12635,65.0,1,54,2.0,64.0
12636,57.0,2,58,6.0,72.0
12637,57.0,53,64,3.0,63.0
12638,74.0,4,60,5.0,64.0
12639,74.0,18,51,4.0,78.0
12640,76.0,4,39,0.0,72.0
12641,67.0,33,59,2.0,78.0
12642,55.0,0,57,3.0,60.0
12643,55.0,2,58,6.0,57.0
12644,76.0,1,54,5.0,68.0
12645,76.0,13,53,4.0,64.0
12646,77.0,39,39,0.0,87.0
12647,53.0,1,43,3.0,68.0
12648,69.0,1,45,2.0,82.0
12649,53.0,0,43,6.0,58.0
12650,77.0,3,51,5.0,63.0
12651,77.0,12,56,4.0,66.0
12652,67.0,2,35,2.0,85.0
12653,74.0,1,276,1.0,80.0
12654,52.0,45,45,3.0,72.0
12655,52.0,0,45,6.0,64.0
12656,76.0,5,45,1.0,82.0
12657,67.0,0,51,2.0,85.0
12658,55.0,1,62,6.0,61.0
12659,55.0,34,63,3.0,59.0
12660,74.0,2,37,1.0,80.0
12661,69.0,53,47,2.0,74.0
12662,53.0,4,65,3.0,53.0
12663,53.0,3,64,6.0,56.0
12664,76.0,2,38,1.0,76.0
12665,70.0,49,47,2.0,74.0
12666,55.0,2,47,3.0,70.0
12667,55.0,4,46,6.0,72.0
12668,79.0,0,277,0.0,82.0
12669,79.0,11,265,4.0,68.0
12670,57.0,1,50,3.0,85.0
12671,64.0,7,53,2.0,82.0
12672,79.0,9,286,5.0,76.0
12673,57.0,2,60,6.0,85.0
12674,55.0,56,49,3.0,66.0
12675,55.0,0,58,6.0,64.0
12676,72.0,4,59,0.0,74.0
12677,72.0,8,58,5.0,70.0
12678,72.0,3,59,4.0,70.0
12679,74.0,1,45,0.0,82.0
12680,53.0,2,46,3.0,57.0
12681,53.0,1,48,6.0,60.0
12682,74.0,5,62,5.0,63.0
12683,74.0,1,61,4.0,68.0
12684,76.0,47,42,0.0,87.0
12685,52.0,2,41,3.0,64.0
12686,52.0,1,40,6.0,57.0
12687,76.0,2,51,4.0,66.0
12688,76.0,8,53,5.0,60.0
12689,69.0,46,162,2.0,89.0
12690,77.0,52,50,0.0,98.0
12691,77.0,1,59,5.0,72.0
12692,77.0,1,61,4.0,82.0
12693,72.0,54,342,1.0,82.0
12694,76.0,0,44,0.0,87.0
12695,67.0,45,53,2.0,87.0
12696,50.0,10,103,6.0,78.0
12697,50.0,1,114,3.0,80.0
12698,76.0,11,56,5.0,60.0
12699,76.0,2,56,4.0,70.0
12700,65.0,45,40,2.0,82.0
12701,71.0,7,48,1.0,89.0
12702,74.0,0,57,0.0,85.0
12703,52.0,0,45,6.0,70.0
12704,52.0,8,46,3.0,80.0
12705,74.0,2,56,5.0,52.0
12706,74.0,1,65,4.0,58.0
12707,72.0,4,36,0.0,64.0
12708,64.0,35,47,2.0,95.0
12709,53.0,3,36,6.0,66.0
12710,69.0,5,46,1.0,82.0
12711,53.0,0,42,3.0,70.0
12712,72.0,4,42,5.0,57.0
12713,72.0,3,50,4.0,66.0
12714,62.0,46,54,2.0,85.0
12715,55.0,6,43,6.0,87.0
12716,67.0,3,50,1.0,82.0
12717,55.0,3,45,3.0,85.0
12718,71.0,3,60,0.0,82.0
12719,71.0,1,51,4.0,58.0
12720,71.0,2,54,5.0,58.0
12721,74.0,44,56,0.0,80.0
12722,74.0,9,61,4.0,66.0
12723,74.0,3,59,5.0,59.0
12724,67.0,50,38,2.0,87.0
12725,43.0,3,41,6.0,82.0
12726,43.0,1,42,3.0,87.0
12727,71.0,0,45,1.0,85.0
12728,76.0,1,59,0.0,70.0
12729,76.0,2,67,4.0,63.0
12730,76.0,6,76,5.0,63.0
12731,77.0,45,43,0.0,78.0
12732,77.0,0,41,4.0,66.0
12733,77.0,11,45,5.0,63.0
12734,76.0,49,51,0.0,89.0
12735,76.0,2,57,4.0,78.0
12736,76.0,3,57,5.0,66.0
12737,48.0,1,61,3.0,91.0
12738,48.0,3,61,6.0,85.0
12739,79.0,41,52,0.0,74.0
12740,79.0,3,58,5.0,63.0
12741,79.0,7,62,4.0,60.0
12742,55.0,10,50,3.0,80.0
12743,55.0,4,47,6.0,80.0
12744,72.0,1,145,1.0,95.0
12745,77.0,37,53,0.0,57.0
12746,57.0,11,47,3.0,74.0
12747,57.0,0,50,6.0,70.0
12748,77.0,0,57,4.0,57.0
12749,67.0,7,185,2.0,93.0
12750,77.0,5,59,5.0,41.0
12751,79.0,45,46,0.0,70.0
12752,59.0,3,42,3.0,85.0
12753,59.0,0,46,6.0,85.0
12754,74.0,2,50,1.0,85.0
12755,79.0,1,49,4.0,63.0
12756,79.0,4,48,5.0,58.0
12757,72.0,53,39,1.0,74.0
12758,81.0,2,60,4.0,64.0
12759,81.0,1,65,0.0,89.0
12760,81.0,6,60,5.0,70.0
12761,71.0,41,42,1.0,87.0
12762,79.0,7,54,0.0,74.0
12763,79.0,0,61,4.0,64.0
12764,79.0,5,56,5.0,59.0
12765,60.0,1,130,6.0,85.0
12766,64.0,1,130,2.0,95.0
12767,60.0,4,141,3.0,80.0
12768,69.0,48,43,1.0,85.0
12769,77.0,6,58,0.0,72.0
12770,77.0,1,62,4.0,53.0
12771,77.0,5,63,5.0,53.0
12772,67.0,41,35,1.0,87.0
12773,60.0,3,30,6.0,91.0
12774,60.0,1,34,3.0,80.0
12775,64.0,7,52,2.0,78.0
12776,76.0,5,48,4.0,55.0
12777,76.0,3,50,0.0,72.0
12778,76.0,5,54,5.0,56.0
12779,69.0,1,50,2.0,95.0
12780,60.0,5,50,3.0,89.0
12781,74.0,4,61,0.0,89.0
12782,60.0,2,56,6.0,91.0
12783,74.0,0,69,4.0,80.0
12784,74.0,3,56,5.0,70.0
12785,59.0,0,45,3.0,80.0
12786,59.0,5,51,6.0,82.0
12787,77.0,46,56,0.0,70.0
12788,77.0,5,57,5.0,62.0
12789,77.0,0,67,4.0,63.0
12790,65.0,49,135,1.0,89.0
12791,60.0,50,44,3.0,82.0
12792,76.0,4,47,0.0,57.0
12793,60.0,0,46,6.0,78.0
12794,57.0,0,57,2.0,87.0
12795,76.0,7,55,5.0,49.0
12796,76.0,2,64,4.0,49.0
12797,72.0,42,44,1.0,78.0
12798,57.0,2,46,3.0,68.0
12799,77.0,0,43,0.0,78.0
12800,57.0,5,46,6.0,66.0
12801,77.0,3,49,5.0,59.0
12802,77.0,4,59,4.0,59.0
12803,79.0,1,58,0.0,95.0
12804,79.0,0,55,5.0,66.0
12805,79.0,1,62,4.0,68.0
12806,71.0,0,72,1.0,85.0
12807,69.0,1,39,1.0,78.0
12808,77.0,1,48,0.0,85.0
12809,77.0,3,59,5.0,60.0
12810,77.0,52,67,4.0,66.0
12811,59.0,54,145,3.0,87.0
12812,62.0,3,143,2.0,85.0
12813,59.0,2,147,6.0,89.0
12814,67.0,51,47,1.0,98.0
12815,76.0,6,52,0.0,78.0
12816,76.0,3,56,5.0,58.0
12817,76.0,2,62,4.0,60.0
12818,65.0,43,42,1.0,78.0
12819,59.0,3,30,3.0,87.0
12820,59.0,3,35,6.0,91.0
12821,74.0,1,46,0.0,85.0
12822,74.0,2,45,4.0,58.0
12823,62.0,11,50,2.0,89.0
12824,74.0,1,53,5.0,58.0
12825,59.0,0,36,3.0,91.0
12826,72.0,1,50,0.0,82.0
12827,67.0,2,53,2.0,98.0
12828,72.0,4,51,5.0,59.0
12829,59.0,8,43,6.0,87.0
12830,72.0,1,62,4.0,78.0
12831,76.0,41,59,0.0,66.0
12832,76.0,5,63,5.0,63.0
12833,76.0,4,65,4.0,68.0
12834,64.0,47,138,1.0,85.0
12835,55.0,2,48,2.0,91.0
12836,52.0,5,45,3.0,82.0
12837,52.0,0,46,6.0,89.0
12838,74.0,0,60,0.0,53.0
12839,74.0,55,66,5.0,45.0
12840,74.0,1,61,4.0,52.0
12841,71.0,47,35,1.0,82.0
12842,76.0,7,42,0.0,76.0
12843,76.0,2,53,5.0,53.0
12844,76.0,5,56,4.0,55.0
12845,77.0,0,55,5.0,57.0
12846,69.0,1,56,1.0,100.0
12847,77.0,5,58,4.0,61.0
12848,77.0,3,65,0.0,87.0
12849,67.0,45,44,1.0,80.0
12850,76.0,4,53,0.0,72.0
12851,76.0,1,61,5.0,60.0
12852,76.0,3,56,4.0,66.0
12853,57.0,3,135,3.0,80.0
12854,57.0,3,135,6.0,85.0
12855,60.0,48,152,2.0,78.0
12856,65.0,53,45,1.0,87.0
12857,74.0,5,50,4.0,47.0
12858,74.0,0,56,0.0,64.0
12859,74.0,6,61,5.0,51.0
12860,57.0,3,31,3.0,85.0
12861,57.0,1,30,6.0,82.0
12862,64.0,44,41,1.0,72.0
12863,60.0,6,39,2.0,87.0
12864,72.0,3,45,5.0,52.0
12865,72.0,1,48,0.0,68.0
12866,72.0,1,54,4.0,46.0
12867,65.0,0,47,2.0,87.0
12868,57.0,0,49,3.0,85.0
12869,71.0,16,55,0.0,80.0
12870,57.0,4,50,6.0,91.0
12871,71.0,2,57,5.0,68.0
12872,71.0,2,69,4.0,76.0
12873,55.0,44,44,3.0,68.0
12874,55.0,5,49,6.0,64.0
12875,74.0,4,61,0.0,68.0
12876,74.0,2,60,5.0,64.0
12877,74.0,0,64,4.0,68.0
12878,62.0,39,153,1.0,68.0
12879,57.0,47,41,3.0,80.0
12880,57.0,7,44,6.0,74.0
12881,53.0,1,49,2.0,76.0
12882,72.0,5,57,0.0,62.0
12883,72.0,4,56,4.0,44.0
12884,72.0,1,58,5.0,33.0
12885,53.0,37,43,3.0,70.0
12886,53.0,8,45,6.0,68.0
12887,69.0,1,34,1.0,89.0
12888,74.0,8,47,0.0,76.0
12889,74.0,4,56,4.0,57.0
12890,74.0,0,56,5.0,53.0
12891,67.0,4,35,1.0,91.0
12892,76.0,0,59,4.0,63.0
12893,76.0,1,59,0.0,82.0
12894,76.0,1,62,5.0,55.0
12895,65.0,1,44,1.0,98.0
12896,74.0,1,54,0.0,72.0
12897,74.0,48,61,4.0,64.0
12898,74.0,5,59,5.0,58.0
12899,55.0,44,142,3.0,68.0
12900,55.0,1,139,6.0,72.0
12901,59.0,10,154,2.0,85.0
12902,64.0,52,41,1.0,95.0
12903,72.0,2,52,0.0,64.0
12904,72.0,4,54,4.0,58.0
12905,72.0,3,57,5.0,55.0
12906,55.0,45,35,3.0,91.0
12907,62.0,2,39,1.0,85.0
12908,55.0,3,33,6.0,68.0
12909,71.0,5,46,0.0,74.0
12910,71.0,2,40,5.0,43.0
12911,59.0,1,51,2.0,72.0
12912,71.0,3,60,4.0,54.0
12913,55.0,48,45,3.0,91.0
12914,55.0,2,38,6.0,82.0
12915,69.0,4,50,0.0,78.0
12916,64.0,4,54,2.0,95.0
12917,69.0,0,60,5.0,68.0
12918,69.0,3,62,4.0,68.0
12919,72.0,48,52,0.0,64.0
12920,72.0,6,55,5.0,59.0
12921,72.0,0,56,4.0,64.0
12922,60.0,1,154,1.0,82.0
12923,48.0,0,46,3.0,91.0
12924,48.0,1,46,6.0,82.0
12925,52.0,4,51,2.0,89.0
12926,71.0,0,57,4.0,43.0
12927,71.0,3,55,5.0,36.0
12928,71.0,54,66,0.0,60.0
12929,72.0,50,40,0.0,76.0
12930,72.0,0,50,4.0,60.0
12931,72.0,0,53,5.0,64.0
12932,67.0,10,43,1.0,80.0
12933,65.0,1,47,1.0,82.0
12934,74.0,1,64,4.0,66.0
12935,74.0,3,61,5.0,59.0
12936,74.0,51,66,0.0,78.0
12937,64.0,3,46,1.0,78.0
12938,72.0,0,58,0.0,64.0
12939,72.0,1,63,5.0,64.0
12940,72.0,45,67,4.0,64.0
12941,57.0,2,139,2.0,85.0
12942,53.0,2,144,3.0,85.0
12943,53.0,4,141,6.0,78.0
12944,62.0,57,36,1.0,74.0
12945,71.0,0,41,5.0,59.0
12946,71.0,0,43,0.0,61.0
12947,71.0,2,46,4.0,54.0
12948,60.0,49,40,1.0,78.0
12949,53.0,7,27,6.0,85.0
12950,57.0,6,36,2.0,76.0
12951,53.0,3,29,3.0,87.0
12952,69.0,4,49,4.0,63.0
12953,69.0,0,52,0.0,74.0
12954,69.0,1,67,5.0,60.0
12955,53.0,1,47,6.0,93.0
12956,71.0,1,52,0.0,85.0
12957,67.0,0,50,1.0,80.0
12958,53.0,5,49,3.0,98.0
12959,71.0,2,61,4.0,68.0
12960,62.0,3,59,2.0,85.0
12961,71.0,50,65,5.0,57.0
12962,60.0,2,45,2.0,72.0
12963,52.0,43,52,6.0,57.0
12964,52.0,6,49,3.0,80.0
12965,79.0,2,32,5.0,80.0
12966,62.0,4,46,2.0,80.0
12967,53.0,1,47,3.0,76.0
12968,79.0,0,40,0.0,91.0
12969,53.0,51,54,6.0,70.0
12970,79.0,8,42,4.0,87.0
12971,71.0,0,50,1.0,87.0
12972,50.0,1,42,6.0,68.0
12973,50.0,42,45,3.0,72.0
12974,59.0,2,47,2.0,78.0
12975,79.0,0,33,5.0,82.0
12976,79.0,0,38,0.0,93.0
12977,79.0,1,39,4.0,87.0
12978,52.0,59,58,3.0,82.0
12979,52.0,4,58,6.0,87.0
12980,64.0,9,63,2.0,85.0
12981,67.0,2,59,1.0,89.0
12982,53.0,44,62,3.0,80.0
12983,69.0,5,53,1.0,80.0
12984,53.0,6,66,6.0,80.0
12985,55.0,51,37,3.0,74.0
12986,55.0,6,44,6.0,70.0
12987,79.0,4,39,5.0,85.0
12988,79.0,3,44,0.0,91.0
12989,79.0,6,34,4.0,87.0
12990,62.0,0,43,2.0,80.0
12991,71.0,0,55,1.0,87.0
12992,52.0,30,47,3.0,63.0
12993,67.0,14,41,1.0,85.0
12994,52.0,1,47,6.0,62.0
12995,72.0,1,59,1.0,85.0
12996,57.0,58,72,3.0,82.0
12997,57.0,6,65,6.0,85.0
12998,74.0,41,45,1.0,87.0
12999,60.0,3,102,2.0,85.0
13000,58.0,3,52,6.0,66.0
13001,76.0,3,106,0.0,95.0
13002,76.0,2,111,4.0,82.0
13003,58.0,6,59,3.0,64.0
13004,76.0,3,110,5.0,78.0
13005,72.0,53,48,1.0,91.0
13006,62.0,2,49,2.0,66.0
13007,77.0,6,48,0.0,87.0
13008,57.0,3,57,6.0,80.0
13009,77.0,4,49,5.0,70.0
13010,57.0,3,67,3.0,68.0
13011,77.0,0,58,4.0,74.0
13012,70.0,39,42,1.0,82.0
13013,64.0,5,48,2.0,76.0
13014,79.0,1,48,0.0,89.0
13015,79.0,4,47,5.0,68.0
13016,79.0,2,53,4.0,72.0
13017,55.0,0,59,6.0,82.0
13018,55.0,3,58,3.0,72.0
13019,81.0,5,37,0.0,89.0
13020,81.0,2,35,5.0,78.0
13021,81.0,2,39,4.0,82.0
13022,69.0,50,54,1.0,95.0
13023,53.0,1,57,6.0,66.0
13024,53.0,1,60,3.0,64.0
13025,65.0,0,66,2.0,85.0
13026,52.0,45,62,6.0,57.0
13027,52.0,4,62,3.0,55.0
13028,65.0,0,43,2.0,78.0
13029,69.0,4,47,1.0,87.0
13030,77.0,5,41,0.0,85.0
13031,77.0,2,41,4.0,82.0
13032,77.0,2,39,5.0,70.0
13033,50.0,57,63,6.0,62.0
13034,50.0,2,59,3.0,59.0
13035,48.0,5,47,3.0,72.0
13036,48.0,46,52,6.0,64.0
13037,74.0,2,43,4.0,80.0
13038,74.0,1,44,5.0,70.0
13039,74.0,1,47,0.0,87.0
13040,74.0,1,53,1.0,91.0
13041,47.0,57,64,6.0,68.0
13042,47.0,1,65,3.0,70.0
13043,67.0,5,62,2.0,85.0
13044,72.0,5,47,1.0,87.0
13045,45.0,0,59,6.0,78.0
13046,45.0,55,59,3.0,62.0
13047,79.0,1,41,0.0,91.0
13048,79.0,0,39,4.0,85.0
13049,79.0,4,41,5.0,82.0
13050,71.0,1,47,1.0,85.0
13051,62.0,52,59,2.0,82.0
13052,43.0,0,55,3.0,64.0
13053,43.0,3,61,6.0,57.0
13054,72.0,55,40,1.0,95.0
13055,45.0,1,44,3.0,68.0
13056,45.0,1,48,6.0,72.0
13057,67.0,0,43,0.0,82.0
13058,74.0,1,50,1.0,93.0
13059,67.0,56,51,5.0,64.0
13060,47.0,1,50,3.0,80.0
13061,67.0,2,54,4.0,80.0
13062,47.0,4,53,6.0,80.0
13063,67.0,2,67,2.0,87.0
13064,72.0,3,52,1.0,87.0
13065,45.0,46,62,3.0,68.0
13066,45.0,6,61,6.0,72.0
13067,47.0,1,39,3.0,68.0
13068,77.0,6,39,0.0,87.0
13069,74.0,51,48,1.0,89.0
13070,77.0,1,41,5.0,80.0
13071,47.0,0,43,6.0,70.0
13072,77.0,1,42,4.0,85.0
13073,71.0,1,55,2.0,85.0
13074,71.0,46,48,1.0,78.0
13075,43.0,2,50,3.0,61.0
13076,43.0,7,50,6.0,66.0
13077,48.0,1,52,3.0,78.0
13078,48.0,1,51,6.0,82.0
13079,67.0,1,65,2.0,85.0
13080,72.0,58,135,1.0,91.0
13081,76.0,3,133,0.0,87.0
13082,76.0,2,145,4.0,80.0
13083,76.0,4,141,5.0,78.0
13084,53.0,111,46,3.0,82.0
13085,69.0,2,50,2.0,85.0
13086,53.0,7,45,6.0,80.0
13087,74.0,36,32,1.0,82.0
13088,74.0,3,25,0.0,78.0
13089,74.0,16,28,5.0,64.0
13090,74.0,2,27,4.0,60.0
13091,72.0,45,24,1.0,93.0
13092,76.0,3,23,4.0,82.0
13093,76.0,7,29,5.0,78.0
13094,76.0,2,29,0.0,100.0
13095,55.0,1,34,6.0,87.0
13096,55.0,1,36,3.0,87.0
13097,71.0,5,32,1.0,82.0
13098,62.0,1,54,2.0,82.0
13099,74.0,4,36,5.0,63.0
13100,74.0,11,42,4.0,63.0
13101,74.0,4,38,0.0,87.0
13102,72.0,10,38,1.0,82.0
13103,76.0,11,38,4.0,82.0
13104,76.0,5,37,5.0,82.0
13105,76.0,4,39,0.0,78.0
13106,71.0,5,64,1.0,76.0
13107,74.0,9,58,4.0,40.0
13108,74.0,8,55,0.0,66.0
13109,74.0,2,64,5.0,63.0
13110,43.0,2,37,6.0,87.0
13111,43.0,2,41,3.0,89.0
13112,67.0,35,54,2.0,85.0
13113,67.0,43,36,1.0,78.0
13114,72.0,6,31,4.0,70.0
13115,72.0,2,33,0.0,74.0
13116,72.0,7,30,5.0,70.0
13117,67.0,53,154,1.0,93.0
13118,64.0,6,150,2.0,93.0
13119,62.0,166,40,2.0,89.0
13120,65.0,3,39,1.0,87.0
13121,72.0,1,224,5.0,57.0
13122,72.0,2,243,0.0,80.0
13123,72.0,1,249,4.0,76.0
13124,60.0,59,82,2.0,70.0
13125,72.0,49,39,5.0,82.0
13126,72.0,4,40,4.0,80.0
13127,72.0,7,36,0.0,82.0
13128,64.0,0,98,1.0,64.0
13129,70.0,47,34,5.0,82.0
13130,70.0,7,33,4.0,87.0
13131,70.0,2,35,0.0,82.0
13132,65.0,49,37,1.0,80.0
13133,69.0,0,34,5.0,85.0
13134,69.0,2,34,4.0,87.0
13135,62.0,4,40,2.0,87.0
13136,69.0,4,35,0.0,87.0
13137,36.0,4,595,6.0,85.0
13138,36.0,6,593,3.0,76.0
13139,48.0,126,42,3.0,85.0
13140,48.0,1,46,6.0,87.0
13141,50.0,56,45,3.0,85.0
13142,50.0,2,43,6.0,87.0
13143,64.0,55,274,2.0,82.0
13144,67.0,3,274,1.0,80.0
13145,52.0,0,41,6.0,78.0
13146,52.0,60,44,3.0,85.0
13147,64.0,2,40,2.0,87.0
13148,67.0,52,45,1.0,72.0
13149,50.0,3,43,6.0,72.0
13150,50.0,1,46,3.0,80.0
13151,67.0,4,376,0.0,85.0
13152,67.0,1,380,4.0,74.0
13153,67.0,0,385,5.0,74.0
13154,62.0,53,36,2.0,78.0
13155,52.0,5,38,6.0,80.0
13156,65.0,0,42,1.0,82.0
13157,52.0,2,54,3.0,82.0
13158,60.0,47,38,2.0,61.0
13159,53.0,0,37,6.0,68.0
13160,53.0,7,42,3.0,82.0
13161,64.0,3,40,1.0,89.0
13162,69.0,2,39,0.0,68.0
13163,69.0,3,39,4.0,68.0
13164,69.0,3,39,5.0,82.0
13165,70.0,1,81,0.0,78.0
13166,67.0,48,90,2.0,85.0
13167,70.0,2,84,5.0,80.0
13168,70.0,1,88,4.0,74.0
13169,62.0,6,103,1.0,87.0
13170,70.0,164,44,0.0,70.0
13171,70.0,2,43,5.0,70.0
13172,65.0,1,43,1.0,85.0
13173,70.0,0,45,4.0,64.0
13174,69.0,6,45,2.0,82.0
13175,55.0,2,248,3.0,80.0
13176,55.0,2,252,6.0,74.0
13177,72.0,52,77,0.0,85.0
13178,72.0,5,77,5.0,82.0
13179,72.0,1,78,4.0,82.0
13180,67.0,3,81,2.0,89.0
13181,64.0,0,95,1.0,89.0
13182,55.0,56,50,3.0,82.0
13183,55.0,5,46,6.0,82.0
13184,57.0,4,38,6.0,80.0
13185,57.0,60,43,3.0,82.0
13186,74.0,45,37,0.0,89.0
13187,62.0,0,38,1.0,82.0
13188,74.0,1,39,5.0,87.0
13189,65.0,2,45,2.0,78.0
13190,74.0,2,42,4.0,89.0
13191,58.0,2,47,3.0,76.0
13192,58.0,4,40,6.0,78.0
13193,60.0,4,41,6.0,82.0
13194,60.0,1,45,3.0,80.0
13195,67.0,1,88,0.0,85.0
13196,64.0,51,89,2.0,85.0
13197,67.0,0,93,5.0,82.0
13198,67.0,2,88,4.0,82.0
13199,58.0,53,36,3.0,82.0
13200,58.0,1,36,6.0,64.0
13201,60.0,1,127,1.0,85.0
13202,57.0,57,41,3.0,78.0
13203,57.0,2,39,6.0,57.0
13204,62.0,0,33,1.0,78.0
13205,58.0,2,42,6.0,78.0
13206,58.0,0,44,3.0,64.0
13207,67.0,1,40,0.0,78.0
13208,67.0,2,41,4.0,78.0
13209,67.0,1,41,5.0,80.0
13210,62.0,55,48,2.0,78.0
13211,64.0,21,34,1.0,62.0
13212,65.0,33,37,1.0,66.0
13213,60.0,1,46,6.0,82.0
13214,60.0,0,45,3.0,80.0
13215,64.0,20,24,1.0,62.0
13216,69.0,1,74,0.0,85.0
13217,65.0,25,27,1.0,70.0
13218,69.0,3,77,5.0,85.0
13219,69.0,5,82,4.0,80.0
13220,60.0,2,93,2.0,68.0
13221,64.0,18,15,1.0,62.0
13222,57.0,3,38,3.0,82.0
13223,57.0,3,44,6.0,64.0
13224,65.0,18,24,1.0,70.0
13225,64.0,0,17,1.0,62.0
13226,65.0,16,18,1.0,76.0
13227,58.0,2,39,6.0,60.0
13228,58.0,21,42,3.0,82.0
13229,64.0,18,17,1.0,64.0
13230,65.0,15,22,1.0,68.0
13231,64.0,0,23,1.0,64.0
13232,70.0,1,31,0.0,82.0
13233,60.0,6,35,3.0,85.0
13234,60.0,0,39,6.0,78.0
13235,70.0,1,32,5.0,68.0
13236,70.0,4,33,4.0,68.0
13237,60.0,1,39,2.0,78.0
13238,62.0,17,37,1.0,78.0
13239,64.0,27,30,1.0,82.0
13240,60.0,1,92,2.0,82.0
13241,65.0,5,101,1.0,89.0
13242,53.0,1,119,6.0,74.0
13243,70.0,5,120,4.0,89.0
13244,53.0,17,132,3.0,82.0
13245,70.0,0,124,5.0,89.0
13246,70.0,1,133,0.0,91.0
13247,50.0,2,30,6.0,70.0
13248,50.0,5,30,3.0,78.0
13249,69.0,1,39,1.0,89.0
13250,65.0,52,44,2.0,74.0
13251,52.0,20,28,6.0,78.0
13252,52.0,1,28,3.0,80.0
13253,69.0,0,126,5.0,68.0
13254,69.0,113,137,4.0,80.0
13255,69.0,2,137,0.0,76.0
13256,69.0,1,89,2.0,89.0
13257,65.0,32,95,1.0,85.0
13258,53.0,4,91,6.0,85.0
13259,53.0,0,100,3.0,87.0
13260,69.0,55,42,0.0,87.0
13261,69.0,1,42,4.0,85.0
13262,69.0,2,50,5.0,87.0
13263,71.0,3,37,4.0,80.0
13264,71.0,58,40,0.0,85.0
13265,71.0,3,42,5.0,85.0
13266,55.0,0,33,3.0,76.0
13267,67.0,41,44,2.0,78.0
13268,55.0,1,32,6.0,68.0
13269,73.0,7,40,0.0,80.0
13270,73.0,1,36,4.0,64.0
13271,64.0,3,42,1.0,74.0
13272,73.0,2,42,5.0,80.0
13273,57.0,14,30,3.0,74.0
13274,57.0,9,31,6.0,66.0
13275,74.0,0,45,0.0,74.0
13276,74.0,4,46,4.0,80.0
13277,74.0,3,46,5.0,87.0
13278,62.0,3,84,1.0,87.0
13279,73.0,57,38,4.0,87.0
13280,73.0,2,36,5.0,85.0
13281,73.0,0,39,0.0,85.0
13282,74.0,4,49,5.0,76.0
13283,74.0,2,47,0.0,85.0
13284,74.0,53,56,4.0,85.0
13285,69.0,48,40,1.0,82.0
13286,76.0,8,39,4.0,74.0
13287,76.0,3,39,5.0,70.0
13288,76.0,0,42,0.0,87.0
13289,77.0,2,42,4.0,89.0
13290,77.0,1,43,0.0,87.0
13291,77.0,2,46,5.0,91.0
13292,65.0,0,335,2.0,93.0
13293,76.0,54,42,4.0,87.0
13294,76.0,1,42,0.0,91.0
13295,76.0,3,45,5.0,87.0
13296,58.0,0,365,6.0,58.0
13297,58.0,28,380,3.0,80.0
13298,77.0,55,36,4.0,85.0
13299,77.0,6,33,0.0,93.0
13300,77.0,0,36,5.0,85.0
13301,62.0,38,40,2.0,80.0
13302,58.0,0,36,6.0,78.0
13303,58.0,1,37,3.0,95.0
13304,74.0,4,41,0.0,87.0
13305,74.0,10,47,4.0,89.0
13306,74.0,1,46,5.0,87.0
13307,58.0,3,38,6.0,82.0
13308,58.0,5,49,3.0,85.0
13309,60.0,46,38,6.0,80.0
13310,60.0,2,40,3.0,82.0
13311,74.0,57,347,1.0,91.0
13312,58.0,0,38,3.0,80.0
13313,58.0,57,39,6.0,72.0
13314,57.0,4,42,6.0,72.0
13315,57.0,1,44,3.0,76.0
13316,77.0,57,49,1.0,85.0
13317,58.0,5,36,6.0,68.0
13318,58.0,0,41,3.0,80.0
13319,76.0,59,83,1.0,91.0
13320,55.0,56,39,6.0,60.0
13321,55.0,2,39,3.0,74.0
13322,70.0,53,360,2.0,87.0
13323,79.0,3,347,0.0,87.0
13324,79.0,3,361,5.0,85.0
13325,79.0,2,366,4.0,87.0
13326,57.0,1,37,6.0,80.0
13327,57.0,62,40,3.0,87.0
13328,74.0,1,33,1.0,85.0
13329,58.0,56,39,6.0,64.0
13330,79.0,2,37,4.0,80.0
13331,58.0,2,39,3.0,82.0
13332,79.0,2,36,5.0,76.0
13333,79.0,5,32,0.0,91.0
13334,70.0,1,39,2.0,87.0
13335,74.0,49,59,1.0,85.0
13336,73.0,43,25,1.0,56.0
13337,74.0,26,25,1.0,78.0
13338,73.0,23,15,1.0,52.0
13339,79.0,1,123,4.0,72.0
13340,79.0,2,126,5.0,66.0
13341,79.0,1,128,0.0,82.0
13342,74.0,16,23,1.0,72.0
13343,73.0,20,18,1.0,57.0
13344,57.0,6,167,3.0,85.0
13345,74.0,16,21,1.0,76.0
13346,57.0,1,176,6.0,72.0
13347,73.0,20,21,1.0,62.0
13348,81.0,13,26,5.0,76.0
13349,81.0,2,25,0.0,89.0
13350,74.0,2,23,1.0,85.0
13351,64.0,0,207,2.0,87.0
13352,81.0,0,27,4.0,85.0
13353,73.0,2,22,1.0,64.0
13354,82.0,16,26,5.0,72.0
13355,82.0,3,20,4.0,72.0
13356,82.0,2,23,0.0,68.0
13357,74.0,14,26,1.0,85.0
13358,81.0,9,95,5.0,89.0
13359,81.0,3,91,4.0,89.0
13360,81.0,1,101,0.0,91.0
13361,73.0,0,125,1.0,80.0
13362,45.0,2,133,3.0,87.0
13363,45.0,3,145,6.0,68.0
13364,79.0,165,29,4.0,70.0
13365,79.0,2,29,0.0,66.0
13366,69.0,9,218,2.0,82.0
13367,79.0,5,31,5.0,70.0
13368,73.0,2,41,1.0,68.0
13369,77.0,5,24,0.0,63.0
13370,77.0,10,32,4.0,53.0
13371,77.0,6,28,5.0,60.0
13372,76.0,5,21,0.0,64.0
13373,76.0,12,29,4.0,64.0
13374,76.0,3,25,5.0,74.0
13375,74.0,15,97,1.0,89.0
13376,69.0,3,98,2.0,87.0
13377,77.0,2,91,0.0,80.0
13378,77.0,2,98,4.0,87.0
13379,77.0,3,101,5.0,80.0
13380,74.0,0,33,5.0,82.0
13381,74.0,162,36,0.0,70.0
13382,74.0,1,37,4.0,80.0
13383,69.0,2,42,1.0,80.0
13384,65.0,1,44,2.0,70.0
13385,50.0,0,302,3.0,85.0
13386,50.0,6,319,6.0,78.0
13387,62.0,0,84,2.0,89.0
13388,74.0,5,86,1.0,98.0
13389,77.0,3,97,0.0,93.0
13390,77.0,55,105,5.0,89.0
13391,77.0,1,103,4.0,91.0
13392,52.0,116,30,6.0,68.0
13393,52.0,3,39,3.0,68.0
13394,53.0,11,32,3.0,70.0
13395,53.0,15,49,6.0,85.0
13396,81.0,2,32,0.0,82.0
13397,81.0,1,31,4.0,82.0
13398,81.0,1,31,5.0,85.0
13399,55.0,20,42,6.0,82.0
13400,72.0,7,34,1.0,85.0
13401,55.0,1,35,3.0,78.0
13402,57.0,3,42,2.0,85.0
13403,57.0,10,32,6.0,80.0
13404,57.0,6,32,3.0,80.0
13405,59.0,15,29,6.0,87.0
13406,59.0,3,36,3.0,89.0
13407,60.0,2,47,3.0,95.0
13408,79.0,16,66,5.0,85.0
13409,79.0,2,67,0.0,87.0
13410,72.0,7,62,1.0,85.0
13411,60.0,0,72,6.0,82.0
13412,79.0,1,77,4.0,89.0
13413,71.0,2,25,1.0,63.0
13414,78.0,44,34,5.0,68.0
13415,78.0,4,35,0.0,60.0
13416,78.0,7,34,4.0,52.0
13417,72.0,16,23,1.0,63.0
13418,59.0,0,43,6.0,66.0
13419,59.0,2,49,3.0,74.0
13420,79.0,1,33,5.0,64.0
13421,71.0,6,16,1.0,58.0
13422,79.0,7,31,0.0,70.0
13423,79.0,8,31,4.0,68.0
13424,78.0,7,22,5.0,64.0
13425,72.0,0,19,1.0,63.0
13426,78.0,8,22,0.0,63.0
13427,78.0,3,20,4.0,63.0
13428,71.0,2,17,1.0,64.0
13429,79.0,10,26,5.0,64.0
13430,60.0,2,46,6.0,80.0
13431,79.0,5,27,0.0,64.0
13432,60.0,2,51,3.0,76.0
13433,79.0,7,25,4.0,66.0
13434,78.0,3,19,5.0,64.0
13435,72.0,5,22,1.0,66.0
13436,78.0,7,20,0.0,80.0
13437,78.0,7,16,4.0,63.0
13438,71.0,3,18,1.0,63.0
13439,79.0,6,22,5.0,59.0
13440,72.0,3,16,1.0,64.0
13441,79.0,7,23,0.0,61.0
13442,64.0,1,38,6.0,78.0
13443,79.0,1,22,4.0,66.0
13444,78.0,6,21,5.0,66.0
13445,78.0,1,19,0.0,66.0
13446,71.0,6,20,1.0,72.0
13447,64.0,1,47,3.0,78.0
13448,78.0,6,18,4.0,80.0
13449,72.0,11,23,1.0,66.0
13450,79.0,2,25,5.0,56.0
13451,79.0,4,22,0.0,61.0
13452,79.0,4,24,4.0,66.0
13453,78.0,3,21,5.0,64.0
13454,78.0,3,18,0.0,76.0
13455,78.0,7,18,4.0,80.0
13456,62.0,2,45,6.0,78.0
13457,79.0,1,21,0.0,62.0
13458,79.0,14,25,5.0,59.0
13459,62.0,2,52,3.0,93.0
13460,79.0,6,23,4.0,66.0
13461,78.0,3,18,5.0,63.0
13462,78.0,11,21,0.0,80.0
13463,78.0,0,19,4.0,72.0
13464,60.0,5,38,6.0,66.0
13465,79.0,10,23,0.0,68.0
13466,79.0,6,20,4.0,68.0
13467,79.0,0,27,5.0,61.0
13468,60.0,6,45,3.0,80.0
13469,78.0,3,16,5.0,55.0
13470,78.0,12,20,0.0,76.0
13471,78.0,3,17,4.0,68.0
13472,62.0,3,357,2.0,82.0
13473,79.0,0,22,0.0,68.0
13474,79.0,16,23,5.0,70.0
13475,79.0,3,21,4.0,80.0
13476,71.0,3,140,1.0,76.0
13477,78.0,13,13,5.0,51.0
13478,78.0,2,16,4.0,64.0
13479,78.0,0,19,0.0,80.0
13480,59.0,1,35,6.0,80.0
13481,59.0,1,44,3.0,80.0
13482,79.0,0,20,4.0,76.0
13483,79.0,14,25,5.0,80.0
13484,79.0,5,27,0.0,74.0
13485,78.0,10,26,4.0,57.0
13486,78.0,0,27,5.0,59.0
13487,78.0,7,28,0.0,66.0
13488,60.0,5,38,3.0,80.0
13489,60.0,0,36,6.0,80.0
13490,62.0,2,37,2.0,80.0
13491,76.0,12,33,4.0,70.0
13492,76.0,2,32,5.0,66.0
13493,72.0,0,37,1.0,85.0
13494,76.0,2,40,0.0,72.0
13495,78.0,16,25,4.0,80.0
13496,78.0,1,26,5.0,74.0
13497,78.0,12,26,0.0,87.0
13498,74.0,5,88,1.0,85.0
13499,62.0,17,106,2.0,82.0
13500,59.0,2,112,3.0,85.0
13501,59.0,1,111,6.0,80.0
13502,57.0,0,41,3.0,70.0
13503,72.0,2,41,1.0,82.0
13504,57.0,5,37,6.0,64.0
13505,69.0,158,49,2.0,85.0
13506,74.0,53,81,1.0,82.0
13507,59.0,2,83,3.0,87.0
13508,59.0,3,86,6.0,89.0
13509,67.0,4,95,2.0,87.0
13510,71.0,2,29,1.0,82.0
13511,55.0,171,47,3.0,80.0
13512,55.0,7,42,6.0,76.0
13513,65.0,0,47,2.0,76.0
13514,79.0,7,483,0.0,76.0
13515,79.0,0,501,4.0,76.0
13516,79.0,2,503,5.0,78.0
13517,72.0,57,93,1.0,93.0
13518,81.0,54,42,0.0,82.0
13519,81.0,1,43,5.0,80.0
13520,81.0,5,40,4.0,78.0
13521,64.0,1,104,2.0,82.0
13522,79.0,0,40,0.0,87.0
13523,79.0,54,42,5.0,80.0
13524,79.0,5,40,4.0,72.0
13525,65.0,46,40,2.0,68.0
13526,77.0,2,37,4.0,80.0
13527,77.0,1,41,0.0,87.0
13528,77.0,0,40,5.0,82.0
13529,74.0,5,43,1.0,78.0
13530,76.0,7,34,4.0,70.0
13531,76.0,1,38,0.0,82.0
13532,76.0,1,40,5.0,76.0
13533,67.0,54,85,2.0,80.0
13534,76.0,0,79,1.0,87.0
13535,74.0,51,45,4.0,68.0
13536,74.0,3,41,0.0,80.0
13537,74.0,2,48,5.0,70.0
13538,64.0,3,340,6.0,82.0
13539,64.0,3,348,3.0,87.0
13540,76.0,55,35,4.0,80.0
13541,76.0,2,37,0.0,80.0
13542,76.0,4,42,5.0,80.0
13543,64.0,44,33,2.0,78.0
13544,64.0,7,38,3.0,85.0
13545,64.0,2,32,6.0,78.0
13546,72.0,1,43,4.0,68.0
13547,79.0,4,39,1.0,85.0
13548,72.0,1,48,0.0,82.0
13549,72.0,0,50,5.0,82.0
13550,65.0,4,93,2.0,87.0
13551,72.0,4,91,1.0,85.0
13552,64.0,52,110,3.0,82.0
13553,64.0,1,122,6.0,80.0
13554,65.0,1,34,6.0,72.0
13555,65.0,1,38,3.0,74.0
13556,72.0,3,41,1.0,78.0
13557,69.0,167,44,2.0,87.0
13558,64.0,24,28,6.0,66.0
13559,64.0,1,30,3.0,76.0
13560,77.0,1,78,1.0,100.0
13561,74.0,1,78,2.0,89.0
13562,62.0,2,81,3.0,93.0
13563,62.0,37,92,6.0,78.0
13564,64.0,1,27,6.0,60.0
13565,64.0,167,33,3.0,78.0
13566,76.0,1,45,1.0,80.0
13567,69.0,0,49,2.0,85.0
13568,60.0,19,29,6.0,72.0
13569,60.0,6,29,3.0,80.0
13570,81.0,1,496,0.0,82.0
13571,81.0,2,493,5.0,78.0
13572,81.0,1,496,4.0,85.0
13573,79.0,54,41,4.0,78.0
13574,79.0,4,40,5.0,80.0
13575,79.0,1,41,0.0,85.0
13576,81.0,50,37,4.0,78.0
13577,81.0,2,38,0.0,80.0
13578,81.0,5,40,5.0,72.0
13579,83.0,48,42,4.0,82.0
13580,83.0,6,36,0.0,82.0
13581,83.0,0,40,5.0,78.0
13582,62.0,2,268,2.0,85.0
13583,84.0,0,36,5.0,64.0
13584,77.0,8,263,1.0,100.0
13585,84.0,56,40,4.0,78.0
13586,84.0,6,36,0.0,76.0
13587,81.0,0,35,0.0,70.0
13588,81.0,52,41,5.0,72.0
13589,60.0,2,41,2.0,72.0
13590,76.0,2,40,1.0,82.0
13591,81.0,2,39,4.0,64.0
13592,62.0,1,359,3.0,80.0
13593,62.0,35,363,6.0,70.0
13594,74.0,2,33,1.0,87.0
13595,83.0,3,36,4.0,70.0
13596,83.0,1,41,5.0,82.0
13597,83.0,0,40,0.0,68.0
13598,62.0,54,49,2.0,68.0
13599,72.0,51,34,1.0,82.0
13600,62.0,6,25,6.0,76.0
13601,62.0,2,31,3.0,85.0
13602,84.0,2,35,4.0,66.0
13603,84.0,0,34,0.0,85.0
13604,84.0,5,40,5.0,78.0
13605,64.0,0,37,2.0,87.0
13606,77.0,5,43,5.0,78.0
13607,77.0,0,43,0.0,80.0
13608,77.0,0,43,4.0,80.0
13609,65.0,3,49,2.0,82.0
13610,76.0,0,41,0.0,85.0
13611,76.0,0,43,5.0,78.0
13612,76.0,4,42,4.0,70.0
13613,67.0,51,46,2.0,80.0
13614,77.0,56,48,0.0,78.0
13615,77.0,0,49,5.0,74.0
13616,77.0,4,50,4.0,78.0
13617,69.0,0,51,2.0,80.0
13618,79.0,55,41,0.0,85.0
13619,67.0,1,42,2.0,74.0
13620,79.0,2,46,4.0,82.0
13621,79.0,4,46,5.0,82.0
13622,62.0,1,272,3.0,89.0
13623,81.0,2,38,4.0,70.0
13624,81.0,51,41,0.0,82.0
13625,81.0,1,38,5.0,80.0
13626,62.0,7,277,6.0,63.0
13627,65.0,3,49,2.0,80.0
13628,77.0,1,42,0.0,78.0
13629,77.0,2,41,5.0,76.0
13630,77.0,53,45,4.0,72.0
13631,60.0,0,45,3.0,70.0
13632,60.0,8,32,6.0,68.0
13633,64.0,3,43,2.0,80.0
13634,71.0,47,388,1.0,78.0
13635,79.0,4,40,4.0,82.0
13636,79.0,43,44,0.0,87.0
13637,79.0,2,44,5.0,74.0
13638,59.0,0,42,6.0,68.0
13639,59.0,1,50,3.0,78.0
13640,62.0,2,47,2.0,80.0
13641,81.0,0,33,0.0,82.0
13642,81.0,2,31,4.0,85.0
13643,74.0,53,43,1.0,85.0
13644,60.0,0,38,6.0,76.0
13645,81.0,3,38,5.0,80.0
13646,64.0,0,39,2.0,78.0
13647,60.0,1,42,3.0,80.0
13648,62.0,58,40,6.0,74.0
13649,62.0,0,48,3.0,82.0
13650,60.0,43,56,6.0,60.0
13651,60.0,9,57,3.0,76.0
13652,72.0,0,130,4.0,76.0
13653,72.0,6,127,5.0,85.0
13654,72.0,1,130,0.0,87.0
13655,62.0,60,43,6.0,70.0
13656,62.0,4,52,3.0,80.0
13657,65.0,41,47,6.0,74.0
13658,65.0,3,46,3.0,85.0
13659,64.0,59,49,6.0,78.0
13660,64.0,3,48,3.0,82.0
13661,62.0,56,43,6.0,70.0
13662,62.0,3,42,3.0,85.0
13663,65.0,6,354,2.0,80.0
13664,67.0,1,350,1.0,85.0
13665,71.0,6,240,0.0,98.0
13666,71.0,4,249,4.0,80.0
13667,71.0,1,254,5.0,68.0
13668,60.0,59,47,3.0,87.0
13669,60.0,4,44,6.0,66.0
13670,67.0,1,36,1.0,85.0
13671,72.0,2,40,4.0,85.0
13672,64.0,0,37,2.0,78.0
13673,72.0,51,43,0.0,89.0
13674,72.0,3,39,5.0,82.0
13675,62.0,3,51,3.0,89.0
13676,62.0,1,49,6.0,78.0
13677,74.0,56,47,0.0,87.0
13678,74.0,1,50,4.0,82.0
13679,74.0,2,47,5.0,85.0
13680,62.0,3,87,2.0,80.0
13681,71.0,44,41,0.0,76.0
13682,71.0,4,43,4.0,74.0
13683,71.0,1,42,5.0,72.0
13684,67.0,56,49,0.0,78.0
13685,67.0,3,48,4.0,85.0
13686,67.0,0,51,5.0,78.0
13687,64.0,58,38,2.0,80.0
13688,69.0,2,38,4.0,85.0
13689,69.0,0,39,0.0,82.0
13690,69.0,2,41,5.0,80.0
13691,67.0,1,265,1.0,82.0
13692,71.0,2,41,0.0,78.0
13693,71.0,55,46,4.0,66.0
13694,71.0,0,45,5.0,74.0
13695,62.0,2,82,2.0,87.0
13696,72.0,3,36,0.0,78.0
13697,69.0,54,41,1.0,87.0
13698,72.0,1,37,5.0,76.0
13699,72.0,1,39,4.0,82.0
13700,71.0,51,41,1.0,82.0
13701,74.0,0,42,0.0,85.0
13702,74.0,1,48,5.0,74.0
13703,74.0,2,47,4.0,68.0
13704,72.0,53,44,1.0,89.0
13705,76.0,4,42,5.0,72.0
13706,60.0,4,40,2.0,76.0
13707,76.0,0,44,4.0,78.0
13708,76.0,1,50,0.0,80.0
13709,59.0,7,508,6.0,63.0
13710,59.0,1,520,3.0,91.0
13711,59.0,5,74,2.0,87.0
13712,60.0,53,39,3.0,82.0
13713,60.0,1,40,6.0,70.0
13714,59.0,4,37,6.0,72.0
13715,59.0,56,41,3.0,91.0
13716,62.0,45,38,2.0,64.0
13717,57.0,6,45,3.0,82.0
13718,57.0,5,52,6.0,63.0
13719,55.0,51,46,3.0,78.0
13720,55.0,3,46,6.0,66.0
13721,67.0,4,78,2.0,85.0
13722,53.0,54,34,3.0,78.0
13723,53.0,5,47,6.0,61.0
13724,74.0,56,363,1.0,93.0
13725,77.0,3,358,4.0,89.0
13726,77.0,6,358,0.0,95.0
13727,77.0,0,367,5.0,82.0
13728,52.0,49,44,3.0,85.0
13729,52.0,12,45,6.0,64.0
13730,50.0,43,42,3.0,78.0
13731,77.0,0,31,5.0,85.0
13732,77.0,0,35,0.0,85.0
13733,71.0,14,39,2.0,82.0
13734,74.0,3,38,1.0,87.0
13735,50.0,0,45,6.0,72.0
13736,77.0,4,38,4.0,85.0
13737,79.0,1,23,0.0,82.0
13738,79.0,4,25,5.0,87.0
13739,79.0,5,25,4.0,87.0
13740,77.0,14,22,0.0,89.0
13741,77.0,1,23,5.0,80.0
13742,77.0,7,22,4.0,87.0
13743,79.0,3,32,0.0,82.0
13744,79.0,11,38,5.0,70.0
13745,71.0,0,81,2.0,85.0
13746,79.0,8,34,4.0,85.0
13747,74.0,5,106,1.0,91.0
13748,77.0,0,51,5.0,82.0
13749,77.0,9,56,4.0,89.0
13750,77.0,10,66,0.0,87.0
13751,72.0,0,30,1.0,80.0
13752,76.0,0,29,5.0,64.0
13753,76.0,109,32,0.0,66.0
13754,76.0,2,30,4.0,76.0
13755,67.0,1,36,2.0,76.0
13756,74.0,18,32,5.0,85.0
13757,74.0,1,31,0.0,76.0
13758,71.0,0,32,1.0,74.0
13759,74.0,1,33,4.0,82.0
13760,60.0,1,80,2.0,66.0
13761,76.0,1,98,4.0,80.0
13762,76.0,3,97,0.0,76.0
13763,72.0,1,95,1.0,95.0
13764,76.0,36,104,5.0,82.0
13765,77.0,0,26,0.0,74.0
13766,77.0,3,31,5.0,76.0
13767,77.0,172,35,4.0,72.0
13768,62.0,0,39,2.0,82.0
13769,69.0,1,38,1.0,85.0
13770,79.0,17,31,0.0,82.0
13771,79.0,5,32,4.0,72.0
13772,79.0,2,31,5.0,82.0
13773,48.0,53,523,3.0,91.0
13774,48.0,0,520,6.0,76.0
13775,46.0,55,31,3.0,74.0
13776,46.0,3,36,6.0,68.0
13777,45.0,51,40,3.0,80.0
13778,45.0,3,41,6.0,72.0
13779,46.0,54,41,3.0,78.0
13780,46.0,3,44,6.0,76.0
13781,48.0,4,41,6.0,74.0
13782,48.0,57,47,3.0,82.0
13783,45.0,57,40,3.0,82.0
13784,45.0,7,37,6.0,74.0
13785,64.0,1,360,2.0,85.0
13786,70.0,1,363,4.0,80.0
13787,70.0,35,367,0.0,76.0
13788,67.0,2,365,1.0,85.0
13789,70.0,1,367,5.0,72.0
13790,46.0,54,39,3.0,87.0
13791,46.0,9,46,6.0,82.0
13792,48.0,48,36,3.0,95.0
13793,70.0,4,35,4.0,74.0
13794,70.0,4,35,0.0,89.0
13795,70.0,0,33,5.0,76.0
13796,67.0,0,38,1.0,82.0
13797,64.0,1,38,2.0,82.0
13798,48.0,2,41,6.0,78.0
13799,72.0,61,24,0.0,82.0
13800,72.0,0,26,4.0,82.0
13801,72.0,1,26,5.0,78.0
13802,69.0,0,26,1.0,91.0
13803,70.0,12,21,4.0,91.0
13804,70.0,0,22,0.0,85.0
13805,70.0,4,22,5.0,68.0
13806,67.0,2,25,1.0,89.0
13807,72.0,4,34,4.0,85.0
13808,72.0,1,34,5.0,80.0
13809,69.0,0,35,1.0,78.0
13810,72.0,16,42,0.0,82.0
13811,64.0,2,83,2.0,87.0
13812,70.0,0,53,0.0,82.0
13813,70.0,5,54,5.0,70.0
13814,67.0,0,55,1.0,85.0
13815,70.0,14,65,4.0,74.0
13816,69.0,1,30,5.0,64.0
13817,69.0,2,28,0.0,64.0
13818,65.0,111,32,1.0,72.0
13819,69.0,5,29,4.0,78.0
13820,60.0,0,37,2.0,80.0
13821,67.0,1,29,0.0,76.0
13822,67.0,14,31,5.0,72.0
13823,64.0,3,31,1.0,78.0
13824,67.0,1,31,4.0,80.0
13825,69.0,32,86,0.0,82.0
13826,65.0,2,84,2.0,87.0
13827,69.0,1,95,5.0,85.0
13828,69.0,1,97,4.0,80.0
13829,65.0,6,101,1.0,93.0
13830,64.0,168,45,2.0,76.0
13831,71.0,6,41,5.0,76.0
13832,71.0,3,39,4.0,72.0
13833,71.0,1,39,0.0,82.0
13834,67.0,0,44,1.0,80.0
13835,41.0,4,488,6.0,70.0
13836,41.0,1,502,3.0,82.0
13837,62.0,1,97,2.0,87.0
13838,69.0,54,106,1.0,85.0
13839,40.0,52,51,3.0,76.0
13840,40.0,7,47,6.0,70.0
13841,41.0,56,49,3.0,85.0
13842,41.0,8,49,6.0,85.0
13843,43.0,1,40,3.0,80.0
13844,67.0,47,43,1.0,82.0
13845,64.0,1,47,2.0,78.0
13846,43.0,9,45,6.0,70.0
13847,45.0,50,44,3.0,82.0
13848,45.0,3,39,6.0,66.0
13849,65.0,3,82,1.0,95.0
13850,65.0,4,91,2.0,85.0
13851,41.0,51,41,3.0,82.0
13852,41.0,6,44,6.0,68.0
13853,72.0,1,368,4.0,87.0
13854,72.0,1,369,0.0,87.0
13855,72.0,3,376,5.0,85.0
13856,43.0,52,38,3.0,93.0
13857,43.0,9,44,6.0,68.0
13858,72.0,0,35,4.0,78.0
13859,72.0,2,33,0.0,85.0
13860,72.0,4,33,5.0,82.0
13861,45.0,51,47,3.0,80.0
13862,64.0,1,41,1.0,85.0
13863,45.0,1,49,6.0,68.0
13864,67.0,5,52,2.0,78.0
13865,74.0,5,24,0.0,93.0
13866,74.0,1,26,5.0,93.0
13867,74.0,1,27,4.0,91.0
13868,72.0,12,21,0.0,89.0
13869,72.0,7,22,4.0,82.0
13870,72.0,1,21,5.0,80.0
13871,74.0,13,31,0.0,85.0
13872,74.0,0,36,4.0,72.0
13873,74.0,5,39,5.0,70.0
13874,72.0,6,50,4.0,78.0
13875,72.0,15,60,0.0,80.0
13876,65.0,53,127,1.0,91.0
13877,72.0,0,56,5.0,78.0
13878,69.0,1,167,2.0,85.0
13879,71.0,115,39,0.0,68.0
13880,71.0,4,36,4.0,76.0
13881,71.0,7,36,5.0,87.0
13882,69.0,16,24,0.0,80.0
13883,69.0,0,25,4.0,82.0
13884,69.0,7,23,5.0,85.0
13885,79.0,5,25,4.0,89.0
13886,79.0,2,26,0.0,93.0
13887,79.0,1,26,5.0,87.0
13888,77.0,14,21,4.0,89.0
13889,77.0,3,21,0.0,72.0
13890,77.0,7,22,5.0,70.0
13891,79.0,6,35,4.0,72.0
13892,79.0,3,33,0.0,85.0
13893,79.0,8,33,5.0,76.0
13894,69.0,5,111,1.0,89.0
13895,77.0,2,61,0.0,80.0
13896,77.0,12,63,4.0,82.0
13897,77.0,9,62,5.0,80.0
13898,62.0,18,140,2.0,80.0
13899,76.0,1,41,0.0,72.0
13900,76.0,105,45,4.0,78.0
13901,76.0,7,38,5.0,82.0
13902,74.0,18,25,0.0,85.0
13903,74.0,1,25,4.0,87.0
13904,74.0,4,26,5.0,87.0
13905,38.0,4,470,3.0,89.0
13906,38.0,1,480,6.0,68.0
13907,84.0,11,29,0.0,89.0
13908,84.0,4,27,4.0,89.0
13909,84.0,2,26,5.0,82.0
13910,83.0,18,21,0.0,52.0
13911,83.0,3,21,5.0,70.0
13912,83.0,0,22,4.0,78.0
13913,84.0,13,33,0.0,82.0
13914,84.0,2,34,5.0,64.0
13915,84.0,3,32,4.0,80.0
13916,36.0,12,40,6.0,63.0
13917,36.0,0,52,3.0,82.0
13918,83.0,6,55,0.0,80.0
13919,83.0,1,66,4.0,76.0
13920,83.0,3,71,5.0,76.0
13921,38.0,47,44,3.0,87.0
13922,38.0,8,45,6.0,80.0
13923,40.0,48,39,3.0,80.0
13924,81.0,1,34,5.0,76.0
13925,81.0,5,33,4.0,76.0
13926,40.0,8,41,6.0,64.0
13927,81.0,3,35,0.0,82.0
13928,79.0,16,30,5.0,89.0
13929,79.0,5,27,4.0,89.0
13930,79.0,4,26,0.0,82.0
13931,41.0,20,43,3.0,80.0
13932,41.0,8,42,6.0,70.0
13933,86.0,5,69,4.0,91.0
13934,86.0,0,75,5.0,89.0
13935,86.0,3,69,0.0,98.0
13936,40.0,43,37,3.0,89.0
13937,40.0,9,41,6.0,74.0
13938,65.0,17,367,2.0,76.0
13939,74.0,2,351,1.0,87.0
13940,41.0,48,35,3.0,85.0
13941,41.0,12,34,6.0,66.0
13942,38.0,42,41,3.0,61.0
13943,77.0,1,31,4.0,82.0
13944,77.0,0,33,5.0,80.0
13945,77.0,0,30,0.0,80.0
13946,69.0,13,42,2.0,87.0
13947,38.0,2,39,6.0,64.0
13948,72.0,3,44,1.0,82.0
13949,62.0,1,105,2.0,80.0
13950,43.0,0,108,3.0,93.0
13951,71.0,57,118,1.0,80.0
13952,43.0,1,118,6.0,80.0
13953,43.0,2,45,3.0,78.0
13954,71.0,171,49,1.0,68.0
13955,65.0,1,50,2.0,70.0
13956,43.0,4,46,6.0,72.0
13957,77.0,1,263,4.0,85.0
13958,77.0,2,275,5.0,82.0
13959,77.0,0,275,0.0,89.0
13960,45.0,57,78,3.0,91.0
13961,64.0,0,89,2.0,89.0
13962,45.0,6,84,6.0,87.0
13963,81.0,50,39,4.0,82.0
13964,72.0,1,98,1.0,89.0
13965,81.0,0,38,5.0,85.0
13966,81.0,8,39,0.0,85.0
13967,79.0,51,38,4.0,82.0
13968,79.0,5,38,5.0,87.0
13969,79.0,4,35,0.0,89.0
13970,77.0,53,34,4.0,82.0
13971,77.0,3,31,5.0,82.0
13972,74.0,0,37,1.0,85.0
13973,77.0,3,32,0.0,87.0
13974,47.0,1,40,3.0,85.0
13975,47.0,0,42,6.0,72.0
13976,62.0,2,44,2.0,80.0
13977,76.0,1,45,5.0,82.0
13978,76.0,3,42,0.0,91.0
13979,76.0,0,49,4.0,80.0
13980,48.0,1,87,3.0,89.0
13981,48.0,1,97,6.0,80.0
13982,72.0,53,41,4.0,82.0
13983,72.0,2,42,0.0,78.0
13984,67.0,53,105,1.0,82.0
13985,72.0,0,44,5.0,76.0
13986,74.0,2,42,0.0,70.0
13987,74.0,57,44,4.0,70.0
13988,74.0,3,41,5.0,72.0
13989,48.0,43,42,6.0,63.0
13990,48.0,0,42,3.0,78.0
13991,76.0,4,40,0.0,70.0
13992,70.0,9,46,1.0,80.0
13993,76.0,0,43,4.0,70.0
13994,76.0,4,41,5.0,80.0
13995,77.0,2,47,0.0,82.0
13996,77.0,52,51,4.0,80.0
13997,77.0,3,48,5.0,74.0
13998,69.0,1,85,1.0,82.0
13999,50.0,1,86,3.0,89.0
14000,50.0,0,101,6.0,87.0
14001,60.0,2,331,2.0,64.0
14002,79.0,56,39,0.0,78.0
14003,79.0,0,41,4.0,87.0
14004,79.0,3,41,5.0,85.0
14005,81.0,54,43,0.0,78.0
14006,81.0,0,41,4.0,80.0
14007,81.0,3,42,5.0,78.0
14008,52.0,48,44,3.0,78.0
14009,52.0,4,36,6.0,64.0
14010,67.0,1,42,1.0,78.0
14011,60.0,1,43,2.0,68.0
14012,82.0,3,46,0.0,68.0
14013,82.0,2,42,4.0,66.0
14014,82.0,2,44,5.0,68.0
14015,81.0,54,48,0.0,85.0
14016,81.0,0,46,4.0,72.0
14017,81.0,3,46,5.0,82.0
14018,60.0,2,98,2.0,72.0
14019,79.0,2,43,4.0,80.0
14020,79.0,0,49,5.0,78.0
14021,65.0,1,118,1.0,82.0
14022,79.0,56,57,0.0,91.0
14023,77.0,59,41,4.0,76.0
14024,77.0,3,39,5.0,76.0
14025,77.0,0,43,0.0,80.0
14026,57.0,43,44,2.0,72.0
14027,76.0,11,42,5.0,78.0
14028,76.0,2,42,4.0,70.0
14029,76.0,3,39,0.0,78.0
14030,67.0,0,44,1.0,85.0
14031,77.0,1,41,4.0,80.0
14032,77.0,3,50,0.0,91.0
14033,77.0,0,54,5.0,85.0
14034,69.0,1,88,1.0,85.0
14035,62.0,54,94,2.0,91.0
14036,74.0,1,41,0.0,85.0
14037,74.0,1,44,4.0,80.0
14038,74.0,55,45,5.0,78.0
14039,76.0,0,38,4.0,85.0
14040,76.0,60,41,0.0,80.0
14041,76.0,1,41,5.0,70.0
14042,77.0,2,31,0.0,87.0
14043,77.0,2,31,5.0,89.0
14044,65.0,49,47,1.0,80.0
14045,77.0,9,38,4.0,80.0
14046,60.0,2,50,2.0,62.0
14047,53.0,1,508,6.0,66.0
14048,53.0,2,512,3.0,80.0
14049,62.0,57,89,1.0,87.0
14050,55.0,42,43,3.0,87.0
14051,55.0,2,42,6.0,76.0
14052,59.0,3,87,2.0,85.0
14053,53.0,58,36,6.0,72.0
14054,53.0,1,47,3.0,82.0
14055,52.0,4,34,6.0,70.0
14056,52.0,4,36,3.0,85.0
14057,67.0,53,50,1.0,74.0
14058,60.0,10,40,2.0,64.0
14059,50.0,4,43,6.0,70.0
14060,50.0,46,47,3.0,87.0
14061,67.0,2,287,0.0,85.0
14062,67.0,2,298,5.0,85.0
14063,74.0,5,85,1.0,98.0
14064,48.0,37,40,3.0,82.0
14065,48.0,7,44,6.0,72.0
14066,59.0,9,92,2.0,82.0
14067,67.0,4,363,4.0,76.0
14068,47.0,52,49,3.0,82.0
14069,69.0,2,38,5.0,72.0
14070,69.0,9,41,0.0,72.0
14071,47.0,12,52,6.0,78.0
14072,71.0,18,26,5.0,64.0
14073,71.0,10,27,0.0,76.0
14074,69.0,6,35,4.0,70.0
14075,72.0,7,32,5.0,78.0
14076,71.0,2,23,4.0,78.0
14077,72.0,3,32,0.0,80.0
14078,72.0,0,41,1.0,87.0
14079,74.0,3,30,5.0,89.0
14080,45.0,0,54,3.0,95.0
14081,45.0,11,44,6.0,85.0
14082,72.0,9,30,4.0,78.0
14083,74.0,2,29,0.0,82.0
14084,60.0,3,44,2.0,68.0
14085,76.0,11,24,5.0,80.0
14086,74.0,6,26,4.0,78.0
14087,76.0,2,30,0.0,98.0
14088,76.0,8,21,4.0,66.0
14089,43.0,1,94,3.0,85.0
14090,71.0,0,99,1.0,82.0
14091,62.0,5,92,2.0,87.0
14092,77.0,7,111,5.0,87.0
14093,43.0,2,100,6.0,80.0
14094,77.0,2,103,0.0,82.0
14095,77.0,1,102,4.0,91.0
14096,76.0,172,32,4.0,89.0
14097,76.0,3,33,5.0,87.0
14098,76.0,2,32,0.0,89.0
14099,47.0,1,41,6.0,82.0
14100,74.0,0,43,1.0,93.0
14101,47.0,2,42,3.0,82.0
14102,74.0,1,27,4.0,82.0
14103,74.0,19,29,5.0,85.0
14104,55.0,2,51,2.0,89.0
14105,74.0,2,28,0.0,78.0
14106,48.0,2,80,3.0,93.0
14107,67.0,1,87,2.0,89.0
14108,72.0,0,93,1.0,85.0
14109,48.0,3,94,6.0,85.0
14110,76.0,30,104,5.0,89.0
14111,76.0,0,105,4.0,76.0
14112,76.0,4,102,0.0,82.0
14113,74.0,163,38,1.0,85.0
14114,77.0,2,31,4.0,89.0
14115,77.0,8,35,5.0,87.0
14116,77.0,2,33,0.0,85.0
14117,69.0,2,48,2.0,87.0
14118,41.0,5,51,3.0,85.0
14119,41.0,5,46,6.0,85.0
14120,76.0,44,77,4.0,89.0
14121,72.0,2,81,1.0,85.0
14122,76.0,2,85,5.0,85.0
14123,76.0,1,87,0.0,93.0
14124,74.0,57,28,4.0,60.0
14125,71.0,1,32,1.0,57.0
14126,74.0,3,32,0.0,68.0
14127,74.0,6,37,5.0,52.0
14128,76.0,21,26,4.0,66.0
14129,72.0,2,29,1.0,66.0
14130,76.0,9,29,0.0,66.0
14131,74.0,11,16,4.0,68.0
14132,76.0,3,32,5.0,63.0
14133,71.0,3,20,1.0,70.0
14134,74.0,9,18,0.0,64.0
14135,74.0,0,20,5.0,64.0
14136,76.0,6,21,4.0,66.0
14137,72.0,7,21,1.0,70.0
14138,76.0,8,20,0.0,68.0
14139,74.0,5,16,4.0,68.0
14140,43.0,2,172,6.0,85.0
14141,43.0,7,175,3.0,82.0
14142,71.0,3,18,1.0,68.0
14143,76.0,3,22,5.0,64.0
14144,67.0,2,188,2.0,87.0
14145,74.0,6,18,0.0,64.0
14146,76.0,7,17,4.0,68.0
14147,74.0,4,16,5.0,66.0
14148,72.0,3,20,1.0,78.0
14149,76.0,5,17,0.0,70.0
14150,74.0,5,18,4.0,68.0
14151,76.0,6,20,5.0,74.0
14152,71.0,0,21,1.0,74.0
14153,74.0,3,21,0.0,64.0
14154,74.0,6,16,5.0,66.0
14155,76.0,7,24,4.0,80.0
14156,72.0,5,20,1.0,80.0
14157,76.0,2,20,0.0,66.0
14158,76.0,0,26,5.0,85.0
14159,71.0,2,106,1.0,80.0
14160,74.0,4,109,0.0,78.0
14161,74.0,7,124,4.0,72.0
14162,74.0,9,115,5.0,78.0
14163,43.0,2,160,6.0,74.0
14164,43.0,0,166,3.0,68.0
14165,62.0,2,174,2.0,78.0
14166,72.0,157,31,0.0,82.0
14167,72.0,2,32,4.0,82.0
14168,67.0,1,34,1.0,80.0
14169,72.0,4,33,5.0,85.0
14170,64.0,3,726,2.0,85.0
14171,72.0,2,723,5.0,72.0
14172,72.0,0,725,4.0,80.0
14173,72.0,1,728,0.0,95.0
14174,36.0,2,736,6.0,85.0
14175,67.0,1,733,1.0,95.0
14176,36.0,61,749,3.0,89.0
