,note,step,duration,channel,velocity
0,74.0,0,10,0.0,96.0
1,74.0,0,10,2.0,104.0
2,69.0,0,10,3.0,104.0
3,65.0,0,10,4.0,104.0
4,73.0,12,10,0.0,96.0
5,73.0,0,10,2.0,104.0
6,67.0,0,10,3.0,104.0
7,64.0,0,10,4.0,104.0
8,74.0,12,10,0.0,96.0
9,74.0,0,21,2.0,104.0
10,69.0,0,21,3.0,104.0
11,65.0,0,21,4.0,104.0
12,69.0,12,10,0.0,96.0
13,70.0,12,10,0.0,96.0
14,74.0,0,10,1.0,96.0
15,50.0,0,10,5.0,96.0
16,38.0,0,10,6.0,96.0
17,67.0,12,10,0.0,96.0
18,73.0,0,10,1.0,96.0
19,52.0,0,10,5.0,96.0
20,40.0,0,10,6.0,96.0
21,69.0,12,10,0.0,96.0
22,74.0,0,10,1.0,96.0
23,53.0,0,21,5.0,96.0
24,41.0,0,21,6.0,96.0
25,65.0,12,10,0.0,96.0
26,69.0,0,10,1.0,96.0
27,67.0,12,10,0.0,96.0
28,70.0,0,10,1.0,96.0
29,74.0,0,10,2.0,104.0
30,70.0,0,10,3.0,104.0
31,67.0,0,10,4.0,104.0
32,64.0,12,10,0.0,96.0
33,67.0,0,10,1.0,96.0
34,73.0,0,10,2.0,104.0
35,67.0,0,10,3.0,104.0
36,64.0,0,10,4.0,104.0
37,65.0,12,10,0.0,96.0
38,69.0,0,10,1.0,96.0
39,74.0,0,21,2.0,104.0
40,69.0,0,21,3.0,104.0
41,65.0,0,21,4.0,104.0
42,62.0,12,10,0.0,96.0
43,65.0,0,10,1.0,96.0
44,64.0,12,10,0.0,96.0
45,67.0,0,10,1.0,96.0
46,57.0,0,21,5.0,96.0
47,45.0,0,21,6.0,96.0
48,61.0,12,10,0.0,96.0
49,64.0,0,10,1.0,96.0
50,65.0,0,10,1.0,96.0
51,62.0,12,21,0.0,96.0
52,50.0,0,21,5.0,96.0
53,38.0,0,21,6.0,96.0
54,62.0,12,10,1.0,96.0
55,64.0,0,10,1.0,96.0
56,70.0,0,10,2.0,104.0
57,67.0,0,10,3.0,104.0
58,64.0,0,10,4.0,104.0
59,70.0,12,21,0.0,96.0
60,61.0,12,10,1.0,96.0
61,69.0,0,10,2.0,104.0
62,64.0,0,10,3.0,104.0
63,61.0,0,10,4.0,104.0
64,62.0,0,10,1.0,96.0
65,70.0,12,21,0.0,96.0
66,70.0,0,21,2.0,104.0
67,65.0,0,21,3.0,104.0
68,62.0,0,21,4.0,104.0
69,65.0,12,10,1.0,96.0
70,64.0,0,10,1.0,96.0
71,49.0,0,21,5.0,96.0
72,37.0,0,21,6.0,96.0
73,67.0,12,10,1.0,96.0
74,69.0,12,31,0.0,96.0
75,65.0,12,21,1.0,96.0
76,50.0,0,21,5.0,96.0
77,38.0,0,21,6.0,96.0
78,71.0,12,10,0.0,96.0
79,73.0,12,10,0.0,96.0
80,73.0,0,10,2.0,104.0
81,67.0,0,10,3.0,104.0
82,64.0,0,10,4.0,104.0
83,67.0,0,21,1.0,96.0
84,52.0,0,21,5.0,96.0
85,40.0,0,21,6.0,96.0
86,69.0,12,10,0.0,96.0
87,69.0,0,10,2.0,104.0
88,64.0,0,10,3.0,104.0
89,61.0,0,10,4.0,104.0
90,74.0,12,10,0.0,96.0
91,69.0,0,21,1.0,96.0
92,74.0,0,21,2.0,104.0
93,69.0,0,21,3.0,104.0
94,57.0,0,21,4.0,104.0
95,53.0,0,21,5.0,96.0
96,41.0,0,21,6.0,96.0
97,73.0,12,10,0.0,96.0
98,71.0,0,10,1.0,96.0
99,52.0,0,21,5.0,96.0
100,40.0,0,21,6.0,96.0
101,73.0,12,10,1.0,96.0
102,74.0,12,31,0.0,96.0
103,74.0,12,10,1.0,96.0
104,53.0,0,21,5.0,96.0
105,41.0,0,21,6.0,96.0
106,76.0,12,10,0.0,96.0
107,73.0,0,10,1.0,96.0
108,74.0,0,10,1.0,96.0
109,77.0,0,10,2.0,104.0
110,74.0,0,10,3.0,104.0
111,69.0,0,10,4.0,104.0
112,77.0,12,12,0.0,96.0
113,50.0,0,21,5.0,96.0
114,38.0,0,21,6.0,96.0
115,76.0,12,10,0.0,96.0
116,73.0,0,10,1.0,96.0
117,76.0,0,10,2.0,104.0
118,73.0,0,10,3.0,104.0
119,70.0,0,10,4.0,104.0
120,79.0,12,12,0.0,96.0
121,74.0,0,21,1.0,96.0
122,79.0,0,21,2.0,104.0
123,74.0,0,21,3.0,104.0
124,67.0,0,21,4.0,104.0
125,46.0,0,21,5.0,96.0
126,34.0,0,21,6.0,96.0
127,77.0,12,10,0.0,96.0
128,76.0,12,12,0.0,96.0
129,58.0,0,21,5.0,96.0
130,46.0,0,21,6.0,96.0
131,74.0,12,10,0.0,96.0
132,74.0,0,24,1.0,96.0
133,76.0,0,6,1.0,96.0
134,80.0,12,12,0.0,96.0
135,74.0,6,6,1.0,96.0
136,76.0,0,6,1.0,96.0
137,57.0,0,21,5.0,96.0
138,45.0,0,21,6.0,96.0
139,81.0,6,10,0.0,96.0
140,74.0,6,5,1.0,96.0
141,81.0,0,10,2.0,104.0
142,76.0,0,10,3.0,104.0
143,73.0,0,10,4.0,104.0
144,69.0,6,21,0.0,96.0
145,73.0,0,21,1.0,96.0
146,45.0,0,21,5.0,96.0
147,33.0,0,21,6.0,96.0
148,80.0,12,10,2.0,104.0
149,74.0,0,10,3.0,104.0
150,71.0,0,10,4.0,104.0
151,81.0,12,10,2.0,104.0
152,76.0,0,10,3.0,104.0
153,69.0,0,10,4.0,104.0
154,49.0,0,21,5.0,96.0
155,37.0,0,21,6.0,96.0
156,76.0,12,10,2.0,104.0
157,73.0,0,10,3.0,104.0
158,67.0,0,10,4.0,104.0
159,73.0,12,10,2.0,104.0
160,69.0,0,10,3.0,104.0
161,64.0,0,10,4.0,104.0
162,52.0,0,21,5.0,96.0
163,40.0,0,21,6.0,96.0
164,76.0,12,10,2.0,104.0
165,73.0,0,10,3.0,104.0
166,67.0,0,10,4.0,104.0
167,69.0,12,21,2.0,104.0
168,64.0,0,21,3.0,104.0
169,61.0,0,21,4.0,104.0
170,57.0,0,21,5.0,96.0
171,45.0,0,21,6.0,96.0
172,69.0,24,10,0.0,96.0
173,55.0,0,21,5.0,96.0
174,43.0,0,21,6.0,96.0
175,70.0,12,10,0.0,96.0
176,72.0,12,21,0.0,96.0
177,54.0,0,24,5.0,96.0
178,42.0,0,24,6.0,96.0
179,69.0,0,10,1.0,96.0
180,70.0,12,10,1.0,96.0
181,54.0,0,24,5.0,96.0
182,42.0,0,24,6.0,96.0
183,75.0,24,42,0.0,96.0
184,72.0,12,21,1.0,96.0
185,54.0,0,21,5.0,96.0
186,42.0,0,21,6.0,96.0
187,74.0,24,21,0.0,96.0
188,70.0,0,21,1.0,96.0
189,55.0,0,21,5.0,96.0
190,43.0,0,21,6.0,96.0
191,66.0,24,21,0.0,96.0
192,75.0,0,21,1.0,96.0
193,48.0,0,21,5.0,96.0
194,36.0,0,21,6.0,96.0
195,67.0,24,21,0.0,96.0
196,74.0,0,21,1.0,96.0
197,46.0,0,21,5.0,96.0
198,34.0,0,21,6.0,96.0
199,72.0,24,10,0.0,96.0
200,66.0,0,21,1.0,96.0
201,69.0,12,10,0.0,96.0
202,45.0,0,24,5.0,96.0
203,33.0,0,24,6.0,96.0
204,70.0,12,21,0.0,96.0
205,67.0,0,21,1.0,96.0
206,43.0,0,24,5.0,96.0
207,31.0,0,24,6.0,96.0
208,72.0,24,10,1.0,96.0
209,69.0,12,10,1.0,96.0
210,42.0,0,24,5.0,96.0
211,30.0,0,24,6.0,96.0
212,70.0,0,10,2.0,104.0
213,67.0,0,10,3.0,104.0
214,62.0,0,10,4.0,104.0
215,70.0,12,21,1.0,96.0
216,69.0,12,10,2.0,104.0
217,66.0,0,10,3.0,104.0
218,60.0,0,10,4.0,104.0
219,43.0,0,24,5.0,96.0
220,31.0,0,24,6.0,96.0
221,70.0,12,21,2.0,104.0
222,67.0,0,21,3.0,104.0
223,62.0,0,21,4.0,104.0
224,55.0,0,21,5.0,96.0
225,43.0,0,21,6.0,96.0
226,71.0,24,10,0.0,96.0
227,53.0,0,21,5.0,96.0
228,41.0,0,21,6.0,96.0
229,72.0,12,10,0.0,96.0
230,74.0,12,21,0.0,96.0
231,52.0,0,24,5.0,96.0
232,40.0,0,24,6.0,96.0
233,71.0,0,10,1.0,96.0
234,72.0,12,10,1.0,96.0
235,44.0,0,24,5.0,96.0
236,32.0,0,24,6.0,96.0
237,77.0,24,42,0.0,96.0
238,74.0,12,21,1.0,96.0
239,44.0,0,21,5.0,96.0
240,32.0,0,21,6.0,96.0
241,76.0,24,21,0.0,96.0
242,72.0,0,21,1.0,96.0
243,45.0,0,21,5.0,96.0
244,33.0,0,21,6.0,96.0
245,68.0,24,21,0.0,96.0
246,77.0,0,21,1.0,96.0
247,50.0,0,21,5.0,96.0
248,38.0,0,21,6.0,96.0
249,69.0,24,21,0.0,96.0
250,76.0,0,21,1.0,96.0
251,48.0,0,21,5.0,96.0
252,36.0,0,21,6.0,96.0
253,74.0,24,10,0.0,96.0
254,68.0,0,21,1.0,96.0
255,71.0,12,10,0.0,96.0
256,47.0,0,24,5.0,96.0
257,35.0,0,24,6.0,96.0
258,73.0,12,21,0.0,96.0
259,69.0,0,21,1.0,96.0
260,45.0,0,24,5.0,96.0
261,33.0,0,24,6.0,96.0
262,74.0,24,10,1.0,96.0
263,71.0,12,10,1.0,96.0
264,44.0,0,24,5.0,96.0
265,32.0,0,24,6.0,96.0
266,73.0,0,10,2.0,104.0
267,69.0,0,10,3.0,104.0
268,64.0,0,10,4.0,104.0
269,73.0,12,21,1.0,96.0
270,71.0,12,10,2.0,104.0
271,68.0,0,10,3.0,104.0
272,62.0,0,10,4.0,104.0
273,45.0,0,24,5.0,96.0
274,33.0,0,24,6.0,96.0
275,73.0,12,21,2.0,104.0
276,69.0,0,21,3.0,104.0
277,64.0,0,21,4.0,104.0
278,57.0,0,21,5.0,96.0
279,45.0,0,21,6.0,96.0
280,81.0,24,10,0.0,96.0
281,81.0,0,10,2.0,104.0
282,76.0,0,21,3.0,104.0
283,61.0,0,21,4.0,104.0
284,55.0,0,21,5.0,96.0
285,43.0,0,21,6.0,96.0
286,80.0,12,10,0.0,96.0
287,80.0,0,10,2.0,104.0
288,81.0,12,10,0.0,96.0
289,81.0,0,21,2.0,104.0
290,74.0,0,21,3.0,104.0
291,57.0,0,21,4.0,104.0
292,53.0,0,21,5.0,96.0
293,41.0,0,21,6.0,96.0
294,76.0,12,10,0.0,96.0
295,77.0,12,10,0.0,96.0
296,81.0,0,10,1.0,96.0
297,50.0,0,21,5.0,96.0
298,38.0,0,21,6.0,96.0
299,74.0,12,10,0.0,96.0
300,80.0,0,10,1.0,96.0
301,76.0,12,10,0.0,96.0
302,81.0,0,10,1.0,96.0
303,73.0,12,10,0.0,96.0
304,76.0,0,10,1.0,96.0
305,74.0,12,10,0.0,96.0
306,77.0,0,10,1.0,96.0
307,81.0,0,10,2.0,104.0
308,77.0,0,10,3.0,104.0
309,74.0,0,10,4.0,104.0
310,50.0,0,21,5.0,96.0
311,38.0,0,21,6.0,96.0
312,71.0,12,10,0.0,96.0
313,74.0,0,10,1.0,96.0
314,80.0,0,10,2.0,104.0
315,74.0,0,10,3.0,104.0
316,71.0,0,10,4.0,104.0
317,73.0,12,10,0.0,96.0
318,76.0,0,10,1.0,96.0
319,81.0,0,21,2.0,104.0
320,76.0,0,21,3.0,104.0
321,73.0,0,21,4.0,104.0
322,55.0,0,21,5.0,96.0
323,43.0,0,21,6.0,96.0
324,69.0,12,10,0.0,96.0
325,73.0,0,10,1.0,96.0
326,73.0,12,10,0.0,96.0
327,69.0,0,21,1.0,96.0
328,53.0,0,21,5.0,96.0
329,41.0,0,21,6.0,96.0
330,76.0,12,10,0.0,96.0
331,79.0,12,10,0.0,96.0
332,52.0,0,21,5.0,96.0
333,40.0,0,21,6.0,96.0
334,76.0,12,10,0.0,96.0
335,77.0,12,10,0.0,96.0
336,81.0,0,10,1.0,96.0
337,81.0,0,10,2.0,104.0
338,77.0,0,10,3.0,104.0
339,74.0,0,21,4.0,104.0
340,50.0,0,21,5.0,96.0
341,38.0,0,21,6.0,96.0
342,74.0,12,10,0.0,96.0
343,77.0,0,10,1.0,96.0
344,80.0,0,10,2.0,104.0
345,74.0,0,10,3.0,104.0
346,76.0,12,10,0.0,96.0
347,79.0,0,10,1.0,96.0
348,81.0,0,21,2.0,104.0
349,76.0,0,21,3.0,104.0
350,69.0,0,21,4.0,104.0
351,49.0,0,21,5.0,96.0
352,37.0,0,21,6.0,96.0
353,73.0,12,10,0.0,96.0
354,76.0,0,10,1.0,96.0
355,74.0,12,10,0.0,96.0
356,77.0,0,10,1.0,96.0
357,45.0,0,21,5.0,96.0
358,33.0,0,21,6.0,96.0
359,71.0,12,10,0.0,96.0
360,74.0,0,10,1.0,96.0
361,73.0,12,10,0.0,96.0
362,76.0,0,10,1.0,96.0
363,57.0,0,21,5.0,96.0
364,45.0,0,21,6.0,96.0
365,69.0,12,10,0.0,96.0
366,73.0,0,10,1.0,96.0
367,73.0,12,10,0.0,96.0
368,69.0,0,21,1.0,96.0
369,79.0,0,21,2.0,104.0
370,73.0,0,21,3.0,104.0
371,69.0,0,21,4.0,104.0
372,45.0,0,21,5.0,96.0
373,33.0,0,21,6.0,96.0
374,76.0,12,10,0.0,96.0
375,77.0,12,8,0.0,96.0
376,75.0,8,8,0.0,96.0
377,77.0,0,21,2.0,104.0
378,74.0,0,21,3.0,104.0
379,69.0,0,21,4.0,104.0
380,50.0,0,21,5.0,96.0
381,38.0,0,21,6.0,96.0
382,74.0,8,7,0.0,96.0
383,70.0,0,8,1.0,96.0
384,69.0,8,8,1.0,96.0
385,75.0,0,21,2.0,104.0
386,70.0,0,21,3.0,104.0
387,67.0,0,21,4.0,104.0
388,55.0,0,21,5.0,96.0
389,43.0,0,21,6.0,96.0
390,67.0,8,7,1.0,96.0
391,75.0,8,32,0.0,96.0
392,74.0,8,8,0.0,96.0
393,53.0,0,21,5.0,96.0
394,41.0,0,21,6.0,96.0
395,73.0,8,7,0.0,96.0
396,69.0,8,32,1.0,96.0
397,67.0,8,8,1.0,96.0
398,74.0,0,21,2.0,104.0
399,69.0,0,21,3.0,104.0
400,62.0,0,21,4.0,104.0
401,41.0,0,21,5.0,96.0
402,29.0,0,21,6.0,96.0
403,65.0,8,7,1.0,96.0
404,74.0,8,31,0.0,96.0
405,67.0,8,10,1.0,96.0
406,40.0,0,21,5.0,96.0
407,28.0,0,21,6.0,96.0
408,82.0,12,10,0.0,96.0
409,65.0,0,10,1.0,96.0
410,73.0,12,10,0.0,96.0
411,67.0,0,10,1.0,96.0
412,82.0,0,21,2.0,104.0
413,67.0,0,21,3.0,104.0
414,64.0,0,21,4.0,104.0
415,52.0,0,21,5.0,96.0
416,40.0,0,21,6.0,96.0
417,74.0,12,10,0.0,96.0
418,65.0,0,10,1.0,96.0
419,73.0,12,10,0.0,96.0
420,67.0,0,21,1.0,96.0
421,73.0,0,21,2.0,104.0
422,67.0,0,21,3.0,104.0
423,64.0,0,21,4.0,104.0
424,45.0,0,21,5.0,96.0
425,33.0,0,21,6.0,96.0
426,69.0,12,10,0.0,96.0
427,64.0,12,10,0.0,96.0
428,61.0,12,10,0.0,96.0
429,57.0,12,21,0.0,96.0
430,64.0,24,8,0.0,96.0
431,73.0,0,8,1.0,96.0
432,65.0,8,8,0.0,96.0
433,74.0,0,8,1.0,96.0
434,67.0,8,7,0.0,96.0
435,76.0,0,7,1.0,96.0
436,67.0,8,8,0.0,96.0
437,76.0,0,8,1.0,96.0
438,77.0,0,0,1.0,96.0
439,69.0,8,8,0.0,96.0
440,71.0,8,7,0.0,96.0
441,79.0,0,7,1.0,96.0
442,71.0,8,8,0.0,96.0
443,79.0,0,8,1.0,96.0
444,73.0,8,8,0.0,96.0
445,77.0,0,8,1.0,96.0
446,74.0,8,7,0.0,96.0
447,76.0,0,7,1.0,96.0
448,74.0,8,10,0.0,96.0
449,77.0,0,21,1.0,96.0
450,74.0,0,21,2.0,104.0
451,65.0,0,21,3.0,104.0
452,69.0,0,21,4.0,104.0
453,45.0,0,21,5.0,96.0
454,33.0,0,21,6.0,96.0
455,69.0,12,10,0.0,96.0
456,65.0,12,10,0.0,96.0
457,62.0,12,10,0.0,96.0
458,57.0,12,21,0.0,96.0
459,65.0,24,8,0.0,96.0
460,74.0,0,8,1.0,96.0
461,67.0,8,8,0.0,96.0
462,76.0,0,8,1.0,96.0
463,69.0,8,7,0.0,96.0
464,77.0,0,7,1.0,96.0
465,69.0,8,8,0.0,96.0
466,77.0,0,8,1.0,96.0
467,71.0,8,8,0.0,96.0
468,79.0,0,8,1.0,96.0
469,73.0,8,7,0.0,96.0
470,81.0,0,7,1.0,96.0
471,73.0,8,8,0.0,96.0
472,81.0,0,8,1.0,96.0
473,74.0,8,8,0.0,96.0
474,79.0,0,8,1.0,96.0
475,76.0,8,7,0.0,96.0
476,77.0,0,7,1.0,96.0
477,76.0,8,10,0.0,96.0
478,79.0,0,21,1.0,96.0
479,76.0,0,21,2.0,104.0
480,73.0,0,21,3.0,104.0
481,69.0,0,21,4.0,104.0
482,45.0,0,21,5.0,96.0
483,33.0,0,21,6.0,96.0
484,73.0,12,10,0.0,96.0
485,67.0,12,10,0.0,96.0
486,64.0,12,10,0.0,96.0
487,57.0,12,21,0.0,96.0
488,69.0,24,8,0.0,96.0
489,61.0,0,8,1.0,96.0
490,71.0,8,8,0.0,96.0
491,62.0,0,8,1.0,96.0
492,73.0,8,7,0.0,96.0
493,64.0,0,7,1.0,96.0
494,73.0,8,8,0.0,96.0
495,64.0,0,8,1.0,96.0
496,74.0,8,8,0.0,96.0
497,65.0,0,8,1.0,96.0
498,76.0,8,7,0.0,96.0
499,67.0,0,7,1.0,96.0
500,76.0,8,8,0.0,96.0
501,67.0,0,8,1.0,96.0
502,77.0,8,8,0.0,96.0
503,65.0,0,8,1.0,96.0
504,79.0,8,7,0.0,96.0
505,64.0,0,7,1.0,96.0
506,77.0,8,6,0.0,96.0
507,62.0,0,6,1.0,96.0
508,77.0,0,6,2.0,104.0
509,74.0,12,12,0.0,96.0
510,65.0,0,12,1.0,96.0
511,69.0,0,12,2.0,104.0
512,73.0,12,12,0.0,96.0
513,64.0,0,12,1.0,96.0
514,67.0,0,12,2.0,104.0
515,74.0,0,42,3.0,104.0
516,69.0,0,42,4.0,104.0
517,50.0,0,42,5.0,96.0
518,38.0,0,42,6.0,96.0
519,74.0,12,10,0.0,96.0
520,65.0,0,10,1.0,96.0
521,69.0,0,10,2.0,104.0
522,75.0,12,6,0.0,96.0
523,67.0,0,6,1.0,96.0
524,70.0,0,6,2.0,104.0
525,74.0,12,12,0.0,96.0
526,65.0,0,12,1.0,96.0
527,69.0,0,12,2.0,104.0
528,73.0,12,12,0.0,96.0
529,64.0,0,12,1.0,96.0
530,67.0,0,12,2.0,104.0
531,62.0,0,21,3.0,104.0
532,62.0,0,21,4.0,104.0
533,50.0,0,21,5.0,96.0
534,38.0,0,21,6.0,96.0
535,74.0,12,10,0.0,96.0
536,65.0,0,10,1.0,96.0
537,69.0,0,10,2.0,104.0
538,70.0,12,8,0.0,96.0
539,70.0,0,12,1.0,96.0
540,70.0,0,12,2.0,104.0
541,73.0,8,8,0.0,96.0
542,62.0,0,21,3.0,104.0
543,62.0,0,21,4.0,104.0
544,55.0,0,21,5.0,96.0
545,43.0,0,21,6.0,96.0
546,74.0,8,7,0.0,96.0
547,67.0,8,8,0.0,96.0
548,67.0,0,12,1.0,96.0
549,67.0,0,12,2.0,104.0
550,73.0,8,8,0.0,96.0
551,62.0,0,21,3.0,104.0
552,62.0,0,21,4.0,104.0
553,52.0,0,21,5.0,96.0
554,40.0,0,21,6.0,96.0
555,74.0,8,7,0.0,96.0
556,69.0,8,6,0.0,96.0
557,69.0,0,6,1.0,96.0
558,74.0,0,6,2.0,104.0
559,74.0,12,12,0.0,96.0
560,65.0,0,12,1.0,96.0
561,69.0,0,12,2.0,104.0
562,73.0,12,12,0.0,96.0
563,64.0,0,12,1.0,96.0
564,67.0,0,12,2.0,104.0
565,62.0,0,42,3.0,104.0
566,62.0,0,42,4.0,104.0
567,53.0,0,42,5.0,96.0
568,41.0,0,42,6.0,96.0
569,74.0,12,10,0.0,96.0
570,65.0,0,10,1.0,96.0
571,69.0,0,10,2.0,104.0
572,77.0,12,6,0.0,96.0
573,62.0,0,6,1.0,96.0
574,65.0,0,6,2.0,104.0
575,74.0,12,12,0.0,96.0
576,65.0,0,12,1.0,96.0
577,69.0,0,12,2.0,104.0
578,73.0,12,12,0.0,96.0
579,64.0,0,12,1.0,96.0
580,67.0,0,12,2.0,104.0
581,62.0,0,21,3.0,104.0
582,62.0,0,21,4.0,104.0
583,50.0,0,21,5.0,96.0
584,38.0,0,21,6.0,96.0
585,74.0,12,10,0.0,96.0
586,65.0,0,10,1.0,96.0
587,69.0,0,10,2.0,104.0
588,69.0,12,8,0.0,96.0
589,69.0,0,12,1.0,96.0
590,69.0,0,12,2.0,104.0
591,73.0,8,8,0.0,96.0
592,62.0,0,21,3.0,104.0
593,62.0,0,21,4.0,104.0
594,53.0,0,21,5.0,96.0
595,41.0,0,21,6.0,96.0
596,74.0,8,7,0.0,96.0
597,65.0,8,8,0.0,96.0
598,65.0,0,12,1.0,96.0
599,65.0,0,12,2.0,104.0
600,73.0,8,8,0.0,96.0
601,62.0,0,21,3.0,104.0
602,62.0,0,21,4.0,104.0
603,50.0,0,21,5.0,96.0
604,38.0,0,21,6.0,96.0
605,74.0,8,7,0.0,96.0
606,67.0,8,6,0.0,96.0
607,67.0,0,6,1.0,96.0
608,67.0,0,6,2.0,104.0
609,70.0,0,10,1.0,96.0
610,74.0,12,12,0.0,96.0
611,65.0,0,12,2.0,104.0
612,69.0,0,10,1.0,96.0
613,73.0,12,12,0.0,96.0
614,64.0,0,12,2.0,104.0
615,62.0,0,42,3.0,104.0
616,62.0,0,42,4.0,104.0
617,52.0,0,42,5.0,96.0
618,40.0,0,42,6.0,96.0
619,74.0,12,10,0.0,96.0
620,70.0,0,10,1.0,96.0
621,65.0,0,10,2.0,104.0
622,82.0,12,6,0.0,96.0
623,67.0,0,6,1.0,96.0
624,67.0,0,6,2.0,104.0
625,74.0,12,12,0.0,96.0
626,70.0,0,12,1.0,96.0
627,65.0,0,12,2.0,104.0
628,73.0,12,12,0.0,96.0
629,69.0,0,12,1.0,96.0
630,64.0,0,12,2.0,104.0
631,64.0,0,21,3.0,104.0
632,58.0,0,21,4.0,104.0
633,55.0,0,21,5.0,96.0
634,43.0,0,21,6.0,96.0
635,74.0,12,10,0.0,96.0
636,70.0,0,10,1.0,96.0
637,65.0,0,10,2.0,104.0
638,67.0,12,8,0.0,96.0
639,67.0,0,12,1.0,96.0
640,67.0,0,12,2.0,104.0
641,73.0,8,8,0.0,96.0
642,61.0,0,21,3.0,104.0
643,52.0,0,21,4.0,104.0
644,45.0,0,21,5.0,96.0
645,33.0,0,21,6.0,96.0
646,74.0,8,7,0.0,96.0
647,64.0,8,8,0.0,96.0
648,64.0,0,12,1.0,96.0
649,64.0,0,12,2.0,104.0
650,73.0,8,8,0.0,96.0
651,64.0,0,21,3.0,104.0
652,57.0,0,21,4.0,104.0
653,49.0,0,21,5.0,96.0
654,37.0,0,21,6.0,96.0
655,74.0,8,7,0.0,96.0
656,50.0,0,10,5.0,96.0
657,38.0,0,10,6.0,96.0
658,65.0,8,21,0.0,96.0
659,65.0,0,21,1.0,96.0
660,65.0,0,21,2.0,104.0
661,62.0,0,21,3.0,104.0
662,57.0,0,21,4.0,104.0
663,62.0,12,10,5.0,96.0
664,50.0,0,10,6.0,96.0
665,60.0,0,10,5.0,96.0
666,48.0,0,10,6.0,96.0
667,69.0,12,21,0.0,96.0
668,69.0,0,21,1.0,96.0
669,69.0,0,21,2.0,104.0
670,65.0,0,21,3.0,104.0
671,62.0,0,21,4.0,104.0
672,58.0,12,10,5.0,96.0
673,46.0,0,10,6.0,96.0
674,57.0,0,10,5.0,96.0
675,45.0,0,10,6.0,96.0
676,74.0,12,21,0.0,96.0
677,74.0,0,21,1.0,96.0
678,74.0,0,21,2.0,104.0
679,69.0,0,21,3.0,104.0
680,65.0,0,21,4.0,104.0
681,55.0,12,10,5.0,96.0
682,43.0,0,10,6.0,96.0
683,53.0,0,10,5.0,96.0
684,41.0,0,10,6.0,96.0
685,77.0,12,21,0.0,96.0
686,77.0,0,21,1.0,96.0
687,77.0,0,21,2.0,104.0
688,74.0,0,21,3.0,104.0
689,69.0,0,21,4.0,104.0
690,52.0,12,10,5.0,96.0
691,40.0,0,10,6.0,96.0
692,81.0,12,6,0.0,96.0
693,81.0,0,6,1.0,96.0
694,81.0,0,6,2.0,104.0
695,50.0,0,10,5.0,96.0
696,38.0,0,10,6.0,96.0
697,80.0,6,6,0.0,96.0
698,80.0,0,6,1.0,96.0
699,80.0,0,6,2.0,104.0
700,81.0,6,6,0.0,96.0
701,81.0,0,6,1.0,96.0
702,81.0,0,6,2.0,104.0
703,76.0,0,21,3.0,104.0
704,71.0,0,21,4.0,104.0
705,53.0,0,10,5.0,96.0
706,41.0,0,10,6.0,96.0
707,80.0,6,6,0.0,96.0
708,80.0,0,6,1.0,96.0
709,80.0,0,6,2.0,104.0
710,81.0,6,6,0.0,96.0
711,81.0,0,6,1.0,96.0
712,81.0,0,6,2.0,104.0
713,52.0,0,10,5.0,96.0
714,40.0,0,10,6.0,96.0
715,80.0,0,5,1.0,96.0
716,80.0,0,5,2.0,104.0
717,80.0,6,6,0.0,96.0
718,78.0,0,5,1.0,96.0
719,78.0,0,5,2.0,104.0
720,78.0,6,6,0.0,96.0
721,71.0,0,21,3.0,104.0
722,64.0,0,21,4.0,104.0
723,50.0,0,10,5.0,96.0
724,38.0,0,10,6.0,96.0
725,80.0,6,5,0.0,96.0
726,80.0,0,5,1.0,96.0
727,80.0,0,5,2.0,104.0
728,49.0,0,10,5.0,96.0
729,37.0,0,10,6.0,96.0
730,81.0,6,21,0.0,96.0
731,81.0,0,21,1.0,96.0
732,81.0,0,21,2.0,104.0
733,76.0,0,21,3.0,104.0
734,64.0,0,21,4.0,104.0
735,45.0,12,10,5.0,96.0
736,33.0,0,10,6.0,96.0
737,47.0,0,10,5.0,96.0
738,35.0,0,10,6.0,96.0
739,76.0,12,21,0.0,96.0
740,76.0,0,21,1.0,96.0
741,76.0,0,21,2.0,104.0
742,73.0,0,21,3.0,104.0
743,69.0,0,21,4.0,104.0
744,49.0,12,10,5.0,96.0
745,37.0,0,10,6.0,96.0
746,50.0,0,10,5.0,96.0
747,38.0,0,10,6.0,96.0
748,77.0,12,21,0.0,96.0
749,77.0,0,21,1.0,96.0
750,77.0,0,21,2.0,104.0
751,69.0,0,21,3.0,104.0
752,62.0,0,21,4.0,104.0
753,52.0,12,10,5.0,96.0
754,40.0,0,10,6.0,96.0
755,53.0,0,10,5.0,96.0
756,41.0,0,10,6.0,96.0
757,74.0,12,21,0.0,96.0
758,74.0,0,21,1.0,96.0
759,74.0,0,21,2.0,104.0
760,69.0,0,21,3.0,104.0
761,62.0,0,21,4.0,104.0
762,55.0,12,10,5.0,96.0
763,43.0,0,10,6.0,96.0
764,69.0,12,21,0.0,96.0
765,69.0,0,21,1.0,96.0
766,69.0,0,21,2.0,104.0
767,65.0,0,21,3.0,104.0
768,62.0,0,21,4.0,104.0
769,57.0,0,21,5.0,96.0
770,45.0,0,21,6.0,96.0
771,73.0,24,21,0.0,96.0
772,73.0,0,21,1.0,96.0
773,73.0,0,21,2.0,104.0
774,64.0,0,21,3.0,104.0
775,57.0,0,21,4.0,104.0
776,45.0,0,21,5.0,96.0
777,33.0,0,21,6.0,96.0
778,74.0,24,10,0.0,96.0
779,74.0,0,10,1.0,96.0
780,74.0,0,10,2.0,104.0
781,65.0,0,21,3.0,104.0
782,50.0,0,21,5.0,96.0
783,38.0,0,21,6.0,96.0
784,69.0,12,10,0.0,96.0
785,69.0,0,10,1.0,96.0
786,69.0,0,10,2.0,104.0
787,70.0,12,10,0.0,96.0
788,70.0,0,10,1.0,96.0
789,70.0,0,10,2.0,104.0
790,67.0,0,10,3.0,104.0
791,57.0,0,42,4.0,104.0
792,38.0,0,21,5.0,96.0
793,26.0,0,21,6.0,96.0
794,67.0,12,10,0.0,96.0
795,67.0,0,10,1.0,96.0
796,67.0,0,10,2.0,104.0
797,64.0,0,10,3.0,104.0
798,69.0,12,10,0.0,96.0
799,69.0,0,10,1.0,96.0
800,69.0,0,10,2.0,104.0
801,65.0,0,10,3.0,104.0
802,38.0,0,21,5.0,96.0
803,26.0,0,21,6.0,96.0
804,65.0,12,10,0.0,96.0
805,65.0,0,10,1.0,96.0
806,65.0,0,10,2.0,104.0
807,62.0,0,10,3.0,104.0
808,57.0,0,10,4.0,104.0
809,67.0,12,10,0.0,96.0
810,67.0,0,10,1.0,96.0
811,67.0,0,10,2.0,104.0
812,64.0,0,10,3.0,104.0
813,58.0,0,10,4.0,104.0
814,38.0,0,21,5.0,96.0
815,26.0,0,21,6.0,96.0
816,64.0,12,10,0.0,96.0
817,64.0,0,10,1.0,96.0
818,64.0,0,10,2.0,104.0
819,61.0,0,10,3.0,104.0
820,55.0,0,10,4.0,104.0
821,65.0,12,10,0.0,96.0
822,65.0,0,10,1.0,96.0
823,65.0,0,10,2.0,104.0
824,62.0,0,10,3.0,104.0
825,57.0,0,10,4.0,104.0
826,38.0,0,21,5.0,96.0
827,26.0,0,21,6.0,96.0
828,62.0,12,10,0.0,96.0
829,62.0,0,10,1.0,96.0
830,62.0,0,10,2.0,104.0
831,57.0,0,10,3.0,104.0
832,53.0,0,10,4.0,104.0
833,64.0,12,10,0.0,96.0
834,64.0,0,10,1.0,96.0
835,64.0,0,10,2.0,104.0
836,58.0,0,10,3.0,104.0
837,55.0,0,10,4.0,104.0
838,38.0,0,21,5.0,96.0
839,26.0,0,21,6.0,96.0
840,61.0,12,10,0.0,96.0
841,61.0,0,10,1.0,96.0
842,61.0,0,10,2.0,104.0
843,55.0,0,10,3.0,104.0
844,52.0,0,10,4.0,104.0
845,62.0,12,21,0.0,96.0
846,69.0,24,10,0.0,96.0
847,62.0,0,42,1.0,96.0
848,62.0,0,42,2.0,104.0
849,57.0,0,42,3.0,104.0
850,53.0,0,42,4.0,104.0
851,38.0,0,42,5.0,96.0
852,26.0,0,42,6.0,96.0
853,67.0,12,10,0.0,96.0
854,69.0,12,21,0.0,96.0
855,77.0,24,21,0.0,96.0
856,50.0,0,24,5.0,80.0
857,38.0,0,24,6.0,80.0
858,73.0,24,21,0.0,96.0
859,52.0,0,24,5.0,80.0
860,40.0,0,24,6.0,80.0
861,74.0,24,21,0.0,96.0
862,53.0,0,21,5.0,80.0
863,41.0,0,21,6.0,80.0
864,55.0,24,12,5.0,80.0
865,43.0,0,12,6.0,80.0
866,57.0,12,12,5.0,80.0
867,45.0,0,12,6.0,80.0
868,67.0,12,12,0.0,96.0
869,58.0,0,21,5.0,80.0
870,46.0,0,21,6.0,80.0
871,65.0,12,12,0.0,96.0
872,67.0,12,24,0.0,96.0
873,55.0,0,24,5.0,80.0
874,43.0,0,24,6.0,80.0
875,76.0,24,36,0.0,96.0
876,74.0,12,12,0.0,96.0
877,57.0,24,24,5.0,80.0
878,45.0,0,24,6.0,80.0
879,73.0,12,12,0.0,96.0
880,58.0,0,21,5.0,80.0
881,46.0,0,21,6.0,80.0
882,74.0,12,12,0.0,96.0
883,76.0,12,12,0.0,96.0
884,49.0,0,12,5.0,80.0
885,37.0,0,12,6.0,80.0
886,74.0,12,12,0.0,96.0
887,50.0,0,12,5.0,80.0
888,38.0,0,12,6.0,80.0
889,73.0,12,12,0.0,96.0
890,52.0,0,21,5.0,80.0
891,40.0,0,21,6.0,80.0
892,71.0,12,12,0.0,96.0
893,69.0,12,12,0.0,96.0
894,67.0,12,12,0.0,96.0
895,49.0,0,24,5.0,80.0
896,37.0,0,24,6.0,80.0
897,70.0,12,48,0.0,96.0
898,50.0,24,24,5.0,80.0
899,38.0,0,24,6.0,80.0
900,52.0,0,21,5.0,80.0
901,40.0,0,21,6.0,80.0
902,69.0,24,36,0.0,96.0
903,53.0,24,12,5.0,96.0
904,41.0,0,12,6.0,96.0
905,67.0,12,12,0.0,96.0
906,55.0,0,12,5.0,96.0
907,43.0,0,12,6.0,96.0
908,74.0,0,10,2.0,104.0
909,69.0,0,10,3.0,104.0
910,65.0,0,10,4.0,104.0
911,65.0,12,12,0.0,96.0
912,57.0,0,21,5.0,96.0
913,45.0,0,21,6.0,96.0
914,76.0,0,10,2.0,104.0
915,70.0,0,10,3.0,104.0
916,67.0,0,10,4.0,104.0
917,64.0,12,12,0.0,96.0
918,65.0,12,12,0.0,96.0
919,74.0,0,21,2.0,104.0
920,69.0,0,21,3.0,104.0
921,65.0,0,21,4.0,104.0
922,50.0,0,21,5.0,96.0
923,38.0,0,21,6.0,96.0
924,62.0,12,12,0.0,96.0
925,64.0,12,12,0.0,96.0
926,45.0,0,21,5.0,96.0
927,33.0,0,21,6.0,96.0
928,61.0,12,12,0.0,96.0
929,62.0,12,12,0.0,96.0
930,41.0,0,21,5.0,96.0
931,29.0,0,21,6.0,96.0
932,57.0,12,12,0.0,96.0
933,77.0,0,10,2.0,104.0
934,74.0,0,10,3.0,104.0
935,69.0,0,10,4.0,104.0
936,62.0,12,12,0.0,96.0
937,45.0,0,21,5.0,96.0
938,33.0,0,21,6.0,96.0
939,79.0,0,10,2.0,104.0
940,76.0,0,10,3.0,104.0
941,70.0,0,10,4.0,104.0
942,61.0,12,12,0.0,96.0
943,62.0,12,12,0.0,96.0
944,77.0,0,21,2.0,104.0
945,74.0,0,21,3.0,104.0
946,69.0,0,21,4.0,104.0
947,57.0,12,12,0.0,96.0
948,69.0,0,10,1.0,96.0
949,65.0,12,12,0.0,96.0
950,38.0,0,42,5.0,96.0
951,26.0,0,42,6.0,96.0
952,67.0,0,10,1.0,96.0
953,64.0,12,12,0.0,96.0
954,65.0,12,12,0.0,96.0
955,69.0,0,21,1.0,96.0
956,62.0,12,12,0.0,96.0
957,69.0,12,12,0.0,96.0
958,77.0,0,21,1.0,96.0
959,38.0,0,21,5.0,96.0
960,26.0,0,21,6.0,96.0
961,65.0,12,12,0.0,96.0
962,67.0,12,12,0.0,96.0
963,73.0,0,21,1.0,96.0
964,45.0,0,21,5.0,96.0
965,33.0,0,21,6.0,96.0
966,64.0,12,12,0.0,96.0
967,65.0,12,12,0.0,96.0
968,74.0,0,21,1.0,96.0
969,50.0,0,21,5.0,96.0
970,38.0,0,21,6.0,96.0
971,62.0,12,12,0.0,96.0
972,61.0,12,12,0.0,96.0
973,69.0,12,12,0.0,96.0
974,76.0,12,10,0.0,96.0
975,67.0,0,10,1.0,96.0
976,45.0,0,42,5.0,96.0
977,33.0,0,42,6.0,96.0
978,74.0,12,10,0.0,96.0
979,65.0,0,10,1.0,96.0
980,76.0,12,10,0.0,96.0
981,67.0,0,21,1.0,96.0
982,69.0,12,10,0.0,96.0
983,79.0,12,10,0.0,96.0
984,45.0,0,21,5.0,96.0
985,33.0,0,21,6.0,96.0
986,77.0,12,10,0.0,96.0
987,76.0,0,31,1.0,96.0
988,79.0,12,10,0.0,96.0
989,49.0,0,21,5.0,96.0
990,37.0,0,21,6.0,96.0
991,76.0,12,10,0.0,96.0
992,74.0,0,10,1.0,96.0
993,81.0,12,10,0.0,96.0
994,73.0,0,10,1.0,96.0
995,52.0,0,21,5.0,96.0
996,40.0,0,21,6.0,96.0
997,77.0,12,10,0.0,96.0
998,74.0,0,10,1.0,96.0
999,76.0,0,10,1.0,96.0
1000,79.0,12,21,0.0,96.0
1001,74.0,12,10,1.0,96.0
1002,73.0,0,10,1.0,96.0
1003,57.0,0,42,5.0,96.0
1004,45.0,0,42,6.0,96.0
1005,71.0,12,10,1.0,96.0
1006,69.0,12,31,0.0,96.0
1007,69.0,12,10,1.0,96.0
1008,71.0,12,10,0.0,96.0
1009,67.0,0,10,1.0,96.0
1010,73.0,12,10,0.0,96.0
1011,52.0,0,21,5.0,96.0
1012,40.0,0,21,6.0,96.0
1013,74.0,12,10,0.0,96.0
1014,76.0,12,10,0.0,96.0
1015,70.0,0,42,1.0,96.0
1016,49.0,0,21,5.0,96.0
1017,37.0,0,21,6.0,96.0
1018,77.0,12,10,0.0,96.0
1019,79.0,12,10,0.0,96.0
1020,45.0,0,21,5.0,96.0
1021,33.0,0,21,6.0,96.0
1022,76.0,12,10,0.0,96.0
1023,77.0,12,10,0.0,96.0
1024,69.0,0,36,1.0,96.0
1025,82.0,12,10,0.0,96.0
1026,67.0,0,10,1.0,96.0
1027,81.0,12,10,0.0,96.0
1028,65.0,0,10,1.0,96.0
1029,69.0,0,10,2.0,104.0
1030,65.0,0,10,3.0,104.0
1031,74.0,0,10,4.0,104.0
1032,50.0,0,42,5.0,96.0
1033,38.0,0,42,6.0,96.0
1034,79.0,12,10,0.0,96.0
1035,64.0,0,10,1.0,96.0
1036,70.0,0,10,2.0,104.0
1037,67.0,0,10,3.0,104.0
1038,73.0,0,10,4.0,104.0
1039,81.0,12,10,0.0,96.0
1040,65.0,0,10,1.0,96.0
1041,69.0,0,21,2.0,104.0
1042,65.0,0,21,3.0,104.0
1043,74.0,0,21,4.0,104.0
1044,77.0,12,10,0.0,96.0
1045,62.0,0,10,1.0,96.0
1046,79.0,12,10,0.0,96.0
1047,64.0,0,10,1.0,96.0
1048,45.0,0,21,5.0,96.0
1049,33.0,0,21,6.0,96.0
1050,76.0,12,10,0.0,96.0
1051,61.0,0,10,1.0,96.0
1052,77.0,12,10,0.0,96.0
1053,62.0,0,10,1.0,96.0
1054,41.0,0,21,5.0,96.0
1055,29.0,0,21,6.0,96.0
1056,81.0,12,10,0.0,96.0
1057,57.0,0,10,1.0,96.0
1058,74.0,0,10,2.0,104.0
1059,69.0,0,10,3.0,104.0
1060,65.0,0,10,4.0,104.0
1061,77.0,12,12,0.0,96.0
1062,62.0,0,12,1.0,96.0
1063,45.0,0,21,5.0,96.0
1064,33.0,0,21,6.0,96.0
1065,76.0,0,10,2.0,104.0
1066,70.0,0,10,3.0,104.0
1067,67.0,0,10,4.0,104.0
1068,76.0,12,12,0.0,96.0
1069,61.0,0,12,1.0,96.0
1070,77.0,12,10,0.0,96.0
1071,62.0,0,10,1.0,96.0
1072,74.0,0,21,2.0,104.0
1073,69.0,0,21,3.0,104.0
1074,65.0,0,21,4.0,104.0
1075,81.0,12,10,0.0,96.0
1076,57.0,0,10,1.0,96.0
1077,74.0,12,12,0.0,96.0
1078,65.0,0,12,1.0,96.0
1079,38.0,0,42,5.0,96.0
1080,26.0,0,42,6.0,96.0
1081,73.0,12,12,0.0,96.0
1082,64.0,0,12,1.0,96.0
1083,74.0,12,10,0.0,96.0
1084,66.0,0,12,1.0,96.0
1085,81.0,0,21,2.0,104.0
1086,72.0,0,21,3.0,104.0
1087,66.0,0,21,4.0,104.0
1088,81.0,12,10,0.0,96.0
1089,62.0,0,10,1.0,96.0
1090,72.0,12,12,0.0,96.0
1091,69.0,0,12,1.0,96.0
1092,50.0,0,21,5.0,96.0
1093,38.0,0,21,6.0,96.0
1094,70.0,12,12,0.0,96.0
1095,67.0,0,12,1.0,96.0
1096,72.0,12,10,0.0,96.0
1097,69.0,0,10,1.0,96.0
1098,54.0,0,21,5.0,96.0
1099,42.0,0,21,6.0,96.0
1100,81.0,12,10,0.0,96.0
1101,62.0,0,10,1.0,96.0
1102,70.0,12,10,0.0,96.0
1103,67.0,0,10,1.0,96.0
1104,50.0,0,21,5.0,96.0
1105,38.0,0,21,6.0,96.0
1106,69.0,12,10,0.0,96.0
1107,69.0,0,10,1.0,96.0
1108,67.0,12,10,0.0,96.0
1109,70.0,0,10,1.0,96.0
1110,79.0,0,21,2.0,104.0
1111,70.0,0,21,3.0,104.0
1112,62.0,0,21,4.0,104.0
1113,62.0,12,10,0.0,96.0
1114,74.0,0,10,1.0,96.0
1115,70.0,12,12,0.0,96.0
1116,67.0,0,12,1.0,96.0
1117,55.0,0,42,5.0,96.0
1118,43.0,0,42,6.0,96.0
1119,69.0,12,12,0.0,96.0
1120,66.0,0,12,1.0,96.0
1121,71.0,12,10,0.0,96.0
1122,67.0,0,10,1.0,96.0
1123,77.0,0,21,2.0,104.0
1124,74.0,0,21,3.0,104.0
1125,71.0,0,21,4.0,104.0
1126,67.0,12,10,0.0,96.0
1127,74.0,0,10,1.0,96.0
1128,74.0,12,12,0.0,96.0
1129,65.0,0,12,1.0,96.0
1130,55.0,0,21,5.0,96.0
1131,43.0,0,21,6.0,96.0
1132,72.0,12,12,0.0,96.0
1133,64.0,0,12,1.0,96.0
1134,74.0,12,10,0.0,96.0
1135,65.0,0,10,1.0,96.0
1136,47.0,0,21,5.0,96.0
1137,35.0,0,21,6.0,96.0
1138,67.0,12,10,0.0,96.0
1139,74.0,0,10,1.0,96.0
1140,72.0,12,10,0.0,96.0
1141,64.0,0,10,1.0,96.0
1142,43.0,0,21,5.0,96.0
1143,31.0,0,21,6.0,96.0
1144,74.0,12,10,0.0,96.0
1145,62.0,0,10,1.0,96.0
1146,76.0,12,10,0.0,96.0
1147,60.0,0,10,1.0,96.0
1148,76.0,0,21,2.0,104.0
1149,72.0,0,21,3.0,104.0
1150,67.0,0,21,4.0,104.0
1151,79.0,12,10,0.0,96.0
1152,55.0,0,10,1.0,96.0
1153,72.0,12,12,0.0,96.0
1154,64.0,0,12,1.0,96.0
1155,48.0,0,42,5.0,96.0
1156,36.0,0,42,6.0,96.0
1157,71.0,12,12,0.0,96.0
1158,62.0,0,12,1.0,96.0
1159,72.0,12,10,0.0,96.0
1160,64.0,0,10,1.0,96.0
1161,79.0,0,21,2.0,104.0
1162,70.0,0,21,3.0,104.0
1163,64.0,0,21,4.0,104.0
1164,79.0,12,10,0.0,96.0
1165,60.0,0,10,1.0,96.0
1166,70.0,12,12,0.0,96.0
1167,67.0,0,12,1.0,96.0
1168,48.0,0,21,5.0,96.0
1169,36.0,0,21,6.0,96.0
1170,69.0,12,12,0.0,96.0
1171,65.0,0,12,1.0,96.0
1172,70.0,12,10,0.0,96.0
1173,67.0,0,10,1.0,96.0
1174,52.0,0,21,5.0,96.0
1175,40.0,0,21,6.0,96.0
1176,79.0,12,10,0.0,96.0
1177,60.0,0,10,1.0,96.0
1178,69.0,12,10,0.0,96.0
1179,65.0,0,10,1.0,96.0
1180,48.0,0,21,5.0,96.0
1181,36.0,0,21,6.0,96.0
1182,67.0,12,10,0.0,96.0
1183,67.0,0,10,1.0,96.0
1184,65.0,12,10,0.0,96.0
1185,69.0,0,10,1.0,96.0
1186,77.0,0,21,2.0,104.0
1187,69.0,0,21,3.0,104.0
1188,60.0,0,21,4.0,104.0
1189,60.0,12,10,0.0,96.0
1190,72.0,0,10,1.0,96.0
1191,69.0,12,12,0.0,96.0
1192,65.0,0,12,1.0,96.0
1193,53.0,0,42,5.0,96.0
1194,41.0,0,42,6.0,96.0
1195,67.0,12,12,0.0,96.0
1196,64.0,0,12,1.0,96.0
1197,69.0,12,10,0.0,96.0
1198,65.0,0,10,1.0,96.0
1199,75.0,0,21,2.0,104.0
1200,72.0,0,21,3.0,104.0
1201,69.0,0,21,4.0,104.0
1202,65.0,12,10,0.0,96.0
1203,72.0,0,10,1.0,96.0
1204,72.0,12,12,0.0,96.0
1205,63.0,0,12,1.0,96.0
1206,53.0,0,21,5.0,96.0
1207,41.0,0,21,6.0,96.0
1208,70.0,12,12,0.0,96.0
1209,62.0,0,12,1.0,96.0
1210,72.0,12,10,0.0,96.0
1211,63.0,0,10,1.0,96.0
1212,45.0,0,21,5.0,96.0
1213,33.0,0,21,6.0,96.0
1214,65.0,12,10,0.0,96.0
1215,72.0,0,10,1.0,96.0
1216,70.0,12,10,0.0,96.0
1217,62.0,0,10,1.0,96.0
1218,41.0,0,21,5.0,96.0
1219,29.0,0,21,6.0,96.0
1220,72.0,12,10,0.0,96.0
1221,60.0,0,10,1.0,96.0
1222,74.0,12,10,0.0,96.0
1223,58.0,0,10,1.0,96.0
1224,74.0,0,21,2.0,104.0
1225,70.0,0,21,3.0,104.0
1226,65.0,0,21,4.0,104.0
1227,65.0,12,10,0.0,96.0
1228,62.0,0,10,1.0,96.0
1229,70.0,12,10,0.0,96.0
1230,65.0,0,10,1.0,96.0
1231,46.0,0,42,5.0,96.0
1232,34.0,0,42,6.0,96.0
1233,74.0,12,10,0.0,96.0
1234,70.0,0,10,1.0,96.0
1235,74.0,0,10,1.0,96.0
1236,67.0,12,21,0.0,96.0
1237,79.0,0,21,2.0,104.0
1238,74.0,0,21,3.0,104.0
1239,70.0,0,21,4.0,104.0
1240,70.0,12,10,1.0,96.0
1241,72.0,0,10,1.0,96.0
1242,50.0,0,21,5.0,96.0
1243,38.0,0,21,6.0,96.0
1244,69.0,12,10,1.0,96.0
1245,79.0,12,31,0.0,96.0
1246,70.0,12,21,1.0,96.0
1247,43.0,0,21,5.0,96.0
1248,31.0,0,21,6.0,96.0
1249,76.0,12,10,0.0,96.0
1250,77.0,12,10,0.0,96.0
1251,46.0,0,21,5.0,96.0
1252,34.0,0,21,6.0,96.0
1253,74.0,12,10,0.0,96.0
1254,74.0,0,31,1.0,96.0
1255,76.0,12,10,0.0,96.0
1256,76.0,0,21,2.0,104.0
1257,72.0,0,21,3.0,104.0
1258,67.0,0,21,4.0,104.0
1259,67.0,12,10,0.0,96.0
1260,64.0,0,10,1.0,96.0
1261,72.0,12,10,0.0,96.0
1262,67.0,0,10,1.0,96.0
1263,48.0,0,42,5.0,96.0
1264,36.0,0,42,6.0,96.0
1265,76.0,12,10,0.0,96.0
1266,72.0,0,10,1.0,96.0
1267,76.0,0,10,1.0,96.0
1268,69.0,12,21,0.0,96.0
1269,81.0,0,21,2.0,104.0
1270,76.0,0,21,3.0,104.0
1271,72.0,0,21,4.0,104.0
1272,72.0,12,10,1.0,96.0
1273,74.0,0,10,1.0,96.0
1274,52.0,0,21,5.0,96.0
1275,40.0,0,21,6.0,96.0
1276,70.0,12,10,1.0,96.0
1277,81.0,12,31,0.0,96.0
1278,72.0,12,21,1.0,96.0
1279,45.0,0,21,5.0,96.0
1280,33.0,0,21,6.0,96.0
1281,77.0,12,10,0.0,96.0
1282,79.0,12,10,0.0,96.0
1283,48.0,0,21,5.0,96.0
1284,36.0,0,21,6.0,96.0
1285,76.0,12,10,0.0,96.0
1286,76.0,0,31,1.0,96.0
1287,77.0,12,10,0.0,96.0
1288,77.0,0,21,2.0,104.0
1289,74.0,0,21,3.0,104.0
1290,69.0,0,21,4.0,104.0
1291,69.0,12,10,0.0,96.0
1292,65.0,0,10,1.0,96.0
1293,74.0,12,10,0.0,96.0
1294,69.0,0,10,1.0,96.0
1295,50.0,0,42,5.0,96.0
1296,38.0,0,42,6.0,96.0
1297,77.0,12,10,0.0,96.0
1298,74.0,0,10,1.0,96.0
1299,77.0,0,10,1.0,96.0
1300,70.0,12,21,0.0,96.0
1301,82.0,0,21,2.0,104.0
1302,77.0,0,21,3.0,104.0
1303,74.0,0,21,4.0,104.0
1304,74.0,12,10,1.0,96.0
1305,75.0,0,10,1.0,96.0
1306,53.0,0,21,5.0,96.0
1307,41.0,0,21,6.0,96.0
1308,72.0,12,10,1.0,96.0
1309,82.0,12,31,0.0,96.0
1310,74.0,12,21,1.0,96.0
1311,45.0,0,21,5.0,96.0
1312,33.0,0,21,6.0,96.0
1313,79.0,12,10,0.0,96.0
1314,81.0,12,10,0.0,96.0
1315,50.0,0,21,5.0,96.0
1316,38.0,0,21,6.0,96.0
1317,77.0,12,10,0.0,96.0
1318,77.0,0,31,1.0,96.0
1319,79.0,12,10,0.0,96.0
1320,79.0,0,21,2.0,104.0
1321,72.0,0,21,3.0,104.0
1322,67.0,0,21,4.0,104.0
1323,72.0,12,10,0.0,96.0
1324,67.0,0,10,1.0,96.0
1325,76.0,12,10,0.0,96.0
1326,72.0,0,10,1.0,96.0
1327,52.0,0,42,5.0,96.0
1328,40.0,0,42,6.0,96.0
1329,79.0,12,10,0.0,96.0
1330,76.0,0,10,1.0,96.0
1331,79.0,0,10,1.0,96.0
1332,72.0,12,21,0.0,96.0
1333,84.0,0,21,2.0,104.0
1334,76.0,0,21,3.0,104.0
1335,67.0,0,21,4.0,104.0
1336,76.0,12,10,1.0,96.0
1337,77.0,0,10,1.0,96.0
1338,84.0,12,21,0.0,96.0
1339,55.0,0,21,5.0,96.0
1340,43.0,0,21,6.0,96.0
1341,74.0,12,10,1.0,96.0
1342,84.0,12,10,0.0,96.0
1343,76.0,0,21,1.0,96.0
1344,60.0,0,21,5.0,96.0
1345,48.0,0,21,6.0,96.0
1346,81.0,12,10,0.0,96.0
1347,82.0,12,10,0.0,96.0
1348,77.0,0,10,2.0,104.0
1349,72.0,0,10,3.0,104.0
1350,67.0,0,21,4.0,104.0
1351,48.0,0,21,5.0,96.0
1352,36.0,0,21,6.0,96.0
1353,79.0,12,10,0.0,96.0
1354,76.0,0,10,2.0,104.0
1355,70.0,0,10,3.0,104.0
1356,81.0,12,10,0.0,96.0
1357,77.0,0,21,2.0,104.0
1358,69.0,0,21,3.0,104.0
1359,65.0,0,21,4.0,104.0
1360,53.0,0,21,5.0,96.0
1361,41.0,0,21,6.0,96.0
1362,72.0,12,10,0.0,96.0
1363,74.0,12,10,0.0,96.0
1364,77.0,0,10,1.0,96.0
1365,41.0,0,10,5.0,96.0
1366,29.0,0,10,6.0,96.0
1367,70.0,12,10,0.0,96.0
1368,76.0,0,10,1.0,96.0
1369,43.0,0,10,5.0,96.0
1370,31.0,0,10,6.0,96.0
1371,72.0,12,10,0.0,96.0
1372,77.0,0,10,1.0,96.0
1373,45.0,0,21,5.0,96.0
1374,33.0,0,21,6.0,96.0
1375,69.0,12,10,0.0,96.0
1376,72.0,0,10,1.0,96.0
1377,70.0,12,10,0.0,96.0
1378,74.0,0,10,1.0,96.0
1379,77.0,0,10,2.0,104.0
1380,74.0,0,10,3.0,104.0
1381,70.0,0,10,4.0,104.0
1382,67.0,12,10,0.0,96.0
1383,70.0,0,10,1.0,96.0
1384,76.0,0,10,2.0,104.0
1385,70.0,0,10,3.0,104.0
1386,67.0,0,10,4.0,104.0
1387,69.0,12,10,0.0,96.0
1388,72.0,0,10,1.0,96.0
1389,77.0,0,21,2.0,104.0
1390,72.0,0,21,3.0,104.0
1391,69.0,0,21,4.0,104.0
1392,65.0,12,10,0.0,96.0
1393,69.0,0,10,1.0,96.0
1394,67.0,12,10,0.0,96.0
1395,70.0,0,10,1.0,96.0
1396,48.0,0,21,5.0,96.0
1397,36.0,0,21,6.0,96.0
1398,64.0,12,10,0.0,96.0
1399,67.0,0,10,1.0,96.0
1400,69.0,0,10,1.0,96.0
1401,65.0,12,21,0.0,96.0
1402,41.0,0,21,5.0,96.0
1403,29.0,0,21,6.0,96.0
1404,65.0,12,10,1.0,96.0
1405,67.0,0,10,1.0,96.0
1406,74.0,0,10,2.0,104.0
1407,70.0,0,10,3.0,104.0
1408,67.0,0,10,4.0,104.0
1409,74.0,12,21,0.0,96.0
1410,64.0,12,10,1.0,96.0
1411,72.0,0,10,2.0,104.0
1412,67.0,0,10,3.0,104.0
1413,64.0,0,10,4.0,104.0
1414,65.0,0,10,1.0,96.0
1415,74.0,12,21,0.0,96.0
1416,74.0,0,21,2.0,104.0
1417,69.0,0,21,3.0,104.0
1418,65.0,0,21,4.0,104.0
1419,69.0,12,10,1.0,96.0
1420,67.0,0,10,1.0,96.0
1421,40.0,0,21,5.0,96.0
1422,28.0,0,21,6.0,96.0
1423,70.0,12,10,1.0,96.0
1424,72.0,12,31,0.0,96.0
1425,69.0,12,21,1.0,96.0
1426,41.0,0,21,5.0,96.0
1427,29.0,0,21,6.0,96.0
1428,74.0,12,10,0.0,96.0
1429,76.0,12,10,0.0,96.0
1430,76.0,0,10,2.0,104.0
1431,70.0,0,10,3.0,104.0
1432,67.0,0,10,4.0,104.0
1433,70.0,0,21,1.0,96.0
1434,43.0,0,21,5.0,96.0
1435,31.0,0,21,6.0,96.0
1436,72.0,12,10,0.0,96.0
1437,72.0,0,10,2.0,104.0
1438,67.0,0,10,3.0,104.0
1439,64.0,0,10,4.0,104.0
1440,77.0,12,10,0.0,96.0
1441,72.0,0,21,1.0,96.0
1442,77.0,0,21,2.0,104.0
1443,72.0,0,21,3.0,104.0
1444,60.0,0,21,4.0,104.0
1445,45.0,0,21,5.0,96.0
1446,33.0,0,21,6.0,96.0
1447,76.0,12,10,0.0,96.0
1448,74.0,0,10,1.0,96.0
1449,43.0,0,21,5.0,96.0
1450,31.0,0,21,6.0,96.0
1451,76.0,12,10,1.0,96.0
1452,77.0,12,31,0.0,96.0
1453,77.0,12,10,1.0,96.0
1454,45.0,0,21,5.0,96.0
1455,33.0,0,21,6.0,96.0
1456,79.0,12,10,0.0,96.0
1457,76.0,0,10,1.0,96.0
1458,81.0,12,10,0.0,96.0
1459,77.0,0,10,1.0,96.0
1460,81.0,0,10,2.0,104.0
1461,77.0,0,10,3.0,104.0
1462,72.0,0,10,4.0,104.0
1463,41.0,0,21,5.0,96.0
1464,29.0,0,21,6.0,96.0
1465,79.0,12,10,0.0,96.0
1466,76.0,0,10,1.0,96.0
1467,79.0,0,10,2.0,104.0
1468,76.0,0,10,3.0,104.0
1469,74.0,0,10,4.0,104.0
1470,82.0,12,12,0.0,96.0
1471,77.0,0,21,1.0,96.0
1472,82.0,0,21,2.0,104.0
1473,77.0,0,21,3.0,104.0
1474,70.0,0,21,4.0,104.0
1475,38.0,0,21,5.0,96.0
1476,26.0,0,21,6.0,96.0
1477,81.0,12,10,0.0,96.0
1478,79.0,12,12,0.0,96.0
1479,50.0,0,21,5.0,96.0
1480,38.0,0,21,6.0,96.0
1481,77.0,12,10,0.0,96.0
1482,77.0,0,24,1.0,96.0
1483,79.0,0,6,1.0,96.0
1484,83.0,12,12,0.0,96.0
1485,77.0,6,6,1.0,96.0
1486,79.0,0,6,1.0,96.0
1487,48.0,0,21,5.0,96.0
1488,36.0,0,21,6.0,96.0
1489,84.0,6,10,0.0,96.0
1490,77.0,6,5,1.0,96.0
1491,84.0,0,10,2.0,104.0
1492,79.0,0,10,3.0,104.0
1493,76.0,0,10,4.0,104.0
1494,72.0,6,21,0.0,96.0
1495,76.0,0,21,1.0,96.0
1496,36.0,0,21,5.0,96.0
1497,24.0,0,21,6.0,96.0
1498,83.0,12,10,2.0,104.0
1499,77.0,0,10,3.0,104.0
1500,74.0,0,10,4.0,104.0
1501,84.0,12,10,2.0,104.0
1502,79.0,0,10,3.0,104.0
1503,76.0,0,10,4.0,104.0
1504,40.0,0,21,5.0,96.0
1505,28.0,0,21,6.0,96.0
1506,79.0,12,10,2.0,104.0
1507,76.0,0,10,3.0,104.0
1508,72.0,0,10,4.0,104.0
1509,76.0,12,10,2.0,104.0
1510,72.0,0,10,3.0,104.0
1511,67.0,0,10,4.0,104.0
1512,43.0,0,21,5.0,96.0
1513,31.0,0,21,6.0,96.0
1514,79.0,12,10,2.0,104.0
1515,76.0,0,10,3.0,104.0
1516,72.0,0,10,4.0,104.0
1517,48.0,0,10,5.0,96.0
1518,36.0,0,10,6.0,96.0
1519,72.0,12,21,2.0,104.0
1520,67.0,0,21,3.0,104.0
1521,64.0,0,21,4.0,104.0
1522,60.0,12,10,5.0,96.0
1523,48.0,0,10,6.0,96.0
1524,58.0,12,10,5.0,96.0
1525,46.0,0,10,6.0,96.0
1526,60.0,12,10,5.0,96.0
1527,48.0,0,10,6.0,96.0
1528,85.0,12,21,0.0,96.0
1529,76.0,0,21,0.0,96.0
1530,79.0,0,21,1.0,96.0
1531,69.0,0,21,1.0,96.0
1532,57.0,0,21,5.0,96.0
1533,45.0,0,21,6.0,96.0
1534,69.0,0,10,2.0,104.0
1535,69.0,0,10,3.0,104.0
1536,69.0,0,10,4.0,104.0
1537,85.0,24,21,0.0,96.0
1538,76.0,0,21,0.0,96.0
1539,79.0,0,21,1.0,96.0
1540,69.0,0,21,1.0,96.0
1541,67.0,12,10,2.0,104.0
1542,67.0,0,10,3.0,104.0
1543,67.0,0,10,4.0,104.0
1544,69.0,0,10,2.0,104.0
1545,69.0,0,10,3.0,104.0
1546,69.0,0,10,4.0,104.0
1547,85.0,12,21,0.0,96.0
1548,76.0,0,21,0.0,96.0
1549,79.0,0,21,1.0,96.0
1550,69.0,0,21,1.0,96.0
1551,64.0,12,10,2.0,104.0
1552,64.0,0,10,3.0,104.0
1553,64.0,0,10,4.0,104.0
1554,61.0,0,10,2.0,104.0
1555,61.0,0,10,3.0,104.0
1556,61.0,0,10,4.0,104.0
1557,85.0,12,21,0.0,96.0
1558,76.0,0,21,0.0,96.0
1559,79.0,0,21,1.0,96.0
1560,69.0,0,21,1.0,96.0
1561,64.0,12,10,2.0,104.0
1562,64.0,0,10,3.0,104.0
1563,64.0,0,10,4.0,104.0
1564,85.0,12,21,0.0,96.0
1565,76.0,0,21,0.0,96.0
1566,79.0,0,21,1.0,96.0
1567,69.0,0,21,1.0,96.0
1568,57.0,0,21,2.0,104.0
1569,57.0,0,21,3.0,104.0
1570,57.0,0,21,4.0,104.0
1571,57.0,12,10,5.0,96.0
1572,45.0,0,10,6.0,96.0
1573,55.0,0,10,5.0,96.0
1574,43.0,0,10,6.0,96.0
1575,85.0,12,21,0.0,96.0
1576,76.0,0,21,0.0,96.0
1577,79.0,0,21,1.0,96.0
1578,69.0,0,21,1.0,96.0
1579,57.0,12,10,5.0,96.0
1580,45.0,0,10,6.0,96.0
1581,86.0,12,21,0.0,96.0
1582,74.0,0,21,0.0,96.0
1583,77.0,0,21,1.0,96.0
1584,69.0,0,21,1.0,96.0
1585,50.0,0,21,5.0,96.0
1586,38.0,0,21,6.0,96.0
1587,74.0,0,10,2.0,104.0
1588,74.0,0,10,3.0,104.0
1589,74.0,0,10,4.0,104.0
1590,86.0,24,21,0.0,96.0
1591,74.0,0,21,0.0,96.0
1592,77.0,0,21,1.0,96.0
1593,69.0,0,21,1.0,96.0
1594,73.0,12,10,2.0,104.0
1595,73.0,0,10,3.0,104.0
1596,73.0,0,10,4.0,104.0
1597,74.0,0,10,2.0,104.0
1598,74.0,0,10,3.0,104.0
1599,74.0,0,10,4.0,104.0
1600,86.0,12,21,0.0,96.0
1601,74.0,0,21,0.0,96.0
1602,77.0,0,21,1.0,96.0
1603,69.0,0,21,1.0,96.0
1604,69.0,12,10,2.0,104.0
1605,69.0,0,10,3.0,104.0
1606,69.0,0,10,4.0,104.0
1607,65.0,0,10,2.0,104.0
1608,65.0,0,10,3.0,104.0
1609,65.0,0,10,4.0,104.0
1610,86.0,12,21,0.0,96.0
1611,74.0,0,21,0.0,96.0
1612,77.0,0,21,1.0,96.0
1613,69.0,0,21,1.0,96.0
1614,69.0,12,10,2.0,104.0
1615,69.0,0,10,3.0,104.0
1616,69.0,0,10,4.0,104.0
1617,86.0,12,21,0.0,96.0
1618,74.0,0,21,0.0,96.0
1619,77.0,0,21,1.0,96.0
1620,69.0,0,21,1.0,96.0
1621,62.0,0,21,2.0,104.0
1622,62.0,0,21,3.0,104.0
1623,62.0,0,21,4.0,104.0
1624,50.0,12,10,5.0,96.0
1625,38.0,0,10,6.0,96.0
1626,52.0,0,10,5.0,96.0
1627,40.0,0,10,6.0,96.0
1628,86.0,12,21,0.0,96.0
1629,74.0,0,21,0.0,96.0
1630,77.0,0,21,1.0,96.0
1631,69.0,0,21,1.0,96.0
1632,53.0,12,10,5.0,96.0
1633,41.0,0,10,6.0,96.0
1634,86.0,12,21,0.0,96.0
1635,76.0,0,21,0.0,96.0
1636,80.0,0,21,1.0,96.0
1637,71.0,0,21,1.0,96.0
1638,52.0,0,21,5.0,96.0
1639,40.0,0,21,6.0,96.0
1640,76.0,0,10,2.0,104.0
1641,76.0,0,10,3.0,104.0
1642,76.0,0,10,4.0,104.0
1643,86.0,24,21,0.0,96.0
1644,76.0,0,21,0.0,96.0
1645,80.0,0,21,1.0,96.0
1646,71.0,0,21,1.0,96.0
1647,74.0,12,10,2.0,104.0
1648,74.0,0,10,3.0,104.0
1649,74.0,0,10,4.0,104.0
1650,76.0,0,10,2.0,104.0
1651,76.0,0,10,3.0,104.0
1652,76.0,0,10,4.0,104.0
1653,86.0,12,21,0.0,96.0
1654,76.0,0,21,0.0,96.0
1655,80.0,0,21,1.0,96.0
1656,71.0,0,21,1.0,96.0
1657,71.0,12,10,2.0,104.0
1658,71.0,0,10,3.0,104.0
1659,71.0,0,10,4.0,104.0
1660,68.0,0,10,2.0,104.0
1661,68.0,0,10,3.0,104.0
1662,68.0,0,10,4.0,104.0
1663,86.0,12,21,0.0,96.0
1664,76.0,0,21,0.0,96.0
1665,80.0,0,21,1.0,96.0
1666,71.0,0,21,1.0,96.0
1667,71.0,12,10,2.0,104.0
1668,71.0,0,10,3.0,104.0
1669,71.0,0,10,4.0,104.0
1670,86.0,12,21,0.0,96.0
1671,76.0,0,21,0.0,96.0
1672,80.0,0,21,1.0,96.0
1673,71.0,0,21,1.0,96.0
1674,64.0,0,21,2.0,104.0
1675,64.0,0,21,3.0,104.0
1676,64.0,0,21,4.0,104.0
1677,52.0,12,10,5.0,96.0
1678,40.0,0,10,6.0,96.0
1679,50.0,0,10,5.0,96.0
1680,38.0,0,10,6.0,96.0
1681,86.0,12,21,0.0,96.0
1682,76.0,0,21,0.0,96.0
1683,80.0,0,21,1.0,96.0
1684,71.0,0,21,1.0,96.0
1685,52.0,12,10,5.0,96.0
1686,40.0,0,10,6.0,96.0
1687,84.0,12,21,0.0,96.0
1688,76.0,0,21,0.0,96.0
1689,81.0,0,21,1.0,96.0
1690,69.0,0,21,1.0,96.0
1691,45.0,0,21,5.0,96.0
1692,33.0,0,21,6.0,96.0
1693,69.0,0,10,2.0,104.0
1694,69.0,0,10,3.0,104.0
1695,69.0,0,10,4.0,104.0
1696,84.0,24,21,0.0,96.0
1697,76.0,0,21,0.0,96.0
1698,81.0,0,21,1.0,96.0
1699,69.0,0,21,1.0,96.0
1700,68.0,12,10,2.0,104.0
1701,68.0,0,10,3.0,104.0
1702,68.0,0,10,4.0,104.0
1703,69.0,0,10,2.0,104.0
1704,69.0,0,10,3.0,104.0
1705,69.0,0,10,4.0,104.0
1706,84.0,12,21,0.0,96.0
1707,76.0,0,21,0.0,96.0
1708,81.0,0,21,1.0,96.0
1709,69.0,0,21,1.0,96.0
1710,64.0,12,10,2.0,104.0
1711,64.0,0,10,3.0,104.0
1712,64.0,0,10,4.0,104.0
1713,60.0,0,10,2.0,104.0
1714,60.0,0,10,3.0,104.0
1715,60.0,0,10,4.0,104.0
1716,84.0,12,21,0.0,96.0
1717,76.0,0,21,0.0,96.0
1718,81.0,0,21,1.0,96.0
1719,69.0,0,21,1.0,96.0
1720,64.0,12,10,2.0,104.0
1721,64.0,0,10,3.0,104.0
1722,64.0,0,10,4.0,104.0
1723,84.0,12,21,0.0,96.0
1724,76.0,0,21,0.0,96.0
1725,81.0,0,21,1.0,96.0
1726,69.0,0,21,1.0,96.0
1727,57.0,0,21,2.0,104.0
1728,57.0,0,21,3.0,104.0
1729,57.0,0,21,4.0,104.0
1730,45.0,12,10,5.0,96.0
1731,33.0,0,10,6.0,96.0
1732,44.0,0,10,5.0,96.0
1733,32.0,0,10,6.0,96.0
1734,84.0,12,21,0.0,96.0
1735,76.0,0,21,0.0,96.0
1736,81.0,0,21,1.0,96.0
1737,69.0,0,21,1.0,96.0
1738,45.0,12,10,5.0,96.0
1739,33.0,0,10,6.0,96.0
1740,84.0,12,21,0.0,96.0
1741,74.0,0,21,0.0,96.0
1742,77.0,0,21,1.0,96.0
1743,69.0,0,21,1.0,96.0
1744,62.0,12,10,2.0,104.0
1745,67.0,0,10,2.0,104.0
1746,38.0,0,42,5.0,96.0
1747,26.0,0,42,6.0,96.0
1748,84.0,12,21,0.0,96.0
1749,74.0,0,21,0.0,96.0
1750,77.0,0,21,1.0,96.0
1751,69.0,0,21,1.0,96.0
1752,65.0,12,10,2.0,104.0
1753,67.0,0,10,2.0,104.0
1754,83.0,12,21,0.0,96.0
1755,74.0,0,21,0.0,96.0
1756,77.0,0,21,1.0,96.0
1757,67.0,0,21,1.0,96.0
1758,62.0,12,10,2.0,104.0
1759,62.0,0,10,3.0,104.0
1760,71.0,0,10,2.0,104.0
1761,67.0,0,10,3.0,104.0
1762,83.0,12,21,0.0,96.0
1763,74.0,0,21,0.0,96.0
1764,77.0,0,21,1.0,96.0
1765,67.0,0,21,1.0,96.0
1766,50.0,0,21,5.0,96.0
1767,38.0,0,21,6.0,96.0
1768,69.0,12,10,2.0,104.0
1769,65.0,0,10,3.0,104.0
1770,71.0,0,10,2.0,104.0
1771,67.0,0,10,3.0,104.0
1772,83.0,12,21,0.0,96.0
1773,74.0,0,21,0.0,96.0
1774,77.0,0,21,1.0,96.0
1775,67.0,0,21,1.0,96.0
1776,47.0,0,21,5.0,96.0
1777,35.0,0,21,6.0,96.0
1778,67.0,12,10,2.0,104.0
1779,62.0,0,10,3.0,104.0
1780,59.0,0,10,4.0,104.0
1781,71.0,0,10,2.0,104.0
1782,67.0,0,10,3.0,104.0
1783,62.0,0,10,4.0,104.0
1784,83.0,12,21,0.0,96.0
1785,74.0,0,21,0.0,96.0
1786,77.0,0,21,1.0,96.0
1787,67.0,0,21,1.0,96.0
1788,43.0,0,21,5.0,96.0
1789,31.0,0,21,6.0,96.0
1790,74.0,12,10,2.0,104.0
1791,71.0,0,10,3.0,104.0
1792,67.0,0,10,4.0,104.0
1793,76.0,0,10,2.0,104.0
1794,83.0,12,21,0.0,96.0
1795,72.0,0,21,0.0,96.0
1796,76.0,0,21,1.0,96.0
1797,67.0,0,21,1.0,96.0
1798,72.0,0,21,3.0,104.0
1799,67.0,0,21,4.0,104.0
1800,60.0,12,10,2.0,104.0
1801,65.0,0,10,2.0,104.0
1802,48.0,0,42,5.0,96.0
1803,36.0,0,42,6.0,96.0
1804,83.0,12,21,0.0,96.0
1805,72.0,0,21,0.0,96.0
1806,76.0,0,21,1.0,96.0
1807,67.0,0,21,1.0,96.0
1808,64.0,12,10,2.0,104.0
1809,65.0,0,10,2.0,104.0
1810,81.0,12,21,0.0,96.0
1811,72.0,0,21,0.0,96.0
1812,76.0,0,21,1.0,96.0
1813,65.0,0,21,1.0,96.0
1814,60.0,12,10,2.0,104.0
1815,60.0,0,10,3.0,104.0
1816,69.0,0,10,2.0,104.0
1817,65.0,0,10,3.0,104.0
1818,81.0,12,21,0.0,96.0
1819,72.0,0,21,0.0,96.0
1820,76.0,0,21,1.0,96.0
1821,65.0,0,21,1.0,96.0
1822,48.0,0,21,5.0,96.0
1823,36.0,0,21,6.0,96.0
1824,67.0,12,10,2.0,104.0
1825,64.0,0,10,3.0,104.0
1826,69.0,0,10,2.0,104.0
1827,65.0,0,10,3.0,104.0
1828,81.0,12,21,0.0,96.0
1829,72.0,0,21,0.0,96.0
1830,76.0,0,21,1.0,96.0
1831,65.0,0,21,1.0,96.0
1832,45.0,0,21,5.0,96.0
1833,33.0,0,21,6.0,96.0
1834,65.0,12,10,2.0,104.0
1835,60.0,0,10,3.0,104.0
1836,57.0,0,10,4.0,104.0
1837,69.0,0,10,2.0,104.0
1838,65.0,0,10,3.0,104.0
1839,60.0,0,10,4.0,104.0
1840,81.0,12,21,0.0,96.0
1841,72.0,0,21,0.0,96.0
1842,76.0,0,21,1.0,96.0
1843,65.0,0,21,1.0,96.0
1844,41.0,0,21,5.0,96.0
1845,29.0,0,21,6.0,96.0
1846,72.0,12,10,2.0,104.0
1847,69.0,0,10,3.0,104.0
1848,65.0,0,10,4.0,104.0
1849,74.0,0,10,2.0,104.0
1850,81.0,12,21,0.0,96.0
1851,71.0,0,21,0.0,96.0
1852,74.0,0,21,1.0,96.0
1853,65.0,0,21,1.0,96.0
1854,71.0,0,21,3.0,104.0
1855,65.0,0,21,4.0,104.0
1856,59.0,12,10,2.0,104.0
1857,64.0,0,10,2.0,104.0
1858,47.0,0,42,5.0,96.0
1859,35.0,0,42,6.0,96.0
1860,81.0,12,21,0.0,96.0
1861,71.0,0,21,0.0,96.0
1862,74.0,0,21,1.0,96.0
1863,65.0,0,21,1.0,96.0
1864,62.0,12,10,2.0,104.0
1865,64.0,0,10,2.0,104.0
1866,80.0,12,21,0.0,96.0
1867,71.0,0,21,0.0,96.0
1868,74.0,0,21,1.0,96.0
1869,64.0,0,21,1.0,96.0
1870,59.0,12,10,2.0,104.0
1871,59.0,0,10,3.0,104.0
1872,68.0,0,10,2.0,104.0
1873,64.0,0,10,3.0,104.0
1874,80.0,12,21,0.0,96.0
1875,71.0,0,21,0.0,96.0
1876,74.0,0,21,1.0,96.0
1877,64.0,0,21,1.0,96.0
1878,47.0,0,21,5.0,96.0
1879,35.0,0,21,6.0,96.0
1880,66.0,12,10,2.0,104.0
1881,62.0,0,10,3.0,104.0
1882,68.0,0,10,2.0,104.0
1883,64.0,0,10,3.0,104.0
1884,80.0,12,21,0.0,96.0
1885,71.0,0,21,0.0,96.0
1886,74.0,0,21,1.0,96.0
1887,64.0,0,21,1.0,96.0
1888,52.0,0,21,5.0,96.0
1889,40.0,0,21,6.0,96.0
1890,64.0,12,10,2.0,104.0
1891,59.0,0,10,3.0,104.0
1892,56.0,0,10,4.0,104.0
1893,68.0,0,10,2.0,104.0
1894,64.0,0,10,3.0,104.0
1895,59.0,0,10,4.0,104.0
1896,80.0,12,21,0.0,96.0
1897,71.0,0,21,0.0,96.0
1898,74.0,0,21,1.0,96.0
1899,64.0,0,21,1.0,96.0
1900,40.0,0,21,5.0,96.0
1901,28.0,0,21,6.0,96.0
1902,71.0,12,10,2.0,104.0
1903,68.0,0,10,3.0,104.0
1904,64.0,0,10,4.0,104.0
1905,81.0,12,21,0.0,96.0
1906,69.0,0,21,0.0,96.0
1907,72.0,0,21,1.0,96.0
1908,64.0,0,21,1.0,96.0
1909,72.0,0,21,2.0,104.0
1910,69.0,0,21,3.0,104.0
1911,64.0,0,21,4.0,104.0
1912,76.0,24,10,0.0,96.0
1913,45.0,0,42,5.0,96.0
1914,33.0,0,42,6.0,96.0
1915,74.0,12,10,0.0,96.0
1916,76.0,12,21,0.0,96.0
1917,84.0,24,21,0.0,96.0
1918,45.0,0,24,5.0,96.0
1919,33.0,0,24,6.0,96.0
1920,80.0,24,21,0.0,96.0
1921,47.0,0,24,5.0,96.0
1922,35.0,0,24,6.0,96.0
1923,81.0,24,21,0.0,96.0
1924,48.0,0,21,5.0,96.0
1925,36.0,0,21,6.0,96.0
1926,50.0,24,12,5.0,96.0
1927,38.0,0,12,6.0,96.0
1928,52.0,12,12,5.0,96.0
1929,40.0,0,12,6.0,96.0
1930,74.0,12,10,0.0,96.0
1931,53.0,0,21,5.0,96.0
1932,41.0,0,21,6.0,96.0
1933,72.0,12,10,0.0,96.0
1934,74.0,12,21,0.0,96.0
1935,50.0,0,24,5.0,96.0
1936,38.0,0,24,6.0,96.0
1937,83.0,24,31,0.0,96.0
1938,81.0,12,10,0.0,96.0
1939,52.0,24,24,5.0,96.0
1940,40.0,0,24,6.0,96.0
1941,80.0,12,10,0.0,96.0
1942,53.0,0,21,5.0,96.0
1943,41.0,0,21,6.0,96.0
1944,81.0,12,10,0.0,96.0
1945,83.0,12,10,0.0,96.0
1946,44.0,0,12,5.0,96.0
1947,32.0,0,12,6.0,96.0
1948,81.0,12,10,0.0,96.0
1949,45.0,0,12,5.0,96.0
1950,33.0,0,12,6.0,96.0
1951,80.0,12,10,0.0,96.0
1952,47.0,0,21,5.0,96.0
1953,35.0,0,21,6.0,96.0
1954,78.0,12,10,0.0,96.0
1955,76.0,12,10,0.0,96.0
1956,74.0,12,10,0.0,96.0
1957,44.0,0,24,5.0,96.0
1958,32.0,0,24,6.0,96.0
1959,77.0,12,42,0.0,96.0
1960,45.0,24,24,5.0,96.0
1961,33.0,0,24,6.0,96.0
1962,47.0,0,21,5.0,96.0
1963,35.0,0,21,6.0,96.0
1964,76.0,24,31,0.0,96.0
1965,48.0,24,12,5.0,96.0
1966,36.0,0,12,6.0,96.0
1967,74.0,12,10,0.0,96.0
1968,50.0,0,12,5.0,96.0
1969,38.0,0,12,6.0,96.0
1970,72.0,12,10,0.0,96.0
1971,69.0,0,10,2.0,104.0
1972,64.0,0,10,3.0,104.0
1973,60.0,0,10,4.0,104.0
1974,52.0,0,21,5.0,96.0
1975,40.0,0,21,6.0,96.0
1976,71.0,12,10,0.0,96.0
1977,71.0,0,10,2.0,104.0
1978,65.0,0,10,3.0,104.0
1979,62.0,0,10,4.0,104.0
1980,72.0,12,10,0.0,96.0
1981,69.0,0,21,2.0,104.0
1982,64.0,0,21,3.0,104.0
1983,60.0,0,21,4.0,104.0
1984,57.0,0,21,5.0,96.0
1985,45.0,0,21,6.0,96.0
1986,69.0,12,10,0.0,96.0
1987,71.0,12,10,0.0,96.0
1988,52.0,0,21,5.0,96.0
1989,40.0,0,21,6.0,96.0
1990,68.0,12,10,0.0,96.0
1991,69.0,12,10,0.0,96.0
1992,48.0,0,21,5.0,96.0
1993,36.0,0,21,6.0,96.0
1994,64.0,12,10,0.0,96.0
1995,72.0,0,10,2.0,104.0
1996,69.0,0,10,3.0,104.0
1997,64.0,0,10,4.0,104.0
1998,69.0,12,12,0.0,96.0
1999,52.0,0,21,5.0,96.0
2000,40.0,0,21,6.0,96.0
2001,74.0,0,10,2.0,104.0
2002,71.0,0,10,3.0,104.0
2003,65.0,0,10,4.0,104.0
2004,68.0,12,12,0.0,96.0
2005,69.0,12,10,0.0,96.0
2006,72.0,0,21,2.0,104.0
2007,69.0,0,21,3.0,104.0
2008,64.0,0,21,4.0,104.0
2009,64.0,12,10,0.0,96.0
2010,76.0,0,10,1.0,96.0
2011,72.0,12,12,0.0,96.0
2012,45.0,0,42,5.0,96.0
2013,33.0,0,42,6.0,96.0
2014,74.0,0,10,1.0,96.0
2015,71.0,12,12,0.0,96.0
2016,72.0,12,10,0.0,96.0
2017,76.0,0,21,1.0,96.0
2018,69.0,12,10,0.0,96.0
2019,76.0,12,10,0.0,96.0
2020,84.0,0,21,1.0,96.0
2021,57.0,0,21,5.0,96.0
2022,45.0,0,21,6.0,96.0
2023,72.0,12,10,0.0,96.0
2024,74.0,12,10,0.0,96.0
2025,80.0,0,21,1.0,96.0
2026,52.0,0,21,5.0,96.0
2027,40.0,0,21,6.0,96.0
2028,71.0,12,10,0.0,96.0
2029,72.0,12,10,0.0,96.0
2030,81.0,0,21,1.0,96.0
2031,45.0,0,21,5.0,96.0
2032,33.0,0,21,6.0,96.0
2033,69.0,12,10,0.0,96.0
2034,68.0,12,12,0.0,96.0
2035,76.0,12,12,0.0,96.0
2036,83.0,12,10,0.0,96.0
2037,74.0,0,10,1.0,96.0
2038,52.0,0,42,5.0,96.0
2039,40.0,0,42,6.0,96.0
2040,81.0,12,10,0.0,96.0
2041,72.0,0,10,1.0,96.0
2042,83.0,12,10,0.0,96.0
2043,74.0,0,21,1.0,96.0
2044,76.0,12,10,0.0,96.0
2045,86.0,12,12,0.0,96.0
2046,52.0,0,21,5.0,96.0
2047,40.0,0,21,6.0,96.0
2048,84.0,12,12,0.0,96.0
2049,83.0,0,31,1.0,96.0
2050,86.0,12,10,0.0,96.0
2051,56.0,0,21,5.0,96.0
2052,44.0,0,21,6.0,96.0
2053,83.0,12,10,0.0,96.0
2054,81.0,0,10,1.0,96.0
2055,88.0,12,10,0.0,96.0
2056,80.0,0,10,1.0,96.0
2057,59.0,0,21,5.0,96.0
2058,47.0,0,21,6.0,96.0
2059,84.0,12,10,0.0,96.0
2060,81.0,0,10,1.0,96.0
2061,83.0,0,10,1.0,96.0
2062,86.0,12,21,0.0,96.0
2063,81.0,12,10,1.0,96.0
2064,80.0,0,10,1.0,96.0
2065,64.0,0,42,5.0,96.0
2066,52.0,0,42,6.0,96.0
2067,78.0,12,10,1.0,96.0
2068,76.0,12,31,0.0,96.0
2069,76.0,12,10,1.0,96.0
2070,78.0,12,10,0.0,96.0
2071,74.0,0,10,1.0,96.0
2072,80.0,12,10,0.0,96.0
2073,59.0,0,21,5.0,96.0
2074,47.0,0,21,6.0,96.0
2075,81.0,12,10,0.0,96.0
2076,83.0,12,10,0.0,96.0
2077,77.0,0,42,1.0,96.0
2078,56.0,0,21,5.0,96.0
2079,44.0,0,21,6.0,96.0
2080,84.0,12,10,0.0,96.0
2081,86.0,12,10,0.0,96.0
2082,52.0,0,21,5.0,96.0
2083,40.0,0,21,6.0,96.0
2084,83.0,12,10,0.0,96.0
2085,76.0,0,31,1.0,96.0
2086,84.0,12,10,0.0,96.0
2087,77.0,12,10,0.0,96.0
2088,74.0,0,10,1.0,96.0
2089,76.0,12,10,0.0,96.0
2090,72.0,0,10,1.0,96.0
2091,64.0,0,10,2.0,104.0
2092,60.0,0,10,3.0,104.0
2093,69.0,0,10,4.0,104.0
2094,57.0,0,42,5.0,96.0
2095,45.0,0,42,6.0,96.0
2096,74.0,12,10,0.0,96.0
2097,71.0,0,10,1.0,96.0
2098,65.0,0,10,2.0,104.0
2099,62.0,0,10,3.0,104.0
2100,68.0,0,10,4.0,104.0
2101,76.0,12,10,0.0,96.0
2102,72.0,0,10,1.0,96.0
2103,64.0,0,21,2.0,104.0
2104,60.0,0,21,3.0,104.0
2105,69.0,0,21,4.0,104.0
2106,72.0,12,10,0.0,96.0
2107,69.0,0,10,1.0,96.0
2108,74.0,12,10,0.0,96.0
2109,71.0,0,10,1.0,96.0
2110,52.0,0,21,5.0,96.0
2111,40.0,0,21,6.0,96.0
2112,71.0,12,10,0.0,96.0
2113,68.0,0,10,1.0,96.0
2114,72.0,12,10,0.0,96.0
2115,69.0,0,10,1.0,96.0
2116,48.0,0,21,5.0,96.0
2117,36.0,0,21,6.0,96.0
2118,76.0,12,10,0.0,96.0
2119,64.0,0,10,1.0,96.0
2120,69.0,0,10,2.0,104.0
2121,64.0,0,10,3.0,104.0
2122,60.0,0,10,4.0,104.0
2123,72.0,12,12,0.0,96.0
2124,69.0,0,12,1.0,96.0
2125,52.0,0,21,5.0,96.0
2126,40.0,0,21,6.0,96.0
2127,71.0,0,10,2.0,104.0
2128,65.0,0,10,3.0,104.0
2129,62.0,0,10,4.0,104.0
2130,71.0,12,12,0.0,96.0
2131,68.0,0,12,1.0,96.0
2132,72.0,12,10,0.0,96.0
2133,69.0,0,10,1.0,96.0
2134,69.0,0,21,2.0,104.0
2135,64.0,0,21,3.0,104.0
2136,60.0,0,21,4.0,104.0
2137,76.0,12,10,0.0,96.0
2138,64.0,0,10,1.0,96.0
2139,69.0,12,12,0.0,96.0
2140,72.0,0,12,1.0,96.0
2141,45.0,0,42,5.0,96.0
2142,33.0,0,42,6.0,96.0
2143,68.0,12,12,0.0,96.0
2144,71.0,0,12,1.0,96.0
2145,69.0,12,10,0.0,96.0
2146,73.0,0,10,1.0,96.0
2147,76.0,0,21,2.0,104.0
2148,67.0,0,21,3.0,104.0
2149,61.0,0,21,4.0,104.0
2150,76.0,12,10,0.0,96.0
2151,69.0,0,10,1.0,96.0
2152,67.0,12,12,0.0,96.0
2153,76.0,0,12,1.0,96.0
2154,57.0,0,21,5.0,96.0
2155,45.0,0,21,6.0,96.0
2156,65.0,12,12,0.0,96.0
2157,74.0,0,12,1.0,96.0
2158,67.0,12,10,0.0,96.0
2159,76.0,0,10,1.0,96.0
2160,61.0,0,21,5.0,96.0
2161,49.0,0,21,6.0,96.0
2162,76.0,12,10,0.0,96.0
2163,69.0,0,10,1.0,96.0
2164,65.0,12,10,0.0,96.0
2165,74.0,0,10,1.0,96.0
2166,57.0,0,21,5.0,96.0
2167,45.0,0,21,6.0,96.0
2168,64.0,12,10,0.0,96.0
2169,76.0,0,10,1.0,96.0
2170,62.0,12,10,0.0,96.0
2171,77.0,0,10,1.0,96.0
2172,74.0,0,21,2.0,104.0
2173,65.0,0,21,3.0,104.0
2174,57.0,0,21,4.0,104.0
2175,57.0,12,10,0.0,96.0
2176,81.0,0,10,1.0,96.0
2177,65.0,12,12,0.0,96.0
2178,74.0,0,12,1.0,96.0
2179,62.0,0,42,5.0,96.0
2180,50.0,0,42,6.0,96.0
2181,64.0,12,12,0.0,96.0
2182,73.0,0,12,1.0,96.0
2183,66.0,12,10,0.0,96.0
2184,74.0,0,10,1.0,96.0
2185,72.0,0,21,2.0,104.0
2186,69.0,0,21,3.0,104.0
2187,66.0,0,21,4.0,104.0
2188,62.0,12,10,0.0,96.0
2189,81.0,0,10,1.0,96.0
2190,69.0,12,12,0.0,96.0
2191,72.0,0,12,1.0,96.0
2192,50.0,0,21,5.0,96.0
2193,38.0,0,21,6.0,96.0
2194,67.0,12,12,0.0,96.0
2195,71.0,0,12,1.0,96.0
2196,69.0,12,10,0.0,96.0
2197,72.0,0,10,1.0,96.0
2198,42.0,0,21,5.0,96.0
2199,30.0,0,21,6.0,96.0
2200,62.0,12,10,0.0,96.0
2201,81.0,0,10,1.0,96.0
2202,67.0,12,12,0.0,96.0
2203,71.0,0,12,1.0,96.0
2204,38.0,0,21,5.0,96.0
2205,26.0,0,21,6.0,96.0
2206,69.0,12,12,0.0,96.0
2207,69.0,0,12,1.0,96.0
2208,71.0,12,10,0.0,96.0
2209,67.0,0,10,1.0,96.0
2210,71.0,0,21,2.0,104.0
2211,67.0,0,21,3.0,104.0
2212,62.0,0,21,4.0,104.0
2213,74.0,12,10,0.0,96.0
2214,62.0,0,10,1.0,96.0
2215,67.0,12,12,0.0,96.0
2216,71.0,0,12,1.0,96.0
2217,43.0,0,42,5.0,96.0
2218,31.0,0,42,6.0,96.0
2219,66.0,12,12,0.0,96.0
2220,69.0,0,12,1.0,96.0
2221,67.0,12,10,0.0,96.0
2222,71.0,0,10,1.0,96.0
2223,74.0,0,21,2.0,104.0
2224,65.0,0,21,3.0,104.0
2225,59.0,0,21,4.0,104.0
2226,74.0,12,10,0.0,96.0
2227,67.0,0,10,1.0,96.0
2228,65.0,12,12,0.0,96.0
2229,74.0,0,12,1.0,96.0
2230,55.0,0,21,5.0,96.0
2231,43.0,0,21,6.0,96.0
2232,64.0,12,12,0.0,96.0
2233,72.0,0,12,1.0,96.0
2234,65.0,12,10,0.0,96.0
2235,74.0,0,10,1.0,96.0
2236,59.0,0,21,5.0,96.0
2237,47.0,0,21,6.0,96.0
2238,74.0,12,10,0.0,96.0
2239,67.0,0,10,1.0,96.0
2240,64.0,12,10,0.0,96.0
2241,72.0,0,10,1.0,96.0
2242,55.0,0,21,5.0,96.0
2243,43.0,0,21,6.0,96.0
2244,62.0,12,10,0.0,96.0
2245,74.0,0,10,1.0,96.0
2246,60.0,12,10,0.0,96.0
2247,76.0,0,10,1.0,96.0
2248,72.0,0,21,2.0,104.0
2249,64.0,0,21,3.0,104.0
2250,55.0,0,21,4.0,104.0
2251,55.0,12,10,0.0,96.0
2252,79.0,0,10,1.0,96.0
2253,64.0,12,12,0.0,96.0
2254,72.0,0,12,1.0,96.0
2255,60.0,0,42,5.0,96.0
2256,48.0,0,42,6.0,96.0
2257,62.0,12,12,0.0,96.0
2258,71.0,0,12,1.0,96.0
2259,64.0,12,10,0.0,96.0
2260,72.0,0,10,1.0,96.0
2261,70.0,0,21,2.0,104.0
2262,67.0,0,21,3.0,104.0
2263,64.0,0,21,4.0,104.0
2264,60.0,12,10,0.0,96.0
2265,79.0,0,10,1.0,96.0
2266,67.0,12,12,0.0,96.0
2267,70.0,0,12,1.0,96.0
2268,52.0,0,21,5.0,96.0
2269,40.0,0,21,6.0,96.0
2270,65.0,12,12,0.0,96.0
2271,69.0,0,12,1.0,96.0
2272,67.0,12,10,0.0,96.0
2273,70.0,0,10,1.0,96.0
2274,40.0,0,21,5.0,96.0
2275,28.0,0,21,6.0,96.0
2276,60.0,12,10,0.0,96.0
2277,79.0,0,10,1.0,96.0
2278,65.0,12,10,0.0,96.0
2279,69.0,0,10,1.0,96.0
2280,36.0,0,21,5.0,96.0
2281,24.0,0,21,6.0,96.0
2282,67.0,12,10,0.0,96.0
2283,67.0,0,10,1.0,96.0
2284,69.0,12,10,0.0,96.0
2285,69.0,0,21,2.0,104.0
2286,65.0,0,21,3.0,104.0
2287,60.0,0,21,4.0,104.0
2288,60.0,12,10,0.0,96.0
2289,65.0,0,31,1.0,96.0
2290,62.0,12,10,0.0,96.0
2291,41.0,0,42,5.0,96.0
2292,29.0,0,42,6.0,96.0
2293,64.0,12,10,0.0,96.0
2294,60.0,0,10,1.0,96.0
2295,65.0,12,10,0.0,96.0
2296,62.0,0,10,1.0,96.0
2297,67.0,12,10,0.0,96.0
2298,64.0,0,10,1.0,96.0
2299,69.0,12,10,0.0,96.0
2300,65.0,0,10,1.0,96.0
2301,53.0,0,21,5.0,96.0
2302,41.0,0,21,6.0,96.0
2303,70.0,12,10,0.0,96.0
2304,67.0,0,10,1.0,96.0
2305,72.0,12,10,0.0,96.0
2306,69.0,0,10,1.0,96.0
2307,52.0,0,21,5.0,96.0
2308,40.0,0,21,6.0,96.0
2309,74.0,12,10,0.0,96.0
2310,71.0,0,10,1.0,96.0
2311,76.0,12,10,0.0,96.0
2312,73.0,0,10,1.0,96.0
2313,50.0,0,21,5.0,96.0
2314,38.0,0,21,6.0,96.0
2315,77.0,12,10,0.0,96.0
2316,74.0,0,10,1.0,96.0
2317,76.0,0,10,1.0,96.0
2318,79.0,12,21,0.0,96.0
2319,74.0,12,10,1.0,96.0
2320,49.0,0,24,5.0,96.0
2321,37.0,0,24,6.0,96.0
2322,76.0,0,10,1.0,96.0
2323,77.0,12,10,1.0,96.0
2324,49.0,0,24,5.0,96.0
2325,37.0,0,24,6.0,96.0
2326,82.0,12,42,0.0,96.0
2327,49.0,0,21,5.0,96.0
2328,37.0,0,21,6.0,96.0
2329,79.0,12,24,1.0,96.0
2330,81.0,24,21,0.0,96.0
2331,77.0,0,21,1.0,96.0
2332,50.0,0,21,5.0,96.0
2333,38.0,0,21,6.0,96.0
2334,73.0,24,21,0.0,96.0
2335,55.0,0,21,5.0,96.0
2336,43.0,0,21,6.0,96.0
2337,82.0,0,24,1.0,96.0
2338,74.0,24,21,0.0,96.0
2339,81.0,0,21,1.0,96.0
2340,53.0,0,21,5.0,96.0
2341,41.0,0,21,6.0,96.0
2342,79.0,24,10,0.0,96.0
2343,73.0,0,21,1.0,96.0
2344,76.0,12,10,0.0,96.0
2345,52.0,0,24,5.0,96.0
2346,40.0,0,24,6.0,96.0
2347,77.0,12,21,0.0,96.0
2348,74.0,0,21,1.0,96.0
2349,50.0,0,24,5.0,96.0
2350,38.0,0,24,6.0,96.0
2351,79.0,24,10,1.0,96.0
2352,76.0,12,10,1.0,96.0
2353,49.0,0,24,5.0,96.0
2354,37.0,0,24,6.0,96.0
2355,77.0,0,10,2.0,104.0
2356,74.0,0,10,3.0,104.0
2357,69.0,0,10,4.0,104.0
2358,77.0,12,21,1.0,96.0
2359,76.0,12,10,2.0,104.0
2360,73.0,0,10,3.0,104.0
2361,67.0,0,10,4.0,104.0
2362,50.0,0,24,5.0,96.0
2363,38.0,0,24,6.0,96.0
2364,77.0,12,21,2.0,104.0
2365,74.0,0,21,3.0,104.0
2366,69.0,0,21,4.0,104.0
2367,62.0,0,21,5.0,96.0
2368,50.0,0,21,6.0,96.0
2369,78.0,24,10,0.0,96.0
2370,60.0,0,21,5.0,96.0
2371,48.0,0,21,6.0,96.0
2372,79.0,12,10,0.0,96.0
2373,81.0,12,21,0.0,96.0
2374,59.0,0,24,5.0,96.0
2375,47.0,0,24,6.0,96.0
2376,78.0,0,10,1.0,96.0
2377,79.0,12,10,1.0,96.0
2378,51.0,0,24,5.0,96.0
2379,39.0,0,24,6.0,96.0
2380,84.0,24,42,0.0,96.0
2381,51.0,0,21,5.0,96.0
2382,39.0,0,21,6.0,96.0
2383,81.0,12,24,1.0,96.0
2384,83.0,24,21,0.0,96.0
2385,79.0,0,21,1.0,96.0
2386,52.0,0,21,5.0,96.0
2387,40.0,0,21,6.0,96.0
2388,75.0,24,21,0.0,96.0
2389,57.0,0,21,5.0,96.0
2390,45.0,0,21,6.0,96.0
2391,84.0,0,24,1.0,96.0
2392,76.0,24,21,0.0,96.0
2393,83.0,0,21,1.0,96.0
2394,55.0,0,21,5.0,96.0
2395,43.0,0,21,6.0,96.0
2396,81.0,24,10,0.0,96.0
2397,78.0,12,10,0.0,96.0
2398,75.0,0,24,1.0,96.0
2399,54.0,0,24,5.0,96.0
2400,42.0,0,24,6.0,96.0
2401,80.0,12,21,0.0,96.0
2402,76.0,0,21,1.0,96.0
2403,52.0,0,24,5.0,96.0
2404,40.0,0,24,6.0,96.0
2405,81.0,24,10,1.0,96.0
2406,78.0,12,10,1.0,96.0
2407,51.0,0,24,5.0,96.0
2408,39.0,0,24,6.0,96.0
2409,71.0,12,8,0.0,96.0
2410,80.0,0,8,1.0,96.0
2411,71.0,0,10,2.0,104.0
2412,68.0,0,10,3.0,104.0
2413,62.0,0,10,4.0,104.0
2414,72.0,8,8,0.0,96.0
2415,81.0,0,8,1.0,96.0
2416,69.0,4,10,2.0,104.0
2417,66.0,0,10,3.0,104.0
2418,60.0,0,10,4.0,104.0
2419,74.0,4,7,0.0,96.0
2420,83.0,0,7,1.0,96.0
2421,52.0,0,24,5.0,96.0
2422,40.0,0,24,6.0,96.0
2423,74.0,8,8,0.0,96.0
2424,71.0,0,8,1.0,96.0
2425,76.0,8,8,0.0,96.0
2426,72.0,0,8,1.0,96.0
2427,71.0,0,21,2.0,104.0
2428,64.0,0,21,3.0,104.0
2429,59.0,0,21,4.0,104.0
2430,44.0,0,21,5.0,96.0
2431,32.0,0,21,6.0,96.0
2432,78.0,8,7,0.0,96.0
2433,74.0,0,7,1.0,96.0
2434,78.0,8,8,0.0,96.0
2435,74.0,0,8,1.0,96.0
2436,80.0,8,8,0.0,96.0
2437,72.0,0,8,1.0,96.0
2438,47.0,0,21,5.0,96.0
2439,35.0,0,21,6.0,96.0
2440,81.0,8,7,0.0,96.0
2441,71.0,0,7,1.0,96.0
2442,81.0,8,10,0.0,96.0
2443,72.0,0,21,1.0,96.0
2444,69.0,0,21,2.0,104.0
2445,60.0,0,21,3.0,104.0
2446,64.0,0,21,4.0,104.0
2447,40.0,0,21,5.0,96.0
2448,28.0,0,21,6.0,96.0
2449,76.0,12,10,0.0,96.0
2450,72.0,12,10,0.0,96.0
2451,69.0,12,10,0.0,96.0
2452,64.0,12,21,0.0,96.0
2453,72.0,24,8,0.0,96.0
2454,81.0,0,8,1.0,96.0
2455,74.0,8,8,0.0,96.0
2456,83.0,0,8,1.0,96.0
2457,76.0,8,7,0.0,96.0
2458,84.0,0,7,1.0,96.0
2459,76.0,8,8,0.0,96.0
2460,72.0,0,8,1.0,96.0
2461,78.0,8,8,0.0,96.0
2462,74.0,0,8,1.0,96.0
2463,80.0,8,7,0.0,96.0
2464,76.0,0,7,1.0,96.0
2465,80.0,8,8,0.0,96.0
2466,76.0,0,8,1.0,96.0
2467,81.0,8,8,0.0,96.0
2468,74.0,0,8,1.0,96.0
2469,83.0,8,7,0.0,96.0
2470,72.0,0,7,1.0,96.0
2471,83.0,8,10,0.0,96.0
2472,74.0,0,21,1.0,96.0
2473,71.0,0,21,2.0,104.0
2474,68.0,0,21,3.0,104.0
2475,64.0,0,21,4.0,104.0
2476,40.0,0,21,5.0,96.0
2477,28.0,0,21,6.0,96.0
2478,80.0,12,10,0.0,96.0
2479,74.0,12,10,0.0,96.0
2480,71.0,12,10,0.0,96.0
2481,64.0,12,21,0.0,96.0
2482,76.0,24,8,0.0,96.0
2483,68.0,0,8,1.0,96.0
2484,78.0,8,8,0.0,96.0
2485,69.0,0,8,1.0,96.0
2486,80.0,8,7,0.0,96.0
2487,71.0,0,7,1.0,96.0
2488,80.0,8,8,0.0,96.0
2489,59.0,0,8,1.0,96.0
2490,81.0,8,8,0.0,96.0
2491,60.0,0,8,1.0,96.0
2492,83.0,8,7,0.0,96.0
2493,62.0,0,7,1.0,96.0
2494,83.0,8,8,0.0,96.0
2495,62.0,0,8,1.0,96.0
2496,84.0,8,8,0.0,96.0
2497,60.0,0,8,1.0,96.0
2498,86.0,8,7,0.0,96.0
2499,59.0,0,7,1.0,96.0
2500,84.0,8,6,0.0,96.0
2501,72.0,0,6,2.0,104.0
2502,57.0,0,10,1.0,96.0
2503,81.0,12,12,0.0,96.0
2504,72.0,0,12,1.0,96.0
2505,64.0,0,12,2.0,104.0
2506,80.0,12,12,0.0,96.0
2507,71.0,0,12,1.0,96.0
2508,62.0,0,12,2.0,104.0
2509,69.0,0,42,3.0,104.0
2510,64.0,0,42,4.0,104.0
2511,45.0,0,42,5.0,96.0
2512,33.0,0,42,6.0,96.0
2513,81.0,12,10,0.0,96.0
2514,72.0,0,10,1.0,96.0
2515,64.0,0,10,2.0,104.0
2516,82.0,12,6,0.0,96.0
2517,74.0,0,6,1.0,96.0
2518,65.0,0,6,2.0,104.0
2519,81.0,12,12,0.0,96.0
2520,72.0,0,12,1.0,96.0
2521,64.0,0,12,2.0,104.0
2522,80.0,12,12,0.0,96.0
2523,71.0,0,12,1.0,96.0
2524,62.0,0,12,2.0,104.0
2525,57.0,0,21,3.0,104.0
2526,57.0,0,21,4.0,104.0
2527,45.0,0,21,5.0,96.0
2528,33.0,0,21,6.0,96.0
2529,81.0,12,10,0.0,96.0
2530,72.0,0,10,1.0,96.0
2531,64.0,0,10,2.0,104.0
2532,77.0,12,8,0.0,96.0
2533,77.0,0,12,1.0,96.0
2534,77.0,0,12,2.0,104.0
2535,80.0,8,8,0.0,96.0
2536,57.0,0,21,3.0,104.0
2537,57.0,0,21,4.0,104.0
2538,50.0,0,21,5.0,96.0
2539,38.0,0,21,6.0,96.0
2540,81.0,8,7,0.0,96.0
2541,74.0,8,8,0.0,96.0
2542,74.0,0,12,1.0,96.0
2543,74.0,0,12,2.0,104.0
2544,80.0,8,8,0.0,96.0
2545,57.0,0,21,3.0,104.0
2546,57.0,0,21,4.0,104.0
2547,47.0,0,21,5.0,96.0
2548,35.0,0,21,6.0,96.0
2549,81.0,8,7,0.0,96.0
2550,76.0,8,6,0.0,96.0
2551,76.0,0,6,1.0,96.0
2552,81.0,0,6,2.0,104.0
2553,81.0,12,12,0.0,96.0
2554,72.0,0,12,1.0,96.0
2555,64.0,0,12,2.0,104.0
2556,80.0,12,12,0.0,96.0
2557,71.0,0,12,1.0,96.0
2558,62.0,0,12,2.0,104.0
2559,57.0,0,42,3.0,104.0
2560,57.0,0,42,4.0,104.0
2561,48.0,0,42,5.0,96.0
2562,36.0,0,42,6.0,96.0
2563,81.0,12,10,0.0,96.0
2564,72.0,0,10,1.0,96.0
2565,64.0,0,10,2.0,104.0
2566,84.0,12,6,0.0,96.0
2567,69.0,0,6,1.0,96.0
2568,60.0,0,10,2.0,104.0
2569,81.0,12,12,0.0,96.0
2570,72.0,0,12,1.0,96.0
2571,64.0,0,12,2.0,104.0
2572,80.0,12,12,0.0,96.0
2573,71.0,0,12,1.0,96.0
2574,62.0,0,12,2.0,104.0
2575,57.0,0,21,3.0,104.0
2576,57.0,0,21,4.0,104.0
2577,45.0,0,21,5.0,96.0
2578,33.0,0,21,6.0,96.0
2579,81.0,12,10,0.0,96.0
2580,72.0,0,10,1.0,96.0
2581,64.0,0,10,2.0,104.0
2582,76.0,12,8,0.0,96.0
2583,76.0,0,12,1.0,96.0
2584,76.0,0,12,2.0,104.0
2585,80.0,8,8,0.0,96.0
2586,57.0,0,21,3.0,104.0
2587,57.0,0,21,4.0,104.0
2588,48.0,0,21,5.0,96.0
2589,36.0,0,21,6.0,96.0
2590,81.0,8,7,0.0,96.0
2591,72.0,8,8,0.0,96.0
2592,72.0,0,12,1.0,96.0
2593,72.0,0,12,2.0,104.0
2594,80.0,8,8,0.0,96.0
2595,57.0,0,21,3.0,104.0
2596,57.0,0,21,4.0,104.0
2597,45.0,0,21,5.0,96.0
2598,33.0,0,21,6.0,96.0
2599,81.0,8,7,0.0,96.0
2600,74.0,8,6,0.0,96.0
2601,74.0,0,6,1.0,96.0
2602,74.0,0,6,2.0,104.0
2603,81.0,12,12,0.0,96.0
2604,77.0,0,12,1.0,96.0
2605,60.0,0,12,2.0,104.0
2606,80.0,12,12,0.0,96.0
2607,76.0,0,12,1.0,96.0
2608,59.0,0,12,2.0,104.0
2609,57.0,0,42,3.0,104.0
2610,57.0,0,42,4.0,104.0
2611,47.0,0,42,5.0,96.0
2612,35.0,0,42,6.0,96.0
2613,81.0,12,10,0.0,96.0
2614,77.0,0,10,1.0,96.0
2615,60.0,0,10,2.0,104.0
2616,77.0,12,6,0.0,96.0
2617,74.0,0,6,1.0,96.0
2618,62.0,0,6,2.0,104.0
2619,81.0,12,12,0.0,96.0
2620,77.0,0,12,1.0,96.0
2621,60.0,0,12,2.0,104.0
2622,80.0,12,12,0.0,96.0
2623,76.0,0,12,1.0,96.0
2624,59.0,0,12,2.0,104.0
2625,71.0,0,21,3.0,104.0
2626,65.0,0,21,4.0,104.0
2627,50.0,0,21,5.0,96.0
2628,38.0,0,21,6.0,96.0
2629,81.0,12,10,0.0,96.0
2630,77.0,0,10,1.0,96.0
2631,60.0,0,10,2.0,104.0
2632,74.0,12,8,0.0,96.0
2633,74.0,0,12,1.0,96.0
2634,74.0,0,12,2.0,104.0
2635,80.0,8,8,0.0,96.0
2636,68.0,0,21,3.0,104.0
2637,59.0,0,21,4.0,104.0
2638,40.0,0,21,5.0,96.0
2639,28.0,0,21,6.0,96.0
2640,81.0,8,7,0.0,96.0
2641,71.0,8,8,0.0,96.0
2642,71.0,0,12,1.0,96.0
2643,71.0,0,12,2.0,104.0
2644,80.0,8,8,0.0,96.0
2645,71.0,0,21,3.0,104.0
2646,64.0,0,21,4.0,104.0
2647,44.0,0,21,5.0,96.0
2648,32.0,0,21,6.0,96.0
2649,81.0,8,7,0.0,96.0
2650,45.0,0,10,5.0,96.0
2651,33.0,0,10,6.0,96.0
2652,72.0,8,21,0.0,96.0
2653,72.0,0,21,1.0,96.0
2654,72.0,0,21,2.0,104.0
2655,64.0,0,21,3.0,104.0
2656,64.0,0,21,4.0,104.0
2657,57.0,12,10,5.0,96.0
2658,45.0,0,10,6.0,96.0
2659,55.0,0,10,5.0,96.0
2660,43.0,0,10,6.0,96.0
2661,76.0,12,21,0.0,96.0
2662,76.0,0,21,1.0,96.0
2663,76.0,0,21,2.0,104.0
2664,69.0,0,21,3.0,104.0
2665,60.0,0,21,4.0,104.0
2666,53.0,12,10,5.0,96.0
2667,41.0,0,10,6.0,96.0
2668,52.0,0,10,5.0,96.0
2669,40.0,0,10,6.0,96.0
2670,81.0,12,21,0.0,96.0
2671,81.0,0,21,1.0,96.0
2672,81.0,0,21,2.0,104.0
2673,72.0,0,21,3.0,104.0
2674,64.0,0,21,4.0,104.0
2675,50.0,12,10,5.0,96.0
2676,38.0,0,10,6.0,96.0
2677,48.0,0,10,5.0,96.0
2678,36.0,0,10,6.0,96.0
2679,84.0,12,21,0.0,96.0
2680,84.0,0,21,1.0,96.0
2681,84.0,0,21,2.0,104.0
2682,76.0,0,21,3.0,104.0
2683,69.0,0,21,4.0,104.0
2684,47.0,12,10,5.0,96.0
2685,35.0,0,10,6.0,96.0
2686,76.0,12,6,0.0,96.0
2687,76.0,0,6,1.0,96.0
2688,76.0,0,6,2.0,104.0
2689,45.0,0,10,5.0,96.0
2690,33.0,0,10,6.0,96.0
2691,75.0,6,6,0.0,96.0
2692,75.0,0,6,1.0,96.0
2693,75.0,0,6,2.0,104.0
2694,76.0,6,6,0.0,96.0
2695,76.0,0,6,1.0,96.0
2696,76.0,0,6,2.0,104.0
2697,78.0,0,21,3.0,104.0
2698,72.0,0,21,4.0,104.0
2699,48.0,0,10,5.0,96.0
2700,36.0,0,10,6.0,96.0
2701,75.0,6,6,0.0,96.0
2702,75.0,0,6,1.0,96.0
2703,75.0,0,6,2.0,104.0
2704,76.0,6,6,0.0,96.0
2705,76.0,0,6,1.0,96.0
2706,76.0,0,6,2.0,104.0
2707,47.0,0,10,5.0,96.0
2708,35.0,0,10,6.0,96.0
2709,75.0,6,5,0.0,96.0
2710,75.0,0,5,1.0,96.0
2711,75.0,0,5,2.0,104.0
2712,73.0,6,5,0.0,96.0
2713,73.0,0,5,1.0,96.0
2714,73.0,0,5,2.0,104.0
2715,71.0,0,21,3.0,104.0
2716,66.0,0,21,4.0,104.0
2717,45.0,0,10,5.0,96.0
2718,33.0,0,10,6.0,96.0
2719,75.0,6,5,0.0,96.0
2720,75.0,0,5,1.0,96.0
2721,75.0,0,5,2.0,104.0
2722,44.0,0,10,5.0,96.0
2723,32.0,0,10,6.0,96.0
2724,76.0,6,21,0.0,96.0
2725,76.0,0,21,1.0,96.0
2726,76.0,0,21,2.0,104.0
2727,71.0,0,21,3.0,104.0
2728,64.0,0,21,4.0,104.0
2729,40.0,12,10,5.0,96.0
2730,28.0,0,10,6.0,96.0
2731,42.0,0,10,5.0,96.0
2732,30.0,0,10,6.0,96.0
2733,71.0,12,21,0.0,96.0
2734,71.0,0,21,1.0,96.0
2735,71.0,0,21,2.0,104.0
2736,68.0,0,21,3.0,104.0
2737,64.0,0,21,4.0,104.0
2738,44.0,12,10,5.0,96.0
2739,32.0,0,10,6.0,96.0
2740,45.0,0,10,5.0,96.0
2741,33.0,0,10,6.0,96.0
2742,72.0,12,21,0.0,96.0
2743,72.0,0,21,1.0,96.0
2744,72.0,0,21,2.0,104.0
2745,69.0,0,21,3.0,104.0
2746,64.0,0,21,4.0,104.0
2747,47.0,12,10,5.0,96.0
2748,35.0,0,10,6.0,96.0
2749,48.0,0,10,5.0,96.0
2750,36.0,0,10,6.0,96.0
2751,69.0,12,21,0.0,96.0
2752,69.0,0,21,1.0,96.0
2753,69.0,0,21,2.0,104.0
2754,64.0,0,21,3.0,104.0
2755,64.0,0,21,4.0,104.0
2756,50.0,12,10,5.0,96.0
2757,38.0,0,10,6.0,96.0
2758,64.0,12,21,0.0,96.0
2759,64.0,0,21,1.0,96.0
2760,64.0,0,21,2.0,104.0
2761,60.0,0,21,3.0,104.0
2762,64.0,0,21,4.0,104.0
2763,52.0,0,21,5.0,96.0
2764,40.0,0,21,6.0,96.0
2765,68.0,24,21,0.0,96.0
2766,68.0,0,21,1.0,96.0
2767,68.0,0,21,2.0,104.0
2768,59.0,0,21,3.0,104.0
2769,64.0,0,21,4.0,104.0
2770,40.0,0,21,5.0,96.0
2771,28.0,0,21,6.0,96.0
2772,69.0,24,12,0.0,96.0
2773,69.0,0,21,2.0,104.0
2774,60.0,0,21,3.0,104.0
2775,64.0,0,21,4.0,104.0
2776,76.0,12,12,0.0,96.0
2777,81.0,12,10,0.0,96.0
2778,81.0,0,10,2.0,104.0
2779,69.0,0,42,1.0,96.0
2780,45.0,0,42,5.0,96.0
2781,33.0,0,42,6.0,96.0
2782,83.0,12,10,0.0,96.0
2783,80.0,0,10,2.0,104.0
2784,84.0,12,10,0.0,96.0
2785,81.0,0,21,2.0,104.0
2786,81.0,12,10,0.0,96.0
2787,76.0,12,10,0.0,96.0
2788,76.0,0,10,3.0,104.0
2789,81.0,12,10,0.0,96.0
2790,74.0,0,10,3.0,104.0
2791,72.0,12,10,0.0,96.0
2792,76.0,0,21,3.0,104.0
2793,76.0,12,10,0.0,96.0
2794,69.0,12,10,0.0,96.0
2795,72.0,0,10,4.0,104.0
2796,76.0,12,10,0.0,96.0
2797,71.0,0,10,4.0,104.0
2798,67.0,12,12,0.0,96.0
2799,73.0,0,21,4.0,104.0
2800,76.0,12,12,0.0,96.0
2801,81.0,12,10,0.0,96.0
2802,45.0,0,42,5.0,96.0
2803,33.0,0,42,6.0,96.0
2804,83.0,12,10,0.0,96.0
2805,73.0,0,24,1.0,96.0
2806,85.0,12,10,0.0,96.0
2807,81.0,12,10,0.0,96.0
2808,76.0,0,24,1.0,96.0
2809,76.0,12,10,0.0,96.0
2810,79.0,0,21,1.0,96.0
2811,81.0,12,10,0.0,96.0
2812,73.0,12,10,0.0,96.0
2813,76.0,12,10,0.0,96.0
2814,82.0,0,24,1.0,96.0
2815,67.0,12,10,0.0,96.0
2816,81.0,0,21,1.0,96.0
2817,76.0,12,10,0.0,96.0
2818,65.0,12,12,0.0,96.0
2819,74.0,12,12,0.0,96.0
2820,81.0,12,10,0.0,96.0
2821,77.0,0,10,2.0,104.0
2822,46.0,0,42,5.0,96.0
2823,34.0,0,42,6.0,96.0
2824,84.0,12,10,0.0,96.0
2825,76.0,0,10,2.0,104.0
2826,86.0,12,10,0.0,96.0
2827,74.0,0,21,2.0,104.0
2828,82.0,12,10,0.0,96.0
2829,79.0,12,10,0.0,96.0
2830,70.0,0,10,3.0,104.0
2831,82.0,12,10,0.0,96.0
2832,69.0,0,10,3.0,104.0
2833,74.0,12,10,0.0,96.0
2834,67.0,0,21,3.0,104.0
2835,79.0,12,10,0.0,96.0
2836,70.0,12,10,0.0,96.0
2837,63.0,0,10,4.0,104.0
2838,74.0,12,10,0.0,96.0
2839,62.0,0,10,4.0,104.0
2840,74.0,0,147,1.0,96.0
2841,66.0,12,12,0.0,96.0
2842,60.0,0,21,4.0,104.0
2843,74.0,12,12,0.0,96.0
2844,81.0,12,10,0.0,96.0
2845,45.0,0,42,5.0,96.0
2846,33.0,0,42,6.0,96.0
2847,72.0,0,21,1.0,96.0
2848,82.0,12,10,0.0,96.0
2849,84.0,12,10,0.0,96.0
2850,66.0,0,21,1.0,96.0
2851,81.0,12,10,0.0,96.0
2852,78.0,12,10,0.0,96.0
2853,69.0,0,21,1.0,96.0
2854,81.0,12,10,0.0,96.0
2855,72.0,12,10,0.0,96.0
2856,78.0,12,10,0.0,96.0
2857,63.0,0,24,1.0,96.0
2858,69.0,12,10,0.0,96.0
2859,72.0,12,10,0.0,96.0
2860,62.0,0,31,1.0,96.0
2861,74.0,12,12,1.0,96.0
2862,79.0,0,10,2.0,104.0
2863,79.0,12,12,1.0,96.0
2864,70.0,12,42,0.0,96.0
2865,43.0,0,42,5.0,96.0
2866,31.0,0,42,6.0,96.0
2867,81.0,12,10,1.0,96.0
2868,78.0,0,10,2.0,104.0
2869,82.0,12,10,1.0,96.0
2870,79.0,0,21,2.0,104.0
2871,79.0,12,10,1.0,96.0
2872,74.0,12,10,1.0,96.0
2873,74.0,0,10,3.0,104.0
2874,79.0,12,10,1.0,96.0
2875,72.0,0,10,3.0,104.0
2876,70.0,12,10,1.0,96.0
2877,74.0,0,21,3.0,104.0
2878,74.0,12,10,1.0,96.0
2879,67.0,12,10,1.0,96.0
2880,70.0,0,10,4.0,104.0
2881,74.0,12,10,1.0,96.0
2882,69.0,0,10,4.0,104.0
2883,65.0,12,12,1.0,96.0
2884,71.0,0,21,4.0,104.0
2885,74.0,12,12,1.0,96.0
2886,79.0,0,10,1.0,96.0
2887,43.0,0,42,5.0,96.0
2888,31.0,0,42,6.0,96.0
2889,81.0,12,10,1.0,96.0
2890,71.0,12,24,0.0,96.0
2891,83.0,0,10,1.0,96.0
2892,79.0,12,10,1.0,96.0
2893,74.0,12,24,0.0,96.0
2894,74.0,0,10,1.0,96.0
2895,77.0,12,21,0.0,96.0
2896,79.0,12,10,1.0,96.0
2897,71.0,0,10,1.0,96.0
2898,74.0,12,10,1.0,96.0
2899,80.0,12,24,0.0,96.0
2900,65.0,0,10,1.0,96.0
2901,79.0,12,21,0.0,96.0
2902,74.0,12,10,1.0,96.0
2903,64.0,0,12,1.0,96.0
2904,72.0,12,12,1.0,96.0
2905,79.0,12,10,1.0,96.0
2906,76.0,0,10,2.0,104.0
2907,45.0,0,42,5.0,96.0
2908,33.0,0,42,6.0,96.0
2909,83.0,12,10,1.0,96.0
2910,74.0,0,10,2.0,104.0
2911,84.0,12,10,1.0,96.0
2912,72.0,0,21,2.0,104.0
2913,81.0,12,10,1.0,96.0
2914,77.0,12,10,1.0,96.0
2915,69.0,0,10,3.0,104.0
2916,81.0,12,10,1.0,96.0
2917,67.0,0,10,3.0,104.0
2918,72.0,12,10,1.0,96.0
2919,65.0,0,21,3.0,104.0
2920,77.0,12,10,1.0,96.0
2921,69.0,12,10,1.0,96.0
2922,62.0,0,10,4.0,104.0
2923,72.0,12,10,1.0,96.0
2924,60.0,0,10,4.0,104.0
2925,72.0,12,147,0.0,96.0
2926,64.0,12,12,1.0,96.0
2927,58.0,0,21,4.0,104.0
2928,72.0,12,12,1.0,96.0
2929,79.0,0,10,1.0,96.0
2930,43.0,0,42,5.0,96.0
2931,31.0,0,42,6.0,96.0
2932,70.0,12,21,0.0,96.0
2933,81.0,12,10,1.0,96.0
2934,82.0,0,10,1.0,96.0
2935,64.0,12,21,0.0,96.0
2936,79.0,12,10,1.0,96.0
2937,76.0,0,10,1.0,96.0
2938,67.0,12,21,0.0,96.0
2939,79.0,12,10,1.0,96.0
2940,70.0,0,10,1.0,96.0
2941,61.0,12,21,0.0,96.0
2942,76.0,12,10,1.0,96.0
2943,67.0,0,10,1.0,96.0
2944,77.0,0,10,2.0,104.0
2945,70.0,12,10,1.0,96.0
2946,76.0,0,10,2.0,104.0
2947,77.0,0,10,2.0,104.0
2948,60.0,12,42,0.0,96.0
2949,69.0,12,21,1.0,96.0
2950,72.0,12,10,2.0,104.0
2951,74.0,0,10,2.0,104.0
2952,41.0,0,42,5.0,96.0
2953,29.0,0,42,6.0,96.0
2954,65.0,0,21,3.0,104.0
2955,65.0,0,21,4.0,104.0
2956,70.0,12,10,2.0,104.0
2957,79.0,12,24,0.0,96.0
2958,70.0,0,24,1.0,96.0
2959,72.0,0,10,2.0,104.0
2960,65.0,0,21,3.0,104.0
2961,65.0,0,21,4.0,104.0
2962,69.0,12,10,2.0,104.0
2963,77.0,12,24,0.0,96.0
2964,69.0,0,24,1.0,96.0
2965,70.0,0,10,2.0,104.0
2966,76.0,12,21,0.0,96.0
2967,67.0,0,21,1.0,96.0
2968,65.0,0,21,3.0,104.0
2969,65.0,0,21,4.0,104.0
2970,67.0,12,10,2.0,104.0
2971,69.0,0,10,2.0,104.0
2972,65.0,0,21,1.0,96.0
2973,65.0,0,21,3.0,104.0
2974,65.0,0,21,4.0,104.0
2975,74.0,12,10,2.0,104.0
2976,67.0,12,10,1.0,96.0
2977,76.0,0,10,2.0,104.0
2978,65.0,0,21,3.0,104.0
2979,65.0,0,21,4.0,104.0
2980,69.0,12,10,1.0,96.0
2981,77.0,0,10,2.0,104.0
2982,79.0,0,10,2.0,104.0
2983,74.0,12,63,0.0,96.0
2984,76.0,12,10,2.0,104.0
2985,77.0,0,10,2.0,104.0
2986,40.0,0,42,5.0,96.0
2987,28.0,0,42,6.0,96.0
2988,82.0,12,21,0.0,96.0
2989,64.0,0,21,3.0,104.0
2990,64.0,0,21,4.0,104.0
2991,74.0,12,10,2.0,104.0
2992,76.0,0,10,2.0,104.0
2993,70.0,12,63,1.0,96.0
2994,73.0,12,21,0.0,96.0
2995,64.0,0,21,3.0,104.0
2996,64.0,0,21,4.0,104.0
2997,73.0,12,10,2.0,104.0
2998,74.0,0,10,2.0,104.0
2999,76.0,12,21,0.0,96.0
3000,67.0,0,21,1.0,96.0
3001,64.0,0,21,3.0,104.0
3002,64.0,0,21,4.0,104.0
3003,71.0,12,10,2.0,104.0
3004,65.0,0,6,1.0,96.0
3005,73.0,0,10,2.0,104.0
3006,64.0,6,6,1.0,96.0
3007,65.0,6,6,1.0,96.0
3008,79.0,12,21,0.0,96.0
3009,64.0,0,21,3.0,104.0
3010,64.0,0,21,4.0,104.0
3011,69.0,0,10,2.0,104.0
3012,64.0,6,6,1.0,96.0
3013,65.0,0,6,1.0,96.0
3014,77.0,6,10,0.0,96.0
3015,74.0,0,10,2.0,104.0
3016,64.0,6,6,1.0,96.0
3017,65.0,0,6,1.0,96.0
3018,45.0,0,42,5.0,96.0
3019,33.0,0,42,6.0,96.0
3020,64.0,0,21,3.0,104.0
3021,64.0,0,21,4.0,104.0
3022,76.0,6,10,0.0,96.0
3023,73.0,0,10,2.0,104.0
3024,64.0,6,5,1.0,96.0
3025,74.0,0,10,2.0,104.0
3026,77.0,6,21,0.0,96.0
3027,62.0,0,21,1.0,96.0
3028,69.0,12,10,2.0,104.0
3029,70.0,0,10,2.0,104.0
3030,38.0,0,42,5.0,96.0
3031,26.0,0,42,6.0,96.0
3032,62.0,0,21,3.0,104.0
3033,62.0,0,21,4.0,104.0
3034,67.0,12,10,2.0,104.0
3035,79.0,12,24,0.0,96.0
3036,69.0,0,10,2.0,104.0
3037,74.0,0,42,1.0,96.0
3038,62.0,0,21,3.0,104.0
3039,62.0,0,21,4.0,104.0
3040,65.0,12,10,2.0,104.0
3041,77.0,12,24,0.0,96.0
3042,67.0,0,10,2.0,104.0
3043,76.0,12,21,0.0,96.0
3044,72.0,0,21,1.0,96.0
3045,62.0,0,21,3.0,104.0
3046,62.0,0,21,4.0,104.0
3047,64.0,12,10,2.0,104.0
3048,65.0,0,10,2.0,104.0
3049,74.0,12,21,0.0,96.0
3050,62.0,0,21,3.0,104.0
3051,62.0,0,21,4.0,104.0
3052,70.0,12,10,2.0,104.0
3053,75.0,12,10,0.0,96.0
3054,72.0,0,10,2.0,104.0
3055,62.0,0,21,3.0,104.0
3056,62.0,0,21,4.0,104.0
3057,77.0,12,10,0.0,96.0
3058,74.0,0,10,2.0,104.0
3059,75.0,0,10,2.0,104.0
3060,70.0,0,63,1.0,96.0
3061,72.0,12,10,2.0,104.0
3062,74.0,0,10,2.0,104.0
3063,36.0,0,42,5.0,96.0
3064,24.0,0,42,6.0,96.0
3065,79.0,12,21,1.0,96.0
3066,60.0,0,21,3.0,104.0
3067,60.0,0,21,4.0,104.0
3068,70.0,12,10,2.0,104.0
3069,72.0,0,10,2.0,104.0
3070,79.0,12,63,0.0,96.0
3071,69.0,12,21,1.0,96.0
3072,60.0,0,21,3.0,104.0
3073,60.0,0,21,4.0,104.0
3074,69.0,12,10,2.0,104.0
3075,70.0,0,10,2.0,104.0
3076,75.0,12,21,0.0,96.0
3077,72.0,0,21,1.0,96.0
3078,60.0,0,21,3.0,104.0
3079,60.0,0,21,4.0,104.0
3080,67.0,12,10,2.0,104.0
3081,74.0,12,6,0.0,96.0
3082,69.0,0,10,2.0,104.0
3083,72.0,6,6,0.0,96.0
3084,74.0,6,6,0.0,96.0
3085,75.0,0,21,1.0,96.0
3086,60.0,0,21,3.0,104.0
3087,60.0,0,21,4.0,104.0
3088,65.0,0,10,2.0,104.0
3089,72.0,6,6,0.0,96.0
3090,74.0,6,6,0.0,96.0
3091,74.0,0,10,1.0,96.0
3092,70.0,0,10,2.0,104.0
3093,72.0,6,6,0.0,96.0
3094,74.0,6,6,0.0,96.0
3095,41.0,0,42,5.0,96.0
3096,29.0,0,42,6.0,96.0
3097,60.0,0,21,3.0,104.0
3098,60.0,0,21,4.0,104.0
3099,72.0,0,10,1.0,96.0
3100,69.0,0,10,2.0,104.0
3101,72.0,6,5,0.0,96.0
3102,70.0,0,10,2.0,104.0
3103,70.0,6,21,0.0,96.0
3104,74.0,0,21,1.0,96.0
3105,65.0,12,10,2.0,104.0
3106,67.0,0,10,2.0,104.0
3107,46.0,0,42,5.0,96.0
3108,34.0,0,42,6.0,96.0
3109,58.0,0,21,3.0,104.0
3110,58.0,0,21,4.0,104.0
3111,63.0,12,10,2.0,104.0
3112,84.0,12,24,0.0,96.0
3113,75.0,0,24,1.0,96.0
3114,65.0,0,10,2.0,104.0
3115,58.0,0,21,3.0,104.0
3116,58.0,0,21,4.0,104.0
3117,62.0,12,10,2.0,104.0
3118,82.0,12,24,0.0,96.0
3119,74.0,0,24,1.0,96.0
3120,63.0,0,10,2.0,104.0
3121,81.0,12,21,0.0,96.0
3122,72.0,0,21,1.0,96.0
3123,58.0,0,21,3.0,104.0
3124,58.0,0,21,4.0,104.0
3125,60.0,12,10,2.0,104.0
3126,62.0,0,10,2.0,104.0
3127,70.0,0,21,1.0,96.0
3128,58.0,0,21,3.0,104.0
3129,58.0,0,21,4.0,104.0
3130,67.0,12,10,2.0,104.0
3131,72.0,12,10,1.0,96.0
3132,69.0,0,10,2.0,104.0
3133,58.0,0,21,3.0,104.0
3134,58.0,0,21,4.0,104.0
3135,74.0,12,10,1.0,96.0
3136,70.0,0,10,2.0,104.0
3137,72.0,0,10,2.0,104.0
3138,79.0,12,63,0.0,96.0
3139,69.0,12,10,2.0,104.0
3140,70.0,0,10,2.0,104.0
3141,45.0,0,42,5.0,96.0
3142,33.0,0,42,6.0,96.0
3143,87.0,12,21,0.0,96.0
3144,57.0,0,21,3.0,104.0
3145,57.0,0,21,4.0,104.0
3146,67.0,12,10,2.0,104.0
3147,69.0,0,10,2.0,104.0
3148,75.0,12,63,1.0,96.0
3149,78.0,12,21,0.0,96.0
3150,57.0,0,21,3.0,104.0
3151,57.0,0,21,4.0,104.0
3152,66.0,12,10,2.0,104.0
3153,67.0,0,10,2.0,104.0
3154,81.0,12,21,0.0,96.0
3155,72.0,0,21,1.0,96.0
3156,57.0,0,21,3.0,104.0
3157,57.0,0,21,4.0,104.0
3158,64.0,12,10,2.0,104.0
3159,70.0,0,6,1.0,96.0
3160,66.0,0,10,2.0,104.0
3161,69.0,6,6,1.0,96.0
3162,70.0,6,6,1.0,96.0
3163,84.0,12,21,0.0,96.0
3164,57.0,0,21,3.0,104.0
3165,57.0,0,21,4.0,104.0
3166,62.0,0,10,2.0,104.0
3167,69.0,6,6,1.0,96.0
3168,70.0,0,6,1.0,96.0
3169,82.0,6,10,0.0,96.0
3170,79.0,0,10,2.0,104.0
3171,74.0,0,10,3.0,104.0
3172,58.0,0,10,4.0,104.0
3173,69.0,6,6,1.0,96.0
3174,70.0,0,6,1.0,96.0
3175,50.0,0,42,5.0,96.0
3176,38.0,0,42,6.0,96.0
3177,81.0,6,10,0.0,96.0
3178,78.0,0,10,2.0,104.0
3179,72.0,0,10,3.0,104.0
3180,60.0,0,10,4.0,104.0
3181,69.0,6,5,1.0,96.0
3182,82.0,6,10,0.0,96.0
3183,67.0,0,21,1.0,96.0
3184,79.0,0,21,2.0,104.0
3185,70.0,0,21,3.0,104.0
3186,62.0,0,21,4.0,104.0
3187,43.0,0,21,5.0,96.0
3188,31.0,0,21,6.0,96.0
3189,74.0,12,10,0.0,96.0
3190,75.0,12,10,0.0,96.0
3191,79.0,0,10,1.0,96.0
3192,55.0,0,10,5.0,96.0
3193,43.0,0,10,6.0,96.0
3194,72.0,12,10,0.0,96.0
3195,78.0,0,10,1.0,96.0
3196,57.0,0,10,5.0,96.0
3197,45.0,0,10,6.0,96.0
3198,74.0,12,10,0.0,96.0
3199,79.0,0,10,1.0,96.0
3200,58.0,0,21,5.0,96.0
3201,46.0,0,21,6.0,96.0
3202,70.0,12,10,0.0,96.0
3203,74.0,0,10,1.0,96.0
3204,72.0,12,10,0.0,96.0
3205,75.0,0,10,1.0,96.0
3206,79.0,0,10,2.0,104.0
3207,75.0,0,10,3.0,104.0
3208,72.0,0,10,4.0,104.0
3209,69.0,12,10,0.0,96.0
3210,72.0,0,10,1.0,96.0
3211,78.0,0,10,2.0,104.0
3212,72.0,0,10,3.0,104.0
3213,69.0,0,10,4.0,104.0
3214,70.0,12,10,0.0,96.0
3215,74.0,0,10,1.0,96.0
3216,79.0,0,21,2.0,104.0
3217,74.0,0,21,3.0,104.0
3218,70.0,0,21,4.0,104.0
3219,67.0,12,10,0.0,96.0
3220,70.0,0,10,1.0,96.0
3221,69.0,12,10,0.0,96.0
3222,72.0,0,10,1.0,96.0
3223,62.0,0,21,5.0,96.0
3224,50.0,0,21,6.0,96.0
3225,66.0,12,10,0.0,96.0
3226,69.0,0,10,1.0,96.0
3227,70.0,0,10,1.0,96.0
3228,67.0,12,21,0.0,96.0
3229,55.0,0,21,5.0,96.0
3230,43.0,0,21,6.0,96.0
3231,67.0,12,10,1.0,96.0
3232,69.0,0,10,1.0,96.0
3233,75.0,0,10,2.0,104.0
3234,72.0,0,10,3.0,104.0
3235,69.0,0,10,4.0,104.0
3236,75.0,12,21,0.0,96.0
3237,66.0,12,10,1.0,96.0
3238,74.0,0,10,2.0,104.0
3239,69.0,0,10,3.0,104.0
3240,66.0,0,10,4.0,104.0
3241,67.0,0,10,1.0,96.0
3242,75.0,12,21,0.0,96.0
3243,75.0,0,21,2.0,104.0
3244,70.0,0,21,3.0,104.0
3245,67.0,0,21,4.0,104.0
3246,70.0,12,10,1.0,96.0
3247,69.0,0,10,1.0,96.0
3248,54.0,0,21,5.0,96.0
3249,42.0,0,21,6.0,96.0
3250,72.0,12,10,1.0,96.0
3251,74.0,12,31,0.0,96.0
3252,70.0,12,21,1.0,96.0
3253,55.0,0,21,5.0,96.0
3254,43.0,0,21,6.0,96.0
3255,76.0,12,10,0.0,96.0
3256,78.0,12,10,0.0,96.0
3257,78.0,0,10,2.0,104.0
3258,72.0,0,10,3.0,104.0
3259,69.0,0,10,4.0,104.0
3260,72.0,0,21,1.0,96.0
3261,57.0,0,21,5.0,96.0
3262,45.0,0,21,6.0,96.0
3263,74.0,12,10,0.0,96.0
3264,74.0,0,10,2.0,104.0
3265,69.0,0,10,3.0,104.0
3266,66.0,0,10,4.0,104.0
3267,79.0,12,10,0.0,96.0
3268,74.0,0,21,1.0,96.0
3269,79.0,0,21,2.0,104.0
3270,74.0,0,21,3.0,104.0
3271,62.0,0,21,4.0,104.0
3272,58.0,0,21,5.0,96.0
3273,46.0,0,21,6.0,96.0
3274,78.0,12,10,0.0,96.0
3275,76.0,0,12,1.0,96.0
3276,57.0,0,21,5.0,96.0
3277,45.0,0,21,6.0,96.0
3278,78.0,12,10,1.0,96.0
3279,79.0,12,31,0.0,96.0
3280,79.0,12,12,1.0,96.0
3281,58.0,0,21,5.0,96.0
3282,46.0,0,21,6.0,96.0
3283,81.0,12,10,0.0,96.0
3284,78.0,0,10,1.0,96.0
3285,82.0,12,10,0.0,96.0
3286,82.0,0,10,2.0,104.0
3287,79.0,0,10,3.0,104.0
3288,74.0,0,10,4.0,104.0
3289,79.0,0,12,1.0,96.0
3290,55.0,0,21,5.0,96.0
3291,43.0,0,21,6.0,96.0
3292,81.0,12,10,0.0,96.0
3293,78.0,0,10,1.0,96.0
3294,81.0,0,10,2.0,104.0
3295,78.0,0,10,3.0,104.0
3296,75.0,0,10,4.0,104.0
3297,84.0,12,12,0.0,96.0
3298,79.0,0,21,1.0,96.0
3299,84.0,0,21,2.0,104.0
3300,79.0,0,21,3.0,104.0
3301,72.0,0,21,4.0,104.0
3302,51.0,0,21,5.0,96.0
3303,39.0,0,21,6.0,96.0
3304,82.0,12,10,0.0,96.0
3305,81.0,12,12,0.0,96.0
3306,39.0,0,21,5.0,96.0
3307,27.0,0,21,6.0,96.0
3308,79.0,12,10,0.0,96.0
3309,79.0,0,24,1.0,96.0
3310,81.0,0,6,1.0,96.0
3311,85.0,12,12,0.0,96.0
3312,79.0,6,6,1.0,96.0
3313,81.0,0,6,1.0,96.0
3314,38.0,0,21,5.0,96.0
3315,26.0,0,21,6.0,96.0
3316,86.0,6,10,0.0,96.0
3317,79.0,6,5,1.0,96.0
3318,86.0,0,10,2.0,104.0
3319,81.0,0,10,3.0,104.0
3320,66.0,0,10,4.0,104.0
3321,74.0,6,21,0.0,96.0
3322,78.0,0,21,1.0,96.0
3323,50.0,0,21,5.0,96.0
3324,38.0,0,21,6.0,96.0
3325,85.0,12,10,2.0,104.0
3326,79.0,0,10,3.0,104.0
3327,64.0,0,10,4.0,104.0
3328,86.0,12,10,2.0,104.0
3329,81.0,0,10,3.0,104.0
3330,66.0,0,10,4.0,104.0
3331,54.0,0,21,5.0,96.0
3332,42.0,0,21,6.0,96.0
3333,81.0,12,10,2.0,104.0
3334,78.0,0,10,3.0,104.0
3335,62.0,0,10,4.0,104.0
3336,78.0,12,10,2.0,104.0
3337,74.0,0,10,3.0,104.0
3338,57.0,0,10,4.0,104.0
3339,57.0,0,21,5.0,96.0
3340,45.0,0,21,6.0,96.0
3341,81.0,12,10,2.0,104.0
3342,78.0,0,10,3.0,104.0
3343,62.0,0,10,4.0,104.0
3344,74.0,12,21,2.0,104.0
3345,69.0,0,21,3.0,104.0
3346,66.0,0,21,4.0,104.0
3347,62.0,0,21,5.0,96.0
3348,50.0,0,21,6.0,96.0
3349,74.0,24,10,0.0,96.0
3350,60.0,0,21,5.0,96.0
3351,48.0,0,21,6.0,96.0
3352,75.0,12,10,0.0,96.0
3353,77.0,12,21,0.0,96.0
3354,59.0,0,24,5.0,96.0
3355,47.0,0,24,6.0,96.0
3356,74.0,0,10,1.0,96.0
3357,75.0,12,10,1.0,96.0
3358,59.0,0,24,5.0,96.0
3359,47.0,0,24,6.0,96.0
3360,80.0,24,42,0.0,96.0
3361,59.0,0,21,5.0,96.0
3362,47.0,0,21,6.0,96.0
3363,77.0,12,24,1.0,96.0
3364,79.0,24,21,0.0,96.0
3365,75.0,0,21,1.0,96.0
3366,60.0,0,21,5.0,96.0
3367,48.0,0,21,6.0,96.0
3368,71.0,24,21,0.0,96.0
3369,53.0,0,21,5.0,96.0
3370,41.0,0,21,6.0,96.0
3371,80.0,0,24,1.0,96.0
3372,72.0,24,21,0.0,96.0
3373,79.0,0,21,1.0,96.0
3374,51.0,0,21,5.0,96.0
3375,39.0,0,21,6.0,96.0
3376,77.0,24,10,0.0,96.0
3377,74.0,12,10,0.0,96.0
3378,71.0,0,24,1.0,96.0
3379,50.0,0,24,5.0,96.0
3380,38.0,0,24,6.0,96.0
3381,75.0,12,21,0.0,96.0
3382,72.0,0,21,1.0,96.0
3383,48.0,0,24,5.0,96.0
3384,36.0,0,24,6.0,96.0
3385,77.0,24,12,1.0,96.0
3386,74.0,12,10,1.0,96.0
3387,47.0,0,24,5.0,96.0
3388,35.0,0,24,6.0,96.0
3389,75.0,0,10,2.0,104.0
3390,72.0,0,10,3.0,104.0
3391,67.0,0,10,4.0,104.0
3392,75.0,12,21,1.0,96.0
3393,74.0,12,10,2.0,104.0
3394,71.0,0,10,3.0,104.0
3395,65.0,0,10,4.0,104.0
3396,48.0,0,24,5.0,96.0
3397,36.0,0,24,6.0,96.0
3398,75.0,12,21,2.0,104.0
3399,72.0,0,21,3.0,104.0
3400,67.0,0,21,4.0,104.0
3401,60.0,0,21,5.0,96.0
3402,48.0,0,21,6.0,96.0
3403,76.0,24,10,0.0,96.0
3404,58.0,0,12,5.0,96.0
3405,46.0,0,12,6.0,96.0
3406,77.0,12,10,0.0,96.0
3407,79.0,12,21,0.0,96.0
3408,57.0,0,24,5.0,96.0
3409,45.0,0,24,6.0,96.0
3410,76.0,0,12,1.0,96.0
3411,77.0,12,10,1.0,96.0
3412,49.0,0,24,5.0,96.0
3413,37.0,0,24,6.0,96.0
3414,82.0,24,42,0.0,96.0
3415,49.0,0,21,5.0,96.0
3416,37.0,0,21,6.0,96.0
3417,79.0,12,24,1.0,96.0
3418,81.0,24,21,0.0,96.0
3419,77.0,0,21,1.0,96.0
3420,50.0,0,21,5.0,96.0
3421,38.0,0,21,6.0,96.0
3422,73.0,24,21,0.0,96.0
3423,55.0,0,21,5.0,96.0
3424,43.0,0,21,6.0,96.0
3425,82.0,0,24,1.0,96.0
3426,74.0,24,21,0.0,96.0
3427,81.0,0,21,1.0,96.0
3428,53.0,0,21,5.0,96.0
3429,41.0,0,21,6.0,96.0
3430,79.0,24,10,0.0,96.0
3431,76.0,12,10,0.0,96.0
3432,73.0,0,24,1.0,96.0
3433,52.0,0,24,5.0,96.0
3434,40.0,0,24,6.0,96.0
3435,78.0,12,21,0.0,96.0
3436,74.0,0,21,1.0,96.0
3437,50.0,0,24,5.0,96.0
3438,38.0,0,24,6.0,96.0
3439,79.0,24,10,1.0,96.0
3440,76.0,12,10,1.0,96.0
3441,49.0,0,24,5.0,96.0
3442,37.0,0,24,6.0,96.0
3443,78.0,0,10,2.0,104.0
3444,74.0,0,10,3.0,104.0
3445,69.0,0,10,4.0,104.0
3446,78.0,12,21,1.0,96.0
3447,76.0,12,10,2.0,104.0
3448,73.0,0,10,3.0,104.0
3449,67.0,0,10,4.0,104.0
3450,50.0,0,24,5.0,96.0
3451,38.0,0,24,6.0,96.0
3452,78.0,12,21,2.0,104.0
3453,74.0,0,21,3.0,104.0
3454,69.0,0,21,4.0,104.0
3455,62.0,0,21,5.0,96.0
3456,50.0,0,21,6.0,96.0
3457,86.0,24,10,0.0,96.0
3458,86.0,0,10,2.0,104.0
3459,81.0,0,21,3.0,104.0
3460,66.0,0,21,4.0,104.0
3461,60.0,0,21,5.0,96.0
3462,48.0,0,21,6.0,96.0
3463,85.0,12,10,0.0,96.0
3464,85.0,0,10,2.0,104.0
3465,86.0,12,10,0.0,96.0
3466,86.0,0,21,2.0,104.0
3467,79.0,0,21,3.0,104.0
3468,62.0,0,21,4.0,104.0
3469,58.0,0,21,5.0,96.0
3470,46.0,0,21,6.0,96.0
3471,81.0,12,10,0.0,96.0
3472,82.0,12,10,0.0,96.0
3473,86.0,0,10,1.0,96.0
3474,55.0,0,21,5.0,96.0
3475,43.0,0,21,6.0,96.0
3476,79.0,12,10,0.0,96.0
3477,85.0,0,10,1.0,96.0
3478,81.0,12,10,0.0,96.0
3479,86.0,0,10,1.0,96.0
3480,78.0,12,10,0.0,96.0
3481,81.0,0,10,1.0,96.0
3482,79.0,12,10,0.0,96.0
3483,82.0,0,10,1.0,96.0
3484,86.0,0,10,2.0,104.0
3485,82.0,0,10,3.0,104.0
3486,67.0,0,21,4.0,104.0
3487,55.0,0,21,5.0,96.0
3488,43.0,0,21,6.0,96.0
3489,76.0,12,10,0.0,96.0
3490,79.0,0,10,1.0,96.0
3491,85.0,0,10,2.0,104.0
3492,79.0,0,10,3.0,104.0
3493,78.0,12,10,0.0,96.0
3494,81.0,0,10,1.0,96.0
3495,86.0,0,21,2.0,104.0
3496,81.0,0,21,3.0,104.0
3497,62.0,0,21,4.0,104.0
3498,60.0,0,21,5.0,96.0
3499,48.0,0,21,6.0,96.0
3500,74.0,12,10,0.0,96.0
3501,78.0,0,10,1.0,96.0
3502,78.0,12,10,0.0,96.0
3503,74.0,0,21,1.0,96.0
3504,58.0,0,21,5.0,96.0
3505,46.0,0,21,6.0,96.0
3506,81.0,12,10,0.0,96.0
3507,84.0,12,10,0.0,96.0
3508,57.0,0,21,5.0,96.0
3509,45.0,0,21,6.0,96.0
3510,81.0,12,10,0.0,96.0
3511,82.0,12,10,0.0,96.0
3512,86.0,0,10,1.0,96.0
3513,74.0,0,10,2.0,104.0
3514,74.0,0,10,3.0,104.0
3515,67.0,0,21,4.0,104.0
3516,55.0,0,21,5.0,96.0
3517,43.0,0,21,6.0,96.0
3518,79.0,12,10,0.0,96.0
3519,82.0,0,10,1.0,96.0
3520,73.0,0,10,2.0,104.0
3521,76.0,0,10,3.0,104.0
3522,81.0,12,10,0.0,96.0
3523,84.0,0,10,1.0,96.0
3524,74.0,0,21,2.0,104.0
3525,78.0,0,21,3.0,104.0
3526,62.0,0,21,4.0,104.0
3527,78.0,12,10,0.0,96.0
3528,81.0,0,10,1.0,96.0
3529,79.0,12,10,0.0,96.0
3530,82.0,0,10,1.0,96.0
3531,50.0,0,21,5.0,96.0
3532,38.0,0,21,6.0,96.0
3533,76.0,12,10,0.0,96.0
3534,79.0,0,10,1.0,96.0
3535,78.0,12,10,0.0,96.0
3536,81.0,0,10,1.0,96.0
3537,62.0,0,10,5.0,96.0
3538,50.0,0,10,6.0,96.0
3539,74.0,12,10,0.0,96.0
3540,78.0,0,10,1.0,96.0
3541,60.0,0,10,5.0,96.0
3542,48.0,0,10,6.0,96.0
3543,78.0,12,10,0.0,96.0
3544,58.0,0,10,5.0,96.0
3545,46.0,0,10,6.0,96.0
3546,74.0,0,21,1.0,96.0
3547,72.0,0,21,2.0,104.0
3548,78.0,0,21,3.0,104.0
3549,62.0,0,21,4.0,104.0
3550,81.0,12,10,0.0,96.0
3551,57.0,0,10,5.0,96.0
3552,45.0,0,10,6.0,96.0
3553,82.0,12,21,0.0,96.0
3554,70.0,0,21,2.0,104.0
3555,79.0,0,21,3.0,104.0
3556,62.0,0,21,4.0,104.0
3557,74.0,24,12,1.0,96.0
3558,55.0,0,42,5.0,96.0
3559,43.0,0,42,6.0,96.0
3560,72.0,12,10,1.0,96.0
3561,74.0,12,21,1.0,96.0
3562,82.0,24,21,1.0,96.0
3563,43.0,0,21,5.0,96.0
3564,31.0,0,21,6.0,96.0
3565,45.0,0,21,5.0,96.0
3566,33.0,0,21,6.0,96.0
3567,78.0,24,24,1.0,96.0
3568,79.0,24,21,1.0,96.0
3569,46.0,0,21,5.0,96.0
3570,34.0,0,21,6.0,96.0
3571,48.0,24,12,5.0,96.0
3572,36.0,0,12,6.0,96.0
3573,50.0,12,12,5.0,96.0
3574,38.0,0,12,6.0,96.0
3575,72.0,12,10,1.0,96.0
3576,51.0,0,21,5.0,96.0
3577,39.0,0,21,6.0,96.0
3578,70.0,12,10,1.0,96.0
3579,72.0,12,21,1.0,96.0
3580,48.0,0,24,5.0,96.0
3581,36.0,0,24,6.0,96.0
3582,81.0,24,31,1.0,96.0
3583,79.0,12,10,1.0,96.0
3584,50.0,24,24,5.0,96.0
3585,38.0,0,24,6.0,96.0
3586,78.0,12,10,1.0,96.0
3587,51.0,0,21,5.0,96.0
3588,39.0,0,21,6.0,96.0
3589,79.0,12,10,1.0,96.0
3590,81.0,12,10,1.0,96.0
3591,42.0,0,12,5.0,96.0
3592,30.0,0,12,6.0,96.0
3593,79.0,12,10,1.0,96.0
3594,43.0,0,12,5.0,96.0
3595,31.0,0,12,6.0,96.0
3596,78.0,12,10,1.0,96.0
3597,45.0,0,21,5.0,96.0
3598,33.0,0,21,6.0,96.0
3599,76.0,12,10,1.0,96.0
3600,74.0,12,10,1.0,96.0
3601,72.0,12,10,1.0,96.0
3602,42.0,0,24,5.0,96.0
3603,30.0,0,24,6.0,96.0
3604,75.0,12,42,1.0,96.0
3605,43.0,24,24,5.0,96.0
3606,31.0,0,24,6.0,96.0
3607,45.0,0,21,5.0,96.0
3608,33.0,0,21,6.0,96.0
3609,74.0,24,31,1.0,96.0
3610,46.0,24,12,5.0,96.0
3611,34.0,0,12,6.0,96.0
3612,72.0,12,10,1.0,96.0
3613,48.0,0,12,5.0,96.0
3614,36.0,0,12,6.0,96.0
3615,70.0,12,10,1.0,96.0
3616,67.0,0,10,2.0,104.0
3617,62.0,0,10,3.0,104.0
3618,58.0,0,10,4.0,104.0
3619,50.0,0,21,5.0,96.0
3620,38.0,0,21,6.0,96.0
3621,69.0,12,10,1.0,96.0
3622,69.0,0,10,2.0,104.0
3623,63.0,0,10,3.0,104.0
3624,60.0,0,10,4.0,104.0
3625,70.0,12,10,1.0,96.0
3626,67.0,0,21,2.0,104.0
3627,62.0,0,21,3.0,104.0
3628,58.0,0,21,4.0,104.0
3629,55.0,0,21,5.0,96.0
3630,43.0,0,21,6.0,96.0
3631,67.0,12,10,1.0,96.0
3632,69.0,12,10,1.0,96.0
3633,50.0,0,21,5.0,96.0
3634,38.0,0,21,6.0,96.0
3635,66.0,12,10,1.0,96.0
3636,67.0,12,10,1.0,96.0
3637,46.0,0,21,5.0,96.0
3638,34.0,0,21,6.0,96.0
3639,62.0,12,10,1.0,96.0
3640,70.0,0,10,2.0,104.0
3641,67.0,0,10,3.0,104.0
3642,62.0,0,10,4.0,104.0
3643,67.0,12,12,1.0,96.0
3644,50.0,0,21,5.0,96.0
3645,38.0,0,21,6.0,96.0
3646,72.0,0,10,2.0,104.0
3647,69.0,0,10,3.0,104.0
3648,63.0,0,10,4.0,104.0
3649,66.0,12,12,1.0,96.0
3650,67.0,12,10,1.0,96.0
3651,70.0,0,21,2.0,104.0
3652,67.0,0,21,3.0,104.0
3653,62.0,0,21,4.0,104.0
3654,62.0,12,10,1.0,96.0
3655,74.0,12,10,0.0,96.0
3656,70.0,0,12,1.0,96.0
3657,43.0,0,42,5.0,96.0
3658,31.0,0,42,6.0,96.0
3659,72.0,12,10,0.0,96.0
3660,69.0,0,12,1.0,96.0
3661,70.0,0,10,1.0,96.0
3662,74.0,12,21,0.0,96.0
3663,67.0,12,10,1.0,96.0
3664,74.0,0,10,1.0,96.0
3665,82.0,12,21,0.0,96.0
3666,43.0,0,21,5.0,96.0
3667,31.0,0,21,6.0,96.0
3668,70.0,12,10,1.0,96.0
3669,72.0,0,10,1.0,96.0
3670,78.0,12,21,0.0,96.0
3671,50.0,0,21,5.0,96.0
3672,38.0,0,21,6.0,96.0
3673,69.0,12,10,1.0,96.0
3674,70.0,0,10,1.0,96.0
3675,79.0,12,21,0.0,96.0
3676,55.0,0,21,5.0,96.0
3677,43.0,0,21,6.0,96.0
3678,67.0,12,10,1.0,96.0
3679,66.0,12,10,1.0,96.0
3680,74.0,12,10,1.0,96.0
3681,72.0,12,10,0.0,96.0
3682,81.0,0,12,1.0,96.0
3683,50.0,0,42,5.0,96.0
3684,38.0,0,42,6.0,96.0
3685,70.0,12,10,0.0,96.0
3686,79.0,0,12,1.0,96.0
3687,81.0,0,10,1.0,96.0
3688,72.0,12,21,0.0,96.0
3689,74.0,12,10,1.0,96.0
3690,84.0,0,12,1.0,96.0
3691,50.0,0,21,5.0,96.0
3692,38.0,0,21,6.0,96.0
3693,82.0,12,12,1.0,96.0
3694,81.0,12,31,0.0,96.0
3695,84.0,12,10,1.0,96.0
3696,54.0,0,21,5.0,96.0
3697,42.0,0,21,6.0,96.0
3698,79.0,12,10,0.0,96.0
3699,81.0,0,10,1.0,96.0
3700,78.0,12,10,0.0,96.0
3701,86.0,0,10,1.0,96.0
3702,57.0,0,21,5.0,96.0
3703,45.0,0,21,6.0,96.0
3704,79.0,12,10,0.0,96.0
3705,82.0,0,10,1.0,96.0
3706,81.0,12,10,0.0,96.0
3707,84.0,0,21,1.0,96.0
3708,79.0,12,10,0.0,96.0
3709,78.0,12,10,0.0,96.0
3710,62.0,0,42,5.0,96.0
3711,50.0,0,42,6.0,96.0
3712,76.0,12,10,0.0,96.0
3713,62.0,0,31,1.0,96.0
3714,74.0,12,10,0.0,96.0
3715,72.0,12,10,0.0,96.0
3716,64.0,0,10,1.0,96.0
3717,66.0,0,10,1.0,96.0
3718,57.0,0,21,5.0,96.0
3719,45.0,0,21,6.0,96.0
3720,67.0,12,10,1.0,96.0
3721,69.0,12,10,1.0,96.0
3722,75.0,12,42,0.0,96.0
3723,54.0,0,21,5.0,96.0
3724,42.0,0,21,6.0,96.0
3725,70.0,12,10,1.0,96.0
3726,72.0,0,10,1.0,96.0
3727,50.0,0,21,5.0,96.0
3728,38.0,0,21,6.0,96.0
3729,69.0,12,10,1.0,96.0
3730,74.0,12,31,0.0,96.0
3731,70.0,12,10,1.0,96.0
3732,72.0,12,10,0.0,96.0
3733,75.0,0,10,1.0,96.0
3734,70.0,12,10,0.0,96.0
3735,74.0,0,10,1.0,96.0
3736,74.0,0,10,2.0,104.0
3737,70.0,0,10,3.0,104.0
3738,55.0,0,42,5.0,96.0
3739,43.0,0,42,6.0,96.0
3740,67.0,0,21,4.0,104.0
3741,69.0,12,10,0.0,96.0
3742,72.0,0,10,1.0,96.0
3743,75.0,0,10,2.0,104.0
3744,72.0,0,10,3.0,104.0
3745,70.0,12,10,0.0,96.0
3746,74.0,0,10,1.0,96.0
3747,74.0,0,21,2.0,104.0
3748,70.0,0,21,3.0,104.0
3749,67.0,0,21,4.0,104.0
3750,67.0,12,10,0.0,96.0
3751,70.0,0,10,1.0,96.0
3752,69.0,12,10,0.0,96.0
3753,72.0,0,10,1.0,96.0
3754,50.0,0,21,5.0,96.0
3755,38.0,0,21,6.0,96.0
3756,66.0,12,10,0.0,96.0
3757,69.0,0,10,1.0,96.0
3758,67.0,12,10,0.0,96.0
3759,70.0,0,10,1.0,96.0
3760,46.0,0,21,5.0,96.0
3761,34.0,0,21,6.0,96.0
3762,62.0,12,10,0.0,96.0
3763,74.0,0,10,1.0,96.0
3764,79.0,0,10,2.0,104.0
3765,74.0,0,10,3.0,104.0
3766,70.0,0,10,4.0,104.0
3767,67.0,12,12,0.0,96.0
3768,70.0,0,12,1.0,96.0
3769,50.0,0,21,5.0,96.0
3770,38.0,0,21,6.0,96.0
3771,81.0,0,10,2.0,104.0
3772,75.0,0,10,3.0,104.0
3773,72.0,0,10,4.0,104.0
3774,66.0,12,12,0.0,96.0
3775,69.0,0,12,1.0,96.0
3776,67.0,12,10,0.0,96.0
3777,70.0,0,10,1.0,96.0
3778,79.0,0,21,2.0,104.0
3779,74.0,0,21,3.0,104.0
3780,70.0,0,21,4.0,104.0
3781,62.0,12,10,0.0,96.0
3782,74.0,0,10,1.0,96.0
3783,70.0,12,12,0.0,96.0
3784,67.0,0,12,1.0,96.0
3785,43.0,0,42,5.0,96.0
3786,31.0,0,42,6.0,96.0
3787,69.0,12,12,0.0,96.0
3788,66.0,0,12,1.0,96.0
3789,71.0,12,10,0.0,96.0
3790,67.0,0,10,1.0,96.0
3791,86.0,0,21,2.0,104.0
3792,77.0,0,21,3.0,104.0
3793,71.0,0,21,4.0,104.0
3794,67.0,12,10,0.0,96.0
3795,74.0,0,10,1.0,96.0
3796,74.0,12,12,0.0,96.0
3797,65.0,0,12,1.0,96.0
3798,55.0,0,21,5.0,96.0
3799,43.0,0,21,6.0,96.0
3800,72.0,12,12,0.0,96.0
3801,63.0,0,12,1.0,96.0
3802,74.0,12,10,0.0,96.0
3803,65.0,0,10,1.0,96.0
3804,59.0,0,21,5.0,96.0
3805,47.0,0,21,6.0,96.0
3806,67.0,12,10,0.0,96.0
3807,74.0,0,10,1.0,96.0
3808,72.0,12,10,0.0,96.0
3809,63.0,0,10,1.0,96.0
3810,55.0,0,21,5.0,96.0
3811,43.0,0,21,6.0,96.0
3812,74.0,12,10,0.0,96.0
3813,62.0,0,10,1.0,96.0
3814,75.0,12,10,0.0,96.0
3815,60.0,0,10,1.0,96.0
3816,84.0,0,21,2.0,104.0
3817,75.0,0,21,3.0,104.0
3818,67.0,0,21,4.0,104.0
3819,79.0,12,10,0.0,96.0
3820,55.0,0,10,1.0,96.0
3821,72.0,12,12,0.0,96.0
3822,63.0,0,12,1.0,96.0
3823,60.0,0,42,5.0,96.0
3824,48.0,0,42,6.0,96.0
3825,71.0,12,12,0.0,96.0
3826,62.0,0,12,1.0,96.0
3827,72.0,12,10,0.0,96.0
3828,64.0,0,10,1.0,96.0
3829,82.0,0,21,2.0,104.0
3830,79.0,0,21,3.0,104.0
3831,76.0,0,21,4.0,104.0
3832,79.0,12,10,0.0,96.0
3833,60.0,0,10,1.0,96.0
3834,70.0,12,12,0.0,96.0
3835,67.0,0,12,1.0,96.0
3836,48.0,0,21,5.0,96.0
3837,36.0,0,21,6.0,96.0
3838,69.0,12,12,0.0,96.0
3839,65.0,0,12,1.0,96.0
3840,70.0,12,10,0.0,96.0
3841,67.0,0,10,1.0,96.0
3842,52.0,0,21,5.0,96.0
3843,40.0,0,21,6.0,96.0
3844,79.0,12,10,0.0,96.0
3845,64.0,0,10,1.0,96.0
3846,69.0,0,10,1.0,96.0
3847,69.0,12,12,0.0,96.0
3848,48.0,0,21,5.0,96.0
3849,36.0,0,21,6.0,96.0
3850,71.0,0,10,1.0,96.0
3851,67.0,12,12,0.0,96.0
3852,69.0,12,10,0.0,96.0
3853,73.0,0,10,1.0,96.0
3854,81.0,0,21,2.0,104.0
3855,73.0,0,21,3.0,104.0
3856,64.0,0,21,4.0,104.0
3857,62.0,12,10,0.0,96.0
3858,76.0,0,10,1.0,96.0
3859,73.0,12,12,0.0,96.0
3860,69.0,0,12,1.0,96.0
3861,45.0,0,42,5.0,96.0
3862,33.0,0,42,6.0,96.0
3863,71.0,12,12,0.0,96.0
3864,68.0,0,12,1.0,96.0
3865,73.0,12,10,0.0,96.0
3866,69.0,0,10,1.0,96.0
3867,79.0,0,21,2.0,104.0
3868,76.0,0,21,3.0,104.0
3869,69.0,0,21,4.0,104.0
3870,69.0,12,10,0.0,96.0
3871,76.0,0,10,1.0,96.0
3872,76.0,12,12,0.0,96.0
3873,67.0,0,12,1.0,96.0
3874,57.0,0,21,5.0,96.0
3875,45.0,0,21,6.0,96.0
3876,74.0,12,12,0.0,96.0
3877,65.0,0,12,1.0,96.0
3878,76.0,12,10,0.0,96.0
3879,67.0,0,10,1.0,96.0
3880,61.0,0,21,5.0,96.0
3881,49.0,0,21,6.0,96.0
3882,69.0,12,10,0.0,96.0
3883,76.0,0,10,1.0,96.0
3884,74.0,12,10,0.0,96.0
3885,65.0,0,10,1.0,96.0
3886,57.0,0,21,5.0,96.0
3887,45.0,0,21,6.0,96.0
3888,76.0,12,10,0.0,96.0
3889,64.0,0,10,1.0,96.0
3890,77.0,12,10,0.0,96.0
3891,62.0,0,10,1.0,96.0
3892,77.0,0,21,2.0,104.0
3893,74.0,0,21,3.0,104.0
3894,69.0,0,21,4.0,104.0
3895,81.0,12,10,0.0,96.0
3896,57.0,0,10,1.0,96.0
3897,74.0,12,12,0.0,96.0
3898,65.0,0,12,1.0,96.0
3899,62.0,0,42,5.0,96.0
3900,50.0,0,42,6.0,96.0
3901,73.0,12,12,0.0,96.0
3902,64.0,0,12,1.0,96.0
3903,74.0,12,10,0.0,96.0
3904,65.0,0,10,1.0,96.0
3905,74.0,0,21,2.0,104.0
3906,68.0,0,21,3.0,104.0
3907,71.0,0,21,4.0,104.0
3908,80.0,12,10,0.0,96.0
3909,62.0,0,10,1.0,96.0
3910,74.0,12,12,0.0,96.0
3911,71.0,0,12,1.0,96.0
3912,59.0,0,21,5.0,96.0
3913,47.0,0,21,6.0,96.0
3914,73.0,12,12,0.0,96.0
3915,69.0,0,12,1.0,96.0
3916,74.0,12,10,0.0,96.0
3917,71.0,0,10,1.0,96.0
3918,56.0,0,21,5.0,96.0
3919,44.0,0,21,6.0,96.0
3920,83.0,12,10,0.0,96.0
3921,64.0,0,10,1.0,96.0
3922,72.0,12,10,0.0,96.0
3923,69.0,0,10,1.0,96.0
3924,52.0,0,21,5.0,96.0
3925,40.0,0,21,6.0,96.0
3926,71.0,12,10,0.0,96.0
3927,71.0,0,10,1.0,96.0
3928,69.0,12,10,0.0,96.0
3929,72.0,0,10,1.0,96.0
3930,72.0,0,21,2.0,104.0
3931,64.0,0,21,3.0,104.0
3932,69.0,0,21,4.0,104.0
3933,72.0,12,10,0.0,96.0
3934,64.0,0,10,1.0,96.0
3935,76.0,12,10,0.0,96.0
3936,69.0,0,10,1.0,96.0
3937,45.0,0,42,5.0,96.0
3938,33.0,0,42,6.0,96.0
3939,81.0,12,10,0.0,96.0
3940,72.0,0,10,1.0,96.0
3941,84.0,12,10,0.0,96.0
3942,65.0,0,21,1.0,96.0
3943,77.0,0,21,2.0,104.0
3944,72.0,0,21,3.0,104.0
3945,69.0,0,21,4.0,104.0
3946,81.0,12,10,0.0,96.0
3947,82.0,12,10,0.0,96.0
3948,48.0,0,21,5.0,96.0
3949,36.0,0,21,6.0,96.0
3950,79.0,12,10,0.0,96.0
3951,77.0,0,31,1.0,96.0
3952,81.0,12,21,0.0,96.0
3953,41.0,0,21,5.0,96.0
3954,29.0,0,21,6.0,96.0
3955,74.0,12,10,1.0,96.0
3956,76.0,0,10,1.0,96.0
3957,45.0,0,21,5.0,96.0
3958,33.0,0,21,6.0,96.0
3959,73.0,12,10,1.0,96.0
3960,84.0,12,31,0.0,96.0
3961,74.0,12,10,1.0,96.0
3962,74.0,0,21,2.0,104.0
3963,70.0,0,21,3.0,104.0
3964,65.0,0,21,4.0,104.0
3965,74.0,12,10,0.0,96.0
3966,65.0,0,10,1.0,96.0
3967,77.0,12,10,0.0,96.0
3968,70.0,0,10,1.0,96.0
3969,46.0,0,42,5.0,96.0
3970,34.0,0,42,6.0,96.0
3971,82.0,12,10,0.0,96.0
3972,74.0,0,10,1.0,96.0
3973,86.0,12,10,0.0,96.0
3974,67.0,0,21,1.0,96.0
3975,79.0,0,21,2.0,104.0
3976,74.0,0,21,3.0,104.0
3977,70.0,0,21,4.0,104.0
3978,82.0,12,10,0.0,96.0
3979,84.0,12,10,0.0,96.0
3980,50.0,0,21,5.0,96.0
3981,38.0,0,21,6.0,96.0
3982,81.0,12,10,0.0,96.0
3983,79.0,0,31,1.0,96.0
3984,83.0,12,21,0.0,96.0
3985,43.0,0,21,5.0,96.0
3986,31.0,0,21,6.0,96.0
3987,76.0,12,10,1.0,96.0
3988,77.0,0,10,1.0,96.0
3989,47.0,0,21,5.0,96.0
3990,35.0,0,21,6.0,96.0
3991,74.0,12,10,1.0,96.0
3992,86.0,12,31,0.0,96.0
3993,76.0,12,10,1.0,96.0
3994,76.0,0,21,2.0,104.0
3995,72.0,0,21,3.0,104.0
3996,67.0,0,21,4.0,104.0
3997,76.0,12,10,0.0,96.0
3998,67.0,0,10,1.0,96.0
3999,79.0,12,10,0.0,96.0
4000,72.0,0,10,1.0,96.0
4001,48.0,0,42,5.0,96.0
4002,36.0,0,42,6.0,96.0
4003,84.0,12,10,0.0,96.0
4004,76.0,0,10,1.0,96.0
4005,88.0,12,10,0.0,96.0
4006,69.0,0,21,1.0,96.0
4007,81.0,0,21,2.0,104.0
4008,76.0,0,21,3.0,104.0
4009,61.0,0,21,4.0,104.0
4010,85.0,12,10,0.0,96.0
4011,86.0,12,10,0.0,96.0
4012,52.0,0,21,5.0,96.0
4013,40.0,0,21,6.0,96.0
4014,83.0,12,10,0.0,96.0
4015,81.0,0,31,1.0,96.0
4016,85.0,12,21,0.0,96.0
4017,45.0,0,21,5.0,96.0
4018,33.0,0,21,6.0,96.0
4019,77.0,12,10,1.0,96.0
4020,79.0,0,10,1.0,96.0
4021,49.0,0,21,5.0,96.0
4022,37.0,0,21,6.0,96.0
4023,76.0,12,10,1.0,96.0
4024,88.0,12,31,0.0,96.0
4025,77.0,0,21,2.0,104.0
4026,74.0,0,21,3.0,104.0
4027,69.0,0,21,4.0,104.0
4028,69.0,12,10,0.0,96.0
4029,74.0,12,10,0.0,96.0
4030,74.0,0,10,2.0,104.0
4031,77.0,12,42,1.0,96.0
4032,50.0,0,42,5.0,96.0
4033,38.0,0,42,6.0,96.0
4034,76.0,12,10,0.0,96.0
4035,73.0,0,10,2.0,104.0
4036,77.0,12,10,0.0,96.0
4037,74.0,0,21,2.0,104.0
4038,74.0,12,10,0.0,96.0
4039,69.0,12,10,0.0,96.0
4040,69.0,0,10,3.0,104.0
4041,74.0,12,10,0.0,96.0
4042,67.0,0,10,3.0,104.0
4043,65.0,12,10,0.0,96.0
4044,69.0,0,21,3.0,104.0
4045,69.0,12,10,0.0,96.0
4046,62.0,12,10,0.0,96.0
4047,65.0,0,10,4.0,104.0
4048,69.0,12,10,0.0,96.0
4049,64.0,0,10,4.0,104.0
4050,60.0,12,12,0.0,96.0
4051,66.0,0,21,4.0,104.0
4052,69.0,12,12,0.0,96.0
4053,74.0,12,10,0.0,96.0
4054,50.0,0,42,5.0,96.0
4055,38.0,0,42,6.0,96.0
4056,76.0,12,10,0.0,96.0
4057,78.0,0,24,1.0,96.0
4058,78.0,12,10,0.0,96.0
4059,74.0,12,10,0.0,96.0
4060,81.0,0,24,1.0,96.0
4061,69.0,12,10,0.0,96.0
4062,84.0,0,21,1.0,96.0
4063,74.0,12,10,0.0,96.0
4064,66.0,12,10,0.0,96.0
4065,69.0,12,10,0.0,96.0
4066,87.0,0,24,1.0,96.0
4067,60.0,12,10,0.0,96.0
4068,86.0,0,21,1.0,96.0
4069,69.0,12,10,0.0,96.0
4070,58.0,12,12,0.0,96.0
4071,67.0,12,12,0.0,96.0
4072,74.0,12,10,0.0,96.0
4073,70.0,0,10,2.0,104.0
4074,51.0,0,42,5.0,96.0
4075,39.0,0,42,6.0,96.0
4076,78.0,12,10,0.0,96.0
4077,69.0,0,10,2.0,104.0
4078,79.0,12,10,0.0,96.0
4079,67.0,0,21,2.0,104.0
4080,75.0,12,10,0.0,96.0
4081,72.0,12,10,0.0,96.0
4082,63.0,0,10,3.0,104.0
4083,75.0,12,10,0.0,96.0
4084,62.0,0,10,3.0,104.0
4085,67.0,12,10,0.0,96.0
4086,60.0,0,21,3.0,104.0
4087,72.0,12,10,0.0,96.0
4088,63.0,12,10,0.0,96.0
4089,56.0,0,10,4.0,104.0
4090,67.0,12,10,0.0,96.0
4091,55.0,0,10,4.0,104.0
4092,79.0,0,147,1.0,96.0
4093,59.0,12,12,0.0,96.0
4094,53.0,0,21,4.0,104.0
4095,67.0,12,12,0.0,96.0
4096,74.0,12,10,0.0,96.0
4097,50.0,0,42,5.0,96.0
4098,38.0,0,42,6.0,96.0
4099,77.0,0,21,1.0,96.0
4100,75.0,12,10,0.0,96.0
4101,77.0,12,10,0.0,96.0
4102,71.0,0,21,1.0,96.0
4103,74.0,12,10,0.0,96.0
4104,71.0,12,10,0.0,96.0
4105,74.0,0,21,1.0,96.0
4106,74.0,12,10,0.0,96.0
4107,65.0,12,10,0.0,96.0
4108,68.0,0,21,1.0,96.0
4109,71.0,12,10,0.0,96.0
4110,62.0,12,10,0.0,96.0
4111,65.0,12,10,0.0,96.0
4112,67.0,0,31,1.0,96.0
4113,67.0,12,10,1.0,96.0
4114,72.0,12,10,1.0,96.0
4115,72.0,0,10,2.0,104.0
4116,63.0,12,42,0.0,96.0
4117,48.0,0,42,5.0,96.0
4118,36.0,0,42,6.0,96.0
4119,74.0,12,10,1.0,96.0
4120,71.0,0,10,2.0,104.0
4121,75.0,12,10,1.0,96.0
4122,72.0,0,21,2.0,104.0
4123,72.0,12,10,1.0,96.0
4124,67.0,12,10,1.0,96.0
4125,67.0,0,10,3.0,104.0
4126,72.0,12,10,1.0,96.0
4127,65.0,0,10,3.0,104.0
4128,63.0,12,10,1.0,96.0
4129,67.0,0,21,3.0,104.0
4130,67.0,12,10,1.0,96.0
4131,60.0,12,10,1.0,96.0
4132,63.0,0,10,4.0,104.0
4133,67.0,12,10,1.0,96.0
4134,62.0,0,10,4.0,104.0
4135,58.0,12,12,1.0,96.0
4136,64.0,0,21,4.0,104.0
4137,67.0,12,12,1.0,96.0
4138,72.0,0,12,1.0,96.0
4139,48.0,0,42,5.0,96.0
4140,36.0,0,42,6.0,96.0
4141,76.0,12,24,0.0,96.0
4142,74.0,12,12,1.0,96.0
4143,76.0,0,12,1.0,96.0
4144,79.0,12,24,0.0,96.0
4145,72.0,12,12,1.0,96.0
4146,67.0,0,12,1.0,96.0
4147,82.0,12,21,0.0,96.0
4148,72.0,12,12,1.0,96.0
4149,64.0,0,12,1.0,96.0
4150,85.0,12,24,0.0,96.0
4151,67.0,12,12,1.0,96.0
4152,58.0,0,12,1.0,96.0
4153,84.0,12,21,0.0,96.0
4154,67.0,12,12,1.0,96.0
4155,57.0,0,12,1.0,96.0
4156,65.0,12,12,1.0,96.0
4157,72.0,12,10,1.0,96.0
4158,69.0,0,10,2.0,104.0
4159,50.0,0,42,5.0,96.0
4160,38.0,0,42,6.0,96.0
4161,76.0,12,10,1.0,96.0
4162,67.0,0,10,2.0,104.0
4163,77.0,12,10,1.0,96.0
4164,65.0,0,21,2.0,104.0
4165,74.0,12,10,1.0,96.0
4166,70.0,12,10,1.0,96.0
4167,62.0,0,10,3.0,104.0
4168,74.0,12,10,1.0,96.0
4169,60.0,0,10,3.0,104.0
4170,65.0,12,10,1.0,96.0
4171,58.0,0,21,3.0,104.0
4172,70.0,12,10,1.0,96.0
4173,62.0,12,10,1.0,96.0
4174,55.0,0,10,4.0,104.0
4175,65.0,12,10,1.0,96.0
4176,53.0,0,10,4.0,104.0
4177,77.0,12,147,0.0,96.0
4178,57.0,12,12,1.0,96.0
4179,51.0,0,21,4.0,104.0
4180,65.0,12,12,1.0,96.0
4181,72.0,0,10,1.0,96.0
4182,48.0,0,42,5.0,96.0
4183,36.0,0,42,6.0,96.0
4184,75.0,12,21,0.0,96.0
4185,74.0,12,10,1.0,96.0
4186,75.0,0,10,1.0,96.0
4187,69.0,12,21,0.0,96.0
4188,72.0,12,10,1.0,96.0
4189,69.0,0,10,1.0,96.0
4190,72.0,12,21,0.0,96.0
4191,72.0,12,10,1.0,96.0
4192,63.0,0,10,1.0,96.0
4193,69.0,12,10,1.0,96.0
4194,66.0,12,24,0.0,96.0
4195,60.0,0,10,1.0,96.0
4196,70.0,0,10,2.0,104.0
4197,63.0,12,10,1.0,96.0
4198,69.0,0,10,2.0,104.0
4199,70.0,0,10,2.0,104.0
4200,65.0,12,42,0.0,96.0
4201,62.0,12,21,1.0,96.0
4202,65.0,12,10,2.0,104.0
4203,67.0,0,10,2.0,104.0
4204,46.0,0,42,5.0,96.0
4205,34.0,0,42,6.0,96.0
4206,58.0,0,21,3.0,104.0
4207,58.0,0,21,4.0,104.0
4208,63.0,12,10,2.0,104.0
4209,72.0,12,24,0.0,96.0
4210,75.0,0,24,1.0,96.0
4211,65.0,0,10,2.0,104.0
4212,58.0,0,21,3.0,104.0
4213,58.0,0,21,4.0,104.0
4214,62.0,12,10,2.0,104.0
4215,70.0,12,24,0.0,96.0
4216,74.0,0,24,1.0,96.0
4217,63.0,0,10,2.0,104.0
4218,69.0,12,21,0.0,96.0
4219,72.0,0,21,1.0,96.0
4220,58.0,0,21,3.0,104.0
4221,58.0,0,21,4.0,104.0
4222,60.0,12,10,2.0,104.0
4223,62.0,0,10,2.0,104.0
4224,70.0,0,21,1.0,96.0
4225,58.0,0,21,3.0,104.0
4226,58.0,0,21,4.0,104.0
4227,67.0,12,10,2.0,104.0
4228,72.0,12,10,1.0,96.0
4229,69.0,0,10,2.0,104.0
4230,58.0,0,21,3.0,104.0
4231,58.0,0,21,4.0,104.0
4232,74.0,12,10,1.0,96.0
4233,70.0,0,10,2.0,104.0
4234,72.0,0,10,2.0,104.0
4235,67.0,12,63,0.0,96.0
4236,69.0,12,10,2.0,104.0
4237,70.0,0,10,2.0,104.0
4238,45.0,0,42,5.0,96.0
4239,33.0,0,42,6.0,96.0
4240,75.0,12,21,0.0,96.0
4241,57.0,0,21,3.0,104.0
4242,57.0,0,21,4.0,104.0
4243,67.0,12,10,2.0,104.0
4244,69.0,0,10,2.0,104.0
4245,75.0,12,63,1.0,96.0
4246,66.0,12,21,0.0,96.0
4247,57.0,0,21,3.0,104.0
4248,57.0,0,21,4.0,104.0
4249,66.0,12,10,2.0,104.0
4250,67.0,0,10,2.0,104.0
4251,69.0,12,21,0.0,96.0
4252,72.0,0,21,1.0,96.0
4253,57.0,0,21,3.0,104.0
4254,57.0,0,21,4.0,104.0
4255,64.0,12,10,2.0,104.0
4256,70.0,0,6,1.0,96.0
4257,66.0,0,10,2.0,104.0
4258,69.0,6,6,1.0,96.0
4259,70.0,6,6,1.0,96.0
4260,72.0,12,21,0.0,96.0
4261,57.0,0,21,3.0,104.0
4262,57.0,0,21,4.0,104.0
4263,62.0,0,10,2.0,104.0
4264,69.0,6,6,1.0,96.0
4265,70.0,0,6,1.0,96.0
4266,70.0,6,10,0.0,96.0
4267,67.0,0,10,2.0,104.0
4268,69.0,6,6,1.0,96.0
4269,70.0,0,6,1.0,96.0
4270,50.0,0,42,5.0,96.0
4271,38.0,0,42,6.0,96.0
4272,57.0,0,21,3.0,104.0
4273,57.0,0,21,4.0,104.0
4274,69.0,6,10,0.0,96.0
4275,66.0,0,10,2.0,104.0
4276,69.0,6,5,1.0,96.0
4277,67.0,0,10,2.0,104.0
4278,70.0,6,21,0.0,96.0
4279,67.0,0,21,1.0,96.0
4280,62.0,12,10,2.0,104.0
4281,67.0,0,10,2.0,104.0
4282,55.0,0,42,3.0,104.0
4283,55.0,0,42,4.0,104.0
4284,43.0,0,42,5.0,96.0
4285,31.0,0,42,6.0,96.0
4286,69.0,12,10,2.0,104.0
4287,82.0,12,24,0.0,96.0
4288,79.0,0,24,1.0,96.0
4289,71.0,0,10,2.0,104.0
4290,74.0,12,10,2.0,104.0
4291,81.0,12,24,0.0,96.0
4292,77.0,0,24,1.0,96.0
4293,73.0,0,10,2.0,104.0
4294,79.0,12,21,0.0,96.0
4295,76.0,0,21,1.0,96.0
4296,45.0,0,21,5.0,96.0
4297,33.0,0,21,6.0,96.0
4298,76.0,12,10,2.0,104.0
4299,74.0,0,10,2.0,104.0
4300,77.0,12,21,0.0,96.0
4301,46.0,0,21,5.0,96.0
4302,34.0,0,21,6.0,96.0
4303,62.0,12,10,2.0,104.0
4304,79.0,12,10,0.0,96.0
4305,64.0,0,10,2.0,104.0
4306,43.0,0,21,5.0,96.0
4307,31.0,0,21,6.0,96.0
4308,81.0,12,10,0.0,96.0
4309,65.0,0,10,2.0,104.0
4310,67.0,0,10,2.0,104.0
4311,74.0,0,63,1.0,96.0
4312,64.0,12,10,2.0,104.0
4313,65.0,0,10,2.0,104.0
4314,40.0,0,42,5.0,96.0
4315,28.0,0,42,6.0,96.0
4316,82.0,12,21,1.0,96.0
4317,62.0,12,10,2.0,104.0
4318,64.0,0,10,2.0,104.0
4319,82.0,12,63,0.0,96.0
4320,73.0,12,21,1.0,96.0
4321,61.0,12,10,2.0,104.0
4322,62.0,0,10,2.0,104.0
4323,79.0,12,21,0.0,96.0
4324,76.0,0,21,1.0,96.0
4325,59.0,12,10,2.0,104.0
4326,61.0,0,10,2.0,104.0
4327,76.0,12,21,0.0,96.0
4328,79.0,0,21,1.0,96.0
4329,57.0,12,10,2.0,104.0
4330,74.0,12,10,0.0,96.0
4331,77.0,0,10,1.0,96.0
4332,74.0,0,10,2.0,104.0
4333,69.0,0,10,3.0,104.0
4334,65.0,0,10,4.0,104.0
4335,45.0,0,42,5.0,96.0
4336,33.0,0,42,6.0,96.0
4337,73.0,12,10,0.0,96.0
4338,76.0,0,10,1.0,96.0
4339,73.0,0,10,2.0,104.0
4340,67.0,0,10,3.0,104.0
4341,67.0,0,10,4.0,104.0
4342,74.0,12,10,0.0,96.0
4343,77.0,0,10,1.0,96.0
4344,74.0,0,21,2.0,104.0
4345,69.0,0,21,3.0,104.0
4346,65.0,0,21,4.0,104.0
4347,38.0,0,21,5.0,96.0
4348,26.0,0,21,6.0,96.0
4349,69.0,12,10,0.0,96.0
4350,76.0,0,10,1.0,96.0
4351,70.0,12,10,0.0,96.0
4352,74.0,0,10,1.0,96.0
4353,50.0,0,10,5.0,96.0
4354,38.0,0,10,6.0,96.0
4355,67.0,12,10,0.0,96.0
4356,73.0,0,10,1.0,96.0
4357,52.0,0,10,5.0,96.0
4358,40.0,0,10,6.0,96.0
4359,69.0,12,10,0.0,96.0
4360,74.0,0,10,1.0,96.0
4361,53.0,0,21,5.0,96.0
4362,41.0,0,21,6.0,96.0
4363,65.0,12,10,0.0,96.0
4364,69.0,0,10,1.0,96.0
4365,67.0,12,10,0.0,96.0
4366,70.0,0,10,1.0,96.0
4367,74.0,0,10,2.0,104.0
4368,70.0,0,10,3.0,104.0
4369,67.0,0,10,4.0,104.0
4370,64.0,12,10,0.0,96.0
4371,67.0,0,10,1.0,96.0
4372,73.0,0,10,2.0,104.0
4373,67.0,0,10,3.0,104.0
4374,64.0,0,10,4.0,104.0
4375,65.0,12,10,0.0,96.0
4376,69.0,0,10,1.0,96.0
4377,74.0,0,21,2.0,104.0
4378,69.0,0,21,3.0,104.0
4379,65.0,0,21,4.0,104.0
4380,62.0,12,10,0.0,96.0
4381,65.0,0,10,1.0,96.0
4382,64.0,12,10,0.0,96.0
4383,67.0,0,10,1.0,96.0
4384,57.0,0,21,5.0,96.0
4385,45.0,0,21,6.0,96.0
4386,61.0,12,10,0.0,96.0
4387,64.0,0,10,1.0,96.0
4388,65.0,0,10,1.0,96.0
4389,62.0,12,21,0.0,96.0
4390,50.0,0,21,5.0,96.0
4391,38.0,0,21,6.0,96.0
4392,62.0,12,10,1.0,96.0
4393,64.0,0,10,1.0,96.0
4394,70.0,0,10,2.0,104.0
4395,67.0,0,10,3.0,104.0
4396,64.0,0,10,4.0,104.0
4397,70.0,12,21,0.0,96.0
4398,61.0,12,10,1.0,96.0
4399,69.0,0,10,2.0,104.0
4400,64.0,0,10,3.0,104.0
4401,61.0,0,10,4.0,104.0
4402,62.0,0,10,1.0,96.0
4403,70.0,12,21,0.0,96.0
4404,70.0,0,21,2.0,104.0
4405,65.0,0,21,3.0,104.0
4406,62.0,0,21,4.0,104.0
4407,65.0,12,10,1.0,96.0
4408,64.0,0,10,1.0,96.0
4409,49.0,0,21,5.0,96.0
4410,37.0,0,21,6.0,96.0
4411,67.0,12,10,1.0,96.0
4412,69.0,12,31,0.0,96.0
4413,65.0,12,21,1.0,96.0
4414,50.0,0,21,5.0,96.0
4415,38.0,0,21,6.0,96.0
4416,71.0,12,10,0.0,96.0
4417,73.0,12,10,0.0,96.0
4418,73.0,0,10,2.0,104.0
4419,67.0,0,10,3.0,104.0
4420,64.0,0,10,4.0,104.0
4421,67.0,0,21,1.0,96.0
4422,52.0,0,21,5.0,96.0
4423,40.0,0,21,6.0,96.0
4424,69.0,12,10,0.0,96.0
4425,69.0,0,10,2.0,104.0
4426,64.0,0,10,3.0,104.0
4427,61.0,0,10,4.0,104.0
4428,74.0,12,10,0.0,96.0
4429,69.0,0,21,1.0,96.0
4430,74.0,0,21,2.0,104.0
4431,69.0,0,21,3.0,104.0
4432,57.0,0,21,4.0,104.0
4433,53.0,0,21,5.0,96.0
4434,41.0,0,21,6.0,96.0
4435,73.0,12,10,0.0,96.0
4436,71.0,0,12,1.0,96.0
4437,52.0,0,21,5.0,96.0
4438,40.0,0,21,6.0,96.0
4439,73.0,12,10,1.0,96.0
4440,74.0,12,31,0.0,96.0
4441,74.0,12,12,1.0,96.0
4442,53.0,0,21,5.0,96.0
4443,41.0,0,21,6.0,96.0
4444,76.0,12,10,0.0,96.0
4445,73.0,0,10,1.0,96.0
4446,77.0,0,10,2.0,104.0
4447,74.0,0,10,3.0,104.0
4448,69.0,0,10,4.0,104.0
4449,77.0,12,12,0.0,96.0
4450,74.0,0,12,1.0,96.0
4451,50.0,0,21,5.0,96.0
4452,38.0,0,21,6.0,96.0
4453,76.0,12,10,0.0,96.0
4454,73.0,0,10,1.0,96.0
4455,76.0,0,10,2.0,104.0
4456,73.0,0,10,3.0,104.0
4457,70.0,0,10,4.0,104.0
4458,79.0,12,12,0.0,96.0
4459,74.0,0,21,1.0,96.0
4460,79.0,0,21,2.0,104.0
4461,74.0,0,21,3.0,104.0
4462,67.0,0,21,4.0,104.0
4463,46.0,0,21,5.0,96.0
4464,34.0,0,21,6.0,96.0
4465,77.0,12,10,0.0,96.0
4466,76.0,12,12,0.0,96.0
4467,58.0,0,21,5.0,96.0
4468,46.0,0,21,6.0,96.0
4469,74.0,12,10,0.0,96.0
4470,74.0,0,24,1.0,96.0
4471,76.0,0,6,1.0,96.0
4472,80.0,12,10,0.0,96.0
4473,74.0,6,6,1.0,96.0
4474,76.0,0,6,1.0,96.0
4475,57.0,0,21,5.0,96.0
4476,45.0,0,21,6.0,96.0
4477,81.0,6,10,0.0,96.0
4478,74.0,6,5,1.0,96.0
4479,81.0,0,10,2.0,104.0
4480,76.0,0,10,3.0,104.0
4481,73.0,0,10,4.0,104.0
4482,69.0,6,21,0.0,96.0
4483,73.0,0,21,1.0,96.0
4484,45.0,0,21,5.0,96.0
4485,33.0,0,21,6.0,96.0
4486,80.0,12,10,2.0,104.0
4487,74.0,0,10,3.0,104.0
4488,71.0,0,10,4.0,104.0
4489,81.0,12,10,2.0,104.0
4490,76.0,0,10,3.0,104.0
4491,73.0,0,10,4.0,104.0
4492,49.0,0,21,5.0,96.0
4493,37.0,0,21,6.0,96.0
4494,76.0,12,10,2.0,104.0
4495,73.0,0,10,3.0,104.0
4496,69.0,0,10,4.0,104.0
4497,73.0,12,10,2.0,104.0
4498,69.0,0,10,3.0,104.0
4499,64.0,0,10,4.0,104.0
4500,52.0,0,21,5.0,96.0
4501,40.0,0,21,6.0,96.0
4502,76.0,12,10,2.0,104.0
4503,73.0,0,10,3.0,104.0
4504,69.0,0,10,4.0,104.0
4505,57.0,0,10,5.0,96.0
4506,45.0,0,10,6.0,96.0
4507,69.0,12,21,2.0,104.0
4508,64.0,0,21,3.0,104.0
4509,61.0,0,21,4.0,104.0
4510,58.0,12,10,5.0,96.0
4511,46.0,0,10,6.0,96.0
4512,81.0,12,10,0.0,96.0
4513,57.0,0,10,5.0,96.0
4514,45.0,0,10,6.0,96.0
4515,82.0,12,10,0.0,96.0
4516,55.0,0,10,5.0,96.0
4517,43.0,0,10,6.0,96.0
4518,84.0,12,21,0.0,96.0
4519,74.0,0,21,0.0,96.0
4520,54.0,0,21,5.0,96.0
4521,42.0,0,21,6.0,96.0
4522,74.0,0,10,2.0,104.0
4523,74.0,0,10,3.0,104.0
4524,74.0,0,10,4.0,104.0
4525,84.0,24,21,0.0,96.0
4526,74.0,0,21,0.0,96.0
4527,78.0,0,21,1.0,96.0
4528,69.0,0,21,1.0,96.0
4529,50.0,0,21,5.0,96.0
4530,38.0,0,21,6.0,96.0
4531,72.0,12,10,2.0,104.0
4532,72.0,0,10,3.0,104.0
4533,72.0,0,10,4.0,104.0
4534,74.0,0,10,2.0,104.0
4535,74.0,0,10,3.0,104.0
4536,74.0,0,10,4.0,104.0
4537,84.0,12,21,0.0,96.0
4538,74.0,0,21,0.0,96.0
4539,78.0,0,21,1.0,96.0
4540,69.0,0,21,1.0,96.0
4541,69.0,12,10,2.0,104.0
4542,69.0,0,10,3.0,104.0
4543,69.0,0,10,4.0,104.0
4544,66.0,0,10,2.0,104.0
4545,66.0,0,10,3.0,104.0
4546,66.0,0,10,4.0,104.0
4547,84.0,12,21,0.0,96.0
4548,74.0,0,21,0.0,96.0
4549,78.0,0,21,1.0,96.0
4550,69.0,0,21,1.0,96.0
4551,69.0,12,10,2.0,104.0
4552,69.0,0,10,3.0,104.0
4553,69.0,0,10,4.0,104.0
4554,84.0,12,21,0.0,96.0
4555,74.0,0,21,0.0,96.0
4556,78.0,0,21,1.0,96.0
4557,69.0,0,21,1.0,96.0
4558,62.0,0,21,2.0,104.0
4559,62.0,0,21,3.0,104.0
4560,62.0,0,21,4.0,104.0
4561,50.0,12,10,5.0,96.0
4562,38.0,0,10,6.0,96.0
4563,48.0,0,10,5.0,96.0
4564,36.0,0,10,6.0,96.0
4565,84.0,12,21,0.0,96.0
4566,74.0,0,21,0.0,96.0
4567,78.0,0,21,1.0,96.0
4568,69.0,0,21,1.0,96.0
4569,50.0,12,10,5.0,96.0
4570,38.0,0,10,6.0,96.0
4571,82.0,12,21,0.0,96.0
4572,74.0,0,21,0.0,96.0
4573,79.0,0,21,1.0,96.0
4574,67.0,0,21,1.0,96.0
4575,43.0,0,21,5.0,96.0
4576,31.0,0,21,6.0,96.0
4577,67.0,0,10,2.0,104.0
4578,67.0,0,10,3.0,104.0
4579,67.0,0,10,4.0,104.0
4580,82.0,24,21,0.0,96.0
4581,74.0,0,21,0.0,96.0
4582,79.0,0,21,1.0,96.0
4583,67.0,0,21,1.0,96.0
4584,55.0,0,21,5.0,96.0
4585,43.0,0,21,6.0,96.0
4586,66.0,12,10,2.0,104.0
4587,66.0,0,10,3.0,104.0
4588,66.0,0,10,4.0,104.0
4589,67.0,0,10,2.0,104.0
4590,67.0,0,10,3.0,104.0
4591,67.0,0,10,4.0,104.0
4592,82.0,12,21,0.0,96.0
4593,74.0,0,21,0.0,96.0
4594,79.0,0,21,1.0,96.0
4595,67.0,0,21,1.0,96.0
4596,62.0,12,10,2.0,104.0
4597,62.0,0,10,3.0,104.0
4598,62.0,0,10,4.0,104.0
4599,58.0,0,10,2.0,104.0
4600,58.0,0,10,3.0,104.0
4601,58.0,0,10,4.0,104.0
4602,82.0,12,21,0.0,96.0
4603,74.0,0,21,0.0,96.0
4604,79.0,0,21,1.0,96.0
4605,67.0,0,21,1.0,96.0
4606,62.0,12,10,2.0,104.0
4607,62.0,0,10,3.0,104.0
4608,62.0,0,10,4.0,104.0
4609,82.0,12,21,0.0,96.0
4610,74.0,0,21,0.0,96.0
4611,79.0,0,21,1.0,96.0
4612,67.0,0,21,1.0,96.0
4613,55.0,0,21,2.0,104.0
4614,55.0,0,21,3.0,104.0
4615,55.0,0,21,4.0,104.0
4616,55.0,12,10,5.0,96.0
4617,43.0,0,10,6.0,96.0
4618,57.0,0,10,5.0,96.0
4619,45.0,0,10,6.0,96.0
4620,82.0,12,21,0.0,96.0
4621,74.0,0,21,0.0,96.0
4622,79.0,0,21,1.0,96.0
4623,67.0,0,21,1.0,96.0
4624,58.0,12,10,5.0,96.0
4625,46.0,0,10,6.0,96.0
4626,85.0,12,21,0.0,96.0
4627,76.0,0,21,0.0,96.0
4628,79.0,0,21,1.0,96.0
4629,69.0,0,21,1.0,96.0
4630,57.0,0,21,5.0,96.0
4631,45.0,0,21,6.0,96.0
4632,69.0,0,10,2.0,104.0
4633,69.0,0,10,3.0,104.0
4634,69.0,0,10,4.0,104.0
4635,85.0,24,21,0.0,96.0
4636,76.0,0,21,0.0,96.0
4637,79.0,0,21,1.0,96.0
4638,69.0,0,21,1.0,96.0
4639,45.0,0,21,5.0,96.0
4640,33.0,0,21,6.0,96.0
4641,67.0,12,10,2.0,104.0
4642,67.0,0,10,3.0,104.0
4643,67.0,0,10,4.0,104.0
4644,69.0,0,10,2.0,104.0
4645,69.0,0,10,3.0,104.0
4646,69.0,0,10,4.0,104.0
4647,85.0,12,21,0.0,96.0
4648,76.0,0,21,0.0,96.0
4649,79.0,0,21,1.0,96.0
4650,69.0,0,21,1.0,96.0
4651,64.0,12,10,2.0,104.0
4652,64.0,0,10,3.0,104.0
4653,64.0,0,10,4.0,104.0
4654,61.0,0,10,2.0,104.0
4655,61.0,0,10,3.0,104.0
4656,61.0,0,10,4.0,104.0
4657,85.0,12,21,0.0,96.0
4658,76.0,0,21,0.0,96.0
4659,79.0,0,21,1.0,96.0
4660,69.0,0,21,1.0,96.0
4661,64.0,12,10,2.0,104.0
4662,64.0,0,10,3.0,104.0
4663,64.0,0,10,4.0,104.0
4664,85.0,12,21,0.0,96.0
4665,76.0,0,21,0.0,96.0
4666,79.0,0,21,1.0,96.0
4667,69.0,0,21,1.0,96.0
4668,57.0,0,21,2.0,104.0
4669,57.0,0,21,3.0,104.0
4670,57.0,0,21,4.0,104.0
4671,45.0,12,10,5.0,96.0
4672,33.0,0,10,6.0,96.0
4673,43.0,0,10,5.0,96.0
4674,31.0,0,10,6.0,96.0
4675,85.0,12,21,0.0,96.0
4676,76.0,0,21,0.0,96.0
4677,79.0,0,21,1.0,96.0
4678,69.0,0,21,1.0,96.0
4679,45.0,12,10,5.0,96.0
4680,33.0,0,10,6.0,96.0
4681,86.0,12,21,0.0,96.0
4682,74.0,0,21,0.0,96.0
4683,77.0,0,21,1.0,96.0
4684,69.0,0,21,1.0,96.0
4685,38.0,0,21,5.0,96.0
4686,26.0,0,21,6.0,96.0
4687,74.0,0,10,2.0,104.0
4688,74.0,0,10,3.0,104.0
4689,74.0,0,10,4.0,104.0
4690,86.0,24,21,0.0,96.0
4691,74.0,0,21,0.0,96.0
4692,77.0,0,21,1.0,96.0
4693,69.0,0,21,1.0,96.0
4694,50.0,0,21,5.0,96.0
4695,38.0,0,21,6.0,96.0
4696,73.0,12,10,2.0,104.0
4697,73.0,0,10,3.0,104.0
4698,73.0,0,10,4.0,104.0
4699,74.0,0,10,2.0,104.0
4700,74.0,0,10,3.0,104.0
4701,74.0,0,10,4.0,104.0
4702,86.0,12,21,0.0,96.0
4703,74.0,0,21,0.0,96.0
4704,77.0,0,21,1.0,96.0
4705,69.0,0,21,1.0,96.0
4706,69.0,12,10,2.0,104.0
4707,69.0,0,10,3.0,104.0
4708,69.0,0,10,4.0,104.0
4709,65.0,0,10,2.0,104.0
4710,65.0,0,10,3.0,104.0
4711,65.0,0,10,4.0,104.0
4712,86.0,12,21,0.0,96.0
4713,74.0,0,21,0.0,96.0
4714,77.0,0,21,1.0,96.0
4715,69.0,0,21,1.0,96.0
4716,69.0,12,10,2.0,104.0
4717,69.0,0,10,3.0,104.0
4718,69.0,0,10,4.0,104.0
4719,86.0,12,21,0.0,96.0
4720,74.0,0,21,0.0,96.0
4721,77.0,0,21,1.0,96.0
4722,69.0,0,21,1.0,96.0
4723,62.0,0,21,2.0,104.0
4724,62.0,0,21,3.0,104.0
4725,62.0,0,21,4.0,104.0
4726,50.0,12,10,5.0,96.0
4727,38.0,0,10,6.0,96.0
4728,49.0,0,10,5.0,96.0
4729,37.0,0,10,6.0,96.0
4730,86.0,12,21,0.0,96.0
4731,74.0,0,21,0.0,96.0
4732,77.0,0,21,1.0,96.0
4733,69.0,0,21,1.0,96.0
4734,50.0,12,10,5.0,96.0
4735,38.0,0,10,6.0,96.0
4736,82.0,12,21,0.0,96.0
4737,74.0,0,21,0.0,96.0
4738,77.0,0,21,1.0,96.0
4739,67.0,0,21,1.0,96.0
4740,67.0,12,10,2.0,104.0
4741,72.0,0,10,2.0,104.0
4742,43.0,0,42,5.0,96.0
4743,31.0,0,42,6.0,96.0
4744,82.0,12,21,0.0,96.0
4745,74.0,0,21,0.0,96.0
4746,77.0,0,21,1.0,96.0
4747,67.0,0,21,1.0,96.0
4748,70.0,12,10,2.0,104.0
4749,72.0,0,10,2.0,104.0
4750,82.0,12,21,0.0,96.0
4751,72.0,0,21,0.0,96.0
4752,76.0,0,21,1.0,96.0
4753,67.0,0,21,1.0,96.0
4754,67.0,12,10,2.0,104.0
4755,67.0,0,10,3.0,104.0
4756,76.0,0,10,2.0,104.0
4757,72.0,0,10,3.0,104.0
4758,82.0,12,21,0.0,96.0
4759,72.0,0,21,0.0,96.0
4760,76.0,0,21,1.0,96.0
4761,67.0,0,21,1.0,96.0
4762,55.0,0,21,5.0,96.0
4763,43.0,0,21,6.0,96.0
4764,74.0,12,10,2.0,104.0
4765,70.0,0,10,3.0,104.0
4766,76.0,0,10,2.0,104.0
4767,72.0,0,10,3.0,104.0
4768,82.0,12,21,0.0,96.0
4769,72.0,0,21,0.0,96.0
4770,76.0,0,21,1.0,96.0
4771,67.0,0,21,1.0,96.0
4772,52.0,0,21,5.0,96.0
4773,40.0,0,21,6.0,96.0
4774,72.0,12,10,2.0,104.0
4775,67.0,0,10,3.0,104.0
4776,64.0,0,10,4.0,104.0
4777,76.0,0,10,2.0,104.0
4778,72.0,0,10,3.0,104.0
4779,67.0,0,10,4.0,104.0
4780,82.0,12,21,0.0,96.0
4781,72.0,0,21,0.0,96.0
4782,76.0,0,21,1.0,96.0
4783,67.0,0,21,1.0,96.0
4784,48.0,0,21,5.0,96.0
4785,36.0,0,21,6.0,96.0
4786,79.0,12,10,2.0,104.0
4787,76.0,0,10,3.0,104.0
4788,72.0,0,10,4.0,104.0
4789,81.0,0,10,2.0,104.0
4790,81.0,12,21,0.0,96.0
4791,72.0,0,21,0.0,96.0
4792,76.0,0,21,1.0,96.0
4793,65.0,0,21,1.0,96.0
4794,77.0,0,21,3.0,104.0
4795,72.0,0,21,4.0,104.0
4796,65.0,12,10,2.0,104.0
4797,70.0,0,10,2.0,104.0
4798,53.0,0,42,5.0,96.0
4799,41.0,0,42,6.0,96.0
4800,81.0,12,21,0.0,96.0
4801,72.0,0,21,0.0,96.0
4802,76.0,0,21,1.0,96.0
4803,65.0,0,21,1.0,96.0
4804,69.0,12,10,2.0,104.0
4805,70.0,0,10,2.0,104.0
4806,81.0,12,21,0.0,96.0
4807,70.0,0,21,0.0,96.0
4808,74.0,0,21,1.0,96.0
4809,65.0,0,21,1.0,96.0
4810,65.0,12,10,2.0,104.0
4811,65.0,0,10,3.0,104.0
4812,74.0,0,10,2.0,104.0
4813,70.0,0,10,3.0,104.0
4814,81.0,12,21,0.0,96.0
4815,70.0,0,21,0.0,96.0
4816,74.0,0,21,1.0,96.0
4817,65.0,0,21,1.0,96.0
4818,53.0,0,21,5.0,96.0
4819,41.0,0,21,6.0,96.0
4820,72.0,12,10,2.0,104.0
4821,69.0,0,10,3.0,104.0
4822,74.0,0,10,2.0,104.0
4823,70.0,0,10,3.0,104.0
4824,81.0,12,21,0.0,96.0
4825,70.0,0,21,0.0,96.0
4826,74.0,0,21,1.0,96.0
4827,65.0,0,21,1.0,96.0
4828,50.0,0,21,5.0,96.0
4829,38.0,0,21,6.0,96.0
4830,70.0,12,10,2.0,104.0
4831,65.0,0,10,3.0,104.0
4832,62.0,0,10,4.0,104.0
4833,74.0,0,10,2.0,104.0
4834,70.0,0,10,3.0,104.0
4835,65.0,0,10,4.0,104.0
4836,81.0,12,21,0.0,96.0
4837,70.0,0,21,0.0,96.0
4838,74.0,0,21,1.0,96.0
4839,65.0,0,21,1.0,96.0
4840,46.0,0,21,5.0,96.0
4841,34.0,0,21,6.0,96.0
4842,77.0,12,10,2.0,104.0
4843,74.0,0,10,3.0,104.0
4844,70.0,0,10,4.0,104.0
4845,79.0,0,10,2.0,104.0
4846,79.0,12,21,0.0,96.0
4847,70.0,0,21,0.0,96.0
4848,74.0,0,21,1.0,96.0
4849,64.0,0,21,1.0,96.0
4850,76.0,0,21,3.0,104.0
4851,70.0,0,21,4.0,104.0
4852,64.0,12,10,2.0,104.0
4853,69.0,0,10,2.0,104.0
4854,52.0,0,42,5.0,96.0
4855,40.0,0,42,6.0,96.0
4856,79.0,12,21,0.0,96.0
4857,70.0,0,21,0.0,96.0
4858,74.0,0,21,1.0,96.0
4859,64.0,0,21,1.0,96.0
4860,67.0,12,10,2.0,104.0
4861,69.0,0,10,2.0,104.0
4862,79.0,12,21,0.0,96.0
4863,69.0,0,21,0.0,96.0
4864,73.0,0,21,1.0,96.0
4865,64.0,0,21,1.0,96.0
4866,64.0,12,10,2.0,104.0
4867,64.0,0,10,3.0,104.0
4868,73.0,0,10,2.0,104.0
4869,69.0,0,10,3.0,104.0
4870,79.0,12,21,0.0,96.0
4871,69.0,0,21,0.0,96.0
4872,73.0,0,21,1.0,96.0
4873,64.0,0,21,1.0,96.0
4874,52.0,0,21,5.0,96.0
4875,40.0,0,21,6.0,96.0
4876,71.0,12,10,2.0,104.0
4877,67.0,0,10,3.0,104.0
4878,73.0,0,10,2.0,104.0
4879,69.0,0,10,3.0,104.0
4880,79.0,12,21,0.0,96.0
4881,69.0,0,21,0.0,96.0
4882,73.0,0,21,1.0,96.0
4883,64.0,0,21,1.0,96.0
4884,57.0,0,21,5.0,96.0
4885,45.0,0,21,6.0,96.0
4886,69.0,12,10,2.0,104.0
4887,64.0,0,10,3.0,104.0
4888,67.0,0,10,4.0,104.0
4889,74.0,0,10,2.0,104.0
4890,69.0,0,10,3.0,104.0
4891,65.0,0,10,4.0,104.0
4892,79.0,12,21,0.0,96.0
4893,69.0,0,21,0.0,96.0
4894,76.0,0,21,1.0,96.0
4895,69.0,0,21,1.0,96.0
4896,45.0,0,21,5.0,96.0
4897,33.0,0,21,6.0,96.0
4898,73.0,12,10,2.0,104.0
4899,67.0,0,10,3.0,104.0
4900,64.0,0,10,4.0,104.0
4901,50.0,0,10,5.0,96.0
4902,38.0,0,10,6.0,96.0
4903,77.0,12,21,0.0,96.0
4904,69.0,0,21,0.0,96.0
4905,77.0,0,21,1.0,96.0
4906,69.0,0,21,1.0,96.0
4907,62.0,0,21,1.0,96.0
4908,74.0,0,21,2.0,104.0
4909,65.0,0,21,3.0,104.0
4910,62.0,0,21,4.0,104.0
4911,49.0,12,10,5.0,96.0
4912,37.0,0,10,6.0,96.0
4913,70.0,12,10,0.0,96.0
4914,74.0,0,10,1.0,96.0
4915,50.0,0,10,5.0,96.0
4916,38.0,0,10,6.0,96.0
4917,67.0,12,10,0.0,96.0
4918,73.0,0,10,1.0,96.0
4919,52.0,0,10,5.0,96.0
4920,40.0,0,10,6.0,96.0
4921,69.0,12,10,0.0,96.0
4922,74.0,0,10,1.0,96.0
4923,53.0,0,21,5.0,96.0
4924,41.0,0,21,6.0,96.0
4925,65.0,12,10,0.0,96.0
4926,69.0,0,10,1.0,96.0
4927,67.0,12,10,0.0,96.0
4928,70.0,0,10,1.0,96.0
4929,74.0,0,10,2.0,104.0
4930,70.0,0,10,3.0,104.0
4931,67.0,0,10,4.0,104.0
4932,64.0,12,10,0.0,96.0
4933,67.0,0,10,1.0,96.0
4934,73.0,0,10,2.0,104.0
4935,67.0,0,10,3.0,104.0
4936,64.0,0,10,4.0,104.0
4937,65.0,12,10,0.0,96.0
4938,69.0,0,10,1.0,96.0
4939,74.0,0,21,2.0,104.0
4940,69.0,0,21,3.0,104.0
4941,65.0,0,21,4.0,104.0
4942,62.0,12,10,0.0,96.0
4943,65.0,0,10,1.0,96.0
4944,64.0,12,10,0.0,96.0
4945,67.0,0,10,1.0,96.0
4946,57.0,0,21,5.0,96.0
4947,45.0,0,21,6.0,96.0
4948,61.0,12,10,0.0,96.0
4949,64.0,0,10,1.0,96.0
4950,65.0,0,10,1.0,96.0
4951,62.0,12,21,0.0,96.0
4952,50.0,0,21,5.0,96.0
4953,38.0,0,21,6.0,96.0
4954,62.0,12,10,1.0,96.0
4955,64.0,0,10,1.0,96.0
4956,70.0,0,10,2.0,104.0
4957,67.0,0,10,3.0,104.0
4958,64.0,0,10,4.0,104.0
4959,70.0,12,21,0.0,96.0
4960,61.0,12,10,1.0,96.0
4961,69.0,0,10,2.0,104.0
4962,64.0,0,10,3.0,104.0
4963,61.0,0,10,4.0,104.0
4964,62.0,0,10,1.0,96.0
4965,70.0,12,21,0.0,96.0
4966,70.0,0,21,2.0,104.0
4967,65.0,0,21,3.0,104.0
4968,62.0,0,21,4.0,104.0
4969,65.0,12,10,1.0,96.0
4970,64.0,0,10,1.0,96.0
4971,49.0,0,21,5.0,96.0
4972,37.0,0,21,6.0,96.0
4973,67.0,12,10,1.0,96.0
4974,69.0,12,31,0.0,96.0
4975,65.0,12,21,1.0,96.0
4976,50.0,0,21,5.0,96.0
4977,38.0,0,21,6.0,96.0
4978,71.0,12,10,0.0,96.0
4979,73.0,12,10,0.0,96.0
4980,73.0,0,10,2.0,104.0
4981,67.0,0,10,3.0,104.0
4982,64.0,0,10,4.0,104.0
4983,67.0,0,21,1.0,96.0
4984,52.0,0,21,5.0,96.0
4985,40.0,0,21,6.0,96.0
4986,69.0,12,10,0.0,96.0
4987,69.0,0,10,2.0,104.0
4988,64.0,0,10,3.0,104.0
4989,61.0,0,10,4.0,104.0
4990,74.0,12,10,0.0,96.0
4991,69.0,0,21,1.0,96.0
4992,74.0,0,21,2.0,104.0
4993,69.0,0,21,3.0,104.0
4994,57.0,0,21,4.0,104.0
4995,53.0,0,21,5.0,96.0
4996,41.0,0,21,6.0,96.0
4997,73.0,12,10,0.0,96.0
4998,71.0,0,10,1.0,96.0
4999,52.0,0,21,5.0,96.0
5000,40.0,0,21,6.0,96.0
5001,73.0,12,10,1.0,96.0
5002,74.0,12,31,0.0,96.0
5003,74.0,12,10,1.0,96.0
5004,53.0,0,21,5.0,96.0
5005,41.0,0,21,6.0,96.0
5006,76.0,12,10,0.0,96.0
5007,73.0,0,10,1.0,96.0
5008,74.0,0,10,1.0,96.0
5009,77.0,0,10,2.0,104.0
5010,74.0,0,10,3.0,104.0
5011,69.0,0,10,4.0,104.0
5012,77.0,12,12,0.0,96.0
5013,50.0,0,21,5.0,96.0
5014,38.0,0,21,6.0,96.0
5015,76.0,12,10,0.0,96.0
5016,73.0,0,10,1.0,96.0
5017,76.0,0,10,2.0,104.0
5018,73.0,0,10,3.0,104.0
5019,70.0,0,10,4.0,104.0
5020,79.0,12,12,0.0,96.0
5021,74.0,0,21,1.0,96.0
5022,79.0,0,21,2.0,104.0
5023,74.0,0,21,3.0,104.0
5024,67.0,0,21,4.0,104.0
5025,46.0,0,21,5.0,96.0
5026,34.0,0,21,6.0,96.0
5027,77.0,12,10,0.0,96.0
5028,76.0,12,12,0.0,96.0
5029,58.0,0,21,5.0,96.0
5030,46.0,0,21,6.0,96.0
5031,74.0,12,10,0.0,96.0
5032,74.0,0,24,1.0,96.0
5033,76.0,0,6,1.0,96.0
5034,80.0,12,12,0.0,96.0
5035,74.0,6,6,1.0,96.0
5036,76.0,0,6,1.0,96.0
5037,57.0,0,21,5.0,96.0
5038,45.0,0,21,6.0,96.0
5039,81.0,6,10,0.0,96.0
5040,74.0,6,5,1.0,96.0
5041,81.0,0,10,2.0,104.0
5042,76.0,0,10,3.0,104.0
5043,73.0,0,10,4.0,104.0
5044,69.0,6,21,0.0,96.0
5045,73.0,0,21,1.0,96.0
5046,45.0,0,21,5.0,96.0
5047,33.0,0,21,6.0,96.0
5048,80.0,12,10,2.0,104.0
5049,74.0,0,10,3.0,104.0
5050,71.0,0,10,4.0,104.0
5051,81.0,12,10,2.0,104.0
5052,76.0,0,10,3.0,104.0
5053,69.0,0,10,4.0,104.0
5054,49.0,0,21,5.0,96.0
5055,37.0,0,21,6.0,96.0
5056,76.0,12,10,2.0,104.0
5057,73.0,0,10,3.0,104.0
5058,67.0,0,10,4.0,104.0
5059,73.0,12,10,2.0,104.0
5060,69.0,0,10,3.0,104.0
5061,64.0,0,10,4.0,104.0
5062,52.0,0,21,5.0,96.0
5063,40.0,0,21,6.0,96.0
5064,76.0,12,10,2.0,104.0
5065,73.0,0,10,3.0,104.0
5066,67.0,0,10,4.0,104.0
5067,69.0,12,21,2.0,104.0
5068,64.0,0,21,3.0,104.0
5069,61.0,0,21,4.0,104.0
5070,57.0,0,21,5.0,96.0
5071,45.0,0,21,6.0,96.0
5072,69.0,24,10,0.0,96.0
5073,55.0,0,21,5.0,96.0
5074,43.0,0,21,6.0,96.0
5075,70.0,12,10,0.0,96.0
5076,72.0,12,21,0.0,96.0
5077,54.0,0,24,5.0,96.0
5078,42.0,0,24,6.0,96.0
5079,69.0,0,10,1.0,96.0
5080,70.0,12,10,1.0,96.0
5081,54.0,0,24,5.0,96.0
5082,42.0,0,24,6.0,96.0
5083,75.0,24,42,0.0,96.0
5084,72.0,12,21,1.0,96.0
5085,54.0,0,21,5.0,96.0
5086,42.0,0,21,6.0,96.0
5087,74.0,24,21,0.0,96.0
5088,70.0,0,21,1.0,96.0
5089,55.0,0,21,5.0,96.0
5090,43.0,0,21,6.0,96.0
5091,66.0,24,21,0.0,96.0
5092,75.0,0,21,1.0,96.0
5093,48.0,0,21,5.0,96.0
5094,36.0,0,21,6.0,96.0
5095,67.0,24,21,0.0,96.0
5096,74.0,0,21,1.0,96.0
5097,46.0,0,21,5.0,96.0
5098,34.0,0,21,6.0,96.0
5099,72.0,24,10,0.0,96.0
5100,66.0,0,21,1.0,96.0
5101,69.0,12,10,0.0,96.0
5102,45.0,0,24,5.0,96.0
5103,33.0,0,24,6.0,96.0
5104,70.0,12,21,0.0,96.0
5105,67.0,0,21,1.0,96.0
5106,43.0,0,24,5.0,96.0
5107,31.0,0,24,6.0,96.0
5108,72.0,24,10,1.0,96.0
5109,69.0,12,10,1.0,96.0
5110,42.0,0,24,5.0,96.0
5111,30.0,0,24,6.0,96.0
5112,70.0,0,10,2.0,104.0
5113,67.0,0,10,3.0,104.0
5114,62.0,0,10,4.0,104.0
5115,70.0,12,21,1.0,96.0
5116,69.0,12,10,2.0,104.0
5117,66.0,0,10,3.0,104.0
5118,60.0,0,10,4.0,104.0
5119,43.0,0,24,5.0,96.0
5120,31.0,0,24,6.0,96.0
5121,70.0,12,21,2.0,104.0
5122,67.0,0,21,3.0,104.0
5123,62.0,0,21,4.0,104.0
5124,55.0,0,21,5.0,96.0
5125,43.0,0,21,6.0,96.0
5126,71.0,24,10,0.0,96.0
5127,53.0,0,21,5.0,96.0
5128,41.0,0,21,6.0,96.0
5129,72.0,12,10,0.0,96.0
5130,74.0,12,21,0.0,96.0
5131,52.0,0,24,5.0,96.0
5132,40.0,0,24,6.0,96.0
5133,71.0,0,10,1.0,96.0
5134,72.0,12,10,1.0,96.0
5135,44.0,0,24,5.0,96.0
5136,32.0,0,24,6.0,96.0
5137,77.0,24,42,0.0,96.0
5138,74.0,12,21,1.0,96.0
5139,44.0,0,21,5.0,96.0
5140,32.0,0,21,6.0,96.0
5141,76.0,24,21,0.0,96.0
5142,72.0,0,21,1.0,96.0
5143,45.0,0,21,5.0,96.0
5144,33.0,0,21,6.0,96.0
5145,68.0,24,21,0.0,96.0
5146,77.0,0,21,1.0,96.0
5147,50.0,0,21,5.0,96.0
5148,38.0,0,21,6.0,96.0
5149,69.0,24,21,0.0,96.0
5150,76.0,0,21,1.0,96.0
5151,48.0,0,21,5.0,96.0
5152,36.0,0,21,6.0,96.0
5153,74.0,24,10,0.0,96.0
5154,68.0,0,21,1.0,96.0
5155,71.0,12,10,0.0,96.0
5156,47.0,0,24,5.0,96.0
5157,35.0,0,24,6.0,96.0
5158,73.0,12,21,0.0,96.0
5159,69.0,0,21,1.0,96.0
5160,45.0,0,24,5.0,96.0
5161,33.0,0,24,6.0,96.0
5162,74.0,24,10,1.0,96.0
5163,71.0,12,10,1.0,96.0
5164,44.0,0,24,5.0,96.0
5165,32.0,0,24,6.0,96.0
5166,73.0,0,10,2.0,104.0
5167,69.0,0,10,3.0,104.0
5168,64.0,0,10,4.0,104.0
5169,73.0,12,21,1.0,96.0
5170,71.0,12,10,2.0,104.0
5171,68.0,0,10,3.0,104.0
5172,62.0,0,10,4.0,104.0
5173,45.0,0,24,5.0,96.0
5174,33.0,0,24,6.0,96.0
5175,73.0,12,21,2.0,104.0
5176,69.0,0,21,3.0,104.0
5177,64.0,0,21,4.0,104.0
5178,57.0,0,21,5.0,96.0
5179,45.0,0,21,6.0,96.0
5180,81.0,24,10,0.0,96.0
5181,81.0,0,10,2.0,104.0
5182,76.0,0,21,3.0,104.0
5183,61.0,0,21,4.0,104.0
5184,55.0,0,21,5.0,96.0
5185,43.0,0,21,6.0,96.0
5186,80.0,12,10,0.0,96.0
5187,80.0,0,10,2.0,104.0
5188,81.0,12,10,0.0,96.0
5189,81.0,0,21,2.0,104.0
5190,74.0,0,21,3.0,104.0
5191,57.0,0,21,4.0,104.0
5192,53.0,0,21,5.0,96.0
5193,41.0,0,21,6.0,96.0
5194,76.0,12,10,0.0,96.0
5195,77.0,12,10,0.0,96.0
5196,81.0,0,10,1.0,96.0
5197,50.0,0,21,5.0,96.0
5198,38.0,0,21,6.0,96.0
5199,74.0,12,10,0.0,96.0
5200,80.0,0,10,1.0,96.0
5201,76.0,12,10,0.0,96.0
5202,81.0,0,10,1.0,96.0
5203,73.0,12,10,0.0,96.0
5204,76.0,0,10,1.0,96.0
5205,74.0,12,10,0.0,96.0
5206,77.0,0,10,1.0,96.0
5207,81.0,0,10,2.0,104.0
5208,77.0,0,10,3.0,104.0
5209,74.0,0,10,4.0,104.0
5210,50.0,0,21,5.0,96.0
5211,38.0,0,21,6.0,96.0
5212,71.0,12,10,0.0,96.0
5213,74.0,0,10,1.0,96.0
5214,80.0,0,10,2.0,104.0
5215,74.0,0,10,3.0,104.0
5216,71.0,0,10,4.0,104.0
5217,73.0,12,10,0.0,96.0
5218,76.0,0,10,1.0,96.0
5219,81.0,0,21,2.0,104.0
5220,76.0,0,21,3.0,104.0
5221,73.0,0,21,4.0,104.0
5222,55.0,0,21,5.0,96.0
5223,43.0,0,21,6.0,96.0
5224,69.0,12,10,0.0,96.0
5225,73.0,0,10,1.0,96.0
5226,73.0,12,10,0.0,96.0
5227,69.0,0,21,1.0,96.0
5228,53.0,0,21,5.0,96.0
5229,41.0,0,21,6.0,96.0
5230,76.0,12,10,0.0,96.0
5231,79.0,12,10,0.0,96.0
5232,52.0,0,21,5.0,96.0
5233,40.0,0,21,6.0,96.0
5234,76.0,12,10,0.0,96.0
5235,77.0,12,10,0.0,96.0
5236,81.0,0,10,1.0,96.0
5237,81.0,0,10,2.0,104.0
5238,77.0,0,10,3.0,104.0
5239,74.0,0,21,4.0,104.0
5240,50.0,0,21,5.0,96.0
5241,38.0,0,21,6.0,96.0
5242,74.0,12,10,0.0,96.0
5243,77.0,0,10,1.0,96.0
5244,80.0,0,10,2.0,104.0
5245,74.0,0,10,3.0,104.0
5246,76.0,12,10,0.0,96.0
5247,79.0,0,10,1.0,96.0
5248,81.0,0,21,2.0,104.0
5249,76.0,0,21,3.0,104.0
5250,69.0,0,21,4.0,104.0
5251,49.0,0,21,5.0,96.0
5252,37.0,0,21,6.0,96.0
5253,73.0,12,10,0.0,96.0
5254,76.0,0,10,1.0,96.0
5255,74.0,12,10,0.0,96.0
5256,77.0,0,10,1.0,96.0
5257,45.0,0,21,5.0,96.0
5258,33.0,0,21,6.0,96.0
5259,71.0,12,10,0.0,96.0
5260,74.0,0,10,1.0,96.0
5261,73.0,12,10,0.0,96.0
5262,76.0,0,10,1.0,96.0
5263,57.0,0,21,5.0,96.0
5264,45.0,0,21,6.0,96.0
5265,69.0,12,10,0.0,96.0
5266,73.0,0,10,1.0,96.0
5267,73.0,12,10,0.0,96.0
5268,69.0,0,21,1.0,96.0
5269,79.0,0,21,2.0,104.0
5270,73.0,0,21,3.0,104.0
5271,69.0,0,21,4.0,104.0
5272,45.0,0,21,5.0,96.0
5273,33.0,0,21,6.0,96.0
5274,76.0,12,10,0.0,96.0
5275,77.0,12,8,0.0,96.0
5276,75.0,8,8,0.0,96.0
5277,77.0,0,21,2.0,104.0
5278,74.0,0,21,3.0,104.0
5279,69.0,0,21,4.0,104.0
5280,50.0,0,21,5.0,96.0
5281,38.0,0,21,6.0,96.0
5282,74.0,8,7,0.0,96.0
5283,70.0,0,8,1.0,96.0
5284,69.0,8,8,1.0,96.0
5285,75.0,0,21,2.0,104.0
5286,70.0,0,21,3.0,104.0
5287,67.0,0,21,4.0,104.0
5288,55.0,0,21,5.0,96.0
5289,43.0,0,21,6.0,96.0
5290,67.0,8,7,1.0,96.0
5291,75.0,8,32,0.0,96.0
5292,74.0,8,8,0.0,96.0
5293,53.0,0,21,5.0,96.0
5294,41.0,0,21,6.0,96.0
5295,73.0,8,7,0.0,96.0
5296,69.0,8,32,1.0,96.0
5297,67.0,8,8,1.0,96.0
5298,74.0,0,21,2.0,104.0
5299,69.0,0,21,3.0,104.0
5300,62.0,0,21,4.0,104.0
5301,41.0,0,21,5.0,96.0
5302,29.0,0,21,6.0,96.0
5303,65.0,8,7,1.0,96.0
5304,74.0,8,31,0.0,96.0
5305,67.0,8,10,1.0,96.0
5306,40.0,0,21,5.0,96.0
5307,28.0,0,21,6.0,96.0
5308,82.0,12,10,0.0,96.0
5309,65.0,0,10,1.0,96.0
5310,73.0,12,10,0.0,96.0
5311,67.0,0,10,1.0,96.0
5312,82.0,0,21,2.0,104.0
5313,67.0,0,21,3.0,104.0
5314,64.0,0,21,4.0,104.0
5315,52.0,0,21,5.0,96.0
5316,40.0,0,21,6.0,96.0
5317,74.0,12,10,0.0,96.0
5318,65.0,0,10,1.0,96.0
5319,73.0,12,10,0.0,96.0
5320,67.0,0,21,1.0,96.0
5321,73.0,0,21,2.0,104.0
5322,67.0,0,21,3.0,104.0
5323,64.0,0,21,4.0,104.0
5324,45.0,0,21,5.0,96.0
5325,33.0,0,21,6.0,96.0
5326,69.0,12,10,0.0,96.0
5327,64.0,12,10,0.0,96.0
5328,61.0,12,10,0.0,96.0
5329,57.0,12,21,0.0,96.0
5330,64.0,24,8,0.0,96.0
5331,73.0,0,8,1.0,96.0
5332,65.0,8,8,0.0,96.0
5333,74.0,0,8,1.0,96.0
5334,67.0,8,7,0.0,96.0
5335,76.0,0,7,1.0,96.0
5336,67.0,8,8,0.0,96.0
5337,76.0,0,8,1.0,96.0
5338,69.0,8,8,0.0,96.0
5339,77.0,0,8,1.0,96.0
5340,71.0,8,7,0.0,96.0
5341,79.0,0,7,1.0,96.0
5342,71.0,8,8,0.0,96.0
5343,79.0,0,8,1.0,96.0
5344,73.0,8,8,0.0,96.0
5345,77.0,0,8,1.0,96.0
5346,74.0,8,7,0.0,96.0
5347,76.0,0,7,1.0,96.0
5348,74.0,8,10,0.0,96.0
5349,77.0,0,21,1.0,96.0
5350,74.0,0,21,2.0,104.0
5351,65.0,0,21,3.0,104.0
5352,69.0,0,21,4.0,104.0
5353,45.0,0,21,5.0,96.0
5354,33.0,0,21,6.0,96.0
5355,69.0,12,10,0.0,96.0
5356,65.0,12,10,0.0,96.0
5357,62.0,12,10,0.0,96.0
5358,57.0,12,21,0.0,96.0
5359,65.0,24,8,0.0,96.0
5360,74.0,0,8,1.0,96.0
5361,67.0,8,8,0.0,96.0
5362,76.0,0,8,1.0,96.0
5363,69.0,8,7,0.0,96.0
5364,77.0,0,7,1.0,96.0
5365,69.0,8,8,0.0,96.0
5366,77.0,0,8,1.0,96.0
5367,71.0,8,8,0.0,96.0
5368,79.0,0,8,1.0,96.0
5369,73.0,8,7,0.0,96.0
5370,81.0,0,7,1.0,96.0
5371,73.0,8,8,0.0,96.0
5372,81.0,0,8,1.0,96.0
5373,74.0,8,8,0.0,96.0
5374,79.0,0,8,1.0,96.0
5375,76.0,8,7,0.0,96.0
5376,77.0,0,7,1.0,96.0
5377,76.0,8,10,0.0,96.0
5378,79.0,0,21,1.0,96.0
5379,76.0,0,21,2.0,104.0
5380,73.0,0,21,3.0,104.0
5381,69.0,0,21,4.0,104.0
5382,45.0,0,21,5.0,96.0
5383,33.0,0,21,6.0,96.0
5384,73.0,12,10,0.0,96.0
5385,67.0,12,10,0.0,96.0
5386,64.0,12,10,0.0,96.0
5387,57.0,12,21,0.0,96.0
5388,69.0,24,8,0.0,96.0
5389,61.0,0,8,1.0,96.0
5390,71.0,8,8,0.0,96.0
5391,62.0,0,8,1.0,96.0
5392,73.0,8,7,0.0,96.0
5393,64.0,0,7,1.0,96.0
5394,73.0,8,8,0.0,96.0
5395,64.0,0,8,1.0,96.0
5396,74.0,8,8,0.0,96.0
5397,65.0,0,8,1.0,96.0
5398,76.0,8,7,0.0,96.0
5399,67.0,0,7,1.0,96.0
5400,76.0,8,8,0.0,96.0
5401,67.0,0,8,1.0,96.0
5402,77.0,8,8,0.0,96.0
5403,65.0,0,8,1.0,96.0
5404,79.0,8,7,0.0,96.0
5405,64.0,0,7,1.0,96.0
5406,77.0,8,6,0.0,96.0
5407,62.0,0,6,1.0,96.0
5408,77.0,0,6,2.0,104.0
5409,74.0,12,12,0.0,96.0
5410,65.0,0,12,1.0,96.0
5411,69.0,0,12,2.0,104.0
5412,73.0,12,12,0.0,96.0
5413,64.0,0,12,1.0,96.0
5414,67.0,0,12,2.0,104.0
5415,74.0,0,42,3.0,104.0
5416,69.0,0,42,4.0,104.0
5417,50.0,0,42,5.0,96.0
5418,38.0,0,42,6.0,96.0
5419,74.0,12,10,0.0,96.0
5420,65.0,0,10,1.0,96.0
5421,69.0,0,10,2.0,104.0
5422,75.0,12,6,0.0,96.0
5423,67.0,0,6,1.0,96.0
5424,70.0,0,6,2.0,104.0
5425,74.0,12,12,0.0,96.0
5426,65.0,0,12,1.0,96.0
5427,69.0,0,12,2.0,104.0
5428,73.0,12,12,0.0,96.0
5429,64.0,0,12,1.0,96.0
5430,67.0,0,12,2.0,104.0
5431,62.0,0,21,3.0,104.0
5432,62.0,0,21,4.0,104.0
5433,50.0,0,21,5.0,96.0
5434,38.0,0,21,6.0,96.0
5435,74.0,12,10,0.0,96.0
5436,65.0,0,10,1.0,96.0
5437,69.0,0,10,2.0,104.0
5438,70.0,12,8,0.0,96.0
5439,70.0,0,12,1.0,96.0
5440,70.0,0,12,2.0,104.0
5441,73.0,8,8,0.0,96.0
5442,62.0,0,21,3.0,104.0
5443,62.0,0,21,4.0,104.0
5444,55.0,0,21,5.0,96.0
5445,43.0,0,21,6.0,96.0
5446,74.0,8,7,0.0,96.0
5447,67.0,8,8,0.0,96.0
5448,67.0,0,12,1.0,96.0
5449,67.0,0,12,2.0,104.0
5450,73.0,8,8,0.0,96.0
5451,62.0,0,21,3.0,104.0
5452,62.0,0,21,4.0,104.0
5453,52.0,0,21,5.0,96.0
5454,40.0,0,21,6.0,96.0
5455,74.0,8,7,0.0,96.0
5456,69.0,8,6,0.0,96.0
5457,69.0,0,6,1.0,96.0
5458,74.0,0,6,2.0,104.0
5459,74.0,12,12,0.0,96.0
5460,65.0,0,12,1.0,96.0
5461,69.0,0,12,2.0,104.0
5462,73.0,12,12,0.0,96.0
5463,64.0,0,12,1.0,96.0
5464,67.0,0,12,2.0,104.0
5465,62.0,0,42,3.0,104.0
5466,62.0,0,42,4.0,104.0
5467,53.0,0,42,5.0,96.0
5468,41.0,0,42,6.0,96.0
5469,74.0,12,10,0.0,96.0
5470,65.0,0,10,1.0,96.0
5471,69.0,0,10,2.0,104.0
5472,77.0,12,6,0.0,96.0
5473,62.0,0,6,1.0,96.0
5474,65.0,0,6,2.0,104.0
5475,74.0,12,12,0.0,96.0
5476,65.0,0,12,1.0,96.0
5477,69.0,0,12,2.0,104.0
5478,73.0,12,12,0.0,96.0
5479,64.0,0,12,1.0,96.0
5480,67.0,0,12,2.0,104.0
5481,62.0,0,21,3.0,104.0
5482,62.0,0,21,4.0,104.0
5483,50.0,0,21,5.0,96.0
5484,38.0,0,21,6.0,96.0
5485,74.0,12,10,0.0,96.0
5486,65.0,0,10,1.0,96.0
5487,69.0,0,10,2.0,104.0
5488,69.0,12,8,0.0,96.0
5489,69.0,0,12,1.0,96.0
5490,69.0,0,12,2.0,104.0
5491,73.0,8,8,0.0,96.0
5492,62.0,0,21,3.0,104.0
5493,62.0,0,21,4.0,104.0
5494,53.0,0,21,5.0,96.0
5495,41.0,0,21,6.0,96.0
5496,74.0,8,7,0.0,96.0
5497,65.0,8,8,0.0,96.0
5498,65.0,0,12,1.0,96.0
5499,65.0,0,12,2.0,104.0
5500,73.0,8,8,0.0,96.0
5501,62.0,0,21,3.0,104.0
5502,62.0,0,21,4.0,104.0
5503,50.0,0,21,5.0,96.0
5504,38.0,0,21,6.0,96.0
5505,74.0,8,7,0.0,96.0
5506,67.0,8,6,0.0,96.0
5507,67.0,0,6,1.0,96.0
5508,67.0,0,6,2.0,104.0
5509,74.0,12,12,0.0,96.0
5510,70.0,0,12,1.0,96.0
5511,65.0,0,12,2.0,104.0
5512,73.0,12,12,0.0,96.0
5513,69.0,0,12,1.0,96.0
5514,64.0,0,12,2.0,104.0
5515,62.0,0,42,3.0,104.0
5516,62.0,0,42,4.0,104.0
5517,52.0,0,42,5.0,96.0
5518,40.0,0,42,6.0,96.0
5519,74.0,12,10,0.0,96.0
5520,70.0,0,10,1.0,96.0
5521,65.0,0,10,2.0,104.0
5522,82.0,12,6,0.0,96.0
5523,67.0,0,6,1.0,96.0
5524,67.0,0,6,2.0,104.0
5525,74.0,12,12,0.0,96.0
5526,70.0,0,12,1.0,96.0
5527,65.0,0,12,2.0,104.0
5528,73.0,12,12,0.0,96.0
5529,69.0,0,12,1.0,96.0
5530,64.0,0,12,2.0,104.0
5531,64.0,0,21,3.0,104.0
5532,58.0,0,21,4.0,104.0
5533,55.0,0,21,5.0,96.0
5534,43.0,0,21,6.0,96.0
5535,74.0,12,10,0.0,96.0
5536,70.0,0,10,1.0,96.0
5537,65.0,0,10,2.0,104.0
5538,67.0,12,8,0.0,96.0
5539,67.0,0,12,1.0,96.0
5540,67.0,0,12,2.0,104.0
5541,73.0,8,8,0.0,96.0
5542,61.0,0,21,3.0,104.0
5543,52.0,0,21,4.0,104.0
5544,45.0,0,21,5.0,96.0
5545,33.0,0,21,6.0,96.0
5546,74.0,8,7,0.0,96.0
5547,64.0,8,8,0.0,96.0
5548,64.0,0,12,1.0,96.0
5549,64.0,0,12,2.0,104.0
5550,73.0,8,8,0.0,96.0
5551,64.0,0,21,3.0,104.0
5552,57.0,0,21,4.0,104.0
5553,49.0,0,21,5.0,96.0
5554,37.0,0,21,6.0,96.0
5555,74.0,8,7,0.0,96.0
5556,50.0,0,10,5.0,96.0
5557,38.0,0,10,6.0,96.0
5558,65.0,8,21,0.0,96.0
5559,65.0,0,21,1.0,96.0
5560,65.0,0,21,2.0,104.0
5561,62.0,0,21,3.0,104.0
5562,57.0,0,21,4.0,104.0
5563,62.0,12,10,5.0,96.0
5564,50.0,0,10,6.0,96.0
5565,60.0,0,10,5.0,96.0
5566,48.0,0,10,6.0,96.0
5567,69.0,12,21,0.0,96.0
5568,69.0,0,21,1.0,96.0
5569,69.0,0,21,2.0,104.0
5570,65.0,0,21,3.0,104.0
5571,62.0,0,21,4.0,104.0
5572,58.0,12,10,5.0,96.0
5573,46.0,0,10,6.0,96.0
5574,57.0,0,10,5.0,96.0
5575,45.0,0,10,6.0,96.0
5576,74.0,12,21,0.0,96.0
5577,74.0,0,21,1.0,96.0
5578,74.0,0,21,2.0,104.0
5579,69.0,0,21,3.0,104.0
5580,65.0,0,21,4.0,104.0
5581,55.0,12,10,5.0,96.0
5582,43.0,0,10,6.0,96.0
5583,53.0,0,10,5.0,96.0
5584,41.0,0,10,6.0,96.0
5585,77.0,12,21,0.0,96.0
5586,77.0,0,21,1.0,96.0
5587,77.0,0,21,2.0,104.0
5588,74.0,0,21,3.0,104.0
5589,69.0,0,21,4.0,104.0
5590,52.0,12,10,5.0,96.0
5591,40.0,0,10,6.0,96.0
5592,81.0,12,6,0.0,96.0
5593,81.0,0,6,1.0,96.0
5594,81.0,0,6,2.0,104.0
5595,50.0,0,10,5.0,96.0
5596,38.0,0,10,6.0,96.0
5597,80.0,6,6,0.0,96.0
5598,80.0,0,6,1.0,96.0
5599,80.0,0,6,2.0,104.0
5600,81.0,6,6,0.0,96.0
5601,81.0,0,6,1.0,96.0
5602,81.0,0,6,2.0,104.0
5603,76.0,0,21,3.0,104.0
5604,71.0,0,21,4.0,104.0
5605,53.0,0,10,5.0,96.0
5606,41.0,0,10,6.0,96.0
5607,80.0,6,6,0.0,96.0
5608,80.0,0,6,1.0,96.0
5609,80.0,0,6,2.0,104.0
5610,81.0,6,6,0.0,96.0
5611,81.0,0,6,1.0,96.0
5612,81.0,0,6,2.0,104.0
5613,52.0,0,10,5.0,96.0
5614,40.0,0,10,6.0,96.0
5615,80.0,6,6,0.0,96.0
5616,80.0,0,6,1.0,96.0
5617,80.0,0,6,2.0,104.0
5618,78.0,6,6,0.0,96.0
5619,78.0,0,6,1.0,96.0
5620,78.0,0,6,2.0,104.0
5621,71.0,0,21,3.0,104.0
5622,64.0,0,21,4.0,104.0
5623,50.0,0,10,5.0,96.0
5624,38.0,0,10,6.0,96.0
5625,80.0,6,5,0.0,96.0
5626,80.0,0,5,1.0,96.0
5627,80.0,0,5,2.0,104.0
5628,49.0,0,10,5.0,96.0
5629,37.0,0,10,6.0,96.0
5630,81.0,6,21,0.0,96.0
5631,81.0,0,21,1.0,96.0
5632,81.0,0,21,2.0,104.0
5633,76.0,0,21,3.0,104.0
5634,64.0,0,21,4.0,104.0
5635,45.0,12,10,5.0,96.0
5636,33.0,0,10,6.0,96.0
5637,47.0,0,10,5.0,96.0
5638,35.0,0,10,6.0,96.0
5639,76.0,12,21,0.0,96.0
5640,76.0,0,21,1.0,96.0
5641,76.0,0,21,2.0,104.0
5642,73.0,0,21,3.0,104.0
5643,69.0,0,21,4.0,104.0
5644,49.0,12,10,5.0,96.0
5645,37.0,0,10,6.0,96.0
5646,50.0,0,10,5.0,96.0
5647,38.0,0,10,6.0,96.0
5648,77.0,12,21,0.0,96.0
5649,77.0,0,21,1.0,96.0
5650,77.0,0,21,2.0,104.0
5651,69.0,0,21,3.0,104.0
5652,62.0,0,21,4.0,104.0
5653,52.0,12,10,5.0,96.0
5654,40.0,0,10,6.0,96.0
5655,53.0,0,10,5.0,96.0
5656,41.0,0,10,6.0,96.0
5657,74.0,12,21,0.0,96.0
5658,74.0,0,21,1.0,96.0
5659,74.0,0,21,2.0,104.0
5660,69.0,0,21,3.0,104.0
5661,62.0,0,21,4.0,104.0
5662,55.0,12,10,5.0,96.0
5663,43.0,0,10,6.0,96.0
5664,69.0,12,21,0.0,96.0
5665,69.0,0,21,1.0,96.0
5666,69.0,0,21,2.0,104.0
5667,65.0,0,21,3.0,104.0
5668,62.0,0,21,4.0,104.0
5669,57.0,0,21,5.0,96.0
5670,45.0,0,21,6.0,96.0
5671,73.0,24,21,0.0,96.0
5672,73.0,0,21,1.0,96.0
5673,73.0,0,21,2.0,104.0
5674,64.0,0,21,3.0,104.0
5675,57.0,0,21,4.0,104.0
5676,45.0,0,21,5.0,96.0
5677,33.0,0,21,6.0,96.0
5678,74.0,24,10,0.0,96.0
5679,74.0,0,10,1.0,96.0
5680,74.0,0,10,2.0,104.0
5681,65.0,0,21,3.0,104.0
5682,50.0,0,21,5.0,96.0
5683,38.0,0,21,6.0,96.0
5684,69.0,12,10,0.0,96.0
5685,69.0,0,10,1.0,96.0
5686,69.0,0,10,2.0,104.0
5687,70.0,12,10,0.0,96.0
5688,70.0,0,10,1.0,96.0
5689,70.0,0,10,2.0,104.0
5690,67.0,0,10,3.0,104.0
5691,57.0,0,42,4.0,104.0
5692,38.0,0,21,5.0,96.0
5693,26.0,0,21,6.0,96.0
5694,67.0,12,10,0.0,96.0
5695,67.0,0,10,1.0,96.0
5696,67.0,0,10,2.0,104.0
5697,64.0,0,10,3.0,104.0
5698,69.0,12,10,0.0,96.0
5699,69.0,0,10,1.0,96.0
5700,69.0,0,10,2.0,104.0
5701,65.0,0,10,3.0,104.0
5702,38.0,0,21,5.0,96.0
5703,26.0,0,21,6.0,96.0
5704,65.0,12,10,0.0,96.0
5705,65.0,0,10,1.0,96.0
5706,65.0,0,10,2.0,104.0
5707,62.0,0,10,3.0,104.0
5708,57.0,0,10,4.0,104.0
5709,67.0,12,10,0.0,96.0
5710,67.0,0,10,1.0,96.0
5711,67.0,0,10,2.0,104.0
5712,64.0,0,10,3.0,104.0
5713,58.0,0,10,4.0,104.0
5714,38.0,0,21,5.0,96.0
5715,26.0,0,21,6.0,96.0
5716,64.0,12,10,0.0,96.0
5717,64.0,0,10,1.0,96.0
5718,64.0,0,10,2.0,104.0
5719,61.0,0,10,3.0,104.0
5720,55.0,0,10,4.0,104.0
5721,65.0,12,10,0.0,96.0
5722,65.0,0,10,1.0,96.0
5723,65.0,0,10,2.0,104.0
5724,62.0,0,10,3.0,104.0
5725,57.0,0,10,4.0,104.0
5726,38.0,0,21,5.0,96.0
5727,26.0,0,21,6.0,96.0
5728,62.0,12,10,0.0,96.0
5729,62.0,0,10,1.0,96.0
5730,62.0,0,10,2.0,104.0
5731,57.0,0,10,3.0,104.0
5732,53.0,0,10,4.0,104.0
5733,64.0,12,10,0.0,96.0
5734,64.0,0,10,1.0,96.0
5735,64.0,0,10,2.0,104.0
5736,58.0,0,10,3.0,104.0
5737,55.0,0,10,4.0,104.0
5738,38.0,0,21,5.0,96.0
5739,26.0,0,21,6.0,96.0
5740,61.0,12,10,0.0,96.0
5741,61.0,0,10,1.0,96.0
5742,61.0,0,10,2.0,104.0
5743,55.0,0,10,3.0,104.0
5744,52.0,0,10,4.0,104.0
5745,62.0,12,96,0.0,96.0
5746,62.0,0,96,1.0,96.0
5747,62.0,0,96,2.0,104.0
5748,57.0,0,96,3.0,104.0
5749,53.0,0,96,4.0,104.0
5750,38.0,0,96,5.0,96.0
5751,26.0,0,96,6.0,96.0
