,note,step,duration,channel,velocity
0,78.0,0,256,0.0,100.0
1,47.0,0,512,1.0,100.0
2,79.0,384,128,0.0,100.0
3,78.0,192,128,0.0,100.0
4,62.0,0,760,1.0,70.0
5,76.0,0,128,0.0,100.0
6,78.0,192,128,0.0,100.0
7,67.0,0,376,1.0,70.0
8,79.0,192,128,0.0,100.0
9,71.0,0,1528,1.0,70.0
10,64.0,0,376,1.0,70.0
11,81.0,336,40,0.0,100.0
12,59.0,192,760,1.0,100.0
13,79.0,0,40,0.0,100.0
14,81.0,48,40,0.0,100.0
15,79.0,48,40,0.0,100.0
16,81.0,48,40,0.0,100.0
17,73.0,0,376,1.0,70.0
18,58.0,0,376,1.0,100.0
19,79.0,48,184,0.0,100.0
20,78.0,0,256,0.0,100.0
21,61.0,0,376,1.0,100.0
22,70.0,192,376,1.0,70.0
23,58.0,384,376,1.0,100.0
24,66.0,0,376,1.0,70.0
25,64.0,48,1144,1.0,70.0
26,76.0,0,256,0.0,100.0
27,70.0,384,376,1.0,70.0
28,54.0,0,376,1.0,100.0
29,74.0,0,184,0.0,100.0
30,59.0,0,256,1.0,100.0
31,76.0,192,184,0.0,100.0
32,73.0,0,760,1.0,70.0
33,78.0,0,184,0.0,100.0
34,71.0,192,184,0.0,100.0
35,66.0,384,760,1.0,70.0
36,50.0,192,376,1.0,100.0
37,74.0,0,256,0.0,100.0
38,52.0,0,376,1.0,100.0
39,74.0,336,40,0.0,100.0
40,71.0,0,760,1.0,70.0
41,73.0,0,40,0.0,100.0
42,74.0,48,40,0.0,100.0
43,73.0,48,40,0.0,100.0
44,74.0,48,40,0.0,100.0
45,73.0,48,184,0.0,100.0
46,64.0,192,760,1.0,70.0
47,70.0,0,376,1.0,70.0
48,54.0,48,376,1.0,100.0
49,71.0,192,128,0.0,100.0
50,47.0,0,256,1.0,100.0
51,74.0,192,184,0.0,100.0
52,71.0,0,376,1.0,70.0
53,73.0,0,184,0.0,100.0
54,59.0,0,376,1.0,100.0
55,71.0,192,184,0.0,100.0
56,78.0,192,184,0.0,100.0
57,71.0,192,184,0.0,100.0
58,57.0,0,376,1.0,100.0
59,62.0,0,1144,1.0,70.0
60,66.0,192,760,1.0,70.0
61,80.0,192,184,0.0,100.0
62,71.0,192,184,0.0,100.0
63,56.0,0,376,1.0,100.0
64,65.0,0,376,1.0,70.0
65,73.0,0,120,1.0,100.0
66,81.0,0,184,0.0,100.0
67,80.0,192,184,0.0,100.0
68,54.0,192,512,1.0,100.0
69,74.0,192,128,1.0,100.0
70,83.0,0,184,0.0,100.0
71,73.0,0,128,1.0,100.0
72,81.0,192,184,0.0,100.0
73,71.0,192,128,1.0,100.0
74,80.0,0,184,0.0,100.0
75,73.0,0,128,1.0,100.0
76,78.0,192,184,0.0,100.0
77,74.0,192,120,1.0,100.0
78,77.0,0,184,0.0,100.0
79,66.0,0,760,1.0,100.0
80,78.0,192,184,0.0,100.0
81,76.0,144,40,1.0,100.0
82,74.0,48,40,1.0,100.0
83,76.0,48,40,1.0,100.0
84,74.0,48,40,1.0,100.0
85,76.0,48,40,1.0,100.0
86,80.0,0,184,0.0,100.0
87,65.0,0,376,1.0,100.0
88,78.0,0,184,0.0,100.0
89,74.0,48,184,1.0,100.0
90,73.0,0,120,1.0,100.0
91,77.0,192,184,0.0,100.0
92,75.0,192,184,0.0,100.0
93,68.0,0,376,1.0,100.0
94,73.0,192,184,0.0,100.0
95,65.0,0,376,1.0,100.0
96,71.0,192,184,0.0,100.0
97,71.0,0,120,1.0,100.0
98,69.0,192,184,0.0,100.0
99,68.0,192,184,0.0,100.0
100,61.0,0,376,1.0,100.0
101,69.0,0,184,1.0,100.0
102,66.0,0,256,1.0,100.0
103,66.0,192,256,0.0,100.0
104,71.0,192,184,1.0,100.0
105,73.0,0,184,1.0,100.0
106,66.0,192,184,1.0,100.0
107,57.0,0,376,1.0,100.0
108,69.0,192,120,1.0,100.0
109,59.0,0,376,1.0,100.0
110,78.0,192,760,0.0,100.0
111,69.0,336,40,1.0,100.0
112,68.0,0,40,1.0,100.0
113,69.0,48,40,1.0,100.0
114,68.0,48,40,1.0,100.0
115,69.0,48,40,1.0,100.0
116,61.0,48,376,1.0,100.0
117,77.0,0,376,0.0,100.0
118,68.0,48,184,1.0,100.0
119,66.0,0,128,1.0,100.0
120,69.0,192,184,1.0,100.0
121,68.0,192,184,1.0,100.0
122,54.0,192,760,1.0,100.0
123,66.0,192,184,1.0,100.0
124,73.0,192,184,1.0,100.0
125,66.0,192,184,1.0,100.0
126,59.0,0,128,1.0,100.0
127,75.0,192,184,1.0,100.0
128,66.0,192,184,1.0,100.0
129,81.0,0,1528,0.0,100.0
130,64.0,192,128,1.0,100.0
131,67.0,192,184,1.0,100.0
132,66.0,192,184,1.0,100.0
133,52.0,0,760,1.0,100.0
134,64.0,192,184,1.0,100.0
135,71.0,192,184,1.0,100.0
136,64.0,192,184,1.0,100.0
137,57.0,0,128,1.0,100.0
138,73.0,192,184,1.0,100.0
139,79.0,0,1528,0.0,100.0
140,64.0,192,184,1.0,100.0
141,78.0,192,128,0.0,100.0
142,50.0,0,376,1.0,100.0
143,74.0,192,184,0.0,100.0
144,47.0,192,128,1.0,100.0
145,76.0,0,184,0.0,100.0
146,78.0,192,184,0.0,100.0
147,44.0,192,128,1.0,100.0
148,71.0,0,184,0.0,100.0
149,78.0,192,184,0.0,100.0
150,47.0,0,128,1.0,100.0
151,68.0,192,184,0.0,100.0
152,78.0,192,184,0.0,100.0
153,76.0,0,128,0.0,100.0
154,74.0,0,1720,1.0,100.0
155,49.0,192,376,1.0,100.0
156,76.0,0,184,1.0,100.0
157,73.0,192,184,0.0,100.0
158,46.0,0,128,1.0,100.0
159,74.0,0,184,0.0,100.0
160,78.0,192,184,1.0,100.0
161,76.0,0,184,0.0,100.0
162,79.0,192,184,1.0,100.0
163,42.0,192,128,1.0,100.0
164,70.0,0,184,0.0,100.0
165,76.0,192,184,0.0,100.0
166,46.0,192,128,1.0,100.0
167,66.0,0,184,0.0,100.0
168,76.0,192,184,0.0,100.0
169,47.0,192,120,1.0,100.0
170,73.0,0,952,1.0,100.0
171,71.0,192,184,1.0,100.0
172,74.0,0,376,0.0,100.0
173,55.0,0,128,1.0,100.0
174,76.0,0,184,1.0,100.0
175,71.0,192,256,0.0,100.0
176,54.0,192,128,1.0,100.0
177,74.0,0,184,1.0,100.0
178,52.0,0,128,1.0,100.0
179,73.0,0,184,1.0,100.0
180,54.0,0,128,1.0,100.0
181,71.0,192,184,1.0,100.0
182,79.0,192,376,0.0,100.0
183,55.0,192,56,1.0,100.0
184,70.0,0,184,1.0,100.0
185,76.0,0,376,0.0,100.0
186,57.0,144,40,1.0,100.0
187,71.0,192,184,1.0,100.0
188,55.0,48,40,1.0,100.0
189,57.0,48,40,1.0,100.0
190,55.0,48,40,1.0,100.0
191,57.0,48,40,1.0,100.0
192,73.0,0,184,1.0,100.0
193,55.0,48,184,1.0,100.0
194,71.0,0,184,1.0,100.0
195,82.0,0,376,0.0,100.0
196,54.0,192,120,1.0,100.0
197,70.0,0,184,1.0,100.0
198,85.0,0,256,0.0,100.0
199,68.0,192,184,1.0,100.0
200,66.0,0,184,1.0,100.0
201,82.0,192,256,0.0,100.0
202,64.0,192,184,1.0,100.0
203,52.0,0,120,1.0,100.0
204,62.0,0,184,1.0,100.0
205,61.0,192,184,1.0,100.0
206,78.0,192,568,0.0,100.0
207,50.0,192,184,1.0,100.0
208,59.0,0,256,1.0,100.0
209,52.0,0,184,1.0,100.0
210,73.0,192,184,0.0,100.0
211,54.0,0,184,1.0,100.0
212,74.0,192,184,0.0,100.0
213,76.0,192,184,0.0,100.0
214,47.0,0,184,1.0,100.0
215,50.0,0,120,1.0,100.0
216,68.0,192,184,0.0,100.0
217,71.0,0,760,1.0,100.0
218,50.0,144,40,1.0,100.0
219,76.0,192,184,0.0,100.0
220,49.0,0,40,1.0,100.0
221,50.0,48,40,1.0,100.0
222,49.0,48,40,1.0,100.0
223,50.0,48,40,1.0,100.0
224,70.0,48,184,0.0,100.0
225,70.0,0,256,1.0,100.0
226,76.0,0,184,0.0,100.0
227,49.0,48,184,1.0,100.0
228,71.0,0,120,1.0,100.0
229,47.0,192,128,1.0,100.0
230,50.0,192,184,1.0,100.0
231,66.0,0,120,1.0,100.0
232,49.0,192,184,1.0,100.0
233,47.0,192,184,1.0,100.0
234,74.0,0,760,0.0,100.0
235,54.0,192,184,1.0,100.0
236,47.0,192,184,1.0,100.0
237,56.0,192,184,1.0,100.0
238,83.0,0,256,0.0,100.0
239,47.0,192,184,1.0,100.0
240,76.0,192,184,0.0,100.0
241,57.0,0,256,1.0,100.0
242,74.0,0,1144,1.0,100.0
243,73.0,192,184,0.0,100.0
244,71.0,0,184,0.0,100.0
245,45.0,192,376,1.0,100.0
246,69.0,192,184,0.0,100.0
247,64.0,0,376,1.0,100.0
248,76.0,192,184,0.0,100.0
249,43.0,0,376,1.0,100.0
250,73.0,0,376,1.0,100.0
251,69.0,192,184,0.0,100.0
252,78.0,0,184,0.0,100.0
253,75.0,0,376,1.0,100.0
254,42.0,192,376,1.0,100.0
255,69.0,192,184,0.0,100.0
256,64.0,0,128,1.0,100.0
257,79.0,0,256,0.0,100.0
258,40.0,192,256,1.0,100.0
259,67.0,192,184,1.0,100.0
260,66.0,0,184,1.0,100.0
261,71.0,0,256,0.0,100.0
262,64.0,192,184,1.0,100.0
263,47.0,192,376,1.0,100.0
264,71.0,192,184,1.0,100.0
265,43.0,0,376,1.0,100.0
266,64.0,192,184,1.0,100.0
267,73.0,0,184,1.0,100.0
268,79.0,0,760,0.0,100.0
269,64.0,192,184,1.0,100.0
270,40.0,192,376,1.0,100.0
271,74.0,0,120,1.0,100.0
272,78.0,0,184,0.0,100.0
273,47.0,192,256,1.0,100.0
274,74.0,192,184,0.0,100.0
275,66.0,0,120,1.0,100.0
276,73.0,192,184,0.0,100.0
277,71.0,192,184,0.0,100.0
278,54.0,0,376,1.0,100.0
279,78.0,0,184,0.0,100.0
280,50.0,192,376,1.0,100.0
281,71.0,192,184,0.0,100.0
282,80.0,0,184,0.0,100.0
283,47.0,192,376,1.0,100.0
284,74.0,0,760,1.0,100.0
285,71.0,192,184,0.0,100.0
286,73.0,0,128,1.0,100.0
287,42.0,192,256,1.0,100.0
288,69.0,192,184,1.0,100.0
289,71.0,0,184,1.0,100.0
290,73.0,192,184,1.0,100.0
291,54.0,192,376,1.0,100.0
292,66.0,192,184,1.0,100.0
293,51.0,0,376,1.0,100.0
294,73.0,192,184,1.0,100.0
295,63.0,192,184,1.0,100.0
296,73.0,192,184,1.0,100.0
297,54.0,0,376,1.0,100.0
298,71.0,0,128,1.0,100.0
299,81.0,0,1664,0.0,100.0
300,44.0,192,256,1.0,100.0
301,68.0,192,184,1.0,100.0
302,83.0,0,184,0.0,100.0
303,69.0,192,184,1.0,100.0
304,85.0,0,184,0.0,100.0
305,53.0,0,376,1.0,100.0
306,71.0,192,184,1.0,100.0
307,86.0,0,184,0.0,100.0
308,65.0,0,184,1.0,100.0
309,71.0,192,184,1.0,100.0
310,49.0,0,376,1.0,100.0
311,53.0,192,120,1.0,100.0
312,61.0,0,184,1.0,100.0
313,71.0,192,184,1.0,100.0
314,42.0,192,120,1.0,100.0
315,69.0,0,120,1.0,100.0
316,80.0,192,896,0.0,100.0
317,78.0,192,184,0.0,100.0
318,66.0,192,120,1.0,100.0
319,50.0,0,128,1.0,100.0
320,83.0,0,184,0.0,100.0
321,49.0,0,128,1.0,100.0
322,81.0,192,184,0.0,100.0
323,47.0,0,128,1.0,100.0
324,80.0,0,184,0.0,100.0
325,49.0,192,128,1.0,100.0
326,78.0,0,184,0.0,100.0
327,50.0,192,56,1.0,100.0
328,77.0,0,184,0.0,100.0
329,78.0,192,760,1.0,100.0
330,78.0,192,184,0.0,100.0
331,52.0,144,40,1.0,100.0
332,50.0,0,40,1.0,100.0
333,52.0,48,40,1.0,100.0
334,50.0,48,40,1.0,100.0
335,52.0,48,40,1.0,100.0
336,80.0,0,184,0.0,100.0
337,77.0,48,256,1.0,100.0
338,50.0,48,184,1.0,100.0
339,78.0,0,184,0.0,100.0
340,49.0,192,120,1.0,100.0
341,77.0,0,184,0.0,100.0
342,80.0,0,376,1.0,100.0
343,75.0,192,184,0.0,100.0
344,73.0,0,184,0.0,100.0
345,71.0,192,184,0.0,100.0
346,77.0,192,376,1.0,100.0
347,47.0,192,120,1.0,100.0
348,69.0,0,184,0.0,100.0
349,73.0,0,376,1.0,100.0
350,68.0,192,184,0.0,100.0
351,66.0,192,184,1.0,100.0
352,45.0,0,184,1.0,100.0
353,66.0,0,256,0.0,100.0
354,68.0,192,184,1.0,100.0
355,47.0,0,184,1.0,100.0
356,49.0,0,184,1.0,100.0
357,69.0,0,184,1.0,100.0
358,71.0,192,184,1.0,100.0
359,42.0,0,184,1.0,100.0
360,45.0,0,120,1.0,100.0
361,73.0,192,184,1.0,100.0
362,78.0,192,184,1.0,100.0
363,78.0,192,760,0.0,100.0
364,71.0,0,184,1.0,100.0
365,44.0,192,376,1.0,100.0
366,77.0,0,376,0.0,100.0
367,80.0,192,184,1.0,100.0
368,81.0,0,128,1.0,100.0
369,42.0,0,184,1.0,100.0
370,78.0,192,256,0.0,100.0
371,54.0,192,184,1.0,100.0
372,69.0,0,184,1.0,100.0
373,56.0,192,184,1.0,100.0
374,71.0,0,184,1.0,100.0
375,73.0,0,256,0.0,100.0
376,73.0,0,184,1.0,100.0
377,57.0,192,184,1.0,100.0
378,51.0,0,184,1.0,100.0
379,66.0,192,184,1.0,100.0
380,73.0,0,184,1.0,100.0
381,57.0,192,184,1.0,100.0
382,63.0,192,184,1.0,100.0
383,47.0,0,184,1.0,100.0
384,57.0,192,184,1.0,100.0
385,66.0,0,184,1.0,100.0
386,71.0,0,128,1.0,100.0
387,55.0,192,184,1.0,100.0
388,78.0,0,1024,0.0,100.0
389,67.0,0,184,1.0,100.0
390,52.0,192,184,1.0,100.0
391,69.0,192,184,1.0,100.0
392,54.0,0,184,1.0,100.0
393,71.0,0,256,0.0,100.0
394,55.0,192,184,1.0,100.0
395,71.0,0,184,1.0,100.0
396,49.0,192,184,1.0,100.0
397,64.0,0,184,1.0,100.0
398,55.0,192,184,1.0,100.0
399,69.0,0,184,1.0,100.0
400,45.0,192,184,1.0,100.0
401,61.0,0,184,1.0,100.0
402,55.0,192,184,1.0,100.0
403,64.0,0,184,1.0,100.0
404,76.0,0,896,0.0,100.0
405,69.0,0,128,1.0,100.0
406,54.0,192,256,1.0,100.0
407,74.0,192,184,1.0,100.0
408,78.0,0,184,0.0,100.0
409,76.0,192,184,1.0,100.0
410,79.0,0,184,0.0,100.0
411,81.0,192,184,0.0,100.0
412,78.0,0,184,1.0,100.0
413,59.0,0,376,1.0,100.0
414,71.0,192,184,1.0,100.0
415,78.0,192,184,1.0,100.0
416,56.0,0,376,1.0,100.0
417,68.0,192,184,1.0,100.0
418,59.0,0,376,1.0,100.0
419,78.0,192,184,1.0,100.0
420,76.0,0,128,1.0,100.0
421,74.0,0,896,0.0,100.0
422,61.0,192,376,1.0,100.0
423,76.0,192,184,0.0,100.0
424,73.0,0,184,1.0,100.0
425,74.0,0,184,1.0,100.0
426,78.0,0,184,0.0,100.0
427,76.0,0,184,1.0,100.0
428,79.0,192,184,0.0,100.0
429,58.0,192,376,1.0,100.0
430,70.0,0,184,1.0,100.0
431,54.0,192,376,1.0,100.0
432,73.0,0,376,0.0,100.0
433,76.0,192,184,1.0,100.0
434,66.0,0,184,1.0,100.0
435,76.0,192,184,1.0,100.0
436,58.0,192,376,1.0,100.0
437,59.0,192,128,1.0,100.0
438,78.0,0,256,0.0,100.0
439,74.0,0,320,1.0,100.0
440,61.0,192,184,1.0,100.0
441,79.0,0,128,0.0,100.0
442,64.0,192,184,1.0,100.0
443,73.0,0,184,1.0,100.0
444,78.0,0,128,0.0,100.0
445,62.0,0,184,1.0,100.0
446,74.0,192,184,1.0,100.0
447,76.0,192,128,0.0,100.0
448,61.0,0,184,1.0,100.0
449,76.0,0,184,1.0,100.0
450,78.0,0,128,0.0,100.0
451,59.0,0,184,1.0,100.0
452,74.0,192,184,1.0,100.0
453,73.0,0,184,1.0,100.0
454,58.0,0,184,1.0,100.0
455,79.0,192,256,0.0,100.0
456,71.0,192,184,1.0,100.0
457,81.0,144,40,0.0,100.0
458,59.0,0,184,1.0,100.0
459,79.0,48,40,0.0,100.0
460,81.0,48,40,0.0,100.0
461,70.0,0,120,1.0,100.0
462,79.0,48,40,0.0,100.0
463,81.0,48,40,0.0,100.0
464,61.0,0,184,1.0,100.0
465,59.0,48,184,1.0,100.0
466,79.0,0,184,0.0,100.0
467,58.0,0,184,1.0,100.0
468,78.0,192,256,0.0,100.0
469,56.0,192,184,1.0,100.0
470,73.0,0,376,1.0,100.0
471,54.0,192,184,1.0,100.0
472,52.0,192,184,1.0,100.0
473,70.0,0,376,1.0,100.0
474,50.0,0,184,1.0,100.0
475,76.0,0,256,0.0,100.0
476,49.0,192,184,1.0,100.0
477,66.0,192,376,1.0,100.0
478,71.0,0,120,1.0,100.0
479,74.0,192,184,0.0,100.0
480,76.0,192,184,0.0,100.0
481,47.0,0,376,1.0,100.0
482,78.0,0,184,0.0,100.0
483,50.0,0,376,1.0,100.0
484,71.0,192,184,0.0,100.0
485,74.0,192,256,0.0,100.0
486,83.0,192,760,1.0,100.0
487,52.0,0,376,1.0,100.0
488,74.0,336,40,0.0,100.0
489,73.0,48,40,0.0,100.0
490,74.0,48,40,0.0,100.0
491,73.0,48,40,0.0,100.0
492,74.0,48,40,0.0,100.0
493,73.0,48,184,0.0,100.0
494,82.0,0,376,1.0,100.0
495,54.0,0,376,1.0,100.0
496,85.0,192,56,1.0,100.0
497,83.0,64,56,1.0,100.0
498,71.0,0,128,0.0,100.0
499,85.0,64,56,1.0,100.0
500,83.0,0,56,1.0,100.0
501,85.0,64,56,1.0,100.0
502,74.0,64,184,0.0,100.0
503,55.0,0,376,1.0,100.0
504,83.0,64,56,1.0,100.0
505,85.0,64,56,1.0,100.0
506,83.0,64,56,1.0,100.0
507,73.0,0,184,0.0,100.0
508,85.0,64,56,1.0,100.0
509,83.0,0,56,1.0,100.0
510,85.0,64,56,1.0,100.0
511,71.0,64,184,0.0,100.0
512,57.0,0,376,1.0,100.0
513,83.0,64,56,1.0,100.0
514,85.0,0,56,1.0,100.0
515,83.0,64,56,1.0,100.0
516,85.0,64,56,1.0,100.0
517,76.0,64,184,0.0,100.0
518,83.0,0,56,1.0,100.0
519,85.0,64,56,1.0,100.0
520,71.0,64,184,0.0,100.0
521,83.0,64,56,1.0,100.0
522,55.0,0,376,1.0,100.0
523,85.0,64,56,1.0,100.0
524,83.0,64,56,1.0,100.0
525,78.0,0,184,0.0,100.0
526,85.0,64,56,1.0,100.0
527,83.0,0,56,1.0,100.0
528,85.0,64,56,1.0,100.0
529,71.0,64,184,0.0,100.0
530,54.0,0,376,1.0,100.0
531,83.0,64,56,1.0,100.0
532,85.0,0,56,1.0,100.0
533,83.0,64,56,1.0,100.0
534,85.0,64,56,1.0,100.0
535,79.0,0,184,0.0,100.0
536,83.0,0,56,1.0,100.0
537,85.0,64,56,1.0,100.0
538,83.0,64,56,1.0,100.0
539,52.0,64,376,1.0,100.0
540,71.0,64,184,0.0,100.0
541,85.0,0,56,1.0,100.0
542,83.0,64,56,1.0,100.0
543,85.0,64,56,1.0,100.0
544,78.0,0,184,0.0,100.0
545,83.0,64,56,1.0,100.0
546,85.0,64,56,1.0,100.0
547,71.0,0,184,0.0,100.0
548,50.0,64,376,1.0,100.0
549,83.0,64,56,1.0,100.0
550,85.0,0,56,1.0,100.0
551,83.0,64,56,1.0,100.0
552,76.0,0,184,0.0,100.0
553,85.0,64,56,1.0,100.0
554,83.0,64,56,1.0,100.0
555,85.0,64,56,1.0,100.0
556,71.0,0,184,0.0,100.0
557,49.0,64,376,1.0,100.0
558,83.0,64,56,1.0,100.0
559,85.0,0,56,1.0,100.0
560,83.0,64,56,1.0,100.0
561,79.0,64,184,0.0,100.0
562,85.0,64,56,1.0,100.0
563,83.0,0,56,1.0,100.0
564,85.0,64,56,1.0,100.0
565,71.0,64,184,0.0,100.0
566,52.0,0,376,1.0,100.0
567,83.0,64,56,1.0,100.0
568,85.0,0,56,1.0,100.0
569,83.0,64,56,1.0,100.0
570,85.0,64,56,1.0,100.0
571,78.0,0,184,0.0,100.0
572,83.0,64,56,1.0,100.0
573,85.0,64,56,1.0,100.0
574,50.0,64,376,1.0,100.0
575,83.0,64,56,1.0,100.0
576,71.0,0,184,0.0,100.0
577,85.0,0,56,1.0,100.0
578,83.0,64,56,1.0,100.0
579,85.0,64,56,1.0,100.0
580,76.0,64,184,0.0,100.0
581,83.0,64,56,1.0,100.0
582,85.0,64,56,1.0,100.0
583,49.0,0,376,1.0,100.0
584,83.0,64,56,1.0,100.0
585,71.0,0,184,0.0,100.0
586,85.0,64,56,1.0,100.0
587,83.0,64,56,1.0,100.0
588,85.0,64,56,1.0,100.0
589,74.0,0,184,0.0,100.0
590,83.0,0,56,1.0,100.0
591,85.0,64,56,1.0,100.0
592,47.0,0,376,1.0,100.0
593,71.0,64,184,0.0,100.0
594,83.0,64,56,1.0,100.0
595,85.0,64,56,1.0,100.0
596,83.0,64,56,1.0,100.0
597,85.0,64,56,1.0,100.0
598,78.0,0,184,0.0,100.0
599,83.0,0,88,1.0,100.0
600,71.0,64,184,0.0,100.0
601,50.0,0,376,1.0,100.0
602,85.0,96,88,1.0,100.0
603,83.0,0,120,1.0,100.0
604,76.0,0,128,0.0,100.0
605,79.0,192,184,0.0,100.0
606,49.0,96,376,1.0,100.0
607,71.0,0,120,1.0,100.0
608,78.0,192,184,0.0,100.0
609,76.0,192,184,0.0,100.0
610,50.0,0,376,1.0,100.0
611,82.0,0,184,0.0,100.0
612,49.0,0,376,1.0,100.0
613,76.0,192,184,0.0,100.0
614,83.0,0,184,0.0,100.0
615,47.0,192,376,1.0,100.0
616,76.0,192,184,0.0,100.0
617,76.0,192,952,1.0,100.0
618,46.0,192,256,1.0,100.0
619,73.0,192,184,1.0,100.0
620,74.0,0,184,1.0,100.0
621,58.0,192,376,1.0,100.0
622,76.0,192,184,1.0,100.0
623,70.0,192,184,1.0,100.0
624,54.0,0,376,1.0,100.0
625,76.0,192,184,1.0,100.0
626,66.0,192,184,1.0,100.0
627,58.0,0,376,1.0,100.0
628,76.0,192,184,1.0,100.0
629,59.0,192,128,1.0,100.0
630,85.0,0,1792,0.0,100.0
631,61.0,192,184,1.0,100.0
632,59.0,192,184,1.0,100.0
633,78.0,0,256,0.0,100.0
634,57.0,192,184,1.0,100.0
635,55.0,192,184,1.0,100.0
636,83.0,0,256,0.0,100.0
637,59.0,192,184,1.0,100.0
638,74.0,0,1144,1.0,100.0
639,54.0,0,184,1.0,100.0
640,81.0,192,256,0.0,100.0
641,75.0,0,376,1.0,100.0
642,59.0,192,184,1.0,100.0
643,52.0,0,128,1.0,100.0
644,76.0,192,184,1.0,100.0
645,79.0,0,256,0.0,100.0
646,74.0,0,184,1.0,100.0
647,54.0,192,184,1.0,100.0
648,73.0,0,184,1.0,100.0
649,52.0,0,184,1.0,100.0
650,78.0,192,256,0.0,100.0
651,71.0,0,184,1.0,100.0
652,50.0,192,184,1.0,100.0
653,70.0,0,184,1.0,100.0
654,49.0,0,184,1.0,100.0
655,52.0,0,184,1.0,100.0
656,79.0,192,184,1.0,100.0
657,47.0,192,184,1.0,100.0
658,71.0,0,184,1.0,100.0
659,79.0,192,184,1.0,100.0
660,52.0,0,184,1.0,100.0
661,73.0,0,128,1.0,100.0
662,76.0,192,896,0.0,100.0
663,79.0,0,184,0.0,100.0
664,76.0,192,184,1.0,100.0
665,46.0,192,376,1.0,100.0
666,74.0,0,184,1.0,100.0
667,78.0,0,184,0.0,100.0
668,73.0,192,184,1.0,100.0
669,42.0,192,376,1.0,100.0
670,76.0,0,184,0.0,100.0
671,47.0,0,120,1.0,100.0
672,71.0,0,120,1.0,100.0
673,74.0,192,184,0.0,100.0
674,71.0,192,184,0.0,100.0
675,43.0,192,120,1.0,100.0
676,76.0,0,184,0.0,100.0
677,83.0,0,184,1.0,100.0
678,82.0,0,184,1.0,100.0
679,71.0,192,184,0.0,100.0
680,83.0,192,128,1.0,100.0
681,78.0,0,184,0.0,100.0
682,71.0,0,184,0.0,100.0
683,38.0,0,376,1.0,100.0
684,74.0,192,184,1.0,100.0
685,73.0,192,184,1.0,100.0
686,79.0,0,256,0.0,100.0
687,71.0,0,40,1.0,100.0
688,40.0,0,376,1.0,100.0
689,76.0,144,40,0.0,100.0
690,74.0,48,40,0.0,100.0
691,70.0,0,40,1.0,100.0
692,76.0,48,40,0.0,100.0
693,71.0,0,40,1.0,100.0
694,70.0,0,40,1.0,100.0
695,74.0,48,40,0.0,100.0
696,71.0,0,40,1.0,100.0
697,76.0,48,40,0.0,100.0
698,70.0,0,40,1.0,100.0
699,71.0,48,40,1.0,100.0
700,70.0,48,40,1.0,100.0
701,71.0,48,40,1.0,100.0
702,74.0,48,184,0.0,100.0
703,73.0,48,184,0.0,100.0
704,70.0,0,184,1.0,100.0
705,71.0,0,184,1.0,100.0
706,42.0,0,760,1.0,100.0
707,71.0,192,184,0.0,100.0
708,47.0,0,128,1.0,100.0
709,59.0,192,184,1.0,100.0
710,57.0,192,184,1.0,100.0
711,71.0,0,760,1.0,100.0
712,71.0,192,760,0.0,100.0
713,55.0,192,184,1.0,100.0
714,54.0,192,184,1.0,100.0
715,57.0,192,184,1.0,100.0
716,52.0,192,184,1.0,100.0
717,57.0,192,184,1.0,100.0
718,66.0,0,120,1.0,100.0
719,50.0,0,120,1.0,100.0
720,69.0,192,256,0.0,100.0
721,50.0,384,120,1.0,100.0
722,67.0,0,128,1.0,100.0
723,71.0,0,128,0.0,100.0
724,69.0,192,128,0.0,100.0
725,66.0,0,128,1.0,100.0
726,50.0,0,120,1.0,100.0
727,67.0,192,128,0.0,100.0
728,64.0,0,128,1.0,100.0
729,69.0,192,128,0.0,100.0
730,66.0,0,128,1.0,100.0
731,50.0,192,120,1.0,100.0
732,67.0,0,120,1.0,100.0
733,71.0,0,256,0.0,100.0
734,73.0,336,40,0.0,100.0
735,71.0,0,40,0.0,100.0
736,73.0,48,40,0.0,100.0
737,67.0,0,120,1.0,100.0
738,49.0,48,120,1.0,100.0
739,71.0,48,40,0.0,100.0
740,73.0,48,40,0.0,100.0
741,71.0,48,184,0.0,100.0
742,49.0,192,120,1.0,100.0
743,69.0,0,128,1.0,100.0
744,69.0,0,256,0.0,100.0
745,67.0,192,128,1.0,100.0
746,49.0,0,120,1.0,100.0
747,66.0,192,128,1.0,100.0
748,67.0,192,128,1.0,100.0
749,69.0,192,120,1.0,100.0
750,49.0,0,120,1.0,100.0
751,67.0,0,256,0.0,100.0
752,69.0,384,120,1.0,100.0
753,50.0,0,128,1.0,100.0
754,66.0,0,184,0.0,100.0
755,67.0,192,184,0.0,100.0
756,74.0,0,120,1.0,100.0
757,69.0,0,184,0.0,100.0
758,54.0,192,376,1.0,100.0
759,62.0,192,184,0.0,100.0
760,73.0,0,120,1.0,100.0
761,52.0,192,128,1.0,100.0
762,67.0,0,256,0.0,100.0
763,67.0,336,40,0.0,100.0
764,66.0,0,40,0.0,100.0
765,67.0,48,40,0.0,100.0
766,50.0,48,128,1.0,100.0
767,66.0,48,40,0.0,100.0
768,67.0,48,40,0.0,100.0
769,66.0,48,184,0.0,100.0
770,64.0,192,184,0.0,100.0
771,45.0,0,376,1.0,100.0
772,74.0,0,760,1.0,100.0
773,62.0,192,184,0.0,100.0
774,64.0,0,184,0.0,100.0
775,73.0,0,184,1.0,100.0
776,57.0,192,376,1.0,100.0
777,71.0,0,184,1.0,100.0
778,66.0,192,184,0.0,100.0
779,55.0,192,128,1.0,100.0
780,64.0,0,184,0.0,100.0
781,73.0,0,184,1.0,100.0
782,66.0,192,184,0.0,100.0
783,76.0,0,184,1.0,100.0
784,54.0,192,128,1.0,100.0
785,67.0,0,184,0.0,100.0
786,64.0,0,184,1.0,100.0
787,66.0,192,184,1.0,100.0
788,69.0,0,184,0.0,100.0
789,67.0,192,120,1.0,100.0
790,52.0,0,120,1.0,100.0
791,71.0,0,256,0.0,100.0
792,52.0,0,120,1.0,100.0
793,72.0,384,128,0.0,100.0
794,69.0,0,128,1.0,100.0
795,71.0,0,128,0.0,100.0
796,67.0,192,128,1.0,100.0
797,52.0,0,120,1.0,100.0
798,69.0,192,128,0.0,100.0
799,66.0,0,128,1.0,100.0
800,67.0,192,128,1.0,100.0
801,71.0,0,128,0.0,100.0
802,52.0,192,120,1.0,100.0
803,69.0,0,120,1.0,100.0
804,72.0,0,256,0.0,100.0
805,74.0,336,40,0.0,100.0
806,72.0,0,40,0.0,100.0
807,74.0,48,40,0.0,100.0
808,51.0,48,120,1.0,100.0
809,69.0,0,120,1.0,100.0
810,72.0,48,40,0.0,100.0
811,74.0,48,40,0.0,100.0
812,72.0,48,184,0.0,100.0
813,51.0,0,120,1.0,100.0
814,71.0,192,128,1.0,100.0
815,71.0,0,256,0.0,100.0
816,69.0,192,128,1.0,100.0
817,51.0,0,120,1.0,100.0
818,67.0,192,128,1.0,100.0
819,69.0,192,128,1.0,100.0
820,71.0,0,120,1.0,100.0
821,51.0,192,120,1.0,100.0
822,69.0,0,256,0.0,100.0
823,52.0,0,120,1.0,100.0
824,71.0,384,120,1.0,100.0
825,67.0,0,184,0.0,100.0
826,69.0,192,184,0.0,100.0
827,76.0,0,120,1.0,100.0
828,71.0,0,184,0.0,100.0
829,64.0,192,184,0.0,100.0
830,55.0,192,376,1.0,100.0
831,75.0,0,120,1.0,100.0
832,54.0,0,120,1.0,100.0
833,69.0,192,256,0.0,100.0
834,69.0,336,40,0.0,100.0
835,67.0,0,40,0.0,100.0
836,69.0,48,40,0.0,100.0
837,52.0,48,120,1.0,100.0
838,67.0,48,40,0.0,100.0
839,69.0,48,40,0.0,100.0
840,67.0,48,184,0.0,100.0
841,66.0,192,184,0.0,100.0
842,76.0,0,760,1.0,100.0
843,47.0,0,376,1.0,100.0
844,64.0,192,184,0.0,100.0
845,74.0,0,184,1.0,100.0
846,66.0,192,184,0.0,100.0
847,73.0,192,184,1.0,100.0
848,59.0,0,376,1.0,100.0
849,67.0,0,184,0.0,100.0
850,57.0,0,120,1.0,100.0
851,74.0,192,184,1.0,100.0
852,66.0,0,184,0.0,100.0
853,67.0,192,184,0.0,100.0
854,78.0,0,184,1.0,100.0
855,55.0,0,120,1.0,100.0
856,69.0,192,184,0.0,100.0
857,66.0,0,184,1.0,100.0
858,67.0,192,184,1.0,100.0
859,71.0,0,184,0.0,100.0
860,72.0,192,256,0.0,100.0
861,69.0,0,256,1.0,100.0
862,54.0,0,376,1.0,100.0
863,74.0,0,128,0.0,100.0
864,66.0,0,184,1.0,100.0
865,72.0,192,128,0.0,100.0
866,62.0,0,184,1.0,100.0
867,52.0,384,376,1.0,100.0
868,54.0,0,120,1.0,100.0
869,71.0,192,128,0.0,100.0
870,72.0,192,128,0.0,100.0
871,50.0,0,120,1.0,100.0
872,74.0,192,256,0.0,100.0
873,71.0,0,256,0.0,100.0
874,55.0,384,376,1.0,100.0
875,74.0,0,1144,1.0,100.0
876,76.0,384,128,0.0,100.0
877,71.0,0,184,1.0,100.0
878,74.0,192,128,0.0,100.0
879,54.0,0,376,1.0,100.0
880,67.0,0,184,1.0,100.0
881,73.0,192,128,0.0,100.0
882,74.0,192,128,0.0,100.0
883,52.0,0,376,1.0,100.0
884,76.0,192,256,0.0,100.0
885,50.0,0,376,1.0,100.0
886,79.0,0,952,1.0,100.0
887,49.0,0,376,1.0,100.0
888,76.0,192,184,1.0,100.0
889,69.0,384,568,0.0,100.0
890,78.0,0,184,1.0,100.0
891,79.0,0,184,1.0,100.0
892,74.0,144,40,1.0,100.0
893,50.0,192,376,1.0,100.0
894,67.0,0,40,0.0,100.0
895,71.0,192,184,0.0,100.0
896,73.0,0,40,1.0,100.0
897,66.0,48,40,0.0,100.0
898,67.0,0,40,0.0,100.0
899,74.0,48,40,1.0,100.0
900,57.0,0,120,1.0,100.0
901,66.0,48,40,0.0,100.0
902,73.0,0,40,1.0,100.0
903,74.0,0,40,1.0,100.0
904,67.0,48,40,0.0,100.0
905,73.0,0,40,1.0,100.0
906,74.0,48,40,1.0,100.0
907,73.0,48,40,1.0,100.0
908,66.0,48,184,0.0,100.0
909,74.0,48,40,1.0,100.0
910,45.0,48,120,1.0,100.0
911,64.0,0,184,0.0,100.0
912,73.0,0,184,1.0,100.0
913,62.0,192,184,0.0,100.0
914,74.0,0,184,1.0,100.0
915,62.0,192,120,1.0,100.0
916,74.0,0,128,1.0,100.0
917,62.0,0,256,0.0,100.0
918,81.0,192,184,1.0,100.0
919,66.0,0,128,1.0,100.0
920,86.0,0,184,1.0,100.0
921,64.0,192,128,1.0,100.0
922,85.0,0,184,1.0,100.0
923,69.0,192,376,0.0,100.0
924,62.0,0,128,1.0,100.0
925,83.0,0,184,1.0,100.0
926,64.0,192,128,1.0,100.0
927,81.0,0,184,1.0,100.0
928,74.0,192,376,0.0,100.0
929,66.0,192,120,1.0,100.0
930,80.0,0,184,1.0,100.0
931,71.0,0,376,0.0,100.0
932,81.0,192,184,1.0,100.0
933,68.0,144,40,1.0,100.0
934,66.0,48,40,1.0,100.0
935,68.0,48,40,1.0,100.0
936,66.0,48,40,1.0,100.0
937,83.0,0,184,1.0,100.0
938,68.0,48,40,1.0,100.0
939,81.0,48,184,1.0,100.0
940,68.0,0,376,0.0,100.0
941,66.0,0,184,1.0,100.0
942,64.0,0,120,1.0,100.0
943,80.0,0,184,1.0,100.0
944,71.0,192,256,0.0,100.0
945,78.0,192,184,1.0,100.0
946,76.0,192,184,1.0,100.0
947,68.0,0,256,0.0,100.0
948,74.0,192,184,1.0,100.0
949,62.0,192,120,1.0,100.0
950,73.0,0,184,1.0,100.0
951,71.0,192,184,1.0,100.0
952,69.0,192,120,1.0,100.0
953,61.0,0,184,1.0,100.0
954,64.0,0,568,0.0,100.0
955,62.0,192,184,1.0,100.0
956,71.0,0,184,0.0,100.0
957,64.0,0,184,1.0,100.0
958,73.0,0,184,0.0,100.0
959,74.0,192,184,0.0,100.0
960,57.0,0,184,1.0,100.0
961,61.0,192,120,1.0,100.0
962,66.0,0,184,0.0,100.0
963,74.0,192,184,0.0,100.0
964,61.0,144,40,1.0,100.0
965,81.0,192,760,1.0,100.0
966,59.0,0,40,1.0,100.0
967,61.0,48,40,1.0,100.0
968,59.0,48,40,1.0,100.0
969,68.0,48,184,0.0,100.0
970,61.0,48,40,1.0,100.0
971,74.0,0,184,0.0,100.0
972,59.0,48,184,1.0,100.0
973,80.0,0,376,1.0,100.0
974,57.0,192,120,1.0,100.0
975,81.0,0,120,1.0,100.0
976,73.0,0,128,0.0,100.0
977,76.0,192,184,0.0,100.0
978,84.0,0,128,1.0,100.0
979,81.0,192,184,0.0,100.0
980,54.0,0,184,1.0,100.0
981,83.0,0,128,1.0,100.0
982,55.0,0,184,1.0,100.0
983,79.0,192,184,0.0,100.0
984,81.0,0,128,1.0,100.0
985,78.0,0,184,0.0,100.0
986,83.0,192,128,1.0,100.0
987,57.0,192,376,1.0,100.0
988,76.0,0,184,0.0,100.0
989,84.0,0,120,1.0,100.0
990,54.0,0,120,1.0,100.0
991,75.0,192,184,0.0,100.0
992,86.0,144,40,1.0,100.0
993,76.0,192,184,0.0,100.0
994,84.0,0,40,1.0,100.0
995,86.0,48,40,1.0,100.0
996,84.0,48,40,1.0,100.0
997,86.0,48,40,1.0,100.0
998,78.0,48,184,0.0,100.0
999,51.0,0,376,1.0,100.0
1000,84.0,0,184,1.0,100.0
1001,76.0,48,184,0.0,100.0
1002,54.0,192,120,1.0,100.0
1003,83.0,0,120,1.0,100.0
1004,75.0,0,184,0.0,100.0
1005,73.0,192,184,0.0,100.0
1006,51.0,192,120,1.0,100.0
1007,71.0,0,184,0.0,100.0
1008,69.0,192,184,0.0,100.0
1009,47.0,0,120,1.0,100.0
1010,81.0,192,120,1.0,100.0
1011,67.0,0,184,0.0,100.0
1012,66.0,192,184,0.0,100.0
1013,79.0,0,128,1.0,100.0
1014,64.0,192,256,0.0,100.0
1015,81.0,192,128,1.0,100.0
1016,52.0,0,376,1.0,100.0
1017,83.0,192,128,1.0,100.0
1018,76.0,192,128,1.0,100.0
1019,43.0,0,376,1.0,100.0
1020,79.0,192,120,1.0,100.0
1021,45.0,0,120,1.0,100.0
1022,76.0,0,760,0.0,100.0
1023,79.0,336,40,1.0,100.0
1024,78.0,0,40,1.0,100.0
1025,79.0,48,40,1.0,100.0
1026,47.0,0,120,1.0,100.0
1027,78.0,48,40,1.0,100.0
1028,79.0,48,40,1.0,100.0
1029,75.0,48,376,0.0,100.0
1030,78.0,48,184,1.0,100.0
1031,76.0,0,128,1.0,100.0
1032,52.0,192,128,1.0,100.0
1033,76.0,0,256,0.0,100.0
1034,74.0,0,184,1.0,100.0
1035,59.0,192,184,1.0,100.0
1036,79.0,192,128,0.0,100.0
1037,73.0,0,184,1.0,100.0
1038,64.0,0,184,1.0,100.0
1039,78.0,192,128,0.0,100.0
1040,62.0,0,184,1.0,100.0
1041,74.0,0,184,1.0,100.0
1042,76.0,192,128,0.0,100.0
1043,76.0,0,184,1.0,100.0
1044,61.0,0,184,1.0,100.0
1045,78.0,192,128,0.0,100.0
1046,74.0,0,184,1.0,100.0
1047,59.0,0,184,1.0,100.0
1048,73.0,0,184,1.0,100.0
1049,58.0,0,184,1.0,100.0
1050,79.0,192,256,0.0,100.0
1051,59.0,0,184,1.0,100.0
1052,71.0,192,184,1.0,100.0
1053,81.0,144,40,0.0,100.0
1054,79.0,0,40,0.0,100.0
1055,81.0,48,40,0.0,100.0
1056,79.0,48,40,0.0,100.0
1057,81.0,48,40,0.0,100.0
1058,61.0,0,184,1.0,100.0
1059,70.0,48,256,1.0,100.0
1060,59.0,0,184,1.0,100.0
1061,79.0,48,184,0.0,100.0
1062,58.0,0,184,1.0,100.0
1063,78.0,192,256,0.0,100.0
1064,56.0,192,184,1.0,100.0
1065,73.0,0,376,1.0,100.0
1066,54.0,0,184,1.0,100.0
1067,52.0,192,184,1.0,100.0
1068,70.0,192,376,1.0,100.0
1069,50.0,192,184,1.0,100.0
1070,76.0,0,256,0.0,100.0
1071,49.0,192,184,1.0,100.0
1072,66.0,0,376,1.0,100.0
1073,71.0,0,120,1.0,100.0
1074,74.0,0,184,0.0,100.0
1075,47.0,192,376,1.0,100.0
1076,76.0,192,184,0.0,100.0
1077,78.0,0,184,0.0,100.0
1078,71.0,192,184,0.0,100.0
1079,50.0,192,376,1.0,100.0
1080,74.0,192,256,0.0,100.0
1081,52.0,0,376,1.0,100.0
1082,83.0,0,760,1.0,100.0
1083,74.0,336,40,0.0,100.0
1084,73.0,0,40,0.0,100.0
1085,74.0,48,40,0.0,100.0
1086,73.0,48,40,0.0,100.0
1087,74.0,48,40,0.0,100.0
1088,73.0,48,184,0.0,100.0
1089,54.0,48,376,1.0,100.0
1090,82.0,0,376,1.0,100.0
1091,59.0,0,120,1.0,100.0
1092,71.0,192,128,0.0,100.0
1093,83.0,0,128,1.0,100.0
1094,73.0,192,184,1.0,100.0
1095,78.0,0,184,0.0,100.0
1096,62.0,0,128,1.0,100.0
1097,71.0,192,184,1.0,100.0
1098,80.0,0,184,0.0,100.0
1099,61.0,0,128,1.0,100.0
1100,73.0,192,184,1.0,100.0
1101,81.0,0,184,0.0,100.0
1102,59.0,0,128,1.0,100.0
1103,83.0,192,184,0.0,100.0
1104,74.0,0,184,1.0,100.0
1105,61.0,0,128,1.0,100.0
1106,73.0,0,184,1.0,100.0
1107,81.0,192,184,0.0,100.0
1108,62.0,0,120,1.0,100.0
1109,80.0,0,184,0.0,100.0
1110,71.0,192,184,1.0,100.0
1111,78.0,192,184,0.0,100.0
1112,69.0,0,184,1.0,100.0
1113,68.0,192,184,1.0,100.0
1114,76.0,0,184,0.0,100.0
1115,62.0,0,376,1.0,100.0
1116,74.0,192,184,0.0,100.0
1117,66.0,0,184,1.0,100.0
1118,68.0,192,184,1.0,100.0
1119,76.0,0,184,0.0,100.0
1120,69.0,192,184,1.0,100.0
1121,78.0,0,184,0.0,100.0
1122,61.0,0,376,1.0,100.0
1123,80.0,0,184,0.0,100.0
1124,71.0,0,184,1.0,100.0
1125,59.0,192,376,1.0,100.0
1126,81.0,192,184,0.0,100.0
1127,73.0,0,184,1.0,100.0
1128,78.0,192,184,0.0,100.0
1129,69.0,0,184,1.0,100.0
1130,71.0,192,184,1.0,100.0
1131,80.0,0,184,0.0,100.0
1132,62.0,0,376,1.0,100.0
1133,61.0,192,120,1.0,100.0
1134,73.0,0,128,1.0,100.0
1135,81.0,0,128,0.0,100.0
1136,71.0,0,184,1.0,100.0
1137,80.0,192,184,0.0,100.0
1138,64.0,192,128,1.0,100.0
1139,81.0,0,184,0.0,100.0
1140,73.0,0,184,1.0,100.0
1141,62.0,192,128,1.0,100.0
1142,83.0,0,184,0.0,100.0
1143,74.0,0,184,1.0,100.0
1144,61.0,0,128,1.0,100.0
1145,85.0,192,184,0.0,100.0
1146,76.0,0,184,1.0,100.0
1147,62.0,0,128,1.0,100.0
1148,83.0,0,184,0.0,100.0
1149,74.0,192,184,1.0,100.0
1150,64.0,0,120,1.0,100.0
1151,73.0,0,184,1.0,100.0
1152,82.0,192,184,0.0,100.0
1153,80.0,192,184,0.0,100.0
1154,71.0,0,184,1.0,100.0
1155,70.0,0,184,1.0,100.0
1156,78.0,0,184,0.0,100.0
1157,64.0,192,376,1.0,100.0
1158,68.0,0,184,1.0,100.0
1159,76.0,192,184,0.0,100.0
1160,70.0,0,184,1.0,100.0
1161,78.0,0,184,0.0,100.0
1162,80.0,192,184,0.0,100.0
1163,71.0,0,184,1.0,100.0
1164,62.0,192,376,1.0,100.0
1165,73.0,192,184,1.0,100.0
1166,82.0,0,184,0.0,100.0
1167,83.0,192,184,0.0,100.0
1168,74.0,0,184,1.0,100.0
1169,61.0,0,376,1.0,100.0
1170,71.0,192,184,1.0,100.0
1171,80.0,0,184,0.0,100.0
1172,82.0,0,184,0.0,100.0
1173,64.0,0,376,1.0,100.0
1174,73.0,192,184,1.0,100.0
1175,62.0,192,120,1.0,100.0
1176,83.0,0,128,0.0,100.0
1177,74.0,0,128,1.0,100.0
1178,73.0,192,184,1.0,100.0
1179,82.0,0,184,0.0,100.0
1180,66.0,0,128,1.0,100.0
1181,83.0,192,184,0.0,100.0
1182,74.0,0,184,1.0,100.0
1183,64.0,0,128,1.0,100.0
1184,76.0,0,184,1.0,100.0
1185,85.0,192,184,0.0,100.0
1186,62.0,0,128,1.0,100.0
1187,78.0,192,184,1.0,100.0
1188,86.0,0,184,0.0,100.0
1189,64.0,0,128,1.0,100.0
1190,85.0,0,184,0.0,100.0
1191,76.0,192,184,1.0,100.0
1192,66.0,192,120,1.0,100.0
1193,74.0,0,184,1.0,100.0
1194,83.0,0,184,0.0,100.0
1195,81.0,192,184,0.0,100.0
1196,73.0,0,184,1.0,100.0
1197,71.0,0,184,1.0,100.0
1198,80.0,0,184,0.0,100.0
1199,66.0,192,376,1.0,100.0
1200,69.0,192,184,1.0,100.0
1201,78.0,0,184,0.0,100.0
1202,80.0,192,184,0.0,100.0
1203,71.0,0,184,1.0,100.0
1204,64.0,0,376,1.0,100.0
1205,81.0,0,184,0.0,100.0
1206,73.0,192,184,1.0,100.0
1207,74.0,0,184,1.0,100.0
1208,83.0,0,256,0.0,100.0
1209,73.0,192,184,1.0,100.0
1210,62.0,192,376,1.0,100.0
1211,71.0,0,184,1.0,100.0
1212,69.0,192,184,1.0,100.0
1213,66.0,0,376,1.0,100.0
1214,64.0,0,120,1.0,100.0
1215,68.0,192,184,1.0,100.0
1216,74.0,192,568,0.0,100.0
1217,73.0,192,184,0.0,100.0
1218,66.0,0,184,1.0,100.0
1219,71.0,192,184,0.0,100.0
1220,68.0,0,184,1.0,100.0
1221,62.0,0,184,1.0,100.0
1222,69.0,0,184,1.0,100.0
1223,61.0,0,184,1.0,100.0
1224,73.0,192,184,0.0,100.0
1225,59.0,192,120,1.0,100.0
1226,71.0,0,184,1.0,100.0
1227,69.0,192,184,1.0,100.0
1228,57.0,192,120,1.0,100.0
1229,68.0,0,184,1.0,100.0
1230,66.0,192,184,1.0,100.0
1231,74.0,0,896,0.0,100.0
1232,56.0,0,184,1.0,100.0
1233,57.0,0,184,1.0,100.0
1234,73.0,192,184,0.0,100.0
1235,56.0,192,184,1.0,100.0
1236,71.0,0,184,0.0,100.0
1237,73.0,192,184,0.0,99.0
1238,54.0,0,184,1.0,100.0
1239,74.0,192,184,0.0,99.0
1240,52.0,0,184,1.0,100.0
1241,50.0,192,184,1.0,100.0
1242,78.0,0,184,0.0,100.0
1243,49.0,192,184,1.0,100.0
1244,76.0,0,184,0.0,86.0
1245,47.0,0,184,1.0,100.0
1246,74.0,192,184,0.0,71.0
1247,45.0,0,120,1.0,100.0
1248,73.0,192,256,0.0,70.0
1249,64.0,192,1912,1.0,100.0
1250,45.0,0,120,1.0,100.0
1251,74.0,384,128,0.0,70.0
1252,66.0,0,128,1.0,100.0
1253,64.0,192,128,1.0,100.0
1254,73.0,0,128,0.0,70.0
1255,45.0,0,120,1.0,100.0
1256,71.0,0,128,0.0,70.0
1257,62.0,192,128,1.0,100.0
1258,64.0,0,128,1.0,100.0
1259,73.0,192,128,0.0,70.0
1260,45.0,192,120,1.0,100.0
1261,74.0,0,120,0.0,70.0
1262,66.0,0,128,1.0,100.0
1263,68.0,336,40,1.0,100.0
1264,66.0,0,40,1.0,100.0
1265,68.0,48,40,1.0,100.0
1266,44.0,0,120,1.0,100.0
1267,66.0,48,40,1.0,100.0
1268,68.0,48,40,1.0,100.0
1269,74.0,48,256,0.0,70.0
1270,66.0,48,184,1.0,100.0
1271,44.0,0,120,1.0,100.0
1272,64.0,192,120,1.0,100.0
1273,76.0,0,128,0.0,70.0
1274,74.0,192,128,0.0,70.0
1275,44.0,0,120,1.0,100.0
1276,73.0,192,128,0.0,70.0
1277,74.0,192,128,0.0,70.0
1278,76.0,0,120,0.0,70.0
1279,44.0,0,120,1.0,100.0
1280,62.0,192,120,1.0,100.0
1281,45.0,384,120,1.0,100.0
1282,61.0,0,184,1.0,100.0
1283,76.0,0,256,0.0,70.0
1284,62.0,192,184,1.0,100.0
1285,64.0,0,184,1.0,100.0
1286,81.0,0,256,0.0,70.0
1287,49.0,192,376,1.0,100.0
1288,57.0,192,184,1.0,100.0
1289,47.0,0,120,1.0,100.0
1290,62.0,0,120,1.0,100.0
1291,80.0,192,256,0.0,70.0
1292,61.0,0,120,1.0,100.0
1293,45.0,384,120,1.0,100.0
1294,59.0,384,184,1.0,100.0
1295,81.0,0,640,0.0,70.0
1296,40.0,0,376,1.0,100.0
1297,57.0,192,184,1.0,100.0
1298,80.0,0,184,0.0,70.0
1299,59.0,0,184,1.0,100.0
1300,61.0,0,184,1.0,100.0
1301,78.0,192,184,0.0,70.0
1302,52.0,192,376,1.0,100.0
1303,50.0,0,120,1.0,100.0
1304,80.0,0,184,0.0,70.0
1305,59.0,192,184,1.0,100.0
1306,61.0,0,184,1.0,100.0
1307,83.0,192,184,0.0,70.0
1308,49.0,192,120,1.0,100.0
1309,71.0,0,184,0.0,70.0
1310,62.0,0,184,1.0,100.0
1311,73.0,192,184,0.0,70.0
1312,64.0,0,184,1.0,100.0
1313,66.0,0,120,1.0,100.0
1314,47.0,0,120,1.0,100.0
1315,74.0,192,256,0.0,70.0
1316,47.0,0,120,1.0,100.0
1317,67.0,384,128,1.0,100.0
1318,76.0,0,128,0.0,70.0
1319,66.0,0,128,1.0,100.0
1320,74.0,192,128,0.0,70.0
1321,47.0,192,120,1.0,100.0
1322,64.0,0,128,1.0,100.0
1323,73.0,0,128,0.0,70.0
1324,66.0,0,128,1.0,100.0
1325,74.0,192,128,0.0,70.0
1326,47.0,0,120,1.0,100.0
1327,76.0,192,120,0.0,70.0
1328,67.0,0,120,1.0,100.0
1329,69.0,336,40,1.0,100.0
1330,67.0,48,40,1.0,100.0
1331,69.0,48,40,1.0,100.0
1332,46.0,0,120,1.0,100.0
1333,67.0,48,40,1.0,100.0
1334,69.0,48,40,1.0,100.0
1335,76.0,0,256,0.0,70.0
1336,67.0,48,184,1.0,100.0
1337,46.0,192,120,1.0,100.0
1338,66.0,0,120,1.0,100.0
1339,78.0,0,128,0.0,70.0
1340,76.0,192,128,0.0,70.0
1341,46.0,192,120,1.0,100.0
1342,74.0,0,128,0.0,70.0
1343,76.0,192,128,0.0,70.0
1344,78.0,0,120,0.0,70.0
1345,64.0,192,120,1.0,100.0
1346,46.0,0,120,1.0,100.0
1347,47.0,0,120,1.0,100.0
1348,62.0,0,184,1.0,100.0
1349,78.0,384,256,0.0,70.0
1350,64.0,192,184,1.0,100.0
1351,66.0,192,184,1.0,100.0
1352,83.0,0,256,0.0,70.0
1353,59.0,192,184,1.0,100.0
1354,50.0,0,376,1.0,100.0
1355,49.0,0,120,1.0,100.0
1356,64.0,0,120,1.0,100.0
1357,82.0,192,256,0.0,70.0
1358,62.0,0,120,1.0,100.0
1359,47.0,384,120,1.0,100.0
1360,61.0,384,184,1.0,100.0
1361,83.0,0,640,0.0,70.0
1362,59.0,192,184,1.0,100.0
1363,42.0,0,376,1.0,100.0
1364,61.0,192,184,1.0,100.0
1365,81.0,0,184,0.0,70.0
1366,62.0,0,184,1.0,100.0
1367,54.0,0,376,1.0,100.0
1368,80.0,192,184,0.0,70.0
1369,52.0,192,120,1.0,100.0
1370,61.0,0,184,1.0,100.0
1371,81.0,0,184,0.0,70.0
1372,62.0,192,184,1.0,100.0
1373,85.0,0,184,0.0,70.0
1374,50.0,0,120,1.0,100.0
1375,64.0,0,184,1.0,100.0
1376,73.0,192,184,0.0,70.0
1377,66.0,192,184,1.0,100.0
1378,74.0,0,184,0.0,70.0
1379,67.0,0,120,1.0,100.0
1380,76.0,192,256,0.0,70.0
1381,49.0,0,376,1.0,100.0
1382,69.0,384,128,1.0,100.0
1383,73.0,0,184,0.0,70.0
1384,67.0,192,128,1.0,100.0
1385,47.0,0,376,1.0,100.0
1386,69.0,0,184,0.0,70.0
1387,49.0,192,120,1.0,100.0
1388,66.0,0,128,1.0,100.0
1389,67.0,192,128,1.0,100.0
1390,69.0,0,120,1.0,100.0
1391,45.0,192,120,1.0,100.0
1392,66.0,0,120,1.0,100.0
1393,81.0,0,1024,0.0,70.0
1394,50.0,384,376,1.0,100.0
1395,71.0,0,128,1.0,100.0
1396,78.0,0,184,0.0,70.0
1397,69.0,192,128,1.0,100.0
1398,74.0,0,184,0.0,70.0
1399,49.0,384,376,1.0,100.0
1400,68.0,0,128,1.0,100.0
1401,69.0,192,128,1.0,100.0
1402,47.0,0,376,1.0,100.0
1403,71.0,0,120,1.0,100.0
1404,45.0,192,376,1.0,100.0
1405,86.0,192,896,0.0,70.0
1406,83.0,192,184,0.0,70.0
1407,44.0,384,376,1.0,100.0
1408,85.0,0,184,0.0,70.0
1409,64.0,0,568,1.0,100.0
1410,81.0,0,40,0.0,70.0
1411,86.0,192,184,0.0,70.0
1412,45.0,192,376,1.0,100.0
1413,61.0,144,40,1.0,100.0
1414,66.0,0,184,1.0,100.0
1415,80.0,0,40,0.0,70.0
1416,59.0,48,40,1.0,100.0
1417,61.0,48,40,1.0,100.0
1418,81.0,0,40,0.0,70.0
1419,52.0,0,120,1.0,100.0
1420,59.0,48,40,1.0,100.0
1421,80.0,0,40,0.0,70.0
1422,81.0,48,40,0.0,70.0
1423,61.0,0,40,1.0,100.0
1424,59.0,48,40,1.0,100.0
1425,80.0,0,40,0.0,70.0
1426,81.0,0,40,0.0,70.0
1427,61.0,48,40,1.0,100.0
1428,80.0,48,40,0.0,70.0
1429,59.0,0,40,1.0,100.0
1430,81.0,0,40,0.0,70.0
1431,61.0,48,40,1.0,100.0
1432,40.0,0,120,1.0,100.0
1433,80.0,48,184,0.0,70.0
1434,59.0,0,184,1.0,100.0
1435,81.0,0,184,0.0,70.0
1436,57.0,192,184,1.0,100.0
1437,57.0,0,128,1.0,100.0
1438,45.0,192,256,1.0,100.0
1439,61.0,192,184,1.0,100.0
1440,59.0,0,184,1.0,100.0
1441,57.0,192,184,1.0,100.0
1442,45.0,192,376,1.0,100.0
1443,62.0,192,184,1.0,100.0
1444,47.0,0,376,1.0,100.0
1445,57.0,192,184,1.0,100.0
1446,64.0,0,184,1.0,100.0
1447,49.0,192,376,1.0,100.0
1448,57.0,192,184,1.0,100.0
1449,66.0,0,184,1.0,100.0
1450,57.0,192,184,1.0,100.0
1451,50.0,192,376,1.0,100.0
1452,64.0,0,184,1.0,100.0
1453,49.0,192,376,1.0,100.0
1454,57.0,192,184,1.0,100.0
1455,62.0,192,184,1.0,100.0
1456,47.0,0,376,1.0,100.0
1457,57.0,192,184,1.0,100.0
1458,66.0,192,184,1.0,100.0
1459,57.0,192,184,1.0,100.0
1460,50.0,0,376,1.0,100.0
1461,64.0,192,184,1.0,100.0
1462,57.0,192,184,1.0,100.0
1463,49.0,0,376,1.0,100.0
1464,62.0,192,184,1.0,100.0
1465,57.0,192,184,1.0,100.0
1466,47.0,0,376,1.0,100.0
1467,61.0,0,184,1.0,100.0
1468,45.0,192,376,1.0,100.0
1469,57.0,192,184,1.0,100.0
1470,64.0,0,184,1.0,100.0
1471,49.0,192,376,1.0,100.0
1472,57.0,192,184,1.0,100.0
1473,81.0,0,4728,0.0,70.0
1474,62.0,0,128,1.0,100.0
1475,66.0,192,184,1.0,100.0
1476,47.0,192,376,1.0,100.0
1477,64.0,0,184,1.0,100.0
1478,69.0,0,256,0.0,85.0
1479,62.0,192,184,1.0,100.0
1480,49.0,192,376,1.0,100.0
1481,68.0,0,184,1.0,100.0
1482,62.0,192,184,1.0,100.0
1483,47.0,192,376,1.0,100.0
1484,69.0,192,184,1.0,100.0
1485,45.0,0,376,1.0,100.0
1486,62.0,192,184,1.0,100.0
1487,74.0,0,896,0.0,100.0
1488,44.0,0,376,1.0,100.0
1489,71.0,192,184,0.0,100.0
1490,73.0,192,184,0.0,100.0
1491,56.0,0,376,1.0,100.0
1492,74.0,192,184,0.0,100.0
1493,52.0,0,120,1.0,100.0
1494,68.0,192,184,0.0,100.0
1495,74.0,192,184,0.0,100.0
1496,56.0,192,120,1.0,100.0
1497,64.0,0,184,0.0,100.0
1498,74.0,192,184,0.0,100.0
1499,71.0,192,1664,1.0,100.0
1500,57.0,192,184,1.0,100.0
1501,59.0,0,184,1.0,100.0
1502,76.0,192,184,1.0,100.0
1503,57.0,192,184,1.0,100.0
1504,78.0,0,184,1.0,100.0
1505,56.0,192,184,1.0,100.0
1506,80.0,0,184,1.0,100.0
1507,73.0,0,896,0.0,100.0
1508,54.0,0,184,1.0,100.0
1509,57.0,192,184,1.0,100.0
1510,78.0,0,184,0.0,100.0
1511,51.0,192,184,1.0,100.0
1512,80.0,0,184,0.0,100.0
1513,54.0,192,184,1.0,100.0
1514,81.0,0,184,0.0,100.0
1515,81.0,192,896,1.0,100.0
1516,56.0,0,184,1.0,100.0
1517,75.0,0,184,1.0,100.0
1518,57.0,192,184,1.0,100.0
1519,77.0,0,184,1.0,100.0
1520,56.0,192,184,1.0,100.0
1521,78.0,0,184,1.0,100.0
1522,54.0,192,184,1.0,100.0
1523,83.0,192,896,0.0,100.0
1524,53.0,192,184,1.0,100.0
1525,77.0,0,184,0.0,100.0
1526,56.0,192,184,1.0,100.0
1527,49.0,192,184,1.0,100.0
1528,78.0,0,184,0.0,100.0
1529,80.0,0,184,0.0,100.0
1530,53.0,192,184,1.0,100.0
1531,80.0,0,896,1.0,100.0
1532,54.0,0,184,1.0,100.0
1533,56.0,0,184,1.0,100.0
1534,83.0,192,184,1.0,100.0
1535,81.0,192,184,1.0,100.0
1536,54.0,0,184,1.0,100.0
1537,80.0,0,184,1.0,100.0
1538,52.0,192,184,1.0,100.0
1539,50.0,192,184,1.0,100.0
1540,78.0,0,184,1.0,100.0
1541,81.0,192,1024,0.0,100.0
1542,77.0,0,184,1.0,100.0
1543,54.0,192,184,1.0,100.0
1544,47.0,0,184,1.0,100.0
1545,78.0,192,184,1.0,100.0
1546,80.0,192,184,1.0,100.0
1547,50.0,0,184,1.0,100.0
1548,49.0,192,184,1.0,100.0
1549,86.0,0,640,0.0,100.0
1550,50.0,192,184,1.0,100.0
1551,49.0,0,184,1.0,100.0
1552,80.0,192,256,0.0,100.0
1553,47.0,192,184,1.0,100.0
1554,77.0,0,760,1.0,100.0
1555,45.0,192,184,1.0,100.0
1556,85.0,0,256,0.0,100.0
1557,49.0,192,184,1.0,100.0
1558,44.0,0,184,1.0,100.0
1559,83.0,192,256,0.0,100.0
1560,49.0,192,184,1.0,100.0
1561,73.0,192,120,1.0,100.0
1562,81.0,0,184,0.0,100.0
1563,80.0,192,184,0.0,100.0
1564,74.0,192,128,1.0,100.0
1565,83.0,0,184,0.0,100.0
1566,73.0,192,128,1.0,100.0
1567,42.0,0,760,1.0,100.0
1568,81.0,0,184,0.0,100.0
1569,71.0,0,128,1.0,100.0
1570,80.0,192,184,0.0,100.0
1571,73.0,0,128,1.0,100.0
1572,78.0,192,184,0.0,100.0
1573,74.0,192,120,1.0,100.0
1574,77.0,0,184,0.0,100.0
1575,54.0,0,760,1.0,100.0
1576,78.0,192,184,0.0,100.0
1577,76.0,144,40,1.0,100.0
1578,74.0,0,40,1.0,100.0
1579,76.0,48,40,1.0,100.0
1580,74.0,48,40,1.0,100.0
1581,80.0,48,184,0.0,100.0
1582,76.0,48,40,1.0,100.0
1583,53.0,0,376,1.0,100.0
1584,74.0,48,184,1.0,100.0
1585,78.0,0,184,0.0,100.0
1586,73.0,0,120,1.0,100.0
1587,77.0,192,184,0.0,100.0
1588,56.0,0,376,1.0,100.0
1589,75.0,192,184,0.0,100.0
1590,53.0,192,376,1.0,100.0
1591,73.0,0,376,0.0,100.0
1592,71.0,0,120,1.0,100.0
1593,49.0,384,376,1.0,100.0
1594,69.0,0,184,1.0,100.0
1595,54.0,384,256,1.0,100.0
1596,71.0,192,184,1.0,100.0
1597,73.0,192,184,1.0,100.0
1598,66.0,192,184,1.0,100.0
1599,45.0,0,376,1.0,100.0
1600,69.0,0,120,1.0,100.0
1601,47.0,192,376,1.0,100.0
1602,69.0,336,40,1.0,100.0
1603,68.0,0,40,1.0,100.0
1604,69.0,48,40,1.0,100.0
1605,68.0,48,40,1.0,100.0
1606,69.0,48,40,1.0,100.0
1607,49.0,48,376,1.0,100.0
1608,68.0,48,184,1.0,100.0
1609,54.0,192,128,1.0,100.0
1610,73.0,0,256,0.0,100.0
1611,66.0,0,256,1.0,100.0
1612,56.0,192,184,1.0,100.0
1613,74.0,192,128,0.0,100.0
1614,59.0,0,184,1.0,100.0
1615,68.0,0,184,1.0,100.0
1616,73.0,192,128,0.0,100.0
1617,69.0,0,184,1.0,100.0
1618,57.0,0,184,1.0,100.0
1619,71.0,192,128,0.0,100.0
1620,56.0,0,184,1.0,100.0
1621,71.0,0,184,1.0,100.0
1622,73.0,192,128,0.0,100.0
1623,54.0,0,184,1.0,100.0
1624,69.0,0,184,1.0,100.0
1625,68.0,0,184,1.0,100.0
1626,53.0,0,184,1.0,100.0
1627,74.0,192,256,0.0,100.0
1628,54.0,192,184,1.0,100.0
1629,66.0,0,184,1.0,100.0
1630,76.0,144,40,0.0,100.0
1631,74.0,0,40,0.0,100.0
1632,76.0,48,40,0.0,100.0
1633,74.0,48,40,0.0,100.0
1634,56.0,0,184,1.0,100.0
1635,76.0,48,40,0.0,100.0
1636,65.0,48,256,1.0,100.0
1637,74.0,0,184,0.0,100.0
1638,54.0,48,184,1.0,100.0
1639,53.0,0,184,1.0,100.0
1640,73.0,192,256,0.0,100.0
1641,51.0,192,184,1.0,100.0
1642,68.0,0,376,1.0,100.0
1643,49.0,0,184,1.0,100.0
1644,47.0,192,184,1.0,100.0
1645,65.0,192,376,1.0,100.0
1646,45.0,192,184,1.0,100.0
1647,71.0,0,256,0.0,100.0
1648,61.0,0,376,1.0,100.0
1649,44.0,192,184,1.0,100.0
1650,66.0,0,120,1.0,100.0
1651,69.0,0,184,0.0,100.0
1652,42.0,192,256,1.0,100.0
1653,71.0,192,184,0.0,100.0
1654,73.0,0,184,0.0,100.0
1655,66.0,192,184,0.0,100.0
1656,45.0,192,376,1.0,100.0
1657,69.0,0,256,0.0,100.0
1658,69.0,336,40,0.0,100.0
1659,78.0,0,760,1.0,100.0
1660,47.0,192,376,1.0,100.0
1661,68.0,0,40,0.0,100.0
1662,69.0,48,40,0.0,100.0
1663,68.0,48,40,0.0,100.0
1664,69.0,48,40,0.0,100.0
1665,77.0,0,376,1.0,100.0
1666,49.0,48,376,1.0,100.0
1667,68.0,48,184,0.0,100.0
1668,80.0,0,56,1.0,100.0
1669,66.0,0,120,0.0,100.0
1670,78.0,64,56,1.0,100.0
1671,54.0,192,128,1.0,100.0
1672,80.0,64,56,1.0,100.0
1673,78.0,64,56,1.0,100.0
1674,80.0,64,56,1.0,100.0
1675,78.0,64,56,1.0,100.0
1676,57.0,0,184,1.0,100.0
1677,80.0,0,56,1.0,100.0
1678,78.0,64,56,1.0,100.0
1679,80.0,64,56,1.0,100.0
1680,56.0,64,184,1.0,100.0
1681,78.0,64,56,1.0,100.0
1682,80.0,64,56,1.0,100.0
1683,73.0,0,320,0.0,100.0
1684,78.0,64,56,1.0,100.0
1685,54.0,0,184,1.0,100.0
1686,80.0,0,56,1.0,100.0
1687,78.0,64,56,1.0,100.0
1688,59.0,64,184,1.0,100.0
1689,74.0,0,184,0.0,100.0
1690,80.0,64,56,1.0,100.0
1691,78.0,0,56,1.0,100.0
1692,80.0,64,56,1.0,100.0
1693,54.0,0,184,1.0,100.0
1694,73.0,64,184,0.0,100.0
1695,78.0,64,56,1.0,100.0
1696,80.0,0,56,1.0,100.0
1697,78.0,64,56,1.0,100.0
1698,80.0,64,56,1.0,100.0
1699,61.0,64,184,1.0,100.0
1700,71.0,0,184,0.0,100.0
1701,78.0,0,56,1.0,100.0
1702,80.0,64,56,1.0,100.0
1703,78.0,64,56,1.0,100.0
1704,54.0,64,184,1.0,100.0
1705,70.0,0,184,0.0,100.0
1706,80.0,64,56,1.0,100.0
1707,78.0,64,56,1.0,100.0
1708,80.0,64,56,1.0,100.0
1709,62.0,0,184,1.0,100.0
1710,78.0,64,56,1.0,100.0
1711,80.0,64,56,1.0,100.0
1712,54.0,0,184,1.0,100.0
1713,78.0,64,56,1.0,100.0
1714,80.0,64,56,1.0,100.0
1715,78.0,64,56,1.0,100.0
1716,71.0,0,520,0.0,100.0
1717,61.0,0,184,1.0,100.0
1718,80.0,64,56,1.0,100.0
1719,78.0,0,56,1.0,100.0
1720,80.0,64,56,1.0,100.0
1721,78.0,64,128,0.0,100.0
1722,54.0,0,184,1.0,100.0
1723,78.0,64,56,1.0,100.0
1724,80.0,0,56,1.0,100.0
1725,78.0,64,56,1.0,100.0
1726,78.0,0,184,0.0,100.0
1727,80.0,64,56,1.0,100.0
1728,59.0,64,184,1.0,100.0
1729,78.0,0,56,1.0,100.0
1730,80.0,64,56,1.0,100.0
1731,54.0,0,184,1.0,100.0
1732,78.0,64,56,1.0,100.0
1733,77.0,64,184,0.0,100.0
1734,80.0,64,56,1.0,100.0
1735,78.0,64,56,1.0,100.0
1736,78.0,0,184,0.0,100.0
1737,62.0,0,184,1.0,100.0
1738,80.0,64,56,1.0,100.0
1739,78.0,0,56,1.0,100.0
1740,80.0,64,56,1.0,100.0
1741,78.0,64,56,1.0,100.0
1742,80.0,64,184,0.0,100.0
1743,54.0,0,184,1.0,100.0
1744,80.0,0,56,1.0,100.0
1745,78.0,64,56,1.0,100.0
1746,80.0,64,56,1.0,100.0
1747,61.0,64,184,1.0,100.0
1748,71.0,0,184,0.0,100.0
1749,78.0,0,56,1.0,100.0
1750,80.0,64,56,1.0,100.0
1751,78.0,64,56,1.0,100.0
1752,54.0,64,184,1.0,100.0
1753,80.0,64,56,1.0,100.0
1754,78.0,64,56,1.0,100.0
1755,69.0,0,320,0.0,100.0
1756,59.0,0,184,1.0,100.0
1757,80.0,64,56,1.0,100.0
1758,78.0,0,56,1.0,100.0
1759,80.0,64,56,1.0,100.0
1760,78.0,0,128,0.0,100.0
1761,78.0,64,56,1.0,100.0
1762,54.0,64,184,1.0,100.0
1763,80.0,64,56,1.0,100.0
1764,78.0,64,56,1.0,100.0
1765,80.0,64,56,1.0,100.0
1766,57.0,0,184,1.0,100.0
1767,78.0,0,184,0.0,100.0
1768,78.0,0,56,1.0,100.0
1769,80.0,64,56,1.0,100.0
1770,77.0,0,184,0.0,100.0
1771,78.0,64,56,1.0,100.0
1772,54.0,64,184,1.0,100.0
1773,80.0,64,56,1.0,100.0
1774,78.0,64,56,1.0,100.0
1775,61.0,0,184,1.0,100.0
1776,80.0,64,56,1.0,100.0
1777,78.0,0,184,0.0,100.0
1778,78.0,0,88,1.0,100.0
1779,80.0,96,88,1.0,100.0
1780,80.0,0,184,0.0,100.0
1781,54.0,64,184,1.0,100.0
1782,59.0,0,128,1.0,100.0
1783,69.0,0,184,0.0,100.0
1784,78.0,96,184,1.0,100.0
1785,56.0,0,184,1.0,100.0
1786,76.0,192,184,1.0,100.0
1787,68.0,0,320,0.0,100.0
1788,74.0,0,184,1.0,100.0
1789,57.0,192,184,1.0,100.0
1790,59.0,0,184,1.0,100.0
1791,69.0,192,184,0.0,100.0
1792,73.0,0,184,1.0,100.0
1793,53.0,0,184,1.0,100.0
1794,71.0,0,184,0.0,100.0
1795,74.0,0,184,0.0,100.0
1796,59.0,192,184,1.0,100.0
1797,73.0,192,184,0.0,100.0
1798,56.0,0,184,1.0,100.0
1799,59.0,192,184,1.0,100.0
1800,71.0,0,184,0.0,100.0
1801,49.0,0,128,1.0,100.0
1802,56.0,192,184,1.0,100.0
1803,74.0,192,1144,1.0,100.0
1804,73.0,0,184,1.0,100.0
1805,53.0,192,184,1.0,100.0
1806,71.0,0,184,1.0,100.0
1807,77.0,192,760,0.0,100.0
1808,56.0,192,184,1.0,100.0
1809,45.0,0,128,1.0,100.0
1810,73.0,192,184,1.0,100.0
1811,71.0,0,184,1.0,100.0
1812,53.0,192,184,1.0,100.0
1813,77.0,0,120,0.0,100.0
1814,69.0,0,184,1.0,100.0
1815,49.0,192,184,1.0,100.0
1816,68.0,0,184,1.0,100.0
1817,53.0,192,184,1.0,100.0
1818,42.0,0,376,1.0,100.0
1819,78.0,0,520,0.0,100.0
1820,69.0,192,568,1.0,100.0
1821,71.0,0,184,1.0,100.0
1822,69.0,0,40,1.0,100.0
1823,80.0,192,184,0.0,100.0
1824,78.0,144,40,0.0,100.0
1825,47.0,384,376,1.0,100.0
1826,77.0,0,40,0.0,100.0
1827,68.0,48,40,1.0,100.0
1828,78.0,48,40,0.0,100.0
1829,69.0,0,40,1.0,100.0
1830,49.0,0,120,1.0,100.0
1831,77.0,0,40,0.0,100.0
1832,68.0,48,40,1.0,100.0
1833,69.0,0,40,1.0,100.0
1834,78.0,48,40,0.0,100.0
1835,68.0,0,40,1.0,100.0
1836,77.0,48,40,0.0,100.0
1837,69.0,0,40,1.0,100.0
1838,78.0,48,40,0.0,100.0
1839,68.0,0,40,1.0,100.0
1840,77.0,48,40,0.0,100.0
1841,78.0,0,40,0.0,100.0
1842,69.0,48,40,1.0,100.0
1843,37.0,48,120,1.0,100.0
1844,68.0,0,184,1.0,100.0
1845,77.0,0,184,0.0,100.0
1846,66.0,192,184,1.0,100.0
1847,78.0,0,184,0.0,100.0
1848,42.0,0,256,1.0,100.0
1849,54.0,384,184,1.0,100.0
1850,66.0,192,760,1.0,100.0
1851,78.0,0,760,0.0,100.0
1852,55.0,192,184,1.0,100.0
1853,54.0,192,184,1.0,100.0
1854,52.0,192,184,1.0,100.0
1855,50.0,192,184,1.0,100.0
1856,49.0,192,184,1.0,100.0
1857,78.0,0,256,0.0,100.0
1858,47.0,192,512,1.0,100.0
1859,79.0,384,128,0.0,100.0
1860,78.0,192,128,0.0,100.0
1861,62.0,0,760,1.0,70.0
1862,76.0,0,128,0.0,100.0
1863,78.0,192,128,0.0,100.0
1864,67.0,0,376,1.0,70.0
1865,79.0,192,128,0.0,100.0
1866,59.0,192,760,1.0,100.0
1867,71.0,0,1528,1.0,70.0
1868,64.0,0,376,1.0,70.0
1869,81.0,336,40,0.0,100.0
1870,79.0,0,40,0.0,100.0
1871,81.0,48,40,0.0,100.0
1872,79.0,48,40,0.0,100.0
1873,81.0,48,40,0.0,100.0
1874,58.0,0,376,1.0,100.0
1875,79.0,48,184,0.0,100.0
1876,73.0,0,376,1.0,70.0
1877,78.0,0,256,0.0,100.0
1878,61.0,192,376,1.0,100.0
1879,70.0,0,376,1.0,70.0
1880,58.0,384,376,1.0,100.0
1881,66.0,0,376,1.0,70.0
1882,64.0,48,1144,1.0,70.0
1883,76.0,0,256,0.0,100.0
1884,70.0,0,376,1.0,70.0
1885,54.0,0,376,1.0,100.0
1886,74.0,0,184,0.0,100.0
1887,59.0,0,256,1.0,100.0
1888,76.0,192,184,0.0,100.0
1889,73.0,384,760,1.0,70.0
1890,78.0,192,184,0.0,100.0
1891,71.0,192,184,0.0,100.0
1892,50.0,0,376,1.0,100.0
1893,66.0,384,760,1.0,70.0
1894,74.0,192,256,0.0,100.0
1895,74.0,336,40,0.0,100.0
1896,71.0,0,760,1.0,70.0
1897,52.0,0,376,1.0,100.0
1898,73.0,0,40,0.0,100.0
1899,74.0,48,40,0.0,100.0
1900,73.0,48,40,0.0,100.0
1901,74.0,48,40,0.0,100.0
1902,64.0,0,760,1.0,70.0
1903,70.0,0,376,1.0,70.0
1904,54.0,48,376,1.0,100.0
1905,73.0,48,184,0.0,100.0
1906,71.0,0,128,0.0,100.0
1907,47.0,0,256,1.0,100.0
1908,74.0,192,184,0.0,100.0
1909,71.0,0,376,1.0,70.0
1910,73.0,192,184,0.0,100.0
1911,71.0,192,184,0.0,100.0
1912,59.0,0,376,1.0,100.0
1913,78.0,192,184,0.0,100.0
1914,57.0,0,376,1.0,100.0
1915,62.0,192,1144,1.0,70.0
1916,66.0,0,760,1.0,70.0
1917,71.0,192,184,0.0,100.0
1918,80.0,0,184,0.0,100.0
1919,56.0,192,376,1.0,100.0
1920,71.0,192,184,0.0,100.0
1921,65.0,0,376,1.0,70.0
1922,73.0,0,120,1.0,100.0
1923,81.0,192,184,0.0,100.0
1924,80.0,192,184,0.0,100.0
1925,54.0,0,512,1.0,100.0
1926,74.0,192,128,1.0,100.0
1927,83.0,0,184,0.0,100.0
1928,73.0,192,128,1.0,100.0
1929,81.0,0,184,0.0,100.0
1930,71.0,0,128,1.0,100.0
1931,80.0,192,184,0.0,100.0
1932,73.0,0,128,1.0,100.0
1933,78.0,192,184,0.0,100.0
1934,74.0,0,120,1.0,100.0
1935,77.0,192,184,0.0,100.0
1936,76.0,144,40,1.0,100.0
1937,66.0,0,760,1.0,100.0
1938,78.0,192,184,0.0,100.0
1939,74.0,48,40,1.0,100.0
1940,76.0,48,40,1.0,100.0
1941,74.0,48,40,1.0,100.0
1942,76.0,48,40,1.0,100.0
1943,80.0,0,184,0.0,100.0
1944,65.0,0,376,1.0,100.0
1945,74.0,48,184,1.0,100.0
1946,78.0,0,184,0.0,100.0
1947,73.0,192,120,1.0,100.0
1948,77.0,0,184,0.0,100.0
1949,75.0,192,184,0.0,100.0
1950,68.0,0,376,1.0,100.0
1951,73.0,0,184,0.0,100.0
1952,71.0,192,184,0.0,100.0
1953,65.0,192,376,1.0,100.0
1954,71.0,0,120,1.0,100.0
1955,69.0,0,184,0.0,100.0
1956,61.0,192,376,1.0,100.0
1957,68.0,192,184,0.0,100.0
1958,69.0,0,184,1.0,100.0
1959,66.0,192,256,0.0,100.0
1960,66.0,0,256,1.0,100.0
1961,71.0,192,184,1.0,100.0
1962,73.0,0,184,1.0,100.0
1963,66.0,192,184,1.0,100.0
1964,57.0,0,376,1.0,100.0
1965,69.0,0,120,1.0,100.0
1966,59.0,192,376,1.0,100.0
1967,78.0,192,760,0.0,100.0
1968,69.0,336,40,1.0,100.0
1969,68.0,0,40,1.0,100.0
1970,69.0,48,40,1.0,100.0
1971,68.0,48,40,1.0,100.0
1972,69.0,48,40,1.0,100.0
1973,77.0,0,376,0.0,100.0
1974,68.0,48,184,1.0,100.0
1975,61.0,48,376,1.0,100.0
1976,66.0,0,128,1.0,100.0
1977,69.0,192,184,1.0,100.0
1978,68.0,192,184,1.0,100.0
1979,54.0,192,760,1.0,100.0
1980,66.0,192,184,1.0,100.0
1981,73.0,192,184,1.0,100.0
1982,66.0,192,184,1.0,100.0
1983,59.0,0,128,1.0,100.0
1984,75.0,192,184,1.0,100.0
1985,66.0,192,184,1.0,100.0
1986,81.0,0,1528,0.0,100.0
1987,64.0,0,128,1.0,100.0
1988,67.0,192,184,1.0,100.0
1989,66.0,192,184,1.0,100.0
1990,52.0,192,760,1.0,100.0
1991,64.0,192,184,1.0,100.0
1992,71.0,192,184,1.0,100.0
1993,64.0,192,184,1.0,100.0
1994,57.0,192,128,1.0,100.0
1995,73.0,0,184,1.0,100.0
1996,64.0,192,184,1.0,100.0
1997,79.0,0,1528,0.0,100.0
1998,78.0,0,128,0.0,100.0
1999,50.0,192,376,1.0,100.0
2000,74.0,192,184,0.0,100.0
2001,47.0,0,128,1.0,100.0
2002,76.0,192,184,0.0,100.0
2003,78.0,192,184,0.0,100.0
2004,44.0,192,128,1.0,100.0
2005,71.0,0,184,0.0,100.0
2006,78.0,192,184,0.0,100.0
2007,47.0,0,128,1.0,100.0
2008,68.0,192,184,0.0,100.0
2009,78.0,192,184,0.0,100.0
2010,76.0,0,128,0.0,100.0
2011,74.0,0,1720,1.0,100.0
2012,49.0,192,376,1.0,100.0
2013,73.0,0,184,0.0,100.0
2014,76.0,192,184,1.0,100.0
2015,46.0,192,128,1.0,100.0
2016,78.0,0,184,1.0,100.0
2017,74.0,0,184,0.0,100.0
2018,76.0,0,184,0.0,100.0
2019,79.0,192,184,1.0,100.0
2020,42.0,0,128,1.0,100.0
2021,70.0,0,184,0.0,100.0
2022,76.0,192,184,0.0,100.0
2023,46.0,0,128,1.0,100.0
2024,66.0,192,184,0.0,100.0
2025,76.0,192,184,0.0,100.0
2026,47.0,0,120,1.0,100.0
2027,73.0,192,952,1.0,100.0
2028,74.0,192,376,0.0,100.0
2029,71.0,192,184,1.0,100.0
2030,55.0,0,128,1.0,100.0
2031,76.0,192,184,1.0,100.0
2032,71.0,0,256,0.0,100.0
2033,54.0,0,128,1.0,100.0
2034,74.0,192,184,1.0,100.0
2035,52.0,0,128,1.0,100.0
2036,73.0,0,184,1.0,100.0
2037,54.0,0,128,1.0,100.0
2038,79.0,192,376,0.0,100.0
2039,71.0,192,184,1.0,100.0
2040,55.0,192,56,1.0,100.0
2041,70.0,0,184,1.0,100.0
2042,57.0,144,40,1.0,100.0
2043,71.0,192,184,1.0,100.0
2044,76.0,0,376,0.0,100.0
2045,55.0,0,40,1.0,100.0
2046,57.0,48,40,1.0,100.0
2047,55.0,48,40,1.0,100.0
2048,57.0,48,40,1.0,100.0
2049,73.0,48,184,1.0,100.0
2050,71.0,0,184,1.0,100.0
2051,82.0,0,376,0.0,100.0
2052,55.0,48,184,1.0,100.0
2053,54.0,192,120,1.0,100.0
2054,70.0,0,184,1.0,100.0
2055,85.0,0,256,0.0,100.0
2056,68.0,192,184,1.0,100.0
2057,66.0,192,184,1.0,100.0
2058,82.0,0,256,0.0,100.0
2059,64.0,192,184,1.0,100.0
2060,52.0,0,120,1.0,100.0
2061,62.0,0,184,1.0,100.0
2062,61.0,192,184,1.0,100.0
2063,78.0,192,480,0.0,100.0
2064,50.0,192,184,1.0,100.0
2065,59.0,0,256,1.0,100.0
2066,73.0,192,184,0.0,100.0
2067,52.0,0,184,1.0,100.0
2068,74.0,0,184,0.0,100.0
2069,54.0,192,184,1.0,100.0
2070,76.0,0,184,0.0,100.0
2071,47.0,192,184,1.0,100.0
2072,50.0,0,120,1.0,100.0
2073,68.0,192,184,0.0,100.0
2074,50.0,144,40,1.0,100.0
2075,76.0,192,184,0.0,100.0
2076,71.0,0,760,1.0,100.0
2077,49.0,0,40,1.0,100.0
2078,50.0,48,40,1.0,100.0
2079,49.0,48,40,1.0,100.0
2080,70.0,0,184,0.0,100.0
2081,50.0,48,40,1.0,100.0
2082,70.0,48,256,1.0,100.0
2083,76.0,48,184,0.0,100.0
2084,49.0,0,184,1.0,100.0
2085,71.0,0,120,1.0,100.0
2086,47.0,0,128,1.0,100.0
2087,50.0,192,184,1.0,100.0
2088,66.0,0,120,1.0,100.0
2089,49.0,192,184,1.0,100.0
2090,47.0,192,184,1.0,100.0
2091,74.0,192,760,0.0,100.0
2092,54.0,192,184,1.0,100.0
2093,47.0,192,184,1.0,100.0
2094,56.0,0,184,1.0,100.0
2095,83.0,192,256,0.0,100.0
2096,47.0,192,184,1.0,100.0
2097,76.0,192,184,0.0,100.0
2098,57.0,0,256,1.0,100.0
2099,73.0,192,184,0.0,100.0
2100,74.0,0,1144,1.0,100.0
2101,71.0,192,184,0.0,100.0
2102,64.0,0,376,1.0,100.0
2103,69.0,192,184,0.0,100.0
2104,45.0,0,376,1.0,100.0
2105,76.0,192,184,0.0,100.0
2106,69.0,192,184,0.0,100.0
2107,73.0,0,376,1.0,100.0
2108,43.0,0,376,1.0,100.0
2109,78.0,0,184,0.0,100.0
2110,69.0,192,184,0.0,100.0
2111,42.0,0,376,1.0,100.0
2112,75.0,192,376,1.0,100.0
2113,64.0,0,128,1.0,100.0
2114,79.0,192,256,0.0,100.0
2115,40.0,0,256,1.0,100.0
2116,67.0,192,184,1.0,100.0
2117,66.0,0,184,1.0,100.0
2118,71.0,192,256,0.0,100.0
2119,64.0,192,184,1.0,100.0
2120,47.0,0,376,1.0,100.0
2121,71.0,192,184,1.0,100.0
2122,64.0,192,184,1.0,100.0
2123,43.0,0,376,1.0,100.0
2124,73.0,192,184,1.0,100.0
2125,79.0,0,640,0.0,100.0
2126,40.0,0,376,1.0,100.0
2127,64.0,192,184,1.0,100.0
2128,74.0,0,120,1.0,100.0
2129,78.0,0,184,0.0,100.0
2130,47.0,192,256,1.0,100.0
2131,74.0,192,184,0.0,100.0
2132,66.0,192,120,1.0,100.0
2133,73.0,0,184,0.0,100.0
2134,71.0,192,184,0.0,100.0
2135,54.0,0,376,1.0,100.0
2136,78.0,192,184,0.0,100.0
2137,71.0,192,184,0.0,100.0
2138,50.0,0,376,1.0,100.0
2139,80.0,192,184,0.0,100.0
2140,74.0,0,760,1.0,100.0
2141,71.0,192,184,0.0,100.0
2142,47.0,0,376,1.0,100.0
2143,73.0,0,128,1.0,100.0
2144,42.0,192,256,1.0,100.0
2145,69.0,192,184,1.0,100.0
2146,71.0,192,184,1.0,100.0
2147,54.0,0,376,1.0,100.0
2148,73.0,192,184,1.0,100.0
2149,66.0,0,184,1.0,100.0
2150,73.0,192,184,1.0,100.0
2151,51.0,192,376,1.0,100.0
2152,63.0,192,184,1.0,100.0
2153,73.0,192,184,1.0,100.0
2154,54.0,0,376,1.0,100.0
2155,81.0,0,1664,0.0,100.0
2156,71.0,192,128,1.0,100.0
2157,44.0,0,256,1.0,100.0
2158,68.0,192,184,1.0,100.0
2159,83.0,0,184,0.0,100.0
2160,69.0,0,184,1.0,100.0
2161,85.0,0,184,0.0,100.0
2162,71.0,0,184,1.0,100.0
2163,53.0,192,376,1.0,100.0
2164,86.0,192,184,0.0,100.0
2165,65.0,192,184,1.0,100.0
2166,71.0,192,184,1.0,100.0
2167,49.0,0,376,1.0,100.0
2168,53.0,0,120,1.0,100.0
2169,61.0,192,184,1.0,100.0
2170,71.0,192,184,1.0,100.0
2171,69.0,192,120,1.0,100.0
2172,42.0,0,120,1.0,100.0
2173,80.0,0,896,0.0,100.0
2174,78.0,192,184,0.0,100.0
2175,66.0,192,120,1.0,100.0
2176,50.0,0,128,1.0,100.0
2177,83.0,0,184,0.0,100.0
2178,49.0,192,128,1.0,100.0
2179,81.0,0,184,0.0,100.0
2180,47.0,0,128,1.0,100.0
2181,80.0,192,184,0.0,100.0
2182,49.0,192,128,1.0,100.0
2183,78.0,0,184,0.0,100.0
2184,50.0,192,56,1.0,100.0
2185,77.0,0,184,0.0,100.0
2186,52.0,144,40,1.0,100.0
2187,78.0,0,760,1.0,100.0
2188,78.0,192,184,0.0,100.0
2189,50.0,0,40,1.0,100.0
2190,52.0,48,40,1.0,100.0
2191,50.0,48,40,1.0,100.0
2192,80.0,48,184,0.0,100.0
2193,52.0,48,40,1.0,100.0
2194,77.0,0,256,1.0,100.0
2195,50.0,0,184,1.0,100.0
2196,78.0,48,184,0.0,100.0
2197,49.0,192,120,1.0,100.0
2198,77.0,0,184,0.0,100.0
2199,75.0,192,184,0.0,100.0
2200,80.0,0,376,1.0,100.0
2201,73.0,192,184,0.0,100.0
2202,77.0,0,376,1.0,100.0
2203,71.0,192,184,0.0,100.0
2204,47.0,192,120,1.0,100.0
2205,69.0,0,184,0.0,100.0
2206,68.0,192,184,0.0,100.0
2207,73.0,0,376,1.0,100.0
2208,66.0,0,184,1.0,100.0
2209,45.0,0,184,1.0,100.0
2210,66.0,192,256,0.0,100.0
2211,68.0,0,184,1.0,100.0
2212,47.0,192,184,1.0,100.0
2213,49.0,0,184,1.0,100.0
2214,69.0,0,184,1.0,100.0
2215,71.0,0,184,1.0,100.0
2216,42.0,192,184,1.0,100.0
2217,45.0,0,120,1.0,100.0
2218,73.0,192,184,1.0,100.0
2219,78.0,192,760,0.0,100.0
2220,78.0,192,184,1.0,100.0
2221,71.0,0,184,1.0,100.0
2222,80.0,192,184,1.0,100.0
2223,44.0,0,376,1.0,100.0
2224,77.0,192,376,0.0,100.0
2225,81.0,0,128,1.0,100.0
2226,42.0,0,184,1.0,100.0
2227,78.0,192,256,0.0,100.0
2228,54.0,0,184,1.0,100.0
2229,69.0,192,184,1.0,100.0
2230,71.0,0,184,1.0,100.0
2231,56.0,192,184,1.0,100.0
2232,73.0,0,256,0.0,100.0
2233,73.0,192,184,1.0,100.0
2234,57.0,0,184,1.0,100.0
2235,66.0,192,184,1.0,100.0
2236,51.0,0,184,1.0,100.0
2237,73.0,0,184,1.0,100.0
2238,57.0,192,184,1.0,100.0
2239,47.0,192,184,1.0,100.0
2240,63.0,0,184,1.0,100.0
2241,66.0,192,184,1.0,100.0
2242,57.0,0,184,1.0,100.0
2243,71.0,0,128,1.0,100.0
2244,55.0,192,184,1.0,100.0
2245,78.0,0,1024,0.0,100.0
2246,67.0,192,184,1.0,100.0
2247,52.0,0,184,1.0,100.0
2248,69.0,0,184,1.0,100.0
2249,54.0,192,184,1.0,100.0
2250,71.0,0,256,0.0,100.0
2251,71.0,0,184,1.0,100.0
2252,55.0,192,184,1.0,100.0
2253,64.0,192,184,1.0,100.0
2254,49.0,0,184,1.0,100.0
2255,55.0,192,184,1.0,100.0
2256,69.0,0,184,1.0,100.0
2257,45.0,0,184,1.0,100.0
2258,61.0,192,184,1.0,100.0
2259,55.0,192,184,1.0,100.0
2260,64.0,0,184,1.0,100.0
2261,76.0,0,896,0.0,100.0
2262,69.0,0,128,1.0,100.0
2263,54.0,192,256,1.0,100.0
2264,74.0,192,184,1.0,100.0
2265,78.0,0,184,0.0,100.0
2266,76.0,192,184,1.0,100.0
2267,79.0,0,184,0.0,100.0
2268,59.0,0,376,1.0,100.0
2269,78.0,192,184,1.0,100.0
2270,81.0,0,184,0.0,100.0
2271,71.0,0,184,1.0,100.0
2272,56.0,0,376,1.0,100.0
2273,78.0,192,184,1.0,100.0
2274,68.0,0,184,1.0,100.0
2275,78.0,192,184,1.0,100.0
2276,59.0,192,376,1.0,100.0
2277,76.0,0,128,1.0,100.0
2278,74.0,192,896,0.0,100.0
2279,76.0,0,184,0.0,100.0
2280,61.0,192,376,1.0,100.0
2281,73.0,192,184,1.0,100.0
2282,78.0,0,184,0.0,100.0
2283,74.0,192,184,1.0,100.0
2284,58.0,0,376,1.0,100.0
2285,79.0,192,184,0.0,100.0
2286,76.0,0,184,1.0,100.0
2287,70.0,0,184,1.0,100.0
2288,76.0,192,184,1.0,100.0
2289,73.0,192,376,0.0,100.0
2290,54.0,0,376,1.0,100.0
2291,66.0,0,184,1.0,100.0
2292,76.0,192,184,1.0,100.0
2293,58.0,192,376,1.0,100.0
2294,59.0,0,128,1.0,100.0
2295,78.0,192,256,0.0,100.0
2296,74.0,0,320,1.0,100.0
2297,61.0,192,184,1.0,100.0
2298,79.0,0,128,0.0,100.0
2299,73.0,192,184,1.0,100.0
2300,64.0,0,184,1.0,100.0
2301,78.0,192,128,0.0,100.0
2302,62.0,0,184,1.0,100.0
2303,74.0,0,184,1.0,100.0
2304,76.0,0,128,0.0,100.0
2305,76.0,0,184,1.0,100.0
2306,61.0,192,184,1.0,100.0
2307,78.0,0,128,0.0,100.0
2308,74.0,192,184,1.0,100.0
2309,59.0,0,184,1.0,100.0
2310,58.0,0,184,1.0,100.0
2311,73.0,0,184,1.0,100.0
2312,79.0,192,256,0.0,100.0
2313,81.0,144,40,0.0,100.0
2314,59.0,192,184,1.0,100.0
2315,71.0,0,184,1.0,100.0
2316,79.0,0,40,0.0,100.0
2317,81.0,48,40,0.0,100.0
2318,70.0,48,120,1.0,100.0
2319,79.0,48,40,0.0,100.0
2320,81.0,48,40,0.0,100.0
2321,61.0,0,184,1.0,100.0
2322,79.0,0,184,0.0,100.0
2323,59.0,48,184,1.0,100.0
2324,58.0,192,184,1.0,100.0
2325,78.0,0,256,0.0,100.0
2326,73.0,0,376,1.0,100.0
2327,56.0,192,184,1.0,100.0
2328,54.0,192,184,1.0,100.0
2329,70.0,0,376,1.0,100.0
2330,52.0,192,184,1.0,100.0
2331,50.0,0,184,1.0,100.0
2332,76.0,0,256,0.0,100.0
2333,49.0,192,184,1.0,100.0
2334,66.0,192,376,1.0,100.0
2335,71.0,0,120,1.0,100.0
2336,74.0,192,184,0.0,100.0
2337,76.0,192,184,0.0,100.0
2338,47.0,0,376,1.0,100.0
2339,78.0,0,184,0.0,100.0
2340,50.0,192,376,1.0,100.0
2341,71.0,192,184,0.0,100.0
2342,74.0,0,256,0.0,100.0
2343,83.0,0,760,1.0,100.0
2344,52.0,192,376,1.0,100.0
2345,74.0,336,40,0.0,100.0
2346,73.0,0,40,0.0,100.0
2347,74.0,48,40,0.0,100.0
2348,73.0,48,40,0.0,100.0
2349,74.0,48,40,0.0,100.0
2350,73.0,48,184,0.0,100.0
2351,82.0,48,376,1.0,100.0
2352,54.0,0,376,1.0,100.0
2353,85.0,0,56,1.0,100.0
2354,83.0,64,56,1.0,100.0
2355,71.0,0,128,0.0,100.0
2356,85.0,64,56,1.0,100.0
2357,83.0,64,56,1.0,100.0
2358,85.0,64,56,1.0,100.0
2359,83.0,64,56,1.0,100.0
2360,74.0,0,184,0.0,100.0
2361,55.0,192,376,1.0,100.0
2362,85.0,0,56,1.0,100.0
2363,83.0,64,56,1.0,100.0
2364,85.0,64,56,1.0,100.0
2365,73.0,0,184,0.0,100.0
2366,83.0,0,56,1.0,100.0
2367,85.0,64,56,1.0,100.0
2368,71.0,64,184,0.0,100.0
2369,57.0,64,376,1.0,100.0
2370,83.0,64,56,1.0,100.0
2371,85.0,0,56,1.0,100.0
2372,83.0,64,56,1.0,100.0
2373,85.0,64,56,1.0,100.0
2374,76.0,0,184,0.0,100.0
2375,83.0,64,56,1.0,100.0
2376,85.0,64,56,1.0,100.0
2377,71.0,0,184,0.0,100.0
2378,55.0,64,376,1.0,100.0
2379,83.0,64,56,1.0,100.0
2380,85.0,0,56,1.0,100.0
2381,83.0,64,56,1.0,100.0
2382,78.0,64,184,0.0,100.0
2383,85.0,64,56,1.0,100.0
2384,83.0,64,56,1.0,100.0
2385,85.0,64,56,1.0,100.0
2386,83.0,64,56,1.0,100.0
2387,71.0,0,184,0.0,100.0
2388,54.0,0,376,1.0,100.0
2389,85.0,0,56,1.0,100.0
2390,83.0,64,56,1.0,100.0
2391,79.0,64,184,0.0,100.0
2392,85.0,64,56,1.0,100.0
2393,83.0,0,56,1.0,100.0
2394,85.0,64,56,1.0,100.0
2395,52.0,0,376,1.0,100.0
2396,83.0,64,56,1.0,100.0
2397,71.0,64,184,0.0,100.0
2398,85.0,0,56,1.0,100.0
2399,83.0,64,56,1.0,100.0
2400,85.0,64,56,1.0,100.0
2401,78.0,0,184,0.0,100.0
2402,83.0,64,56,1.0,100.0
2403,85.0,64,56,1.0,100.0
2404,71.0,0,184,0.0,100.0
2405,50.0,64,376,1.0,100.0
2406,83.0,64,56,1.0,100.0
2407,85.0,64,56,1.0,100.0
2408,83.0,64,56,1.0,100.0
2409,76.0,0,184,0.0,100.0
2410,85.0,64,56,1.0,100.0
2411,83.0,64,56,1.0,100.0
2412,85.0,64,56,1.0,100.0
2413,83.0,64,56,1.0,100.0
2414,71.0,0,184,0.0,100.0
2415,49.0,0,376,1.0,100.0
2416,85.0,0,56,1.0,100.0
2417,83.0,64,56,1.0,100.0
2418,85.0,64,56,1.0,100.0
2419,79.0,0,184,0.0,100.0
2420,83.0,64,56,1.0,100.0
2421,85.0,64,56,1.0,100.0
2422,71.0,0,184,0.0,100.0
2423,83.0,64,56,1.0,100.0
2424,52.0,64,376,1.0,100.0
2425,85.0,0,56,1.0,100.0
2426,83.0,64,56,1.0,100.0
2427,78.0,64,184,0.0,100.0
2428,85.0,64,56,1.0,100.0
2429,83.0,0,56,1.0,100.0
2430,85.0,64,56,1.0,100.0
2431,50.0,0,376,1.0,100.0
2432,83.0,64,56,1.0,100.0
2433,71.0,64,184,0.0,100.0
2434,85.0,64,56,1.0,100.0
2435,83.0,64,56,1.0,100.0
2436,85.0,64,56,1.0,100.0
2437,76.0,0,184,0.0,100.0
2438,83.0,64,56,1.0,100.0
2439,85.0,64,56,1.0,100.0
2440,71.0,0,184,0.0,100.0
2441,49.0,0,376,1.0,100.0
2442,83.0,64,56,1.0,100.0
2443,85.0,0,56,1.0,100.0
2444,83.0,64,56,1.0,100.0
2445,74.0,64,184,0.0,100.0
2446,85.0,64,56,1.0,100.0
2447,83.0,0,56,1.0,100.0
2448,85.0,64,56,1.0,100.0
2449,47.0,0,376,1.0,100.0
2450,83.0,64,56,1.0,100.0
2451,71.0,64,184,0.0,100.0
2452,85.0,0,56,1.0,100.0
2453,83.0,64,56,1.0,100.0
2454,85.0,64,56,1.0,100.0
2455,78.0,0,184,0.0,100.0
2456,83.0,0,88,1.0,100.0
2457,71.0,64,184,0.0,100.0
2458,50.0,64,376,1.0,100.0
2459,85.0,96,88,1.0,100.0
2460,83.0,0,120,1.0,100.0
2461,76.0,0,128,0.0,100.0
2462,79.0,192,184,0.0,100.0
2463,49.0,96,376,1.0,100.0
2464,71.0,192,120,1.0,100.0
2465,78.0,0,184,0.0,100.0
2466,76.0,192,184,0.0,100.0
2467,50.0,0,376,1.0,100.0
2468,82.0,192,184,0.0,100.0
2469,49.0,0,376,1.0,100.0
2470,76.0,192,184,0.0,100.0
2471,83.0,192,184,0.0,100.0
2472,76.0,192,184,0.0,100.0
2473,47.0,0,376,1.0,100.0
2474,76.0,0,952,1.0,100.0
2475,46.0,192,256,1.0,100.0
2476,73.0,192,184,1.0,100.0
2477,74.0,192,184,1.0,100.0
2478,76.0,192,184,1.0,100.0
2479,58.0,0,376,1.0,100.0
2480,70.0,192,184,1.0,100.0
2481,76.0,192,184,1.0,100.0
2482,54.0,0,376,1.0,100.0
2483,66.0,192,184,1.0,100.0
2484,76.0,192,184,1.0,100.0
2485,58.0,0,376,1.0,100.0
2486,59.0,0,128,1.0,100.0
2487,85.0,0,1792,0.0,100.0
2488,61.0,192,184,1.0,100.0
2489,59.0,0,184,1.0,100.0
2490,78.0,192,256,0.0,100.0
2491,57.0,192,184,1.0,100.0
2492,55.0,192,184,1.0,100.0
2493,83.0,0,256,0.0,100.0
2494,74.0,192,1144,1.0,100.0
2495,59.0,192,184,1.0,100.0
2496,54.0,0,184,1.0,100.0
2497,81.0,192,256,0.0,100.0
2498,59.0,192,184,1.0,100.0
2499,75.0,0,376,1.0,100.0
2500,52.0,0,128,1.0,100.0
2501,76.0,192,184,1.0,100.0
2502,79.0,0,256,0.0,100.0
2503,74.0,192,184,1.0,100.0
2504,54.0,0,184,1.0,100.0
2505,73.0,0,184,1.0,100.0
2506,52.0,192,184,1.0,100.0
2507,78.0,0,256,0.0,100.0
2508,50.0,192,184,1.0,100.0
2509,71.0,0,184,1.0,100.0
2510,70.0,0,184,1.0,100.0
2511,49.0,192,184,1.0,100.0
2512,52.0,192,184,1.0,100.0
2513,79.0,0,184,1.0,100.0
2514,47.0,192,184,1.0,100.0
2515,71.0,0,184,1.0,100.0
2516,79.0,0,184,1.0,100.0
2517,52.0,192,184,1.0,100.0
2518,76.0,0,896,0.0,100.0
2519,73.0,0,128,1.0,100.0
2520,79.0,192,184,0.0,100.0
2521,76.0,0,184,1.0,100.0
2522,46.0,192,376,1.0,100.0
2523,78.0,0,184,0.0,100.0
2524,74.0,0,184,1.0,100.0
2525,42.0,192,376,1.0,100.0
2526,73.0,0,184,1.0,100.0
2527,76.0,192,184,0.0,100.0
2528,71.0,192,120,1.0,100.0
2529,47.0,0,120,1.0,100.0
2530,74.0,0,184,0.0,100.0
2531,71.0,192,184,0.0,100.0
2532,43.0,192,120,1.0,100.0
2533,76.0,0,184,0.0,100.0
2534,83.0,0,184,1.0,100.0
2535,71.0,192,184,0.0,100.0
2536,82.0,0,184,1.0,100.0
2537,83.0,0,128,1.0,100.0
2538,78.0,192,184,0.0,100.0
2539,71.0,192,184,0.0,100.0
2540,38.0,0,376,1.0,100.0
2541,74.0,0,184,1.0,100.0
2542,73.0,192,184,1.0,100.0
2543,79.0,0,256,0.0,100.0
2544,40.0,0,376,1.0,100.0
2545,76.0,0,40,0.0,100.0
2546,71.0,144,40,1.0,100.0
2547,70.0,0,40,1.0,100.0
2548,74.0,0,40,0.0,100.0
2549,76.0,0,40,0.0,100.0
2550,71.0,48,40,1.0,100.0
2551,70.0,0,40,1.0,100.0
2552,74.0,48,40,0.0,100.0
2553,71.0,0,40,1.0,100.0
2554,76.0,48,40,0.0,100.0
2555,70.0,48,40,1.0,100.0
2556,71.0,48,40,1.0,100.0
2557,70.0,48,40,1.0,100.0
2558,71.0,48,40,1.0,100.0
2559,74.0,0,184,0.0,100.0
2560,70.0,48,184,1.0,100.0
2561,73.0,0,184,0.0,100.0
2562,42.0,48,760,1.0,100.0
2563,71.0,192,184,0.0,100.0
2564,71.0,0,184,1.0,100.0
2565,47.0,0,760,1.0,100.0
2566,35.0,0,760,1.0,100.0
2567,71.0,0,760,1.0,100.0
2568,71.0,0,760,0.0,100.0
2569,35.0,192,1856,2.0,1.0
