,note,step,duration,channel,velocity
0,69.0,0,21,4.0,62.0
1,72.0,0,21,3.0,62.0
2,77.0,0,21,2.0,62.0
3,53.0,0,84,5.0,62.0
4,53.0,0,84,11.0,49.0
5,41.0,0,84,12.0,101.0
6,53.0,0,84,13.0,49.0
7,41.0,0,84,13.0,49.0
8,53.0,0,42,1.0,127.0
9,60.0,0,42,8.0,75.0
10,57.0,0,42,10.0,75.0
11,65.0,0,42,6.0,75.0
12,65.0,48,42,7.0,75.0
13,70.0,0,21,3.0,62.0
14,67.0,24,21,4.0,62.0
15,76.0,0,21,2.0,62.0
16,77.0,0,21,2.0,62.0
17,72.0,0,21,3.0,62.0
18,69.0,24,21,4.0,62.0
19,57.0,0,42,1.0,127.0
20,69.0,0,42,6.0,75.0
21,69.0,0,42,7.0,75.0
22,65.0,0,42,8.0,75.0
23,60.0,0,42,10.0,75.0
24,67.0,24,21,4.0,62.0
25,70.0,0,21,3.0,62.0
26,76.0,0,21,2.0,62.0
27,77.0,0,21,2.0,62.0
28,72.0,0,21,3.0,62.0
29,69.0,24,21,4.0,62.0
30,48.0,0,42,11.0,49.0
31,72.0,0,42,7.0,75.0
32,36.0,0,42,12.0,101.0
33,48.0,0,42,5.0,62.0
34,64.0,0,42,13.0,49.0
35,48.0,0,42,13.0,49.0
36,72.0,0,42,6.0,75.0
37,64.0,0,42,10.0,75.0
38,67.0,0,42,13.0,49.0
39,67.0,0,42,8.0,75.0
40,60.0,0,42,1.0,127.0
41,67.0,0,21,4.0,62.0
42,70.0,0,21,3.0,62.0
43,76.0,24,21,2.0,62.0
44,65.0,0,21,4.0,62.0
45,69.0,0,21,3.0,62.0
46,65.0,0,42,13.0,49.0
47,50.0,0,42,11.0,49.0
48,38.0,0,42,12.0,101.0
49,69.0,0,42,13.0,49.0
50,50.0,0,42,13.0,49.0
51,77.0,0,42,7.0,75.0
52,57.0,0,42,10.0,75.0
53,65.0,0,42,8.0,75.0
54,50.0,24,42,5.0,62.0
55,77.0,0,42,2.0,62.0
56,77.0,0,42,6.0,75.0
57,65.0,0,42,1.0,127.0
58,67.0,0,21,3.0,62.0
59,64.0,24,21,4.0,62.0
60,69.0,0,21,8.0,75.0
61,65.0,0,21,10.0,75.0
62,69.0,0,21,3.0,62.0
63,65.0,0,21,4.0,62.0
64,45.0,0,42,13.0,49.0
65,65.0,0,42,13.0,49.0
66,45.0,0,42,5.0,62.0
67,60.0,0,42,13.0,49.0
68,60.0,0,42,1.0,127.0
69,33.0,0,42,12.0,101.0
70,72.0,0,42,2.0,62.0
71,72.0,24,42,7.0,75.0
72,45.0,0,42,11.0,49.0
73,72.0,0,42,6.0,75.0
74,64.0,0,21,4.0,62.0
75,67.0,24,21,3.0,62.0
76,67.0,0,21,8.0,75.0
77,64.0,0,21,10.0,75.0
78,69.0,0,21,8.0,75.0
79,57.0,0,21,1.0,127.0
80,69.0,0,21,3.0,62.0
81,62.0,0,42,13.0,49.0
82,67.0,24,42,13.0,49.0
83,46.0,0,42,13.0,49.0
84,62.0,0,42,10.0,75.0
85,46.0,0,42,11.0,49.0
86,62.0,0,42,4.0,62.0
87,74.0,0,42,2.0,62.0
88,34.0,0,42,12.0,101.0
89,46.0,0,42,5.0,62.0
90,74.0,0,42,6.0,75.0
91,74.0,0,42,7.0,75.0
92,53.0,0,21,1.0,127.0
93,67.0,24,21,8.0,75.0
94,67.0,0,21,3.0,62.0
95,69.0,0,21,8.0,75.0
96,69.0,0,21,3.0,62.0
97,72.0,24,21,6.0,75.0
98,72.0,0,21,7.0,75.0
99,72.0,0,21,2.0,62.0
100,48.0,0,42,13.0,49.0
101,36.0,0,42,12.0,101.0
102,67.0,0,42,13.0,49.0
103,64.0,0,42,13.0,49.0
104,48.0,0,42,5.0,62.0
105,64.0,0,42,10.0,75.0
106,60.0,0,42,1.0,127.0
107,48.0,0,42,11.0,49.0
108,64.0,0,42,4.0,62.0
109,70.0,24,21,2.0,62.0
110,67.0,0,21,3.0,62.0
111,70.0,0,21,6.0,75.0
112,67.0,0,21,8.0,75.0
113,70.0,0,21,7.0,75.0
114,69.0,0,21,6.0,75.0
115,69.0,0,21,7.0,75.0
116,69.0,0,21,2.0,62.0
117,60.0,24,28,1.0,127.0
118,29.0,0,42,12.0,101.0
119,41.0,0,42,5.0,62.0
120,65.0,0,42,3.0,62.0
121,65.0,0,42,8.0,75.0
122,60.0,0,42,10.0,75.0
123,60.0,0,42,4.0,62.0
124,60.0,0,42,13.0,49.0
125,69.0,0,42,13.0,49.0
126,41.0,0,42,13.0,49.0
127,41.0,0,42,11.0,49.0
128,67.0,0,21,6.0,75.0
129,67.0,0,21,2.0,62.0
130,67.0,24,21,7.0,75.0
131,60.0,7,29,1.0,127.0
132,53.0,0,21,11.0,49.0
133,53.0,0,21,13.0,49.0
134,65.0,0,21,2.0,62.0
135,65.0,0,21,6.0,75.0
136,69.0,0,21,3.0,62.0
137,65.0,0,21,7.0,75.0
138,53.0,0,21,5.0,62.0
139,41.0,0,21,12.0,101.0
140,60.0,0,42,4.0,62.0
141,60.0,0,42,0.0,127.0
142,69.0,17,42,13.0,49.0
143,57.0,0,42,10.0,75.0
144,60.0,0,42,13.0,49.0
145,60.0,0,42,8.0,75.0
146,60.0,15,28,1.0,127.0
147,52.0,0,21,13.0,49.0
148,52.0,0,21,5.0,62.0
149,67.0,0,21,7.0,75.0
150,52.0,9,21,11.0,49.0
151,67.0,0,21,6.0,75.0
152,67.0,0,21,2.0,62.0
153,67.0,0,21,3.0,62.0
154,40.0,0,21,12.0,101.0
155,69.0,0,21,6.0,75.0
156,65.0,0,21,3.0,62.0
157,41.0,0,21,12.0,101.0
158,65.0,0,21,8.0,75.0
159,53.0,24,21,11.0,49.0
160,53.0,0,21,13.0,49.0
161,69.0,0,21,7.0,75.0
162,69.0,0,21,2.0,62.0
163,53.0,0,21,5.0,62.0
164,60.0,0,28,1.0,127.0
165,60.0,0,42,4.0,62.0
166,69.0,0,42,13.0,49.0
167,65.0,0,42,0.0,127.0
168,60.0,0,42,13.0,49.0
169,60.0,0,42,10.0,75.0
170,52.0,0,21,13.0,49.0
171,52.0,0,21,11.0,49.0
172,71.0,24,21,7.0,75.0
173,67.0,0,21,8.0,75.0
174,71.0,0,21,2.0,62.0
175,52.0,0,21,5.0,62.0
176,67.0,0,21,3.0,62.0
177,40.0,0,21,12.0,101.0
178,71.0,0,21,6.0,75.0
179,60.0,7,29,1.0,127.0
180,53.0,0,21,5.0,62.0
181,53.0,17,21,11.0,49.0
182,69.0,0,21,6.0,75.0
183,69.0,0,21,7.0,75.0
184,69.0,0,21,2.0,62.0
185,53.0,0,21,13.0,49.0
186,41.0,0,21,12.0,101.0
187,69.0,0,21,3.0,62.0
188,69.0,0,21,8.0,75.0
189,69.0,0,42,0.0,127.0
190,65.0,0,42,10.0,75.0
191,69.0,0,42,13.0,49.0
192,65.0,0,42,4.0,62.0
193,60.0,15,28,1.0,127.0
194,65.0,0,21,8.0,75.0
195,50.0,0,21,13.0,49.0
196,71.0,0,21,2.0,62.0
197,71.0,9,21,6.0,75.0
198,71.0,0,21,7.0,75.0
199,50.0,0,21,11.0,49.0
200,38.0,0,21,12.0,101.0
201,50.0,0,21,5.0,62.0
202,65.0,0,21,3.0,62.0
203,64.0,0,21,10.0,75.0
204,72.0,0,21,2.0,62.0
205,72.0,24,21,6.0,75.0
206,64.0,0,21,4.0,62.0
207,72.0,0,21,7.0,75.0
208,67.0,0,42,8.0,75.0
209,52.0,0,42,5.0,62.0
210,72.0,0,42,0.0,127.0
211,52.0,0,42,13.0,49.0
212,52.0,0,42,11.0,49.0
213,40.0,0,42,12.0,101.0
214,67.0,0,42,3.0,62.0
215,64.0,0,42,13.0,49.0
216,60.0,0,42,13.0,49.0
217,74.0,0,21,7.0,75.0
218,65.0,0,21,4.0,62.0
219,74.0,24,21,2.0,62.0
220,74.0,0,21,6.0,75.0
221,65.0,0,21,10.0,75.0
222,60.0,0,63,1.0,127.0
223,76.0,0,21,2.0,62.0
224,76.0,0,21,7.0,75.0
225,76.0,0,21,6.0,75.0
226,67.0,0,21,4.0,62.0
227,67.0,0,21,10.0,75.0
228,72.0,0,42,3.0,62.0
229,48.0,0,42,5.0,62.0
230,48.0,0,42,11.0,49.0
231,67.0,0,42,0.0,127.0
232,36.0,24,42,12.0,101.0
233,64.0,0,42,13.0,49.0
234,67.0,0,42,13.0,49.0
235,72.0,0,42,8.0,75.0
236,48.0,0,42,13.0,49.0
237,72.0,0,21,7.0,75.0
238,67.0,0,21,1.0,127.0
239,72.0,0,21,6.0,75.0
240,69.0,0,21,10.0,75.0
241,72.0,24,21,2.0,62.0
242,69.0,0,21,4.0,62.0
243,67.0,0,21,0.0,127.0
244,77.0,0,21,7.0,75.0
245,77.0,0,21,6.0,75.0
246,77.0,0,21,2.0,62.0
247,65.0,0,42,13.0,49.0
248,72.0,0,42,3.0,62.0
249,72.0,0,42,8.0,75.0
250,50.0,0,42,13.0,49.0
251,38.0,0,42,12.0,101.0
252,50.0,0,42,5.0,62.0
253,50.0,24,42,11.0,49.0
254,65.0,0,42,4.0,62.0
255,65.0,0,42,10.0,75.0
256,76.0,0,21,6.0,75.0
257,60.0,0,21,0.0,127.0
258,76.0,24,21,7.0,75.0
259,76.0,0,21,2.0,62.0
260,77.0,0,21,6.0,75.0
261,77.0,0,21,2.0,62.0
262,77.0,0,21,7.0,75.0
263,43.0,0,42,5.0,62.0
264,43.0,0,42,11.0,49.0
265,43.0,0,42,13.0,49.0
266,58.0,0,42,13.0,49.0
267,71.0,0,42,8.0,75.0
268,67.0,0,42,4.0,62.0
269,67.0,0,42,10.0,75.0
270,71.0,0,42,3.0,62.0
271,67.0,24,42,0.0,127.0
272,31.0,0,42,12.0,101.0
273,79.0,0,21,2.0,62.0
274,79.0,24,21,7.0,75.0
275,79.0,0,21,6.0,75.0
276,76.0,0,21,2.0,62.0
277,76.0,0,21,6.0,75.0
278,76.0,0,21,7.0,75.0
279,72.0,0,21,3.0,62.0
280,72.0,0,21,8.0,75.0
281,67.0,0,28,0.0,127.0
282,67.0,0,42,10.0,75.0
283,48.0,0,42,5.0,62.0
284,64.0,0,42,13.0,49.0
285,48.0,0,42,11.0,49.0
286,67.0,24,42,4.0,62.0
287,67.0,0,42,13.0,49.0
288,48.0,0,42,13.0,49.0
289,36.0,0,42,12.0,101.0
290,74.0,24,21,3.0,62.0
291,77.0,0,21,7.0,75.0
292,74.0,0,21,8.0,75.0
293,77.0,0,21,6.0,75.0
294,77.0,0,21,2.0,62.0
295,67.0,7,29,0.0,127.0
296,72.0,0,21,3.0,62.0
297,79.0,0,21,6.0,75.0
298,79.0,0,21,7.0,75.0
299,79.0,0,21,2.0,62.0
300,72.0,0,21,8.0,75.0
301,67.0,0,42,4.0,62.0
302,40.0,0,42,12.0,101.0
303,60.0,17,42,13.0,49.0
304,52.0,0,42,13.0,49.0
305,67.0,0,42,10.0,75.0
306,52.0,0,42,11.0,49.0
307,67.0,0,42,13.0,49.0
308,52.0,0,42,5.0,62.0
309,67.0,15,28,0.0,127.0
310,77.0,9,21,6.0,75.0
311,77.0,0,21,2.0,62.0
312,74.0,0,21,8.0,75.0
313,77.0,0,21,7.0,75.0
314,74.0,0,21,3.0,62.0
315,79.0,0,21,2.0,62.0
316,79.0,0,21,6.0,75.0
317,79.0,0,21,7.0,75.0
318,48.0,0,42,5.0,62.0
319,64.0,0,42,10.0,75.0
320,36.0,0,42,12.0,101.0
321,60.0,0,42,13.0,49.0
322,65.0,0,42,13.0,49.0
323,48.0,0,42,13.0,49.0
324,48.0,0,42,11.0,49.0
325,77.0,0,21,6.0,75.0
326,77.0,24,21,2.0,62.0
327,77.0,0,21,7.0,75.0
328,67.0,0,63,0.0,127.0
329,79.0,0,21,7.0,75.0
330,79.0,24,21,6.0,75.0
331,79.0,0,21,2.0,62.0
332,47.0,0,42,11.0,49.0
333,47.0,0,42,13.0,49.0
334,35.0,0,42,12.0,101.0
335,64.0,0,42,13.0,49.0
336,47.0,0,42,5.0,62.0
337,62.0,0,42,10.0,75.0
338,77.0,0,21,2.0,62.0
339,72.0,0,21,0.0,127.0
340,77.0,24,21,6.0,75.0
341,77.0,0,21,7.0,75.0
342,79.0,0,21,6.0,75.0
343,79.0,0,21,7.0,75.0
344,79.0,24,21,2.0,62.0
345,72.0,24,132,4.0,62.0
346,60.0,0,42,10.0,75.0
347,64.0,0,42,13.0,49.0
348,45.0,0,42,13.0,49.0
349,76.0,0,138,3.0,62.0
350,45.0,0,42,11.0,49.0
351,60.0,0,42,13.0,49.0
352,76.0,0,138,8.0,75.0
353,45.0,0,42,5.0,62.0
354,33.0,0,42,12.0,101.0
355,72.0,0,21,2.0,62.0
356,72.0,0,21,7.0,75.0
357,72.0,24,21,6.0,75.0
358,77.0,0,21,7.0,75.0
359,77.0,0,21,2.0,62.0
360,77.0,0,21,6.0,75.0
361,74.0,0,21,3.0,62.0
362,74.0,0,21,8.0,75.0
363,69.0,0,42,10.0,75.0
364,50.0,24,42,5.0,62.0
365,38.0,0,42,12.0,101.0
366,50.0,0,42,13.0,49.0
367,69.0,0,42,4.0,62.0
368,50.0,0,42,11.0,49.0
369,57.0,0,42,13.0,49.0
370,65.0,0,42,13.0,49.0
371,76.0,0,21,7.0,75.0
372,76.0,0,21,6.0,75.0
373,72.0,0,21,8.0,75.0
374,76.0,24,21,2.0,62.0
375,72.0,0,21,3.0,62.0
376,77.0,0,21,7.0,75.0
377,77.0,0,21,2.0,62.0
378,77.0,0,21,6.0,75.0
379,62.0,0,42,13.0,49.0
380,47.0,0,42,11.0,49.0
381,35.0,0,42,12.0,101.0
382,47.0,0,42,13.0,49.0
383,47.0,0,42,5.0,62.0
384,67.0,24,42,4.0,62.0
385,62.0,0,42,10.0,75.0
386,65.0,0,42,13.0,49.0
387,76.0,0,21,2.0,62.0
388,76.0,0,21,7.0,75.0
389,76.0,24,21,6.0,75.0
390,77.0,0,21,7.0,75.0
391,77.0,0,21,6.0,75.0
392,77.0,0,21,2.0,62.0
393,60.0,0,42,10.0,75.0
394,45.0,0,42,5.0,62.0
395,62.0,0,42,13.0,49.0
396,45.0,0,42,11.0,49.0
397,45.0,0,42,13.0,49.0
398,33.0,0,42,12.0,101.0
399,69.0,24,42,4.0,62.0
400,69.0,0,42,13.0,49.0
401,76.0,24,21,2.0,62.0
402,76.0,0,21,6.0,75.0
403,76.0,0,21,7.0,75.0
404,77.0,0,21,6.0,75.0
405,77.0,0,21,7.0,75.0
406,77.0,0,21,2.0,62.0
407,43.0,0,42,5.0,62.0
408,74.0,0,138,8.0,75.0
409,31.0,0,42,12.0,101.0
410,71.0,0,42,13.0,49.0
411,71.0,0,42,4.0,62.0
412,59.0,0,42,10.0,75.0
413,62.0,0,42,13.0,49.0
414,74.0,0,138,3.0,62.0
415,43.0,24,42,13.0,49.0
416,43.0,0,42,11.0,49.0
417,71.0,0,21,2.0,62.0
418,71.0,0,21,6.0,75.0
419,71.0,24,21,7.0,75.0
420,72.0,0,21,3.0,62.0
421,72.0,0,21,8.0,75.0
422,76.0,0,21,2.0,62.0
423,76.0,0,21,6.0,75.0
424,76.0,0,21,7.0,75.0
425,36.0,0,42,12.0,101.0
426,64.0,0,42,13.0,49.0
427,48.0,24,42,13.0,49.0
428,67.0,0,42,13.0,49.0
429,48.0,0,42,5.0,62.0
430,48.0,0,42,11.0,49.0
431,64.0,0,42,4.0,62.0
432,67.0,0,42,10.0,75.0
433,74.0,24,21,6.0,75.0
434,74.0,0,21,2.0,62.0
435,71.0,0,21,3.0,62.0
436,74.0,0,21,7.0,75.0
437,71.0,0,21,8.0,75.0
438,76.0,0,21,6.0,75.0
439,76.0,0,21,7.0,75.0
440,76.0,0,21,2.0,62.0
441,45.0,0,42,5.0,62.0
442,45.0,24,42,13.0,49.0
443,60.0,0,42,10.0,75.0
444,33.0,0,42,12.0,101.0
445,64.0,0,42,13.0,49.0
446,45.0,0,42,11.0,49.0
447,72.0,0,42,13.0,49.0
448,74.0,24,21,7.0,75.0
449,74.0,0,21,6.0,75.0
450,74.0,0,21,2.0,62.0
451,76.0,0,21,6.0,75.0
452,76.0,0,21,7.0,75.0
453,76.0,0,21,2.0,62.0
454,43.0,0,42,13.0,49.0
455,72.0,0,42,13.0,49.0
456,64.0,0,42,13.0,49.0
457,43.0,0,42,11.0,49.0
458,43.0,0,42,5.0,62.0
459,31.0,0,42,12.0,101.0
460,58.0,24,42,10.0,75.0
461,74.0,24,21,2.0,62.0
462,74.0,0,21,6.0,75.0
463,74.0,0,21,7.0,75.0
464,76.0,0,21,7.0,75.0
465,72.0,0,117,8.0,75.0
466,76.0,0,21,2.0,62.0
467,72.0,0,117,3.0,62.0
468,76.0,0,21,6.0,75.0
469,69.0,0,132,4.0,62.0
470,57.0,0,42,10.0,75.0
471,69.0,0,21,7.0,75.0
472,69.0,24,21,2.0,62.0
473,74.0,0,21,3.0,62.0
474,74.0,0,21,8.0,75.0
475,72.0,0,21,6.0,75.0
476,81.0,0,21,2.0,62.0
477,72.0,0,21,3.0,62.0
478,72.0,0,21,8.0,75.0
479,81.0,0,21,7.0,75.0
480,81.0,24,21,6.0,75.0
481,41.0,0,84,11.0,49.0
482,41.0,0,84,13.0,49.0
483,41.0,24,84,5.0,62.0
484,29.0,0,84,12.0,101.0
485,60.0,0,84,13.0,49.0
486,69.0,0,84,13.0,49.0
487,65.0,0,42,4.0,62.0
488,60.0,0,42,10.0,75.0
489,70.0,0,21,3.0,62.0
490,79.0,0,21,7.0,75.0
491,79.0,0,21,6.0,75.0
492,70.0,24,21,8.0,75.0
493,79.0,0,21,2.0,62.0
494,77.0,0,21,6.0,75.0
495,77.0,0,21,7.0,75.0
496,69.0,24,21,3.0,62.0
497,77.0,0,21,2.0,62.0
498,69.0,0,21,8.0,75.0
499,65.0,0,42,10.0,75.0
500,60.0,0,42,4.0,62.0
501,67.0,0,21,3.0,62.0
502,76.0,0,21,7.0,75.0
503,67.0,24,21,8.0,75.0
504,76.0,0,21,2.0,62.0
505,76.0,0,21,6.0,75.0
506,65.0,0,21,8.0,75.0
507,74.0,0,21,7.0,75.0
508,65.0,0,21,3.0,62.0
509,74.0,0,21,2.0,62.0
510,74.0,0,21,6.0,75.0
511,69.0,0,42,10.0,75.0
512,69.0,0,42,4.0,62.0
513,72.0,0,21,7.0,75.0
514,72.0,0,21,6.0,75.0
515,64.0,24,21,8.0,75.0
516,64.0,0,21,3.0,62.0
517,72.0,0,21,2.0,62.0
518,53.0,0,69,5.0,62.0
519,53.0,0,69,13.0,49.0
520,71.0,24,21,6.0,75.0
521,71.0,0,21,7.0,75.0
522,71.0,0,21,2.0,62.0
523,53.0,0,69,11.0,49.0
524,41.0,0,69,12.0,101.0
525,62.0,24,90,13.0,49.0
526,69.0,0,90,13.0,49.0
527,55.0,0,21,5.0,62.0
528,55.0,0,21,11.0,49.0
529,43.0,0,21,12.0,101.0
530,69.0,24,21,2.0,62.0
531,69.0,0,21,6.0,75.0
532,55.0,0,21,13.0,49.0
533,69.0,0,21,7.0,75.0
534,67.0,0,21,7.0,75.0
535,53.0,0,21,11.0,49.0
536,67.0,0,21,6.0,75.0
537,53.0,24,21,13.0,49.0
538,53.0,0,21,5.0,62.0
539,41.0,0,21,12.0,101.0
540,67.0,0,21,2.0,62.0
541,67.0,0,84,10.0,75.0
542,62.0,0,84,8.0,75.0
543,67.0,0,84,4.0,62.0
544,62.0,0,84,3.0,62.0
545,69.0,0,42,13.0,49.0
546,62.0,0,42,13.0,49.0
547,69.0,24,21,7.0,75.0
548,40.0,0,21,12.0,101.0
549,69.0,0,21,6.0,75.0
550,69.0,0,21,2.0,62.0
551,52.0,0,21,13.0,49.0
552,52.0,0,21,5.0,62.0
553,52.0,0,21,11.0,49.0
554,71.0,0,21,6.0,75.0
555,71.0,0,21,7.0,75.0
556,50.0,0,21,11.0,49.0
557,50.0,0,21,13.0,49.0
558,71.0,0,21,2.0,62.0
559,38.0,0,21,12.0,101.0
560,50.0,0,21,5.0,62.0
561,70.0,0,42,13.0,49.0
562,67.0,24,42,13.0,49.0
563,48.0,0,21,5.0,62.0
564,36.0,0,21,12.0,101.0
565,48.0,0,21,11.0,49.0
566,72.0,0,21,7.0,75.0
567,72.0,0,21,6.0,75.0
568,72.0,0,21,2.0,62.0
569,48.0,24,21,13.0,49.0
570,47.0,0,21,5.0,62.0
571,74.0,0,21,2.0,62.0
572,47.0,0,21,13.0,49.0
573,35.0,0,21,12.0,101.0
574,47.0,0,21,11.0,49.0
575,74.0,24,21,7.0,75.0
576,74.0,0,21,6.0,75.0
577,67.0,0,42,4.0,62.0
578,77.0,0,42,3.0,62.0
579,62.0,0,42,13.0,49.0
580,67.0,0,42,10.0,75.0
581,67.0,0,42,13.0,49.0
582,77.0,0,42,8.0,75.0
583,76.0,0,21,6.0,75.0
584,76.0,0,21,7.0,75.0
585,45.0,0,21,11.0,49.0
586,45.0,24,21,13.0,49.0
587,45.0,0,21,5.0,62.0
588,33.0,0,21,12.0,101.0
589,76.0,0,21,2.0,62.0
590,62.0,0,42,4.0,62.0
591,31.0,0,42,12.0,101.0
592,62.0,0,42,13.0,49.0
593,62.0,0,42,10.0,75.0
594,43.0,0,42,13.0,49.0
595,43.0,0,42,5.0,62.0
596,71.0,24,42,8.0,75.0
597,71.0,0,42,3.0,62.0
598,71.0,0,42,13.0,49.0
599,43.0,0,42,11.0,49.0
600,77.0,0,63,6.0,75.0
601,77.0,0,63,2.0,62.0
602,77.0,0,63,7.0,75.0
603,72.0,0,21,8.0,75.0
604,72.0,0,21,3.0,62.0
605,64.0,0,21,10.0,75.0
606,64.0,0,21,4.0,62.0
607,67.0,0,42,13.0,49.0
608,64.0,0,42,13.0,49.0
609,48.0,48,42,5.0,62.0
610,36.0,0,42,12.0,101.0
611,48.0,0,42,11.0,49.0
612,48.0,0,42,13.0,49.0
613,74.0,0,21,8.0,75.0
614,65.0,0,21,10.0,75.0
615,79.0,0,21,7.0,75.0
616,79.0,0,21,2.0,62.0
617,74.0,0,21,3.0,62.0
618,79.0,0,21,6.0,75.0
619,65.0,24,21,4.0,62.0
620,55.0,0,42,13.0,49.0
621,67.0,0,42,4.0,62.0
622,62.0,0,42,13.0,49.0
623,55.0,0,42,11.0,49.0
624,67.0,0,42,10.0,75.0
625,55.0,0,42,5.0,62.0
626,43.0,0,42,12.0,101.0
627,70.0,0,42,13.0,49.0
628,71.0,24,63,3.0,62.0
629,74.0,0,63,7.0,75.0
630,74.0,0,63,2.0,62.0
631,71.0,0,63,8.0,75.0
632,74.0,0,63,6.0,75.0
633,62.0,0,42,10.0,75.0
634,43.0,0,42,13.0,49.0
635,62.0,0,42,4.0,62.0
636,70.0,0,42,13.0,49.0
637,31.0,0,42,12.0,101.0
638,62.0,0,42,13.0,49.0
639,43.0,48,42,11.0,49.0
640,43.0,0,42,5.0,62.0
641,72.0,0,21,2.0,62.0
642,72.0,0,21,7.0,75.0
643,72.0,0,21,8.0,75.0
644,72.0,0,21,6.0,75.0
645,72.0,24,21,3.0,62.0
646,64.0,0,42,13.0,49.0
647,48.0,0,42,13.0,49.0
648,67.0,0,42,13.0,49.0
649,72.0,0,42,6.0,75.0
650,67.0,24,42,8.0,75.0
651,64.0,0,42,10.0,75.0
652,64.0,0,42,4.0,62.0
653,36.0,0,42,12.0,101.0
654,48.0,0,42,11.0,49.0
655,72.0,0,42,2.0,62.0
656,72.0,0,42,7.0,75.0
657,48.0,0,42,5.0,62.0
658,72.0,0,42,3.0,62.0
659,60.0,48,21,5.0,62.0
660,64.0,0,42,3.0,62.0
661,67.0,0,42,2.0,62.0
662,62.0,24,21,5.0,62.0
663,60.0,0,21,5.0,62.0
664,66.0,24,42,3.0,62.0
665,69.0,0,42,2.0,62.0
666,58.0,24,21,5.0,62.0
667,57.0,24,21,5.0,62.0
668,67.0,0,42,3.0,62.0
669,70.0,0,42,2.0,62.0
670,55.0,24,21,5.0,62.0
671,69.0,24,42,3.0,62.0
672,72.0,0,42,2.0,62.0
673,54.0,0,42,5.0,62.0
674,74.0,0,21,7.0,75.0
675,74.0,0,21,2.0,62.0
676,74.0,0,21,4.0,62.0
677,74.0,0,21,6.0,75.0
678,66.0,0,42,8.0,75.0
679,50.0,0,42,11.0,49.0
680,38.0,0,42,12.0,101.0
681,50.0,0,42,5.0,62.0
682,62.0,0,42,10.0,75.0
683,66.0,0,42,3.0,62.0
684,66.0,48,42,13.0,49.0
685,50.0,0,42,13.0,49.0
686,75.0,24,21,6.0,75.0
687,72.0,0,21,4.0,62.0
688,75.0,0,21,7.0,75.0
689,75.0,0,21,2.0,62.0
690,74.0,0,21,2.0,62.0
691,74.0,0,21,7.0,75.0
692,74.0,0,21,6.0,75.0
693,67.0,0,42,13.0,49.0
694,67.0,24,42,3.0,62.0
695,40.0,0,42,12.0,101.0
696,52.0,0,42,11.0,49.0
697,55.0,0,42,10.0,75.0
698,70.0,0,42,13.0,49.0
699,67.0,0,42,8.0,75.0
700,70.0,0,42,4.0,62.0
701,52.0,0,42,5.0,62.0
702,52.0,0,42,13.0,49.0
703,72.0,24,21,6.0,75.0
704,72.0,0,21,7.0,75.0
705,72.0,0,21,2.0,62.0
706,70.0,0,21,2.0,62.0
707,70.0,24,21,7.0,75.0
708,70.0,0,21,6.0,75.0
709,54.0,0,42,5.0,62.0
710,62.0,0,42,10.0,75.0
711,69.0,0,42,4.0,62.0
712,42.0,0,42,12.0,101.0
713,69.0,0,42,8.0,75.0
714,69.0,0,42,3.0,62.0
715,54.0,0,42,13.0,49.0
716,69.0,0,42,13.0,49.0
717,62.0,0,42,13.0,49.0
718,54.0,0,42,11.0,49.0
719,69.0,0,21,6.0,75.0
720,69.0,0,21,7.0,75.0
721,69.0,24,21,2.0,62.0
722,55.0,0,21,11.0,49.0
723,55.0,0,21,13.0,49.0
724,70.0,0,42,2.0,62.0
725,43.0,0,42,12.0,101.0
726,55.0,0,42,5.0,62.0
727,67.0,24,42,4.0,62.0
728,62.0,0,42,13.0,49.0
729,70.0,0,42,13.0,49.0
730,70.0,0,42,7.0,75.0
731,67.0,0,42,8.0,75.0
732,62.0,0,42,10.0,75.0
733,62.0,0,42,3.0,62.0
734,70.0,0,42,6.0,75.0
735,50.0,24,21,13.0,49.0
736,50.0,0,21,11.0,49.0
737,55.0,0,21,11.0,49.0
738,55.0,0,21,13.0,49.0
739,74.0,0,42,7.0,75.0
740,74.0,24,42,6.0,75.0
741,70.0,0,42,8.0,75.0
742,57.0,24,21,11.0,49.0
743,57.0,0,21,13.0,49.0
744,55.0,0,21,13.0,49.0
745,55.0,0,21,11.0,49.0
746,67.0,0,42,8.0,75.0
747,76.0,0,42,6.0,75.0
748,76.0,24,42,7.0,75.0
749,53.0,0,21,13.0,49.0
750,53.0,24,21,11.0,49.0
751,79.0,0,10,6.0,75.0
752,79.0,0,10,7.0,75.0
753,52.0,0,21,13.0,49.0
754,52.0,24,21,11.0,49.0
755,77.0,0,10,6.0,75.0
756,77.0,12,10,7.0,75.0
757,79.0,12,10,6.0,75.0
758,79.0,0,10,7.0,75.0
759,69.0,0,42,8.0,75.0
760,50.0,0,21,13.0,49.0
761,50.0,0,21,11.0,49.0
762,77.0,0,10,7.0,75.0
763,77.0,12,10,6.0,75.0
764,79.0,0,42,7.0,75.0
765,48.0,0,42,11.0,49.0
766,70.0,0,42,8.0,75.0
767,79.0,12,42,6.0,75.0
768,48.0,0,42,13.0,49.0
769,69.0,0,21,4.0,62.0
770,81.0,0,21,6.0,75.0
771,81.0,0,21,2.0,62.0
772,81.0,0,21,7.0,75.0
773,72.0,0,42,8.0,75.0
774,45.0,0,42,13.0,49.0
775,72.0,0,42,3.0,62.0
776,64.0,0,42,10.0,75.0
777,65.0,0,42,13.0,49.0
778,45.0,0,42,5.0,62.0
779,60.0,48,42,13.0,49.0
780,45.0,0,42,11.0,49.0
781,33.0,0,42,12.0,101.0
782,82.0,0,21,7.0,75.0
783,82.0,0,21,6.0,75.0
784,67.0,0,21,4.0,62.0
785,82.0,24,21,2.0,62.0
786,81.0,0,21,2.0,62.0
787,81.0,0,21,6.0,75.0
788,81.0,0,21,7.0,75.0
789,65.0,0,42,13.0,49.0
790,62.0,0,42,13.0,49.0
791,34.0,0,42,12.0,101.0
792,46.0,0,42,11.0,49.0
793,62.0,0,42,10.0,75.0
794,65.0,24,42,4.0,62.0
795,46.0,0,42,5.0,62.0
796,74.0,0,42,8.0,75.0
797,74.0,0,42,3.0,62.0
798,46.0,0,42,13.0,49.0
799,79.0,0,21,7.0,75.0
800,79.0,24,21,2.0,62.0
801,79.0,0,21,6.0,75.0
802,77.0,24,21,6.0,75.0
803,77.0,0,21,2.0,62.0
804,77.0,0,21,7.0,75.0
805,69.0,0,42,10.0,75.0
806,36.0,0,42,12.0,101.0
807,48.0,0,42,11.0,49.0
808,64.0,0,42,4.0,62.0
809,76.0,0,42,3.0,62.0
810,48.0,0,42,5.0,62.0
811,69.0,0,42,13.0,49.0
812,48.0,0,42,13.0,49.0
813,64.0,0,42,13.0,49.0
814,76.0,0,42,8.0,75.0
815,76.0,24,21,6.0,75.0
816,76.0,0,21,7.0,75.0
817,76.0,0,21,2.0,62.0
818,77.0,0,21,6.0,75.0
819,77.0,0,21,7.0,75.0
820,77.0,0,21,2.0,62.0
821,69.0,0,42,8.0,75.0
822,69.0,0,42,3.0,62.0
823,50.0,0,42,5.0,62.0
824,62.0,0,42,4.0,62.0
825,69.0,0,42,13.0,49.0
826,65.0,0,42,13.0,49.0
827,50.0,0,42,13.0,49.0
828,50.0,0,42,11.0,49.0
829,57.0,0,42,10.0,75.0
830,38.0,24,42,12.0,101.0
831,74.0,0,21,7.0,75.0
832,74.0,24,21,6.0,75.0
833,74.0,0,21,2.0,62.0
834,82.0,0,21,2.0,62.0
835,74.0,0,21,8.0,75.0
836,82.0,0,21,6.0,75.0
837,74.0,0,21,3.0,62.0
838,82.0,0,21,7.0,75.0
839,31.0,24,42,12.0,101.0
840,67.0,0,42,13.0,49.0
841,70.0,0,42,13.0,49.0
842,43.0,0,42,5.0,62.0
843,62.0,0,42,4.0,62.0
844,43.0,0,42,13.0,49.0
845,58.0,0,42,10.0,75.0
846,43.0,0,42,11.0,49.0
847,75.0,0,21,8.0,75.0
848,75.0,0,21,3.0,62.0
849,84.0,0,21,7.0,75.0
850,84.0,0,21,6.0,75.0
851,84.0,24,21,2.0,62.0
852,74.0,0,21,3.0,62.0
853,82.0,0,21,2.0,62.0
854,82.0,0,21,6.0,75.0
855,74.0,0,21,8.0,75.0
856,82.0,0,21,7.0,75.0
857,45.0,0,42,11.0,49.0
858,33.0,0,42,12.0,101.0
859,45.0,0,42,13.0,49.0
860,72.0,0,42,13.0,49.0
861,65.0,24,42,13.0,49.0
862,60.0,0,42,10.0,75.0
863,45.0,0,42,5.0,62.0
864,60.0,0,42,4.0,62.0
865,81.0,0,21,7.0,75.0
866,81.0,0,21,2.0,62.0
867,72.0,0,21,3.0,62.0
868,81.0,0,21,6.0,75.0
869,72.0,24,21,8.0,75.0
870,79.0,24,21,2.0,62.0
871,70.0,0,21,8.0,75.0
872,79.0,0,21,6.0,75.0
873,79.0,0,21,7.0,75.0
874,70.0,0,21,3.0,62.0
875,62.0,0,42,4.0,62.0
876,67.0,0,42,13.0,49.0
877,62.0,0,42,10.0,75.0
878,46.0,0,42,5.0,62.0
879,62.0,0,42,13.0,49.0
880,34.0,0,42,12.0,101.0
881,46.0,0,42,11.0,49.0
882,46.0,0,42,13.0,49.0
883,69.0,0,21,8.0,75.0
884,77.0,0,21,7.0,75.0
885,77.0,0,21,2.0,62.0
886,77.0,24,21,6.0,75.0
887,69.0,0,21,3.0,62.0
888,76.0,0,42,2.0,62.0
889,76.0,0,42,6.0,75.0
890,55.0,0,42,10.0,75.0
891,36.0,0,42,12.0,101.0
892,48.0,0,42,11.0,49.0
893,48.0,0,42,5.0,62.0
894,48.0,0,42,13.0,49.0
895,76.0,24,42,7.0,75.0
896,64.0,0,42,4.0,62.0
897,67.0,0,42,13.0,49.0
898,64.0,0,42,13.0,49.0
899,67.0,0,42,8.0,75.0
900,67.0,0,42,3.0,62.0
901,70.0,0,21,4.0,62.0
902,76.0,0,21,3.0,62.0
903,79.0,0,21,2.0,62.0
904,36.0,0,42,5.0,62.0
905,52.0,0,42,10.0,75.0
906,36.0,0,42,13.0,49.0
907,55.0,0,42,8.0,75.0
908,60.0,0,42,0.0,127.0
909,60.0,0,42,13.0,49.0
910,36.0,48,42,11.0,49.0
911,60.0,0,42,6.0,75.0
912,24.0,0,42,12.0,101.0
913,60.0,0,42,7.0,75.0
914,77.0,0,21,2.0,62.0
915,69.0,0,21,4.0,62.0
916,74.0,24,21,3.0,62.0
917,79.0,0,21,2.0,62.0
918,76.0,24,21,3.0,62.0
919,70.0,0,21,4.0,62.0
920,60.0,0,28,0.0,127.0
921,60.0,0,42,8.0,75.0
922,55.0,0,42,10.0,75.0
923,64.0,0,42,7.0,75.0
924,64.0,0,42,6.0,75.0
925,74.0,0,21,3.0,62.0
926,77.0,24,21,2.0,62.0
927,69.0,0,21,4.0,62.0
928,60.0,7,29,0.0,127.0
929,76.0,17,21,3.0,62.0
930,70.0,0,21,4.0,62.0
931,79.0,0,21,2.0,62.0
932,67.0,0,42,6.0,75.0
933,64.0,0,42,8.0,75.0
934,60.0,0,42,10.0,75.0
935,67.0,0,42,7.0,75.0
936,60.0,15,28,0.0,127.0
937,77.0,0,21,2.0,62.0
938,74.0,0,21,3.0,62.0
939,69.0,9,21,4.0,62.0
940,60.0,0,28,0.0,127.0
941,70.0,24,42,6.0,75.0
942,70.0,0,42,7.0,75.0
943,67.0,0,42,8.0,75.0
944,48.0,0,42,10.0,75.0
945,79.0,0,42,2.0,62.0
946,76.0,0,42,3.0,62.0
947,70.0,0,42,4.0,62.0
948,53.0,31,29,0.0,127.0
949,72.0,0,21,7.0,75.0
950,72.0,0,21,2.0,62.0
951,69.0,0,21,8.0,75.0
952,72.0,0,21,6.0,75.0
953,72.0,0,21,4.0,62.0
954,48.0,0,42,13.0,49.0
955,36.0,0,42,12.0,101.0
956,64.0,0,42,3.0,62.0
957,64.0,17,42,10.0,75.0
958,48.0,0,42,5.0,62.0
959,69.0,0,42,13.0,49.0
960,64.0,0,42,13.0,49.0
961,48.0,0,42,11.0,49.0
962,60.0,15,28,0.0,127.0
963,70.0,0,21,8.0,75.0
964,74.0,9,21,7.0,75.0
965,74.0,0,21,2.0,62.0
966,70.0,0,21,4.0,62.0
967,74.0,0,21,6.0,75.0
968,72.0,0,21,6.0,75.0
969,72.0,0,21,2.0,62.0
970,72.0,0,21,7.0,75.0
971,60.0,0,28,0.0,127.0
972,65.0,0,42,13.0,49.0
973,50.0,0,42,5.0,62.0
974,69.0,0,42,13.0,49.0
975,69.0,0,42,8.0,75.0
976,38.0,0,42,12.0,101.0
977,65.0,24,42,10.0,75.0
978,50.0,0,42,11.0,49.0
979,69.0,0,42,4.0,62.0
980,50.0,0,42,13.0,49.0
981,65.0,0,42,3.0,62.0
982,70.0,24,21,7.0,75.0
983,70.0,0,21,6.0,75.0
984,70.0,0,21,2.0,62.0
985,60.0,7,29,0.0,127.0
986,69.0,0,21,2.0,62.0
987,69.0,0,21,6.0,75.0
988,69.0,17,21,7.0,75.0
989,64.0,0,42,13.0,49.0
990,67.0,0,42,10.0,75.0
991,52.0,0,42,11.0,49.0
992,67.0,0,42,4.0,62.0
993,40.0,0,42,12.0,101.0
994,52.0,0,42,5.0,62.0
995,52.0,0,42,13.0,49.0
996,67.0,0,42,8.0,75.0
997,67.0,0,42,3.0,62.0
998,67.0,0,42,13.0,49.0
999,60.0,15,28,0.0,127.0
1000,67.0,0,21,6.0,75.0
1001,67.0,0,21,2.0,62.0
1002,67.0,9,21,7.0,75.0
1003,60.0,0,42,13.0,49.0
1004,65.0,0,42,13.0,49.0
1005,53.0,0,42,13.0,49.0
1006,65.0,0,42,8.0,75.0
1007,60.0,0,42,3.0,62.0
1008,60.0,0,42,10.0,75.0
1009,53.0,0,42,11.0,49.0
1010,41.0,24,42,12.0,101.0
1011,53.0,0,42,5.0,62.0
1012,69.0,0,42,6.0,75.0
1013,69.0,0,42,2.0,62.0
1014,69.0,0,42,7.0,75.0
1015,65.0,0,42,4.0,62.0
1016,60.0,0,63,0.0,127.0
1017,84.0,0,21,2.0,62.0
1018,81.0,0,21,3.0,62.0
1019,75.0,0,21,4.0,62.0
1020,53.0,0,42,1.0,127.0
1021,65.0,0,42,7.0,75.0
1022,65.0,0,42,6.0,75.0
1023,41.0,0,42,5.0,62.0
1024,65.0,48,42,13.0,49.0
1025,60.0,0,42,8.0,75.0
1026,41.0,0,42,13.0,49.0
1027,29.0,0,42,12.0,101.0
1028,57.0,0,42,10.0,75.0
1029,41.0,0,42,11.0,49.0
1030,79.0,24,21,3.0,62.0
1031,74.0,0,21,4.0,62.0
1032,65.0,0,21,0.0,127.0
1033,82.0,0,21,2.0,62.0
1034,81.0,0,21,3.0,62.0
1035,75.0,24,21,4.0,62.0
1036,84.0,0,21,2.0,62.0
1037,53.0,0,28,1.0,127.0
1038,69.0,0,42,6.0,75.0
1039,65.0,0,42,8.0,75.0
1040,69.0,0,42,7.0,75.0
1041,60.0,0,42,10.0,75.0
1042,74.0,24,21,4.0,62.0
1043,82.0,0,21,2.0,62.0
1044,79.0,0,21,3.0,62.0
1045,53.0,7,29,1.0,127.0
1046,84.0,0,21,2.0,62.0
1047,75.0,0,21,4.0,62.0
1048,81.0,17,21,3.0,62.0
1049,72.0,0,42,6.0,75.0
1050,69.0,0,42,8.0,75.0
1051,65.0,0,42,10.0,75.0
1052,72.0,0,42,7.0,75.0
1053,53.0,15,28,1.0,127.0
1054,74.0,9,21,4.0,62.0
1055,82.0,0,21,2.0,62.0
1056,79.0,0,21,3.0,62.0
1057,53.0,0,28,1.0,127.0
1058,53.0,0,42,10.0,75.0
1059,72.0,24,42,8.0,75.0
1060,75.0,0,42,6.0,75.0
1061,75.0,0,42,4.0,62.0
1062,81.0,0,42,3.0,62.0
1063,75.0,0,42,7.0,75.0
1064,84.0,0,42,2.0,62.0
1065,48.0,31,29,1.0,127.0
1066,77.0,0,21,7.0,75.0
1067,74.0,0,21,8.0,75.0
1068,77.0,0,21,4.0,62.0
1069,77.0,0,21,2.0,62.0
1070,77.0,0,21,6.0,75.0
1071,69.0,17,42,3.0,62.0
1072,69.0,0,42,13.0,49.0
1073,53.0,0,42,11.0,49.0
1074,53.0,0,42,13.0,49.0
1075,69.0,0,42,10.0,75.0
1076,41.0,0,42,12.0,101.0
1077,53.0,0,42,5.0,62.0
1078,65.0,0,42,13.0,49.0
1079,53.0,15,28,1.0,127.0
1080,75.0,0,21,8.0,75.0
1081,75.0,9,21,4.0,62.0
1082,79.0,0,21,7.0,75.0
1083,79.0,0,21,6.0,75.0
1084,79.0,0,21,2.0,62.0
1085,77.0,0,21,6.0,75.0
1086,77.0,0,21,2.0,62.0
1087,77.0,0,21,7.0,75.0
1088,53.0,0,28,1.0,127.0
1089,55.0,0,42,13.0,49.0
1090,43.0,0,42,12.0,101.0
1091,70.0,0,42,10.0,75.0
1092,55.0,0,42,11.0,49.0
1093,74.0,0,42,8.0,75.0
1094,74.0,24,42,4.0,62.0
1095,70.0,0,42,3.0,62.0
1096,62.0,0,42,13.0,49.0
1097,55.0,0,42,5.0,62.0
1098,70.0,0,42,13.0,49.0
1099,75.0,24,21,2.0,62.0
1100,75.0,0,21,7.0,75.0
1101,75.0,0,21,6.0,75.0
1102,53.0,7,29,1.0,127.0
1103,74.0,0,21,2.0,62.0
1104,74.0,0,21,6.0,75.0
1105,74.0,0,21,7.0,75.0
1106,45.0,0,42,12.0,101.0
1107,57.0,0,42,11.0,49.0
1108,72.0,0,42,3.0,62.0
1109,57.0,0,42,13.0,49.0
1110,72.0,0,42,13.0,49.0
1111,60.0,0,42,13.0,49.0
1112,57.0,0,42,5.0,62.0
1113,72.0,17,42,4.0,62.0
1114,72.0,0,42,10.0,75.0
1115,72.0,0,42,8.0,75.0
1116,53.0,15,28,1.0,127.0
1117,72.0,9,21,7.0,75.0
1118,72.0,0,21,6.0,75.0
1119,72.0,0,21,2.0,62.0
1120,58.0,0,21,11.0,49.0
1121,46.0,0,21,12.0,101.0
1122,58.0,24,21,5.0,62.0
1123,58.0,0,21,13.0,49.0
1124,74.0,0,42,13.0,49.0
1125,74.0,0,42,2.0,62.0
1126,74.0,0,42,6.0,75.0
1127,70.0,0,42,8.0,75.0
1128,65.0,0,42,10.0,75.0
1129,74.0,0,42,7.0,75.0
1130,65.0,0,42,3.0,62.0
1131,65.0,0,42,13.0,49.0
1132,70.0,0,42,4.0,62.0
1133,53.0,0,21,11.0,49.0
1134,41.0,0,21,12.0,101.0
1135,53.0,24,21,13.0,49.0
1136,53.0,0,21,5.0,62.0
1137,53.0,0,63,1.0,127.0
1138,74.0,0,21,8.0,75.0
1139,58.0,0,21,13.0,49.0
1140,70.0,0,21,10.0,75.0
1141,74.0,0,21,3.0,62.0
1142,70.0,0,21,4.0,62.0
1143,58.0,0,21,11.0,49.0
1144,79.0,0,21,2.0,62.0
1145,79.0,24,21,6.0,75.0
1146,79.0,0,21,7.0,75.0
1147,58.0,0,21,5.0,62.0
1148,46.0,0,21,12.0,101.0
1149,67.0,0,42,13.0,49.0
1150,74.0,0,42,13.0,49.0
1151,81.0,0,21,6.0,75.0
1152,60.0,0,21,1.0,127.0
1153,72.0,0,21,10.0,75.0
1154,75.0,0,21,8.0,75.0
1155,57.0,0,21,13.0,49.0
1156,75.0,0,21,3.0,62.0
1157,81.0,0,21,2.0,62.0
1158,45.0,0,21,12.0,101.0
1159,57.0,0,21,11.0,49.0
1160,72.0,24,21,4.0,62.0
1161,81.0,0,21,7.0,75.0
1162,57.0,0,21,5.0,62.0
1163,58.0,0,21,13.0,49.0
1164,79.0,0,21,2.0,62.0
1165,79.0,0,21,7.0,75.0
1166,79.0,0,21,6.0,75.0
1167,58.0,0,21,5.0,62.0
1168,46.0,0,21,12.0,101.0
1169,58.0,0,21,11.0,49.0
1170,62.0,0,42,13.0,49.0
1171,74.0,0,42,13.0,49.0
1172,74.0,0,42,3.0,62.0
1173,70.0,24,42,10.0,75.0
1174,70.0,0,42,4.0,62.0
1175,74.0,0,42,8.0,75.0
1176,57.0,0,21,11.0,49.0
1177,77.0,0,21,7.0,75.0
1178,45.0,0,21,12.0,101.0
1179,77.0,24,21,6.0,75.0
1180,77.0,0,21,2.0,62.0
1181,57.0,0,21,5.0,62.0
1182,57.0,0,21,13.0,49.0
1183,58.0,0,21,13.0,49.0
1184,58.0,0,21,11.0,49.0
1185,76.0,0,21,2.0,62.0
1186,46.0,0,21,12.0,101.0
1187,58.0,0,21,5.0,62.0
1188,76.0,24,21,6.0,75.0
1189,76.0,0,21,7.0,75.0
1190,67.0,0,42,13.0,49.0
1191,67.0,0,42,10.0,75.0
1192,70.0,0,42,3.0,62.0
1193,70.0,0,42,8.0,75.0
1194,67.0,0,42,4.0,62.0
1195,45.0,0,21,12.0,101.0
1196,57.0,24,21,11.0,49.0
1197,74.0,0,21,6.0,75.0
1198,74.0,0,21,2.0,62.0
1199,57.0,0,21,5.0,62.0
1200,57.0,0,21,13.0,49.0
1201,74.0,0,21,7.0,75.0
1202,58.0,0,21,13.0,49.0
1203,58.0,0,21,5.0,62.0
1204,58.0,0,21,11.0,49.0
1205,46.0,0,21,12.0,101.0
1206,67.0,0,42,13.0,49.0
1207,64.0,24,42,13.0,49.0
1208,60.0,24,21,13.0,49.0
1209,60.0,0,21,11.0,49.0
1210,48.0,0,21,12.0,101.0
1211,60.0,0,21,5.0,62.0
1212,67.0,0,63,8.0,75.0
1213,64.0,0,63,10.0,75.0
1214,72.0,0,63,7.0,75.0
1215,72.0,0,63,2.0,62.0
1216,72.0,0,63,6.0,75.0
1217,64.0,0,63,4.0,62.0
1218,67.0,0,63,3.0,62.0
1219,58.0,24,21,11.0,49.0
1220,46.0,0,21,12.0,101.0
1221,58.0,0,21,13.0,49.0
1222,58.0,0,21,5.0,62.0
1223,67.0,0,42,13.0,49.0
1224,64.0,0,42,13.0,49.0
1225,74.0,0,21,2.0,62.0
1226,65.0,24,21,4.0,62.0
1227,65.0,0,21,10.0,75.0
1228,69.0,0,21,8.0,75.0
1229,74.0,0,21,6.0,75.0
1230,57.0,0,21,13.0,49.0
1231,57.0,0,21,5.0,62.0
1232,45.0,0,21,12.0,101.0
1233,74.0,0,21,7.0,75.0
1234,69.0,0,21,3.0,62.0
1235,57.0,0,21,11.0,49.0
1236,67.0,0,21,4.0,62.0
1237,67.0,0,21,10.0,75.0
1238,76.0,0,21,6.0,75.0
1239,55.0,0,21,13.0,49.0
1240,43.0,0,21,12.0,101.0
1241,76.0,0,21,7.0,75.0
1242,55.0,0,21,5.0,62.0
1243,76.0,0,21,2.0,62.0
1244,70.0,24,21,8.0,75.0
1245,55.0,0,21,11.0,49.0
1246,70.0,0,21,3.0,62.0
1247,64.0,0,42,13.0,49.0
1248,70.0,0,42,13.0,49.0
1249,77.0,24,21,6.0,75.0
1250,69.0,0,21,8.0,75.0
1251,69.0,0,21,10.0,75.0
1252,53.0,0,21,11.0,49.0
1253,69.0,0,21,3.0,62.0
1254,41.0,0,21,12.0,101.0
1255,69.0,0,21,4.0,62.0
1256,77.0,0,21,2.0,62.0
1257,53.0,0,21,5.0,62.0
1258,53.0,0,21,13.0,49.0
1259,77.0,0,21,7.0,75.0
1260,79.0,0,21,2.0,62.0
1261,52.0,24,21,11.0,49.0
1262,79.0,0,21,6.0,75.0
1263,67.0,0,21,3.0,62.0
1264,70.0,0,21,4.0,62.0
1265,70.0,0,21,10.0,75.0
1266,52.0,0,21,5.0,62.0
1267,67.0,0,21,8.0,75.0
1268,52.0,0,21,13.0,49.0
1269,79.0,0,21,7.0,75.0
1270,40.0,0,21,12.0,101.0
1271,70.0,0,42,13.0,49.0
1272,67.0,0,42,13.0,49.0
1273,81.0,0,21,7.0,75.0
1274,65.0,0,21,3.0,62.0
1275,38.0,0,21,12.0,101.0
1276,81.0,0,21,6.0,75.0
1277,81.0,0,21,2.0,62.0
1278,67.0,24,21,4.0,62.0
1279,50.0,0,21,11.0,49.0
1280,65.0,0,21,8.0,75.0
1281,50.0,0,21,13.0,49.0
1282,67.0,0,21,10.0,75.0
1283,50.0,0,21,5.0,62.0
1284,82.0,0,21,7.0,75.0
1285,82.0,24,21,2.0,62.0
1286,82.0,0,21,6.0,75.0
1287,84.0,24,10,6.0,75.0
1288,84.0,0,10,2.0,62.0
1289,84.0,0,10,7.0,75.0
1290,67.0,0,42,13.0,49.0
1291,64.0,0,42,13.0,49.0
1292,48.0,0,42,13.0,49.0
1293,48.0,0,42,5.0,62.0
1294,48.0,0,42,11.0,49.0
1295,36.0,0,42,12.0,101.0
1296,64.0,0,42,8.0,75.0
1297,64.0,0,42,3.0,62.0
1298,82.0,0,10,7.0,75.0
1299,82.0,0,10,2.0,62.0
1300,82.0,12,10,6.0,75.0
1301,81.0,0,10,6.0,75.0
1302,81.0,0,10,7.0,75.0
1303,81.0,0,10,2.0,62.0
1304,65.0,0,21,8.0,75.0
1305,65.0,0,21,3.0,62.0
1306,82.0,12,10,7.0,75.0
1307,82.0,0,10,2.0,62.0
1308,82.0,0,10,6.0,75.0
1309,53.0,0,42,5.0,62.0
1310,41.0,12,42,12.0,101.0
1311,69.0,0,42,13.0,49.0
1312,65.0,0,42,13.0,49.0
1313,53.0,0,42,11.0,49.0
1314,53.0,0,42,13.0,49.0
1315,84.0,0,21,6.0,75.0
1316,84.0,12,21,7.0,75.0
1317,84.0,0,21,2.0,62.0
1318,67.0,0,21,3.0,62.0
1319,67.0,0,21,8.0,75.0
1320,72.0,0,117,4.0,62.0
1321,72.0,0,117,10.0,75.0
1322,60.0,0,42,5.0,62.0
1323,48.0,0,42,12.0,101.0
1324,67.0,0,42,13.0,49.0
1325,64.0,0,42,13.0,49.0
1326,60.0,0,42,11.0,49.0
1327,60.0,0,42,13.0,49.0
1328,70.0,0,21,4.0,62.0
1329,70.0,24,21,10.0,75.0
1330,79.0,0,63,6.0,75.0
1331,64.0,0,63,3.0,62.0
1332,64.0,24,63,8.0,75.0
1333,79.0,0,63,7.0,75.0
1334,79.0,0,63,2.0,62.0
1335,72.0,0,21,10.0,75.0
1336,72.0,0,21,4.0,62.0
1337,67.0,0,42,13.0,49.0
1338,48.0,0,42,5.0,62.0
1339,48.0,0,42,11.0,49.0
1340,36.0,24,42,12.0,101.0
1341,60.0,0,42,1.0,127.0
1342,48.0,0,42,13.0,49.0
1343,64.0,0,42,13.0,49.0
1344,70.0,0,21,10.0,75.0
1345,65.0,0,21,3.0,62.0
1346,77.0,24,21,2.0,62.0
1347,77.0,0,21,7.0,75.0
1348,70.0,0,21,4.0,62.0
1349,77.0,0,21,6.0,75.0
1350,65.0,0,21,8.0,75.0
1351,77.0,0,21,7.0,75.0
1352,38.0,0,21,12.0,101.0
1353,77.0,0,21,2.0,62.0
1354,50.0,0,21,13.0,49.0
1355,50.0,24,21,11.0,49.0
1356,77.0,0,21,6.0,75.0
1357,50.0,0,21,5.0,62.0
1358,65.0,0,28,1.0,127.0
1359,69.0,0,42,4.0,62.0
1360,65.0,0,42,8.0,75.0
1361,69.0,0,42,13.0,49.0
1362,65.0,0,42,3.0,62.0
1363,65.0,0,42,13.0,49.0
1364,69.0,0,42,10.0,75.0
1365,48.0,0,21,11.0,49.0
1366,48.0,24,21,5.0,62.0
1367,76.0,0,21,7.0,75.0
1368,76.0,0,21,6.0,75.0
1369,76.0,0,21,2.0,62.0
1370,48.0,0,21,13.0,49.0
1371,36.0,0,21,12.0,101.0
1372,65.0,7,29,1.0,127.0
1373,50.0,0,21,13.0,49.0
1374,50.0,0,21,5.0,62.0
1375,77.0,0,21,2.0,62.0
1376,77.0,0,21,6.0,75.0
1377,50.0,17,21,11.0,49.0
1378,38.0,0,21,12.0,101.0
1379,77.0,0,21,7.0,75.0
1380,65.0,0,42,10.0,75.0
1381,69.0,0,42,3.0,62.0
1382,60.0,0,42,0.0,127.0
1383,69.0,0,42,13.0,49.0
1384,65.0,0,42,13.0,49.0
1385,69.0,0,42,8.0,75.0
1386,65.0,0,42,4.0,62.0
1387,65.0,15,28,1.0,127.0
1388,48.0,0,21,5.0,62.0
1389,48.0,0,21,11.0,49.0
1390,36.0,0,21,12.0,101.0
1391,76.0,0,21,6.0,75.0
1392,48.0,0,21,13.0,49.0
1393,76.0,9,21,2.0,62.0
1394,76.0,0,21,7.0,75.0
1395,46.0,0,21,11.0,49.0
1396,74.0,24,21,2.0,62.0
1397,46.0,0,21,5.0,62.0
1398,74.0,0,21,6.0,75.0
1399,34.0,0,21,12.0,101.0
1400,74.0,0,21,7.0,75.0
1401,46.0,0,21,13.0,49.0
1402,65.0,0,28,1.0,127.0
1403,65.0,0,28,0.0,127.0
1404,65.0,0,42,10.0,75.0
1405,70.0,0,42,3.0,62.0
1406,62.0,0,42,13.0,49.0
1407,65.0,0,42,13.0,49.0
1408,65.0,0,42,4.0,62.0
1409,70.0,0,42,8.0,75.0
1410,45.0,0,21,13.0,49.0
1411,45.0,0,21,11.0,49.0
1412,72.0,0,21,2.0,62.0
1413,33.0,0,21,12.0,101.0
1414,45.0,0,21,5.0,62.0
1415,72.0,24,21,7.0,75.0
1416,72.0,0,21,6.0,75.0
1417,65.0,7,29,0.0,127.0
1418,60.0,0,29,1.0,127.0
1419,74.0,0,21,7.0,75.0
1420,74.0,0,21,6.0,75.0
1421,74.0,0,21,2.0,62.0
1422,46.0,17,21,11.0,49.0
1423,34.0,0,21,12.0,101.0
1424,46.0,0,21,5.0,62.0
1425,46.0,0,21,13.0,49.0
1426,62.0,0,42,13.0,49.0
1427,65.0,0,42,10.0,75.0
1428,62.0,0,42,8.0,75.0
1429,65.0,0,42,13.0,49.0
1430,62.0,0,42,3.0,62.0
1431,65.0,0,42,4.0,62.0
1432,65.0,0,28,1.0,127.0
1433,65.0,15,28,0.0,127.0
1434,72.0,0,21,7.0,75.0
1435,45.0,0,21,13.0,49.0
1436,72.0,0,21,2.0,62.0
1437,72.0,0,21,6.0,75.0
1438,33.0,0,21,12.0,101.0
1439,45.0,0,21,11.0,49.0
1440,45.0,9,21,5.0,62.0
1441,62.0,0,21,3.0,62.0
1442,62.0,0,21,8.0,75.0
1443,70.0,0,21,6.0,75.0
1444,70.0,0,21,2.0,62.0
1445,70.0,0,21,7.0,75.0
1446,60.0,0,28,1.0,127.0
1447,65.0,0,28,0.0,127.0
1448,72.0,0,10,6.0,75.0
1449,72.0,0,10,2.0,62.0
1450,72.0,24,10,7.0,75.0
1451,62.0,0,42,13.0,49.0
1452,43.0,24,42,11.0,49.0
1453,67.0,0,42,4.0,62.0
1454,31.0,0,42,12.0,101.0
1455,67.0,0,42,10.0,75.0
1456,43.0,0,42,13.0,49.0
1457,70.0,0,42,13.0,49.0
1458,43.0,0,42,5.0,62.0
1459,64.0,0,21,3.0,62.0
1460,64.0,0,21,8.0,75.0
1461,70.0,0,10,7.0,75.0
1462,70.0,0,10,6.0,75.0
1463,70.0,5,10,2.0,62.0
1464,69.0,0,10,2.0,62.0
1465,69.0,0,10,6.0,75.0
1466,69.0,0,10,7.0,75.0
1467,57.0,7,29,1.0,127.0
1468,60.0,0,29,0.0,127.0
1469,65.0,0,21,3.0,62.0
1470,65.0,12,21,8.0,75.0
1471,70.0,12,10,6.0,75.0
1472,70.0,0,10,2.0,62.0
1473,70.0,0,10,7.0,75.0
1474,60.0,0,42,4.0,62.0
1475,60.0,0,42,13.0,49.0
1476,29.0,0,42,12.0,101.0
1477,41.0,0,42,11.0,49.0
1478,60.0,0,42,10.0,75.0
1479,41.0,0,42,5.0,62.0
1480,41.0,0,42,13.0,49.0
1481,69.0,0,42,13.0,49.0
1482,60.0,3,28,1.0,127.0
1483,65.0,0,28,0.0,127.0
1484,72.0,9,21,6.0,75.0
1485,67.0,0,21,3.0,62.0
1486,72.0,0,21,2.0,62.0
1487,72.0,0,21,7.0,75.0
1488,67.0,0,21,8.0,75.0
1489,57.0,0,28,1.0,127.0
1490,60.0,0,28,0.0,127.0
1491,48.0,0,42,13.0,49.0
1492,48.0,0,42,5.0,62.0
1493,36.0,0,42,12.0,101.0
1494,67.0,0,42,13.0,49.0
1495,48.0,0,42,11.0,49.0
1496,64.0,0,42,13.0,49.0
1497,57.0,0,29,0.0,127.0
1498,53.0,31,29,1.0,127.0
1499,60.0,0,63,4.0,62.0
1500,60.0,0,63,10.0,75.0
1501,67.0,0,63,2.0,62.0
1502,67.0,0,63,7.0,75.0
1503,64.0,0,63,8.0,75.0
1504,64.0,24,63,3.0,62.0
1505,67.0,0,63,6.0,75.0
1506,24.0,17,42,12.0,101.0
1507,36.0,0,42,13.0,49.0
1508,64.0,0,42,13.0,49.0
1509,67.0,0,42,13.0,49.0
1510,36.0,0,42,11.0,49.0
1511,36.0,0,42,5.0,62.0
1512,60.0,0,28,0.0,127.0
1513,57.0,15,28,1.0,127.0
1514,65.0,0,21,7.0,75.0
1515,60.0,9,21,10.0,75.0
1516,65.0,0,21,8.0,75.0
1517,65.0,0,21,2.0,62.0
1518,65.0,0,21,3.0,62.0
1519,60.0,0,21,4.0,62.0
1520,65.0,0,21,6.0,75.0
1521,60.0,0,42,4.0,62.0
1522,53.0,0,42,1.0,127.0
1523,65.0,0,42,2.0,62.0
1524,57.0,0,42,0.0,127.0
1525,65.0,0,42,3.0,62.0
1526,69.0,0,21,1.0,127.0
1527,72.0,0,21,0.0,127.0
1528,41.0,0,84,11.0,49.0
1529,41.0,0,84,5.0,62.0
1530,69.0,0,84,13.0,49.0
1531,57.0,0,84,10.0,75.0
1532,65.0,0,84,7.0,75.0
1533,60.0,0,84,13.0,49.0
1534,65.0,24,84,8.0,75.0
1535,65.0,0,84,6.0,75.0
1536,29.0,0,84,12.0,101.0
1537,41.0,0,84,13.0,49.0
1538,60.0,0,42,4.0,62.0
1539,60.0,0,42,3.0,62.0
1540,65.0,48,42,2.0,62.0
1541,67.0,0,21,1.0,127.0
1542,70.0,24,21,0.0,127.0
1543,72.0,24,21,0.0,127.0
1544,69.0,0,21,1.0,127.0
1545,60.0,0,42,4.0,62.0
1546,65.0,0,42,3.0,62.0
1547,69.0,0,42,2.0,62.0
1548,67.0,24,21,1.0,127.0
1549,70.0,0,21,0.0,127.0
1550,72.0,0,21,0.0,127.0
1551,69.0,0,21,1.0,127.0
1552,69.0,0,42,3.0,62.0
1553,60.0,0,42,10.0,75.0
1554,60.0,0,42,7.0,75.0
1555,64.0,0,42,4.0,62.0
1556,72.0,0,42,2.0,62.0
1557,72.0,0,42,6.0,75.0
1558,60.0,24,42,8.0,75.0
1559,67.0,0,21,1.0,127.0
1560,70.0,24,21,0.0,127.0
1561,69.0,0,21,0.0,127.0
1562,65.0,24,21,1.0,127.0
1563,74.0,0,42,6.0,75.0
1564,62.0,0,42,8.0,75.0
1565,62.0,0,42,10.0,75.0
1566,74.0,0,42,3.0,62.0
1567,69.0,0,42,4.0,62.0
1568,77.0,0,42,2.0,62.0
1569,62.0,0,42,7.0,75.0
1570,67.0,24,21,1.0,127.0
1571,70.0,0,21,0.0,127.0
1572,69.0,0,21,1.0,127.0
1573,72.0,0,21,0.0,127.0
1574,57.0,0,42,7.0,75.0
1575,57.0,24,42,10.0,75.0
1576,72.0,0,42,2.0,62.0
1577,69.0,0,42,6.0,75.0
1578,57.0,0,42,8.0,75.0
1579,65.0,0,42,4.0,62.0
1580,72.0,0,42,3.0,62.0
1581,70.0,0,21,1.0,127.0
1582,74.0,24,21,0.0,127.0
1583,70.0,24,21,0.0,127.0
1584,58.0,0,42,10.0,75.0
1585,67.0,0,42,1.0,127.0
1586,65.0,0,42,4.0,62.0
1587,58.0,0,42,8.0,75.0
1588,70.0,0,42,3.0,62.0
1589,70.0,0,42,6.0,75.0
1590,58.0,0,42,7.0,75.0
1591,74.0,0,42,2.0,62.0
1592,69.0,24,21,0.0,127.0
1593,70.0,0,21,0.0,127.0
1594,72.0,24,21,2.0,62.0
1595,64.0,0,42,4.0,62.0
1596,72.0,0,42,6.0,75.0
1597,60.0,0,42,7.0,75.0
1598,60.0,0,42,10.0,75.0
1599,60.0,0,42,1.0,127.0
1600,67.0,0,42,3.0,62.0
1601,60.0,0,42,8.0,75.0
1602,67.0,0,21,0.0,127.0
1603,70.0,24,21,2.0,62.0
1604,65.0,0,42,6.0,75.0
1605,69.0,0,42,2.0,62.0
1606,53.0,0,42,10.0,75.0
1607,60.0,0,42,4.0,62.0
1608,65.0,0,42,8.0,75.0
1609,65.0,24,42,1.0,127.0
1610,65.0,0,42,7.0,75.0
1611,65.0,0,42,3.0,62.0
1612,69.0,0,42,0.0,127.0
1613,77.0,0,21,7.0,75.0
1614,72.0,0,21,8.0,75.0
1615,77.0,0,21,6.0,75.0
1616,69.0,0,21,4.0,62.0
1617,72.0,48,21,3.0,62.0
1618,77.0,0,21,2.0,62.0
1619,69.0,0,21,10.0,75.0
1620,29.0,0,42,12.0,101.0
1621,69.0,0,42,13.0,49.0
1622,41.0,0,42,5.0,62.0
1623,57.0,0,42,1.0,127.0
1624,60.0,0,42,0.0,127.0
1625,41.0,0,42,11.0,49.0
1626,41.0,0,42,13.0,49.0
1627,60.0,0,42,13.0,49.0
1628,76.0,0,21,2.0,62.0
1629,74.0,0,21,8.0,75.0
1630,70.0,0,21,3.0,62.0
1631,79.0,0,21,7.0,75.0
1632,67.0,0,21,4.0,62.0
1633,79.0,24,21,6.0,75.0
1634,70.0,0,21,10.0,75.0
1635,77.0,24,21,6.0,75.0
1636,77.0,0,21,7.0,75.0
1637,69.0,0,21,4.0,62.0
1638,72.0,0,21,3.0,62.0
1639,72.0,0,21,8.0,75.0
1640,69.0,0,21,10.0,75.0
1641,77.0,0,21,2.0,62.0
1642,60.0,0,42,1.0,127.0
1643,45.0,0,42,11.0,49.0
1644,60.0,0,42,13.0,49.0
1645,45.0,0,42,13.0,49.0
1646,65.0,0,42,0.0,127.0
1647,45.0,0,42,5.0,62.0
1648,65.0,0,42,13.0,49.0
1649,33.0,0,42,12.0,101.0
1650,70.0,0,21,10.0,75.0
1651,67.0,0,21,4.0,62.0
1652,76.0,24,21,2.0,62.0
1653,79.0,0,21,7.0,75.0
1654,74.0,0,21,8.0,75.0
1655,79.0,0,21,6.0,75.0
1656,70.0,0,21,3.0,62.0
1657,69.0,0,10,0.0,127.0
1658,72.0,0,21,8.0,75.0
1659,77.0,0,21,7.0,75.0
1660,69.0,0,21,10.0,75.0
1661,69.0,0,21,4.0,62.0
1662,77.0,24,21,6.0,75.0
1663,60.0,0,21,1.0,127.0
1664,72.0,0,21,3.0,62.0
1665,77.0,0,21,2.0,62.0
1666,67.0,12,10,0.0,127.0
1667,69.0,0,10,0.0,127.0
1668,36.0,0,42,12.0,101.0
1669,48.0,0,42,11.0,49.0
1670,57.0,0,42,13.0,49.0
1671,65.0,0,42,13.0,49.0
1672,48.0,0,42,13.0,49.0
1673,48.0,0,42,5.0,62.0
1674,76.0,0,21,2.0,62.0
1675,74.0,0,21,8.0,75.0
1676,70.0,0,21,3.0,62.0
1677,70.0,12,21,10.0,75.0
1678,79.0,0,21,7.0,75.0
1679,79.0,0,21,6.0,75.0
1680,60.0,0,21,1.0,127.0
1681,67.0,0,21,4.0,62.0
1682,67.0,12,10,0.0,127.0
1683,69.0,0,21,0.0,127.0
1684,41.0,0,42,12.0,101.0
1685,53.0,0,42,11.0,49.0
1686,53.0,0,42,5.0,62.0
1687,60.0,0,42,13.0,49.0
1688,53.0,0,42,13.0,49.0
1689,69.0,0,42,13.0,49.0
1690,60.0,0,42,1.0,127.0
1691,70.0,24,21,0.0,127.0
1692,65.0,0,21,1.0,127.0
1693,69.0,0,21,0.0,127.0
1694,77.0,0,84,6.0,75.0
1695,72.0,0,84,8.0,75.0
1696,69.0,0,84,10.0,75.0
1697,77.0,12,84,7.0,75.0
1698,77.0,0,84,2.0,62.0
1699,69.0,0,84,4.0,62.0
1700,72.0,0,84,3.0,62.0
1701,50.0,0,42,13.0,49.0
1702,69.0,0,42,13.0,49.0
1703,38.0,0,42,12.0,101.0
1704,50.0,0,42,5.0,62.0
1705,65.0,24,42,13.0,49.0
1706,50.0,0,42,11.0,49.0
1707,70.0,0,21,0.0,127.0
1708,67.0,24,21,1.0,127.0
1709,69.0,24,21,1.0,127.0
1710,72.0,0,21,0.0,127.0
1711,33.0,0,42,12.0,101.0
1712,65.0,0,42,13.0,49.0
1713,60.0,0,42,13.0,49.0
1714,45.0,0,42,13.0,49.0
1715,45.0,0,42,5.0,62.0
1716,45.0,0,42,11.0,49.0
1717,70.0,0,21,0.0,127.0
1718,67.0,24,21,1.0,127.0
1719,65.0,0,21,1.0,127.0
1720,69.0,0,21,0.0,127.0
1721,67.0,0,42,13.0,49.0
1722,62.0,0,42,13.0,49.0
1723,46.0,0,42,11.0,49.0
1724,46.0,0,42,5.0,62.0
1725,46.0,0,42,13.0,49.0
1726,34.0,24,42,12.0,101.0
1727,70.0,24,21,0.0,127.0
1728,67.0,0,21,1.0,127.0
1729,84.0,0,21,7.0,75.0
1730,76.0,0,21,10.0,75.0
1731,79.0,0,21,8.0,75.0
1732,84.0,0,21,6.0,75.0
1733,48.0,0,84,5.0,62.0
1734,67.0,0,84,13.0,49.0
1735,67.0,0,84,0.0,127.0
1736,64.0,0,84,13.0,49.0
1737,48.0,0,84,13.0,49.0
1738,36.0,0,84,12.0,101.0
1739,60.0,24,84,1.0,127.0
1740,48.0,0,84,11.0,49.0
1741,67.0,0,42,3.0,62.0
1742,72.0,0,42,2.0,62.0
1743,64.0,48,42,4.0,62.0
1744,83.0,0,21,7.0,75.0
1745,83.0,0,21,6.0,75.0
1746,74.0,0,21,10.0,75.0
1747,77.0,24,21,8.0,75.0
1748,84.0,0,21,6.0,75.0
1749,84.0,0,21,7.0,75.0
1750,76.0,24,21,10.0,75.0
1751,79.0,0,21,8.0,75.0
1752,72.0,0,42,3.0,62.0
1753,76.0,0,42,2.0,62.0
1754,67.0,0,42,4.0,62.0
1755,77.0,0,21,8.0,75.0
1756,74.0,24,21,10.0,75.0
1757,83.0,0,21,6.0,75.0
1758,83.0,0,21,7.0,75.0
1759,79.0,0,21,8.0,75.0
1760,84.0,0,21,6.0,75.0
1761,76.0,0,21,10.0,75.0
1762,84.0,0,21,7.0,75.0
1763,74.0,0,42,3.0,62.0
1764,62.0,0,42,13.0,49.0
1765,71.0,0,42,4.0,62.0
1766,43.0,0,42,13.0,49.0
1767,43.0,24,42,5.0,62.0
1768,79.0,0,42,2.0,62.0
1769,71.0,0,42,13.0,49.0
1770,43.0,0,42,11.0,49.0
1771,31.0,0,42,12.0,101.0
1772,83.0,24,21,7.0,75.0
1773,83.0,0,21,6.0,75.0
1774,74.0,0,21,10.0,75.0
1775,77.0,0,21,8.0,75.0
1776,72.0,0,21,10.0,75.0
1777,76.0,0,21,8.0,75.0
1778,64.0,0,42,13.0,49.0
1779,72.0,0,42,3.0,62.0
1780,45.0,0,42,11.0,49.0
1781,45.0,0,42,5.0,62.0
1782,64.0,0,42,4.0,62.0
1783,84.0,0,42,7.0,75.0
1784,72.0,0,42,13.0,49.0
1785,84.0,0,42,6.0,75.0
1786,84.0,24,42,2.0,62.0
1787,33.0,0,42,12.0,101.0
1788,45.0,0,42,13.0,49.0
1789,71.0,0,21,10.0,75.0
1790,74.0,24,21,8.0,75.0
1791,76.0,0,21,8.0,75.0
1792,76.0,0,21,3.0,62.0
1793,72.0,0,21,4.0,62.0
1794,72.0,0,21,10.0,75.0
1795,40.0,24,42,5.0,62.0
1796,40.0,0,42,13.0,49.0
1797,79.0,0,42,7.0,75.0
1798,79.0,0,42,6.0,75.0
1799,67.0,0,42,13.0,49.0
1800,64.0,0,42,13.0,49.0
1801,40.0,0,42,11.0,49.0
1802,28.0,0,42,12.0,101.0
1803,79.0,0,42,2.0,62.0
1804,74.0,0,21,8.0,75.0
1805,71.0,0,21,10.0,75.0
1806,71.0,24,21,4.0,62.0
1807,74.0,0,21,3.0,62.0
1808,76.0,0,21,3.0,62.0
1809,76.0,0,21,8.0,75.0
1810,81.0,0,42,6.0,75.0
1811,62.0,0,42,13.0,49.0
1812,81.0,0,42,7.0,75.0
1813,41.0,0,42,13.0,49.0
1814,69.0,0,42,13.0,49.0
1815,69.0,0,42,4.0,62.0
1816,81.0,0,42,2.0,62.0
1817,29.0,0,42,12.0,101.0
1818,41.0,24,42,5.0,62.0
1819,69.0,0,42,10.0,75.0
1820,41.0,0,42,11.0,49.0
1821,74.0,0,21,3.0,62.0
1822,74.0,24,21,8.0,75.0
1823,76.0,0,21,3.0,62.0
1824,79.0,0,21,6.0,75.0
1825,79.0,0,21,2.0,62.0
1826,76.0,0,21,8.0,75.0
1827,79.0,0,21,7.0,75.0
1828,43.0,0,42,5.0,62.0
1829,71.0,24,42,10.0,75.0
1830,43.0,0,42,11.0,49.0
1831,31.0,0,42,12.0,101.0
1832,71.0,0,42,4.0,62.0
1833,43.0,0,42,13.0,49.0
1834,62.0,0,42,13.0,49.0
1835,71.0,0,42,13.0,49.0
1836,77.0,0,21,7.0,75.0
1837,77.0,0,21,6.0,75.0
1838,74.0,24,21,8.0,75.0
1839,74.0,0,21,3.0,62.0
1840,77.0,0,21,2.0,62.0
1841,76.0,0,21,7.0,75.0
1842,72.0,0,21,8.0,75.0
1843,67.0,0,21,10.0,75.0
1844,76.0,0,21,6.0,75.0
1845,36.0,0,42,5.0,62.0
1846,24.0,0,42,12.0,101.0
1847,36.0,0,42,13.0,49.0
1848,36.0,0,42,11.0,49.0
1849,64.0,0,42,13.0,49.0
1850,67.0,0,42,13.0,49.0
1851,71.0,0,21,8.0,75.0
1852,65.0,24,21,10.0,75.0
1853,74.0,0,21,6.0,75.0
1854,74.0,0,21,7.0,75.0
1855,72.0,0,21,8.0,75.0
1856,72.0,0,21,7.0,75.0
1857,60.0,0,21,1.0,127.0
1858,72.0,0,21,6.0,75.0
1859,67.0,0,21,0.0,127.0
1860,64.0,0,21,10.0,75.0
1861,67.0,24,84,4.0,62.0
1862,76.0,0,84,2.0,62.0
1863,72.0,0,84,3.0,62.0
1864,43.0,0,42,5.0,62.0
1865,31.0,0,42,12.0,101.0
1866,43.0,0,42,13.0,49.0
1867,72.0,0,42,13.0,49.0
1868,64.0,24,42,13.0,49.0
1869,43.0,0,42,11.0,49.0
1870,74.0,0,21,6.0,75.0
1871,62.0,0,21,10.0,75.0
1872,71.0,0,21,8.0,75.0
1873,60.0,0,21,1.0,127.0
1874,74.0,24,21,7.0,75.0
1875,65.0,0,21,0.0,127.0
1876,76.0,0,21,7.0,75.0
1877,76.0,0,21,6.0,75.0
1878,67.0,24,21,0.0,127.0
1879,72.0,0,21,8.0,75.0
1880,67.0,0,42,13.0,49.0
1881,64.0,0,42,13.0,49.0
1882,48.0,0,42,11.0,49.0
1883,36.0,0,42,12.0,101.0
1884,48.0,0,42,13.0,49.0
1885,60.0,0,42,1.0,127.0
1886,48.0,0,42,5.0,62.0
1887,60.0,0,42,10.0,75.0
1888,74.0,24,21,8.0,75.0
1889,69.0,0,21,0.0,127.0
1890,77.0,0,21,6.0,75.0
1891,77.0,0,21,7.0,75.0
1892,70.0,0,21,0.0,127.0
1893,72.0,0,42,3.0,62.0
1894,76.0,0,42,2.0,62.0
1895,67.0,0,42,13.0,49.0
1896,36.0,0,42,13.0,49.0
1897,72.0,0,42,10.0,75.0
1898,36.0,24,42,5.0,62.0
1899,24.0,0,42,12.0,101.0
1900,67.0,0,42,4.0,62.0
1901,36.0,0,42,11.0,49.0
1902,64.0,0,42,13.0,49.0
1903,60.0,0,42,1.0,127.0
1904,67.0,24,21,0.0,127.0
1905,69.0,0,21,0.0,127.0
1906,41.0,0,42,5.0,62.0
1907,60.0,0,42,13.0,49.0
1908,76.0,0,90,8.0,75.0
1909,41.0,0,42,13.0,49.0
1910,65.0,0,42,13.0,49.0
1911,79.0,0,90,6.0,75.0
1912,41.0,0,42,11.0,49.0
1913,79.0,0,90,7.0,75.0
1914,29.0,0,42,12.0,101.0
1915,60.0,0,42,1.0,127.0
1916,67.0,24,21,0.0,127.0
1917,69.0,0,21,0.0,127.0
1918,74.0,24,21,8.0,75.0
1919,77.0,0,21,6.0,75.0
1920,77.0,0,21,7.0,75.0
1921,72.0,0,84,2.0,62.0
1922,69.0,24,84,3.0,62.0
1923,65.0,0,84,4.0,62.0
1924,45.0,0,42,13.0,49.0
1925,65.0,0,42,13.0,49.0
1926,62.0,0,42,13.0,49.0
1927,45.0,0,42,5.0,62.0
1928,45.0,0,42,11.0,49.0
1929,60.0,0,42,1.0,127.0
1930,33.0,0,42,12.0,101.0
1931,72.0,0,21,8.0,75.0
1932,76.0,0,21,6.0,75.0
1933,67.0,24,21,0.0,127.0
1934,76.0,0,21,7.0,75.0
1935,69.0,0,21,0.0,127.0
1936,65.0,0,21,1.0,127.0
1937,50.0,0,42,5.0,62.0
1938,50.0,0,42,11.0,49.0
1939,50.0,0,42,13.0,49.0
1940,65.0,0,42,13.0,49.0
1941,38.0,24,42,12.0,101.0
1942,69.0,0,42,13.0,49.0
1943,71.0,0,21,0.0,127.0
1944,67.0,24,21,1.0,127.0
1945,69.0,0,21,1.0,127.0
1946,72.0,0,21,0.0,127.0
1947,72.0,0,180,10.0,75.0
1948,74.0,0,42,3.0,62.0
1949,69.0,0,42,13.0,49.0
1950,38.0,0,42,13.0,49.0
1951,65.0,24,42,13.0,49.0
1952,77.0,0,42,2.0,62.0
1953,38.0,0,42,5.0,62.0
1954,26.0,0,42,12.0,101.0
1955,69.0,0,42,4.0,62.0
1956,38.0,0,42,11.0,49.0
1957,65.0,24,21,1.0,127.0
1958,69.0,0,21,0.0,127.0
1959,67.0,0,21,1.0,127.0
1960,71.0,0,21,0.0,127.0
1961,43.0,0,42,5.0,62.0
1962,31.0,24,42,12.0,101.0
1963,43.0,0,42,13.0,49.0
1964,71.0,0,42,13.0,49.0
1965,62.0,0,42,13.0,49.0
1966,77.0,0,138,6.0,75.0
1967,77.0,0,138,7.0,75.0
1968,43.0,0,42,11.0,49.0
1969,69.0,0,21,0.0,127.0
1970,65.0,24,21,1.0,127.0
1971,76.0,24,21,6.0,75.0
1972,76.0,0,21,7.0,75.0
1973,67.0,0,21,1.0,127.0
1974,71.0,0,21,0.0,127.0
1975,71.0,0,84,10.0,75.0
1976,74.0,0,84,2.0,62.0
1977,67.0,0,84,4.0,62.0
1978,71.0,0,84,3.0,62.0
1979,35.0,0,42,12.0,101.0
1980,47.0,0,42,13.0,49.0
1981,64.0,0,42,13.0,49.0
1982,72.0,0,42,13.0,49.0
1983,47.0,0,42,11.0,49.0
1984,47.0,0,42,5.0,62.0
1985,74.0,0,21,6.0,75.0
1986,69.0,24,21,0.0,127.0
1987,74.0,0,21,7.0,75.0
1988,65.0,0,21,1.0,127.0
1989,67.0,0,21,1.0,127.0
1990,71.0,0,21,0.0,127.0
1991,60.0,0,42,13.0,49.0
1992,52.0,0,42,11.0,49.0
1993,52.0,24,42,5.0,62.0
1994,52.0,0,42,13.0,49.0
1995,40.0,0,42,12.0,101.0
1996,67.0,0,42,13.0,49.0
1997,72.0,24,21,0.0,127.0
1998,69.0,0,21,1.0,127.0
1999,74.0,0,21,0.0,127.0
2000,71.0,0,21,1.0,127.0
2001,74.0,0,276,8.0,75.0
2002,40.0,0,42,13.0,49.0
2003,79.0,0,42,2.0,62.0
2004,60.0,0,42,13.0,49.0
2005,76.0,24,42,3.0,62.0
2006,67.0,0,42,13.0,49.0
2007,28.0,0,42,12.0,101.0
2008,71.0,0,42,4.0,62.0
2009,40.0,0,42,5.0,62.0
2010,40.0,0,42,11.0,49.0
2011,67.0,24,21,1.0,127.0
2012,71.0,0,21,0.0,127.0
2013,72.0,0,21,3.0,62.0
2014,76.0,0,117,6.0,75.0
2015,72.0,0,21,8.0,75.0
2016,76.0,0,117,7.0,75.0
2017,67.0,0,117,10.0,75.0
2018,69.0,0,21,4.0,62.0
2019,33.0,0,42,12.0,101.0
2020,45.0,0,42,13.0,49.0
2021,64.0,0,42,13.0,49.0
2022,45.0,0,42,11.0,49.0
2023,60.0,0,42,13.0,49.0
2024,45.0,0,42,5.0,62.0
2025,74.0,0,21,7.0,75.0
2026,71.0,24,21,8.0,75.0
2027,64.0,0,21,10.0,75.0
2028,71.0,0,21,3.0,62.0
2029,71.0,0,21,4.0,62.0
2030,74.0,0,21,6.0,75.0
2031,69.0,24,63,1.0,127.0
2032,76.0,0,63,2.0,62.0
2033,72.0,0,63,0.0,127.0
2034,72.0,0,21,3.0,62.0
2035,72.0,0,21,8.0,75.0
2036,69.0,0,21,10.0,75.0
2037,76.0,0,21,6.0,75.0
2038,76.0,0,21,7.0,75.0
2039,69.0,0,21,4.0,62.0
2040,41.0,0,42,12.0,101.0
2041,53.0,0,42,11.0,49.0
2042,53.0,0,42,5.0,62.0
2043,60.0,24,42,13.0,49.0
2044,69.0,0,42,13.0,49.0
2045,53.0,0,42,13.0,49.0
2046,74.0,24,21,8.0,75.0
2047,74.0,0,21,0.0,127.0
2048,71.0,0,21,1.0,127.0
2049,77.0,0,21,2.0,62.0
2050,77.0,0,21,7.0,75.0
2051,74.0,0,21,3.0,62.0
2052,67.0,0,21,4.0,62.0
2053,67.0,0,21,10.0,75.0
2054,77.0,0,21,6.0,75.0
2055,71.0,0,10,0.0,127.0
2056,65.0,0,21,10.0,75.0
2057,65.0,0,21,4.0,62.0
2058,72.0,12,10,0.0,127.0
2059,71.0,12,10,0.0,127.0
2060,62.0,0,42,13.0,49.0
2061,71.0,0,42,13.0,49.0
2062,55.0,0,42,13.0,49.0
2063,67.0,0,42,8.0,75.0
2064,55.0,0,42,11.0,49.0
2065,67.0,0,42,3.0,62.0
2066,43.0,0,42,12.0,101.0
2067,55.0,0,42,5.0,62.0
2068,64.0,0,21,4.0,62.0
2069,64.0,0,21,10.0,75.0
2070,72.0,12,10,0.0,127.0
2071,74.0,0,63,7.0,75.0
2072,74.0,0,63,2.0,62.0
2073,67.0,0,63,1.0,127.0
2074,74.0,24,63,6.0,75.0
2075,71.0,0,21,0.0,127.0
2076,65.0,0,21,4.0,62.0
2077,65.0,0,21,10.0,75.0
2078,62.0,0,42,13.0,49.0
2079,67.0,0,42,3.0,62.0
2080,43.0,12,42,13.0,49.0
2081,71.0,0,42,13.0,49.0
2082,43.0,0,42,5.0,62.0
2083,31.0,0,42,12.0,101.0
2084,67.0,0,42,8.0,75.0
2085,43.0,0,42,11.0,49.0
2086,72.0,0,21,7.0,75.0
2087,62.0,24,21,10.0,75.0
2088,72.0,0,21,2.0,62.0
2089,62.0,0,21,4.0,62.0
2090,72.0,0,21,6.0,75.0
2091,72.0,0,21,0.0,127.0
2092,67.0,0,21,1.0,127.0
2093,48.0,0,42,11.0,49.0
2094,72.0,0,42,7.0,75.0
2095,67.0,0,42,8.0,75.0
2096,72.0,0,42,6.0,75.0
2097,60.0,48,21,11.0,49.0
2098,67.0,0,84,1.0,127.0
2099,72.0,0,84,0.0,127.0
2100,36.0,0,84,12.0,101.0
2101,67.0,0,84,3.0,62.0
2102,64.0,0,84,4.0,62.0
2103,72.0,0,84,2.0,62.0
2104,48.0,0,84,13.0,49.0
2105,67.0,0,84,13.0,49.0
2106,64.0,0,84,13.0,49.0
2107,48.0,0,84,5.0,62.0
2108,64.0,24,84,10.0,75.0
2109,67.0,0,42,7.0,75.0
2110,67.0,0,42,6.0,75.0
2111,64.0,0,42,8.0,75.0
2112,62.0,24,21,11.0,49.0
2113,60.0,0,21,11.0,49.0
2114,69.0,24,42,7.0,75.0
2115,69.0,0,42,6.0,75.0
2116,66.0,0,42,8.0,75.0
2117,58.0,24,21,11.0,49.0
2118,57.0,0,21,11.0,49.0
2119,67.0,24,42,8.0,75.0
2120,70.0,0,42,6.0,75.0
2121,70.0,0,42,7.0,75.0
2122,55.0,24,21,11.0,49.0
2123,72.0,0,42,7.0,75.0
2124,72.0,24,42,6.0,75.0
2125,54.0,0,42,11.0,49.0
2126,69.0,0,42,8.0,75.0
2127,62.0,0,21,10.0,75.0
2128,74.0,0,21,7.0,75.0
2129,74.0,0,21,6.0,75.0
2130,50.0,0,42,13.0,49.0
2131,66.0,0,42,8.0,75.0
2132,65.0,0,42,13.0,49.0
2133,50.0,48,42,11.0,49.0
2134,38.0,0,42,12.0,101.0
2135,75.0,24,21,6.0,75.0
2136,60.0,0,21,10.0,75.0
2137,75.0,0,21,7.0,75.0
2138,74.0,0,21,7.0,75.0
2139,74.0,0,21,6.0,75.0
2140,58.0,0,42,13.0,49.0
2141,67.0,0,42,13.0,49.0
2142,52.0,0,42,13.0,49.0
2143,52.0,0,42,11.0,49.0
2144,40.0,0,42,12.0,101.0
2145,67.0,24,42,8.0,75.0
2146,58.0,0,42,10.0,75.0
2147,72.0,24,21,7.0,75.0
2148,72.0,0,21,6.0,75.0
2149,70.0,0,21,7.0,75.0
2150,70.0,0,21,6.0,75.0
2151,54.0,24,42,11.0,49.0
2152,69.0,0,42,13.0,49.0
2153,54.0,0,42,13.0,49.0
2154,42.0,0,42,12.0,101.0
2155,69.0,0,42,8.0,75.0
2156,57.0,0,42,10.0,75.0
2157,69.0,24,21,7.0,75.0
2158,69.0,0,21,6.0,75.0
2159,55.0,0,21,5.0,62.0
2160,55.0,0,84,11.0,49.0
2161,70.0,0,84,6.0,75.0
2162,55.0,0,84,13.0,49.0
2163,70.0,0,84,13.0,49.0
2164,55.0,0,84,10.0,75.0
2165,62.0,0,84,13.0,49.0
2166,43.0,24,84,12.0,101.0
2167,70.0,0,84,7.0,75.0
2168,62.0,0,84,8.0,75.0
2169,74.0,48,42,2.0,62.0
2170,74.0,0,42,3.0,62.0
2171,57.0,24,21,5.0,62.0
2172,55.0,0,21,5.0,62.0
2173,76.0,24,42,2.0,62.0
2174,73.0,0,42,3.0,62.0
2175,53.0,24,21,5.0,62.0
2176,52.0,24,21,5.0,62.0
2177,77.0,0,42,2.0,62.0
2178,74.0,0,42,3.0,62.0
2179,50.0,24,21,5.0,62.0
2180,79.0,0,42,2.0,62.0
2181,76.0,0,42,3.0,62.0
2182,49.0,24,42,5.0,62.0
2183,81.0,0,21,2.0,62.0
2184,69.0,0,21,4.0,62.0
2185,45.0,0,42,5.0,62.0
2186,60.0,0,42,13.0,49.0
2187,33.0,0,42,12.0,101.0
2188,73.0,48,42,3.0,62.0
2189,45.0,0,42,11.0,49.0
2190,45.0,0,42,13.0,49.0
2191,82.0,24,21,2.0,62.0
2192,67.0,0,21,4.0,62.0
2193,81.0,0,21,2.0,62.0
2194,62.0,0,42,13.0,49.0
2195,47.0,0,42,13.0,49.0
2196,35.0,24,42,12.0,101.0
2197,47.0,0,42,11.0,49.0
2198,65.0,0,42,4.0,62.0
2199,74.0,0,42,3.0,62.0
2200,47.0,0,42,5.0,62.0
2201,79.0,24,21,2.0,62.0
2202,77.0,24,21,2.0,62.0
2203,49.0,0,42,13.0,49.0
2204,64.0,0,42,13.0,49.0
2205,37.0,0,42,12.0,101.0
2206,49.0,0,42,11.0,49.0
2207,49.0,0,42,5.0,62.0
2208,76.0,0,42,3.0,62.0
2209,64.0,0,42,4.0,62.0
2210,76.0,24,21,2.0,62.0
2211,50.0,0,21,11.0,49.0
2212,38.0,0,21,12.0,101.0
2213,50.0,0,21,5.0,62.0
2214,50.0,24,21,13.0,49.0
2215,65.0,0,42,13.0,49.0
2216,69.0,0,42,13.0,49.0
2217,52.0,0,21,13.0,49.0
2218,52.0,0,21,5.0,62.0
2219,40.0,0,21,12.0,101.0
2220,52.0,24,21,11.0,49.0
2221,38.0,0,21,12.0,101.0
2222,50.0,24,21,5.0,62.0
2223,50.0,0,21,11.0,49.0
2224,50.0,0,21,13.0,49.0
2225,69.0,0,84,3.0,62.0
2226,77.0,0,84,2.0,62.0
2227,62.0,0,84,4.0,62.0
2228,65.0,0,42,0.0,127.0
2229,57.0,0,42,1.0,127.0
2230,36.0,0,21,12.0,101.0
2231,48.0,0,21,11.0,49.0
2232,48.0,24,21,13.0,49.0
2233,48.0,0,21,5.0,62.0
2234,46.0,0,21,5.0,62.0
2235,46.0,0,21,11.0,49.0
2236,34.0,0,21,12.0,101.0
2237,46.0,0,21,13.0,49.0
2238,67.0,0,42,0.0,127.0
2239,60.0,24,42,1.0,127.0
2240,45.0,0,21,11.0,49.0
2241,45.0,0,21,5.0,62.0
2242,33.0,0,21,12.0,101.0
2243,45.0,24,21,13.0,49.0
2244,43.0,0,21,5.0,62.0
2245,43.0,0,21,11.0,49.0
2246,43.0,0,21,13.0,49.0
2247,31.0,0,21,12.0,101.0
2248,69.0,0,42,0.0,127.0
2249,65.0,24,42,1.0,127.0
2250,41.0,0,21,5.0,62.0
2251,29.0,24,21,12.0,101.0
2252,41.0,0,21,11.0,49.0
2253,41.0,0,21,13.0,49.0
2254,28.0,24,42,12.0,101.0
2255,40.0,0,42,13.0,49.0
2256,40.0,0,42,5.0,62.0
2257,70.0,0,42,0.0,127.0
2258,67.0,0,42,1.0,127.0
2259,40.0,0,42,11.0,49.0
2260,72.0,48,21,0.0,127.0
2261,69.0,0,21,1.0,127.0
2262,48.0,0,42,11.0,49.0
2263,48.0,0,42,5.0,62.0
2264,48.0,0,42,13.0,49.0
2265,36.0,0,42,12.0,101.0
2266,74.0,0,21,0.0,127.0
2267,70.0,24,21,1.0,127.0
2268,72.0,24,21,0.0,127.0
2269,69.0,0,21,1.0,127.0
2270,50.0,0,42,11.0,49.0
2271,38.0,0,42,12.0,101.0
2272,50.0,0,42,5.0,62.0
2273,50.0,0,42,13.0,49.0
2274,67.0,0,21,1.0,127.0
2275,70.0,24,21,0.0,127.0
2276,65.0,0,21,1.0,127.0
2277,69.0,24,21,0.0,127.0
2278,52.0,0,42,5.0,62.0
2279,52.0,0,42,13.0,49.0
2280,52.0,0,42,11.0,49.0
2281,40.0,0,42,12.0,101.0
2282,67.0,0,21,0.0,127.0
2283,60.0,24,21,1.0,127.0
2284,53.0,0,42,13.0,49.0
2285,53.0,0,42,11.0,49.0
2286,53.0,24,42,5.0,62.0
2287,41.0,0,42,12.0,101.0
2288,72.0,24,21,7.0,75.0
2289,69.0,0,21,8.0,75.0
2290,72.0,0,21,2.0,62.0
2291,72.0,0,21,6.0,75.0
2292,69.0,0,21,3.0,62.0
2293,77.0,0,21,6.0,75.0
2294,70.0,0,21,8.0,75.0
2295,77.0,0,21,2.0,62.0
2296,77.0,0,21,7.0,75.0
2297,70.0,0,21,3.0,62.0
2298,65.0,0,84,1.0,127.0
2299,69.0,0,84,0.0,127.0
2300,65.0,0,42,4.0,62.0
2301,50.0,0,42,5.0,62.0
2302,70.0,0,42,13.0,49.0
2303,50.0,24,42,11.0,49.0
2304,38.0,0,42,12.0,101.0
2305,50.0,0,42,13.0,49.0
2306,65.0,0,42,10.0,75.0
2307,65.0,0,42,13.0,49.0
2308,75.0,0,21,7.0,75.0
2309,75.0,24,21,2.0,62.0
2310,75.0,0,21,6.0,75.0
2311,72.0,0,21,8.0,75.0
2312,72.0,0,21,3.0,62.0
2313,77.0,0,21,6.0,75.0
2314,77.0,0,21,2.0,62.0
2315,77.0,0,21,7.0,75.0
2316,46.0,0,42,5.0,62.0
2317,34.0,0,42,12.0,101.0
2318,62.0,0,42,10.0,75.0
2319,62.0,0,42,13.0,49.0
2320,46.0,24,42,11.0,49.0
2321,65.0,0,42,13.0,49.0
2322,46.0,0,42,13.0,49.0
2323,75.0,0,21,2.0,62.0
2324,75.0,24,21,7.0,75.0
2325,75.0,0,21,6.0,75.0
2326,77.0,0,21,7.0,75.0
2327,77.0,0,21,6.0,75.0
2328,77.0,0,21,2.0,62.0
2329,45.0,0,42,5.0,62.0
2330,60.0,0,42,10.0,75.0
2331,45.0,24,42,11.0,49.0
2332,33.0,0,42,12.0,101.0
2333,45.0,0,42,13.0,49.0
2334,65.0,0,42,13.0,49.0
2335,62.0,0,42,13.0,49.0
2336,75.0,0,21,2.0,62.0
2337,75.0,24,21,6.0,75.0
2338,75.0,0,21,7.0,75.0
2339,77.0,0,21,6.0,75.0
2340,77.0,24,21,7.0,75.0
2341,77.0,0,21,2.0,62.0
2342,70.0,0,132,4.0,62.0
2343,31.0,0,42,12.0,101.0
2344,70.0,0,42,13.0,49.0
2345,74.0,0,138,3.0,62.0
2346,43.0,0,42,13.0,49.0
2347,43.0,0,42,11.0,49.0
2348,74.0,0,138,8.0,75.0
2349,43.0,0,42,5.0,62.0
2350,58.0,0,42,10.0,75.0
2351,62.0,0,42,13.0,49.0
2352,70.0,0,21,6.0,75.0
2353,70.0,24,21,7.0,75.0
2354,70.0,0,21,2.0,62.0
2355,75.0,0,21,7.0,75.0
2356,72.0,0,21,8.0,75.0
2357,75.0,0,21,2.0,62.0
2358,72.0,0,21,3.0,62.0
2359,75.0,0,21,6.0,75.0
2360,48.0,0,42,5.0,62.0
2361,64.0,0,42,13.0,49.0
2362,36.0,0,42,12.0,101.0
2363,48.0,0,42,11.0,49.0
2364,67.0,0,42,13.0,49.0
2365,48.0,24,42,13.0,49.0
2366,67.0,0,42,10.0,75.0
2367,67.0,0,42,4.0,62.0
2368,70.0,0,21,8.0,75.0
2369,74.0,0,21,7.0,75.0
2370,74.0,0,21,6.0,75.0
2371,70.0,24,21,3.0,62.0
2372,74.0,0,21,2.0,62.0
2373,75.0,0,21,6.0,75.0
2374,75.0,0,21,7.0,75.0
2375,75.0,0,21,2.0,62.0
2376,64.0,0,42,13.0,49.0
2377,65.0,0,42,4.0,62.0
2378,33.0,0,42,12.0,101.0
2379,45.0,0,42,5.0,62.0
2380,60.0,0,42,10.0,75.0
2381,45.0,0,42,11.0,49.0
2382,69.0,0,42,13.0,49.0
2383,45.0,0,42,13.0,49.0
2384,74.0,0,21,2.0,62.0
2385,74.0,24,21,6.0,75.0
2386,74.0,0,21,7.0,75.0
2387,75.0,0,21,6.0,75.0
2388,75.0,0,21,7.0,75.0
2389,75.0,0,21,2.0,62.0
2390,67.0,0,42,4.0,62.0
2391,31.0,0,42,12.0,101.0
2392,43.0,0,42,13.0,49.0
2393,64.0,0,42,13.0,49.0
2394,58.0,0,42,10.0,75.0
2395,43.0,0,42,11.0,49.0
2396,60.0,0,42,13.0,49.0
2397,43.0,24,42,5.0,62.0
2398,74.0,0,21,7.0,75.0
2399,74.0,24,21,2.0,62.0
2400,74.0,0,21,6.0,75.0
2401,75.0,0,21,7.0,75.0
2402,75.0,0,21,2.0,62.0
2403,75.0,0,21,6.0,75.0
2404,72.0,0,138,8.0,75.0
2405,41.0,0,42,5.0,62.0
2406,41.0,0,42,11.0,49.0
2407,69.0,0,42,13.0,49.0
2408,60.0,0,42,13.0,49.0
2409,72.0,24,138,3.0,62.0
2410,57.0,24,42,10.0,75.0
2411,29.0,0,42,12.0,101.0
2412,69.0,0,42,4.0,62.0
2413,41.0,0,42,13.0,49.0
2414,69.0,24,21,2.0,62.0
2415,69.0,0,21,7.0,75.0
2416,69.0,0,21,6.0,75.0
2417,70.0,0,21,8.0,75.0
2418,70.0,0,21,3.0,62.0
2419,74.0,0,21,7.0,75.0
2420,74.0,0,21,2.0,62.0
2421,74.0,24,21,6.0,75.0
2422,46.0,0,42,5.0,62.0
2423,62.0,0,42,4.0,62.0
2424,65.0,0,42,10.0,75.0
2425,46.0,0,42,13.0,49.0
2426,34.0,0,42,12.0,101.0
2427,62.0,0,42,13.0,49.0
2428,65.0,0,42,13.0,49.0
2429,46.0,0,42,11.0,49.0
2430,72.0,0,21,2.0,62.0
2431,69.0,0,21,3.0,62.0
2432,72.0,0,21,6.0,75.0
2433,69.0,24,21,8.0,75.0
2434,72.0,0,21,7.0,75.0
2435,74.0,0,21,6.0,75.0
2436,74.0,0,21,7.0,75.0
2437,74.0,0,21,2.0,62.0
2438,43.0,0,42,13.0,49.0
2439,43.0,0,42,5.0,62.0
2440,31.0,0,42,12.0,101.0
2441,43.0,0,42,11.0,49.0
2442,70.0,0,42,13.0,49.0
2443,62.0,0,42,13.0,49.0
2444,58.0,0,42,10.0,75.0
2445,72.0,24,21,6.0,75.0
2446,72.0,0,21,7.0,75.0
2447,72.0,0,21,2.0,62.0
2448,74.0,0,21,6.0,75.0
2449,74.0,0,21,7.0,75.0
2450,74.0,0,21,2.0,62.0
2451,29.0,0,42,12.0,101.0
2452,41.0,24,42,5.0,62.0
2453,70.0,0,42,13.0,49.0
2454,41.0,0,42,11.0,49.0
2455,57.0,0,42,10.0,75.0
2456,62.0,0,42,13.0,49.0
2457,41.0,0,42,13.0,49.0
2458,72.0,24,21,7.0,75.0
2459,72.0,0,21,6.0,75.0
2460,72.0,0,21,2.0,62.0
2461,70.0,0,117,3.0,62.0
2462,70.0,0,117,8.0,75.0
2463,74.0,0,21,2.0,62.0
2464,74.0,0,21,6.0,75.0
2465,74.0,0,21,7.0,75.0
2466,67.0,24,132,4.0,62.0
2467,55.0,0,42,10.0,75.0
2468,72.0,0,21,3.0,62.0
2469,72.0,24,21,8.0,75.0
2470,67.0,0,21,6.0,75.0
2471,67.0,0,21,2.0,62.0
2472,67.0,0,21,7.0,75.0
2473,70.0,0,21,8.0,75.0
2474,70.0,0,21,3.0,62.0
2475,79.0,24,21,2.0,62.0
2476,79.0,0,21,7.0,75.0
2477,79.0,0,21,6.0,75.0
2478,39.0,24,84,11.0,49.0
2479,39.0,0,84,5.0,62.0
2480,39.0,0,84,13.0,49.0
2481,70.0,0,84,13.0,49.0
2482,67.0,0,84,13.0,49.0
2483,27.0,0,84,12.0,101.0
2484,63.0,0,42,4.0,62.0
2485,58.0,0,42,10.0,75.0
2486,77.0,0,21,2.0,62.0
2487,77.0,0,21,6.0,75.0
2488,77.0,24,21,7.0,75.0
2489,68.0,0,21,3.0,62.0
2490,68.0,0,21,8.0,75.0
2491,67.0,0,21,8.0,75.0
2492,75.0,0,21,7.0,75.0
2493,67.0,0,21,3.0,62.0
2494,75.0,0,21,6.0,75.0
2495,75.0,0,21,2.0,62.0
2496,63.0,24,42,10.0,75.0
2497,70.0,0,42,4.0,62.0
2498,74.0,0,21,6.0,75.0
2499,74.0,0,21,7.0,75.0
2500,65.0,0,21,8.0,75.0
2501,74.0,24,21,2.0,62.0
2502,65.0,0,21,3.0,62.0
2503,63.0,0,21,3.0,62.0
2504,72.0,0,21,7.0,75.0
2505,63.0,0,21,8.0,75.0
2506,72.0,0,21,2.0,62.0
2507,72.0,24,21,6.0,75.0
2508,67.0,0,42,4.0,62.0
2509,67.0,0,42,10.0,75.0
2510,62.0,0,21,3.0,62.0
2511,70.0,0,21,7.0,75.0
2512,70.0,0,21,6.0,75.0
2513,62.0,24,21,8.0,75.0
2514,70.0,0,21,2.0,62.0
2515,69.0,0,21,7.0,75.0
2516,51.0,0,69,11.0,49.0
2517,69.0,24,21,6.0,75.0
2518,51.0,0,69,13.0,49.0
2519,39.0,0,69,12.0,101.0
2520,51.0,0,69,5.0,62.0
2521,69.0,0,21,2.0,62.0
2522,53.0,0,21,13.0,49.0
2523,53.0,0,21,5.0,62.0
2524,53.0,24,21,11.0,49.0
2525,67.0,0,21,6.0,75.0
2526,67.0,0,21,7.0,75.0
2527,41.0,0,21,12.0,101.0
2528,67.0,0,21,2.0,62.0
2529,51.0,0,21,13.0,49.0
2530,65.0,0,21,2.0,62.0
2531,65.0,0,21,7.0,75.0
2532,51.0,0,21,11.0,49.0
2533,51.0,0,21,5.0,62.0
2534,65.0,24,21,6.0,75.0
2535,39.0,0,21,12.0,101.0
2536,60.0,0,84,3.0,62.0
2537,60.0,0,84,8.0,75.0
2538,65.0,0,84,10.0,75.0
2539,69.0,0,84,13.0,49.0
2540,65.0,0,84,4.0,62.0
2541,65.0,0,84,13.0,49.0
2542,50.0,24,21,5.0,62.0
2543,67.0,0,21,7.0,75.0
2544,67.0,0,21,6.0,75.0
2545,38.0,0,21,12.0,101.0
2546,67.0,0,21,2.0,62.0
2547,50.0,0,21,11.0,49.0
2548,50.0,0,21,13.0,49.0
2549,69.0,0,21,2.0,62.0
2550,48.0,0,21,5.0,62.0
2551,48.0,0,21,13.0,49.0
2552,36.0,0,21,12.0,101.0
2553,69.0,0,21,7.0,75.0
2554,69.0,0,21,6.0,75.0
2555,48.0,24,21,11.0,49.0
2556,46.0,0,21,5.0,62.0
2557,46.0,0,21,13.0,49.0
2558,70.0,0,21,7.0,75.0
2559,46.0,24,21,11.0,49.0
2560,34.0,0,21,12.0,101.0
2561,70.0,0,21,2.0,62.0
2562,70.0,0,21,6.0,75.0
2563,72.0,0,21,7.0,75.0
2564,72.0,0,21,6.0,75.0
2565,72.0,0,21,2.0,62.0
2566,33.0,0,21,12.0,101.0
2567,45.0,0,21,5.0,62.0
2568,45.0,0,21,13.0,49.0
2569,45.0,0,21,11.0,49.0
2570,65.0,0,42,10.0,75.0
2571,75.0,0,42,3.0,62.0
2572,75.0,0,42,8.0,75.0
2573,63.0,0,42,13.0,49.0
2574,65.0,24,42,4.0,62.0
2575,74.0,0,21,6.0,75.0
2576,43.0,24,21,11.0,49.0
2577,31.0,0,21,12.0,101.0
2578,74.0,0,21,2.0,62.0
2579,43.0,0,21,5.0,62.0
2580,43.0,0,21,13.0,49.0
2581,74.0,0,21,7.0,75.0
2582,41.0,0,42,11.0,49.0
2583,69.0,0,42,3.0,62.0
2584,41.0,0,42,5.0,62.0
2585,69.0,24,42,8.0,75.0
2586,60.0,0,42,4.0,62.0
2587,29.0,0,42,12.0,101.0
2588,60.0,0,42,10.0,75.0
2589,60.0,0,42,13.0,49.0
2590,69.0,0,42,13.0,49.0
2591,41.0,0,42,13.0,49.0
2592,75.0,0,63,2.0,62.0
2593,75.0,0,63,7.0,75.0
2594,75.0,0,63,6.0,75.0
2595,62.0,48,21,4.0,62.0
2596,70.0,0,21,3.0,62.0
2597,62.0,0,21,10.0,75.0
2598,70.0,0,21,8.0,75.0
2599,34.0,0,42,12.0,101.0
2600,46.0,0,42,5.0,62.0
2601,46.0,0,42,11.0,49.0
2602,62.0,0,42,13.0,49.0
2603,65.0,0,42,13.0,49.0
2604,46.0,0,42,13.0,49.0
2605,77.0,24,21,7.0,75.0
2606,77.0,0,21,6.0,75.0
2607,72.0,0,21,8.0,75.0
2608,72.0,0,21,3.0,62.0
2609,63.0,0,21,4.0,62.0
2610,63.0,0,21,10.0,75.0
2611,77.0,0,21,2.0,62.0
2612,70.0,0,10,8.0,75.0
2613,69.0,12,10,8.0,75.0
2614,70.0,12,10,8.0,75.0
2615,65.0,0,42,4.0,62.0
2616,60.0,0,42,13.0,49.0
2617,69.0,0,42,13.0,49.0
2618,65.0,0,42,10.0,75.0
2619,53.0,0,42,11.0,49.0
2620,41.0,0,42,12.0,101.0
2621,53.0,0,42,13.0,49.0
2622,53.0,0,42,5.0,62.0
2623,69.0,12,10,8.0,75.0
2624,70.0,0,10,8.0,75.0
2625,72.0,0,63,6.0,75.0
2626,72.0,24,63,2.0,62.0
2627,72.0,0,63,7.0,75.0
2628,69.0,0,63,3.0,62.0
2629,69.0,12,10,8.0,75.0
2630,60.0,0,42,4.0,62.0
2631,60.0,0,42,13.0,49.0
2632,60.0,0,42,10.0,75.0
2633,29.0,0,42,12.0,101.0
2634,41.0,12,42,5.0,62.0
2635,69.0,0,42,13.0,49.0
2636,41.0,0,42,13.0,49.0
2637,41.0,0,42,11.0,49.0
2638,70.0,0,21,6.0,75.0
2639,65.0,12,21,8.0,75.0
2640,70.0,0,21,2.0,62.0
2641,70.0,0,21,7.0,75.0
2642,70.0,0,21,3.0,62.0
2643,46.0,0,42,5.0,62.0
2644,46.0,0,42,13.0,49.0
2645,65.0,0,42,13.0,49.0
2646,62.0,24,42,13.0,49.0
2647,46.0,0,42,11.0,49.0
2648,34.0,0,42,12.0,101.0
2649,74.0,0,21,0.0,127.0
2650,70.0,0,21,1.0,127.0
2651,62.0,0,84,10.0,75.0
2652,70.0,0,84,3.0,62.0
2653,70.0,0,84,7.0,75.0
2654,70.0,0,84,6.0,75.0
2655,70.0,0,84,2.0,62.0
2656,62.0,0,84,4.0,62.0
2657,65.0,0,84,8.0,75.0
2658,58.0,0,42,5.0,62.0
2659,46.0,0,42,12.0,101.0
2660,58.0,0,42,11.0,49.0
2661,58.0,48,42,13.0,49.0
2662,72.0,0,21,0.0,127.0
2663,69.0,24,21,1.0,127.0
2664,74.0,0,21,0.0,127.0
2665,70.0,0,21,1.0,127.0
2666,60.0,0,42,5.0,62.0
2667,48.0,24,42,12.0,101.0
2668,60.0,0,42,13.0,49.0
2669,60.0,0,42,11.0,49.0
2670,72.0,0,21,1.0,127.0
2671,75.0,24,21,0.0,127.0
2672,74.0,0,21,0.0,127.0
2673,70.0,0,21,1.0,127.0
2674,62.0,0,42,5.0,62.0
2675,62.0,0,42,13.0,49.0
2676,62.0,24,42,11.0,49.0
2677,50.0,0,42,12.0,101.0
2678,69.0,24,21,1.0,127.0
2679,72.0,0,21,0.0,127.0
2680,70.0,24,42,0.0,127.0
2681,51.0,0,42,12.0,101.0
2682,63.0,0,42,5.0,62.0
2683,67.0,0,42,1.0,127.0
2684,63.0,0,42,11.0,49.0
2685,63.0,0,42,13.0,49.0
2686,69.0,0,21,1.0,127.0
2687,72.0,48,21,0.0,127.0
2688,57.0,0,42,13.0,49.0
2689,45.0,0,42,12.0,101.0
2690,57.0,0,42,5.0,62.0
2691,57.0,0,42,11.0,49.0
2692,70.0,0,21,0.0,127.0
2693,67.0,24,21,1.0,127.0
2694,72.0,24,21,0.0,127.0
2695,69.0,0,21,1.0,127.0
2696,58.0,0,42,11.0,49.0
2697,58.0,0,42,13.0,49.0
2698,46.0,0,42,12.0,101.0
2699,58.0,0,42,5.0,62.0
2700,70.0,0,21,1.0,127.0
2701,74.0,24,21,0.0,127.0
2702,72.0,0,21,0.0,127.0
2703,69.0,0,21,1.0,127.0
2704,60.0,0,42,13.0,49.0
2705,60.0,0,42,5.0,62.0
2706,48.0,24,42,12.0,101.0
2707,60.0,0,42,11.0,49.0
2708,67.0,0,21,1.0,127.0
2709,70.0,24,21,0.0,127.0
2710,62.0,0,42,13.0,49.0
2711,62.0,0,42,5.0,62.0
2712,62.0,0,42,11.0,49.0
2713,50.0,24,42,12.0,101.0
2714,70.0,0,21,3.0,62.0
2715,79.0,48,21,2.0,62.0
2716,69.0,0,84,0.0,127.0
2717,65.0,0,84,1.0,127.0
2718,55.0,0,42,5.0,62.0
2719,55.0,0,42,11.0,49.0
2720,55.0,0,42,13.0,49.0
2721,43.0,0,42,12.0,101.0
2722,77.0,0,21,2.0,62.0
2723,69.0,24,21,3.0,62.0
2724,79.0,0,21,2.0,62.0
2725,70.0,0,21,3.0,62.0
2726,45.0,0,42,12.0,101.0
2727,57.0,24,42,13.0,49.0
2728,57.0,0,42,11.0,49.0
2729,57.0,0,42,5.0,62.0
2730,72.0,0,21,3.0,62.0
2731,81.0,24,21,2.0,62.0
2732,70.0,0,21,3.0,62.0
2733,79.0,0,21,2.0,62.0
2734,58.0,0,42,5.0,62.0
2735,58.0,0,42,11.0,49.0
2736,58.0,0,42,13.0,49.0
2737,46.0,24,42,12.0,101.0
2738,77.0,0,21,2.0,62.0
2739,69.0,24,21,3.0,62.0
2740,60.0,0,42,13.0,49.0
2741,60.0,0,42,11.0,49.0
2742,48.0,24,42,12.0,101.0
2743,60.0,0,42,5.0,62.0
2744,67.0,0,42,3.0,62.0
2745,76.0,0,42,2.0,62.0
2746,69.0,0,21,3.0,62.0
2747,77.0,0,21,2.0,62.0
2748,41.0,0,42,12.0,101.0
2749,53.0,0,42,5.0,62.0
2750,53.0,0,42,11.0,49.0
2751,53.0,48,42,13.0,49.0
2752,67.0,24,21,3.0,62.0
2753,76.0,0,21,2.0,62.0
2754,77.0,24,21,2.0,62.0
2755,69.0,0,21,3.0,62.0
2756,55.0,0,42,13.0,49.0
2757,43.0,0,42,12.0,101.0
2758,55.0,0,42,11.0,49.0
2759,55.0,0,42,5.0,62.0
2760,79.0,24,21,2.0,62.0
2761,70.0,0,21,3.0,62.0
2762,69.0,0,21,3.0,62.0
2763,77.0,0,21,2.0,62.0
2764,57.0,0,42,11.0,49.0
2765,57.0,24,42,13.0,49.0
2766,57.0,0,42,5.0,62.0
2767,45.0,0,42,12.0,101.0
2768,67.0,0,21,3.0,62.0
2769,76.0,24,21,2.0,62.0
2770,58.0,0,42,13.0,49.0
2771,58.0,0,42,5.0,62.0
2772,46.0,24,42,12.0,101.0
2773,58.0,0,42,11.0,49.0
2774,67.0,0,21,8.0,75.0
2775,76.0,0,21,6.0,75.0
2776,76.0,0,21,7.0,75.0
2777,74.0,0,84,2.0,62.0
2778,65.0,0,84,3.0,62.0
2779,52.0,48,42,5.0,62.0
2780,52.0,0,42,11.0,49.0
2781,52.0,0,42,13.0,49.0
2782,40.0,0,42,12.0,101.0
2783,74.0,0,21,6.0,75.0
2784,74.0,0,21,7.0,75.0
2785,65.0,24,21,8.0,75.0
2786,76.0,0,21,6.0,75.0
2787,67.0,0,21,8.0,75.0
2788,76.0,0,21,7.0,75.0
2789,53.0,24,42,13.0,49.0
2790,41.0,0,42,12.0,101.0
2791,53.0,0,42,5.0,62.0
2792,53.0,0,42,11.0,49.0
2793,77.0,24,21,6.0,75.0
2794,77.0,0,21,7.0,75.0
2795,69.0,0,21,8.0,75.0
2796,67.0,0,21,8.0,75.0
2797,76.0,0,21,6.0,75.0
2798,76.0,0,21,7.0,75.0
2799,55.0,24,42,11.0,49.0
2800,43.0,0,42,12.0,101.0
2801,55.0,0,42,13.0,49.0
2802,55.0,0,42,5.0,62.0
2803,74.0,0,21,6.0,75.0
2804,74.0,0,21,7.0,75.0
2805,65.0,24,21,8.0,75.0
2806,73.0,0,21,7.0,75.0
2807,64.0,0,21,8.0,75.0
2808,73.0,0,21,6.0,75.0
2809,57.0,0,42,5.0,62.0
2810,45.0,24,42,12.0,101.0
2811,57.0,0,42,13.0,49.0
2812,57.0,0,42,11.0,49.0
2813,74.0,24,21,6.0,75.0
2814,62.0,0,21,8.0,75.0
2815,74.0,0,21,7.0,75.0
2816,76.0,0,21,6.0,75.0
2817,61.0,24,21,8.0,75.0
2818,76.0,0,21,7.0,75.0
2819,52.0,0,42,5.0,62.0
2820,52.0,0,42,11.0,49.0
2821,40.0,0,42,12.0,101.0
2822,52.0,0,42,13.0,49.0
2823,62.0,0,21,8.0,75.0
2824,77.0,0,21,7.0,75.0
2825,77.0,24,21,6.0,75.0
2826,64.0,0,21,8.0,75.0
2827,79.0,0,21,6.0,75.0
2828,79.0,0,21,7.0,75.0
2829,49.0,24,42,5.0,62.0
2830,49.0,0,42,13.0,49.0
2831,49.0,0,42,11.0,49.0
2832,37.0,0,42,12.0,101.0
2833,77.0,24,21,6.0,75.0
2834,77.0,0,21,7.0,75.0
2835,62.0,0,21,8.0,75.0
2836,79.0,0,21,7.0,75.0
2837,64.0,0,21,8.0,75.0
2838,79.0,0,21,6.0,75.0
2839,45.0,0,42,5.0,62.0
2840,33.0,0,42,12.0,101.0
2841,45.0,24,42,11.0,49.0
2842,45.0,0,42,13.0,49.0
2843,76.0,24,21,7.0,75.0
2844,76.0,0,21,6.0,75.0
2845,61.0,0,21,8.0,75.0
2846,62.0,0,42,8.0,75.0
2847,77.0,24,42,6.0,75.0
2848,77.0,0,42,7.0,75.0
2849,65.0,0,21,4.0,62.0
2850,57.0,0,21,0.0,127.0
2851,74.0,0,21,2.0,62.0
2852,69.0,0,21,3.0,62.0
2853,50.0,0,84,5.0,62.0
2854,50.0,0,84,13.0,49.0
2855,50.0,0,84,11.0,49.0
2856,38.0,0,84,12.0,101.0
2857,62.0,0,42,7.0,75.0
2858,62.0,0,42,6.0,75.0
2859,57.0,0,42,8.0,75.0
2860,53.0,48,42,10.0,75.0
2861,64.0,0,21,4.0,62.0
2862,57.0,24,21,0.0,127.0
2863,67.0,0,21,3.0,62.0
2864,73.0,0,21,2.0,62.0
2865,69.0,0,21,3.0,62.0
2866,74.0,0,21,2.0,62.0
2867,65.0,0,21,4.0,62.0
2868,57.0,0,21,0.0,127.0
2869,57.0,24,42,10.0,75.0
2870,65.0,0,42,6.0,75.0
2871,65.0,0,42,7.0,75.0
2872,62.0,0,42,8.0,75.0
2873,57.0,24,21,0.0,127.0
2874,73.0,0,21,2.0,62.0
2875,67.0,0,21,3.0,62.0
2876,64.0,0,21,4.0,62.0
2877,65.0,0,21,4.0,62.0
2878,74.0,0,21,2.0,62.0
2879,65.0,0,21,3.0,62.0
2880,57.0,0,21,0.0,127.0
2881,61.0,0,42,10.0,75.0
2882,65.0,0,42,8.0,75.0
2883,45.0,0,42,5.0,62.0
2884,33.0,0,42,12.0,101.0
2885,69.0,0,42,7.0,75.0
2886,61.0,0,42,13.0,49.0
2887,65.0,0,42,13.0,49.0
2888,45.0,0,42,13.0,49.0
2889,45.0,24,42,11.0,49.0
2890,69.0,0,42,6.0,75.0
2891,67.0,24,21,3.0,62.0
2892,64.0,0,21,4.0,62.0
2893,73.0,0,21,2.0,62.0
2894,57.0,0,21,0.0,127.0
2895,65.0,0,21,3.0,62.0
2896,62.0,0,42,4.0,62.0
2897,46.0,0,42,13.0,49.0
2898,65.0,24,42,10.0,75.0
2899,46.0,0,42,11.0,49.0
2900,34.0,0,42,12.0,101.0
2901,62.0,0,42,13.0,49.0
2902,74.0,0,42,7.0,75.0
2903,62.0,0,42,8.0,75.0
2904,65.0,0,42,13.0,49.0
2905,74.0,0,42,2.0,62.0
2906,74.0,0,42,6.0,75.0
2907,46.0,0,42,5.0,62.0
2908,64.0,24,21,3.0,62.0
2909,65.0,0,21,3.0,62.0
2910,65.0,0,21,8.0,75.0
2911,57.0,0,21,1.0,127.0
2912,53.0,0,84,0.0,127.0
2913,41.0,0,42,5.0,62.0
2914,74.0,0,42,4.0,62.0
2915,69.0,0,42,6.0,75.0
2916,69.0,0,42,2.0,62.0
2917,41.0,24,42,11.0,49.0
2918,41.0,0,42,13.0,49.0
2919,69.0,0,42,7.0,75.0
2920,29.0,0,42,12.0,101.0
2921,62.0,0,42,10.0,75.0
2922,69.0,0,42,13.0,49.0
2923,62.0,0,42,13.0,49.0
2924,57.0,24,21,1.0,127.0
2925,64.0,0,21,8.0,75.0
2926,64.0,0,21,3.0,62.0
2927,57.0,0,21,1.0,127.0
2928,65.0,24,21,8.0,75.0
2929,65.0,0,21,3.0,62.0
2930,70.0,0,42,6.0,75.0
2931,70.0,0,42,7.0,75.0
2932,70.0,0,42,2.0,62.0
2933,62.0,0,42,10.0,75.0
2934,62.0,0,42,13.0,49.0
2935,67.0,0,42,13.0,49.0
2936,43.0,0,42,13.0,49.0
2937,74.0,0,42,4.0,62.0
2938,43.0,0,42,5.0,62.0
2939,31.0,0,42,12.0,101.0
2940,43.0,0,42,11.0,49.0
2941,57.0,24,21,1.0,127.0
2942,64.0,0,21,8.0,75.0
2943,64.0,0,21,3.0,62.0
2944,69.0,0,21,2.0,62.0
2945,69.0,0,21,7.0,75.0
2946,65.0,0,21,3.0,62.0
2947,57.0,0,21,1.0,127.0
2948,65.0,0,21,8.0,75.0
2949,69.0,0,21,6.0,75.0
2950,45.0,0,42,11.0,49.0
2951,57.0,0,42,10.0,75.0
2952,61.0,0,42,13.0,49.0
2953,33.0,0,42,12.0,101.0
2954,64.0,0,42,13.0,49.0
2955,45.0,0,42,13.0,49.0
2956,45.0,0,42,5.0,62.0
2957,73.0,24,42,4.0,62.0
2958,57.0,0,21,1.0,127.0
2959,64.0,24,21,8.0,75.0
2960,67.0,0,21,7.0,75.0
2961,67.0,0,21,2.0,62.0
2962,67.0,0,21,6.0,75.0
2963,64.0,0,21,3.0,62.0
2964,65.0,0,21,7.0,75.0
2965,65.0,0,21,6.0,75.0
2966,65.0,0,21,2.0,62.0
2967,74.0,0,42,4.0,62.0
2968,62.0,0,42,3.0,62.0
2969,38.0,0,42,11.0,49.0
2970,57.0,0,42,1.0,127.0
2971,69.0,0,42,13.0,49.0
2972,38.0,0,42,13.0,49.0
2973,57.0,24,42,10.0,75.0
2974,26.0,0,42,12.0,101.0
2975,62.0,0,42,8.0,75.0
2976,38.0,0,42,5.0,62.0
2977,65.0,0,42,13.0,49.0
2978,64.0,24,21,2.0,62.0
2979,64.0,0,21,6.0,75.0
2980,64.0,0,21,7.0,75.0
2981,62.0,0,21,7.0,75.0
2982,62.0,0,21,6.0,75.0
2983,50.0,0,21,11.0,49.0
2984,38.0,0,21,12.0,101.0
2985,50.0,0,21,13.0,49.0
2986,50.0,0,21,5.0,62.0
2987,62.0,0,21,2.0,62.0
2988,65.0,0,21,8.0,75.0
2989,65.0,0,21,3.0,62.0
2990,53.0,24,42,1.0,127.0
2991,53.0,0,42,10.0,75.0
2992,69.0,0,42,4.0,62.0
2993,64.0,0,21,3.0,62.0
2994,49.0,0,21,11.0,49.0
2995,49.0,0,21,13.0,49.0
2996,64.0,0,21,7.0,75.0
2997,64.0,0,21,2.0,62.0
2998,64.0,0,21,8.0,75.0
2999,64.0,24,21,6.0,75.0
3000,49.0,0,21,5.0,62.0
3001,37.0,0,21,12.0,101.0
3002,62.0,0,21,3.0,62.0
3003,50.0,0,21,13.0,49.0
3004,65.0,24,21,6.0,75.0
3005,38.0,0,21,12.0,101.0
3006,65.0,0,21,7.0,75.0
3007,65.0,0,21,2.0,62.0
3008,50.0,0,21,11.0,49.0
3009,50.0,0,21,5.0,62.0
3010,62.0,0,21,8.0,75.0
3011,65.0,0,42,4.0,62.0
3012,57.0,0,42,10.0,75.0
3013,49.0,0,21,5.0,62.0
3014,64.0,0,21,3.0,62.0
3015,37.0,0,21,12.0,101.0
3016,67.0,0,21,6.0,75.0
3017,67.0,0,21,2.0,62.0
3018,67.0,0,21,7.0,75.0
3019,49.0,0,21,11.0,49.0
3020,64.0,24,21,8.0,75.0
3021,49.0,0,21,13.0,49.0
3022,65.0,0,21,3.0,62.0
3023,38.0,0,21,12.0,101.0
3024,50.0,0,21,11.0,49.0
3025,65.0,0,21,7.0,75.0
3026,65.0,24,21,2.0,62.0
3027,50.0,0,21,5.0,62.0
3028,50.0,0,21,13.0,49.0
3029,65.0,0,21,6.0,75.0
3030,65.0,0,21,8.0,75.0
3031,62.0,0,42,4.0,62.0
3032,62.0,0,42,10.0,75.0
3033,34.0,0,21,12.0,101.0
3034,67.0,0,21,6.0,75.0
3035,46.0,24,21,11.0,49.0
3036,62.0,0,21,8.0,75.0
3037,46.0,0,21,5.0,62.0
3038,67.0,0,21,7.0,75.0
3039,67.0,0,21,2.0,62.0
3040,46.0,0,21,13.0,49.0
3041,62.0,0,21,3.0,62.0
3042,69.0,0,21,6.0,75.0
3043,69.0,0,21,2.0,62.0
3044,69.0,0,21,7.0,75.0
3045,48.0,0,42,5.0,62.0
3046,69.0,0,42,13.0,49.0
3047,57.0,0,42,10.0,75.0
3048,48.0,0,42,11.0,49.0
3049,69.0,0,42,4.0,62.0
3050,64.0,0,42,3.0,62.0
3051,64.0,24,42,13.0,49.0
3052,48.0,0,42,13.0,49.0
3053,64.0,0,42,8.0,75.0
3054,36.0,0,42,12.0,101.0
3055,70.0,0,21,7.0,75.0
3056,70.0,24,21,2.0,62.0
3057,70.0,0,21,6.0,75.0
3058,72.0,0,21,2.0,62.0
3059,72.0,0,21,7.0,75.0
3060,72.0,24,21,6.0,75.0
3061,45.0,0,42,5.0,62.0
3062,64.0,0,42,10.0,75.0
3063,45.0,0,42,13.0,49.0
3064,64.0,0,42,13.0,49.0
3065,60.0,0,42,13.0,49.0
3066,69.0,0,42,8.0,75.0
3067,33.0,0,42,12.0,101.0
3068,45.0,0,42,11.0,49.0
3069,69.0,0,42,3.0,62.0
3070,64.0,0,42,4.0,62.0
3071,69.0,0,21,2.0,62.0
3072,69.0,24,21,6.0,75.0
3073,69.0,0,21,7.0,75.0
3074,74.0,0,21,6.0,75.0
3075,74.0,0,21,2.0,62.0
3076,74.0,0,21,7.0,75.0
3077,46.0,0,42,11.0,49.0
3078,62.0,0,42,4.0,62.0
3079,34.0,0,42,12.0,101.0
3080,46.0,0,42,5.0,62.0
3081,62.0,0,42,13.0,49.0
3082,65.0,0,42,13.0,49.0
3083,46.0,24,42,13.0,49.0
3084,62.0,0,42,10.0,75.0
3085,65.0,0,42,3.0,62.0
3086,65.0,0,42,8.0,75.0
3087,77.0,0,21,7.0,75.0
3088,77.0,0,21,2.0,62.0
3089,77.0,24,21,6.0,75.0
3090,76.0,0,21,7.0,75.0
3091,76.0,0,21,6.0,75.0
3092,76.0,0,21,2.0,62.0
3093,67.0,0,42,10.0,75.0
3094,43.0,0,42,5.0,62.0
3095,43.0,0,42,11.0,49.0
3096,70.0,0,42,8.0,75.0
3097,67.0,0,42,4.0,62.0
3098,62.0,0,42,13.0,49.0
3099,70.0,0,42,3.0,62.0
3100,70.0,0,42,13.0,49.0
3101,31.0,24,42,12.0,101.0
3102,43.0,0,42,13.0,49.0
3103,74.0,0,21,7.0,75.0
3104,74.0,0,21,2.0,62.0
3105,74.0,24,21,6.0,75.0
3106,69.0,0,42,8.0,75.0
3107,45.0,0,42,13.0,49.0
3108,64.0,0,42,13.0,49.0
3109,64.0,0,42,10.0,75.0
3110,45.0,0,42,11.0,49.0
3111,73.0,24,42,6.0,75.0
3112,73.0,0,42,7.0,75.0
3113,61.0,0,42,13.0,49.0
3114,69.0,0,42,3.0,62.0
3115,73.0,0,42,2.0,62.0
3116,33.0,0,42,12.0,101.0
3117,45.0,0,42,5.0,62.0
3118,64.0,0,42,4.0,62.0
3119,67.0,0,21,4.0,62.0
3120,73.0,0,21,3.0,62.0
3121,57.0,0,21,0.0,127.0
3122,76.0,0,21,2.0,62.0
3123,64.0,0,42,13.0,49.0
3124,69.0,0,42,7.0,75.0
3125,64.0,0,42,8.0,75.0
3126,57.0,0,42,11.0,49.0
3127,61.0,0,42,10.0,75.0
3128,61.0,0,42,13.0,49.0
3129,57.0,0,42,13.0,49.0
3130,69.0,48,42,6.0,75.0
3131,45.0,0,42,12.0,101.0
3132,57.0,0,42,5.0,62.0
3133,57.0,24,21,0.0,127.0
3134,65.0,0,21,4.0,62.0
3135,71.0,0,21,3.0,62.0
3136,74.0,0,21,2.0,62.0
3137,67.0,24,21,4.0,62.0
3138,76.0,0,21,2.0,62.0
3139,73.0,0,21,3.0,62.0
3140,57.0,0,21,0.0,127.0
3141,73.0,0,42,7.0,75.0
3142,69.0,0,42,8.0,75.0
3143,64.0,0,42,10.0,75.0
3144,73.0,0,42,6.0,75.0
3145,65.0,0,21,4.0,62.0
3146,71.0,0,21,3.0,62.0
3147,74.0,24,21,2.0,62.0
3148,57.0,0,21,0.0,127.0
3149,76.0,24,21,2.0,62.0
3150,57.0,0,21,0.0,127.0
3151,67.0,0,21,4.0,62.0
3152,73.0,0,21,3.0,62.0
3153,76.0,0,42,6.0,75.0
3154,69.0,0,42,10.0,75.0
3155,76.0,0,42,7.0,75.0
3156,73.0,0,42,8.0,75.0
3157,71.0,0,21,3.0,62.0
3158,74.0,24,21,2.0,62.0
3159,65.0,0,21,4.0,62.0
3160,57.0,0,21,0.0,127.0
3161,81.0,24,42,7.0,75.0
3162,57.0,0,42,10.0,75.0
3163,81.0,0,42,6.0,75.0
3164,76.0,0,42,2.0,62.0
3165,76.0,0,42,8.0,75.0
3166,73.0,0,42,3.0,62.0
3167,67.0,0,42,4.0,62.0
3168,69.0,0,21,7.0,75.0
3169,57.0,0,21,1.0,127.0
3170,69.0,0,21,2.0,62.0
3171,69.0,0,21,6.0,75.0
3172,69.0,48,21,10.0,75.0
3173,69.0,0,21,4.0,62.0
3174,57.0,0,84,0.0,127.0
3175,45.0,0,42,13.0,49.0
3176,45.0,0,42,5.0,62.0
3177,73.0,0,42,3.0,62.0
3178,60.0,0,42,13.0,49.0
3179,73.0,0,42,8.0,75.0
3180,33.0,0,42,12.0,101.0
3181,45.0,0,42,11.0,49.0
3182,70.0,24,21,7.0,75.0
3183,67.0,0,21,10.0,75.0
3184,67.0,0,21,4.0,62.0
3185,70.0,0,21,6.0,75.0
3186,57.0,0,21,1.0,127.0
3187,70.0,0,21,2.0,62.0
3188,57.0,0,21,1.0,127.0
3189,69.0,0,21,7.0,75.0
3190,69.0,0,21,6.0,75.0
3191,69.0,0,21,2.0,62.0
3192,47.0,0,42,5.0,62.0
3193,74.0,0,42,8.0,75.0
3194,74.0,0,42,3.0,62.0
3195,35.0,0,42,12.0,101.0
3196,65.0,0,42,4.0,62.0
3197,47.0,0,42,11.0,49.0
3198,65.0,0,42,10.0,75.0
3199,62.0,0,42,13.0,49.0
3200,47.0,24,42,13.0,49.0
3201,67.0,0,21,6.0,75.0
3202,67.0,0,21,7.0,75.0
3203,67.0,24,21,2.0,62.0
3204,57.0,0,21,1.0,127.0
3205,65.0,0,21,7.0,75.0
3206,65.0,0,21,2.0,62.0
3207,57.0,0,21,1.0,127.0
3208,65.0,0,21,6.0,75.0
3209,64.0,0,42,10.0,75.0
3210,64.0,24,42,13.0,49.0
3211,49.0,0,42,13.0,49.0
3212,76.0,0,42,3.0,62.0
3213,49.0,0,42,5.0,62.0
3214,64.0,0,42,4.0,62.0
3215,76.0,0,42,8.0,75.0
3216,37.0,0,42,12.0,101.0
3217,49.0,0,42,11.0,49.0
3218,64.0,24,21,7.0,75.0
3219,57.0,0,21,1.0,127.0
3220,64.0,0,21,6.0,75.0
3221,64.0,0,21,2.0,62.0
3222,38.0,0,42,5.0,62.0
3223,69.0,0,42,3.0,62.0
3224,69.0,0,42,8.0,75.0
3225,38.0,0,42,11.0,49.0
3226,65.0,0,42,2.0,62.0
3227,65.0,0,42,6.0,75.0
3228,62.0,0,42,4.0,62.0
3229,61.0,0,42,13.0,49.0
3230,64.0,0,42,13.0,49.0
3231,38.0,0,42,13.0,49.0
3232,62.0,0,42,10.0,75.0
3233,65.0,0,42,7.0,75.0
3234,26.0,24,42,12.0,101.0
3235,69.0,0,21,0.0,127.0
3236,72.0,0,21,4.0,62.0
3237,78.0,48,21,3.0,62.0
3238,81.0,0,21,2.0,62.0
3239,57.0,0,84,1.0,127.0
3240,50.0,0,42,10.0,75.0
3241,50.0,0,42,5.0,62.0
3242,62.0,0,42,6.0,75.0
3243,62.0,0,42,7.0,75.0
3244,50.0,0,42,13.0,49.0
3245,57.0,0,42,8.0,75.0
3246,50.0,0,42,11.0,49.0
3247,61.0,0,42,13.0,49.0
3248,38.0,0,42,12.0,101.0
3249,69.0,0,21,0.0,127.0
3250,76.0,0,21,3.0,62.0
3251,70.0,24,21,4.0,62.0
3252,79.0,0,21,2.0,62.0
3253,78.0,0,21,3.0,62.0
3254,72.0,0,21,4.0,62.0
3255,81.0,24,21,2.0,62.0
3256,69.0,0,21,0.0,127.0
3257,57.0,0,42,10.0,75.0
3258,66.0,0,42,7.0,75.0
3259,62.0,0,42,8.0,75.0
3260,66.0,0,42,6.0,75.0
3261,76.0,0,21,3.0,62.0
3262,70.0,0,21,4.0,62.0
3263,79.0,0,21,2.0,62.0
3264,69.0,24,21,0.0,127.0
3265,69.0,0,21,0.0,127.0
3266,72.0,0,21,4.0,62.0
3267,78.0,0,21,3.0,62.0
3268,81.0,0,21,2.0,62.0
3269,66.0,0,42,8.0,75.0
3270,69.0,0,42,7.0,75.0
3271,69.0,0,42,6.0,75.0
3272,62.0,24,42,10.0,75.0
3273,69.0,0,21,0.0,127.0
3274,70.0,0,21,4.0,62.0
3275,76.0,24,21,3.0,62.0
3276,79.0,0,21,2.0,62.0
3277,72.0,0,42,6.0,75.0
3278,81.0,0,42,2.0,62.0
3279,69.0,0,42,8.0,75.0
3280,72.0,0,42,4.0,62.0
3281,78.0,0,42,3.0,62.0
3282,72.0,0,42,7.0,75.0
3283,50.0,24,42,10.0,75.0
3284,69.0,0,63,0.0,127.0
3285,74.0,0,21,7.0,75.0
3286,74.0,0,21,4.0,62.0
3287,74.0,48,21,6.0,75.0
3288,74.0,0,21,10.0,75.0
3289,74.0,0,21,2.0,62.0
3290,69.0,0,21,1.0,127.0
3291,78.0,0,42,3.0,62.0
3292,50.0,0,42,5.0,62.0
3293,50.0,0,42,13.0,49.0
3294,50.0,0,42,11.0,49.0
3295,78.0,0,42,8.0,75.0
3296,66.0,0,42,13.0,49.0
3297,38.0,0,42,12.0,101.0
3298,74.0,0,21,0.0,127.0
3299,72.0,0,21,4.0,62.0
3300,75.0,0,21,2.0,62.0
3301,69.0,0,21,1.0,127.0
3302,72.0,24,21,10.0,75.0
3303,75.0,0,21,6.0,75.0
3304,75.0,0,21,7.0,75.0
3305,74.0,0,21,2.0,62.0
3306,74.0,0,21,6.0,75.0
3307,74.0,0,21,7.0,75.0
3308,69.0,0,21,1.0,127.0
3309,79.0,0,42,8.0,75.0
3310,74.0,0,42,4.0,62.0
3311,74.0,0,42,10.0,75.0
3312,79.0,0,42,3.0,62.0
3313,52.0,24,42,11.0,49.0
3314,40.0,0,42,12.0,101.0
3315,67.0,0,42,13.0,49.0
3316,52.0,0,42,5.0,62.0
3317,52.0,0,42,13.0,49.0
3318,69.0,0,21,1.0,127.0
3319,72.0,0,21,6.0,75.0
3320,72.0,0,21,2.0,62.0
3321,72.0,24,21,7.0,75.0
3322,69.0,0,21,1.0,127.0
3323,70.0,0,21,2.0,62.0
3324,70.0,0,21,7.0,75.0
3325,70.0,0,21,6.0,75.0
3326,54.0,0,42,13.0,49.0
3327,81.0,0,42,8.0,75.0
3328,42.0,0,42,12.0,101.0
3329,54.0,0,42,11.0,49.0
3330,81.0,0,42,3.0,62.0
3331,69.0,0,42,13.0,49.0
3332,62.0,24,42,10.0,75.0
3333,62.0,0,42,4.0,62.0
3334,54.0,0,42,5.0,62.0
3335,69.0,0,21,1.0,127.0
3336,69.0,0,21,6.0,75.0
3337,69.0,24,21,7.0,75.0
3338,69.0,0,21,2.0,62.0
3339,70.0,0,21,6.0,75.0
3340,70.0,0,21,2.0,62.0
3341,70.0,0,21,7.0,75.0
3342,55.0,0,42,5.0,62.0
3343,43.0,0,42,12.0,101.0
3344,67.0,0,42,4.0,62.0
3345,55.0,0,42,11.0,49.0
3346,62.0,0,42,13.0,49.0
3347,67.0,0,42,10.0,75.0
3348,74.0,24,42,3.0,62.0
3349,70.0,0,42,13.0,49.0
3350,55.0,0,42,13.0,49.0
3351,74.0,0,42,8.0,75.0
3352,74.0,0,21,2.0,62.0
3353,74.0,0,21,7.0,75.0
3354,74.0,24,21,6.0,75.0
3355,67.0,0,63,1.0,127.0
3356,79.0,0,21,2.0,62.0
3357,79.0,0,21,7.0,75.0
3358,79.0,0,21,6.0,75.0
3359,60.0,0,42,13.0,49.0
3360,72.0,0,42,3.0,62.0
3361,66.0,0,42,4.0,62.0
3362,66.0,0,42,13.0,49.0
3363,57.0,0,42,13.0,49.0
3364,45.0,24,42,12.0,101.0
3365,66.0,0,42,10.0,75.0
3366,72.0,0,42,8.0,75.0
3367,57.0,0,42,11.0,49.0
3368,57.0,0,42,5.0,62.0
3369,72.0,24,21,1.0,127.0
3370,81.0,0,21,7.0,75.0
3371,81.0,0,21,2.0,62.0
3372,81.0,0,21,6.0,75.0
3373,79.0,0,21,2.0,62.0
3374,79.0,0,21,7.0,75.0
3375,79.0,24,21,6.0,75.0
3376,58.0,0,42,11.0,49.0
3377,62.0,0,42,10.0,75.0
3378,46.0,0,42,12.0,101.0
3379,74.0,0,42,3.0,62.0
3380,62.0,0,42,4.0,62.0
3381,74.0,0,42,8.0,75.0
3382,62.0,0,42,13.0,49.0
3383,67.0,0,42,13.0,49.0
3384,58.0,0,42,13.0,49.0
3385,58.0,0,42,5.0,62.0
3386,77.0,0,21,2.0,62.0
3387,77.0,24,21,7.0,75.0
3388,77.0,0,21,6.0,75.0
3389,76.0,24,21,2.0,62.0
3390,76.0,0,21,7.0,75.0
3391,76.0,0,21,6.0,75.0
3392,55.0,0,42,5.0,62.0
3393,70.0,0,42,13.0,49.0
3394,43.0,0,42,12.0,101.0
3395,62.0,0,42,13.0,49.0
3396,67.0,0,42,10.0,75.0
3397,55.0,0,42,13.0,49.0
3398,70.0,0,42,8.0,75.0
3399,67.0,0,42,4.0,62.0
3400,70.0,0,42,3.0,62.0
3401,55.0,0,42,11.0,49.0
3402,74.0,24,21,6.0,75.0
3403,74.0,0,21,7.0,75.0
3404,74.0,0,21,2.0,62.0
3405,73.0,0,21,6.0,75.0
3406,73.0,0,21,7.0,75.0
3407,73.0,0,21,2.0,62.0
3408,64.0,0,42,13.0,49.0
3409,57.0,0,42,13.0,49.0
3410,64.0,0,42,10.0,75.0
3411,69.0,0,42,3.0,62.0
3412,57.0,0,42,11.0,49.0
3413,64.0,0,42,4.0,62.0
3414,45.0,24,42,12.0,101.0
3415,69.0,0,42,8.0,75.0
3416,61.0,0,42,13.0,49.0
3417,57.0,0,42,5.0,62.0
3418,71.0,24,21,2.0,62.0
3419,71.0,0,21,6.0,75.0
3420,71.0,0,21,7.0,75.0
3421,58.0,0,21,13.0,49.0
3422,69.0,0,21,6.0,75.0
3423,57.0,0,21,0.0,127.0
3424,58.0,0,21,11.0,49.0
3425,69.0,0,21,7.0,75.0
3426,46.0,0,21,12.0,101.0
3427,69.0,24,21,2.0,62.0
3428,58.0,0,21,5.0,62.0
3429,64.0,0,42,3.0,62.0
3430,64.0,0,42,8.0,75.0
3431,69.0,0,42,13.0,49.0
3432,61.0,0,42,10.0,75.0
3433,69.0,0,42,4.0,62.0
3434,64.0,0,42,13.0,49.0
3435,45.0,0,21,12.0,101.0
3436,71.0,0,21,6.0,75.0
3437,71.0,0,21,7.0,75.0
3438,71.0,0,21,2.0,62.0
3439,57.0,0,21,5.0,62.0
3440,57.0,0,21,0.0,127.0
3441,57.0,24,21,11.0,49.0
3442,57.0,0,21,13.0,49.0
3443,69.0,0,21,3.0,62.0
3444,55.0,24,21,5.0,62.0
3445,73.0,0,21,7.0,75.0
3446,57.0,0,21,0.0,127.0
3447,55.0,0,21,11.0,49.0
3448,69.0,0,21,8.0,75.0
3449,73.0,0,21,6.0,75.0
3450,55.0,0,21,13.0,49.0
3451,73.0,0,21,2.0,62.0
3452,43.0,0,21,12.0,101.0
3453,64.0,0,42,4.0,62.0
3454,73.0,0,42,13.0,49.0
3455,64.0,0,42,13.0,49.0
3456,64.0,0,42,10.0,75.0
3457,53.0,0,21,13.0,49.0
3458,71.0,0,21,3.0,62.0
3459,41.0,0,21,12.0,101.0
3460,74.0,0,21,2.0,62.0
3461,57.0,0,21,0.0,127.0
3462,53.0,0,21,5.0,62.0
3463,74.0,0,21,7.0,75.0
3464,74.0,0,21,6.0,75.0
3465,71.0,0,21,8.0,75.0
3466,53.0,24,21,11.0,49.0
3467,73.0,0,21,8.0,75.0
3468,52.0,0,21,13.0,49.0
3469,57.0,0,21,0.0,127.0
3470,76.0,0,21,6.0,75.0
3471,73.0,0,21,3.0,62.0
3472,52.0,0,21,5.0,62.0
3473,52.0,0,21,11.0,49.0
3474,76.0,0,21,2.0,62.0
3475,40.0,0,21,12.0,101.0
3476,76.0,0,21,7.0,75.0
3477,73.0,0,42,13.0,49.0
3478,69.0,0,42,4.0,62.0
3479,69.0,24,42,10.0,75.0
3480,64.0,0,42,13.0,49.0
3481,77.0,24,21,2.0,62.0
3482,50.0,0,21,11.0,49.0
3483,74.0,0,21,3.0,62.0
3484,50.0,0,21,5.0,62.0
3485,74.0,0,21,8.0,75.0
3486,50.0,0,21,13.0,49.0
3487,77.0,0,21,6.0,75.0
3488,38.0,0,21,12.0,101.0
3489,57.0,0,21,0.0,127.0
3490,77.0,0,21,7.0,75.0
3491,79.0,0,21,2.0,62.0
3492,49.0,0,21,5.0,62.0
3493,49.0,0,21,11.0,49.0
3494,37.0,0,21,12.0,101.0
3495,76.0,0,21,3.0,62.0
3496,49.0,0,21,13.0,49.0
3497,69.0,0,42,4.0,62.0
3498,74.0,0,21,3.0,62.0
3499,77.0,24,21,2.0,62.0
3500,50.0,0,21,5.0,62.0
3501,38.0,0,21,12.0,101.0
3502,50.0,0,21,13.0,49.0
3503,50.0,0,21,11.0,49.0
3504,79.0,0,21,2.0,62.0
3505,67.0,24,21,4.0,62.0
3506,40.0,0,21,12.0,101.0
3507,52.0,0,21,11.0,49.0
3508,73.0,0,21,3.0,62.0
3509,52.0,0,21,13.0,49.0
3510,52.0,0,21,5.0,62.0
3511,57.0,0,21,1.0,127.0
3512,79.0,0,84,6.0,75.0
3513,57.0,24,84,0.0,127.0
3514,76.0,0,84,8.0,75.0
3515,79.0,0,84,7.0,75.0
3516,69.0,0,84,10.0,75.0
3517,69.0,0,84,13.0,49.0
3518,64.0,0,84,13.0,49.0
3519,50.0,24,21,5.0,62.0
3520,50.0,0,21,13.0,49.0
3521,50.0,0,21,11.0,49.0
3522,69.0,0,21,4.0,62.0
3523,57.0,0,21,1.0,127.0
3524,77.0,0,21,2.0,62.0
3525,38.0,0,21,12.0,101.0
3526,74.0,0,21,3.0,62.0
3527,37.0,0,21,12.0,101.0
3528,49.0,0,21,5.0,62.0
3529,49.0,0,21,13.0,49.0
3530,49.0,0,21,11.0,49.0
3531,57.0,24,21,1.0,127.0
3532,76.0,0,21,3.0,62.0
3533,79.0,0,21,2.0,62.0
3534,70.0,0,42,4.0,62.0
3535,47.0,24,21,11.0,49.0
3536,47.0,0,21,5.0,62.0
3537,35.0,0,21,12.0,101.0
3538,57.0,0,21,1.0,127.0
3539,77.0,0,21,2.0,62.0
3540,74.0,0,21,3.0,62.0
3541,47.0,0,21,13.0,49.0
3542,57.0,0,21,1.0,127.0
3543,45.0,0,21,11.0,49.0
3544,45.0,0,21,13.0,49.0
3545,79.0,0,21,2.0,62.0
3546,33.0,0,21,12.0,101.0
3547,45.0,24,21,5.0,62.0
3548,73.0,0,21,3.0,62.0
3549,73.0,0,42,13.0,49.0
3550,64.0,0,42,4.0,62.0
3551,64.0,0,42,13.0,49.0
3552,43.0,0,21,13.0,49.0
3553,77.0,0,21,2.0,62.0
3554,43.0,0,21,5.0,62.0
3555,74.0,0,21,3.0,62.0
3556,31.0,24,21,12.0,101.0
3557,43.0,0,21,11.0,49.0
3558,57.0,0,21,1.0,127.0
3559,79.0,0,69,7.0,75.0
3560,79.0,0,21,2.0,62.0
3561,76.0,0,69,8.0,75.0
3562,79.0,0,69,6.0,75.0
3563,76.0,24,21,3.0,62.0
3564,81.0,0,10,2.0,62.0
3565,81.0,24,10,7.0,75.0
3566,81.0,0,10,6.0,75.0
3567,29.0,0,42,12.0,101.0
3568,69.0,0,42,4.0,62.0
3569,41.0,0,42,5.0,62.0
3570,57.0,0,42,1.0,127.0
3571,41.0,0,42,11.0,49.0
3572,69.0,0,90,10.0,75.0
3573,64.0,0,42,13.0,49.0
3574,69.0,0,42,13.0,49.0
3575,41.0,0,42,13.0,49.0
3576,69.0,0,21,3.0,62.0
3577,69.0,0,21,8.0,75.0
3578,79.0,0,10,7.0,75.0
3579,79.0,12,10,2.0,62.0
3580,79.0,0,10,6.0,75.0
3581,77.0,0,10,2.0,62.0
3582,77.0,0,10,6.0,75.0
3583,77.0,0,10,7.0,75.0
3584,74.0,0,21,3.0,62.0
3585,57.0,0,21,1.0,127.0
3586,74.0,0,21,8.0,75.0
3587,69.0,0,21,0.0,127.0
3588,79.0,12,10,2.0,62.0
3589,79.0,0,10,7.0,75.0
3590,79.0,0,10,6.0,75.0
3591,69.0,12,42,10.0,75.0
3592,38.0,0,42,12.0,101.0
3593,50.0,0,42,11.0,49.0
3594,50.0,0,42,5.0,62.0
3595,50.0,0,42,13.0,49.0
3596,69.0,0,42,13.0,49.0
3597,69.0,0,42,4.0,62.0
3598,66.0,0,42,13.0,49.0
3599,81.0,0,21,6.0,75.0
3600,76.0,0,21,8.0,75.0
3601,81.0,0,21,2.0,62.0
3602,67.0,0,21,0.0,127.0
3603,76.0,12,21,3.0,62.0
3604,81.0,0,21,7.0,75.0
3605,57.0,0,21,1.0,127.0
3606,57.0,24,21,1.0,127.0
3607,69.0,0,21,0.0,127.0
3608,45.0,0,42,12.0,101.0
3609,57.0,0,42,13.0,49.0
3610,69.0,0,42,4.0,62.0
3611,61.0,0,42,13.0,49.0
3612,57.0,0,42,5.0,62.0
3613,69.0,0,42,10.0,75.0
3614,57.0,0,42,11.0,49.0
3615,69.0,0,42,13.0,49.0
3616,57.0,0,21,1.0,127.0
3617,67.0,24,21,0.0,127.0
3618,73.0,0,63,3.0,62.0
3619,76.0,0,63,7.0,75.0
3620,76.0,0,63,6.0,75.0
3621,73.0,0,63,8.0,75.0
3622,76.0,0,63,2.0,62.0
3623,69.0,0,21,0.0,127.0
3624,57.0,0,21,1.0,127.0
3625,69.0,0,42,13.0,49.0
3626,64.0,0,42,4.0,62.0
3627,33.0,0,42,12.0,101.0
3628,61.0,0,42,13.0,49.0
3629,45.0,0,42,13.0,49.0
3630,45.0,0,42,11.0,49.0
3631,64.0,0,42,10.0,75.0
3632,45.0,24,42,5.0,62.0
3633,57.0,0,21,1.0,127.0
3634,74.0,0,21,6.0,75.0
3635,74.0,0,21,2.0,62.0
3636,74.0,0,21,7.0,75.0
3637,74.0,24,21,8.0,75.0
3638,67.0,0,21,0.0,127.0
3639,74.0,0,21,3.0,62.0
3640,57.0,0,42,1.0,127.0
3641,65.0,0,42,4.0,62.0
3642,74.0,0,42,2.0,62.0
3643,74.0,0,42,3.0,62.0
3644,65.0,0,42,0.0,127.0
3645,69.0,0,21,0.0,127.0
3646,65.0,48,21,1.0,127.0
3647,74.0,0,84,6.0,75.0
3648,50.0,0,84,5.0,62.0
3649,74.0,0,84,7.0,75.0
3650,74.0,0,84,8.0,75.0
3651,65.0,0,84,13.0,49.0
3652,50.0,0,84,11.0,49.0
3653,70.0,0,84,13.0,49.0
3654,38.0,0,84,12.0,101.0
3655,65.0,24,84,10.0,75.0
3656,50.0,0,84,13.0,49.0
3657,74.0,0,42,4.0,62.0
3658,74.0,0,42,2.0,62.0
3659,74.0,0,42,3.0,62.0
3660,67.0,0,21,0.0,127.0
3661,64.0,24,21,1.0,127.0
3662,69.0,0,21,0.0,127.0
3663,65.0,0,21,1.0,127.0
3664,72.0,24,42,2.0,62.0
3665,72.0,0,42,4.0,62.0
3666,72.0,0,42,3.0,62.0
3667,67.0,0,21,0.0,127.0
3668,64.0,24,21,1.0,127.0
3669,65.0,0,21,1.0,127.0
3670,69.0,0,21,0.0,127.0
3671,70.0,0,42,2.0,62.0
3672,70.0,0,42,3.0,62.0
3673,70.0,24,42,4.0,62.0
3674,70.0,24,21,0.0,127.0
3675,67.0,0,21,1.0,127.0
3676,69.0,24,21,1.0,127.0
3677,72.0,0,21,0.0,127.0
3678,69.0,0,42,4.0,62.0
3679,69.0,0,42,2.0,62.0
3680,69.0,0,42,3.0,62.0
3681,67.0,24,21,1.0,127.0
3682,71.0,0,21,0.0,127.0
3683,72.0,0,21,0.0,127.0
3684,69.0,0,21,1.0,127.0
3685,67.0,24,42,2.0,62.0
3686,67.0,0,42,4.0,62.0
3687,67.0,0,42,3.0,62.0
3688,71.0,0,21,1.0,127.0
3689,74.0,24,21,0.0,127.0
3690,69.0,0,21,1.0,127.0
3691,72.0,24,21,0.0,127.0
3692,66.0,0,42,4.0,62.0
3693,66.0,0,42,3.0,62.0
3694,66.0,0,42,2.0,62.0
3695,71.0,0,21,1.0,127.0
3696,74.0,24,21,0.0,127.0
3697,69.0,24,21,1.0,127.0
3698,72.0,0,21,0.0,127.0
3699,64.0,0,42,2.0,62.0
3700,62.0,0,42,3.0,62.0
3701,62.0,0,42,4.0,62.0
3702,71.0,24,21,1.0,127.0
3703,74.0,0,21,0.0,127.0
3704,67.0,0,42,2.0,62.0
3705,67.0,0,42,1.0,127.0
3706,67.0,24,42,4.0,62.0
3707,67.0,0,42,3.0,62.0
3708,71.0,0,42,0.0,127.0
3709,71.0,0,21,3.0,62.0
3710,74.0,0,21,2.0,62.0
3711,43.0,0,84,5.0,62.0
3712,31.0,0,84,12.0,101.0
3713,43.0,0,84,11.0,49.0
3714,70.0,0,84,13.0,49.0
3715,43.0,0,84,13.0,49.0
3716,67.0,0,42,8.0,75.0
3717,67.0,48,42,7.0,75.0
3718,67.0,0,42,10.0,75.0
3719,69.0,24,21,3.0,62.0
3720,72.0,0,21,2.0,62.0
3721,71.0,0,21,3.0,62.0
3722,74.0,0,21,2.0,62.0
3723,65.0,24,42,8.0,75.0
3724,65.0,0,42,7.0,75.0
3725,65.0,0,42,10.0,75.0
3726,69.0,24,21,3.0,62.0
3727,72.0,0,21,2.0,62.0
3728,71.0,0,21,3.0,62.0
3729,74.0,0,21,2.0,62.0
3730,64.0,24,42,7.0,75.0
3731,64.0,0,42,8.0,75.0
3732,64.0,0,42,10.0,75.0
3733,72.0,0,21,3.0,62.0
3734,76.0,24,21,2.0,62.0
3735,77.0,0,21,2.0,62.0
3736,74.0,0,21,3.0,62.0
3737,62.0,0,42,8.0,75.0
3738,62.0,0,42,7.0,75.0
3739,62.0,24,42,10.0,75.0
3740,72.0,24,21,3.0,62.0
3741,76.0,0,21,2.0,62.0
3742,74.0,0,21,3.0,62.0
3743,77.0,0,21,2.0,62.0
3744,60.0,24,42,10.0,75.0
3745,60.0,0,42,7.0,75.0
3746,60.0,0,42,8.0,75.0
3747,76.0,0,21,3.0,62.0
3748,79.0,24,21,2.0,62.0
3749,77.0,0,21,2.0,62.0
3750,74.0,24,21,3.0,62.0
3751,59.0,0,42,8.0,75.0
3752,59.0,0,42,10.0,75.0
3753,59.0,0,42,7.0,75.0
3754,76.0,24,21,3.0,62.0
3755,79.0,0,21,2.0,62.0
3756,77.0,0,21,2.0,62.0
3757,74.0,0,21,3.0,62.0
3758,55.0,24,42,7.0,75.0
3759,55.0,0,42,10.0,75.0
3760,57.0,0,42,8.0,75.0
3761,79.0,24,21,2.0,62.0
3762,76.0,0,21,3.0,62.0
3763,60.0,0,42,8.0,75.0
3764,48.0,0,42,5.0,62.0
3765,72.0,0,42,3.0,62.0
3766,76.0,0,42,2.0,62.0
3767,60.0,0,42,7.0,75.0
3768,48.0,0,42,13.0,49.0
3769,36.0,0,42,12.0,101.0
3770,48.0,0,42,11.0,49.0
3771,79.0,0,21,7.0,75.0
3772,76.0,0,21,8.0,75.0
3773,79.0,0,21,6.0,75.0
3774,72.0,24,84,13.0,49.0
3775,60.0,0,36,13.0,49.0
3776,60.0,0,84,10.0,75.0
3777,60.0,48,42,5.0,62.0
3778,60.0,0,42,11.0,49.0
3779,48.0,0,42,12.0,101.0
3780,74.0,0,21,8.0,75.0
3781,77.0,24,21,7.0,75.0
3782,77.0,0,21,6.0,75.0
3783,79.0,0,21,6.0,75.0
3784,79.0,0,21,7.0,75.0
3785,76.0,0,21,8.0,75.0
3786,58.0,0,42,13.0,49.0
3787,58.0,0,42,11.0,49.0
3788,46.0,0,42,12.0,101.0
3789,58.0,24,42,5.0,62.0
3790,77.0,0,21,7.0,75.0
3791,77.0,24,21,6.0,75.0
3792,74.0,0,21,8.0,75.0
3793,79.0,0,21,7.0,75.0
3794,76.0,0,21,8.0,75.0
3795,79.0,0,21,6.0,75.0
3796,57.0,0,42,5.0,62.0
3797,57.0,0,42,13.0,49.0
3798,57.0,0,42,11.0,49.0
3799,45.0,24,42,12.0,101.0
3800,81.0,0,21,6.0,75.0
3801,81.0,0,21,7.0,75.0
3802,77.0,24,21,8.0,75.0
3803,82.0,24,21,6.0,75.0
3804,82.0,0,21,7.0,75.0
3805,79.0,0,21,8.0,75.0
3806,55.0,0,42,5.0,62.0
3807,55.0,0,42,11.0,49.0
3808,55.0,0,42,13.0,49.0
3809,43.0,0,42,12.0,101.0
3810,77.0,0,21,8.0,75.0
3811,81.0,24,21,6.0,75.0
3812,81.0,0,21,7.0,75.0
3813,79.0,24,21,8.0,75.0
3814,82.0,0,21,7.0,75.0
3815,82.0,0,21,6.0,75.0
3816,53.0,0,42,5.0,62.0
3817,53.0,0,42,11.0,49.0
3818,53.0,0,42,13.0,49.0
3819,41.0,0,42,12.0,101.0
3820,84.0,24,21,6.0,75.0
3821,81.0,0,21,8.0,75.0
3822,84.0,0,21,7.0,75.0
3823,82.0,0,21,6.0,75.0
3824,79.0,0,21,8.0,75.0
3825,82.0,24,21,7.0,75.0
3826,52.0,0,42,13.0,49.0
3827,52.0,0,42,5.0,62.0
3828,40.0,0,42,12.0,101.0
3829,52.0,0,42,11.0,49.0
3830,84.0,0,21,7.0,75.0
3831,84.0,0,21,6.0,75.0
3832,81.0,24,21,8.0,75.0
3833,82.0,0,21,6.0,75.0
3834,82.0,24,21,7.0,75.0
3835,79.0,0,21,8.0,75.0
3836,36.0,0,42,12.0,101.0
3837,48.0,0,42,11.0,49.0
3838,48.0,0,42,13.0,49.0
3839,48.0,0,42,5.0,62.0
3840,81.0,0,21,8.0,75.0
3841,84.0,0,21,7.0,75.0
3842,84.0,24,21,6.0,75.0
3843,53.0,0,42,11.0,49.0
3844,53.0,0,42,5.0,62.0
3845,53.0,0,42,13.0,49.0
3846,41.0,0,42,12.0,101.0
3847,48.0,0,21,5.0,62.0
3848,48.0,0,21,13.0,49.0
3849,48.0,48,21,11.0,49.0
3850,36.0,0,21,12.0,101.0
3851,77.0,0,84,8.0,75.0
3852,81.0,24,84,6.0,75.0
3853,81.0,0,84,7.0,75.0
3854,69.0,0,42,3.0,62.0
3855,63.0,0,42,4.0,62.0
3856,72.0,0,42,2.0,62.0
3857,46.0,24,21,5.0,62.0
3858,34.0,0,21,12.0,101.0
3859,46.0,0,21,13.0,49.0
3860,46.0,0,21,11.0,49.0
3861,36.0,0,21,12.0,101.0
3862,48.0,0,21,11.0,49.0
3863,48.0,0,21,5.0,62.0
3864,48.0,24,21,13.0,49.0
3865,72.0,0,42,3.0,62.0
3866,69.0,0,42,4.0,62.0
3867,75.0,0,42,2.0,62.0
3868,46.0,0,21,11.0,49.0
3869,34.0,0,21,12.0,101.0
3870,46.0,24,21,5.0,62.0
3871,46.0,0,21,13.0,49.0
3872,48.0,0,21,11.0,49.0
3873,48.0,0,21,13.0,49.0
3874,48.0,0,21,5.0,62.0
3875,36.0,0,21,12.0,101.0
3876,72.0,0,180,0.0,127.0
3877,72.0,0,42,4.0,62.0
3878,69.0,0,42,13.0,49.0
3879,75.0,0,42,7.0,75.0
3880,63.0,0,42,10.0,75.0
3881,63.0,24,42,13.0,49.0
3882,75.0,0,42,3.0,62.0
3883,69.0,0,42,8.0,75.0
3884,81.0,0,42,2.0,62.0
3885,75.0,0,42,6.0,75.0
3886,50.0,0,21,13.0,49.0
3887,50.0,0,21,5.0,62.0
3888,38.0,0,21,12.0,101.0
3889,50.0,24,21,11.0,49.0
3890,51.0,0,21,5.0,62.0
3891,51.0,0,21,11.0,49.0
3892,51.0,0,21,13.0,49.0
3893,39.0,0,21,12.0,101.0
3894,70.0,0,42,7.0,75.0
3895,69.0,0,42,8.0,75.0
3896,70.0,0,42,6.0,75.0
3897,70.0,24,42,13.0,49.0
3898,63.0,0,42,13.0,49.0
3899,63.0,0,42,10.0,75.0
3900,53.0,0,21,13.0,49.0
3901,53.0,24,21,5.0,62.0
3902,41.0,0,21,12.0,101.0
3903,53.0,0,21,11.0,49.0
3904,46.0,0,21,5.0,62.0
3905,46.0,24,21,11.0,49.0
3906,34.0,0,21,12.0,101.0
3907,46.0,0,21,13.0,49.0
3908,69.0,0,180,1.0,127.0
3909,74.0,0,42,6.0,75.0
3910,70.0,0,42,13.0,49.0
3911,62.0,0,42,13.0,49.0
3912,70.0,0,42,8.0,75.0
3913,70.0,0,42,2.0,62.0
3914,74.0,0,42,7.0,75.0
3915,62.0,0,42,4.0,62.0
3916,62.0,0,42,10.0,75.0
3917,65.0,0,42,3.0,62.0
3918,45.0,0,21,5.0,62.0
3919,45.0,0,21,11.0,49.0
3920,33.0,0,21,12.0,101.0
3921,45.0,24,21,13.0,49.0
3922,46.0,0,21,11.0,49.0
3923,34.0,0,21,12.0,101.0
3924,46.0,0,21,5.0,62.0
3925,46.0,0,21,13.0,49.0
3926,70.0,24,42,3.0,62.0
3927,67.0,0,42,4.0,62.0
3928,74.0,0,42,2.0,62.0
3929,45.0,0,21,5.0,62.0
3930,45.0,0,21,13.0,49.0
3931,45.0,24,21,11.0,49.0
3932,33.0,0,21,12.0,101.0
3933,46.0,0,21,13.0,49.0
3934,46.0,0,21,11.0,49.0
3935,34.0,0,21,12.0,101.0
3936,46.0,24,21,5.0,62.0
3937,70.0,0,180,0.0,127.0
3938,67.0,0,42,8.0,75.0
3939,74.0,0,42,3.0,62.0
3940,62.0,0,42,10.0,75.0
3941,62.0,0,42,13.0,49.0
3942,67.0,0,42,13.0,49.0
3943,74.0,0,42,7.0,75.0
3944,74.0,0,42,6.0,75.0
3945,79.0,0,42,2.0,62.0
3946,70.0,0,42,4.0,62.0
3947,36.0,0,21,12.0,101.0
3948,48.0,0,21,11.0,49.0
3949,48.0,0,21,5.0,62.0
3950,48.0,24,21,13.0,49.0
3951,38.0,0,21,12.0,101.0
3952,50.0,0,21,5.0,62.0
3953,50.0,0,21,13.0,49.0
3954,50.0,0,21,11.0,49.0
3955,67.0,24,42,13.0,49.0
3956,57.0,0,42,13.0,49.0
3957,69.0,0,42,6.0,75.0
3958,67.0,0,42,8.0,75.0
3959,69.0,0,42,7.0,75.0
3960,62.0,0,42,10.0,75.0
3961,52.0,0,21,5.0,62.0
3962,40.0,0,21,12.0,101.0
3963,52.0,0,21,11.0,49.0
3964,52.0,24,21,13.0,49.0
3965,45.0,24,21,11.0,49.0
3966,33.0,0,21,12.0,101.0
3967,45.0,0,21,13.0,49.0
3968,45.0,0,21,5.0,62.0
3969,67.0,0,180,1.0,127.0
3970,60.0,0,42,10.0,75.0
3971,64.0,0,42,3.0,62.0
3972,69.0,0,42,8.0,75.0
3973,60.0,0,42,13.0,49.0
3974,72.0,0,42,6.0,75.0
3975,64.0,0,42,13.0,49.0
3976,72.0,0,42,7.0,75.0
3977,69.0,0,42,2.0,62.0
3978,60.0,0,42,4.0,62.0
3979,43.0,0,21,13.0,49.0
3980,43.0,0,21,11.0,49.0
3981,43.0,0,21,5.0,62.0
3982,31.0,24,21,12.0,101.0
3983,45.0,0,21,13.0,49.0
3984,33.0,24,21,12.0,101.0
3985,45.0,0,21,11.0,49.0
3986,45.0,0,21,5.0,62.0
3987,72.0,0,42,2.0,62.0
3988,69.0,0,42,3.0,62.0
3989,65.0,0,42,4.0,62.0
3990,43.0,24,21,13.0,49.0
3991,31.0,0,21,12.0,101.0
3992,43.0,0,21,5.0,62.0
3993,43.0,0,21,11.0,49.0
3994,33.0,0,21,12.0,101.0
3995,45.0,0,21,13.0,49.0
3996,45.0,0,21,5.0,62.0
3997,45.0,0,21,11.0,49.0
3998,69.0,0,180,0.0,127.0
3999,69.0,0,42,4.0,62.0
4000,72.0,0,42,3.0,62.0
4001,77.0,0,42,2.0,62.0
4002,65.0,0,42,8.0,75.0
4003,65.0,24,42,13.0,49.0
4004,60.0,0,42,10.0,75.0
4005,60.0,0,42,13.0,49.0
4006,72.0,0,42,7.0,75.0
4007,72.0,0,42,6.0,75.0
4008,46.0,0,21,13.0,49.0
4009,46.0,0,21,11.0,49.0
4010,46.0,24,21,5.0,62.0
4011,34.0,0,21,12.0,101.0
4012,67.0,0,21,0.0,127.0
4013,55.0,0,42,13.0,49.0
4014,65.0,0,138,1.0,127.0
4015,67.0,0,42,7.0,75.0
4016,36.0,0,42,12.0,101.0
4017,48.0,0,42,5.0,62.0
4018,65.0,0,42,8.0,75.0
4019,67.0,0,42,6.0,75.0
4020,65.0,0,42,13.0,49.0
4021,60.0,0,42,10.0,75.0
4022,48.0,24,42,11.0,49.0
4023,48.0,0,42,13.0,49.0
4024,69.0,24,21,0.0,127.0
4025,60.0,0,21,1.0,127.0
4026,67.0,0,21,0.0,127.0
4027,64.0,0,42,10.0,75.0
4028,70.0,0,42,7.0,75.0
4029,70.0,24,42,6.0,75.0
4030,43.0,0,42,11.0,49.0
4031,64.0,0,42,13.0,49.0
4032,60.0,0,42,13.0,49.0
4033,31.0,0,42,12.0,101.0
4034,67.0,0,42,8.0,75.0
4035,43.0,0,42,5.0,62.0
4036,43.0,0,42,13.0,49.0
4037,69.0,0,21,0.0,127.0
4038,65.0,24,21,1.0,127.0
4039,70.0,0,21,0.0,127.0
4040,67.0,0,21,1.0,127.0
4041,28.0,0,42,12.0,101.0
4042,64.0,0,42,13.0,49.0
4043,40.0,0,42,11.0,49.0
4044,40.0,0,42,5.0,62.0
4045,40.0,24,42,13.0,49.0
4046,72.0,24,21,0.0,127.0
4047,69.0,0,21,1.0,127.0
4048,70.0,24,21,0.0,127.0
4049,67.0,0,21,1.0,127.0
4050,36.0,0,42,5.0,62.0
4051,36.0,0,42,13.0,49.0
4052,36.0,0,42,11.0,49.0
4053,24.0,0,42,12.0,101.0
4054,60.0,0,42,13.0,49.0
4055,69.0,0,21,1.0,127.0
4056,72.0,24,21,0.0,127.0
4057,29.0,0,21,12.0,101.0
4058,41.0,0,21,13.0,49.0
4059,41.0,0,21,5.0,62.0
4060,41.0,0,21,11.0,49.0
4061,72.0,0,138,4.0,62.0
4062,79.0,0,138,2.0,62.0
4063,76.0,0,138,3.0,62.0
4064,36.0,24,21,12.0,101.0
4065,48.0,0,21,13.0,49.0
4066,48.0,0,21,5.0,62.0
4067,48.0,0,21,11.0,49.0
4068,53.0,0,21,5.0,62.0
4069,41.0,0,21,12.0,101.0
4070,53.0,0,21,13.0,49.0
4071,53.0,24,21,11.0,49.0
4072,65.0,0,42,3.0,62.0
4073,69.0,0,42,2.0,62.0
4074,60.0,0,42,4.0,62.0
4075,52.0,24,21,13.0,49.0
4076,40.0,0,21,12.0,101.0
4077,52.0,0,21,11.0,49.0
4078,52.0,0,21,5.0,62.0
4079,41.0,0,21,12.0,101.0
4080,53.0,0,21,5.0,62.0
4081,53.0,0,21,11.0,49.0
4082,53.0,0,21,13.0,49.0
4083,69.0,0,42,3.0,62.0
4084,65.0,24,42,4.0,62.0
4085,72.0,0,42,2.0,62.0
4086,52.0,0,21,13.0,49.0
4087,40.0,0,21,12.0,101.0
4088,52.0,0,21,11.0,49.0
4089,52.0,24,21,5.0,62.0
4090,53.0,0,21,13.0,49.0
4091,53.0,0,21,5.0,62.0
4092,41.0,0,21,12.0,101.0
4093,53.0,0,21,11.0,49.0
4094,72.0,0,180,6.0,75.0
4095,72.0,24,180,7.0,75.0
4096,69.0,0,42,4.0,62.0
4097,72.0,0,42,3.0,62.0
4098,77.0,24,42,2.0,62.0
4099,40.0,24,21,12.0,101.0
4100,52.0,0,21,5.0,62.0
4101,52.0,0,21,13.0,49.0
4102,52.0,0,21,11.0,49.0
4103,65.0,0,213,1.0,127.0
4104,69.0,0,213,0.0,127.0
4105,50.0,0,42,5.0,62.0
4106,50.0,0,42,11.0,49.0
4107,50.0,0,42,13.0,49.0
4108,38.0,0,42,12.0,101.0
4109,70.0,0,21,0.0,127.0
4110,67.0,24,21,1.0,127.0
4111,69.0,24,21,0.0,127.0
4112,65.0,0,21,1.0,127.0
4113,33.0,0,42,12.0,101.0
4114,45.0,0,42,13.0,49.0
4115,45.0,0,42,11.0,49.0
4116,45.0,0,42,5.0,62.0
4117,71.0,24,21,0.0,127.0
4118,67.0,0,21,1.0,127.0
4119,72.0,0,21,0.0,127.0
4120,69.0,0,21,1.0,127.0
4121,41.0,0,42,13.0,49.0
4122,41.0,24,42,11.0,49.0
4123,29.0,0,42,12.0,101.0
4124,41.0,0,42,5.0,62.0
4125,71.0,24,21,1.0,127.0
4126,74.0,0,21,0.0,127.0
4127,72.0,0,21,0.0,127.0
4128,69.0,0,21,1.0,127.0
4129,65.0,0,180,13.0,49.0
4130,69.0,0,372,8.0,75.0
4131,65.0,0,372,10.0,75.0
4132,69.0,0,180,13.0,49.0
4133,38.0,0,42,5.0,62.0
4134,38.0,24,42,13.0,49.0
4135,38.0,0,42,11.0,49.0
4136,26.0,0,42,12.0,101.0
4137,71.0,24,21,1.0,127.0
4138,74.0,0,21,0.0,127.0
4139,31.0,0,21,12.0,101.0
4140,43.0,0,21,13.0,49.0
4141,43.0,0,21,11.0,49.0
4142,43.0,0,21,5.0,62.0
4143,74.0,0,234,4.0,62.0
4144,81.0,24,234,2.0,62.0
4145,77.0,0,234,3.0,62.0
4146,38.0,0,21,12.0,101.0
4147,50.0,24,21,13.0,49.0
4148,50.0,0,21,5.0,62.0
4149,50.0,0,21,11.0,49.0
4150,55.0,0,21,11.0,49.0
4151,43.0,0,21,12.0,101.0
4152,55.0,0,21,5.0,62.0
4153,55.0,0,21,13.0,49.0
4154,71.0,24,42,2.0,62.0
4155,62.0,0,42,4.0,62.0
4156,67.0,0,42,3.0,62.0
4157,53.0,0,21,13.0,49.0
4158,41.0,24,21,12.0,101.0
4159,53.0,0,21,5.0,62.0
4160,53.0,0,21,11.0,49.0
4161,43.0,0,21,12.0,101.0
4162,55.0,0,21,11.0,49.0
4163,55.0,0,21,13.0,49.0
4164,55.0,0,21,5.0,62.0
4165,67.0,24,42,4.0,62.0
4166,74.0,0,42,2.0,62.0
4167,71.0,0,42,3.0,62.0
4168,53.0,0,21,11.0,49.0
4169,53.0,0,21,13.0,49.0
4170,41.0,0,21,12.0,101.0
4171,53.0,24,21,5.0,62.0
4172,43.0,0,21,12.0,101.0
4173,55.0,0,21,11.0,49.0
4174,55.0,0,21,13.0,49.0
4175,55.0,24,21,5.0,62.0
4176,74.0,0,372,6.0,75.0
4177,74.0,0,372,7.0,75.0
4178,79.0,0,42,2.0,62.0
4179,74.0,0,42,3.0,62.0
4180,71.0,0,42,4.0,62.0
4181,41.0,0,21,12.0,101.0
4182,53.0,24,21,11.0,49.0
4183,53.0,0,21,13.0,49.0
4184,53.0,0,21,5.0,62.0
4185,71.0,0,213,0.0,127.0
4186,67.0,0,213,1.0,127.0
4187,52.0,0,42,11.0,49.0
4188,52.0,0,42,13.0,49.0
4189,40.0,0,42,12.0,101.0
4190,52.0,0,42,5.0,62.0
4191,72.0,0,21,0.0,127.0
4192,69.0,24,21,1.0,127.0
4193,67.0,0,21,1.0,127.0
4194,71.0,0,21,0.0,127.0
4195,47.0,0,42,13.0,49.0
4196,47.0,0,42,5.0,62.0
4197,35.0,24,42,12.0,101.0
4198,47.0,0,42,11.0,49.0
4199,69.0,0,21,1.0,127.0
4200,72.0,24,21,0.0,127.0
4201,74.0,0,21,0.0,127.0
4202,71.0,0,21,1.0,127.0
4203,43.0,0,42,11.0,49.0
4204,43.0,0,42,13.0,49.0
4205,43.0,24,42,5.0,62.0
4206,31.0,0,42,12.0,101.0
4207,76.0,0,21,0.0,127.0
4208,72.0,24,21,1.0,127.0
4209,74.0,0,21,0.0,127.0
4210,71.0,0,21,1.0,127.0
4211,70.0,0,180,13.0,49.0
4212,71.0,24,372,8.0,75.0
4213,67.0,24,180,13.0,49.0
4214,67.0,0,372,10.0,75.0
4215,40.0,0,42,13.0,49.0
4216,40.0,24,42,5.0,62.0
4217,28.0,0,42,12.0,101.0
4218,40.0,0,42,11.0,49.0
4219,72.0,24,21,1.0,127.0
4220,76.0,0,21,0.0,127.0
4221,45.0,0,21,11.0,49.0
4222,45.0,24,21,5.0,62.0
4223,33.0,0,21,12.0,101.0
4224,45.0,0,21,13.0,49.0
4225,79.0,0,234,3.0,62.0
4226,76.0,0,234,4.0,62.0
4227,83.0,0,234,2.0,62.0
4228,52.0,0,21,5.0,62.0
4229,52.0,24,21,13.0,49.0
4230,52.0,0,21,11.0,49.0
4231,40.0,0,21,12.0,101.0
4232,57.0,0,21,11.0,49.0
4233,45.0,0,21,12.0,101.0
4234,57.0,0,21,13.0,49.0
4235,57.0,0,21,5.0,62.0
4236,64.0,24,42,4.0,62.0
4237,69.0,0,42,3.0,62.0
4238,72.0,0,42,2.0,62.0
4239,55.0,24,21,13.0,49.0
4240,55.0,0,21,11.0,49.0
4241,43.0,0,21,12.0,101.0
4242,55.0,0,21,5.0,62.0
4243,57.0,0,21,5.0,62.0
4244,57.0,0,21,13.0,49.0
4245,57.0,0,21,11.0,49.0
4246,45.0,0,21,12.0,101.0
4247,72.0,24,42,3.0,62.0
4248,69.0,0,42,4.0,62.0
4249,76.0,0,42,2.0,62.0
4250,55.0,0,21,11.0,49.0
4251,55.0,24,21,13.0,49.0
4252,43.0,0,21,12.0,101.0
4253,55.0,0,21,5.0,62.0
4254,45.0,24,21,12.0,101.0
4255,57.0,0,21,11.0,49.0
4256,57.0,0,21,13.0,49.0
4257,57.0,0,21,5.0,62.0
4258,76.0,0,372,7.0,75.0
4259,69.0,0,180,10.0,75.0
4260,76.0,0,372,6.0,75.0
4261,72.0,0,180,8.0,75.0
4262,76.0,0,42,3.0,62.0
4263,72.0,0,42,4.0,62.0
4264,81.0,0,42,2.0,62.0
4265,55.0,24,21,11.0,49.0
4266,43.0,0,21,12.0,101.0
4267,55.0,0,21,5.0,62.0
4268,55.0,0,21,13.0,49.0
4269,69.0,0,213,1.0,127.0
4270,72.0,0,213,0.0,127.0
4271,54.0,24,42,11.0,49.0
4272,54.0,0,42,13.0,49.0
4273,42.0,0,42,12.0,101.0
4274,54.0,0,42,5.0,62.0
4275,71.0,0,21,0.0,127.0
4276,67.0,24,21,1.0,127.0
4277,72.0,0,21,0.0,127.0
4278,69.0,0,21,1.0,127.0
4279,63.0,0,42,5.0,62.0
4280,69.0,0,42,13.0,49.0
4281,63.0,0,42,13.0,49.0
4282,63.0,0,42,11.0,49.0
4283,66.0,0,42,7.0,75.0
4284,72.0,0,42,13.0,49.0
4285,66.0,0,42,6.0,75.0
4286,57.0,24,42,10.0,75.0
4287,51.0,0,42,12.0,101.0
4288,60.0,0,42,8.0,75.0
4289,71.0,0,21,0.0,127.0
4290,67.0,24,21,1.0,127.0
4291,84.0,0,117,2.0,62.0
4292,81.0,0,117,3.0,62.0
4293,75.0,0,117,4.0,62.0
4294,69.0,0,42,13.0,49.0
4295,60.0,0,42,11.0,49.0
4296,48.0,0,42,12.0,101.0
4297,60.0,0,42,10.0,75.0
4298,69.0,0,42,7.0,75.0
4299,66.0,24,42,13.0,49.0
4300,60.0,0,42,5.0,62.0
4301,60.0,0,42,13.0,49.0
4302,69.0,0,42,6.0,75.0
4303,66.0,0,42,8.0,75.0
4304,79.0,0,21,3.0,62.0
4305,83.0,0,21,2.0,62.0
4306,74.0,24,21,4.0,62.0
4307,75.0,0,21,4.0,62.0
4308,81.0,0,21,3.0,62.0
4309,84.0,0,21,2.0,62.0
4310,45.0,0,42,12.0,101.0
4311,72.0,0,42,7.0,75.0
4312,69.0,24,42,8.0,75.0
4313,66.0,0,42,10.0,75.0
4314,57.0,0,42,13.0,49.0
4315,72.0,0,42,13.0,49.0
4316,66.0,0,42,13.0,49.0
4317,57.0,0,42,11.0,49.0
4318,57.0,0,42,5.0,62.0
4319,72.0,0,42,6.0,75.0
4320,83.0,0,21,2.0,62.0
4321,74.0,0,21,4.0,62.0
4322,79.0,24,21,3.0,62.0
4323,69.0,0,117,1.0,127.0
4324,72.0,0,117,0.0,127.0
4325,72.0,0,42,8.0,75.0
4326,75.0,0,42,7.0,75.0
4327,54.0,0,42,13.0,49.0
4328,75.0,0,42,13.0,49.0
4329,75.0,0,42,6.0,75.0
4330,54.0,24,42,5.0,62.0
4331,69.0,0,42,13.0,49.0
4332,42.0,0,42,12.0,101.0
4333,54.0,0,42,11.0,49.0
4334,69.0,0,42,10.0,75.0
4335,71.0,0,21,0.0,127.0
4336,67.0,24,21,1.0,127.0
4337,72.0,0,21,0.0,127.0
4338,69.0,0,21,1.0,127.0
4339,69.0,0,42,6.0,75.0
4340,66.0,0,42,13.0,49.0
4341,69.0,0,42,13.0,49.0
4342,60.0,0,42,13.0,49.0
4343,60.0,0,42,5.0,62.0
4344,48.0,0,42,12.0,101.0
4345,60.0,0,42,10.0,75.0
4346,66.0,0,42,8.0,75.0
4347,69.0,0,42,7.0,75.0
4348,60.0,24,42,11.0,49.0
4349,71.0,24,21,0.0,127.0
4350,67.0,0,21,1.0,127.0
4351,75.0,0,117,4.0,62.0
4352,84.0,0,117,2.0,62.0
4353,81.0,0,117,3.0,62.0
4354,45.0,0,42,12.0,101.0
4355,57.0,0,42,11.0,49.0
4356,69.0,0,42,8.0,75.0
4357,60.0,0,42,13.0,49.0
4358,66.0,0,42,13.0,49.0
4359,57.0,0,42,13.0,49.0
4360,72.0,0,42,6.0,75.0
4361,57.0,0,42,5.0,62.0
4362,72.0,0,42,7.0,75.0
4363,66.0,0,42,10.0,75.0
4364,74.0,0,21,4.0,62.0
4365,83.0,0,21,2.0,62.0
4366,79.0,24,21,3.0,62.0
4367,75.0,0,21,4.0,62.0
4368,81.0,0,21,3.0,62.0
4369,84.0,0,21,2.0,62.0
4370,54.0,0,42,5.0,62.0
4371,54.0,0,42,11.0,49.0
4372,72.0,0,42,8.0,75.0
4373,75.0,24,42,6.0,75.0
4374,60.0,0,42,13.0,49.0
4375,54.0,0,42,13.0,49.0
4376,69.0,0,42,13.0,49.0
4377,75.0,0,42,7.0,75.0
4378,42.0,0,42,12.0,101.0
4379,69.0,0,42,10.0,75.0
4380,83.0,0,21,2.0,62.0
4381,79.0,24,21,3.0,62.0
4382,72.0,0,21,4.0,62.0
4383,69.0,24,117,1.0,127.0
4384,72.0,0,117,0.0,127.0
4385,66.0,0,42,13.0,49.0
4386,78.0,0,42,6.0,75.0
4387,38.0,0,42,12.0,101.0
4388,72.0,0,42,8.0,75.0
4389,50.0,0,42,11.0,49.0
4390,72.0,24,42,13.0,49.0
4391,50.0,0,42,5.0,62.0
4392,69.0,0,42,10.0,75.0
4393,78.0,0,42,7.0,75.0
4394,50.0,0,42,13.0,49.0
4395,71.0,0,21,0.0,127.0
4396,67.0,24,21,1.0,127.0
4397,69.0,0,21,1.0,127.0
4398,72.0,0,21,0.0,127.0
4399,74.0,0,84,4.0,62.0
4400,78.0,0,84,3.0,62.0
4401,84.0,0,84,2.0,62.0
4402,45.0,0,42,11.0,49.0
4403,81.0,0,42,6.0,75.0
4404,33.0,0,42,12.0,101.0
4405,45.0,0,42,5.0,62.0
4406,45.0,0,42,13.0,49.0
4407,72.0,0,42,10.0,75.0
4408,75.0,0,42,8.0,75.0
4409,63.0,0,42,13.0,49.0
4410,81.0,24,42,7.0,75.0
4411,72.0,0,42,13.0,49.0
4412,71.0,24,21,0.0,127.0
4413,67.0,0,21,1.0,127.0
4414,72.0,24,21,0.0,127.0
4415,69.0,0,21,1.0,127.0
4416,74.0,0,42,7.0,75.0
4417,30.0,0,42,12.0,101.0
4418,42.0,0,42,11.0,49.0
4419,42.0,0,42,13.0,49.0
4420,66.0,0,42,10.0,75.0
4421,74.0,0,42,6.0,75.0
4422,69.0,0,42,13.0,49.0
4423,62.0,0,42,13.0,49.0
4424,69.0,0,42,8.0,75.0
4425,42.0,0,42,5.0,62.0
4426,67.0,0,21,1.0,127.0
4427,71.0,24,21,0.0,127.0
4428,72.0,0,21,0.0,127.0
4429,69.0,0,21,1.0,127.0
4430,66.0,0,42,13.0,49.0
4431,69.0,0,42,13.0,49.0
4432,38.0,0,42,13.0,49.0
4433,74.0,0,42,8.0,75.0
4434,26.0,24,42,12.0,101.0
4435,38.0,0,42,11.0,49.0
4436,69.0,0,42,10.0,75.0
4437,66.0,0,42,3.0,62.0
4438,78.0,0,42,6.0,75.0
4439,38.0,0,42,5.0,62.0
4440,78.0,0,42,7.0,75.0
4441,62.0,0,42,4.0,62.0
4442,69.0,0,42,2.0,62.0
4443,74.0,24,21,0.0,127.0
4444,71.0,0,21,1.0,127.0
4445,71.0,0,21,0.0,127.0
4446,67.0,0,21,1.0,127.0
4447,71.0,0,42,2.0,62.0
4448,67.0,0,42,3.0,62.0
4449,62.0,0,42,4.0,62.0
4450,69.0,0,21,0.0,127.0
4451,65.0,24,21,1.0,127.0
4452,67.0,0,21,1.0,127.0
4453,71.0,24,21,0.0,127.0
4454,59.0,0,84,13.0,49.0
4455,67.0,0,84,13.0,49.0
4456,71.0,0,84,10.0,75.0
4457,53.0,0,84,13.0,49.0
4458,79.0,0,84,7.0,75.0
4459,53.0,24,84,11.0,49.0
4460,41.0,0,84,12.0,101.0
4461,53.0,0,84,5.0,62.0
4462,74.0,0,84,8.0,75.0
4463,79.0,0,84,6.0,75.0
4464,67.0,0,42,4.0,62.0
4465,71.0,0,42,3.0,62.0
4466,74.0,0,42,2.0,62.0
4467,69.0,0,21,0.0,127.0
4468,65.0,24,21,1.0,127.0
4469,71.0,0,21,0.0,127.0
4470,67.0,0,21,1.0,127.0
4471,67.0,24,42,2.0,62.0
4472,62.0,0,42,3.0,62.0
4473,71.0,0,42,4.0,62.0
4474,69.0,0,21,1.0,127.0
4475,72.0,24,21,0.0,127.0
4476,69.0,0,21,0.0,127.0
4477,65.0,0,21,1.0,127.0
4478,74.0,0,42,6.0,75.0
4479,71.0,0,42,8.0,75.0
4480,67.0,0,42,3.0,62.0
4481,53.0,24,42,5.0,62.0
4482,62.0,0,42,4.0,62.0
4483,67.0,0,42,10.0,75.0
4484,53.0,0,42,11.0,49.0
4485,41.0,0,42,12.0,101.0
4486,71.0,0,42,2.0,62.0
4487,59.0,0,42,13.0,49.0
4488,53.0,0,42,13.0,49.0
4489,67.0,0,42,13.0,49.0
4490,74.0,0,42,7.0,75.0
4491,67.0,0,21,1.0,127.0
4492,71.0,24,21,0.0,127.0
4493,76.0,0,21,7.0,75.0
4494,72.0,0,21,2.0,62.0
4495,76.0,0,21,6.0,75.0
4496,67.0,0,42,13.0,49.0
4497,60.0,0,42,1.0,127.0
4498,64.0,24,42,4.0,62.0
4499,40.0,0,42,12.0,101.0
4500,67.0,0,42,0.0,127.0
4501,67.0,0,42,8.0,75.0
4502,52.0,0,42,13.0,49.0
4503,60.0,0,42,13.0,49.0
4504,60.0,0,42,10.0,75.0
4505,52.0,0,42,11.0,49.0
4506,52.0,0,42,5.0,62.0
4507,67.0,0,42,3.0,62.0
4508,77.0,0,21,6.0,75.0
4509,77.0,24,21,2.0,62.0
4510,77.0,0,21,7.0,75.0
4511,76.0,0,21,7.0,75.0
4512,76.0,0,21,6.0,75.0
4513,69.0,0,21,8.0,75.0
4514,76.0,0,21,2.0,62.0
4515,72.0,0,21,0.0,127.0
4516,69.0,0,21,3.0,62.0
4517,53.0,0,42,5.0,62.0
4518,69.0,24,42,4.0,62.0
4519,41.0,0,42,12.0,101.0
4520,69.0,0,42,1.0,127.0
4521,53.0,0,42,11.0,49.0
4522,60.0,0,42,13.0,49.0
4523,60.0,0,42,10.0,75.0
4524,69.0,0,42,13.0,49.0
4525,53.0,0,42,13.0,49.0
4526,74.0,0,21,6.0,75.0
4527,74.0,0,21,7.0,75.0
4528,74.0,0,21,0.0,127.0
4529,74.0,0,21,2.0,62.0
4530,71.0,0,21,3.0,62.0
4531,71.0,24,21,8.0,75.0
4532,72.0,0,10,3.0,62.0
4533,71.0,0,10,0.0,127.0
4534,71.0,12,10,3.0,62.0
4535,72.0,0,10,0.0,127.0
4536,71.0,0,10,0.0,127.0
4537,72.0,12,10,3.0,62.0
4538,62.0,0,42,13.0,49.0
4539,71.0,0,42,13.0,49.0
4540,67.0,24,42,1.0,127.0
4541,67.0,0,42,10.0,75.0
4542,55.0,0,42,13.0,49.0
4543,43.0,0,42,12.0,101.0
4544,55.0,0,42,5.0,62.0
4545,62.0,0,42,4.0,62.0
4546,55.0,0,42,11.0,49.0
4547,72.0,0,10,0.0,127.0
4548,71.0,12,10,3.0,62.0
4549,71.0,0,63,8.0,75.0
4550,74.0,0,63,2.0,62.0
4551,74.0,0,63,7.0,75.0
4552,74.0,0,63,6.0,75.0
4553,71.0,12,21,0.0,127.0
4554,71.0,0,21,3.0,62.0
4555,43.0,0,42,11.0,49.0
4556,71.0,0,42,13.0,49.0
4557,43.0,0,42,13.0,49.0
4558,43.0,0,42,5.0,62.0
4559,67.0,0,42,4.0,62.0
4560,67.0,0,42,1.0,127.0
4561,62.0,0,42,10.0,75.0
4562,31.0,0,42,12.0,101.0
4563,62.0,0,42,13.0,49.0
4564,72.0,0,21,2.0,62.0
4565,69.0,0,21,8.0,75.0
4566,72.0,24,21,7.0,75.0
4567,72.0,0,21,0.0,127.0
4568,72.0,0,21,6.0,75.0
4569,67.0,0,21,3.0,62.0
4570,72.0,0,42,2.0,62.0
4571,72.0,0,42,6.0,75.0
4572,67.0,0,42,8.0,75.0
4573,67.0,0,42,3.0,62.0
4574,64.0,0,42,10.0,75.0
4575,72.0,24,42,7.0,75.0
4576,64.0,0,42,4.0,62.0
4577,72.0,48,21,2.0,62.0
4578,64.0,0,21,4.0,62.0
4579,67.0,0,21,3.0,62.0
4580,48.0,0,84,13.0,49.0
4581,67.0,0,84,13.0,49.0
4582,64.0,0,84,13.0,49.0
4583,72.0,0,84,0.0,127.0
4584,36.0,0,84,12.0,101.0
4585,67.0,0,84,1.0,127.0
4586,48.0,0,84,5.0,62.0
4587,48.0,0,84,11.0,49.0
4588,55.0,0,42,8.0,75.0
4589,60.0,0,42,6.0,75.0
4590,52.0,0,42,10.0,75.0
4591,60.0,0,42,7.0,75.0
4592,65.0,0,21,3.0,62.0
4593,71.0,0,21,2.0,62.0
4594,62.0,24,21,4.0,62.0
4595,67.0,0,21,3.0,62.0
4596,72.0,0,21,2.0,62.0
4597,64.0,0,21,4.0,62.0
4598,64.0,0,42,6.0,75.0
4599,64.0,0,42,7.0,75.0
4600,55.0,0,42,10.0,75.0
4601,60.0,24,42,8.0,75.0
4602,71.0,0,21,2.0,62.0
4603,65.0,0,21,3.0,62.0
4604,62.0,24,21,4.0,62.0
4605,67.0,0,21,3.0,62.0
4606,64.0,0,21,4.0,62.0
4607,72.0,0,21,2.0,62.0
4608,31.0,0,42,12.0,101.0
4609,62.0,0,42,13.0,49.0
4610,71.0,24,42,13.0,49.0
4611,43.0,0,42,13.0,49.0
4612,67.0,0,42,6.0,75.0
4613,59.0,0,42,10.0,75.0
4614,67.0,0,42,7.0,75.0
4615,43.0,0,42,11.0,49.0
4616,62.0,0,42,8.0,75.0
4617,43.0,0,42,5.0,62.0
4618,71.0,0,21,2.0,62.0
4619,62.0,24,21,4.0,62.0
4620,65.0,0,21,3.0,62.0
4621,64.0,0,21,3.0,62.0
4622,45.0,0,42,5.0,62.0
4623,72.0,0,42,7.0,75.0
4624,60.0,0,42,4.0,62.0
4625,72.0,0,42,6.0,75.0
4626,33.0,0,42,12.0,101.0
4627,64.0,24,42,13.0,49.0
4628,60.0,0,42,8.0,75.0
4629,52.0,0,42,10.0,75.0
4630,45.0,0,42,13.0,49.0
4631,72.0,0,42,13.0,49.0
4632,72.0,0,42,2.0,62.0
4633,45.0,0,42,11.0,49.0
4634,62.0,24,21,3.0,62.0
4635,64.0,0,21,8.0,75.0
4636,64.0,0,21,3.0,62.0
4637,60.0,0,21,10.0,75.0
4638,28.0,0,42,12.0,101.0
4639,67.0,24,42,6.0,75.0
4640,67.0,0,42,2.0,62.0
4641,64.0,0,42,13.0,49.0
4642,72.0,0,42,4.0,62.0
4643,40.0,0,42,13.0,49.0
4644,67.0,0,42,7.0,75.0
4645,40.0,0,42,11.0,49.0
4646,40.0,0,42,5.0,62.0
4647,67.0,0,42,13.0,49.0
4648,59.0,24,21,10.0,75.0
4649,62.0,0,21,3.0,62.0
4650,62.0,0,21,8.0,75.0
4651,64.0,0,21,8.0,75.0
4652,64.0,0,21,3.0,62.0
4653,41.0,0,42,11.0,49.0
4654,29.0,0,42,12.0,101.0
4655,69.0,0,42,7.0,75.0
4656,41.0,0,42,13.0,49.0
4657,41.0,0,42,5.0,62.0
4658,69.0,0,42,2.0,62.0
4659,69.0,0,42,13.0,49.0
4660,60.0,0,42,13.0,49.0
4661,72.0,0,42,4.0,62.0
4662,57.0,0,42,10.0,75.0
4663,69.0,24,42,6.0,75.0
4664,62.0,24,21,8.0,75.0
4665,62.0,0,21,3.0,62.0
4666,67.0,0,21,6.0,75.0
4667,67.0,0,21,2.0,62.0
4668,64.0,0,21,3.0,62.0
4669,67.0,0,21,7.0,75.0
4670,64.0,0,21,8.0,75.0
4671,43.0,0,42,5.0,62.0
4672,31.0,0,42,12.0,101.0
4673,43.0,0,42,11.0,49.0
4674,43.0,0,42,13.0,49.0
4675,62.0,0,42,13.0,49.0
4676,59.0,0,42,13.0,49.0
4677,71.0,24,42,4.0,62.0
4678,59.0,0,42,10.0,75.0
4679,65.0,24,21,2.0,62.0
4680,62.0,0,21,8.0,75.0
4681,65.0,0,21,6.0,75.0
4682,62.0,0,21,3.0,62.0
4683,65.0,0,21,7.0,75.0
4684,64.0,0,21,2.0,62.0
4685,64.0,0,21,7.0,75.0
4686,64.0,0,21,6.0,75.0
4687,60.0,0,42,8.0,75.0
4688,60.0,0,42,3.0,62.0
4689,36.0,0,42,11.0,49.0
4690,24.0,0,42,12.0,101.0
4691,55.0,24,42,10.0,75.0
4692,64.0,0,42,13.0,49.0
4693,36.0,0,42,13.0,49.0
4694,36.0,0,42,5.0,62.0
4695,72.0,0,42,4.0,62.0
4696,60.0,0,42,13.0,49.0
4697,62.0,24,21,7.0,75.0
4698,62.0,0,21,2.0,62.0
4699,62.0,0,21,6.0,75.0
4700,60.0,0,21,6.0,75.0
4701,48.0,0,21,13.0,49.0
4702,64.0,0,21,3.0,62.0
4703,60.0,0,21,7.0,75.0
4704,64.0,0,21,8.0,75.0
4705,48.0,24,21,11.0,49.0
4706,36.0,0,21,12.0,101.0
4707,60.0,0,21,2.0,62.0
4708,48.0,0,21,5.0,62.0
4709,67.0,0,42,4.0,62.0
4710,52.0,0,42,10.0,75.0
4711,62.0,0,21,8.0,75.0
4712,62.0,0,21,2.0,62.0
4713,47.0,0,21,11.0,49.0
4714,62.0,0,21,6.0,75.0
4715,62.0,0,21,7.0,75.0
4716,47.0,24,21,5.0,62.0
4717,35.0,0,21,12.0,101.0
4718,47.0,0,21,13.0,49.0
4719,62.0,0,21,3.0,62.0
4720,48.0,0,21,11.0,49.0
4721,64.0,0,21,7.0,75.0
4722,48.0,0,21,13.0,49.0
4723,64.0,0,21,6.0,75.0
4724,60.0,0,21,3.0,62.0
4725,60.0,0,21,8.0,75.0
4726,36.0,24,21,12.0,101.0
4727,48.0,0,21,5.0,62.0
4728,64.0,0,21,2.0,62.0
4729,55.0,0,42,10.0,75.0
4730,64.0,0,42,4.0,62.0
4731,66.0,0,21,2.0,62.0
4732,47.0,24,21,11.0,49.0
4733,47.0,0,21,5.0,62.0
4734,66.0,0,21,6.0,75.0
4735,62.0,0,21,3.0,62.0
4736,47.0,0,21,13.0,49.0
4737,66.0,0,21,7.0,75.0
4738,62.0,0,21,8.0,75.0
4739,35.0,0,21,12.0,101.0
4740,64.0,0,21,8.0,75.0
4741,64.0,0,21,7.0,75.0
4742,36.0,24,21,12.0,101.0
4743,48.0,0,21,5.0,62.0
4744,64.0,0,21,2.0,62.0
4745,64.0,0,21,6.0,75.0
4746,64.0,0,21,3.0,62.0
4747,48.0,0,21,13.0,49.0
4748,48.0,0,21,11.0,49.0
4749,60.0,0,42,4.0,62.0
4750,60.0,0,42,10.0,75.0
4751,45.0,0,21,13.0,49.0
4752,66.0,0,21,2.0,62.0
4753,60.0,0,21,3.0,62.0
4754,66.0,0,21,6.0,75.0
4755,45.0,24,21,5.0,62.0
4756,60.0,0,21,8.0,75.0
4757,66.0,0,21,7.0,75.0
4758,33.0,0,21,12.0,101.0
4759,45.0,0,21,11.0,49.0
4760,67.0,0,21,7.0,75.0
4761,67.0,0,21,6.0,75.0
4762,67.0,0,21,2.0,62.0
4763,62.0,0,42,13.0,49.0
4764,47.0,0,42,5.0,62.0
4765,67.0,0,42,13.0,49.0
4766,47.0,0,42,13.0,49.0
4767,67.0,0,42,4.0,62.0
4768,62.0,24,42,8.0,75.0
4769,67.0,0,42,10.0,75.0
4770,47.0,0,42,11.0,49.0
4771,35.0,0,42,12.0,101.0
4772,62.0,0,42,3.0,62.0
4773,69.0,24,21,7.0,75.0
4774,69.0,0,21,6.0,75.0
4775,69.0,0,21,2.0,62.0
4776,71.0,0,21,2.0,62.0
4777,71.0,0,21,7.0,75.0
4778,71.0,0,21,6.0,75.0
4779,43.0,0,42,11.0,49.0
4780,67.0,0,42,3.0,62.0
4781,31.0,0,42,12.0,101.0
4782,67.0,0,42,4.0,62.0
4783,43.0,0,42,5.0,62.0
4784,62.0,24,42,10.0,75.0
4785,67.0,0,42,8.0,75.0
4786,43.0,0,42,13.0,49.0
4787,71.0,0,42,13.0,49.0
4788,62.0,0,42,13.0,49.0
4789,67.0,24,21,7.0,75.0
4790,67.0,0,21,6.0,75.0
4791,67.0,0,21,2.0,62.0
4792,72.0,0,21,7.0,75.0
4793,72.0,0,21,6.0,75.0
4794,72.0,24,21,2.0,62.0
4795,33.0,0,42,12.0,101.0
4796,64.0,0,42,13.0,49.0
4797,60.0,0,42,10.0,75.0
4798,60.0,0,42,13.0,49.0
4799,45.0,0,42,13.0,49.0
4800,45.0,0,42,5.0,62.0
4801,45.0,0,42,11.0,49.0
4802,64.0,0,42,4.0,62.0
4803,67.0,0,42,3.0,62.0
4804,67.0,0,42,8.0,75.0
4805,71.0,0,21,2.0,62.0
4806,71.0,24,21,7.0,75.0
4807,71.0,0,21,6.0,75.0
4808,72.0,24,21,7.0,75.0
4809,72.0,0,21,2.0,62.0
4810,72.0,0,21,6.0,75.0
4811,26.0,0,42,12.0,101.0
4812,38.0,0,42,13.0,49.0
4813,38.0,0,42,11.0,49.0
4814,66.0,0,42,13.0,49.0
4815,62.0,0,42,10.0,75.0
4816,66.0,0,42,3.0,62.0
4817,62.0,0,42,4.0,62.0
4818,66.0,0,42,8.0,75.0
4819,38.0,0,42,5.0,62.0
4820,57.0,0,42,13.0,49.0
4821,74.0,0,21,6.0,75.0
4822,74.0,0,21,2.0,62.0
4823,74.0,24,21,7.0,75.0
4824,71.0,0,42,6.0,75.0
4825,62.0,0,42,4.0,62.0
4826,67.0,0,42,3.0,62.0
4827,62.0,0,42,13.0,49.0
4828,58.0,0,42,13.0,49.0
4829,67.0,0,42,8.0,75.0
4830,43.0,0,42,5.0,62.0
4831,31.0,0,42,12.0,101.0
4832,62.0,0,42,10.0,75.0
4833,71.0,0,42,7.0,75.0
4834,43.0,0,42,11.0,49.0
4835,43.0,0,42,13.0,49.0
4836,71.0,24,42,2.0,62.0
4837,71.0,48,21,3.0,62.0
4838,65.0,0,21,4.0,62.0
4839,74.0,0,21,2.0,62.0
4840,58.0,0,42,13.0,49.0
4841,55.0,0,42,5.0,62.0
4842,55.0,0,42,13.0,49.0
4843,62.0,0,42,6.0,75.0
4844,62.0,0,42,13.0,49.0
4845,55.0,0,42,10.0,75.0
4846,43.0,0,42,12.0,101.0
4847,55.0,0,42,11.0,49.0
4848,62.0,0,42,7.0,75.0
4849,59.0,0,42,8.0,75.0
4850,72.0,0,21,2.0,62.0
4851,64.0,24,21,4.0,62.0
4852,69.0,0,21,3.0,62.0
4853,71.0,0,21,3.0,62.0
4854,74.0,0,21,2.0,62.0
4855,65.0,0,21,4.0,62.0
4856,62.0,0,42,8.0,75.0
4857,67.0,24,42,7.0,75.0
4858,59.0,0,42,10.0,75.0
4859,67.0,0,42,6.0,75.0
4860,64.0,24,21,4.0,62.0
4861,69.0,0,21,3.0,62.0
4862,72.0,0,21,2.0,62.0
4863,65.0,0,21,4.0,62.0
4864,71.0,24,21,3.0,62.0
4865,74.0,0,21,2.0,62.0
4866,67.0,0,42,8.0,75.0
4867,71.0,0,42,6.0,75.0
4868,62.0,0,42,10.0,75.0
4869,71.0,0,42,7.0,75.0
4870,64.0,0,21,4.0,62.0
4871,69.0,24,21,3.0,62.0
4872,72.0,0,21,2.0,62.0
4873,74.0,0,42,7.0,75.0
4874,64.0,0,42,4.0,62.0
4875,71.0,0,42,8.0,75.0
4876,74.0,0,42,2.0,62.0
4877,71.0,24,42,3.0,62.0
4878,74.0,0,42,6.0,75.0
4879,68.0,0,42,10.0,75.0
4880,76.0,0,21,8.0,75.0
4881,76.0,0,21,3.0,62.0
4882,76.0,0,21,7.0,75.0
4883,76.0,48,21,2.0,62.0
4884,76.0,0,21,6.0,75.0
4885,52.0,0,42,5.0,62.0
4886,40.0,0,42,11.0,49.0
4887,68.0,0,42,4.0,62.0
4888,28.0,0,42,12.0,101.0
4889,68.0,0,42,10.0,75.0
4890,60.0,0,42,13.0,49.0
4891,68.0,0,42,13.0,49.0
4892,40.0,0,42,13.0,49.0
4893,74.0,0,21,8.0,75.0
4894,74.0,0,21,3.0,62.0
4895,77.0,0,21,7.0,75.0
4896,77.0,24,21,2.0,62.0
4897,77.0,0,21,6.0,75.0
4898,76.0,0,21,6.0,75.0
4899,76.0,0,21,2.0,62.0
4900,76.0,0,21,7.0,75.0
4901,54.0,0,42,5.0,62.0
4902,60.0,0,42,13.0,49.0
4903,69.0,0,42,13.0,49.0
4904,42.0,0,42,13.0,49.0
4905,42.0,0,42,11.0,49.0
4906,30.0,0,42,12.0,101.0
4907,69.0,0,42,4.0,62.0
4908,72.0,0,42,3.0,62.0
4909,69.0,24,42,10.0,75.0
4910,72.0,0,42,8.0,75.0
4911,74.0,24,21,6.0,75.0
4912,74.0,0,21,7.0,75.0
4913,74.0,0,21,2.0,62.0
4914,72.0,0,21,2.0,62.0
4915,72.0,0,21,6.0,75.0
4916,72.0,0,21,7.0,75.0
4917,71.0,0,42,3.0,62.0
4918,71.0,0,42,10.0,75.0
4919,32.0,0,42,12.0,101.0
4920,44.0,24,42,11.0,49.0
4921,71.0,0,42,4.0,62.0
4922,59.0,0,42,13.0,49.0
4923,56.0,0,42,5.0,62.0
4924,44.0,0,42,13.0,49.0
4925,71.0,0,42,8.0,75.0
4926,71.0,0,42,13.0,49.0
4927,71.0,0,21,7.0,75.0
4928,71.0,24,21,6.0,75.0
4929,71.0,0,21,2.0,62.0
4930,72.0,0,42,7.0,75.0
4931,45.0,0,42,11.0,49.0
4932,69.0,0,42,8.0,75.0
4933,33.0,0,42,12.0,101.0
4934,72.0,0,42,2.0,62.0
4935,72.0,0,42,6.0,75.0
4936,64.0,0,42,10.0,75.0
4937,45.0,0,42,13.0,49.0
4938,64.0,24,42,13.0,49.0
4939,61.0,0,42,13.0,49.0
4940,57.0,0,42,5.0,62.0
4941,69.0,0,42,3.0,62.0
4942,64.0,0,42,4.0,62.0
4943,67.0,0,21,4.0,62.0
4944,73.0,0,21,3.0,62.0
4945,76.0,0,21,2.0,62.0
4946,61.0,0,42,8.0,75.0
4947,64.0,0,42,7.0,75.0
4948,64.0,0,42,6.0,75.0
4949,45.0,0,42,12.0,101.0
4950,57.0,0,42,13.0,49.0
4951,64.0,0,42,13.0,49.0
4952,61.0,0,42,13.0,49.0
4953,57.0,0,42,11.0,49.0
4954,45.0,48,42,5.0,62.0
4955,57.0,0,42,10.0,75.0
4956,71.0,0,21,3.0,62.0
4957,74.0,0,21,2.0,62.0
4958,65.0,24,21,4.0,62.0
4959,73.0,0,21,3.0,62.0
4960,67.0,0,21,4.0,62.0
4961,76.0,0,21,2.0,62.0
4962,69.0,24,42,7.0,75.0
4963,61.0,0,42,10.0,75.0
4964,69.0,0,42,6.0,75.0
4965,64.0,0,42,8.0,75.0
4966,74.0,0,21,2.0,62.0
4967,65.0,24,21,4.0,62.0
4968,71.0,0,21,3.0,62.0
4969,67.0,0,21,4.0,62.0
4970,76.0,0,21,2.0,62.0
4971,73.0,0,21,3.0,62.0
4972,69.0,24,42,8.0,75.0
4973,64.0,0,42,10.0,75.0
4974,73.0,0,42,7.0,75.0
4975,73.0,0,42,6.0,75.0
4976,71.0,0,21,3.0,62.0
4977,65.0,24,21,4.0,62.0
4978,74.0,0,21,2.0,62.0
4979,67.0,0,42,4.0,62.0
4980,73.0,0,42,8.0,75.0
4981,76.0,24,42,6.0,75.0
4982,76.0,0,42,2.0,62.0
4983,73.0,0,42,3.0,62.0
4984,76.0,0,42,7.0,75.0
4985,67.0,0,42,10.0,75.0
4986,69.0,0,21,4.0,62.0
4987,77.0,0,21,7.0,75.0
4988,69.0,0,21,10.0,75.0
4989,77.0,0,21,6.0,75.0
4990,77.0,0,21,2.0,62.0
4991,73.0,0,42,8.0,75.0
4992,33.0,0,42,12.0,101.0
4993,73.0,48,42,3.0,62.0
4994,45.0,0,42,13.0,49.0
4995,64.0,0,42,13.0,49.0
4996,61.0,0,42,13.0,49.0
4997,45.0,0,42,11.0,49.0
4998,45.0,0,42,5.0,62.0
4999,79.0,24,21,7.0,75.0
5000,70.0,0,21,4.0,62.0
5001,79.0,0,21,6.0,75.0
5002,79.0,0,21,2.0,62.0
5003,70.0,0,21,10.0,75.0
5004,77.0,0,21,7.0,75.0
5005,69.0,0,21,10.0,75.0
5006,77.0,0,21,6.0,75.0
5007,77.0,0,21,2.0,62.0
5008,69.0,0,21,4.0,62.0
5009,74.0,0,42,8.0,75.0
5010,50.0,0,42,5.0,62.0
5011,38.0,24,42,12.0,101.0
5012,74.0,0,42,3.0,62.0
5013,57.0,0,42,13.0,49.0
5014,65.0,0,42,13.0,49.0
5015,50.0,0,42,13.0,49.0
5016,50.0,0,42,11.0,49.0
5017,76.0,0,21,6.0,75.0
5018,76.0,0,21,2.0,62.0
5019,76.0,24,21,7.0,75.0
5020,67.0,0,21,10.0,75.0
5021,67.0,0,21,4.0,62.0
5022,65.0,0,21,10.0,75.0
5023,74.0,0,21,2.0,62.0
5024,74.0,0,21,7.0,75.0
5025,74.0,0,21,6.0,75.0
5026,65.0,24,21,4.0,62.0
5027,64.0,0,42,13.0,49.0
5028,67.0,0,42,3.0,62.0
5029,52.0,0,42,11.0,49.0
5030,52.0,0,42,5.0,62.0
5031,52.0,0,42,13.0,49.0
5032,67.0,0,42,13.0,49.0
5033,40.0,0,42,12.0,101.0
5034,67.0,0,42,8.0,75.0
5035,64.0,0,21,4.0,62.0
5036,73.0,0,21,7.0,75.0
5037,64.0,0,21,10.0,75.0
5038,73.0,0,21,6.0,75.0
5039,73.0,24,21,2.0,62.0
5040,74.0,0,42,6.0,75.0
5041,53.0,0,42,5.0,62.0
5042,74.0,0,42,7.0,75.0
5043,53.0,0,42,11.0,49.0
5044,53.0,0,42,13.0,49.0
5045,41.0,0,42,12.0,101.0
5046,74.0,0,42,2.0,62.0
5047,76.0,0,21,2.0,62.0
5048,52.0,0,21,13.0,49.0
5049,76.0,0,21,7.0,75.0
5050,52.0,0,21,11.0,49.0
5051,40.0,0,21,12.0,101.0
5052,52.0,0,21,5.0,62.0
5053,76.0,48,21,6.0,75.0
5054,69.0,0,84,3.0,62.0
5055,62.0,0,84,10.0,75.0
5056,69.0,24,84,8.0,75.0
5057,62.0,0,84,13.0,49.0
5058,62.0,0,84,4.0,62.0
5059,69.0,0,84,13.0,49.0
5060,38.0,0,21,12.0,101.0
5061,50.0,0,21,13.0,49.0
5062,77.0,24,21,2.0,62.0
5063,50.0,0,21,5.0,62.0
5064,77.0,0,21,6.0,75.0
5065,50.0,0,21,11.0,49.0
5066,77.0,0,21,7.0,75.0
5067,76.0,24,21,6.0,75.0
5068,48.0,0,21,5.0,62.0
5069,48.0,0,21,11.0,49.0
5070,36.0,0,21,12.0,101.0
5071,48.0,0,21,13.0,49.0
5072,76.0,0,21,7.0,75.0
5073,76.0,0,21,2.0,62.0
5074,35.0,0,21,12.0,101.0
5075,47.0,24,21,11.0,49.0
5076,74.0,0,21,6.0,75.0
5077,74.0,0,21,7.0,75.0
5078,74.0,0,21,2.0,62.0
5079,47.0,0,21,5.0,62.0
5080,47.0,0,21,13.0,49.0
5081,72.0,24,21,7.0,75.0
5082,33.0,0,21,12.0,101.0
5083,72.0,0,21,6.0,75.0
5084,45.0,0,21,11.0,49.0
5085,72.0,0,21,2.0,62.0
5086,45.0,0,21,13.0,49.0
5087,45.0,0,21,5.0,62.0
5088,64.0,0,42,3.0,62.0
5089,69.0,0,42,13.0,49.0
5090,60.0,0,42,13.0,49.0
5091,64.0,0,42,4.0,62.0
5092,64.0,0,42,10.0,75.0
5093,64.0,0,42,8.0,75.0
5094,44.0,0,21,11.0,49.0
5095,44.0,0,21,5.0,62.0
5096,71.0,0,21,2.0,62.0
5097,71.0,0,21,6.0,75.0
5098,32.0,0,21,12.0,101.0
5099,71.0,24,21,7.0,75.0
5100,44.0,0,21,13.0,49.0
5101,45.0,0,42,11.0,49.0
5102,60.0,0,42,13.0,49.0
5103,64.0,0,42,13.0,49.0
5104,45.0,0,42,13.0,49.0
5105,45.0,0,42,5.0,62.0
5106,64.0,0,42,4.0,62.0
5107,33.0,0,42,12.0,101.0
5108,64.0,0,42,10.0,75.0
5109,69.0,24,63,8.0,75.0
5110,72.0,0,63,2.0,62.0
5111,72.0,0,63,6.0,75.0
5112,72.0,0,63,7.0,75.0
5113,69.0,0,63,3.0,62.0
5114,38.0,0,42,12.0,101.0
5115,50.0,0,42,11.0,49.0
5116,59.0,0,42,13.0,49.0
5117,65.0,0,42,10.0,75.0
5118,65.0,0,42,4.0,62.0
5119,50.0,48,42,5.0,62.0
5120,65.0,0,42,13.0,49.0
5121,50.0,0,42,13.0,49.0
5122,70.0,24,21,8.0,75.0
5123,74.0,0,21,7.0,75.0
5124,74.0,0,21,2.0,62.0
5125,74.0,0,21,6.0,75.0
5126,71.0,0,21,3.0,62.0
5127,59.0,0,42,13.0,49.0
5128,64.0,0,42,4.0,62.0
5129,52.0,0,42,5.0,62.0
5130,59.0,0,42,10.0,75.0
5131,40.0,0,42,12.0,101.0
5132,52.0,0,42,13.0,49.0
5133,68.0,0,42,13.0,49.0
5134,52.0,0,42,11.0,49.0
5135,71.0,0,63,7.0,75.0
5136,71.0,24,63,6.0,75.0
5137,68.0,0,63,3.0,62.0
5138,71.0,0,63,2.0,62.0
5139,68.0,0,63,8.0,75.0
5140,64.0,0,42,4.0,62.0
5141,40.0,0,42,5.0,62.0
5142,40.0,48,42,11.0,49.0
5143,64.0,0,42,10.0,75.0
5144,28.0,0,42,12.0,101.0
5145,59.0,0,42,13.0,49.0
5146,68.0,0,42,13.0,49.0
5147,40.0,0,42,13.0,49.0
5148,69.0,24,21,6.0,75.0
5149,64.0,0,21,3.0,62.0
5150,69.0,0,21,8.0,75.0
5151,69.0,0,21,2.0,62.0
5152,69.0,0,21,7.0,75.0
5153,60.0,0,42,13.0,49.0
5154,33.0,0,42,12.0,101.0
5155,64.0,0,42,13.0,49.0
5156,45.0,0,42,11.0,49.0
5157,45.0,0,42,13.0,49.0
5158,45.0,0,42,5.0,62.0
5159,72.0,0,21,0.0,127.0
5160,69.0,48,21,1.0,127.0
5161,60.0,0,84,4.0,62.0
5162,69.0,0,84,8.0,75.0
5163,69.0,0,84,6.0,75.0
5164,60.0,0,84,10.0,75.0
5165,69.0,0,84,7.0,75.0
5166,69.0,24,84,2.0,62.0
5167,64.0,0,84,3.0,62.0
5168,57.0,0,42,11.0,49.0
5169,57.0,0,42,13.0,49.0
5170,57.0,0,42,5.0,62.0
5171,45.0,0,42,12.0,101.0
5172,70.0,24,21,0.0,127.0
5173,67.0,0,21,1.0,127.0
5174,72.0,0,21,0.0,127.0
5175,69.0,0,21,1.0,127.0
5176,46.0,0,42,12.0,101.0
5177,58.0,0,42,13.0,49.0
5178,58.0,24,42,5.0,62.0
5179,58.0,0,42,11.0,49.0
5180,70.0,0,21,1.0,127.0
5181,74.0,24,21,0.0,127.0
5182,69.0,0,21,1.0,127.0
5183,72.0,0,21,0.0,127.0
5184,60.0,0,42,13.0,49.0
5185,60.0,0,42,5.0,62.0
5186,60.0,0,42,11.0,49.0
5187,48.0,24,42,12.0,101.0
5188,67.0,0,21,1.0,127.0
5189,70.0,24,21,0.0,127.0
5190,69.0,0,42,0.0,127.0
5191,62.0,0,42,5.0,62.0
5192,62.0,0,42,11.0,49.0
5193,50.0,0,42,12.0,101.0
5194,62.0,24,42,13.0,49.0
5195,65.0,0,42,1.0,127.0
5196,67.0,0,21,1.0,127.0
5197,70.0,48,21,0.0,127.0
5198,55.0,0,42,13.0,49.0
5199,43.0,0,42,12.0,101.0
5200,55.0,0,42,11.0,49.0
5201,55.0,0,42,5.0,62.0
5202,65.0,0,21,1.0,127.0
5203,69.0,24,21,0.0,127.0
5204,70.0,0,21,0.0,127.0
5205,67.0,24,21,1.0,127.0
5206,57.0,0,42,5.0,62.0
5207,57.0,0,42,11.0,49.0
5208,45.0,0,42,12.0,101.0
5209,57.0,0,42,13.0,49.0
5210,72.0,24,21,0.0,127.0
5211,69.0,0,21,1.0,127.0
5212,70.0,0,21,0.0,127.0
5213,67.0,24,21,1.0,127.0
5214,46.0,0,42,12.0,101.0
5215,58.0,0,42,11.0,49.0
5216,58.0,0,42,5.0,62.0
5217,58.0,0,42,13.0,49.0
5218,65.0,24,21,1.0,127.0
5219,69.0,0,21,0.0,127.0
5220,60.0,0,42,11.0,49.0
5221,67.0,0,42,0.0,127.0
5222,48.0,0,42,12.0,101.0
5223,60.0,0,42,5.0,62.0
5224,60.0,0,42,13.0,49.0
5225,60.0,24,42,1.0,127.0
5226,77.0,48,21,2.0,62.0
5227,69.0,0,21,3.0,62.0
5228,53.0,0,42,5.0,62.0
5229,53.0,0,42,11.0,49.0
5230,41.0,0,42,12.0,101.0
5231,53.0,0,42,13.0,49.0
5232,76.0,24,21,2.0,62.0
5233,67.0,0,21,3.0,62.0
5234,69.0,0,21,3.0,62.0
5235,77.0,24,21,2.0,62.0
5236,55.0,0,42,5.0,62.0
5237,55.0,0,42,11.0,49.0
5238,55.0,0,42,13.0,49.0
5239,43.0,0,42,12.0,101.0
5240,70.0,24,21,3.0,62.0
5241,79.0,0,21,2.0,62.0
5242,69.0,0,21,3.0,62.0
5243,77.0,0,21,2.0,62.0
5244,57.0,0,42,11.0,49.0
5245,57.0,0,42,13.0,49.0
5246,45.0,0,42,12.0,101.0
5247,57.0,24,42,5.0,62.0
5248,67.0,24,21,3.0,62.0
5249,76.0,0,21,2.0,62.0
5250,58.0,0,42,11.0,49.0
5251,46.0,0,42,12.0,101.0
5252,65.0,0,42,3.0,62.0
5253,58.0,24,42,5.0,62.0
5254,58.0,0,42,13.0,49.0
5255,74.0,0,42,2.0,62.0
5256,76.0,0,21,2.0,62.0
5257,67.0,0,21,3.0,62.0
5258,40.0,0,42,12.0,101.0
5259,52.0,0,42,11.0,49.0
5260,52.0,48,42,5.0,62.0
5261,52.0,0,42,13.0,49.0
5262,74.0,24,21,2.0,62.0
5263,65.0,0,21,3.0,62.0
5264,76.0,24,21,2.0,62.0
5265,67.0,0,21,3.0,62.0
5266,41.0,0,42,12.0,101.0
5267,53.0,0,42,11.0,49.0
5268,53.0,0,42,13.0,49.0
5269,53.0,0,42,5.0,62.0
5270,77.0,0,21,2.0,62.0
5271,69.0,24,21,3.0,62.0
5272,67.0,0,21,3.0,62.0
5273,76.0,24,21,2.0,62.0
5274,43.0,0,42,12.0,101.0
5275,55.0,0,42,5.0,62.0
5276,55.0,0,42,13.0,49.0
5277,55.0,0,42,11.0,49.0
5278,65.0,24,21,3.0,62.0
5279,74.0,0,21,2.0,62.0
5280,57.0,0,42,11.0,49.0
5281,64.0,0,42,3.0,62.0
5282,57.0,0,42,13.0,49.0
5283,57.0,0,42,5.0,62.0
5284,73.0,0,42,2.0,62.0
5285,45.0,24,42,12.0,101.0
5286,81.0,0,21,7.0,75.0
5287,73.0,0,21,8.0,75.0
5288,81.0,0,21,6.0,75.0
5289,55.0,0,42,5.0,62.0
5290,55.0,48,42,13.0,49.0
5291,43.0,0,42,12.0,101.0
5292,55.0,0,42,11.0,49.0
5293,79.0,24,21,6.0,75.0
5294,79.0,0,21,7.0,75.0
5295,71.0,0,21,8.0,75.0
5296,81.0,0,21,6.0,75.0
5297,73.0,0,21,8.0,75.0
5298,81.0,24,21,7.0,75.0
5299,53.0,0,42,11.0,49.0
5300,41.0,0,42,12.0,101.0
5301,53.0,0,42,5.0,62.0
5302,53.0,0,42,13.0,49.0
5303,74.0,0,21,8.0,75.0
5304,82.0,0,21,7.0,75.0
5305,82.0,24,21,6.0,75.0
5306,76.0,0,21,8.0,75.0
5307,81.0,24,21,6.0,75.0
5308,81.0,0,21,7.0,75.0
5309,40.0,0,42,12.0,101.0
5310,52.0,0,42,13.0,49.0
5311,52.0,0,42,5.0,62.0
5312,52.0,0,42,11.0,49.0
5313,79.0,0,21,6.0,75.0
5314,79.0,0,21,7.0,75.0
5315,73.0,24,21,8.0,75.0
5316,78.0,0,21,6.0,75.0
5317,74.0,0,21,8.0,75.0
5318,78.0,0,21,7.0,75.0
5319,50.0,0,42,5.0,62.0
5320,50.0,0,42,11.0,49.0
5321,50.0,0,42,13.0,49.0
5322,38.0,24,42,12.0,101.0
5323,79.0,0,21,6.0,75.0
5324,79.0,24,21,7.0,75.0
5325,76.0,0,21,8.0,75.0
5326,78.0,0,21,8.0,75.0
5327,81.0,0,21,6.0,75.0
5328,81.0,24,21,7.0,75.0
5329,48.0,0,42,5.0,62.0
5330,48.0,0,42,13.0,49.0
5331,36.0,0,42,12.0,101.0
5332,48.0,0,42,11.0,49.0
5333,82.0,0,21,6.0,75.0
5334,79.0,24,21,8.0,75.0
5335,82.0,0,21,7.0,75.0
5336,84.0,0,21,6.0,75.0
5337,81.0,0,21,8.0,75.0
5338,84.0,24,21,7.0,75.0
5339,46.0,0,42,5.0,62.0
5340,46.0,0,42,11.0,49.0
5341,34.0,0,42,12.0,101.0
5342,46.0,0,42,13.0,49.0
5343,82.0,24,21,6.0,75.0
5344,79.0,0,21,8.0,75.0
5345,82.0,0,21,7.0,75.0
5346,78.0,0,21,8.0,75.0
5347,84.0,0,21,6.0,75.0
5348,84.0,0,21,7.0,75.0
5349,33.0,24,42,12.0,101.0
5350,45.0,0,42,11.0,49.0
5351,45.0,0,42,13.0,49.0
5352,45.0,0,42,5.0,62.0
5353,81.0,0,21,8.0,75.0
5354,81.0,24,21,7.0,75.0
5355,81.0,0,21,6.0,75.0
5356,74.0,0,21,8.0,75.0
5357,82.0,0,21,7.0,75.0
5358,82.0,24,21,6.0,75.0
5359,43.0,0,42,5.0,62.0
5360,43.0,0,42,13.0,49.0
5361,43.0,0,42,11.0,49.0
5362,31.0,0,42,12.0,101.0
5363,72.0,0,21,8.0,75.0
5364,81.0,0,21,6.0,75.0
5365,81.0,24,21,7.0,75.0
5366,82.0,0,21,7.0,75.0
5367,82.0,0,21,6.0,75.0
5368,74.0,0,21,8.0,75.0
5369,46.0,0,42,11.0,49.0
5370,46.0,0,42,5.0,62.0
5371,34.0,0,42,12.0,101.0
5372,46.0,24,42,13.0,49.0
5373,84.0,24,21,7.0,75.0
5374,75.0,0,21,8.0,75.0
5375,84.0,0,21,6.0,75.0
5376,74.0,0,21,8.0,75.0
5377,82.0,0,21,6.0,75.0
5378,82.0,0,21,7.0,75.0
5379,36.0,0,42,12.0,101.0
5380,48.0,24,42,5.0,62.0
5381,48.0,0,42,13.0,49.0
5382,48.0,0,42,11.0,49.0
5383,72.0,0,21,8.0,75.0
5384,81.0,0,21,7.0,75.0
5385,81.0,24,21,6.0,75.0
5386,70.0,0,21,8.0,75.0
5387,79.0,0,21,7.0,75.0
5388,79.0,0,21,6.0,75.0
5389,50.0,0,42,11.0,49.0
5390,50.0,0,42,13.0,49.0
5391,50.0,24,42,5.0,62.0
5392,38.0,0,42,12.0,101.0
5393,78.0,24,21,6.0,75.0
5394,78.0,0,21,7.0,75.0
5395,69.0,0,21,8.0,75.0
5396,67.0,0,21,8.0,75.0
5397,39.0,0,42,12.0,101.0
5398,51.0,0,42,5.0,62.0
5399,51.0,0,42,13.0,49.0
5400,51.0,0,42,11.0,49.0
5401,75.0,24,21,8.0,75.0
5402,79.0,0,63,7.0,75.0
5403,79.0,24,63,6.0,75.0
5404,74.0,0,21,8.0,75.0
5405,36.0,24,42,12.0,101.0
5406,48.0,0,42,13.0,49.0
5407,48.0,0,42,5.0,62.0
5408,48.0,0,42,11.0,49.0
5409,72.0,0,21,8.0,75.0
5410,81.0,24,21,6.0,75.0
5411,81.0,0,21,7.0,75.0
5412,72.0,0,10,8.0,75.0
5413,70.0,12,10,8.0,75.0
5414,72.0,12,10,8.0,75.0
5415,50.0,0,42,11.0,49.0
5416,50.0,0,42,5.0,62.0
5417,50.0,24,42,13.0,49.0
5418,38.0,0,42,12.0,101.0
5419,70.0,12,10,8.0,75.0
5420,78.0,0,63,6.0,75.0
5421,78.0,0,63,7.0,75.0
5422,69.0,0,21,8.0,75.0
5423,38.0,12,42,13.0,49.0
5424,38.0,0,42,5.0,62.0
5425,26.0,0,42,12.0,101.0
5426,38.0,0,42,11.0,49.0
5427,79.0,0,21,6.0,75.0
5428,79.0,24,21,7.0,75.0
5429,67.0,0,21,8.0,75.0
5430,67.0,0,42,8.0,75.0
5431,79.0,24,42,7.0,75.0
5432,79.0,0,42,6.0,75.0
5433,79.0,48,21,2.0,62.0
5434,74.0,0,21,3.0,62.0
5435,70.0,0,21,4.0,62.0
5436,31.0,0,84,12.0,101.0
5437,43.0,0,84,13.0,49.0
5438,43.0,0,84,11.0,49.0
5439,43.0,0,84,5.0,62.0
5440,67.0,0,42,6.0,75.0
5441,62.0,0,42,8.0,75.0
5442,58.0,0,42,10.0,75.0
5443,67.0,0,42,7.0,75.0
5444,78.0,24,21,2.0,62.0
5445,72.0,0,21,3.0,62.0
5446,69.0,0,21,4.0,62.0
5447,74.0,0,21,3.0,62.0
5448,79.0,24,21,2.0,62.0
5449,70.0,0,21,4.0,62.0
5450,62.0,0,42,10.0,75.0
5451,70.0,0,42,7.0,75.0
5452,70.0,0,42,6.0,75.0
5453,67.0,0,42,8.0,75.0
5454,69.0,24,21,4.0,62.0
5455,78.0,0,21,2.0,62.0
5456,72.0,0,21,3.0,62.0
5457,79.0,0,21,2.0,62.0
5458,70.0,0,21,4.0,62.0
5459,74.0,0,21,3.0,62.0
5460,50.0,0,42,13.0,49.0
5461,69.0,0,42,13.0,49.0
5462,66.0,0,42,13.0,49.0
5463,74.0,0,42,7.0,75.0
5464,74.0,0,42,6.0,75.0
5465,66.0,0,42,10.0,75.0
5466,69.0,0,42,8.0,75.0
5467,50.0,0,42,11.0,49.0
5468,50.0,24,42,5.0,62.0
5469,38.0,0,42,12.0,101.0
5470,72.0,0,21,3.0,62.0
5471,69.0,0,21,4.0,62.0
5472,78.0,24,21,2.0,62.0
5473,70.0,0,21,3.0,62.0
5474,67.0,0,21,4.0,62.0
5475,51.0,0,42,13.0,49.0
5476,70.0,0,42,13.0,49.0
5477,67.0,0,42,13.0,49.0
5478,70.0,0,42,10.0,75.0
5479,39.0,0,42,12.0,101.0
5480,51.0,0,42,5.0,62.0
5481,79.0,0,42,6.0,75.0
5482,51.0,0,42,11.0,49.0
5483,67.0,0,42,8.0,75.0
5484,79.0,0,42,2.0,62.0
5485,79.0,24,42,7.0,75.0
5486,66.0,24,21,4.0,62.0
5487,69.0,0,21,3.0,62.0
5488,67.0,0,21,4.0,62.0
5489,70.0,0,21,3.0,62.0
5490,70.0,0,21,8.0,75.0
5491,46.0,0,42,13.0,49.0
5492,67.0,24,42,10.0,75.0
5493,34.0,0,42,12.0,101.0
5494,67.0,0,42,13.0,49.0
5495,74.0,0,42,7.0,75.0
5496,74.0,0,42,6.0,75.0
5497,74.0,0,42,2.0,62.0
5498,46.0,0,42,11.0,49.0
5499,46.0,0,42,5.0,62.0
5500,62.0,0,42,13.0,49.0
5501,69.0,0,21,8.0,75.0
5502,69.0,0,21,3.0,62.0
5503,66.0,24,21,4.0,62.0
5504,67.0,0,21,4.0,62.0
5505,70.0,0,21,8.0,75.0
5506,70.0,0,21,3.0,62.0
5507,75.0,0,42,7.0,75.0
5508,36.0,0,42,12.0,101.0
5509,48.0,0,42,5.0,62.0
5510,75.0,0,42,2.0,62.0
5511,48.0,0,42,13.0,49.0
5512,63.0,0,42,13.0,49.0
5513,75.0,0,42,6.0,75.0
5514,48.0,0,42,11.0,49.0
5515,67.0,0,42,10.0,75.0
5516,67.0,24,42,13.0,49.0
5517,66.0,24,21,4.0,62.0
5518,69.0,0,21,3.0,62.0
5519,69.0,0,21,8.0,75.0
5520,70.0,0,21,3.0,62.0
5521,67.0,0,21,4.0,62.0
5522,70.0,24,21,8.0,75.0
5523,74.0,0,21,7.0,75.0
5524,74.0,0,21,2.0,62.0
5525,74.0,0,21,6.0,75.0
5526,38.0,0,42,12.0,101.0
5527,58.0,0,42,13.0,49.0
5528,50.0,0,42,5.0,62.0
5529,50.0,0,42,13.0,49.0
5530,67.0,0,42,13.0,49.0
5531,50.0,0,42,11.0,49.0
5532,62.0,0,42,10.0,75.0
5533,69.0,0,21,3.0,62.0
5534,69.0,0,21,8.0,75.0
5535,72.0,24,21,6.0,75.0
5536,66.0,0,21,4.0,62.0
5537,72.0,0,21,7.0,75.0
5538,72.0,0,21,2.0,62.0
5539,62.0,0,42,10.0,75.0
5540,70.0,0,42,7.0,75.0
5541,67.0,24,42,8.0,75.0
5542,43.0,0,42,11.0,49.0
5543,43.0,0,42,13.0,49.0
5544,67.0,0,42,4.0,62.0
5545,67.0,0,42,3.0,62.0
5546,43.0,0,42,5.0,62.0
5547,70.0,0,42,6.0,75.0
5548,70.0,0,42,2.0,62.0
5549,31.0,0,42,12.0,101.0
5550,62.0,0,42,13.0,49.0
5551,67.0,0,21,1.0,127.0
5552,70.0,0,21,0.0,127.0
5553,55.0,0,42,5.0,62.0
5554,55.0,0,42,11.0,49.0
5555,43.0,48,42,12.0,101.0
5556,55.0,0,42,13.0,49.0
5557,65.0,24,21,1.0,127.0
5558,69.0,0,21,0.0,127.0
5559,70.0,0,21,0.0,127.0
5560,67.0,24,21,1.0,127.0
5561,45.0,0,42,12.0,101.0
5562,57.0,0,42,13.0,49.0
5563,57.0,0,42,11.0,49.0
5564,57.0,0,42,5.0,62.0
5565,72.0,0,21,0.0,127.0
5566,69.0,24,21,1.0,127.0
5567,67.0,0,21,1.0,127.0
5568,70.0,24,21,0.0,127.0
5569,58.0,0,42,5.0,62.0
5570,58.0,0,42,13.0,49.0
5571,46.0,0,42,12.0,101.0
5572,58.0,0,42,11.0,49.0
5573,69.0,24,21,0.0,127.0
5574,65.0,0,21,1.0,127.0
5575,48.0,0,42,12.0,101.0
5576,60.0,0,42,1.0,127.0
5577,60.0,0,42,13.0,49.0
5578,60.0,0,42,11.0,49.0
5579,60.0,0,42,5.0,62.0
5580,67.0,24,42,0.0,127.0
5581,77.0,48,21,2.0,62.0
5582,69.0,0,21,0.0,127.0
5583,53.0,0,42,5.0,62.0
5584,41.0,0,42,12.0,101.0
5585,53.0,0,42,11.0,49.0
5586,53.0,0,42,13.0,49.0
5587,67.0,24,21,0.0,127.0
5588,76.0,0,21,2.0,62.0
5589,77.0,0,21,2.0,62.0
5590,69.0,0,21,0.0,127.0
5591,43.0,0,42,12.0,101.0
5592,55.0,0,42,11.0,49.0
5593,55.0,0,42,13.0,49.0
5594,55.0,24,42,5.0,62.0
5595,70.0,0,21,0.0,127.0
5596,79.0,24,21,2.0,62.0
5597,77.0,0,21,2.0,62.0
5598,69.0,0,21,0.0,127.0
5599,57.0,0,42,5.0,62.0
5600,57.0,24,42,13.0,49.0
5601,57.0,0,42,11.0,49.0
5602,45.0,0,42,12.0,101.0
5603,76.0,24,21,2.0,62.0
5604,67.0,0,21,0.0,127.0
5605,58.0,24,42,11.0,49.0
5606,58.0,0,42,13.0,49.0
5607,58.0,0,42,5.0,62.0
5608,65.0,0,42,0.0,127.0
5609,74.0,0,42,2.0,62.0
5610,46.0,0,42,12.0,101.0
5611,79.0,0,21,6.0,75.0
5612,76.0,0,21,2.0,62.0
5613,40.0,48,42,12.0,101.0
5614,52.0,0,42,11.0,49.0
5615,52.0,0,42,13.0,49.0
5616,52.0,0,42,5.0,62.0
5617,74.0,24,21,2.0,62.0
5618,77.0,0,21,6.0,75.0
5619,79.0,0,21,6.0,75.0
5620,76.0,0,21,2.0,62.0
5621,53.0,0,42,11.0,49.0
5622,53.0,0,42,5.0,62.0
5623,41.0,0,42,12.0,101.0
5624,53.0,24,42,13.0,49.0
5625,81.0,0,21,6.0,75.0
5626,77.0,24,21,2.0,62.0
5627,79.0,24,21,6.0,75.0
5628,76.0,0,21,2.0,62.0
5629,55.0,0,42,13.0,49.0
5630,43.0,0,42,12.0,101.0
5631,55.0,0,42,5.0,62.0
5632,55.0,0,42,11.0,49.0
5633,77.0,24,21,6.0,75.0
5634,74.0,0,21,2.0,62.0
5635,57.0,0,42,11.0,49.0
5636,76.0,0,42,6.0,75.0
5637,45.0,0,42,12.0,101.0
5638,57.0,0,42,5.0,62.0
5639,72.0,24,42,2.0,62.0
5640,57.0,0,42,13.0,49.0
5641,74.0,0,21,0.0,127.0
5642,77.0,0,21,6.0,75.0
5643,50.0,48,42,13.0,49.0
5644,38.0,0,42,12.0,101.0
5645,50.0,0,42,11.0,49.0
5646,50.0,0,42,5.0,62.0
5647,76.0,0,21,6.0,75.0
5648,72.0,24,21,0.0,127.0
5649,77.0,0,21,6.0,75.0
5650,74.0,0,21,0.0,127.0
5651,52.0,24,42,11.0,49.0
5652,40.0,0,42,12.0,101.0
5653,52.0,0,42,13.0,49.0
5654,52.0,0,42,5.0,62.0
5655,79.0,24,21,6.0,75.0
5656,76.0,0,21,0.0,127.0
5657,74.0,0,21,0.0,127.0
5658,77.0,0,21,6.0,75.0
5659,53.0,0,42,5.0,62.0
5660,53.0,0,42,13.0,49.0
5661,53.0,0,42,11.0,49.0
5662,41.0,24,42,12.0,101.0
5663,76.0,0,21,6.0,75.0
5664,72.0,24,21,0.0,127.0
5665,71.0,24,21,0.0,127.0
5666,55.0,0,42,11.0,49.0
5667,43.0,0,42,12.0,101.0
5668,74.0,0,42,6.0,75.0
5669,55.0,0,42,5.0,62.0
5670,55.0,0,42,13.0,49.0
5671,69.0,24,21,0.0,127.0
5672,67.0,0,21,0.0,127.0
5673,67.0,0,21,1.0,127.0
5674,41.0,0,42,12.0,101.0
5675,53.0,0,42,5.0,62.0
5676,53.0,24,42,13.0,49.0
5677,53.0,0,42,11.0,49.0
5678,65.0,0,21,1.0,127.0
5679,69.0,24,21,0.0,127.0
5680,67.0,0,21,1.0,127.0
5681,71.0,24,21,0.0,127.0
5682,40.0,0,42,12.0,101.0
5683,52.0,0,42,5.0,62.0
5684,52.0,0,42,13.0,49.0
5685,52.0,0,42,11.0,49.0
5686,72.0,0,21,0.0,127.0
5687,69.0,24,21,1.0,127.0
5688,67.0,0,21,1.0,127.0
5689,74.0,0,21,0.0,127.0
5690,50.0,0,42,13.0,49.0
5691,38.0,0,42,12.0,101.0
5692,50.0,0,42,11.0,49.0
5693,50.0,24,42,5.0,62.0
5694,71.0,24,21,0.0,127.0
5695,65.0,0,21,1.0,127.0
5696,72.0,0,21,0.0,127.0
5697,48.0,0,42,13.0,49.0
5698,48.0,0,42,5.0,62.0
5699,48.0,0,42,11.0,49.0
5700,67.0,24,42,1.0,127.0
5701,36.0,0,42,12.0,101.0
5702,70.0,24,21,0.0,127.0
5703,60.0,0,21,1.0,127.0
5704,76.0,0,21,2.0,62.0
5705,72.0,24,21,0.0,127.0
5706,34.0,0,42,12.0,101.0
5707,46.0,0,42,5.0,62.0
5708,46.0,0,42,11.0,49.0
5709,46.0,0,42,13.0,49.0
5710,60.0,24,21,1.0,127.0
5711,70.0,0,21,0.0,127.0
5712,74.0,0,21,2.0,62.0
5713,72.0,0,21,0.0,127.0
5714,76.0,0,21,2.0,62.0
5715,60.0,0,21,1.0,127.0
5716,45.0,0,42,5.0,62.0
5717,45.0,0,42,13.0,49.0
5718,45.0,0,42,11.0,49.0
5719,33.0,24,42,12.0,101.0
5720,77.0,0,21,2.0,62.0
5721,60.0,24,21,1.0,127.0
5722,74.0,0,21,0.0,127.0
5723,72.0,0,21,0.0,127.0
5724,60.0,24,21,1.0,127.0
5725,79.0,0,21,2.0,62.0
5726,43.0,0,42,5.0,62.0
5727,31.0,0,42,12.0,101.0
5728,43.0,0,42,11.0,49.0
5729,43.0,0,42,13.0,49.0
5730,60.0,0,21,1.0,127.0
5731,70.0,24,21,0.0,127.0
5732,76.0,0,21,2.0,62.0
5733,69.0,0,21,0.0,127.0
5734,41.0,0,42,5.0,62.0
5735,77.0,0,42,2.0,62.0
5736,41.0,0,42,11.0,49.0
5737,41.0,0,42,13.0,49.0
5738,29.0,24,42,12.0,101.0
5739,60.0,0,42,1.0,127.0
5740,67.0,24,21,0.0,127.0
5741,69.0,0,21,0.0,127.0
5742,84.0,0,21,6.0,75.0
5743,81.0,24,42,2.0,62.0
5744,45.0,0,42,5.0,62.0
5745,45.0,0,42,11.0,49.0
5746,53.0,0,42,1.0,127.0
5747,45.0,0,42,13.0,49.0
5748,33.0,0,42,12.0,101.0
5749,86.0,0,21,6.0,75.0
5750,70.0,24,21,0.0,127.0
5751,69.0,0,21,0.0,127.0
5752,84.0,24,21,6.0,75.0
5753,34.0,0,42,12.0,101.0
5754,46.0,0,42,11.0,49.0
5755,77.0,0,42,2.0,62.0
5756,46.0,0,42,13.0,49.0
5757,46.0,0,42,5.0,62.0
5758,57.0,0,42,1.0,127.0
5759,82.0,0,21,6.0,75.0
5760,67.0,24,21,0.0,127.0
5761,81.0,0,21,6.0,75.0
5762,65.0,24,21,0.0,127.0
5763,60.0,0,42,1.0,127.0
5764,36.0,0,42,12.0,101.0
5765,72.0,0,42,2.0,62.0
5766,48.0,0,42,5.0,62.0
5767,48.0,0,42,11.0,49.0
5768,48.0,0,42,13.0,49.0
5769,79.0,24,21,6.0,75.0
5770,64.0,0,21,0.0,127.0
5771,65.0,0,21,0.0,127.0
5772,50.0,0,42,11.0,49.0
5773,57.0,0,42,1.0,127.0
5774,50.0,0,42,5.0,62.0
5775,38.0,0,42,12.0,101.0
5776,50.0,0,42,13.0,49.0
5777,65.0,24,42,2.0,62.0
5778,70.0,24,21,0.0,127.0
5779,77.0,0,63,6.0,75.0
5780,69.0,0,21,0.0,127.0
5781,53.0,0,42,1.0,127.0
5782,74.0,0,42,2.0,62.0
5783,46.0,0,42,5.0,62.0
5784,34.0,0,42,12.0,101.0
5785,46.0,0,42,13.0,49.0
5786,46.0,24,42,11.0,49.0
5787,67.0,24,21,0.0,127.0
5788,79.0,0,21,6.0,75.0
5789,48.0,0,42,11.0,49.0
5790,60.0,0,42,1.0,127.0
5791,67.0,0,42,2.0,62.0
5792,48.0,0,42,13.0,49.0
5793,48.0,0,42,5.0,62.0
5794,36.0,0,42,12.0,101.0
5795,67.0,24,63,0.0,127.0
5796,76.0,0,63,6.0,75.0
5797,69.0,48,21,2.0,62.0
5798,60.0,0,21,1.0,127.0
5799,36.0,0,42,5.0,62.0
5800,36.0,0,42,11.0,49.0
5801,24.0,0,42,12.0,101.0
5802,36.0,0,42,13.0,49.0
5803,77.0,0,21,6.0,75.0
5804,65.0,0,21,0.0,127.0
5805,60.0,24,21,1.0,127.0
5806,70.0,0,21,2.0,62.0
5807,77.0,0,42,6.0,75.0
5808,69.0,0,42,2.0,62.0
5809,72.0,0,21,3.0,62.0
5810,77.0,0,21,2.0,62.0
5811,69.0,0,21,4.0,62.0
5812,41.0,0,84,11.0,49.0
5813,65.0,24,84,0.0,127.0
5814,41.0,0,84,13.0,49.0
5815,41.0,0,84,5.0,62.0
5816,57.0,0,84,1.0,127.0
5817,29.0,0,84,12.0,101.0
5818,65.0,48,42,7.0,75.0
5819,65.0,0,42,6.0,75.0
5820,57.0,0,42,10.0,75.0
5821,60.0,0,42,8.0,75.0
5822,70.0,0,21,3.0,62.0
5823,76.0,24,21,2.0,62.0
5824,67.0,0,21,4.0,62.0
5825,69.0,0,21,4.0,62.0
5826,72.0,0,21,3.0,62.0
5827,77.0,0,21,2.0,62.0
5828,65.0,0,42,8.0,75.0
5829,69.0,24,42,7.0,75.0
5830,60.0,0,42,10.0,75.0
5831,69.0,0,42,6.0,75.0
5832,70.0,0,21,3.0,62.0
5833,67.0,24,21,4.0,62.0
5834,76.0,0,21,2.0,62.0
5835,77.0,0,21,2.0,62.0
5836,69.0,0,21,4.0,62.0
5837,72.0,0,21,3.0,62.0
5838,48.0,0,42,11.0,49.0
5839,48.0,0,42,5.0,62.0
5840,67.0,0,42,8.0,75.0
5841,72.0,0,42,6.0,75.0
5842,64.0,0,42,10.0,75.0
5843,48.0,0,42,13.0,49.0
5844,67.0,24,42,13.0,49.0
5845,64.0,0,42,13.0,49.0
5846,72.0,0,42,7.0,75.0
5847,36.0,0,42,12.0,101.0
5848,67.0,0,21,4.0,62.0
5849,76.0,24,21,2.0,62.0
5850,70.0,0,21,3.0,62.0
5851,69.0,24,21,3.0,62.0
5852,65.0,0,21,4.0,62.0
5853,50.0,0,42,11.0,49.0
5854,65.0,0,42,13.0,49.0
5855,77.0,0,42,2.0,62.0
5856,77.0,0,42,6.0,75.0
5857,69.0,0,42,13.0,49.0
5858,50.0,0,42,5.0,62.0
5859,65.0,0,42,8.0,75.0
5860,38.0,0,42,12.0,101.0
5861,57.0,0,42,10.0,75.0
5862,77.0,0,42,7.0,75.0
5863,50.0,0,42,13.0,49.0
5864,64.0,0,21,4.0,62.0
5865,67.0,24,21,3.0,62.0
5866,65.0,0,21,4.0,62.0
5867,69.0,0,21,8.0,75.0
5868,65.0,0,21,10.0,75.0
5869,69.0,0,21,3.0,62.0
5870,33.0,0,42,12.0,101.0
5871,72.0,0,42,7.0,75.0
5872,45.0,0,42,13.0,49.0
5873,65.0,0,42,13.0,49.0
5874,72.0,0,42,13.0,49.0
5875,72.0,0,42,2.0,62.0
5876,72.0,24,42,6.0,75.0
5877,45.0,0,42,11.0,49.0
5878,45.0,0,42,5.0,62.0
5879,64.0,0,21,10.0,75.0
5880,64.0,0,21,4.0,62.0
5881,67.0,0,21,3.0,62.0
5882,67.0,24,21,8.0,75.0
5883,69.0,0,21,3.0,62.0
5884,69.0,0,21,8.0,75.0
5885,62.0,0,42,10.0,75.0
5886,74.0,24,42,7.0,75.0
5887,46.0,0,42,5.0,62.0
5888,74.0,0,42,13.0,49.0
5889,67.0,0,42,13.0,49.0
5890,34.0,0,42,12.0,101.0
5891,46.0,0,42,11.0,49.0
5892,74.0,0,42,2.0,62.0
5893,62.0,0,42,4.0,62.0
5894,74.0,0,42,6.0,75.0
5895,46.0,0,42,13.0,49.0
5896,67.0,24,21,8.0,75.0
5897,67.0,0,21,3.0,62.0
5898,72.0,0,21,6.0,75.0
5899,69.0,24,21,8.0,75.0
5900,72.0,0,21,2.0,62.0
5901,72.0,0,21,7.0,75.0
5902,69.0,0,21,3.0,62.0
5903,36.0,0,42,12.0,101.0
5904,64.0,0,42,10.0,75.0
5905,64.0,0,42,4.0,62.0
5906,48.0,0,42,11.0,49.0
5907,48.0,0,42,5.0,62.0
5908,67.0,0,42,13.0,49.0
5909,76.0,0,42,13.0,49.0
5910,48.0,0,42,13.0,49.0
5911,67.0,24,21,3.0,62.0
5912,67.0,0,21,8.0,75.0
5913,70.0,0,21,6.0,75.0
5914,70.0,0,21,2.0,62.0
5915,70.0,0,21,7.0,75.0
5916,65.0,0,42,3.0,62.0
5917,69.0,0,42,2.0,62.0
5918,60.0,0,42,4.0,62.0
5919,72.0,0,21,0.0,127.0
5920,69.0,0,21,1.0,127.0
5921,29.0,0,84,12.0,101.0
5922,60.0,24,84,10.0,75.0
5923,69.0,0,84,6.0,75.0
5924,41.0,0,84,5.0,62.0
5925,65.0,0,84,8.0,75.0
5926,41.0,0,84,13.0,49.0
5927,41.0,0,84,11.0,49.0
5928,72.0,0,84,13.0,49.0
5929,62.0,0,84,13.0,49.0
5930,69.0,0,84,7.0,75.0
5931,60.0,48,42,4.0,62.0
5932,60.0,0,42,3.0,62.0
5933,65.0,0,42,2.0,62.0
5934,67.0,0,21,1.0,127.0
5935,70.0,24,21,0.0,127.0
5936,69.0,24,21,1.0,127.0
5937,72.0,0,21,0.0,127.0
5938,69.0,0,42,2.0,62.0
5939,60.0,0,42,4.0,62.0
5940,65.0,0,42,3.0,62.0
5941,67.0,24,21,1.0,127.0
5942,70.0,0,21,0.0,127.0
5943,69.0,0,21,1.0,127.0
5944,72.0,0,21,0.0,127.0
5945,64.0,0,42,4.0,62.0
5946,69.0,0,42,3.0,62.0
5947,60.0,0,42,8.0,75.0
5948,60.0,0,42,10.0,75.0
5949,72.0,24,42,2.0,62.0
5950,72.0,0,42,6.0,75.0
5951,60.0,0,42,7.0,75.0
5952,67.0,0,21,1.0,127.0
5953,70.0,24,21,0.0,127.0
5954,65.0,0,21,1.0,127.0
5955,69.0,0,21,0.0,127.0
5956,69.0,0,42,4.0,62.0
5957,74.0,0,42,3.0,62.0
5958,74.0,0,42,6.0,75.0
5959,62.0,0,42,7.0,75.0
5960,77.0,0,42,2.0,62.0
5961,62.0,0,42,10.0,75.0
5962,62.0,24,42,8.0,75.0
5963,70.0,24,21,0.0,127.0
5964,67.0,0,21,1.0,127.0
5965,72.0,0,21,0.0,127.0
5966,69.0,0,21,1.0,127.0
5967,57.0,0,42,7.0,75.0
5968,57.0,0,42,8.0,75.0
5969,69.0,0,42,6.0,75.0
5970,57.0,0,42,10.0,75.0
5971,72.0,0,42,2.0,62.0
5972,72.0,24,42,3.0,62.0
5973,65.0,0,42,4.0,62.0
5974,70.0,0,21,1.0,127.0
5975,74.0,24,21,0.0,127.0
5976,70.0,0,21,0.0,127.0
5977,74.0,0,42,2.0,62.0
5978,58.0,24,42,8.0,75.0
5979,67.0,0,42,1.0,127.0
5980,65.0,0,42,4.0,62.0
5981,58.0,0,42,10.0,75.0
5982,70.0,0,42,3.0,62.0
5983,58.0,0,42,7.0,75.0
5984,70.0,0,42,6.0,75.0
5985,69.0,24,21,0.0,127.0
5986,70.0,0,21,0.0,127.0
5987,72.0,0,21,2.0,62.0
5988,60.0,24,42,1.0,127.0
5989,72.0,0,42,6.0,75.0
5990,67.0,0,42,3.0,62.0
5991,60.0,0,42,10.0,75.0
5992,60.0,0,42,8.0,75.0
5993,60.0,0,42,7.0,75.0
5994,64.0,0,42,4.0,62.0
5995,67.0,24,21,0.0,127.0
5996,70.0,0,21,2.0,62.0
5997,60.0,0,42,4.0,62.0
5998,69.0,0,42,0.0,127.0
5999,53.0,0,42,10.0,75.0
6000,65.0,0,42,3.0,62.0
6001,65.0,0,42,6.0,75.0
6002,69.0,0,42,2.0,62.0
6003,65.0,0,42,1.0,127.0
6004,65.0,0,42,8.0,75.0
6005,65.0,24,42,7.0,75.0
6006,69.0,0,21,10.0,75.0
6007,72.0,0,21,3.0,62.0
6008,77.0,0,21,2.0,62.0
6009,77.0,0,21,7.0,75.0
6010,72.0,0,21,8.0,75.0
6011,69.0,0,21,4.0,62.0
6012,77.0,0,21,6.0,75.0
6013,41.0,0,42,5.0,62.0
6014,60.0,0,42,13.0,49.0
6015,60.0,0,42,0.0,127.0
6016,69.0,0,42,13.0,49.0
6017,41.0,0,42,13.0,49.0
6018,57.0,0,42,1.0,127.0
6019,29.0,48,42,12.0,101.0
6020,41.0,0,42,11.0,49.0
6021,67.0,0,21,4.0,62.0
6022,76.0,0,21,2.0,62.0
6023,79.0,24,21,6.0,75.0
6024,70.0,0,21,10.0,75.0
6025,70.0,0,21,3.0,62.0
6026,74.0,0,21,8.0,75.0
6027,79.0,0,21,7.0,75.0
6028,77.0,0,21,7.0,75.0
6029,72.0,0,21,3.0,62.0
6030,77.0,0,21,6.0,75.0
6031,69.0,0,21,4.0,62.0
6032,77.0,0,21,2.0,62.0
6033,72.0,0,21,8.0,75.0
6034,69.0,0,21,10.0,75.0
6035,45.0,0,42,11.0,49.0
6036,33.0,0,42,12.0,101.0
6037,45.0,0,42,13.0,49.0
6038,60.0,0,42,1.0,127.0
6039,65.0,0,42,0.0,127.0
6040,60.0,0,42,13.0,49.0
6041,65.0,24,42,13.0,49.0
6042,45.0,0,42,5.0,62.0
6043,70.0,0,21,3.0,62.0
6044,76.0,0,21,2.0,62.0
6045,70.0,0,21,10.0,75.0
6046,79.0,0,21,7.0,75.0
6047,67.0,0,21,4.0,62.0
6048,79.0,24,21,6.0,75.0
6049,74.0,0,21,8.0,75.0
6050,77.0,0,21,6.0,75.0
6051,72.0,0,21,3.0,62.0
6052,69.0,24,21,10.0,75.0
6053,77.0,0,21,2.0,62.0
6054,60.0,0,21,1.0,127.0
6055,72.0,0,21,8.0,75.0
6056,77.0,0,21,7.0,75.0
6057,69.0,0,21,4.0,62.0
6058,67.0,0,42,0.0,127.0
6059,48.0,0,42,5.0,62.0
6060,48.0,0,42,11.0,49.0
6061,48.0,0,42,13.0,49.0
6062,69.0,0,42,13.0,49.0
6063,65.0,0,42,13.0,49.0
6064,36.0,0,42,12.0,101.0
6065,79.0,0,21,7.0,75.0
6066,76.0,0,21,2.0,62.0
6067,79.0,0,21,6.0,75.0
6068,60.0,24,21,1.0,127.0
6069,74.0,0,21,8.0,75.0
6070,67.0,0,21,4.0,62.0
6071,70.0,0,21,10.0,75.0
6072,70.0,0,21,3.0,62.0
6073,69.0,0,21,0.0,127.0
6074,53.0,0,42,11.0,49.0
6075,53.0,0,42,13.0,49.0
6076,60.0,0,42,1.0,127.0
6077,41.0,0,42,12.0,101.0
6078,53.0,0,42,5.0,62.0
6079,70.0,24,21,0.0,127.0
6080,65.0,0,21,1.0,127.0
6081,69.0,0,21,0.0,127.0
6082,72.0,0,84,8.0,75.0
6083,69.0,0,84,4.0,62.0
6084,69.0,0,84,10.0,75.0
6085,72.0,24,84,3.0,62.0
6086,77.0,0,84,6.0,75.0
6087,77.0,0,84,2.0,62.0
6088,77.0,0,84,7.0,75.0
6089,50.0,0,42,11.0,49.0
6090,50.0,24,42,5.0,62.0
6091,38.0,0,42,12.0,101.0
6092,50.0,0,42,13.0,49.0
6093,70.0,24,21,0.0,127.0
6094,67.0,0,21,1.0,127.0
6095,72.0,0,21,0.0,127.0
6096,69.0,0,21,1.0,127.0
6097,45.0,0,42,5.0,62.0
6098,33.0,0,42,12.0,101.0
6099,45.0,24,42,11.0,49.0
6100,45.0,0,42,13.0,49.0
6101,67.0,24,21,1.0,127.0
6102,70.0,0,21,0.0,127.0
6103,65.0,0,21,1.0,127.0
6104,69.0,0,21,0.0,127.0
6105,46.0,0,42,5.0,62.0
6106,46.0,0,42,11.0,49.0
6107,34.0,0,42,12.0,101.0
6108,46.0,24,42,13.0,49.0
6109,70.0,24,21,0.0,127.0
6110,67.0,0,21,1.0,127.0
6111,76.0,48,21,10.0,75.0
6112,84.0,0,21,7.0,75.0
6113,84.0,0,21,6.0,75.0
6114,79.0,0,21,8.0,75.0
6115,36.0,24,84,12.0,101.0
6116,48.0,0,84,5.0,62.0
6117,48.0,0,84,13.0,49.0
6118,48.0,0,84,11.0,49.0
6119,60.0,0,84,1.0,127.0
6120,67.0,0,84,0.0,127.0
6121,64.0,0,42,4.0,62.0
6122,67.0,0,42,3.0,62.0
6123,72.0,0,42,2.0,62.0
6124,74.0,0,21,10.0,75.0
6125,83.0,0,21,6.0,75.0
6126,83.0,24,21,7.0,75.0
6127,77.0,0,21,8.0,75.0
6128,84.0,0,21,6.0,75.0
6129,76.0,0,21,10.0,75.0
6130,79.0,0,21,8.0,75.0
6131,84.0,24,21,7.0,75.0
6132,72.0,0,42,3.0,62.0
6133,76.0,0,42,2.0,62.0
6134,67.0,0,42,4.0,62.0
6135,83.0,0,21,7.0,75.0
6136,83.0,0,21,6.0,75.0
6137,77.0,24,21,8.0,75.0
6138,74.0,0,21,10.0,75.0
6139,84.0,0,21,6.0,75.0
6140,76.0,0,21,10.0,75.0
6141,79.0,24,21,8.0,75.0
6142,84.0,0,21,7.0,75.0
6143,43.0,0,42,11.0,49.0
6144,43.0,0,42,13.0,49.0
6145,71.0,0,42,4.0,62.0
6146,31.0,0,42,12.0,101.0
6147,43.0,0,42,5.0,62.0
6148,79.0,0,42,2.0,62.0
6149,74.0,0,42,3.0,62.0
6150,74.0,0,21,10.0,75.0
6151,83.0,0,21,7.0,75.0
6152,77.0,24,21,8.0,75.0
6153,83.0,0,21,6.0,75.0
6154,76.0,0,21,8.0,75.0
6155,72.0,0,21,10.0,75.0
6156,64.0,0,42,4.0,62.0
6157,45.0,0,42,13.0,49.0
6158,33.0,24,42,12.0,101.0
6159,84.0,0,42,6.0,75.0
6160,72.0,0,42,3.0,62.0
6161,84.0,0,42,2.0,62.0
6162,45.0,0,42,11.0,49.0
6163,84.0,0,42,7.0,75.0
6164,45.0,0,42,5.0,62.0
6165,74.0,0,21,8.0,75.0
6166,71.0,24,21,10.0,75.0
6167,76.0,0,21,8.0,75.0
6168,76.0,0,21,3.0,62.0
6169,72.0,0,21,10.0,75.0
6170,72.0,24,21,4.0,62.0
6171,79.0,0,42,7.0,75.0
6172,79.0,0,42,6.0,75.0
6173,40.0,0,42,11.0,49.0
6174,40.0,0,42,5.0,62.0
6175,79.0,0,42,2.0,62.0
6176,40.0,0,42,13.0,49.0
6177,28.0,0,42,12.0,101.0
6178,74.0,0,21,8.0,75.0
6179,71.0,0,21,4.0,62.0
6180,74.0,24,21,3.0,62.0
6181,71.0,0,21,10.0,75.0
6182,76.0,0,21,3.0,62.0
6183,76.0,24,21,8.0,75.0
6184,81.0,0,42,6.0,75.0
6185,69.0,0,42,4.0,62.0
6186,41.0,0,42,11.0,49.0
6187,29.0,0,42,12.0,101.0
6188,81.0,0,42,7.0,75.0
6189,81.0,0,42,2.0,62.0
6190,41.0,0,42,5.0,62.0
6191,41.0,0,42,13.0,49.0
6192,69.0,0,42,10.0,75.0
6193,74.0,24,21,3.0,62.0
6194,74.0,0,21,8.0,75.0
6195,79.0,0,21,6.0,75.0
6196,76.0,24,21,3.0,62.0
6197,79.0,0,21,7.0,75.0
6198,76.0,0,21,8.0,75.0
6199,79.0,0,21,2.0,62.0
6200,71.0,0,42,10.0,75.0
6201,43.0,0,42,11.0,49.0
6202,71.0,0,42,4.0,62.0
6203,43.0,0,42,13.0,49.0
6204,31.0,0,42,12.0,101.0
6205,43.0,0,42,5.0,62.0
6206,77.0,24,21,7.0,75.0
6207,77.0,0,21,6.0,75.0
6208,77.0,0,21,2.0,62.0
6209,74.0,0,21,8.0,75.0
6210,74.0,0,21,3.0,62.0
6211,72.0,0,21,8.0,75.0
6212,67.0,0,21,10.0,75.0
6213,76.0,0,21,7.0,75.0
6214,76.0,0,21,6.0,75.0
6215,36.0,0,42,13.0,49.0
6216,24.0,0,42,12.0,101.0
6217,36.0,0,42,11.0,49.0
6218,36.0,0,42,5.0,62.0
6219,71.0,0,21,8.0,75.0
6220,74.0,0,21,7.0,75.0
6221,65.0,24,21,10.0,75.0
6222,74.0,0,21,6.0,75.0
6223,72.0,0,21,8.0,75.0
6224,72.0,24,21,6.0,75.0
6225,64.0,0,21,10.0,75.0
6226,72.0,0,21,7.0,75.0
6227,67.0,0,21,0.0,127.0
6228,60.0,0,21,1.0,127.0
6229,76.0,0,84,2.0,62.0
6230,67.0,24,84,4.0,62.0
6231,72.0,0,84,3.0,62.0
6232,43.0,0,42,13.0,49.0
6233,43.0,0,42,5.0,62.0
6234,43.0,0,42,11.0,49.0
6235,31.0,0,42,12.0,101.0
6236,74.0,0,21,7.0,75.0
6237,71.0,24,21,8.0,75.0
6238,65.0,0,21,0.0,127.0
6239,60.0,0,21,1.0,127.0
6240,74.0,0,21,6.0,75.0
6241,62.0,0,21,10.0,75.0
6242,76.0,0,21,7.0,75.0
6243,76.0,0,21,6.0,75.0
6244,67.0,0,21,0.0,127.0
6245,72.0,24,21,8.0,75.0
6246,60.0,0,42,10.0,75.0
6247,48.0,0,42,13.0,49.0
6248,60.0,0,42,1.0,127.0
6249,36.0,0,42,12.0,101.0
6250,48.0,0,42,11.0,49.0
6251,48.0,0,42,5.0,62.0
6252,74.0,0,21,8.0,75.0
6253,69.0,0,21,0.0,127.0
6254,77.0,24,21,6.0,75.0
6255,77.0,0,21,7.0,75.0
6256,70.0,24,21,0.0,127.0
6257,36.0,0,42,5.0,62.0
6258,36.0,0,42,11.0,49.0
6259,60.0,0,42,1.0,127.0
6260,24.0,0,42,12.0,101.0
6261,72.0,0,42,10.0,75.0
6262,67.0,0,42,4.0,62.0
6263,36.0,0,42,13.0,49.0
6264,72.0,0,42,3.0,62.0
6265,76.0,0,42,2.0,62.0
6266,67.0,24,21,0.0,127.0
6267,69.0,0,21,0.0,127.0
6268,41.0,0,42,5.0,62.0
6269,79.0,0,90,7.0,75.0
6270,60.0,0,42,1.0,127.0
6271,41.0,0,42,11.0,49.0
6272,76.0,0,90,8.0,75.0
6273,79.0,0,90,6.0,75.0
6274,41.0,0,42,13.0,49.0
6275,29.0,0,42,12.0,101.0
6276,67.0,24,21,0.0,127.0
6277,69.0,0,21,0.0,127.0
6278,77.0,0,21,6.0,75.0
6279,74.0,0,21,8.0,75.0
6280,77.0,0,21,7.0,75.0
6281,69.0,0,84,3.0,62.0
6282,72.0,24,84,2.0,62.0
6283,65.0,0,84,4.0,62.0
6284,33.0,24,42,12.0,101.0
6285,45.0,0,42,13.0,49.0
6286,60.0,0,42,1.0,127.0
6287,45.0,0,42,11.0,49.0
6288,45.0,0,42,5.0,62.0
6289,72.0,0,21,8.0,75.0
6290,76.0,0,21,6.0,75.0
6291,76.0,24,21,7.0,75.0
6292,67.0,0,21,0.0,127.0
6293,65.0,0,21,1.0,127.0
6294,69.0,0,21,0.0,127.0
6295,50.0,0,42,13.0,49.0
6296,50.0,24,42,5.0,62.0
6297,38.0,0,42,12.0,101.0
6298,50.0,0,42,11.0,49.0
6299,71.0,24,21,0.0,127.0
6300,67.0,0,21,1.0,127.0
6301,72.0,0,21,0.0,127.0
6302,69.0,0,21,1.0,127.0
6303,72.0,0,180,10.0,75.0
6304,38.0,0,42,5.0,62.0
6305,69.0,0,42,4.0,62.0
6306,74.0,0,42,3.0,62.0
6307,38.0,0,42,13.0,49.0
6308,26.0,0,42,12.0,101.0
6309,77.0,24,42,2.0,62.0
6310,38.0,0,42,11.0,49.0
6311,65.0,0,21,1.0,127.0
6312,69.0,24,21,0.0,127.0
6313,71.0,0,21,0.0,127.0
6314,67.0,0,21,1.0,127.0
6315,77.0,0,138,7.0,75.0
6316,77.0,0,138,6.0,75.0
6317,43.0,0,42,5.0,62.0
6318,31.0,0,42,12.0,101.0
6319,43.0,0,42,11.0,49.0
6320,43.0,0,42,13.0,49.0
6321,65.0,24,21,1.0,127.0
6322,69.0,0,21,0.0,127.0
6323,76.0,24,21,7.0,75.0
6324,67.0,0,21,1.0,127.0
6325,76.0,0,21,6.0,75.0
6326,71.0,0,21,0.0,127.0
6327,71.0,0,84,3.0,62.0
6328,74.0,24,84,2.0,62.0
6329,67.0,0,84,4.0,62.0
6330,71.0,0,84,10.0,75.0
6331,47.0,0,42,5.0,62.0
6332,35.0,0,42,12.0,101.0
6333,47.0,0,42,13.0,49.0
6334,47.0,0,42,11.0,49.0
6335,74.0,0,21,7.0,75.0
6336,74.0,24,21,6.0,75.0
6337,69.0,0,21,0.0,127.0
6338,65.0,0,21,1.0,127.0
6339,67.0,0,21,1.0,127.0
6340,71.0,0,21,0.0,127.0
6341,52.0,0,42,13.0,49.0
6342,40.0,24,42,12.0,101.0
6343,52.0,0,42,5.0,62.0
6344,52.0,0,42,11.0,49.0
6345,69.0,24,21,1.0,127.0
6346,72.0,0,21,0.0,127.0
6347,71.0,0,21,1.0,127.0
6348,74.0,24,21,0.0,127.0
6349,74.0,0,276,8.0,75.0
6350,28.0,0,42,12.0,101.0
6351,76.0,0,42,3.0,62.0
6352,40.0,0,42,13.0,49.0
6353,71.0,0,42,4.0,62.0
6354,40.0,0,42,11.0,49.0
6355,40.0,0,42,5.0,62.0
6356,79.0,0,42,2.0,62.0
6357,71.0,24,21,0.0,127.0
6358,67.0,0,21,1.0,127.0
6359,72.0,0,21,3.0,62.0
6360,76.0,0,117,6.0,75.0
6361,76.0,0,117,7.0,75.0
6362,72.0,0,21,8.0,75.0
6363,67.0,0,117,10.0,75.0
6364,69.0,0,21,4.0,62.0
6365,33.0,0,42,12.0,101.0
6366,45.0,0,42,11.0,49.0
6367,45.0,0,42,13.0,49.0
6368,45.0,0,42,5.0,62.0
6369,71.0,0,21,8.0,75.0
6370,71.0,0,21,4.0,62.0
6371,74.0,24,21,6.0,75.0
6372,64.0,0,21,10.0,75.0
6373,71.0,0,21,3.0,62.0
6374,74.0,0,21,7.0,75.0
6375,69.0,24,63,1.0,127.0
6376,76.0,0,63,2.0,62.0
6377,72.0,0,63,0.0,127.0
6378,76.0,0,21,6.0,75.0
6379,72.0,0,21,3.0,62.0
6380,69.0,24,21,10.0,75.0
6381,76.0,0,21,7.0,75.0
6382,72.0,0,21,8.0,75.0
6383,69.0,0,21,4.0,62.0
6384,53.0,0,42,11.0,49.0
6385,53.0,0,42,13.0,49.0
6386,53.0,0,42,5.0,62.0
6387,41.0,0,42,12.0,101.0
6388,77.0,0,21,7.0,75.0
6389,74.0,0,21,0.0,127.0
6390,67.0,24,21,4.0,62.0
6391,71.0,0,21,1.0,127.0
6392,74.0,0,21,8.0,75.0
6393,77.0,0,21,6.0,75.0
6394,74.0,0,21,3.0,62.0
6395,77.0,0,21,2.0,62.0
6396,67.0,0,21,10.0,75.0
6397,72.0,0,10,0.0,127.0
6398,65.0,0,21,10.0,75.0
6399,65.0,0,21,4.0,62.0
6400,71.0,12,10,0.0,127.0
6401,72.0,12,10,0.0,127.0
6402,67.0,24,42,3.0,62.0
6403,55.0,0,42,13.0,49.0
6404,55.0,0,42,11.0,49.0
6405,55.0,0,42,5.0,62.0
6406,67.0,0,42,8.0,75.0
6407,43.0,0,42,12.0,101.0
6408,64.0,0,21,10.0,75.0
6409,64.0,0,21,4.0,62.0
6410,71.0,12,10,0.0,127.0
6411,74.0,0,63,7.0,75.0
6412,74.0,0,63,6.0,75.0
6413,74.0,0,63,2.0,62.0
6414,67.0,0,63,1.0,127.0
6415,65.0,0,21,10.0,75.0
6416,65.0,0,21,4.0,62.0
6417,71.0,12,21,0.0,127.0
6418,31.0,0,42,12.0,101.0
6419,43.0,0,42,13.0,49.0
6420,67.0,0,42,8.0,75.0
6421,43.0,0,42,5.0,62.0
6422,67.0,0,42,3.0,62.0
6423,43.0,0,42,11.0,49.0
6424,72.0,0,21,6.0,75.0
6425,67.0,0,21,1.0,127.0
6426,62.0,0,21,10.0,75.0
6427,72.0,24,21,0.0,127.0
6428,72.0,0,21,7.0,75.0
6429,62.0,0,21,4.0,62.0
6430,72.0,0,21,2.0,62.0
6431,64.0,0,42,4.0,62.0
6432,67.0,24,42,3.0,62.0
6433,72.0,0,42,2.0,62.0
6434,79.0,0,21,2.0,62.0
6435,76.0,48,21,3.0,62.0
6436,48.0,0,84,5.0,62.0
6437,36.0,0,84,12.0,101.0
6438,67.0,0,84,8.0,75.0
6439,72.0,0,84,6.0,75.0
6440,64.0,0,84,10.0,75.0
6441,72.0,0,84,7.0,75.0
6442,48.0,0,84,11.0,49.0
6443,67.0,0,84,1.0,127.0
6444,48.0,0,84,13.0,49.0
6445,72.0,0,84,0.0,127.0
6446,72.0,0,42,4.0,62.0
6447,77.0,0,21,2.0,62.0
6448,74.0,24,21,3.0,62.0
6449,79.0,0,21,2.0,62.0
6450,76.0,0,21,3.0,62.0
6451,70.0,24,42,4.0,62.0
6452,77.0,24,21,2.0,62.0
6453,74.0,0,21,3.0,62.0
6454,79.0,24,21,2.0,62.0
6455,76.0,0,21,3.0,62.0
6456,69.0,0,42,4.0,62.0
6457,81.0,0,21,2.0,62.0
6458,77.0,24,21,3.0,62.0
6459,79.0,24,21,3.0,62.0
6460,82.0,0,21,2.0,62.0
6461,67.0,0,42,4.0,62.0
6462,77.0,0,21,3.0,62.0
6463,81.0,24,21,2.0,62.0
6464,79.0,24,21,3.0,62.0
6465,82.0,0,21,2.0,62.0
6466,65.0,0,42,4.0,62.0
6467,84.0,24,21,2.0,62.0
6468,81.0,0,21,3.0,62.0
6469,82.0,0,21,2.0,62.0
6470,79.0,0,21,3.0,62.0
6471,64.0,24,42,4.0,62.0
6472,81.0,24,21,3.0,62.0
6473,84.0,0,21,2.0,62.0
6474,82.0,0,21,2.0,62.0
6475,79.0,24,21,3.0,62.0
6476,60.0,0,42,4.0,62.0
6477,84.0,0,21,2.0,62.0
6478,81.0,24,21,3.0,62.0
6479,81.0,0,42,2.0,62.0
6480,65.0,0,42,4.0,62.0
6481,77.0,24,42,3.0,62.0
6482,72.0,48,21,8.0,75.0
6483,81.0,0,21,7.0,75.0
6484,81.0,0,21,6.0,75.0
6485,41.0,0,84,11.0,49.0
6486,29.0,0,84,12.0,101.0
6487,41.0,0,84,5.0,62.0
6488,41.0,0,84,13.0,49.0
6489,65.0,0,42,10.0,75.0
6490,70.0,0,21,8.0,75.0
6491,79.0,24,21,6.0,75.0
6492,79.0,0,21,7.0,75.0
6493,72.0,0,21,8.0,75.0
6494,81.0,24,21,7.0,75.0
6495,81.0,0,21,6.0,75.0
6496,63.0,0,42,10.0,75.0
6497,70.0,0,21,8.0,75.0
6498,79.0,24,21,7.0,75.0
6499,79.0,0,21,6.0,75.0
6500,72.0,24,21,8.0,75.0
6501,81.0,0,21,6.0,75.0
6502,81.0,0,21,7.0,75.0
6503,62.0,0,42,10.0,75.0
6504,74.0,24,21,8.0,75.0
6505,82.0,0,21,6.0,75.0
6506,82.0,0,21,7.0,75.0
6507,84.0,0,21,6.0,75.0
6508,84.0,24,21,7.0,75.0
6509,75.0,0,21,8.0,75.0
6510,60.0,0,42,10.0,75.0
6511,82.0,24,21,6.0,75.0
6512,74.0,0,21,8.0,75.0
6513,82.0,0,21,7.0,75.0
6514,84.0,24,21,7.0,75.0
6515,84.0,0,21,6.0,75.0
6516,75.0,0,21,8.0,75.0
6517,58.0,0,42,10.0,75.0
6518,86.0,0,21,6.0,75.0
6519,77.0,0,21,8.0,75.0
6520,86.0,24,21,7.0,75.0
6521,75.0,0,21,8.0,75.0
6522,84.0,0,21,7.0,75.0
6523,84.0,0,21,6.0,75.0
6524,57.0,24,42,10.0,75.0
6525,77.0,24,21,8.0,75.0
6526,86.0,0,21,7.0,75.0
6527,86.0,0,21,6.0,75.0
6528,84.0,24,21,7.0,75.0
6529,84.0,0,21,6.0,75.0
6530,75.0,0,21,8.0,75.0
6531,53.0,0,42,10.0,75.0
6532,77.0,0,21,8.0,75.0
6533,86.0,24,21,7.0,75.0
6534,86.0,0,21,6.0,75.0
6535,46.0,0,42,11.0,49.0
6536,46.0,0,42,5.0,62.0
6537,58.0,0,42,10.0,75.0
6538,34.0,0,42,12.0,101.0
6539,74.0,0,42,8.0,75.0
6540,82.0,0,42,7.0,75.0
6541,46.0,0,42,13.0,49.0
6542,82.0,24,42,6.0,75.0
6543,41.0,0,21,12.0,101.0
6544,53.0,0,21,5.0,62.0
6545,53.0,0,21,13.0,49.0
6546,53.0,0,21,11.0,49.0
6547,74.0,0,42,13.0,49.0
6548,74.0,0,42,8.0,75.0
6549,77.0,0,42,7.0,75.0
6550,68.0,48,42,10.0,75.0
6551,68.0,0,42,13.0,49.0
6552,77.0,0,42,6.0,75.0
6553,51.0,0,21,11.0,49.0
6554,51.0,0,21,5.0,62.0
6555,39.0,0,21,12.0,101.0
6556,51.0,24,21,13.0,49.0
6557,53.0,0,21,13.0,49.0
6558,53.0,24,21,5.0,62.0
6559,41.0,0,21,12.0,101.0
6560,53.0,0,21,11.0,49.0
6561,80.0,0,42,7.0,75.0
6562,74.0,0,42,10.0,75.0
6563,68.0,0,42,13.0,49.0
6564,74.0,0,42,13.0,49.0
6565,77.0,0,42,8.0,75.0
6566,80.0,0,42,6.0,75.0
6567,51.0,0,21,13.0,49.0
6568,51.0,0,21,5.0,62.0
6569,51.0,24,21,11.0,49.0
6570,39.0,0,21,12.0,101.0
6571,53.0,0,21,13.0,49.0
6572,53.0,0,21,5.0,62.0
6573,53.0,0,21,11.0,49.0
6574,41.0,0,21,12.0,101.0
6575,77.0,0,180,0.0,127.0
6576,86.0,0,42,6.0,75.0
6577,68.0,24,42,13.0,49.0
6578,74.0,0,42,13.0,49.0
6579,77.0,0,42,10.0,75.0
6580,80.0,0,42,8.0,75.0
6581,80.0,0,42,2.0,62.0
6582,86.0,0,42,7.0,75.0
6583,68.0,0,42,4.0,62.0
6584,74.0,0,42,3.0,62.0
6585,43.0,0,21,12.0,101.0
6586,55.0,0,21,11.0,49.0
6587,55.0,24,21,13.0,49.0
6588,55.0,0,21,5.0,62.0
6589,56.0,0,21,11.0,49.0
6590,44.0,0,21,12.0,101.0
6591,56.0,0,21,13.0,49.0
6592,56.0,0,21,5.0,62.0
6593,75.0,0,42,2.0,62.0
6594,74.0,0,42,3.0,62.0
6595,74.0,24,42,13.0,49.0
6596,77.0,0,42,13.0,49.0
6597,68.0,0,42,4.0,62.0
6598,46.0,24,21,12.0,101.0
6599,58.0,0,21,11.0,49.0
6600,58.0,0,21,5.0,62.0
6601,58.0,0,21,13.0,49.0
6602,39.0,0,21,12.0,101.0
6603,51.0,0,21,13.0,49.0
6604,51.0,0,21,5.0,62.0
6605,51.0,0,21,11.0,49.0
6606,74.0,0,180,1.0,127.0
6607,70.0,0,42,13.0,49.0
6608,70.0,24,42,8.0,75.0
6609,67.0,0,42,10.0,75.0
6610,79.0,0,42,2.0,62.0
6611,67.0,0,42,13.0,49.0
6612,75.0,0,42,6.0,75.0
6613,67.0,0,42,4.0,62.0
6614,75.0,0,42,3.0,62.0
6615,75.0,0,42,7.0,75.0
6616,50.0,0,21,13.0,49.0
6617,50.0,0,21,11.0,49.0
6618,50.0,24,21,5.0,62.0
6619,38.0,0,21,12.0,101.0
6620,51.0,0,21,13.0,49.0
6621,51.0,0,21,11.0,49.0
6622,39.0,0,21,12.0,101.0
6623,51.0,0,21,5.0,62.0
6624,72.0,0,42,10.0,75.0
6625,75.0,24,42,8.0,75.0
6626,79.0,0,42,7.0,75.0
6627,79.0,0,42,6.0,75.0
6628,72.0,0,42,13.0,49.0
6629,67.0,0,42,13.0,49.0
6630,38.0,0,21,12.0,101.0
6631,50.0,24,21,11.0,49.0
6632,50.0,0,21,13.0,49.0
6633,50.0,0,21,5.0,62.0
6634,51.0,0,21,13.0,49.0
6635,51.0,0,21,11.0,49.0
6636,39.0,0,21,12.0,101.0
6637,51.0,24,21,5.0,62.0
6638,75.0,0,180,0.0,127.0
6639,79.0,0,42,8.0,75.0
6640,84.0,0,42,7.0,75.0
6641,84.0,0,42,6.0,75.0
6642,67.0,0,42,4.0,62.0
6643,75.0,0,42,10.0,75.0
6644,72.0,0,42,3.0,62.0
6645,79.0,0,42,2.0,62.0
6646,72.0,0,42,13.0,49.0
6647,79.0,0,42,13.0,49.0
6648,41.0,0,21,12.0,101.0
6649,53.0,0,21,13.0,49.0
6650,53.0,24,21,11.0,49.0
6651,53.0,0,21,5.0,62.0
6652,55.0,0,21,11.0,49.0
6653,55.0,0,21,13.0,49.0
6654,55.0,0,21,5.0,62.0
6655,43.0,0,21,12.0,101.0
6656,67.0,0,42,4.0,62.0
6657,60.0,0,42,13.0,49.0
6658,74.0,0,42,13.0,49.0
6659,72.0,0,42,3.0,62.0
6660,74.0,0,42,2.0,62.0
6661,45.0,0,21,12.0,101.0
6662,57.0,0,21,13.0,49.0
6663,57.0,0,21,5.0,62.0
6664,57.0,24,21,11.0,49.0
6665,50.0,0,21,5.0,62.0
6666,50.0,0,21,11.0,49.0
6667,38.0,0,21,12.0,101.0
6668,50.0,0,21,13.0,49.0
6669,72.0,0,180,1.0,127.0
6670,65.0,0,42,10.0,75.0
6671,74.0,0,42,3.0,62.0
6672,77.0,0,42,2.0,62.0
6673,74.0,0,42,6.0,75.0
6674,74.0,0,42,7.0,75.0
6675,65.0,24,42,4.0,62.0
6676,69.0,0,42,8.0,75.0
6677,62.0,0,42,13.0,49.0
6678,69.0,0,42,13.0,49.0
6679,36.0,24,21,12.0,101.0
6680,48.0,0,21,5.0,62.0
6681,48.0,0,21,13.0,49.0
6682,48.0,0,21,11.0,49.0
6683,50.0,0,21,11.0,49.0
6684,38.0,0,21,12.0,101.0
6685,50.0,0,21,5.0,62.0
6686,50.0,0,21,13.0,49.0
6687,70.0,0,42,10.0,75.0
6688,77.0,0,42,6.0,75.0
6689,72.0,0,42,13.0,49.0
6690,65.0,24,42,13.0,49.0
6691,77.0,0,42,7.0,75.0
6692,74.0,0,42,8.0,75.0
6693,36.0,24,21,12.0,101.0
6694,48.0,0,21,5.0,62.0
6695,48.0,0,21,13.0,49.0
6696,48.0,0,21,11.0,49.0
6697,50.0,0,21,11.0,49.0
6698,50.0,24,21,5.0,62.0
6699,38.0,0,21,12.0,101.0
6700,50.0,0,21,13.0,49.0
6701,74.0,24,180,0.0,127.0
6702,65.0,0,42,13.0,49.0
6703,77.0,0,42,2.0,62.0
6704,82.0,0,42,7.0,75.0
6705,65.0,0,42,4.0,62.0
6706,74.0,0,42,10.0,75.0
6707,77.0,0,42,8.0,75.0
6708,70.0,0,42,3.0,62.0
6709,70.0,0,42,13.0,49.0
6710,82.0,0,42,6.0,75.0
6711,39.0,0,21,12.0,101.0
6712,51.0,0,21,13.0,49.0
6713,51.0,24,21,11.0,49.0
6714,51.0,0,21,5.0,62.0
6715,72.0,0,21,0.0,127.0
6716,53.0,0,42,5.0,62.0
6717,70.0,0,138,1.0,127.0
6718,53.0,0,42,11.0,49.0
6719,65.0,0,42,4.0,62.0
6720,70.0,0,42,3.0,62.0
6721,41.0,0,42,12.0,101.0
6722,53.0,24,42,13.0,49.0
6723,72.0,0,42,2.0,62.0
6724,70.0,24,21,0.0,127.0
6725,72.0,0,21,0.0,127.0
6726,69.0,0,21,1.0,127.0
6727,48.0,0,42,5.0,62.0
6728,69.0,0,42,4.0,62.0
6729,48.0,0,42,11.0,49.0
6730,36.0,0,42,12.0,101.0
6731,48.0,0,42,13.0,49.0
6732,72.0,24,42,3.0,62.0
6733,75.0,0,42,2.0,62.0
6734,67.0,24,21,1.0,127.0
6735,70.0,0,21,0.0,127.0
6736,69.0,0,21,1.0,127.0
6737,72.0,0,21,0.0,127.0
6738,45.0,0,42,11.0,49.0
6739,45.0,0,42,5.0,62.0
6740,33.0,24,42,12.0,101.0
6741,45.0,0,42,13.0,49.0
6742,74.0,24,21,0.0,127.0
6743,70.0,0,21,1.0,127.0
6744,72.0,0,21,1.0,127.0
6745,75.0,0,21,0.0,127.0
6746,41.0,0,42,5.0,62.0
6747,29.0,24,42,12.0,101.0
6748,41.0,0,42,11.0,49.0
6749,41.0,0,42,13.0,49.0
6750,72.0,24,21,0.0,127.0
6751,69.0,0,21,1.0,127.0
6752,46.0,0,21,13.0,49.0
6753,46.0,0,21,11.0,49.0
6754,34.0,24,21,12.0,101.0
6755,46.0,0,21,5.0,62.0
6756,72.0,0,138,13.0,49.0
6757,65.0,0,138,10.0,75.0
6758,72.0,0,138,6.0,75.0
6759,72.0,0,138,7.0,75.0
6760,65.0,0,138,13.0,49.0
6761,69.0,0,138,8.0,75.0
6762,69.0,0,138,13.0,49.0
6763,53.0,0,21,13.0,49.0
6764,53.0,0,21,5.0,62.0
6765,53.0,24,21,11.0,49.0
6766,41.0,0,21,12.0,101.0
6767,58.0,0,21,11.0,49.0
6768,46.0,0,21,12.0,101.0
6769,58.0,0,21,13.0,49.0
6770,58.0,0,21,5.0,62.0
6771,65.0,0,42,13.0,49.0
6772,58.0,0,42,8.0,75.0
6773,62.0,0,42,7.0,75.0
6774,53.0,0,42,10.0,75.0
6775,62.0,24,42,6.0,75.0
6776,74.0,0,42,13.0,49.0
6777,57.0,0,21,13.0,49.0
6778,57.0,0,21,5.0,62.0
6779,45.0,0,21,12.0,101.0
6780,57.0,24,21,11.0,49.0
6781,46.0,24,21,12.0,101.0
6782,58.0,0,21,11.0,49.0
6783,58.0,0,21,13.0,49.0
6784,58.0,0,21,5.0,62.0
6785,65.0,0,42,6.0,75.0
6786,62.0,0,42,8.0,75.0
6787,58.0,0,42,10.0,75.0
6788,65.0,0,42,13.0,49.0
6789,74.0,0,42,13.0,49.0
6790,65.0,0,42,7.0,75.0
6791,57.0,0,21,5.0,62.0
6792,57.0,24,21,13.0,49.0
6793,57.0,0,21,11.0,49.0
6794,45.0,0,21,12.0,101.0
6795,58.0,0,21,11.0,49.0
6796,58.0,24,21,13.0,49.0
6797,46.0,0,21,12.0,101.0
6798,58.0,0,21,5.0,62.0
6799,77.0,0,180,2.0,62.0
6800,65.0,0,42,13.0,49.0
6801,65.0,0,42,8.0,75.0
6802,70.0,0,42,7.0,75.0
6803,70.0,0,42,6.0,75.0
6804,74.0,0,42,13.0,49.0
6805,62.0,0,42,10.0,75.0
6806,57.0,24,21,13.0,49.0
6807,45.0,0,21,12.0,101.0
6808,57.0,0,21,5.0,62.0
6809,57.0,0,21,11.0,49.0
6810,70.0,0,213,1.0,127.0
6811,74.0,0,213,0.0,127.0
6812,55.0,0,42,11.0,49.0
6813,55.0,24,42,5.0,62.0
6814,43.0,0,42,12.0,101.0
6815,55.0,0,42,13.0,49.0
6816,72.0,0,21,0.0,127.0
6817,69.0,24,21,1.0,127.0
6818,70.0,0,21,1.0,127.0
6819,74.0,0,21,0.0,127.0
6820,50.0,24,42,11.0,49.0
6821,50.0,0,42,13.0,49.0
6822,50.0,0,42,5.0,62.0
6823,38.0,0,42,12.0,101.0
6824,69.0,0,21,1.0,127.0
6825,72.0,24,21,0.0,127.0
6826,74.0,0,21,0.0,127.0
6827,34.0,24,42,12.0,101.0
6828,67.0,0,42,1.0,127.0
6829,46.0,0,42,5.0,62.0
6830,46.0,0,42,11.0,49.0
6831,46.0,0,42,13.0,49.0
6832,72.0,24,21,0.0,127.0
6833,70.0,0,21,0.0,127.0
6834,74.0,0,372,3.0,62.0
6835,70.0,0,372,4.0,62.0
6836,65.0,0,42,1.0,127.0
6837,31.0,24,42,12.0,101.0
6838,43.0,0,42,11.0,49.0
6839,43.0,0,42,5.0,62.0
6840,43.0,0,42,13.0,49.0
6841,69.0,24,21,0.0,127.0
6842,48.0,0,21,5.0,62.0
6843,48.0,0,21,11.0,49.0
6844,33.0,0,21,12.0,101.0
6845,67.0,0,21,0.0,127.0
6846,48.0,24,21,13.0,49.0
6847,67.0,0,234,10.0,75.0
6848,67.0,0,234,13.0,49.0
6849,70.0,0,234,13.0,49.0
6850,74.0,0,234,13.0,49.0
6851,60.0,0,42,1.0,127.0
6852,74.0,0,234,7.0,75.0
6853,74.0,0,234,6.0,75.0
6854,70.0,0,234,8.0,75.0
6855,55.0,0,21,13.0,49.0
6856,65.0,0,21,0.0,127.0
6857,43.0,24,21,12.0,101.0
6858,55.0,0,21,5.0,62.0
6859,55.0,0,21,11.0,49.0
6860,60.0,0,21,11.0,49.0
6861,60.0,0,21,5.0,62.0
6862,60.0,0,21,13.0,49.0
6863,48.0,0,21,12.0,101.0
6864,60.0,0,21,1.0,127.0
6865,67.0,0,21,0.0,127.0
6866,67.0,0,42,13.0,49.0
6867,76.0,0,42,13.0,49.0
6868,64.0,0,42,7.0,75.0
6869,64.0,0,42,6.0,75.0
6870,60.0,24,42,8.0,75.0
6871,55.0,0,42,10.0,75.0
6872,58.0,24,21,13.0,49.0
6873,60.0,0,21,1.0,127.0
6874,46.0,0,21,12.0,101.0
6875,58.0,0,21,5.0,62.0
6876,69.0,0,21,0.0,127.0
6877,58.0,0,21,11.0,49.0
6878,48.0,0,21,12.0,101.0
6879,60.0,0,21,5.0,62.0
6880,67.0,0,21,0.0,127.0
6881,60.0,0,21,13.0,49.0
6882,60.0,0,21,11.0,49.0
6883,60.0,0,42,1.0,127.0
6884,67.0,0,42,13.0,49.0
6885,76.0,0,42,13.0,49.0
6886,60.0,24,42,10.0,75.0
6887,67.0,0,42,7.0,75.0
6888,64.0,0,42,8.0,75.0
6889,67.0,0,42,6.0,75.0
6890,58.0,0,21,11.0,49.0
6891,58.0,0,21,5.0,62.0
6892,46.0,0,21,12.0,101.0
6893,70.0,0,21,0.0,127.0
6894,58.0,24,21,13.0,49.0
6895,69.0,0,21,0.0,127.0
6896,60.0,0,21,5.0,62.0
6897,48.0,0,21,12.0,101.0
6898,60.0,0,21,13.0,49.0
6899,60.0,0,21,11.0,49.0
6900,65.0,0,21,1.0,127.0
6901,79.0,0,372,2.0,62.0
6902,67.0,0,42,13.0,49.0
6903,70.0,0,42,6.0,75.0
6904,72.0,0,42,7.0,75.0
6905,76.0,0,42,13.0,49.0
6906,67.0,0,42,8.0,75.0
6907,64.0,24,42,10.0,75.0
6908,67.0,0,21,1.0,127.0
6909,58.0,0,21,13.0,49.0
6910,46.0,0,21,12.0,101.0
6911,70.0,0,21,0.0,127.0
6912,58.0,24,21,5.0,62.0
6913,58.0,0,21,11.0,49.0
6914,72.0,0,21,0.0,127.0
6915,69.0,0,21,1.0,127.0
6916,45.0,0,42,12.0,101.0
6917,57.0,0,42,5.0,62.0
6918,57.0,0,42,11.0,49.0
6919,57.0,0,42,13.0,49.0
6920,67.0,0,21,1.0,127.0
6921,70.0,24,21,0.0,127.0
6922,69.0,0,21,1.0,127.0
6923,72.0,0,21,0.0,127.0
6924,52.0,0,42,11.0,49.0
6925,52.0,0,42,13.0,49.0
6926,52.0,24,42,5.0,62.0
6927,40.0,0,42,12.0,101.0
6928,67.0,24,21,1.0,127.0
6929,70.0,0,21,0.0,127.0
6930,69.0,0,21,1.0,127.0
6931,72.0,0,21,0.0,127.0
6932,48.0,24,42,11.0,49.0
6933,36.0,0,42,12.0,101.0
6934,48.0,0,42,5.0,62.0
6935,48.0,0,42,13.0,49.0
6936,70.0,24,21,0.0,127.0
6937,67.0,0,21,1.0,127.0
6938,69.0,0,21,1.0,127.0
6939,72.0,0,21,0.0,127.0
6940,76.0,0,372,3.0,62.0
6941,72.0,0,372,4.0,62.0
6942,45.0,0,42,13.0,49.0
6943,33.0,0,42,12.0,101.0
6944,45.0,0,42,5.0,62.0
6945,45.0,24,42,11.0,49.0
6946,70.0,0,21,0.0,127.0
6947,67.0,24,21,1.0,127.0
6948,69.0,0,21,0.0,127.0
6949,34.0,24,21,12.0,101.0
6950,50.0,0,21,11.0,49.0
6951,50.0,0,21,5.0,62.0
6952,50.0,0,21,13.0,49.0
6953,72.0,0,234,8.0,75.0
6954,76.0,0,234,7.0,75.0
6955,76.0,24,234,6.0,75.0
6956,69.0,0,234,13.0,49.0
6957,72.0,0,234,13.0,49.0
6958,76.0,0,234,13.0,49.0
6959,65.0,0,42,1.0,127.0
6960,69.0,0,234,10.0,75.0
6961,45.0,0,21,12.0,101.0
6962,57.0,0,21,13.0,49.0
6963,67.0,24,21,0.0,127.0
6964,57.0,0,21,5.0,62.0
6965,57.0,0,21,11.0,49.0
6966,62.0,0,21,5.0,62.0
6967,50.0,0,21,12.0,101.0
6968,65.0,0,21,1.0,127.0
6969,62.0,0,21,11.0,49.0
6970,69.0,0,21,0.0,127.0
6971,62.0,0,21,13.0,49.0
6972,65.0,0,42,7.0,75.0
6973,77.0,0,42,13.0,49.0
6974,69.0,0,42,13.0,49.0
6975,57.0,0,42,10.0,75.0
6976,62.0,0,42,8.0,75.0
6977,65.0,24,42,6.0,75.0
6978,70.0,0,21,0.0,127.0
6979,48.0,0,21,12.0,101.0
6980,60.0,24,21,5.0,62.0
6981,65.0,0,21,1.0,127.0
6982,60.0,0,21,11.0,49.0
6983,60.0,0,21,13.0,49.0
6984,62.0,0,21,13.0,49.0
6985,65.0,0,21,1.0,127.0
6986,69.0,0,21,0.0,127.0
6987,62.0,0,21,5.0,62.0
6988,50.0,0,21,12.0,101.0
6989,62.0,0,21,11.0,49.0
6990,62.0,0,42,10.0,75.0
6991,69.0,0,42,6.0,75.0
6992,69.0,0,42,7.0,75.0
6993,69.0,0,42,13.0,49.0
6994,65.0,24,42,8.0,75.0
6995,77.0,0,42,13.0,49.0
6996,60.0,0,21,13.0,49.0
6997,48.0,0,21,12.0,101.0
6998,72.0,0,21,0.0,127.0
6999,60.0,24,21,5.0,62.0
7000,60.0,0,21,11.0,49.0
7001,69.0,0,21,1.0,127.0
7002,70.0,0,21,0.0,127.0
7003,62.0,0,21,5.0,62.0
7004,62.0,0,21,11.0,49.0
7005,50.0,0,21,12.0,101.0
7006,62.0,0,21,13.0,49.0
7007,67.0,0,21,1.0,127.0
7008,77.0,0,180,3.0,62.0
7009,74.0,0,180,4.0,62.0
7010,81.0,0,372,2.0,62.0
7011,74.0,0,42,6.0,75.0
7012,69.0,24,42,13.0,49.0
7013,77.0,0,42,13.0,49.0
7014,74.0,0,42,7.0,75.0
7015,69.0,0,42,8.0,75.0
7016,65.0,0,42,10.0,75.0
7017,60.0,0,21,13.0,49.0
7018,48.0,0,21,12.0,101.0
7019,72.0,0,21,0.0,127.0
7020,60.0,0,21,5.0,62.0
7021,69.0,0,21,1.0,127.0
7022,60.0,24,21,11.0,49.0
7023,74.0,0,21,0.0,127.0
7024,65.0,0,21,1.0,127.0
7025,47.0,24,42,12.0,101.0
7026,59.0,0,42,13.0,49.0
7027,74.0,0,42,13.0,49.0
7028,65.0,0,42,13.0,49.0
7029,59.0,0,42,5.0,62.0
7030,59.0,0,42,11.0,49.0
7031,72.0,0,21,0.0,127.0
7032,67.0,24,21,1.0,127.0
7033,65.0,0,21,1.0,127.0
7034,74.0,0,21,0.0,127.0
7035,44.0,0,42,12.0,101.0
7036,65.0,0,42,3.0,62.0
7037,56.0,0,42,11.0,49.0
7038,62.0,24,42,4.0,62.0
7039,56.0,0,42,5.0,62.0
7040,56.0,0,42,13.0,49.0
7041,71.0,0,42,2.0,62.0
7042,67.0,24,21,1.0,127.0
7043,72.0,0,21,0.0,127.0
7044,74.0,0,117,8.0,75.0
7045,68.0,0,117,10.0,75.0
7046,77.0,0,117,7.0,75.0
7047,77.0,0,117,6.0,75.0
7048,53.0,0,42,11.0,49.0
7049,74.0,0,42,2.0,62.0
7050,65.0,0,42,4.0,62.0
7051,53.0,0,42,13.0,49.0
7052,53.0,0,42,5.0,62.0
7053,71.0,0,42,3.0,62.0
7054,41.0,24,42,12.0,101.0
7055,67.0,0,21,10.0,75.0
7056,72.0,24,21,8.0,75.0
7057,76.0,0,21,7.0,75.0
7058,76.0,0,21,6.0,75.0
7059,68.0,0,21,10.0,75.0
7060,77.0,0,21,6.0,75.0
7061,74.0,0,21,8.0,75.0
7062,77.0,0,21,7.0,75.0
7063,50.0,24,42,13.0,49.0
7064,38.0,0,42,12.0,101.0
7065,74.0,0,42,3.0,62.0
7066,71.0,0,42,4.0,62.0
7067,77.0,0,42,2.0,62.0
7068,50.0,0,42,5.0,62.0
7069,50.0,0,42,11.0,49.0
7070,76.0,0,21,7.0,75.0
7071,76.0,24,21,6.0,75.0
7072,67.0,0,21,10.0,75.0
7073,72.0,0,21,8.0,75.0
7074,65.0,0,117,1.0,127.0
7075,74.0,0,117,0.0,127.0
7076,47.0,24,42,5.0,62.0
7077,74.0,0,42,4.0,62.0
7078,35.0,0,42,12.0,101.0
7079,77.0,0,42,3.0,62.0
7080,47.0,0,42,13.0,49.0
7081,47.0,0,42,11.0,49.0
7082,80.0,0,42,2.0,62.0
7083,67.0,24,21,1.0,127.0
7084,72.0,0,21,0.0,127.0
7085,74.0,0,21,0.0,127.0
7086,65.0,0,21,1.0,127.0
7087,53.0,24,42,5.0,62.0
7088,74.0,0,42,2.0,62.0
7089,41.0,0,42,12.0,101.0
7090,65.0,0,42,4.0,62.0
7091,71.0,0,42,3.0,62.0
7092,53.0,0,42,13.0,49.0
7093,53.0,0,42,11.0,49.0
7094,67.0,0,21,1.0,127.0
7095,72.0,24,21,0.0,127.0
7096,68.0,0,117,10.0,75.0
7097,74.0,0,117,8.0,75.0
7098,77.0,0,117,6.0,75.0
7099,77.0,0,117,7.0,75.0
7100,50.0,0,42,13.0,49.0
7101,50.0,24,42,5.0,62.0
7102,68.0,0,42,4.0,62.0
7103,50.0,0,42,11.0,49.0
7104,77.0,0,42,2.0,62.0
7105,38.0,0,42,12.0,101.0
7106,74.0,0,42,3.0,62.0
7107,76.0,0,21,6.0,75.0
7108,67.0,0,21,10.0,75.0
7109,72.0,24,21,8.0,75.0
7110,76.0,0,21,7.0,75.0
7111,74.0,0,21,8.0,75.0
7112,68.0,0,21,10.0,75.0
7113,77.0,0,21,6.0,75.0
7114,77.0,0,21,7.0,75.0
7115,47.0,0,42,13.0,49.0
7116,47.0,0,42,11.0,49.0
7117,77.0,0,42,3.0,62.0
7118,47.0,0,42,5.0,62.0
7119,74.0,24,42,4.0,62.0
7120,35.0,0,42,12.0,101.0
7121,80.0,0,42,2.0,62.0
7122,76.0,0,21,6.0,75.0
7123,65.0,24,21,10.0,75.0
7124,76.0,0,21,7.0,75.0
7125,72.0,0,21,8.0,75.0
7126,65.0,0,117,1.0,127.0
7127,74.0,0,117,0.0,127.0
7128,43.0,0,42,5.0,62.0
7129,43.0,0,42,11.0,49.0
7130,43.0,0,42,13.0,49.0
7131,83.0,0,42,2.0,62.0
7132,31.0,0,42,12.0,101.0
7133,77.0,0,42,3.0,62.0
7134,74.0,24,42,4.0,62.0
7135,67.0,24,21,1.0,127.0
7136,72.0,0,21,0.0,127.0
7137,65.0,0,21,1.0,127.0
7138,74.0,0,21,0.0,127.0
7139,77.0,0,84,6.0,75.0
7140,71.0,0,84,8.0,75.0
7141,77.0,0,84,7.0,75.0
7142,67.0,0,84,10.0,75.0
7143,80.0,24,42,3.0,62.0
7144,50.0,0,42,5.0,62.0
7145,50.0,0,42,11.0,49.0
7146,77.0,0,42,4.0,62.0
7147,38.0,0,42,12.0,101.0
7148,86.0,0,42,2.0,62.0
7149,50.0,0,42,13.0,49.0
7150,67.0,24,21,1.0,127.0
7151,72.0,0,21,0.0,127.0
7152,74.0,0,21,0.0,127.0
7153,65.0,24,21,1.0,127.0
7154,47.0,0,42,11.0,49.0
7155,79.0,0,42,2.0,62.0
7156,35.0,0,42,12.0,101.0
7157,74.0,0,42,3.0,62.0
7158,47.0,0,42,5.0,62.0
7159,47.0,0,42,13.0,49.0
7160,71.0,0,42,4.0,62.0
7161,69.0,24,21,1.0,127.0
7162,76.0,0,21,0.0,127.0
7163,72.0,0,21,0.0,127.0
7164,67.0,0,21,1.0,127.0
7165,43.0,0,42,13.0,49.0
7166,71.0,0,42,8.0,75.0
7167,43.0,0,42,11.0,49.0
7168,83.0,0,42,2.0,62.0
7169,79.0,0,42,3.0,62.0
7170,74.0,0,42,6.0,75.0
7171,31.0,0,42,12.0,101.0
7172,74.0,24,42,4.0,62.0
7173,43.0,0,42,5.0,62.0
7174,67.0,0,42,10.0,75.0
7175,74.0,0,42,7.0,75.0
7176,65.0,24,21,1.0,127.0
7177,74.0,0,21,0.0,127.0
7178,67.0,0,21,1.0,127.0
7179,76.0,0,21,0.0,127.0
7180,60.0,0,42,10.0,75.0
7181,76.0,0,42,7.0,75.0
7182,67.0,0,42,8.0,75.0
7183,76.0,24,42,6.0,75.0
7184,65.0,0,21,1.0,127.0
7185,74.0,24,21,0.0,127.0
7186,67.0,0,21,1.0,127.0
7187,76.0,0,21,0.0,127.0
7188,72.0,0,84,13.0,49.0
7189,58.0,0,84,5.0,62.0
7190,58.0,0,84,11.0,49.0
7191,76.0,0,84,4.0,62.0
7192,79.0,0,84,3.0,62.0
7193,84.0,0,84,2.0,62.0
7194,64.0,0,84,13.0,49.0
7195,58.0,0,84,13.0,49.0
7196,67.0,0,84,13.0,49.0
7197,46.0,0,84,12.0,101.0
7198,72.0,0,42,10.0,75.0
7199,79.0,0,42,7.0,75.0
7200,76.0,24,42,8.0,75.0
7201,79.0,0,42,6.0,75.0
7202,65.0,0,21,1.0,127.0
7203,74.0,24,21,0.0,127.0
7204,67.0,0,21,1.0,127.0
7205,76.0,0,21,0.0,127.0
7206,72.0,0,42,6.0,75.0
7207,72.0,24,42,7.0,75.0
7208,67.0,0,42,8.0,75.0
7209,64.0,0,42,10.0,75.0
7210,77.0,0,21,0.0,127.0
7211,69.0,24,21,1.0,127.0
7212,65.0,0,21,1.0,127.0
7213,74.0,0,21,0.0,127.0
7214,67.0,0,42,13.0,49.0
7215,72.0,0,42,13.0,49.0
7216,46.0,0,42,13.0,49.0
7217,79.0,0,42,2.0,62.0
7218,76.0,0,42,7.0,75.0
7219,46.0,24,42,11.0,49.0
7220,64.0,0,42,13.0,49.0
7221,34.0,0,42,12.0,101.0
7222,76.0,0,42,6.0,75.0
7223,72.0,0,42,8.0,75.0
7224,46.0,0,42,5.0,62.0
7225,72.0,0,42,4.0,62.0
7226,76.0,0,42,3.0,62.0
7227,67.0,0,42,10.0,75.0
7228,67.0,24,21,1.0,127.0
7229,76.0,0,21,0.0,127.0
7230,81.0,0,21,2.0,62.0
7231,77.0,0,21,3.0,62.0
7232,81.0,0,21,7.0,75.0
7233,81.0,0,21,6.0,75.0
7234,77.0,0,21,0.0,127.0
7235,77.0,0,21,8.0,75.0
7236,45.0,0,42,11.0,49.0
7237,33.0,0,42,12.0,101.0
7238,72.0,0,42,10.0,75.0
7239,72.0,0,42,13.0,49.0
7240,45.0,0,42,13.0,49.0
7241,72.0,0,42,4.0,62.0
7242,65.0,0,42,13.0,49.0
7243,69.0,0,42,1.0,127.0
7244,45.0,24,42,5.0,62.0
7245,79.0,0,21,7.0,75.0
7246,70.0,0,21,0.0,127.0
7247,79.0,0,21,6.0,75.0
7248,79.0,0,21,2.0,62.0
7249,76.0,0,21,3.0,62.0
7250,76.0,24,21,8.0,75.0
7251,77.0,0,21,7.0,75.0
7252,74.0,0,21,10.0,75.0
7253,74.0,0,21,4.0,62.0
7254,77.0,0,21,6.0,75.0
7255,77.0,0,21,2.0,62.0
7256,69.0,0,21,0.0,127.0
7257,74.0,0,21,3.0,62.0
7258,74.0,0,21,8.0,75.0
7259,74.0,0,42,13.0,49.0
7260,65.0,0,42,13.0,49.0
7261,46.0,0,42,5.0,62.0
7262,46.0,0,42,13.0,49.0
7263,46.0,0,42,11.0,49.0
7264,34.0,24,42,12.0,101.0
7265,53.0,0,42,1.0,127.0
7266,76.0,0,21,3.0,62.0
7267,72.0,0,21,4.0,62.0
7268,67.0,0,21,0.0,127.0
7269,79.0,0,21,2.0,62.0
7270,72.0,24,21,10.0,75.0
7271,79.0,0,21,6.0,75.0
7272,76.0,0,21,8.0,75.0
7273,79.0,0,21,7.0,75.0
7274,70.0,0,21,10.0,75.0
7275,70.0,0,21,4.0,62.0
7276,48.0,0,42,5.0,62.0
7277,57.0,0,42,1.0,127.0
7278,76.0,24,42,13.0,49.0
7279,48.0,0,42,11.0,49.0
7280,67.0,0,42,13.0,49.0
7281,36.0,0,42,12.0,101.0
7282,48.0,0,42,13.0,49.0
7283,69.0,24,21,10.0,75.0
7284,69.0,0,21,4.0,62.0
7285,76.0,0,63,6.0,75.0
7286,72.0,0,63,8.0,75.0
7287,76.0,0,63,2.0,62.0
7288,76.0,0,63,7.0,75.0
7289,67.0,0,63,0.0,127.0
7290,72.0,0,63,3.0,62.0
7291,70.0,0,21,4.0,62.0
7292,70.0,0,21,10.0,75.0
7293,60.0,0,42,1.0,127.0
7294,67.0,24,42,13.0,49.0
7295,36.0,0,42,5.0,62.0
7296,24.0,0,42,12.0,101.0
7297,76.0,0,42,13.0,49.0
7298,36.0,0,42,13.0,49.0
7299,36.0,0,42,11.0,49.0
7300,72.0,0,21,3.0,62.0
7301,72.0,0,21,8.0,75.0
7302,77.0,0,21,6.0,75.0
7303,77.0,0,21,7.0,75.0
7304,65.0,0,21,0.0,127.0
7305,67.0,0,21,10.0,75.0
7306,67.0,24,21,4.0,62.0
7307,77.0,0,21,2.0,62.0
7308,72.0,0,42,3.0,62.0
7309,69.0,0,42,4.0,62.0
7310,57.0,0,42,1.0,127.0
7311,77.0,0,42,6.0,75.0
7312,69.0,0,42,10.0,75.0
7313,77.0,0,42,2.0,62.0
7314,77.0,0,42,7.0,75.0
7315,72.0,0,42,8.0,75.0
7316,72.0,0,21,3.0,62.0
7317,77.0,0,21,2.0,62.0
7318,69.0,0,21,4.0,62.0
7319,41.0,0,84,11.0,49.0
7320,41.0,0,84,5.0,62.0
7321,41.0,0,84,13.0,49.0
7322,77.0,0,84,13.0,49.0
7323,65.0,0,84,0.0,127.0
7324,69.0,24,84,13.0,49.0
7325,72.0,0,84,13.0,49.0
7326,29.0,0,84,12.0,101.0
7327,65.0,0,42,6.0,75.0
7328,60.0,48,42,8.0,75.0
7329,53.0,0,42,1.0,127.0
7330,57.0,0,42,10.0,75.0
7331,65.0,0,42,7.0,75.0
7332,70.0,0,21,3.0,62.0
7333,67.0,24,21,4.0,62.0
7334,76.0,0,21,2.0,62.0
7335,69.0,0,21,4.0,62.0
7336,72.0,0,21,3.0,62.0
7337,77.0,0,21,2.0,62.0
7338,69.0,24,42,7.0,75.0
7339,60.0,0,42,10.0,75.0
7340,65.0,0,42,8.0,75.0
7341,57.0,0,42,1.0,127.0
7342,69.0,0,42,6.0,75.0
7343,76.0,0,21,2.0,62.0
7344,70.0,24,21,3.0,62.0
7345,67.0,0,21,4.0,62.0
7346,72.0,24,21,3.0,62.0
7347,69.0,0,21,4.0,62.0
7348,77.0,0,21,2.0,62.0
7349,64.0,0,42,10.0,75.0
7350,67.0,0,42,8.0,75.0
7351,60.0,0,42,1.0,127.0
7352,72.0,0,42,7.0,75.0
7353,72.0,0,42,6.0,75.0
7354,48.0,0,42,5.0,62.0
7355,67.0,0,42,13.0,49.0
7356,76.0,0,42,13.0,49.0
7357,48.0,0,42,13.0,49.0
7358,36.0,0,42,12.0,101.0
7359,48.0,0,42,11.0,49.0
7360,67.0,0,21,4.0,62.0
7361,76.0,0,21,2.0,62.0
7362,70.0,24,21,3.0,62.0
7363,69.0,0,21,3.0,62.0
7364,65.0,0,21,4.0,62.0
7365,65.0,0,42,1.0,127.0
7366,50.0,0,42,5.0,62.0
7367,50.0,0,42,11.0,49.0
7368,38.0,0,42,12.0,101.0
7369,77.0,0,42,7.0,75.0
7370,50.0,0,42,13.0,49.0
7371,77.0,0,42,13.0,49.0
7372,65.0,24,42,8.0,75.0
7373,69.0,0,42,13.0,49.0
7374,77.0,0,42,6.0,75.0
7375,57.0,0,42,10.0,75.0
7376,77.0,0,42,2.0,62.0
7377,67.0,0,21,3.0,62.0
7378,64.0,24,21,4.0,62.0
7379,69.0,0,21,8.0,75.0
7380,65.0,0,21,10.0,75.0
7381,69.0,0,21,3.0,62.0
7382,65.0,0,21,4.0,62.0
7383,65.0,0,42,13.0,49.0
7384,33.0,0,42,12.0,101.0
7385,60.0,24,42,1.0,127.0
7386,45.0,0,42,11.0,49.0
7387,72.0,0,42,13.0,49.0
7388,45.0,0,42,13.0,49.0
7389,45.0,0,42,5.0,62.0
7390,72.0,0,42,6.0,75.0
7391,72.0,0,42,7.0,75.0
7392,72.0,0,42,2.0,62.0
7393,64.0,0,21,4.0,62.0
7394,64.0,0,21,10.0,75.0
7395,67.0,0,21,3.0,62.0
7396,67.0,24,21,8.0,75.0
7397,69.0,0,21,3.0,62.0
7398,69.0,0,21,8.0,75.0
7399,57.0,0,21,1.0,127.0
7400,62.0,0,42,4.0,62.0
7401,46.0,0,42,11.0,49.0
7402,34.0,0,42,12.0,101.0
7403,62.0,0,42,10.0,75.0
7404,46.0,24,42,13.0,49.0
7405,65.0,0,42,13.0,49.0
7406,74.0,0,42,13.0,49.0
7407,74.0,0,42,6.0,75.0
7408,46.0,0,42,5.0,62.0
7409,74.0,0,42,2.0,62.0
7410,74.0,0,42,7.0,75.0
7411,53.0,0,21,1.0,127.0
7412,67.0,24,21,3.0,62.0
7413,67.0,0,21,8.0,75.0
7414,72.0,0,21,2.0,62.0
7415,69.0,0,21,3.0,62.0
7416,72.0,0,21,6.0,75.0
7417,72.0,0,21,7.0,75.0
7418,69.0,0,21,8.0,75.0
7419,48.0,0,42,11.0,49.0
7420,48.0,0,42,13.0,49.0
7421,76.0,0,42,13.0,49.0
7422,57.0,0,42,1.0,127.0
7423,67.0,24,42,13.0,49.0
7424,64.0,0,42,4.0,62.0
7425,48.0,0,42,5.0,62.0
7426,36.0,0,42,12.0,101.0
7427,64.0,0,42,10.0,75.0
7428,70.0,0,21,6.0,75.0
7429,70.0,0,21,7.0,75.0
7430,70.0,0,21,2.0,62.0
7431,67.0,24,21,8.0,75.0
7432,67.0,0,21,3.0,62.0
7433,69.0,0,21,2.0,62.0
7434,69.0,0,21,6.0,75.0
7435,69.0,0,21,7.0,75.0
7436,60.0,0,28,1.0,127.0
7437,72.0,0,42,13.0,49.0
7438,29.0,24,42,12.0,101.0
7439,60.0,0,42,4.0,62.0
7440,65.0,0,42,3.0,62.0
7441,41.0,0,42,13.0,49.0
7442,65.0,0,42,8.0,75.0
7443,60.0,0,42,10.0,75.0
7444,69.0,0,42,13.0,49.0
7445,41.0,0,42,5.0,62.0
7446,41.0,0,42,11.0,49.0
7447,67.0,0,21,7.0,75.0
7448,67.0,24,21,2.0,62.0
7449,67.0,0,21,6.0,75.0
7450,60.0,7,29,1.0,127.0
7451,41.0,0,21,12.0,101.0
7452,65.0,0,21,6.0,75.0
7453,53.0,0,21,11.0,49.0
7454,69.0,0,21,3.0,62.0
7455,53.0,0,21,5.0,62.0
7456,53.0,0,21,13.0,49.0
7457,65.0,0,21,7.0,75.0
7458,65.0,17,21,2.0,62.0
7459,60.0,0,42,0.0,127.0
7460,72.0,0,42,4.0,62.0
7461,57.0,0,42,10.0,75.0
7462,60.0,0,42,8.0,75.0
7463,72.0,0,42,13.0,49.0
7464,69.0,0,42,13.0,49.0
7465,60.0,15,28,1.0,127.0
7466,67.0,0,21,2.0,62.0
7467,67.0,9,21,3.0,62.0
7468,52.0,0,21,11.0,49.0
7469,40.0,0,21,12.0,101.0
7470,67.0,0,21,7.0,75.0
7471,52.0,0,21,5.0,62.0
7472,67.0,0,21,6.0,75.0
7473,52.0,0,21,13.0,49.0
7474,41.0,0,21,12.0,101.0
7475,69.0,0,21,6.0,75.0
7476,65.0,0,21,3.0,62.0
7477,53.0,0,21,5.0,62.0
7478,69.0,0,21,2.0,62.0
7479,65.0,0,21,8.0,75.0
7480,69.0,0,21,7.0,75.0
7481,53.0,0,21,13.0,49.0
7482,53.0,24,21,11.0,49.0
7483,60.0,0,28,1.0,127.0
7484,65.0,0,42,0.0,127.0
7485,69.0,0,42,13.0,49.0
7486,72.0,0,42,13.0,49.0
7487,69.0,0,42,4.0,62.0
7488,60.0,0,42,10.0,75.0
7489,67.0,24,21,3.0,62.0
7490,67.0,0,21,8.0,75.0
7491,52.0,0,21,11.0,49.0
7492,52.0,0,21,5.0,62.0
7493,40.0,0,21,12.0,101.0
7494,71.0,0,21,7.0,75.0
7495,52.0,0,21,13.0,49.0
7496,71.0,0,21,2.0,62.0
7497,71.0,0,21,6.0,75.0
7498,60.0,7,29,1.0,127.0
7499,69.0,0,21,7.0,75.0
7500,53.0,0,21,11.0,49.0
7501,69.0,0,21,8.0,75.0
7502,69.0,0,21,6.0,75.0
7503,69.0,0,21,2.0,62.0
7504,69.0,0,21,3.0,62.0
7505,53.0,0,21,13.0,49.0
7506,53.0,0,21,5.0,62.0
7507,41.0,0,21,12.0,101.0
7508,65.0,17,42,10.0,75.0
7509,69.0,0,42,0.0,127.0
7510,65.0,0,42,4.0,62.0
7511,72.0,0,42,13.0,49.0
7512,69.0,0,42,13.0,49.0
7513,60.0,15,28,1.0,127.0
7514,71.0,0,21,7.0,75.0
7515,50.0,0,21,5.0,62.0
7516,71.0,0,21,2.0,62.0
7517,38.0,0,21,12.0,101.0
7518,71.0,0,21,6.0,75.0
7519,50.0,0,21,11.0,49.0
7520,65.0,0,21,3.0,62.0
7521,50.0,0,21,13.0,49.0
7522,65.0,9,21,8.0,75.0
7523,64.0,0,21,4.0,62.0
7524,72.0,0,21,6.0,75.0
7525,72.0,0,21,2.0,62.0
7526,72.0,0,21,7.0,75.0
7527,64.0,0,21,10.0,75.0
7528,40.0,0,42,12.0,101.0
7529,72.0,0,42,0.0,127.0
7530,52.0,0,42,11.0,49.0
7531,72.0,0,42,13.0,49.0
7532,52.0,0,42,5.0,62.0
7533,67.0,0,42,3.0,62.0
7534,67.0,24,42,8.0,75.0
7535,52.0,0,42,13.0,49.0
7536,67.0,0,42,13.0,49.0
7537,65.0,0,21,4.0,62.0
7538,74.0,0,21,7.0,75.0
7539,74.0,0,21,6.0,75.0
7540,65.0,0,21,10.0,75.0
7541,74.0,24,21,2.0,62.0
7542,60.0,0,63,1.0,127.0
7543,76.0,0,21,2.0,62.0
7544,76.0,0,21,7.0,75.0
7545,67.0,0,21,10.0,75.0
7546,67.0,0,21,4.0,62.0
7547,76.0,0,21,6.0,75.0
7548,67.0,0,42,0.0,127.0
7549,36.0,0,42,12.0,101.0
7550,48.0,0,42,11.0,49.0
7551,48.0,0,42,5.0,62.0
7552,48.0,0,42,13.0,49.0
7553,76.0,0,42,13.0,49.0
7554,67.0,0,42,13.0,49.0
7555,72.0,0,42,8.0,75.0
7556,72.0,24,42,3.0,62.0
7557,65.0,0,21,1.0,127.0
7558,69.0,0,21,4.0,62.0
7559,69.0,0,21,10.0,75.0
7560,72.0,0,21,2.0,62.0
7561,72.0,0,21,7.0,75.0
7562,72.0,24,21,6.0,75.0
7563,77.0,0,21,6.0,75.0
7564,77.0,0,21,2.0,62.0
7565,77.0,0,21,7.0,75.0
7566,67.0,0,21,0.0,127.0
7567,74.0,24,42,13.0,49.0
7568,50.0,0,42,13.0,49.0
7569,50.0,0,42,5.0,62.0
7570,65.0,0,42,4.0,62.0
7571,67.0,0,42,13.0,49.0
7572,38.0,0,42,12.0,101.0
7573,72.0,0,42,3.0,62.0
7574,72.0,0,42,8.0,75.0
7575,65.0,0,42,10.0,75.0
7576,50.0,0,42,11.0,49.0
7577,76.0,24,21,2.0,62.0
7578,76.0,0,21,6.0,75.0
7579,76.0,0,21,7.0,75.0
7580,60.0,0,21,0.0,127.0
7581,77.0,0,21,7.0,75.0
7582,77.0,0,21,6.0,75.0
7583,77.0,0,21,2.0,62.0
7584,71.0,0,42,3.0,62.0
7585,71.0,0,42,8.0,75.0
7586,31.0,24,42,12.0,101.0
7587,67.0,0,42,10.0,75.0
7588,43.0,0,42,13.0,49.0
7589,43.0,0,42,11.0,49.0
7590,43.0,0,42,5.0,62.0
7591,67.0,0,42,0.0,127.0
7592,71.0,0,42,13.0,49.0
7593,74.0,0,42,13.0,49.0
7594,79.0,0,21,7.0,75.0
7595,79.0,0,21,6.0,75.0
7596,79.0,24,21,2.0,62.0
7597,76.0,24,21,7.0,75.0
7598,72.0,0,21,8.0,75.0
7599,76.0,0,21,6.0,75.0
7600,76.0,0,21,2.0,62.0
7601,72.0,0,21,3.0,62.0
7602,67.0,0,28,0.0,127.0
7603,48.0,0,42,13.0,49.0
7604,76.0,0,42,13.0,49.0
7605,67.0,0,42,13.0,49.0
7606,67.0,0,90,4.0,62.0
7607,48.0,0,42,5.0,62.0
7608,67.0,0,42,10.0,75.0
7609,36.0,0,42,12.0,101.0
7610,48.0,0,42,11.0,49.0
7611,77.0,24,21,7.0,75.0
7612,77.0,0,21,2.0,62.0
7613,74.0,0,21,3.0,62.0
7614,74.0,0,21,8.0,75.0
7615,77.0,0,21,6.0,75.0
7616,67.0,7,29,0.0,127.0
7617,72.0,0,21,3.0,62.0
7618,79.0,0,21,7.0,75.0
7619,72.0,0,21,8.0,75.0
7620,79.0,0,21,6.0,75.0
7621,79.0,0,21,2.0,62.0
7622,67.0,0,42,13.0,49.0
7623,67.0,0,42,4.0,62.0
7624,52.0,0,42,5.0,62.0
7625,52.0,17,42,11.0,49.0
7626,67.0,0,42,10.0,75.0
7627,40.0,0,42,12.0,101.0
7628,52.0,0,42,13.0,49.0
7629,72.0,0,42,13.0,49.0
7630,67.0,15,28,0.0,127.0
7631,77.0,0,21,2.0,62.0
7632,77.0,0,21,7.0,75.0
7633,74.0,0,21,8.0,75.0
7634,77.0,0,21,6.0,75.0
7635,74.0,9,21,3.0,62.0
7636,79.0,0,21,7.0,75.0
7637,79.0,0,21,2.0,62.0
7638,79.0,0,21,6.0,75.0
7639,48.0,0,42,11.0,49.0
7640,48.0,24,42,13.0,49.0
7641,76.0,0,42,13.0,49.0
7642,67.0,0,42,13.0,49.0
7643,48.0,0,42,5.0,62.0
7644,36.0,0,42,12.0,101.0
7645,64.0,0,42,10.0,75.0
7646,77.0,0,21,6.0,75.0
7647,77.0,0,21,7.0,75.0
7648,77.0,24,21,2.0,62.0
7649,67.0,0,63,0.0,127.0
7650,79.0,0,21,6.0,75.0
7651,79.0,0,21,2.0,62.0
7652,79.0,0,21,7.0,75.0
7653,47.0,0,42,11.0,49.0
7654,67.0,0,42,13.0,49.0
7655,74.0,0,42,13.0,49.0
7656,47.0,0,42,13.0,49.0
7657,47.0,0,42,5.0,62.0
7658,35.0,24,42,12.0,101.0
7659,62.0,0,42,10.0,75.0
7660,77.0,0,21,7.0,75.0
7661,77.0,0,21,6.0,75.0
7662,77.0,24,21,2.0,62.0
7663,72.0,0,21,0.0,127.0
7664,79.0,0,21,6.0,75.0
7665,79.0,0,21,2.0,62.0
7666,79.0,0,21,7.0,75.0
7667,72.0,0,132,4.0,62.0
7668,45.0,0,42,5.0,62.0
7669,60.0,0,42,10.0,75.0
7670,76.0,0,138,8.0,75.0
7671,76.0,0,138,3.0,62.0
7672,33.0,0,42,12.0,101.0
7673,45.0,0,42,11.0,49.0
7674,45.0,0,42,13.0,49.0
7675,72.0,0,42,13.0,49.0
7676,64.0,24,42,13.0,49.0
7677,72.0,0,21,7.0,75.0
7678,72.0,0,21,6.0,75.0
7679,72.0,24,21,2.0,62.0
7680,77.0,0,21,7.0,75.0
7681,77.0,0,21,2.0,62.0
7682,74.0,0,21,3.0,62.0
7683,74.0,0,21,8.0,75.0
7684,77.0,0,21,6.0,75.0
7685,65.0,0,42,13.0,49.0
7686,69.0,0,42,13.0,49.0
7687,50.0,0,42,13.0,49.0
7688,50.0,24,42,11.0,49.0
7689,50.0,0,42,5.0,62.0
7690,38.0,0,42,12.0,101.0
7691,69.0,0,42,10.0,75.0
7692,69.0,0,42,4.0,62.0
7693,76.0,0,21,6.0,75.0
7694,72.0,0,21,3.0,62.0
7695,76.0,0,21,7.0,75.0
7696,76.0,24,21,2.0,62.0
7697,72.0,0,21,8.0,75.0
7698,77.0,0,21,2.0,62.0
7699,77.0,0,21,7.0,75.0
7700,77.0,0,21,6.0,75.0
7701,47.0,0,42,5.0,62.0
7702,47.0,0,42,13.0,49.0
7703,65.0,24,42,13.0,49.0
7704,67.0,0,42,4.0,62.0
7705,35.0,0,42,12.0,101.0
7706,47.0,0,42,11.0,49.0
7707,74.0,0,42,13.0,49.0
7708,62.0,0,42,10.0,75.0
7709,76.0,0,21,6.0,75.0
7710,76.0,0,21,2.0,62.0
7711,76.0,24,21,7.0,75.0
7712,77.0,0,21,6.0,75.0
7713,77.0,0,21,2.0,62.0
7714,77.0,0,21,7.0,75.0
7715,69.0,0,42,4.0,62.0
7716,69.0,0,42,13.0,49.0
7717,33.0,0,42,12.0,101.0
7718,45.0,0,42,11.0,49.0
7719,45.0,0,42,13.0,49.0
7720,72.0,0,42,13.0,49.0
7721,60.0,0,42,10.0,75.0
7722,45.0,24,42,5.0,62.0
7723,76.0,0,21,7.0,75.0
7724,76.0,24,21,2.0,62.0
7725,76.0,0,21,6.0,75.0
7726,77.0,0,21,6.0,75.0
7727,77.0,0,21,7.0,75.0
7728,77.0,0,21,2.0,62.0
7729,43.0,0,42,5.0,62.0
7730,71.0,0,42,13.0,49.0
7731,43.0,0,42,13.0,49.0
7732,62.0,0,42,13.0,49.0
7733,59.0,24,42,10.0,75.0
7734,43.0,0,42,11.0,49.0
7735,74.0,0,138,3.0,62.0
7736,74.0,0,138,8.0,75.0
7737,71.0,0,42,4.0,62.0
7738,31.0,0,42,12.0,101.0
7739,71.0,24,21,2.0,62.0
7740,71.0,0,21,6.0,75.0
7741,71.0,0,21,7.0,75.0
7742,72.0,0,21,3.0,62.0
7743,72.0,0,21,8.0,75.0
7744,76.0,0,21,6.0,75.0
7745,76.0,0,21,7.0,75.0
7746,76.0,24,21,2.0,62.0
7747,67.0,0,42,10.0,75.0
7748,76.0,0,42,13.0,49.0
7749,48.0,0,42,13.0,49.0
7750,67.0,0,42,13.0,49.0
7751,48.0,0,42,5.0,62.0
7752,36.0,0,42,12.0,101.0
7753,64.0,0,42,4.0,62.0
7754,48.0,0,42,11.0,49.0
7755,74.0,0,21,6.0,75.0
7756,71.0,0,21,3.0,62.0
7757,74.0,24,21,7.0,75.0
7758,74.0,0,21,2.0,62.0
7759,71.0,0,21,8.0,75.0
7760,76.0,0,21,7.0,75.0
7761,76.0,0,21,2.0,62.0
7762,76.0,0,21,6.0,75.0
7763,45.0,0,42,5.0,62.0
7764,33.0,0,42,12.0,101.0
7765,60.0,24,42,10.0,75.0
7766,45.0,0,42,13.0,49.0
7767,72.0,0,42,13.0,49.0
7768,65.0,0,42,13.0,49.0
7769,45.0,0,42,11.0,49.0
7770,74.0,24,21,7.0,75.0
7771,74.0,0,21,6.0,75.0
7772,74.0,0,21,2.0,62.0
7773,76.0,0,21,6.0,75.0
7774,76.0,24,21,7.0,75.0
7775,76.0,0,21,2.0,62.0
7776,72.0,0,84,3.0,62.0
7777,43.0,0,42,5.0,62.0
7778,43.0,0,42,11.0,49.0
7779,43.0,0,42,13.0,49.0
7780,31.0,0,42,12.0,101.0
7781,58.0,0,42,10.0,75.0
7782,70.0,0,42,13.0,49.0
7783,74.0,0,21,2.0,62.0
7784,74.0,0,21,6.0,75.0
7785,74.0,24,21,7.0,75.0
7786,72.0,0,117,8.0,75.0
7787,76.0,0,21,6.0,75.0
7788,76.0,0,21,2.0,62.0
7789,72.0,0,21,3.0,62.0
7790,76.0,0,21,7.0,75.0
7791,69.0,0,132,4.0,62.0
7792,57.0,0,42,10.0,75.0
7793,69.0,0,21,2.0,62.0
7794,74.0,24,21,3.0,62.0
7795,69.0,0,21,7.0,75.0
7796,69.0,0,21,6.0,75.0
7797,74.0,0,21,8.0,75.0
7798,81.0,0,21,6.0,75.0
7799,81.0,0,21,7.0,75.0
7800,81.0,0,21,2.0,62.0
7801,72.0,0,21,3.0,62.0
7802,72.0,0,21,8.0,75.0
7803,41.0,0,84,5.0,62.0
7804,41.0,0,84,13.0,49.0
7805,72.0,0,84,13.0,49.0
7806,69.0,24,84,13.0,49.0
7807,41.0,0,84,11.0,49.0
7808,29.0,0,84,12.0,101.0
7809,60.0,0,42,10.0,75.0
7810,65.0,24,42,4.0,62.0
7811,70.0,0,21,8.0,75.0
7812,79.0,0,21,2.0,62.0
7813,79.0,0,21,7.0,75.0
7814,70.0,24,21,3.0,62.0
7815,79.0,0,21,6.0,75.0
7816,77.0,0,21,2.0,62.0
7817,77.0,0,21,6.0,75.0
7818,77.0,0,21,7.0,75.0
7819,69.0,24,21,8.0,75.0
7820,69.0,0,21,3.0,62.0
7821,60.0,0,42,4.0,62.0
7822,65.0,0,42,10.0,75.0
7823,76.0,0,21,2.0,62.0
7824,67.0,0,21,8.0,75.0
7825,76.0,0,21,7.0,75.0
7826,76.0,24,21,6.0,75.0
7827,67.0,0,21,3.0,62.0
7828,65.0,0,21,8.0,75.0
7829,74.0,0,21,7.0,75.0
7830,74.0,0,21,6.0,75.0
7831,65.0,0,21,3.0,62.0
7832,74.0,24,21,2.0,62.0
7833,69.0,0,42,4.0,62.0
7834,69.0,0,42,10.0,75.0
7835,74.0,0,42,13.0,49.0
7836,69.0,0,42,13.0,49.0
7837,64.0,0,21,3.0,62.0
7838,72.0,0,21,6.0,75.0
7839,72.0,24,21,7.0,75.0
7840,64.0,0,21,8.0,75.0
7841,72.0,0,21,2.0,62.0
7842,53.0,0,69,13.0,49.0
7843,53.0,0,69,11.0,49.0
7844,71.0,0,21,7.0,75.0
7845,71.0,0,21,2.0,62.0
7846,53.0,0,69,5.0,62.0
7847,71.0,0,21,6.0,75.0
7848,41.0,0,69,12.0,101.0
7849,55.0,0,21,5.0,62.0
7850,69.0,24,21,6.0,75.0
7851,55.0,0,21,11.0,49.0
7852,69.0,0,21,2.0,62.0
7853,55.0,0,21,13.0,49.0
7854,69.0,0,21,7.0,75.0
7855,43.0,0,21,12.0,101.0
7856,41.0,0,21,12.0,101.0
7857,53.0,0,21,11.0,49.0
7858,53.0,24,21,13.0,49.0
7859,67.0,0,21,6.0,75.0
7860,67.0,0,21,2.0,62.0
7861,53.0,0,21,5.0,62.0
7862,67.0,0,21,7.0,75.0
7863,67.0,0,84,10.0,75.0
7864,62.0,0,84,13.0,49.0
7865,62.0,0,84,3.0,62.0
7866,71.0,0,84,13.0,49.0
7867,62.0,0,84,8.0,75.0
7868,67.0,24,84,4.0,62.0
7869,69.0,24,21,7.0,75.0
7870,69.0,0,21,2.0,62.0
7871,52.0,0,21,5.0,62.0
7872,69.0,0,21,6.0,75.0
7873,52.0,0,21,13.0,49.0
7874,40.0,0,21,12.0,101.0
7875,52.0,0,21,11.0,49.0
7876,50.0,24,21,11.0,49.0
7877,50.0,0,21,5.0,62.0
7878,71.0,0,21,6.0,75.0
7879,71.0,0,21,2.0,62.0
7880,38.0,0,21,12.0,101.0
7881,50.0,0,21,13.0,49.0
7882,71.0,0,21,7.0,75.0
7883,36.0,0,21,12.0,101.0
7884,48.0,0,21,11.0,49.0
7885,72.0,0,21,7.0,75.0
7886,48.0,0,21,13.0,49.0
7887,72.0,0,21,6.0,75.0
7888,72.0,24,21,2.0,62.0
7889,48.0,0,21,5.0,62.0
7890,74.0,0,21,7.0,75.0
7891,35.0,0,21,12.0,101.0
7892,47.0,0,21,5.0,62.0
7893,74.0,0,21,2.0,62.0
7894,47.0,0,21,11.0,49.0
7895,74.0,0,21,6.0,75.0
7896,47.0,24,21,13.0,49.0
7897,77.0,0,42,8.0,75.0
7898,67.0,0,42,4.0,62.0
7899,77.0,0,42,3.0,62.0
7900,67.0,0,42,10.0,75.0
7901,45.0,0,21,13.0,49.0
7902,76.0,24,21,2.0,62.0
7903,45.0,0,21,11.0,49.0
7904,33.0,0,21,12.0,101.0
7905,76.0,0,21,6.0,75.0
7906,45.0,0,21,5.0,62.0
7907,76.0,0,21,7.0,75.0
7908,31.0,0,42,12.0,101.0
7909,62.0,0,42,10.0,75.0
7910,43.0,0,42,11.0,49.0
7911,62.0,0,42,4.0,62.0
7912,71.0,24,42,8.0,75.0
7913,43.0,0,42,5.0,62.0
7914,43.0,0,42,13.0,49.0
7915,71.0,0,42,3.0,62.0
7916,77.0,0,63,2.0,62.0
7917,77.0,0,63,6.0,75.0
7918,77.0,0,63,7.0,75.0
7919,64.0,0,21,10.0,75.0
7920,72.0,0,21,3.0,62.0
7921,72.0,0,21,8.0,75.0
7922,64.0,0,21,4.0,62.0
7923,36.0,0,42,12.0,101.0
7924,67.0,0,42,13.0,49.0
7925,76.0,0,42,13.0,49.0
7926,48.0,0,42,13.0,49.0
7927,48.0,0,42,11.0,49.0
7928,48.0,48,42,5.0,62.0
7929,74.0,0,21,3.0,62.0
7930,65.0,0,21,10.0,75.0
7931,65.0,0,21,4.0,62.0
7932,74.0,0,21,8.0,75.0
7933,79.0,24,21,2.0,62.0
7934,79.0,0,21,6.0,75.0
7935,79.0,0,21,7.0,75.0
7936,67.0,0,42,10.0,75.0
7937,55.0,0,42,5.0,62.0
7938,43.0,24,42,12.0,101.0
7939,55.0,0,42,13.0,49.0
7940,67.0,0,42,4.0,62.0
7941,71.0,0,42,13.0,49.0
7942,74.0,0,42,13.0,49.0
7943,55.0,0,42,11.0,49.0
7944,74.0,0,63,7.0,75.0
7945,74.0,0,63,6.0,75.0
7946,71.0,0,63,8.0,75.0
7947,71.0,0,63,3.0,62.0
7948,74.0,0,63,2.0,62.0
7949,62.0,48,42,4.0,62.0
7950,43.0,0,42,5.0,62.0
7951,62.0,0,42,10.0,75.0
7952,62.0,0,42,13.0,49.0
7953,43.0,0,42,11.0,49.0
7954,43.0,0,42,13.0,49.0
7955,71.0,0,42,13.0,49.0
7956,31.0,0,42,12.0,101.0
7957,72.0,0,21,2.0,62.0
7958,72.0,0,21,6.0,75.0
7959,72.0,0,21,3.0,62.0
7960,67.0,24,21,8.0,75.0
7961,72.0,0,21,7.0,75.0
7962,36.0,0,42,12.0,101.0
7963,67.0,0,42,8.0,75.0
7964,72.0,0,42,3.0,62.0
7965,72.0,0,42,2.0,62.0
7966,67.0,0,42,13.0,49.0
7967,48.0,0,42,11.0,49.0
7968,76.0,0,42,13.0,49.0
7969,48.0,0,42,5.0,62.0
7970,72.0,0,42,7.0,75.0
7971,64.0,24,42,4.0,62.0
7972,64.0,0,42,10.0,75.0
7973,48.0,0,42,13.0,49.0
7974,72.0,0,42,6.0,75.0
7975,60.0,0,21,5.0,62.0
7976,64.0,0,42,3.0,62.0
7977,67.0,48,42,2.0,62.0
7978,62.0,24,21,5.0,62.0
7979,60.0,24,21,5.0,62.0
7980,66.0,0,42,3.0,62.0
7981,69.0,0,42,2.0,62.0
7982,58.0,24,21,5.0,62.0
7983,57.0,24,21,5.0,62.0
7984,70.0,0,42,2.0,62.0
7985,67.0,0,42,3.0,62.0
7986,55.0,24,21,5.0,62.0
7987,69.0,0,42,3.0,62.0
7988,72.0,24,42,2.0,62.0
7989,54.0,0,42,5.0,62.0
7990,74.0,0,21,4.0,62.0
7991,74.0,48,21,2.0,62.0
7992,74.0,0,21,7.0,75.0
7993,74.0,0,21,6.0,75.0
7994,38.0,0,42,12.0,101.0
7995,66.0,0,42,3.0,62.0
7996,50.0,0,42,11.0,49.0
7997,66.0,0,42,8.0,75.0
7998,66.0,0,42,13.0,49.0
7999,50.0,0,42,5.0,62.0
8000,50.0,0,42,13.0,49.0
8001,74.0,0,42,13.0,49.0
8002,62.0,0,42,10.0,75.0
8003,75.0,0,21,2.0,62.0
8004,75.0,0,21,7.0,75.0
8005,75.0,24,21,6.0,75.0
8006,72.0,0,21,4.0,62.0
8007,74.0,0,21,2.0,62.0
8008,74.0,0,21,7.0,75.0
8009,74.0,0,21,6.0,75.0
8010,52.0,0,42,11.0,49.0
8011,67.0,0,42,3.0,62.0
8012,74.0,0,42,13.0,49.0
8013,67.0,0,42,13.0,49.0
8014,52.0,0,42,13.0,49.0
8015,67.0,24,42,8.0,75.0
8016,70.0,0,42,4.0,62.0
8017,40.0,0,42,12.0,101.0
8018,52.0,0,42,5.0,62.0
8019,55.0,0,42,10.0,75.0
8020,72.0,0,21,2.0,62.0
8021,72.0,24,21,7.0,75.0
8022,72.0,0,21,6.0,75.0
8023,70.0,0,21,6.0,75.0
8024,70.0,0,21,7.0,75.0
8025,70.0,0,21,2.0,62.0
8026,54.0,24,42,5.0,62.0
8027,54.0,0,42,13.0,49.0
8028,74.0,0,42,13.0,49.0
8029,69.0,0,42,3.0,62.0
8030,42.0,0,42,12.0,101.0
8031,69.0,0,42,13.0,49.0
8032,54.0,0,42,11.0,49.0
8033,69.0,0,42,4.0,62.0
8034,62.0,0,42,10.0,75.0
8035,69.0,0,42,8.0,75.0
8036,69.0,0,21,2.0,62.0
8037,69.0,24,21,7.0,75.0
8038,69.0,0,21,6.0,75.0
8039,55.0,0,21,11.0,49.0
8040,62.0,0,42,8.0,75.0
8041,70.0,0,42,7.0,75.0
8042,55.0,0,42,5.0,62.0
8043,67.0,0,42,4.0,62.0
8044,70.0,0,42,2.0,62.0
8045,43.0,0,42,12.0,101.0
8046,62.0,0,42,13.0,49.0
8047,55.0,0,42,13.0,49.0
8048,67.0,24,42,10.0,75.0
8049,70.0,0,42,13.0,49.0
8050,70.0,0,42,6.0,75.0
8051,62.0,0,42,3.0,62.0
8052,50.0,24,21,11.0,49.0
8053,55.0,24,21,11.0,49.0
8054,70.0,0,42,8.0,75.0
8055,74.0,0,42,6.0,75.0
8056,74.0,0,42,7.0,75.0
8057,57.0,24,21,11.0,49.0
8058,55.0,0,21,11.0,49.0
8059,67.0,0,42,8.0,75.0
8060,76.0,0,42,6.0,75.0
8061,76.0,24,42,7.0,75.0
8062,53.0,24,21,11.0,49.0
8063,52.0,0,21,11.0,49.0
8064,69.0,0,42,8.0,75.0
8065,77.0,0,42,7.0,75.0
8066,77.0,24,42,6.0,75.0
8067,50.0,24,21,11.0,49.0
8068,70.0,0,42,8.0,75.0
8069,79.0,0,42,7.0,75.0
8070,79.0,0,42,6.0,75.0
8071,48.0,24,42,11.0,49.0
8072,81.0,0,21,7.0,75.0
8073,81.0,0,21,6.0,75.0
8074,81.0,0,21,2.0,62.0
8075,69.0,0,21,4.0,62.0
8076,45.0,0,42,13.0,49.0
8077,72.0,48,42,3.0,62.0
8078,69.0,0,42,13.0,49.0
8079,72.0,0,42,13.0,49.0
8080,64.0,0,42,10.0,75.0
8081,33.0,0,42,12.0,101.0
8082,72.0,0,42,8.0,75.0
8083,45.0,0,42,5.0,62.0
8084,45.0,0,42,11.0,49.0
8085,82.0,24,21,7.0,75.0
8086,67.0,0,21,4.0,62.0
8087,82.0,0,21,2.0,62.0
8088,82.0,0,21,6.0,75.0
8089,81.0,0,21,7.0,75.0
8090,81.0,0,21,6.0,75.0
8091,81.0,24,21,2.0,62.0
8092,74.0,0,42,3.0,62.0
8093,70.0,0,42,13.0,49.0
8094,74.0,0,42,13.0,49.0
8095,46.0,0,42,13.0,49.0
8096,46.0,0,42,11.0,49.0
8097,34.0,0,42,12.0,101.0
8098,65.0,0,42,4.0,62.0
8099,46.0,0,42,5.0,62.0
8100,74.0,0,42,8.0,75.0
8101,62.0,0,42,10.0,75.0
8102,79.0,24,21,2.0,62.0
8103,79.0,0,21,7.0,75.0
8104,79.0,0,21,6.0,75.0
8105,77.0,0,21,7.0,75.0
8106,77.0,24,21,6.0,75.0
8107,77.0,0,21,2.0,62.0
8108,36.0,0,42,12.0,101.0
8109,48.0,0,42,11.0,49.0
8110,48.0,0,42,13.0,49.0
8111,48.0,0,42,5.0,62.0
8112,76.0,0,42,13.0,49.0
8113,64.0,0,42,4.0,62.0
8114,69.0,0,42,10.0,75.0
8115,76.0,0,42,3.0,62.0
8116,76.0,0,42,8.0,75.0
8117,69.0,0,42,13.0,49.0
8118,76.0,0,21,6.0,75.0
8119,76.0,24,21,7.0,75.0
8120,76.0,0,21,2.0,62.0
8121,77.0,0,21,6.0,75.0
8122,77.0,0,21,2.0,62.0
8123,77.0,0,21,7.0,75.0
8124,38.0,0,42,12.0,101.0
8125,65.0,0,42,13.0,49.0
8126,74.0,0,42,13.0,49.0
8127,50.0,0,42,11.0,49.0
8128,50.0,0,42,13.0,49.0
8129,69.0,24,42,3.0,62.0
8130,57.0,0,42,10.0,75.0
8131,62.0,0,42,4.0,62.0
8132,69.0,0,42,8.0,75.0
8133,50.0,0,42,5.0,62.0
8134,74.0,0,21,7.0,75.0
8135,74.0,24,21,2.0,62.0
8136,74.0,0,21,6.0,75.0
8137,74.0,0,21,3.0,62.0
8138,82.0,0,21,7.0,75.0
8139,74.0,0,21,8.0,75.0
8140,82.0,0,21,2.0,62.0
8141,82.0,0,21,6.0,75.0
8142,62.0,0,42,13.0,49.0
8143,62.0,0,42,4.0,62.0
8144,43.0,0,42,13.0,49.0
8145,31.0,0,42,12.0,101.0
8146,58.0,0,42,10.0,75.0
8147,43.0,0,42,11.0,49.0
8148,43.0,24,42,5.0,62.0
8149,70.0,0,42,13.0,49.0
8150,84.0,24,21,7.0,75.0
8151,84.0,0,21,2.0,62.0
8152,75.0,0,21,3.0,62.0
8153,84.0,0,21,6.0,75.0
8154,75.0,0,21,8.0,75.0
8155,82.0,0,21,7.0,75.0
8156,82.0,0,21,6.0,75.0
8157,82.0,0,21,2.0,62.0
8158,74.0,0,21,3.0,62.0
8159,74.0,0,21,8.0,75.0
8160,45.0,0,42,13.0,49.0
8161,45.0,0,42,11.0,49.0
8162,65.0,0,42,13.0,49.0
8163,45.0,0,42,5.0,62.0
8164,33.0,0,42,12.0,101.0
8165,72.0,0,42,13.0,49.0
8166,60.0,24,42,4.0,62.0
8167,60.0,0,42,10.0,75.0
8168,72.0,0,21,8.0,75.0
8169,81.0,0,21,2.0,62.0
8170,81.0,0,21,6.0,75.0
8171,81.0,0,21,7.0,75.0
8172,72.0,24,21,3.0,62.0
8173,70.0,0,21,3.0,62.0
8174,79.0,0,21,7.0,75.0
8175,70.0,0,21,8.0,75.0
8176,79.0,24,21,2.0,62.0
8177,79.0,0,21,6.0,75.0
8178,46.0,0,42,5.0,62.0
8179,62.0,0,42,4.0,62.0
8180,74.0,0,42,13.0,49.0
8181,67.0,0,42,13.0,49.0
8182,46.0,0,42,13.0,49.0
8183,62.0,0,42,10.0,75.0
8184,34.0,0,42,12.0,101.0
8185,46.0,0,42,11.0,49.0
8186,69.0,0,21,3.0,62.0
8187,69.0,0,21,8.0,75.0
8188,77.0,0,21,7.0,75.0
8189,77.0,24,21,2.0,62.0
8190,77.0,0,21,6.0,75.0
8191,76.0,0,42,2.0,62.0
8192,36.0,0,42,12.0,101.0
8193,55.0,0,42,10.0,75.0
8194,76.0,0,42,7.0,75.0
8195,76.0,0,42,6.0,75.0
8196,48.0,0,42,11.0,49.0
8197,48.0,0,42,5.0,62.0
8198,76.0,0,42,13.0,49.0
8199,67.0,24,42,8.0,75.0
8200,64.0,0,42,4.0,62.0
8201,67.0,0,42,3.0,62.0
8202,48.0,0,42,13.0,49.0
8203,67.0,0,42,13.0,49.0
8204,76.0,0,21,3.0,62.0
8205,79.0,0,21,2.0,62.0
8206,70.0,0,21,4.0,62.0
8207,60.0,0,42,0.0,127.0
8208,60.0,0,42,6.0,75.0
8209,60.0,0,42,7.0,75.0
8210,36.0,0,42,11.0,49.0
8211,36.0,48,42,5.0,62.0
8212,55.0,0,42,8.0,75.0
8213,36.0,0,42,13.0,49.0
8214,52.0,0,42,10.0,75.0
8215,24.0,0,42,12.0,101.0
8216,76.0,0,42,13.0,49.0
8217,67.0,0,42,13.0,49.0
8218,69.0,0,21,4.0,62.0
8219,77.0,24,21,2.0,62.0
8220,74.0,0,21,3.0,62.0
8221,76.0,0,21,3.0,62.0
8222,70.0,0,21,4.0,62.0
8223,79.0,24,21,2.0,62.0
8224,60.0,0,28,0.0,127.0
8225,55.0,0,42,10.0,75.0
8226,64.0,0,42,7.0,75.0
8227,64.0,0,42,6.0,75.0
8228,60.0,0,42,8.0,75.0
8229,74.0,24,21,3.0,62.0
8230,77.0,0,21,2.0,62.0
8231,69.0,0,21,4.0,62.0
8232,60.0,7,29,0.0,127.0
8233,79.0,0,21,2.0,62.0
8234,76.0,0,21,3.0,62.0
8235,70.0,0,21,4.0,62.0
8236,67.0,0,42,6.0,75.0
8237,64.0,0,42,8.0,75.0
8238,67.0,0,42,7.0,75.0
8239,60.0,17,42,10.0,75.0
8240,60.0,15,28,0.0,127.0
8241,69.0,0,21,4.0,62.0
8242,74.0,9,21,3.0,62.0
8243,77.0,0,21,2.0,62.0
8244,60.0,0,28,0.0,127.0
8245,70.0,0,42,7.0,75.0
8246,76.0,24,42,3.0,62.0
8247,79.0,0,42,2.0,62.0
8248,70.0,0,42,6.0,75.0
8249,48.0,0,42,10.0,75.0
8250,67.0,0,42,8.0,75.0
8251,70.0,0,42,4.0,62.0
8252,53.0,31,29,0.0,127.0
8253,69.0,0,21,8.0,75.0
8254,72.0,17,21,6.0,75.0
8255,72.0,0,21,4.0,62.0
8256,72.0,0,21,7.0,75.0
8257,72.0,0,21,2.0,62.0
8258,48.0,0,42,5.0,62.0
8259,64.0,0,42,10.0,75.0
8260,36.0,0,42,12.0,101.0
8261,48.0,0,42,11.0,49.0
8262,64.0,0,42,3.0,62.0
8263,48.0,0,42,13.0,49.0
8264,64.0,0,42,13.0,49.0
8265,69.0,0,42,13.0,49.0
8266,60.0,15,28,0.0,127.0
8267,70.0,0,21,4.0,62.0
8268,74.0,0,21,7.0,75.0
8269,74.0,0,21,2.0,62.0
8270,74.0,9,21,6.0,75.0
8271,70.0,0,21,8.0,75.0
8272,72.0,0,21,2.0,62.0
8273,72.0,0,21,6.0,75.0
8274,72.0,0,21,7.0,75.0
8275,60.0,0,28,0.0,127.0
8276,69.0,0,42,4.0,62.0
8277,65.0,24,42,3.0,62.0
8278,50.0,0,42,11.0,49.0
8279,65.0,0,42,13.0,49.0
8280,65.0,0,42,10.0,75.0
8281,69.0,0,42,8.0,75.0
8282,69.0,0,42,13.0,49.0
8283,50.0,0,42,13.0,49.0
8284,38.0,0,42,12.0,101.0
8285,50.0,0,42,5.0,62.0
8286,70.0,24,21,6.0,75.0
8287,70.0,0,21,2.0,62.0
8288,70.0,0,21,7.0,75.0
8289,60.0,7,29,0.0,127.0
8290,69.0,0,21,2.0,62.0
8291,69.0,0,21,6.0,75.0
8292,69.0,0,21,7.0,75.0
8293,67.0,0,42,10.0,75.0
8294,67.0,0,42,13.0,49.0
8295,67.0,0,42,4.0,62.0
8296,40.0,0,42,12.0,101.0
8297,52.0,0,42,13.0,49.0
8298,67.0,0,42,3.0,62.0
8299,52.0,0,42,11.0,49.0
8300,67.0,17,42,8.0,75.0
8301,52.0,0,42,5.0,62.0
8302,60.0,15,28,0.0,127.0
8303,67.0,0,21,7.0,75.0
8304,67.0,0,21,2.0,62.0
8305,67.0,9,21,6.0,75.0
8306,69.0,0,42,6.0,75.0
8307,60.0,0,42,3.0,62.0
8308,53.0,0,42,11.0,49.0
8309,65.0,0,42,4.0,62.0
8310,65.0,0,42,8.0,75.0
8311,41.0,0,42,12.0,101.0
8312,53.0,0,42,5.0,62.0
8313,60.0,0,42,10.0,75.0
8314,69.0,24,42,2.0,62.0
8315,69.0,0,42,7.0,75.0
8316,53.0,0,42,13.0,49.0
8317,69.0,0,42,13.0,49.0
8318,60.0,0,42,13.0,49.0
8319,60.0,0,63,0.0,127.0
8320,75.0,0,21,4.0,62.0
8321,84.0,0,21,2.0,62.0
8322,81.0,0,21,3.0,62.0
8323,53.0,0,42,1.0,127.0
8324,60.0,0,42,8.0,75.0
8325,41.0,0,42,11.0,49.0
8326,41.0,0,42,13.0,49.0
8327,69.0,0,42,13.0,49.0
8328,60.0,0,42,13.0,49.0
8329,57.0,0,42,10.0,75.0
8330,29.0,0,42,12.0,101.0
8331,65.0,0,42,7.0,75.0
8332,65.0,0,42,6.0,75.0
8333,41.0,48,42,5.0,62.0
8334,74.0,0,21,4.0,62.0
8335,82.0,0,21,2.0,62.0
8336,79.0,24,21,3.0,62.0
8337,65.0,0,21,0.0,127.0
8338,75.0,0,21,4.0,62.0
8339,81.0,24,21,3.0,62.0
8340,84.0,0,21,2.0,62.0
8341,53.0,0,28,1.0,127.0
8342,60.0,0,42,10.0,75.0
8343,69.0,0,42,6.0,75.0
8344,69.0,0,42,7.0,75.0
8345,65.0,0,42,8.0,75.0
8346,82.0,0,21,2.0,62.0
8347,79.0,0,21,3.0,62.0
8348,74.0,24,21,4.0,62.0
8349,53.0,7,29,1.0,127.0
8350,81.0,0,21,3.0,62.0
8351,84.0,0,21,2.0,62.0
8352,75.0,0,21,4.0,62.0
8353,72.0,0,42,6.0,75.0
8354,72.0,17,42,7.0,75.0
8355,65.0,0,42,10.0,75.0
8356,69.0,0,42,8.0,75.0
8357,53.0,15,28,1.0,127.0
8358,82.0,9,21,2.0,62.0
8359,79.0,0,21,3.0,62.0
8360,74.0,0,21,4.0,62.0
8361,53.0,0,28,1.0,127.0
8362,75.0,0,42,4.0,62.0
8363,81.0,0,42,3.0,62.0
8364,75.0,24,42,7.0,75.0
8365,84.0,0,42,2.0,62.0
8366,72.0,0,42,8.0,75.0
8367,75.0,0,42,6.0,75.0
8368,53.0,0,42,10.0,75.0
8369,48.0,31,29,1.0,127.0
8370,77.0,0,21,6.0,75.0
8371,77.0,17,21,4.0,62.0
8372,77.0,0,21,2.0,62.0
8373,74.0,0,21,8.0,75.0
8374,77.0,0,21,7.0,75.0
8375,53.0,0,42,13.0,49.0
8376,41.0,0,42,12.0,101.0
8377,62.0,0,42,13.0,49.0
8378,69.0,0,42,10.0,75.0
8379,53.0,0,42,5.0,62.0
8380,53.0,0,42,11.0,49.0
8381,69.0,0,42,13.0,49.0
8382,69.0,0,42,3.0,62.0
8383,53.0,15,28,1.0,127.0
8384,79.0,0,21,6.0,75.0
8385,75.0,9,21,8.0,75.0
8386,79.0,0,21,2.0,62.0
8387,75.0,0,21,4.0,62.0
8388,79.0,0,21,7.0,75.0
8389,77.0,0,21,6.0,75.0
8390,77.0,0,21,2.0,62.0
8391,77.0,0,21,7.0,75.0
8392,53.0,0,28,1.0,127.0
8393,43.0,0,42,12.0,101.0
8394,55.0,0,42,13.0,49.0
8395,70.0,24,42,3.0,62.0
8396,55.0,0,42,11.0,49.0
8397,55.0,0,42,5.0,62.0
8398,70.0,0,42,10.0,75.0
8399,62.0,0,42,13.0,49.0
8400,70.0,0,42,13.0,49.0
8401,74.0,0,42,8.0,75.0
8402,74.0,0,42,4.0,62.0
8403,75.0,0,21,7.0,75.0
8404,75.0,0,21,2.0,62.0
8405,75.0,24,21,6.0,75.0
8406,53.0,7,29,1.0,127.0
8407,74.0,17,21,2.0,62.0
8408,74.0,0,21,6.0,75.0
8409,74.0,0,21,7.0,75.0
8410,72.0,0,42,4.0,62.0
8411,72.0,0,42,3.0,62.0
8412,57.0,0,42,11.0,49.0
8413,45.0,0,42,12.0,101.0
8414,57.0,0,42,13.0,49.0
8415,72.0,0,42,13.0,49.0
8416,65.0,0,42,13.0,49.0
8417,72.0,0,42,8.0,75.0
8418,57.0,0,42,5.0,62.0
8419,72.0,0,42,10.0,75.0
8420,53.0,15,28,1.0,127.0
8421,72.0,0,21,6.0,75.0
8422,72.0,0,21,7.0,75.0
8423,72.0,9,21,2.0,62.0
8424,58.0,0,21,13.0,49.0
8425,58.0,0,21,11.0,49.0
8426,58.0,0,21,5.0,62.0
8427,46.0,0,21,12.0,101.0
8428,65.0,0,42,13.0,49.0
8429,70.0,0,42,8.0,75.0
8430,74.0,0,42,2.0,62.0
8431,74.0,0,42,13.0,49.0
8432,65.0,24,42,10.0,75.0
8433,74.0,0,42,7.0,75.0
8434,65.0,0,42,3.0,62.0
8435,70.0,0,42,4.0,62.0
8436,74.0,0,42,6.0,75.0
8437,46.0,0,21,5.0,62.0
8438,46.0,24,21,13.0,49.0
8439,46.0,0,21,11.0,49.0
8440,34.0,0,21,12.0,101.0
8441,53.0,0,63,1.0,127.0
8442,79.0,0,21,7.0,75.0
8443,74.0,0,21,3.0,62.0
8444,46.0,0,21,12.0,101.0
8445,58.0,0,21,11.0,49.0
8446,79.0,0,21,6.0,75.0
8447,79.0,24,21,2.0,62.0
8448,70.0,0,21,10.0,75.0
8449,58.0,0,21,13.0,49.0
8450,70.0,0,21,4.0,62.0
8451,58.0,0,21,5.0,62.0
8452,74.0,0,21,8.0,75.0
8453,67.0,0,42,13.0,49.0
8454,74.0,0,42,13.0,49.0
8455,57.0,0,21,5.0,62.0
8456,81.0,24,21,2.0,62.0
8457,81.0,0,21,7.0,75.0
8458,75.0,0,21,3.0,62.0
8459,72.0,0,21,10.0,75.0
8460,60.0,0,21,1.0,127.0
8461,45.0,0,21,12.0,101.0
8462,81.0,0,21,6.0,75.0
8463,75.0,0,21,8.0,75.0
8464,57.0,0,21,13.0,49.0
8465,57.0,0,21,11.0,49.0
8466,72.0,0,21,4.0,62.0
8467,58.0,0,21,11.0,49.0
8468,79.0,24,21,7.0,75.0
8469,79.0,0,21,2.0,62.0
8470,58.0,0,21,13.0,49.0
8471,46.0,0,21,12.0,101.0
8472,79.0,0,21,6.0,75.0
8473,58.0,0,21,5.0,62.0
8474,70.0,0,42,10.0,75.0
8475,70.0,0,42,4.0,62.0
8476,67.0,0,42,13.0,49.0
8477,74.0,0,42,13.0,49.0
8478,74.0,0,42,8.0,75.0
8479,74.0,0,42,3.0,62.0
8480,77.0,24,21,2.0,62.0
8481,57.0,0,21,13.0,49.0
8482,77.0,0,21,7.0,75.0
8483,45.0,0,21,12.0,101.0
8484,57.0,0,21,11.0,49.0
8485,57.0,0,21,5.0,62.0
8486,77.0,0,21,6.0,75.0
8487,46.0,0,21,12.0,101.0
8488,58.0,0,21,11.0,49.0
8489,76.0,0,21,7.0,75.0
8490,76.0,0,21,6.0,75.0
8491,58.0,0,21,5.0,62.0
8492,76.0,0,21,2.0,62.0
8493,58.0,0,21,13.0,49.0
8494,70.0,0,42,8.0,75.0
8495,67.0,0,42,10.0,75.0
8496,74.0,0,42,13.0,49.0
8497,67.0,0,42,13.0,49.0
8498,67.0,0,42,4.0,62.0
8499,70.0,24,42,3.0,62.0
8500,57.0,0,21,11.0,49.0
8501,74.0,24,21,6.0,75.0
8502,74.0,0,21,2.0,62.0
8503,57.0,0,21,5.0,62.0
8504,57.0,0,21,13.0,49.0
8505,74.0,0,21,7.0,75.0
8506,45.0,0,21,12.0,101.0
8507,46.0,0,21,12.0,101.0
8508,58.0,0,21,13.0,49.0
8509,58.0,0,21,11.0,49.0
8510,58.0,0,21,5.0,62.0
8511,67.0,0,42,13.0,49.0
8512,74.0,0,42,13.0,49.0
8513,60.0,0,21,5.0,62.0
8514,48.0,0,21,12.0,101.0
8515,60.0,0,21,11.0,49.0
8516,60.0,24,21,13.0,49.0
8517,72.0,0,63,7.0,75.0
8518,67.0,0,63,3.0,62.0
8519,72.0,0,63,2.0,62.0
8520,72.0,0,63,6.0,75.0
8521,64.0,0,63,4.0,62.0
8522,67.0,24,63,8.0,75.0
8523,64.0,0,63,10.0,75.0
8524,46.0,0,21,12.0,101.0
8525,58.0,0,21,13.0,49.0
8526,58.0,0,21,11.0,49.0
8527,58.0,24,21,5.0,62.0
8528,74.0,0,42,13.0,49.0
8529,67.0,0,42,13.0,49.0
8530,57.0,0,21,5.0,62.0
8531,57.0,0,21,13.0,49.0
8532,69.0,0,21,3.0,62.0
8533,65.0,0,21,4.0,62.0
8534,74.0,24,21,6.0,75.0
8535,69.0,0,21,8.0,75.0
8536,74.0,0,21,2.0,62.0
8537,57.0,0,21,11.0,49.0
8538,74.0,0,21,7.0,75.0
8539,45.0,0,21,12.0,101.0
8540,65.0,0,21,10.0,75.0
8541,70.0,0,21,3.0,62.0
8542,67.0,0,21,10.0,75.0
8543,55.0,0,21,11.0,49.0
8544,76.0,0,21,7.0,75.0
8545,76.0,0,21,6.0,75.0
8546,43.0,0,21,12.0,101.0
8547,67.0,0,21,4.0,62.0
8548,55.0,0,21,13.0,49.0
8549,70.0,0,21,8.0,75.0
8550,55.0,0,21,5.0,62.0
8551,76.0,0,21,2.0,62.0
8552,64.0,0,42,13.0,49.0
8553,70.0,24,42,13.0,49.0
8554,69.0,0,21,3.0,62.0
8555,77.0,0,21,2.0,62.0
8556,77.0,0,21,7.0,75.0
8557,77.0,0,21,6.0,75.0
8558,69.0,0,21,8.0,75.0
8559,41.0,0,21,12.0,101.0
8560,53.0,0,21,13.0,49.0
8561,53.0,0,21,5.0,62.0
8562,53.0,24,21,11.0,49.0
8563,69.0,0,21,10.0,75.0
8564,69.0,0,21,4.0,62.0
8565,70.0,0,21,4.0,62.0
8566,67.0,0,21,3.0,62.0
8567,40.0,0,21,12.0,101.0
8568,52.0,0,21,11.0,49.0
8569,70.0,0,21,10.0,75.0
8570,67.0,0,21,8.0,75.0
8571,79.0,0,21,7.0,75.0
8572,52.0,0,21,13.0,49.0
8573,52.0,0,21,5.0,62.0
8574,79.0,0,21,2.0,62.0
8575,79.0,0,21,6.0,75.0
8576,67.0,0,42,13.0,49.0
8577,70.0,24,42,13.0,49.0
8578,81.0,0,21,6.0,75.0
8579,67.0,0,21,10.0,75.0
8580,81.0,24,21,7.0,75.0
8581,65.0,0,21,8.0,75.0
8582,50.0,0,21,13.0,49.0
8583,65.0,0,21,3.0,62.0
8584,67.0,0,21,4.0,62.0
8585,38.0,0,21,12.0,101.0
8586,81.0,0,21,2.0,62.0
8587,50.0,0,21,11.0,49.0
8588,50.0,0,21,5.0,62.0
8589,82.0,0,21,6.0,75.0
8590,82.0,0,21,2.0,62.0
8591,82.0,0,21,7.0,75.0
8592,84.0,0,10,7.0,75.0
8593,84.0,24,10,6.0,75.0
8594,84.0,0,10,2.0,62.0
8595,48.0,0,42,11.0,49.0
8596,64.0,0,42,8.0,75.0
8597,48.0,0,42,5.0,62.0
8598,48.0,0,42,13.0,49.0
8599,67.0,24,42,13.0,49.0
8600,64.0,0,42,13.0,49.0
8601,36.0,0,42,12.0,101.0
8602,64.0,0,42,3.0,62.0
8603,82.0,12,10,2.0,62.0
8604,82.0,0,10,7.0,75.0
8605,82.0,0,10,6.0,75.0
8606,81.0,0,10,2.0,62.0
8607,81.0,0,10,6.0,75.0
8608,81.0,0,10,7.0,75.0
8609,65.0,0,21,3.0,62.0
8610,65.0,0,21,8.0,75.0
8611,82.0,0,10,7.0,75.0
8612,82.0,12,10,6.0,75.0
8613,82.0,0,10,2.0,62.0
8614,53.0,0,42,5.0,62.0
8615,41.0,0,42,12.0,101.0
8616,53.0,0,42,11.0,49.0
8617,69.0,12,42,13.0,49.0
8618,60.0,0,42,13.0,49.0
8619,53.0,0,42,13.0,49.0
8620,84.0,12,21,7.0,75.0
8621,67.0,0,21,8.0,75.0
8622,84.0,0,21,6.0,75.0
8623,84.0,0,21,2.0,62.0
8624,67.0,0,21,3.0,62.0
8625,72.0,0,117,4.0,62.0
8626,72.0,0,117,10.0,75.0
8627,64.0,0,42,13.0,49.0
8628,67.0,0,42,13.0,49.0
8629,60.0,0,42,13.0,49.0
8630,60.0,0,42,11.0,49.0
8631,60.0,0,42,5.0,62.0
8632,48.0,0,42,12.0,101.0
8633,70.0,0,21,10.0,75.0
8634,70.0,24,21,4.0,62.0
8635,79.0,24,63,2.0,62.0
8636,79.0,0,63,6.0,75.0
8637,64.0,0,63,3.0,62.0
8638,64.0,0,63,8.0,75.0
8639,79.0,0,63,7.0,75.0
8640,72.0,0,21,4.0,62.0
8641,72.0,0,21,10.0,75.0
8642,48.0,24,42,11.0,49.0
8643,36.0,0,42,12.0,101.0
8644,48.0,0,42,5.0,62.0
8645,48.0,0,42,13.0,49.0
8646,64.0,0,42,13.0,49.0
8647,67.0,0,42,13.0,49.0
8648,60.0,0,42,1.0,127.0
8649,65.0,0,21,8.0,75.0
8650,70.0,0,21,4.0,62.0
8651,70.0,0,21,10.0,75.0
8652,77.0,0,21,2.0,62.0
8653,65.0,0,21,3.0,62.0
8654,77.0,24,21,6.0,75.0
8655,77.0,0,21,7.0,75.0
8656,77.0,0,21,2.0,62.0
8657,50.0,0,21,5.0,62.0
8658,50.0,0,21,11.0,49.0
8659,77.0,0,21,6.0,75.0
8660,38.0,0,21,12.0,101.0
8661,77.0,0,21,7.0,75.0
8662,50.0,0,21,13.0,49.0
8663,65.0,0,28,1.0,127.0
8664,77.0,24,42,13.0,49.0
8665,69.0,0,42,13.0,49.0
8666,69.0,0,42,10.0,75.0
8667,69.0,0,42,4.0,62.0
8668,65.0,0,42,8.0,75.0
8669,65.0,0,42,3.0,62.0
8670,76.0,0,21,2.0,62.0
8671,76.0,0,21,6.0,75.0
8672,76.0,0,21,7.0,75.0
8673,48.0,0,21,5.0,62.0
8674,36.0,24,21,12.0,101.0
8675,48.0,0,21,11.0,49.0
8676,48.0,0,21,13.0,49.0
8677,65.0,7,29,1.0,127.0
8678,38.0,0,21,12.0,101.0
8679,77.0,17,21,6.0,75.0
8680,50.0,0,21,5.0,62.0
8681,77.0,0,21,7.0,75.0
8682,50.0,0,21,13.0,49.0
8683,50.0,0,21,11.0,49.0
8684,77.0,0,21,2.0,62.0
8685,77.0,0,42,13.0,49.0
8686,69.0,0,42,13.0,49.0
8687,69.0,0,42,8.0,75.0
8688,65.0,0,42,10.0,75.0
8689,60.0,0,42,0.0,127.0
8690,65.0,0,42,4.0,62.0
8691,69.0,0,42,3.0,62.0
8692,65.0,15,28,1.0,127.0
8693,76.0,0,21,2.0,62.0
8694,48.0,0,21,13.0,49.0
8695,76.0,0,21,6.0,75.0
8696,48.0,9,21,5.0,62.0
8697,48.0,0,21,11.0,49.0
8698,76.0,0,21,7.0,75.0
8699,36.0,0,21,12.0,101.0
8700,46.0,0,21,11.0,49.0
8701,34.0,0,21,12.0,101.0
8702,74.0,0,21,7.0,75.0
8703,46.0,0,21,13.0,49.0
8704,74.0,0,21,2.0,62.0
8705,46.0,0,21,5.0,62.0
8706,74.0,0,21,6.0,75.0
8707,65.0,0,28,0.0,127.0
8708,65.0,0,28,1.0,127.0
8709,65.0,0,42,10.0,75.0
8710,65.0,0,42,4.0,62.0
8711,70.0,0,42,3.0,62.0
8712,65.0,0,42,13.0,49.0
8713,74.0,0,42,13.0,49.0
8714,70.0,24,42,8.0,75.0
8715,72.0,0,21,6.0,75.0
8716,33.0,0,21,12.0,101.0
8717,45.0,0,21,11.0,49.0
8718,45.0,24,21,5.0,62.0
8719,45.0,0,21,13.0,49.0
8720,72.0,0,21,7.0,75.0
8721,72.0,0,21,2.0,62.0
8722,60.0,7,29,1.0,127.0
8723,65.0,0,29,0.0,127.0
8724,46.0,0,21,11.0,49.0
8725,74.0,0,21,7.0,75.0
8726,46.0,0,21,5.0,62.0
8727,74.0,0,21,2.0,62.0
8728,46.0,0,21,13.0,49.0
8729,34.0,0,21,12.0,101.0
8730,74.0,0,21,6.0,75.0
8731,65.0,0,42,13.0,49.0
8732,65.0,0,42,4.0,62.0
8733,62.0,17,42,3.0,62.0
8734,74.0,0,42,13.0,49.0
8735,62.0,0,42,8.0,75.0
8736,65.0,0,42,10.0,75.0
8737,65.0,0,28,0.0,127.0
8738,65.0,15,28,1.0,127.0
8739,33.0,0,21,12.0,101.0
8740,72.0,0,21,2.0,62.0
8741,72.0,0,21,7.0,75.0
8742,72.0,0,21,6.0,75.0
8743,45.0,0,21,11.0,49.0
8744,45.0,9,21,13.0,49.0
8745,45.0,0,21,5.0,62.0
8746,62.0,0,21,8.0,75.0
8747,70.0,0,21,7.0,75.0
8748,70.0,0,21,2.0,62.0
8749,62.0,24,21,3.0,62.0
8750,70.0,0,21,6.0,75.0
8751,60.0,0,28,1.0,127.0
8752,65.0,0,28,0.0,127.0
8753,72.0,24,10,2.0,62.0
8754,72.0,0,10,6.0,75.0
8755,72.0,0,10,7.0,75.0
8756,70.0,0,42,13.0,49.0
8757,67.0,0,42,4.0,62.0
8758,43.0,0,42,11.0,49.0
8759,31.0,0,42,12.0,101.0
8760,43.0,0,42,5.0,62.0
8761,43.0,0,42,13.0,49.0
8762,74.0,0,42,13.0,49.0
8763,67.0,0,42,10.0,75.0
8764,64.0,0,21,3.0,62.0
8765,64.0,0,21,8.0,75.0
8766,70.0,0,10,6.0,75.0
8767,70.0,5,10,2.0,62.0
8768,70.0,0,10,7.0,75.0
8769,69.0,0,10,6.0,75.0
8770,69.0,0,10,2.0,62.0
8771,69.0,0,10,7.0,75.0
8772,57.0,0,29,1.0,127.0
8773,60.0,7,29,0.0,127.0
8774,65.0,0,21,8.0,75.0
8775,65.0,0,21,3.0,62.0
8776,70.0,0,10,2.0,62.0
8777,70.0,0,10,6.0,75.0
8778,70.0,12,10,7.0,75.0
8779,60.0,0,42,4.0,62.0
8780,41.0,0,42,13.0,49.0
8781,41.0,0,42,11.0,49.0
8782,69.0,0,42,13.0,49.0
8783,29.0,0,42,12.0,101.0
8784,60.0,0,42,10.0,75.0
8785,41.0,0,42,5.0,62.0
8786,72.0,12,42,13.0,49.0
8787,65.0,0,28,0.0,127.0
8788,60.0,3,28,1.0,127.0
8789,72.0,0,21,6.0,75.0
8790,67.0,0,21,8.0,75.0
8791,72.0,9,21,7.0,75.0
8792,72.0,0,21,2.0,62.0
8793,67.0,0,21,3.0,62.0
8794,60.0,0,28,0.0,127.0
8795,57.0,0,28,1.0,127.0
8796,48.0,0,42,13.0,49.0
8797,48.0,24,42,11.0,49.0
8798,48.0,0,42,5.0,62.0
8799,72.0,0,42,13.0,49.0
8800,65.0,0,42,13.0,49.0
8801,36.0,0,42,12.0,101.0
8802,53.0,31,29,1.0,127.0
8803,57.0,0,29,0.0,127.0
8804,60.0,0,63,4.0,62.0
8805,60.0,0,63,10.0,75.0
8806,67.0,0,63,6.0,75.0
8807,64.0,0,63,3.0,62.0
8808,67.0,0,63,2.0,62.0
8809,67.0,0,63,7.0,75.0
8810,64.0,0,63,8.0,75.0
8811,24.0,0,42,12.0,101.0
8812,36.0,0,42,11.0,49.0
8813,36.0,17,42,5.0,62.0
8814,65.0,0,42,13.0,49.0
8815,72.0,0,42,13.0,49.0
8816,36.0,0,42,13.0,49.0
8817,60.0,15,28,0.0,127.0
8818,57.0,0,28,1.0,127.0
8819,60.0,0,21,4.0,62.0
8820,65.0,0,21,3.0,62.0
8821,65.0,9,21,2.0,62.0
8822,60.0,0,21,10.0,75.0
8823,65.0,0,21,7.0,75.0
8824,65.0,0,21,8.0,75.0
8825,65.0,0,21,6.0,75.0
8826,57.0,0,28,0.0,127.0
8827,53.0,24,28,1.0,127.0
8828,41.0,0,42,13.0,49.0
8829,65.0,0,42,6.0,75.0
8830,65.0,0,42,2.0,62.0
8831,65.0,0,42,8.0,75.0
8832,41.0,0,42,11.0,49.0
8833,41.0,0,42,5.0,62.0
8834,65.0,0,42,3.0,62.0
8835,60.0,0,42,4.0,62.0
8836,29.0,0,42,12.0,101.0
8837,69.0,0,42,13.0,49.0
8838,60.0,0,42,13.0,49.0
8839,65.0,0,42,7.0,75.0
8840,60.0,0,42,10.0,75.0
8841,57.0,31,29,0.0,127.0
8842,53.0,0,29,1.0,127.0
8843,29.0,0,21,12.0,101.0
8844,77.0,0,21,2.0,62.0
8845,41.0,0,21,5.0,62.0
8846,72.0,0,21,3.0,62.0
8847,69.0,0,21,4.0,62.0
8848,69.0,0,21,13.0,49.0
8849,60.0,0,21,13.0,49.0
8850,41.0,0,21,13.0,49.0
8851,41.0,17,21,11.0,49.0
8852,65.0,0,42,6.0,75.0
8853,57.0,0,42,10.0,75.0
8854,65.0,0,42,7.0,75.0
8855,60.0,0,42,8.0,75.0
8856,57.0,0,28,0.0,127.0
8857,53.0,15,28,1.0,127.0
8858,69.0,0,21,13.0,49.0
8859,60.0,9,21,13.0,49.0
8860,29.0,0,21,12.0,101.0
8861,41.0,0,21,11.0,49.0
8862,41.0,0,21,13.0,49.0
8863,67.0,0,21,4.0,62.0
8864,76.0,0,21,2.0,62.0
8865,41.0,0,21,5.0,62.0
8866,70.0,0,21,3.0,62.0
8867,29.0,0,21,12.0,101.0
8868,41.0,0,21,11.0,49.0
8869,41.0,0,21,13.0,49.0
8870,77.0,0,21,2.0,62.0
8871,69.0,0,21,13.0,49.0
8872,60.0,0,21,13.0,49.0
8873,69.0,24,21,4.0,62.0
8874,41.0,0,21,5.0,62.0
8875,72.0,0,21,3.0,62.0
8876,57.0,0,28,0.0,127.0
8877,53.0,0,28,1.0,127.0
8878,69.0,0,42,7.0,75.0
8879,65.0,0,42,8.0,75.0
8880,69.0,0,42,6.0,75.0
8881,60.0,0,42,10.0,75.0
8882,41.0,0,21,5.0,62.0
8883,60.0,24,21,13.0,49.0
8884,69.0,0,21,13.0,49.0
8885,70.0,0,21,3.0,62.0
8886,76.0,0,21,2.0,62.0
8887,41.0,0,21,11.0,49.0
8888,67.0,0,21,4.0,62.0
8889,29.0,0,21,12.0,101.0
8890,41.0,0,21,13.0,49.0
8891,57.0,0,29,0.0,127.0
8892,53.0,7,29,1.0,127.0
8893,60.0,0,21,13.0,49.0
8894,69.0,0,21,4.0,62.0
8895,72.0,0,21,3.0,62.0
8896,41.0,0,21,5.0,62.0
8897,41.0,0,21,13.0,49.0
8898,69.0,17,21,13.0,49.0
8899,77.0,0,21,2.0,62.0
8900,41.0,0,21,11.0,49.0
8901,29.0,0,21,12.0,101.0
8902,65.0,0,42,10.0,75.0
8903,69.0,0,42,8.0,75.0
8904,72.0,0,42,6.0,75.0
8905,72.0,0,42,7.0,75.0
8906,57.0,15,28,0.0,127.0
8907,53.0,0,28,1.0,127.0
8908,41.0,0,21,5.0,62.0
8909,67.0,0,21,4.0,62.0
8910,70.0,9,21,3.0,62.0
8911,41.0,0,21,11.0,49.0
8912,60.0,0,21,13.0,49.0
8913,69.0,0,21,13.0,49.0
8914,76.0,0,21,2.0,62.0
8915,29.0,0,21,12.0,101.0
8916,41.0,0,21,13.0,49.0
8917,60.0,0,180,13.0,49.0
8918,41.0,0,180,13.0,49.0
8919,29.0,0,180,12.0,101.0
8920,41.0,0,180,11.0,49.0
8921,69.0,0,180,10.0,75.0
8922,72.0,0,180,8.0,75.0
8923,57.0,0,180,0.0,127.0
8924,77.0,0,180,7.0,75.0
8925,77.0,0,180,2.0,62.0
8926,69.0,0,180,13.0,49.0
8927,77.0,24,180,6.0,75.0
8928,41.0,0,180,5.0,62.0
8929,69.0,0,180,4.0,62.0
8930,72.0,0,180,3.0,62.0
8931,53.0,0,180,1.0,127.0
