,note,step,duration,channel,velocity
0,66.0,0,63,0.0,85.0
1,66.0,10,71,4.0,82.0
2,66.0,19,66,1.0,82.0
3,62.0,216,90,2.0,85.0
4,59.0,5,90,3.0,74.0
5,61.0,8,69,3.0,62.0
6,64.0,75,81,2.0,80.0
7,71.0,238,503,0.0,82.0
8,71.0,7,519,4.0,80.0
9,66.0,121,98,2.0,85.0
10,62.0,9,112,3.0,80.0
11,73.0,79,94,0.0,80.0
12,73.0,21,88,4.0,63.0
13,74.0,18,73,4.0,80.0
14,74.0,84,95,0.0,80.0
15,64.0,0,78,2.0,74.0
16,61.0,0,94,3.0,62.0
17,76.0,92,81,0.0,78.0
18,76.0,6,78,4.0,74.0
19,71.0,33,474,1.0,85.0
20,78.0,8,67,4.0,85.0
21,62.0,121,92,2.0,82.0
22,78.0,5,93,0.0,82.0
23,59.0,6,90,3.0,70.0
24,64.0,232,77,2.0,80.0
25,70.0,2,75,0.0,66.0
26,70.0,2,75,4.0,66.0
27,61.0,2,90,3.0,64.0
28,79.0,6,94,1.0,91.0
29,71.0,4,68,0.0,80.0
30,62.0,236,98,3.0,85.0
31,78.0,7,91,1.0,80.0
32,71.0,4,83,4.0,72.0
33,76.0,7,79,0.0,80.0
34,70.0,0,92,1.0,66.0
35,76.0,2,83,4.0,74.0
36,61.0,229,97,3.0,63.0
37,71.0,238,87,1.0,80.0
38,74.0,12,82,0.0,85.0
39,59.0,0,102,3.0,74.0
40,74.0,2,98,4.0,80.0
41,66.0,2,594,2.0,70.0
42,79.0,6,82,0.0,87.0
43,79.0,5,85,4.0,80.0
44,61.0,230,102,3.0,63.0
45,64.0,4,101,1.0,89.0
46,70.0,2,101,2.0,68.0
47,78.0,227,102,0.0,70.0
48,62.0,4,103,3.0,82.0
49,71.0,6,99,2.0,85.0
50,78.0,5,96,4.0,64.0
51,62.0,0,104,1.0,87.0
52,82.0,5,65,4.0,76.0
53,82.0,222,84,0.0,82.0
54,61.0,0,94,3.0,63.0
55,76.0,2,105,1.0,82.0
56,73.0,7,98,2.0,82.0
57,66.0,5,95,2.0,85.0
58,59.0,8,105,3.0,70.0
59,74.0,2,117,1.0,78.0
60,83.0,225,192,0.0,89.0
61,83.0,2,189,4.0,82.0
62,81.0,0,80,4.0,80.0
63,81.0,219,101,0.0,80.0
64,61.0,10,98,3.0,66.0
65,64.0,2,102,2.0,80.0
66,76.0,4,99,1.0,76.0
67,79.0,90,73,0.0,72.0
68,79.0,11,66,4.0,66.0
69,78.0,12,90,1.0,76.0
70,78.0,110,109,0.0,85.0
71,78.0,7,102,4.0,66.0
72,62.0,4,96,2.0,78.0
73,62.0,2,109,3.0,80.0
74,79.0,6,58,4.0,64.0
75,79.0,84,71,0.0,76.0
76,76.0,117,94,0.0,80.0
77,70.0,6,88,1.0,66.0
78,76.0,8,98,4.0,76.0
79,64.0,2,88,2.0,85.0
80,61.0,7,94,3.0,61.0
81,78.0,2,62,4.0,57.0
82,78.0,90,71,0.0,49.0
83,66.0,13,79,2.0,80.0
84,74.0,6,96,4.0,82.0
85,74.0,127,104,0.0,82.0
86,71.0,2,105,1.0,85.0
87,59.0,0,113,3.0,72.0
88,76.0,90,64,0.0,68.0
89,76.0,10,61,4.0,59.0
90,64.0,12,75,2.0,80.0
91,73.0,115,106,0.0,85.0
92,73.0,9,95,4.0,80.0
93,70.0,8,105,1.0,64.0
94,61.0,2,108,3.0,64.0
95,74.0,77,71,0.0,68.0
96,74.0,19,60,4.0,59.0
97,71.0,111,110,1.0,85.0
98,71.0,6,106,0.0,87.0
99,71.0,2,101,4.0,78.0
100,62.0,12,109,3.0,80.0
101,73.0,90,62,0.0,60.0
102,73.0,16,61,4.0,51.0
103,69.0,109,102,0.0,80.0
104,73.0,0,90,1.0,76.0
105,69.0,16,105,4.0,63.0
106,61.0,5,106,3.0,63.0
107,71.0,91,63,0.0,70.0
108,71.0,3,75,4.0,68.0
109,66.0,5,524,2.0,82.0
110,74.0,6,73,1.0,89.0
111,67.0,131,96,0.0,76.0
112,67.0,7,93,4.0,76.0
113,59.0,6,103,3.0,64.0
114,67.0,83,61,2.0,80.0
115,64.0,119,88,2.0,74.0
116,76.0,9,79,0.0,87.0
117,76.0,2,92,4.0,85.0
118,61.0,27,107,3.0,63.0
119,66.0,77,71,2.0,72.0
120,69.0,10,313,1.0,91.0
121,66.0,7,91,0.0,85.0
122,62.0,142,111,2.0,87.0
123,62.0,2,111,3.0,80.0
124,66.0,6,98,4.0,82.0
125,67.0,111,79,1.0,78.0
126,66.0,110,75,1.0,82.0
127,69.0,10,61,0.0,98.0
128,61.0,4,89,3.0,63.0
129,69.0,8,75,4.0,87.0
130,64.0,7,100,2.0,85.0
131,64.0,83,74,1.0,87.0
132,66.0,128,98,2.0,80.0
133,74.0,2,88,0.0,87.0
134,74.0,10,88,4.0,85.0
135,59.0,19,118,3.0,82.0
136,62.0,2,121,1.0,93.0
137,79.0,6,85,0.0,89.0
138,71.0,216,93,2.0,87.0
139,74.0,2,87,1.0,85.0
140,55.0,0,100,3.0,80.0
141,79.0,10,92,4.0,82.0
142,79.0,215,65,0.0,87.0
143,79.0,10,67,4.0,76.0
144,74.0,6,90,1.0,91.0
145,69.0,1,98,2.0,89.0
146,57.0,6,103,3.0,80.0
147,78.0,27,67,0.0,87.0
148,78.0,30,60,4.0,70.0
149,79.0,27,69,0.0,68.0
150,79.0,33,67,4.0,68.0
151,78.0,10,92,0.0,63.0
152,78.0,40,81,4.0,66.0
153,67.0,50,84,2.0,82.0
154,76.0,6,78,0.0,78.0
155,76.0,4,79,4.0,66.0
156,73.0,2,81,1.0,82.0
157,45.0,5,110,3.0,87.0
158,74.0,104,67,0.0,76.0
159,74.0,17,54,4.0,80.0
160,50.0,6,83,3.0,80.0
161,45.0,224,73,3.0,85.0
162,74.0,4,483,4.0,85.0
163,74.0,11,492,0.0,87.0
164,66.0,109,517,2.0,82.0
165,69.0,3,510,1.0,78.0
166,38.0,265,246,3.0,85.0
167,66.0,4,77,0.0,85.0
168,66.0,207,87,4.0,64.0
169,66.0,226,71,1.0,80.0
170,59.0,8,86,3.0,82.0
171,62.0,8,104,2.0,82.0
172,61.0,14,80,3.0,70.0
173,64.0,86,102,2.0,76.0
174,71.0,3,509,0.0,87.0
175,71.0,249,514,4.0,85.0
176,62.0,121,111,3.0,82.0
177,66.0,3,108,2.0,85.0
178,73.0,96,86,0.0,74.0
179,73.0,9,96,4.0,64.0
180,74.0,97,78,4.0,76.0
181,74.0,0,75,0.0,87.0
182,61.0,15,79,3.0,63.0
183,64.0,11,102,2.0,68.0
184,76.0,92,73,4.0,60.0
185,76.0,0,75,0.0,80.0
186,71.0,18,480,1.0,89.0
187,62.0,121,89,2.0,85.0
188,78.0,14,82,0.0,95.0
189,78.0,5,81,4.0,76.0
190,59.0,0,95,3.0,76.0
191,70.0,0,77,0.0,72.0
192,64.0,2,90,2.0,82.0
193,79.0,2,90,1.0,87.0
194,61.0,233,94,3.0,66.0
195,70.0,14,82,4.0,72.0
196,71.0,4,77,0.0,82.0
197,71.0,2,84,4.0,70.0
198,62.0,226,107,3.0,80.0
199,78.0,13,98,1.0,82.0
200,76.0,7,77,0.0,85.0
201,61.0,8,93,3.0,64.0
202,76.0,0,87,4.0,78.0
203,70.0,227,113,1.0,76.0
204,66.0,0,537,2.0,82.0
205,74.0,2,82,0.0,89.0
206,71.0,4,88,1.0,87.0
207,74.0,3,85,4.0,80.0
208,59.0,238,100,3.0,66.0
209,79.0,0,81,0.0,87.0
210,61.0,225,88,3.0,63.0
211,79.0,8,74,4.0,72.0
212,70.0,4,108,2.0,80.0
213,64.0,2,123,1.0,87.0
214,78.0,6,90,0.0,82.0
215,62.0,228,104,3.0,80.0
216,62.0,2,94,1.0,85.0
217,71.0,4,103,2.0,82.0
218,78.0,7,96,4.0,64.0
219,82.0,0,87,0.0,87.0
220,61.0,217,92,3.0,61.0
221,82.0,14,83,4.0,66.0
222,73.0,4,89,2.0,82.0
223,76.0,5,94,1.0,82.0
224,59.0,2,102,3.0,74.0
225,74.0,2,101,1.0,78.0
226,66.0,5,108,2.0,78.0
227,83.0,4,188,4.0,80.0
228,83.0,221,198,0.0,93.0
229,81.0,227,88,0.0,85.0
230,81.0,4,86,4.0,66.0
231,76.0,2,88,1.0,85.0
232,61.0,3,89,3.0,64.0
233,64.0,4,109,2.0,78.0
234,79.0,83,56,4.0,70.0
235,79.0,10,59,0.0,72.0
236,62.0,2,74,2.0,76.0
237,78.0,6,99,0.0,95.0
238,78.0,115,105,4.0,68.0
239,78.0,19,88,1.0,93.0
240,62.0,2,107,3.0,76.0
241,79.0,76,71,4.0,61.0
242,79.0,8,70,0.0,72.0
243,76.0,115,98,0.0,85.0
244,76.0,8,99,4.0,64.0
245,64.0,12,83,2.0,78.0
246,70.0,11,112,1.0,68.0
247,61.0,6,103,3.0,63.0
248,78.0,75,61,0.0,57.0
249,78.0,5,62,4.0,57.0
250,74.0,6,96,4.0,70.0
251,74.0,121,104,0.0,80.0
252,66.0,3,87,2.0,80.0
253,71.0,14,101,1.0,85.0
254,59.0,18,103,3.0,66.0
255,76.0,75,71,0.0,60.0
256,76.0,11,63,4.0,63.0
257,64.0,6,82,2.0,85.0
258,73.0,6,100,0.0,85.0
259,70.0,119,106,1.0,70.0
260,73.0,0,96,4.0,64.0
261,61.0,15,98,3.0,64.0
262,74.0,2,60,4.0,66.0
263,74.0,84,68,0.0,72.0
264,71.0,5,94,0.0,72.0
265,71.0,7,89,4.0,76.0
266,71.0,130,103,1.0,80.0
267,62.0,12,102,3.0,80.0
268,73.0,90,60,0.0,48.0
269,73.0,4,56,4.0,47.0
270,73.0,2,90,1.0,74.0
271,69.0,118,110,0.0,76.0
272,61.0,7,94,3.0,68.0
273,69.0,11,113,4.0,72.0
274,71.0,83,62,0.0,66.0
275,71.0,9,68,4.0,66.0
276,66.0,2,546,2.0,80.0
277,67.0,137,94,0.0,78.0
278,74.0,4,103,1.0,85.0
279,59.0,1,104,3.0,66.0
280,67.0,8,102,4.0,82.0
281,67.0,123,67,2.0,78.0
282,64.0,0,84,2.0,80.0
283,76.0,6,90,4.0,80.0
284,76.0,5,98,0.0,85.0
285,61.0,106,103,3.0,66.0
286,66.0,100,73,2.0,82.0
287,69.0,6,319,1.0,89.0
288,66.0,4,86,0.0,85.0
289,66.0,3,94,4.0,68.0
290,62.0,130,106,3.0,82.0
291,62.0,9,116,2.0,87.0
292,67.0,107,77,1.0,78.0
293,66.0,115,73,1.0,74.0
294,69.0,2,73,0.0,93.0
295,69.0,4,71,4.0,85.0
296,61.0,2,84,3.0,64.0
297,64.0,12,102,2.0,85.0
298,64.0,88,81,1.0,80.0
299,66.0,130,93,2.0,80.0
300,74.0,7,92,0.0,89.0
301,74.0,2,90,4.0,80.0
302,59.0,9,112,3.0,85.0
303,62.0,7,102,1.0,93.0
304,79.0,6,79,0.0,87.0
305,71.0,215,98,2.0,85.0
306,79.0,6,86,4.0,78.0
307,74.0,11,75,1.0,91.0
308,55.0,2,100,3.0,78.0
309,79.0,192,64,0.0,82.0
310,79.0,20,65,4.0,74.0
311,57.0,8,88,3.0,87.0
312,78.0,2,72,0.0,87.0
313,69.0,5,110,2.0,85.0
314,78.0,23,64,4.0,72.0
315,74.0,15,96,1.0,87.0
316,79.0,41,75,0.0,66.0
317,79.0,23,65,4.0,61.0
318,78.0,23,92,0.0,63.0
319,78.0,17,88,4.0,60.0
320,76.0,69,76,0.0,78.0
321,67.0,12,77,2.0,85.0
322,76.0,2,76,4.0,72.0
323,73.0,4,78,1.0,76.0
324,45.0,16,105,3.0,82.0
325,74.0,14,61,4.0,82.0
326,74.0,87,75,0.0,74.0
327,50.0,123,74,3.0,93.0
328,45.0,232,77,3.0,85.0
329,74.0,7,487,4.0,68.0
330,74.0,0,494,0.0,85.0
331,69.0,5,495,1.0,85.0
332,66.0,3,523,2.0,85.0
333,38.0,265,255,3.0,85.0
334,69.0,210,85,4.0,82.0
335,69.0,14,92,0.0,80.0
336,50.0,225,85,3.0,80.0
337,69.0,2,84,1.0,82.0
338,66.0,2,98,2.0,76.0
339,52.0,96,88,3.0,78.0
340,67.0,4,96,2.0,82.0
341,74.0,5,509,0.0,76.0
342,74.0,244,524,4.0,78.0
343,69.0,0,108,2.0,85.0
344,54.0,126,125,3.0,89.0
345,76.0,96,80,4.0,80.0
346,76.0,7,81,0.0,68.0
347,78.0,107,76,4.0,68.0
348,67.0,8,77,2.0,70.0
349,78.0,2,81,0.0,60.0
350,52.0,2,98,3.0,64.0
351,79.0,102,73,4.0,82.0
352,79.0,2,75,0.0,82.0
353,74.0,22,465,1.0,82.0
354,66.0,113,110,2.0,66.0
355,50.0,2,99,3.0,66.0
356,81.0,4,123,0.0,98.0
357,81.0,12,127,4.0,93.0
358,71.0,94,75,1.0,82.0
359,79.0,0,69,0.0,80.0
360,79.0,19,90,4.0,72.0
361,69.0,94,84,1.0,64.0
362,78.0,13,81,0.0,57.0
363,78.0,8,93,4.0,42.0
364,67.0,2,106,2.0,66.0
365,52.0,10,97,3.0,68.0
366,67.0,82,92,1.0,64.0
367,76.0,18,68,4.0,55.0
368,76.0,12,86,0.0,66.0
369,54.0,11,89,3.0,64.0
370,74.0,8,102,0.0,82.0
371,66.0,101,123,1.0,70.0
372,69.0,11,121,2.0,78.0
373,74.0,4,100,4.0,72.0
374,67.0,77,83,1.0,80.0
375,67.0,21,96,2.0,82.0
376,52.0,2,88,3.0,68.0
377,66.0,4,108,2.0,66.0
378,72.0,21,88,0.0,64.0
379,72.0,8,84,4.0,63.0
380,64.0,84,106,2.0,72.0
381,66.0,142,102,2.0,72.0
382,71.0,18,96,4.0,68.0
383,51.0,4,115,3.0,63.0
384,71.0,5,98,0.0,80.0
385,69.0,117,395,1.0,85.0
386,71.0,12,98,2.0,78.0
387,76.0,5,83,0.0,80.0
388,76.0,8,90,4.0,74.0
389,52.0,211,120,3.0,64.0
390,67.0,2,109,1.0,80.0
391,69.0,0,93,2.0,85.0
392,54.0,233,101,3.0,64.0
393,75.0,2,99,0.0,68.0
394,75.0,2,96,4.0,66.0
395,66.0,5,114,1.0,62.0
396,81.0,220,80,4.0,82.0
397,81.0,2,82,0.0,85.0
398,78.0,9,100,1.0,74.0
399,51.0,9,94,3.0,63.0
400,81.0,204,77,0.0,87.0
401,81.0,9,75,4.0,78.0
402,76.0,11,97,1.0,78.0
403,71.0,2,349,2.0,85.0
404,79.0,4,71,4.0,80.0
405,79.0,25,77,0.0,87.0
406,52.0,16,108,3.0,78.0
407,81.0,52,67,0.0,60.0
408,81.0,13,58,4.0,64.0
409,79.0,3,80,4.0,82.0
410,79.0,46,94,0.0,70.0
411,75.0,66,81,1.0,76.0
412,78.0,0,87,0.0,80.0
413,78.0,0,95,4.0,66.0
414,69.0,10,101,2.0,72.0
415,54.0,17,106,3.0,63.0
416,79.0,84,49,4.0,89.0
417,79.0,5,52,0.0,87.0
418,76.0,117,89,4.0,76.0
419,71.0,12,92,2.0,82.0
420,76.0,4,113,0.0,64.0
421,55.0,2,101,3.0,76.0
422,71.0,76,73,4.0,57.0
423,71.0,16,77,0.0,60.0
424,69.0,13,87,2.0,82.0
425,76.0,98,79,4.0,63.0
426,76.0,4,71,0.0,78.0
427,67.0,15,95,2.0,72.0
428,54.0,10,92,3.0,59.0
429,78.0,86,77,4.0,60.0
430,78.0,6,63,0.0,85.0
431,69.0,12,82,2.0,85.0
432,76.0,11,544,1.0,85.0
433,79.0,121,96,0.0,87.0
434,52.0,8,94,3.0,64.0
435,79.0,3,108,4.0,85.0
436,71.0,2,104,2.0,85.0
437,81.0,90,77,0.0,62.0
438,81.0,10,77,4.0,66.0
439,78.0,115,90,4.0,70.0
440,78.0,2,80,0.0,78.0
441,54.0,8,94,3.0,64.0
442,70.0,4,87,1.0,72.0
443,62.0,7,96,2.0,78.0
444,79.0,96,62,4.0,66.0
445,79.0,8,57,0.0,68.0
446,76.0,2,84,0.0,89.0
447,59.0,121,100,2.0,72.0
448,76.0,4,98,4.0,70.0
449,55.0,7,104,3.0,74.0
450,78.0,0,52,0.0,58.0
451,78.0,96,60,4.0,54.0
452,66.0,12,94,2.0,78.0
453,74.0,121,115,0.0,82.0
454,74.0,2,111,4.0,78.0
455,54.0,5,112,3.0,60.0
456,76.0,94,72,0.0,61.0
457,76.0,10,69,4.0,66.0
458,71.0,0,542,1.0,80.0
459,52.0,0,98,3.0,70.0
460,73.0,0,102,0.0,80.0
461,67.0,125,115,2.0,80.0
462,73.0,11,114,4.0,76.0
463,73.0,110,90,1.0,63.0
464,82.0,5,71,0.0,74.0
465,82.0,2,77,4.0,72.0
466,74.0,125,98,1.0,76.0
467,54.0,2,99,3.0,59.0
468,66.0,0,111,2.0,70.0
469,76.0,108,77,1.0,80.0
470,83.0,0,69,4.0,87.0
471,83.0,4,69,0.0,87.0
472,59.0,125,119,2.0,78.0
473,55.0,10,111,3.0,72.0
474,74.0,1,123,1.0,91.0
475,73.0,98,94,1.0,61.0
476,66.0,6,88,2.0,76.0
477,71.0,115,106,1.0,66.0
478,54.0,17,96,3.0,63.0
479,69.0,86,60,1.0,80.0
480,71.0,8,94,2.0,85.0
481,67.0,131,121,1.0,85.0
482,52.0,11,114,3.0,64.0
483,74.0,6,380,4.0,85.0
484,74.0,2,398,0.0,78.0
485,66.0,92,73,1.0,70.0
486,73.0,4,69,4.0,63.0
487,64.0,121,102,1.0,66.0
488,73.0,21,87,0.0,63.0
489,70.0,6,86,2.0,68.0
490,54.0,0,110,3.0,60.0
491,62.0,88,83,1.0,64.0
492,74.0,10,75,4.0,78.0
493,74.0,0,80,0.0,76.0
494,61.0,123,99,1.0,82.0
495,71.0,6,98,2.0,85.0
496,76.0,0,111,4.0,98.0
497,55.0,17,113,3.0,74.0
498,76.0,0,128,0.0,102.0
499,59.0,87,95,1.0,72.0
500,74.0,0,79,4.0,78.0
501,74.0,18,81,0.0,82.0
502,73.0,2,81,0.0,56.0
503,67.0,112,84,1.0,89.0
504,73.0,1,91,4.0,55.0
505,64.0,6,94,2.0,80.0
506,52.0,0,123,3.0,58.0
507,71.0,94,94,0.0,52.0
508,71.0,4,92,4.0,56.0
509,70.0,2,94,0.0,87.0
510,70.0,4,100,4.0,80.0
511,61.0,140,108,2.0,68.0
512,54.0,15,112,3.0,66.0
513,71.0,2,101,4.0,58.0
514,71.0,87,113,0.0,68.0
515,73.0,3,70,4.0,57.0
516,73.0,126,73,0.0,55.0
517,58.0,3,110,2.0,66.0
518,52.0,0,110,3.0,72.0
519,70.0,6,61,4.0,56.0
520,70.0,102,70,0.0,59.0
521,66.0,0,532,1.0,80.0
522,66.0,123,105,0.0,87.0
523,50.0,9,112,3.0,74.0
524,59.0,1,111,2.0,82.0
525,66.0,1,119,4.0,89.0
526,68.0,94,94,0.0,76.0
527,68.0,16,96,4.0,74.0
528,70.0,15,64,4.0,58.0
529,70.0,109,84,0.0,64.0
530,49.0,2,90,3.0,72.0
531,64.0,2,85,1.0,78.0
532,61.0,8,104,2.0,85.0
533,66.0,82,58,0.0,64.0
534,66.0,20,65,4.0,63.0
535,62.0,9,94,1.0,82.0
536,47.0,6,127,3.0,80.0
537,54.0,0,127,2.0,70.0
538,59.0,219,84,3.0,60.0
539,66.0,5,89,1.0,74.0
540,62.0,12,81,2.0,70.0
541,61.0,94,75,3.0,63.0
542,64.0,8,78,2.0,78.0
543,71.0,4,506,4.0,68.0
544,71.0,119,530,0.0,76.0
545,62.0,111,108,3.0,85.0
546,66.0,83,96,4.0,60.0
547,66.0,23,84,0.0,66.0
548,64.0,90,90,4.0,78.0
549,64.0,25,82,0.0,85.0
550,61.0,2,86,3.0,51.0
551,66.0,84,87,4.0,56.0
552,66.0,21,77,0.0,62.0
553,71.0,15,497,1.0,85.0
554,66.0,10,517,2.0,82.0
555,59.0,114,92,3.0,59.0
556,66.0,87,94,1.0,63.0
557,62.0,9,96,2.0,76.0
558,61.0,0,76,2.0,63.0
559,64.0,110,90,1.0,76.0
560,61.0,4,101,3.0,57.0
561,66.0,113,94,1.0,66.0
562,59.0,0,102,2.0,74.0
563,74.0,19,513,4.0,85.0
564,74.0,13,517,0.0,87.0
565,62.0,127,105,3.0,85.0
566,66.0,10,117,2.0,85.0
567,71.0,99,93,4.0,70.0
568,71.0,14,102,0.0,70.0
569,70.0,100,75,4.0,62.0
570,70.0,19,67,0.0,70.0
571,61.0,2,115,3.0,60.0
572,64.0,0,115,2.0,82.0
573,71.0,88,79,4.0,85.0
574,71.0,25,83,0.0,76.0
575,71.0,15,536,1.0,87.0
576,62.0,123,113,2.0,80.0
577,59.0,9,108,3.0,70.0
578,61.0,87,111,2.0,64.0
579,69.0,17,121,1.0,72.0
580,59.0,107,79,2.0,66.0
581,68.0,8,86,1.0,66.0
582,61.0,13,104,3.0,62.0
583,57.0,93,78,2.0,64.0
584,69.0,5,93,1.0,68.0
585,77.0,2,522,4.0,89.0
586,77.0,8,534,0.0,93.0
587,56.0,13,92,2.0,59.0
588,62.0,131,107,3.0,80.0
589,71.0,4,90,0.0,72.0
590,71.0,121,110,4.0,68.0
591,70.0,4,61,4.0,60.0
592,70.0,106,67,0.0,63.0
593,61.0,0,119,3.0,60.0
594,71.0,100,83,4.0,66.0
595,71.0,8,84,0.0,64.0
596,71.0,2,555,1.0,80.0
597,59.0,132,108,3.0,70.0
598,65.0,7,359,2.0,72.0
599,69.0,76,119,1.0,68.0
600,66.0,45,76,2.0,78.0
601,68.0,94,105,1.0,76.0
602,65.0,11,102,2.0,76.0
603,61.0,2,115,3.0,63.0
604,66.0,0,79,2.0,80.0
605,69.0,113,121,1.0,72.0
606,80.0,4,500,4.0,80.0
607,80.0,12,491,0.0,87.0
608,62.0,2,112,3.0,76.0
609,65.0,123,117,2.0,82.0
610,71.0,14,107,1.0,85.0
611,82.0,96,86,0.0,59.0
612,82.0,0,86,4.0,64.0
613,83.0,0,78,0.0,87.0
614,83.0,119,80,4.0,87.0
615,74.0,6,106,1.0,87.0
616,66.0,12,96,2.0,80.0
617,59.0,3,121,3.0,72.0
618,80.0,94,67,4.0,63.0
619,80.0,9,66,0.0,63.0
620,73.0,0,85,1.0,64.0
621,82.0,0,101,4.0,82.0
622,82.0,5,100,0.0,85.0
623,64.0,0,108,2.0,82.0
624,61.0,116,128,3.0,61.0
625,78.0,106,77,4.0,61.0
626,78.0,13,75,0.0,58.0
627,62.0,2,111,3.0,78.0
628,66.0,6,100,2.0,82.0
629,83.0,4,111,0.0,89.0
630,83.0,7,125,4.0,85.0
631,81.0,106,78,4.0,76.0
632,81.0,9,69,0.0,78.0
633,79.0,6,67,4.0,66.0
634,71.0,110,319,1.0,80.0
635,79.0,11,63,0.0,61.0
636,64.0,106,130,3.0,72.0
637,78.0,16,55,0.0,57.0
638,78.0,94,77,4.0,63.0
639,74.0,13,104,1.0,80.0
640,73.0,9,86,1.0,72.0
641,62.0,0,105,3.0,82.0
642,71.0,81,102,1.0,80.0
643,76.0,4,244,0.0,68.0
644,76.0,102,278,4.0,61.0
645,67.0,2,518,2.0,82.0
646,70.0,151,96,1.0,64.0
647,61.0,4,128,3.0,64.0
648,74.0,1,83,0.0,82.0
649,74.0,22,103,4.0,82.0
650,66.0,94,135,2.0,64.0
651,73.0,8,73,0.0,63.0
652,73.0,2,86,4.0,60.0
653,64.0,98,103,2.0,70.0
654,62.0,13,112,3.0,80.0
655,71.0,6,62,0.0,80.0
656,71.0,6,69,4.0,64.0
657,66.0,88,87,2.0,76.0
658,70.0,115,102,2.0,74.0
659,73.0,10,96,0.0,74.0
660,64.0,6,100,3.0,85.0
661,79.0,2,355,1.0,87.0
662,73.0,7,131,4.0,89.0
663,74.0,94,87,0.0,76.0
664,71.0,0,104,2.0,72.0
665,74.0,20,107,4.0,78.0
666,76.0,4,73,4.0,66.0
667,76.0,103,87,0.0,82.0
668,49.0,13,100,3.0,78.0
669,73.0,2,148,2.0,85.0
670,70.0,8,62,4.0,57.0
671,70.0,94,83,0.0,61.0
672,78.0,6,334,1.0,70.0
673,66.0,111,116,2.0,72.0
674,50.0,0,125,3.0,82.0
675,71.0,15,120,0.0,64.0
676,71.0,7,122,4.0,82.0
677,71.0,10,96,1.0,82.0
678,67.0,228,111,2.0,87.0
679,52.0,2,113,3.0,72.0
680,79.0,11,100,0.0,89.0
681,79.0,0,108,4.0,85.0
682,78.0,8,53,0.0,89.0
683,78.0,106,61,4.0,68.0
684,66.0,4,105,2.0,78.0
685,71.0,2,115,1.0,82.0
686,54.0,107,123,3.0,78.0
687,76.0,5,112,0.0,80.0
688,76.0,3,122,4.0,80.0
689,74.0,0,63,4.0,68.0
690,74.0,103,63,0.0,61.0
691,64.0,121,108,2.0,76.0
692,42.0,0,105,3.0,89.0
693,73.0,2,107,4.0,85.0
694,73.0,2,111,0.0,98.0
695,70.0,6,119,1.0,70.0
696,71.0,97,68,4.0,70.0
697,71.0,8,75,0.0,60.0
698,47.0,125,109,3.0,87.0
699,54.0,223,98,3.0,78.0
700,62.0,1,511,2.0,78.0
701,66.0,10,529,1.0,85.0
702,71.0,0,537,4.0,72.0
703,71.0,10,530,0.0,76.0
704,59.0,246,276,3.0,85.0
705,69.0,238,96,4.0,78.0
706,69.0,30,83,0.0,82.0
707,69.0,221,84,1.0,82.0
708,50.0,5,112,3.0,80.0
709,66.0,12,103,2.0,59.0
710,52.0,6,92,3.0,85.0
711,67.0,88,100,2.0,68.0
712,74.0,231,526,0.0,85.0
713,74.0,4,537,4.0,82.0
714,69.0,123,111,2.0,85.0
715,54.0,4,126,3.0,82.0
716,76.0,107,71,0.0,66.0
717,76.0,4,81,4.0,76.0
718,78.0,102,75,0.0,72.0
719,78.0,0,77,4.0,74.0
720,52.0,5,94,3.0,68.0
721,67.0,2,98,2.0,64.0
722,79.0,100,77,0.0,87.0
723,79.0,12,73,4.0,82.0
724,74.0,23,537,1.0,89.0
725,66.0,4,115,2.0,66.0
726,81.0,115,123,0.0,102.0
727,50.0,4,126,3.0,72.0
728,81.0,5,123,4.0,102.0
729,79.0,96,87,0.0,76.0
730,79.0,20,84,4.0,76.0
731,71.0,11,94,1.0,82.0
732,78.0,83,88,0.0,57.0
733,69.0,5,85,1.0,64.0
734,67.0,1,98,2.0,78.0
735,52.0,16,99,3.0,64.0
736,78.0,6,94,4.0,52.0
737,76.0,89,82,0.0,61.0
738,76.0,17,83,4.0,60.0
739,67.0,0,104,1.0,74.0
740,74.0,2,92,0.0,70.0
741,66.0,117,106,1.0,62.0
742,54.0,8,107,3.0,72.0
743,74.0,7,110,4.0,64.0
744,69.0,10,113,2.0,87.0
745,67.0,75,79,1.0,82.0
746,67.0,40,90,2.0,85.0
747,72.0,10,84,0.0,66.0
748,72.0,3,89,4.0,63.0
749,66.0,0,95,2.0,85.0
750,52.0,6,96,3.0,68.0
751,64.0,94,100,2.0,80.0
752,71.0,3,90,0.0,70.0
753,71.0,7,93,4.0,72.0
754,66.0,142,106,2.0,70.0
755,51.0,1,124,3.0,68.0
756,69.0,100,421,1.0,82.0
757,76.0,3,78,0.0,72.0
758,76.0,2,80,4.0,72.0
759,67.0,226,105,1.0,72.0
760,52.0,5,98,3.0,80.0
761,71.0,13,106,2.0,85.0
762,66.0,230,88,1.0,72.0
763,75.0,4,82,4.0,72.0
764,69.0,4,100,2.0,82.0
765,75.0,3,93,0.0,78.0
766,54.0,2,107,3.0,66.0
767,78.0,3,79,1.0,78.0
768,81.0,226,89,0.0,82.0
769,81.0,8,81,4.0,76.0
770,51.0,5,100,3.0,66.0
771,78.0,208,55,1.0,85.0
772,81.0,5,70,0.0,95.0
773,81.0,14,69,4.0,78.0
774,76.0,15,75,1.0,78.0
775,79.0,21,77,0.0,66.0
776,52.0,10,118,3.0,78.0
777,79.0,10,78,4.0,70.0
778,78.0,26,69,1.0,66.0
779,81.0,20,61,0.0,72.0
780,71.0,0,392,2.0,91.0
781,81.0,19,57,4.0,66.0
782,76.0,9,91,1.0,78.0
783,79.0,24,90,0.0,68.0
784,79.0,19,78,4.0,68.0
785,75.0,36,87,1.0,76.0
786,78.0,14,84,0.0,68.0
787,78.0,7,85,4.0,62.0
788,69.0,16,88,2.0,80.0
789,54.0,2,115,3.0,64.0
790,79.0,90,54,4.0,87.0
791,79.0,2,52,0.0,87.0
792,76.0,7,81,4.0,68.0
793,76.0,12,130,0.0,78.0
794,71.0,12,119,2.0,85.0
795,55.0,11,114,3.0,82.0
796,71.0,14,75,4.0,63.0
797,71.0,71,98,0.0,53.0
798,69.0,9,83,2.0,82.0
799,76.0,0,65,0.0,74.0
800,67.0,114,73,2.0,80.0
801,76.0,7,73,4.0,70.0
802,54.0,16,107,3.0,57.0
803,78.0,3,75,0.0,78.0
804,78.0,12,71,4.0,66.0
805,69.0,85,86,2.0,85.0
806,76.0,113,570,1.0,82.0
807,71.0,117,105,2.0,93.0
808,52.0,0,105,3.0,64.0
809,79.0,5,116,0.0,82.0
810,79.0,10,106,4.0,91.0
811,81.0,100,69,0.0,64.0
812,81.0,6,73,4.0,63.0
813,70.0,109,88,1.0,70.0
814,78.0,5,78,4.0,68.0
815,78.0,7,83,0.0,66.0
816,62.0,0,108,2.0,82.0
817,54.0,7,112,3.0,62.0
818,79.0,96,58,0.0,64.0
819,79.0,8,58,4.0,72.0
820,76.0,3,85,4.0,76.0
821,59.0,2,98,2.0,76.0
822,76.0,2,101,0.0,64.0
823,55.0,2,119,3.0,82.0
824,78.0,108,54,0.0,47.0
825,78.0,4,57,4.0,53.0
826,66.0,111,106,2.0,76.0
827,54.0,3,102,3.0,63.0
828,74.0,10,107,4.0,85.0
829,74.0,2,125,0.0,72.0
830,76.0,2,69,4.0,66.0
831,76.0,100,73,0.0,70.0
832,71.0,123,566,1.0,76.0
833,73.0,0,98,4.0,89.0
834,67.0,133,109,2.0,80.0
835,52.0,7,118,3.0,70.0
836,73.0,2,116,0.0,72.0
837,73.0,110,81,1.0,68.0
838,82.0,2,76,4.0,68.0
839,74.0,111,96,1.0,76.0
840,82.0,9,83,0.0,76.0
841,66.0,6,115,2.0,68.0
842,54.0,10,117,3.0,63.0
843,76.0,90,83,1.0,80.0
844,83.0,10,75,0.0,85.0
845,83.0,0,75,4.0,87.0
846,59.0,4,112,2.0,78.0
847,74.0,133,121,1.0,89.0
848,55.0,5,122,3.0,80.0
849,73.0,96,85,1.0,62.0
850,66.0,15,94,2.0,80.0
851,71.0,106,115,1.0,70.0
852,54.0,15,110,3.0,64.0
853,69.0,75,73,1.0,76.0
854,71.0,2,88,2.0,87.0
855,67.0,137,120,1.0,68.0
856,74.0,6,348,0.0,85.0
857,52.0,16,112,3.0,66.0
858,74.0,8,349,4.0,82.0
859,66.0,90,87,1.0,66.0
860,73.0,17,74,0.0,57.0
861,64.0,123,92,1.0,64.0
862,73.0,0,75,4.0,57.0
863,70.0,9,84,2.0,78.0
864,54.0,2,125,3.0,66.0
865,74.0,8,70,0.0,76.0
866,62.0,91,78,1.0,66.0
867,74.0,0,71,4.0,78.0
868,61.0,129,88,1.0,98.0
869,76.0,6,105,4.0,89.0
870,71.0,8,104,2.0,85.0
871,55.0,3,125,3.0,76.0
872,76.0,0,131,0.0,95.0
873,59.0,92,92,1.0,70.0
874,74.0,11,75,4.0,70.0
875,74.0,8,88,0.0,72.0
876,73.0,4,90,0.0,57.0
877,67.0,6,90,1.0,87.0
878,73.0,7,94,4.0,56.0
879,52.0,100,133,3.0,60.0
880,64.0,37,102,2.0,80.0
881,71.0,48,92,0.0,62.0
882,71.0,23,73,4.0,60.0
883,70.0,123,107,0.0,89.0
884,70.0,1,109,4.0,91.0
885,61.0,1,110,2.0,72.0
886,54.0,5,118,3.0,68.0
887,71.0,98,98,0.0,74.0
888,71.0,10,105,4.0,70.0
889,73.0,117,65,0.0,57.0
890,73.0,4,59,4.0,53.0
891,52.0,6,115,3.0,70.0
892,58.0,1,112,2.0,68.0
893,70.0,2,57,4.0,63.0
894,70.0,110,75,0.0,58.0
895,66.0,4,553,1.0,76.0
896,59.0,0,106,2.0,85.0
897,66.0,0,114,4.0,98.0
898,66.0,130,119,0.0,98.0
899,50.0,10,115,3.0,80.0
900,68.0,102,90,4.0,70.0
901,68.0,0,94,0.0,66.0
902,70.0,1,66,4.0,66.0
903,70.0,115,77,0.0,59.0
904,64.0,0,92,1.0,64.0
905,61.0,6,104,2.0,87.0
906,49.0,12,110,3.0,76.0
907,66.0,92,52,0.0,61.0
908,66.0,18,61,4.0,62.0
909,62.0,113,90,1.0,72.0
910,54.0,6,121,2.0,80.0
911,47.0,0,148,3.0,82.0
912,59.0,223,94,3.0,66.0
913,66.0,7,102,1.0,85.0
914,62.0,16,88,2.0,80.0
915,61.0,82,83,3.0,64.0
916,64.0,25,81,2.0,76.0
917,71.0,4,511,4.0,78.0
918,71.0,9,523,0.0,76.0
919,62.0,106,129,3.0,89.0
920,66.0,3,95,4.0,62.0
921,66.0,87,115,0.0,61.0
922,64.0,106,83,4.0,78.0
923,64.0,7,103,0.0,66.0
924,61.0,33,104,3.0,62.0
925,66.0,79,69,4.0,74.0
926,66.0,6,75,0.0,66.0
927,66.0,0,490,2.0,87.0
928,71.0,15,522,1.0,80.0
929,59.0,6,106,3.0,68.0
930,62.0,96,101,2.0,80.0
931,66.0,15,106,1.0,64.0
932,61.0,98,83,2.0,78.0
933,64.0,8,80,1.0,60.0
934,61.0,17,104,3.0,63.0
935,66.0,8,84,1.0,87.0
936,59.0,92,102,2.0,80.0
937,74.0,4,485,0.0,85.0
938,74.0,140,541,4.0,91.0
939,66.0,132,117,2.0,87.0
940,62.0,0,119,3.0,82.0
941,71.0,16,98,4.0,76.0
942,71.0,111,119,0.0,68.0
943,70.0,94,73,0.0,60.0
944,70.0,2,78,4.0,61.0
945,61.0,15,110,3.0,62.0
946,64.0,10,109,2.0,82.0
947,71.0,92,72,0.0,70.0
948,71.0,6,69,4.0,76.0
949,71.0,4,540,1.0,85.0
950,59.0,119,111,3.0,66.0
951,62.0,2,98,2.0,85.0
952,69.0,102,107,1.0,68.0
953,61.0,5,105,2.0,68.0
954,68.0,0,82,1.0,80.0
955,61.0,9,117,3.0,64.0
956,59.0,110,139,2.0,82.0
957,57.0,98,91,2.0,60.0
958,69.0,12,87,1.0,66.0
959,77.0,15,504,0.0,91.0
960,77.0,4,536,4.0,93.0
961,56.0,17,81,2.0,68.0
962,62.0,0,117,3.0,82.0
963,71.0,114,113,0.0,68.0
964,71.0,2,119,4.0,72.0
965,70.0,99,79,0.0,57.0
966,70.0,4,79,4.0,64.0
967,61.0,5,116,3.0,62.0
968,71.0,3,73,4.0,64.0
969,71.0,105,76,0.0,64.0
970,71.0,136,517,1.0,80.0
971,65.0,14,326,2.0,78.0
972,59.0,131,112,3.0,74.0
973,69.0,93,90,1.0,74.0
974,66.0,17,87,2.0,74.0
975,68.0,92,88,1.0,68.0
976,65.0,25,69,2.0,89.0
977,61.0,13,123,3.0,57.0
978,66.0,8,76,2.0,87.0
979,69.0,87,94,1.0,85.0
980,80.0,1,513,0.0,78.0
981,80.0,0,528,4.0,80.0
982,71.0,8,106,1.0,82.0
983,65.0,124,120,2.0,93.0
984,62.0,19,106,3.0,85.0
985,82.0,104,79,4.0,68.0
986,82.0,17,92,0.0,68.0
987,83.0,98,81,4.0,87.0
988,83.0,7,81,0.0,80.0
989,66.0,3,96,2.0,82.0
990,74.0,1,104,1.0,85.0
991,59.0,6,121,3.0,80.0
992,80.0,104,62,4.0,61.0
993,80.0,19,56,0.0,64.0
994,73.0,7,79,1.0,74.0
995,82.0,110,96,4.0,85.0
996,64.0,2,99,2.0,80.0
997,82.0,6,92,0.0,87.0
998,61.0,0,125,3.0,61.0
999,78.0,10,76,0.0,60.0
1000,78.0,100,88,4.0,63.0
1001,83.0,1,101,0.0,91.0
1002,62.0,0,110,3.0,80.0
1003,66.0,122,116,2.0,72.0
1004,83.0,4,125,4.0,87.0
1005,81.0,114,69,0.0,74.0
1006,81.0,0,71,4.0,76.0
1007,71.0,2,298,1.0,82.0
1008,79.0,2,67,0.0,64.0
1009,79.0,0,73,4.0,63.0
1010,64.0,8,108,3.0,74.0
1011,78.0,98,75,0.0,64.0
1012,78.0,8,72,4.0,54.0
1013,74.0,12,96,1.0,80.0
1014,73.0,0,85,1.0,58.0
1015,62.0,2,108,3.0,80.0
1016,71.0,85,103,1.0,63.0
1017,76.0,108,255,0.0,70.0
1018,76.0,8,269,4.0,76.0
1019,67.0,121,517,2.0,82.0
1020,70.0,2,90,1.0,66.0
1021,61.0,153,152,3.0,63.0
1022,66.0,110,97,2.0,82.0
1023,74.0,11,94,0.0,82.0
1024,74.0,0,98,4.0,85.0
1025,73.0,2,85,4.0,63.0
1026,73.0,0,79,0.0,57.0
1027,64.0,100,100,2.0,80.0
1028,62.0,6,106,3.0,78.0
1029,71.0,96,65,4.0,66.0
1030,71.0,2,75,0.0,68.0
1031,66.0,8,80,2.0,78.0
1032,70.0,5,100,2.0,85.0
1033,79.0,9,356,1.0,87.0
1034,73.0,2,110,0.0,85.0
1035,73.0,125,121,4.0,87.0
1036,64.0,10,106,3.0,78.0
1037,74.0,2,90,0.0,72.0
1038,74.0,94,92,4.0,78.0
1039,71.0,2,102,2.0,82.0
1040,76.0,117,77,4.0,82.0
1041,76.0,2,82,0.0,68.0
1042,49.0,16,94,3.0,82.0
1043,73.0,7,112,2.0,91.0
1044,70.0,2,73,4.0,68.0
1045,70.0,80,75,0.0,63.0
1046,78.0,6,309,1.0,66.0
1047,66.0,129,100,2.0,82.0
1048,71.0,0,107,0.0,66.0
1049,71.0,2,113,4.0,57.0
1050,50.0,2,124,3.0,80.0
1051,67.0,235,93,2.0,85.0
1052,71.0,2,85,1.0,80.0
1053,79.0,1,103,4.0,85.0
1054,52.0,10,114,3.0,85.0
1055,79.0,6,110,0.0,87.0
1056,78.0,99,59,0.0,80.0
1057,78.0,6,63,4.0,63.0
1058,71.0,5,86,1.0,80.0
1059,66.0,121,104,2.0,70.0
1060,54.0,3,108,3.0,76.0
1061,76.0,3,107,4.0,82.0
1062,76.0,0,120,0.0,78.0
1063,74.0,4,58,4.0,66.0
1064,74.0,96,64,0.0,68.0
1065,70.0,123,73,1.0,78.0
1066,64.0,2,92,2.0,85.0
1067,73.0,5,93,4.0,89.0
1068,73.0,2,101,0.0,82.0
1069,42.0,0,102,3.0,82.0
1070,71.0,7,66,4.0,70.0
1071,71.0,95,78,0.0,60.0
1072,47.0,140,89,3.0,98.0
1073,54.0,246,94,3.0,76.0
1074,71.0,0,499,4.0,76.0
1075,71.0,2,517,0.0,68.0
1076,62.0,2,515,2.0,82.0
1077,66.0,0,530,1.0,70.0
1078,59.0,244,246,3.0,85.0
1079,71.0,230,83,4.0,82.0
1080,66.0,17,119,1.0,58.0
1081,62.0,8,125,2.0,82.0
1082,70.0,59,77,4.0,57.0
1083,61.0,13,96,2.0,58.0
1084,64.0,29,129,1.0,61.0
1085,71.0,89,115,4.0,80.0
1086,66.0,12,340,0.0,59.0
1087,66.0,1,116,1.0,57.0
1088,62.0,31,120,2.0,51.0
1089,73.0,73,116,4.0,59.0
1090,74.0,129,102,4.0,68.0
1091,59.0,17,103,3.0,74.0
1092,78.0,68,71,4.0,60.0
1093,76.0,121,78,4.0,62.0
1094,55.0,30,81,3.0,68.0
1095,71.0,21,306,0.0,70.0
1096,74.0,85,69,4.0,68.0
1097,73.0,121,77,4.0,56.0
1098,52.0,12,84,3.0,66.0
1099,71.0,88,77,4.0,57.0
1100,79.0,17,326,0.0,68.0
1101,70.0,142,134,4.0,85.0
1102,71.0,93,123,4.0,64.0
1103,70.0,130,91,4.0,58.0
1104,66.0,2,98,2.0,78.0
1105,73.0,4,94,0.0,63.0
1106,73.0,15,133,1.0,82.0
1107,71.0,81,75,4.0,64.0
1108,74.0,17,125,1.0,74.0
1109,54.0,11,480,3.0,60.0
1110,73.0,117,93,4.0,55.0
1111,76.0,8,90,1.0,70.0
1112,64.0,0,94,2.0,78.0
1113,70.0,8,94,0.0,59.0
1114,66.0,101,68,4.0,70.0
1115,71.0,2,104,4.0,55.0
1116,62.0,133,115,2.0,76.0
1117,66.0,2,123,1.0,63.0
1118,70.0,7,80,4.0,52.0
1119,61.0,90,113,2.0,60.0
1120,64.0,16,111,1.0,70.0
1121,66.0,4,305,0.0,54.0
1122,62.0,113,129,2.0,55.0
1123,66.0,6,123,1.0,60.0
1124,71.0,8,119,4.0,82.0
1125,73.0,113,96,4.0,59.0
1126,59.0,14,77,3.0,78.0
1127,74.0,2,115,4.0,64.0
1128,78.0,94,61,4.0,60.0
1129,71.0,109,315,0.0,64.0
1130,76.0,123,88,4.0,66.0
1131,55.0,30,75,3.0,76.0
1132,74.0,79,81,4.0,64.0
1133,73.0,127,77,4.0,57.0
1134,79.0,8,84,0.0,74.0
1135,52.0,15,92,3.0,66.0
1136,71.0,104,78,4.0,60.0
1137,66.0,247,104,2.0,78.0
1138,70.0,2,109,1.0,78.0
1139,68.0,90,119,2.0,64.0
1140,78.0,140,474,4.0,62.0
1141,71.0,4,129,1.0,68.0
1142,70.0,2,491,0.0,55.0
1143,70.0,121,109,2.0,57.0
1144,73.0,17,93,1.0,59.0
1145,54.0,10,656,3.0,70.0
1146,71.0,0,102,4.0,68.0
1147,62.0,9,110,2.0,70.0
1148,66.0,15,105,1.0,66.0
1149,70.0,80,73,4.0,58.0
1150,61.0,7,100,2.0,70.0
1151,64.0,8,115,1.0,64.0
1152,66.0,223,345,0.0,47.0
1153,71.0,115,123,4.0,80.0
1154,62.0,0,127,2.0,52.0
1155,66.0,8,119,1.0,55.0
1156,73.0,111,117,4.0,60.0
1157,59.0,10,79,3.0,78.0
1158,74.0,117,121,4.0,60.0
1159,78.0,71,56,4.0,59.0
1160,76.0,130,87,4.0,61.0
1161,71.0,25,327,0.0,59.0
1162,55.0,43,78,3.0,68.0
1163,74.0,71,71,4.0,64.0
1164,73.0,125,74,4.0,56.0
1165,52.0,19,92,3.0,66.0
1166,71.0,75,84,4.0,61.0
1167,79.0,17,315,0.0,68.0
1168,70.0,140,127,4.0,76.0
1169,71.0,92,79,4.0,59.0
1170,73.0,121,87,0.0,57.0
1171,70.0,2,98,4.0,57.0
1172,73.0,7,132,1.0,62.0
1173,66.0,28,160,2.0,68.0
1174,71.0,75,92,4.0,57.0
1175,74.0,28,118,1.0,74.0
1176,54.0,21,484,3.0,64.0
1177,73.0,98,97,4.0,58.0
1178,70.0,10,88,0.0,54.0
1179,64.0,7,93,2.0,68.0
1180,76.0,3,101,1.0,66.0
1181,66.0,101,81,4.0,66.0
1182,71.0,7,104,4.0,51.0
1183,66.0,0,114,1.0,63.0
1184,62.0,7,115,2.0,72.0
1185,70.0,6,79,4.0,53.0
1186,61.0,99,117,2.0,66.0
1187,64.0,0,111,1.0,68.0
1188,66.0,133,309,0.0,60.0
1189,62.0,4,113,2.0,64.0
1190,66.0,119,125,1.0,59.0
1191,71.0,11,121,4.0,76.0
1192,73.0,112,94,4.0,57.0
1193,59.0,5,83,3.0,76.0
1194,74.0,109,109,4.0,56.0
1195,78.0,91,52,4.0,59.0
1196,76.0,123,78,4.0,66.0
1197,71.0,8,305,0.0,68.0
1198,55.0,23,71,3.0,82.0
1199,74.0,88,71,4.0,60.0
1200,73.0,129,73,4.0,56.0
1201,79.0,11,79,0.0,72.0
1202,52.0,12,88,3.0,68.0
1203,71.0,96,80,4.0,60.0
1204,66.0,242,109,2.0,68.0
1205,70.0,0,117,1.0,68.0
1206,78.0,4,451,4.0,63.0
1207,68.0,94,130,2.0,59.0
1208,71.0,11,129,1.0,70.0
1209,70.0,138,530,0.0,62.0
1210,70.0,113,129,2.0,57.0
1211,73.0,14,117,1.0,57.0
1212,54.0,2,593,3.0,80.0
1213,73.0,4,94,4.0,66.0
1214,78.0,3,101,1.0,66.0
1215,66.0,255,123,2.0,72.0
1216,71.0,17,92,4.0,68.0
1217,68.0,65,143,2.0,63.0
1218,76.0,24,142,1.0,52.0
1219,70.0,16,336,0.0,61.0
1220,73.0,23,102,4.0,78.0
1221,70.0,86,171,2.0,63.0
1222,78.0,21,156,1.0,52.0
1223,74.0,102,119,4.0,56.0
1224,61.0,2,77,3.0,62.0
1225,76.0,127,90,4.0,61.0
1226,79.0,105,85,4.0,68.0
1227,58.0,2,67,3.0,66.0
1228,79.0,8,314,0.0,80.0
1229,78.0,123,106,4.0,57.0
1230,76.0,109,91,4.0,55.0
1231,54.0,7,62,3.0,62.0
1232,74.0,120,107,4.0,56.0
1233,73.0,98,73,4.0,52.0
1234,78.0,8,315,0.0,57.0
1235,74.0,126,135,4.0,74.0
1236,73.0,91,115,4.0,52.0
1237,74.0,117,86,0.0,61.0
1238,71.0,7,100,4.0,57.0
1239,78.0,8,117,1.0,64.0
1240,62.0,4,117,2.0,76.0
1241,73.0,13,94,4.0,34.0
1242,76.0,93,118,1.0,74.0
1243,64.0,5,130,2.0,70.0
1244,59.0,25,482,3.0,60.0
1245,74.0,115,68,1.0,63.0
1246,66.0,0,68,2.0,76.0
1247,71.0,0,81,0.0,68.0
1248,74.0,6,110,4.0,55.0
1249,76.0,110,90,4.0,61.0
1250,78.0,117,92,4.0,55.0
1251,71.0,7,95,1.0,70.0
1252,71.0,10,85,2.0,70.0
1253,74.0,90,75,4.0,53.0
1254,74.0,10,274,0.0,68.0
1255,76.0,132,129,4.0,82.0
1256,67.0,8,140,2.0,60.0
1257,83.0,6,240,1.0,70.0
1258,78.0,98,174,4.0,53.0
1259,64.0,23,78,3.0,82.0
1260,79.0,121,113,4.0,53.0
1261,83.0,98,157,4.0,68.0
1262,81.0,128,79,4.0,63.0
1263,61.0,14,84,3.0,58.0
1264,83.0,4,338,0.0,64.0
1265,79.0,103,112,4.0,54.0
1266,57.0,0,81,3.0,64.0
1267,78.0,121,102,4.0,48.0
1268,76.0,123,61,4.0,52.0
1269,81.0,2,325,0.0,63.0
1270,78.0,117,136,4.0,85.0
1271,76.0,107,112,4.0,66.0
1272,78.0,114,92,0.0,55.0
1273,74.0,7,92,4.0,59.0
1274,74.0,8,109,1.0,66.0
1275,66.0,6,119,2.0,70.0
1276,76.0,8,74,4.0,51.0
1277,73.0,4,117,1.0,56.0
1278,67.0,90,127,2.0,70.0
1279,62.0,8,480,3.0,66.0
1280,69.0,107,90,2.0,74.0
1281,74.0,6,84,1.0,63.0
1282,74.0,11,75,0.0,57.0
1283,78.0,6,94,4.0,53.0
1284,79.0,100,98,4.0,59.0
1285,81.0,115,102,4.0,57.0
1286,60.0,15,96,2.0,68.0
1287,78.0,86,83,4.0,52.0
1288,78.0,2,317,0.0,55.0
1289,75.0,133,96,4.0,80.0
1290,69.0,8,369,1.0,59.0
1291,59.0,25,142,2.0,70.0
1292,76.0,86,112,4.0,60.0
1293,78.0,114,107,4.0,35.0
1294,47.0,11,89,3.0,68.0
1295,84.0,85,109,4.0,57.0
1296,81.0,23,315,0.0,72.0
1297,83.0,128,108,4.0,57.0
1298,49.0,25,85,3.0,64.0
1299,81.0,98,108,4.0,58.0
1300,79.0,110,103,4.0,50.0
1301,71.0,25,82,0.0,64.0
1302,51.0,7,94,3.0,64.0
1303,78.0,96,81,4.0,58.0
1304,76.0,11,87,0.0,70.0
1305,79.0,129,125,4.0,85.0
1306,78.0,94,117,4.0,59.0
1307,76.0,131,92,4.0,57.0
1308,76.0,7,112,1.0,68.0
1309,73.0,11,150,2.0,82.0
1310,79.0,12,100,4.0,63.0
1311,71.0,13,100,2.0,78.0
1312,52.0,8,463,3.0,62.0
1313,74.0,80,156,1.0,68.0
1314,79.0,7,288,0.0,78.0
1315,78.0,100,100,4.0,51.0
1316,73.0,27,81,1.0,57.0
1317,70.0,4,86,2.0,66.0
1318,76.0,84,100,4.0,50.0
1319,78.0,7,73,1.0,70.0
1320,66.0,6,79,2.0,64.0
1321,74.0,135,98,4.0,52.0
1322,70.0,2,119,0.0,62.0
1323,73.0,88,85,4.0,62.0
1324,71.0,2,86,0.0,70.0
1325,74.0,5,142,4.0,89.0
1326,71.0,141,220,2.0,64.0
1327,76.0,115,117,4.0,74.0
1328,74.0,6,273,1.0,68.0
1329,50.0,12,72,3.0,68.0
1330,78.0,121,85,4.0,56.0
1331,71.0,98,71,4.0,64.0
1332,83.0,0,263,0.0,72.0
1333,52.0,18,84,3.0,80.0
1334,74.0,122,112,4.0,68.0
1335,73.0,94,94,4.0,53.0
1336,74.0,117,71,0.0,66.0
1337,54.0,23,87,3.0,70.0
1338,73.0,34,62,0.0,53.0
1339,71.0,4,121,4.0,63.0
1340,74.0,50,81,0.0,63.0
1341,70.0,6,94,4.0,57.0
1342,73.0,58,75,0.0,57.0
1343,59.0,204,117,2.0,68.0
1344,62.0,9,116,1.0,70.0
1345,61.0,77,122,2.0,72.0
1346,64.0,17,135,1.0,68.0
1347,71.0,78,498,4.0,63.0
1348,71.0,10,499,0.0,52.0
1349,47.0,19,488,3.0,63.0
1350,62.0,114,105,2.0,60.0
1351,66.0,15,117,1.0,60.0
1352,73.0,0,100,4.0,60.0
1353,78.0,2,121,1.0,80.0
1354,66.0,0,129,2.0,76.0
1355,71.0,8,75,4.0,53.0
1356,68.0,2,132,2.0,59.0
1357,76.0,96,154,1.0,66.0
1358,70.0,261,323,0.0,58.0
1359,73.0,8,102,4.0,82.0
1360,70.0,113,140,2.0,59.0
1361,78.0,15,152,1.0,54.0
1362,74.0,106,130,4.0,58.0
1363,61.0,6,83,3.0,64.0
1364,76.0,122,106,4.0,56.0
1365,79.0,106,98,4.0,70.0
1366,58.0,5,87,3.0,70.0
1367,78.0,123,98,4.0,46.0
1368,79.0,2,344,0.0,78.0
1369,76.0,94,112,4.0,53.0
1370,74.0,135,96,4.0,51.0
1371,54.0,11,85,3.0,62.0
1372,73.0,110,78,4.0,57.0
1373,78.0,2,332,0.0,58.0
1374,74.0,123,157,4.0,80.0
1375,73.0,113,111,4.0,54.0
1376,74.0,0,79,0.0,66.0
1377,78.0,115,113,1.0,68.0
1378,71.0,10,107,4.0,60.0
1379,62.0,6,105,2.0,74.0
1380,64.0,3,113,2.0,70.0
1381,76.0,87,116,1.0,60.0
1382,73.0,19,114,4.0,48.0
1383,59.0,23,503,3.0,66.0
1384,66.0,86,93,2.0,60.0
1385,71.0,6,81,0.0,70.0
1386,74.0,21,96,1.0,68.0
1387,74.0,12,103,4.0,57.0
1388,76.0,113,111,4.0,55.0
1389,71.0,100,94,2.0,66.0
1390,71.0,6,84,1.0,74.0
1391,78.0,17,98,4.0,48.0
1392,74.0,103,69,4.0,57.0
1393,74.0,6,280,0.0,70.0
1394,76.0,0,140,4.0,89.0
1395,67.0,129,148,2.0,63.0
1396,78.0,92,131,4.0,60.0
1397,83.0,17,246,1.0,66.0
1398,64.0,4,71,3.0,80.0
1399,79.0,129,110,4.0,61.0
1400,83.0,101,116,4.0,59.0
1401,81.0,121,85,4.0,66.0
1402,83.0,8,317,0.0,66.0
1403,61.0,12,83,3.0,63.0
1404,79.0,105,96,4.0,53.0
1405,57.0,15,65,3.0,70.0
1406,78.0,102,100,4.0,33.0
1407,76.0,97,71,4.0,60.0
1408,81.0,12,341,0.0,60.0
1409,78.0,128,148,4.0,85.0
1410,76.0,85,104,4.0,68.0
1411,78.0,5,92,0.0,57.0
1412,74.0,129,113,4.0,57.0
1413,66.0,10,121,2.0,80.0
1414,74.0,10,119,1.0,82.0
1415,76.0,86,92,4.0,58.0
1416,67.0,8,121,2.0,70.0
1417,73.0,0,128,1.0,61.0
1418,62.0,30,486,3.0,68.0
1419,74.0,15,75,0.0,68.0
1420,69.0,2,90,2.0,70.0
1421,74.0,2,79,1.0,78.0
1422,78.0,115,109,4.0,57.0
1423,79.0,104,82,4.0,64.0
1424,81.0,0,94,4.0,70.0
1425,60.0,13,90,2.0,59.0
1426,78.0,88,79,4.0,51.0
1427,78.0,119,297,0.0,57.0
1428,75.0,139,107,4.0,87.0
1429,59.0,23,149,2.0,66.0
1430,69.0,2,403,1.0,59.0
1431,76.0,73,132,4.0,76.0
1432,78.0,123,107,4.0,58.0
1433,47.0,30,83,3.0,68.0
1434,84.0,94,121,4.0,60.0
1435,81.0,4,317,0.0,74.0
1436,49.0,15,89,3.0,58.0
1437,83.0,125,104,4.0,60.0
1438,81.0,98,110,4.0,52.0
1439,79.0,127,81,4.0,58.0
1440,71.0,7,73,0.0,70.0
1441,51.0,14,80,3.0,66.0
1442,78.0,100,86,4.0,48.0
1443,76.0,6,77,0.0,64.0
1444,79.0,2,123,4.0,78.0
1445,78.0,113,108,4.0,53.0
1446,76.0,119,98,4.0,58.0
1447,76.0,4,117,1.0,80.0
1448,73.0,4,165,2.0,76.0
1449,79.0,4,92,4.0,60.0
1450,71.0,25,110,2.0,68.0
1451,74.0,82,148,1.0,58.0
1452,52.0,134,507,3.0,70.0
1453,79.0,8,294,0.0,78.0
1454,70.0,2,87,2.0,66.0
1455,78.0,111,110,4.0,46.0
1456,73.0,2,114,1.0,58.0
1457,76.0,114,101,4.0,47.0
1458,78.0,124,73,1.0,70.0
1459,66.0,0,87,2.0,59.0
1460,74.0,6,111,4.0,34.0
1461,70.0,6,119,0.0,60.0
1462,73.0,105,100,4.0,56.0
1463,71.0,8,88,0.0,72.0
1464,74.0,4,132,4.0,66.0
1465,71.0,125,181,2.0,63.0
1466,76.0,123,119,4.0,72.0
1467,74.0,2,284,1.0,68.0
1468,50.0,105,87,3.0,76.0
1469,78.0,12,86,4.0,55.0
1470,71.0,100,113,4.0,63.0
1471,83.0,0,285,0.0,66.0
1472,52.0,134,77,3.0,78.0
1473,74.0,10,117,4.0,59.0
1474,73.0,122,73,4.0,57.0
1475,74.0,85,67,0.0,66.0
1476,54.0,15,70,3.0,72.0
1477,73.0,21,84,0.0,61.0
1478,71.0,18,110,4.0,66.0
1479,74.0,55,79,0.0,64.0
1480,70.0,21,85,4.0,74.0
1481,73.0,50,56,0.0,52.0
1482,59.0,14,102,2.0,68.0
1483,62.0,224,121,1.0,68.0
1484,71.0,4,445,4.0,68.0
1485,64.0,82,129,1.0,68.0
1486,61.0,8,121,2.0,72.0
1487,71.0,8,472,0.0,52.0
1488,47.0,77,526,3.0,59.0
1489,62.0,8,131,2.0,60.0
1490,66.0,111,152,1.0,61.0
1491,66.0,264,63,0.0,85.0
1492,66.0,10,71,4.0,82.0
1493,62.0,216,90,2.0,85.0
1494,66.0,19,66,1.0,82.0
1495,59.0,5,90,3.0,74.0
1496,61.0,8,69,3.0,62.0
1497,64.0,75,81,2.0,80.0
1498,71.0,238,503,0.0,82.0
1499,71.0,7,519,4.0,80.0
1500,66.0,121,98,2.0,85.0
1501,62.0,9,112,3.0,80.0
1502,73.0,79,94,0.0,80.0
1503,73.0,21,88,4.0,63.0
1504,74.0,0,73,4.0,80.0
1505,74.0,84,95,0.0,80.0
1506,64.0,18,78,2.0,74.0
1507,61.0,0,94,3.0,62.0
1508,76.0,92,81,0.0,78.0
1509,76.0,6,78,4.0,74.0
1510,71.0,33,474,1.0,85.0
1511,78.0,8,67,4.0,85.0
1512,62.0,121,92,2.0,82.0
1513,78.0,5,93,0.0,82.0
1514,59.0,6,90,3.0,70.0
1515,64.0,232,77,2.0,80.0
1516,70.0,2,75,0.0,66.0
1517,70.0,2,75,4.0,66.0
1518,61.0,2,90,3.0,64.0
1519,79.0,6,94,1.0,91.0
1520,71.0,4,68,0.0,80.0
1521,78.0,7,91,1.0,80.0
1522,62.0,236,98,3.0,85.0
1523,71.0,4,83,4.0,72.0
1524,76.0,7,79,0.0,80.0
1525,76.0,2,83,4.0,74.0
1526,70.0,0,92,1.0,66.0
1527,61.0,229,97,3.0,63.0
1528,71.0,0,87,1.0,80.0
1529,74.0,12,82,0.0,85.0
1530,59.0,238,102,3.0,74.0
1531,74.0,2,98,4.0,80.0
1532,66.0,2,594,2.0,70.0
1533,79.0,6,82,0.0,87.0
1534,61.0,230,102,3.0,63.0
1535,79.0,5,85,4.0,80.0
1536,64.0,4,101,1.0,89.0
1537,70.0,2,101,2.0,68.0
1538,78.0,227,102,0.0,70.0
1539,62.0,4,103,3.0,82.0
1540,71.0,6,99,2.0,85.0
1541,78.0,0,96,4.0,64.0
1542,62.0,5,104,1.0,87.0
1543,82.0,5,65,4.0,76.0
1544,82.0,222,84,0.0,82.0
1545,61.0,0,94,3.0,63.0
1546,76.0,2,105,1.0,82.0
1547,73.0,7,98,2.0,82.0
1548,66.0,5,95,2.0,85.0
1549,59.0,8,105,3.0,70.0
1550,74.0,2,117,1.0,78.0
1551,83.0,225,192,0.0,89.0
1552,83.0,2,189,4.0,82.0
1553,81.0,0,80,4.0,80.0
1554,81.0,219,101,0.0,80.0
1555,61.0,10,98,3.0,66.0
1556,64.0,2,102,2.0,80.0
1557,76.0,4,99,1.0,76.0
1558,79.0,90,73,0.0,72.0
1559,79.0,11,66,4.0,66.0
1560,78.0,7,102,4.0,66.0
1561,78.0,110,109,0.0,85.0
1562,78.0,12,90,1.0,76.0
1563,62.0,4,96,2.0,78.0
1564,62.0,2,109,3.0,80.0
1565,79.0,6,58,4.0,64.0
1566,79.0,84,71,0.0,76.0
1567,76.0,117,94,0.0,80.0
1568,70.0,6,88,1.0,66.0
1569,76.0,8,98,4.0,76.0
1570,64.0,2,88,2.0,85.0
1571,61.0,7,94,3.0,61.0
1572,78.0,2,62,4.0,57.0
1573,78.0,90,71,0.0,49.0
1574,66.0,13,79,2.0,80.0
1575,74.0,0,96,4.0,82.0
1576,74.0,127,104,0.0,82.0
1577,71.0,2,105,1.0,85.0
1578,59.0,6,113,3.0,72.0
1579,76.0,90,64,0.0,68.0
1580,76.0,10,61,4.0,59.0
1581,64.0,12,75,2.0,80.0
1582,73.0,115,106,0.0,85.0
1583,73.0,9,95,4.0,80.0
1584,70.0,8,105,1.0,64.0
1585,61.0,2,108,3.0,64.0
1586,74.0,77,71,0.0,68.0
1587,74.0,19,60,4.0,59.0
1588,71.0,111,110,1.0,85.0
1589,71.0,6,106,0.0,87.0
1590,71.0,2,101,4.0,78.0
1591,62.0,12,109,3.0,80.0
1592,73.0,90,62,0.0,60.0
1593,73.0,16,61,4.0,51.0
1594,69.0,109,102,0.0,80.0
1595,73.0,0,90,1.0,76.0
1596,69.0,16,105,4.0,63.0
1597,61.0,5,106,3.0,63.0
1598,71.0,91,63,0.0,70.0
1599,71.0,3,75,4.0,68.0
1600,66.0,5,524,2.0,82.0
1601,74.0,6,73,1.0,89.0
1602,67.0,131,96,0.0,76.0
1603,67.0,7,93,4.0,76.0
1604,59.0,6,103,3.0,64.0
1605,67.0,83,61,2.0,80.0
1606,64.0,119,88,2.0,74.0
1607,76.0,9,79,0.0,87.0
1608,76.0,2,92,4.0,85.0
1609,61.0,27,107,3.0,63.0
1610,66.0,77,71,2.0,72.0
1611,69.0,10,313,1.0,91.0
1612,66.0,7,91,0.0,85.0
1613,62.0,142,111,2.0,87.0
1614,66.0,6,98,4.0,82.0
1615,62.0,2,111,3.0,80.0
1616,67.0,111,79,1.0,78.0
1617,66.0,110,75,1.0,82.0
1618,69.0,10,61,0.0,98.0
1619,61.0,4,89,3.0,63.0
1620,69.0,8,75,4.0,87.0
1621,64.0,7,100,2.0,85.0
1622,64.0,83,74,1.0,87.0
1623,66.0,128,98,2.0,80.0
1624,74.0,2,88,0.0,87.0
1625,74.0,10,88,4.0,85.0
1626,59.0,19,118,3.0,82.0
1627,62.0,2,121,1.0,93.0
1628,79.0,0,85,0.0,89.0
1629,71.0,216,93,2.0,87.0
1630,74.0,2,87,1.0,85.0
1631,55.0,6,100,3.0,80.0
1632,79.0,10,92,4.0,82.0
1633,79.0,215,65,0.0,87.0
1634,79.0,10,67,4.0,76.0
1635,74.0,6,90,1.0,91.0
1636,69.0,1,98,2.0,89.0
1637,57.0,6,103,3.0,80.0
1638,78.0,27,67,0.0,87.0
1639,78.0,30,60,4.0,70.0
1640,79.0,27,69,0.0,68.0
1641,79.0,33,67,4.0,68.0
1642,78.0,10,92,0.0,63.0
1643,78.0,40,81,4.0,66.0
1644,67.0,50,84,2.0,82.0
1645,76.0,6,78,0.0,78.0
1646,76.0,4,79,4.0,66.0
1647,73.0,2,81,1.0,82.0
1648,45.0,5,110,3.0,87.0
1649,74.0,104,67,0.0,76.0
1650,74.0,17,54,4.0,80.0
1651,50.0,6,83,3.0,80.0
1652,45.0,224,73,3.0,85.0
1653,74.0,4,483,4.0,85.0
1654,74.0,11,492,0.0,87.0
1655,66.0,109,517,2.0,82.0
1656,69.0,3,510,1.0,78.0
1657,38.0,265,246,3.0,85.0
1658,66.0,4,77,0.0,85.0
1659,66.0,207,87,4.0,64.0
1660,66.0,226,71,1.0,80.0
1661,59.0,8,86,3.0,82.0
1662,62.0,8,104,2.0,82.0
1663,61.0,14,80,3.0,70.0
1664,64.0,86,102,2.0,76.0
1665,71.0,3,509,0.0,87.0
1666,71.0,249,514,4.0,85.0
1667,66.0,3,108,2.0,85.0
1668,62.0,121,111,3.0,82.0
1669,73.0,96,86,0.0,74.0
1670,73.0,9,96,4.0,64.0
1671,74.0,97,78,4.0,76.0
1672,74.0,0,75,0.0,87.0
1673,61.0,15,79,3.0,63.0
1674,64.0,11,102,2.0,68.0
1675,76.0,92,73,4.0,60.0
1676,76.0,0,75,0.0,80.0
1677,71.0,18,480,1.0,89.0
1678,62.0,121,89,2.0,85.0
1679,78.0,14,82,0.0,95.0
1680,78.0,5,81,4.0,76.0
1681,59.0,0,95,3.0,76.0
1682,70.0,0,77,0.0,72.0
1683,64.0,2,90,2.0,82.0
1684,61.0,233,94,3.0,66.0
1685,79.0,2,90,1.0,87.0
1686,70.0,14,82,4.0,72.0
1687,71.0,4,77,0.0,82.0
1688,71.0,2,84,4.0,70.0
1689,62.0,226,107,3.0,80.0
1690,78.0,13,98,1.0,82.0
1691,76.0,0,77,0.0,85.0
1692,61.0,8,93,3.0,64.0
1693,76.0,7,87,4.0,78.0
1694,70.0,227,113,1.0,76.0
1695,66.0,0,537,2.0,82.0
1696,74.0,2,82,0.0,89.0
1697,71.0,4,88,1.0,87.0
1698,74.0,3,85,4.0,80.0
1699,59.0,238,100,3.0,66.0
1700,79.0,0,81,0.0,87.0
1701,79.0,8,74,4.0,72.0
1702,61.0,225,88,3.0,63.0
1703,70.0,4,108,2.0,80.0
1704,64.0,2,123,1.0,87.0
1705,78.0,6,90,0.0,82.0
1706,62.0,228,104,3.0,80.0
1707,62.0,2,94,1.0,85.0
1708,71.0,4,103,2.0,82.0
1709,78.0,7,96,4.0,64.0
1710,82.0,217,87,0.0,87.0
1711,61.0,0,92,3.0,61.0
1712,82.0,14,83,4.0,66.0
1713,73.0,4,89,2.0,82.0
1714,76.0,5,94,1.0,82.0
1715,59.0,2,102,3.0,74.0
1716,74.0,2,101,1.0,78.0
1717,66.0,5,108,2.0,78.0
1718,83.0,4,188,4.0,80.0
1719,83.0,221,198,0.0,93.0
1720,81.0,227,88,0.0,85.0
1721,81.0,4,86,4.0,66.0
1722,76.0,2,88,1.0,85.0
1723,61.0,3,89,3.0,64.0
1724,64.0,4,109,2.0,78.0
1725,79.0,83,56,4.0,70.0
1726,79.0,10,59,0.0,72.0
1727,62.0,2,74,2.0,76.0
1728,78.0,6,99,0.0,95.0
1729,78.0,115,105,4.0,68.0
1730,78.0,19,88,1.0,93.0
1731,62.0,2,107,3.0,76.0
1732,79.0,76,71,4.0,61.0
1733,79.0,8,70,0.0,72.0
1734,76.0,115,98,0.0,85.0
1735,76.0,8,99,4.0,64.0
1736,64.0,12,83,2.0,78.0
1737,70.0,11,112,1.0,68.0
1738,61.0,6,103,3.0,63.0
1739,78.0,75,61,0.0,57.0
1740,78.0,5,62,4.0,57.0
1741,74.0,6,96,4.0,70.0
1742,74.0,121,104,0.0,80.0
1743,66.0,3,87,2.0,80.0
1744,71.0,14,101,1.0,85.0
1745,59.0,18,103,3.0,66.0
1746,76.0,75,71,0.0,60.0
1747,76.0,11,63,4.0,63.0
1748,64.0,0,82,2.0,85.0
1749,73.0,6,100,0.0,85.0
1750,70.0,119,106,1.0,70.0
1751,73.0,6,96,4.0,64.0
1752,61.0,15,98,3.0,64.0
1753,74.0,2,60,4.0,66.0
1754,74.0,84,68,0.0,72.0
1755,71.0,5,94,0.0,72.0
1756,71.0,7,89,4.0,76.0
1757,71.0,130,103,1.0,80.0
1758,62.0,12,102,3.0,80.0
1759,73.0,90,60,0.0,48.0
1760,73.0,4,56,4.0,47.0
1761,73.0,2,90,1.0,74.0
1762,69.0,118,110,0.0,76.0
1763,61.0,7,94,3.0,68.0
1764,69.0,11,113,4.0,72.0
1765,71.0,83,62,0.0,66.0
1766,71.0,9,68,4.0,66.0
1767,66.0,2,546,2.0,80.0
1768,67.0,137,94,0.0,78.0
1769,74.0,4,103,1.0,85.0
1770,59.0,1,104,3.0,66.0
1771,67.0,8,102,4.0,82.0
1772,67.0,123,67,2.0,78.0
1773,64.0,106,84,2.0,80.0
1774,76.0,6,90,4.0,80.0
1775,76.0,5,98,0.0,85.0
1776,61.0,0,103,3.0,66.0
1777,66.0,100,73,2.0,82.0
1778,69.0,6,319,1.0,89.0
1779,66.0,4,86,0.0,85.0
1780,62.0,130,106,3.0,82.0
1781,66.0,3,94,4.0,68.0
1782,62.0,9,116,2.0,87.0
1783,67.0,107,77,1.0,78.0
1784,66.0,115,73,1.0,74.0
1785,69.0,2,73,0.0,93.0
1786,69.0,4,71,4.0,85.0
1787,61.0,2,84,3.0,64.0
1788,64.0,12,102,2.0,85.0
1789,64.0,88,81,1.0,80.0
1790,66.0,130,93,2.0,80.0
1791,74.0,7,92,0.0,89.0
1792,74.0,2,90,4.0,80.0
1793,59.0,9,112,3.0,85.0
1794,62.0,7,102,1.0,93.0
1795,79.0,6,79,0.0,87.0
1796,71.0,215,98,2.0,85.0
1797,79.0,6,86,4.0,78.0
1798,74.0,11,75,1.0,91.0
1799,55.0,2,100,3.0,78.0
1800,79.0,192,64,0.0,82.0
1801,79.0,20,65,4.0,74.0
1802,57.0,8,88,3.0,87.0
1803,78.0,2,72,0.0,87.0
1804,69.0,5,110,2.0,85.0
1805,78.0,23,64,4.0,72.0
1806,74.0,15,96,1.0,87.0
1807,79.0,41,75,0.0,66.0
1808,79.0,23,65,4.0,61.0
1809,78.0,23,92,0.0,63.0
1810,78.0,17,88,4.0,60.0
1811,76.0,69,76,0.0,78.0
1812,67.0,12,77,2.0,85.0
1813,76.0,2,76,4.0,72.0
1814,73.0,4,78,1.0,76.0
1815,45.0,16,105,3.0,82.0
1816,74.0,14,61,4.0,82.0
1817,74.0,87,75,0.0,74.0
1818,50.0,123,74,3.0,93.0
1819,45.0,232,77,3.0,85.0
1820,74.0,7,487,4.0,68.0
1821,74.0,3,494,0.0,85.0
1822,69.0,5,495,1.0,85.0
1823,66.0,0,523,2.0,85.0
1824,38.0,265,255,3.0,85.0
1825,69.0,210,85,4.0,82.0
1826,69.0,14,92,0.0,80.0
1827,50.0,225,85,3.0,80.0
1828,69.0,2,84,1.0,82.0
1829,66.0,2,98,2.0,76.0
1830,52.0,96,88,3.0,78.0
1831,67.0,4,96,2.0,82.0
1832,74.0,5,509,0.0,76.0
1833,74.0,244,524,4.0,78.0
1834,69.0,0,108,2.0,85.0
1835,54.0,126,125,3.0,89.0
1836,76.0,96,80,4.0,80.0
1837,76.0,7,81,0.0,68.0
1838,78.0,107,76,4.0,68.0
1839,67.0,8,77,2.0,70.0
1840,78.0,2,81,0.0,60.0
1841,52.0,2,98,3.0,64.0
1842,79.0,102,73,4.0,82.0
1843,79.0,2,75,0.0,82.0
1844,74.0,22,465,1.0,82.0
1845,66.0,113,110,2.0,66.0
1846,50.0,2,99,3.0,66.0
1847,81.0,12,127,4.0,93.0
1848,81.0,4,123,0.0,98.0
1849,71.0,94,75,1.0,82.0
1850,79.0,19,69,0.0,80.0
1851,79.0,0,90,4.0,72.0
1852,69.0,94,84,1.0,64.0
1853,78.0,13,81,0.0,57.0
1854,78.0,8,93,4.0,42.0
1855,67.0,2,106,2.0,66.0
1856,52.0,10,97,3.0,68.0
1857,67.0,82,92,1.0,64.0
1858,76.0,12,86,0.0,66.0
1859,76.0,18,68,4.0,55.0
1860,54.0,11,89,3.0,64.0
1861,74.0,8,102,0.0,82.0
1862,66.0,101,123,1.0,70.0
1863,69.0,11,121,2.0,78.0
1864,74.0,4,100,4.0,72.0
1865,67.0,77,83,1.0,80.0
1866,67.0,21,96,2.0,82.0
1867,52.0,2,88,3.0,68.0
1868,66.0,4,108,2.0,66.0
1869,72.0,21,88,0.0,64.0
1870,72.0,8,84,4.0,63.0
1871,64.0,84,106,2.0,72.0
1872,66.0,142,102,2.0,72.0
1873,71.0,18,96,4.0,68.0
1874,51.0,4,115,3.0,63.0
1875,71.0,5,98,0.0,80.0
1876,69.0,117,395,1.0,85.0
1877,71.0,12,98,2.0,78.0
1878,76.0,5,83,0.0,80.0
1879,76.0,8,90,4.0,74.0
1880,52.0,211,120,3.0,64.0
1881,67.0,2,109,1.0,80.0
1882,69.0,5,93,2.0,85.0
1883,75.0,2,99,0.0,68.0
1884,54.0,233,101,3.0,64.0
1885,75.0,2,96,4.0,66.0
1886,66.0,0,114,1.0,62.0
1887,81.0,220,80,4.0,82.0
1888,81.0,2,82,0.0,85.0
1889,78.0,9,100,1.0,74.0
1890,51.0,9,94,3.0,63.0
1891,81.0,204,77,0.0,87.0
1892,81.0,9,75,4.0,78.0
1893,76.0,11,97,1.0,78.0
1894,71.0,2,349,2.0,85.0
1895,79.0,4,71,4.0,80.0
1896,79.0,25,77,0.0,87.0
1897,52.0,16,108,3.0,78.0
1898,81.0,52,67,0.0,60.0
1899,81.0,13,58,4.0,64.0
1900,79.0,3,80,4.0,82.0
1901,79.0,46,94,0.0,70.0
1902,75.0,0,81,1.0,76.0
1903,78.0,0,87,0.0,80.0
1904,78.0,66,95,4.0,66.0
1905,69.0,10,101,2.0,72.0
1906,54.0,17,106,3.0,63.0
1907,79.0,84,49,4.0,89.0
1908,79.0,5,52,0.0,87.0
1909,76.0,117,89,4.0,76.0
1910,71.0,12,92,2.0,82.0
1911,76.0,4,113,0.0,64.0
1912,55.0,2,101,3.0,76.0
1913,71.0,76,73,4.0,57.0
1914,71.0,16,77,0.0,60.0
1915,69.0,13,87,2.0,82.0
1916,76.0,98,79,4.0,63.0
1917,76.0,4,71,0.0,78.0
1918,67.0,15,95,2.0,72.0
1919,54.0,10,92,3.0,59.0
1920,78.0,86,77,4.0,60.0
1921,78.0,6,63,0.0,85.0
1922,69.0,12,82,2.0,85.0
1923,76.0,11,544,1.0,85.0
1924,79.0,121,96,0.0,87.0
1925,52.0,8,94,3.0,64.0
1926,79.0,3,108,4.0,85.0
1927,71.0,2,104,2.0,85.0
1928,81.0,90,77,0.0,62.0
1929,81.0,10,77,4.0,66.0
1930,78.0,2,80,0.0,78.0
1931,78.0,115,90,4.0,70.0
1932,54.0,8,94,3.0,64.0
1933,70.0,4,87,1.0,72.0
1934,62.0,7,96,2.0,78.0
1935,79.0,96,62,4.0,66.0
1936,79.0,8,57,0.0,68.0
1937,76.0,2,84,0.0,89.0
1938,59.0,121,100,2.0,72.0
1939,76.0,4,98,4.0,70.0
1940,55.0,7,104,3.0,74.0
1941,78.0,0,52,0.0,58.0
1942,78.0,96,60,4.0,54.0
1943,66.0,12,94,2.0,78.0
1944,74.0,121,115,0.0,82.0
1945,74.0,2,111,4.0,78.0
1946,54.0,5,112,3.0,60.0
1947,76.0,94,72,0.0,61.0
1948,76.0,10,69,4.0,66.0
1949,71.0,0,542,1.0,80.0
1950,52.0,11,98,3.0,70.0
1951,73.0,0,102,0.0,80.0
1952,67.0,125,115,2.0,80.0
1953,73.0,0,114,4.0,76.0
1954,73.0,110,90,1.0,63.0
1955,82.0,5,71,0.0,74.0
1956,82.0,2,77,4.0,72.0
1957,74.0,125,98,1.0,76.0
1958,54.0,0,99,3.0,59.0
1959,66.0,2,111,2.0,70.0
1960,76.0,108,77,1.0,80.0
1961,83.0,4,69,0.0,87.0
1962,83.0,0,69,4.0,87.0
1963,59.0,125,119,2.0,78.0
1964,55.0,10,111,3.0,72.0
1965,74.0,1,123,1.0,91.0
1966,73.0,98,94,1.0,61.0
1967,66.0,6,88,2.0,76.0
1968,71.0,115,106,1.0,66.0
1969,54.0,17,96,3.0,63.0
1970,69.0,86,60,1.0,80.0
1971,71.0,8,94,2.0,85.0
1972,67.0,131,121,1.0,85.0
1973,52.0,11,114,3.0,64.0
1974,74.0,6,380,4.0,85.0
1975,74.0,2,398,0.0,78.0
1976,66.0,92,73,1.0,70.0
1977,73.0,4,69,4.0,63.0
1978,64.0,121,102,1.0,66.0
1979,73.0,21,87,0.0,63.0
1980,70.0,6,86,2.0,68.0
1981,54.0,0,110,3.0,60.0
1982,62.0,88,83,1.0,64.0
1983,74.0,10,75,4.0,78.0
1984,74.0,0,80,0.0,76.0
1985,61.0,123,99,1.0,82.0
1986,71.0,6,98,2.0,85.0
1987,76.0,17,111,4.0,98.0
1988,55.0,0,113,3.0,74.0
1989,76.0,0,128,0.0,102.0
1990,59.0,87,95,1.0,72.0
1991,74.0,0,79,4.0,78.0
1992,74.0,18,81,0.0,82.0
1993,73.0,2,81,0.0,56.0
1994,67.0,112,84,1.0,89.0
1995,73.0,1,91,4.0,55.0
1996,64.0,6,94,2.0,80.0
1997,52.0,0,123,3.0,58.0
1998,71.0,94,94,0.0,52.0
1999,71.0,4,92,4.0,56.0
2000,70.0,0,94,0.0,87.0
2001,70.0,4,100,4.0,80.0
2002,61.0,140,108,2.0,68.0
2003,54.0,15,112,3.0,66.0
2004,71.0,2,101,4.0,58.0
2005,71.0,87,113,0.0,68.0
2006,73.0,3,70,4.0,57.0
2007,73.0,126,73,0.0,55.0
2008,52.0,0,110,3.0,72.0
2009,58.0,3,110,2.0,66.0
2010,70.0,6,61,4.0,56.0
2011,70.0,102,70,0.0,59.0
2012,66.0,2,532,1.0,80.0
2013,66.0,123,105,0.0,87.0
2014,59.0,1,111,2.0,82.0
2015,50.0,9,112,3.0,74.0
2016,66.0,1,119,4.0,89.0
2017,68.0,94,94,0.0,76.0
2018,68.0,16,96,4.0,74.0
2019,70.0,15,64,4.0,58.0
2020,70.0,109,84,0.0,64.0
2021,49.0,2,90,3.0,72.0
2022,64.0,2,85,1.0,78.0
2023,61.0,8,104,2.0,85.0
2024,66.0,82,58,0.0,64.0
2025,66.0,20,65,4.0,63.0
2026,62.0,9,94,1.0,82.0
2027,54.0,6,127,2.0,70.0
2028,47.0,0,127,3.0,80.0
2029,59.0,219,84,3.0,60.0
2030,66.0,5,89,1.0,74.0
2031,62.0,12,81,2.0,70.0
2032,61.0,94,75,3.0,63.0
2033,64.0,8,78,2.0,78.0
2034,71.0,4,506,4.0,68.0
2035,71.0,119,530,0.0,76.0
2036,62.0,111,108,3.0,85.0
2037,66.0,83,96,4.0,60.0
2038,66.0,23,84,0.0,66.0
2039,64.0,90,90,4.0,78.0
2040,64.0,25,82,0.0,85.0
2041,61.0,2,86,3.0,51.0
2042,66.0,84,87,4.0,56.0
2043,66.0,21,77,0.0,62.0
2044,71.0,15,497,1.0,85.0
2045,66.0,10,517,2.0,82.0
2046,59.0,114,92,3.0,59.0
2047,66.0,87,94,1.0,63.0
2048,62.0,9,96,2.0,76.0
2049,61.0,0,76,2.0,63.0
2050,64.0,110,90,1.0,76.0
2051,61.0,4,101,3.0,57.0
2052,66.0,113,94,1.0,66.0
2053,59.0,0,102,2.0,74.0
2054,74.0,19,513,4.0,85.0
2055,74.0,13,517,0.0,87.0
2056,62.0,127,105,3.0,85.0
2057,66.0,10,117,2.0,85.0
2058,71.0,99,93,4.0,70.0
2059,71.0,14,102,0.0,70.0
2060,70.0,100,75,4.0,62.0
2061,70.0,19,67,0.0,70.0
2062,64.0,2,115,2.0,82.0
2063,61.0,0,115,3.0,60.0
2064,71.0,88,79,4.0,85.0
2065,71.0,25,83,0.0,76.0
2066,71.0,15,536,1.0,87.0
2067,62.0,123,113,2.0,80.0
2068,59.0,9,108,3.0,70.0
2069,61.0,87,111,2.0,64.0
2070,69.0,17,121,1.0,72.0
2071,59.0,107,79,2.0,66.0
2072,68.0,8,86,1.0,66.0
2073,61.0,13,104,3.0,62.0
2074,57.0,93,78,2.0,64.0
2075,69.0,5,93,1.0,68.0
2076,77.0,2,522,4.0,89.0
2077,77.0,8,534,0.0,93.0
2078,62.0,131,107,3.0,80.0
2079,56.0,13,92,2.0,59.0
2080,71.0,4,90,0.0,72.0
2081,71.0,121,110,4.0,68.0
2082,70.0,4,61,4.0,60.0
2083,70.0,0,67,0.0,63.0
2084,61.0,106,119,3.0,60.0
2085,71.0,100,83,4.0,66.0
2086,71.0,8,84,0.0,64.0
2087,71.0,2,555,1.0,80.0
2088,59.0,132,108,3.0,70.0
2089,65.0,7,359,2.0,72.0
2090,69.0,76,119,1.0,68.0
2091,66.0,45,76,2.0,78.0
2092,68.0,94,105,1.0,76.0
2093,65.0,11,102,2.0,76.0
2094,61.0,2,115,3.0,63.0
2095,66.0,0,79,2.0,80.0
2096,69.0,113,121,1.0,72.0
2097,80.0,4,500,4.0,80.0
2098,80.0,12,491,0.0,87.0
2099,62.0,2,112,3.0,76.0
2100,65.0,123,117,2.0,82.0
2101,71.0,14,107,1.0,85.0
2102,82.0,96,86,0.0,59.0
2103,82.0,0,86,4.0,64.0
2104,83.0,0,78,0.0,87.0
2105,83.0,119,80,4.0,87.0
2106,74.0,6,106,1.0,87.0
2107,66.0,12,96,2.0,80.0
2108,59.0,3,121,3.0,72.0
2109,80.0,94,67,4.0,63.0
2110,80.0,9,66,0.0,63.0
2111,73.0,0,85,1.0,64.0
2112,82.0,116,101,4.0,82.0
2113,82.0,0,100,0.0,85.0
2114,64.0,5,108,2.0,82.0
2115,61.0,0,128,3.0,61.0
2116,78.0,106,77,4.0,61.0
2117,78.0,13,75,0.0,58.0
2118,62.0,2,111,3.0,78.0
2119,66.0,6,100,2.0,82.0
2120,83.0,4,111,0.0,89.0
2121,83.0,7,125,4.0,85.0
2122,81.0,106,78,4.0,76.0
2123,81.0,9,69,0.0,78.0
2124,79.0,6,67,4.0,66.0
2125,71.0,110,319,1.0,80.0
2126,79.0,11,63,0.0,61.0
2127,64.0,106,130,3.0,72.0
2128,78.0,16,55,0.0,57.0
2129,78.0,94,77,4.0,63.0
2130,74.0,13,104,1.0,80.0
2131,73.0,9,86,1.0,72.0
2132,62.0,0,105,3.0,82.0
2133,71.0,81,102,1.0,80.0
2134,76.0,4,244,0.0,68.0
2135,76.0,102,278,4.0,61.0
2136,67.0,2,518,2.0,82.0
2137,70.0,151,96,1.0,64.0
2138,61.0,4,128,3.0,64.0
2139,74.0,1,83,0.0,82.0
2140,74.0,22,103,4.0,82.0
2141,66.0,94,135,2.0,64.0
2142,73.0,8,73,0.0,63.0
2143,73.0,2,86,4.0,60.0
2144,64.0,98,103,2.0,70.0
2145,62.0,13,112,3.0,80.0
2146,71.0,6,62,0.0,80.0
2147,71.0,6,69,4.0,64.0
2148,66.0,88,87,2.0,76.0
2149,70.0,115,102,2.0,74.0
2150,73.0,10,96,0.0,74.0
2151,64.0,6,100,3.0,85.0
2152,79.0,2,355,1.0,87.0
2153,73.0,7,131,4.0,89.0
2154,74.0,0,87,0.0,76.0
2155,71.0,94,104,2.0,72.0
2156,74.0,20,107,4.0,78.0
2157,76.0,4,73,4.0,66.0
2158,76.0,103,87,0.0,82.0
2159,49.0,13,100,3.0,78.0
2160,73.0,2,148,2.0,85.0
2161,70.0,8,62,4.0,57.0
2162,70.0,94,83,0.0,61.0
2163,78.0,6,334,1.0,70.0
2164,66.0,111,116,2.0,72.0
2165,50.0,0,125,3.0,82.0
2166,71.0,15,120,0.0,64.0
2167,71.0,7,122,4.0,82.0
2168,71.0,10,96,1.0,82.0
2169,67.0,228,111,2.0,87.0
2170,52.0,2,113,3.0,72.0
2171,79.0,0,100,0.0,89.0
2172,79.0,11,108,4.0,85.0
2173,78.0,106,61,4.0,68.0
2174,78.0,8,53,0.0,89.0
2175,66.0,4,105,2.0,78.0
2176,71.0,2,115,1.0,82.0
2177,76.0,5,112,0.0,80.0
2178,54.0,107,123,3.0,78.0
2179,76.0,3,122,4.0,80.0
2180,74.0,103,63,0.0,61.0
2181,74.0,0,63,4.0,68.0
2182,64.0,121,108,2.0,76.0
2183,42.0,6,105,3.0,89.0
2184,73.0,2,107,4.0,85.0
2185,73.0,2,111,0.0,98.0
2186,70.0,0,119,1.0,70.0
2187,71.0,97,68,4.0,70.0
2188,71.0,8,75,0.0,60.0
2189,47.0,125,109,3.0,87.0
2190,54.0,223,98,3.0,78.0
2191,62.0,1,511,2.0,78.0
2192,66.0,0,529,1.0,85.0
2193,71.0,10,537,4.0,72.0
2194,71.0,10,530,0.0,76.0
2195,59.0,246,276,3.0,85.0
2196,69.0,238,96,4.0,78.0
2197,69.0,30,83,0.0,82.0
2198,69.0,221,84,1.0,82.0
2199,50.0,5,112,3.0,80.0
2200,66.0,12,103,2.0,59.0
2201,52.0,6,92,3.0,85.0
2202,67.0,88,100,2.0,68.0
2203,74.0,231,526,0.0,85.0
2204,74.0,4,537,4.0,82.0
2205,69.0,123,111,2.0,85.0
2206,54.0,4,126,3.0,82.0
2207,76.0,107,71,0.0,66.0
2208,76.0,4,81,4.0,76.0
2209,78.0,102,75,0.0,72.0
2210,78.0,2,77,4.0,74.0
2211,52.0,5,94,3.0,68.0
2212,67.0,0,98,2.0,64.0
2213,79.0,100,77,0.0,87.0
2214,79.0,12,73,4.0,82.0
2215,74.0,23,537,1.0,89.0
2216,66.0,4,115,2.0,66.0
2217,81.0,115,123,0.0,102.0
2218,50.0,4,126,3.0,72.0
2219,81.0,5,123,4.0,102.0
2220,79.0,96,87,0.0,76.0
2221,79.0,20,84,4.0,76.0
2222,71.0,11,94,1.0,82.0
2223,78.0,83,88,0.0,57.0
2224,69.0,5,85,1.0,64.0
2225,67.0,1,98,2.0,78.0
2226,52.0,16,99,3.0,64.0
2227,78.0,6,94,4.0,52.0
2228,76.0,89,82,0.0,61.0
2229,76.0,17,83,4.0,60.0
2230,67.0,0,104,1.0,74.0
2231,74.0,2,92,0.0,70.0
2232,66.0,117,106,1.0,62.0
2233,54.0,8,107,3.0,72.0
2234,74.0,7,110,4.0,64.0
2235,69.0,10,113,2.0,87.0
2236,67.0,75,79,1.0,82.0
2237,67.0,40,90,2.0,85.0
2238,72.0,10,84,0.0,66.0
2239,72.0,3,89,4.0,63.0
2240,66.0,0,95,2.0,85.0
2241,52.0,6,96,3.0,68.0
2242,64.0,94,100,2.0,80.0
2243,71.0,3,90,0.0,70.0
2244,71.0,7,93,4.0,72.0
2245,66.0,142,106,2.0,70.0
2246,51.0,1,124,3.0,68.0
2247,69.0,100,421,1.0,82.0
2248,76.0,3,78,0.0,72.0
2249,76.0,2,80,4.0,72.0
2250,67.0,226,105,1.0,72.0
2251,71.0,13,106,2.0,85.0
2252,52.0,5,98,3.0,80.0
2253,66.0,230,88,1.0,72.0
2254,75.0,4,82,4.0,72.0
2255,69.0,4,100,2.0,82.0
2256,75.0,3,93,0.0,78.0
2257,54.0,2,107,3.0,66.0
2258,78.0,3,79,1.0,78.0
2259,81.0,226,89,0.0,82.0
2260,81.0,8,81,4.0,76.0
2261,51.0,5,100,3.0,66.0
2262,78.0,208,55,1.0,85.0
2263,81.0,5,70,0.0,95.0
2264,81.0,14,69,4.0,78.0
2265,76.0,15,75,1.0,78.0
2266,79.0,21,77,0.0,66.0
2267,52.0,10,118,3.0,78.0
2268,79.0,10,78,4.0,70.0
2269,78.0,26,69,1.0,66.0
2270,81.0,20,61,0.0,72.0
2271,71.0,0,392,2.0,91.0
2272,81.0,19,57,4.0,66.0
2273,76.0,9,91,1.0,78.0
2274,79.0,24,90,0.0,68.0
2275,79.0,19,78,4.0,68.0
2276,75.0,36,87,1.0,76.0
2277,78.0,14,84,0.0,68.0
2278,78.0,7,85,4.0,62.0
2279,69.0,16,88,2.0,80.0
2280,54.0,2,115,3.0,64.0
2281,79.0,2,52,0.0,87.0
2282,79.0,90,54,4.0,87.0
2283,76.0,7,81,4.0,68.0
2284,76.0,12,130,0.0,78.0
2285,71.0,12,119,2.0,85.0
2286,55.0,11,114,3.0,82.0
2287,71.0,14,75,4.0,63.0
2288,71.0,71,98,0.0,53.0
2289,69.0,9,83,2.0,82.0
2290,76.0,0,65,0.0,74.0
2291,67.0,114,73,2.0,80.0
2292,76.0,7,73,4.0,70.0
2293,54.0,16,107,3.0,57.0
2294,78.0,3,75,0.0,78.0
2295,78.0,12,71,4.0,66.0
2296,69.0,85,86,2.0,85.0
2297,76.0,113,570,1.0,82.0
2298,71.0,0,105,2.0,93.0
2299,52.0,117,105,3.0,64.0
2300,79.0,10,106,4.0,91.0
2301,79.0,5,116,0.0,82.0
2302,81.0,100,69,0.0,64.0
2303,81.0,6,73,4.0,63.0
2304,70.0,0,88,1.0,70.0
2305,78.0,5,78,4.0,68.0
2306,78.0,7,83,0.0,66.0
2307,62.0,109,108,2.0,82.0
2308,54.0,7,112,3.0,62.0
2309,79.0,96,58,0.0,64.0
2310,79.0,8,58,4.0,72.0
2311,76.0,3,85,4.0,76.0
2312,59.0,2,98,2.0,76.0
2313,76.0,2,101,0.0,64.0
2314,55.0,2,119,3.0,82.0
2315,78.0,108,54,0.0,47.0
2316,78.0,4,57,4.0,53.0
2317,66.0,111,106,2.0,76.0
2318,54.0,3,102,3.0,63.0
2319,74.0,10,107,4.0,85.0
2320,74.0,2,125,0.0,72.0
2321,76.0,2,69,4.0,66.0
2322,76.0,100,73,0.0,70.0
2323,71.0,123,566,1.0,76.0
2324,73.0,7,98,4.0,89.0
2325,67.0,133,109,2.0,80.0
2326,73.0,2,116,0.0,72.0
2327,52.0,0,118,3.0,70.0
2328,73.0,110,81,1.0,68.0
2329,82.0,2,76,4.0,68.0
2330,74.0,111,96,1.0,76.0
2331,82.0,9,83,0.0,76.0
2332,66.0,6,115,2.0,68.0
2333,54.0,10,117,3.0,63.0
2334,76.0,90,83,1.0,80.0
2335,83.0,10,75,0.0,85.0
2336,83.0,0,75,4.0,87.0
2337,74.0,133,121,1.0,89.0
2338,59.0,4,112,2.0,78.0
2339,55.0,5,122,3.0,80.0
2340,73.0,96,85,1.0,62.0
2341,66.0,15,94,2.0,80.0
2342,71.0,106,115,1.0,70.0
2343,54.0,15,110,3.0,64.0
2344,69.0,75,73,1.0,76.0
2345,71.0,2,88,2.0,87.0
2346,67.0,137,120,1.0,68.0
2347,74.0,6,348,0.0,85.0
2348,52.0,16,112,3.0,66.0
2349,74.0,8,349,4.0,82.0
2350,66.0,90,87,1.0,66.0
2351,73.0,17,74,0.0,57.0
2352,64.0,123,92,1.0,64.0
2353,73.0,0,75,4.0,57.0
2354,70.0,9,84,2.0,78.0
2355,54.0,2,125,3.0,66.0
2356,62.0,91,78,1.0,66.0
2357,74.0,8,70,0.0,76.0
2358,74.0,0,71,4.0,78.0
2359,61.0,129,88,1.0,98.0
2360,76.0,6,105,4.0,89.0
2361,71.0,8,104,2.0,85.0
2362,55.0,3,125,3.0,76.0
2363,76.0,0,131,0.0,95.0
2364,59.0,92,92,1.0,70.0
2365,74.0,11,75,4.0,70.0
2366,74.0,8,88,0.0,72.0
2367,73.0,4,90,0.0,57.0
2368,67.0,6,90,1.0,87.0
2369,73.0,7,94,4.0,56.0
2370,52.0,100,133,3.0,60.0
2371,64.0,37,102,2.0,80.0
2372,71.0,48,92,0.0,62.0
2373,71.0,23,73,4.0,60.0
2374,70.0,123,107,0.0,89.0
2375,70.0,1,109,4.0,91.0
2376,61.0,1,110,2.0,72.0
2377,54.0,5,118,3.0,68.0
2378,71.0,98,98,0.0,74.0
2379,71.0,10,105,4.0,70.0
2380,73.0,117,65,0.0,57.0
2381,73.0,4,59,4.0,53.0
2382,52.0,6,115,3.0,70.0
2383,58.0,1,112,2.0,68.0
2384,70.0,2,57,4.0,63.0
2385,70.0,110,75,0.0,58.0
2386,66.0,4,553,1.0,76.0
2387,59.0,0,106,2.0,85.0
2388,66.0,130,114,4.0,98.0
2389,66.0,0,119,0.0,98.0
2390,50.0,10,115,3.0,80.0
2391,68.0,102,90,4.0,70.0
2392,68.0,0,94,0.0,66.0
2393,70.0,1,66,4.0,66.0
2394,70.0,0,77,0.0,59.0
2395,64.0,115,92,1.0,64.0
2396,61.0,6,104,2.0,87.0
2397,49.0,12,110,3.0,76.0
2398,66.0,92,52,0.0,61.0
2399,66.0,18,61,4.0,62.0
2400,62.0,113,90,1.0,72.0
2401,54.0,6,121,2.0,80.0
2402,47.0,0,148,3.0,82.0
2403,59.0,223,94,3.0,66.0
2404,66.0,7,102,1.0,85.0
2405,62.0,16,88,2.0,80.0
2406,61.0,82,83,3.0,64.0
2407,64.0,25,81,2.0,76.0
2408,71.0,4,511,4.0,78.0
2409,71.0,9,523,0.0,76.0
2410,62.0,106,129,3.0,89.0
2411,66.0,3,95,4.0,62.0
2412,66.0,87,115,0.0,61.0
2413,64.0,106,83,4.0,78.0
2414,64.0,7,103,0.0,66.0
2415,61.0,33,104,3.0,62.0
2416,66.0,79,69,4.0,74.0
2417,66.0,6,75,0.0,66.0
2418,66.0,0,490,2.0,87.0
2419,71.0,15,522,1.0,80.0
2420,59.0,6,106,3.0,68.0
2421,62.0,96,101,2.0,80.0
2422,66.0,15,106,1.0,64.0
2423,61.0,98,83,2.0,78.0
2424,64.0,8,80,1.0,60.0
2425,61.0,17,104,3.0,63.0
2426,66.0,8,84,1.0,87.0
2427,59.0,92,102,2.0,80.0
2428,74.0,4,485,0.0,85.0
2429,74.0,140,541,4.0,91.0
2430,66.0,132,117,2.0,87.0
2431,62.0,0,119,3.0,82.0
2432,71.0,16,98,4.0,76.0
2433,71.0,111,119,0.0,68.0
2434,70.0,94,73,0.0,60.0
2435,70.0,2,78,4.0,61.0
2436,61.0,15,110,3.0,62.0
2437,64.0,10,109,2.0,82.0
2438,71.0,92,72,0.0,70.0
2439,71.0,6,69,4.0,76.0
2440,71.0,4,540,1.0,85.0
2441,59.0,119,111,3.0,66.0
2442,62.0,2,98,2.0,85.0
2443,69.0,102,107,1.0,68.0
2444,61.0,5,105,2.0,68.0
2445,68.0,110,82,1.0,80.0
2446,61.0,9,117,3.0,64.0
2447,59.0,0,139,2.0,82.0
2448,57.0,98,91,2.0,60.0
2449,69.0,12,87,1.0,66.0
2450,77.0,15,504,0.0,91.0
2451,77.0,4,536,4.0,93.0
2452,56.0,17,81,2.0,68.0
2453,62.0,136,117,3.0,82.0
2454,71.0,114,113,0.0,68.0
2455,71.0,2,119,4.0,72.0
2456,70.0,99,79,0.0,57.0
2457,70.0,4,79,4.0,64.0
2458,61.0,5,116,3.0,62.0
2459,71.0,105,76,0.0,64.0
2460,71.0,3,73,4.0,64.0
2461,71.0,0,517,1.0,80.0
2462,65.0,14,326,2.0,78.0
2463,59.0,0,112,3.0,74.0
2464,69.0,93,90,1.0,74.0
2465,66.0,17,87,2.0,74.0
2466,68.0,92,88,1.0,68.0
2467,65.0,25,69,2.0,89.0
2468,61.0,13,123,3.0,57.0
2469,66.0,8,76,2.0,87.0
2470,69.0,87,94,1.0,85.0
2471,80.0,1,513,0.0,78.0
2472,80.0,131,528,4.0,80.0
2473,71.0,8,106,1.0,82.0
2474,65.0,124,120,2.0,93.0
2475,62.0,19,106,3.0,85.0
2476,82.0,104,79,4.0,68.0
2477,82.0,17,92,0.0,68.0
2478,83.0,98,81,4.0,87.0
2479,83.0,7,81,0.0,80.0
2480,66.0,3,96,2.0,82.0
2481,74.0,1,104,1.0,85.0
2482,59.0,6,121,3.0,80.0
2483,80.0,104,62,4.0,61.0
2484,80.0,19,56,0.0,64.0
2485,73.0,7,79,1.0,74.0
2486,82.0,110,96,4.0,85.0
2487,64.0,2,99,2.0,80.0
2488,82.0,0,92,0.0,87.0
2489,61.0,6,125,3.0,61.0
2490,78.0,10,76,0.0,60.0
2491,78.0,100,88,4.0,63.0
2492,83.0,1,101,0.0,91.0
2493,62.0,0,110,3.0,80.0
2494,66.0,122,116,2.0,72.0
2495,83.0,4,125,4.0,87.0
2496,81.0,0,69,0.0,74.0
2497,81.0,114,71,4.0,76.0
2498,71.0,2,298,1.0,82.0
2499,79.0,0,67,0.0,64.0
2500,79.0,2,73,4.0,63.0
2501,64.0,8,108,3.0,74.0
2502,78.0,98,75,0.0,64.0
2503,78.0,8,72,4.0,54.0
2504,74.0,12,96,1.0,80.0
2505,73.0,0,85,1.0,58.0
2506,62.0,2,108,3.0,80.0
2507,71.0,85,103,1.0,63.0
2508,76.0,108,255,0.0,70.0
2509,76.0,8,269,4.0,76.0
2510,67.0,121,517,2.0,82.0
2511,70.0,2,90,1.0,66.0
2512,61.0,153,152,3.0,63.0
2513,66.0,110,97,2.0,82.0
2514,74.0,0,94,0.0,82.0
2515,74.0,11,98,4.0,85.0
2516,73.0,2,85,4.0,63.0
2517,73.0,0,79,0.0,57.0
2518,64.0,100,100,2.0,80.0
2519,62.0,6,106,3.0,78.0
2520,71.0,96,65,4.0,66.0
2521,71.0,2,75,0.0,68.0
2522,66.0,8,80,2.0,78.0
2523,70.0,5,100,2.0,85.0
2524,73.0,2,110,0.0,85.0
2525,79.0,9,356,1.0,87.0
2526,73.0,125,121,4.0,87.0
2527,64.0,10,106,3.0,78.0
2528,74.0,2,90,0.0,72.0
2529,74.0,94,92,4.0,78.0
2530,71.0,2,102,2.0,82.0
2531,76.0,117,77,4.0,82.0
2532,76.0,2,82,0.0,68.0
2533,49.0,16,94,3.0,82.0
2534,73.0,7,112,2.0,91.0
2535,70.0,80,75,0.0,63.0
2536,70.0,2,73,4.0,68.0
2537,78.0,6,309,1.0,66.0
2538,66.0,129,100,2.0,82.0
2539,71.0,2,107,0.0,66.0
2540,71.0,0,113,4.0,57.0
2541,50.0,2,124,3.0,80.0
2542,67.0,235,93,2.0,85.0
2543,71.0,2,85,1.0,80.0
2544,79.0,1,103,4.0,85.0
2545,52.0,10,114,3.0,85.0
2546,79.0,6,110,0.0,87.0
2547,78.0,99,59,0.0,80.0
2548,78.0,6,63,4.0,63.0
2549,71.0,5,86,1.0,80.0
2550,66.0,121,104,2.0,70.0
2551,54.0,3,108,3.0,76.0
2552,76.0,3,107,4.0,82.0
2553,76.0,0,120,0.0,78.0
2554,74.0,4,58,4.0,66.0
2555,74.0,96,64,0.0,68.0
2556,70.0,123,73,1.0,78.0
2557,64.0,2,92,2.0,85.0
2558,73.0,5,93,4.0,89.0
2559,73.0,2,101,0.0,82.0
2560,42.0,0,102,3.0,82.0
2561,71.0,7,66,4.0,70.0
2562,71.0,95,78,0.0,60.0
2563,47.0,140,89,3.0,98.0
2564,54.0,246,94,3.0,76.0
2565,71.0,2,499,4.0,76.0
2566,71.0,0,517,0.0,68.0
2567,62.0,0,515,2.0,82.0
2568,66.0,2,530,1.0,70.0
2569,59.0,244,246,3.0,85.0
