,note,step,duration,channel,velocity
0,62.0,0,60,8.0,110.0
1,62.0,0,60,2.0,66.0
2,50.0,0,60,10.0,110.0
3,50.0,0,60,3.0,100.0
4,62.0,0,60,0.0,100.0
5,62.0,0,60,1.0,127.0
6,62.0,0,60,6.0,110.0
7,50.0,0,60,5.0,110.0
8,62.0,0,60,4.0,110.0
9,50.0,0,60,7.0,110.0
10,64.0,0,60,4.0,110.0
11,52.0,0,60,5.0,110.0
12,52.0,0,60,3.0,100.0
13,64.0,0,60,2.0,66.0
14,64.0,0,60,1.0,127.0
15,52.0,0,60,10.0,110.0
16,64.0,0,60,0.0,100.0
17,64.0,0,60,8.0,110.0
18,64.0,60,60,6.0,110.0
19,52.0,0,60,7.0,110.0
20,65.0,60,60,0.0,100.0
21,65.0,0,60,2.0,66.0
22,53.0,0,0,10.0,110.0
23,65.0,0,60,6.0,110.0
24,65.0,60,0,4.0,110.0
25,53.0,0,0,5.0,110.0
26,65.0,0,60,1.0,127.0
27,65.0,0,0,8.0,110.0
28,53.0,0,0,7.0,110.0
29,53.0,0,0,3.0,100.0
30,65.0,0,60,2.0,66.0
31,65.0,0,60,6.0,110.0
32,65.0,0,60,0.0,100.0
33,65.0,0,60,1.0,127.0
34,55.0,0,60,5.0,110.0
35,67.0,0,60,8.0,110.0
36,55.0,60,60,10.0,110.0
37,67.0,0,60,2.0,66.0
38,67.0,0,60,4.0,110.0
39,67.0,0,60,1.0,127.0
40,55.0,0,60,7.0,110.0
41,67.0,0,60,0.0,100.0
42,67.0,0,60,6.0,110.0
43,55.0,0,60,3.0,100.0
44,57.0,0,60,10.0,110.0
45,69.0,0,60,6.0,110.0
46,57.0,0,0,5.0,110.0
47,57.0,0,60,3.0,100.0
48,69.0,60,0,2.0,66.0
49,69.0,0,60,8.0,110.0
50,57.0,0,60,7.0,110.0
51,69.0,60,60,4.0,110.0
52,69.0,0,60,1.0,127.0
53,69.0,0,0,0.0,100.0
54,69.0,0,60,6.0,110.0
55,57.0,0,60,3.0,100.0
56,69.0,0,60,4.0,110.0
57,57.0,0,60,10.0,110.0
58,57.0,0,60,7.0,110.0
59,69.0,0,60,8.0,110.0
60,69.0,0,60,1.0,127.0
61,58.0,0,60,3.0,100.0
62,58.0,0,60,5.0,110.0
63,70.0,0,60,0.0,100.0
64,70.0,0,60,2.0,66.0
65,70.0,0,60,4.0,110.0
66,58.0,0,60,7.0,110.0
67,70.0,0,60,8.0,110.0
68,58.0,0,60,10.0,110.0
69,70.0,60,60,1.0,127.0
70,70.0,0,60,6.0,110.0
71,69.0,0,60,8.0,110.0
72,57.0,0,60,3.0,100.0
73,69.0,0,60,4.0,110.0
74,57.0,0,60,10.0,110.0
75,69.0,0,60,2.0,66.0
76,69.0,0,60,1.0,127.0
77,57.0,0,60,7.0,110.0
78,69.0,60,60,0.0,100.0
79,57.0,0,60,5.0,110.0
80,69.0,0,60,6.0,110.0
81,55.0,0,30,5.0,110.0
82,67.0,0,30,8.0,110.0
83,67.0,0,30,0.0,100.0
84,67.0,0,30,2.0,66.0
85,67.0,0,30,1.0,127.0
86,55.0,60,30,7.0,110.0
87,55.0,0,30,10.0,110.0
88,55.0,0,30,3.0,100.0
89,67.0,0,30,6.0,110.0
90,67.0,0,30,4.0,110.0
91,65.0,0,30,6.0,110.0
92,65.0,0,30,1.0,127.0
93,65.0,30,30,8.0,110.0
94,53.0,0,30,7.0,110.0
95,65.0,0,30,2.0,66.0
96,53.0,0,30,10.0,110.0
97,53.0,0,30,5.0,110.0
98,65.0,0,30,4.0,110.0
99,53.0,0,30,3.0,100.0
100,65.0,0,30,0.0,100.0
101,64.0,0,30,4.0,110.0
102,52.0,0,30,10.0,110.0
103,52.0,0,30,7.0,110.0
104,64.0,30,30,8.0,110.0
105,52.0,0,30,3.0,100.0
106,64.0,0,30,0.0,100.0
107,64.0,0,30,1.0,127.0
108,64.0,0,30,2.0,66.0
109,64.0,0,30,6.0,110.0
110,52.0,0,30,5.0,110.0
111,62.0,0,30,0.0,100.0
112,62.0,0,30,2.0,66.0
113,50.0,0,30,5.0,110.0
114,62.0,0,30,4.0,110.0
115,50.0,0,30,7.0,110.0
116,50.0,0,30,3.0,100.0
117,62.0,0,30,6.0,110.0
118,62.0,0,30,8.0,110.0
119,62.0,0,30,1.0,127.0
120,50.0,30,30,10.0,110.0
121,61.0,0,60,1.0,127.0
122,61.0,0,60,4.0,110.0
123,61.0,0,60,6.0,110.0
124,49.0,0,60,7.0,110.0
125,49.0,0,60,3.0,100.0
126,61.0,0,60,2.0,66.0
127,61.0,30,60,0.0,100.0
128,49.0,0,60,10.0,110.0
129,49.0,0,60,5.0,110.0
130,61.0,0,60,8.0,110.0
131,57.0,0,30,6.0,110.0
132,57.0,0,30,4.0,110.0
133,57.0,0,30,2.0,66.0
134,45.0,0,30,5.0,110.0
135,45.0,0,30,7.0,110.0
136,45.0,0,30,10.0,110.0
137,57.0,0,30,8.0,110.0
138,57.0,60,30,1.0,127.0
139,57.0,0,30,0.0,100.0
140,45.0,0,30,3.0,100.0
141,47.0,0,30,10.0,110.0
142,59.0,0,30,6.0,110.0
143,47.0,0,30,3.0,100.0
144,59.0,0,30,8.0,110.0
145,59.0,0,30,1.0,127.0
146,59.0,0,30,0.0,100.0
147,59.0,0,30,4.0,110.0
148,47.0,30,30,5.0,110.0
149,47.0,0,30,7.0,110.0
150,59.0,0,30,2.0,66.0
151,49.0,0,30,7.0,110.0
152,61.0,0,30,2.0,66.0
153,61.0,0,30,8.0,110.0
154,49.0,0,30,5.0,110.0
155,61.0,0,30,6.0,110.0
156,61.0,0,30,0.0,100.0
157,61.0,30,30,1.0,127.0
158,49.0,0,30,10.0,110.0
159,49.0,0,30,3.0,100.0
160,61.0,0,30,4.0,110.0
161,62.0,0,30,4.0,110.0
162,50.0,0,30,7.0,110.0
163,50.0,0,30,5.0,110.0
164,62.0,0,30,2.0,66.0
165,62.0,0,30,0.0,100.0
166,62.0,0,30,1.0,127.0
167,62.0,30,30,8.0,110.0
168,50.0,0,30,10.0,110.0
169,62.0,0,30,6.0,110.0
170,50.0,0,30,3.0,100.0
171,52.0,0,0,7.0,110.0
172,64.0,0,60,1.0,127.0
173,64.0,60,0,2.0,66.0
174,52.0,0,0,3.0,100.0
175,52.0,0,0,5.0,110.0
176,64.0,0,0,4.0,110.0
177,52.0,0,60,10.0,110.0
178,64.0,0,60,8.0,110.0
179,64.0,0,0,6.0,110.0
180,64.0,0,0,0.0,100.0
181,52.0,0,60,10.0,110.0
182,64.0,0,60,8.0,110.0
183,64.0,0,60,1.0,127.0
184,53.0,0,60,7.0,110.0
185,65.0,0,60,6.0,110.0
186,65.0,60,60,0.0,100.0
187,53.0,0,60,3.0,100.0
188,65.0,0,60,2.0,66.0
189,65.0,0,60,4.0,110.0
190,53.0,0,60,5.0,110.0
191,65.0,0,60,1.0,127.0
192,53.0,0,60,10.0,110.0
193,65.0,0,60,8.0,110.0
194,64.0,0,60,8.0,110.0
195,64.0,0,60,1.0,127.0
196,52.0,0,60,3.0,100.0
197,64.0,60,60,6.0,110.0
198,64.0,0,60,0.0,100.0
199,52.0,0,60,5.0,110.0
200,52.0,0,60,10.0,110.0
201,64.0,0,60,2.0,66.0
202,52.0,0,60,7.0,110.0
203,64.0,0,60,4.0,110.0
204,45.0,0,30,7.0,110.0
205,57.0,0,30,0.0,100.0
206,57.0,0,30,2.0,66.0
207,57.0,0,30,1.0,127.0
208,45.0,0,30,5.0,110.0
209,57.0,0,30,6.0,110.0
210,57.0,0,30,8.0,110.0
211,57.0,60,30,4.0,110.0
212,45.0,0,30,3.0,100.0
213,45.0,0,30,10.0,110.0
214,59.0,0,30,6.0,110.0
215,47.0,0,30,10.0,110.0
216,59.0,0,30,4.0,110.0
217,59.0,0,30,8.0,110.0
218,59.0,0,30,0.0,100.0
219,59.0,0,30,1.0,127.0
220,47.0,0,30,5.0,110.0
221,59.0,0,30,2.0,66.0
222,47.0,0,30,3.0,100.0
223,47.0,30,30,7.0,110.0
224,61.0,30,30,6.0,110.0
225,49.0,0,30,10.0,110.0
226,49.0,0,30,3.0,100.0
227,61.0,0,30,8.0,110.0
228,61.0,0,30,2.0,66.0
229,61.0,0,30,1.0,127.0
230,49.0,0,30,7.0,110.0
231,61.0,0,30,4.0,110.0
232,49.0,0,30,5.0,110.0
233,61.0,0,30,0.0,100.0
234,62.0,0,30,0.0,100.0
235,50.0,0,30,5.0,110.0
236,50.0,0,30,7.0,110.0
237,62.0,0,30,8.0,110.0
238,62.0,0,30,6.0,110.0
239,62.0,0,30,1.0,127.0
240,50.0,0,30,3.0,100.0
241,62.0,0,30,2.0,66.0
242,62.0,0,30,4.0,110.0
243,50.0,30,30,10.0,110.0
244,64.0,0,60,8.0,110.0
245,52.0,60,0,10.0,110.0
246,64.0,0,0,4.0,110.0
247,64.0,0,0,6.0,110.0
248,52.0,0,60,7.0,110.0
249,52.0,0,60,3.0,100.0
250,64.0,0,60,0.0,100.0
251,52.0,0,0,5.0,110.0
252,64.0,0,60,2.0,66.0
253,64.0,0,0,1.0,127.0
254,64.0,0,60,2.0,66.0
255,64.0,0,60,8.0,110.0
256,64.0,0,60,0.0,100.0
257,52.0,0,60,3.0,100.0
258,52.0,0,60,7.0,110.0
259,65.0,0,60,2.0,66.0
260,53.0,0,60,5.0,110.0
261,53.0,0,60,10.0,110.0
262,65.0,0,60,0.0,100.0
263,65.0,0,60,4.0,110.0
264,65.0,0,60,1.0,127.0
265,53.0,0,60,3.0,100.0
266,65.0,0,60,8.0,110.0
267,65.0,60,60,6.0,110.0
268,53.0,0,60,7.0,110.0
269,52.0,0,60,5.0,110.0
270,64.0,0,60,1.0,127.0
271,52.0,0,60,10.0,110.0
272,64.0,0,60,4.0,110.0
273,64.0,0,60,8.0,110.0
274,64.0,60,60,2.0,66.0
275,64.0,0,60,6.0,110.0
276,52.0,0,60,7.0,110.0
277,64.0,0,60,0.0,100.0
278,52.0,0,60,3.0,100.0
279,57.0,0,30,1.0,127.0
280,45.0,0,30,5.0,110.0
281,45.0,0,30,7.0,110.0
282,57.0,0,30,0.0,100.0
283,57.0,0,30,2.0,66.0
284,57.0,60,30,8.0,110.0
285,45.0,0,30,3.0,100.0
286,57.0,0,30,4.0,110.0
287,45.0,0,30,10.0,110.0
288,57.0,0,30,6.0,110.0
289,47.0,0,30,10.0,110.0
290,59.0,0,30,4.0,110.0
291,47.0,0,30,7.0,110.0
292,59.0,0,30,1.0,127.0
293,47.0,0,30,3.0,100.0
294,59.0,0,30,8.0,110.0
295,59.0,0,30,2.0,66.0
296,59.0,0,30,0.0,100.0
297,59.0,0,30,6.0,110.0
298,47.0,30,30,5.0,110.0
299,61.0,0,30,0.0,100.0
300,61.0,0,30,4.0,110.0
301,49.0,0,30,5.0,110.0
302,61.0,0,30,2.0,66.0
303,49.0,30,30,3.0,100.0
304,49.0,0,30,7.0,110.0
305,49.0,0,30,10.0,110.0
306,61.0,0,30,6.0,110.0
307,61.0,0,30,8.0,110.0
308,61.0,0,30,1.0,127.0
309,50.0,0,30,3.0,100.0
310,62.0,30,30,0.0,100.0
311,62.0,0,30,2.0,66.0
312,62.0,0,30,1.0,127.0
313,50.0,0,30,10.0,110.0
314,62.0,0,30,6.0,110.0
315,50.0,0,30,7.0,110.0
316,50.0,0,30,5.0,110.0
317,62.0,0,30,4.0,110.0
318,62.0,0,30,8.0,110.0
319,52.0,30,30,3.0,100.0
320,64.0,0,30,0.0,100.0
321,64.0,0,30,8.0,110.0
322,52.0,0,30,7.0,110.0
323,64.0,0,30,4.0,110.0
324,52.0,0,30,5.0,110.0
325,64.0,0,30,2.0,66.0
326,64.0,0,30,1.0,127.0
327,52.0,0,30,10.0,110.0
328,64.0,0,30,6.0,110.0
329,62.0,0,30,2.0,66.0
330,50.0,30,30,3.0,100.0
331,62.0,0,30,1.0,127.0
332,62.0,0,30,8.0,110.0
333,50.0,0,30,5.0,110.0
334,62.0,0,30,4.0,110.0
335,50.0,0,30,7.0,110.0
336,50.0,0,30,10.0,110.0
337,62.0,0,30,6.0,110.0
338,62.0,0,30,0.0,100.0
339,49.0,0,30,10.0,110.0
340,49.0,0,30,7.0,110.0
341,61.0,0,30,2.0,66.0
342,49.0,0,30,5.0,110.0
343,61.0,30,30,1.0,127.0
344,61.0,0,30,8.0,110.0
345,61.0,0,30,6.0,110.0
346,61.0,0,30,4.0,110.0
347,49.0,0,30,3.0,100.0
348,61.0,0,30,0.0,100.0
349,62.0,30,30,6.0,110.0
350,50.0,0,30,7.0,110.0
351,62.0,0,30,1.0,127.0
352,50.0,0,30,5.0,110.0
353,62.0,0,30,4.0,110.0
354,62.0,0,30,2.0,66.0
355,62.0,0,30,8.0,110.0
356,50.0,0,30,3.0,100.0
357,62.0,0,30,0.0,100.0
358,50.0,0,30,10.0,110.0
359,52.0,0,30,3.0,100.0
360,64.0,0,30,6.0,110.0
361,64.0,0,30,4.0,110.0
362,64.0,0,30,1.0,127.0
363,52.0,30,30,7.0,110.0
364,64.0,0,30,0.0,100.0
365,64.0,0,30,2.0,66.0
366,64.0,0,30,8.0,110.0
367,52.0,0,30,5.0,110.0
368,52.0,0,30,10.0,110.0
369,53.0,0,30,5.0,110.0
370,65.0,0,30,4.0,110.0
371,65.0,0,30,2.0,66.0
372,53.0,0,30,10.0,110.0
373,65.0,0,30,6.0,110.0
374,53.0,30,30,3.0,100.0
375,65.0,0,30,8.0,110.0
376,53.0,0,30,7.0,110.0
377,65.0,0,30,0.0,100.0
378,65.0,0,30,1.0,127.0
379,67.0,0,30,0.0,100.0
380,55.0,0,30,7.0,110.0
381,67.0,0,30,1.0,127.0
382,67.0,0,30,2.0,66.0
383,55.0,30,30,5.0,110.0
384,55.0,0,30,10.0,110.0
385,67.0,0,30,6.0,110.0
386,55.0,0,30,3.0,100.0
387,67.0,0,30,8.0,110.0
388,67.0,0,30,4.0,110.0
389,65.0,0,30,8.0,110.0
390,53.0,0,30,3.0,100.0
391,53.0,0,30,7.0,110.0
392,53.0,0,30,10.0,110.0
393,53.0,30,30,5.0,110.0
394,65.0,0,30,6.0,110.0
395,65.0,0,30,4.0,110.0
396,65.0,0,30,1.0,127.0
397,65.0,0,30,2.0,66.0
398,65.0,0,30,0.0,100.0
399,52.0,0,30,7.0,110.0
400,64.0,0,30,8.0,110.0
401,64.0,0,30,4.0,110.0
402,52.0,30,30,10.0,110.0
403,52.0,0,30,3.0,100.0
404,64.0,0,30,1.0,127.0
405,52.0,0,30,5.0,110.0
406,64.0,0,30,2.0,66.0
407,64.0,0,30,6.0,110.0
408,64.0,0,30,0.0,100.0
409,65.0,0,30,6.0,110.0
410,65.0,30,30,4.0,110.0
411,65.0,0,30,0.0,100.0
412,65.0,0,30,8.0,110.0
413,53.0,0,30,3.0,100.0
414,53.0,0,30,10.0,110.0
415,65.0,0,30,1.0,127.0
416,53.0,0,30,5.0,110.0
417,53.0,0,30,7.0,110.0
418,65.0,0,30,2.0,66.0
419,67.0,0,30,1.0,127.0
420,67.0,0,30,0.0,100.0
421,67.0,30,30,6.0,110.0
422,67.0,0,30,2.0,66.0
423,67.0,0,30,4.0,110.0
424,55.0,0,30,3.0,100.0
425,67.0,0,30,8.0,110.0
426,55.0,0,30,7.0,110.0
427,55.0,0,30,5.0,110.0
428,55.0,0,30,10.0,110.0
429,57.0,0,30,10.0,110.0
430,57.0,0,30,5.0,110.0
431,57.0,0,30,3.0,100.0
432,69.0,0,30,8.0,110.0
433,69.0,0,30,4.0,110.0
434,69.0,0,30,0.0,100.0
435,57.0,0,30,7.0,110.0
436,69.0,0,30,6.0,110.0
437,69.0,30,30,1.0,127.0
438,69.0,0,30,2.0,66.0
439,70.0,0,30,6.0,110.0
440,70.0,0,30,4.0,110.0
441,70.0,0,30,2.0,66.0
442,58.0,0,30,10.0,110.0
443,58.0,0,30,7.0,110.0
444,58.0,0,30,5.0,110.0
445,58.0,0,30,3.0,100.0
446,70.0,30,30,0.0,100.0
447,70.0,0,30,8.0,110.0
448,70.0,0,30,1.0,127.0
449,69.0,0,30,2.0,66.0
450,69.0,0,30,4.0,110.0
451,57.0,0,30,5.0,110.0
452,69.0,30,30,6.0,110.0
453,69.0,0,30,8.0,110.0
454,57.0,0,30,10.0,110.0
455,69.0,0,30,1.0,127.0
456,57.0,0,30,7.0,110.0
457,69.0,0,30,0.0,100.0
458,57.0,0,30,3.0,100.0
459,67.0,0,30,6.0,110.0
460,55.0,30,30,5.0,110.0
461,55.0,0,30,3.0,100.0
462,67.0,0,30,2.0,66.0
463,67.0,0,30,8.0,110.0
464,55.0,0,30,7.0,110.0
465,67.0,0,30,4.0,110.0
466,67.0,0,30,1.0,127.0
467,55.0,0,30,10.0,110.0
468,67.0,0,30,0.0,100.0
469,65.0,0,30,1.0,127.0
470,53.0,30,30,3.0,100.0
471,53.0,0,30,7.0,110.0
472,65.0,0,30,6.0,110.0
473,65.0,0,30,0.0,100.0
474,65.0,0,30,8.0,110.0
475,53.0,0,30,10.0,110.0
476,53.0,0,30,5.0,110.0
477,65.0,0,30,2.0,66.0
478,65.0,0,30,4.0,110.0
479,64.0,0,30,8.0,110.0
480,52.0,0,30,3.0,100.0
481,64.0,30,30,1.0,127.0
482,64.0,0,30,4.0,110.0
483,64.0,0,30,6.0,110.0
484,52.0,0,30,10.0,110.0
485,52.0,0,30,5.0,110.0
486,64.0,0,30,2.0,66.0
487,64.0,0,30,0.0,100.0
488,52.0,0,30,7.0,110.0
489,50.0,0,30,5.0,110.0
490,50.0,0,30,10.0,110.0
491,62.0,0,30,0.0,100.0
492,62.0,0,30,6.0,110.0
493,62.0,30,30,8.0,110.0
494,50.0,0,30,7.0,110.0
495,62.0,0,30,2.0,66.0
496,62.0,0,30,1.0,127.0
497,50.0,0,30,3.0,100.0
498,62.0,0,30,4.0,110.0
499,61.0,0,30,0.0,100.0
500,61.0,0,30,8.0,110.0
501,61.0,0,30,1.0,127.0
502,49.0,0,30,7.0,110.0
503,61.0,0,30,6.0,110.0
504,61.0,0,30,2.0,66.0
505,49.0,0,30,3.0,100.0
506,61.0,0,30,4.0,110.0
507,49.0,0,30,5.0,110.0
508,49.0,30,30,10.0,110.0
509,52.0,0,30,10.0,110.0
510,64.0,0,30,4.0,110.0
511,64.0,0,30,1.0,127.0
512,52.0,0,30,7.0,110.0
513,64.0,0,30,2.0,66.0
514,52.0,0,30,5.0,110.0
515,52.0,0,30,3.0,100.0
516,64.0,0,30,6.0,110.0
517,64.0,0,30,8.0,110.0
518,64.0,30,30,0.0,100.0
519,45.0,0,30,5.0,110.0
520,45.0,0,30,10.0,110.0
521,57.0,0,30,2.0,66.0
522,57.0,0,30,6.0,110.0
523,45.0,30,30,7.0,110.0
524,57.0,0,30,0.0,100.0
525,57.0,0,30,8.0,110.0
526,57.0,0,30,1.0,127.0
527,57.0,0,30,4.0,110.0
528,45.0,0,30,3.0,100.0
529,61.0,0,30,2.0,66.0
530,49.0,0,30,7.0,110.0
531,61.0,0,30,1.0,127.0
532,61.0,0,30,4.0,110.0
533,61.0,0,30,8.0,110.0
534,49.0,0,30,10.0,110.0
535,49.0,0,30,3.0,100.0
536,49.0,30,30,5.0,110.0
537,61.0,0,30,6.0,110.0
538,61.0,0,30,0.0,100.0
539,62.0,0,60,4.0,110.0
540,62.0,0,60,6.0,110.0
541,62.0,0,60,1.0,127.0
542,50.0,0,60,7.0,110.0
543,50.0,30,60,10.0,110.0
544,62.0,0,60,8.0,110.0
545,50.0,0,60,5.0,110.0
546,62.0,0,60,0.0,100.0
547,62.0,0,60,2.0,66.0
548,50.0,0,60,3.0,100.0
549,43.0,0,30,5.0,110.0
550,43.0,0,30,3.0,100.0
551,55.0,0,30,2.0,66.0
552,43.0,0,30,7.0,110.0
553,55.0,0,30,8.0,110.0
554,43.0,0,30,10.0,110.0
555,55.0,0,30,1.0,127.0
556,55.0,0,30,4.0,110.0
557,55.0,90,30,0.0,100.0
558,55.0,0,30,6.0,110.0
559,57.0,0,0,2.0,66.0
560,57.0,0,0,6.0,110.0
561,57.0,0,60,1.0,127.0
562,57.0,60,0,0.0,100.0
563,57.0,0,60,4.0,110.0
564,45.0,0,0,7.0,110.0
565,45.0,30,60,5.0,110.0
566,45.0,0,0,10.0,110.0
567,45.0,0,0,3.0,100.0
568,57.0,0,0,8.0,110.0
569,45.0,0,60,5.0,110.0
570,57.0,0,60,1.0,127.0
571,57.0,0,60,4.0,110.0
572,62.0,0,60,0.0,100.0
573,38.0,0,60,10.0,110.0
574,38.0,0,60,3.0,100.0
575,62.0,0,60,1.0,127.0
576,38.0,0,60,5.0,110.0
577,50.0,0,60,5.0,110.0
578,38.0,60,60,7.0,110.0
579,50.0,0,60,7.0,110.0
580,62.0,0,60,2.0,66.0
581,62.0,30,30,6.0,110.0
582,50.0,0,60,10.0,110.0
583,65.0,0,30,6.0,110.0
584,69.0,30,30,6.0,110.0
585,74.0,30,60,0.0,100.0
586,74.0,0,60,4.0,110.0
587,77.0,0,15,4.0,110.0
588,74.0,30,30,6.0,110.0
589,76.0,15,15,4.0,110.0
590,74.0,0,15,4.0,110.0
591,73.0,15,30,6.0,110.0
592,76.0,0,60,0.0,100.0
593,76.0,15,15,4.0,110.0
594,62.0,30,30,8.0,110.0
595,74.0,0,60,6.0,110.0
596,77.0,15,60,4.0,110.0
597,77.0,0,0,0.0,100.0
598,65.0,0,30,8.0,110.0
599,50.0,0,60,3.0,100.0
600,65.0,0,60,6.0,110.0
601,69.0,0,60,6.0,110.0
602,69.0,0,60,2.0,66.0
603,69.0,30,30,8.0,110.0
604,77.0,0,60,4.0,110.0
605,50.0,0,60,10.0,110.0
606,50.0,0,60,7.0,110.0
607,50.0,30,60,5.0,110.0
608,74.0,0,60,1.0,127.0
609,81.0,0,15,4.0,110.0
610,74.0,0,30,8.0,110.0
611,79.0,15,15,4.0,110.0
612,77.0,0,15,4.0,110.0
613,64.0,0,60,2.0,66.0
614,52.0,0,60,5.0,110.0
615,73.0,15,30,8.0,110.0
616,52.0,30,60,3.0,100.0
617,79.0,15,15,4.0,110.0
618,64.0,0,60,6.0,110.0
619,67.0,0,60,6.0,110.0
620,52.0,0,60,10.0,110.0
621,79.0,0,60,0.0,100.0
622,73.0,0,60,1.0,127.0
623,52.0,0,60,7.0,110.0
624,74.0,0,30,8.0,110.0
625,65.0,0,30,6.0,110.0
626,53.0,0,60,7.0,110.0
627,72.0,30,30,8.0,110.0
628,81.0,0,60,4.0,110.0
629,53.0,0,60,5.0,110.0
630,62.0,0,60,6.0,110.0
631,62.0,0,60,2.0,66.0
632,69.0,0,30,6.0,110.0
633,74.0,0,60,1.0,127.0
634,81.0,0,0,0.0,100.0
635,53.0,15,60,3.0,100.0
636,53.0,0,0,10.0,110.0
637,70.0,0,30,8.0,110.0
638,67.0,0,30,6.0,110.0
639,65.0,0,30,6.0,110.0
640,74.0,30,60,2.0,66.0
641,53.0,0,60,5.0,110.0
642,62.0,0,60,1.0,127.0
643,81.0,0,60,4.0,110.0
644,69.0,30,30,8.0,110.0
645,53.0,0,60,3.0,100.0
646,53.0,0,60,7.0,110.0
647,67.0,0,30,8.0,110.0
648,64.0,0,30,6.0,110.0
649,65.0,0,30,8.0,110.0
650,55.0,0,60,10.0,110.0
651,55.0,30,60,7.0,110.0
652,82.0,0,60,0.0,100.0
653,55.0,0,60,5.0,110.0
654,67.0,0,60,1.0,127.0
655,62.0,30,30,6.0,110.0
656,55.0,0,60,3.0,100.0
657,82.0,0,60,4.0,110.0
658,62.0,0,60,2.0,66.0
659,61.0,0,30,6.0,110.0
660,57.0,0,60,3.0,100.0
661,81.0,0,60,0.0,100.0
662,57.0,0,0,5.0,110.0
663,81.0,0,60,4.0,110.0
664,64.0,0,60,8.0,110.0
665,59.0,30,30,6.0,110.0
666,57.0,0,0,10.0,110.0
667,57.0,0,0,7.0,110.0
668,61.0,0,60,2.0,66.0
669,64.0,0,60,1.0,127.0
670,79.0,0,30,0.0,100.0
671,79.0,0,30,4.0,110.0
672,61.0,0,30,6.0,110.0
673,61.0,0,60,2.0,66.0
674,69.0,0,60,1.0,127.0
675,57.0,0,60,3.0,100.0
676,77.0,0,30,4.0,110.0
677,77.0,30,30,0.0,100.0
678,62.0,0,30,6.0,110.0
679,69.0,0,0,8.0,110.0
680,76.0,0,30,4.0,110.0
681,76.0,0,30,0.0,100.0
682,67.0,15,15,8.0,110.0
683,61.0,0,30,6.0,110.0
684,69.0,0,15,8.0,110.0
685,62.0,0,30,6.0,110.0
686,67.0,15,15,8.0,110.0
687,58.0,30,60,7.0,110.0
688,58.0,0,60,10.0,110.0
689,67.0,0,60,1.0,127.0
690,58.0,0,60,5.0,110.0
691,62.0,0,60,2.0,66.0
692,74.0,0,30,4.0,110.0
693,58.0,0,60,3.0,100.0
694,74.0,15,30,0.0,100.0
695,64.0,15,30,6.0,110.0
696,73.0,0,30,4.0,110.0
697,73.0,0,30,0.0,100.0
698,71.0,30,30,4.0,110.0
699,57.0,0,60,5.0,110.0
700,57.0,0,60,3.0,100.0
701,57.0,0,60,10.0,110.0
702,71.0,0,30,0.0,100.0
703,69.0,0,0,1.0,127.0
704,57.0,0,60,7.0,110.0
705,64.0,0,0,2.0,66.0
706,69.0,0,60,8.0,110.0
707,65.0,0,30,6.0,110.0
708,55.0,0,30,10.0,110.0
709,69.0,0,30,0.0,100.0
710,55.0,0,30,3.0,100.0
711,55.0,0,30,5.0,110.0
712,69.0,30,30,4.0,110.0
713,55.0,0,30,7.0,110.0
714,61.0,0,30,8.0,110.0
715,64.0,0,30,6.0,110.0
716,62.0,0,30,8.0,110.0
717,53.0,30,30,5.0,110.0
718,62.0,0,30,6.0,110.0
719,69.0,0,0,1.0,127.0
720,53.0,0,30,3.0,100.0
721,53.0,0,30,10.0,110.0
722,53.0,0,30,7.0,110.0
723,71.0,0,30,0.0,100.0
724,71.0,0,30,4.0,110.0
725,52.0,0,30,3.0,100.0
726,52.0,0,30,10.0,110.0
727,64.0,30,30,8.0,110.0
728,73.0,0,30,4.0,110.0
729,52.0,0,30,5.0,110.0
730,73.0,0,30,0.0,100.0
731,52.0,0,30,7.0,110.0
732,61.0,0,30,6.0,110.0
733,59.0,0,30,6.0,110.0
734,64.0,0,0,2.0,66.0
735,65.0,0,30,8.0,110.0
736,50.0,0,30,5.0,110.0
737,74.0,0,30,4.0,110.0
738,50.0,0,30,3.0,100.0
739,50.0,0,30,7.0,110.0
740,50.0,30,30,10.0,110.0
741,74.0,0,30,0.0,100.0
742,67.0,0,30,8.0,110.0
743,49.0,0,60,5.0,110.0
744,76.0,0,60,4.0,110.0
745,57.0,0,60,6.0,110.0
746,49.0,0,60,7.0,110.0
747,49.0,30,60,3.0,100.0
748,69.0,0,60,1.0,127.0
749,76.0,0,60,0.0,100.0
750,69.0,30,30,8.0,110.0
751,49.0,0,60,10.0,110.0
752,67.0,0,30,8.0,110.0
753,45.0,0,60,3.0,100.0
754,67.0,0,60,6.0,110.0
755,76.0,0,60,0.0,100.0
756,65.0,30,30,8.0,110.0
757,76.0,0,60,4.0,110.0
758,45.0,0,60,7.0,110.0
759,73.0,0,60,1.0,127.0
760,73.0,0,60,6.0,110.0
761,69.0,0,0,6.0,110.0
762,69.0,0,0,2.0,66.0
763,45.0,0,60,10.0,110.0
764,45.0,30,60,5.0,110.0
765,64.0,0,30,8.0,110.0
766,62.0,30,30,8.0,110.0
767,50.0,0,60,10.0,110.0
768,77.0,0,60,4.0,110.0
769,50.0,30,60,7.0,110.0
770,50.0,0,60,5.0,110.0
771,74.0,0,60,6.0,110.0
772,65.0,0,60,6.0,110.0
773,50.0,0,60,3.0,100.0
774,74.0,0,60,1.0,127.0
775,77.0,0,60,0.0,100.0
776,61.0,30,30,8.0,110.0
777,45.0,0,60,7.0,110.0
778,76.0,0,60,4.0,110.0
779,76.0,0,60,2.0,66.0
780,45.0,0,60,10.0,110.0
781,76.0,0,60,6.0,110.0
782,73.0,0,60,6.0,110.0
783,69.0,0,60,6.0,110.0
784,45.0,0,60,3.0,100.0
785,45.0,0,60,5.0,110.0
786,76.0,0,60,0.0,100.0
787,59.0,30,30,8.0,110.0
788,76.0,0,60,1.0,127.0
789,57.0,0,30,4.0,110.0
790,57.0,0,30,2.0,66.0
791,57.0,0,30,0.0,100.0
792,57.0,0,30,6.0,110.0
793,57.0,0,30,1.0,127.0
794,57.0,0,30,8.0,110.0
795,59.0,30,30,8.0,110.0
796,59.0,0,30,4.0,110.0
797,59.0,0,30,2.0,66.0
798,59.0,0,30,1.0,127.0
799,59.0,0,30,6.0,110.0
800,49.0,30,60,7.0,110.0
801,49.0,0,60,3.0,100.0
802,49.0,0,60,5.0,110.0
803,49.0,0,60,10.0,110.0
804,59.0,0,30,0.0,100.0
805,61.0,0,30,4.0,110.0
806,61.0,0,30,6.0,110.0
807,61.0,0,30,0.0,100.0
808,61.0,0,30,2.0,66.0
809,61.0,30,30,8.0,110.0
810,61.0,0,30,1.0,127.0
811,62.0,0,30,1.0,127.0
812,62.0,0,30,0.0,100.0
813,62.0,0,30,8.0,110.0
814,52.0,0,60,5.0,110.0
815,62.0,0,30,4.0,110.0
816,62.0,0,30,2.0,66.0
817,52.0,0,60,7.0,110.0
818,62.0,30,30,6.0,110.0
819,52.0,0,60,3.0,100.0
820,52.0,0,60,10.0,110.0
821,57.0,0,60,7.0,110.0
822,57.0,0,60,3.0,100.0
823,57.0,30,60,10.0,110.0
824,64.0,0,60,1.0,127.0
825,64.0,0,0,6.0,110.0
826,57.0,0,60,5.0,110.0
827,64.0,0,0,8.0,110.0
828,64.0,0,0,0.0,100.0
829,64.0,0,0,4.0,110.0
830,64.0,0,0,2.0,66.0
831,55.0,0,30,5.0,110.0
832,55.0,0,30,10.0,110.0
833,55.0,0,30,7.0,110.0
834,61.0,0,60,3.0,100.0
835,57.0,0,60,6.0,110.0
836,61.0,0,60,6.0,110.0
837,57.0,0,0,4.0,110.0
838,61.0,0,60,4.0,110.0
839,53.0,0,30,5.0,110.0
840,61.0,0,60,8.0,110.0
841,57.0,60,60,8.0,110.0
842,53.0,30,30,10.0,110.0
843,64.0,0,60,1.0,127.0
844,53.0,0,30,7.0,110.0
845,52.0,0,30,7.0,110.0
846,52.0,0,30,5.0,110.0
847,52.0,0,30,10.0,110.0
848,50.0,0,30,7.0,110.0
849,65.0,0,60,1.0,127.0
850,62.0,30,60,3.0,100.0
851,65.0,0,60,8.0,110.0
852,62.0,0,60,8.0,110.0
853,57.0,0,60,8.0,110.0
854,50.0,0,30,10.0,110.0
855,50.0,30,30,5.0,110.0
856,62.0,0,60,4.0,110.0
857,65.0,0,60,4.0,110.0
858,65.0,0,60,2.0,66.0
859,57.0,0,60,6.0,110.0
860,62.0,0,60,6.0,110.0
861,65.0,0,60,6.0,110.0
862,65.0,0,60,0.0,100.0
863,64.0,0,30,4.0,110.0
864,64.0,0,60,8.0,110.0
865,61.0,0,60,8.0,110.0
866,64.0,0,60,0.0,100.0
867,69.0,30,30,4.0,110.0
868,61.0,0,60,4.0,110.0
869,57.0,30,0,3.0,100.0
870,57.0,0,60,10.0,110.0
871,57.0,0,60,5.0,110.0
872,59.0,0,60,6.0,110.0
873,64.0,0,60,6.0,110.0
874,64.0,0,60,1.0,127.0
875,64.0,0,60,2.0,66.0
876,57.0,30,60,7.0,110.0
877,72.0,0,30,4.0,110.0
878,69.0,0,60,6.0,110.0
879,76.0,30,30,4.0,110.0
880,69.0,0,60,1.0,127.0
881,72.0,0,15,6.0,110.0
882,71.0,15,15,6.0,110.0
883,81.0,30,30,4.0,110.0
884,69.0,0,15,6.0,110.0
885,71.0,0,60,1.0,127.0
886,57.0,0,60,3.0,100.0
887,80.0,15,30,4.0,110.0
888,71.0,15,15,6.0,110.0
889,81.0,0,60,4.0,110.0
890,57.0,15,60,3.0,100.0
891,72.0,30,0,6.0,110.0
892,69.0,30,30,8.0,110.0
893,72.0,0,0,1.0,127.0
894,72.0,0,30,8.0,110.0
895,81.0,0,60,0.0,100.0
896,72.0,0,60,4.0,110.0
897,76.0,0,60,4.0,110.0
898,45.0,0,60,7.0,110.0
899,64.0,0,60,2.0,66.0
900,57.0,0,60,10.0,110.0
901,76.0,30,30,8.0,110.0
902,57.0,0,60,5.0,110.0
903,45.0,0,60,3.0,100.0
904,76.0,0,15,6.0,110.0
905,81.0,0,30,8.0,110.0
906,74.0,15,15,6.0,110.0
907,72.0,15,15,6.0,110.0
908,80.0,30,60,0.0,100.0
909,59.0,0,60,10.0,110.0
910,47.0,0,60,7.0,110.0
911,71.0,0,60,4.0,110.0
912,74.0,0,60,1.0,127.0
913,74.0,15,15,6.0,110.0
914,74.0,0,60,4.0,110.0
915,59.0,0,60,5.0,110.0
916,80.0,0,30,8.0,110.0
917,47.0,0,60,3.0,100.0
918,71.0,0,60,2.0,66.0
919,72.0,0,30,4.0,110.0
920,81.0,0,30,8.0,110.0
921,76.0,0,60,6.0,110.0
922,81.0,15,60,0.0,100.0
923,48.0,0,60,3.0,100.0
924,60.0,0,60,5.0,110.0
925,76.0,0,0,1.0,127.0
926,79.0,0,30,8.0,110.0
927,60.0,0,0,10.0,110.0
928,69.0,0,60,4.0,110.0
929,76.0,30,30,4.0,110.0
930,48.0,30,0,7.0,110.0
931,69.0,0,0,2.0,66.0
932,77.0,0,30,8.0,110.0
933,74.0,0,30,4.0,110.0
934,76.0,0,60,6.0,110.0
935,48.0,0,60,3.0,100.0
936,76.0,30,30,8.0,110.0
937,60.0,0,60,5.0,110.0
938,69.0,0,0,2.0,66.0
939,69.0,0,60,0.0,100.0
940,72.0,0,30,4.0,110.0
941,71.0,0,30,4.0,110.0
942,74.0,0,30,8.0,110.0
943,72.0,0,30,8.0,110.0
944,77.0,0,60,1.0,127.0
945,77.0,30,60,6.0,110.0
946,62.0,0,60,5.0,110.0
947,69.0,30,30,4.0,110.0
948,74.0,0,60,0.0,100.0
949,50.0,0,60,7.0,110.0
950,50.0,0,60,3.0,100.0
951,62.0,0,60,10.0,110.0
952,68.0,0,30,4.0,110.0
953,52.0,0,60,3.0,100.0
954,64.0,0,0,10.0,110.0
955,76.0,0,60,1.0,127.0
956,52.0,0,0,7.0,110.0
957,66.0,30,30,4.0,110.0
958,71.0,0,60,0.0,100.0
959,71.0,30,60,8.0,110.0
960,64.0,0,0,5.0,110.0
961,76.0,0,60,6.0,110.0
962,68.0,0,60,2.0,66.0
963,68.0,0,30,4.0,110.0
964,74.0,0,30,1.0,127.0
965,74.0,0,30,6.0,110.0
966,72.0,0,30,6.0,110.0
967,52.0,0,60,3.0,100.0
968,68.0,0,60,2.0,66.0
969,76.0,0,60,0.0,100.0
970,76.0,30,60,8.0,110.0
971,69.0,30,30,4.0,110.0
972,72.0,0,30,1.0,127.0
973,76.0,0,15,8.0,110.0
974,74.0,15,15,8.0,110.0
975,71.0,0,30,6.0,110.0
976,68.0,0,30,4.0,110.0
977,71.0,0,30,1.0,127.0
978,72.0,0,15,8.0,110.0
979,65.0,0,60,10.0,110.0
980,69.0,0,30,4.0,110.0
981,69.0,0,30,6.0,110.0
982,74.0,30,60,0.0,100.0
983,69.0,15,30,1.0,127.0
984,74.0,15,15,8.0,110.0
985,69.0,0,60,2.0,66.0
986,65.0,0,60,5.0,110.0
987,53.0,0,60,3.0,100.0
988,53.0,0,60,7.0,110.0
989,71.0,15,30,4.0,110.0
990,68.0,0,30,1.0,127.0
991,68.0,0,30,6.0,110.0
992,76.0,0,60,8.0,110.0
993,52.0,0,60,7.0,110.0
994,72.0,30,30,4.0,110.0
995,71.0,0,60,2.0,66.0
996,66.0,0,30,6.0,110.0
997,64.0,0,60,10.0,110.0
998,52.0,0,60,3.0,100.0
999,76.0,0,0,0.0,100.0
1000,64.0,0,60,5.0,110.0
1001,66.0,0,30,1.0,127.0
1002,68.0,0,30,8.0,110.0
1003,64.0,0,30,6.0,110.0
1004,64.0,0,30,1.0,127.0
1005,62.0,0,30,10.0,110.0
1006,62.0,0,30,5.0,110.0
1007,50.0,30,30,7.0,110.0
1008,71.0,0,30,4.0,110.0
1009,50.0,0,30,3.0,100.0
1010,76.0,30,0,0.0,100.0
1011,66.0,0,30,1.0,127.0
1012,60.0,0,30,5.0,110.0
1013,66.0,0,30,6.0,110.0
1014,69.0,0,30,4.0,110.0
1015,60.0,0,30,10.0,110.0
1016,48.0,0,30,7.0,110.0
1017,71.0,0,60,2.0,66.0
1018,69.0,30,30,8.0,110.0
1019,48.0,0,30,3.0,100.0
1020,47.0,0,30,7.0,110.0
1021,71.0,0,30,8.0,110.0
1022,68.0,0,30,1.0,127.0
1023,68.0,0,30,6.0,110.0
1024,47.0,0,30,3.0,100.0
1025,68.0,0,30,4.0,110.0
1026,59.0,0,30,10.0,110.0
1027,59.0,0,30,5.0,110.0
1028,57.0,0,30,10.0,110.0
1029,72.0,30,30,8.0,110.0
1030,45.0,0,30,3.0,100.0
1031,57.0,0,30,5.0,110.0
1032,45.0,0,30,7.0,110.0
1033,69.0,0,30,6.0,110.0
1034,71.0,0,60,2.0,66.0
1035,66.0,0,30,4.0,110.0
1036,69.0,0,30,1.0,127.0
1037,74.0,0,30,8.0,110.0
1038,71.0,30,0,1.0,127.0
1039,44.0,0,60,3.0,100.0
1040,64.0,0,60,4.0,110.0
1041,56.0,0,60,5.0,110.0
1042,56.0,30,60,10.0,110.0
1043,71.0,0,0,6.0,110.0
1044,64.0,0,60,2.0,66.0
1045,44.0,0,60,7.0,110.0
1046,76.0,30,30,8.0,110.0
1047,76.0,0,60,0.0,100.0
1048,74.0,0,30,8.0,110.0
1049,52.0,0,60,5.0,110.0
1050,64.0,0,60,2.0,66.0
1051,80.0,0,60,4.0,110.0
1052,40.0,0,60,3.0,100.0
1053,80.0,0,60,0.0,100.0
1054,40.0,0,60,7.0,110.0
1055,68.0,0,60,6.0,110.0
1056,52.0,0,60,10.0,110.0
1057,72.0,30,30,8.0,110.0
1058,83.0,0,15,4.0,110.0
1059,81.0,15,15,4.0,110.0
1060,71.0,0,30,8.0,110.0
1061,80.0,0,15,4.0,110.0
1062,45.0,0,60,3.0,100.0
1063,69.0,15,30,8.0,110.0
1064,81.0,15,15,4.0,110.0
1065,64.0,0,0,2.0,66.0
1066,45.0,30,60,7.0,110.0
1067,81.0,0,60,0.0,100.0
1068,72.0,0,60,1.0,127.0
1069,57.0,0,60,10.0,110.0
1070,72.0,0,60,6.0,110.0
1071,64.0,0,60,6.0,110.0
1072,57.0,0,60,5.0,110.0
1073,68.0,0,30,6.0,110.0
1074,64.0,0,30,5.0,110.0
1075,71.0,0,30,6.0,110.0
1076,83.0,0,60,0.0,100.0
1077,64.0,0,30,6.0,110.0
1078,65.0,30,30,5.0,110.0
1079,68.0,15,60,8.0,110.0
1080,40.0,0,60,3.0,100.0
1081,40.0,0,60,7.0,110.0
1082,52.0,0,60,10.0,110.0
1083,71.0,0,60,1.0,127.0
1084,83.0,0,60,4.0,110.0
1085,69.0,0,15,8.0,110.0
1086,68.0,15,15,8.0,110.0
1087,68.0,0,30,6.0,110.0
1088,64.0,0,30,5.0,110.0
1089,69.0,15,15,8.0,110.0
1090,68.0,0,60,4.0,110.0
1091,76.0,30,60,4.0,110.0
1092,71.0,0,30,6.0,110.0
1093,52.0,0,60,3.0,100.0
1094,71.0,15,0,4.0,110.0
1095,76.0,0,60,0.0,100.0
1096,59.0,0,60,2.0,66.0
1097,59.0,0,60,7.0,110.0
1098,62.0,0,30,5.0,110.0
1099,68.0,0,60,1.0,127.0
1100,64.0,0,60,10.0,110.0
1101,68.0,15,15,8.0,110.0
1102,69.0,0,15,8.0,110.0
1103,68.0,15,15,8.0,110.0
1104,76.0,0,30,6.0,110.0
1105,60.0,0,30,5.0,110.0
1106,66.0,15,15,8.0,110.0
1107,56.0,0,60,7.0,110.0
1108,59.0,0,30,5.0,110.0
1109,52.0,0,60,10.0,110.0
1110,68.0,15,15,8.0,110.0
1111,76.0,0,0,4.0,110.0
1112,40.0,0,60,3.0,100.0
1113,74.0,0,30,6.0,110.0
1114,64.0,0,0,4.0,110.0
1115,57.0,0,30,10.0,110.0
1116,72.0,0,30,4.0,110.0
1117,76.0,0,60,0.0,100.0
1118,72.0,0,60,6.0,110.0
1119,69.0,0,30,4.0,110.0
1120,57.0,0,60,5.0,110.0
1121,60.0,0,60,2.0,66.0
1122,69.0,0,60,8.0,110.0
1123,58.0,30,30,10.0,110.0
1124,69.0,0,60,1.0,127.0
1125,45.0,0,60,3.0,100.0
1126,52.0,15,60,7.0,110.0
1127,74.0,0,15,6.0,110.0
1128,73.0,15,15,6.0,110.0
1129,73.0,0,30,4.0,110.0
1130,57.0,0,30,10.0,110.0
1131,74.0,0,15,6.0,110.0
1132,69.0,0,60,8.0,110.0
1133,57.0,0,60,7.0,110.0
1134,61.0,0,60,8.0,110.0
1135,64.0,0,60,8.0,110.0
1136,57.0,0,60,3.0,100.0
1137,64.0,0,60,5.0,110.0
1138,64.0,0,60,1.0,127.0
1139,76.0,0,30,4.0,110.0
1140,57.0,0,60,2.0,66.0
1141,73.0,15,15,6.0,110.0
1142,73.0,30,60,0.0,100.0
1143,55.0,15,30,10.0,110.0
1144,74.0,0,15,6.0,110.0
1145,53.0,0,30,10.0,110.0
1146,81.0,0,30,4.0,110.0
1147,73.0,15,15,6.0,110.0
1148,71.0,15,15,6.0,110.0
1149,52.0,0,30,10.0,110.0
1150,79.0,0,30,4.0,110.0
1151,64.0,0,60,8.0,110.0
1152,69.0,0,60,8.0,110.0
1153,45.0,0,60,7.0,110.0
1154,57.0,0,0,8.0,100.0
1155,73.0,15,15,6.0,110.0
1156,45.0,0,60,3.0,100.0
1157,61.0,0,60,5.0,110.0
1158,69.0,0,29,8.0,100.0
1159,62.0,0,29,7.0,100.0
1160,65.0,0,29,8.0,100.0
1161,64.0,30,29,7.0,100.0
1162,38.0,0,59,3.0,90.0
1163,50.0,0,59,10.0,100.0
1164,57.0,0,59,5.0,100.0
1165,74.0,0,59,6.0,100.0
1166,81.0,0,59,0.0,90.0
1167,65.0,0,59,2.0,56.0
1168,77.0,0,59,4.0,100.0
1169,62.0,0,29,8.0,100.0
1170,74.0,15,59,1.0,127.0
1171,78.0,0,14,4.0,100.0
1172,62.0,0,29,7.0,100.0
1173,79.0,15,14,4.0,100.0
1174,66.0,0,29,8.0,100.0
1175,78.0,0,14,4.0,100.0
1176,79.0,15,14,4.0,100.0
1177,74.0,30,59,6.0,100.0
1178,66.0,0,59,1.0,127.0
1179,62.0,0,59,5.0,100.0
1180,60.0,15,29,7.0,100.0
1181,69.0,0,59,6.0,100.0
1182,66.0,0,59,6.0,100.0
1183,69.0,0,59,2.0,56.0
1184,50.0,0,59,3.0,90.0
1185,74.0,0,59,0.0,90.0
1186,57.0,0,59,10.0,100.0
1187,69.0,0,29,8.0,100.0
1188,78.0,0,14,4.0,100.0
1189,74.0,0,29,8.0,100.0
1190,79.0,15,14,4.0,100.0
1191,59.0,0,29,7.0,100.0
1192,76.0,0,14,4.0,100.0
1193,69.0,0,59,6.0,100.0
1194,74.0,0,59,6.0,100.0
1195,62.0,0,59,6.0,100.0
1196,57.0,15,29,7.0,100.0
1197,54.0,0,59,10.0,100.0
1198,38.0,0,59,3.0,90.0
1199,72.0,0,29,8.0,100.0
1200,50.0,15,59,5.0,100.0
1201,78.0,15,14,4.0,100.0
1202,62.0,0,29,6.0,100.0
1203,74.0,0,29,6.0,100.0
1204,70.0,0,29,6.0,100.0
1205,67.0,0,29,5.0,100.0
1206,55.0,0,59,7.0,100.0
1207,79.0,0,59,4.0,100.0
1208,74.0,0,59,0.0,90.0
1209,67.0,30,29,6.0,100.0
1210,43.0,0,59,3.0,90.0
1211,50.0,0,59,10.0,100.0
1212,58.0,0,59,2.0,56.0
1213,69.0,0,29,5.0,100.0
1214,70.0,15,59,8.0,100.0
1215,67.0,0,59,1.0,127.0
1216,72.0,0,14,8.0,100.0
1217,71.0,15,14,8.0,100.0
1218,67.0,0,29,5.0,100.0
1219,71.0,30,29,6.0,100.0
1220,72.0,15,14,8.0,100.0
1221,55.0,0,59,3.0,90.0
1222,62.0,0,59,7.0,100.0
1223,71.0,15,14,8.0,100.0
1224,55.0,0,59,2.0,56.0
1225,74.0,0,59,4.0,100.0
1226,62.0,0,59,1.0,127.0
1227,65.0,0,29,5.0,100.0
1228,74.0,0,29,6.0,100.0
1229,55.0,0,59,10.0,100.0
1230,71.0,0,59,0.0,90.0
1231,71.0,0,59,4.0,100.0
1232,79.0,0,59,4.0,100.0
1233,72.0,0,14,8.0,100.0
1234,71.0,15,14,8.0,100.0
1235,79.0,0,29,6.0,100.0
1236,64.0,0,29,5.0,100.0
1237,69.0,15,14,8.0,100.0
1238,43.0,0,59,10.0,100.0
1239,77.0,0,29,6.0,100.0
1240,79.0,0,59,4.0,100.0
1241,62.0,0,29,5.0,100.0
1242,43.0,0,59,3.0,90.0
1243,74.0,15,59,4.0,100.0
1244,59.0,0,59,7.0,100.0
1245,67.0,0,59,4.0,100.0
1246,71.0,15,14,8.0,100.0
1247,76.0,15,29,4.0,100.0
1248,67.0,0,29,4.0,100.0
1249,60.0,0,29,10.0,100.0
1250,79.0,0,29,4.0,100.0
1251,62.0,30,29,10.0,100.0
1252,64.0,0,59,2.0,56.0
1253,76.0,0,59,6.0,100.0
1254,55.0,0,59,7.0,100.0
1255,48.0,0,59,3.0,90.0
1256,72.0,0,59,8.0,100.0
1257,72.0,0,29,4.0,100.0
1258,72.0,0,59,1.0,127.0
1259,60.0,0,59,5.0,100.0
1260,79.0,0,59,0.0,90.0
1261,77.0,0,14,6.0,100.0
1262,60.0,0,29,10.0,100.0
1263,76.0,0,29,4.0,100.0
1264,76.0,15,14,6.0,100.0
1265,77.0,0,14,6.0,100.0
1266,58.0,0,29,10.0,100.0
1267,67.0,0,59,5.0,100.0
1268,67.0,0,59,2.0,56.0
1269,67.0,0,59,8.0,100.0
1270,64.0,0,59,1.0,127.0
1271,64.0,0,59,8.0,100.0
1272,72.0,0,59,8.0,100.0
1273,60.0,0,59,7.0,100.0
1274,60.0,0,59,3.0,90.0
1275,72.0,30,59,0.0,90.0
1276,76.0,15,14,6.0,100.0
1277,79.0,15,29,4.0,100.0
1278,77.0,0,14,6.0,100.0
1279,84.0,0,29,4.0,100.0
1280,76.0,15,14,6.0,100.0
1281,57.0,0,29,10.0,100.0
1282,74.0,0,14,6.0,100.0
1283,48.0,0,59,7.0,100.0
1284,72.0,15,59,8.0,100.0
1285,55.0,0,29,10.0,100.0
1286,64.0,0,59,5.0,100.0
1287,67.0,0,59,8.0,100.0
1288,60.0,0,59,8.0,100.0
1289,48.0,0,59,3.0,90.0
1290,83.0,15,29,4.0,100.0
1291,76.0,15,14,6.0,100.0
1292,81.0,0,29,4.0,100.0
1293,81.0,0,29,0.0,90.0
1294,69.0,0,29,8.0,100.0
1295,72.0,0,29,8.0,100.0
1296,60.0,0,29,8.0,100.0
1297,65.0,0,59,2.0,56.0
1298,71.0,30,29,8.0,100.0
1299,60.0,15,59,5.0,100.0
1300,80.0,0,29,4.0,100.0
1301,77.0,0,59,6.0,100.0
1302,53.0,0,59,7.0,100.0
1303,72.0,0,59,1.0,127.0
1304,53.0,0,59,3.0,90.0
1305,53.0,0,59,10.0,100.0
1306,80.0,0,29,0.0,90.0
1307,72.0,0,29,8.0,100.0
1308,81.0,0,29,4.0,100.0
1309,81.0,0,29,0.0,90.0
1310,72.0,0,59,1.0,127.0
1311,52.0,0,59,3.0,90.0
1312,52.0,0,59,7.0,100.0
1313,69.0,0,29,8.0,100.0
1314,69.0,0,59,6.0,100.0
1315,65.0,0,59,2.0,56.0
1316,52.0,0,59,10.0,100.0
1317,72.0,0,59,6.0,100.0
1318,84.0,0,29,0.0,90.0
1319,84.0,30,29,4.0,100.0
1320,77.0,0,59,6.0,100.0
1321,57.0,30,59,5.0,100.0
1322,83.0,0,29,0.0,90.0
1323,83.0,0,29,4.0,100.0
1324,65.0,0,29,8.0,100.0
1325,81.0,0,29,4.0,100.0
1326,65.0,0,59,2.0,56.0
1327,50.0,0,59,10.0,100.0
1328,74.0,0,59,6.0,100.0
1329,50.0,0,59,7.0,100.0
1330,81.0,30,29,0.0,90.0
1331,50.0,0,59,3.0,90.0
1332,71.0,30,59,6.0,100.0
1333,77.0,0,59,6.0,100.0
1334,62.0,0,59,5.0,100.0
1335,74.0,0,29,8.0,100.0
1336,77.0,0,59,1.0,127.0
1337,80.0,0,29,0.0,90.0
1338,80.0,30,29,4.0,100.0
1339,52.0,0,29,7.0,100.0
1340,71.0,0,29,8.0,100.0
1341,76.0,0,58,6.0,100.0
1342,68.0,0,58,6.0,100.0
1343,71.0,0,58,6.0,100.0
1344,78.0,0,29,0.0,90.0
1345,76.0,0,59,1.0,127.0
1346,64.0,0,59,5.0,100.0
1347,59.0,0,59,2.0,56.0
1348,78.0,0,29,4.0,100.0
1349,72.0,0,29,8.0,100.0
1350,64.0,30,29,7.0,100.0
1351,52.0,0,59,10.0,100.0
1352,52.0,0,59,3.0,90.0
1353,68.0,0,29,6.0,100.0
1354,71.0,0,29,8.0,100.0
1355,76.0,0,29,4.0,100.0
1356,62.0,0,29,7.0,100.0
1357,62.0,0,29,5.0,100.0
1358,50.0,0,29,3.0,90.0
1359,50.0,0,29,10.0,100.0
1360,76.0,30,29,0.0,90.0
1361,48.0,0,29,10.0,100.0
1362,71.0,0,59,1.0,127.0
1363,60.0,0,29,7.0,100.0
1364,68.0,0,59,2.0,56.0
1365,78.0,0,29,0.0,90.0
1366,78.0,0,29,4.0,100.0
1367,69.0,0,29,8.0,100.0
1368,69.0,0,29,6.0,100.0
1369,48.0,30,29,3.0,90.0
1370,60.0,0,29,5.0,100.0
1371,59.0,0,29,5.0,100.0
1372,80.0,0,29,4.0,100.0
1373,47.0,0,29,10.0,100.0
1374,59.0,0,29,7.0,100.0
1375,80.0,0,29,0.0,90.0
1376,68.0,0,29,8.0,100.0
1377,71.0,0,29,6.0,100.0
1378,47.0,0,29,3.0,90.0
1379,66.0,30,29,8.0,100.0
1380,45.0,0,29,10.0,100.0
1381,72.0,0,29,6.0,100.0
1382,45.0,0,29,3.0,90.0
1383,71.0,0,59,2.0,56.0
1384,57.0,0,29,5.0,100.0
1385,57.0,0,29,7.0,100.0
1386,81.0,0,29,0.0,90.0
1387,76.0,30,59,1.0,127.0
1388,81.0,0,29,4.0,100.0
1389,74.0,0,29,6.0,100.0
1390,64.0,0,59,8.0,100.0
1391,56.0,0,59,5.0,100.0
1392,56.0,0,59,7.0,100.0
1393,74.0,0,59,2.0,56.0
1394,76.0,30,29,6.0,100.0
1395,83.0,0,59,4.0,100.0
1396,44.0,0,59,10.0,100.0
1397,83.0,0,59,0.0,90.0
1398,44.0,30,59,3.0,90.0
1399,76.0,0,59,1.0,127.0
1400,74.0,0,29,6.0,100.0
1401,40.0,0,59,10.0,100.0
1402,80.0,0,59,4.0,100.0
1403,83.0,30,59,0.0,90.0
1404,76.0,0,59,4.0,100.0
1405,74.0,0,59,8.0,100.0
1406,76.0,0,59,8.0,100.0
1407,80.0,0,59,8.0,100.0
1408,52.0,0,59,5.0,100.0
1409,83.0,0,59,4.0,100.0
1410,76.0,0,59,1.0,127.0
1411,68.0,0,59,2.0,56.0
1412,72.0,30,29,6.0,100.0
1413,40.0,0,59,3.0,90.0
1414,52.0,0,59,7.0,100.0
1415,71.0,0,29,6.0,100.0
1416,64.0,30,59,2.0,56.0
1417,69.0,30,29,6.0,100.0
1418,45.0,0,59,10.0,100.0
1419,72.0,0,59,8.0,100.0
1420,76.0,0,59,8.0,100.0
1421,81.0,0,59,8.0,100.0
1422,84.0,0,59,0.0,90.0
1423,76.0,0,59,1.0,127.0
1424,45.0,0,59,3.0,90.0
1425,57.0,0,59,7.0,100.0
1426,76.0,0,59,4.0,100.0
1427,84.0,0,59,4.0,100.0
1428,57.0,0,59,5.0,100.0
1429,81.0,0,59,4.0,100.0
1430,68.0,0,59,2.0,56.0
1431,83.0,0,59,8.0,100.0
1432,80.0,0,59,8.0,100.0
1433,76.0,0,59,8.0,100.0
1434,83.0,0,59,0.0,90.0
1435,76.0,0,59,1.0,127.0
1436,68.0,30,59,4.0,100.0
1437,76.0,0,59,4.0,100.0
1438,52.0,0,59,10.0,100.0
1439,64.0,0,59,7.0,100.0
1440,40.0,0,59,3.0,90.0
1441,64.0,0,59,5.0,100.0
1442,68.0,0,59,6.0,100.0
1443,83.0,0,59,4.0,100.0
1444,40.0,0,29,3.0,90.0
1445,52.0,0,29,7.0,100.0
1446,52.0,0,29,5.0,100.0
1447,40.0,0,29,10.0,100.0
1448,86.0,60,59,4.0,100.0
1449,42.0,0,29,3.0,90.0
1450,54.0,0,29,5.0,100.0
1451,86.0,0,59,0.0,90.0
1452,42.0,0,29,10.0,100.0
1453,54.0,30,29,7.0,100.0
1454,44.0,0,29,3.0,90.0
1455,44.0,0,29,10.0,100.0
1456,56.0,0,29,5.0,100.0
1457,56.0,0,29,7.0,100.0
1458,57.0,0,29,7.0,100.0
1459,86.0,30,59,4.0,100.0
1460,86.0,0,59,0.0,90.0
1461,45.0,0,29,10.0,100.0
1462,57.0,0,29,5.0,100.0
1463,45.0,30,29,3.0,90.0
1464,59.0,0,29,7.0,100.0
1465,47.0,0,29,10.0,100.0
1466,47.0,0,29,3.0,90.0
1467,59.0,30,29,5.0,100.0
1468,80.0,0,59,4.0,100.0
1469,45.0,0,29,3.0,90.0
1470,57.0,0,29,7.0,100.0
1471,45.0,0,29,10.0,100.0
1472,80.0,0,59,0.0,90.0
1473,57.0,30,29,5.0,100.0
1474,56.0,0,29,5.0,100.0
1475,44.0,0,29,10.0,100.0
1476,44.0,0,29,3.0,90.0
1477,56.0,0,29,7.0,100.0
1478,57.0,30,29,7.0,100.0
1479,74.0,30,59,2.0,56.0
1480,83.0,0,59,0.0,90.0
1481,83.0,0,59,4.0,100.0
1482,45.0,0,29,3.0,90.0
1483,57.0,0,29,5.0,100.0
1484,45.0,0,29,10.0,100.0
1485,74.0,0,59,8.0,100.0
1486,47.0,0,29,10.0,100.0
1487,59.0,0,29,7.0,100.0
1488,47.0,30,29,3.0,90.0
1489,59.0,0,29,5.0,100.0
1490,48.0,0,29,3.0,90.0
1491,60.0,30,29,7.0,100.0
1492,74.0,0,59,8.0,100.0
1493,74.0,0,59,2.0,56.0
1494,83.0,0,59,0.0,90.0
1495,83.0,0,59,4.0,100.0
1496,48.0,0,29,10.0,100.0
1497,60.0,0,29,5.0,100.0
1498,50.0,30,29,10.0,100.0
1499,62.0,0,29,7.0,100.0
1500,50.0,0,29,3.0,90.0
1501,62.0,0,29,5.0,100.0
1502,48.0,30,29,10.0,100.0
1503,60.0,0,29,5.0,100.0
1504,48.0,0,29,3.0,90.0
1505,76.0,0,59,0.0,90.0
1506,76.0,0,59,4.0,100.0
1507,68.0,0,59,8.0,100.0
1508,68.0,0,59,2.0,56.0
1509,60.0,0,29,7.0,100.0
1510,47.0,0,29,3.0,90.0
1511,59.0,0,29,7.0,100.0
1512,59.0,30,29,5.0,100.0
1513,47.0,0,29,10.0,100.0
1514,80.0,0,59,0.0,90.0
1515,71.0,0,59,8.0,100.0
1516,48.0,0,29,10.0,100.0
1517,80.0,0,59,4.0,100.0
1518,48.0,30,29,3.0,90.0
1519,74.0,0,59,1.0,127.0
1520,74.0,0,59,6.0,100.0
1521,60.0,0,29,7.0,100.0
1522,71.0,0,59,2.0,56.0
1523,60.0,0,29,5.0,100.0
1524,62.0,0,29,5.0,100.0
1525,50.0,0,29,10.0,100.0
1526,62.0,0,29,7.0,100.0
1527,50.0,0,29,3.0,90.0
1528,64.0,0,29,5.0,100.0
1529,52.0,30,29,3.0,90.0
1530,64.0,0,29,7.0,100.0
1531,80.0,0,59,0.0,90.0
1532,71.0,0,59,8.0,100.0
1533,74.0,30,59,1.0,127.0
1534,80.0,0,59,4.0,100.0
1535,52.0,0,29,10.0,100.0
1536,71.0,0,59,2.0,56.0
1537,74.0,0,59,6.0,100.0
1538,53.0,30,29,10.0,100.0
1539,53.0,0,29,3.0,90.0
1540,65.0,0,29,7.0,100.0
1541,65.0,0,29,5.0,100.0
1542,71.0,0,59,4.0,100.0
1543,52.0,30,29,3.0,90.0
1544,64.0,0,29,7.0,100.0
1545,64.0,0,29,5.0,100.0
1546,71.0,0,59,0.0,90.0
1547,62.0,0,59,2.0,56.0
1548,62.0,0,59,8.0,100.0
1549,68.0,0,59,6.0,100.0
1550,68.0,0,59,1.0,127.0
1551,52.0,0,29,10.0,100.0
1552,50.0,0,29,10.0,100.0
1553,62.0,0,29,5.0,100.0
1554,50.0,0,29,3.0,90.0
1555,62.0,0,29,7.0,100.0
1556,71.0,0,59,6.0,100.0
1557,65.0,0,59,2.0,56.0
1558,74.0,0,59,4.0,100.0
1559,74.0,30,59,0.0,90.0
1560,60.0,0,29,7.0,100.0
1561,60.0,30,29,5.0,100.0
1562,71.0,0,59,1.0,127.0
1563,48.0,0,29,10.0,100.0
1564,65.0,0,59,8.0,100.0
1565,48.0,0,29,3.0,90.0
1566,59.0,0,29,7.0,100.0
1567,47.0,30,29,3.0,90.0
1568,47.0,0,29,10.0,100.0
1569,59.0,0,29,5.0,100.0
1570,45.0,30,29,10.0,100.0
1571,71.0,0,59,1.0,127.0
1572,71.0,0,59,6.0,100.0
1573,65.0,0,59,8.0,100.0
1574,74.0,0,59,4.0,100.0
1575,65.0,0,59,2.0,56.0
1576,74.0,0,59,0.0,90.0
1577,57.0,0,29,5.0,100.0
1578,57.0,0,29,7.0,100.0
1579,45.0,0,29,3.0,90.0
1580,64.0,0,29,4.0,100.0
1581,64.0,0,29,6.0,100.0
1582,44.0,0,29,10.0,100.0
1583,64.0,0,29,0.0,90.0
1584,56.0,30,29,5.0,100.0
1585,44.0,0,29,3.0,90.0
1586,56.0,0,29,7.0,100.0
1587,59.0,0,29,8.0,100.0
1588,59.0,0,59,2.0,56.0
1589,71.0,0,59,1.0,127.0
1590,59.0,0,29,7.0,100.0
1591,64.0,0,29,8.0,100.0
1592,68.0,0,29,4.0,100.0
1593,47.0,0,29,10.0,100.0
1594,59.0,30,29,5.0,100.0
1595,71.0,0,29,6.0,100.0
1596,68.0,0,29,0.0,90.0
1597,47.0,0,29,3.0,90.0
1598,68.0,0,29,8.0,100.0
1599,71.0,0,29,0.0,90.0
1600,52.0,0,29,7.0,100.0
1601,40.0,0,29,3.0,90.0
1602,68.0,30,29,6.0,100.0
1603,64.0,0,29,5.0,100.0
1604,71.0,0,29,4.0,100.0
1605,40.0,0,29,10.0,100.0
1606,44.0,0,29,10.0,100.0
1607,71.0,0,29,8.0,100.0
1608,74.0,0,29,0.0,90.0
1609,64.0,0,29,6.0,100.0
1610,74.0,0,29,4.0,100.0
1611,71.0,0,59,1.0,127.0
1612,56.0,0,29,5.0,100.0
1613,44.0,30,29,3.0,90.0
1614,68.0,0,59,2.0,56.0
1615,56.0,0,29,7.0,100.0
1616,64.0,0,59,2.0,56.0
1617,57.0,30,59,5.0,100.0
1618,72.0,0,59,0.0,90.0
1619,45.0,0,59,3.0,90.0
1620,76.0,0,59,6.0,100.0
1621,72.0,0,59,4.0,100.0
1622,69.0,0,59,1.0,127.0
1623,57.0,0,59,7.0,100.0
1624,45.0,0,59,10.0,100.0
1625,69.0,0,59,8.0,100.0
1626,38.0,0,29,3.0,90.0
1627,65.0,90,29,8.0,100.0
1628,71.0,0,29,4.0,100.0
1629,38.0,0,29,10.0,100.0
1630,50.0,0,29,7.0,100.0
1631,81.0,0,29,1.0,127.0
1632,71.0,0,29,0.0,90.0
1633,65.0,0,29,2.0,56.0
1634,81.0,0,29,6.0,100.0
1635,50.0,0,29,5.0,100.0
1636,64.0,0,59,2.0,56.0
1637,64.0,0,59,8.0,100.0
1638,40.0,30,59,3.0,90.0
1639,52.0,0,59,7.0,100.0
1640,52.0,0,59,5.0,100.0
1641,40.0,0,59,10.0,100.0
1642,71.0,0,89,0.0,90.0
1643,80.0,0,89,6.0,100.0
1644,71.0,0,89,4.0,100.0
1645,80.0,0,89,1.0,127.0
1646,81.0,30,29,1.0,127.0
1647,69.0,0,29,4.0,100.0
1648,40.0,0,59,3.0,90.0
1649,62.0,0,59,8.0,100.0
1650,40.0,0,59,5.0,100.0
1651,52.0,0,59,10.0,100.0
1652,81.0,0,29,6.0,100.0
1653,69.0,0,29,0.0,90.0
1654,40.0,0,59,7.0,100.0
1655,62.0,60,59,2.0,56.0
1656,45.0,30,29,7.0,100.0
1657,60.0,0,29,8.0,100.0
1658,60.0,0,59,2.0,56.0
1659,69.0,0,59,4.0,100.0
1660,57.0,0,29,8.0,100.0
1661,69.0,0,59,0.0,90.0
1662,81.0,0,59,6.0,100.0
1663,45.0,0,59,5.0,100.0
1664,81.0,0,59,1.0,127.0
1665,57.0,30,29,7.0,100.0
1666,60.0,30,29,8.0,100.0
1667,52.0,0,29,7.0,100.0
1668,45.0,0,119,10.0,100.0
1669,69.0,0,59,5.0,100.0
1670,57.0,30,29,7.0,100.0
1671,45.0,0,119,3.0,90.0
1672,64.0,0,29,8.0,100.0
1673,48.0,30,29,7.0,100.0
1674,60.0,0,29,8.0,100.0
1675,64.0,0,59,5.0,100.0
1676,57.0,30,29,8.0,100.0
1677,52.0,0,29,7.0,100.0
1678,60.0,0,29,5.0,100.0
1679,64.0,0,29,8.0,100.0
1680,64.0,0,29,5.0,100.0
1681,60.0,0,59,1.0,127.0
1682,64.0,0,59,0.0,90.0
1683,60.0,0,29,8.0,100.0
1684,57.0,0,59,2.0,56.0
1685,57.0,30,29,6.0,100.0
1686,57.0,0,29,5.0,100.0
1687,64.0,0,29,8.0,100.0
1688,60.0,30,29,6.0,100.0
1689,64.0,30,29,6.0,100.0
1690,45.0,0,119,10.0,100.0
1691,69.0,0,29,8.0,100.0
1692,45.0,30,119,7.0,100.0
1693,45.0,0,119,3.0,90.0
1694,59.0,0,29,5.0,100.0
1695,60.0,30,29,5.0,100.0
1696,60.0,0,29,6.0,100.0
1697,64.0,0,29,8.0,100.0
1698,62.0,0,29,5.0,100.0
1699,57.0,30,29,6.0,100.0
1700,60.0,0,29,8.0,100.0
1701,69.0,0,29,8.0,100.0
1702,64.0,0,29,6.0,100.0
1703,64.0,0,29,8.0,100.0
1704,60.0,0,59,0.0,90.0
1705,69.0,30,29,4.0,100.0
1706,57.0,0,59,1.0,127.0
1707,52.0,0,59,2.0,56.0
1708,64.0,30,59,5.0,100.0
1709,60.0,0,29,6.0,100.0
1710,69.0,0,29,8.0,100.0
1711,64.0,0,29,6.0,100.0
1712,72.0,0,29,4.0,100.0
1713,57.0,0,59,7.0,100.0
1714,57.0,0,59,3.0,90.0
1715,57.0,30,59,5.0,100.0
1716,69.0,0,29,6.0,100.0
1717,76.0,0,29,4.0,100.0
1718,57.0,0,59,10.0,100.0
1719,72.0,30,29,8.0,100.0
1720,64.0,0,29,6.0,100.0
1721,72.0,0,29,4.0,100.0
1722,69.0,0,29,8.0,100.0
1723,55.0,0,59,10.0,100.0
1724,55.0,0,59,3.0,90.0
1725,55.0,30,59,7.0,100.0
1726,60.0,0,29,6.0,100.0
1727,55.0,0,59,5.0,100.0
1728,64.0,30,29,8.0,100.0
1729,69.0,0,29,4.0,100.0
1730,69.0,0,29,8.0,100.0
1731,72.0,30,29,6.0,100.0
1732,53.0,0,59,7.0,100.0
1733,53.0,0,59,5.0,100.0
1734,79.0,0,29,4.0,100.0
1735,69.0,30,29,6.0,100.0
1736,53.0,0,59,10.0,100.0
1737,53.0,0,59,3.0,90.0
1738,61.0,0,29,8.0,100.0
1739,81.0,0,60,4.0,100.0
1740,71.0,0,29,6.0,100.0
1741,77.0,0,29,4.0,100.0
1742,62.0,0,29,8.0,100.0
1743,53.0,0,59,7.0,100.0
1744,76.0,0,29,4.0,100.0
1745,64.0,0,29,8.0,100.0
1746,65.0,0,59,2.0,56.0
1747,73.0,30,29,6.0,100.0
1748,74.0,0,59,1.0,127.0
1749,53.0,0,59,3.0,90.0
1750,81.0,0,59,0.0,90.0
1751,53.0,0,59,10.0,100.0
1752,53.0,0,59,5.0,100.0
1753,81.0,30,60,4.0,100.0
1754,74.0,0,29,4.0,100.0
1755,74.0,0,29,6.0,100.0
1756,65.0,0,29,8.0,100.0
1757,52.0,0,59,10.0,100.0
1758,73.0,0,29,4.0,100.0
1759,73.0,0,59,1.0,127.0
1760,67.0,30,29,8.0,100.0
1761,52.0,0,59,3.0,90.0
1762,67.0,30,59,2.0,56.0
1763,52.0,0,59,7.0,100.0
1764,76.0,0,29,6.0,100.0
1765,79.0,0,59,0.0,90.0
1766,52.0,0,59,5.0,100.0
1767,79.0,0,60,4.0,100.0
1768,50.0,0,29,10.0,100.0
1769,77.0,0,29,4.0,100.0
1770,74.0,0,29,4.0,100.0
1771,77.0,30,59,6.0,100.0
1772,69.0,0,59,8.0,100.0
1773,50.0,0,59,7.0,100.0
1774,50.0,0,59,5.0,100.0
1775,62.0,0,29,10.0,100.0
1776,74.0,0,59,1.0,127.0
1777,69.0,0,59,2.0,56.0
1778,62.0,30,29,4.0,100.0
1779,77.0,0,59,0.0,90.0
1780,65.0,0,29,4.0,100.0
1781,57.0,0,29,10.0,100.0
1782,50.0,0,119,3.0,90.0
1783,62.0,0,29,10.0,100.0
1784,69.0,30,29,4.0,100.0
1785,62.0,30,59,7.0,100.0
1786,53.0,30,29,10.0,100.0
1787,65.0,0,29,4.0,100.0
1788,57.0,30,29,10.0,100.0
1789,62.0,0,29,4.0,100.0
1790,57.0,0,59,7.0,100.0
1791,69.0,0,29,4.0,100.0
1792,53.0,0,29,7.0,100.0
1793,62.0,0,29,8.0,100.0
1794,57.0,0,29,7.0,100.0
1795,65.0,0,59,2.0,56.0
1796,69.0,0,59,1.0,127.0
1797,74.0,0,59,0.0,90.0
1798,50.0,30,59,5.0,100.0
1799,65.0,30,29,4.0,100.0
1800,50.0,30,29,7.0,100.0
1801,69.0,0,29,4.0,100.0
1802,65.0,0,29,8.0,100.0
1803,50.0,0,119,3.0,90.0
1804,69.0,0,29,8.0,100.0
1805,74.0,0,29,4.0,100.0
1806,52.0,30,29,7.0,100.0
1807,50.0,0,119,10.0,100.0
1808,65.0,0,29,8.0,100.0
1809,53.0,0,29,7.0,100.0
1810,69.0,30,29,4.0,100.0
1811,62.0,0,29,8.0,100.0
1812,65.0,0,29,4.0,100.0
1813,55.0,30,29,7.0,100.0
1814,74.0,0,29,4.0,100.0
1815,69.0,30,29,8.0,100.0
1816,65.0,0,59,1.0,127.0
1817,69.0,0,29,4.0,100.0
1818,62.0,0,59,2.0,56.0
1819,69.0,0,59,0.0,90.0
1820,57.0,0,59,7.0,100.0
1821,74.0,30,29,6.0,100.0
1822,65.0,0,29,8.0,100.0
1823,74.0,0,29,4.0,100.0
1824,69.0,0,29,8.0,100.0
1825,77.0,0,29,6.0,100.0
1826,77.0,30,29,4.0,100.0
1827,74.0,0,29,8.0,100.0
1828,50.0,0,59,7.0,100.0
1829,81.0,0,29,6.0,100.0
1830,50.0,0,59,3.0,90.0
1831,62.0,0,59,5.0,100.0
1832,62.0,30,59,10.0,100.0
1833,69.0,0,29,8.0,100.0
1834,74.0,0,29,4.0,100.0
1835,77.0,30,29,6.0,100.0
1836,60.0,0,59,10.0,100.0
1837,65.0,0,29,8.0,100.0
1838,48.0,0,59,7.0,100.0
1839,48.0,0,59,3.0,90.0
1840,74.0,0,29,6.0,100.0
1841,69.0,30,29,4.0,100.0
1842,60.0,0,59,5.0,100.0
1843,74.0,0,29,4.0,100.0
1844,77.0,0,29,8.0,100.0
1845,66.0,0,29,4.0,100.0
1846,84.0,0,29,6.0,100.0
1847,46.0,30,59,7.0,100.0
1848,58.0,0,59,10.0,100.0
1849,58.0,0,59,5.0,100.0
1850,46.0,0,59,3.0,90.0
1851,74.0,30,29,8.0,100.0
1852,86.0,0,60,6.0,100.0
1853,82.0,0,29,6.0,100.0
1854,67.0,0,29,4.0,100.0
1855,76.0,0,29,8.0,100.0
1856,58.0,0,59,5.0,100.0
1857,81.0,0,29,6.0,100.0
1858,86.0,0,59,0.0,90.0
1859,69.0,0,29,4.0,100.0
1860,79.0,0,59,1.0,127.0
1861,46.0,30,59,3.0,90.0
1862,78.0,30,29,8.0,100.0
1863,46.0,0,59,7.0,100.0
1864,70.0,0,59,2.0,56.0
1865,58.0,0,59,10.0,100.0
1866,86.0,0,60,6.0,100.0
1867,79.0,0,29,8.0,100.0
1868,79.0,0,29,6.0,100.0
1869,70.0,0,29,4.0,100.0
1870,72.0,0,59,2.0,56.0
1871,78.0,0,59,1.0,127.0
1872,84.0,0,59,0.0,90.0
1873,81.0,30,29,8.0,100.0
1874,45.0,0,59,7.0,100.0
1875,57.0,0,59,5.0,100.0
1876,72.0,0,29,4.0,100.0
1877,45.0,0,59,3.0,90.0
1878,78.0,0,29,6.0,100.0
1879,57.0,30,59,10.0,100.0
1880,84.0,0,60,6.0,100.0
1881,74.0,0,15,4.0,100.0
1882,82.0,0,19,6.0,100.0
1883,67.0,15,14,4.0,100.0
1884,82.0,0,29,8.0,100.0
1885,43.0,0,29,7.0,100.0
1886,84.0,5,19,6.0,100.0
1887,69.0,0,14,4.0,100.0
1888,55.0,0,59,5.0,100.0
1889,70.0,5,14,4.0,100.0
1890,82.0,30,59,0.0,90.0
1891,55.0,0,29,7.0,100.0
1892,74.0,0,59,2.0,56.0
1893,79.0,0,59,1.0,127.0
1894,82.0,10,19,6.0,100.0
1895,81.0,10,29,8.0,100.0
1896,43.0,0,59,3.0,90.0
1897,79.0,0,60,6.0,100.0
1898,72.0,0,14,4.0,100.0
1899,84.0,0,14,6.0,100.0
1900,58.0,0,29,7.0,100.0
1901,74.0,0,14,4.0,100.0
1902,82.0,15,14,6.0,100.0
1903,76.0,0,14,4.0,100.0
1904,84.0,15,14,6.0,100.0
1905,43.0,15,59,3.0,90.0
1906,77.0,0,14,4.0,100.0
1907,82.0,15,14,6.0,100.0
1908,79.0,0,59,8.0,100.0
1909,62.0,0,29,7.0,100.0
1910,84.0,0,9,6.0,100.0
1911,79.0,15,14,4.0,100.0
1912,82.0,10,9,6.0,100.0
1913,77.0,5,14,4.0,100.0
1914,84.0,5,9,6.0,100.0
1915,58.0,0,29,7.0,100.0
1916,82.0,0,9,6.0,100.0
1917,76.0,10,14,4.0,100.0
1918,84.0,10,9,6.0,100.0
1919,55.0,0,29,7.0,100.0
1920,74.0,5,14,4.0,100.0
1921,43.0,0,59,3.0,90.0
1922,82.0,5,9,6.0,100.0
1923,77.0,0,59,8.0,100.0
1924,84.0,0,9,6.0,100.0
1925,76.0,0,14,4.0,100.0
1926,76.0,0,19,8.0,100.0
1927,82.0,10,9,6.0,100.0
1928,60.0,5,14,4.0,100.0
1929,84.0,0,9,6.0,100.0
1930,55.0,0,210,10.0,100.0
1931,77.0,5,19,8.0,100.0
1932,62.0,0,14,4.0,100.0
1933,81.0,10,14,6.0,100.0
1934,48.0,0,29,10.0,100.0
1935,79.0,5,14,6.0,100.0
1936,64.0,0,14,4.0,100.0
1937,82.0,0,59,0.0,90.0
1938,48.0,10,59,3.0,90.0
1939,76.0,0,59,1.0,127.0
1940,76.0,10,19,8.0,100.0
1941,72.0,0,59,2.0,56.0
1942,77.0,0,14,8.0,100.0
1943,65.0,0,14,4.0,100.0
1944,52.0,0,29,10.0,100.0
1945,67.0,0,14,4.0,100.0
1946,76.0,15,14,8.0,100.0
1947,77.0,15,14,8.0,100.0
1948,69.0,0,14,4.0,100.0
1949,84.0,0,59,6.0,100.0
1950,76.0,15,14,8.0,100.0
1951,48.0,15,59,3.0,90.0
1952,55.0,0,29,10.0,100.0
1953,70.0,0,14,4.0,100.0
1954,77.0,0,9,8.0,100.0
1955,72.0,0,14,4.0,100.0
1956,76.0,10,9,8.0,100.0
1957,70.0,5,14,4.0,100.0
1958,77.0,5,9,8.0,100.0
1959,52.0,0,29,10.0,100.0
1960,76.0,10,9,8.0,100.0
1961,69.0,0,14,4.0,100.0
1962,77.0,10,9,8.0,100.0
1963,67.0,5,14,4.0,100.0
1964,48.0,0,29,10.0,100.0
1965,48.0,15,59,3.0,90.0
1966,76.0,5,9,8.0,100.0
1967,82.0,0,59,6.0,100.0
1968,82.0,0,14,6.0,100.0
1969,69.0,10,14,4.0,100.0
1970,77.0,0,14,8.0,100.0
1971,76.0,0,14,8.0,100.0
1972,65.0,0,14,4.0,100.0
1973,81.0,15,14,6.0,100.0
1974,60.0,0,210,7.0,100.0
1975,74.0,15,14,8.0,100.0
1976,82.0,0,14,6.0,100.0
1977,67.0,0,14,4.0,100.0
1978,69.0,15,14,4.0,100.0
1979,81.0,0,14,6.0,100.0
1980,72.0,0,14,8.0,100.0
1981,53.0,0,29,7.0,100.0
1982,72.0,0,59,2.0,56.0
1983,81.0,0,59,0.0,90.0
1984,76.0,0,59,1.0,127.0
1985,41.0,0,59,3.0,90.0
1986,82.0,0,9,6.0,100.0
1987,70.0,15,14,4.0,100.0
1988,81.0,10,9,6.0,100.0
1989,72.0,5,14,4.0,100.0
1990,82.0,5,9,6.0,100.0
1991,57.0,0,29,7.0,100.0
1992,81.0,0,9,6.0,100.0
1993,74.0,10,14,4.0,100.0
1994,82.0,10,9,6.0,100.0
1995,81.0,5,9,6.0,100.0
1996,60.0,0,29,7.0,100.0
1997,76.0,5,14,4.0,100.0
1998,41.0,0,59,3.0,90.0
1999,77.0,0,59,8.0,100.0
2000,82.0,0,9,6.0,100.0
2001,77.0,0,14,4.0,100.0
2002,81.0,10,9,6.0,100.0
2003,57.0,10,29,7.0,100.0
2004,82.0,5,9,6.0,100.0
2005,76.0,5,14,4.0,100.0
2006,81.0,0,9,6.0,100.0
2007,74.0,0,14,4.0,100.0
2008,82.0,10,9,6.0,100.0
2009,41.0,0,59,3.0,90.0
2010,53.0,10,29,7.0,100.0
2011,81.0,5,9,6.0,100.0
2012,72.0,5,14,4.0,100.0
2013,76.0,0,59,8.0,100.0
2014,74.0,0,14,4.0,100.0
2015,82.0,0,14,6.0,100.0
2016,74.0,0,19,8.0,100.0
2017,81.0,0,14,6.0,100.0
2018,58.0,15,14,4.0,100.0
2019,53.0,0,210,10.0,100.0
2020,76.0,5,19,8.0,100.0
2021,79.0,10,14,6.0,100.0
2022,60.0,0,14,4.0,100.0
2023,62.0,5,14,4.0,100.0
2024,77.0,0,14,6.0,100.0
2025,46.0,10,59,3.0,90.0
2026,74.0,10,19,8.0,100.0
2027,81.0,0,59,0.0,90.0
2028,46.0,0,29,10.0,100.0
2029,74.0,0,59,1.0,127.0
2030,70.0,0,59,2.0,56.0
2031,76.0,0,14,8.0,100.0
2032,64.0,0,14,4.0,100.0
2033,50.0,15,29,10.0,100.0
2034,74.0,0,14,8.0,100.0
2035,65.0,15,14,4.0,100.0
2036,67.0,15,14,4.0,100.0
2037,76.0,0,14,8.0,100.0
2038,69.0,0,14,4.0,100.0
2039,82.0,0,59,6.0,100.0
2040,53.0,0,29,10.0,100.0
2041,46.0,0,59,3.0,90.0
2042,74.0,15,14,8.0,100.0
2043,76.0,15,9,8.0,100.0
2044,70.0,0,14,4.0,100.0
2045,74.0,10,9,8.0,100.0
2046,76.0,5,9,8.0,100.0
2047,50.0,0,29,10.0,100.0
2048,69.0,5,14,4.0,100.0
2049,74.0,0,9,8.0,100.0
2050,67.0,0,14,4.0,100.0
2051,76.0,10,9,8.0,100.0
2052,74.0,5,9,8.0,100.0
2053,65.0,5,14,4.0,100.0
2054,81.0,0,59,6.0,100.0
2055,46.0,0,59,3.0,90.0
2056,46.0,10,29,10.0,100.0
2057,67.0,10,14,4.0,100.0
2058,76.0,0,14,8.0,100.0
2059,81.0,0,19,6.0,100.0
2060,74.0,15,14,8.0,100.0
2061,64.0,0,14,4.0,100.0
2062,58.0,0,210,7.0,100.0
2063,79.0,5,19,6.0,100.0
2064,73.0,0,14,8.0,100.0
2065,65.0,0,14,4.0,100.0
2066,74.0,0,59,1.0,127.0
2067,79.0,0,59,0.0,90.0
2068,52.0,10,29,7.0,100.0
2069,40.0,0,59,3.0,90.0
2070,71.0,0,14,8.0,100.0
2071,67.0,5,14,4.0,100.0
2072,81.0,10,19,6.0,100.0
2073,70.0,0,59,2.0,56.0
2074,69.0,15,14,4.0,100.0
2075,79.0,0,14,6.0,100.0
2076,81.0,0,14,6.0,100.0
2077,71.0,15,14,4.0,100.0
2078,55.0,0,29,7.0,100.0
2079,73.0,0,14,4.0,100.0
2080,79.0,0,14,6.0,100.0
2081,81.0,0,14,6.0,100.0
2082,76.0,0,59,8.0,100.0
2083,74.0,15,14,4.0,100.0
2084,40.0,0,59,3.0,90.0
2085,58.0,15,29,7.0,100.0
2086,79.0,0,14,6.0,100.0
2087,76.0,0,14,4.0,100.0
2088,74.0,15,14,4.0,100.0
2089,81.0,0,14,6.0,100.0
2090,55.0,15,29,7.0,100.0
2091,73.0,0,14,4.0,100.0
2092,79.0,0,14,6.0,100.0
2093,40.0,0,59,3.0,90.0
2094,52.0,15,29,7.0,100.0
2095,81.0,15,14,6.0,100.0
2096,71.0,0,14,4.0,100.0
2097,74.0,0,59,8.0,100.0
2098,73.0,15,14,4.0,100.0
2099,81.0,0,14,6.0,100.0
2100,73.0,0,19,8.0,100.0
2101,79.0,15,14,6.0,100.0
2102,57.0,0,14,4.0,100.0
2103,52.0,0,210,10.0,100.0
2104,74.0,5,19,8.0,100.0
2105,77.0,10,14,6.0,100.0
2106,59.0,0,14,4.0,100.0
2107,45.0,0,29,10.0,100.0
2108,61.0,5,14,4.0,100.0
2109,79.0,0,59,0.0,90.0
2110,73.0,0,59,1.0,127.0
2111,69.0,0,59,2.0,56.0
2112,45.0,0,59,3.0,90.0
2113,73.0,10,19,8.0,100.0
2114,76.0,0,14,6.0,100.0
2115,62.0,0,14,4.0,100.0
2116,74.0,0,14,8.0,100.0
2117,73.0,15,14,8.0,100.0
2118,49.0,0,29,10.0,100.0
2119,64.0,0,14,4.0,100.0
2120,65.0,0,14,4.0,100.0
2121,74.0,0,14,8.0,100.0
2122,81.0,0,59,6.0,100.0
2123,52.0,15,29,10.0,100.0
2124,67.0,15,14,4.0,100.0
2125,73.0,0,14,8.0,100.0
2126,45.0,15,59,3.0,90.0
2127,69.0,15,14,4.0,100.0
2128,74.0,0,14,8.0,100.0
2129,73.0,0,14,8.0,100.0
2130,67.0,15,14,4.0,100.0
2131,49.0,0,29,10.0,100.0
2132,65.0,0,14,4.0,100.0
2133,71.0,0,14,8.0,100.0
2134,45.0,0,59,3.0,90.0
2135,79.0,0,59,6.0,100.0
2136,73.0,0,14,8.0,100.0
2137,64.0,15,14,4.0,100.0
2138,45.0,15,29,10.0,100.0
2139,65.0,0,29,4.0,100.0
2140,74.0,15,59,1.0,127.0
2141,77.0,0,59,0.0,90.0
2142,57.0,0,239,7.0,100.0
2143,69.0,0,59,2.0,56.0
2144,62.0,30,29,4.0,100.0
2145,50.0,0,59,10.0,100.0
2146,74.0,0,59,8.0,100.0
2147,50.0,0,59,3.0,90.0
2148,65.0,30,29,4.0,100.0
2149,62.0,0,59,8.0,100.0
2150,41.0,0,59,10.0,100.0
2151,69.0,30,29,4.0,100.0
2152,62.0,0,59,2.0,56.0
2153,77.0,0,119,6.0,100.0
2154,50.0,0,119,5.0,100.0
2155,62.0,0,59,7.0,100.0
2156,41.0,0,59,3.0,90.0
2157,74.0,0,29,4.0,100.0
2158,45.0,0,59,3.0,90.0
2159,64.0,0,59,2.0,56.0
2160,57.0,30,59,7.0,100.0
2161,45.0,0,59,10.0,100.0
2162,64.0,0,59,8.0,100.0
2163,73.0,30,29,4.0,100.0
2164,62.0,30,29,6.0,100.0
2165,38.0,0,59,10.0,100.0
2166,65.0,0,59,8.0,100.0
2167,53.0,30,59,7.0,100.0
2168,74.0,0,59,4.0,100.0
2169,65.0,0,59,2.0,56.0
2170,38.0,0,59,3.0,90.0
2171,65.0,0,29,6.0,100.0
2172,50.0,0,59,3.0,90.0
2173,65.0,0,59,2.0,56.0
2174,65.0,0,59,8.0,100.0
2175,50.0,0,59,7.0,100.0
2176,81.0,0,59,0.0,90.0
2177,50.0,30,59,10.0,100.0
2178,50.0,0,59,5.0,100.0
2179,69.0,30,29,6.0,100.0
2180,74.0,0,59,1.0,127.0
2181,81.0,0,59,4.0,100.0
2182,77.0,0,59,4.0,100.0
2183,74.0,0,29,6.0,100.0
2184,52.0,0,59,10.0,100.0
2185,52.0,0,59,3.0,90.0
2186,67.0,0,59,8.0,100.0
2187,52.0,0,59,7.0,100.0
2188,73.0,30,29,6.0,100.0
2189,81.0,0,59,0.0,90.0
2190,76.0,0,59,4.0,100.0
2191,52.0,0,59,5.0,100.0
2192,79.0,0,59,4.0,100.0
2193,67.0,30,59,2.0,56.0
2194,73.0,0,59,1.0,127.0
2195,74.0,0,29,4.0,100.0
2196,77.0,0,29,4.0,100.0
2197,74.0,0,29,6.0,100.0
2198,53.0,0,59,5.0,100.0
2199,81.0,0,59,0.0,90.0
2200,74.0,0,59,1.0,127.0
2201,69.0,30,59,2.0,56.0
2202,69.0,0,59,8.0,100.0
2203,53.0,0,59,7.0,100.0
2204,81.0,30,29,4.0,100.0
2205,53.0,0,59,3.0,90.0
2206,53.0,0,59,10.0,100.0
2207,72.0,0,29,6.0,100.0
2208,79.0,0,29,4.0,100.0
2209,70.0,0,29,6.0,100.0
2210,79.0,0,29,0.0,90.0
2211,69.0,30,29,6.0,100.0
2212,77.0,0,29,4.0,100.0
2213,69.0,0,59,2.0,56.0
2214,53.0,0,59,7.0,100.0
2215,53.0,0,59,5.0,100.0
2216,69.0,0,59,8.0,100.0
2217,62.0,0,59,1.0,127.0
2218,77.0,0,29,0.0,90.0
2219,53.0,0,59,10.0,100.0
2220,53.0,30,59,3.0,90.0
2221,76.0,30,29,0.0,90.0
2222,76.0,0,29,4.0,100.0
2223,67.0,0,29,6.0,100.0
2224,55.0,0,59,7.0,100.0
2225,74.0,0,29,4.0,100.0
2226,70.0,0,59,2.0,56.0
2227,67.0,0,59,1.0,127.0
2228,70.0,0,59,8.0,100.0
2229,55.0,0,59,10.0,100.0
2230,74.0,0,29,0.0,90.0
2231,65.0,30,29,6.0,100.0
2232,55.0,0,59,5.0,100.0
2233,55.0,0,59,3.0,90.0
2234,73.0,0,29,4.0,100.0
2235,64.0,30,59,6.0,100.0
2236,64.0,0,59,1.0,127.0
2237,57.0,0,59,5.0,100.0
2238,73.0,0,59,0.0,90.0
2239,71.0,30,29,4.0,100.0
2240,69.0,0,59,8.0,100.0
2241,57.0,0,59,10.0,100.0
2242,57.0,0,59,7.0,100.0
2243,69.0,0,59,2.0,56.0
2244,57.0,0,59,3.0,90.0
2245,73.0,0,29,4.0,100.0
2246,67.0,0,29,8.0,100.0
2247,67.0,30,29,2.0,56.0
2248,74.0,30,29,4.0,100.0
2249,73.0,0,59,0.0,90.0
2250,81.0,0,59,6.0,100.0
2251,57.0,0,59,5.0,100.0
2252,57.0,0,59,7.0,100.0
2253,57.0,0,59,3.0,90.0
2254,81.0,0,59,1.0,127.0
2255,57.0,0,59,10.0,100.0
2256,65.0,0,29,2.0,56.0
2257,65.0,0,29,8.0,100.0
2258,79.0,0,15,6.0,100.0
2259,64.0,0,29,8.0,100.0
2260,64.0,30,29,2.0,56.0
2261,73.0,0,29,4.0,100.0
2262,81.0,15,15,6.0,100.0
2263,79.0,0,59,1.0,127.0
2264,74.0,0,59,0.0,90.0
2265,62.0,0,29,8.0,100.0
2266,74.0,0,29,4.0,100.0
2267,58.0,0,59,3.0,90.0
2268,58.0,0,59,7.0,100.0
2269,58.0,0,59,10.0,100.0
2270,62.0,15,29,2.0,56.0
2271,58.0,0,59,5.0,100.0
2272,79.0,0,30,6.0,100.0
2273,61.0,0,29,2.0,56.0
2274,61.0,0,29,8.0,100.0
2275,76.0,0,29,4.0,100.0
2276,81.0,0,59,6.0,100.0
2277,59.0,0,29,8.0,100.0
2278,57.0,0,59,10.0,100.0
2279,57.0,0,59,7.0,100.0
2280,57.0,0,59,5.0,100.0
2281,57.0,30,59,3.0,90.0
2282,77.0,0,29,4.0,100.0
2283,59.0,30,29,2.0,56.0
2284,57.0,0,29,8.0,100.0
2285,73.0,0,29,6.0,100.0
2286,55.0,0,29,5.0,100.0
2287,55.0,0,29,7.0,100.0
2288,55.0,30,29,10.0,100.0
2289,57.0,0,29,2.0,56.0
2290,55.0,0,29,3.0,90.0
2291,76.0,0,29,4.0,100.0
2292,53.0,0,29,3.0,90.0
2293,74.0,30,29,6.0,100.0
2294,74.0,0,29,4.0,100.0
2295,59.0,0,29,8.0,100.0
2296,59.0,0,29,2.0,56.0
2297,53.0,0,29,5.0,100.0
2298,53.0,0,29,7.0,100.0
2299,53.0,0,29,10.0,100.0
2300,73.0,0,29,4.0,100.0
2301,61.0,0,29,8.0,100.0
2302,52.0,0,29,7.0,100.0
2303,52.0,0,29,5.0,100.0
2304,61.0,0,29,2.0,56.0
2305,52.0,30,29,10.0,100.0
2306,76.0,0,29,6.0,100.0
2307,52.0,0,29,3.0,90.0
2308,50.0,0,29,7.0,100.0
2309,50.0,0,29,10.0,100.0
2310,50.0,30,29,5.0,100.0
2311,62.0,0,29,2.0,56.0
2312,50.0,0,29,3.0,90.0
2313,71.0,0,29,4.0,100.0
2314,62.0,0,29,8.0,100.0
2315,77.0,0,29,6.0,100.0
2316,69.0,0,29,4.0,100.0
2317,79.0,0,29,6.0,100.0
2318,49.0,30,59,7.0,100.0
2319,64.0,0,59,8.0,100.0
2320,81.0,30,29,6.0,100.0
2321,76.0,0,239,0.0,90.0
2322,49.0,0,59,5.0,100.0
2323,81.0,0,239,1.0,127.0
2324,49.0,0,59,10.0,100.0
2325,64.0,0,29,4.0,100.0
2326,64.0,0,59,2.0,56.0
2327,49.0,0,59,3.0,90.0
2328,69.0,0,29,4.0,100.0
2329,79.0,0,29,6.0,100.0
2330,73.0,0,59,0.0,90.0
2331,71.0,0,29,4.0,100.0
2332,77.0,30,29,6.0,100.0
2333,45.0,0,59,7.0,100.0
2334,64.0,0,59,2.0,56.0
2335,64.0,0,59,8.0,100.0
2336,45.0,0,59,5.0,100.0
2337,45.0,30,59,10.0,100.0
2338,45.0,0,59,3.0,90.0
2339,69.0,0,59,1.0,127.0
2340,76.0,0,29,6.0,100.0
2341,69.0,0,29,4.0,100.0
2342,50.0,0,59,7.0,100.0
2343,69.0,0,59,1.0,127.0
2344,74.0,0,59,0.0,90.0
2345,50.0,0,59,5.0,100.0
2346,65.0,30,59,2.0,56.0
2347,71.0,30,29,4.0,100.0
2348,50.0,0,59,3.0,90.0
2349,74.0,0,29,6.0,100.0
2350,50.0,0,59,10.0,100.0
2351,65.0,0,59,8.0,100.0
2352,65.0,0,29,8.0,100.0
2353,73.0,0,29,6.0,100.0
2354,73.0,0,29,4.0,100.0
2355,74.0,0,29,4.0,100.0
2356,64.0,0,29,6.0,100.0
2357,73.0,0,59,0.0,90.0
2358,64.0,0,59,2.0,56.0
2359,73.0,30,29,4.0,100.0
2360,69.0,0,29,6.0,100.0
2361,69.0,0,29,0.0,90.0
2362,64.0,30,59,8.0,100.0
2363,62.0,30,29,8.0,100.0
2364,69.0,0,119,1.0,127.0
2365,71.0,0,29,4.0,100.0
2366,64.0,0,59,2.0,56.0
2367,71.0,0,29,6.0,100.0
2368,71.0,0,29,0.0,90.0
2369,73.0,0,29,0.0,90.0
2370,61.0,0,29,8.0,100.0
2371,69.0,0,29,6.0,100.0
2372,73.0,0,29,4.0,100.0
2373,74.0,30,29,0.0,90.0
2374,69.0,30,59,2.0,56.0
2375,59.0,0,29,8.0,100.0
2376,74.0,0,29,4.0,100.0
2377,71.0,0,29,6.0,100.0
2378,57.0,0,29,8.0,100.0
2379,73.0,0,29,6.0,100.0
2380,74.0,30,29,6.0,100.0
2381,76.0,0,59,4.0,100.0
2382,76.0,30,59,0.0,90.0
2383,73.0,0,59,2.0,56.0
2384,64.0,0,29,8.0,100.0
2385,69.0,0,29,8.0,100.0
2386,73.0,0,29,6.0,100.0
2387,69.0,30,29,1.0,127.0
2388,71.0,30,29,1.0,127.0
2389,64.0,0,59,2.0,56.0
2390,71.0,0,29,6.0,100.0
2391,76.0,0,59,0.0,90.0
2392,71.0,0,29,8.0,100.0
2393,76.0,0,59,4.0,100.0
2394,79.0,0,14,4.0,100.0
2395,73.0,0,29,1.0,127.0
2396,69.0,0,29,8.0,100.0
2397,73.0,0,29,6.0,100.0
2398,77.0,15,14,4.0,100.0
2399,76.0,15,14,4.0,100.0
2400,77.0,30,59,0.0,90.0
2401,77.0,15,14,4.0,100.0
2402,74.0,0,29,6.0,100.0
2403,45.0,0,359,3.0,90.0
2404,74.0,0,29,1.0,127.0
2405,69.0,0,59,2.0,56.0
2406,71.0,0,29,8.0,100.0
2407,81.0,0,19,4.0,100.0
2408,74.0,0,19,8.0,100.0
2409,77.0,0,19,6.0,100.0
2410,45.0,0,390,7.0,100.0
2411,73.0,0,19,8.0,100.0
2412,76.0,0,19,6.0,100.0
2413,79.0,20,19,4.0,100.0
2414,73.0,0,59,2.0,56.0
2415,47.0,10,29,7.0,100.0
2416,74.0,0,19,8.0,100.0
2417,81.0,10,19,4.0,100.0
2418,79.0,0,59,0.0,90.0
2419,77.0,0,19,6.0,100.0
2420,76.0,15,59,1.0,127.0
2421,45.0,30,420,5.0,100.0
2422,45.0,20,0,10.0,100.0
2423,79.0,0,14,4.0,100.0
2424,73.0,0,14,8.0,100.0
2425,76.0,0,14,6.0,100.0
2426,81.0,15,14,4.0,100.0
2427,77.0,0,14,6.0,100.0
2428,74.0,0,14,8.0,100.0
2429,49.0,0,29,7.0,100.0
2430,45.0,0,29,3.0,90.0
2431,73.0,0,14,8.0,100.0
2432,76.0,15,14,6.0,100.0
2433,79.0,0,14,4.0,100.0
2434,50.0,0,29,7.0,100.0
2435,47.0,0,29,10.0,100.0
2436,67.0,0,59,5.0,100.0
2437,81.0,0,14,4.0,100.0
2438,47.0,0,29,3.0,90.0
2439,77.0,15,14,6.0,100.0
2440,74.0,0,14,8.0,100.0
2441,73.0,15,9,8.0,100.0
2442,76.0,0,9,6.0,100.0
2443,79.0,0,14,4.0,100.0
2444,74.0,0,9,8.0,100.0
2445,77.0,10,9,6.0,100.0
2446,73.0,5,9,8.0,100.0
2447,76.0,0,9,6.0,100.0
2448,49.0,0,29,10.0,100.0
2449,52.0,0,29,7.0,100.0
2450,49.0,0,29,3.0,90.0
2451,81.0,5,14,4.0,100.0
2452,74.0,0,9,8.0,100.0
2453,77.0,0,9,6.0,100.0
2454,79.0,10,14,4.0,100.0
2455,76.0,0,9,6.0,100.0
2456,73.0,10,9,8.0,100.0
2457,74.0,5,9,8.0,100.0
2458,67.0,0,59,5.0,100.0
2459,53.0,0,29,7.0,100.0
2460,81.0,5,14,4.0,100.0
2461,50.0,0,29,10.0,100.0
2462,77.0,0,9,6.0,100.0
2463,50.0,0,29,3.0,90.0
2464,79.0,0,9,4.0,100.0
2465,76.0,0,9,6.0,100.0
2466,73.0,10,9,8.0,100.0
2467,77.0,0,9,6.0,100.0
2468,81.0,0,9,4.0,100.0
2469,74.0,10,9,8.0,100.0
2470,76.0,0,9,6.0,100.0
2471,73.0,0,9,8.0,100.0
2472,52.0,0,29,10.0,100.0
2473,79.0,10,9,4.0,100.0
2474,52.0,0,29,3.0,90.0
2475,74.0,0,9,8.0,100.0
2476,77.0,0,9,6.0,100.0
2477,81.0,0,9,4.0,100.0
2478,79.0,0,9,4.0,100.0
2479,76.0,0,9,6.0,100.0
2480,73.0,10,9,8.0,100.0
2481,55.0,0,59,7.0,100.0
2482,77.0,10,9,6.0,100.0
2483,50.0,10,29,10.0,100.0
2484,81.0,0,9,4.0,100.0
2485,69.0,0,59,2.0,56.0
2486,73.0,0,59,1.0,127.0
2487,50.0,0,29,3.0,90.0
2488,61.0,0,59,5.0,100.0
2489,76.0,0,59,0.0,90.0
2490,74.0,0,9,8.0,100.0
2491,79.0,0,9,4.0,100.0
2492,76.0,0,9,6.0,100.0
2493,73.0,0,9,8.0,100.0
2494,81.0,0,9,4.0,100.0
2495,77.0,10,9,6.0,100.0
2496,74.0,0,9,8.0,100.0
2497,79.0,0,9,4.0,100.0
2498,76.0,0,9,6.0,100.0
2499,49.0,10,29,3.0,90.0
2500,73.0,10,9,8.0,100.0
2501,49.0,0,29,10.0,100.0
2502,77.0,0,9,6.0,100.0
2503,74.0,10,9,8.0,100.0
2504,81.0,0,9,4.0,100.0
2505,73.0,0,9,8.0,100.0
2506,79.0,0,9,4.0,100.0
2507,76.0,10,9,6.0,100.0
2508,81.0,10,9,4.0,100.0
2509,74.0,0,9,8.0,100.0
2510,77.0,0,9,6.0,100.0
2511,50.0,0,29,10.0,100.0
2512,67.0,0,59,7.0,100.0
2513,64.0,0,59,5.0,100.0
2514,50.0,0,29,3.0,90.0
2515,73.0,0,9,8.0,100.0
2516,79.0,10,9,4.0,100.0
2517,76.0,0,9,6.0,100.0
2518,74.0,0,9,8.0,100.0
2519,81.0,10,9,4.0,100.0
2520,77.0,0,9,6.0,100.0
2521,79.0,10,9,4.0,100.0
2522,52.0,0,29,3.0,90.0
2523,73.0,0,9,8.0,100.0
2524,76.0,0,9,6.0,100.0
2525,52.0,0,29,10.0,100.0
2526,77.0,10,9,6.0,100.0
2527,81.0,0,9,4.0,100.0
2528,74.0,0,9,8.0,100.0
2529,79.0,0,9,4.0,100.0
2530,73.0,10,9,8.0,100.0
2531,76.0,0,9,6.0,100.0
2532,81.0,10,9,4.0,100.0
2533,67.0,0,59,7.0,100.0
2534,53.0,0,29,10.0,100.0
2535,74.0,0,9,8.0,100.0
2536,53.0,0,29,3.0,90.0
2537,64.0,0,59,5.0,100.0
2538,77.0,0,9,6.0,100.0
2539,76.0,0,9,6.0,100.0
2540,79.0,0,9,4.0,100.0
2541,73.0,10,9,8.0,100.0
2542,81.0,0,9,4.0,100.0
2543,74.0,10,9,8.0,100.0
2544,77.0,0,9,6.0,100.0
2545,55.0,0,29,3.0,90.0
2546,76.0,10,9,6.0,100.0
2547,79.0,0,9,4.0,100.0
2548,73.0,0,9,8.0,100.0
2549,74.0,0,9,8.0,100.0
2550,81.0,0,9,4.0,100.0
2551,77.0,10,9,6.0,100.0
2552,73.0,0,9,8.0,100.0
2553,76.0,0,9,6.0,100.0
2554,79.0,10,9,4.0,100.0
2555,77.0,10,9,6.0,100.0
2556,57.0,0,59,5.0,100.0
2557,64.0,0,59,2.0,56.0
2558,81.0,0,9,4.0,100.0
2559,73.0,0,59,0.0,90.0
2560,53.0,0,29,3.0,90.0
2561,55.0,0,59,10.0,100.0
2562,69.0,0,59,1.0,127.0
2563,61.0,0,59,7.0,100.0
2564,74.0,0,9,8.0,100.0
2565,73.0,0,9,8.0,100.0
2566,79.0,10,9,4.0,100.0
2567,76.0,0,9,6.0,100.0
2568,77.0,10,9,6.0,100.0
2569,81.0,0,9,4.0,100.0
2570,74.0,0,9,8.0,100.0
2571,79.0,10,9,4.0,100.0
2572,73.0,0,9,8.0,100.0
2573,76.0,0,9,6.0,100.0
2574,52.0,0,29,3.0,90.0
2575,77.0,0,9,6.0,100.0
2576,74.0,10,9,8.0,100.0
2577,81.0,0,9,4.0,100.0
2578,73.0,0,9,8.0,100.0
2579,76.0,0,9,6.0,100.0
2580,79.0,10,9,4.0,100.0
2581,77.0,10,9,6.0,100.0
2582,64.0,0,59,7.0,100.0
2583,74.0,0,9,8.0,100.0
2584,61.0,0,59,5.0,100.0
2585,53.0,0,29,3.0,90.0
2586,81.0,0,9,4.0,100.0
2587,67.0,0,59,10.0,100.0
2588,79.0,0,9,4.0,100.0
2589,73.0,10,9,8.0,100.0
2590,76.0,0,9,6.0,100.0
2591,81.0,0,9,4.0,100.0
2592,74.0,0,9,8.0,100.0
2593,77.0,10,9,6.0,100.0
2594,55.0,0,29,3.0,90.0
2595,76.0,0,9,6.0,100.0
2596,79.0,10,9,4.0,100.0
2597,73.0,0,9,8.0,100.0
2598,74.0,0,9,8.0,100.0
2599,81.0,0,9,4.0,100.0
2600,77.0,10,9,6.0,100.0
2601,76.0,10,9,6.0,100.0
2602,73.0,0,9,8.0,100.0
2603,79.0,0,9,4.0,100.0
2604,57.0,0,29,3.0,90.0
2605,67.0,0,59,10.0,100.0
2606,77.0,10,9,6.0,100.0
2607,64.0,0,59,7.0,100.0
2608,61.0,0,59,5.0,100.0
2609,81.0,0,9,4.0,100.0
2610,74.0,0,9,8.0,100.0
2611,79.0,10,9,4.0,100.0
2612,73.0,0,9,8.0,100.0
2613,76.0,0,9,6.0,100.0
2614,81.0,0,9,4.0,100.0
2615,74.0,0,9,8.0,100.0
2616,77.0,10,9,6.0,100.0
2617,58.0,0,29,3.0,90.0
2618,76.0,10,9,6.0,100.0
2619,79.0,0,9,4.0,100.0
2620,73.0,0,9,8.0,100.0
2621,81.0,0,9,4.0,100.0
2622,74.0,10,9,8.0,100.0
2623,77.0,0,9,6.0,100.0
2624,73.0,0,9,8.0,100.0
2625,76.0,10,9,6.0,100.0
2626,79.0,0,9,4.0,100.0
2627,81.0,0,9,4.0,100.0
2628,73.0,0,59,1.0,127.0
2629,76.0,0,59,0.0,90.0
2630,77.0,0,9,6.0,100.0
2631,57.0,0,29,3.0,90.0
2632,52.0,0,59,5.0,100.0
2633,61.0,0,59,10.0,100.0
2634,55.0,0,59,7.0,100.0
2635,67.0,0,59,2.0,56.0
2636,74.0,10,9,8.0,100.0
2637,73.0,0,9,8.0,100.0
2638,79.0,0,9,4.0,100.0
2639,76.0,0,9,6.0,100.0
2640,81.0,10,9,4.0,100.0
2641,74.0,0,9,8.0,100.0
2642,77.0,0,9,6.0,100.0
2643,76.0,0,9,6.0,100.0
2644,79.0,10,9,4.0,100.0
2645,55.0,10,29,3.0,90.0
2646,73.0,0,9,8.0,100.0
2647,77.0,10,9,6.0,100.0
2648,74.0,0,9,8.0,100.0
2649,81.0,0,9,4.0,100.0
2650,79.0,0,9,4.0,100.0
2651,76.0,10,9,6.0,100.0
2652,73.0,0,9,8.0,100.0
2653,64.0,0,59,10.0,100.0
2654,81.0,10,9,4.0,100.0
2655,58.0,0,59,7.0,100.0
2656,74.0,0,9,8.0,100.0
2657,53.0,0,29,3.0,90.0
2658,77.0,0,9,6.0,100.0
2659,55.0,0,59,5.0,100.0
2660,79.0,0,9,4.0,100.0
2661,76.0,0,9,6.0,100.0
2662,73.0,0,9,8.0,100.0
2663,74.0,10,9,8.0,100.0
2664,77.0,0,9,6.0,100.0
2665,81.0,0,9,4.0,100.0
2666,79.0,0,9,4.0,100.0
2667,76.0,10,9,6.0,100.0
2668,52.0,0,29,3.0,90.0
2669,73.0,0,9,8.0,100.0
2670,77.0,0,9,6.0,100.0
2671,74.0,10,9,8.0,100.0
2672,81.0,0,9,4.0,100.0
2673,73.0,0,9,8.0,100.0
2674,79.0,0,9,4.0,100.0
2675,76.0,10,9,6.0,100.0
2676,55.0,0,59,5.0,100.0
2677,58.0,0,59,7.0,100.0
2678,64.0,10,59,10.0,100.0
2679,50.0,0,29,3.0,90.0
2680,74.0,0,9,8.0,100.0
2681,77.0,10,9,6.0,100.0
2682,81.0,0,9,4.0,100.0
2683,57.0,10,29,10.0,100.0
2684,49.0,0,29,3.0,90.0
2685,45.0,0,29,5.0,100.0
2686,49.0,0,30,7.0,100.0
2687,52.0,0,29,10.0,100.0
2688,49.0,30,29,5.0,100.0
2689,52.0,0,29,3.0,90.0
2690,52.0,0,30,7.0,100.0
2691,79.0,0,89,0.0,90.0
2692,45.0,0,29,3.0,90.0
2693,76.0,0,89,1.0,127.0
2694,73.0,0,89,8.0,100.0
2695,52.0,30,29,5.0,100.0
2696,49.0,0,29,10.0,100.0
2697,69.0,0,89,2.0,56.0
2698,76.0,0,89,6.0,100.0
2699,79.0,0,89,4.0,100.0
2700,55.0,0,30,7.0,100.0
2701,45.0,0,29,10.0,100.0
2702,82.0,0,29,0.0,90.0
2703,82.0,30,29,6.0,100.0
2704,73.0,0,29,1.0,127.0
2705,55.0,0,29,5.0,100.0
2706,76.0,0,29,8.0,100.0
2707,43.0,0,29,3.0,90.0
2708,73.0,0,29,4.0,100.0
2709,64.0,0,29,2.0,56.0
2710,52.0,0,30,7.0,100.0
2711,74.0,0,59,1.0,127.0
2712,53.0,0,59,10.0,100.0
2713,69.0,0,59,8.0,100.0
2714,74.0,0,59,4.0,100.0
2715,81.0,0,59,6.0,100.0
2716,81.0,30,59,0.0,90.0
2717,41.0,0,59,3.0,90.0
2718,53.0,0,59,5.0,100.0
2719,65.0,0,59,2.0,56.0
2720,53.0,0,60,7.0,100.0
2721,76.0,0,29,1.0,127.0
2722,74.0,0,29,6.0,100.0
2723,55.0,0,29,5.0,100.0
2724,70.0,90,29,8.0,100.0
2725,43.0,0,29,3.0,90.0
2726,74.0,0,29,0.0,90.0
2727,55.0,0,29,10.0,100.0
2728,76.0,0,29,4.0,100.0
2729,70.0,0,29,2.0,56.0
2730,55.0,0,29,7.0,100.0
2731,69.0,0,29,8.0,100.0
2732,45.0,0,59,3.0,90.0
2733,64.0,30,29,8.0,100.0
2734,69.0,0,59,2.0,56.0
2735,57.0,0,59,10.0,100.0
2736,57.0,0,59,7.0,100.0
2737,57.0,0,59,5.0,100.0
2738,61.0,0,29,8.0,100.0
2739,76.0,0,89,1.0,127.0
2740,73.0,0,89,0.0,90.0
2741,73.0,30,89,6.0,100.0
2742,76.0,0,89,4.0,100.0
2743,45.0,30,59,5.0,100.0
2744,55.0,0,59,10.0,100.0
2745,52.0,0,59,7.0,100.0
2746,57.0,0,29,8.0,100.0
2747,74.0,30,29,1.0,127.0
2748,74.0,0,29,6.0,100.0
2749,74.0,0,29,0.0,90.0
2750,69.0,0,59,2.0,56.0
2751,43.0,0,59,3.0,90.0
2752,74.0,0,29,4.0,100.0
2753,54.0,0,29,7.0,100.0
2754,69.0,0,29,8.0,100.0
2755,74.0,0,59,1.0,127.0
2756,62.0,0,29,8.0,100.0
2757,57.0,30,29,7.0,100.0
2758,74.0,0,59,4.0,100.0
2759,42.0,0,59,5.0,100.0
2760,66.0,30,29,8.0,100.0
2761,62.0,0,29,7.0,100.0
2762,72.0,0,59,4.0,100.0
2763,45.0,0,59,5.0,100.0
2764,69.0,0,59,4.0,100.0
2765,74.0,0,59,4.0,100.0
2766,54.0,0,119,10.0,100.0
2767,74.0,0,119,6.0,100.0
2768,69.0,30,29,8.0,100.0
2769,66.0,0,29,7.0,100.0
2770,42.0,0,120,3.0,90.0
2771,66.0,0,29,8.0,100.0
2772,62.0,0,29,7.0,100.0
2773,57.0,0,29,7.0,100.0
2774,74.0,0,59,4.0,100.0
2775,69.0,30,59,4.0,100.0
2776,72.0,30,179,2.0,56.0
2777,50.0,0,59,5.0,100.0
2778,62.0,30,29,8.0,100.0
2779,72.0,0,59,4.0,100.0
2780,67.0,30,59,4.0,100.0
2781,67.0,0,29,6.0,100.0
2782,74.0,0,59,4.0,100.0
2783,50.0,30,29,10.0,100.0
2784,70.0,0,59,4.0,100.0
2785,43.0,0,59,5.0,100.0
2786,70.0,0,29,6.0,100.0
2787,55.0,0,29,10.0,100.0
2788,58.0,30,29,10.0,100.0
2789,50.0,0,59,5.0,100.0
2790,58.0,0,119,7.0,100.0
2791,74.0,0,29,6.0,100.0
2792,70.0,0,59,4.0,100.0
2793,67.0,0,59,4.0,100.0
2794,74.0,30,59,4.0,100.0
2795,74.0,0,119,8.0,100.0
2796,43.0,0,120,3.0,90.0
2797,70.0,0,29,6.0,100.0
2798,55.0,30,29,10.0,100.0
2799,70.0,0,59,4.0,100.0
2800,67.0,30,29,6.0,100.0
2801,74.0,0,59,4.0,100.0
2802,50.0,0,29,10.0,100.0
2803,55.0,0,59,5.0,100.0
2804,74.0,0,359,0.0,90.0
2805,70.0,0,179,2.0,56.0
2806,71.0,0,59,4.0,100.0
2807,74.0,0,59,4.0,100.0
2808,68.0,30,29,8.0,100.0
2809,52.0,0,29,7.0,100.0
2810,44.0,0,59,5.0,100.0
2811,76.0,0,59,4.0,100.0
2812,71.0,0,29,8.0,100.0
2813,56.0,0,29,7.0,100.0
2814,76.0,0,29,8.0,100.0
2815,59.0,30,29,7.0,100.0
2816,71.0,0,59,4.0,100.0
2817,74.0,0,59,4.0,100.0
2818,64.0,30,119,6.0,100.0
2819,76.0,0,59,4.0,100.0
2820,47.0,30,59,5.0,100.0
2821,56.0,0,119,10.0,100.0
2822,44.0,0,120,3.0,90.0
2823,56.0,0,29,7.0,100.0
2824,71.0,0,29,8.0,100.0
2825,52.0,30,59,5.0,100.0
2826,76.0,0,179,0.0,90.0
2827,71.0,0,179,2.0,56.0
2828,76.0,0,59,4.0,100.0
2829,68.0,0,29,8.0,100.0
2830,74.0,0,59,4.0,100.0
2831,52.0,30,29,7.0,100.0
2832,71.0,0,59,4.0,100.0
2833,65.0,30,29,6.0,100.0
2834,77.0,0,59,4.0,100.0
2835,74.0,0,59,4.0,100.0
2836,69.0,0,59,4.0,100.0
2837,45.0,0,59,5.0,100.0
2838,50.0,0,29,10.0,100.0
2839,69.0,0,29,6.0,100.0
2840,53.0,0,29,10.0,100.0
2841,57.0,0,119,7.0,100.0
2842,74.0,0,59,4.0,100.0
2843,77.0,30,59,4.0,100.0
2844,69.0,0,59,4.0,100.0
2845,77.0,0,119,8.0,100.0
2846,74.0,0,29,6.0,100.0
2847,50.0,0,59,5.0,100.0
2848,57.0,30,29,10.0,100.0
2849,45.0,0,120,3.0,90.0
2850,69.0,30,29,6.0,100.0
2851,53.0,0,29,10.0,100.0
2852,77.0,0,59,4.0,100.0
2853,50.0,30,29,10.0,100.0
2854,69.0,30,179,2.0,56.0
2855,77.0,0,179,0.0,90.0
2856,74.0,0,59,4.0,100.0
2857,65.0,0,29,6.0,100.0
2858,53.0,0,59,5.0,100.0
2859,69.0,0,59,4.0,100.0
2860,79.0,0,59,4.0,100.0
2861,74.0,0,59,4.0,100.0
2862,62.0,0,29,8.0,100.0
2863,55.0,30,29,7.0,100.0
2864,46.0,0,59,5.0,100.0
2865,67.0,0,59,4.0,100.0
2866,67.0,0,29,8.0,100.0
2867,58.0,0,29,7.0,100.0
2868,58.0,0,119,10.0,100.0
2869,79.0,0,59,4.0,100.0
2870,67.0,30,59,4.0,100.0
2871,74.0,0,59,4.0,100.0
2872,50.0,0,59,5.0,100.0
2873,62.0,30,119,6.0,100.0
2874,70.0,30,29,8.0,100.0
2875,62.0,0,29,7.0,100.0
2876,46.0,0,120,3.0,90.0
2877,58.0,30,29,7.0,100.0
2878,67.0,0,29,8.0,100.0
2879,79.0,0,179,0.0,90.0
2880,62.0,0,29,8.0,100.0
2881,55.0,0,59,5.0,100.0
2882,74.0,0,59,4.0,100.0
2883,67.0,0,59,4.0,100.0
2884,67.0,0,179,2.0,56.0
2885,79.0,0,59,4.0,100.0
2886,55.0,30,29,7.0,100.0
2887,56.0,30,29,10.0,100.0
2888,74.0,0,29,6.0,100.0
2889,74.0,0,29,4.0,100.0
2890,47.0,0,59,5.0,100.0
2891,59.0,0,29,10.0,100.0
2892,71.0,30,29,6.0,100.0
2893,80.0,0,29,4.0,100.0
2894,74.0,0,119,8.0,100.0
2895,53.0,0,119,7.0,100.0
2896,62.0,0,29,10.0,100.0
2897,83.0,30,29,4.0,100.0
2898,50.0,0,59,5.0,100.0
2899,68.0,0,29,6.0,100.0
2900,47.0,0,120,3.0,90.0
2901,59.0,0,29,10.0,100.0
2902,71.0,0,29,6.0,100.0
2903,80.0,0,29,4.0,100.0
2904,74.0,0,29,4.0,100.0
2905,56.0,0,29,10.0,100.0
2906,80.0,0,179,0.0,90.0
2907,53.0,30,59,5.0,100.0
2908,65.0,30,179,2.0,56.0
2909,74.0,30,29,6.0,100.0
2910,74.0,0,900,1.0,127.0
2911,81.0,0,29,4.0,100.0
2912,49.0,0,29,3.0,90.0
2913,81.0,0,29,0.0,90.0
2914,49.0,0,29,5.0,100.0
2915,76.0,0,59,6.0,100.0
2916,76.0,30,59,1.0,127.0
2917,58.0,0,29,3.0,90.0
2918,52.0,0,59,10.0,100.0
2919,73.0,0,29,8.0,100.0
2920,76.0,30,29,4.0,100.0
2921,55.0,0,29,7.0,100.0
2922,76.0,0,29,0.0,90.0
2923,58.0,0,29,5.0,100.0
2924,64.0,0,59,2.0,56.0
2925,53.0,0,29,7.0,100.0
2926,77.0,30,29,4.0,100.0
2927,74.0,0,29,8.0,100.0
2928,57.0,0,29,3.0,90.0
2929,77.0,0,29,0.0,90.0
2930,57.0,0,29,5.0,100.0
2931,55.0,0,29,3.0,90.0
2932,52.0,0,29,7.0,100.0
2933,76.0,0,29,8.0,100.0
2934,73.0,0,29,0.0,90.0
2935,73.0,0,29,4.0,100.0
2936,82.0,0,29,1.0,127.0
2937,52.0,0,29,10.0,100.0
2938,55.0,30,29,5.0,100.0
2939,82.0,0,29,6.0,100.0
2940,53.0,0,29,5.0,100.0
2941,53.0,0,29,3.0,90.0
2942,81.0,0,29,1.0,127.0
2943,53.0,0,29,7.0,100.0
2944,53.0,0,29,10.0,100.0
2945,74.0,0,59,0.0,90.0
2946,50.0,0,29,10.0,100.0
2947,69.0,0,59,8.0,100.0
2948,74.0,0,59,4.0,100.0
2949,62.0,30,29,3.0,90.0
2950,62.0,0,29,5.0,100.0
2951,81.0,30,59,6.0,100.0
2952,57.0,0,29,7.0,100.0
2953,77.0,0,29,1.0,127.0
2954,62.0,0,29,2.0,56.0
2955,58.0,0,29,5.0,100.0
2956,65.0,0,29,2.0,56.0
2957,50.0,0,29,7.0,100.0
2958,58.0,0,29,10.0,100.0
2959,58.0,30,29,3.0,90.0
2960,74.0,0,29,1.0,127.0
2961,55.0,0,29,5.0,100.0
2962,76.0,0,29,0.0,90.0
2963,70.0,0,29,8.0,100.0
2964,76.0,30,29,1.0,127.0
2965,55.0,0,29,7.0,100.0
2966,74.0,0,29,6.0,100.0
2967,76.0,0,29,4.0,100.0
2968,55.0,0,29,3.0,90.0
2969,55.0,0,29,10.0,100.0
2970,70.0,0,29,2.0,56.0
2971,57.0,0,59,5.0,100.0
2972,69.0,0,59,2.0,56.0
2973,57.0,0,59,7.0,100.0
2974,57.0,30,59,10.0,100.0
2975,57.0,0,59,3.0,90.0
2976,69.0,0,59,8.0,100.0
2977,76.0,0,89,0.0,90.0
2978,76.0,0,89,4.0,100.0
2979,73.0,0,89,6.0,100.0
2980,73.0,0,89,1.0,127.0
2981,74.0,0,29,4.0,100.0
2982,67.0,60,59,8.0,100.0
2983,45.0,0,59,7.0,100.0
2984,74.0,30,29,1.0,127.0
2985,64.0,0,59,8.0,100.0
2986,45.0,0,59,3.0,90.0
2987,45.0,0,59,5.0,100.0
2988,67.0,0,59,2.0,56.0
2989,45.0,0,59,10.0,100.0
2990,61.0,0,59,8.0,100.0
2991,74.0,0,29,0.0,90.0
2992,74.0,0,59,6.0,100.0
2993,74.0,0,29,4.0,100.0
2994,74.0,0,59,0.0,90.0
2995,69.0,0,29,4.0,100.0
2996,74.0,0,59,1.0,127.0
2997,65.0,0,59,2.0,56.0
2998,67.0,0,29,4.0,100.0
2999,77.0,0,59,0.0,90.0
3000,62.0,0,119,8.0,100.0
3001,69.0,0,59,1.0,127.0
3002,50.0,30,119,10.0,100.0
3003,50.0,0,119,5.0,100.0
3004,62.0,30,59,2.0,56.0
3005,57.0,0,119,8.0,100.0
3006,65.0,0,119,8.0,100.0
3007,38.0,0,119,3.0,90.0
3008,38.0,0,119,7.0,100.0
3009,65.0,30,29,4.0,100.0
3010,74.0,30,119,6.0,100.0
3011,64.0,0,29,4.0,100.0
3012,62.0,30,29,4.0,100.0
3013,57.0,0,59,2.0,56.0
3014,65.0,30,59,1.0,127.0
3015,81.0,0,59,0.0,90.0
3016,61.0,0,29,4.0,100.0
3017,58.0,30,29,5.0,100.0
3018,69.0,0,59,0.0,90.0
3019,61.0,0,59,2.0,56.0
3020,52.0,30,59,3.0,90.0
3021,67.0,0,59,1.0,127.0
3022,64.0,0,29,4.0,100.0
3023,57.0,0,29,5.0,100.0
3024,67.0,30,29,4.0,100.0
3025,49.0,0,59,3.0,90.0
3026,70.0,30,29,4.0,100.0
3027,55.0,0,29,5.0,100.0
3028,53.0,0,29,5.0,100.0
3029,69.0,30,29,4.0,100.0
3030,52.0,30,29,5.0,100.0
3031,45.0,0,59,3.0,90.0
3032,67.0,0,29,4.0,100.0
3033,65.0,0,29,4.0,100.0
3034,62.0,0,59,2.0,56.0
3035,69.0,0,59,0.0,90.0
3036,69.0,30,29,4.0,100.0
3037,65.0,0,59,1.0,127.0
3038,67.0,0,29,4.0,100.0
3039,50.0,0,119,5.0,100.0
3040,65.0,30,29,4.0,100.0
3041,65.0,30,59,2.0,56.0
3042,69.0,0,59,1.0,127.0
3043,74.0,0,59,0.0,90.0
3044,50.0,30,119,3.0,90.0
3045,64.0,0,29,4.0,100.0
3046,74.0,30,59,1.0,127.0
3047,69.0,0,59,2.0,56.0
3048,77.0,0,59,0.0,90.0
3049,62.0,30,29,4.0,100.0
3050,68.0,0,29,4.0,100.0
3051,71.0,0,29,4.0,100.0
3052,74.0,0,59,2.0,56.0
3053,77.0,0,59,1.0,127.0
3054,59.0,30,59,3.0,90.0
3055,65.0,30,29,5.0,100.0
3056,68.0,0,59,0.0,90.0
3057,64.0,0,29,5.0,100.0
3058,74.0,0,29,4.0,100.0
3059,56.0,30,59,3.0,90.0
3060,77.0,30,29,4.0,100.0
3061,62.0,0,29,5.0,100.0
3062,60.0,30,29,5.0,100.0
3063,76.0,0,29,4.0,100.0
3064,52.0,0,59,3.0,90.0
3065,74.0,30,29,4.0,100.0
3066,59.0,0,29,5.0,100.0
3067,72.0,30,29,4.0,100.0
3068,76.0,0,59,0.0,90.0
3069,60.0,0,59,2.0,56.0
3070,69.0,0,59,1.0,127.0
3071,76.0,30,29,4.0,100.0
3072,74.0,0,29,4.0,100.0
3073,57.0,0,119,3.0,90.0
3074,57.0,0,119,5.0,100.0
3075,81.0,0,59,0.0,90.0
3076,64.0,30,59,2.0,56.0
3077,72.0,30,29,4.0,100.0
3078,72.0,0,59,1.0,127.0
3079,71.0,30,29,4.0,100.0
3080,84.0,0,59,0.0,90.0
3081,69.0,30,29,4.0,100.0
3082,76.0,0,59,1.0,127.0
3083,69.0,0,59,2.0,56.0
3084,75.0,0,29,4.0,100.0
3085,72.0,0,59,2.0,56.0
3086,72.0,0,29,5.0,100.0
3087,78.0,30,29,4.0,100.0
3088,54.0,0,59,3.0,90.0
3089,75.0,30,59,0.0,90.0
3090,81.0,0,59,1.0,127.0
3091,81.0,0,29,4.0,100.0
3092,71.0,0,29,5.0,100.0
3093,51.0,30,59,3.0,90.0
3094,84.0,30,29,4.0,100.0
3095,69.0,0,29,5.0,100.0
3096,68.0,0,29,5.0,100.0
3097,83.0,0,29,4.0,100.0
3098,81.0,30,29,4.0,100.0
3099,47.0,30,59,3.0,90.0
3100,66.0,0,29,5.0,100.0
3101,80.0,0,29,4.0,100.0
3102,76.0,30,59,0.0,90.0
3103,71.0,0,59,2.0,56.0
3104,80.0,0,59,1.0,127.0
3105,64.0,0,59,5.0,100.0
3106,76.0,30,29,4.0,100.0
3107,83.0,30,29,4.0,100.0
3108,83.0,0,59,1.0,127.0
3109,52.0,0,119,3.0,90.0
3110,74.0,0,59,0.0,90.0
3111,77.0,30,29,4.0,100.0
3112,68.0,0,59,2.0,56.0
3113,68.0,0,59,5.0,100.0
3114,76.0,30,29,4.0,100.0
3115,74.0,30,29,4.0,100.0
3116,71.0,0,59,5.0,100.0
3117,72.0,30,29,4.0,100.0
3118,69.0,0,59,2.0,56.0
3119,72.0,0,59,0.0,90.0
3120,76.0,0,59,1.0,127.0
3121,69.0,0,59,5.0,100.0
3122,76.0,30,29,4.0,100.0
3123,81.0,0,29,4.0,100.0
3124,81.0,0,59,0.0,90.0
3125,76.0,30,29,4.0,100.0
3126,52.0,0,119,3.0,90.0
3127,60.0,0,59,5.0,100.0
3128,64.0,0,59,1.0,127.0
3129,72.0,30,59,2.0,56.0
3130,74.0,30,29,4.0,100.0
3131,72.0,30,29,4.0,100.0
3132,57.0,0,59,5.0,100.0
3133,71.0,0,29,4.0,100.0
3134,64.0,0,29,5.0,100.0
3135,81.0,30,29,4.0,100.0
3136,71.0,0,59,2.0,56.0
3137,65.0,0,29,5.0,100.0
3138,64.0,0,59,1.0,127.0
3139,81.0,0,59,0.0,90.0
3140,52.0,30,59,3.0,90.0
3141,64.0,0,29,5.0,100.0
3142,80.0,30,29,4.0,100.0
3143,64.0,0,59,2.0,56.0
3144,71.0,0,59,1.0,127.0
3145,62.0,0,29,5.0,100.0
3146,83.0,30,29,4.0,100.0
3147,64.0,0,59,3.0,90.0
3148,80.0,0,59,0.0,90.0
3149,60.0,30,29,5.0,100.0
3150,76.0,0,29,4.0,100.0
3151,59.0,30,29,5.0,100.0
3152,74.0,0,29,4.0,100.0
3153,56.0,0,59,3.0,90.0
3154,57.0,30,29,5.0,100.0
3155,72.0,0,29,4.0,100.0
3156,81.0,0,59,0.0,90.0
3157,81.0,0,29,4.0,100.0
3158,72.0,0,59,1.0,127.0
3159,57.0,0,59,3.0,90.0
3160,64.0,30,29,5.0,100.0
3161,64.0,0,59,2.0,56.0
3162,71.0,0,29,4.0,100.0
3163,62.0,0,29,5.0,100.0
3164,65.0,0,59,2.0,56.0
3165,71.0,0,59,1.0,127.0
3166,81.0,0,59,0.0,90.0
3167,81.0,0,29,4.0,100.0
3168,60.0,30,29,5.0,100.0
3169,50.0,30,59,3.0,90.0
3170,79.0,0,29,4.0,100.0
3171,59.0,0,29,5.0,100.0
3172,52.0,0,59,3.0,90.0
3173,64.0,0,59,2.0,56.0
3174,64.0,0,29,5.0,100.0
3175,71.0,30,29,4.0,100.0
3176,79.0,30,59,0.0,90.0
3177,71.0,0,59,1.0,127.0
3178,73.0,0,29,4.0,100.0
3179,67.0,0,59,5.0,100.0
3180,64.0,0,59,2.0,56.0
3181,73.0,30,59,0.0,90.0
3182,69.0,0,59,1.0,127.0
3183,69.0,30,29,4.0,100.0
3184,76.0,30,29,4.0,100.0
3185,61.0,0,59,2.0,56.0
3186,57.0,0,59,5.0,100.0
3187,70.0,30,29,4.0,100.0
3188,76.0,0,59,0.0,90.0
3189,45.0,0,119,3.0,90.0
3190,67.0,0,59,1.0,127.0
3191,69.0,0,29,4.0,100.0
3192,61.0,30,59,5.0,100.0
3193,67.0,30,29,4.0,100.0
3194,65.0,0,29,4.0,100.0
3195,69.0,0,59,0.0,90.0
3196,65.0,30,59,1.0,127.0
3197,62.0,0,59,5.0,100.0
3198,62.0,0,59,2.0,56.0
3199,69.0,30,29,4.0,100.0
3200,74.0,0,29,4.0,100.0
3201,74.0,0,59,1.0,127.0
3202,53.0,30,59,5.0,100.0
3203,57.0,0,59,0.0,90.0
3204,65.0,0,59,2.0,56.0
3205,45.0,0,119,3.0,90.0
3206,69.0,30,29,4.0,100.0
3207,67.0,0,29,4.0,100.0
3208,65.0,30,29,4.0,100.0
3209,50.0,30,59,5.0,100.0
3210,57.0,30,29,5.0,100.0
3211,64.0,0,29,4.0,100.0
3212,74.0,0,59,1.0,127.0
3213,58.0,30,29,5.0,100.0
3214,64.0,0,59,2.0,56.0
3215,74.0,0,29,4.0,100.0
3216,57.0,0,59,0.0,90.0
3217,45.0,0,59,3.0,90.0
3218,73.0,30,29,4.0,100.0
3219,57.0,0,29,5.0,100.0
3220,57.0,0,59,3.0,90.0
3221,64.0,0,59,0.0,90.0
3222,73.0,0,59,1.0,127.0
3223,76.0,30,29,4.0,100.0
3224,55.0,0,29,5.0,100.0
3225,57.0,0,59,2.0,56.0
3226,53.0,30,29,5.0,100.0
3227,69.0,0,29,4.0,100.0
3228,49.0,0,59,3.0,90.0
3229,52.0,0,29,5.0,100.0
3230,67.0,30,29,4.0,100.0
3231,65.0,30,29,4.0,100.0
3232,50.0,0,29,5.0,100.0
3233,65.0,0,59,0.0,90.0
3234,74.0,0,29,4.0,100.0
3235,57.0,0,59,2.0,56.0
3236,57.0,30,29,5.0,100.0
3237,74.0,0,59,1.0,127.0
3238,50.0,0,59,3.0,90.0
3239,64.0,0,29,4.0,100.0
3240,55.0,0,29,5.0,100.0
3241,58.0,0,59,2.0,56.0
3242,43.0,0,59,3.0,90.0
3243,64.0,30,59,0.0,90.0
3244,74.0,0,59,1.0,127.0
3245,74.0,30,29,4.0,100.0
3246,53.0,0,29,5.0,100.0
3247,52.0,30,29,5.0,100.0
3248,72.0,0,29,4.0,100.0
3249,57.0,30,29,5.0,100.0
3250,72.0,0,59,1.0,127.0
3251,64.0,0,29,4.0,100.0
3252,45.0,0,59,3.0,90.0
3253,57.0,0,59,2.0,56.0
3254,64.0,0,59,0.0,90.0
3255,66.0,0,29,4.0,100.0
3256,60.0,0,29,5.0,100.0
3257,57.0,0,59,2.0,56.0
3258,62.0,0,59,0.0,90.0
3259,50.0,0,59,3.0,90.0
3260,69.0,0,29,4.0,100.0
3261,66.0,30,59,1.0,127.0
3262,63.0,30,29,5.0,100.0
3263,62.0,0,29,5.0,100.0
3264,72.0,0,29,4.0,100.0
3265,62.0,0,59,1.0,127.0
3266,60.0,30,29,5.0,100.0
3267,75.0,0,29,4.0,100.0
3268,54.0,0,59,3.0,90.0
3269,72.0,0,59,0.0,90.0
3270,69.0,30,59,2.0,56.0
3271,58.0,0,29,5.0,100.0
3272,74.0,30,29,4.0,100.0
3273,50.0,0,59,3.0,90.0
3274,57.0,0,29,5.0,100.0
3275,72.0,30,29,4.0,100.0
3276,70.0,0,29,4.0,100.0
3277,67.0,30,59,2.0,56.0
3278,74.0,0,59,1.0,127.0
3279,55.0,0,59,5.0,100.0
3280,55.0,0,59,3.0,90.0
3281,70.0,0,59,0.0,90.0
3282,74.0,30,29,4.0,100.0
3283,79.0,30,29,4.0,100.0
3284,81.0,30,29,4.0,100.0
3285,62.0,0,59,5.0,100.0
3286,62.0,0,59,2.0,56.0
3287,67.0,0,59,0.0,90.0
3288,58.0,0,59,3.0,90.0
3289,79.0,0,59,1.0,127.0
3290,82.0,30,29,4.0,100.0
3291,77.0,30,29,4.0,100.0
3292,55.0,0,59,3.0,90.0
3293,75.0,30,29,4.0,100.0
3294,79.0,30,29,4.0,100.0
3295,48.0,0,59,3.0,90.0
3296,75.0,0,59,0.0,90.0
3297,67.0,0,119,5.0,100.0
3298,67.0,0,59,1.0,127.0
3299,60.0,0,59,2.0,56.0
3300,72.0,0,29,4.0,100.0
3301,69.0,0,29,5.0,100.0
3302,82.0,30,29,4.0,100.0
3303,70.0,0,29,5.0,100.0
3304,72.0,0,59,1.0,127.0
3305,72.0,0,59,0.0,90.0
3306,51.0,0,59,3.0,90.0
3307,67.0,30,59,2.0,56.0
3308,81.0,30,29,4.0,100.0
3309,81.0,0,59,0.0,90.0
3310,79.0,30,29,4.0,100.0
3311,75.0,0,59,1.0,127.0
3312,63.0,0,59,2.0,56.0
3313,48.0,0,59,3.0,90.0
3314,78.0,0,29,4.0,100.0
3315,78.0,0,59,0.0,90.0
3316,57.0,30,59,2.0,56.0
3317,72.0,0,119,5.0,100.0
3318,74.0,0,59,1.0,127.0
3319,74.0,30,29,4.0,100.0
3320,81.0,30,29,4.0,100.0
3321,62.0,0,59,5.0,100.0
3322,81.0,0,59,1.0,127.0
3323,66.0,0,59,2.0,56.0
3324,74.0,0,59,0.0,90.0
3325,75.0,30,29,4.0,100.0
3326,50.0,0,120,3.0,90.0
3327,74.0,30,29,4.0,100.0
3328,66.0,0,59,5.0,100.0
3329,72.0,30,29,4.0,100.0
3330,70.0,0,29,4.0,100.0
3331,67.0,30,59,5.0,100.0
3332,74.0,0,59,0.0,90.0
3333,70.0,0,59,1.0,127.0
3334,67.0,0,59,2.0,56.0
3335,74.0,30,29,4.0,100.0
3336,79.0,30,29,4.0,100.0
3337,58.0,0,59,5.0,100.0
3338,74.0,0,59,1.0,127.0
3339,79.0,0,59,0.0,90.0
3340,70.0,0,59,2.0,56.0
3341,74.0,30,29,4.0,100.0
3342,50.0,0,120,3.0,90.0
3343,72.0,30,29,4.0,100.0
3344,55.0,0,59,5.0,100.0
3345,70.0,30,29,4.0,100.0
3346,69.0,0,29,4.0,100.0
3347,62.0,0,29,5.0,100.0
3348,79.0,0,29,4.0,100.0
3349,57.0,30,59,2.0,56.0
3350,74.0,0,59,1.0,127.0
3351,79.0,0,59,0.0,90.0
3352,50.0,0,59,3.0,90.0
3353,63.0,30,29,5.0,100.0
3354,78.0,0,29,4.0,100.0
3355,62.0,0,29,5.0,100.0
3356,60.0,0,29,5.0,100.0
3357,78.0,0,59,0.0,90.0
3358,62.0,0,59,3.0,90.0
3359,81.0,30,29,4.0,100.0
3360,62.0,30,59,2.0,56.0
3361,69.0,0,59,1.0,127.0
3362,74.0,30,29,4.0,100.0
3363,58.0,0,29,5.0,100.0
3364,54.0,0,59,3.0,90.0
3365,57.0,0,29,5.0,100.0
3366,72.0,30,29,4.0,100.0
3367,70.0,0,29,4.0,100.0
3368,55.0,0,29,5.0,100.0
3369,70.0,0,59,1.0,127.0
3370,79.0,30,29,4.0,100.0
3371,58.0,0,29,5.0,100.0
3372,62.0,0,59,2.0,56.0
3373,55.0,0,59,3.0,90.0
3374,79.0,30,59,0.0,90.0
3375,69.0,0,29,4.0,100.0
3376,60.0,0,29,5.0,100.0
3377,79.0,0,29,4.0,100.0
3378,79.0,0,59,0.0,90.0
3379,58.0,30,29,5.0,100.0
3380,48.0,0,59,3.0,90.0
3381,63.0,0,59,2.0,56.0
3382,69.0,30,59,1.0,127.0
3383,57.0,0,29,5.0,100.0
3384,78.0,0,29,4.0,100.0
3385,62.0,0,29,5.0,100.0
3386,50.0,30,59,3.0,90.0
3387,72.0,0,29,4.0,100.0
3388,69.0,30,29,4.0,100.0
3389,78.0,0,59,0.0,90.0
3390,69.0,0,59,1.0,127.0
3391,62.0,0,59,2.0,56.0
3392,55.0,0,29,5.0,100.0
3393,71.0,0,29,4.0,100.0
3394,62.0,30,59,2.0,56.0
3395,71.0,0,59,1.0,127.0
3396,62.0,30,29,5.0,100.0
3397,55.0,0,59,3.0,90.0
3398,77.0,0,59,0.0,90.0
3399,77.0,0,29,4.0,100.0
3400,72.0,0,29,4.0,100.0
3401,64.0,0,29,5.0,100.0
3402,77.0,30,29,4.0,100.0
3403,60.0,0,59,2.0,56.0
3404,72.0,0,59,1.0,127.0
3405,76.0,30,59,0.0,90.0
3406,60.0,0,59,3.0,90.0
3407,59.0,0,29,5.0,100.0
3408,60.0,30,29,5.0,100.0
3409,76.0,0,29,4.0,100.0
3410,67.0,0,29,4.0,100.0
3411,48.0,0,59,3.0,90.0
3412,70.0,0,29,4.0,100.0
3413,52.0,30,29,5.0,100.0
3414,53.0,30,29,5.0,100.0
3415,69.0,0,29,4.0,100.0
3416,75.0,0,59,0.0,90.0
3417,69.0,0,59,1.0,127.0
3418,53.0,0,59,3.0,90.0
3419,60.0,30,29,5.0,100.0
3420,75.0,0,29,4.0,100.0
3421,60.0,0,59,2.0,56.0
3422,62.0,30,29,5.0,100.0
3423,70.0,0,29,4.0,100.0
3424,75.0,30,29,4.0,100.0
3425,74.0,0,59,0.0,90.0
3426,58.0,0,59,3.0,90.0
3427,70.0,0,59,1.0,127.0
3428,57.0,0,29,5.0,100.0
3429,58.0,0,59,2.0,56.0
3430,58.0,0,29,5.0,100.0
3431,74.0,30,29,4.0,100.0
3432,46.0,0,59,3.0,90.0
3433,50.0,30,29,5.0,100.0
3434,65.0,0,29,4.0,100.0
3435,52.0,30,29,5.0,100.0
3436,67.0,0,29,4.0,100.0
3437,67.0,0,59,1.0,127.0
3438,74.0,0,29,4.0,100.0
3439,58.0,0,59,2.0,56.0
3440,74.0,0,59,0.0,90.0
3441,58.0,30,29,5.0,100.0
3442,52.0,0,59,3.0,90.0
3443,69.0,30,29,4.0,100.0
3444,57.0,0,29,5.0,100.0
3445,73.0,0,59,0.0,90.0
3446,69.0,0,59,1.0,127.0
3447,55.0,30,29,5.0,100.0
3448,57.0,0,59,2.0,56.0
3449,74.0,0,29,4.0,100.0
3450,57.0,0,59,3.0,90.0
3451,57.0,0,29,5.0,100.0
3452,73.0,0,29,4.0,100.0
3453,64.0,30,29,4.0,100.0
3454,45.0,30,59,3.0,90.0
3455,49.0,0,29,5.0,100.0
3456,66.0,0,29,4.0,100.0
3457,50.0,0,29,5.0,100.0
3458,66.0,0,59,1.0,127.0
3459,72.0,0,29,4.0,100.0
3460,57.0,30,59,2.0,56.0
3461,50.0,0,59,3.0,90.0
3462,72.0,0,59,0.0,90.0
3463,57.0,30,29,5.0,100.0
3464,70.0,0,29,4.0,100.0
3465,55.0,0,29,5.0,100.0
3466,74.0,30,29,4.0,100.0
3467,70.0,0,59,0.0,90.0
3468,67.0,0,59,1.0,127.0
3469,55.0,0,59,3.0,90.0
3470,50.0,0,29,5.0,100.0
3471,55.0,30,59,2.0,56.0
3472,46.0,0,29,5.0,100.0
3473,79.0,30,29,4.0,100.0
3474,43.0,0,59,3.0,90.0
3475,43.0,30,29,5.0,100.0
3476,82.0,0,29,4.0,100.0
3477,76.0,30,29,4.0,100.0
3478,48.0,0,29,5.0,100.0
3479,72.0,30,29,4.0,100.0
3480,48.0,0,59,3.0,90.0
3481,76.0,0,59,0.0,90.0
3482,60.0,0,59,2.0,56.0
3483,55.0,0,29,5.0,100.0
3484,67.0,0,59,1.0,127.0
3485,79.0,0,29,4.0,100.0
3486,52.0,0,29,5.0,100.0
3487,79.0,0,59,0.0,90.0
3488,70.0,0,29,4.0,100.0
3489,55.0,0,59,2.0,56.0
3490,52.0,0,59,3.0,90.0
3491,60.0,30,59,1.0,127.0
3492,48.0,30,29,5.0,100.0
3493,69.0,0,29,4.0,100.0
3494,60.0,30,29,5.0,100.0
3495,67.0,0,29,4.0,100.0
3496,52.0,30,29,5.0,100.0
3497,53.0,0,29,5.0,100.0
3498,68.0,30,29,4.0,100.0
3499,68.0,0,59,1.0,127.0
3500,53.0,0,59,3.0,90.0
3501,60.0,0,59,2.0,56.0
3502,56.0,0,29,5.0,100.0
3503,77.0,0,59,0.0,90.0
3504,77.0,30,29,4.0,100.0
3505,67.0,0,29,4.0,100.0
3506,60.0,0,29,5.0,100.0
3507,60.0,30,59,3.0,90.0
3508,67.0,0,59,1.0,127.0
3509,59.0,0,29,5.0,100.0
3510,77.0,0,59,0.0,90.0
3511,60.0,0,59,2.0,56.0
3512,77.0,30,29,4.0,100.0
3513,76.0,0,29,4.0,100.0
3514,76.0,0,59,0.0,90.0
3515,48.0,0,59,3.0,90.0
3516,73.0,30,29,4.0,100.0
3517,67.0,0,59,1.0,127.0
3518,60.0,0,59,2.0,56.0
3519,70.0,0,29,4.0,100.0
3520,67.0,30,29,4.0,100.0
3521,79.0,0,59,0.0,90.0
3522,60.0,30,119,5.0,100.0
3523,60.0,30,59,2.0,56.0
3524,67.0,0,59,1.0,127.0
3525,40.0,0,59,3.0,90.0
3526,64.0,0,29,4.0,100.0
3527,70.0,0,59,0.0,90.0
3528,67.0,0,59,1.0,127.0
3529,60.0,0,59,2.0,56.0
3530,67.0,30,29,4.0,100.0
3531,48.0,30,59,5.0,100.0
3532,40.0,0,59,3.0,90.0
3533,60.0,30,29,4.0,100.0
3534,58.0,30,29,4.0,100.0
3535,40.0,0,59,3.0,90.0
3536,57.0,30,29,4.0,100.0
3537,41.0,0,59,3.0,90.0
3538,60.0,30,29,4.0,100.0
3539,65.0,0,29,4.0,100.0
3540,50.0,30,59,3.0,90.0
3541,69.0,30,29,4.0,100.0
3542,72.0,0,29,4.0,100.0
3543,45.0,30,59,3.0,90.0
3544,76.0,30,29,4.0,100.0
3545,77.0,30,29,4.0,100.0
3546,46.0,30,29,3.0,90.0
3547,58.0,0,29,5.0,100.0
3548,70.0,0,29,4.0,100.0
3549,48.0,30,59,3.0,90.0
3550,60.0,0,59,5.0,100.0
3551,64.0,0,89,4.0,100.0
3552,67.0,0,89,4.0,100.0
3553,65.0,30,29,4.0,100.0
3554,36.0,60,59,3.0,90.0
3555,48.0,0,59,5.0,100.0
3556,65.0,0,59,4.0,100.0
3557,53.0,30,29,5.0,100.0
3558,57.0,0,29,5.0,100.0
3559,77.0,0,59,4.0,100.0
3560,77.0,30,59,0.0,90.0
3561,41.0,30,119,3.0,90.0
3562,77.0,0,59,6.0,100.0
3563,60.0,30,29,5.0,100.0
3564,77.0,0,59,8.0,100.0
3565,81.0,0,14,8.0,100.0
3566,81.0,30,14,6.0,100.0
3567,81.0,0,14,4.0,100.0
3568,79.0,0,14,6.0,100.0
3569,79.0,15,14,8.0,100.0
3570,65.0,0,29,5.0,100.0
3571,79.0,0,14,4.0,100.0
3572,77.0,0,14,4.0,100.0
3573,77.0,15,14,6.0,100.0
3574,77.0,0,14,8.0,100.0
3575,79.0,0,14,8.0,100.0
3576,64.0,0,29,5.0,100.0
3577,79.0,15,14,4.0,100.0
3578,79.0,0,59,0.0,90.0
3579,79.0,0,14,6.0,100.0
3580,81.0,0,59,8.0,100.0
3581,81.0,0,59,6.0,100.0
3582,81.0,0,59,4.0,100.0
3583,65.0,0,59,5.0,100.0
3584,53.0,30,29,7.0,100.0
3585,81.0,15,59,0.0,90.0
3586,57.0,0,29,7.0,100.0
3587,53.0,0,29,10.0,100.0
3588,60.0,0,29,7.0,100.0
3589,41.0,0,59,3.0,90.0
3590,65.0,0,59,2.0,56.0
3591,60.0,0,59,5.0,100.0
3592,57.0,30,59,5.0,100.0
3593,81.0,0,59,6.0,100.0
3594,81.0,0,59,0.0,90.0
3595,81.0,0,59,8.0,100.0
3596,52.0,30,29,10.0,100.0
3597,81.0,0,59,4.0,100.0
3598,72.0,0,59,1.0,127.0
3599,84.0,0,14,4.0,100.0
3600,84.0,0,14,8.0,100.0
3601,84.0,0,14,6.0,100.0
3602,82.0,0,14,8.0,100.0
3603,65.0,0,29,7.0,100.0
3604,53.0,0,29,10.0,100.0
3605,82.0,0,14,6.0,100.0
3606,82.0,15,14,4.0,100.0
3607,81.0,0,14,8.0,100.0
3608,81.0,15,14,6.0,100.0
3609,81.0,0,14,4.0,100.0
3610,82.0,0,14,8.0,100.0
3611,82.0,0,59,0.0,90.0
3612,82.0,15,14,6.0,100.0
3613,67.0,0,59,1.0,127.0
3614,82.0,0,14,4.0,100.0
3615,55.0,0,29,10.0,100.0
3616,64.0,0,29,7.0,100.0
3617,55.0,0,59,5.0,100.0
3618,58.0,0,59,5.0,100.0
3619,64.0,0,59,2.0,56.0
3620,43.0,30,59,3.0,90.0
3621,65.0,0,29,7.0,100.0
3622,57.0,0,29,5.0,100.0
3623,57.0,0,29,10.0,100.0
3624,53.0,0,29,5.0,100.0
3625,65.0,15,59,2.0,56.0
3626,60.0,0,29,5.0,100.0
3627,55.0,0,29,10.0,100.0
3628,84.0,0,59,8.0,100.0
3629,64.0,30,29,7.0,100.0
3630,84.0,0,59,4.0,100.0
3631,84.0,0,59,0.0,90.0
3632,60.0,0,59,1.0,127.0
3633,45.0,0,59,3.0,90.0
3634,84.0,0,59,6.0,100.0
3635,53.0,0,29,10.0,100.0
3636,62.0,0,29,7.0,100.0
3637,58.0,0,29,5.0,100.0
3638,57.0,30,29,5.0,100.0
3639,84.0,0,59,0.0,90.0
3640,60.0,0,29,7.0,100.0
3641,69.0,0,59,2.0,56.0
3642,55.0,0,29,10.0,100.0
3643,84.0,0,59,4.0,100.0
3644,84.0,0,59,6.0,100.0
3645,45.0,0,59,3.0,90.0
3646,65.0,0,59,1.0,127.0
3647,84.0,30,59,8.0,100.0
3648,57.0,0,29,10.0,100.0
3649,55.0,0,29,5.0,100.0
3650,58.0,30,29,7.0,100.0
3651,86.0,0,59,6.0,100.0
3652,46.0,0,59,3.0,90.0
3653,86.0,0,59,4.0,100.0
3654,62.0,0,59,2.0,56.0
3655,57.0,0,29,7.0,100.0
3656,65.0,0,59,1.0,127.0
3657,86.0,0,59,0.0,90.0
3658,86.0,0,59,8.0,100.0
3659,53.0,0,29,5.0,100.0
3660,58.0,30,29,10.0,100.0
3661,55.0,0,29,7.0,100.0
3662,52.0,0,29,5.0,100.0
3663,72.0,30,59,1.0,127.0
3664,84.0,0,59,4.0,100.0
3665,84.0,0,59,6.0,100.0
3666,64.0,0,59,2.0,56.0
3667,48.0,0,59,3.0,90.0
3668,84.0,0,59,8.0,100.0
3669,84.0,0,59,0.0,90.0
3670,50.0,30,29,5.0,100.0
3671,57.0,0,29,7.0,100.0
3672,60.0,0,59,10.0,100.0
3673,55.0,0,29,7.0,100.0
3674,52.0,0,29,5.0,100.0
3675,82.0,0,29,8.0,100.0
3676,82.0,0,29,0.0,90.0
3677,82.0,0,29,4.0,100.0
3678,82.0,30,29,6.0,100.0
3679,72.0,0,59,1.0,127.0
3680,81.0,0,29,6.0,100.0
3681,48.0,0,59,3.0,90.0
3682,64.0,0,59,2.0,56.0
3683,53.0,0,29,5.0,100.0
3684,81.0,0,29,8.0,100.0
3685,53.0,0,29,7.0,100.0
3686,60.0,0,59,10.0,100.0
3687,81.0,0,29,4.0,100.0
3688,81.0,30,29,0.0,90.0
3689,52.0,0,29,5.0,100.0
3690,79.0,0,29,4.0,100.0
3691,79.0,0,29,0.0,90.0
3692,55.0,0,29,7.0,100.0
3693,79.0,0,29,6.0,100.0
3694,79.0,0,29,8.0,100.0
3695,62.0,0,59,10.0,100.0
3696,77.0,0,29,0.0,90.0
3697,57.0,0,29,7.0,100.0
3698,77.0,30,29,8.0,100.0
3699,53.0,0,29,5.0,100.0
3700,50.0,30,59,3.0,90.0
3701,77.0,0,29,4.0,100.0
3702,62.0,0,59,2.0,56.0
3703,77.0,0,29,6.0,100.0
3704,70.0,0,59,1.0,127.0
3705,76.0,0,29,8.0,100.0
3706,58.0,0,29,7.0,100.0
3707,76.0,0,29,0.0,90.0
3708,76.0,0,29,4.0,100.0
3709,76.0,0,29,6.0,100.0
3710,72.0,0,59,1.0,127.0
3711,55.0,0,59,2.0,56.0
3712,48.0,30,59,3.0,90.0
3713,60.0,0,59,10.0,100.0
3714,74.0,30,29,0.0,90.0
3715,74.0,0,29,6.0,100.0
3716,74.0,0,29,8.0,100.0
3717,65.0,0,29,7.0,100.0
3718,55.0,0,59,5.0,100.0
3719,74.0,0,29,4.0,100.0
3720,72.0,0,29,6.0,100.0
3721,58.0,0,29,10.0,100.0
3722,67.0,30,29,5.0,100.0
3723,72.0,0,29,0.0,90.0
3724,46.0,0,29,3.0,90.0
3725,72.0,0,29,4.0,100.0
3726,64.0,0,29,7.0,100.0
3727,72.0,0,29,8.0,100.0
3728,74.0,0,29,0.0,90.0
3729,74.0,0,29,8.0,100.0
3730,67.0,0,59,2.0,56.0
3731,62.0,0,29,7.0,100.0
3732,57.0,0,29,10.0,100.0
3733,74.0,0,29,4.0,100.0
3734,72.0,0,59,1.0,127.0
3735,45.0,30,29,3.0,90.0
3736,65.0,0,29,5.0,100.0
3737,74.0,0,29,6.0,100.0
3738,76.0,30,29,6.0,100.0
3739,43.0,0,29,3.0,90.0
3740,76.0,0,29,4.0,100.0
3741,55.0,0,29,10.0,100.0
3742,64.0,0,29,5.0,100.0
3743,76.0,0,29,8.0,100.0
3744,76.0,0,29,0.0,90.0
3745,60.0,0,29,7.0,100.0
3746,62.0,30,29,7.0,100.0
3747,77.0,0,29,6.0,100.0
3748,77.0,0,29,4.0,100.0
3749,53.0,0,29,10.0,100.0
3750,62.0,0,29,5.0,100.0
3751,77.0,0,29,0.0,90.0
3752,72.0,0,59,1.0,127.0
3753,77.0,0,29,8.0,100.0
3754,41.0,0,29,3.0,90.0
3755,67.0,0,59,2.0,56.0
3756,60.0,0,29,5.0,100.0
3757,64.0,0,29,7.0,100.0
3758,65.0,0,29,7.0,100.0
3759,79.0,0,59,6.0,100.0
3760,72.0,0,59,1.0,127.0
3761,52.0,0,59,10.0,100.0
3762,67.0,0,59,2.0,56.0
3763,40.0,0,59,3.0,90.0
3764,62.0,30,29,5.0,100.0
3765,79.0,0,59,0.0,90.0
3766,79.0,30,59,4.0,100.0
3767,79.0,0,59,8.0,100.0
3768,60.0,0,29,5.0,100.0
3769,64.0,0,29,7.0,100.0
3770,62.0,30,29,7.0,100.0
3771,48.0,0,59,10.0,100.0
3772,58.0,0,29,5.0,100.0
3773,79.0,0,59,4.0,100.0
3774,79.0,0,59,0.0,90.0
3775,79.0,0,59,8.0,100.0
3776,79.0,0,59,6.0,100.0
3777,36.0,30,59,3.0,90.0
3778,76.0,0,59,1.0,127.0
3779,72.0,0,59,2.0,56.0
3780,57.0,0,29,5.0,100.0
3781,60.0,0,29,7.0,100.0
3782,58.0,0,29,5.0,100.0
3783,81.0,30,59,4.0,100.0
3784,72.0,0,59,2.0,56.0
3785,81.0,0,59,8.0,100.0
3786,53.0,0,59,10.0,100.0
3787,81.0,0,59,6.0,100.0
3788,81.0,0,59,0.0,90.0
3789,41.0,0,59,3.0,90.0
3790,62.0,30,29,7.0,100.0
3791,77.0,0,59,1.0,127.0
3792,79.0,0,59,4.0,100.0
3793,60.0,0,59,5.0,100.0
3794,79.0,0,59,0.0,90.0
3795,48.0,0,59,3.0,90.0
3796,72.0,30,59,2.0,56.0
3797,79.0,0,59,6.0,100.0
3798,76.0,0,59,1.0,127.0
3799,48.0,0,59,10.0,100.0
3800,64.0,0,59,7.0,100.0
3801,79.0,0,59,8.0,100.0
3802,60.0,0,29,2.0,56.0
3803,60.0,0,29,1.0,127.0
3804,60.0,0,29,8.0,100.0
3805,60.0,0,29,4.0,100.0
3806,60.0,0,29,6.0,100.0
3807,60.0,0,29,0.0,90.0
3808,62.0,0,29,2.0,56.0
3809,62.0,0,29,8.0,100.0
3810,52.0,60,59,10.0,100.0
3811,62.0,0,29,1.0,127.0
3812,62.0,0,29,0.0,90.0
3813,52.0,0,59,7.0,100.0
3814,52.0,0,59,3.0,90.0
3815,62.0,30,29,4.0,100.0
3816,52.0,0,59,5.0,100.0
3817,62.0,0,29,6.0,100.0
3818,64.0,0,29,6.0,100.0
3819,64.0,0,29,0.0,90.0
3820,64.0,0,29,1.0,127.0
3821,64.0,0,29,8.0,100.0
3822,64.0,0,29,2.0,56.0
3823,64.0,0,29,4.0,100.0
3824,55.0,0,59,10.0,100.0
3825,65.0,0,29,8.0,100.0
3826,65.0,0,29,4.0,100.0
3827,55.0,0,59,3.0,90.0
3828,65.0,0,29,1.0,127.0
3829,65.0,0,29,2.0,56.0
3830,65.0,0,29,0.0,90.0
3831,55.0,0,59,7.0,100.0
3832,55.0,30,59,5.0,100.0
3833,65.0,30,29,6.0,100.0
3834,60.0,0,59,3.0,90.0
3835,67.0,0,59,0.0,90.0
3836,67.0,30,59,6.0,100.0
3837,67.0,0,59,4.0,100.0
3838,67.0,0,59,8.0,100.0
3839,67.0,0,59,2.0,56.0
3840,60.0,0,59,10.0,100.0
3841,60.0,0,59,5.0,100.0
3842,67.0,0,59,1.0,127.0
3843,60.0,0,59,7.0,100.0
3844,58.0,0,29,5.0,100.0
3845,58.0,0,29,10.0,100.0
3846,58.0,0,29,7.0,100.0
3847,67.0,0,59,1.0,127.0
3848,60.0,0,59,4.0,100.0
3849,57.0,0,29,7.0,100.0
3850,64.0,0,59,4.0,100.0
3851,64.0,0,59,3.0,90.0
3852,57.0,30,29,5.0,100.0
3853,60.0,0,59,8.0,100.0
3854,64.0,0,59,6.0,100.0
3855,64.0,60,59,8.0,100.0
3856,60.0,0,59,6.0,100.0
3857,67.0,0,59,0.0,90.0
3858,67.0,0,59,2.0,56.0
3859,57.0,0,29,10.0,100.0
3860,55.0,0,29,5.0,100.0
3861,55.0,0,29,7.0,100.0
3862,55.0,0,29,10.0,100.0
3863,69.0,0,59,4.0,100.0
3864,65.0,0,59,6.0,100.0
3865,60.0,0,59,6.0,100.0
3866,69.0,0,59,6.0,100.0
3867,65.0,0,59,3.0,90.0
3868,65.0,0,59,4.0,100.0
3869,60.0,0,59,4.0,100.0
3870,53.0,0,29,7.0,100.0
3871,60.0,0,59,8.0,100.0
3872,65.0,0,59,8.0,100.0
3873,69.0,0,59,8.0,100.0
3874,53.0,0,29,10.0,100.0
3875,69.0,0,59,0.0,90.0
3876,69.0,30,59,2.0,56.0
3877,53.0,30,29,5.0,100.0
3878,69.0,0,59,1.0,127.0
3879,67.0,0,29,4.0,100.0
3880,64.0,0,29,4.0,100.0
3881,72.0,30,29,4.0,100.0
3882,60.0,0,59,10.0,100.0
3883,60.0,0,59,5.0,100.0
3884,67.0,0,59,2.0,56.0
3885,60.0,0,59,3.0,90.0
3886,64.0,0,59,8.0,100.0
3887,64.0,30,59,6.0,100.0
3888,67.0,0,59,8.0,100.0
3889,67.0,0,59,1.0,127.0
3890,60.0,0,59,7.0,100.0
3891,67.0,0,59,6.0,100.0
3892,67.0,0,59,0.0,90.0
3893,76.0,0,29,4.0,100.0
3894,60.0,30,59,2.0,56.0
3895,60.0,0,59,6.0,100.0
3896,84.0,0,59,0.0,90.0
3897,60.0,0,59,5.0,100.0
3898,79.0,30,29,4.0,100.0
3899,60.0,0,59,8.0,100.0
3900,62.0,0,15,6.0,100.0
3901,84.0,0,29,4.0,100.0
3902,64.0,15,15,6.0,100.0
3903,62.0,0,29,6.0,100.0
3904,83.0,15,29,4.0,100.0
3905,62.0,0,59,2.0,56.0
3906,62.0,30,59,5.0,100.0
3907,83.0,0,59,0.0,90.0
3908,62.0,0,59,8.0,100.0
3909,64.0,30,59,10.0,100.0
3910,72.0,30,29,8.0,100.0
3911,64.0,0,59,5.0,100.0
3912,64.0,0,59,6.0,100.0
3913,64.0,0,59,2.0,56.0
3914,84.0,0,59,0.0,90.0
3915,84.0,0,59,4.0,100.0
3916,76.0,0,29,8.0,100.0
3917,79.0,30,29,8.0,100.0
3918,79.0,30,59,4.0,100.0
3919,64.0,0,59,5.0,100.0
3920,64.0,0,59,6.0,100.0
3921,48.0,0,59,7.0,100.0
3922,60.0,0,59,10.0,100.0
3923,64.0,0,59,10.0,100.0
3924,48.0,0,59,3.0,90.0
3925,64.0,0,59,2.0,56.0
3926,79.0,0,59,0.0,90.0
3927,84.0,0,59,1.0,127.0
3928,67.0,0,14,6.0,100.0
3929,65.0,15,14,6.0,100.0
3930,84.0,0,29,8.0,100.0
3931,64.0,15,14,6.0,100.0
3932,65.0,0,59,2.0,56.0
3933,62.0,0,59,10.0,100.0
3934,50.0,0,59,7.0,100.0
3935,65.0,0,59,10.0,100.0
3936,65.0,0,59,5.0,100.0
3937,83.0,0,59,1.0,127.0
3938,77.0,0,59,4.0,100.0
3939,50.0,0,59,3.0,90.0
3940,83.0,0,29,8.0,100.0
3941,65.0,15,14,6.0,100.0
3942,77.0,30,59,0.0,90.0
3943,84.0,0,29,1.0,127.0
3944,76.0,15,29,4.0,100.0
3945,76.0,0,29,0.0,90.0
3946,84.0,0,29,8.0,100.0
3947,82.0,30,29,8.0,100.0
3948,67.0,0,59,5.0,100.0
3949,79.0,0,29,4.0,100.0
3950,67.0,0,59,6.0,100.0
3951,67.0,0,59,2.0,56.0
3952,67.0,0,59,10.0,100.0
3953,52.0,0,59,3.0,90.0
3954,52.0,0,59,7.0,100.0
3955,79.0,0,29,0.0,90.0
3956,82.0,0,29,1.0,127.0
3957,64.0,0,59,10.0,100.0
3958,81.0,0,29,1.0,127.0
3959,77.0,0,29,0.0,90.0
3960,77.0,0,29,4.0,100.0
3961,81.0,0,29,8.0,100.0
3962,67.0,0,59,5.0,100.0
3963,76.0,30,29,4.0,100.0
3964,76.0,0,29,0.0,90.0
3965,79.0,0,29,8.0,100.0
3966,64.0,0,59,10.0,100.0
3967,67.0,0,59,10.0,100.0
3968,79.0,0,29,1.0,127.0
3969,52.0,0,59,7.0,100.0
3970,67.0,0,59,2.0,56.0
3971,67.0,30,59,6.0,100.0
3972,52.0,0,59,3.0,90.0
3973,77.0,0,29,8.0,100.0
3974,74.0,0,29,4.0,100.0
3975,74.0,0,29,0.0,90.0
3976,72.0,0,29,4.0,100.0
3977,69.0,0,59,2.0,56.0
3978,69.0,0,59,10.0,100.0
3979,65.0,0,59,10.0,100.0
3980,53.0,0,59,7.0,100.0
3981,69.0,0,59,6.0,100.0
3982,53.0,30,59,3.0,90.0
3983,76.0,30,29,8.0,100.0
3984,72.0,0,29,0.0,90.0
3985,69.0,0,59,5.0,100.0
3986,77.0,0,29,8.0,100.0
3987,71.0,0,29,4.0,100.0
3988,77.0,0,89,1.0,127.0
3989,71.0,0,29,0.0,90.0
3990,76.0,0,29,8.0,100.0
3991,76.0,30,29,1.0,127.0
3992,67.0,0,59,5.0,100.0
3993,67.0,0,59,10.0,100.0
3994,55.0,0,59,3.0,90.0
3995,72.0,0,29,0.0,90.0
3996,69.0,0,29,4.0,100.0
3997,67.0,0,59,2.0,56.0
3998,67.0,0,59,6.0,100.0
3999,55.0,30,59,7.0,100.0
4000,74.0,0,29,1.0,127.0
4001,74.0,0,29,8.0,100.0
4002,65.0,0,29,2.0,56.0
4003,65.0,0,29,10.0,100.0
4004,65.0,0,29,6.0,100.0
4005,74.0,0,29,0.0,90.0
4006,65.0,0,29,5.0,100.0
4007,71.0,0,29,4.0,100.0
4008,64.0,30,29,2.0,56.0
4009,72.0,0,29,8.0,100.0
4010,64.0,0,29,6.0,100.0
4011,55.0,30,59,7.0,100.0
4012,55.0,0,59,3.0,90.0
4013,72.0,0,29,1.0,127.0
4014,76.0,0,29,0.0,90.0
4015,64.0,0,29,10.0,100.0
4016,64.0,0,29,5.0,100.0
4017,72.0,0,29,4.0,100.0
4018,74.0,0,29,8.0,100.0
4019,62.0,0,29,2.0,56.0
4020,62.0,0,29,5.0,100.0
4021,62.0,0,29,6.0,100.0
4022,62.0,30,29,10.0,100.0
4023,71.0,0,29,1.0,127.0
4024,71.0,0,29,4.0,100.0
4025,60.0,0,29,6.0,100.0
4026,72.0,0,29,4.0,100.0
4027,77.0,0,59,0.0,90.0
4028,77.0,0,29,8.0,100.0
4029,60.0,30,29,2.0,56.0
4030,60.0,0,29,10.0,100.0
4031,57.0,0,59,3.0,90.0
4032,57.0,0,59,7.0,100.0
4033,72.0,0,29,1.0,127.0
4034,60.0,0,29,5.0,100.0
4035,67.0,0,29,0.0,90.0
4036,59.0,30,29,6.0,100.0
4037,74.0,0,29,4.0,100.0
4038,67.0,0,29,8.0,100.0
4039,59.0,0,29,2.0,56.0
4040,59.0,0,29,10.0,100.0
4041,59.0,0,29,5.0,100.0
4042,74.0,0,29,1.0,127.0
4043,57.0,0,29,2.0,56.0
4044,57.0,0,29,6.0,100.0
4045,69.0,0,29,8.0,100.0
4046,55.0,0,59,7.0,100.0
4047,72.0,30,29,4.0,100.0
4048,69.0,0,29,0.0,90.0
4049,72.0,0,29,1.0,127.0
4050,57.0,0,29,5.0,100.0
4051,55.0,0,59,3.0,90.0
4052,57.0,0,29,10.0,100.0
4053,55.0,0,29,10.0,100.0
4054,53.0,0,29,3.0,90.0
4055,55.0,0,29,5.0,100.0
4056,55.0,30,29,2.0,56.0
4057,71.0,0,29,1.0,127.0
4058,71.0,0,29,4.0,100.0
4059,53.0,0,29,7.0,100.0
4060,71.0,0,29,8.0,100.0
4061,55.0,0,29,6.0,100.0
4062,71.0,0,29,0.0,90.0
4063,72.0,0,29,0.0,90.0
4064,69.0,0,29,1.0,127.0
4065,57.0,0,29,6.0,100.0
4066,69.0,0,29,4.0,100.0
4067,57.0,0,29,10.0,100.0
4068,57.0,0,29,5.0,100.0
4069,52.0,0,29,3.0,90.0
4070,57.0,0,29,2.0,56.0
4071,72.0,30,29,8.0,100.0
4072,52.0,0,29,7.0,100.0
4073,59.0,0,29,2.0,56.0
4074,59.0,0,29,5.0,100.0
4075,67.0,0,29,4.0,100.0
4076,50.0,30,29,3.0,90.0
4077,74.0,0,29,8.0,100.0
4078,59.0,0,29,10.0,100.0
4079,59.0,0,29,6.0,100.0
4080,50.0,0,29,7.0,100.0
4081,48.0,0,29,7.0,100.0
4082,60.0,0,29,6.0,100.0
4083,48.0,0,29,3.0,90.0
4084,74.0,0,59,0.0,90.0
4085,76.0,0,29,8.0,100.0
4086,60.0,0,29,10.0,100.0
4087,60.0,30,29,5.0,100.0
4088,69.0,0,29,4.0,100.0
4089,60.0,0,29,2.0,56.0
4090,77.0,0,29,8.0,100.0
4091,71.0,0,29,4.0,100.0
4092,47.0,0,59,3.0,90.0
4093,62.0,0,59,6.0,100.0
4094,81.0,30,29,8.0,100.0
4095,62.0,0,59,5.0,100.0
4096,62.0,0,59,2.0,56.0
4097,72.0,0,29,4.0,100.0
4098,47.0,0,59,7.0,100.0
4099,67.0,0,119,1.0,127.0
4100,62.0,0,59,0.0,90.0
4101,62.0,30,59,10.0,100.0
4102,79.0,0,29,8.0,100.0
4103,71.0,0,29,4.0,100.0
4104,62.0,0,59,10.0,100.0
4105,59.0,0,59,10.0,100.0
4106,77.0,30,29,8.0,100.0
4107,74.0,0,59,0.0,90.0
4108,62.0,30,59,2.0,56.0
4109,43.0,0,59,3.0,90.0
4110,43.0,0,59,7.0,100.0
4111,67.0,0,59,1.0,127.0
4112,62.0,0,59,5.0,100.0
4113,62.0,0,59,6.0,100.0
4114,69.0,0,29,4.0,100.0
4115,67.0,0,29,4.0,100.0
4116,76.0,0,29,8.0,100.0
4117,48.0,30,59,3.0,90.0
4118,77.0,0,29,8.0,100.0
4119,64.0,0,59,6.0,100.0
4120,64.0,0,59,5.0,100.0
4121,64.0,0,59,2.0,56.0
4122,60.0,0,59,10.0,100.0
4123,64.0,0,59,10.0,100.0
4124,69.0,30,29,4.0,100.0
4125,67.0,0,59,1.0,127.0
4126,48.0,0,59,7.0,100.0
4127,72.0,0,59,0.0,90.0
4128,71.0,0,29,4.0,100.0
4129,55.0,0,29,7.0,100.0
4130,62.0,0,59,6.0,100.0
4131,43.0,0,59,3.0,90.0
4132,67.0,0,59,1.0,127.0
4133,57.0,0,29,7.0,100.0
4134,62.0,0,59,2.0,56.0
4135,62.0,0,59,10.0,100.0
4136,55.0,0,59,10.0,100.0
4137,79.0,0,59,8.0,100.0
4138,67.0,30,29,4.0,100.0
4139,71.0,0,59,0.0,90.0
4140,62.0,30,59,5.0,100.0
4141,72.0,0,14,8.0,100.0
4142,71.0,0,29,4.0,100.0
4143,71.0,15,14,8.0,100.0
4144,55.0,0,29,7.0,100.0
4145,72.0,0,14,8.0,100.0
4146,62.0,0,59,5.0,100.0
4147,74.0,15,29,4.0,100.0
4148,71.0,15,14,8.0,100.0
4149,59.0,0,59,6.0,100.0
4150,62.0,0,59,6.0,100.0
4151,67.0,0,59,6.0,100.0
4152,55.0,0,59,3.0,90.0
4153,67.0,0,59,0.0,90.0
4154,59.0,0,59,2.0,56.0
4155,55.0,0,59,10.0,100.0
4156,62.0,30,59,1.0,127.0
4157,53.0,0,29,7.0,100.0
4158,72.0,0,14,8.0,100.0
4159,79.0,0,29,4.0,100.0
4160,52.0,0,29,7.0,100.0
4161,71.0,15,14,8.0,100.0
4162,69.0,0,14,8.0,100.0
4163,71.0,15,14,8.0,100.0
4164,77.0,0,29,4.0,100.0
4165,59.0,0,59,5.0,100.0
4166,43.0,0,59,3.0,90.0
4167,67.0,15,59,6.0,100.0
4168,50.0,15,29,7.0,100.0
4169,43.0,0,59,10.0,100.0
4170,62.0,0,59,6.0,100.0
4171,55.0,0,59,6.0,100.0
4172,60.0,0,29,10.0,100.0
4173,64.0,0,29,6.0,100.0
4174,55.0,0,29,6.0,100.0
4175,67.0,0,29,6.0,100.0
4176,72.0,0,59,8.0,100.0
4177,48.0,0,59,3.0,90.0
4178,76.0,0,59,4.0,100.0
4179,62.0,30,29,10.0,100.0
4180,48.0,0,59,7.0,100.0
4181,79.0,15,59,0.0,90.0
4182,64.0,0,59,1.0,127.0
4183,60.0,0,59,2.0,56.0
4184,60.0,0,29,6.0,100.0
4185,55.0,0,59,5.0,100.0
4186,77.0,0,14,4.0,100.0
4187,60.0,0,29,10.0,100.0
4188,64.0,0,29,6.0,100.0
4189,76.0,15,14,4.0,100.0
4190,77.0,0,14,4.0,100.0
4191,58.0,15,29,10.0,100.0
4192,76.0,0,59,0.0,90.0
4193,67.0,0,59,2.0,56.0
4194,64.0,0,59,8.0,100.0
4195,72.0,0,59,8.0,100.0
4196,67.0,0,59,8.0,100.0
4197,72.0,30,59,1.0,127.0
4198,67.0,0,29,6.0,100.0
4199,76.0,15,14,4.0,100.0
4200,60.0,0,59,3.0,90.0
4201,55.0,0,59,7.0,100.0
4202,60.0,0,59,5.0,100.0
4203,77.0,0,14,4.0,100.0
4204,76.0,15,14,4.0,100.0
4205,72.0,0,29,6.0,100.0
4206,57.0,0,29,10.0,100.0
4207,74.0,0,14,4.0,100.0
4208,55.0,15,29,10.0,100.0
4209,52.0,0,59,7.0,100.0
4210,48.0,0,59,5.0,100.0
4211,70.0,0,29,6.0,100.0
4212,48.0,0,59,3.0,90.0
4213,60.0,0,59,8.0,100.0
4214,67.0,15,59,8.0,100.0
4215,72.0,0,59,8.0,100.0
4216,76.0,15,14,4.0,100.0
4217,69.0,0,29,8.0,100.0
4218,60.0,0,29,8.0,100.0
4219,65.0,15,29,5.0,100.0
4220,72.0,0,29,8.0,100.0
4221,67.0,30,29,5.0,100.0
4222,77.0,0,59,4.0,100.0
4223,41.0,0,59,3.0,90.0
4224,53.0,0,59,10.0,100.0
4225,69.0,0,59,2.0,56.0
4226,69.0,0,59,6.0,100.0
4227,48.0,0,59,7.0,100.0
4228,77.0,0,59,0.0,90.0
4229,72.0,0,59,1.0,127.0
4230,65.0,0,29,8.0,100.0
4231,70.0,0,14,6.0,100.0
4232,69.0,0,29,8.0,100.0
4233,69.0,15,14,6.0,100.0
4234,65.0,0,29,5.0,100.0
4235,70.0,15,14,6.0,100.0
4236,72.0,0,59,0.0,90.0
4237,60.0,0,59,10.0,100.0
4238,63.0,0,29,5.0,100.0
4239,65.0,0,59,2.0,56.0
4240,53.0,0,59,7.0,100.0
4241,72.0,0,29,8.0,100.0
4242,53.0,0,59,3.0,90.0
4243,69.0,0,59,1.0,127.0
4244,77.0,0,59,4.0,100.0
4245,72.0,0,59,4.0,100.0
4246,69.0,30,59,4.0,100.0
4247,69.0,15,14,6.0,100.0
4248,70.0,0,14,6.0,100.0
4249,62.0,0,29,5.0,100.0
4250,77.0,15,29,8.0,100.0
4251,69.0,15,14,6.0,100.0
4252,67.0,0,14,6.0,100.0
4253,75.0,15,29,8.0,100.0
4254,41.0,0,59,3.0,90.0
4255,41.0,0,59,7.0,100.0
4256,60.0,0,29,5.0,100.0
4257,69.0,15,14,6.0,100.0
4258,57.0,0,59,10.0,100.0
4259,72.0,0,59,4.0,100.0
4260,77.0,0,59,4.0,100.0
4261,65.0,0,59,4.0,100.0
4262,65.0,0,29,4.0,100.0
4263,77.0,0,29,4.0,100.0
4264,74.0,0,29,4.0,100.0
4265,58.0,0,29,7.0,100.0
4266,70.0,0,59,1.0,127.0
4267,60.0,0,29,7.0,100.0
4268,58.0,0,59,5.0,100.0
4269,74.0,0,59,0.0,90.0
4270,70.0,0,59,6.0,100.0
4271,70.0,30,29,4.0,100.0
4272,74.0,0,59,8.0,100.0
4273,53.0,0,59,10.0,100.0
4274,65.0,15,59,2.0,56.0
4275,46.0,0,59,3.0,90.0
4276,76.0,0,14,8.0,100.0
4277,74.0,0,29,4.0,100.0
4278,74.0,15,14,8.0,100.0
4279,58.0,0,29,7.0,100.0
4280,65.0,0,29,1.0,127.0
4281,70.0,0,29,0.0,90.0
4282,76.0,0,14,8.0,100.0
4283,65.0,30,59,5.0,100.0
4284,74.0,15,14,8.0,100.0
4285,70.0,0,29,1.0,127.0
4286,58.0,0,59,3.0,90.0
4287,57.0,15,29,7.0,100.0
4288,62.0,0,59,2.0,56.0
4289,77.0,0,29,4.0,100.0
4290,70.0,0,59,6.0,100.0
4291,74.0,0,29,0.0,90.0
4292,58.0,0,59,10.0,100.0
4293,76.0,0,14,8.0,100.0
4294,79.0,0,29,0.0,90.0
4295,74.0,15,14,8.0,100.0
4296,82.0,0,29,4.0,100.0
4297,58.0,0,29,7.0,100.0
4298,72.0,0,14,8.0,100.0
4299,82.0,15,29,0.0,90.0
4300,58.0,0,59,2.0,56.0
4301,46.0,15,59,10.0,100.0
4302,46.0,0,59,3.0,90.0
4303,74.0,0,59,1.0,127.0
4304,62.0,0,59,5.0,100.0
4305,79.0,0,29,4.0,100.0
4306,74.0,15,14,8.0,100.0
4307,70.0,0,59,6.0,100.0
4308,62.0,0,29,7.0,100.0
4309,76.0,0,29,4.0,100.0
4310,76.0,0,29,0.0,90.0
4311,72.0,0,59,1.0,127.0
4312,55.0,15,59,2.0,56.0
4313,79.0,0,29,0.0,90.0
4314,79.0,30,29,4.0,100.0
4315,58.0,0,89,5.0,100.0
4316,84.0,0,29,0.0,90.0
4317,84.0,0,29,4.0,100.0
4318,79.0,0,89,6.0,100.0
4319,58.0,0,89,10.0,100.0
4320,60.0,0,89,7.0,100.0
4321,76.0,0,89,8.0,100.0
4322,58.0,0,89,3.0,90.0
4323,55.0,30,29,3.0,90.0
4324,67.0,0,59,2.0,56.0
4325,76.0,0,29,0.0,90.0
4326,79.0,0,29,8.0,100.0
4327,55.0,0,29,5.0,100.0
4328,72.0,30,59,1.0,127.0
4329,55.0,0,29,10.0,100.0
4330,70.0,0,29,6.0,100.0
4331,76.0,0,29,4.0,100.0
4332,55.0,0,29,7.0,100.0
4333,69.0,0,59,6.0,100.0
4334,77.0,0,59,0.0,90.0
4335,57.0,0,59,5.0,100.0
4336,65.0,0,59,2.0,56.0
4337,57.0,0,59,7.0,100.0
4338,57.0,0,59,10.0,100.0
4339,72.0,30,59,8.0,100.0
4340,72.0,0,59,1.0,127.0
4341,57.0,0,59,3.0,90.0
4342,77.0,0,59,4.0,100.0
4343,82.0,0,29,4.0,100.0
4344,82.0,0,29,0.0,90.0
4345,77.0,0,29,6.0,100.0
4346,58.0,0,29,5.0,100.0
4347,74.0,0,29,1.0,127.0
4348,58.0,0,29,3.0,90.0
4349,65.0,0,29,2.0,56.0
4350,58.0,0,29,7.0,100.0
4351,58.0,90,29,10.0,100.0
4352,74.0,0,29,8.0,100.0
4353,60.0,30,59,7.0,100.0
4354,60.0,0,59,5.0,100.0
4355,72.0,0,59,8.0,100.0
4356,60.0,0,59,10.0,100.0
4357,60.0,0,59,3.0,90.0
4358,72.0,0,59,2.0,56.0
4359,79.0,0,89,0.0,90.0
4360,76.0,0,89,6.0,100.0
4361,76.0,0,89,1.0,127.0
4362,79.0,0,89,4.0,100.0
4363,48.0,0,59,10.0,100.0
4364,77.0,0,29,6.0,100.0
4365,48.0,0,59,3.0,90.0
4366,48.0,0,59,5.0,100.0
4367,77.0,0,29,1.0,127.0
4368,70.0,0,59,2.0,56.0
4369,77.0,30,29,4.0,100.0
4370,70.0,0,59,8.0,100.0
4371,77.0,0,29,0.0,90.0
4372,48.0,0,59,7.0,100.0
4373,64.0,60,59,8.0,100.0
4374,67.0,0,59,8.0,100.0
4375,53.0,0,29,10.0,100.0
4376,77.0,0,29,4.0,100.0
4377,77.0,0,59,0.0,90.0
4378,53.0,0,59,5.0,100.0
4379,65.0,0,29,4.0,100.0
4380,53.0,0,59,3.0,90.0
4381,69.0,0,59,2.0,56.0
4382,65.0,30,29,10.0,100.0
4383,77.0,0,59,1.0,127.0
4384,41.0,0,59,7.0,100.0
4385,69.0,30,29,4.0,100.0
4386,60.0,0,29,5.0,100.0
4387,60.0,0,29,10.0,100.0
4388,69.0,0,119,8.0,100.0
4389,72.0,0,29,4.0,100.0
4390,58.0,0,29,5.0,100.0
4391,41.0,0,59,3.0,90.0
4392,65.0,30,119,8.0,100.0
4393,77.0,0,119,6.0,100.0
4394,60.0,0,119,8.0,100.0
4395,53.0,0,59,7.0,100.0
4396,65.0,30,29,10.0,100.0
4397,57.0,30,29,10.0,100.0
4398,77.0,0,29,4.0,100.0
4399,57.0,0,29,5.0,100.0
4400,58.0,0,29,5.0,100.0
4401,60.0,0,29,10.0,100.0
4402,55.0,0,59,7.0,100.0
4403,76.0,30,29,4.0,100.0
4404,43.0,0,59,3.0,90.0
4405,57.0,0,29,5.0,100.0
4406,53.0,0,29,10.0,100.0
4407,72.0,0,59,1.0,127.0
4408,45.0,0,59,3.0,90.0
4409,60.0,0,29,10.0,100.0
4410,69.0,30,59,2.0,56.0
4411,65.0,0,29,6.0,100.0
4412,77.0,0,59,0.0,90.0
4413,57.0,0,59,7.0,100.0
4414,77.0,0,59,4.0,100.0
4415,60.0,30,29,5.0,100.0
4416,57.0,0,29,10.0,100.0
4417,65.0,0,29,5.0,100.0
4418,69.0,0,29,6.0,100.0
4419,45.0,0,59,3.0,90.0
4420,72.0,30,59,4.0,100.0
4421,72.0,0,29,6.0,100.0
4422,72.0,0,59,8.0,100.0
4423,57.0,0,59,7.0,100.0
4424,69.0,0,29,5.0,100.0
4425,53.0,30,29,10.0,100.0
4426,70.0,0,29,8.0,100.0
4427,77.0,0,29,6.0,100.0
4428,50.0,0,29,10.0,100.0
4429,67.0,0,29,5.0,100.0
4430,69.0,0,29,8.0,100.0
4431,53.0,0,29,10.0,100.0
4432,46.0,30,59,3.0,90.0
4433,65.0,30,29,5.0,100.0
4434,58.0,0,59,7.0,100.0
4435,74.0,0,29,6.0,100.0
4436,67.0,0,29,8.0,100.0
4437,60.0,30,29,7.0,100.0
4438,64.0,0,59,5.0,100.0
4439,60.0,0,29,7.0,100.0
4440,67.0,0,59,2.0,56.0
4441,72.0,0,59,1.0,127.0
4442,60.0,30,29,8.0,100.0
4443,76.0,0,59,0.0,90.0
4444,64.0,0,29,8.0,100.0
4445,55.0,30,29,7.0,100.0
4446,67.0,0,29,8.0,100.0
4447,72.0,0,59,2.0,56.0
4448,76.0,0,59,4.0,100.0
4449,48.0,0,119,10.0,100.0
4450,72.0,0,59,5.0,100.0
4451,76.0,0,119,6.0,100.0
4452,60.0,30,29,7.0,100.0
4453,72.0,0,59,0.0,90.0
4454,72.0,0,59,1.0,127.0
4455,48.0,0,120,3.0,90.0
4456,52.0,0,29,7.0,100.0
4457,64.0,0,29,8.0,100.0
4458,67.0,0,59,5.0,100.0
4459,79.0,30,59,4.0,100.0
4460,67.0,0,59,0.0,90.0
4461,67.0,0,59,2.0,56.0
4462,67.0,0,59,1.0,127.0
4463,60.0,0,29,8.0,100.0
4464,55.0,30,29,7.0,100.0
4465,67.0,0,29,8.0,100.0
4466,64.0,0,29,5.0,100.0
4467,60.0,0,29,6.0,100.0
4468,67.0,30,29,5.0,100.0
4469,64.0,0,59,1.0,127.0
4470,64.0,0,59,0.0,90.0
4471,84.0,0,59,4.0,100.0
4472,64.0,30,59,2.0,56.0
4473,64.0,0,29,8.0,100.0
4474,60.0,0,29,0.0,90.0
4475,64.0,30,29,6.0,100.0
4476,60.0,0,29,5.0,100.0
4477,60.0,0,29,1.0,127.0
4478,67.0,0,29,8.0,100.0
4479,60.0,0,29,2.0,56.0
4480,48.0,0,119,7.0,100.0
4481,62.0,0,29,0.0,90.0
4482,72.0,30,29,8.0,100.0
4483,67.0,0,29,6.0,100.0
4484,48.0,0,119,10.0,100.0
4485,62.0,0,29,5.0,100.0
4486,62.0,0,29,2.0,56.0
4487,62.0,0,29,1.0,127.0
4488,36.0,0,120,3.0,90.0
4489,64.0,0,29,0.0,90.0
4490,67.0,30,29,8.0,100.0
4491,64.0,0,29,6.0,100.0
4492,64.0,0,29,5.0,100.0
4493,64.0,0,29,1.0,127.0
4494,64.0,0,29,2.0,56.0
4495,64.0,0,29,8.0,100.0
4496,65.0,0,29,2.0,56.0
4497,65.0,30,29,1.0,127.0
4498,65.0,0,29,5.0,100.0
4499,65.0,0,29,0.0,90.0
4500,60.0,0,29,6.0,100.0
4501,72.0,0,19,8.0,100.0
4502,70.0,20,19,8.0,100.0
4503,67.0,30,59,2.0,56.0
4504,72.0,20,19,8.0,100.0
4505,67.0,0,59,0.0,90.0
4506,67.0,0,59,1.0,127.0
4507,67.0,0,59,5.0,100.0
4508,64.0,0,59,6.0,100.0
4509,70.0,20,14,8.0,100.0
4510,73.0,0,29,6.0,100.0
4511,76.0,0,29,4.0,100.0
4512,72.0,15,14,8.0,100.0
4513,70.0,15,14,8.0,100.0
4514,74.0,0,29,6.0,100.0
4515,52.0,0,59,3.0,90.0
4516,64.0,0,59,7.0,100.0
4517,64.0,0,59,5.0,100.0
4518,72.0,15,14,8.0,100.0
4519,64.0,0,59,10.0,100.0
4520,77.0,0,29,4.0,100.0
4521,70.0,0,9,8.0,100.0
4522,72.0,10,9,8.0,100.0
4523,70.0,10,9,8.0,100.0
4524,73.0,15,29,6.0,100.0
4525,76.0,0,29,4.0,100.0
4526,72.0,10,9,8.0,100.0
4527,70.0,10,9,8.0,100.0
4528,72.0,10,9,8.0,100.0
4529,62.0,0,59,10.0,100.0
4530,74.0,0,29,6.0,100.0
4531,50.0,0,59,3.0,90.0
4532,79.0,0,119,0.0,90.0
4533,62.0,0,59,7.0,100.0
4534,62.0,0,59,5.0,100.0
4535,70.0,0,119,1.0,127.0
4536,77.0,0,29,4.0,100.0
4537,79.0,0,29,4.0,100.0
4538,76.0,10,29,6.0,100.0
4539,70.0,0,29,8.0,100.0
4540,69.0,0,29,0.0,90.0
4541,69.0,0,29,4.0,100.0
4542,64.0,0,179,2.0,56.0
4543,61.0,0,59,10.0,100.0
4544,69.0,0,29,1.0,127.0
4545,49.0,0,59,3.0,90.0
4546,61.0,0,59,5.0,100.0
4547,61.0,0,59,7.0,100.0
4548,77.0,0,29,6.0,100.0
4549,69.0,30,29,8.0,100.0
4550,73.0,0,29,0.0,90.0
4551,76.0,0,29,6.0,100.0
4552,73.0,0,29,4.0,100.0
4553,76.0,30,29,4.0,100.0
4554,79.0,0,59,8.0,100.0
4555,59.0,0,59,7.0,100.0
4556,79.0,0,59,1.0,127.0
4557,74.0,0,29,6.0,100.0
4558,64.0,0,59,5.0,100.0
4559,76.0,0,29,0.0,90.0
4560,47.0,0,59,3.0,90.0
4561,64.0,30,59,2.0,56.0
4562,59.0,0,59,10.0,100.0
4563,76.0,30,29,6.0,100.0
4564,81.0,0,29,4.0,100.0
4565,81.0,0,29,0.0,90.0
4566,64.0,0,59,2.0,56.0
4567,79.0,0,29,4.0,100.0
4568,45.0,0,59,3.0,90.0
4569,73.0,0,29,6.0,100.0
4570,57.0,0,59,7.0,100.0
4571,79.0,30,29,0.0,90.0
4572,57.0,0,59,10.0,100.0
4573,73.0,0,59,8.0,100.0
4574,73.0,0,59,1.0,127.0
4575,57.0,0,59,5.0,100.0
4576,69.0,0,29,6.0,100.0
4577,62.0,0,29,5.0,100.0
4578,62.0,0,59,10.0,100.0
4579,50.0,0,59,3.0,90.0
4580,77.0,0,59,0.0,90.0
4581,62.0,30,29,6.0,100.0
4582,74.0,0,59,1.0,127.0
4583,62.0,0,59,7.0,100.0
4584,77.0,0,59,4.0,100.0
4585,62.0,30,59,2.0,56.0
4586,74.0,0,29,5.0,100.0
4587,69.0,30,29,5.0,100.0
4588,65.0,0,29,6.0,100.0
4589,57.0,0,29,7.0,100.0
4590,50.0,0,59,10.0,100.0
4591,55.0,0,29,7.0,100.0
4592,38.0,0,59,3.0,90.0
4593,69.0,0,29,6.0,100.0
4594,74.0,0,119,8.0,100.0
4595,74.0,30,29,5.0,100.0
4596,65.0,0,29,5.0,100.0
4597,74.0,0,29,6.0,100.0
4598,53.0,0,29,7.0,100.0
4599,55.0,30,29,7.0,100.0
4600,40.0,0,59,3.0,90.0
4601,52.0,30,59,10.0,100.0
4602,69.0,0,29,5.0,100.0
4603,73.0,0,29,6.0,100.0
4604,62.0,0,29,5.0,100.0
4605,53.0,0,29,7.0,100.0
4606,77.0,0,59,0.0,90.0
4607,74.0,0,59,1.0,127.0
4608,69.0,30,59,2.0,56.0
4609,62.0,0,29,8.0,100.0
4610,57.0,0,29,7.0,100.0
4611,74.0,0,59,6.0,100.0
4612,41.0,0,59,3.0,90.0
4613,53.0,0,59,10.0,100.0
4614,69.0,30,29,5.0,100.0
4615,62.0,0,29,7.0,100.0
4616,65.0,0,29,5.0,100.0
4617,65.0,0,29,8.0,100.0
4618,62.0,0,29,5.0,100.0
4619,53.0,30,59,10.0,100.0
4620,81.0,0,59,6.0,100.0
4621,69.0,30,29,8.0,100.0
4622,41.0,0,59,3.0,90.0
4623,81.0,0,59,4.0,100.0
4624,65.0,0,29,7.0,100.0
4625,74.0,0,29,8.0,100.0
4626,64.0,0,29,7.0,100.0
4627,79.0,30,29,4.0,100.0
4628,58.0,0,29,5.0,100.0
4629,62.0,30,29,5.0,100.0
4630,77.0,0,29,4.0,100.0
4631,62.0,0,29,7.0,100.0
4632,76.0,0,29,8.0,100.0
4633,43.0,0,59,3.0,90.0
4634,55.0,0,59,10.0,100.0
4635,57.0,0,29,10.0,100.0
4636,76.0,0,29,4.0,100.0
4637,82.0,0,89,6.0,100.0
4638,69.0,0,59,7.0,100.0
4639,73.0,0,59,1.0,127.0
4640,69.0,0,29,4.0,100.0
4641,69.0,0,59,2.0,56.0
4642,81.0,0,29,6.0,100.0
4643,76.0,30,59,0.0,90.0
4644,69.0,30,29,10.0,100.0
4645,73.0,0,29,4.0,100.0
4646,64.0,0,29,10.0,100.0
4647,76.0,0,29,4.0,100.0
4648,69.0,0,59,1.0,127.0
4649,69.0,0,59,0.0,90.0
4650,69.0,30,29,10.0,100.0
4651,45.0,0,119,3.0,90.0
4652,57.0,0,119,5.0,100.0
4653,73.0,0,59,6.0,100.0
4654,69.0,0,59,7.0,100.0
4655,69.0,30,59,2.0,56.0
4656,73.0,0,119,8.0,100.0
4657,61.0,0,29,10.0,100.0
4658,73.0,0,29,4.0,100.0
4659,69.0,0,29,4.0,100.0
4660,64.0,0,59,2.0,56.0
4661,64.0,0,59,1.0,127.0
4662,64.0,0,59,0.0,90.0
4663,76.0,0,59,6.0,100.0
4664,64.0,30,59,7.0,100.0
4665,64.0,30,29,10.0,100.0
4666,76.0,0,29,4.0,100.0
4667,61.0,0,30,7.0,100.0
4668,73.0,0,29,4.0,100.0
4669,61.0,0,59,0.0,90.0
4670,61.0,0,59,1.0,127.0
4671,61.0,30,59,2.0,56.0
4672,69.0,30,29,8.0,100.0
4673,64.0,0,30,7.0,100.0
4674,73.0,0,29,8.0,100.0
4675,57.0,0,29,2.0,56.0
4676,57.0,0,29,0.0,90.0
4677,76.0,30,29,4.0,100.0
4678,57.0,0,29,1.0,127.0
4679,57.0,0,30,7.0,100.0
4680,59.0,0,29,2.0,56.0
4681,59.0,0,29,1.0,127.0
4682,76.0,0,29,8.0,100.0
4683,81.0,0,119,6.0,100.0
4684,57.0,0,119,5.0,100.0
4685,57.0,0,119,10.0,100.0
4686,79.0,0,29,4.0,100.0
4687,57.0,0,119,3.0,90.0
4688,59.0,30,29,0.0,90.0
4689,59.0,0,30,7.0,100.0
4690,61.0,30,29,2.0,56.0
4691,73.0,0,29,8.0,100.0
4692,76.0,0,29,4.0,100.0
4693,61.0,0,29,1.0,127.0
4694,61.0,0,29,0.0,90.0
4695,61.0,0,30,7.0,100.0
4696,62.0,0,29,2.0,56.0
4697,73.0,30,29,4.0,100.0
4698,62.0,0,29,1.0,127.0
4699,62.0,0,29,0.0,90.0
4700,69.0,0,29,8.0,100.0
4701,62.0,0,30,7.0,100.0
4702,81.0,0,59,8.0,100.0
4703,64.0,0,59,2.0,56.0
4704,64.0,0,59,7.0,100.0
4705,64.0,0,59,1.0,127.0
4706,64.0,30,59,0.0,90.0
4707,69.0,0,59,4.0,100.0
4708,75.0,0,19,8.0,100.0
4709,78.0,0,29,4.0,100.0
4710,69.0,0,29,6.0,100.0
4711,77.0,20,19,8.0,100.0
4712,79.0,10,29,4.0,100.0
4713,45.0,0,59,3.0,90.0
4714,57.0,0,59,5.0,100.0
4715,57.0,0,59,7.0,100.0
4716,70.0,0,29,6.0,100.0
4717,75.0,10,19,8.0,100.0
4718,57.0,0,59,10.0,100.0
4719,77.0,0,14,8.0,100.0
4720,78.0,0,29,4.0,100.0
4721,75.0,15,14,8.0,100.0
4722,69.0,0,29,6.0,100.0
4723,77.0,0,14,8.0,100.0
4724,55.0,0,59,5.0,100.0
4725,81.0,0,119,0.0,90.0
4726,75.0,15,14,8.0,100.0
4727,55.0,0,59,7.0,100.0
4728,70.0,0,29,6.0,100.0
4729,43.0,0,59,3.0,90.0
4730,79.0,15,29,4.0,100.0
4731,75.0,60,119,1.0,127.0
4732,55.0,20,59,10.0,100.0
4733,72.0,0,29,6.0,100.0
4734,75.0,0,29,8.0,100.0
4735,81.0,0,29,4.0,100.0
4736,42.0,0,59,3.0,90.0
4737,72.0,0,179,2.0,56.0
4738,82.0,0,29,4.0,100.0
4739,54.0,0,59,10.0,100.0
4740,62.0,0,29,6.0,100.0
4741,74.0,30,29,8.0,100.0
4742,82.0,0,29,0.0,90.0
4743,74.0,0,29,1.0,127.0
4744,54.0,15,59,7.0,100.0
4745,54.0,0,59,5.0,100.0
4746,81.0,0,29,4.0,100.0
4747,66.0,0,29,6.0,100.0
4748,81.0,0,29,0.0,90.0
4749,84.0,0,59,1.0,127.0
4750,69.0,0,29,6.0,100.0
4751,40.0,30,59,3.0,90.0
4752,57.0,0,59,7.0,100.0
4753,52.0,0,59,5.0,100.0
4754,69.0,0,59,2.0,56.0
4755,52.0,0,59,10.0,100.0
4756,84.0,0,59,8.0,100.0
4757,79.0,30,29,0.0,90.0
4758,79.0,0,29,4.0,100.0
4759,74.0,0,29,6.0,100.0
4760,81.0,0,29,4.0,100.0
4761,81.0,0,29,0.0,90.0
4762,78.0,0,29,4.0,100.0
4763,78.0,0,59,8.0,100.0
4764,50.0,0,59,5.0,100.0
4765,50.0,0,59,7.0,100.0
4766,50.0,0,59,10.0,100.0
4767,74.0,0,59,2.0,56.0
4768,78.0,30,29,0.0,90.0
4769,72.0,0,29,6.0,100.0
4770,78.0,0,59,1.0,127.0
4771,38.0,30,59,3.0,90.0
4772,70.0,0,29,6.0,100.0
4773,43.0,0,59,3.0,90.0
4774,43.0,0,59,7.0,100.0
4775,55.0,30,59,10.0,100.0
4776,74.0,30,29,6.0,100.0
4777,74.0,0,59,4.0,100.0
4778,82.0,0,59,0.0,90.0
4779,79.0,0,59,1.0,127.0
4780,79.0,0,59,8.0,100.0
4781,55.0,0,59,5.0,100.0
4782,74.0,0,59,2.0,56.0
4783,67.0,0,29,6.0,100.0
4784,62.0,0,59,5.0,100.0
4785,70.0,30,59,10.0,100.0
4786,55.0,0,59,7.0,100.0
4787,55.0,0,59,3.0,90.0
4788,70.0,30,29,6.0,100.0
4789,74.0,0,29,6.0,100.0
4790,70.0,30,29,6.0,100.0
4791,53.0,0,59,3.0,90.0
4792,69.0,0,59,10.0,100.0
4793,53.0,30,59,7.0,100.0
4794,67.0,0,59,5.0,100.0
4795,82.0,0,135,4.0,100.0
4796,67.0,0,29,10.0,100.0
4797,72.0,0,29,6.0,100.0
4798,81.0,15,14,4.0,100.0
4799,79.0,15,14,4.0,100.0
4800,72.0,0,59,1.0,127.0
4801,75.0,0,29,6.0,100.0
4802,67.0,30,59,2.0,56.0
4803,51.0,0,59,3.0,90.0
4804,60.0,0,59,5.0,100.0
4805,51.0,0,59,7.0,100.0
4806,72.0,0,29,10.0,100.0
4807,82.0,0,59,0.0,90.0
4808,77.0,15,14,4.0,100.0
4809,75.0,0,14,4.0,100.0
4810,67.0,0,29,10.0,100.0
4811,67.0,0,29,6.0,100.0
4812,74.0,15,14,4.0,100.0
4813,72.0,0,29,6.0,100.0
4814,72.0,0,29,4.0,100.0
4815,48.0,0,59,3.0,90.0
4816,55.0,15,59,7.0,100.0
4817,63.0,0,59,5.0,100.0
4818,65.0,15,29,10.0,100.0
4819,84.0,0,29,4.0,100.0
4820,75.0,30,29,6.0,100.0
4821,63.0,0,29,10.0,100.0
4822,62.0,30,29,10.0,100.0
4823,67.0,0,59,5.0,100.0
4824,48.0,0,59,7.0,100.0
4825,82.0,0,29,4.0,100.0
4826,79.0,0,29,6.0,100.0
4827,75.0,0,29,6.0,100.0
4828,79.0,0,150,8.0,100.0
4829,72.0,30,29,6.0,100.0
4830,72.0,0,59,1.0,127.0
4831,75.0,0,29,8.0,100.0
4832,60.0,0,59,5.0,100.0
4833,60.0,0,59,10.0,100.0
4834,81.0,0,59,0.0,90.0
4835,65.0,30,59,2.0,56.0
4836,72.0,30,29,8.0,100.0
4837,69.0,0,29,6.0,100.0
4838,63.0,0,59,5.0,100.0
4839,53.0,0,59,7.0,100.0
4840,72.0,0,29,6.0,100.0
4841,69.0,30,29,8.0,100.0
4842,53.0,0,59,3.0,90.0
4843,57.0,0,59,10.0,100.0
4844,77.0,0,29,6.0,100.0
4845,72.0,0,29,8.0,100.0
4846,75.0,30,29,8.0,100.0
4847,69.0,0,59,5.0,100.0
4848,72.0,0,29,6.0,100.0
4849,51.0,30,59,3.0,90.0
4850,51.0,0,59,7.0,100.0
4851,81.0,0,191,4.0,100.0
4852,70.0,0,29,6.0,100.0
4853,79.0,15,14,4.0,100.0
4854,65.0,0,89,10.0,100.0
4855,77.0,15,14,4.0,100.0
4856,50.0,0,59,7.0,100.0
4857,74.0,0,29,6.0,100.0
4858,70.0,0,29,10.0,100.0
4859,75.0,15,14,4.0,100.0
4860,65.0,0,59,2.0,56.0
4861,50.0,30,59,3.0,90.0
4862,70.0,0,59,1.0,127.0
4863,58.0,0,59,5.0,100.0
4864,81.0,0,59,0.0,90.0
4865,74.0,0,14,4.0,100.0
4866,72.0,15,14,4.0,100.0
4867,65.0,15,29,10.0,100.0
4868,65.0,0,29,6.0,100.0
4869,46.0,0,59,3.0,90.0
4870,70.0,15,29,6.0,100.0
4871,62.0,0,59,5.0,100.0
4872,53.0,0,59,7.0,100.0
4873,70.0,0,29,4.0,100.0
4874,63.0,0,29,10.0,100.0
4875,74.0,30,29,6.0,100.0
4876,82.0,0,29,4.0,100.0
4877,62.0,0,29,10.0,100.0
4878,46.0,0,59,7.0,100.0
4879,81.0,0,29,4.0,100.0
4880,65.0,0,59,5.0,100.0
4881,77.0,30,29,6.0,100.0
4882,60.0,0,29,10.0,100.0
4883,74.0,0,29,6.0,100.0
4884,77.0,0,210,8.0,100.0
4885,70.0,0,59,1.0,127.0
4886,58.0,0,59,5.0,100.0
4887,79.0,0,59,0.0,90.0
4888,70.0,0,29,6.0,100.0
4889,58.0,0,59,10.0,100.0
4890,74.0,30,29,8.0,100.0
4891,63.0,0,59,2.0,56.0
4892,70.0,0,29,8.0,100.0
4893,67.0,0,29,6.0,100.0
4894,51.0,0,59,7.0,100.0
4895,62.0,30,59,5.0,100.0
4896,51.0,0,59,3.0,90.0
4897,67.0,0,29,8.0,100.0
4898,51.0,0,59,10.0,100.0
4899,70.0,30,29,6.0,100.0
4900,75.0,0,29,6.0,100.0
4901,70.0,0,29,8.0,100.0
4902,70.0,30,29,6.0,100.0
4903,67.0,30,59,5.0,100.0
4904,50.0,0,59,3.0,90.0
4905,50.0,0,59,7.0,100.0
4906,74.0,0,29,8.0,100.0
4907,79.0,30,195,4.0,100.0
4908,63.0,0,89,10.0,100.0
4909,69.0,30,29,6.0,100.0
4910,77.0,15,14,4.0,100.0
4911,75.0,0,14,4.0,100.0
4912,69.0,0,29,10.0,100.0
4913,79.0,0,59,0.0,90.0
4914,48.0,0,59,3.0,90.0
4915,69.0,0,59,1.0,127.0
4916,48.0,0,59,7.0,100.0
4917,72.0,15,29,6.0,100.0
4918,63.0,0,59,2.0,56.0
4919,57.0,0,59,5.0,100.0
4920,74.0,15,14,4.0,100.0
4921,72.0,0,14,4.0,100.0
4922,70.0,15,14,4.0,100.0
4923,63.0,0,29,10.0,100.0
4924,66.0,0,29,6.0,100.0
4925,60.0,0,59,5.0,100.0
4926,51.0,0,59,7.0,100.0
4927,62.0,15,29,10.0,100.0
4928,69.0,0,29,6.0,100.0
4929,45.0,15,59,3.0,90.0
4930,69.0,0,29,4.0,100.0
4931,60.0,30,29,10.0,100.0
4932,72.0,0,29,6.0,100.0
4933,81.0,0,29,4.0,100.0
4934,63.0,0,59,5.0,100.0
4935,58.0,0,29,10.0,100.0
4936,79.0,0,29,4.0,100.0
4937,75.0,30,29,6.0,100.0
4938,45.0,0,59,7.0,100.0
4939,72.0,0,29,6.0,100.0
4940,75.0,0,210,8.0,100.0
4941,69.0,0,29,6.0,100.0
4942,78.0,0,59,0.0,90.0
4943,69.0,0,59,1.0,127.0
4944,57.0,0,59,10.0,100.0
4945,57.0,0,59,5.0,100.0
4946,62.0,0,59,2.0,56.0
4947,72.0,30,29,8.0,100.0
4948,69.0,0,29,8.0,100.0
4949,66.0,0,29,6.0,100.0
4950,78.0,30,119,4.0,100.0
4951,60.0,0,59,5.0,100.0
4952,66.0,0,29,8.0,100.0
4953,50.0,0,59,10.0,100.0
4954,50.0,30,59,7.0,100.0
4955,50.0,0,59,3.0,90.0
4956,69.0,30,29,6.0,100.0
4957,69.0,0,29,8.0,100.0
4958,74.0,0,29,6.0,100.0
4959,48.0,0,59,3.0,90.0
4960,72.0,30,29,8.0,100.0
4961,69.0,0,29,6.0,100.0
4962,48.0,30,59,7.0,100.0
4963,65.0,0,59,5.0,100.0
4964,77.0,0,75,4.0,100.0
4965,67.0,0,29,6.0,100.0
4966,75.0,15,14,4.0,100.0
4967,62.0,0,89,10.0,100.0
4968,74.0,0,14,4.0,100.0
4969,72.0,15,14,4.0,100.0
4970,67.0,0,29,10.0,100.0
4971,77.0,0,59,0.0,90.0
4972,62.0,0,59,2.0,56.0
4973,55.0,0,59,5.0,100.0
4974,71.0,15,29,6.0,100.0
4975,67.0,0,59,1.0,127.0
4976,47.0,0,59,7.0,100.0
4977,47.0,30,59,3.0,90.0
4978,71.0,0,14,4.0,100.0
4979,62.0,0,29,6.0,100.0
4980,62.0,15,29,10.0,100.0
4981,69.0,15,14,4.0,100.0
4982,43.0,0,59,3.0,90.0
4983,60.0,0,29,10.0,100.0
4984,59.0,0,59,5.0,100.0
4985,67.0,15,29,4.0,100.0
4986,50.0,0,59,7.0,100.0
4987,67.0,0,29,6.0,100.0
4988,59.0,0,29,10.0,100.0
4989,71.0,30,29,6.0,100.0
4990,79.0,0,29,4.0,100.0
4991,55.0,30,29,10.0,100.0
4992,77.0,0,29,4.0,100.0
4993,62.0,0,59,5.0,100.0
4994,74.0,0,29,6.0,100.0
4995,43.0,0,59,7.0,100.0
4996,74.0,0,179,8.0,100.0
4997,75.0,0,29,4.0,100.0
4998,55.0,0,29,5.0,100.0
4999,75.0,0,59,8.0,100.0
5000,72.0,0,59,6.0,100.0
5001,60.0,0,59,10.0,100.0
5002,48.0,30,59,3.0,90.0
5003,72.0,30,29,4.0,100.0
5004,60.0,0,29,5.0,100.0
5005,67.0,0,29,4.0,100.0
5006,72.0,0,29,4.0,100.0
5007,48.0,0,119,7.0,100.0
5008,60.0,0,59,3.0,90.0
5009,63.0,0,29,5.0,100.0
5010,72.0,0,59,8.0,100.0
5011,75.0,30,59,6.0,100.0
5012,55.0,30,29,10.0,100.0
5013,60.0,0,29,10.0,100.0
5014,60.0,0,29,5.0,100.0
5015,75.0,0,29,4.0,100.0
5016,63.0,30,29,10.0,100.0
5017,79.0,0,59,6.0,100.0
5018,79.0,0,29,4.0,100.0
5019,59.0,0,29,5.0,100.0
5020,67.0,30,59,8.0,100.0
5021,48.0,0,59,3.0,90.0
5022,60.0,30,29,5.0,100.0
5023,75.0,0,29,4.0,100.0
5024,72.0,30,29,4.0,100.0
5025,72.0,0,59,6.0,100.0
5026,55.0,0,29,5.0,100.0
5027,75.0,0,59,8.0,100.0
5028,60.0,0,59,7.0,100.0
5029,67.0,0,59,10.0,100.0
5030,60.0,0,29,5.0,100.0
5031,67.0,0,29,4.0,100.0
5032,55.0,0,29,10.0,100.0
5033,48.0,0,119,3.0,90.0
5034,72.0,0,29,4.0,100.0
5035,48.0,0,59,7.0,100.0
5036,72.0,0,59,8.0,100.0
5037,75.0,30,59,6.0,100.0
5038,63.0,30,29,5.0,100.0
5039,75.0,0,29,4.0,100.0
5040,60.0,0,29,5.0,100.0
5041,60.0,0,29,10.0,100.0
5042,59.0,0,29,5.0,100.0
5043,67.0,0,359,1.0,127.0
5044,79.0,0,29,4.0,100.0
5045,79.0,0,59,6.0,100.0
5046,75.0,0,359,0.0,90.0
5047,67.0,30,59,8.0,100.0
5048,60.0,0,59,7.0,100.0
5049,63.0,30,29,10.0,100.0
5050,60.0,0,29,5.0,100.0
5051,75.0,0,29,4.0,100.0
5052,75.0,0,59,8.0,100.0
5053,72.0,0,59,6.0,100.0
5054,56.0,30,29,5.0,100.0
5055,48.0,0,59,3.0,90.0
5056,60.0,30,59,10.0,100.0
5057,72.0,0,29,4.0,100.0
5058,68.0,0,29,4.0,100.0
5059,60.0,30,29,5.0,100.0
5060,60.0,0,59,3.0,90.0
5061,75.0,0,59,6.0,100.0
5062,63.0,0,29,5.0,100.0
5063,72.0,0,59,8.0,100.0
5064,56.0,30,29,10.0,100.0
5065,72.0,0,29,4.0,100.0
5066,60.0,0,119,7.0,100.0
5067,60.0,30,29,10.0,100.0
5068,75.0,0,29,4.0,100.0
5069,60.0,0,29,5.0,100.0
5070,80.0,0,29,4.0,100.0
5071,48.0,0,59,3.0,90.0
5072,68.0,0,59,8.0,100.0
5073,63.0,30,29,10.0,100.0
5074,80.0,0,59,6.0,100.0
5075,59.0,0,29,5.0,100.0
5076,63.0,0,179,1.0,127.0
5077,75.0,0,29,4.0,100.0
5078,60.0,0,29,5.0,100.0
5079,60.0,0,59,7.0,100.0
5080,75.0,30,59,8.0,100.0
5081,68.0,0,59,10.0,100.0
5082,72.0,0,59,6.0,100.0
5083,72.0,0,29,4.0,100.0
5084,56.0,30,29,5.0,100.0
5085,60.0,0,29,5.0,100.0
5086,68.0,0,29,4.0,100.0
5087,75.0,0,59,6.0,100.0
5088,72.0,0,59,8.0,100.0
5089,56.0,0,29,10.0,100.0
5090,48.0,30,59,7.0,100.0
5091,48.0,0,119,3.0,90.0
5092,72.0,0,29,4.0,100.0
5093,63.0,30,29,5.0,100.0
5094,75.0,0,29,4.0,100.0
5095,60.0,0,29,10.0,100.0
5096,60.0,0,29,5.0,100.0
5097,63.0,0,29,10.0,100.0
5098,59.0,30,29,5.0,100.0
5099,80.0,0,359,0.0,90.0
5100,80.0,0,29,4.0,100.0
5101,60.0,0,59,7.0,100.0
5102,80.0,30,59,6.0,100.0
5103,68.0,0,59,8.0,100.0
5104,75.0,0,179,1.0,127.0
5105,60.0,0,29,5.0,100.0
5106,75.0,0,29,4.0,100.0
5107,48.0,0,59,3.0,90.0
5108,60.0,0,59,10.0,100.0
5109,69.0,0,59,6.0,100.0
5110,72.0,30,29,4.0,100.0
5111,78.0,0,59,8.0,100.0
5112,57.0,0,29,5.0,100.0
5113,60.0,30,29,5.0,100.0
5114,69.0,0,29,4.0,100.0
5115,72.0,0,59,8.0,100.0
5116,75.0,0,59,6.0,100.0
5117,57.0,0,29,10.0,100.0
5118,60.0,0,119,7.0,100.0
5119,72.0,30,29,4.0,100.0
5120,63.0,0,29,5.0,100.0
5121,60.0,0,59,3.0,90.0
5122,60.0,30,29,10.0,100.0
5123,60.0,0,29,5.0,100.0
5124,75.0,0,29,4.0,100.0
5125,78.0,0,59,6.0,100.0
5126,48.0,0,59,3.0,90.0
5127,69.0,0,59,8.0,100.0
5128,78.0,0,29,4.0,100.0
5129,59.0,0,29,5.0,100.0
5130,63.0,30,29,10.0,100.0
5131,60.0,0,29,5.0,100.0
5132,75.0,30,29,4.0,100.0
5133,72.0,30,29,4.0,100.0
5134,57.0,0,29,5.0,100.0
5135,78.0,0,59,8.0,100.0
5136,60.0,0,59,7.0,100.0
5137,69.0,0,59,10.0,100.0
5138,69.0,0,59,6.0,100.0
5139,69.0,30,29,4.0,100.0
5140,60.0,0,29,5.0,100.0
5141,57.0,30,29,10.0,100.0
5142,63.0,0,29,5.0,100.0
5143,75.0,0,59,6.0,100.0
5144,48.0,0,119,3.0,90.0
5145,72.0,0,59,8.0,100.0
5146,48.0,0,59,7.0,100.0
5147,72.0,0,29,4.0,100.0
5148,60.0,0,29,5.0,100.0
5149,60.0,30,29,10.0,100.0
5150,75.0,0,29,4.0,100.0
5151,59.0,0,29,5.0,100.0
5152,63.0,30,29,10.0,100.0
5153,78.0,0,59,6.0,100.0
5154,69.0,0,359,1.0,127.0
5155,69.0,0,59,8.0,100.0
5156,78.0,30,359,0.0,90.0
5157,60.0,0,59,7.0,100.0
5158,78.0,0,29,4.0,100.0
5159,60.0,0,1080,2.0,56.0
5160,61.0,0,29,5.0,100.0
5161,76.0,0,29,4.0,100.0
5162,73.0,0,29,4.0,100.0
5163,58.0,30,29,5.0,100.0
5164,58.0,0,59,10.0,100.0
5165,49.0,0,59,3.0,90.0
5166,70.0,0,59,6.0,100.0
5167,79.0,0,59,8.0,100.0
5168,61.0,0,29,5.0,100.0
5169,70.0,0,29,4.0,100.0
5170,73.0,30,29,4.0,100.0
5171,76.0,0,59,6.0,100.0
5172,61.0,0,119,7.0,100.0
5173,61.0,30,59,3.0,90.0
5174,76.0,0,59,8.0,100.0
5175,64.0,0,29,5.0,100.0
5176,58.0,0,29,10.0,100.0
5177,76.0,0,29,4.0,100.0
5178,61.0,0,29,10.0,100.0
5179,61.0,0,29,5.0,100.0
5180,64.0,0,29,10.0,100.0
5181,49.0,30,59,3.0,90.0
5182,79.0,0,59,6.0,100.0
5183,60.0,30,29,5.0,100.0
5184,70.0,0,59,8.0,100.0
5185,79.0,0,29,4.0,100.0
5186,76.0,0,29,4.0,100.0
5187,61.0,0,29,5.0,100.0
5188,70.0,30,59,10.0,100.0
5189,58.0,30,29,5.0,100.0
5190,61.0,0,59,7.0,100.0
5191,73.0,0,29,4.0,100.0
5192,79.0,0,59,8.0,100.0
5193,70.0,0,59,6.0,100.0
5194,70.0,0,29,4.0,100.0
5195,61.0,0,29,5.0,100.0
5196,49.0,0,119,3.0,90.0
5197,73.0,0,29,4.0,100.0
5198,58.0,30,29,10.0,100.0
5199,64.0,0,29,5.0,100.0
5200,49.0,30,59,7.0,100.0
5201,76.0,0,59,6.0,100.0
5202,76.0,0,59,8.0,100.0
5203,61.0,0,29,5.0,100.0
5204,61.0,30,29,10.0,100.0
5205,76.0,0,29,4.0,100.0
5206,64.0,30,29,10.0,100.0
5207,70.0,0,359,1.0,127.0
5208,79.0,0,29,4.0,100.0
5209,61.0,0,59,7.0,100.0
5210,79.0,30,359,0.0,90.0
5211,70.0,0,59,8.0,100.0
5212,79.0,0,59,6.0,100.0
5213,61.0,0,359,2.0,56.0
5214,60.0,0,29,5.0,100.0
5215,62.0,0,29,5.0,100.0
5216,78.0,0,29,4.0,100.0
5217,60.0,30,29,5.0,100.0
5218,72.0,0,59,6.0,100.0
5219,75.0,0,29,4.0,100.0
5220,62.0,30,59,10.0,100.0
5221,50.0,0,59,3.0,90.0
5222,81.0,0,59,8.0,100.0
5223,62.0,30,29,5.0,100.0
5224,72.0,0,29,4.0,100.0
5225,66.0,0,29,5.0,100.0
5226,78.0,0,59,8.0,100.0
5227,78.0,0,59,6.0,100.0
5228,62.0,0,119,7.0,100.0
5229,60.0,0,29,10.0,100.0
5230,62.0,0,59,3.0,90.0
5231,75.0,30,29,4.0,100.0
5232,62.0,0,29,10.0,100.0
5233,78.0,0,29,4.0,100.0
5234,62.0,0,29,5.0,100.0
5235,61.0,30,29,5.0,100.0
5236,50.0,0,59,3.0,90.0
5237,81.0,30,59,6.0,100.0
5238,66.0,0,29,10.0,100.0
5239,72.0,0,59,8.0,100.0
5240,81.0,0,29,4.0,100.0
5241,62.0,0,29,5.0,100.0
5242,78.0,0,29,4.0,100.0
5243,75.0,0,29,4.0,100.0
5244,62.0,30,59,7.0,100.0
5245,60.0,30,29,5.0,100.0
5246,81.0,0,59,8.0,100.0
5247,72.0,0,59,6.0,100.0
5248,69.0,0,59,10.0,100.0
5249,72.0,0,29,4.0,100.0
5250,62.0,0,29,5.0,100.0
5251,60.0,30,29,10.0,100.0
5252,75.0,0,29,4.0,100.0
5253,50.0,0,119,3.0,90.0
5254,66.0,0,29,5.0,100.0
5255,78.0,0,59,8.0,100.0
5256,78.0,0,59,6.0,100.0
5257,50.0,30,59,7.0,100.0
5258,78.0,30,29,4.0,100.0
5259,62.0,0,29,10.0,100.0
5260,62.0,0,29,5.0,100.0
5261,62.0,0,359,2.0,56.0
5262,81.0,30,29,4.0,100.0
5263,66.0,0,29,10.0,100.0
5264,81.0,0,59,6.0,100.0
5265,62.0,0,59,7.0,100.0
5266,69.0,0,359,1.0,127.0
5267,78.0,0,359,0.0,90.0
5268,72.0,0,59,8.0,100.0
5269,61.0,0,29,5.0,100.0
5270,79.0,0,29,4.0,100.0
5271,64.0,30,29,5.0,100.0
5272,73.0,0,59,6.0,100.0
5273,82.0,0,59,8.0,100.0
5274,50.0,0,59,3.0,90.0
5275,61.0,0,29,5.0,100.0
5276,67.0,0,59,10.0,100.0
5277,76.0,30,29,4.0,100.0
5278,64.0,0,29,5.0,100.0
5279,73.0,0,29,4.0,100.0
5280,61.0,0,29,10.0,100.0
5281,62.0,30,59,3.0,90.0
5282,64.0,0,119,7.0,100.0
5283,79.0,0,59,6.0,100.0
5284,79.0,0,59,8.0,100.0
5285,67.0,0,29,5.0,100.0
5286,76.0,30,29,4.0,100.0
5287,64.0,0,29,10.0,100.0
5288,64.0,0,29,5.0,100.0
5289,79.0,30,29,4.0,100.0
5290,82.0,0,59,6.0,100.0
5291,67.0,30,29,10.0,100.0
5292,63.0,0,29,5.0,100.0
5293,82.0,0,29,4.0,100.0
5294,73.0,0,59,8.0,100.0
5295,50.0,0,59,3.0,90.0
5296,67.0,0,179,1.0,127.0
5297,64.0,0,29,5.0,100.0
5298,79.0,30,29,4.0,100.0
5299,73.0,0,59,6.0,100.0
5300,64.0,0,59,10.0,100.0
5301,64.0,0,59,7.0,100.0
5302,61.0,30,29,5.0,100.0
5303,76.0,0,29,4.0,100.0
5304,82.0,0,59,8.0,100.0
5305,73.0,0,29,4.0,100.0
5306,64.0,0,29,5.0,100.0
5307,79.0,30,59,6.0,100.0
5308,67.0,0,29,5.0,100.0
5309,76.0,30,29,4.0,100.0
5310,50.0,0,119,3.0,90.0
5311,79.0,0,59,8.0,100.0
5312,52.0,0,59,7.0,100.0
5313,61.0,0,29,10.0,100.0
5314,79.0,0,29,4.0,100.0
5315,64.0,0,29,10.0,100.0
5316,64.0,0,29,5.0,100.0
5317,79.0,0,179,1.0,127.0
5318,73.0,0,59,8.0,100.0
5319,55.0,0,359,2.0,56.0
5320,82.0,0,359,0.0,90.0
5321,64.0,30,59,7.0,100.0
5322,82.0,0,59,6.0,100.0
5323,82.0,0,29,4.0,100.0
5324,67.0,30,29,10.0,100.0
5325,63.0,0,29,5.0,100.0
5326,66.0,0,29,5.0,100.0
5327,81.0,0,29,4.0,100.0
5328,78.0,0,59,6.0,100.0
5329,62.0,30,59,10.0,100.0
5330,78.0,0,29,4.0,100.0
5331,50.0,0,59,3.0,90.0
5332,81.0,0,59,8.0,100.0
5333,62.0,30,29,5.0,100.0
5334,66.0,0,29,5.0,100.0
5335,75.0,0,29,4.0,100.0
5336,78.0,0,29,4.0,100.0
5337,78.0,30,59,8.0,100.0
5338,81.0,0,59,6.0,100.0
5339,62.0,0,119,7.0,100.0
5340,62.0,0,59,3.0,90.0
5341,62.0,0,29,10.0,100.0
5342,69.0,30,29,5.0,100.0
5343,81.0,0,29,4.0,100.0
5344,66.0,0,29,10.0,100.0
5345,66.0,0,29,5.0,100.0
5346,84.0,0,29,4.0,100.0
5347,65.0,30,29,5.0,100.0
5348,50.0,30,59,3.0,90.0
5349,84.0,0,59,6.0,100.0
5350,69.0,0,29,10.0,100.0
5351,74.0,0,59,8.0,100.0
5352,81.0,0,29,4.0,100.0
5353,66.0,30,29,5.0,100.0
5354,72.0,0,59,10.0,100.0
5355,62.0,30,29,5.0,100.0
5356,81.0,0,59,8.0,100.0
5357,78.0,0,59,6.0,100.0
5358,62.0,0,59,7.0,100.0
5359,78.0,0,29,4.0,100.0
5360,75.0,0,29,4.0,100.0
5361,66.0,30,29,5.0,100.0
5362,78.0,0,29,4.0,100.0
5363,50.0,0,119,3.0,90.0
5364,81.0,0,59,6.0,100.0
5365,62.0,30,29,10.0,100.0
5366,78.0,0,59,8.0,100.0
5367,50.0,0,59,7.0,100.0
5368,69.0,0,29,5.0,100.0
5369,66.0,0,29,5.0,100.0
5370,81.0,0,29,4.0,100.0
5371,66.0,0,29,10.0,100.0
5372,81.0,0,359,0.0,90.0
5373,69.0,0,29,10.0,100.0
5374,78.0,0,359,1.0,127.0
5375,62.0,0,59,7.0,100.0
5376,74.0,30,59,8.0,100.0
5377,62.0,0,359,2.0,56.0
5378,84.0,0,29,4.0,100.0
5379,84.0,0,59,6.0,100.0
5380,62.0,30,29,5.0,100.0
5381,82.0,30,29,4.0,100.0
5382,82.0,0,59,8.0,100.0
5383,67.0,0,59,7.0,100.0
5384,62.0,0,59,2.0,56.0
5385,82.0,0,59,0.0,90.0
5386,79.0,0,59,8.0,100.0
5387,67.0,0,59,10.0,100.0
5388,74.0,0,59,8.0,100.0
5389,78.0,30,29,4.0,100.0
5390,67.0,0,59,5.0,100.0
5391,79.0,0,59,1.0,127.0
5392,79.0,0,29,4.0,100.0
5393,77.0,30,14,4.0,100.0
5394,79.0,30,59,6.0,100.0
5395,55.0,0,59,7.0,100.0
5396,82.0,0,59,6.0,100.0
5397,74.0,0,59,6.0,100.0
5398,75.0,15,14,4.0,100.0
5399,55.0,0,59,5.0,100.0
5400,43.0,0,59,3.0,90.0
5401,55.0,0,59,10.0,100.0
5402,74.0,0,14,4.0,100.0
5403,72.0,15,14,4.0,100.0
5404,70.0,15,14,4.0,100.0
5405,81.0,0,59,0.0,90.0
5406,57.0,0,59,5.0,100.0
5407,45.0,0,59,3.0,90.0
5408,72.0,0,59,2.0,56.0
5409,69.0,15,14,4.0,100.0
5410,78.0,0,59,1.0,127.0
5411,57.0,15,59,10.0,100.0
5412,57.0,0,59,7.0,100.0
5413,67.0,0,29,4.0,100.0
5414,46.0,0,59,3.0,90.0
5415,58.0,15,59,10.0,100.0
5416,58.0,0,59,5.0,100.0
5417,82.0,0,59,8.0,100.0
5418,74.0,0,59,8.0,100.0
5419,79.0,0,59,8.0,100.0
5420,70.0,30,29,4.0,100.0
5421,58.0,0,59,7.0,100.0
5422,74.0,0,29,4.0,100.0
5423,58.0,0,59,10.0,100.0
5424,58.0,0,59,7.0,100.0
5425,79.0,30,29,4.0,100.0
5426,74.0,0,59,6.0,100.0
5427,58.0,30,59,5.0,100.0
5428,46.0,0,59,3.0,90.0
5429,79.0,0,59,6.0,100.0
5430,70.0,0,59,6.0,100.0
5431,69.0,0,29,4.0,100.0
5432,79.0,30,29,4.0,100.0
5433,48.0,0,59,3.0,90.0
5434,60.0,30,59,10.0,100.0
5435,60.0,0,59,5.0,100.0
5436,60.0,0,59,7.0,100.0
5437,79.0,0,59,0.0,90.0
5438,75.0,0,59,1.0,127.0
5439,69.0,0,59,2.0,56.0
5440,78.0,0,29,4.0,100.0
5441,62.0,0,59,5.0,100.0
5442,69.0,0,59,8.0,100.0
5443,62.0,0,59,7.0,100.0
5444,74.0,0,59,8.0,100.0
5445,62.0,30,59,10.0,100.0
5446,74.0,30,29,4.0,100.0
5447,50.0,0,59,3.0,90.0
5448,78.0,0,59,8.0,100.0
5449,72.0,0,29,4.0,100.0
5450,74.0,0,59,6.0,100.0
5451,62.0,0,59,10.0,100.0
5452,62.0,0,59,7.0,100.0
5453,69.0,0,59,6.0,100.0
5454,70.0,30,29,4.0,100.0
5455,50.0,30,59,3.0,90.0
5456,62.0,0,59,5.0,100.0
5457,78.0,0,59,6.0,100.0
5458,72.0,0,29,4.0,100.0
5459,72.0,0,59,1.0,127.0
5460,51.0,0,59,3.0,90.0
5461,63.0,0,59,5.0,100.0
5462,67.0,0,59,2.0,56.0
5463,67.0,30,29,4.0,100.0
5464,79.0,0,59,0.0,90.0
5465,63.0,0,59,10.0,100.0
5466,63.0,30,59,7.0,100.0
5467,66.0,0,29,4.0,100.0
5468,62.0,0,59,10.0,100.0
5469,69.0,30,29,4.0,100.0
5470,62.0,0,59,5.0,100.0
5471,62.0,0,59,7.0,100.0
5472,69.0,0,59,8.0,100.0
5473,74.0,0,59,8.0,100.0
5474,78.0,0,59,8.0,100.0
5475,50.0,30,59,3.0,90.0
5476,48.0,0,29,3.0,90.0
5477,60.0,0,29,5.0,100.0
5478,60.0,0,29,7.0,100.0
5479,60.0,0,29,10.0,100.0
5480,72.0,30,29,4.0,100.0
5481,58.0,0,29,10.0,100.0
5482,74.0,0,59,6.0,100.0
5483,69.0,0,59,6.0,100.0
5484,58.0,0,29,5.0,100.0
5485,46.0,0,29,3.0,90.0
5486,75.0,30,29,4.0,100.0
5487,58.0,0,29,7.0,100.0
5488,78.0,0,59,6.0,100.0
5489,57.0,0,29,5.0,100.0
5490,72.0,0,29,4.0,100.0
5491,57.0,0,29,7.0,100.0
5492,57.0,30,29,10.0,100.0
5493,45.0,0,29,3.0,90.0
5494,55.0,0,29,7.0,100.0
5495,55.0,0,29,10.0,100.0
5496,43.0,30,29,3.0,90.0
5497,55.0,0,29,5.0,100.0
5498,79.0,0,59,0.0,90.0
5499,69.0,0,29,4.0,100.0
5500,75.0,0,59,1.0,127.0
5501,72.0,0,59,2.0,56.0
5502,63.0,0,29,4.0,100.0
5503,54.0,0,59,7.0,100.0
5504,54.0,0,59,10.0,100.0
5505,66.0,30,29,4.0,100.0
5506,75.0,0,59,8.0,100.0
5507,81.0,0,59,8.0,100.0
5508,72.0,0,59,8.0,100.0
5509,54.0,0,59,5.0,100.0
5510,42.0,30,59,3.0,90.0
5511,38.0,30,29,3.0,90.0
5512,50.0,0,29,5.0,100.0
5513,50.0,0,29,7.0,100.0
5514,50.0,0,29,10.0,100.0
5515,69.0,0,29,4.0,100.0
5516,40.0,30,29,3.0,90.0
5517,52.0,0,29,10.0,100.0
5518,52.0,0,29,5.0,100.0
5519,72.0,0,29,4.0,100.0
5520,74.0,0,59,6.0,100.0
5521,78.0,0,59,6.0,100.0
5522,81.0,0,59,6.0,100.0
5523,52.0,0,29,7.0,100.0
5524,54.0,30,29,7.0,100.0
5525,69.0,0,29,4.0,100.0
5526,42.0,0,29,3.0,90.0
5527,54.0,0,29,5.0,100.0
5528,54.0,0,29,10.0,100.0
5529,55.0,0,29,7.0,100.0
5530,74.0,0,59,1.0,127.0
5531,55.0,0,29,10.0,100.0
5532,66.0,0,29,4.0,100.0
5533,43.0,30,29,3.0,90.0
5534,55.0,0,29,5.0,100.0
5535,72.0,0,59,2.0,56.0
5536,81.0,0,59,0.0,90.0
5537,63.0,0,29,4.0,100.0
5538,57.0,0,59,5.0,100.0
5539,72.0,0,59,8.0,100.0
5540,69.0,0,59,8.0,100.0
5541,78.0,0,59,8.0,100.0
5542,45.0,0,59,3.0,90.0
5543,66.0,30,29,4.0,100.0
5544,57.0,30,59,7.0,100.0
5545,57.0,0,59,10.0,100.0
5546,69.0,0,29,4.0,100.0
5547,72.0,30,29,4.0,100.0
5548,57.0,0,59,5.0,100.0
5549,57.0,30,59,7.0,100.0
5550,78.0,0,59,6.0,100.0
5551,72.0,0,59,6.0,100.0
5552,69.0,0,59,6.0,100.0
5553,45.0,0,59,3.0,90.0
5554,57.0,0,59,10.0,100.0
5555,67.0,0,29,4.0,100.0
5556,58.0,0,59,10.0,100.0
5557,58.0,30,59,5.0,100.0
5558,46.0,0,59,3.0,90.0
5559,79.0,0,59,0.0,90.0
5560,70.0,30,29,4.0,100.0
5561,70.0,0,59,2.0,56.0
5562,74.0,0,59,1.0,127.0
5563,58.0,0,59,7.0,100.0
5564,60.0,0,29,4.0,100.0
5565,63.0,30,29,4.0,100.0
5566,57.0,0,59,10.0,100.0
5567,45.0,0,59,3.0,90.0
5568,69.0,0,59,8.0,100.0
5569,57.0,30,59,7.0,100.0
5570,78.0,0,59,8.0,100.0
5571,57.0,0,59,5.0,100.0
5572,72.0,0,59,8.0,100.0
5573,50.0,0,29,5.0,100.0
5574,66.0,0,29,4.0,100.0
5575,50.0,0,29,10.0,100.0
5576,50.0,0,29,7.0,100.0
5577,38.0,0,29,3.0,90.0
5578,52.0,0,29,7.0,100.0
5579,72.0,0,59,6.0,100.0
5580,78.0,30,59,6.0,100.0
5581,40.0,0,29,3.0,90.0
5582,52.0,30,29,10.0,100.0
5583,69.0,0,29,4.0,100.0
5584,69.0,0,59,6.0,100.0
5585,52.0,0,29,5.0,100.0
5586,54.0,0,29,5.0,100.0
5587,42.0,30,29,3.0,90.0
5588,54.0,0,29,7.0,100.0
5589,54.0,0,29,10.0,100.0
5590,66.0,0,29,4.0,100.0
5591,55.0,0,29,10.0,100.0
5592,55.0,0,29,7.0,100.0
5593,81.0,0,59,0.0,90.0
5594,72.0,0,59,2.0,56.0
5595,63.0,0,29,4.0,100.0
5596,75.0,0,59,1.0,127.0
5597,43.0,30,29,3.0,90.0
5598,55.0,0,29,5.0,100.0
5599,60.0,30,29,4.0,100.0
5600,78.0,0,59,8.0,100.0
5601,69.0,0,59,8.0,100.0
5602,57.0,0,59,10.0,100.0
5603,57.0,0,59,7.0,100.0
5604,63.0,30,29,4.0,100.0
5605,72.0,0,59,8.0,100.0
5606,57.0,0,59,5.0,100.0
5607,45.0,0,59,3.0,90.0
5608,66.0,0,29,4.0,100.0
5609,69.0,30,29,4.0,100.0
5610,57.0,30,59,10.0,100.0
5611,45.0,0,59,3.0,90.0
5612,69.0,0,59,6.0,100.0
5613,72.0,0,59,6.0,100.0
5614,78.0,0,59,6.0,100.0
5615,57.0,0,59,7.0,100.0
5616,57.0,0,59,5.0,100.0
5617,62.0,0,29,4.0,100.0
5618,74.0,0,59,1.0,127.0
5619,67.0,30,29,4.0,100.0
5620,79.0,30,59,0.0,90.0
5621,58.0,0,59,7.0,100.0
5622,58.0,0,59,5.0,100.0
5623,70.0,0,59,2.0,56.0
5624,58.0,0,59,10.0,100.0
5625,46.0,0,59,3.0,90.0
5626,78.0,0,29,8.0,100.0
5627,63.0,0,29,4.0,100.0
5628,69.0,30,59,6.0,100.0
5629,79.0,30,29,8.0,100.0
5630,45.0,0,59,3.0,90.0
5631,60.0,0,29,4.0,100.0
5632,57.0,0,59,5.0,100.0
5633,57.0,0,59,7.0,100.0
5634,72.0,0,59,6.0,100.0
5635,57.0,0,59,10.0,100.0
5636,74.0,0,29,0.0,90.0
5637,57.0,0,29,4.0,100.0
5638,69.0,0,59,1.0,127.0
5639,60.0,0,29,4.0,100.0
5640,54.0,0,59,10.0,100.0
5641,62.0,30,59,2.0,56.0
5642,81.0,0,59,8.0,100.0
5643,72.0,30,29,0.0,90.0
5644,54.0,0,29,5.0,100.0
5645,42.0,0,59,3.0,90.0
5646,72.0,0,120,8.0,100.0
5647,50.0,0,29,5.0,100.0
5648,54.0,30,29,4.0,100.0
5649,69.0,0,59,2.0,56.0
5650,74.0,0,59,0.0,90.0
5651,60.0,0,29,4.0,100.0
5652,72.0,0,59,1.0,127.0
5653,54.0,30,29,5.0,100.0
5654,69.0,0,59,6.0,100.0
5655,66.0,0,59,6.0,100.0
5656,50.0,0,59,7.0,100.0
5657,38.0,0,59,3.0,90.0
5658,58.0,0,29,4.0,100.0
5659,79.0,0,29,8.0,100.0
5660,62.0,0,29,4.0,100.0
5661,62.0,0,59,6.0,100.0
5662,70.0,0,59,6.0,100.0
5663,55.0,0,59,10.0,100.0
5664,78.0,30,29,8.0,100.0
5665,55.0,0,59,7.0,100.0
5666,43.0,30,59,3.0,90.0
5667,55.0,0,59,5.0,100.0
5668,55.0,0,29,4.0,100.0
5669,75.0,0,29,0.0,90.0
5670,70.0,0,59,1.0,127.0
5671,39.0,0,59,3.0,90.0
5672,58.0,0,29,4.0,100.0
5673,67.0,0,59,2.0,56.0
5674,55.0,30,29,5.0,100.0
5675,51.0,0,59,10.0,100.0
5676,74.0,0,29,0.0,90.0
5677,79.0,30,59,8.0,100.0
5678,70.0,0,120,8.0,100.0
5679,60.0,0,29,4.0,100.0
5680,51.0,0,29,5.0,100.0
5681,70.0,0,59,1.0,127.0
5682,63.0,30,29,4.0,100.0
5683,48.0,0,29,5.0,100.0
5684,67.0,0,59,6.0,100.0
5685,75.0,0,59,6.0,100.0
5686,67.0,0,59,2.0,56.0
5687,75.0,30,59,0.0,90.0
5688,48.0,0,59,7.0,100.0
5689,36.0,0,59,3.0,90.0
5690,77.0,0,29,8.0,100.0
5691,57.0,0,29,4.0,100.0
5692,53.0,0,59,5.0,100.0
5693,72.0,0,59,6.0,100.0
5694,53.0,0,59,7.0,100.0
5695,41.0,0,59,3.0,90.0
5696,60.0,30,29,4.0,100.0
5697,53.0,30,59,10.0,100.0
5698,69.0,0,59,6.0,100.0
5699,76.0,0,29,8.0,100.0
5700,53.0,0,29,4.0,100.0
5701,77.0,0,29,0.0,90.0
5702,75.0,0,29,0.0,90.0
5703,55.0,30,29,5.0,100.0
5704,69.0,30,59,1.0,127.0
5705,65.0,0,59,2.0,56.0
5706,53.0,0,59,3.0,90.0
5707,60.0,0,29,4.0,100.0
5708,77.0,0,59,8.0,100.0
5709,41.0,0,59,10.0,100.0
5710,69.0,0,120,8.0,100.0
5711,62.0,0,29,4.0,100.0
5712,53.0,0,29,5.0,100.0
5713,60.0,30,59,2.0,56.0
5714,77.0,0,59,0.0,90.0
5715,68.0,0,59,1.0,127.0
5716,63.0,30,29,4.0,100.0
5717,68.0,0,59,6.0,100.0
5718,51.0,0,59,7.0,100.0
5719,77.0,0,59,6.0,100.0
5720,51.0,0,59,3.0,90.0
5721,51.0,0,29,5.0,100.0
5722,71.0,0,29,8.0,100.0
5723,65.0,0,29,4.0,100.0
5724,62.0,0,29,4.0,100.0
5725,50.0,0,59,3.0,90.0
5726,71.0,0,59,6.0,100.0
5727,72.0,30,29,8.0,100.0
5728,50.0,0,59,7.0,100.0
5729,68.0,0,59,6.0,100.0
5730,50.0,0,59,5.0,100.0
5731,50.0,30,59,10.0,100.0
5732,59.0,30,29,4.0,100.0
5733,79.0,0,29,0.0,90.0
5734,50.0,0,29,5.0,100.0
5735,74.0,0,59,8.0,100.0
5736,67.0,0,59,1.0,127.0
5737,55.0,0,59,3.0,90.0
5738,59.0,0,59,2.0,56.0
5739,77.0,0,29,0.0,90.0
5740,55.0,0,59,10.0,100.0
5741,62.0,30,29,4.0,100.0
5742,65.0,0,120,8.0,100.0
5743,47.0,30,29,5.0,100.0
5744,55.0,0,29,4.0,100.0
5745,43.0,0,59,3.0,90.0
5746,43.0,30,29,5.0,100.0
5747,65.0,0,29,4.0,100.0
5748,79.0,0,59,0.0,90.0
5749,43.0,0,59,7.0,100.0
5750,74.0,0,59,6.0,100.0
5751,67.0,0,59,6.0,100.0
5752,62.0,0,59,2.0,56.0
5753,71.0,0,59,1.0,127.0
5754,72.0,0,29,8.0,100.0
5755,63.0,0,29,4.0,100.0
5756,72.0,0,59,6.0,100.0
5757,67.0,30,29,4.0,100.0
5758,48.0,0,59,7.0,100.0
5759,71.0,0,29,8.0,100.0
5760,48.0,0,59,10.0,100.0
5761,48.0,0,59,3.0,90.0
5762,67.0,0,59,6.0,100.0
5763,48.0,30,59,5.0,100.0
5764,60.0,0,29,4.0,100.0
5765,75.0,0,29,0.0,90.0
5766,50.0,0,29,5.0,100.0
5767,60.0,30,59,2.0,56.0
5768,67.0,0,59,1.0,127.0
5769,74.0,0,29,0.0,90.0
5770,60.0,0,59,3.0,90.0
5771,72.0,0,59,8.0,100.0
5772,36.0,0,59,10.0,100.0
5773,67.0,30,29,4.0,100.0
5774,63.0,0,120,8.0,100.0
5775,69.0,0,29,4.0,100.0
5776,48.0,0,29,5.0,100.0
5777,75.0,0,59,6.0,100.0
5778,75.0,0,59,0.0,90.0
5779,72.0,0,59,6.0,100.0
5780,46.0,0,59,7.0,100.0
5781,55.0,0,59,2.0,56.0
5782,46.0,0,29,5.0,100.0
5783,70.0,30,29,4.0,100.0
5784,58.0,30,59,3.0,90.0
5785,72.0,0,59,1.0,127.0
5786,72.0,0,29,4.0,100.0
5787,78.0,0,29,8.0,100.0
5788,45.0,0,59,10.0,100.0
5789,66.0,0,59,6.0,100.0
5790,79.0,30,29,8.0,100.0
5791,69.0,0,29,4.0,100.0
5792,45.0,0,59,5.0,100.0
5793,45.0,0,59,7.0,100.0
5794,75.0,0,59,6.0,100.0
5795,57.0,0,59,3.0,90.0
5796,66.0,0,29,4.0,100.0
5797,74.0,30,29,0.0,90.0
5798,81.0,0,59,8.0,100.0
5799,45.0,0,29,5.0,100.0
5800,62.0,0,59,2.0,56.0
5801,72.0,0,29,0.0,90.0
5802,69.0,30,29,4.0,100.0
5803,50.0,0,59,10.0,100.0
5804,62.0,0,59,3.0,90.0
5805,66.0,0,59,1.0,127.0
5806,72.0,30,120,8.0,100.0
5807,42.0,0,29,5.0,100.0
5808,62.0,30,29,4.0,100.0
5809,74.0,0,59,0.0,90.0
5810,69.0,0,59,1.0,127.0
5811,66.0,0,59,2.0,56.0
5812,72.0,0,59,6.0,100.0
5813,74.0,0,59,6.0,100.0
5814,38.0,0,59,7.0,100.0
5815,72.0,0,29,4.0,100.0
5816,38.0,30,29,5.0,100.0
5817,50.0,0,59,3.0,90.0
5818,70.0,30,29,4.0,100.0
5819,79.0,0,29,8.0,100.0
5820,43.0,0,59,7.0,100.0
5821,74.0,0,59,6.0,100.0
5822,43.0,0,59,3.0,90.0
5823,74.0,0,29,4.0,100.0
5824,78.0,30,29,8.0,100.0
5825,43.0,0,59,10.0,100.0
5826,43.0,0,59,5.0,100.0
5827,70.0,0,59,6.0,100.0
5828,67.0,0,29,4.0,100.0
5829,70.0,0,29,0.0,90.0
5830,67.0,30,29,1.0,127.0
5831,55.0,0,59,3.0,90.0
5832,55.0,0,59,10.0,100.0
5833,66.0,0,29,1.0,127.0
5834,69.0,30,29,5.0,100.0
5835,74.0,0,29,4.0,100.0
5836,69.0,0,29,0.0,90.0
5837,79.0,0,59,8.0,100.0
5838,62.0,0,59,2.0,56.0
5839,70.0,0,120,8.0,100.0
5840,76.0,0,29,4.0,100.0
5841,67.0,0,29,5.0,100.0
5842,53.0,0,59,3.0,90.0
5843,55.0,0,59,2.0,56.0
5844,53.0,0,59,7.0,100.0
5845,67.0,30,59,1.0,127.0
5846,77.0,0,29,4.0,100.0
5847,70.0,0,59,6.0,100.0
5848,79.0,0,59,6.0,100.0
5849,65.0,30,29,5.0,100.0
5850,70.0,0,59,0.0,90.0
5851,73.0,0,29,8.0,100.0
5852,64.0,0,29,5.0,100.0
5853,79.0,0,29,4.0,100.0
5854,52.0,0,59,7.0,100.0
5855,52.0,0,59,3.0,90.0
5856,76.0,0,29,4.0,100.0
5857,74.0,0,29,8.0,100.0
5858,70.0,0,59,6.0,100.0
5859,67.0,30,29,5.0,100.0
5860,52.0,30,59,10.0,100.0
5861,73.0,0,59,6.0,100.0
5862,69.0,0,29,0.0,90.0
5863,64.0,0,29,5.0,100.0
5864,73.0,0,29,4.0,100.0
5865,67.0,30,59,1.0,127.0
5866,57.0,0,59,2.0,56.0
5867,57.0,0,59,3.0,90.0
5868,76.0,0,59,8.0,100.0
5869,76.0,0,29,4.0,100.0
5870,67.0,30,29,5.0,100.0
5871,67.0,0,29,0.0,90.0
5872,57.0,0,59,10.0,100.0
5873,67.0,0,120,8.0,100.0
5874,61.0,0,29,5.0,100.0
5875,69.0,0,29,4.0,100.0
5876,69.0,0,59,6.0,100.0
5877,76.0,0,59,6.0,100.0
5878,69.0,0,59,0.0,90.0
5879,79.0,0,29,4.0,100.0
5880,45.0,0,59,7.0,100.0
5881,67.0,30,59,1.0,127.0
5882,45.0,0,59,3.0,90.0
5883,61.0,0,59,2.0,56.0
5884,64.0,30,29,5.0,100.0
5885,62.0,0,29,5.0,100.0
5886,74.0,0,29,8.0,100.0
5887,77.0,0,29,4.0,100.0
5888,65.0,30,29,5.0,100.0
5889,73.0,0,29,8.0,100.0
5890,69.0,0,59,6.0,100.0
5891,77.0,0,59,6.0,100.0
5892,50.0,0,59,7.0,100.0
5893,81.0,0,29,4.0,100.0
5894,50.0,0,59,10.0,100.0
5895,50.0,30,59,3.0,90.0
5896,65.0,0,60,8.0,100.0
5897,57.0,0,29,5.0,100.0
5898,74.0,0,29,4.0,100.0
5899,65.0,0,59,1.0,127.0
5900,57.0,0,59,2.0,56.0
5901,53.0,0,59,10.0,100.0
5902,69.0,30,59,0.0,90.0
5903,53.0,0,59,3.0,90.0
5904,77.0,0,29,4.0,100.0
5905,69.0,0,59,8.0,100.0
5906,62.0,30,29,5.0,100.0
5907,74.0,0,59,8.0,100.0
5908,78.0,0,29,4.0,100.0
5909,65.0,30,29,5.0,100.0
5910,50.0,0,59,7.0,100.0
5911,65.0,0,59,1.0,127.0
5912,50.0,0,59,3.0,90.0
5913,72.0,0,59,6.0,100.0
5914,77.0,0,59,6.0,100.0
5915,63.0,30,29,5.0,100.0
5916,53.0,0,59,2.0,56.0
5917,74.0,0,59,0.0,90.0
5918,72.0,0,29,4.0,100.0
5919,67.0,30,29,8.0,100.0
5920,71.0,0,29,4.0,100.0
5921,62.0,0,29,5.0,100.0
5922,55.0,0,59,7.0,100.0
5923,74.0,30,29,4.0,100.0
5924,71.0,0,59,6.0,100.0
5925,77.0,0,59,6.0,100.0
5926,55.0,0,59,10.0,100.0
5927,55.0,0,59,3.0,90.0
5928,65.0,0,29,5.0,100.0
5929,68.0,0,29,8.0,100.0
5930,67.0,0,29,4.0,100.0
5931,71.0,0,29,0.0,90.0
5932,62.0,30,29,5.0,100.0
5933,47.0,0,59,10.0,100.0
5934,69.0,30,29,0.0,90.0
5935,65.0,0,29,5.0,100.0
5936,65.0,0,59,8.0,100.0
5937,55.0,0,59,2.0,56.0
5938,65.0,0,59,1.0,127.0
5939,43.0,0,59,3.0,90.0
5940,74.0,0,29,4.0,100.0
5941,74.0,0,120,8.0,100.0
5942,79.0,0,29,4.0,100.0
5943,59.0,0,29,5.0,100.0
5944,77.0,30,29,4.0,100.0
5945,55.0,0,59,3.0,90.0
5946,59.0,0,59,2.0,56.0
5947,67.0,0,59,6.0,100.0
5948,74.0,0,59,6.0,100.0
5949,65.0,30,59,1.0,127.0
5950,67.0,0,59,0.0,90.0
5951,62.0,0,29,5.0,100.0
5952,43.0,0,59,7.0,100.0
5953,72.0,0,29,8.0,100.0
5954,60.0,0,29,5.0,100.0
5955,75.0,30,29,4.0,100.0
5956,48.0,0,59,10.0,100.0
5957,79.0,0,29,4.0,100.0
5958,63.0,30,29,5.0,100.0
5959,67.0,0,59,6.0,100.0
5960,75.0,0,59,6.0,100.0
5961,48.0,0,59,3.0,90.0
5962,48.0,0,59,7.0,100.0
5963,71.0,0,29,8.0,100.0
5964,72.0,30,29,4.0,100.0
5965,55.0,0,29,5.0,100.0
5966,51.0,0,59,10.0,100.0
5967,60.0,0,29,5.0,100.0
5968,51.0,0,59,3.0,90.0
5969,75.0,30,29,4.0,100.0
5970,55.0,0,59,2.0,56.0
5971,67.0,0,59,0.0,90.0
5972,72.0,0,59,8.0,100.0
5973,63.0,0,59,1.0,127.0
5974,63.0,0,120,8.0,100.0
5975,63.0,0,29,5.0,100.0
5976,79.0,0,29,4.0,100.0
5977,63.0,0,59,1.0,127.0
5978,62.0,30,29,5.0,100.0
5979,70.0,0,59,6.0,100.0
5980,76.0,0,59,6.0,100.0
5981,48.0,0,59,3.0,90.0
5982,70.0,0,29,4.0,100.0
5983,72.0,30,59,0.0,90.0
5984,48.0,0,59,7.0,100.0
5985,55.0,0,59,2.0,56.0
5986,65.0,0,29,8.0,100.0
5987,60.0,0,29,5.0,100.0
5988,69.0,0,29,4.0,100.0
5989,63.0,0,29,5.0,100.0
5990,53.0,0,59,3.0,90.0
5991,53.0,0,59,7.0,100.0
5992,67.0,30,29,8.0,100.0
5993,75.0,0,59,6.0,100.0
5994,69.0,0,59,6.0,100.0
5995,53.0,30,59,10.0,100.0
5996,72.0,0,29,4.0,100.0
5997,65.0,0,29,4.0,100.0
5998,60.0,0,29,5.0,100.0
5999,69.0,0,29,0.0,90.0
6000,41.0,0,59,3.0,90.0
6001,53.0,0,59,2.0,56.0
6002,45.0,0,59,10.0,100.0
6003,67.0,0,29,0.0,90.0
6004,63.0,30,59,1.0,127.0
6005,63.0,0,59,8.0,100.0
6006,72.0,0,29,4.0,100.0
6007,63.0,30,29,5.0,100.0
6008,72.0,0,120,8.0,100.0
6009,57.0,0,29,5.0,100.0
6010,77.0,0,29,4.0,100.0
6011,41.0,0,59,7.0,100.0
6012,53.0,0,59,3.0,90.0
6013,57.0,0,59,2.0,56.0
6014,75.0,30,29,4.0,100.0
6015,69.0,0,59,6.0,100.0
6016,63.0,30,59,1.0,127.0
6017,65.0,0,59,0.0,90.0
6018,72.0,0,59,6.0,100.0
6019,60.0,0,29,5.0,100.0
6020,74.0,0,29,4.0,100.0
6021,70.0,0,29,8.0,100.0
6022,58.0,30,29,5.0,100.0
6023,69.0,0,29,8.0,100.0
6024,62.0,0,29,5.0,100.0
6025,65.0,0,59,6.0,100.0
6026,74.0,0,59,6.0,100.0
6027,46.0,0,59,10.0,100.0
6028,77.0,30,29,4.0,100.0
6029,46.0,0,59,3.0,90.0
6030,46.0,0,59,7.0,100.0
6031,62.0,0,60,8.0,100.0
6032,70.0,0,29,4.0,100.0
6033,53.0,0,29,5.0,100.0
6034,65.0,30,59,0.0,90.0
6035,62.0,0,59,1.0,127.0
6036,58.0,0,59,2.0,56.0
6037,74.0,0,29,4.0,100.0
6038,50.0,0,59,10.0,100.0
6039,70.0,0,59,8.0,100.0
6040,58.0,30,29,5.0,100.0
6041,50.0,0,59,3.0,90.0
6042,65.0,0,59,8.0,100.0
6043,77.0,0,29,4.0,100.0
6044,62.0,0,29,5.0,100.0
6045,70.0,0,59,0.0,90.0
6046,68.0,30,29,4.0,100.0
6047,65.0,0,59,6.0,100.0
6048,74.0,0,59,6.0,100.0
6049,60.0,0,29,5.0,100.0
6050,46.0,0,59,3.0,90.0
6051,46.0,0,59,7.0,100.0
6052,62.0,0,59,1.0,127.0
6053,53.0,30,59,2.0,56.0
6054,67.0,0,29,4.0,100.0
6055,67.0,30,29,8.0,100.0
6056,67.0,0,59,6.0,100.0
6057,73.0,0,59,6.0,100.0
6058,66.0,30,29,8.0,100.0
6059,51.0,0,59,10.0,100.0
6060,51.0,0,59,7.0,100.0
6061,58.0,0,59,5.0,100.0
6062,51.0,0,59,3.0,90.0
6063,70.0,0,29,4.0,100.0
6064,63.0,0,29,4.0,100.0
6065,55.0,0,59,2.0,56.0
6066,43.0,30,59,10.0,100.0
6067,55.0,0,59,3.0,90.0
6068,70.0,0,59,0.0,90.0
6069,67.0,30,29,4.0,100.0
6070,55.0,0,59,5.0,100.0
6071,67.0,0,59,8.0,100.0
6072,63.0,0,59,1.0,127.0
6073,70.0,0,120,8.0,100.0
6074,70.0,0,29,4.0,100.0
6075,50.0,0,59,5.0,100.0
6076,50.0,0,59,7.0,100.0
6077,74.0,0,59,0.0,90.0
6078,70.0,0,59,6.0,100.0
6079,74.0,0,59,6.0,100.0
6080,53.0,0,59,3.0,90.0
6081,55.0,0,59,2.0,56.0
6082,62.0,30,59,1.0,127.0
6083,62.0,30,29,4.0,100.0
6084,55.0,0,29,5.0,100.0
6085,61.0,0,29,4.0,100.0
6086,64.0,0,29,8.0,100.0
6087,62.0,30,29,8.0,100.0
6088,70.0,0,59,6.0,100.0
6089,76.0,0,59,6.0,100.0
6090,64.0,0,29,4.0,100.0
6091,58.0,0,29,5.0,100.0
6092,52.0,0,59,3.0,90.0
6093,55.0,30,59,7.0,100.0
6094,58.0,0,59,10.0,100.0
6095,67.0,0,29,4.0,100.0
6096,57.0,0,29,5.0,100.0
6097,76.0,0,59,0.0,90.0
6098,64.0,0,59,8.0,100.0
6099,70.0,0,29,4.0,100.0
6100,49.0,0,59,10.0,100.0
6101,69.0,0,59,1.0,127.0
6102,49.0,30,59,3.0,90.0
6103,55.0,30,29,5.0,100.0
6104,64.0,0,59,2.0,56.0
6105,67.0,0,120,8.0,100.0
6106,54.0,30,29,5.0,100.0
6107,69.0,0,29,4.0,100.0
6108,52.0,30,29,5.0,100.0
6109,49.0,0,59,7.0,100.0
6110,81.0,0,59,0.0,90.0
6111,69.0,0,59,6.0,100.0
6112,67.0,0,29,4.0,100.0
6113,73.0,0,59,1.0,127.0
6114,64.0,0,59,2.0,56.0
6115,76.0,0,59,6.0,100.0
6116,45.0,0,59,3.0,90.0
6117,50.0,30,29,5.0,100.0
6118,66.0,0,29,4.0,100.0
6119,50.0,0,59,3.0,90.0
6120,66.0,0,59,8.0,100.0
6121,50.0,0,59,10.0,100.0
6122,51.0,30,29,5.0,100.0
6123,69.0,0,29,4.0,100.0
6124,75.0,0,59,6.0,100.0
6125,69.0,0,59,6.0,100.0
6126,62.0,0,59,8.0,100.0
6127,54.0,0,59,7.0,100.0
6128,72.0,0,29,4.0,100.0
6129,50.0,0,29,5.0,100.0
6130,42.0,0,59,3.0,90.0
6131,81.0,0,59,0.0,90.0
6132,48.0,30,29,5.0,100.0
6133,57.0,30,59,8.0,100.0
6134,74.0,0,59,1.0,127.0
6135,42.0,0,59,10.0,100.0
6136,62.0,0,59,2.0,56.0
6137,75.0,0,29,4.0,100.0
6138,62.0,0,59,8.0,100.0
6139,46.0,0,29,5.0,100.0
6140,74.0,30,29,4.0,100.0
6141,66.0,0,59,8.0,100.0
6142,62.0,0,59,8.0,100.0
6143,57.0,0,59,2.0,56.0
6144,72.0,0,59,0.0,90.0
6145,38.0,0,59,10.0,100.0
6146,72.0,0,29,4.0,100.0
6147,38.0,0,59,3.0,90.0
6148,45.0,30,29,5.0,100.0
6149,74.0,0,59,1.0,127.0
6150,72.0,0,59,6.0,100.0
6151,74.0,0,59,6.0,100.0
6152,50.0,0,59,7.0,100.0
6153,70.0,0,29,4.0,100.0
6154,70.0,0,59,6.0,100.0
6155,74.0,0,59,6.0,100.0
6156,43.0,0,59,5.0,100.0
6157,70.0,0,59,0.0,90.0
6158,55.0,0,59,7.0,100.0
6159,62.0,0,59,1.0,127.0
6160,62.0,0,59,8.0,100.0
6161,58.0,0,59,2.0,56.0
6162,43.0,0,59,10.0,100.0
6163,67.0,0,59,8.0,100.0
6164,66.0,30,29,4.0,100.0
6165,43.0,30,59,3.0,90.0
6166,67.0,0,29,4.0,100.0
6167,46.0,30,59,5.0,100.0
6168,62.0,30,29,4.0,100.0
6169,46.0,0,59,3.0,90.0
6170,60.0,0,29,4.0,100.0
6171,58.0,30,29,4.0,100.0
6172,51.0,0,59,3.0,90.0
6173,51.0,30,59,5.0,100.0
6174,57.0,0,29,4.0,100.0
6175,55.0,30,29,4.0,100.0
6176,48.0,0,59,3.0,90.0
6177,48.0,30,59,5.0,100.0
6178,50.0,30,29,4.0,100.0
6179,50.0,0,59,3.0,90.0
6180,50.0,0,59,5.0,100.0
6181,55.0,30,29,4.0,100.0
6182,67.0,0,29,4.0,100.0
6183,66.0,30,29,4.0,100.0
6184,38.0,30,59,5.0,100.0
6185,38.0,0,59,3.0,90.0
6186,67.0,0,29,4.0,100.0
6187,67.0,30,29,4.0,100.0
6188,43.0,0,59,5.0,100.0
6189,70.0,0,29,4.0,100.0
6190,74.0,30,29,4.0,100.0
6191,55.0,30,59,8.0,100.0
6192,55.0,0,59,2.0,56.0
6193,43.0,30,119,3.0,90.0
6194,55.0,0,59,5.0,100.0
6195,55.0,0,59,7.0,100.0
6196,79.0,0,59,0.0,90.0
6197,79.0,0,29,4.0,100.0
6198,57.0,30,59,8.0,100.0
6199,57.0,0,59,5.0,100.0
6200,57.0,0,59,7.0,100.0
6201,78.0,30,29,4.0,100.0
6202,57.0,0,59,2.0,56.0
6203,78.0,0,59,0.0,90.0
6204,58.0,0,59,5.0,100.0
6205,58.0,0,59,7.0,100.0
6206,79.0,0,59,0.0,90.0
6207,58.0,0,59,2.0,56.0
6208,79.0,0,59,4.0,100.0
6209,67.0,30,29,6.0,100.0
6210,58.0,30,59,8.0,100.0
6211,70.0,0,29,6.0,100.0
6212,82.0,30,59,0.0,90.0
6213,82.0,0,59,4.0,100.0
6214,86.0,0,59,4.0,100.0
6215,58.0,0,59,8.0,100.0
6216,58.0,0,59,2.0,56.0
6217,58.0,0,59,5.0,100.0
6218,74.0,30,29,6.0,100.0
6219,43.0,0,59,3.0,90.0
6220,58.0,0,59,7.0,100.0
6221,55.0,0,59,7.0,100.0
6222,79.0,0,59,1.0,127.0
6223,43.0,0,59,10.0,100.0
6224,79.0,0,29,6.0,100.0
6225,81.0,0,59,0.0,90.0
6226,45.0,30,59,10.0,100.0
6227,81.0,0,59,4.0,100.0
6228,84.0,0,59,4.0,100.0
6229,78.0,30,29,6.0,100.0
6230,78.0,0,59,1.0,127.0
6231,60.0,0,59,2.0,56.0
6232,60.0,0,59,8.0,100.0
6233,45.0,0,59,3.0,90.0
6234,60.0,0,59,7.0,100.0
6235,57.0,0,59,7.0,100.0
6236,60.0,0,59,5.0,100.0
6237,82.0,0,29,4.0,100.0
6238,79.0,0,29,4.0,100.0
6239,79.0,0,29,6.0,100.0
6240,79.0,0,29,1.0,127.0
6241,74.0,0,30,0.0,90.0
6242,86.0,0,29,4.0,100.0
6243,62.0,0,59,2.0,56.0
6244,46.0,30,59,10.0,100.0
6245,77.0,0,29,1.0,127.0
6246,77.0,0,29,6.0,100.0
6247,58.0,0,59,7.0,100.0
6248,62.0,0,59,8.0,100.0
6249,62.0,0,59,5.0,100.0
6250,62.0,0,59,7.0,100.0
6251,46.0,0,59,3.0,90.0
6252,86.0,30,30,0.0,90.0
6253,75.0,0,29,1.0,127.0
6254,84.0,0,29,4.0,100.0
6255,75.0,0,29,6.0,100.0
6256,84.0,0,30,0.0,90.0
6257,62.0,30,59,8.0,100.0
6258,62.0,0,59,7.0,100.0
6259,58.0,0,59,7.0,100.0
6260,62.0,0,59,5.0,100.0
6261,82.0,0,29,4.0,100.0
6262,46.0,0,59,3.0,90.0
6263,46.0,0,59,10.0,100.0
6264,74.0,30,29,1.0,127.0
6265,74.0,0,29,6.0,100.0
6266,62.0,0,59,2.0,56.0
6267,82.0,0,30,0.0,90.0
6268,81.0,0,29,4.0,100.0
6269,72.0,0,29,6.0,100.0
6270,81.0,30,30,0.0,90.0
6271,63.0,0,59,8.0,100.0
6272,60.0,0,59,7.0,100.0
6273,63.0,0,59,2.0,56.0
6274,63.0,0,59,7.0,100.0
6275,70.0,30,29,6.0,100.0
6276,79.0,0,29,4.0,100.0
6277,48.0,0,59,3.0,90.0
6278,48.0,0,59,10.0,100.0
6279,63.0,0,59,5.0,100.0
6280,79.0,0,30,0.0,90.0
6281,72.0,0,89,1.0,127.0
6282,72.0,0,29,6.0,100.0
6283,78.0,0,29,4.0,100.0
6284,78.0,0,30,0.0,90.0
6285,70.0,0,29,1.0,127.0
6286,62.0,0,59,2.0,56.0
6287,62.0,0,59,5.0,100.0
6288,70.0,30,29,6.0,100.0
6289,50.0,0,59,10.0,100.0
6290,50.0,0,59,3.0,90.0
6291,76.0,0,29,4.0,100.0
6292,62.0,30,59,7.0,100.0
6293,62.0,0,59,8.0,100.0
6294,79.0,0,30,0.0,90.0
6295,60.0,0,29,5.0,100.0
6296,69.0,0,29,6.0,100.0
6297,60.0,0,29,7.0,100.0
6298,60.0,0,29,8.0,100.0
6299,60.0,0,29,2.0,56.0
6300,69.0,0,29,1.0,127.0
6301,78.0,0,29,4.0,100.0
6302,81.0,30,30,0.0,90.0
6303,50.0,0,59,3.0,90.0
6304,58.0,0,29,5.0,100.0
6305,67.0,0,29,6.0,100.0
6306,58.0,0,29,8.0,100.0
6307,50.0,0,59,10.0,100.0
6308,58.0,0,29,2.0,56.0
6309,67.0,0,29,1.0,127.0
6310,79.0,0,29,4.0,100.0
6311,58.0,0,29,7.0,100.0
6312,82.0,30,30,0.0,90.0
6313,78.0,30,29,4.0,100.0
6314,57.0,0,29,5.0,100.0
6315,57.0,0,29,8.0,100.0
6316,69.0,0,29,1.0,127.0
6317,57.0,0,29,7.0,100.0
6318,69.0,0,29,6.0,100.0
6319,57.0,0,29,2.0,56.0
6320,55.0,0,29,8.0,100.0
6321,84.0,0,59,0.0,90.0
6322,79.0,0,29,4.0,100.0
6323,55.0,0,29,2.0,56.0
6324,70.0,0,29,6.0,100.0
6325,55.0,0,29,5.0,100.0
6326,70.0,30,29,1.0,127.0
6327,51.0,0,59,3.0,90.0
6328,51.0,0,59,10.0,100.0
6329,55.0,0,29,7.0,100.0
6330,81.0,30,29,4.0,100.0
6331,72.0,0,29,6.0,100.0
6332,82.0,30,29,0.0,90.0
6333,54.0,0,59,5.0,100.0
6334,50.0,0,59,10.0,100.0
6335,54.0,0,59,2.0,56.0
6336,50.0,0,59,3.0,90.0
6337,79.0,0,29,4.0,100.0
6338,75.0,0,29,6.0,100.0
6339,54.0,0,59,8.0,100.0
6340,54.0,0,59,7.0,100.0
6341,50.0,0,29,5.0,100.0
6342,48.0,30,29,10.0,100.0
6343,66.0,0,29,6.0,100.0
6344,81.0,0,29,0.0,90.0
6345,48.0,0,29,3.0,90.0
6346,50.0,0,29,7.0,100.0
6347,50.0,0,29,2.0,56.0
6348,50.0,0,29,8.0,100.0
6349,78.0,0,29,4.0,100.0
6350,79.0,0,29,0.0,90.0
6351,52.0,0,29,5.0,100.0
6352,67.0,0,29,6.0,100.0
6353,76.0,0,29,4.0,100.0
6354,46.0,0,29,3.0,90.0
6355,52.0,30,29,7.0,100.0
6356,46.0,0,29,10.0,100.0
6357,52.0,0,29,2.0,56.0
6358,52.0,0,29,8.0,100.0
6359,74.0,0,29,4.0,100.0
6360,54.0,0,29,5.0,100.0
6361,54.0,0,29,8.0,100.0
6362,69.0,0,29,6.0,100.0
6363,78.0,30,29,0.0,90.0
6364,54.0,0,29,7.0,100.0
6365,45.0,0,29,10.0,100.0
6366,45.0,0,29,3.0,90.0
6367,54.0,0,29,2.0,56.0
6368,43.0,0,29,3.0,90.0
6369,70.0,30,29,6.0,100.0
6370,43.0,0,29,10.0,100.0
6371,72.0,0,179,1.0,127.0
6372,55.0,0,29,5.0,100.0
6373,55.0,0,29,2.0,56.0
6374,55.0,0,29,8.0,100.0
6375,76.0,0,29,4.0,100.0
6376,55.0,0,29,7.0,100.0
6377,76.0,0,29,0.0,90.0
6378,78.0,0,29,4.0,100.0
6379,72.0,0,29,6.0,100.0
6380,57.0,0,59,2.0,56.0
6381,42.0,0,59,10.0,100.0
6382,70.0,0,29,1.0,127.0
6383,57.0,30,59,5.0,100.0
6384,79.0,0,29,4.0,100.0
6385,57.0,0,59,8.0,100.0
6386,57.0,0,59,7.0,100.0
6387,75.0,30,29,6.0,100.0
6388,42.0,0,59,3.0,90.0
6389,74.0,30,29,6.0,100.0
6390,78.0,0,29,4.0,100.0
6391,69.0,0,29,1.0,127.0
6392,57.0,0,59,5.0,100.0
6393,72.0,30,29,6.0,100.0
6394,38.0,0,59,3.0,90.0
6395,76.0,0,29,4.0,100.0
6396,57.0,0,59,8.0,100.0
6397,57.0,0,59,7.0,100.0
6398,67.0,0,29,1.0,127.0
6399,38.0,0,59,10.0,100.0
6400,57.0,0,59,2.0,56.0
6401,66.0,0,29,1.0,127.0
6402,74.0,0,29,6.0,100.0
6403,74.0,0,29,4.0,100.0
6404,58.0,0,59,5.0,100.0
6405,58.0,0,59,7.0,100.0
6406,70.0,30,29,6.0,100.0
6407,58.0,0,59,2.0,56.0
6408,43.0,0,59,10.0,100.0
6409,43.0,0,59,3.0,90.0
6410,67.0,0,29,1.0,127.0
6411,58.0,30,59,8.0,100.0
6412,76.0,0,29,4.0,100.0
6413,78.0,0,29,4.0,100.0
6414,69.0,0,59,1.0,127.0
6415,81.0,30,29,4.0,100.0
6416,74.0,0,239,0.0,90.0
6417,38.0,0,59,10.0,100.0
6418,57.0,0,59,2.0,56.0
6419,72.0,0,59,6.0,100.0
6420,57.0,30,59,7.0,100.0
6421,57.0,0,59,5.0,100.0
6422,57.0,0,59,8.0,100.0
6423,50.0,0,59,3.0,90.0
6424,50.0,0,29,5.0,100.0
6425,38.0,0,29,10.0,100.0
6426,50.0,0,29,2.0,56.0
6427,70.0,0,29,6.0,100.0
6428,62.0,30,29,8.0,100.0
6429,62.0,0,29,1.0,127.0
6430,38.0,0,29,3.0,90.0
6431,62.0,0,29,0.0,90.0
6432,74.0,0,29,4.0,100.0
6433,50.0,0,29,7.0,100.0
6434,64.0,0,29,8.0,100.0
6435,64.0,0,29,1.0,127.0
6436,52.0,0,29,2.0,56.0
6437,52.0,0,29,7.0,100.0
6438,40.0,0,29,3.0,90.0
6439,64.0,0,29,0.0,90.0
6440,72.0,0,29,6.0,100.0
6441,76.0,0,29,4.0,100.0
6442,40.0,0,29,10.0,100.0
6443,52.0,30,29,5.0,100.0
6444,73.0,0,29,6.0,100.0
6445,54.0,0,29,2.0,56.0
6446,66.0,0,29,1.0,127.0
6447,66.0,0,29,8.0,100.0
6448,42.0,0,29,10.0,100.0
6449,66.0,0,29,0.0,90.0
6450,54.0,0,29,7.0,100.0
6451,78.0,0,29,4.0,100.0
6452,42.0,0,29,3.0,90.0
6453,54.0,30,29,5.0,100.0
6454,76.0,0,29,6.0,100.0
6455,55.0,0,29,5.0,100.0
6456,67.0,0,29,0.0,90.0
6457,43.0,0,29,3.0,90.0
6458,43.0,0,29,10.0,100.0
6459,55.0,0,29,2.0,56.0
6460,55.0,0,29,7.0,100.0
6461,67.0,30,29,8.0,100.0
6462,67.0,0,29,1.0,127.0
6463,79.0,0,29,4.0,100.0
6464,57.0,0,59,5.0,100.0
6465,81.0,0,59,4.0,100.0
6466,45.0,0,59,10.0,100.0
6467,69.0,0,59,8.0,100.0
6468,69.0,0,59,1.0,127.0
6469,69.0,0,59,6.0,100.0
6470,57.0,0,59,7.0,100.0
6471,69.0,0,59,0.0,90.0
6472,57.0,30,59,2.0,56.0
6473,45.0,0,59,3.0,90.0
6474,81.0,0,29,4.0,100.0
6475,45.0,0,59,3.0,90.0
6476,69.0,0,59,0.0,90.0
6477,69.0,0,59,1.0,127.0
6478,57.0,0,59,7.0,100.0
6479,69.0,0,59,6.0,100.0
6480,69.0,0,59,8.0,100.0
6481,82.0,30,29,4.0,100.0
6482,57.0,60,59,2.0,56.0
6483,57.0,0,59,5.0,100.0
6484,45.0,0,59,10.0,100.0
6485,82.0,0,9,4.0,100.0
6486,84.0,10,9,4.0,100.0
6487,82.0,10,9,4.0,100.0
6488,81.0,10,14,4.0,100.0
6489,46.0,0,59,10.0,100.0
6490,70.0,0,59,8.0,100.0
6491,46.0,0,59,3.0,90.0
6492,58.0,0,59,5.0,100.0
6493,58.0,0,59,2.0,56.0
6494,70.0,30,59,6.0,100.0
6495,58.0,0,59,7.0,100.0
6496,70.0,0,59,0.0,90.0
6497,70.0,0,59,1.0,127.0
6498,82.0,15,14,4.0,100.0
6499,74.0,0,19,6.0,100.0
6500,58.0,0,19,7.0,100.0
6501,65.0,0,19,8.0,100.0
6502,84.0,15,29,4.0,100.0
6503,72.0,0,19,6.0,100.0
6504,57.0,0,19,7.0,100.0
6505,63.0,20,19,8.0,100.0
6506,81.0,10,29,4.0,100.0
6507,69.0,0,59,0.0,90.0
6508,57.0,0,59,2.0,56.0
6509,69.0,0,59,1.0,127.0
6510,57.0,0,59,5.0,100.0
6511,42.0,0,59,10.0,100.0
6512,74.0,0,19,6.0,100.0
6513,58.0,0,19,7.0,100.0
6514,65.0,10,19,8.0,100.0
6515,42.0,0,59,3.0,90.0
6516,57.0,0,14,7.0,100.0
6517,72.0,0,14,6.0,100.0
6518,63.0,0,14,8.0,100.0
6519,78.0,0,29,4.0,100.0
6520,74.0,0,14,6.0,100.0
6521,65.0,0,14,8.0,100.0
6522,58.0,15,14,7.0,100.0
6523,63.0,15,14,8.0,100.0
6524,57.0,0,14,7.0,100.0
6525,72.0,0,14,6.0,100.0
6526,42.0,20,59,10.0,100.0
6527,65.0,0,14,8.0,100.0
6528,74.0,0,14,6.0,100.0
6529,79.0,0,29,4.0,100.0
6530,42.0,0,59,3.0,90.0
6531,58.0,15,14,7.0,100.0
6532,57.0,0,59,5.0,100.0
6533,57.0,0,9,7.0,100.0
6534,72.0,0,9,6.0,100.0
6535,63.0,0,9,8.0,100.0
6536,65.0,0,9,8.0,100.0
6537,58.0,0,9,7.0,100.0
6538,74.0,10,9,6.0,100.0
6539,57.0,10,9,7.0,100.0
6540,63.0,0,9,8.0,100.0
6541,72.0,0,9,6.0,100.0
6542,81.0,0,29,4.0,100.0
6543,58.0,0,9,7.0,100.0
6544,74.0,0,9,6.0,100.0
6545,65.0,10,9,8.0,100.0
6546,57.0,10,9,7.0,100.0
6547,63.0,0,9,8.0,100.0
6548,72.0,0,9,6.0,100.0
6549,74.0,0,9,6.0,100.0
6550,42.0,0,59,3.0,90.0
6551,57.0,0,59,5.0,100.0
6552,75.0,0,29,4.0,100.0
6553,42.0,15,59,10.0,100.0
6554,65.0,10,9,8.0,100.0
6555,58.0,0,9,7.0,100.0
6556,72.0,0,9,6.0,100.0
6557,57.0,0,9,7.0,100.0
6558,63.0,10,9,8.0,100.0
6559,65.0,0,9,8.0,100.0
6560,74.0,0,9,6.0,100.0
6561,58.0,10,9,7.0,100.0
6562,63.0,10,9,8.0,100.0
6563,72.0,0,29,4.0,100.0
6564,57.0,0,9,7.0,100.0
6565,72.0,0,9,6.0,100.0
6566,65.0,0,9,8.0,100.0
6567,58.0,0,9,7.0,100.0
6568,74.0,0,9,6.0,100.0
6569,72.0,0,9,6.0,100.0
6570,63.0,10,9,8.0,100.0
6571,57.0,0,9,7.0,100.0
6572,74.0,10,9,6.0,100.0
6573,65.0,0,9,8.0,100.0
6574,69.0,0,59,1.0,127.0
6575,74.0,10,29,4.0,100.0
6576,63.0,0,59,2.0,56.0
6577,42.0,0,59,3.0,90.0
6578,57.0,0,59,5.0,100.0
6579,72.0,0,59,0.0,90.0
6580,42.0,0,59,10.0,100.0
6581,58.0,0,9,7.0,100.0
6582,63.0,0,9,8.0,100.0
6583,57.0,0,9,7.0,100.0
6584,72.0,10,9,6.0,100.0
6585,74.0,0,9,6.0,100.0
6586,65.0,0,9,8.0,100.0
6587,58.0,10,9,7.0,100.0
6588,63.0,0,9,8.0,100.0
6589,72.0,0,9,6.0,100.0
6590,75.0,0,29,4.0,100.0
6591,57.0,10,9,7.0,100.0
6592,74.0,10,9,6.0,100.0
6593,65.0,0,9,8.0,100.0
6594,58.0,0,9,7.0,100.0
6595,72.0,0,9,6.0,100.0
6596,63.0,0,9,8.0,100.0
6597,57.0,10,9,7.0,100.0
6598,58.0,0,9,7.0,100.0
6599,57.0,0,59,5.0,100.0
6600,42.0,0,59,3.0,90.0
6601,72.0,0,29,4.0,100.0
6602,74.0,10,9,6.0,100.0
6603,42.0,0,59,10.0,100.0
6604,65.0,0,9,8.0,100.0
6605,57.0,0,9,7.0,100.0
6606,72.0,0,9,6.0,100.0
6607,63.0,0,9,8.0,100.0
6608,65.0,0,9,8.0,100.0
6609,74.0,0,9,6.0,100.0
6610,58.0,10,9,7.0,100.0
6611,63.0,0,9,8.0,100.0
6612,57.0,10,9,7.0,100.0
6613,72.0,0,9,6.0,100.0
6614,69.0,0,29,4.0,100.0
6615,58.0,10,9,7.0,100.0
6616,74.0,0,9,6.0,100.0
6617,65.0,0,9,8.0,100.0
6618,57.0,0,9,7.0,100.0
6619,63.0,0,9,8.0,100.0
6620,72.0,10,9,6.0,100.0
6621,74.0,0,9,6.0,100.0
6622,70.0,0,29,4.0,100.0
6623,57.0,0,59,5.0,100.0
6624,58.0,10,9,7.0,100.0
6625,42.0,10,59,3.0,90.0
6626,65.0,0,9,8.0,100.0
6627,42.0,0,59,10.0,100.0
6628,57.0,0,9,7.0,100.0
6629,63.0,0,9,8.0,100.0
6630,72.0,0,9,6.0,100.0
6631,65.0,0,9,8.0,100.0
6632,74.0,10,9,6.0,100.0
6633,58.0,0,9,7.0,100.0
6634,63.0,0,9,8.0,100.0
6635,57.0,0,9,7.0,100.0
6636,72.0,0,29,4.0,100.0
6637,72.0,10,9,6.0,100.0
6638,74.0,0,9,6.0,100.0
6639,65.0,0,9,8.0,100.0
6640,58.0,10,9,7.0,100.0
6641,72.0,10,9,6.0,100.0
6642,57.0,0,9,7.0,100.0
6643,63.0,0,9,8.0,100.0
6644,69.0,0,29,4.0,100.0
6645,74.0,10,9,6.0,100.0
6646,75.0,0,59,0.0,90.0
6647,72.0,0,59,1.0,127.0
6648,58.0,0,9,7.0,100.0
6649,57.0,0,59,2.0,56.0
6650,57.0,0,59,5.0,100.0
6651,65.0,0,9,8.0,100.0
6652,42.0,0,59,10.0,100.0
6653,42.0,10,59,3.0,90.0
6654,72.0,0,9,6.0,100.0
6655,57.0,0,9,7.0,100.0
6656,63.0,0,9,8.0,100.0
6657,58.0,10,9,7.0,100.0
6658,74.0,0,9,6.0,100.0
6659,65.0,0,9,8.0,100.0
6660,57.0,0,9,7.0,100.0
6661,66.0,0,29,4.0,100.0
6662,63.0,0,9,8.0,100.0
6663,72.0,10,9,6.0,100.0
6664,74.0,10,9,6.0,100.0
6665,65.0,0,9,8.0,100.0
6666,58.0,0,9,7.0,100.0
6667,57.0,0,9,7.0,100.0
6668,63.0,0,9,8.0,100.0
6669,72.0,10,9,6.0,100.0
6670,57.0,10,59,5.0,100.0
6671,42.0,0,59,3.0,90.0
6672,67.0,0,29,4.0,100.0
6673,74.0,0,9,6.0,100.0
6674,42.0,0,59,10.0,100.0
6675,65.0,0,9,8.0,100.0
6676,58.0,10,9,7.0,100.0
6677,72.0,0,9,6.0,100.0
6678,57.0,0,14,7.0,100.0
6679,74.0,10,9,6.0,100.0
6680,63.0,0,29,8.0,100.0
6681,69.0,0,29,4.0,100.0
6682,72.0,5,9,6.0,100.0
6683,58.0,5,14,7.0,100.0
6684,62.0,0,14,8.0,100.0
6685,55.0,10,14,7.0,100.0
6686,70.0,0,15,6.0,100.0
6687,66.0,0,29,4.0,100.0
6688,42.0,10,59,10.0,100.0
6689,63.0,15,14,8.0,100.0
6690,57.0,0,59,5.0,100.0
6691,57.0,0,14,7.0,100.0
6692,42.0,0,59,3.0,90.0
6693,72.0,0,15,6.0,100.0
6694,62.0,0,29,4.0,100.0
6695,64.0,30,14,4.0,100.0
6696,74.0,0,59,0.0,90.0
6697,62.0,0,59,2.0,56.0
6698,58.0,0,59,7.0,100.0
6699,74.0,0,59,6.0,100.0
6700,62.0,0,59,8.0,100.0
6701,58.0,15,59,5.0,100.0
6702,46.0,0,59,10.0,100.0
6703,46.0,0,59,3.0,90.0
6704,66.0,15,14,4.0,100.0
6705,67.0,0,59,1.0,127.0
6706,67.0,0,14,4.0,100.0
6707,62.0,15,14,6.0,100.0
6708,66.0,0,14,4.0,100.0
6709,64.0,15,14,6.0,100.0
6710,67.0,0,14,4.0,100.0
6711,66.0,0,14,6.0,100.0
6712,58.0,15,59,5.0,100.0
6713,62.0,0,59,5.0,100.0
6714,69.0,15,14,4.0,100.0
6715,70.0,0,14,4.0,100.0
6716,67.0,0,14,6.0,100.0
6717,66.0,15,14,6.0,100.0
6718,69.0,0,14,4.0,100.0
6719,70.0,15,14,4.0,100.0
6720,67.0,0,14,6.0,100.0
6721,69.0,15,14,6.0,100.0
6722,72.0,0,14,4.0,100.0
6723,60.0,0,59,5.0,100.0
6724,57.0,15,59,5.0,100.0
6725,74.0,0,14,4.0,100.0
6726,70.0,0,29,6.0,100.0
6727,67.0,15,14,4.0,100.0
6728,69.0,15,14,4.0,100.0
6729,58.0,0,59,5.0,100.0
6730,74.0,0,29,6.0,100.0
6731,55.0,15,59,5.0,100.0
6732,70.0,15,14,4.0,100.0
6733,72.0,0,14,4.0,100.0
6734,74.0,15,14,4.0,100.0
6735,67.0,15,29,6.0,100.0
6736,66.0,0,14,8.0,100.0
6737,67.0,0,14,8.0,100.0
6738,76.0,15,14,4.0,100.0
6739,70.0,0,29,6.0,100.0
6740,78.0,15,14,4.0,100.0
6741,69.0,0,14,8.0,100.0
6742,58.0,0,59,5.0,100.0
6743,50.0,0,59,5.0,100.0
6744,79.0,0,14,4.0,100.0
6745,70.0,15,14,8.0,100.0
6746,78.0,15,14,4.0,100.0
6747,74.0,0,29,6.0,100.0
6748,69.0,0,14,8.0,100.0
6749,79.0,15,14,4.0,100.0
6750,70.0,0,14,8.0,100.0
6751,78.0,0,29,6.0,100.0
6752,57.0,0,59,5.0,100.0
6753,81.0,15,14,4.0,100.0
6754,72.0,0,14,8.0,100.0
6755,48.0,0,59,5.0,100.0
6756,55.0,0,29,5.0,100.0
6757,82.0,0,29,4.0,100.0
6758,50.0,0,29,5.0,100.0
6759,46.0,0,29,5.0,100.0
6760,48.0,0,29,5.0,100.0
6761,79.0,30,29,4.0,100.0
6762,74.0,15,59,8.0,100.0
6763,79.0,0,59,6.0,100.0
6764,74.0,0,29,4.0,100.0
6765,74.0,0,29,6.0,100.0
6766,69.0,0,59,8.0,100.0
6767,67.0,0,59,8.0,100.0
6768,62.0,0,59,8.0,100.0
6769,50.0,0,59,10.0,100.0
6770,69.0,0,59,2.0,56.0
6771,74.0,30,59,0.0,90.0
6772,50.0,0,59,3.0,90.0
6773,62.0,0,59,7.0,100.0
6774,75.0,0,29,6.0,100.0
6775,74.0,0,59,1.0,127.0
6776,50.0,0,59,5.0,100.0
6777,79.0,30,29,4.0,100.0
6778,74.0,0,29,6.0,100.0
6779,69.0,0,29,4.0,100.0
6780,78.0,0,59,0.0,90.0
6781,72.0,0,29,6.0,100.0
6782,72.0,0,59,2.0,56.0
6783,78.0,30,29,4.0,100.0
6784,57.0,0,59,8.0,100.0
6785,38.0,0,59,5.0,100.0
6786,74.0,0,59,1.0,127.0
6787,50.0,0,59,7.0,100.0
6788,38.0,0,59,3.0,90.0
6789,66.0,0,59,8.0,100.0
6790,38.0,0,59,10.0,100.0
6791,69.0,30,59,8.0,100.0
6792,70.0,0,19,6.0,100.0
6793,79.0,0,29,4.0,100.0
6794,58.0,30,29,8.0,100.0
6795,62.0,0,29,8.0,100.0
6796,67.0,0,29,8.0,100.0
6797,72.0,20,19,6.0,100.0
6798,43.0,0,59,5.0,100.0
6799,67.0,10,29,4.0,100.0
6800,70.0,10,19,6.0,100.0
6801,43.0,0,59,3.0,90.0
6802,62.0,0,29,8.0,100.0
6803,55.0,0,59,7.0,100.0
6804,43.0,0,59,10.0,100.0
6805,72.0,0,14,6.0,100.0
6806,67.0,0,29,8.0,100.0
6807,70.0,20,29,4.0,100.0
6808,70.0,15,14,6.0,100.0
6809,72.0,0,14,6.0,100.0
6810,67.0,0,59,7.0,100.0
6811,74.0,0,29,4.0,100.0
6812,70.0,15,29,8.0,100.0
6813,70.0,15,14,6.0,100.0
6814,55.0,0,59,3.0,90.0
6815,72.0,15,9,6.0,100.0
6816,70.0,10,9,6.0,100.0
6817,72.0,10,9,6.0,100.0
6818,70.0,0,29,4.0,100.0
6819,67.0,0,29,8.0,100.0
6820,70.0,0,9,6.0,100.0
6821,72.0,10,9,6.0,100.0
6822,74.0,0,179,1.0,127.0
6823,65.0,0,59,7.0,100.0
6824,53.0,0,59,3.0,90.0
6825,67.0,0,29,4.0,100.0
6826,70.0,10,9,6.0,100.0
6827,62.0,10,29,8.0,100.0
6828,72.0,0,9,6.0,100.0
6829,70.0,10,9,6.0,100.0
6830,67.0,0,29,8.0,100.0
6831,72.0,10,9,6.0,100.0
6832,70.0,10,9,6.0,100.0
6833,72.0,10,9,6.0,100.0
6834,52.0,0,59,3.0,90.0
6835,55.0,0,29,5.0,100.0
6836,70.0,10,9,6.0,100.0
6837,61.0,0,29,8.0,100.0
6838,64.0,0,59,7.0,100.0
6839,72.0,0,9,6.0,100.0
6840,70.0,10,9,6.0,100.0
6841,67.0,0,29,8.0,100.0
6842,72.0,10,9,6.0,100.0
6843,58.0,0,29,5.0,100.0
6844,70.0,0,9,6.0,100.0
6845,72.0,10,9,6.0,100.0
6846,70.0,10,9,6.0,100.0
6847,70.0,10,29,8.0,100.0
6848,62.0,0,29,5.0,100.0
6849,52.0,10,59,3.0,90.0
6850,64.0,0,59,7.0,100.0
6851,73.0,0,119,1.0,127.0
6852,72.0,0,9,6.0,100.0
6853,70.0,10,9,6.0,100.0
6854,72.0,10,9,6.0,100.0
6855,67.0,0,29,8.0,100.0
6856,58.0,10,29,5.0,100.0
6857,70.0,0,9,6.0,100.0
6858,72.0,10,9,6.0,100.0
6859,55.0,0,29,5.0,100.0
6860,50.0,0,59,3.0,90.0
6861,74.0,0,59,1.0,127.0
6862,62.0,10,29,8.0,100.0
6863,62.0,0,59,7.0,100.0
6864,79.0,0,359,0.0,90.0
6865,70.0,10,9,6.0,100.0
6866,72.0,0,9,6.0,100.0
6867,70.0,10,9,6.0,100.0
6868,72.0,10,9,6.0,100.0
6869,67.0,10,29,8.0,100.0
6870,79.0,10,210,4.0,100.0
6871,76.0,0,59,1.0,127.0
6872,69.0,0,29,0.0,90.0
6873,49.0,0,59,3.0,90.0
6874,64.0,0,59,5.0,100.0
6875,61.0,0,59,7.0,100.0
6876,62.0,0,29,8.0,100.0
6877,61.0,0,29,6.0,100.0
6878,69.0,10,29,4.0,100.0
6879,70.0,0,420,2.0,56.0
6880,64.0,0,29,6.0,100.0
6881,69.0,0,29,8.0,100.0
6882,73.0,30,29,0.0,90.0
6883,73.0,0,29,4.0,100.0
6884,57.0,0,59,7.0,100.0
6885,76.0,30,29,0.0,90.0
6886,57.0,0,59,5.0,100.0
6887,67.0,0,29,6.0,100.0
6888,76.0,0,29,4.0,100.0
6889,57.0,0,59,3.0,90.0
6890,73.0,0,29,8.0,100.0
6891,57.0,0,59,10.0,100.0
6892,69.0,0,29,8.0,100.0
6893,73.0,0,29,4.0,100.0
6894,73.0,0,29,0.0,90.0
6895,64.0,0,29,6.0,100.0
6896,55.0,0,59,3.0,90.0
6897,64.0,30,29,8.0,100.0
6898,55.0,0,59,5.0,100.0
6899,55.0,30,59,10.0,100.0
6900,69.0,0,29,0.0,90.0
6901,55.0,0,59,7.0,100.0
6902,61.0,0,29,6.0,100.0
6903,69.0,0,29,4.0,100.0
6904,69.0,0,29,8.0,100.0
6905,62.0,0,29,6.0,100.0
6906,53.0,0,59,5.0,100.0
6907,81.0,0,59,4.0,100.0
6908,53.0,0,59,10.0,100.0
6909,53.0,0,59,3.0,90.0
6910,81.0,0,59,0.0,90.0
6911,57.0,0,29,8.0,100.0
6912,53.0,30,59,7.0,100.0
6913,65.0,30,29,6.0,100.0
6914,61.0,0,29,8.0,100.0
6915,69.0,30,29,6.0,100.0
6916,53.0,0,59,3.0,90.0
6917,64.0,30,29,8.0,100.0
6918,61.0,0,29,6.0,100.0
6919,65.0,0,59,2.0,56.0
6920,53.0,0,59,5.0,100.0
6921,53.0,0,59,10.0,100.0
6922,69.0,0,59,1.0,127.0
6923,53.0,0,59,7.0,100.0
6924,81.0,0,59,0.0,90.0
6925,81.0,0,59,4.0,100.0
6926,64.0,0,29,6.0,100.0
6927,61.0,0,29,8.0,100.0
6928,73.0,0,59,1.0,127.0
6929,69.0,30,29,6.0,100.0
6930,67.0,0,59,2.0,56.0
6931,79.0,0,59,4.0,100.0
6932,52.0,0,59,5.0,100.0
6933,52.0,30,59,10.0,100.0
6934,57.0,0,29,8.0,100.0
6935,52.0,0,59,7.0,100.0
6936,79.0,0,59,0.0,90.0
6937,52.0,0,59,3.0,90.0
6938,77.0,0,20,4.0,100.0
6939,50.0,0,29,10.0,100.0
6940,57.0,0,29,6.0,100.0
6941,79.0,20,20,4.0,100.0
6942,50.0,0,59,3.0,90.0
6943,62.0,0,29,6.0,100.0
6944,57.0,10,29,10.0,100.0
6945,50.0,0,59,5.0,100.0
6946,77.0,10,20,4.0,100.0
6947,79.0,0,15,4.0,100.0
6948,62.0,20,29,10.0,100.0
6949,65.0,0,29,6.0,100.0
6950,77.0,15,15,4.0,100.0
6951,79.0,0,15,4.0,100.0
6952,65.0,0,29,10.0,100.0
6953,69.0,15,29,6.0,100.0
6954,62.0,0,59,5.0,100.0
6955,50.0,0,59,3.0,90.0
6956,50.0,30,119,7.0,100.0
6957,69.0,0,119,8.0,100.0
6958,77.0,15,15,4.0,100.0
6959,79.0,0,15,4.0,100.0
6960,65.0,0,29,6.0,100.0
6961,62.0,15,29,10.0,100.0
6962,77.0,15,15,4.0,100.0
6963,79.0,0,15,4.0,100.0
6964,62.0,15,29,6.0,100.0
6965,60.0,0,59,5.0,100.0
6966,69.0,0,179,2.0,56.0
6967,48.0,0,59,3.0,90.0
6968,57.0,0,29,10.0,100.0
6969,77.0,15,15,4.0,100.0
6970,79.0,0,9,4.0,100.0
6971,77.0,10,9,4.0,100.0
6972,62.0,0,29,10.0,100.0
6973,79.0,10,9,4.0,100.0
6974,77.0,10,9,4.0,100.0
6975,79.0,10,9,4.0,100.0
6976,56.0,0,29,10.0,100.0
6977,50.0,0,29,7.0,100.0
6978,47.0,15,59,3.0,90.0
6979,77.0,10,9,4.0,100.0
6980,59.0,0,59,5.0,100.0
6981,79.0,0,9,4.0,100.0
6982,77.0,10,9,4.0,100.0
6983,79.0,10,9,4.0,100.0
6984,53.0,0,29,7.0,100.0
6985,62.0,0,29,10.0,100.0
6986,77.0,10,9,4.0,100.0
6987,79.0,10,9,4.0,100.0
6988,77.0,10,9,4.0,100.0
6989,47.0,10,59,3.0,90.0
6990,57.0,0,29,7.0,100.0
6991,59.0,0,59,5.0,100.0
6992,68.0,0,119,2.0,56.0
6993,65.0,0,29,10.0,100.0
6994,79.0,0,9,4.0,100.0
6995,77.0,10,9,4.0,100.0
6996,62.0,0,29,10.0,100.0
6997,53.0,0,29,7.0,100.0
6998,79.0,10,9,4.0,100.0
6999,77.0,0,9,4.0,100.0
7000,79.0,10,9,4.0,100.0
7001,57.0,10,29,10.0,100.0
7002,45.0,0,59,3.0,90.0
7003,77.0,10,9,4.0,100.0
7004,69.0,10,59,2.0,56.0
7005,77.0,0,359,0.0,90.0
7006,57.0,0,59,5.0,100.0
7007,50.0,0,29,7.0,100.0
7008,79.0,0,14,4.0,100.0
7009,77.0,15,14,4.0,100.0
7010,74.0,0,210,6.0,100.0
7011,56.0,0,59,5.0,100.0
7012,59.0,15,29,8.0,100.0
7013,42.0,0,59,3.0,90.0
7014,68.0,0,29,4.0,100.0
7015,59.0,0,59,7.0,100.0
7016,62.0,0,59,10.0,100.0
7017,64.0,0,29,6.0,100.0
7018,64.0,0,29,0.0,90.0
7019,71.0,10,59,2.0,56.0
7020,74.0,0,420,1.0,127.0
7021,68.0,0,29,6.0,100.0
7022,64.0,0,29,8.0,100.0
7023,71.0,0,29,4.0,100.0
7024,68.0,0,29,0.0,90.0
7025,52.0,0,59,5.0,100.0
7026,71.0,0,29,6.0,100.0
7027,68.0,0,29,8.0,100.0
7028,52.0,30,59,10.0,100.0
7029,52.0,0,59,7.0,100.0
7030,71.0,0,29,0.0,90.0
7031,52.0,0,59,3.0,90.0
7032,74.0,30,29,4.0,100.0
7033,68.0,0,29,6.0,100.0
7034,68.0,0,29,0.0,90.0
7035,71.0,0,29,4.0,100.0
7036,64.0,30,29,8.0,100.0
7037,50.0,0,59,7.0,100.0
7038,68.0,0,29,4.0,100.0
7039,64.0,0,29,6.0,100.0
7040,59.0,0,29,8.0,100.0
7041,50.0,0,59,3.0,90.0
7042,64.0,30,29,0.0,90.0
7043,50.0,0,59,10.0,100.0
7044,50.0,0,59,5.0,100.0
7045,64.0,0,29,8.0,100.0
7046,69.0,0,29,4.0,100.0
7047,49.0,0,59,5.0,100.0
7048,64.0,30,29,8.0,100.0
7049,76.0,0,59,6.0,100.0
7050,49.0,0,59,3.0,90.0
7051,49.0,0,59,10.0,100.0
7052,76.0,0,59,0.0,90.0
7053,49.0,30,59,7.0,100.0
7054,73.0,0,29,4.0,100.0
7055,76.0,0,29,4.0,100.0
7056,68.0,0,29,8.0,100.0
7057,64.0,0,59,1.0,127.0
7058,49.0,0,59,10.0,100.0
7059,61.0,0,59,2.0,56.0
7060,49.0,30,59,3.0,90.0
7061,71.0,0,29,8.0,100.0
7062,49.0,0,59,5.0,100.0
7063,68.0,30,29,4.0,100.0
7064,76.0,0,59,6.0,100.0
7065,76.0,0,59,0.0,90.0
7066,49.0,0,59,7.0,100.0
7067,71.0,0,29,4.0,100.0
7068,68.0,0,29,8.0,100.0
7069,47.0,0,59,3.0,90.0
7070,47.0,30,59,7.0,100.0
7071,47.0,0,59,5.0,100.0
7072,74.0,0,59,6.0,100.0
7073,47.0,0,59,10.0,100.0
7074,68.0,0,59,1.0,127.0
7075,62.0,0,59,2.0,56.0
7076,74.0,0,59,0.0,90.0
7077,64.0,30,29,8.0,100.0
7078,76.0,0,29,4.0,100.0
7079,73.0,30,29,6.0,100.0
7080,76.0,0,29,8.0,100.0
7081,69.0,30,29,6.0,100.0
7082,45.0,0,59,3.0,90.0
7083,45.0,0,59,10.0,100.0
7084,69.0,0,59,1.0,127.0
7085,64.0,0,59,2.0,56.0
7086,64.0,0,59,4.0,100.0
7087,45.0,0,59,5.0,100.0
7088,73.0,0,59,0.0,90.0
7089,45.0,0,59,7.0,100.0
7090,73.0,0,29,8.0,100.0
7091,72.0,30,29,6.0,100.0
7092,69.0,0,29,8.0,100.0
7093,57.0,0,59,10.0,100.0
7094,76.0,30,29,6.0,100.0
7095,64.0,0,59,7.0,100.0
7096,72.0,0,29,8.0,100.0
7097,57.0,0,59,3.0,90.0
7098,81.0,30,29,6.0,100.0
7099,76.0,0,29,8.0,100.0
7100,62.0,0,59,7.0,100.0
7101,55.0,0,59,3.0,90.0
7102,72.0,0,119,4.0,100.0
7103,57.0,0,59,5.0,100.0
7104,55.0,0,59,10.0,100.0
7105,79.0,0,29,6.0,100.0
7106,81.0,30,29,8.0,100.0
7107,70.0,15,14,4.0,100.0
7108,72.0,0,29,8.0,100.0
7109,57.0,0,30,7.0,100.0
7110,69.0,0,14,4.0,100.0
7111,78.0,15,29,8.0,100.0
7112,54.0,0,59,10.0,100.0
7113,69.0,0,59,1.0,127.0
7114,54.0,0,59,3.0,90.0
7115,62.0,0,59,2.0,56.0
7116,50.0,0,59,5.0,100.0
7117,67.0,15,14,4.0,100.0
7118,72.0,0,59,0.0,90.0
7119,60.0,0,30,7.0,100.0
7120,66.0,0,14,4.0,100.0
7121,69.0,0,29,8.0,100.0
7122,64.0,15,14,4.0,100.0
7123,57.0,0,30,7.0,100.0
7124,50.0,0,59,3.0,90.0
7125,54.0,15,59,5.0,100.0
7126,62.0,0,29,4.0,100.0
7127,72.0,0,29,8.0,100.0
7128,57.0,0,59,10.0,100.0
7129,54.0,15,30,7.0,100.0
7130,74.0,30,29,4.0,100.0
7131,78.0,0,29,8.0,100.0
7132,50.0,0,30,7.0,100.0
7133,72.0,0,29,4.0,100.0
7134,50.0,0,59,10.0,100.0
7135,81.0,30,29,8.0,100.0
7136,57.0,0,59,5.0,100.0
7137,54.0,0,30,7.0,100.0
7138,71.0,0,29,8.0,100.0
7139,81.0,30,210,6.0,100.0
7140,67.0,30,29,6.0,100.0
7141,62.0,0,59,2.0,56.0
7142,55.0,30,59,7.0,100.0
7143,74.0,0,29,8.0,100.0
7144,43.0,0,59,10.0,100.0
7145,71.0,0,59,4.0,100.0
7146,67.0,0,59,1.0,127.0
7147,50.0,0,59,5.0,100.0
7148,71.0,0,59,0.0,90.0
7149,70.0,0,29,6.0,100.0
7150,67.0,30,29,8.0,100.0
7151,55.0,0,59,3.0,90.0
7152,55.0,0,59,10.0,100.0
7153,74.0,30,29,6.0,100.0
7154,62.0,0,59,7.0,100.0
7155,55.0,0,59,5.0,100.0
7156,70.0,0,29,8.0,100.0
7157,74.0,30,29,8.0,100.0
7158,79.0,0,29,6.0,100.0
7159,79.0,0,29,8.0,100.0
7160,58.0,0,59,7.0,100.0
7161,77.0,30,29,6.0,100.0
7162,53.0,0,59,3.0,90.0
7163,58.0,0,59,5.0,100.0
7164,53.0,0,59,10.0,100.0
7165,70.0,0,135,4.0,100.0
7166,55.0,0,29,7.0,100.0
7167,69.0,15,14,4.0,100.0
7168,70.0,0,29,8.0,100.0
7169,67.0,0,14,4.0,100.0
7170,76.0,15,29,8.0,100.0
7171,65.0,15,14,4.0,100.0
7172,58.0,0,29,7.0,100.0
7173,52.0,0,59,3.0,90.0
7174,48.0,0,59,5.0,100.0
7175,60.0,0,59,2.0,56.0
7176,52.0,0,59,10.0,100.0
7177,70.0,30,59,0.0,90.0
7178,67.0,0,59,1.0,127.0
7179,64.0,0,14,4.0,100.0
7180,62.0,15,14,4.0,100.0
7181,67.0,0,29,8.0,100.0
7182,55.0,0,29,7.0,100.0
7183,70.0,15,29,8.0,100.0
7184,55.0,15,59,10.0,100.0
7185,48.0,0,59,3.0,90.0
7186,60.0,0,29,4.0,100.0
7187,52.0,0,59,5.0,100.0
7188,52.0,0,29,7.0,100.0
7189,72.0,0,29,4.0,100.0
7190,76.0,0,29,8.0,100.0
7191,48.0,0,29,7.0,100.0
7192,52.0,0,29,7.0,100.0
7193,48.0,0,59,10.0,100.0
7194,70.0,30,29,4.0,100.0
7195,55.0,30,59,5.0,100.0
7196,79.0,0,29,8.0,100.0
7197,69.0,0,29,8.0,100.0
7198,79.0,0,210,6.0,100.0
7199,53.0,0,59,7.0,100.0
7200,69.0,0,59,0.0,90.0
7201,60.0,30,59,2.0,56.0
7202,41.0,0,59,10.0,100.0
7203,69.0,0,59,4.0,100.0
7204,65.0,0,59,1.0,127.0
7205,72.0,0,29,8.0,100.0
7206,48.0,0,59,5.0,100.0
7207,65.0,30,29,6.0,100.0
7208,69.0,0,29,6.0,100.0
7209,65.0,30,29,8.0,100.0
7210,69.0,30,29,8.0,100.0
7211,72.0,0,29,6.0,100.0
7212,60.0,0,59,7.0,100.0
7213,53.0,0,59,3.0,90.0
7214,53.0,0,59,5.0,100.0
7215,53.0,0,59,10.0,100.0
7216,77.0,0,29,6.0,100.0
7217,72.0,0,29,8.0,100.0
7218,76.0,30,29,6.0,100.0
7219,77.0,0,29,8.0,100.0
7220,57.0,0,59,5.0,100.0
7221,52.0,30,59,3.0,90.0
7222,52.0,0,59,10.0,100.0
7223,57.0,0,59,7.0,100.0
7224,81.0,0,135,4.0,100.0
7225,53.0,30,29,7.0,100.0
7226,69.0,0,29,8.0,100.0
7227,79.0,15,14,4.0,100.0
7228,77.0,0,14,4.0,100.0
7229,50.0,0,59,3.0,90.0
7230,74.0,15,29,8.0,100.0
7231,77.0,0,59,1.0,127.0
7232,76.0,15,14,4.0,100.0
7233,46.0,0,59,5.0,100.0
7234,50.0,0,59,10.0,100.0
7235,62.0,0,59,2.0,56.0
7236,81.0,0,59,0.0,90.0
7237,57.0,0,29,7.0,100.0
7238,74.0,15,14,4.0,100.0
7239,53.0,0,29,7.0,100.0
7240,65.0,0,29,8.0,100.0
7241,72.0,15,14,4.0,100.0
7242,70.0,0,29,4.0,100.0
7243,69.0,0,29,8.0,100.0
7244,50.0,0,59,5.0,100.0
7245,46.0,0,59,3.0,90.0
7246,53.0,0,59,10.0,100.0
7247,50.0,15,29,7.0,100.0
7248,74.0,30,29,8.0,100.0
7249,82.0,0,29,4.0,100.0
7250,46.0,0,29,7.0,100.0
7251,46.0,0,59,10.0,100.0
7252,81.0,0,29,4.0,100.0
7253,77.0,30,29,8.0,100.0
7254,50.0,0,29,7.0,100.0
7255,53.0,0,59,5.0,100.0
7256,67.0,0,29,8.0,100.0
7257,77.0,0,210,6.0,100.0
7258,70.0,30,29,8.0,100.0
7259,79.0,0,59,0.0,90.0
7260,52.0,0,59,7.0,100.0
7261,67.0,0,59,2.0,56.0
7262,40.0,0,59,10.0,100.0
7263,46.0,0,59,5.0,100.0
7264,76.0,0,59,1.0,127.0
7265,64.0,0,29,6.0,100.0
7266,64.0,30,29,8.0,100.0
7267,67.0,0,29,6.0,100.0
7268,52.0,0,59,3.0,90.0
7269,58.0,0,59,7.0,100.0
7270,70.0,0,29,6.0,100.0
7271,52.0,0,59,10.0,100.0
7272,67.0,30,29,8.0,100.0
7273,52.0,0,59,5.0,100.0
7274,70.0,0,29,8.0,100.0
7275,76.0,0,29,6.0,100.0
7276,50.0,30,59,10.0,100.0
7277,76.0,30,29,8.0,100.0
7278,55.0,0,59,7.0,100.0
7279,55.0,0,59,5.0,100.0
7280,74.0,0,29,6.0,100.0
7281,50.0,0,59,3.0,90.0
7282,79.0,30,195,4.0,100.0
7283,77.0,15,14,4.0,100.0
7284,76.0,0,29,6.0,100.0
7285,67.0,0,29,8.0,100.0
7286,76.0,0,14,4.0,100.0
7287,45.0,0,59,5.0,100.0
7288,76.0,0,59,1.0,127.0
7289,81.0,15,29,6.0,100.0
7290,79.0,0,59,0.0,90.0
7291,52.0,0,59,7.0,100.0
7292,49.0,30,59,3.0,90.0
7293,73.0,0,29,8.0,100.0
7294,69.0,0,59,2.0,56.0
7295,49.0,0,59,10.0,100.0
7296,74.0,15,14,4.0,100.0
7297,73.0,15,14,4.0,100.0
7298,76.0,0,29,6.0,100.0
7299,71.0,15,14,4.0,100.0
7300,64.0,0,29,8.0,100.0
7301,73.0,15,29,6.0,100.0
7302,45.0,0,59,3.0,90.0
7303,52.0,0,59,10.0,100.0
7304,67.0,0,29,8.0,100.0
7305,55.0,0,59,7.0,100.0
7306,49.0,0,59,5.0,100.0
7307,69.0,0,29,4.0,100.0
7308,81.0,0,29,4.0,100.0
7309,69.0,0,29,6.0,100.0
7310,73.0,0,29,8.0,100.0
7311,76.0,30,29,8.0,100.0
7312,45.0,0,59,10.0,100.0
7313,52.0,30,59,5.0,100.0
7314,79.0,0,29,4.0,100.0
7315,73.0,0,29,6.0,100.0
7316,57.0,0,59,7.0,100.0
7317,77.0,0,29,4.0,100.0
7318,74.0,30,29,4.0,100.0
7319,38.0,0,59,7.0,100.0
7320,69.0,0,59,2.0,56.0
7321,74.0,0,59,8.0,100.0
7322,38.0,0,59,10.0,100.0
7323,50.0,0,59,7.0,100.0
7324,74.0,30,59,6.0,100.0
7325,74.0,0,59,1.0,127.0
7326,38.0,0,59,5.0,100.0
7327,77.0,0,59,0.0,90.0
7328,73.0,0,29,4.0,100.0
7329,74.0,30,29,4.0,100.0
7330,50.0,30,59,5.0,100.0
7331,79.0,30,29,4.0,100.0
7332,52.0,0,59,5.0,100.0
7333,74.0,30,29,4.0,100.0
7334,81.0,30,29,4.0,100.0
7335,74.0,30,29,4.0,100.0
7336,50.0,0,59,10.0,100.0
7337,53.0,0,59,5.0,100.0
7338,69.0,0,59,8.0,100.0
7339,77.0,0,59,8.0,100.0
7340,74.0,0,59,8.0,100.0
7341,65.0,0,59,6.0,100.0
7342,74.0,0,59,6.0,100.0
7343,79.0,0,29,4.0,100.0
7344,76.0,0,59,6.0,100.0
7345,67.0,30,59,6.0,100.0
7346,74.0,30,29,4.0,100.0
7347,52.0,0,59,5.0,100.0
7348,77.0,0,29,4.0,100.0
7349,74.0,30,29,4.0,100.0
7350,69.0,0,59,6.0,100.0
7351,77.0,30,59,6.0,100.0
7352,50.0,0,59,5.0,100.0
7353,79.0,0,29,4.0,100.0
7354,67.0,30,59,2.0,56.0
7355,73.0,0,59,1.0,127.0
7356,38.0,0,59,7.0,100.0
7357,50.0,0,59,7.0,100.0
7358,74.0,30,29,4.0,100.0
7359,76.0,0,59,0.0,90.0
7360,73.0,0,29,4.0,100.0
7361,74.0,30,29,4.0,100.0
7362,52.0,30,59,5.0,100.0
7363,81.0,0,29,4.0,100.0
7364,53.0,30,59,5.0,100.0
7365,74.0,30,29,4.0,100.0
7366,82.0,0,29,4.0,100.0
7367,74.0,30,29,4.0,100.0
7368,67.0,0,59,8.0,100.0
7369,73.0,0,59,8.0,100.0
7370,76.0,0,59,8.0,100.0
7371,55.0,0,59,5.0,100.0
7372,50.0,30,59,10.0,100.0
7373,67.0,0,59,6.0,100.0
7374,76.0,0,59,6.0,100.0
7375,81.0,0,29,4.0,100.0
7376,74.0,30,29,4.0,100.0
7377,53.0,0,59,5.0,100.0
7378,69.0,30,59,6.0,100.0
7379,77.0,0,59,6.0,100.0
7380,79.0,0,29,4.0,100.0
7381,74.0,30,29,4.0,100.0
7382,52.0,0,59,5.0,100.0
7383,70.0,30,59,6.0,100.0
7384,79.0,0,59,6.0,100.0
7385,81.0,0,29,4.0,100.0
7386,74.0,30,29,4.0,100.0
7387,38.0,0,59,7.0,100.0
7388,69.0,0,59,1.0,127.0
7389,65.0,0,59,2.0,56.0
7390,74.0,30,59,0.0,90.0
7391,50.0,0,59,7.0,100.0
7392,73.0,0,29,4.0,100.0
7393,53.0,30,59,5.0,100.0
7394,74.0,30,29,4.0,100.0
7395,82.0,0,29,4.0,100.0
7396,55.0,30,59,5.0,100.0
7397,74.0,30,29,4.0,100.0
7398,84.0,0,29,4.0,100.0
7399,69.0,30,59,6.0,100.0
7400,57.0,0,59,5.0,100.0
7401,69.0,0,59,8.0,100.0
7402,74.0,0,59,8.0,100.0
7403,50.0,0,59,10.0,100.0
7404,74.0,30,29,4.0,100.0
7405,78.0,0,59,6.0,100.0
7406,66.0,0,59,8.0,100.0
7407,82.0,0,29,4.0,100.0
7408,74.0,30,29,4.0,100.0
7409,55.0,30,59,5.0,100.0
7410,79.0,0,59,6.0,100.0
7411,70.0,0,59,6.0,100.0
7412,81.0,30,29,4.0,100.0
7413,81.0,0,59,6.0,100.0
7414,72.0,0,59,6.0,100.0
7415,74.0,30,29,4.0,100.0
7416,54.0,0,59,5.0,100.0
7417,38.0,0,1080,3.0,90.0
7418,82.0,0,14,4.0,100.0
7419,79.0,15,14,4.0,100.0
7420,74.0,15,14,4.0,100.0
7421,79.0,0,59,6.0,100.0
7422,74.0,0,59,6.0,100.0
7423,70.0,0,59,6.0,100.0
7424,43.0,0,59,7.0,100.0
7425,67.0,0,59,2.0,56.0
7426,55.0,30,59,5.0,100.0
7427,70.0,15,14,4.0,80.0
7428,70.0,0,59,1.0,127.0
7429,43.0,0,59,3.0,90.0
7430,74.0,0,59,0.0,90.0
7431,67.0,0,14,4.0,100.0
7432,70.0,15,14,4.0,100.0
7433,74.0,15,14,4.0,100.0
7434,70.0,0,59,1.0,127.0
7435,67.0,0,59,2.0,56.0
7436,55.0,15,59,3.0,90.0
7437,74.0,0,59,0.0,90.0
7438,79.0,15,14,4.0,100.0
7439,82.0,0,14,4.0,100.0
7440,86.0,15,14,4.0,100.0
7441,82.0,15,14,4.0,100.0
7442,74.0,0,59,0.0,90.0
7443,67.0,0,59,2.0,56.0
7444,79.0,15,14,4.0,100.0
7445,70.0,15,59,1.0,127.0
7446,81.0,0,14,4.0,100.0
7447,77.0,15,14,4.0,100.0
7448,74.0,15,14,4.0,100.0
7449,69.0,15,14,4.0,100.0
7450,69.0,0,59,1.0,127.0
7451,62.0,0,59,2.0,56.0
7452,41.0,0,59,3.0,90.0
7453,74.0,15,59,0.0,90.0
7454,65.0,0,14,4.0,100.0
7455,69.0,15,14,4.0,100.0
7456,74.0,15,14,4.0,100.0
7457,53.0,15,59,3.0,90.0
7458,74.0,0,59,0.0,90.0
7459,69.0,0,59,1.0,127.0
7460,77.0,15,14,4.0,100.0
7461,62.0,0,59,2.0,56.0
7462,81.0,0,14,4.0,100.0
7463,86.0,15,14,4.0,100.0
7464,81.0,15,14,4.0,100.0
7465,69.0,0,59,1.0,127.0
7466,74.0,0,59,0.0,90.0
7467,62.0,15,59,2.0,56.0
7468,77.0,15,14,4.0,100.0
7469,79.0,15,14,4.0,100.0
7470,76.0,15,14,4.0,100.0
7471,73.0,15,14,4.0,100.0
7472,73.0,0,59,0.0,90.0
7473,67.0,0,59,1.0,127.0
7474,40.0,0,59,3.0,90.0
7475,69.0,15,14,4.0,100.0
7476,64.0,0,59,2.0,56.0
7477,64.0,0,14,4.0,100.0
7478,69.0,15,14,4.0,100.0
7479,73.0,15,14,4.0,100.0
7480,64.0,0,59,2.0,56.0
7481,76.0,15,14,4.0,100.0
7482,67.0,0,59,1.0,127.0
7483,73.0,15,59,0.0,90.0
7484,52.0,0,59,3.0,90.0
7485,79.0,15,14,4.0,100.0
7486,82.0,15,14,4.0,100.0
7487,79.0,15,14,4.0,100.0
7488,76.0,15,14,4.0,100.0
7489,73.0,0,59,0.0,90.0
7490,67.0,0,59,1.0,127.0
7491,64.0,0,59,2.0,56.0
7492,77.0,0,14,4.0,100.0
7493,81.0,15,14,4.0,100.0
7494,77.0,15,14,4.0,100.0
7495,74.0,15,14,4.0,100.0
7496,38.0,0,59,3.0,90.0
7497,65.0,0,59,1.0,127.0
7498,57.0,0,59,2.0,56.0
7499,74.0,15,59,0.0,90.0
7500,76.0,0,14,4.0,100.0
7501,79.0,15,14,4.0,100.0
7502,76.0,15,14,4.0,100.0
7503,50.0,15,59,3.0,90.0
7504,73.0,15,14,4.0,100.0
7505,74.0,15,14,4.0,100.0
7506,77.0,15,14,4.0,100.0
7507,74.0,15,14,4.0,100.0
7508,69.0,15,14,4.0,100.0
7509,70.0,15,14,4.0,100.0
7510,67.0,15,14,4.0,100.0
7511,65.0,15,14,4.0,100.0
7512,64.0,15,14,4.0,100.0
7513,69.0,15,14,4.0,100.0
7514,65.0,15,14,4.0,100.0
7515,64.0,15,14,4.0,100.0
7516,62.0,15,14,4.0,100.0
7517,67.0,15,14,4.0,100.0
7518,64.0,15,14,4.0,100.0
7519,62.0,15,14,4.0,100.0
7520,61.0,15,14,4.0,100.0
7521,65.0,15,14,4.0,100.0
7522,62.0,15,14,4.0,100.0
7523,60.0,15,14,4.0,100.0
7524,58.0,15,14,4.0,100.0
7525,57.0,15,14,5.0,100.0
7526,55.0,15,14,5.0,100.0
7527,53.0,15,14,5.0,100.0
7528,52.0,15,14,5.0,100.0
7529,50.0,15,14,5.0,100.0
7530,48.0,15,14,5.0,100.0
7531,47.0,15,14,5.0,100.0
7532,45.0,15,14,5.0,100.0
7533,44.0,0,14,5.0,100.0
7534,47.0,15,14,5.0,100.0
7535,50.0,15,14,5.0,100.0
7536,53.0,15,14,5.0,100.0
7537,59.0,15,14,4.0,100.0
7538,62.0,15,14,4.0,100.0
7539,65.0,15,14,4.0,100.0
7540,68.0,15,14,4.0,100.0
7541,62.0,15,14,4.0,100.0
7542,65.0,15,14,4.0,100.0
7543,59.0,15,14,4.0,100.0
7544,62.0,15,14,4.0,100.0
7545,56.0,15,14,4.0,100.0
7546,59.0,15,14,4.0,100.0
7547,62.0,15,14,4.0,100.0
7548,65.0,15,14,4.0,100.0
7549,68.0,15,14,4.0,100.0
7550,71.0,15,14,4.0,100.0
7551,74.0,15,14,4.0,100.0
7552,77.0,15,14,4.0,100.0
7553,83.0,15,14,4.0,100.0
7554,77.0,15,14,4.0,100.0
7555,76.0,15,14,4.0,100.0
7556,74.0,0,359,1.0,127.0
7557,74.0,0,359,0.0,90.0
7558,44.0,0,359,3.0,90.0
7559,74.0,15,14,4.0,100.0
7560,65.0,15,360,2.0,56.0
7561,73.0,0,29,4.0,100.0
7562,69.0,15,59,1.0,127.0
7563,73.0,0,59,0.0,90.0
7564,45.0,0,59,10.0,100.0
7565,64.0,0,59,2.0,56.0
7566,57.0,0,59,10.0,100.0
7567,69.0,30,29,4.0,100.0
7568,68.0,0,29,4.0,100.0
7569,57.0,30,59,5.0,100.0
7570,69.0,30,29,4.0,100.0
7571,74.0,0,29,4.0,100.0
7572,69.0,30,29,4.0,100.0
7573,59.0,30,59,5.0,100.0
7574,76.0,0,29,4.0,100.0
7575,57.0,0,59,7.0,100.0
7576,73.0,0,59,6.0,100.0
7577,69.0,0,59,6.0,100.0
7578,64.0,0,59,6.0,100.0
7579,67.0,0,59,8.0,100.0
7580,76.0,0,59,8.0,100.0
7581,69.0,30,29,4.0,100.0
7582,61.0,30,59,5.0,100.0
7583,74.0,0,29,4.0,100.0
7584,77.0,30,59,8.0,100.0
7585,59.0,0,59,5.0,100.0
7586,69.0,30,29,4.0,100.0
7587,69.0,0,59,8.0,100.0
7588,73.0,0,29,4.0,100.0
7589,70.0,0,59,8.0,100.0
7590,79.0,0,59,8.0,100.0
7591,57.0,30,59,5.0,100.0
7592,69.0,30,29,4.0,100.0
7593,74.0,0,29,4.0,100.0
7594,45.0,0,59,10.0,100.0
7595,69.0,0,59,1.0,127.0
7596,57.0,0,59,10.0,100.0
7597,74.0,30,59,0.0,90.0
7598,65.0,0,59,2.0,56.0
7599,69.0,30,29,4.0,100.0
7600,68.0,0,29,4.0,100.0
7601,59.0,30,59,5.0,100.0
7602,69.0,30,29,4.0,100.0
7603,76.0,0,29,4.0,100.0
7604,69.0,30,29,4.0,100.0
7605,61.0,30,59,5.0,100.0
7606,77.0,0,29,4.0,100.0
7607,65.0,0,59,6.0,100.0
7608,62.0,0,59,5.0,100.0
7609,57.0,0,59,7.0,100.0
7610,74.0,0,59,6.0,100.0
7611,65.0,30,59,8.0,100.0
7612,69.0,0,59,6.0,100.0
7613,74.0,0,59,8.0,100.0
7614,69.0,30,29,4.0,100.0
7615,76.0,0,29,4.0,100.0
7616,76.0,30,59,8.0,100.0
7617,67.0,0,59,8.0,100.0
7618,61.0,0,59,5.0,100.0
7619,69.0,30,29,4.0,100.0
7620,74.0,30,29,4.0,100.0
7621,69.0,0,59,8.0,100.0
7622,59.0,0,59,5.0,100.0
7623,77.0,0,59,8.0,100.0
7624,69.0,30,29,4.0,100.0
7625,76.0,0,29,4.0,100.0
7626,69.0,30,29,4.0,100.0
7627,76.0,0,59,0.0,90.0
7628,69.0,0,59,1.0,127.0
7629,57.0,0,59,10.0,100.0
7630,45.0,0,59,10.0,100.0
7631,61.0,30,59,2.0,56.0
7632,68.0,0,29,4.0,100.0
7633,61.0,30,59,5.0,100.0
7634,69.0,30,29,4.0,100.0
7635,77.0,30,29,4.0,100.0
7636,69.0,30,29,4.0,100.0
7637,62.0,0,59,5.0,100.0
7638,79.0,0,29,4.0,100.0
7639,76.0,0,59,6.0,100.0
7640,73.0,30,59,8.0,100.0
7641,69.0,30,29,4.0,100.0
7642,57.0,0,59,7.0,100.0
7643,69.0,0,59,6.0,100.0
7644,64.0,0,59,5.0,100.0
7645,64.0,0,59,8.0,100.0
7646,73.0,0,59,6.0,100.0
7647,77.0,30,29,4.0,100.0
7648,69.0,30,29,4.0,100.0
7649,62.0,0,59,5.0,100.0
7650,65.0,0,59,8.0,100.0
7651,74.0,0,59,8.0,100.0
7652,76.0,0,29,4.0,100.0
7653,61.0,30,59,5.0,100.0
7654,69.0,30,29,4.0,100.0
7655,67.0,0,59,8.0,100.0
7656,76.0,0,59,8.0,100.0
7657,45.0,0,1080,3.0,90.0
7658,77.0,0,14,4.0,100.0
7659,73.0,15,14,4.0,100.0
7660,62.0,0,45,5.0,100.0
7661,74.0,15,29,4.0,100.0
7662,69.0,15,14,5.0,100.0
7663,45.0,0,59,3.0,90.0
7664,62.0,0,59,2.0,56.0
7665,77.0,30,59,0.0,90.0
7666,69.0,0,59,1.0,127.0
7667,81.0,0,14,4.0,100.0
7668,73.0,15,14,4.0,100.0
7669,65.0,0,45,5.0,100.0
7670,45.0,0,59,3.0,90.0
7671,74.0,15,59,6.0,100.0
7672,74.0,15,29,4.0,100.0
7673,69.0,0,59,6.0,100.0
7674,57.0,0,59,7.0,100.0
7675,69.0,15,14,5.0,100.0
7676,65.0,0,59,6.0,100.0
7677,77.0,15,14,4.0,100.0
7678,73.0,15,14,4.0,100.0
7679,62.0,0,45,5.0,100.0
7680,69.0,0,59,8.0,100.0
7681,45.0,0,59,3.0,90.0
7682,74.0,15,29,4.0,100.0
7683,62.0,0,59,8.0,100.0
7684,69.0,15,14,5.0,100.0
7685,45.0,0,59,10.0,100.0
7686,65.0,0,59,8.0,100.0
7687,76.0,0,14,4.0,100.0
7688,70.0,15,14,4.0,100.0
7689,67.0,0,45,5.0,100.0
7690,73.0,15,29,4.0,100.0
7691,73.0,15,59,1.0,127.0
7692,45.0,0,59,3.0,90.0
7693,69.0,15,14,5.0,100.0
7694,76.0,0,59,0.0,90.0
7695,67.0,0,59,2.0,56.0
7696,79.0,0,14,4.0,100.0
7697,70.0,15,14,4.0,100.0
7698,64.0,0,45,5.0,100.0
7699,64.0,15,59,6.0,100.0
7700,69.0,0,59,6.0,100.0
7701,73.0,0,59,6.0,100.0
7702,73.0,15,29,4.0,100.0
7703,45.0,0,59,3.0,90.0
7704,69.0,15,14,5.0,100.0
7705,57.0,0,59,7.0,100.0
7706,76.0,0,14,4.0,100.0
7707,70.0,15,14,4.0,100.0
7708,67.0,0,45,5.0,100.0
7709,73.0,15,29,4.0,100.0
7710,69.0,15,14,5.0,100.0
7711,67.0,0,59,8.0,100.0
7712,61.0,0,59,8.0,100.0
7713,45.0,15,59,3.0,90.0
7714,64.0,0,59,8.0,100.0
7715,45.0,0,59,10.0,100.0
7716,74.0,0,14,4.0,100.0
7717,69.0,15,14,4.0,100.0
7718,65.0,15,45,5.0,100.0
7719,68.0,15,14,5.0,100.0
7720,71.0,0,59,1.0,127.0
7721,71.0,15,29,4.0,100.0
7722,74.0,0,59,0.0,90.0
7723,45.0,0,59,3.0,90.0
7724,65.0,0,59,2.0,56.0
7725,77.0,0,14,4.0,100.0
7726,69.0,15,14,4.0,100.0
7727,62.0,0,45,5.0,100.0
7728,45.0,0,59,3.0,90.0
7729,57.0,15,59,7.0,100.0
7730,71.0,0,59,6.0,100.0
7731,68.0,0,59,6.0,100.0
7732,62.0,0,59,6.0,100.0
7733,71.0,15,29,4.0,100.0
7734,68.0,15,14,5.0,100.0
7735,74.0,0,14,4.0,100.0
7736,69.0,15,14,4.0,100.0
7737,65.0,0,45,5.0,100.0
7738,62.0,15,59,8.0,100.0
7739,45.0,0,59,10.0,100.0
7740,71.0,15,29,4.0,100.0
7741,68.0,15,14,5.0,100.0
7742,57.0,0,59,8.0,100.0
7743,65.0,0,59,8.0,100.0
7744,45.0,0,59,3.0,90.0
7745,73.0,15,14,4.0,100.0
7746,68.0,15,14,4.0,100.0
7747,64.0,0,45,5.0,100.0
7748,73.0,0,59,0.0,90.0
7749,67.0,15,14,5.0,100.0
7750,69.0,15,29,4.0,100.0
7751,69.0,0,59,1.0,127.0
7752,64.0,0,59,2.0,56.0
7753,45.0,0,59,3.0,90.0
7754,76.0,0,14,4.0,100.0
7755,68.0,15,14,4.0,100.0
7756,61.0,0,45,5.0,100.0
7757,64.0,0,59,6.0,100.0
7758,69.0,0,59,6.0,100.0
7759,61.0,0,59,6.0,100.0
7760,69.0,15,29,4.0,100.0
7761,57.0,15,59,7.0,100.0
7762,67.0,15,14,5.0,100.0
7763,45.0,0,59,3.0,90.0
7764,73.0,0,14,4.0,100.0
7765,68.0,15,14,4.0,100.0
7766,64.0,0,45,5.0,100.0
7767,69.0,15,29,4.0,100.0
7768,45.0,0,59,3.0,90.0
7769,64.0,0,59,8.0,100.0
7770,61.0,0,59,8.0,100.0
7771,57.0,0,59,8.0,100.0
7772,45.0,15,59,10.0,100.0
7773,67.0,15,14,5.0,100.0
7774,71.0,0,14,4.0,100.0
7775,68.0,15,14,4.0,100.0
7776,62.0,0,45,5.0,100.0
7777,69.0,15,29,4.0,100.0
7778,65.0,15,14,5.0,100.0
7779,72.0,0,59,0.0,90.0
7780,62.0,0,59,2.0,56.0
7781,45.0,15,59,3.0,90.0
7782,68.0,0,59,1.0,127.0
7783,74.0,0,14,4.0,100.0
7784,68.0,15,14,4.0,100.0
7785,59.0,15,45,5.0,100.0
7786,69.0,15,29,4.0,100.0
7787,64.0,0,59,6.0,100.0
7788,45.0,0,59,3.0,90.0
7789,59.0,0,59,6.0,100.0
7790,68.0,0,59,6.0,100.0
7791,65.0,15,14,5.0,100.0
7792,57.0,0,59,7.0,100.0
7793,72.0,15,14,4.0,100.0
7794,68.0,15,14,4.0,100.0
7795,62.0,0,45,5.0,100.0
7796,65.0,15,14,5.0,100.0
7797,62.0,0,59,8.0,100.0
7798,59.0,0,59,8.0,100.0
7799,45.0,0,59,10.0,100.0
7800,45.0,0,59,3.0,90.0
7801,56.0,0,59,8.0,100.0
7802,69.0,15,29,4.0,100.0
7803,73.0,15,14,4.0,100.0
7804,69.0,15,14,4.0,100.0
7805,64.0,0,45,5.0,100.0
7806,70.0,15,29,4.0,100.0
7807,45.0,0,59,3.0,90.0
7808,73.0,0,59,0.0,90.0
7809,64.0,0,59,2.0,56.0
7810,67.0,0,59,1.0,127.0
7811,67.0,15,14,5.0,100.0
7812,76.0,0,14,4.0,100.0
7813,69.0,15,14,4.0,100.0
7814,61.0,0,45,5.0,100.0
7815,67.0,15,14,5.0,100.0
7816,57.0,0,59,7.0,100.0
7817,70.0,15,29,4.0,100.0
7818,45.0,0,59,3.0,90.0
7819,61.0,15,59,6.0,100.0
7820,67.0,0,59,6.0,100.0
7821,64.0,0,59,6.0,100.0
7822,73.0,0,14,4.0,100.0
7823,69.0,15,14,4.0,100.0
7824,57.0,0,45,5.0,100.0
7825,61.0,0,59,8.0,100.0
7826,70.0,15,29,4.0,100.0
7827,45.0,0,59,10.0,100.0
7828,64.0,15,59,8.0,100.0
7829,55.0,0,59,8.0,100.0
7830,45.0,0,59,3.0,90.0
7831,67.0,15,14,5.0,100.0
7832,74.0,0,14,4.0,100.0
7833,72.0,15,14,4.0,100.0
7834,70.0,15,14,4.0,100.0
7835,69.0,15,14,4.0,100.0
7836,46.0,0,59,3.0,90.0
7837,65.0,0,60,4.0,100.0
7838,58.0,0,60,4.0,100.0
7839,67.0,0,14,4.0,100.0
7840,65.0,15,14,4.0,100.0
7841,64.0,15,14,4.0,100.0
7842,58.0,0,59,7.0,100.0
7843,62.0,0,59,6.0,100.0
7844,65.0,0,59,6.0,100.0
7845,62.0,15,14,4.0,100.0
7846,46.0,15,59,3.0,90.0
7847,60.0,0,14,4.0,100.0
7848,58.0,15,14,4.0,100.0
7849,57.0,15,14,4.0,100.0
7850,46.0,0,59,3.0,90.0
7851,62.0,0,179,2.0,56.0
7852,74.0,0,59,6.0,100.0
7853,55.0,15,14,4.0,100.0
7854,77.0,15,59,8.0,100.0
7855,74.0,0,59,8.0,100.0
7856,46.0,0,59,7.0,100.0
7857,65.0,15,179,1.0,127.0
7858,46.0,0,59,10.0,100.0
7859,65.0,0,59,6.0,100.0
7860,74.0,0,180,0.0,90.0
7861,53.0,0,14,5.0,100.0
7862,52.0,15,14,5.0,100.0
7863,50.0,15,14,5.0,100.0
7864,47.0,0,59,10.0,100.0
7865,74.0,0,59,8.0,100.0
7866,68.0,0,59,8.0,100.0
7867,48.0,15,14,5.0,100.0
7868,47.0,0,59,3.0,90.0
7869,47.0,0,14,5.0,100.0
7870,45.0,15,14,5.0,100.0
7871,44.0,15,14,5.0,100.0
7872,68.0,0,59,6.0,100.0
7873,62.0,15,59,6.0,100.0
7874,47.0,0,59,3.0,90.0
7875,42.0,15,14,5.0,100.0
7876,59.0,0,59,7.0,100.0
7877,40.0,0,14,5.0,100.0
7878,53.0,15,14,5.0,100.0
7879,52.0,15,14,5.0,100.0
7880,50.0,15,14,5.0,100.0
7881,74.0,0,179,1.0,127.0
7882,47.0,0,59,10.0,100.0
7883,47.0,0,59,7.0,100.0
7884,74.0,0,59,8.0,100.0
7885,83.0,0,59,8.0,100.0
7886,47.0,15,59,3.0,90.0
7887,59.0,15,179,2.0,56.0
7888,68.0,0,59,6.0,100.0
7889,74.0,0,59,6.0,100.0
7890,80.0,0,59,8.0,100.0
7891,80.0,0,180,0.0,90.0
7892,49.0,0,14,5.0,100.0
7893,47.0,15,14,5.0,100.0
7894,45.0,15,14,5.0,100.0
7895,73.0,0,59,8.0,100.0
7896,61.0,0,59,2.0,56.0
7897,81.0,0,59,0.0,90.0
7898,76.0,0,59,1.0,127.0
7899,45.0,15,59,10.0,100.0
7900,45.0,0,59,3.0,90.0
7901,47.0,15,14,5.0,100.0
7902,76.0,0,59,8.0,100.0
7903,49.0,0,14,5.0,100.0
7904,50.0,15,14,5.0,100.0
7905,52.0,15,14,5.0,100.0
7906,73.0,0,59,6.0,100.0
7907,57.0,0,59,7.0,100.0
7908,69.0,0,59,6.0,100.0
7909,69.0,15,59,0.0,90.0
7910,64.0,0,59,6.0,100.0
7911,69.0,0,59,2.0,56.0
7912,57.0,0,59,10.0,100.0
7913,45.0,0,59,10.0,100.0
7914,53.0,15,14,5.0,100.0
7915,57.0,0,59,3.0,90.0
7916,69.0,0,59,1.0,127.0
7917,55.0,0,14,5.0,100.0
7918,57.0,15,14,5.0,100.0
7919,59.0,15,14,5.0,100.0
7920,43.0,0,59,10.0,100.0
7921,55.0,0,59,10.0,100.0
7922,55.0,0,59,3.0,90.0
7923,67.0,0,59,0.0,90.0
7924,67.0,0,59,2.0,56.0
7925,69.0,0,59,6.0,100.0
7926,73.0,0,59,6.0,100.0
7927,67.0,0,59,1.0,127.0
7928,76.0,0,59,6.0,100.0
7929,55.0,0,59,7.0,100.0
7930,64.0,0,59,8.0,100.0
7931,76.0,15,59,8.0,100.0
7932,61.0,15,14,5.0,100.0
7933,73.0,0,59,8.0,100.0
7934,62.0,0,14,4.0,100.0
7935,64.0,15,14,4.0,100.0
7936,65.0,15,14,4.0,100.0
7937,67.0,15,14,4.0,100.0
7938,53.0,0,59,10.0,100.0
7939,53.0,0,59,3.0,90.0
7940,62.0,0,59,8.0,100.0
7941,69.0,0,59,8.0,100.0
7942,41.0,0,59,10.0,100.0
7943,65.0,0,59,0.0,90.0
7944,53.0,0,59,7.0,100.0
7945,65.0,0,59,1.0,127.0
7946,65.0,15,59,2.0,56.0
7947,69.0,0,14,4.0,100.0
7948,71.0,15,14,4.0,100.0
7949,73.0,15,14,4.0,100.0
7950,53.0,0,59,7.0,100.0
7951,65.0,0,59,1.0,127.0
7952,65.0,0,59,0.0,90.0
7953,41.0,0,59,10.0,100.0
7954,69.0,15,59,6.0,100.0
7955,74.0,0,59,6.0,100.0
7956,53.0,0,59,10.0,100.0
7957,65.0,0,59,2.0,56.0
7958,74.0,15,14,4.0,100.0
7959,53.0,0,59,3.0,90.0
7960,76.0,0,14,4.0,100.0
7961,79.0,15,14,4.0,100.0
7962,77.0,15,14,4.0,100.0
7963,52.0,15,59,3.0,90.0
7964,40.0,0,59,10.0,100.0
7965,69.0,0,59,6.0,100.0
7966,73.0,0,59,6.0,100.0
7967,79.0,0,59,6.0,100.0
7968,64.0,0,59,1.0,127.0
7969,64.0,0,59,0.0,90.0
7970,52.0,0,59,10.0,100.0
7971,73.0,0,59,8.0,100.0
7972,69.0,0,59,8.0,100.0
7973,67.0,0,59,8.0,100.0
7974,76.0,15,14,4.0,100.0
7975,64.0,0,59,2.0,56.0
7976,64.0,0,59,8.0,100.0
7977,52.0,0,59,7.0,100.0
7978,77.0,15,14,4.0,100.0
7979,74.0,15,14,4.0,100.0
7980,77.0,15,14,4.0,100.0
7981,74.0,0,59,8.0,100.0
7982,65.0,0,59,8.0,100.0
7983,62.0,0,59,2.0,56.0
7984,62.0,0,59,1.0,127.0
7985,69.0,0,59,6.0,100.0
7986,77.0,0,59,6.0,100.0
7987,62.0,0,59,0.0,90.0
7988,74.0,0,59,6.0,100.0
7989,69.0,0,59,8.0,100.0
7990,38.0,0,59,10.0,100.0
7991,50.0,0,59,3.0,90.0
7992,50.0,0,59,10.0,100.0
7993,81.0,15,14,4.0,100.0
7994,50.0,0,59,7.0,100.0
7995,86.0,15,14,4.0,100.0
7996,82.0,15,14,4.0,100.0
7997,80.0,15,14,4.0,100.0
7998,77.0,15,14,4.0,100.0
7999,53.0,0,29,3.0,90.0
8000,74.0,0,14,4.0,100.0
8001,70.0,15,14,4.0,100.0
8002,68.0,15,14,4.0,100.0
8003,65.0,15,14,4.0,100.0
8004,58.0,15,59,3.0,90.0
8005,62.0,15,29,4.0,100.0
8006,56.0,0,29,3.0,90.0
8007,74.0,30,29,4.0,100.0
8008,56.0,0,29,5.0,100.0
8009,65.0,0,29,4.0,100.0
8010,57.0,0,59,3.0,90.0
8011,64.0,0,89,4.0,100.0
8012,73.0,0,89,4.0,100.0
8013,74.0,0,29,4.0,100.0
8014,45.0,60,59,3.0,90.0
8015,57.0,30,119,5.0,100.0
8016,65.0,30,29,4.0,100.0
8017,74.0,0,14,4.0,100.0
8018,65.0,0,14,4.0,100.0
8019,86.0,15,14,4.0,100.0
8020,85.0,0,14,4.0,100.0
8021,50.0,0,59,3.0,90.0
8022,83.0,15,14,4.0,100.0
8023,62.0,15,29,6.0,100.0
8024,62.0,30,59,5.0,100.0
8025,81.0,0,14,4.0,100.0
8026,65.0,0,29,6.0,100.0
8027,86.0,15,14,4.0,100.0
8028,85.0,15,14,4.0,100.0
8029,74.0,0,59,8.0,100.0
8030,83.0,15,14,4.0,100.0
8031,69.0,0,29,6.0,100.0
8032,74.0,0,59,0.0,90.0
8033,41.0,0,59,3.0,90.0
8034,74.0,15,60,6.0,100.0
8035,81.0,0,14,4.0,100.0
8036,74.0,0,29,6.0,100.0
8037,79.0,15,14,4.0,100.0
8038,77.0,15,14,4.0,100.0
8039,76.0,0,59,8.0,100.0
8040,45.0,0,59,3.0,90.0
8041,73.0,0,29,6.0,100.0
8042,76.0,15,59,0.0,90.0
8043,76.0,15,14,4.0,100.0
8044,76.0,0,60,6.0,100.0
8045,74.0,15,14,4.0,100.0
8046,74.0,15,14,4.0,100.0
8047,73.0,15,14,4.0,100.0
8048,74.0,0,59,6.0,100.0
8049,38.0,0,59,3.0,90.0
8050,77.0,0,59,8.0,100.0
8051,62.0,0,29,10.0,100.0
8052,71.0,15,14,4.0,100.0
8053,77.0,0,59,0.0,90.0
8054,77.0,0,59,6.0,100.0
8055,69.0,0,14,4.0,100.0
8056,65.0,0,29,10.0,100.0
8057,74.0,15,14,4.0,100.0
8058,73.0,0,14,4.0,100.0
8059,77.0,0,59,0.0,90.0
8060,69.0,15,29,10.0,100.0
8061,69.0,0,59,6.0,100.0
8062,77.0,0,59,6.0,100.0
8063,65.0,0,59,6.0,100.0
8064,69.0,15,59,2.0,56.0
8065,50.0,0,59,5.0,100.0
8066,74.0,0,59,8.0,100.0
8067,77.0,0,59,8.0,100.0
8068,50.0,0,59,3.0,90.0
8069,71.0,15,14,4.0,100.0
8070,74.0,0,59,1.0,127.0
8071,69.0,0,14,4.0,100.0
8072,74.0,0,29,10.0,100.0
8073,67.0,15,14,4.0,100.0
8074,65.0,15,14,4.0,100.0
8075,52.0,0,59,5.0,100.0
8076,73.0,0,29,10.0,100.0
8077,64.0,15,14,4.0,100.0
8078,79.0,15,59,0.0,90.0
8079,64.0,0,59,6.0,100.0
8080,67.0,0,59,6.0,100.0
8081,76.0,0,59,8.0,100.0
8082,79.0,0,59,8.0,100.0
8083,73.0,0,59,1.0,127.0
8084,64.0,0,59,2.0,56.0
8085,79.0,0,59,6.0,100.0
8086,52.0,0,59,3.0,90.0
8087,62.0,0,29,7.0,100.0
8088,65.0,0,29,7.0,100.0
8089,74.0,0,29,10.0,100.0
8090,53.0,0,59,5.0,100.0
8091,53.0,0,59,3.0,90.0
8092,74.0,0,59,1.0,127.0
8093,77.0,0,59,8.0,100.0
8094,62.0,0,59,2.0,56.0
8095,62.0,15,59,4.0,100.0
8096,81.0,0,59,0.0,90.0
8097,69.0,0,29,7.0,100.0
8098,72.0,30,29,10.0,100.0
8099,81.0,0,59,6.0,100.0
8100,81.0,0,59,8.0,100.0
8101,70.0,0,29,10.0,100.0
8102,67.0,0,29,7.0,100.0
8103,53.0,0,59,5.0,100.0
8104,53.0,30,59,3.0,90.0
8105,65.0,0,29,7.0,100.0
8106,74.0,0,59,2.0,56.0
8107,69.0,30,29,10.0,100.0
8108,81.0,0,59,0.0,90.0
8109,81.0,0,59,6.0,100.0
8110,62.0,0,59,1.0,127.0
8111,81.0,0,59,8.0,100.0
8112,67.0,0,29,10.0,100.0
8113,64.0,0,29,7.0,100.0
8114,82.0,0,59,0.0,90.0
8115,62.0,0,59,2.0,56.0
8116,67.0,30,59,1.0,127.0
8117,82.0,0,59,6.0,100.0
8118,62.0,30,29,7.0,100.0
8119,55.0,0,59,3.0,90.0
8120,65.0,0,29,10.0,100.0
8121,82.0,0,59,8.0,100.0
8122,55.0,0,59,5.0,100.0
8123,67.0,0,29,10.0,100.0
8124,61.0,0,29,7.0,100.0
8125,61.0,0,59,2.0,56.0
8126,65.0,0,29,10.0,100.0
8127,64.0,0,59,4.0,100.0
8128,57.0,0,59,5.0,100.0
8129,81.0,0,59,0.0,90.0
8130,61.0,0,59,4.0,100.0
8131,81.0,0,59,6.0,100.0
8132,64.0,0,59,1.0,127.0
8133,57.0,30,59,3.0,90.0
8134,81.0,0,59,8.0,100.0
8135,69.0,0,59,4.0,100.0
8136,59.0,30,29,7.0,100.0
8137,61.0,0,29,7.0,100.0
8138,79.0,0,29,6.0,100.0
8139,64.0,0,29,10.0,100.0
8140,79.0,0,29,0.0,90.0
8141,79.0,0,29,8.0,100.0
8142,57.0,30,59,5.0,100.0
8143,77.0,0,29,0.0,90.0
8144,77.0,30,29,6.0,100.0
8145,61.0,0,59,2.0,56.0
8146,57.0,0,59,3.0,90.0
8147,62.0,0,29,10.0,100.0
8148,62.0,0,29,7.0,100.0
8149,69.0,0,59,1.0,127.0
8150,77.0,0,29,8.0,100.0
8151,76.0,0,29,6.0,100.0
8152,76.0,0,29,0.0,90.0
8153,61.0,30,29,7.0,100.0
8154,64.0,0,29,10.0,100.0
8155,76.0,0,29,8.0,100.0
8156,74.0,0,29,8.0,100.0
8157,74.0,0,29,0.0,90.0
8158,74.0,0,29,6.0,100.0
8159,62.0,0,59,2.0,56.0
8160,65.0,0,29,10.0,100.0
8161,67.0,0,59,1.0,127.0
8162,62.0,30,29,7.0,100.0
8163,58.0,0,59,3.0,90.0
8164,58.0,0,59,5.0,100.0
8165,73.0,30,29,0.0,90.0
8166,73.0,0,29,6.0,100.0
8167,73.0,0,29,8.0,100.0
8168,71.0,30,29,0.0,90.0
8169,57.0,0,59,5.0,100.0
8170,67.0,0,59,10.0,100.0
8171,69.0,0,59,4.0,100.0
8172,73.0,0,59,4.0,100.0
8173,71.0,0,29,6.0,100.0
8174,57.0,0,59,3.0,90.0
8175,71.0,0,29,8.0,100.0
8176,69.0,0,59,1.0,127.0
8177,64.0,0,59,2.0,56.0
8178,64.0,0,59,4.0,100.0
8179,69.0,0,29,6.0,100.0
8180,61.0,0,29,10.0,100.0
8181,55.0,0,29,5.0,100.0
8182,64.0,0,89,7.0,100.0
8183,55.0,0,29,3.0,90.0
8184,69.0,0,29,0.0,90.0
8185,69.0,30,29,8.0,100.0
8186,71.0,0,29,8.0,100.0
8187,71.0,0,29,0.0,90.0
8188,62.0,0,29,7.0,100.0
8189,53.0,0,29,3.0,90.0
8190,71.0,0,29,6.0,100.0
8191,62.0,30,29,10.0,100.0
8192,64.0,0,59,2.0,56.0
8193,53.0,0,29,5.0,100.0
8194,69.0,0,59,1.0,127.0
8195,73.0,30,29,8.0,100.0
8196,73.0,0,29,0.0,90.0
8197,64.0,0,29,10.0,100.0
8198,61.0,0,29,7.0,100.0
8199,52.0,0,29,5.0,100.0
8200,73.0,0,29,6.0,100.0
8201,52.0,0,29,3.0,90.0
8202,74.0,30,29,8.0,100.0
8203,50.0,0,29,3.0,90.0
8204,69.0,0,59,1.0,127.0
8205,64.0,0,59,2.0,56.0
8206,50.0,0,29,5.0,100.0
8207,74.0,0,29,6.0,100.0
8208,59.0,0,29,7.0,100.0
8209,74.0,0,29,0.0,90.0
8210,65.0,0,29,10.0,100.0
8211,57.0,0,29,7.0,100.0
8212,67.0,0,29,10.0,100.0
8213,76.0,0,59,0.0,90.0
8214,73.0,0,59,4.0,100.0
8215,76.0,0,59,4.0,100.0
8216,76.0,0,59,6.0,100.0
8217,64.0,0,59,2.0,56.0
8218,69.0,0,59,4.0,100.0
8219,55.0,0,29,7.0,100.0
8220,70.0,30,29,10.0,100.0
8221,49.0,30,59,5.0,100.0
8222,69.0,0,59,1.0,127.0
8223,76.0,0,59,8.0,100.0
8224,49.0,0,59,3.0,90.0
8225,57.0,0,29,7.0,100.0
8226,69.0,0,29,10.0,100.0
8227,73.0,0,59,1.0,127.0
8228,67.0,30,29,10.0,100.0
8229,76.0,0,59,0.0,90.0
8230,76.0,30,59,8.0,100.0
8231,73.0,0,59,6.0,100.0
8232,73.0,0,59,8.0,100.0
8233,45.0,0,59,5.0,100.0
8234,45.0,0,59,3.0,90.0
8235,69.0,0,59,2.0,56.0
8236,76.0,0,59,6.0,100.0
8237,58.0,0,29,7.0,100.0
8238,65.0,0,29,10.0,100.0
8239,57.0,0,29,7.0,100.0
8240,77.0,0,59,8.0,100.0
8241,69.0,0,59,2.0,56.0
8242,74.0,0,59,1.0,127.0
8243,50.0,0,59,3.0,90.0
8244,74.0,30,59,8.0,100.0
8245,77.0,0,59,6.0,100.0
8246,50.0,0,59,5.0,100.0
8247,74.0,0,59,6.0,100.0
8248,67.0,0,29,10.0,100.0
8249,59.0,30,29,7.0,100.0
8250,77.0,0,59,0.0,90.0
8251,57.0,0,14,5.0,100.0
8252,45.0,15,14,5.0,100.0
8253,47.0,15,14,5.0,100.0
8254,76.0,0,59,8.0,100.0
8255,73.0,0,59,8.0,100.0
8256,69.0,0,59,8.0,100.0
8257,61.0,0,59,7.0,100.0
8258,69.0,0,59,6.0,100.0
8259,76.0,30,59,6.0,100.0
8260,73.0,0,59,1.0,127.0
8261,81.0,0,59,4.0,100.0
8262,76.0,0,59,4.0,100.0
8263,76.0,0,59,0.0,90.0
8264,45.0,0,59,3.0,90.0
8265,49.0,15,14,5.0,100.0
8266,69.0,0,59,2.0,56.0
8267,69.0,0,59,10.0,100.0
8268,73.0,0,59,4.0,100.0
8269,50.0,0,14,5.0,100.0
8270,57.0,0,29,8.0,100.0
8271,45.0,0,29,7.0,100.0
8272,57.0,15,29,6.0,100.0
8273,52.0,15,14,5.0,100.0
8274,45.0,0,29,10.0,100.0
8275,53.0,15,14,5.0,100.0
8276,47.0,0,29,10.0,100.0
8277,59.0,0,29,6.0,100.0
8278,59.0,0,29,8.0,100.0
8279,55.0,15,14,5.0,100.0
8280,47.0,0,29,7.0,100.0
8281,57.0,0,14,5.0,100.0
8282,61.0,0,29,6.0,100.0
8283,49.0,0,29,7.0,100.0
8284,59.0,15,14,4.0,100.0
8285,61.0,15,29,8.0,100.0
8286,49.0,0,29,10.0,100.0
8287,61.0,0,14,4.0,100.0
8288,62.0,15,14,4.0,100.0
8289,50.0,15,29,7.0,100.0
8290,62.0,0,29,8.0,100.0
8291,50.0,0,29,10.0,100.0
8292,62.0,0,29,6.0,100.0
8293,64.0,15,14,4.0,100.0
8294,57.0,15,14,4.0,100.0
8295,59.0,15,14,4.0,100.0
8296,61.0,15,14,4.0,100.0
8297,52.0,0,59,7.0,100.0
8298,45.0,0,59,3.0,90.0
8299,52.0,0,59,10.0,100.0
8300,64.0,0,59,6.0,100.0
8301,64.0,0,59,8.0,100.0
8302,69.0,0,59,2.0,56.0
8303,62.0,0,14,4.0,100.0
8304,64.0,15,14,4.0,100.0
8305,65.0,15,14,4.0,100.0
8306,64.0,0,59,8.0,100.0
8307,67.0,15,14,4.0,100.0
8308,52.0,0,59,10.0,100.0
8309,64.0,15,59,6.0,100.0
8310,52.0,0,59,7.0,100.0
8311,69.0,0,14,4.0,100.0
8312,71.0,15,14,4.0,100.0
8313,73.0,15,14,4.0,100.0
8314,65.0,0,59,8.0,100.0
8315,74.0,15,14,4.0,100.0
8316,53.0,15,59,7.0,100.0
8317,53.0,0,59,10.0,100.0
8318,65.0,0,59,6.0,100.0
8319,76.0,0,14,4.0,100.0
8320,69.0,15,14,4.0,100.0
8321,64.0,0,29,8.0,100.0
8322,71.0,0,14,4.0,100.0
8323,52.0,0,59,10.0,100.0
8324,45.0,0,59,3.0,90.0
8325,73.0,15,14,4.0,100.0
8326,69.0,15,29,8.0,100.0
8327,73.0,0,59,2.0,56.0
8328,76.0,0,59,1.0,127.0
8329,74.0,0,14,4.0,100.0
8330,76.0,15,14,4.0,100.0
8331,73.0,0,29,8.0,100.0
8332,77.0,15,14,4.0,100.0
8333,79.0,15,14,4.0,100.0
8334,64.0,15,119,6.0,100.0
8335,57.0,15,59,3.0,90.0
8336,76.0,0,29,8.0,100.0
8337,52.0,0,119,7.0,100.0
8338,64.0,0,59,10.0,100.0
8339,81.0,0,14,4.0,100.0
8340,81.0,0,29,8.0,100.0
8341,79.0,15,14,4.0,100.0
8342,77.0,0,14,4.0,100.0
8343,45.0,15,59,3.0,90.0
8344,61.0,0,59,10.0,100.0
8345,79.0,15,29,8.0,100.0
8346,76.0,15,14,4.0,100.0
8347,77.0,0,14,4.0,100.0
8348,77.0,0,19,8.0,100.0
8349,74.0,15,14,4.0,100.0
8350,79.0,5,19,8.0,100.0
8351,76.0,10,14,4.0,100.0
8352,77.0,0,59,1.0,127.0
8353,57.0,0,59,10.0,100.0
8354,50.0,15,59,3.0,90.0
8355,74.0,0,59,2.0,56.0
8356,81.0,0,59,0.0,90.0
8357,77.0,10,19,8.0,100.0
8358,77.0,5,14,4.0,100.0
8359,74.0,0,29,6.0,100.0
8360,79.0,0,14,8.0,100.0
8361,79.0,0,14,4.0,100.0
8362,81.0,0,14,4.0,100.0
8363,77.0,15,14,8.0,100.0
8364,77.0,0,29,6.0,100.0
8365,79.0,0,14,8.0,100.0
8366,83.0,15,14,4.0,100.0
8367,85.0,15,14,4.0,100.0
8368,62.0,15,59,3.0,90.0
8369,53.0,0,59,10.0,100.0
8370,69.0,0,59,7.0,100.0
8371,77.0,0,14,8.0,100.0
8372,81.0,0,29,6.0,100.0
8373,79.0,0,9,8.0,100.0
8374,86.0,0,14,4.0,100.0
8375,77.0,10,9,8.0,100.0
8376,86.0,0,29,6.0,100.0
8377,79.0,5,9,8.0,100.0
8378,84.0,5,14,4.0,100.0
8379,77.0,0,9,8.0,100.0
8380,82.0,10,14,4.0,100.0
8381,79.0,10,9,8.0,100.0
8382,50.0,15,59,10.0,100.0
8383,77.0,5,9,8.0,100.0
8384,84.0,0,29,6.0,100.0
8385,81.0,5,14,4.0,100.0
8386,50.0,0,59,3.0,90.0
8387,65.0,0,59,7.0,100.0
8388,79.0,0,14,8.0,100.0
8389,82.0,10,14,4.0,100.0
8390,82.0,0,19,6.0,100.0
8391,67.0,15,14,4.0,100.0
8392,77.0,0,14,8.0,100.0
8393,62.0,0,29,7.0,100.0
8394,84.0,5,19,6.0,100.0
8395,69.0,10,14,4.0,100.0
8396,76.0,0,14,8.0,100.0
8397,77.0,0,59,1.0,127.0
8398,82.0,10,19,6.0,100.0
8399,70.0,5,14,4.0,100.0
8400,74.0,0,59,2.0,56.0
8401,55.0,0,29,7.0,100.0
8402,43.0,0,59,3.0,90.0
8403,74.0,0,14,8.0,100.0
8404,82.0,0,59,0.0,90.0
8405,72.0,0,14,4.0,100.0
8406,84.0,0,14,6.0,100.0
8407,74.0,15,14,4.0,100.0
8408,58.0,15,29,7.0,100.0
8409,82.0,0,14,6.0,100.0
8410,76.0,0,14,4.0,100.0
8411,84.0,0,14,6.0,100.0
8412,82.0,0,14,6.0,100.0
8413,79.0,0,59,8.0,100.0
8414,62.0,15,29,7.0,100.0
8415,77.0,15,14,4.0,100.0
8416,55.0,0,59,3.0,90.0
8417,84.0,15,9,6.0,100.0
8418,79.0,0,14,4.0,100.0
8419,82.0,10,9,6.0,100.0
8420,58.0,0,29,7.0,100.0
8421,77.0,5,14,4.0,100.0
8422,84.0,5,9,6.0,100.0
8423,82.0,0,9,6.0,100.0
8424,76.0,0,14,4.0,100.0
8425,84.0,10,9,6.0,100.0
8426,74.0,5,14,4.0,100.0
8427,55.0,10,29,7.0,100.0
8428,77.0,0,59,8.0,100.0
8429,43.0,0,59,3.0,90.0
8430,82.0,5,9,6.0,100.0
8431,76.0,10,14,4.0,100.0
8432,84.0,0,14,6.0,100.0
8433,76.0,0,19,8.0,100.0
8434,82.0,15,14,6.0,100.0
8435,60.0,0,14,4.0,100.0
8436,55.0,0,210,10.0,100.0
8437,77.0,5,19,8.0,100.0
8438,81.0,0,14,6.0,100.0
8439,62.0,10,14,4.0,100.0
8440,48.0,0,29,10.0,100.0
8441,76.0,10,19,8.0,100.0
8442,72.0,0,59,2.0,56.0
8443,82.0,0,59,0.0,90.0
8444,79.0,0,14,6.0,100.0
8445,76.0,0,59,1.0,127.0
8446,64.0,5,14,4.0,100.0
8447,48.0,0,59,3.0,90.0
8448,65.0,0,14,4.0,100.0
8449,77.0,15,14,8.0,100.0
8450,67.0,15,14,4.0,100.0
8451,52.0,0,29,10.0,100.0
8452,76.0,0,14,8.0,100.0
8453,77.0,0,14,8.0,100.0
8454,69.0,15,14,4.0,100.0
8455,76.0,15,14,8.0,100.0
8456,60.0,0,59,3.0,90.0
8457,55.0,0,29,10.0,100.0
8458,70.0,0,14,4.0,100.0
8459,84.0,0,59,6.0,100.0
8460,77.0,0,9,8.0,100.0
8461,72.0,0,14,4.0,100.0
8462,76.0,10,9,8.0,100.0
8463,77.0,5,9,8.0,100.0
8464,52.0,0,29,10.0,100.0
8465,70.0,5,14,4.0,100.0
8466,76.0,10,9,8.0,100.0
8467,69.0,0,14,4.0,100.0
8468,77.0,10,9,8.0,100.0
8469,48.0,0,29,10.0,100.0
8470,82.0,0,59,6.0,100.0
8471,67.0,5,14,4.0,100.0
8472,48.0,15,59,3.0,90.0
8473,76.0,5,9,8.0,100.0
8474,77.0,0,14,8.0,100.0
8475,69.0,10,14,4.0,100.0
8476,81.0,0,19,6.0,100.0
8477,53.0,0,14,4.0,100.0
8478,76.0,15,14,8.0,100.0
8479,60.0,0,210,7.0,100.0
8480,82.0,5,19,6.0,100.0
8481,55.0,10,14,4.0,100.0
8482,74.0,0,14,8.0,100.0
8483,81.0,0,59,0.0,90.0
8484,57.0,0,14,4.0,100.0
8485,53.0,0,29,7.0,100.0
8486,41.0,0,59,3.0,90.0
8487,76.0,0,59,1.0,127.0
8488,72.0,5,14,8.0,100.0
8489,81.0,10,19,6.0,100.0
8490,72.0,0,59,2.0,56.0
8491,82.0,0,14,6.0,100.0
8492,58.0,0,14,4.0,100.0
8493,57.0,0,29,7.0,100.0
8494,60.0,15,14,4.0,100.0
8495,81.0,0,14,6.0,100.0
8496,82.0,0,14,6.0,100.0
8497,62.0,0,14,4.0,100.0
8498,81.0,15,14,6.0,100.0
8499,64.0,0,14,4.0,100.0
8500,53.0,0,59,3.0,90.0
8501,60.0,15,29,7.0,100.0
8502,77.0,15,59,8.0,100.0
8503,82.0,0,9,6.0,100.0
8504,65.0,15,14,4.0,100.0
8505,81.0,10,9,6.0,100.0
8506,57.0,0,29,7.0,100.0
8507,64.0,5,14,4.0,100.0
8508,82.0,5,9,6.0,100.0
8509,81.0,0,9,6.0,100.0
8510,62.0,0,14,4.0,100.0
8511,82.0,10,9,6.0,100.0
8512,76.0,0,59,8.0,100.0
8513,81.0,5,9,6.0,100.0
8514,60.0,5,14,4.0,100.0
8515,41.0,0,59,3.0,90.0
8516,53.0,10,29,7.0,100.0
8517,62.0,0,14,4.0,100.0
8518,82.0,0,14,6.0,100.0
8519,74.0,0,19,8.0,100.0
8520,81.0,0,14,6.0,100.0
8521,46.0,15,14,5.0,100.0
8522,53.0,0,210,10.0,100.0
8523,76.0,5,19,8.0,100.0
8524,48.0,0,14,5.0,100.0
8525,79.0,10,14,6.0,100.0
8526,74.0,0,59,1.0,127.0
8527,46.0,0,29,10.0,100.0
8528,46.0,10,59,3.0,90.0
8529,77.0,0,14,6.0,100.0
8530,70.0,0,59,2.0,56.0
8531,74.0,10,19,8.0,100.0
8532,81.0,0,59,0.0,90.0
8533,50.0,5,14,5.0,100.0
8534,76.0,0,14,8.0,100.0
8535,52.0,0,14,5.0,100.0
8536,74.0,0,14,8.0,100.0
8537,53.0,15,14,5.0,100.0
8538,50.0,0,29,10.0,100.0
8539,76.0,15,14,8.0,100.0
8540,55.0,0,14,5.0,100.0
8541,58.0,0,59,3.0,90.0
8542,57.0,0,14,5.0,100.0
8543,82.0,15,59,6.0,100.0
8544,74.0,15,14,8.0,100.0
8545,53.0,0,29,10.0,100.0
8546,76.0,15,9,8.0,100.0
8547,58.0,0,14,5.0,100.0
8548,74.0,10,9,8.0,100.0
8549,76.0,5,9,8.0,100.0
8550,50.0,0,29,10.0,100.0
8551,57.0,5,14,5.0,100.0
8552,74.0,0,9,8.0,100.0
8553,55.0,10,14,5.0,100.0
8554,76.0,10,9,8.0,100.0
8555,53.0,5,14,5.0,100.0
8556,46.0,0,29,10.0,100.0
8557,74.0,5,9,8.0,100.0
8558,46.0,0,59,3.0,90.0
8559,81.0,0,59,6.0,100.0
8560,76.0,0,14,8.0,100.0
8561,55.0,0,14,5.0,100.0
8562,79.0,0,19,6.0,100.0
8563,74.0,15,14,8.0,100.0
8564,40.0,0,14,5.0,100.0
8565,58.0,0,210,7.0,100.0
8566,81.0,5,19,6.0,100.0
8567,73.0,10,14,8.0,100.0
8568,41.0,0,14,5.0,100.0
8569,71.0,5,14,8.0,100.0
8570,43.0,0,14,5.0,100.0
8571,74.0,0,59,1.0,127.0
8572,40.0,0,59,3.0,90.0
8573,79.0,10,19,6.0,100.0
8574,79.0,0,59,0.0,90.0
8575,52.0,0,29,7.0,100.0
8576,70.0,0,59,2.0,56.0
8577,45.0,0,14,5.0,100.0
8578,81.0,0,14,6.0,100.0
8579,79.0,15,14,6.0,100.0
8580,55.0,0,29,7.0,100.0
8581,47.0,0,14,5.0,100.0
8582,81.0,0,14,6.0,100.0
8583,49.0,0,14,5.0,100.0
8584,52.0,0,59,3.0,90.0
8585,76.0,15,59,8.0,100.0
8586,58.0,15,29,7.0,100.0
8587,50.0,15,14,5.0,100.0
8588,79.0,0,14,6.0,100.0
8589,81.0,15,9,6.0,100.0
8590,52.0,0,14,5.0,100.0
8591,79.0,10,9,6.0,100.0
8592,55.0,0,29,7.0,100.0
8593,81.0,5,9,6.0,100.0
8594,50.0,5,14,5.0,100.0
8595,79.0,0,9,6.0,100.0
8596,49.0,10,14,5.0,100.0
8597,81.0,10,9,6.0,100.0
8598,74.0,0,59,8.0,100.0
8599,40.0,0,59,3.0,90.0
8600,79.0,5,9,6.0,100.0
8601,47.0,5,14,5.0,100.0
8602,52.0,0,29,7.0,100.0
8603,81.0,0,14,6.0,100.0
8604,74.0,0,14,8.0,100.0
8605,49.0,0,14,5.0,100.0
8606,73.0,0,14,8.0,100.0
8607,79.0,0,14,6.0,100.0
8608,45.0,15,14,5.0,100.0
8609,52.0,10,210,10.0,100.0
8610,77.0,0,14,6.0,100.0
8611,47.0,0,14,5.0,100.0
8612,74.0,15,14,8.0,100.0
8613,73.0,0,59,1.0,127.0
8614,49.0,15,14,5.0,100.0
8615,73.0,0,14,8.0,100.0
8616,76.0,0,14,6.0,100.0
8617,45.0,0,29,10.0,100.0
8618,45.0,10,59,3.0,90.0
8619,69.0,0,59,2.0,56.0
8620,79.0,0,59,0.0,90.0
8621,74.0,0,9,8.0,100.0
8622,50.0,0,14,5.0,100.0
8623,73.0,10,9,8.0,100.0
8624,49.0,0,29,10.0,100.0
8625,74.0,5,9,8.0,100.0
8626,52.0,5,14,5.0,100.0
8627,73.0,0,9,8.0,100.0
8628,53.0,0,14,5.0,100.0
8629,74.0,10,9,8.0,100.0
8630,55.0,5,14,5.0,100.0
8631,52.0,10,29,10.0,100.0
8632,73.0,5,9,8.0,100.0
8633,57.0,15,59,3.0,90.0
8634,81.0,0,59,6.0,100.0
8635,74.0,10,9,8.0,100.0
8636,57.0,0,14,5.0,100.0
8637,73.0,10,9,8.0,100.0
8638,74.0,5,9,8.0,100.0
8639,55.0,5,14,5.0,100.0
8640,49.0,0,29,10.0,100.0
8641,73.0,0,9,8.0,100.0
8642,53.0,0,14,5.0,100.0
8643,74.0,10,9,8.0,100.0
8644,73.0,5,9,8.0,100.0
8645,79.0,0,59,6.0,100.0
8646,52.0,5,14,5.0,100.0
8647,45.0,10,29,10.0,100.0
8648,45.0,0,59,3.0,90.0
8649,53.0,0,14,5.0,100.0
8650,50.0,15,14,5.0,100.0
8651,52.0,15,14,5.0,100.0
8652,53.0,15,14,5.0,100.0
8653,77.0,0,59,6.0,100.0
8654,50.0,0,59,10.0,100.0
8655,57.0,0,239,7.0,100.0
8656,74.0,10,59,1.0,127.0
8657,69.0,0,59,2.0,56.0
8658,77.0,0,59,0.0,90.0
8659,38.0,0,59,3.0,90.0
8660,74.0,0,59,8.0,100.0
8661,55.0,0,14,4.0,100.0
8662,57.0,15,14,4.0,100.0
8663,59.0,15,14,4.0,100.0
8664,86.0,0,59,8.0,100.0
8665,70.0,15,59,1.0,127.0
8666,86.0,0,59,6.0,100.0
8667,86.0,0,59,0.0,90.0
8668,58.0,0,59,7.0,100.0
8669,62.0,0,59,2.0,56.0
8670,53.0,0,59,10.0,100.0
8671,61.0,15,14,4.0,100.0
8672,50.0,0,59,3.0,90.0
8673,62.0,0,14,4.0,100.0
8674,64.0,15,14,4.0,100.0
8675,65.0,15,14,4.0,100.0
8676,57.0,0,59,10.0,100.0
8677,38.0,15,59,3.0,90.0
8678,65.0,0,59,1.0,127.0
8679,84.0,0,59,6.0,100.0
8680,64.0,15,14,4.0,100.0
8681,84.0,0,59,0.0,90.0
8682,57.0,0,59,7.0,100.0
8683,62.0,0,59,2.0,56.0
8684,84.0,0,59,8.0,100.0
8685,63.0,0,14,4.0,100.0
8686,62.0,15,14,4.0,100.0
8687,63.0,15,14,4.0,100.0
8688,82.0,0,59,6.0,100.0
8689,55.0,0,59,7.0,100.0
8690,67.0,15,14,4.0,100.0
8691,82.0,0,59,8.0,100.0
8692,82.0,0,59,0.0,90.0
8693,58.0,0,59,10.0,100.0
8694,43.0,0,59,3.0,90.0
8695,67.0,0,59,1.0,127.0
8696,63.0,15,59,2.0,56.0
8697,63.0,0,14,4.0,100.0
8698,62.0,15,14,4.0,100.0
8699,63.0,15,14,4.0,100.0
8700,60.0,0,59,10.0,100.0
8701,45.0,0,59,3.0,90.0
8702,67.0,15,14,4.0,100.0
8703,72.0,0,59,1.0,127.0
8704,81.0,0,59,8.0,100.0
8705,63.0,0,59,2.0,56.0
8706,81.0,0,59,6.0,100.0
8707,81.0,15,59,0.0,90.0
8708,57.0,0,59,7.0,100.0
8709,62.0,0,14,4.0,100.0
8710,61.0,15,14,4.0,100.0
8711,62.0,15,14,4.0,100.0
8712,79.0,0,59,6.0,100.0
8713,46.0,0,59,3.0,90.0
8714,58.0,0,59,10.0,100.0
8715,67.0,15,14,4.0,100.0
8716,58.0,15,59,7.0,100.0
8717,79.0,0,59,8.0,100.0
8718,74.0,0,59,1.0,127.0
8719,62.0,0,59,2.0,56.0
8720,79.0,0,59,0.0,90.0
8721,62.0,0,19,5.0,100.0
8722,53.0,0,19,7.0,100.0
8723,58.0,0,19,10.0,100.0
8724,61.0,0,19,5.0,100.0
8725,52.0,20,19,7.0,100.0
8726,57.0,0,19,10.0,100.0
8727,53.0,20,19,7.0,100.0
8728,76.0,0,59,1.0,127.0
8729,62.0,0,19,5.0,100.0
8730,79.0,0,59,0.0,90.0
8731,58.0,0,19,10.0,100.0
8732,69.0,0,59,2.0,56.0
8733,57.0,0,60,5.0,100.0
8734,61.0,0,14,5.0,100.0
8735,52.0,0,14,7.0,100.0
8736,57.0,20,14,10.0,100.0
8737,62.0,15,14,5.0,100.0
8738,53.0,0,14,7.0,100.0
8739,58.0,0,14,10.0,100.0
8740,45.0,0,29,3.0,90.0
8741,52.0,15,14,7.0,100.0
8742,61.0,0,14,5.0,100.0
8743,57.0,0,14,10.0,100.0
8744,79.0,15,119,6.0,100.0
8745,58.0,0,14,10.0,100.0
8746,62.0,0,14,5.0,100.0
8747,79.0,0,119,8.0,100.0
8748,47.0,0,29,3.0,90.0
8749,53.0,15,14,7.0,100.0
8750,79.0,0,59,4.0,100.0
8751,52.0,0,9,7.0,100.0
8752,57.0,15,9,10.0,100.0
8753,61.0,0,14,5.0,100.0
8754,58.0,0,9,10.0,100.0
8755,53.0,10,9,7.0,100.0
8756,52.0,0,9,7.0,100.0
8757,49.0,0,29,3.0,90.0
8758,57.0,5,9,10.0,100.0
8759,62.0,5,14,5.0,100.0
8760,53.0,0,9,7.0,100.0
8761,58.0,0,9,10.0,100.0
8762,61.0,10,14,5.0,100.0
8763,57.0,0,9,10.0,100.0
8764,52.0,10,9,7.0,100.0
8765,50.0,0,29,3.0,90.0
8766,62.0,5,14,5.0,100.0
8767,53.0,5,9,7.0,100.0
8768,58.0,0,9,10.0,100.0
8769,79.0,0,59,4.0,100.0
8770,61.0,0,9,5.0,100.0
8771,57.0,0,9,10.0,100.0
8772,52.0,0,9,7.0,100.0
8773,58.0,10,9,10.0,100.0
8774,62.0,0,9,5.0,100.0
8775,53.0,0,9,7.0,100.0
8776,52.0,10,29,3.0,90.0
8777,57.0,0,9,10.0,100.0
8778,61.0,10,9,5.0,100.0
8779,52.0,0,9,7.0,100.0
8780,58.0,0,9,10.0,100.0
8781,62.0,0,9,5.0,100.0
8782,53.0,0,9,7.0,100.0
8783,52.0,0,9,7.0,100.0
8784,57.0,10,9,10.0,100.0
8785,61.0,0,9,5.0,100.0
8786,53.0,0,9,7.0,100.0
8787,62.0,10,9,5.0,100.0
8788,76.0,0,59,0.0,90.0
8789,73.0,0,59,1.0,127.0
8790,69.0,0,59,2.0,56.0
8791,73.0,0,59,4.0,100.0
8792,58.0,0,9,10.0,100.0
8793,50.0,10,29,3.0,90.0
8794,52.0,0,9,7.0,100.0
8795,57.0,0,9,10.0,100.0
8796,61.0,0,9,5.0,100.0
8797,62.0,0,9,5.0,100.0
8798,58.0,0,9,10.0,100.0
8799,53.0,10,9,7.0,100.0
8800,49.0,0,29,3.0,90.0
8801,52.0,0,9,7.0,100.0
8802,61.0,0,9,5.0,100.0
8803,57.0,10,9,10.0,100.0
8804,53.0,0,9,7.0,100.0
8805,58.0,10,9,10.0,100.0
8806,62.0,0,9,5.0,100.0
8807,57.0,10,9,10.0,100.0
8808,61.0,0,9,5.0,100.0
8809,52.0,0,9,7.0,100.0
8810,76.0,10,59,4.0,100.0
8811,53.0,10,9,7.0,100.0
8812,50.0,0,29,3.0,90.0
8813,62.0,0,9,5.0,100.0
8814,79.0,0,59,6.0,100.0
8815,58.0,0,9,10.0,100.0
8816,57.0,0,9,10.0,100.0
8817,61.0,10,9,5.0,100.0
8818,52.0,0,9,7.0,100.0
8819,62.0,0,9,5.0,100.0
8820,58.0,10,9,10.0,100.0
8821,53.0,0,9,7.0,100.0
8822,52.0,0,29,3.0,90.0
8823,57.0,10,9,10.0,100.0
8824,52.0,0,9,7.0,100.0
8825,61.0,0,9,5.0,100.0
8826,62.0,0,9,5.0,100.0
8827,58.0,0,9,10.0,100.0
8828,53.0,10,9,7.0,100.0
8829,61.0,10,9,5.0,100.0
8830,57.0,0,9,10.0,100.0
8831,52.0,0,9,7.0,100.0
8832,62.0,0,9,5.0,100.0
8833,58.0,10,9,10.0,100.0
8834,76.0,0,59,4.0,100.0
8835,79.0,0,59,6.0,100.0
8836,53.0,0,9,7.0,100.0
8837,53.0,0,29,3.0,90.0
8838,52.0,0,9,7.0,100.0
8839,61.0,0,9,5.0,100.0
8840,57.0,0,9,10.0,100.0
8841,62.0,0,9,5.0,100.0
8842,53.0,0,9,7.0,100.0
8843,58.0,10,9,10.0,100.0
8844,55.0,0,29,3.0,90.0
8845,61.0,10,9,5.0,100.0
8846,52.0,0,9,7.0,100.0
8847,57.0,0,9,10.0,100.0
8848,62.0,10,9,5.0,100.0
8849,53.0,0,9,7.0,100.0
8850,58.0,0,9,10.0,100.0
8851,61.0,10,9,5.0,100.0
8852,57.0,0,9,10.0,100.0
8853,52.0,0,9,7.0,100.0
8854,58.0,10,9,10.0,100.0
8855,67.0,0,59,4.0,100.0
8856,73.0,10,59,6.0,100.0
8857,64.0,0,59,2.0,56.0
8858,73.0,0,59,0.0,90.0
8859,53.0,0,29,3.0,90.0
8860,62.0,0,9,5.0,100.0
8861,69.0,0,59,1.0,127.0
8862,53.0,0,9,7.0,100.0
8863,61.0,0,9,5.0,100.0
8864,57.0,0,9,10.0,100.0
8865,52.0,10,9,7.0,100.0
8866,62.0,0,9,5.0,100.0
8867,58.0,10,9,10.0,100.0
8868,53.0,0,9,7.0,100.0
8869,52.0,0,9,7.0,100.0
8870,61.0,10,9,5.0,100.0
8871,57.0,0,9,10.0,100.0
8872,52.0,0,29,3.0,90.0
8873,53.0,0,9,7.0,100.0
8874,58.0,10,9,10.0,100.0
8875,62.0,0,9,5.0,100.0
8876,61.0,0,9,5.0,100.0
8877,52.0,0,9,7.0,100.0
8878,57.0,10,9,10.0,100.0
8879,76.0,0,59,6.0,100.0
8880,70.0,0,59,4.0,100.0
8881,58.0,0,9,10.0,100.0
8882,79.0,0,59,8.0,100.0
8883,62.0,0,9,5.0,100.0
8884,53.0,0,29,3.0,90.0
8885,53.0,10,9,7.0,100.0
8886,61.0,0,9,5.0,100.0
8887,52.0,0,9,7.0,100.0
8888,62.0,0,9,5.0,100.0
8889,53.0,10,9,7.0,100.0
8890,52.0,0,9,7.0,100.0
8891,55.0,0,29,3.0,90.0
8892,61.0,10,9,5.0,100.0
8893,57.0,0,29,10.0,100.0
8894,53.0,0,9,7.0,100.0
8895,62.0,0,9,5.0,100.0
8896,55.0,10,14,10.0,100.0
8897,61.0,10,9,5.0,100.0
8898,52.0,0,9,7.0,100.0
8899,62.0,5,9,5.0,100.0
8900,57.0,5,14,10.0,100.0
8901,53.0,0,9,7.0,100.0
8902,79.0,10,59,8.0,100.0
8903,76.0,0,59,6.0,100.0
8904,70.0,0,59,4.0,100.0
8905,57.0,0,29,3.0,90.0
8906,52.0,0,9,7.0,100.0
8907,58.0,0,9,10.0,100.0
8908,61.0,0,9,5.0,100.0
8909,60.0,10,9,10.0,100.0
8910,62.0,0,9,5.0,100.0
8911,53.0,0,9,7.0,100.0
8912,58.0,0,9,10.0,100.0
8913,61.0,10,9,5.0,100.0
8914,52.0,0,9,7.0,100.0
8915,58.0,0,29,3.0,90.0
8916,60.0,0,9,10.0,100.0
8917,62.0,10,9,5.0,100.0
8918,53.0,0,9,7.0,100.0
8919,61.0,0,9,5.0,100.0
8920,58.0,0,9,10.0,100.0
8921,52.0,10,9,7.0,100.0
8922,76.0,0,59,0.0,90.0
8923,64.0,0,59,4.0,100.0
8924,60.0,0,9,10.0,100.0
8925,57.0,0,29,3.0,90.0
8926,67.0,10,59,6.0,100.0
8927,67.0,0,59,2.0,56.0
8928,73.0,0,59,8.0,100.0
8929,53.0,0,9,7.0,100.0
8930,73.0,0,59,1.0,127.0
8931,62.0,10,9,5.0,100.0
8932,52.0,0,9,7.0,100.0
8933,61.0,0,9,5.0,100.0
8934,58.0,0,9,10.0,100.0
8935,62.0,10,9,5.0,100.0
8936,53.0,0,9,7.0,100.0
8937,60.0,0,9,10.0,100.0
8938,58.0,0,9,10.0,100.0
8939,55.0,0,29,3.0,90.0
8940,61.0,0,9,5.0,100.0
8941,52.0,10,9,7.0,100.0
8942,60.0,10,9,10.0,100.0
8943,62.0,0,9,5.0,100.0
8944,53.0,0,9,7.0,100.0
8945,52.0,0,9,7.0,100.0
8946,61.0,0,9,5.0,100.0
8947,58.0,10,9,10.0,100.0
8948,70.0,0,59,6.0,100.0
8949,53.0,0,29,3.0,90.0
8950,76.0,0,59,8.0,100.0
8951,62.0,0,9,5.0,100.0
8952,67.0,10,59,4.0,100.0
8953,60.0,0,9,10.0,100.0
8954,53.0,10,9,7.0,100.0
8955,52.0,0,9,7.0,100.0
8956,61.0,0,9,5.0,100.0
8957,53.0,0,9,7.0,100.0
8958,62.0,10,9,5.0,100.0
8959,52.0,0,29,3.0,90.0
8960,52.0,10,9,7.0,100.0
8961,58.0,10,29,10.0,100.0
8962,61.0,0,9,5.0,100.0
8963,53.0,0,9,7.0,100.0
8964,62.0,10,9,5.0,100.0
8965,57.0,0,14,10.0,100.0
8966,52.0,0,9,7.0,100.0
8967,61.0,10,9,5.0,100.0
8968,76.0,0,59,8.0,100.0
8969,62.0,5,9,5.0,100.0
8970,50.0,0,29,3.0,90.0
8971,70.0,0,59,6.0,100.0
8972,53.0,0,9,7.0,100.0
8973,67.0,0,59,4.0,100.0
8974,55.0,5,14,10.0,100.0
8975,57.0,0,29,10.0,100.0
8976,69.0,0,29,8.0,100.0
8977,64.0,0,29,6.0,100.0
8978,61.0,0,29,5.0,100.0
8979,52.0,0,29,7.0,100.0
8980,49.0,0,29,3.0,90.0
8981,49.0,0,29,10.0,100.0
8982,69.0,30,29,6.0,100.0
8983,76.0,0,29,8.0,100.0
8984,52.0,0,29,3.0,90.0
8985,57.0,0,59,4.0,100.0
8986,64.0,0,29,5.0,100.0
8987,49.0,0,29,7.0,100.0
8988,45.0,0,29,3.0,90.0
8989,57.0,0,29,5.0,100.0
8990,79.0,0,89,0.0,90.0
8991,45.0,0,29,10.0,100.0
8992,76.0,0,89,1.0,127.0
8993,45.0,0,29,7.0,100.0
8994,69.0,10,89,2.0,56.0
8995,73.0,0,29,6.0,100.0
8996,73.0,30,29,8.0,100.0
8997,49.0,0,29,7.0,100.0
8998,69.0,0,29,8.0,100.0
8999,61.0,0,29,5.0,100.0
9000,69.0,0,29,2.0,56.0
9001,69.0,0,29,1.0,127.0
9002,79.0,0,29,4.0,100.0
9003,49.0,0,29,3.0,90.0
9004,49.0,30,29,10.0,100.0
9005,76.0,0,29,6.0,100.0
9006,76.0,0,29,0.0,90.0
9007,50.0,0,59,7.0,100.0
9008,77.0,0,59,0.0,90.0
9009,74.0,0,59,1.0,127.0
9010,81.0,0,59,8.0,100.0
9011,62.0,0,59,5.0,100.0
9012,50.0,0,59,3.0,90.0
9013,74.0,30,59,6.0,100.0
9014,77.0,0,59,4.0,100.0
9015,50.0,0,59,10.0,100.0
9016,69.0,0,59,2.0,56.0
9017,55.0,0,29,10.0,100.0
9018,55.0,0,29,3.0,90.0
9019,74.0,0,29,6.0,100.0
9020,55.0,0,29,5.0,100.0
9021,79.0,0,29,0.0,90.0
9022,76.0,0,29,4.0,100.0
9023,76.0,0,29,1.0,127.0
9024,74.0,90,29,2.0,56.0
9025,55.0,0,29,7.0,100.0
9026,70.0,0,29,8.0,100.0
9027,57.0,0,59,5.0,100.0
9028,69.0,0,59,2.0,56.0
9029,57.0,0,59,3.0,90.0
9030,69.0,0,59,8.0,100.0
9031,57.0,0,59,7.0,100.0
9032,57.0,0,59,10.0,100.0
9033,76.0,0,89,4.0,100.0
9034,76.0,0,89,0.0,90.0
9035,73.0,0,89,6.0,100.0
9036,73.0,30,89,1.0,127.0
9037,45.0,0,59,5.0,100.0
9038,67.0,60,59,8.0,100.0
9039,61.0,0,59,8.0,100.0
9040,74.0,0,29,0.0,90.0
9041,67.0,0,59,2.0,56.0
9042,45.0,0,59,3.0,90.0
9043,45.0,0,59,7.0,100.0
9044,45.0,0,59,10.0,100.0
9045,74.0,0,29,1.0,127.0
9046,74.0,0,29,6.0,100.0
9047,74.0,30,29,4.0,100.0
9048,57.0,0,59,8.0,100.0
9049,65.0,0,59,8.0,100.0
9050,74.0,30,59,4.0,100.0
9051,38.0,0,59,5.0,100.0
9052,38.0,0,59,3.0,90.0
9053,74.0,0,59,0.0,90.0
9054,38.0,0,59,7.0,100.0
9055,74.0,0,59,1.0,127.0
9056,74.0,0,59,6.0,100.0
9057,38.0,0,59,10.0,100.0
9058,65.0,0,59,2.0,56.0
9059,50.0,0,59,7.0,100.0
9060,62.0,0,59,0.0,90.0
9061,62.0,0,59,1.0,127.0
9062,62.0,60,59,4.0,100.0
9063,50.0,0,59,5.0,100.0
9064,50.0,0,59,10.0,100.0
9065,62.0,0,59,8.0,100.0
9066,50.0,0,59,3.0,90.0
9067,62.0,0,59,6.0,100.0
9068,62.0,0,59,2.0,56.0
9069,64.0,0,59,4.0,100.0
9070,52.0,0,59,3.0,90.0
9071,64.0,0,59,1.0,127.0
9072,64.0,0,59,2.0,56.0
9073,52.0,0,59,7.0,100.0
9074,52.0,0,59,5.0,100.0
9075,64.0,0,59,8.0,100.0
9076,64.0,60,59,0.0,90.0
9077,64.0,0,59,6.0,100.0
9078,52.0,0,59,10.0,100.0
9079,65.0,0,59,4.0,100.0
9080,65.0,0,59,8.0,100.0
9081,65.0,0,59,0.0,90.0
9082,65.0,0,59,1.0,127.0
9083,53.0,60,59,10.0,100.0
9084,53.0,0,59,5.0,100.0
9085,65.0,0,59,6.0,100.0
9086,65.0,0,59,2.0,56.0
9087,53.0,0,59,7.0,100.0
9088,53.0,0,59,3.0,90.0
9089,53.0,0,59,3.0,90.0
9090,65.0,0,59,0.0,90.0
9091,65.0,0,59,1.0,127.0
9092,53.0,60,59,5.0,100.0
9093,65.0,0,59,2.0,56.0
9094,65.0,0,59,8.0,100.0
9095,53.0,0,59,7.0,100.0
9096,53.0,0,59,10.0,100.0
9097,65.0,0,59,4.0,100.0
9098,65.0,0,59,6.0,100.0
9099,67.0,0,59,8.0,100.0
9100,55.0,0,59,3.0,90.0
9101,67.0,0,59,6.0,100.0
9102,55.0,0,59,5.0,100.0
9103,67.0,0,59,1.0,127.0
9104,67.0,0,59,4.0,100.0
9105,67.0,0,59,0.0,90.0
9106,67.0,0,59,2.0,56.0
9107,55.0,0,59,7.0,100.0
9108,55.0,60,59,10.0,100.0
9109,69.0,0,59,2.0,56.0
9110,57.0,0,59,10.0,100.0
9111,57.0,0,59,7.0,100.0
9112,69.0,60,59,8.0,100.0
9113,57.0,0,59,5.0,100.0
9114,69.0,0,59,6.0,100.0
9115,69.0,0,59,0.0,90.0
9116,69.0,0,59,1.0,127.0
9117,69.0,0,59,4.0,100.0
9118,57.0,0,59,3.0,90.0
9119,69.0,0,59,4.0,100.0
9120,69.0,0,59,2.0,56.0
9121,57.0,0,59,7.0,100.0
9122,69.0,0,59,0.0,90.0
9123,57.0,0,59,3.0,90.0
9124,69.0,0,59,6.0,100.0
9125,69.0,60,59,8.0,100.0
9126,57.0,0,59,5.0,100.0
9127,69.0,0,59,1.0,127.0
9128,57.0,0,59,10.0,100.0
9129,58.0,0,59,3.0,90.0
9130,70.0,0,59,2.0,56.0
9131,70.0,0,59,0.0,90.0
9132,70.0,0,59,1.0,127.0
9133,70.0,0,59,6.0,100.0
9134,58.0,0,59,10.0,100.0
9135,70.0,0,59,8.0,100.0
9136,58.0,0,59,7.0,100.0
9137,70.0,60,59,4.0,100.0
9138,58.0,0,59,5.0,100.0
9139,57.0,0,59,3.0,90.0
9140,57.0,0,59,10.0,100.0
9141,69.0,0,59,2.0,56.0
9142,69.0,0,59,0.0,90.0
9143,69.0,0,59,6.0,100.0
9144,69.0,0,59,1.0,127.0
9145,57.0,0,59,7.0,100.0
9146,57.0,0,59,5.0,100.0
9147,69.0,0,59,4.0,100.0
9148,69.0,60,59,8.0,100.0
9149,67.0,60,29,0.0,90.0
9150,67.0,0,29,4.0,100.0
9151,67.0,0,29,2.0,56.0
9152,55.0,0,29,3.0,90.0
9153,55.0,0,29,7.0,100.0
9154,67.0,0,29,8.0,100.0
9155,67.0,0,29,1.0,127.0
9156,55.0,0,29,10.0,100.0
9157,55.0,0,29,5.0,100.0
9158,67.0,0,29,6.0,100.0
9159,53.0,0,29,7.0,100.0
9160,65.0,0,29,8.0,100.0
9161,65.0,0,29,0.0,90.0
9162,65.0,0,29,2.0,56.0
9163,53.0,30,29,5.0,100.0
9164,65.0,0,29,1.0,127.0
9165,65.0,0,29,4.0,100.0
9166,53.0,0,29,3.0,90.0
9167,65.0,0,29,6.0,100.0
9168,53.0,0,29,10.0,100.0
9169,64.0,0,29,8.0,100.0
9170,64.0,0,29,6.0,100.0
9171,64.0,0,29,2.0,56.0
9172,52.0,0,29,10.0,100.0
9173,64.0,0,29,4.0,100.0
9174,52.0,0,29,3.0,90.0
9175,64.0,0,29,1.0,127.0
9176,52.0,0,29,5.0,100.0
9177,52.0,0,29,7.0,100.0
9178,64.0,30,29,0.0,90.0
9179,50.0,0,29,3.0,90.0
9180,62.0,0,29,1.0,127.0
9181,50.0,0,29,5.0,100.0
9182,62.0,0,29,0.0,90.0
9183,62.0,0,29,8.0,100.0
9184,62.0,30,29,4.0,100.0
9185,62.0,0,29,2.0,56.0
9186,62.0,0,29,6.0,100.0
9187,50.0,0,29,7.0,100.0
9188,50.0,0,29,10.0,100.0
9189,49.0,0,59,5.0,100.0
9190,61.0,0,59,1.0,127.0
9191,49.0,0,59,3.0,90.0
9192,49.0,0,59,10.0,100.0
9193,61.0,30,59,2.0,56.0
9194,61.0,0,59,0.0,90.0
9195,49.0,0,59,7.0,100.0
9196,61.0,0,59,8.0,100.0
9197,61.0,0,59,6.0,100.0
9198,61.0,0,59,4.0,100.0
9199,45.0,0,29,10.0,100.0
9200,57.0,0,29,2.0,56.0
9201,57.0,0,29,4.0,100.0
9202,45.0,0,29,3.0,90.0
9203,57.0,0,29,8.0,100.0
9204,45.0,0,29,5.0,100.0
9205,57.0,0,29,6.0,100.0
9206,45.0,60,29,7.0,100.0
9207,57.0,0,30,0.0,90.0
9208,57.0,0,30,1.0,127.0
9209,47.0,0,29,5.0,100.0
9210,47.0,0,29,10.0,100.0
9211,59.0,0,29,8.0,100.0
9212,47.0,0,29,3.0,90.0
9213,59.0,0,29,2.0,56.0
9214,47.0,0,29,7.0,100.0
9215,59.0,0,29,6.0,100.0
9216,59.0,0,29,4.0,100.0
9217,59.0,0,30,1.0,127.0
9218,59.0,30,30,0.0,90.0
9219,49.0,0,29,3.0,90.0
9220,49.0,0,29,5.0,100.0
9221,61.0,0,29,8.0,100.0
9222,61.0,0,29,6.0,100.0
9223,61.0,0,29,2.0,56.0
9224,61.0,0,29,4.0,100.0
9225,49.0,30,29,7.0,100.0
9226,49.0,0,29,10.0,100.0
9227,61.0,0,30,0.0,90.0
9228,61.0,0,30,1.0,127.0
9229,62.0,0,29,4.0,100.0
9230,50.0,0,29,7.0,100.0
9231,50.0,0,29,10.0,100.0
9232,62.0,0,29,2.0,56.0
9233,50.0,0,29,5.0,100.0
9234,62.0,0,29,8.0,100.0
9235,62.0,30,29,6.0,100.0
9236,50.0,0,29,3.0,90.0
9237,62.0,0,30,0.0,90.0
9238,62.0,0,30,1.0,127.0
9239,64.0,30,59,8.0,100.0
9240,64.0,0,59,6.0,100.0
9241,52.0,0,59,5.0,100.0
9242,64.0,0,59,4.0,100.0
9243,64.0,0,59,2.0,56.0
9244,64.0,0,59,1.0,127.0
9245,52.0,0,59,10.0,100.0
9246,52.0,0,59,7.0,100.0
9247,52.0,0,59,3.0,90.0
9248,64.0,0,59,0.0,90.0
9249,52.0,0,59,3.0,90.0
9250,64.0,0,59,0.0,90.0
9251,64.0,0,59,2.0,56.0
9252,64.0,0,59,8.0,100.0
9253,52.0,0,59,10.0,100.0
9254,64.0,0,59,6.0,100.0
9255,52.0,60,59,5.0,100.0
9256,64.0,0,59,4.0,100.0
9257,64.0,0,59,1.0,127.0
9258,52.0,0,59,7.0,100.0
9259,53.0,0,59,7.0,100.0
9260,65.0,0,59,6.0,100.0
9261,65.0,0,59,0.0,90.0
9262,65.0,0,59,4.0,100.0
9263,65.0,0,59,1.0,127.0
9264,53.0,0,59,10.0,100.0
9265,65.0,0,59,8.0,100.0
9266,53.0,0,59,5.0,100.0
9267,53.0,60,59,3.0,90.0
9268,65.0,0,59,2.0,56.0
9269,64.0,0,59,8.0,100.0
9270,64.0,0,59,0.0,90.0
9271,52.0,0,59,7.0,100.0
9272,52.0,0,59,10.0,100.0
9273,64.0,0,59,4.0,100.0
9274,64.0,0,59,1.0,127.0
9275,64.0,0,59,2.0,56.0
9276,64.0,60,59,6.0,100.0
9277,52.0,0,59,5.0,100.0
9278,52.0,0,59,3.0,90.0
9279,57.0,0,29,8.0,100.0
9280,57.0,0,29,1.0,127.0
9281,57.0,0,29,6.0,100.0
9282,45.0,0,29,10.0,100.0
9283,45.0,60,29,3.0,90.0
9284,57.0,0,29,4.0,100.0
9285,57.0,0,29,2.0,56.0
9286,45.0,0,29,7.0,100.0
9287,57.0,0,29,0.0,90.0
9288,45.0,0,29,5.0,100.0
9289,59.0,0,29,2.0,56.0
9290,59.0,0,29,6.0,100.0
9291,59.0,30,29,0.0,90.0
9292,59.0,0,29,8.0,100.0
9293,47.0,0,29,5.0,100.0
9294,47.0,0,29,7.0,100.0
9295,47.0,0,29,10.0,100.0
9296,47.0,0,29,3.0,90.0
9297,59.0,0,29,4.0,100.0
9298,59.0,0,29,1.0,127.0
9299,49.0,0,29,7.0,100.0
9300,61.0,0,29,4.0,100.0
9301,49.0,30,29,3.0,90.0
9302,61.0,0,29,1.0,127.0
9303,61.0,0,29,0.0,90.0
9304,61.0,0,29,6.0,100.0
9305,61.0,0,29,2.0,56.0
9306,61.0,0,29,8.0,100.0
9307,49.0,0,29,5.0,100.0
9308,49.0,0,29,10.0,100.0
9309,62.0,0,29,0.0,90.0
9310,50.0,0,29,5.0,100.0
9311,50.0,0,29,7.0,100.0
9312,62.0,0,29,4.0,100.0
9313,62.0,0,29,2.0,56.0
9314,50.0,0,29,10.0,100.0
9315,62.0,0,29,1.0,127.0
9316,62.0,0,29,6.0,100.0
9317,50.0,30,29,3.0,90.0
9318,62.0,0,29,8.0,100.0
9319,64.0,0,59,6.0,100.0
9320,52.0,0,59,3.0,90.0
9321,52.0,0,59,10.0,100.0
9322,52.0,0,59,5.0,100.0
9323,64.0,0,59,2.0,56.0
9324,64.0,0,59,4.0,100.0
9325,64.0,0,59,0.0,90.0
9326,64.0,0,59,1.0,127.0
9327,52.0,0,59,7.0,100.0
9328,64.0,30,59,8.0,100.0
9329,64.0,0,59,8.0,100.0
9330,64.0,0,59,0.0,90.0
9331,64.0,0,59,6.0,100.0
9332,64.0,0,59,4.0,100.0
9333,52.0,0,59,7.0,100.0
9334,52.0,0,59,3.0,90.0
9335,64.0,0,59,2.0,56.0
9336,52.0,60,59,5.0,100.0
9337,52.0,0,59,10.0,100.0
9338,64.0,0,59,1.0,127.0
9339,65.0,0,59,4.0,100.0
9340,65.0,0,59,1.0,127.0
9341,53.0,0,59,7.0,100.0
9342,53.0,60,59,10.0,100.0
9343,65.0,0,59,2.0,56.0
9344,65.0,0,59,8.0,100.0
9345,53.0,0,59,5.0,100.0
9346,65.0,0,59,6.0,100.0
9347,65.0,0,59,0.0,90.0
9348,53.0,0,59,3.0,90.0
9349,52.0,0,59,5.0,100.0
9350,64.0,0,59,2.0,56.0
9351,52.0,0,59,10.0,100.0
9352,64.0,0,59,1.0,127.0
9353,64.0,0,59,8.0,100.0
9354,64.0,0,59,6.0,100.0
9355,52.0,0,59,3.0,90.0
9356,52.0,0,59,7.0,100.0
9357,64.0,60,59,0.0,90.0
9358,64.0,0,59,4.0,100.0
9359,45.0,0,29,7.0,100.0
9360,57.0,0,29,2.0,56.0
9361,45.0,0,29,10.0,100.0
9362,45.0,0,29,3.0,90.0
9363,57.0,0,29,1.0,127.0
9364,57.0,0,29,6.0,100.0
9365,57.0,0,29,8.0,100.0
9366,57.0,60,29,0.0,90.0
9367,57.0,0,29,4.0,100.0
9368,45.0,0,29,5.0,100.0
9369,47.0,0,29,5.0,100.0
9370,47.0,30,29,3.0,90.0
9371,47.0,0,29,10.0,100.0
9372,59.0,0,29,1.0,127.0
9373,59.0,0,29,0.0,90.0
9374,59.0,0,29,6.0,100.0
9375,59.0,0,29,2.0,56.0
9376,59.0,0,29,8.0,100.0
9377,59.0,0,29,4.0,100.0
9378,47.0,0,29,7.0,100.0
9379,61.0,0,29,4.0,100.0
9380,61.0,0,29,1.0,127.0
9381,61.0,0,29,6.0,100.0
9382,49.0,0,29,5.0,100.0
9383,61.0,0,29,8.0,100.0
9384,61.0,30,29,2.0,56.0
9385,49.0,0,29,7.0,100.0
9386,49.0,0,29,10.0,100.0
9387,49.0,0,29,3.0,90.0
9388,61.0,0,29,0.0,90.0
9389,50.0,0,29,5.0,100.0
9390,50.0,0,29,10.0,100.0
9391,50.0,0,29,7.0,100.0
9392,62.0,0,29,1.0,127.0
9393,62.0,0,29,8.0,100.0
9394,50.0,0,29,3.0,90.0
9395,62.0,0,29,0.0,90.0
9396,62.0,30,29,4.0,100.0
9397,62.0,0,29,2.0,56.0
9398,62.0,0,29,6.0,100.0
9399,64.0,0,29,2.0,56.0
9400,52.0,0,29,7.0,100.0
9401,64.0,0,29,1.0,127.0
9402,52.0,0,29,5.0,100.0
9403,64.0,0,29,8.0,100.0
9404,52.0,30,29,3.0,90.0
9405,64.0,0,29,6.0,100.0
9406,64.0,0,29,4.0,100.0
9407,64.0,0,29,0.0,90.0
9408,52.0,0,29,10.0,100.0
9409,62.0,0,29,2.0,56.0
9410,62.0,0,29,8.0,100.0
9411,50.0,0,29,3.0,90.0
9412,62.0,0,29,6.0,100.0
9413,50.0,0,29,10.0,100.0
9414,62.0,0,29,1.0,127.0
9415,50.0,0,29,7.0,100.0
9416,50.0,30,29,5.0,100.0
9417,62.0,0,29,4.0,100.0
9418,62.0,0,29,0.0,90.0
9419,49.0,0,29,5.0,100.0
9420,49.0,0,29,7.0,100.0
9421,61.0,0,29,6.0,100.0
9422,61.0,0,29,0.0,90.0
9423,49.0,0,29,10.0,100.0
9424,61.0,0,29,4.0,100.0
9425,61.0,0,29,8.0,100.0
9426,49.0,0,29,3.0,90.0
9427,61.0,30,29,2.0,56.0
9428,61.0,0,29,1.0,127.0
9429,62.0,0,29,1.0,127.0
9430,62.0,0,29,2.0,56.0
9431,50.0,0,29,3.0,90.0
9432,50.0,0,29,7.0,100.0
9433,62.0,0,29,6.0,100.0
9434,62.0,0,29,8.0,100.0
9435,50.0,0,29,10.0,100.0
9436,62.0,30,29,4.0,100.0
9437,62.0,0,29,0.0,90.0
9438,50.0,0,29,5.0,100.0
9439,64.0,0,29,2.0,56.0
9440,64.0,0,29,0.0,90.0
9441,64.0,0,29,8.0,100.0
9442,52.0,30,29,10.0,100.0
9443,64.0,0,29,4.0,100.0
9444,64.0,0,29,6.0,100.0
9445,52.0,0,29,3.0,90.0
9446,52.0,0,29,5.0,100.0
9447,52.0,0,29,7.0,100.0
9448,64.0,0,29,1.0,127.0
9449,53.0,0,29,3.0,90.0
9450,65.0,0,29,8.0,100.0
9451,65.0,0,29,4.0,100.0
9452,65.0,0,29,2.0,56.0
9453,53.0,0,29,5.0,100.0
9454,65.0,0,29,6.0,100.0
9455,65.0,0,29,0.0,90.0
9456,53.0,30,29,7.0,100.0
9457,65.0,0,29,1.0,127.0
9458,53.0,0,29,10.0,100.0
9459,55.0,0,29,7.0,100.0
9460,67.0,0,29,0.0,90.0
9461,67.0,0,29,4.0,100.0
9462,67.0,30,29,8.0,100.0
9463,55.0,0,29,10.0,100.0
9464,67.0,0,29,2.0,56.0
9465,67.0,0,29,1.0,127.0
9466,55.0,0,29,3.0,90.0
9467,55.0,0,29,5.0,100.0
9468,67.0,0,29,6.0,100.0
9469,65.0,0,29,6.0,100.0
9470,65.0,0,29,1.0,127.0
9471,53.0,0,29,3.0,90.0
9472,53.0,30,29,10.0,100.0
9473,53.0,0,29,5.0,100.0
9474,65.0,0,29,0.0,90.0
9475,53.0,0,29,7.0,100.0
9476,65.0,0,29,8.0,100.0
9477,65.0,0,29,4.0,100.0
9478,65.0,0,29,2.0,56.0
9479,52.0,0,29,3.0,90.0
9480,52.0,30,29,10.0,100.0
9481,52.0,0,29,5.0,100.0
9482,64.0,0,29,8.0,100.0
9483,64.0,0,29,4.0,100.0
9484,64.0,0,29,2.0,56.0
9485,64.0,0,29,6.0,100.0
9486,52.0,0,29,7.0,100.0
9487,64.0,0,29,0.0,90.0
9488,64.0,0,29,1.0,127.0
9489,65.0,0,29,8.0,100.0
9490,65.0,0,29,4.0,100.0
9491,65.0,0,29,2.0,56.0
9492,65.0,0,29,0.0,90.0
9493,53.0,0,29,3.0,90.0
9494,65.0,0,29,6.0,100.0
9495,53.0,0,29,7.0,100.0
9496,53.0,0,29,10.0,100.0
9497,53.0,0,29,5.0,100.0
9498,65.0,30,29,1.0,127.0
9499,67.0,30,29,2.0,56.0
9500,67.0,0,29,0.0,90.0
9501,67.0,0,29,8.0,100.0
9502,55.0,0,29,10.0,100.0
9503,67.0,0,29,1.0,127.0
9504,67.0,0,29,4.0,100.0
9505,67.0,0,29,6.0,100.0
9506,55.0,0,29,5.0,100.0
9507,55.0,0,29,7.0,100.0
9508,55.0,0,29,3.0,90.0
9509,69.0,0,29,8.0,100.0
9510,69.0,0,29,6.0,100.0
9511,57.0,0,29,3.0,90.0
9512,69.0,30,29,4.0,100.0
9513,69.0,0,29,1.0,127.0
9514,69.0,0,29,0.0,90.0
9515,57.0,0,29,5.0,100.0
9516,69.0,0,29,2.0,56.0
9517,57.0,0,29,7.0,100.0
9518,57.0,0,29,10.0,100.0
9519,70.0,0,29,6.0,100.0
9520,70.0,0,29,2.0,56.0
9521,70.0,0,29,1.0,127.0
9522,58.0,0,29,7.0,100.0
9523,58.0,0,29,5.0,100.0
9524,58.0,30,29,3.0,90.0
9525,70.0,0,29,8.0,100.0
9526,58.0,0,29,10.0,100.0
9527,70.0,0,29,0.0,90.0
9528,70.0,0,29,4.0,100.0
9529,57.0,0,29,5.0,100.0
9530,69.0,0,29,1.0,127.0
9531,57.0,0,29,7.0,100.0
9532,69.0,30,29,0.0,90.0
9533,57.0,0,29,10.0,100.0
9534,69.0,0,29,2.0,56.0
9535,57.0,0,29,3.0,90.0
9536,69.0,0,29,4.0,100.0
9537,69.0,0,29,6.0,100.0
9538,69.0,0,29,8.0,100.0
9539,67.0,0,29,0.0,90.0
9540,55.0,0,29,3.0,90.0
9541,67.0,0,29,8.0,100.0
9542,67.0,0,29,2.0,56.0
9543,67.0,0,29,4.0,100.0
9544,55.0,0,29,7.0,100.0
9545,55.0,0,29,10.0,100.0
9546,67.0,0,29,6.0,100.0
9547,55.0,0,29,5.0,100.0
9548,67.0,30,29,1.0,127.0
9549,65.0,0,29,0.0,90.0
9550,65.0,0,29,8.0,100.0
9551,53.0,30,29,7.0,100.0
9552,65.0,0,29,4.0,100.0
9553,53.0,0,29,5.0,100.0
9554,53.0,0,29,10.0,100.0
9555,65.0,0,29,2.0,56.0
9556,53.0,0,29,3.0,90.0
9557,65.0,0,29,6.0,100.0
9558,65.0,0,29,1.0,127.0
9559,64.0,0,29,1.0,127.0
9560,64.0,0,29,8.0,100.0
9561,64.0,0,29,0.0,90.0
9562,64.0,30,29,4.0,100.0
9563,52.0,0,29,7.0,100.0
9564,64.0,0,29,2.0,56.0
9565,64.0,0,29,6.0,100.0
9566,52.0,0,29,5.0,100.0
9567,52.0,0,29,3.0,90.0
9568,52.0,0,29,10.0,100.0
9569,62.0,0,29,1.0,127.0
9570,62.0,0,29,0.0,90.0
9571,50.0,0,29,7.0,100.0
9572,50.0,0,29,5.0,100.0
9573,62.0,0,29,4.0,100.0
9574,62.0,0,29,6.0,100.0
9575,50.0,30,29,3.0,90.0
9576,50.0,0,29,10.0,100.0
9577,62.0,0,29,2.0,56.0
9578,62.0,0,29,8.0,100.0
9579,49.0,0,29,7.0,100.0
9580,61.0,0,29,1.0,127.0
9581,49.0,0,29,5.0,100.0
9582,61.0,0,29,0.0,90.0
9583,49.0,0,29,3.0,90.0
9584,49.0,0,29,10.0,100.0
9585,61.0,0,29,4.0,100.0
9586,61.0,30,29,8.0,100.0
9587,61.0,0,29,6.0,100.0
9588,61.0,0,29,2.0,56.0
9589,52.0,30,29,10.0,100.0
9590,64.0,0,29,2.0,56.0
9591,64.0,0,29,6.0,100.0
9592,52.0,0,29,7.0,100.0
9593,64.0,0,29,8.0,100.0
9594,52.0,0,29,5.0,100.0
9595,64.0,0,29,4.0,100.0
9596,64.0,0,29,0.0,90.0
9597,52.0,0,29,3.0,90.0
9598,64.0,0,29,1.0,127.0
9599,45.0,0,29,3.0,90.0
9600,57.0,0,29,0.0,90.0
9601,45.0,0,29,7.0,100.0
9602,57.0,0,29,8.0,100.0
9603,45.0,0,29,5.0,100.0
9604,57.0,0,29,1.0,127.0
9605,57.0,0,29,4.0,100.0
9606,57.0,30,29,6.0,100.0
9607,57.0,0,29,2.0,56.0
9608,45.0,0,29,10.0,100.0
9609,49.0,0,29,5.0,100.0
9610,61.0,30,29,0.0,90.0
9611,61.0,0,29,6.0,100.0
9612,61.0,0,29,1.0,127.0
9613,61.0,0,29,8.0,100.0
9614,49.0,0,29,7.0,100.0
9615,49.0,0,29,3.0,90.0
9616,49.0,0,29,10.0,100.0
9617,61.0,0,29,2.0,56.0
9618,61.0,0,29,4.0,100.0
9619,62.0,0,59,0.0,90.0
9620,50.0,0,59,7.0,100.0
9621,62.0,0,59,8.0,100.0
9622,62.0,0,59,1.0,127.0
9623,62.0,30,59,6.0,100.0
9624,62.0,0,59,2.0,56.0
9625,62.0,0,59,4.0,100.0
9626,50.0,0,59,10.0,100.0
9627,50.0,0,59,3.0,90.0
9628,50.0,0,59,5.0,100.0
9629,55.0,0,29,4.0,100.0
9630,55.0,0,29,1.0,127.0
9631,55.0,0,29,2.0,56.0
9632,43.0,0,29,5.0,100.0
9633,55.0,0,29,8.0,100.0
9634,43.0,0,29,10.0,100.0
9635,43.0,90,29,3.0,90.0
9636,43.0,0,29,7.0,100.0
9637,55.0,0,29,6.0,100.0
9638,55.0,0,29,0.0,90.0
9639,45.0,0,59,7.0,100.0
9640,45.0,0,59,10.0,100.0
9641,45.0,0,59,5.0,100.0
9642,45.0,0,59,3.0,90.0
9643,57.0,0,59,1.0,127.0
9644,57.0,30,59,0.0,90.0
9645,57.0,0,59,2.0,56.0
9646,57.0,0,59,8.0,100.0
9647,57.0,0,59,4.0,100.0
9648,57.0,0,59,6.0,100.0
9649,57.0,0,59,2.0,56.0
9650,57.0,0,59,6.0,100.0
9651,57.0,0,59,1.0,127.0
9652,45.0,60,59,10.0,100.0
9653,57.0,0,59,4.0,100.0
9654,57.0,0,59,8.0,100.0
9655,45.0,0,59,5.0,100.0
9656,57.0,0,59,0.0,90.0
9657,45.0,0,59,7.0,100.0
9658,45.0,0,59,3.0,90.0
9659,62.0,0,179,1.0,127.0
9660,62.0,0,179,0.0,90.0
9661,38.0,0,179,3.0,90.0
9662,38.0,0,179,5.0,100.0
9663,62.0,0,179,6.0,100.0
9664,50.0,0,179,2.0,56.0
9665,50.0,0,179,10.0,100.0
9666,38.0,0,179,10.0,100.0
9667,50.0,0,179,5.0,100.0
9668,62.0,0,179,8.0,100.0
9669,62.0,60,179,4.0,100.0
9670,50.0,0,179,7.0,100.0
9671,38.0,0,179,7.0,100.0
9672,77.0,0,15,8.0,100.0
9673,77.0,0,15,6.0,100.0
9674,77.0,0,15,4.0,100.0
9675,76.0,0,15,4.0,100.0
9676,76.0,0,15,6.0,100.0
9677,53.0,0,30,3.0,90.0
9678,76.0,15,15,8.0,100.0
9679,53.0,0,59,5.0,100.0
9680,57.0,0,59,5.0,100.0
9681,60.0,0,59,10.0,100.0
9682,60.0,0,59,5.0,100.0
9683,57.0,360,59,10.0,100.0
9684,57.0,0,59,7.0,100.0
9685,53.0,0,59,10.0,100.0
9686,53.0,0,59,7.0,100.0
9687,60.0,0,59,7.0,100.0
9688,77.0,15,45,4.0,100.0
9689,77.0,0,45,8.0,100.0
9690,77.0,0,45,6.0,100.0
9691,77.0,0,89,0.0,90.0
9692,69.0,0,30,1.0,127.0
9693,53.0,0,30,3.0,90.0
9694,65.0,30,30,2.0,56.0
9695,72.0,30,29,4.0,100.0
9696,72.0,0,29,0.0,90.0
9697,72.0,0,29,8.0,100.0
9698,72.0,0,29,6.0,100.0
9699,72.0,0,29,8.0,100.0
9700,72.0,0,29,4.0,100.0
9701,72.0,0,29,0.0,90.0
9702,72.0,0,29,6.0,100.0
9703,70.0,30,30,1.0,127.0
9704,53.0,0,30,3.0,90.0
9705,65.0,0,30,2.0,56.0
9706,53.0,0,30,3.0,90.0
9707,58.0,0,59,5.0,100.0
9708,74.0,0,89,4.0,100.0
9709,58.0,0,59,10.0,100.0
9710,55.0,0,59,10.0,100.0
9711,64.0,0,59,10.0,100.0
9712,64.0,0,59,5.0,100.0
9713,74.0,30,89,0.0,90.0
9714,64.0,0,59,7.0,100.0
9715,55.0,0,59,5.0,100.0
9716,74.0,0,89,8.0,100.0
9717,55.0,30,59,7.0,100.0
9718,74.0,0,89,6.0,100.0
9719,58.0,0,59,7.0,100.0
9720,72.0,0,10,6.0,100.0
9721,72.0,0,10,4.0,100.0
9722,72.0,0,10,8.0,100.0
9723,74.0,0,10,6.0,100.0
9724,74.0,10,10,8.0,100.0
9725,74.0,0,10,4.0,100.0
9726,72.0,0,29,0.0,90.0
9727,67.0,0,30,1.0,127.0
9728,53.0,0,30,3.0,90.0
9729,72.0,0,10,8.0,100.0
9730,72.0,10,10,6.0,100.0
9731,64.0,60,30,2.0,56.0
9732,72.0,0,10,4.0,100.0
9733,70.0,0,29,8.0,100.0
9734,70.0,10,29,6.0,100.0
9735,70.0,0,29,4.0,100.0
9736,70.0,0,29,0.0,90.0
9737,69.0,0,29,0.0,90.0
9738,69.0,0,29,6.0,100.0
9739,69.0,0,29,8.0,100.0
9740,69.0,0,29,4.0,100.0
9741,60.0,0,30,2.0,56.0
9742,64.0,30,30,1.0,127.0
9743,53.0,0,30,3.0,90.0
9744,70.0,30,29,6.0,100.0
9745,70.0,0,29,8.0,100.0
9746,70.0,0,29,0.0,90.0
9747,70.0,0,29,4.0,100.0
9748,70.0,0,29,8.0,100.0
9749,70.0,0,29,6.0,100.0
9750,70.0,0,29,4.0,100.0
9751,70.0,0,29,0.0,90.0
9752,53.0,0,30,3.0,90.0
9753,69.0,0,8,6.0,100.0
9754,69.0,0,8,8.0,100.0
9755,69.0,0,8,4.0,100.0
9756,70.0,0,8,8.0,100.0
9757,70.0,0,8,4.0,100.0
9758,70.0,7,8,6.0,100.0
9759,65.0,0,59,10.0,100.0
9760,60.0,0,59,10.0,100.0
9761,53.0,0,59,10.0,100.0
9762,65.0,0,59,5.0,100.0
9763,60.0,0,59,5.0,100.0
9764,53.0,0,59,5.0,100.0
9765,53.0,0,59,7.0,100.0
9766,60.0,0,59,7.0,100.0
9767,65.0,30,59,7.0,100.0
9768,69.0,30,59,0.0,90.0
9769,65.0,0,30,1.0,127.0
9770,53.0,0,30,3.0,90.0
9771,69.0,8,45,6.0,100.0
9772,60.0,15,30,2.0,56.0
9773,69.0,0,45,8.0,100.0
9774,69.0,0,45,4.0,100.0
9775,70.0,30,29,6.0,100.0
9776,70.0,0,29,4.0,100.0
9777,70.0,0,29,0.0,90.0
9778,70.0,0,29,8.0,100.0
9779,53.0,0,30,3.0,90.0
9780,65.0,0,30,2.0,56.0
9781,69.0,0,30,1.0,127.0
9782,72.0,0,59,6.0,100.0
9783,72.0,0,59,0.0,90.0
9784,72.0,30,59,8.0,100.0
9785,72.0,0,59,4.0,100.0
9786,65.0,0,29,0.0,90.0
9787,65.0,0,29,6.0,100.0
9788,65.0,0,29,4.0,100.0
9789,65.0,0,29,8.0,100.0
9790,53.0,0,30,3.0,90.0
9791,53.0,0,59,5.0,100.0
9792,53.0,60,59,10.0,100.0
9793,60.0,0,59,10.0,100.0
9794,57.0,0,59,10.0,100.0
9795,60.0,0,59,5.0,100.0
9796,53.0,0,59,7.0,100.0
9797,57.0,0,59,7.0,100.0
9798,57.0,0,59,5.0,100.0
9799,60.0,0,59,7.0,100.0
9800,69.0,0,29,8.0,100.0
9801,69.0,0,29,0.0,90.0
9802,69.0,0,29,6.0,100.0
9803,69.0,60,29,4.0,100.0
9804,53.0,0,30,3.0,90.0
9805,72.0,0,30,1.0,127.0
9806,65.0,0,30,2.0,56.0
9807,72.0,0,29,4.0,100.0
9808,72.0,60,29,6.0,100.0
9809,72.0,0,29,8.0,100.0
9810,72.0,0,29,0.0,90.0
9811,53.0,0,30,3.0,90.0
9812,77.0,0,30,1.0,127.0
9813,69.0,0,30,2.0,56.0
9814,79.0,0,8,8.0,100.0
9815,79.0,0,8,6.0,100.0
9816,79.0,0,8,4.0,100.0
9817,77.0,0,8,6.0,100.0
9818,77.0,7,8,8.0,100.0
9819,77.0,0,8,4.0,100.0
9820,53.0,0,30,3.0,90.0
9821,62.0,0,59,10.0,100.0
9822,59.0,0,59,10.0,100.0
9823,59.0,0,59,5.0,100.0
9824,53.0,0,59,7.0,100.0
9825,62.0,0,59,7.0,100.0
9826,53.0,0,59,10.0,100.0
9827,59.0,0,59,7.0,100.0
9828,62.0,0,59,5.0,100.0
9829,53.0,60,59,5.0,100.0
9830,79.0,0,89,0.0,90.0
9831,53.0,0,30,3.0,90.0
9832,79.0,0,75,6.0,100.0
9833,79.0,0,75,8.0,100.0
9834,79.0,8,75,4.0,100.0
9835,71.0,0,30,1.0,127.0
9836,62.0,45,30,2.0,56.0
9837,74.0,30,29,6.0,100.0
9838,74.0,0,29,4.0,100.0
9839,74.0,0,29,0.0,90.0
9840,74.0,0,29,8.0,100.0
9841,74.0,0,29,8.0,100.0
9842,74.0,0,29,0.0,90.0
9843,74.0,0,29,6.0,100.0
9844,74.0,0,29,4.0,100.0
9845,60.0,30,30,2.0,56.0
9846,72.0,0,30,1.0,127.0
9847,53.0,0,30,3.0,90.0
9848,54.0,0,30,3.0,90.0
9849,60.0,0,59,10.0,100.0
9850,57.0,0,59,10.0,100.0
9851,54.0,0,59,10.0,100.0
9852,75.0,0,89,0.0,90.0
9853,75.0,0,89,4.0,100.0
9854,60.0,30,59,7.0,100.0
9855,54.0,0,59,7.0,100.0
9856,75.0,0,89,6.0,100.0
9857,75.0,30,89,8.0,100.0
9858,60.0,0,59,5.0,100.0
9859,57.0,0,59,5.0,100.0
9860,54.0,0,59,5.0,100.0
9861,57.0,0,59,7.0,100.0
9862,74.0,0,29,0.0,90.0
9863,74.0,60,29,4.0,100.0
9864,74.0,0,29,6.0,100.0
9865,74.0,0,29,8.0,100.0
9866,54.0,0,30,3.0,90.0
9867,69.0,0,30,1.0,127.0
9868,62.0,0,30,2.0,56.0
9869,72.0,0,29,0.0,90.0
9870,72.0,30,29,6.0,100.0
9871,72.0,0,29,4.0,100.0
9872,72.0,0,29,8.0,100.0
9873,71.0,30,29,6.0,100.0
9874,71.0,0,29,4.0,100.0
9875,71.0,0,29,8.0,100.0
9876,71.0,0,29,0.0,90.0
9877,62.0,0,30,2.0,56.0
9878,69.0,0,30,1.0,127.0
9879,54.0,0,30,3.0,90.0
9880,72.0,0,29,4.0,100.0
9881,72.0,30,29,6.0,100.0
9882,72.0,0,29,8.0,100.0
9883,72.0,0,29,0.0,90.0
9884,72.0,0,29,4.0,100.0
9885,72.0,0,29,0.0,90.0
9886,72.0,0,29,6.0,100.0
9887,72.0,0,29,8.0,100.0
9888,55.0,30,30,3.0,90.0
9889,71.0,30,8,8.0,100.0
9890,71.0,0,8,6.0,100.0
9891,71.0,0,8,4.0,100.0
9892,72.0,0,8,8.0,100.0
9893,72.0,7,8,6.0,100.0
9894,72.0,0,8,4.0,100.0
9895,55.0,0,59,7.0,100.0
9896,67.0,0,59,7.0,100.0
9897,67.0,0,59,10.0,100.0
9898,62.0,0,59,10.0,100.0
9899,62.0,0,59,5.0,100.0
9900,55.0,0,59,5.0,100.0
9901,67.0,0,59,5.0,100.0
9902,62.0,0,59,7.0,100.0
9903,55.0,0,59,10.0,100.0
9904,71.0,0,59,0.0,90.0
9905,71.0,0,45,8.0,100.0
9906,62.0,15,30,2.0,56.0
9907,71.0,8,45,4.0,100.0
9908,67.0,0,30,1.0,127.0
9909,55.0,0,30,3.0,90.0
9910,71.0,0,45,6.0,100.0
9911,72.0,30,29,6.0,100.0
9912,72.0,0,29,8.0,100.0
9913,72.0,0,29,0.0,90.0
9914,72.0,0,29,4.0,100.0
9915,67.0,0,30,2.0,56.0
9916,55.0,30,30,3.0,90.0
9917,71.0,0,30,1.0,127.0
9918,74.0,0,59,4.0,100.0
9919,74.0,0,59,6.0,100.0
9920,74.0,0,59,0.0,90.0
9921,74.0,0,59,8.0,100.0
9922,67.0,0,29,6.0,100.0
9923,67.0,0,29,0.0,90.0
9924,67.0,0,29,4.0,100.0
9925,67.0,0,29,8.0,100.0
9926,55.0,0,30,3.0,90.0
9927,62.0,0,59,10.0,100.0
9928,62.0,60,59,7.0,100.0
9929,59.0,0,59,7.0,100.0
9930,55.0,0,59,10.0,100.0
9931,55.0,0,59,5.0,100.0
9932,59.0,0,59,10.0,100.0
9933,62.0,0,59,5.0,100.0
9934,55.0,0,59,7.0,100.0
9935,59.0,0,59,5.0,100.0
9936,71.0,0,29,4.0,100.0
9937,71.0,60,29,6.0,100.0
9938,71.0,0,29,8.0,100.0
9939,71.0,0,29,0.0,90.0
9940,67.0,0,30,2.0,56.0
9941,74.0,0,30,1.0,127.0
9942,55.0,0,30,3.0,90.0
9943,74.0,0,29,8.0,100.0
9944,74.0,60,29,6.0,100.0
9945,74.0,0,29,0.0,90.0
9946,74.0,0,29,4.0,100.0
9947,55.0,0,30,3.0,90.0
9948,71.0,0,30,2.0,56.0
9949,79.0,0,30,1.0,127.0
9950,83.0,0,29,0.0,90.0
9951,83.0,0,29,4.0,100.0
9952,83.0,0,29,6.0,100.0
9953,83.0,0,29,8.0,100.0
9954,56.0,0,30,3.0,90.0
9955,62.0,0,59,7.0,100.0
9956,62.0,0,59,5.0,100.0
9957,84.0,0,29,8.0,100.0
9958,59.0,0,59,7.0,100.0
9959,59.0,0,59,5.0,100.0
9960,56.0,0,59,10.0,100.0
9961,62.0,0,59,10.0,100.0
9962,84.0,0,29,6.0,100.0
9963,56.0,60,59,7.0,100.0
9964,84.0,0,29,0.0,90.0
9965,84.0,30,29,4.0,100.0
9966,59.0,0,59,10.0,100.0
9967,56.0,0,59,5.0,100.0
9968,86.0,30,29,6.0,100.0
9969,86.0,0,29,0.0,90.0
9970,86.0,0,29,4.0,100.0
9971,86.0,0,29,8.0,100.0
9972,76.0,0,30,1.0,127.0
9973,71.0,0,30,2.0,56.0
9974,56.0,0,30,3.0,90.0
9975,76.0,0,29,6.0,100.0
9976,76.0,30,29,8.0,100.0
9977,76.0,0,29,4.0,100.0
9978,76.0,0,29,0.0,90.0
9979,76.0,0,29,4.0,100.0
9980,76.0,0,29,8.0,100.0
9981,76.0,0,29,0.0,90.0
9982,76.0,0,29,6.0,100.0
9983,74.0,0,30,1.0,127.0
9984,59.0,30,30,2.0,56.0
9985,56.0,0,30,3.0,90.0
9986,57.0,0,30,3.0,90.0
9987,60.0,30,59,5.0,100.0
9988,57.0,0,59,5.0,100.0
9989,77.0,0,89,8.0,100.0
9990,77.0,0,89,6.0,100.0
9991,77.0,0,89,4.0,100.0
9992,57.0,0,59,7.0,100.0
9993,60.0,0,59,7.0,100.0
9994,69.0,0,59,7.0,100.0
9995,57.0,0,59,10.0,100.0
9996,60.0,0,59,10.0,100.0
9997,69.0,0,59,10.0,100.0
9998,77.0,30,89,0.0,90.0
9999,69.0,0,59,5.0,100.0
10000,76.0,0,8,8.0,100.0
10001,76.0,0,8,4.0,100.0
10002,76.0,0,8,6.0,100.0
10003,77.0,0,8,6.0,100.0
10004,77.0,0,8,4.0,100.0
10005,77.0,7,8,8.0,100.0
10006,76.0,60,29,0.0,90.0
10007,76.0,0,15,6.0,100.0
10008,57.0,0,30,3.0,90.0
10009,64.0,0,30,2.0,56.0
10010,76.0,0,15,8.0,100.0
10011,76.0,8,15,4.0,100.0
10012,72.0,0,30,1.0,127.0
10013,74.0,0,29,8.0,100.0
10014,74.0,0,29,0.0,90.0
10015,74.0,15,29,4.0,100.0
10016,74.0,0,29,6.0,100.0
10017,76.0,0,29,6.0,100.0
10018,76.0,30,29,8.0,100.0
10019,76.0,0,29,4.0,100.0
10020,76.0,0,29,0.0,90.0
10021,57.0,0,30,3.0,90.0
10022,69.0,0,30,2.0,56.0
10023,72.0,0,30,1.0,127.0
10024,77.0,0,29,4.0,100.0
10025,77.0,0,29,8.0,100.0
10026,77.0,30,29,6.0,100.0
10027,77.0,0,29,0.0,90.0
10028,79.0,0,29,0.0,90.0
10029,79.0,0,29,8.0,100.0
10030,79.0,0,29,4.0,100.0
10031,79.0,0,29,6.0,100.0
10032,52.0,0,30,3.0,90.0
10033,71.0,30,29,4.0,100.0
10034,52.0,0,59,7.0,100.0
10035,60.0,0,59,7.0,100.0
10036,55.0,0,59,10.0,100.0
10037,52.0,0,59,10.0,100.0
10038,60.0,0,59,10.0,100.0
10039,71.0,0,29,0.0,90.0
10040,55.0,0,59,7.0,100.0
10041,71.0,0,29,6.0,100.0
10042,71.0,0,29,8.0,100.0
10043,55.0,0,59,5.0,100.0
10044,60.0,0,59,5.0,100.0
10045,52.0,30,59,5.0,100.0
10046,72.0,0,29,0.0,90.0
10047,72.0,0,29,8.0,100.0
10048,72.0,0,29,4.0,100.0
10049,72.0,0,29,6.0,100.0
10050,52.0,0,30,3.0,90.0
10051,67.0,30,30,1.0,127.0
10052,60.0,0,30,2.0,56.0
10053,67.0,0,29,4.0,100.0
10054,67.0,0,29,6.0,100.0
10055,67.0,0,29,0.0,90.0
10056,67.0,30,29,8.0,100.0
10057,52.0,0,30,3.0,90.0
10058,60.0,0,30,2.0,56.0
10059,67.0,0,30,1.0,127.0
10060,54.0,0,30,3.0,90.0
10061,60.0,0,59,5.0,100.0
10062,54.0,0,59,5.0,100.0
10063,70.0,0,119,0.0,90.0
10064,70.0,0,119,8.0,100.0
10065,63.0,0,59,5.0,100.0
10066,54.0,0,59,10.0,100.0
10067,70.0,0,119,4.0,100.0
10068,63.0,0,59,10.0,100.0
10069,63.0,0,59,7.0,100.0
10070,60.0,0,59,7.0,100.0
10071,54.0,0,59,7.0,100.0
10072,70.0,30,119,6.0,100.0
10073,60.0,60,59,10.0,100.0
10074,69.0,0,29,8.0,100.0
10075,69.0,0,29,4.0,100.0
10076,69.0,0,29,6.0,100.0
10077,69.0,0,29,0.0,90.0
10078,72.0,0,30,1.0,127.0
10079,54.0,60,30,3.0,90.0
10080,63.0,0,30,2.0,56.0
10081,71.0,0,29,6.0,100.0
10082,71.0,30,29,0.0,90.0
10083,71.0,0,29,4.0,100.0
10084,71.0,0,29,8.0,100.0
10085,72.0,0,29,4.0,100.0
10086,72.0,0,29,0.0,90.0
10087,72.0,0,29,6.0,100.0
10088,72.0,0,29,8.0,100.0
10089,69.0,30,30,1.0,127.0
10090,63.0,0,30,2.0,56.0
10091,54.0,0,30,3.0,90.0
10092,74.0,0,29,0.0,90.0
10093,74.0,0,29,8.0,100.0
10094,74.0,30,29,6.0,100.0
10095,74.0,0,29,4.0,100.0
10096,74.0,0,29,6.0,100.0
10097,74.0,0,29,4.0,100.0
10098,74.0,0,29,8.0,100.0
10099,74.0,0,29,0.0,90.0
10100,55.0,30,30,3.0,90.0
10101,63.0,0,59,10.0,100.0
10102,55.0,0,59,10.0,100.0
10103,63.0,0,59,7.0,100.0
10104,60.0,0,59,7.0,100.0
10105,55.0,0,59,7.0,100.0
10106,55.0,0,59,5.0,100.0
10107,60.0,0,59,5.0,100.0
10108,63.0,0,59,5.0,100.0
10109,60.0,0,59,10.0,100.0
10110,75.0,30,59,8.0,100.0
10111,75.0,0,59,6.0,100.0
10112,75.0,0,59,0.0,90.0
10113,75.0,0,59,4.0,100.0
10114,62.0,0,30,2.0,56.0
10115,71.0,0,30,1.0,127.0
10116,55.0,30,30,3.0,90.0
10117,80.0,0,29,6.0,100.0
10118,80.0,0,29,0.0,90.0
10119,80.0,0,29,8.0,100.0
10120,80.0,30,29,4.0,100.0
10121,72.0,0,30,1.0,127.0
10122,63.0,0,30,2.0,56.0
10123,55.0,0,30,3.0,90.0
10124,43.0,0,30,3.0,90.0
10125,65.0,0,59,7.0,100.0
10126,79.0,0,119,0.0,90.0
10127,79.0,0,119,4.0,100.0
10128,79.0,0,119,8.0,100.0
10129,55.0,0,59,5.0,100.0
10130,62.0,60,59,5.0,100.0
10131,65.0,0,59,10.0,100.0
10132,62.0,0,59,10.0,100.0
10133,65.0,0,59,5.0,100.0
10134,62.0,0,59,7.0,100.0
10135,79.0,30,119,6.0,100.0
10136,55.0,0,59,10.0,100.0
10137,55.0,0,59,7.0,100.0
10138,72.0,60,29,0.0,90.0
10139,72.0,0,29,6.0,100.0
10140,72.0,0,29,4.0,100.0
10141,72.0,0,29,8.0,100.0
10142,62.0,0,30,2.0,56.0
10143,43.0,0,30,3.0,90.0
10144,67.0,0,30,1.0,127.0
10145,71.0,30,59,4.0,100.0
10146,71.0,0,59,8.0,100.0
10147,71.0,0,59,6.0,100.0
10148,71.0,0,59,0.0,90.0
10149,43.0,30,30,3.0,90.0
10150,62.0,0,30,2.0,56.0
10151,65.0,0,30,1.0,127.0
10152,72.0,0,29,4.0,100.0
10153,72.0,0,29,8.0,100.0
10154,72.0,0,29,6.0,100.0
10155,72.0,30,29,0.0,90.0
10156,64.0,0,30,1.0,127.0
10157,60.0,0,30,2.0,56.0
10158,60.0,0,59,5.0,100.0
10159,64.0,0,59,5.0,100.0
10160,64.0,0,59,7.0,100.0
10161,60.0,0,59,7.0,100.0
10162,60.0,0,59,10.0,100.0
10163,64.0,0,59,10.0,100.0
10164,72.0,0,89,0.0,90.0
10165,72.0,0,89,8.0,100.0
10166,72.0,30,89,4.0,100.0
10167,72.0,0,89,6.0,100.0
10168,60.0,0,30,1.0,127.0
10169,55.0,60,30,2.0,56.0
10170,48.0,0,105,3.0,90.0
10171,64.0,30,29,6.0,100.0
10172,64.0,0,29,4.0,100.0
10173,64.0,0,29,8.0,100.0
10174,64.0,0,29,0.0,90.0
10175,59.0,0,30,1.0,127.0
10176,53.0,30,30,2.0,56.0
10177,67.0,0,59,6.0,100.0
10178,67.0,0,59,0.0,90.0
10179,67.0,0,59,4.0,100.0
10180,67.0,0,59,8.0,100.0
10181,50.0,30,15,3.0,90.0
10182,62.0,0,29,5.0,100.0
10183,62.0,0,29,10.0,100.0
10184,62.0,0,29,7.0,100.0
10185,52.0,0,60,2.0,56.0
10186,48.0,30,15,3.0,90.0
10187,60.0,0,29,5.0,100.0
10188,60.0,0,29,10.0,100.0
10189,60.0,0,29,7.0,100.0
10190,46.0,0,15,3.0,90.0
10191,60.0,0,119,6.0,100.0
10192,58.0,0,29,10.0,100.0
10193,58.0,0,29,7.0,100.0
10194,60.0,60,119,8.0,100.0
10195,60.0,0,119,4.0,100.0
10196,60.0,0,119,0.0,90.0
10197,58.0,30,29,5.0,100.0
10198,55.0,0,119,1.0,127.0
10199,45.0,0,15,3.0,90.0
10200,57.0,0,29,7.0,100.0
10201,57.0,30,29,5.0,100.0
10202,57.0,0,29,10.0,100.0
10203,43.0,30,15,3.0,90.0
10204,55.0,0,29,5.0,100.0
10205,55.0,0,29,7.0,100.0
10206,55.0,0,29,10.0,100.0
10207,77.0,0,29,4.0,100.0
10208,53.0,30,30,7.0,100.0
10209,53.0,0,30,10.0,100.0
10210,72.0,0,30,8.0,100.0
10211,69.0,0,30,8.0,100.0
10212,53.0,0,59,5.0,100.0
10213,76.0,30,29,4.0,100.0
10214,41.0,0,60,3.0,90.0
10215,77.0,30,29,4.0,100.0
10216,41.0,0,30,7.0,100.0
10217,69.0,0,30,6.0,100.0
10218,72.0,0,30,6.0,100.0
10219,72.0,30,29,4.0,100.0
10220,53.0,0,59,5.0,100.0
10221,74.0,0,29,4.0,100.0
10222,70.0,0,30,6.0,100.0
10223,67.0,30,30,6.0,100.0
10224,67.0,0,30,8.0,100.0
10225,70.0,0,30,8.0,100.0
10226,53.0,0,30,10.0,100.0
10227,53.0,0,59,5.0,100.0
10228,76.0,30,29,4.0,100.0
10229,77.0,0,29,4.0,100.0
10230,69.0,0,30,8.0,100.0
10231,60.0,0,30,8.0,100.0
10232,41.0,30,30,10.0,100.0
10233,53.0,0,30,7.0,100.0
10234,53.0,0,59,5.0,100.0
10235,74.0,30,29,4.0,100.0
10236,72.0,0,29,4.0,100.0
10237,69.0,0,30,6.0,100.0
10238,72.0,0,30,6.0,100.0
10239,41.0,0,30,7.0,100.0
10240,53.0,30,59,5.0,100.0
10241,70.0,30,29,4.0,100.0
10242,69.0,0,29,4.0,100.0
10243,67.0,0,30,8.0,100.0
10244,53.0,0,30,10.0,100.0
10245,67.0,0,30,6.0,100.0
10246,76.0,30,30,6.0,100.0
10247,76.0,0,30,8.0,100.0
10248,70.0,30,29,4.0,100.0
10249,53.0,0,59,5.0,100.0
10250,69.0,0,29,4.0,100.0
10251,77.0,30,30,8.0,100.0
10252,53.0,0,30,7.0,100.0
10253,72.0,0,30,8.0,100.0
10254,41.0,0,30,10.0,100.0
10255,70.0,30,29,4.0,100.0
10256,53.0,0,59,5.0,100.0
10257,41.0,0,60,3.0,90.0
10258,72.0,0,29,4.0,100.0
10259,41.0,30,30,7.0,100.0
10260,69.0,0,30,6.0,100.0
10261,77.0,0,30,6.0,100.0
10262,53.0,0,59,5.0,100.0
10263,77.0,30,29,4.0,100.0
10264,69.0,0,29,4.0,100.0
10265,72.0,0,30,6.0,100.0
10266,72.0,0,30,8.0,100.0
10267,65.0,0,30,8.0,100.0
10268,53.0,0,30,10.0,100.0
10269,65.0,0,30,6.0,100.0
10270,53.0,30,59,5.0,100.0
10271,67.0,30,29,4.0,100.0
10272,65.0,0,29,4.0,100.0
10273,60.0,30,30,8.0,100.0
10274,41.0,0,30,10.0,100.0
10275,53.0,0,30,7.0,100.0
10276,69.0,0,30,8.0,100.0
10277,53.0,0,59,5.0,100.0
10278,67.0,30,29,4.0,100.0
10279,69.0,0,29,4.0,100.0
10280,72.0,30,30,6.0,100.0
10281,41.0,0,30,7.0,100.0
10282,65.0,0,30,6.0,100.0
10283,53.0,0,59,5.0,100.0
10284,70.0,30,29,4.0,100.0
10285,72.0,30,29,4.0,100.0
10286,60.0,0,30,6.0,100.0
10287,69.0,0,30,6.0,100.0
10288,69.0,0,30,8.0,100.0
10289,65.0,0,30,8.0,100.0
10290,53.0,0,30,10.0,100.0
10291,74.0,30,29,4.0,100.0
10292,53.0,0,59,5.0,100.0
10293,79.0,0,29,4.0,100.0
10294,41.0,30,30,10.0,100.0
10295,71.0,0,30,8.0,100.0
10296,62.0,0,30,8.0,100.0
10297,53.0,0,30,7.0,100.0
10298,53.0,0,59,5.0,100.0
10299,77.0,30,29,4.0,100.0
10300,41.0,0,60,3.0,90.0
10301,79.0,30,29,4.0,100.0
10302,74.0,0,30,6.0,100.0
10303,41.0,0,30,7.0,100.0
10304,71.0,0,30,6.0,100.0
10305,53.0,0,59,5.0,100.0
10306,71.0,30,29,4.0,100.0
10307,72.0,30,29,4.0,100.0
10308,53.0,0,30,10.0,100.0
10309,67.0,0,30,6.0,100.0
10310,79.0,0,30,6.0,100.0
10311,71.0,0,30,8.0,100.0
10312,79.0,0,30,8.0,100.0
10313,53.0,0,59,5.0,100.0
10314,74.0,30,29,4.0,100.0
10315,75.0,30,29,4.0,100.0
10316,72.0,0,30,8.0,100.0
10317,76.0,0,30,8.0,100.0
10318,42.0,0,30,10.0,100.0
10319,54.0,0,30,7.0,100.0
10320,54.0,0,59,5.0,100.0
10321,81.0,30,29,4.0,100.0
10322,42.0,0,60,3.0,90.0
10323,75.0,30,29,4.0,100.0
10324,42.0,0,30,7.0,100.0
10325,69.0,0,30,6.0,100.0
10326,72.0,0,30,6.0,100.0
10327,54.0,0,59,5.0,100.0
10328,74.0,30,29,4.0,100.0
10329,72.0,0,29,4.0,100.0
10330,69.0,0,30,6.0,100.0
10331,69.0,0,30,8.0,100.0
10332,62.0,0,30,8.0,100.0
10333,54.0,30,30,10.0,100.0
10334,62.0,0,30,6.0,100.0
10335,74.0,30,29,4.0,100.0
10336,54.0,0,59,5.0,100.0
10337,71.0,0,29,4.0,100.0
10338,43.0,0,30,10.0,100.0
10339,55.0,0,30,7.0,100.0
10340,67.0,0,30,8.0,100.0
10341,62.0,0,30,8.0,100.0
10342,72.0,30,29,4.0,100.0
10343,55.0,30,59,5.0,100.0
10344,43.0,0,60,3.0,90.0
10345,74.0,0,29,4.0,100.0
10346,67.0,30,30,6.0,100.0
10347,71.0,0,30,6.0,100.0
10348,43.0,0,30,7.0,100.0
10349,55.0,0,59,5.0,100.0
10350,79.0,30,29,4.0,100.0
10351,71.0,0,29,4.0,100.0
10352,55.0,0,30,10.0,100.0
10353,67.0,0,30,8.0,100.0
10354,74.0,0,30,8.0,100.0
10355,74.0,0,30,6.0,100.0
10356,67.0,30,30,6.0,100.0
10357,69.0,30,29,4.0,100.0
10358,55.0,0,59,5.0,100.0
10359,67.0,0,29,4.0,100.0
10360,55.0,0,30,7.0,100.0
10361,71.0,0,30,8.0,100.0
10362,43.0,0,30,10.0,100.0
10363,79.0,0,30,8.0,100.0
10364,55.0,30,59,5.0,100.0
10365,69.0,30,29,4.0,100.0
10366,71.0,30,29,4.0,100.0
10367,74.0,0,30,6.0,100.0
10368,67.0,0,30,6.0,100.0
10369,43.0,0,30,7.0,100.0
10370,72.0,30,29,4.0,100.0
10371,55.0,0,59,5.0,100.0
10372,74.0,30,29,4.0,100.0
10373,62.0,0,30,6.0,100.0
10374,71.0,0,30,8.0,100.0
10375,67.0,0,30,8.0,100.0
10376,71.0,0,30,6.0,100.0
10377,55.0,0,30,10.0,100.0
10378,76.0,30,29,4.0,100.0
10379,55.0,0,59,5.0,100.0
10380,77.0,0,29,4.0,100.0
10381,44.0,0,30,10.0,100.0
10382,56.0,0,30,7.0,100.0
10383,71.0,30,30,8.0,100.0
10384,74.0,0,30,8.0,100.0
10385,83.0,30,29,4.0,100.0
10386,56.0,0,59,5.0,100.0
10387,44.0,0,60,3.0,90.0
10388,84.0,30,29,4.0,100.0
10389,71.0,0,30,6.0,100.0
10390,76.0,0,30,6.0,100.0
10391,44.0,0,30,7.0,100.0
10392,56.0,0,59,5.0,100.0
10393,86.0,30,29,4.0,100.0
10394,76.0,0,29,4.0,100.0
10395,64.0,0,30,8.0,100.0
10396,56.0,0,30,10.0,100.0
10397,71.0,0,30,6.0,100.0
10398,71.0,0,30,8.0,100.0
10399,74.0,0,30,6.0,100.0
10400,74.0,30,29,4.0,100.0
10401,56.0,30,59,5.0,100.0
10402,72.0,0,29,4.0,100.0
10403,57.0,30,30,7.0,100.0
10404,64.0,0,30,8.0,100.0
10405,69.0,0,30,8.0,100.0
10406,45.0,0,30,10.0,100.0
10407,74.0,30,29,4.0,100.0
10408,57.0,0,59,5.0,100.0
10409,45.0,0,60,3.0,90.0
10410,76.0,0,29,4.0,100.0
10411,45.0,0,30,7.0,100.0
10412,72.0,30,30,6.0,100.0
10413,69.0,0,30,6.0,100.0
10414,57.0,0,59,5.0,100.0
10415,71.0,30,29,4.0,100.0
10416,72.0,30,29,4.0,100.0
10417,72.0,0,30,8.0,100.0
10418,77.0,0,30,6.0,100.0
10419,69.0,0,30,8.0,100.0
10420,69.0,0,30,6.0,100.0
10421,57.0,0,30,10.0,100.0
10422,57.0,0,59,5.0,100.0
10423,76.0,30,29,4.0,100.0
10424,79.0,0,29,4.0,100.0
10425,70.0,0,30,8.0,100.0
10426,40.0,0,30,10.0,100.0
10427,72.0,0,30,8.0,100.0
10428,52.0,0,30,7.0,100.0
10429,69.0,30,29,4.0,100.0
10430,52.0,30,59,5.0,100.0
10431,40.0,0,60,3.0,90.0
10432,70.0,0,29,4.0,100.0
10433,79.0,0,30,6.0,100.0
10434,72.0,30,30,6.0,100.0
10435,40.0,0,30,7.0,100.0
10436,67.0,30,29,4.0,100.0
10437,52.0,0,59,5.0,100.0
10438,65.0,0,29,4.0,100.0
10439,70.0,0,30,6.0,100.0
10440,67.0,0,30,6.0,100.0
10441,67.0,0,30,8.0,100.0
10442,70.0,0,30,8.0,100.0
10443,52.0,0,30,10.0,100.0
10444,52.0,30,59,5.0,100.0
10445,64.0,30,29,4.0,100.0
10446,69.0,0,29,4.0,100.0
10447,62.0,0,30,8.0,100.0
10448,69.0,0,30,8.0,100.0
10449,42.0,30,30,10.0,100.0
10450,54.0,0,30,7.0,100.0
10451,62.0,30,29,4.0,100.0
10452,54.0,0,59,5.0,100.0
10453,42.0,0,60,3.0,90.0
10454,63.0,0,29,4.0,100.0
10455,69.0,30,30,6.0,100.0
10456,60.0,0,30,6.0,100.0
10457,42.0,0,30,7.0,100.0
10458,66.0,30,29,4.0,100.0
10459,54.0,0,59,5.0,100.0
10460,69.0,0,29,4.0,100.0
10461,54.0,0,30,10.0,100.0
10462,63.0,0,30,6.0,100.0
10463,75.0,0,30,8.0,100.0
10464,72.0,0,30,8.0,100.0
10465,72.0,0,30,6.0,100.0
10466,54.0,30,59,5.0,100.0
10467,72.0,30,29,4.0,100.0
10468,66.0,0,29,4.0,100.0
10469,43.0,0,30,10.0,100.0
10470,75.0,0,30,8.0,100.0
10471,72.0,0,30,8.0,100.0
10472,55.0,0,30,7.0,100.0
10473,55.0,30,59,5.0,100.0
10474,67.0,30,29,4.0,100.0
10475,43.0,0,60,3.0,90.0
10476,62.0,0,29,4.0,100.0
10477,43.0,0,30,7.0,100.0
10478,67.0,0,30,6.0,100.0
10479,71.0,0,30,6.0,100.0
10480,55.0,30,59,5.0,100.0
10481,63.0,30,29,4.0,100.0
10482,59.0,0,29,4.0,100.0
10483,55.0,0,30,10.0,100.0
10484,72.0,0,30,8.0,100.0
10485,69.0,0,30,8.0,100.0
10486,66.0,30,30,6.0,100.0
10487,75.0,0,30,6.0,100.0
10488,55.0,0,59,5.0,100.0
10489,60.0,30,29,4.0,100.0
10490,55.0,0,29,4.0,100.0
10491,62.0,0,30,8.0,100.0
10492,71.0,0,30,8.0,100.0
10493,43.0,0,30,10.0,100.0
10494,55.0,30,30,7.0,100.0
10495,62.0,30,29,4.0,100.0
10496,43.0,0,59,5.0,100.0
10497,43.0,0,60,3.0,90.0
10498,65.0,30,29,4.0,100.0
10499,43.0,0,30,7.0,100.0
10500,74.0,0,30,6.0,100.0
10501,71.0,0,30,6.0,100.0
10502,67.0,30,29,4.0,100.0
10503,43.0,0,59,5.0,100.0
10504,72.0,0,29,4.0,100.0
10505,74.0,0,30,6.0,100.0
10506,55.0,0,30,10.0,100.0
10507,77.0,0,30,6.0,100.0
10508,62.0,0,30,8.0,100.0
10509,67.0,0,30,8.0,100.0
10510,43.0,30,59,5.0,100.0
10511,71.0,30,29,4.0,100.0
10512,72.0,0,29,4.0,100.0
10513,64.0,0,30,8.0,100.0
10514,48.0,0,30,10.0,100.0
10515,60.0,0,30,8.0,100.0
10516,69.0,30,29,4.0,100.0
10517,36.0,0,60,3.0,90.0
10518,48.0,30,60,7.0,100.0
10519,67.0,30,29,4.0,100.0
10520,72.0,0,30,6.0,100.0
10521,76.0,0,30,6.0,100.0
10522,43.0,0,119,5.0,100.0
10523,65.0,30,29,4.0,100.0
10524,64.0,0,29,4.0,100.0
10525,67.0,0,30,8.0,100.0
10526,72.0,30,30,6.0,100.0
10527,60.0,0,30,8.0,100.0
10528,67.0,0,30,6.0,100.0
10529,62.0,30,29,4.0,100.0
10530,62.0,0,29,7.0,100.0
10531,62.0,30,29,10.0,100.0
10532,62.0,0,29,5.0,100.0
10533,60.0,0,59,4.0,100.0
10534,60.0,30,29,10.0,100.0
10535,60.0,0,29,5.0,100.0
10536,60.0,0,29,7.0,100.0
10537,48.0,0,30,3.0,90.0
10538,58.0,30,29,10.0,100.0
10539,64.0,0,119,6.0,100.0
10540,67.0,30,119,6.0,100.0
10541,72.0,0,119,8.0,100.0
10542,64.0,0,119,8.0,100.0
10543,58.0,0,29,5.0,100.0
10544,58.0,0,29,7.0,100.0
10545,57.0,0,29,7.0,100.0
10546,57.0,0,29,10.0,100.0
10547,57.0,0,29,5.0,100.0
10548,46.0,30,30,3.0,90.0
10549,55.0,0,29,10.0,100.0
10550,55.0,30,29,7.0,100.0
10551,55.0,0,29,5.0,100.0
10552,45.0,0,30,3.0,90.0
10553,57.0,0,59,7.0,100.0
10554,60.0,0,59,7.0,100.0
10555,57.0,30,59,10.0,100.0
10556,60.0,0,59,5.0,100.0
10557,57.0,0,59,5.0,100.0
10558,60.0,0,59,10.0,100.0
10559,65.0,0,89,0.0,90.0
10560,65.0,0,89,4.0,100.0
10561,65.0,0,89,6.0,100.0
10562,65.0,0,89,8.0,100.0
10563,45.0,60,30,3.0,90.0
10564,60.0,0,30,2.0,56.0
10565,65.0,0,30,1.0,127.0
10566,69.0,0,30,6.0,100.0
10567,69.0,0,30,0.0,90.0
10568,69.0,30,30,4.0,100.0
10569,69.0,0,30,8.0,100.0
10570,69.0,0,30,1.0,127.0
10571,45.0,0,30,3.0,90.0
10572,65.0,30,30,2.0,56.0
10573,43.0,0,30,3.0,90.0
10574,63.0,0,59,5.0,100.0
10575,55.0,0,59,10.0,100.0
10576,67.0,0,59,5.0,100.0
10577,67.0,0,59,10.0,100.0
10578,67.0,0,59,7.0,100.0
10579,55.0,0,59,5.0,100.0
10580,63.0,60,59,10.0,100.0
10581,55.0,0,59,7.0,100.0
10582,63.0,0,59,7.0,100.0
10583,72.0,0,120,4.0,100.0
10584,72.0,0,120,8.0,100.0
10585,72.0,0,120,0.0,90.0
10586,72.0,0,120,6.0,100.0
10587,70.0,0,30,1.0,127.0
10588,43.0,0,30,3.0,90.0
10589,67.0,0,30,2.0,56.0
10590,75.0,0,60,8.0,100.0
10591,75.0,0,60,6.0,100.0
10592,75.0,0,60,0.0,90.0
10593,75.0,60,60,4.0,100.0
10594,74.0,0,10,8.0,100.0
10595,74.0,0,10,6.0,100.0
10596,74.0,60,10,4.0,100.0
10597,75.0,10,10,8.0,100.0
10598,75.0,0,10,6.0,100.0
10599,75.0,0,10,4.0,100.0
10600,58.0,0,30,2.0,56.0
10601,74.0,0,30,0.0,90.0
10602,74.0,0,10,6.0,100.0
10603,67.0,0,30,1.0,127.0
10604,74.0,0,10,8.0,100.0
10605,43.0,0,30,3.0,90.0
10606,74.0,10,10,4.0,100.0
10607,75.0,30,0,8.0,100.0
10608,75.0,0,0,0.0,90.0
10609,75.0,0,0,6.0,100.0
10610,75.0,0,0,4.0,100.0
10611,42.0,0,30,3.0,90.0
10612,54.0,0,59,5.0,100.0
10613,57.0,0,59,5.0,100.0
10614,54.0,0,59,7.0,100.0
10615,57.0,0,59,10.0,100.0
10616,62.0,0,59,5.0,100.0
10617,62.0,0,59,7.0,100.0
10618,62.0,0,59,10.0,100.0
10619,54.0,0,59,10.0,100.0
10620,57.0,0,59,7.0,100.0
10621,74.0,0,60,4.0,100.0
10622,62.0,0,30,2.0,56.0
10623,69.0,0,30,1.0,127.0
10624,74.0,0,60,8.0,100.0
10625,74.0,0,60,6.0,100.0
10626,74.0,30,60,0.0,90.0
10627,42.0,30,30,3.0,90.0
10628,78.0,30,30,8.0,100.0
10629,78.0,0,30,0.0,90.0
10630,78.0,0,30,4.0,100.0
10631,78.0,0,30,6.0,100.0
10632,42.0,0,30,3.0,90.0
10633,62.0,0,30,2.0,56.0
10634,72.0,0,30,1.0,127.0
10635,38.0,0,30,3.0,90.0
10636,57.0,0,59,5.0,100.0
10637,57.0,0,59,10.0,100.0
10638,62.0,0,59,10.0,100.0
10639,50.0,0,59,10.0,100.0
10640,54.0,0,59,10.0,100.0
10641,50.0,60,59,5.0,100.0
10642,57.0,0,59,7.0,100.0
10643,50.0,0,59,7.0,100.0
10644,62.0,0,59,7.0,100.0
10645,54.0,0,59,5.0,100.0
10646,54.0,0,59,7.0,100.0
10647,62.0,0,59,5.0,100.0
10648,81.0,0,120,4.0,100.0
10649,81.0,0,120,6.0,100.0
10650,81.0,30,120,0.0,90.0
10651,81.0,0,120,8.0,100.0
10652,66.0,0,30,2.0,56.0
10653,82.0,0,30,4.0,100.0
10654,38.0,0,30,3.0,90.0
10655,82.0,0,30,6.0,100.0
10656,82.0,0,30,0.0,90.0
10657,74.0,60,30,1.0,127.0
10658,82.0,0,30,8.0,100.0
10659,81.0,30,30,0.0,90.0
10660,81.0,0,30,4.0,100.0
10661,81.0,0,30,6.0,100.0
10662,81.0,0,30,8.0,100.0
10663,69.0,0,30,2.0,56.0
10664,79.0,0,30,8.0,100.0
10665,79.0,0,30,6.0,100.0
10666,66.0,0,30,1.0,127.0
10667,79.0,0,30,4.0,100.0
10668,38.0,30,30,3.0,90.0
10669,79.0,0,30,0.0,90.0
10670,81.0,30,30,6.0,100.0
10671,81.0,30,0,8.0,100.0
10672,81.0,0,30,4.0,100.0
10673,81.0,0,0,0.0,90.0
10674,81.0,0,30,6.0,100.0
10675,81.0,0,30,4.0,100.0
10676,43.0,0,30,3.0,90.0
10677,55.0,0,59,5.0,100.0
10678,62.0,0,59,10.0,100.0
10679,58.0,0,59,10.0,100.0
10680,62.0,0,59,7.0,100.0
10681,58.0,0,59,5.0,100.0
10682,58.0,0,59,7.0,100.0
10683,55.0,0,59,7.0,100.0
10684,62.0,0,59,5.0,100.0
10685,55.0,0,59,10.0,100.0
10686,74.0,30,30,1.0,127.0
10687,82.0,30,60,4.0,100.0
10688,82.0,0,60,0.0,90.0
10689,82.0,0,60,6.0,100.0
10690,82.0,0,60,8.0,100.0
10691,43.0,0,30,3.0,90.0
10692,67.0,0,30,2.0,56.0
10693,79.0,0,30,0.0,90.0
10694,79.0,0,30,6.0,100.0
10695,79.0,0,30,8.0,100.0
10696,79.0,30,30,4.0,100.0
10697,70.0,0,30,1.0,127.0
10698,77.0,0,30,4.0,100.0
10699,77.0,30,30,0.0,90.0
10700,77.0,0,30,6.0,100.0
10701,77.0,0,30,8.0,100.0
10702,62.0,0,30,2.0,56.0
10703,43.0,0,30,3.0,90.0
10704,77.0,60,30,4.0,100.0
10705,48.0,0,30,3.0,90.0
10706,77.0,0,30,6.0,100.0
10707,77.0,0,30,8.0,100.0
10708,77.0,0,30,0.0,90.0
10709,60.0,0,59,5.0,100.0
10710,48.0,0,59,7.0,100.0
10711,55.0,0,59,7.0,100.0
10712,60.0,0,59,7.0,100.0
10713,55.0,0,59,5.0,100.0
10714,55.0,0,59,10.0,100.0
10715,48.0,0,59,5.0,100.0
10716,48.0,0,59,10.0,100.0
10717,60.0,0,59,10.0,100.0
10718,75.0,0,30,8.0,100.0
10719,75.0,0,30,4.0,100.0
10720,75.0,0,30,6.0,100.0
10721,75.0,30,30,0.0,90.0
10722,63.0,0,30,2.0,56.0
10723,81.0,0,30,0.0,90.0
10724,72.0,0,30,1.0,127.0
10725,81.0,30,30,6.0,100.0
10726,48.0,0,30,3.0,90.0
10727,81.0,0,30,8.0,100.0
10728,81.0,0,30,4.0,100.0
10729,82.0,30,15,0.0,90.0
10730,82.0,0,15,4.0,100.0
10731,82.0,0,15,6.0,100.0
10732,82.0,0,15,8.0,100.0
10733,84.0,0,15,4.0,100.0
10734,84.0,0,15,6.0,100.0
10735,84.0,0,15,8.0,100.0
10736,84.0,15,15,0.0,90.0
10737,82.0,0,30,8.0,100.0
10738,48.0,0,30,3.0,90.0
10739,82.0,0,30,0.0,90.0
10740,75.0,15,30,1.0,127.0
10741,82.0,0,30,4.0,100.0
10742,82.0,0,30,6.0,100.0
10743,72.0,0,30,2.0,56.0
10744,81.0,0,30,6.0,100.0
10745,81.0,0,30,4.0,100.0
10746,81.0,0,30,0.0,90.0
10747,81.0,30,30,8.0,100.0
10748,79.0,0,30,4.0,100.0
10749,79.0,0,30,0.0,90.0
10750,79.0,0,30,6.0,100.0
10751,50.0,0,30,3.0,90.0
10752,79.0,0,30,8.0,100.0
10753,54.0,0,59,7.0,100.0
10754,54.0,0,59,10.0,100.0
10755,50.0,0,59,7.0,100.0
10756,57.0,0,59,7.0,100.0
10757,54.0,0,59,5.0,100.0
10758,57.0,0,59,10.0,100.0
10759,50.0,0,59,10.0,100.0
10760,50.0,0,59,5.0,100.0
10761,57.0,30,59,5.0,100.0
10762,50.0,0,30,3.0,90.0
10763,69.0,30,30,2.0,56.0
10764,78.0,0,60,4.0,100.0
10765,74.0,0,30,1.0,127.0
10766,78.0,0,60,8.0,100.0
10767,78.0,30,60,0.0,90.0
10768,78.0,0,60,6.0,100.0
10769,81.0,0,30,4.0,100.0
10770,81.0,0,30,0.0,90.0
10771,81.0,30,30,6.0,100.0
10772,81.0,0,30,8.0,100.0
10773,69.0,0,30,1.0,127.0
10774,50.0,0,30,3.0,90.0
10775,66.0,0,30,2.0,56.0
10776,54.0,0,30,3.0,90.0
10777,60.0,0,59,5.0,100.0
10778,60.0,0,59,10.0,100.0
10779,57.0,0,59,10.0,100.0
10780,54.0,0,59,10.0,100.0
10781,54.0,0,59,5.0,100.0
10782,57.0,0,59,5.0,100.0
10783,54.0,60,59,7.0,100.0
10784,57.0,0,59,7.0,100.0
10785,60.0,0,59,7.0,100.0
10786,75.0,0,120,8.0,100.0
10787,75.0,30,120,4.0,100.0
10788,75.0,0,120,0.0,90.0
10789,75.0,0,120,6.0,100.0
10790,57.0,0,30,2.0,56.0
10791,74.0,0,30,6.0,100.0
10792,69.0,60,30,1.0,127.0
10793,54.0,0,30,3.0,90.0
10794,74.0,0,30,8.0,100.0
10795,74.0,0,30,4.0,100.0
10796,74.0,0,30,0.0,90.0
10797,72.0,0,30,0.0,90.0
10798,72.0,30,30,6.0,100.0
10799,72.0,0,30,4.0,100.0
10800,72.0,0,30,8.0,100.0
10801,66.0,0,30,1.0,127.0
10802,70.0,30,30,4.0,100.0
10803,70.0,0,30,0.0,90.0
10804,70.0,0,30,6.0,100.0
10805,70.0,0,30,8.0,100.0
10806,54.0,0,30,3.0,90.0
10807,62.0,0,30,2.0,56.0
10808,69.0,0,30,8.0,100.0
10809,69.0,0,30,4.0,100.0
10810,69.0,0,0,0.0,90.0
10811,69.0,0,30,6.0,100.0
10812,69.0,30,30,4.0,100.0
10813,69.0,0,30,6.0,100.0
10814,55.0,0,30,3.0,90.0
10815,69.0,0,30,8.0,100.0
10816,55.0,0,59,10.0,100.0
10817,55.0,0,59,7.0,100.0
10818,62.0,0,59,7.0,100.0
10819,67.0,0,59,5.0,100.0
10820,62.0,0,59,5.0,100.0
10821,55.0,0,59,5.0,100.0
10822,67.0,0,59,7.0,100.0
10823,67.0,0,59,10.0,100.0
10824,62.0,0,59,10.0,100.0
10825,70.0,0,30,4.0,100.0
10826,70.0,30,30,0.0,90.0
10827,70.0,0,30,8.0,100.0
10828,70.0,0,30,6.0,100.0
10829,55.0,30,30,3.0,90.0
10830,67.0,0,30,1.0,127.0
10831,62.0,0,30,2.0,56.0
10832,74.0,0,30,4.0,100.0
10833,74.0,0,30,8.0,100.0
10834,74.0,30,30,6.0,100.0
10835,74.0,0,30,0.0,90.0
10836,62.0,0,30,1.0,127.0
10837,58.0,0,30,2.0,56.0
10838,55.0,0,30,3.0,90.0
10839,79.0,0,90,6.0,100.0
10840,79.0,0,90,8.0,100.0
10841,58.0,0,30,3.0,90.0
10842,79.0,30,90,4.0,100.0
10843,79.0,0,90,0.0,90.0
10844,62.0,0,59,10.0,100.0
10845,67.0,0,59,10.0,100.0
10846,58.0,0,59,5.0,100.0
10847,58.0,0,59,10.0,100.0
10848,67.0,60,59,5.0,100.0
10849,58.0,0,59,7.0,100.0
10850,62.0,0,59,7.0,100.0
10851,67.0,0,59,7.0,100.0
10852,62.0,0,59,5.0,100.0
10853,76.0,0,30,0.0,90.0
10854,76.0,30,30,6.0,100.0
10855,76.0,0,30,8.0,100.0
10856,76.0,0,30,4.0,100.0
10857,77.0,0,30,8.0,100.0
10858,77.0,0,30,4.0,100.0
10859,58.0,0,30,3.0,90.0
10860,77.0,0,30,0.0,90.0
10861,62.0,30,30,1.0,127.0
10862,67.0,0,30,2.0,56.0
10863,77.0,0,30,6.0,100.0
10864,79.0,0,30,6.0,100.0
10865,79.0,0,30,0.0,90.0
10866,79.0,0,30,4.0,100.0
10867,79.0,30,30,8.0,100.0
10868,58.0,0,30,3.0,90.0
10869,81.0,0,30,4.0,100.0
10870,62.0,0,30,2.0,56.0
10871,81.0,0,30,8.0,100.0
10872,81.0,30,30,6.0,100.0
10873,81.0,0,30,0.0,90.0
10874,74.0,0,30,1.0,127.0
10875,82.0,0,30,6.0,100.0
10876,82.0,30,30,8.0,100.0
10877,82.0,0,30,4.0,100.0
10878,82.0,0,30,0.0,90.0
10879,57.0,0,30,3.0,90.0
10880,74.0,30,30,4.0,100.0
10881,74.0,0,30,6.0,100.0
10882,74.0,0,30,0.0,90.0
10883,74.0,0,30,8.0,100.0
10884,57.0,0,59,5.0,100.0
10885,64.0,0,59,5.0,100.0
10886,69.0,0,59,5.0,100.0
10887,57.0,0,59,7.0,100.0
10888,64.0,0,59,10.0,100.0
10889,57.0,0,59,10.0,100.0
10890,69.0,0,59,10.0,100.0
10891,69.0,0,59,7.0,100.0
10892,64.0,0,59,7.0,100.0
10893,73.0,30,60,4.0,100.0
10894,73.0,0,60,8.0,100.0
10895,57.0,0,30,3.0,90.0
10896,73.0,0,60,0.0,90.0
10897,76.0,0,30,1.0,127.0
10898,73.0,0,60,6.0,100.0
10899,69.0,30,30,2.0,56.0
10900,76.0,0,30,6.0,100.0
10901,76.0,30,30,8.0,100.0
10902,76.0,0,30,0.0,90.0
10903,76.0,0,30,4.0,100.0
10904,64.0,0,30,1.0,127.0
10905,57.0,0,30,3.0,90.0
10906,61.0,0,30,2.0,56.0
10907,49.0,0,30,3.0,90.0
10908,67.0,0,90,6.0,100.0
10909,67.0,0,90,8.0,100.0
10910,67.0,30,90,4.0,100.0
10911,67.0,0,90,0.0,90.0
10912,49.0,60,59,5.0,100.0
10913,52.0,0,59,5.0,100.0
10914,49.0,0,59,10.0,100.0
10915,57.0,0,59,10.0,100.0
10916,52.0,0,59,10.0,100.0
10917,52.0,0,59,7.0,100.0
10918,49.0,0,59,7.0,100.0
10919,57.0,0,59,5.0,100.0
10920,57.0,0,59,7.0,100.0
10921,70.0,30,30,6.0,100.0
10922,70.0,0,30,8.0,100.0
10923,70.0,0,30,4.0,100.0
10924,70.0,0,30,0.0,90.0
10925,64.0,0,30,1.0,127.0
10926,69.0,0,30,8.0,100.0
10927,69.0,0,30,0.0,90.0
10928,69.0,0,30,4.0,100.0
10929,69.0,30,30,6.0,100.0
10930,57.0,0,30,2.0,56.0
10931,49.0,0,30,3.0,90.0
10932,67.0,0,30,8.0,100.0
10933,67.0,0,30,6.0,100.0
10934,67.0,30,30,0.0,90.0
10935,67.0,0,30,4.0,100.0
10936,49.0,30,30,3.0,90.0
10937,65.0,0,30,4.0,100.0
10938,65.0,0,30,8.0,100.0
10939,65.0,0,30,6.0,100.0
10940,57.0,0,30,2.0,56.0
10941,65.0,0,30,0.0,90.0
10942,67.0,0,30,1.0,127.0
10943,64.0,30,30,4.0,100.0
10944,64.0,0,30,0.0,90.0
10945,64.0,0,0,6.0,100.0
10946,64.0,0,0,8.0,100.0
10947,64.0,30,30,4.0,100.0
10948,64.0,0,30,0.0,90.0
10949,50.0,0,30,3.0,90.0
10950,53.0,0,59,10.0,100.0
10951,57.0,0,59,10.0,100.0
10952,50.0,0,59,7.0,100.0
10953,50.0,0,59,10.0,100.0
10954,57.0,0,59,7.0,100.0
10955,53.0,0,59,7.0,100.0
10956,50.0,0,59,5.0,100.0
10957,53.0,0,59,5.0,100.0
10958,57.0,0,59,5.0,100.0
10959,65.0,0,60,0.0,90.0
10960,65.0,0,30,1.0,127.0
10961,57.0,0,30,2.0,56.0
10962,65.0,30,60,8.0,100.0
10963,65.0,0,60,6.0,100.0
10964,50.0,30,30,3.0,90.0
10965,65.0,0,60,4.0,100.0
10966,69.0,0,30,4.0,100.0
10967,69.0,30,30,0.0,90.0
10968,69.0,0,30,6.0,100.0
10969,69.0,0,30,8.0,100.0
10970,65.0,0,30,1.0,127.0
10971,50.0,0,30,3.0,90.0
10972,69.0,0,30,2.0,56.0
10973,74.0,0,90,8.0,100.0
10974,74.0,30,90,4.0,100.0
10975,45.0,60,30,3.0,90.0
10976,74.0,0,90,0.0,90.0
10977,74.0,0,90,6.0,100.0
10978,45.0,0,59,5.0,100.0
10979,52.0,0,59,5.0,100.0
10980,57.0,0,59,5.0,100.0
10981,45.0,0,59,10.0,100.0
10982,52.0,0,59,10.0,100.0
10983,57.0,0,59,10.0,100.0
10984,57.0,0,59,7.0,100.0
10985,52.0,0,59,7.0,100.0
10986,45.0,0,59,7.0,100.0
10987,73.0,0,30,8.0,100.0
10988,73.0,0,30,6.0,100.0
10989,73.0,30,30,4.0,100.0
10990,73.0,0,30,0.0,90.0
10991,74.0,0,30,6.0,100.0
10992,65.0,0,30,2.0,56.0
10993,45.0,0,30,3.0,90.0
10994,74.0,0,30,4.0,100.0
10995,74.0,0,30,0.0,90.0
10996,74.0,0,30,8.0,100.0
10997,69.0,30,30,1.0,127.0
10998,76.0,0,15,0.0,90.0
10999,76.0,30,15,8.0,100.0
11000,76.0,0,15,4.0,100.0
11001,76.0,0,15,6.0,100.0
11002,77.0,0,15,6.0,100.0
11003,77.0,0,15,8.0,100.0
11004,77.0,0,15,4.0,100.0
11005,77.0,15,15,0.0,90.0
11006,76.0,0,30,0.0,90.0
11007,76.0,0,30,6.0,100.0
11008,76.0,0,30,4.0,100.0
11009,76.0,0,30,8.0,100.0
11010,45.0,15,30,3.0,90.0
11011,61.0,0,30,2.0,56.0
11012,67.0,0,30,1.0,127.0
11013,74.0,0,0,8.0,100.0
11014,74.0,0,0,0.0,90.0
11015,74.0,0,0,4.0,100.0
11016,74.0,0,0,6.0,100.0
11017,65.0,0,30,1.0,127.0
11018,62.0,0,30,2.0,56.0
11019,38.0,0,30,3.0,90.0
11020,57.0,0,59,10.0,100.0
11021,53.0,0,59,10.0,100.0
11022,50.0,0,59,7.0,100.0
11023,53.0,0,59,7.0,100.0
11024,50.0,0,59,5.0,100.0
11025,57.0,0,59,7.0,100.0
11026,57.0,30,59,5.0,100.0
11027,50.0,0,59,10.0,100.0
11028,53.0,0,59,5.0,100.0
11029,38.0,60,30,3.0,90.0
11030,62.0,0,30,1.0,127.0
11031,57.0,0,30,2.0,56.0
11032,65.0,0,30,4.0,100.0
11033,65.0,0,30,6.0,100.0
11034,65.0,35,30,0.0,90.0
11035,65.0,0,30,8.0,100.0
11036,55.0,0,30,2.0,56.0
11037,61.0,25,30,1.0,127.0
11038,38.0,0,30,3.0,90.0
11039,69.0,0,60,6.0,100.0
11040,69.0,0,60,4.0,100.0
11041,69.0,5,60,0.0,90.0
11042,69.0,0,60,8.0,100.0
11043,38.0,0,30,3.0,90.0
11044,57.0,0,29,7.0,100.0
11045,57.0,25,29,10.0,100.0
11046,57.0,0,29,5.0,100.0
11047,53.0,0,60,2.0,56.0
11048,57.0,55,60,1.0,127.0
11049,62.0,5,60,6.0,100.0
11050,62.0,0,60,8.0,100.0
11051,62.0,0,60,0.0,90.0
11052,62.0,0,60,4.0,100.0
11053,62.0,0,29,7.0,100.0
11054,62.0,0,29,5.0,100.0
11055,62.0,0,29,10.0,100.0
11056,62.0,30,30,3.0,90.0
11057,65.0,0,29,10.0,100.0
11058,65.0,0,29,7.0,100.0
11059,65.0,30,29,5.0,100.0
11060,62.0,0,29,5.0,100.0
11061,62.0,0,29,7.0,100.0
11062,62.0,0,29,10.0,100.0
11063,60.0,30,30,3.0,90.0
11064,57.0,30,29,10.0,100.0
11065,57.0,0,29,7.0,100.0
11066,57.0,0,29,5.0,100.0
11067,67.0,0,8,8.0,100.0
11068,67.0,0,8,6.0,100.0
11069,67.0,0,8,4.0,100.0
11070,65.0,0,8,4.0,100.0
11071,65.0,7,8,6.0,100.0
11072,65.0,0,8,8.0,100.0
11073,59.0,0,30,3.0,90.0
11074,59.0,0,59,7.0,100.0
11075,59.0,0,59,10.0,100.0
11076,62.0,30,59,10.0,100.0
11077,62.0,0,59,5.0,100.0
11078,59.0,0,59,5.0,100.0
11079,62.0,0,59,7.0,100.0
11080,67.0,0,89,0.0,90.0
11081,67.0,8,75,8.0,100.0
11082,59.0,0,30,3.0,90.0
11083,67.0,0,75,6.0,100.0
11084,67.0,45,30,1.0,127.0
11085,67.0,0,75,4.0,100.0
11086,62.0,0,30,2.0,56.0
11087,71.0,30,29,6.0,100.0
11088,71.0,0,29,4.0,100.0
11089,71.0,0,29,8.0,100.0
11090,71.0,0,29,0.0,90.0
11091,71.0,30,30,1.0,127.0
11092,59.0,0,30,3.0,90.0
11093,67.0,0,30,2.0,56.0
11094,59.0,0,30,3.0,90.0
11095,74.0,0,119,6.0,100.0
11096,67.0,0,59,5.0,100.0
11097,62.0,0,59,5.0,100.0
11098,59.0,60,59,5.0,100.0
11099,67.0,0,59,10.0,100.0
11100,59.0,0,59,7.0,100.0
11101,74.0,0,119,0.0,90.0
11102,59.0,0,59,10.0,100.0
11103,74.0,0,119,4.0,100.0
11104,62.0,0,59,7.0,100.0
11105,62.0,0,59,10.0,100.0
11106,67.0,0,59,7.0,100.0
11107,74.0,0,119,8.0,100.0
11108,59.0,0,30,3.0,90.0
11109,74.0,0,30,1.0,127.0
11110,67.0,0,30,2.0,56.0
11111,77.0,0,59,6.0,100.0
11112,77.0,0,59,0.0,90.0
11113,77.0,0,59,8.0,100.0
11114,77.0,60,59,4.0,100.0
11115,76.0,0,8,4.0,100.0
11116,76.0,0,8,8.0,100.0
11117,76.0,0,8,6.0,100.0
11118,77.0,7,8,4.0,100.0
11119,77.0,0,8,8.0,100.0
11120,77.0,0,8,6.0,100.0
11121,76.0,60,29,0.0,90.0
11122,76.0,8,15,8.0,100.0
11123,76.0,0,15,6.0,100.0
11124,59.0,0,30,3.0,90.0
11125,67.0,0,30,1.0,127.0
11126,62.0,0,30,2.0,56.0
11127,76.0,0,15,4.0,100.0
11128,77.0,0,29,0.0,90.0
11129,77.0,0,29,6.0,100.0
11130,77.0,0,29,4.0,100.0
11131,77.0,15,29,8.0,100.0
11132,77.0,0,29,6.0,100.0
11133,77.0,0,29,0.0,90.0
11134,77.0,0,29,8.0,100.0
11135,77.0,0,29,4.0,100.0
11136,58.0,0,30,3.0,90.0
11137,60.0,0,59,10.0,100.0
11138,58.0,0,59,7.0,100.0
11139,67.0,0,59,7.0,100.0
11140,60.0,0,59,7.0,100.0
11141,67.0,0,59,5.0,100.0
11142,60.0,0,59,5.0,100.0
11143,58.0,0,59,5.0,100.0
11144,58.0,0,59,10.0,100.0
11145,67.0,30,59,10.0,100.0
11146,76.0,0,59,8.0,100.0
11147,76.0,0,59,4.0,100.0
11148,76.0,30,59,6.0,100.0
11149,76.0,0,59,0.0,90.0
11150,58.0,0,30,3.0,90.0
11151,67.0,0,30,2.0,56.0
11152,72.0,30,30,1.0,127.0
11153,79.0,0,29,6.0,100.0
11154,79.0,0,29,0.0,90.0
11155,79.0,0,29,4.0,100.0
11156,79.0,30,29,8.0,100.0
11157,76.0,0,30,1.0,127.0
11158,67.0,0,30,2.0,56.0
11159,58.0,0,30,3.0,90.0
11160,84.0,0,59,6.0,100.0
11161,84.0,30,59,4.0,100.0
11162,84.0,0,59,0.0,90.0
11163,84.0,0,59,8.0,100.0
11164,72.0,0,29,8.0,100.0
11165,72.0,0,29,6.0,100.0
11166,72.0,0,29,0.0,90.0
11167,72.0,0,29,4.0,100.0
11168,58.0,0,30,3.0,90.0
11169,74.0,0,29,4.0,100.0
11170,74.0,30,29,8.0,100.0
11171,64.0,0,59,5.0,100.0
11172,67.0,0,59,7.0,100.0
11173,74.0,0,29,0.0,90.0
11174,74.0,0,29,6.0,100.0
11175,67.0,0,59,5.0,100.0
11176,64.0,60,59,10.0,100.0
11177,67.0,0,59,10.0,100.0
11178,58.0,0,59,7.0,100.0
11179,64.0,0,59,7.0,100.0
11180,58.0,0,59,5.0,100.0
11181,58.0,0,59,10.0,100.0
11182,76.0,0,10,4.0,100.0
11183,76.0,0,10,8.0,100.0
11184,76.0,0,10,0.0,90.0
11185,76.0,0,10,6.0,100.0
11186,74.0,0,10,0.0,90.0
11187,74.0,0,10,8.0,100.0
11188,74.0,0,10,6.0,100.0
11189,74.0,10,10,4.0,100.0
11190,76.0,0,10,8.0,100.0
11191,72.0,0,30,1.0,127.0
11192,76.0,0,10,6.0,100.0
11193,58.0,0,30,3.0,90.0
11194,76.0,0,10,4.0,100.0
11195,76.0,10,10,0.0,90.0
11196,67.0,30,30,2.0,56.0
11197,74.0,0,8,6.0,100.0
11198,74.0,0,8,0.0,90.0
11199,74.0,10,8,8.0,100.0
11200,74.0,0,8,4.0,100.0
11201,76.0,0,8,0.0,90.0
11202,76.0,7,8,4.0,100.0
11203,76.0,0,8,6.0,100.0
11204,76.0,0,8,8.0,100.0
11205,74.0,0,8,6.0,100.0
11206,74.0,8,8,0.0,90.0
11207,74.0,0,8,4.0,100.0
11208,74.0,0,8,8.0,100.0
11209,76.0,7,8,4.0,100.0
11210,76.0,0,8,0.0,90.0
11211,76.0,0,8,6.0,100.0
11212,76.0,0,8,8.0,100.0
11213,74.0,0,10,6.0,100.0
11214,74.0,0,10,0.0,90.0
11215,74.0,0,10,8.0,100.0
11216,74.0,0,10,4.0,100.0
11217,76.0,0,10,4.0,100.0
11218,76.0,0,10,0.0,90.0
11219,76.0,0,10,8.0,100.0
11220,76.0,10,10,6.0,100.0
11221,74.0,10,10,4.0,100.0
11222,74.0,0,10,6.0,100.0
11223,64.0,0,30,2.0,56.0
11224,58.0,8,30,3.0,90.0
11225,67.0,0,30,1.0,127.0
11226,74.0,0,10,8.0,100.0
11227,74.0,0,10,0.0,90.0
11228,72.0,0,14,8.0,100.0
11229,72.0,0,14,6.0,100.0
11230,72.0,0,14,0.0,90.0
11231,72.0,10,14,4.0,100.0
11232,74.0,15,14,6.0,100.0
11233,74.0,0,14,8.0,100.0
11234,74.0,0,14,0.0,90.0
11235,74.0,0,14,4.0,100.0
11236,74.0,0,29,8.0,100.0
11237,74.0,0,29,0.0,90.0
11238,74.0,0,29,6.0,100.0
11239,74.0,0,29,4.0,100.0
11240,57.0,0,30,3.0,90.0
11241,57.0,0,59,7.0,100.0
11242,65.0,0,59,5.0,100.0
11243,60.0,0,59,10.0,100.0
11244,57.0,0,59,5.0,100.0
11245,65.0,0,59,10.0,100.0
11246,57.0,0,59,10.0,100.0
11247,60.0,0,59,7.0,100.0
11248,60.0,15,59,5.0,100.0
11249,65.0,0,59,7.0,100.0
11250,75.0,0,59,0.0,90.0
11251,75.0,0,59,6.0,100.0
11252,75.0,30,59,4.0,100.0
11253,75.0,0,59,8.0,100.0
11254,57.0,0,30,3.0,90.0
11255,65.0,30,30,1.0,127.0
11256,60.0,0,30,2.0,56.0
11257,79.0,0,29,4.0,100.0
11258,79.0,30,29,8.0,100.0
11259,79.0,0,29,6.0,100.0
11260,79.0,0,29,0.0,90.0
11261,65.0,30,30,2.0,56.0
11262,72.0,0,30,1.0,127.0
11263,57.0,0,30,3.0,90.0
11264,57.0,0,30,3.0,90.0
11265,60.0,0,59,10.0,100.0
11266,65.0,0,59,10.0,100.0
11267,77.0,0,119,4.0,100.0
11268,57.0,0,59,10.0,100.0
11269,77.0,0,119,0.0,90.0
11270,77.0,0,119,6.0,100.0
11271,65.0,60,59,5.0,100.0
11272,60.0,0,59,5.0,100.0
11273,57.0,0,59,5.0,100.0
11274,57.0,0,59,7.0,100.0
11275,60.0,0,59,7.0,100.0
11276,65.0,0,59,7.0,100.0
11277,77.0,0,119,8.0,100.0
11278,72.0,0,29,4.0,100.0
11279,72.0,0,29,0.0,90.0
11280,72.0,0,29,8.0,100.0
11281,72.0,0,29,6.0,100.0
11282,57.0,60,30,3.0,90.0
11283,65.0,0,30,2.0,56.0
11284,72.0,0,30,1.0,127.0
11285,75.0,0,29,8.0,100.0
11286,75.0,0,29,4.0,100.0
11287,75.0,30,29,6.0,100.0
11288,75.0,0,29,0.0,90.0
11289,74.0,0,29,4.0,100.0
11290,74.0,0,29,0.0,90.0
11291,74.0,0,29,6.0,100.0
11292,74.0,0,29,8.0,100.0
11293,60.0,30,30,2.0,56.0
11294,65.0,0,30,1.0,127.0
11295,57.0,0,30,3.0,90.0
11296,75.0,30,29,8.0,100.0
11297,75.0,0,29,0.0,90.0
11298,75.0,0,29,6.0,100.0
11299,75.0,0,29,4.0,100.0
11300,75.0,30,29,0.0,90.0
11301,75.0,0,29,6.0,100.0
11302,75.0,0,29,4.0,100.0
11303,75.0,0,29,8.0,100.0
11304,58.0,0,30,3.0,90.0
11305,74.0,0,8,6.0,100.0
11306,74.0,30,8,4.0,100.0
11307,74.0,0,8,8.0,100.0
11308,72.0,7,8,6.0,100.0
11309,72.0,0,8,8.0,100.0
11310,72.0,0,8,4.0,100.0
11311,65.0,0,59,5.0,100.0
11312,58.0,0,59,7.0,100.0
11313,58.0,0,59,10.0,100.0
11314,62.0,0,59,10.0,100.0
11315,65.0,0,59,10.0,100.0
11316,62.0,0,59,5.0,100.0
11317,62.0,0,59,7.0,100.0
11318,65.0,0,59,7.0,100.0
11319,58.0,0,59,5.0,100.0
11320,74.0,0,59,0.0,90.0
11321,74.0,0,45,8.0,100.0
11322,58.0,0,30,2.0,56.0
11323,58.0,15,30,3.0,90.0
11324,65.0,0,30,1.0,127.0
11325,74.0,8,45,4.0,100.0
11326,74.0,0,45,6.0,100.0
11327,75.0,0,29,4.0,100.0
11328,75.0,30,29,0.0,90.0
11329,75.0,0,29,8.0,100.0
11330,75.0,0,29,6.0,100.0
11331,58.0,30,30,3.0,90.0
11332,70.0,0,30,1.0,127.0
11333,62.0,0,30,2.0,56.0
11334,77.0,0,59,0.0,90.0
11335,77.0,0,59,4.0,100.0
11336,77.0,0,59,6.0,100.0
11337,77.0,0,59,8.0,100.0
11338,75.0,0,29,8.0,100.0
11339,75.0,0,29,4.0,100.0
11340,75.0,0,29,6.0,100.0
11341,75.0,0,29,0.0,90.0
11342,58.0,0,30,3.0,90.0
11343,58.0,0,59,10.0,100.0
11344,58.0,0,59,7.0,100.0
11345,74.0,0,29,6.0,100.0
11346,74.0,0,29,4.0,100.0
11347,65.0,60,59,5.0,100.0
11348,58.0,0,59,5.0,100.0
11349,74.0,30,29,0.0,90.0
11350,65.0,0,59,7.0,100.0
11351,65.0,0,59,10.0,100.0
11352,74.0,0,29,8.0,100.0
11353,72.0,0,29,4.0,100.0
11354,72.0,0,29,0.0,90.0
11355,72.0,30,29,8.0,100.0
11356,72.0,0,29,6.0,100.0
11357,62.0,0,30,2.0,56.0
11358,58.0,0,30,3.0,90.0
11359,65.0,0,30,1.0,127.0
11360,70.0,0,29,0.0,90.0
11361,70.0,0,29,4.0,100.0
11362,70.0,30,29,8.0,100.0
11363,70.0,0,29,6.0,100.0
11364,69.0,30,29,6.0,100.0
11365,69.0,0,29,8.0,100.0
11366,69.0,0,29,4.0,100.0
11367,69.0,0,29,0.0,90.0
11368,58.0,0,30,2.0,56.0
11369,58.0,0,30,3.0,90.0
11370,62.0,0,30,1.0,127.0
11371,67.0,0,29,6.0,100.0
11372,67.0,30,29,8.0,100.0
11373,67.0,0,29,4.0,100.0
11374,67.0,0,29,0.0,90.0
11375,69.0,0,29,4.0,100.0
11376,69.0,0,29,8.0,100.0
11377,69.0,0,29,0.0,90.0
11378,69.0,30,29,6.0,100.0
11379,52.0,0,30,3.0,90.0
11380,52.0,0,59,10.0,100.0
11381,52.0,0,59,7.0,100.0
11382,55.0,0,59,7.0,100.0
11383,60.0,0,59,7.0,100.0
11384,55.0,0,59,10.0,100.0
11385,60.0,0,59,10.0,100.0
11386,52.0,0,59,5.0,100.0
11387,55.0,0,59,5.0,100.0
11388,60.0,0,59,5.0,100.0
11389,70.0,30,59,6.0,100.0
11390,70.0,0,59,0.0,90.0
11391,70.0,0,59,8.0,100.0
11392,70.0,0,59,4.0,100.0
11393,60.0,0,30,1.0,127.0
11394,52.0,30,30,3.0,90.0
11395,55.0,0,30,2.0,56.0
11396,72.0,30,29,6.0,100.0
11397,72.0,0,29,8.0,100.0
11398,72.0,0,29,4.0,100.0
11399,72.0,0,29,0.0,90.0
11400,52.0,0,30,3.0,90.0
11401,60.0,0,30,2.0,56.0
11402,67.0,0,30,1.0,127.0
11403,70.0,30,89,4.0,100.0
11404,70.0,0,89,8.0,100.0
11405,70.0,0,89,0.0,90.0
11406,70.0,0,89,6.0,100.0
11407,52.0,0,30,3.0,90.0
11408,79.0,30,29,4.0,100.0
11409,55.0,0,59,5.0,100.0
11410,60.0,0,59,5.0,100.0
11411,60.0,0,59,7.0,100.0
11412,79.0,0,29,8.0,100.0
11413,52.0,0,59,5.0,100.0
11414,52.0,0,59,7.0,100.0
11415,79.0,0,29,6.0,100.0
11416,55.0,0,59,7.0,100.0
11417,79.0,0,29,0.0,90.0
11418,60.0,0,59,10.0,100.0
11419,55.0,0,59,10.0,100.0
11420,52.0,60,59,10.0,100.0
11421,77.0,0,29,4.0,100.0
11422,77.0,0,29,6.0,100.0
11423,77.0,30,29,0.0,90.0
11424,77.0,0,29,8.0,100.0
11425,72.0,0,30,1.0,127.0
11426,52.0,0,30,3.0,90.0
11427,67.0,0,30,2.0,56.0
11428,76.0,0,29,4.0,100.0
11429,76.0,0,29,0.0,90.0
11430,76.0,0,29,8.0,100.0
11431,76.0,30,29,6.0,100.0
11432,74.0,0,29,8.0,100.0
11433,74.0,0,29,6.0,100.0
11434,74.0,0,29,4.0,100.0
11435,74.0,30,29,0.0,90.0
11436,67.0,0,30,1.0,127.0
11437,52.0,0,30,3.0,90.0
11438,60.0,0,30,2.0,56.0
11439,72.0,0,29,4.0,100.0
11440,72.0,0,29,8.0,100.0
11441,72.0,0,29,6.0,100.0
11442,72.0,30,29,0.0,90.0
11443,70.0,0,29,8.0,100.0
11444,70.0,0,29,4.0,100.0
11445,70.0,0,29,0.0,90.0
11446,70.0,0,29,6.0,100.0
11447,53.0,0,30,3.0,90.0
11448,60.0,0,59,7.0,100.0
11449,53.0,0,59,7.0,100.0
11450,53.0,0,59,10.0,100.0
11451,53.0,0,59,5.0,100.0
11452,57.0,30,59,5.0,100.0
11453,60.0,0,59,5.0,100.0
11454,57.0,0,59,7.0,100.0
11455,60.0,0,59,10.0,100.0
11456,57.0,0,59,10.0,100.0
11457,69.0,30,59,8.0,100.0
11458,69.0,0,59,0.0,90.0
11459,69.0,0,59,6.0,100.0
11460,69.0,0,59,4.0,100.0
11461,60.0,30,30,2.0,56.0
11462,53.0,0,30,3.0,90.0
11463,69.0,0,30,1.0,127.0
11464,72.0,0,29,6.0,100.0
11465,72.0,0,29,4.0,100.0
11466,72.0,30,29,0.0,90.0
11467,72.0,0,29,8.0,100.0
11468,69.0,0,30,2.0,56.0
11469,72.0,0,30,1.0,127.0
11470,53.0,0,30,3.0,90.0
11471,77.0,0,89,4.0,100.0
11472,77.0,0,89,6.0,100.0
11473,77.0,30,89,0.0,90.0
11474,77.0,0,89,8.0,100.0
11475,53.0,0,30,3.0,90.0
11476,79.0,0,29,0.0,90.0
11477,79.0,30,29,6.0,100.0
11478,79.0,0,29,4.0,100.0
11479,57.0,0,59,10.0,100.0
11480,79.0,0,29,8.0,100.0
11481,60.0,0,59,7.0,100.0
11482,60.0,0,59,5.0,100.0
11483,53.0,0,59,5.0,100.0
11484,60.0,0,59,10.0,100.0
11485,53.0,60,59,10.0,100.0
11486,57.0,0,59,7.0,100.0
11487,53.0,0,59,7.0,100.0
11488,57.0,0,59,5.0,100.0
11489,81.0,0,8,4.0,100.0
11490,81.0,0,8,8.0,100.0
11491,81.0,30,8,6.0,100.0
11492,79.0,0,8,4.0,100.0
11493,79.0,0,8,8.0,100.0
11494,79.0,7,8,6.0,100.0
11495,81.0,0,8,6.0,100.0
11496,81.0,8,8,4.0,100.0
11497,81.0,0,8,8.0,100.0
11498,79.0,0,29,0.0,90.0
11499,53.0,0,30,3.0,90.0
11500,79.0,0,8,8.0,100.0
11501,79.0,7,8,6.0,100.0
11502,76.0,0,30,1.0,127.0
11503,70.0,0,30,2.0,56.0
11504,79.0,0,8,4.0,100.0
11505,77.0,0,14,8.0,100.0
11506,77.0,0,14,6.0,100.0
11507,77.0,8,14,0.0,90.0
11508,77.0,0,14,4.0,100.0
11509,79.0,0,14,4.0,100.0
11510,79.0,0,14,0.0,90.0
11511,79.0,15,14,8.0,100.0
11512,79.0,0,14,6.0,100.0
11513,77.0,0,30,1.0,127.0
11514,53.0,0,30,3.0,90.0
11515,72.0,0,30,2.0,56.0
11516,81.0,0,89,6.0,100.0
11517,81.0,0,89,4.0,100.0
11518,81.0,15,89,8.0,100.0
11519,81.0,0,89,0.0,90.0
11520,47.0,0,30,3.0,90.0
11521,79.0,0,29,8.0,100.0
11522,79.0,0,29,4.0,100.0
11523,50.0,0,59,5.0,100.0
11524,53.0,0,59,5.0,100.0
11525,59.0,60,59,7.0,100.0
11526,50.0,0,59,7.0,100.0
11527,59.0,0,59,5.0,100.0
11528,79.0,0,29,0.0,90.0
11529,79.0,30,29,6.0,100.0
11530,59.0,0,59,10.0,100.0
11531,50.0,0,59,10.0,100.0
11532,53.0,0,59,7.0,100.0
11533,53.0,0,59,10.0,100.0
11534,77.0,0,29,4.0,100.0
11535,77.0,0,29,0.0,90.0
11536,77.0,0,29,8.0,100.0
11537,77.0,0,29,6.0,100.0
11538,69.0,0,30,2.0,56.0
11539,47.0,0,30,3.0,90.0
11540,74.0,30,30,1.0,127.0
11541,76.0,0,29,4.0,100.0
11542,76.0,0,29,6.0,100.0
11543,76.0,30,29,8.0,100.0
11544,76.0,0,29,0.0,90.0
11545,77.0,0,29,4.0,100.0
11546,77.0,0,29,8.0,100.0
11547,77.0,0,29,6.0,100.0
11548,77.0,0,29,0.0,90.0
11549,62.0,0,30,2.0,56.0
11550,47.0,30,30,3.0,90.0
11551,69.0,0,30,1.0,127.0
11552,74.0,30,29,6.0,100.0
11553,74.0,0,29,8.0,100.0
11554,74.0,0,29,0.0,90.0
11555,74.0,0,29,4.0,100.0
11556,47.0,0,30,3.0,90.0
11557,50.0,0,59,10.0,100.0
11558,47.0,0,59,7.0,100.0
11559,55.0,30,59,7.0,100.0
11560,55.0,0,59,10.0,100.0
11561,50.0,0,59,5.0,100.0
11562,47.0,0,59,5.0,100.0
11563,55.0,0,59,5.0,100.0
11564,47.0,0,59,10.0,100.0
11565,50.0,0,59,7.0,100.0
11566,67.0,0,89,4.0,100.0
11567,67.0,0,89,8.0,100.0
11568,67.0,0,89,6.0,100.0
11569,67.0,0,89,0.0,90.0
11570,47.0,60,30,3.0,90.0
11571,62.0,0,30,2.0,56.0
11572,67.0,0,30,1.0,127.0
11573,81.0,0,29,0.0,90.0
11574,81.0,0,29,6.0,100.0
11575,81.0,0,29,8.0,100.0
11576,81.0,30,29,4.0,100.0
11577,47.0,0,30,3.0,90.0
11578,74.0,0,30,1.0,127.0
11579,67.0,0,30,2.0,56.0
11580,79.0,0,59,4.0,100.0
11581,79.0,30,59,0.0,90.0
11582,79.0,0,59,6.0,100.0
11583,79.0,0,59,8.0,100.0
11584,77.0,0,29,0.0,90.0
11585,77.0,0,29,6.0,100.0
11586,77.0,0,29,8.0,100.0
11587,77.0,0,29,4.0,100.0
11588,48.0,0,30,3.0,90.0
11589,48.0,60,59,10.0,100.0
11590,60.0,0,59,5.0,100.0
11591,55.0,0,59,5.0,100.0
11592,48.0,0,59,5.0,100.0
11593,55.0,0,59,10.0,100.0
11594,48.0,0,59,7.0,100.0
11595,55.0,0,59,7.0,100.0
11596,60.0,0,59,10.0,100.0
11597,60.0,0,59,7.0,100.0
11598,76.0,0,59,8.0,100.0
11599,76.0,0,59,6.0,100.0
11600,76.0,0,59,0.0,90.0
11601,76.0,30,59,4.0,100.0
11602,72.0,0,30,1.0,127.0
11603,48.0,30,30,3.0,90.0
11604,67.0,0,30,2.0,56.0
11605,74.0,0,29,0.0,90.0
11606,74.0,0,29,6.0,100.0
11607,74.0,30,29,8.0,100.0
11608,74.0,0,29,4.0,100.0
11609,67.0,0,30,1.0,127.0
11610,64.0,0,30,2.0,56.0
11611,48.0,0,30,3.0,90.0
11612,72.0,0,89,0.0,90.0
11613,72.0,30,89,6.0,100.0
11614,72.0,0,89,4.0,100.0
11615,72.0,0,89,8.0,100.0
11616,48.0,0,30,3.0,90.0
11617,55.0,0,59,10.0,100.0
11618,55.0,60,59,7.0,100.0
11619,52.0,0,59,7.0,100.0
11620,55.0,0,59,5.0,100.0
11621,52.0,0,59,5.0,100.0
11622,48.0,0,59,5.0,100.0
11623,74.0,0,29,0.0,90.0
11624,74.0,0,29,4.0,100.0
11625,74.0,30,29,8.0,100.0
11626,48.0,0,59,10.0,100.0
11627,74.0,0,29,6.0,100.0
11628,48.0,0,59,7.0,100.0
11629,52.0,0,59,10.0,100.0
11630,76.0,0,29,8.0,100.0
11631,76.0,0,29,6.0,100.0
11632,76.0,0,29,0.0,90.0
11633,76.0,0,29,4.0,100.0
11634,72.0,30,30,1.0,127.0
11635,48.0,0,30,3.0,90.0
11636,67.0,0,30,2.0,56.0
11637,77.0,0,29,0.0,90.0
11638,77.0,0,29,4.0,100.0
11639,77.0,0,29,8.0,100.0
11640,77.0,30,29,6.0,100.0
11641,79.0,0,29,0.0,90.0
11642,79.0,0,29,8.0,100.0
11643,79.0,0,29,6.0,100.0
11644,79.0,0,29,4.0,100.0
11645,48.0,30,30,3.0,90.0
11646,60.0,0,30,2.0,56.0
11647,76.0,0,30,1.0,127.0
11648,81.0,0,29,8.0,100.0
11649,81.0,0,29,0.0,90.0
11650,81.0,0,29,4.0,100.0
11651,81.0,30,29,6.0,100.0
11652,81.0,0,29,0.0,90.0
11653,81.0,0,29,8.0,100.0
11654,81.0,0,29,4.0,100.0
11655,81.0,0,29,6.0,100.0
11656,48.0,0,30,3.0,90.0
11657,55.0,0,59,5.0,100.0
11658,48.0,0,59,10.0,100.0
11659,52.0,0,59,10.0,100.0
11660,55.0,0,59,10.0,100.0
11661,55.0,0,59,7.0,100.0
11662,48.0,0,59,5.0,100.0
11663,48.0,0,59,7.0,100.0
11664,52.0,30,59,5.0,100.0
11665,52.0,0,59,7.0,100.0
11666,82.0,0,59,4.0,100.0
11667,82.0,0,59,8.0,100.0
11668,82.0,30,59,0.0,90.0
11669,82.0,0,59,6.0,100.0
11670,60.0,0,30,2.0,56.0
11671,48.0,0,30,3.0,90.0
11672,76.0,30,30,1.0,127.0
11673,79.0,30,29,6.0,100.0
11674,79.0,0,29,4.0,100.0
11675,79.0,0,29,8.0,100.0
11676,79.0,0,29,0.0,90.0
11677,79.0,0,29,0.0,90.0
11678,79.0,0,29,8.0,100.0
11679,79.0,30,29,6.0,100.0
11680,79.0,0,29,4.0,100.0
11681,60.0,0,30,2.0,56.0
11682,48.0,0,30,3.0,90.0
11683,77.0,0,30,1.0,127.0
11684,48.0,0,30,3.0,90.0
11685,48.0,0,59,10.0,100.0
11686,59.0,0,59,10.0,100.0
11687,53.0,0,59,10.0,100.0
11688,48.0,0,59,7.0,100.0
11689,59.0,0,59,7.0,100.0
11690,53.0,0,59,7.0,100.0
11691,50.0,0,59,7.0,100.0
11692,81.0,30,89,4.0,100.0
11693,50.0,0,59,10.0,100.0
11694,81.0,0,89,8.0,100.0
11695,81.0,0,89,0.0,90.0
11696,81.0,0,89,6.0,100.0
11697,48.0,0,59,5.0,100.0
11698,59.0,0,59,5.0,100.0
11699,53.0,30,59,5.0,100.0
11700,50.0,0,59,5.0,100.0
11701,79.0,0,8,4.0,100.0
11702,79.0,0,8,8.0,100.0
11703,79.0,0,8,6.0,100.0
11704,81.0,7,8,8.0,100.0
11705,81.0,0,8,6.0,100.0
11706,81.0,0,8,4.0,100.0
11707,79.0,60,29,0.0,90.0
11708,74.0,0,30,1.0,127.0
11709,48.0,0,30,3.0,90.0
11710,79.0,8,15,8.0,100.0
11711,79.0,0,15,4.0,100.0
11712,59.0,0,30,2.0,56.0
11713,79.0,0,15,6.0,100.0
11714,77.0,15,29,6.0,100.0
11715,77.0,0,29,8.0,100.0
11716,77.0,0,29,4.0,100.0
11717,77.0,0,29,0.0,90.0
11718,76.0,0,29,8.0,100.0
11719,76.0,0,29,6.0,100.0
11720,76.0,0,29,4.0,100.0
11721,76.0,0,29,0.0,90.0
11722,67.0,0,30,1.0,127.0
11723,48.0,0,30,3.0,90.0
11724,62.0,30,30,2.0,56.0
11725,77.0,0,29,0.0,90.0
11726,77.0,0,29,4.0,100.0
11727,77.0,30,29,8.0,100.0
11728,77.0,0,29,6.0,100.0
11729,77.0,0,29,6.0,100.0
11730,77.0,0,29,0.0,90.0
11731,77.0,0,29,4.0,100.0
11732,77.0,0,29,8.0,100.0
11733,48.0,0,30,3.0,90.0
11734,60.0,0,59,10.0,100.0
11735,55.0,0,59,10.0,100.0
11736,48.0,0,59,10.0,100.0
11737,48.0,0,59,5.0,100.0
11738,60.0,30,59,5.0,100.0
11739,55.0,0,59,5.0,100.0
11740,60.0,0,59,7.0,100.0
11741,48.0,0,59,7.0,100.0
11742,55.0,0,59,7.0,100.0
11743,76.0,30,59,6.0,100.0
11744,76.0,0,59,8.0,100.0
11745,76.0,0,59,4.0,100.0
11746,76.0,0,59,0.0,90.0
11747,67.0,0,30,1.0,127.0
11748,48.0,30,30,3.0,90.0
11749,60.0,0,30,2.0,56.0
11750,77.0,0,29,6.0,100.0
11751,77.0,30,29,8.0,100.0
11752,77.0,0,29,0.0,90.0
11753,77.0,0,29,4.0,100.0
11754,72.0,0,30,1.0,127.0
11755,64.0,0,30,2.0,56.0
11756,48.0,0,30,3.0,90.0
11757,79.0,0,59,6.0,100.0
11758,79.0,0,59,8.0,100.0
11759,79.0,0,59,0.0,90.0
11760,79.0,30,59,4.0,100.0
11761,72.0,0,29,6.0,100.0
11762,72.0,0,29,8.0,100.0
11763,72.0,0,29,0.0,90.0
11764,72.0,0,29,4.0,100.0
11765,48.0,0,30,3.0,90.0
11766,55.0,0,59,5.0,100.0
11767,52.0,0,59,5.0,100.0
11768,48.0,0,59,5.0,100.0
11769,48.0,0,59,7.0,100.0
11770,52.0,60,59,7.0,100.0
11771,48.0,0,59,10.0,100.0
11772,52.0,0,59,10.0,100.0
11773,55.0,0,59,10.0,100.0
11774,55.0,0,59,7.0,100.0
11775,76.0,60,29,0.0,90.0
11776,76.0,0,29,8.0,100.0
11777,76.0,0,29,4.0,100.0
11778,76.0,0,29,6.0,100.0
11779,67.0,0,30,2.0,56.0
11780,72.0,0,30,1.0,127.0
11781,48.0,0,30,3.0,90.0
11782,79.0,0,29,8.0,100.0
11783,79.0,0,29,0.0,90.0
11784,79.0,0,29,4.0,100.0
11785,79.0,0,29,6.0,100.0
11786,76.0,60,30,1.0,127.0
11787,72.0,0,30,2.0,56.0
11788,48.0,0,30,3.0,90.0
11789,48.0,0,30,3.0,90.0
11790,57.0,0,59,5.0,100.0
11791,53.0,0,59,5.0,100.0
11792,48.0,0,59,5.0,100.0
11793,57.0,0,59,10.0,100.0
11794,48.0,60,59,10.0,100.0
11795,53.0,0,59,10.0,100.0
11796,53.0,0,59,7.0,100.0
11797,57.0,0,59,7.0,100.0
11798,48.0,0,59,7.0,100.0
11799,84.0,0,89,6.0,100.0
11800,84.0,0,89,0.0,90.0
11801,84.0,0,89,8.0,100.0
11802,84.0,0,89,4.0,100.0
11803,71.0,60,30,2.0,56.0
11804,48.0,0,30,3.0,90.0
11805,77.0,0,30,1.0,127.0
11806,81.0,0,29,6.0,100.0
11807,81.0,0,29,8.0,100.0
11808,81.0,30,29,0.0,90.0
11809,81.0,0,29,4.0,100.0
11810,81.0,0,29,8.0,100.0
11811,81.0,0,29,0.0,90.0
11812,81.0,0,29,6.0,100.0
11813,81.0,30,29,4.0,100.0
11814,48.0,0,30,3.0,90.0
11815,69.0,0,30,2.0,56.0
11816,76.0,0,30,1.0,127.0
11817,48.0,0,30,3.0,90.0
11818,82.0,0,60,0.0,90.0
11819,82.0,0,60,6.0,100.0
11820,82.0,30,60,8.0,100.0
11821,82.0,0,60,4.0,100.0
11822,48.0,0,59,7.0,100.0
11823,52.0,0,59,7.0,100.0
11824,55.0,0,59,7.0,100.0
11825,52.0,0,59,10.0,100.0
11826,79.0,0,29,8.0,100.0
11827,55.0,0,59,10.0,100.0
11828,48.0,0,59,5.0,100.0
11829,52.0,30,59,5.0,100.0
11830,79.0,30,29,4.0,100.0
11831,48.0,0,59,10.0,100.0
11832,79.0,0,29,6.0,100.0
11833,55.0,0,59,5.0,100.0
11834,79.0,0,29,0.0,90.0
11835,80.0,0,29,6.0,100.0
11836,80.0,0,29,4.0,100.0
11837,80.0,0,29,0.0,90.0
11838,80.0,0,29,8.0,100.0
11839,77.0,0,30,1.0,127.0
11840,72.0,30,30,2.0,56.0
11841,48.0,0,30,3.0,90.0
11842,77.0,0,29,0.0,90.0
11843,77.0,0,29,8.0,100.0
11844,77.0,30,29,6.0,100.0
11845,77.0,0,29,4.0,100.0
11846,77.0,0,29,6.0,100.0
11847,77.0,0,29,0.0,90.0
11848,77.0,0,29,4.0,100.0
11849,77.0,0,29,8.0,100.0
11850,72.0,0,30,2.0,56.0
11851,48.0,30,30,3.0,90.0
11852,76.0,0,30,1.0,127.0
11853,79.0,0,59,4.0,100.0
11854,79.0,0,59,6.0,100.0
11855,79.0,30,59,0.0,90.0
11856,79.0,0,59,8.0,100.0
11857,48.0,0,30,3.0,90.0
11858,52.0,30,59,10.0,100.0
11859,52.0,0,59,5.0,100.0
11860,48.0,0,59,5.0,100.0
11861,76.0,0,29,6.0,100.0
11862,76.0,0,29,0.0,90.0
11863,58.0,0,59,5.0,100.0
11864,58.0,0,59,10.0,100.0
11865,48.0,0,59,10.0,100.0
11866,76.0,0,29,4.0,100.0
11867,76.0,30,29,8.0,100.0
11868,52.0,0,59,7.0,100.0
11869,48.0,0,59,7.0,100.0
11870,58.0,0,59,7.0,100.0
11871,77.0,0,29,8.0,100.0
11872,77.0,0,29,0.0,90.0
11873,77.0,0,29,4.0,100.0
11874,77.0,0,29,6.0,100.0
11875,68.0,30,30,2.0,56.0
11876,48.0,0,30,3.0,90.0
11877,72.0,0,30,1.0,127.0
11878,72.0,0,29,6.0,100.0
11879,72.0,0,29,8.0,100.0
11880,72.0,0,29,0.0,90.0
11881,72.0,30,29,4.0,100.0
11882,73.0,0,29,4.0,100.0
11883,73.0,0,29,8.0,100.0
11884,73.0,0,29,0.0,90.0
11885,73.0,30,29,6.0,100.0
11886,65.0,0,30,2.0,56.0
11887,68.0,0,30,1.0,127.0
11888,48.0,0,30,3.0,90.0
11889,71.0,0,29,6.0,100.0
11890,71.0,0,29,8.0,100.0
11891,71.0,0,29,4.0,100.0
11892,71.0,30,29,0.0,90.0
11893,72.0,0,29,0.0,90.0
11894,72.0,0,29,4.0,100.0
11895,72.0,0,29,6.0,100.0
11896,72.0,30,29,8.0,100.0
11897,48.0,0,30,3.0,90.0
11898,68.0,0,29,8.0,100.0
11899,53.0,0,59,7.0,100.0
11900,56.0,0,59,10.0,100.0
11901,53.0,0,59,10.0,100.0
11902,68.0,0,29,4.0,100.0
11903,48.0,0,59,10.0,100.0
11904,68.0,30,29,6.0,100.0
11905,68.0,0,29,0.0,90.0
11906,53.0,0,59,5.0,100.0
11907,56.0,0,59,5.0,100.0
11908,48.0,0,59,5.0,100.0
11909,56.0,0,59,7.0,100.0
11910,48.0,0,59,7.0,100.0
11911,70.0,0,29,6.0,100.0
11912,70.0,0,29,0.0,90.0
11913,70.0,0,29,4.0,100.0
11914,70.0,0,29,8.0,100.0
11915,64.0,30,30,2.0,56.0
11916,48.0,0,30,3.0,90.0
11917,67.0,0,30,1.0,127.0
11918,67.0,0,29,0.0,90.0
11919,67.0,30,29,4.0,100.0
11920,67.0,0,29,6.0,100.0
11921,67.0,0,29,8.0,100.0
11922,68.0,0,29,6.0,100.0
11923,68.0,30,29,8.0,100.0
11924,68.0,0,29,4.0,100.0
11925,68.0,0,29,0.0,90.0
11926,65.0,0,30,2.0,56.0
11927,48.0,0,30,3.0,90.0
11928,65.0,0,30,1.0,127.0
11929,65.0,0,29,8.0,100.0
11930,65.0,0,29,0.0,90.0
11931,65.0,0,29,6.0,100.0
11932,65.0,30,29,4.0,100.0
11933,66.0,0,29,6.0,100.0
11934,66.0,0,29,8.0,100.0
11935,66.0,0,29,0.0,90.0
11936,66.0,0,29,4.0,100.0
11937,48.0,30,30,3.0,90.0
11938,64.0,0,29,6.0,100.0
11939,48.0,0,59,5.0,100.0
11940,58.0,0,59,5.0,100.0
11941,64.0,0,29,4.0,100.0
11942,64.0,30,29,0.0,90.0
11943,64.0,0,29,8.0,100.0
11944,48.0,0,59,7.0,100.0
11945,58.0,0,59,7.0,100.0
11946,48.0,0,59,10.0,100.0
11947,58.0,0,59,10.0,100.0
11948,65.0,0,29,8.0,100.0
11949,65.0,0,29,6.0,100.0
11950,65.0,0,29,4.0,100.0
11951,65.0,0,29,0.0,90.0
11952,48.0,0,30,3.0,90.0
11953,65.0,30,30,2.0,56.0
11954,68.0,0,30,1.0,127.0
11955,61.0,0,29,6.0,100.0
11956,61.0,0,29,8.0,100.0
11957,61.0,30,29,4.0,100.0
11958,61.0,0,29,0.0,90.0
11959,60.0,0,29,6.0,100.0
11960,60.0,0,29,0.0,90.0
11961,60.0,0,29,4.0,100.0
11962,60.0,0,29,8.0,100.0
11963,48.0,0,30,3.0,90.0
11964,68.0,0,30,1.0,127.0
11965,65.0,30,30,2.0,56.0
11966,59.0,0,29,4.0,100.0
11967,59.0,30,29,0.0,90.0
11968,59.0,0,29,6.0,100.0
11969,59.0,0,29,8.0,100.0
11970,60.0,0,29,0.0,90.0
11971,60.0,0,29,8.0,100.0
11972,60.0,0,29,4.0,100.0
11973,60.0,0,29,6.0,100.0
11974,48.0,0,30,3.0,90.0
11975,80.0,30,29,8.0,100.0
11976,80.0,0,29,6.0,100.0
11977,55.0,0,59,7.0,100.0
11978,48.0,0,59,5.0,100.0
11979,52.0,0,59,5.0,100.0
11980,55.0,0,59,10.0,100.0
11981,48.0,0,59,10.0,100.0
11982,80.0,0,29,0.0,90.0
11983,55.0,0,59,5.0,100.0
11984,80.0,0,29,4.0,100.0
11985,48.0,0,59,7.0,100.0
11986,52.0,30,59,7.0,100.0
11987,52.0,0,59,10.0,100.0
11988,77.0,0,29,6.0,100.0
11989,77.0,0,29,0.0,90.0
11990,77.0,0,29,8.0,100.0
11991,77.0,0,29,4.0,100.0
11992,67.0,0,30,2.0,56.0
11993,72.0,30,30,1.0,127.0
11994,48.0,0,30,3.0,90.0
11995,76.0,30,8,4.0,100.0
11996,76.0,0,8,8.0,100.0
11997,76.0,0,8,6.0,100.0
11998,77.0,0,8,4.0,100.0
11999,77.0,0,8,8.0,100.0
12000,77.0,7,8,6.0,100.0
12001,76.0,0,8,8.0,100.0
12002,76.0,8,8,4.0,100.0
12003,76.0,0,8,6.0,100.0
12004,77.0,0,8,6.0,100.0
12005,77.0,7,8,4.0,100.0
12006,77.0,0,8,8.0,100.0
12007,76.0,0,8,4.0,100.0
12008,76.0,0,8,6.0,100.0
12009,76.0,0,8,8.0,100.0
12010,77.0,0,8,8.0,100.0
12011,77.0,0,8,6.0,100.0
12012,77.0,7,8,4.0,100.0
12013,76.0,0,8,6.0,100.0
12014,76.0,0,8,4.0,100.0
12015,76.0,8,8,8.0,100.0
12016,76.0,0,59,0.0,90.0
12017,67.0,0,30,2.0,56.0
12018,70.0,8,30,1.0,127.0
12019,48.0,0,30,3.0,90.0
12020,77.0,0,29,0.0,90.0
12021,77.0,0,29,6.0,100.0
12022,77.0,0,29,8.0,100.0
12023,77.0,15,29,4.0,100.0
12024,77.0,0,29,0.0,90.0
12025,77.0,0,29,8.0,100.0
12026,77.0,0,29,4.0,100.0
12027,77.0,0,29,6.0,100.0
12028,49.0,0,30,3.0,90.0
12029,49.0,30,59,10.0,100.0
12030,56.0,0,59,7.0,100.0
12031,60.0,0,59,7.0,100.0
12032,76.0,30,29,4.0,100.0
12033,76.0,0,29,0.0,90.0
12034,56.0,0,59,10.0,100.0
12035,76.0,0,29,6.0,100.0
12036,60.0,0,59,5.0,100.0
12037,56.0,0,59,5.0,100.0
12038,49.0,0,59,5.0,100.0
12039,49.0,0,59,7.0,100.0
12040,60.0,0,59,10.0,100.0
12041,76.0,0,29,8.0,100.0
12042,77.0,0,29,0.0,90.0
12043,77.0,0,29,6.0,100.0
12044,77.0,0,29,4.0,100.0
12045,77.0,30,29,8.0,100.0
12046,49.0,0,30,3.0,90.0
12047,68.0,0,30,1.0,127.0
12048,65.0,0,30,2.0,56.0
12049,80.0,0,29,0.0,90.0
12050,80.0,0,29,4.0,100.0
12051,80.0,30,29,6.0,100.0
12052,80.0,0,29,8.0,100.0
12053,79.0,30,29,8.0,100.0
12054,79.0,0,29,4.0,100.0
12055,79.0,0,29,0.0,90.0
12056,79.0,0,29,6.0,100.0
12057,61.0,0,30,2.0,56.0
12058,49.0,0,30,3.0,90.0
12059,70.0,0,30,1.0,127.0
12060,76.0,0,29,0.0,90.0
12061,76.0,30,29,4.0,100.0
12062,76.0,0,29,6.0,100.0
12063,76.0,0,29,8.0,100.0
12064,77.0,0,29,8.0,100.0
12065,77.0,0,29,0.0,90.0
12066,77.0,0,29,4.0,100.0
12067,77.0,30,29,6.0,100.0
12068,50.0,0,30,3.0,90.0
12069,59.0,0,59,10.0,100.0
12070,50.0,0,59,10.0,100.0
12071,74.0,30,29,8.0,100.0
12072,59.0,0,59,5.0,100.0
12073,53.0,0,59,5.0,100.0
12074,50.0,0,59,5.0,100.0
12075,74.0,0,29,6.0,100.0
12076,74.0,0,29,0.0,90.0
12077,53.0,0,59,10.0,100.0
12078,74.0,0,29,4.0,100.0
12079,50.0,0,59,7.0,100.0
12080,53.0,0,59,7.0,100.0
12081,59.0,0,59,7.0,100.0
12082,72.0,0,29,0.0,90.0
12083,72.0,0,29,8.0,100.0
12084,72.0,0,29,4.0,100.0
12085,72.0,30,29,6.0,100.0
12086,68.0,0,30,1.0,127.0
12087,65.0,0,30,2.0,56.0
12088,50.0,0,30,3.0,90.0
12089,71.0,0,59,6.0,100.0
12090,71.0,30,59,0.0,90.0
12091,71.0,0,59,8.0,100.0
12092,71.0,0,59,4.0,100.0
12093,62.0,30,30,2.0,56.0
12094,65.0,0,30,1.0,127.0
12095,50.0,0,30,3.0,90.0
12096,72.0,0,29,6.0,100.0
12097,72.0,30,29,0.0,90.0
12098,72.0,0,29,4.0,100.0
12099,72.0,0,29,8.0,100.0
12100,52.0,0,30,3.0,90.0
12101,55.0,0,59,5.0,100.0
12102,60.0,0,59,10.0,100.0
12103,60.0,0,59,5.0,100.0
12104,55.0,0,59,10.0,100.0
12105,52.0,0,59,10.0,100.0
12106,52.0,0,59,5.0,100.0
12107,60.0,0,59,7.0,100.0
12108,55.0,0,59,7.0,100.0
12109,52.0,0,59,7.0,100.0
12110,82.0,0,89,6.0,100.0
12111,82.0,30,89,8.0,100.0
12112,82.0,0,89,0.0,90.0
12113,82.0,0,89,4.0,100.0
12114,67.0,0,30,2.0,56.0
12115,52.0,60,30,3.0,90.0
12116,72.0,0,30,1.0,127.0
12117,79.0,0,29,6.0,100.0
12118,79.0,30,29,4.0,100.0
12119,79.0,0,29,0.0,90.0
12120,79.0,0,29,8.0,100.0
12121,53.0,0,30,3.0,90.0
12122,65.0,0,30,2.0,56.0
12123,72.0,0,30,1.0,127.0
12124,60.0,0,59,5.0,100.0
12125,53.0,0,59,5.0,100.0
12126,60.0,0,59,7.0,100.0
12127,53.0,0,59,7.0,100.0
12128,53.0,0,59,10.0,100.0
12129,60.0,0,59,10.0,100.0
12130,81.0,0,89,4.0,100.0
12131,81.0,0,89,8.0,100.0
12132,81.0,0,89,6.0,100.0
12133,81.0,30,89,0.0,90.0
12134,58.0,0,30,3.0,90.0
12135,62.0,0,59,5.0,100.0
12136,62.0,0,59,7.0,100.0
12137,79.0,30,29,4.0,100.0
12138,79.0,0,29,8.0,100.0
12139,79.0,0,29,6.0,100.0
12140,58.0,0,59,7.0,100.0
12141,58.0,0,59,5.0,100.0
12142,58.0,0,59,10.0,100.0
12143,79.0,0,29,0.0,90.0
12144,62.0,60,59,10.0,100.0
12145,77.0,0,10,6.0,100.0
12146,77.0,0,10,4.0,100.0
12147,77.0,0,10,8.0,100.0
12148,76.0,0,10,8.0,100.0
12149,76.0,10,10,4.0,100.0
12150,76.0,0,10,6.0,100.0
12151,67.0,0,30,2.0,56.0
12152,60.0,0,30,3.0,90.0
12153,72.0,0,30,1.0,127.0
12154,77.0,0,10,8.0,100.0
12155,77.0,10,10,4.0,100.0
12156,77.0,0,10,6.0,100.0
12157,76.0,0,8,6.0,100.0
12158,76.0,0,8,8.0,100.0
12159,76.0,10,8,4.0,100.0
12160,77.0,0,8,8.0,100.0
12161,77.0,7,8,4.0,100.0
12162,77.0,0,8,6.0,100.0
12163,76.0,0,8,6.0,100.0
12164,76.0,0,8,4.0,100.0
12165,76.0,8,8,8.0,100.0
12166,60.0,0,59,5.0,100.0
12167,60.0,0,59,7.0,100.0
12168,60.0,0,59,10.0,100.0
12169,77.0,0,8,6.0,100.0
12170,77.0,0,8,4.0,100.0
12171,77.0,7,8,8.0,100.0
12172,76.0,0,10,8.0,100.0
12173,76.0,0,10,4.0,100.0
12174,76.0,8,10,6.0,100.0
12175,77.0,10,10,4.0,100.0
12176,77.0,0,10,6.0,100.0
12177,77.0,0,10,8.0,100.0
12178,76.0,30,89,0.0,90.0
12179,76.0,10,10,8.0,100.0
12180,48.0,0,30,3.0,90.0
12181,76.0,0,10,6.0,100.0
12182,67.0,0,30,2.0,56.0
12183,76.0,0,10,4.0,100.0
12184,70.0,0,30,1.0,127.0
12185,58.0,0,59,5.0,100.0
12186,48.0,0,59,5.0,100.0
12187,77.0,10,29,8.0,100.0
12188,77.0,0,29,6.0,100.0
12189,58.0,0,59,7.0,100.0
12190,48.0,0,59,7.0,100.0
12191,77.0,0,29,0.0,90.0
12192,48.0,0,59,10.0,100.0
12193,58.0,0,59,10.0,100.0
12194,77.0,0,29,4.0,100.0
12195,77.0,0,8,8.0,100.0
12196,77.0,30,8,6.0,100.0
12197,77.0,0,8,4.0,100.0
12198,76.0,7,8,8.0,100.0
12199,76.0,0,8,4.0,100.0
12200,76.0,0,8,6.0,100.0
12201,65.0,0,30,2.0,56.0
12202,69.0,0,30,1.0,127.0
12203,57.0,0,59,7.0,100.0
12204,53.0,0,59,10.0,100.0
12205,57.0,0,59,10.0,100.0
12206,57.0,0,59,5.0,100.0
12207,53.0,0,59,7.0,100.0
12208,53.0,0,59,5.0,100.0
12209,77.0,0,89,0.0,90.0
12210,77.0,0,75,6.0,100.0
12211,77.0,0,75,8.0,100.0
12212,60.0,45,30,2.0,56.0
12213,77.0,8,75,4.0,100.0
12214,65.0,0,30,1.0,127.0
12215,69.0,0,29,0.0,90.0
12216,69.0,30,29,8.0,100.0
12217,69.0,0,29,4.0,100.0
12218,69.0,0,29,6.0,100.0
12219,53.0,0,120,3.0,90.0
12220,64.0,30,30,1.0,127.0
12221,58.0,0,30,2.0,56.0
12222,72.0,0,59,8.0,100.0
12223,72.0,0,59,0.0,90.0
12224,72.0,0,59,4.0,100.0
12225,72.0,0,59,6.0,100.0
12226,65.0,0,29,8.0,100.0
12227,65.0,60,29,6.0,100.0
12228,65.0,0,29,4.0,100.0
12229,65.0,30,29,7.0,100.0
12230,65.0,0,29,5.0,100.0
12231,65.0,0,29,10.0,100.0
12232,60.0,0,60,1.0,127.0
12233,57.0,0,60,2.0,56.0
12234,64.0,30,29,7.0,100.0
12235,64.0,0,29,10.0,100.0
12236,64.0,0,29,5.0,100.0
12237,52.0,0,30,3.0,90.0
12238,62.0,0,29,7.0,100.0
12239,62.0,0,29,10.0,100.0
12240,62.0,0,29,5.0,100.0
12241,65.0,0,119,0.0,90.0
12242,50.0,30,30,3.0,90.0
12243,60.0,30,29,5.0,100.0
12244,60.0,0,29,10.0,100.0
12245,60.0,0,29,7.0,100.0
12246,48.0,0,30,3.0,90.0
12247,58.0,0,29,5.0,100.0
12248,58.0,0,29,10.0,100.0
12249,58.0,30,29,7.0,100.0
12250,46.0,0,30,3.0,90.0
12251,65.0,0,29,4.0,100.0
12252,57.0,30,59,7.0,100.0
12253,67.0,30,29,4.0,100.0
12254,57.0,0,59,10.0,100.0
12255,65.0,0,59,8.0,100.0
12256,60.0,0,59,8.0,100.0
12257,57.0,0,59,5.0,100.0
12258,45.0,0,60,3.0,90.0
12259,69.0,0,29,4.0,100.0
12260,70.0,30,29,4.0,100.0
12261,65.0,0,59,6.0,100.0
12262,60.0,0,59,6.0,100.0
12263,57.0,0,59,5.0,100.0
12264,45.0,30,59,7.0,100.0
12265,72.0,0,29,4.0,100.0
12266,60.0,0,59,8.0,100.0
12267,57.0,0,59,10.0,100.0
12268,69.0,30,59,6.0,100.0
12269,65.0,0,59,6.0,100.0
12270,65.0,0,59,8.0,100.0
12271,57.0,0,59,5.0,100.0
12272,74.0,30,29,4.0,100.0
12273,75.0,0,29,4.0,100.0
12274,55.0,0,59,7.0,100.0
12275,55.0,0,59,5.0,100.0
12276,70.0,0,59,8.0,100.0
12277,67.0,0,59,8.0,100.0
12278,74.0,30,29,4.0,100.0
12279,43.0,30,59,10.0,100.0
12280,43.0,0,60,3.0,90.0
12281,75.0,0,29,4.0,100.0
12282,43.0,0,59,7.0,100.0
12283,79.0,30,29,4.0,100.0
12284,67.0,0,59,6.0,100.0
12285,70.0,0,59,6.0,100.0
12286,55.0,30,59,5.0,100.0
12287,77.0,0,29,4.0,100.0
12288,55.0,0,59,10.0,100.0
12289,75.0,30,29,4.0,100.0
12290,72.0,0,59,6.0,100.0
12291,60.0,0,59,8.0,100.0
12292,69.0,30,59,8.0,100.0
12293,69.0,0,59,6.0,100.0
12294,55.0,0,59,5.0,100.0
12295,74.0,0,29,4.0,100.0
12296,54.0,0,59,7.0,100.0
12297,54.0,0,59,5.0,100.0
12298,76.0,30,29,4.0,100.0
12299,69.0,0,59,8.0,100.0
12300,42.0,30,59,10.0,100.0
12301,62.0,0,59,8.0,100.0
12302,42.0,0,60,3.0,90.0
12303,78.0,0,29,4.0,100.0
12304,79.0,30,29,4.0,100.0
12305,42.0,0,59,7.0,100.0
12306,54.0,30,59,5.0,100.0
12307,74.0,0,59,6.0,100.0
12308,69.0,0,59,6.0,100.0
12309,81.0,0,29,4.0,100.0
12310,82.0,30,29,4.0,100.0
12311,54.0,0,59,5.0,100.0
12312,69.0,30,59,8.0,100.0
12313,72.0,0,59,6.0,100.0
12314,62.0,0,59,6.0,100.0
12315,54.0,0,59,10.0,100.0
12316,62.0,0,59,8.0,100.0
12317,72.0,0,29,4.0,100.0
12318,66.0,0,59,8.0,100.0
12319,70.0,30,29,4.0,100.0
12320,38.0,0,59,10.0,100.0
12321,50.0,0,59,7.0,100.0
12322,57.0,30,59,8.0,100.0
12323,50.0,0,59,5.0,100.0
12324,38.0,0,60,3.0,90.0
12325,72.0,0,29,4.0,100.0
12326,38.0,30,59,7.0,100.0
12327,81.0,30,29,4.0,100.0
12328,66.0,0,59,6.0,100.0
12329,50.0,0,59,5.0,100.0
12330,69.0,0,59,6.0,100.0
12331,82.0,0,29,4.0,100.0
12332,50.0,0,59,10.0,100.0
12333,50.0,0,59,5.0,100.0
12334,62.0,0,59,6.0,100.0
12335,84.0,30,29,4.0,100.0
12336,66.0,0,59,6.0,100.0
12337,65.0,30,59,8.0,100.0
12338,62.0,0,59,8.0,100.0
12339,82.0,0,29,4.0,100.0
12340,55.0,0,59,7.0,100.0
12341,43.0,0,59,10.0,100.0
12342,67.0,0,59,8.0,100.0
12343,55.0,30,59,5.0,100.0
12344,81.0,30,29,4.0,100.0
12345,62.0,0,59,8.0,100.0
12346,43.0,0,60,3.0,90.0
12347,79.0,0,29,4.0,100.0
12348,81.0,30,29,4.0,100.0
12349,70.0,0,59,6.0,100.0
12350,55.0,0,59,5.0,100.0
12351,43.0,0,59,7.0,100.0
12352,62.0,30,59,6.0,100.0
12353,82.0,0,29,4.0,100.0
12354,55.0,30,59,10.0,100.0
12355,77.0,30,29,4.0,100.0
12356,70.0,0,59,8.0,100.0
12357,67.0,0,59,6.0,100.0
12358,74.0,0,59,6.0,100.0
12359,55.0,0,59,5.0,100.0
12360,62.0,0,59,8.0,100.0
12361,75.0,0,29,4.0,100.0
12362,48.0,0,59,5.0,100.0
12363,67.0,0,59,8.0,100.0
12364,74.0,30,29,4.0,100.0
12365,48.0,30,59,7.0,100.0
12366,36.0,0,59,10.0,100.0
12367,60.0,0,59,8.0,100.0
12368,48.0,0,60,3.0,90.0
12369,75.0,0,29,4.0,100.0
12370,48.0,0,59,5.0,100.0
12371,36.0,30,59,7.0,100.0
12372,84.0,30,29,4.0,100.0
12373,72.0,0,59,6.0,100.0
12374,67.0,0,59,6.0,100.0
12375,81.0,0,29,4.0,100.0
12376,82.0,30,29,4.0,100.0
12377,48.0,30,59,10.0,100.0
12378,63.0,0,59,8.0,100.0
12379,48.0,0,59,5.0,100.0
12380,72.0,0,59,8.0,100.0
12381,72.0,0,59,6.0,100.0
12382,75.0,0,59,6.0,100.0
12383,78.0,0,29,4.0,100.0
12384,62.0,0,59,8.0,100.0
12385,50.0,30,59,5.0,100.0
12386,38.0,0,59,10.0,100.0
12387,50.0,0,59,7.0,100.0
12388,79.0,30,29,4.0,100.0
12389,69.0,0,59,8.0,100.0
12390,50.0,0,60,3.0,90.0
12391,81.0,0,29,4.0,100.0
12392,74.0,0,59,6.0,100.0
12393,38.0,30,59,7.0,100.0
12394,50.0,0,59,5.0,100.0
12395,72.0,30,29,4.0,100.0
12396,66.0,0,59,6.0,100.0
12397,74.0,0,29,4.0,100.0
12398,66.0,0,59,8.0,100.0
12399,69.0,0,59,8.0,100.0
12400,50.0,0,59,10.0,100.0
12401,69.0,0,59,6.0,100.0
12402,75.0,30,29,4.0,100.0
12403,50.0,0,59,5.0,100.0
12404,78.0,30,59,6.0,100.0
12405,69.0,0,29,4.0,100.0
12406,54.0,0,59,5.0,100.0
12407,74.0,0,59,8.0,100.0
12408,69.0,30,59,8.0,100.0
12409,54.0,0,59,7.0,100.0
12410,42.0,0,59,10.0,100.0
12411,70.0,30,29,4.0,100.0
12412,54.0,0,60,3.0,90.0
12413,72.0,0,29,4.0,100.0
12414,54.0,30,59,5.0,100.0
12415,81.0,0,59,6.0,100.0
12416,74.0,0,59,6.0,100.0
12417,42.0,0,59,7.0,100.0
12418,75.0,30,29,4.0,100.0
12419,74.0,0,29,4.0,100.0
12420,74.0,0,59,6.0,100.0
12421,62.0,0,59,8.0,100.0
12422,72.0,30,29,4.0,100.0
12423,54.0,30,59,10.0,100.0
12424,54.0,0,59,5.0,100.0
12425,69.0,0,59,6.0,100.0
12426,69.0,0,59,8.0,100.0
12427,70.0,30,29,4.0,100.0
12428,67.0,0,59,8.0,100.0
12429,62.0,0,59,8.0,100.0
12430,55.0,0,59,7.0,100.0
12431,43.0,0,59,10.0,100.0
12432,55.0,0,59,5.0,100.0
12433,69.0,30,29,4.0,100.0
12434,55.0,0,60,3.0,90.0
12435,70.0,0,29,4.0,100.0
12436,55.0,30,59,5.0,100.0
12437,70.0,0,59,6.0,100.0
12438,74.0,0,59,6.0,100.0
12439,43.0,0,59,7.0,100.0
12440,74.0,30,29,4.0,100.0
12441,76.0,0,29,4.0,100.0
12442,55.0,30,59,5.0,100.0
12443,55.0,0,59,10.0,100.0
12444,70.0,0,59,8.0,100.0
12445,70.0,0,59,6.0,100.0
12446,77.0,30,29,4.0,100.0
12447,67.0,0,59,8.0,100.0
12448,67.0,0,59,6.0,100.0
12449,79.0,0,29,4.0,100.0
12450,58.0,0,59,7.0,100.0
12451,76.0,30,29,4.0,100.0
12452,46.0,0,59,10.0,100.0
12453,74.0,0,59,8.0,100.0
12454,58.0,30,59,5.0,100.0
12455,67.0,0,59,8.0,100.0
12456,58.0,0,60,3.0,90.0
12457,77.0,0,29,4.0,100.0
12458,74.0,30,59,6.0,100.0
12459,67.0,0,59,6.0,100.0
12460,79.0,30,29,4.0,100.0
12461,46.0,0,59,7.0,100.0
12462,58.0,0,59,5.0,100.0
12463,81.0,0,29,4.0,100.0
12464,58.0,0,59,10.0,100.0
12465,82.0,30,29,4.0,100.0
12466,62.0,0,59,8.0,100.0
12467,67.0,30,59,8.0,100.0
12468,58.0,0,59,5.0,100.0
12469,79.0,0,59,6.0,100.0
12470,74.0,0,59,6.0,100.0
12471,73.0,0,29,4.0,100.0
12472,57.0,30,59,7.0,100.0
12473,57.0,0,59,5.0,100.0
12474,64.0,0,59,8.0,100.0
12475,45.0,0,59,10.0,100.0
12476,76.0,30,29,4.0,100.0
12477,69.0,0,59,8.0,100.0
12478,57.0,0,60,3.0,90.0
12479,74.0,0,29,4.0,100.0
12480,81.0,0,59,6.0,100.0
12481,57.0,30,59,5.0,100.0
12482,45.0,0,59,7.0,100.0
12483,76.0,0,59,6.0,100.0
12484,73.0,30,29,4.0,100.0
12485,71.0,0,29,4.0,100.0
12486,76.0,0,59,6.0,100.0
12487,73.0,0,59,6.0,100.0
12488,57.0,0,59,5.0,100.0
12489,69.0,30,29,4.0,100.0
12490,57.0,0,59,10.0,100.0
12491,73.0,0,59,8.0,100.0
12492,64.0,30,59,8.0,100.0
12493,76.0,0,29,4.0,100.0
12494,70.0,30,29,4.0,100.0
12495,69.0,0,59,8.0,100.0
12496,61.0,0,59,7.0,100.0
12497,64.0,0,59,8.0,100.0
12498,49.0,30,59,5.0,100.0
12499,49.0,0,59,10.0,100.0
12500,49.0,0,60,3.0,90.0
12501,69.0,0,29,4.0,100.0
12502,49.0,0,59,5.0,100.0
12503,76.0,30,59,6.0,100.0
12504,49.0,0,59,7.0,100.0
12505,69.0,0,59,6.0,100.0
12506,67.0,30,29,4.0,100.0
12507,65.0,30,29,4.0,100.0
12508,64.0,30,29,4.0,100.0
12509,76.0,0,59,8.0,100.0
12510,70.0,0,59,8.0,100.0
12511,61.0,0,59,10.0,100.0
12512,70.0,0,59,6.0,100.0
12513,79.0,0,59,6.0,100.0
12514,49.0,0,59,5.0,100.0
12515,65.0,30,29,4.0,100.0
12516,50.0,0,59,5.0,100.0
12517,50.0,0,59,10.0,100.0
12518,69.0,0,59,8.0,100.0
12519,74.0,0,59,8.0,100.0
12520,62.0,0,59,7.0,100.0
12521,64.0,30,29,4.0,100.0
12522,50.0,0,60,3.0,90.0
12523,65.0,0,29,4.0,100.0
12524,69.0,30,29,4.0,100.0
12525,69.0,0,59,6.0,100.0
12526,50.0,0,59,7.0,100.0
12527,50.0,30,59,5.0,100.0
12528,77.0,0,59,6.0,100.0
12529,74.0,0,29,4.0,100.0
12530,65.0,0,59,6.0,100.0
12531,77.0,0,59,8.0,100.0
12532,69.0,0,59,8.0,100.0
12533,62.0,0,59,10.0,100.0
12534,69.0,30,59,6.0,100.0
12535,50.0,0,59,5.0,100.0
12536,73.0,30,29,4.0,100.0
12537,74.0,0,29,4.0,100.0
12538,57.0,0,59,7.0,100.0
12539,45.0,30,59,10.0,100.0
12540,76.0,0,59,8.0,100.0
12541,45.0,0,59,5.0,100.0
12542,69.0,0,59,8.0,100.0
12543,76.0,30,29,4.0,100.0
12544,45.0,0,60,3.0,90.0
12545,77.0,0,29,4.0,100.0
12546,45.0,30,59,7.0,100.0
12547,62.0,0,59,6.0,100.0
12548,79.0,30,29,4.0,100.0
12549,69.0,0,59,6.0,100.0
12550,45.0,0,59,5.0,100.0
12551,81.0,0,29,4.0,100.0
12552,73.0,30,59,6.0,100.0
12553,45.0,0,59,5.0,100.0
12554,64.0,0,59,6.0,100.0
12555,57.0,0,59,10.0,100.0
12556,79.0,0,59,8.0,100.0
12557,69.0,0,59,8.0,100.0
12558,73.0,30,59,4.0,100.0
12559,77.0,0,59,8.0,100.0
12560,69.0,0,59,8.0,100.0
12561,74.0,30,29,4.0,100.0
12562,65.0,30,29,4.0,100.0
12563,65.0,0,59,6.0,100.0
12564,74.0,0,59,6.0,100.0
12565,67.0,30,29,4.0,100.0
12566,38.0,0,120,3.0,90.0
12567,69.0,0,29,4.0,100.0
12568,65.0,30,29,4.0,100.0
12569,81.0,0,59,8.0,100.0
12570,50.0,30,179,7.0,100.0
12571,77.0,30,59,8.0,100.0
12572,50.0,0,179,10.0,100.0
12573,62.0,0,59,6.0,100.0
12574,69.0,0,59,6.0,100.0
12575,50.0,0,210,5.0,100.0
12576,57.0,0,29,5.0,100.0
12577,62.0,0,29,7.0,100.0
12578,53.0,30,29,10.0,100.0
12579,53.0,30,29,5.0,100.0
12580,60.0,0,29,7.0,100.0
12581,57.0,0,29,10.0,100.0
12582,45.0,0,30,3.0,90.0
12583,57.0,0,119,6.0,100.0
12584,65.0,0,119,6.0,100.0
12585,55.0,0,29,10.0,100.0
12586,59.0,0,29,7.0,100.0
12587,62.0,0,119,4.0,100.0
12588,55.0,30,29,5.0,100.0
12589,86.0,0,119,8.0,100.0
12590,81.0,30,119,8.0,100.0
12591,57.0,0,29,7.0,100.0
12592,53.0,0,29,10.0,100.0
12593,57.0,0,29,5.0,100.0
12594,48.0,30,30,3.0,90.0
12595,60.0,30,29,7.0,100.0
12596,57.0,0,29,10.0,100.0
12597,53.0,0,29,5.0,100.0
12598,67.0,0,29,4.0,100.0
12599,47.0,0,59,5.0,100.0
12600,79.0,0,59,8.0,100.0
12601,74.0,30,59,8.0,100.0
12602,69.0,30,29,4.0,100.0
12603,47.0,0,59,10.0,100.0
12604,59.0,0,59,7.0,100.0
12605,47.0,0,60,3.0,90.0
12606,71.0,0,29,4.0,100.0
12607,67.0,0,59,6.0,100.0
12608,47.0,0,59,5.0,100.0
12609,62.0,30,59,6.0,100.0
12610,72.0,30,29,4.0,100.0
12611,47.0,0,59,7.0,100.0
12612,74.0,0,29,4.0,100.0
12613,47.0,30,59,5.0,100.0
12614,67.0,0,59,6.0,100.0
12615,76.0,30,29,4.0,100.0
12616,71.0,0,59,6.0,100.0
12617,59.0,0,59,10.0,100.0
12618,67.0,0,59,8.0,100.0
12619,74.0,0,59,8.0,100.0
12620,77.0,30,29,4.0,100.0
12621,47.0,0,59,10.0,100.0
12622,67.0,0,59,8.0,100.0
12623,62.0,0,59,8.0,100.0
12624,76.0,30,29,4.0,100.0
12625,59.0,0,59,7.0,100.0
12626,47.0,0,59,5.0,100.0
12627,77.0,0,29,4.0,100.0
12628,74.0,30,59,6.0,100.0
12629,67.0,0,59,6.0,100.0
12630,47.0,0,59,7.0,100.0
12631,47.0,0,59,5.0,100.0
12632,81.0,30,29,4.0,100.0
12633,79.0,30,29,4.0,100.0
12634,59.0,0,59,10.0,100.0
12635,74.0,0,59,8.0,100.0
12636,77.0,30,29,4.0,100.0
12637,79.0,0,59,6.0,100.0
12638,74.0,0,59,6.0,100.0
12639,47.0,0,59,5.0,100.0
12640,67.0,0,59,8.0,100.0
12641,76.0,0,29,4.0,100.0
12642,67.0,0,59,8.0,100.0
12643,46.0,0,59,5.0,100.0
12644,72.0,0,59,8.0,100.0
12645,46.0,0,59,10.0,100.0
12646,58.0,30,59,7.0,100.0
12647,77.0,30,29,4.0,100.0
12648,46.0,0,60,3.0,90.0
12649,79.0,0,29,4.0,100.0
12650,81.0,30,29,4.0,100.0
12651,76.0,0,59,6.0,100.0
12652,72.0,0,59,6.0,100.0
12653,46.0,0,59,7.0,100.0
12654,46.0,30,59,5.0,100.0
12655,82.0,0,29,4.0,100.0
12656,46.0,30,59,5.0,100.0
12657,76.0,0,59,8.0,100.0
12658,67.0,0,59,8.0,100.0
12659,58.0,0,59,10.0,100.0
12660,84.0,30,29,4.0,100.0
12661,67.0,0,59,6.0,100.0
12662,72.0,0,59,6.0,100.0
12663,77.0,0,29,4.0,100.0
12664,58.0,0,59,7.0,100.0
12665,72.0,0,59,8.0,100.0
12666,46.0,30,59,10.0,100.0
12667,76.0,30,29,4.0,100.0
12668,46.0,0,59,5.0,100.0
12669,79.0,0,59,8.0,100.0
12670,74.0,0,29,4.0,100.0
12671,46.0,30,59,7.0,100.0
12672,64.0,0,59,6.0,100.0
12673,67.0,0,59,6.0,100.0
12674,72.0,30,29,4.0,100.0
12675,46.0,0,59,5.0,100.0
12676,75.0,0,29,4.0,100.0
12677,58.0,0,59,10.0,100.0
12678,67.0,0,59,6.0,100.0
12679,72.0,0,59,6.0,100.0
12680,79.0,30,59,8.0,100.0
12681,72.0,0,59,8.0,100.0
12682,74.0,30,29,4.0,100.0
12683,46.0,0,59,5.0,100.0
12684,75.0,0,29,4.0,100.0
12685,57.0,0,59,7.0,100.0
12686,74.0,30,29,4.0,100.0
12687,45.0,0,59,5.0,100.0
12688,77.0,0,59,8.0,100.0
12689,72.0,0,59,8.0,100.0
12690,45.0,30,59,10.0,100.0
12691,45.0,0,60,3.0,90.0
12692,75.0,0,29,4.0,100.0
12693,81.0,30,29,4.0,100.0
12694,45.0,0,59,5.0,100.0
12695,72.0,0,59,6.0,100.0
12696,65.0,30,59,6.0,100.0
12697,45.0,0,59,7.0,100.0
12698,82.0,0,29,4.0,100.0
12699,75.0,0,59,6.0,100.0
12700,57.0,30,59,10.0,100.0
12701,65.0,0,59,8.0,100.0
12702,72.0,0,59,8.0,100.0
12703,45.0,0,59,5.0,100.0
12704,65.0,0,59,6.0,100.0
12705,84.0,30,29,4.0,100.0
12706,82.0,0,29,4.0,100.0
12707,75.0,0,59,8.0,100.0
12708,72.0,0,59,8.0,100.0
12709,81.0,30,29,4.0,100.0
12710,41.0,0,59,5.0,100.0
12711,41.0,0,59,10.0,100.0
12712,53.0,30,59,7.0,100.0
12713,41.0,0,60,3.0,90.0
12714,79.0,0,29,4.0,100.0
12715,41.0,0,59,5.0,100.0
12716,72.0,0,59,6.0,100.0
12717,41.0,0,59,7.0,100.0
12718,69.0,30,59,6.0,100.0
12719,77.0,30,29,4.0,100.0
12720,84.0,30,29,4.0,100.0
12721,41.0,0,59,5.0,100.0
12722,75.0,30,29,4.0,100.0
12723,69.0,0,59,8.0,100.0
12724,77.0,0,59,8.0,100.0
12725,69.0,0,59,6.0,100.0
12726,65.0,0,59,6.0,100.0
12727,53.0,0,59,10.0,100.0
12728,74.0,0,29,4.0,100.0
12729,58.0,30,59,7.0,100.0
12730,70.0,0,59,8.0,100.0
12731,77.0,0,59,8.0,100.0
12732,75.0,30,29,4.0,100.0
12733,46.0,0,59,10.0,100.0
12734,46.0,0,59,5.0,100.0
12735,50.0,0,60,3.0,90.0
12736,77.0,30,29,4.0,100.0
12737,70.0,0,59,6.0,100.0
12738,62.0,0,59,6.0,100.0
12739,82.0,30,29,4.0,100.0
12740,46.0,0,59,5.0,100.0
12741,46.0,0,59,7.0,100.0
12742,74.0,0,29,4.0,100.0
12743,46.0,0,59,5.0,100.0
12744,70.0,0,59,8.0,100.0
12745,77.0,0,59,8.0,100.0
12746,65.0,0,59,6.0,100.0
12747,74.0,30,59,6.0,100.0
12748,72.0,30,29,4.0,100.0
12749,58.0,0,59,10.0,100.0
12750,70.0,30,29,4.0,100.0
12751,50.0,0,59,7.0,100.0
12752,82.0,0,59,8.0,100.0
12753,50.0,0,59,10.0,100.0
12754,74.0,30,29,4.0,100.0
12755,77.0,0,59,8.0,100.0
12756,50.0,0,59,5.0,100.0
12757,38.0,0,60,3.0,90.0
12758,72.0,0,29,4.0,100.0
12759,70.0,30,29,4.0,100.0
12760,50.0,0,59,5.0,100.0
12761,74.0,0,59,6.0,100.0
12762,38.0,0,59,7.0,100.0
12763,77.0,30,59,6.0,100.0
12764,69.0,0,29,4.0,100.0
12765,77.0,0,59,6.0,100.0
12766,82.0,0,59,6.0,100.0
12767,74.0,30,59,8.0,100.0
12768,65.0,0,59,8.0,100.0
12769,62.0,0,59,10.0,100.0
12770,50.0,0,59,5.0,100.0
12771,67.0,30,29,4.0,100.0
12772,70.0,30,29,4.0,100.0
12773,69.0,30,29,4.0,100.0
12774,72.0,0,59,8.0,100.0
12775,52.0,0,59,7.0,100.0
12776,52.0,0,59,5.0,100.0
12777,67.0,0,59,8.0,100.0
12778,52.0,0,59,10.0,100.0
12779,40.0,0,60,3.0,90.0
12780,70.0,0,29,4.0,100.0
12781,76.0,30,29,4.0,100.0
12782,72.0,30,59,6.0,100.0
12783,79.0,0,59,6.0,100.0
12784,40.0,0,59,7.0,100.0
12785,52.0,0,59,5.0,100.0
12786,77.0,0,29,4.0,100.0
12787,67.0,30,59,8.0,100.0
12788,79.0,30,29,4.0,100.0
12789,52.0,0,59,10.0,100.0
12790,60.0,0,59,8.0,100.0
12791,52.0,0,59,5.0,100.0
12792,70.0,0,59,6.0,100.0
12793,72.0,0,59,6.0,100.0
12794,77.0,0,29,4.0,100.0
12795,36.0,0,59,10.0,100.0
12796,48.0,0,59,5.0,100.0
12797,67.0,0,59,8.0,100.0
12798,76.0,30,29,4.0,100.0
12799,72.0,0,59,8.0,100.0
12800,48.0,30,59,7.0,100.0
12801,36.0,0,60,3.0,90.0
12802,74.0,0,29,4.0,100.0
12803,70.0,0,59,6.0,100.0
12804,64.0,0,59,6.0,100.0
12805,72.0,30,29,4.0,100.0
12806,48.0,30,59,5.0,100.0
12807,36.0,0,59,7.0,100.0
12808,79.0,0,29,4.0,100.0
12809,70.0,0,59,6.0,100.0
12810,76.0,0,59,6.0,100.0
12811,64.0,0,59,8.0,100.0
12812,48.0,30,59,10.0,100.0
12813,48.0,0,59,5.0,100.0
12814,72.0,0,59,8.0,100.0
12815,70.0,30,29,4.0,100.0
12816,69.0,0,29,4.0,100.0
12817,70.0,30,29,4.0,100.0
12818,53.0,0,59,5.0,100.0
12819,72.0,0,59,8.0,100.0
12820,53.0,0,59,7.0,100.0
12821,65.0,0,59,8.0,100.0
12822,41.0,0,59,10.0,100.0
12823,41.0,30,60,3.0,90.0
12824,72.0,30,29,4.0,100.0
12825,69.0,0,59,6.0,100.0
12826,41.0,0,59,7.0,100.0
12827,77.0,30,29,4.0,100.0
12828,53.0,0,59,5.0,100.0
12829,77.0,0,59,6.0,100.0
12830,69.0,30,29,4.0,100.0
12831,72.0,0,59,8.0,100.0
12832,65.0,0,59,8.0,100.0
12833,67.0,30,29,4.0,100.0
12834,53.0,0,59,5.0,100.0
12835,72.0,0,59,6.0,100.0
12836,65.0,0,59,6.0,100.0
12837,53.0,0,59,10.0,100.0
12838,65.0,0,29,4.0,100.0
12839,72.0,0,59,8.0,100.0
12840,77.0,30,59,8.0,100.0
12841,69.0,30,29,4.0,100.0
12842,57.0,0,59,5.0,100.0
12843,45.0,0,59,10.0,100.0
12844,57.0,0,59,7.0,100.0
12845,45.0,0,60,3.0,90.0
12846,72.0,0,29,4.0,100.0
12847,69.0,0,59,6.0,100.0
12848,45.0,30,59,7.0,100.0
12849,57.0,0,59,5.0,100.0
12850,76.0,30,29,4.0,100.0
12851,65.0,0,59,6.0,100.0
12852,77.0,0,29,4.0,100.0
12853,76.0,0,59,8.0,100.0
12854,57.0,0,59,10.0,100.0
12855,60.0,30,59,6.0,100.0
12856,65.0,0,59,6.0,100.0
12857,79.0,30,29,4.0,100.0
12858,57.0,0,59,5.0,100.0
12859,72.0,0,59,8.0,100.0
12860,77.0,0,29,4.0,100.0
12861,76.0,30,29,4.0,100.0
12862,74.0,0,59,8.0,100.0
12863,47.0,0,59,10.0,100.0
12864,67.0,30,59,8.0,100.0
12865,47.0,0,59,5.0,100.0
12866,59.0,0,59,7.0,100.0
12867,47.0,0,60,3.0,90.0
12868,77.0,30,29,4.0,100.0
12869,81.0,30,29,4.0,100.0
12870,62.0,0,59,6.0,100.0
12871,47.0,0,59,5.0,100.0
12872,67.0,0,59,6.0,100.0
12873,47.0,0,59,7.0,100.0
12874,74.0,0,29,4.0,100.0
12875,77.0,30,29,4.0,100.0
12876,67.0,0,59,6.0,100.0
12877,71.0,30,59,6.0,100.0
12878,59.0,0,59,10.0,100.0
12879,47.0,0,59,5.0,100.0
12880,67.0,0,59,8.0,100.0
12881,74.0,0,59,8.0,100.0
12882,71.0,30,29,4.0,100.0
12883,79.0,0,59,8.0,100.0
12884,55.0,0,59,7.0,100.0
12885,74.0,0,59,8.0,100.0
12886,74.0,30,29,4.0,100.0
12887,43.0,0,59,10.0,100.0
12888,43.0,0,59,5.0,100.0
12889,43.0,0,60,3.0,90.0
12890,77.0,30,29,4.0,100.0
12891,43.0,0,59,7.0,100.0
12892,67.0,0,59,6.0,100.0
12893,71.0,0,59,6.0,100.0
12894,81.0,30,29,4.0,100.0
12895,43.0,0,59,5.0,100.0
12896,79.0,0,29,4.0,100.0
12897,77.0,30,29,4.0,100.0
12898,67.0,0,59,8.0,100.0
12899,55.0,0,59,10.0,100.0
12900,74.0,0,59,6.0,100.0
12901,71.0,0,59,6.0,100.0
12902,43.0,30,59,5.0,100.0
12903,71.0,0,59,8.0,100.0
12904,76.0,0,29,4.0,100.0
12905,48.0,0,59,10.0,100.0
12906,77.0,30,29,4.0,100.0
12907,48.0,0,59,7.0,100.0
12908,67.0,0,59,8.0,100.0
12909,48.0,30,59,5.0,100.0
12910,72.0,0,59,8.0,100.0
12911,48.0,0,60,3.0,90.0
12912,79.0,0,29,4.0,100.0
12913,84.0,30,29,4.0,100.0
12914,76.0,30,59,6.0,100.0
12915,36.0,0,59,7.0,100.0
12916,72.0,0,59,6.0,100.0
12917,48.0,0,59,5.0,100.0
12918,76.0,30,29,4.0,100.0
12919,72.0,0,59,8.0,100.0
12920,48.0,0,59,5.0,100.0
12921,74.0,30,29,4.0,100.0
12922,79.0,0,59,8.0,100.0
12923,72.0,0,59,6.0,100.0
12924,60.0,0,59,10.0,100.0
12925,79.0,0,59,6.0,100.0
12926,72.0,0,29,4.0,100.0
12927,76.0,30,59,8.0,100.0
12928,84.0,0,59,8.0,100.0
12929,48.0,0,59,10.0,100.0
12930,48.0,0,59,7.0,100.0
12931,74.0,30,29,4.0,100.0
12932,48.0,0,59,5.0,100.0
12933,76.0,0,29,4.0,100.0
12934,76.0,0,59,6.0,100.0
12935,77.0,30,29,4.0,100.0
12936,67.0,0,59,6.0,100.0
12937,48.0,30,59,5.0,100.0
12938,36.0,0,59,7.0,100.0
12939,79.0,0,29,4.0,100.0
12940,76.0,0,59,8.0,100.0
12941,48.0,0,59,5.0,100.0
12942,48.0,0,59,10.0,100.0
12943,72.0,0,59,8.0,100.0
12944,72.0,30,59,6.0,100.0
12945,64.0,0,59,6.0,100.0
12946,81.0,30,29,4.0,100.0
12947,82.0,0,29,4.0,100.0
12948,81.0,30,29,4.0,100.0
12949,36.0,0,59,10.0,100.0
12950,48.0,0,59,5.0,100.0
12951,48.0,0,59,7.0,100.0
12952,76.0,0,59,8.0,100.0
12953,67.0,30,59,8.0,100.0
12954,48.0,0,60,3.0,90.0
12955,82.0,0,29,4.0,100.0
12956,36.0,0,59,7.0,100.0
12957,76.0,0,59,6.0,100.0
12958,67.0,30,59,6.0,100.0
12959,79.0,30,29,4.0,100.0
12960,48.0,0,59,5.0,100.0
12961,81.0,0,29,4.0,100.0
12962,48.0,30,59,5.0,100.0
12963,79.0,30,29,4.0,100.0
12964,65.0,0,59,8.0,100.0
12965,72.0,0,59,8.0,100.0
12966,48.0,0,59,10.0,100.0
12967,77.0,0,59,6.0,100.0
12968,72.0,0,59,6.0,100.0
12969,81.0,0,29,4.0,100.0
12970,72.0,0,59,8.0,100.0
12971,36.0,0,59,10.0,100.0
12972,48.0,0,59,5.0,100.0
12973,48.0,30,59,7.0,100.0
12974,77.0,30,29,4.0,100.0
12975,65.0,0,59,8.0,100.0
12976,79.0,0,29,4.0,100.0
12977,48.0,0,59,5.0,100.0
12978,36.0,0,59,7.0,100.0
12979,76.0,0,59,6.0,100.0
12980,76.0,30,29,4.0,100.0
12981,72.0,30,59,6.0,100.0
12982,77.0,0,29,4.0,100.0
12983,48.0,0,59,10.0,100.0
12984,65.0,0,59,8.0,100.0
12985,48.0,0,59,5.0,100.0
12986,74.0,30,29,4.0,100.0
12987,74.0,0,59,6.0,100.0
12988,68.0,30,59,8.0,100.0
12989,71.0,0,59,6.0,100.0
12990,76.0,30,29,4.0,100.0
12991,48.0,0,59,7.0,100.0
12992,36.0,0,59,10.0,100.0
12993,48.0,0,59,5.0,100.0
12994,74.0,30,29,4.0,100.0
12995,67.0,0,59,8.0,100.0
12996,60.0,0,59,8.0,100.0
12997,48.0,0,60,3.0,90.0
12998,76.0,30,29,4.0,100.0
12999,48.0,0,59,5.0,100.0
13000,67.0,0,59,6.0,100.0
13001,72.0,30,29,4.0,100.0
13002,36.0,0,59,7.0,100.0
13003,72.0,0,59,6.0,100.0
13004,74.0,0,29,4.0,100.0
13005,48.0,0,59,5.0,100.0
13006,65.0,0,59,6.0,100.0
13007,71.0,0,59,6.0,100.0
13008,71.0,30,29,4.0,100.0
13009,48.0,0,59,10.0,100.0
13010,65.0,0,59,8.0,100.0
13011,74.0,30,59,8.0,100.0
13012,72.0,0,29,4.0,100.0
13013,76.0,30,29,4.0,100.0
13014,76.0,0,59,8.0,100.0
13015,48.0,0,59,5.0,100.0
13016,36.0,0,59,10.0,100.0
13017,48.0,0,59,7.0,100.0
13018,67.0,30,59,8.0,100.0
13019,79.0,0,29,4.0,100.0
13020,48.0,0,59,5.0,100.0
13021,72.0,30,29,4.0,100.0
13022,72.0,30,59,6.0,100.0
13023,36.0,0,59,7.0,100.0
13024,64.0,0,59,6.0,100.0
13025,76.0,30,29,4.0,100.0
13026,48.0,0,59,5.0,100.0
13027,70.0,0,59,8.0,100.0
13028,79.0,0,59,8.0,100.0
13029,79.0,30,29,4.0,100.0
13030,67.0,0,59,6.0,100.0
13031,48.0,0,59,10.0,100.0
13032,60.0,0,59,6.0,100.0
13033,84.0,30,29,4.0,100.0
13034,48.0,0,59,7.0,100.0
13035,36.0,0,59,10.0,100.0
13036,82.0,30,29,4.0,100.0
13037,48.0,0,59,5.0,100.0
13038,69.0,0,59,8.0,100.0
13039,77.0,0,59,8.0,100.0
13040,48.0,0,60,3.0,90.0
13041,84.0,0,29,4.0,100.0
13042,48.0,0,59,5.0,100.0
13043,81.0,30,29,4.0,100.0
13044,36.0,0,59,7.0,100.0
13045,69.0,30,59,6.0,100.0
13046,65.0,0,59,6.0,100.0
13047,82.0,0,29,4.0,100.0
13048,48.0,30,59,10.0,100.0
13049,48.0,0,59,5.0,100.0
13050,81.0,30,29,4.0,100.0
13051,72.0,0,59,6.0,100.0
13052,76.0,0,59,8.0,100.0
13053,72.0,0,59,8.0,100.0
13054,64.0,0,59,6.0,100.0
13055,82.0,30,29,4.0,100.0
13056,79.0,30,29,4.0,100.0
13057,48.0,0,59,7.0,100.0
13058,48.0,0,59,5.0,100.0
13059,67.0,0,59,8.0,100.0
13060,36.0,0,59,10.0,100.0
13061,76.0,0,59,8.0,100.0
13062,80.0,0,29,4.0,100.0
13063,72.0,0,59,6.0,100.0
13064,65.0,30,59,6.0,100.0
13065,36.0,0,59,7.0,100.0
13066,77.0,30,29,4.0,100.0
13067,48.0,0,59,5.0,100.0
13068,79.0,0,29,4.0,100.0
13069,77.0,30,29,4.0,100.0
13070,48.0,0,59,5.0,100.0
13071,70.0,0,59,6.0,100.0
13072,76.0,0,59,6.0,100.0
13073,72.0,0,59,8.0,100.0
13074,64.0,0,59,8.0,100.0
13075,48.0,30,59,10.0,100.0
13076,79.0,0,29,4.0,100.0
13077,76.0,30,29,4.0,100.0
13078,72.0,0,59,8.0,100.0
13079,48.0,0,59,7.0,100.0
13080,64.0,0,59,8.0,100.0
13081,48.0,30,59,5.0,100.0
13082,36.0,0,59,10.0,100.0
13083,48.0,0,60,3.0,90.0
13084,77.0,0,29,4.0,100.0
13085,72.0,30,29,4.0,100.0
13086,72.0,0,59,6.0,100.0
13087,48.0,30,59,5.0,100.0
13088,68.0,0,59,6.0,100.0
13089,36.0,0,59,7.0,100.0
13090,73.0,0,29,4.0,100.0
13091,48.0,0,59,10.0,100.0
13092,71.0,30,29,4.0,100.0
13093,65.0,0,59,6.0,100.0
13094,68.0,0,59,6.0,100.0
13095,48.0,0,59,5.0,100.0
13096,77.0,0,59,8.0,100.0
13097,68.0,30,59,8.0,100.0
13098,72.0,0,29,4.0,100.0
13099,48.0,0,59,5.0,100.0
13100,36.0,30,59,10.0,100.0
13101,48.0,0,59,7.0,100.0
13102,80.0,30,29,4.0,100.0
13103,77.0,0,59,8.0,100.0
13104,68.0,0,59,8.0,100.0
13105,70.0,0,29,4.0,100.0
13106,36.0,0,59,7.0,100.0
13107,79.0,30,29,4.0,100.0
13108,67.0,30,59,6.0,100.0
13109,76.0,0,59,6.0,100.0
13110,48.0,0,59,5.0,100.0
13111,68.0,30,29,4.0,100.0
13112,48.0,0,59,5.0,100.0
13113,65.0,0,59,8.0,100.0
13114,48.0,0,59,10.0,100.0
13115,72.0,0,59,6.0,100.0
13116,77.0,0,59,6.0,100.0
13117,72.0,0,59,8.0,100.0
13118,77.0,30,29,4.0,100.0
13119,66.0,30,29,4.0,100.0
13120,36.0,0,59,10.0,100.0
13121,48.0,0,59,7.0,100.0
13122,73.0,0,59,8.0,100.0
13123,48.0,0,59,5.0,100.0
13124,70.0,30,29,4.0,100.0
13125,70.0,0,59,8.0,100.0
13126,48.0,0,60,3.0,90.0
13127,64.0,30,29,4.0,100.0
13128,79.0,0,59,6.0,100.0
13129,70.0,0,59,6.0,100.0
13130,65.0,30,29,4.0,100.0
13131,36.0,0,59,7.0,100.0
13132,48.0,0,59,5.0,100.0
13133,59.0,0,29,4.0,100.0
13134,60.0,30,29,4.0,100.0
13135,48.0,0,59,10.0,100.0
13136,74.0,0,59,8.0,100.0
13137,68.0,30,59,8.0,100.0
13138,48.0,0,59,5.0,100.0
13139,77.0,0,59,6.0,100.0
13140,68.0,0,59,6.0,100.0
13141,48.0,0,59,5.0,100.0
13142,36.0,0,59,10.0,100.0
13143,76.0,0,59,8.0,100.0
13144,67.0,30,59,8.0,100.0
13145,80.0,30,29,4.0,100.0
13146,48.0,0,59,7.0,100.0
13147,79.0,0,29,4.0,100.0
13148,48.0,0,59,5.0,100.0
13149,36.0,0,59,7.0,100.0
13150,76.0,30,59,6.0,100.0
13151,72.0,0,59,6.0,100.0
13152,82.0,30,29,4.0,100.0
13153,76.0,0,29,4.0,100.0
13154,77.0,30,29,4.0,100.0
13155,67.0,30,59,6.0,100.0
13156,72.0,0,59,6.0,100.0
13157,48.0,0,59,10.0,100.0
13158,70.0,0,59,8.0,100.0
13159,48.0,0,59,5.0,100.0
13160,79.0,0,59,8.0,100.0
13161,65.0,0,29,4.0,100.0
13162,77.0,0,59,8.0,100.0
13163,68.0,30,59,8.0,100.0
13164,49.0,0,59,7.0,100.0
13165,49.0,0,59,5.0,100.0
13166,37.0,0,59,10.0,100.0
13167,77.0,30,29,4.0,100.0
13168,80.0,30,29,4.0,100.0
13169,49.0,0,90,3.0,90.0
13170,65.0,0,59,6.0,100.0
13171,37.0,0,59,7.0,100.0
13172,72.0,0,59,6.0,100.0
13173,77.0,30,29,4.0,100.0
13174,49.0,0,59,5.0,100.0
13175,76.0,0,29,4.0,100.0
13176,77.0,30,29,4.0,100.0
13177,49.0,30,59,10.0,100.0
13178,68.0,0,59,8.0,100.0
13179,65.0,0,59,8.0,100.0
13180,49.0,0,59,5.0,100.0
13181,72.0,0,59,6.0,100.0
13182,68.0,0,59,6.0,100.0
13183,71.0,0,29,4.0,100.0
13184,74.0,30,29,4.0,100.0
13185,50.0,0,59,7.0,100.0
13186,50.0,30,59,5.0,100.0
13187,38.0,0,59,10.0,100.0
13188,62.0,0,59,8.0,100.0
13189,65.0,0,59,8.0,100.0
13190,77.0,30,29,4.0,100.0
13191,50.0,0,90,3.0,90.0
13192,80.0,30,29,4.0,100.0
13193,71.0,0,59,6.0,100.0
13194,68.0,0,59,6.0,100.0
13195,38.0,0,59,7.0,100.0
13196,50.0,0,59,5.0,100.0
13197,79.0,0,29,4.0,100.0
13198,71.0,0,59,6.0,100.0
13199,68.0,0,59,6.0,100.0
13200,65.0,0,59,8.0,100.0
13201,50.0,0,59,5.0,100.0
13202,77.0,30,29,4.0,100.0
13203,62.0,30,59,8.0,100.0
13204,50.0,0,59,10.0,100.0
13205,82.0,0,29,4.0,100.0
13206,60.0,0,59,8.0,100.0
13207,52.0,0,59,5.0,100.0
13208,40.0,30,59,10.0,100.0
13209,52.0,0,59,7.0,100.0
13210,79.0,30,29,4.0,100.0
13211,67.0,0,59,8.0,100.0
13212,52.0,0,60,3.0,90.0
13213,76.0,0,29,4.0,100.0
13214,52.0,30,59,5.0,100.0
13215,72.0,30,29,4.0,100.0
13216,72.0,0,59,6.0,100.0
13217,67.0,0,59,6.0,100.0
13218,40.0,0,59,7.0,100.0
13219,81.0,0,29,4.0,100.0
13220,53.0,30,30,3.0,90.0
13221,60.0,0,59,8.0,100.0
13222,69.0,0,59,8.0,100.0
13223,65.0,0,59,6.0,100.0
13224,72.0,0,59,6.0,100.0
13225,77.0,30,29,4.0,100.0
13226,53.0,0,59,5.0,100.0
13227,53.0,0,59,10.0,100.0
13228,41.0,0,59,7.0,100.0
13229,74.0,0,29,4.0,100.0
13230,46.0,0,30,3.0,90.0
13231,62.0,0,59,8.0,100.0
13232,67.0,30,59,8.0,100.0
13233,58.0,0,59,10.0,100.0
13234,46.0,0,59,7.0,100.0
13235,79.0,30,29,4.0,100.0
13236,58.0,0,59,5.0,100.0
13237,77.0,0,29,4.0,100.0
13238,48.0,0,30,3.0,90.0
13239,76.0,30,29,4.0,100.0
13240,72.0,0,59,6.0,100.0
13241,60.0,30,59,10.0,100.0
13242,60.0,0,59,5.0,100.0
13243,48.0,0,59,7.0,100.0
13244,69.0,0,59,6.0,100.0
13245,77.0,0,29,4.0,100.0
13246,36.0,0,30,3.0,90.0
13247,60.0,0,59,8.0,100.0
13248,70.0,0,59,6.0,100.0
13249,48.0,0,59,10.0,100.0
13250,48.0,0,59,5.0,100.0
13251,36.0,0,59,7.0,100.0
13252,67.0,30,59,6.0,100.0
13253,67.0,0,59,8.0,100.0
13254,76.0,30,59,4.0,100.0
13255,69.0,0,59,8.0,100.0
13256,77.0,30,29,4.0,100.0
13257,60.0,0,59,8.0,100.0
13258,69.0,30,29,4.0,100.0
13259,70.0,30,29,4.0,100.0
13260,67.0,0,59,6.0,100.0
13261,64.0,0,59,6.0,100.0
13262,41.0,0,120,3.0,90.0
13263,72.0,0,29,4.0,100.0
13264,65.0,30,59,6.0,100.0
13265,69.0,0,59,8.0,100.0
13266,72.0,0,59,8.0,100.0
13267,60.0,0,59,6.0,100.0
13268,69.0,30,29,4.0,100.0
13269,53.0,0,210,5.0,100.0
13270,48.0,30,29,5.0,100.0
13271,45.0,30,29,5.0,100.0
13272,48.0,30,29,5.0,100.0
13273,57.0,0,119,6.0,100.0
13274,60.0,0,119,6.0,100.0
13275,77.0,0,119,8.0,100.0
13276,72.0,0,119,8.0,100.0
13277,69.0,0,119,8.0,100.0
13278,41.0,0,300,7.0,110.0
13279,53.0,30,300,10.0,100.0
13280,65.0,30,135,4.0,100.0
13281,64.0,15,15,4.0,100.0
13282,65.0,15,15,4.0,100.0
13283,41.0,30,59,5.0,100.0
13284,67.0,15,15,4.0,100.0
13285,69.0,15,9,4.0,100.0
13286,70.0,10,9,4.0,100.0
13287,72.0,10,9,4.0,100.0
13288,69.0,10,9,4.0,100.0
13289,70.0,10,9,4.0,100.0
13290,72.0,10,9,4.0,100.0
13291,74.0,10,9,4.0,100.0
13292,76.0,10,9,4.0,100.0
13293,77.0,10,9,4.0,100.0
13294,72.0,10,9,4.0,100.0
13295,74.0,10,9,4.0,100.0
13296,76.0,10,9,4.0,100.0
13297,77.0,10,9,4.0,100.0
13298,79.0,10,9,4.0,100.0
13299,81.0,10,9,4.0,100.0
13300,76.0,10,9,4.0,100.0
13301,77.0,10,9,4.0,100.0
13302,79.0,10,9,4.0,100.0
13303,81.0,10,9,4.0,100.0
13304,82.0,10,9,4.0,100.0
13305,84.0,10,9,4.0,100.0
13306,86.0,10,9,4.0,100.0
13307,84.0,10,9,4.0,100.0
13308,82.0,10,9,4.0,100.0
13309,81.0,10,9,4.0,100.0
13310,82.0,10,9,4.0,100.0
13311,81.0,10,9,4.0,100.0
13312,79.0,10,9,4.0,100.0
13313,77.0,10,9,4.0,100.0
13314,76.0,10,9,4.0,100.0
13315,77.0,10,9,4.0,100.0
13316,79.0,10,9,4.0,100.0
13317,77.0,10,9,4.0,100.0
13318,76.0,10,9,4.0,100.0
13319,74.0,10,9,4.0,100.0
13320,73.0,10,9,4.0,100.0
13321,74.0,10,9,4.0,100.0
13322,70.0,10,9,4.0,100.0
13323,69.0,10,9,4.0,100.0
13324,67.0,10,9,4.0,100.0
13325,65.0,10,9,4.0,100.0
13326,64.0,10,9,4.0,100.0
13327,65.0,10,9,4.0,100.0
13328,67.0,10,9,4.0,100.0
13329,65.0,10,9,4.0,100.0
13330,64.0,10,9,4.0,100.0
13331,62.0,10,9,4.0,100.0
13332,61.0,10,9,4.0,100.0
13333,62.0,10,9,4.0,100.0
13334,65.0,10,9,4.0,100.0
13335,64.0,10,9,4.0,100.0
13336,62.0,10,9,4.0,100.0
13337,61.0,10,9,4.0,100.0
13338,62.0,10,9,4.0,100.0
13339,57.0,10,9,5.0,100.0
13340,62.0,10,9,5.0,100.0
13341,60.0,10,9,5.0,100.0
13342,58.0,10,9,5.0,100.0
13343,57.0,10,9,5.0,100.0
13344,55.0,10,9,5.0,100.0
13345,53.0,10,9,5.0,100.0
13346,58.0,10,9,5.0,100.0
13347,57.0,10,9,5.0,100.0
13348,55.0,10,9,5.0,100.0
13349,53.0,10,9,5.0,100.0
13350,52.0,10,9,5.0,100.0
13351,50.0,10,9,5.0,100.0
13352,53.0,10,9,5.0,100.0
13353,52.0,10,9,5.0,100.0
13354,50.0,10,9,5.0,100.0
13355,49.0,10,9,5.0,100.0
13356,50.0,10,9,5.0,100.0
13357,74.0,180,10,4.0,110.0
13358,74.0,0,10,0.0,100.0
13359,76.0,10,10,0.0,100.0
13360,76.0,0,10,4.0,110.0
13361,74.0,10,10,4.0,110.0
13362,74.0,0,10,0.0,100.0
13363,65.0,0,30,1.0,127.0
13364,65.0,0,30,6.0,110.0
13365,76.0,0,8,4.0,110.0
13366,76.0,0,8,0.0,100.0
13367,74.0,7,8,0.0,100.0
13368,74.0,0,8,4.0,110.0
13369,76.0,0,8,0.0,100.0
13370,76.0,8,8,4.0,110.0
13371,74.0,0,8,0.0,100.0
13372,67.0,0,30,1.0,127.0
13373,67.0,10,30,6.0,110.0
13374,65.0,0,60,2.0,66.0
13375,69.0,0,60,4.0,110.0
13376,62.0,0,60,8.0,110.0
13377,65.0,0,60,8.0,110.0
13378,69.0,0,60,8.0,110.0
13379,62.0,0,60,6.0,110.0
13380,74.0,7,8,4.0,110.0
13381,76.0,0,8,0.0,100.0
13382,76.0,0,8,4.0,110.0
13383,69.0,0,10,6.0,110.0
13384,69.0,0,10,1.0,127.0
13385,74.0,0,8,0.0,100.0
13386,74.0,7,8,4.0,110.0
13387,67.0,3,10,1.0,127.0
13388,67.0,0,10,6.0,110.0
13389,76.0,0,8,0.0,100.0
13390,76.0,5,8,4.0,110.0
13391,69.0,5,10,1.0,127.0
13392,69.0,0,10,6.0,110.0
13393,74.0,0,8,4.0,110.0
13394,67.0,0,30,8.0,110.0
13395,74.0,2,8,0.0,100.0
13396,76.0,0,8,0.0,100.0
13397,67.0,0,8,6.0,110.0
13398,76.0,0,8,4.0,110.0
13399,67.0,8,8,1.0,127.0
13400,74.0,7,8,4.0,110.0
13401,69.0,0,8,1.0,127.0
13402,74.0,0,8,0.0,100.0
13403,69.0,0,8,6.0,110.0
13404,76.0,8,8,4.0,110.0
13405,67.0,0,8,6.0,110.0
13406,67.0,0,8,1.0,127.0
13407,76.0,0,8,0.0,100.0
13408,74.0,0,8,0.0,100.0
13409,69.0,7,8,6.0,110.0
13410,74.0,0,8,4.0,110.0
13411,65.0,0,30,8.0,110.0
13412,64.0,8,60,2.0,66.0
13413,69.0,0,8,1.0,127.0
13414,76.0,0,8,0.0,100.0
13415,76.0,0,8,4.0,110.0
13416,67.0,8,10,1.0,127.0
13417,67.0,0,10,6.0,110.0
13418,74.0,7,8,4.0,110.0
13419,74.0,0,8,0.0,100.0
13420,69.0,3,10,1.0,127.0
13421,69.0,0,10,6.0,110.0
13422,76.0,5,8,0.0,100.0
13423,76.0,0,8,4.0,110.0
13424,64.0,0,30,8.0,110.0
13425,74.0,2,8,4.0,110.0
13426,67.0,5,10,6.0,110.0
13427,67.0,0,10,1.0,127.0
13428,74.0,0,8,0.0,100.0
13429,76.0,0,8,0.0,100.0
13430,74.0,7,8,0.0,100.0
13431,72.0,0,15,4.0,110.0
13432,76.0,8,8,0.0,100.0
13433,46.0,10,359,5.0,100.0
13434,62.0,8,30,8.0,110.0
13435,69.0,0,30,1.0,127.0
13436,69.0,0,30,6.0,110.0
13437,46.0,0,180,10.0,100.0
13438,62.0,0,60,2.0,66.0
13439,74.0,7,8,0.0,100.0
13440,46.0,0,180,7.0,110.0
13441,62.0,0,120,6.0,110.0
13442,74.0,0,15,4.0,110.0
13443,67.0,0,120,4.0,110.0
13444,46.0,0,180,3.0,90.0
13445,45.0,0,359,5.0,100.0
13446,45.0,0,360,10.0,100.0
13447,57.0,0,360,10.0,100.0
13448,64.0,0,360,2.0,66.0
13449,45.0,0,360,3.0,100.0
13450,69.0,0,360,6.0,110.0
13451,64.0,0,360,6.0,110.0
13452,61.0,0,360,8.0,110.0
13453,64.0,0,360,8.0,110.0
13454,73.0,0,360,0.0,100.0
13455,45.0,0,360,7.0,110.0
13456,69.0,0,360,1.0,127.0
13457,69.0,8,360,4.0,110.0
13458,73.0,0,360,4.0,110.0
13459,69.0,720,59,6.0,100.0
13460,50.0,0,59,7.0,100.0
13461,69.0,0,59,1.0,127.0
13462,50.0,0,59,3.0,90.0
13463,52.0,0,59,7.0,100.0
13464,52.0,60,59,3.0,90.0
13465,74.0,60,119,6.0,100.0
13466,74.0,0,119,1.0,127.0
13467,73.0,60,59,1.0,127.0
13468,73.0,0,59,6.0,100.0
13469,53.0,0,59,7.0,100.0
13470,53.0,0,59,3.0,90.0
13471,74.0,0,59,6.0,100.0
13472,74.0,60,59,1.0,127.0
13473,55.0,0,59,3.0,90.0
13474,76.0,0,119,1.0,127.0
13475,55.0,60,59,7.0,100.0
13476,76.0,60,119,6.0,100.0
13477,77.0,0,119,6.0,100.0
13478,57.0,0,59,7.0,100.0
13479,57.0,60,59,3.0,90.0
13480,77.0,60,119,1.0,127.0
13481,76.0,60,29,1.0,127.0
13482,76.0,0,29,6.0,100.0
13483,74.0,30,29,1.0,127.0
13484,58.0,0,59,7.0,100.0
13485,58.0,0,59,3.0,90.0
13486,74.0,0,29,6.0,100.0
13487,77.0,30,29,6.0,100.0
13488,77.0,0,29,1.0,127.0
13489,55.0,0,59,3.0,90.0
13490,76.0,0,29,1.0,127.0
13491,55.0,0,59,7.0,100.0
13492,76.0,30,29,6.0,100.0
13493,74.0,30,29,6.0,100.0
13494,74.0,0,29,1.0,127.0
13495,57.0,0,59,7.0,100.0
13496,73.0,0,29,1.0,127.0
13497,57.0,0,59,3.0,90.0
13498,73.0,30,29,6.0,100.0
13499,62.0,30,59,3.0,90.0
13500,74.0,0,59,1.0,127.0
13501,62.0,0,59,7.0,100.0
13502,74.0,0,59,6.0,100.0
13503,76.0,0,29,1.0,127.0
13504,76.0,0,29,6.0,100.0
13505,59.0,0,59,7.0,100.0
13506,59.0,60,59,3.0,90.0
13507,77.0,0,29,6.0,100.0
13508,77.0,30,29,1.0,127.0
13509,76.0,0,29,6.0,100.0
13510,76.0,0,29,1.0,127.0
13511,56.0,30,59,7.0,100.0
13512,56.0,0,59,3.0,90.0
13513,74.0,0,29,1.0,127.0
13514,74.0,30,29,6.0,100.0
13515,72.0,0,29,6.0,100.0
13516,72.0,30,29,1.0,127.0
13517,71.0,0,29,1.0,127.0
13518,52.0,0,59,7.0,100.0
13519,52.0,0,59,3.0,90.0
13520,71.0,30,29,6.0,100.0
13521,72.0,0,29,6.0,100.0
13522,72.0,0,29,1.0,127.0
13523,74.0,0,29,1.0,127.0
13524,76.0,0,59,4.0,100.0
13525,57.0,0,59,5.0,100.0
13526,76.0,0,59,0.0,90.0
13527,74.0,30,29,6.0,100.0
13528,57.0,30,59,3.0,90.0
13529,57.0,0,89,7.0,100.0
13530,71.0,0,29,1.0,127.0
13531,71.0,0,29,6.0,100.0
13532,72.0,30,29,1.0,127.0
13533,72.0,0,29,6.0,100.0
13534,69.0,0,29,7.0,100.0
13535,74.0,0,29,6.0,100.0
13536,65.0,0,29,7.0,100.0
13537,74.0,0,29,1.0,127.0
13538,81.0,0,119,0.0,90.0
13539,64.0,0,29,7.0,100.0
13540,76.0,0,29,1.0,127.0
13541,59.0,30,59,5.0,100.0
13542,76.0,30,29,6.0,100.0
13543,81.0,30,119,4.0,100.0
13544,59.0,0,59,3.0,90.0
13545,65.0,0,29,7.0,100.0
13546,72.0,30,29,1.0,127.0
13547,72.0,0,29,6.0,100.0
13548,80.0,0,59,0.0,90.0
13549,74.0,0,29,6.0,100.0
13550,80.0,0,59,4.0,100.0
13551,74.0,0,29,1.0,127.0
13552,62.0,30,29,7.0,100.0
13553,69.0,0,29,7.0,100.0
13554,76.0,0,29,6.0,100.0
13555,76.0,0,29,1.0,127.0
13556,72.0,0,29,6.0,100.0
13557,60.0,30,59,3.0,90.0
13558,72.0,0,29,1.0,127.0
13559,60.0,0,59,5.0,100.0
13560,81.0,0,59,0.0,90.0
13561,81.0,0,59,4.0,100.0
13562,64.0,30,29,7.0,100.0
13563,71.0,0,29,6.0,100.0
13564,71.0,0,29,1.0,127.0
13565,62.0,0,29,7.0,100.0
13566,69.0,0,29,6.0,100.0
13567,60.0,0,29,7.0,100.0
13568,69.0,30,29,1.0,127.0
13569,59.0,30,29,7.0,100.0
13570,77.0,0,29,6.0,100.0
13571,77.0,0,29,1.0,127.0
13572,65.0,0,29,7.0,100.0
13573,83.0,30,119,4.0,100.0
13574,74.0,0,29,1.0,127.0
13575,83.0,0,119,0.0,90.0
13576,62.0,0,59,5.0,100.0
13577,62.0,0,59,3.0,90.0
13578,74.0,30,29,6.0,100.0
13579,64.0,0,29,7.0,100.0
13580,72.0,30,29,6.0,100.0
13581,72.0,0,29,1.0,127.0
13582,62.0,30,29,7.0,100.0
13583,71.0,0,29,6.0,100.0
13584,71.0,0,29,1.0,127.0
13585,80.0,0,29,1.0,127.0
13586,60.0,30,29,7.0,100.0
13587,80.0,0,29,6.0,100.0
13588,76.0,0,29,6.0,100.0
13589,84.0,0,119,0.0,90.0
13590,64.0,0,29,7.0,100.0
13591,84.0,0,119,4.0,100.0
13592,76.0,30,29,1.0,127.0
13593,64.0,0,59,3.0,90.0
13594,64.0,0,59,5.0,100.0
13595,74.0,0,29,1.0,127.0
13596,74.0,0,29,6.0,100.0
13597,83.0,0,29,0.0,90.0
13598,83.0,30,29,4.0,100.0
13599,81.0,0,29,0.0,90.0
13600,65.0,0,59,3.0,90.0
13601,72.0,0,29,1.0,127.0
13602,72.0,0,29,6.0,100.0
13603,81.0,30,29,4.0,100.0
13604,65.0,0,59,5.0,100.0
13605,84.0,0,29,0.0,90.0
13606,77.0,0,29,1.0,127.0
13607,84.0,30,29,4.0,100.0
13608,69.0,0,89,7.0,100.0
13609,77.0,0,29,6.0,100.0
13610,65.0,0,29,7.0,100.0
13611,62.0,0,59,3.0,90.0
13612,83.0,0,29,4.0,100.0
13613,62.0,0,59,5.0,100.0
13614,83.0,30,29,0.0,90.0
13615,74.0,0,29,6.0,100.0
13616,74.0,0,29,1.0,127.0
13617,72.0,0,29,1.0,127.0
13618,64.0,0,29,7.0,100.0
13619,81.0,30,29,4.0,100.0
13620,81.0,0,29,0.0,90.0
13621,72.0,0,29,6.0,100.0
13622,64.0,0,59,5.0,100.0
13623,71.0,0,29,6.0,100.0
13624,71.0,30,29,1.0,127.0
13625,62.0,0,29,7.0,100.0
13626,64.0,0,59,3.0,90.0
13627,80.0,0,29,0.0,90.0
13628,80.0,0,29,4.0,100.0
13629,81.0,0,29,4.0,100.0
13630,64.0,0,29,7.0,100.0
13631,81.0,0,29,0.0,90.0
13632,57.0,0,59,5.0,100.0
13633,83.0,30,29,4.0,100.0
13634,72.0,0,59,6.0,100.0
13635,83.0,0,29,0.0,90.0
13636,72.0,0,59,1.0,127.0
13637,57.0,30,59,3.0,90.0
13638,62.0,0,29,7.0,100.0
13639,60.0,0,29,7.0,100.0
13640,84.0,30,29,0.0,90.0
13641,84.0,0,29,4.0,100.0
13642,59.0,30,29,7.0,100.0
13643,69.0,0,59,1.0,127.0
13644,86.0,0,29,0.0,90.0
13645,64.0,0,59,5.0,100.0
13646,86.0,0,29,4.0,100.0
13647,69.0,0,59,6.0,100.0
13648,84.0,0,29,4.0,100.0
13649,84.0,0,29,0.0,90.0
13650,57.0,0,29,7.0,100.0
13651,45.0,0,59,3.0,90.0
13652,58.0,0,29,7.0,100.0
13653,82.0,0,29,0.0,90.0
13654,69.0,0,59,5.0,100.0
13655,72.0,30,59,6.0,100.0
13656,72.0,0,59,1.0,127.0
13657,82.0,30,29,4.0,100.0
13658,81.0,0,29,4.0,100.0
13659,81.0,0,29,0.0,90.0
13660,60.0,0,29,7.0,100.0
13661,79.0,30,29,0.0,90.0
13662,57.0,0,29,7.0,100.0
13663,57.0,0,59,5.0,100.0
13664,79.0,0,29,4.0,100.0
13665,78.0,0,29,0.0,90.0
13666,78.0,0,29,4.0,100.0
13667,75.0,0,89,1.0,127.0
13668,75.0,30,89,6.0,100.0
13669,62.0,0,59,5.0,100.0
13670,50.0,0,59,3.0,90.0
13671,72.0,30,29,1.0,127.0
13672,69.0,30,59,7.0,100.0
13673,72.0,0,29,6.0,100.0
13674,81.0,0,29,4.0,100.0
13675,81.0,0,29,0.0,90.0
13676,74.0,0,29,1.0,127.0
13677,74.0,0,29,6.0,100.0
13678,75.0,30,29,6.0,100.0
13679,75.0,0,29,1.0,127.0
13680,66.0,30,59,7.0,100.0
13681,60.0,0,59,5.0,100.0
13682,74.0,0,29,4.0,100.0
13683,74.0,0,29,6.0,100.0
13684,74.0,0,29,0.0,90.0
13685,74.0,0,29,1.0,127.0
13686,72.0,0,29,6.0,100.0
13687,62.0,0,59,3.0,90.0
13688,66.0,0,59,7.0,100.0
13689,58.0,30,59,5.0,100.0
13690,72.0,30,29,1.0,127.0
13691,78.0,0,29,0.0,90.0
13692,78.0,0,29,4.0,100.0
13693,70.0,30,29,6.0,100.0
13694,70.0,0,29,1.0,127.0
13695,69.0,30,29,1.0,127.0
13696,62.0,0,59,7.0,100.0
13697,57.0,0,59,5.0,100.0
13698,69.0,0,29,6.0,100.0
13699,79.0,0,29,0.0,90.0
13700,79.0,0,29,4.0,100.0
13701,62.0,0,29,7.0,100.0
13702,55.0,30,59,3.0,90.0
13703,81.0,0,29,4.0,100.0
13704,70.0,0,59,1.0,127.0
13705,70.0,0,59,6.0,100.0
13706,55.0,0,59,5.0,100.0
13707,60.0,0,29,7.0,100.0
13708,81.0,30,29,0.0,90.0
13709,58.0,0,29,7.0,100.0
13710,82.0,30,29,0.0,90.0
13711,82.0,0,29,4.0,100.0
13712,67.0,0,59,6.0,100.0
13713,57.0,0,29,7.0,100.0
13714,67.0,0,59,1.0,127.0
13715,62.0,0,59,5.0,100.0
13716,84.0,30,29,4.0,100.0
13717,84.0,0,29,0.0,90.0
13718,55.0,0,29,7.0,100.0
13719,82.0,0,29,4.0,100.0
13720,82.0,0,29,0.0,90.0
13721,57.0,30,29,7.0,100.0
13722,43.0,0,59,3.0,90.0
13723,70.0,0,59,1.0,127.0
13724,70.0,30,59,6.0,100.0
13725,81.0,0,29,4.0,100.0
13726,67.0,0,59,5.0,100.0
13727,81.0,0,29,0.0,90.0
13728,79.0,0,29,4.0,100.0
13729,58.0,0,29,7.0,100.0
13730,79.0,0,29,0.0,90.0
13731,77.0,0,29,4.0,100.0
13732,77.0,30,29,0.0,90.0
13733,55.0,0,59,5.0,100.0
13734,55.0,0,29,7.0,100.0
13735,76.0,30,29,0.0,90.0
13736,74.0,30,89,6.0,100.0
13737,76.0,0,29,4.0,100.0
13738,74.0,0,89,1.0,127.0
13739,48.0,0,59,3.0,90.0
13740,67.0,0,59,7.0,100.0
13741,60.0,0,59,5.0,100.0
13742,70.0,0,29,6.0,100.0
13743,70.0,30,29,1.0,127.0
13744,79.0,30,29,0.0,90.0
13745,79.0,0,29,4.0,100.0
13746,72.0,0,29,1.0,127.0
13747,72.0,0,29,6.0,100.0
13748,74.0,30,29,6.0,100.0
13749,58.0,0,59,5.0,100.0
13750,64.0,0,59,7.0,100.0
13751,74.0,0,29,1.0,127.0
13752,72.0,0,29,1.0,127.0
13753,72.0,0,29,6.0,100.0
13754,72.0,0,29,4.0,100.0
13755,72.0,0,29,0.0,90.0
13756,70.0,0,29,6.0,100.0
13757,70.0,30,29,1.0,127.0
13758,60.0,0,59,3.0,90.0
13759,64.0,0,59,7.0,100.0
13760,57.0,30,59,5.0,100.0
13761,76.0,30,29,4.0,100.0
13762,76.0,0,29,0.0,90.0
13763,69.0,0,29,1.0,127.0
13764,69.0,0,29,6.0,100.0
13765,60.0,0,59,7.0,100.0
13766,67.0,0,29,1.0,127.0
13767,67.0,30,29,6.0,100.0
13768,55.0,0,59,5.0,100.0
13769,69.0,0,29,6.0,100.0
13770,69.0,0,29,1.0,127.0
13771,77.0,30,29,4.0,100.0
13772,77.0,0,29,0.0,90.0
13773,60.0,0,59,7.0,100.0
13774,53.0,0,59,3.0,90.0
13775,72.0,30,29,6.0,100.0
13776,72.0,0,29,1.0,127.0
13777,53.0,0,59,5.0,100.0
13778,70.0,0,29,6.0,100.0
13779,81.0,0,29,0.0,90.0
13780,81.0,0,29,4.0,100.0
13781,70.0,0,29,1.0,127.0
13782,69.0,0,29,6.0,100.0
13783,69.0,30,29,1.0,127.0
13784,65.0,0,59,5.0,100.0
13785,79.0,0,29,1.0,127.0
13786,70.0,0,29,0.0,90.0
13787,79.0,0,29,6.0,100.0
13788,70.0,30,29,4.0,100.0
13789,70.0,30,29,6.0,100.0
13790,70.0,0,29,1.0,127.0
13791,65.0,30,119,7.0,100.0
13792,65.0,0,119,3.0,90.0
13793,62.0,0,59,5.0,100.0
13794,79.0,0,29,0.0,90.0
13795,69.0,0,29,1.0,127.0
13796,79.0,30,29,4.0,100.0
13797,69.0,0,29,6.0,100.0
13798,67.0,30,29,1.0,127.0
13799,64.0,0,59,5.0,100.0
13800,67.0,0,29,6.0,100.0
13801,69.0,0,29,0.0,90.0
13802,69.0,0,29,4.0,100.0
13803,65.0,30,29,6.0,100.0
13804,65.0,0,29,1.0,127.0
13805,61.0,0,59,5.0,100.0
13806,64.0,0,119,3.0,90.0
13807,69.0,30,29,6.0,100.0
13808,69.0,0,29,1.0,127.0
13809,64.0,0,119,7.0,100.0
13810,77.0,0,29,0.0,90.0
13811,67.0,0,29,6.0,100.0
13812,77.0,30,29,4.0,100.0
13813,67.0,0,29,1.0,127.0
13814,65.0,0,29,1.0,127.0
13815,62.0,0,59,5.0,100.0
13816,65.0,30,29,6.0,100.0
13817,67.0,30,29,4.0,100.0
13818,76.0,0,29,6.0,100.0
13819,76.0,0,29,1.0,127.0
13820,67.0,0,29,0.0,90.0
13821,62.0,0,119,3.0,90.0
13822,67.0,30,29,6.0,100.0
13823,67.0,0,29,1.0,127.0
13824,59.0,0,59,5.0,100.0
13825,62.0,0,119,7.0,100.0
13826,76.0,0,29,4.0,100.0
13827,65.0,0,29,1.0,127.0
13828,65.0,0,29,6.0,100.0
13829,76.0,30,29,0.0,90.0
13830,61.0,0,59,5.0,100.0
13831,61.0,0,59,3.0,90.0
13832,64.0,0,29,6.0,100.0
13833,64.0,30,29,1.0,127.0
13834,61.0,0,59,7.0,100.0
13835,62.0,0,29,6.0,100.0
13836,65.0,0,29,0.0,90.0
13837,65.0,0,29,4.0,100.0
13838,62.0,0,29,1.0,127.0
13839,74.0,0,29,1.0,127.0
13840,62.0,30,59,7.0,100.0
13841,74.0,30,29,6.0,100.0
13842,62.0,0,29,5.0,100.0
13843,62.0,0,59,3.0,90.0
13844,76.0,0,29,1.0,127.0
13845,76.0,0,29,6.0,100.0
13846,74.0,0,29,4.0,100.0
13847,61.0,0,29,5.0,100.0
13848,74.0,0,29,0.0,90.0
13849,77.0,0,29,6.0,100.0
13850,58.0,0,59,3.0,90.0
13851,62.0,0,29,5.0,100.0
13852,77.0,30,29,1.0,127.0
13853,58.0,30,59,7.0,100.0
13854,64.0,0,29,0.0,90.0
13855,67.0,0,29,6.0,100.0
13856,64.0,0,29,4.0,100.0
13857,67.0,0,29,1.0,127.0
13858,58.0,30,29,5.0,100.0
13859,73.0,0,29,1.0,127.0
13860,73.0,0,29,6.0,100.0
13861,55.0,30,59,7.0,100.0
13862,55.0,0,59,3.0,90.0
13863,73.0,0,29,4.0,100.0
13864,73.0,30,29,0.0,90.0
13865,57.0,0,29,5.0,100.0
13866,74.0,0,29,6.0,100.0
13867,74.0,0,29,1.0,127.0
13868,57.0,0,59,3.0,90.0
13869,76.0,0,29,6.0,100.0
13870,76.0,30,29,1.0,127.0
13871,55.0,0,29,5.0,100.0
13872,74.0,0,29,4.0,100.0
13873,74.0,0,29,0.0,90.0
13874,53.0,0,29,5.0,100.0
13875,57.0,0,59,8.0,100.0
13876,57.0,0,119,7.0,100.0
13877,57.0,0,59,2.0,56.0
13878,77.0,0,29,0.0,90.0
13879,65.0,0,59,1.0,127.0
13880,77.0,30,29,4.0,100.0
13881,65.0,0,59,6.0,100.0
13882,50.0,30,59,7.0,100.0
13883,50.0,0,59,10.0,100.0
13884,62.0,0,29,5.0,100.0
13885,50.0,0,59,3.0,90.0
13886,61.0,0,29,5.0,100.0
13887,76.0,30,29,0.0,90.0
13888,76.0,0,29,4.0,100.0
13889,77.0,0,29,4.0,100.0
13890,77.0,30,29,0.0,90.0
13891,62.0,0,29,5.0,100.0
13892,79.0,0,29,0.0,90.0
13893,79.0,0,29,4.0,100.0
13894,58.0,0,29,5.0,100.0
13895,62.0,0,119,8.0,100.0
13896,81.0,0,29,4.0,100.0
13897,52.0,0,59,3.0,90.0
13898,52.0,0,59,10.0,100.0
13899,57.0,30,29,5.0,100.0
13900,64.0,0,59,6.0,100.0
13901,55.0,30,59,7.0,100.0
13902,81.0,0,29,0.0,90.0
13903,52.0,0,59,7.0,100.0
13904,64.0,0,59,1.0,127.0
13905,62.0,0,119,2.0,56.0
13906,77.0,0,29,0.0,90.0
13907,77.0,0,29,4.0,100.0
13908,58.0,30,29,5.0,100.0
13909,79.0,0,29,4.0,100.0
13910,79.0,30,29,0.0,90.0
13911,61.0,0,59,2.0,56.0
13912,55.0,0,29,5.0,100.0
13913,61.0,0,59,8.0,100.0
13914,81.0,0,29,4.0,100.0
13915,62.0,0,29,5.0,100.0
13916,81.0,0,29,0.0,90.0
13917,77.0,0,29,4.0,100.0
13918,62.0,0,59,2.0,56.0
13919,77.0,30,29,0.0,90.0
13920,62.0,0,59,8.0,100.0
13921,53.0,0,59,7.0,100.0
13922,62.0,0,59,1.0,127.0
13923,57.0,0,29,5.0,100.0
13924,62.0,0,59,6.0,100.0
13925,53.0,0,59,3.0,90.0
13926,53.0,30,59,10.0,100.0
13927,55.0,0,29,7.0,100.0
13928,76.0,0,29,4.0,100.0
13929,55.0,0,29,5.0,100.0
13930,76.0,0,29,0.0,90.0
13931,74.0,0,29,4.0,100.0
13932,74.0,0,29,0.0,90.0
13933,53.0,30,29,5.0,100.0
13934,57.0,0,29,7.0,100.0
13935,58.0,0,60,7.0,100.0
13936,82.0,0,29,4.0,100.0
13937,82.0,0,29,0.0,90.0
13938,52.0,0,29,5.0,100.0
13939,67.0,0,59,6.0,100.0
13940,64.0,30,119,2.0,56.0
13941,55.0,0,59,10.0,100.0
13942,79.0,0,29,4.0,100.0
13943,55.0,30,59,7.0,100.0
13944,58.0,30,29,5.0,100.0
13945,67.0,0,59,1.0,127.0
13946,79.0,0,29,0.0,90.0
13947,55.0,0,59,3.0,90.0
13948,64.0,0,119,8.0,100.0
13949,77.0,0,29,4.0,100.0
13950,57.0,0,29,7.0,100.0
13951,57.0,0,29,5.0,100.0
13952,77.0,0,29,0.0,90.0
13953,58.0,0,29,7.0,100.0
13954,55.0,0,29,5.0,100.0
13955,76.0,0,29,4.0,100.0
13956,76.0,30,29,0.0,90.0
13957,85.0,0,29,0.0,90.0
13958,85.0,0,29,4.0,100.0
13959,53.0,0,29,5.0,100.0
13960,57.0,30,59,7.0,100.0
13961,65.0,0,59,6.0,100.0
13962,65.0,30,119,2.0,56.0
13963,57.0,0,59,3.0,90.0
13964,65.0,0,119,8.0,100.0
13965,65.0,0,59,1.0,127.0
13966,81.0,30,29,0.0,90.0
13967,57.0,0,59,10.0,100.0
13968,57.0,0,29,5.0,100.0
13969,81.0,0,29,4.0,100.0
13970,79.0,0,29,0.0,90.0
13971,64.0,0,29,2.0,56.0
13972,64.0,30,29,8.0,100.0
13973,79.0,0,29,4.0,100.0
13974,58.0,0,29,7.0,100.0
13975,62.0,0,29,2.0,56.0
13976,57.0,30,29,7.0,100.0
13977,58.0,0,59,3.0,90.0
13978,77.0,0,29,4.0,100.0
13979,77.0,0,29,0.0,90.0
13980,58.0,0,59,10.0,100.0
13981,62.0,0,29,8.0,100.0
13982,65.0,0,29,8.0,100.0
13983,82.0,0,29,0.0,90.0
13984,82.0,0,29,4.0,100.0
13985,65.0,30,29,2.0,56.0
13986,62.0,0,89,5.0,100.0
13987,58.0,0,29,5.0,100.0
13988,55.0,0,59,3.0,90.0
13989,64.0,0,29,8.0,100.0
13990,79.0,30,29,0.0,90.0
13991,79.0,0,29,4.0,100.0
13992,55.0,0,59,7.0,100.0
13993,55.0,0,59,10.0,100.0
13994,70.0,0,119,1.0,127.0
13995,64.0,0,29,2.0,56.0
13996,70.0,0,119,6.0,100.0
13997,62.0,0,29,2.0,56.0
13998,57.0,0,29,5.0,100.0
13999,77.0,0,29,4.0,100.0
14000,62.0,0,29,8.0,100.0
14001,77.0,0,29,0.0,90.0
14002,57.0,0,59,3.0,90.0
14003,55.0,0,29,5.0,100.0
14004,61.0,0,29,8.0,100.0
14005,57.0,30,59,10.0,100.0
14006,76.0,0,29,0.0,90.0
14007,57.0,0,59,7.0,100.0
14008,76.0,30,29,4.0,100.0
14009,61.0,0,29,2.0,56.0
14010,57.0,0,29,5.0,100.0
14011,77.0,0,29,4.0,100.0
14012,77.0,0,29,0.0,90.0
14013,50.0,0,59,3.0,90.0
14014,53.0,30,29,5.0,100.0
14015,62.0,0,59,2.0,56.0
14016,69.0,0,119,1.0,127.0
14017,83.0,0,29,4.0,100.0
14018,69.0,0,119,6.0,100.0
14019,83.0,0,29,0.0,90.0
14020,50.0,30,59,10.0,100.0
14021,62.0,0,59,8.0,100.0
14022,50.0,0,59,7.0,100.0
14023,84.0,0,29,4.0,100.0
14024,84.0,0,29,0.0,90.0
14025,52.0,0,29,5.0,100.0
14026,68.0,0,29,6.0,100.0
14027,64.0,30,29,2.0,56.0
14028,64.0,0,29,8.0,100.0
14029,68.0,0,29,1.0,127.0
14030,86.0,30,29,4.0,100.0
14031,86.0,0,29,0.0,90.0
14032,69.0,0,29,1.0,127.0
14033,50.0,0,29,5.0,100.0
14034,65.0,0,29,2.0,56.0
14035,65.0,0,29,8.0,100.0
14036,59.0,0,59,3.0,90.0
14037,69.0,0,29,6.0,100.0
14038,59.0,0,59,10.0,100.0
14039,59.0,0,29,5.0,100.0
14040,74.0,0,29,0.0,90.0
14041,74.0,0,29,4.0,100.0
14042,64.0,30,29,8.0,100.0
14043,64.0,0,29,2.0,56.0
14044,62.0,0,29,2.0,56.0
14045,44.0,0,59,7.0,100.0
14046,80.0,30,29,4.0,100.0
14047,71.0,0,59,1.0,127.0
14048,62.0,0,29,8.0,100.0
14049,52.0,0,29,5.0,100.0
14050,56.0,0,59,3.0,90.0
14051,71.0,0,59,6.0,100.0
14052,80.0,0,29,0.0,90.0
14053,56.0,0,59,10.0,100.0
14054,81.0,0,29,4.0,100.0
14055,60.0,0,29,8.0,100.0
14056,69.0,0,29,6.0,100.0
14057,60.0,0,29,2.0,56.0
14058,54.0,0,29,5.0,100.0
14059,81.0,0,29,0.0,90.0
14060,69.0,30,29,1.0,127.0
14061,56.0,0,29,5.0,100.0
14062,68.0,0,29,1.0,127.0
14063,52.0,0,59,3.0,90.0
14064,68.0,0,29,6.0,100.0
14065,83.0,30,29,4.0,100.0
14066,52.0,0,59,10.0,100.0
14067,83.0,0,29,0.0,90.0
14068,52.0,0,59,7.0,100.0
14069,59.0,0,29,2.0,56.0
14070,59.0,0,29,8.0,100.0
14071,69.0,0,29,6.0,100.0
14072,60.0,0,29,8.0,100.0
14073,69.0,0,29,1.0,127.0
14074,45.0,30,59,5.0,100.0
14075,52.0,0,59,5.0,100.0
14076,72.0,0,59,4.0,100.0
14077,52.0,0,59,7.0,100.0
14078,45.0,0,59,7.0,100.0
14079,72.0,0,29,8.0,100.0
14080,76.0,0,29,6.0,100.0
14081,52.0,0,59,2.0,56.0
14082,60.0,0,59,2.0,56.0
14083,45.0,0,59,3.0,90.0
14084,76.0,30,29,1.0,127.0
14085,72.0,0,59,0.0,90.0
14086,45.0,0,59,10.0,100.0
14087,52.0,0,59,10.0,100.0
14088,77.0,30,29,6.0,100.0
14089,77.0,0,29,1.0,127.0
14090,71.0,0,29,8.0,100.0
14091,76.0,30,29,6.0,100.0
14092,76.0,0,29,1.0,127.0
14093,72.0,0,29,8.0,100.0
14094,74.0,30,29,8.0,100.0
14095,74.0,0,29,1.0,127.0
14096,74.0,0,29,6.0,100.0
14097,47.0,0,59,10.0,100.0
14098,71.0,0,59,4.0,100.0
14099,57.0,0,119,5.0,100.0
14100,72.0,0,29,1.0,127.0
14101,72.0,0,29,6.0,100.0
14102,76.0,30,29,8.0,100.0
14103,47.0,0,59,7.0,100.0
14104,57.0,0,119,7.0,100.0
14105,47.0,0,59,3.0,90.0
14106,71.0,0,59,0.0,90.0
14107,47.0,0,59,5.0,100.0
14108,57.0,0,119,2.0,56.0
14109,57.0,0,120,10.0,100.0
14110,72.0,0,29,8.0,100.0
14111,76.0,0,29,1.0,127.0
14112,76.0,0,29,6.0,100.0
14113,56.0,0,59,10.0,100.0
14114,74.0,30,29,8.0,100.0
14115,56.0,30,59,7.0,100.0
14116,56.0,0,59,5.0,100.0
14117,74.0,0,29,6.0,100.0
14118,74.0,0,29,1.0,127.0
14119,56.0,0,59,2.0,56.0
14120,72.0,0,29,1.0,127.0
14121,72.0,0,29,6.0,100.0
14122,76.0,0,29,8.0,100.0
14123,48.0,0,59,3.0,90.0
14124,69.0,0,29,0.0,90.0
14125,57.0,0,59,5.0,100.0
14126,48.0,0,59,10.0,100.0
14127,57.0,30,59,10.0,100.0
14128,69.0,30,29,1.0,127.0
14129,72.0,0,29,8.0,100.0
14130,48.0,0,59,5.0,100.0
14131,57.0,0,59,2.0,56.0
14132,69.0,0,29,6.0,100.0
14133,57.0,0,59,7.0,100.0
14134,48.0,0,59,7.0,100.0
14135,69.0,0,29,4.0,100.0
14136,74.0,0,29,6.0,100.0
14137,68.0,0,29,4.0,100.0
14138,68.0,0,29,0.0,90.0
14139,71.0,0,29,8.0,100.0
14140,74.0,0,29,1.0,127.0
14141,72.0,0,29,6.0,100.0
14142,69.0,0,29,0.0,90.0
14143,69.0,30,29,4.0,100.0
14144,69.0,0,29,8.0,100.0
14145,72.0,0,29,1.0,127.0
14146,77.0,0,29,8.0,100.0
14147,71.0,0,29,6.0,100.0
14148,71.0,30,29,4.0,100.0
14149,71.0,0,29,0.0,90.0
14150,71.0,0,29,1.0,127.0
14151,59.0,0,119,5.0,100.0
14152,50.0,0,59,5.0,100.0
14153,74.0,0,29,1.0,127.0
14154,50.0,0,59,3.0,90.0
14155,69.0,0,29,0.0,90.0
14156,74.0,0,29,6.0,100.0
14157,74.0,0,29,8.0,100.0
14158,50.0,0,59,10.0,100.0
14159,59.0,0,119,7.0,100.0
14160,50.0,0,59,7.0,100.0
14161,69.0,30,29,4.0,100.0
14162,59.0,30,119,2.0,56.0
14163,59.0,0,120,10.0,100.0
14164,76.0,0,29,1.0,127.0
14165,68.0,0,29,4.0,100.0
14166,68.0,0,29,0.0,90.0
14167,72.0,0,29,8.0,100.0
14168,76.0,0,29,6.0,100.0
14169,74.0,0,29,6.0,100.0
14170,69.0,30,29,4.0,100.0
14171,71.0,0,29,8.0,100.0
14172,69.0,0,29,0.0,90.0
14173,74.0,0,29,1.0,127.0
14174,72.0,0,29,0.0,90.0
14175,80.0,0,29,8.0,100.0
14176,72.0,30,29,4.0,100.0
14177,52.0,0,59,10.0,100.0
14178,72.0,0,59,1.0,127.0
14179,52.0,0,59,3.0,90.0
14180,72.0,0,59,6.0,100.0
14181,60.0,0,119,2.0,56.0
14182,69.0,0,29,0.0,90.0
14183,69.0,30,29,4.0,100.0
14184,76.0,0,29,8.0,100.0
14185,52.0,0,60,5.0,100.0
14186,60.0,0,120,7.0,100.0
14187,60.0,30,120,5.0,100.0
14188,60.0,0,120,10.0,100.0
14189,52.0,0,60,7.0,100.0
14190,68.0,0,29,4.0,100.0
14191,59.0,0,29,2.0,56.0
14192,74.0,0,29,8.0,100.0
14193,68.0,0,29,0.0,90.0
14194,59.0,0,30,10.0,100.0
14195,59.0,0,30,5.0,100.0
14196,59.0,0,30,7.0,100.0
14197,57.0,0,29,2.0,56.0
14198,53.0,30,59,3.0,90.0
14199,53.0,0,59,10.0,100.0
14200,69.0,0,29,0.0,90.0
14201,81.0,0,59,6.0,100.0
14202,81.0,0,59,1.0,127.0
14203,72.0,0,29,8.0,100.0
14204,69.0,0,29,4.0,100.0
14205,57.0,30,30,10.0,100.0
14206,57.0,0,30,5.0,100.0
14207,53.0,0,60,7.0,100.0
14208,53.0,0,60,5.0,100.0
14209,57.0,0,30,7.0,100.0
14210,77.0,30,29,4.0,100.0
14211,77.0,0,29,8.0,100.0
14212,60.0,0,29,2.0,56.0
14213,77.0,0,29,0.0,90.0
14214,60.0,0,30,7.0,100.0
14215,60.0,0,30,10.0,100.0
14216,60.0,0,30,5.0,100.0
14217,50.0,0,59,3.0,90.0
14218,71.0,30,29,0.0,90.0
14219,71.0,0,29,4.0,100.0
14220,50.0,0,59,10.0,100.0
14221,59.0,0,29,2.0,56.0
14222,74.0,0,29,8.0,100.0
14223,50.0,0,60,5.0,100.0
14224,59.0,0,30,5.0,100.0
14225,59.0,0,30,10.0,100.0
14226,50.0,0,60,7.0,100.0
14227,59.0,0,30,7.0,100.0
14228,72.0,0,29,8.0,100.0
14229,57.0,0,29,2.0,56.0
14230,72.0,0,29,0.0,90.0
14231,72.0,0,29,4.0,100.0
14232,57.0,0,30,7.0,100.0
14233,57.0,0,30,10.0,100.0
14234,57.0,0,30,5.0,100.0
14235,71.0,30,29,8.0,100.0
14236,74.0,0,29,4.0,100.0
14237,74.0,0,29,0.0,90.0
14238,56.0,0,29,2.0,56.0
14239,52.0,0,59,3.0,90.0
14240,52.0,0,59,10.0,100.0
14241,56.0,0,30,5.0,100.0
14242,52.0,0,60,5.0,100.0
14243,52.0,0,60,7.0,100.0
14244,56.0,0,30,10.0,100.0
14245,56.0,0,30,7.0,100.0
14246,76.0,0,89,1.0,127.0
14247,76.0,30,89,6.0,100.0
14248,74.0,0,29,6.0,100.0
14249,57.0,0,59,2.0,56.0
14250,72.0,30,59,8.0,100.0
14251,45.0,0,59,3.0,90.0
14252,74.0,30,29,1.0,127.0
14253,72.0,0,59,0.0,90.0
14254,72.0,0,59,4.0,100.0
14255,57.0,0,60,10.0,100.0
14256,45.0,0,60,10.0,100.0
14257,57.0,0,60,5.0,100.0
14258,57.0,0,60,7.0,100.0
14259,45.0,0,60,7.0,100.0
14260,45.0,0,60,5.0,100.0
14261,72.0,0,29,6.0,100.0
14262,72.0,0,29,1.0,127.0
14263,60.0,0,29,2.0,56.0
14264,60.0,0,29,5.0,100.0
14265,60.0,0,29,7.0,100.0
14266,60.0,30,29,10.0,100.0
14267,59.0,0,29,5.0,100.0
14268,59.0,0,29,10.0,100.0
14269,74.0,0,29,6.0,100.0
14270,74.0,0,29,1.0,127.0
14271,76.0,0,59,0.0,90.0
14272,69.0,0,59,8.0,100.0
14273,59.0,30,29,2.0,56.0
14274,59.0,0,29,7.0,100.0
14275,76.0,0,59,4.0,100.0
14276,57.0,0,29,7.0,100.0
14277,76.0,0,29,6.0,100.0
14278,57.0,30,29,2.0,56.0
14279,57.0,0,29,5.0,100.0
14280,76.0,0,29,1.0,127.0
14281,57.0,0,29,10.0,100.0
14282,59.0,0,29,7.0,100.0
14283,59.0,0,29,10.0,100.0
14284,81.0,0,59,4.0,100.0
14285,59.0,0,29,5.0,100.0
14286,74.0,0,29,6.0,100.0
14287,81.0,0,59,0.0,90.0
14288,59.0,30,29,2.0,56.0
14289,72.0,0,59,8.0,100.0
14290,74.0,0,29,1.0,127.0
14291,60.0,30,29,7.0,100.0
14292,76.0,0,29,1.0,127.0
14293,60.0,0,29,2.0,56.0
14294,60.0,0,29,5.0,100.0
14295,60.0,0,29,10.0,100.0
14296,76.0,0,29,6.0,100.0
14297,81.0,0,59,4.0,100.0
14298,77.0,0,29,1.0,127.0
14299,77.0,0,29,6.0,100.0
14300,81.0,0,59,0.0,90.0
14301,62.0,0,29,10.0,100.0
14302,76.0,0,59,8.0,100.0
14303,62.0,0,29,7.0,100.0
14304,62.0,30,29,2.0,56.0
14305,62.0,0,29,5.0,100.0
14306,64.0,0,29,5.0,100.0
14307,64.0,0,29,2.0,56.0
14308,64.0,0,29,7.0,100.0
14309,64.0,30,29,10.0,100.0
14310,62.0,0,29,2.0,56.0
14311,81.0,0,59,4.0,100.0
14312,71.0,0,59,6.0,100.0
14313,62.0,0,29,10.0,100.0
14314,76.0,0,59,8.0,100.0
14315,81.0,0,59,0.0,90.0
14316,62.0,0,29,7.0,100.0
14317,71.0,0,59,1.0,127.0
14318,62.0,30,29,5.0,100.0
14319,64.0,0,29,5.0,100.0
14320,64.0,30,29,2.0,56.0
14321,64.0,0,29,7.0,100.0
14322,79.0,0,29,4.0,100.0
14323,64.0,0,29,10.0,100.0
14324,79.0,0,29,0.0,90.0
14325,71.0,0,59,8.0,100.0
14326,77.0,0,29,0.0,90.0
14327,65.0,0,29,7.0,100.0
14328,71.0,0,59,1.0,127.0
14329,65.0,0,29,10.0,100.0
14330,71.0,0,59,6.0,100.0
14331,65.0,0,29,5.0,100.0
14332,65.0,0,29,2.0,56.0
14333,77.0,30,29,4.0,100.0
14334,67.0,0,29,7.0,100.0
14335,67.0,0,29,10.0,100.0
14336,76.0,30,29,4.0,100.0
14337,67.0,0,29,2.0,56.0
14338,67.0,0,29,5.0,100.0
14339,76.0,0,29,0.0,90.0
14340,65.0,0,29,5.0,100.0
14341,79.0,0,59,1.0,127.0
14342,65.0,30,29,2.0,56.0
14343,74.0,0,29,0.0,90.0
14344,71.0,0,59,8.0,100.0
14345,79.0,0,59,6.0,100.0
14346,74.0,0,29,4.0,100.0
14347,65.0,0,29,7.0,100.0
14348,65.0,0,29,10.0,100.0
14349,67.0,30,29,10.0,100.0
14350,67.0,0,29,5.0,100.0
14351,67.0,0,29,7.0,100.0
14352,72.0,0,29,4.0,100.0
14353,67.0,0,29,2.0,56.0
14354,72.0,0,29,0.0,90.0
14355,76.0,0,59,8.0,100.0
14356,70.0,0,29,4.0,100.0
14357,64.0,0,29,7.0,100.0
14358,79.0,0,59,1.0,127.0
14359,70.0,0,29,0.0,90.0
14360,64.0,0,29,10.0,100.0
14361,79.0,0,59,6.0,100.0
14362,64.0,30,29,5.0,100.0
14363,64.0,0,29,2.0,56.0
14364,65.0,0,29,7.0,100.0
14365,65.0,30,29,10.0,100.0
14366,65.0,0,29,5.0,100.0
14367,65.0,0,29,2.0,56.0
14368,58.0,0,29,2.0,56.0
14369,58.0,30,29,5.0,100.0
14370,72.0,0,59,8.0,100.0
14371,79.0,0,59,1.0,127.0
14372,79.0,0,59,6.0,100.0
14373,69.0,0,59,4.0,100.0
14374,58.0,0,29,7.0,100.0
14375,69.0,0,59,0.0,90.0
14376,58.0,0,29,10.0,100.0
14377,57.0,0,29,7.0,100.0
14378,57.0,30,29,10.0,100.0
14379,77.0,0,29,6.0,100.0
14380,77.0,0,29,1.0,127.0
14381,57.0,0,29,5.0,100.0
14382,57.0,0,29,2.0,56.0
14383,55.0,0,29,5.0,100.0
14384,55.0,0,29,2.0,56.0
14385,55.0,30,29,7.0,100.0
14386,76.0,0,29,6.0,100.0
14387,76.0,0,29,1.0,127.0
14388,72.0,0,59,0.0,90.0
14389,65.0,0,59,8.0,100.0
14390,55.0,0,29,10.0,100.0
14391,72.0,0,59,4.0,100.0
14392,53.0,0,29,10.0,100.0
14393,53.0,0,29,2.0,56.0
14394,53.0,0,29,5.0,100.0
14395,74.0,0,29,6.0,100.0
14396,74.0,0,29,1.0,127.0
14397,53.0,0,29,7.0,100.0
14398,72.0,0,29,6.0,100.0
14399,55.0,0,29,2.0,56.0
14400,55.0,0,29,7.0,100.0
14401,72.0,0,29,1.0,127.0
14402,77.0,0,59,4.0,100.0
14403,55.0,30,29,5.0,100.0
14404,55.0,0,29,10.0,100.0
14405,69.0,0,59,8.0,100.0
14406,77.0,30,59,0.0,90.0
14407,57.0,0,29,7.0,100.0
14408,57.0,0,29,5.0,100.0
14409,57.0,0,29,2.0,56.0
14410,70.0,0,29,1.0,127.0
14411,70.0,30,29,6.0,100.0
14412,57.0,0,29,10.0,100.0
14413,77.0,0,59,0.0,90.0
14414,72.0,0,59,8.0,100.0
14415,58.0,0,29,10.0,100.0
14416,69.0,0,29,6.0,100.0
14417,58.0,0,29,7.0,100.0
14418,58.0,0,29,2.0,56.0
14419,77.0,0,59,4.0,100.0
14420,58.0,0,29,5.0,100.0
14421,69.0,30,29,1.0,127.0
14422,60.0,0,29,10.0,100.0
14423,60.0,0,29,2.0,56.0
14424,60.0,0,29,5.0,100.0
14425,60.0,0,29,7.0,100.0
14426,77.0,0,59,4.0,100.0
14427,72.0,0,59,8.0,100.0
14428,58.0,0,29,5.0,100.0
14429,67.0,0,59,1.0,127.0
14430,77.0,30,59,0.0,90.0
14431,58.0,0,29,10.0,100.0
14432,67.0,0,59,6.0,100.0
14433,58.0,30,29,2.0,56.0
14434,58.0,0,29,7.0,100.0
14435,60.0,0,29,5.0,100.0
14436,60.0,0,29,10.0,100.0
14437,76.0,30,29,0.0,90.0
14438,76.0,0,29,4.0,100.0
14439,60.0,0,29,2.0,56.0
14440,60.0,0,29,7.0,100.0
14441,74.0,0,29,0.0,90.0
14442,67.0,0,59,1.0,127.0
14443,67.0,0,59,6.0,100.0
14444,67.0,0,59,8.0,100.0
14445,62.0,0,29,10.0,100.0
14446,62.0,0,29,5.0,100.0
14447,74.0,30,29,4.0,100.0
14448,62.0,0,29,7.0,100.0
14449,62.0,0,29,2.0,56.0
14450,64.0,0,29,7.0,100.0
14451,64.0,0,29,10.0,100.0
14452,64.0,30,29,5.0,100.0
14453,72.0,0,29,0.0,90.0
14454,64.0,0,29,2.0,56.0
14455,72.0,0,29,4.0,100.0
14456,76.0,0,59,6.0,100.0
14457,62.0,0,29,7.0,100.0
14458,70.0,0,29,0.0,90.0
14459,62.0,0,29,5.0,100.0
14460,62.0,0,29,10.0,100.0
14461,70.0,0,29,4.0,100.0
14462,67.0,0,59,8.0,100.0
14463,76.0,0,59,1.0,127.0
14464,62.0,30,29,2.0,56.0
14465,64.0,30,29,2.0,56.0
14466,64.0,0,29,5.0,100.0
14467,69.0,0,29,4.0,100.0
14468,69.0,0,29,0.0,90.0
14469,64.0,0,29,10.0,100.0
14470,64.0,0,29,7.0,100.0
14471,76.0,0,59,8.0,100.0
14472,61.0,30,29,2.0,56.0
14473,61.0,0,29,5.0,100.0
14474,76.0,0,59,1.0,127.0
14475,73.0,0,29,4.0,100.0
14476,73.0,0,29,0.0,90.0
14477,61.0,0,29,7.0,100.0
14478,76.0,0,59,6.0,100.0
14479,61.0,0,29,10.0,100.0
14480,62.0,0,29,5.0,100.0
14481,62.0,0,29,10.0,100.0
14482,62.0,0,29,2.0,56.0
14483,62.0,0,29,7.0,100.0
14484,55.0,0,29,10.0,100.0
14485,76.0,30,59,1.0,127.0
14486,76.0,0,59,6.0,100.0
14487,55.0,0,29,5.0,100.0
14488,69.0,0,59,8.0,100.0
14489,65.0,0,59,0.0,90.0
14490,55.0,30,29,2.0,56.0
14491,65.0,0,59,4.0,100.0
14492,55.0,0,29,7.0,100.0
14493,53.0,0,29,10.0,100.0
14494,53.0,0,29,5.0,100.0
14495,53.0,0,29,7.0,100.0
14496,74.0,0,29,6.0,100.0
14497,53.0,30,29,2.0,56.0
14498,74.0,0,29,1.0,127.0
14499,52.0,0,29,5.0,100.0
14500,69.0,0,59,0.0,90.0
14501,72.0,0,29,6.0,100.0
14502,69.0,0,59,4.0,100.0
14503,72.0,0,29,1.0,127.0
14504,52.0,30,29,2.0,56.0
14505,52.0,0,29,7.0,100.0
14506,52.0,0,29,10.0,100.0
14507,62.0,0,59,8.0,100.0
14508,50.0,0,29,7.0,100.0
14509,50.0,0,29,5.0,100.0
14510,50.0,0,29,2.0,56.0
14511,50.0,0,29,10.0,100.0
14512,70.0,0,29,6.0,100.0
14513,70.0,0,29,1.0,127.0
14514,52.0,0,29,7.0,100.0
14515,52.0,0,29,10.0,100.0
14516,52.0,0,29,5.0,100.0
14517,74.0,0,59,4.0,100.0
14518,52.0,30,29,2.0,56.0
14519,69.0,0,29,6.0,100.0
14520,69.0,0,29,1.0,127.0
14521,74.0,0,59,0.0,90.0
14522,65.0,30,59,8.0,100.0
14523,53.0,0,29,7.0,100.0
14524,53.0,0,29,5.0,100.0
14525,67.0,0,29,1.0,127.0
14526,53.0,0,29,10.0,100.0
14527,67.0,0,29,6.0,100.0
14528,53.0,0,29,2.0,56.0
14529,65.0,0,29,1.0,127.0
14530,65.0,0,29,6.0,100.0
14531,74.0,0,59,4.0,100.0
14532,74.0,0,59,0.0,90.0
14533,69.0,30,59,8.0,100.0
14534,55.0,0,29,10.0,100.0
14535,55.0,0,29,5.0,100.0
14536,55.0,0,29,2.0,56.0
14537,55.0,30,29,7.0,100.0
14538,70.0,0,20,8.0,100.0
14539,73.0,0,29,0.0,90.0
14540,64.0,30,29,1.0,127.0
14541,73.0,0,29,4.0,100.0
14542,64.0,0,29,6.0,100.0
14543,69.0,20,20,8.0,100.0
14544,45.0,0,59,3.0,90.0
14545,57.0,0,59,5.0,100.0
14546,57.0,0,59,10.0,100.0
14547,45.0,0,59,5.0,100.0
14548,57.0,0,59,2.0,56.0
14549,76.0,0,29,0.0,90.0
14550,67.0,0,29,1.0,127.0
14551,45.0,0,59,7.0,100.0
14552,57.0,0,59,7.0,100.0
14553,67.0,0,29,6.0,100.0
14554,76.0,10,29,4.0,100.0
14555,45.0,0,59,10.0,100.0
14556,70.0,10,20,8.0,100.0
14557,69.0,0,7,8.0,100.0
14558,70.0,7,7,8.0,100.0
14559,69.0,8,7,8.0,100.0
14560,74.0,20,29,0.0,90.0
14561,65.0,0,29,6.0,100.0
14562,70.0,7,7,8.0,100.0
14563,65.0,0,29,1.0,127.0
14564,74.0,0,29,4.0,100.0
14565,69.0,8,10,8.0,100.0
14566,70.0,10,10,8.0,100.0
14567,77.0,0,29,0.0,90.0
14568,69.0,0,59,2.0,56.0
14569,69.0,0,29,6.0,100.0
14570,77.0,0,29,4.0,100.0
14571,69.0,0,29,1.0,127.0
14572,69.0,10,10,8.0,100.0
14573,70.0,0,10,8.0,100.0
14574,69.0,10,10,8.0,100.0
14575,76.0,0,29,0.0,90.0
14576,67.0,0,29,6.0,100.0
14577,76.0,10,29,4.0,100.0
14578,67.0,0,29,1.0,127.0
14579,70.0,10,10,8.0,100.0
14580,69.0,0,10,8.0,100.0
14581,70.0,10,10,8.0,100.0
14582,64.0,10,29,1.0,127.0
14583,64.0,0,29,6.0,100.0
14584,79.0,0,29,4.0,100.0
14585,50.0,0,119,3.0,90.0
14586,50.0,0,119,7.0,100.0
14587,50.0,0,119,5.0,100.0
14588,79.0,0,29,0.0,90.0
14589,50.0,0,119,10.0,100.0
14590,69.0,10,10,8.0,100.0
14591,70.0,0,10,8.0,100.0
14592,69.0,10,10,8.0,100.0
14593,69.0,0,29,6.0,100.0
14594,69.0,0,29,1.0,127.0
14595,77.0,0,29,0.0,90.0
14596,77.0,10,29,4.0,100.0
14597,70.0,10,10,8.0,100.0
14598,69.0,0,10,8.0,100.0
14599,70.0,10,10,8.0,100.0
14600,49.0,0,59,5.0,100.0
14601,49.0,0,59,7.0,100.0
14602,76.0,0,29,0.0,90.0
14603,67.0,0,29,6.0,100.0
14604,49.0,0,59,3.0,90.0
14605,76.0,0,29,4.0,100.0
14606,49.0,0,59,10.0,100.0
14607,67.0,10,29,1.0,127.0
14608,69.0,10,10,8.0,100.0
14609,70.0,0,10,8.0,100.0
14610,69.0,10,10,8.0,100.0
14611,65.0,0,29,6.0,100.0
14612,65.0,0,29,1.0,127.0
14613,77.0,0,29,0.0,90.0
14614,77.0,0,29,4.0,100.0
14615,70.0,10,10,8.0,100.0
14616,69.0,10,10,8.0,100.0
14617,70.0,10,10,8.0,100.0
14618,50.0,0,59,10.0,100.0
14619,74.0,0,29,4.0,100.0
14620,74.0,0,29,0.0,90.0
14621,77.0,0,29,1.0,127.0
14622,50.0,10,59,3.0,90.0
14623,69.0,0,179,2.0,56.0
14624,50.0,0,59,7.0,100.0
14625,50.0,0,59,5.0,100.0
14626,77.0,0,29,6.0,100.0
14627,69.0,10,10,8.0,100.0
14628,70.0,0,10,8.0,100.0
14629,69.0,10,10,8.0,100.0
14630,73.0,0,29,0.0,90.0
14631,76.0,0,29,1.0,127.0
14632,76.0,0,29,6.0,100.0
14633,73.0,0,29,4.0,100.0
14634,70.0,10,10,8.0,100.0
14635,69.0,10,10,8.0,100.0
14636,70.0,10,10,8.0,100.0
14637,74.0,0,29,1.0,127.0
14638,69.0,0,59,2.0,56.0
14639,71.0,0,29,0.0,90.0
14640,74.0,0,29,6.0,100.0
14641,71.0,0,29,4.0,100.0
14642,69.0,10,10,8.0,100.0
14643,70.0,0,10,8.0,100.0
14644,69.0,10,10,8.0,100.0
14645,73.0,0,29,1.0,127.0
14646,79.0,0,29,4.0,100.0
14647,73.0,0,29,6.0,100.0
14648,79.0,0,29,0.0,90.0
14649,70.0,10,10,8.0,100.0
14650,69.0,0,10,8.0,100.0
14651,70.0,10,10,8.0,100.0
14652,76.0,0,29,0.0,90.0
14653,76.0,10,29,4.0,100.0
14654,52.0,10,119,10.0,100.0
14655,52.0,0,119,3.0,90.0
14656,79.0,0,29,1.0,127.0
14657,52.0,0,119,7.0,100.0
14658,52.0,0,119,5.0,100.0
14659,79.0,0,29,6.0,100.0
14660,69.0,10,10,8.0,100.0
14661,70.0,0,10,8.0,100.0
14662,69.0,10,10,8.0,100.0
14663,77.0,0,29,6.0,100.0
14664,74.0,0,29,0.0,90.0
14665,77.0,0,29,1.0,127.0
14666,74.0,10,29,4.0,100.0
14667,70.0,10,10,8.0,100.0
14668,69.0,10,10,8.0,100.0
14669,70.0,10,10,8.0,100.0
14670,73.0,0,29,4.0,100.0
14671,73.0,0,29,0.0,90.0
14672,76.0,0,29,1.0,127.0
14673,76.0,0,29,6.0,100.0
14674,69.0,10,10,8.0,100.0
14675,70.0,0,10,8.0,100.0
14676,69.0,10,10,8.0,100.0
14677,74.0,0,29,1.0,127.0
14678,81.0,0,29,0.0,90.0
14679,74.0,0,29,6.0,100.0
14680,81.0,10,29,4.0,100.0
14681,70.0,10,10,8.0,100.0
14682,69.0,0,10,8.0,100.0
14683,70.0,10,10,8.0,100.0
14684,69.0,10,179,2.0,56.0
14685,74.0,10,29,4.0,100.0
14686,77.0,0,29,6.0,100.0
14687,74.0,0,29,0.0,90.0
14688,77.0,0,29,1.0,127.0
14689,53.0,0,119,3.0,90.0
14690,53.0,0,119,10.0,100.0
14691,53.0,0,119,7.0,100.0
14692,53.0,0,119,5.0,100.0
14693,69.0,10,10,8.0,100.0
14694,70.0,0,10,8.0,100.0
14695,69.0,10,10,8.0,100.0
14696,52.0,0,29,7.0,100.0
14697,76.0,0,29,0.0,90.0
14698,52.0,10,29,5.0,100.0
14699,52.0,0,29,10.0,100.0
14700,76.0,0,29,4.0,100.0
14701,52.0,0,29,3.0,90.0
14702,79.0,0,29,1.0,127.0
14703,79.0,0,29,6.0,100.0
14704,70.0,10,10,8.0,100.0
14705,69.0,0,10,8.0,100.0
14706,70.0,10,10,8.0,100.0
14707,77.0,0,29,4.0,100.0
14708,81.0,0,29,1.0,127.0
14709,50.0,0,29,10.0,100.0
14710,81.0,0,29,6.0,100.0
14711,77.0,0,29,0.0,90.0
14712,50.0,10,29,7.0,100.0
14713,50.0,0,29,3.0,90.0
14714,69.0,0,59,2.0,56.0
14715,50.0,0,29,5.0,100.0
14716,69.0,10,10,8.0,100.0
14717,70.0,0,10,8.0,100.0
14718,69.0,10,10,8.0,100.0
14719,53.0,0,29,3.0,90.0
14720,79.0,0,29,0.0,90.0
14721,53.0,0,29,10.0,100.0
14722,53.0,0,29,5.0,100.0
14723,53.0,0,29,7.0,100.0
14724,79.0,0,29,4.0,100.0
14725,73.0,0,29,1.0,127.0
14726,73.0,0,29,6.0,100.0
14727,70.0,10,10,8.0,100.0
14728,69.0,0,10,8.0,100.0
14729,70.0,10,10,8.0,100.0
14730,52.0,0,29,3.0,90.0
14731,73.0,0,29,0.0,90.0
14732,52.0,10,29,7.0,100.0
14733,52.0,0,29,10.0,100.0
14734,79.0,0,29,6.0,100.0
14735,52.0,0,29,5.0,100.0
14736,79.0,0,29,1.0,127.0
14737,73.0,0,29,4.0,100.0
14738,69.0,10,10,8.0,100.0
14739,70.0,0,10,8.0,100.0
14740,69.0,10,10,8.0,100.0
14741,77.0,0,29,6.0,100.0
14742,77.0,0,29,1.0,127.0
14743,50.0,0,29,7.0,100.0
14744,50.0,10,29,5.0,100.0
14745,74.0,0,29,0.0,90.0
14746,50.0,0,29,10.0,100.0
14747,50.0,0,29,3.0,90.0
14748,74.0,0,29,4.0,100.0
14749,70.0,10,10,8.0,100.0
14750,69.0,10,10,8.0,100.0
14751,70.0,10,10,8.0,100.0
14752,49.0,0,29,5.0,100.0
14753,76.0,0,29,4.0,100.0
14754,69.0,10,119,2.0,56.0
14755,49.0,0,29,10.0,100.0
14756,49.0,0,29,7.0,100.0
14757,76.0,0,29,0.0,90.0
14758,76.0,0,29,1.0,127.0
14759,49.0,0,29,3.0,90.0
14760,76.0,0,29,6.0,100.0
14761,69.0,10,10,8.0,100.0
14762,70.0,0,15,8.0,100.0
14763,74.0,0,29,6.0,100.0
14764,74.0,0,29,1.0,127.0
14765,69.0,15,15,8.0,100.0
14766,77.0,0,59,0.0,90.0
14767,50.0,0,59,7.0,100.0
14768,50.0,0,59,5.0,100.0
14769,67.0,15,29,8.0,100.0
14770,50.0,0,59,10.0,100.0
14771,76.0,0,29,1.0,127.0
14772,67.0,0,29,2.0,56.0
14773,76.0,0,29,6.0,100.0
14774,77.0,10,59,4.0,100.0
14775,50.0,0,59,3.0,90.0
14776,77.0,0,29,6.0,100.0
14777,69.0,0,29,2.0,56.0
14778,74.0,0,29,0.0,90.0
14779,69.0,0,29,8.0,100.0
14780,77.0,0,29,1.0,127.0
14781,74.0,30,29,4.0,100.0
14782,62.0,0,29,5.0,100.0
14783,79.0,0,29,6.0,100.0
14784,76.0,0,29,4.0,100.0
14785,38.0,0,59,10.0,100.0
14786,57.0,0,59,7.0,100.0
14787,79.0,0,29,1.0,127.0
14788,76.0,0,29,0.0,90.0
14789,70.0,0,29,2.0,56.0
14790,70.0,30,29,8.0,100.0
14791,61.0,0,29,5.0,100.0
14792,69.0,0,29,2.0,56.0
14793,77.0,30,29,6.0,100.0
14794,77.0,0,29,1.0,127.0
14795,69.0,0,29,8.0,100.0
14796,62.0,0,59,5.0,100.0
14797,76.0,0,29,6.0,100.0
14798,62.0,0,59,7.0,100.0
14799,62.0,0,59,3.0,90.0
14800,77.0,0,59,0.0,90.0
14801,76.0,30,29,1.0,127.0
14802,67.0,0,29,2.0,56.0
14803,67.0,0,29,8.0,100.0
14804,77.0,0,59,4.0,100.0
14805,65.0,0,29,2.0,56.0
14806,74.0,0,29,1.0,127.0
14807,65.0,0,29,8.0,100.0
14808,74.0,0,29,6.0,100.0
14809,72.0,0,29,1.0,127.0
14810,64.0,0,29,2.0,56.0
14811,72.0,0,29,6.0,100.0
14812,65.0,0,59,5.0,100.0
14813,50.0,0,59,7.0,100.0
14814,64.0,30,29,8.0,100.0
14815,57.0,0,59,10.0,100.0
14816,81.0,30,89,4.0,100.0
14817,81.0,0,89,0.0,90.0
14818,70.0,30,29,5.0,100.0
14819,62.0,0,59,8.0,100.0
14820,62.0,0,59,2.0,56.0
14821,77.0,0,29,0.0,90.0
14822,58.0,0,59,10.0,100.0
14823,69.0,0,29,5.0,100.0
14824,77.0,30,29,4.0,100.0
14825,70.0,0,59,6.0,100.0
14826,62.0,0,59,7.0,100.0
14827,70.0,0,59,1.0,127.0
14828,55.0,0,59,3.0,90.0
14829,70.0,0,29,5.0,100.0
14830,79.0,0,29,0.0,90.0
14831,79.0,0,29,4.0,100.0
14832,81.0,0,29,4.0,100.0
14833,72.0,30,29,5.0,100.0
14834,74.0,0,59,1.0,127.0
14835,67.0,0,59,2.0,56.0
14836,55.0,0,59,10.0,100.0
14837,81.0,0,29,0.0,90.0
14838,67.0,0,59,8.0,100.0
14839,74.0,30,59,6.0,100.0
14840,70.0,0,29,5.0,100.0
14841,79.0,0,29,0.0,90.0
14842,79.0,0,29,4.0,100.0
14843,77.0,30,29,0.0,90.0
14844,67.0,0,59,1.0,127.0
14845,43.0,0,59,3.0,90.0
14846,67.0,0,59,6.0,100.0
14847,58.0,0,119,7.0,100.0
14848,77.0,0,29,4.0,100.0
14849,58.0,30,59,2.0,56.0
14850,62.0,0,59,8.0,100.0
14851,62.0,0,29,5.0,100.0
14852,76.0,0,29,0.0,90.0
14853,76.0,0,29,4.0,100.0
14854,64.0,30,29,5.0,100.0
14855,43.0,0,59,10.0,100.0
14856,65.0,0,29,5.0,100.0
14857,55.0,0,59,7.0,100.0
14858,74.0,0,29,4.0,100.0
14859,71.0,0,59,6.0,100.0
14860,71.0,0,59,1.0,127.0
14861,74.0,30,29,0.0,90.0
14862,72.0,0,29,6.0,100.0
14863,67.0,0,89,8.0,100.0
14864,67.0,0,89,2.0,56.0
14865,72.0,0,29,1.0,127.0
14866,48.0,0,59,7.0,100.0
14867,48.0,0,59,10.0,100.0
14868,74.0,0,29,1.0,127.0
14869,65.0,30,29,8.0,100.0
14870,74.0,0,29,6.0,100.0
14871,48.0,0,59,3.0,90.0
14872,67.0,30,59,5.0,100.0
14873,65.0,0,29,2.0,56.0
14874,76.0,0,59,0.0,90.0
14875,76.0,0,59,4.0,100.0
14876,72.0,0,29,0.0,90.0
14877,60.0,0,29,5.0,100.0
14878,67.0,30,29,2.0,56.0
14879,72.0,0,29,4.0,100.0
14880,67.0,0,29,8.0,100.0
14881,76.0,0,29,1.0,127.0
14882,76.0,0,29,6.0,100.0
14883,77.0,0,29,1.0,127.0
14884,36.0,0,59,10.0,100.0
14885,59.0,0,29,5.0,100.0
14886,77.0,0,29,6.0,100.0
14887,69.0,30,29,8.0,100.0
14888,74.0,0,29,0.0,90.0
14889,74.0,0,29,4.0,100.0
14890,69.0,0,29,2.0,56.0
14891,55.0,0,59,7.0,100.0
14892,76.0,0,29,6.0,100.0
14893,67.0,0,29,8.0,100.0
14894,76.0,0,29,1.0,127.0
14895,67.0,0,29,2.0,56.0
14896,65.0,30,29,8.0,100.0
14897,76.0,0,59,4.0,100.0
14898,60.0,0,59,5.0,100.0
14899,74.0,0,29,1.0,127.0
14900,65.0,0,29,2.0,56.0
14901,74.0,0,29,6.0,100.0
14902,60.0,0,59,3.0,90.0
14903,60.0,30,59,7.0,100.0
14904,76.0,0,59,0.0,90.0
14905,64.0,30,29,2.0,56.0
14906,64.0,0,29,8.0,100.0
14907,72.0,0,29,1.0,127.0
14908,72.0,0,29,6.0,100.0
14909,64.0,0,59,5.0,100.0
14910,62.0,0,29,8.0,100.0
14911,70.0,0,29,1.0,127.0
14912,70.0,30,29,6.0,100.0
14913,62.0,0,29,2.0,56.0
14914,48.0,0,59,7.0,100.0
14915,55.0,0,59,10.0,100.0
14916,69.0,30,29,5.0,100.0
14917,79.0,0,89,0.0,90.0
14918,79.0,0,89,4.0,100.0
14919,60.0,0,59,2.0,56.0
14920,60.0,0,59,7.0,100.0
14921,57.0,0,59,10.0,100.0
14922,69.0,0,59,6.0,100.0
14923,60.0,0,59,8.0,100.0
14924,69.0,0,59,1.0,127.0
14925,53.0,0,59,3.0,90.0
14926,76.0,0,29,0.0,90.0
14927,67.0,0,29,5.0,100.0
14928,76.0,30,29,4.0,100.0
14929,77.0,0,29,4.0,100.0
14930,69.0,0,29,5.0,100.0
14931,77.0,0,29,0.0,90.0
14932,72.0,0,59,6.0,100.0
14933,79.0,30,29,4.0,100.0
14934,70.0,0,29,5.0,100.0
14935,53.0,30,59,10.0,100.0
14936,65.0,0,59,8.0,100.0
14937,72.0,0,59,1.0,127.0
14938,79.0,0,29,0.0,90.0
14939,65.0,0,59,2.0,56.0
14940,69.0,0,29,5.0,100.0
14941,77.0,30,29,0.0,90.0
14942,77.0,0,29,4.0,100.0
14943,57.0,0,119,7.0,100.0
14944,76.0,30,29,0.0,90.0
14945,65.0,0,59,6.0,100.0
14946,65.0,0,59,1.0,127.0
14947,76.0,0,29,4.0,100.0
14948,41.0,0,59,3.0,90.0
14949,61.0,0,29,5.0,100.0
14950,57.0,0,59,2.0,56.0
14951,60.0,0,59,8.0,100.0
14952,74.0,30,29,4.0,100.0
14953,74.0,0,29,0.0,90.0
14954,62.0,0,29,5.0,100.0
14955,69.0,0,59,1.0,127.0
14956,73.0,0,29,0.0,90.0
14957,41.0,0,59,10.0,100.0
14958,53.0,0,59,7.0,100.0
14959,69.0,0,59,6.0,100.0
14960,64.0,0,29,5.0,100.0
14961,73.0,30,29,4.0,100.0
14962,70.0,0,29,1.0,127.0
14963,65.0,0,89,2.0,56.0
14964,70.0,0,29,6.0,100.0
14965,65.0,0,89,8.0,100.0
14966,72.0,0,29,6.0,100.0
14967,46.0,30,59,3.0,90.0
14968,72.0,30,29,1.0,127.0
14969,63.0,0,29,2.0,56.0
14970,46.0,0,59,10.0,100.0
14971,74.0,0,59,0.0,90.0
14972,65.0,0,59,5.0,100.0
14973,46.0,0,59,7.0,100.0
14974,74.0,0,59,4.0,100.0
14975,63.0,0,29,8.0,100.0
14976,74.0,0,29,6.0,100.0
14977,74.0,0,29,1.0,127.0
14978,58.0,0,29,5.0,100.0
14979,70.0,30,29,0.0,90.0
14980,65.0,0,29,8.0,100.0
14981,70.0,0,29,4.0,100.0
14982,65.0,0,29,2.0,56.0
14983,72.0,0,29,0.0,90.0
14984,53.0,0,59,7.0,100.0
14985,67.0,0,29,8.0,100.0
14986,75.0,0,29,1.0,127.0
14987,72.0,30,29,4.0,100.0
14988,58.0,0,59,10.0,100.0
14989,57.0,0,29,5.0,100.0
14990,75.0,0,29,6.0,100.0
14991,67.0,0,29,2.0,56.0
14992,74.0,0,29,6.0,100.0
14993,65.0,0,29,8.0,100.0
14994,74.0,0,29,1.0,127.0
14995,65.0,30,29,2.0,56.0
14996,74.0,0,59,4.0,100.0
14997,72.0,0,29,6.0,100.0
14998,72.0,0,29,1.0,127.0
14999,74.0,0,59,0.0,90.0
15000,63.0,30,29,2.0,56.0
15001,58.0,0,59,5.0,100.0
15002,58.0,0,59,7.0,100.0
15003,63.0,0,29,8.0,100.0
15004,58.0,0,59,3.0,90.0
15005,70.0,0,29,1.0,127.0
15006,70.0,0,29,6.0,100.0
15007,62.0,30,29,8.0,100.0
15008,62.0,0,29,2.0,56.0
15009,46.0,0,59,7.0,100.0
15010,69.0,30,29,6.0,100.0
15011,53.0,0,59,10.0,100.0
15012,60.0,0,29,2.0,56.0
15013,60.0,0,29,8.0,100.0
15014,60.0,0,59,5.0,100.0
15015,69.0,0,29,1.0,127.0
15016,77.0,0,89,0.0,90.0
15017,67.0,0,29,5.0,100.0
15018,77.0,0,89,4.0,100.0
15019,74.0,30,29,4.0,100.0
15020,58.0,0,59,7.0,100.0
15021,65.0,0,29,5.0,100.0
15022,58.0,0,59,2.0,56.0
15023,58.0,30,59,8.0,100.0
15024,52.0,0,59,3.0,90.0
15025,67.0,0,59,1.0,127.0
15026,74.0,0,29,0.0,90.0
15027,67.0,0,59,6.0,100.0
15028,55.0,0,59,10.0,100.0
15029,76.0,0,29,4.0,100.0
15030,67.0,30,29,5.0,100.0
15031,76.0,0,29,0.0,90.0
15032,69.0,0,29,5.0,100.0
15033,67.0,0,59,2.0,56.0
15034,70.0,0,59,6.0,100.0
15035,52.0,0,59,10.0,100.0
15036,77.0,30,29,4.0,100.0
15037,77.0,0,29,0.0,90.0
15038,70.0,0,59,1.0,127.0
15039,67.0,0,59,8.0,100.0
15040,76.0,0,29,0.0,90.0
15041,76.0,0,29,4.0,100.0
15042,67.0,0,29,5.0,100.0
15043,74.0,30,29,0.0,90.0
15044,55.0,0,59,2.0,56.0
15045,57.0,0,59,8.0,100.0
15046,64.0,0,59,6.0,100.0
15047,74.0,0,29,4.0,100.0
15048,59.0,0,29,5.0,100.0
15049,55.0,0,119,7.0,100.0
15050,40.0,0,59,3.0,90.0
15051,64.0,30,59,1.0,127.0
15052,61.0,0,29,5.0,100.0
15053,73.0,0,29,0.0,90.0
15054,73.0,0,29,4.0,100.0
15055,62.0,30,29,5.0,100.0
15056,52.0,0,59,7.0,100.0
15057,40.0,0,59,10.0,100.0
15058,71.0,0,29,0.0,90.0
15059,71.0,0,29,4.0,100.0
15060,64.0,0,89,8.0,100.0
15061,73.0,30,29,0.0,90.0
15062,64.0,0,89,2.0,56.0
15063,73.0,0,29,4.0,100.0
15064,67.0,30,89,1.0,127.0
15065,67.0,0,89,6.0,100.0
15066,71.0,0,29,0.0,90.0
15067,45.0,0,59,7.0,100.0
15068,65.0,0,29,1.0,127.0
15069,62.0,0,29,8.0,100.0
15070,45.0,0,59,10.0,100.0
15071,45.0,0,59,3.0,90.0
15072,64.0,0,59,5.0,100.0
15073,71.0,30,29,4.0,100.0
15074,62.0,0,29,2.0,56.0
15075,65.0,0,29,6.0,100.0
15076,73.0,0,29,0.0,90.0
15077,73.0,0,29,4.0,100.0
15078,64.0,0,29,8.0,100.0
15079,64.0,0,29,2.0,56.0
15080,64.0,0,29,6.0,100.0
15081,64.0,0,29,1.0,127.0
15082,74.0,0,29,0.0,90.0
15083,65.0,0,29,2.0,56.0
15084,65.0,30,29,8.0,100.0
15085,62.0,0,29,1.0,127.0
15086,52.0,0,59,7.0,100.0
15087,74.0,0,29,4.0,100.0
15088,62.0,0,29,6.0,100.0
15089,57.0,0,59,5.0,100.0
15090,67.0,30,29,2.0,56.0
15091,61.0,0,29,6.0,100.0
15092,57.0,30,89,10.0,100.0
15093,61.0,0,29,1.0,127.0
15094,76.0,0,29,0.0,90.0
15095,69.0,0,29,5.0,100.0
15096,67.0,0,29,8.0,100.0
15097,57.0,0,89,3.0,90.0
15098,76.0,0,29,4.0,100.0
15099,67.0,0,29,5.0,100.0
15100,55.0,0,29,3.0,90.0
15101,55.0,0,29,10.0,100.0
15102,73.0,0,29,4.0,100.0
15103,70.0,0,29,1.0,127.0
15104,73.0,30,29,0.0,90.0
15105,64.0,0,29,8.0,100.0
15106,57.0,0,59,7.0,100.0
15107,64.0,0,29,2.0,56.0
15108,70.0,0,29,6.0,100.0
15109,69.0,0,29,1.0,127.0
15110,69.0,0,29,6.0,100.0
15111,74.0,0,29,0.0,90.0
15112,53.0,0,29,10.0,100.0
15113,53.0,30,29,3.0,90.0
15114,65.0,0,29,2.0,56.0
15115,65.0,0,29,8.0,100.0
15116,65.0,0,29,5.0,100.0
15117,74.0,0,29,4.0,100.0
15118,64.0,0,29,5.0,100.0
15119,76.0,0,29,0.0,90.0
15120,67.0,0,29,1.0,127.0
15121,67.0,0,29,6.0,100.0
15122,67.0,0,29,8.0,100.0
15123,45.0,0,59,7.0,100.0
15124,52.0,0,29,3.0,90.0
15125,76.0,30,29,4.0,100.0
15126,67.0,0,29,2.0,56.0
15127,52.0,0,29,10.0,100.0
15128,57.0,0,29,7.0,100.0
15129,62.0,0,29,5.0,100.0
15130,53.0,0,29,10.0,100.0
15131,65.0,30,30,6.0,100.0
15132,52.0,0,29,10.0,100.0
15133,69.0,0,59,8.0,100.0
15134,55.0,30,29,7.0,100.0
15135,50.0,0,59,3.0,90.0
15136,65.0,0,59,1.0,127.0
15137,69.0,0,59,2.0,56.0
15138,69.0,0,59,0.0,90.0
15139,69.0,0,59,4.0,100.0
15140,64.0,0,29,5.0,100.0
15141,69.0,0,30,6.0,100.0
15142,50.0,0,29,10.0,100.0
15143,53.0,0,29,7.0,100.0
15144,65.0,0,29,5.0,100.0
15145,62.0,0,29,5.0,100.0
15146,57.0,0,29,7.0,100.0
15147,53.0,30,29,10.0,100.0
15148,58.0,0,29,10.0,100.0
15149,64.0,0,29,5.0,100.0
15150,55.0,30,29,7.0,100.0
15151,52.0,0,59,3.0,90.0
15152,64.0,0,59,1.0,127.0
15153,57.0,0,29,10.0,100.0
15154,74.0,30,119,4.0,100.0
15155,74.0,0,119,0.0,90.0
15156,67.0,0,59,2.0,56.0
15157,65.0,30,29,5.0,100.0
15158,53.0,0,29,7.0,100.0
15159,74.0,0,120,6.0,100.0
15160,74.0,0,120,8.0,100.0
15161,67.0,0,29,5.0,100.0
15162,55.0,0,29,10.0,100.0
15163,52.0,0,29,7.0,100.0
15164,73.0,0,59,4.0,100.0
15165,73.0,0,59,0.0,90.0
15166,73.0,30,59,6.0,100.0
15167,57.0,0,29,10.0,100.0
15168,73.0,0,59,8.0,100.0
15169,57.0,0,29,7.0,100.0
15170,64.0,30,29,5.0,100.0
15171,65.0,0,29,5.0,100.0
15172,50.0,0,29,7.0,100.0
15173,53.0,0,29,10.0,100.0
15174,50.0,0,29,10.0,100.0
15175,53.0,30,59,3.0,90.0
15176,69.0,0,29,5.0,100.0
15177,74.0,0,59,4.0,100.0
15178,74.0,0,59,0.0,90.0
15179,74.0,0,59,8.0,100.0
15180,65.0,0,59,2.0,56.0
15181,74.0,0,59,6.0,100.0
15182,53.0,30,29,7.0,100.0
15183,69.0,0,59,1.0,127.0
15184,55.0,0,29,7.0,100.0
15185,58.0,0,29,10.0,100.0
15186,67.0,0,29,5.0,100.0
15187,57.0,0,29,10.0,100.0
15188,65.0,0,29,5.0,100.0
15189,57.0,30,29,7.0,100.0
15190,64.0,0,29,5.0,100.0
15191,55.0,0,29,10.0,100.0
15192,58.0,0,29,7.0,100.0
15193,62.0,0,29,5.0,100.0
15194,76.0,0,119,8.0,100.0
15195,76.0,0,119,6.0,100.0
15196,76.0,0,119,4.0,100.0
15197,58.0,30,29,10.0,100.0
15198,76.0,30,119,0.0,90.0
15199,55.0,0,59,3.0,90.0
15200,55.0,0,29,7.0,100.0
15201,70.0,30,59,2.0,56.0
15202,67.0,0,59,1.0,127.0
15203,57.0,0,29,10.0,100.0
15204,61.0,0,29,5.0,100.0
15205,57.0,0,29,7.0,100.0
15206,55.0,30,29,10.0,100.0
15207,59.0,0,29,5.0,100.0
15208,59.0,0,29,7.0,100.0
15209,61.0,0,29,7.0,100.0
15210,53.0,0,29,10.0,100.0
15211,50.0,30,29,10.0,100.0
15212,77.0,30,119,8.0,100.0
15213,57.0,0,59,5.0,100.0
15214,77.0,0,119,6.0,100.0
15215,77.0,0,119,4.0,100.0
15216,69.0,0,59,2.0,56.0
15217,61.0,0,59,1.0,127.0
15218,57.0,0,29,7.0,100.0
15219,57.0,30,59,3.0,90.0
15220,77.0,0,119,0.0,90.0
15221,76.0,30,29,8.0,100.0
15222,76.0,0,29,0.0,90.0
15223,76.0,0,29,4.0,100.0
15224,76.0,0,29,6.0,100.0
15225,74.0,0,29,8.0,100.0
15226,74.0,0,29,0.0,90.0
15227,62.0,0,59,7.0,100.0
15228,58.0,0,59,5.0,100.0
15229,74.0,30,29,6.0,100.0
15230,65.0,0,59,2.0,56.0
15231,74.0,0,29,4.0,100.0
15232,58.0,0,59,10.0,100.0
15233,58.0,0,59,3.0,90.0
15234,62.0,0,59,1.0,127.0
15235,77.0,0,29,6.0,100.0
15236,77.0,0,29,0.0,90.0
15237,77.0,0,29,8.0,100.0
15238,77.0,30,29,4.0,100.0
15239,76.0,0,29,8.0,100.0
15240,55.0,0,59,5.0,100.0
15241,76.0,30,29,6.0,100.0
15242,76.0,0,29,4.0,100.0
15243,67.0,0,59,2.0,56.0
15244,70.0,0,59,1.0,127.0
15245,55.0,0,59,10.0,100.0
15246,55.0,0,59,3.0,90.0
15247,76.0,0,29,0.0,90.0
15248,55.0,0,59,7.0,100.0
15249,74.0,0,29,6.0,100.0
15250,74.0,0,29,8.0,100.0
15251,74.0,0,29,4.0,100.0
15252,74.0,30,29,0.0,90.0
15253,64.0,0,59,2.0,56.0
15254,57.0,0,59,10.0,100.0
15255,57.0,0,59,3.0,90.0
15256,73.0,30,29,6.0,100.0
15257,57.0,0,59,7.0,100.0
15258,57.0,0,59,5.0,100.0
15259,69.0,0,59,1.0,127.0
15260,73.0,0,29,8.0,100.0
15261,73.0,0,29,4.0,100.0
15262,73.0,0,29,0.0,90.0
15263,74.0,0,29,8.0,100.0
15264,74.0,0,29,4.0,100.0
15265,74.0,0,29,6.0,100.0
15266,74.0,30,29,0.0,90.0
15267,69.0,0,29,6.0,100.0
15268,69.0,0,29,0.0,90.0
15269,69.0,0,29,8.0,100.0
15270,69.0,30,29,4.0,100.0
15271,65.0,0,29,6.0,100.0
15272,65.0,30,29,0.0,90.0
15273,65.0,0,29,4.0,100.0
15274,65.0,0,29,8.0,100.0
15275,50.0,0,119,7.0,100.0
15276,50.0,0,119,3.0,90.0
15277,62.0,0,119,5.0,100.0
15278,69.0,0,29,4.0,100.0
15279,69.0,0,119,1.0,127.0
15280,69.0,0,29,6.0,100.0
15281,65.0,0,119,2.0,56.0
15282,50.0,0,119,10.0,100.0
15283,69.0,0,29,8.0,100.0
15284,69.0,30,29,0.0,90.0
15285,57.0,0,29,5.0,100.0
15286,62.0,30,59,4.0,100.0
15287,62.0,0,59,8.0,100.0
15288,45.0,0,29,7.0,100.0
15289,62.0,0,59,6.0,100.0
15290,45.0,30,29,10.0,100.0
15291,62.0,0,59,0.0,90.0
15292,41.0,0,29,10.0,100.0
15293,53.0,30,29,5.0,100.0
15294,41.0,0,29,7.0,100.0
15295,57.0,0,29,5.0,100.0
15296,45.0,0,29,7.0,100.0
15297,45.0,30,29,10.0,100.0
15298,50.0,0,29,5.0,100.0
15299,69.0,0,29,4.0,100.0
15300,65.0,30,29,4.0,100.0
15301,38.0,0,59,10.0,100.0
15302,38.0,30,59,7.0,100.0
15303,57.0,0,29,5.0,100.0
15304,64.0,30,29,4.0,100.0
15305,55.0,0,29,5.0,100.0
15306,57.0,0,59,3.0,90.0
15307,62.0,30,29,4.0,100.0
15308,57.0,0,29,5.0,100.0
15309,69.0,30,29,4.0,100.0
15310,53.0,0,29,5.0,100.0
15311,57.0,30,29,5.0,100.0
15312,65.0,0,29,4.0,100.0
15313,55.0,0,29,5.0,100.0
15314,64.0,30,29,4.0,100.0
15315,57.0,30,29,5.0,100.0
15316,62.0,0,29,4.0,100.0
15317,52.0,30,29,5.0,100.0
15318,70.0,0,29,4.0,100.0
15319,62.0,0,179,3.0,90.0
15320,57.0,0,29,5.0,100.0
15321,67.0,30,29,4.0,100.0
15322,69.0,30,29,4.0,100.0
15323,55.0,0,29,5.0,100.0
15324,61.0,0,59,3.0,90.0
15325,64.0,30,29,4.0,100.0
15326,57.0,0,29,5.0,100.0
15327,65.0,0,29,4.0,100.0
15328,62.0,30,29,4.0,100.0
15329,62.0,0,59,3.0,90.0
15330,50.0,30,59,5.0,100.0
15331,65.0,30,29,4.0,100.0
15332,69.0,30,29,4.0,100.0
15333,74.0,0,29,4.0,100.0
15334,53.0,30,29,5.0,100.0
15335,62.0,30,29,5.0,100.0
15336,71.0,0,29,4.0,100.0
15337,60.0,30,29,5.0,100.0
15338,69.0,0,29,4.0,100.0
15339,68.0,30,29,4.0,100.0
15340,62.0,0,29,5.0,100.0
15341,74.0,0,29,4.0,100.0
15342,59.0,30,29,5.0,100.0
15343,53.0,0,119,3.0,90.0
15344,71.0,30,29,4.0,100.0
15345,62.0,0,29,5.0,100.0
15346,69.0,0,29,4.0,100.0
15347,60.0,0,29,5.0,100.0
15348,68.0,30,29,4.0,100.0
15349,62.0,0,29,5.0,100.0
15350,50.0,30,59,3.0,90.0
15351,77.0,30,29,4.0,100.0
15352,56.0,0,29,5.0,100.0
15353,64.0,0,29,5.0,100.0
15354,47.0,0,59,3.0,90.0
15355,74.0,30,29,4.0,100.0
15356,76.0,30,29,4.0,100.0
15357,62.0,0,29,5.0,100.0
15358,56.0,0,59,3.0,90.0
15359,64.0,30,29,5.0,100.0
15360,71.0,0,29,4.0,100.0
15361,72.0,0,29,4.0,100.0
15362,69.0,30,29,4.0,100.0
15363,57.0,30,59,5.0,100.0
15364,57.0,0,59,3.0,90.0
15365,72.0,30,29,4.0,100.0
15366,76.0,30,29,4.0,100.0
15367,57.0,30,29,5.0,100.0
15368,81.0,0,29,4.0,100.0
15369,64.0,30,29,5.0,100.0
15370,72.0,0,29,4.0,100.0
15371,62.0,0,29,5.0,100.0
15372,70.0,0,29,4.0,100.0
15373,57.0,30,59,3.0,90.0
15374,64.0,30,29,5.0,100.0
15375,69.0,0,29,4.0,100.0
15376,55.0,0,29,5.0,100.0
15377,81.0,30,29,4.0,100.0
15378,60.0,0,59,3.0,90.0
15379,72.0,0,29,4.0,100.0
15380,63.0,30,29,5.0,100.0
15381,62.0,30,29,5.0,100.0
15382,70.0,0,29,4.0,100.0
15383,69.0,30,29,4.0,100.0
15384,63.0,0,29,5.0,100.0
15385,51.0,0,59,3.0,90.0
15386,81.0,30,29,4.0,100.0
15387,54.0,0,29,5.0,100.0
15388,62.0,0,29,5.0,100.0
15389,50.0,0,59,3.0,90.0
15390,72.0,30,29,4.0,100.0
15391,74.0,0,29,4.0,100.0
15392,60.0,30,29,5.0,100.0
15393,54.0,0,59,3.0,90.0
15394,69.0,30,29,4.0,100.0
15395,62.0,0,29,5.0,100.0
15396,70.0,30,29,4.0,100.0
15397,55.0,0,59,3.0,90.0
15398,55.0,0,59,5.0,100.0
15399,67.0,30,29,4.0,100.0
15400,70.0,30,29,4.0,100.0
15401,74.0,30,29,4.0,100.0
15402,55.0,0,29,5.0,100.0
15403,79.0,30,29,4.0,100.0
15404,62.0,30,29,5.0,100.0
15405,70.0,0,29,4.0,100.0
15406,69.0,0,29,4.0,100.0
15407,60.0,30,29,5.0,100.0
15408,62.0,30,29,5.0,100.0
15409,67.0,0,29,4.0,100.0
15410,55.0,0,59,3.0,90.0
15411,53.0,30,29,5.0,100.0
15412,79.0,0,29,4.0,100.0
15413,70.0,0,29,4.0,100.0
15414,58.0,0,59,3.0,90.0
15415,62.0,30,29,5.0,100.0
15416,60.0,30,29,5.0,100.0
15417,69.0,0,29,4.0,100.0
15418,50.0,0,59,3.0,90.0
15419,62.0,30,29,5.0,100.0
15420,67.0,0,29,4.0,100.0
15421,79.0,0,29,4.0,100.0
15422,52.0,0,29,5.0,100.0
15423,70.0,30,29,4.0,100.0
15424,60.0,0,29,5.0,100.0
15425,48.0,30,59,3.0,90.0
15426,58.0,0,29,5.0,100.0
15427,72.0,30,29,4.0,100.0
15428,67.0,0,29,4.0,100.0
15429,60.0,30,29,5.0,100.0
15430,52.0,0,59,3.0,90.0
15431,69.0,30,29,4.0,100.0
15432,65.0,30,29,4.0,100.0
15433,53.0,0,59,3.0,90.0
15434,53.0,0,59,5.0,100.0
15435,69.0,30,29,4.0,100.0
15436,70.0,30,29,4.0,100.0
15437,72.0,30,29,4.0,100.0
15438,77.0,30,29,4.0,100.0
15439,57.0,0,29,5.0,100.0
15440,55.0,30,29,5.0,100.0
15441,79.0,0,29,4.0,100.0
15442,81.0,0,29,4.0,100.0
15443,53.0,0,59,3.0,90.0
15444,53.0,30,29,5.0,100.0
15445,58.0,0,29,5.0,100.0
15446,74.0,0,29,4.0,100.0
15447,46.0,30,59,3.0,90.0
15448,69.0,30,29,4.0,100.0
15449,51.0,0,29,5.0,100.0
15450,70.0,30,29,4.0,100.0
15451,50.0,0,29,5.0,100.0
15452,72.0,30,29,4.0,100.0
15453,48.0,0,29,5.0,100.0
15454,46.0,30,29,5.0,100.0
15455,74.0,0,29,4.0,100.0
15456,58.0,30,29,5.0,100.0
15457,79.0,0,29,4.0,100.0
15458,57.0,30,29,5.0,100.0
15459,81.0,0,29,4.0,100.0
15460,82.0,0,29,4.0,100.0
15461,55.0,30,29,5.0,100.0
15462,55.0,0,59,3.0,90.0
15463,76.0,0,29,4.0,100.0
15464,60.0,0,29,5.0,100.0
15465,48.0,30,59,3.0,90.0
15466,71.0,30,29,4.0,100.0
15467,53.0,0,29,5.0,100.0
15468,52.0,0,29,5.0,100.0
15469,72.0,30,29,4.0,100.0
15470,50.0,30,29,5.0,100.0
15471,74.0,0,29,4.0,100.0
15472,76.0,30,29,4.0,100.0
15473,48.0,0,29,5.0,100.0
15474,60.0,30,29,5.0,100.0
15475,81.0,0,29,4.0,100.0
15476,58.0,30,29,5.0,100.0
15477,82.0,0,29,4.0,100.0
15478,84.0,30,29,4.0,100.0
15479,57.0,0,29,5.0,100.0
15480,57.0,0,59,3.0,90.0
15481,58.0,0,29,5.0,100.0
15482,74.0,30,29,4.0,100.0
15483,46.0,0,59,3.0,90.0
15484,79.0,30,29,4.0,100.0
15485,55.0,0,29,5.0,100.0
15486,81.0,30,29,4.0,100.0
15487,53.0,0,29,5.0,100.0
15488,55.0,0,59,3.0,90.0
15489,82.0,30,29,4.0,100.0
15490,52.0,0,29,5.0,100.0
15491,72.0,30,29,4.0,100.0
15492,57.0,0,29,5.0,100.0
15493,77.0,0,29,4.0,100.0
15494,53.0,30,29,5.0,100.0
15495,45.0,0,59,3.0,90.0
15496,52.0,0,29,5.0,100.0
15497,79.0,0,29,4.0,100.0
15498,50.0,30,29,5.0,100.0
15499,81.0,0,29,4.0,100.0
15500,53.0,30,59,3.0,90.0
15501,55.0,30,29,5.0,100.0
15502,70.0,0,29,4.0,100.0
15503,43.0,0,59,3.0,90.0
15504,52.0,30,29,5.0,100.0
15505,76.0,0,29,4.0,100.0
15506,77.0,0,29,4.0,100.0
15507,50.0,0,29,5.0,100.0
15508,48.0,30,29,5.0,100.0
15509,52.0,30,59,3.0,90.0
15510,79.0,0,29,4.0,100.0
15511,53.0,30,29,5.0,100.0
15512,69.0,0,29,4.0,100.0
15513,72.0,30,29,4.0,100.0
15514,41.0,0,59,3.0,90.0
15515,57.0,0,29,5.0,100.0
15516,74.0,0,29,4.0,100.0
15517,59.0,0,29,5.0,100.0
15518,53.0,30,29,3.0,90.0
15519,76.0,0,29,4.0,100.0
15520,60.0,30,29,5.0,100.0
15521,52.0,0,29,3.0,90.0
15522,77.0,30,29,4.0,100.0
15523,62.0,0,29,5.0,100.0
15524,53.0,0,29,5.0,100.0
15525,71.0,30,29,4.0,100.0
15526,50.0,0,59,3.0,90.0
15527,72.0,0,29,4.0,100.0
15528,52.0,30,29,5.0,100.0
15529,74.0,30,29,4.0,100.0
15530,47.0,0,59,3.0,90.0
15531,50.0,0,29,5.0,100.0
15532,68.0,0,29,4.0,100.0
15533,52.0,0,59,5.0,100.0
15534,71.0,30,29,4.0,100.0
15535,52.0,30,59,3.0,90.0
15536,72.0,30,29,4.0,100.0
15537,64.0,0,59,5.0,100.0
15538,74.0,30,29,4.0,100.0
15539,68.0,0,29,4.0,100.0
15540,59.0,30,59,5.0,100.0
15541,40.0,0,59,3.0,90.0
15542,62.0,30,29,4.0,100.0
15543,64.0,0,29,4.0,100.0
15544,60.0,30,59,5.0,100.0
15545,65.0,30,29,4.0,100.0
15546,62.0,0,29,4.0,100.0
15547,68.0,30,29,4.0,100.0
15548,52.0,30,59,3.0,90.0
15549,59.0,0,59,5.0,100.0
15550,69.0,0,29,4.0,100.0
15551,71.0,30,29,4.0,100.0
15552,57.0,30,59,5.0,100.0
15553,62.0,0,29,4.0,100.0
15554,59.0,30,29,4.0,100.0
15555,56.0,0,59,5.0,100.0
15556,40.0,30,59,3.0,90.0
15557,60.0,30,29,4.0,100.0
15558,62.0,30,29,4.0,100.0
15559,54.0,0,59,5.0,100.0
15560,59.0,0,29,4.0,100.0
15561,56.0,30,59,5.0,100.0
15562,52.0,0,59,3.0,90.0
15563,62.0,30,29,4.0,100.0
15564,64.0,0,29,4.0,100.0
15565,52.0,30,59,5.0,100.0
15566,65.0,30,29,4.0,100.0
15567,59.0,0,29,4.0,100.0
15568,50.0,30,59,5.0,100.0
15569,40.0,0,59,3.0,90.0
15570,56.0,30,29,4.0,100.0
15571,57.0,30,29,4.0,100.0
15572,59.0,30,29,4.0,100.0
15573,48.0,0,59,5.0,100.0
15574,56.0,0,29,4.0,100.0
15575,77.0,30,29,4.0,100.0
15576,47.0,30,59,5.0,100.0
15577,76.0,30,29,4.0,100.0
15578,47.0,0,59,3.0,90.0
15579,74.0,30,29,4.0,100.0
15580,56.0,0,59,5.0,100.0
15581,57.0,0,29,5.0,100.0
15582,72.0,0,29,4.0,100.0
15583,71.0,0,29,4.0,100.0
15584,48.0,30,59,3.0,90.0
15585,59.0,30,29,5.0,100.0
15586,69.0,30,29,4.0,100.0
15587,60.0,0,29,5.0,100.0
15588,50.0,0,59,3.0,90.0
15589,62.0,0,29,5.0,100.0
15590,71.0,30,29,4.0,100.0
15591,60.0,0,29,5.0,100.0
15592,64.0,0,29,4.0,100.0
15593,52.0,30,59,3.0,90.0
15594,69.0,0,29,4.0,100.0
15595,57.0,30,29,5.0,100.0
15596,71.0,30,29,4.0,100.0
15597,64.0,0,29,5.0,100.0
15598,62.0,30,29,5.0,100.0
15599,68.0,0,29,4.0,100.0
15600,40.0,0,59,3.0,90.0
15601,60.0,0,29,5.0,100.0
15602,69.0,0,29,4.0,100.0
15603,56.0,0,29,5.0,100.0
15604,72.0,30,29,4.0,100.0
15605,41.0,30,59,3.0,90.0
15606,63.0,0,29,4.0,100.0
15607,64.0,30,29,4.0,100.0
15608,42.0,30,59,3.0,90.0
15609,57.0,0,89,5.0,100.0
15610,71.0,30,29,4.0,100.0
15611,56.0,0,29,5.0,100.0
15612,74.0,30,29,4.0,100.0
15613,43.0,0,59,3.0,90.0
15614,63.0,0,29,4.0,100.0
15615,64.0,30,29,4.0,100.0
15616,44.0,30,59,3.0,90.0
15617,59.0,0,89,5.0,100.0
15618,72.0,30,29,4.0,100.0
15619,76.0,30,29,4.0,100.0
15620,45.0,0,59,3.0,90.0
15621,57.0,0,29,5.0,100.0
15622,68.0,0,29,4.0,100.0
15623,69.0,30,29,4.0,100.0
15624,57.0,0,59,3.0,90.0
15625,74.0,0,29,4.0,100.0
15626,65.0,30,89,5.0,100.0
15627,58.0,30,59,3.0,90.0
15628,61.0,0,29,5.0,100.0
15629,77.0,30,29,4.0,100.0
15630,68.0,0,29,4.0,100.0
15631,69.0,30,29,4.0,100.0
15632,59.0,0,59,3.0,90.0
15633,62.0,30,89,5.0,100.0
15634,76.0,30,29,4.0,100.0
15635,79.0,30,29,4.0,100.0
15636,61.0,0,29,5.0,100.0
15637,60.0,0,59,3.0,90.0
15638,68.0,0,29,4.0,100.0
15639,61.0,0,59,3.0,90.0
15640,69.0,30,29,4.0,100.0
15641,77.0,30,14,4.0,100.0
15642,64.0,30,89,5.0,100.0
15643,79.0,15,14,4.0,100.0
15644,77.0,0,14,4.0,100.0
15645,57.0,15,29,5.0,100.0
15646,79.0,15,14,4.0,100.0
15647,62.0,0,59,3.0,90.0
15648,77.0,0,9,4.0,100.0
15649,79.0,10,9,4.0,100.0
15650,59.0,0,29,5.0,100.0
15651,77.0,10,9,4.0,100.0
15652,79.0,0,9,4.0,100.0
15653,77.0,10,9,4.0,100.0
15654,79.0,10,9,4.0,100.0
15655,50.0,15,59,3.0,90.0
15656,60.0,10,29,5.0,100.0
15657,77.0,10,9,4.0,100.0
15658,79.0,10,9,4.0,100.0
15659,62.0,0,29,5.0,100.0
15660,77.0,10,9,4.0,100.0
15661,79.0,0,9,4.0,100.0
15662,77.0,10,9,4.0,100.0
15663,79.0,10,9,4.0,100.0
15664,47.0,0,59,3.0,90.0
15665,65.0,10,29,5.0,100.0
15666,77.0,0,9,4.0,100.0
15667,79.0,10,9,4.0,100.0
15668,59.0,10,29,5.0,100.0
15669,77.0,10,9,4.0,100.0
15670,79.0,10,9,4.0,100.0
15671,77.0,10,9,4.0,100.0
15672,62.0,0,29,5.0,100.0
15673,79.0,10,9,4.0,100.0
15674,50.0,0,59,3.0,90.0
15675,77.0,0,29,4.0,100.0
15676,56.0,10,29,5.0,100.0
15677,74.0,30,29,4.0,100.0
15678,65.0,0,29,5.0,100.0
15679,64.0,0,29,5.0,100.0
15680,72.0,30,29,4.0,100.0
15681,62.0,30,29,5.0,100.0
15682,71.0,0,29,4.0,100.0
15683,76.0,30,29,4.0,100.0
15684,60.0,0,29,5.0,100.0
15685,72.0,30,29,4.0,100.0
15686,64.0,0,29,5.0,100.0
15687,68.0,30,29,4.0,100.0
15688,62.0,0,29,5.0,100.0
15689,60.0,30,29,5.0,100.0
15690,69.0,0,29,4.0,100.0
15691,74.0,0,29,4.0,100.0
15692,59.0,30,29,5.0,100.0
15693,71.0,30,29,4.0,100.0
15694,62.0,0,29,5.0,100.0
15695,60.0,30,29,5.0,100.0
15696,69.0,0,29,4.0,100.0
15697,59.0,30,29,5.0,100.0
15698,68.0,0,29,4.0,100.0
15699,57.0,0,29,5.0,100.0
15700,72.0,30,29,4.0,100.0
15701,60.0,0,29,5.0,100.0
15702,69.0,30,29,4.0,100.0
15703,64.0,30,29,4.0,100.0
15704,59.0,0,29,5.0,100.0
15705,65.0,30,29,4.0,100.0
15706,57.0,0,29,5.0,100.0
15707,70.0,30,29,4.0,100.0
15708,55.0,0,29,5.0,100.0
15709,58.0,30,29,5.0,100.0
15710,67.0,0,29,4.0,100.0
15711,57.0,30,29,5.0,100.0
15712,65.0,0,29,4.0,100.0
15713,64.0,30,29,4.0,100.0
15714,55.0,0,29,5.0,100.0
15715,69.0,30,29,4.0,100.0
15716,53.0,0,29,5.0,100.0
15717,65.0,30,29,4.0,100.0
15718,57.0,0,29,5.0,100.0
15719,55.0,0,29,5.0,100.0
15720,61.0,30,29,4.0,100.0
15721,62.0,0,29,4.0,100.0
15722,53.0,30,29,5.0,100.0
15723,68.0,30,29,4.0,100.0
15724,52.0,0,59,5.0,100.0
15725,65.0,30,29,4.0,100.0
15726,61.0,30,29,4.0,100.0
15727,62.0,30,29,4.0,100.0
15728,59.0,0,59,5.0,100.0
15729,69.0,30,29,4.0,100.0
15730,66.0,30,29,4.0,100.0
15731,60.0,0,59,5.0,100.0
15732,61.0,0,29,4.0,100.0
15733,54.0,30,59,5.0,100.0
15734,62.0,30,29,4.0,100.0
15735,71.0,30,29,4.0,100.0
15736,56.0,0,59,5.0,100.0
15737,68.0,30,29,4.0,100.0
15738,65.0,30,29,4.0,100.0
15739,64.0,30,29,4.0,100.0
15740,59.0,0,59,5.0,100.0
15741,62.0,0,29,4.0,100.0
15742,57.0,30,59,5.0,100.0
15743,65.0,30,29,4.0,100.0
15744,64.0,0,29,4.0,100.0
15745,56.0,30,59,5.0,100.0
15746,62.0,30,29,4.0,100.0
15747,60.0,30,29,4.0,100.0
15748,57.0,0,59,5.0,100.0
15749,64.0,30,29,4.0,100.0
15750,69.0,0,29,4.0,100.0
15751,60.0,30,59,5.0,100.0
15752,72.0,30,29,4.0,100.0
15753,71.0,30,29,4.0,100.0
15754,54.0,0,59,5.0,100.0
15755,69.0,30,29,4.0,100.0
15756,75.0,30,29,4.0,100.0
15757,76.0,30,29,4.0,100.0
15758,57.0,0,59,5.0,100.0
15759,68.0,30,29,4.0,100.0
15760,71.0,30,29,4.0,100.0
15761,59.0,0,59,5.0,100.0
15762,52.0,0,1500,3.0,90.0
15763,74.0,30,29,4.0,100.0
15764,47.0,0,59,3.0,90.0
15765,77.0,30,29,4.0,100.0
15766,54.0,0,59,5.0,100.0
15767,76.0,0,29,4.0,100.0
15768,59.0,0,59,5.0,100.0
15769,44.0,30,59,3.0,90.0
15770,74.0,30,29,4.0,100.0
15771,80.0,0,29,4.0,100.0
15772,81.0,30,29,4.0,100.0
15773,40.0,0,59,3.0,90.0
15774,60.0,0,29,7.0,100.0
15775,57.0,0,29,10.0,100.0
15776,72.0,0,29,4.0,100.0
15777,64.0,30,89,5.0,100.0
15778,76.0,30,59,8.0,100.0
15779,76.0,0,59,0.0,90.0
15780,76.0,30,29,4.0,100.0
15781,59.0,0,29,10.0,100.0
15782,76.0,0,59,1.0,127.0
15783,45.0,0,59,3.0,90.0
15784,72.0,0,59,2.0,56.0
15785,62.0,0,29,5.0,100.0
15786,76.0,0,59,6.0,100.0
15787,59.0,0,29,7.0,100.0
15788,57.0,0,29,7.0,100.0
15789,60.0,0,29,10.0,100.0
15790,60.0,0,29,5.0,100.0
15791,64.0,0,29,5.0,100.0
15792,57.0,0,29,10.0,100.0
15793,60.0,30,29,7.0,100.0
15794,59.0,0,29,10.0,100.0
15795,65.0,0,29,7.0,100.0
15796,62.0,0,29,5.0,100.0
15797,64.0,0,29,7.0,100.0
15798,81.0,0,119,6.0,100.0
15799,60.0,0,29,5.0,100.0
15800,60.0,30,29,10.0,100.0
15801,81.0,0,119,4.0,100.0
15802,81.0,0,119,0.0,90.0
15803,81.0,30,119,8.0,100.0
15804,71.0,30,59,2.0,56.0
15805,47.0,0,59,3.0,90.0
15806,74.0,0,59,1.0,127.0
15807,62.0,30,29,10.0,100.0
15808,62.0,0,29,7.0,100.0
15809,59.0,0,29,5.0,100.0
15810,80.0,0,59,6.0,100.0
15811,80.0,0,59,4.0,100.0
15812,64.0,0,29,7.0,100.0
15813,80.0,0,59,8.0,100.0
15814,64.0,0,29,5.0,100.0
15815,80.0,0,59,0.0,90.0
15816,59.0,30,29,10.0,100.0
15817,60.0,0,29,10.0,100.0
15818,60.0,0,29,7.0,100.0
15819,57.0,30,29,5.0,100.0
15820,81.0,0,59,6.0,100.0
15821,57.0,30,29,7.0,100.0
15822,72.0,0,59,1.0,127.0
15823,81.0,0,59,4.0,100.0
15824,64.0,0,29,10.0,100.0
15825,60.0,0,29,5.0,100.0
15826,48.0,0,59,3.0,90.0
15827,81.0,0,59,0.0,90.0
15828,76.0,0,59,2.0,56.0
15829,81.0,0,59,8.0,100.0
15830,62.0,0,29,10.0,100.0
15831,62.0,0,29,5.0,100.0
15832,65.0,0,29,7.0,100.0
15833,64.0,0,29,7.0,100.0
15834,60.0,30,29,10.0,100.0
15835,64.0,0,29,5.0,100.0
15836,65.0,0,29,5.0,100.0
15837,59.0,0,29,10.0,100.0
15838,62.0,0,29,7.0,100.0
15839,74.0,0,59,2.0,56.0
15840,83.0,0,119,0.0,90.0
15841,83.0,0,119,8.0,100.0
15842,83.0,30,119,6.0,100.0
15843,57.0,0,29,10.0,100.0
15844,83.0,0,119,4.0,100.0
15845,65.0,0,29,7.0,100.0
15846,77.0,30,59,1.0,127.0
15847,50.0,0,59,3.0,90.0
15848,62.0,30,29,5.0,100.0
15849,64.0,0,29,5.0,100.0
15850,56.0,0,29,10.0,100.0
15851,64.0,0,29,7.0,100.0
15852,66.0,0,29,5.0,100.0
15853,54.0,0,29,10.0,100.0
15854,62.0,30,29,7.0,100.0
15855,60.0,0,29,7.0,100.0
15856,68.0,0,29,5.0,100.0
15857,52.0,0,59,10.0,100.0
15858,84.0,0,119,4.0,100.0
15859,76.0,30,59,1.0,127.0
15860,84.0,30,119,6.0,100.0
15861,84.0,0,119,8.0,100.0
15862,57.0,0,29,7.0,100.0
15863,64.0,30,29,5.0,100.0
15864,52.0,0,59,3.0,90.0
15865,84.0,0,119,0.0,90.0
15866,68.0,0,59,2.0,56.0
15867,83.0,0,29,8.0,100.0
15868,83.0,0,29,6.0,100.0
15869,83.0,30,29,0.0,90.0
15870,83.0,0,29,4.0,100.0
15871,81.0,30,29,6.0,100.0
15872,69.0,0,59,2.0,56.0
15873,72.0,0,59,1.0,127.0
15874,53.0,0,59,10.0,100.0
15875,81.0,0,29,8.0,100.0
15876,81.0,0,29,4.0,100.0
15877,69.0,0,59,5.0,100.0
15878,65.0,0,59,7.0,100.0
15879,81.0,0,29,0.0,90.0
15880,53.0,0,59,3.0,90.0
15881,84.0,0,29,6.0,100.0
15882,84.0,30,29,8.0,100.0
15883,84.0,0,29,0.0,90.0
15884,84.0,0,29,4.0,100.0
15885,83.0,0,29,6.0,100.0
15886,65.0,0,59,2.0,56.0
15887,83.0,30,29,0.0,90.0
15888,62.0,0,59,5.0,100.0
15889,62.0,0,59,7.0,100.0
15890,50.0,0,59,10.0,100.0
15891,50.0,0,59,3.0,90.0
15892,83.0,0,29,8.0,100.0
15893,74.0,0,59,1.0,127.0
15894,83.0,0,29,4.0,100.0
15895,81.0,0,29,6.0,100.0
15896,81.0,0,29,4.0,100.0
15897,81.0,30,29,8.0,100.0
15898,81.0,0,29,0.0,90.0
15899,71.0,0,59,1.0,127.0
15900,64.0,0,59,5.0,100.0
15901,64.0,0,59,7.0,100.0
15902,80.0,0,29,6.0,100.0
15903,80.0,0,29,0.0,90.0
15904,52.0,0,59,10.0,100.0
15905,52.0,0,59,3.0,90.0
15906,80.0,0,29,8.0,100.0
15907,80.0,30,29,4.0,100.0
15908,64.0,0,59,2.0,56.0
15909,81.0,0,29,0.0,90.0
15910,81.0,0,29,6.0,100.0
15911,81.0,0,29,8.0,100.0
15912,81.0,0,29,4.0,100.0
15913,76.0,0,29,8.0,100.0
15914,76.0,0,29,6.0,100.0
15915,76.0,0,29,4.0,100.0
15916,76.0,30,29,0.0,90.0
15917,72.0,0,29,8.0,100.0
15918,72.0,0,29,4.0,100.0
15919,72.0,30,29,6.0,100.0
15920,72.0,0,29,0.0,90.0
15921,76.0,0,29,8.0,100.0
15922,76.0,0,29,0.0,90.0
15923,76.0,30,29,6.0,100.0
15924,64.0,0,119,2.0,56.0
15925,45.0,30,119,3.0,90.0
15926,76.0,0,29,4.0,100.0
15927,45.0,0,119,10.0,100.0
15928,57.0,0,119,5.0,100.0
15929,72.0,0,119,1.0,127.0
15930,57.0,0,119,7.0,100.0
15931,69.0,0,59,6.0,100.0
15932,69.0,0,59,8.0,100.0
15933,52.0,0,29,5.0,100.0
15934,69.0,0,59,0.0,90.0
15935,52.0,30,29,10.0,100.0
15936,52.0,0,29,7.0,100.0
15937,69.0,30,59,4.0,100.0
15938,48.0,30,29,10.0,100.0
15939,48.0,0,29,7.0,100.0
15940,48.0,0,29,5.0,100.0
15941,52.0,30,29,5.0,100.0
15942,52.0,0,29,10.0,100.0
15943,52.0,0,29,7.0,100.0
15944,64.0,0,29,6.0,100.0
15945,45.0,0,29,7.0,100.0
15946,60.0,30,29,6.0,100.0
15947,52.0,0,29,7.0,100.0
15948,45.0,30,59,5.0,100.0
15949,45.0,0,59,10.0,100.0
15950,50.0,0,29,7.0,100.0
15951,59.0,30,29,6.0,100.0
15952,52.0,0,29,7.0,100.0
15953,52.0,0,59,3.0,90.0
15954,57.0,30,29,6.0,100.0
15955,64.0,0,29,6.0,100.0
15956,48.0,0,29,7.0,100.0
15957,52.0,0,29,7.0,100.0
15958,60.0,30,29,6.0,100.0
15959,50.0,30,29,7.0,100.0
15960,59.0,0,29,6.0,100.0
15961,52.0,30,29,7.0,100.0
15962,57.0,0,29,6.0,100.0
15963,47.0,30,29,7.0,100.0
15964,65.0,0,29,6.0,100.0
15965,52.0,30,29,7.0,100.0
15966,57.0,30,179,3.0,90.0
15967,62.0,0,29,6.0,100.0
15968,64.0,30,29,6.0,100.0
15969,50.0,0,29,7.0,100.0
15970,56.0,0,59,3.0,90.0
15971,52.0,0,29,7.0,100.0
15972,59.0,30,29,6.0,100.0
15973,60.0,30,29,6.0,100.0
15974,45.0,0,59,7.0,100.0
15975,57.0,30,29,6.0,100.0
15976,57.0,0,59,3.0,90.0
15977,60.0,30,29,6.0,100.0
15978,64.0,30,29,6.0,100.0
15979,67.0,0,29,6.0,100.0
15980,46.0,30,29,7.0,100.0
15981,55.0,30,29,7.0,100.0
15982,64.0,0,29,6.0,100.0
15983,62.0,0,29,6.0,100.0
15984,53.0,0,29,7.0,100.0
15985,55.0,30,29,7.0,100.0
15986,61.0,0,29,6.0,100.0
15987,52.0,30,29,7.0,100.0
15988,67.0,0,29,6.0,100.0
15989,58.0,30,119,3.0,90.0
15990,64.0,30,29,6.0,100.0
15991,55.0,0,29,7.0,100.0
15992,62.0,0,29,6.0,100.0
15993,53.0,0,29,7.0,100.0
15994,61.0,0,29,6.0,100.0
15995,55.0,30,29,7.0,100.0
15996,55.0,30,59,3.0,90.0
15997,49.0,30,29,7.0,100.0
15998,70.0,0,29,6.0,100.0
15999,52.0,0,59,3.0,90.0
16000,55.0,30,29,7.0,100.0
16001,67.0,0,29,6.0,100.0
16002,69.0,0,29,6.0,100.0
16003,53.0,0,29,7.0,100.0
16004,64.0,30,29,6.0,100.0
16005,61.0,30,59,3.0,90.0
16006,55.0,0,29,7.0,100.0
16007,65.0,30,29,6.0,100.0
16008,50.0,0,59,7.0,100.0
16009,62.0,30,29,6.0,100.0
16010,62.0,0,59,3.0,90.0
16011,65.0,30,29,6.0,100.0
16012,69.0,30,29,6.0,100.0
16013,74.0,30,29,6.0,100.0
16014,50.0,0,29,7.0,100.0
16015,65.0,30,29,6.0,100.0
16016,57.0,0,29,7.0,100.0
16017,63.0,0,29,6.0,100.0
16018,55.0,30,29,7.0,100.0
16019,57.0,30,29,7.0,100.0
16020,62.0,0,59,3.0,90.0
16021,62.0,0,29,6.0,100.0
16022,48.0,30,29,7.0,100.0
16023,74.0,0,29,6.0,100.0
16024,56.0,0,29,7.0,100.0
16025,65.0,0,59,3.0,90.0
16026,65.0,30,29,6.0,100.0
16027,55.0,0,29,7.0,100.0
16028,63.0,30,29,6.0,100.0
16029,56.0,30,29,7.0,100.0
16030,62.0,0,29,6.0,100.0
16031,58.0,0,59,3.0,90.0
16032,47.0,30,29,7.0,100.0
16033,74.0,0,29,6.0,100.0
16034,55.0,0,59,3.0,90.0
16035,65.0,30,29,6.0,100.0
16036,55.0,0,29,7.0,100.0
16037,67.0,30,29,6.0,100.0
16038,53.0,0,29,7.0,100.0
16039,62.0,0,29,6.0,100.0
16040,59.0,0,59,3.0,90.0
16041,55.0,30,29,7.0,100.0
16042,63.0,0,29,6.0,100.0
16043,60.0,30,29,6.0,100.0
16044,48.0,0,59,3.0,90.0
16045,48.0,30,59,7.0,100.0
16046,63.0,30,29,6.0,100.0
16047,67.0,30,29,6.0,100.0
16048,72.0,0,29,6.0,100.0
16049,48.0,30,29,7.0,100.0
16050,55.0,0,29,7.0,100.0
16051,63.0,30,29,6.0,100.0
16052,62.0,0,29,6.0,100.0
16053,53.0,30,29,7.0,100.0
16054,60.0,0,59,3.0,90.0
16055,60.0,0,29,6.0,100.0
16056,55.0,30,29,7.0,100.0
16057,72.0,0,29,6.0,100.0
16058,46.0,30,29,7.0,100.0
16059,55.0,30,29,7.0,100.0
16060,63.0,0,29,6.0,100.0
16061,63.0,0,59,3.0,90.0
16062,62.0,0,29,6.0,100.0
16063,53.0,0,29,7.0,100.0
16064,55.0,30,59,3.0,90.0
16065,55.0,0,29,7.0,100.0
16066,60.0,30,29,6.0,100.0
16067,72.0,30,29,6.0,100.0
16068,45.0,0,29,7.0,100.0
16069,63.0,30,29,6.0,100.0
16070,53.0,0,59,3.0,90.0
16071,53.0,0,29,7.0,100.0
16072,65.0,0,29,6.0,100.0
16073,51.0,30,29,7.0,100.0
16074,53.0,0,29,7.0,100.0
16075,57.0,0,59,3.0,90.0
16076,60.0,30,29,6.0,100.0
16077,62.0,0,29,6.0,100.0
16078,58.0,30,29,6.0,100.0
16079,46.0,0,59,3.0,90.0
16080,46.0,30,59,7.0,100.0
16081,62.0,30,29,6.0,100.0
16082,63.0,30,29,6.0,100.0
16083,65.0,30,29,6.0,100.0
16084,50.0,0,29,7.0,100.0
16085,70.0,30,29,6.0,100.0
16086,48.0,0,29,7.0,100.0
16087,72.0,0,29,6.0,100.0
16088,46.0,30,29,7.0,100.0
16089,46.0,30,59,3.0,90.0
16090,74.0,0,29,6.0,100.0
16091,51.0,0,29,7.0,100.0
16092,67.0,30,29,6.0,100.0
16093,44.0,30,29,7.0,100.0
16094,62.0,0,29,6.0,100.0
16095,39.0,0,59,3.0,90.0
16096,43.0,30,29,7.0,100.0
16097,63.0,0,29,6.0,100.0
16098,41.0,30,29,7.0,100.0
16099,65.0,0,29,6.0,100.0
16100,39.0,30,29,7.0,100.0
16101,67.0,0,29,6.0,100.0
16102,51.0,30,29,7.0,100.0
16103,72.0,0,29,6.0,100.0
16104,74.0,0,29,6.0,100.0
16105,50.0,30,29,7.0,100.0
16106,75.0,0,29,6.0,100.0
16107,48.0,30,29,7.0,100.0
16108,48.0,0,59,3.0,90.0
16109,69.0,0,29,6.0,100.0
16110,53.0,30,29,7.0,100.0
16111,64.0,0,29,6.0,100.0
16112,46.0,30,29,7.0,100.0
16113,41.0,0,59,3.0,90.0
16114,45.0,0,29,7.0,100.0
16115,65.0,30,29,6.0,100.0
16116,43.0,30,29,7.0,100.0
16117,67.0,0,29,6.0,100.0
16118,69.0,30,29,6.0,100.0
16119,41.0,0,29,7.0,100.0
16120,74.0,30,29,6.0,100.0
16121,53.0,0,29,7.0,100.0
16122,75.0,0,29,6.0,100.0
16123,51.0,30,29,7.0,100.0
16124,77.0,30,29,6.0,100.0
16125,50.0,0,29,7.0,100.0
16126,62.0,0,59,3.0,90.0
16127,51.0,0,29,7.0,100.0
16128,67.0,30,29,6.0,100.0
16129,72.0,0,29,6.0,100.0
16130,48.0,30,29,7.0,100.0
16131,51.0,0,59,3.0,90.0
16132,74.0,0,29,6.0,100.0
16133,46.0,0,29,7.0,100.0
16134,45.0,0,29,7.0,100.0
16135,75.0,30,29,6.0,100.0
16136,60.0,30,59,3.0,90.0
16137,65.0,0,29,6.0,100.0
16138,50.0,30,29,7.0,100.0
16139,50.0,0,59,3.0,90.0
16140,46.0,30,29,7.0,100.0
16141,70.0,0,29,6.0,100.0
16142,72.0,0,29,6.0,100.0
16143,45.0,0,29,7.0,100.0
16144,74.0,0,29,6.0,100.0
16145,58.0,30,59,3.0,90.0
16146,43.0,30,29,7.0,100.0
16147,48.0,30,29,7.0,100.0
16148,63.0,0,29,6.0,100.0
16149,69.0,30,29,6.0,100.0
16150,45.0,0,29,7.0,100.0
16151,48.0,0,59,3.0,90.0
16152,43.0,30,29,7.0,100.0
16153,70.0,0,29,6.0,100.0
16154,41.0,0,29,7.0,100.0
16155,57.0,0,59,3.0,90.0
16156,72.0,30,29,6.0,100.0
16157,62.0,0,29,6.0,100.0
16158,46.0,30,29,7.0,100.0
16159,50.0,30,29,7.0,100.0
16160,46.0,0,59,3.0,90.0
16161,77.0,0,29,6.0,100.0
16162,79.0,30,29,6.0,100.0
16163,58.0,0,29,3.0,90.0
16164,52.0,0,29,7.0,100.0
16165,81.0,30,29,6.0,100.0
16166,53.0,0,29,7.0,100.0
16167,57.0,0,29,3.0,90.0
16168,55.0,0,29,7.0,100.0
16169,82.0,0,29,6.0,100.0
16170,46.0,0,29,7.0,100.0
16171,55.0,30,59,3.0,90.0
16172,76.0,30,29,6.0,100.0
16173,45.0,30,29,7.0,100.0
16174,77.0,0,29,6.0,100.0
16175,43.0,0,29,7.0,100.0
16176,52.0,0,59,3.0,90.0
16177,79.0,30,29,6.0,100.0
16178,73.0,30,29,6.0,100.0
16179,45.0,0,59,7.0,100.0
16180,76.0,30,29,6.0,100.0
16181,57.0,0,59,3.0,90.0
16182,77.0,0,29,6.0,100.0
16183,79.0,30,29,6.0,100.0
16184,69.0,30,59,7.0,100.0
16185,73.0,30,29,6.0,100.0
16186,64.0,0,59,7.0,100.0
16187,45.0,0,59,3.0,90.0
16188,67.0,30,29,6.0,100.0
16189,69.0,30,29,6.0,100.0
16190,70.0,30,29,6.0,100.0
16191,65.0,0,59,7.0,100.0
16192,67.0,0,29,6.0,100.0
16193,57.0,30,59,3.0,90.0
16194,73.0,30,29,6.0,100.0
16195,64.0,0,59,7.0,100.0
16196,74.0,30,29,6.0,100.0
16197,76.0,30,29,6.0,100.0
16198,62.0,0,59,7.0,100.0
16199,67.0,0,29,6.0,100.0
16200,45.0,30,59,3.0,90.0
16201,61.0,0,59,7.0,100.0
16202,64.0,30,29,6.0,100.0
16203,65.0,0,29,6.0,100.0
16204,67.0,30,29,6.0,100.0
16205,59.0,30,59,7.0,100.0
16206,64.0,0,29,6.0,100.0
16207,61.0,30,59,7.0,100.0
16208,57.0,0,59,3.0,90.0
16209,67.0,30,29,6.0,100.0
16210,69.0,0,29,6.0,100.0
16211,70.0,30,29,6.0,100.0
16212,57.0,30,59,7.0,100.0
16213,64.0,0,29,6.0,100.0
16214,61.0,30,29,6.0,100.0
16215,55.0,0,59,7.0,100.0
16216,45.0,30,59,3.0,90.0
16217,62.0,0,29,6.0,100.0
16218,53.0,30,59,7.0,100.0
16219,64.0,30,29,6.0,100.0
16220,61.0,0,29,6.0,100.0
16221,82.0,30,29,6.0,100.0
16222,52.0,30,59,7.0,100.0
16223,81.0,0,29,6.0,100.0
16224,40.0,30,59,3.0,90.0
16225,79.0,30,29,6.0,100.0
16226,61.0,0,59,7.0,100.0
16227,62.0,0,29,7.0,100.0
16228,77.0,30,29,6.0,100.0
16229,76.0,0,29,6.0,100.0
16230,64.0,30,29,7.0,100.0
16231,41.0,0,59,3.0,90.0
16232,65.0,0,29,7.0,100.0
16233,74.0,0,29,6.0,100.0
16234,43.0,30,59,3.0,90.0
16235,67.0,30,29,7.0,100.0
16236,76.0,0,29,6.0,100.0
16237,65.0,30,29,7.0,100.0
16238,69.0,0,29,6.0,100.0
16239,74.0,30,29,6.0,100.0
16240,62.0,0,29,7.0,100.0
16241,45.0,0,59,3.0,90.0
16242,76.0,0,29,6.0,100.0
16243,69.0,0,29,7.0,100.0
16244,67.0,30,29,7.0,100.0
16245,57.0,30,59,3.0,90.0
16246,73.0,0,29,6.0,100.0
16247,65.0,0,29,7.0,100.0
16248,74.0,0,29,6.0,100.0
16249,61.0,30,29,7.0,100.0
16250,58.0,30,59,3.0,90.0
16251,77.0,0,29,6.0,100.0
16252,68.0,0,29,6.0,100.0
16253,59.0,30,59,3.0,90.0
16254,69.0,30,29,6.0,100.0
16255,62.0,0,89,7.0,100.0
16256,76.0,0,29,6.0,100.0
16257,79.0,30,29,6.0,100.0
16258,60.0,30,59,3.0,90.0
16259,61.0,0,29,7.0,100.0
16260,68.0,0,29,6.0,100.0
16261,69.0,30,29,6.0,100.0
16262,61.0,30,59,3.0,90.0
16263,64.0,0,89,7.0,100.0
16264,77.0,30,29,6.0,100.0
16265,81.0,30,29,6.0,100.0
16266,62.0,0,59,3.0,90.0
16267,62.0,0,29,7.0,100.0
16268,73.0,30,29,6.0,100.0
16269,74.0,30,29,6.0,100.0
16270,50.0,0,59,3.0,90.0
16271,70.0,0,89,7.0,100.0
16272,79.0,0,29,6.0,100.0
16273,51.0,30,59,3.0,90.0
16274,66.0,30,29,7.0,100.0
16275,82.0,0,29,6.0,100.0
16276,73.0,30,29,6.0,100.0
16277,74.0,30,29,6.0,100.0
16278,52.0,0,59,3.0,90.0
16279,81.0,30,29,6.0,100.0
16280,67.0,0,89,7.0,100.0
16281,84.0,0,29,6.0,100.0
16282,53.0,0,59,3.0,90.0
16283,66.0,30,29,7.0,100.0
16284,73.0,30,29,6.0,100.0
16285,74.0,30,29,6.0,100.0
16286,54.0,0,59,3.0,90.0
16287,82.0,0,14,6.0,100.0
16288,84.0,15,14,6.0,100.0
16289,69.0,0,89,7.0,100.0
16290,82.0,15,14,6.0,100.0
16291,84.0,15,14,6.0,100.0
16292,55.0,30,59,3.0,90.0
16293,62.0,0,29,7.0,100.0
16294,82.0,0,9,6.0,100.0
16295,84.0,10,9,6.0,100.0
16296,64.0,0,29,7.0,100.0
16297,82.0,10,9,6.0,100.0
16298,84.0,10,9,6.0,100.0
16299,82.0,10,9,6.0,100.0
16300,84.0,10,9,6.0,100.0
16301,43.0,15,59,3.0,90.0
16302,65.0,0,29,7.0,100.0
16303,82.0,10,9,6.0,100.0
16304,84.0,10,9,6.0,100.0
16305,82.0,10,9,6.0,100.0
16306,67.0,0,29,7.0,100.0
16307,84.0,0,9,6.0,100.0
16308,82.0,10,9,6.0,100.0
16309,84.0,10,9,6.0,100.0
16310,40.0,0,59,3.0,90.0
16311,70.0,10,29,7.0,100.0
16312,82.0,10,9,6.0,100.0
16313,84.0,10,9,6.0,100.0
16314,64.0,0,29,7.0,100.0
16315,82.0,10,9,6.0,100.0
16316,84.0,10,9,6.0,100.0
16317,82.0,10,9,6.0,100.0
16318,67.0,0,29,7.0,100.0
16319,43.0,0,59,3.0,90.0
16320,84.0,10,10,6.0,100.0
16321,61.0,0,29,7.0,100.0
16322,82.0,0,29,6.0,100.0
16323,70.0,30,29,7.0,100.0
16324,79.0,5,29,6.0,100.0
16325,69.0,25,29,7.0,100.0
16326,77.0,5,29,6.0,100.0
16327,67.0,25,29,7.0,100.0
16328,76.0,5,29,6.0,100.0
16329,65.0,25,29,7.0,100.0
16330,81.0,5,29,6.0,100.0
16331,69.0,25,29,7.0,100.0
16332,77.0,5,29,6.0,100.0
16333,67.0,25,29,7.0,100.0
16334,73.0,5,29,6.0,100.0
16335,65.0,25,29,7.0,100.0
16336,74.0,5,29,6.0,100.0
16337,64.0,25,29,7.0,100.0
16338,79.0,5,29,6.0,100.0
16339,67.0,25,29,7.0,100.0
16340,76.0,5,29,6.0,100.0
16341,65.0,25,29,7.0,100.0
16342,74.0,5,29,6.0,100.0
16343,64.0,25,29,7.0,100.0
16344,73.0,5,29,6.0,100.0
16345,62.0,25,29,7.0,100.0
16346,77.0,5,29,6.0,100.0
16347,65.0,25,29,7.0,100.0
16348,74.0,5,29,6.0,100.0
16349,64.0,25,29,7.0,100.0
16350,69.0,5,29,6.0,100.0
16351,62.0,25,29,7.0,100.0
16352,70.0,5,29,6.0,100.0
16353,60.0,25,29,7.0,100.0
16354,75.0,5,29,6.0,100.0
16355,63.0,25,29,7.0,100.0
16356,72.0,5,29,6.0,100.0
16357,62.0,25,29,7.0,100.0
16358,70.0,5,29,6.0,100.0
16359,60.0,25,29,7.0,100.0
16360,69.0,5,29,6.0,100.0
16361,58.0,25,29,7.0,100.0
16362,74.0,5,29,6.0,100.0
16363,62.0,25,29,7.0,100.0
16364,70.0,5,29,6.0,100.0
16365,60.0,25,29,7.0,100.0
16366,66.0,5,29,6.0,100.0
16367,58.0,25,29,7.0,100.0
16368,67.0,5,29,6.0,100.0
16369,73.0,5,29,6.0,100.0
16370,57.0,25,59,7.0,100.0
16371,70.0,30,29,6.0,100.0
16372,66.0,5,29,6.0,100.0
16373,64.0,25,59,7.0,100.0
16374,67.0,30,29,6.0,100.0
16375,74.0,5,29,6.0,100.0
16376,65.0,25,59,7.0,100.0
16377,71.0,30,29,6.0,100.0
16378,68.0,5,29,6.0,100.0
16379,59.0,25,59,7.0,100.0
16380,69.0,30,29,6.0,100.0
16381,76.0,5,29,6.0,100.0
16382,61.0,25,59,7.0,100.0
16383,73.0,30,29,6.0,100.0
16384,70.0,5,29,6.0,100.0
16385,64.0,25,59,7.0,100.0
16386,69.0,30,29,6.0,100.0
16387,67.0,5,29,6.0,100.0
16388,62.0,25,59,7.0,100.0
16389,70.0,30,29,6.0,100.0
16390,69.0,5,29,6.0,100.0
16391,61.0,25,59,7.0,100.0
16392,67.0,30,29,6.0,100.0
16393,65.0,5,29,6.0,100.0
16394,62.0,25,59,7.0,100.0
16395,69.0,30,29,6.0,100.0
16396,74.0,5,29,6.0,100.0
16397,65.0,25,59,7.0,100.0
16398,77.0,30,29,6.0,100.0
16399,76.0,5,29,6.0,100.0
16400,59.0,25,59,7.0,100.0
16401,74.0,30,29,6.0,100.0
16402,80.0,5,29,6.0,100.0
16403,62.0,25,59,7.0,100.0
16404,81.0,30,29,6.0,100.0
16405,73.0,5,29,6.0,100.0
16406,64.0,25,59,7.0,100.0
16407,45.0,10,1500,3.0,90.0
16408,76.0,30,29,6.0,100.0
16409,79.0,5,29,6.0,100.0
16410,61.0,0,59,7.0,100.0
16411,52.0,25,59,3.0,90.0
16412,82.0,30,29,6.0,100.0
16413,81.0,5,29,6.0,100.0
16414,49.0,0,59,3.0,90.0
16415,64.0,25,59,7.0,100.0
16416,79.0,30,29,6.0,100.0
16417,85.0,5,29,6.0,100.0
16418,45.0,25,59,3.0,90.0
16419,69.0,0,59,7.0,100.0
16420,86.0,30,29,6.0,100.0
16421,57.0,0,29,5.0,100.0
16422,77.0,0,59,6.0,100.0
16423,62.0,30,29,5.0,100.0
16424,50.0,0,59,3.0,90.0
16425,69.0,25,59,4.0,100.0
16426,62.0,0,59,7.0,100.0
16427,69.0,0,59,0.0,90.0
16428,64.0,30,29,5.0,100.0
16429,65.0,30,29,5.0,100.0
16430,57.0,0,29,5.0,100.0
16431,74.0,0,119,0.0,90.0
16432,76.0,30,59,6.0,100.0
16433,67.0,0,59,7.0,100.0
16434,74.0,0,119,4.0,100.0
16435,64.0,30,29,5.0,100.0
16436,52.0,0,59,3.0,90.0
16437,65.0,0,29,5.0,100.0
16438,73.0,0,59,4.0,100.0
16439,73.0,30,59,0.0,90.0
16440,67.0,30,29,5.0,100.0
16441,57.0,0,29,7.0,100.0
16442,57.0,0,29,5.0,100.0
16443,62.0,0,29,7.0,100.0
16444,65.0,30,29,5.0,100.0
16445,69.0,30,59,6.0,100.0
16446,74.0,0,59,4.0,100.0
16447,53.0,0,59,3.0,90.0
16448,69.0,0,59,1.0,127.0
16449,74.0,0,59,0.0,90.0
16450,67.0,0,29,5.0,100.0
16451,64.0,30,29,7.0,100.0
16452,69.0,30,29,5.0,100.0
16453,65.0,0,29,7.0,100.0
16454,57.0,0,29,7.0,100.0
16455,57.0,0,29,5.0,100.0
16456,76.0,0,59,4.0,100.0
16457,76.0,30,59,0.0,90.0
16458,67.0,30,29,5.0,100.0
16459,74.0,0,119,6.0,100.0
16460,55.0,0,59,3.0,90.0
16461,74.0,0,119,1.0,127.0
16462,64.0,0,29,7.0,100.0
16463,69.0,0,29,5.0,100.0
16464,65.0,0,29,7.0,100.0
16465,73.0,30,59,6.0,100.0
16466,67.0,0,29,7.0,100.0
16467,70.0,30,29,5.0,100.0
16468,73.0,0,59,1.0,127.0
16469,57.0,0,29,7.0,100.0
16470,57.0,0,29,5.0,100.0
16471,65.0,30,29,7.0,100.0
16472,69.0,0,29,5.0,100.0
16473,74.0,0,59,6.0,100.0
16474,62.0,0,59,3.0,90.0
16475,74.0,30,59,1.0,127.0
16476,77.0,0,59,4.0,100.0
16477,77.0,0,59,0.0,90.0
16478,67.0,0,29,7.0,100.0
16479,76.0,30,29,4.0,100.0
16480,67.0,0,29,5.0,100.0
16481,76.0,0,29,0.0,90.0
16482,74.0,30,29,4.0,100.0
16483,65.0,0,29,5.0,100.0
16484,74.0,0,29,0.0,90.0
16485,69.0,0,29,7.0,100.0
16486,73.0,0,29,0.0,90.0
16487,73.0,30,29,4.0,100.0
16488,57.0,0,29,5.0,100.0
16489,57.0,0,29,7.0,100.0
16490,76.0,0,29,0.0,90.0
16491,76.0,30,29,4.0,100.0
16492,57.0,0,59,3.0,90.0
16493,76.0,0,59,6.0,100.0
16494,67.0,0,29,7.0,100.0
16495,76.0,0,59,1.0,127.0
16496,67.0,0,29,5.0,100.0
16497,65.0,0,29,5.0,100.0
16498,69.0,30,29,7.0,100.0
16499,74.0,0,29,0.0,90.0
16500,74.0,0,29,4.0,100.0
16501,73.0,0,29,0.0,90.0
16502,73.0,0,29,4.0,100.0
16503,64.0,30,29,5.0,100.0
16504,70.0,0,29,7.0,100.0
16505,57.0,0,29,7.0,100.0
16506,62.0,0,29,5.0,100.0
16507,74.0,0,59,4.0,100.0
16508,69.0,30,29,7.0,100.0
16509,77.0,0,59,1.0,127.0
16510,77.0,0,59,6.0,100.0
16511,71.0,0,29,5.0,100.0
16512,53.0,0,59,3.0,90.0
16513,74.0,30,59,0.0,90.0
16514,73.0,0,29,5.0,100.0
16515,76.0,0,29,6.0,100.0
16516,76.0,0,29,1.0,127.0
16517,67.0,30,29,7.0,100.0
16518,74.0,0,29,1.0,127.0
16519,65.0,0,29,7.0,100.0
16520,74.0,30,29,6.0,100.0
16521,74.0,0,29,5.0,100.0
16522,73.0,0,29,1.0,127.0
16523,57.0,30,29,7.0,100.0
16524,69.0,0,29,5.0,100.0
16525,73.0,0,29,6.0,100.0
16526,76.0,0,29,1.0,127.0
16527,67.0,0,29,7.0,100.0
16528,73.0,30,29,5.0,100.0
16529,81.0,0,119,0.0,90.0
16530,57.0,0,59,3.0,90.0
16531,81.0,0,119,4.0,100.0
16532,76.0,0,29,6.0,100.0
16533,65.0,0,29,7.0,100.0
16534,74.0,0,29,6.0,100.0
16535,74.0,0,29,5.0,100.0
16536,74.0,30,29,1.0,127.0
16537,73.0,0,29,6.0,100.0
16538,64.0,0,29,7.0,100.0
16539,79.0,0,59,0.0,90.0
16540,79.0,0,59,4.0,100.0
16541,73.0,0,29,1.0,127.0
16542,76.0,30,29,5.0,100.0
16543,74.0,0,29,5.0,100.0
16544,62.0,0,29,7.0,100.0
16545,74.0,0,59,1.0,127.0
16546,77.0,30,59,4.0,100.0
16547,69.0,30,29,5.0,100.0
16548,71.0,0,29,7.0,100.0
16549,77.0,0,59,0.0,90.0
16550,74.0,0,59,6.0,100.0
16551,50.0,0,59,3.0,90.0
16552,73.0,0,29,7.0,100.0
16553,67.0,30,29,5.0,100.0
16554,74.0,0,29,7.0,100.0
16555,65.0,30,29,5.0,100.0
16556,69.0,0,29,7.0,100.0
16557,73.0,0,29,5.0,100.0
16558,45.0,30,59,3.0,90.0
16559,73.0,30,29,7.0,100.0
16560,81.0,0,119,1.0,127.0
16561,81.0,0,119,6.0,100.0
16562,67.0,0,29,5.0,100.0
16563,76.0,0,59,0.0,90.0
16564,76.0,0,59,4.0,100.0
16565,74.0,0,29,7.0,100.0
16566,65.0,30,29,5.0,100.0
16567,76.0,0,29,7.0,100.0
16568,79.0,0,59,1.0,127.0
16569,79.0,0,59,6.0,100.0
16570,64.0,30,29,5.0,100.0
16571,74.0,0,29,7.0,100.0
16572,65.0,0,29,5.0,100.0
16573,69.0,0,29,7.0,100.0
16574,74.0,0,59,0.0,90.0
16575,77.0,0,59,1.0,127.0
16576,77.0,0,59,6.0,100.0
16577,38.0,0,59,3.0,90.0
16578,62.0,30,29,5.0,100.0
16579,74.0,30,59,4.0,100.0
16580,67.0,0,29,7.0,100.0
16581,64.0,30,29,5.0,100.0
16582,65.0,30,29,5.0,100.0
16583,65.0,0,29,7.0,100.0
16584,50.0,0,59,3.0,90.0
16585,72.0,0,29,7.0,100.0
16586,67.0,30,29,5.0,100.0
16587,67.0,30,29,7.0,100.0
16588,76.0,0,59,1.0,127.0
16589,64.0,0,29,5.0,100.0
16590,82.0,0,119,0.0,90.0
16591,82.0,0,119,4.0,100.0
16592,76.0,0,59,6.0,100.0
16593,52.0,0,59,3.0,90.0
16594,69.0,0,29,7.0,100.0
16595,60.0,0,29,5.0,100.0
16596,72.0,30,29,5.0,100.0
16597,81.0,30,59,0.0,90.0
16598,81.0,0,59,4.0,100.0
16599,53.0,0,59,3.0,90.0
16600,65.0,0,29,7.0,100.0
16601,70.0,0,29,7.0,100.0
16602,70.0,0,29,5.0,100.0
16603,79.0,30,59,4.0,100.0
16604,46.0,0,59,3.0,90.0
16605,74.0,0,59,1.0,127.0
16606,74.0,0,59,6.0,100.0
16607,79.0,0,59,0.0,90.0
16608,67.0,30,29,7.0,100.0
16609,74.0,0,29,5.0,100.0
16610,74.0,0,29,7.0,100.0
16611,70.0,0,29,5.0,100.0
16612,77.0,30,29,0.0,90.0
16613,77.0,0,29,4.0,100.0
16614,43.0,0,59,3.0,90.0
16615,67.0,0,29,5.0,100.0
16616,70.0,0,29,7.0,100.0
16617,76.0,0,29,0.0,90.0
16618,76.0,30,29,4.0,100.0
16619,77.0,0,29,4.0,100.0
16620,77.0,0,29,0.0,90.0
16621,77.0,0,29,7.0,100.0
16622,60.0,0,59,5.0,100.0
16623,65.0,30,29,7.0,100.0
16624,81.0,0,29,4.0,100.0
16625,82.0,0,119,6.0,100.0
16626,81.0,0,29,0.0,90.0
16627,45.0,30,59,3.0,90.0
16628,82.0,0,119,1.0,127.0
16629,79.0,0,29,0.0,90.0
16630,79.0,0,29,4.0,100.0
16631,77.0,30,29,0.0,90.0
16632,77.0,0,29,4.0,100.0
16633,62.0,0,59,5.0,100.0
16634,81.0,30,59,1.0,127.0
16635,46.0,0,59,3.0,90.0
16636,81.0,0,59,6.0,100.0
16637,79.0,30,29,6.0,100.0
16638,76.0,0,29,4.0,100.0
16639,79.0,0,29,1.0,127.0
16640,70.0,0,89,7.0,100.0
16641,76.0,0,29,0.0,90.0
16642,77.0,30,29,6.0,100.0
16643,74.0,0,29,0.0,90.0
16644,77.0,0,29,1.0,127.0
16645,69.0,0,29,7.0,100.0
16646,55.0,0,59,5.0,100.0
16647,74.0,0,29,4.0,100.0
16648,48.0,0,59,3.0,90.0
16649,76.0,0,29,6.0,100.0
16650,72.0,0,29,4.0,100.0
16651,57.0,0,29,5.0,100.0
16652,76.0,0,29,1.0,127.0
16653,60.0,0,29,3.0,90.0
16654,74.0,0,29,4.0,100.0
16655,58.0,30,29,3.0,90.0
16656,58.0,0,29,5.0,100.0
16657,74.0,0,29,1.0,127.0
16658,72.0,0,59,0.0,90.0
16659,74.0,0,29,6.0,100.0
16660,76.0,0,29,4.0,100.0
16661,57.0,30,29,3.0,90.0
16662,60.0,0,29,5.0,100.0
16663,67.0,30,89,7.0,100.0
16664,72.0,0,29,6.0,100.0
16665,77.0,0,29,4.0,100.0
16666,55.0,0,29,3.0,90.0
16667,72.0,0,59,1.0,127.0
16668,60.0,0,29,7.0,100.0
16669,74.0,30,29,6.0,100.0
16670,58.0,0,29,5.0,100.0
16671,53.0,0,29,3.0,90.0
16672,57.0,30,29,5.0,100.0
16673,70.0,0,29,6.0,100.0
16674,62.0,0,29,7.0,100.0
16675,64.0,0,29,7.0,100.0
16676,72.0,0,29,6.0,100.0
16677,55.0,30,29,5.0,100.0
16678,52.0,0,29,3.0,90.0
16679,79.0,0,59,4.0,100.0
16680,65.0,0,29,7.0,100.0
16681,60.0,0,29,10.0,100.0
16682,69.0,0,29,6.0,100.0
16683,57.0,30,29,5.0,100.0
16684,72.0,0,59,8.0,100.0
16685,72.0,0,59,0.0,90.0
16686,72.0,0,59,1.0,127.0
16687,55.0,0,29,5.0,100.0
16688,72.0,30,29,6.0,100.0
16689,58.0,0,29,10.0,100.0
16690,67.0,0,29,7.0,100.0
16691,69.0,0,59,2.0,56.0
16692,53.0,0,59,3.0,90.0
16693,72.0,0,59,4.0,100.0
16694,69.0,30,29,7.0,100.0
16695,53.0,0,29,5.0,100.0
16696,57.0,0,29,10.0,100.0
16697,57.0,30,29,5.0,100.0
16698,60.0,0,29,10.0,100.0
16699,65.0,0,29,7.0,100.0
16700,67.0,0,29,7.0,100.0
16701,58.0,0,29,10.0,100.0
16702,62.0,0,29,5.0,100.0
16703,77.0,0,119,0.0,90.0
16704,57.0,30,29,10.0,100.0
16705,77.0,0,119,8.0,100.0
16706,70.0,30,59,1.0,127.0
16707,55.0,0,59,3.0,90.0
16708,67.0,0,59,2.0,56.0
16709,60.0,0,29,5.0,100.0
16710,77.0,0,119,4.0,100.0
16711,77.0,0,119,6.0,100.0
16712,69.0,0,29,7.0,100.0
16713,70.0,30,29,7.0,100.0
16714,58.0,0,29,5.0,100.0
16715,55.0,0,29,10.0,100.0
16716,76.0,0,59,0.0,90.0
16717,76.0,0,59,6.0,100.0
16718,60.0,30,29,10.0,100.0
16719,76.0,0,59,4.0,100.0
16720,67.0,0,29,7.0,100.0
16721,76.0,0,59,8.0,100.0
16722,60.0,0,29,5.0,100.0
16723,53.0,0,29,10.0,100.0
16724,69.0,0,29,7.0,100.0
16725,57.0,30,29,5.0,100.0
16726,69.0,0,59,1.0,127.0
16727,57.0,0,59,3.0,90.0
16728,77.0,0,59,4.0,100.0
16729,72.0,0,59,2.0,56.0
16730,53.0,0,29,5.0,100.0
16731,77.0,0,59,0.0,90.0
16732,72.0,30,29,7.0,100.0
16733,77.0,0,59,6.0,100.0
16734,57.0,0,29,10.0,100.0
16735,77.0,0,59,8.0,100.0
16736,62.0,0,29,5.0,100.0
16737,58.0,30,29,10.0,100.0
16738,70.0,0,29,7.0,100.0
16739,69.0,0,29,7.0,100.0
16740,60.0,30,29,10.0,100.0
16741,60.0,0,29,5.0,100.0
16742,62.0,0,29,10.0,100.0
16743,58.0,0,29,5.0,100.0
16744,67.0,30,29,7.0,100.0
16745,79.0,0,119,6.0,100.0
16746,65.0,0,29,7.0,100.0
16747,70.0,0,59,2.0,56.0
16748,79.0,0,119,8.0,100.0
16749,79.0,0,119,0.0,90.0
16750,74.0,0,59,1.0,127.0
16751,62.0,0,29,5.0,100.0
16752,58.0,30,29,10.0,100.0
16753,79.0,0,119,4.0,100.0
16754,58.0,0,59,3.0,90.0
16755,60.0,0,29,10.0,100.0
16756,60.0,0,29,5.0,100.0
16757,64.0,0,29,7.0,100.0
16758,62.0,0,29,7.0,100.0
16759,58.0,30,29,5.0,100.0
16760,62.0,0,29,10.0,100.0
16761,57.0,0,29,5.0,100.0
16762,64.0,30,29,10.0,100.0
16763,81.0,30,119,4.0,100.0
16764,60.0,0,29,10.0,100.0
16765,64.0,0,59,2.0,56.0
16766,81.0,0,119,0.0,90.0
16767,60.0,0,59,7.0,100.0
16768,60.0,0,59,3.0,90.0
16769,81.0,0,119,6.0,100.0
16770,81.0,0,119,8.0,100.0
16771,72.0,0,59,1.0,127.0
16772,53.0,30,29,5.0,100.0
16773,79.0,0,29,4.0,100.0
16774,79.0,30,29,0.0,90.0
16775,79.0,0,29,6.0,100.0
16776,79.0,0,29,8.0,100.0
16777,62.0,0,59,7.0,100.0
16778,77.0,30,29,0.0,90.0
16779,77.0,0,29,8.0,100.0
16780,65.0,0,59,10.0,100.0
16781,62.0,0,59,3.0,90.0
16782,69.0,0,59,1.0,127.0
16783,65.0,0,59,2.0,56.0
16784,62.0,0,59,5.0,100.0
16785,77.0,0,29,4.0,100.0
16786,77.0,0,29,6.0,100.0
16787,81.0,0,29,8.0,100.0
16788,81.0,0,29,4.0,100.0
16789,81.0,0,29,6.0,100.0
16790,81.0,0,29,0.0,90.0
16791,79.0,0,29,8.0,100.0
16792,62.0,0,59,2.0,56.0
16793,58.0,30,59,5.0,100.0
16794,79.0,0,29,0.0,90.0
16795,79.0,30,29,4.0,100.0
16796,58.0,0,59,10.0,100.0
16797,58.0,0,59,3.0,90.0
16798,70.0,0,59,1.0,127.0
16799,58.0,0,59,7.0,100.0
16800,79.0,0,29,6.0,100.0
16801,77.0,0,29,6.0,100.0
16802,77.0,0,29,4.0,100.0
16803,77.0,0,29,0.0,90.0
16804,77.0,0,29,8.0,100.0
16805,60.0,30,59,10.0,100.0
16806,60.0,0,59,3.0,90.0
16807,60.0,0,59,7.0,100.0
16808,76.0,30,29,6.0,100.0
16809,60.0,0,59,2.0,56.0
16810,76.0,0,29,8.0,100.0
16811,67.0,0,59,1.0,127.0
16812,76.0,0,29,0.0,90.0
16813,60.0,0,59,5.0,100.0
16814,76.0,0,29,4.0,100.0
16815,53.0,0,29,5.0,100.0
16816,77.0,0,30,4.0,100.0
16817,60.0,0,59,2.0,56.0
16818,69.0,0,59,1.0,127.0
16819,53.0,0,59,10.0,100.0
16820,77.0,0,59,6.0,100.0
16821,77.0,0,59,0.0,90.0
16822,52.0,30,29,5.0,100.0
16823,53.0,30,59,3.0,90.0
16824,53.0,0,59,7.0,100.0
16825,77.0,0,60,8.0,110.0
16826,72.0,0,30,4.0,100.0
16827,53.0,0,29,5.0,100.0
16828,74.0,30,30,4.0,100.0
16829,55.0,30,29,5.0,100.0
16830,41.0,0,59,3.0,90.0
16831,76.0,0,30,4.0,100.0
16832,57.0,30,29,5.0,100.0
16833,77.0,0,30,4.0,100.0
16834,40.0,0,59,3.0,90.0
16835,59.0,0,29,5.0,100.0
16836,79.0,30,30,4.0,100.0
16837,60.0,0,29,5.0,100.0
16838,81.0,0,30,4.0,100.0
16839,62.0,0,29,5.0,100.0
16840,38.0,30,59,3.0,90.0
16841,83.0,30,30,4.0,100.0
16842,64.0,0,29,5.0,100.0
16843,84.0,0,30,4.0,100.0
16844,67.0,0,59,1.0,127.0
16845,48.0,0,59,10.0,100.0
16846,67.0,0,59,2.0,56.0
16847,67.0,0,59,6.0,100.0
16848,48.0,30,59,7.0,100.0
16849,67.0,30,29,5.0,100.0
16850,36.0,0,59,3.0,90.0
16851,67.0,0,59,8.0,100.0
16852,76.0,0,59,0.0,90.0
16853,64.0,0,59,6.0,100.0
16854,83.0,0,30,4.0,100.0
16855,65.0,0,29,5.0,100.0
16856,81.0,0,30,4.0,100.0
16857,60.0,0,59,7.0,100.0
16858,64.0,0,29,5.0,100.0
16859,36.0,0,59,10.0,100.0
16860,79.0,30,30,4.0,100.0
16861,62.0,0,29,5.0,100.0
16862,84.0,0,30,4.0,100.0
16863,65.0,0,59,6.0,100.0
16864,65.0,0,59,8.0,100.0
16865,62.0,0,59,7.0,100.0
16866,65.0,30,29,5.0,100.0
16867,72.0,0,119,1.0,127.0
16868,38.0,0,59,3.0,90.0
16869,74.0,0,59,0.0,90.0
16870,65.0,30,59,2.0,56.0
16871,38.0,0,59,10.0,100.0
16872,72.0,30,120,8.0,100.0
16873,72.0,0,120,6.0,100.0
16874,81.0,0,30,4.0,100.0
16875,64.0,0,29,5.0,100.0
16876,79.0,0,30,4.0,100.0
16877,71.0,0,59,1.0,127.0
16878,50.0,0,59,7.0,100.0
16879,71.0,0,59,8.0,100.0
16880,62.0,30,29,5.0,100.0
16881,50.0,30,59,10.0,100.0
16882,71.0,0,59,6.0,100.0
16883,77.0,0,30,4.0,100.0
16884,60.0,0,29,5.0,100.0
16885,84.0,0,30,4.0,100.0
16886,72.0,0,59,8.0,100.0
16887,64.0,0,29,5.0,100.0
16888,67.0,0,59,8.0,100.0
16889,52.0,0,59,10.0,100.0
16890,72.0,0,59,0.0,90.0
16891,40.0,30,59,3.0,90.0
16892,52.0,0,59,7.0,100.0
16893,67.0,0,59,6.0,100.0
16894,72.0,0,59,6.0,100.0
16895,64.0,0,59,2.0,56.0
16896,72.0,0,59,1.0,127.0
16897,79.0,30,30,4.0,100.0
16898,69.0,0,29,5.0,100.0
16899,77.0,30,30,4.0,100.0
16900,40.0,0,59,10.0,100.0
16901,64.0,0,59,7.0,100.0
16902,67.0,30,29,5.0,100.0
16903,76.0,0,30,4.0,100.0
16904,65.0,0,29,5.0,100.0
16905,84.0,0,30,4.0,100.0
16906,69.0,0,59,6.0,100.0
16907,41.0,0,59,10.0,100.0
16908,65.0,0,59,0.0,90.0
16909,69.0,30,59,8.0,100.0
16910,41.0,0,59,3.0,90.0
16911,62.0,0,59,2.0,56.0
16912,62.0,30,29,5.0,100.0
16913,74.0,0,119,1.0,127.0
16914,65.0,0,59,7.0,100.0
16915,74.0,0,120,8.0,100.0
16916,74.0,0,120,6.0,100.0
16917,77.0,0,30,4.0,100.0
16918,60.0,0,29,5.0,100.0
16919,76.0,0,30,4.0,100.0
16920,53.0,30,59,10.0,100.0
16921,53.0,0,59,7.0,100.0
16922,59.0,30,29,5.0,100.0
16923,74.0,0,30,4.0,100.0
16924,64.0,0,29,5.0,100.0
16925,84.0,0,30,4.0,100.0
16926,64.0,0,59,0.0,90.0
16927,67.0,0,59,6.0,100.0
16928,55.0,30,59,7.0,100.0
16929,43.0,0,59,3.0,90.0
16930,76.0,0,119,1.0,127.0
16931,55.0,0,59,2.0,56.0
16932,67.0,0,59,8.0,100.0
16933,55.0,30,29,5.0,100.0
16934,55.0,0,59,10.0,100.0
16935,76.0,0,120,8.0,100.0
16936,76.0,0,120,6.0,100.0
16937,76.0,0,30,4.0,100.0
16938,74.0,0,29,1.0,127.0
16939,53.0,0,29,5.0,100.0
16940,74.0,0,30,6.0,100.0
16941,74.0,0,30,4.0,100.0
16942,74.0,30,30,8.0,100.0
16943,52.0,0,29,5.0,100.0
16944,45.0,0,59,3.0,90.0
16945,57.0,0,59,7.0,100.0
16946,64.0,0,59,6.0,100.0
16947,72.0,0,29,1.0,127.0
16948,64.0,0,59,0.0,90.0
16949,64.0,0,59,8.0,100.0
16950,57.0,0,59,10.0,100.0
16951,60.0,0,59,2.0,56.0
16952,72.0,0,30,6.0,100.0
16953,72.0,30,30,4.0,100.0
16954,72.0,0,30,8.0,100.0
16955,76.0,0,29,1.0,127.0
16956,76.0,0,30,4.0,100.0
16957,76.0,0,30,6.0,100.0
16958,76.0,0,30,8.0,100.0
16959,41.0,30,59,3.0,90.0
16960,53.0,0,59,5.0,100.0
16961,53.0,0,59,7.0,100.0
16962,74.0,0,29,1.0,127.0
16963,53.0,0,59,10.0,100.0
16964,57.0,0,59,6.0,100.0
16965,62.0,0,59,0.0,90.0
16966,57.0,0,59,8.0,100.0
16967,57.0,0,59,2.0,56.0
16968,74.0,30,30,4.0,100.0
16969,74.0,0,30,8.0,100.0
16970,74.0,0,30,6.0,100.0
16971,72.0,0,29,1.0,127.0
16972,72.0,0,30,8.0,100.0
16973,72.0,0,30,6.0,100.0
16974,72.0,0,30,4.0,100.0
16975,62.0,0,59,8.0,100.0
16976,55.0,0,59,5.0,100.0
16977,43.0,0,59,3.0,90.0
16978,55.0,30,59,10.0,100.0
16979,65.0,0,59,0.0,90.0
16980,55.0,0,59,2.0,56.0
16981,71.0,0,29,1.0,127.0
16982,55.0,0,59,7.0,100.0
16983,62.0,0,59,6.0,100.0
16984,71.0,0,30,6.0,100.0
16985,71.0,0,30,4.0,100.0
16986,71.0,30,30,8.0,100.0
16987,60.0,30,14,4.0,100.0
16988,67.0,15,14,4.0,100.0
16989,69.0,15,14,4.0,100.0
16990,71.0,15,14,4.0,100.0
16991,48.0,0,59,10.0,100.0
16992,64.0,0,59,0.0,90.0
16993,55.0,0,59,2.0,56.0
16994,72.0,0,59,1.0,127.0
16995,72.0,0,59,4.0,100.0
16996,48.0,0,59,3.0,90.0
16997,48.0,0,59,7.0,100.0
16998,64.0,0,59,6.0,100.0
16999,72.0,0,59,6.0,100.0
17000,72.0,0,60,8.0,100.0
17001,64.0,0,60,8.0,100.0
17002,72.0,15,14,4.0,100.0
17003,74.0,15,14,4.0,100.0
17004,76.0,15,14,4.0,100.0
17005,77.0,15,14,4.0,100.0
17006,76.0,15,14,4.0,100.0
17007,74.0,15,14,4.0,100.0
17008,72.0,15,14,4.0,100.0
17009,70.0,15,14,4.0,100.0
17010,69.0,15,14,4.0,100.0
17011,67.0,15,14,4.0,100.0
17012,66.0,15,14,4.0,100.0
17013,64.0,15,14,4.0,100.0
17014,62.0,0,29,5.0,100.0
17015,84.0,0,29,4.0,100.0
17016,69.0,30,29,5.0,100.0
17017,78.0,0,29,4.0,100.0
17018,42.0,0,59,3.0,90.0
17019,42.0,0,59,10.0,100.0
17020,74.0,0,59,6.0,100.0
17021,62.0,0,59,8.0,100.0
17022,69.0,0,59,2.0,56.0
17023,74.0,0,59,1.0,127.0
17024,69.0,0,59,8.0,100.0
17025,54.0,0,59,7.0,100.0
17026,69.0,15,59,6.0,100.0
17027,74.0,0,59,0.0,90.0
17028,67.0,0,29,5.0,100.0
17029,76.0,0,29,4.0,100.0
17030,54.0,0,59,7.0,100.0
17031,74.0,0,59,6.0,100.0
17032,74.0,0,59,1.0,127.0
17033,69.0,30,59,2.0,56.0
17034,62.0,0,59,8.0,100.0
17035,69.0,0,59,8.0,100.0
17036,69.0,0,59,6.0,100.0
17037,66.0,30,29,5.0,100.0
17038,42.0,0,59,3.0,90.0
17039,74.0,0,29,4.0,100.0
17040,42.0,0,59,10.0,100.0
17041,84.0,0,29,4.0,100.0
17042,62.0,0,29,5.0,100.0
17043,81.0,0,119,0.0,90.0
17044,69.0,0,59,2.0,56.0
17045,69.0,30,29,5.0,100.0
17046,78.0,0,29,4.0,100.0
17047,42.0,0,59,10.0,100.0
17048,54.0,0,59,7.0,100.0
17049,74.0,0,59,1.0,127.0
17050,42.0,0,59,3.0,90.0
17051,74.0,30,59,6.0,100.0
17052,69.0,0,59,6.0,100.0
17053,69.0,0,59,8.0,100.0
17054,62.0,0,59,8.0,100.0
17055,76.0,0,29,4.0,100.0
17056,67.0,0,29,5.0,100.0
17057,66.0,30,29,5.0,100.0
17058,42.0,0,59,3.0,90.0
17059,69.0,0,59,8.0,100.0
17060,62.0,0,59,8.0,100.0
17061,84.0,0,59,0.0,90.0
17062,69.0,0,59,2.0,56.0
17063,74.0,0,29,4.0,100.0
17064,69.0,0,59,6.0,100.0
17065,74.0,0,59,6.0,100.0
17066,74.0,0,59,1.0,127.0
17067,54.0,30,59,7.0,100.0
17068,42.0,0,59,10.0,100.0
17069,55.0,0,14,6.0,100.0
17070,74.0,0,29,6.0,100.0
17071,70.0,0,29,6.0,100.0
17072,66.0,15,14,6.0,100.0
17073,67.0,15,14,6.0,100.0
17074,70.0,0,59,8.0,100.0
17075,67.0,0,59,8.0,100.0
17076,82.0,0,59,0.0,90.0
17077,69.0,15,14,6.0,100.0
17078,67.0,0,59,2.0,56.0
17079,43.0,0,59,10.0,100.0
17080,74.0,0,59,1.0,127.0
17081,67.0,0,59,5.0,100.0
17082,55.0,30,59,5.0,100.0
17083,43.0,0,59,3.0,90.0
17084,82.0,0,59,4.0,100.0
17085,70.0,15,14,6.0,100.0
17086,72.0,15,14,6.0,100.0
17087,74.0,15,14,6.0,100.0
17088,75.0,15,14,6.0,100.0
17089,74.0,15,14,6.0,100.0
17090,72.0,15,14,6.0,100.0
17091,70.0,15,14,6.0,100.0
17092,69.0,15,14,6.0,100.0
17093,67.0,15,14,6.0,100.0
17094,65.0,15,14,6.0,100.0
17095,64.0,15,14,6.0,100.0
17096,62.0,15,14,6.0,100.0
17097,82.0,0,29,6.0,100.0
17098,60.0,0,29,7.0,100.0
17099,67.0,0,29,7.0,100.0
17100,67.0,0,59,4.0,100.0
17101,72.0,0,59,1.0,127.0
17102,76.0,30,29,6.0,100.0
17103,40.0,0,59,10.0,100.0
17104,67.0,0,59,2.0,56.0
17105,72.0,0,59,4.0,100.0
17106,40.0,0,59,3.0,90.0
17107,72.0,15,59,0.0,90.0
17108,52.0,0,59,5.0,100.0
17109,60.0,0,59,8.0,100.0
17110,67.0,0,59,8.0,100.0
17111,65.0,0,29,7.0,100.0
17112,74.0,0,29,6.0,100.0
17113,64.0,30,29,7.0,100.0
17114,67.0,0,59,2.0,56.0
17115,67.0,0,59,8.0,100.0
17116,72.0,0,59,4.0,100.0
17117,67.0,30,59,4.0,100.0
17118,60.0,0,59,8.0,100.0
17119,72.0,0,29,6.0,100.0
17120,40.0,0,59,3.0,90.0
17121,52.0,0,59,5.0,100.0
17122,40.0,0,59,10.0,100.0
17123,72.0,0,59,1.0,127.0
17124,60.0,0,29,7.0,100.0
17125,82.0,0,29,6.0,100.0
17126,52.0,0,59,5.0,100.0
17127,40.0,0,59,3.0,90.0
17128,72.0,0,59,1.0,127.0
17129,79.0,0,119,0.0,90.0
17130,67.0,30,29,7.0,100.0
17131,67.0,30,59,4.0,100.0
17132,72.0,0,59,4.0,100.0
17133,40.0,0,59,10.0,100.0
17134,76.0,0,29,6.0,100.0
17135,67.0,0,59,2.0,56.0
17136,67.0,0,59,8.0,100.0
17137,60.0,0,59,8.0,100.0
17138,65.0,0,29,7.0,100.0
17139,74.0,0,29,6.0,100.0
17140,67.0,0,59,2.0,56.0
17141,72.0,0,29,6.0,100.0
17142,72.0,0,59,1.0,127.0
17143,67.0,0,59,8.0,100.0
17144,40.0,0,59,10.0,100.0
17145,82.0,0,59,0.0,90.0
17146,52.0,30,59,5.0,100.0
17147,60.0,0,59,8.0,100.0
17148,72.0,0,59,4.0,100.0
17149,67.0,0,59,4.0,100.0
17150,40.0,0,59,3.0,90.0
17151,64.0,30,29,7.0,100.0
17152,41.0,0,14,10.0,100.0
17153,60.0,15,14,8.0,100.0
17154,65.0,0,29,8.0,100.0
17155,69.0,0,29,8.0,100.0
17156,62.0,15,14,8.0,100.0
17157,69.0,0,59,4.0,100.0
17158,64.0,15,14,8.0,100.0
17159,81.0,0,59,0.0,90.0
17160,65.0,30,59,2.0,56.0
17161,41.0,0,59,3.0,90.0
17162,65.0,0,59,6.0,100.0
17163,81.0,0,59,6.0,100.0
17164,53.0,0,59,5.0,100.0
17165,53.0,0,59,7.0,100.0
17166,72.0,0,59,4.0,100.0
17167,72.0,0,59,1.0,127.0
17168,65.0,15,14,8.0,100.0
17169,67.0,15,14,8.0,100.0
17170,69.0,15,14,8.0,100.0
17171,70.0,15,14,8.0,100.0
17172,69.0,15,14,8.0,100.0
17173,65.0,15,14,8.0,100.0
17174,64.0,15,14,8.0,100.0
17175,62.0,15,14,8.0,100.0
17176,60.0,15,14,8.0,100.0
17177,59.0,15,14,8.0,100.0
17178,57.0,15,14,8.0,100.0
17179,55.0,15,14,8.0,100.0
17180,72.0,0,29,4.0,100.0
17181,53.0,0,29,10.0,100.0
17182,81.0,0,29,8.0,100.0
17183,81.0,0,59,0.0,90.0
17184,51.0,0,59,7.0,100.0
17185,69.0,0,29,4.0,100.0
17186,72.0,0,59,6.0,100.0
17187,65.0,15,59,6.0,100.0
17188,51.0,0,59,5.0,100.0
17189,51.0,0,59,3.0,90.0
17190,65.0,0,59,2.0,56.0
17191,57.0,0,29,10.0,100.0
17192,72.0,0,59,1.0,127.0
17193,72.0,30,29,8.0,100.0
17194,58.0,0,29,10.0,100.0
17195,70.0,0,29,8.0,100.0
17196,67.0,0,29,4.0,100.0
17197,65.0,30,59,6.0,100.0
17198,51.0,0,59,3.0,90.0
17199,72.0,0,59,6.0,100.0
17200,51.0,0,59,5.0,100.0
17201,51.0,0,59,7.0,100.0
17202,65.0,0,29,4.0,100.0
17203,69.0,0,29,8.0,100.0
17204,60.0,30,29,10.0,100.0
17205,72.0,30,29,4.0,100.0
17206,51.0,0,29,10.0,100.0
17207,79.0,0,29,8.0,100.0
17208,72.0,0,29,8.0,100.0
17209,57.0,0,29,10.0,100.0
17210,51.0,0,59,3.0,90.0
17211,51.0,0,59,5.0,100.0
17212,67.0,0,59,2.0,56.0
17213,51.0,0,59,7.0,100.0
17214,75.0,30,29,4.0,100.0
17215,79.0,0,59,0.0,90.0
17216,72.0,0,59,1.0,127.0
17217,72.0,0,59,6.0,100.0
17218,67.0,0,59,6.0,100.0
17219,58.0,0,29,10.0,100.0
17220,74.0,0,29,4.0,100.0
17221,70.0,0,29,8.0,100.0
17222,72.0,0,59,6.0,100.0
17223,51.0,0,59,5.0,100.0
17224,67.0,30,59,6.0,100.0
17225,69.0,0,29,8.0,100.0
17226,72.0,0,29,4.0,100.0
17227,51.0,0,59,3.0,90.0
17228,60.0,30,29,10.0,100.0
17229,74.0,0,29,6.0,100.0
17230,50.0,0,29,7.0,100.0
17231,78.0,30,29,8.0,100.0
17232,50.0,0,59,10.0,100.0
17233,78.0,0,59,4.0,100.0
17234,74.0,0,59,1.0,127.0
17235,69.0,0,59,2.0,56.0
17236,72.0,0,29,8.0,100.0
17237,69.0,30,29,6.0,100.0
17238,54.0,0,29,7.0,100.0
17239,78.0,0,59,0.0,90.0
17240,81.0,0,59,4.0,100.0
17241,50.0,0,59,3.0,90.0
17242,50.0,0,59,5.0,100.0
17243,72.0,0,59,4.0,100.0
17244,55.0,0,29,7.0,100.0
17245,67.0,30,29,6.0,100.0
17246,70.0,0,29,8.0,100.0
17247,50.0,0,59,10.0,100.0
17248,57.0,0,29,7.0,100.0
17249,50.0,0,59,3.0,90.0
17250,66.0,30,29,6.0,100.0
17251,50.0,0,59,5.0,100.0
17252,69.0,0,29,8.0,100.0
17253,78.0,30,29,8.0,100.0
17254,75.0,0,29,6.0,100.0
17255,48.0,0,29,7.0,100.0
17256,54.0,30,29,7.0,100.0
17257,69.0,0,29,6.0,100.0
17258,48.0,0,59,3.0,90.0
17259,48.0,0,59,10.0,100.0
17260,72.0,0,29,8.0,100.0
17261,48.0,0,59,5.0,100.0
17262,55.0,0,29,7.0,100.0
17263,67.0,0,29,6.0,100.0
17264,70.0,30,29,8.0,100.0
17265,69.0,0,29,8.0,100.0
17266,48.0,0,59,10.0,100.0
17267,57.0,30,29,7.0,100.0
17268,48.0,0,59,5.0,100.0
17269,48.0,0,59,3.0,90.0
17270,66.0,0,29,6.0,100.0
17271,77.0,0,29,4.0,100.0
17272,47.0,0,29,5.0,100.0
17273,67.0,30,29,8.0,100.0
17274,74.0,0,29,6.0,100.0
17275,47.0,0,59,3.0,90.0
17276,47.0,0,59,10.0,100.0
17277,50.0,0,29,5.0,100.0
17278,74.0,0,59,1.0,127.0
17279,77.0,0,29,8.0,100.0
17280,79.0,0,59,0.0,90.0
17281,67.0,0,59,2.0,56.0
17282,47.0,0,59,7.0,100.0
17283,83.0,0,29,4.0,100.0
17284,68.0,30,29,6.0,100.0
17285,67.0,30,29,6.0,100.0
17286,84.0,0,29,4.0,100.0
17287,52.0,0,29,5.0,100.0
17288,76.0,0,29,8.0,100.0
17289,53.0,0,29,5.0,100.0
17290,74.0,30,29,8.0,100.0
17291,65.0,0,29,6.0,100.0
17292,47.0,0,59,3.0,90.0
17293,47.0,0,59,10.0,100.0
17294,47.0,0,59,7.0,100.0
17295,86.0,0,29,4.0,100.0
17296,55.0,0,29,5.0,100.0
17297,77.0,0,29,4.0,100.0
17298,74.0,0,29,6.0,100.0
17299,67.0,0,29,8.0,100.0
17300,47.0,0,59,7.0,100.0
17301,68.0,0,29,6.0,100.0
17302,47.0,30,59,10.0,100.0
17303,77.0,0,59,0.0,90.0
17304,74.0,0,59,1.0,127.0
17305,67.0,0,59,2.0,56.0
17306,53.0,0,29,5.0,100.0
17307,47.0,0,59,3.0,90.0
17308,83.0,30,29,4.0,100.0
17309,74.0,0,29,8.0,100.0
17310,72.0,0,29,8.0,100.0
17311,52.0,0,29,5.0,100.0
17312,67.0,0,29,6.0,100.0
17313,84.0,0,29,4.0,100.0
17314,47.0,0,59,7.0,100.0
17315,71.0,30,29,8.0,100.0
17316,50.0,0,29,5.0,100.0
17317,47.0,30,59,10.0,100.0
17318,65.0,0,29,6.0,100.0
17319,86.0,0,29,4.0,100.0
17320,47.0,0,59,3.0,90.0
17321,48.0,0,14,5.0,100.0
17322,55.0,15,14,5.0,100.0
17323,57.0,15,14,5.0,100.0
17324,79.0,0,59,8.0,100.0
17325,76.0,0,59,0.0,90.0
17326,48.0,30,59,10.0,100.0
17327,67.0,0,59,6.0,100.0
17328,76.0,0,59,8.0,100.0
17329,72.0,0,59,6.0,100.0
17330,64.0,0,59,6.0,100.0
17331,72.0,0,59,1.0,127.0
17332,48.0,0,59,7.0,100.0
17333,76.0,0,59,4.0,100.0
17334,48.0,0,59,3.0,90.0
17335,59.0,15,14,5.0,100.0
17336,67.0,0,59,2.0,56.0
17337,60.0,15,14,4.0,100.0
17338,62.0,15,14,4.0,100.0
17339,64.0,15,14,4.0,100.0
17340,48.0,0,59,7.0,100.0
17341,48.0,0,59,10.0,100.0
17342,62.0,15,14,4.0,100.0
17343,48.0,0,59,3.0,90.0
17344,64.0,15,14,4.0,100.0
17345,65.0,15,14,4.0,100.0
17346,67.0,15,14,4.0,100.0
17347,46.0,0,59,3.0,90.0
17348,46.0,0,59,10.0,100.0
17349,46.0,0,59,7.0,100.0
17350,69.0,15,14,4.0,100.0
17351,70.0,0,14,4.0,100.0
17352,72.0,15,14,4.0,100.0
17353,74.0,15,14,4.0,100.0
17354,46.0,0,59,10.0,100.0
17355,76.0,15,14,4.0,100.0
17356,46.0,15,59,3.0,90.0
17357,46.0,0,59,7.0,100.0
17358,57.0,0,29,5.0,100.0
17359,77.0,0,29,4.0,100.0
17360,72.0,0,29,6.0,100.0
17361,77.0,15,29,8.0,100.0
17362,45.0,0,59,10.0,100.0
17363,69.0,0,59,2.0,56.0
17364,77.0,0,59,0.0,90.0
17365,72.0,0,59,1.0,127.0
17366,45.0,0,59,3.0,90.0
17367,69.0,0,29,6.0,100.0
17368,72.0,0,29,8.0,100.0
17369,45.0,0,59,7.0,100.0
17370,81.0,30,29,4.0,100.0
17371,65.0,0,29,5.0,100.0
17372,67.0,0,29,6.0,100.0
17373,67.0,30,29,5.0,100.0
17374,71.0,0,29,8.0,100.0
17375,83.0,0,29,4.0,100.0
17376,69.0,0,29,8.0,100.0
17377,45.0,0,59,7.0,100.0
17378,84.0,0,29,4.0,100.0
17379,69.0,30,29,5.0,100.0
17380,65.0,0,29,6.0,100.0
17381,45.0,0,59,10.0,100.0
17382,45.0,0,59,3.0,90.0
17383,76.0,30,29,4.0,100.0
17384,67.0,0,29,5.0,100.0
17385,72.0,0,29,6.0,100.0
17386,67.0,0,29,8.0,100.0
17387,76.0,0,59,0.0,90.0
17388,57.0,0,59,7.0,100.0
17389,76.0,0,29,8.0,100.0
17390,57.0,0,59,10.0,100.0
17391,72.0,0,59,1.0,127.0
17392,57.0,0,59,3.0,90.0
17393,64.0,0,29,5.0,100.0
17394,67.0,0,59,2.0,56.0
17395,67.0,0,29,6.0,100.0
17396,81.0,30,29,4.0,100.0
17397,75.0,0,29,8.0,100.0
17398,66.0,0,29,6.0,100.0
17399,69.0,30,29,5.0,100.0
17400,83.0,0,29,4.0,100.0
17401,67.0,0,29,5.0,100.0
17402,57.0,0,59,7.0,100.0
17403,64.0,30,29,6.0,100.0
17404,57.0,0,59,3.0,90.0
17405,76.0,0,29,8.0,100.0
17406,57.0,0,59,10.0,100.0
17407,84.0,0,29,4.0,100.0
17408,75.0,30,14,4.0,100.0
17409,84.0,15,14,4.0,100.0
17410,83.0,15,14,4.0,100.0
17411,81.0,15,14,4.0,100.0
17412,75.0,0,59,0.0,90.0
17413,57.0,0,59,3.0,90.0
17414,71.0,0,59,1.0,127.0
17415,57.0,0,59,7.0,100.0
17416,71.0,0,59,6.0,100.0
17417,66.0,0,59,6.0,100.0
17418,63.0,0,59,6.0,100.0
17419,66.0,0,59,2.0,56.0
17420,66.0,0,59,5.0,100.0
17421,78.0,0,59,8.0,100.0
17422,57.0,0,59,10.0,100.0
17423,63.0,0,59,8.0,100.0
17424,57.0,0,59,5.0,100.0
17425,66.0,0,59,8.0,100.0
17426,57.0,0,59,3.0,90.0
17427,83.0,15,89,4.0,100.0
17428,71.0,0,59,8.0,100.0
17429,64.0,0,59,8.0,100.0
17430,74.0,0,59,0.0,90.0
17431,71.0,0,59,1.0,127.0
17432,64.0,60,59,2.0,56.0
17433,56.0,0,59,7.0,100.0
17434,56.0,0,59,10.0,100.0
17435,56.0,0,59,5.0,100.0
17436,56.0,0,59,3.0,90.0
17437,77.0,30,29,4.0,100.0
17438,76.0,30,29,4.0,100.0
17439,64.0,0,59,6.0,100.0
17440,71.0,0,59,6.0,100.0
17441,56.0,0,59,3.0,90.0
17442,74.0,30,29,4.0,100.0
17443,59.0,0,59,5.0,100.0
17444,73.0,0,14,4.0,100.0
17445,82.0,15,14,4.0,100.0
17446,81.0,15,14,4.0,100.0
17447,64.0,0,59,6.0,100.0
17448,55.0,0,59,7.0,100.0
17449,73.0,0,59,0.0,90.0
17450,76.0,0,59,6.0,100.0
17451,73.0,0,59,6.0,100.0
17452,69.0,0,59,6.0,100.0
17453,55.0,0,59,3.0,90.0
17454,55.0,0,59,10.0,100.0
17455,64.0,30,59,2.0,56.0
17456,79.0,15,14,4.0,100.0
17457,64.0,0,59,5.0,100.0
17458,69.0,0,59,1.0,127.0
17459,55.0,0,59,3.0,90.0
17460,61.0,15,59,8.0,100.0
17461,55.0,0,59,5.0,100.0
17462,64.0,0,59,8.0,100.0
17463,81.0,0,89,4.0,100.0
17464,69.0,0,59,1.0,127.0
17465,54.0,0,59,7.0,100.0
17466,54.0,0,59,3.0,90.0
17467,54.0,0,59,5.0,100.0
17468,54.0,0,59,10.0,100.0
17469,75.0,30,29,4.0,100.0
17470,72.0,60,59,0.0,90.0
17471,62.0,0,59,2.0,56.0
17472,62.0,0,59,8.0,100.0
17473,69.0,0,59,8.0,100.0
17474,74.0,0,29,4.0,100.0
17475,72.0,30,29,4.0,100.0
17476,57.0,0,59,5.0,100.0
17477,62.0,0,59,6.0,100.0
17478,69.0,30,59,6.0,100.0
17479,54.0,0,59,3.0,90.0
17480,62.0,0,14,4.0,100.0
17481,67.0,15,14,4.0,100.0
17482,71.0,30,29,4.0,100.0
17483,69.0,15,14,4.0,100.0
17484,74.0,0,59,6.0,100.0
17485,71.0,0,59,6.0,100.0
17486,71.0,15,14,4.0,100.0
17487,62.0,0,59,6.0,100.0
17488,53.0,0,59,3.0,90.0
17489,71.0,0,59,0.0,90.0
17490,53.0,0,59,7.0,100.0
17491,67.0,0,59,1.0,127.0
17492,67.0,0,59,6.0,100.0
17493,53.0,0,59,10.0,100.0
17494,62.0,0,59,2.0,56.0
17495,72.0,15,14,4.0,100.0
17496,74.0,15,14,4.0,100.0
17497,76.0,15,14,4.0,100.0
17498,53.0,0,59,3.0,90.0
17499,62.0,0,59,8.0,100.0
17500,59.0,0,59,8.0,100.0
17501,77.0,15,14,4.0,100.0
17502,79.0,0,14,4.0,100.0
17503,81.0,15,14,4.0,100.0
17504,79.0,15,14,4.0,100.0
17505,52.0,0,59,7.0,100.0
17506,60.0,0,59,8.0,100.0
17507,67.0,0,59,8.0,100.0
17508,67.0,15,59,1.0,127.0
17509,52.0,0,59,3.0,90.0
17510,52.0,0,59,10.0,100.0
17511,60.0,0,59,2.0,56.0
17512,70.0,0,59,0.0,90.0
17513,77.0,15,14,4.0,100.0
17514,76.0,0,14,4.0,100.0
17515,74.0,15,14,4.0,100.0
17516,72.0,15,14,4.0,100.0
17517,71.0,15,14,4.0,100.0
17518,60.0,0,59,6.0,100.0
17519,67.0,15,59,6.0,100.0
17520,52.0,0,59,3.0,90.0
17521,69.0,0,14,4.0,100.0
17522,66.0,15,14,4.0,100.0
17523,68.0,15,14,4.0,100.0
17524,66.0,0,59,1.0,127.0
17525,51.0,0,59,7.0,100.0
17526,60.0,0,59,6.0,100.0
17527,69.0,15,14,4.0,100.0
17528,51.0,0,59,3.0,90.0
17529,66.0,15,59,6.0,100.0
17530,69.0,0,59,6.0,100.0
17531,72.0,0,59,6.0,100.0
17532,60.0,0,59,2.0,56.0
17533,69.0,0,59,0.0,90.0
17534,51.0,0,59,10.0,100.0
17535,71.0,0,14,4.0,100.0
17536,72.0,15,14,4.0,100.0
17537,74.0,15,14,4.0,100.0
17538,76.0,15,14,4.0,100.0
17539,57.0,0,59,8.0,100.0
17540,51.0,15,59,3.0,90.0
17541,60.0,0,59,8.0,100.0
17542,77.0,0,14,4.0,100.0
17543,79.0,15,14,4.0,100.0
17544,77.0,15,14,4.0,100.0
17545,50.0,0,59,3.0,90.0
17546,70.0,0,59,0.0,90.0
17547,65.0,0,59,8.0,100.0
17548,62.0,0,59,8.0,100.0
17549,62.0,0,59,2.0,56.0
17550,65.0,15,59,1.0,127.0
17551,50.0,0,59,10.0,100.0
17552,50.0,0,59,7.0,100.0
17553,76.0,15,14,4.0,100.0
17554,74.0,0,14,4.0,100.0
17555,72.0,15,14,4.0,100.0
17556,70.0,15,14,4.0,100.0
17557,50.0,15,59,3.0,90.0
17558,65.0,0,59,6.0,100.0
17559,69.0,15,14,4.0,100.0
17560,74.0,0,59,6.0,100.0
17561,68.0,15,14,4.0,100.0
17562,64.0,15,14,4.0,100.0
17563,66.0,15,14,4.0,100.0
17564,59.0,0,59,8.0,100.0
17565,50.0,0,59,3.0,90.0
17566,64.0,0,59,8.0,100.0
17567,68.0,0,59,0.0,90.0
17568,68.0,15,14,4.0,100.0
17569,48.0,0,59,10.0,100.0
17570,56.0,0,59,8.0,100.0
17571,64.0,0,59,6.0,100.0
17572,50.0,0,59,7.0,100.0
17573,71.0,0,59,6.0,100.0
17574,64.0,0,59,1.0,127.0
17575,59.0,0,59,2.0,56.0
17576,69.0,15,14,4.0,100.0
17577,71.0,15,14,4.0,100.0
17578,72.0,15,14,4.0,100.0
17579,74.0,15,14,4.0,100.0
17580,76.0,15,14,4.0,100.0
17581,77.0,15,14,4.0,100.0
17582,76.0,15,14,4.0,100.0
17583,74.0,15,14,4.0,100.0
17584,72.0,15,14,4.0,100.0
17585,71.0,15,14,4.0,100.0
17586,69.0,15,14,4.0,100.0
17587,68.0,15,14,4.0,100.0
17588,69.0,0,29,4.0,100.0
17589,48.0,0,59,10.0,100.0
17590,52.0,0,29,5.0,100.0
17591,72.0,15,59,1.0,127.0
17592,68.0,30,29,4.0,100.0
17593,57.0,0,59,2.0,56.0
17594,69.0,0,59,6.0,100.0
17595,76.0,0,59,6.0,100.0
17596,48.0,0,59,3.0,90.0
17597,69.0,0,59,8.0,100.0
17598,76.0,0,59,8.0,100.0
17599,60.0,0,59,7.0,100.0
17600,76.0,0,59,0.0,90.0
17601,66.0,0,29,4.0,100.0
17602,50.0,30,29,5.0,100.0
17603,48.0,0,59,7.0,100.0
17604,64.0,30,29,4.0,100.0
17605,48.0,0,29,5.0,100.0
17606,60.0,0,59,10.0,100.0
17607,47.0,0,29,5.0,100.0
17608,69.0,0,29,4.0,100.0
17609,47.0,0,59,3.0,90.0
17610,65.0,30,29,4.0,100.0
17611,65.0,0,59,2.0,56.0
17612,71.0,0,59,1.0,127.0
17613,74.0,30,59,6.0,100.0
17614,81.0,0,119,6.0,100.0
17615,81.0,0,119,8.0,100.0
17616,74.0,0,59,8.0,100.0
17617,81.0,0,119,0.0,90.0
17618,50.0,0,29,5.0,100.0
17619,59.0,0,59,10.0,100.0
17620,47.0,0,59,7.0,100.0
17621,48.0,0,29,5.0,100.0
17622,64.0,0,29,4.0,100.0
17623,62.0,30,29,4.0,100.0
17624,80.0,0,59,6.0,100.0
17625,80.0,30,59,8.0,100.0
17626,59.0,0,59,7.0,100.0
17627,47.0,0,59,10.0,100.0
17628,47.0,0,29,5.0,100.0
17629,80.0,0,59,0.0,90.0
17630,69.0,0,29,4.0,100.0
17631,45.0,0,29,5.0,100.0
17632,69.0,0,59,1.0,127.0
17633,64.0,0,29,4.0,100.0
17634,60.0,0,59,7.0,100.0
17635,81.0,30,59,0.0,90.0
17636,48.0,0,59,3.0,90.0
17637,64.0,0,59,2.0,56.0
17638,48.0,0,59,10.0,100.0
17639,48.0,30,29,5.0,100.0
17640,81.0,0,59,8.0,100.0
17641,76.0,0,59,8.0,100.0
17642,81.0,0,59,6.0,100.0
17643,76.0,0,59,6.0,100.0
17644,53.0,0,29,5.0,100.0
17645,62.0,0,29,4.0,100.0
17646,60.0,30,29,4.0,100.0
17647,60.0,0,59,10.0,100.0
17648,48.0,0,59,7.0,100.0
17649,52.0,0,29,5.0,100.0
17650,69.0,0,29,4.0,100.0
17651,50.0,0,29,5.0,100.0
17652,83.0,0,119,6.0,100.0
17653,62.0,30,29,4.0,100.0
17654,77.0,0,59,6.0,100.0
17655,83.0,0,119,0.0,90.0
17656,77.0,0,59,1.0,127.0
17657,83.0,30,119,8.0,100.0
17658,50.0,0,59,7.0,100.0
17659,50.0,30,59,3.0,90.0
17660,69.0,0,59,2.0,56.0
17661,47.0,0,29,5.0,100.0
17662,62.0,0,59,10.0,100.0
17663,77.0,0,59,8.0,100.0
17664,57.0,30,29,5.0,100.0
17665,60.0,0,29,4.0,100.0
17666,62.0,0,59,7.0,100.0
17667,56.0,0,29,5.0,100.0
17668,59.0,30,29,4.0,100.0
17669,50.0,0,59,10.0,100.0
17670,52.0,0,29,5.0,100.0
17671,69.0,0,29,4.0,100.0
17672,64.0,30,29,4.0,100.0
17673,64.0,0,59,2.0,56.0
17674,74.0,0,59,1.0,127.0
17675,76.0,0,59,6.0,100.0
17676,84.0,0,119,6.0,100.0
17677,52.0,0,59,3.0,90.0
17678,64.0,0,59,7.0,100.0
17679,52.0,0,59,10.0,100.0
17680,57.0,0,29,5.0,100.0
17681,84.0,0,119,0.0,90.0
17682,84.0,0,119,8.0,100.0
17683,76.0,30,59,8.0,100.0
17684,83.0,0,29,0.0,90.0
17685,83.0,0,29,8.0,100.0
17686,83.0,0,29,6.0,100.0
17687,53.0,0,29,5.0,100.0
17688,62.0,30,29,4.0,100.0
17689,81.0,30,29,0.0,90.0
17690,53.0,0,59,10.0,100.0
17691,57.0,0,59,2.0,56.0
17692,57.0,0,29,5.0,100.0
17693,77.0,0,59,1.0,127.0
17694,81.0,0,29,6.0,100.0
17695,60.0,0,29,4.0,100.0
17696,81.0,0,29,8.0,100.0
17697,65.0,0,59,7.0,100.0
17698,53.0,0,59,3.0,90.0
17699,84.0,0,29,0.0,90.0
17700,84.0,30,29,8.0,100.0
17701,84.0,0,29,6.0,100.0
17702,64.0,0,29,4.0,100.0
17703,83.0,0,29,0.0,90.0
17704,62.0,0,59,7.0,100.0
17705,83.0,0,29,6.0,100.0
17706,50.0,0,59,5.0,100.0
17707,50.0,0,59,10.0,100.0
17708,83.0,30,29,8.0,100.0
17709,50.0,0,59,3.0,90.0
17710,57.0,0,59,2.0,56.0
17711,62.0,0,29,4.0,100.0
17712,77.0,0,59,1.0,127.0
17713,81.0,0,29,6.0,100.0
17714,81.0,30,29,0.0,90.0
17715,60.0,0,29,4.0,100.0
17716,81.0,0,29,8.0,100.0
17717,52.0,0,59,3.0,90.0
17718,64.0,0,59,2.0,56.0
17719,52.0,0,59,10.0,100.0
17720,80.0,0,29,0.0,90.0
17721,64.0,0,59,7.0,100.0
17722,52.0,0,59,5.0,100.0
17723,76.0,0,59,1.0,127.0
17724,80.0,0,29,6.0,100.0
17725,80.0,30,29,8.0,100.0
17726,59.0,0,29,4.0,100.0
17727,81.0,30,19,8.0,100.0
17728,81.0,0,19,6.0,100.0
17729,53.0,0,29,5.0,100.0
17730,57.0,0,29,4.0,100.0
17731,82.0,20,19,6.0,100.0
17732,82.0,0,19,8.0,100.0
17733,53.0,0,59,7.0,100.0
17734,53.0,0,59,10.0,100.0
17735,60.0,10,29,4.0,100.0
17736,72.0,0,59,1.0,127.0
17737,52.0,0,29,5.0,100.0
17738,81.0,0,19,8.0,100.0
17739,81.0,10,19,6.0,100.0
17740,69.0,0,59,2.0,56.0
17741,53.0,0,59,3.0,90.0
17742,82.0,0,14,8.0,100.0
17743,82.0,20,14,6.0,100.0
17744,81.0,0,14,8.0,100.0
17745,81.0,15,14,6.0,100.0
17746,59.0,0,29,4.0,100.0
17747,50.0,0,29,5.0,100.0
17748,82.0,15,14,6.0,100.0
17749,82.0,0,14,8.0,100.0
17750,81.0,15,14,8.0,100.0
17751,48.0,0,29,5.0,100.0
17752,81.0,0,14,6.0,100.0
17753,57.0,0,29,4.0,100.0
17754,82.0,15,14,6.0,100.0
17755,82.0,0,14,8.0,100.0
17756,81.0,15,14,6.0,100.0
17757,81.0,0,14,8.0,100.0
17758,65.0,0,29,4.0,100.0
17759,50.0,0,29,5.0,100.0
17760,82.0,0,14,6.0,100.0
17761,82.0,0,14,8.0,100.0
17762,62.0,0,59,7.0,100.0
17763,81.0,15,14,6.0,100.0
17764,53.0,15,29,5.0,100.0
17765,50.0,0,59,3.0,90.0
17766,50.0,0,59,10.0,100.0
17767,62.0,0,29,4.0,100.0
17768,65.0,0,59,2.0,56.0
17769,81.0,0,14,8.0,100.0
17770,74.0,0,59,1.0,127.0
17771,82.0,0,14,6.0,100.0
17772,82.0,1,14,8.0,100.0
17773,60.0,0,29,4.0,100.0
17774,52.0,15,29,5.0,100.0
17775,81.0,15,14,8.0,100.0
17776,81.0,0,14,6.0,100.0
17777,82.0,0,14,8.0,100.0
17778,82.0,1,14,6.0,100.0
17779,50.0,14,29,5.0,100.0
17780,59.0,0,29,4.0,100.0
17781,81.0,15,14,6.0,100.0
17782,81.0,0,14,8.0,100.0
17783,82.0,2,14,6.0,100.0
17784,82.0,0,14,8.0,100.0
17785,64.0,0,29,4.0,100.0
17786,48.0,0,29,5.0,100.0
17787,81.0,0,14,6.0,100.0
17788,81.0,15,14,8.0,100.0
17789,82.0,2,14,8.0,100.0
17790,82.0,0,14,6.0,100.0
17791,60.0,13,29,4.0,100.0
17792,52.0,0,29,5.0,100.0
17793,48.0,0,59,10.0,100.0
17794,60.0,0,59,7.0,100.0
17795,76.0,14,59,1.0,127.0
17796,48.0,0,59,3.0,90.0
17797,69.0,0,59,2.0,56.0
17798,81.0,15,14,8.0,100.0
17799,81.0,0,14,6.0,100.0
17800,82.0,0,14,6.0,100.0
17801,82.0,3,14,8.0,100.0
17802,50.0,13,29,5.0,100.0
17803,59.0,0,29,4.0,100.0
17804,81.0,15,14,6.0,100.0
17805,81.0,0,14,8.0,100.0
17806,82.0,3,14,8.0,100.0
17807,82.0,0,14,6.0,100.0
17808,48.0,0,29,5.0,100.0
17809,57.0,12,29,4.0,100.0
17810,81.0,15,14,6.0,100.0
17811,81.0,0,14,8.0,100.0
17812,82.0,4,14,8.0,100.0
17813,82.0,0,14,6.0,100.0
17814,62.0,0,29,4.0,100.0
17815,47.0,12,29,5.0,100.0
17816,81.0,15,14,6.0,100.0
17817,81.0,0,14,8.0,100.0
17818,82.0,0,14,6.0,100.0
17819,82.0,4,14,8.0,100.0
17820,47.0,0,59,3.0,90.0
17821,77.0,0,59,1.0,127.0
17822,47.0,0,59,10.0,100.0
17823,62.0,0,59,2.0,56.0
17824,59.0,0,59,7.0,100.0
17825,52.0,11,29,5.0,100.0
17826,60.0,0,29,4.0,100.0
17827,81.0,0,14,6.0,100.0
17828,81.0,15,14,8.0,100.0
17829,82.0,0,14,6.0,100.0
17830,82.0,5,14,8.0,100.0
17831,50.0,11,29,5.0,100.0
17832,59.0,0,29,4.0,100.0
17833,81.0,0,14,8.0,100.0
17834,81.0,15,14,6.0,100.0
17835,82.0,0,14,8.0,100.0
17836,82.0,5,14,6.0,100.0
17837,52.0,10,29,5.0,100.0
17838,57.0,0,29,4.0,100.0
17839,81.0,0,14,6.0,100.0
17840,81.0,15,14,8.0,100.0
17841,82.0,0,14,8.0,100.0
17842,82.0,0,14,6.0,100.0
17843,64.0,0,29,4.0,100.0
17844,81.0,0,14,6.0,100.0
17845,48.0,0,29,5.0,100.0
17846,81.0,15,14,8.0,100.0
17847,82.0,15,14,6.0,100.0
17848,82.0,0,14,8.0,100.0
17849,60.0,0,59,7.0,100.0
17850,76.0,0,59,1.0,127.0
17851,60.0,0,29,4.0,100.0
17852,48.0,10,59,10.0,100.0
17853,69.0,0,59,2.0,56.0
17854,48.0,0,59,3.0,90.0
17855,81.0,15,14,6.0,100.0
17856,81.0,0,14,8.0,100.0
17857,52.0,0,29,5.0,100.0
17858,82.0,1,14,8.0,100.0
17859,82.0,0,14,6.0,100.0
17860,59.0,15,29,4.0,100.0
17861,50.0,0,29,5.0,100.0
17862,81.0,0,14,6.0,100.0
17863,81.0,15,14,8.0,100.0
17864,82.0,0,14,8.0,100.0
17865,82.0,1,14,6.0,100.0
17866,57.0,0,29,4.0,100.0
17867,48.0,14,29,5.0,100.0
17868,81.0,15,14,6.0,100.0
17869,81.0,0,14,8.0,100.0
17870,82.0,0,14,6.0,100.0
17871,82.0,2,14,8.0,100.0
17872,65.0,0,29,4.0,100.0
17873,50.0,0,29,5.0,100.0
17874,81.0,0,14,6.0,100.0
17875,81.0,15,14,8.0,100.0
17876,82.0,2,14,8.0,100.0
17877,82.0,0,14,6.0,100.0
17878,62.0,13,29,4.0,100.0
17879,74.0,0,59,1.0,127.0
17880,62.0,0,59,7.0,100.0
17881,65.0,0,59,2.0,56.0
17882,53.0,0,29,5.0,100.0
17883,50.0,0,59,3.0,90.0
17884,50.0,14,59,10.0,100.0
17885,81.0,15,14,6.0,100.0
17886,81.0,0,14,8.0,100.0
17887,82.0,0,14,6.0,100.0
17888,82.0,3,14,8.0,100.0
17889,60.0,13,29,4.0,100.0
17890,52.0,0,29,5.0,100.0
17891,81.0,15,14,8.0,100.0
17892,81.0,0,14,6.0,100.0
17893,82.0,3,14,6.0,100.0
17894,82.0,0,14,8.0,100.0
17895,59.0,12,29,4.0,100.0
17896,50.0,0,29,5.0,100.0
17897,81.0,15,14,6.0,100.0
17898,81.0,0,14,8.0,100.0
17899,82.0,0,14,6.0,100.0
17900,82.0,4,14,8.0,100.0
17901,48.0,0,29,5.0,100.0
17902,64.0,12,29,4.0,100.0
17903,81.0,15,14,6.0,100.0
17904,81.0,0,14,8.0,100.0
17905,82.0,0,14,8.0,100.0
17906,82.0,4,14,6.0,100.0
17907,60.0,0,59,7.0,100.0
17908,60.0,0,29,4.0,100.0
17909,76.0,0,59,1.0,127.0
17910,48.0,0,59,3.0,90.0
17911,52.0,11,29,5.0,100.0
17912,48.0,0,59,10.0,100.0
17913,69.0,0,59,2.0,56.0
17914,81.0,15,14,6.0,100.0
17915,81.0,0,14,8.0,100.0
17916,82.0,5,14,8.0,100.0
17917,82.0,0,14,6.0,100.0
17918,50.0,11,29,5.0,100.0
17919,59.0,0,29,4.0,100.0
17920,81.0,0,14,8.0,100.0
17921,81.0,15,14,6.0,100.0
17922,82.0,5,14,6.0,100.0
17923,82.0,0,14,8.0,100.0
17924,57.0,0,29,4.0,100.0
17925,48.0,10,29,5.0,100.0
17926,81.0,15,14,6.0,100.0
17927,81.0,0,14,8.0,100.0
17928,82.0,0,14,8.0,100.0
17929,82.0,10,14,6.0,100.0
17930,62.0,0,29,4.0,100.0
17931,81.0,0,14,6.0,100.0
17932,81.0,15,14,8.0,100.0
17933,47.0,0,29,5.0,100.0
17934,82.0,0,14,8.0,100.0
17935,82.0,0,14,6.0,100.0
17936,77.0,0,59,1.0,127.0
17937,81.0,15,14,8.0,100.0
17938,52.0,15,29,5.0,100.0
17939,47.0,0,59,3.0,90.0
17940,81.0,0,14,6.0,100.0
17941,62.0,0,59,2.0,56.0
17942,60.0,0,29,4.0,100.0
17943,47.0,0,59,10.0,100.0
17944,59.0,0,59,7.0,100.0
17945,82.0,15,20,6.0,100.0
17946,82.0,0,20,8.0,100.0
17947,50.0,0,29,5.0,100.0
17948,59.0,0,29,4.0,100.0
17949,81.0,20,20,6.0,100.0
17950,81.0,0,20,8.0,100.0
17951,52.0,0,29,5.0,100.0
17952,57.0,10,29,4.0,100.0
17953,82.0,0,20,8.0,100.0
17954,82.0,10,20,6.0,100.0
17955,81.0,0,29,8.0,100.0
17956,64.0,0,29,4.0,100.0
17957,56.0,30,29,4.0,100.0
17958,76.0,0,59,1.0,127.0
17959,48.0,0,59,3.0,90.0
17960,48.0,0,59,5.0,100.0
17961,81.0,0,59,6.0,100.0
17962,60.0,0,59,7.0,100.0
17963,48.0,0,59,10.0,100.0
17964,69.0,20,59,2.0,56.0
17965,76.0,0,29,8.0,100.0
17966,81.0,0,1020,0.0,100.0
17967,57.0,0,29,4.0,100.0
17968,77.0,0,29,8.0,100.0
17969,83.0,0,59,6.0,100.0
17970,50.0,0,59,5.0,100.0
17971,65.0,0,29,4.0,100.0
17972,62.0,0,59,2.0,56.0
17973,50.0,0,59,10.0,100.0
17974,50.0,30,59,3.0,90.0
17975,62.0,0,59,7.0,100.0
17976,74.0,30,29,8.0,100.0
17977,83.0,0,59,0.0,90.0
17978,77.0,0,59,1.0,127.0
17979,68.0,0,29,8.0,100.0
17980,76.0,30,59,6.0,100.0
17981,59.0,0,59,2.0,56.0
17982,76.0,0,59,1.0,127.0
17983,52.0,0,59,3.0,90.0
17984,52.0,0,59,10.0,100.0
17985,64.0,0,59,7.0,100.0
17986,76.0,0,59,0.0,90.0
17987,52.0,0,59,5.0,100.0
17988,71.0,30,29,8.0,100.0
17989,59.0,0,89,4.0,100.0
17990,74.0,0,29,8.0,100.0
17991,80.0,0,59,6.0,100.0
17992,57.0,30,29,4.0,100.0
17993,52.0,0,59,7.0,100.0
17994,76.0,0,29,8.0,100.0
17995,74.0,0,59,1.0,127.0
17996,64.0,0,59,2.0,56.0
17997,80.0,30,59,0.0,90.0
17998,40.0,0,59,3.0,90.0
17999,40.0,0,59,10.0,100.0
18000,40.0,0,59,5.0,100.0
18001,72.0,0,29,8.0,100.0
18002,64.0,0,59,2.0,56.0
18003,45.0,30,59,5.0,100.0
18004,45.0,0,59,10.0,100.0
18005,72.0,0,59,1.0,127.0
18006,57.0,0,59,7.0,100.0
18007,81.0,0,59,6.0,100.0
18008,81.0,0,59,0.0,90.0
18009,57.0,0,59,4.0,100.0
18010,68.0,30,29,8.0,100.0
18011,69.0,30,29,8.0,100.0
18012,48.0,0,59,10.0,100.0
18013,64.0,30,29,8.0,100.0
18014,45.0,0,119,3.0,90.0
18015,65.0,0,29,8.0,100.0
18016,62.0,30,29,8.0,100.0
18017,50.0,30,59,10.0,100.0
18018,60.0,30,29,8.0,100.0
18019,59.0,30,29,8.0,100.0
18020,56.0,0,59,10.0,100.0
18021,69.0,0,29,8.0,100.0
18022,64.0,30,29,8.0,100.0
18023,57.0,0,59,10.0,100.0
18024,60.0,0,60,8.0,100.0
18025,65.0,30,29,8.0,100.0
18026,45.0,0,29,10.0,100.0
18027,62.0,0,29,8.0,100.0
18028,45.0,30,119,3.0,90.0
18029,47.0,30,29,10.0,100.0
18030,64.0,30,29,8.0,100.0
18031,48.0,0,59,10.0,100.0
18032,60.0,30,29,8.0,100.0
18033,59.0,0,29,8.0,100.0
18034,57.0,30,29,8.0,100.0
18035,50.0,30,59,10.0,100.0
18036,52.0,0,29,10.0,100.0
18037,60.0,0,29,8.0,100.0
18038,64.0,0,29,8.0,100.0
18039,57.0,30,29,10.0,100.0
18040,45.0,30,59,3.0,90.0
18041,69.0,30,29,8.0,100.0
18042,60.0,0,29,10.0,100.0
18043,59.0,0,29,10.0,100.0
18044,47.0,0,59,3.0,90.0
18045,68.0,30,29,8.0,100.0
18046,69.0,0,29,8.0,100.0
18047,52.0,30,29,10.0,100.0
18048,48.0,0,59,3.0,90.0
18049,72.0,30,29,8.0,100.0
18050,57.0,0,29,10.0,100.0
18051,71.0,30,29,8.0,100.0
18052,62.0,0,29,10.0,100.0
18053,60.0,30,29,10.0,100.0
18054,50.0,0,59,3.0,90.0
18055,69.0,0,29,8.0,100.0
18056,68.0,0,29,8.0,100.0
18057,59.0,30,59,10.0,100.0
18058,74.0,30,29,8.0,100.0
18059,76.0,30,29,8.0,100.0
18060,56.0,0,59,10.0,100.0
18061,52.0,0,119,3.0,90.0
18062,71.0,30,29,8.0,100.0
18063,72.0,0,29,8.0,100.0
18064,57.0,30,59,10.0,100.0
18065,69.0,30,29,8.0,100.0
18066,68.0,30,29,8.0,100.0
18067,66.0,30,29,8.0,100.0
18068,63.0,0,59,10.0,100.0
18069,76.0,0,29,8.0,100.0
18070,64.0,30,59,10.0,100.0
18071,71.0,30,29,8.0,100.0
18072,68.0,0,60,8.0,100.0
18073,52.0,30,29,10.0,100.0
18074,72.0,0,29,8.0,100.0
18075,52.0,0,119,3.0,90.0
18076,54.0,0,29,10.0,100.0
18077,69.0,30,29,8.0,100.0
18078,71.0,30,29,8.0,100.0
18079,68.0,30,29,8.0,100.0
18080,56.0,0,59,10.0,100.0
18081,66.0,0,29,8.0,100.0
18082,64.0,30,29,8.0,100.0
18083,57.0,30,59,10.0,100.0
18084,59.0,0,29,10.0,100.0
18085,68.0,0,29,8.0,100.0
18086,62.0,0,29,10.0,100.0
18087,71.0,30,29,8.0,100.0
18088,52.0,30,59,3.0,90.0
18089,74.0,30,29,8.0,100.0
18090,65.0,0,29,10.0,100.0
18091,62.0,30,29,10.0,100.0
18092,77.0,0,29,8.0,100.0
18093,47.0,0,59,3.0,90.0
18094,76.0,0,29,8.0,100.0
18095,59.0,0,29,10.0,100.0
18096,44.0,30,59,3.0,90.0
18097,64.0,0,29,10.0,100.0
18098,74.0,30,29,8.0,100.0
18099,68.0,30,29,10.0,100.0
18100,72.0,0,29,8.0,100.0
18101,64.0,30,29,10.0,100.0
18102,71.0,0,29,8.0,100.0
18103,40.0,0,59,3.0,90.0
18104,72.0,0,29,8.0,100.0
18105,76.0,30,29,8.0,100.0
18106,57.0,30,59,10.0,100.0
18107,69.0,0,29,8.0,100.0
18108,45.0,0,119,3.0,90.0
18109,71.0,30,29,8.0,100.0
18110,60.0,30,59,10.0,100.0
18111,72.0,30,29,8.0,100.0
18112,64.0,0,59,10.0,100.0
18113,74.0,30,29,8.0,100.0
18114,76.0,0,29,8.0,100.0
18115,77.0,30,29,8.0,100.0
18116,62.0,30,59,10.0,100.0
18117,79.0,0,29,8.0,100.0
18118,77.0,30,29,8.0,100.0
18119,61.0,0,59,10.0,100.0
18120,79.0,30,29,8.0,100.0
18121,57.0,0,59,10.0,100.0
18122,45.0,30,119,3.0,90.0
18123,74.0,30,29,8.0,100.0
18124,76.0,0,29,8.0,100.0
18125,61.0,30,59,10.0,100.0
18126,73.0,30,29,8.0,100.0
18127,71.0,0,29,8.0,100.0
18128,69.0,30,29,8.0,100.0
18129,64.0,30,59,10.0,100.0
18130,82.0,30,29,8.0,100.0
18131,67.0,0,59,10.0,100.0
18132,76.0,30,29,8.0,100.0
18133,77.0,0,29,8.0,100.0
18134,69.0,30,59,10.0,100.0
18135,45.0,0,119,3.0,90.0
18136,74.0,30,29,8.0,100.0
18137,76.0,0,29,8.0,100.0
18138,67.0,30,59,10.0,100.0
18139,73.0,30,29,8.0,100.0
18140,71.0,30,29,8.0,100.0
18141,69.0,30,29,8.0,100.0
18142,65.0,0,59,10.0,100.0
18143,73.0,0,29,8.0,100.0
18144,64.0,0,29,10.0,100.0
18145,67.0,30,29,10.0,100.0
18146,76.0,0,29,8.0,100.0
18147,57.0,30,59,3.0,90.0
18148,70.0,0,29,10.0,100.0
18149,79.0,0,29,8.0,100.0
18150,52.0,30,59,3.0,90.0
18151,67.0,30,29,10.0,100.0
18152,82.0,0,29,8.0,100.0
18153,64.0,0,29,10.0,100.0
18154,81.0,30,29,8.0,100.0
18155,79.0,30,29,8.0,100.0
18156,49.0,0,59,3.0,90.0
18157,69.0,0,29,10.0,100.0
18158,73.0,0,29,10.0,100.0
18159,77.0,0,29,8.0,100.0
18160,76.0,0,29,8.0,100.0
18161,69.0,30,29,10.0,100.0
18162,45.0,30,59,3.0,90.0
18163,77.0,0,29,8.0,100.0
18164,73.0,30,29,8.0,100.0
18165,62.0,30,59,10.0,100.0
18166,74.0,30,29,8.0,100.0
18167,65.0,0,59,10.0,100.0
18168,69.0,30,29,8.0,100.0
18169,50.0,0,119,3.0,90.0
18170,70.0,0,29,8.0,100.0
18171,55.0,30,59,10.0,100.0
18172,67.0,30,29,8.0,100.0
18173,66.0,0,29,8.0,100.0
18174,67.0,30,29,8.0,100.0
18175,58.0,30,59,10.0,100.0
18176,75.0,30,29,8.0,100.0
18177,70.0,30,29,8.0,100.0
18178,54.0,0,59,10.0,100.0
18179,72.0,0,29,8.0,100.0
18180,57.0,30,59,10.0,100.0
18181,67.0,30,29,8.0,100.0
18182,50.0,0,119,3.0,90.0
18183,69.0,30,29,8.0,100.0
18184,66.0,30,29,8.0,100.0
18185,62.0,0,59,10.0,100.0
18186,64.0,0,29,8.0,100.0
18187,60.0,30,59,10.0,100.0
18188,66.0,30,29,8.0,100.0
18189,74.0,0,29,8.0,100.0
18190,69.0,30,29,8.0,100.0
18191,58.0,30,59,10.0,100.0
18192,70.0,30,29,8.0,100.0
18193,66.0,30,29,8.0,100.0
18194,62.0,0,59,10.0,100.0
18195,50.0,0,119,3.0,90.0
18196,67.0,0,29,8.0,100.0
18197,58.0,30,59,10.0,100.0
18198,63.0,30,29,8.0,100.0
18199,62.0,0,29,8.0,100.0
18200,55.0,30,59,10.0,100.0
18201,63.0,30,29,8.0,100.0
18202,72.0,0,29,8.0,100.0
18203,54.0,30,59,10.0,100.0
18204,67.0,30,29,8.0,100.0
18205,69.0,30,29,8.0,100.0
18206,64.0,30,29,8.0,100.0
18207,60.0,0,59,10.0,100.0
18208,50.0,0,119,3.0,90.0
18209,66.0,30,29,8.0,100.0
18210,62.0,30,29,8.0,100.0
18211,57.0,0,59,10.0,100.0
18212,61.0,0,29,8.0,100.0
18213,54.0,30,59,10.0,100.0
18214,62.0,30,29,8.0,100.0
18215,50.0,30,29,10.0,100.0
18216,66.0,0,29,8.0,100.0
18217,69.0,30,29,8.0,100.0
18218,54.0,0,29,10.0,100.0
18219,72.0,30,29,8.0,100.0
18220,57.0,0,29,10.0,100.0
18221,75.0,30,29,8.0,100.0
18222,50.0,0,59,3.0,90.0
18223,60.0,0,29,10.0,100.0
18224,58.0,0,29,10.0,100.0
18225,74.0,30,29,8.0,100.0
18226,72.0,30,29,8.0,100.0
18227,57.0,0,29,10.0,100.0
18228,50.0,0,59,3.0,90.0
18229,70.0,0,29,8.0,100.0
18230,55.0,0,29,10.0,100.0
18231,50.0,30,59,3.0,90.0
18232,69.0,0,29,8.0,100.0
18233,54.0,30,29,10.0,100.0
18234,55.0,0,29,10.0,100.0
18235,70.0,30,29,8.0,100.0
18236,67.0,30,29,8.0,100.0
18237,50.0,0,29,10.0,100.0
18238,55.0,0,29,10.0,100.0
18239,70.0,30,29,8.0,100.0
18240,58.0,30,29,10.0,100.0
18241,74.0,0,29,8.0,100.0
18242,55.0,0,59,3.0,90.0
18243,70.0,0,29,8.0,100.0
18244,62.0,0,29,10.0,100.0
18245,55.0,30,59,3.0,90.0
18246,67.0,30,29,8.0,100.0
18247,58.0,0,29,10.0,100.0
18248,70.0,0,29,8.0,100.0
18249,55.0,30,29,10.0,100.0
18250,55.0,0,59,3.0,90.0
18251,65.0,30,29,8.0,100.0
18252,58.0,0,29,10.0,100.0
18253,48.0,30,29,10.0,100.0
18254,64.0,0,29,8.0,100.0
18255,52.0,30,29,10.0,100.0
18256,67.0,0,29,8.0,100.0
18257,55.0,30,29,10.0,100.0
18258,70.0,0,29,8.0,100.0
18259,58.0,0,29,10.0,100.0
18260,48.0,0,59,3.0,90.0
18261,74.0,30,29,8.0,100.0
18262,57.0,0,29,10.0,100.0
18263,72.0,30,29,8.0,100.0
18264,70.0,0,29,8.0,100.0
18265,48.0,0,59,3.0,90.0
18266,55.0,30,29,10.0,100.0
18267,69.0,0,29,8.0,100.0
18268,53.0,30,29,10.0,100.0
18269,48.0,0,59,3.0,90.0
18270,52.0,0,29,10.0,100.0
18271,67.0,30,29,8.0,100.0
18272,57.0,30,29,10.0,100.0
18273,69.0,0,29,8.0,100.0
18274,65.0,0,29,8.0,100.0
18275,48.0,30,29,10.0,100.0
18276,53.0,30,29,10.0,100.0
18277,69.0,0,29,8.0,100.0
18278,57.0,30,29,10.0,100.0
18279,53.0,0,59,3.0,90.0
18280,72.0,0,29,8.0,100.0
18281,69.0,0,29,8.0,100.0
18282,60.0,30,29,10.0,100.0
18283,53.0,0,59,3.0,90.0
18284,65.0,0,29,8.0,100.0
18285,57.0,30,29,10.0,100.0
18286,69.0,30,29,8.0,100.0
18287,53.0,0,29,10.0,100.0
18288,57.0,0,29,10.0,100.0
18289,53.0,0,59,3.0,90.0
18290,63.0,30,29,8.0,100.0
18291,46.0,0,29,10.0,100.0
18292,62.0,30,59,8.0,100.0
18293,53.0,30,29,10.0,100.0
18294,74.0,0,29,8.0,100.0
18295,58.0,0,29,10.0,100.0
18296,46.0,30,59,3.0,90.0
18297,60.0,30,29,10.0,100.0
18298,75.0,0,29,8.0,100.0
18299,62.0,0,29,10.0,100.0
18300,77.0,30,59,8.0,100.0
18301,46.0,0,59,3.0,90.0
18302,63.0,30,29,10.0,100.0
18303,62.0,0,29,10.0,100.0
18304,63.0,30,29,10.0,100.0
18305,46.0,0,59,3.0,90.0
18306,62.0,30,29,10.0,100.0
18307,63.0,30,29,10.0,100.0
18308,78.0,30,119,8.0,100.0
18309,62.0,0,29,10.0,100.0
18310,79.0,0,59,8.0,100.0
18311,60.0,30,29,10.0,100.0
18312,47.0,30,59,3.0,90.0
18313,59.0,0,29,10.0,100.0
18314,47.0,30,59,3.0,90.0
18315,62.0,30,29,10.0,100.0
18316,67.0,0,59,8.0,100.0
18317,55.0,0,29,10.0,100.0
18318,59.0,30,29,10.0,100.0
18319,47.0,30,59,3.0,90.0
18320,48.0,30,29,10.0,100.0
18321,77.0,0,119,8.0,100.0
18322,55.0,30,29,10.0,100.0
18323,60.0,30,29,10.0,100.0
18324,76.0,0,29,8.0,100.0
18325,77.0,30,29,8.0,100.0
18326,62.0,0,29,10.0,100.0
18327,48.0,0,59,3.0,90.0
18328,64.0,0,29,10.0,100.0
18329,48.0,0,59,3.0,90.0
18330,65.0,30,29,10.0,100.0
18331,79.0,30,59,8.0,100.0
18332,64.0,0,29,10.0,100.0
18333,48.0,0,59,3.0,90.0
18334,65.0,30,29,10.0,100.0
18335,64.0,30,29,10.0,100.0
18336,80.0,30,119,8.0,100.0
18337,65.0,30,29,10.0,100.0
18338,64.0,30,29,10.0,100.0
18339,62.0,30,29,10.0,100.0
18340,81.0,0,59,8.0,100.0
18341,49.0,0,59,3.0,90.0
18342,61.0,0,29,10.0,100.0
18343,49.0,30,59,3.0,90.0
18344,69.0,0,59,8.0,100.0
18345,64.0,30,29,10.0,100.0
18346,57.0,0,29,10.0,100.0
18347,61.0,30,29,10.0,100.0
18348,79.0,0,59,8.0,100.0
18349,49.0,30,59,3.0,90.0
18350,77.0,0,29,8.0,100.0
18351,50.0,30,29,10.0,100.0
18352,82.0,30,14,8.0,100.0
18353,81.0,15,14,8.0,100.0
18354,62.0,0,29,10.0,100.0
18355,50.0,0,59,3.0,90.0
18356,82.0,0,29,8.0,100.0
18357,55.0,15,29,10.0,100.0
18358,74.0,30,29,8.0,100.0
18359,58.0,0,29,10.0,100.0
18360,76.0,30,29,8.0,100.0
18361,48.0,0,29,10.0,100.0
18362,47.0,0,59,3.0,90.0
18363,60.0,0,29,10.0,100.0
18364,72.0,30,29,8.0,100.0
18365,53.0,30,29,10.0,100.0
18366,57.0,30,29,10.0,100.0
18367,81.0,0,89,8.0,100.0
18368,46.0,0,29,10.0,100.0
18369,79.0,30,14,8.0,100.0
18370,58.0,0,29,10.0,100.0
18371,46.0,30,59,3.0,90.0
18372,78.0,15,14,8.0,100.0
18373,52.0,15,29,10.0,100.0
18374,79.0,0,29,8.0,100.0
18375,70.0,0,29,8.0,100.0
18376,55.0,30,29,10.0,100.0
18377,72.0,30,29,8.0,100.0
18378,45.0,0,29,10.0,100.0
18379,57.0,0,29,10.0,100.0
18380,69.0,30,29,8.0,100.0
18381,45.0,0,59,3.0,90.0
18382,50.0,0,29,10.0,100.0
18383,53.0,30,29,10.0,100.0
18384,77.0,30,89,8.0,100.0
18385,43.0,0,29,10.0,100.0
18386,75.0,0,14,8.0,100.0
18387,43.0,30,59,3.0,90.0
18388,74.0,15,14,8.0,100.0
18389,55.0,30,29,10.0,100.0
18390,48.0,15,29,10.0,100.0
18391,75.0,0,29,8.0,100.0
18392,51.0,30,29,10.0,100.0
18393,67.0,0,29,8.0,100.0
18394,41.0,30,29,10.0,100.0
18395,69.0,0,29,8.0,100.0
18396,41.0,0,59,3.0,90.0
18397,53.0,0,29,10.0,100.0
18398,65.0,30,29,8.0,100.0
18399,46.0,0,29,10.0,100.0
18400,50.0,30,29,10.0,100.0
18401,40.0,0,29,10.0,100.0
18402,74.0,30,89,8.0,100.0
18403,73.0,0,14,8.0,100.0
18404,52.0,30,29,10.0,100.0
18405,40.0,30,59,3.0,90.0
18406,71.0,15,14,8.0,100.0
18407,45.0,15,29,10.0,100.0
18408,73.0,0,29,8.0,100.0
18409,49.0,30,29,10.0,100.0
18410,67.0,0,29,8.0,100.0
18411,65.0,30,29,8.0,100.0
18412,38.0,0,29,10.0,100.0
18413,41.0,30,29,10.0,100.0
18414,38.0,0,59,3.0,90.0
18415,74.0,0,29,8.0,100.0
18416,68.0,30,29,8.0,100.0
18417,40.0,0,29,10.0,100.0
18418,69.0,30,29,8.0,100.0
18419,38.0,0,29,10.0,100.0
18420,64.0,30,29,8.0,100.0
18421,73.0,30,29,8.0,100.0
18422,45.0,0,59,10.0,100.0
18423,68.0,0,29,8.0,100.0
18424,49.0,30,59,10.0,100.0
18425,69.0,30,29,8.0,100.0
18426,62.0,30,29,8.0,100.0
18427,50.0,0,59,10.0,100.0
18428,77.0,30,29,8.0,100.0
18429,68.0,30,29,8.0,100.0
18430,69.0,30,29,8.0,100.0
18431,53.0,0,59,10.0,100.0
18432,61.0,30,29,8.0,100.0
18433,57.0,0,59,10.0,100.0
18434,76.0,30,29,8.0,100.0
18435,45.0,0,300,3.0,90.0
18436,68.0,0,29,8.0,100.0
18437,47.0,0,59,3.0,90.0
18438,52.0,30,59,10.0,100.0
18439,69.0,30,29,8.0,100.0
18440,64.0,0,29,8.0,100.0
18441,49.0,30,59,3.0,90.0
18442,70.0,30,29,8.0,100.0
18443,49.0,0,59,10.0,100.0
18444,69.0,0,29,8.0,100.0
18445,45.0,0,59,3.0,90.0
18446,45.0,30,59,10.0,100.0
18447,67.0,30,29,8.0,100.0
18448,50.0,0,29,10.0,100.0
18449,57.0,0,59,0.0,90.0
18450,65.0,0,59,8.0,100.0
18451,57.0,0,59,6.0,100.0
18452,53.0,0,29,10.0,100.0
18453,50.0,30,59,3.0,90.0
18454,50.0,30,29,7.0,100.0
18455,52.0,30,29,7.0,100.0
18456,53.0,30,29,7.0,100.0
18457,57.0,0,89,10.0,100.0
18458,45.0,0,29,7.0,100.0
18459,52.0,30,29,7.0,100.0
18460,62.0,0,119,6.0,100.0
18461,64.0,30,59,8.0,100.0
18462,45.0,0,59,3.0,90.0
18463,55.0,0,29,10.0,100.0
18464,62.0,0,119,0.0,90.0
18465,53.0,0,29,7.0,100.0
18466,53.0,0,29,10.0,100.0
18467,61.0,30,59,0.0,90.0
18468,61.0,0,59,6.0,100.0
18469,55.0,30,29,7.0,100.0
18470,52.0,0,29,10.0,100.0
18471,53.0,0,29,10.0,100.0
18472,45.0,0,29,7.0,100.0
18473,53.0,0,29,7.0,100.0
18474,62.0,0,59,6.0,100.0
18475,41.0,30,59,3.0,90.0
18476,62.0,0,59,0.0,90.0
18477,57.0,0,59,1.0,127.0
18478,50.0,30,29,10.0,100.0
18479,57.0,0,59,8.0,100.0
18480,52.0,30,29,10.0,100.0
18481,55.0,0,29,7.0,100.0
18482,53.0,0,29,10.0,100.0
18483,57.0,30,29,7.0,100.0
18484,45.0,0,29,7.0,100.0
18485,45.0,0,29,10.0,100.0
18486,45.0,30,59,3.0,90.0
18487,62.0,0,119,1.0,127.0
18488,64.0,0,59,0.0,90.0
18489,55.0,0,29,7.0,100.0
18490,62.0,0,119,8.0,100.0
18491,52.0,30,29,10.0,100.0
18492,64.0,0,59,6.0,100.0
18493,53.0,0,29,10.0,100.0
18494,57.0,0,29,7.0,100.0
18495,55.0,30,29,10.0,100.0
18496,58.0,0,29,7.0,100.0
18497,61.0,30,59,8.0,100.0
18498,61.0,0,59,1.0,127.0
18499,45.0,30,29,7.0,100.0
18500,45.0,0,29,10.0,100.0
18501,57.0,30,29,7.0,100.0
18502,38.0,0,59,3.0,90.0
18503,65.0,0,59,0.0,90.0
18504,62.0,0,59,1.0,127.0
18505,53.0,0,29,10.0,100.0
18506,65.0,0,59,6.0,100.0
18507,62.0,0,59,8.0,100.0
18508,64.0,0,29,6.0,100.0
18509,55.0,30,29,7.0,100.0
18510,64.0,0,29,0.0,90.0
18511,55.0,0,29,10.0,100.0
18512,62.0,0,29,0.0,90.0
18513,53.0,30,29,7.0,100.0
18514,57.0,0,29,10.0,100.0
18515,62.0,0,29,6.0,100.0
18516,61.0,0,29,6.0,100.0
18517,45.0,0,29,10.0,100.0
18518,61.0,0,29,0.0,90.0
18519,45.0,0,29,7.0,100.0
18520,45.0,30,59,3.0,90.0
18521,64.0,0,59,8.0,100.0
18522,64.0,0,29,0.0,90.0
18523,64.0,0,59,1.0,127.0
18524,55.0,0,29,7.0,100.0
18525,55.0,0,29,10.0,100.0
18526,64.0,30,29,6.0,100.0
18527,62.0,0,29,6.0,100.0
18528,62.0,0,29,0.0,90.0
18529,53.0,30,29,7.0,100.0
18530,57.0,0,29,10.0,100.0
18531,52.0,0,29,7.0,100.0
18532,61.0,0,29,0.0,90.0
18533,61.0,30,29,6.0,100.0
18534,58.0,0,29,10.0,100.0
18535,45.0,0,29,10.0,100.0
18536,50.0,0,29,7.0,100.0
18537,59.0,30,29,7.0,100.0
18538,65.0,0,59,1.0,127.0
18539,41.0,0,59,3.0,90.0
18540,62.0,30,59,0.0,90.0
18541,57.0,0,29,10.0,100.0
18542,65.0,0,59,8.0,100.0
18543,62.0,0,59,6.0,100.0
18544,64.0,0,29,1.0,127.0
18545,64.0,0,29,8.0,100.0
18546,61.0,0,29,7.0,100.0
18547,55.0,30,29,10.0,100.0
18548,62.0,0,29,7.0,100.0
18549,53.0,0,29,10.0,100.0
18550,62.0,30,29,8.0,100.0
18551,62.0,0,29,1.0,127.0
18552,61.0,30,29,1.0,127.0
18553,45.0,0,29,10.0,100.0
18554,61.0,0,29,8.0,100.0
18555,57.0,0,29,7.0,100.0
18556,45.0,0,59,3.0,90.0
18557,64.0,0,29,8.0,100.0
18558,61.0,0,29,7.0,100.0
18559,64.0,30,29,1.0,127.0
18560,69.0,0,119,0.0,90.0
18561,69.0,0,119,6.0,100.0
18562,55.0,0,29,10.0,100.0
18563,53.0,0,29,10.0,100.0
18564,62.0,0,29,8.0,100.0
18565,62.0,0,29,1.0,127.0
18566,62.0,30,29,7.0,100.0
18567,52.0,0,29,10.0,100.0
18568,61.0,30,29,1.0,127.0
18569,67.0,0,59,6.0,100.0
18570,67.0,0,59,0.0,90.0
18571,61.0,0,29,8.0,100.0
18572,64.0,0,29,7.0,100.0
18573,50.0,0,29,10.0,100.0
18574,57.0,30,29,7.0,100.0
18575,50.0,0,59,3.0,90.0
18576,53.0,30,29,7.0,100.0
18577,62.0,0,59,1.0,127.0
18578,65.0,0,59,6.0,100.0
18579,59.0,0,29,10.0,100.0
18580,62.0,0,59,8.0,100.0
18581,65.0,0,59,0.0,90.0
18582,52.0,0,29,7.0,100.0
18583,61.0,0,29,10.0,100.0
18584,62.0,30,29,10.0,100.0
18585,50.0,0,29,7.0,100.0
18586,57.0,0,29,10.0,100.0
18587,57.0,0,29,7.0,100.0
18588,64.0,30,59,0.0,90.0
18589,69.0,30,119,8.0,100.0
18590,55.0,30,29,7.0,100.0
18591,61.0,0,29,10.0,100.0
18592,64.0,0,59,6.0,100.0
18593,69.0,0,119,1.0,127.0
18594,49.0,0,59,3.0,90.0
18595,62.0,30,29,10.0,100.0
18596,53.0,0,29,7.0,100.0
18597,67.0,0,59,8.0,100.0
18598,52.0,0,29,7.0,100.0
18599,64.0,30,29,10.0,100.0
18600,67.0,0,59,1.0,127.0
18601,57.0,0,29,10.0,100.0
18602,53.0,0,29,7.0,100.0
18603,57.0,0,29,7.0,100.0
18604,53.0,30,29,10.0,100.0
18605,65.0,0,59,1.0,127.0
18606,50.0,0,59,3.0,90.0
18607,62.0,0,59,6.0,100.0
18608,65.0,0,59,8.0,100.0
18609,62.0,30,59,0.0,90.0
18610,52.0,30,29,10.0,100.0
18611,55.0,0,29,7.0,100.0
18612,57.0,0,29,7.0,100.0
18613,50.0,30,29,10.0,100.0
18614,45.0,0,29,7.0,100.0
18615,57.0,30,29,10.0,100.0
18616,64.0,0,59,8.0,100.0
18617,74.0,0,119,6.0,100.0
18618,58.0,30,29,10.0,100.0
18619,74.0,0,119,0.0,90.0
18620,45.0,0,59,3.0,90.0
18621,52.0,0,29,7.0,100.0
18622,64.0,0,59,1.0,127.0
18623,57.0,0,29,10.0,100.0
18624,55.0,30,29,10.0,100.0
18625,72.0,0,59,6.0,100.0
18626,72.0,0,59,0.0,90.0
18627,54.0,0,29,10.0,100.0
18628,57.0,30,89,7.0,100.0
18629,55.0,0,29,10.0,100.0
18630,62.0,0,59,8.0,100.0
18631,46.0,0,59,3.0,90.0
18632,70.0,0,59,6.0,100.0
18633,70.0,30,59,0.0,90.0
18634,62.0,0,59,1.0,127.0
18635,55.0,30,29,7.0,100.0
18636,57.0,0,29,7.0,100.0
18637,54.0,0,29,10.0,100.0
18638,58.0,30,29,7.0,100.0
18639,55.0,0,29,10.0,100.0
18640,57.0,30,29,10.0,100.0
18641,60.0,0,29,7.0,100.0
18642,74.0,30,119,1.0,127.0
18643,69.0,0,59,0.0,90.0
18644,57.0,0,29,7.0,100.0
18645,42.0,0,59,3.0,90.0
18646,50.0,30,29,10.0,100.0
18647,74.0,0,119,8.0,100.0
18648,69.0,0,59,6.0,100.0
18649,54.0,30,29,7.0,100.0
18650,57.0,30,29,7.0,100.0
18651,72.0,0,59,8.0,100.0
18652,72.0,0,59,1.0,127.0
18653,62.0,0,89,10.0,100.0
18654,50.0,0,29,7.0,100.0
18655,55.0,0,29,5.0,100.0
18656,70.0,30,29,8.0,100.0
18657,70.0,0,29,6.0,100.0
18658,74.0,0,29,8.0,100.0
18659,43.0,0,59,3.0,90.0
18660,74.0,0,59,0.0,90.0
18661,54.0,30,29,10.0,100.0
18662,74.0,0,59,4.0,100.0
18663,74.0,0,29,6.0,100.0
18664,70.0,0,59,1.0,127.0
18665,48.0,0,29,7.0,100.0
18666,57.0,0,29,5.0,100.0
18667,74.0,0,59,2.0,56.0
18668,55.0,0,29,10.0,100.0
18669,46.0,0,29,7.0,100.0
18670,58.0,0,29,5.0,100.0
18671,58.0,30,29,10.0,100.0
18672,50.0,0,29,7.0,100.0
18673,55.0,0,29,5.0,100.0
18674,48.0,0,29,7.0,100.0
18675,57.0,0,29,5.0,100.0
18676,63.0,30,29,10.0,100.0
18677,72.0,0,59,2.0,56.0
18678,46.0,30,29,7.0,100.0
18679,79.0,0,119,6.0,100.0
18680,79.0,30,119,4.0,100.0
18681,69.0,0,59,1.0,127.0
18682,79.0,0,119,0.0,90.0
18683,45.0,0,59,3.0,90.0
18684,58.0,0,29,5.0,100.0
18685,79.0,0,119,8.0,100.0
18686,62.0,0,29,10.0,100.0
18687,45.0,0,29,7.0,100.0
18688,60.0,0,29,5.0,100.0
18689,60.0,0,29,10.0,100.0
18690,62.0,0,29,10.0,100.0
18691,78.0,0,59,6.0,100.0
18692,78.0,0,59,4.0,100.0
18693,78.0,0,59,8.0,100.0
18694,57.0,0,29,5.0,100.0
18695,50.0,30,29,7.0,100.0
18696,78.0,30,59,0.0,90.0
18697,58.0,0,29,10.0,100.0
18698,43.0,0,29,7.0,100.0
18699,58.0,0,29,5.0,100.0
18700,46.0,0,59,3.0,90.0
18701,79.0,0,59,6.0,100.0
18702,55.0,0,29,10.0,100.0
18703,79.0,0,59,4.0,100.0
18704,62.0,0,29,5.0,100.0
18705,79.0,0,59,8.0,100.0
18706,79.0,30,59,0.0,90.0
18707,46.0,30,29,7.0,100.0
18708,70.0,0,59,2.0,56.0
18709,74.0,0,59,1.0,127.0
18710,48.0,30,29,7.0,100.0
18711,60.0,0,29,5.0,100.0
18712,63.0,0,29,10.0,100.0
18713,58.0,0,29,5.0,100.0
18714,50.0,0,29,7.0,100.0
18715,62.0,30,29,10.0,100.0
18716,57.0,30,29,5.0,100.0
18717,51.0,0,29,7.0,100.0
18718,60.0,0,29,10.0,100.0
18719,48.0,0,29,7.0,100.0
18720,55.0,30,29,5.0,100.0
18721,48.0,0,59,3.0,90.0
18722,63.0,0,59,2.0,56.0
18723,81.0,0,119,8.0,100.0
18724,81.0,0,119,6.0,100.0
18725,81.0,0,119,0.0,90.0
18726,72.0,0,59,1.0,127.0
18727,81.0,0,119,4.0,100.0
18728,63.0,0,29,10.0,100.0
18729,62.0,0,29,10.0,100.0
18730,54.0,0,29,5.0,100.0
18731,50.0,30,29,7.0,100.0
18732,52.0,30,29,5.0,100.0
18733,52.0,0,29,7.0,100.0
18734,60.0,0,29,10.0,100.0
18735,58.0,0,29,10.0,100.0
18736,54.0,30,29,7.0,100.0
18737,50.0,0,59,5.0,100.0
18738,55.0,0,29,10.0,100.0
18739,82.0,0,119,4.0,100.0
18740,82.0,0,119,8.0,100.0
18741,82.0,0,119,6.0,100.0
18742,62.0,0,59,2.0,56.0
18743,50.0,30,29,7.0,100.0
18744,50.0,0,59,3.0,90.0
18745,82.0,0,119,0.0,90.0
18746,66.0,0,59,1.0,127.0
18747,81.0,0,29,4.0,100.0
18748,81.0,0,29,8.0,100.0
18749,81.0,30,29,0.0,90.0
18750,81.0,0,29,6.0,100.0
18751,79.0,0,29,8.0,100.0
18752,63.0,0,59,10.0,100.0
18753,67.0,0,59,1.0,127.0
18754,79.0,30,29,6.0,100.0
18755,79.0,0,29,0.0,90.0
18756,51.0,0,59,3.0,90.0
18757,51.0,0,59,5.0,100.0
18758,55.0,0,59,7.0,100.0
18759,58.0,0,59,2.0,56.0
18760,79.0,0,29,4.0,100.0
18761,82.0,0,29,4.0,100.0
18762,82.0,0,29,6.0,100.0
18763,82.0,0,29,8.0,100.0
18764,82.0,0,29,0.0,90.0
18765,60.0,30,59,10.0,100.0
18766,81.0,0,29,4.0,100.0
18767,63.0,0,59,2.0,56.0
18768,81.0,0,29,6.0,100.0
18769,48.0,0,59,7.0,100.0
18770,72.0,0,59,1.0,127.0
18771,81.0,30,29,0.0,90.0
18772,48.0,0,59,5.0,100.0
18773,48.0,0,59,3.0,90.0
18774,81.0,0,29,8.0,100.0
18775,79.0,0,29,8.0,100.0
18776,79.0,0,29,4.0,100.0
18777,79.0,0,29,0.0,90.0
18778,79.0,0,29,6.0,100.0
18779,78.0,0,29,6.0,100.0
18780,50.0,0,59,5.0,100.0
18781,62.0,0,59,2.0,56.0
18782,69.0,30,59,1.0,127.0
18783,62.0,0,59,10.0,100.0
18784,78.0,30,29,4.0,100.0
18785,78.0,0,29,0.0,90.0
18786,50.0,0,59,3.0,90.0
18787,78.0,0,29,8.0,100.0
18788,50.0,0,59,7.0,100.0
18789,55.0,0,14,4.0,100.0
18790,62.0,15,14,4.0,100.0
18791,79.0,0,30,4.0,100.0
18792,64.0,15,14,4.0,100.0
18793,70.0,0,59,1.0,127.0
18794,79.0,0,59,8.0,100.0
18795,62.0,0,59,2.0,56.0
18796,43.0,0,59,3.0,90.0
18797,55.0,30,59,10.0,100.0
18798,66.0,15,14,4.0,100.0
18799,79.0,0,59,6.0,100.0
18800,43.0,0,59,7.0,100.0
18801,79.0,0,60,0.0,100.0
18802,67.0,0,14,4.0,100.0
18803,55.0,15,29,3.0,90.0
18804,69.0,15,14,4.0,100.0
18805,70.0,15,14,4.0,100.0
18806,72.0,15,14,4.0,100.0
18807,53.0,0,29,3.0,90.0
18808,70.0,15,14,4.0,100.0
18809,69.0,15,14,4.0,100.0
18810,52.0,0,29,3.0,90.0
18811,67.0,15,14,4.0,100.0
18812,50.0,0,29,3.0,90.0
18813,65.0,15,14,4.0,100.0
18814,64.0,15,14,4.0,100.0
18815,62.0,15,14,4.0,100.0
18816,48.0,0,29,3.0,90.0
18817,60.0,0,14,4.0,100.0
18818,58.0,15,14,4.0,100.0
18819,46.0,15,29,3.0,90.0
18820,57.0,0,29,5.0,100.0
18821,77.0,0,29,4.0,100.0
18822,57.0,0,59,10.0,100.0
18823,72.0,0,59,6.0,100.0
18824,57.0,15,59,7.0,100.0
18825,76.0,0,29,4.0,100.0
18826,72.0,0,59,1.0,127.0
18827,72.0,0,59,8.0,100.0
18828,72.0,0,59,0.0,90.0
18829,45.0,0,59,3.0,90.0
18830,60.0,30,29,5.0,100.0
18831,65.0,0,59,2.0,56.0
18832,74.0,30,29,4.0,100.0
18833,58.0,0,29,5.0,100.0
18834,57.0,0,29,5.0,100.0
18835,72.0,30,29,4.0,100.0
18836,55.0,30,29,5.0,100.0
18837,77.0,0,29,4.0,100.0
18838,67.0,0,59,2.0,56.0
18839,77.0,0,119,8.0,100.0
18840,77.0,0,119,0.0,90.0
18841,70.0,0,59,1.0,127.0
18842,55.0,0,59,7.0,100.0
18843,55.0,0,59,10.0,100.0
18844,58.0,0,29,5.0,100.0
18845,43.0,0,59,3.0,90.0
18846,77.0,0,119,6.0,100.0
18847,74.0,30,29,4.0,100.0
18848,72.0,0,29,4.0,100.0
18849,57.0,0,29,5.0,100.0
18850,76.0,0,59,6.0,100.0
18851,76.0,0,59,8.0,100.0
18852,70.0,30,29,4.0,100.0
18853,55.0,0,29,5.0,100.0
18854,76.0,30,59,0.0,90.0
18855,53.0,0,29,5.0,100.0
18856,77.0,0,29,4.0,100.0
18857,72.0,30,29,4.0,100.0
18858,53.0,0,59,7.0,100.0
18859,72.0,0,59,2.0,56.0
18860,77.0,30,59,6.0,100.0
18861,53.0,0,59,10.0,100.0
18862,69.0,0,59,1.0,127.0
18863,77.0,0,59,0.0,90.0
18864,41.0,0,59,3.0,90.0
18865,57.0,0,29,5.0,100.0
18866,77.0,0,59,8.0,100.0
18867,70.0,0,29,4.0,100.0
18868,62.0,0,29,5.0,100.0
18869,69.0,0,29,4.0,100.0
18870,60.0,30,29,5.0,100.0
18871,58.0,0,29,5.0,100.0
18872,77.0,30,29,4.0,100.0
18873,40.0,0,59,3.0,90.0
18874,55.0,30,29,5.0,100.0
18875,79.0,0,119,8.0,100.0
18876,52.0,0,59,7.0,100.0
18877,79.0,30,119,0.0,90.0
18878,52.0,0,59,10.0,100.0
18879,79.0,0,119,6.0,100.0
18880,70.0,0,59,2.0,56.0
18881,74.0,0,59,1.0,127.0
18882,70.0,0,29,4.0,100.0
18883,69.0,30,29,4.0,100.0
18884,53.0,0,29,5.0,100.0
18885,67.0,30,29,4.0,100.0
18886,52.0,0,29,5.0,100.0
18887,57.0,0,29,5.0,100.0
18888,65.0,0,29,4.0,100.0
18889,41.0,0,59,3.0,90.0
18890,53.0,0,59,7.0,100.0
18891,53.0,30,59,10.0,100.0
18892,53.0,0,29,5.0,100.0
18893,81.0,0,119,6.0,100.0
18894,81.0,0,119,0.0,90.0
18895,69.0,0,59,2.0,56.0
18896,72.0,0,59,1.0,127.0
18897,81.0,30,29,4.0,100.0
18898,81.0,0,119,8.0,100.0
18899,79.0,0,29,0.0,90.0
18900,79.0,0,29,8.0,100.0
18901,79.0,0,29,6.0,100.0
18902,79.0,0,29,4.0,100.0
18903,77.0,0,29,0.0,90.0
18904,62.0,0,59,5.0,100.0
18905,50.0,30,59,7.0,100.0
18906,77.0,0,29,4.0,100.0
18907,77.0,30,29,6.0,100.0
18908,74.0,0,59,1.0,127.0
18909,50.0,0,59,10.0,100.0
18910,77.0,0,29,8.0,100.0
18911,69.0,0,59,2.0,56.0
18912,50.0,0,59,3.0,90.0
18913,81.0,0,29,8.0,100.0
18914,81.0,0,29,0.0,90.0
18915,81.0,0,29,6.0,100.0
18916,81.0,0,29,4.0,100.0
18917,58.0,0,59,5.0,100.0
18918,79.0,0,29,0.0,90.0
18919,79.0,0,29,8.0,100.0
18920,46.0,0,59,10.0,100.0
18921,46.0,0,59,7.0,100.0
18922,79.0,30,29,4.0,100.0
18923,70.0,0,59,2.0,56.0
18924,46.0,30,59,3.0,90.0
18925,74.0,0,59,1.0,127.0
18926,79.0,0,29,6.0,100.0
18927,77.0,0,29,6.0,100.0
18928,77.0,30,29,4.0,100.0
18929,77.0,0,29,8.0,100.0
18930,77.0,0,29,0.0,90.0
18931,72.0,0,59,1.0,127.0
18932,76.0,0,29,4.0,100.0
18933,76.0,30,29,8.0,100.0
18934,48.0,0,59,3.0,90.0
18935,48.0,0,59,10.0,100.0
18936,67.0,0,59,2.0,56.0
18937,76.0,0,29,0.0,90.0
18938,48.0,0,59,7.0,100.0
18939,60.0,0,59,5.0,100.0
18940,76.0,0,29,6.0,100.0
18941,53.0,30,14,6.0,100.0
18942,60.0,15,14,6.0,100.0
18943,62.0,15,14,6.0,100.0
18944,77.0,0,59,0.0,90.0
18945,41.0,0,59,3.0,90.0
18946,72.0,0,59,1.0,127.0
18947,77.0,0,59,6.0,100.0
18948,77.0,0,59,8.0,100.0
18949,64.0,15,14,6.0,100.0
18950,69.0,0,59,2.0,56.0
18951,41.0,0,59,10.0,100.0
18952,77.0,0,59,4.0,100.0
18953,53.0,0,59,5.0,100.0
18954,65.0,0,14,6.0,100.0
18955,67.0,15,14,6.0,100.0
18956,57.0,15,29,3.0,90.0
18957,69.0,0,14,6.0,100.0
18958,55.0,15,29,3.0,90.0
18959,70.0,15,14,6.0,100.0
18960,69.0,0,14,6.0,100.0
18961,65.0,15,14,6.0,100.0
18962,53.0,15,29,3.0,90.0
18963,67.0,15,14,6.0,100.0
18964,52.0,0,29,3.0,90.0
18965,69.0,15,14,6.0,100.0
18966,70.0,0,14,6.0,100.0
18967,72.0,15,14,6.0,100.0
18968,50.0,15,29,3.0,90.0
18969,74.0,15,14,6.0,100.0
18970,76.0,15,14,6.0,100.0
18971,48.0,0,29,3.0,90.0
18972,77.0,0,29,6.0,100.0
18973,55.0,0,29,7.0,100.0
18974,67.0,0,59,4.0,100.0
18975,74.0,0,59,4.0,100.0
18976,67.0,0,59,8.0,100.0
18977,62.0,0,59,8.0,100.0
18978,67.0,0,59,1.0,127.0
18979,71.0,30,29,6.0,100.0
18980,67.0,0,59,0.0,90.0
18981,47.0,0,59,3.0,90.0
18982,47.0,15,59,10.0,100.0
18983,62.0,0,29,7.0,100.0
18984,47.0,0,59,5.0,100.0
18985,65.0,0,59,2.0,56.0
18986,60.0,0,29,7.0,100.0
18987,69.0,0,29,6.0,100.0
18988,67.0,30,59,1.0,127.0
18989,47.0,0,59,10.0,100.0
18990,47.0,0,59,3.0,90.0
18991,67.0,0,59,4.0,100.0
18992,74.0,0,59,4.0,100.0
18993,67.0,0,59,8.0,100.0
18994,62.0,0,59,8.0,100.0
18995,47.0,0,59,5.0,100.0
18996,65.0,0,59,2.0,56.0
18997,59.0,30,29,7.0,100.0
18998,67.0,0,29,6.0,100.0
18999,77.0,0,29,6.0,100.0
19000,55.0,0,29,7.0,100.0
19001,67.0,0,59,4.0,100.0
19002,74.0,0,119,0.0,90.0
19003,62.0,0,29,7.0,100.0
19004,65.0,0,59,2.0,56.0
19005,47.0,30,59,5.0,100.0
19006,67.0,0,59,8.0,100.0
19007,47.0,0,59,10.0,100.0
19008,71.0,30,29,6.0,100.0
19009,47.0,0,59,3.0,90.0
19010,67.0,0,59,1.0,127.0
19011,74.0,0,59,4.0,100.0
19012,62.0,0,59,8.0,100.0
19013,69.0,0,29,6.0,100.0
19014,60.0,0,29,7.0,100.0
19015,67.0,0,59,8.0,100.0
19016,65.0,30,59,8.0,100.0
19017,77.0,0,59,0.0,90.0
19018,67.0,0,59,4.0,100.0
19019,74.0,0,59,4.0,100.0
19020,65.0,0,59,2.0,56.0
19021,67.0,0,59,1.0,127.0
19022,47.0,0,59,3.0,90.0
19023,47.0,0,59,10.0,100.0
19024,67.0,0,29,6.0,100.0
19025,47.0,0,59,5.0,100.0
19026,59.0,30,29,7.0,100.0
19027,48.0,0,14,10.0,100.0
19028,64.0,0,29,8.0,100.0
19029,59.0,15,14,8.0,100.0
19030,67.0,0,29,8.0,100.0
19031,60.0,15,14,8.0,100.0
19032,60.0,30,59,7.0,100.0
19033,48.0,0,59,3.0,90.0
19034,76.0,0,59,4.0,100.0
19035,72.0,0,59,4.0,100.0
19036,64.0,0,59,2.0,56.0
19037,48.0,0,59,7.0,100.0
19038,76.0,0,59,6.0,100.0
19039,76.0,0,59,0.0,90.0
19040,48.0,0,59,5.0,100.0
19041,67.0,0,59,1.0,127.0
19042,62.0,15,14,8.0,100.0
19043,64.0,15,14,8.0,100.0
19044,65.0,15,14,8.0,100.0
19045,67.0,15,14,8.0,100.0
19046,48.0,0,59,3.0,90.0
19047,69.0,15,14,8.0,100.0
19048,67.0,0,14,8.0,100.0
19049,64.0,15,14,8.0,100.0
19050,65.0,15,14,8.0,100.0
19051,67.0,15,14,8.0,100.0
19052,46.0,15,59,3.0,90.0
19053,69.0,0,14,8.0,100.0
19054,70.0,15,14,8.0,100.0
19055,72.0,15,14,8.0,100.0
19056,74.0,15,14,8.0,100.0
19057,46.0,15,59,3.0,90.0
19058,53.0,0,29,10.0,100.0
19059,75.0,0,29,8.0,100.0
19060,60.0,0,59,2.0,56.0
19061,60.0,30,29,10.0,100.0
19062,45.0,0,59,3.0,90.0
19063,45.0,0,59,5.0,100.0
19064,45.0,0,59,7.0,100.0
19065,65.0,0,59,1.0,127.0
19066,65.0,0,59,0.0,90.0
19067,72.0,0,59,6.0,100.0
19068,69.0,0,29,8.0,100.0
19069,65.0,15,59,6.0,100.0
19070,60.0,0,59,4.0,100.0
19071,65.0,0,59,4.0,100.0
19072,67.0,0,29,8.0,100.0
19073,58.0,0,29,10.0,100.0
19074,60.0,0,59,4.0,100.0
19075,45.0,0,59,5.0,100.0
19076,57.0,30,29,10.0,100.0
19077,45.0,0,59,3.0,90.0
19078,65.0,0,29,8.0,100.0
19079,72.0,0,59,6.0,100.0
19080,65.0,0,59,6.0,100.0
19081,65.0,0,59,1.0,127.0
19082,65.0,0,59,4.0,100.0
19083,60.0,0,59,2.0,56.0
19084,45.0,0,59,7.0,100.0
19085,75.0,0,29,8.0,100.0
19086,53.0,0,29,10.0,100.0
19087,60.0,0,29,10.0,100.0
19088,45.0,0,59,5.0,100.0
19089,45.0,0,59,7.0,100.0
19090,69.0,30,29,8.0,100.0
19091,72.0,0,59,6.0,100.0
19092,45.0,0,59,3.0,90.0
19093,65.0,30,59,4.0,100.0
19094,72.0,30,119,0.0,90.0
19095,60.0,0,59,2.0,56.0
19096,65.0,0,59,1.0,127.0
19097,60.0,0,59,4.0,100.0
19098,65.0,0,59,6.0,100.0
19099,58.0,30,29,10.0,100.0
19100,67.0,0,29,8.0,100.0
19101,60.0,0,59,2.0,56.0
19102,57.0,0,29,10.0,100.0
19103,65.0,30,29,8.0,100.0
19104,75.0,0,59,0.0,90.0
19105,72.0,0,59,6.0,100.0
19106,65.0,0,59,6.0,100.0
19107,63.0,0,59,4.0,100.0
19108,65.0,0,59,1.0,127.0
19109,45.0,0,59,7.0,100.0
19110,45.0,0,59,3.0,90.0
19111,65.0,0,59,4.0,100.0
19112,45.0,0,59,5.0,100.0
19113,46.0,0,14,5.0,100.0
19114,57.0,15,14,4.0,100.0
19115,62.0,0,30,4.0,100.0
19116,65.0,0,30,4.0,100.0
19117,58.0,15,14,4.0,100.0
19118,58.0,0,59,10.0,100.0
19119,46.0,0,59,10.0,100.0
19120,60.0,15,14,4.0,100.0
19121,58.0,0,59,2.0,56.0
19122,65.0,0,59,1.0,127.0
19123,46.0,30,59,7.0,100.0
19124,74.0,0,59,8.0,100.0
19125,74.0,0,59,0.0,90.0
19126,74.0,0,59,6.0,100.0
19127,70.0,0,59,6.0,100.0
19128,46.0,0,59,3.0,90.0
19129,62.0,0,14,4.0,100.0
19130,63.0,15,14,4.0,100.0
19131,65.0,15,14,4.0,100.0
19132,67.0,15,14,4.0,100.0
19133,46.0,15,59,3.0,90.0
19134,65.0,15,14,4.0,100.0
19135,62.0,15,14,4.0,100.0
19136,63.0,15,14,4.0,100.0
19137,65.0,15,14,4.0,100.0
19138,58.0,0,59,3.0,90.0
19139,67.0,15,14,4.0,100.0
19140,69.0,15,14,4.0,100.0
19141,70.0,15,14,4.0,100.0
19142,58.0,0,59,3.0,90.0
19143,72.0,15,14,4.0,100.0
19144,65.0,0,29,8.0,100.0
19145,44.0,0,29,5.0,100.0
19146,74.0,15,29,4.0,100.0
19147,65.0,0,29,6.0,100.0
19148,56.0,0,59,3.0,90.0
19149,58.0,0,59,2.0,56.0
19150,56.0,0,29,5.0,100.0
19151,65.0,30,29,4.0,100.0
19152,44.0,0,59,7.0,100.0
19153,44.0,0,59,10.0,100.0
19154,65.0,0,59,1.0,127.0
19155,70.0,0,29,8.0,100.0
19156,74.0,0,59,0.0,90.0
19157,62.0,0,29,6.0,100.0
19158,60.0,0,29,6.0,100.0
19159,72.0,0,29,8.0,100.0
19160,55.0,0,29,5.0,100.0
19161,63.0,0,29,4.0,100.0
19162,74.0,0,29,8.0,100.0
19163,62.0,30,29,4.0,100.0
19164,53.0,0,29,5.0,100.0
19165,58.0,0,29,6.0,100.0
19166,56.0,30,59,3.0,90.0
19167,44.0,0,59,10.0,100.0
19168,44.0,0,59,7.0,100.0
19169,44.0,0,29,5.0,100.0
19170,74.0,30,29,4.0,100.0
19171,65.0,0,29,6.0,100.0
19172,65.0,0,29,8.0,100.0
19173,68.0,30,29,6.0,100.0
19174,56.0,0,59,10.0,100.0
19175,60.0,0,59,2.0,56.0
19176,56.0,0,59,7.0,100.0
19177,44.0,0,59,3.0,90.0
19178,71.0,0,29,8.0,100.0
19179,56.0,0,29,5.0,100.0
19180,65.0,0,29,4.0,100.0
19181,65.0,0,59,1.0,127.0
19182,72.0,0,59,0.0,90.0
19183,72.0,30,29,8.0,100.0
19184,63.0,0,29,4.0,100.0
19185,67.0,0,29,6.0,100.0
19186,55.0,0,29,5.0,100.0
19187,44.0,0,59,3.0,90.0
19188,65.0,0,29,6.0,100.0
19189,56.0,0,59,10.0,100.0
19190,53.0,0,29,5.0,100.0
19191,62.0,0,29,4.0,100.0
19192,56.0,0,59,7.0,100.0
19193,74.0,30,29,8.0,100.0
19194,71.0,0,29,4.0,100.0
19195,43.0,0,29,5.0,100.0
19196,65.0,30,29,4.0,100.0
19197,55.0,0,59,10.0,100.0
19198,71.0,0,59,8.0,100.0
19199,67.0,0,59,8.0,100.0
19200,62.0,30,59,2.0,56.0
19201,55.0,0,59,7.0,100.0
19202,67.0,0,59,1.0,127.0
19203,74.0,0,59,6.0,100.0
19204,71.0,0,59,6.0,100.0
19205,65.0,0,59,6.0,100.0
19206,71.0,0,59,0.0,90.0
19207,43.0,0,59,3.0,90.0
19208,79.0,0,59,8.0,100.0
19209,56.0,0,29,5.0,100.0
19210,55.0,30,29,5.0,100.0
19211,63.0,0,29,4.0,100.0
19212,43.0,0,59,3.0,90.0
19213,53.0,30,29,5.0,100.0
19214,62.0,0,29,4.0,100.0
19215,59.0,30,29,5.0,100.0
19216,67.0,0,29,4.0,100.0
19217,71.0,0,29,4.0,100.0
19218,41.0,0,59,3.0,90.0
19219,55.0,30,29,5.0,100.0
19220,62.0,0,29,5.0,100.0
19221,69.0,30,29,4.0,100.0
19222,67.0,0,29,4.0,100.0
19223,53.0,30,29,5.0,100.0
19224,41.0,0,59,3.0,90.0
19225,52.0,0,29,5.0,100.0
19226,70.0,0,29,4.0,100.0
19227,60.0,0,29,8.0,100.0
19228,72.0,0,29,6.0,100.0
19229,76.0,0,29,4.0,100.0
19230,67.0,0,59,1.0,127.0
19231,70.0,0,29,8.0,100.0
19232,60.0,0,59,2.0,56.0
19233,52.0,0,59,10.0,100.0
19234,55.0,0,29,5.0,100.0
19235,72.0,0,59,0.0,90.0
19236,40.0,0,59,3.0,90.0
19237,67.0,30,29,6.0,100.0
19238,52.0,30,59,7.0,100.0
19239,65.0,0,29,6.0,100.0
19240,77.0,0,29,4.0,100.0
19241,57.0,30,29,5.0,100.0
19242,69.0,0,29,8.0,100.0
19243,64.0,0,29,6.0,100.0
19244,79.0,30,29,4.0,100.0
19245,52.0,0,59,10.0,100.0
19246,40.0,0,59,3.0,90.0
19247,52.0,0,59,7.0,100.0
19248,58.0,0,29,5.0,100.0
19249,67.0,0,29,8.0,100.0
19250,60.0,0,29,8.0,100.0
19251,70.0,0,29,4.0,100.0
19252,72.0,0,29,6.0,100.0
19253,55.0,30,29,5.0,100.0
19254,67.0,0,29,6.0,100.0
19255,40.0,0,59,10.0,100.0
19256,40.0,0,59,3.0,90.0
19257,67.0,0,59,1.0,127.0
19258,76.0,0,29,4.0,100.0
19259,70.0,0,59,0.0,90.0
19260,60.0,0,59,2.0,56.0
19261,67.0,30,29,8.0,100.0
19262,58.0,0,29,5.0,100.0
19263,40.0,0,59,7.0,100.0
19264,65.0,0,29,6.0,100.0
19265,69.0,0,29,8.0,100.0
19266,77.0,0,29,4.0,100.0
19267,57.0,30,29,5.0,100.0
19268,40.0,0,59,3.0,90.0
19269,40.0,0,59,7.0,100.0
19270,70.0,0,29,8.0,100.0
19271,40.0,0,59,10.0,100.0
19272,79.0,30,29,4.0,100.0
19273,55.0,0,29,5.0,100.0
19274,64.0,0,29,6.0,100.0
19275,53.0,30,29,5.0,100.0
19276,69.0,0,29,4.0,100.0
19277,41.0,0,59,10.0,100.0
19278,41.0,0,59,3.0,90.0
19279,41.0,0,59,7.0,100.0
19280,69.0,0,59,0.0,90.0
19281,72.0,0,59,6.0,100.0
19282,69.0,0,59,6.0,100.0
19283,65.0,0,59,1.0,127.0
19284,72.0,30,29,4.0,100.0
19285,77.0,0,59,8.0,100.0
19286,69.0,0,59,8.0,100.0
19287,72.0,0,59,8.0,100.0
19288,60.0,0,59,2.0,56.0
19289,57.0,0,29,5.0,100.0
19290,74.0,30,29,4.0,100.0
19291,58.0,0,29,5.0,100.0
19292,75.0,30,29,4.0,100.0
19293,41.0,0,59,3.0,90.0
19294,60.0,0,29,5.0,100.0
19295,65.0,30,29,4.0,100.0
19296,57.0,0,29,5.0,100.0
19297,39.0,0,59,3.0,90.0
19298,69.0,30,29,4.0,100.0
19299,60.0,0,29,5.0,100.0
19300,58.0,30,29,5.0,100.0
19301,67.0,0,29,4.0,100.0
19302,65.0,0,29,4.0,100.0
19303,57.0,30,29,5.0,100.0
19304,39.0,0,59,3.0,90.0
19305,70.0,0,29,4.0,100.0
19306,50.0,0,29,5.0,100.0
19307,77.0,0,29,8.0,100.0
19308,70.0,0,29,6.0,100.0
19309,38.0,0,59,3.0,90.0
19310,38.0,0,59,7.0,100.0
19311,65.0,0,59,1.0,127.0
19312,74.0,0,29,4.0,100.0
19313,38.0,0,59,10.0,100.0
19314,62.0,0,59,2.0,56.0
19315,65.0,0,29,6.0,100.0
19316,58.0,0,29,5.0,100.0
19317,74.0,30,29,8.0,100.0
19318,70.0,30,59,0.0,90.0
19319,64.0,30,29,6.0,100.0
19320,72.0,0,29,8.0,100.0
19321,76.0,0,29,4.0,100.0
19322,60.0,0,29,5.0,100.0
19323,38.0,0,59,3.0,90.0
19324,70.0,0,29,8.0,100.0
19325,77.0,30,29,4.0,100.0
19326,62.0,0,29,6.0,100.0
19327,38.0,0,59,7.0,100.0
19328,62.0,0,29,5.0,100.0
19329,38.0,0,59,10.0,100.0
19330,77.0,0,29,8.0,100.0
19331,60.0,0,29,5.0,100.0
19332,69.0,0,29,4.0,100.0
19333,60.0,0,29,6.0,100.0
19334,72.0,0,29,8.0,100.0
19335,57.0,0,29,5.0,100.0
19336,65.0,0,59,1.0,127.0
19337,69.0,30,29,6.0,100.0
19338,74.0,0,29,4.0,100.0
19339,50.0,0,59,7.0,100.0
19340,69.0,0,59,0.0,90.0
19341,50.0,30,59,10.0,100.0
19342,60.0,0,59,2.0,56.0
19343,50.0,0,59,3.0,90.0
19344,71.0,0,29,8.0,100.0
19345,68.0,0,29,6.0,100.0
19346,76.0,30,29,4.0,100.0
19347,62.0,0,29,5.0,100.0
19348,60.0,0,29,5.0,100.0
19349,50.0,0,59,3.0,90.0
19350,77.0,0,29,4.0,100.0
19351,50.0,0,59,10.0,100.0
19352,69.0,0,29,6.0,100.0
19353,50.0,0,59,7.0,100.0
19354,69.0,30,29,8.0,100.0
19355,68.0,0,14,4.0,100.0
19356,77.0,15,14,4.0,100.0
19357,76.0,15,14,4.0,100.0
19358,50.0,0,59,10.0,100.0
19359,59.0,0,59,5.0,100.0
19360,68.0,0,59,0.0,90.0
19361,76.0,0,59,8.0,100.0
19362,71.0,0,59,8.0,100.0
19363,68.0,0,59,8.0,100.0
19364,59.0,0,59,2.0,56.0
19365,74.0,15,14,4.0,100.0
19366,71.0,30,59,6.0,100.0
19367,50.0,0,59,3.0,90.0
19368,50.0,0,59,7.0,100.0
19369,64.0,0,59,1.0,127.0
19370,50.0,15,59,5.0,100.0
19371,71.0,0,59,6.0,100.0
19372,68.0,0,59,6.0,100.0
19373,50.0,0,59,3.0,90.0
19374,76.0,0,89,4.0,100.0
19375,49.0,0,59,10.0,100.0
19376,70.0,30,29,4.0,100.0
19377,49.0,0,59,7.0,100.0
19378,49.0,0,59,3.0,90.0
19379,69.0,0,59,6.0,100.0
19380,49.0,0,59,5.0,100.0
19381,57.0,0,59,2.0,56.0
19382,64.0,60,59,1.0,127.0
19383,76.0,0,59,6.0,100.0
19384,67.0,0,60,0.0,90.0
19385,69.0,0,29,4.0,100.0
19386,67.0,30,29,4.0,100.0
19387,57.0,30,59,8.0,100.0
19388,64.0,0,59,8.0,100.0
19389,49.0,0,59,3.0,90.0
19390,52.0,0,59,5.0,100.0
19391,66.0,0,14,4.0,100.0
19392,75.0,15,14,4.0,100.0
19393,74.0,15,14,4.0,100.0
19394,48.0,0,59,10.0,100.0
19395,62.0,0,59,8.0,100.0
19396,66.0,0,59,8.0,100.0
19397,57.0,0,59,2.0,56.0
19398,48.0,30,59,3.0,90.0
19399,57.0,0,59,8.0,100.0
19400,62.0,0,59,1.0,127.0
19401,72.0,15,14,4.0,100.0
19402,57.0,0,59,5.0,100.0
19403,48.0,0,59,7.0,100.0
19404,69.0,0,59,8.0,100.0
19405,66.0,0,60,0.0,90.0
19406,69.0,0,59,6.0,100.0
19407,48.0,0,59,3.0,90.0
19408,48.0,0,59,5.0,100.0
19409,66.0,0,59,6.0,100.0
19410,74.0,15,89,4.0,100.0
19411,62.0,0,59,1.0,127.0
19412,47.0,0,59,10.0,100.0
19413,47.0,0,59,5.0,100.0
19414,74.0,60,59,6.0,100.0
19415,67.0,0,59,6.0,100.0
19416,47.0,0,59,3.0,90.0
19417,47.0,0,59,7.0,100.0
19418,68.0,30,29,4.0,100.0
19419,55.0,0,59,2.0,56.0
19420,65.0,0,60,0.0,90.0
19421,67.0,0,29,4.0,100.0
19422,62.0,30,59,8.0,100.0
19423,65.0,30,29,4.0,100.0
19424,55.0,0,59,8.0,100.0
19425,50.0,0,59,5.0,100.0
19426,47.0,0,59,3.0,90.0
19427,55.0,30,14,4.0,100.0
19428,64.0,0,14,4.0,100.0
19429,60.0,15,14,4.0,100.0
19430,62.0,15,14,4.0,100.0
19431,60.0,0,59,8.0,100.0
19432,64.0,0,59,8.0,100.0
19433,60.0,0,59,1.0,127.0
19434,46.0,0,59,7.0,100.0
19435,67.0,0,59,8.0,100.0
19436,55.0,0,59,2.0,56.0
19437,46.0,0,59,10.0,100.0
19438,64.0,15,14,4.0,100.0
19439,55.0,0,59,8.0,100.0
19440,46.0,0,59,3.0,90.0
19441,64.0,0,60,0.0,90.0
19442,65.0,0,14,4.0,100.0
19443,67.0,15,14,4.0,100.0
19444,69.0,15,14,4.0,100.0
19445,46.0,15,59,3.0,90.0
19446,67.0,0,59,6.0,100.0
19447,64.0,0,59,6.0,100.0
19448,70.0,15,14,4.0,100.0
19449,72.0,15,14,4.0,100.0
19450,74.0,15,14,4.0,100.0
19451,72.0,15,14,4.0,100.0
19452,45.0,0,59,7.0,100.0
19453,45.0,0,59,3.0,90.0
19454,45.0,0,59,10.0,100.0
19455,72.0,0,59,6.0,100.0
19456,65.0,0,59,6.0,100.0
19457,60.0,0,59,1.0,127.0
19458,70.0,15,14,4.0,100.0
19459,53.0,0,59,2.0,56.0
19460,63.0,0,60,0.0,90.0
19461,69.0,0,14,4.0,100.0
19462,67.0,15,14,4.0,100.0
19463,65.0,15,14,4.0,100.0
19464,64.0,15,14,4.0,100.0
19465,60.0,15,59,8.0,100.0
19466,53.0,0,59,8.0,100.0
19467,45.0,0,59,3.0,90.0
19468,62.0,0,14,4.0,100.0
19469,59.0,15,14,4.0,100.0
19470,61.0,15,14,4.0,100.0
19471,65.0,0,59,8.0,100.0
19472,53.0,0,59,8.0,100.0
19473,59.0,0,59,1.0,127.0
19474,53.0,0,59,2.0,56.0
19475,59.0,0,59,8.0,100.0
19476,44.0,15,59,7.0,100.0
19477,44.0,0,59,10.0,100.0
19478,62.0,15,14,4.0,100.0
19479,44.0,0,59,3.0,90.0
19480,62.0,0,59,8.0,100.0
19481,62.0,0,60,0.0,90.0
19482,64.0,0,14,4.0,100.0
19483,65.0,15,14,4.0,100.0
19484,67.0,15,14,4.0,100.0
19485,62.0,15,59,6.0,100.0
19486,65.0,0,59,6.0,100.0
19487,69.0,15,14,4.0,100.0
19488,44.0,0,59,3.0,90.0
19489,70.0,0,14,4.0,100.0
19490,72.0,15,14,4.0,100.0
19491,70.0,15,14,4.0,100.0
19492,43.0,0,59,3.0,90.0
19493,43.0,0,59,10.0,100.0
19494,43.0,0,59,7.0,100.0
19495,70.0,0,59,6.0,100.0
19496,55.0,15,59,2.0,56.0
19497,67.0,0,59,6.0,100.0
19498,69.0,15,14,4.0,100.0
19499,58.0,0,59,1.0,127.0
19500,63.0,0,60,0.0,90.0
19501,67.0,0,14,4.0,100.0
19502,65.0,15,14,4.0,100.0
19503,63.0,15,14,4.0,100.0
19504,67.0,15,59,8.0,100.0
19505,58.0,0,59,8.0,100.0
19506,62.0,15,14,4.0,100.0
19507,43.0,0,59,3.0,90.0
19508,61.0,0,14,4.0,100.0
19509,59.0,15,14,4.0,100.0
19510,61.0,0,29,0.0,90.0
19511,57.0,0,14,4.0,100.0
19512,59.0,15,14,4.0,100.0
19513,52.0,0,59,2.0,56.0
19514,57.0,15,29,0.0,90.0
19515,57.0,0,59,1.0,127.0
19516,61.0,0,14,4.0,100.0
19517,62.0,15,14,4.0,100.0
19518,61.0,15,29,0.0,90.0
19519,64.0,15,14,4.0,100.0
19520,64.0,0,29,0.0,90.0
19521,57.0,0,119,8.0,100.0
19522,61.0,0,119,8.0,100.0
19523,43.0,0,119,10.0,100.0
19524,65.0,15,14,4.0,100.0
19525,61.0,0,119,6.0,100.0
19526,64.0,0,119,6.0,100.0
19527,69.0,0,119,6.0,100.0
19528,64.0,0,119,8.0,100.0
19529,43.0,15,119,3.0,90.0
19530,43.0,0,119,7.0,100.0
19531,67.0,15,14,4.0,100.0
19532,69.0,15,14,4.0,100.0
19533,69.0,0,29,0.0,90.0
19534,71.0,15,14,4.0,100.0
19535,73.0,15,14,4.0,100.0
19536,73.0,0,29,0.0,90.0
19537,74.0,15,14,4.0,100.0
19538,76.0,15,14,4.0,100.0
19539,76.0,0,29,0.0,90.0
19540,77.0,15,14,4.0,100.0
19541,79.0,15,14,4.0,100.0
19542,79.0,0,29,0.0,90.0
19543,81.0,0,29,4.0,100.0
19544,53.0,15,29,5.0,100.0
19545,81.0,0,29,0.0,90.0
19546,74.0,30,29,0.0,90.0
19547,74.0,0,29,4.0,100.0
19548,62.0,0,29,5.0,100.0
19549,62.0,0,59,1.0,127.0
19550,57.0,0,59,2.0,56.0
19551,41.0,0,59,10.0,100.0
19552,74.0,0,59,6.0,100.0
19553,41.0,0,59,3.0,90.0
19554,57.0,0,59,8.0,100.0
19555,53.0,0,59,7.0,100.0
19556,76.0,0,29,4.0,100.0
19557,61.0,0,29,5.0,100.0
19558,76.0,0,29,0.0,90.0
19559,77.0,30,29,0.0,90.0
19560,77.0,0,29,4.0,100.0
19561,62.0,0,29,5.0,100.0
19562,41.0,30,59,7.0,100.0
19563,53.0,0,59,10.0,100.0
19564,58.0,0,29,5.0,100.0
19565,79.0,0,29,0.0,90.0
19566,79.0,30,29,4.0,100.0
19567,81.0,0,29,4.0,100.0
19568,57.0,0,29,5.0,100.0
19569,40.0,0,59,3.0,90.0
19570,58.0,0,59,1.0,127.0
19571,62.0,0,119,8.0,100.0
19572,62.0,0,119,2.0,56.0
19573,76.0,0,59,6.0,100.0
19574,52.0,0,59,10.0,100.0
19575,81.0,30,29,0.0,90.0
19576,40.0,0,59,7.0,100.0
19577,77.0,0,29,0.0,90.0
19578,77.0,0,29,4.0,100.0
19579,58.0,0,29,5.0,100.0
19580,79.0,30,29,0.0,90.0
19581,55.0,0,29,5.0,100.0
19582,61.0,0,59,8.0,100.0
19583,79.0,0,29,4.0,100.0
19584,61.0,0,59,2.0,56.0
19585,40.0,30,59,10.0,100.0
19586,52.0,0,59,7.0,100.0
19587,69.0,0,29,6.0,100.0
19588,81.0,0,29,0.0,90.0
19589,81.0,0,29,4.0,100.0
19590,62.0,0,29,5.0,100.0
19591,57.0,0,59,1.0,127.0
19592,53.0,30,59,7.0,100.0
19593,62.0,0,59,2.0,56.0
19594,77.0,0,29,0.0,90.0
19595,74.0,30,29,6.0,100.0
19596,41.0,0,59,3.0,90.0
19597,57.0,0,29,5.0,100.0
19598,62.0,0,59,8.0,100.0
19599,41.0,0,59,10.0,100.0
19600,77.0,0,29,4.0,100.0
19601,76.0,30,29,4.0,100.0
19602,73.0,0,29,6.0,100.0
19603,55.0,0,29,5.0,100.0
19604,76.0,0,29,0.0,90.0
19605,74.0,0,29,4.0,100.0
19606,53.0,0,29,5.0,100.0
19607,74.0,30,29,0.0,90.0
19608,74.0,0,29,6.0,100.0
19609,53.0,0,59,10.0,100.0
19610,41.0,0,59,7.0,100.0
19611,82.0,0,29,4.0,100.0
19612,82.0,0,29,0.0,90.0
19613,76.0,0,29,6.0,100.0
19614,52.0,30,29,5.0,100.0
19615,79.0,0,29,0.0,90.0
19616,55.0,0,59,10.0,100.0
19617,43.0,0,59,7.0,100.0
19618,43.0,0,59,3.0,90.0
19619,58.0,30,29,5.0,100.0
19620,79.0,0,29,4.0,100.0
19621,74.0,0,29,6.0,100.0
19622,64.0,0,119,2.0,56.0
19623,67.0,0,59,1.0,127.0
19624,64.0,0,119,8.0,100.0
19625,73.0,0,29,6.0,100.0
19626,57.0,0,29,5.0,100.0
19627,77.0,30,29,4.0,100.0
19628,77.0,0,29,0.0,90.0
19629,74.0,0,29,6.0,100.0
19630,55.0,0,29,5.0,100.0
19631,76.0,0,29,0.0,90.0
19632,55.0,0,59,7.0,100.0
19633,76.0,30,29,4.0,100.0
19634,43.0,0,59,10.0,100.0
19635,85.0,0,29,0.0,90.0
19636,85.0,0,29,4.0,100.0
19637,53.0,30,29,5.0,100.0
19638,77.0,0,29,6.0,100.0
19639,45.0,0,59,3.0,90.0
19640,81.0,0,29,4.0,100.0
19641,65.0,0,59,1.0,127.0
19642,57.0,0,29,5.0,100.0
19643,74.0,0,29,6.0,100.0
19644,57.0,0,59,7.0,100.0
19645,65.0,0,119,8.0,100.0
19646,45.0,0,59,10.0,100.0
19647,81.0,30,29,0.0,90.0
19648,65.0,0,119,2.0,56.0
19649,86.0,0,29,4.0,100.0
19650,86.0,0,29,0.0,90.0
19651,64.0,0,29,2.0,56.0
19652,55.0,0,29,5.0,100.0
19653,79.0,0,29,6.0,100.0
19654,64.0,0,29,8.0,100.0
19655,74.0,0,29,4.0,100.0
19656,46.0,0,59,3.0,90.0
19657,62.0,0,29,8.0,100.0
19658,74.0,30,29,0.0,90.0
19659,46.0,0,59,10.0,100.0
19660,58.0,30,59,7.0,100.0
19661,81.0,0,29,6.0,100.0
19662,53.0,0,29,5.0,100.0
19663,62.0,0,29,2.0,56.0
19664,81.0,0,29,4.0,100.0
19665,81.0,0,29,0.0,90.0
19666,65.0,0,29,8.0,100.0
19667,65.0,0,29,2.0,56.0
19668,82.0,0,29,6.0,100.0
19669,55.0,0,59,7.0,100.0
19670,43.0,0,59,10.0,100.0
19671,79.0,30,29,4.0,100.0
19672,70.0,0,29,6.0,100.0
19673,43.0,0,59,3.0,90.0
19674,64.0,0,29,8.0,100.0
19675,79.0,0,29,0.0,90.0
19676,70.0,0,119,1.0,127.0
19677,64.0,0,29,2.0,56.0
19678,55.0,30,59,5.0,100.0
19679,77.0,0,29,4.0,100.0
19680,62.0,0,29,2.0,56.0
19681,62.0,0,29,8.0,100.0
19682,69.0,0,29,6.0,100.0
19683,77.0,30,29,0.0,90.0
19684,45.0,0,59,10.0,100.0
19685,57.0,0,59,5.0,100.0
19686,67.0,30,29,6.0,100.0
19687,45.0,0,59,3.0,90.0
19688,76.0,0,29,4.0,100.0
19689,57.0,0,59,7.0,100.0
19690,69.0,0,59,1.0,127.0
19691,61.0,0,29,2.0,56.0
19692,76.0,0,29,0.0,90.0
19693,61.0,0,29,8.0,100.0
19694,77.0,30,29,4.0,100.0
19695,62.0,0,29,5.0,100.0
19696,50.0,30,29,5.0,100.0
19697,38.0,0,59,3.0,90.0
19698,69.0,0,59,1.0,127.0
19699,77.0,0,59,0.0,90.0
19700,69.0,0,29,4.0,100.0
19701,65.0,0,59,6.0,100.0
19702,62.0,0,59,8.0,100.0
19703,50.0,0,59,7.0,100.0
19704,38.0,0,59,10.0,100.0
19705,62.0,0,59,2.0,56.0
19706,74.0,0,29,4.0,100.0
19707,53.0,30,29,5.0,100.0
19708,57.0,0,29,5.0,100.0
19709,77.0,30,29,4.0,100.0
19710,62.0,30,29,5.0,100.0
19711,81.0,0,29,4.0,100.0
19712,57.0,0,29,5.0,100.0
19713,74.0,30,29,4.0,100.0
19714,81.0,0,59,0.0,90.0
19715,62.0,0,119,3.0,90.0
19716,69.0,0,59,1.0,127.0
19717,65.0,0,59,2.0,56.0
19718,77.0,0,29,4.0,100.0
19719,62.0,30,29,5.0,100.0
19720,81.0,0,29,4.0,100.0
19721,60.0,0,59,3.0,90.0
19722,65.0,30,29,5.0,100.0
19723,86.0,0,29,4.0,100.0
19724,70.0,30,29,5.0,100.0
19725,74.0,0,29,5.0,100.0
19726,74.0,0,59,0.0,90.0
19727,58.0,0,59,3.0,90.0
19728,70.0,0,59,1.0,127.0
19729,82.0,30,29,4.0,100.0
19730,65.0,0,59,2.0,56.0
19731,81.0,0,29,4.0,100.0
19732,72.0,0,29,5.0,100.0
19733,58.0,0,59,7.0,100.0
19734,65.0,0,59,6.0,100.0
19735,70.0,30,29,5.0,100.0
19736,79.0,0,29,4.0,100.0
19737,74.0,30,59,6.0,100.0
19738,84.0,0,29,4.0,100.0
19739,69.0,0,29,5.0,100.0
19740,81.0,0,29,4.0,100.0
19741,57.0,0,59,3.0,90.0
19742,78.0,0,59,6.0,100.0
19743,69.0,0,59,6.0,100.0
19744,72.0,30,29,5.0,100.0
19745,57.0,30,59,7.0,100.0
19746,79.0,0,29,4.0,100.0
19747,70.0,30,29,5.0,100.0
19748,69.0,30,29,5.0,100.0
19749,72.0,0,59,6.0,100.0
19750,78.0,0,29,4.0,100.0
19751,81.0,0,59,6.0,100.0
19752,45.0,0,59,7.0,100.0
19753,67.0,0,29,5.0,100.0
19754,82.0,0,29,4.0,100.0
19755,82.0,0,59,6.0,100.0
19756,79.0,0,29,4.0,100.0
19757,74.0,30,59,6.0,100.0
19758,82.0,0,59,0.0,90.0
19759,67.0,0,59,2.0,56.0
19760,70.0,30,29,5.0,100.0
19761,43.0,0,59,7.0,100.0
19762,43.0,0,59,3.0,90.0
19763,74.0,0,59,1.0,127.0
19764,77.0,0,29,4.0,100.0
19765,69.0,0,29,5.0,100.0
19766,76.0,30,29,4.0,100.0
19767,67.0,0,29,5.0,100.0
19768,81.0,0,29,4.0,100.0
19769,62.0,30,29,5.0,100.0
19770,86.0,0,59,0.0,90.0
19771,74.0,0,59,1.0,127.0
19772,69.0,0,59,2.0,56.0
19773,69.0,0,29,5.0,100.0
19774,77.0,30,29,4.0,100.0
19775,55.0,30,119,3.0,90.0
19776,67.0,30,29,5.0,100.0
19777,76.0,0,29,4.0,100.0
19778,65.0,30,29,5.0,100.0
19779,74.0,0,29,4.0,100.0
19780,53.0,0,59,3.0,90.0
19781,64.0,0,29,5.0,100.0
19782,79.0,30,29,4.0,100.0
19783,67.0,0,29,5.0,100.0
19784,52.0,0,59,3.0,90.0
19785,79.0,0,59,0.0,90.0
19786,76.0,0,59,1.0,127.0
19787,72.0,0,59,2.0,56.0
19788,76.0,30,29,4.0,100.0
19789,74.0,0,29,4.0,100.0
19790,65.0,0,29,5.0,100.0
19791,60.0,0,59,8.0,100.0
19792,52.0,0,59,10.0,100.0
19793,72.0,30,29,4.0,100.0
19794,64.0,0,29,5.0,100.0
19795,67.0,30,59,8.0,100.0
19796,62.0,0,29,5.0,100.0
19797,77.0,0,29,4.0,100.0
19798,74.0,30,29,4.0,100.0
19799,62.0,0,59,8.0,100.0
19800,50.0,0,59,3.0,90.0
19801,65.0,0,29,5.0,100.0
19802,50.0,0,59,10.0,100.0
19803,71.0,30,59,8.0,100.0
19804,72.0,0,29,4.0,100.0
19805,64.0,30,29,5.0,100.0
19806,71.0,0,29,4.0,100.0
19807,38.0,0,59,10.0,100.0
19808,65.0,0,59,8.0,100.0
19809,74.0,0,59,8.0,100.0
19810,62.0,30,29,5.0,100.0
19811,76.0,0,29,4.0,100.0
19812,60.0,0,29,5.0,100.0
19813,64.0,0,29,5.0,100.0
19814,36.0,30,59,10.0,100.0
19815,67.0,0,59,1.0,127.0
19816,76.0,0,59,0.0,90.0
19817,67.0,0,59,8.0,100.0
19818,72.0,30,29,4.0,100.0
19819,60.0,0,59,2.0,56.0
19820,76.0,0,59,8.0,100.0
19821,48.0,0,59,3.0,90.0
19822,71.0,0,29,4.0,100.0
19823,62.0,30,29,5.0,100.0
19824,69.0,30,29,4.0,100.0
19825,60.0,0,29,5.0,100.0
19826,55.0,0,29,5.0,100.0
19827,74.0,0,29,4.0,100.0
19828,62.0,30,59,2.0,56.0
19829,70.0,30,29,4.0,100.0
19830,62.0,0,29,5.0,100.0
19831,60.0,0,119,3.0,90.0
19832,79.0,0,59,0.0,90.0
19833,67.0,0,59,1.0,127.0
19834,60.0,30,29,5.0,100.0
19835,69.0,0,29,4.0,100.0
19836,58.0,0,59,3.0,90.0
19837,58.0,30,29,5.0,100.0
19838,67.0,0,29,4.0,100.0
19839,72.0,30,29,4.0,100.0
19840,57.0,0,29,5.0,100.0
19841,69.0,30,29,4.0,100.0
19842,60.0,0,29,5.0,100.0
19843,69.0,0,59,1.0,127.0
19844,57.0,0,59,3.0,90.0
19845,72.0,0,59,0.0,90.0
19846,64.0,0,59,2.0,56.0
19847,67.0,0,29,4.0,100.0
19848,58.0,0,29,5.0,100.0
19849,65.0,0,29,4.0,100.0
19850,57.0,30,29,5.0,100.0
19851,72.0,30,59,6.0,100.0
19852,57.0,0,59,7.0,100.0
19853,64.0,0,59,6.0,100.0
19854,70.0,0,29,4.0,100.0
19855,55.0,0,29,5.0,100.0
19856,55.0,0,59,7.0,100.0
19857,58.0,0,29,5.0,100.0
19858,67.0,30,59,6.0,100.0
19859,76.0,0,59,6.0,100.0
19860,67.0,30,29,4.0,100.0
19861,55.0,0,59,3.0,90.0
19862,65.0,0,29,4.0,100.0
19863,57.0,0,29,5.0,100.0
19864,70.0,0,59,6.0,100.0
19865,79.0,0,59,6.0,100.0
19866,64.0,30,29,4.0,100.0
19867,55.0,0,29,5.0,100.0
19868,43.0,30,59,7.0,100.0
19869,53.0,0,29,5.0,100.0
19870,69.0,0,29,4.0,100.0
19871,72.0,0,59,1.0,127.0
19872,81.0,0,59,0.0,90.0
19873,41.0,0,59,3.0,90.0
19874,41.0,0,59,7.0,100.0
19875,65.0,30,29,4.0,100.0
19876,65.0,0,59,2.0,56.0
19877,72.0,30,59,6.0,100.0
19878,81.0,0,59,6.0,100.0
19879,57.0,0,29,5.0,100.0
19880,55.0,0,29,5.0,100.0
19881,64.0,0,29,4.0,100.0
19882,53.0,30,29,5.0,100.0
19883,62.0,0,29,4.0,100.0
19884,67.0,0,29,4.0,100.0
19885,48.0,30,29,5.0,100.0
19886,84.0,0,59,0.0,90.0
19887,55.0,30,29,5.0,100.0
19888,53.0,30,119,3.0,90.0
19889,67.0,0,59,2.0,56.0
19890,72.0,0,59,1.0,127.0
19891,63.0,0,29,4.0,100.0
19892,62.0,30,29,4.0,100.0
19893,53.0,0,29,5.0,100.0
19894,51.0,0,29,5.0,100.0
19895,60.0,30,29,4.0,100.0
19896,51.0,0,59,3.0,90.0
19897,50.0,0,29,5.0,100.0
19898,65.0,0,29,4.0,100.0
19899,62.0,0,29,4.0,100.0
19900,70.0,0,59,2.0,56.0
19901,53.0,30,29,5.0,100.0
19902,74.0,0,59,1.0,127.0
19903,77.0,30,59,0.0,90.0
19904,50.0,0,59,3.0,90.0
19905,51.0,0,29,5.0,100.0
19906,60.0,30,29,4.0,100.0
19907,58.0,0,59,8.0,100.0
19908,38.0,0,59,10.0,100.0
19909,65.0,0,59,8.0,100.0
19910,58.0,30,29,4.0,100.0
19911,50.0,0,29,5.0,100.0
19912,63.0,0,29,4.0,100.0
19913,48.0,0,29,5.0,100.0
19914,48.0,30,59,3.0,90.0
19915,60.0,0,59,8.0,100.0
19916,69.0,0,59,8.0,100.0
19917,36.0,0,59,10.0,100.0
19918,60.0,0,29,4.0,100.0
19919,51.0,30,29,5.0,100.0
19920,50.0,0,29,5.0,100.0
19921,58.0,30,29,4.0,100.0
19922,48.0,0,59,10.0,100.0
19923,57.0,0,29,4.0,100.0
19924,72.0,0,59,8.0,100.0
19925,48.0,30,29,5.0,100.0
19926,63.0,0,59,8.0,100.0
19927,46.0,0,29,5.0,100.0
19928,62.0,30,29,4.0,100.0
19929,50.0,30,29,5.0,100.0
19930,46.0,0,59,10.0,100.0
19931,58.0,0,29,4.0,100.0
19932,65.0,0,59,1.0,127.0
19933,46.0,0,59,3.0,90.0
19934,74.0,0,59,0.0,90.0
19935,65.0,0,59,8.0,100.0
19936,74.0,0,59,8.0,100.0
19937,58.0,0,59,2.0,56.0
19938,57.0,0,29,4.0,100.0
19939,48.0,30,29,5.0,100.0
19940,55.0,30,29,4.0,100.0
19941,46.0,0,29,5.0,100.0
19942,60.0,30,29,4.0,100.0
19943,41.0,0,29,5.0,100.0
19944,60.0,0,59,2.0,56.0
19945,57.0,30,29,4.0,100.0
19946,48.0,0,29,5.0,100.0
19947,65.0,0,59,1.0,127.0
19948,58.0,0,119,3.0,90.0
19949,77.0,0,59,0.0,90.0
19950,46.0,0,29,5.0,100.0
19951,55.0,30,29,4.0,100.0
19952,57.0,0,59,3.0,90.0
19953,53.0,0,29,4.0,100.0
19954,45.0,30,29,5.0,100.0
19955,58.0,30,29,4.0,100.0
19956,43.0,0,29,5.0,100.0
19957,55.0,0,59,3.0,90.0
19958,62.0,0,59,2.0,56.0
19959,46.0,30,29,5.0,100.0
19960,67.0,0,59,1.0,127.0
19961,55.0,0,29,4.0,100.0
19962,70.0,0,59,0.0,90.0
19963,45.0,30,29,5.0,100.0
19964,53.0,0,29,4.0,100.0
19965,70.0,0,59,6.0,100.0
19966,62.0,0,59,6.0,100.0
19967,43.0,30,29,5.0,100.0
19968,52.0,0,29,4.0,100.0
19969,55.0,0,59,7.0,100.0
19970,57.0,0,29,4.0,100.0
19971,41.0,0,29,5.0,100.0
19972,65.0,30,59,6.0,100.0
19973,53.0,0,59,7.0,100.0
19974,74.0,0,59,6.0,100.0
19975,45.0,0,29,5.0,100.0
19976,53.0,30,29,4.0,100.0
19977,53.0,0,59,3.0,90.0
19978,52.0,30,29,4.0,100.0
19979,43.0,0,29,5.0,100.0
19980,41.0,0,59,7.0,100.0
19981,77.0,0,59,6.0,100.0
19982,69.0,0,59,6.0,100.0
19983,50.0,30,29,4.0,100.0
19984,41.0,0,29,5.0,100.0
19985,40.0,0,29,5.0,100.0
19986,55.0,0,29,5.0,100.0
19987,70.0,0,59,6.0,100.0
19988,52.0,30,29,5.0,100.0
19989,61.0,0,59,2.0,56.0
19990,41.0,0,59,3.0,90.0
19991,79.0,0,59,6.0,100.0
19992,79.0,0,59,0.0,90.0
19993,40.0,30,59,7.0,100.0
19994,43.0,0,29,5.0,100.0
19995,70.0,0,59,1.0,127.0
19996,50.0,30,29,5.0,100.0
19997,41.0,0,29,5.0,100.0
19998,40.0,30,29,5.0,100.0
19999,49.0,0,29,5.0,100.0
20000,38.0,0,29,5.0,100.0
20001,53.0,0,29,5.0,100.0
20002,62.0,0,59,2.0,56.0
20003,82.0,30,59,0.0,90.0
20004,41.0,30,29,5.0,100.0
20005,50.0,0,29,5.0,100.0
20006,52.0,0,119,3.0,90.0
20007,65.0,0,59,1.0,127.0
20008,49.0,0,29,5.0,100.0
20009,40.0,0,29,5.0,100.0
20010,38.0,30,29,5.0,100.0
20011,50.0,30,59,3.0,90.0
20012,47.0,0,29,5.0,100.0
20013,37.0,0,29,5.0,100.0
20014,52.0,0,29,5.0,100.0
20015,69.0,0,59,1.0,127.0
20016,64.0,0,59,2.0,56.0
20017,49.0,0,29,5.0,100.0
20018,40.0,30,29,5.0,100.0
20019,76.0,30,59,0.0,90.0
20020,49.0,0,59,3.0,90.0
20021,38.0,0,29,5.0,100.0
20022,47.0,30,29,5.0,100.0
20023,45.0,0,29,5.0,100.0
20024,64.0,0,59,8.0,100.0
20025,37.0,30,29,5.0,100.0
20026,69.0,0,59,8.0,100.0
20027,49.0,0,59,10.0,100.0
20028,50.0,0,29,5.0,100.0
20029,35.0,0,29,5.0,100.0
20030,68.0,30,59,8.0,100.0
20031,62.0,0,59,8.0,100.0
20032,38.0,30,29,5.0,100.0
20033,47.0,0,59,3.0,90.0
20034,47.0,0,59,10.0,100.0
20035,47.0,0,29,5.0,100.0
20036,37.0,0,29,5.0,100.0
20037,45.0,0,29,5.0,100.0
20038,62.0,0,59,8.0,100.0
20039,71.0,30,59,8.0,100.0
20040,35.0,0,29,5.0,100.0
20041,44.0,30,29,5.0,100.0
20042,59.0,0,59,10.0,100.0
20043,52.0,30,14,5.0,100.0
20044,49.0,15,14,5.0,100.0
20045,45.0,15,14,5.0,100.0
20046,73.0,0,59,8.0,100.0
20047,73.0,0,59,0.0,90.0
20048,64.0,0,59,2.0,56.0
20049,33.0,0,59,5.0,100.0
20050,64.0,0,59,8.0,100.0
20051,57.0,0,59,10.0,100.0
20052,47.0,15,14,5.0,100.0
20053,69.0,0,59,1.0,127.0
20054,45.0,0,59,3.0,90.0
20055,49.0,15,14,5.0,100.0
20056,50.0,15,14,5.0,100.0
20057,52.0,15,14,5.0,100.0
20058,53.0,15,14,5.0,100.0
20059,55.0,0,14,5.0,100.0
20060,57.0,15,14,5.0,100.0
20061,59.0,15,14,5.0,100.0
20062,57.0,0,119,3.0,90.0
20063,61.0,0,59,2.0,56.0
20064,76.0,15,59,0.0,90.0
20065,61.0,15,14,5.0,100.0
20066,64.0,0,59,1.0,127.0
20067,62.0,15,14,5.0,100.0
20068,64.0,15,14,5.0,100.0
20069,65.0,15,14,5.0,100.0
20070,67.0,15,14,5.0,100.0
20071,55.0,0,59,3.0,90.0
20072,69.0,0,14,4.0,100.0
20073,65.0,15,14,4.0,100.0
20074,62.0,15,14,4.0,100.0
20075,62.0,15,59,2.0,56.0
20076,65.0,0,59,1.0,127.0
20077,64.0,15,14,4.0,100.0
20078,69.0,0,59,0.0,90.0
20079,53.0,0,59,3.0,90.0
20080,65.0,0,14,4.0,100.0
20081,67.0,15,14,4.0,100.0
20082,69.0,15,14,4.0,100.0
20083,41.0,0,59,7.0,100.0
20084,71.0,15,14,4.0,100.0
20085,69.0,0,59,6.0,100.0
20086,74.0,15,59,6.0,100.0
20087,73.0,0,14,4.0,100.0
20088,74.0,15,14,4.0,100.0
20089,76.0,15,14,4.0,100.0
20090,67.0,0,59,6.0,100.0
20091,52.0,0,59,3.0,90.0
20092,77.0,15,14,4.0,100.0
20093,73.0,15,59,6.0,100.0
20094,40.0,0,59,7.0,100.0
20095,79.0,15,14,4.0,100.0
20096,81.0,15,14,4.0,100.0
20097,83.0,15,14,4.0,100.0
20098,52.0,0,59,7.0,100.0
20099,73.0,0,59,6.0,100.0
20100,76.0,0,59,6.0,100.0
20101,85.0,15,14,4.0,100.0
20102,62.0,0,29,5.0,100.0
20103,57.0,0,29,7.0,100.0
20104,50.0,0,29,7.0,100.0
20105,53.0,0,29,10.0,100.0
20106,50.0,0,59,3.0,90.0
20107,64.0,0,29,5.0,100.0
20108,86.0,0,59,4.0,100.0
20109,65.0,15,59,1.0,127.0
20110,77.0,0,59,6.0,100.0
20111,69.0,0,59,0.0,90.0
20112,69.0,0,59,2.0,56.0
20113,55.0,0,29,7.0,100.0
20114,69.0,0,59,8.0,100.0
20115,52.0,30,29,10.0,100.0
20116,69.0,0,59,6.0,100.0
20117,50.0,0,29,10.0,100.0
20118,65.0,0,29,5.0,100.0
20119,53.0,0,29,7.0,100.0
20120,53.0,0,29,10.0,100.0
20121,62.0,30,29,5.0,100.0
20122,57.0,0,29,7.0,100.0
20123,55.0,0,29,7.0,100.0
20124,58.0,30,29,10.0,100.0
20125,64.0,0,29,5.0,100.0
20126,74.0,0,119,8.0,100.0
20127,74.0,0,119,4.0,100.0
20128,57.0,0,29,10.0,100.0
20129,64.0,0,59,1.0,127.0
20130,53.0,30,29,7.0,100.0
20131,74.0,0,119,0.0,90.0
20132,52.0,0,59,3.0,90.0
20133,65.0,0,29,5.0,100.0
20134,67.0,0,59,2.0,56.0
20135,74.0,30,119,6.0,100.0
20136,67.0,0,29,5.0,100.0
20137,52.0,0,29,7.0,100.0
20138,55.0,0,29,10.0,100.0
20139,64.0,30,29,5.0,100.0
20140,73.0,0,59,8.0,100.0
20141,57.0,0,29,10.0,100.0
20142,73.0,30,59,0.0,90.0
20143,57.0,0,29,7.0,100.0
20144,73.0,0,59,4.0,100.0
20145,73.0,0,59,6.0,100.0
20146,53.0,0,29,10.0,100.0
20147,50.0,0,29,7.0,100.0
20148,65.0,0,29,5.0,100.0
20149,74.0,0,59,8.0,100.0
20150,69.0,30,59,1.0,127.0
20151,74.0,0,59,0.0,90.0
20152,69.0,0,29,5.0,100.0
20153,50.0,0,29,10.0,100.0
20154,53.0,0,59,3.0,90.0
20155,53.0,30,29,7.0,100.0
20156,74.0,0,59,6.0,100.0
20157,74.0,0,59,4.0,100.0
20158,65.0,0,59,2.0,56.0
20159,58.0,0,29,10.0,100.0
20160,55.0,0,29,7.0,100.0
20161,67.0,0,29,5.0,100.0
20162,57.0,0,29,7.0,100.0
20163,57.0,30,29,10.0,100.0
20164,65.0,0,29,5.0,100.0
20165,64.0,0,29,5.0,100.0
20166,58.0,0,29,7.0,100.0
20167,55.0,30,29,10.0,100.0
20168,70.0,0,59,2.0,56.0
20169,76.0,0,119,8.0,100.0
20170,55.0,0,59,3.0,90.0
20171,76.0,0,119,6.0,100.0
20172,76.0,30,119,4.0,100.0
20173,67.0,0,59,1.0,127.0
20174,55.0,30,29,7.0,100.0
20175,76.0,0,119,0.0,90.0
20176,62.0,0,29,5.0,100.0
20177,58.0,0,29,10.0,100.0
20178,61.0,0,29,5.0,100.0
20179,57.0,0,29,7.0,100.0
20180,57.0,30,29,10.0,100.0
20181,59.0,0,29,7.0,100.0
20182,55.0,0,29,10.0,100.0
20183,59.0,30,29,5.0,100.0
20184,53.0,0,29,10.0,100.0
20185,61.0,0,29,7.0,100.0
20186,77.0,0,119,6.0,100.0
20187,57.0,0,59,5.0,100.0
20188,77.0,0,119,4.0,100.0
20189,57.0,0,59,3.0,90.0
20190,77.0,0,119,0.0,90.0
20191,50.0,0,29,10.0,100.0
20192,57.0,30,29,7.0,100.0
20193,69.0,0,59,2.0,56.0
20194,77.0,0,119,8.0,100.0
20195,61.0,30,59,1.0,127.0
20196,76.0,0,29,0.0,90.0
20197,76.0,0,29,4.0,100.0
20198,76.0,0,29,6.0,100.0
20199,76.0,0,29,8.0,100.0
20200,74.0,0,29,0.0,90.0
20201,74.0,0,29,8.0,100.0
20202,58.0,0,59,3.0,90.0
20203,58.0,0,59,10.0,100.0
20204,65.0,30,59,2.0,56.0
20205,74.0,0,29,6.0,100.0
20206,62.0,0,59,7.0,100.0
20207,74.0,30,29,4.0,100.0
20208,62.0,0,59,1.0,127.0
20209,58.0,0,59,5.0,100.0
20210,77.0,30,29,4.0,100.0
20211,77.0,0,29,8.0,100.0
20212,77.0,0,29,6.0,100.0
20213,77.0,0,29,0.0,90.0
20214,76.0,0,29,0.0,90.0
20215,67.0,0,59,2.0,56.0
20216,55.0,0,59,10.0,100.0
20217,55.0,0,59,3.0,90.0
20218,70.0,0,59,1.0,127.0
20219,76.0,0,29,6.0,100.0
20220,55.0,0,59,7.0,100.0
20221,76.0,0,29,4.0,100.0
20222,55.0,0,59,5.0,100.0
20223,76.0,30,29,8.0,100.0
20224,74.0,0,29,6.0,100.0
20225,74.0,0,29,0.0,90.0
20226,74.0,0,29,4.0,100.0
20227,74.0,30,29,8.0,100.0
20228,57.0,0,59,5.0,100.0
20229,57.0,0,59,10.0,100.0
20230,57.0,0,59,3.0,90.0
20231,73.0,0,29,0.0,90.0
20232,69.0,0,59,1.0,127.0
20233,57.0,0,59,7.0,100.0
20234,73.0,0,29,4.0,100.0
20235,73.0,0,29,8.0,100.0
20236,73.0,30,29,6.0,100.0
20237,64.0,0,59,2.0,56.0
20238,74.0,0,29,6.0,100.0
20239,74.0,0,29,4.0,100.0
20240,50.0,0,59,10.0,100.0
20241,46.0,0,59,10.0,100.0
20242,72.0,0,29,6.0,100.0
20243,53.0,0,59,10.0,100.0
20244,58.0,0,59,3.0,90.0
20245,65.0,0,59,1.0,127.0
20246,50.0,0,59,7.0,100.0
20247,58.0,0,59,5.0,100.0
20248,76.0,30,29,4.0,100.0
20249,74.0,0,59,8.0,100.0
20250,62.0,0,59,2.0,56.0
20251,74.0,30,59,0.0,90.0
20252,70.0,0,29,6.0,100.0
20253,77.0,0,29,4.0,100.0
20254,58.0,0,59,7.0,100.0
20255,69.0,0,29,6.0,100.0
20256,46.0,0,59,5.0,100.0
20257,74.0,30,29,4.0,100.0
20258,67.0,0,29,6.0,100.0
20259,79.0,0,29,4.0,100.0
20260,50.0,0,59,10.0,100.0
20261,81.0,30,29,6.0,100.0
20262,47.0,0,59,5.0,100.0
20263,67.0,30,59,2.0,56.0
20264,59.0,0,59,7.0,100.0
20265,55.0,0,59,10.0,100.0
20266,47.0,0,59,10.0,100.0
20267,74.0,0,59,1.0,127.0
20268,77.0,0,29,4.0,100.0
20269,74.0,30,119,0.0,90.0
20270,59.0,0,59,3.0,90.0
20271,74.0,0,119,8.0,100.0
20272,76.0,0,29,4.0,100.0
20273,79.0,0,29,6.0,100.0
20274,47.0,0,59,7.0,100.0
20275,59.0,0,59,5.0,100.0
20276,74.0,0,29,4.0,100.0
20277,77.0,30,29,6.0,100.0
20278,76.0,0,29,4.0,100.0
20279,76.0,0,29,6.0,100.0
20280,67.0,0,59,2.0,56.0
20281,72.0,0,59,1.0,127.0
20282,74.0,0,29,6.0,100.0
20283,52.0,30,59,10.0,100.0
20284,79.0,30,119,8.0,100.0
20285,48.0,0,59,7.0,100.0
20286,55.0,0,59,10.0,100.0
20287,48.0,0,59,10.0,100.0
20288,79.0,0,119,0.0,90.0
20289,77.0,30,29,4.0,100.0
20290,60.0,0,59,3.0,90.0
20291,60.0,0,59,5.0,100.0
20292,79.0,0,29,4.0,100.0
20293,72.0,30,29,6.0,100.0
20294,60.0,0,59,7.0,100.0
20295,70.0,0,29,6.0,100.0
20296,76.0,30,29,4.0,100.0
20297,48.0,0,59,5.0,100.0
20298,69.0,0,29,6.0,100.0
20299,81.0,30,29,4.0,100.0
20300,61.0,0,59,7.0,100.0
20301,69.0,0,59,2.0,56.0
20302,61.0,0,59,3.0,90.0
20303,82.0,30,29,6.0,100.0
20304,49.0,0,59,10.0,100.0
20305,52.0,0,59,10.0,100.0
20306,57.0,0,59,10.0,100.0
20307,49.0,0,59,5.0,100.0
20308,76.0,0,119,0.0,90.0
20309,76.0,0,59,1.0,127.0
20310,79.0,0,29,4.0,100.0
20311,76.0,0,119,8.0,100.0
20312,77.0,0,29,4.0,100.0
20313,81.0,30,29,6.0,100.0
20314,81.0,0,59,8.0,100.0
20315,81.0,0,59,0.0,90.0
20316,61.0,0,59,5.0,100.0
20317,76.0,30,29,4.0,100.0
20318,79.0,0,29,6.0,100.0
20319,49.0,0,59,7.0,100.0
20320,79.0,0,29,4.0,100.0
20321,79.0,0,29,8.0,100.0
20322,79.0,0,29,6.0,100.0
20323,79.0,30,29,0.0,90.0
20324,77.0,0,29,8.0,100.0
20325,77.0,0,29,4.0,100.0
20326,74.0,0,59,1.0,127.0
20327,62.0,0,59,5.0,100.0
20328,77.0,30,29,6.0,100.0
20329,69.0,0,59,2.0,56.0
20330,50.0,0,59,7.0,100.0
20331,53.0,0,59,10.0,100.0
20332,77.0,0,29,0.0,90.0
20333,62.0,0,59,3.0,90.0
20334,57.0,0,59,10.0,100.0
20335,50.0,0,59,10.0,100.0
20336,76.0,0,29,4.0,100.0
20337,76.0,0,29,6.0,100.0
20338,76.0,0,29,0.0,90.0
20339,76.0,0,29,8.0,100.0
20340,58.0,30,59,5.0,100.0
20341,74.0,30,29,8.0,100.0
20342,74.0,0,29,6.0,100.0
20343,46.0,0,59,7.0,100.0
20344,74.0,0,29,4.0,100.0
20345,65.0,0,59,1.0,127.0
20346,70.0,0,59,2.0,56.0
20347,74.0,0,29,0.0,90.0
20348,46.0,0,59,10.0,100.0
20349,58.0,0,59,3.0,90.0
20350,77.0,0,29,8.0,100.0
20351,77.0,0,29,0.0,90.0
20352,77.0,0,29,6.0,100.0
20353,77.0,0,29,4.0,100.0
20354,70.0,0,59,2.0,56.0
20355,55.0,30,59,5.0,100.0
20356,55.0,0,59,3.0,90.0
20357,43.0,0,59,7.0,100.0
20358,67.0,0,59,1.0,127.0
20359,76.0,0,29,0.0,90.0
20360,76.0,0,29,6.0,100.0
20361,43.0,0,59,10.0,100.0
20362,76.0,0,29,4.0,100.0
20363,76.0,30,29,8.0,100.0
20364,74.0,0,29,6.0,100.0
20365,74.0,0,29,4.0,100.0
20366,74.0,0,29,8.0,100.0
20367,74.0,0,29,0.0,90.0
20368,45.0,0,59,10.0,100.0
20369,64.0,0,59,1.0,127.0
20370,73.0,0,29,6.0,100.0
20371,45.0,30,59,7.0,100.0
20372,57.0,0,59,3.0,90.0
20373,73.0,30,29,0.0,90.0
20374,73.0,0,29,8.0,100.0
20375,73.0,0,29,4.0,100.0
20376,69.0,0,59,2.0,56.0
20377,57.0,0,59,5.0,100.0
20378,74.0,0,19,6.0,100.0
20379,74.0,0,19,8.0,100.0
20380,74.0,0,19,4.0,100.0
20381,50.0,0,29,7.0,100.0
20382,50.0,0,29,5.0,100.0
20383,50.0,0,29,10.0,100.0
20384,76.0,20,19,4.0,100.0
20385,76.0,0,19,6.0,100.0
20386,76.0,0,19,8.0,100.0
20387,74.0,0,19,8.0,100.0
20388,69.0,30,59,2.0,56.0
20389,57.0,0,29,7.0,100.0
20390,57.0,10,29,5.0,100.0
20391,65.0,0,59,1.0,127.0
20392,74.0,0,19,4.0,100.0
20393,50.0,0,59,3.0,90.0
20394,74.0,10,19,6.0,100.0
20395,57.0,0,29,10.0,100.0
20396,76.0,0,14,4.0,100.0
20397,76.0,0,14,8.0,100.0
20398,76.0,20,14,6.0,100.0
20399,55.0,0,29,7.0,100.0
20400,55.0,0,29,10.0,100.0
20401,55.0,0,29,5.0,100.0
20402,74.0,0,14,4.0,100.0
20403,74.0,0,14,8.0,100.0
20404,74.0,15,14,6.0,100.0
20405,76.0,0,14,6.0,100.0
20406,76.0,0,14,8.0,100.0
20407,76.0,0,14,4.0,100.0
20408,53.0,15,29,5.0,100.0
20409,74.0,0,14,8.0,100.0
20410,53.0,0,29,10.0,100.0
20411,74.0,0,14,4.0,100.0
20412,53.0,0,29,7.0,100.0
20413,74.0,15,14,6.0,100.0
20414,76.0,0,14,8.0,100.0
20415,76.0,0,14,6.0,100.0
20416,76.0,15,14,4.0,100.0
20417,74.0,0,14,6.0,100.0
20418,58.0,0,29,7.0,100.0
20419,74.0,15,14,8.0,100.0
20420,74.0,0,14,4.0,100.0
20421,58.0,0,29,10.0,100.0
20422,58.0,0,29,5.0,100.0
20423,76.0,0,14,8.0,100.0
20424,76.0,15,14,6.0,100.0
20425,76.0,0,14,4.0,100.0
20426,55.0,0,29,7.0,100.0
20427,67.0,0,59,2.0,56.0
20428,58.0,0,59,1.0,127.0
20429,55.0,0,29,5.0,100.0
20430,55.0,0,59,3.0,90.0
20431,55.0,0,29,10.0,100.0
20432,74.0,0,14,8.0,100.0
20433,74.0,0,14,6.0,100.0
20434,74.0,15,14,4.0,100.0
20435,76.0,0,14,6.0,100.0
20436,76.0,0,14,8.0,100.0
20437,76.0,0,14,4.0,100.0
20438,53.0,15,29,10.0,100.0
20439,74.0,0,14,4.0,100.0
20440,53.0,0,29,7.0,100.0
20441,74.0,0,14,8.0,100.0
20442,74.0,15,14,6.0,100.0
20443,53.0,0,29,5.0,100.0
20444,76.0,15,14,4.0,100.0
20445,76.0,0,14,6.0,100.0
20446,76.0,0,14,8.0,100.0
20447,52.0,0,29,5.0,100.0
20448,74.0,15,14,6.0,100.0
20449,52.0,0,29,10.0,100.0
20450,74.0,0,14,4.0,100.0
20451,74.0,0,14,8.0,100.0
20452,52.0,0,29,7.0,100.0
20453,76.0,15,14,6.0,100.0
20454,76.0,0,14,8.0,100.0
20455,76.0,0,14,4.0,100.0
20456,57.0,0,29,5.0,100.0
20457,74.0,0,14,6.0,100.0
20458,74.0,0,14,8.0,100.0
20459,57.0,0,29,7.0,100.0
20460,74.0,15,14,4.0,100.0
20461,57.0,0,29,10.0,100.0
20462,76.0,0,14,6.0,100.0
20463,76.0,0,14,8.0,100.0
20464,76.0,0,14,4.0,100.0
20465,53.0,0,29,7.0,100.0
20466,74.0,0,14,8.0,100.0
20467,53.0,0,59,3.0,90.0
20468,62.0,0,59,1.0,127.0
20469,53.0,0,29,10.0,100.0
20470,53.0,15,29,5.0,100.0
20471,69.0,0,59,2.0,56.0
20472,74.0,15,14,4.0,100.0
20473,74.0,0,14,6.0,100.0
20474,76.0,0,14,6.0,100.0
20475,76.0,0,14,8.0,100.0
20476,76.0,0,14,4.0,100.0
20477,74.0,15,14,6.0,100.0
20478,52.0,15,29,7.0,100.0
20479,74.0,0,14,8.0,100.0
20480,52.0,0,29,5.0,100.0
20481,74.0,0,14,4.0,100.0
20482,52.0,0,29,10.0,100.0
20483,76.0,0,14,8.0,100.0
20484,76.0,0,14,4.0,100.0
20485,76.0,0,14,6.0,100.0
20486,50.0,15,29,7.0,100.0
20487,74.0,0,14,8.0,100.0
20488,50.0,0,29,5.0,100.0
20489,74.0,15,14,4.0,100.0
20490,50.0,0,29,10.0,100.0
20491,74.0,0,14,6.0,100.0
20492,76.0,0,14,4.0,100.0
20493,76.0,15,14,6.0,100.0
20494,76.0,0,14,8.0,100.0
20495,74.0,0,14,8.0,100.0
20496,55.0,0,29,10.0,100.0
20497,74.0,15,14,4.0,100.0
20498,55.0,0,29,7.0,100.0
20499,55.0,0,29,5.0,100.0
20500,74.0,0,14,6.0,100.0
20501,76.0,15,14,8.0,100.0
20502,76.0,0,14,4.0,100.0
20503,76.0,0,14,6.0,100.0
20504,74.0,0,14,6.0,100.0
20505,52.0,0,59,3.0,90.0
20506,74.0,15,14,8.0,100.0
20507,74.0,0,14,4.0,100.0
20508,53.0,0,29,7.0,100.0
20509,64.0,0,59,1.0,127.0
20510,70.0,0,59,2.0,56.0
20511,53.0,0,29,10.0,100.0
20512,53.0,0,29,5.0,100.0
20513,76.0,0,14,4.0,100.0
20514,76.0,0,14,6.0,100.0
20515,76.0,15,14,8.0,100.0
20516,74.0,15,14,4.0,100.0
20517,52.0,0,29,10.0,100.0
20518,74.0,0,14,6.0,100.0
20519,52.0,0,29,5.0,100.0
20520,52.0,0,29,7.0,100.0
20521,74.0,0,14,8.0,100.0
20522,76.0,0,14,8.0,100.0
20523,76.0,0,14,4.0,100.0
20524,76.0,15,14,6.0,100.0
20525,74.0,0,14,6.0,100.0
20526,74.0,0,14,8.0,100.0
20527,50.0,0,29,5.0,100.0
20528,50.0,0,29,10.0,100.0
20529,50.0,0,29,7.0,100.0
20530,74.0,15,14,4.0,100.0
20531,76.0,0,14,8.0,100.0
20532,76.0,0,14,4.0,100.0
20533,76.0,0,14,6.0,100.0
20534,57.0,0,29,7.0,100.0
20535,57.0,0,29,5.0,100.0
20536,57.0,0,29,10.0,100.0
20537,74.0,0,14,6.0,100.0
20538,74.0,15,14,4.0,100.0
20539,74.0,0,14,8.0,100.0
20540,76.0,0,14,4.0,100.0
20541,76.0,0,14,8.0,100.0
20542,76.0,0,14,6.0,100.0
20543,74.0,0,14,6.0,100.0
20544,74.0,15,14,4.0,100.0
20545,50.0,0,59,3.0,90.0
20546,69.0,15,59,1.0,127.0
20547,53.0,15,29,10.0,100.0
20548,65.0,0,59,2.0,56.0
20549,74.0,0,14,8.0,100.0
20550,53.0,0,29,7.0,100.0
20551,53.0,0,29,5.0,100.0
20552,76.0,15,14,8.0,100.0
20553,76.0,0,14,6.0,100.0
20554,76.0,0,14,4.0,100.0
20555,74.0,0,14,6.0,100.0
20556,74.0,15,14,4.0,100.0
20557,52.0,0,29,7.0,100.0
20558,52.0,0,29,10.0,100.0
20559,52.0,0,29,5.0,100.0
20560,74.0,0,14,8.0,100.0
20561,76.0,15,14,8.0,100.0
20562,76.0,0,14,6.0,100.0
20563,76.0,0,14,4.0,100.0
20564,50.0,0,29,5.0,100.0
20565,74.0,15,14,4.0,100.0
20566,74.0,0,14,8.0,100.0
20567,50.0,0,29,10.0,100.0
20568,50.0,0,29,7.0,100.0
20569,74.0,0,14,6.0,100.0
20570,76.0,0,14,4.0,100.0
20571,76.0,0,14,8.0,100.0
20572,76.0,0,14,6.0,100.0
20573,74.0,15,14,4.0,100.0
20574,58.0,0,29,7.0,100.0
20575,74.0,0,14,8.0,100.0
20576,74.0,0,14,6.0,100.0
20577,58.0,15,29,5.0,100.0
20578,58.0,0,29,10.0,100.0
20579,76.0,0,14,8.0,100.0
20580,76.0,0,14,6.0,100.0
20581,76.0,15,14,4.0,100.0
20582,55.0,0,29,10.0,100.0
20583,55.0,0,29,7.0,100.0
20584,43.0,0,59,3.0,90.0
20585,74.0,0,14,8.0,100.0
20586,67.0,0,59,1.0,127.0
20587,55.0,0,29,5.0,100.0
20588,74.0,15,14,6.0,100.0
20589,74.0,0,14,4.0,100.0
20590,64.0,0,59,2.0,56.0
20591,76.0,0,14,6.0,100.0
20592,76.0,15,14,4.0,100.0
20593,76.0,0,14,8.0,100.0
20594,74.0,0,14,4.0,100.0
20595,53.0,0,29,10.0,100.0
20596,74.0,0,14,8.0,100.0
20597,53.0,0,29,7.0,100.0
20598,53.0,0,29,5.0,100.0
20599,74.0,15,14,6.0,100.0
20600,76.0,0,14,6.0,100.0
20601,76.0,0,14,8.0,100.0
20602,76.0,0,14,4.0,100.0
20603,52.0,15,29,5.0,100.0
20604,74.0,0,14,8.0,100.0
20605,52.0,0,29,10.0,100.0
20606,74.0,0,14,4.0,100.0
20607,52.0,0,29,7.0,100.0
20608,74.0,15,14,6.0,100.0
20609,76.0,0,14,6.0,100.0
20610,76.0,0,14,8.0,100.0
20611,76.0,0,14,4.0,100.0
20612,57.0,0,29,10.0,100.0
20613,57.0,15,29,7.0,100.0
20614,74.0,0,14,8.0,100.0
20615,74.0,15,14,4.0,100.0
20616,57.0,0,29,5.0,100.0
20617,74.0,0,14,6.0,100.0
20618,76.0,0,14,6.0,100.0
20619,76.0,0,14,4.0,100.0
20620,76.0,0,14,8.0,100.0
20621,74.0,0,14,8.0,100.0
20622,65.0,0,59,2.0,56.0
20623,74.0,15,14,6.0,100.0
20624,53.0,15,29,10.0,100.0
20625,41.0,0,59,3.0,90.0
20626,53.0,0,29,7.0,100.0
20627,69.0,0,59,1.0,127.0
20628,53.0,0,29,5.0,100.0
20629,74.0,0,14,4.0,100.0
20630,76.0,15,14,8.0,100.0
20631,76.0,0,14,6.0,100.0
20632,76.0,0,14,4.0,100.0
20633,74.0,0,14,8.0,100.0
20634,74.0,0,14,6.0,100.0
20635,52.0,0,29,5.0,100.0
20636,74.0,15,14,4.0,100.0
20637,52.0,0,29,7.0,100.0
20638,52.0,0,29,10.0,100.0
20639,76.0,15,14,4.0,100.0
20640,76.0,0,14,8.0,100.0
20641,76.0,0,14,6.0,100.0
20642,74.0,0,14,6.0,100.0
20643,50.0,0,29,10.0,100.0
20644,74.0,15,14,4.0,100.0
20645,50.0,0,29,7.0,100.0
20646,74.0,0,14,8.0,100.0
20647,50.0,0,29,5.0,100.0
20648,76.0,0,14,8.0,100.0
20649,76.0,0,14,6.0,100.0
20650,76.0,15,14,4.0,100.0
20651,55.0,0,29,5.0,100.0
20652,55.0,0,29,10.0,100.0
20653,55.0,0,29,7.0,100.0
20654,74.0,0,14,4.0,100.0
20655,74.0,0,14,6.0,100.0
20656,74.0,15,14,8.0,100.0
20657,76.0,0,14,6.0,100.0
20658,76.0,0,14,8.0,100.0
20659,76.0,0,14,4.0,100.0
20660,53.0,15,29,10.0,100.0
20661,70.0,0,59,1.0,127.0
20662,53.0,0,29,5.0,100.0
20663,74.0,0,14,4.0,100.0
20664,74.0,15,14,6.0,100.0
20665,40.0,0,59,3.0,90.0
20666,74.0,0,14,8.0,100.0
20667,53.0,0,29,7.0,100.0
20668,67.0,0,59,2.0,56.0
20669,76.0,0,14,4.0,100.0
20670,76.0,15,14,6.0,100.0
20671,76.0,0,14,8.0,100.0
20672,74.0,0,14,4.0,100.0
20673,52.0,0,29,5.0,100.0
20674,52.0,0,29,7.0,100.0
20675,74.0,15,14,8.0,100.0
20676,52.0,0,29,10.0,100.0
20677,74.0,0,14,6.0,100.0
20678,76.0,0,14,4.0,100.0
20679,76.0,0,14,8.0,100.0
20680,76.0,15,14,6.0,100.0
20681,74.0,0,14,4.0,100.0
20682,74.0,0,14,8.0,100.0
20683,55.0,0,29,5.0,100.0
20684,55.0,0,29,7.0,100.0
20685,74.0,15,14,6.0,100.0
20686,55.0,0,29,10.0,100.0
20687,76.0,0,14,8.0,100.0
20688,76.0,0,14,6.0,100.0
20689,76.0,0,14,4.0,100.0
20690,53.0,0,29,7.0,100.0
20691,74.0,15,14,6.0,100.0
20692,74.0,0,14,8.0,100.0
20693,53.0,0,29,5.0,100.0
20694,74.0,0,14,4.0,100.0
20695,53.0,0,29,10.0,100.0
20696,76.0,0,14,6.0,100.0
20697,76.0,0,14,4.0,100.0
20698,76.0,0,14,8.0,100.0
20699,41.0,0,59,3.0,90.0
20700,50.0,0,29,7.0,100.0
20701,74.0,0,14,8.0,100.0
20702,69.0,0,59,1.0,127.0
20703,62.0,15,59,2.0,56.0
20704,50.0,15,29,10.0,100.0
20705,74.0,15,14,4.0,100.0
20706,50.0,0,29,5.0,100.0
20707,74.0,0,14,6.0,100.0
20708,74.0,0,1020,0.0,90.0
20709,76.0,0,59,6.0,100.0
20710,67.0,0,59,6.0,100.0
20711,55.0,0,59,5.0,100.0
20712,70.0,15,59,6.0,100.0
20713,76.0,0,59,8.0,100.0
20714,67.0,0,59,8.0,100.0
20715,70.0,0,59,8.0,100.0
20716,55.0,0,59,10.0,100.0
20717,55.0,0,59,7.0,100.0
20718,67.0,0,59,2.0,56.0
20719,70.0,0,59,1.0,127.0
20720,76.0,0,59,0.0,90.0
20721,70.0,0,59,4.0,100.0
20722,67.0,0,59,4.0,100.0
20723,76.0,0,59,4.0,100.0
20724,43.0,0,59,3.0,90.0
20725,69.0,0,59,1.0,127.0
20726,45.0,0,59,3.0,90.0
20727,69.0,0,59,8.0,100.0
20728,65.0,0,59,8.0,100.0
20729,65.0,0,59,2.0,56.0
20730,57.0,0,59,7.0,100.0
20731,65.0,0,59,6.0,100.0
20732,57.0,0,59,5.0,100.0
20733,69.0,0,59,0.0,90.0
20734,65.0,0,59,4.0,100.0
20735,69.0,0,59,4.0,100.0
20736,57.0,60,59,10.0,100.0
20737,69.0,0,59,6.0,100.0
20738,45.0,0,59,3.0,90.0
20739,45.0,60,59,10.0,100.0
20740,64.0,0,59,2.0,56.0
20741,45.0,0,59,5.0,100.0
20742,73.0,0,59,8.0,100.0
20743,73.0,0,59,6.0,100.0
20744,69.0,0,59,6.0,100.0
20745,67.0,0,59,6.0,100.0
20746,45.0,0,59,7.0,100.0
20747,69.0,0,59,8.0,100.0
20748,67.0,0,59,8.0,100.0
20749,64.0,0,59,6.0,100.0
20750,67.0,0,59,4.0,100.0
20751,69.0,0,59,4.0,100.0
20752,73.0,0,59,4.0,100.0
20753,64.0,0,59,4.0,100.0
20754,64.0,0,59,8.0,100.0
20755,69.0,0,59,1.0,127.0
20756,73.0,0,59,0.0,90.0
20757,38.0,0,239,10.0,100.0
20758,65.0,0,239,8.0,100.0
20759,69.0,0,239,8.0,100.0
20760,74.0,0,239,8.0,100.0
20761,69.0,0,239,4.0,100.0
20762,62.0,0,239,6.0,100.0
20763,50.0,0,239,10.0,100.0
20764,38.0,0,239,3.0,90.0
20765,38.0,0,239,5.0,100.0
20766,62.0,0,239,8.0,100.0
20767,74.0,0,239,6.0,100.0
20768,65.0,60,239,4.0,100.0
20769,74.0,0,239,4.0,100.0
20770,62.0,0,239,4.0,100.0
20771,38.0,0,239,7.0,100.0
20772,65.0,0,239,2.0,56.0
20773,50.0,0,239,7.0,100.0
20774,74.0,0,239,0.0,90.0
20775,65.0,0,239,6.0,100.0
20776,69.0,0,239,1.0,127.0
20777,69.0,0,239,6.0,100.0
20778,50.0,0,239,5.0,100.0
