,note,step,duration,channel,velocity
0,66.0,0,224,1.0,76.0
1,66.0,0,224,0.0,76.0
2,62.0,0,104,3.0,76.0
3,59.0,240,104,4.0,76.0
4,74.0,0,119,5.0,76.0
5,59.0,0,119,5.0,76.0
6,71.0,0,119,5.0,76.0
7,78.0,0,119,5.0,76.0
8,61.0,120,104,4.0,76.0
9,66.0,0,224,2.0,76.0
10,64.0,0,104,3.0,76.0
11,73.0,0,119,5.0,76.0
12,61.0,0,119,5.0,76.0
13,79.0,0,119,5.0,76.0
14,76.0,0,119,5.0,76.0
15,71.0,0,584,1.0,76.0
16,71.0,240,584,0.0,76.0
17,62.0,120,224,4.0,76.0
18,73.0,120,104,1.0,76.0
19,73.0,0,104,0.0,76.0
20,66.0,0,224,3.0,76.0
21,83.0,0,239,5.0,76.0
22,78.0,0,239,5.0,76.0
23,62.0,0,239,5.0,76.0
24,74.0,0,239,5.0,76.0
25,74.0,120,104,1.0,76.0
26,74.0,0,104,0.0,76.0
27,76.0,0,104,0.0,76.0
28,61.0,0,224,4.0,76.0
29,64.0,0,224,3.0,76.0
30,76.0,120,104,1.0,76.0
31,76.0,0,239,5.0,76.0
32,73.0,0,239,5.0,76.0
33,61.0,0,239,5.0,76.0
34,82.0,0,239,5.0,76.0
35,78.0,0,224,0.0,76.0
36,78.0,0,224,1.0,76.0
37,59.0,0,224,4.0,76.0
38,62.0,0,224,3.0,76.0
39,71.0,0,704,2.0,76.0
40,59.0,0,239,5.0,76.0
41,74.0,0,239,5.0,76.0
42,78.0,0,239,5.0,76.0
43,71.0,120,239,5.0,76.0
44,61.0,0,224,4.0,76.0
45,79.0,0,224,2.0,76.0
46,70.0,0,224,0.0,76.0
47,70.0,0,224,1.0,76.0
48,64.0,0,224,3.0,76.0
49,82.0,0,239,5.0,76.0
50,73.0,240,239,5.0,76.0
51,61.0,0,239,5.0,76.0
52,76.0,0,239,5.0,76.0
53,62.0,0,224,4.0,76.0
54,71.0,0,224,0.0,76.0
55,78.0,0,224,2.0,76.0
56,71.0,0,224,1.0,76.0
57,62.0,0,239,5.0,76.0
58,78.0,0,239,5.0,76.0
59,82.0,240,239,5.0,76.0
60,74.0,0,239,5.0,76.0
61,76.0,240,224,1.0,76.0
62,70.0,0,224,2.0,76.0
63,76.0,0,224,0.0,76.0
64,61.0,0,224,4.0,76.0
65,76.0,0,239,5.0,76.0
66,61.0,0,239,5.0,76.0
67,73.0,0,239,5.0,76.0
68,82.0,0,239,5.0,76.0
69,74.0,0,224,1.0,76.0
70,71.0,0,224,2.0,76.0
71,66.0,0,704,3.0,76.0
72,59.0,0,224,4.0,76.0
73,74.0,240,224,0.0,76.0
74,71.0,0,239,5.0,76.0
75,78.0,0,239,5.0,76.0
76,74.0,0,239,5.0,76.0
77,59.0,0,239,5.0,76.0
78,61.0,0,224,4.0,76.0
79,70.0,0,224,3.0,76.0
80,79.0,240,224,1.0,76.0
81,79.0,0,224,0.0,76.0
82,64.0,0,224,2.0,76.0
83,76.0,0,239,5.0,76.0
84,82.0,0,239,5.0,76.0
85,61.0,0,239,5.0,76.0
86,73.0,0,239,5.0,76.0
87,71.0,0,224,3.0,76.0
88,78.0,0,224,0.0,76.0
89,78.0,0,224,1.0,76.0
90,62.0,0,224,4.0,76.0
91,62.0,0,224,2.0,76.0
92,82.0,0,239,5.0,76.0
93,78.0,0,239,5.0,76.0
94,74.0,240,239,5.0,76.0
95,62.0,0,239,5.0,76.0
96,76.0,240,224,2.0,76.0
97,82.0,0,224,1.0,76.0
98,82.0,0,224,0.0,76.0
99,73.0,0,224,3.0,76.0
100,61.0,0,224,4.0,76.0
101,61.0,0,239,5.0,76.0
102,76.0,0,239,5.0,76.0
103,82.0,0,239,5.0,76.0
104,73.0,0,239,5.0,76.0
105,83.0,0,224,0.0,76.0
106,66.0,0,224,3.0,76.0
107,83.0,0,224,1.0,76.0
108,74.0,0,224,2.0,76.0
109,59.0,0,224,4.0,76.0
110,78.0,0,239,5.0,76.0
111,74.0,0,239,5.0,76.0
112,71.0,0,239,5.0,76.0
113,59.0,240,239,5.0,76.0
114,81.0,0,104,1.0,76.0
115,81.0,0,104,0.0,76.0
116,76.0,0,224,2.0,76.0
117,79.0,0,104,1.0,76.0
118,79.0,120,104,0.0,76.0
119,61.0,0,224,4.0,76.0
120,64.0,0,224,3.0,76.0
121,61.0,240,239,5.0,76.0
122,76.0,0,239,5.0,76.0
123,82.0,0,239,5.0,76.0
124,73.0,0,239,5.0,76.0
125,78.0,0,104,0.0,76.0
126,78.0,0,104,1.0,76.0
127,62.0,0,224,3.0,76.0
128,62.0,0,224,4.0,76.0
129,79.0,120,104,0.0,76.0
130,78.0,0,224,2.0,76.0
131,79.0,0,104,1.0,76.0
132,82.0,120,239,5.0,76.0
133,78.0,0,239,5.0,76.0
134,74.0,0,239,5.0,76.0
135,62.0,0,239,5.0,76.0
136,76.0,0,104,1.0,76.0
137,76.0,0,104,0.0,76.0
138,78.0,120,104,0.0,76.0
139,70.0,0,224,2.0,76.0
140,61.0,0,224,4.0,76.0
141,78.0,0,104,1.0,76.0
142,64.0,120,224,3.0,76.0
143,73.0,0,239,5.0,76.0
144,76.0,0,239,5.0,76.0
145,61.0,0,239,5.0,76.0
146,82.0,0,239,5.0,76.0
147,74.0,0,104,1.0,76.0
148,74.0,0,104,0.0,76.0
149,76.0,0,104,0.0,76.0
150,71.0,120,224,2.0,76.0
151,76.0,120,104,1.0,76.0
152,66.0,0,224,3.0,76.0
153,59.0,0,224,4.0,76.0
154,74.0,0,239,5.0,76.0
155,59.0,0,239,5.0,76.0
156,78.0,0,239,5.0,76.0
157,71.0,0,239,5.0,76.0
158,73.0,0,104,1.0,76.0
159,73.0,0,104,0.0,76.0
160,61.0,0,224,4.0,76.0
161,74.0,120,104,1.0,76.0
162,70.0,0,224,2.0,76.0
163,74.0,0,104,0.0,76.0
164,64.0,0,224,3.0,76.0
165,76.0,0,239,5.0,76.0
166,82.0,120,239,5.0,76.0
167,73.0,0,239,5.0,76.0
168,61.0,0,239,5.0,76.0
169,71.0,120,104,1.0,76.0
170,71.0,0,104,0.0,76.0
171,73.0,120,104,0.0,76.0
172,62.0,0,224,4.0,76.0
173,73.0,0,104,1.0,76.0
174,71.0,0,224,2.0,76.0
175,62.0,0,239,5.0,76.0
176,83.0,0,239,5.0,76.0
177,78.0,0,239,5.0,76.0
178,74.0,0,239,5.0,76.0
179,69.0,0,104,0.0,76.0
180,69.0,120,104,1.0,76.0
181,61.0,0,224,4.0,76.0
182,73.0,0,224,2.0,76.0
183,71.0,120,104,0.0,76.0
184,71.0,0,104,1.0,76.0
185,78.0,0,239,5.0,76.0
186,74.0,0,239,5.0,76.0
187,73.0,0,239,5.0,76.0
188,61.0,0,239,5.0,76.0
189,82.0,0,239,5.0,76.0
190,66.0,0,584,3.0,76.0
191,59.0,0,224,4.0,76.0
192,74.0,0,224,2.0,76.0
193,67.0,120,224,1.0,76.0
194,67.0,120,104,3.0,76.0
195,67.0,0,224,0.0,76.0
196,74.0,0,239,5.0,76.0
197,71.0,0,239,5.0,76.0
198,79.0,0,239,5.0,76.0
199,78.0,0,239,5.0,76.0
200,59.0,0,239,5.0,76.0
201,64.0,120,104,3.0,76.0
202,61.0,0,224,4.0,76.0
203,76.0,0,224,0.0,76.0
204,76.0,0,224,1.0,76.0
205,66.0,120,104,3.0,76.0
206,81.0,0,239,5.0,76.0
207,73.0,0,239,5.0,76.0
208,76.0,0,239,5.0,76.0
209,79.0,0,239,5.0,76.0
210,61.0,0,239,5.0,76.0
211,69.0,0,344,2.0,76.0
212,66.0,0,224,1.0,76.0
213,67.0,120,104,2.0,76.0
214,62.0,0,224,4.0,76.0
215,62.0,0,224,3.0,76.0
216,66.0,120,224,0.0,76.0
217,62.0,0,239,5.0,76.0
218,78.0,0,239,5.0,76.0
219,81.0,0,239,5.0,76.0
220,74.0,0,239,5.0,76.0
221,66.0,0,104,2.0,76.0
222,64.0,120,104,2.0,76.0
223,69.0,0,224,1.0,76.0
224,64.0,0,224,3.0,76.0
225,61.0,0,224,4.0,76.0
226,69.0,0,224,0.0,76.0
227,78.0,120,239,5.0,76.0
228,74.0,0,239,5.0,76.0
229,81.0,0,239,5.0,76.0
230,61.0,0,239,5.0,76.0
231,73.0,0,239,5.0,76.0
232,74.0,0,224,1.0,76.0
233,74.0,0,224,0.0,76.0
234,62.0,0,224,2.0,76.0
235,66.0,120,224,3.0,76.0
236,59.0,0,224,4.0,76.0
237,78.0,0,239,5.0,76.0
238,74.0,0,239,5.0,76.0
239,59.0,0,239,5.0,76.0
240,71.0,0,239,5.0,76.0
241,74.0,0,224,2.0,76.0
242,55.0,0,224,4.0,76.0
243,71.0,0,224,3.0,76.0
244,79.0,0,224,0.0,76.0
245,79.0,0,224,1.0,76.0
246,55.0,0,239,5.0,76.0
247,74.0,240,239,5.0,76.0
248,71.0,0,239,5.0,76.0
249,67.0,0,239,5.0,76.0
250,78.0,0,29,0.0,76.0
251,79.0,30,29,0.0,76.0
252,78.0,30,29,0.0,76.0
253,79.0,30,29,0.0,76.0
254,78.0,30,29,0.0,76.0
255,79.0,30,29,0.0,76.0
256,76.0,30,29,0.0,76.0
257,69.0,0,224,3.0,76.0
258,78.0,240,224,1.0,76.0
259,74.0,0,224,2.0,76.0
260,57.0,0,224,4.0,76.0
261,69.0,0,239,5.0,76.0
262,78.0,0,239,5.0,76.0
263,57.0,0,239,5.0,76.0
264,74.0,0,239,5.0,76.0
265,78.0,30,29,0.0,76.0
266,76.0,0,104,0.0,76.0
267,76.0,0,104,1.0,76.0
268,73.0,0,224,2.0,76.0
269,74.0,120,104,0.0,76.0
270,67.0,0,224,3.0,76.0
271,45.0,0,224,4.0,76.0
272,74.0,0,104,1.0,76.0
273,45.0,0,239,5.0,76.0
274,64.0,30,239,5.0,76.0
275,61.0,0,239,5.0,76.0
276,57.0,0,239,5.0,76.0
277,50.0,0,224,4.0,76.0
278,50.0,0,239,5.0,76.0
279,66.0,0,239,5.0,76.0
280,69.0,0,239,5.0,76.0
281,62.0,0,239,5.0,76.0
282,45.0,0,224,4.0,76.0
283,64.0,0,239,5.0,76.0
284,61.0,0,239,5.0,76.0
285,45.0,0,239,5.0,76.0
286,57.0,240,239,5.0,76.0
287,74.0,120,704,0.0,76.0
288,74.0,0,704,1.0,76.0
289,69.0,0,719,2.0,76.0
290,38.0,240,239,4.0,76.0
291,50.0,0,239,5.0,76.0
292,38.0,0,239,5.0,76.0
293,66.0,0,719,3.0,76.0
294,54.0,0,239,5.0,76.0
295,57.0,0,239,5.0,76.0
296,66.0,240,224,0.0,76.0
297,66.0,0,224,1.0,76.0
298,59.0,240,104,4.0,76.0
299,62.0,0,104,3.0,76.0
300,71.0,0,119,5.0,76.0
301,78.0,0,119,5.0,76.0
302,74.0,0,119,5.0,76.0
303,59.0,0,119,5.0,76.0
304,64.0,0,104,3.0,76.0
305,61.0,0,104,4.0,76.0
306,66.0,0,224,2.0,76.0
307,79.0,0,119,5.0,76.0
308,61.0,120,119,5.0,76.0
309,76.0,0,119,5.0,76.0
310,73.0,0,119,5.0,76.0
311,71.0,0,584,1.0,76.0
312,71.0,240,584,0.0,76.0
313,73.0,120,104,0.0,76.0
314,62.0,120,224,4.0,76.0
315,66.0,0,224,3.0,76.0
316,73.0,0,104,1.0,76.0
317,62.0,0,239,5.0,76.0
318,74.0,0,239,5.0,76.0
319,78.0,0,239,5.0,76.0
320,83.0,0,239,5.0,76.0
321,74.0,0,104,1.0,76.0
322,74.0,0,104,0.0,76.0
323,61.0,0,224,4.0,76.0
324,76.0,0,104,1.0,76.0
325,76.0,120,104,0.0,76.0
326,64.0,0,224,3.0,76.0
327,73.0,120,239,5.0,76.0
328,82.0,0,239,5.0,76.0
329,76.0,0,239,5.0,76.0
330,61.0,0,239,5.0,76.0
331,62.0,0,224,3.0,76.0
332,78.0,0,224,1.0,76.0
333,71.0,0,704,2.0,76.0
334,59.0,120,224,4.0,76.0
335,78.0,0,224,0.0,76.0
336,78.0,0,239,5.0,76.0
337,71.0,0,239,5.0,76.0
338,74.0,0,239,5.0,76.0
339,59.0,0,239,5.0,76.0
340,70.0,0,224,0.0,76.0
341,61.0,0,224,4.0,76.0
342,79.0,0,224,2.0,76.0
343,64.0,0,224,3.0,76.0
344,70.0,240,224,1.0,76.0
345,82.0,0,239,5.0,76.0
346,76.0,0,239,5.0,76.0
347,73.0,0,239,5.0,76.0
348,61.0,0,239,5.0,76.0
349,71.0,0,224,1.0,76.0
350,71.0,0,224,0.0,76.0
351,62.0,0,224,4.0,76.0
352,78.0,0,224,2.0,76.0
353,74.0,0,239,5.0,76.0
354,62.0,0,239,5.0,76.0
355,78.0,240,239,5.0,76.0
356,82.0,0,239,5.0,76.0
357,76.0,0,224,1.0,76.0
358,70.0,0,224,2.0,76.0
359,76.0,0,224,0.0,76.0
360,61.0,0,224,4.0,76.0
361,73.0,0,239,5.0,76.0
362,76.0,0,239,5.0,76.0
363,82.0,240,239,5.0,76.0
364,61.0,0,239,5.0,76.0
365,74.0,0,224,1.0,76.0
366,74.0,0,224,0.0,76.0
367,59.0,240,224,4.0,76.0
368,71.0,0,224,2.0,76.0
369,66.0,0,704,3.0,76.0
370,74.0,0,239,5.0,76.0
371,59.0,0,239,5.0,76.0
372,71.0,0,239,5.0,76.0
373,78.0,0,239,5.0,76.0
374,79.0,240,224,1.0,76.0
375,70.0,0,224,3.0,76.0
376,61.0,0,224,4.0,76.0
377,79.0,0,224,0.0,76.0
378,64.0,0,224,2.0,76.0
379,61.0,0,239,5.0,76.0
380,82.0,0,239,5.0,76.0
381,76.0,0,239,5.0,76.0
382,73.0,0,239,5.0,76.0
383,78.0,0,224,1.0,76.0
384,62.0,0,224,4.0,76.0
385,62.0,0,224,2.0,76.0
386,71.0,240,224,3.0,76.0
387,78.0,0,224,0.0,76.0
388,82.0,0,239,5.0,76.0
389,74.0,0,239,5.0,76.0
390,62.0,0,239,5.0,76.0
391,78.0,0,239,5.0,76.0
392,82.0,0,224,1.0,76.0
393,76.0,0,224,2.0,76.0
394,73.0,240,224,3.0,76.0
395,82.0,0,224,0.0,76.0
396,61.0,0,224,4.0,76.0
397,76.0,0,239,5.0,76.0
398,61.0,0,239,5.0,76.0
399,73.0,0,239,5.0,76.0
400,82.0,0,239,5.0,76.0
401,83.0,0,224,1.0,76.0
402,83.0,0,224,0.0,76.0
403,59.0,0,224,4.0,76.0
404,66.0,0,224,3.0,76.0
405,74.0,0,224,2.0,76.0
406,59.0,0,239,5.0,76.0
407,74.0,0,239,5.0,76.0
408,78.0,240,239,5.0,76.0
409,71.0,0,239,5.0,76.0
410,81.0,0,104,0.0,76.0
411,81.0,0,104,1.0,76.0
412,64.0,0,224,3.0,76.0
413,61.0,0,224,4.0,76.0
414,79.0,120,104,0.0,76.0
415,76.0,240,224,2.0,76.0
416,79.0,0,104,1.0,76.0
417,76.0,0,239,5.0,76.0
418,82.0,0,239,5.0,76.0
419,61.0,0,239,5.0,76.0
420,73.0,0,239,5.0,76.0
421,78.0,0,104,1.0,76.0
422,78.0,0,104,0.0,76.0
423,62.0,0,224,4.0,76.0
424,79.0,120,104,0.0,76.0
425,62.0,0,224,3.0,76.0
426,79.0,0,104,1.0,76.0
427,78.0,0,224,2.0,76.0
428,74.0,0,239,5.0,76.0
429,82.0,0,239,5.0,76.0
430,62.0,120,239,5.0,76.0
431,78.0,0,239,5.0,76.0
432,76.0,0,104,1.0,76.0
433,76.0,0,104,0.0,76.0
434,78.0,120,104,0.0,76.0
435,64.0,120,224,3.0,76.0
436,78.0,0,104,1.0,76.0
437,61.0,0,224,4.0,76.0
438,70.0,0,224,2.0,76.0
439,82.0,0,239,5.0,76.0
440,61.0,0,239,5.0,76.0
441,76.0,0,239,5.0,76.0
442,73.0,0,239,5.0,76.0
443,74.0,120,104,0.0,76.0
444,74.0,0,104,1.0,76.0
445,76.0,120,104,0.0,76.0
446,76.0,0,104,1.0,76.0
447,66.0,0,224,3.0,76.0
448,59.0,0,224,4.0,76.0
449,71.0,0,224,2.0,76.0
450,59.0,0,239,5.0,76.0
451,74.0,0,239,5.0,76.0
452,71.0,0,239,5.0,76.0
453,78.0,0,239,5.0,76.0
454,73.0,0,104,1.0,76.0
455,73.0,0,104,0.0,76.0
456,70.0,0,224,2.0,76.0
457,74.0,120,104,0.0,76.0
458,64.0,0,224,3.0,76.0
459,61.0,120,224,4.0,76.0
460,74.0,0,104,1.0,76.0
461,61.0,0,239,5.0,76.0
462,76.0,0,239,5.0,76.0
463,73.0,0,239,5.0,76.0
464,82.0,0,239,5.0,76.0
465,71.0,0,104,0.0,76.0
466,71.0,0,104,1.0,76.0
467,73.0,120,104,0.0,76.0
468,62.0,0,224,4.0,76.0
469,71.0,0,224,2.0,76.0
470,73.0,0,104,1.0,76.0
471,78.0,0,239,5.0,76.0
472,62.0,120,239,5.0,76.0
473,74.0,0,239,5.0,76.0
474,83.0,0,239,5.0,76.0
475,69.0,0,104,1.0,76.0
476,69.0,0,104,0.0,76.0
477,73.0,0,224,2.0,76.0
478,61.0,120,224,4.0,76.0
479,71.0,120,104,0.0,76.0
480,71.0,0,104,1.0,76.0
481,61.0,0,239,5.0,76.0
482,78.0,0,239,5.0,76.0
483,82.0,0,239,5.0,76.0
484,74.0,0,239,5.0,76.0
485,73.0,0,239,5.0,76.0
486,66.0,0,584,3.0,76.0
487,67.0,0,224,1.0,76.0
488,59.0,0,224,4.0,76.0
489,67.0,120,104,3.0,76.0
490,74.0,0,224,2.0,76.0
491,67.0,0,224,0.0,76.0
492,79.0,0,239,5.0,76.0
493,71.0,120,239,5.0,76.0
494,74.0,0,239,5.0,76.0
495,59.0,0,239,5.0,76.0
496,78.0,0,239,5.0,76.0
497,64.0,0,104,3.0,76.0
498,76.0,0,224,0.0,76.0
499,66.0,120,104,3.0,76.0
500,61.0,120,224,4.0,76.0
501,76.0,0,224,1.0,76.0
502,73.0,0,239,5.0,76.0
503,79.0,0,239,5.0,76.0
504,76.0,0,239,5.0,76.0
505,81.0,0,239,5.0,76.0
506,61.0,0,239,5.0,76.0
507,69.0,0,344,2.0,76.0
508,62.0,0,224,4.0,76.0
509,66.0,120,224,0.0,76.0
510,66.0,0,224,1.0,76.0
511,62.0,0,224,3.0,76.0
512,67.0,120,104,2.0,76.0
513,62.0,0,239,5.0,76.0
514,78.0,0,239,5.0,76.0
515,74.0,0,239,5.0,76.0
516,81.0,0,239,5.0,76.0
517,66.0,0,104,2.0,76.0
518,69.0,0,224,0.0,76.0
519,64.0,0,224,3.0,76.0
520,64.0,120,104,2.0,76.0
521,69.0,0,224,1.0,76.0
522,61.0,0,224,4.0,76.0
523,81.0,120,239,5.0,76.0
524,74.0,0,239,5.0,76.0
525,78.0,0,239,5.0,76.0
526,73.0,0,239,5.0,76.0
527,61.0,0,239,5.0,76.0
528,74.0,0,224,0.0,76.0
529,66.0,120,224,3.0,76.0
530,59.0,0,224,4.0,76.0
531,62.0,0,224,2.0,76.0
532,74.0,0,224,1.0,76.0
533,78.0,0,239,5.0,76.0
534,59.0,0,239,5.0,76.0
535,71.0,0,239,5.0,76.0
536,74.0,0,239,5.0,76.0
537,71.0,0,224,3.0,76.0
538,74.0,240,224,2.0,76.0
539,79.0,0,224,1.0,76.0
540,79.0,0,224,0.0,76.0
541,55.0,0,224,4.0,76.0
542,74.0,0,239,5.0,76.0
543,67.0,0,239,5.0,76.0
544,71.0,0,239,5.0,76.0
545,55.0,0,239,5.0,76.0
546,78.0,0,29,0.0,76.0
547,79.0,30,29,0.0,76.0
548,78.0,30,29,0.0,76.0
549,79.0,30,29,0.0,76.0
550,78.0,30,29,0.0,76.0
551,79.0,30,29,0.0,76.0
552,76.0,30,29,0.0,76.0
553,69.0,240,224,3.0,76.0
554,78.0,0,224,1.0,76.0
555,57.0,0,224,4.0,76.0
556,74.0,0,224,2.0,76.0
557,57.0,0,239,5.0,76.0
558,78.0,30,29,0.0,76.0
559,74.0,0,239,5.0,76.0
560,78.0,0,239,5.0,76.0
561,69.0,0,239,5.0,76.0
562,76.0,0,104,1.0,76.0
563,76.0,0,104,0.0,76.0
564,67.0,30,224,3.0,76.0
565,45.0,0,224,4.0,76.0
566,74.0,120,104,0.0,76.0
567,73.0,0,224,2.0,76.0
568,74.0,0,104,1.0,76.0
569,57.0,0,239,5.0,76.0
570,64.0,0,239,5.0,76.0
571,45.0,0,239,5.0,76.0
572,61.0,0,239,5.0,76.0
573,50.0,0,224,4.0,76.0
574,69.0,0,239,5.0,76.0
575,62.0,0,239,5.0,76.0
576,50.0,0,239,5.0,76.0
577,66.0,0,239,5.0,76.0
578,45.0,240,224,4.0,76.0
579,57.0,0,239,5.0,76.0
580,64.0,0,239,5.0,76.0
581,45.0,0,239,5.0,76.0
582,61.0,0,239,5.0,76.0
583,74.0,120,704,1.0,76.0
584,74.0,0,704,0.0,76.0
585,54.0,0,239,5.0,76.0
586,50.0,240,239,5.0,76.0
587,38.0,0,239,5.0,76.0
588,69.0,0,719,2.0,76.0
589,57.0,0,239,5.0,76.0
590,38.0,0,239,4.0,76.0
591,66.0,0,719,3.0,76.0
592,69.0,0,224,0.0,76.0
593,69.0,240,224,1.0,76.0
594,50.0,240,104,4.0,76.0
595,66.0,0,104,3.0,76.0
596,62.0,0,119,5.0,76.0
597,66.0,0,119,5.0,76.0
598,69.0,0,119,5.0,76.0
599,50.0,0,119,5.0,76.0
600,67.0,0,104,3.0,76.0
601,52.0,0,104,4.0,76.0
602,69.0,0,224,2.0,76.0
603,67.0,120,119,5.0,76.0
604,71.0,0,119,5.0,76.0
605,64.0,0,119,5.0,76.0
606,52.0,0,119,5.0,76.0
607,74.0,0,584,0.0,76.0
608,74.0,240,584,1.0,76.0
609,69.0,0,224,3.0,76.0
610,76.0,0,104,1.0,76.0
611,54.0,0,224,4.0,76.0
612,76.0,120,104,0.0,76.0
613,66.0,120,239,5.0,76.0
614,69.0,0,239,5.0,76.0
615,74.0,0,239,5.0,76.0
616,54.0,0,239,5.0,76.0
617,78.0,0,104,0.0,76.0
618,78.0,0,104,1.0,76.0
619,67.0,0,224,3.0,76.0
620,79.0,0,104,0.0,76.0
621,52.0,0,224,4.0,76.0
622,79.0,120,104,1.0,76.0
623,52.0,0,239,5.0,76.0
624,67.0,0,239,5.0,76.0
625,64.0,120,239,5.0,76.0
626,73.0,0,239,5.0,76.0
627,81.0,0,104,1.0,76.0
628,81.0,0,104,0.0,76.0
629,74.0,0,584,2.0,76.0
630,66.0,0,224,3.0,76.0
631,71.0,0,104,2.0,76.0
632,79.0,120,104,0.0,76.0
633,50.0,0,224,4.0,76.0
634,79.0,0,104,1.0,76.0
635,66.0,0,239,5.0,76.0
636,69.0,0,239,5.0,76.0
637,50.0,120,239,5.0,76.0
638,62.0,0,239,5.0,76.0
639,78.0,0,104,1.0,76.0
640,69.0,0,104,2.0,76.0
641,78.0,0,104,0.0,76.0
642,76.0,0,104,1.0,76.0
643,52.0,0,224,4.0,76.0
644,76.0,120,104,0.0,76.0
645,67.0,0,104,2.0,76.0
646,67.0,0,224,3.0,76.0
647,67.0,120,239,5.0,76.0
648,52.0,0,239,5.0,76.0
649,73.0,0,239,5.0,76.0
650,64.0,0,239,5.0,76.0
651,69.0,0,104,3.0,76.0
652,66.0,0,104,2.0,76.0
653,67.0,0,104,2.0,76.0
654,54.0,0,224,4.0,76.0
655,74.0,0,224,1.0,76.0
656,74.0,0,224,0.0,76.0
657,67.0,120,104,3.0,76.0
658,54.0,0,239,5.0,76.0
659,66.0,0,239,5.0,76.0
660,69.0,120,239,5.0,76.0
661,74.0,0,239,5.0,76.0
662,66.0,0,104,3.0,76.0
663,72.0,0,224,0.0,76.0
664,72.0,0,224,1.0,76.0
665,64.0,120,104,3.0,76.0
666,52.0,120,224,4.0,76.0
667,64.0,0,239,5.0,76.0
668,67.0,0,239,5.0,76.0
669,72.0,0,239,5.0,76.0
670,52.0,0,239,5.0,76.0
671,69.0,0,464,2.0,76.0
672,71.0,0,224,1.0,76.0
673,51.0,0,224,4.0,76.0
674,71.0,0,224,0.0,76.0
675,66.0,120,224,3.0,76.0
676,69.0,0,239,5.0,76.0
677,66.0,0,239,5.0,76.0
678,63.0,0,239,5.0,76.0
679,51.0,0,239,5.0,76.0
680,71.0,0,239,5.0,76.0
681,52.0,240,224,4.0,76.0
682,76.0,0,224,1.0,76.0
683,71.0,0,224,3.0,76.0
684,67.0,0,224,2.0,76.0
685,76.0,0,224,0.0,76.0
686,71.0,0,239,5.0,76.0
687,64.0,0,239,5.0,76.0
688,52.0,0,239,5.0,76.0
689,67.0,0,239,5.0,76.0
690,69.0,0,224,3.0,76.0
691,75.0,0,224,0.0,76.0
692,75.0,0,224,1.0,76.0
693,66.0,0,224,2.0,76.0
694,54.0,0,224,4.0,76.0
695,66.0,0,239,5.0,76.0
696,54.0,240,239,5.0,76.0
697,69.0,0,239,5.0,76.0
698,75.0,0,239,5.0,76.0
699,81.0,0,224,0.0,76.0
700,78.0,0,224,2.0,76.0
701,81.0,0,224,1.0,76.0
702,51.0,0,224,4.0,76.0
703,63.0,0,239,5.0,76.0
704,69.0,0,239,5.0,76.0
705,51.0,0,239,5.0,76.0
706,66.0,0,239,5.0,76.0
707,71.0,0,239,5.0,76.0
708,79.0,0,29,0.0,76.0
709,81.0,30,29,0.0,76.0
710,79.0,30,29,0.0,76.0
711,81.0,30,29,0.0,76.0
712,79.0,30,29,0.0,76.0
713,81.0,30,29,0.0,76.0
714,78.0,30,29,0.0,76.0
715,76.0,0,224,2.0,76.0
716,79.0,0,224,1.0,76.0
717,52.0,0,224,4.0,76.0
718,71.0,240,464,3.0,76.0
719,71.0,0,239,5.0,76.0
720,67.0,0,239,5.0,76.0
721,52.0,240,239,5.0,76.0
722,64.0,0,239,5.0,76.0
723,79.0,30,29,0.0,76.0
724,78.0,0,104,1.0,76.0
725,78.0,0,104,0.0,76.0
726,75.0,0,224,2.0,76.0
727,69.0,30,224,3.0,76.0
728,54.0,0,224,4.0,76.0
729,79.0,120,104,1.0,76.0
730,79.0,0,104,0.0,76.0
731,66.0,0,239,5.0,76.0
732,69.0,0,239,5.0,76.0
733,75.0,0,239,5.0,76.0
734,54.0,0,239,5.0,76.0
735,71.0,0,104,3.0,76.0
736,76.0,0,104,0.0,76.0
737,76.0,120,104,1.0,76.0
738,55.0,0,224,4.0,76.0
739,71.0,0,104,0.0,76.0
740,69.0,0,104,3.0,76.0
741,71.0,120,104,1.0,76.0
742,67.0,0,239,5.0,76.0
743,75.0,0,239,5.0,76.0
744,55.0,0,239,5.0,76.0
745,71.0,0,239,5.0,76.0
746,76.0,0,104,1.0,76.0
747,76.0,0,104,0.0,76.0
748,67.0,0,104,3.0,76.0
749,69.0,0,104,3.0,76.0
750,78.0,120,104,0.0,76.0
751,78.0,0,104,1.0,76.0
752,54.0,120,224,4.0,76.0
753,69.0,0,239,5.0,76.0
754,75.0,0,239,5.0,76.0
755,66.0,0,239,5.0,76.0
756,54.0,0,239,5.0,76.0
757,79.0,0,104,0.0,76.0
758,79.0,0,104,1.0,76.0
759,81.0,0,104,1.0,76.0
760,71.0,0,224,3.0,76.0
761,52.0,0,224,4.0,76.0
762,76.0,0,704,2.0,76.0
763,81.0,120,104,0.0,76.0
764,64.0,0,239,5.0,76.0
765,52.0,120,239,5.0,76.0
766,67.0,0,239,5.0,76.0
767,71.0,0,239,5.0,76.0
768,78.0,0,104,0.0,76.0
769,78.0,0,104,1.0,76.0
770,79.0,120,104,0.0,76.0
771,70.0,0,224,2.0,76.0
772,62.0,0,224,3.0,76.0
773,54.0,0,224,4.0,76.0
774,79.0,0,104,1.0,76.0
775,70.0,0,239,5.0,76.0
776,54.0,0,239,5.0,76.0
777,66.0,120,239,5.0,76.0
778,74.0,0,239,5.0,76.0
779,76.0,0,104,0.0,76.0
780,76.0,0,104,1.0,76.0
781,78.0,120,104,1.0,76.0
782,59.0,0,224,3.0,76.0
783,78.0,0,104,0.0,76.0
784,55.0,0,224,4.0,76.0
785,67.0,0,239,5.0,76.0
786,55.0,120,239,5.0,76.0
787,76.0,0,239,5.0,76.0
788,71.0,0,239,5.0,76.0
789,74.0,0,104,0.0,76.0
790,74.0,120,104,1.0,76.0
791,76.0,0,104,1.0,76.0
792,76.0,120,104,0.0,76.0
793,66.0,0,224,3.0,76.0
794,54.0,0,224,4.0,76.0
795,74.0,0,239,5.0,76.0
796,66.0,0,239,5.0,76.0
797,71.0,0,239,5.0,76.0
798,54.0,0,239,5.0,76.0
799,71.0,0,584,2.0,76.0
800,73.0,120,104,2.0,76.0
801,73.0,0,224,1.0,76.0
802,52.0,0,224,4.0,76.0
803,67.0,0,224,3.0,76.0
804,73.0,120,224,0.0,76.0
805,67.0,0,239,5.0,76.0
806,52.0,0,239,5.0,76.0
807,71.0,0,239,5.0,76.0
808,64.0,0,239,5.0,76.0
809,73.0,0,239,5.0,76.0
810,74.0,0,104,2.0,76.0
811,82.0,0,224,0.0,76.0
812,54.0,0,224,4.0,76.0
813,66.0,0,224,3.0,76.0
814,82.0,0,224,1.0,76.0
815,76.0,120,104,2.0,76.0
816,54.0,120,239,5.0,76.0
817,70.0,0,239,5.0,76.0
818,66.0,0,239,5.0,76.0
819,73.0,0,239,5.0,76.0
820,74.0,0,104,2.0,76.0
821,83.0,0,224,0.0,76.0
822,83.0,120,224,1.0,76.0
823,73.0,120,104,2.0,76.0
824,55.0,0,224,4.0,76.0
825,59.0,0,224,3.0,76.0
826,67.0,0,239,5.0,76.0
827,74.0,0,239,5.0,76.0
828,55.0,0,239,5.0,76.0
829,71.0,0,239,5.0,76.0
830,71.0,0,104,2.0,76.0
831,54.0,120,224,4.0,76.0
832,69.0,120,104,2.0,76.0
833,66.0,0,224,3.0,76.0
834,71.0,0,239,5.0,76.0
835,54.0,0,239,5.0,76.0
836,74.0,0,239,5.0,76.0
837,66.0,0,239,5.0,76.0
838,67.0,0,104,2.0,76.0
839,52.0,0,224,4.0,76.0
840,74.0,0,464,0.0,76.0
841,66.0,120,104,2.0,76.0
842,71.0,120,224,3.0,76.0
843,74.0,0,464,1.0,76.0
844,64.0,0,239,5.0,76.0
845,74.0,0,239,5.0,76.0
846,52.0,0,239,5.0,76.0
847,67.0,0,239,5.0,76.0
848,71.0,0,239,5.0,76.0
849,73.0,0,104,0.0,76.0
850,73.0,0,104,1.0,76.0
851,64.0,120,104,2.0,76.0
852,54.0,0,224,4.0,76.0
853,62.0,0,104,2.0,76.0
854,70.0,0,224,3.0,76.0
855,74.0,120,104,0.0,76.0
856,74.0,0,104,1.0,76.0
857,66.0,0,239,5.0,76.0
858,54.0,0,239,5.0,76.0
859,70.0,0,239,5.0,76.0
860,73.0,0,239,5.0,76.0
861,76.0,0,104,1.0,76.0
862,61.0,0,104,2.0,76.0
863,76.0,0,104,0.0,76.0
864,59.0,0,104,2.0,76.0
865,71.0,0,224,3.0,76.0
866,74.0,120,104,1.0,76.0
867,74.0,0,104,0.0,76.0
868,55.0,0,224,4.0,76.0
869,76.0,0,239,5.0,76.0
870,67.0,0,239,5.0,76.0
871,71.0,0,239,5.0,76.0
872,55.0,120,239,5.0,76.0
873,73.0,0,104,0.0,76.0
874,73.0,0,104,1.0,76.0
875,52.0,0,224,4.0,76.0
876,64.0,0,224,3.0,76.0
877,71.0,120,104,1.0,76.0
878,67.0,0,224,2.0,76.0
879,71.0,0,104,0.0,76.0
880,64.0,120,239,5.0,76.0
881,52.0,0,239,5.0,76.0
882,71.0,0,239,5.0,76.0
883,73.0,0,239,5.0,76.0
884,67.0,0,239,5.0,76.0
885,70.0,0,104,1.0,76.0
886,70.0,0,104,0.0,76.0
887,54.0,0,224,4.0,76.0
888,61.0,0,224,3.0,76.0
889,71.0,120,104,1.0,76.0
890,71.0,0,104,0.0,76.0
891,73.0,0,239,5.0,76.0
892,66.0,0,239,5.0,76.0
893,70.0,0,239,5.0,76.0
894,54.0,0,239,5.0,76.0
895,73.0,0,104,0.0,76.0
896,73.0,0,104,1.0,76.0
897,70.0,120,104,1.0,76.0
898,70.0,0,104,0.0,76.0
899,58.0,0,224,3.0,76.0
900,52.0,0,224,4.0,76.0
901,64.0,120,239,5.0,76.0
902,71.0,0,239,5.0,76.0
903,67.0,0,239,5.0,76.0
904,52.0,0,239,5.0,76.0
905,66.0,0,104,1.0,76.0
906,66.0,0,104,0.0,76.0
907,68.0,0,104,0.0,76.0
908,68.0,120,104,1.0,76.0
909,50.0,0,224,4.0,76.0
910,66.0,120,704,2.0,76.0
911,59.0,0,224,3.0,76.0
912,71.0,120,239,5.0,76.0
913,66.0,0,239,5.0,76.0
914,50.0,0,239,5.0,76.0
915,62.0,0,239,5.0,76.0
916,70.0,0,104,1.0,76.0
917,70.0,0,104,0.0,76.0
918,64.0,0,224,2.0,76.0
919,49.0,0,224,4.0,76.0
920,66.0,120,104,1.0,76.0
921,61.0,0,224,3.0,76.0
922,66.0,0,104,0.0,76.0
923,64.0,0,239,5.0,76.0
924,70.0,120,239,5.0,76.0
925,49.0,0,239,5.0,76.0
926,61.0,0,239,5.0,76.0
927,47.0,0,224,4.0,76.0
928,54.0,120,224,3.0,76.0
929,62.0,0,224,2.0,76.0
930,47.0,0,239,5.0,76.0
931,62.0,0,239,5.0,76.0
932,66.0,0,239,5.0,76.0
933,59.0,0,239,5.0,76.0
934,62.0,0,104,3.0,76.0
935,59.0,0,104,4.0,76.0
936,74.0,240,119,5.0,76.0
937,78.0,0,119,5.0,76.0
938,59.0,0,119,5.0,76.0
939,71.0,0,119,5.0,76.0
940,61.0,0,104,4.0,76.0
941,66.0,0,224,2.0,76.0
942,64.0,120,104,3.0,76.0
943,61.0,0,119,5.0,76.0
944,76.0,0,119,5.0,76.0
945,79.0,0,119,5.0,76.0
946,73.0,0,119,5.0,76.0
947,71.0,0,584,1.0,76.0
948,71.0,0,584,0.0,76.0
949,66.0,120,104,1.0,76.0
950,66.0,0,104,0.0,76.0
951,62.0,0,224,4.0,76.0
952,74.0,0,239,5.0,76.0
953,83.0,0,239,5.0,76.0
954,62.0,0,239,5.0,76.0
955,78.0,0,239,5.0,76.0
956,64.0,120,104,0.0,76.0
957,64.0,0,104,1.0,76.0
958,66.0,120,104,1.0,76.0
959,66.0,0,104,0.0,76.0
960,61.0,0,224,4.0,76.0
961,76.0,0,239,5.0,76.0
962,61.0,0,239,5.0,76.0
963,73.0,0,239,5.0,76.0
964,82.0,0,239,5.0,76.0
965,71.0,120,584,2.0,76.0
966,66.0,0,584,3.0,76.0
967,62.0,0,104,3.0,76.0
968,59.0,0,224,4.0,76.0
969,66.0,120,104,2.0,76.0
970,59.0,0,239,5.0,76.0
971,71.0,0,239,5.0,76.0
972,78.0,0,239,5.0,76.0
973,74.0,0,239,5.0,76.0
974,61.0,0,104,3.0,76.0
975,64.0,0,104,2.0,76.0
976,66.0,120,104,2.0,76.0
977,61.0,0,224,4.0,76.0
978,59.0,0,104,3.0,76.0
979,61.0,0,239,5.0,76.0
980,78.0,0,239,5.0,76.0
981,73.0,120,239,5.0,76.0
982,74.0,0,239,5.0,76.0
983,74.0,120,584,0.0,76.0
984,74.0,0,584,1.0,76.0
985,71.0,120,104,0.0,76.0
986,71.0,0,104,1.0,76.0
987,66.0,0,224,3.0,76.0
988,62.0,0,224,4.0,76.0
989,62.0,0,239,5.0,76.0
990,74.0,0,239,5.0,76.0
991,78.0,0,239,5.0,76.0
992,83.0,120,239,5.0,76.0
993,70.0,0,104,1.0,76.0
994,70.0,0,104,0.0,76.0
995,71.0,0,104,0.0,76.0
996,71.0,120,104,1.0,76.0
997,64.0,0,224,3.0,76.0
998,61.0,120,224,4.0,76.0
999,83.0,0,239,5.0,76.0
1000,73.0,0,239,5.0,76.0
1001,78.0,0,239,5.0,76.0
1002,61.0,0,239,5.0,76.0
1003,62.0,0,104,3.0,76.0
1004,71.0,0,584,2.0,76.0
1005,59.0,0,224,4.0,76.0
1006,69.0,120,104,2.0,76.0
1007,61.0,0,104,3.0,76.0
1008,80.0,0,239,5.0,76.0
1009,74.0,0,239,5.0,76.0
1010,71.0,120,239,5.0,76.0
1011,59.0,0,239,5.0,76.0
1012,77.0,0,239,5.0,76.0
1013,68.0,0,104,2.0,76.0
1014,59.0,0,104,3.0,76.0
1015,57.0,120,104,3.0,76.0
1016,61.0,0,224,4.0,76.0
1017,69.0,0,104,2.0,76.0
1018,77.0,120,239,5.0,76.0
1019,74.0,0,239,5.0,76.0
1020,73.0,0,239,5.0,76.0
1021,80.0,0,239,5.0,76.0
1022,61.0,0,239,5.0,76.0
1023,77.0,0,584,1.0,76.0
1024,77.0,0,584,0.0,76.0
1025,71.0,0,104,1.0,76.0
1026,62.0,0,224,4.0,76.0
1027,71.0,120,104,0.0,76.0
1028,56.0,0,224,3.0,76.0
1029,74.0,0,239,5.0,76.0
1030,77.0,0,239,5.0,76.0
1031,62.0,0,239,5.0,76.0
1032,80.0,120,239,5.0,76.0
1033,70.0,0,104,1.0,76.0
1034,70.0,0,104,0.0,76.0
1035,71.0,0,104,0.0,76.0
1036,71.0,120,104,1.0,76.0
1037,61.0,0,224,4.0,76.0
1038,80.0,120,239,5.0,76.0
1039,74.0,0,239,5.0,76.0
1040,61.0,0,239,5.0,76.0
1041,73.0,0,239,5.0,76.0
1042,77.0,0,239,5.0,76.0
1043,71.0,0,584,2.0,76.0
1044,65.0,0,344,3.0,76.0
1045,66.0,0,104,3.0,76.0
1046,69.0,120,104,2.0,76.0
1047,59.0,0,224,4.0,76.0
1048,74.0,120,239,5.0,76.0
1049,71.0,0,239,5.0,76.0
1050,77.0,0,239,5.0,76.0
1051,59.0,0,239,5.0,76.0
1052,80.0,0,239,5.0,76.0
1053,68.0,0,104,2.0,76.0
1054,65.0,0,104,3.0,76.0
1055,61.0,0,224,4.0,76.0
1056,69.0,120,104,2.0,76.0
1057,66.0,0,104,3.0,76.0
1058,77.0,0,239,5.0,76.0
1059,80.0,120,239,5.0,76.0
1060,73.0,0,239,5.0,76.0
1061,74.0,0,239,5.0,76.0
1062,61.0,0,239,5.0,76.0
1063,80.0,0,584,0.0,76.0
1064,80.0,0,584,1.0,76.0
1065,65.0,0,224,3.0,76.0
1066,82.0,120,104,0.0,76.0
1067,62.0,0,224,4.0,76.0
1068,82.0,0,104,1.0,76.0
1069,71.0,0,224,2.0,76.0
1070,80.0,0,239,5.0,76.0
1071,74.0,0,239,5.0,76.0
1072,62.0,0,239,5.0,76.0
1073,77.0,120,239,5.0,76.0
1074,83.0,0,104,1.0,76.0
1075,83.0,0,104,0.0,76.0
1076,80.0,0,104,0.0,76.0
1077,80.0,120,104,1.0,76.0
1078,59.0,0,224,4.0,76.0
1079,74.0,120,224,2.0,76.0
1080,66.0,0,224,3.0,76.0
1081,59.0,0,239,5.0,76.0
1082,71.0,0,239,5.0,76.0
1083,74.0,0,239,5.0,76.0
1084,77.0,0,239,5.0,76.0
1085,80.0,0,239,5.0,76.0
1086,82.0,0,104,1.0,76.0
1087,82.0,0,104,0.0,76.0
1088,61.0,0,224,4.0,76.0
1089,78.0,120,104,0.0,76.0
1090,64.0,120,224,3.0,76.0
1091,78.0,0,104,1.0,76.0
1092,73.0,0,224,2.0,76.0
1093,61.0,0,239,5.0,76.0
1094,73.0,0,239,5.0,76.0
1095,76.0,0,239,5.0,76.0
1096,82.0,0,239,5.0,76.0
1097,83.0,0,104,1.0,76.0
1098,83.0,0,104,0.0,76.0
1099,81.0,120,104,1.0,76.0
1100,81.0,0,104,0.0,76.0
1101,62.0,120,224,4.0,76.0
1102,66.0,0,224,3.0,76.0
1103,78.0,0,239,5.0,76.0
1104,83.0,0,239,5.0,76.0
1105,62.0,0,239,5.0,76.0
1106,74.0,0,239,5.0,76.0
1107,79.0,120,104,1.0,76.0
1108,71.0,0,344,2.0,76.0
1109,79.0,0,104,0.0,76.0
1110,74.0,0,104,2.0,76.0
1111,78.0,120,104,1.0,76.0
1112,78.0,0,104,0.0,76.0
1113,64.0,0,224,4.0,76.0
1114,79.0,0,239,5.0,76.0
1115,83.0,0,239,5.0,76.0
1116,64.0,0,239,5.0,76.0
1117,76.0,0,239,5.0,76.0
1118,73.0,0,104,2.0,76.0
1119,71.0,120,104,2.0,76.0
1120,62.0,0,224,4.0,76.0
1121,79.0,0,239,5.0,76.0
1122,83.0,120,239,5.0,76.0
1123,62.0,0,239,5.0,76.0
1124,74.0,0,239,5.0,76.0
1125,76.0,0,239,5.0,76.0
1126,67.0,0,584,3.0,76.0
1127,76.0,0,344,1.0,76.0
1128,76.0,0,344,0.0,76.0
1129,61.0,0,224,4.0,76.0
1130,74.0,0,104,1.0,76.0
1131,70.0,0,224,2.0,76.0
1132,66.0,0,104,3.0,76.0
1133,74.0,120,104,0.0,76.0
1134,61.0,0,239,5.0,76.0
1135,76.0,120,239,5.0,76.0
1136,82.0,0,239,5.0,76.0
1137,73.0,0,239,5.0,76.0
1138,73.0,120,104,0.0,76.0
1139,73.0,0,104,1.0,76.0
1140,64.0,0,104,3.0,76.0
1141,71.0,0,104,1.0,76.0
1142,62.0,0,224,4.0,76.0
1143,71.0,120,104,0.0,76.0
1144,66.0,0,104,3.0,76.0
1145,62.0,0,239,5.0,76.0
1146,83.0,0,239,5.0,76.0
1147,74.0,0,239,5.0,76.0
1148,79.0,0,239,5.0,76.0
1149,76.0,0,239,5.0,76.0
1150,70.0,0,104,3.0,76.0
1151,73.0,0,104,0.0,76.0
1152,73.0,0,104,1.0,76.0
1153,71.0,0,104,3.0,76.0
1154,74.0,120,104,0.0,76.0
1155,79.0,0,464,2.0,76.0
1156,74.0,0,104,1.0,76.0
1157,64.0,0,224,4.0,76.0
1158,76.0,120,239,5.0,76.0
1159,85.0,0,239,5.0,76.0
1160,64.0,0,239,5.0,76.0
1161,79.0,0,239,5.0,76.0
1162,76.0,120,104,1.0,76.0
1163,76.0,0,104,0.0,76.0
1164,70.0,120,104,1.0,76.0
1165,49.0,0,224,4.0,76.0
1166,73.0,0,224,3.0,76.0
1167,70.0,0,104,0.0,76.0
1168,64.0,0,239,5.0,76.0
1169,49.0,0,239,5.0,76.0
1170,70.0,0,239,5.0,76.0
1171,61.0,0,239,5.0,76.0
1172,66.0,0,224,3.0,76.0
1173,71.0,120,224,1.0,76.0
1174,50.0,0,224,4.0,76.0
1175,71.0,0,224,0.0,76.0
1176,78.0,0,464,2.0,76.0
1177,62.0,0,239,5.0,76.0
1178,66.0,0,239,5.0,76.0
1179,50.0,0,239,5.0,76.0
1180,71.0,0,239,5.0,76.0
1181,79.0,0,104,1.0,76.0
1182,79.0,240,119,0.0,76.0
1183,71.0,0,224,2.0,76.0
1184,67.0,0,224,3.0,76.0
1185,78.0,120,104,1.0,76.0
1186,52.0,0,224,4.0,76.0
1187,78.0,0,104,0.0,76.0
1188,67.0,0,239,5.0,76.0
1189,52.0,0,239,5.0,76.0
1190,73.0,0,239,5.0,76.0
1191,64.0,0,239,5.0,76.0
1192,71.0,0,239,5.0,76.0
1193,76.0,0,104,1.0,76.0
1194,76.0,0,119,0.0,76.0
1195,54.0,0,224,4.0,76.0
1196,74.0,120,104,0.0,76.0
1197,71.0,120,224,2.0,76.0
1198,74.0,0,104,1.0,76.0
1199,66.0,0,224,3.0,76.0
1200,73.0,0,239,5.0,76.0
1201,71.0,0,239,5.0,76.0
1202,66.0,0,239,5.0,76.0
1203,54.0,0,239,5.0,76.0
1204,73.0,0,104,1.0,76.0
1205,73.0,0,119,0.0,76.0
1206,71.0,120,104,0.0,76.0
1207,71.0,0,104,1.0,76.0
1208,42.0,0,224,4.0,76.0
1209,70.0,120,224,2.0,76.0
1210,64.0,0,224,3.0,76.0
1211,58.0,0,239,5.0,76.0
1212,54.0,0,239,5.0,76.0
1213,42.0,0,239,5.0,76.0
1214,61.0,0,239,5.0,76.0
1215,47.0,0,224,4.0,76.0
1216,59.0,120,239,5.0,76.0
1217,66.0,0,239,5.0,76.0
1218,62.0,0,239,5.0,76.0
1219,47.0,0,239,5.0,76.0
1220,54.0,0,224,4.0,76.0
1221,69.0,0,239,5.0,76.0
1222,54.0,0,239,5.0,76.0
1223,66.0,240,239,5.0,76.0
1224,73.0,0,239,5.0,76.0
1225,71.0,0,704,0.0,76.0
1226,71.0,0,704,1.0,76.0
1227,59.0,0,239,4.0,76.0
1228,74.0,240,239,5.0,76.0
1229,71.0,0,239,5.0,76.0
1230,66.0,0,719,2.0,76.0
1231,62.0,0,719,3.0,76.0
1232,59.0,0,239,5.0,76.0
1233,78.0,0,239,5.0,76.0
1234,69.0,0,224,0.0,76.0
1235,69.0,240,224,1.0,76.0
1236,66.0,0,104,3.0,76.0
1237,50.0,0,104,4.0,76.0
1238,69.0,0,119,5.0,76.0
1239,66.0,0,119,5.0,76.0
1240,62.0,0,119,5.0,76.0
1241,50.0,0,119,5.0,76.0
1242,69.0,240,224,2.0,76.0
1243,67.0,0,104,3.0,76.0
1244,52.0,0,104,4.0,76.0
1245,67.0,120,119,5.0,76.0
1246,64.0,0,119,5.0,76.0
1247,52.0,0,119,5.0,76.0
1248,71.0,0,119,5.0,76.0
1249,74.0,240,584,1.0,76.0
1250,74.0,0,584,0.0,76.0
1251,69.0,0,224,3.0,76.0
1252,76.0,0,104,0.0,76.0
1253,54.0,0,224,4.0,76.0
1254,76.0,120,104,1.0,76.0
1255,74.0,120,239,5.0,76.0
1256,54.0,0,239,5.0,76.0
1257,66.0,0,239,5.0,76.0
1258,69.0,0,239,5.0,76.0
1259,78.0,0,104,0.0,76.0
1260,78.0,0,104,1.0,76.0
1261,79.0,0,104,1.0,76.0
1262,52.0,0,224,4.0,76.0
1263,67.0,120,224,3.0,76.0
1264,79.0,120,104,0.0,76.0
1265,67.0,0,239,5.0,76.0
1266,73.0,0,239,5.0,76.0
1267,52.0,0,239,5.0,76.0
1268,64.0,0,239,5.0,76.0
1269,74.0,0,584,2.0,76.0
1270,81.0,0,104,1.0,76.0
1271,81.0,0,104,0.0,76.0
1272,50.0,0,224,4.0,76.0
1273,79.0,0,104,1.0,76.0
1274,71.0,120,104,2.0,76.0
1275,79.0,0,104,0.0,76.0
1276,66.0,120,224,3.0,76.0
1277,62.0,0,239,5.0,76.0
1278,66.0,0,239,5.0,76.0
1279,69.0,0,239,5.0,76.0
1280,50.0,0,239,5.0,76.0
1281,78.0,0,104,0.0,76.0
1282,78.0,120,104,1.0,76.0
1283,69.0,0,104,2.0,76.0
1284,76.0,0,104,1.0,76.0
1285,67.0,0,224,3.0,76.0
1286,52.0,0,224,4.0,76.0
1287,67.0,0,104,2.0,76.0
1288,76.0,120,104,0.0,76.0
1289,73.0,0,239,5.0,76.0
1290,52.0,0,239,5.0,76.0
1291,67.0,0,239,5.0,76.0
1292,64.0,0,239,5.0,76.0
1293,69.0,0,104,3.0,76.0
1294,66.0,0,104,2.0,76.0
1295,67.0,120,104,2.0,76.0
1296,67.0,0,104,3.0,76.0
1297,74.0,0,224,1.0,76.0
1298,74.0,0,224,0.0,76.0
1299,54.0,0,224,4.0,76.0
1300,74.0,120,239,5.0,76.0
1301,66.0,0,239,5.0,76.0
1302,54.0,0,239,5.0,76.0
1303,69.0,0,239,5.0,76.0
1304,66.0,0,104,3.0,76.0
1305,52.0,0,224,4.0,76.0
1306,72.0,0,224,0.0,76.0
1307,64.0,120,104,3.0,76.0
1308,72.0,120,224,1.0,76.0
1309,64.0,0,239,5.0,76.0
1310,52.0,0,239,5.0,76.0
1311,67.0,0,239,5.0,76.0
1312,72.0,0,239,5.0,76.0
1313,69.0,0,464,2.0,76.0
1314,51.0,0,224,4.0,76.0
1315,71.0,0,224,0.0,76.0
1316,71.0,0,224,1.0,76.0
1317,66.0,0,224,3.0,76.0
1318,66.0,0,239,5.0,76.0
1319,71.0,0,239,5.0,76.0
1320,63.0,120,239,5.0,76.0
1321,69.0,0,239,5.0,76.0
1322,51.0,0,239,5.0,76.0
1323,52.0,240,224,4.0,76.0
1324,76.0,0,224,1.0,76.0
1325,71.0,0,224,3.0,76.0
1326,76.0,0,224,0.0,76.0
1327,67.0,0,224,2.0,76.0
1328,71.0,0,239,5.0,76.0
1329,52.0,0,239,5.0,76.0
1330,67.0,0,239,5.0,76.0
1331,64.0,0,239,5.0,76.0
1332,66.0,0,224,2.0,76.0
1333,69.0,0,224,3.0,76.0
1334,54.0,0,224,4.0,76.0
1335,75.0,0,224,1.0,76.0
1336,75.0,0,224,0.0,76.0
1337,69.0,0,239,5.0,76.0
1338,54.0,0,239,5.0,76.0
1339,66.0,240,239,5.0,76.0
1340,75.0,0,239,5.0,76.0
1341,51.0,0,224,4.0,76.0
1342,81.0,0,224,1.0,76.0
1343,81.0,0,224,0.0,76.0
1344,78.0,0,224,2.0,76.0
1345,63.0,0,239,5.0,76.0
1346,69.0,0,239,5.0,76.0
1347,51.0,240,239,5.0,76.0
1348,66.0,0,239,5.0,76.0
1349,71.0,0,239,5.0,76.0
1350,79.0,0,29,0.0,76.0
1351,81.0,30,29,0.0,76.0
1352,79.0,30,29,0.0,76.0
1353,81.0,30,29,0.0,76.0
1354,79.0,30,29,0.0,76.0
1355,81.0,30,29,0.0,76.0
1356,78.0,30,29,0.0,76.0
1357,52.0,0,224,4.0,76.0
1358,79.0,0,224,1.0,76.0
1359,76.0,0,224,2.0,76.0
1360,71.0,0,464,3.0,76.0
1361,67.0,240,239,5.0,76.0
1362,79.0,30,29,0.0,76.0
1363,52.0,0,239,5.0,76.0
1364,71.0,0,239,5.0,76.0
1365,64.0,0,239,5.0,76.0
1366,78.0,0,104,1.0,76.0
1367,78.0,30,104,0.0,76.0
1368,79.0,120,104,1.0,76.0
1369,69.0,0,224,3.0,76.0
1370,54.0,0,224,4.0,76.0
1371,79.0,0,104,0.0,76.0
1372,75.0,0,224,2.0,76.0
1373,75.0,0,239,5.0,76.0
1374,69.0,0,239,5.0,76.0
1375,66.0,0,239,5.0,76.0
1376,54.0,0,239,5.0,76.0
1377,76.0,120,104,0.0,76.0
1378,76.0,0,104,1.0,76.0
1379,71.0,0,104,3.0,76.0
1380,69.0,0,104,3.0,76.0
1381,71.0,0,104,0.0,76.0
1382,71.0,120,104,1.0,76.0
1383,55.0,0,224,4.0,76.0
1384,55.0,0,239,5.0,76.0
1385,67.0,0,239,5.0,76.0
1386,71.0,0,239,5.0,76.0
1387,75.0,0,239,5.0,76.0
1388,76.0,0,104,1.0,76.0
1389,67.0,120,104,3.0,76.0
1390,76.0,0,104,0.0,76.0
1391,78.0,120,104,0.0,76.0
1392,69.0,0,104,3.0,76.0
1393,54.0,0,224,4.0,76.0
1394,78.0,0,104,1.0,76.0
1395,69.0,0,239,5.0,76.0
1396,54.0,0,239,5.0,76.0
1397,66.0,0,239,5.0,76.0
1398,75.0,0,239,5.0,76.0
1399,79.0,0,104,0.0,76.0
1400,79.0,0,104,1.0,76.0
1401,76.0,0,704,2.0,76.0
1402,81.0,120,104,1.0,76.0
1403,71.0,0,224,3.0,76.0
1404,52.0,0,224,4.0,76.0
1405,81.0,0,104,0.0,76.0
1406,64.0,0,239,5.0,76.0
1407,71.0,0,239,5.0,76.0
1408,52.0,120,239,5.0,76.0
1409,67.0,0,239,5.0,76.0
1410,78.0,120,104,1.0,76.0
1411,78.0,0,104,0.0,76.0
1412,79.0,0,104,1.0,76.0
1413,70.0,0,224,2.0,76.0
1414,79.0,120,104,0.0,76.0
1415,54.0,0,224,4.0,76.0
1416,62.0,0,224,3.0,76.0
1417,74.0,0,239,5.0,76.0
1418,70.0,0,239,5.0,76.0
1419,54.0,0,239,5.0,76.0
1420,66.0,0,239,5.0,76.0
1421,76.0,0,104,0.0,76.0
1422,76.0,0,104,1.0,76.0
1423,78.0,120,104,1.0,76.0
1424,78.0,0,104,0.0,76.0
1425,59.0,0,224,3.0,76.0
1426,55.0,0,224,4.0,76.0
1427,55.0,0,239,5.0,76.0
1428,67.0,0,239,5.0,76.0
1429,76.0,0,239,5.0,76.0
1430,71.0,120,239,5.0,76.0
1431,74.0,0,104,0.0,76.0
1432,74.0,0,104,1.0,76.0
1433,76.0,120,104,1.0,76.0
1434,66.0,0,224,3.0,76.0
1435,54.0,120,224,4.0,76.0
1436,76.0,0,104,0.0,76.0
1437,54.0,0,239,5.0,76.0
1438,66.0,0,239,5.0,76.0
1439,74.0,0,239,5.0,76.0
1440,71.0,0,239,5.0,76.0
1441,71.0,0,584,2.0,76.0
1442,73.0,120,224,0.0,76.0
1443,73.0,120,104,2.0,76.0
1444,73.0,0,224,1.0,76.0
1445,52.0,0,224,4.0,76.0
1446,67.0,0,224,3.0,76.0
1447,64.0,0,239,5.0,76.0
1448,71.0,0,239,5.0,76.0
1449,67.0,0,239,5.0,76.0
1450,73.0,0,239,5.0,76.0
1451,52.0,0,239,5.0,76.0
1452,74.0,0,104,2.0,76.0
1453,82.0,0,224,1.0,76.0
1454,76.0,120,104,2.0,76.0
1455,82.0,0,224,0.0,76.0
1456,54.0,120,224,4.0,76.0
1457,66.0,0,224,3.0,76.0
1458,66.0,0,239,5.0,76.0
1459,54.0,0,239,5.0,76.0
1460,73.0,0,239,5.0,76.0
1461,70.0,0,239,5.0,76.0
1462,74.0,0,104,2.0,76.0
1463,83.0,0,224,0.0,76.0
1464,73.0,120,104,2.0,76.0
1465,55.0,0,224,4.0,76.0
1466,83.0,0,224,1.0,76.0
1467,59.0,0,224,3.0,76.0
1468,74.0,0,239,5.0,76.0
1469,67.0,0,239,5.0,76.0
1470,71.0,0,239,5.0,76.0
1471,55.0,120,239,5.0,76.0
1472,71.0,0,104,2.0,76.0
1473,69.0,120,104,2.0,76.0
1474,66.0,0,224,3.0,76.0
1475,54.0,0,224,4.0,76.0
1476,54.0,120,239,5.0,76.0
1477,66.0,0,239,5.0,76.0
1478,71.0,0,239,5.0,76.0
1479,74.0,0,239,5.0,76.0
1480,67.0,0,104,2.0,76.0
1481,74.0,0,464,0.0,76.0
1482,52.0,120,224,4.0,76.0
1483,71.0,0,224,3.0,76.0
1484,74.0,0,464,1.0,76.0
1485,66.0,120,104,2.0,76.0
1486,71.0,0,239,5.0,76.0
1487,74.0,0,239,5.0,76.0
1488,64.0,0,239,5.0,76.0
1489,67.0,0,239,5.0,76.0
1490,52.0,0,239,5.0,76.0
1491,64.0,0,104,2.0,76.0
1492,73.0,0,104,1.0,76.0
1493,73.0,0,104,0.0,76.0
1494,62.0,0,104,2.0,76.0
1495,70.0,0,224,3.0,76.0
1496,74.0,120,104,1.0,76.0
1497,54.0,0,224,4.0,76.0
1498,74.0,0,104,0.0,76.0
1499,70.0,0,239,5.0,76.0
1500,73.0,0,239,5.0,76.0
1501,66.0,120,239,5.0,76.0
1502,54.0,0,239,5.0,76.0
1503,76.0,0,104,1.0,76.0
1504,61.0,0,104,2.0,76.0
1505,76.0,120,104,0.0,76.0
1506,59.0,0,104,2.0,76.0
1507,74.0,120,104,0.0,76.0
1508,55.0,0,224,4.0,76.0
1509,71.0,0,224,3.0,76.0
1510,74.0,0,104,1.0,76.0
1511,76.0,0,239,5.0,76.0
1512,67.0,0,239,5.0,76.0
1513,71.0,0,239,5.0,76.0
1514,55.0,0,239,5.0,76.0
1515,73.0,120,104,1.0,76.0
1516,73.0,0,104,0.0,76.0
1517,52.0,0,224,4.0,76.0
1518,67.0,0,224,2.0,76.0
1519,71.0,0,104,0.0,76.0
1520,71.0,120,104,1.0,76.0
1521,64.0,0,224,3.0,76.0
1522,71.0,0,239,5.0,76.0
1523,73.0,0,239,5.0,76.0
1524,64.0,0,239,5.0,76.0
1525,52.0,0,239,5.0,76.0
1526,67.0,0,239,5.0,76.0
1527,70.0,0,104,1.0,76.0
1528,70.0,0,104,0.0,76.0
1529,71.0,0,104,0.0,76.0
1530,71.0,120,104,1.0,76.0
1531,54.0,0,224,4.0,76.0
1532,61.0,0,224,3.0,76.0
1533,54.0,0,239,5.0,76.0
1534,66.0,0,239,5.0,76.0
1535,73.0,0,239,5.0,76.0
1536,70.0,0,239,5.0,76.0
1537,73.0,0,104,1.0,76.0
1538,73.0,0,104,0.0,76.0
1539,70.0,120,104,1.0,76.0
1540,58.0,0,224,3.0,76.0
1541,52.0,0,224,4.0,76.0
1542,70.0,0,104,0.0,76.0
1543,52.0,0,239,5.0,76.0
1544,64.0,120,239,5.0,76.0
1545,71.0,0,239,5.0,76.0
1546,67.0,0,239,5.0,76.0
1547,66.0,0,104,0.0,76.0
1548,66.0,0,104,1.0,76.0
1549,50.0,0,224,4.0,76.0
1550,59.0,120,224,3.0,76.0
1551,68.0,0,104,0.0,76.0
1552,66.0,120,704,2.0,76.0
1553,68.0,120,104,1.0,76.0
1554,71.0,0,239,5.0,76.0
1555,66.0,0,239,5.0,76.0
1556,50.0,0,239,5.0,76.0
1557,62.0,0,239,5.0,76.0
1558,70.0,0,104,1.0,76.0
1559,70.0,0,104,0.0,76.0
1560,66.0,120,104,1.0,76.0
1561,49.0,0,224,4.0,76.0
1562,61.0,0,224,3.0,76.0
1563,64.0,0,224,2.0,76.0
1564,66.0,0,104,0.0,76.0
1565,64.0,120,239,5.0,76.0
1566,61.0,0,239,5.0,76.0
1567,49.0,0,239,5.0,76.0
1568,70.0,0,239,5.0,76.0
1569,47.0,0,224,4.0,76.0
1570,54.0,0,224,3.0,76.0
1571,62.0,0,224,2.0,76.0
1572,59.0,0,239,5.0,76.0
1573,62.0,0,239,5.0,76.0
1574,47.0,120,239,5.0,76.0
1575,66.0,0,239,5.0,76.0
1576,62.0,0,104,3.0,76.0
1577,59.0,240,104,4.0,76.0
1578,74.0,0,119,5.0,76.0
1579,71.0,0,119,5.0,76.0
1580,59.0,0,119,5.0,76.0
1581,78.0,0,119,5.0,76.0
1582,64.0,0,104,3.0,76.0
1583,61.0,0,104,4.0,76.0
1584,66.0,0,224,2.0,76.0
1585,73.0,120,119,5.0,76.0
1586,76.0,0,119,5.0,76.0
1587,61.0,0,119,5.0,76.0
1588,79.0,0,119,5.0,76.0
1589,71.0,0,584,0.0,76.0
1590,71.0,0,584,1.0,76.0
1591,66.0,120,104,1.0,76.0
1592,62.0,0,224,4.0,76.0
1593,66.0,0,104,0.0,76.0
1594,83.0,0,239,5.0,76.0
1595,62.0,0,239,5.0,76.0
1596,74.0,0,239,5.0,76.0
1597,78.0,0,239,5.0,76.0
1598,64.0,0,104,1.0,76.0
1599,64.0,120,104,0.0,76.0
1600,61.0,0,224,4.0,76.0
1601,66.0,0,104,0.0,76.0
1602,66.0,120,104,1.0,76.0
1603,82.0,0,239,5.0,76.0
1604,61.0,0,239,5.0,76.0
1605,76.0,0,239,5.0,76.0
1606,73.0,0,239,5.0,76.0
1607,71.0,0,584,2.0,76.0
1608,66.0,120,584,3.0,76.0
1609,66.0,120,104,2.0,76.0
1610,59.0,0,224,4.0,76.0
1611,62.0,0,104,3.0,76.0
1612,74.0,0,239,5.0,76.0
1613,59.0,120,239,5.0,76.0
1614,71.0,0,239,5.0,76.0
1615,78.0,0,239,5.0,76.0
1616,61.0,0,104,3.0,76.0
1617,64.0,0,104,2.0,76.0
1618,66.0,120,104,2.0,76.0
1619,61.0,0,224,4.0,76.0
1620,59.0,0,104,3.0,76.0
1621,74.0,120,239,5.0,76.0
1622,73.0,0,239,5.0,76.0
1623,78.0,0,239,5.0,76.0
1624,61.0,0,239,5.0,76.0
1625,74.0,0,584,1.0,76.0
1626,74.0,0,584,0.0,76.0
1627,62.0,0,224,4.0,76.0
1628,71.0,120,104,1.0,76.0
1629,71.0,0,104,0.0,76.0
1630,66.0,0,224,3.0,76.0
1631,78.0,0,239,5.0,76.0
1632,74.0,0,239,5.0,76.0
1633,83.0,0,239,5.0,76.0
1634,62.0,0,239,5.0,76.0
1635,70.0,0,104,1.0,76.0
1636,70.0,0,104,0.0,76.0
1637,61.0,0,224,4.0,76.0
1638,64.0,120,224,3.0,76.0
1639,71.0,0,104,0.0,76.0
1640,71.0,120,104,1.0,76.0
1641,73.0,0,239,5.0,76.0
1642,78.0,0,239,5.0,76.0
1643,83.0,0,239,5.0,76.0
1644,61.0,0,239,5.0,76.0
1645,62.0,0,104,3.0,76.0
1646,71.0,120,584,2.0,76.0
1647,59.0,0,224,4.0,76.0
1648,69.0,0,104,2.0,76.0
1649,61.0,120,104,3.0,76.0
1650,74.0,0,239,5.0,76.0
1651,59.0,120,239,5.0,76.0
1652,80.0,0,239,5.0,76.0
1653,77.0,0,239,5.0,76.0
1654,71.0,0,239,5.0,76.0
1655,59.0,0,104,3.0,76.0
1656,68.0,0,104,2.0,76.0
1657,57.0,0,104,3.0,76.0
1658,61.0,0,224,4.0,76.0
1659,69.0,120,104,2.0,76.0
1660,61.0,120,239,5.0,76.0
1661,80.0,0,239,5.0,76.0
1662,77.0,0,239,5.0,76.0
1663,73.0,0,239,5.0,76.0
1664,74.0,0,239,5.0,76.0
1665,77.0,0,584,0.0,76.0
1666,77.0,0,584,1.0,76.0
1667,71.0,120,104,0.0,76.0
1668,71.0,0,104,1.0,76.0
1669,62.0,120,224,4.0,76.0
1670,56.0,0,224,3.0,76.0
1671,77.0,0,239,5.0,76.0
1672,62.0,0,239,5.0,76.0
1673,74.0,0,239,5.0,76.0
1674,80.0,0,239,5.0,76.0
1675,70.0,120,104,0.0,76.0
1676,70.0,0,104,1.0,76.0
1677,71.0,120,104,0.0,76.0
1678,61.0,0,224,4.0,76.0
1679,71.0,0,104,1.0,76.0
1680,74.0,0,239,5.0,76.0
1681,80.0,0,239,5.0,76.0
1682,73.0,0,239,5.0,76.0
1683,61.0,0,239,5.0,76.0
1684,77.0,0,239,5.0,76.0
1685,65.0,0,344,3.0,76.0
1686,71.0,0,584,2.0,76.0
1687,69.0,120,104,2.0,76.0
1688,59.0,0,224,4.0,76.0
1689,66.0,0,104,3.0,76.0
1690,74.0,0,239,5.0,76.0
1691,80.0,0,239,5.0,76.0
1692,77.0,0,239,5.0,76.0
1693,59.0,120,239,5.0,76.0
1694,71.0,0,239,5.0,76.0
1695,68.0,0,104,2.0,76.0
1696,65.0,0,104,3.0,76.0
1697,66.0,0,104,3.0,76.0
1698,61.0,0,224,4.0,76.0
1699,69.0,120,104,2.0,76.0
1700,74.0,0,239,5.0,76.0
1701,61.0,120,239,5.0,76.0
1702,73.0,0,239,5.0,76.0
1703,80.0,0,239,5.0,76.0
1704,77.0,0,239,5.0,76.0
1705,80.0,0,584,1.0,76.0
1706,80.0,0,584,0.0,76.0
1707,82.0,120,104,0.0,76.0
1708,62.0,0,224,4.0,76.0
1709,65.0,120,224,3.0,76.0
1710,82.0,0,104,1.0,76.0
1711,71.0,0,224,2.0,76.0
1712,77.0,0,239,5.0,76.0
1713,74.0,0,239,5.0,76.0
1714,62.0,0,239,5.0,76.0
1715,80.0,0,239,5.0,76.0
1716,83.0,120,104,1.0,76.0
1717,83.0,0,104,0.0,76.0
1718,59.0,0,224,4.0,76.0
1719,66.0,0,224,3.0,76.0
1720,80.0,0,104,0.0,76.0
1721,74.0,0,224,2.0,76.0
1722,80.0,120,104,1.0,76.0
1723,80.0,0,239,5.0,76.0
1724,71.0,0,239,5.0,76.0
1725,74.0,0,239,5.0,76.0
1726,59.0,0,239,5.0,76.0
1727,77.0,0,239,5.0,76.0
1728,82.0,0,104,0.0,76.0
1729,82.0,0,104,1.0,76.0
1730,78.0,120,104,1.0,76.0
1731,73.0,0,224,2.0,76.0
1732,61.0,0,224,4.0,76.0
1733,78.0,0,104,0.0,76.0
1734,64.0,0,224,3.0,76.0
1735,82.0,0,239,5.0,76.0
1736,61.0,0,239,5.0,76.0
1737,76.0,120,239,5.0,76.0
1738,73.0,0,239,5.0,76.0
1739,83.0,0,104,0.0,76.0
1740,83.0,0,104,1.0,76.0
1741,81.0,120,104,0.0,76.0
1742,66.0,120,224,3.0,76.0
1743,81.0,0,104,1.0,76.0
1744,62.0,0,224,4.0,76.0
1745,83.0,0,239,5.0,76.0
1746,78.0,0,239,5.0,76.0
1747,74.0,0,239,5.0,76.0
1748,62.0,0,239,5.0,76.0
1749,79.0,0,104,1.0,76.0
1750,71.0,0,344,2.0,76.0
1751,79.0,120,104,0.0,76.0
1752,78.0,120,104,1.0,76.0
1753,64.0,0,224,4.0,76.0
1754,74.0,0,104,2.0,76.0
1755,78.0,0,104,0.0,76.0
1756,64.0,0,239,5.0,76.0
1757,83.0,0,239,5.0,76.0
1758,79.0,0,239,5.0,76.0
1759,76.0,0,239,5.0,76.0
1760,73.0,0,104,2.0,76.0
1761,62.0,120,224,4.0,76.0
1762,71.0,120,104,2.0,76.0
1763,83.0,0,239,5.0,76.0
1764,74.0,0,239,5.0,76.0
1765,62.0,0,239,5.0,76.0
1766,76.0,0,239,5.0,76.0
1767,79.0,0,239,5.0,76.0
1768,67.0,0,584,3.0,76.0
1769,76.0,0,344,1.0,76.0
1770,76.0,0,344,0.0,76.0
1771,74.0,120,104,1.0,76.0
1772,70.0,0,224,2.0,76.0
1773,61.0,0,224,4.0,76.0
1774,74.0,0,104,0.0,76.0
1775,66.0,0,104,3.0,76.0
1776,73.0,0,239,5.0,76.0
1777,76.0,0,239,5.0,76.0
1778,82.0,120,239,5.0,76.0
1779,61.0,0,239,5.0,76.0
1780,64.0,120,104,3.0,76.0
1781,73.0,0,104,0.0,76.0
1782,73.0,0,104,1.0,76.0
1783,66.0,0,104,3.0,76.0
1784,71.0,120,104,0.0,76.0
1785,62.0,0,224,4.0,76.0
1786,71.0,0,104,1.0,76.0
1787,62.0,0,239,5.0,76.0
1788,83.0,0,239,5.0,76.0
1789,76.0,0,239,5.0,76.0
1790,74.0,0,239,5.0,76.0
1791,79.0,0,239,5.0,76.0
1792,73.0,0,104,0.0,76.0
1793,70.0,0,104,3.0,76.0
1794,73.0,0,104,1.0,76.0
1795,71.0,120,104,3.0,76.0
1796,79.0,0,464,2.0,76.0
1797,74.0,0,104,0.0,76.0
1798,64.0,0,224,4.0,76.0
1799,74.0,0,104,1.0,76.0
1800,79.0,0,239,5.0,76.0
1801,64.0,0,239,5.0,76.0
1802,85.0,120,239,5.0,76.0
1803,76.0,0,239,5.0,76.0
1804,76.0,0,104,0.0,76.0
1805,76.0,0,104,1.0,76.0
1806,70.0,120,104,1.0,76.0
1807,70.0,0,104,0.0,76.0
1808,49.0,0,224,4.0,76.0
1809,73.0,0,224,3.0,76.0
1810,70.0,0,239,5.0,76.0
1811,49.0,0,239,5.0,76.0
1812,61.0,0,239,5.0,76.0
1813,64.0,120,239,5.0,76.0
1814,71.0,0,224,0.0,76.0
1815,50.0,0,224,4.0,76.0
1816,71.0,0,224,1.0,76.0
1817,66.0,0,224,3.0,76.0
1818,78.0,0,464,2.0,76.0
1819,62.0,0,239,5.0,76.0
1820,66.0,120,239,5.0,76.0
1821,71.0,0,239,5.0,76.0
1822,50.0,0,239,5.0,76.0
1823,79.0,0,104,1.0,76.0
1824,79.0,0,119,0.0,76.0
1825,78.0,120,104,1.0,76.0
1826,52.0,0,224,4.0,76.0
1827,78.0,0,104,0.0,76.0
1828,71.0,240,224,2.0,76.0
1829,67.0,0,224,3.0,76.0
1830,67.0,0,239,5.0,76.0
1831,73.0,0,239,5.0,76.0
1832,52.0,0,239,5.0,76.0
1833,71.0,0,239,5.0,76.0
1834,64.0,0,239,5.0,76.0
1835,76.0,0,104,1.0,76.0
1836,76.0,0,119,0.0,76.0
1837,74.0,0,104,0.0,76.0
1838,54.0,0,224,4.0,76.0
1839,71.0,0,224,2.0,76.0
1840,74.0,120,104,1.0,76.0
1841,66.0,120,224,3.0,76.0
1842,54.0,0,239,5.0,76.0
1843,71.0,0,239,5.0,76.0
1844,66.0,0,239,5.0,76.0
1845,73.0,0,239,5.0,76.0
1846,73.0,0,104,1.0,76.0
1847,73.0,120,119,0.0,76.0
1848,70.0,0,224,2.0,76.0
1849,42.0,0,224,4.0,76.0
1850,64.0,0,224,3.0,76.0
1851,71.0,120,104,0.0,76.0
1852,71.0,0,104,1.0,76.0
1853,54.0,0,239,5.0,76.0
1854,42.0,0,239,5.0,76.0
1855,61.0,0,239,5.0,76.0
1856,58.0,0,239,5.0,76.0
1857,47.0,0,224,4.0,76.0
1858,59.0,0,239,5.0,76.0
1859,62.0,0,239,5.0,76.0
1860,47.0,120,239,5.0,76.0
1861,66.0,0,239,5.0,76.0
1862,54.0,0,224,4.0,76.0
1863,69.0,0,239,5.0,76.0
1864,54.0,240,239,5.0,76.0
1865,66.0,0,239,5.0,76.0
1866,73.0,0,239,5.0,76.0
1867,66.0,0,719,2.0,76.0
1868,59.0,0,239,4.0,76.0
1869,62.0,0,719,3.0,76.0
1870,71.0,0,719,0.0,76.0
1871,71.0,0,719,1.0,76.0
1872,71.0,0,239,5.0,76.0
1873,78.0,0,239,5.0,76.0
1874,59.0,0,239,5.0,76.0
1875,74.0,240,239,5.0,76.0
1876,62.0,0,104,3.0,52.0
1877,71.0,0,104,0.0,76.0
1878,66.0,0,104,2.0,48.0
1879,70.0,0,104,0.0,76.0
1880,61.0,120,104,3.0,52.0
1881,64.0,0,104,2.0,48.0
1882,71.0,0,119,0.0,76.0
1883,66.0,480,464,1.0,52.0
1884,73.0,120,119,0.0,76.0
1885,62.0,0,239,3.0,52.0
1886,66.0,120,239,2.0,48.0
1887,74.0,0,104,0.0,76.0
1888,59.0,120,224,4.0,52.0
1889,78.0,120,104,0.0,76.0
1890,59.0,0,239,5.0,76.0
1891,74.0,0,239,5.0,76.0
1892,78.0,0,239,5.0,76.0
1893,71.0,0,239,5.0,76.0
1894,76.0,120,104,0.0,76.0
1895,71.0,0,464,1.0,52.0
1896,74.0,120,104,0.0,76.0
1897,55.0,0,224,4.0,52.0
1898,71.0,0,239,5.0,76.0
1899,67.0,0,239,5.0,76.0
1900,55.0,0,239,5.0,76.0
1901,76.0,0,239,5.0,76.0
1902,73.0,0,104,0.0,76.0
1903,52.0,0,224,4.0,52.0
1904,71.0,120,104,0.0,76.0
1905,71.0,0,239,5.0,76.0
1906,52.0,0,239,5.0,76.0
1907,64.0,0,239,5.0,76.0
1908,67.0,0,239,5.0,76.0
1909,73.0,0,239,5.0,76.0
1910,70.0,0,119,0.0,76.0
1911,71.0,120,104,0.0,76.0
1912,79.0,120,464,1.0,52.0
1913,73.0,0,104,2.0,48.0
1914,70.0,120,119,0.0,76.0
1915,71.0,0,104,0.0,76.0
1916,73.0,0,224,1.0,52.0
1917,66.0,0,224,3.0,52.0
1918,74.0,120,104,2.0,48.0
1919,70.0,0,479,5.0,76.0
1920,54.0,0,479,5.0,76.0
1921,54.0,0,479,4.0,52.0
1922,66.0,120,479,5.0,76.0
1923,73.0,0,479,5.0,76.0
1924,73.0,0,104,0.0,76.0
1925,76.0,0,224,2.0,48.0
1926,64.0,0,224,3.0,52.0
1927,70.0,120,224,1.0,52.0
1928,66.0,120,104,0.0,76.0
1929,62.0,0,104,3.0,52.0
1930,66.0,120,104,2.0,48.0
1931,71.0,0,119,0.0,76.0
1932,70.0,0,104,0.0,76.0
1933,64.0,120,104,2.0,48.0
1934,61.0,0,104,3.0,52.0
1935,71.0,120,119,0.0,76.0
1936,66.0,0,464,1.0,52.0
1937,73.0,120,119,0.0,76.0
1938,66.0,0,239,2.0,48.0
1939,62.0,0,239,3.0,52.0
1940,74.0,120,104,0.0,76.0
1941,59.0,0,224,4.0,52.0
1942,78.0,120,104,0.0,76.0
1943,74.0,0,239,5.0,76.0
1944,78.0,0,239,5.0,76.0
1945,71.0,0,239,5.0,76.0
1946,59.0,0,239,5.0,76.0
1947,76.0,0,104,0.0,76.0
1948,74.0,120,104,0.0,76.0
1949,55.0,0,224,4.0,52.0
1950,71.0,0,464,1.0,52.0
1951,67.0,0,239,5.0,76.0
1952,71.0,0,239,5.0,76.0
1953,76.0,0,239,5.0,76.0
1954,55.0,120,239,5.0,76.0
1955,73.0,0,104,0.0,76.0
1956,71.0,120,104,0.0,76.0
1957,52.0,0,224,4.0,52.0
1958,79.0,0,224,1.0,52.0
1959,67.0,0,239,5.0,76.0
1960,64.0,0,239,5.0,76.0
1961,52.0,0,239,5.0,76.0
1962,73.0,0,239,5.0,76.0
1963,71.0,120,239,5.0,76.0
1964,66.0,0,104,3.0,52.0
1965,70.0,240,104,2.0,48.0
1966,71.0,120,104,2.0,48.0
1967,68.0,0,104,3.0,52.0
1968,73.0,120,224,2.0,48.0
1969,78.0,120,704,0.0,76.0
1970,70.0,0,224,3.0,52.0
1971,70.0,0,704,1.0,52.0
1972,70.0,0,719,5.0,76.0
1973,66.0,0,719,5.0,76.0
1974,73.0,0,719,5.0,76.0
1975,54.0,0,719,5.0,76.0
1976,54.0,0,719,4.0,52.0
1977,62.0,240,104,3.0,52.0
1978,71.0,0,104,0.0,76.0
1979,66.0,0,104,2.0,48.0
1980,61.0,120,104,3.0,52.0
1981,64.0,0,104,2.0,48.0
1982,70.0,0,104,0.0,76.0
1983,71.0,0,119,0.0,76.0
1984,66.0,0,464,1.0,52.0
1985,73.0,120,119,0.0,76.0
1986,66.0,0,239,2.0,48.0
1987,62.0,120,239,3.0,52.0
1988,74.0,0,104,0.0,76.0
1989,78.0,120,104,0.0,76.0
1990,59.0,0,224,4.0,52.0
1991,71.0,0,239,5.0,76.0
1992,74.0,0,239,5.0,76.0
1993,59.0,0,239,5.0,76.0
1994,78.0,120,239,5.0,76.0
1995,76.0,120,104,0.0,76.0
1996,71.0,0,464,1.0,52.0
1997,55.0,0,224,4.0,52.0
1998,74.0,120,104,0.0,76.0
1999,71.0,0,239,5.0,76.0
2000,55.0,0,239,5.0,76.0
2001,67.0,0,239,5.0,76.0
2002,76.0,0,239,5.0,76.0
2003,73.0,0,104,0.0,76.0
2004,52.0,0,224,4.0,52.0
2005,71.0,120,104,0.0,76.0
2006,71.0,0,239,5.0,76.0
2007,64.0,0,239,5.0,76.0
2008,73.0,120,239,5.0,76.0
2009,52.0,0,239,5.0,76.0
2010,67.0,0,239,5.0,76.0
2011,70.0,0,119,0.0,76.0
2012,71.0,120,104,0.0,76.0
2013,79.0,0,464,1.0,52.0
2014,73.0,0,104,2.0,48.0
2015,70.0,0,119,0.0,76.0
2016,73.0,120,224,1.0,52.0
2017,74.0,0,104,2.0,48.0
2018,66.0,0,224,3.0,52.0
2019,71.0,120,104,0.0,76.0
2020,54.0,120,479,4.0,52.0
2021,66.0,0,479,5.0,76.0
2022,73.0,0,479,5.0,76.0
2023,70.0,0,479,5.0,76.0
2024,54.0,0,479,5.0,76.0
2025,73.0,0,104,0.0,76.0
2026,64.0,120,224,3.0,52.0
2027,66.0,120,104,0.0,76.0
2028,76.0,0,224,2.0,48.0
2029,70.0,0,224,1.0,52.0
2030,66.0,0,104,2.0,48.0
2031,62.0,120,104,3.0,52.0
2032,71.0,0,119,0.0,76.0
2033,64.0,120,104,2.0,48.0
2034,61.0,0,104,3.0,52.0
2035,70.0,0,104,0.0,76.0
2036,71.0,120,119,0.0,76.0
2037,66.0,0,464,1.0,52.0
2038,62.0,0,239,3.0,52.0
2039,73.0,120,119,0.0,76.0
2040,66.0,0,239,2.0,48.0
2041,74.0,0,104,0.0,76.0
2042,78.0,120,104,0.0,76.0
2043,59.0,0,224,4.0,52.0
2044,59.0,0,239,5.0,76.0
2045,78.0,0,239,5.0,76.0
2046,74.0,120,239,5.0,76.0
2047,71.0,0,239,5.0,76.0
2048,76.0,0,104,0.0,76.0
2049,74.0,120,104,0.0,76.0
2050,55.0,0,224,4.0,52.0
2051,71.0,0,464,1.0,52.0
2052,67.0,0,239,5.0,76.0
2053,76.0,120,239,5.0,76.0
2054,55.0,0,239,5.0,76.0
2055,71.0,0,239,5.0,76.0
2056,73.0,0,104,0.0,76.0
2057,52.0,120,224,4.0,52.0
2058,79.0,0,224,1.0,52.0
2059,71.0,120,104,0.0,76.0
2060,73.0,0,239,5.0,76.0
2061,67.0,0,239,5.0,76.0
2062,52.0,0,239,5.0,76.0
2063,64.0,0,239,5.0,76.0
2064,71.0,0,239,5.0,76.0
2065,66.0,240,104,3.0,52.0
2066,70.0,0,104,2.0,48.0
2067,68.0,120,104,3.0,52.0
2068,71.0,0,104,2.0,48.0
2069,70.0,0,704,1.0,52.0
2070,70.0,120,224,3.0,52.0
2071,78.0,0,704,0.0,76.0
2072,73.0,0,224,2.0,48.0
2073,73.0,0,719,5.0,76.0
2074,66.0,0,719,5.0,76.0
2075,54.0,0,719,4.0,52.0
2076,70.0,0,719,5.0,76.0
2077,54.0,120,719,5.0,76.0
2078,66.0,240,104,3.0,52.0
2079,73.0,0,104,0.0,76.0
2080,78.0,0,104,2.0,48.0
2081,68.0,120,104,3.0,52.0
2082,76.0,0,104,2.0,48.0
2083,71.0,0,104,0.0,76.0
2084,73.0,120,119,0.0,76.0
2085,70.0,0,464,1.0,52.0
2086,74.0,120,119,0.0,76.0
2087,70.0,0,239,3.0,52.0
2088,78.0,0,239,2.0,48.0
2089,76.0,0,104,0.0,76.0
2090,61.0,0,224,4.0,52.0
2091,79.0,120,104,0.0,76.0
2092,76.0,0,239,5.0,76.0
2093,73.0,0,239,5.0,76.0
2094,82.0,0,239,5.0,76.0
2095,61.0,120,239,5.0,76.0
2096,79.0,0,239,5.0,76.0
2097,78.0,0,104,0.0,76.0
2098,58.0,0,224,4.0,52.0
2099,76.0,120,104,0.0,76.0
2100,79.0,0,464,1.0,52.0
2101,58.0,0,239,5.0,76.0
2102,76.0,0,239,5.0,76.0
2103,73.0,120,239,5.0,76.0
2104,70.0,0,239,5.0,76.0
2105,79.0,0,239,5.0,76.0
2106,74.0,0,104,0.0,76.0
2107,73.0,120,104,0.0,76.0
2108,54.0,120,224,4.0,52.0
2109,70.0,0,239,5.0,76.0
2110,54.0,0,239,5.0,76.0
2111,73.0,0,239,5.0,76.0
2112,66.0,0,239,5.0,76.0
2113,76.0,0,239,5.0,76.0
2114,74.0,0,119,0.0,76.0
2115,78.0,0,464,1.0,52.0
2116,73.0,120,119,0.0,76.0
2117,78.0,0,104,2.0,48.0
2118,71.0,0,104,0.0,76.0
2119,62.0,120,104,3.0,52.0
2120,73.0,120,104,0.0,76.0
2121,76.0,0,104,2.0,48.0
2122,74.0,0,224,1.0,52.0
2123,64.0,0,104,3.0,52.0
2124,74.0,0,479,5.0,76.0
2125,71.0,0,479,5.0,76.0
2126,59.0,0,479,5.0,76.0
2127,78.0,0,479,5.0,76.0
2128,59.0,120,479,4.0,52.0
2129,74.0,0,104,0.0,76.0
2130,71.0,120,224,1.0,52.0
2131,66.0,0,224,3.0,52.0
2132,74.0,0,224,2.0,48.0
2133,76.0,120,104,0.0,76.0
2134,78.0,0,104,0.0,76.0
2135,74.0,120,104,0.0,76.0
2136,71.0,120,224,3.0,52.0
2137,71.0,0,224,2.0,48.0
2138,76.0,0,119,0.0,76.0
2139,74.0,0,464,1.0,52.0
2140,78.0,120,119,0.0,76.0
2141,83.0,0,239,2.0,48.0
2142,67.0,120,239,3.0,52.0
2143,79.0,0,104,0.0,76.0
2144,83.0,120,104,0.0,76.0
2145,64.0,0,224,4.0,52.0
2146,76.0,0,239,5.0,76.0
2147,64.0,0,239,5.0,76.0
2148,79.0,120,239,5.0,76.0
2149,83.0,0,239,5.0,76.0
2150,81.0,0,104,0.0,76.0
2151,61.0,0,224,4.0,52.0
2152,79.0,120,104,0.0,76.0
2153,83.0,0,464,1.0,52.0
2154,83.0,0,239,5.0,76.0
2155,73.0,120,239,5.0,76.0
2156,76.0,0,239,5.0,76.0
2157,79.0,0,239,5.0,76.0
2158,61.0,0,239,5.0,76.0
2159,78.0,0,104,0.0,76.0
2160,73.0,120,119,5.0,76.0
2161,69.0,0,119,5.0,76.0
2162,76.0,0,119,5.0,76.0
2163,81.0,0,119,5.0,76.0
2164,57.0,0,224,4.0,52.0
2165,76.0,120,104,0.0,76.0
2166,79.0,0,119,5.0,76.0
2167,69.0,0,119,5.0,76.0
2168,73.0,0,119,5.0,76.0
2169,76.0,0,119,5.0,76.0
2170,57.0,0,239,5.0,76.0
2171,78.0,0,119,0.0,76.0
2172,81.0,0,464,1.0,52.0
2173,76.0,120,119,0.0,76.0
2174,74.0,0,104,2.0,48.0
2175,74.0,0,104,0.0,76.0
2176,66.0,0,104,3.0,52.0
2177,78.0,120,224,1.0,52.0
2178,67.0,120,104,3.0,52.0
2179,76.0,0,104,0.0,76.0
2180,73.0,0,104,2.0,48.0
2181,81.0,0,479,5.0,76.0
2182,74.0,120,479,5.0,76.0
2183,62.0,0,479,5.0,76.0
2184,78.0,0,479,5.0,76.0
2185,62.0,0,479,4.0,52.0
2186,78.0,0,104,0.0,76.0
2187,74.0,0,224,1.0,52.0
2188,69.0,120,224,3.0,52.0
2189,79.0,120,104,0.0,76.0
2190,74.0,0,224,2.0,48.0
2191,81.0,0,104,0.0,76.0
2192,60.0,0,224,3.0,52.0
2193,78.0,120,104,0.0,76.0
2194,75.0,0,119,0.0,76.0
2195,78.0,0,464,1.0,52.0
2196,69.0,120,479,2.0,48.0
2197,59.0,120,239,3.0,52.0
2198,76.0,120,119,0.0,76.0
2199,78.0,0,104,0.0,76.0
2200,47.0,0,224,4.0,52.0
2201,84.0,120,104,0.0,76.0
2202,69.0,120,239,5.0,76.0
2203,63.0,0,239,5.0,76.0
2204,47.0,0,239,5.0,76.0
2205,66.0,0,239,5.0,76.0
2206,59.0,0,239,5.0,76.0
2207,83.0,0,104,0.0,76.0
2208,81.0,0,464,1.0,52.0
2209,49.0,0,224,4.0,52.0
2210,81.0,120,104,0.0,76.0
2211,64.0,0,239,5.0,76.0
2212,67.0,0,239,5.0,76.0
2213,71.0,120,239,5.0,76.0
2214,61.0,0,239,5.0,76.0
2215,49.0,0,239,5.0,76.0
2216,79.0,0,104,0.0,76.0
2217,78.0,120,104,0.0,76.0
2218,71.0,120,224,1.0,52.0
2219,51.0,0,224,4.0,52.0
2220,71.0,0,239,5.0,76.0
2221,69.0,0,239,5.0,76.0
2222,51.0,0,239,5.0,76.0
2223,63.0,0,239,5.0,76.0
2224,66.0,0,239,5.0,76.0
2225,79.0,0,119,0.0,76.0
2226,76.0,0,224,1.0,52.0
2227,78.0,120,119,0.0,76.0
2228,73.0,120,104,3.0,52.0
2229,76.0,0,104,0.0,76.0
2230,76.0,0,104,2.0,48.0
2231,71.0,0,104,3.0,52.0
2232,79.0,120,104,0.0,76.0
2233,74.0,0,104,2.0,48.0
2234,52.0,0,479,4.0,52.0
2235,71.0,120,479,5.0,76.0
2236,52.0,0,479,5.0,76.0
2237,64.0,0,479,5.0,76.0
2238,67.0,0,479,5.0,76.0
2239,78.0,0,104,0.0,76.0
2240,76.0,120,104,0.0,76.0
2241,79.0,0,464,1.0,52.0
2242,70.0,120,224,3.0,52.0
2243,73.0,0,224,2.0,48.0
2244,74.0,120,104,0.0,76.0
2245,70.0,0,224,1.0,52.0
2246,78.0,0,224,2.0,48.0
2247,66.0,0,224,3.0,52.0
2248,73.0,120,104,0.0,76.0
2249,74.0,0,119,0.0,76.0
2250,71.0,0,224,1.0,52.0
2251,74.0,0,239,2.0,48.0
2252,71.0,120,239,3.0,52.0
2253,76.0,120,119,0.0,76.0
2254,78.0,120,104,0.0,76.0
2255,50.0,0,224,4.0,52.0
2256,71.0,120,104,0.0,76.0
2257,62.0,0,239,5.0,76.0
2258,50.0,0,239,5.0,76.0
2259,66.0,0,239,5.0,76.0
2260,71.0,0,239,5.0,76.0
2261,74.0,120,104,0.0,76.0
2262,52.0,0,224,4.0,52.0
2263,73.0,120,104,0.0,76.0
2264,83.0,0,464,1.0,52.0
2265,71.0,0,239,5.0,76.0
2266,74.0,0,239,5.0,76.0
2267,67.0,0,239,5.0,76.0
2268,52.0,0,239,5.0,76.0
2269,64.0,0,239,5.0,76.0
2270,73.0,120,29,1.0,52.0
2271,74.0,30,29,1.0,52.0
2272,73.0,30,29,1.0,52.0
2273,71.0,0,104,0.0,76.0
2274,74.0,30,29,1.0,52.0
2275,73.0,30,29,1.0,52.0
2276,74.0,30,29,1.0,52.0
2277,71.0,30,29,1.0,52.0
2278,70.0,0,104,0.0,76.0
2279,54.0,0,224,4.0,52.0
2280,73.0,30,29,1.0,52.0
2281,54.0,0,239,5.0,76.0
2282,73.0,0,239,5.0,76.0
2283,66.0,0,239,5.0,76.0
2284,70.0,0,239,5.0,76.0
2285,59.0,0,104,3.0,52.0
2286,62.0,240,104,2.0,48.0
2287,61.0,120,104,3.0,52.0
2288,64.0,0,104,2.0,48.0
2289,62.0,120,224,3.0,52.0
2290,71.0,0,704,0.0,76.0
2291,66.0,0,224,2.0,48.0
2292,71.0,0,704,1.0,52.0
2293,59.0,0,719,5.0,76.0
2294,66.0,0,719,5.0,76.0
2295,47.0,0,719,5.0,76.0
2296,62.0,0,719,5.0,76.0
2297,47.0,30,719,4.0,52.0
2298,66.0,240,104,3.0,52.0
2299,73.0,0,104,0.0,76.0
2300,78.0,0,104,2.0,48.0
2301,68.0,0,104,3.0,52.0
2302,71.0,120,104,0.0,76.0
2303,76.0,0,104,2.0,48.0
2304,73.0,0,119,0.0,76.0
2305,70.0,0,464,1.0,52.0
2306,78.0,120,239,2.0,48.0
2307,74.0,120,119,0.0,76.0
2308,70.0,0,239,3.0,52.0
2309,76.0,0,104,0.0,76.0
2310,79.0,120,104,0.0,76.0
2311,61.0,0,224,4.0,52.0
2312,73.0,120,239,5.0,76.0
2313,76.0,0,239,5.0,76.0
2314,79.0,0,239,5.0,76.0
2315,82.0,0,239,5.0,76.0
2316,61.0,0,239,5.0,76.0
2317,78.0,0,104,0.0,76.0
2318,76.0,120,104,0.0,76.0
2319,58.0,0,224,4.0,52.0
2320,79.0,0,464,1.0,52.0
2321,73.0,120,239,5.0,76.0
2322,79.0,0,239,5.0,76.0
2323,70.0,0,239,5.0,76.0
2324,76.0,0,239,5.0,76.0
2325,58.0,0,239,5.0,76.0
2326,74.0,0,104,0.0,76.0
2327,54.0,0,224,4.0,52.0
2328,73.0,120,104,0.0,76.0
2329,70.0,0,239,5.0,76.0
2330,73.0,120,239,5.0,76.0
2331,54.0,0,239,5.0,76.0
2332,76.0,0,239,5.0,76.0
2333,66.0,0,239,5.0,76.0
2334,74.0,0,119,0.0,76.0
2335,78.0,0,464,1.0,52.0
2336,73.0,120,119,0.0,76.0
2337,62.0,0,104,3.0,52.0
2338,78.0,120,104,2.0,48.0
2339,71.0,0,104,0.0,76.0
2340,76.0,0,104,2.0,48.0
2341,74.0,0,224,1.0,52.0
2342,64.0,0,104,3.0,52.0
2343,73.0,120,104,0.0,76.0
2344,78.0,120,479,5.0,76.0
2345,59.0,0,479,4.0,52.0
2346,71.0,0,479,5.0,76.0
2347,59.0,0,479,5.0,76.0
2348,74.0,0,479,5.0,76.0
2349,74.0,120,104,0.0,76.0
2350,71.0,0,224,1.0,52.0
2351,66.0,0,224,3.0,52.0
2352,76.0,120,104,0.0,76.0
2353,74.0,0,224,2.0,48.0
2354,78.0,0,104,0.0,76.0
2355,71.0,120,224,3.0,52.0
2356,71.0,0,224,2.0,48.0
2357,74.0,120,104,0.0,76.0
2358,76.0,120,119,0.0,76.0
2359,74.0,0,464,1.0,52.0
2360,83.0,0,239,2.0,48.0
2361,67.0,0,239,3.0,52.0
2362,78.0,120,119,0.0,76.0
2363,79.0,0,104,0.0,76.0
2364,83.0,120,104,0.0,76.0
2365,64.0,120,224,4.0,52.0
2366,76.0,0,239,5.0,76.0
2367,83.0,0,239,5.0,76.0
2368,64.0,0,239,5.0,76.0
2369,79.0,0,239,5.0,76.0
2370,81.0,0,104,0.0,76.0
2371,61.0,120,224,4.0,52.0
2372,79.0,120,104,0.0,76.0
2373,83.0,0,464,1.0,52.0
2374,79.0,0,239,5.0,76.0
2375,83.0,0,239,5.0,76.0
2376,76.0,0,239,5.0,76.0
2377,73.0,0,239,5.0,76.0
2378,61.0,0,239,5.0,76.0
2379,78.0,0,104,0.0,76.0
2380,69.0,0,119,5.0,76.0
2381,76.0,0,119,5.0,76.0
2382,81.0,0,119,5.0,76.0
2383,73.0,0,119,5.0,76.0
2384,76.0,120,104,0.0,76.0
2385,57.0,120,224,4.0,52.0
2386,57.0,0,239,5.0,76.0
2387,73.0,0,119,5.0,76.0
2388,69.0,0,119,5.0,76.0
2389,79.0,0,119,5.0,76.0
2390,76.0,0,119,5.0,76.0
2391,78.0,120,119,0.0,76.0
2392,81.0,0,464,1.0,52.0
2393,76.0,120,119,0.0,76.0
2394,74.0,0,104,0.0,76.0
2395,74.0,120,104,2.0,48.0
2396,66.0,0,104,3.0,52.0
2397,78.0,0,224,1.0,52.0
2398,67.0,0,104,3.0,52.0
2399,73.0,0,104,2.0,48.0
2400,76.0,120,104,0.0,76.0
2401,78.0,0,479,5.0,76.0
2402,62.0,0,479,5.0,76.0
2403,62.0,0,479,4.0,52.0
2404,81.0,0,479,5.0,76.0
2405,74.0,0,479,5.0,76.0
2406,78.0,120,104,0.0,76.0
2407,74.0,0,224,1.0,52.0
2408,74.0,0,224,2.0,48.0
2409,69.0,0,224,3.0,52.0
2410,79.0,120,104,0.0,76.0
2411,81.0,0,104,0.0,76.0
2412,60.0,0,224,3.0,52.0
2413,78.0,120,104,0.0,76.0
2414,75.0,0,119,0.0,76.0
2415,78.0,120,464,1.0,52.0
2416,76.0,120,119,0.0,76.0
2417,69.0,0,479,2.0,48.0
2418,59.0,120,239,3.0,52.0
2419,78.0,0,104,0.0,76.0
2420,84.0,120,104,0.0,76.0
2421,47.0,0,224,4.0,52.0
2422,59.0,120,239,5.0,76.0
2423,66.0,0,239,5.0,76.0
2424,47.0,0,239,5.0,76.0
2425,63.0,0,239,5.0,76.0
2426,69.0,0,239,5.0,76.0
2427,83.0,0,104,0.0,76.0
2428,81.0,120,104,0.0,76.0
2429,81.0,0,464,1.0,52.0
2430,49.0,0,224,4.0,52.0
2431,49.0,0,239,5.0,76.0
2432,64.0,120,239,5.0,76.0
2433,61.0,0,239,5.0,76.0
2434,67.0,0,239,5.0,76.0
2435,71.0,0,239,5.0,76.0
2436,79.0,0,104,0.0,76.0
2437,78.0,120,104,0.0,76.0
2438,51.0,0,224,4.0,52.0
2439,71.0,0,224,1.0,52.0
2440,71.0,120,239,5.0,76.0
2441,69.0,0,239,5.0,76.0
2442,66.0,0,239,5.0,76.0
2443,63.0,0,239,5.0,76.0
2444,51.0,0,239,5.0,76.0
2445,79.0,120,119,0.0,76.0
2446,76.0,0,224,1.0,52.0
2447,78.0,120,119,0.0,76.0
2448,73.0,0,104,3.0,52.0
2449,76.0,0,104,2.0,48.0
2450,76.0,120,104,0.0,76.0
2451,71.0,0,104,3.0,52.0
2452,74.0,120,104,2.0,48.0
2453,79.0,0,104,0.0,76.0
2454,52.0,0,479,4.0,52.0
2455,71.0,0,479,5.0,76.0
2456,52.0,0,479,5.0,76.0
2457,64.0,0,479,5.0,76.0
2458,67.0,0,479,5.0,76.0
2459,78.0,0,104,0.0,76.0
2460,79.0,0,464,1.0,52.0
2461,76.0,120,104,0.0,76.0
2462,70.0,0,224,3.0,52.0
2463,73.0,120,224,2.0,48.0
2464,74.0,120,104,0.0,76.0
2465,73.0,120,104,0.0,76.0
2466,78.0,0,224,2.0,48.0
2467,70.0,0,224,1.0,52.0
2468,66.0,0,224,3.0,52.0
2469,74.0,0,119,0.0,76.0
2470,71.0,0,224,1.0,52.0
2471,76.0,120,119,0.0,76.0
2472,74.0,120,239,2.0,48.0
2473,71.0,0,239,3.0,52.0
2474,78.0,120,104,0.0,76.0
2475,71.0,120,104,0.0,76.0
2476,50.0,0,224,4.0,52.0
2477,62.0,0,239,5.0,76.0
2478,71.0,0,239,5.0,76.0
2479,66.0,0,239,5.0,76.0
2480,50.0,0,239,5.0,76.0
2481,74.0,0,104,0.0,76.0
2482,52.0,0,224,4.0,52.0
2483,73.0,120,104,0.0,76.0
2484,83.0,0,464,1.0,52.0
2485,71.0,0,239,5.0,76.0
2486,64.0,0,239,5.0,76.0
2487,74.0,0,239,5.0,76.0
2488,67.0,0,239,5.0,76.0
2489,52.0,120,239,5.0,76.0
2490,73.0,0,29,1.0,52.0
2491,74.0,30,29,1.0,52.0
2492,73.0,30,29,1.0,52.0
2493,71.0,120,104,0.0,76.0
2494,74.0,30,29,1.0,52.0
2495,73.0,0,29,1.0,52.0
2496,74.0,30,29,1.0,52.0
2497,71.0,30,29,1.0,52.0
2498,70.0,30,104,0.0,76.0
2499,54.0,0,224,4.0,52.0
2500,66.0,0,239,5.0,76.0
2501,73.0,30,29,1.0,52.0
2502,54.0,0,239,5.0,76.0
2503,73.0,0,239,5.0,76.0
2504,70.0,0,239,5.0,76.0
2505,62.0,240,104,2.0,48.0
2506,59.0,0,104,3.0,52.0
2507,61.0,120,104,3.0,52.0
2508,64.0,0,104,2.0,48.0
2509,66.0,0,224,2.0,48.0
2510,71.0,30,704,1.0,52.0
2511,62.0,120,224,3.0,52.0
2512,71.0,0,704,0.0,76.0
2513,47.0,0,719,4.0,52.0
2514,66.0,0,719,5.0,76.0
2515,62.0,0,719,5.0,76.0
2516,47.0,0,719,5.0,76.0
2517,59.0,0,719,5.0,76.0
2518,66.0,0,224,0.0,76.0
2519,66.0,480,224,1.0,76.0
2520,62.0,0,104,3.0,76.0
2521,59.0,240,104,4.0,76.0
2522,59.0,0,119,5.0,76.0
2523,74.0,0,119,5.0,76.0
2524,78.0,0,119,5.0,76.0
2525,71.0,0,119,5.0,76.0
2526,61.0,0,104,4.0,76.0
2527,66.0,0,224,2.0,76.0
2528,64.0,0,104,3.0,76.0
2529,79.0,0,119,5.0,76.0
2530,76.0,0,119,5.0,76.0
2531,73.0,0,119,5.0,76.0
2532,61.0,120,119,5.0,76.0
2533,71.0,0,584,1.0,76.0
2534,71.0,240,584,0.0,76.0
2535,73.0,120,104,0.0,76.0
2536,66.0,0,224,3.0,76.0
2537,73.0,0,104,1.0,76.0
2538,62.0,0,224,4.0,76.0
2539,78.0,0,239,5.0,76.0
2540,74.0,120,239,5.0,76.0
2541,62.0,0,239,5.0,76.0
2542,83.0,0,239,5.0,76.0
2543,74.0,0,104,1.0,76.0
2544,74.0,0,104,0.0,76.0
2545,64.0,0,224,3.0,76.0
2546,76.0,0,104,1.0,76.0
2547,61.0,120,224,4.0,76.0
2548,76.0,120,104,0.0,76.0
2549,76.0,0,239,5.0,76.0
2550,82.0,0,239,5.0,76.0
2551,73.0,0,239,5.0,76.0
2552,61.0,0,239,5.0,76.0
2553,62.0,120,224,3.0,76.0
2554,71.0,0,704,2.0,76.0
2555,78.0,0,224,1.0,76.0
2556,78.0,0,224,0.0,76.0
2557,59.0,0,224,4.0,76.0
2558,78.0,0,239,5.0,76.0
2559,74.0,0,239,5.0,76.0
2560,59.0,0,239,5.0,76.0
2561,71.0,0,239,5.0,76.0
2562,61.0,0,224,4.0,76.0
2563,64.0,0,224,3.0,76.0
2564,79.0,240,224,2.0,76.0
2565,70.0,0,224,1.0,76.0
2566,70.0,0,224,0.0,76.0
2567,73.0,0,239,5.0,76.0
2568,61.0,0,239,5.0,76.0
2569,82.0,0,239,5.0,76.0
2570,76.0,0,239,5.0,76.0
2571,78.0,0,224,2.0,76.0
2572,71.0,0,224,0.0,76.0
2573,62.0,0,224,4.0,76.0
2574,71.0,240,224,1.0,76.0
2575,74.0,0,239,5.0,76.0
2576,78.0,0,239,5.0,76.0
2577,62.0,0,239,5.0,76.0
2578,82.0,0,239,5.0,76.0
2579,76.0,0,224,1.0,76.0
2580,70.0,240,224,2.0,76.0
2581,76.0,0,224,0.0,76.0
2582,61.0,0,224,4.0,76.0
2583,82.0,0,239,5.0,76.0
2584,73.0,0,239,5.0,76.0
2585,61.0,0,239,5.0,76.0
2586,76.0,0,239,5.0,76.0
2587,74.0,0,224,1.0,76.0
2588,59.0,240,224,4.0,76.0
2589,71.0,0,224,2.0,76.0
2590,74.0,0,224,0.0,76.0
2591,66.0,0,704,3.0,76.0
2592,59.0,0,239,5.0,76.0
2593,74.0,0,239,5.0,76.0
2594,78.0,0,239,5.0,76.0
2595,71.0,0,239,5.0,76.0
2596,79.0,0,224,0.0,76.0
2597,70.0,0,224,3.0,76.0
2598,64.0,0,224,2.0,76.0
2599,79.0,0,224,1.0,76.0
2600,61.0,0,224,4.0,76.0
2601,76.0,240,239,5.0,76.0
2602,61.0,0,239,5.0,76.0
2603,82.0,0,239,5.0,76.0
2604,73.0,0,239,5.0,76.0
2605,62.0,0,224,4.0,76.0
2606,78.0,0,224,0.0,76.0
2607,62.0,0,224,2.0,76.0
2608,71.0,0,224,3.0,76.0
2609,78.0,0,224,1.0,76.0
2610,82.0,0,239,5.0,76.0
2611,74.0,0,239,5.0,76.0
2612,78.0,0,239,5.0,76.0
2613,62.0,240,239,5.0,76.0
2614,73.0,0,224,3.0,76.0
2615,76.0,0,224,2.0,76.0
2616,61.0,0,224,4.0,76.0
2617,82.0,0,224,1.0,76.0
2618,82.0,240,224,0.0,76.0
2619,82.0,0,239,5.0,76.0
2620,73.0,0,239,5.0,76.0
2621,76.0,0,239,5.0,76.0
2622,61.0,0,239,5.0,76.0
2623,66.0,0,224,3.0,76.0
2624,74.0,0,224,2.0,76.0
2625,59.0,0,224,4.0,76.0
2626,83.0,0,224,1.0,76.0
2627,83.0,0,224,0.0,76.0
2628,71.0,0,239,5.0,76.0
2629,59.0,240,239,5.0,76.0
2630,78.0,0,239,5.0,76.0
2631,74.0,0,239,5.0,76.0
2632,81.0,0,104,0.0,76.0
2633,81.0,0,104,1.0,76.0
2634,61.0,0,224,4.0,76.0
2635,76.0,240,224,2.0,76.0
2636,79.0,120,104,0.0,76.0
2637,64.0,0,224,3.0,76.0
2638,79.0,0,104,1.0,76.0
2639,73.0,0,239,5.0,76.0
2640,61.0,0,239,5.0,76.0
2641,82.0,0,239,5.0,76.0
2642,76.0,0,239,5.0,76.0
2643,78.0,0,104,1.0,76.0
2644,78.0,0,104,0.0,76.0
2645,79.0,120,104,1.0,76.0
2646,62.0,0,224,3.0,76.0
2647,79.0,0,104,0.0,76.0
2648,78.0,120,224,2.0,76.0
2649,62.0,0,224,4.0,76.0
2650,82.0,0,239,5.0,76.0
2651,78.0,0,239,5.0,76.0
2652,74.0,0,239,5.0,76.0
2653,62.0,0,239,5.0,76.0
2654,76.0,0,104,0.0,76.0
2655,76.0,0,104,1.0,76.0
2656,78.0,120,104,0.0,76.0
2657,70.0,0,224,2.0,76.0
2658,78.0,0,104,1.0,76.0
2659,61.0,0,224,4.0,76.0
2660,64.0,0,224,3.0,76.0
2661,61.0,120,239,5.0,76.0
2662,76.0,0,239,5.0,76.0
2663,73.0,0,239,5.0,76.0
2664,82.0,0,239,5.0,76.0
2665,74.0,120,104,0.0,76.0
2666,74.0,0,104,1.0,76.0
2667,76.0,0,104,0.0,76.0
2668,59.0,0,224,4.0,76.0
2669,66.0,0,224,3.0,76.0
2670,71.0,0,224,2.0,76.0
2671,76.0,120,104,1.0,76.0
2672,59.0,0,239,5.0,76.0
2673,74.0,0,239,5.0,76.0
2674,71.0,0,239,5.0,76.0
2675,78.0,0,239,5.0,76.0
2676,73.0,120,104,0.0,76.0
2677,73.0,0,104,1.0,76.0
2678,70.0,0,224,2.0,76.0
2679,74.0,120,104,0.0,76.0
2680,61.0,0,224,4.0,76.0
2681,64.0,0,224,3.0,76.0
2682,74.0,0,104,1.0,76.0
2683,82.0,0,239,5.0,76.0
2684,61.0,0,239,5.0,76.0
2685,73.0,0,239,5.0,76.0
2686,76.0,0,239,5.0,76.0
2687,71.0,0,104,1.0,76.0
2688,71.0,0,104,0.0,76.0
2689,73.0,120,104,1.0,76.0
2690,71.0,120,224,2.0,76.0
2691,73.0,0,104,0.0,76.0
2692,62.0,0,224,4.0,76.0
2693,78.0,0,239,5.0,76.0
2694,74.0,0,239,5.0,76.0
2695,62.0,0,239,5.0,76.0
2696,83.0,0,239,5.0,76.0
2697,69.0,0,104,1.0,76.0
2698,69.0,120,104,0.0,76.0
2699,73.0,0,224,2.0,76.0
2700,71.0,0,104,0.0,76.0
2701,61.0,0,224,4.0,76.0
2702,71.0,120,104,1.0,76.0
2703,74.0,0,239,5.0,76.0
2704,82.0,0,239,5.0,76.0
2705,61.0,0,239,5.0,76.0
2706,78.0,0,239,5.0,76.0
2707,73.0,0,239,5.0,76.0
2708,66.0,0,584,3.0,76.0
2709,74.0,0,224,2.0,76.0
2710,67.0,120,224,0.0,76.0
2711,59.0,0,224,4.0,76.0
2712,67.0,120,104,3.0,76.0
2713,67.0,0,224,1.0,76.0
2714,79.0,0,239,5.0,76.0
2715,78.0,0,239,5.0,76.0
2716,71.0,0,239,5.0,76.0
2717,59.0,0,239,5.0,76.0
2718,74.0,0,239,5.0,76.0
2719,64.0,0,104,3.0,76.0
2720,61.0,0,224,4.0,76.0
2721,76.0,120,224,0.0,76.0
2722,66.0,120,104,3.0,76.0
2723,76.0,0,224,1.0,76.0
2724,76.0,0,239,5.0,76.0
2725,81.0,0,239,5.0,76.0
2726,61.0,0,239,5.0,76.0
2727,79.0,0,239,5.0,76.0
2728,73.0,0,239,5.0,76.0
2729,69.0,0,344,2.0,76.0
2730,66.0,0,224,1.0,76.0
2731,62.0,0,224,3.0,76.0
2732,62.0,0,224,4.0,76.0
2733,67.0,120,104,2.0,76.0
2734,66.0,0,224,0.0,76.0
2735,81.0,0,239,5.0,76.0
2736,78.0,0,239,5.0,76.0
2737,74.0,120,239,5.0,76.0
2738,62.0,0,239,5.0,76.0
2739,66.0,0,104,2.0,76.0
2740,61.0,0,224,4.0,76.0
2741,69.0,0,224,1.0,76.0
2742,64.0,120,104,2.0,76.0
2743,64.0,120,224,3.0,76.0
2744,69.0,0,224,0.0,76.0
2745,61.0,0,239,5.0,76.0
2746,73.0,0,239,5.0,76.0
2747,78.0,0,239,5.0,76.0
2748,74.0,0,239,5.0,76.0
2749,81.0,0,239,5.0,76.0
2750,74.0,0,224,0.0,76.0
2751,62.0,0,224,2.0,76.0
2752,66.0,0,224,3.0,76.0
2753,59.0,0,224,4.0,76.0
2754,74.0,120,224,1.0,76.0
2755,74.0,0,239,5.0,76.0
2756,71.0,0,239,5.0,76.0
2757,59.0,0,239,5.0,76.0
2758,78.0,0,239,5.0,76.0
2759,55.0,0,224,4.0,76.0
2760,79.0,0,224,0.0,76.0
2761,74.0,0,224,2.0,76.0
2762,71.0,0,224,3.0,76.0
2763,79.0,240,224,1.0,76.0
2764,67.0,0,239,5.0,76.0
2765,55.0,0,239,5.0,76.0
2766,71.0,0,239,5.0,76.0
2767,74.0,0,239,5.0,76.0
2768,78.0,0,29,0.0,76.0
2769,79.0,30,29,0.0,76.0
2770,78.0,30,29,0.0,76.0
2771,79.0,30,29,0.0,76.0
2772,78.0,30,29,0.0,76.0
2773,79.0,30,29,0.0,76.0
2774,76.0,30,29,0.0,76.0
2775,69.0,0,224,3.0,76.0
2776,57.0,0,224,4.0,76.0
2777,74.0,240,224,2.0,76.0
2778,78.0,0,224,1.0,76.0
2779,78.0,30,29,0.0,76.0
2780,74.0,0,239,5.0,76.0
2781,78.0,0,239,5.0,76.0
2782,57.0,0,239,5.0,76.0
2783,69.0,0,239,5.0,76.0
2784,76.0,0,104,1.0,76.0
2785,76.0,0,104,0.0,76.0
2786,74.0,120,104,1.0,76.0
2787,73.0,0,224,2.0,76.0
2788,74.0,0,104,0.0,76.0
2789,67.0,30,224,3.0,76.0
2790,45.0,0,224,4.0,76.0
2791,64.0,0,239,5.0,76.0
2792,45.0,0,239,5.0,76.0
2793,57.0,0,239,5.0,76.0
2794,61.0,0,239,5.0,76.0
2795,50.0,0,224,4.0,76.0
2796,66.0,0,239,5.0,76.0
2797,69.0,0,239,5.0,76.0
2798,62.0,0,239,5.0,76.0
2799,50.0,120,239,5.0,76.0
2800,45.0,0,224,4.0,76.0
2801,45.0,240,239,5.0,76.0
2802,64.0,0,239,5.0,76.0
2803,57.0,0,239,5.0,76.0
2804,61.0,0,239,5.0,76.0
2805,74.0,0,704,0.0,76.0
2806,74.0,0,704,1.0,76.0
2807,57.0,0,239,5.0,76.0
2808,50.0,0,239,5.0,76.0
2809,54.0,0,239,5.0,76.0
2810,69.0,0,719,2.0,76.0
2811,38.0,0,239,5.0,76.0
2812,66.0,0,719,3.0,76.0
2813,38.0,240,239,4.0,76.0
2814,66.0,0,224,1.0,76.0
2815,66.0,240,224,0.0,76.0
2816,62.0,0,104,3.0,76.0
2817,59.0,0,104,4.0,76.0
2818,78.0,240,119,5.0,76.0
2819,71.0,0,119,5.0,76.0
2820,59.0,0,119,5.0,76.0
2821,74.0,0,119,5.0,76.0
2822,66.0,0,224,2.0,76.0
2823,64.0,120,104,3.0,76.0
2824,61.0,0,104,4.0,76.0
2825,76.0,0,119,5.0,76.0
2826,73.0,0,119,5.0,76.0
2827,61.0,0,119,5.0,76.0
2828,79.0,0,119,5.0,76.0
2829,71.0,0,584,0.0,76.0
2830,71.0,240,584,1.0,76.0
2831,73.0,120,104,1.0,76.0
2832,73.0,0,104,0.0,76.0
2833,66.0,0,224,3.0,76.0
2834,62.0,120,224,4.0,76.0
2835,74.0,0,239,5.0,76.0
2836,83.0,0,239,5.0,76.0
2837,62.0,0,239,5.0,76.0
2838,78.0,0,239,5.0,76.0
2839,74.0,0,104,1.0,76.0
2840,74.0,0,104,0.0,76.0
2841,76.0,0,104,0.0,76.0
2842,64.0,120,224,3.0,76.0
2843,61.0,0,224,4.0,76.0
2844,76.0,120,104,1.0,76.0
2845,82.0,0,239,5.0,76.0
2846,76.0,0,239,5.0,76.0
2847,73.0,0,239,5.0,76.0
2848,61.0,0,239,5.0,76.0
2849,78.0,0,224,0.0,76.0
2850,78.0,120,224,1.0,76.0
2851,71.0,0,704,2.0,76.0
2852,62.0,0,224,3.0,76.0
2853,59.0,0,224,4.0,76.0
2854,71.0,0,239,5.0,76.0
2855,78.0,0,239,5.0,76.0
2856,74.0,0,239,5.0,76.0
2857,59.0,0,239,5.0,76.0
2858,61.0,0,224,4.0,76.0
2859,79.0,0,224,2.0,76.0
2860,64.0,0,224,3.0,76.0
2861,70.0,0,224,0.0,76.0
2862,70.0,0,224,1.0,76.0
2863,61.0,240,239,5.0,76.0
2864,76.0,0,239,5.0,76.0
2865,73.0,0,239,5.0,76.0
2866,82.0,0,239,5.0,76.0
2867,62.0,240,224,4.0,76.0
2868,78.0,0,224,2.0,76.0
2869,71.0,0,224,1.0,76.0
2870,71.0,0,224,0.0,76.0
2871,62.0,0,239,5.0,76.0
2872,74.0,0,239,5.0,76.0
2873,78.0,0,239,5.0,76.0
2874,82.0,0,239,5.0,76.0
2875,76.0,0,224,1.0,76.0
2876,61.0,0,224,4.0,76.0
2877,76.0,0,224,0.0,76.0
2878,70.0,240,224,2.0,76.0
2879,61.0,0,239,5.0,76.0
2880,73.0,0,239,5.0,76.0
2881,76.0,0,239,5.0,76.0
2882,82.0,0,239,5.0,76.0
2883,71.0,0,224,2.0,76.0
2884,59.0,0,224,4.0,76.0
2885,74.0,0,224,1.0,76.0
2886,74.0,0,224,0.0,76.0
2887,66.0,0,704,3.0,76.0
2888,78.0,0,239,5.0,76.0
2889,74.0,0,239,5.0,76.0
2890,71.0,0,239,5.0,76.0
2891,59.0,240,239,5.0,76.0
2892,70.0,0,224,3.0,76.0
2893,61.0,0,224,4.0,76.0
2894,79.0,0,224,1.0,76.0
2895,64.0,0,224,2.0,76.0
2896,79.0,0,224,0.0,76.0
2897,76.0,0,239,5.0,76.0
2898,82.0,240,239,5.0,76.0
2899,73.0,0,239,5.0,76.0
2900,61.0,0,239,5.0,76.0
2901,78.0,0,224,0.0,76.0
2902,71.0,240,224,3.0,76.0
2903,62.0,0,224,4.0,76.0
2904,62.0,0,224,2.0,76.0
2905,78.0,0,224,1.0,76.0
2906,82.0,0,239,5.0,76.0
2907,62.0,0,239,5.0,76.0
2908,78.0,0,239,5.0,76.0
2909,74.0,0,239,5.0,76.0
2910,76.0,240,224,2.0,76.0
2911,73.0,0,224,3.0,76.0
2912,61.0,0,224,4.0,76.0
2913,82.0,0,224,1.0,76.0
2914,82.0,0,224,0.0,76.0
2915,73.0,0,239,5.0,76.0
2916,61.0,0,239,5.0,76.0
2917,76.0,0,239,5.0,76.0
2918,82.0,0,239,5.0,76.0
2919,74.0,0,224,2.0,76.0
2920,59.0,0,224,4.0,76.0
2921,66.0,0,224,3.0,76.0
2922,83.0,0,224,1.0,76.0
2923,83.0,240,224,0.0,76.0
2924,78.0,0,239,5.0,76.0
2925,74.0,0,239,5.0,76.0
2926,71.0,0,239,5.0,76.0
2927,59.0,0,239,5.0,76.0
2928,81.0,0,104,0.0,76.0
2929,81.0,0,104,1.0,76.0
2930,76.0,0,224,2.0,76.0
2931,79.0,0,104,0.0,76.0
2932,79.0,120,104,1.0,76.0
2933,61.0,240,224,4.0,76.0
2934,64.0,0,224,3.0,76.0
2935,61.0,0,239,5.0,76.0
2936,82.0,0,239,5.0,76.0
2937,76.0,0,239,5.0,76.0
2938,73.0,0,239,5.0,76.0
2939,78.0,0,104,1.0,76.0
2940,78.0,120,104,0.0,76.0
2941,79.0,120,104,0.0,76.0
2942,79.0,0,104,1.0,76.0
2943,62.0,0,224,3.0,76.0
2944,78.0,0,224,2.0,76.0
2945,62.0,0,224,4.0,76.0
2946,74.0,0,239,5.0,76.0
2947,78.0,0,239,5.0,76.0
2948,62.0,0,239,5.0,76.0
2949,82.0,0,239,5.0,76.0
2950,76.0,120,104,1.0,76.0
2951,76.0,0,104,0.0,76.0
2952,70.0,0,224,2.0,76.0
2953,61.0,0,224,4.0,76.0
2954,78.0,0,104,0.0,76.0
2955,64.0,0,224,3.0,76.0
2956,78.0,120,104,1.0,76.0
2957,73.0,0,239,5.0,76.0
2958,61.0,0,239,5.0,76.0
2959,82.0,0,239,5.0,76.0
2960,76.0,0,239,5.0,76.0
2961,74.0,0,104,0.0,76.0
2962,74.0,0,104,1.0,76.0
2963,59.0,0,224,4.0,76.0
2964,66.0,120,224,3.0,76.0
2965,71.0,0,224,2.0,76.0
2966,76.0,120,104,1.0,76.0
2967,76.0,0,104,0.0,76.0
2968,59.0,0,239,5.0,76.0
2969,78.0,0,239,5.0,76.0
2970,71.0,0,239,5.0,76.0
2971,74.0,0,239,5.0,76.0
2972,73.0,0,104,1.0,76.0
2973,73.0,0,104,0.0,76.0
2974,64.0,0,224,3.0,76.0
2975,74.0,0,104,1.0,76.0
2976,74.0,120,104,0.0,76.0
2977,70.0,0,224,2.0,76.0
2978,61.0,120,224,4.0,76.0
2979,73.0,0,239,5.0,76.0
2980,76.0,0,239,5.0,76.0
2981,82.0,0,239,5.0,76.0
2982,61.0,0,239,5.0,76.0
2983,71.0,0,104,0.0,76.0
2984,71.0,0,104,1.0,76.0
2985,73.0,120,104,1.0,76.0
2986,71.0,120,224,2.0,76.0
2987,62.0,0,224,4.0,76.0
2988,73.0,0,104,0.0,76.0
2989,78.0,0,239,5.0,76.0
2990,62.0,0,239,5.0,76.0
2991,74.0,0,239,5.0,76.0
2992,83.0,0,239,5.0,76.0
2993,69.0,0,104,0.0,76.0
2994,69.0,0,104,1.0,76.0
2995,71.0,120,104,0.0,76.0
2996,61.0,120,224,4.0,76.0
2997,71.0,0,104,1.0,76.0
2998,73.0,0,224,2.0,76.0
2999,82.0,0,239,5.0,76.0
3000,73.0,0,239,5.0,76.0
3001,61.0,0,239,5.0,76.0
3002,74.0,0,239,5.0,76.0
3003,78.0,0,239,5.0,76.0
3004,66.0,0,584,3.0,76.0
3005,74.0,0,224,2.0,76.0
3006,59.0,0,224,4.0,76.0
3007,67.0,0,224,0.0,76.0
3008,67.0,120,104,3.0,76.0
3009,67.0,0,224,1.0,76.0
3010,79.0,0,239,5.0,76.0
3011,59.0,120,239,5.0,76.0
3012,71.0,0,239,5.0,76.0
3013,74.0,0,239,5.0,76.0
3014,78.0,0,239,5.0,76.0
3015,64.0,0,104,3.0,76.0
3016,76.0,0,224,1.0,76.0
3017,66.0,120,104,3.0,76.0
3018,61.0,0,224,4.0,76.0
3019,76.0,0,224,0.0,76.0
3020,79.0,0,239,5.0,76.0
3021,76.0,0,239,5.0,76.0
3022,81.0,0,239,5.0,76.0
3023,73.0,0,239,5.0,76.0
3024,61.0,0,239,5.0,76.0
3025,69.0,120,344,2.0,76.0
3026,66.0,0,224,0.0,76.0
3027,62.0,120,224,4.0,76.0
3028,67.0,120,104,2.0,76.0
3029,66.0,0,224,1.0,76.0
3030,62.0,0,224,3.0,76.0
3031,62.0,0,239,5.0,76.0
3032,78.0,0,239,5.0,76.0
3033,74.0,0,239,5.0,76.0
3034,81.0,0,239,5.0,76.0
3035,66.0,0,104,2.0,76.0
3036,64.0,120,104,2.0,76.0
3037,64.0,0,224,3.0,76.0
3038,61.0,0,224,4.0,76.0
3039,69.0,0,224,1.0,76.0
3040,69.0,0,224,0.0,76.0
3041,61.0,0,239,5.0,76.0
3042,81.0,0,239,5.0,76.0
3043,78.0,0,239,5.0,76.0
3044,74.0,120,239,5.0,76.0
3045,73.0,0,239,5.0,76.0
3046,74.0,0,224,0.0,76.0
3047,59.0,0,224,4.0,76.0
3048,74.0,0,224,1.0,76.0
3049,62.0,0,224,2.0,76.0
3050,66.0,0,224,3.0,76.0
3051,71.0,0,239,5.0,76.0
3052,78.0,0,239,5.0,76.0
3053,59.0,120,239,5.0,76.0
3054,74.0,0,239,5.0,76.0
3055,55.0,0,224,4.0,76.0
3056,79.0,0,224,1.0,76.0
3057,79.0,0,224,0.0,76.0
3058,74.0,240,224,2.0,76.0
3059,71.0,0,224,3.0,76.0
3060,55.0,0,239,5.0,76.0
3061,74.0,0,239,5.0,76.0
3062,67.0,0,239,5.0,76.0
3063,71.0,0,239,5.0,76.0
3064,78.0,0,29,0.0,76.0
3065,79.0,30,29,0.0,76.0
3066,78.0,30,29,0.0,76.0
3067,79.0,30,29,0.0,76.0
3068,78.0,30,29,0.0,76.0
3069,79.0,30,29,0.0,76.0
3070,76.0,30,29,0.0,76.0
3071,78.0,0,224,1.0,76.0
3072,74.0,0,224,2.0,76.0
3073,69.0,0,224,3.0,76.0
3074,57.0,0,224,4.0,76.0
3075,78.0,0,239,5.0,76.0
3076,74.0,240,239,5.0,76.0
3077,57.0,0,239,5.0,76.0
3078,69.0,0,239,5.0,76.0
3079,78.0,30,29,0.0,76.0
3080,76.0,0,104,1.0,76.0
3081,76.0,0,104,0.0,76.0
3082,67.0,0,224,3.0,76.0
3083,74.0,0,104,1.0,76.0
3084,74.0,120,104,0.0,76.0
3085,45.0,0,224,4.0,76.0
3086,73.0,0,224,2.0,76.0
3087,61.0,0,239,5.0,76.0
3088,64.0,0,239,5.0,76.0
3089,57.0,0,239,5.0,76.0
3090,45.0,30,239,5.0,76.0
3091,50.0,0,224,4.0,76.0
3092,50.0,0,239,5.0,76.0
3093,69.0,0,239,5.0,76.0
3094,66.0,0,239,5.0,76.0
3095,62.0,120,239,5.0,76.0
3096,45.0,0,224,4.0,76.0
3097,57.0,0,239,5.0,76.0
3098,45.0,240,239,5.0,76.0
3099,64.0,0,239,5.0,76.0
3100,61.0,0,239,5.0,76.0
3101,74.0,0,704,1.0,76.0
3102,74.0,0,704,0.0,76.0
3103,54.0,240,239,5.0,76.0
3104,50.0,0,239,5.0,76.0
3105,57.0,0,239,5.0,76.0
3106,66.0,0,719,3.0,76.0
3107,38.0,0,239,5.0,76.0
3108,69.0,0,719,2.0,76.0
3109,38.0,0,239,4.0,76.0
3110,69.0,240,224,0.0,76.0
3111,69.0,0,224,1.0,76.0
3112,50.0,240,104,4.0,76.0
3113,66.0,0,104,3.0,76.0
3114,66.0,0,119,5.0,76.0
3115,50.0,0,119,5.0,76.0
3116,62.0,0,119,5.0,76.0
3117,69.0,0,119,5.0,76.0
3118,52.0,0,104,4.0,76.0
3119,67.0,120,104,3.0,76.0
3120,69.0,0,224,2.0,76.0
3121,71.0,0,119,5.0,76.0
3122,52.0,0,119,5.0,76.0
3123,67.0,0,119,5.0,76.0
3124,64.0,0,119,5.0,76.0
3125,74.0,240,584,1.0,76.0
3126,74.0,0,584,0.0,76.0
3127,76.0,120,104,0.0,76.0
3128,69.0,120,224,3.0,76.0
3129,54.0,0,224,4.0,76.0
3130,76.0,0,104,1.0,76.0
3131,54.0,0,239,5.0,76.0
3132,66.0,0,239,5.0,76.0
3133,74.0,0,239,5.0,76.0
3134,69.0,0,239,5.0,76.0
3135,78.0,120,104,1.0,76.0
3136,78.0,0,104,0.0,76.0
3137,52.0,0,224,4.0,76.0
3138,79.0,120,104,1.0,76.0
3139,67.0,0,224,3.0,76.0
3140,79.0,0,104,0.0,76.0
3141,64.0,0,239,5.0,76.0
3142,73.0,0,239,5.0,76.0
3143,67.0,0,239,5.0,76.0
3144,52.0,0,239,5.0,76.0
3145,74.0,0,584,2.0,76.0
3146,81.0,0,104,0.0,76.0
3147,81.0,0,104,1.0,76.0
3148,79.0,120,104,0.0,76.0
3149,71.0,0,104,2.0,76.0
3150,50.0,0,224,4.0,76.0
3151,66.0,0,224,3.0,76.0
3152,79.0,0,104,1.0,76.0
3153,69.0,120,239,5.0,76.0
3154,62.0,0,239,5.0,76.0
3155,66.0,0,239,5.0,76.0
3156,50.0,0,239,5.0,76.0
3157,78.0,0,104,1.0,76.0
3158,69.0,120,104,2.0,76.0
3159,78.0,0,104,0.0,76.0
3160,67.0,0,224,3.0,76.0
3161,76.0,0,104,0.0,76.0
3162,76.0,120,104,1.0,76.0
3163,52.0,0,224,4.0,76.0
3164,67.0,0,104,2.0,76.0
3165,73.0,0,239,5.0,76.0
3166,64.0,0,239,5.0,76.0
3167,67.0,0,239,5.0,76.0
3168,52.0,0,239,5.0,76.0
3169,66.0,120,104,2.0,76.0
3170,69.0,0,104,3.0,76.0
3171,67.0,120,104,2.0,76.0
3172,74.0,0,224,1.0,76.0
3173,74.0,0,224,0.0,76.0
3174,54.0,0,224,4.0,76.0
3175,67.0,0,104,3.0,76.0
3176,69.0,0,239,5.0,76.0
3177,54.0,0,239,5.0,76.0
3178,66.0,0,239,5.0,76.0
3179,74.0,0,239,5.0,76.0
3180,66.0,0,104,3.0,76.0
3181,52.0,0,224,4.0,76.0
3182,64.0,120,104,3.0,76.0
3183,72.0,0,224,1.0,76.0
3184,72.0,0,224,0.0,76.0
3185,72.0,120,239,5.0,76.0
3186,52.0,0,239,5.0,76.0
3187,64.0,0,239,5.0,76.0
3188,67.0,0,239,5.0,76.0
3189,51.0,0,224,4.0,76.0
3190,66.0,0,224,3.0,76.0
3191,69.0,0,464,2.0,76.0
3192,71.0,0,224,0.0,76.0
3193,71.0,0,224,1.0,76.0
3194,66.0,0,239,5.0,76.0
3195,63.0,0,239,5.0,76.0
3196,71.0,120,239,5.0,76.0
3197,69.0,0,239,5.0,76.0
3198,51.0,0,239,5.0,76.0
3199,71.0,0,224,3.0,76.0
3200,76.0,0,224,1.0,76.0
3201,67.0,0,224,2.0,76.0
3202,76.0,0,224,0.0,76.0
3203,52.0,0,224,4.0,76.0
3204,71.0,0,239,5.0,76.0
3205,67.0,240,239,5.0,76.0
3206,64.0,0,239,5.0,76.0
3207,52.0,0,239,5.0,76.0
3208,69.0,0,224,3.0,76.0
3209,75.0,0,224,0.0,76.0
3210,66.0,0,224,2.0,76.0
3211,54.0,240,224,4.0,76.0
3212,75.0,0,224,1.0,76.0
3213,54.0,0,239,5.0,76.0
3214,69.0,0,239,5.0,76.0
3215,66.0,0,239,5.0,76.0
3216,75.0,0,239,5.0,76.0
3217,78.0,0,224,2.0,76.0
3218,51.0,0,224,4.0,76.0
3219,81.0,240,224,0.0,76.0
3220,81.0,0,224,1.0,76.0
3221,69.0,0,239,5.0,76.0
3222,71.0,0,239,5.0,76.0
3223,51.0,0,239,5.0,76.0
3224,63.0,0,239,5.0,76.0
3225,66.0,0,239,5.0,76.0
3226,79.0,0,29,0.0,76.0
3227,81.0,30,29,0.0,76.0
3228,79.0,30,29,0.0,76.0
3229,81.0,30,29,0.0,76.0
3230,79.0,30,29,0.0,76.0
3231,81.0,30,29,0.0,76.0
3232,78.0,30,29,0.0,76.0
3233,76.0,240,224,2.0,76.0
3234,52.0,0,224,4.0,76.0
3235,79.0,0,224,1.0,76.0
3236,71.0,0,464,3.0,76.0
3237,52.0,0,239,5.0,76.0
3238,67.0,0,239,5.0,76.0
3239,71.0,0,239,5.0,76.0
3240,64.0,0,239,5.0,76.0
3241,79.0,30,29,0.0,76.0
3242,78.0,0,104,0.0,76.0
3243,78.0,0,104,1.0,76.0
3244,69.0,0,224,3.0,76.0
3245,79.0,120,104,0.0,76.0
3246,54.0,0,224,4.0,76.0
3247,79.0,0,104,1.0,76.0
3248,75.0,30,224,2.0,76.0
3249,69.0,0,239,5.0,76.0
3250,54.0,0,239,5.0,76.0
3251,75.0,0,239,5.0,76.0
3252,66.0,0,239,5.0,76.0
3253,71.0,120,104,3.0,76.0
3254,76.0,0,104,1.0,76.0
3255,76.0,0,104,0.0,76.0
3256,55.0,0,224,4.0,76.0
3257,71.0,0,104,1.0,76.0
3258,71.0,0,104,0.0,76.0
3259,69.0,120,104,3.0,76.0
3260,71.0,0,239,5.0,76.0
3261,67.0,0,239,5.0,76.0
3262,75.0,0,239,5.0,76.0
3263,55.0,0,239,5.0,76.0
3264,76.0,120,104,1.0,76.0
3265,76.0,0,104,0.0,76.0
3266,67.0,0,104,3.0,76.0
3267,78.0,0,104,0.0,76.0
3268,78.0,120,104,1.0,76.0
3269,54.0,0,224,4.0,76.0
3270,69.0,0,104,3.0,76.0
3271,54.0,0,239,5.0,76.0
3272,75.0,0,239,5.0,76.0
3273,66.0,0,239,5.0,76.0
3274,69.0,0,239,5.0,76.0
3275,79.0,0,104,0.0,76.0
3276,79.0,0,104,1.0,76.0
3277,76.0,0,704,2.0,76.0
3278,81.0,0,104,0.0,76.0
3279,71.0,0,224,3.0,76.0
3280,81.0,120,104,1.0,76.0
3281,52.0,0,224,4.0,76.0
3282,71.0,0,239,5.0,76.0
3283,67.0,0,239,5.0,76.0
3284,64.0,0,239,5.0,76.0
3285,52.0,120,239,5.0,76.0
3286,78.0,0,104,1.0,76.0
3287,78.0,0,104,0.0,76.0
3288,62.0,0,224,3.0,76.0
3289,54.0,0,224,4.0,76.0
3290,79.0,120,104,0.0,76.0
3291,70.0,0,224,2.0,76.0
3292,79.0,0,104,1.0,76.0
3293,74.0,0,239,5.0,76.0
3294,70.0,0,239,5.0,76.0
3295,54.0,120,239,5.0,76.0
3296,66.0,0,239,5.0,76.0
3297,76.0,0,104,0.0,76.0
3298,76.0,0,104,1.0,76.0
3299,78.0,120,104,1.0,76.0
3300,59.0,0,224,3.0,76.0
3301,55.0,0,224,4.0,76.0
3302,78.0,0,104,0.0,76.0
3303,67.0,0,239,5.0,76.0
3304,71.0,0,239,5.0,76.0
3305,76.0,120,239,5.0,76.0
3306,55.0,0,239,5.0,76.0
3307,74.0,0,104,0.0,76.0
3308,74.0,0,104,1.0,76.0
3309,76.0,120,104,1.0,76.0
3310,76.0,0,104,0.0,76.0
3311,54.0,0,224,4.0,76.0
3312,66.0,120,224,3.0,76.0
3313,74.0,0,239,5.0,76.0
3314,54.0,0,239,5.0,76.0
3315,71.0,0,239,5.0,76.0
3316,66.0,0,239,5.0,76.0
3317,71.0,0,584,2.0,76.0
3318,52.0,0,224,4.0,76.0
3319,73.0,120,104,2.0,76.0
3320,67.0,0,224,3.0,76.0
3321,73.0,0,224,1.0,76.0
3322,73.0,0,224,0.0,76.0
3323,71.0,120,239,5.0,76.0
3324,64.0,0,239,5.0,76.0
3325,73.0,0,239,5.0,76.0
3326,67.0,0,239,5.0,76.0
3327,52.0,0,239,5.0,76.0
3328,74.0,0,104,2.0,76.0
3329,76.0,120,104,2.0,76.0
3330,82.0,0,224,1.0,76.0
3331,66.0,120,224,3.0,76.0
3332,82.0,0,224,0.0,76.0
3333,54.0,0,224,4.0,76.0
3334,66.0,0,239,5.0,76.0
3335,73.0,0,239,5.0,76.0
3336,54.0,0,239,5.0,76.0
3337,70.0,0,239,5.0,76.0
3338,74.0,0,104,2.0,76.0
3339,59.0,120,224,3.0,76.0
3340,73.0,120,104,2.0,76.0
3341,55.0,0,224,4.0,76.0
3342,83.0,0,224,1.0,76.0
3343,83.0,0,224,0.0,76.0
3344,74.0,0,239,5.0,76.0
3345,67.0,0,239,5.0,76.0
3346,71.0,0,239,5.0,76.0
3347,55.0,0,239,5.0,76.0
3348,71.0,0,104,2.0,76.0
3349,69.0,120,104,2.0,76.0
3350,54.0,120,224,4.0,76.0
3351,66.0,0,224,3.0,76.0
3352,74.0,0,239,5.0,76.0
3353,66.0,0,239,5.0,76.0
3354,54.0,0,239,5.0,76.0
3355,71.0,0,239,5.0,76.0
3356,67.0,0,104,2.0,76.0
3357,66.0,120,104,2.0,76.0
3358,52.0,120,224,4.0,76.0
3359,71.0,0,224,3.0,76.0
3360,74.0,0,464,0.0,76.0
3361,74.0,0,464,1.0,76.0
3362,71.0,0,239,5.0,76.0
3363,67.0,0,239,5.0,76.0
3364,74.0,0,239,5.0,76.0
3365,52.0,0,239,5.0,76.0
3366,64.0,0,239,5.0,76.0
3367,73.0,120,104,1.0,76.0
3368,64.0,0,104,2.0,76.0
3369,73.0,0,104,0.0,76.0
3370,74.0,0,104,0.0,76.0
3371,62.0,0,104,2.0,76.0
3372,54.0,0,224,4.0,76.0
3373,70.0,0,224,3.0,76.0
3374,74.0,120,104,1.0,76.0
3375,70.0,0,239,5.0,76.0
3376,66.0,0,239,5.0,76.0
3377,73.0,0,239,5.0,76.0
3378,54.0,0,239,5.0,76.0
3379,76.0,0,104,1.0,76.0
3380,76.0,0,104,0.0,76.0
3381,61.0,120,104,2.0,76.0
3382,71.0,0,224,3.0,76.0
3383,74.0,0,104,0.0,76.0
3384,74.0,120,104,1.0,76.0
3385,59.0,0,104,2.0,76.0
3386,55.0,0,224,4.0,76.0
3387,55.0,0,239,5.0,76.0
3388,71.0,0,239,5.0,76.0
3389,76.0,0,239,5.0,76.0
3390,67.0,0,239,5.0,76.0
3391,73.0,0,104,0.0,76.0
3392,73.0,0,104,1.0,76.0
3393,64.0,0,224,3.0,76.0
3394,71.0,120,104,0.0,76.0
3395,71.0,0,104,1.0,76.0
3396,52.0,0,224,4.0,76.0
3397,67.0,120,224,2.0,76.0
3398,64.0,0,239,5.0,76.0
3399,52.0,0,239,5.0,76.0
3400,71.0,0,239,5.0,76.0
3401,67.0,0,239,5.0,76.0
3402,73.0,0,239,5.0,76.0
3403,70.0,0,104,1.0,76.0
3404,70.0,0,104,0.0,76.0
3405,71.0,120,104,0.0,76.0
3406,54.0,120,224,4.0,76.0
3407,61.0,0,224,3.0,76.0
3408,71.0,0,104,1.0,76.0
3409,54.0,0,239,5.0,76.0
3410,66.0,0,239,5.0,76.0
3411,73.0,0,239,5.0,76.0
3412,70.0,0,239,5.0,76.0
3413,73.0,0,104,1.0,76.0
3414,73.0,0,104,0.0,76.0
3415,52.0,0,224,4.0,76.0
3416,58.0,0,224,3.0,76.0
3417,70.0,120,104,0.0,76.0
3418,70.0,0,104,1.0,76.0
3419,71.0,120,239,5.0,76.0
3420,64.0,0,239,5.0,76.0
3421,67.0,0,239,5.0,76.0
3422,52.0,0,239,5.0,76.0
3423,66.0,120,104,1.0,76.0
3424,66.0,0,104,0.0,76.0
3425,68.0,120,104,0.0,76.0
3426,68.0,0,104,1.0,76.0
3427,59.0,0,224,3.0,76.0
3428,66.0,0,704,2.0,76.0
3429,50.0,0,224,4.0,76.0
3430,71.0,0,239,5.0,76.0
3431,62.0,0,239,5.0,76.0
3432,50.0,0,239,5.0,76.0
3433,66.0,0,239,5.0,76.0
3434,70.0,0,104,1.0,76.0
3435,70.0,0,104,0.0,76.0
3436,66.0,120,104,1.0,76.0
3437,64.0,0,224,2.0,76.0
3438,61.0,0,224,3.0,76.0
3439,66.0,0,104,0.0,76.0
3440,49.0,120,224,4.0,76.0
3441,61.0,0,239,5.0,76.0
3442,64.0,0,239,5.0,76.0
3443,49.0,0,239,5.0,76.0
3444,70.0,0,239,5.0,76.0
3445,62.0,0,224,2.0,76.0
3446,47.0,0,224,4.0,76.0
3447,54.0,0,224,3.0,76.0
3448,59.0,0,239,5.0,76.0
3449,47.0,0,239,5.0,76.0
3450,66.0,0,239,5.0,76.0
3451,62.0,0,239,5.0,76.0
3452,59.0,0,104,4.0,76.0
3453,62.0,0,104,3.0,76.0
3454,74.0,0,119,5.0,76.0
3455,78.0,0,119,5.0,76.0
3456,71.0,0,119,5.0,76.0
3457,59.0,240,119,5.0,76.0
3458,64.0,120,104,3.0,76.0
3459,61.0,0,104,4.0,76.0
3460,66.0,0,224,2.0,76.0
3461,79.0,0,119,5.0,76.0
3462,73.0,0,119,5.0,76.0
3463,61.0,0,119,5.0,76.0
3464,76.0,0,119,5.0,76.0
3465,71.0,120,584,1.0,76.0
3466,71.0,0,584,0.0,76.0
3467,66.0,0,104,1.0,76.0
3468,66.0,120,104,0.0,76.0
3469,62.0,0,224,4.0,76.0
3470,83.0,0,239,5.0,76.0
3471,78.0,120,239,5.0,76.0
3472,62.0,0,239,5.0,76.0
3473,74.0,0,239,5.0,76.0
3474,64.0,0,104,0.0,76.0
3475,64.0,0,104,1.0,76.0
3476,66.0,120,104,0.0,76.0
3477,61.0,0,224,4.0,76.0
3478,66.0,0,104,1.0,76.0
3479,76.0,120,239,5.0,76.0
3480,61.0,0,239,5.0,76.0
3481,82.0,0,239,5.0,76.0
3482,73.0,0,239,5.0,76.0
3483,66.0,0,584,3.0,76.0
3484,71.0,0,584,2.0,76.0
3485,62.0,120,104,3.0,76.0
3486,59.0,0,224,4.0,76.0
3487,66.0,0,104,2.0,76.0
3488,78.0,0,239,5.0,76.0
3489,59.0,0,239,5.0,76.0
3490,74.0,0,239,5.0,76.0
3491,71.0,120,239,5.0,76.0
3492,64.0,0,104,2.0,76.0
3493,61.0,120,104,3.0,76.0
3494,66.0,120,104,2.0,76.0
3495,59.0,0,104,3.0,76.0
3496,61.0,0,224,4.0,76.0
3497,74.0,0,239,5.0,76.0
3498,73.0,0,239,5.0,76.0
3499,61.0,0,239,5.0,76.0
3500,78.0,0,239,5.0,76.0
3501,74.0,0,584,0.0,76.0
3502,74.0,0,584,1.0,76.0
3503,62.0,0,224,4.0,76.0
3504,71.0,0,104,1.0,76.0
3505,66.0,0,224,3.0,76.0
3506,71.0,120,104,0.0,76.0
3507,78.0,0,239,5.0,76.0
3508,83.0,0,239,5.0,76.0
3509,62.0,0,239,5.0,76.0
3510,74.0,120,239,5.0,76.0
3511,70.0,0,104,0.0,76.0
3512,70.0,120,104,1.0,76.0
3513,71.0,0,104,1.0,76.0
3514,71.0,120,104,0.0,76.0
3515,64.0,0,224,3.0,76.0
3516,61.0,0,224,4.0,76.0
3517,83.0,0,239,5.0,76.0
3518,73.0,0,239,5.0,76.0
3519,78.0,0,239,5.0,76.0
3520,61.0,0,239,5.0,76.0
3521,62.0,0,104,3.0,76.0
3522,71.0,0,584,2.0,76.0
3523,59.0,0,224,4.0,76.0
3524,61.0,0,104,3.0,76.0
3525,69.0,120,104,2.0,76.0
3526,77.0,0,239,5.0,76.0
3527,80.0,0,239,5.0,76.0
3528,71.0,0,239,5.0,76.0
3529,59.0,0,239,5.0,76.0
3530,74.0,0,239,5.0,76.0
3531,59.0,0,104,3.0,76.0
3532,68.0,120,104,2.0,76.0
3533,57.0,120,104,3.0,76.0
3534,61.0,0,224,4.0,76.0
3535,69.0,0,104,2.0,76.0
3536,80.0,0,239,5.0,76.0
3537,77.0,0,239,5.0,76.0
3538,74.0,0,239,5.0,76.0
3539,61.0,0,239,5.0,76.0
3540,73.0,0,239,5.0,76.0
3541,77.0,0,584,1.0,76.0
3542,77.0,120,584,0.0,76.0
3543,56.0,120,224,3.0,76.0
3544,62.0,0,224,4.0,76.0
3545,71.0,120,104,1.0,76.0
3546,71.0,0,104,0.0,76.0
3547,80.0,0,239,5.0,76.0
3548,74.0,0,239,5.0,76.0
3549,77.0,0,239,5.0,76.0
3550,62.0,0,239,5.0,76.0
3551,70.0,120,104,0.0,76.0
3552,70.0,0,104,1.0,76.0
3553,71.0,0,104,1.0,76.0
3554,61.0,0,224,4.0,76.0
3555,71.0,120,104,0.0,76.0
3556,77.0,0,239,5.0,76.0
3557,73.0,0,239,5.0,76.0
3558,61.0,0,239,5.0,76.0
3559,80.0,0,239,5.0,76.0
3560,74.0,0,239,5.0,76.0
3561,65.0,0,344,3.0,76.0
3562,71.0,0,584,2.0,76.0
3563,69.0,0,104,2.0,76.0
3564,59.0,0,224,4.0,76.0
3565,66.0,120,104,3.0,76.0
3566,59.0,0,239,5.0,76.0
3567,74.0,120,239,5.0,76.0
3568,71.0,0,239,5.0,76.0
3569,77.0,0,239,5.0,76.0
3570,80.0,0,239,5.0,76.0
3571,65.0,0,104,3.0,76.0
3572,68.0,0,104,2.0,76.0
3573,66.0,0,104,3.0,76.0
3574,69.0,120,104,2.0,76.0
3575,61.0,0,224,4.0,76.0
3576,80.0,0,239,5.0,76.0
3577,77.0,0,239,5.0,76.0
3578,61.0,120,239,5.0,76.0
3579,73.0,0,239,5.0,76.0
3580,74.0,0,239,5.0,76.0
3581,80.0,0,584,0.0,76.0
3582,80.0,0,584,1.0,76.0
3583,71.0,0,224,2.0,76.0
3584,82.0,120,104,0.0,76.0
3585,82.0,0,104,1.0,76.0
3586,62.0,120,224,4.0,76.0
3587,65.0,0,224,3.0,76.0
3588,77.0,0,239,5.0,76.0
3589,80.0,0,239,5.0,76.0
3590,62.0,0,239,5.0,76.0
3591,74.0,0,239,5.0,76.0
3592,83.0,0,104,0.0,76.0
3593,83.0,120,104,1.0,76.0
3594,80.0,0,104,1.0,76.0
3595,74.0,0,224,2.0,76.0
3596,80.0,120,104,0.0,76.0
3597,59.0,0,224,4.0,76.0
3598,66.0,0,224,3.0,76.0
3599,59.0,0,239,5.0,76.0
3600,80.0,0,239,5.0,76.0
3601,77.0,0,239,5.0,76.0
3602,74.0,0,239,5.0,76.0
3603,71.0,0,239,5.0,76.0
3604,82.0,0,104,0.0,76.0
3605,82.0,120,104,1.0,76.0
3606,73.0,0,224,2.0,76.0
3607,78.0,0,104,0.0,76.0
3608,78.0,120,104,1.0,76.0
3609,64.0,0,224,3.0,76.0
3610,61.0,0,224,4.0,76.0
3611,82.0,0,239,5.0,76.0
3612,76.0,0,239,5.0,76.0
3613,73.0,0,239,5.0,76.0
3614,61.0,0,239,5.0,76.0
3615,83.0,0,104,0.0,76.0
3616,83.0,120,104,1.0,76.0
3617,66.0,0,224,3.0,76.0
3618,81.0,120,104,0.0,76.0
3619,81.0,0,104,1.0,76.0
3620,62.0,0,224,4.0,76.0
3621,62.0,0,239,5.0,76.0
3622,74.0,0,239,5.0,76.0
3623,83.0,0,239,5.0,76.0
3624,78.0,0,239,5.0,76.0
3625,79.0,120,104,0.0,76.0
3626,79.0,0,104,1.0,76.0
3627,71.0,0,344,2.0,76.0
3628,74.0,0,104,2.0,76.0
3629,78.0,0,104,0.0,76.0
3630,78.0,120,104,1.0,76.0
3631,64.0,0,224,4.0,76.0
3632,79.0,0,239,5.0,76.0
3633,76.0,0,239,5.0,76.0
3634,64.0,0,239,5.0,76.0
3635,83.0,0,239,5.0,76.0
3636,73.0,0,104,2.0,76.0
3637,71.0,120,104,2.0,76.0
3638,62.0,0,224,4.0,76.0
3639,79.0,0,239,5.0,76.0
3640,83.0,120,239,5.0,76.0
3641,62.0,0,239,5.0,76.0
3642,74.0,0,239,5.0,76.0
3643,76.0,0,239,5.0,76.0
3644,67.0,0,584,3.0,76.0
3645,76.0,0,344,0.0,76.0
3646,76.0,0,344,1.0,76.0
3647,74.0,0,104,1.0,76.0
3648,74.0,0,104,0.0,76.0
3649,66.0,120,104,3.0,76.0
3650,61.0,0,224,4.0,76.0
3651,70.0,120,224,2.0,76.0
3652,76.0,0,239,5.0,76.0
3653,82.0,0,239,5.0,76.0
3654,73.0,0,239,5.0,76.0
3655,61.0,0,239,5.0,76.0
3656,64.0,0,104,3.0,76.0
3657,73.0,0,104,0.0,76.0
3658,73.0,0,104,1.0,76.0
3659,62.0,0,224,4.0,76.0
3660,66.0,120,104,3.0,76.0
3661,71.0,0,104,0.0,76.0
3662,71.0,0,104,1.0,76.0
3663,79.0,0,239,5.0,76.0
3664,76.0,0,239,5.0,76.0
3665,74.0,0,239,5.0,76.0
3666,62.0,0,239,5.0,76.0
3667,83.0,120,239,5.0,76.0
3668,73.0,120,104,0.0,76.0
3669,73.0,0,104,1.0,76.0
3670,70.0,0,104,3.0,76.0
3671,71.0,0,104,3.0,76.0
3672,79.0,0,464,2.0,76.0
3673,74.0,0,104,1.0,76.0
3674,64.0,0,224,4.0,76.0
3675,74.0,120,104,0.0,76.0
3676,79.0,0,239,5.0,76.0
3677,76.0,0,239,5.0,76.0
3678,64.0,0,239,5.0,76.0
3679,85.0,0,239,5.0,76.0
3680,76.0,0,104,0.0,76.0
3681,76.0,0,104,1.0,76.0
3682,73.0,0,224,3.0,76.0
3683,70.0,120,104,1.0,76.0
3684,49.0,0,224,4.0,76.0
3685,70.0,0,104,0.0,76.0
3686,61.0,120,239,5.0,76.0
3687,64.0,0,239,5.0,76.0
3688,49.0,0,239,5.0,76.0
3689,70.0,0,239,5.0,76.0
3690,78.0,0,464,2.0,76.0
3691,71.0,0,224,0.0,76.0
3692,66.0,0,224,3.0,76.0
3693,71.0,120,224,1.0,76.0
3694,50.0,0,224,4.0,76.0
3695,66.0,0,239,5.0,76.0
3696,71.0,0,239,5.0,76.0
3697,50.0,0,239,5.0,76.0
3698,62.0,0,239,5.0,76.0
3699,79.0,0,104,1.0,76.0
3700,79.0,0,119,0.0,76.0
3701,71.0,0,224,2.0,76.0
3702,78.0,0,104,1.0,76.0
3703,78.0,120,104,0.0,76.0
3704,52.0,0,224,4.0,76.0
3705,67.0,0,224,3.0,76.0
3706,52.0,0,239,5.0,76.0
3707,73.0,0,239,5.0,76.0
3708,71.0,240,239,5.0,76.0
3709,67.0,0,239,5.0,76.0
3710,64.0,0,239,5.0,76.0
3711,76.0,0,104,1.0,76.0
3712,76.0,0,119,0.0,76.0
3713,74.0,0,104,0.0,76.0
3714,74.0,120,104,1.0,76.0
3715,66.0,0,224,3.0,76.0
3716,54.0,0,224,4.0,76.0
3717,71.0,0,224,2.0,76.0
3718,66.0,0,239,5.0,76.0
3719,73.0,0,239,5.0,76.0
3720,71.0,0,239,5.0,76.0
3721,54.0,120,239,5.0,76.0
3722,73.0,0,104,1.0,76.0
3723,73.0,120,119,0.0,76.0
3724,70.0,0,224,2.0,76.0
3725,71.0,0,104,0.0,76.0
3726,71.0,120,104,1.0,76.0
3727,42.0,0,224,4.0,76.0
3728,64.0,0,224,3.0,76.0
3729,58.0,0,239,5.0,76.0
3730,54.0,0,239,5.0,76.0
3731,61.0,0,239,5.0,76.0
3732,42.0,0,239,5.0,76.0
3733,47.0,0,224,4.0,76.0
3734,59.0,0,239,5.0,76.0
3735,66.0,0,239,5.0,76.0
3736,47.0,0,239,5.0,76.0
3737,62.0,120,239,5.0,76.0
3738,54.0,0,224,4.0,76.0
3739,73.0,0,239,5.0,76.0
3740,54.0,0,239,5.0,76.0
3741,69.0,0,239,5.0,76.0
3742,66.0,240,239,5.0,76.0
3743,71.0,0,704,0.0,76.0
3744,71.0,0,704,1.0,76.0
3745,71.0,0,239,5.0,76.0
3746,78.0,0,239,5.0,76.0
3747,74.0,0,239,5.0,76.0
3748,59.0,0,239,5.0,76.0
3749,62.0,0,719,3.0,76.0
3750,59.0,240,239,4.0,76.0
3751,66.0,0,719,2.0,76.0
3752,69.0,0,224,0.0,76.0
3753,69.0,240,224,1.0,76.0
3754,66.0,0,104,3.0,76.0
3755,50.0,240,104,4.0,76.0
3756,50.0,0,119,5.0,76.0
3757,69.0,0,119,5.0,76.0
3758,66.0,0,119,5.0,76.0
3759,62.0,0,119,5.0,76.0
3760,67.0,0,104,3.0,76.0
3761,52.0,0,104,4.0,76.0
3762,69.0,0,224,2.0,76.0
3763,71.0,0,119,5.0,76.0
3764,67.0,120,119,5.0,76.0
3765,52.0,0,119,5.0,76.0
3766,64.0,0,119,5.0,76.0
3767,74.0,240,584,0.0,76.0
3768,74.0,0,584,1.0,76.0
3769,54.0,0,224,4.0,76.0
3770,76.0,0,104,1.0,76.0
3771,76.0,120,104,0.0,76.0
3772,69.0,0,224,3.0,76.0
3773,74.0,0,239,5.0,76.0
3774,66.0,120,239,5.0,76.0
3775,54.0,0,239,5.0,76.0
3776,69.0,0,239,5.0,76.0
3777,78.0,120,104,0.0,76.0
3778,78.0,0,104,1.0,76.0
3779,52.0,0,224,4.0,76.0
3780,79.0,120,104,0.0,76.0
3781,67.0,0,224,3.0,76.0
3782,79.0,0,104,1.0,76.0
3783,52.0,0,239,5.0,76.0
3784,73.0,0,239,5.0,76.0
3785,67.0,0,239,5.0,76.0
3786,64.0,0,239,5.0,76.0
3787,81.0,0,104,0.0,76.0
3788,74.0,0,584,2.0,76.0
3789,81.0,0,104,1.0,76.0
3790,71.0,0,104,2.0,76.0
3791,50.0,0,224,4.0,76.0
3792,79.0,0,104,1.0,76.0
3793,66.0,0,224,3.0,76.0
3794,79.0,120,104,0.0,76.0
3795,62.0,0,239,5.0,76.0
3796,50.0,120,239,5.0,76.0
3797,69.0,0,239,5.0,76.0
3798,66.0,0,239,5.0,76.0
3799,78.0,0,104,0.0,76.0
3800,78.0,0,104,1.0,76.0
3801,69.0,0,104,2.0,76.0
3802,67.0,0,224,3.0,76.0
3803,76.0,0,104,1.0,76.0
3804,76.0,0,104,0.0,76.0
3805,52.0,0,224,4.0,76.0
3806,67.0,120,104,2.0,76.0
3807,73.0,0,239,5.0,76.0
3808,52.0,120,239,5.0,76.0
3809,64.0,0,239,5.0,76.0
3810,67.0,0,239,5.0,76.0
3811,66.0,0,104,2.0,76.0
3812,69.0,0,104,3.0,76.0
3813,74.0,0,224,1.0,76.0
3814,67.0,120,104,3.0,76.0
3815,54.0,0,224,4.0,76.0
3816,74.0,0,224,0.0,76.0
3817,67.0,0,104,2.0,76.0
3818,69.0,0,239,5.0,76.0
3819,66.0,0,239,5.0,76.0
3820,54.0,120,239,5.0,76.0
3821,74.0,0,239,5.0,76.0
3822,66.0,0,104,3.0,76.0
3823,52.0,0,224,4.0,76.0
3824,64.0,120,104,3.0,76.0
3825,72.0,0,224,1.0,76.0
3826,72.0,0,224,0.0,76.0
3827,72.0,0,239,5.0,76.0
3828,64.0,0,239,5.0,76.0
3829,67.0,0,239,5.0,76.0
3830,52.0,120,239,5.0,76.0
3831,71.0,0,224,0.0,76.0
3832,51.0,0,224,4.0,76.0
3833,71.0,0,224,1.0,76.0
3834,69.0,0,464,2.0,76.0
3835,66.0,0,224,3.0,76.0
3836,66.0,120,239,5.0,76.0
3837,69.0,0,239,5.0,76.0
3838,51.0,0,239,5.0,76.0
3839,71.0,0,239,5.0,76.0
3840,63.0,0,239,5.0,76.0
3841,71.0,0,224,3.0,76.0
3842,76.0,0,224,1.0,76.0
3843,52.0,0,224,4.0,76.0
3844,76.0,240,224,0.0,76.0
3845,67.0,0,224,2.0,76.0
3846,71.0,0,239,5.0,76.0
3847,67.0,0,239,5.0,76.0
3848,52.0,0,239,5.0,76.0
3849,64.0,0,239,5.0,76.0
3850,66.0,0,224,2.0,76.0
3851,69.0,0,224,3.0,76.0
3852,75.0,240,224,1.0,76.0
3853,75.0,0,224,0.0,76.0
3854,54.0,0,224,4.0,76.0
3855,69.0,0,239,5.0,76.0
3856,75.0,0,239,5.0,76.0
3857,66.0,0,239,5.0,76.0
3858,54.0,0,239,5.0,76.0
3859,81.0,0,224,1.0,76.0
3860,51.0,0,224,4.0,76.0
3861,81.0,0,224,0.0,76.0
3862,78.0,0,224,2.0,76.0
3863,63.0,0,239,5.0,76.0
3864,69.0,0,239,5.0,76.0
3865,66.0,0,239,5.0,76.0
3866,51.0,0,239,5.0,76.0
3867,71.0,0,239,5.0,76.0
3868,79.0,0,29,0.0,76.0
3869,81.0,30,29,0.0,76.0
3870,79.0,30,29,0.0,76.0
3871,81.0,30,29,0.0,76.0
3872,79.0,30,29,0.0,76.0
3873,81.0,30,29,0.0,76.0
3874,78.0,30,29,0.0,76.0
3875,76.0,0,224,2.0,76.0
3876,79.0,0,224,1.0,76.0
3877,71.0,240,464,3.0,76.0
3878,52.0,240,224,4.0,76.0
3879,79.0,30,29,0.0,76.0
3880,52.0,0,239,5.0,76.0
3881,64.0,0,239,5.0,76.0
3882,71.0,0,239,5.0,76.0
3883,67.0,0,239,5.0,76.0
3884,78.0,0,104,1.0,76.0
3885,78.0,0,104,0.0,76.0
3886,79.0,0,104,0.0,76.0
3887,79.0,120,104,1.0,76.0
3888,69.0,30,224,3.0,76.0
3889,75.0,0,224,2.0,76.0
3890,54.0,0,224,4.0,76.0
3891,66.0,0,239,5.0,76.0
3892,54.0,0,239,5.0,76.0
3893,75.0,0,239,5.0,76.0
3894,69.0,0,239,5.0,76.0
3895,71.0,120,104,3.0,76.0
3896,76.0,0,104,1.0,76.0
3897,76.0,0,104,0.0,76.0
3898,71.0,0,104,1.0,76.0
3899,69.0,120,104,3.0,76.0
3900,71.0,0,104,0.0,76.0
3901,55.0,0,224,4.0,76.0
3902,75.0,0,239,5.0,76.0
3903,71.0,0,239,5.0,76.0
3904,55.0,0,239,5.0,76.0
3905,67.0,0,239,5.0,76.0
3906,76.0,0,104,1.0,76.0
3907,76.0,120,104,0.0,76.0
3908,67.0,0,104,3.0,76.0
3909,69.0,0,104,3.0,76.0
3910,54.0,0,224,4.0,76.0
3911,78.0,0,104,0.0,76.0
3912,78.0,120,104,1.0,76.0
3913,69.0,0,239,5.0,76.0
3914,54.0,0,239,5.0,76.0
3915,66.0,0,239,5.0,76.0
3916,75.0,0,239,5.0,76.0
3917,79.0,0,104,1.0,76.0
3918,79.0,0,104,0.0,76.0
3919,81.0,120,104,0.0,76.0
3920,76.0,0,704,2.0,76.0
3921,71.0,0,224,3.0,76.0
3922,52.0,0,224,4.0,76.0
3923,81.0,0,104,1.0,76.0
3924,52.0,0,239,5.0,76.0
3925,64.0,120,239,5.0,76.0
3926,71.0,0,239,5.0,76.0
3927,67.0,0,239,5.0,76.0
3928,78.0,0,104,0.0,76.0
3929,78.0,0,104,1.0,76.0
3930,79.0,0,104,1.0,76.0
3931,79.0,120,104,0.0,76.0
3932,70.0,0,224,2.0,76.0
3933,62.0,0,224,3.0,76.0
3934,54.0,120,224,4.0,76.0
3935,54.0,0,239,5.0,76.0
3936,70.0,0,239,5.0,76.0
3937,66.0,0,239,5.0,76.0
3938,74.0,0,239,5.0,76.0
3939,76.0,0,104,0.0,76.0
3940,76.0,0,104,1.0,76.0
3941,55.0,0,224,4.0,76.0
3942,59.0,0,224,3.0,76.0
3943,78.0,0,104,1.0,76.0
3944,78.0,120,104,0.0,76.0
3945,67.0,0,239,5.0,76.0
3946,76.0,0,239,5.0,76.0
3947,71.0,0,239,5.0,76.0
3948,55.0,0,239,5.0,76.0
3949,74.0,0,104,0.0,76.0
3950,74.0,0,104,1.0,76.0
3951,66.0,120,224,3.0,76.0
3952,54.0,0,224,4.0,76.0
3953,76.0,0,104,1.0,76.0
3954,76.0,120,104,0.0,76.0
3955,66.0,0,239,5.0,76.0
3956,54.0,0,239,5.0,76.0
3957,71.0,0,239,5.0,76.0
3958,74.0,0,239,5.0,76.0
3959,71.0,120,584,2.0,76.0
3960,73.0,0,224,0.0,76.0
3961,73.0,120,104,2.0,76.0
3962,73.0,0,224,1.0,76.0
3963,52.0,0,224,4.0,76.0
3964,67.0,0,224,3.0,76.0
3965,71.0,0,239,5.0,76.0
3966,67.0,0,239,5.0,76.0
3967,52.0,120,239,5.0,76.0
3968,64.0,0,239,5.0,76.0
3969,73.0,0,239,5.0,76.0
3970,74.0,120,104,2.0,76.0
3971,54.0,0,224,4.0,76.0
3972,76.0,120,104,2.0,76.0
3973,66.0,0,224,3.0,76.0
3974,82.0,0,224,0.0,76.0
3975,82.0,0,224,1.0,76.0
3976,54.0,0,239,5.0,76.0
3977,66.0,0,239,5.0,76.0
3978,73.0,0,239,5.0,76.0
3979,70.0,0,239,5.0,76.0
3980,74.0,0,104,2.0,76.0
3981,59.0,0,224,3.0,76.0
3982,83.0,0,224,0.0,76.0
3983,73.0,120,104,2.0,76.0
3984,55.0,0,224,4.0,76.0
3985,83.0,0,224,1.0,76.0
3986,67.0,0,239,5.0,76.0
3987,74.0,120,239,5.0,76.0
3988,55.0,0,239,5.0,76.0
3989,71.0,0,239,5.0,76.0
3990,71.0,120,104,2.0,76.0
3991,54.0,0,224,4.0,76.0
3992,66.0,0,224,3.0,76.0
3993,69.0,120,104,2.0,76.0
3994,66.0,0,239,5.0,76.0
3995,71.0,0,239,5.0,76.0
3996,74.0,0,239,5.0,76.0
3997,54.0,0,239,5.0,76.0
3998,67.0,0,104,2.0,76.0
3999,52.0,0,224,4.0,76.0
4000,71.0,120,224,3.0,76.0
4001,66.0,120,104,2.0,76.0
4002,74.0,0,464,0.0,76.0
4003,74.0,0,464,1.0,76.0
4004,71.0,0,239,5.0,76.0
4005,64.0,0,239,5.0,76.0
4006,52.0,0,239,5.0,76.0
4007,67.0,0,239,5.0,76.0
4008,74.0,0,239,5.0,76.0
4009,64.0,0,104,2.0,76.0
4010,73.0,120,104,1.0,76.0
4011,73.0,0,104,0.0,76.0
4012,74.0,120,104,0.0,76.0
4013,74.0,0,104,1.0,76.0
4014,54.0,0,224,4.0,76.0
4015,70.0,0,224,3.0,76.0
4016,62.0,0,104,2.0,76.0
4017,73.0,0,239,5.0,76.0
4018,70.0,0,239,5.0,76.0
4019,54.0,0,239,5.0,76.0
4020,66.0,0,239,5.0,76.0
4021,76.0,0,104,0.0,76.0
4022,76.0,0,104,1.0,76.0
4023,61.0,120,104,2.0,76.0
4024,74.0,0,104,0.0,76.0
4025,55.0,0,224,4.0,76.0
4026,74.0,120,104,1.0,76.0
4027,71.0,0,224,3.0,76.0
4028,59.0,0,104,2.0,76.0
4029,55.0,0,239,5.0,76.0
4030,76.0,0,239,5.0,76.0
4031,71.0,0,239,5.0,76.0
4032,67.0,0,239,5.0,76.0
4033,73.0,0,104,0.0,76.0
4034,73.0,120,104,1.0,76.0
4035,64.0,0,224,3.0,76.0
4036,71.0,0,104,1.0,76.0
4037,67.0,0,224,2.0,76.0
4038,71.0,120,104,0.0,76.0
4039,52.0,0,224,4.0,76.0
4040,73.0,0,239,5.0,76.0
4041,64.0,0,239,5.0,76.0
4042,71.0,0,239,5.0,76.0
4043,52.0,0,239,5.0,76.0
4044,67.0,0,239,5.0,76.0
4045,70.0,0,104,1.0,76.0
4046,70.0,0,104,0.0,76.0
4047,54.0,0,224,4.0,76.0
4048,71.0,0,104,0.0,76.0
4049,61.0,0,224,3.0,76.0
4050,71.0,120,104,1.0,76.0
4051,54.0,120,239,5.0,76.0
4052,66.0,0,239,5.0,76.0
4053,70.0,0,239,5.0,76.0
4054,73.0,0,239,5.0,76.0
4055,73.0,0,104,0.0,76.0
4056,73.0,0,104,1.0,76.0
4057,52.0,0,224,4.0,76.0
4058,70.0,120,104,0.0,76.0
4059,70.0,0,104,1.0,76.0
4060,58.0,0,224,3.0,76.0
4061,64.0,0,239,5.0,76.0
4062,52.0,120,239,5.0,76.0
4063,71.0,0,239,5.0,76.0
4064,67.0,0,239,5.0,76.0
4065,66.0,0,104,1.0,76.0
4066,66.0,0,104,0.0,76.0
4067,50.0,0,224,4.0,76.0
4068,68.0,0,104,1.0,76.0
4069,59.0,120,224,3.0,76.0
4070,68.0,120,104,0.0,76.0
4071,66.0,0,704,2.0,76.0
4072,50.0,0,239,5.0,76.0
4073,66.0,0,239,5.0,76.0
4074,71.0,0,239,5.0,76.0
4075,62.0,0,239,5.0,76.0
4076,70.0,0,104,1.0,76.0
4077,70.0,0,104,0.0,76.0
4078,49.0,0,224,4.0,76.0
4079,66.0,120,104,0.0,76.0
4080,61.0,0,224,3.0,76.0
4081,64.0,0,224,2.0,76.0
4082,66.0,0,104,1.0,76.0
4083,61.0,120,239,5.0,76.0
4084,70.0,0,239,5.0,76.0
4085,49.0,0,239,5.0,76.0
4086,64.0,0,239,5.0,76.0
4087,54.0,0,224,3.0,76.0
4088,47.0,0,224,4.0,76.0
4089,62.0,0,224,2.0,76.0
4090,66.0,0,239,5.0,76.0
4091,62.0,0,239,5.0,76.0
4092,47.0,0,239,5.0,76.0
4093,59.0,0,239,5.0,76.0
4094,62.0,240,104,3.0,76.0
4095,59.0,0,104,4.0,76.0
4096,78.0,0,119,5.0,76.0
4097,74.0,0,119,5.0,76.0
4098,59.0,0,119,5.0,76.0
4099,71.0,0,119,5.0,76.0
4100,61.0,120,104,4.0,76.0
4101,64.0,0,104,3.0,76.0
4102,66.0,0,224,2.0,76.0
4103,73.0,0,119,5.0,76.0
4104,76.0,0,119,5.0,76.0
4105,61.0,0,119,5.0,76.0
4106,79.0,0,119,5.0,76.0
4107,71.0,0,584,0.0,76.0
4108,71.0,120,584,1.0,76.0
4109,66.0,120,104,1.0,76.0
4110,66.0,0,104,0.0,76.0
4111,62.0,0,224,4.0,76.0
4112,83.0,120,239,5.0,76.0
4113,78.0,0,239,5.0,76.0
4114,74.0,0,239,5.0,76.0
4115,62.0,0,239,5.0,76.0
4116,64.0,0,104,1.0,76.0
4117,64.0,0,104,0.0,76.0
4118,66.0,0,104,0.0,76.0
4119,61.0,0,224,4.0,76.0
4120,66.0,120,104,1.0,76.0
4121,61.0,120,239,5.0,76.0
4122,76.0,0,239,5.0,76.0
4123,73.0,0,239,5.0,76.0
4124,82.0,0,239,5.0,76.0
4125,66.0,0,584,3.0,76.0
4126,71.0,0,584,2.0,76.0
4127,66.0,120,104,2.0,76.0
4128,59.0,0,224,4.0,76.0
4129,62.0,0,104,3.0,76.0
4130,74.0,0,239,5.0,76.0
4131,71.0,120,239,5.0,76.0
4132,59.0,0,239,5.0,76.0
4133,78.0,0,239,5.0,76.0
4134,61.0,0,104,3.0,76.0
4135,64.0,0,104,2.0,76.0
4136,66.0,120,104,2.0,76.0
4137,61.0,0,224,4.0,76.0
4138,59.0,0,104,3.0,76.0
4139,78.0,0,239,5.0,76.0
4140,73.0,120,239,5.0,76.0
4141,61.0,0,239,5.0,76.0
4142,74.0,0,239,5.0,76.0
4143,74.0,0,584,0.0,76.0
4144,74.0,0,584,1.0,76.0
4145,66.0,0,224,3.0,76.0
4146,71.0,0,104,0.0,76.0
4147,71.0,120,104,1.0,76.0
4148,62.0,0,224,4.0,76.0
4149,62.0,120,239,5.0,76.0
4150,83.0,0,239,5.0,76.0
4151,78.0,0,239,5.0,76.0
4152,74.0,0,239,5.0,76.0
4153,70.0,0,104,1.0,76.0
4154,70.0,0,104,0.0,76.0
4155,71.0,0,104,1.0,76.0
4156,61.0,0,224,4.0,76.0
4157,71.0,120,104,0.0,76.0
4158,64.0,0,224,3.0,76.0
4159,83.0,0,239,5.0,76.0
4160,73.0,120,239,5.0,76.0
4161,61.0,0,239,5.0,76.0
4162,78.0,0,239,5.0,76.0
4163,62.0,0,104,3.0,76.0
4164,71.0,0,584,2.0,76.0
4165,61.0,0,104,3.0,76.0
4166,59.0,120,224,4.0,76.0
4167,69.0,120,104,2.0,76.0
4168,80.0,0,239,5.0,76.0
4169,59.0,0,239,5.0,76.0
4170,71.0,0,239,5.0,76.0
4171,74.0,0,239,5.0,76.0
4172,77.0,0,239,5.0,76.0
4173,68.0,0,104,2.0,76.0
4174,59.0,0,104,3.0,76.0
4175,57.0,0,104,3.0,76.0
4176,69.0,120,104,2.0,76.0
4177,61.0,0,224,4.0,76.0
4178,80.0,0,239,5.0,76.0
4179,77.0,0,239,5.0,76.0
4180,73.0,120,239,5.0,76.0
4181,74.0,0,239,5.0,76.0
4182,61.0,0,239,5.0,76.0
4183,77.0,0,584,0.0,76.0
4184,77.0,0,584,1.0,76.0
4185,71.0,120,104,0.0,76.0
4186,56.0,0,224,3.0,76.0
4187,71.0,0,104,1.0,76.0
4188,62.0,0,224,4.0,76.0
4189,80.0,0,239,5.0,76.0
4190,77.0,0,239,5.0,76.0
4191,74.0,0,239,5.0,76.0
4192,62.0,120,239,5.0,76.0
4193,70.0,0,104,1.0,76.0
4194,70.0,0,104,0.0,76.0
4195,71.0,120,104,1.0,76.0
4196,71.0,0,104,0.0,76.0
4197,61.0,0,224,4.0,76.0
4198,61.0,120,239,5.0,76.0
4199,77.0,0,239,5.0,76.0
4200,73.0,0,239,5.0,76.0
4201,74.0,0,239,5.0,76.0
4202,80.0,0,239,5.0,76.0
4203,71.0,0,584,2.0,76.0
4204,65.0,0,344,3.0,76.0
4205,59.0,0,224,4.0,76.0
4206,69.0,0,104,2.0,76.0
4207,66.0,120,104,3.0,76.0
4208,77.0,0,239,5.0,76.0
4209,74.0,0,239,5.0,76.0
4210,59.0,0,239,5.0,76.0
4211,71.0,0,239,5.0,76.0
4212,80.0,120,239,5.0,76.0
4213,65.0,0,104,3.0,76.0
4214,68.0,0,104,2.0,76.0
4215,69.0,0,104,2.0,76.0
4216,61.0,120,224,4.0,76.0
4217,66.0,120,104,3.0,76.0
4218,61.0,0,239,5.0,76.0
4219,73.0,0,239,5.0,76.0
4220,77.0,0,239,5.0,76.0
4221,80.0,0,239,5.0,76.0
4222,74.0,0,239,5.0,76.0
4223,80.0,0,584,0.0,76.0
4224,80.0,0,584,1.0,76.0
4225,62.0,0,224,4.0,76.0
4226,82.0,120,104,0.0,76.0
4227,82.0,0,104,1.0,76.0
4228,71.0,0,224,2.0,76.0
4229,65.0,120,224,3.0,76.0
4230,77.0,0,239,5.0,76.0
4231,80.0,0,239,5.0,76.0
4232,74.0,0,239,5.0,76.0
4233,62.0,0,239,5.0,76.0
4234,83.0,0,104,1.0,76.0
4235,83.0,0,104,0.0,76.0
4236,59.0,0,224,4.0,76.0
4237,66.0,0,224,3.0,76.0
4238,74.0,0,224,2.0,76.0
4239,80.0,120,104,0.0,76.0
4240,80.0,0,104,1.0,76.0
4241,77.0,120,239,5.0,76.0
4242,59.0,0,239,5.0,76.0
4243,74.0,0,239,5.0,76.0
4244,71.0,0,239,5.0,76.0
4245,80.0,0,239,5.0,76.0
4246,82.0,0,104,0.0,76.0
4247,82.0,120,104,1.0,76.0
4248,61.0,0,224,4.0,76.0
4249,64.0,0,224,3.0,76.0
4250,78.0,120,104,0.0,76.0
4251,73.0,0,224,2.0,76.0
4252,78.0,0,104,1.0,76.0
4253,61.0,0,239,5.0,76.0
4254,76.0,0,239,5.0,76.0
4255,73.0,0,239,5.0,76.0
4256,82.0,0,239,5.0,76.0
4257,83.0,0,104,0.0,76.0
4258,83.0,0,104,1.0,76.0
4259,81.0,0,104,0.0,76.0
4260,62.0,120,224,4.0,76.0
4261,81.0,120,104,1.0,76.0
4262,66.0,0,224,3.0,76.0
4263,83.0,0,239,5.0,76.0
4264,62.0,0,239,5.0,76.0
4265,78.0,0,239,5.0,76.0
4266,74.0,0,239,5.0,76.0
4267,71.0,0,344,2.0,76.0
4268,79.0,0,104,0.0,76.0
4269,79.0,0,104,1.0,76.0
4270,78.0,120,104,0.0,76.0
4271,74.0,0,104,2.0,76.0
4272,78.0,0,104,1.0,76.0
4273,64.0,0,224,4.0,76.0
4274,83.0,0,239,5.0,76.0
4275,79.0,120,239,5.0,76.0
4276,76.0,0,239,5.0,76.0
4277,64.0,0,239,5.0,76.0
4278,73.0,0,104,2.0,76.0
4279,71.0,120,104,2.0,76.0
4280,62.0,0,224,4.0,76.0
4281,83.0,0,239,5.0,76.0
4282,62.0,0,239,5.0,76.0
4283,74.0,0,239,5.0,76.0
4284,76.0,0,239,5.0,76.0
4285,79.0,0,239,5.0,76.0
4286,76.0,120,344,0.0,76.0
4287,76.0,0,344,1.0,76.0
4288,67.0,0,584,3.0,76.0
4289,61.0,0,224,4.0,76.0
4290,66.0,120,104,3.0,76.0
4291,70.0,0,224,2.0,76.0
4292,74.0,0,104,0.0,76.0
4293,74.0,0,104,1.0,76.0
4294,61.0,0,239,5.0,76.0
4295,76.0,0,239,5.0,76.0
4296,73.0,120,239,5.0,76.0
4297,82.0,0,239,5.0,76.0
4298,73.0,0,104,1.0,76.0
4299,73.0,120,104,0.0,76.0
4300,64.0,0,104,3.0,76.0
4301,71.0,0,104,1.0,76.0
4302,71.0,120,104,0.0,76.0
4303,66.0,0,104,3.0,76.0
4304,62.0,0,224,4.0,76.0
4305,74.0,0,239,5.0,76.0
4306,76.0,0,239,5.0,76.0
4307,79.0,0,239,5.0,76.0
4308,83.0,0,239,5.0,76.0
4309,62.0,0,239,5.0,76.0
4310,73.0,0,104,0.0,76.0
4311,70.0,120,104,3.0,76.0
4312,73.0,0,104,1.0,76.0
4313,79.0,0,464,2.0,76.0
4314,64.0,0,224,4.0,76.0
4315,71.0,0,104,3.0,76.0
4316,74.0,0,104,1.0,76.0
4317,74.0,120,104,0.0,76.0
4318,76.0,0,239,5.0,76.0
4319,64.0,0,239,5.0,76.0
4320,85.0,0,239,5.0,76.0
4321,79.0,0,239,5.0,76.0
4322,76.0,0,104,0.0,76.0
4323,76.0,0,104,1.0,76.0
4324,70.0,120,104,0.0,76.0
4325,70.0,0,104,1.0,76.0
4326,49.0,0,224,4.0,76.0
4327,73.0,0,224,3.0,76.0
4328,64.0,0,239,5.0,76.0
4329,61.0,0,239,5.0,76.0
4330,49.0,0,239,5.0,76.0
4331,70.0,120,239,5.0,76.0
4332,71.0,0,224,1.0,76.0
4333,50.0,0,224,4.0,76.0
4334,66.0,0,224,3.0,76.0
4335,78.0,0,464,2.0,76.0
4336,71.0,0,224,0.0,76.0
4337,71.0,0,239,5.0,76.0
4338,62.0,0,239,5.0,76.0
4339,50.0,120,239,5.0,76.0
4340,66.0,0,239,5.0,76.0
4341,79.0,240,104,1.0,76.0
4342,79.0,0,119,0.0,76.0
4343,67.0,0,224,3.0,76.0
4344,78.0,120,104,1.0,76.0
4345,78.0,0,104,0.0,76.0
4346,71.0,0,224,2.0,76.0
4347,52.0,0,224,4.0,76.0
4348,73.0,0,239,5.0,76.0
4349,67.0,0,239,5.0,76.0
4350,64.0,0,239,5.0,76.0
4351,71.0,0,239,5.0,76.0
4352,52.0,0,239,5.0,76.0
4353,76.0,0,104,1.0,76.0
4354,76.0,0,119,0.0,76.0
4355,71.0,0,224,2.0,76.0
4356,74.0,0,104,1.0,76.0
4357,74.0,120,104,0.0,76.0
4358,66.0,120,224,3.0,76.0
4359,54.0,0,224,4.0,76.0
4360,66.0,0,239,5.0,76.0
4361,73.0,0,239,5.0,76.0
4362,71.0,0,239,5.0,76.0
4363,54.0,0,239,5.0,76.0
4364,73.0,0,104,1.0,76.0
4365,73.0,120,119,0.0,76.0
4366,64.0,0,224,3.0,76.0
4367,70.0,0,224,2.0,76.0
4368,42.0,0,224,4.0,76.0
4369,71.0,120,104,0.0,76.0
4370,71.0,0,104,1.0,76.0
4371,58.0,0,239,5.0,76.0
4372,42.0,0,239,5.0,76.0
4373,54.0,0,239,5.0,76.0
4374,61.0,0,239,5.0,76.0
4375,47.0,0,224,4.0,76.0
4376,59.0,120,239,5.0,76.0
4377,47.0,0,239,5.0,76.0
4378,62.0,0,239,5.0,76.0
4379,66.0,0,239,5.0,76.0
4380,54.0,0,224,4.0,76.0
4381,73.0,240,239,5.0,76.0
4382,54.0,0,239,5.0,76.0
4383,69.0,0,239,5.0,76.0
4384,66.0,0,239,5.0,76.0
4385,59.0,0,239,5.0,76.0
4386,71.0,0,239,5.0,76.0
4387,78.0,240,239,5.0,76.0
4388,74.0,0,239,5.0,76.0
4389,66.0,0,719,2.0,76.0
4390,59.0,0,239,4.0,76.0
4391,71.0,0,719,0.0,76.0
4392,71.0,0,719,1.0,76.0
4393,62.0,0,719,3.0,76.0
