,note,step,duration,channel,velocity
0,60.0,240,108,2.0,100.0
1,60.0,0,108,7.0,100.0
2,59.0,0,108,2.0,100.0
3,59.0,120,108,7.0,100.0
4,60.0,120,108,7.0,100.0
5,60.0,0,108,2.0,100.0
6,62.0,120,108,7.0,100.0
7,62.0,0,108,2.0,100.0
8,64.0,120,108,7.0,100.0
9,64.0,0,108,2.0,100.0
10,60.0,0,864,5.0,100.0
11,48.0,0,864,10.0,100.0
12,60.0,0,864,10.0,100.0
13,60.0,0,864,1.0,100.0
14,65.0,0,108,2.0,100.0
15,65.0,120,108,7.0,100.0
16,67.0,0,108,2.0,100.0
17,67.0,0,108,7.0,100.0
18,66.0,120,108,7.0,100.0
19,66.0,0,108,2.0,100.0
20,67.0,0,108,7.0,100.0
21,67.0,120,108,2.0,100.0
22,62.0,0,216,8.0,100.0
23,62.0,0,216,4.0,100.0
24,69.0,120,108,7.0,100.0
25,69.0,0,108,2.0,100.0
26,71.0,0,108,2.0,100.0
27,71.0,120,108,7.0,100.0
28,67.0,0,216,8.0,100.0
29,67.0,0,216,4.0,100.0
30,69.0,120,108,7.0,100.0
31,69.0,0,108,2.0,100.0
32,71.0,0,108,7.0,100.0
33,71.0,120,108,2.0,100.0
34,59.0,0,864,5.0,100.0
35,59.0,0,864,1.0,100.0
36,47.0,120,864,10.0,100.0
37,59.0,0,864,10.0,100.0
38,67.0,0,216,8.0,100.0
39,67.0,0,216,4.0,100.0
40,67.0,0,108,2.0,100.0
41,67.0,120,108,7.0,100.0
42,72.0,0,108,2.0,100.0
43,72.0,0,108,7.0,100.0
44,67.0,120,216,8.0,100.0
45,67.0,0,216,4.0,100.0
46,71.0,120,108,2.0,100.0
47,71.0,0,108,7.0,100.0
48,72.0,120,108,2.0,100.0
49,66.0,0,108,8.0,100.0
50,72.0,0,108,7.0,100.0
51,66.0,0,108,4.0,100.0
52,74.0,0,108,7.0,100.0
53,64.0,0,108,4.0,100.0
54,74.0,120,108,2.0,100.0
55,64.0,0,108,8.0,100.0
56,66.0,0,108,8.0,100.0
57,72.0,0,108,7.0,100.0
58,72.0,0,108,2.0,100.0
59,66.0,120,108,4.0,100.0
60,67.0,120,108,8.0,100.0
61,76.0,0,108,7.0,100.0
62,76.0,0,108,2.0,100.0
63,67.0,0,108,4.0,100.0
64,64.0,0,108,4.0,100.0
65,74.0,0,108,7.0,100.0
66,74.0,0,108,2.0,100.0
67,64.0,120,108,8.0,100.0
68,57.0,0,864,5.0,100.0
69,45.0,0,864,10.0,100.0
70,57.0,0,864,1.0,100.0
71,57.0,0,864,10.0,100.0
72,72.0,0,108,7.0,100.0
73,66.0,0,108,8.0,100.0
74,72.0,0,108,2.0,100.0
75,66.0,120,108,4.0,100.0
76,55.0,0,108,1.0,100.0
77,67.0,0,108,8.0,100.0
78,71.0,0,108,2.0,100.0
79,55.0,0,108,5.0,100.0
80,67.0,120,108,4.0,100.0
81,71.0,0,108,7.0,100.0
82,55.0,0,216,10.0,100.0
83,43.0,0,216,10.0,100.0
84,74.0,0,108,7.0,100.0
85,71.0,0,108,8.0,100.0
86,74.0,0,108,2.0,100.0
87,71.0,0,108,4.0,100.0
88,65.0,0,108,5.0,100.0
89,62.0,120,108,1.0,100.0
90,67.0,0,108,7.0,100.0
91,55.0,0,108,3.0,100.0
92,67.0,0,108,2.0,100.0
93,55.0,0,108,10.0,100.0
94,64.0,0,108,1.0,100.0
95,72.0,0,108,4.0,100.0
96,43.0,0,108,10.0,100.0
97,64.0,0,108,5.0,100.0
98,72.0,0,108,8.0,100.0
99,74.0,0,108,8.0,100.0
100,65.0,0,108,1.0,100.0
101,74.0,0,108,4.0,100.0
102,41.0,0,108,10.0,100.0
103,53.0,0,108,3.0,100.0
104,62.0,0,108,5.0,100.0
105,71.0,0,108,2.0,100.0
106,53.0,0,108,10.0,100.0
107,71.0,0,108,7.0,100.0
108,72.0,0,108,7.0,100.0
109,67.0,0,108,1.0,100.0
110,72.0,0,108,2.0,100.0
111,40.0,0,216,10.0,100.0
112,52.0,0,216,3.0,100.0
113,76.0,0,216,8.0,100.0
114,52.0,0,216,10.0,100.0
115,76.0,0,216,4.0,100.0
116,72.0,0,108,1.0,100.0
117,76.0,0,108,2.0,100.0
118,76.0,120,108,7.0,100.0
119,67.0,0,108,7.0,100.0
120,67.0,0,108,2.0,100.0
121,64.0,0,108,1.0,100.0
122,76.0,0,216,8.0,100.0
123,76.0,120,216,4.0,100.0
124,48.0,0,216,3.0,100.0
125,48.0,0,216,10.0,100.0
126,36.0,0,216,10.0,100.0
127,71.0,0,108,2.0,100.0
128,67.0,0,108,1.0,100.0
129,71.0,120,108,7.0,100.0
130,79.0,0,588,6.0,100.0
131,69.0,0,108,2.0,100.0
132,69.0,0,108,7.0,100.0
133,79.0,0,588,0.0,100.0
134,76.0,0,216,4.0,100.0
135,53.0,0,216,3.0,100.0
136,60.0,0,696,5.0,100.0
137,76.0,0,216,8.0,100.0
138,53.0,120,216,10.0,100.0
139,41.0,0,216,10.0,100.0
140,72.0,120,108,2.0,100.0
141,72.0,0,108,7.0,100.0
142,72.0,0,108,0.0,100.0
143,72.0,0,108,6.0,100.0
144,74.0,0,108,4.0,100.0
145,69.0,0,108,6.0,100.0
146,65.0,0,108,7.0,100.0
147,74.0,0,108,8.0,100.0
148,65.0,0,108,2.0,100.0
149,69.0,120,108,0.0,100.0
150,62.0,0,108,5.0,100.0
151,52.0,0,216,3.0,100.0
152,40.0,0,216,10.0,100.0
153,52.0,0,216,10.0,100.0
154,69.0,0,108,2.0,100.0
155,72.0,120,108,8.0,100.0
156,69.0,0,108,7.0,100.0
157,72.0,0,108,4.0,100.0
158,72.0,0,108,6.0,100.0
159,64.0,0,108,5.0,100.0
160,72.0,0,108,0.0,100.0
161,71.0,0,108,7.0,100.0
162,65.0,0,588,1.0,100.0
163,71.0,0,108,2.0,100.0
164,74.0,0,216,4.0,100.0
165,38.0,0,216,10.0,100.0
166,74.0,120,216,8.0,100.0
167,50.0,0,216,3.0,100.0
168,65.0,0,216,5.0,100.0
169,50.0,0,216,10.0,100.0
170,74.0,0,108,2.0,100.0
171,74.0,120,108,7.0,100.0
172,71.0,0,108,1.0,100.0
173,62.0,0,108,1.0,100.0
174,65.0,0,108,7.0,100.0
175,65.0,0,108,2.0,100.0
176,67.0,0,216,5.0,100.0
177,47.0,0,216,10.0,100.0
178,47.0,0,216,3.0,100.0
179,35.0,120,216,10.0,100.0
180,74.0,0,216,4.0,100.0
181,74.0,0,216,8.0,100.0
182,65.0,120,108,1.0,100.0
183,69.0,0,108,7.0,100.0
184,69.0,0,108,2.0,100.0
185,67.0,120,108,2.0,100.0
186,77.0,0,588,6.0,100.0
187,67.0,0,108,7.0,100.0
188,77.0,0,588,0.0,100.0
189,59.0,0,216,5.0,100.0
190,74.0,0,216,8.0,100.0
191,74.0,0,216,4.0,100.0
192,71.0,0,108,7.0,100.0
193,71.0,0,108,0.0,100.0
194,71.0,0,108,2.0,100.0
195,71.0,120,108,6.0,100.0
196,52.0,0,108,10.0,100.0
197,72.0,0,108,4.0,100.0
198,64.0,120,108,7.0,100.0
199,67.0,0,108,6.0,100.0
200,40.0,0,108,10.0,100.0
201,64.0,0,108,2.0,100.0
202,60.0,0,108,5.0,100.0
203,52.0,0,108,3.0,100.0
204,72.0,0,108,8.0,100.0
205,67.0,0,108,0.0,100.0
206,62.0,120,108,5.0,100.0
207,50.0,0,108,10.0,100.0
208,38.0,0,108,10.0,100.0
209,71.0,0,108,4.0,100.0
210,67.0,0,108,2.0,100.0
211,71.0,0,108,8.0,100.0
212,50.0,0,108,3.0,100.0
213,71.0,0,108,6.0,100.0
214,67.0,0,108,7.0,100.0
215,71.0,0,108,0.0,100.0
216,69.0,0,108,7.0,100.0
217,64.0,0,588,1.0,100.0
218,69.0,0,108,2.0,100.0
219,36.0,0,216,10.0,100.0
220,48.0,120,216,10.0,100.0
221,64.0,0,216,5.0,100.0
222,48.0,0,216,3.0,100.0
223,69.0,120,108,1.0,100.0
224,72.0,0,108,2.0,100.0
225,72.0,0,108,7.0,100.0
226,60.0,0,108,1.0,100.0
227,64.0,0,108,2.0,100.0
228,64.0,0,108,7.0,100.0
229,45.0,0,216,10.0,100.0
230,69.0,0,216,5.0,100.0
231,45.0,0,216,3.0,100.0
232,33.0,120,216,10.0,100.0
233,67.0,0,108,2.0,100.0
234,64.0,0,108,1.0,100.0
235,67.0,120,108,7.0,100.0
236,76.0,0,588,6.0,100.0
237,76.0,0,588,0.0,100.0
238,65.0,0,108,7.0,100.0
239,65.0,0,108,2.0,100.0
240,50.0,120,216,10.0,100.0
241,38.0,0,216,10.0,100.0
242,72.0,0,696,4.0,100.0
243,72.0,0,696,8.0,100.0
244,50.0,0,216,3.0,100.0
245,57.0,0,216,5.0,100.0
246,69.0,0,108,2.0,100.0
247,69.0,0,108,7.0,100.0
248,69.0,0,108,6.0,100.0
249,69.0,120,108,0.0,100.0
250,65.0,120,108,6.0,100.0
251,62.0,0,108,2.0,100.0
252,71.0,0,108,4.0,100.0
253,59.0,0,108,5.0,100.0
254,71.0,0,108,8.0,100.0
255,62.0,0,108,7.0,100.0
256,65.0,0,108,0.0,100.0
257,48.0,0,216,10.0,100.0
258,48.0,0,216,3.0,100.0
259,36.0,0,216,10.0,100.0
260,69.0,0,108,6.0,100.0
261,69.0,0,108,4.0,100.0
262,65.0,120,108,7.0,100.0
263,69.0,0,108,8.0,100.0
264,65.0,0,108,2.0,100.0
265,60.0,0,108,5.0,100.0
266,69.0,0,108,0.0,100.0
267,67.0,0,108,2.0,100.0
268,62.0,0,108,5.0,100.0
269,67.0,0,108,7.0,100.0
270,62.0,0,588,1.0,100.0
271,71.0,0,108,4.0,100.0
272,47.0,0,216,3.0,100.0
273,35.0,0,216,10.0,100.0
274,47.0,120,216,10.0,100.0
275,55.0,0,108,5.0,100.0
276,74.0,0,108,4.0,100.0
277,67.0,0,108,1.0,100.0
278,71.0,120,108,7.0,100.0
279,71.0,0,108,2.0,100.0
280,62.0,120,108,2.0,100.0
281,59.0,0,108,5.0,100.0
282,59.0,0,108,1.0,100.0
283,62.0,0,108,7.0,100.0
284,31.0,0,216,10.0,100.0
285,43.0,0,216,10.0,100.0
286,43.0,0,216,3.0,100.0
287,55.0,0,108,5.0,100.0
288,65.0,0,108,7.0,100.0
289,65.0,0,108,2.0,100.0
290,62.0,120,108,1.0,100.0
291,64.0,0,108,2.0,100.0
292,79.0,0,348,4.0,100.0
293,74.0,0,588,0.0,100.0
294,64.0,0,108,7.0,100.0
295,74.0,0,588,6.0,100.0
296,48.0,0,216,3.0,100.0
297,60.0,120,216,5.0,100.0
298,48.0,0,216,10.0,100.0
299,67.0,0,696,8.0,100.0
300,36.0,0,216,10.0,100.0
301,67.0,0,108,6.0,100.0
302,76.0,120,108,4.0,100.0
303,67.0,0,108,0.0,100.0
304,67.0,0,108,2.0,100.0
305,67.0,0,108,7.0,100.0
306,64.0,0,108,0.0,100.0
307,60.0,0,108,7.0,100.0
308,60.0,0,108,2.0,100.0
309,64.0,120,108,6.0,100.0
310,72.0,0,108,4.0,100.0
311,58.0,0,216,8.0,100.0
312,64.0,0,216,5.0,100.0
313,64.0,120,108,7.0,100.0
314,67.0,0,108,0.0,100.0
315,67.0,0,108,4.0,100.0
316,67.0,0,108,6.0,100.0
317,58.0,0,108,3.0,100.0
318,64.0,0,108,2.0,100.0
319,65.0,0,108,7.0,100.0
320,57.0,120,108,3.0,100.0
321,69.0,0,108,4.0,100.0
322,60.0,0,588,1.0,100.0
323,65.0,0,108,2.0,100.0
324,60.0,0,216,5.0,100.0
325,57.0,0,216,8.0,100.0
326,72.0,0,108,4.0,100.0
327,53.0,0,108,3.0,100.0
328,65.0,120,108,1.0,100.0
329,69.0,0,108,2.0,100.0
330,69.0,0,108,7.0,100.0
331,60.0,0,108,7.0,100.0
332,57.0,0,108,1.0,100.0
333,57.0,120,108,3.0,100.0
334,60.0,0,108,2.0,100.0
335,65.0,0,108,4.0,100.0
336,57.0,0,216,5.0,100.0
337,69.0,0,216,8.0,100.0
338,36.0,0,216,10.0,100.0
339,48.0,0,216,10.0,100.0
340,65.0,0,108,2.0,100.0
341,69.0,0,108,4.0,100.0
342,60.0,0,108,1.0,100.0
343,65.0,120,108,7.0,100.0
344,53.0,0,108,3.0,100.0
345,64.0,0,108,2.0,100.0
346,72.0,0,588,6.0,100.0
347,67.0,0,108,4.0,100.0
348,64.0,120,108,7.0,100.0
349,72.0,0,588,0.0,100.0
350,67.0,0,216,8.0,100.0
351,58.0,0,216,5.0,100.0
352,48.0,0,216,10.0,100.0
353,36.0,0,216,10.0,100.0
354,60.0,0,216,3.0,100.0
355,67.0,0,108,7.0,100.0
356,74.0,0,108,0.0,100.0
357,67.0,0,108,2.0,100.0
358,70.0,0,108,4.0,100.0
359,74.0,120,108,6.0,100.0
360,72.0,0,108,6.0,100.0
361,48.0,0,108,3.0,100.0
362,72.0,0,108,0.0,100.0
363,60.0,0,108,7.0,100.0
364,60.0,0,108,2.0,100.0
365,64.0,0,108,4.0,100.0
366,24.0,0,216,10.0,100.0
367,36.0,0,216,10.0,100.0
368,64.0,0,216,8.0,100.0
369,55.0,120,216,5.0,100.0
370,67.0,0,108,4.0,100.0
371,64.0,0,108,2.0,100.0
372,74.0,120,108,0.0,100.0
373,74.0,0,108,6.0,100.0
374,64.0,0,108,7.0,100.0
375,46.0,0,108,3.0,100.0
376,72.0,0,108,4.0,100.0
377,45.0,120,108,3.0,100.0
378,65.0,0,108,7.0,100.0
379,65.0,0,108,2.0,100.0
380,48.0,0,588,1.0,100.0
381,60.0,0,216,8.0,100.0
382,57.0,0,216,5.0,100.0
383,53.0,120,108,1.0,100.0
384,41.0,0,108,3.0,100.0
385,69.0,0,108,7.0,100.0
386,69.0,0,108,2.0,100.0
387,60.0,0,108,4.0,100.0
388,45.0,0,108,1.0,100.0
389,65.0,0,108,4.0,100.0
390,60.0,0,108,2.0,100.0
391,53.0,0,108,5.0,100.0
392,60.0,0,108,7.0,100.0
393,45.0,120,108,3.0,100.0
394,36.0,0,216,10.0,100.0
395,48.0,0,216,10.0,100.0
396,69.0,0,216,8.0,100.0
397,41.0,0,108,3.0,100.0
398,48.0,0,108,5.0,100.0
399,65.0,0,108,2.0,100.0
400,48.0,0,108,1.0,100.0
401,69.0,0,108,4.0,100.0
402,65.0,120,108,7.0,100.0
403,64.0,120,108,2.0,100.0
404,64.0,0,108,7.0,100.0
405,60.0,0,216,5.0,100.0
406,36.0,0,216,10.0,100.0
407,36.0,0,216,1.0,100.0
408,48.0,0,216,10.0,100.0
409,67.0,0,216,4.0,100.0
410,48.0,0,216,3.0,100.0
411,67.0,0,108,2.0,100.0
412,67.0,120,108,7.0,100.0
413,60.0,0,108,2.0,100.0
414,67.0,0,432,8.0,100.0
415,72.0,0,912,6.0,100.0
416,72.0,0,912,0.0,100.0
417,36.0,0,216,10.0,100.0
418,60.0,0,216,7.0,100.0
419,55.0,0,216,1.0,100.0
420,24.0,120,216,10.0,100.0
421,64.0,120,108,2.0,100.0
422,69.0,0,108,2.0,100.0
423,52.0,120,216,1.0,100.0
424,72.0,120,108,2.0,100.0
425,76.0,0,54,0.0,100.0
426,64.0,0,108,2.0,100.0
427,74.0,60,54,0.0,100.0
428,72.0,60,54,0.0,100.0
429,45.0,0,216,10.0,100.0
430,33.0,120,216,10.0,100.0
431,67.0,0,108,2.0,100.0
432,71.0,60,54,0.0,100.0
433,69.0,0,54,0.0,100.0
434,66.0,60,108,2.0,100.0
435,67.0,60,54,0.0,100.0
436,66.0,60,54,0.0,100.0
437,57.0,0,456,3.0,100.0
438,38.0,0,216,10.0,100.0
439,60.0,0,456,1.0,100.0
440,50.0,0,216,10.0,100.0
441,69.0,0,108,2.0,100.0
442,64.0,60,54,0.0,100.0
443,62.0,0,108,2.0,100.0
444,26.0,0,216,10.0,100.0
445,72.0,0,216,0.0,100.0
446,54.0,0,216,3.0,100.0
447,57.0,0,216,1.0,100.0
448,38.0,60,216,10.0,100.0
449,66.0,120,108,2.0,100.0
450,71.0,0,108,2.0,100.0
451,50.0,120,216,3.0,100.0
452,54.0,0,216,1.0,100.0
453,74.0,120,108,2.0,100.0
454,78.0,0,54,0.0,100.0
455,66.0,0,108,2.0,100.0
456,76.0,60,54,0.0,100.0
457,74.0,60,54,0.0,100.0
458,35.0,0,216,10.0,100.0
459,47.0,0,216,10.0,100.0
460,69.0,0,108,2.0,100.0
461,72.0,60,54,0.0,100.0
462,71.0,60,54,0.0,100.0
463,67.0,0,108,2.0,100.0
464,69.0,60,54,0.0,100.0
465,67.0,60,54,0.0,100.0
466,59.0,0,456,3.0,100.0
467,62.0,120,456,1.0,100.0
468,40.0,0,216,10.0,100.0
469,52.0,0,216,10.0,100.0
470,71.0,0,108,2.0,100.0
471,66.0,60,54,0.0,100.0
472,64.0,0,108,2.0,100.0
473,74.0,0,216,0.0,100.0
474,55.0,60,216,3.0,100.0
475,28.0,0,216,10.0,100.0
476,59.0,0,216,1.0,100.0
477,40.0,0,216,10.0,100.0
478,67.0,120,108,2.0,100.0
479,72.0,120,108,2.0,100.0
480,52.0,0,216,3.0,100.0
481,55.0,0,216,1.0,100.0
482,76.0,120,108,2.0,100.0
483,79.0,0,54,0.0,100.0
484,67.0,0,108,2.0,100.0
485,78.0,60,54,0.0,100.0
486,76.0,0,54,0.0,100.0
487,40.0,0,216,10.0,100.0
488,52.0,0,216,10.0,100.0
489,71.0,60,108,2.0,100.0
490,74.0,60,54,0.0,100.0
491,72.0,0,54,0.0,100.0
492,69.0,0,108,2.0,100.0
493,71.0,60,54,0.0,100.0
494,69.0,60,54,0.0,100.0
495,42.0,0,216,10.0,100.0
496,60.0,0,456,3.0,100.0
497,54.0,60,216,10.0,100.0
498,64.0,120,456,1.0,100.0
499,72.0,0,108,2.0,100.0
500,67.0,60,54,0.0,100.0
501,72.0,0,54,0.0,100.0
502,66.0,0,108,2.0,100.0
503,71.0,60,54,0.0,100.0
504,69.0,0,54,0.0,100.0
505,30.0,0,216,10.0,100.0
506,42.0,0,216,10.0,100.0
507,60.0,60,216,1.0,100.0
508,57.0,0,216,3.0,100.0
509,69.0,60,108,2.0,100.0
510,67.0,60,54,0.0,100.0
511,74.0,60,108,2.0,100.0
512,54.0,0,216,3.0,100.0
513,57.0,0,216,1.0,100.0
514,72.0,0,216,0.0,100.0
515,78.0,120,108,2.0,100.0
516,69.0,0,108,2.0,100.0
517,50.0,0,216,10.0,100.0
518,38.0,0,216,10.0,100.0
519,66.0,0,216,1.0,100.0
520,72.0,120,108,2.0,100.0
521,62.0,120,348,3.0,100.0
522,71.0,0,216,2.0,100.0
523,67.0,0,216,1.0,100.0
524,60.0,120,108,3.0,100.0
525,59.0,120,108,3.0,100.0
526,67.0,0,108,0.0,100.0
527,67.0,0,108,6.0,100.0
528,62.0,0,216,1.0,100.0
529,66.0,0,108,0.0,100.0
530,57.0,120,108,3.0,100.0
531,66.0,0,108,6.0,100.0
532,67.0,0,108,6.0,100.0
533,67.0,120,108,0.0,100.0
534,55.0,0,216,3.0,100.0
535,59.0,0,216,1.0,100.0
536,69.0,120,108,6.0,100.0
537,69.0,0,108,0.0,100.0
538,71.0,0,108,0.0,100.0
539,71.0,0,108,6.0,100.0
540,55.0,120,864,10.0,100.0
541,43.0,0,864,10.0,100.0
542,55.0,0,864,5.0,100.0
543,55.0,120,216,1.0,100.0
544,72.0,120,108,0.0,100.0
545,72.0,0,108,6.0,100.0
546,74.0,0,108,6.0,100.0
547,62.0,0,348,3.0,100.0
548,74.0,0,108,0.0,100.0
549,55.0,0,108,3.0,100.0
550,73.0,0,108,0.0,100.0
551,73.0,120,108,6.0,100.0
552,74.0,0,108,6.0,100.0
553,74.0,0,108,0.0,100.0
554,54.0,0,108,3.0,100.0
555,62.0,120,216,1.0,100.0
556,69.0,0,216,2.0,100.0
557,69.0,0,216,7.0,100.0
558,76.0,120,108,6.0,100.0
559,76.0,0,108,0.0,100.0
560,52.0,0,108,3.0,100.0
561,78.0,0,108,0.0,100.0
562,78.0,0,108,6.0,100.0
563,74.0,0,216,2.0,100.0
564,50.0,120,216,3.0,100.0
565,57.0,0,216,1.0,100.0
566,74.0,0,216,7.0,100.0
567,76.0,120,108,0.0,100.0
568,76.0,0,108,6.0,100.0
569,78.0,0,108,6.0,100.0
570,78.0,120,108,0.0,100.0
571,42.0,120,864,10.0,100.0
572,54.0,0,864,5.0,100.0
573,54.0,0,864,10.0,100.0
574,62.0,0,216,3.0,100.0
575,74.0,0,216,7.0,100.0
576,74.0,0,216,2.0,100.0
577,54.0,0,216,1.0,100.0
578,74.0,120,108,6.0,100.0
579,74.0,0,108,0.0,100.0
580,79.0,0,108,6.0,100.0
581,64.0,0,108,3.0,100.0
582,79.0,0,108,0.0,100.0
583,74.0,0,216,2.0,100.0
584,74.0,0,216,7.0,100.0
585,62.0,0,108,3.0,100.0
586,78.0,0,108,6.0,100.0
587,78.0,120,108,0.0,100.0
588,73.0,120,108,2.0,100.0
589,73.0,0,108,7.0,100.0
590,79.0,0,108,0.0,100.0
591,64.0,0,108,3.0,100.0
592,79.0,0,108,6.0,100.0
593,64.0,0,216,1.0,100.0
594,81.0,120,108,0.0,100.0
595,71.0,0,108,7.0,100.0
596,71.0,0,108,2.0,100.0
597,81.0,0,108,6.0,100.0
598,66.0,0,108,3.0,100.0
599,79.0,0,108,6.0,100.0
600,73.0,0,108,7.0,100.0
601,73.0,0,108,2.0,100.0
602,57.0,120,108,1.0,100.0
603,79.0,0,108,0.0,100.0
604,64.0,0,108,3.0,100.0
605,66.0,0,108,3.0,100.0
606,83.0,0,108,0.0,100.0
607,74.0,0,108,2.0,100.0
608,83.0,120,108,6.0,100.0
609,74.0,0,108,7.0,100.0
610,55.0,0,108,1.0,100.0
611,54.0,0,108,1.0,100.0
612,81.0,120,108,6.0,100.0
613,71.0,0,108,7.0,100.0
614,71.0,0,108,2.0,100.0
615,62.0,0,108,3.0,100.0
616,81.0,0,108,0.0,100.0
617,52.0,0,864,10.0,100.0
618,52.0,0,864,5.0,100.0
619,40.0,120,864,10.0,100.0
620,73.0,120,108,2.0,100.0
621,79.0,0,108,0.0,100.0
622,79.0,0,108,6.0,100.0
623,55.0,0,108,1.0,100.0
624,73.0,0,108,7.0,100.0
625,64.0,0,108,3.0,100.0
626,50.0,0,108,10.0,100.0
627,74.0,0,108,7.0,100.0
628,38.0,0,108,10.0,100.0
629,78.0,120,108,6.0,100.0
630,78.0,0,108,0.0,100.0
631,50.0,0,108,5.0,100.0
632,66.0,0,108,3.0,100.0
633,74.0,0,108,2.0,100.0
634,57.0,0,216,1.0,100.0
635,52.0,120,108,10.0,100.0
636,78.0,0,108,7.0,100.0
637,78.0,0,108,2.0,100.0
638,40.0,0,108,10.0,100.0
639,81.0,0,108,6.0,100.0
640,57.0,0,108,5.0,100.0
641,81.0,0,108,0.0,100.0
642,60.0,0,108,3.0,100.0
643,74.0,0,108,0.0,100.0
644,62.0,0,108,1.0,100.0
645,79.0,0,108,7.0,100.0
646,50.0,0,108,10.0,100.0
647,59.0,0,108,5.0,100.0
648,59.0,0,108,3.0,100.0
649,74.0,120,108,6.0,100.0
650,79.0,0,108,2.0,100.0
651,38.0,0,108,10.0,100.0
652,36.0,120,108,10.0,100.0
653,60.0,0,108,1.0,100.0
654,57.0,0,108,3.0,100.0
655,81.0,0,108,2.0,100.0
656,78.0,0,108,0.0,100.0
657,48.0,0,108,10.0,100.0
658,81.0,0,108,7.0,100.0
659,78.0,0,108,6.0,100.0
660,60.0,0,108,5.0,100.0
661,62.0,0,108,5.0,100.0
662,79.0,120,108,0.0,100.0
663,79.0,0,108,6.0,100.0
664,59.0,0,216,1.0,100.0
665,47.0,0,216,10.0,100.0
666,83.0,0,216,2.0,100.0
667,83.0,0,216,7.0,100.0
668,35.0,0,216,10.0,100.0
669,83.0,0,108,6.0,100.0
670,83.0,120,108,0.0,100.0
671,67.0,0,108,5.0,100.0
672,74.0,120,108,0.0,100.0
673,59.0,0,108,5.0,100.0
674,74.0,0,108,6.0,100.0
675,43.0,0,216,10.0,100.0
676,83.0,0,216,2.0,100.0
677,83.0,0,216,7.0,100.0
678,55.0,0,216,1.0,100.0
679,31.0,0,216,10.0,100.0
680,78.0,120,108,6.0,100.0
681,78.0,0,108,0.0,100.0
682,62.0,0,108,5.0,100.0
683,74.0,0,588,8.0,100.0
684,76.0,0,108,0.0,100.0
685,74.0,0,588,4.0,100.0
686,76.0,0,108,6.0,100.0
687,55.0,0,696,3.0,100.0
688,60.0,120,216,1.0,100.0
689,83.0,0,216,7.0,100.0
690,36.0,0,216,10.0,100.0
691,48.0,0,216,10.0,100.0
692,83.0,0,216,2.0,100.0
693,79.0,0,108,6.0,100.0
694,67.0,120,108,8.0,100.0
695,79.0,0,108,0.0,100.0
696,67.0,0,108,4.0,100.0
697,57.0,0,108,3.0,100.0
698,72.0,0,108,6.0,100.0
699,81.0,0,108,7.0,100.0
700,64.0,0,108,8.0,100.0
701,81.0,0,108,2.0,100.0
702,72.0,0,108,0.0,100.0
703,64.0,120,108,4.0,100.0
704,59.0,0,216,1.0,100.0
705,35.0,0,216,10.0,100.0
706,47.0,0,216,10.0,100.0
707,67.0,0,108,8.0,100.0
708,79.0,0,108,2.0,100.0
709,76.0,0,108,6.0,100.0
710,79.0,0,108,7.0,100.0
711,67.0,0,108,4.0,100.0
712,59.0,120,108,3.0,100.0
713,76.0,0,108,0.0,100.0
714,78.0,0,108,0.0,100.0
715,78.0,0,108,6.0,100.0
716,60.0,0,588,5.0,100.0
717,81.0,0,216,2.0,100.0
718,81.0,0,216,7.0,100.0
719,33.0,0,216,10.0,100.0
720,60.0,0,216,3.0,100.0
721,57.0,120,216,1.0,100.0
722,45.0,0,216,10.0,100.0
723,81.0,120,108,6.0,100.0
724,66.0,0,108,5.0,100.0
725,81.0,0,108,0.0,100.0
726,72.0,0,108,0.0,100.0
727,72.0,0,108,6.0,100.0
728,57.0,0,108,5.0,100.0
729,81.0,0,216,2.0,100.0
730,66.0,0,216,3.0,100.0
731,30.0,0,216,10.0,100.0
732,81.0,0,216,7.0,100.0
733,54.0,120,216,1.0,100.0
734,42.0,0,216,10.0,100.0
735,60.0,0,108,5.0,100.0
736,76.0,120,108,0.0,100.0
737,76.0,0,108,6.0,100.0
738,74.0,0,108,6.0,100.0
739,72.0,0,588,8.0,100.0
740,72.0,0,588,4.0,100.0
741,74.0,0,108,0.0,100.0
742,81.0,0,216,7.0,100.0
743,81.0,0,216,2.0,100.0
744,54.0,0,216,3.0,100.0
745,78.0,0,108,0.0,100.0
746,66.0,0,108,4.0,100.0
747,78.0,120,108,6.0,100.0
748,66.0,0,108,8.0,100.0
749,62.0,0,108,4.0,100.0
750,79.0,0,108,7.0,100.0
751,71.0,0,108,6.0,100.0
752,55.0,0,108,3.0,100.0
753,47.0,0,108,10.0,100.0
754,35.0,0,108,10.0,100.0
755,59.0,0,108,1.0,100.0
756,71.0,0,108,0.0,100.0
757,62.0,0,108,8.0,100.0
758,79.0,120,108,2.0,100.0
759,78.0,0,108,7.0,100.0
760,66.0,0,108,8.0,100.0
761,66.0,120,108,4.0,100.0
762,74.0,0,108,6.0,100.0
763,45.0,0,108,10.0,100.0
764,78.0,0,108,2.0,100.0
765,57.0,0,108,1.0,100.0
766,57.0,0,108,3.0,100.0
767,74.0,0,108,0.0,100.0
768,33.0,0,108,10.0,100.0
769,76.0,120,108,6.0,100.0
770,59.0,120,588,5.0,100.0
771,76.0,0,108,0.0,100.0
772,55.0,0,216,1.0,100.0
773,31.0,0,216,10.0,100.0
774,43.0,0,216,10.0,100.0
775,59.0,0,216,3.0,100.0
776,79.0,0,108,0.0,100.0
777,64.0,120,108,5.0,100.0
778,79.0,0,108,6.0,100.0
779,71.0,0,108,0.0,100.0
780,55.0,0,108,5.0,100.0
781,71.0,0,108,6.0,100.0
782,64.0,0,216,3.0,100.0
783,52.0,0,216,1.0,100.0
784,28.0,0,216,10.0,100.0
785,40.0,120,216,10.0,100.0
786,74.0,0,108,6.0,100.0
787,74.0,0,108,0.0,100.0
788,59.0,120,108,5.0,100.0
789,72.0,0,108,0.0,100.0
790,72.0,0,108,6.0,100.0
791,71.0,0,588,8.0,100.0
792,71.0,0,588,4.0,100.0
793,57.0,0,216,1.0,100.0
794,79.0,0,696,7.0,100.0
795,79.0,0,696,2.0,100.0
796,45.0,120,216,10.0,100.0
797,33.0,0,216,10.0,100.0
798,52.0,0,216,3.0,100.0
799,64.0,0,108,8.0,100.0
800,64.0,0,108,4.0,100.0
801,76.0,0,108,6.0,100.0
802,76.0,120,108,0.0,100.0
803,69.0,0,108,0.0,100.0
804,60.0,0,108,8.0,100.0
805,69.0,0,108,6.0,100.0
806,78.0,0,108,2.0,100.0
807,60.0,0,108,4.0,100.0
808,54.0,0,108,3.0,100.0
809,78.0,0,108,7.0,100.0
810,31.0,0,216,10.0,100.0
811,55.0,0,216,1.0,100.0
812,43.0,120,216,10.0,100.0
813,72.0,120,108,6.0,100.0
814,76.0,0,108,7.0,100.0
815,64.0,0,108,4.0,100.0
816,76.0,0,108,2.0,100.0
817,55.0,0,108,3.0,100.0
818,64.0,0,108,8.0,100.0
819,72.0,0,108,0.0,100.0
820,78.0,0,54,2.0,100.0
821,74.0,0,108,6.0,100.0
822,57.0,0,588,5.0,100.0
823,57.0,0,108,3.0,100.0
824,74.0,0,108,0.0,100.0
825,79.0,60,54,2.0,100.0
826,42.0,0,216,10.0,100.0
827,54.0,0,216,1.0,100.0
828,30.0,120,216,10.0,100.0
829,62.0,0,108,5.0,100.0
830,50.0,60,108,3.0,100.0
831,78.0,0,108,6.0,100.0
832,78.0,0,108,0.0,100.0
833,81.0,0,216,2.0,100.0
834,69.0,0,108,6.0,100.0
835,54.0,0,108,3.0,100.0
836,69.0,0,108,0.0,100.0
837,54.0,0,108,5.0,100.0
838,38.0,120,216,10.0,100.0
839,50.0,0,216,1.0,100.0
840,26.0,0,216,10.0,100.0
841,72.0,0,108,0.0,100.0
842,72.0,0,108,6.0,100.0
843,57.0,120,108,5.0,100.0
844,50.0,0,108,3.0,100.0
845,78.0,0,108,2.0,100.0
846,74.0,0,108,2.0,100.0
847,71.0,0,108,6.0,100.0
848,69.0,0,588,4.0,100.0
849,71.0,0,108,0.0,100.0
850,69.0,0,588,8.0,100.0
851,55.0,120,216,3.0,100.0
852,31.0,0,216,10.0,100.0
853,43.0,0,216,10.0,100.0
854,55.0,0,216,1.0,100.0
855,74.0,0,696,7.0,100.0
856,74.0,0,108,6.0,100.0
857,62.0,0,108,8.0,100.0
858,71.0,0,108,2.0,100.0
859,74.0,0,108,0.0,100.0
860,62.0,120,108,4.0,100.0
861,67.0,0,108,0.0,100.0
862,59.0,0,108,4.0,100.0
863,59.0,0,108,8.0,100.0
864,67.0,120,108,6.0,100.0
865,67.0,0,108,2.0,100.0
866,65.0,0,216,7.0,100.0
867,59.0,0,216,3.0,100.0
868,71.0,0,108,6.0,100.0
869,65.0,0,108,1.0,100.0
870,62.0,0,108,4.0,100.0
871,62.0,0,108,8.0,100.0
872,71.0,120,108,0.0,100.0
873,62.0,0,108,2.0,100.0
874,64.0,0,108,1.0,100.0
875,55.0,0,588,5.0,100.0
876,72.0,120,108,0.0,100.0
877,72.0,0,108,6.0,100.0
878,64.0,0,108,2.0,100.0
879,64.0,0,216,7.0,100.0
880,55.0,0,216,3.0,100.0
881,76.0,0,108,0.0,100.0
882,60.0,0,108,5.0,100.0
883,60.0,120,108,1.0,100.0
884,67.0,0,108,2.0,100.0
885,76.0,0,108,6.0,100.0
886,67.0,0,108,6.0,100.0
887,60.0,0,108,2.0,100.0
888,64.0,0,108,1.0,100.0
889,67.0,0,108,0.0,100.0
890,52.0,120,108,5.0,100.0
891,55.0,0,216,10.0,100.0
892,43.0,0,216,10.0,100.0
893,76.0,0,216,7.0,100.0
894,52.0,0,216,3.0,100.0
895,72.0,0,108,6.0,100.0
896,55.0,0,108,5.0,100.0
897,72.0,0,108,0.0,100.0
898,60.0,120,108,1.0,100.0
899,64.0,0,108,2.0,100.0
900,71.0,0,108,6.0,100.0
901,67.0,0,588,4.0,100.0
902,67.0,0,588,8.0,100.0
903,62.0,120,108,2.0,100.0
904,71.0,0,108,0.0,100.0
905,55.0,0,216,10.0,100.0
906,74.0,0,216,7.0,100.0
907,67.0,0,216,1.0,100.0
908,43.0,0,216,10.0,100.0
909,53.0,0,216,3.0,100.0
910,74.0,0,108,0.0,100.0
911,65.0,120,108,2.0,100.0
912,74.0,0,108,6.0,100.0
913,69.0,0,108,4.0,100.0
914,69.0,0,108,8.0,100.0
915,67.0,0,108,6.0,100.0
916,67.0,0,108,8.0,100.0
917,67.0,0,108,4.0,100.0
918,67.0,0,108,0.0,100.0
919,55.0,0,108,1.0,100.0
920,59.0,0,108,2.0,100.0
921,43.0,0,216,10.0,100.0
922,50.0,0,216,3.0,100.0
923,31.0,120,216,10.0,100.0
924,71.0,0,216,7.0,100.0
925,62.0,120,108,2.0,100.0
926,71.0,0,108,6.0,100.0
927,71.0,0,108,0.0,100.0
928,69.0,0,108,4.0,100.0
929,69.0,0,108,8.0,100.0
930,53.0,0,108,1.0,100.0
931,60.0,0,108,2.0,100.0
932,72.0,120,108,0.0,100.0
933,52.0,0,108,1.0,100.0
934,72.0,0,108,6.0,100.0
935,43.0,0,588,5.0,100.0
936,52.0,0,216,3.0,100.0
937,67.0,0,216,7.0,100.0
938,48.0,0,108,1.0,100.0
939,76.0,0,108,0.0,100.0
940,55.0,0,108,2.0,100.0
941,76.0,120,108,6.0,100.0
942,48.0,0,108,5.0,100.0
943,67.0,0,108,0.0,100.0
944,67.0,0,108,6.0,100.0
945,60.0,0,108,2.0,100.0
946,40.0,0,108,5.0,100.0
947,52.0,0,108,1.0,100.0
948,48.0,120,108,3.0,100.0
949,43.0,0,216,10.0,100.0
950,55.0,0,216,10.0,100.0
951,76.0,0,216,7.0,100.0
952,72.0,0,108,6.0,100.0
953,43.0,0,108,5.0,100.0
954,72.0,0,108,0.0,100.0
955,48.0,120,108,1.0,100.0
956,64.0,0,108,2.0,100.0
957,43.0,0,108,3.0,100.0
958,71.0,0,108,0.0,100.0
959,55.0,120,108,1.0,100.0
960,43.0,0,216,10.0,100.0
961,67.0,0,696,4.0,100.0
962,62.0,0,216,2.0,100.0
963,74.0,0,216,7.0,100.0
964,67.0,0,696,8.0,100.0
965,31.0,0,216,5.0,100.0
966,55.0,0,216,3.0,100.0
967,55.0,0,216,10.0,100.0
968,71.0,0,216,6.0,100.0
969,74.0,120,108,0.0,100.0
970,59.0,0,108,1.0,100.0
971,61.0,0,108,1.0,100.0
972,76.0,0,108,0.0,100.0
973,53.0,120,216,10.0,100.0
974,41.0,0,216,10.0,100.0
975,77.0,0,108,0.0,100.0
976,62.0,120,108,1.0,100.0
977,52.0,120,216,10.0,100.0
978,40.0,0,216,10.0,100.0
979,71.0,120,108,2.0,100.0
980,55.0,0,108,3.0,100.0
981,57.0,0,108,3.0,100.0
982,73.0,0,108,2.0,100.0
983,50.0,0,216,10.0,100.0
984,38.0,120,216,10.0,100.0
985,74.0,0,108,2.0,100.0
986,58.0,120,108,3.0,100.0
987,79.0,0,588,0.0,100.0
988,57.0,0,216,3.0,100.0
989,64.0,0,696,1.0,100.0
990,49.0,120,216,10.0,100.0
991,76.0,0,216,2.0,100.0
992,37.0,0,216,10.0,100.0
993,81.0,120,108,0.0,100.0
994,64.0,0,108,4.0,100.0
995,65.0,0,108,4.0,100.0
996,79.0,0,108,0.0,100.0
997,38.0,0,216,10.0,100.0
998,50.0,0,216,5.0,100.0
999,57.0,0,216,1.0,100.0
1000,62.0,0,216,3.0,100.0
1001,69.0,120,216,7.0,100.0
1002,62.0,0,216,8.0,100.0
1003,50.0,0,216,10.0,100.0
1004,67.0,120,108,4.0,100.0
1005,77.0,0,108,0.0,100.0
1006,76.0,0,108,0.0,100.0
1007,74.0,0,432,2.0,100.0
1008,74.0,0,432,6.0,100.0
1009,69.0,120,216,7.0,100.0
1010,57.0,0,216,5.0,100.0
1011,45.0,0,216,10.0,100.0
1012,64.0,0,216,8.0,100.0
1013,57.0,0,216,10.0,100.0
1014,77.0,120,108,0.0,100.0
1015,62.0,0,108,4.0,100.0
1016,57.0,0,324,3.0,100.0
1017,79.0,120,108,0.0,100.0
1018,64.0,0,108,4.0,100.0
1019,69.0,0,432,4.0,100.0
1020,69.0,0,216,7.0,100.0
1021,64.0,0,216,8.0,100.0
1022,45.0,0,216,5.0,100.0
1023,45.0,0,216,10.0,100.0
1024,33.0,0,216,10.0,100.0
1025,73.0,0,216,6.0,100.0
1026,73.0,0,216,2.0,100.0
1027,76.0,0,108,0.0,100.0
1028,55.0,0,108,3.0,100.0
1029,61.0,120,108,4.0,100.0
1030,57.0,120,54,4.0,100.0
1031,53.0,0,108,3.0,100.0
1032,69.0,0,588,1.0,100.0
1033,74.0,0,108,2.0,100.0
1034,67.0,60,54,4.0,100.0
1035,65.0,0,54,4.0,100.0
1036,62.0,0,216,8.0,100.0
1037,26.0,0,216,10.0,100.0
1038,74.0,0,216,6.0,100.0
1039,38.0,0,216,10.0,100.0
1040,38.0,0,216,5.0,100.0
1041,69.0,0,216,7.0,100.0
1042,57.0,0,108,3.0,100.0
1043,73.0,60,108,2.0,100.0
1044,67.0,0,108,1.0,100.0
1045,64.0,60,54,4.0,100.0
1046,65.0,60,108,1.0,100.0
1047,59.0,0,108,3.0,100.0
1048,74.0,0,108,2.0,100.0
1049,77.0,0,432,0.0,100.0
1050,62.0,0,216,4.0,100.0
1051,45.0,0,216,10.0,100.0
1052,33.0,0,216,10.0,100.0
1053,64.0,120,108,1.0,100.0
1054,76.0,0,108,2.0,100.0
1055,61.0,0,108,3.0,100.0
1056,62.0,0,108,1.0,100.0
1057,50.0,0,216,10.0,100.0
1058,38.0,0,216,10.0,100.0
1059,69.0,120,108,0.0,100.0
1060,53.0,0,108,1.0,100.0
1061,55.0,120,108,1.0,100.0
1062,71.0,0,108,0.0,100.0
1063,36.0,0,216,10.0,100.0
1064,48.0,0,216,10.0,100.0
1065,57.0,120,108,1.0,100.0
1066,72.0,0,108,0.0,100.0
1067,77.0,0,588,2.0,100.0
1068,62.0,120,696,3.0,100.0
1069,55.0,0,216,1.0,100.0
1070,35.0,120,216,10.0,100.0
1071,47.0,0,216,10.0,100.0
1072,74.0,0,216,0.0,100.0
1073,62.0,0,108,4.0,100.0
1074,79.0,120,108,2.0,100.0
1075,77.0,0,108,2.0,100.0
1076,64.0,0,108,4.0,100.0
1077,48.0,0,216,10.0,100.0
1078,55.0,120,216,3.0,100.0
1079,36.0,0,216,10.0,100.0
1080,67.0,0,216,7.0,100.0
1081,60.0,0,216,1.0,100.0
1082,60.0,0,216,8.0,100.0
1083,45.0,0,216,5.0,100.0
1084,76.0,0,108,2.0,100.0
1085,65.0,120,108,4.0,100.0
1086,74.0,0,108,2.0,100.0
1087,72.0,0,432,0.0,100.0
1088,72.0,0,432,6.0,100.0
1089,67.0,0,216,7.0,100.0
1090,55.0,0,216,5.0,100.0
1091,62.0,0,216,8.0,100.0
1092,55.0,0,216,10.0,100.0
1093,43.0,0,216,10.0,100.0
1094,60.0,0,108,4.0,100.0
1095,76.0,120,108,2.0,100.0
1096,55.0,0,324,1.0,100.0
1097,77.0,0,108,2.0,100.0
1098,62.0,120,108,4.0,100.0
1099,67.0,0,432,4.0,100.0
1100,67.0,0,216,7.0,100.0
1101,71.0,0,216,6.0,100.0
1102,62.0,0,216,8.0,100.0
1103,43.0,0,216,10.0,100.0
1104,71.0,0,216,0.0,100.0
1105,43.0,0,216,5.0,100.0
1106,31.0,0,216,10.0,100.0
1107,53.0,120,108,1.0,100.0
1108,59.0,0,108,4.0,100.0
1109,74.0,0,108,2.0,100.0
1110,55.0,120,54,4.0,100.0
1111,72.0,0,108,0.0,100.0
1112,52.0,0,108,1.0,100.0
1113,36.0,0,108,5.0,100.0
1114,67.0,120,588,3.0,100.0
1115,65.0,60,54,4.0,100.0
1116,64.0,60,54,4.0,100.0
1117,60.0,0,216,8.0,100.0
1118,72.0,0,216,6.0,100.0
1119,67.0,0,216,7.0,100.0
1120,36.0,0,216,10.0,100.0
1121,48.0,0,216,10.0,100.0
1122,55.0,0,108,1.0,100.0
1123,55.0,0,108,3.0,100.0
1124,71.0,0,108,0.0,100.0
1125,55.0,0,108,5.0,100.0
1126,62.0,60,54,4.0,100.0
1127,57.0,0,108,3.0,100.0
1128,57.0,60,108,5.0,100.0
1129,72.0,0,108,0.0,100.0
1130,57.0,0,108,1.0,100.0
1131,35.0,0,216,10.0,100.0
1132,60.0,0,216,4.0,100.0
1133,47.0,0,216,10.0,100.0
1134,59.0,0,108,5.0,100.0
1135,59.0,120,108,1.0,100.0
1136,74.0,0,108,0.0,100.0
1137,59.0,0,108,3.0,100.0
1138,76.0,0,108,0.0,100.0
1139,76.0,0,588,2.0,100.0
1140,45.0,0,216,10.0,100.0
1141,33.0,120,216,10.0,100.0
1142,74.0,0,108,0.0,100.0
1143,76.0,120,108,2.0,100.0
1144,72.0,0,108,0.0,100.0
1145,78.0,0,108,2.0,100.0
1146,31.0,0,216,10.0,100.0
1147,43.0,120,216,10.0,100.0
1148,79.0,0,108,2.0,100.0
1149,71.0,120,108,0.0,100.0
1150,69.0,0,108,0.0,100.0
1151,60.0,0,588,3.0,100.0
1152,60.0,0,588,1.0,100.0
1153,60.0,0,588,5.0,100.0
1154,81.0,0,216,2.0,100.0
1155,30.0,0,216,10.0,100.0
1156,42.0,120,216,10.0,100.0
1157,66.0,120,108,0.0,100.0
1158,62.0,0,108,3.0,100.0
1159,62.0,0,108,1.0,100.0
1160,62.0,0,108,5.0,100.0
1161,59.0,0,108,1.0,100.0
1162,59.0,120,108,3.0,100.0
1163,59.0,0,108,5.0,100.0
1164,31.0,0,216,10.0,100.0
1165,67.0,0,216,7.0,100.0
1166,62.0,0,216,8.0,100.0
1167,43.0,0,216,10.0,100.0
1168,60.0,120,108,1.0,100.0
1169,60.0,0,108,5.0,100.0
1170,60.0,0,108,3.0,100.0
1171,57.0,0,108,1.0,100.0
1172,57.0,0,108,3.0,100.0
1173,74.0,0,348,0.0,100.0
1174,57.0,0,108,5.0,100.0
1175,72.0,0,54,0.0,100.0
1176,79.0,0,432,2.0,100.0
1177,79.0,0,432,6.0,100.0
1178,62.0,0,216,8.0,100.0
1179,38.0,0,216,10.0,100.0
1180,50.0,0,216,10.0,100.0
1181,69.0,120,216,7.0,100.0
1182,59.0,0,108,3.0,100.0
1183,59.0,0,108,5.0,100.0
1184,59.0,120,108,1.0,100.0
1185,71.0,60,54,0.0,100.0
1186,69.0,60,54,0.0,100.0
1187,60.0,0,108,1.0,100.0
1188,60.0,0,108,5.0,100.0
1189,60.0,0,108,3.0,100.0
1190,67.0,60,54,0.0,100.0
1191,66.0,0,54,0.0,100.0
1192,62.0,0,216,8.0,100.0
1193,69.0,0,216,7.0,100.0
1194,38.0,0,216,10.0,100.0
1195,78.0,0,216,2.0,100.0
1196,26.0,0,216,10.0,100.0
1197,78.0,0,216,6.0,100.0
1198,57.0,0,108,5.0,100.0
1199,57.0,60,108,3.0,100.0
1200,57.0,0,108,1.0,100.0
1201,64.0,60,54,0.0,100.0
1202,59.0,60,108,3.0,100.0
1203,62.0,0,108,0.0,100.0
1204,59.0,0,108,5.0,100.0
1205,79.0,0,108,6.0,100.0
1206,59.0,0,108,1.0,100.0
1207,31.0,0,216,10.0,100.0
1208,43.0,0,216,10.0,100.0
1209,62.0,0,216,8.0,100.0
1210,79.0,0,216,2.0,100.0
1211,67.0,0,216,7.0,100.0
1212,62.0,0,108,5.0,100.0
1213,71.0,0,108,0.0,100.0
1214,77.0,0,108,4.0,100.0
1215,71.0,0,108,6.0,100.0
1216,62.0,0,108,3.0,100.0
1217,62.0,120,108,1.0,100.0
1218,55.0,120,108,1.0,100.0
1219,43.0,0,108,10.0,100.0
1220,72.0,0,108,6.0,100.0
1221,76.0,0,108,4.0,100.0
1222,55.0,0,108,3.0,100.0
1223,55.0,0,108,10.0,100.0
1224,55.0,0,108,5.0,100.0
1225,72.0,0,108,0.0,100.0
1226,67.0,0,216,2.0,100.0
1227,59.0,0,108,3.0,100.0
1228,53.0,0,108,10.0,100.0
1229,59.0,0,108,1.0,100.0
1230,59.0,0,108,5.0,100.0
1231,74.0,0,108,4.0,100.0
1232,74.0,120,108,0.0,100.0
1233,74.0,0,108,6.0,100.0
1234,41.0,0,108,10.0,100.0
1235,60.0,0,108,1.0,100.0
1236,60.0,0,108,5.0,100.0
1237,72.0,120,108,4.0,100.0
1238,60.0,0,108,3.0,100.0
1239,52.0,0,216,10.0,100.0
1240,76.0,0,216,6.0,100.0
1241,40.0,0,216,10.0,100.0
1242,76.0,0,216,0.0,100.0
1243,64.0,120,108,1.0,100.0
1244,64.0,0,108,3.0,100.0
1245,64.0,0,108,5.0,100.0
1246,67.0,0,108,4.0,100.0
1247,55.0,0,108,5.0,100.0
1248,64.0,0,108,4.0,100.0
1249,55.0,120,108,3.0,100.0
1250,55.0,0,108,1.0,100.0
1251,76.0,0,216,0.0,100.0
1252,36.0,0,216,10.0,100.0
1253,48.0,0,216,10.0,100.0
1254,64.0,0,216,8.0,100.0
1255,76.0,0,216,6.0,100.0
1256,67.0,120,108,4.0,100.0
1257,59.0,0,108,5.0,100.0
1258,59.0,0,108,1.0,100.0
1259,59.0,0,108,3.0,100.0
1260,57.0,0,108,3.0,100.0
1261,79.0,0,588,7.0,100.0
1262,57.0,0,108,1.0,100.0
1263,57.0,120,108,5.0,100.0
1264,79.0,0,588,2.0,100.0
1265,60.0,0,216,4.0,100.0
1266,76.0,0,216,0.0,100.0
1267,53.0,0,216,10.0,100.0
1268,41.0,0,216,10.0,100.0
1269,76.0,0,216,6.0,100.0
1270,69.0,0,216,8.0,100.0
1271,72.0,0,108,2.0,100.0
1272,60.0,0,108,1.0,100.0
1273,60.0,0,108,5.0,100.0
1274,72.0,0,108,7.0,100.0
1275,60.0,120,108,3.0,100.0
1276,74.0,0,108,6.0,100.0
1277,53.0,0,108,1.0,100.0
1278,69.0,0,108,2.0,100.0
1279,69.0,0,108,7.0,100.0
1280,74.0,0,108,0.0,100.0
1281,53.0,0,108,3.0,100.0
1282,53.0,0,108,5.0,100.0
1283,40.0,0,216,10.0,100.0
1284,72.0,0,216,4.0,100.0
1285,52.0,120,216,10.0,100.0
1286,72.0,0,108,0.0,100.0
1287,72.0,0,108,2.0,100.0
1288,57.0,120,108,5.0,100.0
1289,72.0,0,108,6.0,100.0
1290,57.0,0,108,3.0,100.0
1291,57.0,0,108,1.0,100.0
1292,72.0,0,108,7.0,100.0
1293,59.0,0,108,3.0,100.0
1294,59.0,0,108,1.0,100.0
1295,59.0,0,108,5.0,100.0
1296,38.0,0,216,10.0,100.0
1297,50.0,0,216,10.0,100.0
1298,74.0,0,216,0.0,100.0
1299,74.0,0,216,6.0,100.0
1300,62.0,0,108,3.0,100.0
1301,62.0,0,108,1.0,100.0
1302,65.0,0,108,4.0,100.0
1303,62.0,120,108,5.0,100.0
1304,53.0,0,108,5.0,100.0
1305,53.0,0,108,3.0,100.0
1306,62.0,0,108,4.0,100.0
1307,53.0,120,108,1.0,100.0
1308,62.0,0,216,8.0,100.0
1309,74.0,0,216,0.0,100.0
1310,35.0,0,216,10.0,100.0
1311,74.0,0,216,6.0,100.0
1312,47.0,0,216,10.0,100.0
1313,57.0,120,108,1.0,100.0
1314,57.0,0,108,3.0,100.0
1315,57.0,0,108,5.0,100.0
1316,65.0,0,108,4.0,100.0
1317,55.0,0,108,1.0,100.0
1318,55.0,0,108,5.0,100.0
1319,77.0,0,588,7.0,100.0
1320,55.0,120,108,3.0,100.0
1321,77.0,120,588,2.0,100.0
1322,74.0,0,216,0.0,100.0
1323,59.0,0,216,4.0,100.0
1324,74.0,0,216,6.0,100.0
1325,67.0,0,216,8.0,100.0
1326,59.0,120,108,1.0,100.0
1327,59.0,0,108,5.0,100.0
1328,59.0,0,108,3.0,100.0
1329,71.0,0,108,2.0,100.0
1330,71.0,0,108,7.0,100.0
1331,52.0,0,108,5.0,100.0
1332,52.0,120,108,3.0,100.0
1333,40.0,0,108,10.0,100.0
1334,67.0,0,108,2.0,100.0
1335,72.0,0,108,0.0,100.0
1336,52.0,0,108,1.0,100.0
1337,67.0,0,108,7.0,100.0
1338,72.0,0,108,6.0,100.0
1339,52.0,0,108,10.0,100.0
1340,71.0,0,216,4.0,100.0
1341,55.0,0,108,1.0,100.0
1342,55.0,0,108,5.0,100.0
1343,55.0,120,108,3.0,100.0
1344,71.0,0,108,2.0,100.0
1345,71.0,0,108,0.0,100.0
1346,50.0,0,108,10.0,100.0
1347,38.0,0,108,10.0,100.0
1348,71.0,0,108,7.0,100.0
1349,71.0,0,108,6.0,100.0
1350,57.0,0,108,3.0,100.0
1351,57.0,0,108,1.0,100.0
1352,57.0,120,108,5.0,100.0
1353,48.0,0,216,10.0,100.0
1354,36.0,0,216,10.0,100.0
1355,64.0,0,108,4.0,100.0
1356,60.0,0,108,3.0,100.0
1357,60.0,0,108,5.0,100.0
1358,60.0,120,108,1.0,100.0
1359,52.0,0,108,3.0,100.0
1360,60.0,0,108,4.0,100.0
1361,52.0,0,108,1.0,100.0
1362,52.0,0,108,5.0,100.0
1363,33.0,0,216,10.0,100.0
1364,60.0,120,216,8.0,100.0
1365,45.0,0,216,10.0,100.0
1366,55.0,0,108,3.0,100.0
1367,55.0,0,108,5.0,100.0
1368,55.0,0,108,1.0,100.0
1369,64.0,120,108,4.0,100.0
1370,53.0,0,108,3.0,100.0
1371,76.0,0,588,2.0,100.0
1372,76.0,0,588,7.0,100.0
1373,53.0,120,108,5.0,100.0
1374,53.0,0,108,1.0,100.0
1375,50.0,0,216,10.0,100.0
1376,65.0,0,216,8.0,100.0
1377,57.0,0,216,4.0,100.0
1378,38.0,0,216,10.0,100.0
1379,72.0,0,696,6.0,100.0
1380,72.0,0,696,0.0,100.0
1381,69.0,0,108,7.0,100.0
1382,57.0,0,108,5.0,100.0
1383,69.0,0,108,2.0,100.0
1384,57.0,0,108,1.0,100.0
1385,57.0,120,108,3.0,100.0
1386,50.0,0,108,1.0,100.0
1387,50.0,0,108,5.0,100.0
1388,71.0,120,108,0.0,100.0
1389,50.0,0,108,3.0,100.0
1390,65.0,0,108,7.0,100.0
1391,71.0,0,108,6.0,100.0
1392,65.0,0,108,2.0,100.0
1393,48.0,0,216,10.0,100.0
1394,69.0,0,216,4.0,100.0
1395,36.0,0,216,10.0,100.0
1396,53.0,0,108,1.0,100.0
1397,69.0,0,108,7.0,100.0
1398,69.0,0,108,0.0,100.0
1399,53.0,0,108,5.0,100.0
1400,69.0,120,108,2.0,100.0
1401,69.0,0,108,6.0,100.0
1402,53.0,0,108,3.0,100.0
1403,55.0,120,108,3.0,100.0
1404,55.0,0,108,1.0,100.0
1405,55.0,0,108,5.0,100.0
1406,71.0,0,108,0.0,100.0
1407,47.0,0,216,10.0,100.0
1408,35.0,0,216,10.0,100.0
1409,59.0,0,108,3.0,100.0
1410,59.0,0,108,5.0,100.0
1411,59.0,0,108,1.0,100.0
1412,62.0,0,108,4.0,100.0
1413,74.0,120,108,0.0,100.0
1414,50.0,0,108,5.0,100.0
1415,50.0,120,108,1.0,100.0
1416,59.0,0,108,4.0,100.0
1417,50.0,0,108,3.0,100.0
1418,31.0,0,216,10.0,100.0
1419,59.0,0,216,8.0,100.0
1420,43.0,0,216,10.0,100.0
1421,62.0,0,108,4.0,100.0
1422,53.0,120,108,3.0,100.0
1423,53.0,0,108,5.0,100.0
1424,53.0,0,108,1.0,100.0
1425,74.0,0,588,7.0,100.0
1426,74.0,0,588,2.0,100.0
1427,52.0,0,108,5.0,100.0
1428,52.0,0,108,3.0,100.0
1429,79.0,0,348,0.0,100.0
1430,52.0,0,108,1.0,100.0
1431,55.0,120,216,4.0,100.0
1432,64.0,0,216,8.0,100.0
1433,48.0,0,216,10.0,100.0
1434,67.0,0,696,6.0,100.0
1435,36.0,0,216,10.0,100.0
1436,67.0,0,108,7.0,100.0
1437,55.0,120,108,1.0,100.0
1438,76.0,0,108,0.0,100.0
1439,55.0,0,108,5.0,100.0
1440,55.0,0,108,3.0,100.0
1441,67.0,0,108,2.0,100.0
1442,72.0,0,108,6.0,100.0
1443,64.0,0,108,7.0,100.0
1444,64.0,0,108,2.0,100.0
1445,72.0,0,108,0.0,100.0
1446,48.0,0,108,3.0,100.0
1447,48.0,120,108,1.0,100.0
1448,48.0,0,108,5.0,100.0
1449,24.0,0,216,10.0,100.0
1450,55.0,0,216,8.0,100.0
1451,67.0,0,216,4.0,100.0
1452,36.0,0,216,10.0,100.0
1453,67.0,0,108,7.0,100.0
1454,67.0,0,108,0.0,100.0
1455,52.0,0,108,1.0,100.0
1456,70.0,0,108,6.0,100.0
1457,67.0,0,108,2.0,100.0
1458,52.0,0,108,5.0,100.0
1459,52.0,120,108,3.0,100.0
1460,69.0,0,108,6.0,100.0
1461,53.0,0,108,3.0,100.0
1462,53.0,0,108,1.0,100.0
1463,53.0,0,108,5.0,100.0
1464,69.0,120,108,0.0,100.0
1465,24.0,0,216,10.0,100.0
1466,36.0,0,216,10.0,100.0
1467,57.0,0,216,8.0,100.0
1468,72.0,0,108,4.0,100.0
1469,57.0,0,108,3.0,100.0
1470,57.0,0,108,5.0,100.0
1471,72.0,0,108,0.0,100.0
1472,57.0,120,108,1.0,100.0
1473,72.0,0,108,6.0,100.0
1474,48.0,120,108,3.0,100.0
1475,69.0,0,108,4.0,100.0
1476,48.0,0,108,5.0,100.0
1477,65.0,0,108,6.0,100.0
1478,65.0,0,108,0.0,100.0
1479,48.0,0,108,1.0,100.0
1480,36.0,0,216,10.0,100.0
1481,60.0,0,216,8.0,100.0
1482,48.0,0,216,10.0,100.0
1483,69.0,0,108,6.0,100.0
1484,69.0,120,108,0.0,100.0
1485,53.0,0,108,5.0,100.0
1486,53.0,0,108,1.0,100.0
1487,65.0,0,108,4.0,100.0
1488,53.0,0,108,3.0,100.0
1489,52.0,0,108,3.0,100.0
1490,72.0,0,588,7.0,100.0
1491,67.0,120,108,6.0,100.0
1492,67.0,0,108,0.0,100.0
1493,72.0,0,588,2.0,100.0
1494,52.0,0,108,5.0,100.0
1495,52.0,0,108,1.0,100.0
1496,48.0,0,216,10.0,100.0
1497,64.0,0,216,8.0,100.0
1498,36.0,0,216,10.0,100.0
1499,67.0,0,216,4.0,100.0
1500,74.0,120,108,2.0,100.0
1501,55.0,0,108,1.0,100.0
1502,74.0,0,108,7.0,100.0
1503,70.0,0,108,0.0,100.0
1504,70.0,0,108,6.0,100.0
1505,55.0,0,108,3.0,100.0
1506,55.0,0,108,5.0,100.0
1507,72.0,0,108,2.0,100.0
1508,64.0,0,108,0.0,100.0
1509,48.0,0,108,1.0,100.0
1510,48.0,0,108,5.0,100.0
1511,64.0,0,108,6.0,100.0
1512,48.0,0,108,3.0,100.0
1513,72.0,0,108,7.0,100.0
1514,24.0,0,216,10.0,100.0
1515,72.0,120,216,4.0,100.0
1516,67.0,0,216,8.0,100.0
1517,36.0,0,216,10.0,100.0
1518,67.0,120,108,6.0,100.0
1519,74.0,0,108,2.0,100.0
1520,52.0,0,108,3.0,100.0
1521,67.0,0,108,0.0,100.0
1522,74.0,0,108,7.0,100.0
1523,52.0,0,108,5.0,100.0
1524,52.0,0,108,1.0,100.0
1525,53.0,0,108,5.0,100.0
1526,72.0,0,108,0.0,100.0
1527,53.0,0,108,1.0,100.0
1528,72.0,0,108,6.0,100.0
1529,53.0,0,108,3.0,100.0
1530,24.0,0,216,10.0,100.0
1531,36.0,0,216,10.0,100.0
1532,69.0,0,216,8.0,100.0
1533,60.0,0,108,6.0,100.0
1534,72.0,0,108,4.0,100.0
1535,57.0,120,108,5.0,100.0
1536,57.0,0,108,1.0,100.0
1537,57.0,0,108,3.0,100.0
1538,60.0,0,108,0.0,100.0
1539,65.0,0,108,0.0,100.0
1540,48.0,0,108,3.0,100.0
1541,65.0,0,108,6.0,100.0
1542,48.0,120,108,1.0,100.0
1543,69.0,0,108,4.0,100.0
1544,48.0,0,108,5.0,100.0
1545,48.0,0,216,10.0,100.0
1546,72.0,0,216,8.0,100.0
1547,36.0,0,216,10.0,100.0
1548,53.0,0,108,3.0,100.0
1549,65.0,0,108,4.0,100.0
1550,69.0,0,108,6.0,100.0
1551,53.0,0,108,5.0,100.0
1552,69.0,120,108,0.0,100.0
1553,53.0,0,108,1.0,100.0
1554,67.0,0,108,4.0,100.0
1555,67.0,0,108,6.0,100.0
1556,67.0,0,108,0.0,100.0
1557,52.0,0,108,5.0,100.0
1558,52.0,0,108,1.0,100.0
1559,52.0,0,216,3.0,100.0
1560,72.0,120,696,7.0,100.0
1561,72.0,0,696,2.0,100.0
1562,60.0,0,216,8.0,100.0
1563,64.0,0,108,4.0,100.0
1564,55.0,0,108,1.0,100.0
1565,64.0,0,108,0.0,100.0
1566,64.0,0,108,6.0,100.0
1567,48.0,120,108,5.0,100.0
1568,52.0,120,108,1.0,100.0
1569,60.0,0,108,6.0,100.0
1570,60.0,0,108,4.0,100.0
1571,60.0,0,108,0.0,100.0
1572,52.0,0,108,5.0,100.0
1573,60.0,0,108,2.0,100.0
1574,64.0,0,216,7.0,100.0
1575,55.0,0,216,3.0,100.0
1576,55.0,0,216,8.0,100.0
1577,59.0,0,108,6.0,100.0
1578,59.0,120,108,0.0,100.0
1579,59.0,0,108,2.0,100.0
1580,59.0,0,108,4.0,100.0
1581,50.0,0,108,5.0,100.0
1582,55.0,0,108,1.0,100.0
1583,52.0,0,108,5.0,100.0
1584,60.0,0,108,0.0,100.0
1585,60.0,0,108,6.0,100.0
1586,60.0,0,108,4.0,100.0
1587,60.0,0,108,2.0,100.0
1588,52.0,0,216,3.0,100.0
1589,60.0,0,216,8.0,100.0
1590,48.0,0,216,1.0,100.0
1591,67.0,120,216,7.0,100.0
1592,62.0,0,108,6.0,100.0
1593,62.0,0,108,4.0,100.0
1594,62.0,120,108,0.0,100.0
1595,62.0,0,108,2.0,100.0
1596,53.0,0,108,5.0,100.0
1597,64.0,0,108,2.0,100.0
1598,55.0,0,108,5.0,100.0
1599,64.0,0,108,4.0,100.0
1600,64.0,0,108,6.0,100.0
1601,64.0,0,108,0.0,100.0
1602,48.0,0,864,10.0,100.0
1603,36.0,120,864,10.0,100.0
1604,48.0,0,216,3.0,100.0
1605,55.0,120,216,8.0,100.0
1606,72.0,0,216,7.0,100.0
1607,65.0,120,108,4.0,100.0
1608,65.0,0,108,2.0,100.0
1609,57.0,0,108,5.0,100.0
1610,65.0,0,108,0.0,100.0
1611,65.0,0,108,6.0,100.0
1612,67.0,0,108,2.0,100.0
1613,67.0,0,108,4.0,100.0
1614,59.0,0,108,5.0,100.0
1615,67.0,0,108,6.0,100.0
1616,67.0,0,108,0.0,100.0
1617,66.0,0,108,6.0,100.0
1618,66.0,0,108,2.0,100.0
1619,57.0,0,108,5.0,100.0
1620,66.0,120,108,0.0,100.0
1621,66.0,0,108,4.0,100.0
1622,67.0,0,108,0.0,100.0
1623,67.0,0,108,4.0,100.0
1624,67.0,0,108,2.0,100.0
1625,67.0,0,108,7.0,100.0
1626,59.0,120,108,5.0,100.0
1627,67.0,0,108,6.0,100.0
1628,59.0,0,216,8.0,100.0
1629,50.0,0,216,1.0,100.0
1630,50.0,0,216,3.0,100.0
1631,66.0,0,108,7.0,100.0
1632,69.0,0,108,2.0,100.0
1633,69.0,0,108,0.0,100.0
1634,69.0,0,108,4.0,100.0
1635,69.0,120,108,6.0,100.0
1636,60.0,0,108,5.0,100.0
1637,71.0,0,108,2.0,100.0
1638,71.0,0,108,0.0,100.0
1639,62.0,0,108,5.0,100.0
1640,71.0,120,108,4.0,100.0
1641,71.0,0,108,6.0,100.0
1642,67.0,0,216,7.0,100.0
1643,55.0,0,216,1.0,100.0
1644,62.0,0,216,8.0,100.0
1645,47.0,0,216,3.0,100.0
1646,69.0,0,108,4.0,100.0
1647,69.0,0,108,6.0,100.0
1648,69.0,0,108,0.0,100.0
1649,69.0,0,108,2.0,100.0
1650,60.0,120,108,5.0,100.0
1651,71.0,0,108,4.0,100.0
1652,62.0,0,108,5.0,100.0
1653,71.0,120,108,0.0,100.0
1654,71.0,0,108,2.0,100.0
1655,71.0,0,108,6.0,100.0
1656,47.0,120,864,10.0,100.0
1657,35.0,0,864,10.0,100.0
1658,67.0,0,216,8.0,100.0
1659,43.0,0,216,3.0,100.0
1660,62.0,0,216,7.0,100.0
1661,55.0,0,216,1.0,100.0
1662,67.0,0,108,0.0,100.0
1663,67.0,0,108,2.0,100.0
1664,67.0,0,108,6.0,100.0
1665,67.0,0,108,4.0,100.0
1666,59.0,120,108,5.0,100.0
1667,72.0,0,108,2.0,100.0
1668,72.0,0,108,0.0,100.0
1669,72.0,120,108,4.0,100.0
1670,72.0,0,108,6.0,100.0
1671,64.0,0,216,5.0,100.0
1672,55.0,0,216,1.0,100.0
1673,71.0,120,108,0.0,100.0
1674,71.0,0,108,6.0,100.0
1675,71.0,0,108,4.0,100.0
1676,55.0,0,108,3.0,100.0
1677,71.0,0,108,2.0,100.0
1678,72.0,0,108,2.0,100.0
1679,69.0,0,108,7.0,100.0
1680,72.0,0,108,0.0,100.0
1681,72.0,0,108,6.0,100.0
1682,69.0,0,108,5.0,100.0
1683,54.0,120,108,8.0,100.0
1684,57.0,0,108,3.0,100.0
1685,54.0,0,108,1.0,100.0
1686,72.0,0,108,4.0,100.0
1687,52.0,0,108,8.0,100.0
1688,67.0,0,108,7.0,100.0
1689,59.0,120,108,3.0,100.0
1690,74.0,0,108,0.0,100.0
1691,74.0,0,108,6.0,100.0
1692,74.0,0,108,2.0,100.0
1693,74.0,0,108,4.0,100.0
1694,52.0,0,108,1.0,100.0
1695,67.0,0,108,5.0,100.0
1696,54.0,0,108,8.0,100.0
1697,72.0,0,108,4.0,100.0
1698,54.0,120,108,1.0,100.0
1699,72.0,0,108,2.0,100.0
1700,72.0,0,108,0.0,100.0
1701,72.0,0,108,6.0,100.0
1702,57.0,0,108,3.0,100.0
1703,69.0,0,216,5.0,100.0
1704,69.0,0,216,7.0,100.0
1705,76.0,0,108,2.0,100.0
1706,76.0,0,108,0.0,100.0
1707,55.0,0,108,8.0,100.0
1708,55.0,0,108,1.0,100.0
1709,76.0,120,108,4.0,100.0
1710,76.0,0,108,6.0,100.0
1711,60.0,0,108,3.0,100.0
1712,74.0,120,108,0.0,100.0
1713,74.0,0,108,6.0,100.0
1714,74.0,0,108,2.0,100.0
1715,52.0,0,108,1.0,100.0
1716,74.0,0,108,4.0,100.0
1717,57.0,0,108,3.0,100.0
1718,52.0,0,108,8.0,100.0
1719,45.0,0,864,10.0,100.0
1720,33.0,0,864,10.0,100.0
1721,57.0,0,216,5.0,100.0
1722,57.0,0,216,7.0,100.0
1723,72.0,0,108,2.0,100.0
1724,54.0,0,108,8.0,100.0
1725,72.0,0,108,0.0,100.0
1726,54.0,0,108,3.0,100.0
1727,72.0,120,108,6.0,100.0
1728,72.0,0,108,4.0,100.0
1729,54.0,0,108,1.0,100.0
1730,71.0,0,108,6.0,100.0
1731,55.0,0,108,1.0,100.0
1732,71.0,0,108,2.0,100.0
1733,71.0,0,108,4.0,100.0
1734,62.0,0,108,5.0,100.0
1735,71.0,0,108,0.0,100.0
1736,43.0,0,108,10.0,100.0
1737,31.0,0,108,10.0,100.0
1738,50.0,0,108,3.0,100.0
1739,55.0,120,216,8.0,100.0
1740,62.0,0,216,7.0,100.0
1741,59.0,0,108,5.0,100.0
1742,74.0,0,108,4.0,100.0
1743,59.0,0,108,3.0,100.0
1744,74.0,0,108,6.0,100.0
1745,47.0,0,108,1.0,100.0
1746,47.0,0,108,10.0,100.0
1747,74.0,120,108,2.0,100.0
1748,74.0,0,108,0.0,100.0
1749,35.0,0,108,10.0,100.0
1750,67.0,120,108,4.0,100.0
1751,67.0,0,108,0.0,100.0
1752,60.0,0,108,3.0,100.0
1753,36.0,0,108,10.0,100.0
1754,67.0,0,108,6.0,100.0
1755,48.0,0,108,10.0,100.0
1756,48.0,0,108,1.0,100.0
1757,64.0,0,108,7.0,100.0
1758,60.0,0,108,5.0,100.0
1759,67.0,0,108,2.0,100.0
1760,67.0,0,216,8.0,100.0
1761,71.0,0,108,6.0,100.0
1762,62.0,0,108,5.0,100.0
1763,62.0,0,108,3.0,100.0
1764,71.0,0,108,2.0,100.0
1765,71.0,0,108,0.0,100.0
1766,50.0,120,108,1.0,100.0
1767,71.0,0,108,4.0,100.0
1768,50.0,0,108,10.0,100.0
1769,65.0,0,108,7.0,100.0
1770,38.0,0,108,10.0,100.0
1771,72.0,0,108,2.0,100.0
1772,72.0,0,108,6.0,100.0
1773,72.0,0,108,4.0,100.0
1774,72.0,0,108,0.0,100.0
1775,64.0,0,216,3.0,100.0
1776,67.0,0,216,7.0,100.0
1777,40.0,0,216,10.0,100.0
1778,52.0,0,216,10.0,100.0
1779,64.0,0,216,8.0,100.0
1780,64.0,0,216,5.0,100.0
1781,52.0,120,216,1.0,100.0
1782,76.0,0,108,2.0,100.0
1783,76.0,0,108,4.0,100.0
1784,76.0,0,108,6.0,100.0
1785,76.0,120,108,0.0,100.0
1786,67.0,0,108,6.0,100.0
1787,67.0,0,108,2.0,100.0
1788,67.0,0,108,4.0,100.0
1789,67.0,0,108,0.0,100.0
1790,52.0,120,216,1.0,100.0
1791,40.0,0,216,10.0,100.0
1792,72.0,0,216,7.0,100.0
1793,64.0,0,216,3.0,100.0
1794,64.0,0,216,5.0,100.0
1795,52.0,0,216,10.0,100.0
1796,71.0,0,108,6.0,100.0
1797,71.0,0,108,4.0,100.0
1798,71.0,0,108,2.0,100.0
1799,71.0,120,108,0.0,100.0
1800,69.0,0,108,0.0,100.0
1801,69.0,0,108,2.0,100.0
1802,69.0,0,108,4.0,100.0
1803,69.0,0,108,6.0,100.0
1804,40.0,0,216,10.0,100.0
1805,60.0,0,456,8.0,100.0
1806,52.0,0,216,1.0,100.0
1807,64.0,0,216,3.0,100.0
1808,64.0,120,216,5.0,100.0
1809,52.0,0,216,10.0,100.0
1810,72.0,120,108,0.0,100.0
1811,72.0,0,108,4.0,100.0
1812,72.0,0,108,6.0,100.0
1813,72.0,0,108,2.0,100.0
1814,62.0,0,108,5.0,100.0
1815,65.0,0,108,6.0,100.0
1816,65.0,120,108,2.0,100.0
1817,65.0,0,108,4.0,100.0
1818,38.0,0,108,10.0,100.0
1819,62.0,0,108,3.0,100.0
1820,50.0,0,108,10.0,100.0
1821,50.0,0,108,1.0,100.0
1822,62.0,0,108,8.0,100.0
1823,65.0,0,108,0.0,100.0
1824,64.0,0,108,8.0,100.0
1825,69.0,0,108,2.0,100.0
1826,60.0,0,108,3.0,100.0
1827,60.0,0,108,5.0,100.0
1828,48.0,0,108,1.0,100.0
1829,69.0,120,108,0.0,100.0
1830,69.0,0,108,4.0,100.0
1831,36.0,0,108,10.0,100.0
1832,48.0,0,108,10.0,100.0
1833,69.0,0,108,6.0,100.0
1834,71.0,0,108,4.0,100.0
1835,71.0,0,108,2.0,100.0
1836,71.0,0,108,0.0,100.0
1837,71.0,120,108,6.0,100.0
1838,77.0,0,648,7.0,100.0
1839,50.0,0,216,1.0,100.0
1840,38.0,0,216,10.0,100.0
1841,50.0,0,216,10.0,100.0
1842,62.0,0,216,3.0,100.0
1843,62.0,0,216,8.0,100.0
1844,62.0,0,216,5.0,100.0
1845,74.0,0,108,2.0,100.0
1846,74.0,120,108,4.0,100.0
1847,74.0,0,108,0.0,100.0
1848,74.0,0,108,6.0,100.0
1849,65.0,0,108,2.0,100.0
1850,65.0,0,108,6.0,100.0
1851,65.0,120,108,4.0,100.0
1852,65.0,0,108,0.0,100.0
1853,71.0,0,216,7.0,100.0
1854,50.0,0,216,1.0,100.0
1855,38.0,0,216,10.0,100.0
1856,65.0,0,216,8.0,100.0
1857,50.0,0,216,10.0,100.0
1858,69.0,120,108,0.0,100.0
1859,69.0,0,108,4.0,100.0
1860,69.0,0,108,2.0,100.0
1861,69.0,0,108,6.0,100.0
1862,67.0,0,108,4.0,100.0
1863,38.0,0,108,10.0,100.0
1864,50.0,0,108,1.0,100.0
1865,62.0,0,348,3.0,100.0
1866,50.0,0,108,10.0,100.0
1867,67.0,0,108,2.0,100.0
1868,62.0,0,348,5.0,100.0
1869,67.0,0,108,6.0,100.0
1870,67.0,0,108,0.0,100.0
1871,59.0,120,216,8.0,100.0
1872,55.0,120,108,3.0,100.0
1873,43.0,0,108,10.0,100.0
1874,71.0,0,108,2.0,100.0
1875,43.0,0,108,1.0,100.0
1876,71.0,0,108,0.0,100.0
1877,71.0,0,108,6.0,100.0
1878,55.0,0,108,5.0,100.0
1879,71.0,0,108,4.0,100.0
1880,31.0,0,108,10.0,100.0
1881,33.0,0,108,10.0,100.0
1882,45.0,0,108,10.0,100.0
1883,57.0,0,108,5.0,100.0
1884,64.0,0,108,6.0,100.0
1885,45.0,120,108,1.0,100.0
1886,57.0,0,108,3.0,100.0
1887,60.0,0,108,8.0,100.0
1888,64.0,0,108,4.0,100.0
1889,64.0,0,108,0.0,100.0
1890,64.0,0,108,2.0,100.0
1891,47.0,120,108,1.0,100.0
1892,59.0,0,108,3.0,100.0
1893,67.0,0,108,2.0,100.0
1894,67.0,0,108,6.0,100.0
1895,62.0,0,108,8.0,100.0
1896,47.0,0,108,10.0,100.0
1897,35.0,0,108,10.0,100.0
1898,67.0,0,108,4.0,100.0
1899,67.0,0,108,0.0,100.0
1900,59.0,0,108,5.0,100.0
1901,69.0,0,108,4.0,100.0
1902,69.0,0,108,0.0,100.0
1903,69.0,120,108,6.0,100.0
1904,69.0,0,108,2.0,100.0
1905,76.0,0,648,7.0,100.0
1906,60.0,0,216,8.0,100.0
1907,72.0,0,108,2.0,100.0
1908,72.0,0,108,6.0,100.0
1909,72.0,120,108,4.0,100.0
1910,72.0,0,108,0.0,100.0
1911,64.0,0,108,0.0,100.0
1912,64.0,0,108,4.0,100.0
1913,64.0,0,108,6.0,100.0
1914,64.0,0,108,2.0,100.0
1915,69.0,0,216,7.0,100.0
1916,64.0,120,216,8.0,100.0
1917,67.0,0,108,0.0,100.0
1918,67.0,0,108,4.0,100.0
1919,67.0,0,108,2.0,100.0
1920,67.0,120,108,6.0,100.0
1921,65.0,120,108,6.0,100.0
1922,65.0,0,108,2.0,100.0
1923,65.0,0,108,0.0,100.0
1924,65.0,0,108,4.0,100.0
1925,57.0,0,216,8.0,100.0
1926,48.0,0,696,1.0,100.0
1927,60.0,0,696,5.0,100.0
1928,60.0,0,696,3.0,100.0
1929,48.0,0,696,10.0,100.0
1930,36.0,0,696,10.0,100.0
1931,69.0,120,108,2.0,100.0
1932,69.0,0,108,6.0,100.0
1933,69.0,0,108,0.0,100.0
1934,69.0,0,108,4.0,100.0
1935,59.0,0,108,5.0,100.0
1936,59.0,0,108,3.0,100.0
1937,62.0,0,108,6.0,100.0
1938,47.0,0,108,10.0,100.0
1939,35.0,120,108,10.0,100.0
1940,47.0,0,108,1.0,100.0
1941,62.0,0,108,0.0,100.0
1942,62.0,0,108,4.0,100.0
1943,59.0,0,108,8.0,100.0
1944,62.0,0,108,2.0,100.0
1945,33.0,0,108,10.0,100.0
1946,65.0,0,108,6.0,100.0
1947,45.0,120,108,10.0,100.0
1948,65.0,0,108,2.0,100.0
1949,65.0,0,108,4.0,100.0
1950,45.0,0,108,1.0,100.0
1951,60.0,0,108,8.0,100.0
1952,57.0,0,108,5.0,100.0
1953,65.0,0,108,0.0,100.0
1954,57.0,0,108,3.0,100.0
1955,67.0,0,108,4.0,100.0
1956,67.0,0,108,2.0,100.0
1957,67.0,0,108,6.0,100.0
1958,67.0,0,108,0.0,100.0
1959,74.0,0,648,7.0,100.0
1960,47.0,0,216,10.0,100.0
1961,59.0,0,216,5.0,100.0
1962,62.0,0,216,8.0,100.0
1963,35.0,0,216,10.0,100.0
1964,59.0,120,216,3.0,100.0
1965,47.0,0,216,1.0,100.0
1966,71.0,0,108,4.0,100.0
1967,71.0,0,108,0.0,100.0
1968,71.0,120,108,2.0,100.0
1969,71.0,0,108,6.0,100.0
1970,62.0,0,108,2.0,100.0
1971,62.0,0,108,4.0,100.0
1972,72.0,0,108,7.0,100.0
1973,62.0,0,108,6.0,100.0
1974,62.0,0,108,0.0,100.0
1975,43.0,120,216,10.0,100.0
1976,43.0,0,216,1.0,100.0
1977,67.0,0,216,8.0,100.0
1978,55.0,0,216,3.0,100.0
1979,31.0,0,216,10.0,100.0
1980,55.0,0,216,5.0,100.0
1981,65.0,0,108,0.0,100.0
1982,65.0,120,108,4.0,100.0
1983,65.0,0,108,2.0,100.0
1984,65.0,0,108,6.0,100.0
1985,71.0,0,108,7.0,100.0
1986,48.0,0,216,1.0,100.0
1987,64.0,0,216,6.0,100.0
1988,48.0,120,216,10.0,100.0
1989,36.0,0,216,10.0,100.0
1990,64.0,0,216,0.0,100.0
1991,64.0,0,216,2.0,100.0
1992,72.0,0,216,7.0,100.0
1993,60.0,0,216,3.0,100.0
1994,60.0,0,216,5.0,100.0
1995,67.0,0,216,8.0,100.0
1996,64.0,0,216,4.0,100.0
1997,52.0,0,72,1.0,100.0
1998,67.0,0,72,0.0,100.0
1999,65.0,0,72,0.0,100.0
2000,50.0,80,72,1.0,100.0
2001,67.0,80,72,0.0,100.0
2002,52.0,0,72,1.0,100.0
2003,54.0,0,72,1.0,100.0
2004,69.0,80,72,0.0,100.0
2005,67.0,80,72,0.0,100.0
2006,52.0,0,72,1.0,100.0
2007,48.0,0,432,10.0,100.0
2008,60.0,240,432,10.0,100.0
2009,69.0,80,72,0.0,100.0
2010,54.0,0,72,1.0,100.0
2011,71.0,0,72,0.0,100.0
2012,56.0,80,72,1.0,100.0
2013,54.0,80,72,1.0,100.0
2014,69.0,0,72,0.0,100.0
2015,47.0,0,216,10.0,100.0
2016,59.0,0,216,10.0,100.0
2017,56.0,80,72,1.0,100.0
2018,71.0,0,72,0.0,100.0
2019,57.0,0,216,10.0,100.0
2020,45.0,0,216,10.0,100.0
2021,45.0,0,72,3.0,100.0
2022,57.0,0,72,5.0,100.0
2023,72.0,0,72,2.0,100.0
2024,72.0,0,72,4.0,100.0
2025,70.0,0,72,4.0,100.0
2026,70.0,80,72,2.0,100.0
2027,43.0,0,72,3.0,100.0
2028,55.0,0,72,5.0,100.0
2029,72.0,0,216,6.0,100.0
2030,65.0,0,216,8.0,100.0
2031,33.0,240,216,10.0,100.0
2032,45.0,0,216,10.0,100.0
2033,45.0,0,72,3.0,100.0
2034,72.0,0,72,4.0,100.0
2035,57.0,80,72,5.0,100.0
2036,72.0,0,72,2.0,100.0
2037,72.0,0,552,0.0,100.0
2038,58.0,80,72,5.0,100.0
2039,74.0,0,72,2.0,100.0
2040,57.0,80,552,1.0,100.0
2041,74.0,0,72,4.0,100.0
2042,46.0,0,72,3.0,100.0
2043,72.0,0,72,4.0,100.0
2044,72.0,0,72,2.0,100.0
2045,45.0,0,72,3.0,100.0
2046,74.0,0,72,0.0,100.0
2047,57.0,80,72,5.0,100.0
2048,58.0,0,72,1.0,100.0
2049,72.0,0,432,7.0,100.0
2050,74.0,0,216,6.0,100.0
2051,46.0,0,216,10.0,100.0
2052,34.0,0,216,10.0,100.0
2053,53.0,0,216,8.0,100.0
2054,72.0,0,72,0.0,100.0
2055,74.0,0,72,2.0,100.0
2056,57.0,80,72,1.0,100.0
2057,46.0,0,72,3.0,100.0
2058,74.0,0,72,4.0,100.0
2059,58.0,0,72,5.0,100.0
2060,76.0,0,72,2.0,100.0
2061,70.0,80,72,0.0,100.0
2062,60.0,0,72,5.0,100.0
2063,55.0,0,72,1.0,100.0
2064,76.0,0,72,4.0,100.0
2065,48.0,0,72,3.0,100.0
2066,72.0,0,72,0.0,100.0
2067,57.0,80,72,1.0,100.0
2068,46.0,0,72,3.0,100.0
2069,74.0,0,72,2.0,100.0
2070,74.0,0,72,4.0,100.0
2071,58.0,0,72,5.0,100.0
2072,70.0,0,216,7.0,100.0
2073,76.0,0,216,6.0,100.0
2074,48.0,0,216,10.0,100.0
2075,60.0,0,216,8.0,100.0
2076,36.0,0,216,10.0,100.0
2077,55.0,0,72,1.0,100.0
2078,48.0,0,72,3.0,100.0
2079,76.0,80,72,4.0,100.0
2080,70.0,0,72,0.0,100.0
2081,76.0,0,72,2.0,100.0
2082,60.0,0,72,5.0,100.0
2083,77.0,0,216,6.0,100.0
2084,77.0,0,216,2.0,100.0
2085,53.0,0,216,5.0,100.0
2086,53.0,0,216,1.0,100.0
2087,69.0,0,216,0.0,100.0
2088,41.0,0,216,3.0,100.0
2089,29.0,0,216,10.0,100.0
2090,69.0,0,216,7.0,100.0
2091,77.0,80,216,4.0,100.0
2092,60.0,0,216,8.0,100.0
2093,41.0,0,216,10.0,100.0
2094,69.0,240,72,4.0,100.0
2095,60.0,0,72,5.0,100.0
2096,67.0,80,72,4.0,100.0
2097,59.0,0,72,5.0,100.0
2098,69.0,0,72,4.0,100.0
2099,60.0,80,72,5.0,100.0
2100,71.0,0,72,4.0,100.0
2101,62.0,80,72,5.0,100.0
2102,69.0,0,72,4.0,100.0
2103,60.0,80,72,5.0,100.0
2104,41.0,0,432,10.0,100.0
2105,53.0,0,432,10.0,100.0
2106,71.0,0,72,4.0,100.0
2107,62.0,80,72,5.0,100.0
2108,64.0,0,72,5.0,100.0
2109,73.0,0,72,4.0,100.0
2110,62.0,0,72,5.0,100.0
2111,71.0,80,72,4.0,100.0
2112,40.0,80,216,10.0,100.0
2113,52.0,0,216,10.0,100.0
2114,73.0,80,72,4.0,100.0
2115,64.0,0,72,5.0,100.0
2116,50.0,0,216,10.0,100.0
2117,54.0,0,216,5.0,100.0
2118,38.0,80,216,10.0,100.0
2119,74.0,0,72,2.0,100.0
2120,59.0,240,72,3.0,100.0
2121,47.0,0,72,1.0,100.0
2122,74.0,0,72,0.0,100.0
2123,45.0,0,72,1.0,100.0
2124,72.0,0,72,0.0,100.0
2125,57.0,0,72,3.0,100.0
2126,72.0,80,72,2.0,100.0
2127,67.0,0,216,8.0,100.0
2128,74.0,0,216,6.0,100.0
2129,35.0,0,216,10.0,100.0
2130,47.0,0,216,10.0,100.0
2131,74.0,0,72,2.0,100.0
2132,47.0,80,72,1.0,100.0
2133,59.0,0,72,3.0,100.0
2134,74.0,0,72,0.0,100.0
2135,76.0,0,72,2.0,100.0
2136,74.0,0,552,4.0,100.0
2137,76.0,80,72,0.0,100.0
2138,59.0,0,312,5.0,100.0
2139,60.0,0,72,3.0,100.0
2140,48.0,0,72,1.0,100.0
2141,59.0,0,72,3.0,100.0
2142,76.0,0,72,4.0,100.0
2143,60.0,0,72,5.0,100.0
2144,74.0,0,72,2.0,100.0
2145,47.0,80,72,1.0,100.0
2146,74.0,0,72,0.0,100.0
2147,74.0,0,432,7.0,100.0
2148,36.0,0,216,10.0,100.0
2149,76.0,0,216,6.0,100.0
2150,55.0,0,216,8.0,100.0
2151,48.0,0,216,10.0,100.0
2152,76.0,0,72,0.0,100.0
2153,48.0,0,72,1.0,100.0
2154,76.0,0,72,2.0,100.0
2155,59.0,0,72,5.0,100.0
2156,60.0,0,72,3.0,100.0
2157,74.0,80,72,4.0,100.0
2158,78.0,0,72,0.0,100.0
2159,57.0,0,72,5.0,100.0
2160,50.0,0,72,1.0,100.0
2161,62.0,0,72,3.0,100.0
2162,72.0,0,72,4.0,100.0
2163,78.0,0,72,2.0,100.0
2164,76.0,0,72,0.0,100.0
2165,48.0,0,72,1.0,100.0
2166,76.0,0,72,2.0,100.0
2167,74.0,0,72,4.0,100.0
2168,59.0,0,72,5.0,100.0
2169,60.0,80,72,3.0,100.0
2170,62.0,80,216,8.0,100.0
2171,78.0,0,216,6.0,100.0
2172,50.0,0,216,10.0,100.0
2173,38.0,0,216,10.0,100.0
2174,72.0,0,216,7.0,100.0
2175,78.0,0,72,2.0,100.0
2176,72.0,0,72,4.0,100.0
2177,57.0,0,72,5.0,100.0
2178,50.0,80,72,1.0,100.0
2179,62.0,0,72,3.0,100.0
2180,78.0,0,72,0.0,100.0
2181,79.0,0,216,0.0,100.0
2182,79.0,0,216,6.0,100.0
2183,43.0,0,216,1.0,100.0
2184,55.0,0,216,3.0,100.0
2185,79.0,0,216,2.0,100.0
2186,43.0,0,216,10.0,100.0
2187,55.0,0,216,5.0,100.0
2188,71.0,0,216,7.0,100.0
2189,62.0,80,216,8.0,100.0
2190,71.0,0,216,4.0,100.0
2191,31.0,0,216,10.0,100.0
2192,71.0,240,72,2.0,100.0
2193,62.0,0,72,3.0,100.0
2194,69.0,80,72,2.0,100.0
2195,60.0,0,72,3.0,100.0
2196,62.0,0,72,3.0,100.0
2197,71.0,80,72,2.0,100.0
2198,64.0,0,72,3.0,100.0
2199,72.0,80,72,2.0,100.0
2200,71.0,0,72,2.0,100.0
2201,62.0,80,72,3.0,100.0
2202,55.0,0,432,10.0,100.0
2203,43.0,0,432,10.0,100.0
2204,64.0,0,72,3.0,100.0
2205,72.0,80,72,2.0,100.0
2206,65.0,80,72,3.0,100.0
2207,74.0,0,72,2.0,100.0
2208,64.0,80,72,3.0,100.0
2209,72.0,0,72,2.0,100.0
2210,53.0,0,216,10.0,100.0
2211,41.0,0,216,10.0,100.0
2212,74.0,0,72,2.0,100.0
2213,65.0,80,72,3.0,100.0
2214,52.0,0,216,10.0,100.0
2215,40.0,0,216,10.0,100.0
2216,56.0,0,216,3.0,100.0
2217,76.0,0,72,4.0,100.0
2218,60.0,0,72,1.0,100.0
2219,76.0,0,72,0.0,100.0
2220,48.0,0,72,5.0,100.0
2221,74.0,80,72,4.0,100.0
2222,47.0,0,72,5.0,100.0
2223,74.0,0,72,0.0,100.0
2224,59.0,0,72,1.0,100.0
2225,76.0,0,216,6.0,100.0
2226,69.0,240,216,8.0,100.0
2227,36.0,0,216,10.0,100.0
2228,48.0,0,216,10.0,100.0
2229,76.0,80,72,0.0,100.0
2230,60.0,0,72,1.0,100.0
2231,76.0,0,72,4.0,100.0
2232,48.0,0,72,5.0,100.0
2233,50.0,80,72,5.0,100.0
2234,78.0,0,72,0.0,100.0
2235,78.0,0,72,4.0,100.0
2236,60.0,0,312,3.0,100.0
2237,62.0,0,72,1.0,100.0
2238,76.0,80,552,2.0,100.0
2239,62.0,80,72,3.0,100.0
2240,60.0,0,72,1.0,100.0
2241,77.0,0,72,2.0,100.0
2242,76.0,0,72,0.0,100.0
2243,76.0,0,72,4.0,100.0
2244,48.0,0,72,5.0,100.0
2245,76.0,0,432,7.0,100.0
2246,38.0,0,216,10.0,100.0
2247,50.0,0,216,10.0,100.0
2248,57.0,0,216,8.0,100.0
2249,78.0,0,216,6.0,100.0
2250,50.0,0,72,5.0,100.0
2251,78.0,0,72,0.0,100.0
2252,60.0,80,72,3.0,100.0
2253,76.0,0,72,2.0,100.0
2254,78.0,0,72,4.0,100.0
2255,62.0,0,72,1.0,100.0
2256,52.0,0,72,5.0,100.0
2257,80.0,0,72,4.0,100.0
2258,74.0,0,72,2.0,100.0
2259,64.0,0,72,1.0,100.0
2260,80.0,0,72,0.0,100.0
2261,59.0,0,72,3.0,100.0
2262,78.0,0,72,4.0,100.0
2263,76.0,0,72,2.0,100.0
2264,78.0,0,72,0.0,100.0
2265,62.0,0,72,1.0,100.0
2266,60.0,80,72,3.0,100.0
2267,50.0,0,72,5.0,100.0
2268,52.0,80,216,10.0,100.0
2269,64.0,0,216,8.0,100.0
2270,40.0,0,216,10.0,100.0
2271,74.0,0,216,7.0,100.0
2272,80.0,0,216,6.0,100.0
2273,74.0,0,72,2.0,100.0
2274,80.0,0,72,4.0,100.0
2275,64.0,80,72,1.0,100.0
2276,80.0,0,72,0.0,100.0
2277,59.0,0,72,3.0,100.0
2278,52.0,0,72,5.0,100.0
2279,57.0,0,108,3.0,100.0
2280,53.0,0,108,5.0,100.0
2281,81.0,0,108,4.0,100.0
2282,53.0,0,108,10.0,100.0
2283,41.0,0,108,10.0,100.0
2284,65.0,80,216,1.0,100.0
2285,69.0,0,216,8.0,100.0
2286,72.0,0,216,7.0,100.0
2287,79.0,0,108,4.0,100.0
2288,40.0,120,108,10.0,100.0
2289,52.0,0,108,5.0,100.0
2290,52.0,0,108,10.0,100.0
2291,59.0,0,108,3.0,100.0
2292,72.0,0,294,2.0,100.0
2293,53.0,120,108,5.0,100.0
2294,53.0,0,108,10.0,100.0
2295,53.0,0,108,1.0,100.0
2296,57.0,0,108,3.0,100.0
2297,77.0,0,108,4.0,100.0
2298,41.0,0,108,10.0,100.0
2299,71.0,60,54,2.0,100.0
2300,72.0,0,54,2.0,100.0
2301,60.0,0,216,8.0,100.0
2302,69.0,0,216,7.0,100.0
2303,55.0,0,108,10.0,100.0
2304,43.0,0,108,10.0,100.0
2305,55.0,0,108,3.0,100.0
2306,55.0,0,108,5.0,100.0
2307,52.0,0,108,1.0,100.0
2308,76.0,60,108,4.0,100.0
2309,74.0,60,54,2.0,100.0
2310,53.0,0,108,3.0,100.0
2311,81.0,0,588,6.0,100.0
2312,53.0,0,108,10.0,100.0
2313,53.0,0,108,1.0,100.0
2314,53.0,0,108,5.0,100.0
2315,74.0,0,108,4.0,100.0
2316,41.0,60,108,10.0,100.0
2317,81.0,0,588,0.0,100.0
2318,65.0,0,216,8.0,100.0
2319,74.0,0,216,7.0,100.0
2320,45.0,0,108,10.0,100.0
2321,57.0,0,108,10.0,100.0
2322,57.0,0,108,1.0,100.0
2323,84.0,120,108,6.0,100.0
2324,84.0,0,108,0.0,100.0
2325,57.0,0,108,5.0,100.0
2326,57.0,0,108,3.0,100.0
2327,69.0,0,108,4.0,100.0
2328,74.0,0,324,2.0,100.0
2329,50.0,0,108,1.0,100.0
2330,68.0,120,108,4.0,100.0
2331,83.0,0,108,6.0,100.0
2332,50.0,0,108,5.0,100.0
2333,83.0,0,108,0.0,100.0
2334,50.0,0,108,10.0,100.0
2335,50.0,0,108,3.0,100.0
2336,38.0,0,108,10.0,100.0
2337,77.0,0,216,7.0,100.0
2338,59.0,0,216,8.0,100.0
2339,41.0,0,108,10.0,100.0
2340,53.0,0,108,5.0,100.0
2341,76.0,0,108,2.0,100.0
2342,81.0,0,108,6.0,100.0
2343,53.0,120,108,1.0,100.0
2344,53.0,0,108,10.0,100.0
2345,81.0,0,108,0.0,100.0
2346,69.0,0,108,4.0,100.0
2347,53.0,0,108,3.0,100.0
2348,52.0,0,108,5.0,100.0
2349,40.0,0,108,10.0,100.0
2350,52.0,120,108,3.0,100.0
2351,52.0,0,108,1.0,100.0
2352,52.0,0,108,10.0,100.0
2353,80.0,0,216,0.0,100.0
2354,71.0,0,216,4.0,100.0
2355,64.0,0,216,8.0,100.0
2356,80.0,0,216,6.0,100.0
2357,53.0,0,108,3.0,100.0
2358,53.0,0,108,5.0,100.0
2359,41.0,0,108,10.0,100.0
2360,53.0,120,108,1.0,100.0
2361,53.0,0,108,10.0,100.0
2362,47.0,0,108,5.0,100.0
2363,35.0,0,108,10.0,100.0
2364,47.0,0,108,3.0,100.0
2365,47.0,120,108,10.0,100.0
2366,47.0,0,108,1.0,100.0
2367,71.0,0,432,7.0,100.0
2368,68.0,0,216,8.0,100.0
2369,76.0,0,216,0.0,100.0
2370,76.0,0,216,6.0,100.0
2371,50.0,0,108,1.0,100.0
2372,50.0,120,108,10.0,100.0
2373,50.0,0,108,3.0,100.0
2374,50.0,0,108,5.0,100.0
2375,38.0,0,108,10.0,100.0
2376,48.0,0,108,1.0,100.0
2377,48.0,0,108,3.0,100.0
2378,48.0,0,108,5.0,100.0
2379,76.0,0,588,2.0,100.0
2380,48.0,0,108,10.0,100.0
2381,36.0,0,108,10.0,100.0
2382,76.0,120,216,7.0,100.0
2383,81.0,0,216,6.0,100.0
2384,76.0,0,216,4.0,100.0
2385,57.0,0,216,8.0,100.0
2386,81.0,0,216,0.0,100.0
2387,52.0,120,108,5.0,100.0
2388,40.0,0,108,10.0,100.0
2389,52.0,0,108,1.0,100.0
2390,52.0,0,108,3.0,100.0
2391,74.0,0,108,2.0,100.0
2392,52.0,0,108,10.0,100.0
2393,45.0,0,108,1.0,100.0
2394,45.0,0,108,3.0,100.0
2395,45.0,120,108,5.0,100.0
2396,45.0,0,108,10.0,100.0
2397,72.0,0,108,2.0,100.0
2398,33.0,0,108,10.0,100.0
2399,76.0,0,216,4.0,100.0
2400,76.0,0,216,6.0,100.0
2401,72.0,0,216,7.0,100.0
2402,69.0,0,216,8.0,100.0
2403,76.0,0,216,0.0,100.0
2404,48.0,0,108,3.0,100.0
2405,48.0,120,108,5.0,100.0
2406,71.0,0,108,2.0,100.0
2407,48.0,0,108,10.0,100.0
2408,36.0,0,108,10.0,100.0
2409,48.0,0,108,1.0,100.0
2410,50.0,0,108,1.0,100.0
2411,38.0,0,108,10.0,100.0
2412,50.0,0,108,10.0,100.0
2413,69.0,0,108,2.0,100.0
2414,50.0,0,108,5.0,100.0
2415,50.0,0,108,3.0,100.0
2416,76.0,0,216,4.0,100.0
2417,77.0,0,216,0.0,100.0
2418,77.0,120,216,6.0,100.0
2419,41.0,0,108,10.0,100.0
2420,53.0,0,108,5.0,100.0
2421,53.0,0,108,1.0,100.0
2422,53.0,0,108,10.0,100.0
2423,53.0,120,108,3.0,100.0
2424,74.0,0,108,2.0,100.0
2425,45.0,0,108,3.0,100.0
2426,74.0,0,108,4.0,100.0
2427,33.0,0,108,10.0,100.0
2428,45.0,0,108,10.0,100.0
2429,45.0,0,108,5.0,100.0
2430,65.0,0,108,2.0,100.0
2431,45.0,0,108,1.0,100.0
2432,65.0,0,432,8.0,100.0
2433,69.0,0,432,7.0,100.0
2434,74.0,120,216,0.0,100.0
2435,74.0,0,216,6.0,100.0
2436,36.0,120,108,10.0,100.0
2437,48.0,0,108,1.0,100.0
2438,48.0,0,108,3.0,100.0
2439,48.0,0,108,5.0,100.0
2440,69.0,0,108,2.0,100.0
2441,48.0,0,108,10.0,100.0
2442,72.0,0,108,4.0,100.0
2443,47.0,0,108,3.0,100.0
2444,79.0,0,108,6.0,100.0
2445,47.0,0,108,1.0,100.0
2446,47.0,0,108,5.0,100.0
2447,35.0,0,108,10.0,100.0
2448,79.0,120,108,0.0,100.0
2449,47.0,0,108,10.0,100.0
2450,74.0,0,216,4.0,100.0
2451,62.0,0,216,2.0,100.0
2452,74.0,0,216,7.0,100.0
2453,55.0,0,216,8.0,100.0
2454,77.0,0,108,6.0,100.0
2455,50.0,0,108,10.0,100.0
2456,50.0,0,108,3.0,100.0
2457,50.0,0,108,1.0,100.0
2458,38.0,120,108,10.0,100.0
2459,50.0,0,108,5.0,100.0
2460,77.0,0,108,0.0,100.0
2461,76.0,0,108,0.0,100.0
2462,43.0,0,108,10.0,100.0
2463,31.0,120,108,10.0,100.0
2464,76.0,0,108,6.0,100.0
2465,43.0,0,108,3.0,100.0
2466,43.0,0,108,5.0,100.0
2467,43.0,0,108,1.0,100.0
2468,67.0,0,216,8.0,100.0
2469,71.0,0,216,4.0,100.0
2470,71.0,0,216,7.0,100.0
2471,47.0,0,108,1.0,100.0
2472,47.0,0,108,5.0,100.0
2473,47.0,0,108,3.0,100.0
2474,74.0,120,108,6.0,100.0
2475,35.0,0,108,10.0,100.0
2476,47.0,0,108,10.0,100.0
2477,74.0,0,108,0.0,100.0
2478,77.0,0,108,6.0,100.0
2479,74.0,0,348,2.0,100.0
2480,77.0,0,108,0.0,100.0
2481,48.0,0,108,5.0,100.0
2482,48.0,0,108,10.0,100.0
2483,48.0,120,108,1.0,100.0
2484,48.0,0,108,3.0,100.0
2485,36.0,0,108,10.0,100.0
2486,60.0,0,216,8.0,100.0
2487,67.0,0,216,4.0,100.0
2488,52.0,0,108,1.0,100.0
2489,52.0,0,108,5.0,100.0
2490,40.0,0,108,10.0,100.0
2491,72.0,120,108,2.0,100.0
2492,52.0,0,108,10.0,100.0
2493,52.0,0,108,3.0,100.0
2494,76.0,0,108,6.0,100.0
2495,76.0,0,108,0.0,100.0
2496,43.0,0,108,5.0,100.0
2497,31.0,0,108,10.0,100.0
2498,43.0,0,108,10.0,100.0
2499,74.0,0,108,0.0,100.0
2500,74.0,0,108,6.0,100.0
2501,74.0,0,108,2.0,100.0
2502,43.0,120,108,1.0,100.0
2503,43.0,0,108,3.0,100.0
2504,67.0,0,432,7.0,100.0
2505,64.0,0,216,8.0,100.0
2506,47.0,0,108,5.0,100.0
2507,72.0,0,108,6.0,100.0
2508,47.0,0,108,1.0,100.0
2509,72.0,0,108,0.0,100.0
2510,79.0,120,108,2.0,100.0
2511,47.0,0,108,3.0,100.0
2512,35.0,0,108,10.0,100.0
2513,47.0,0,108,10.0,100.0
2514,45.0,0,108,5.0,100.0
2515,45.0,0,108,3.0,100.0
2516,45.0,0,108,10.0,100.0
2517,72.0,0,108,2.0,100.0
2518,45.0,0,108,1.0,100.0
2519,33.0,120,108,10.0,100.0
2520,77.0,0,216,6.0,100.0
2521,72.0,0,216,4.0,100.0
2522,53.0,0,216,8.0,100.0
2523,77.0,0,216,0.0,100.0
2524,36.0,0,108,10.0,100.0
2525,48.0,120,108,10.0,100.0
2526,48.0,0,108,3.0,100.0
2527,48.0,0,108,5.0,100.0
2528,71.0,0,108,2.0,100.0
2529,48.0,0,108,1.0,100.0
2530,41.0,0,108,5.0,100.0
2531,41.0,0,108,1.0,100.0
2532,69.0,0,108,2.0,100.0
2533,41.0,0,108,10.0,100.0
2534,41.0,0,108,3.0,100.0
2535,29.0,0,108,10.0,100.0
2536,72.0,0,216,0.0,100.0
2537,72.0,120,216,6.0,100.0
2538,65.0,0,216,8.0,100.0
2539,72.0,0,216,4.0,100.0
2540,45.0,0,108,10.0,100.0
2541,45.0,0,108,1.0,100.0
2542,67.0,0,108,2.0,100.0
2543,45.0,0,108,5.0,100.0
2544,45.0,0,108,3.0,100.0
2545,33.0,120,108,10.0,100.0
2546,65.0,0,108,2.0,100.0
2547,47.0,0,108,10.0,100.0
2548,47.0,0,108,5.0,100.0
2549,47.0,120,108,3.0,100.0
2550,35.0,0,108,10.0,100.0
2551,47.0,0,108,1.0,100.0
2552,72.0,0,696,7.0,100.0
2553,72.0,0,216,4.0,100.0
2554,74.0,0,216,0.0,100.0
2555,74.0,0,216,6.0,100.0
2556,38.0,0,108,10.0,100.0
2557,50.0,0,108,10.0,100.0
2558,50.0,120,108,1.0,100.0
2559,71.0,0,108,2.0,100.0
2560,50.0,0,108,5.0,100.0
2561,50.0,0,108,3.0,100.0
2562,30.0,0,108,10.0,100.0
2563,42.0,0,108,5.0,100.0
2564,71.0,0,108,4.0,100.0
2565,42.0,120,108,1.0,100.0
2566,42.0,0,108,10.0,100.0
2567,62.0,0,108,2.0,100.0
2568,71.0,0,108,7.0,100.0
2569,42.0,0,108,3.0,100.0
2570,62.0,0,432,8.0,100.0
2571,71.0,0,216,0.0,100.0
2572,71.0,0,216,6.0,100.0
2573,45.0,0,108,5.0,100.0
2574,45.0,0,108,3.0,100.0
2575,45.0,0,108,1.0,100.0
2576,69.0,120,108,4.0,100.0
2577,45.0,0,108,10.0,100.0
2578,33.0,0,108,10.0,100.0
2579,69.0,0,108,7.0,100.0
2580,65.0,0,108,2.0,100.0
2581,76.0,0,108,0.0,100.0
2582,76.0,0,108,6.0,100.0
2583,44.0,0,216,1.0,100.0
2584,59.0,0,216,2.0,100.0
2585,44.0,0,216,5.0,100.0
2586,71.0,0,216,4.0,100.0
2587,32.0,120,216,10.0,100.0
2588,71.0,0,216,7.0,100.0
2589,44.0,0,216,3.0,100.0
2590,52.0,0,216,8.0,100.0
2591,44.0,0,216,10.0,100.0
2592,74.0,0,108,6.0,100.0
2593,74.0,120,108,0.0,100.0
2594,72.0,0,108,6.0,100.0
2595,72.0,120,108,0.0,100.0
2596,40.0,0,216,10.0,100.0
2597,40.0,0,216,1.0,100.0
2598,28.0,0,216,10.0,100.0
2599,68.0,0,216,4.0,100.0
2600,64.0,0,216,8.0,100.0
2601,80.0,0,216,2.0,100.0
2602,40.0,0,216,3.0,100.0
2603,40.0,0,216,5.0,100.0
2604,68.0,0,216,7.0,100.0
2605,71.0,0,108,0.0,100.0
2606,71.0,120,108,6.0,100.0
2607,72.0,0,108,0.0,100.0
2608,72.0,0,108,6.0,100.0
2609,60.0,0,216,8.0,100.0
2610,64.0,0,216,4.0,100.0
2611,45.0,0,216,5.0,100.0
2612,45.0,120,216,3.0,100.0
2613,45.0,0,216,10.0,100.0
2614,64.0,0,216,7.0,100.0
2615,33.0,0,216,10.0,100.0
2616,45.0,0,216,1.0,100.0
2617,76.0,120,108,0.0,100.0
2618,76.0,0,108,6.0,100.0
2619,69.0,0,108,6.0,100.0
2620,69.0,0,108,0.0,100.0
2621,64.0,0,216,8.0,100.0
2622,57.0,0,216,3.0,100.0
2623,76.0,0,216,4.0,100.0
2624,72.0,120,108,0.0,100.0
2625,57.0,0,108,5.0,100.0
2626,72.0,0,108,6.0,100.0
2627,67.0,0,108,1.0,100.0
2628,81.0,0,588,2.0,100.0
2629,74.0,0,108,0.0,100.0
2630,65.0,0,108,1.0,100.0
2631,81.0,120,348,7.0,100.0
2632,74.0,0,108,6.0,100.0
2633,57.0,0,216,3.0,100.0
2634,77.0,120,216,4.0,100.0
2635,57.0,0,216,8.0,100.0
2636,83.0,0,108,2.0,100.0
2637,62.0,0,108,1.0,100.0
2638,83.0,0,108,7.0,100.0
2639,77.0,0,108,6.0,100.0
2640,77.0,120,108,0.0,100.0
2641,50.0,0,108,5.0,100.0
2642,65.0,0,108,1.0,100.0
2643,69.0,0,108,0.0,100.0
2644,62.0,0,108,5.0,100.0
2645,81.0,0,108,7.0,100.0
2646,81.0,0,108,2.0,100.0
2647,69.0,0,108,6.0,100.0
2648,45.0,0,216,10.0,100.0
2649,65.0,0,216,8.0,100.0
2650,45.0,0,216,3.0,100.0
2651,74.0,120,216,4.0,100.0
2652,57.0,0,216,10.0,100.0
2653,74.0,0,108,6.0,100.0
2654,74.0,120,108,0.0,100.0
2655,83.0,0,108,2.0,100.0
2656,65.0,0,108,5.0,100.0
2657,62.0,0,108,1.0,100.0
2658,83.0,0,108,7.0,100.0
2659,72.0,0,108,6.0,100.0
2660,72.0,0,108,0.0,100.0
2661,69.0,0,108,5.0,100.0
2662,45.0,0,216,10.0,100.0
2663,69.0,0,216,1.0,100.0
2664,76.0,0,216,4.0,100.0
2665,64.0,0,216,8.0,100.0
2666,57.0,120,216,10.0,100.0
2667,76.0,120,108,0.0,100.0
2668,76.0,0,108,6.0,100.0
2669,72.0,0,108,5.0,100.0
2670,69.0,0,108,6.0,100.0
2671,57.0,0,108,1.0,100.0
2672,81.0,0,108,4.0,100.0
2673,64.0,120,108,5.0,100.0
2674,69.0,0,108,0.0,100.0
2675,57.0,0,216,3.0,100.0
2676,60.0,0,216,8.0,100.0
2677,45.0,0,216,10.0,100.0
2678,33.0,0,216,10.0,100.0
2679,76.0,0,108,4.0,100.0
2680,72.0,0,108,6.0,100.0
2681,55.0,120,108,1.0,100.0
2682,72.0,0,108,0.0,100.0
2683,69.0,0,108,5.0,100.0
2684,53.0,0,108,1.0,100.0
2685,81.0,0,588,2.0,100.0
2686,81.0,0,588,7.0,100.0
2687,74.0,0,108,0.0,100.0
2688,62.0,120,108,5.0,100.0
2689,74.0,0,108,6.0,100.0
2690,57.0,0,216,8.0,100.0
2691,57.0,0,216,3.0,100.0
2692,77.0,0,216,4.0,100.0
2693,50.0,0,108,1.0,100.0
2694,77.0,0,108,6.0,100.0
2695,77.0,0,108,0.0,100.0
2696,57.0,0,108,5.0,100.0
2697,83.0,0,108,7.0,100.0
2698,83.0,120,108,2.0,100.0
2699,62.0,0,108,5.0,100.0
2700,81.0,0,108,7.0,100.0
2701,53.0,120,108,1.0,100.0
2702,69.0,0,108,0.0,100.0
2703,81.0,0,108,2.0,100.0
2704,69.0,0,108,6.0,100.0
2705,45.0,0,216,10.0,100.0
2706,74.0,0,216,4.0,100.0
2707,65.0,0,216,8.0,100.0
2708,45.0,0,216,3.0,100.0
2709,57.0,0,216,10.0,100.0
2710,74.0,0,108,6.0,100.0
2711,83.0,0,108,7.0,100.0
2712,74.0,0,108,0.0,100.0
2713,50.0,0,108,1.0,100.0
2714,65.0,0,108,5.0,100.0
2715,83.0,120,108,2.0,100.0
2716,72.0,0,108,6.0,100.0
2717,69.0,120,108,5.0,100.0
2718,72.0,0,108,0.0,100.0
2719,45.0,0,216,10.0,100.0
2720,76.0,0,216,4.0,100.0
2721,81.0,0,216,7.0,100.0
2722,57.0,0,216,10.0,100.0
2723,81.0,0,216,2.0,100.0
2724,64.0,0,216,8.0,100.0
2725,71.0,0,108,0.0,100.0
2726,62.0,0,108,5.0,100.0
2727,71.0,120,108,6.0,100.0
2728,57.0,0,324,1.0,100.0
2729,69.0,0,108,4.0,100.0
2730,69.0,0,108,2.0,100.0
2731,45.0,0,108,10.0,100.0
2732,57.0,0,108,3.0,100.0
2733,60.0,0,108,5.0,100.0
2734,33.0,0,108,10.0,100.0
2735,69.0,0,108,0.0,100.0
2736,69.0,120,108,6.0,100.0
2737,71.0,0,108,6.0,100.0
2738,44.0,0,108,10.0,100.0
2739,71.0,0,108,0.0,100.0
2740,71.0,0,108,2.0,100.0
2741,59.0,0,108,5.0,100.0
2742,56.0,0,108,3.0,100.0
2743,32.0,120,108,10.0,100.0
2744,71.0,0,108,4.0,100.0
2745,56.0,0,108,1.0,100.0
2746,57.0,0,108,3.0,100.0
2747,33.0,0,108,10.0,100.0
2748,57.0,120,108,1.0,100.0
2749,72.0,0,108,0.0,100.0
2750,72.0,0,108,6.0,100.0
2751,72.0,0,108,2.0,100.0
2752,72.0,0,108,4.0,100.0
2753,45.0,0,108,10.0,100.0
2754,57.0,0,216,5.0,100.0
2755,74.0,0,108,0.0,100.0
2756,74.0,0,108,4.0,100.0
2757,74.0,0,108,2.0,100.0
2758,74.0,120,108,6.0,100.0
2759,47.0,0,108,10.0,100.0
2760,59.0,0,108,3.0,100.0
2761,59.0,0,108,1.0,100.0
2762,35.0,0,108,10.0,100.0
2763,72.0,0,108,2.0,100.0
2764,69.0,0,108,7.0,100.0
2765,33.0,0,108,10.0,100.0
2766,45.0,0,108,5.0,100.0
2767,64.0,0,108,8.0,100.0
2768,72.0,0,108,0.0,100.0
2769,72.0,0,108,6.0,100.0
2770,45.0,0,108,10.0,100.0
2771,57.0,0,108,1.0,100.0
2772,57.0,0,108,3.0,100.0
2773,72.0,120,108,4.0,100.0
2774,74.0,0,108,6.0,100.0
2775,47.0,0,108,10.0,100.0
2776,74.0,0,108,4.0,100.0
2777,74.0,0,108,0.0,100.0
2778,47.0,0,108,5.0,100.0
2779,74.0,0,108,2.0,100.0
2780,62.0,0,108,8.0,100.0
2781,35.0,120,108,10.0,100.0
2782,59.0,0,108,1.0,100.0
2783,59.0,0,108,3.0,100.0
2784,68.0,0,108,7.0,100.0
2785,60.0,0,108,1.0,100.0
2786,48.0,0,108,10.0,100.0
2787,60.0,0,108,3.0,100.0
2788,48.0,0,108,5.0,100.0
2789,36.0,0,108,10.0,100.0
2790,76.0,0,216,4.0,100.0
2791,69.0,0,216,7.0,100.0
2792,76.0,120,216,0.0,100.0
2793,76.0,0,216,2.0,100.0
2794,76.0,0,216,6.0,100.0
2795,60.0,0,216,8.0,100.0
2796,62.0,0,108,1.0,100.0
2797,62.0,0,108,3.0,100.0
2798,50.0,120,108,10.0,100.0
2799,38.0,0,108,10.0,100.0
2800,50.0,0,108,5.0,100.0
2801,36.0,120,108,10.0,100.0
2802,60.0,0,108,1.0,100.0
2803,48.0,0,108,10.0,100.0
2804,60.0,0,108,3.0,100.0
2805,48.0,0,108,5.0,100.0
2806,69.0,0,216,2.0,100.0
2807,60.0,0,216,8.0,100.0
2808,69.0,0,216,6.0,100.0
2809,69.0,0,216,0.0,100.0
2810,64.0,0,216,7.0,100.0
2811,69.0,0,216,4.0,100.0
2812,50.0,0,108,10.0,100.0
2813,62.0,0,108,1.0,100.0
2814,50.0,0,108,5.0,100.0
2815,62.0,120,108,3.0,100.0
2816,38.0,0,108,10.0,100.0
2817,64.0,0,108,3.0,100.0
2818,64.0,0,108,1.0,100.0
2819,64.0,0,216,6.0,100.0
2820,40.0,0,216,10.0,100.0
2821,64.0,0,216,0.0,100.0
2822,52.0,0,216,10.0,100.0
2823,59.0,0,216,7.0,100.0
2824,64.0,120,216,2.0,100.0
2825,52.0,0,216,5.0,100.0
2826,64.0,0,216,4.0,100.0
2827,56.0,0,216,8.0,100.0
2828,65.0,120,108,1.0,100.0
2829,65.0,0,108,3.0,100.0
2830,59.0,0,108,3.0,100.0
2831,64.0,0,108,5.0,100.0
2832,59.0,0,108,1.0,100.0
2833,59.0,0,216,8.0,100.0
2834,68.0,0,216,0.0,100.0
2835,68.0,0,216,4.0,100.0
2836,68.0,0,216,6.0,100.0
2837,64.0,0,216,7.0,100.0
2838,40.0,0,216,10.0,100.0
2839,68.0,120,216,2.0,100.0
2840,28.0,0,216,10.0,100.0
2841,62.0,0,108,5.0,100.0
2842,62.0,120,108,3.0,100.0
2843,62.0,0,108,1.0,100.0
2844,60.0,120,108,3.0,100.0
2845,60.0,0,108,1.0,100.0
2846,60.0,0,108,5.0,100.0
2847,60.0,0,216,8.0,100.0
2848,33.0,0,216,10.0,100.0
2849,64.0,0,216,7.0,100.0
2850,45.0,0,216,10.0,100.0
2851,64.0,0,108,5.0,100.0
2852,64.0,0,108,3.0,100.0
2853,64.0,120,108,1.0,100.0
2854,57.0,0,108,5.0,100.0
2855,57.0,0,108,10.0,100.0
2856,57.0,0,108,1.0,100.0
2857,45.0,120,108,10.0,100.0
2858,57.0,0,108,3.0,100.0
2859,60.0,0,108,3.0,100.0
2860,55.0,120,108,10.0,100.0
2861,43.0,0,108,10.0,100.0
2862,60.0,0,108,1.0,100.0
2863,60.0,0,108,5.0,100.0
2864,62.0,120,108,5.0,100.0
2865,62.0,0,108,1.0,100.0
2866,69.0,0,588,0.0,100.0
2867,53.0,0,108,10.0,100.0
2868,69.0,0,588,6.0,100.0
2869,69.0,0,588,4.0,100.0
2870,69.0,0,588,2.0,100.0
2871,62.0,0,108,3.0,100.0
2872,41.0,0,108,10.0,100.0
2873,62.0,0,216,8.0,100.0
2874,65.0,0,216,7.0,100.0
2875,65.0,0,108,1.0,100.0
2876,50.0,0,108,10.0,100.0
2877,71.0,0,108,0.0,100.0
2878,65.0,0,108,5.0,100.0
2879,71.0,0,108,2.0,100.0
2880,65.0,0,108,3.0,100.0
2881,71.0,0,108,6.0,100.0
2882,71.0,120,108,4.0,100.0
2883,38.0,0,108,10.0,100.0
2884,69.0,120,108,2.0,100.0
2885,57.0,0,108,3.0,100.0
2886,57.0,0,108,5.0,100.0
2887,69.0,0,108,6.0,100.0
2888,53.0,0,108,10.0,100.0
2889,57.0,0,108,1.0,100.0
2890,69.0,0,108,4.0,100.0
2891,69.0,0,108,0.0,100.0
2892,41.0,0,108,10.0,100.0
2893,71.0,120,108,4.0,100.0
2894,50.0,0,108,10.0,100.0
2895,62.0,0,108,3.0,100.0
2896,71.0,0,108,0.0,100.0
2897,62.0,0,108,5.0,100.0
2898,38.0,0,108,10.0,100.0
2899,71.0,0,108,2.0,100.0
2900,71.0,0,108,6.0,100.0
2901,62.0,0,108,1.0,100.0
2902,60.0,0,108,1.0,100.0
2903,60.0,0,108,5.0,100.0
2904,60.0,0,108,3.0,100.0
2905,60.0,0,216,8.0,100.0
2906,64.0,0,216,7.0,100.0
2907,45.0,0,216,10.0,100.0
2908,57.0,0,216,10.0,100.0
2909,64.0,0,108,3.0,100.0
2910,64.0,0,108,5.0,100.0
2911,64.0,120,108,1.0,100.0
2912,57.0,0,108,5.0,100.0
2913,57.0,0,108,1.0,100.0
2914,45.0,0,108,10.0,100.0
2915,57.0,120,108,3.0,100.0
2916,33.0,0,108,10.0,100.0
2917,60.0,0,108,1.0,100.0
2918,60.0,0,108,3.0,100.0
2919,60.0,0,108,5.0,100.0
2920,43.0,120,108,10.0,100.0
2921,31.0,0,108,10.0,100.0
2922,41.0,0,108,10.0,100.0
2923,62.0,0,108,1.0,100.0
2924,69.0,120,588,2.0,100.0
2925,69.0,0,588,4.0,100.0
2926,69.0,0,588,6.0,100.0
2927,62.0,0,108,5.0,100.0
2928,69.0,0,588,0.0,100.0
2929,29.0,0,108,10.0,100.0
2930,62.0,120,108,3.0,100.0
2931,65.0,0,216,8.0,100.0
2932,74.0,0,216,7.0,100.0
2933,71.0,0,108,4.0,100.0
2934,71.0,0,108,0.0,100.0
2935,71.0,0,108,6.0,100.0
2936,26.0,0,108,10.0,100.0
2937,71.0,0,108,2.0,100.0
2938,65.0,0,108,5.0,100.0
2939,38.0,0,108,10.0,100.0
2940,65.0,120,108,1.0,100.0
2941,65.0,0,108,3.0,100.0
2942,57.0,0,108,3.0,100.0
2943,57.0,0,108,1.0,100.0
2944,69.0,0,108,2.0,100.0
2945,69.0,0,108,0.0,100.0
2946,69.0,0,108,6.0,100.0
2947,29.0,0,108,10.0,100.0
2948,41.0,0,108,10.0,100.0
2949,69.0,0,108,4.0,100.0
2950,57.0,120,108,5.0,100.0
2951,26.0,0,108,10.0,100.0
2952,71.0,0,108,2.0,100.0
2953,71.0,0,108,4.0,100.0
2954,62.0,0,108,3.0,100.0
2955,62.0,0,108,1.0,100.0
2956,71.0,120,108,0.0,100.0
2957,38.0,0,108,10.0,100.0
2958,71.0,0,108,6.0,100.0
2959,62.0,0,108,5.0,100.0
2960,69.0,0,108,4.0,100.0
2961,60.0,0,216,1.0,100.0
2962,33.0,0,216,10.0,100.0
2963,60.0,0,216,5.0,100.0
2964,69.0,0,216,6.0,100.0
2965,69.0,0,216,0.0,100.0
2966,60.0,0,216,3.0,100.0
2967,72.0,0,216,7.0,100.0
2968,69.0,0,216,2.0,100.0
2969,64.0,120,216,8.0,100.0
2970,45.0,0,216,10.0,100.0
2971,71.0,120,108,4.0,100.0
2972,72.0,0,108,4.0,100.0
2973,45.0,0,216,10.0,100.0
2974,57.0,0,216,5.0,100.0
2975,57.0,120,216,10.0,100.0
2976,74.0,120,108,4.0,100.0
2977,76.0,120,108,4.0,100.0
2978,78.0,120,54,4.0,100.0
2979,80.0,60,54,4.0,100.0
2980,81.0,0,54,4.0,100.0
2981,45.0,60,108,10.0,100.0
2982,57.0,0,108,10.0,100.0
2983,57.0,0,108,5.0,100.0
2984,80.0,60,54,4.0,100.0
2985,78.0,0,54,4.0,100.0
2986,47.0,60,108,10.0,100.0
2987,59.0,0,108,10.0,100.0
2988,59.0,0,108,5.0,100.0
2989,80.0,60,54,4.0,100.0
2990,81.0,0,108,4.0,100.0
2991,48.0,0,216,10.0,100.0
2992,60.0,0,216,10.0,100.0
2993,60.0,60,216,5.0,100.0
2994,76.0,120,108,4.0,100.0
2995,78.0,0,108,4.0,100.0
2996,57.0,120,216,10.0,100.0
2997,57.0,0,216,5.0,100.0
2998,45.0,0,216,10.0,100.0
2999,73.0,120,108,4.0,100.0
3000,75.0,0,108,4.0,100.0
3001,47.0,120,216,10.0,100.0
3002,59.0,0,216,5.0,100.0
3003,59.0,0,216,10.0,100.0
3004,69.0,120,108,4.0,100.0
3005,71.0,0,108,4.0,100.0
3006,75.0,0,216,0.0,100.0
3007,66.0,0,216,0.0,100.0
3008,59.0,0,216,1.0,100.0
3009,35.0,0,216,10.0,100.0
3010,69.0,0,216,0.0,100.0
3011,71.0,0,216,0.0,100.0
3012,47.0,0,216,10.0,100.0
3013,47.0,120,216,5.0,100.0
3014,66.0,120,108,4.0,100.0
3015,67.0,0,108,4.0,100.0
3016,76.0,0,216,0.0,100.0
3017,67.0,0,216,0.0,100.0
3018,71.0,0,216,0.0,100.0
3019,28.0,120,216,10.0,100.0
3020,52.0,0,216,5.0,100.0
3021,64.0,0,216,1.0,100.0
3022,40.0,0,216,10.0,100.0
3023,63.0,120,108,4.0,100.0
3024,64.0,0,108,4.0,100.0
3025,67.0,0,216,2.0,100.0
3026,64.0,0,216,2.0,100.0
3027,71.0,120,216,2.0,100.0
3028,52.0,0,216,3.0,100.0
3029,67.0,120,108,4.0,100.0
3030,71.0,0,108,4.0,100.0
3031,64.0,0,216,2.0,100.0
3032,59.0,0,216,2.0,100.0
3033,67.0,0,216,2.0,100.0
3034,40.0,120,216,3.0,100.0
3035,75.0,120,108,4.0,100.0
3036,55.0,120,108,5.0,100.0
3037,55.0,0,108,10.0,100.0
3038,43.0,0,108,10.0,100.0
3039,76.0,0,108,4.0,100.0
3040,57.0,120,108,5.0,100.0
3041,57.0,0,108,10.0,100.0
3042,45.0,0,108,10.0,100.0
3043,77.0,0,108,4.0,100.0
3044,79.0,0,54,4.0,100.0
3045,77.0,60,54,4.0,100.0
3046,76.0,60,54,4.0,100.0
3047,58.0,120,216,10.0,100.0
3048,46.0,0,216,10.0,100.0
3049,58.0,0,216,5.0,100.0
3050,74.0,60,54,4.0,100.0
3051,76.0,0,108,4.0,100.0
3052,43.0,0,216,10.0,100.0
3053,55.0,60,216,5.0,100.0
3054,55.0,0,216,10.0,100.0
3055,71.0,120,108,4.0,100.0
3056,73.0,0,108,4.0,100.0
3057,57.0,120,216,5.0,100.0
3058,57.0,0,216,10.0,100.0
3059,45.0,0,216,10.0,100.0
3060,67.0,120,108,4.0,100.0
3061,69.0,0,108,4.0,100.0
3062,33.0,0,216,10.0,100.0
3063,57.0,0,216,1.0,100.0
3064,45.0,0,216,10.0,100.0
3065,67.0,0,216,0.0,100.0
3066,69.0,0,216,0.0,100.0
3067,73.0,0,216,0.0,100.0
3068,45.0,120,216,5.0,100.0
3069,64.0,120,108,4.0,100.0
3070,65.0,0,108,4.0,100.0
3071,38.0,120,216,10.0,100.0
3072,62.0,0,216,1.0,100.0
3073,65.0,0,216,0.0,100.0
3074,26.0,0,216,10.0,100.0
3075,69.0,0,216,0.0,100.0
3076,74.0,0,216,0.0,100.0
3077,50.0,0,216,5.0,100.0
3078,61.0,120,108,4.0,100.0
3079,62.0,0,108,4.0,100.0
3080,69.0,120,216,2.0,100.0
3081,65.0,0,216,2.0,100.0
3082,50.0,0,216,3.0,100.0
3083,62.0,0,216,2.0,100.0
3084,65.0,120,108,4.0,100.0
3085,69.0,120,108,4.0,100.0
3086,57.0,0,216,2.0,100.0
3087,38.0,0,216,3.0,100.0
3088,65.0,0,216,2.0,100.0
3089,62.0,0,216,2.0,100.0
3090,73.0,120,108,4.0,100.0
3091,53.0,120,108,10.0,100.0
3092,74.0,0,108,4.0,100.0
3093,53.0,0,108,5.0,100.0
3094,41.0,0,108,10.0,100.0
3095,55.0,0,108,5.0,100.0
3096,76.0,0,108,4.0,100.0
3097,43.0,120,108,10.0,100.0
3098,55.0,0,108,10.0,100.0
3099,77.0,0,54,4.0,100.0
3100,76.0,60,54,4.0,100.0
3101,74.0,60,54,4.0,100.0
3102,45.0,0,216,10.0,100.0
3103,57.0,120,216,5.0,100.0
3104,57.0,0,216,10.0,100.0
3105,72.0,60,54,4.0,100.0
3106,74.0,0,108,4.0,100.0
3107,53.0,0,216,10.0,100.0
3108,41.0,60,216,10.0,100.0
3109,53.0,0,216,5.0,100.0
3110,69.0,120,108,4.0,100.0
3111,71.0,120,108,4.0,100.0
3112,43.0,0,216,10.0,100.0
3113,55.0,0,216,5.0,100.0
3114,55.0,0,216,10.0,100.0
3115,65.0,120,108,4.0,100.0
3116,67.0,0,108,4.0,100.0
3117,43.0,0,216,10.0,100.0
3118,43.0,0,216,5.0,100.0
3119,65.0,0,216,0.0,100.0
3120,31.0,120,216,10.0,100.0
3121,71.0,0,216,0.0,100.0
3122,55.0,0,216,1.0,100.0
3123,67.0,0,216,0.0,100.0
3124,62.0,120,108,4.0,100.0
3125,64.0,120,108,4.0,100.0
3126,60.0,0,216,1.0,100.0
3127,67.0,0,216,0.0,100.0
3128,72.0,0,216,0.0,100.0
3129,48.0,0,216,5.0,100.0
3130,36.0,0,216,10.0,100.0
3131,24.0,0,216,10.0,100.0
3132,64.0,0,216,0.0,100.0
3133,59.0,120,108,4.0,100.0
3134,60.0,0,108,4.0,100.0
3135,64.0,0,216,2.0,100.0
3136,67.0,120,216,2.0,100.0
3137,60.0,0,216,2.0,100.0
3138,48.0,0,216,3.0,100.0
3139,64.0,120,108,4.0,100.0
3140,67.0,0,108,4.0,100.0
3141,64.0,0,216,2.0,100.0
3142,60.0,0,216,2.0,100.0
3143,55.0,0,216,2.0,100.0
3144,36.0,120,216,3.0,100.0
3145,71.0,120,108,4.0,100.0
3146,64.0,0,108,5.0,100.0
3147,72.0,0,108,4.0,100.0
3148,48.0,120,108,10.0,100.0
3149,60.0,0,108,5.0,100.0
3150,60.0,0,108,10.0,100.0
3151,76.0,0,108,4.0,100.0
3152,50.0,120,108,10.0,100.0
3153,62.0,0,108,10.0,100.0
3154,55.0,0,108,5.0,100.0
3155,79.0,0,54,4.0,100.0
3156,81.0,60,54,4.0,100.0
3157,82.0,60,54,4.0,100.0
3158,64.0,0,216,10.0,100.0
3159,52.0,0,216,10.0,100.0
3160,52.0,120,216,5.0,100.0
3161,81.0,60,54,4.0,100.0
3162,79.0,60,54,4.0,100.0
3163,77.0,60,54,4.0,100.0
3164,76.0,60,54,4.0,100.0
3165,52.0,0,216,10.0,100.0
3166,79.0,0,216,6.0,100.0
3167,76.0,0,216,7.0,100.0
3168,71.0,0,216,8.0,100.0
3169,40.0,0,216,10.0,100.0
3170,74.0,60,54,4.0,100.0
3171,64.0,0,294,5.0,100.0
3172,73.0,0,108,4.0,100.0
3173,62.0,60,54,5.0,100.0
3174,61.0,0,54,5.0,100.0
3175,79.0,0,216,6.0,100.0
3176,45.0,60,216,10.0,100.0
3177,76.0,0,216,7.0,100.0
3178,57.0,0,216,10.0,100.0
3179,69.0,0,216,8.0,100.0
3180,81.0,60,108,4.0,100.0
3181,59.0,60,54,5.0,100.0
3182,57.0,0,54,5.0,100.0
3183,76.0,0,108,4.0,100.0
3184,55.0,60,54,5.0,100.0
3185,53.0,60,54,5.0,100.0
3186,61.0,0,216,10.0,100.0
3187,76.0,0,216,7.0,100.0
3188,79.0,0,216,6.0,100.0
3189,69.0,0,216,8.0,100.0
3190,49.0,60,216,10.0,100.0
3191,79.0,0,108,4.0,100.0
3192,52.0,60,54,5.0,100.0
3193,77.0,60,54,4.0,100.0
3194,79.0,60,54,4.0,100.0
3195,81.0,60,54,4.0,100.0
3196,50.0,0,216,10.0,100.0
3197,50.0,0,216,5.0,100.0
3198,62.0,0,216,10.0,100.0
3199,79.0,60,54,4.0,100.0
3200,77.0,0,54,4.0,100.0
3201,76.0,60,54,4.0,100.0
3202,74.0,60,54,4.0,100.0
3203,74.0,0,216,7.0,100.0
3204,77.0,60,216,6.0,100.0
3205,50.0,0,216,10.0,100.0
3206,69.0,0,216,8.0,100.0
3207,38.0,0,216,10.0,100.0
3208,72.0,60,54,4.0,100.0
3209,62.0,0,294,5.0,100.0
3210,71.0,0,108,4.0,100.0
3211,60.0,60,54,5.0,100.0
3212,59.0,0,54,5.0,100.0
3213,55.0,60,216,10.0,100.0
3214,77.0,0,216,6.0,100.0
3215,67.0,0,216,8.0,100.0
3216,43.0,0,216,10.0,100.0
3217,74.0,0,216,7.0,100.0
3218,79.0,60,108,4.0,100.0
3219,57.0,60,54,5.0,100.0
3220,55.0,0,54,5.0,100.0
3221,74.0,0,108,4.0,100.0
3222,53.0,60,54,5.0,100.0
3223,52.0,60,54,5.0,100.0
3224,67.0,0,216,8.0,100.0
3225,77.0,60,216,6.0,100.0
3226,59.0,0,216,10.0,100.0
3227,47.0,0,216,10.0,100.0
3228,74.0,0,216,7.0,100.0
3229,77.0,0,108,4.0,100.0
3230,50.0,60,54,5.0,100.0
3231,76.0,0,54,4.0,100.0
3232,77.0,60,54,4.0,100.0
3233,79.0,60,54,4.0,100.0
3234,60.0,60,216,10.0,100.0
3235,48.0,0,216,10.0,100.0
3236,48.0,0,216,5.0,100.0
3237,77.0,60,54,4.0,100.0
3238,76.0,0,54,4.0,100.0
3239,74.0,60,54,4.0,100.0
3240,72.0,60,54,4.0,100.0
3241,76.0,0,216,6.0,100.0
3242,48.0,0,216,10.0,100.0
3243,67.0,0,216,8.0,100.0
3244,72.0,0,216,7.0,100.0
3245,36.0,0,216,10.0,100.0
3246,71.0,60,54,4.0,100.0
3247,60.0,60,294,5.0,100.0
3248,69.0,0,108,4.0,100.0
3249,59.0,60,54,5.0,100.0
3250,57.0,0,54,5.0,100.0
3251,72.0,0,216,7.0,100.0
3252,76.0,0,216,6.0,100.0
3253,53.0,0,216,10.0,100.0
3254,65.0,0,216,8.0,100.0
3255,41.0,60,216,10.0,100.0
3256,77.0,60,108,4.0,100.0
3257,55.0,60,54,5.0,100.0
3258,53.0,0,54,5.0,100.0
3259,72.0,0,108,4.0,100.0
3260,52.0,60,54,5.0,100.0
3261,50.0,60,54,5.0,100.0
3262,72.0,60,216,7.0,100.0
3263,57.0,0,216,10.0,100.0
3264,45.0,0,216,10.0,100.0
3265,65.0,0,216,8.0,100.0
3266,76.0,0,216,6.0,100.0
3267,76.0,0,108,4.0,100.0
3268,48.0,60,54,5.0,100.0
3269,74.0,0,54,4.0,100.0
3270,76.0,60,54,4.0,100.0
3271,77.0,60,54,4.0,100.0
3272,47.0,0,216,5.0,100.0
3273,59.0,0,216,10.0,100.0
3274,47.0,60,216,10.0,100.0
3275,76.0,60,54,4.0,100.0
3276,74.0,0,54,4.0,100.0
3277,72.0,60,54,4.0,100.0
3278,71.0,60,54,4.0,100.0
3279,65.0,0,216,8.0,100.0
3280,35.0,0,216,10.0,100.0
3281,71.0,0,216,7.0,100.0
3282,74.0,0,216,6.0,100.0
3283,47.0,0,216,10.0,100.0
3284,69.0,60,54,4.0,100.0
3285,59.0,60,294,5.0,100.0
3286,68.0,0,108,4.0,100.0
3287,57.0,60,54,5.0,100.0
3288,56.0,60,54,5.0,100.0
3289,71.0,0,216,7.0,100.0
3290,52.0,0,216,10.0,100.0
3291,40.0,60,216,10.0,100.0
3292,74.0,0,216,6.0,100.0
3293,64.0,0,216,8.0,100.0
3294,76.0,0,108,4.0,100.0
3295,54.0,60,54,5.0,100.0
3296,52.0,0,54,5.0,100.0
3297,71.0,0,108,4.0,100.0
3298,50.0,60,54,5.0,100.0
3299,48.0,0,54,5.0,100.0
3300,44.0,0,216,10.0,100.0
3301,56.0,0,216,10.0,100.0
3302,64.0,0,216,8.0,100.0
3303,74.0,0,216,6.0,100.0
3304,71.0,60,216,7.0,100.0
3305,74.0,60,108,4.0,100.0
3306,47.0,60,54,5.0,100.0
3307,69.0,60,54,4.0,100.0
3308,71.0,60,54,4.0,100.0
3309,57.0,60,216,10.0,100.0
3310,45.0,0,216,5.0,100.0
3311,45.0,0,216,10.0,100.0
3312,72.0,60,54,4.0,100.0
3313,76.0,0,54,4.0,100.0
3314,45.0,60,108,10.0,100.0
3315,33.0,0,108,10.0,100.0
3316,72.0,60,54,4.0,100.0
3317,71.0,0,54,4.0,100.0
3318,47.0,60,108,10.0,100.0
3319,35.0,0,108,10.0,100.0
3320,69.0,60,54,4.0,100.0
3321,36.0,0,108,10.0,100.0
3322,48.0,60,108,10.0,100.0
3323,69.0,60,54,4.0,100.0
3324,71.0,0,54,4.0,100.0
3325,57.0,0,216,5.0,100.0
3326,35.0,60,108,10.0,100.0
3327,47.0,0,108,10.0,100.0
3328,72.0,60,54,4.0,100.0
3329,76.0,60,54,4.0,100.0
3330,36.0,0,108,10.0,100.0
3331,48.0,0,108,10.0,100.0
3332,72.0,60,54,4.0,100.0
3333,72.0,0,864,6.0,100.0
3334,71.0,0,54,4.0,100.0
3335,50.0,0,108,10.0,100.0
3336,38.0,60,108,10.0,100.0
3337,69.0,60,54,4.0,100.0
3338,40.0,0,108,10.0,100.0
3339,52.0,60,108,10.0,100.0
3340,69.0,60,54,4.0,100.0
3341,71.0,0,54,4.0,100.0
3342,64.0,0,216,5.0,100.0
3343,51.0,0,108,10.0,100.0
3344,39.0,60,108,10.0,100.0
3345,75.0,60,54,4.0,100.0
3346,76.0,0,54,4.0,100.0
3347,52.0,0,108,10.0,100.0
3348,40.0,60,108,10.0,100.0
3349,75.0,60,54,4.0,100.0
3350,71.0,0,54,4.0,100.0
3351,71.0,0,432,6.0,100.0
3352,69.0,0,1392,7.0,100.0
3353,64.0,0,1392,8.0,100.0
3354,54.0,60,108,10.0,100.0
3355,42.0,0,108,10.0,100.0
3356,69.0,60,54,4.0,100.0
3357,43.0,0,108,10.0,100.0
3358,55.0,0,108,10.0,100.0
3359,67.0,60,54,4.0,100.0
3360,69.0,0,54,4.0,100.0
3361,52.0,0,216,5.0,100.0
3362,42.0,0,108,10.0,100.0
3363,54.0,60,108,10.0,100.0
3364,71.0,60,54,4.0,100.0
3365,76.0,60,54,4.0,100.0
3366,43.0,0,108,10.0,100.0
3367,55.0,0,108,10.0,100.0
3368,71.0,60,54,4.0,100.0
3369,69.0,0,54,4.0,100.0
3370,67.0,0,432,7.0,100.0
3371,57.0,60,108,10.0,100.0
3372,45.0,0,108,10.0,100.0
3373,67.0,60,54,4.0,100.0
3374,47.0,60,108,10.0,100.0
3375,59.0,0,108,10.0,100.0
3376,66.0,60,54,4.0,100.0
3377,67.0,60,54,4.0,100.0
3378,59.0,0,216,5.0,100.0
3379,45.0,0,108,10.0,100.0
3380,57.0,0,108,10.0,100.0
3381,69.0,60,54,4.0,100.0
3382,76.0,60,54,4.0,100.0
3383,47.0,0,108,10.0,100.0
3384,59.0,0,108,10.0,100.0
3385,69.0,60,54,4.0,100.0
3386,67.0,0,54,4.0,100.0
3387,76.0,0,912,6.0,100.0
3388,60.0,0,108,10.0,100.0
3389,48.0,60,108,10.0,100.0
3390,66.0,60,54,4.0,100.0
3391,50.0,0,108,10.0,100.0
3392,62.0,0,108,10.0,100.0
3393,66.0,60,54,4.0,100.0
3394,67.0,0,54,4.0,100.0
3395,47.0,0,216,5.0,100.0
3396,48.0,60,108,10.0,100.0
3397,60.0,0,108,10.0,100.0
3398,69.0,60,54,4.0,100.0
3399,75.0,0,54,4.0,100.0
3400,50.0,0,108,10.0,100.0
3401,62.0,60,108,10.0,100.0
3402,69.0,60,54,4.0,100.0
3403,66.0,0,864,7.0,100.0
3404,67.0,0,54,4.0,100.0
3405,47.0,60,108,10.0,100.0
3406,59.0,0,108,10.0,100.0
3407,66.0,60,54,4.0,100.0
3408,64.0,0,108,10.0,100.0
3409,52.0,0,108,10.0,100.0
3410,68.0,60,54,4.0,100.0
3411,69.0,60,54,4.0,100.0
3412,52.0,0,216,5.0,100.0
3413,59.0,60,1656,8.0,100.0
3414,74.0,60,696,6.0,100.0
3415,50.0,0,108,10.0,100.0
3416,62.0,0,108,10.0,100.0
3417,71.0,60,54,4.0,100.0
3418,74.0,0,54,4.0,100.0
3419,52.0,0,108,10.0,100.0
3420,64.0,0,108,10.0,100.0
3421,71.0,60,54,4.0,100.0
3422,69.0,60,54,4.0,100.0
3423,71.0,60,216,6.0,100.0
3424,53.0,0,108,10.0,100.0
3425,65.0,0,108,10.0,100.0
3426,68.0,60,54,4.0,100.0
3427,52.0,0,108,10.0,100.0
3428,64.0,60,108,10.0,100.0
3429,68.0,60,54,4.0,100.0
3430,69.0,0,54,4.0,100.0
3431,76.0,0,216,6.0,100.0
3432,40.0,0,216,5.0,100.0
3433,50.0,0,108,10.0,100.0
3434,62.0,60,108,10.0,100.0
3435,71.0,60,54,4.0,100.0
3436,74.0,0,54,4.0,100.0
3437,48.0,60,108,10.0,100.0
3438,60.0,0,108,10.0,100.0
3439,71.0,60,54,4.0,100.0
3440,68.0,60,864,7.0,100.0
3441,69.0,60,54,4.0,100.0
3442,74.0,0,216,6.0,100.0
3443,59.0,0,108,10.0,100.0
3444,47.0,0,108,10.0,100.0
3445,68.0,60,54,4.0,100.0
3446,57.0,0,108,10.0,100.0
3447,45.0,0,108,10.0,100.0
3448,67.0,60,54,4.0,100.0
3449,69.0,60,54,4.0,100.0
3450,64.0,0,936,8.0,100.0
3451,45.0,0,216,5.0,100.0
3452,67.0,0,216,7.0,100.0
3453,43.0,0,108,10.0,100.0
3454,55.0,0,108,10.0,100.0
3455,70.0,60,54,4.0,100.0
3456,73.0,60,54,4.0,100.0
3457,45.0,0,108,10.0,100.0
3458,57.0,0,108,10.0,100.0
3459,70.0,60,54,4.0,100.0
3460,69.0,0,54,4.0,100.0
3461,64.0,0,216,7.0,100.0
3462,58.0,60,108,10.0,100.0
3463,46.0,0,108,10.0,100.0
3464,67.0,60,54,4.0,100.0
3465,57.0,60,108,10.0,100.0
3466,45.0,0,108,10.0,100.0
3467,67.0,60,54,4.0,100.0
3468,69.0,0,54,4.0,100.0
3469,57.0,0,216,5.0,100.0
3470,69.0,0,216,7.0,100.0
3471,43.0,60,108,10.0,100.0
3472,55.0,0,108,10.0,100.0
3473,70.0,60,54,4.0,100.0
3474,73.0,0,54,4.0,100.0
3475,53.0,60,108,10.0,100.0
3476,41.0,0,108,10.0,100.0
3477,70.0,60,54,4.0,100.0
3478,73.0,60,864,6.0,100.0
3479,69.0,0,54,4.0,100.0
3480,67.0,0,216,7.0,100.0
3481,40.0,60,108,10.0,100.0
3482,52.0,0,108,10.0,100.0
3483,67.0,60,54,4.0,100.0
3484,38.0,0,108,10.0,100.0
3485,50.0,60,108,10.0,100.0
3486,66.0,60,54,4.0,100.0
3487,67.0,0,54,4.0,100.0
3488,57.0,0,936,8.0,100.0
3489,72.0,0,216,6.0,100.0
3490,62.0,0,216,5.0,100.0
3491,36.0,60,108,10.0,100.0
3492,48.0,0,108,10.0,100.0
3493,69.0,60,54,4.0,100.0
3494,72.0,0,54,4.0,100.0
3495,38.0,0,108,10.0,100.0
3496,50.0,0,108,10.0,100.0
3497,69.0,60,54,4.0,100.0
3498,67.0,0,54,4.0,100.0
3499,69.0,60,216,6.0,100.0
3500,52.0,0,108,10.0,100.0
3501,40.0,60,108,10.0,100.0
3502,66.0,60,54,4.0,100.0
3503,50.0,0,108,10.0,100.0
3504,38.0,0,108,10.0,100.0
3505,66.0,60,54,4.0,100.0
3506,67.0,0,54,4.0,100.0
3507,74.0,0,216,6.0,100.0
3508,50.0,60,216,5.0,100.0
3509,36.0,0,108,10.0,100.0
3510,48.0,60,108,10.0,100.0
3511,69.0,60,54,4.0,100.0
3512,72.0,60,54,4.0,100.0
3513,47.0,0,108,10.0,100.0
3514,35.0,0,108,10.0,100.0
3515,69.0,60,54,4.0,100.0
3516,66.0,0,864,7.0,100.0
3517,67.0,0,54,4.0,100.0
3518,72.0,0,216,6.0,100.0
3519,33.0,60,108,10.0,100.0
3520,45.0,0,108,10.0,100.0
3521,66.0,60,54,4.0,100.0
3522,55.0,0,108,10.0,100.0
3523,43.0,0,108,10.0,100.0
3524,65.0,60,54,4.0,100.0
3525,67.0,60,54,4.0,100.0
3526,43.0,0,216,5.0,100.0
3527,62.0,0,936,8.0,100.0
3528,65.0,0,216,7.0,100.0
3529,41.0,0,108,10.0,100.0
3530,53.0,0,108,10.0,100.0
3531,68.0,60,54,4.0,100.0
3532,71.0,60,54,4.0,100.0
3533,55.0,0,108,10.0,100.0
3534,43.0,0,108,10.0,100.0
3535,68.0,60,54,4.0,100.0
3536,67.0,60,54,4.0,100.0
3537,62.0,0,216,7.0,100.0
3538,57.0,0,108,10.0,100.0
3539,45.0,0,108,10.0,100.0
3540,65.0,60,54,4.0,100.0
3541,43.0,0,108,10.0,100.0
3542,55.0,0,108,10.0,100.0
3543,65.0,60,54,4.0,100.0
3544,67.0,60,54,4.0,100.0
3545,67.0,60,216,7.0,100.0
3546,55.0,0,216,5.0,100.0
3547,53.0,0,108,10.0,100.0
3548,41.0,0,108,10.0,100.0
3549,68.0,60,54,4.0,100.0
3550,71.0,0,54,4.0,100.0
3551,52.0,0,108,10.0,100.0
3552,40.0,60,108,10.0,100.0
3553,68.0,60,54,4.0,100.0
3554,71.0,60,864,6.0,100.0
3555,67.0,0,54,4.0,100.0
3556,65.0,0,216,7.0,100.0
3557,50.0,0,108,10.0,100.0
3558,38.0,60,108,10.0,100.0
3559,65.0,60,54,4.0,100.0
3560,48.0,0,108,10.0,100.0
3561,36.0,60,108,10.0,100.0
3562,64.0,60,54,4.0,100.0
3563,65.0,0,54,4.0,100.0
3564,70.0,0,216,6.0,100.0
3565,60.0,0,216,5.0,100.0
3566,55.0,0,936,8.0,100.0
3567,47.0,60,108,10.0,100.0
3568,35.0,0,108,10.0,100.0
3569,67.0,60,54,4.0,100.0
3570,70.0,60,54,4.0,100.0
3571,48.0,0,108,10.0,100.0
3572,36.0,0,108,10.0,100.0
3573,67.0,60,54,4.0,100.0
3574,65.0,60,54,4.0,100.0
3575,67.0,0,216,6.0,100.0
3576,50.0,0,108,10.0,100.0
3577,38.0,0,108,10.0,100.0
3578,64.0,60,54,4.0,100.0
3579,48.0,0,108,10.0,100.0
3580,36.0,0,108,10.0,100.0
3581,64.0,60,54,4.0,100.0
3582,65.0,60,54,4.0,100.0
3583,72.0,60,216,6.0,100.0
3584,48.0,0,216,5.0,100.0
3585,46.0,0,108,10.0,100.0
3586,34.0,0,108,10.0,100.0
3587,67.0,60,54,4.0,100.0
3588,70.0,60,54,4.0,100.0
3589,45.0,0,108,10.0,100.0
3590,33.0,0,108,10.0,100.0
3591,67.0,60,54,4.0,100.0
3592,60.0,0,648,8.0,100.0
3593,65.0,60,54,4.0,100.0
3594,70.0,0,216,6.0,100.0
3595,43.0,0,108,10.0,100.0
3596,31.0,0,108,10.0,100.0
3597,64.0,60,54,4.0,100.0
3598,42.0,0,108,10.0,100.0
3599,54.0,0,108,10.0,100.0
3600,64.0,60,54,4.0,100.0
3601,66.0,60,54,4.0,100.0
3602,64.0,0,1176,7.0,100.0
3603,42.0,0,216,5.0,100.0
3604,60.0,60,216,8.0,100.0
3605,52.0,0,108,10.0,100.0
3606,40.0,0,108,10.0,100.0
3607,67.0,60,54,4.0,100.0
3608,69.0,0,54,4.0,100.0
3609,42.0,0,108,10.0,100.0
3610,54.0,0,108,10.0,100.0
3611,67.0,60,54,4.0,100.0
3612,66.0,60,54,4.0,100.0
3613,61.0,60,216,7.0,100.0
3614,43.0,0,108,10.0,100.0
3615,55.0,0,108,10.0,100.0
3616,64.0,60,54,4.0,100.0
3617,54.0,60,108,10.0,100.0
3618,42.0,0,108,10.0,100.0
3619,64.0,60,54,4.0,100.0
3620,66.0,60,54,4.0,100.0
3621,54.0,0,216,5.0,100.0
3622,66.0,0,216,7.0,100.0
3623,52.0,0,108,10.0,100.0
3624,40.0,0,108,10.0,100.0
3625,67.0,60,54,4.0,100.0
3626,69.0,60,54,4.0,100.0
3627,51.0,0,108,10.0,100.0
3628,39.0,0,108,10.0,100.0
3629,67.0,60,54,4.0,100.0
3630,66.0,0,54,4.0,100.0
3631,64.0,0,216,7.0,100.0
3632,37.0,60,108,10.0,100.0
3633,49.0,0,108,10.0,100.0
3634,64.0,60,54,4.0,100.0
3635,35.0,60,108,10.0,100.0
3636,47.0,0,108,10.0,100.0
3637,63.0,60,54,4.0,100.0
3638,64.0,60,54,4.0,100.0
3639,69.0,0,1176,6.0,100.0
3640,59.0,0,216,5.0,100.0
3641,54.0,0,936,8.0,100.0
3642,33.0,0,108,10.0,100.0
3643,45.0,0,108,10.0,100.0
3644,66.0,60,54,4.0,100.0
3645,69.0,0,54,4.0,100.0
3646,35.0,0,108,10.0,100.0
3647,47.0,0,108,10.0,100.0
3648,66.0,60,54,4.0,100.0
3649,64.0,60,54,4.0,100.0
3650,66.0,0,216,6.0,100.0
3651,36.0,0,108,10.0,100.0
3652,48.0,0,108,10.0,100.0
3653,63.0,60,54,4.0,100.0
3654,35.0,60,108,10.0,100.0
3655,47.0,0,108,10.0,100.0
3656,63.0,60,54,4.0,100.0
3657,64.0,0,54,4.0,100.0
3658,47.0,0,216,5.0,100.0
3659,71.0,0,216,6.0,100.0
3660,45.0,0,108,10.0,100.0
3661,33.0,60,108,10.0,100.0
3662,66.0,60,54,4.0,100.0
3663,69.0,0,54,4.0,100.0
3664,43.0,60,108,10.0,100.0
3665,31.0,0,108,10.0,100.0
3666,66.0,60,54,4.0,100.0
3667,63.0,0,864,7.0,100.0
3668,64.0,0,54,4.0,100.0
3669,69.0,0,216,6.0,100.0
3670,42.0,0,108,10.0,100.0
3671,30.0,60,108,10.0,100.0
3672,63.0,60,54,4.0,100.0
3673,59.0,60,828,8.0,100.0
3674,64.0,0,216,7.0,100.0
3675,40.0,60,216,5.0,100.0
3676,64.0,0,216,4.0,100.0
3677,67.0,0,216,6.0,100.0
3678,57.0,120,108,8.0,100.0
3679,52.0,120,108,5.0,100.0
3680,52.0,0,108,3.0,100.0
3681,55.0,0,108,8.0,100.0
3682,52.0,0,108,1.0,100.0
3683,55.0,0,108,4.0,100.0
3684,67.0,0,216,2.0,100.0
3685,71.0,0,216,0.0,100.0
3686,67.0,0,216,7.0,100.0
3687,71.0,0,216,6.0,100.0
3688,51.0,0,108,5.0,100.0
3689,51.0,0,108,3.0,100.0
3690,54.0,0,108,8.0,100.0
3691,51.0,120,108,1.0,100.0
3692,54.0,0,108,4.0,100.0
3693,52.0,0,108,5.0,100.0
3694,52.0,0,108,3.0,100.0
3695,52.0,0,108,1.0,100.0
3696,55.0,120,108,4.0,100.0
3697,55.0,0,108,8.0,100.0
3698,71.0,0,216,7.0,100.0
3699,67.0,0,216,6.0,100.0
3700,71.0,0,216,2.0,100.0
3701,67.0,0,216,0.0,100.0
3702,54.0,120,108,3.0,100.0
3703,54.0,0,108,1.0,100.0
3704,54.0,0,108,5.0,100.0
3705,57.0,0,108,8.0,100.0
3706,57.0,0,108,4.0,100.0
3707,55.0,0,108,5.0,100.0
3708,59.0,0,108,4.0,100.0
3709,55.0,0,108,3.0,100.0
3710,59.0,0,108,8.0,100.0
3711,55.0,0,108,1.0,100.0
3712,52.0,0,864,10.0,100.0
3713,40.0,0,864,10.0,100.0
3714,64.0,0,216,6.0,100.0
3715,64.0,0,216,0.0,100.0
3716,67.0,120,216,2.0,100.0
3717,67.0,0,216,7.0,100.0
3718,60.0,120,108,8.0,100.0
3719,60.0,0,108,4.0,100.0
3720,57.0,0,108,3.0,100.0
3721,57.0,0,108,5.0,100.0
3722,57.0,0,108,1.0,100.0
3723,59.0,0,108,3.0,100.0
3724,59.0,120,108,5.0,100.0
3725,62.0,0,108,8.0,100.0
3726,59.0,0,108,1.0,100.0
3727,62.0,0,108,4.0,100.0
3728,66.0,0,216,7.0,100.0
3729,66.0,0,216,2.0,100.0
3730,57.0,0,108,1.0,100.0
3731,60.0,0,108,4.0,100.0
3732,57.0,120,108,5.0,100.0
3733,60.0,0,108,8.0,100.0
3734,57.0,0,108,3.0,100.0
3735,62.0,0,108,4.0,100.0
3736,59.0,120,108,3.0,100.0
3737,62.0,0,108,8.0,100.0
3738,71.0,0,108,2.0,100.0
3739,59.0,0,108,5.0,100.0
3740,59.0,0,108,1.0,100.0
3741,78.0,0,216,0.0,100.0
3742,59.0,0,216,7.0,100.0
3743,78.0,0,216,6.0,100.0
3744,60.0,120,108,5.0,100.0
3745,60.0,0,108,1.0,100.0
3746,64.0,0,108,8.0,100.0
3747,69.0,0,108,2.0,100.0
3748,64.0,0,108,4.0,100.0
3749,60.0,0,108,3.0,100.0
3750,66.0,120,108,4.0,100.0
3751,62.0,0,108,1.0,100.0
3752,66.0,0,108,8.0,100.0
3753,62.0,0,108,5.0,100.0
3754,62.0,0,108,3.0,100.0
3755,74.0,0,216,6.0,100.0
3756,74.0,0,216,0.0,100.0
3757,64.0,120,108,8.0,100.0
3758,60.0,0,108,3.0,100.0
3759,64.0,0,108,4.0,100.0
3760,60.0,0,108,1.0,100.0
3761,60.0,0,108,5.0,100.0
3762,66.0,120,108,4.0,100.0
3763,62.0,0,108,1.0,100.0
3764,62.0,0,108,3.0,100.0
3765,66.0,0,108,8.0,100.0
3766,62.0,0,108,5.0,100.0
3767,38.0,0,864,10.0,100.0
3768,50.0,0,864,10.0,100.0
3769,71.0,0,216,0.0,100.0
3770,71.0,0,216,6.0,100.0
3771,64.0,0,108,4.0,100.0
3772,62.0,120,108,8.0,100.0
3773,59.0,0,108,5.0,100.0
3774,59.0,0,108,3.0,100.0
3775,59.0,0,108,1.0,100.0
3776,67.0,0,108,8.0,100.0
3777,71.0,0,588,2.0,100.0
3778,64.0,0,108,3.0,100.0
3779,67.0,0,108,4.0,100.0
3780,64.0,0,108,5.0,100.0
3781,64.0,120,108,1.0,100.0
3782,71.0,0,696,7.0,100.0
3783,63.0,0,108,1.0,100.0
3784,72.0,0,108,2.0,100.0
3785,66.0,0,108,4.0,100.0
3786,63.0,0,108,3.0,100.0
3787,63.0,0,108,5.0,100.0
3788,66.0,120,108,8.0,100.0
3789,64.0,0,108,3.0,100.0
3790,76.0,0,108,6.0,100.0
3791,64.0,0,108,5.0,100.0
3792,71.0,0,108,2.0,100.0
3793,67.0,120,108,8.0,100.0
3794,67.0,0,108,4.0,100.0
3795,64.0,0,108,1.0,100.0
3796,76.0,0,108,0.0,100.0
3797,64.0,0,216,7.0,100.0
3798,66.0,0,108,1.0,100.0
3799,75.0,0,108,0.0,100.0
3800,69.0,120,108,2.0,100.0
3801,75.0,0,108,6.0,100.0
3802,66.0,0,108,5.0,100.0
3803,69.0,0,108,8.0,100.0
3804,66.0,0,108,3.0,100.0
3805,69.0,0,108,4.0,100.0
3806,76.0,0,108,0.0,100.0
3807,64.0,0,108,1.0,100.0
3808,76.0,0,108,7.0,100.0
3809,71.0,120,108,4.0,100.0
3810,64.0,0,108,5.0,100.0
3811,67.0,0,108,2.0,100.0
3812,76.0,0,108,6.0,100.0
3813,64.0,0,108,3.0,100.0
3814,71.0,0,108,8.0,100.0
3815,71.0,0,108,2.0,100.0
3816,67.0,0,108,3.0,100.0
3817,69.0,120,108,4.0,100.0
3818,78.0,0,108,0.0,100.0
3819,67.0,0,108,1.0,100.0
3820,75.0,0,108,7.0,100.0
3821,69.0,0,108,8.0,100.0
3822,67.0,0,108,5.0,100.0
3823,78.0,0,108,6.0,100.0
3824,66.0,0,108,3.0,100.0
3825,79.0,120,108,0.0,100.0
3826,71.0,0,108,8.0,100.0
3827,71.0,0,108,4.0,100.0
3828,66.0,0,108,1.0,100.0
3829,66.0,0,108,5.0,100.0
3830,79.0,0,108,6.0,100.0
3831,36.0,0,864,10.0,100.0
3832,48.0,0,864,10.0,100.0
3833,76.0,0,216,2.0,100.0
3834,76.0,0,216,7.0,100.0
3835,72.0,120,108,8.0,100.0
3836,64.0,0,108,3.0,100.0
3837,64.0,0,108,1.0,100.0
3838,64.0,0,108,5.0,100.0
3839,81.0,0,108,6.0,100.0
3840,81.0,0,108,0.0,100.0
3841,72.0,0,108,4.0,100.0
3842,63.0,0,108,5.0,100.0
3843,63.0,0,108,1.0,100.0
3844,66.0,0,108,4.0,100.0
3845,83.0,0,108,6.0,100.0
3846,83.0,0,108,0.0,100.0
3847,78.0,120,108,7.0,100.0
3848,63.0,0,108,3.0,100.0
3849,78.0,0,108,2.0,100.0
3850,35.0,0,216,10.0,100.0
3851,66.0,0,216,8.0,100.0
3852,47.0,0,216,10.0,100.0
3853,75.0,0,108,2.0,100.0
3854,75.0,0,108,7.0,100.0
3855,78.0,0,108,6.0,100.0
3856,78.0,0,108,0.0,100.0
3857,66.0,0,108,1.0,100.0
3858,66.0,0,108,3.0,100.0
3859,66.0,120,108,5.0,100.0
3860,71.0,0,108,4.0,100.0
3861,75.0,0,108,4.0,100.0
3862,78.0,0,108,7.0,100.0
3863,75.0,120,108,6.0,100.0
3864,75.0,0,108,0.0,100.0
3865,59.0,0,108,10.0,100.0
3866,78.0,0,108,2.0,100.0
3867,59.0,0,108,5.0,100.0
3868,47.0,0,108,10.0,100.0
3869,59.0,0,108,1.0,100.0
3870,59.0,0,108,3.0,100.0
3871,78.0,0,108,6.0,100.0
3872,71.0,0,108,4.0,100.0
3873,45.0,0,108,10.0,100.0
3874,63.0,0,108,3.0,100.0
3875,63.0,0,108,5.0,100.0
3876,83.0,120,108,2.0,100.0
3877,63.0,0,108,1.0,100.0
3878,78.0,0,108,0.0,100.0
3879,57.0,0,108,10.0,100.0
3880,83.0,0,108,7.0,100.0
3881,64.0,0,108,1.0,100.0
3882,64.0,0,108,3.0,100.0
3883,64.0,120,108,5.0,100.0
3884,76.0,0,108,4.0,100.0
3885,71.0,0,432,8.0,100.0
3886,76.0,0,216,7.0,100.0
3887,43.0,0,216,10.0,100.0
3888,55.0,0,216,10.0,100.0
3889,71.0,0,216,2.0,100.0
3890,67.0,0,108,3.0,100.0
3891,67.0,0,108,1.0,100.0
3892,67.0,0,108,5.0,100.0
3893,71.0,120,108,4.0,100.0
3894,59.0,0,108,3.0,100.0
3895,59.0,120,108,1.0,100.0
3896,59.0,0,108,5.0,100.0
3897,67.0,0,108,4.0,100.0
3898,67.0,0,216,8.0,100.0
3899,79.0,0,216,2.0,100.0
3900,40.0,0,216,10.0,100.0
3901,79.0,0,216,7.0,100.0
3902,52.0,0,216,10.0,100.0
3903,71.0,0,108,4.0,100.0
3904,62.0,120,108,3.0,100.0
3905,62.0,0,108,1.0,100.0
3906,62.0,0,108,5.0,100.0
3907,60.0,0,108,5.0,100.0
3908,60.0,0,108,3.0,100.0
3909,60.0,0,108,1.0,100.0
3910,64.0,0,108,4.0,100.0
3911,83.0,0,588,0.0,100.0
3912,83.0,0,588,6.0,100.0
3913,45.0,0,216,10.0,100.0
3914,79.0,0,216,2.0,100.0
3915,57.0,0,216,10.0,100.0
3916,64.0,0,216,8.0,100.0
3917,79.0,120,216,7.0,100.0
3918,64.0,0,108,1.0,100.0
3919,64.0,0,108,5.0,100.0
3920,64.0,0,108,3.0,100.0
3921,76.0,0,108,6.0,100.0
3922,67.0,0,108,4.0,100.0
3923,76.0,120,108,0.0,100.0
3924,78.0,0,108,2.0,100.0
3925,57.0,0,108,1.0,100.0
3926,57.0,0,108,3.0,100.0
3927,57.0,0,108,5.0,100.0
3928,78.0,0,108,7.0,100.0
3929,72.0,120,108,6.0,100.0
3930,72.0,0,108,0.0,100.0
3931,55.0,0,216,10.0,100.0
3932,43.0,0,216,10.0,100.0
3933,76.0,0,108,7.0,100.0
3934,60.0,0,108,1.0,100.0
3935,76.0,120,108,2.0,100.0
3936,60.0,0,108,5.0,100.0
3937,76.0,0,108,6.0,100.0
3938,76.0,0,108,0.0,100.0
3939,60.0,0,108,3.0,100.0
3940,62.0,0,108,3.0,100.0
3941,72.0,0,348,4.0,100.0
3942,62.0,0,108,1.0,100.0
3943,62.0,0,108,5.0,100.0
3944,69.0,0,432,8.0,100.0
3945,54.0,0,216,10.0,100.0
3946,42.0,0,216,10.0,100.0
3947,78.0,120,216,2.0,100.0
3948,78.0,0,216,7.0,100.0
3949,66.0,0,108,3.0,100.0
3950,69.0,120,108,4.0,100.0
3951,66.0,0,108,1.0,100.0
3952,66.0,0,108,5.0,100.0
3953,57.0,0,108,5.0,100.0
3954,57.0,0,108,3.0,100.0
3955,57.0,0,108,1.0,100.0
3956,66.0,120,108,4.0,100.0
3957,38.0,0,216,10.0,100.0
3958,78.0,0,216,7.0,100.0
3959,50.0,0,216,10.0,100.0
3960,66.0,0,216,8.0,100.0
3961,78.0,0,216,2.0,100.0
3962,60.0,120,108,3.0,100.0
3963,60.0,0,108,1.0,100.0
3964,69.0,0,108,4.0,100.0
3965,60.0,0,108,5.0,100.0
3966,81.0,0,588,6.0,100.0
3967,59.0,0,108,5.0,100.0
3968,62.0,120,108,4.0,100.0
3969,59.0,0,108,1.0,100.0
3970,81.0,0,588,0.0,100.0
3971,59.0,0,108,3.0,100.0
3972,78.0,0,216,7.0,100.0
3973,78.0,0,216,2.0,100.0
3974,62.0,0,216,8.0,100.0
3975,62.0,0,108,3.0,100.0
3976,62.0,0,108,1.0,100.0
3977,62.0,120,108,5.0,100.0
3978,74.0,0,108,0.0,100.0
3979,74.0,0,108,6.0,100.0
3980,66.0,0,108,4.0,100.0
3981,71.0,0,108,0.0,100.0
3982,55.0,0,108,1.0,100.0
3983,71.0,0,108,6.0,100.0
3984,43.0,0,108,10.0,100.0
3985,55.0,120,108,5.0,100.0
3986,55.0,0,108,10.0,100.0
3987,76.0,0,108,2.0,100.0
3988,76.0,0,108,7.0,100.0
3989,55.0,0,108,3.0,100.0
3990,75.0,0,108,2.0,100.0
3991,75.0,0,108,7.0,100.0
3992,59.0,0,108,5.0,100.0
3993,54.0,0,108,10.0,100.0
3994,74.0,0,108,0.0,100.0
3995,42.0,120,108,10.0,100.0
3996,59.0,0,108,3.0,100.0
3997,74.0,0,108,6.0,100.0
3998,59.0,0,108,1.0,100.0
3999,60.0,0,108,5.0,100.0
4000,71.0,0,348,4.0,100.0
4001,60.0,0,108,3.0,100.0
4002,60.0,120,108,1.0,100.0
4003,67.0,0,432,8.0,100.0
4004,52.0,0,216,10.0,100.0
4005,76.0,0,216,7.0,100.0
4006,40.0,0,216,10.0,100.0
4007,76.0,0,216,2.0,100.0
4008,67.0,120,108,4.0,100.0
4009,64.0,0,108,3.0,100.0
4010,64.0,0,108,1.0,100.0
4011,64.0,0,108,5.0,100.0
4012,55.0,0,108,5.0,100.0
4013,64.0,0,108,4.0,100.0
4014,55.0,0,108,1.0,100.0
4015,55.0,0,108,3.0,100.0
4016,36.0,0,216,10.0,100.0
4017,48.0,120,216,10.0,100.0
4018,76.0,0,216,2.0,100.0
4019,76.0,0,216,7.0,100.0
4020,64.0,0,216,8.0,100.0
4021,59.0,0,108,1.0,100.0
4022,67.0,0,108,4.0,100.0
4023,59.0,0,108,3.0,100.0
4024,59.0,120,108,5.0,100.0
4025,57.0,120,108,5.0,100.0
4026,57.0,0,108,1.0,100.0
4027,79.0,0,588,6.0,100.0
4028,57.0,0,108,3.0,100.0
4029,79.0,0,588,0.0,100.0
4030,60.0,0,108,4.0,100.0
4031,76.0,0,216,2.0,100.0
4032,60.0,0,216,8.0,100.0
4033,42.0,0,216,10.0,100.0
4034,54.0,0,216,10.0,100.0
4035,76.0,0,216,7.0,100.0
4036,60.0,120,108,3.0,100.0
4037,72.0,0,108,0.0,100.0
4038,60.0,0,108,5.0,100.0
4039,72.0,0,108,6.0,100.0
4040,60.0,0,108,1.0,100.0
4041,64.0,0,108,4.0,100.0
4042,74.0,0,108,7.0,100.0
4043,54.0,0,108,3.0,100.0
4044,54.0,0,108,5.0,100.0
4045,54.0,0,108,1.0,100.0
4046,69.0,0,108,6.0,100.0
4047,69.0,0,108,0.0,100.0
4048,74.0,0,108,2.0,100.0
4049,52.0,120,216,10.0,100.0
4050,40.0,0,216,10.0,100.0
4051,57.0,0,108,5.0,100.0
4052,57.0,0,108,1.0,100.0
4053,57.0,0,108,3.0,100.0
4054,73.0,0,108,2.0,100.0
4055,73.0,0,108,7.0,100.0
4056,72.0,120,108,6.0,100.0
4057,72.0,0,108,0.0,100.0
4058,74.0,0,108,7.0,100.0
4059,59.0,0,108,3.0,100.0
4060,59.0,0,108,1.0,100.0
4061,78.0,0,108,6.0,100.0
4062,74.0,0,108,2.0,100.0
4063,69.0,0,348,4.0,100.0
4064,78.0,0,108,0.0,100.0
4065,59.0,0,108,5.0,100.0
4066,66.0,0,432,8.0,100.0
4067,62.0,0,108,5.0,100.0
4068,66.0,0,108,4.0,100.0
4069,74.0,0,108,6.0,100.0
4070,78.0,0,108,7.0,100.0
4071,74.0,0,108,0.0,100.0
4072,62.0,120,108,1.0,100.0
4073,62.0,0,108,3.0,100.0
4074,78.0,0,108,2.0,100.0
4075,62.0,0,108,4.0,100.0
4076,54.0,0,108,5.0,100.0
4077,71.0,0,108,0.0,100.0
4078,54.0,0,108,1.0,100.0
4079,54.0,0,108,3.0,100.0
4080,71.0,120,108,6.0,100.0
4081,62.0,0,216,8.0,100.0
4082,74.0,0,108,6.0,100.0
4083,57.0,0,108,5.0,100.0
4084,74.0,0,108,0.0,100.0
4085,66.0,0,108,4.0,100.0
4086,57.0,0,108,3.0,100.0
4087,57.0,120,108,1.0,100.0
4088,56.0,0,108,3.0,100.0
4089,83.0,0,348,2.0,100.0
4090,56.0,0,108,5.0,100.0
4091,59.0,0,108,4.0,100.0
4092,83.0,0,348,7.0,100.0
4093,56.0,120,108,1.0,100.0
4094,59.0,0,216,8.0,100.0
4095,76.0,0,216,0.0,100.0
4096,38.0,0,696,10.0,100.0
4097,76.0,0,216,6.0,100.0
4098,50.0,120,696,10.0,100.0
4099,59.0,120,108,5.0,100.0
4100,59.0,0,108,3.0,100.0
4101,64.0,0,108,4.0,100.0
4102,80.0,0,108,2.0,100.0
4103,59.0,0,108,1.0,100.0
4104,80.0,0,108,7.0,100.0
4105,52.0,0,108,1.0,100.0
4106,76.0,0,108,7.0,100.0
4107,40.0,0,108,10.0,100.0
4108,76.0,0,108,2.0,100.0
4109,52.0,0,108,3.0,100.0
4110,52.0,0,108,5.0,100.0
4111,68.0,120,108,4.0,100.0
4112,52.0,0,108,10.0,100.0
4113,68.0,0,216,8.0,100.0
4114,64.0,0,216,0.0,100.0
4115,64.0,0,216,6.0,100.0
4116,71.0,0,108,4.0,100.0
4117,56.0,0,108,5.0,100.0
4118,38.0,0,108,10.0,100.0
4119,56.0,0,108,3.0,100.0
4120,71.0,120,108,7.0,100.0
4121,50.0,0,108,10.0,100.0
4122,71.0,0,108,2.0,100.0
4123,56.0,0,108,1.0,100.0
4124,57.0,0,108,1.0,100.0
4125,72.0,0,108,2.0,100.0
4126,64.0,0,108,4.0,100.0
4127,72.0,0,108,7.0,100.0
4128,57.0,0,108,3.0,100.0
4129,57.0,0,108,5.0,100.0
4130,48.0,0,216,10.0,100.0
4131,64.0,0,216,8.0,100.0
4132,36.0,0,216,10.0,100.0
4133,76.0,0,108,2.0,100.0
4134,60.0,0,108,5.0,100.0
4135,60.0,0,108,1.0,100.0
4136,69.0,0,108,4.0,100.0
4137,60.0,0,108,3.0,100.0
4138,76.0,120,108,7.0,100.0
4139,52.0,0,108,1.0,100.0
4140,52.0,120,108,3.0,100.0
4141,72.0,0,108,4.0,100.0
4142,52.0,0,108,5.0,100.0
4143,69.0,0,108,2.0,100.0
4144,69.0,0,108,7.0,100.0
4145,36.0,0,216,10.0,100.0
4146,60.0,0,216,8.0,100.0
4147,48.0,0,216,10.0,100.0
4148,72.0,0,108,2.0,100.0
4149,57.0,0,108,3.0,100.0
4150,72.0,120,108,7.0,100.0
4151,76.0,0,108,4.0,100.0
4152,57.0,0,108,1.0,100.0
4153,57.0,0,108,5.0,100.0
4154,71.0,0,108,2.0,100.0
4155,64.0,0,108,4.0,100.0
4156,56.0,0,108,3.0,100.0
4157,56.0,0,108,1.0,100.0
4158,71.0,0,108,7.0,100.0
4159,76.0,0,588,6.0,100.0
4160,76.0,120,588,0.0,100.0
4161,56.0,120,108,5.0,100.0
4162,32.0,0,216,10.0,100.0
4163,62.0,0,216,8.0,100.0
4164,44.0,0,216,10.0,100.0
4165,74.0,120,108,7.0,100.0
4166,59.0,0,108,1.0,100.0
4167,59.0,0,108,5.0,100.0
4168,59.0,0,108,3.0,100.0
4169,77.0,0,108,6.0,100.0
4170,74.0,0,108,2.0,100.0
4171,68.0,0,108,4.0,100.0
4172,77.0,0,108,0.0,100.0
4173,76.0,0,108,0.0,100.0
4174,52.0,0,108,5.0,100.0
4175,52.0,0,108,1.0,100.0
4176,76.0,0,108,6.0,100.0
4177,68.0,0,108,7.0,100.0
4178,68.0,0,108,2.0,100.0
4179,52.0,0,108,3.0,100.0
4180,71.0,0,108,4.0,100.0
4181,44.0,0,216,10.0,100.0
4182,71.0,120,216,8.0,100.0
4183,32.0,0,216,10.0,100.0
4184,68.0,120,108,4.0,100.0
4185,56.0,0,108,3.0,100.0
4186,71.0,0,108,2.0,100.0
4187,56.0,0,108,1.0,100.0
4188,77.0,0,108,6.0,100.0
4189,71.0,0,108,7.0,100.0
4190,56.0,0,108,5.0,100.0
4191,77.0,0,108,0.0,100.0
4192,72.0,0,108,7.0,100.0
4193,64.0,0,108,4.0,100.0
4194,57.0,0,108,1.0,100.0
4195,57.0,120,108,3.0,100.0
4196,57.0,0,108,5.0,100.0
4197,72.0,0,108,2.0,100.0
4198,33.0,0,216,10.0,100.0
4199,45.0,0,216,10.0,100.0
4200,69.0,0,216,8.0,100.0
4201,69.0,0,108,4.0,100.0
4202,60.0,0,108,3.0,100.0
4203,60.0,0,108,5.0,100.0
4204,76.0,0,108,7.0,100.0
4205,76.0,0,108,2.0,100.0
4206,60.0,120,108,1.0,100.0
4207,72.0,0,108,4.0,100.0
4208,52.0,0,108,1.0,100.0
4209,52.0,0,108,3.0,100.0
4210,69.0,0,108,2.0,100.0
4211,52.0,0,108,5.0,100.0
4212,69.0,0,108,7.0,100.0
4213,60.0,120,216,8.0,100.0
4214,33.0,0,216,10.0,100.0
4215,45.0,0,216,10.0,100.0
4216,72.0,0,108,7.0,100.0
4217,57.0,0,108,3.0,100.0
4218,72.0,0,108,2.0,100.0
4219,57.0,0,108,5.0,100.0
4220,76.0,0,108,4.0,100.0
4221,57.0,120,108,1.0,100.0
4222,40.0,0,216,10.0,100.0
4223,76.0,0,696,6.0,100.0
4224,76.0,0,696,0.0,100.0
4225,64.0,120,216,4.0,100.0
4226,71.0,0,216,2.0,100.0
4227,56.0,0,216,5.0,100.0
4228,56.0,0,216,3.0,100.0
4229,56.0,0,216,1.0,100.0
4230,64.0,0,216,8.0,100.0
4231,52.0,0,216,10.0,100.0
4232,71.0,0,216,7.0,100.0
4233,56.0,0,72,5.0,100.0
4234,71.0,0,72,4.0,100.0
4235,69.0,80,72,4.0,100.0
4236,54.0,0,72,5.0,100.0
4237,71.0,80,72,4.0,100.0
4238,56.0,0,72,5.0,100.0
4239,72.0,80,72,4.0,100.0
4240,57.0,0,72,5.0,100.0
4241,71.0,80,72,4.0,100.0
4242,56.0,0,72,5.0,100.0
4243,40.0,240,432,10.0,100.0
4244,28.0,0,432,10.0,100.0
4245,57.0,0,72,5.0,100.0
4246,72.0,80,72,4.0,100.0
4247,59.0,0,72,5.0,100.0
4248,74.0,80,72,4.0,100.0
4249,57.0,80,72,5.0,100.0
4250,72.0,0,72,4.0,100.0
4251,26.0,0,216,10.0,100.0
4252,38.0,0,216,10.0,100.0
4253,59.0,80,72,5.0,100.0
4254,74.0,0,72,4.0,100.0
4255,36.0,0,216,10.0,100.0
4256,24.0,0,216,10.0,100.0
4257,48.0,0,72,3.0,100.0
4258,76.0,0,72,0.0,100.0
4259,60.0,0,72,1.0,100.0
4260,76.0,0,72,2.0,100.0
4261,47.0,0,72,3.0,100.0
4262,74.0,0,72,2.0,100.0
4263,59.0,0,72,1.0,100.0
4264,74.0,80,72,0.0,100.0
4265,76.0,0,216,6.0,100.0
4266,36.0,0,216,10.0,100.0
4267,69.0,240,216,8.0,100.0
4268,48.0,0,216,10.0,100.0
4269,60.0,0,72,1.0,100.0
4270,48.0,0,72,3.0,100.0
4271,76.0,0,72,2.0,100.0
4272,76.0,80,72,0.0,100.0
4273,50.0,0,72,3.0,100.0
4274,78.0,0,72,2.0,100.0
4275,78.0,80,72,0.0,100.0
4276,62.0,0,72,1.0,100.0
4277,60.0,0,552,5.0,100.0
4278,76.0,80,552,4.0,100.0
4279,76.0,0,72,0.0,100.0
4280,77.0,0,72,4.0,100.0
4281,76.0,0,72,2.0,100.0
4282,60.0,0,72,1.0,100.0
4283,48.0,80,72,3.0,100.0
4284,62.0,0,72,5.0,100.0
4285,76.0,0,432,7.0,100.0
4286,50.0,0,216,10.0,100.0
4287,78.0,0,216,6.0,100.0
4288,57.0,0,216,8.0,100.0
4289,38.0,0,216,10.0,100.0
4290,78.0,80,72,0.0,100.0
4291,78.0,0,72,2.0,100.0
4292,60.0,0,72,5.0,100.0
4293,62.0,0,72,1.0,100.0
4294,76.0,0,72,4.0,100.0
4295,50.0,0,72,3.0,100.0
4296,59.0,0,72,5.0,100.0
4297,80.0,0,72,2.0,100.0
4298,80.0,0,72,0.0,100.0
4299,52.0,0,72,3.0,100.0
4300,74.0,0,72,4.0,100.0
4301,64.0,0,72,1.0,100.0
4302,60.0,80,72,5.0,100.0
4303,76.0,0,72,4.0,100.0
4304,78.0,0,72,2.0,100.0
4305,50.0,0,72,3.0,100.0
4306,78.0,0,72,0.0,100.0
4307,62.0,0,72,1.0,100.0
4308,40.0,0,216,10.0,100.0
4309,52.0,0,216,10.0,100.0
4310,74.0,80,216,7.0,100.0
4311,64.0,0,216,8.0,100.0
4312,80.0,0,216,6.0,100.0
4313,74.0,0,72,4.0,100.0
4314,80.0,80,72,2.0,100.0
4315,64.0,0,72,1.0,100.0
4316,59.0,0,72,5.0,100.0
4317,52.0,0,72,3.0,100.0
4318,80.0,0,72,0.0,100.0
4319,57.0,0,216,5.0,100.0
4320,33.0,0,216,10.0,100.0
4321,72.0,0,216,4.0,100.0
4322,64.0,0,216,8.0,100.0
4323,45.0,0,216,3.0,100.0
4324,81.0,0,216,0.0,100.0
4325,72.0,0,216,7.0,100.0
4326,81.0,0,216,6.0,100.0
4327,57.0,0,216,1.0,100.0
4328,81.0,80,216,2.0,100.0
4329,45.0,0,216,10.0,100.0
4330,48.0,0,72,3.0,100.0
4331,64.0,0,72,2.0,100.0
4332,47.0,80,72,3.0,100.0
4333,62.0,0,72,2.0,100.0
4334,48.0,80,72,3.0,100.0
4335,64.0,0,72,2.0,100.0
4336,50.0,80,72,3.0,100.0
4337,65.0,0,72,2.0,100.0
4338,48.0,80,72,3.0,100.0
4339,64.0,0,72,2.0,100.0
4340,57.0,240,432,10.0,100.0
4341,45.0,0,432,10.0,100.0
4342,65.0,80,72,2.0,100.0
4343,50.0,0,72,3.0,100.0
4344,52.0,0,72,3.0,100.0
4345,67.0,0,72,2.0,100.0
4346,50.0,80,72,3.0,100.0
4347,65.0,0,72,2.0,100.0
4348,43.0,80,216,10.0,100.0
4349,55.0,0,216,10.0,100.0
4350,52.0,0,72,3.0,100.0
4351,67.0,80,72,2.0,100.0
4352,41.0,0,216,10.0,100.0
4353,53.0,0,216,10.0,100.0
4354,69.0,0,72,0.0,100.0
4355,41.0,0,72,5.0,100.0
4356,69.0,0,72,4.0,100.0
4357,53.0,0,72,1.0,100.0
4358,52.0,0,72,1.0,100.0
4359,67.0,0,72,0.0,100.0
4360,67.0,80,72,4.0,100.0
4361,40.0,0,72,5.0,100.0
4362,62.0,0,216,8.0,100.0
4363,69.0,240,216,6.0,100.0
4364,41.0,0,216,10.0,100.0
4365,29.0,0,216,10.0,100.0
4366,53.0,80,72,1.0,100.0
4367,41.0,0,72,5.0,100.0
4368,69.0,0,72,0.0,100.0
4369,69.0,0,72,4.0,100.0
4370,69.0,80,552,2.0,100.0
4371,71.0,0,72,0.0,100.0
4372,53.0,0,552,3.0,100.0
4373,55.0,0,72,1.0,100.0
4374,43.0,0,72,5.0,100.0
4375,71.0,0,72,4.0,100.0
4376,69.0,0,72,0.0,100.0
4377,55.0,80,72,3.0,100.0
4378,53.0,0,72,1.0,100.0
4379,41.0,0,72,5.0,100.0
4380,70.0,0,72,2.0,100.0
4381,69.0,0,72,4.0,100.0
4382,69.0,0,432,7.0,100.0
4383,71.0,0,216,6.0,100.0
4384,31.0,0,216,10.0,100.0
4385,50.0,80,216,8.0,100.0
4386,43.0,0,216,10.0,100.0
4387,71.0,0,72,0.0,100.0
4388,43.0,0,72,5.0,100.0
4389,69.0,0,72,2.0,100.0
4390,53.0,0,72,3.0,100.0
4391,55.0,0,72,1.0,100.0
4392,71.0,80,72,4.0,100.0
4393,52.0,0,72,3.0,100.0
4394,73.0,0,72,0.0,100.0
4395,57.0,0,72,1.0,100.0
4396,67.0,0,72,2.0,100.0
4397,73.0,0,72,4.0,100.0
4398,45.0,0,72,5.0,100.0
4399,55.0,80,72,1.0,100.0
4400,71.0,0,72,4.0,100.0
4401,53.0,0,72,3.0,100.0
4402,43.0,0,72,5.0,100.0
4403,71.0,0,72,0.0,100.0
4404,69.0,0,72,2.0,100.0
4405,45.0,0,216,10.0,100.0
4406,33.0,0,216,10.0,100.0
4407,57.0,0,216,8.0,100.0
4408,73.0,80,216,6.0,100.0
4409,67.0,0,216,7.0,100.0
4410,52.0,0,72,3.0,100.0
4411,73.0,0,72,4.0,100.0
4412,45.0,0,72,5.0,100.0
4413,57.0,80,72,1.0,100.0
4414,67.0,0,72,2.0,100.0
4415,73.0,0,72,0.0,100.0
4416,50.0,0,216,1.0,100.0
4417,38.0,0,216,10.0,100.0
4418,74.0,0,216,6.0,100.0
4419,57.0,0,216,8.0,100.0
4420,26.0,80,216,10.0,100.0
4421,74.0,0,216,0.0,100.0
4422,66.0,0,216,2.0,100.0
4423,66.0,0,216,7.0,100.0
4424,38.0,0,216,5.0,100.0
4425,74.0,0,216,4.0,100.0
4426,50.0,0,216,3.0,100.0
4427,62.0,0,72,5.0,100.0
4428,57.0,0,72,3.0,100.0
4429,66.0,0,72,4.0,100.0
4430,64.0,80,72,4.0,100.0
4431,60.0,0,72,5.0,100.0
4432,55.0,0,72,3.0,100.0
4433,66.0,0,72,4.0,100.0
4434,62.0,80,72,5.0,100.0
4435,57.0,0,72,3.0,100.0
4436,67.0,80,72,4.0,100.0
4437,64.0,0,72,5.0,100.0
4438,59.0,0,72,3.0,100.0
4439,66.0,80,72,4.0,100.0
4440,57.0,0,72,3.0,100.0
4441,62.0,0,72,5.0,100.0
4442,62.0,0,432,10.0,100.0
4443,50.0,240,432,10.0,100.0
4444,67.0,0,72,4.0,100.0
4445,59.0,0,72,3.0,100.0
4446,64.0,80,72,5.0,100.0
4447,69.0,0,72,4.0,100.0
4448,66.0,0,72,5.0,100.0
4449,60.0,0,72,3.0,100.0
4450,64.0,80,72,5.0,100.0
4451,59.0,0,72,3.0,100.0
4452,67.0,0,72,4.0,100.0
4453,60.0,80,216,10.0,100.0
4454,48.0,0,216,10.0,100.0
4455,60.0,0,72,3.0,100.0
4456,69.0,0,72,4.0,100.0
4457,66.0,80,72,5.0,100.0
4458,59.0,80,216,10.0,100.0
4459,47.0,0,216,10.0,100.0
4460,67.0,0,216,5.0,100.0
4461,47.0,0,72,5.0,100.0
4462,74.0,0,72,2.0,100.0
4463,74.0,240,72,0.0,100.0
4464,59.0,0,72,1.0,100.0
4465,72.0,0,72,0.0,100.0
4466,57.0,0,72,1.0,100.0
4467,72.0,0,72,2.0,100.0
4468,45.0,80,72,5.0,100.0
4469,74.0,0,216,6.0,100.0
4470,67.0,0,216,8.0,100.0
4471,47.0,0,216,10.0,100.0
4472,35.0,0,216,10.0,100.0
4473,74.0,0,72,0.0,100.0
4474,74.0,80,72,2.0,100.0
4475,59.0,0,72,1.0,100.0
4476,47.0,0,72,5.0,100.0
4477,76.0,0,72,0.0,100.0
4478,62.0,0,552,3.0,100.0
4479,60.0,0,72,1.0,100.0
4480,76.0,0,72,2.0,100.0
4481,48.0,0,72,5.0,100.0
4482,71.0,0,552,4.0,100.0
4483,74.0,0,72,0.0,100.0
4484,72.0,0,72,4.0,100.0
4485,64.0,80,72,3.0,100.0
4486,47.0,0,72,5.0,100.0
4487,59.0,0,72,1.0,100.0
4488,74.0,0,72,2.0,100.0
4489,71.0,0,432,7.0,100.0
4490,36.0,0,216,10.0,100.0
4491,48.0,80,216,10.0,100.0
4492,55.0,0,216,8.0,100.0
4493,76.0,0,216,6.0,100.0
4494,71.0,0,72,4.0,100.0
4495,48.0,0,72,5.0,100.0
4496,60.0,0,72,1.0,100.0
4497,76.0,0,72,0.0,100.0
4498,76.0,80,72,2.0,100.0
4499,62.0,0,72,3.0,100.0
4500,78.0,0,72,2.0,100.0
4501,50.0,0,72,5.0,100.0
4502,78.0,0,72,0.0,100.0
4503,69.0,0,72,4.0,100.0
4504,60.0,0,72,3.0,100.0
4505,62.0,80,72,1.0,100.0
4506,62.0,80,72,3.0,100.0
4507,76.0,0,72,2.0,100.0
4508,60.0,0,72,1.0,100.0
4509,71.0,0,72,4.0,100.0
4510,76.0,0,72,0.0,100.0
4511,48.0,0,72,5.0,100.0
4512,50.0,0,216,10.0,100.0
4513,78.0,0,216,6.0,100.0
4514,69.0,0,216,7.0,100.0
4515,38.0,0,216,10.0,100.0
4516,62.0,0,216,8.0,100.0
4517,78.0,0,72,2.0,100.0
4518,78.0,0,72,0.0,100.0
4519,50.0,0,72,5.0,100.0
4520,62.0,80,72,1.0,100.0
4521,69.0,0,72,4.0,100.0
4522,60.0,0,72,3.0,100.0
4523,79.0,0,216,0.0,100.0
4524,79.0,0,216,2.0,100.0
4525,43.0,0,216,5.0,100.0
4526,31.0,80,216,10.0,100.0
4527,67.0,0,216,4.0,100.0
4528,79.0,0,216,6.0,100.0
4529,59.0,0,216,3.0,100.0
4530,55.0,0,216,1.0,100.0
4531,62.0,0,216,8.0,100.0
4532,43.0,0,216,10.0,100.0
4533,67.0,0,216,7.0,100.0
4534,67.0,240,72,3.0,100.0
4535,62.0,0,72,1.0,100.0
4536,71.0,0,72,2.0,100.0
4537,69.0,0,72,2.0,100.0
4538,60.0,80,72,1.0,100.0
4539,65.0,0,72,3.0,100.0
4540,67.0,0,72,3.0,100.0
4541,71.0,80,72,2.0,100.0
4542,62.0,0,72,1.0,100.0
4543,69.0,80,72,3.0,100.0
4544,72.0,0,72,2.0,100.0
4545,64.0,0,72,1.0,100.0
4546,62.0,0,72,1.0,100.0
4547,67.0,80,72,3.0,100.0
4548,71.0,0,72,2.0,100.0
4549,55.0,0,432,10.0,100.0
4550,43.0,0,432,10.0,100.0
4551,69.0,0,72,3.0,100.0
4552,72.0,80,72,2.0,100.0
4553,64.0,0,72,1.0,100.0
4554,71.0,80,72,3.0,100.0
4555,74.0,0,72,2.0,100.0
4556,65.0,0,72,1.0,100.0
4557,72.0,80,72,2.0,100.0
4558,64.0,0,72,1.0,100.0
4559,69.0,0,72,3.0,100.0
4560,53.0,0,216,10.0,100.0
4561,41.0,0,216,10.0,100.0
4562,65.0,80,72,1.0,100.0
4563,74.0,0,72,2.0,100.0
4564,71.0,0,72,3.0,100.0
4565,52.0,80,216,10.0,100.0
4566,72.0,0,216,3.0,100.0
4567,40.0,0,216,10.0,100.0
4568,79.0,0,72,0.0,100.0
4569,40.0,0,72,5.0,100.0
4570,79.0,0,72,4.0,100.0
4571,52.0,0,72,3.0,100.0
4572,38.0,0,72,5.0,100.0
4573,77.0,80,72,4.0,100.0
4574,50.0,0,72,3.0,100.0
4575,77.0,0,72,0.0,100.0
4576,79.0,0,216,6.0,100.0
4577,28.0,0,216,10.0,100.0
4578,72.0,0,216,8.0,100.0
4579,40.0,240,216,10.0,100.0
4580,40.0,80,72,5.0,100.0
4581,79.0,0,72,0.0,100.0
4582,79.0,0,72,4.0,100.0
4583,52.0,0,72,3.0,100.0
4584,41.0,80,72,5.0,100.0
4585,81.0,0,72,4.0,100.0
4586,76.0,0,552,2.0,100.0
4587,81.0,0,72,0.0,100.0
4588,67.0,0,552,1.0,100.0
4589,53.0,0,72,3.0,100.0
4590,52.0,0,72,3.0,100.0
4591,77.0,0,72,2.0,100.0
4592,79.0,0,72,4.0,100.0
4593,40.0,80,72,5.0,100.0
4594,79.0,0,72,0.0,100.0
4595,69.0,0,72,1.0,100.0
4596,76.0,0,432,7.0,100.0
4597,29.0,0,216,10.0,100.0
4598,81.0,0,216,6.0,100.0
4599,41.0,0,216,10.0,100.0
4600,60.0,0,216,8.0,100.0
4601,81.0,0,72,0.0,100.0
4602,53.0,0,72,3.0,100.0
4603,81.0,0,72,4.0,100.0
4604,76.0,0,72,2.0,100.0
4605,67.0,0,72,1.0,100.0
4606,41.0,80,72,5.0,100.0
4607,43.0,0,72,5.0,100.0
4608,74.0,0,72,2.0,100.0
4609,65.0,0,72,1.0,100.0
4610,83.0,0,72,4.0,100.0
4611,55.0,0,72,3.0,100.0
4612,83.0,80,72,0.0,100.0
4613,41.0,0,72,5.0,100.0
4614,53.0,0,72,3.0,100.0
4615,67.0,0,72,1.0,100.0
4616,81.0,0,72,4.0,100.0
4617,81.0,0,72,0.0,100.0
4618,76.0,80,72,2.0,100.0
4619,67.0,0,216,8.0,100.0
4620,43.0,0,216,10.0,100.0
4621,83.0,0,216,6.0,100.0
4622,31.0,0,216,10.0,100.0
4623,74.0,0,216,7.0,100.0
4624,74.0,0,72,2.0,100.0
4625,83.0,0,72,0.0,100.0
4626,65.0,0,72,1.0,100.0
4627,55.0,0,72,3.0,100.0
4628,43.0,80,72,5.0,100.0
4629,83.0,0,72,4.0,100.0
4630,84.0,0,72,0.0,100.0
4631,72.0,0,72,2.0,100.0
4632,83.0,0,72,0.0,100.0
4633,76.0,80,72,2.0,100.0
4634,36.0,0,162,5.0,100.0
4635,72.0,0,162,7.0,100.0
4636,48.0,0,216,3.0,100.0
4637,36.0,0,216,10.0,100.0
4638,24.0,0,216,10.0,100.0
4639,84.0,0,216,4.0,100.0
4640,67.0,0,216,8.0,100.0
4641,84.0,80,216,6.0,100.0
4642,74.0,0,72,2.0,100.0
4643,84.0,80,72,0.0,100.0
4644,74.0,0,54,7.0,100.0
4645,55.0,20,54,5.0,100.0
4646,64.0,0,312,1.0,100.0
4647,79.0,0,72,0.0,100.0
4648,81.0,80,72,0.0,100.0
4649,65.0,0,72,1.0,100.0
4650,36.0,0,216,10.0,100.0
4651,76.0,0,216,7.0,100.0
4652,48.0,60,216,10.0,100.0
4653,67.0,80,72,1.0,100.0
4654,82.0,0,72,0.0,100.0
4655,64.0,0,54,8.0,100.0
4656,79.0,0,54,6.0,100.0
4657,64.0,0,54,3.0,100.0
4658,79.0,20,54,4.0,100.0
4659,81.0,0,72,0.0,100.0
4660,65.0,0,72,1.0,100.0
4661,64.0,0,72,1.0,100.0
4662,79.0,80,72,0.0,100.0
4663,76.0,0,402,2.0,100.0
4664,60.0,0,402,5.0,100.0
4665,60.0,0,216,8.0,100.0
4666,53.0,0,216,10.0,100.0
4667,81.0,0,216,6.0,100.0
4668,41.0,60,216,10.0,100.0
4669,65.0,0,72,1.0,100.0
4670,81.0,80,72,0.0,100.0
4671,72.0,0,54,7.0,100.0
4672,72.0,20,54,2.0,100.0
4673,57.0,0,54,5.0,100.0
4674,77.0,0,72,0.0,100.0
4675,62.0,0,72,1.0,100.0
4676,64.0,0,72,1.0,100.0
4677,79.0,80,72,0.0,100.0
4678,81.0,0,402,4.0,100.0
4679,65.0,0,402,3.0,100.0
4680,74.0,60,216,7.0,100.0
4681,47.0,0,216,10.0,100.0
4682,35.0,0,216,10.0,100.0
4683,65.0,80,72,1.0,100.0
4684,81.0,0,72,0.0,100.0
4685,62.0,0,54,3.0,100.0
4686,62.0,0,54,8.0,100.0
4687,77.0,20,54,4.0,100.0
4688,77.0,0,54,6.0,100.0
4689,79.0,60,72,0.0,100.0
4690,64.0,0,72,1.0,100.0
4691,77.0,80,72,0.0,100.0
4692,62.0,0,72,1.0,100.0
4693,59.0,0,402,5.0,100.0
4694,74.0,0,402,2.0,100.0
4695,40.0,0,216,10.0,100.0
4696,59.0,0,216,8.0,100.0
4697,52.0,0,216,10.0,100.0
4698,79.0,0,216,6.0,100.0
4699,64.0,0,72,1.0,100.0
4700,79.0,80,72,0.0,100.0
4701,71.0,0,54,7.0,100.0
4702,71.0,0,54,2.0,100.0
4703,55.0,20,54,5.0,100.0
4704,76.0,0,72,0.0,100.0
4705,60.0,0,72,1.0,100.0
4706,77.0,80,72,0.0,100.0
4707,62.0,0,72,1.0,100.0
4708,64.0,0,402,3.0,100.0
4709,79.0,0,402,4.0,100.0
4710,72.0,0,216,7.0,100.0
4711,45.0,0,216,10.0,100.0
4712,33.0,0,216,10.0,100.0
4713,64.0,80,72,1.0,100.0
4714,79.0,0,72,0.0,100.0
4715,60.0,20,54,3.0,100.0
4716,76.0,0,54,4.0,100.0
4717,60.0,0,54,8.0,100.0
4718,76.0,0,54,6.0,100.0
4719,77.0,60,72,0.0,100.0
4720,62.0,0,72,1.0,100.0
4721,76.0,80,72,0.0,100.0
4722,60.0,0,72,1.0,100.0
4723,72.0,0,402,2.0,100.0
4724,57.0,60,402,5.0,100.0
4725,77.0,0,216,6.0,100.0
4726,50.0,0,216,10.0,100.0
4727,57.0,0,216,8.0,100.0
4728,38.0,0,216,10.0,100.0
4729,77.0,80,72,0.0,100.0
4730,62.0,0,72,1.0,100.0
4731,69.0,20,54,7.0,100.0
4732,69.0,0,54,2.0,100.0
4733,53.0,0,54,5.0,100.0
4734,74.0,0,72,0.0,100.0
4735,59.0,0,72,1.0,100.0
4736,60.0,0,72,1.0,100.0
4737,76.0,80,72,0.0,100.0
4738,71.0,60,162,7.0,100.0
4739,77.0,0,402,4.0,100.0
4740,62.0,0,402,3.0,100.0
4741,71.0,0,216,2.0,100.0
4742,31.0,0,216,10.0,100.0
4743,43.0,0,216,10.0,100.0
4744,62.0,80,72,1.0,100.0
4745,77.0,0,72,0.0,100.0
4746,74.0,0,54,6.0,100.0
4747,74.0,0,54,4.0,100.0
4748,55.0,20,54,8.0,100.0
4749,55.0,0,54,3.0,100.0
4750,71.0,0,54,7.0,100.0
4751,60.0,0,72,1.0,100.0
4752,76.0,0,72,0.0,100.0
4753,77.0,80,72,0.0,100.0
4754,55.0,0,72,1.0,100.0
4755,72.0,0,162,2.0,100.0
4756,55.0,0,402,5.0,100.0
4757,76.0,60,162,6.0,100.0
4758,72.0,0,162,7.0,100.0
4759,67.0,0,216,8.0,100.0
4760,48.0,0,216,10.0,100.0
4761,36.0,0,216,10.0,100.0
4762,79.0,0,72,0.0,100.0
4763,53.0,80,72,1.0,100.0
4764,67.0,0,54,7.0,100.0
4765,59.0,20,54,5.0,100.0
4766,72.0,0,54,6.0,100.0
4767,67.0,0,54,2.0,100.0
4768,72.0,0,72,0.0,100.0
4769,52.0,60,72,1.0,100.0
4770,74.0,80,72,0.0,100.0
4771,50.0,0,72,1.0,100.0
4772,60.0,0,162,5.0,100.0
4773,60.0,0,402,3.0,100.0
4774,28.0,0,216,10.0,100.0
4775,40.0,0,216,10.0,100.0
4776,76.0,0,72,0.0,100.0
4777,48.0,80,72,1.0,100.0
4778,55.0,0,54,3.0,100.0
4779,58.0,0,54,5.0,100.0
4780,60.0,20,54,8.0,100.0
4781,57.0,0,72,3.0,100.0
4782,53.0,0,72,1.0,100.0
4783,57.0,60,72,5.0,100.0
4784,69.0,0,72,0.0,100.0
4785,57.0,0,72,1.0,100.0
4786,50.0,0,72,5.0,100.0
4787,71.0,0,72,0.0,100.0
4788,53.0,80,72,3.0,100.0
4789,76.0,0,648,4.0,100.0
4790,79.0,0,432,2.0,100.0
4791,76.0,0,432,7.0,100.0
4792,79.0,0,432,6.0,100.0
4793,29.0,0,216,10.0,100.0
4794,41.0,0,216,10.0,100.0
4795,69.0,0,216,8.0,100.0
4796,55.0,0,72,3.0,100.0
4797,72.0,80,72,0.0,100.0
4798,55.0,0,72,1.0,100.0
4799,52.0,0,72,5.0,100.0
4800,53.0,80,72,5.0,100.0
4801,53.0,0,72,1.0,100.0
4802,57.0,0,72,3.0,100.0
4803,74.0,0,72,0.0,100.0
4804,59.0,0,72,3.0,100.0
4805,55.0,0,72,5.0,100.0
4806,76.0,0,72,0.0,100.0
4807,52.0,80,72,1.0,100.0
4808,74.0,0,162,7.0,100.0
4809,74.0,0,162,4.0,100.0
4810,77.0,0,162,6.0,100.0
4811,77.0,0,162,2.0,100.0
4812,26.0,0,216,10.0,100.0
4813,38.0,0,216,10.0,100.0
4814,60.0,80,72,3.0,100.0
4815,50.0,0,72,1.0,100.0
4816,57.0,0,72,5.0,100.0
4817,77.0,0,72,0.0,100.0
4818,72.0,0,54,7.0,100.0
4819,65.0,20,54,8.0,100.0
4820,76.0,0,54,6.0,100.0
4821,72.0,0,54,4.0,100.0
4822,76.0,0,54,2.0,100.0
4823,55.0,0,108,3.0,100.0
4824,74.0,0,108,2.0,100.0
4825,71.0,0,108,4.0,100.0
4826,71.0,0,108,0.0,100.0
4827,43.0,0,216,10.0,100.0
4828,31.0,0,216,10.0,100.0
4829,55.0,0,216,1.0,100.0
4830,50.0,0,216,5.0,100.0
4831,67.0,0,216,8.0,100.0
4832,71.0,60,216,7.0,100.0
4833,74.0,0,216,6.0,100.0
4834,67.0,0,108,3.0,100.0
4835,71.0,120,108,2.0,100.0
4836,74.0,0,108,0.0,100.0
4837,74.0,0,108,4.0,100.0
4838,67.0,0,108,4.0,100.0
4839,67.0,0,108,0.0,100.0
4840,67.0,0,108,2.0,100.0
4841,62.0,0,108,3.0,100.0
4842,55.0,0,216,5.0,100.0
4843,65.0,120,216,8.0,100.0
4844,59.0,0,108,3.0,100.0
4845,71.0,0,108,2.0,100.0
4846,71.0,0,108,4.0,100.0
4847,74.0,0,108,6.0,100.0
4848,71.0,0,108,0.0,100.0
4849,71.0,0,108,7.0,100.0
4850,65.0,120,108,1.0,100.0
4851,76.0,0,108,6.0,100.0
4852,64.0,0,108,1.0,100.0
4853,55.0,0,108,3.0,100.0
4854,72.0,0,108,7.0,100.0
4855,72.0,0,108,0.0,100.0
4856,72.0,120,108,4.0,100.0
4857,72.0,0,108,2.0,100.0
4858,55.0,0,216,5.0,100.0
4859,64.0,0,216,8.0,100.0
4860,76.0,0,108,2.0,100.0
4861,79.0,0,108,6.0,100.0
4862,67.0,0,108,3.0,100.0
4863,60.0,0,108,1.0,100.0
4864,76.0,120,108,0.0,100.0
4865,67.0,0,108,7.0,100.0
4866,76.0,0,108,4.0,100.0
4867,67.0,0,108,4.0,100.0
4868,64.0,0,108,3.0,100.0
4869,67.0,0,108,0.0,100.0
4870,67.0,0,108,2.0,100.0
4871,72.0,120,108,6.0,100.0
4872,64.0,0,108,1.0,100.0
4873,64.0,0,108,7.0,100.0
4874,43.0,0,216,5.0,100.0
4875,43.0,0,216,10.0,100.0
4876,67.0,0,216,8.0,100.0
4877,55.0,0,216,10.0,100.0
4878,76.0,0,108,6.0,100.0
4879,72.0,0,108,4.0,100.0
4880,72.0,0,108,0.0,100.0
4881,67.0,120,108,3.0,100.0
4882,72.0,0,108,2.0,100.0
4883,67.0,0,108,7.0,100.0
4884,60.0,0,108,1.0,100.0
4885,71.0,0,108,0.0,100.0
4886,71.0,0,108,4.0,100.0
4887,71.0,120,108,7.0,100.0
4888,55.0,0,108,3.0,100.0
4889,74.0,0,108,6.0,100.0
4890,71.0,0,108,2.0,100.0
4891,43.0,0,216,10.0,100.0
4892,67.0,0,216,1.0,100.0
4893,55.0,0,216,8.0,100.0
4894,55.0,0,216,10.0,100.0
4895,74.0,0,108,0.0,100.0
4896,77.0,0,108,6.0,100.0
4897,74.0,0,108,4.0,100.0
4898,67.0,0,108,3.0,100.0
4899,67.0,0,108,7.0,100.0
4900,74.0,120,108,2.0,100.0
4901,67.0,0,108,2.0,100.0
4902,55.0,0,108,1.0,100.0
4903,67.0,0,108,0.0,100.0
4904,62.0,0,108,3.0,100.0
4905,67.0,0,108,4.0,100.0
4906,71.0,120,108,6.0,100.0
4907,62.0,0,108,7.0,100.0
4908,43.0,0,216,10.0,100.0
4909,55.0,0,216,5.0,100.0
4910,31.0,0,216,10.0,100.0
4911,55.0,0,216,8.0,100.0
4912,59.0,120,108,3.0,100.0
4913,53.0,0,108,1.0,100.0
4914,67.0,0,108,7.0,100.0
4915,74.0,0,108,6.0,100.0
4916,71.0,0,108,4.0,100.0
4917,71.0,0,108,2.0,100.0
4918,71.0,0,108,0.0,100.0
4919,67.0,0,108,7.0,100.0
4920,72.0,0,108,6.0,100.0
4921,55.0,0,108,3.0,100.0
4922,52.0,0,108,1.0,100.0
4923,72.0,120,108,2.0,100.0
4924,72.0,0,108,4.0,100.0
4925,72.0,0,108,0.0,100.0
4926,55.0,0,216,5.0,100.0
4927,52.0,0,216,8.0,100.0
4928,67.0,0,108,3.0,100.0
4929,76.0,0,108,4.0,100.0
4930,48.0,0,108,1.0,100.0
4931,76.0,0,108,2.0,100.0
4932,76.0,120,108,6.0,100.0
4933,76.0,0,108,0.0,100.0
4934,72.0,0,108,7.0,100.0
4935,67.0,0,108,0.0,100.0
4936,52.0,0,108,1.0,100.0
4937,64.0,0,108,3.0,100.0
4938,64.0,0,108,7.0,100.0
4939,67.0,0,108,6.0,100.0
4940,67.0,0,108,4.0,100.0
4941,67.0,0,108,2.0,100.0
4942,43.0,120,216,5.0,100.0
4943,60.0,0,216,8.0,100.0
4944,43.0,0,216,10.0,100.0
4945,55.0,0,216,10.0,100.0
4946,72.0,120,108,4.0,100.0
4947,72.0,0,108,2.0,100.0
4948,72.0,0,108,6.0,100.0
4949,67.0,0,108,7.0,100.0
4950,67.0,0,108,3.0,100.0
4951,72.0,0,108,0.0,100.0
4952,48.0,0,108,1.0,100.0
4953,71.0,0,54,2.0,100.0
4954,74.0,60,54,2.0,100.0
4955,76.0,60,54,2.0,100.0
4956,71.0,120,216,0.0,100.0
4957,71.0,0,216,4.0,100.0
4958,55.0,0,216,3.0,100.0
4959,55.0,0,216,1.0,100.0
4960,43.0,0,216,5.0,100.0
4961,77.0,60,54,2.0,100.0
4962,79.0,60,54,2.0,100.0
4963,77.0,60,54,2.0,100.0
4964,76.0,60,54,2.0,100.0
4965,71.0,0,432,6.0,100.0
4966,67.0,0,432,7.0,100.0
4967,62.0,0,432,8.0,100.0
4968,74.0,60,54,2.0,100.0
4969,76.0,0,54,2.0,100.0
4970,59.0,60,54,3.0,100.0
4971,74.0,0,54,2.0,100.0
4972,72.0,60,54,2.0,100.0
4973,60.0,0,54,3.0,100.0
4974,62.0,60,54,3.0,100.0
4975,71.0,0,54,2.0,100.0
4976,72.0,60,54,2.0,100.0
4977,64.0,0,54,3.0,100.0
4978,62.0,0,54,3.0,100.0
4979,71.0,60,54,2.0,100.0
4980,69.0,0,54,2.0,100.0
4981,60.0,60,54,3.0,100.0
4982,67.0,0,432,8.0,100.0
4983,64.0,60,432,7.0,100.0
4984,72.0,0,432,6.0,100.0
4985,67.0,0,54,2.0,100.0
4986,59.0,60,54,3.0,100.0
4987,66.0,0,54,2.0,100.0
4988,67.0,60,54,2.0,100.0
4989,69.0,60,54,2.0,100.0
4990,57.0,60,216,3.0,100.0
4991,71.0,60,54,2.0,100.0
4992,72.0,60,54,2.0,100.0
4993,71.0,60,54,2.0,100.0
4994,69.0,60,54,2.0,100.0
4995,75.0,0,432,6.0,100.0
4996,67.0,60,54,2.0,100.0
4997,66.0,60,54,2.0,100.0
4998,64.0,60,54,2.0,100.0
4999,62.0,60,54,2.0,100.0
5000,60.0,60,54,2.0,100.0
5001,59.0,60,54,3.0,100.0
5002,57.0,60,54,3.0,100.0
5003,69.0,0,864,8.0,100.0
5004,72.0,0,864,7.0,100.0
5005,55.0,60,54,3.0,100.0
5006,78.0,0,432,6.0,100.0
5007,54.0,60,54,3.0,100.0
5008,43.0,0,54,3.0,100.0
5009,55.0,0,54,3.0,100.0
5010,59.0,60,54,2.0,100.0
5011,54.0,0,54,3.0,100.0
5012,57.0,60,54,2.0,100.0
5013,71.0,60,216,8.0,100.0
5014,43.0,0,2136,10.0,100.0
5015,74.0,0,216,7.0,100.0
5016,55.0,0,2136,10.0,100.0
5017,55.0,60,54,3.0,100.0
5018,59.0,0,54,2.0,100.0
5019,45.0,60,54,3.0,100.0
5020,60.0,0,54,2.0,100.0
5021,59.0,0,54,2.0,100.0
5022,55.0,60,54,3.0,100.0
5023,57.0,0,54,2.0,100.0
5024,54.0,60,54,3.0,100.0
5025,45.0,0,216,10.0,100.0
5026,57.0,0,216,10.0,100.0
5027,55.0,0,54,3.0,100.0
5028,59.0,60,54,2.0,100.0
5029,47.0,0,54,3.0,100.0
5030,62.0,60,54,2.0,100.0
5031,55.0,60,54,3.0,100.0
5032,59.0,0,54,2.0,100.0
5033,54.0,0,54,3.0,100.0
5034,57.0,60,54,2.0,100.0
5035,47.0,0,216,10.0,100.0
5036,59.0,0,216,10.0,100.0
5037,55.0,0,54,3.0,100.0
5038,59.0,60,54,2.0,100.0
5039,48.0,0,54,3.0,100.0
5040,64.0,60,54,2.0,100.0
5041,59.0,0,54,2.0,100.0
5042,55.0,60,54,3.0,100.0
5043,57.0,60,54,2.0,100.0
5044,54.0,0,54,3.0,100.0
5045,57.0,0,216,10.0,100.0
5046,45.0,0,216,10.0,100.0
5047,59.0,60,54,2.0,100.0
5048,55.0,0,54,3.0,100.0
5049,50.0,0,54,3.0,100.0
5050,65.0,60,54,2.0,100.0
5051,55.0,60,54,3.0,100.0
5052,59.0,0,54,2.0,100.0
5053,54.0,60,54,3.0,100.0
5054,57.0,0,54,2.0,100.0
5055,43.0,0,216,10.0,100.0
5056,79.0,0,1176,6.0,100.0
5057,55.0,0,216,10.0,100.0
5058,59.0,0,54,2.0,100.0
5059,55.0,60,54,3.0,100.0
5060,62.0,60,54,2.0,100.0
5061,47.0,0,54,3.0,100.0
5062,55.0,60,54,3.0,100.0
5063,59.0,0,54,2.0,100.0
5064,54.0,0,54,3.0,100.0
5065,57.0,60,54,2.0,100.0
5066,41.0,0,216,10.0,100.0
5067,67.0,0,216,6.0,100.0
5068,59.0,0,216,8.0,100.0
5069,74.0,0,216,7.0,100.0
5070,53.0,0,216,10.0,100.0
5071,59.0,60,54,2.0,100.0
5072,55.0,0,54,3.0,100.0
5073,48.0,0,54,3.0,100.0
5074,67.0,0,54,2.0,100.0
5075,55.0,60,54,3.0,100.0
5076,59.0,0,54,2.0,100.0
5077,54.0,0,54,3.0,100.0
5078,57.0,60,54,2.0,100.0
5079,67.0,60,216,7.0,100.0
5080,60.0,0,216,8.0,100.0
5081,40.0,0,216,10.0,100.0
5082,72.0,0,216,6.0,100.0
5083,52.0,0,216,10.0,100.0
5084,55.0,60,54,3.0,100.0
5085,59.0,0,54,2.0,100.0
5086,65.0,60,54,2.0,100.0
5087,50.0,0,54,3.0,100.0
5088,59.0,0,54,2.0,100.0
5089,55.0,60,54,3.0,100.0
5090,54.0,0,54,3.0,100.0
5091,57.0,60,54,2.0,100.0
5092,50.0,0,216,10.0,100.0
5093,74.0,0,216,6.0,100.0
5094,71.0,0,216,7.0,100.0
5095,38.0,0,216,10.0,100.0
5096,65.0,0,216,8.0,100.0
5097,59.0,0,54,2.0,100.0
5098,55.0,60,54,3.0,100.0
5099,64.0,0,54,2.0,100.0
5100,67.0,60,54,2.0,100.0
5101,69.0,60,54,2.0,100.0
5102,48.0,0,216,3.0,100.0
5103,71.0,60,54,2.0,100.0
5104,72.0,60,54,2.0,100.0
5105,71.0,60,54,2.0,100.0
5106,69.0,60,54,2.0,100.0
5107,67.0,0,432,8.0,100.0
5108,72.0,0,432,7.0,100.0
5109,76.0,60,432,6.0,100.0
5110,67.0,60,54,2.0,100.0
5111,69.0,0,54,2.0,100.0
5112,67.0,0,54,2.0,100.0
5113,52.0,60,54,3.0,100.0
5114,65.0,60,54,2.0,100.0
5115,53.0,0,54,3.0,100.0
5116,55.0,60,54,3.0,100.0
5117,64.0,0,54,2.0,100.0
5118,65.0,0,54,2.0,100.0
5119,57.0,60,54,3.0,100.0
5120,64.0,60,54,2.0,100.0
5121,55.0,0,54,3.0,100.0
5122,62.0,60,54,2.0,100.0
5123,53.0,0,54,3.0,100.0
5124,72.0,0,432,8.0,100.0
5125,69.0,60,432,7.0,100.0
5126,77.0,0,432,6.0,100.0
5127,60.0,60,54,2.0,100.0
5128,52.0,0,54,3.0,100.0
5129,59.0,0,54,2.0,100.0
5130,60.0,60,54,2.0,100.0
5131,62.0,60,54,2.0,100.0
5132,50.0,0,216,3.0,100.0
5133,64.0,60,54,2.0,100.0
5134,65.0,60,54,2.0,100.0
5135,64.0,60,54,2.0,100.0
5136,62.0,60,54,2.0,100.0
5137,80.0,0,432,6.0,100.0
5138,60.0,60,54,2.0,100.0
5139,59.0,0,54,2.0,100.0
5140,57.0,60,54,2.0,100.0
5141,55.0,60,54,2.0,100.0
5142,53.0,60,54,2.0,100.0
5143,52.0,60,54,2.0,100.0
5144,50.0,60,54,2.0,100.0
5145,77.0,60,864,7.0,100.0
5146,74.0,0,864,8.0,100.0
5147,48.0,60,54,2.0,100.0
5148,83.0,60,432,6.0,100.0
5149,47.0,60,54,2.0,100.0
5150,36.0,60,54,3.0,100.0
5151,52.0,0,54,2.0,100.0
5152,48.0,60,54,3.0,100.0
5153,50.0,60,54,2.0,100.0
5154,47.0,0,54,3.0,100.0
5155,48.0,0,2136,10.0,100.0
5156,79.0,0,216,7.0,100.0
5157,76.0,0,216,8.0,100.0
5158,36.0,0,2136,10.0,100.0
5159,48.0,0,54,3.0,100.0
5160,52.0,60,54,2.0,100.0
5161,53.0,0,54,2.0,100.0
5162,38.0,0,54,3.0,100.0
5163,52.0,60,54,2.0,100.0
5164,48.0,0,54,3.0,100.0
5165,50.0,60,54,2.0,100.0
5166,47.0,0,54,3.0,100.0
5167,50.0,60,216,10.0,100.0
5168,38.0,0,216,10.0,100.0
5169,48.0,0,54,3.0,100.0
5170,52.0,60,54,2.0,100.0
5171,55.0,0,54,2.0,100.0
5172,40.0,0,54,3.0,100.0
5173,48.0,60,54,3.0,100.0
5174,52.0,0,54,2.0,100.0
5175,50.0,0,54,2.0,100.0
5176,47.0,60,54,3.0,100.0
5177,52.0,0,216,10.0,100.0
5178,40.0,60,216,10.0,100.0
5179,52.0,0,54,2.0,100.0
5180,48.0,60,54,3.0,100.0
5181,41.0,0,54,3.0,100.0
5182,57.0,0,54,2.0,100.0
5183,48.0,60,54,3.0,100.0
5184,52.0,0,54,2.0,100.0
5185,47.0,0,54,3.0,100.0
5186,50.0,60,54,2.0,100.0
5187,38.0,60,216,10.0,100.0
5188,50.0,0,216,10.0,100.0
5189,52.0,0,54,2.0,100.0
5190,48.0,60,54,3.0,100.0
5191,58.0,0,54,2.0,100.0
5192,43.0,60,54,3.0,100.0
5193,52.0,60,54,2.0,100.0
5194,48.0,0,54,3.0,100.0
5195,47.0,60,54,3.0,100.0
5196,50.0,0,54,2.0,100.0
5197,48.0,0,216,10.0,100.0
5198,84.0,0,1176,6.0,100.0
5199,36.0,0,216,10.0,100.0
5200,52.0,0,54,2.0,100.0
5201,48.0,60,54,3.0,100.0
5202,55.0,0,54,2.0,100.0
5203,40.0,0,54,3.0,100.0
5204,48.0,60,54,3.0,100.0
5205,52.0,0,54,2.0,100.0
5206,50.0,0,54,2.0,100.0
5207,47.0,60,54,3.0,100.0
5208,64.0,0,216,8.0,100.0
5209,79.0,60,216,7.0,100.0
5210,72.0,0,216,6.0,100.0
5211,34.0,0,216,10.0,100.0
5212,46.0,0,216,10.0,100.0
5213,52.0,60,54,2.0,100.0
5214,48.0,0,54,3.0,100.0
5215,60.0,0,54,2.0,100.0
5216,45.0,0,54,3.0,100.0
5217,48.0,0,54,3.0,100.0
5218,52.0,60,54,2.0,100.0
5219,47.0,0,54,3.0,100.0
5220,50.0,60,54,2.0,100.0
5221,77.0,0,216,6.0,100.0
5222,72.0,0,216,7.0,100.0
5223,65.0,0,216,8.0,100.0
5224,45.0,60,216,10.0,100.0
5225,33.0,0,216,10.0,100.0
5226,52.0,60,54,2.0,100.0
5227,48.0,0,54,3.0,100.0
5228,43.0,0,54,3.0,100.0
5229,58.0,0,54,2.0,100.0
5230,48.0,0,54,3.0,100.0
5231,52.0,60,54,2.0,100.0
5232,47.0,0,54,3.0,100.0
5233,50.0,60,54,2.0,100.0
5234,43.0,0,216,10.0,100.0
5235,79.0,0,216,6.0,100.0
5236,31.0,60,216,10.0,100.0
5237,76.0,0,216,7.0,100.0
5238,70.0,0,216,8.0,100.0
5239,48.0,0,54,3.0,100.0
5240,52.0,60,54,2.0,100.0
5241,57.0,60,54,2.0,100.0
5242,41.0,0,108,10.0,100.0
5243,29.0,0,108,10.0,100.0
5244,41.0,0,108,3.0,100.0
5245,53.0,60,54,2.0,100.0
5246,48.0,0,54,2.0,100.0
5247,77.0,0,216,7.0,100.0
5248,72.0,0,216,8.0,100.0
5249,81.0,0,216,6.0,100.0
5250,28.0,60,108,10.0,100.0
5251,40.0,0,108,10.0,100.0
5252,45.0,60,54,2.0,100.0
5253,41.0,60,54,2.0,100.0
5254,29.0,0,108,10.0,100.0
5255,41.0,0,108,10.0,100.0
5256,52.0,60,54,3.0,100.0
5257,53.0,0,54,3.0,100.0
5258,72.0,0,216,6.0,100.0
5259,43.0,0,108,10.0,100.0
5260,31.0,60,108,10.0,100.0
5261,55.0,60,54,3.0,100.0
5262,57.0,60,108,3.0,100.0
5263,33.0,0,108,10.0,100.0
5264,45.0,0,108,10.0,100.0
5265,72.0,60,54,2.0,100.0
5266,74.0,0,54,2.0,100.0
5267,55.0,60,108,3.0,100.0
5268,31.0,0,108,10.0,100.0
5269,43.0,0,108,10.0,100.0
5270,76.0,60,54,2.0,100.0
5271,77.0,60,54,2.0,100.0
5272,33.0,0,108,10.0,100.0
5273,57.0,0,108,3.0,100.0
5274,45.0,0,108,10.0,100.0
5275,72.0,60,54,2.0,100.0
5276,69.0,0,54,2.0,100.0
5277,47.0,0,108,10.0,100.0
5278,35.0,0,108,10.0,100.0
5279,59.0,60,108,3.0,100.0
5280,65.0,60,54,2.0,100.0
5281,77.0,0,54,2.0,100.0
5282,60.0,60,108,3.0,100.0
5283,48.0,0,108,10.0,100.0
5284,36.0,0,108,10.0,100.0
5285,67.0,60,54,2.0,100.0
5286,77.0,60,54,2.0,100.0
5287,59.0,0,108,3.0,100.0
5288,47.0,0,108,10.0,100.0
5289,35.0,0,108,10.0,100.0
5290,67.0,60,54,2.0,100.0
5291,77.0,0,54,2.0,100.0
5292,36.0,0,108,10.0,100.0
5293,48.0,0,108,10.0,100.0
5294,60.0,60,108,3.0,100.0
5295,67.0,60,54,2.0,100.0
5296,77.0,60,54,2.0,100.0
5297,77.0,0,912,6.0,100.0
5298,67.0,0,216,7.0,100.0
5299,38.0,0,108,10.0,100.0
5300,50.0,0,108,10.0,100.0
5301,62.0,0,108,3.0,100.0
5302,67.0,60,54,2.0,100.0
5303,76.0,0,54,2.0,100.0
5304,64.0,0,108,3.0,100.0
5305,40.0,0,108,10.0,100.0
5306,52.0,0,108,10.0,100.0
5307,72.0,60,54,2.0,100.0
5308,76.0,0,54,2.0,100.0
5309,50.0,0,108,10.0,100.0
5310,62.0,60,108,3.0,100.0
5311,38.0,0,108,10.0,100.0
5312,72.0,60,54,2.0,100.0
5313,76.0,0,54,2.0,100.0
5314,64.0,0,108,3.0,100.0
5315,40.0,60,108,10.0,100.0
5316,52.0,0,108,10.0,100.0
5317,72.0,60,54,2.0,100.0
5318,76.0,0,54,2.0,100.0
5319,76.0,0,432,6.0,100.0
5320,53.0,0,108,10.0,100.0
5321,65.0,60,108,3.0,100.0
5322,41.0,0,108,10.0,100.0
5323,72.0,60,54,2.0,100.0
5324,74.0,0,54,2.0,100.0
5325,31.0,0,108,10.0,100.0
5326,55.0,60,108,3.0,100.0
5327,43.0,0,108,10.0,100.0
5328,72.0,60,54,2.0,100.0
5329,74.0,0,54,2.0,100.0
5330,74.0,0,216,6.0,100.0
5331,54.0,0,108,3.0,100.0
5332,30.0,0,108,10.0,100.0
5333,42.0,60,108,10.0,100.0
5334,72.0,60,54,2.0,100.0
5335,74.0,0,54,2.0,100.0
5336,43.0,60,108,10.0,100.0
5337,55.0,0,108,3.0,100.0
5338,31.0,0,108,10.0,100.0
5339,72.0,60,54,2.0,100.0
5340,71.0,0,54,2.0,100.0
5341,72.0,60,912,7.0,100.0
5342,67.0,0,216,6.0,100.0
5343,45.0,60,108,10.0,100.0
5344,57.0,0,108,3.0,100.0
5345,33.0,0,108,10.0,100.0
5346,69.0,60,54,2.0,100.0
5347,67.0,0,54,2.0,100.0
5348,35.0,0,108,10.0,100.0
5349,59.0,0,108,3.0,100.0
5350,47.0,60,108,10.0,100.0
5351,74.0,60,54,2.0,100.0
5352,76.0,0,54,2.0,100.0
5353,33.0,0,108,10.0,100.0
5354,45.0,0,108,10.0,100.0
5355,57.0,60,108,3.0,100.0
5356,77.0,60,54,2.0,100.0
5357,79.0,0,54,2.0,100.0
5358,47.0,0,108,10.0,100.0
5359,59.0,0,108,3.0,100.0
5360,35.0,60,108,10.0,100.0
5361,74.0,60,54,2.0,100.0
5362,71.0,0,54,2.0,100.0
5363,71.0,0,432,7.0,100.0
5364,48.0,0,108,10.0,100.0
5365,60.0,0,108,3.0,100.0
5366,36.0,60,108,10.0,100.0
5367,67.0,60,54,2.0,100.0
5368,79.0,0,54,2.0,100.0
5369,62.0,0,108,3.0,100.0
5370,38.0,60,108,10.0,100.0
5371,50.0,0,108,10.0,100.0
5372,69.0,60,54,2.0,100.0
5373,79.0,0,54,2.0,100.0
5374,69.0,0,216,7.0,100.0
5375,49.0,60,108,10.0,100.0
5376,61.0,0,108,3.0,100.0
5377,37.0,0,108,10.0,100.0
5378,69.0,60,54,2.0,100.0
5379,79.0,0,54,2.0,100.0
5380,38.0,0,108,10.0,100.0
5381,50.0,0,108,10.0,100.0
5382,62.0,60,108,3.0,100.0
5383,69.0,60,54,2.0,100.0
5384,79.0,0,54,2.0,100.0
5385,79.0,0,912,6.0,100.0
5386,62.0,0,216,7.0,100.0
5387,40.0,60,108,10.0,100.0
5388,52.0,0,108,10.0,100.0
5389,64.0,0,108,3.0,100.0
5390,69.0,60,54,2.0,100.0
5391,77.0,0,54,2.0,100.0
5392,53.0,0,108,10.0,100.0
5393,41.0,0,108,10.0,100.0
5394,65.0,0,108,3.0,100.0
5395,74.0,60,54,2.0,100.0
5396,77.0,0,54,2.0,100.0
5397,40.0,0,108,10.0,100.0
5398,64.0,0,108,3.0,100.0
5399,52.0,60,108,10.0,100.0
5400,74.0,60,54,2.0,100.0
5401,77.0,0,54,2.0,100.0
5402,65.0,60,108,3.0,100.0
5403,53.0,0,108,10.0,100.0
5404,41.0,0,108,10.0,100.0
5405,74.0,60,54,2.0,100.0
5406,77.0,60,54,2.0,100.0
5407,77.0,0,432,6.0,100.0
5408,67.0,0,108,3.0,100.0
5409,43.0,0,108,10.0,100.0
5410,55.0,0,108,10.0,100.0
5411,74.0,60,54,2.0,100.0
5412,76.0,0,54,2.0,100.0
5413,45.0,0,108,10.0,100.0
5414,33.0,0,108,10.0,100.0
5415,57.0,60,108,3.0,100.0
5416,74.0,60,54,2.0,100.0
5417,76.0,0,54,2.0,100.0
5418,76.0,0,216,6.0,100.0
5419,56.0,0,108,3.0,100.0
5420,44.0,0,108,10.0,100.0
5421,32.0,60,108,10.0,100.0
5422,74.0,60,54,2.0,100.0
5423,76.0,0,54,2.0,100.0
5424,33.0,0,108,10.0,100.0
5425,57.0,0,108,3.0,100.0
5426,45.0,0,108,10.0,100.0
5427,74.0,60,54,2.0,100.0
5428,72.0,0,54,2.0,100.0
5429,74.0,60,912,7.0,100.0
5430,69.0,60,216,6.0,100.0
5431,35.0,0,108,10.0,100.0
5432,59.0,0,108,3.0,100.0
5433,47.0,60,108,10.0,100.0
5434,71.0,60,54,2.0,100.0
5435,69.0,60,54,2.0,100.0
5436,48.0,0,108,10.0,100.0
5437,36.0,0,108,10.0,100.0
5438,60.0,0,108,3.0,100.0
5439,76.0,60,54,2.0,100.0
5440,78.0,0,54,2.0,100.0
5441,59.0,0,108,3.0,100.0
5442,47.0,60,108,10.0,100.0
5443,35.0,0,108,10.0,100.0
5444,80.0,60,54,2.0,100.0
5445,81.0,60,54,2.0,100.0
5446,36.0,0,108,10.0,100.0
5447,60.0,0,108,3.0,100.0
5448,48.0,0,108,10.0,100.0
5449,76.0,60,54,2.0,100.0
5450,72.0,60,54,2.0,100.0
5451,72.0,0,432,7.0,100.0
5452,33.0,0,108,10.0,100.0
5453,57.0,0,108,3.0,100.0
5454,45.0,0,108,10.0,100.0
5455,69.0,60,54,2.0,100.0
5456,81.0,0,54,2.0,100.0
5457,50.0,0,108,10.0,100.0
5458,38.0,60,108,10.0,100.0
5459,62.0,0,108,3.0,100.0
5460,70.0,60,54,2.0,100.0
5461,81.0,60,54,2.0,100.0
5462,40.0,0,108,10.0,100.0
5463,64.0,0,108,3.0,100.0
5464,52.0,0,108,10.0,100.0
5465,70.0,60,54,2.0,100.0
5466,81.0,0,54,2.0,100.0
5467,53.0,0,108,10.0,100.0
5468,65.0,60,108,3.0,100.0
5469,41.0,0,108,10.0,100.0
5470,70.0,60,54,2.0,100.0
5471,81.0,0,54,2.0,100.0
5472,81.0,0,912,6.0,100.0
5473,62.0,60,108,3.0,100.0
5474,50.0,0,108,10.0,100.0
5475,38.0,0,108,10.0,100.0
5476,70.0,60,54,2.0,100.0
5477,79.0,0,54,2.0,100.0
5478,64.0,0,108,3.0,100.0
5479,52.0,60,108,10.0,100.0
5480,40.0,0,108,10.0,100.0
5481,70.0,60,54,2.0,100.0
5482,79.0,60,54,2.0,100.0
5483,48.0,0,108,10.0,100.0
5484,36.0,0,108,10.0,100.0
5485,60.0,0,108,3.0,100.0
5486,70.0,60,54,2.0,100.0
5487,79.0,60,54,2.0,100.0
5488,62.0,0,108,3.0,100.0
5489,50.0,0,108,10.0,100.0
5490,38.0,0,108,10.0,100.0
5491,70.0,60,54,2.0,100.0
5492,70.0,0,864,7.0,100.0
5493,79.0,0,54,2.0,100.0
5494,40.0,0,108,10.0,100.0
5495,52.0,0,108,10.0,100.0
5496,64.0,60,108,3.0,100.0
5497,70.0,60,54,2.0,100.0
5498,79.0,0,54,2.0,100.0
5499,53.0,60,108,10.0,100.0
5500,65.0,0,108,3.0,100.0
5501,41.0,0,108,10.0,100.0
5502,69.0,60,54,2.0,100.0
5503,79.0,0,54,2.0,100.0
5504,43.0,0,108,10.0,100.0
5505,55.0,0,108,10.0,100.0
5506,67.0,60,108,3.0,100.0
5507,69.0,60,54,2.0,100.0
5508,79.0,0,54,2.0,100.0
5509,53.0,60,108,10.0,100.0
5510,65.0,0,108,3.0,100.0
5511,41.0,0,108,10.0,100.0
5512,69.0,60,54,2.0,100.0
5513,79.0,0,54,2.0,100.0
5514,79.0,0,912,6.0,100.0
5515,64.0,0,108,3.0,100.0
5516,52.0,0,108,10.0,100.0
5517,40.0,60,108,10.0,100.0
5518,69.0,60,54,2.0,100.0
5519,77.0,0,54,2.0,100.0
5520,62.0,0,108,3.0,100.0
5521,50.0,0,108,10.0,100.0
5522,38.0,60,108,10.0,100.0
5523,69.0,60,54,2.0,100.0
5524,77.0,0,54,2.0,100.0
5525,60.0,0,108,3.0,100.0
5526,48.0,0,108,10.0,100.0
5527,36.0,60,108,10.0,100.0
5528,69.0,60,54,2.0,100.0
5529,77.0,0,54,2.0,100.0
5530,47.0,0,108,10.0,100.0
5531,35.0,60,108,10.0,100.0
5532,59.0,0,108,3.0,100.0
5533,69.0,60,54,2.0,100.0
5534,69.0,0,864,7.0,100.0
5535,77.0,0,54,2.0,100.0
5536,33.0,60,108,10.0,100.0
5537,57.0,0,108,3.0,100.0
5538,45.0,0,108,10.0,100.0
5539,69.0,60,54,2.0,100.0
5540,77.0,0,54,2.0,100.0
5541,47.0,60,108,10.0,100.0
5542,59.0,0,108,3.0,100.0
5543,35.0,0,108,10.0,100.0
5544,67.0,60,54,2.0,100.0
5545,77.0,60,54,2.0,100.0
5546,31.0,0,108,10.0,100.0
5547,55.0,0,108,3.0,100.0
5548,43.0,0,108,10.0,100.0
5549,67.0,60,54,2.0,100.0
5550,77.0,60,54,2.0,100.0
5551,57.0,0,108,3.0,100.0
5552,45.0,0,108,10.0,100.0
5553,33.0,0,108,10.0,100.0
5554,67.0,60,54,2.0,100.0
5555,77.0,0,54,2.0,100.0
5556,77.0,0,912,6.0,100.0
5557,47.0,0,108,10.0,100.0
5558,35.0,60,108,10.0,100.0
5559,59.0,0,108,3.0,100.0
5560,67.0,60,54,2.0,100.0
5561,76.0,0,54,2.0,100.0
5562,48.0,0,108,10.0,100.0
5563,60.0,0,108,3.0,100.0
5564,36.0,60,108,10.0,100.0
5565,67.0,60,54,2.0,100.0
5566,76.0,0,54,2.0,100.0
5567,57.0,60,108,3.0,100.0
5568,45.0,0,108,10.0,100.0
5569,33.0,0,108,10.0,100.0
5570,67.0,60,54,2.0,100.0
5571,76.0,0,54,2.0,100.0
5572,47.0,0,108,10.0,100.0
5573,59.0,60,108,3.0,100.0
5574,35.0,0,108,10.0,100.0
5575,67.0,60,54,2.0,100.0
5576,67.0,0,864,7.0,100.0
5577,76.0,0,54,2.0,100.0
5578,48.0,60,108,10.0,100.0
5579,60.0,0,108,3.0,100.0
5580,36.0,0,108,10.0,100.0
5581,67.0,60,54,2.0,100.0
5582,76.0,0,54,2.0,100.0
5583,62.0,0,108,3.0,100.0
5584,50.0,0,108,10.0,100.0
5585,38.0,60,108,10.0,100.0
5586,65.0,60,54,2.0,100.0
5587,76.0,0,54,2.0,100.0
5588,40.0,0,108,10.0,100.0
5589,64.0,0,108,3.0,100.0
5590,52.0,60,108,10.0,100.0
5591,65.0,60,54,2.0,100.0
5592,76.0,0,54,2.0,100.0
5593,38.0,60,108,10.0,100.0
5594,50.0,0,108,10.0,100.0
5595,62.0,0,108,3.0,100.0
5596,65.0,60,54,2.0,100.0
5597,76.0,0,54,2.0,100.0
5598,76.0,0,912,6.0,100.0
5599,60.0,60,108,3.0,100.0
5600,36.0,0,108,10.0,100.0
5601,48.0,0,108,10.0,100.0
5602,65.0,60,54,2.0,100.0
5603,74.0,0,54,2.0,100.0
5604,47.0,0,108,10.0,100.0
5605,35.0,0,108,10.0,100.0
5606,59.0,60,108,3.0,100.0
5607,72.0,60,54,2.0,100.0
5608,65.0,0,648,7.0,100.0
5609,71.0,60,54,2.0,100.0
5610,62.0,0,108,3.0,100.0
5611,50.0,0,108,10.0,100.0
5612,38.0,0,108,10.0,100.0
5613,69.0,60,54,2.0,100.0
5614,72.0,60,54,2.0,100.0
5615,67.0,0,108,3.0,100.0
5616,43.0,0,108,10.0,100.0
5617,55.0,0,108,10.0,100.0
5618,71.0,60,54,2.0,100.0
5619,69.0,0,54,2.0,100.0
5620,62.0,0,216,7.0,100.0
5621,41.0,60,108,10.0,100.0
5622,53.0,0,108,10.0,100.0
5623,65.0,0,108,3.0,100.0
5624,67.0,60,54,2.0,100.0
5625,79.0,0,54,2.0,100.0
5626,64.0,60,108,3.0,100.0
5627,40.0,0,108,10.0,100.0
5628,52.0,0,108,10.0,100.0
5629,71.0,60,54,2.0,100.0
5630,79.0,60,54,2.0,100.0
5631,74.0,0,696,6.0,100.0
5632,65.0,0,108,3.0,100.0
5633,41.0,0,108,10.0,100.0
5634,53.0,0,108,10.0,100.0
5635,71.0,60,54,2.0,100.0
5636,77.0,0,54,2.0,100.0
5637,52.0,0,108,10.0,100.0
5638,40.0,0,108,10.0,100.0
5639,64.0,60,108,3.0,100.0
5640,71.0,60,54,2.0,100.0
5641,77.0,0,54,2.0,100.0
5642,71.0,0,216,6.0,100.0
5643,50.0,60,108,10.0,100.0
5644,62.0,0,108,3.0,100.0
5645,38.0,0,108,10.0,100.0
5646,71.0,60,54,2.0,100.0
5647,76.0,0,54,2.0,100.0
5648,48.0,0,108,10.0,100.0
5649,36.0,60,108,10.0,100.0
5650,60.0,0,108,3.0,100.0
5651,74.0,60,54,2.0,100.0
5652,67.0,0,648,7.0,100.0
5653,72.0,0,54,2.0,100.0
5654,52.0,60,108,10.0,100.0
5655,40.0,0,108,10.0,100.0
5656,64.0,0,108,3.0,100.0
5657,71.0,60,54,2.0,100.0
5658,74.0,0,54,2.0,100.0
5659,57.0,0,108,10.0,100.0
5660,45.0,0,108,10.0,100.0
5661,69.0,0,108,3.0,100.0
5662,72.0,60,54,2.0,100.0
5663,71.0,0,54,2.0,100.0
5664,64.0,60,216,7.0,100.0
5665,55.0,0,108,10.0,100.0
5666,67.0,60,108,3.0,100.0
5667,43.0,0,108,10.0,100.0
5668,69.0,60,54,2.0,100.0
5669,81.0,0,54,2.0,100.0
5670,65.0,0,108,3.0,100.0
5671,41.0,60,108,10.0,100.0
5672,53.0,0,108,10.0,100.0
5673,72.0,60,54,2.0,100.0
5674,81.0,60,54,2.0,100.0
5675,76.0,0,696,6.0,100.0
5676,67.0,0,108,3.0,100.0
5677,55.0,0,108,10.0,100.0
5678,43.0,0,108,10.0,100.0
5679,72.0,60,54,2.0,100.0
5680,79.0,0,54,2.0,100.0
5681,41.0,0,108,10.0,100.0
5682,53.0,0,108,10.0,100.0
5683,65.0,60,108,3.0,100.0
5684,72.0,60,54,2.0,100.0
5685,79.0,0,54,2.0,100.0
5686,72.0,0,216,6.0,100.0
5687,40.0,0,108,10.0,100.0
5688,52.0,60,108,10.0,100.0
5689,64.0,0,108,3.0,100.0
5690,72.0,60,54,2.0,100.0
5691,77.0,0,54,2.0,100.0
5692,38.0,0,108,10.0,100.0
5693,50.0,0,108,10.0,100.0
5694,62.0,60,108,3.0,100.0
5695,76.0,60,54,2.0,100.0
5696,69.0,0,648,7.0,100.0
5697,74.0,0,54,2.0,100.0
5698,48.0,60,108,10.0,100.0
5699,64.0,0,108,3.0,100.0
5700,36.0,0,108,10.0,100.0
5701,72.0,60,54,2.0,100.0
5702,74.0,0,54,2.0,100.0
5703,47.0,0,108,10.0,100.0
5704,35.0,60,108,10.0,100.0
5705,65.0,0,108,3.0,100.0
5706,72.0,60,54,2.0,100.0
5707,71.0,60,54,2.0,100.0
5708,62.0,0,216,7.0,100.0
5709,62.0,0,108,3.0,100.0
5710,33.0,0,108,10.0,100.0
5711,45.0,0,108,10.0,100.0
5712,69.0,60,54,2.0,100.0
5713,71.0,0,54,2.0,100.0
5714,67.0,0,108,3.0,100.0
5715,74.0,60,54,2.0,100.0
5716,71.0,60,54,2.0,100.0
5717,71.0,0,216,7.0,100.0
5718,62.0,0,108,3.0,100.0
5719,67.0,60,54,2.0,100.0
5720,74.0,0,54,2.0,100.0
5721,59.0,0,108,3.0,100.0
5722,77.0,60,54,2.0,100.0
5723,74.0,0,54,2.0,100.0
5724,77.0,0,912,6.0,100.0
5725,55.0,60,108,3.0,100.0
5726,67.0,60,54,2.0,100.0
5727,74.0,60,54,2.0,100.0
5728,60.0,0,108,3.0,100.0
5729,76.0,60,54,2.0,100.0
5730,74.0,60,54,2.0,100.0
5731,74.0,60,432,7.0,100.0
5732,62.0,0,108,3.0,100.0
5733,67.0,60,54,2.0,100.0
5734,72.0,0,54,2.0,100.0
5735,64.0,0,108,3.0,100.0
5736,76.0,60,54,2.0,100.0
5737,72.0,60,54,2.0,100.0
5738,76.0,0,432,6.0,100.0
5739,72.0,60,216,7.0,100.0
5740,54.0,0,108,3.0,100.0
5741,67.0,60,54,2.0,100.0
5742,72.0,0,54,2.0,100.0
5743,55.0,60,108,3.0,100.0
5744,74.0,60,54,2.0,100.0
5745,72.0,60,54,2.0,100.0
5746,72.0,0,216,7.0,100.0
5747,74.0,0,216,6.0,100.0
5748,57.0,0,108,3.0,100.0
5749,67.0,60,54,2.0,100.0
5750,71.0,0,54,2.0,100.0
5751,59.0,0,108,3.0,100.0
5752,79.0,60,54,2.0,100.0
5753,71.0,0,54,2.0,100.0
5754,79.0,60,216,6.0,100.0
5755,55.0,60,108,3.0,100.0
5756,67.0,60,54,2.0,100.0
5757,71.0,0,54,2.0,100.0
5758,52.0,0,108,3.0,100.0
5759,72.0,60,54,2.0,100.0
5760,71.0,60,54,2.0,100.0
5761,71.0,0,432,7.0,100.0
5762,57.0,0,108,3.0,100.0
5763,64.0,60,54,2.0,100.0
5764,69.0,0,54,2.0,100.0
5765,54.0,0,108,3.0,100.0
5766,72.0,60,54,2.0,100.0
5767,69.0,0,54,2.0,100.0
5768,72.0,60,432,6.0,100.0
5769,50.0,60,108,3.0,100.0
5770,66.0,60,54,2.0,100.0
5771,69.0,0,54,2.0,100.0
5772,55.0,0,108,3.0,100.0
5773,71.0,60,54,2.0,100.0
5774,69.0,0,54,2.0,100.0
5775,69.0,60,456,7.0,100.0
5776,71.0,60,216,6.0,100.0
5777,53.0,60,108,3.0,100.0
5778,62.0,60,54,2.0,100.0
5779,67.0,0,54,2.0,100.0
5780,52.0,0,108,3.0,100.0
5781,76.0,60,54,2.0,100.0
5782,67.0,60,54,2.0,100.0
5783,76.0,60,216,6.0,100.0
5784,50.0,0,108,3.0,100.0
5785,64.0,60,54,2.0,100.0
5786,67.0,0,54,2.0,100.0
5787,48.0,60,108,3.0,100.0
5788,69.0,60,54,2.0,100.0
5789,67.0,60,54,2.0,100.0
5790,67.0,0,432,7.0,100.0
5791,52.0,0,108,3.0,100.0
5792,60.0,60,54,2.0,100.0
5793,65.0,0,54,2.0,100.0
5794,50.0,60,108,3.0,100.0
5795,69.0,60,54,2.0,100.0
5796,65.0,0,54,2.0,100.0
5797,69.0,0,432,6.0,100.0
5798,48.0,60,108,3.0,100.0
5799,62.0,60,54,2.0,100.0
5800,65.0,60,54,2.0,100.0
5801,47.0,0,108,3.0,100.0
5802,67.0,60,54,2.0,100.0
5803,65.0,60,54,2.0,100.0
5804,65.0,0,456,7.0,100.0
5805,67.0,0,216,6.0,100.0
5806,50.0,0,108,3.0,100.0
5807,59.0,60,54,2.0,100.0
5808,64.0,60,54,2.0,100.0
5809,48.0,0,108,3.0,100.0
5810,72.0,60,54,2.0,100.0
5811,64.0,60,54,2.0,100.0
5812,72.0,0,216,6.0,100.0
5813,47.0,0,108,3.0,100.0
5814,60.0,60,54,2.0,100.0
5815,64.0,0,54,2.0,100.0
5816,45.0,0,108,3.0,100.0
5817,65.0,60,54,2.0,100.0
5818,64.0,60,54,2.0,100.0
5819,64.0,0,432,7.0,100.0
5820,48.0,0,108,3.0,100.0
5821,57.0,60,54,2.0,100.0
5822,62.0,0,54,2.0,100.0
5823,47.0,0,108,3.0,100.0
5824,65.0,60,54,2.0,100.0
5825,62.0,60,54,2.0,100.0
5826,65.0,60,432,6.0,100.0
5827,50.0,0,108,3.0,100.0
5828,59.0,60,54,2.0,100.0
5829,62.0,0,54,2.0,100.0
5830,48.0,60,108,3.0,100.0
5831,64.0,60,54,2.0,100.0
5832,62.0,60,54,2.0,100.0
5833,62.0,60,456,7.0,100.0
5834,50.0,0,108,3.0,100.0
5835,59.0,60,54,2.0,100.0
5836,60.0,0,54,2.0,100.0
5837,52.0,0,108,3.0,100.0
5838,60.0,60,108,7.0,100.0
5839,64.0,60,54,2.0,100.0
5840,62.0,0,54,2.0,100.0
5841,59.0,60,108,7.0,100.0
5842,53.0,0,108,3.0,100.0
5843,60.0,60,54,2.0,100.0
5844,52.0,0,54,3.0,100.0
5845,67.0,0,54,2.0,100.0
5846,55.0,60,54,3.0,100.0
5847,71.0,0,54,2.0,100.0
5848,64.0,0,648,6.0,100.0
5849,69.0,60,54,2.0,100.0
5850,54.0,0,54,3.0,100.0
5851,60.0,60,216,7.0,100.0
5852,67.0,0,54,2.0,100.0
5853,52.0,60,54,3.0,100.0
5854,50.0,0,54,3.0,100.0
5855,72.0,60,54,2.0,100.0
5856,76.0,60,54,2.0,100.0
5857,48.0,0,54,3.0,100.0
5858,47.0,60,54,3.0,100.0
5859,74.0,0,54,2.0,100.0
5860,66.0,0,216,6.0,100.0
5861,57.0,0,216,7.0,100.0
5862,45.0,0,54,3.0,100.0
5863,72.0,60,54,2.0,100.0
5864,71.0,0,216,2.0,100.0
5865,43.0,60,216,3.0,100.0
5866,59.0,0,216,7.0,100.0
5867,67.0,0,216,6.0,100.0
5868,43.0,0,5016,10.0,100.0
5869,31.0,60,5016,10.0,100.0
5870,50.0,120,108,5.0,100.0
5871,66.0,0,108,4.0,100.0
5872,52.0,0,108,5.0,100.0
5873,67.0,0,108,4.0,100.0
5874,29.0,0,216,10.0,100.0
5875,41.0,120,216,10.0,100.0
5876,54.0,0,108,5.0,100.0
5877,69.0,120,108,4.0,100.0
5878,28.0,0,216,10.0,100.0
5879,40.0,0,216,10.0,100.0
5880,58.0,0,108,3.0,100.0
5881,74.0,120,108,2.0,100.0
5882,60.0,120,108,3.0,100.0
5883,76.0,0,108,2.0,100.0
5884,26.0,0,216,10.0,100.0
5885,38.0,0,216,10.0,100.0
5886,77.0,0,108,2.0,100.0
5887,62.0,120,108,3.0,100.0
5888,70.0,120,588,4.0,100.0
5889,36.0,0,216,10.0,100.0
5890,24.0,0,216,10.0,100.0
5891,55.0,0,696,5.0,100.0
5892,60.0,0,216,3.0,100.0
5893,79.0,120,216,2.0,100.0
5894,72.0,120,108,4.0,100.0
5895,55.0,0,108,0.0,100.0
5896,70.0,0,108,4.0,100.0
5897,57.0,0,108,0.0,100.0
5898,41.0,0,216,10.0,100.0
5899,53.0,0,216,8.0,100.0
5900,72.0,0,216,7.0,100.0
5901,48.0,0,216,5.0,100.0
5902,65.0,0,216,3.0,100.0
5903,29.0,0,216,10.0,100.0
5904,41.0,0,216,1.0,100.0
5905,58.0,120,108,0.0,100.0
5906,69.0,0,108,4.0,100.0
5907,67.0,0,108,4.0,100.0
5908,77.0,0,432,2.0,100.0
5909,77.0,120,432,6.0,100.0
5910,55.0,0,216,8.0,100.0
5911,48.0,120,216,10.0,100.0
5912,72.0,0,216,7.0,100.0
5913,48.0,0,216,1.0,100.0
5914,36.0,0,216,10.0,100.0
5915,69.0,120,108,4.0,100.0
5916,53.0,0,108,0.0,100.0
5917,60.0,0,324,3.0,100.0
5918,55.0,120,108,0.0,100.0
5919,70.0,0,108,4.0,100.0
5920,60.0,0,432,0.0,100.0
5921,72.0,0,216,7.0,100.0
5922,36.0,0,216,1.0,100.0
5923,76.0,0,216,2.0,100.0
5924,76.0,0,216,6.0,100.0
5925,36.0,0,216,10.0,100.0
5926,67.0,0,216,8.0,100.0
5927,24.0,0,216,10.0,100.0
5928,58.0,0,108,3.0,100.0
5929,67.0,0,108,4.0,100.0
5930,52.0,120,108,0.0,100.0
5931,48.0,0,54,0.0,100.0
5932,77.0,120,108,2.0,100.0
5933,57.0,0,108,3.0,100.0
5934,60.0,0,588,5.0,100.0
5935,58.0,60,54,0.0,100.0
5936,57.0,0,54,0.0,100.0
5937,69.0,0,216,8.0,100.0
5938,41.0,0,216,10.0,100.0
5939,72.0,0,216,7.0,100.0
5940,53.0,0,216,10.0,100.0
5941,77.0,0,216,6.0,100.0
5942,41.0,0,216,1.0,100.0
5943,72.0,0,108,2.0,100.0
5944,58.0,60,108,5.0,100.0
5945,57.0,0,108,3.0,100.0
5946,55.0,60,54,0.0,100.0
5947,74.0,60,108,2.0,100.0
5948,59.0,0,108,3.0,100.0
5949,57.0,0,108,5.0,100.0
5950,69.0,0,432,4.0,100.0
5951,52.0,0,216,10.0,100.0
5952,53.0,0,216,0.0,100.0
5953,40.0,0,216,10.0,100.0
5954,60.0,120,108,3.0,100.0
5955,55.0,0,108,5.0,100.0
5956,76.0,0,108,2.0,100.0
5957,57.0,0,108,5.0,100.0
5958,38.0,120,216,10.0,100.0
5959,50.0,0,216,10.0,100.0
5960,53.0,120,108,5.0,100.0
5961,69.0,0,108,4.0,100.0
5962,55.0,120,108,5.0,100.0
5963,71.0,0,108,4.0,100.0
5964,48.0,0,216,10.0,100.0
5965,36.0,0,216,10.0,100.0
5966,57.0,120,108,5.0,100.0
5967,72.0,0,108,4.0,100.0
5968,77.0,0,588,2.0,100.0
5969,55.0,0,216,5.0,100.0
5970,47.0,120,216,10.0,100.0
5971,62.0,0,696,3.0,100.0
5972,74.0,0,216,4.0,100.0
5973,35.0,0,216,10.0,100.0
5974,62.0,0,108,0.0,100.0
5975,79.0,120,108,2.0,100.0
5976,77.0,120,108,2.0,100.0
5977,64.0,0,108,0.0,100.0
5978,55.0,0,216,3.0,100.0
5979,48.0,0,216,1.0,100.0
5980,48.0,0,216,10.0,100.0
5981,36.0,0,216,10.0,100.0
5982,60.0,0,216,5.0,100.0
5983,60.0,0,216,8.0,100.0
5984,67.0,0,216,7.0,100.0
5985,65.0,0,108,0.0,100.0
5986,76.0,120,108,2.0,100.0
5987,74.0,0,108,2.0,100.0
5988,72.0,0,432,4.0,100.0
5989,72.0,0,432,6.0,100.0
5990,55.0,120,216,10.0,100.0
5991,43.0,0,216,10.0,100.0
5992,67.0,0,216,7.0,100.0
5993,55.0,0,216,1.0,100.0
5994,62.0,0,216,8.0,100.0
5995,76.0,0,108,2.0,100.0
5996,60.0,120,108,0.0,100.0
5997,55.0,0,324,5.0,100.0
5998,62.0,0,108,0.0,100.0
5999,77.0,0,108,2.0,100.0
6000,62.0,0,216,8.0,100.0
6001,67.0,0,216,7.0,100.0
6002,31.0,0,216,10.0,100.0
6003,43.0,0,216,1.0,100.0
6004,71.0,120,216,6.0,100.0
6005,71.0,0,216,4.0,100.0
6006,43.0,0,216,10.0,100.0
6007,53.0,0,108,5.0,100.0
6008,59.0,0,108,0.0,100.0
6009,74.0,120,108,2.0,100.0
6010,52.0,0,108,5.0,100.0
6011,67.0,0,588,0.0,100.0
6012,67.0,0,588,3.0,100.0
6013,48.0,0,108,1.0,100.0
6014,64.0,0,108,0.0,100.0
6015,67.0,0,216,7.0,100.0
6016,64.0,120,216,8.0,100.0
6017,48.0,0,216,10.0,100.0
6018,36.0,0,216,10.0,100.0
6019,72.0,0,216,6.0,100.0
6020,64.0,0,108,0.0,100.0
6021,53.0,120,108,3.0,100.0
6022,79.0,0,108,0.0,100.0
6023,50.0,0,108,5.0,100.0
6024,66.0,0,108,0.0,100.0
6025,52.0,0,108,3.0,100.0
6026,81.0,0,108,0.0,100.0
6027,48.0,120,108,5.0,100.0
6028,35.0,0,216,10.0,100.0
6029,47.0,0,216,10.0,100.0
6030,50.0,0,108,3.0,100.0
6031,67.0,0,108,0.0,100.0
6032,47.0,120,108,5.0,100.0
6033,83.0,0,108,0.0,100.0
6034,72.0,0,588,4.0,100.0
6035,45.0,0,108,5.0,100.0
6036,76.0,0,588,2.0,100.0
6037,48.0,0,108,3.0,100.0
6038,33.0,0,216,10.0,100.0
6039,45.0,0,216,10.0,100.0
6040,76.0,0,108,2.0,100.0
6041,47.0,0,108,5.0,100.0
6042,74.0,0,108,4.0,100.0
6043,60.0,120,108,3.0,100.0
6044,72.0,0,108,4.0,100.0
6045,78.0,0,108,2.0,100.0
6046,62.0,0,108,3.0,100.0
6047,45.0,120,108,5.0,100.0
6048,43.0,0,216,10.0,100.0
6049,31.0,0,216,10.0,100.0
6050,71.0,0,108,4.0,100.0
6051,79.0,0,108,2.0,100.0
6052,43.0,120,108,5.0,100.0
6053,64.0,0,108,3.0,100.0
6054,69.0,0,108,4.0,100.0
6055,66.0,0,108,3.0,100.0
6056,84.0,0,588,0.0,100.0
6057,42.0,120,216,10.0,100.0
6058,30.0,0,216,10.0,100.0
6059,42.0,0,216,5.0,100.0
6060,69.0,120,696,0.0,100.0
6061,81.0,0,216,2.0,100.0
6062,83.0,120,108,0.0,100.0
6063,62.0,0,108,3.0,100.0
6064,62.0,0,108,4.0,100.0
6065,84.0,0,108,0.0,100.0
6066,59.0,0,108,3.0,100.0
6067,67.0,0,216,8.0,100.0
6068,74.0,0,216,4.0,100.0
6069,31.0,120,216,10.0,100.0
6070,43.0,0,216,5.0,100.0
6071,74.0,0,216,7.0,100.0
6072,43.0,0,216,10.0,100.0
6073,62.0,0,216,0.0,100.0
6074,55.0,0,108,3.0,100.0
6075,83.0,120,108,0.0,100.0
6076,84.0,0,108,0.0,100.0
6077,57.0,0,108,3.0,100.0
6078,79.0,0,432,2.0,100.0
6079,79.0,0,432,6.0,100.0
6080,74.0,0,216,7.0,100.0
6081,50.0,0,216,10.0,100.0
6082,38.0,120,216,10.0,100.0
6083,69.0,0,216,8.0,100.0
6084,50.0,0,216,5.0,100.0
6085,62.0,0,108,3.0,100.0
6086,67.0,0,108,4.0,100.0
6087,83.0,120,108,0.0,100.0
6088,69.0,0,108,4.0,100.0
6089,60.0,0,108,3.0,100.0
6090,84.0,0,108,0.0,100.0
6091,74.0,0,432,4.0,100.0
6092,26.0,0,216,10.0,100.0
6093,38.0,0,216,5.0,100.0
6094,69.0,0,216,8.0,100.0
6095,38.0,0,216,10.0,100.0
6096,78.0,0,216,6.0,100.0
6097,78.0,0,216,2.0,100.0
6098,74.0,120,216,7.0,100.0
6099,62.0,0,108,3.0,100.0
6100,81.0,120,108,0.0,100.0
6101,66.0,0,108,4.0,100.0
6102,62.0,120,54,4.0,100.0
6103,72.0,60,54,4.0,100.0
6104,71.0,60,54,4.0,100.0
6105,43.0,0,216,5.0,100.0
6106,74.0,0,216,7.0,100.0
6107,79.0,0,216,2.0,100.0
6108,55.0,0,216,3.0,100.0
6109,67.0,0,216,8.0,100.0
6110,74.0,0,696,0.0,100.0
6111,69.0,60,54,4.0,100.0
6112,31.0,0,108,10.0,100.0
6113,43.0,0,108,10.0,100.0
6114,43.0,0,108,5.0,100.0
6115,43.0,0,108,3.0,100.0
6116,43.0,0,108,1.0,100.0
6117,67.0,60,216,4.0,100.0
6118,74.0,0,216,7.0,100.0
6119,74.0,0,216,2.0,100.0
6120,42.0,0,108,3.0,100.0
6121,30.0,0,108,10.0,100.0
6122,42.0,120,108,10.0,100.0
6123,42.0,0,108,1.0,100.0
6124,42.0,0,108,5.0,100.0
6125,31.0,0,108,10.0,100.0
6126,43.0,0,108,10.0,100.0
6127,43.0,0,108,3.0,100.0
6128,43.0,120,108,5.0,100.0
6129,43.0,0,108,1.0,100.0
6130,79.0,0,216,7.0,100.0
6131,79.0,0,216,2.0,100.0
6132,33.0,0,108,10.0,100.0
6133,45.0,0,108,3.0,100.0
6134,45.0,120,108,1.0,100.0
6135,45.0,0,108,10.0,100.0
6136,45.0,0,108,5.0,100.0
6137,47.0,0,108,1.0,100.0
6138,47.0,0,108,3.0,100.0
6139,35.0,0,108,10.0,100.0
6140,47.0,120,108,5.0,100.0
6141,47.0,0,108,10.0,100.0
6142,83.0,0,864,0.0,100.0
6143,83.0,0,864,6.0,100.0
6144,79.0,0,216,2.0,100.0
6145,79.0,0,216,7.0,100.0
6146,48.0,0,108,10.0,100.0
6147,48.0,120,108,3.0,100.0
6148,36.0,0,108,10.0,100.0
6149,48.0,0,108,5.0,100.0
6150,48.0,0,108,1.0,100.0
6151,50.0,0,108,1.0,100.0
6152,50.0,0,108,10.0,100.0
6153,50.0,0,108,5.0,100.0
6154,38.0,0,108,10.0,100.0
6155,50.0,0,108,3.0,100.0
6156,79.0,0,216,2.0,100.0
6157,79.0,120,216,7.0,100.0
6158,49.0,0,108,3.0,100.0
6159,49.0,0,108,5.0,100.0
6160,49.0,120,108,10.0,100.0
6161,49.0,0,108,1.0,100.0
6162,37.0,0,108,10.0,100.0
6163,50.0,0,108,5.0,100.0
6164,78.0,0,108,2.0,100.0
6165,38.0,0,108,10.0,100.0
6166,50.0,120,108,1.0,100.0
6167,50.0,0,108,10.0,100.0
6168,78.0,0,108,7.0,100.0
6169,50.0,0,108,3.0,100.0
6170,69.0,0,216,4.0,100.0
6171,69.0,0,216,8.0,100.0
6172,52.0,0,108,10.0,100.0
6173,52.0,0,108,3.0,100.0
6174,52.0,0,108,1.0,100.0
6175,76.0,0,108,7.0,100.0
6176,76.0,0,108,2.0,100.0
6177,52.0,120,108,5.0,100.0
6178,40.0,0,108,10.0,100.0
6179,74.0,0,108,2.0,100.0
6180,54.0,0,108,3.0,100.0
6181,54.0,0,108,10.0,100.0
6182,54.0,0,108,5.0,100.0
6183,42.0,120,108,10.0,100.0
6184,74.0,0,108,7.0,100.0
6185,54.0,0,108,1.0,100.0
6186,74.0,0,216,8.0,100.0
6187,74.0,0,216,4.0,100.0
6188,52.0,0,108,1.0,100.0
6189,52.0,0,108,3.0,100.0
6190,76.0,0,108,2.0,100.0
6191,76.0,0,108,7.0,100.0
6192,52.0,0,108,10.0,100.0
6193,52.0,0,108,5.0,100.0
6194,40.0,120,108,10.0,100.0
6195,54.0,0,108,1.0,100.0
6196,72.0,0,108,7.0,100.0
6197,72.0,0,108,2.0,100.0
6198,54.0,0,108,10.0,100.0
6199,54.0,120,108,5.0,100.0
6200,42.0,0,108,10.0,100.0
6201,54.0,0,108,3.0,100.0
6202,74.0,0,216,4.0,100.0
6203,74.0,0,216,8.0,100.0
6204,50.0,0,108,1.0,100.0
6205,50.0,120,108,3.0,100.0
6206,74.0,0,108,2.0,100.0
6207,50.0,0,108,10.0,100.0
6208,50.0,0,108,5.0,100.0
6209,38.0,0,108,10.0,100.0
6210,74.0,0,108,7.0,100.0
6211,43.0,0,108,10.0,100.0
6212,55.0,0,108,10.0,100.0
6213,55.0,0,108,1.0,100.0
6214,71.0,0,108,2.0,100.0
6215,55.0,0,108,5.0,100.0
6216,55.0,120,108,3.0,100.0
6217,74.0,0,216,4.0,100.0
6218,74.0,0,216,8.0,100.0
6219,81.0,0,1176,0.0,100.0
6220,81.0,0,1176,6.0,100.0
6221,54.0,0,108,1.0,100.0
6222,54.0,120,108,5.0,100.0
6223,54.0,0,108,3.0,100.0
6224,69.0,0,108,2.0,100.0
6225,42.0,0,108,10.0,100.0
6226,54.0,0,108,10.0,100.0
6227,79.0,0,108,6.0,100.0
6228,55.0,0,108,1.0,100.0
6229,79.0,0,108,0.0,100.0
6230,55.0,0,108,10.0,100.0
6231,43.0,0,108,10.0,100.0
6232,55.0,0,108,5.0,100.0
6233,76.0,0,108,4.0,100.0
6234,55.0,0,108,3.0,100.0
6235,76.0,120,108,8.0,100.0
6236,57.0,0,108,5.0,100.0
6237,57.0,0,108,3.0,100.0
6238,45.0,0,108,10.0,100.0
6239,74.0,0,108,4.0,100.0
6240,57.0,0,108,1.0,100.0
6241,78.0,0,108,0.0,100.0
6242,78.0,0,108,6.0,100.0
6243,57.0,120,108,10.0,100.0
6244,74.0,0,108,8.0,100.0
6245,72.0,120,108,4.0,100.0
6246,76.0,0,108,6.0,100.0
6247,71.0,0,588,7.0,100.0
6248,55.0,0,108,10.0,100.0
6249,55.0,0,108,5.0,100.0
6250,55.0,0,108,3.0,100.0
6251,55.0,0,108,1.0,100.0
6252,76.0,0,108,0.0,100.0
6253,43.0,0,108,10.0,100.0
6254,71.0,0,348,2.0,100.0
6255,59.0,0,108,3.0,100.0
6256,79.0,0,108,0.0,100.0
6257,79.0,0,108,6.0,100.0
6258,67.0,120,108,7.0,100.0
6259,71.0,0,108,4.0,100.0
6260,47.0,0,108,10.0,100.0
6261,67.0,0,108,2.0,100.0
6262,59.0,0,108,1.0,100.0
6263,59.0,0,108,5.0,100.0
6264,59.0,0,108,10.0,100.0
6265,69.0,0,108,2.0,100.0
6266,78.0,0,108,6.0,100.0
6267,78.0,0,108,0.0,100.0
6268,57.0,0,108,10.0,100.0
6269,69.0,0,108,7.0,100.0
6270,45.0,0,108,10.0,100.0
6271,57.0,0,108,1.0,100.0
6272,57.0,0,108,3.0,100.0
6273,57.0,0,108,5.0,100.0
6274,76.0,0,108,6.0,100.0
6275,55.0,0,108,1.0,100.0
6276,71.0,0,108,2.0,100.0
6277,55.0,0,108,5.0,100.0
6278,55.0,120,108,3.0,100.0
6279,76.0,0,108,0.0,100.0
6280,71.0,0,108,7.0,100.0
6281,55.0,0,108,10.0,100.0
6282,43.0,0,108,10.0,100.0
6283,54.0,0,108,5.0,100.0
6284,54.0,0,108,3.0,100.0
6285,69.0,0,108,2.0,100.0
6286,69.0,0,108,7.0,100.0
6287,54.0,0,108,1.0,100.0
6288,54.0,0,108,10.0,100.0
6289,42.0,0,108,10.0,100.0
6290,72.0,120,456,4.0,100.0
6291,72.0,0,696,8.0,100.0
6292,78.0,0,108,2.0,100.0
6293,57.0,0,108,10.0,100.0
6294,45.0,0,108,10.0,100.0
6295,57.0,0,108,3.0,100.0
6296,57.0,0,108,5.0,100.0
6297,57.0,0,108,1.0,100.0
6298,78.0,120,108,7.0,100.0
6299,79.0,120,108,2.0,100.0
6300,71.0,0,108,4.0,100.0
6301,71.0,0,108,8.0,100.0
6302,50.0,0,108,5.0,100.0
6303,50.0,0,108,1.0,100.0
6304,50.0,0,108,10.0,100.0
6305,50.0,0,108,3.0,100.0
6306,79.0,0,108,7.0,100.0
6307,38.0,0,108,10.0,100.0
6308,81.0,0,108,7.0,100.0
6309,54.0,0,108,10.0,100.0
6310,69.0,0,108,8.0,100.0
6311,54.0,120,108,3.0,100.0
6312,81.0,0,108,2.0,100.0
6313,42.0,0,108,10.0,100.0
6314,69.0,0,108,4.0,100.0
6315,54.0,0,108,1.0,100.0
6316,54.0,0,108,5.0,100.0
6317,67.0,120,108,4.0,100.0
6318,67.0,0,108,8.0,100.0
6319,55.0,0,108,3.0,100.0
6320,55.0,0,108,10.0,100.0
6321,43.0,0,108,10.0,100.0
6322,55.0,0,108,1.0,100.0
6323,55.0,0,108,5.0,100.0
6324,83.0,0,216,2.0,100.0
6325,83.0,0,216,7.0,100.0
6326,59.0,0,108,10.0,100.0
6327,59.0,0,108,1.0,100.0
6328,59.0,0,108,3.0,100.0
6329,66.0,120,108,4.0,100.0
6330,66.0,0,108,8.0,100.0
6331,47.0,0,108,10.0,100.0
6332,59.0,0,108,5.0,100.0
6333,50.0,120,108,1.0,100.0
6334,38.0,0,108,10.0,100.0
6335,67.0,0,108,8.0,100.0
6336,50.0,0,108,3.0,100.0
6337,67.0,0,108,4.0,100.0
6338,50.0,0,108,5.0,100.0
6339,50.0,0,108,10.0,100.0
6340,74.0,0,864,0.0,100.0
6341,74.0,120,864,6.0,100.0
6342,83.0,0,216,7.0,100.0
6343,83.0,0,216,2.0,100.0
6344,54.0,0,108,10.0,100.0
6345,54.0,0,108,5.0,100.0
6346,54.0,120,108,1.0,100.0
6347,62.0,0,108,4.0,100.0
6348,54.0,0,108,3.0,100.0
6349,62.0,0,108,8.0,100.0
6350,42.0,0,108,10.0,100.0
6351,40.0,0,108,10.0,100.0
6352,52.0,0,108,10.0,100.0
6353,52.0,0,108,1.0,100.0
6354,52.0,0,108,5.0,100.0
6355,67.0,0,108,4.0,100.0
6356,67.0,0,108,8.0,100.0
6357,52.0,120,108,3.0,100.0
6358,83.0,0,216,7.0,100.0
6359,83.0,0,216,2.0,100.0
6360,66.0,0,108,8.0,100.0
6361,71.0,0,108,4.0,100.0
6362,55.0,0,108,10.0,100.0
6363,55.0,0,108,1.0,100.0
6364,43.0,0,108,10.0,100.0
6365,55.0,0,108,3.0,100.0
6366,55.0,120,108,5.0,100.0
6367,64.0,0,108,4.0,100.0
6368,48.0,0,108,10.0,100.0
6369,81.0,0,108,7.0,100.0
6370,48.0,120,108,5.0,100.0
6371,36.0,0,108,10.0,100.0
6372,48.0,0,108,1.0,100.0
6373,81.0,0,108,2.0,100.0
6374,48.0,0,108,3.0,100.0
6375,52.0,120,108,10.0,100.0
6376,67.0,0,108,4.0,100.0
6377,79.0,0,108,2.0,100.0
6378,40.0,0,108,10.0,100.0
6379,52.0,0,108,1.0,100.0
6380,52.0,0,108,3.0,100.0
6381,79.0,0,108,7.0,100.0
6382,52.0,0,108,5.0,100.0
6383,64.0,0,348,8.0,100.0
6384,42.0,0,108,10.0,100.0
6385,60.0,0,108,4.0,100.0
6386,54.0,0,108,3.0,100.0
6387,54.0,0,108,10.0,100.0
6388,54.0,0,108,5.0,100.0
6389,54.0,0,108,1.0,100.0
6390,81.0,120,216,7.0,100.0
6391,81.0,0,216,2.0,100.0
6392,57.0,0,108,3.0,100.0
6393,66.0,0,108,4.0,100.0
6394,57.0,0,108,1.0,100.0
6395,57.0,120,108,5.0,100.0
6396,66.0,0,108,8.0,100.0
6397,57.0,0,108,10.0,100.0
6398,45.0,0,108,10.0,100.0
6399,48.0,0,108,10.0,100.0
6400,36.0,0,108,10.0,100.0
6401,69.0,0,108,8.0,100.0
6402,48.0,120,108,3.0,100.0
6403,48.0,0,108,1.0,100.0
6404,48.0,0,108,5.0,100.0
6405,69.0,0,108,4.0,100.0
6406,72.0,0,864,0.0,100.0
6407,72.0,0,864,6.0,100.0
6408,81.0,0,216,7.0,100.0
6409,81.0,0,216,2.0,100.0
6410,52.0,120,108,3.0,100.0
6411,52.0,0,108,1.0,100.0
6412,40.0,0,108,10.0,100.0
6413,60.0,0,108,8.0,100.0
6414,60.0,0,108,4.0,100.0
6415,52.0,0,108,10.0,100.0
6416,52.0,0,108,5.0,100.0
6417,50.0,0,108,5.0,100.0
6418,50.0,0,108,1.0,100.0
6419,50.0,0,108,10.0,100.0
6420,50.0,0,108,3.0,100.0
6421,66.0,0,108,8.0,100.0
6422,66.0,0,108,4.0,100.0
6423,81.0,0,108,7.0,100.0
6424,38.0,0,108,10.0,100.0
6425,81.0,120,108,2.0,100.0
6426,54.0,0,108,3.0,100.0
6427,54.0,0,108,5.0,100.0
6428,54.0,0,108,1.0,100.0
6429,74.0,0,108,2.0,100.0
6430,54.0,0,108,10.0,100.0
6431,69.0,0,108,8.0,100.0
6432,74.0,0,108,7.0,100.0
6433,42.0,120,108,10.0,100.0
6434,69.0,0,108,4.0,100.0
6435,76.0,0,108,7.0,100.0
6436,47.0,0,108,1.0,100.0
6437,67.0,0,108,8.0,100.0
6438,47.0,0,108,10.0,100.0
6439,67.0,0,108,4.0,100.0
6440,47.0,0,108,5.0,100.0
6441,47.0,0,108,3.0,100.0
6442,35.0,120,108,10.0,100.0
6443,76.0,0,108,2.0,100.0
6444,66.0,120,108,4.0,100.0
6445,66.0,0,108,8.0,100.0
6446,78.0,0,108,7.0,100.0
6447,50.0,0,108,3.0,100.0
6448,50.0,0,108,5.0,100.0
6449,38.0,0,108,10.0,100.0
6450,50.0,0,108,10.0,100.0
6451,50.0,0,108,1.0,100.0
6452,78.0,0,108,2.0,100.0
6453,52.0,0,108,5.0,100.0
6454,52.0,0,108,1.0,100.0
6455,52.0,0,108,3.0,100.0
6456,40.0,0,108,10.0,100.0
6457,64.0,120,108,4.0,100.0
6458,52.0,0,108,10.0,100.0
6459,79.0,0,216,7.0,100.0
6460,79.0,0,216,2.0,100.0
6461,55.0,0,108,3.0,100.0
6462,55.0,0,108,5.0,100.0
6463,55.0,0,108,10.0,100.0
6464,55.0,0,108,1.0,100.0
6465,43.0,120,108,10.0,100.0
6466,59.0,0,108,4.0,100.0
6467,47.0,0,108,10.0,100.0
6468,47.0,0,108,5.0,100.0
6469,64.0,0,108,4.0,100.0
6470,35.0,0,108,10.0,100.0
6471,47.0,0,108,3.0,100.0
6472,47.0,120,108,1.0,100.0
6473,71.0,0,864,6.0,100.0
6474,71.0,0,864,0.0,100.0
6475,79.0,0,216,2.0,100.0
6476,79.0,0,216,7.0,100.0
6477,50.0,0,108,5.0,100.0
6478,50.0,0,108,3.0,100.0
6479,50.0,0,108,1.0,100.0
6480,62.0,0,108,4.0,100.0
6481,50.0,0,108,10.0,100.0
6482,38.0,120,108,10.0,100.0
6483,48.0,0,108,3.0,100.0
6484,48.0,0,108,5.0,100.0
6485,48.0,0,108,10.0,100.0
6486,48.0,0,108,1.0,100.0
6487,36.0,0,108,10.0,100.0
6488,79.0,120,216,2.0,100.0
6489,64.0,0,216,4.0,100.0
6490,79.0,0,216,7.0,100.0
6491,64.0,0,696,8.0,100.0
6492,52.0,0,108,5.0,100.0
6493,52.0,0,108,3.0,100.0
6494,40.0,0,108,10.0,100.0
6495,52.0,0,108,10.0,100.0
6496,52.0,120,108,1.0,100.0
6497,45.0,0,108,1.0,100.0
6498,81.0,120,108,2.0,100.0
6499,45.0,0,108,5.0,100.0
6500,81.0,0,108,7.0,100.0
6501,45.0,0,108,10.0,100.0
6502,45.0,0,108,3.0,100.0
6503,33.0,0,108,10.0,100.0
6504,60.0,0,216,4.0,100.0
6505,60.0,0,216,8.0,100.0
6506,48.0,0,108,5.0,100.0
6507,48.0,0,108,10.0,100.0
6508,48.0,0,108,3.0,100.0
6509,79.0,0,108,7.0,100.0
6510,48.0,0,108,1.0,100.0
6511,36.0,0,108,10.0,100.0
6512,79.0,120,108,2.0,100.0
6513,78.0,0,108,7.0,100.0
6514,50.0,120,108,10.0,100.0
6515,50.0,0,108,3.0,100.0
6516,78.0,0,108,2.0,100.0
6517,50.0,0,108,1.0,100.0
6518,38.0,0,108,10.0,100.0
6519,50.0,0,108,5.0,100.0
6520,57.0,0,216,8.0,100.0
6521,57.0,0,216,4.0,100.0
6522,81.0,0,108,2.0,100.0
6523,81.0,0,108,7.0,100.0
6524,54.0,0,108,10.0,100.0
6525,54.0,0,108,5.0,100.0
6526,54.0,0,108,1.0,100.0
6527,54.0,0,108,3.0,100.0
6528,42.0,120,108,10.0,100.0
6529,33.0,0,108,10.0,100.0
6530,45.0,0,108,3.0,100.0
6531,45.0,0,108,5.0,100.0
6532,79.0,0,108,7.0,100.0
6533,45.0,0,108,10.0,100.0
6534,79.0,0,108,2.0,100.0
6535,45.0,0,108,1.0,100.0
6536,69.0,0,864,0.0,100.0
6537,69.0,0,864,6.0,100.0
6538,48.0,0,108,5.0,100.0
6539,78.0,0,108,2.0,100.0
6540,36.0,0,108,10.0,100.0
6541,78.0,0,108,7.0,100.0
6542,48.0,120,108,3.0,100.0
6543,48.0,0,108,1.0,100.0
6544,48.0,0,108,10.0,100.0
6545,47.0,0,108,10.0,100.0
6546,47.0,0,108,1.0,100.0
6547,35.0,120,108,10.0,100.0
6548,79.0,0,108,7.0,100.0
6549,47.0,0,108,3.0,100.0
6550,47.0,0,108,5.0,100.0
6551,62.0,0,348,8.0,100.0
6552,79.0,0,108,2.0,100.0
6553,62.0,120,348,4.0,100.0
6554,67.0,0,108,4.0,100.0
6555,67.0,0,108,8.0,100.0
6556,50.0,0,108,10.0,100.0
6557,50.0,0,108,3.0,100.0
6558,74.0,0,108,2.0,100.0
6559,74.0,120,108,7.0,100.0
6560,50.0,0,108,1.0,100.0
6561,38.0,0,108,10.0,100.0
6562,50.0,0,108,5.0,100.0
6563,71.0,0,108,2.0,100.0
6564,62.0,0,108,8.0,100.0
6565,31.0,120,108,10.0,100.0
6566,62.0,0,108,4.0,100.0
6567,71.0,0,108,7.0,100.0
6568,43.0,0,108,3.0,100.0
6569,43.0,0,108,10.0,100.0
6570,43.0,0,108,1.0,100.0
6571,43.0,0,108,5.0,100.0
6572,47.0,0,108,5.0,100.0
6573,59.0,0,108,8.0,100.0
6574,74.0,0,108,7.0,100.0
6575,47.0,120,108,10.0,100.0
6576,35.0,0,108,10.0,100.0
6577,59.0,0,108,4.0,100.0
6578,47.0,0,108,1.0,100.0
6579,47.0,0,108,3.0,100.0
6580,74.0,0,108,2.0,100.0
6581,76.0,120,108,2.0,100.0
6582,48.0,0,108,3.0,100.0
6583,76.0,0,108,7.0,100.0
6584,48.0,0,108,5.0,100.0
6585,48.0,0,108,10.0,100.0
6586,67.0,0,588,0.0,100.0
6587,36.0,0,108,10.0,100.0
6588,67.0,0,588,6.0,100.0
6589,48.0,0,108,1.0,100.0
6590,55.0,0,216,8.0,100.0
6591,55.0,0,216,4.0,100.0
6592,52.0,0,108,3.0,100.0
6593,74.0,0,108,2.0,100.0
6594,69.0,0,108,0.0,100.0
6595,69.0,120,108,6.0,100.0
6596,40.0,0,108,10.0,100.0
6597,52.0,0,108,5.0,100.0
6598,52.0,0,108,10.0,100.0
6599,74.0,0,108,7.0,100.0
6600,52.0,0,108,1.0,100.0
6601,31.0,0,108,10.0,100.0
6602,43.0,0,108,3.0,100.0
6603,67.0,0,108,6.0,100.0
6604,43.0,0,108,10.0,100.0
6605,43.0,0,108,5.0,100.0
6606,43.0,0,108,1.0,100.0
6607,76.0,0,108,7.0,100.0
6608,76.0,0,108,2.0,100.0
6609,67.0,120,108,0.0,100.0
6610,72.0,0,108,7.0,100.0
6611,72.0,0,108,2.0,100.0
6612,69.0,0,108,0.0,100.0
6613,36.0,0,108,10.0,100.0
6614,48.0,0,108,3.0,100.0
6615,48.0,120,108,1.0,100.0
6616,48.0,0,108,5.0,100.0
6617,48.0,0,108,10.0,100.0
6618,69.0,0,108,6.0,100.0
6619,67.0,0,348,4.0,100.0
6620,35.0,0,108,10.0,100.0
6621,47.0,120,108,3.0,100.0
6622,74.0,0,108,2.0,100.0
6623,47.0,0,108,10.0,100.0
6624,67.0,0,348,8.0,100.0
6625,47.0,0,108,5.0,100.0
6626,47.0,0,108,1.0,100.0
6627,74.0,0,108,7.0,100.0
6628,62.0,120,108,8.0,100.0
6629,50.0,0,108,5.0,100.0
6630,38.0,0,108,10.0,100.0
6631,62.0,0,108,4.0,100.0
6632,50.0,0,108,3.0,100.0
6633,79.0,0,108,2.0,100.0
6634,50.0,0,108,10.0,100.0
6635,79.0,0,108,7.0,100.0
6636,50.0,0,108,1.0,100.0
6637,74.0,0,108,2.0,100.0
6638,43.0,0,108,5.0,100.0
6639,43.0,0,108,10.0,100.0
6640,31.0,0,108,10.0,100.0
6641,59.0,0,108,4.0,100.0
6642,74.0,0,108,7.0,100.0
6643,43.0,0,108,3.0,100.0
6644,59.0,120,108,8.0,100.0
6645,43.0,0,108,1.0,100.0
6646,47.0,0,108,3.0,100.0
6647,71.0,0,108,7.0,100.0
6648,47.0,0,108,10.0,100.0
6649,47.0,0,108,5.0,100.0
6650,62.0,0,108,4.0,100.0
6651,35.0,0,108,10.0,100.0
6652,47.0,120,108,1.0,100.0
6653,71.0,0,108,2.0,100.0
6654,62.0,0,108,8.0,100.0
6655,64.0,120,108,4.0,100.0
6656,48.0,0,108,10.0,100.0
6657,36.0,0,108,10.0,100.0
6658,67.0,0,588,0.0,100.0
6659,48.0,0,108,3.0,100.0
6660,67.0,0,588,6.0,100.0
6661,67.0,0,108,7.0,100.0
6662,48.0,0,108,5.0,100.0
6663,48.0,0,108,1.0,100.0
6664,67.0,0,108,2.0,100.0
6665,64.0,0,216,8.0,100.0
6666,52.0,0,108,5.0,100.0
6667,52.0,0,108,1.0,100.0
6668,52.0,0,108,3.0,100.0
6669,69.0,120,108,0.0,100.0
6670,69.0,0,108,6.0,100.0
6671,52.0,0,108,10.0,100.0
6672,72.0,0,108,2.0,100.0
6673,72.0,0,108,7.0,100.0
6674,67.0,0,108,4.0,100.0
6675,40.0,0,108,10.0,100.0
6676,43.0,0,108,1.0,100.0
6677,67.0,120,108,6.0,100.0
6678,43.0,0,108,3.0,100.0
6679,31.0,0,108,10.0,100.0
6680,43.0,0,108,5.0,100.0
6681,64.0,0,108,4.0,100.0
6682,43.0,0,108,10.0,100.0
6683,67.0,0,108,2.0,100.0
6684,67.0,0,108,7.0,100.0
6685,67.0,0,108,0.0,100.0
6686,60.0,0,216,8.0,100.0
6687,48.0,0,108,1.0,100.0
6688,48.0,0,108,10.0,100.0
6689,60.0,0,108,4.0,100.0
6690,64.0,0,108,7.0,100.0
6691,69.0,0,108,6.0,100.0
6692,64.0,0,108,2.0,100.0
6693,48.0,0,108,5.0,100.0
6694,48.0,120,108,3.0,100.0
6695,36.0,0,108,10.0,100.0
6696,69.0,0,108,0.0,100.0
6697,67.0,0,54,0.0,100.0
6698,62.0,60,54,0.0,100.0
6699,64.0,60,54,0.0,100.0
6700,47.0,0,216,10.0,100.0
6701,55.0,0,216,8.0,100.0
6702,47.0,120,216,5.0,100.0
6703,35.0,0,216,10.0,100.0
6704,47.0,0,216,3.0,100.0
6705,62.0,0,216,7.0,100.0
6706,62.0,0,216,2.0,100.0
6707,55.0,0,216,4.0,100.0
6708,67.0,0,216,6.0,100.0
6709,47.0,0,216,1.0,100.0
6710,66.0,60,54,0.0,100.0
6711,67.0,60,54,0.0,100.0
6712,69.0,60,54,0.0,100.0
6713,71.0,60,54,0.0,100.0
6714,72.0,60,54,0.0,100.0
6715,74.0,60,54,0.0,100.0
6716,72.0,60,54,0.0,100.0
6717,71.0,0,54,0.0,100.0
6718,55.0,60,54,1.0,100.0
6719,72.0,60,54,0.0,100.0
6720,57.0,0,54,1.0,100.0
6721,59.0,0,54,1.0,100.0
6722,74.0,60,54,0.0,100.0
6723,60.0,60,54,1.0,100.0
6724,76.0,0,54,0.0,100.0
6725,62.0,60,54,1.0,100.0
6726,77.0,0,54,0.0,100.0
6727,79.0,60,54,0.0,100.0
6728,64.0,0,54,1.0,100.0
6729,80.0,60,54,0.0,100.0
6730,79.0,60,54,0.0,100.0
6731,77.0,60,54,0.0,100.0
6732,38.0,0,216,10.0,100.0
6733,65.0,0,216,7.0,100.0
6734,71.0,0,216,6.0,100.0
6735,50.0,0,216,10.0,100.0
6736,65.0,0,216,1.0,100.0
6737,62.0,0,216,8.0,100.0
6738,76.0,60,54,0.0,100.0
6739,77.0,0,108,0.0,100.0
6740,68.0,60,216,1.0,100.0
6741,74.0,120,108,0.0,100.0
6742,83.0,120,108,0.0,100.0
6743,65.0,0,216,1.0,100.0
6744,74.0,120,108,0.0,100.0
6745,77.0,120,108,0.0,100.0
6746,62.0,0,216,1.0,100.0
6747,71.0,120,108,0.0,100.0
6748,74.0,0,54,0.0,100.0
6749,72.0,60,54,0.0,100.0
6750,71.0,60,54,0.0,100.0
6751,65.0,0,216,8.0,100.0
6752,47.0,0,216,10.0,100.0
6753,74.0,0,216,6.0,100.0
6754,35.0,0,216,10.0,100.0
6755,68.0,120,216,7.0,100.0
6756,65.0,0,216,1.0,100.0
6757,69.0,60,54,0.0,100.0
6758,71.0,0,108,0.0,100.0
6759,62.0,60,216,1.0,100.0
6760,65.0,120,108,0.0,100.0
6761,74.0,0,108,0.0,100.0
6762,56.0,120,216,1.0,100.0
6763,65.0,120,108,0.0,100.0
6764,68.0,120,108,0.0,100.0
6765,53.0,0,216,1.0,100.0
6766,62.0,120,108,0.0,100.0
6767,65.0,0,54,0.0,100.0
6768,63.0,60,54,0.0,100.0
6769,62.0,60,54,0.0,100.0
6770,62.0,120,216,7.0,100.0
6771,43.0,0,216,10.0,100.0
6772,77.0,0,216,6.0,100.0
6773,59.0,0,216,8.0,100.0
6774,31.0,0,216,10.0,100.0
6775,59.0,0,216,1.0,100.0
6776,60.0,60,54,0.0,100.0
6777,62.0,0,108,0.0,100.0
6778,62.0,0,216,8.0,100.0
6779,31.0,0,216,10.0,100.0
6780,67.0,0,216,7.0,100.0
6781,47.0,0,216,1.0,100.0
6782,43.0,0,216,1.0,100.0
6783,43.0,0,216,10.0,100.0
6784,71.0,0,216,6.0,100.0
6785,50.0,60,216,1.0,100.0
6786,59.0,120,108,0.0,100.0
6787,68.0,0,108,0.0,100.0
6788,62.0,0,216,8.0,100.0
6789,50.0,0,216,1.0,100.0
6790,71.0,0,216,6.0,100.0
6791,31.0,0,216,10.0,100.0
6792,47.0,0,216,1.0,100.0
6793,43.0,0,216,1.0,100.0
6794,43.0,0,216,10.0,100.0
6795,65.0,120,216,7.0,100.0
6796,62.0,120,108,0.0,100.0
6797,65.0,0,108,0.0,100.0
6798,47.0,0,216,1.0,100.0
6799,31.0,0,216,10.0,100.0
6800,43.0,0,216,1.0,100.0
6801,65.0,0,216,7.0,100.0
6802,50.0,0,216,1.0,100.0
6803,55.0,120,216,8.0,100.0
6804,71.0,0,216,6.0,100.0
6805,43.0,0,216,10.0,100.0
6806,59.0,120,108,0.0,100.0
6807,63.0,120,54,0.0,100.0
6808,55.0,60,54,0.0,100.0
6809,57.0,60,54,0.0,100.0
6810,48.0,0,216,10.0,100.0
6811,55.0,0,216,8.0,100.0
6812,36.0,0,216,10.0,100.0
6813,63.0,0,216,7.0,100.0
6814,48.0,0,216,1.0,100.0
6815,72.0,0,216,6.0,100.0
6816,59.0,60,54,0.0,100.0
6817,60.0,60,54,0.0,100.0
6818,62.0,60,54,0.0,100.0
6819,63.0,60,54,0.0,100.0
6820,65.0,60,54,0.0,100.0
6821,67.0,60,54,0.0,100.0
6822,65.0,60,54,0.0,100.0
6823,63.0,60,54,0.0,100.0
6824,48.0,0,54,1.0,100.0
6825,65.0,0,54,0.0,100.0
6826,50.0,60,54,1.0,100.0
6827,67.0,60,54,0.0,100.0
6828,51.0,0,54,1.0,100.0
6829,68.0,60,54,0.0,100.0
6830,53.0,0,54,1.0,100.0
6831,55.0,60,54,1.0,100.0
6832,70.0,0,54,0.0,100.0
6833,72.0,0,54,0.0,100.0
6834,56.0,60,54,1.0,100.0
6835,73.0,0,54,0.0,100.0
6836,72.0,60,54,0.0,100.0
6837,70.0,60,54,0.0,100.0
6838,43.0,0,216,10.0,100.0
6839,58.0,60,216,1.0,100.0
6840,64.0,0,216,6.0,100.0
6841,31.0,0,216,10.0,100.0
6842,58.0,0,216,7.0,100.0
6843,55.0,0,216,8.0,100.0
6844,69.0,60,54,0.0,100.0
6845,70.0,60,108,0.0,100.0
6846,61.0,0,216,1.0,100.0
6847,67.0,120,108,0.0,100.0
6848,76.0,0,108,0.0,100.0
6849,58.0,120,216,1.0,100.0
6850,67.0,120,108,0.0,100.0
6851,70.0,0,108,0.0,100.0
6852,55.0,120,216,1.0,100.0
6853,64.0,120,108,0.0,100.0
6854,67.0,120,54,0.0,100.0
6855,65.0,60,54,0.0,100.0
6856,64.0,60,54,0.0,100.0
6857,58.0,0,216,1.0,100.0
6858,40.0,0,216,10.0,100.0
6859,58.0,0,216,8.0,100.0
6860,28.0,0,216,10.0,100.0
6861,61.0,0,216,7.0,100.0
6862,67.0,0,216,6.0,100.0
6863,62.0,60,54,0.0,100.0
6864,64.0,60,108,0.0,100.0
6865,55.0,0,216,1.0,100.0
6866,58.0,120,108,0.0,100.0
6867,67.0,0,108,0.0,100.0
6868,49.0,120,216,1.0,100.0
6869,58.0,120,108,0.0,100.0
6870,61.0,0,108,0.0,100.0
6871,46.0,120,216,1.0,100.0
6872,55.0,120,108,0.0,100.0
6873,58.0,0,54,0.0,100.0
6874,56.0,60,54,0.0,100.0
6875,55.0,60,54,0.0,100.0
6876,55.0,0,216,7.0,100.0
6877,36.0,0,216,10.0,100.0
6878,70.0,0,216,6.0,100.0
6879,24.0,0,216,10.0,100.0
6880,52.0,120,216,1.0,100.0
6881,52.0,0,216,8.0,100.0
6882,53.0,60,54,0.0,100.0
6883,55.0,0,108,0.0,100.0
6884,55.0,0,216,8.0,100.0
6885,40.0,0,216,1.0,100.0
6886,36.0,0,216,1.0,100.0
6887,60.0,0,216,7.0,100.0
6888,24.0,0,216,10.0,100.0
6889,64.0,0,216,6.0,100.0
6890,48.0,60,216,1.0,100.0
6891,36.0,0,216,10.0,100.0
6892,43.0,0,216,1.0,100.0
6893,52.0,120,108,0.0,100.0
6894,61.0,0,108,0.0,100.0
6895,55.0,0,216,8.0,100.0
6896,58.0,0,216,7.0,100.0
6897,48.0,0,216,1.0,100.0
6898,64.0,120,216,6.0,100.0
6899,43.0,0,216,1.0,100.0
6900,40.0,0,216,1.0,100.0
6901,36.0,0,216,1.0,100.0
6902,24.0,0,216,10.0,100.0
6903,36.0,0,216,10.0,100.0
6904,55.0,120,108,0.0,100.0
6905,58.0,0,108,0.0,100.0
6906,48.0,0,216,8.0,100.0
6907,43.0,0,216,1.0,100.0
6908,40.0,0,216,1.0,100.0
6909,36.0,0,216,1.0,100.0
6910,64.0,120,216,6.0,100.0
6911,48.0,0,216,1.0,100.0
6912,58.0,0,216,7.0,100.0
6913,24.0,0,216,10.0,100.0
6914,36.0,0,216,10.0,100.0
6915,52.0,120,108,0.0,100.0
6916,56.0,0,54,0.0,100.0
6917,60.0,60,54,0.0,100.0
6918,62.0,60,54,0.0,100.0
6919,56.0,0,216,7.0,100.0
6920,65.0,0,216,6.0,100.0
6921,29.0,0,216,10.0,100.0
6922,41.0,120,216,10.0,100.0
6923,41.0,0,216,1.0,100.0
6924,48.0,0,216,1.0,100.0
6925,48.0,0,216,8.0,100.0
6926,64.0,60,54,0.0,100.0
6927,65.0,60,54,0.0,100.0
6928,64.0,60,54,0.0,100.0
6929,65.0,60,54,0.0,100.0
6930,67.0,60,54,0.0,100.0
6931,68.0,60,54,0.0,100.0
6932,67.0,0,54,0.0,100.0
6933,48.0,60,54,1.0,100.0
6934,50.0,0,54,1.0,100.0
6935,65.0,60,54,0.0,100.0
6936,52.0,60,54,1.0,100.0
6937,67.0,0,54,0.0,100.0
6938,53.0,60,54,1.0,100.0
6939,68.0,0,54,0.0,100.0
6940,52.0,0,54,1.0,100.0
6941,67.0,60,54,0.0,100.0
6942,53.0,60,54,1.0,100.0
6943,68.0,0,54,0.0,100.0
6944,55.0,0,54,1.0,100.0
6945,70.0,60,54,0.0,100.0
6946,72.0,0,54,0.0,100.0
6947,70.0,60,54,0.0,100.0
6948,68.0,60,54,0.0,100.0
6949,41.0,60,216,10.0,100.0
6950,56.0,0,216,1.0,100.0
6951,29.0,0,216,10.0,100.0
6952,67.0,60,54,0.0,100.0
6953,68.0,0,108,0.0,100.0
6954,53.0,0,216,1.0,100.0
6955,41.0,0,216,10.0,100.0
6956,29.0,60,216,10.0,100.0
6957,65.0,120,108,0.0,100.0
6958,72.0,0,108,0.0,100.0
6959,41.0,120,216,10.0,100.0
6960,56.0,0,216,1.0,100.0
6961,29.0,0,216,10.0,100.0
6962,68.0,120,108,0.0,100.0
6963,77.0,0,108,0.0,100.0
6964,29.0,0,216,10.0,100.0
6965,60.0,120,216,1.0,100.0
6966,41.0,0,216,10.0,100.0
6967,72.0,120,108,0.0,100.0
6968,80.0,0,54,0.0,100.0
6969,79.0,60,54,0.0,100.0
6970,77.0,60,54,0.0,100.0
6971,65.0,120,216,1.0,100.0
6972,41.0,0,216,10.0,100.0
6973,29.0,0,216,10.0,100.0
6974,76.0,60,54,0.0,100.0
6975,77.0,60,108,0.0,100.0
6976,60.0,0,216,1.0,100.0
6977,41.0,0,216,10.0,100.0
6978,29.0,0,216,10.0,100.0
6979,80.0,120,108,0.0,100.0
6980,72.0,120,108,0.0,100.0
6981,77.0,120,54,0.0,100.0
6982,41.0,0,216,10.0,100.0
6983,29.0,0,216,10.0,100.0
6984,56.0,0,216,1.0,100.0
6985,76.0,60,54,0.0,100.0
6986,77.0,0,108,0.0,100.0
6987,60.0,0,1824,8.0,100.0
6988,53.0,0,216,1.0,100.0
6989,29.0,60,216,10.0,100.0
6990,41.0,0,216,10.0,100.0
6991,72.0,120,108,0.0,100.0
6992,68.0,0,108,0.0,100.0
6993,73.0,120,54,0.0,100.0
6994,65.0,0,54,1.0,100.0
6995,41.0,0,216,10.0,100.0
6996,29.0,0,216,10.0,100.0
6997,63.0,0,54,1.0,100.0
6998,72.0,60,54,0.0,100.0
6999,65.0,60,108,1.0,100.0
7000,73.0,0,108,0.0,100.0
7001,41.0,0,216,10.0,100.0
7002,29.0,0,216,10.0,100.0
7003,61.0,120,108,1.0,100.0
7004,68.0,0,108,0.0,100.0
7005,56.0,0,108,1.0,100.0
7006,65.0,120,108,0.0,100.0
7007,29.0,0,216,10.0,100.0
7008,41.0,0,216,10.0,100.0
7009,61.0,120,108,0.0,100.0
7010,53.0,0,108,1.0,100.0
7011,68.0,0,108,0.0,100.0
7012,49.0,0,108,1.0,100.0
7013,29.0,0,216,10.0,100.0
7014,41.0,120,216,10.0,100.0
7015,60.0,0,108,0.0,100.0
7016,54.0,120,108,1.0,100.0
7017,61.0,0,108,0.0,100.0
7018,65.0,120,54,0.0,100.0
7019,53.0,0,216,1.0,100.0
7020,41.0,120,216,10.0,100.0
7021,29.0,0,216,10.0,100.0
7022,61.0,60,54,0.0,100.0
7023,56.0,0,108,1.0,100.0
7024,61.0,120,54,1.0,100.0
7025,41.0,0,216,10.0,100.0
7026,29.0,60,216,10.0,100.0
7027,56.0,60,54,1.0,100.0
7028,53.0,0,108,1.0,100.0
7029,61.0,120,1608,8.0,100.0
7030,65.0,0,3528,7.0,100.0
7031,68.0,0,3528,6.0,100.0
7032,56.0,120,54,1.0,100.0
7033,41.0,0,216,10.0,100.0
7034,29.0,60,216,10.0,100.0
7035,53.0,60,54,1.0,100.0
7036,79.0,0,108,6.0,100.0
7037,49.0,0,108,1.0,100.0
7038,53.0,120,54,1.0,100.0
7039,68.0,0,216,7.0,100.0
7040,41.0,0,216,10.0,100.0
7041,29.0,60,216,10.0,100.0
7042,61.0,0,216,8.0,100.0
7043,77.0,0,108,6.0,100.0
7044,49.0,60,54,1.0,100.0
7045,47.0,0,108,1.0,100.0
7046,62.0,0,216,8.0,100.0
7047,74.0,60,216,6.0,100.0
7048,41.0,0,216,10.0,100.0
7049,68.0,0,216,7.0,100.0
7050,29.0,0,216,10.0,100.0
7051,50.0,120,108,1.0,100.0
7052,53.0,120,108,1.0,100.0
7053,56.0,0,216,10.0,100.0
7054,44.0,0,216,10.0,100.0
7055,56.0,120,108,1.0,100.0
7056,62.0,0,108,0.0,100.0
7057,53.0,120,216,10.0,100.0
7058,41.0,0,216,10.0,100.0
7059,65.0,120,108,0.0,100.0
7060,59.0,0,108,0.0,100.0
7061,38.0,0,216,10.0,100.0
7062,50.0,120,216,10.0,100.0
7063,62.0,120,108,0.0,100.0
7064,53.0,0,108,1.0,100.0
7065,74.0,0,216,7.0,100.0
7066,47.0,120,216,10.0,100.0
7067,35.0,0,216,10.0,100.0
7068,65.0,0,216,8.0,100.0
7069,80.0,0,216,6.0,100.0
7070,59.0,120,108,1.0,100.0
7071,62.0,120,108,1.0,100.0
7072,53.0,0,216,10.0,100.0
7073,41.0,0,216,10.0,100.0
7074,65.0,120,108,0.0,100.0
7075,68.0,120,108,0.0,100.0
7076,50.0,0,216,10.0,100.0
7077,38.0,0,216,10.0,100.0
7078,74.0,120,108,0.0,100.0
7079,65.0,120,108,0.0,100.0
7080,35.0,0,216,10.0,100.0
7081,47.0,0,216,10.0,100.0
7082,68.0,120,108,0.0,100.0
7083,62.0,0,108,1.0,100.0
7084,31.0,0,216,10.0,100.0
7085,43.0,120,216,10.0,100.0
7086,65.0,120,108,1.0,100.0
7087,71.0,0,108,1.0,100.0
7088,67.0,120,216,7.0,100.0
7089,62.0,0,216,8.0,100.0
7090,31.0,0,216,10.0,100.0
7091,43.0,0,216,10.0,100.0
7092,71.0,0,216,6.0,100.0
7093,74.0,120,108,0.0,100.0
7094,77.0,120,108,0.0,100.0
7095,71.0,0,216,6.0,100.0
7096,31.0,0,216,10.0,100.0
7097,67.0,0,216,7.0,100.0
7098,43.0,0,216,10.0,100.0
7099,62.0,0,216,8.0,100.0
7100,80.0,0,108,0.0,100.0
7101,65.0,120,108,1.0,100.0
7102,63.0,0,108,1.0,100.0
7103,79.0,0,108,0.0,100.0
7104,62.0,120,216,8.0,100.0
7105,31.0,0,216,10.0,100.0
7106,67.0,0,216,7.0,100.0
7107,71.0,0,216,6.0,100.0
7108,43.0,0,216,10.0,100.0
7109,62.0,0,108,1.0,100.0
7110,77.0,120,108,0.0,100.0
7111,75.0,0,54,0.0,100.0
7112,77.0,60,54,0.0,100.0
7113,79.0,60,54,0.0,100.0
7114,48.0,0,216,10.0,100.0
7115,36.0,120,216,10.0,100.0
7116,60.0,0,216,1.0,100.0
7117,77.0,60,54,0.0,100.0
7118,75.0,0,54,0.0,100.0
7119,74.0,60,54,0.0,100.0
7120,72.0,60,54,0.0,100.0
7121,36.0,0,216,10.0,100.0
7122,48.0,60,216,10.0,100.0
7123,71.0,60,54,0.0,100.0
7124,63.0,60,54,1.0,100.0
7125,72.0,0,54,0.0,100.0
7126,65.0,0,54,1.0,100.0
7127,74.0,60,54,0.0,100.0
7128,75.0,60,54,0.0,100.0
7129,67.0,0,54,1.0,100.0
7130,48.0,0,216,10.0,100.0
7131,36.0,0,216,10.0,100.0
7132,74.0,0,54,0.0,100.0
7133,65.0,60,54,1.0,100.0
7134,72.0,60,54,0.0,100.0
7135,63.0,0,54,1.0,100.0
7136,70.0,0,54,0.0,100.0
7137,62.0,60,54,1.0,100.0
7138,63.0,0,864,8.0,100.0
7139,67.0,0,864,7.0,100.0
7140,60.0,60,54,1.0,100.0
7141,68.0,0,54,0.0,100.0
7142,48.0,0,216,10.0,100.0
7143,36.0,0,216,10.0,100.0
7144,58.0,60,54,1.0,100.0
7145,67.0,0,54,0.0,100.0
7146,60.0,0,54,1.0,100.0
7147,48.0,60,54,1.0,100.0
7148,50.0,60,54,1.0,100.0
7149,32.0,0,216,10.0,100.0
7150,44.0,60,216,10.0,100.0
7151,52.0,60,54,1.0,100.0
7152,53.0,0,54,1.0,100.0
7153,55.0,60,54,1.0,100.0
7154,56.0,60,54,1.0,100.0
7155,44.0,0,216,10.0,100.0
7156,32.0,60,216,10.0,100.0
7157,58.0,60,54,1.0,100.0
7158,65.0,0,534,0.0,100.0
7159,64.0,60,54,0.0,100.0
7160,65.0,60,54,0.0,100.0
7161,44.0,0,216,10.0,100.0
7162,32.0,0,216,10.0,100.0
7163,67.0,60,54,0.0,100.0
7164,68.0,0,54,0.0,100.0
7165,70.0,60,54,0.0,100.0
7166,65.0,0,864,7.0,100.0
7167,72.0,60,54,0.0,100.0
7168,44.0,60,216,10.0,100.0
7169,32.0,0,216,10.0,100.0
7170,74.0,60,54,0.0,100.0
7171,75.0,0,54,0.0,100.0
7172,74.0,60,54,0.0,100.0
7173,72.0,60,54,0.0,100.0
7174,45.0,60,216,10.0,100.0
7175,60.0,60,696,1.0,100.0
7176,33.0,0,216,10.0,100.0
7177,66.0,0,216,7.0,100.0
7178,60.0,0,1176,8.0,100.0
7179,72.0,0,2136,6.0,100.0
7180,71.0,60,54,0.0,100.0
7181,72.0,0,108,0.0,100.0
7182,63.0,60,216,1.0,100.0
7183,69.0,120,108,0.0,100.0
7184,75.0,120,108,0.0,100.0
7185,60.0,0,216,1.0,100.0
7186,69.0,120,108,0.0,100.0
7187,72.0,120,108,0.0,100.0
7188,57.0,0,216,1.0,100.0
7189,66.0,120,108,0.0,100.0
7190,69.0,0,54,0.0,100.0
7191,67.0,60,54,0.0,100.0
7192,66.0,60,54,0.0,100.0
7193,42.0,0,216,10.0,100.0
7194,60.0,0,216,1.0,100.0
7195,75.0,0,216,6.0,100.0
7196,57.0,0,216,8.0,100.0
7197,72.0,0,216,7.0,100.0
7198,30.0,120,216,10.0,100.0
7199,64.0,60,54,0.0,100.0
7200,66.0,60,108,0.0,100.0
7201,57.0,0,216,1.0,100.0
7202,60.0,120,108,0.0,100.0
7203,69.0,120,108,0.0,100.0
7204,51.0,0,216,1.0,100.0
7205,60.0,120,108,0.0,100.0
7206,63.0,120,108,0.0,100.0
7207,48.0,0,216,1.0,100.0
7208,57.0,120,108,0.0,100.0
7209,60.0,0,54,0.0,100.0
7210,58.0,60,54,0.0,100.0
7211,57.0,60,54,0.0,100.0
7212,38.0,0,216,10.0,100.0
7213,54.0,120,216,1.0,100.0
7214,26.0,0,216,10.0,100.0
7215,55.0,60,54,0.0,100.0
7216,57.0,60,108,0.0,100.0
7217,42.0,0,216,1.0,100.0
7218,45.0,0,216,1.0,100.0
7219,72.0,0,216,7.0,100.0
7220,78.0,0,216,6.0,100.0
7221,38.0,0,216,10.0,100.0
7222,26.0,0,216,10.0,100.0
7223,69.0,0,216,8.0,100.0
7224,38.0,0,216,1.0,100.0
7225,54.0,120,108,0.0,100.0
7226,63.0,0,108,0.0,100.0
7227,69.0,0,216,8.0,100.0
7228,42.0,0,216,1.0,100.0
7229,38.0,120,216,1.0,100.0
7230,72.0,0,216,7.0,100.0
7231,38.0,0,216,10.0,100.0
7232,26.0,0,216,10.0,100.0
7233,45.0,0,216,1.0,100.0
7234,78.0,0,216,6.0,100.0
7235,57.0,120,108,0.0,100.0
7236,60.0,0,108,0.0,100.0
7237,62.0,0,216,8.0,100.0
7238,26.0,0,216,10.0,100.0
7239,72.0,120,216,7.0,100.0
7240,38.0,0,216,10.0,100.0
7241,78.0,0,216,6.0,100.0
7242,38.0,0,216,1.0,100.0
7243,42.0,0,216,1.0,100.0
7244,45.0,0,216,1.0,100.0
7245,54.0,120,108,0.0,100.0
7246,43.0,0,108,1.0,100.0
7247,43.0,0,216,10.0,100.0
7248,31.0,0,216,10.0,100.0
7249,47.0,120,108,1.0,100.0
7250,50.0,120,108,1.0,100.0
7251,43.0,0,216,10.0,100.0
7252,31.0,0,216,10.0,100.0
7253,54.0,120,108,1.0,100.0
7254,55.0,120,108,0.0,100.0
7255,43.0,0,216,10.0,100.0
7256,31.0,0,216,10.0,100.0
7257,59.0,120,108,0.0,100.0
7258,55.0,120,108,0.0,100.0
7259,62.0,0,864,8.0,100.0
7260,71.0,120,864,7.0,100.0
7261,43.0,0,216,10.0,100.0
7262,31.0,0,216,10.0,100.0
7263,62.0,120,108,0.0,100.0
7264,43.0,0,108,1.0,100.0
7265,31.0,120,216,10.0,100.0
7266,43.0,0,216,10.0,100.0
7267,48.0,120,108,1.0,100.0
7268,51.0,0,108,1.0,100.0
7269,43.0,0,216,10.0,100.0
7270,31.0,120,216,10.0,100.0
7271,54.0,120,108,1.0,100.0
7272,55.0,0,108,0.0,100.0
7273,43.0,120,216,10.0,100.0
7274,31.0,0,216,10.0,100.0
7275,60.0,120,108,0.0,100.0
7276,55.0,120,108,0.0,100.0
7277,79.0,0,1824,6.0,100.0
7278,63.0,0,864,8.0,100.0
7279,72.0,0,864,7.0,100.0
7280,31.0,0,216,10.0,100.0
7281,43.0,0,216,10.0,100.0
7282,63.0,120,108,0.0,100.0
7283,43.0,0,108,1.0,100.0
7284,31.0,0,216,10.0,100.0
7285,43.0,0,216,10.0,100.0
7286,50.0,120,108,1.0,100.0
7287,53.0,0,108,1.0,100.0
7288,43.0,0,216,10.0,100.0
7289,31.0,120,216,10.0,100.0
7290,55.0,120,108,0.0,100.0
7291,59.0,0,108,0.0,100.0
7292,43.0,0,216,10.0,100.0
7293,31.0,120,216,10.0,100.0
7294,55.0,120,108,0.0,100.0
7295,59.0,120,108,0.0,100.0
7296,74.0,0,864,7.0,100.0
7297,59.0,0,864,8.0,100.0
7298,77.0,120,864,6.0,100.0
7299,43.0,0,216,10.0,100.0
7300,31.0,0,216,10.0,100.0
7301,65.0,120,108,0.0,100.0
7302,43.0,0,108,1.0,100.0
7303,31.0,0,216,10.0,100.0
7304,43.0,0,216,10.0,100.0
7305,48.0,120,108,1.0,100.0
7306,51.0,120,108,1.0,100.0
7307,31.0,0,216,10.0,100.0
7308,43.0,0,216,10.0,100.0
7309,55.0,120,108,0.0,100.0
7310,60.0,120,108,0.0,100.0
7311,43.0,0,216,10.0,100.0
7312,31.0,0,216,10.0,100.0
7313,63.0,120,108,0.0,100.0
7314,60.0,0,108,0.0,100.0
7315,67.0,0,864,7.0,100.0
7316,31.0,0,216,10.0,100.0
7317,43.0,120,216,10.0,100.0
7318,67.0,120,108,0.0,100.0
7319,43.0,0,108,1.0,100.0
7320,31.0,0,216,10.0,100.0
7321,43.0,120,216,10.0,100.0
7322,48.0,120,108,1.0,100.0
7323,51.0,120,108,1.0,100.0
7324,31.0,0,216,10.0,100.0
7325,43.0,0,216,10.0,100.0
7326,57.0,120,108,0.0,100.0
7327,60.0,0,108,0.0,100.0
7328,43.0,0,216,10.0,100.0
7329,31.0,120,216,10.0,100.0
7330,63.0,120,108,0.0,100.0
7331,60.0,120,108,0.0,100.0
7332,60.0,120,1824,8.0,100.0
7333,69.0,0,864,7.0,100.0
7334,31.0,0,216,10.0,100.0
7335,43.0,0,216,10.0,100.0
7336,67.0,120,108,0.0,100.0
7337,43.0,0,108,1.0,100.0
7338,31.0,120,216,10.0,100.0
7339,43.0,0,216,10.0,100.0
7340,48.0,120,108,1.0,100.0
7341,51.0,120,108,1.0,100.0
7342,75.0,0,2352,6.0,100.0
7343,31.0,0,216,10.0,100.0
7344,43.0,0,216,10.0,100.0
7345,57.0,120,108,0.0,100.0
7346,60.0,120,108,0.0,100.0
7347,31.0,0,216,10.0,100.0
7348,43.0,0,216,10.0,100.0
7349,63.0,120,108,0.0,100.0
7350,60.0,120,108,0.0,100.0
7351,57.0,0,864,8.0,100.0
7352,66.0,0,864,7.0,100.0
7353,72.0,0,432,6.0,100.0
7354,31.0,0,216,10.0,100.0
7355,43.0,0,216,10.0,100.0
7356,66.0,120,108,0.0,100.0
7357,43.0,0,108,1.0,100.0
7358,71.0,0,216,6.0,100.0
7359,43.0,120,216,10.0,100.0
7360,62.0,0,216,8.0,100.0
7361,67.0,0,216,7.0,100.0
7362,31.0,0,216,10.0,100.0
7363,47.0,120,108,1.0,100.0
7364,50.0,120,108,1.0,100.0
7365,55.0,120,108,1.0,100.0
7366,59.0,120,108,0.0,100.0
7367,62.0,120,108,0.0,100.0
7368,67.0,120,108,0.0,100.0
7369,55.0,120,108,1.0,100.0
7370,59.0,120,108,1.0,100.0
7371,62.0,120,108,1.0,100.0
7372,67.0,120,108,1.0,100.0
7373,71.0,120,108,0.0,100.0
7374,74.0,120,108,0.0,100.0
7375,79.0,120,108,0.0,100.0
7376,80.0,120,108,0.0,100.0
7377,78.0,120,108,0.0,100.0
7378,79.0,120,108,0.0,100.0
7379,75.0,120,108,0.0,100.0
7380,77.0,120,108,0.0,100.0
7381,74.0,120,108,0.0,100.0
7382,75.0,120,108,0.0,100.0
7383,72.0,120,108,0.0,100.0
7384,73.0,120,108,0.0,100.0
7385,71.0,120,108,0.0,100.0
7386,72.0,120,108,0.0,100.0
7387,68.0,120,108,0.0,100.0
7388,66.0,120,108,0.0,100.0
7389,67.0,120,108,0.0,100.0
7390,62.0,120,108,0.0,100.0
7391,63.0,120,108,0.0,100.0
7392,59.0,120,108,0.0,100.0
7393,60.0,120,108,0.0,100.0
7394,55.0,120,108,1.0,100.0
7395,63.0,120,108,1.0,100.0
7396,59.0,120,108,1.0,100.0
7397,60.0,120,108,1.0,100.0
7398,55.0,120,108,1.0,100.0
7399,56.0,120,108,1.0,100.0
7400,53.0,120,108,1.0,100.0
7401,55.0,120,108,1.0,100.0
7402,51.0,120,108,1.0,100.0
7403,60.0,120,108,1.0,100.0
7404,54.0,120,108,1.0,100.0
7405,55.0,120,108,1.0,100.0
7406,50.0,120,108,1.0,100.0
7407,51.0,120,108,1.0,100.0
7408,47.0,120,108,1.0,100.0
7409,48.0,120,108,1.0,100.0
7410,43.0,120,108,1.0,100.0
7411,51.0,120,108,1.0,100.0
7412,47.0,120,108,1.0,100.0
7413,48.0,120,108,1.0,100.0
7414,43.0,120,108,1.0,100.0
7415,44.0,120,108,1.0,100.0
7416,42.0,120,108,1.0,100.0
7417,43.0,120,108,1.0,100.0
7418,55.0,240,108,4.0,100.0
7419,60.0,0,108,0.0,100.0
7420,60.0,0,108,6.0,100.0
7421,52.0,0,108,5.0,100.0
7422,36.0,0,432,1.0,100.0
7423,50.0,120,108,5.0,100.0
7424,53.0,0,108,4.0,100.0
7425,59.0,0,108,6.0,100.0
7426,59.0,0,108,0.0,100.0
7427,60.0,0,108,0.0,100.0
7428,55.0,0,108,4.0,100.0
7429,52.0,120,108,5.0,100.0
7430,60.0,0,108,6.0,100.0
7431,62.0,0,108,0.0,100.0
7432,53.0,0,108,5.0,100.0
7433,62.0,120,108,6.0,100.0
7434,57.0,0,108,4.0,100.0
7435,59.0,0,108,4.0,100.0
7436,64.0,120,108,6.0,100.0
7437,55.0,0,108,5.0,100.0
7438,64.0,0,108,0.0,100.0
7439,60.0,0,864,10.0,100.0
7440,48.0,0,864,10.0,100.0
7441,60.0,120,864,3.0,100.0
7442,48.0,0,432,1.0,100.0
7443,57.0,120,108,5.0,100.0
7444,65.0,0,108,0.0,100.0
7445,60.0,0,108,4.0,100.0
7446,65.0,0,108,6.0,100.0
7447,67.0,120,108,6.0,100.0
7448,67.0,0,108,0.0,100.0
7449,59.0,0,108,5.0,100.0
7450,62.0,0,216,4.0,100.0
7451,66.0,120,108,0.0,100.0
7452,57.0,0,108,5.0,100.0
7453,66.0,0,108,6.0,100.0
7454,59.0,0,108,5.0,100.0
7455,67.0,120,108,6.0,100.0
7456,67.0,0,108,0.0,100.0
7457,74.0,0,216,4.0,100.0
7458,62.0,0,216,7.0,100.0
7459,62.0,0,216,2.0,100.0
7460,69.0,120,108,0.0,100.0
7461,60.0,0,108,5.0,100.0
7462,69.0,0,108,6.0,100.0
7463,71.0,0,108,0.0,100.0
7464,62.0,0,108,5.0,100.0
7465,71.0,0,108,6.0,100.0
7466,71.0,0,216,4.0,100.0
7467,67.0,120,216,7.0,100.0
7468,67.0,0,216,2.0,100.0
7469,69.0,120,108,6.0,100.0
7470,60.0,0,108,5.0,100.0
7471,69.0,0,108,0.0,100.0
7472,62.0,120,108,5.0,100.0
7473,71.0,0,108,6.0,100.0
7474,71.0,0,108,0.0,100.0
7475,47.0,0,864,10.0,100.0
7476,59.0,0,864,3.0,100.0
7477,47.0,0,864,1.0,100.0
7478,59.0,0,864,10.0,100.0
7479,67.0,0,216,4.0,100.0
7480,67.0,0,216,7.0,100.0
7481,67.0,0,216,2.0,100.0
7482,59.0,120,108,5.0,100.0
7483,67.0,0,108,0.0,100.0
7484,67.0,0,108,6.0,100.0
7485,72.0,120,108,0.0,100.0
7486,72.0,0,108,6.0,100.0
7487,60.0,0,108,5.0,100.0
7488,76.0,0,216,4.0,100.0
7489,67.0,0,216,2.0,100.0
7490,67.0,0,216,7.0,100.0
7491,71.0,120,108,0.0,100.0
7492,64.0,0,108,5.0,100.0
7493,71.0,0,108,6.0,100.0
7494,72.0,0,108,6.0,100.0
7495,66.0,0,108,7.0,100.0
7496,57.0,0,108,5.0,100.0
7497,66.0,0,108,2.0,100.0
7498,72.0,0,108,0.0,100.0
7499,72.0,120,216,4.0,100.0
7500,74.0,0,108,0.0,100.0
7501,59.0,0,108,5.0,100.0
7502,64.0,120,108,2.0,100.0
7503,64.0,0,108,7.0,100.0
7504,74.0,0,108,6.0,100.0
7505,72.0,120,108,6.0,100.0
7506,66.0,0,108,2.0,100.0
7507,60.0,0,108,5.0,100.0
7508,72.0,0,108,0.0,100.0
7509,66.0,0,108,7.0,100.0
7510,76.0,120,108,6.0,100.0
7511,57.0,0,108,5.0,100.0
7512,76.0,0,108,0.0,100.0
7513,67.0,0,108,2.0,100.0
7514,67.0,0,108,7.0,100.0
7515,69.0,0,324,4.0,100.0
7516,74.0,0,108,6.0,100.0
7517,64.0,0,108,7.0,100.0
7518,64.0,0,108,2.0,100.0
7519,59.0,0,108,5.0,100.0
7520,74.0,120,108,0.0,100.0
7521,45.0,0,864,1.0,100.0
7522,57.0,0,864,3.0,100.0
7523,57.0,0,864,10.0,100.0
7524,45.0,0,864,10.0,100.0
7525,67.0,0,54,4.0,100.0
7526,66.0,120,108,7.0,100.0
7527,66.0,0,108,2.0,100.0
7528,72.0,0,108,6.0,100.0
7529,72.0,0,108,0.0,100.0
7530,60.0,0,108,5.0,100.0
7531,69.0,60,54,4.0,100.0
7532,55.0,0,108,10.0,100.0
7533,55.0,0,108,3.0,100.0
7534,71.0,60,108,6.0,100.0
7535,62.0,0,108,5.0,100.0
7536,67.0,0,108,2.0,100.0
7537,43.0,0,108,10.0,100.0
7538,71.0,0,108,0.0,100.0
7539,67.0,0,108,7.0,100.0
7540,43.0,0,216,1.0,100.0
7541,71.0,0,216,4.0,100.0
7542,45.0,0,108,10.0,100.0
7543,74.0,0,108,0.0,100.0
7544,71.0,0,108,2.0,100.0
7545,74.0,120,108,6.0,100.0
7546,50.0,0,108,3.0,100.0
7547,65.0,0,108,5.0,100.0
7548,71.0,0,108,7.0,100.0
7549,57.0,0,108,10.0,100.0
7550,55.0,0,108,10.0,100.0
7551,67.0,0,108,6.0,100.0
7552,72.0,0,108,7.0,100.0
7553,72.0,0,108,2.0,100.0
7554,52.0,0,108,3.0,100.0
7555,64.0,0,108,5.0,100.0
7556,43.0,0,108,10.0,100.0
7557,67.0,0,108,0.0,100.0
7558,55.0,0,108,1.0,100.0
7559,41.0,0,108,10.0,100.0
7560,74.0,0,108,2.0,100.0
7561,53.0,0,108,10.0,100.0
7562,71.0,0,108,6.0,100.0
7563,53.0,0,108,1.0,100.0
7564,71.0,0,108,0.0,100.0
7565,74.0,0,108,7.0,100.0
7566,53.0,0,108,3.0,100.0
7567,62.0,120,108,5.0,100.0
7568,55.0,0,108,3.0,100.0
7569,52.0,0,108,1.0,100.0
7570,72.0,0,108,6.0,100.0
7571,40.0,0,108,10.0,100.0
7572,52.0,0,108,10.0,100.0
7573,60.0,0,108,5.0,100.0
7574,72.0,0,108,0.0,100.0
7575,76.0,0,216,2.0,100.0
7576,76.0,120,216,7.0,100.0
7577,55.0,0,108,1.0,100.0
7578,76.0,0,108,6.0,100.0
7579,60.0,0,108,3.0,100.0
7580,38.0,0,108,10.0,100.0
7581,76.0,0,108,0.0,100.0
7582,50.0,120,108,10.0,100.0
7583,55.0,0,108,5.0,100.0
7584,52.0,0,108,1.0,100.0
7585,40.0,0,108,10.0,100.0
7586,52.0,0,108,3.0,100.0
7587,67.0,120,108,0.0,100.0
7588,60.0,0,108,5.0,100.0
7589,52.0,0,108,10.0,100.0
7590,67.0,0,108,6.0,100.0
7591,48.0,0,96,10.0,100.0
7592,76.0,0,216,2.0,100.0
7593,76.0,0,216,7.0,100.0
7594,36.0,0,96,10.0,100.0
7595,71.0,120,108,0.0,100.0
7596,52.0,0,108,5.0,100.0
7597,55.0,0,108,3.0,100.0
7598,71.0,0,108,6.0,100.0
7599,48.0,0,108,1.0,100.0
7600,53.0,0,108,1.0,100.0
7601,69.0,120,108,6.0,100.0
7602,67.0,0,588,8.0,100.0
7603,53.0,0,108,10.0,100.0
7604,69.0,0,108,0.0,100.0
7605,41.0,0,108,10.0,100.0
7606,67.0,0,588,4.0,100.0
7607,76.0,0,216,7.0,100.0
7608,76.0,0,216,2.0,100.0
7609,41.0,0,108,1.0,100.0
7610,43.0,0,108,10.0,100.0
7611,72.0,120,108,0.0,100.0
7612,55.0,0,108,10.0,100.0
7613,72.0,0,108,6.0,100.0
7614,60.0,0,108,4.0,100.0
7615,60.0,0,108,8.0,100.0
7616,57.0,0,108,4.0,100.0
7617,41.0,0,108,10.0,100.0
7618,57.0,0,108,8.0,100.0
7619,65.0,0,108,0.0,100.0
7620,53.0,0,108,10.0,100.0
7621,74.0,0,108,7.0,100.0
7622,65.0,0,108,6.0,100.0
7623,74.0,0,108,2.0,100.0
7624,53.0,0,108,1.0,100.0
7625,40.0,0,96,10.0,100.0
7626,52.0,120,96,10.0,100.0
7627,69.0,0,108,0.0,100.0
7628,60.0,0,108,8.0,100.0
7629,72.0,0,108,7.0,100.0
7630,52.0,0,108,1.0,100.0
7631,60.0,0,108,4.0,100.0
7632,69.0,0,108,6.0,100.0
7633,72.0,0,108,2.0,100.0
7634,71.0,0,108,6.0,100.0
7635,50.0,0,108,1.0,100.0
7636,71.0,0,108,0.0,100.0
7637,38.0,0,108,10.0,100.0
7638,53.0,0,588,3.0,100.0
7639,50.0,0,108,10.0,100.0
7640,53.0,0,588,5.0,100.0
7641,74.0,0,216,7.0,100.0
7642,74.0,0,216,2.0,100.0
7643,74.0,0,108,0.0,100.0
7644,53.0,0,108,1.0,100.0
7645,74.0,0,108,6.0,100.0
7646,53.0,120,108,5.0,100.0
7647,59.0,0,108,3.0,100.0
7648,48.0,0,108,10.0,100.0
7649,36.0,0,108,10.0,100.0
7650,50.0,0,108,10.0,100.0
7651,65.0,0,108,6.0,100.0
7652,50.0,0,108,1.0,100.0
7653,50.0,0,108,3.0,100.0
7654,59.0,0,108,5.0,100.0
7655,65.0,0,108,0.0,100.0
7656,38.0,0,108,10.0,100.0
7657,74.0,120,216,2.0,100.0
7658,35.0,0,96,10.0,100.0
7659,74.0,0,216,7.0,100.0
7660,47.0,0,96,10.0,100.0
7661,69.0,0,108,6.0,100.0
7662,69.0,0,108,0.0,100.0
7663,50.0,0,108,5.0,100.0
7664,47.0,0,108,1.0,100.0
7665,53.0,120,108,3.0,100.0
7666,52.0,0,108,1.0,100.0
7667,52.0,0,108,10.0,100.0
7668,65.0,0,588,4.0,100.0
7669,67.0,0,108,0.0,100.0
7670,67.0,0,108,6.0,100.0
7671,65.0,0,588,8.0,100.0
7672,74.0,0,108,7.0,100.0
7673,40.0,0,108,10.0,100.0
7674,74.0,120,108,2.0,100.0
7675,59.0,0,108,4.0,100.0
7676,53.0,120,108,10.0,100.0
7677,40.0,0,108,1.0,100.0
7678,67.0,0,108,2.0,100.0
7679,71.0,0,108,6.0,100.0
7680,67.0,0,108,7.0,100.0
7681,41.0,0,108,10.0,100.0
7682,71.0,0,108,0.0,100.0
7683,59.0,0,108,8.0,100.0
7684,64.0,0,108,6.0,100.0
7685,40.0,0,108,10.0,100.0
7686,52.0,0,108,1.0,100.0
7687,55.0,0,108,4.0,100.0
7688,52.0,0,108,10.0,100.0
7689,69.0,0,108,7.0,100.0
7690,55.0,0,108,8.0,100.0
7691,64.0,0,108,0.0,100.0
7692,69.0,0,108,2.0,100.0
7693,71.0,0,108,7.0,100.0
7694,38.0,0,108,10.0,100.0
7695,71.0,0,108,2.0,100.0
7696,59.0,0,108,8.0,100.0
7697,59.0,0,108,4.0,100.0
7698,50.0,0,108,1.0,100.0
7699,67.0,0,108,0.0,100.0
7700,50.0,0,108,10.0,100.0
7701,67.0,120,108,6.0,100.0
7702,48.0,0,108,10.0,100.0
7703,36.0,0,108,10.0,100.0
7704,48.0,0,108,1.0,100.0
7705,69.0,120,108,0.0,100.0
7706,52.0,0,588,3.0,100.0
7707,52.0,0,588,5.0,100.0
7708,69.0,0,108,6.0,100.0
7709,72.0,0,216,7.0,100.0
7710,72.0,0,216,2.0,100.0
7711,47.0,0,108,10.0,100.0
7712,72.0,0,108,0.0,100.0
7713,52.0,0,108,1.0,100.0
7714,52.0,0,108,5.0,100.0
7715,35.0,0,108,10.0,100.0
7716,72.0,120,108,6.0,100.0
7717,57.0,0,108,3.0,100.0
7718,64.0,0,108,6.0,100.0
7719,64.0,0,108,0.0,100.0
7720,48.0,120,108,10.0,100.0
7721,48.0,0,108,3.0,100.0
7722,48.0,0,108,1.0,100.0
7723,57.0,0,108,5.0,100.0
7724,36.0,0,108,10.0,100.0
7725,33.0,0,96,10.0,100.0
7726,72.0,0,216,2.0,100.0
7727,45.0,0,96,10.0,100.0
7728,72.0,0,216,7.0,100.0
7729,45.0,0,108,1.0,100.0
7730,48.0,0,108,5.0,100.0
7731,67.0,0,108,6.0,100.0
7732,52.0,120,108,3.0,100.0
7733,67.0,0,108,0.0,100.0
7734,65.0,0,108,6.0,100.0
7735,64.0,0,588,4.0,100.0
7736,38.0,0,108,10.0,100.0
7737,50.0,0,108,10.0,100.0
7738,50.0,0,108,1.0,100.0
7739,64.0,0,588,8.0,100.0
7740,65.0,0,108,0.0,100.0
7741,72.0,0,216,7.0,100.0
7742,72.0,0,216,2.0,100.0
7743,57.0,0,108,4.0,100.0
7744,57.0,0,108,8.0,100.0
7745,38.0,0,108,1.0,100.0
7746,52.0,0,108,10.0,100.0
7747,69.0,120,108,6.0,100.0
7748,69.0,0,108,0.0,100.0
7749,40.0,0,108,10.0,100.0
7750,71.0,0,108,2.0,100.0
7751,62.0,0,108,0.0,100.0
7752,50.0,0,108,1.0,100.0
7753,50.0,0,108,10.0,100.0
7754,53.0,0,108,8.0,100.0
7755,38.0,0,108,10.0,100.0
7756,62.0,0,108,6.0,100.0
7757,53.0,0,108,4.0,100.0
7758,71.0,0,108,7.0,100.0
7759,48.0,0,96,10.0,100.0
7760,36.0,0,96,10.0,100.0
7761,57.0,0,108,4.0,100.0
7762,69.0,0,108,2.0,100.0
7763,57.0,0,108,8.0,100.0
7764,69.0,120,108,7.0,100.0
7765,65.0,0,108,6.0,100.0
7766,65.0,0,108,0.0,100.0
7767,48.0,0,108,1.0,100.0
7768,47.0,0,108,10.0,100.0
7769,35.0,0,108,10.0,100.0
7770,50.0,0,588,5.0,100.0
7771,47.0,0,108,1.0,100.0
7772,67.0,0,108,6.0,100.0
7773,67.0,0,108,0.0,100.0
7774,50.0,0,588,3.0,100.0
7775,67.0,0,216,2.0,100.0
7776,45.0,0,108,10.0,100.0
7777,50.0,0,108,5.0,100.0
7778,71.0,120,108,0.0,100.0
7779,50.0,0,108,1.0,100.0
7780,55.0,0,108,3.0,100.0
7781,71.0,0,108,6.0,100.0
7782,33.0,0,108,10.0,100.0
7783,62.0,0,108,6.0,100.0
7784,47.0,0,108,10.0,100.0
7785,47.0,0,108,1.0,100.0
7786,55.0,0,108,5.0,100.0
7787,62.0,120,108,0.0,100.0
7788,47.0,0,108,3.0,100.0
7789,35.0,0,108,10.0,100.0
7790,43.0,0,96,10.0,100.0
7791,31.0,0,96,10.0,100.0
7792,43.0,120,108,1.0,100.0
7793,65.0,0,108,0.0,100.0
7794,65.0,0,108,6.0,100.0
7795,47.0,0,108,5.0,100.0
7796,50.0,0,108,3.0,100.0
7797,62.0,120,588,4.0,100.0
7798,64.0,0,108,0.0,100.0
7799,67.0,0,588,7.0,100.0
7800,64.0,120,108,6.0,100.0
7801,48.0,0,108,1.0,100.0
7802,62.0,0,588,8.0,100.0
7803,79.0,0,348,2.0,100.0
7804,36.0,0,216,10.0,100.0
7805,48.0,0,216,3.0,100.0
7806,48.0,0,216,10.0,100.0
7807,36.0,0,108,1.0,100.0
7808,76.0,0,108,2.0,100.0
7809,67.0,0,108,0.0,100.0
7810,55.0,0,108,4.0,100.0
7811,64.0,0,108,7.0,100.0
7812,67.0,120,108,6.0,100.0
7813,55.0,0,108,8.0,100.0
7814,52.0,0,108,8.0,100.0
7815,48.0,0,108,1.0,100.0
7816,60.0,0,108,0.0,100.0
7817,67.0,0,108,7.0,100.0
7818,60.0,0,108,6.0,100.0
7819,52.0,120,108,4.0,100.0
7820,72.0,0,108,2.0,100.0
7821,48.0,0,216,3.0,100.0
7822,55.0,0,108,8.0,100.0
7823,67.0,120,108,2.0,100.0
7824,64.0,0,108,0.0,100.0
7825,55.0,0,108,4.0,100.0
7826,72.0,0,108,7.0,100.0
7827,64.0,0,108,6.0,100.0
7828,46.0,0,108,1.0,100.0
7829,48.0,0,588,5.0,100.0
7830,65.0,0,108,6.0,100.0
7831,65.0,0,108,0.0,100.0
7832,69.0,0,108,2.0,100.0
7833,69.0,0,108,7.0,100.0
7834,45.0,120,108,1.0,100.0
7835,60.0,0,216,8.0,100.0
7836,48.0,0,216,3.0,100.0
7837,45.0,0,108,5.0,100.0
7838,65.0,0,108,7.0,100.0
7839,65.0,0,108,2.0,100.0
7840,48.0,0,108,1.0,100.0
7841,69.0,120,108,6.0,100.0
7842,69.0,0,108,0.0,100.0
7843,69.0,0,108,2.0,100.0
7844,69.0,0,108,7.0,100.0
7845,60.0,0,108,0.0,100.0
7846,41.0,0,108,5.0,100.0
7847,45.0,0,108,1.0,100.0
7848,60.0,0,108,6.0,100.0
7849,57.0,0,216,8.0,100.0
7850,36.0,0,216,3.0,100.0
7851,48.0,0,216,10.0,100.0
7852,36.0,0,216,10.0,100.0
7853,72.0,0,108,2.0,100.0
7854,72.0,0,108,7.0,100.0
7855,36.0,0,108,5.0,100.0
7856,41.0,0,108,1.0,100.0
7857,65.0,120,108,0.0,100.0
7858,65.0,0,108,6.0,100.0
7859,67.0,0,108,2.0,100.0
7860,64.0,120,108,6.0,100.0
7861,48.0,0,108,1.0,100.0
7862,60.0,0,588,4.0,100.0
7863,60.0,0,108,7.0,100.0
7864,64.0,0,108,0.0,100.0
7865,48.0,0,216,10.0,100.0
7866,55.0,0,216,8.0,100.0
7867,36.0,0,216,10.0,100.0
7868,64.0,0,108,7.0,100.0
7869,67.0,0,108,6.0,100.0
7870,67.0,0,108,0.0,100.0
7871,55.0,0,108,4.0,100.0
7872,64.0,0,108,2.0,100.0
7873,36.0,120,108,1.0,100.0
7874,67.0,0,108,2.0,100.0
7875,67.0,0,108,7.0,100.0
7876,60.0,0,108,0.0,100.0
7877,60.0,0,108,6.0,100.0
7878,52.0,0,108,4.0,100.0
7879,48.0,0,108,1.0,100.0
7880,24.0,120,216,10.0,100.0
7881,48.0,0,216,3.0,100.0
7882,36.0,0,216,10.0,100.0
7883,64.0,0,216,8.0,100.0
7884,46.0,0,108,1.0,100.0
7885,64.0,0,108,6.0,100.0
7886,55.0,0,108,4.0,100.0
7887,72.0,0,108,2.0,100.0
7888,72.0,120,108,7.0,100.0
7889,64.0,0,108,0.0,100.0
7890,48.0,0,588,5.0,100.0
7891,65.0,0,108,2.0,100.0
7892,65.0,120,108,7.0,100.0
7893,65.0,0,108,0.0,100.0
7894,45.0,0,108,1.0,100.0
7895,65.0,0,108,6.0,100.0
7896,60.0,0,216,8.0,100.0
7897,48.0,0,216,3.0,100.0
7898,60.0,0,108,2.0,100.0
7899,60.0,0,108,7.0,100.0
7900,45.0,0,108,5.0,100.0
7901,48.0,0,108,1.0,100.0
7902,69.0,0,108,0.0,100.0
7903,69.0,120,108,6.0,100.0
7904,65.0,0,108,7.0,100.0
7905,41.0,0,108,5.0,100.0
7906,65.0,0,108,2.0,100.0
7907,45.0,0,108,1.0,100.0
7908,60.0,120,108,0.0,100.0
7909,60.0,0,108,6.0,100.0
7910,48.0,0,216,10.0,100.0
7911,36.0,0,216,3.0,100.0
7912,36.0,0,216,10.0,100.0
7913,69.0,0,216,8.0,100.0
7914,36.0,0,108,5.0,100.0
7915,69.0,0,108,7.0,100.0
7916,41.0,0,108,1.0,100.0
7917,65.0,120,108,6.0,100.0
7918,65.0,0,108,0.0,100.0
7919,69.0,0,108,2.0,100.0
7920,64.0,0,108,6.0,100.0
7921,60.0,0,588,4.0,100.0
7922,64.0,0,108,2.0,100.0
7923,64.0,0,108,0.0,100.0
7924,36.0,120,216,10.0,100.0
7925,67.0,0,216,8.0,100.0
7926,48.0,0,216,10.0,100.0
7927,48.0,0,216,3.0,100.0
7928,72.0,0,216,7.0,100.0
7929,48.0,0,216,1.0,100.0
7930,48.0,0,216,5.0,100.0
7931,60.0,0,108,0.0,100.0
7932,60.0,120,108,4.0,100.0
7933,60.0,0,108,2.0,100.0
7934,60.0,0,108,6.0,100.0
7935,62.0,0,108,4.0,100.0
7936,62.0,0,108,0.0,100.0
7937,62.0,120,108,2.0,100.0
7938,62.0,0,108,6.0,100.0
7939,64.0,0,108,4.0,100.0
7940,64.0,0,108,2.0,100.0
7941,64.0,0,108,0.0,100.0
7942,64.0,120,108,6.0,100.0
7943,65.0,0,108,6.0,100.0
7944,65.0,0,108,2.0,100.0
7945,65.0,120,108,0.0,100.0
7946,65.0,0,108,4.0,100.0
7947,67.0,0,108,4.0,100.0
7948,67.0,0,108,0.0,100.0
7949,67.0,0,108,6.0,100.0
7950,67.0,120,108,2.0,100.0
7951,69.0,0,108,4.0,100.0
7952,69.0,120,108,2.0,100.0
7953,69.0,0,108,0.0,100.0
7954,69.0,0,108,6.0,100.0
7955,50.0,0,216,1.0,100.0
7956,38.0,0,216,10.0,100.0
7957,50.0,0,216,10.0,100.0
7958,50.0,0,216,5.0,100.0
7959,50.0,0,216,3.0,100.0
7960,65.0,0,216,7.0,100.0
7961,62.0,0,216,8.0,100.0
7962,71.0,120,108,0.0,100.0
7963,71.0,0,108,6.0,100.0
7964,71.0,0,108,2.0,100.0
7965,71.0,0,108,4.0,100.0
7966,72.0,0,216,4.0,100.0
7967,52.0,0,216,10.0,100.0
7968,60.0,0,216,8.0,100.0
7969,72.0,0,216,2.0,100.0
7970,67.0,0,216,7.0,100.0
7971,72.0,0,216,6.0,100.0
7972,52.0,0,216,1.0,100.0
7973,40.0,120,216,10.0,100.0
7974,52.0,0,216,5.0,100.0
7975,52.0,0,216,3.0,100.0
7976,72.0,0,216,0.0,100.0
7977,69.0,0,216,4.0,100.0
7978,74.0,0,216,2.0,100.0
7979,69.0,0,216,2.0,100.0
7980,65.0,0,216,2.0,100.0
7981,53.0,0,216,3.0,100.0
7982,74.0,0,216,6.0,100.0
7983,41.0,0,216,10.0,100.0
7984,53.0,0,216,1.0,100.0
7985,74.0,0,216,4.0,100.0
7986,65.0,0,216,4.0,100.0
7987,69.0,0,216,0.0,100.0
7988,65.0,0,216,8.0,100.0
7989,69.0,0,216,7.0,100.0
7990,53.0,0,216,5.0,100.0
7991,65.0,240,216,0.0,100.0
7992,53.0,0,216,10.0,100.0
7993,74.0,0,216,0.0,100.0
7994,67.0,0,216,2.0,100.0
7995,64.0,0,216,2.0,100.0
7996,43.0,0,216,10.0,100.0
7997,64.0,0,216,0.0,100.0
7998,55.0,240,216,10.0,100.0
7999,67.0,0,216,7.0,100.0
8000,55.0,0,216,5.0,100.0
8001,64.0,0,216,8.0,100.0
8002,67.0,0,216,6.0,100.0
8003,64.0,0,216,4.0,100.0
8004,55.0,0,216,3.0,100.0
8005,67.0,0,216,4.0,100.0
8006,55.0,0,216,1.0,100.0
8007,67.0,0,216,0.0,100.0
8008,43.0,0,108,3.0,100.0
8009,43.0,0,108,5.0,100.0
8010,43.0,0,108,1.0,100.0
8011,71.0,0,216,4.0,100.0
8012,65.0,0,216,4.0,100.0
8013,62.0,0,216,4.0,100.0
8014,62.0,0,216,0.0,100.0
8015,65.0,0,216,0.0,100.0
8016,71.0,0,216,0.0,100.0
8017,71.0,0,216,2.0,100.0
8018,65.0,0,216,2.0,100.0
8019,62.0,0,216,2.0,100.0
8020,62.0,240,216,8.0,100.0
8021,71.0,0,216,6.0,100.0
8022,43.0,0,216,10.0,100.0
8023,65.0,0,216,7.0,100.0
8024,31.0,0,216,10.0,100.0
8025,50.0,0,108,5.0,100.0
8026,50.0,120,108,1.0,100.0
8027,50.0,0,108,3.0,100.0
8028,52.0,0,108,1.0,100.0
8029,52.0,0,108,5.0,100.0
8030,52.0,0,108,3.0,100.0
8031,60.0,0,216,4.0,100.0
8032,72.0,120,216,4.0,100.0
8033,64.0,0,216,4.0,100.0
8034,64.0,0,216,0.0,100.0
8035,72.0,0,216,2.0,100.0
8036,67.0,0,216,2.0,100.0
8037,64.0,0,216,2.0,100.0
8038,60.0,0,216,2.0,100.0
8039,67.0,0,216,4.0,100.0
8040,60.0,0,216,0.0,100.0
8041,48.0,0,216,10.0,100.0
8042,60.0,0,216,8.0,100.0
8043,64.0,0,216,7.0,100.0
8044,67.0,0,216,0.0,100.0
8045,36.0,0,216,10.0,100.0
8046,55.0,120,108,1.0,100.0
8047,55.0,0,108,3.0,100.0
8048,55.0,0,108,5.0,100.0
8049,48.0,0,108,3.0,100.0
8050,48.0,0,108,5.0,100.0
8051,48.0,0,108,1.0,100.0
8052,70.0,0,216,7.0,100.0
8053,67.0,0,216,8.0,100.0
8054,67.0,0,216,4.0,100.0
8055,24.0,0,216,10.0,100.0
8056,36.0,0,216,10.0,100.0
8057,70.0,120,216,2.0,100.0
8058,52.0,0,108,1.0,100.0
8059,52.0,120,108,5.0,100.0
8060,52.0,0,108,3.0,100.0
8061,53.0,0,108,3.0,100.0
8062,72.0,0,588,6.0,100.0
8063,53.0,0,108,5.0,100.0
8064,72.0,0,588,0.0,100.0
8065,53.0,0,108,1.0,100.0
8066,24.0,0,216,10.0,100.0
8067,36.0,0,216,10.0,100.0
8068,69.0,0,216,7.0,100.0
8069,65.0,0,216,8.0,100.0
8070,74.0,0,108,0.0,100.0
8071,57.0,0,108,1.0,100.0
8072,74.0,0,108,6.0,100.0
8073,57.0,120,108,5.0,100.0
8074,57.0,0,108,3.0,100.0
8075,69.0,120,324,2.0,100.0
8076,65.0,0,324,4.0,100.0
8077,48.0,0,108,1.0,100.0
8078,48.0,0,108,3.0,100.0
8079,72.0,0,108,6.0,100.0
8080,72.0,0,108,0.0,100.0
8081,48.0,0,108,5.0,100.0
8082,64.0,0,54,4.0,100.0
8083,70.0,0,54,2.0,100.0
8084,36.0,0,216,10.0,100.0
8085,57.0,0,216,8.0,100.0
8086,48.0,0,216,10.0,100.0
8087,65.0,120,216,7.0,100.0
8088,74.0,0,108,6.0,100.0
8089,74.0,0,108,0.0,100.0
8090,53.0,0,108,1.0,100.0
8091,53.0,120,108,5.0,100.0
8092,53.0,0,108,3.0,100.0
8093,69.0,0,54,2.0,100.0
8094,65.0,60,54,4.0,100.0
8095,52.0,0,108,1.0,100.0
8096,52.0,0,108,5.0,100.0
8097,52.0,0,108,3.0,100.0
8098,36.0,0,216,10.0,100.0
8099,48.0,0,216,10.0,100.0
8100,72.0,0,216,4.0,100.0
8101,67.0,0,216,7.0,100.0
8102,67.0,0,216,2.0,100.0
8103,60.0,60,216,8.0,100.0
8104,55.0,120,108,1.0,100.0
8105,55.0,0,108,5.0,100.0
8106,55.0,0,108,3.0,100.0
8107,48.0,0,108,5.0,100.0
8108,48.0,0,108,3.0,100.0
8109,48.0,0,108,1.0,100.0
8110,70.0,0,216,2.0,100.0
8111,67.0,0,216,4.0,100.0
8112,70.0,120,216,7.0,100.0
8113,67.0,0,216,8.0,100.0
8114,36.0,0,216,10.0,100.0
8115,24.0,0,216,10.0,100.0
8116,52.0,0,108,1.0,100.0
8117,52.0,0,108,3.0,100.0
8118,52.0,120,108,5.0,100.0
8119,72.0,0,588,0.0,100.0
8120,72.0,0,588,6.0,100.0
8121,53.0,0,108,5.0,100.0
8122,53.0,0,108,1.0,100.0
8123,53.0,0,108,3.0,100.0
8124,65.0,0,216,8.0,100.0
8125,69.0,0,216,7.0,100.0
8126,24.0,0,216,10.0,100.0
8127,36.0,0,216,10.0,100.0
8128,74.0,0,108,0.0,100.0
8129,74.0,0,108,6.0,100.0
8130,57.0,120,108,5.0,100.0
8131,57.0,0,108,3.0,100.0
8132,57.0,0,108,1.0,100.0
8133,69.0,120,324,2.0,100.0
8134,65.0,0,324,4.0,100.0
8135,72.0,0,108,6.0,100.0
8136,48.0,0,108,3.0,100.0
8137,48.0,0,108,5.0,100.0
8138,48.0,0,108,1.0,100.0
8139,72.0,0,108,0.0,100.0
8140,70.0,0,54,2.0,100.0
8141,64.0,0,54,4.0,100.0
8142,36.0,0,216,10.0,100.0
8143,57.0,0,216,8.0,100.0
8144,65.0,0,216,7.0,100.0
8145,48.0,120,216,10.0,100.0
8146,53.0,120,108,1.0,100.0
8147,53.0,0,108,5.0,100.0
8148,53.0,0,108,3.0,100.0
8149,74.0,0,108,0.0,100.0
8150,74.0,0,108,6.0,100.0
8151,69.0,60,54,2.0,100.0
8152,65.0,0,54,4.0,100.0
8153,60.0,0,216,8.0,100.0
8154,67.0,0,216,7.0,100.0
8155,72.0,0,216,0.0,100.0
8156,67.0,0,216,2.0,100.0
8157,52.0,0,216,5.0,100.0
8158,67.0,0,216,4.0,100.0
8159,52.0,60,216,3.0,100.0
8160,52.0,0,216,1.0,100.0
8161,60.0,0,216,4.0,100.0
8162,48.0,0,216,10.0,100.0
8163,36.0,0,216,10.0,100.0
8164,72.0,0,216,4.0,100.0
8165,72.0,0,216,6.0,100.0
8166,79.0,240,72,0.0,100.0
8167,64.0,0,72,1.0,100.0
8168,77.0,80,72,0.0,100.0
8169,62.0,0,72,1.0,100.0
8170,79.0,0,72,0.0,100.0
8171,64.0,80,72,1.0,100.0
8172,65.0,80,72,1.0,100.0
8173,81.0,0,72,0.0,100.0
8174,79.0,80,72,0.0,100.0
8175,64.0,0,72,1.0,100.0
8176,65.0,80,72,1.0,100.0
8177,81.0,0,72,0.0,100.0
8178,62.0,80,72,1.0,100.0
8179,83.0,0,72,0.0,100.0
8180,60.0,80,72,1.0,100.0
8181,81.0,0,72,0.0,100.0
8182,83.0,80,72,0.0,100.0
8183,62.0,0,72,1.0,100.0
8184,55.0,80,216,5.0,100.0
8185,72.0,0,216,7.0,100.0
8186,76.0,0,216,6.0,100.0
8187,67.0,0,216,4.0,100.0
8188,64.0,0,216,1.0,100.0
8189,36.0,0,216,10.0,100.0
8190,84.0,0,216,0.0,100.0
8191,67.0,0,216,8.0,100.0
8192,60.0,0,216,4.0,100.0
8193,24.0,0,216,10.0,100.0
8194,64.0,0,216,4.0,100.0
8195,52.0,0,216,5.0,100.0
8196,48.0,0,216,5.0,100.0
8197,55.0,240,72,3.0,100.0
8198,76.0,0,72,2.0,100.0
8199,74.0,80,72,2.0,100.0
8200,53.0,0,72,3.0,100.0
8201,76.0,80,72,2.0,100.0
8202,55.0,0,72,3.0,100.0
8203,77.0,80,72,2.0,100.0
8204,57.0,0,72,3.0,100.0
8205,76.0,80,72,2.0,100.0
8206,55.0,0,72,3.0,100.0
8207,77.0,80,72,2.0,100.0
8208,57.0,0,72,3.0,100.0
8209,74.0,0,72,2.0,100.0
8210,59.0,80,72,3.0,100.0
8211,72.0,80,72,2.0,100.0
8212,57.0,0,72,3.0,100.0
8213,74.0,80,72,2.0,100.0
8214,59.0,0,72,3.0,100.0
8215,67.0,0,216,1.0,100.0
8216,79.0,0,216,6.0,100.0
8217,76.0,0,216,2.0,100.0
8218,72.0,0,216,0.0,100.0
8219,76.0,0,216,0.0,100.0
8220,79.0,0,216,0.0,100.0
8221,64.0,0,216,1.0,100.0
8222,60.0,0,216,3.0,100.0
8223,84.0,0,216,0.0,100.0
8224,76.0,0,216,7.0,100.0
8225,60.0,80,216,1.0,100.0
8226,72.0,0,216,8.0,100.0
8227,36.0,0,216,10.0,100.0
8228,48.0,0,216,10.0,100.0
8229,67.0,240,72,4.0,100.0
8230,52.0,0,72,5.0,100.0
8231,50.0,0,72,5.0,100.0
8232,65.0,80,72,4.0,100.0
8233,67.0,0,72,4.0,100.0
8234,52.0,80,72,5.0,100.0
8235,53.0,0,72,5.0,100.0
8236,69.0,80,72,4.0,100.0
8237,67.0,80,72,4.0,100.0
8238,52.0,0,72,5.0,100.0
8239,69.0,0,72,4.0,100.0
8240,53.0,80,72,5.0,100.0
8241,50.0,0,72,5.0,100.0
8242,71.0,80,72,4.0,100.0
8243,48.0,0,72,5.0,100.0
8244,69.0,80,72,4.0,100.0
8245,71.0,0,72,4.0,100.0
8246,50.0,80,72,5.0,100.0
8247,67.0,0,216,8.0,100.0
8248,52.0,0,216,5.0,100.0
8249,72.0,0,216,4.0,100.0
8250,76.0,0,216,6.0,100.0
8251,72.0,80,216,7.0,100.0
8252,48.0,0,216,10.0,100.0
8253,60.0,0,216,10.0,100.0
8254,53.0,0,216,3.0,100.0
8255,74.0,0,216,2.0,100.0
8256,69.0,0,216,2.0,100.0
8257,65.0,0,216,2.0,100.0
8258,53.0,0,216,5.0,100.0
8259,69.0,0,216,0.0,100.0
8260,74.0,0,216,0.0,100.0
8261,53.0,0,216,1.0,100.0
8262,65.0,0,216,8.0,100.0
8263,74.0,0,216,6.0,100.0
8264,65.0,240,216,0.0,100.0
8265,53.0,0,216,10.0,100.0
8266,41.0,0,216,10.0,100.0
8267,74.0,0,216,4.0,100.0
8268,65.0,0,216,4.0,100.0
8269,69.0,0,216,7.0,100.0
8270,69.0,0,216,4.0,100.0
8271,55.0,0,216,10.0,100.0
8272,43.0,0,216,10.0,100.0
8273,64.0,0,216,0.0,100.0
8274,67.0,0,216,0.0,100.0
8275,55.0,240,216,3.0,100.0
8276,67.0,0,216,2.0,100.0
8277,67.0,0,216,6.0,100.0
8278,55.0,0,216,1.0,100.0
8279,67.0,0,216,4.0,100.0
8280,64.0,0,216,4.0,100.0
8281,55.0,0,216,5.0,100.0
8282,64.0,0,216,2.0,100.0
8283,67.0,0,216,7.0,100.0
8284,64.0,0,216,8.0,100.0
8285,71.0,0,216,2.0,100.0
8286,65.0,0,216,2.0,100.0
8287,43.0,0,216,1.0,100.0
8288,67.0,0,216,4.0,100.0
8289,65.0,0,216,4.0,100.0
8290,62.0,240,216,2.0,100.0
8291,62.0,0,216,4.0,100.0
8292,43.0,0,216,5.0,100.0
8293,67.0,0,216,2.0,100.0
8294,71.0,0,216,4.0,100.0
8295,62.0,0,216,8.0,100.0
8296,71.0,0,216,6.0,100.0
8297,62.0,0,216,0.0,100.0
8298,65.0,0,216,0.0,100.0
8299,67.0,0,216,7.0,100.0
8300,67.0,0,216,0.0,100.0
8301,71.0,0,216,0.0,100.0
8302,31.0,0,216,10.0,100.0
8303,43.0,0,216,10.0,100.0
8304,43.0,0,216,3.0,100.0
8305,64.0,0,864,8.0,100.0
8306,72.0,0,864,0.0,100.0
8307,67.0,0,864,0.0,100.0
8308,60.0,0,864,0.0,100.0
8309,64.0,0,864,0.0,100.0
8310,67.0,0,864,7.0,100.0
8311,36.0,0,864,10.0,100.0
8312,72.0,0,864,6.0,100.0
8313,36.0,0,864,3.0,100.0
8314,36.0,0,864,1.0,100.0
8315,36.0,0,864,5.0,100.0
8316,48.0,0,864,5.0,100.0
8317,48.0,0,864,1.0,100.0
8318,24.0,240,864,10.0,100.0
8319,72.0,0,864,4.0,100.0
8320,67.0,0,864,4.0,100.0
8321,64.0,0,864,4.0,100.0
8322,60.0,0,864,4.0,100.0
8323,60.0,0,864,2.0,100.0
8324,64.0,0,864,2.0,100.0
8325,67.0,0,864,2.0,100.0
8326,72.0,0,864,2.0,100.0
8327,48.0,0,864,3.0,100.0
