,note,step,duration,channel,velocity
0,72.0,0,960,0.0,64.0
1,75.0,960,960,0.0,64.0
2,79.0,960,960,0.0,64.0
3,80.0,960,960,0.0,64.0
4,71.0,960,960,0.0,64.0
5,79.0,1440,480,0.0,64.0
6,78.0,480,960,0.0,64.0
7,77.0,960,960,0.0,64.0
8,76.0,960,960,0.0,64.0
9,75.0,960,1440,0.0,64.0
10,74.0,1440,480,0.0,64.0
11,73.0,480,480,0.0,64.0
12,72.0,480,480,0.0,64.0
13,71.0,480,480,0.0,64.0
14,69.0,480,240,0.0,64.0
15,67.0,240,240,0.0,64.0
16,72.0,240,480,0.0,64.0
17,77.0,480,480,0.0,64.0
18,75.0,960,0,0.0,64.0
19,74.0,120,120,0.0,64.0
20,75.0,120,120,0.0,64.0
21,74.0,120,120,0.0,64.0
22,75.0,120,120,0.0,64.0
23,74.0,120,120,0.0,64.0
24,72.0,120,120,0.0,64.0
25,74.0,120,120,0.0,64.0
26,72.0,120,480,0.0,64.0
27,84.0,480,480,0.0,64.0
28,78.0,480,480,0.0,64.0
29,81.0,480,480,0.0,64.0
30,70.0,480,480,0.0,64.0
31,67.0,0,960,0.0,64.0
32,86.0,480,480,0.0,64.0
33,79.0,0,480,0.0,64.0
34,82.0,480,480,0.0,64.0
35,70.0,480,960,0.0,64.0
36,75.0,0,480,0.0,64.0
37,79.0,480,480,0.0,64.0
38,72.0,480,0,0.0,64.0
39,75.0,0,960,0.0,64.0
40,84.0,480,960,0.0,64.0
41,82.0,480,240,0.0,64.0
42,66.0,480,960,0.0,64.0
43,81.0,240,240,0.0,64.0
44,82.0,240,240,0.0,64.0
45,81.0,240,240,0.0,64.0
46,79.0,240,240,0.0,64.0
47,74.0,0,480,0.0,64.0
48,77.0,240,240,0.0,64.0
49,76.0,0,240,0.0,64.0
50,74.0,240,240,0.0,64.0
51,73.0,240,960,0.0,64.0
52,76.0,240,960,0.0,64.0
53,78.0,480,480,0.0,64.0
54,72.0,480,960,0.0,64.0
55,79.0,0,240,0.0,64.0
56,74.0,240,240,0.0,64.0
57,79.0,240,240,0.0,64.0
58,71.0,480,960,0.0,64.0
59,81.0,240,240,0.0,64.0
60,79.0,0,240,0.0,64.0
61,77.0,240,240,0.0,64.0
62,75.0,240,240,0.0,64.0
63,74.0,240,240,0.0,64.0
64,70.0,240,1440,0.0,64.0
65,69.0,480,480,0.0,64.0
66,72.0,240,1200,0.0,64.0
67,74.0,240,240,0.0,64.0
68,68.0,480,480,0.0,64.0
69,75.0,0,240,0.0,64.0
70,72.0,240,240,0.0,64.0
71,67.0,240,480,0.0,64.0
72,66.0,0,480,0.0,64.0
73,74.0,240,480,0.0,64.0
74,64.0,480,240,0.0,64.0
75,62.0,240,240,0.0,64.0
76,84.0,0,480,0.0,64.0
77,67.0,0,480,0.0,64.0
78,82.0,240,480,0.0,64.0
79,72.0,480,480,0.0,64.0
80,81.0,0,480,0.0,64.0
81,86.0,480,480,0.0,64.0
82,70.0,480,0,0.0,64.0
83,69.0,120,120,0.0,64.0
84,70.0,120,120,0.0,64.0
85,79.0,480,960,0.0,64.0
86,69.0,120,120,0.0,64.0
87,70.0,0,120,0.0,64.0
88,69.0,120,120,0.0,64.0
89,67.0,120,120,0.0,64.0
90,69.0,120,120,0.0,64.0
91,78.0,120,480,0.0,64.0
92,79.0,0,480,0.0,64.0
93,82.0,480,480,0.0,64.0
94,67.0,120,960,0.0,64.0
95,76.0,480,480,0.0,64.0
96,79.0,480,480,0.0,64.0
97,72.0,480,480,0.0,64.0
98,70.0,0,960,0.0,64.0
99,68.0,480,240,0.0,64.0
100,74.0,0,240,0.0,64.0
101,76.0,0,240,0.0,64.0
102,67.0,240,240,0.0,64.0
103,68.0,0,240,0.0,64.0
104,67.0,240,240,0.0,64.0
105,65.0,240,240,0.0,64.0
106,63.0,240,240,0.0,64.0
107,62.0,240,240,0.0,64.0
108,63.0,240,240,0.0,64.0
109,77.0,240,1440,0.0,64.0
110,65.0,240,240,0.0,64.0
111,80.0,0,480,0.0,64.0
112,67.0,240,240,0.0,64.0
113,68.0,0,240,0.0,64.0
114,74.0,240,480,0.0,64.0
115,67.0,240,240,0.0,64.0
116,77.0,240,480,0.0,64.0
117,68.0,0,960,0.0,64.0
118,70.0,480,480,0.0,64.0
119,67.0,480,240,0.0,64.0
120,72.0,0,240,0.0,64.0
121,74.0,240,240,0.0,64.0
122,65.0,0,240,0.0,64.0
123,67.0,0,240,0.0,64.0
124,65.0,240,240,0.0,64.0
125,63.0,240,240,0.0,64.0
126,62.0,240,240,0.0,64.0
127,60.0,240,480,0.0,64.0
128,75.0,240,1440,0.0,64.0
129,62.0,480,240,0.0,64.0
130,74.0,0,240,0.0,64.0
131,72.0,240,240,0.0,64.0
132,63.0,0,240,0.0,64.0
133,65.0,0,240,0.0,64.0
134,74.0,240,240,0.0,64.0
135,72.0,0,240,0.0,64.0
136,63.0,240,240,0.0,64.0
137,71.0,240,240,0.0,64.0
138,69.0,240,240,0.0,64.0
139,67.0,240,480,0.0,64.0
140,69.0,480,240,0.0,64.0
141,71.0,240,240,0.0,64.0
142,48.0,0,960,0.0,64.0
143,72.0,240,240,0.0,64.0
144,71.0,240,240,0.0,64.0
145,65.0,0,2160,0.0,64.0
146,63.0,240,240,0.0,64.0
147,51.0,0,960,0.0,64.0
148,72.0,240,960,0.0,64.0
149,62.0,0,480,0.0,64.0
150,55.0,240,960,0.0,64.0
151,67.0,480,480,0.0,64.0
152,70.0,0,960,0.0,64.0
153,60.0,0,480,0.0,64.0
154,56.0,480,960,0.0,64.0
155,68.0,0,480,0.0,64.0
156,65.0,480,960,0.0,64.0
157,63.0,480,240,0.0,64.0
158,47.0,0,960,0.0,64.0
159,67.0,480,960,0.0,64.0
160,62.0,240,240,0.0,64.0
161,63.0,240,240,0.0,64.0
162,62.0,240,240,0.0,64.0
163,60.0,0,240,0.0,64.0
164,58.0,240,240,0.0,64.0
165,55.0,240,480,0.0,64.0
166,57.0,240,240,0.0,64.0
167,55.0,240,240,0.0,64.0
168,75.0,0,240,0.0,64.0
169,74.0,0,240,0.0,64.0
170,72.0,240,240,0.0,64.0
171,54.0,0,960,0.0,64.0
172,74.0,0,240,0.0,64.0
173,57.0,240,960,0.0,64.0
174,77.0,240,240,0.0,64.0
175,75.0,240,240,0.0,64.0
176,53.0,240,960,0.0,64.0
177,59.0,0,480,0.0,64.0
178,74.0,240,240,0.0,64.0
179,60.0,240,240,0.0,64.0
180,55.0,240,240,0.0,64.0
181,60.0,240,240,0.0,64.0
182,62.0,240,240,0.0,64.0
183,52.0,0,960,0.0,64.0
184,60.0,240,240,0.0,64.0
185,79.0,0,1200,0.0,64.0
186,58.0,0,240,0.0,64.0
187,73.0,240,240,0.0,64.0
188,56.0,240,240,0.0,64.0
189,72.0,0,240,0.0,64.0
190,70.0,0,240,0.0,64.0
191,55.0,240,240,0.0,64.0
192,69.0,240,240,0.0,64.0
193,67.0,240,240,0.0,64.0
194,51.0,0,1440,0.0,64.0
195,69.0,240,240,0.0,64.0
196,72.0,240,240,0.0,64.0
197,50.0,0,480,0.0,64.0
198,53.0,0,1200,0.0,64.0
199,49.0,240,480,0.0,64.0
200,55.0,240,240,0.0,64.0
201,56.0,0,240,0.0,64.0
202,53.0,240,240,0.0,64.0
203,48.0,240,480,0.0,64.0
204,55.0,240,480,0.0,64.0
205,47.0,0,480,0.0,64.0
206,77.0,0,1440,0.0,64.0
207,45.0,0,240,0.0,64.0
208,71.0,0,480,0.0,64.0
209,43.0,240,240,0.0,64.0
210,65.0,480,480,0.0,64.0
211,63.0,0,480,0.0,64.0
212,48.0,240,480,0.0,64.0
213,72.0,240,480,0.0,64.0
214,71.0,240,240,0.0,64.0
215,62.0,240,480,0.0,64.0
216,53.0,0,480,0.0,64.0
217,72.0,0,240,0.0,64.0
218,70.0,240,240,0.0,64.0
219,67.0,240,480,0.0,64.0
220,68.0,240,240,0.0,64.0
221,51.0,240,0,0.0,64.0
222,67.0,240,240,0.0,64.0
223,50.0,120,120,0.0,64.0
224,65.0,0,240,0.0,64.0
225,51.0,120,120,0.0,64.0
226,68.0,0,240,0.0,64.0
227,60.0,0,960,0.0,64.0
228,50.0,120,120,0.0,64.0
229,51.0,0,120,0.0,64.0
230,50.0,120,120,0.0,64.0
231,67.0,0,240,0.0,64.0
232,48.0,120,120,0.0,64.0
233,50.0,120,120,0.0,64.0
234,65.0,0,240,0.0,64.0
235,59.0,120,480,0.0,64.0
236,48.0,120,240,0.0,64.0
237,63.0,0,480,0.0,64.0
238,60.0,0,480,0.0,64.0
239,50.0,240,240,0.0,64.0
240,51.0,0,240,0.0,64.0
241,75.0,240,480,0.0,64.0
242,53.0,240,240,0.0,64.0
243,55.0,0,240,0.0,64.0
244,74.0,240,480,0.0,64.0
245,51.0,240,240,0.0,64.0
246,72.0,0,960,0.0,64.0
247,53.0,240,240,0.0,64.0
248,55.0,240,240,0.0,64.0
249,73.0,0,480,0.0,64.0
250,70.0,0,720,0.0,64.0
251,72.0,0,480,0.0,64.0
252,56.0,240,480,0.0,64.0
253,68.0,240,240,0.0,64.0
254,67.0,0,240,0.0,64.0
255,58.0,240,480,0.0,64.0
256,65.0,240,240,0.0,64.0
257,60.0,240,240,0.0,64.0
258,63.0,0,240,0.0,64.0
259,70.0,0,960,0.0,64.0
260,66.0,240,240,0.0,64.0
261,58.0,0,240,0.0,64.0
262,65.0,0,240,0.0,64.0
263,69.0,240,480,0.0,64.0
264,60.0,0,480,0.0,64.0
265,63.0,240,240,0.0,64.0
266,58.0,240,240,0.0,64.0
267,48.0,240,240,0.0,64.0
268,74.0,0,480,0.0,64.0
269,65.0,0,480,0.0,64.0
270,49.0,0,240,0.0,64.0
271,51.0,240,240,0.0,64.0
272,73.0,240,480,0.0,64.0
273,53.0,0,240,0.0,64.0
274,70.0,0,960,0.0,64.0
275,72.0,240,480,0.0,64.0
276,50.0,240,240,0.0,64.0
277,51.0,0,240,0.0,64.0
278,53.0,240,240,0.0,64.0
279,71.0,0,480,0.0,64.0
280,68.0,240,720,0.0,64.0
281,67.0,240,240,0.0,64.0
282,55.0,0,480,0.0,64.0
283,70.0,240,480,0.0,64.0
284,65.0,240,240,0.0,64.0
285,63.0,240,240,0.0,64.0
286,56.0,0,480,0.0,64.0
287,58.0,240,240,0.0,64.0
288,61.0,0,240,0.0,64.0
289,64.0,0,240,0.0,64.0
290,56.0,240,240,0.0,64.0
291,68.0,0,960,0.0,64.0
292,63.0,240,240,0.0,64.0
293,58.0,0,480,0.0,64.0
294,67.0,0,480,0.0,64.0
295,61.0,240,240,0.0,64.0
296,56.0,240,240,0.0,64.0
297,63.0,0,480,0.0,64.0
298,46.0,240,240,0.0,64.0
299,72.0,0,480,0.0,64.0
300,47.0,0,240,0.0,64.0
301,49.0,240,240,0.0,64.0
302,71.0,240,480,0.0,64.0
303,51.0,240,240,0.0,64.0
304,68.0,0,960,0.0,64.0
305,48.0,240,240,0.0,64.0
306,50.0,0,240,0.0,64.0
307,70.0,0,960,0.0,64.0
308,52.0,240,240,0.0,64.0
309,53.0,240,240,0.0,64.0
310,67.0,240,960,0.0,64.0
311,51.0,240,240,0.0,64.0
312,69.0,0,480,0.0,64.0
313,49.0,0,240,0.0,64.0
314,68.0,240,480,0.0,64.0
315,48.0,240,240,0.0,64.0
316,47.0,240,240,0.0,64.0
317,65.0,0,960,0.0,64.0
318,50.0,240,240,0.0,64.0
319,48.0,0,240,0.0,64.0
320,63.0,240,240,0.0,64.0
321,62.0,0,240,0.0,64.0
322,46.0,240,240,0.0,64.0
323,67.0,0,1200,0.0,64.0
324,60.0,240,480,0.0,64.0
325,65.0,240,240,0.0,64.0
326,63.0,240,240,0.0,64.0
327,62.0,240,240,0.0,64.0
328,48.0,0,480,0.0,64.0
329,45.0,0,960,0.0,64.0
330,60.0,240,240,0.0,64.0
331,53.0,0,480,0.0,64.0
332,63.0,240,240,0.0,64.0
333,62.0,0,240,0.0,64.0
334,54.0,240,480,0.0,64.0
335,44.0,0,960,0.0,64.0
336,60.0,240,240,0.0,64.0
337,55.0,0,160,0.0,64.0
338,50.0,160,160,0.0,64.0
339,59.0,0,480,0.0,64.0
340,55.0,160,160,0.0,64.0
341,59.0,160,160,0.0,64.0
342,55.0,160,160,0.0,64.0
343,43.0,240,960,0.0,64.0
344,59.0,160,160,0.0,64.0
345,62.0,160,160,0.0,64.0
346,56.0,160,160,0.0,64.0
347,55.0,160,160,0.0,64.0
348,53.0,160,160,0.0,64.0
349,51.0,160,160,0.0,64.0
350,50.0,160,160,0.0,64.0
351,47.0,0,960,0.0,64.0
352,67.0,160,160,0.0,64.0
353,72.0,160,160,0.0,64.0
354,51.0,0,480,0.0,64.0
355,75.0,160,160,0.0,64.0
356,72.0,160,160,0.0,64.0
357,75.0,160,160,0.0,64.0
358,48.0,160,960,0.0,64.0
359,79.0,160,160,0.0,64.0
360,73.0,160,160,0.0,64.0
361,72.0,160,160,0.0,64.0
362,70.0,160,160,0.0,64.0
363,68.0,160,160,0.0,64.0
364,52.0,0,960,0.0,64.0
365,67.0,160,160,0.0,64.0
366,48.0,160,160,0.0,64.0
367,53.0,160,160,0.0,64.0
368,68.0,160,480,0.0,64.0
369,56.0,160,160,0.0,64.0
370,53.0,160,160,0.0,64.0
371,56.0,160,160,0.0,64.0
372,41.0,0,960,0.0,64.0
373,60.0,160,160,0.0,64.0
374,54.0,160,160,0.0,64.0
375,53.0,160,160,0.0,64.0
376,51.0,160,160,0.0,64.0
377,49.0,160,160,0.0,64.0
378,48.0,160,160,0.0,64.0
379,45.0,0,960,0.0,64.0
380,65.0,160,160,0.0,64.0
381,49.0,160,480,0.0,64.0
382,70.0,160,160,0.0,64.0
383,73.0,160,160,0.0,64.0
384,70.0,160,160,0.0,64.0
385,46.0,0,960,0.0,64.0
386,73.0,160,160,0.0,64.0
387,77.0,0,160,0.0,64.0
388,71.0,160,160,0.0,64.0
389,70.0,160,160,0.0,64.0
390,68.0,160,160,0.0,64.0
391,66.0,160,160,0.0,64.0
392,65.0,160,160,0.0,64.0
393,50.0,160,960,0.0,64.0
394,66.0,160,240,0.0,64.0
395,39.0,0,480,0.0,64.0
396,75.0,240,480,0.0,64.0
397,41.0,240,480,0.0,64.0
398,74.0,240,240,0.0,64.0
399,75.0,0,240,0.0,64.0
400,43.0,240,480,0.0,64.0
401,70.0,240,240,0.0,64.0
402,63.0,240,240,0.0,64.0
403,45.0,240,480,0.0,64.0
404,62.0,0,240,0.0,64.0
405,72.0,0,720,0.0,64.0
406,46.0,240,480,0.0,64.0
407,70.0,240,480,0.0,64.0
408,69.0,240,240,0.0,64.0
409,48.0,240,480,0.0,64.0
410,70.0,240,240,0.0,64.0
411,49.0,0,480,0.0,64.0
412,65.0,240,240,0.0,64.0
413,61.0,240,240,0.0,64.0
414,40.0,240,480,0.0,64.0
415,67.0,0,480,0.0,64.0
416,60.0,240,240,0.0,64.0
417,68.0,0,240,0.0,64.0
418,41.0,0,480,0.0,64.0
419,77.0,240,480,0.0,64.0
420,76.0,240,240,0.0,64.0
421,43.0,240,480,0.0,64.0
422,77.0,240,240,0.0,64.0
423,45.0,0,480,0.0,64.0
424,72.0,240,240,0.0,64.0
425,65.0,240,240,0.0,64.0
426,47.0,0,480,0.0,64.0
427,64.0,0,240,0.0,64.0
428,74.0,240,720,0.0,64.0
429,48.0,240,480,0.0,64.0
430,72.0,240,480,0.0,64.0
431,50.0,240,480,0.0,64.0
432,71.0,240,240,0.0,64.0
433,72.0,0,240,0.0,64.0
434,51.0,240,480,0.0,64.0
435,67.0,240,240,0.0,64.0
436,63.0,240,240,0.0,64.0
437,42.0,240,480,0.0,64.0
438,69.0,0,480,0.0,64.0
439,70.0,0,160,0.0,64.0
440,62.0,240,240,0.0,64.0
441,67.0,160,160,0.0,64.0
442,70.0,160,160,0.0,64.0
443,74.0,160,160,0.0,64.0
444,70.0,160,160,0.0,64.0
445,43.0,0,960,0.0,64.0
446,74.0,160,160,0.0,64.0
447,74.0,240,240,0.0,64.0
448,72.0,240,240,0.0,64.0
449,70.0,240,240,0.0,64.0
450,46.0,160,960,0.0,64.0
451,79.0,0,1120,0.0,64.0
452,69.0,0,240,0.0,64.0
453,78.0,160,160,0.0,64.0
454,76.0,160,160,0.0,64.0
455,78.0,160,160,0.0,64.0
456,81.0,160,160,0.0,64.0
457,86.0,160,160,0.0,64.0
458,50.0,240,960,0.0,64.0
459,82.0,240,240,0.0,64.0
460,81.0,240,240,0.0,64.0
461,79.0,240,240,0.0,64.0
462,51.0,160,960,0.0,64.0
463,81.0,240,240,0.0,64.0
464,74.0,240,240,0.0,64.0
465,75.0,240,240,0.0,64.0
466,42.0,0,960,0.0,64.0
467,72.0,240,240,0.0,64.0
468,84.0,0,2160,0.0,64.0
469,81.0,240,240,0.0,64.0
470,74.0,240,480,0.0,64.0
471,81.0,120,120,0.0,64.0
472,79.0,120,120,0.0,64.0
473,78.0,120,120,0.0,64.0
474,50.0,0,480,0.0,64.0
475,82.0,240,720,0.0,64.0
476,81.0,240,240,0.0,64.0
477,82.0,240,240,0.0,64.0
478,79.0,240,240,0.0,64.0
479,49.0,0,960,0.0,64.0
480,76.0,240,240,0.0,64.0
481,78.0,240,240,0.0,64.0
482,81.0,240,240,0.0,64.0
483,48.0,0,960,0.0,64.0
484,79.0,240,240,0.0,64.0
485,80.0,240,240,0.0,64.0
486,47.0,0,960,0.0,64.0
487,78.0,240,240,0.0,64.0
488,74.0,240,1200,0.0,64.0
489,73.0,240,240,0.0,64.0
490,79.0,0,720,0.0,64.0
491,74.0,240,480,0.0,64.0
492,77.0,240,240,0.0,64.0
493,46.0,240,1440,0.0,64.0
494,67.0,240,240,0.0,64.0
495,72.0,240,240,0.0,64.0
496,45.0,0,480,0.0,64.0
497,71.0,240,240,0.0,64.0
498,76.0,240,1200,0.0,64.0
499,74.0,240,240,0.0,64.0
500,44.0,240,480,0.0,64.0
501,75.0,0,240,0.0,64.0
502,72.0,240,240,0.0,64.0
503,43.0,240,480,0.0,64.0
504,69.0,240,240,0.0,64.0
505,42.0,240,480,0.0,64.0
506,40.0,240,240,0.0,64.0
507,70.0,0,240,0.0,64.0
508,38.0,240,240,0.0,64.0
509,72.0,0,240,0.0,64.0
510,70.0,240,240,0.0,64.0
511,69.0,240,240,0.0,64.0
512,43.0,0,480,0.0,64.0
513,67.0,0,240,0.0,64.0
514,48.0,240,480,0.0,64.0
515,66.0,240,240,0.0,64.0
516,74.0,0,2160,0.0,64.0
517,67.0,240,480,0.0,64.0
518,76.0,240,240,0.0,64.0
519,78.0,240,240,0.0,64.0
520,79.0,240,240,0.0,64.0
521,50.0,0,480,0.0,64.0
522,46.0,0,0,0.0,64.0
523,45.0,120,120,0.0,64.0
524,78.0,240,240,0.0,64.0
525,46.0,0,120,0.0,64.0
526,45.0,120,120,0.0,64.0
527,76.0,120,240,0.0,64.0
528,46.0,0,120,0.0,64.0
529,45.0,120,120,0.0,64.0
530,74.0,0,240,0.0,64.0
531,43.0,0,120,0.0,64.0
532,54.0,120,480,0.0,64.0
533,45.0,120,120,0.0,64.0
534,72.0,120,240,0.0,64.0
535,70.0,0,240,0.0,64.0
536,43.0,120,480,0.0,64.0
537,67.0,240,240,0.0,64.0
538,55.0,0,480,0.0,64.0
539,69.0,0,240,0.0,64.0
540,52.0,240,480,0.0,64.0
541,70.0,240,240,0.0,64.0
542,69.0,0,240,0.0,64.0
543,67.0,240,240,0.0,64.0
544,54.0,240,480,0.0,64.0
545,66.0,0,240,0.0,64.0
546,45.0,240,480,0.0,64.0
547,64.0,240,240,0.0,64.0
548,62.0,240,480,0.0,64.0
549,46.0,0,480,0.0,64.0
550,58.0,240,240,0.0,64.0
551,60.0,240,240,0.0,64.0
552,62.0,240,240,0.0,64.0
553,55.0,0,480,0.0,64.0
554,60.0,240,240,0.0,64.0
555,58.0,240,240,0.0,64.0
556,57.0,240,0,0.0,64.0
557,48.0,0,480,0.0,64.0
558,55.0,240,240,0.0,64.0
559,74.0,240,240,0.0,64.0
560,50.0,0,480,0.0,64.0
561,53.0,240,480,0.0,64.0
562,75.0,240,240,0.0,64.0
563,77.0,240,240,0.0,64.0
564,58.0,0,480,0.0,64.0
565,75.0,240,240,0.0,64.0
566,60.0,0,480,0.0,64.0
567,74.0,240,240,0.0,64.0
568,72.0,0,240,0.0,64.0
569,70.0,240,240,0.0,64.0
570,55.0,0,480,0.0,64.0
571,51.0,240,720,0.0,64.0
572,69.0,240,240,0.0,64.0
573,71.0,240,240,0.0,64.0
574,50.0,0,240,0.0,64.0
575,53.0,0,480,0.0,64.0
576,51.0,0,240,0.0,64.0
577,72.0,240,240,0.0,64.0
578,74.0,0,240,0.0,64.0
579,53.0,240,240,0.0,64.0
580,51.0,240,240,0.0,64.0
581,67.0,0,480,0.0,64.0
582,50.0,240,240,0.0,64.0
583,48.0,240,240,0.0,64.0
584,74.0,0,480,0.0,64.0
585,47.0,240,240,0.0,64.0
586,77.0,0,720,0.0,64.0
587,48.0,0,240,0.0,64.0
588,53.0,0,240,0.0,64.0
589,67.0,240,480,0.0,64.0
590,74.0,240,240,0.0,64.0
591,55.0,240,240,0.0,64.0
592,75.0,0,240,0.0,64.0
593,56.0,240,240,0.0,64.0
594,77.0,0,240,0.0,64.0
595,55.0,240,240,0.0,64.0
596,53.0,240,240,0.0,64.0
597,71.0,0,480,0.0,64.0
598,51.0,0,240,0.0,64.0
599,50.0,240,240,0.0,64.0
600,80.0,240,720,0.0,64.0
601,77.0,240,240,0.0,64.0
602,51.0,0,480,0.0,64.0
603,79.0,240,240,0.0,64.0
604,48.0,0,480,0.0,64.0
605,60.0,240,0,0.0,64.0
606,80.0,240,240,0.0,64.0
607,79.0,0,240,0.0,64.0
608,77.0,240,240,0.0,64.0
609,75.0,240,240,0.0,64.0
610,55.0,0,480,0.0,64.0
611,63.0,240,0,0.0,64.0
612,74.0,240,240,0.0,64.0
613,72.0,0,240,0.0,64.0
614,75.0,240,240,0.0,64.0
615,77.0,0,240,0.0,64.0
616,60.0,240,480,0.0,64.0
617,67.0,0,960,0.0,64.0
618,79.0,240,240,0.0,64.0
619,77.0,240,240,0.0,64.0
620,75.0,240,240,0.0,64.0
621,74.0,0,240,0.0,64.0
622,72.0,240,240,0.0,64.0
623,68.0,0,960,0.0,64.0
624,53.0,240,720,0.0,64.0
625,79.0,240,480,0.0,64.0
626,50.0,240,240,0.0,64.0
627,51.0,240,240,0.0,64.0
628,53.0,240,240,0.0,64.0
629,59.0,0,960,0.0,64.0
630,67.0,0,480,0.0,64.0
631,72.0,240,240,0.0,64.0
632,51.0,0,240,0.0,64.0
633,50.0,0,240,0.0,64.0
634,74.0,240,240,0.0,64.0
635,48.0,0,240,0.0,64.0
636,46.0,240,240,0.0,64.0
637,67.0,0,480,0.0,64.0
638,45.0,240,240,0.0,64.0
639,48.0,240,240,0.0,64.0
640,75.0,240,960,0.0,64.0
641,50.0,0,240,0.0,64.0
642,69.0,240,480,0.0,64.0
643,51.0,240,240,0.0,64.0
644,66.0,0,960,0.0,64.0
645,71.0,240,240,0.0,64.0
646,50.0,0,240,0.0,64.0
647,72.0,240,240,0.0,64.0
648,48.0,0,240,0.0,64.0
649,46.0,0,240,0.0,64.0
650,45.0,240,240,0.0,64.0
651,65.0,0,960,0.0,64.0
652,43.0,240,240,0.0,64.0
653,47.0,240,240,0.0,64.0
654,74.0,240,960,0.0,64.0
655,48.0,0,240,0.0,64.0
656,64.0,0,960,0.0,64.0
657,50.0,240,240,0.0,64.0
658,67.0,240,480,0.0,64.0
659,48.0,0,240,0.0,64.0
660,69.0,0,240,0.0,64.0
661,71.0,0,240,0.0,64.0
662,46.0,240,240,0.0,64.0
663,45.0,0,240,0.0,64.0
664,43.0,240,240,0.0,64.0
665,72.0,240,720,0.0,64.0
666,42.0,240,480,0.0,64.0
667,63.0,240,1440,0.0,64.0
668,69.0,240,240,0.0,64.0
669,70.0,0,240,0.0,64.0
670,62.0,240,480,0.0,64.0
671,72.0,240,240,0.0,64.0
672,70.0,0,240,0.0,64.0
673,69.0,240,240,0.0,64.0
674,61.0,240,480,0.0,64.0
675,67.0,240,240,0.0,64.0
676,66.0,240,240,0.0,64.0
677,51.0,0,480,0.0,64.0
678,60.0,0,480,0.0,64.0
679,41.0,240,240,0.0,64.0
680,50.0,240,240,0.0,64.0
681,59.0,0,480,0.0,64.0
682,51.0,240,240,0.0,64.0
683,57.0,0,240,0.0,64.0
684,55.0,240,240,0.0,64.0
685,53.0,0,240,0.0,64.0
686,51.0,0,240,0.0,64.0
687,50.0,240,240,0.0,64.0
688,60.0,240,480,0.0,64.0
689,48.0,0,240,0.0,64.0
690,65.0,240,480,0.0,64.0
691,47.0,240,240,0.0,64.0
692,48.0,0,240,0.0,64.0
693,67.0,0,2400,0.0,64.0
694,50.0,240,240,0.0,64.0
695,51.0,0,240,0.0,64.0
696,53.0,240,240,0.0,64.0
697,63.0,0,0,0.0,64.0
698,55.0,240,240,0.0,64.0
699,62.0,120,120,0.0,64.0
700,63.0,120,120,0.0,64.0
701,72.0,240,960,0.0,64.0
702,62.0,120,120,0.0,64.0
703,56.0,0,240,0.0,64.0
704,63.0,120,120,0.0,64.0
705,62.0,120,120,0.0,64.0
706,55.0,0,240,0.0,64.0
707,60.0,120,120,0.0,64.0
708,62.0,120,120,0.0,64.0
709,53.0,0,240,0.0,64.0
710,52.0,0,240,0.0,64.0
711,70.0,0,960,0.0,64.0
712,48.0,240,240,0.0,64.0
713,68.0,0,240,0.0,64.0
714,50.0,240,240,0.0,64.0
715,52.0,0,240,0.0,64.0
716,67.0,240,240,0.0,64.0
717,60.0,120,1200,0.0,64.0
718,53.0,0,480,0.0,64.0
719,60.0,240,240,0.0,64.0
720,62.0,240,240,0.0,64.0
721,41.0,0,480,0.0,64.0
722,63.0,240,240,0.0,64.0
723,62.0,240,240,0.0,64.0
724,60.0,240,240,0.0,64.0
725,46.0,0,480,0.0,64.0
726,68.0,240,1680,0.0,64.0
727,50.0,0,480,0.0,64.0
728,66.0,240,240,0.0,64.0
729,58.0,240,720,0.0,64.0
730,51.0,0,480,0.0,64.0
731,58.0,240,240,0.0,64.0
732,60.0,0,240,0.0,64.0
733,61.0,240,240,0.0,64.0
734,39.0,240,480,0.0,64.0
735,60.0,240,240,0.0,64.0
736,58.0,240,240,0.0,64.0
737,44.0,0,480,0.0,64.0
738,67.0,240,1680,0.0,64.0
739,64.0,240,240,0.0,64.0
740,48.0,0,480,0.0,64.0
741,65.0,0,240,0.0,64.0
742,56.0,240,720,0.0,64.0
743,68.0,240,240,0.0,64.0
744,53.0,0,240,0.0,64.0
745,70.0,240,240,0.0,64.0
746,55.0,0,240,0.0,64.0
747,56.0,240,240,0.0,64.0
748,72.0,0,240,0.0,64.0
749,55.0,240,240,0.0,64.0
750,70.0,0,240,0.0,64.0
751,68.0,0,240,0.0,64.0
752,49.0,240,1440,0.0,64.0
753,53.0,240,240,0.0,64.0
754,67.0,240,240,0.0,64.0
755,65.0,240,240,0.0,64.0
756,50.0,0,480,0.0,64.0
757,67.0,240,240,0.0,64.0
758,58.0,0,720,0.0,64.0
759,55.0,240,240,0.0,64.0
760,70.0,0,240,0.0,64.0
761,56.0,240,240,0.0,64.0
762,72.0,0,240,0.0,64.0
763,58.0,240,240,0.0,64.0
764,73.0,0,240,0.0,64.0
765,72.0,0,240,0.0,64.0
766,56.0,240,240,0.0,64.0
767,70.0,0,240,0.0,64.0
768,55.0,240,240,0.0,64.0
769,51.0,0,1440,0.0,64.0
770,68.0,240,240,0.0,64.0
771,52.0,0,480,0.0,64.0
772,67.0,240,240,0.0,64.0
773,60.0,0,720,0.0,64.0
774,68.0,0,240,0.0,64.0
775,56.0,240,240,0.0,64.0
776,72.0,0,240,0.0,64.0
777,74.0,240,240,0.0,64.0
778,58.0,0,240,0.0,64.0
779,76.0,240,240,0.0,64.0
780,55.0,0,240,0.0,64.0
781,56.0,0,240,0.0,64.0
782,60.0,240,240,0.0,64.0
783,53.0,240,1440,0.0,64.0
784,62.0,240,240,0.0,64.0
785,77.0,240,960,0.0,64.0
786,64.0,240,240,0.0,64.0
787,61.0,240,240,0.0,64.0
788,60.0,240,240,0.0,64.0
789,80.0,240,960,0.0,64.0
790,58.0,240,240,0.0,64.0
791,65.0,0,1200,0.0,64.0
792,63.0,240,240,0.0,64.0
793,61.0,240,240,0.0,64.0
794,60.0,240,240,0.0,64.0
795,84.0,240,960,0.0,64.0
796,56.0,0,1200,0.0,64.0
797,56.0,240,240,0.0,64.0
798,55.0,240,240,0.0,64.0
799,53.0,240,240,0.0,64.0
800,85.0,0,960,0.0,64.0
801,58.0,240,1200,0.0,64.0
802,61.0,240,240,0.0,64.0
803,60.0,240,240,0.0,64.0
804,58.0,240,240,0.0,64.0
805,76.0,240,960,0.0,64.0
806,55.0,240,0,0.0,64.0
807,53.0,240,240,0.0,64.0
808,51.0,240,240,0.0,64.0
809,84.0,0,480,0.0,64.0
810,56.0,240,0,0.0,64.0
811,55.0,240,240,0.0,64.0
812,53.0,240,240,0.0,64.0
813,50.0,240,960,0.0,64.0
814,83.0,0,960,0.0,64.0
815,52.0,240,240,0.0,64.0
816,50.0,240,240,0.0,64.0
817,55.0,0,960,0.0,64.0
818,82.0,240,960,0.0,64.0
819,48.0,240,240,0.0,64.0
820,53.0,0,240,0.0,64.0
821,60.0,240,240,0.0,64.0
822,62.0,240,240,0.0,64.0
823,64.0,240,240,0.0,64.0
824,81.0,0,960,0.0,64.0
825,53.0,240,0,0.0,64.0
826,55.0,240,240,0.0,64.0
827,56.0,240,240,0.0,64.0
828,65.0,0,1200,0.0,64.0
829,80.0,240,1440,0.0,64.0
830,65.0,240,240,0.0,64.0
831,67.0,0,240,0.0,64.0
832,68.0,240,240,0.0,64.0
833,79.0,240,480,0.0,64.0
834,70.0,240,240,0.0,64.0
835,72.0,240,240,0.0,64.0
836,78.0,0,480,0.0,64.0
837,73.0,240,240,0.0,64.0
838,77.0,0,480,0.0,64.0
839,70.0,240,240,0.0,64.0
840,58.0,240,2160,0.0,64.0
841,55.0,240,240,0.0,64.0
842,76.0,240,480,0.0,64.0
843,56.0,240,240,0.0,64.0
844,74.0,0,240,0.0,64.0
845,72.0,0,240,0.0,64.0
846,58.0,240,240,0.0,64.0
847,56.0,0,240,0.0,64.0
848,55.0,240,240,0.0,64.0
849,77.0,240,480,0.0,64.0
850,53.0,240,240,0.0,64.0
851,52.0,240,240,0.0,64.0
852,82.0,0,480,0.0,64.0
853,53.0,0,240,0.0,64.0
854,52.0,240,240,0.0,64.0
855,53.0,240,240,0.0,64.0
856,71.0,0,480,0.0,64.0
857,55.0,240,240,0.0,64.0
858,80.0,240,960,0.0,64.0
859,80.0,0,120,0.0,64.0
860,53.0,0,240,0.0,64.0
861,79.0,120,120,0.0,64.0
862,72.0,240,240,0.0,64.0
863,80.0,0,120,0.0,64.0
864,51.0,0,240,0.0,64.0
865,74.0,120,240,0.0,64.0
866,79.0,120,120,0.0,64.0
867,80.0,0,120,0.0,64.0
868,50.0,0,240,0.0,64.0
869,79.0,120,120,0.0,64.0
870,78.0,0,120,0.0,64.0
871,79.0,120,120,0.0,64.0
872,48.0,120,240,0.0,64.0
873,50.0,120,240,0.0,64.0
874,75.0,120,720,0.0,64.0
875,57.0,240,240,0.0,64.0
876,78.0,0,480,0.0,64.0
877,72.0,0,240,0.0,64.0
878,75.0,0,240,0.0,64.0
879,58.0,240,240,0.0,64.0
880,74.0,0,240,0.0,64.0
881,66.0,0,480,0.0,64.0
882,60.0,240,240,0.0,64.0
883,58.0,0,240,0.0,64.0
884,79.0,240,480,0.0,64.0
885,57.0,240,240,0.0,64.0
886,55.0,0,240,0.0,64.0
887,54.0,240,240,0.0,64.0
888,84.0,240,480,0.0,64.0
889,75.0,0,480,0.0,64.0
890,55.0,240,240,0.0,64.0
891,57.0,240,240,0.0,64.0
892,74.0,0,480,0.0,64.0
893,83.0,0,480,0.0,64.0
894,58.0,240,240,0.0,64.0
895,82.0,0,480,0.0,64.0
896,60.0,240,240,0.0,64.0
897,62.0,0,240,0.0,64.0
898,81.0,240,480,0.0,64.0
899,79.0,0,960,0.0,64.0
900,63.0,240,240,0.0,64.0
901,62.0,240,240,0.0,64.0
902,60.0,240,240,0.0,64.0
903,80.0,0,480,0.0,64.0
904,59.0,240,240,0.0,64.0
905,55.0,240,240,0.0,64.0
906,77.0,0,960,0.0,64.0
907,57.0,240,240,0.0,64.0
908,75.0,0,240,0.0,64.0
909,59.0,240,240,0.0,64.0
910,74.0,0,240,0.0,64.0
911,79.0,240,0,0.0,64.0
912,60.0,240,480,0.0,64.0
913,81.0,0,240,0.0,64.0
914,48.0,240,480,0.0,64.0
915,82.0,240,240,0.0,64.0
916,81.0,0,240,0.0,64.0
917,53.0,240,480,0.0,64.0
918,79.0,240,240,0.0,64.0
919,75.0,0,1680,0.0,64.0
920,57.0,240,480,0.0,64.0
921,73.0,240,240,0.0,64.0
922,77.0,0,720,0.0,64.0
923,58.0,240,480,0.0,64.0
924,77.0,240,240,0.0,64.0
925,79.0,240,240,0.0,64.0
926,46.0,0,480,0.0,64.0
927,80.0,240,240,0.0,64.0
928,79.0,0,240,0.0,64.0
929,51.0,240,480,0.0,64.0
930,77.0,240,240,0.0,64.0
931,74.0,0,1680,0.0,64.0
932,59.0,240,240,0.0,64.0
933,55.0,0,480,0.0,64.0
934,60.0,240,240,0.0,64.0
935,75.0,240,720,0.0,64.0
936,63.0,240,240,0.0,64.0
937,72.0,0,240,0.0,64.0
938,74.0,240,240,0.0,64.0
939,65.0,0,240,0.0,64.0
940,67.0,0,240,0.0,64.0
941,75.0,240,240,0.0,64.0
942,65.0,240,240,0.0,64.0
943,74.0,0,240,0.0,64.0
944,56.0,0,1440,0.0,64.0
945,63.0,0,240,0.0,64.0
946,72.0,240,240,0.0,64.0
947,62.0,240,240,0.0,64.0
948,57.0,0,480,0.0,64.0
949,60.0,240,240,0.0,64.0
950,77.0,0,720,0.0,64.0
951,62.0,0,240,0.0,64.0
952,74.0,240,240,0.0,64.0
953,65.0,0,240,0.0,64.0
954,75.0,240,240,0.0,64.0
955,67.0,0,240,0.0,64.0
956,77.0,240,240,0.0,64.0
957,68.0,0,240,0.0,64.0
958,67.0,240,240,0.0,64.0
959,75.0,0,240,0.0,64.0
960,58.0,240,1440,0.0,64.0
961,65.0,240,240,0.0,64.0
962,74.0,0,240,0.0,64.0
963,63.0,240,240,0.0,64.0
964,59.0,0,480,0.0,64.0
965,62.0,240,240,0.0,64.0
966,79.0,0,720,0.0,64.0
967,63.0,0,240,0.0,64.0
968,75.0,240,240,0.0,64.0
969,60.0,240,480,0.0,64.0
970,67.0,0,240,0.0,64.0
971,69.0,0,240,0.0,64.0
972,77.0,240,240,0.0,64.0
973,74.0,0,240,0.0,64.0
974,71.0,240,240,0.0,64.0
975,72.0,0,160,0.0,64.0
976,67.0,160,160,0.0,64.0
977,72.0,160,160,0.0,64.0
978,75.0,160,0,0.0,64.0
979,72.0,160,160,0.0,64.0
980,75.0,160,160,0.0,64.0
981,48.0,0,960,0.0,64.0
982,79.0,0,160,0.0,64.0
983,73.0,160,160,0.0,64.0
984,72.0,160,160,0.0,64.0
985,70.0,160,160,0.0,64.0
986,68.0,160,160,0.0,64.0
987,67.0,160,160,0.0,64.0
988,52.0,160,960,0.0,64.0
989,72.0,160,160,0.0,64.0
990,68.0,160,480,0.0,64.0
991,77.0,160,160,0.0,64.0
992,80.0,160,160,0.0,64.0
993,77.0,160,160,0.0,64.0
994,53.0,0,960,0.0,64.0
995,80.0,160,160,0.0,64.0
996,84.0,0,160,0.0,64.0
997,78.0,160,160,0.0,64.0
998,77.0,160,160,0.0,64.0
999,75.0,160,160,0.0,64.0
1000,73.0,160,160,0.0,64.0
1001,57.0,160,960,0.0,64.0
1002,72.0,160,160,0.0,64.0
1003,65.0,160,160,0.0,64.0
1004,73.0,160,0,0.0,64.0
1005,70.0,160,160,0.0,64.0
1006,70.0,160,160,0.0,64.0
1007,46.0,160,960,0.0,64.0
1008,73.0,160,160,0.0,64.0
1009,77.0,160,160,0.0,64.0
1010,71.0,160,160,0.0,64.0
1011,70.0,160,160,0.0,64.0
1012,68.0,160,160,0.0,64.0
1013,66.0,160,160,0.0,64.0
1014,65.0,160,160,0.0,64.0
1015,50.0,0,960,0.0,64.0
1016,70.0,160,160,0.0,64.0
1017,75.0,160,160,0.0,64.0
1018,66.0,160,480,0.0,64.0
1019,78.0,160,160,0.0,64.0
1020,75.0,160,160,0.0,64.0
1021,51.0,0,960,0.0,64.0
1022,78.0,160,160,0.0,64.0
1023,82.0,160,160,0.0,64.0
1024,76.0,160,160,0.0,64.0
1025,75.0,160,160,0.0,64.0
1026,73.0,160,160,0.0,64.0
1027,71.0,160,160,0.0,64.0
1028,55.0,0,960,0.0,64.0
1029,70.0,160,160,0.0,64.0
1030,71.0,0,480,0.0,64.0
1031,44.0,160,480,0.0,64.0
1032,68.0,240,480,0.0,64.0
1033,46.0,240,480,0.0,64.0
1034,67.0,240,240,0.0,64.0
1035,68.0,240,240,0.0,64.0
1036,63.0,240,240,0.0,64.0
1037,48.0,0,480,0.0,64.0
1038,68.0,240,240,0.0,64.0
1039,50.0,0,480,0.0,64.0
1040,65.0,240,720,0.0,64.0
1041,67.0,0,480,0.0,64.0
1042,51.0,240,480,0.0,64.0
1043,63.0,240,480,0.0,64.0
1044,62.0,240,240,0.0,64.0
1045,53.0,240,480,0.0,64.0
1046,63.0,240,240,0.0,64.0
1047,54.0,0,480,0.0,64.0
1048,58.0,240,240,0.0,64.0
1049,60.0,0,480,0.0,64.0
1050,45.0,240,480,0.0,64.0
1051,66.0,240,240,0.0,64.0
1052,61.0,0,240,0.0,64.0
1053,65.0,240,240,0.0,64.0
1054,46.0,0,480,0.0,64.0
1055,70.0,240,480,0.0,64.0
1056,48.0,240,480,0.0,64.0
1057,69.0,240,240,0.0,64.0
1058,70.0,0,240,0.0,64.0
1059,65.0,240,240,0.0,64.0
1060,50.0,240,480,0.0,64.0
1061,70.0,240,240,0.0,64.0
1062,52.0,0,480,0.0,64.0
1063,67.0,240,720,0.0,64.0
1064,69.0,240,480,0.0,64.0
1065,53.0,0,480,0.0,64.0
1066,65.0,240,480,0.0,64.0
1067,64.0,240,240,0.0,64.0
1068,55.0,240,480,0.0,64.0
1069,65.0,240,240,0.0,64.0
1070,60.0,240,240,0.0,64.0
1071,56.0,0,480,0.0,64.0
1072,62.0,0,480,0.0,64.0
1073,47.0,240,480,0.0,64.0
1074,68.0,240,240,0.0,64.0
1075,63.0,240,160,0.0,64.0
1076,60.0,160,160,0.0,64.0
1077,67.0,0,480,0.0,64.0
1078,63.0,160,160,0.0,64.0
1079,67.0,160,160,0.0,64.0
1080,63.0,160,160,0.0,64.0
1081,67.0,160,160,0.0,64.0
1082,48.0,0,960,0.0,64.0
1083,79.0,240,240,0.0,64.0
1084,77.0,240,240,0.0,64.0
1085,51.0,0,960,0.0,64.0
1086,75.0,240,240,0.0,64.0
1087,72.0,160,1120,0.0,64.0
1088,71.0,160,160,0.0,64.0
1089,74.0,0,480,0.0,64.0
1090,69.0,160,160,0.0,64.0
1091,71.0,160,160,0.0,64.0
1092,74.0,160,160,0.0,64.0
1093,79.0,160,160,0.0,64.0
1094,55.0,240,960,0.0,64.0
1095,75.0,240,240,0.0,64.0
1096,74.0,240,240,0.0,64.0
1097,56.0,0,960,0.0,64.0
1098,72.0,240,240,0.0,64.0
1099,74.0,240,240,0.0,64.0
1100,67.0,240,240,0.0,64.0
1101,68.0,240,240,0.0,64.0
1102,65.0,240,240,0.0,64.0
1103,47.0,0,960,0.0,64.0
1104,77.0,160,2160,0.0,64.0
1105,67.0,240,480,0.0,64.0
1106,74.0,240,240,0.0,64.0
1107,79.0,240,240,0.0,64.0
1108,55.0,0,480,0.0,64.0
1109,81.0,240,240,0.0,64.0
1110,75.0,240,720,0.0,64.0
1111,83.0,0,240,0.0,64.0
1112,74.0,240,240,0.0,64.0
1113,75.0,0,240,0.0,64.0
1114,72.0,240,240,0.0,64.0
1115,54.0,0,960,0.0,64.0
1116,84.0,240,720,0.0,64.0
1117,81.0,240,240,0.0,64.0
1118,83.0,240,240,0.0,64.0
1119,86.0,240,240,0.0,64.0
1120,53.0,0,960,0.0,64.0
1121,74.0,240,1200,0.0,64.0
1122,72.0,240,240,0.0,64.0
1123,73.0,240,240,0.0,64.0
1124,52.0,240,960,0.0,64.0
1125,71.0,240,240,0.0,64.0
1126,79.0,0,1200,0.0,64.0
1127,78.0,240,240,0.0,64.0
1128,72.0,0,720,0.0,64.0
1129,70.0,240,240,0.0,64.0
1130,79.0,240,720,0.0,64.0
1131,51.0,240,1440,0.0,64.0
1132,72.0,240,240,0.0,64.0
1133,77.0,240,240,0.0,64.0
1134,76.0,240,240,0.0,64.0
1135,50.0,0,480,0.0,64.0
1136,69.0,240,1200,0.0,64.0
1137,49.0,240,480,0.0,64.0
1138,67.0,240,240,0.0,64.0
1139,68.0,240,240,0.0,64.0
1140,48.0,0,480,0.0,64.0
1141,65.0,240,240,0.0,64.0
1142,77.0,0,1200,0.0,64.0
1143,47.0,0,480,0.0,64.0
1144,74.0,240,240,0.0,64.0
1145,75.0,240,240,0.0,64.0
1146,45.0,0,240,0.0,64.0
1147,43.0,0,240,0.0,64.0
1148,77.0,240,240,0.0,64.0
1149,75.0,0,240,0.0,64.0
1150,74.0,240,240,0.0,64.0
1151,48.0,240,480,0.0,64.0
1152,72.0,240,240,0.0,64.0
1153,71.0,240,240,0.0,64.0
1154,53.0,0,480,0.0,64.0
1155,72.0,240,240,0.0,64.0
1156,71.0,240,240,0.0,64.0
1157,67.0,240,2400,0.0,64.0
1158,72.0,240,240,0.0,64.0
1159,51.0,0,960,0.0,64.0
1160,74.0,240,240,0.0,64.0
1161,51.0,240,120,0.0,64.0
1162,72.0,0,240,0.0,64.0
1163,50.0,120,120,0.0,64.0
1164,51.0,120,120,0.0,64.0
1165,50.0,120,120,0.0,64.0
1166,70.0,0,240,0.0,64.0
1167,78.0,0,960,0.0,64.0
1168,51.0,0,120,0.0,64.0
1169,50.0,120,120,0.0,64.0
1170,69.0,120,240,0.0,64.0
1171,49.0,120,120,0.0,64.0
1172,67.0,0,240,0.0,64.0
1173,50.0,120,120,0.0,64.0
1174,79.0,0,720,0.0,64.0
1175,76.0,240,240,0.0,64.0
1176,49.0,0,480,0.0,64.0
1177,47.0,240,240,0.0,64.0
1178,77.0,0,240,0.0,64.0
1179,79.0,0,240,0.0,64.0
1180,45.0,240,240,0.0,64.0
1181,77.0,240,240,0.0,64.0
1182,50.0,0,480,0.0,64.0
1183,69.0,120,1440,0.0,64.0
1184,76.0,240,240,0.0,64.0
1185,74.0,240,240,0.0,64.0
1186,73.0,240,240,0.0,64.0
1187,82.0,0,480,0.0,64.0
1188,55.0,0,480,0.0,64.0
1189,74.0,0,240,0.0,64.0
1190,81.0,240,480,0.0,64.0
1191,54.0,0,480,0.0,64.0
1192,72.0,240,240,0.0,64.0
1193,70.0,0,240,0.0,64.0
1194,53.0,0,480,0.0,64.0
1195,69.0,240,240,0.0,64.0
1196,67.0,0,240,0.0,64.0
1197,52.0,240,480,0.0,64.0
1198,70.0,240,240,0.0,64.0
1199,74.0,240,960,0.0,64.0
1200,68.0,240,240,0.0,64.0
1201,51.0,0,480,0.0,64.0
1202,67.0,240,240,0.0,64.0
1203,72.0,0,720,0.0,64.0
1204,69.0,240,240,0.0,64.0
1205,66.0,0,480,0.0,64.0
1206,70.0,240,240,0.0,64.0
1207,67.0,240,240,0.0,64.0
1208,62.0,0,480,0.0,64.0
1209,64.0,0,240,0.0,64.0
1210,61.0,240,480,0.0,64.0
1211,70.0,240,240,0.0,64.0
1212,69.0,240,240,0.0,64.0
1213,60.0,0,480,0.0,64.0
1214,63.0,240,240,0.0,64.0
1215,59.0,240,240,0.0,64.0
1216,57.0,240,240,0.0,64.0
1217,62.0,0,480,0.0,64.0
1218,58.0,0,240,0.0,64.0
1219,74.0,240,480,0.0,64.0
1220,67.0,240,240,0.0,64.0
1221,57.0,240,240,0.0,64.0
1222,73.0,0,480,0.0,64.0
1223,67.0,240,240,0.0,64.0
1224,66.0,0,240,0.0,64.0
1225,72.0,240,480,0.0,64.0
1226,57.0,240,240,0.0,64.0
1227,71.0,240,240,0.0,64.0
1228,50.0,240,4320,0.0,64.0
1229,69.0,240,240,0.0,64.0
1230,55.0,0,720,0.0,64.0
1231,50.0,240,480,0.0,64.0
1232,54.0,240,240,0.0,64.0
1233,70.0,0,720,0.0,64.0
1234,69.0,240,240,0.0,64.0
1235,49.0,0,480,0.0,64.0
1236,55.0,240,720,0.0,64.0
1237,48.0,0,480,0.0,64.0
1238,66.0,240,240,0.0,64.0
1239,47.0,240,240,0.0,64.0
1240,75.0,240,720,0.0,64.0
1241,74.0,240,240,0.0,64.0
1242,45.0,0,240,0.0,64.0
1243,46.0,0,240,0.0,64.0
1244,67.0,0,720,0.0,64.0
1245,79.0,240,480,0.0,64.0
1246,55.0,240,240,0.0,64.0
1247,75.0,0,240,0.0,64.0
1248,45.0,240,240,0.0,64.0
1249,74.0,0,240,0.0,64.0
1250,55.0,0,240,0.0,64.0
1251,73.0,240,240,0.0,64.0
1252,81.0,0,240,0.0,64.0
1253,50.0,240,240,0.0,64.0
1254,72.0,0,240,0.0,64.0
1255,54.0,0,240,0.0,64.0
1256,69.0,0,0,0.0,64.0
1257,72.0,240,240,0.0,64.0
1258,67.0,240,240,0.0,64.0
1259,71.0,0,240,0.0,64.0
1260,43.0,0,480,0.0,64.0
1261,58.0,240,480,0.0,64.0
1262,52.0,480,480,0.0,64.0
1263,73.0,0,240,0.0,64.0
1264,70.0,240,240,0.0,64.0
1265,68.0,0,240,0.0,64.0
1266,72.0,0,240,0.0,64.0
1267,55.0,240,480,0.0,64.0
1268,70.0,0,240,0.0,64.0
1269,67.0,240,240,0.0,64.0
1270,48.0,240,480,0.0,64.0
1271,70.0,240,240,0.0,64.0
1272,61.0,0,240,0.0,64.0
1273,68.0,0,240,0.0,64.0
1274,50.0,240,240,0.0,64.0
1275,60.0,0,240,0.0,64.0
1276,67.0,240,240,0.0,64.0
1277,58.0,0,240,0.0,64.0
1278,52.0,0,240,0.0,64.0
1279,53.0,240,240,0.0,64.0
1280,52.0,0,240,0.0,64.0
1281,58.0,0,240,0.0,64.0
1282,67.0,240,240,0.0,64.0
1283,65.0,0,240,0.0,64.0
1284,56.0,0,240,0.0,64.0
1285,64.0,240,240,0.0,64.0
1286,55.0,240,0,0.0,64.0
1287,64.0,0,240,0.0,64.0
1288,56.0,240,240,0.0,64.0
1289,65.0,0,240,0.0,64.0
1290,53.0,240,960,0.0,64.0
1291,74.0,240,240,0.0,64.0
1292,56.0,240,480,0.0,64.0
1293,71.0,0,240,0.0,64.0
1294,71.0,240,240,0.0,64.0
1295,50.0,240,480,0.0,64.0
1296,77.0,0,240,0.0,64.0
1297,74.0,0,240,0.0,64.0
1298,53.0,240,480,0.0,64.0
1299,71.0,240,240,0.0,64.0
1300,80.0,240,240,0.0,64.0
1301,46.0,240,480,0.0,64.0
1302,84.0,0,240,0.0,64.0
1303,82.0,240,240,0.0,64.0
1304,48.0,0,240,0.0,64.0
1305,79.0,0,240,0.0,64.0
1306,50.0,0,240,0.0,64.0
1307,77.0,0,240,0.0,64.0
1308,80.0,240,240,0.0,64.0
1309,51.0,240,240,0.0,64.0
1310,80.0,0,240,0.0,64.0
1311,50.0,240,240,0.0,64.0
1312,77.0,0,240,0.0,64.0
1313,79.0,0,240,0.0,64.0
1314,75.0,0,240,0.0,64.0
1315,74.0,240,240,0.0,64.0
1316,77.0,0,0,0.0,64.0
1317,51.0,240,720,0.0,64.0
1318,74.0,240,240,0.0,64.0
1319,79.0,240,240,0.0,64.0
1320,75.0,0,240,0.0,64.0
1321,50.0,0,240,0.0,64.0
1322,51.0,240,240,0.0,64.0
1323,72.0,0,240,0.0,64.0
1324,72.0,0,0,0.0,64.0
1325,53.0,0,240,0.0,64.0
1326,51.0,0,240,0.0,64.0
1327,71.0,0,240,0.0,64.0
1328,50.0,0,240,0.0,64.0
1329,48.0,240,240,0.0,64.0
1330,68.0,0,240,0.0,64.0
1331,47.0,240,240,0.0,64.0
1332,48.0,0,240,0.0,64.0
1333,68.0,240,240,0.0,64.0
1334,67.0,0,240,0.0,64.0
1335,77.0,0,960,0.0,64.0
1336,47.0,240,240,0.0,64.0
1337,75.0,240,240,0.0,64.0
1338,48.0,0,240,0.0,64.0
1339,68.0,240,0,0.0,64.0
1340,49.0,0,240,0.0,64.0
1341,48.0,0,240,0.0,64.0
1342,46.0,240,240,0.0,64.0
1343,67.0,0,240,0.0,64.0
1344,44.0,0,240,0.0,64.0
1345,43.0,240,240,0.0,64.0
1346,70.0,0,240,0.0,64.0
1347,70.0,240,240,0.0,64.0
1348,44.0,0,480,0.0,64.0
1349,73.0,240,960,0.0,64.0
1350,63.0,240,240,0.0,64.0
1351,72.0,240,240,0.0,64.0
1352,75.0,240,240,0.0,64.0
1353,48.0,0,480,0.0,64.0
1354,68.0,0,480,0.0,64.0
1355,74.0,240,240,0.0,64.0
1356,73.0,240,240,0.0,64.0
1357,51.0,0,480,0.0,64.0
1358,72.0,240,240,0.0,64.0
1359,53.0,0,480,0.0,64.0
1360,62.0,240,0,0.0,64.0
1361,71.0,240,240,0.0,64.0
1362,71.0,0,240,0.0,64.0
1363,43.0,0,480,0.0,64.0
1364,63.0,240,240,0.0,64.0
1365,70.0,0,240,0.0,64.0
1366,70.0,240,240,0.0,64.0
1367,46.0,240,480,0.0,64.0
1368,69.0,0,240,0.0,64.0
1369,50.0,240,480,0.0,64.0
1370,68.0,240,240,0.0,64.0
1371,67.0,240,240,0.0,64.0
1372,75.0,0,240,0.0,64.0
1373,66.0,240,240,0.0,64.0
1374,51.0,0,480,0.0,64.0
1375,66.0,0,240,0.0,64.0
1376,75.0,240,240,0.0,64.0
1377,41.0,0,480,0.0,64.0
1378,65.0,240,240,0.0,64.0
1379,74.0,0,240,0.0,64.0
1380,68.0,0,240,0.0,64.0
1381,44.0,240,480,0.0,64.0
1382,60.0,240,240,0.0,64.0
1383,67.0,240,240,0.0,64.0
1384,59.0,0,240,0.0,64.0
1385,66.0,0,240,0.0,64.0
1386,58.0,240,240,0.0,64.0
1387,48.0,0,480,0.0,64.0
1388,57.0,240,240,0.0,64.0
1389,65.0,0,240,0.0,64.0
1390,50.0,0,480,0.0,64.0
1391,64.0,0,0,0.0,64.0
1392,56.0,240,0,0.0,64.0
1393,39.0,0,480,0.0,64.0
1394,55.0,0,240,0.0,64.0
1395,63.0,240,240,0.0,64.0
1396,55.0,240,480,0.0,64.0
1397,51.0,0,480,0.0,64.0
1398,63.0,240,240,0.0,64.0
1399,64.0,0,240,0.0,64.0
1400,56.0,240,480,0.0,64.0
1401,50.0,0,480,0.0,64.0
1402,65.0,240,240,0.0,64.0
1403,66.0,0,240,0.0,64.0
1404,67.0,240,240,0.0,64.0
1405,58.0,0,480,0.0,64.0
1406,49.0,240,480,0.0,64.0
1407,68.0,240,240,0.0,64.0
1408,51.0,0,480,0.0,64.0
1409,48.0,0,480,0.0,64.0
1410,67.0,240,240,0.0,64.0
1411,66.0,0,240,0.0,64.0
1412,60.0,240,240,0.0,64.0
1413,65.0,0,240,0.0,64.0
1414,44.0,240,480,0.0,64.0
1415,61.0,240,240,0.0,64.0
1416,62.0,240,240,0.0,64.0
1417,43.0,0,480,0.0,64.0
1418,63.0,240,240,0.0,64.0
1419,42.0,0,480,0.0,64.0
1420,64.0,240,240,0.0,64.0
1421,70.0,0,1200,0.0,64.0
1422,65.0,0,240,0.0,64.0
1423,41.0,240,480,0.0,64.0
1424,64.0,0,240,0.0,64.0
1425,67.0,240,240,0.0,64.0
1426,65.0,0,240,0.0,64.0
1427,68.0,240,240,0.0,64.0
1428,65.0,0,240,0.0,64.0
1429,56.0,240,240,0.0,64.0
1430,53.0,0,480,0.0,64.0
1431,66.0,0,240,0.0,64.0
1432,58.0,240,480,0.0,64.0
1433,67.0,240,240,0.0,64.0
1434,52.0,0,480,0.0,64.0
1435,68.0,240,240,0.0,64.0
1436,51.0,0,480,0.0,64.0
1437,60.0,0,480,0.0,64.0
1438,69.0,240,240,0.0,64.0
1439,70.0,0,240,0.0,64.0
1440,69.0,240,240,0.0,64.0
1441,53.0,0,480,0.0,64.0
1442,50.0,240,480,0.0,64.0
1443,68.0,240,240,0.0,64.0
1444,62.0,240,240,0.0,64.0
1445,46.0,0,480,0.0,64.0
1446,67.0,0,240,0.0,64.0
1447,63.0,240,240,0.0,64.0
1448,64.0,240,240,0.0,64.0
1449,45.0,0,480,0.0,64.0
1450,65.0,240,240,0.0,64.0
1451,44.0,0,480,0.0,64.0
1452,66.0,240,240,0.0,64.0
1453,67.0,0,240,0.0,64.0
1454,72.0,0,1200,0.0,64.0
1455,69.0,0,240,0.0,64.0
1456,43.0,240,480,0.0,64.0
1457,66.0,240,240,0.0,64.0
1458,67.0,0,480,0.0,64.0
1459,55.0,240,480,0.0,64.0
1460,70.0,0,480,0.0,64.0
1461,54.0,480,480,0.0,64.0
1462,62.0,240,240,0.0,64.0
1463,53.0,480,480,0.0,64.0
1464,61.0,240,240,0.0,64.0
1465,52.0,0,480,0.0,64.0
1466,60.0,240,240,0.0,64.0
1467,59.0,0,240,0.0,64.0
1468,67.0,0,480,0.0,64.0
1469,58.0,240,240,0.0,64.0
1470,57.0,0,240,0.0,64.0
1471,58.0,240,240,0.0,64.0
1472,51.0,240,960,0.0,64.0
1473,66.0,240,480,0.0,64.0
1474,59.0,240,240,0.0,64.0
1475,50.0,0,240,0.0,64.0
1476,48.0,240,240,0.0,64.0
1477,60.0,0,240,0.0,64.0
1478,47.0,240,240,0.0,64.0
1479,45.0,240,120,0.0,64.0
1480,65.0,0,960,0.0,64.0
1481,62.0,0,480,0.0,64.0
1482,43.0,120,120,0.0,64.0
1483,48.0,0,240,0.0,64.0
1484,63.0,120,240,0.0,64.0
1485,53.0,240,240,0.0,64.0
1486,62.0,0,240,0.0,64.0
1487,63.0,0,160,0.0,64.0
1488,65.0,160,160,0.0,64.0
1489,67.0,160,160,0.0,64.0
1490,51.0,240,480,0.0,64.0
1491,60.0,0,960,0.0,64.0
1492,65.0,160,160,0.0,64.0
1493,63.0,160,160,0.0,64.0
1494,62.0,160,160,0.0,64.0
1495,59.0,0,480,0.0,64.0
1496,50.0,0,480,0.0,64.0
1497,48.0,0,240,0.0,64.0
1498,60.0,0,480,0.0,64.0
1499,50.0,240,240,0.0,64.0
1500,51.0,0,240,0.0,64.0
1501,48.0,240,240,0.0,64.0
1502,72.0,240,480,0.0,64.0
1503,68.0,0,480,0.0,64.0
1504,49.0,240,240,0.0,64.0
1505,67.0,240,120,0.0,64.0
1506,50.0,0,240,0.0,64.0
1507,65.0,120,120,0.0,64.0
1508,71.0,0,480,0.0,64.0
1509,51.0,120,240,0.0,64.0
1510,52.0,240,240,0.0,64.0
1511,70.0,0,480,0.0,64.0
1512,53.0,240,240,0.0,64.0
1513,67.0,0,720,0.0,64.0
1514,65.0,240,120,0.0,64.0
1515,48.0,0,240,0.0,64.0
1516,63.0,120,120,0.0,64.0
1517,69.0,0,480,0.0,64.0
1518,53.0,0,240,0.0,64.0
1519,62.0,120,240,0.0,64.0
1520,60.0,0,240,0.0,64.0
1521,51.0,240,240,0.0,64.0
1522,50.0,240,240,0.0,64.0
1523,48.0,240,240,0.0,64.0
1524,59.0,0,480,0.0,64.0
1525,68.0,0,960,0.0,64.0
1526,67.0,0,240,0.0,64.0
1527,49.0,240,240,0.0,64.0
1528,46.0,240,240,0.0,64.0
1529,65.0,0,240,0.0,64.0
1530,64.0,0,240,0.0,64.0
1531,62.0,240,120,0.0,64.0
1532,58.0,0,960,0.0,64.0
1533,60.0,120,120,0.0,64.0
1534,65.0,0,240,0.0,64.0
1535,56.0,120,240,0.0,64.0
1536,70.0,240,240,0.0,64.0
1537,55.0,0,240,0.0,64.0
1538,48.0,240,1120,0.0,64.0
1539,46.0,160,160,0.0,64.0
1540,48.0,160,160,0.0,64.0
1541,68.0,240,480,0.0,64.0
1542,53.0,0,480,0.0,64.0
1543,49.0,160,160,0.0,64.0
1544,48.0,160,160,0.0,64.0
1545,52.0,0,480,0.0,64.0
1546,67.0,0,480,0.0,64.0
1547,46.0,160,160,0.0,64.0
1548,65.0,0,160,0.0,64.0
1549,67.0,160,160,0.0,64.0
1550,68.0,160,160,0.0,64.0
1551,53.0,0,480,0.0,64.0
1552,44.0,160,480,0.0,64.0
1553,70.0,160,160,0.0,64.0
1554,68.0,160,160,0.0,64.0
1555,48.0,0,480,0.0,64.0
1556,67.0,80,160,0.0,64.0
1557,64.0,80,240,0.0,64.0
1558,68.0,0,160,0.0,64.0
1559,70.0,160,160,0.0,64.0
1560,72.0,160,160,0.0,64.0
1561,65.0,0,480,0.0,64.0
1562,73.0,160,160,0.0,64.0
1563,72.0,160,160,0.0,64.0
1564,70.0,80,160,0.0,64.0
1565,67.0,80,240,0.0,64.0
1566,41.0,160,1200,0.0,64.0
1567,72.0,0,480,0.0,64.0
1568,68.0,160,480,0.0,64.0
1569,43.0,240,240,0.0,64.0
1570,44.0,0,240,0.0,64.0
1571,46.0,0,240,0.0,64.0
1572,68.0,240,240,0.0,64.0
1573,48.0,0,240,0.0,64.0
1574,77.0,240,960,0.0,64.0
1575,67.0,240,480,0.0,64.0
1576,44.0,240,240,0.0,64.0
1577,46.0,0,240,0.0,64.0
1578,48.0,240,240,0.0,64.0
1579,66.0,0,480,0.0,64.0
1580,75.0,240,720,0.0,64.0
1581,65.0,0,480,0.0,64.0
1582,73.0,240,240,0.0,64.0
1583,49.0,240,480,0.0,64.0
1584,72.0,0,240,0.0,64.0
1585,51.0,0,480,0.0,64.0
1586,70.0,240,240,0.0,64.0
1587,53.0,240,240,0.0,64.0
1588,68.0,0,240,0.0,64.0
1589,51.0,240,240,0.0,64.0
1590,71.0,0,240,0.0,64.0
1591,63.0,240,960,0.0,64.0
1592,70.0,0,240,0.0,64.0
1593,53.0,240,480,0.0,64.0
1594,68.0,240,240,0.0,64.0
1595,62.0,0,480,0.0,64.0
1596,51.0,240,240,0.0,64.0
1597,70.0,0,480,0.0,64.0
1598,67.0,0,480,0.0,64.0
1599,41.0,240,240,0.0,64.0
1600,42.0,0,240,0.0,64.0
1601,44.0,0,240,0.0,64.0
1602,66.0,240,240,0.0,64.0
1603,46.0,0,240,0.0,64.0
1604,75.0,240,960,0.0,64.0
1605,43.0,240,240,0.0,64.0
1606,65.0,240,480,0.0,64.0
1607,44.0,240,240,0.0,64.0
1608,46.0,240,240,0.0,64.0
1609,64.0,0,480,0.0,64.0
1610,73.0,0,720,0.0,64.0
1611,48.0,240,480,0.0,64.0
1612,63.0,0,480,0.0,64.0
1613,72.0,240,240,0.0,64.0
1614,70.0,240,240,0.0,64.0
1615,68.0,240,240,0.0,64.0
1616,49.0,0,480,0.0,64.0
1617,51.0,0,240,0.0,64.0
1618,66.0,240,240,0.0,64.0
1619,49.0,240,240,0.0,64.0
1620,69.0,0,240,0.0,64.0
1621,61.0,0,960,0.0,64.0
1622,68.0,240,240,0.0,64.0
1623,60.0,0,480,0.0,64.0
1624,66.0,240,240,0.0,64.0
1625,51.0,0,480,0.0,64.0
1626,49.0,0,240,0.0,64.0
1627,68.0,0,480,0.0,64.0
1628,65.0,240,480,0.0,64.0
1629,39.0,240,240,0.0,64.0
1630,40.0,0,240,0.0,64.0
1631,64.0,0,240,0.0,64.0
1632,42.0,240,240,0.0,64.0
1633,44.0,240,240,0.0,64.0
1634,41.0,240,240,0.0,64.0
1635,73.0,240,960,0.0,64.0
1636,43.0,0,240,0.0,64.0
1637,63.0,0,960,0.0,64.0
1638,45.0,240,240,0.0,64.0
1639,46.0,0,240,0.0,64.0
1640,62.0,240,480,0.0,64.0
1641,72.0,240,960,0.0,64.0
1642,44.0,240,240,0.0,64.0
1643,42.0,0,240,0.0,64.0
1644,41.0,240,240,0.0,64.0
1645,61.0,0,480,0.0,64.0
1646,40.0,240,240,0.0,64.0
1647,43.0,240,240,0.0,64.0
1648,70.0,240,960,0.0,64.0
1649,68.0,0,240,0.0,64.0
1650,41.0,240,240,0.0,64.0
1651,39.0,240,240,0.0,64.0
1652,67.0,0,240,0.0,64.0
1653,60.0,240,0,0.0,64.0
1654,37.0,240,480,0.0,64.0
1655,58.0,0,240,0.0,64.0
1656,65.0,0,960,0.0,64.0
1657,56.0,240,240,0.0,64.0
1658,41.0,240,480,0.0,64.0
1659,54.0,0,240,0.0,64.0
1660,46.0,240,480,0.0,64.0
1661,53.0,240,240,0.0,64.0
1662,52.0,0,240,0.0,64.0
1663,49.0,240,480,0.0,64.0
1664,53.0,240,240,0.0,64.0
1665,70.0,0,720,0.0,64.0
1666,68.0,240,240,0.0,64.0
1667,43.0,240,480,0.0,64.0
1668,67.0,240,240,0.0,64.0
1669,52.0,0,960,0.0,64.0
1670,65.0,240,240,0.0,64.0
1671,64.0,240,240,0.0,64.0
1672,48.0,0,720,0.0,64.0
1673,73.0,0,240,0.0,64.0
1674,46.0,240,240,0.0,64.0
1675,72.0,240,240,0.0,64.0
1676,44.0,0,240,0.0,64.0
1677,70.0,240,240,0.0,64.0
1678,43.0,0,240,0.0,64.0
1679,68.0,240,240,0.0,64.0
1680,67.0,240,240,0.0,64.0
1681,41.0,0,480,0.0,64.0
1682,65.0,0,240,0.0,64.0
1683,44.0,0,480,0.0,64.0
1684,67.0,240,240,0.0,64.0
1685,49.0,240,480,0.0,64.0
1686,64.0,240,240,0.0,64.0
1687,63.0,240,240,0.0,64.0
1688,62.0,240,240,0.0,64.0
1689,53.0,0,480,0.0,64.0
1690,68.0,0,1200,0.0,64.0
1691,61.0,240,480,0.0,64.0
1692,46.0,0,480,0.0,64.0
1693,72.0,240,240,0.0,64.0
1694,70.0,240,240,0.0,64.0
1695,55.0,0,480,0.0,64.0
1696,68.0,240,240,0.0,64.0
1697,51.0,0,720,0.0,64.0
1698,67.0,0,240,0.0,64.0
1699,58.0,240,480,0.0,64.0
1700,49.0,240,240,0.0,64.0
1701,77.0,0,240,0.0,64.0
1702,75.0,0,240,0.0,64.0
1703,48.0,240,240,0.0,64.0
1704,46.0,0,240,0.0,64.0
1705,73.0,240,240,0.0,64.0
1706,72.0,0,240,0.0,64.0
1707,44.0,240,480,0.0,64.0
1708,70.0,240,240,0.0,64.0
1709,68.0,0,240,0.0,64.0
1710,48.0,240,480,0.0,64.0
1711,70.0,0,240,0.0,64.0
1712,53.0,0,480,0.0,64.0
1713,68.0,240,240,0.0,64.0
1714,67.0,0,240,0.0,64.0
1715,56.0,240,480,0.0,64.0
1716,66.0,240,240,0.0,64.0
1717,65.0,0,240,0.0,64.0
1718,72.0,240,1440,0.0,64.0
1719,68.0,240,240,0.0,64.0
1720,50.0,240,480,0.0,64.0
1721,67.0,0,240,0.0,64.0
1722,71.0,0,480,0.0,64.0
1723,65.0,240,240,0.0,64.0
1724,63.0,240,240,0.0,64.0
1725,55.0,240,720,0.0,64.0
1726,53.0,0,240,0.0,64.0
1727,62.0,240,240,0.0,64.0
1728,60.0,240,240,0.0,64.0
1729,51.0,0,240,0.0,64.0
1730,59.0,240,240,0.0,64.0
1731,50.0,0,240,0.0,64.0
1732,60.0,0,240,0.0,64.0
1733,51.0,0,240,0.0,64.0
1734,48.0,240,240,0.0,64.0
1735,46.0,240,240,0.0,64.0
1736,44.0,240,240,0.0,64.0
1737,72.0,240,960,0.0,64.0
1738,43.0,240,240,0.0,64.0
1739,41.0,240,240,0.0,64.0
1740,71.0,0,240,0.0,64.0
1741,72.0,240,240,0.0,64.0
1742,39.0,0,240,0.0,64.0
1743,38.0,0,240,0.0,64.0
1744,74.0,240,240,0.0,64.0
1745,75.0,0,0,0.0,64.0
1746,36.0,240,240,0.0,64.0
1747,48.0,240,240,0.0,64.0
1748,50.0,0,240,0.0,64.0
1749,51.0,240,240,0.0,64.0
1750,79.0,0,960,0.0,64.0
1751,53.0,240,240,0.0,64.0
1752,55.0,240,240,0.0,64.0
1753,72.0,240,960,0.0,64.0
1754,56.0,240,240,0.0,64.0
1755,53.0,240,240,0.0,64.0
1756,80.0,0,960,0.0,64.0
1757,77.0,0,720,0.0,64.0
1758,55.0,0,480,0.0,64.0
1759,74.0,240,240,0.0,64.0
1760,75.0,0,240,0.0,64.0
1761,77.0,240,240,0.0,64.0
1762,71.0,240,960,0.0,64.0
1763,43.0,240,480,0.0,64.0
1764,48.0,240,240,0.0,64.0
1765,75.0,0,240,0.0,64.0
1766,50.0,240,240,0.0,64.0
1767,74.0,0,240,0.0,64.0
1768,72.0,240,240,0.0,64.0
1769,70.0,240,240,0.0,64.0
1770,79.0,0,480,0.0,64.0
1771,69.0,240,240,0.0,64.0
1772,72.0,240,240,0.0,64.0
1773,51.0,0,960,0.0,64.0
1774,74.0,240,240,0.0,64.0
1775,75.0,240,240,0.0,64.0
1776,45.0,0,480,0.0,64.0
1777,78.0,0,960,0.0,64.0
1778,74.0,240,240,0.0,64.0
1779,47.0,0,240,0.0,64.0
1780,48.0,240,240,0.0,64.0
1781,72.0,0,240,0.0,64.0
1782,71.0,0,240,0.0,64.0
1783,69.0,240,240,0.0,64.0
1784,77.0,0,960,0.0,64.0
1785,67.0,240,240,0.0,64.0
1786,71.0,240,240,0.0,64.0
1787,50.0,240,960,0.0,64.0
1788,72.0,0,240,0.0,64.0
1789,76.0,0,960,0.0,64.0
1790,74.0,240,240,0.0,64.0
1791,43.0,240,480,0.0,64.0
1792,45.0,0,240,0.0,64.0
1793,72.0,0,240,0.0,64.0
1794,70.0,240,240,0.0,64.0
1795,46.0,0,240,0.0,64.0
1796,69.0,0,240,0.0,64.0
1797,67.0,240,240,0.0,64.0
1798,48.0,240,720,0.0,64.0
1799,45.0,240,240,0.0,64.0
1800,66.0,240,480,0.0,64.0
1801,75.0,240,1440,0.0,64.0
1802,46.0,0,240,0.0,64.0
1803,74.0,0,480,0.0,64.0
1804,48.0,240,240,0.0,64.0
1805,46.0,0,240,0.0,64.0
1806,73.0,240,480,0.0,64.0
1807,67.0,240,960,0.0,64.0
1808,44.0,240,240,0.0,64.0
1809,43.0,0,240,0.0,64.0
1810,72.0,240,480,0.0,64.0
1811,42.0,240,240,0.0,64.0
1812,68.0,0,720,0.0,64.0
1813,62.0,240,240,0.0,64.0
1814,71.0,240,480,0.0,64.0
1815,43.0,0,480,0.0,64.0
1816,63.0,240,240,0.0,64.0
1817,69.0,0,240,0.0,64.0
1818,65.0,240,240,0.0,64.0
1819,67.0,0,240,0.0,64.0
1820,63.0,240,240,0.0,64.0
1821,62.0,240,240,0.0,64.0
1822,72.0,0,480,0.0,64.0
1823,60.0,0,240,0.0,64.0
1824,55.0,240,480,0.0,64.0
1825,59.0,240,240,0.0,64.0
1826,77.0,0,480,0.0,64.0
1827,60.0,0,240,0.0,64.0
1828,56.0,240,480,0.0,64.0
1829,65.0,240,240,0.0,64.0
1830,67.0,240,240,0.0,64.0
1831,53.0,0,480,0.0,64.0
1832,75.0,0,960,0.0,64.0
1833,68.0,240,480,0.0,64.0
1834,68.0,240,240,0.0,64.0
1835,74.0,0,480,0.0,64.0
1836,67.0,240,240,0.0,64.0
1837,65.0,240,240,0.0,64.0
1838,73.0,0,480,0.0,64.0
1839,72.0,0,240,0.0,64.0
1840,79.0,240,240,0.0,64.0
1841,58.0,240,1440,0.0,64.0
1842,80.0,240,240,0.0,64.0
1843,55.0,0,480,0.0,64.0
1844,64.0,240,960,0.0,64.0
1845,82.0,240,240,0.0,64.0
1846,80.0,0,240,0.0,64.0
1847,79.0,240,240,0.0,64.0
1848,78.0,240,240,0.0,64.0
1849,79.0,240,240,0.0,64.0
1850,63.0,0,960,0.0,64.0
1851,62.0,240,240,0.0,64.0
1852,60.0,240,1440,0.0,64.0
1853,72.0,240,240,0.0,64.0
1854,74.0,240,240,0.0,64.0
1855,75.0,240,240,0.0,64.0
1856,57.0,0,480,0.0,64.0
1857,78.0,240,0,0.0,64.0
1858,74.0,240,240,0.0,64.0
1859,72.0,0,240,0.0,64.0
1860,70.0,240,240,0.0,64.0
1861,79.0,0,240,0.0,64.0
1862,69.0,0,240,0.0,64.0
1863,81.0,240,240,0.0,64.0
1864,79.0,240,240,0.0,64.0
1865,70.0,0,240,0.0,64.0
1866,77.0,240,240,0.0,64.0
1867,67.0,0,240,0.0,64.0
1868,69.0,0,240,0.0,64.0
1869,75.0,240,240,0.0,64.0
1870,62.0,0,1920,0.0,64.0
1871,70.0,240,240,0.0,64.0
1872,74.0,0,240,0.0,64.0
1873,75.0,0,240,0.0,64.0
1874,68.0,0,240,0.0,64.0
1875,72.0,240,240,0.0,64.0
1876,67.0,0,240,0.0,64.0
1877,74.0,240,240,0.0,64.0
1878,66.0,0,240,0.0,64.0
1879,67.0,0,240,0.0,64.0
1880,75.0,240,240,0.0,64.0
1881,60.0,240,1200,0.0,64.0
1882,57.0,240,240,0.0,64.0
1883,66.0,240,480,0.0,64.0
1884,58.0,0,240,0.0,64.0
1885,67.0,240,240,0.0,64.0
1886,69.0,240,240,0.0,64.0
1887,60.0,0,240,0.0,64.0
1888,58.0,0,240,0.0,64.0
1889,74.0,0,1200,0.0,64.0
1890,57.0,240,240,0.0,64.0
1891,62.0,240,480,0.0,64.0
1892,72.0,0,240,0.0,64.0
1893,55.0,240,240,0.0,64.0
1894,70.0,0,240,0.0,64.0
1895,54.0,240,240,0.0,64.0
1896,69.0,0,240,0.0,64.0
1897,55.0,240,240,0.0,64.0
1898,70.0,0,240,0.0,64.0
1899,74.0,0,240,0.0,64.0
1900,54.0,240,240,0.0,64.0
1901,55.0,240,240,0.0,64.0
1902,79.0,0,480,0.0,64.0
1903,57.0,240,240,0.0,64.0
1904,67.0,0,960,0.0,64.0
1905,55.0,0,240,0.0,64.0
1906,74.0,240,240,0.0,64.0
1907,53.0,240,240,0.0,64.0
1908,79.0,0,240,0.0,64.0
1909,51.0,240,240,0.0,64.0
1910,70.0,0,960,0.0,64.0
1911,50.0,240,240,0.0,64.0
1912,82.0,0,720,0.0,64.0
1913,51.0,0,480,0.0,64.0
1914,79.0,240,240,0.0,64.0
1915,81.0,0,240,0.0,64.0
1916,72.0,0,0,0.0,64.0
1917,48.0,240,480,0.0,64.0
1918,82.0,240,480,0.0,64.0
1919,81.0,240,120,0.0,64.0
1920,79.0,120,120,0.0,64.0
1921,78.0,120,120,0.0,64.0
1922,79.0,120,120,0.0,64.0
1923,75.0,240,960,0.0,64.0
1924,81.0,120,240,0.0,64.0
1925,69.0,240,240,0.0,64.0
1926,74.0,0,480,0.0,64.0
1927,70.0,240,240,0.0,64.0
1928,86.0,0,480,0.0,64.0
1929,66.0,240,960,0.0,64.0
1930,72.0,240,240,0.0,64.0
1931,70.0,0,240,0.0,64.0
1932,79.0,240,240,0.0,64.0
1933,81.0,0,240,0.0,64.0
1934,69.0,240,240,0.0,64.0
1935,67.0,0,240,0.0,64.0
1936,74.0,240,480,0.0,64.0
1937,65.0,240,240,0.0,64.0
1938,64.0,240,240,0.0,64.0
1939,67.0,240,240,0.0,64.0
1940,82.0,0,960,0.0,64.0
1941,69.0,0,240,0.0,64.0
1942,70.0,240,240,0.0,64.0
1943,73.0,0,960,0.0,64.0
1944,76.0,240,480,0.0,64.0
1945,69.0,240,240,0.0,64.0
1946,78.0,0,240,0.0,64.0
1947,67.0,240,240,0.0,64.0
1948,79.0,0,240,0.0,64.0
1949,66.0,0,240,0.0,64.0
1950,72.0,0,960,0.0,64.0
1951,64.0,240,240,0.0,64.0
1952,62.0,240,240,0.0,64.0
1953,81.0,240,960,0.0,64.0
1954,66.0,240,240,0.0,64.0
1955,67.0,0,240,0.0,64.0
1956,71.0,0,960,0.0,64.0
1957,69.0,240,240,0.0,64.0
1958,74.0,240,480,0.0,64.0
1959,76.0,0,240,0.0,64.0
1960,67.0,0,240,0.0,64.0
1961,65.0,240,240,0.0,64.0
1962,77.0,0,240,0.0,64.0
1963,64.0,240,240,0.0,64.0
1964,62.0,240,240,0.0,64.0
1965,79.0,0,720,0.0,64.0
1966,76.0,240,240,0.0,64.0
1967,70.0,240,1440,0.0,64.0
1968,61.0,240,480,0.0,64.0
1969,77.0,240,240,0.0,64.0
1970,79.0,240,240,0.0,64.0
1971,69.0,0,480,0.0,64.0
1972,77.0,240,240,0.0,64.0
1973,76.0,240,240,0.0,64.0
1974,68.0,0,480,0.0,64.0
1975,74.0,240,240,0.0,64.0
1976,67.0,0,480,0.0,64.0
1977,70.0,0,480,0.0,64.0
1978,73.0,240,240,0.0,64.0
1979,60.0,0,240,0.0,64.0
1980,66.0,240,480,0.0,64.0
1981,57.0,240,240,0.0,64.0
1982,58.0,0,240,0.0,64.0
1983,64.0,240,240,0.0,64.0
1984,62.0,0,240,0.0,64.0
1985,60.0,240,240,0.0,64.0
1986,58.0,240,240,0.0,64.0
1987,67.0,0,480,0.0,64.0
1988,57.0,240,240,0.0,64.0
1989,55.0,240,240,0.0,64.0
1990,54.0,240,240,0.0,64.0
1991,72.0,0,480,0.0,64.0
1992,55.0,240,240,0.0,64.0
1993,74.0,0,2400,0.0,64.0
1994,53.0,240,240,0.0,64.0
1995,51.0,0,240,0.0,64.0
1996,50.0,240,240,0.0,64.0
1997,70.0,240,0,0.0,64.0
1998,48.0,0,240,0.0,64.0
1999,69.0,120,120,0.0,64.0
2000,70.0,0,120,0.0,64.0
2001,69.0,120,120,0.0,64.0
2002,46.0,120,240,0.0,64.0
2003,79.0,240,960,0.0,64.0
2004,70.0,0,120,0.0,64.0
2005,48.0,120,240,0.0,64.0
2006,69.0,120,120,0.0,64.0
2007,67.0,0,120,0.0,64.0
2008,50.0,120,240,0.0,64.0
2009,78.0,0,480,0.0,64.0
2010,69.0,120,120,0.0,64.0
2011,43.0,120,240,0.0,64.0
2012,79.0,0,480,0.0,64.0
2013,55.0,240,240,0.0,64.0
2014,67.0,0,480,0.0,64.0
2015,54.0,0,240,0.0,64.0
2016,55.0,240,240,0.0,64.0
2017,86.0,240,480,0.0,64.0
2018,58.0,0,240,0.0,64.0
2019,62.0,240,240,0.0,64.0
2020,79.0,240,480,0.0,64.0
2021,55.0,240,240,0.0,64.0
2022,82.0,0,480,0.0,64.0
2023,73.0,0,480,0.0,64.0
2024,58.0,240,240,0.0,64.0
2025,76.0,0,240,0.0,64.0
2026,77.0,240,240,0.0,64.0
2027,67.0,0,480,0.0,64.0
2028,79.0,240,240,0.0,64.0
2029,70.0,0,480,0.0,64.0
2030,76.0,240,240,0.0,64.0
2031,60.0,240,960,0.0,64.0
2032,64.0,240,240,0.0,64.0
2033,72.0,0,480,0.0,64.0
2034,65.0,240,240,0.0,64.0
2035,67.0,0,240,0.0,64.0
2036,60.0,240,480,0.0,64.0
2037,64.0,240,240,0.0,64.0
2038,60.0,0,480,0.0,64.0
2039,56.0,240,480,0.0,64.0
2040,82.0,0,960,0.0,64.0
2041,80.0,480,240,0.0,64.0
2042,62.0,0,240,0.0,64.0
2043,60.0,0,480,0.0,64.0
2044,79.0,240,240,0.0,64.0
2045,64.0,0,240,0.0,64.0
2046,80.0,0,240,0.0,64.0
2047,79.0,240,240,0.0,64.0
2048,53.0,240,480,0.0,64.0
2049,77.0,0,240,0.0,64.0
2050,55.0,240,240,0.0,64.0
2051,75.0,240,240,0.0,64.0
2052,56.0,0,240,0.0,64.0
2053,74.0,0,240,0.0,64.0
2054,75.0,240,240,0.0,64.0
2055,65.0,0,1440,0.0,64.0
2056,77.0,0,240,0.0,64.0
2057,68.0,240,480,0.0,64.0
2058,79.0,240,240,0.0,64.0
2059,58.0,240,960,0.0,64.0
2060,62.0,240,240,0.0,64.0
2061,80.0,0,240,0.0,64.0
2062,79.0,0,240,0.0,64.0
2063,63.0,240,240,0.0,64.0
2064,65.0,0,240,0.0,64.0
2065,58.0,0,0,0.0,64.0
2066,62.0,240,240,0.0,64.0
2067,55.0,240,480,0.0,64.0
2068,80.0,240,960,0.0,64.0
2069,58.0,480,0,0.0,64.0
2070,79.0,0,240,0.0,64.0
2071,60.0,0,240,0.0,64.0
2072,77.0,240,240,0.0,64.0
2073,62.0,0,240,0.0,64.0
2074,79.0,0,240,0.0,64.0
2075,51.0,240,480,0.0,64.0
2076,77.0,240,240,0.0,64.0
2077,53.0,0,240,0.0,64.0
2078,75.0,240,240,0.0,64.0
2079,74.0,0,240,0.0,64.0
2080,55.0,240,240,0.0,64.0
2081,63.0,0,1440,0.0,64.0
2082,72.0,240,480,0.0,64.0
2083,74.0,480,240,0.0,64.0
2084,62.0,0,240,0.0,64.0
2085,56.0,0,960,0.0,64.0
2086,75.0,240,240,0.0,64.0
2087,60.0,0,240,0.0,64.0
2088,62.0,0,240,0.0,64.0
2089,60.0,240,240,0.0,64.0
2090,59.0,0,240,0.0,64.0
2091,50.0,240,480,0.0,64.0
2092,57.0,240,240,0.0,64.0
2093,77.0,240,1440,0.0,64.0
2094,55.0,0,480,0.0,64.0
2095,51.0,240,480,0.0,64.0
2096,57.0,0,240,0.0,64.0
2097,75.0,480,240,0.0,64.0
2098,55.0,0,480,0.0,64.0
2099,74.0,0,240,0.0,64.0
2100,59.0,240,240,0.0,64.0
2101,75.0,240,240,0.0,64.0
2102,74.0,240,240,0.0,64.0
2103,48.0,0,480,0.0,64.0
2104,72.0,0,240,0.0,64.0
2105,50.0,240,240,0.0,64.0
2106,70.0,0,240,0.0,64.0
2107,52.0,240,240,0.0,64.0
2108,53.0,240,240,0.0,64.0
2109,51.0,240,240,0.0,64.0
2110,60.0,0,1440,0.0,64.0
2111,69.0,0,480,0.0,64.0
2112,50.0,240,240,0.0,64.0
2113,53.0,240,240,0.0,64.0
2114,59.0,0,480,0.0,64.0
2115,68.0,0,480,0.0,64.0
2116,51.0,240,240,0.0,64.0
2117,60.0,0,480,0.0,64.0
2118,50.0,240,240,0.0,64.0
2119,67.0,0,480,0.0,64.0
2120,48.0,0,240,0.0,64.0
2121,47.0,240,240,0.0,64.0
2122,62.0,0,480,0.0,64.0
2123,55.0,240,480,0.0,64.0
2124,57.0,480,240,0.0,64.0
2125,48.0,0,960,0.0,64.0
2126,59.0,240,240,0.0,64.0
2127,60.0,0,240,0.0,64.0
2128,59.0,240,240,0.0,64.0
2129,65.0,240,2160,0.0,64.0
2130,63.0,240,240,0.0,64.0
2131,51.0,240,960,0.0,64.0
2132,60.0,240,720,0.0,64.0
2133,59.0,240,240,0.0,64.0
2134,62.0,0,480,0.0,64.0
2135,57.0,240,240,0.0,64.0
2136,55.0,240,960,0.0,64.0
2137,59.0,240,240,0.0,64.0
2138,60.0,240,240,0.0,64.0
2139,63.0,240,240,0.0,64.0
2140,67.0,0,960,0.0,64.0
2141,62.0,240,240,0.0,64.0
2142,66.0,0,480,0.0,64.0
2143,60.0,240,240,0.0,64.0
2144,56.0,0,960,0.0,64.0
2145,67.0,0,240,0.0,64.0
2146,74.0,240,240,0.0,64.0
2147,62.0,240,480,0.0,64.0
2148,75.0,240,240,0.0,64.0
2149,55.0,0,480,0.0,64.0
2150,47.0,0,960,0.0,64.0
2151,77.0,240,240,0.0,64.0
2152,75.0,240,240,0.0,64.0
2153,60.0,0,240,0.0,64.0
2154,74.0,240,240,0.0,64.0
2155,62.0,0,240,0.0,64.0
2156,72.0,0,240,0.0,64.0
2157,70.0,240,240,0.0,64.0
2158,55.0,0,480,0.0,64.0
2159,69.0,0,240,0.0,64.0
2160,63.0,240,960,0.0,64.0
2161,72.0,240,240,0.0,64.0
2162,74.0,240,240,0.0,64.0
2163,54.0,240,960,0.0,64.0
2164,75.0,240,240,0.0,64.0
2165,57.0,0,480,0.0,64.0
2166,74.0,240,240,0.0,64.0
2167,59.0,0,240,0.0,64.0
2168,72.0,0,240,0.0,64.0
2169,60.0,240,240,0.0,64.0
2170,71.0,0,240,0.0,64.0
2171,53.0,0,960,0.0,64.0
2172,69.0,240,240,0.0,64.0
2173,67.0,240,240,0.0,64.0
2174,71.0,240,240,0.0,64.0
2175,62.0,240,960,0.0,64.0
2176,72.0,0,240,0.0,64.0
2177,74.0,240,240,0.0,64.0
2178,52.0,0,960,0.0,64.0
2179,55.0,240,480,0.0,64.0
2180,72.0,240,240,0.0,64.0
2181,57.0,0,240,0.0,64.0
2182,70.0,0,240,0.0,64.0
2183,58.0,240,240,0.0,64.0
2184,69.0,0,240,0.0,64.0
2185,67.0,240,240,0.0,64.0
2186,60.0,240,720,0.0,64.0
2187,51.0,0,1440,0.0,64.0
2188,57.0,240,240,0.0,64.0
2189,58.0,240,240,0.0,64.0
2190,60.0,240,240,0.0,64.0
2191,66.0,240,960,0.0,64.0
2192,50.0,0,480,0.0,64.0
2193,58.0,240,240,0.0,64.0
2194,57.0,240,240,0.0,64.0
2195,49.0,0,480,0.0,64.0
2196,55.0,240,240,0.0,64.0
2197,75.0,0,480,0.0,64.0
2198,48.0,0,480,0.0,64.0
2199,54.0,240,240,0.0,64.0
2200,65.0,240,240,0.0,64.0
2201,62.0,240,240,0.0,64.0
2202,47.0,0,480,0.0,64.0
2203,63.0,240,240,0.0,64.0
2204,45.0,0,240,0.0,64.0
2205,43.0,240,240,0.0,64.0
2206,65.0,0,240,0.0,64.0
2207,63.0,0,240,0.0,64.0
2208,62.0,240,240,0.0,64.0
2209,48.0,240,480,0.0,64.0
2210,60.0,240,240,0.0,64.0
2211,59.0,240,240,0.0,64.0
2212,53.0,0,480,0.0,64.0
2213,60.0,240,240,0.0,64.0
2214,55.0,0,2400,0.0,64.0
2215,65.0,240,240,0.0,64.0
2216,67.0,0,240,0.0,64.0
2217,51.0,0,960,0.0,64.0
2218,68.0,240,240,0.0,64.0
2219,51.0,240,120,0.0,64.0
2220,67.0,0,240,0.0,64.0
2221,50.0,120,120,0.0,64.0
2222,51.0,0,120,0.0,64.0
2223,50.0,120,120,0.0,64.0
2224,65.0,120,240,0.0,64.0
2225,60.0,240,960,0.0,64.0
2226,51.0,120,120,0.0,64.0
2227,63.0,0,240,0.0,64.0
2228,50.0,120,120,0.0,64.0
2229,48.0,0,120,0.0,64.0
2230,59.0,0,480,0.0,64.0
2231,62.0,120,240,0.0,64.0
2232,50.0,120,120,0.0,64.0
2233,60.0,120,240,0.0,64.0
2234,55.0,240,240,0.0,64.0
2235,56.0,240,240,0.0,64.0
2236,58.0,240,240,0.0,64.0
2237,63.0,0,1200,0.0,64.0
2238,56.0,240,240,0.0,64.0
2239,55.0,240,240,0.0,64.0
2240,70.0,0,240,0.0,64.0
2241,68.0,0,240,0.0,64.0
2242,53.0,240,240,0.0,64.0
2243,51.0,0,240,0.0,64.0
2244,67.0,240,240,0.0,64.0
2245,66.0,240,240,0.0,64.0
2246,50.0,0,240,0.0,64.0
2247,54.0,0,240,0.0,64.0
2248,75.0,240,240,0.0,64.0
2249,55.0,0,240,0.0,64.0
2250,48.0,0,2880,0.0,64.0
2251,57.0,240,240,0.0,64.0
2252,74.0,240,720,0.0,64.0
2253,55.0,240,240,0.0,64.0
2254,80.0,240,240,0.0,64.0
2255,53.0,0,240,0.0,64.0
2256,79.0,240,240,0.0,64.0
2257,52.0,0,240,0.0,64.0
2258,50.0,0,240,0.0,64.0
2259,77.0,240,240,0.0,64.0
2260,76.0,0,240,0.0,64.0
2261,48.0,240,240,0.0,64.0
2262,85.0,0,240,0.0,64.0
2263,52.0,240,240,0.0,64.0
2264,53.0,0,240,0.0,64.0
2265,46.0,0,1920,0.0,64.0
2266,55.0,240,240,0.0,64.0
2267,53.0,240,240,0.0,64.0
2268,84.0,240,960,0.0,64.0
2269,51.0,240,240,0.0,64.0
2270,50.0,240,240,0.0,64.0
2271,48.0,240,240,0.0,64.0
2272,44.0,0,960,0.0,64.0
2273,77.0,0,720,0.0,64.0
2274,47.0,240,480,0.0,64.0
2275,74.0,240,240,0.0,64.0
2276,75.0,0,240,0.0,64.0
2277,72.0,240,240,0.0,64.0
2278,55.0,240,480,0.0,64.0
2279,69.0,240,240,0.0,64.0
2280,75.0,240,240,0.0,64.0
2281,54.0,0,480,0.0,64.0
2282,74.0,240,240,0.0,64.0
2283,53.0,0,480,0.0,64.0
2284,68.0,240,240,0.0,64.0
2285,52.0,0,240,0.0,64.0
2286,67.0,240,240,0.0,64.0
2287,66.0,0,240,0.0,64.0
2288,50.0,240,240,0.0,64.0
2289,51.0,0,240,0.0,64.0
2290,60.0,240,240,0.0,64.0
2291,67.0,240,480,0.0,64.0
2292,50.0,0,240,0.0,64.0
2293,60.0,240,240,0.0,64.0
2294,66.0,240,480,0.0,64.0
2295,59.0,0,240,0.0,64.0
2296,50.0,240,240,0.0,64.0
2297,65.0,240,480,0.0,64.0
2298,64.0,0,240,0.0,64.0
2299,62.0,240,240,0.0,64.0
2300,43.0,0,0,0.0,64.0
2301,48.0,240,720,0.0,64.0
2302,47.0,240,240,0.0,64.0
2303,63.0,240,720,0.0,64.0
2304,42.0,0,480,0.0,64.0
2305,62.0,240,240,0.0,64.0
2306,48.0,240,720,0.0,64.0
2307,41.0,240,480,0.0,64.0
2308,59.0,240,240,0.0,64.0
2309,40.0,240,240,0.0,64.0
2310,68.0,0,720,0.0,64.0
2311,67.0,240,240,0.0,64.0
2312,38.0,0,240,0.0,64.0
2313,60.0,0,720,0.0,64.0
2314,39.0,0,240,0.0,64.0
2315,48.0,0,240,0.0,64.0
2316,72.0,240,480,0.0,64.0
2317,68.0,240,240,0.0,64.0
2318,67.0,240,240,0.0,64.0
2319,38.0,0,240,0.0,64.0
2320,66.0,240,240,0.0,64.0
2321,48.0,0,240,0.0,64.0
2322,74.0,0,240,0.0,64.0
2323,43.0,240,240,0.0,64.0
2324,62.0,240,240,0.0,64.0
2325,47.0,0,240,0.0,64.0
2326,65.0,240,0,0.0,64.0
2327,62.0,0,240,0.0,64.0
2328,63.0,240,240,0.0,64.0
2329,48.0,0,480,0.0,64.0
2330,60.0,0,240,0.0,64.0
2331,63.0,0,240,0.0,64.0
2332,44.0,240,480,0.0,64.0
2333,72.0,240,240,0.0,64.0
2334,41.0,240,480,0.0,64.0
2335,62.0,240,240,0.0,64.0
2336,72.0,0,240,0.0,64.0
2337,43.0,240,480,0.0,64.0
2338,65.0,240,0,0.0,64.0
2339,71.0,0,0,0.0,64.0
2340,72.0,480,480,0.0,64.0
2341,63.0,0,480,0.0,64.0
2342,36.0,0,960,0.0,64.0
