,note,step,duration,channel,velocity
0,64.0,0,70,1.0,119.0
1,57.0,1,138,1.0,119.0
2,69.0,80,67,0.0,120.0
3,52.0,0,67,1.0,119.0
4,68.0,78,67,0.0,120.0
5,69.0,77,68,0.0,120.0
6,49.0,1,135,1.0,119.0
7,73.0,77,66,0.0,120.0
8,52.0,0,66,1.0,127.0
9,71.0,77,67,0.0,120.0
10,57.0,0,66,1.0,127.0
11,45.0,1,132,2.0,127.0
12,64.0,75,67,1.0,127.0
13,47.0,1,66,2.0,127.0
14,62.0,76,67,1.0,127.0
15,64.0,1,65,1.0,127.0
16,49.0,76,133,1.0,127.0
17,68.0,76,65,0.0,120.0
18,45.0,0,65,2.0,127.0
19,66.0,75,66,1.0,127.0
20,73.0,77,521,0.0,120.0
21,52.0,0,131,1.0,127.0
22,71.0,75,65,0.0,120.0
23,40.0,1,65,2.0,127.0
24,69.0,74,66,0.0,120.0
25,71.0,74,66,0.0,120.0
26,40.0,1,131,2.0,127.0
27,74.0,74,66,0.0,120.0
28,52.0,1,64,1.0,127.0
29,73.0,75,66,0.0,120.0
30,68.0,75,514,0.0,120.0
31,52.0,0,132,1.0,127.0
32,66.0,75,65,1.0,127.0
33,64.0,0,65,1.0,127.0
34,50.0,75,66,1.0,127.0
35,66.0,1,63,1.0,127.0
36,49.0,76,132,1.0,127.0
37,69.0,74,65,0.0,120.0
38,47.0,0,65,2.0,127.0
39,68.0,75,65,0.0,120.0
40,45.0,0,65,2.0,127.0
41,74.0,74,516,0.0,120.0
42,57.0,0,63,1.0,127.0
43,73.0,76,64,0.0,120.0
44,56.0,1,63,1.0,127.0
45,71.0,74,65,0.0,120.0
46,57.0,1,64,1.0,127.0
47,73.0,74,66,0.0,120.0
48,61.0,1,64,1.0,127.0
49,76.0,74,65,0.0,120.0
50,59.0,1,63,1.0,127.0
51,74.0,74,64,0.0,120.0
52,61.0,0,64,1.0,127.0
53,76.0,73,64,0.0,118.0
54,59.0,0,64,1.0,127.0
55,74.0,74,64,0.0,118.0
56,57.0,0,63,1.0,127.0
57,73.0,74,64,0.0,120.0
58,59.0,0,63,1.0,127.0
59,74.0,74,64,0.0,116.0
60,62.0,0,63,1.0,127.0
61,78.0,73,64,0.0,114.0
62,61.0,0,63,1.0,127.0
63,76.0,74,63,0.0,114.0
64,69.0,75,955,0.0,120.0
65,62.0,0,128,1.0,127.0
66,71.0,73,64,0.0,120.0
67,61.0,1,64,1.0,127.0
68,73.0,73,65,0.0,120.0
69,78.0,74,285,0.0,114.0
70,59.0,1,129,1.0,127.0
71,80.0,73,65,0.0,114.0
72,57.0,1,63,1.0,127.0
73,81.0,74,64,0.0,114.0
74,83.0,72,64,0.0,116.0
75,74.0,73,286,0.0,116.0
76,56.0,1,128,1.0,127.0
77,73.0,1,62,0.0,120.0
78,71.0,72,64,0.0,120.0
79,76.0,73,210,0.0,116.0
80,57.0,0,129,1.0,127.0
81,78.0,73,64,0.0,116.0
82,80.0,74,63,0.0,116.0
83,81.0,73,64,0.0,116.0
84,73.0,74,285,0.0,120.0
85,54.0,0,129,1.0,127.0
86,71.0,0,63,0.0,120.0
87,69.0,74,63,0.0,120.0
88,74.0,74,210,0.0,116.0
89,56.0,0,128,1.0,127.0
90,76.0,74,63,0.0,118.0
91,74.0,73,63,0.0,118.0
92,73.0,74,62,0.0,120.0
93,57.0,0,127,1.0,127.0
94,71.0,73,348,0.0,120.0
95,74.0,73,62,0.0,118.0
96,49.0,1,62,1.0,127.0
97,69.0,1,63,0.0,120.0
98,76.0,71,65,0.0,118.0
99,74.0,0,63,0.0,118.0
100,47.0,0,127,2.0,127.0
101,68.0,72,128,0.0,120.0
102,76.0,73,63,0.0,118.0
103,45.0,1,63,2.0,127.0
104,73.0,73,64,0.0,120.0
105,40.0,0,63,2.0,127.0
106,69.0,0,137,0.0,120.0
107,52.0,0,63,1.0,127.0
108,68.0,73,63,0.0,120.0
109,71.0,73,200,0.0,120.0
110,66.0,0,63,1.0,127.0
111,51.0,73,63,1.0,127.0
112,52.0,0,62,1.0,127.0
113,68.0,0,63,0.0,120.0
114,56.0,1,62,1.0,127.0
115,71.0,73,64,0.0,120.0
116,54.0,1,63,1.0,127.0
117,69.0,72,64,0.0,120.0
118,76.0,73,283,0.0,120.0
119,78.0,73,64,0.0,118.0
120,76.0,73,64,0.0,118.0
121,56.0,1,283,1.0,127.0
122,74.0,73,128,0.0,118.0
123,71.0,72,348,0.0,120.0
124,59.0,73,64,1.0,127.0
125,58.0,1,62,1.0,127.0
126,73.0,73,63,0.0,118.0
127,59.0,1,61,1.0,127.0
128,66.0,0,133,1.0,127.0
129,62.0,1,62,1.0,127.0
130,71.0,70,63,0.0,118.0
131,61.0,1,63,1.0,127.0
132,70.0,71,64,0.0,120.0
133,62.0,1,62,1.0,127.0
134,74.0,71,279,0.0,118.0
135,66.0,0,62,1.0,127.0
136,74.0,72,63,0.0,118.0
137,64.0,1,62,1.0,127.0
138,73.0,72,64,0.0,118.0
139,71.0,72,280,0.0,118.0
140,69.0,71,62,0.0,120.0
141,68.0,73,62,0.0,120.0
142,69.0,72,62,0.0,120.0
143,66.0,1,279,1.0,127.0
144,74.0,72,344,0.0,118.0
145,69.0,0,63,0.0,120.0
146,73.0,72,64,0.0,118.0
147,68.0,1,62,0.0,120.0
148,71.0,0,64,0.0,118.0
149,83.0,74,64,0.0,116.0
150,76.0,72,63,0.0,116.0
151,73.0,0,127,0.0,118.0
152,69.0,1,127,0.0,120.0
153,78.0,72,63,0.0,116.0
154,68.0,1,63,0.0,120.0
155,71.0,0,64,0.0,118.0
156,76.0,73,64,0.0,116.0
157,75.0,72,63,0.0,118.0
158,66.0,0,127,1.0,127.0
159,76.0,72,63,0.0,116.0
160,64.0,0,63,1.0,127.0
161,78.0,73,64,0.0,116.0
162,63.0,1,62,1.0,127.0
163,71.0,74,128,0.0,118.0
164,69.0,1,347,0.0,120.0
165,59.0,72,63,1.0,127.0
166,64.0,1,62,1.0,127.0
167,68.0,0,63,0.0,120.0
168,73.0,73,64,0.0,118.0
169,69.0,72,63,0.0,120.0
170,64.0,0,128,1.0,127.0
171,68.0,72,63,0.0,120.0
172,63.0,0,63,1.0,127.0
173,69.0,74,64,0.0,120.0
174,64.0,0,63,1.0,127.0
175,66.0,1,283,1.0,127.0
176,68.0,73,128,0.0,120.0
177,63.0,74,63,1.0,127.0
178,59.0,0,64,1.0,127.0
179,61.0,1,63,1.0,127.0
180,64.0,0,64,1.0,127.0
181,69.0,73,65,0.0,120.0
182,59.0,1,62,1.0,127.0
183,68.0,73,63,0.0,120.0
184,66.0,0,31,1.0,127.0
185,64.0,37,18,1.0,127.0
186,56.0,72,64,1.0,127.0
187,57.0,0,63,1.0,127.0
188,63.0,1,63,1.0,127.0
189,66.0,36,65,1.0,127.0
190,83.0,72,64,0.0,116.0
191,64.0,0,127,1.0,127.0
192,76.0,72,64,0.0,116.0
193,78.0,73,64,0.0,116.0
194,76.0,73,64,0.0,116.0
195,56.0,1,346,1.0,127.0
196,73.0,73,64,0.0,118.0
197,52.0,1,62,1.0,127.0
198,74.0,73,63,0.0,118.0
199,69.0,1,62,0.0,120.0
200,73.0,72,128,0.0,118.0
201,64.0,71,64,1.0,127.0
202,66.0,1,63,1.0,127.0
203,69.0,73,64,0.0,120.0
204,64.0,1,62,1.0,127.0
205,57.0,0,344,1.0,127.0
206,61.0,71,63,1.0,127.0
207,62.0,1,61,1.0,127.0
208,59.0,73,63,1.0,127.0
209,57.0,71,62,1.0,127.0
210,61.0,1,61,1.0,127.0
211,79.0,72,279,0.0,118.0
212,52.0,1,62,1.0,127.0
213,73.0,70,63,0.0,118.0
214,54.0,0,62,1.0,127.0
215,74.0,72,62,0.0,118.0
216,52.0,1,62,1.0,127.0
217,73.0,71,64,0.0,118.0
218,49.0,0,62,1.0,127.0
219,70.0,73,63,0.0,120.0
220,50.0,1,62,1.0,127.0
221,71.0,73,64,0.0,120.0
222,61.0,0,63,1.0,127.0
223,68.0,72,63,0.0,120.0
224,66.0,73,64,1.0,127.0
225,68.0,74,63,0.0,120.0
226,49.0,1,348,1.0,127.0
227,71.0,73,64,0.0,120.0
228,42.0,1,62,2.0,127.0
229,70.0,74,64,0.0,120.0
230,47.0,1,62,2.0,127.0
231,76.0,72,503,0.0,118.0
232,54.0,1,61,1.0,127.0
233,74.0,72,62,0.0,118.0
234,52.0,1,61,1.0,127.0
235,73.0,71,63,0.0,118.0
236,54.0,1,62,1.0,127.0
237,74.0,71,127,0.0,118.0
238,57.0,72,62,1.0,127.0
239,56.0,1,62,1.0,127.0
240,76.0,72,64,0.0,118.0
241,71.0,72,498,0.0,120.0
242,64.0,73,63,1.0,127.0
243,57.0,0,200,1.0,127.0
244,62.0,73,62,1.0,127.0
245,64.0,72,63,1.0,127.0
246,68.0,73,63,0.0,120.0
247,45.0,0,63,2.0,127.0
248,66.0,73,64,1.0,127.0
249,41.0,0,62,2.0,127.0
250,73.0,72,500,0.0,118.0
251,50.0,0,63,1.0,127.0
252,71.0,72,64,0.0,120.0
253,49.0,0,63,1.0,127.0
254,69.0,73,64,0.0,120.0
255,51.0,0,63,1.0,127.0
256,71.0,73,127,0.0,120.0
257,54.0,73,62,1.0,127.0
258,53.0,0,63,1.0,127.0
259,73.0,72,64,0.0,120.0
260,54.0,0,63,1.0,127.0
261,68.0,73,499,0.0,120.0
262,66.0,0,62,1.0,127.0
263,57.0,73,62,1.0,127.0
264,65.0,0,62,1.0,127.0
265,56.0,72,62,1.0,127.0
266,57.0,0,62,1.0,127.0
267,69.0,73,344,0.0,120.0
268,61.0,72,62,1.0,127.0
269,59.0,1,62,1.0,127.0
270,74.0,72,63,0.0,120.0
271,66.0,73,279,1.0,127.0
272,68.0,72,127,0.0,120.0
273,73.0,72,63,0.0,120.0
274,65.0,72,207,1.0,127.0
275,66.0,74,61,1.0,127.0
276,68.0,71,63,0.0,120.0
277,74.0,72,280,0.0,120.0
278,72.0,72,62,0.0,120.0
279,73.0,72,62,0.0,120.0
280,69.0,73,278,0.0,120.0
281,68.0,73,62,0.0,120.0
282,66.0,72,62,1.0,127.0
283,78.0,71,279,0.0,118.0
284,75.0,72,62,0.0,120.0
285,77.0,72,62,0.0,118.0
286,68.0,72,278,0.0,120.0
287,65.0,72,62,1.0,127.0
288,61.0,0,1280,1.0,127.0
289,66.0,72,62,1.0,127.0
290,81.0,72,278,0.0,116.0
291,80.0,72,62,0.0,116.0
292,78.0,72,62,0.0,116.0
293,80.0,72,62,0.0,116.0
294,62.0,0,279,1.0,127.0
295,61.0,0,62,1.0,127.0
296,81.0,72,63,0.0,116.0
297,59.0,0,62,1.0,127.0
298,83.0,72,63,0.0,116.0
299,77.0,72,63,0.0,116.0
300,71.0,72,559,0.0,120.0
301,73.0,73,62,0.0,116.0
302,69.0,0,61,0.0,118.0
303,78.0,72,133,0.0,114.0
304,61.0,0,343,1.0,127.0
305,80.0,72,62,0.0,114.0
306,68.0,71,199,0.0,118.0
307,49.0,0,63,1.0,127.0
308,77.0,72,64,0.0,114.0
309,54.0,1,61,1.0,127.0
310,78.0,0,127,0.0,114.0
311,57.0,71,62,1.0,127.0
312,56.0,1,61,1.0,127.0
313,73.0,73,63,0.0,116.0
314,57.0,1,61,1.0,127.0
315,69.0,73,344,0.0,118.0
316,61.0,71,63,1.0,127.0
317,59.0,1,61,1.0,127.0
318,69.0,73,63,0.0,120.0
319,78.0,71,280,0.0,116.0
320,76.0,72,62,0.0,116.0
321,74.0,73,62,0.0,118.0
322,61.0,1,280,1.0,127.0
323,68.0,71,282,0.0,120.0
324,59.0,1,62,1.0,127.0
325,69.0,73,63,0.0,120.0
326,61.0,1,62,1.0,127.0
327,68.0,71,63,0.0,120.0
328,62.0,71,63,1.0,127.0
329,76.0,72,280,0.0,116.0
330,59.0,1,62,1.0,127.0
331,68.0,71,63,0.0,120.0
332,61.0,1,61,1.0,127.0
333,69.0,71,63,0.0,120.0
334,59.0,1,62,1.0,127.0
335,66.0,1,341,1.0,127.0
336,56.0,71,63,1.0,127.0
337,66.0,1,63,1.0,127.0
338,57.0,72,64,1.0,127.0
339,56.0,1,62,1.0,127.0
340,74.0,71,280,0.0,118.0
341,52.0,1,62,1.0,127.0
342,73.0,71,63,0.0,120.0
343,54.0,1,62,1.0,127.0
344,71.0,71,63,0.0,120.0
345,55.0,1,62,1.0,127.0
346,64.0,72,342,1.0,127.0
347,57.0,71,63,1.0,127.0
348,55.0,72,63,1.0,127.0
349,64.0,1,62,1.0,127.0
350,54.0,71,63,1.0,127.0
351,73.0,71,280,0.0,120.0
352,50.0,1,61,1.0,127.0
353,71.0,72,63,0.0,120.0
354,52.0,1,61,1.0,127.0
355,69.0,71,63,0.0,120.0
356,53.0,1,62,1.0,127.0
357,62.0,1,343,1.0,127.0
358,55.0,72,62,1.0,127.0
359,62.0,1,62,1.0,127.0
360,53.0,72,64,1.0,127.0
361,52.0,0,63,1.0,127.0
362,71.0,71,282,0.0,120.0
363,53.0,0,63,1.0,127.0
364,68.0,73,64,0.0,120.0
365,61.0,72,201,1.0,127.0
366,52.0,0,63,1.0,127.0
367,60.0,73,63,1.0,127.0
368,51.0,0,64,1.0,127.0
369,69.0,73,202,0.0,120.0
370,52.0,1,61,1.0,127.0
371,59.0,74,63,1.0,127.0
372,51.0,0,61,1.0,127.0
373,60.0,1,62,1.0,127.0
374,69.0,72,63,0.0,120.0
375,52.0,0,61,1.0,127.0
376,47.0,71,63,2.0,127.0
377,49.0,73,63,1.0,127.0
378,47.0,73,63,2.0,127.0
379,59.0,1,345,1.0,127.0
380,68.0,71,346,0.0,120.0
381,44.0,73,63,2.0,127.0
382,45.0,1,62,2.0,127.0
383,64.0,73,63,1.0,127.0
384,71.0,72,62,0.0,120.0
385,64.0,72,62,1.0,127.0
386,66.0,72,63,1.0,127.0
387,64.0,73,63,1.0,127.0
388,44.0,1,345,2.0,127.0
389,61.0,73,63,1.0,127.0
390,40.0,0,63,2.0,127.0
391,62.0,73,64,1.0,127.0
392,64.0,73,63,1.0,127.0
393,61.0,0,128,1.0,127.0
394,69.0,72,62,0.0,120.0
395,45.0,1,199,2.0,127.0
396,59.0,0,63,1.0,127.0
397,68.0,72,64,0.0,120.0
398,69.0,73,63,0.0,120.0
399,61.0,0,127,1.0,127.0
400,73.0,73,63,0.0,120.0
401,62.0,0,62,1.0,127.0
402,71.0,73,63,0.0,120.0
403,64.0,0,63,1.0,127.0
404,73.0,73,127,0.0,120.0
405,69.0,72,63,0.0,120.0
406,45.0,1,199,2.0,127.0
407,71.0,0,63,0.0,120.0
408,68.0,73,63,0.0,120.0
409,69.0,0,62,0.0,118.0
410,73.0,73,62,0.0,118.0
411,73.0,0,63,0.0,118.0
412,76.0,72,63,0.0,114.0
413,74.0,72,64,0.0,114.0
414,71.0,1,63,0.0,118.0
415,76.0,72,32,0.0,114.0
416,57.0,0,63,1.0,127.0
417,78.0,36,32,0.0,114.0
418,52.0,1,62,1.0,127.0
419,54.0,71,64,1.0,127.0
420,52.0,73,63,1.0,127.0
421,79.0,36,272,0.0,114.0
422,73.0,1,345,0.0,118.0
423,49.0,72,64,1.0,127.0
424,50.0,0,62,1.0,127.0
425,69.0,74,62,0.0,120.0
426,76.0,72,63,0.0,116.0
427,69.0,73,63,0.0,120.0
428,71.0,73,63,0.0,120.0
429,69.0,73,64,0.0,120.0
430,49.0,0,347,1.0,127.0
431,66.0,74,62,1.0,127.0
432,45.0,0,62,2.0,127.0
433,67.0,74,63,1.0,127.0
434,57.0,0,62,1.0,127.0
435,50.0,1,128,1.0,127.0
436,66.0,72,130,1.0,127.0
437,62.0,73,63,1.0,127.0
438,45.0,1,62,2.0,127.0
439,61.0,73,64,1.0,127.0
440,62.0,73,63,1.0,127.0
441,42.0,1,126,2.0,127.0
442,66.0,72,63,1.0,127.0
443,45.0,1,63,2.0,127.0
444,64.0,72,64,1.0,127.0
445,62.0,1,63,1.0,127.0
446,38.0,0,126,2.0,127.0
447,69.0,72,63,0.0,120.0
448,40.0,1,62,2.0,127.0
449,67.0,72,63,1.0,127.0
450,69.0,71,64,0.0,120.0
451,42.0,1,127,2.0,127.0
452,73.0,72,63,0.0,120.0
453,38.0,1,61,2.0,127.0
454,71.0,73,63,0.0,120.0
455,66.0,72,498,1.0,127.0
456,45.0,1,127,2.0,127.0
457,64.0,72,63,1.0,127.0
458,62.0,73,62,1.0,127.0
459,57.0,0,63,1.0,127.0
460,64.0,0,62,1.0,127.0
461,57.0,73,127,1.0,127.0
462,67.0,72,63,1.0,127.0
463,45.0,0,62,2.0,127.0
464,66.0,73,63,1.0,127.0
465,73.0,71,498,0.0,120.0
466,52.0,0,126,1.0,127.0
467,71.0,72,62,0.0,120.0
468,64.0,0,63,1.0,127.0
469,70.0,72,64,0.0,120.0
470,71.0,73,63,0.0,120.0
471,64.0,0,127,1.0,127.0
472,74.0,73,62,0.0,120.0
473,58.0,0,63,1.0,127.0
474,73.0,72,64,0.0,120.0
475,59.0,0,62,1.0,127.0
476,67.0,72,498,1.0,127.0
477,47.0,0,64,2.0,127.0
478,66.0,72,64,1.0,127.0
479,64.0,0,62,1.0,127.0
480,49.0,73,63,1.0,127.0
481,66.0,1,61,1.0,127.0
482,50.0,72,63,1.0,127.0
483,49.0,0,62,1.0,127.0
484,70.0,71,63,0.0,120.0
485,47.0,0,61,2.0,127.0
486,68.0,72,62,0.0,120.0
487,54.0,0,62,1.0,127.0
488,70.0,71,63,0.0,120.0
489,52.0,1,60,1.0,127.0
490,68.0,72,62,0.0,120.0
491,66.0,1,61,1.0,127.0
492,50.0,70,62,1.0,127.0
493,52.0,1,60,1.0,127.0
494,68.0,70,62,0.0,120.0
495,55.0,1,61,1.0,127.0
496,71.0,70,63,0.0,120.0
497,54.0,1,61,1.0,127.0
498,70.0,71,62,0.0,120.0
499,74.0,73,921,0.0,120.0
500,55.0,1,124,1.0,127.0
501,76.0,70,63,0.0,116.0
502,54.0,1,61,1.0,127.0
503,78.0,72,63,0.0,116.0
504,71.0,70,276,0.0,120.0
505,52.0,1,124,1.0,127.0
506,73.0,71,61,0.0,118.0
507,50.0,0,61,1.0,127.0
508,74.0,71,61,0.0,116.0
509,76.0,71,61,0.0,116.0
510,79.0,71,276,0.0,116.0
511,49.0,0,124,1.0,127.0
512,78.0,0,61,0.0,116.0
513,76.0,71,61,0.0,116.0
514,69.0,71,203,0.0,120.0
515,50.0,0,124,1.0,127.0
516,71.0,71,61,0.0,120.0
517,73.0,71,62,0.0,118.0
518,74.0,72,61,0.0,118.0
519,78.0,71,276,0.0,116.0
520,47.0,0,125,2.0,127.0
521,76.0,71,62,0.0,118.0
522,74.0,72,61,0.0,120.0
523,67.0,0,204,1.0,127.0
524,49.0,0,125,1.0,127.0
525,69.0,71,62,0.0,120.0
526,67.0,72,61,1.0,127.0
527,66.0,71,62,1.0,127.0
528,50.0,0,126,1.0,127.0
529,76.0,71,340,0.0,120.0
530,67.0,72,61,1.0,127.0
531,42.0,1,60,2.0,127.0
532,69.0,0,62,0.0,120.0
533,74.0,71,62,0.0,118.0
534,67.0,0,60,1.0,127.0
535,40.0,0,124,2.0,127.0
536,73.0,71,125,0.0,118.0
537,69.0,71,61,0.0,120.0
538,38.0,0,62,2.0,127.0
539,66.0,0,62,1.0,127.0
540,45.0,1,62,2.0,127.0
541,74.0,71,134,0.0,118.0
542,57.0,1,61,1.0,127.0
543,73.0,71,62,0.0,118.0
544,64.0,71,196,1.0,127.0
545,56.0,0,61,1.0,127.0
546,71.0,71,61,0.0,120.0
547,57.0,0,61,1.0,127.0
548,73.0,0,61,0.0,118.0
549,61.0,0,62,1.0,127.0
550,76.0,71,62,0.0,118.0
551,59.0,0,61,1.0,127.0
552,74.0,72,61,0.0,118.0
553,69.0,71,275,0.0,120.0
554,71.0,71,62,0.0,120.0
555,69.0,72,62,0.0,120.0
556,67.0,72,62,1.0,127.0
557,61.0,0,342,1.0,127.0
558,76.0,71,342,0.0,118.0
559,69.0,72,62,0.0,114.0
560,63.0,1,61,1.0,127.0
561,66.0,0,63,1.0,127.0
562,78.0,72,63,0.0,118.0
563,52.0,1,61,1.0,127.0
564,71.0,71,62,0.0,120.0
565,55.0,0,61,1.0,127.0
566,76.0,71,61,0.0,118.0
567,54.0,0,61,1.0,127.0
568,75.0,71,62,0.0,118.0
569,55.0,0,62,1.0,127.0
570,67.0,0,277,1.0,127.0
571,66.0,0,62,1.0,127.0
572,59.0,71,63,1.0,127.0
573,67.0,72,63,1.0,127.0
574,58.0,0,64,1.0,127.0
575,76.0,71,278,0.0,118.0
576,74.0,72,62,0.0,116.0
577,73.0,72,62,0.0,118.0
578,74.0,72,62,0.0,116.0
579,59.0,73,279,1.0,127.0
580,66.0,0,342,1.0,127.0
581,62.0,0,62,1.0,127.0
582,78.0,72,63,0.0,116.0
583,61.0,1,60,1.0,127.0
584,69.0,0,62,0.0,120.0
585,76.0,72,62,0.0,116.0
586,66.0,0,60,1.0,127.0
587,62.0,1,122,1.0,127.0
588,78.0,70,123,0.0,116.0
589,68.0,69,60,0.0,120.0
590,61.0,0,60,1.0,127.0
591,76.0,70,61,0.0,116.0
592,69.0,1,131,0.0,120.0
593,59.0,1,123,1.0,127.0
594,68.0,70,62,0.0,120.0
595,57.0,1,61,1.0,127.0
596,71.0,70,62,0.0,120.0
597,56.0,70,62,1.0,127.0
598,74.0,69,337,0.0,116.0
599,52.0,70,62,1.0,127.0
600,64.0,1,196,1.0,127.0
601,73.0,72,61,0.0,118.0
602,57.0,0,132,1.0,127.0
603,66.0,70,126,1.0,127.0
604,54.0,71,62,1.0,127.0
605,62.0,1,196,1.0,127.0
606,56.0,0,61,1.0,127.0
607,71.0,72,133,0.0,120.0
608,57.0,0,125,1.0,127.0
609,64.0,72,61,1.0,127.0
610,61.0,71,196,1.0,127.0
611,54.0,1,60,1.0,127.0
612,69.0,71,132,0.0,120.0
613,50.0,70,124,1.0,127.0
614,71.0,70,62,0.0,120.0
615,59.0,1,194,1.0,127.0
616,52.0,1,61,1.0,127.0
617,68.0,70,62,0.0,120.0
618,57.0,1,61,1.0,127.0
619,52.0,70,61,1.0,127.0
620,69.0,70,196,0.0,120.0
621,54.0,71,61,1.0,127.0
622,52.0,71,62,1.0,127.0
623,49.0,72,62,1.0,127.0
624,50.0,71,62,1.0,127.0
625,57.0,71,62,1.0,127.0
626,49.0,1,124,1.0,127.0
627,64.0,70,63,1.0,127.0
628,62.0,72,62,1.0,127.0
629,64.0,72,61,1.0,127.0
630,67.0,71,61,1.0,127.0
631,66.0,71,61,1.0,127.0
632,64.0,0,60,1.0,127.0
633,57.0,70,60,1.0,127.0
634,59.0,70,61,1.0,127.0
635,57.0,70,61,1.0,127.0
636,67.0,71,272,1.0,127.0
637,54.0,0,61,1.0,127.0
638,69.0,70,62,0.0,120.0
639,55.0,0,60,1.0,127.0
640,61.0,71,61,1.0,127.0
641,54.0,1,60,1.0,127.0
642,62.0,70,66,1.0,127.0
643,50.0,1,61,1.0,127.0
644,66.0,68,67,1.0,127.0
645,49.0,1,61,1.0,127.0
646,64.0,69,67,1.0,127.0
647,66.0,1,66,1.0,127.0
648,50.0,70,67,1.0,127.0
649,69.0,69,60,0.0,120.0
650,54.0,0,67,1.0,127.0
651,52.0,0,67,1.0,127.0
652,67.0,70,67,1.0,127.0
653,69.0,70,61,0.0,120.0
654,54.0,1,66,1.0,127.0
655,45.0,0,1818,2.0,127.0
656,74.0,69,61,0.0,120.0
657,66.0,1,66,1.0,127.0
658,57.0,1,59,1.0,127.0
659,73.0,70,61,0.0,120.0
660,64.0,0,66,1.0,127.0
661,74.0,69,60,0.0,120.0
662,66.0,1,65,1.0,127.0
663,57.0,0,121,1.0,127.0
664,74.0,1,65,0.0,116.0
665,78.0,69,67,0.0,114.0
666,45.0,0,59,2.0,127.0
667,76.0,1,65,0.0,114.0
668,73.0,68,67,0.0,116.0
669,78.0,1,57,0.0,114.0
670,81.0,67,65,0.0,118.0
671,80.0,68,65,0.0,118.0
672,74.0,70,265,0.0,116.0
673,73.0,1,63,0.0,120.0
674,76.0,68,65,0.0,118.0
675,71.0,1,63,0.0,120.0
676,74.0,68,65,0.0,120.0
677,45.0,0,469,2.0,127.0
678,49.0,69,65,1.0,127.0
679,52.0,71,56,1.0,127.0
680,81.0,69,756,0.0,118.0
681,73.0,68,551,0.0,120.0
682,76.0,1,550,0.0,118.0
683,57.0,68,403,1.0,127.0
684,57.0,1510,52,1.0,111.0
685,59.0,60,51,1.0,127.0
686,61.0,59,52,1.0,127.0
687,59.0,60,51,1.0,127.0
688,57.0,59,52,1.0,127.0
689,61.0,60,51,1.0,127.0
690,59.0,59,52,1.0,127.0
691,62.0,60,51,1.0,127.0
692,61.0,59,171,1.0,127.0
693,64.0,179,51,1.0,127.0
694,62.0,60,170,1.0,127.0
695,66.0,178,52,1.0,127.0
696,64.0,60,51,1.0,127.0
697,62.0,59,52,1.0,127.0
698,64.0,60,51,1.0,127.0
699,59.0,59,52,1.0,127.0
700,61.0,60,52,1.0,127.0
701,62.0,59,52,1.0,127.0
702,61.0,60,103,1.0,127.0
703,64.0,119,52,1.0,127.0
704,57.0,0,103,1.0,127.0
705,66.0,59,53,1.0,127.0
706,68.0,61,54,0.0,122.0
707,59.0,0,106,1.0,127.0
708,66.0,61,54,1.0,127.0
709,64.0,62,53,1.0,127.0
710,61.0,0,106,1.0,127.0
711,68.0,61,54,0.0,122.0
712,66.0,62,58,1.0,127.0
713,62.0,0,107,1.0,127.0
714,69.0,62,53,0.0,122.0
715,59.0,1,52,1.0,127.0
716,64.0,61,53,1.0,127.0
717,68.0,61,176,0.0,122.0
718,61.0,62,106,1.0,127.0
719,71.0,61,53,0.0,122.0
720,66.0,0,58,1.0,127.0
721,61.0,61,53,1.0,127.0
722,69.0,62,176,0.0,122.0
723,63.0,61,107,1.0,127.0
724,73.0,62,53,0.0,122.0
725,71.0,61,54,0.0,122.0
726,69.0,63,57,0.0,122.0
727,71.0,61,58,0.0,122.0
728,64.0,0,230,1.0,127.0
729,66.0,62,57,1.0,127.0
730,68.0,61,52,0.0,122.0
731,63.0,1,105,1.0,127.0
732,69.0,61,53,0.0,122.0
733,68.0,61,59,0.0,122.0
734,71.0,61,59,0.0,122.0
735,64.0,0,160,1.0,127.0
736,69.0,62,54,0.0,122.0
737,59.0,1,53,1.0,127.0
738,68.0,61,55,0.0,122.0
739,69.0,62,57,0.0,122.0
740,61.0,0,106,1.0,127.0
741,64.0,61,53,1.0,127.0
742,66.0,62,52,1.0,127.0
743,57.0,0,106,1.0,127.0
744,67.0,61,53,1.0,127.0
745,66.0,1,57,1.0,127.0
746,69.0,61,59,0.0,126.0
747,62.0,61,161,1.0,127.0
748,68.0,61,59,0.0,126.0
749,57.0,0,55,1.0,127.0
750,66.0,62,59,1.0,127.0
751,68.0,63,61,0.0,126.0
752,59.0,1,109,1.0,127.0
753,63.0,62,55,1.0,127.0
754,64.0,0,56,1.0,127.0
755,56.0,64,110,1.0,127.0
756,66.0,64,55,1.0,127.0
757,61.0,0,55,1.0,127.0
758,62.0,64,55,1.0,127.0
759,61.0,1,54,1.0,127.0
760,69.0,63,55,0.0,126.0
761,59.0,0,53,1.0,127.0
762,71.0,63,54,0.0,124.0
763,73.0,62,54,0.0,124.0
764,64.0,64,345,1.0,127.0
765,71.0,61,54,0.0,124.0
766,57.0,0,161,1.0,127.0
767,69.0,63,54,0.0,126.0
768,66.0,0,107,1.0,127.0
769,57.0,1,54,1.0,127.0
770,73.0,61,55,0.0,124.0
771,71.0,0,53,0.0,124.0
772,74.0,61,56,0.0,124.0
773,64.0,1,164,1.0,127.0
774,68.0,62,165,0.0,126.0
775,52.0,0,55,1.0,127.0
776,68.0,64,56,0.0,126.0
777,73.0,65,182,0.0,124.0
778,76.0,60,54,0.0,122.0
779,54.0,1,158,1.0,127.0
780,69.0,64,160,0.0,126.0
781,66.0,0,53,1.0,127.0
782,69.0,62,54,0.0,126.0
783,74.0,62,177,0.0,124.0
784,78.0,61,58,0.0,117.0
785,76.0,61,58,0.0,117.0
786,71.0,1,214,0.0,122.0
787,68.0,61,216,0.0,126.0
788,74.0,62,57,0.0,119.0
789,76.0,61,52,0.0,117.0
790,71.0,60,53,0.0,122.0
791,73.0,62,53,0.0,122.0
792,64.0,1,104,1.0,127.0
793,68.0,0,106,0.0,126.0
794,74.0,59,54,0.0,119.0
795,73.0,0,53,0.0,122.0
796,57.0,1,105,1.0,127.0
797,69.0,62,106,0.0,126.0
798,74.0,60,59,0.0,119.0
799,76.0,63,57,0.0,117.0
800,59.0,1,105,1.0,127.0
801,68.0,0,107,0.0,126.0
802,78.0,60,53,0.0,115.0
803,76.0,0,51,0.0,117.0
804,61.0,1,103,1.0,127.0
805,69.0,62,105,0.0,126.0
806,81.0,59,57,0.0,115.0
807,80.0,61,56,0.0,115.0
808,63.0,0,104,1.0,127.0
809,71.0,0,105,0.0,122.0
810,78.0,60,52,0.0,115.0
811,80.0,60,52,0.0,113.0
812,64.0,0,104,1.0,127.0
813,78.0,60,52,0.0,113.0
814,52.0,1,51,1.0,127.0
815,76.0,60,53,0.0,115.0
816,54.0,0,53,1.0,127.0
817,75.0,60,53,0.0,115.0
818,56.0,1,51,1.0,127.0
819,71.0,1,294,0.0,122.0
820,54.0,0,52,1.0,127.0
821,69.0,60,52,0.0,126.0
822,52.0,0,51,1.0,127.0
823,68.0,60,52,0.0,126.0
824,56.0,0,52,1.0,127.0
825,71.0,60,52,0.0,124.0
826,54.0,1,51,1.0,127.0
827,69.0,59,53,0.0,126.0
828,66.0,0,52,1.0,127.0
829,57.0,60,52,1.0,127.0
830,76.0,60,397,0.0,117.0
831,75.0,60,52,0.0,119.0
832,56.0,1,171,1.0,127.0
833,71.0,59,173,0.0,124.0
834,59.0,0,52,1.0,127.0
835,68.0,61,52,0.0,126.0
836,76.0,59,157,0.0,119.0
837,75.0,60,52,0.0,122.0
838,57.0,1,172,1.0,127.0
839,73.0,59,225,0.0,124.0
840,61.0,60,52,1.0,127.0
841,76.0,60,156,0.0,122.0
842,59.0,0,50,1.0,127.0
843,57.0,1,50,1.0,127.0
844,73.0,59,51,0.0,124.0
845,59.0,0,51,1.0,127.0
846,54.0,59,52,1.0,127.0
847,66.0,61,273,1.0,127.0
848,56.0,60,51,1.0,127.0
849,66.0,1,51,1.0,127.0
850,57.0,59,52,1.0,127.0
851,56.0,0,51,1.0,127.0
852,59.0,59,52,1.0,127.0
853,74.0,59,392,0.0,124.0
854,57.0,60,51,1.0,127.0
855,56.0,0,51,1.0,127.0
856,72.0,60,51,0.0,124.0
857,57.0,1,50,1.0,127.0
858,52.0,59,50,1.0,127.0
859,64.0,59,392,1.0,127.0
860,54.0,59,51,1.0,127.0
861,64.0,0,51,1.0,127.0
862,56.0,59,52,1.0,127.0
863,54.0,59,51,1.0,127.0
864,57.0,58,52,1.0,127.0
865,73.0,59,391,0.0,124.0
866,56.0,59,51,1.0,127.0
867,54.0,0,52,1.0,127.0
868,70.0,59,52,0.0,126.0
869,56.0,1,50,1.0,127.0
870,51.0,58,51,1.0,127.0
871,63.0,1,387,1.0,127.0
872,53.0,58,51,1.0,127.0
873,62.0,0,51,1.0,127.0
874,54.0,59,51,1.0,127.0
875,53.0,0,51,1.0,127.0
876,71.0,59,287,0.0,126.0
877,49.0,1,51,1.0,127.0
878,65.0,59,52,1.0,127.0
879,51.0,0,52,1.0,127.0
880,66.0,59,53,1.0,127.0
881,53.0,1,51,1.0,127.0
882,68.0,60,52,0.0,126.0
883,69.0,59,52,0.0,126.0
884,61.0,59,329,1.0,127.0
885,68.0,60,52,0.0,126.0
886,54.0,0,156,1.0,127.0
887,66.0,60,52,1.0,127.0
888,63.0,0,103,1.0,127.0
889,54.0,1,51,1.0,127.0
890,69.0,60,52,0.0,126.0
891,68.0,59,50,0.0,126.0
892,71.0,58,51,0.0,124.0
893,61.0,1,153,1.0,127.0
894,65.0,0,155,1.0,127.0
895,65.0,1,50,1.0,127.0
896,49.0,59,52,1.0,127.0
897,69.0,60,171,0.0,126.0
898,73.0,59,52,0.0,124.0
899,66.0,59,155,1.0,127.0
900,50.0,0,156,1.0,127.0
901,66.0,1,51,1.0,127.0
902,51.0,60,53,1.0,127.0
903,71.0,60,173,0.0,124.0
904,74.0,60,51,0.0,124.0
905,52.0,1,155,1.0,127.0
906,73.0,59,53,0.0,124.0
907,68.0,59,210,0.0,126.0
908,56.0,1,51,1.0,127.0
909,71.0,60,53,0.0,124.0
910,73.0,59,52,0.0,124.0
911,53.0,1,102,1.0,127.0
912,68.0,59,51,0.0,126.0
913,69.0,59,53,0.0,126.0
914,49.0,0,104,1.0,127.0
915,71.0,61,51,0.0,124.0
916,68.0,60,51,0.0,126.0
917,54.0,1,155,1.0,127.0
918,66.0,59,53,1.0,127.0
919,65.0,0,52,1.0,127.0
920,56.0,61,52,1.0,127.0
921,66.0,1,52,1.0,127.0
922,57.0,59,105,1.0,127.0
923,61.0,60,52,1.0,127.0
924,63.0,1,52,1.0,127.0
925,54.0,59,105,1.0,127.0
926,64.0,60,53,1.0,127.0
927,69.0,59,533,0.0,126.0
928,73.0,59,52,0.0,124.0
929,47.0,1,155,2.0,127.0
930,71.0,59,52,0.0,124.0
931,49.0,0,52,1.0,127.0
932,69.0,60,52,0.0,126.0
933,71.0,59,52,0.0,124.0
934,51.0,1,102,1.0,127.0
935,66.0,59,52,1.0,127.0
936,68.0,59,51,0.0,126.0
937,47.0,1,101,2.0,127.0
938,69.0,58,51,0.0,126.0
939,63.0,60,525,1.0,127.0
940,56.0,59,51,1.0,127.0
941,52.0,1,154,1.0,127.0
942,61.0,59,51,1.0,127.0
943,63.0,1,51,1.0,127.0
944,51.0,59,52,1.0,127.0
945,64.0,0,51,1.0,127.0
946,63.0,59,52,1.0,127.0
947,49.0,60,154,1.0,127.0
948,61.0,60,51,1.0,127.0
949,64.0,1,52,1.0,127.0
950,61.0,59,53,1.0,127.0
951,63.0,0,51,1.0,127.0
952,60.0,60,52,1.0,127.0
953,66.0,1,51,1.0,127.0
954,56.0,60,52,1.0,127.0
955,68.0,58,634,0.0,126.0
956,61.0,0,51,1.0,127.0
957,59.0,0,52,1.0,127.0
958,68.0,60,52,0.0,126.0
959,57.0,1,51,1.0,127.0
960,64.0,60,173,1.0,127.0
961,56.0,0,52,1.0,127.0
962,68.0,60,52,0.0,126.0
963,73.0,60,157,0.0,121.0
964,57.0,60,51,1.0,127.0
965,54.0,1,50,1.0,127.0
966,75.0,60,51,0.0,121.0
967,66.0,0,170,1.0,127.0
968,72.0,58,102,0.0,121.0
969,69.0,59,50,0.0,126.0
970,56.0,1,153,1.0,127.0
971,68.0,59,50,0.0,126.0
972,66.0,1,50,1.0,127.0
973,51.0,58,51,1.0,127.0
974,68.0,1,50,0.0,126.0
975,48.0,0,100,2.0,127.0
976,63.0,58,50,1.0,127.0
977,64.0,59,51,1.0,127.0
978,44.0,1,100,2.0,127.0
979,66.0,58,50,1.0,127.0
980,75.0,59,287,0.0,121.0
981,72.0,58,49,0.0,121.0
982,64.0,1,150,1.0,127.0
983,73.0,57,51,0.0,121.0
984,56.0,0,51,1.0,127.0
985,75.0,59,51,0.0,121.0
986,73.0,59,52,0.0,121.0
987,58.0,0,104,1.0,127.0
988,78.0,60,51,0.0,121.0
989,76.0,60,51,0.0,121.0
990,60.0,0,103,1.0,127.0
991,75.0,59,52,0.0,121.0
992,61.0,0,51,1.0,127.0
993,49.0,59,575,1.0,127.0
994,63.0,59,52,1.0,127.0
995,61.0,60,51,1.0,127.0
996,60.0,59,51,1.0,127.0
997,61.0,59,52,1.0,127.0
998,56.0,59,52,1.0,127.0
999,58.0,60,52,1.0,127.0
1000,59.0,59,52,1.0,127.0
1001,76.0,60,528,0.0,121.0
1002,58.0,61,103,1.0,127.0
1003,79.0,59,52,0.0,119.0
1004,78.0,61,52,0.0,119.0
1005,61.0,1,51,1.0,127.0
1006,76.0,59,53,0.0,119.0
1007,78.0,59,52,0.0,119.0
1008,58.0,0,103,1.0,127.0
1009,73.0,58,52,0.0,119.0
1010,74.0,60,52,0.0,119.0
1011,54.0,0,103,1.0,127.0
1012,76.0,59,51,0.0,119.0
1013,73.0,59,50,0.0,119.0
1014,59.0,0,153,1.0,127.0
1015,71.0,59,50,0.0,121.0
1016,54.0,0,50,1.0,127.0
1017,70.0,59,50,0.0,124.0
1018,71.0,57,51,0.0,121.0
1019,50.0,1,101,1.0,127.0
1020,66.0,58,51,1.0,127.0
1021,68.0,59,50,0.0,126.0
1022,47.0,0,101,2.0,127.0
1023,69.0,58,51,0.0,126.0
1024,74.0,59,519,0.0,119.0
1025,78.0,58,51,0.0,119.0
1026,52.0,1,152,1.0,127.0
1027,76.0,59,50,0.0,119.0
1028,47.0,1,50,2.0,127.0
1029,74.0,58,51,0.0,119.0
1030,76.0,58,51,0.0,119.0
1031,44.0,1,100,2.0,127.0
1032,71.0,58,50,0.0,121.0
1033,73.0,58,51,0.0,119.0
1034,68.0,58,440,0.0,126.0
1035,40.0,1,100,2.0,127.0
1036,74.0,58,50,0.0,119.0
1037,33.0,0,49,2.0,127.0
1038,73.0,58,50,0.0,119.0
1039,69.0,1,99,0.0,126.0
1040,40.0,0,49,2.0,127.0
1041,74.0,57,50,0.0,119.0
1042,45.0,0,50,2.0,127.0
1043,73.0,58,50,0.0,119.0
1044,47.0,1,49,2.0,127.0
1045,71.0,57,50,0.0,121.0
1046,49.0,0,50,1.0,127.0
1047,69.0,57,50,0.0,126.0
1048,47.0,1,49,2.0,127.0
1049,68.0,57,51,0.0,126.0
1050,45.0,0,49,2.0,127.0
1051,66.0,57,50,1.0,127.0
1052,49.0,0,50,1.0,127.0
1053,64.0,58,50,1.0,127.0
1054,47.0,1,50,2.0,127.0
1055,62.0,57,51,1.0,127.0
1056,50.0,0,51,1.0,127.0
1057,66.0,58,51,1.0,127.0
1058,68.0,58,51,0.0,126.0
1059,71.0,58,51,0.0,121.0
1060,64.0,58,51,1.0,127.0
1061,49.0,1,168,1.0,127.0
1062,52.0,0,50,1.0,127.0
1063,68.0,60,50,0.0,126.0
1064,70.0,59,49,0.0,124.0
1065,73.0,58,50,0.0,121.0
1066,50.0,0,167,1.0,127.0
1067,54.0,58,51,1.0,127.0
1068,52.0,59,51,1.0,127.0
1069,66.0,1,50,1.0,127.0
1070,51.0,58,52,1.0,127.0
1071,52.0,0,51,1.0,127.0
1072,47.0,58,51,2.0,127.0
1073,71.0,58,387,0.0,121.0
1074,49.0,59,51,1.0,127.0
1075,50.0,0,50,1.0,127.0
1076,71.0,59,51,0.0,123.0
1077,49.0,1,50,1.0,127.0
1078,52.0,58,51,1.0,127.0
1079,67.0,58,387,1.0,127.0
1080,50.0,58,51,1.0,127.0
1081,65.0,0,51,1.0,127.0
1082,49.0,59,51,1.0,127.0
1083,50.0,1,50,1.0,127.0
1084,45.0,58,50,2.0,127.0
1085,69.0,58,386,0.0,126.0
1086,47.0,58,50,2.0,127.0
1087,49.0,1,49,1.0,127.0
1088,69.0,58,51,0.0,126.0
1089,47.0,1,50,2.0,127.0
1090,50.0,57,50,1.0,127.0
1091,66.0,58,383,1.0,127.0
1092,49.0,58,50,1.0,127.0
1093,47.0,1,49,2.0,127.0
1094,63.0,57,51,1.0,127.0
1095,49.0,0,49,1.0,127.0
1096,44.0,57,50,2.0,127.0
1097,68.0,57,381,0.0,126.0
1098,46.0,58,49,2.0,127.0
1099,47.0,1,49,2.0,127.0
1100,67.0,57,50,1.0,127.0
1101,46.0,0,50,2.0,127.0
1102,64.0,58,330,1.0,127.0
1103,42.0,59,49,2.0,127.0
1104,44.0,1,49,2.0,127.0
1105,62.0,58,51,1.0,127.0
1106,66.0,57,204,1.0,127.0
1107,46.0,0,50,2.0,127.0
1108,61.0,58,50,1.0,127.0
1109,44.0,1,50,2.0,127.0
1110,59.0,58,51,1.0,127.0
1111,58.0,0,51,1.0,127.0
1112,49.0,58,51,1.0,127.0
1113,47.0,1,50,2.0,127.0
1114,56.0,58,52,1.0,127.0
1115,46.0,0,50,2.0,127.0
1116,54.0,58,51,1.0,127.0
1117,47.0,0,50,2.0,127.0
1118,62.0,1,51,1.0,127.0
1119,61.0,0,51,1.0,127.0
1120,49.0,58,51,1.0,127.0
1121,59.0,0,50,1.0,127.0
1122,50.0,59,51,1.0,127.0
1123,66.0,58,206,1.0,127.0
1124,52.0,58,51,1.0,127.0
1125,58.0,1,50,1.0,127.0
1126,59.0,0,51,1.0,127.0
1127,50.0,58,51,1.0,127.0
1128,64.0,1,50,1.0,127.0
1129,55.0,58,52,1.0,127.0
1130,62.0,0,51,1.0,127.0
1131,54.0,58,51,1.0,127.0
1132,61.0,1,50,1.0,127.0
1133,52.0,58,52,1.0,127.0
1134,62.0,0,51,1.0,127.0
1135,54.0,58,51,1.0,127.0
1136,56.0,1,51,1.0,127.0
1137,74.0,59,53,0.0,122.0
1138,57.0,0,52,1.0,127.0
1139,73.0,59,52,0.0,124.0
1140,59.0,1,51,1.0,127.0
1141,71.0,59,53,0.0,124.0
1142,57.0,1,50,1.0,127.0
1143,73.0,59,51,0.0,124.0
1144,62.0,0,51,1.0,127.0
1145,68.0,58,52,0.0,126.0
1146,61.0,1,50,1.0,127.0
1147,69.0,59,51,0.0,126.0
1148,59.0,0,50,1.0,127.0
1149,71.0,59,51,0.0,124.0
1150,61.0,1,51,1.0,127.0
1151,57.0,0,52,1.0,127.0
1152,73.0,59,52,0.0,124.0
1153,59.0,1,51,1.0,127.0
1154,74.0,59,53,0.0,120.0
1155,61.0,0,51,1.0,127.0
1156,76.0,59,51,0.0,120.0
1157,78.0,59,51,0.0,118.0
1158,69.0,58,326,0.0,126.0
1159,76.0,58,51,0.0,120.0
1160,62.0,1,151,1.0,127.0
1161,74.0,58,51,0.0,118.0
1162,71.0,1,100,0.0,124.0
1163,50.0,0,51,1.0,127.0
1164,78.0,58,51,0.0,116.0
1165,76.0,58,51,0.0,118.0
1166,79.0,58,50,0.0,116.0
1167,57.0,1,150,1.0,127.0
1168,73.0,1,152,0.0,122.0
1169,58.0,0,49,1.0,127.0
1170,73.0,59,50,0.0,122.0
1171,78.0,58,167,0.0,118.0
1172,81.0,58,49,0.0,118.0
1173,59.0,1,150,1.0,127.0
1174,74.0,58,152,0.0,120.0
1175,47.0,0,49,2.0,127.0
1176,75.0,59,50,0.0,120.0
1177,79.0,58,168,0.0,118.0
1178,83.0,58,50,0.0,116.0
1179,48.0,1,152,2.0,127.0
1180,81.0,59,51,0.0,116.0
1181,60.0,1,50,1.0,127.0
1182,80.0,59,51,0.0,116.0
1183,81.0,59,50,0.0,116.0
1184,76.0,59,51,0.0,120.0
1185,61.0,0,154,1.0,127.0
1186,78.0,60,51,0.0,116.0
1187,57.0,1,52,1.0,127.0
1188,79.0,59,53,0.0,116.0
1189,62.0,0,51,1.0,127.0
1190,61.0,1,50,1.0,127.0
1191,76.0,59,52,0.0,120.0
1192,59.0,0,51,1.0,127.0
1193,74.0,57,51,0.0,120.0
1194,57.0,1,50,1.0,127.0
1195,73.0,58,52,0.0,122.0
1196,59.0,0,50,1.0,127.0
1197,74.0,58,50,0.0,120.0
1198,54.0,1,50,1.0,127.0
1199,69.0,57,52,0.0,126.0
1200,56.0,0,51,1.0,127.0
1201,71.0,59,51,0.0,124.0
1202,57.0,0,50,1.0,127.0
1203,73.0,59,51,0.0,124.0
1204,56.0,1,50,1.0,127.0
1205,78.0,60,519,0.0,116.0
1206,57.0,0,50,1.0,127.0
1207,78.0,58,50,0.0,120.0
1208,56.0,1,50,1.0,127.0
1209,76.0,57,52,0.0,122.0
1210,54.0,0,51,1.0,127.0
1211,75.0,59,51,0.0,122.0
1212,56.0,1,51,1.0,127.0
1213,76.0,58,53,0.0,124.0
1214,59.0,0,51,1.0,127.0
1215,71.0,59,51,0.0,124.0
1216,57.0,1,51,1.0,127.0
1217,73.0,58,53,0.0,124.0
1218,56.0,1,51,1.0,127.0
1219,74.0,58,52,0.0,124.0
1220,57.0,0,50,1.0,127.0
1221,56.0,1,50,1.0,127.0
1222,71.0,58,51,0.0,124.0
1223,54.0,0,51,1.0,127.0
1224,69.0,58,51,0.0,126.0
1225,52.0,1,50,1.0,127.0
1226,68.0,58,52,0.0,126.0
1227,54.0,0,51,1.0,127.0
1228,69.0,58,51,0.0,126.0
1229,64.0,1,50,1.0,127.0
1230,49.0,58,52,1.0,127.0
1231,66.0,0,51,1.0,127.0
1232,51.0,58,51,1.0,127.0
1233,67.0,0,50,1.0,127.0
1234,52.0,60,51,1.0,127.0
1235,51.0,58,51,1.0,127.0
1236,73.0,59,521,0.0,124.0
1237,52.0,0,50,1.0,127.0
1238,72.0,58,51,0.0,124.0
1239,51.0,1,50,1.0,127.0
1240,71.0,58,51,0.0,124.0
1241,49.0,1,50,1.0,127.0
1242,70.0,58,51,0.0,126.0
1243,51.0,0,50,1.0,127.0
1244,71.0,58,51,0.0,124.0
1245,54.0,1,49,1.0,127.0
1246,66.0,58,50,1.0,127.0
1247,52.0,0,50,1.0,127.0
1248,68.0,57,51,0.0,126.0
1249,51.0,1,49,1.0,127.0
1250,69.0,58,50,0.0,126.0
1251,59.0,58,49,1.0,127.0
1252,52.0,0,150,1.0,127.0
1253,68.0,57,151,0.0,126.0
1254,64.0,57,51,1.0,127.0
1255,40.0,1,50,2.0,127.0
1256,66.0,0,51,1.0,127.0
1257,69.0,59,51,0.0,126.0
1258,68.0,1,50,0.0,126.0
1259,66.0,58,51,1.0,127.0
1260,52.0,0,151,1.0,127.0
1261,71.0,57,153,0.0,124.0
1262,64.0,58,51,1.0,127.0
1263,46.0,1,50,2.0,127.0
1264,67.0,0,51,1.0,127.0
1265,73.0,59,52,0.0,124.0
1266,66.0,0,50,1.0,127.0
1267,69.0,57,51,0.0,126.0
1268,47.0,1,151,2.0,127.0
1269,74.0,58,153,0.0,124.0
1270,59.0,1,50,1.0,127.0
1271,75.0,58,52,0.0,124.0
1272,68.0,59,168,0.0,126.0
1273,71.0,58,51,0.0,124.0
1274,61.0,0,151,1.0,127.0
1275,76.0,58,152,0.0,120.0
1276,49.0,1,50,1.0,127.0
1277,77.0,58,52,0.0,120.0
1278,69.0,59,168,0.0,126.0
1279,73.0,58,50,0.0,124.0
1280,50.0,1,151,1.0,127.0
1281,71.0,58,51,0.0,124.0
1282,62.0,0,51,1.0,127.0
1283,69.0,59,51,0.0,126.0
1284,71.0,58,51,0.0,121.0
1285,66.0,58,51,1.0,127.0
1286,63.0,1,152,1.0,127.0
1287,68.0,58,51,0.0,126.0
1288,51.0,0,51,1.0,127.0
1289,69.0,59,51,0.0,126.0
1290,68.0,59,51,0.0,126.0
1291,78.0,58,521,0.0,120.0
1292,52.0,0,102,1.0,127.0
1293,75.0,59,51,0.0,119.0
1294,69.0,1,50,0.0,126.0
1295,68.0,0,51,0.0,126.0
1296,76.0,58,52,0.0,113.0
1297,66.0,1,49,1.0,127.0
1298,78.0,59,51,0.0,113.0
1299,68.0,0,50,0.0,126.0
1300,76.0,58,50,0.0,113.0
1301,63.0,1,50,1.0,127.0
1302,81.0,57,52,0.0,113.0
1303,64.0,0,51,1.0,127.0
1304,80.0,58,51,0.0,113.0
1305,66.0,0,50,1.0,127.0
1306,78.0,59,51,0.0,113.0
1307,80.0,58,52,0.0,113.0
1308,64.0,1,102,1.0,127.0
1309,54.0,0,51,1.0,127.0
1310,78.0,58,52,0.0,113.0
1311,56.0,1,50,1.0,127.0
1312,76.0,59,51,0.0,113.0
1313,57.0,1,49,1.0,127.0
1314,75.0,58,51,0.0,119.0
1315,56.0,0,50,1.0,127.0
1316,76.0,58,51,0.0,113.0
1317,59.0,0,50,1.0,127.0
1318,71.0,58,50,0.0,121.0
1319,57.0,0,50,1.0,127.0
1320,73.0,58,51,0.0,122.0
1321,56.0,1,49,1.0,127.0
1322,74.0,58,50,0.0,122.0
1323,73.0,57,49,0.0,122.0
1324,62.0,0,49,1.0,127.0
1325,68.0,58,49,0.0,126.0
1326,61.0,1,49,1.0,127.0
1327,69.0,57,50,0.0,126.0
1328,57.0,0,203,1.0,127.0
1329,59.0,0,51,1.0,127.0
1330,71.0,57,51,0.0,124.0
1331,61.0,1,49,1.0,127.0
1332,69.0,58,51,0.0,126.0
1333,56.0,0,50,1.0,127.0
1334,74.0,57,51,0.0,124.0
1335,57.0,1,49,1.0,127.0
1336,73.0,58,51,0.0,124.0
1337,59.0,1,49,1.0,127.0
1338,71.0,57,50,0.0,124.0
1339,73.0,57,50,0.0,124.0
1340,57.0,0,100,1.0,127.0
1341,47.0,1,49,2.0,127.0
1342,71.0,57,51,0.0,124.0
1343,49.0,0,51,1.0,127.0
1344,69.0,57,51,0.0,126.0
1345,50.0,1,49,1.0,127.0
1346,68.0,58,51,0.0,126.0
1347,49.0,1,50,1.0,127.0
1348,69.0,57,51,0.0,126.0
1349,52.0,0,50,1.0,127.0
1350,64.0,58,50,1.0,127.0
1351,50.0,1,49,1.0,127.0
1352,66.0,57,51,1.0,127.0
1353,49.0,0,50,1.0,127.0
1354,67.0,57,50,1.0,127.0
1355,50.0,1,49,1.0,127.0
1356,66.0,57,51,1.0,127.0
1357,49.0,0,50,1.0,127.0
1358,69.0,57,50,0.0,126.0
1359,47.0,0,50,2.0,127.0
1360,71.0,58,50,0.0,124.0
1361,45.0,1,49,2.0,127.0
1362,73.0,57,51,0.0,124.0
1363,47.0,0,50,2.0,127.0
1364,42.0,1,49,2.0,127.0
1365,69.0,57,51,0.0,126.0
1366,44.0,0,50,2.0,127.0
1367,68.0,57,50,0.0,126.0
1368,45.0,0,49,2.0,127.0
1369,66.0,58,49,1.0,127.0
1370,44.0,1,49,2.0,127.0
1371,74.0,57,280,0.0,124.0
1372,40.0,0,49,2.0,127.0
1373,68.0,57,49,0.0,126.0
1374,42.0,1,48,2.0,127.0
1375,69.0,56,50,0.0,126.0
1376,44.0,1,48,2.0,127.0
1377,71.0,56,50,0.0,124.0
1378,45.0,0,49,2.0,127.0
1379,73.0,56,49,0.0,124.0
1380,47.0,1,48,2.0,127.0
1381,71.0,56,50,0.0,124.0
1382,64.0,56,376,1.0,127.0
1383,49.0,0,49,1.0,127.0
1384,69.0,57,49,0.0,126.0
1385,45.0,1,48,2.0,127.0
1386,66.0,0,49,1.0,127.0
1387,73.0,57,50,0.0,124.0
1388,71.0,55,50,0.0,124.0
1389,74.0,56,50,0.0,124.0
1390,52.0,1,149,1.0,127.0
1391,68.0,1,150,0.0,126.0
1392,40.0,1,50,2.0,127.0
1393,68.0,58,51,0.0,126.0
1394,73.0,57,167,0.0,124.0
1395,76.0,57,49,0.0,124.0
1396,42.0,1,148,2.0,127.0
1397,69.0,58,150,0.0,126.0
1398,54.0,0,49,1.0,127.0
1399,69.0,58,50,0.0,126.0
1400,56.0,0,50,1.0,127.0
1401,74.0,57,166,0.0,124.0
1402,57.0,1,50,1.0,127.0
1403,78.0,57,51,0.0,124.0
1404,56.0,0,50,1.0,127.0
1405,76.0,58,51,0.0,124.0
1406,71.0,58,204,0.0,124.0
1407,54.0,1,50,1.0,127.0
1408,75.0,59,51,0.0,124.0
1409,52.0,0,51,1.0,127.0
1410,76.0,58,51,0.0,124.0
1411,50.0,1,50,1.0,127.0
1412,71.0,58,52,0.0,124.0
1413,49.0,0,50,1.0,127.0
1414,73.0,58,51,0.0,124.0
1415,47.0,1,51,2.0,127.0
1416,74.0,59,52,0.0,124.0
1417,45.0,0,106,2.0,127.0
1418,69.0,60,53,0.0,126.0
1419,73.0,59,159,0.0,124.0
1420,68.0,62,54,0.0,126.0
1421,50.0,0,107,1.0,127.0
1422,66.0,1,53,1.0,127.0
1423,71.0,62,54,0.0,124.0
1424,64.0,0,55,1.0,127.0
1425,62.0,63,56,1.0,127.0
1426,68.0,61,168,0.0,126.0
1427,61.0,64,58,1.0,127.0
1428,52.0,1,227,1.0,127.0
1429,59.0,0,58,1.0,127.0
1430,69.0,67,59,0.0,126.0
1431,45.0,1,756,2.0,119.0
1432,69.0,67,758,0.0,126.0
1433,61.0,0,762,1.0,115.0
