,note,step,duration,channel,velocity
0,62.0,0,192,0.0,88.0
1,60.0,192,96,0.0,88.0
2,65.0,96,96,0.0,88.0
3,59.0,96,96,0.0,88.0
4,58.0,96,96,0.0,88.0
5,57.0,96,96,0.0,88.0
6,62.0,96,96,0.0,88.0
7,57.0,96,24,0.0,88.0
8,55.0,24,24,0.0,88.0
9,57.0,24,24,0.0,88.0
10,55.0,24,24,0.0,88.0
11,57.0,24,24,0.0,88.0
12,55.0,24,24,0.0,88.0
13,53.0,24,24,0.0,88.0
14,55.0,24,24,0.0,88.0
15,53.0,24,96,0.0,88.0
16,55.0,96,96,0.0,88.0
17,57.0,96,48,0.0,88.0
18,55.0,48,48,0.0,88.0
19,57.0,48,96,0.0,88.0
20,50.0,96,96,0.0,88.0
21,62.0,96,96,0.0,72.0
22,60.0,96,96,0.0,72.0
23,59.0,96,96,0.0,72.0
24,60.0,96,96,0.0,72.0
25,65.0,96,96,0.0,72.0
26,64.0,96,96,0.0,72.0
27,57.0,0,192,0.0,88.0
28,63.0,96,96,0.0,72.0
29,55.0,96,96,0.0,88.0
30,64.0,0,192,0.0,72.0
31,60.0,96,96,0.0,88.0
32,62.0,48,48,0.0,72.0
33,54.0,96,96,0.0,88.0
34,60.0,0,48,0.0,72.0
35,53.0,48,96,0.0,88.0
36,59.0,48,48,0.0,72.0
37,52.0,48,96,0.0,88.0
38,57.0,96,96,0.0,88.0
39,60.0,0,192,0.0,72.0
40,52.0,96,24,0.0,88.0
41,50.0,24,24,0.0,88.0
42,52.0,24,24,0.0,88.0
43,59.0,0,48,0.0,72.0
44,50.0,24,24,0.0,88.0
45,52.0,0,24,0.0,88.0
46,57.0,24,48,0.0,72.0
47,50.0,24,24,0.0,88.0
48,48.0,24,24,0.0,88.0
49,56.0,0,48,0.0,72.0
50,50.0,24,24,0.0,88.0
51,57.0,24,48,0.0,72.0
52,60.0,48,48,0.0,72.0
53,48.0,0,96,0.0,88.0
54,59.0,48,48,0.0,72.0
55,62.0,48,48,0.0,72.0
56,50.0,0,96,0.0,88.0
57,52.0,0,48,0.0,88.0
58,56.0,48,48,0.0,72.0
59,50.0,48,48,0.0,88.0
60,65.0,0,48,0.0,72.0
61,64.0,0,48,0.0,72.0
62,62.0,48,48,0.0,72.0
63,52.0,48,96,0.0,88.0
64,60.0,48,48,0.0,72.0
65,45.0,0,96,0.0,88.0
66,59.0,48,48,0.0,72.0
67,60.0,0,48,0.0,72.0
68,55.0,48,96,0.0,72.0
69,64.0,48,48,0.0,72.0
70,69.0,0,48,0.0,72.0
71,53.0,48,96,0.0,72.0
72,62.0,48,48,0.0,72.0
73,61.0,48,48,0.0,72.0
74,52.0,0,96,0.0,72.0
75,64.0,48,48,0.0,72.0
76,62.0,48,48,0.0,72.0
77,65.0,48,48,0.0,72.0
78,53.0,0,96,0.0,72.0
79,64.0,0,48,0.0,72.0
80,67.0,48,48,0.0,72.0
81,58.0,48,96,0.0,72.0
82,65.0,0,48,0.0,72.0
83,60.0,48,48,0.0,72.0
84,57.0,0,96,0.0,72.0
85,59.0,48,48,0.0,72.0
86,74.0,48,192,0.0,88.0
87,56.0,0,96,0.0,72.0
88,65.0,48,48,0.0,72.0
89,64.0,48,96,0.0,72.0
90,72.0,0,96,0.0,88.0
91,57.0,0,192,0.0,72.0
92,77.0,96,96,0.0,88.0
93,60.0,0,96,0.0,72.0
94,62.0,0,96,0.0,72.0
95,55.0,48,48,0.0,72.0
96,71.0,96,96,0.0,88.0
97,53.0,48,48,0.0,72.0
98,52.0,48,48,0.0,72.0
99,70.0,0,96,0.0,88.0
100,67.0,0,96,0.0,72.0
101,60.0,0,96,0.0,72.0
102,69.0,0,96,0.0,88.0
103,53.0,48,192,0.0,72.0
104,74.0,0,96,0.0,88.0
105,57.0,96,96,0.0,72.0
106,69.0,0,24,0.0,88.0
107,67.0,24,24,0.0,88.0
108,69.0,24,24,0.0,88.0
109,67.0,24,24,0.0,88.0
110,52.0,0,48,0.0,72.0
111,59.0,96,96,0.0,72.0
112,69.0,24,24,0.0,88.0
113,50.0,0,48,0.0,72.0
114,67.0,24,24,0.0,88.0
115,65.0,24,24,0.0,88.0
116,67.0,24,24,0.0,88.0
117,49.0,0,48,0.0,72.0
118,64.0,0,96,0.0,72.0
119,57.0,0,48,0.0,72.0
120,65.0,0,96,0.0,88.0
121,60.0,48,48,0.0,72.0
122,58.0,0,48,0.0,72.0
123,50.0,24,192,0.0,72.0
124,62.0,48,48,0.0,72.0
125,67.0,48,96,0.0,88.0
126,69.0,0,48,0.0,88.0
127,67.0,48,48,0.0,88.0
128,48.0,0,48,0.0,72.0
129,46.0,48,48,0.0,72.0
130,69.0,0,96,0.0,88.0
131,60.0,48,0,0.0,72.0
132,45.0,48,48,0.0,72.0
133,58.0,48,48,0.0,72.0
134,62.0,0,96,0.0,88.0
135,57.0,48,48,0.0,72.0
136,46.0,0,192,0.0,72.0
137,74.0,0,96,0.0,72.0
138,55.0,48,48,0.0,72.0
139,57.0,0,48,0.0,72.0
140,53.0,48,48,0.0,72.0
141,72.0,0,96,0.0,72.0
142,55.0,48,48,0.0,72.0
143,48.0,48,192,0.0,72.0
144,70.0,0,96,0.0,72.0
145,52.0,48,48,0.0,72.0
146,41.0,0,48,0.0,72.0
147,53.0,0,48,0.0,72.0
148,72.0,48,48,0.0,72.0
149,69.0,48,96,0.0,72.0
150,45.0,0,48,0.0,72.0
151,70.0,48,48,0.0,72.0
152,43.0,0,48,0.0,72.0
153,41.0,0,48,0.0,72.0
154,69.0,48,48,0.0,72.0
155,77.0,0,96,0.0,72.0
156,43.0,0,48,0.0,72.0
157,70.0,48,48,0.0,72.0
158,40.0,0,48,0.0,72.0
159,67.0,48,48,0.0,72.0
160,76.0,0,96,0.0,72.0
161,41.0,0,48,0.0,72.0
162,69.0,0,48,0.0,72.0
163,74.0,48,96,0.0,72.0
164,38.0,48,48,0.0,72.0
165,65.0,0,48,0.0,72.0
166,45.0,0,48,0.0,72.0
167,55.0,48,48,0.0,72.0
168,64.0,0,96,0.0,72.0
169,53.0,0,48,0.0,72.0
170,73.0,48,192,0.0,72.0
171,70.0,48,96,0.0,72.0
172,52.0,48,48,0.0,72.0
173,53.0,0,48,0.0,72.0
174,69.0,48,96,0.0,72.0
175,50.0,48,48,0.0,72.0
176,52.0,0,48,0.0,72.0
177,73.0,0,48,0.0,72.0
178,74.0,0,24,0.0,72.0
179,49.0,48,48,0.0,72.0
180,76.0,24,24,0.0,72.0
181,67.0,48,96,0.0,72.0
182,69.0,24,48,0.0,72.0
183,74.0,48,48,0.0,72.0
184,65.0,0,96,0.0,72.0
185,72.0,0,48,0.0,72.0
186,52.0,48,96,0.0,72.0
187,70.0,48,48,0.0,72.0
188,72.0,0,48,0.0,72.0
189,54.0,48,96,0.0,72.0
190,69.0,48,48,0.0,72.0
191,70.0,48,48,0.0,72.0
192,50.0,0,384,0.0,72.0
193,55.0,0,96,0.0,72.0
194,67.0,48,48,0.0,72.0
195,55.0,48,48,0.0,72.0
196,67.0,48,48,0.0,72.0
197,49.0,0,96,0.0,72.0
198,65.0,0,48,0.0,72.0
199,57.0,48,96,0.0,72.0
200,64.0,48,48,0.0,72.0
201,65.0,48,48,0.0,72.0
202,62.0,48,48,0.0,72.0
203,50.0,0,96,0.0,72.0
204,64.0,48,48,0.0,72.0
205,61.0,48,48,0.0,72.0
206,69.0,0,0,0.0,72.0
207,53.0,0,96,0.0,72.0
208,46.0,0,96,0.0,72.0
209,69.0,48,48,0.0,72.0
210,67.0,48,48,0.0,72.0
211,65.0,48,48,0.0,72.0
212,45.0,0,96,0.0,72.0
213,67.0,48,48,0.0,72.0
214,46.0,0,96,0.0,72.0
215,64.0,48,48,0.0,72.0
216,65.0,48,48,0.0,72.0
217,62.0,48,384,0.0,72.0
218,74.0,48,48,0.0,72.0
219,43.0,0,96,0.0,72.0
220,65.0,48,24,0.0,72.0
221,64.0,24,24,0.0,72.0
222,45.0,0,48,0.0,72.0
223,65.0,24,48,0.0,72.0
224,62.0,0,96,0.0,72.0
225,57.0,0,48,0.0,72.0
226,55.0,0,48,0.0,72.0
227,64.0,48,96,0.0,72.0
228,61.0,0,96,0.0,72.0
229,53.0,48,48,0.0,72.0
230,55.0,0,48,0.0,72.0
231,52.0,0,48,0.0,72.0
232,73.0,48,48,0.0,72.0
233,53.0,0,48,0.0,72.0
234,69.0,48,192,0.0,88.0
235,50.0,48,48,0.0,72.0
236,74.0,48,0,0.0,72.0
237,71.0,48,48,0.0,72.0
238,67.0,0,96,0.0,88.0
239,69.0,0,48,0.0,72.0
240,52.0,0,192,0.0,88.0
241,72.0,48,96,0.0,88.0
242,67.0,48,48,0.0,72.0
243,69.0,0,48,0.0,72.0
244,50.0,48,96,0.0,88.0
245,66.0,0,96,0.0,88.0
246,72.0,48,48,0.0,72.0
247,55.0,48,96,0.0,88.0
248,71.0,0,96,0.0,72.0
249,65.0,0,96,0.0,88.0
250,71.0,0,48,0.0,72.0
251,68.0,48,48,0.0,72.0
252,64.0,0,96,0.0,88.0
253,49.0,96,96,0.0,88.0
254,66.0,48,48,0.0,72.0
255,64.0,48,48,0.0,72.0
256,69.0,0,96,0.0,88.0
257,48.0,0,96,0.0,88.0
258,64.0,0,24,0.0,88.0
259,66.0,0,48,0.0,72.0
260,62.0,24,24,0.0,88.0
261,64.0,0,24,0.0,88.0
262,62.0,24,24,0.0,88.0
263,47.0,48,96,0.0,88.0
264,69.0,24,48,0.0,72.0
265,64.0,0,24,0.0,88.0
266,62.0,24,24,0.0,88.0
267,68.0,0,48,0.0,72.0
268,60.0,24,24,0.0,88.0
269,52.0,24,96,0.0,88.0
270,71.0,0,48,0.0,72.0
271,62.0,24,24,0.0,88.0
272,69.0,0,48,0.0,72.0
273,60.0,0,96,0.0,88.0
274,72.0,48,48,0.0,72.0
275,71.0,0,48,0.0,72.0
276,74.0,48,48,0.0,72.0
277,45.0,24,192,0.0,88.0
278,62.0,48,96,0.0,88.0
279,64.0,48,48,0.0,88.0
280,62.0,48,48,0.0,88.0
281,57.0,48,48,0.0,72.0
282,72.0,48,0,0.0,72.0
283,64.0,0,96,0.0,88.0
284,55.0,48,48,0.0,72.0
285,57.0,0,96,0.0,88.0
286,54.0,48,0,0.0,72.0
287,75.0,48,48,0.0,72.0
288,74.0,0,48,0.0,72.0
289,50.0,0,96,0.0,72.0
290,72.0,48,48,0.0,72.0
291,74.0,0,48,0.0,72.0
292,70.0,48,48,0.0,72.0
293,52.0,48,96,0.0,72.0
294,55.0,0,96,0.0,72.0
295,72.0,48,48,0.0,72.0
296,54.0,0,96,0.0,72.0
297,57.0,0,96,0.0,72.0
298,69.0,48,48,0.0,72.0
299,57.0,48,48,0.0,72.0
300,43.0,0,96,0.0,72.0
301,69.0,48,48,0.0,72.0
302,67.0,0,48,0.0,72.0
303,45.0,48,96,0.0,72.0
304,66.0,48,48,0.0,72.0
305,67.0,0,48,0.0,72.0
306,64.0,48,48,0.0,72.0
307,46.0,48,96,0.0,72.0
308,65.0,48,48,0.0,72.0
309,70.0,0,384,0.0,72.0
310,43.0,0,96,0.0,72.0
311,62.0,48,48,0.0,72.0
312,70.0,48,48,0.0,72.0
313,74.0,48,48,0.0,72.0
314,64.0,0,96,0.0,72.0
315,48.0,0,96,0.0,72.0
316,72.0,48,48,0.0,72.0
317,50.0,0,96,0.0,72.0
318,70.0,48,48,0.0,72.0
319,65.0,0,96,0.0,72.0
320,72.0,0,48,0.0,72.0
321,69.0,48,48,0.0,72.0
322,67.0,0,96,0.0,72.0
323,52.0,48,96,0.0,72.0
324,70.0,0,48,0.0,72.0
325,48.0,48,96,0.0,72.0
326,67.0,48,48,0.0,72.0
327,64.0,0,96,0.0,72.0
328,41.0,0,48,0.0,72.0
329,69.0,48,96,0.0,72.0
330,65.0,0,96,0.0,72.0
331,55.0,48,48,0.0,72.0
332,53.0,0,48,0.0,72.0
333,52.0,48,48,0.0,72.0
334,74.0,48,96,0.0,72.0
335,69.0,0,96,0.0,72.0
336,53.0,0,48,0.0,72.0
337,68.0,48,96,0.0,72.0
338,59.0,0,48,0.0,72.0
339,50.0,48,48,0.0,72.0
340,61.0,48,48,0.0,72.0
341,52.0,0,48,0.0,72.0
342,67.0,0,96,0.0,72.0
343,64.0,48,48,0.0,72.0
344,49.0,0,48,0.0,72.0
345,50.0,0,48,0.0,72.0
346,51.0,48,48,0.0,72.0
347,65.0,0,0,0.0,72.0
348,57.0,48,96,0.0,72.0
349,50.0,48,48,0.0,72.0
350,70.0,0,96,0.0,72.0
351,48.0,48,48,0.0,72.0
352,50.0,0,48,0.0,72.0
353,46.0,0,48,0.0,72.0
354,64.0,48,96,0.0,72.0
355,55.0,48,48,0.0,72.0
356,48.0,48,48,0.0,72.0
357,57.0,0,48,0.0,72.0
358,45.0,48,48,0.0,72.0
359,63.0,0,96,0.0,72.0
360,60.0,0,48,0.0,72.0
361,46.0,0,48,0.0,72.0
362,48.0,48,48,0.0,72.0
363,53.0,0,96,0.0,72.0
364,62.0,0,0,0.0,72.0
365,46.0,48,48,0.0,72.0
366,67.0,0,96,0.0,72.0
367,45.0,48,48,0.0,72.0
368,46.0,0,48,0.0,72.0
369,61.0,48,96,0.0,72.0
370,43.0,0,48,0.0,72.0
371,52.0,48,48,0.0,72.0
372,54.0,0,48,0.0,72.0
373,45.0,0,48,0.0,72.0
374,60.0,48,96,0.0,72.0
375,42.0,0,48,0.0,72.0
376,57.0,48,48,0.0,72.0
377,60.0,48,0,0.0,72.0
378,50.0,0,96,0.0,72.0
379,58.0,0,48,0.0,72.0
380,57.0,48,48,0.0,72.0
381,54.0,48,96,0.0,72.0
382,58.0,48,48,0.0,72.0
383,55.0,0,96,0.0,72.0
384,62.0,48,48,0.0,72.0
385,60.0,0,48,0.0,72.0
386,43.0,0,384,0.0,72.0
387,63.0,48,48,0.0,72.0
388,57.0,48,96,0.0,72.0
389,62.0,0,48,0.0,72.0
390,58.0,0,96,0.0,72.0
391,69.0,48,48,0.0,72.0
392,67.0,0,48,0.0,72.0
393,66.0,48,48,0.0,72.0
394,57.0,48,96,0.0,72.0
395,67.0,48,48,0.0,72.0
396,58.0,0,96,0.0,72.0
397,70.0,48,48,0.0,72.0
398,69.0,48,48,0.0,72.0
399,60.0,0,96,0.0,72.0
400,43.0,48,384,0.0,72.0
401,72.0,48,48,0.0,72.0
402,43.0,48,48,0.0,72.0
403,62.0,0,48,0.0,72.0
404,65.0,48,48,0.0,72.0
405,45.0,0,48,0.0,72.0
406,43.0,0,48,0.0,72.0
407,64.0,48,48,0.0,72.0
408,41.0,48,48,0.0,72.0
409,62.0,0,48,0.0,72.0
410,70.0,0,192,0.0,72.0
411,70.0,0,48,0.0,72.0
412,43.0,0,48,0.0,72.0
413,40.0,0,48,0.0,72.0
414,61.0,48,96,0.0,72.0
415,67.0,48,48,0.0,72.0
416,69.0,48,48,0.0,72.0
417,41.0,0,48,0.0,72.0
418,62.0,0,96,0.0,72.0
419,38.0,0,48,0.0,72.0
420,65.0,48,48,0.0,72.0
421,64.0,0,48,0.0,72.0
422,37.0,48,48,0.0,72.0
423,46.0,0,48,0.0,72.0
424,62.0,48,48,0.0,72.0
425,45.0,48,48,0.0,72.0
426,61.0,0,48,0.0,72.0
427,59.0,0,48,0.0,72.0
428,43.0,48,48,0.0,72.0
429,67.0,0,192,0.0,72.0
430,45.0,0,48,0.0,72.0
431,61.0,48,96,0.0,72.0
432,41.0,48,48,0.0,72.0
433,43.0,0,48,0.0,72.0
434,40.0,48,48,0.0,72.0
435,64.0,48,96,0.0,72.0
436,73.0,0,96,0.0,72.0
437,74.0,0,48,0.0,72.0
438,67.0,48,48,0.0,72.0
439,69.0,0,96,0.0,72.0
440,41.0,48,96,0.0,72.0
441,65.0,0,48,0.0,72.0
442,45.0,48,96,0.0,72.0
443,64.0,48,48,0.0,72.0
444,49.0,0,96,0.0,72.0
445,65.0,0,48,0.0,72.0
446,69.0,48,48,0.0,72.0
447,50.0,0,96,0.0,88.0
448,67.0,0,48,0.0,72.0
449,70.0,48,48,0.0,72.0
450,58.0,48,96,0.0,72.0
451,69.0,48,48,0.0,72.0
452,48.0,0,96,0.0,88.0
453,52.0,0,96,0.0,72.0
454,64.0,48,48,0.0,72.0
455,62.0,0,48,0.0,72.0
456,61.0,48,48,0.0,72.0
457,53.0,48,96,0.0,88.0
458,62.0,48,48,0.0,72.0
459,47.0,0,96,0.0,88.0
460,65.0,48,48,0.0,72.0
461,57.0,0,192,0.0,72.0
462,64.0,0,48,0.0,72.0
463,55.0,48,96,0.0,72.0
464,67.0,48,48,0.0,72.0
465,46.0,0,96,0.0,88.0
466,65.0,0,48,0.0,72.0
467,48.0,48,96,0.0,72.0
468,45.0,0,96,0.0,88.0
469,60.0,48,48,0.0,72.0
470,59.0,48,48,0.0,72.0
471,57.0,48,48,0.0,72.0
472,50.0,0,96,0.0,88.0
473,45.0,0,24,0.0,88.0
474,43.0,24,24,0.0,88.0
475,59.0,48,48,0.0,72.0
476,45.0,24,24,0.0,88.0
477,53.0,0,192,0.0,72.0
478,62.0,0,48,0.0,72.0
479,43.0,24,24,0.0,88.0
480,45.0,24,24,0.0,88.0
481,61.0,0,48,0.0,72.0
482,43.0,24,24,0.0,88.0
483,41.0,0,24,0.0,88.0
484,43.0,24,24,0.0,88.0
485,64.0,24,48,0.0,72.0
486,52.0,0,96,0.0,72.0
487,62.0,0,48,0.0,72.0
488,65.0,48,48,0.0,72.0
489,41.0,24,96,0.0,88.0
490,57.0,0,96,0.0,72.0
491,64.0,0,48,0.0,72.0
492,43.0,48,96,0.0,88.0
493,67.0,48,48,0.0,72.0
494,65.0,0,48,0.0,72.0
495,45.0,48,48,0.0,88.0
496,43.0,0,48,0.0,88.0
497,64.0,48,48,0.0,72.0
498,62.0,0,48,0.0,72.0
499,45.0,48,96,0.0,88.0
500,61.0,48,48,0.0,72.0
501,55.0,0,96,0.0,72.0
502,53.0,48,192,0.0,72.0
503,38.0,0,192,0.0,88.0
504,62.0,0,192,0.0,72.0
505,70.0,96,96,0.0,88.0
506,74.0,192,192,0.0,88.0
507,70.0,96,48,0.0,88.0
508,68.0,48,48,0.0,88.0
509,72.0,0,96,0.0,88.0
510,69.0,48,48,0.0,88.0
511,77.0,0,96,0.0,88.0
512,69.0,0,0,0.0,88.0
513,66.0,48,48,0.0,88.0
514,71.0,48,96,0.0,88.0
515,67.0,48,48,0.0,88.0
516,70.0,0,96,0.0,88.0
517,67.0,0,0,0.0,88.0
518,64.0,48,48,0.0,88.0
519,69.0,48,96,0.0,88.0
520,65.0,0,48,0.0,88.0
521,65.0,48,0,0.0,88.0
522,74.0,48,96,0.0,88.0
523,69.0,0,24,0.0,88.0
524,67.0,24,24,0.0,88.0
525,69.0,0,24,0.0,88.0
526,64.0,24,48,0.0,88.0
527,67.0,24,24,0.0,88.0
528,69.0,0,24,0.0,88.0
529,62.0,24,48,0.0,88.0
530,67.0,24,24,0.0,88.0
531,65.0,0,24,0.0,88.0
532,67.0,24,24,0.0,88.0
533,61.0,24,48,0.0,88.0
534,65.0,0,96,0.0,88.0
535,58.0,48,48,0.0,72.0
536,57.0,48,48,0.0,72.0
537,67.0,0,96,0.0,88.0
538,55.0,48,48,0.0,72.0
539,54.0,0,48,0.0,72.0
540,69.0,48,48,0.0,88.0
541,55.0,48,48,0.0,72.0
542,62.0,24,288,0.0,88.0
543,67.0,0,48,0.0,88.0
544,52.0,48,48,0.0,72.0
545,54.0,48,48,0.0,72.0
546,60.0,0,96,0.0,72.0
547,69.0,0,96,0.0,88.0
548,60.0,0,48,0.0,72.0
549,60.0,48,48,0.0,72.0
550,55.0,48,96,0.0,72.0
551,58.0,48,48,0.0,72.0
552,57.0,48,48,0.0,72.0
553,62.0,0,192,0.0,88.0
554,50.0,0,96,0.0,72.0
555,58.0,48,48,0.0,72.0
556,62.0,48,48,0.0,72.0
557,60.0,0,48,0.0,72.0
558,55.0,0,192,0.0,88.0
559,58.0,48,48,0.0,72.0
560,75.0,0,0,0.0,88.0
561,73.0,48,48,0.0,88.0
562,53.0,0,96,0.0,88.0
563,57.0,48,96,0.0,72.0
564,74.0,48,0,0.0,88.0
565,58.0,0,96,0.0,88.0
566,74.0,0,0,0.0,88.0
567,71.0,48,48,0.0,88.0
568,52.0,48,96,0.0,88.0
569,72.0,48,0,0.0,88.0
570,51.0,0,96,0.0,88.0
571,67.0,0,192,0.0,72.0
572,72.0,48,0,0.0,88.0
573,65.0,0,96,0.0,72.0
574,69.0,48,48,0.0,88.0
575,50.0,0,96,0.0,88.0
576,70.0,48,48,0.0,88.0
577,70.0,48,48,0.0,88.0
578,55.0,0,96,0.0,88.0
579,62.0,0,96,0.0,72.0
580,50.0,0,24,0.0,88.0
581,48.0,24,24,0.0,88.0
582,70.0,48,48,0.0,88.0
583,50.0,24,24,0.0,88.0
584,69.0,0,48,0.0,88.0
585,48.0,24,24,0.0,88.0
586,50.0,0,24,0.0,88.0
587,48.0,24,24,0.0,88.0
588,67.0,24,48,0.0,88.0
589,46.0,0,24,0.0,88.0
590,63.0,0,192,0.0,72.0
591,66.0,24,48,0.0,88.0
592,48.0,24,24,0.0,88.0
593,63.0,0,48,0.0,72.0
594,46.0,24,96,0.0,88.0
595,62.0,48,48,0.0,72.0
596,60.0,0,48,0.0,72.0
597,48.0,48,96,0.0,88.0
598,58.0,48,48,0.0,72.0
599,50.0,0,48,0.0,88.0
600,57.0,48,48,0.0,72.0
601,58.0,0,48,0.0,72.0
602,48.0,48,48,0.0,88.0
603,67.0,0,288,0.0,88.0
604,55.0,48,48,0.0,72.0
605,57.0,48,48,0.0,72.0
606,50.0,0,96,0.0,88.0
607,65.0,0,0,0.0,72.0
608,67.0,48,48,0.0,72.0
609,59.0,48,96,0.0,72.0
610,65.0,0,48,0.0,72.0
611,63.0,48,48,0.0,72.0
612,43.0,0,192,0.0,88.0
613,62.0,48,48,0.0,72.0
614,60.0,48,192,0.0,72.0
615,63.0,48,48,0.0,72.0
616,60.0,48,48,0.0,72.0
617,62.0,48,48,0.0,72.0
618,58.0,0,0,0.0,72.0
619,55.0,0,96,0.0,72.0
620,64.0,48,48,0.0,72.0
621,57.0,0,48,0.0,72.0
622,72.0,48,48,0.0,72.0
623,70.0,0,48,0.0,72.0
624,55.0,48,48,0.0,72.0
625,53.0,48,48,0.0,72.0
626,48.0,0,192,0.0,72.0
627,69.0,0,48,0.0,72.0
628,67.0,0,48,0.0,72.0
629,52.0,48,48,0.0,72.0
630,53.0,0,48,0.0,72.0
631,69.0,48,48,0.0,72.0
632,50.0,0,48,0.0,72.0
633,65.0,48,48,0.0,72.0
634,67.0,48,48,0.0,72.0
635,48.0,0,96,0.0,72.0
636,52.0,0,48,0.0,72.0
637,69.0,48,48,0.0,72.0
638,53.0,0,96,0.0,72.0
639,67.0,48,48,0.0,72.0
640,65.0,48,48,0.0,72.0
641,64.0,48,48,0.0,72.0
642,41.0,0,192,0.0,72.0
643,62.0,0,48,0.0,72.0
644,64.0,48,48,0.0,72.0
645,60.0,48,48,0.0,72.0
646,69.0,48,192,0.0,88.0
647,53.0,0,0,0.0,88.0
648,62.0,48,48,0.0,72.0
649,51.0,48,48,0.0,88.0
650,67.0,0,0,0.0,72.0
651,59.0,0,96,0.0,72.0
652,52.0,48,0,0.0,88.0
653,72.0,48,96,0.0,88.0
654,52.0,0,48,0.0,88.0
655,69.0,0,96,0.0,72.0
656,66.0,48,96,0.0,88.0
657,49.0,48,48,0.0,88.0
658,50.0,48,0,0.0,88.0
659,65.0,0,96,0.0,88.0
660,50.0,0,0,0.0,88.0
661,70.0,48,96,0.0,72.0
662,68.0,48,96,0.0,72.0
663,64.0,0,96,0.0,88.0
664,47.0,48,48,0.0,88.0
665,48.0,48,0,0.0,88.0
666,69.0,0,96,0.0,88.0
667,76.0,0,96,0.0,72.0
668,64.0,0,24,0.0,88.0
669,48.0,48,48,0.0,88.0
670,62.0,24,24,0.0,88.0
671,64.0,0,24,0.0,88.0
672,62.0,24,24,0.0,88.0
673,47.0,24,48,0.0,88.0
674,64.0,24,24,0.0,88.0
675,62.0,24,24,0.0,88.0
676,45.0,0,48,0.0,88.0
677,60.0,24,24,0.0,88.0
678,62.0,24,24,0.0,88.0
679,44.0,0,48,0.0,88.0
680,76.0,48,48,0.0,72.0
681,60.0,24,96,0.0,88.0
682,74.0,0,48,0.0,72.0
683,72.0,48,48,0.0,72.0
684,45.0,0,192,0.0,88.0
685,62.0,48,96,0.0,88.0
686,64.0,0,48,0.0,88.0
687,71.0,48,48,0.0,72.0
688,62.0,48,48,0.0,88.0
689,72.0,0,48,0.0,72.0
690,69.0,0,48,0.0,72.0
691,71.0,48,48,0.0,72.0
692,64.0,48,96,0.0,88.0
693,55.0,0,0,0.0,88.0
694,73.0,48,96,0.0,72.0
695,53.0,48,48,0.0,88.0
696,52.0,0,48,0.0,88.0
697,74.0,48,96,0.0,72.0
698,50.0,48,48,0.0,88.0
699,57.0,0,192,0.0,88.0
700,49.0,0,48,0.0,88.0
701,76.0,48,48,0.0,72.0
702,50.0,48,48,0.0,88.0
703,74.0,0,48,0.0,72.0
704,47.0,48,48,0.0,88.0
705,55.0,0,96,0.0,72.0
706,49.0,48,48,0.0,88.0
707,76.0,0,96,0.0,72.0
708,55.0,0,48,0.0,72.0
709,53.0,48,48,0.0,72.0
710,69.0,0,96,0.0,72.0
711,70.0,0,48,0.0,72.0
712,55.0,48,48,0.0,72.0
713,69.0,0,48,0.0,72.0
714,57.0,48,48,0.0,72.0
715,50.0,48,192,0.0,88.0
716,67.0,48,48,0.0,72.0
717,58.0,0,48,0.0,72.0
718,57.0,0,48,0.0,72.0
719,65.0,48,48,0.0,72.0
720,60.0,48,48,0.0,72.0
721,58.0,48,48,0.0,72.0
722,52.0,0,96,0.0,72.0
723,67.0,0,96,0.0,72.0
724,67.0,48,48,0.0,72.0
725,53.0,0,96,0.0,72.0
726,60.0,48,48,0.0,72.0
727,62.0,0,48,0.0,72.0
728,41.0,48,48,0.0,72.0
729,64.0,48,48,0.0,72.0
730,57.0,0,192,0.0,72.0
731,43.0,0,48,0.0,72.0
732,65.0,48,48,0.0,72.0
733,64.0,48,48,0.0,72.0
734,45.0,0,96,0.0,72.0
735,67.0,0,48,0.0,72.0
736,62.0,0,96,0.0,72.0
737,65.0,48,48,0.0,72.0
738,47.0,48,96,0.0,72.0
739,62.0,48,48,0.0,72.0
740,48.0,0,96,0.0,72.0
741,55.0,48,48,0.0,72.0
742,57.0,0,48,0.0,72.0
743,46.0,48,96,0.0,72.0
744,58.0,48,48,0.0,72.0
745,64.0,0,192,0.0,72.0
746,60.0,0,48,0.0,72.0
747,45.0,48,96,0.0,72.0
748,58.0,48,48,0.0,72.0
749,62.0,48,48,0.0,72.0
750,69.0,0,96,0.0,72.0
751,54.0,0,96,0.0,72.0
752,60.0,48,48,0.0,72.0
753,43.0,0,48,0.0,72.0
754,69.0,48,48,0.0,72.0
755,62.0,0,48,0.0,72.0
756,53.0,48,48,0.0,72.0
757,64.0,0,48,0.0,72.0
758,52.0,48,48,0.0,72.0
759,58.0,0,192,0.0,72.0
760,50.0,48,48,0.0,72.0
761,65.0,0,48,0.0,72.0
762,67.0,0,48,0.0,72.0
763,49.0,48,48,0.0,72.0
764,50.0,48,48,0.0,72.0
765,65.0,0,48,0.0,72.0
766,47.0,0,48,0.0,72.0
767,69.0,48,48,0.0,72.0
768,64.0,0,96,0.0,72.0
769,49.0,48,48,0.0,72.0
770,67.0,0,48,0.0,72.0
771,50.0,48,48,0.0,72.0
772,64.0,0,48,0.0,72.0
773,61.0,48,48,0.0,72.0
774,52.0,0,48,0.0,72.0
775,53.0,48,48,0.0,72.0
776,62.0,0,48,0.0,72.0
777,64.0,0,48,0.0,72.0
778,65.0,48,0,0.0,72.0
779,55.0,48,48,0.0,72.0
780,57.0,0,48,0.0,72.0
781,64.0,48,48,0.0,72.0
782,55.0,0,48,0.0,72.0
783,67.0,0,48,0.0,72.0
784,58.0,0,48,0.0,72.0
785,74.0,48,96,0.0,72.0
786,57.0,48,48,0.0,72.0
787,65.0,0,48,0.0,72.0
788,55.0,0,48,0.0,72.0
789,74.0,48,96,0.0,72.0
790,53.0,48,48,0.0,72.0
791,57.0,0,48,0.0,72.0
792,64.0,0,192,0.0,72.0
793,55.0,48,48,0.0,72.0
794,53.0,0,48,0.0,72.0
795,72.0,48,192,0.0,72.0
796,52.0,48,48,0.0,72.0
797,55.0,0,48,0.0,72.0
798,62.0,48,192,0.0,72.0
799,53.0,48,48,0.0,72.0
800,70.0,0,0,0.0,72.0
801,52.0,0,48,0.0,72.0
802,53.0,48,48,0.0,72.0
803,60.0,48,96,0.0,72.0
804,55.0,48,48,0.0,72.0
805,69.0,0,96,0.0,72.0
806,57.0,48,48,0.0,72.0
807,58.0,48,48,0.0,72.0
808,65.0,0,192,0.0,72.0
809,57.0,48,48,0.0,72.0
810,60.0,0,48,0.0,72.0
811,67.0,0,192,0.0,72.0
812,64.0,48,96,0.0,72.0
813,58.0,48,48,0.0,72.0
814,65.0,0,48,0.0,72.0
815,57.0,48,48,0.0,72.0
816,72.0,48,48,0.0,72.0
817,55.0,0,48,0.0,72.0
818,53.0,0,48,0.0,72.0
819,74.0,48,48,0.0,72.0
820,52.0,48,48,0.0,72.0
821,76.0,0,48,0.0,72.0
822,50.0,48,48,0.0,72.0
823,57.0,48,48,0.0,72.0
824,48.0,0,48,0.0,72.0
825,77.0,0,192,0.0,88.0
826,47.0,48,48,0.0,72.0
827,74.0,48,0,0.0,88.0
828,71.0,48,48,0.0,88.0
829,76.0,0,96,0.0,88.0
830,72.0,48,0,0.0,88.0
831,81.0,0,96,0.0,88.0
832,72.0,48,0,0.0,88.0
833,69.0,48,48,0.0,88.0
834,74.0,0,96,0.0,88.0
835,70.0,48,0,0.0,88.0
836,48.0,48,0,0.0,72.0
837,70.0,0,0,0.0,88.0
838,73.0,0,96,0.0,88.0
839,72.0,0,96,0.0,88.0
840,68.0,48,48,0.0,88.0
841,69.0,0,48,0.0,88.0
842,69.0,48,48,0.0,88.0
843,77.0,48,96,0.0,88.0
844,72.0,0,24,0.0,88.0
845,70.0,24,24,0.0,88.0
846,69.0,48,48,0.0,88.0
847,72.0,24,24,0.0,88.0
848,67.0,0,48,0.0,88.0
849,70.0,24,24,0.0,88.0
850,72.0,0,24,0.0,88.0
851,65.0,24,48,0.0,88.0
852,70.0,24,24,0.0,88.0
853,69.0,0,24,0.0,88.0
854,49.0,0,96,0.0,72.0
855,64.0,24,48,0.0,88.0
856,70.0,24,24,0.0,88.0
857,50.0,24,48,0.0,72.0
858,62.0,48,48,0.0,72.0
859,69.0,0,96,0.0,88.0
860,60.0,48,48,0.0,72.0
861,70.0,0,96,0.0,88.0
862,58.0,48,48,0.0,72.0
863,72.0,48,48,0.0,88.0
864,57.0,0,48,0.0,72.0
865,58.0,48,48,0.0,72.0
866,65.0,0,288,0.0,88.0
867,70.0,0,48,0.0,88.0
868,55.0,0,48,0.0,72.0
869,57.0,48,48,0.0,72.0
870,63.0,0,96,0.0,72.0
871,72.0,48,96,0.0,88.0
872,58.0,48,48,0.0,72.0
873,63.0,0,48,0.0,72.0
874,65.0,0,96,0.0,88.0
875,62.0,0,48,0.0,72.0
876,57.0,48,48,0.0,72.0
877,55.0,48,48,0.0,72.0
878,64.0,0,48,0.0,72.0
879,53.0,0,48,0.0,72.0
880,65.0,48,48,0.0,72.0
881,52.0,0,48,0.0,72.0
882,67.0,48,48,0.0,72.0
883,65.0,0,48,0.0,72.0
884,53.0,48,48,0.0,72.0
885,50.0,0,48,0.0,72.0
886,52.0,48,48,0.0,72.0
887,67.0,0,96,0.0,72.0
888,70.0,48,96,0.0,72.0
889,70.0,0,48,0.0,72.0
890,53.0,0,48,0.0,72.0
891,69.0,0,48,0.0,72.0
892,52.0,48,48,0.0,72.0
893,60.0,48,96,0.0,72.0
894,71.0,0,48,0.0,72.0
895,50.0,48,48,0.0,72.0
896,62.0,0,48,0.0,72.0
897,48.0,48,48,0.0,72.0
898,72.0,0,48,0.0,72.0
899,64.0,0,48,0.0,72.0
900,47.0,0,48,0.0,72.0
901,65.0,0,48,0.0,72.0
902,74.0,48,48,0.0,72.0
903,64.0,48,48,0.0,72.0
904,72.0,0,48,0.0,72.0
905,48.0,0,48,0.0,72.0
906,45.0,48,48,0.0,72.0
907,65.0,0,96,0.0,72.0
908,74.0,0,96,0.0,72.0
909,47.0,48,48,0.0,72.0
910,67.0,0,48,0.0,88.0
911,48.0,0,48,0.0,72.0
912,64.0,48,96,0.0,72.0
913,50.0,48,48,0.0,72.0
914,71.0,0,48,0.0,88.0
915,72.0,0,48,0.0,88.0
916,52.0,48,48,0.0,72.0
917,53.0,0,48,0.0,72.0
918,74.0,48,48,0.0,88.0
919,55.0,0,48,0.0,72.0
920,76.0,48,48,0.0,88.0
921,57.0,48,48,0.0,72.0
922,77.0,0,48,0.0,88.0
923,79.0,0,48,0.0,88.0
924,58.0,48,48,0.0,72.0
925,79.0,0,48,0.0,88.0
926,55.0,48,48,0.0,72.0
927,62.0,0,96,0.0,72.0
928,79.0,48,48,0.0,88.0
929,76.0,48,48,0.0,88.0
930,60.0,0,96,0.0,72.0
931,57.0,0,96,0.0,88.0
932,77.0,48,48,0.0,88.0
933,69.0,0,96,0.0,72.0
934,77.0,48,48,0.0,88.0
935,62.0,0,96,0.0,88.0
936,77.0,0,48,0.0,88.0
937,74.0,48,48,0.0,88.0
938,55.0,0,96,0.0,88.0
939,70.0,48,96,0.0,72.0
940,75.0,48,0,0.0,88.0
941,58.0,0,96,0.0,72.0
942,54.0,48,96,0.0,88.0
943,75.0,0,48,0.0,88.0
944,53.0,0,96,0.0,88.0
945,57.0,48,96,0.0,72.0
946,73.0,48,48,0.0,88.0
947,74.0,0,48,0.0,88.0
948,74.0,48,0,0.0,88.0
949,58.0,48,96,0.0,88.0
950,65.0,0,96,0.0,72.0
951,53.0,0,24,0.0,88.0
952,51.0,24,24,0.0,88.0
953,53.0,0,24,0.0,88.0
954,67.0,0,96,0.0,72.0
955,51.0,24,24,0.0,88.0
956,72.0,24,48,0.0,88.0
957,53.0,24,24,0.0,88.0
958,51.0,24,24,0.0,88.0
959,70.0,0,48,0.0,88.0
960,50.0,24,24,0.0,88.0
961,51.0,24,24,0.0,88.0
962,69.0,0,48,0.0,88.0
963,55.0,0,96,0.0,72.0
964,53.0,0,48,0.0,72.0
965,70.0,0,48,0.0,88.0
966,65.0,0,48,0.0,72.0
967,50.0,24,96,0.0,88.0
968,63.0,0,48,0.0,72.0
969,51.0,0,96,0.0,88.0
970,62.0,48,48,0.0,72.0
971,60.0,0,48,0.0,72.0
972,53.0,48,48,0.0,88.0
973,51.0,48,48,0.0,88.0
974,62.0,0,48,0.0,72.0
975,70.0,48,192,0.0,88.0
976,58.0,0,48,0.0,72.0
977,69.0,48,96,0.0,72.0
978,60.0,48,48,0.0,72.0
979,53.0,0,96,0.0,88.0
980,70.0,48,48,0.0,72.0
981,77.0,48,48,0.0,72.0
982,46.0,0,96,0.0,88.0
983,75.0,48,48,0.0,72.0
984,74.0,48,48,0.0,72.0
985,62.0,0,192,0.0,72.0
986,72.0,48,48,0.0,72.0
987,74.0,48,48,0.0,72.0
988,58.0,0,192,0.0,72.0
989,70.0,0,48,0.0,72.0
990,57.0,48,96,0.0,72.0
991,72.0,48,48,0.0,72.0
992,58.0,48,48,0.0,72.0
993,74.0,0,96,0.0,72.0
994,55.0,48,48,0.0,72.0
995,57.0,0,48,0.0,72.0
996,70.0,0,96,0.0,72.0
997,58.0,48,48,0.0,72.0
998,60.0,0,48,0.0,72.0
999,79.0,48,192,0.0,72.0
1000,58.0,48,48,0.0,72.0
1001,62.0,48,48,0.0,72.0
1002,69.0,48,192,0.0,72.0
1003,60.0,48,48,0.0,72.0
1004,78.0,0,96,0.0,72.0
1005,79.0,0,48,0.0,72.0
1006,74.0,48,48,0.0,72.0
1007,62.0,0,96,0.0,72.0
1008,58.0,48,96,0.0,72.0
1009,72.0,0,48,0.0,72.0
1010,70.0,48,48,0.0,72.0
1011,63.0,0,96,0.0,72.0
1012,69.0,48,48,0.0,72.0
1013,70.0,48,48,0.0,72.0
1014,67.0,0,0,0.0,72.0
1015,60.0,0,96,0.0,72.0
1016,69.0,48,48,0.0,72.0
1017,62.0,48,96,0.0,72.0
1018,66.0,0,96,0.0,72.0
1019,67.0,48,48,0.0,88.0
1020,62.0,48,48,0.0,88.0
1021,55.0,0,96,0.0,72.0
1022,67.0,0,48,0.0,88.0
1023,51.0,48,96,0.0,72.0
1024,70.0,0,192,0.0,72.0
1025,67.0,0,0,0.0,88.0
1026,64.0,48,48,0.0,88.0
1027,49.0,0,96,0.0,72.0
1028,65.0,0,48,0.0,88.0
1029,69.0,48,192,0.0,72.0
1030,65.0,48,48,0.0,88.0
1031,50.0,48,96,0.0,72.0
1032,65.0,0,48,0.0,88.0
1033,47.0,0,96,0.0,72.0
1034,62.0,48,48,0.0,88.0
1035,74.0,48,96,0.0,72.0
1036,63.0,0,48,0.0,88.0
1037,67.0,48,96,0.0,72.0
1038,63.0,48,48,0.0,88.0
1039,48.0,0,96,0.0,72.0
1040,63.0,0,48,0.0,88.0
1041,45.0,0,96,0.0,72.0
1042,61.0,48,48,0.0,88.0
1043,62.0,48,0,0.0,88.0
1044,62.0,48,0,0.0,88.0
1045,46.0,48,96,0.0,72.0
1046,65.0,48,192,0.0,72.0
1047,43.0,0,96,0.0,72.0
1048,59.0,48,48,0.0,88.0
1049,60.0,48,0,0.0,88.0
1050,44.0,0,96,0.0,72.0
1051,63.0,0,192,0.0,72.0
1052,60.0,0,48,0.0,88.0
1053,42.0,0,96,0.0,72.0
1054,62.0,48,96,0.0,72.0
1055,58.0,48,48,0.0,88.0
1056,57.0,0,48,0.0,88.0
1057,43.0,48,96,0.0,88.0
1058,63.0,0,96,0.0,72.0
1059,55.0,48,48,0.0,88.0
1060,43.0,0,48,0.0,88.0
1061,61.0,48,96,0.0,72.0
1062,40.0,48,48,0.0,88.0
1063,41.0,48,0,0.0,88.0
1064,57.0,0,192,0.0,88.0
1065,62.0,48,96,0.0,72.0
1066,41.0,0,48,0.0,88.0
1067,38.0,48,48,0.0,88.0
1068,59.0,0,96,0.0,72.0
1069,40.0,48,48,0.0,88.0
1070,61.0,0,96,0.0,72.0
1071,67.0,0,0,0.0,72.0
1072,40.0,48,48,0.0,88.0
1073,62.0,48,48,0.0,72.0
1074,57.0,0,48,0.0,72.0
1075,64.0,48,48,0.0,72.0
1076,65.0,48,0,0.0,72.0
1077,38.0,0,192,0.0,88.0
1078,62.0,48,144,0.0,72.0
1079,59.0,48,48,0.0,72.0
1080,64.0,48,96,0.0,72.0
1081,60.0,48,0,0.0,72.0
1082,69.0,0,96,0.0,72.0
1083,60.0,48,48,0.0,72.0
1084,57.0,48,48,0.0,72.0
1085,74.0,0,144,0.0,72.0
1086,58.0,48,0,0.0,72.0
1087,76.0,0,48,0.0,72.0
1088,55.0,0,144,0.0,88.0
1089,57.0,48,96,0.0,72.0
1090,52.0,48,48,0.0,88.0
1091,73.0,0,96,0.0,72.0
1092,53.0,48,0,0.0,88.0
1093,69.0,0,96,0.0,88.0
1094,74.0,48,96,0.0,72.0
1095,53.0,0,48,0.0,88.0
1096,71.0,0,96,0.0,72.0
1097,67.0,48,96,0.0,88.0
1098,51.0,48,48,0.0,88.0
1099,52.0,48,0,0.0,88.0
1100,72.0,0,96,0.0,88.0
1101,52.0,48,48,0.0,88.0
1102,66.0,0,96,0.0,88.0
1103,49.0,48,48,0.0,88.0
1104,50.0,48,0,0.0,88.0
1105,70.0,0,96,0.0,72.0
1106,65.0,48,96,0.0,88.0
1107,50.0,0,0,0.0,88.0
1108,64.0,0,96,0.0,88.0
1109,68.0,48,96,0.0,72.0
1110,47.0,48,48,0.0,88.0
1111,48.0,0,48,0.0,88.0
1112,48.0,48,0,0.0,88.0
1113,69.0,0,96,0.0,72.0
1114,47.0,48,48,0.0,88.0
1115,62.0,0,96,0.0,88.0
1116,45.0,48,48,0.0,88.0
1117,71.0,0,96,0.0,88.0
1118,44.0,48,48,0.0,88.0
1119,74.0,0,96,0.0,88.0
1120,71.0,0,48,0.0,88.0
1121,68.0,48,48,0.0,88.0
1122,72.0,48,96,0.0,88.0
1123,69.0,48,0,0.0,88.0
1124,77.0,48,96,0.0,88.0
1125,45.0,0,192,0.0,88.0
1126,69.0,48,48,0.0,88.0
1127,71.0,0,96,0.0,88.0
1128,66.0,48,48,0.0,88.0
1129,67.0,48,0,0.0,88.0
1130,67.0,0,0,0.0,88.0
1131,50.0,0,96,0.0,72.0
1132,70.0,48,96,0.0,88.0
1133,69.0,48,96,0.0,88.0
1134,49.0,0,96,0.0,72.0
1135,64.0,48,48,0.0,88.0
1136,65.0,0,48,0.0,88.0
1137,48.0,0,96,0.0,72.0
1138,74.0,48,96,0.0,88.0
1139,65.0,0,0,0.0,88.0
1140,69.0,0,24,0.0,88.0
1141,67.0,24,24,0.0,88.0
1142,69.0,24,24,0.0,88.0
1143,67.0,24,24,0.0,88.0
1144,63.0,0,48,0.0,88.0
1145,47.0,48,96,0.0,72.0
1146,69.0,24,24,0.0,88.0
1147,62.0,0,48,0.0,88.0
1148,67.0,24,24,0.0,88.0
1149,66.0,0,24,0.0,88.0
1150,60.0,24,48,0.0,88.0
1151,67.0,24,24,0.0,88.0
1152,48.0,0,96,0.0,72.0
1153,48.0,0,48,0.0,72.0
1154,46.0,48,48,0.0,72.0
1155,66.0,24,96,0.0,88.0
1156,45.0,48,48,0.0,72.0
1157,67.0,0,96,0.0,88.0
1158,43.0,48,48,0.0,72.0
1159,62.0,0,192,0.0,88.0
1160,42.0,48,48,0.0,72.0
1161,69.0,0,48,0.0,88.0
1162,43.0,48,48,0.0,72.0
1163,67.0,0,48,0.0,88.0
1164,40.0,48,48,0.0,72.0
1165,60.0,0,0,0.0,72.0
1166,69.0,0,96,0.0,88.0
1167,42.0,48,48,0.0,72.0
1168,62.0,0,48,0.0,88.0
1169,43.0,48,96,0.0,72.0
1170,64.0,48,48,0.0,72.0
1171,66.0,0,48,0.0,72.0
1172,67.0,48,48,0.0,72.0
1173,58.0,48,96,0.0,72.0
1174,69.0,0,48,0.0,72.0
1175,55.0,0,192,0.0,72.0
1176,60.0,48,96,0.0,72.0
1177,67.0,48,48,0.0,72.0
1178,70.0,0,48,0.0,72.0
1179,69.0,48,48,0.0,72.0
1180,54.0,48,96,0.0,72.0
1181,62.0,0,96,0.0,72.0
1182,72.0,0,48,0.0,72.0
1183,71.0,48,48,0.0,72.0
1184,55.0,0,96,0.0,72.0
1185,74.0,0,48,0.0,72.0
1186,53.0,0,96,0.0,72.0
1187,59.0,48,96,0.0,72.0
1188,73.0,48,48,0.0,72.0
1189,76.0,0,48,0.0,72.0
1190,74.0,48,48,0.0,72.0
1191,61.0,48,96,0.0,72.0
1192,52.0,0,96,0.0,72.0
1193,77.0,48,48,0.0,72.0
1194,76.0,48,48,0.0,72.0
1195,50.0,0,96,0.0,72.0
1196,62.0,0,96,0.0,72.0
1197,49.0,0,48,0.0,72.0
1198,79.0,48,48,0.0,72.0
1199,57.0,0,48,0.0,72.0
1200,58.0,48,48,0.0,72.0
1201,74.0,0,48,0.0,72.0
1202,57.0,48,48,0.0,72.0
1203,73.0,0,48,0.0,72.0
1204,55.0,0,48,0.0,72.0
1205,76.0,48,48,0.0,72.0
1206,53.0,48,48,0.0,72.0
1207,69.0,0,96,0.0,72.0
1208,55.0,48,48,0.0,72.0
1209,52.0,0,48,0.0,72.0
1210,79.0,48,96,0.0,72.0
1211,53.0,48,48,0.0,72.0
1212,73.0,0,96,0.0,72.0
1213,50.0,0,48,0.0,72.0
1214,52.0,48,48,0.0,72.0
1215,74.0,48,96,0.0,72.0
1216,77.0,0,96,0.0,72.0
1217,48.0,0,48,0.0,72.0
1218,50.0,48,48,0.0,72.0
1219,81.0,48,96,0.0,72.0
1220,46.0,0,48,0.0,72.0
1221,74.0,48,48,0.0,88.0
1222,48.0,48,48,0.0,72.0
1223,76.0,0,48,0.0,88.0
1224,45.0,0,48,0.0,72.0
1225,77.0,0,0,0.0,88.0
1226,72.0,48,96,0.0,88.0
1227,46.0,48,48,0.0,72.0
1228,77.0,0,48,0.0,88.0
1229,70.0,48,0,0.0,88.0
1230,75.0,0,48,0.0,88.0
1231,43.0,0,96,0.0,88.0
1232,76.0,48,48,0.0,88.0
1233,70.0,0,48,0.0,88.0
1234,67.0,0,48,0.0,88.0
1235,48.0,0,96,0.0,88.0
1236,76.0,48,48,0.0,88.0
1237,69.0,0,48,0.0,88.0
1238,76.0,0,48,0.0,88.0
1239,73.0,0,48,0.0,88.0
1240,69.0,48,48,0.0,88.0
1241,42.0,48,96,0.0,88.0
1242,69.0,0,48,0.0,88.0
1243,74.0,0,0,0.0,88.0
1244,41.0,48,96,0.0,88.0
1245,65.0,48,48,0.0,88.0
1246,74.0,0,0,0.0,88.0
1247,67.0,48,0,0.0,88.0
1248,40.0,48,96,0.0,88.0
1249,71.0,0,48,0.0,88.0
1250,72.0,48,0,0.0,88.0
1251,67.0,0,48,0.0,88.0
1252,64.0,0,48,0.0,88.0
1253,45.0,48,96,0.0,88.0
1254,72.0,0,48,0.0,88.0
1255,38.0,0,96,0.0,88.0
1256,65.0,48,96,0.0,88.0
1257,69.0,48,48,0.0,88.0
1258,55.0,48,24,0.0,88.0
1259,53.0,24,24,0.0,88.0
1260,62.0,0,48,0.0,88.0
1261,70.0,0,0,0.0,88.0
1262,52.0,24,24,0.0,88.0
1263,67.0,0,48,0.0,88.0
1264,50.0,24,24,0.0,88.0
1265,49.0,24,24,0.0,88.0
1266,50.0,24,24,0.0,88.0
1267,70.0,0,48,0.0,88.0
1268,52.0,24,24,0.0,88.0
1269,64.0,0,96,0.0,88.0
1270,53.0,24,24,0.0,88.0
1271,67.0,0,48,0.0,88.0
1272,52.0,24,24,0.0,88.0
1273,50.0,24,24,0.0,88.0
1274,73.0,0,48,0.0,88.0
1275,49.0,24,24,0.0,88.0
1276,47.0,24,24,0.0,88.0
1277,73.0,0,0,0.0,88.0
1278,45.0,24,24,0.0,88.0
1279,47.0,24,24,0.0,88.0
1280,49.0,0,24,0.0,88.0
1281,50.0,24,24,0.0,88.0
1282,67.0,0,0,0.0,88.0
1283,49.0,24,24,0.0,88.0
1284,67.0,0,0,0.0,88.0
1285,76.0,0,48,0.0,88.0
1286,47.0,24,24,0.0,88.0
1287,45.0,24,24,0.0,88.0
1288,43.0,24,24,0.0,88.0
1289,76.0,0,0,0.0,88.0
1290,67.0,0,48,0.0,88.0
1291,41.0,24,96,0.0,88.0
1292,64.0,48,48,0.0,88.0
1293,73.0,0,48,0.0,88.0
1294,38.0,24,24,0.0,88.0
1295,41.0,24,24,0.0,88.0
1296,65.0,48,96,0.0,88.0
1297,45.0,24,24,0.0,88.0
1298,74.0,0,96,0.0,88.0
1299,48.0,24,24,0.0,88.0
1300,46.0,24,24,0.0,88.0
1301,72.0,0,24,0.0,88.0
1302,48.0,0,24,0.0,88.0
1303,70.0,24,24,0.0,88.0
1304,46.0,24,24,0.0,88.0
1305,69.0,0,24,0.0,88.0
1306,67.0,0,24,0.0,88.0
1307,48.0,0,24,0.0,88.0
1308,77.0,24,24,0.0,88.0
1309,46.0,0,24,0.0,88.0
1310,76.0,24,24,0.0,88.0
1311,45.0,0,24,0.0,88.0
1312,46.0,0,24,0.0,88.0
1313,74.0,24,24,0.0,88.0
1314,45.0,0,48,0.0,88.0
1315,57.0,48,48,0.0,72.0
1316,55.0,48,48,0.0,72.0
1317,73.0,24,192,0.0,88.0
1318,69.0,0,192,0.0,88.0
1319,53.0,48,48,0.0,72.0
1320,52.0,48,48,0.0,72.0
1321,69.0,0,48,0.0,72.0
1322,53.0,48,48,0.0,72.0
1323,50.0,0,48,0.0,72.0
1324,71.0,48,48,0.0,72.0
1325,73.0,0,48,0.0,72.0
1326,52.0,48,48,0.0,72.0
1327,74.0,48,48,0.0,72.0
1328,73.0,48,48,0.0,72.0
1329,76.0,0,48,0.0,72.0
1330,74.0,48,48,0.0,72.0
1331,53.0,0,192,0.0,72.0
1332,69.0,48,96,0.0,88.0
1333,62.0,0,96,0.0,88.0
1334,52.0,48,48,0.0,72.0
1335,77.0,48,96,0.0,72.0
1336,50.0,0,48,0.0,72.0
1337,64.0,48,96,0.0,88.0
1338,49.0,48,48,0.0,72.0
1339,70.0,48,0,0.0,72.0
1340,69.0,48,48,0.0,72.0
1341,74.0,48,48,0.0,72.0
1342,72.0,48,48,0.0,72.0
1343,50.0,0,192,0.0,72.0
1344,65.0,0,96,0.0,88.0
1345,75.0,48,48,0.0,72.0
1346,48.0,0,48,0.0,72.0
1347,74.0,48,48,0.0,72.0
1348,67.0,0,96,0.0,88.0
1349,46.0,0,48,0.0,72.0
1350,66.0,48,48,0.0,72.0
1351,69.0,0,96,0.0,88.0
1352,72.0,48,48,0.0,72.0
1353,45.0,0,48,0.0,72.0
1354,70.0,48,48,0.0,72.0
1355,43.0,0,96,0.0,72.0
1356,74.0,48,48,0.0,72.0
1357,75.0,0,48,0.0,72.0
1358,79.0,48,48,0.0,72.0
1359,70.0,0,96,0.0,88.0
1360,55.0,48,96,0.0,72.0
1361,77.0,0,48,0.0,72.0
1362,57.0,48,96,0.0,72.0
1363,69.0,0,96,0.0,88.0
1364,74.0,48,48,0.0,72.0
1365,76.0,0,48,0.0,72.0
1366,73.0,48,0,0.0,72.0
1367,67.0,48,96,0.0,88.0
1368,45.0,0,96,0.0,72.0
1369,74.0,48,48,0.0,72.0
1370,65.0,48,48,0.0,88.0
1371,46.0,0,192,0.0,72.0
1372,62.0,0,96,0.0,72.0
1373,64.0,48,48,0.0,88.0
1374,58.0,48,48,0.0,72.0
1375,65.0,48,96,0.0,88.0
1376,74.0,0,96,0.0,72.0
1377,57.0,0,48,0.0,72.0
1378,67.0,48,96,0.0,88.0
1379,76.0,0,96,0.0,72.0
1380,55.0,0,0,0.0,72.0
1381,73.0,0,96,0.0,72.0
1382,52.0,48,48,0.0,72.0
1383,53.0,48,0,0.0,72.0
1384,69.0,48,192,0.0,88.0
1385,74.0,48,96,0.0,72.0
1386,53.0,0,48,0.0,72.0
1387,71.0,0,96,0.0,72.0
1388,50.0,48,48,0.0,72.0
1389,52.0,48,0,0.0,72.0
1390,79.0,48,192,0.0,72.0
1391,73.0,0,96,0.0,72.0
1392,79.0,0,48,0.0,72.0
1393,74.0,48,96,0.0,72.0
1394,76.0,48,48,0.0,72.0
1395,50.0,0,96,0.0,72.0
1396,77.0,0,48,0.0,72.0
1397,62.0,0,96,0.0,88.0
1398,77.0,0,0,0.0,72.0
1399,69.0,48,144,0.0,72.0
1400,57.0,48,96,0.0,88.0
1401,65.0,48,48,0.0,72.0
1402,67.0,48,0,0.0,72.0
1403,67.0,48,0,0.0,72.0
1404,59.0,48,96,0.0,88.0
1405,77.0,0,48,0.0,72.0
1406,76.0,48,48,0.0,72.0
1407,81.0,48,48,0.0,72.0
1408,81.0,48,48,0.0,72.0
1409,60.0,0,96,0.0,88.0
1410,64.0,0,96,0.0,72.0
1411,77.0,48,48,0.0,72.0
1412,62.0,0,96,0.0,88.0
1413,81.0,48,96,0.0,72.0
1414,76.0,48,48,0.0,72.0
1415,80.0,0,96,0.0,72.0
1416,74.0,48,48,0.0,72.0
1417,64.0,0,96,0.0,88.0
1418,72.0,0,48,0.0,72.0
1419,71.0,48,48,0.0,72.0
1420,81.0,48,96,0.0,72.0
1421,74.0,0,48,0.0,72.0
1422,65.0,0,96,0.0,88.0
1423,71.0,48,48,0.0,72.0
1424,69.0,48,144,0.0,72.0
1425,64.0,0,96,0.0,88.0
1426,72.0,48,96,0.0,72.0
1427,69.0,48,96,0.0,72.0
1428,71.0,0,96,0.0,72.0
1429,62.0,48,96,0.0,88.0
1430,68.0,48,48,0.0,72.0
1431,69.0,0,48,0.0,72.0
1432,64.0,48,48,0.0,72.0
1433,69.0,48,0,0.0,72.0
1434,60.0,0,48,0.0,88.0
1435,68.0,48,48,0.0,72.0
1436,59.0,0,48,0.0,88.0
1437,69.0,48,48,0.0,72.0
1438,72.0,48,48,0.0,72.0
1439,60.0,0,96,0.0,88.0
1440,71.0,48,48,0.0,72.0
1441,74.0,48,48,0.0,72.0
1442,62.0,0,96,0.0,88.0
1443,72.0,0,48,0.0,72.0
1444,76.0,48,48,0.0,72.0
1445,84.0,0,48,0.0,72.0
1446,81.0,48,48,0.0,72.0
1447,69.0,48,96,0.0,72.0
1448,83.0,48,48,0.0,72.0
1449,80.0,48,48,0.0,72.0
1450,74.0,0,96,0.0,72.0
1451,81.0,48,48,0.0,72.0
1452,78.0,48,48,0.0,72.0
1453,72.0,0,96,0.0,72.0
1454,64.0,48,384,0.0,88.0
1455,80.0,48,48,0.0,72.0
1456,71.0,0,96,0.0,72.0
1457,76.0,48,48,0.0,72.0
1458,64.0,0,96,0.0,88.0
1459,74.0,48,48,0.0,72.0
1460,56.0,0,48,0.0,72.0
1461,71.0,48,48,0.0,72.0
1462,65.0,0,48,0.0,72.0
1463,72.0,0,48,0.0,72.0
1464,57.0,48,48,0.0,72.0
1465,69.0,48,48,0.0,72.0
1466,64.0,0,48,0.0,72.0
1467,59.0,0,48,0.0,72.0
1468,71.0,48,48,0.0,72.0
1469,62.0,48,48,0.0,72.0
1470,68.0,0,48,0.0,72.0
1471,60.0,48,48,0.0,72.0
1472,59.0,48,48,0.0,72.0
1473,69.0,0,144,0.0,72.0
1474,76.0,0,96,0.0,88.0
1475,67.0,48,48,0.0,72.0
1476,60.0,48,144,0.0,72.0
1477,59.0,48,48,0.0,72.0
1478,66.0,48,96,0.0,72.0
1479,69.0,0,96,0.0,88.0
1480,57.0,0,48,0.0,72.0
1481,65.0,0,96,0.0,72.0
1482,71.0,48,96,0.0,88.0
1483,56.0,48,48,0.0,72.0
1484,65.0,0,48,0.0,72.0
1485,62.0,48,48,0.0,72.0
1486,57.0,48,144,0.0,72.0
1487,55.0,48,48,0.0,72.0
1488,72.0,48,96,0.0,88.0
1489,64.0,0,96,0.0,72.0
1490,53.0,48,48,0.0,72.0
1491,52.0,48,48,0.0,72.0
1492,74.0,0,96,0.0,88.0
1493,50.0,48,48,0.0,72.0
1494,48.0,48,48,0.0,72.0
1495,69.0,0,0,0.0,72.0
1496,76.0,0,96,0.0,88.0
1497,68.0,48,48,0.0,72.0
1498,47.0,48,96,0.0,72.0
1499,74.0,48,48,0.0,72.0
1500,40.0,0,96,0.0,72.0
1501,68.0,48,48,0.0,72.0
1502,77.0,0,96,0.0,88.0
1503,69.0,0,48,0.0,72.0
1504,42.0,48,96,0.0,72.0
1505,72.0,48,48,0.0,72.0
1506,76.0,0,96,0.0,88.0
1507,71.0,0,48,0.0,72.0
1508,44.0,0,96,0.0,72.0
1509,74.0,48,96,0.0,88.0
1510,65.0,48,48,0.0,72.0
1511,64.0,48,48,0.0,72.0
1512,63.0,48,48,0.0,72.0
1513,72.0,0,48,0.0,88.0
1514,45.0,0,144,0.0,72.0
1515,71.0,0,48,0.0,88.0
1516,64.0,48,96,0.0,72.0
1517,44.0,48,48,0.0,72.0
1518,45.0,0,48,0.0,72.0
1519,48.0,48,48,0.0,72.0
1520,72.0,48,96,0.0,88.0
1521,47.0,48,48,0.0,72.0
1522,50.0,48,48,0.0,72.0
1523,74.0,0,96,0.0,88.0
1524,64.0,48,48,0.0,72.0
1525,68.0,48,48,0.0,72.0
1526,71.0,48,48,0.0,72.0
1527,48.0,48,192,0.0,72.0
1528,69.0,48,48,0.0,72.0
1529,66.0,48,48,0.0,72.0
1530,67.0,48,48,0.0,72.0
1531,49.0,0,96,0.0,72.0
1532,64.0,48,48,0.0,72.0
1533,76.0,0,0,0.0,88.0
1534,65.0,0,96,0.0,72.0
1535,69.0,48,48,0.0,72.0
1536,50.0,48,96,0.0,72.0
1537,72.0,0,48,0.0,72.0
1538,66.0,48,96,0.0,72.0
1539,45.0,0,96,0.0,72.0
1540,75.0,48,48,0.0,72.0
1541,74.0,0,48,0.0,72.0
1542,70.0,48,48,0.0,72.0
1543,46.0,0,96,0.0,72.0
1544,67.0,48,144,0.0,72.0
1545,72.0,0,48,0.0,72.0
1546,69.0,48,48,0.0,72.0
1547,66.0,0,48,0.0,72.0
1548,50.0,48,96,0.0,72.0
1549,43.0,0,48,0.0,72.0
1550,50.0,48,48,0.0,72.0
1551,70.0,0,96,0.0,72.0
1552,67.0,48,96,0.0,72.0
1553,55.0,48,48,0.0,72.0
1554,74.0,48,48,0.0,72.0
1555,58.0,0,48,0.0,72.0
1556,79.0,0,48,0.0,72.0
1557,72.0,48,48,0.0,72.0
1558,57.0,0,48,0.0,72.0
1559,60.0,0,48,0.0,72.0
1560,78.0,0,96,0.0,72.0
1561,69.0,48,48,0.0,72.0
1562,59.0,0,48,0.0,72.0
1563,74.0,0,48,0.0,72.0
1564,68.0,0,48,0.0,72.0
1565,62.0,48,48,0.0,72.0
1566,77.0,48,96,0.0,72.0
1567,51.0,0,48,0.0,72.0
1568,75.0,0,48,0.0,72.0
1569,67.0,48,96,0.0,72.0
1570,55.0,48,48,0.0,72.0
1571,53.0,0,48,0.0,72.0
1572,74.0,0,48,0.0,72.0
1573,72.0,0,48,0.0,72.0
1574,56.0,48,48,0.0,72.0
1575,47.0,0,48,0.0,72.0
1576,68.0,48,144,0.0,72.0
1577,50.0,48,48,0.0,72.0
1578,74.0,48,96,0.0,72.0
1579,67.0,0,48,0.0,72.0
1580,48.0,0,48,0.0,72.0
1581,66.0,48,48,0.0,72.0
1582,51.0,0,48,0.0,72.0
1583,67.0,48,48,0.0,72.0
1584,75.0,0,0,0.0,72.0
1585,42.0,48,48,0.0,72.0
1586,69.0,0,96,0.0,72.0
1587,45.0,48,48,0.0,72.0
1588,74.0,0,48,0.0,72.0
1589,73.0,0,48,0.0,72.0
1590,43.0,48,48,0.0,72.0
1591,46.0,48,48,0.0,72.0
1592,70.0,0,96,0.0,72.0
1593,74.0,0,48,0.0,72.0
1594,76.0,0,48,0.0,72.0
1595,78.0,48,48,0.0,72.0
1596,79.0,48,0,0.0,88.0
1597,70.0,48,96,0.0,88.0
1598,79.0,0,0,0.0,88.0
1599,37.0,48,192,0.0,72.0
1600,69.0,0,96,0.0,88.0
1601,76.0,48,48,0.0,88.0
1602,77.0,48,48,0.0,88.0
1603,77.0,48,48,0.0,88.0
1604,74.0,0,96,0.0,88.0
1605,77.0,0,48,0.0,88.0
1606,68.0,48,96,0.0,88.0
1607,74.0,48,48,0.0,88.0
1608,75.0,48,48,0.0,88.0
1609,67.0,0,96,0.0,88.0
1610,75.0,0,0,0.0,88.0
1611,38.0,0,0,0.0,72.0
1612,73.0,48,48,0.0,88.0
1613,65.0,48,96,0.0,88.0
1614,74.0,48,0,0.0,88.0
1615,70.0,48,96,0.0,88.0
1616,74.0,0,48,0.0,88.0
1617,71.0,48,48,0.0,88.0
1618,64.0,48,96,0.0,88.0
1619,72.0,0,48,0.0,88.0
1620,63.0,48,96,0.0,88.0
1621,38.0,48,0,0.0,72.0
1622,72.0,0,0,0.0,88.0
1623,69.0,48,48,0.0,88.0
1624,62.0,0,96,0.0,88.0
1625,70.0,48,0,0.0,88.0
1626,67.0,48,96,0.0,88.0
1627,70.0,0,48,0.0,88.0
1628,67.0,48,48,0.0,88.0
1629,61.0,48,96,0.0,88.0
1630,68.0,48,0,0.0,88.0
1631,60.0,0,96,0.0,88.0
1632,68.0,0,48,0.0,88.0
1633,38.0,0,96,0.0,72.0
1634,66.0,48,48,0.0,88.0
1635,59.0,48,96,0.0,88.0
1636,50.0,48,48,0.0,72.0
1637,58.0,48,0,0.0,88.0
1638,50.0,48,48,0.0,72.0
1639,50.0,0,48,0.0,72.0
1640,57.0,24,24,0.0,88.0
1641,58.0,24,24,0.0,88.0
1642,67.0,0,192,0.0,88.0
1643,57.0,24,24,0.0,88.0
1644,47.0,0,48,0.0,72.0
1645,58.0,24,24,0.0,88.0
1646,48.0,0,48,0.0,72.0
1647,57.0,24,24,0.0,88.0
1648,55.0,0,24,0.0,88.0
1649,48.0,24,48,0.0,72.0
1650,66.0,0,96,0.0,88.0
1651,57.0,24,24,0.0,88.0
1652,48.0,0,48,0.0,72.0
1653,45.0,48,48,0.0,72.0
1654,55.0,24,96,0.0,88.0
1655,62.0,0,48,0.0,72.0
1656,46.0,48,48,0.0,72.0
1657,43.0,48,48,0.0,72.0
1658,67.0,0,192,0.0,88.0
1659,62.0,0,0,0.0,72.0
1660,66.0,0,48,0.0,72.0
1661,50.0,48,96,0.0,72.0
1662,58.0,48,48,0.0,72.0
1663,67.0,0,48,0.0,72.0
1664,60.0,48,48,0.0,72.0
1665,60.0,0,0,0.0,72.0
1666,69.0,48,0,0.0,72.0
1667,38.0,0,96,0.0,72.0
1668,57.0,48,48,0.0,72.0
1669,43.0,0,96,0.0,72.0
1670,43.0,0,24,0.0,72.0
1671,58.0,24,0,0.0,72.0
1672,45.0,24,24,0.0,72.0
1673,67.0,48,48,0.0,72.0
1674,46.0,0,24,0.0,72.0
1675,48.0,24,24,0.0,72.0
1676,67.0,0,48,0.0,72.0
1677,67.0,0,48,0.0,72.0
1678,64.0,48,48,0.0,72.0
1679,50.0,24,96,0.0,72.0
1680,57.0,0,96,0.0,72.0
1681,48.0,48,24,0.0,72.0
1682,62.0,0,48,0.0,72.0
1683,47.0,24,24,0.0,72.0
1684,65.0,0,48,0.0,72.0
1685,45.0,0,24,0.0,72.0
1686,65.0,0,48,0.0,72.0
1687,62.0,0,0,0.0,72.0
1688,43.0,24,24,0.0,72.0
1689,63.0,24,96,0.0,72.0
1690,48.0,0,96,0.0,72.0
1691,59.0,48,48,0.0,72.0
1692,43.0,0,24,0.0,72.0
1693,42.0,24,24,0.0,72.0
1694,60.0,0,0,0.0,72.0
1695,69.0,0,0,0.0,72.0
1696,40.0,24,24,0.0,72.0
1697,69.0,24,0,0.0,72.0
1698,38.0,24,24,0.0,72.0
1699,58.0,0,96,0.0,72.0
1700,43.0,0,96,0.0,72.0
1701,67.0,48,0,0.0,72.0
1702,55.0,0,24,0.0,72.0
1703,53.0,24,24,0.0,72.0
1704,70.0,0,0,0.0,72.0
1705,52.0,24,24,0.0,72.0
1706,67.0,0,48,0.0,72.0
1707,50.0,24,24,0.0,72.0
1708,67.0,0,48,0.0,72.0
1709,69.0,0,96,0.0,72.0
1710,49.0,24,96,0.0,72.0
1711,64.0,48,48,0.0,72.0
1712,50.0,0,24,0.0,72.0
1713,48.0,24,24,0.0,72.0
1714,74.0,24,0,0.0,72.0
1715,65.0,0,0,0.0,72.0
1716,47.0,0,24,0.0,72.0
1717,45.0,24,24,0.0,72.0
1718,74.0,0,48,0.0,72.0
1719,44.0,24,96,0.0,72.0
1720,64.0,0,96,0.0,72.0
1721,71.0,48,48,0.0,72.0
1722,45.0,48,24,0.0,72.0
1723,69.0,0,48,0.0,72.0
1724,72.0,0,48,0.0,72.0
1725,43.0,24,24,0.0,72.0
1726,41.0,0,24,0.0,72.0
1727,40.0,24,24,0.0,72.0
1728,69.0,24,0,0.0,72.0
1729,72.0,24,48,0.0,72.0
1730,68.0,48,48,0.0,72.0
1731,38.0,0,96,0.0,72.0
1732,71.0,0,0,0.0,72.0
1733,76.0,48,96,0.0,72.0
1734,36.0,0,96,0.0,72.0
1735,69.0,48,48,0.0,72.0
1736,72.0,0,48,0.0,72.0
1737,71.0,48,48,0.0,72.0
1738,78.0,0,96,0.0,72.0
1739,38.0,48,96,0.0,72.0
1740,74.0,48,48,0.0,72.0
1741,72.0,48,48,0.0,72.0
1742,40.0,0,96,0.0,72.0
1743,80.0,0,96,0.0,72.0
1744,76.0,48,48,0.0,72.0
1745,81.0,0,96,0.0,72.0
1746,41.0,0,96,0.0,72.0
1747,74.0,48,48,0.0,72.0
1748,77.0,0,48,0.0,72.0
1749,76.0,48,48,0.0,72.0
1750,83.0,48,96,0.0,72.0
1751,38.0,0,96,0.0,72.0
1752,74.0,0,48,0.0,72.0
1753,72.0,48,48,0.0,72.0
1754,76.0,48,96,0.0,72.0
1755,40.0,0,96,0.0,72.0
1756,71.0,48,48,0.0,72.0
1757,52.0,0,96,0.0,72.0
1758,72.0,48,48,0.0,72.0
1759,80.0,0,96,0.0,72.0
1760,45.0,0,48,0.0,88.0
1761,52.0,48,48,0.0,88.0
1762,57.0,48,0,0.0,88.0
1763,69.0,48,192,0.0,72.0
1764,81.0,0,192,0.0,72.0
1765,57.0,48,48,0.0,88.0
1766,53.0,48,48,0.0,88.0
1767,55.0,48,48,0.0,88.0
1768,55.0,48,48,0.0,88.0
1769,55.0,48,48,0.0,88.0
1770,52.0,48,48,0.0,88.0
1771,53.0,0,48,0.0,88.0
1772,81.0,48,0,0.0,88.0
1773,81.0,48,0,0.0,88.0
1774,53.0,0,48,0.0,88.0
1775,53.0,0,48,0.0,88.0
1776,77.0,0,48,0.0,88.0
1777,50.0,48,48,0.0,88.0
1778,79.0,48,48,0.0,88.0
1779,79.0,48,0,0.0,88.0
1780,62.0,0,192,0.0,88.0
1781,58.0,0,96,0.0,88.0
1782,60.0,0,96,0.0,88.0
1783,76.0,48,48,0.0,88.0
1784,57.0,0,96,0.0,88.0
1785,77.0,48,0,0.0,88.0
1786,77.0,48,0,0.0,88.0
1787,65.0,0,96,0.0,88.0
1788,62.0,48,96,0.0,88.0
1789,76.0,48,48,0.0,88.0
1790,59.0,0,96,0.0,88.0
1791,56.0,0,96,0.0,88.0
1792,74.0,0,48,0.0,88.0
1793,73.0,48,48,0.0,88.0
1794,55.0,48,96,0.0,88.0
1795,58.0,0,96,0.0,88.0
1796,74.0,48,48,0.0,88.0
1797,57.0,0,96,0.0,88.0
1798,77.0,48,48,0.0,72.0
1799,53.0,0,96,0.0,88.0
1800,76.0,48,48,0.0,72.0
1801,62.0,0,96,0.0,88.0
1802,74.0,48,48,0.0,72.0
1803,58.0,0,96,0.0,72.0
1804,57.0,48,24,0.0,88.0
1805,73.0,0,48,0.0,72.0
1806,55.0,24,24,0.0,88.0
1807,57.0,0,24,0.0,88.0
1808,55.0,24,24,0.0,88.0
1809,74.0,24,48,0.0,72.0
1810,57.0,24,24,0.0,88.0
1811,71.0,0,48,0.0,72.0
1812,55.0,24,24,0.0,88.0
1813,53.0,0,24,0.0,88.0
1814,55.0,24,24,0.0,88.0
1815,52.0,24,0,0.0,72.0
1816,73.0,24,48,0.0,72.0
1817,74.0,0,48,0.0,72.0
1818,69.0,48,48,0.0,72.0
1819,53.0,0,96,0.0,88.0
1820,70.0,48,48,0.0,72.0
1821,55.0,0,96,0.0,88.0
1822,67.0,48,48,0.0,72.0
1823,57.0,48,48,0.0,88.0
1824,64.0,0,96,0.0,72.0
1825,55.0,48,48,0.0,88.0
1826,50.0,0,0,0.0,72.0
1827,57.0,48,96,0.0,88.0
1828,67.0,0,96,0.0,72.0
1829,49.0,48,48,0.0,72.0
1830,67.0,48,0,0.0,72.0
1831,50.0,0,96,0.0,72.0
1832,65.0,48,48,0.0,72.0
1833,64.0,48,48,0.0,72.0
1834,62.0,0,96,0.0,88.0
1835,66.0,48,48,0.0,72.0
1836,74.0,48,48,0.0,72.0
1837,60.0,0,96,0.0,88.0
1838,68.0,48,48,0.0,72.0
1839,71.0,48,48,0.0,72.0
1840,59.0,0,96,0.0,88.0
1841,71.0,48,48,0.0,72.0
1842,71.0,48,48,0.0,72.0
1843,60.0,0,96,0.0,88.0
1844,69.0,48,48,0.0,72.0
1845,68.0,48,48,0.0,72.0
1846,65.0,0,96,0.0,88.0
1847,69.0,48,48,0.0,72.0
1848,77.0,48,48,0.0,72.0
1849,64.0,0,96,0.0,88.0
1850,71.0,48,48,0.0,72.0
1851,74.0,48,48,0.0,72.0
1852,62.0,0,96,0.0,88.0
1853,74.0,0,48,0.0,72.0
1854,74.0,48,48,0.0,72.0
1855,64.0,48,96,0.0,88.0
1856,72.0,48,48,0.0,72.0
1857,71.0,48,48,0.0,72.0
1858,69.0,0,96,0.0,88.0
1859,73.0,48,48,0.0,72.0
1860,67.0,0,96,0.0,88.0
1861,81.0,48,48,0.0,72.0
1862,74.0,0,48,0.0,72.0
1863,65.0,48,0,0.0,88.0
1864,57.0,0,192,0.0,88.0
1865,77.0,48,48,0.0,72.0
1866,71.0,0,96,0.0,72.0
1867,63.0,48,48,0.0,88.0
1868,55.0,0,96,0.0,88.0
1869,64.0,48,0,0.0,88.0
1870,76.0,48,96,0.0,72.0
1871,60.0,0,96,0.0,88.0
1872,64.0,0,48,0.0,88.0
1873,61.0,48,48,0.0,88.0
1874,81.0,48,96,0.0,72.0
1875,54.0,0,96,0.0,88.0
1876,62.0,0,48,0.0,88.0
1877,62.0,48,0,0.0,88.0
1878,53.0,0,96,0.0,88.0
1879,69.0,48,96,0.0,72.0
1880,67.0,0,96,0.0,72.0
1881,52.0,0,96,0.0,88.0
1882,59.0,48,48,0.0,88.0
1883,60.0,48,48,0.0,88.0
1884,60.0,48,48,0.0,88.0
1885,57.0,0,96,0.0,88.0
1886,72.0,0,96,0.0,72.0
1887,52.0,0,24,0.0,88.0
1888,60.0,48,48,0.0,88.0
1889,50.0,24,24,0.0,88.0
1890,52.0,0,24,0.0,88.0
1891,77.0,0,96,0.0,72.0
1892,59.0,24,48,0.0,88.0
1893,50.0,24,24,0.0,88.0
1894,52.0,0,24,0.0,88.0
1895,57.0,24,48,0.0,88.0
1896,50.0,24,24,0.0,88.0
1897,48.0,24,24,0.0,88.0
1898,56.0,0,48,0.0,88.0
1899,50.0,24,24,0.0,88.0
1900,65.0,0,96,0.0,72.0
1901,64.0,24,48,0.0,72.0
1902,48.0,0,96,0.0,88.0
1903,76.0,48,48,0.0,72.0
1904,74.0,0,48,0.0,72.0
1905,72.0,48,48,0.0,72.0
1906,50.0,48,96,0.0,88.0
1907,71.0,48,48,0.0,72.0
1908,52.0,0,48,0.0,88.0
1909,72.0,48,48,0.0,72.0
1910,57.0,0,288,0.0,88.0
1911,50.0,0,48,0.0,88.0
1912,69.0,0,48,0.0,72.0
1913,52.0,0,96,0.0,88.0
1914,56.0,48,96,0.0,72.0
1915,71.0,48,48,0.0,72.0
1916,57.0,0,48,0.0,72.0
1917,72.0,0,48,0.0,72.0
1918,76.0,48,48,0.0,72.0
1919,60.0,0,48,0.0,72.0
1920,59.0,0,48,0.0,72.0
1921,74.0,48,48,0.0,72.0
1922,45.0,48,192,0.0,88.0
1923,57.0,48,48,0.0,72.0
1924,77.0,0,48,0.0,72.0
1925,56.0,0,48,0.0,72.0
1926,76.0,48,96,0.0,72.0
1927,57.0,48,48,0.0,72.0
1928,54.0,0,48,0.0,72.0
1929,56.0,48,48,0.0,72.0
1930,47.0,0,96,0.0,72.0
1931,74.0,48,96,0.0,72.0
1932,48.0,48,48,0.0,72.0
1933,57.0,0,48,0.0,72.0
1934,47.0,0,48,0.0,72.0
1935,74.0,0,96,0.0,72.0
1936,64.0,48,48,0.0,72.0
1937,48.0,48,48,0.0,72.0
1938,50.0,48,48,0.0,72.0
1939,72.0,0,96,0.0,72.0
1940,52.0,48,48,0.0,72.0
1941,69.0,0,192,0.0,72.0
1942,50.0,48,48,0.0,72.0
1943,71.0,0,96,0.0,72.0
1944,53.0,0,48,0.0,72.0
1945,52.0,48,48,0.0,72.0
1946,67.0,0,0,0.0,72.0
1947,73.0,48,96,0.0,72.0
1948,53.0,48,48,0.0,72.0
1949,74.0,0,48,0.0,72.0
1950,69.0,0,48,0.0,72.0
1951,50.0,0,48,0.0,72.0
1952,65.0,48,48,0.0,72.0
1953,67.0,0,48,0.0,72.0
1954,64.0,0,48,0.0,72.0
1955,62.0,0,48,0.0,72.0
1956,65.0,48,48,0.0,72.0
1957,64.0,48,48,0.0,72.0
1958,61.0,0,48,0.0,72.0
1959,55.0,48,192,0.0,72.0
1960,62.0,0,48,0.0,72.0
1961,59.0,0,48,0.0,72.0
1962,53.0,48,48,0.0,72.0
1963,64.0,0,96,0.0,72.0
1964,52.0,48,48,0.0,72.0
1965,61.0,0,48,0.0,72.0
1966,62.0,0,48,0.0,72.0
1967,53.0,0,96,0.0,72.0
1968,64.0,48,48,0.0,72.0
1969,65.0,0,48,0.0,72.0
1970,67.0,48,48,0.0,72.0
1971,57.0,48,96,0.0,72.0
1972,69.0,48,48,0.0,72.0
1973,67.0,48,48,0.0,72.0
1974,54.0,0,0,0.0,72.0
1975,70.0,0,48,0.0,72.0
1976,50.0,48,96,0.0,72.0
1977,69.0,48,48,0.0,72.0
1978,55.0,0,48,0.0,72.0
1979,57.0,48,48,0.0,72.0
1980,58.0,48,48,0.0,72.0
1981,60.0,48,48,0.0,72.0
1982,70.0,0,192,0.0,72.0
1983,72.0,0,24,0.0,72.0
1984,71.0,24,24,0.0,72.0
1985,62.0,48,48,0.0,72.0
1986,72.0,24,24,0.0,72.0
1987,60.0,0,48,0.0,72.0
1988,71.0,24,24,0.0,72.0
1989,72.0,0,24,0.0,72.0
1990,64.0,24,48,0.0,72.0
1991,71.0,24,24,0.0,72.0
1992,69.0,24,24,0.0,72.0
1993,62.0,0,48,0.0,72.0
1994,55.0,0,96,0.0,72.0
1995,71.0,24,24,0.0,72.0
1996,64.0,0,48,0.0,72.0
1997,48.0,24,48,0.0,72.0
1998,65.0,48,48,0.0,72.0
1999,60.0,0,48,0.0,72.0
2000,58.0,0,48,0.0,72.0
2001,67.0,48,48,0.0,72.0
2002,69.0,0,48,0.0,72.0
2003,57.0,48,48,0.0,72.0
2004,72.0,0,192,0.0,72.0
2005,55.0,0,48,0.0,72.0
2006,70.0,48,48,0.0,72.0
2007,57.0,48,48,0.0,72.0
2008,69.0,0,48,0.0,72.0
2009,72.0,0,48,0.0,72.0
2010,53.0,48,48,0.0,72.0
2011,55.0,48,48,0.0,72.0
2012,70.0,0,48,0.0,72.0
2013,57.0,48,48,0.0,72.0
2014,77.0,48,48,0.0,72.0
2015,58.0,0,48,0.0,72.0
2016,72.0,0,96,0.0,72.0
2017,60.0,0,48,0.0,72.0
2018,76.0,48,48,0.0,72.0
2019,74.0,0,48,0.0,72.0
2020,62.0,48,48,0.0,72.0
2021,72.0,48,48,0.0,72.0
2022,64.0,0,48,0.0,72.0
2023,74.0,0,48,0.0,72.0
2024,62.0,48,48,0.0,72.0
2025,70.0,48,48,0.0,72.0
2026,65.0,0,48,0.0,72.0
2027,64.0,48,48,0.0,72.0
2028,72.0,0,48,0.0,72.0
2029,69.0,48,0,0.0,72.0
2030,72.0,0,48,0.0,72.0
2031,65.0,48,96,0.0,72.0
2032,67.0,0,48,0.0,72.0
2033,70.0,48,48,0.0,72.0
2034,69.0,48,48,0.0,72.0
2035,65.0,0,48,0.0,72.0
2036,58.0,0,96,0.0,72.0
2037,64.0,0,48,0.0,72.0
2038,67.0,48,48,0.0,72.0
2039,69.0,48,48,0.0,72.0
2040,65.0,0,48,0.0,72.0
2041,60.0,0,96,0.0,72.0
2042,65.0,0,48,0.0,72.0
2043,62.0,48,48,0.0,72.0
2044,67.0,48,48,0.0,72.0
2045,64.0,0,48,0.0,72.0
2046,48.0,0,96,0.0,72.0
2047,65.0,0,48,0.0,72.0
2048,53.0,0,48,0.0,72.0
2049,60.0,0,48,0.0,72.0
2050,55.0,48,48,0.0,72.0
2051,57.0,0,48,0.0,72.0
2052,58.0,48,48,0.0,72.0
2053,69.0,48,192,0.0,72.0
2054,60.0,48,48,0.0,72.0
2055,59.0,48,48,0.0,72.0
2056,65.0,48,192,0.0,72.0
2057,62.0,0,48,0.0,72.0
2058,61.0,48,48,0.0,72.0
2059,64.0,48,96,0.0,72.0
2060,67.0,0,192,0.0,72.0
2061,62.0,48,48,0.0,72.0
2062,47.0,48,48,0.0,72.0
2063,64.0,0,96,0.0,72.0
2064,49.0,0,48,0.0,72.0
2065,50.0,48,48,0.0,72.0
2066,65.0,0,192,0.0,72.0
2067,52.0,48,48,0.0,72.0
2068,62.0,48,144,0.0,72.0
2069,59.0,0,48,0.0,72.0
2070,50.0,48,48,0.0,72.0
2071,53.0,0,48,0.0,72.0
2072,61.0,48,48,0.0,72.0
2073,52.0,0,48,0.0,72.0
2074,64.0,48,48,0.0,72.0
2075,57.0,0,48,0.0,72.0
2076,55.0,48,48,0.0,72.0
2077,53.0,48,48,0.0,72.0
2078,59.0,0,48,0.0,72.0
2079,61.0,0,48,0.0,72.0
2080,52.0,48,48,0.0,72.0
2081,50.0,0,48,0.0,72.0
2082,62.0,48,48,0.0,72.0
2083,64.0,0,48,0.0,72.0
2084,49.0,48,48,0.0,72.0
2085,50.0,0,48,0.0,72.0
2086,62.0,48,48,0.0,72.0
2087,65.0,48,48,0.0,72.0
2088,47.0,0,48,0.0,72.0
2089,49.0,0,48,0.0,72.0
2090,64.0,48,48,0.0,72.0
2091,67.0,0,48,0.0,72.0
2092,50.0,48,48,0.0,72.0
2093,48.0,0,48,0.0,72.0
2094,66.0,48,48,0.0,72.0
2095,68.0,48,48,0.0,72.0
2096,47.0,0,48,0.0,72.0
2097,69.0,48,48,0.0,72.0
2098,45.0,0,48,0.0,72.0
2099,44.0,0,48,0.0,72.0
2100,71.0,48,48,0.0,72.0
2101,45.0,48,48,0.0,72.0
2102,69.0,0,48,0.0,72.0
2103,42.0,48,48,0.0,72.0
2104,72.0,0,48,0.0,72.0
2105,44.0,48,48,0.0,72.0
2106,71.0,0,48,0.0,72.0
2107,74.0,48,48,0.0,72.0
2108,45.0,0,96,0.0,72.0
2109,72.0,48,48,0.0,72.0
2110,71.0,0,48,0.0,72.0
2111,69.0,48,48,0.0,72.0
2112,71.0,48,48,0.0,72.0
2113,57.0,48,192,0.0,72.0
2114,72.0,48,48,0.0,72.0
2115,71.0,48,48,0.0,72.0
2116,56.0,0,96,0.0,72.0
2117,77.0,0,192,0.0,88.0
2118,74.0,0,0,0.0,72.0
2119,71.0,48,48,0.0,72.0
2120,76.0,48,96,0.0,88.0
2121,57.0,0,96,0.0,72.0
2122,72.0,48,48,0.0,72.0
2123,60.0,0,96,0.0,88.0
2124,81.0,0,96,0.0,88.0
2125,72.0,48,0,0.0,72.0
2126,70.0,48,48,0.0,72.0
2127,75.0,0,96,0.0,88.0
2128,54.0,0,96,0.0,88.0
2129,71.0,48,48,0.0,72.0
2130,71.0,48,48,0.0,72.0
2131,74.0,0,96,0.0,88.0
2132,56.0,0,96,0.0,88.0
2133,71.0,48,48,0.0,72.0
2134,72.0,0,96,0.0,88.0
2135,68.0,48,48,0.0,72.0
2136,69.0,0,48,0.0,72.0
2137,69.0,48,48,0.0,72.0
2138,77.0,48,96,0.0,88.0
2139,57.0,0,96,0.0,88.0
2140,72.0,0,24,0.0,88.0
2141,71.0,24,24,0.0,88.0
2142,69.0,48,48,0.0,72.0
2143,72.0,24,24,0.0,88.0
2144,67.0,0,48,0.0,72.0
2145,58.0,0,96,0.0,88.0
2146,71.0,24,24,0.0,88.0
2147,72.0,24,24,0.0,88.0
2148,65.0,0,48,0.0,72.0
2149,71.0,24,24,0.0,88.0
2150,69.0,0,24,0.0,88.0
2151,71.0,24,24,0.0,88.0
2152,60.0,0,96,0.0,88.0
2153,64.0,24,48,0.0,72.0
2154,65.0,0,48,0.0,72.0
2155,69.0,48,48,0.0,72.0
2156,67.0,48,48,0.0,72.0
2157,65.0,48,48,0.0,72.0
2158,62.0,0,96,0.0,88.0
2159,70.0,0,96,0.0,88.0
2160,64.0,48,48,0.0,72.0
2161,72.0,0,48,0.0,88.0
2162,65.0,0,48,0.0,72.0
2163,60.0,0,96,0.0,88.0
2164,70.0,48,48,0.0,88.0
2165,62.0,48,48,0.0,72.0
2166,58.0,0,96,0.0,88.0
2167,64.0,48,48,0.0,72.0
2168,72.0,0,96,0.0,88.0
2169,65.0,0,48,0.0,72.0
2170,69.0,48,48,0.0,72.0
2171,72.0,48,48,0.0,72.0
2172,57.0,0,48,0.0,88.0
2173,55.0,48,48,0.0,88.0
2174,70.0,0,48,0.0,72.0
2175,77.0,0,144,0.0,72.0
2176,72.0,48,96,0.0,72.0
2177,76.0,48,48,0.0,72.0
2178,57.0,0,96,0.0,88.0
2179,74.0,0,48,0.0,72.0
2180,77.0,48,48,0.0,72.0
2181,59.0,48,96,0.0,88.0
2182,60.0,48,48,0.0,88.0
2183,62.0,48,48,0.0,72.0
2184,76.0,0,96,0.0,72.0
2185,81.0,48,48,0.0,72.0
2186,60.0,0,48,0.0,72.0
2187,80.0,48,48,0.0,72.0
2188,59.0,0,48,0.0,72.0
2189,57.0,0,48,0.0,72.0
2190,60.0,48,48,0.0,72.0
2191,81.0,48,96,0.0,72.0
2192,66.0,48,48,0.0,72.0
2193,69.0,48,48,0.0,72.0
2194,72.0,0,192,0.0,88.0
2195,75.0,0,96,0.0,72.0
2196,69.0,48,48,0.0,72.0
2197,66.0,48,48,0.0,72.0
2198,71.0,0,96,0.0,88.0
2199,76.0,0,0,0.0,88.0
2200,67.0,48,48,0.0,72.0
2201,79.0,0,96,0.0,72.0
2202,67.0,48,48,0.0,72.0
2203,67.0,0,48,0.0,72.0
2204,73.0,0,96,0.0,72.0
2205,64.0,48,48,0.0,72.0
2206,70.0,48,96,0.0,88.0
2207,65.0,48,0,0.0,72.0
2208,74.0,0,96,0.0,72.0
2209,69.0,48,96,0.0,88.0
2210,65.0,0,48,0.0,72.0
2211,63.0,48,48,0.0,72.0
2212,67.0,48,96,0.0,88.0
2213,64.0,48,0,0.0,72.0
2214,72.0,0,96,0.0,88.0
2215,76.0,0,96,0.0,88.0
2216,67.0,48,24,0.0,88.0
2217,65.0,24,24,0.0,88.0
2218,64.0,0,48,0.0,72.0
2219,67.0,0,24,0.0,88.0
2220,77.0,0,96,0.0,88.0
2221,65.0,24,24,0.0,88.0
2222,62.0,24,48,0.0,72.0
2223,67.0,0,24,0.0,88.0
2224,65.0,24,24,0.0,88.0
2225,60.0,24,48,0.0,72.0
2226,64.0,24,24,0.0,88.0
2227,65.0,24,24,0.0,88.0
2228,79.0,0,96,0.0,88.0
2229,59.0,0,48,0.0,72.0
2230,60.0,0,48,0.0,72.0
2231,64.0,48,48,0.0,72.0
2232,62.0,48,48,0.0,72.0
2233,60.0,48,48,0.0,72.0
2234,81.0,0,96,0.0,88.0
2235,65.0,0,96,0.0,88.0
2236,67.0,0,48,0.0,88.0
2237,59.0,0,48,0.0,72.0
2238,65.0,0,48,0.0,88.0
2239,79.0,48,96,0.0,88.0
2240,60.0,48,48,0.0,72.0
2241,57.0,48,48,0.0,72.0
2242,59.0,48,48,0.0,72.0
2243,67.0,0,96,0.0,88.0
2244,77.0,0,96,0.0,88.0
2245,60.0,0,48,0.0,72.0
2246,62.0,48,48,0.0,72.0
2247,60.0,48,0,0.0,72.0
2248,76.0,0,48,0.0,88.0
2249,74.0,0,48,0.0,88.0
2250,58.0,48,48,0.0,72.0
2251,72.0,0,144,0.0,72.0
2252,76.0,48,96,0.0,88.0
2253,70.0,48,48,0.0,72.0
2254,57.0,0,96,0.0,72.0
2255,69.0,48,48,0.0,72.0
2256,78.0,0,96,0.0,88.0
2257,62.0,0,96,0.0,72.0
2258,72.0,48,48,0.0,72.0
2259,79.0,48,48,0.0,88.0
2260,67.0,0,96,0.0,72.0
2261,74.0,48,48,0.0,72.0
2262,70.0,0,96,0.0,72.0
2263,76.0,48,48,0.0,72.0
2264,78.0,48,48,0.0,72.0
2265,60.0,0,96,0.0,72.0
2266,69.0,0,96,0.0,72.0
2267,79.0,0,48,0.0,72.0
2268,67.0,0,96,0.0,72.0
2269,58.0,48,96,0.0,72.0
2270,78.0,48,48,0.0,72.0
2271,81.0,48,48,0.0,72.0
2272,79.0,48,48,0.0,72.0
2273,57.0,0,96,0.0,72.0
2274,66.0,0,96,0.0,72.0
2275,82.0,0,48,0.0,72.0
2276,67.0,48,48,0.0,72.0
2277,81.0,0,48,0.0,72.0
2278,65.0,48,48,0.0,72.0
2279,63.0,48,48,0.0,72.0
2280,79.0,0,48,0.0,72.0
2281,55.0,0,192,0.0,72.0
2282,77.0,48,48,0.0,72.0
2283,62.0,0,48,0.0,72.0
2284,75.0,48,48,0.0,72.0
2285,58.0,48,48,0.0,72.0
2286,74.0,0,48,0.0,88.0
2287,60.0,0,96,0.0,72.0
2288,75.0,0,48,0.0,88.0
2289,57.0,48,48,0.0,72.0
2290,75.0,0,48,0.0,88.0
2291,55.0,48,48,0.0,72.0
2292,75.0,0,48,0.0,88.0
2293,73.0,48,48,0.0,88.0
2294,53.0,48,96,0.0,88.0
2295,74.0,0,48,0.0,88.0
2296,62.0,48,96,0.0,88.0
2297,58.0,0,96,0.0,88.0
2298,74.0,0,0,0.0,88.0
2299,52.0,0,96,0.0,88.0
2300,71.0,48,48,0.0,88.0
2301,55.0,48,96,0.0,88.0
2302,72.0,48,0,0.0,88.0
2303,72.0,48,0,0.0,88.0
2304,57.0,0,96,0.0,88.0
2305,51.0,48,96,0.0,88.0
2306,50.0,0,96,0.0,88.0
2307,69.0,48,48,0.0,88.0
2308,70.0,48,0,0.0,88.0
2309,58.0,0,96,0.0,88.0
2310,55.0,0,96,0.0,88.0
2311,50.0,0,24,0.0,88.0
2312,70.0,0,48,0.0,88.0
2313,48.0,24,24,0.0,88.0
2314,50.0,24,24,0.0,88.0
2315,48.0,24,24,0.0,88.0
2316,60.0,48,96,0.0,88.0
2317,69.0,0,48,0.0,88.0
2318,50.0,24,24,0.0,88.0
2319,67.0,0,48,0.0,88.0
2320,48.0,24,24,0.0,88.0
2321,46.0,24,24,0.0,88.0
2322,66.0,0,48,0.0,88.0
2323,62.0,0,96,0.0,88.0
2324,48.0,24,24,0.0,88.0
2325,67.0,0,48,0.0,88.0
2326,46.0,24,96,0.0,88.0
2327,70.0,48,48,0.0,72.0
2328,69.0,0,48,0.0,72.0
2329,67.0,48,48,0.0,72.0
2330,48.0,48,96,0.0,88.0
2331,63.0,0,96,0.0,88.0
2332,66.0,0,48,0.0,72.0
2333,50.0,0,48,0.0,88.0
2334,62.0,48,96,0.0,88.0
2335,48.0,48,48,0.0,88.0
2336,67.0,0,48,0.0,72.0
2337,63.0,0,48,0.0,72.0
2338,66.0,48,48,0.0,72.0
2339,50.0,0,96,0.0,88.0
2340,60.0,48,96,0.0,88.0
2341,67.0,0,48,0.0,72.0
2342,62.0,48,48,0.0,72.0
2343,58.0,48,48,0.0,88.0
2344,57.0,48,48,0.0,88.0
2345,43.0,48,192,0.0,88.0
2346,67.0,0,144,0.0,72.0
2347,58.0,48,96,0.0,88.0
2348,70.0,48,48,0.0,72.0
2349,69.0,0,48,0.0,72.0
2350,72.0,48,48,0.0,72.0
2351,60.0,48,96,0.0,88.0
2352,62.0,0,48,0.0,88.0
2353,63.0,48,48,0.0,72.0
2354,55.0,48,48,0.0,72.0
2355,62.0,0,48,0.0,72.0
2356,57.0,48,48,0.0,72.0
2357,61.0,0,48,0.0,72.0
2358,62.0,0,48,0.0,72.0
2359,65.0,48,48,0.0,72.0
2360,55.0,48,96,0.0,72.0
2361,64.0,0,48,0.0,72.0
2362,70.0,48,384,0.0,72.0
2363,49.0,48,96,0.0,72.0
2364,67.0,48,48,0.0,72.0
2365,65.0,0,48,0.0,72.0
2366,50.0,0,96,0.0,72.0
2367,70.0,48,96,0.0,72.0
2368,64.0,48,48,0.0,72.0
2369,69.0,0,48,0.0,72.0
2370,67.0,48,48,0.0,72.0
2371,65.0,0,144,0.0,72.0
2372,62.0,48,144,0.0,72.0
2373,60.0,48,48,0.0,72.0
2374,69.0,48,96,0.0,72.0
2375,64.0,0,48,0.0,72.0
2376,62.0,48,48,0.0,72.0
2377,58.0,0,48,0.0,72.0
2378,57.0,48,48,0.0,72.0
2379,74.0,0,96,0.0,72.0
2380,65.0,0,48,0.0,72.0
2381,64.0,0,48,0.0,72.0
2382,74.0,48,48,0.0,72.0
2383,72.0,48,48,0.0,72.0
2384,66.0,0,48,0.0,72.0
2385,55.0,0,144,0.0,72.0
2386,71.0,48,48,0.0,72.0
2387,74.0,0,48,0.0,72.0
2388,53.0,48,48,0.0,72.0
2389,73.0,0,48,0.0,72.0
2390,52.0,48,48,0.0,72.0
2391,67.0,0,144,0.0,72.0
2392,65.0,0,48,0.0,72.0
2393,74.0,0,48,0.0,72.0
2394,50.0,48,48,0.0,72.0
2395,49.0,48,48,0.0,72.0
2396,64.0,0,48,0.0,72.0
2397,67.0,0,48,0.0,72.0
2398,76.0,0,96,0.0,72.0
2399,58.0,48,48,0.0,72.0
2400,76.0,0,48,0.0,72.0
2401,65.0,48,48,0.0,72.0
2402,67.0,0,48,0.0,72.0
2403,74.0,48,48,0.0,72.0
2404,57.0,0,144,0.0,72.0
2405,73.0,48,48,0.0,72.0
2406,55.0,48,48,0.0,72.0
2407,76.0,0,48,0.0,72.0
2408,69.0,0,144,0.0,72.0
2409,74.0,48,48,0.0,72.0
2410,53.0,0,48,0.0,72.0
2411,76.0,48,48,0.0,72.0
2412,52.0,0,48,0.0,72.0
2413,67.0,0,48,0.0,72.0
2414,50.0,48,48,0.0,72.0
2415,65.0,0,48,0.0,72.0
2416,60.0,48,48,0.0,72.0
2417,69.0,0,48,0.0,72.0
2418,77.0,0,0,0.0,72.0
2419,68.0,0,48,0.0,72.0
2420,76.0,48,48,0.0,72.0
2421,69.0,0,48,0.0,72.0
2422,74.0,0,48,0.0,72.0
2423,59.0,48,144,0.0,72.0
2424,57.0,0,48,0.0,72.0
2425,77.0,48,48,0.0,72.0
2426,56.0,48,48,0.0,72.0
2427,76.0,0,48,0.0,72.0
2428,71.0,48,192,0.0,72.0
2429,74.0,0,48,0.0,72.0
2430,59.0,48,48,0.0,72.0
2431,73.0,48,48,0.0,72.0
2432,69.0,0,48,0.0,72.0
2433,52.0,0,96,0.0,72.0
2434,68.0,48,48,0.0,72.0
2435,71.0,0,48,0.0,72.0
2436,69.0,48,48,0.0,72.0
2437,73.0,0,96,0.0,72.0
2438,64.0,48,48,0.0,72.0
2439,69.0,48,0,0.0,72.0
2440,77.0,48,96,0.0,72.0
2441,69.0,0,0,0.0,72.0
2442,71.0,48,48,0.0,72.0
2443,74.0,0,48,0.0,72.0
2444,66.0,48,48,0.0,72.0
2445,73.0,48,48,0.0,72.0
2446,67.0,0,0,0.0,72.0
2447,57.0,0,384,0.0,72.0
2448,76.0,48,48,0.0,72.0
2449,67.0,0,48,0.0,72.0
2450,64.0,48,48,0.0,72.0
2451,69.0,48,96,0.0,72.0
2452,81.0,48,0,0.0,88.0
2453,65.0,48,48,0.0,72.0
2454,62.0,0,48,0.0,72.0
2455,81.0,0,0,0.0,88.0
2456,59.0,48,48,0.0,72.0
2457,78.0,48,48,0.0,88.0
2458,62.0,0,48,0.0,72.0
2459,61.0,0,48,0.0,72.0
2460,79.0,0,0,0.0,88.0
2461,64.0,48,48,0.0,72.0
2462,57.0,0,0,0.0,72.0
2463,79.0,48,48,0.0,88.0
2464,76.0,48,48,0.0,88.0
2465,62.0,48,48,0.0,72.0
2466,77.0,0,0,0.0,88.0
2467,60.0,48,48,0.0,72.0
2468,77.0,48,0,0.0,88.0
2469,74.0,48,48,0.0,88.0
2470,59.0,0,96,0.0,72.0
2471,76.0,0,48,0.0,88.0
2472,76.0,48,48,0.0,88.0
2473,58.0,48,0,0.0,88.0
2474,50.0,0,192,0.0,88.0
2475,56.0,48,48,0.0,88.0
2476,48.0,0,96,0.0,88.0
2477,76.0,0,96,0.0,88.0
2478,57.0,0,48,0.0,88.0
2479,53.0,48,96,0.0,88.0
2480,69.0,0,96,0.0,88.0
2481,57.0,0,0,0.0,88.0
2482,47.0,0,96,0.0,88.0
2483,54.0,48,48,0.0,88.0
2484,62.0,48,96,0.0,88.0
2485,55.0,0,48,0.0,88.0
2486,55.0,48,48,0.0,88.0
2487,64.0,48,96,0.0,88.0
2488,46.0,0,96,0.0,88.0
2489,55.0,48,48,0.0,88.0
2490,52.0,48,48,0.0,88.0
2491,45.0,0,96,0.0,88.0
2492,53.0,0,48,0.0,88.0
2493,65.0,48,96,0.0,88.0
2494,53.0,48,48,0.0,88.0
2495,50.0,0,96,0.0,88.0
2496,45.0,0,24,0.0,88.0
2497,43.0,24,24,0.0,88.0
2498,53.0,0,48,0.0,88.0
2499,45.0,24,24,0.0,88.0
2500,51.0,0,48,0.0,88.0
2501,43.0,24,24,0.0,88.0
2502,67.0,48,96,0.0,88.0
2503,45.0,0,24,0.0,88.0
2504,43.0,24,24,0.0,88.0
2505,50.0,24,48,0.0,88.0
2506,41.0,24,24,0.0,88.0
2507,69.0,0,96,0.0,88.0
2508,49.0,0,48,0.0,88.0
2509,43.0,24,24,0.0,88.0
2510,50.0,24,48,0.0,88.0
2511,41.0,0,96,0.0,88.0
2512,53.0,48,48,0.0,72.0
2513,52.0,48,48,0.0,72.0
2514,70.0,0,96,0.0,88.0
2515,43.0,0,96,0.0,88.0
2516,50.0,48,48,0.0,72.0
2517,49.0,0,48,0.0,72.0
2518,45.0,48,48,0.0,88.0
2519,50.0,0,48,0.0,72.0
2520,69.0,0,96,0.0,88.0
2521,43.0,48,48,0.0,88.0
2522,47.0,48,48,0.0,72.0
2523,67.0,0,96,0.0,88.0
2524,45.0,0,96,0.0,88.0
2525,49.0,48,48,0.0,72.0
2526,50.0,0,48,0.0,72.0
2527,52.0,48,48,0.0,72.0
2528,38.0,48,96,0.0,88.0
2529,53.0,0,48,0.0,72.0
2530,65.0,0,48,0.0,88.0
2531,64.0,0,48,0.0,88.0
2532,55.0,48,48,0.0,72.0
2533,50.0,48,144,0.0,72.0
2534,48.0,48,48,0.0,72.0
2535,65.0,0,96,0.0,88.0
2536,57.0,48,96,0.0,72.0
2537,46.0,48,48,0.0,72.0
2538,50.0,48,48,0.0,72.0
2539,67.0,0,96,0.0,88.0
2540,62.0,0,96,0.0,72.0
2541,69.0,0,48,0.0,88.0
2542,67.0,48,48,0.0,72.0
2543,48.0,48,96,0.0,72.0
2544,54.0,0,96,0.0,72.0
2545,66.0,0,48,0.0,72.0
2546,69.0,48,48,0.0,72.0
2547,57.0,0,96,0.0,72.0
2548,60.0,48,144,0.0,72.0
2549,58.0,48,48,0.0,72.0
2550,62.0,0,96,0.0,72.0
2551,57.0,48,48,0.0,72.0
2552,66.0,0,96,0.0,72.0
2553,60.0,48,48,0.0,72.0
2554,74.0,0,0,0.0,72.0
2555,72.0,48,48,0.0,72.0
2556,58.0,0,96,0.0,72.0
2557,70.0,48,48,0.0,72.0
2558,67.0,48,144,0.0,72.0
2559,65.0,48,48,0.0,72.0
2560,74.0,0,48,0.0,72.0
2561,46.0,0,144,0.0,72.0
2562,64.0,48,96,0.0,72.0
2563,67.0,0,96,0.0,72.0
2564,45.0,48,48,0.0,72.0
2565,43.0,0,48,0.0,72.0
2566,63.0,48,96,0.0,72.0
2567,46.0,48,48,0.0,72.0
2568,72.0,0,0,0.0,72.0
2569,63.0,48,48,0.0,72.0
2570,62.0,48,48,0.0,72.0
2571,70.0,0,48,0.0,72.0
2572,45.0,0,96,0.0,72.0
2573,60.0,48,48,0.0,72.0
2574,69.0,0,48,0.0,72.0
2575,63.0,48,48,0.0,72.0
2576,72.0,0,48,0.0,72.0
2577,57.0,0,144,0.0,72.0
2578,70.0,48,96,0.0,72.0
2579,62.0,48,0,0.0,72.0
2580,55.0,48,48,0.0,72.0
2581,54.0,0,48,0.0,72.0
2582,57.0,48,48,0.0,72.0
2583,62.0,0,0,0.0,72.0
2584,70.0,0,0,0.0,72.0
2585,72.0,24,24,0.0,72.0
2586,70.0,24,24,0.0,72.0
2587,69.0,24,24,0.0,72.0
2588,55.0,0,0,0.0,72.0
2589,67.0,24,24,0.0,72.0
2590,55.0,24,0,0.0,72.0
2591,70.0,24,24,0.0,72.0
2592,58.0,0,0,0.0,72.0
2593,72.0,0,24,0.0,72.0
2594,74.0,24,24,0.0,72.0
2595,55.0,0,0,0.0,72.0
2596,75.0,0,24,0.0,72.0
2597,77.0,24,24,0.0,72.0
2598,75.0,24,24,0.0,72.0
2599,74.0,24,24,0.0,72.0
2600,55.0,0,0,0.0,72.0
2601,58.0,24,96,0.0,72.0
2602,73.0,0,24,0.0,72.0
2603,52.0,24,0,0.0,72.0
2604,74.0,24,24,0.0,72.0
2605,76.0,0,24,0.0,72.0
2606,55.0,0,48,0.0,72.0
2607,52.0,0,0,0.0,72.0
2608,77.0,24,24,0.0,72.0
2609,79.0,24,24,0.0,72.0
2610,81.0,24,24,0.0,72.0
2611,79.0,24,24,0.0,72.0
2612,55.0,0,96,0.0,72.0
2613,77.0,24,24,0.0,72.0
2614,76.0,0,24,0.0,72.0
2615,49.0,24,0,0.0,72.0
2616,58.0,24,48,0.0,72.0
2617,77.0,24,24,0.0,72.0
2618,79.0,0,24,0.0,72.0
2619,81.0,24,24,0.0,72.0
2620,58.0,0,48,0.0,72.0
2621,82.0,0,48,0.0,72.0
2622,81.0,48,24,0.0,72.0
2623,52.0,24,96,0.0,72.0
2624,79.0,24,24,0.0,72.0
2625,49.0,0,96,0.0,72.0
2626,77.0,24,24,0.0,72.0
2627,76.0,24,24,0.0,72.0
2628,74.0,24,24,0.0,72.0
2629,73.0,24,24,0.0,72.0
2630,65.0,0,0,0.0,72.0
2631,64.0,48,0,0.0,72.0
2632,56.0,48,96,0.0,72.0
2633,74.0,24,288,0.0,72.0
2634,57.0,0,96,0.0,72.0
2635,67.0,48,48,0.0,72.0
2636,67.0,0,48,0.0,72.0
2637,66.0,48,48,0.0,72.0
2638,45.0,48,96,0.0,72.0
2639,73.0,0,96,0.0,72.0
2640,66.0,0,48,0.0,72.0
2641,69.0,48,0,0.0,72.0
2642,74.0,0,96,0.0,72.0
2643,67.0,48,48,0.0,72.0
2644,72.0,0,96,0.0,72.0
2645,71.0,48,48,0.0,72.0
2646,79.0,48,48,0.0,72.0
2647,67.0,0,96,0.0,72.0
2648,79.0,0,48,0.0,72.0
2649,70.0,48,96,0.0,72.0
2650,50.0,48,384,0.0,72.0
2651,78.0,0,0,0.0,72.0
2652,69.0,48,96,0.0,72.0
2653,81.0,0,0,0.0,72.0
2654,50.0,0,192,0.0,72.0
2655,72.0,48,96,0.0,72.0
2656,79.0,48,0,0.0,72.0
2657,70.0,0,48,0.0,72.0
2658,69.0,0,48,0.0,72.0
2659,77.0,48,48,0.0,72.0
2660,75.0,48,48,0.0,72.0
2661,74.0,48,48,0.0,72.0
2662,70.0,48,0,0.0,88.0
2663,73.0,0,96,0.0,88.0
2664,68.0,48,48,0.0,88.0
2665,69.0,48,48,0.0,88.0
2666,77.0,0,96,0.0,88.0
2667,69.0,0,0,0.0,88.0
2668,45.0,0,96,0.0,88.0
2669,71.0,48,96,0.0,88.0
2670,66.0,48,48,0.0,88.0
2671,38.0,0,96,0.0,88.0
2672,67.0,48,0,0.0,88.0
2673,70.0,48,96,0.0,88.0
2674,40.0,0,96,0.0,88.0
2675,67.0,0,0,0.0,88.0
2676,64.0,48,48,0.0,88.0
2677,69.0,48,96,0.0,88.0
2678,65.0,48,0,0.0,88.0
2679,41.0,48,96,0.0,88.0
2680,65.0,48,0,0.0,88.0
2681,74.0,0,96,0.0,88.0
2682,69.0,0,24,0.0,88.0
2683,67.0,24,24,0.0,88.0
2684,69.0,0,24,0.0,88.0
2685,63.0,24,48,0.0,88.0
2686,43.0,0,96,0.0,88.0
2687,67.0,24,24,0.0,88.0
2688,69.0,0,24,0.0,88.0
2689,62.0,24,48,0.0,88.0
2690,67.0,24,24,0.0,88.0
2691,65.0,0,24,0.0,88.0
2692,61.0,24,48,0.0,88.0
2693,67.0,24,24,0.0,88.0
2694,45.0,0,96,0.0,88.0
2695,62.0,24,48,0.0,88.0
2696,65.0,48,48,0.0,88.0
2697,64.0,0,48,0.0,88.0
2698,46.0,0,96,0.0,88.0
2699,67.0,48,96,0.0,88.0
2700,62.0,48,48,0.0,88.0
2701,69.0,0,48,0.0,88.0
2702,61.0,48,48,0.0,88.0
2703,67.0,48,48,0.0,88.0
2704,45.0,0,96,0.0,88.0
2705,62.0,0,48,0.0,88.0
2706,59.0,48,48,0.0,88.0
2707,43.0,0,96,0.0,88.0
2708,61.0,48,48,0.0,88.0
2709,69.0,0,96,0.0,88.0
2710,62.0,0,48,0.0,88.0
2711,58.0,48,48,0.0,88.0
2712,41.0,48,48,0.0,88.0
2713,57.0,0,48,0.0,88.0
2714,40.0,48,48,0.0,88.0
2715,55.0,0,48,0.0,88.0
2716,57.0,0,48,0.0,88.0
2717,62.0,48,24,0.0,88.0
2718,60.0,24,24,0.0,88.0
2719,41.0,48,96,0.0,88.0
2720,58.0,0,24,0.0,88.0
2721,57.0,24,24,0.0,88.0
2722,55.0,24,48,0.0,88.0
2723,43.0,24,96,0.0,88.0
2724,62.0,0,24,0.0,88.0
2725,59.0,24,24,0.0,88.0
2726,61.0,24,24,0.0,88.0
2727,62.0,24,24,0.0,88.0
2728,53.0,48,96,0.0,88.0
2729,64.0,24,24,0.0,88.0
2730,52.0,0,48,0.0,88.0
2731,65.0,24,24,0.0,88.0
2732,67.0,0,24,0.0,88.0
2733,50.0,24,48,0.0,88.0
2734,64.0,24,24,0.0,88.0
2735,62.0,0,24,0.0,88.0
2736,61.0,24,24,0.0,88.0
2737,52.0,24,48,0.0,88.0
2738,62.0,24,24,0.0,88.0
2739,53.0,0,48,0.0,88.0
2740,61.0,24,24,0.0,88.0
2741,62.0,0,24,0.0,88.0
2742,61.0,24,24,0.0,88.0
2743,59.0,24,24,0.0,88.0
2744,45.0,0,384,0.0,88.0
2745,55.0,24,0,0.0,88.0
2746,61.0,24,24,0.0,88.0
2747,62.0,0,288,0.0,88.0
2748,54.0,96,192,0.0,88.0
2749,38.0,0,288,0.0,88.0
