,note,step,duration,channel,velocity
0,72.0,15,13,0.0,64.0
1,74.0,15,13,0.0,64.0
2,45.0,0,52,1.0,64.0
3,76.0,15,13,0.0,64.0
4,77.0,0,26,0.0,64.0
5,57.0,15,52,1.0,64.0
6,72.0,30,26,0.0,64.0
7,71.0,0,26,0.0,64.0
8,56.0,30,52,1.0,64.0
9,75.0,30,26,0.0,64.0
10,76.0,0,26,0.0,64.0
11,55.0,30,52,1.0,64.0
12,70.0,30,26,0.0,64.0
13,69.0,30,26,0.0,64.0
14,54.0,0,52,1.0,64.0
15,73.0,30,26,0.0,64.0
16,74.0,30,26,0.0,64.0
17,53.0,0,52,1.0,64.0
18,68.0,30,56,0.0,64.0
19,52.0,30,52,1.0,64.0
20,69.0,30,52,0.0,64.0
21,71.0,30,26,0.0,64.0
22,50.0,30,73,1.0,64.0
23,48.0,15,13,1.0,64.0
24,50.0,15,13,1.0,64.0
25,64.0,30,52,0.0,64.0
26,52.0,15,13,1.0,64.0
27,53.0,0,26,1.0,64.0
28,69.0,15,52,0.0,64.0
29,48.0,30,26,1.0,64.0
30,47.0,30,26,1.0,64.0
31,68.0,0,52,0.0,64.0
32,51.0,30,26,1.0,64.0
33,52.0,30,26,1.0,64.0
34,67.0,0,52,0.0,64.0
35,46.0,30,26,1.0,64.0
36,45.0,30,26,1.0,64.0
37,66.0,0,52,0.0,64.0
38,49.0,30,26,1.0,64.0
39,50.0,30,26,1.0,64.0
40,65.0,0,52,0.0,64.0
41,44.0,30,56,1.0,64.0
42,64.0,30,52,0.0,64.0
43,45.0,30,52,1.0,64.0
44,47.0,30,26,1.0,64.0
45,62.0,30,86,0.0,64.0
46,60.0,30,13,0.0,64.0
47,40.0,30,52,1.0,64.0
48,59.0,15,13,0.0,64.0
49,60.0,0,26,0.0,64.0
50,45.0,15,52,1.0,64.0
51,69.0,30,56,0.0,64.0
52,47.0,30,52,1.0,64.0
53,68.0,30,26,0.0,64.0
54,76.0,30,26,0.0,64.0
55,49.0,0,52,1.0,64.0
56,67.0,30,56,0.0,64.0
57,66.0,30,13,0.0,64.0
58,50.0,30,52,1.0,64.0
59,64.0,15,13,0.0,64.0
60,63.0,15,26,0.0,64.0
61,47.0,0,52,1.0,64.0
62,71.0,30,56,0.0,64.0
63,49.0,30,52,1.0,64.0
64,70.0,30,26,0.0,64.0
65,78.0,30,26,0.0,64.0
66,51.0,0,52,1.0,64.0
67,69.0,30,43,0.0,64.0
68,67.0,15,13,0.0,64.0
69,69.0,15,13,0.0,64.0
70,52.0,30,52,1.0,64.0
71,71.0,15,13,0.0,64.0
72,72.0,0,26,0.0,64.0
73,64.0,15,52,1.0,64.0
74,67.0,30,26,0.0,64.0
75,66.0,0,26,0.0,64.0
76,63.0,30,52,1.0,64.0
77,70.0,30,26,0.0,64.0
78,71.0,30,26,0.0,64.0
79,62.0,0,52,1.0,64.0
80,65.0,30,26,0.0,64.0
81,64.0,30,26,0.0,64.0
82,61.0,0,52,1.0,64.0
83,68.0,30,26,0.0,64.0
84,69.0,30,26,0.0,64.0
85,60.0,0,52,1.0,64.0
86,63.0,30,56,0.0,64.0
87,59.0,30,52,1.0,64.0
88,64.0,30,52,0.0,64.0
89,66.0,30,26,0.0,64.0
90,57.0,30,73,1.0,64.0
91,55.0,15,13,1.0,64.0
92,57.0,15,13,1.0,64.0
93,59.0,30,52,0.0,64.0
94,59.0,15,13,1.0,64.0
95,60.0,15,26,1.0,64.0
96,76.0,0,52,0.0,64.0
97,55.0,30,26,1.0,64.0
98,54.0,30,26,1.0,64.0
99,75.0,0,52,0.0,64.0
100,58.0,30,26,1.0,64.0
101,59.0,30,26,1.0,64.0
102,74.0,0,52,0.0,64.0
103,53.0,30,26,1.0,64.0
104,52.0,30,26,1.0,64.0
105,73.0,0,52,0.0,64.0
106,56.0,30,26,1.0,64.0
107,57.0,30,26,1.0,64.0
108,72.0,0,52,0.0,64.0
109,51.0,30,56,1.0,64.0
110,71.0,30,52,0.0,64.0
111,52.0,30,52,1.0,64.0
112,54.0,30,26,1.0,64.0
113,69.0,30,86,0.0,64.0
114,67.0,30,13,0.0,64.0
115,47.0,30,52,1.0,64.0
116,66.0,15,13,0.0,64.0
117,67.0,0,26,0.0,64.0
118,52.0,15,52,1.0,64.0
119,76.0,30,56,0.0,64.0
120,54.0,30,52,1.0,64.0
121,75.0,30,26,0.0,64.0
122,83.0,0,26,0.0,64.0
123,56.0,30,52,1.0,64.0
124,57.0,30,26,1.0,64.0
125,74.0,30,56,0.0,64.0
126,72.0,0,13,0.0,64.0
127,45.0,30,26,1.0,64.0
128,71.0,15,13,0.0,64.0
129,72.0,0,26,0.0,64.0
130,69.0,30,26,0.0,64.0
131,57.0,15,86,1.0,64.0
132,71.0,30,52,0.0,64.0
133,56.0,30,26,1.0,64.0
134,64.0,0,26,1.0,64.0
135,73.0,30,52,0.0,64.0
136,55.0,30,56,1.0,64.0
137,74.0,30,26,0.0,64.0
138,54.0,30,13,1.0,64.0
139,62.0,0,26,0.0,64.0
140,52.0,15,13,1.0,64.0
141,54.0,15,26,1.0,64.0
142,50.0,30,26,1.0,64.0
143,74.0,0,86,0.0,64.0
144,52.0,30,52,1.0,64.0
145,73.0,30,26,0.0,64.0
146,81.0,30,26,0.0,64.0
147,54.0,0,52,1.0,64.0
148,55.0,30,26,1.0,64.0
149,72.0,30,56,0.0,64.0
150,71.0,0,13,0.0,64.0
151,43.0,30,26,1.0,64.0
152,69.0,15,13,0.0,64.0
153,71.0,15,26,0.0,64.0
154,67.0,30,26,0.0,64.0
155,55.0,0,86,1.0,64.0
156,69.0,30,52,0.0,64.0
157,54.0,30,26,1.0,64.0
158,62.0,30,26,1.0,64.0
159,71.0,0,52,0.0,64.0
160,53.0,30,43,1.0,64.0
161,52.0,15,13,1.0,64.0
162,53.0,15,13,1.0,64.0
163,72.0,30,52,0.0,64.0
164,55.0,15,13,1.0,64.0
165,57.0,0,26,1.0,64.0
166,84.0,15,52,0.0,64.0
167,52.0,30,26,1.0,64.0
168,51.0,0,26,1.0,64.0
169,83.0,30,52,0.0,64.0
170,54.0,30,26,1.0,64.0
171,55.0,0,26,1.0,64.0
172,82.0,30,52,0.0,64.0
173,50.0,30,26,1.0,64.0
174,49.0,30,26,1.0,64.0
175,81.0,0,52,0.0,64.0
176,52.0,30,26,1.0,64.0
177,53.0,30,26,1.0,64.0
178,80.0,0,52,0.0,64.0
179,48.0,30,56,1.0,64.0
180,79.0,30,52,0.0,64.0
181,47.0,30,52,1.0,64.0
182,48.0,30,13,1.0,64.0
183,50.0,15,13,1.0,64.0
184,77.0,30,73,0.0,64.0
185,71.0,15,13,0.0,64.0
186,72.0,15,13,0.0,64.0
187,43.0,15,52,1.0,64.0
188,74.0,15,13,0.0,64.0
189,76.0,0,26,0.0,64.0
190,55.0,15,52,1.0,64.0
191,71.0,30,26,0.0,64.0
192,70.0,0,26,0.0,64.0
193,54.0,30,52,1.0,64.0
194,73.0,30,26,0.0,64.0
195,74.0,0,26,0.0,64.0
196,53.0,30,52,1.0,64.0
197,69.0,30,26,0.0,64.0
198,68.0,30,26,0.0,64.0
199,52.0,0,52,1.0,64.0
200,71.0,30,26,0.0,64.0
201,72.0,0,26,0.0,64.0
202,51.0,30,52,1.0,64.0
203,67.0,30,56,0.0,64.0
204,50.0,30,52,1.0,64.0
205,66.0,30,52,0.0,64.0
206,67.0,30,13,0.0,64.0
207,69.0,15,13,0.0,64.0
208,48.0,30,86,1.0,64.0
209,47.0,30,13,1.0,64.0
210,62.0,15,52,0.0,64.0
211,45.0,15,13,1.0,64.0
212,47.0,0,26,1.0,64.0
213,67.0,15,52,0.0,64.0
214,55.0,30,56,1.0,64.0
215,69.0,30,52,0.0,64.0
216,54.0,30,26,1.0,64.0
217,62.0,30,26,1.0,64.0
218,71.0,0,52,0.0,64.0
219,53.0,30,56,1.0,64.0
220,52.0,30,13,1.0,64.0
221,72.0,30,52,0.0,64.0
222,50.0,15,13,1.0,64.0
223,49.0,0,26,1.0,64.0
224,69.0,15,52,0.0,64.0
225,57.0,30,56,1.0,64.0
226,71.0,30,52,0.0,64.0
227,56.0,30,26,1.0,64.0
228,64.0,0,26,1.0,64.0
229,73.0,30,52,0.0,64.0
230,55.0,30,43,1.0,64.0
231,54.0,15,13,1.0,64.0
232,55.0,15,13,1.0,64.0
233,74.0,30,52,0.0,64.0
234,57.0,15,13,1.0,64.0
235,58.0,15,26,1.0,64.0
236,62.0,0,52,0.0,64.0
237,53.0,30,26,1.0,64.0
238,52.0,0,26,1.0,64.0
239,61.0,30,52,0.0,64.0
240,56.0,30,26,1.0,64.0
241,57.0,0,26,1.0,64.0
242,60.0,30,52,0.0,64.0
243,51.0,30,26,1.0,64.0
244,50.0,30,26,1.0,64.0
245,59.0,0,52,0.0,64.0
246,54.0,30,26,1.0,64.0
247,55.0,30,26,1.0,64.0
248,58.0,0,52,0.0,64.0
249,49.0,30,56,1.0,64.0
250,57.0,30,52,0.0,64.0
251,50.0,30,52,1.0,64.0
252,52.0,30,26,1.0,64.0
253,55.0,30,86,0.0,64.0
254,53.0,30,13,0.0,64.0
255,45.0,30,52,1.0,64.0
256,52.0,15,13,0.0,64.0
257,53.0,15,26,0.0,64.0
258,50.0,0,52,1.0,64.0
259,62.0,30,56,0.0,64.0
260,52.0,30,52,1.0,64.0
261,61.0,30,26,0.0,64.0
262,69.0,30,26,0.0,64.0
263,54.0,0,52,1.0,64.0
264,60.0,30,56,0.0,64.0
265,59.0,30,13,0.0,64.0
266,55.0,30,52,1.0,64.0
267,57.0,15,13,0.0,64.0
268,56.0,0,26,0.0,64.0
269,52.0,15,52,1.0,64.0
270,64.0,30,56,0.0,64.0
271,54.0,30,52,1.0,64.0
272,63.0,30,26,0.0,64.0
273,71.0,30,26,0.0,64.0
274,56.0,0,52,1.0,64.0
275,62.0,30,43,0.0,64.0
276,57.0,30,26,1.0,64.0
277,60.0,15,13,0.0,64.0
278,62.0,0,13,0.0,64.0
279,45.0,15,26,1.0,64.0
280,64.0,15,13,0.0,64.0
281,65.0,0,26,0.0,64.0
282,57.0,15,52,1.0,64.0
283,60.0,30,26,0.0,64.0
284,59.0,30,26,0.0,64.0
285,56.0,0,52,1.0,64.0
286,63.0,30,26,0.0,64.0
287,64.0,0,26,0.0,64.0
288,55.0,30,52,1.0,64.0
289,58.0,30,26,0.0,64.0
290,57.0,0,26,0.0,64.0
291,54.0,30,52,1.0,64.0
292,61.0,30,26,0.0,64.0
293,62.0,30,26,0.0,64.0
294,53.0,0,52,1.0,64.0
295,56.0,30,56,0.0,64.0
296,52.0,30,52,1.0,64.0
297,57.0,30,52,0.0,64.0
298,59.0,30,26,0.0,64.0
299,50.0,30,86,1.0,64.0
300,48.0,30,13,1.0,64.0
301,52.0,30,52,0.0,64.0
302,47.0,15,13,1.0,64.0
303,48.0,15,26,1.0,64.0
304,64.0,0,52,0.0,64.0
305,52.0,30,56,1.0,64.0
306,66.0,30,52,0.0,64.0
307,51.0,30,26,1.0,64.0
308,59.0,0,26,1.0,64.0
309,68.0,30,52,0.0,64.0
310,69.0,30,26,0.0,64.0
311,50.0,30,56,1.0,64.0
312,49.0,30,13,1.0,64.0
313,57.0,0,26,0.0,64.0
314,47.0,15,13,1.0,64.0
315,49.0,15,26,1.0,64.0
316,45.0,30,26,1.0,64.0
317,69.0,0,86,0.0,64.0
318,47.0,30,52,1.0,64.0
319,68.0,30,26,0.0,64.0
320,76.0,0,26,0.0,64.0
321,49.0,30,52,1.0,64.0
322,67.0,30,56,0.0,64.0
323,50.0,30,26,1.0,64.0
324,66.0,30,13,0.0,64.0
325,38.0,0,26,1.0,64.0
326,64.0,15,13,0.0,64.0
327,66.0,15,26,0.0,64.0
328,62.0,30,26,0.0,64.0
329,50.0,0,86,1.0,64.0
330,64.0,30,52,0.0,64.0
331,49.0,30,26,1.0,64.0
332,57.0,0,26,1.0,64.0
333,66.0,30,52,0.0,64.0
334,48.0,30,56,1.0,64.0
335,67.0,30,26,0.0,64.0
336,47.0,30,13,1.0,64.0
337,55.0,0,26,0.0,64.0
338,45.0,15,13,1.0,64.0
339,47.0,0,26,1.0,64.0
340,43.0,30,26,1.0,64.0
341,67.0,15,86,0.0,64.0
342,45.0,30,52,1.0,64.0
343,66.0,30,26,0.0,64.0
344,74.0,30,26,0.0,64.0
345,47.0,0,52,1.0,64.0
346,65.0,30,56,0.0,64.0
347,64.0,30,13,0.0,64.0
348,62.0,15,13,0.0,64.0
349,48.0,30,78,1.0,64.0
350,64.0,15,26,0.0,64.0
351,47.0,0,13,1.0,64.0
352,45.0,15,13,1.0,64.0
353,76.0,30,56,0.0,64.0
354,77.0,30,13,0.0,64.0
355,76.0,15,13,0.0,64.0
356,74.0,15,13,0.0,64.0
357,72.0,15,13,0.0,64.0
358,71.0,15,13,0.0,64.0
359,53.0,15,105,1.0,64.0
360,69.0,15,13,0.0,64.0
361,52.0,0,26,1.0,64.0
362,64.0,15,13,0.0,64.0
363,62.0,15,13,0.0,64.0
364,60.0,15,13,0.0,64.0
365,59.0,15,13,0.0,64.0
366,57.0,15,13,0.0,64.0
367,56.0,15,13,0.0,64.0
368,54.0,15,13,0.0,64.0
369,52.0,15,52,0.0,64.0
370,68.0,15,225,0.0,64.0
371,40.0,60,52,0.0,64.0
372,72.0,15,13,0.0,64.0
373,74.0,15,13,0.0,64.0
374,45.0,60,52,1.0,64.0
375,76.0,15,13,0.0,64.0
376,77.0,15,26,0.0,64.0
377,57.0,0,52,1.0,64.0
378,72.0,30,26,0.0,64.0
379,71.0,0,26,0.0,64.0
380,56.0,30,52,1.0,64.0
381,75.0,30,26,0.0,64.0
382,76.0,0,26,0.0,64.0
383,55.0,30,52,1.0,64.0
384,70.0,30,26,0.0,64.0
385,69.0,0,26,0.0,64.0
386,54.0,30,52,1.0,64.0
387,73.0,30,26,0.0,64.0
388,74.0,30,26,0.0,64.0
389,53.0,0,52,1.0,64.0
390,68.0,30,56,0.0,64.0
391,52.0,30,52,1.0,64.0
392,69.0,30,52,0.0,64.0
393,71.0,30,26,0.0,64.0
394,50.0,30,73,1.0,64.0
395,48.0,15,13,1.0,64.0
396,50.0,15,13,1.0,64.0
397,64.0,30,52,0.0,64.0
398,52.0,15,13,1.0,64.0
399,53.0,15,26,1.0,64.0
400,69.0,0,52,0.0,64.0
401,48.0,30,26,1.0,64.0
402,47.0,0,26,1.0,64.0
403,68.0,30,52,0.0,64.0
404,51.0,30,26,1.0,64.0
405,52.0,30,26,1.0,64.0
406,67.0,0,52,0.0,64.0
407,46.0,30,26,1.0,64.0
408,45.0,30,26,1.0,64.0
409,66.0,0,52,0.0,64.0
410,49.0,30,26,1.0,64.0
411,50.0,0,26,1.0,64.0
412,65.0,30,52,0.0,64.0
413,44.0,30,56,1.0,64.0
414,64.0,30,52,0.0,64.0
415,45.0,30,52,1.0,64.0
416,47.0,30,26,1.0,64.0
417,62.0,30,86,0.0,64.0
418,60.0,30,13,0.0,64.0
419,40.0,30,52,1.0,64.0
420,59.0,15,13,0.0,64.0
421,60.0,15,26,0.0,64.0
422,45.0,0,52,1.0,64.0
423,69.0,30,56,0.0,64.0
424,47.0,30,52,1.0,64.0
425,68.0,30,26,0.0,64.0
426,76.0,0,26,0.0,64.0
427,49.0,30,52,1.0,64.0
428,67.0,30,56,0.0,64.0
429,66.0,30,13,0.0,64.0
430,50.0,30,52,1.0,64.0
431,64.0,15,13,0.0,64.0
432,63.0,0,26,0.0,64.0
433,47.0,15,52,1.0,64.0
434,71.0,30,56,0.0,64.0
435,49.0,30,52,1.0,64.0
436,70.0,30,26,0.0,64.0
437,78.0,30,26,0.0,64.0
438,51.0,0,52,1.0,64.0
439,69.0,30,43,0.0,64.0
440,67.0,15,13,0.0,64.0
441,69.0,15,13,0.0,64.0
442,52.0,30,52,1.0,64.0
443,71.0,15,13,0.0,64.0
444,72.0,0,26,0.0,64.0
445,64.0,15,52,1.0,64.0
446,67.0,30,26,0.0,64.0
447,66.0,0,26,0.0,64.0
448,63.0,30,52,1.0,64.0
449,70.0,30,26,0.0,64.0
450,71.0,0,26,0.0,64.0
451,62.0,30,52,1.0,64.0
452,65.0,30,26,0.0,64.0
453,64.0,0,26,0.0,64.0
454,61.0,30,52,1.0,64.0
455,68.0,30,26,0.0,64.0
456,69.0,0,26,0.0,64.0
457,60.0,30,52,1.0,64.0
458,63.0,30,56,0.0,64.0
459,59.0,30,52,1.0,64.0
460,64.0,30,52,0.0,64.0
461,66.0,30,26,0.0,64.0
462,57.0,30,73,1.0,64.0
463,55.0,15,13,1.0,64.0
464,57.0,15,13,1.0,64.0
465,59.0,30,52,0.0,64.0
466,59.0,15,13,1.0,64.0
467,60.0,0,26,1.0,64.0
468,76.0,15,52,0.0,64.0
469,55.0,30,26,1.0,64.0
470,54.0,30,26,1.0,64.0
471,75.0,0,52,0.0,64.0
472,58.0,30,26,1.0,64.0
473,59.0,0,26,1.0,64.0
474,74.0,30,52,0.0,64.0
475,53.0,30,26,1.0,64.0
476,52.0,0,26,1.0,64.0
477,73.0,30,52,0.0,64.0
478,56.0,30,26,1.0,64.0
479,57.0,30,26,1.0,64.0
480,72.0,0,52,0.0,64.0
481,51.0,30,56,1.0,64.0
482,71.0,30,52,0.0,64.0
483,52.0,30,52,1.0,64.0
484,54.0,30,26,1.0,64.0
485,69.0,30,86,0.0,64.0
486,67.0,30,13,0.0,64.0
487,47.0,30,52,1.0,64.0
488,66.0,15,13,0.0,64.0
489,67.0,15,26,0.0,64.0
490,52.0,0,52,1.0,64.0
491,76.0,30,56,0.0,64.0
492,54.0,30,52,1.0,64.0
493,75.0,30,26,0.0,64.0
494,83.0,30,26,0.0,64.0
495,56.0,0,52,1.0,64.0
496,74.0,30,56,0.0,64.0
497,57.0,30,26,1.0,64.0
498,72.0,0,13,0.0,64.0
499,45.0,30,26,1.0,64.0
500,71.0,15,13,0.0,64.0
501,72.0,0,26,0.0,64.0
502,69.0,30,26,0.0,64.0
503,57.0,15,86,1.0,64.0
504,71.0,30,52,0.0,64.0
505,56.0,30,26,1.0,64.0
506,64.0,0,26,1.0,64.0
507,73.0,30,52,0.0,64.0
508,55.0,30,56,1.0,64.0
509,74.0,30,26,0.0,64.0
510,54.0,0,13,1.0,64.0
511,62.0,30,26,0.0,64.0
512,52.0,15,13,1.0,64.0
513,54.0,15,26,1.0,64.0
514,50.0,30,26,1.0,64.0
515,74.0,0,86,0.0,64.0
516,52.0,30,52,1.0,64.0
517,73.0,30,26,0.0,64.0
518,81.0,30,26,0.0,64.0
519,54.0,0,52,1.0,64.0
520,72.0,30,56,0.0,64.0
521,55.0,30,26,1.0,64.0
522,71.0,0,13,0.0,64.0
523,43.0,30,26,1.0,64.0
524,69.0,15,13,0.0,64.0
525,71.0,0,26,0.0,64.0
526,67.0,30,26,0.0,64.0
527,55.0,15,86,1.0,64.0
528,69.0,30,52,0.0,64.0
529,54.0,30,26,1.0,64.0
530,62.0,0,26,1.0,64.0
531,71.0,30,52,0.0,64.0
532,53.0,30,43,1.0,64.0
533,52.0,15,13,1.0,64.0
534,53.0,15,13,1.0,64.0
535,72.0,30,52,0.0,64.0
536,55.0,15,13,1.0,64.0
537,57.0,0,26,1.0,64.0
538,84.0,15,52,0.0,64.0
539,52.0,30,26,1.0,64.0
540,51.0,30,26,1.0,64.0
541,83.0,0,52,0.0,64.0
542,54.0,30,26,1.0,64.0
543,55.0,30,26,1.0,64.0
544,82.0,0,52,0.0,64.0
545,50.0,30,26,1.0,64.0
546,49.0,0,26,1.0,64.0
547,81.0,30,52,0.0,64.0
548,52.0,30,26,1.0,64.0
549,53.0,0,26,1.0,64.0
550,80.0,30,52,0.0,64.0
551,48.0,30,56,1.0,64.0
552,79.0,30,52,0.0,64.0
553,47.0,30,52,1.0,64.0
554,48.0,30,13,1.0,64.0
555,50.0,15,13,1.0,64.0
556,77.0,30,73,0.0,64.0
557,71.0,15,13,0.0,64.0
558,72.0,15,13,0.0,64.0
559,43.0,15,52,1.0,64.0
560,74.0,15,13,0.0,64.0
561,76.0,0,26,0.0,64.0
562,55.0,15,52,1.0,64.0
563,71.0,30,26,0.0,64.0
564,70.0,0,26,0.0,64.0
565,54.0,30,52,1.0,64.0
566,73.0,30,26,0.0,64.0
567,74.0,0,26,0.0,64.0
568,53.0,30,52,1.0,64.0
569,69.0,30,26,0.0,64.0
570,68.0,0,26,0.0,64.0
571,52.0,30,52,1.0,64.0
572,71.0,30,26,0.0,64.0
573,72.0,0,26,0.0,64.0
574,51.0,30,52,1.0,64.0
575,67.0,30,56,0.0,64.0
576,50.0,30,52,1.0,64.0
577,66.0,30,52,0.0,64.0
578,67.0,30,13,0.0,64.0
579,69.0,15,13,0.0,64.0
580,48.0,30,86,1.0,64.0
581,47.0,30,13,1.0,64.0
582,62.0,15,52,0.0,64.0
583,45.0,15,13,1.0,64.0
584,47.0,0,26,1.0,64.0
585,67.0,15,52,0.0,64.0
586,55.0,30,56,1.0,64.0
587,69.0,30,52,0.0,64.0
588,54.0,30,26,1.0,64.0
589,62.0,30,26,1.0,64.0
590,71.0,0,52,0.0,64.0
591,53.0,30,56,1.0,64.0
592,52.0,30,13,1.0,64.0
593,72.0,30,52,0.0,64.0
594,50.0,15,13,1.0,64.0
595,49.0,0,26,1.0,64.0
596,69.0,15,52,0.0,64.0
597,57.0,30,56,1.0,64.0
598,71.0,30,52,0.0,64.0
599,56.0,30,26,1.0,64.0
600,64.0,0,26,1.0,64.0
601,73.0,30,52,0.0,64.0
602,55.0,30,43,1.0,64.0
603,54.0,15,13,1.0,64.0
604,55.0,15,13,1.0,64.0
605,74.0,30,52,0.0,64.0
606,57.0,15,13,1.0,64.0
607,58.0,0,26,1.0,64.0
608,62.0,15,52,0.0,64.0
609,53.0,30,26,1.0,64.0
610,52.0,0,26,1.0,64.0
611,61.0,30,52,0.0,64.0
612,56.0,30,26,1.0,64.0
613,57.0,30,26,1.0,64.0
614,60.0,0,52,0.0,64.0
615,51.0,30,26,1.0,64.0
616,50.0,0,26,1.0,64.0
617,59.0,30,52,0.0,64.0
618,54.0,30,26,1.0,64.0
619,55.0,0,26,1.0,64.0
620,58.0,30,52,0.0,64.0
621,49.0,30,56,1.0,64.0
622,57.0,30,52,0.0,64.0
623,50.0,30,52,1.0,64.0
624,52.0,30,26,1.0,64.0
625,55.0,30,86,0.0,64.0
626,53.0,30,13,0.0,64.0
627,45.0,30,52,1.0,64.0
628,52.0,15,13,0.0,64.0
629,53.0,0,26,0.0,64.0
630,50.0,15,52,1.0,64.0
631,62.0,30,56,0.0,64.0
632,52.0,30,52,1.0,64.0
633,61.0,30,26,0.0,64.0
634,69.0,30,26,0.0,64.0
635,54.0,0,52,1.0,64.0
636,60.0,30,56,0.0,64.0
637,59.0,30,13,0.0,64.0
638,55.0,30,52,1.0,64.0
639,57.0,15,13,0.0,64.0
640,56.0,0,26,0.0,64.0
641,52.0,15,52,1.0,64.0
642,64.0,30,56,0.0,64.0
643,54.0,30,52,1.0,64.0
644,63.0,30,26,0.0,64.0
645,71.0,0,26,0.0,64.0
646,56.0,30,52,1.0,64.0
647,62.0,30,43,0.0,64.0
648,57.0,30,26,1.0,64.0
649,60.0,15,13,0.0,64.0
650,62.0,0,13,0.0,64.0
651,45.0,15,26,1.0,64.0
652,64.0,15,13,0.0,64.0
653,65.0,0,26,0.0,64.0
654,57.0,15,52,1.0,64.0
655,60.0,30,26,0.0,64.0
656,59.0,0,26,0.0,64.0
657,56.0,30,52,1.0,64.0
658,63.0,30,26,0.0,64.0
659,64.0,0,26,0.0,64.0
660,55.0,30,52,1.0,64.0
661,58.0,30,26,0.0,64.0
662,57.0,30,26,0.0,64.0
663,54.0,0,52,1.0,64.0
664,61.0,30,26,0.0,64.0
665,62.0,0,26,0.0,64.0
666,53.0,30,52,1.0,64.0
667,56.0,30,56,0.0,64.0
668,52.0,30,52,1.0,64.0
669,57.0,30,52,0.0,64.0
670,59.0,30,26,0.0,64.0
671,50.0,30,86,1.0,64.0
672,48.0,30,13,1.0,64.0
673,52.0,30,52,0.0,64.0
674,47.0,15,13,1.0,64.0
675,48.0,0,26,1.0,64.0
676,64.0,15,52,0.0,64.0
677,52.0,30,56,1.0,64.0
678,66.0,30,52,0.0,64.0
679,51.0,30,26,1.0,64.0
680,59.0,0,26,1.0,64.0
681,68.0,30,52,0.0,64.0
682,69.0,30,26,0.0,64.0
683,50.0,30,56,1.0,64.0
684,49.0,30,13,1.0,64.0
685,57.0,0,26,0.0,64.0
686,47.0,15,13,1.0,64.0
687,49.0,0,26,1.0,64.0
688,45.0,30,26,1.0,64.0
689,69.0,15,86,0.0,64.0
690,47.0,30,52,1.0,64.0
691,68.0,30,26,0.0,64.0
692,76.0,0,26,0.0,64.0
693,49.0,30,52,1.0,64.0
694,67.0,30,56,0.0,64.0
695,50.0,30,26,1.0,64.0
696,66.0,30,13,0.0,64.0
697,38.0,0,26,1.0,64.0
698,64.0,15,13,0.0,64.0
699,66.0,15,26,0.0,64.0
700,62.0,30,26,0.0,64.0
701,50.0,0,86,1.0,64.0
702,64.0,30,52,0.0,64.0
703,49.0,30,26,1.0,64.0
704,57.0,0,26,1.0,64.0
705,66.0,30,52,0.0,64.0
706,67.0,30,26,0.0,64.0
707,48.0,30,56,1.0,64.0
708,47.0,0,13,1.0,64.0
709,55.0,30,26,0.0,64.0
710,45.0,15,13,1.0,64.0
711,47.0,0,26,1.0,64.0
712,43.0,30,26,1.0,64.0
713,67.0,15,86,0.0,64.0
714,45.0,30,52,1.0,64.0
715,66.0,30,26,0.0,64.0
716,74.0,30,26,0.0,64.0
717,47.0,0,52,1.0,64.0
718,65.0,30,56,0.0,64.0
719,64.0,30,13,0.0,64.0
720,62.0,15,13,0.0,64.0
721,48.0,30,78,1.0,64.0
722,64.0,15,26,0.0,64.0
723,47.0,30,13,1.0,64.0
724,45.0,15,13,1.0,64.0
725,76.0,0,56,0.0,64.0
726,77.0,30,13,0.0,64.0
727,76.0,15,13,0.0,64.0
728,74.0,15,13,0.0,64.0
729,72.0,15,13,0.0,64.0
730,71.0,15,13,0.0,64.0
731,53.0,15,105,1.0,64.0
732,69.0,15,13,0.0,64.0
733,52.0,15,26,1.0,64.0
734,64.0,15,13,0.0,64.0
735,62.0,15,13,0.0,64.0
736,60.0,15,13,0.0,64.0
737,59.0,15,13,0.0,64.0
738,57.0,15,13,0.0,64.0
739,56.0,15,13,0.0,64.0
740,54.0,15,13,0.0,64.0
741,52.0,15,52,0.0,64.0
742,68.0,0,225,0.0,64.0
743,40.0,60,52,0.0,64.0
744,60.0,15,13,1.0,64.0
745,59.0,15,13,1.0,64.0
746,76.0,60,52,0.0,64.0
747,57.0,15,13,1.0,64.0
748,56.0,0,26,1.0,64.0
749,64.0,15,52,0.0,64.0
750,61.0,30,26,1.0,64.0
751,62.0,0,26,1.0,64.0
752,65.0,30,52,0.0,64.0
753,58.0,30,26,1.0,64.0
754,57.0,0,26,1.0,64.0
755,66.0,30,52,0.0,64.0
756,63.0,30,26,1.0,64.0
757,64.0,0,26,1.0,64.0
758,67.0,30,52,0.0,64.0
759,60.0,30,26,1.0,64.0
760,59.0,0,26,1.0,64.0
761,68.0,30,52,0.0,64.0
762,65.0,30,56,1.0,64.0
763,69.0,30,52,0.0,64.0
764,64.0,30,52,1.0,64.0
765,71.0,30,52,0.0,64.0
766,62.0,30,26,1.0,64.0
767,72.0,30,13,0.0,64.0
768,77.0,15,13,0.0,64.0
769,76.0,15,13,0.0,64.0
770,69.0,0,52,1.0,64.0
771,74.0,15,13,0.0,64.0
772,73.0,0,26,0.0,64.0
773,57.0,15,52,1.0,64.0
774,78.0,30,26,0.0,64.0
775,79.0,0,26,0.0,64.0
776,58.0,30,52,1.0,64.0
777,75.0,30,26,0.0,64.0
778,74.0,30,26,0.0,64.0
779,59.0,0,52,1.0,64.0
780,80.0,30,26,0.0,64.0
781,81.0,30,26,0.0,64.0
782,60.0,0,52,1.0,64.0
783,77.0,30,26,0.0,64.0
784,76.0,0,26,0.0,64.0
785,61.0,30,52,1.0,64.0
786,82.0,30,56,0.0,64.0
787,62.0,30,52,1.0,64.0
788,81.0,30,52,0.0,64.0
789,64.0,30,52,1.0,64.0
790,80.0,30,26,0.0,64.0
791,81.0,0,13,0.0,64.0
792,79.0,15,13,0.0,64.0
793,77.0,15,13,0.0,64.0
794,65.0,30,52,1.0,64.0
795,76.0,15,13,0.0,64.0
796,77.0,15,26,0.0,64.0
797,62.0,0,52,1.0,64.0
798,70.0,30,26,0.0,64.0
799,69.0,0,26,0.0,64.0
800,60.0,30,52,1.0,64.0
801,76.0,30,26,0.0,64.0
802,74.0,0,26,0.0,64.0
803,59.0,30,52,1.0,64.0
804,68.0,30,43,0.0,64.0
805,74.0,15,13,0.0,64.0
806,72.0,15,13,0.0,64.0
807,57.0,30,52,1.0,64.0
808,71.0,15,13,0.0,64.0
809,69.0,15,26,0.0,64.0
810,60.0,0,52,1.0,64.0
811,76.0,30,26,0.0,64.0
812,74.0,0,26,0.0,64.0
813,59.0,30,52,1.0,64.0
814,67.0,30,26,0.0,64.0
815,66.0,0,26,0.0,64.0
816,57.0,30,52,1.0,64.0
817,72.0,30,26,0.0,64.0
818,55.0,0,13,1.0,64.0
819,59.0,15,13,1.0,64.0
820,60.0,15,13,1.0,64.0
821,71.0,30,52,0.0,64.0
822,62.0,15,13,1.0,64.0
823,64.0,0,26,1.0,64.0
824,79.0,15,52,0.0,64.0
825,58.0,30,26,1.0,64.0
826,57.0,30,26,1.0,64.0
827,77.0,0,52,0.0,64.0
828,62.0,30,26,1.0,64.0
829,61.0,30,26,1.0,64.0
830,76.0,0,52,0.0,64.0
831,55.0,30,43,1.0,64.0
832,67.0,15,13,1.0,64.0
833,65.0,15,13,1.0,64.0
834,74.0,30,52,0.0,64.0
835,64.0,15,13,1.0,64.0
836,62.0,15,26,1.0,64.0
837,77.0,0,52,0.0,64.0
838,68.0,30,26,1.0,64.0
839,69.0,30,26,1.0,64.0
840,76.0,0,52,0.0,64.0
841,60.0,30,26,1.0,64.0
842,59.0,0,26,1.0,64.0
843,65.0,30,26,1.0,64.0
844,64.0,30,13,1.0,64.0
845,62.0,15,13,1.0,64.0
846,60.0,15,13,1.0,64.0
847,74.0,30,112,0.0,64.0
848,59.0,15,13,1.0,64.0
849,57.0,0,26,1.0,64.0
850,72.0,15,26,0.0,64.0
851,71.0,0,26,0.0,64.0
852,56.0,30,26,1.0,64.0
853,57.0,0,26,1.0,64.0
854,72.0,30,52,0.0,64.0
855,53.0,30,26,1.0,64.0
856,52.0,0,26,1.0,64.0
857,73.0,30,52,0.0,64.0
858,58.0,30,26,1.0,64.0
859,59.0,0,26,1.0,64.0
860,74.0,30,52,0.0,64.0
861,55.0,30,26,1.0,64.0
862,54.0,30,26,1.0,64.0
863,75.0,0,52,0.0,64.0
864,60.0,30,56,1.0,64.0
865,76.0,30,52,0.0,64.0
866,59.0,30,52,1.0,64.0
867,78.0,30,52,0.0,64.0
868,57.0,30,26,1.0,64.0
869,79.0,30,13,0.0,64.0
870,77.0,15,13,0.0,64.0
871,76.0,15,13,0.0,64.0
872,64.0,0,52,1.0,64.0
873,74.0,15,13,0.0,64.0
874,73.0,15,26,0.0,64.0
875,52.0,0,52,1.0,64.0
876,80.0,30,26,0.0,64.0
877,81.0,30,26,0.0,64.0
878,53.0,0,52,1.0,64.0
879,75.0,30,26,0.0,64.0
880,74.0,30,26,0.0,64.0
881,54.0,0,52,1.0,64.0
882,82.0,30,26,0.0,64.0
883,83.0,0,26,0.0,64.0
884,55.0,30,52,1.0,64.0
885,77.0,30,26,0.0,64.0
886,76.0,30,26,0.0,64.0
887,56.0,0,52,1.0,64.0
888,74.0,30,56,0.0,64.0
889,57.0,30,52,1.0,64.0
890,72.0,30,52,0.0,64.0
891,59.0,30,52,1.0,64.0
892,71.0,30,56,0.0,64.0
893,69.0,30,13,0.0,64.0
894,60.0,30,52,1.0,64.0
895,71.0,15,13,0.0,64.0
896,72.0,0,26,0.0,64.0
897,57.0,15,52,1.0,64.0
898,63.0,30,26,0.0,64.0
899,64.0,0,26,0.0,64.0
900,55.0,30,52,1.0,64.0
901,73.0,30,26,0.0,64.0
902,74.0,0,26,0.0,64.0
903,53.0,30,52,1.0,64.0
904,65.0,30,26,0.0,64.0
905,52.0,0,13,1.0,64.0
906,53.0,15,13,1.0,64.0
907,55.0,15,13,1.0,64.0
908,67.0,30,52,0.0,64.0
909,57.0,15,13,1.0,64.0
910,58.0,15,26,1.0,64.0
911,74.0,0,52,0.0,64.0
912,53.0,30,26,1.0,64.0
913,52.0,30,26,1.0,64.0
914,73.0,0,52,0.0,64.0
915,57.0,30,26,1.0,64.0
916,55.0,0,26,1.0,64.0
917,50.0,30,26,1.0,64.0
918,70.0,30,73,0.0,64.0
919,69.0,15,13,0.0,64.0
920,67.0,15,13,0.0,64.0
921,49.0,30,52,1.0,64.0
922,69.0,15,13,0.0,64.0
923,70.0,0,26,0.0,64.0
924,55.0,15,52,1.0,64.0
925,61.0,30,26,0.0,64.0
926,62.0,30,26,0.0,64.0
927,53.0,0,52,1.0,64.0
928,71.0,30,26,0.0,64.0
929,72.0,30,26,0.0,64.0
930,51.0,0,52,1.0,64.0
931,63.0,30,26,0.0,64.0
932,50.0,30,13,1.0,64.0
933,51.0,15,13,1.0,64.0
934,53.0,15,13,1.0,64.0
935,65.0,0,52,0.0,64.0
936,55.0,15,13,1.0,64.0
937,56.0,15,26,1.0,64.0
938,72.0,0,52,0.0,64.0
939,51.0,30,26,1.0,64.0
940,50.0,30,26,1.0,64.0
941,71.0,0,52,0.0,64.0
942,55.0,30,26,1.0,64.0
943,53.0,0,26,1.0,64.0
944,48.0,30,26,1.0,64.0
945,68.0,30,73,0.0,64.0
946,67.0,15,13,0.0,64.0
947,69.0,15,13,0.0,64.0
948,47.0,30,52,1.0,64.0
949,71.0,15,13,0.0,64.0
950,72.0,15,26,0.0,64.0
951,52.0,0,52,1.0,64.0
952,67.0,30,26,0.0,64.0
953,66.0,0,26,0.0,64.0
954,51.0,30,52,1.0,64.0
955,70.0,30,26,0.0,64.0
956,71.0,30,26,0.0,64.0
957,50.0,0,52,1.0,64.0
958,65.0,30,26,0.0,64.0
959,64.0,30,26,0.0,64.0
960,49.0,0,52,1.0,64.0
961,68.0,30,26,0.0,64.0
962,69.0,30,26,0.0,64.0
963,48.0,0,52,1.0,64.0
964,63.0,30,56,0.0,64.0
965,47.0,30,52,1.0,64.0
966,64.0,30,52,0.0,64.0
967,65.0,30,26,0.0,64.0
968,45.0,30,73,1.0,64.0
969,48.0,15,13,1.0,64.0
970,47.0,15,13,1.0,64.0
971,59.0,30,52,0.0,64.0
972,45.0,15,13,1.0,64.0
973,44.0,15,26,1.0,64.0
974,76.0,0,52,0.0,64.0
975,49.0,30,26,1.0,64.0
976,50.0,0,26,1.0,64.0
977,77.0,30,52,0.0,64.0
978,46.0,30,26,1.0,64.0
979,45.0,30,26,1.0,64.0
980,78.0,0,52,0.0,64.0
981,51.0,30,26,1.0,64.0
982,52.0,30,26,1.0,64.0
983,79.0,0,52,0.0,64.0
984,48.0,30,26,1.0,64.0
985,47.0,30,26,1.0,64.0
986,80.0,0,52,0.0,64.0
987,53.0,30,56,1.0,64.0
988,81.0,30,52,0.0,64.0
989,52.0,30,52,1.0,64.0
990,50.0,30,26,1.0,64.0
991,83.0,30,86,0.0,64.0
992,81.0,30,13,0.0,64.0
993,48.0,30,52,1.0,64.0
994,83.0,15,13,0.0,64.0
995,84.0,0,26,0.0,64.0
996,52.0,15,52,1.0,64.0
997,76.0,30,56,0.0,64.0
998,54.0,30,52,1.0,64.0
999,75.0,30,26,0.0,64.0
1000,83.0,30,26,0.0,64.0
1001,56.0,0,52,1.0,64.0
1002,74.0,30,43,0.0,64.0
1003,72.0,15,13,0.0,64.0
1004,74.0,15,13,0.0,64.0
1005,57.0,30,52,1.0,64.0
1006,76.0,15,13,0.0,64.0
1007,77.0,15,26,0.0,64.0
1008,45.0,0,52,1.0,64.0
1009,69.0,30,56,0.0,64.0
1010,47.0,30,52,1.0,64.0
1011,68.0,30,26,0.0,64.0
1012,76.0,0,26,0.0,64.0
1013,49.0,30,52,1.0,64.0
1014,67.0,30,43,0.0,64.0
1015,65.0,15,13,0.0,64.0
1016,67.0,15,13,0.0,64.0
1017,50.0,30,52,1.0,64.0
1018,69.0,15,13,0.0,64.0
1019,70.0,0,26,0.0,64.0
1020,38.0,15,52,1.0,64.0
1021,62.0,30,56,0.0,64.0
1022,40.0,30,52,1.0,64.0
1023,61.0,30,26,0.0,64.0
1024,69.0,30,26,0.0,64.0
1025,52.0,0,52,1.0,64.0
1026,60.0,30,56,0.0,64.0
1027,51.0,30,52,1.0,64.0
1028,59.0,30,26,0.0,64.0
1029,68.0,0,26,0.0,64.0
1030,50.0,30,52,1.0,64.0
1031,59.0,30,56,0.0,64.0
1032,49.0,30,52,1.0,64.0
1033,57.0,30,26,0.0,64.0
1034,65.0,30,26,0.0,64.0
1035,48.0,0,52,1.0,64.0
1036,57.0,30,56,0.0,64.0
1037,56.0,30,13,0.0,64.0
1038,47.0,30,52,1.0,64.0
1039,54.0,15,13,0.0,64.0
1040,56.0,0,26,0.0,64.0
1041,47.0,15,52,1.0,64.0
1042,62.0,30,43,0.0,64.0
1043,60.0,15,13,0.0,64.0
1044,59.0,15,13,0.0,64.0
1045,45.0,30,52,1.0,64.0
1046,57.0,15,13,0.0,64.0
1047,59.0,0,26,0.0,64.0
1048,45.0,15,52,1.0,64.0
1049,65.0,30,43,0.0,64.0
1050,64.0,15,13,0.0,64.0
1051,62.0,15,13,0.0,64.0
1052,44.0,30,52,1.0,64.0
1053,61.0,15,13,0.0,64.0
1054,62.0,15,26,0.0,64.0
1055,44.0,0,52,1.0,64.0
1056,71.0,30,43,0.0,64.0
1057,69.0,15,13,0.0,64.0
1058,68.0,15,13,0.0,64.0
1059,40.0,30,52,1.0,64.0
1060,66.0,15,13,0.0,64.0
1061,68.0,0,26,0.0,64.0
1062,40.0,15,52,1.0,64.0
1063,74.0,30,56,0.0,64.0
1064,72.0,30,13,0.0,64.0
1065,71.0,15,13,0.0,64.0
1066,45.0,30,73,1.0,64.0
1067,72.0,15,26,0.0,64.0
1068,50.0,15,13,1.0,64.0
1069,52.0,15,13,1.0,64.0
1070,69.0,0,26,0.0,64.0
1071,54.0,15,13,1.0,64.0
1072,55.0,0,26,1.0,64.0
1073,70.0,15,52,0.0,64.0
1074,51.0,30,26,1.0,64.0
1075,50.0,0,26,1.0,64.0
1076,71.0,30,52,0.0,64.0
1077,56.0,30,26,1.0,64.0
1078,57.0,0,26,1.0,64.0
1079,72.0,30,52,0.0,64.0
1080,53.0,30,26,1.0,64.0
1081,52.0,30,26,1.0,64.0
1082,73.0,0,52,0.0,64.0
1083,58.0,30,56,1.0,64.0
1084,74.0,30,52,0.0,64.0
1085,57.0,30,52,1.0,64.0
1086,55.0,30,26,1.0,64.0
1087,76.0,30,73,0.0,64.0
1088,53.0,30,13,1.0,64.0
1089,73.0,15,13,0.0,64.0
1090,52.0,0,13,1.0,64.0
1091,53.0,15,13,1.0,64.0
1092,74.0,0,13,0.0,64.0
1093,55.0,15,13,1.0,64.0
1094,76.0,0,13,0.0,64.0
1095,77.0,15,26,0.0,64.0
1096,57.0,0,52,1.0,64.0
1097,72.0,30,26,0.0,64.0
1098,71.0,30,26,0.0,64.0
1099,56.0,0,52,1.0,64.0
1100,75.0,30,26,0.0,64.0
1101,76.0,30,26,0.0,64.0
1102,55.0,0,52,1.0,64.0
1103,70.0,30,26,0.0,64.0
1104,69.0,30,26,0.0,64.0
1105,54.0,0,52,1.0,64.0
1106,73.0,30,26,0.0,64.0
1107,74.0,30,26,0.0,64.0
1108,53.0,0,52,1.0,64.0
1109,68.0,30,56,0.0,64.0
1110,52.0,30,52,1.0,64.0
1111,69.0,30,52,0.0,64.0
1112,71.0,30,26,0.0,64.0
1113,64.0,30,26,0.0,64.0
1114,50.0,30,86,1.0,64.0
1115,48.0,30,13,1.0,64.0
1116,47.0,15,13,1.0,64.0
1117,76.0,0,39,0.0,64.0
1118,48.0,15,26,1.0,64.0
1119,74.0,15,13,0.0,64.0
1120,72.0,0,13,0.0,64.0
1121,45.0,15,26,1.0,64.0
1122,71.0,15,13,0.0,64.0
1123,74.0,15,13,0.0,64.0
1124,72.0,15,13,0.0,64.0
1125,71.0,15,13,0.0,64.0
1126,52.0,0,52,1.0,64.0
1127,69.0,15,13,0.0,64.0
1128,72.0,0,13,0.0,64.0
1129,71.0,15,13,0.0,64.0
1130,69.0,15,13,0.0,64.0
1131,40.0,15,52,1.0,64.0
1132,68.0,15,13,0.0,64.0
1133,45.0,0,26,1.0,64.0
1134,47.0,30,13,1.0,64.0
1135,48.0,15,13,1.0,64.0
1136,50.0,15,13,1.0,64.0
1137,52.0,15,13,1.0,64.0
1138,54.0,15,13,1.0,64.0
1139,56.0,15,13,1.0,64.0
1140,57.0,15,52,1.0,64.0
1141,69.0,15,225,0.0,64.0
1142,45.0,60,52,1.0,64.0
1143,60.0,15,13,1.0,64.0
1144,59.0,15,13,1.0,64.0
1145,76.0,60,52,0.0,64.0
1146,57.0,15,13,1.0,64.0
1147,56.0,15,26,1.0,64.0
1148,64.0,0,52,0.0,64.0
1149,61.0,30,26,1.0,64.0
1150,62.0,0,26,1.0,64.0
1151,65.0,30,52,0.0,64.0
1152,58.0,30,26,1.0,64.0
1153,57.0,30,26,1.0,64.0
1154,66.0,0,52,0.0,64.0
1155,63.0,30,26,1.0,64.0
1156,64.0,0,26,1.0,64.0
1157,67.0,30,52,0.0,64.0
1158,60.0,30,26,1.0,64.0
1159,59.0,30,26,1.0,64.0
1160,68.0,0,52,0.0,64.0
1161,65.0,30,56,1.0,64.0
1162,69.0,30,52,0.0,64.0
1163,64.0,30,52,1.0,64.0
1164,71.0,30,52,0.0,64.0
1165,62.0,30,26,1.0,64.0
1166,72.0,0,13,0.0,64.0
1167,77.0,15,13,0.0,64.0
1168,76.0,15,13,0.0,64.0
1169,69.0,30,52,1.0,64.0
1170,74.0,15,13,0.0,64.0
1171,73.0,15,26,0.0,64.0
1172,57.0,0,52,1.0,64.0
1173,78.0,30,26,0.0,64.0
1174,79.0,30,26,0.0,64.0
1175,58.0,0,52,1.0,64.0
1176,75.0,30,26,0.0,64.0
1177,74.0,30,26,0.0,64.0
1178,59.0,0,52,1.0,64.0
1179,80.0,30,26,0.0,64.0
1180,81.0,0,26,0.0,64.0
1181,60.0,30,52,1.0,64.0
1182,77.0,30,26,0.0,64.0
1183,76.0,0,26,0.0,64.0
1184,61.0,30,52,1.0,64.0
1185,82.0,30,56,0.0,64.0
1186,62.0,30,52,1.0,64.0
1187,81.0,30,52,0.0,64.0
1188,64.0,30,52,1.0,64.0
1189,80.0,30,26,0.0,64.0
1190,81.0,0,13,0.0,64.0
1191,79.0,15,13,0.0,64.0
1192,77.0,15,13,0.0,64.0
1193,65.0,30,52,1.0,64.0
1194,76.0,15,13,0.0,64.0
1195,77.0,15,26,0.0,64.0
1196,62.0,0,52,1.0,64.0
1197,70.0,30,26,0.0,64.0
1198,69.0,0,26,0.0,64.0
1199,60.0,30,52,1.0,64.0
1200,76.0,30,26,0.0,64.0
1201,74.0,0,26,0.0,64.0
1202,59.0,30,52,1.0,64.0
1203,68.0,30,43,0.0,64.0
1204,74.0,15,13,0.0,64.0
1205,72.0,15,13,0.0,64.0
1206,57.0,30,52,1.0,64.0
1207,71.0,15,13,0.0,64.0
1208,69.0,15,26,0.0,64.0
1209,60.0,0,52,1.0,64.0
1210,76.0,30,26,0.0,64.0
1211,74.0,0,26,0.0,64.0
1212,59.0,30,52,1.0,64.0
1213,67.0,30,26,0.0,64.0
1214,66.0,30,26,0.0,64.0
1215,57.0,0,52,1.0,64.0
1216,72.0,30,26,0.0,64.0
1217,55.0,30,13,1.0,64.0
1218,59.0,15,13,1.0,64.0
1219,60.0,15,13,1.0,64.0
1220,71.0,0,52,0.0,64.0
1221,62.0,15,13,1.0,64.0
1222,64.0,15,26,1.0,64.0
1223,79.0,0,52,0.0,64.0
1224,58.0,30,26,1.0,64.0
1225,57.0,30,26,1.0,64.0
1226,77.0,0,52,0.0,64.0
1227,62.0,30,26,1.0,64.0
1228,61.0,30,26,1.0,64.0
1229,76.0,0,52,0.0,64.0
1230,55.0,30,43,1.0,64.0
1231,67.0,15,13,1.0,64.0
1232,65.0,15,13,1.0,64.0
1233,74.0,30,52,0.0,64.0
1234,64.0,15,13,1.0,64.0
1235,62.0,15,26,1.0,64.0
1236,77.0,0,52,0.0,64.0
1237,68.0,30,26,1.0,64.0
1238,69.0,0,26,1.0,64.0
1239,76.0,30,52,0.0,64.0
1240,60.0,30,26,1.0,64.0
1241,59.0,0,26,1.0,64.0
1242,65.0,30,26,1.0,64.0
1243,64.0,30,13,1.0,64.0
1244,62.0,15,13,1.0,64.0
1245,60.0,15,13,1.0,64.0
1246,74.0,30,112,0.0,64.0
1247,59.0,15,13,1.0,64.0
1248,72.0,15,26,0.0,64.0
1249,57.0,0,26,1.0,64.0
1250,56.0,30,26,1.0,64.0
1251,71.0,0,26,0.0,64.0
1252,57.0,30,26,1.0,64.0
1253,72.0,0,52,0.0,64.0
1254,53.0,30,26,1.0,64.0
1255,52.0,30,26,1.0,64.0
1256,73.0,0,52,0.0,64.0
1257,58.0,30,26,1.0,64.0
1258,59.0,0,26,1.0,64.0
1259,74.0,30,52,0.0,64.0
1260,55.0,30,26,1.0,64.0
1261,54.0,30,26,1.0,64.0
1262,75.0,0,52,0.0,64.0
1263,60.0,30,56,1.0,64.0
1264,76.0,30,52,0.0,64.0
1265,59.0,30,52,1.0,64.0
1266,78.0,30,52,0.0,64.0
1267,57.0,30,26,1.0,64.0
1268,79.0,0,13,0.0,64.0
1269,77.0,15,13,0.0,64.0
1270,76.0,15,13,0.0,64.0
1271,64.0,30,52,1.0,64.0
1272,74.0,15,13,0.0,64.0
1273,73.0,15,26,0.0,64.0
1274,52.0,0,52,1.0,64.0
1275,80.0,30,26,0.0,64.0
1276,81.0,30,26,0.0,64.0
1277,53.0,0,52,1.0,64.0
1278,75.0,30,26,0.0,64.0
1279,74.0,30,26,0.0,64.0
1280,54.0,0,52,1.0,64.0
1281,82.0,30,26,0.0,64.0
1282,83.0,30,26,0.0,64.0
1283,55.0,0,52,1.0,64.0
1284,77.0,30,26,0.0,64.0
1285,76.0,0,26,0.0,64.0
1286,56.0,30,52,1.0,64.0
1287,74.0,30,56,0.0,64.0
1288,57.0,30,52,1.0,64.0
1289,72.0,30,52,0.0,64.0
1290,59.0,30,52,1.0,64.0
1291,71.0,30,56,0.0,64.0
1292,69.0,30,13,0.0,64.0
1293,60.0,30,52,1.0,64.0
1294,71.0,15,13,0.0,64.0
1295,72.0,0,26,0.0,64.0
1296,57.0,15,52,1.0,64.0
1297,63.0,30,26,0.0,64.0
1298,64.0,0,26,0.0,64.0
1299,55.0,30,52,1.0,64.0
1300,73.0,30,26,0.0,64.0
1301,74.0,30,26,0.0,64.0
1302,53.0,0,52,1.0,64.0
1303,65.0,30,26,0.0,64.0
1304,52.0,0,13,1.0,64.0
1305,53.0,15,13,1.0,64.0
1306,55.0,15,13,1.0,64.0
1307,67.0,30,52,0.0,64.0
1308,57.0,15,13,1.0,64.0
1309,58.0,15,26,1.0,64.0
1310,74.0,0,52,0.0,64.0
1311,53.0,30,26,1.0,64.0
1312,52.0,30,26,1.0,64.0
1313,73.0,0,52,0.0,64.0
1314,57.0,30,26,1.0,64.0
1315,55.0,30,26,1.0,64.0
1316,50.0,30,26,1.0,64.0
1317,70.0,0,73,0.0,64.0
1318,69.0,15,13,0.0,64.0
1319,67.0,15,13,0.0,64.0
1320,49.0,30,52,1.0,64.0
1321,69.0,15,13,0.0,64.0
1322,70.0,0,26,0.0,64.0
1323,55.0,15,52,1.0,64.0
1324,61.0,30,26,0.0,64.0
1325,62.0,0,26,0.0,64.0
1326,53.0,30,52,1.0,64.0
1327,71.0,30,26,0.0,64.0
1328,72.0,0,26,0.0,64.0
1329,51.0,30,52,1.0,64.0
1330,63.0,30,26,0.0,64.0
1331,50.0,0,13,1.0,64.0
1332,51.0,15,13,1.0,64.0
1333,53.0,15,13,1.0,64.0
1334,65.0,30,52,0.0,64.0
1335,55.0,15,13,1.0,64.0
1336,56.0,15,26,1.0,64.0
1337,72.0,0,52,0.0,64.0
1338,51.0,30,26,1.0,64.0
1339,50.0,0,26,1.0,64.0
1340,71.0,30,52,0.0,64.0
1341,55.0,30,26,1.0,64.0
1342,53.0,30,26,1.0,64.0
1343,48.0,30,26,1.0,64.0
1344,68.0,0,73,0.0,64.0
1345,67.0,15,13,0.0,64.0
1346,69.0,15,13,0.0,64.0
1347,47.0,30,52,1.0,64.0
1348,71.0,15,13,0.0,64.0
1349,72.0,15,26,0.0,64.0
1350,52.0,0,52,1.0,64.0
1351,67.0,30,26,0.0,64.0
1352,66.0,30,26,0.0,64.0
1353,51.0,0,52,1.0,64.0
1354,70.0,30,26,0.0,64.0
1355,71.0,30,26,0.0,64.0
1356,50.0,0,52,1.0,64.0
1357,65.0,30,26,0.0,64.0
1358,64.0,0,26,0.0,64.0
1359,49.0,30,52,1.0,64.0
1360,68.0,30,26,0.0,64.0
1361,69.0,0,26,0.0,64.0
1362,48.0,30,52,1.0,64.0
1363,63.0,30,56,0.0,64.0
1364,47.0,30,52,1.0,64.0
1365,64.0,30,52,0.0,64.0
1366,65.0,30,26,0.0,64.0
1367,45.0,30,73,1.0,64.0
1368,48.0,15,13,1.0,64.0
1369,47.0,15,13,1.0,64.0
1370,59.0,30,52,0.0,64.0
1371,45.0,15,13,1.0,64.0
1372,44.0,15,26,1.0,64.0
1373,76.0,0,52,0.0,64.0
1374,49.0,30,26,1.0,64.0
1375,50.0,30,26,1.0,64.0
1376,77.0,0,52,0.0,64.0
1377,46.0,30,26,1.0,64.0
1378,45.0,0,26,1.0,64.0
1379,78.0,30,52,0.0,64.0
1380,51.0,30,26,1.0,64.0
1381,52.0,0,26,1.0,64.0
1382,79.0,30,52,0.0,64.0
1383,48.0,30,26,1.0,64.0
1384,47.0,30,26,1.0,64.0
1385,80.0,0,52,0.0,64.0
1386,53.0,30,56,1.0,64.0
1387,81.0,30,52,0.0,64.0
1388,52.0,30,52,1.0,64.0
1389,50.0,30,26,1.0,64.0
1390,83.0,30,86,0.0,64.0
1391,81.0,30,13,0.0,64.0
1392,48.0,30,52,1.0,64.0
1393,83.0,15,13,0.0,64.0
1394,84.0,0,26,0.0,64.0
1395,52.0,15,52,1.0,64.0
1396,76.0,30,56,0.0,64.0
1397,54.0,30,52,1.0,64.0
1398,75.0,30,26,0.0,64.0
1399,83.0,30,26,0.0,64.0
1400,56.0,0,52,1.0,64.0
1401,74.0,30,43,0.0,64.0
1402,72.0,15,13,0.0,64.0
1403,74.0,15,13,0.0,64.0
1404,57.0,30,52,1.0,64.0
1405,76.0,15,13,0.0,64.0
1406,77.0,15,26,0.0,64.0
1407,45.0,0,52,1.0,64.0
1408,69.0,30,56,0.0,64.0
1409,47.0,30,52,1.0,64.0
1410,68.0,30,26,0.0,64.0
1411,76.0,0,26,0.0,64.0
1412,49.0,30,52,1.0,64.0
1413,67.0,30,43,0.0,64.0
1414,65.0,15,13,0.0,64.0
1415,67.0,15,13,0.0,64.0
1416,50.0,30,52,1.0,64.0
1417,69.0,15,13,0.0,64.0
1418,70.0,0,26,0.0,64.0
1419,38.0,15,52,1.0,64.0
1420,62.0,30,56,0.0,64.0
1421,40.0,30,52,1.0,64.0
1422,61.0,30,26,0.0,64.0
1423,69.0,0,26,0.0,64.0
1424,52.0,30,52,1.0,64.0
1425,60.0,30,56,0.0,64.0
1426,51.0,30,52,1.0,64.0
1427,59.0,30,26,0.0,64.0
1428,68.0,0,26,0.0,64.0
1429,50.0,30,52,1.0,64.0
1430,59.0,30,56,0.0,64.0
1431,49.0,30,52,1.0,64.0
1432,57.0,30,26,0.0,64.0
1433,65.0,30,26,0.0,64.0
1434,48.0,0,52,1.0,64.0
1435,57.0,30,56,0.0,64.0
1436,56.0,30,13,0.0,64.0
1437,47.0,30,52,1.0,64.0
1438,54.0,15,13,0.0,64.0
1439,56.0,15,26,0.0,64.0
1440,47.0,0,52,1.0,64.0
1441,62.0,30,43,0.0,64.0
1442,60.0,15,13,0.0,64.0
1443,59.0,15,13,0.0,64.0
1444,45.0,30,52,1.0,64.0
1445,57.0,15,13,0.0,64.0
1446,59.0,15,26,0.0,64.0
1447,45.0,0,52,1.0,64.0
1448,65.0,30,43,0.0,64.0
1449,64.0,15,13,0.0,64.0
1450,62.0,15,13,0.0,64.0
1451,44.0,30,52,1.0,64.0
1452,61.0,15,13,0.0,64.0
1453,62.0,15,26,0.0,64.0
1454,44.0,0,52,1.0,64.0
1455,71.0,30,43,0.0,64.0
1456,69.0,15,13,0.0,64.0
1457,68.0,15,13,0.0,64.0
1458,40.0,30,52,1.0,64.0
1459,66.0,15,13,0.0,64.0
1460,68.0,15,26,0.0,64.0
1461,40.0,0,52,1.0,64.0
1462,74.0,30,56,0.0,64.0
1463,72.0,30,13,0.0,64.0
1464,71.0,15,13,0.0,64.0
1465,45.0,30,73,1.0,64.0
1466,72.0,15,26,0.0,64.0
1467,50.0,15,13,1.0,64.0
1468,52.0,15,13,1.0,64.0
1469,69.0,0,26,0.0,64.0
1470,54.0,15,13,1.0,64.0
1471,55.0,15,26,1.0,64.0
1472,70.0,0,52,0.0,64.0
1473,51.0,30,26,1.0,64.0
1474,50.0,30,26,1.0,64.0
1475,71.0,0,52,0.0,64.0
1476,56.0,30,26,1.0,64.0
1477,57.0,0,26,1.0,64.0
1478,72.0,30,52,0.0,64.0
1479,53.0,30,26,1.0,64.0
1480,52.0,30,26,1.0,64.0
1481,73.0,0,52,0.0,64.0
1482,58.0,30,56,1.0,64.0
1483,74.0,30,52,0.0,64.0
1484,57.0,30,52,1.0,64.0
1485,55.0,30,26,1.0,64.0
1486,53.0,30,13,1.0,64.0
1487,76.0,30,73,0.0,64.0
1488,73.0,0,13,0.0,64.0
1489,52.0,15,13,1.0,64.0
1490,74.0,15,13,0.0,64.0
1491,53.0,0,13,1.0,64.0
1492,76.0,15,13,0.0,64.0
1493,55.0,0,13,1.0,64.0
1494,77.0,15,26,0.0,64.0
1495,57.0,0,52,1.0,64.0
1496,72.0,30,26,0.0,64.0
1497,71.0,30,26,0.0,64.0
1498,56.0,0,52,1.0,64.0
1499,75.0,30,26,0.0,64.0
1500,76.0,0,26,0.0,64.0
1501,55.0,30,52,1.0,64.0
1502,70.0,30,26,0.0,64.0
1503,69.0,30,26,0.0,64.0
1504,54.0,0,52,1.0,64.0
1505,73.0,30,26,0.0,64.0
1506,74.0,30,26,0.0,64.0
1507,53.0,0,52,1.0,64.0
1508,68.0,30,56,0.0,64.0
1509,52.0,30,52,1.0,64.0
1510,69.0,30,52,0.0,64.0
1511,71.0,30,26,0.0,64.0
1512,64.0,30,26,0.0,64.0
1513,50.0,30,86,1.0,64.0
1514,48.0,0,13,1.0,64.0
1515,47.0,15,13,1.0,64.0
1516,76.0,30,39,0.0,64.0
1517,48.0,15,26,1.0,64.0
1518,74.0,15,13,0.0,64.0
1519,72.0,0,13,0.0,64.0
1520,45.0,15,26,1.0,64.0
1521,71.0,15,13,0.0,64.0
1522,74.0,0,13,0.0,64.0
1523,72.0,15,13,0.0,64.0
1524,71.0,15,13,0.0,64.0
1525,52.0,15,52,1.0,64.0
1526,69.0,15,13,0.0,64.0
1527,72.0,0,13,0.0,64.0
1528,71.0,15,13,0.0,64.0
1529,69.0,15,13,0.0,64.0
1530,40.0,15,52,1.0,64.0
1531,68.0,15,13,0.0,64.0
1532,45.0,15,26,1.0,64.0
1533,47.0,30,13,1.0,64.0
1534,48.0,15,13,1.0,64.0
1535,50.0,15,13,1.0,64.0
1536,52.0,15,13,1.0,64.0
1537,54.0,15,13,1.0,64.0
1538,56.0,15,13,1.0,64.0
1539,57.0,15,52,1.0,64.0
1540,69.0,0,225,0.0,64.0
1541,45.0,60,52,1.0,64.0
