tick,type,numerator,denominator,clocks_per_click,notated_32nd_notes_per_beat,time,meta,track,key,tempo,note,velocity,channel
0,time_signature,4,4,24,8,0,1,0,,,,,
0,track_name,,,,,0,1,6,,,,,
0,track_name,,,,,0,1,5,,,,,
0,track_name,,,,,0,1,2,,,,,
0,track_name,,,,,0,1,7,,,,,
0,track_name,,,,,0,1,3,,,,,
0,track_name,,,,,0,1,8,,,,,
0,track_name,,,,,0,1,1,,,,,
0,track_name,,,,,0,1,4,,,,,
0,set_tempo,,,,,0,1,0,,600000,,,
0,key_signature,,,,,0,1,0,C,,,,
3072,note_on,,,,,3072,0,3,,,60,96,2
3072,note_on,,,,,3072,0,4,,,48,96,3
3072,note_on,,,,,3072,0,2,,,67,96,1
3072,note_on,,,,,3072,0,1,,,76,96,0
4096,note_on,,,,,0,0,1,,,76,96,0
4096,note_off,,,,,1024,0,1,,,76,0,0
4096,note_off,,,,,1024,0,3,,,60,0,2
4096,note_on,,,,,0,0,3,,,60,96,2
4096,note_off,,,,,1024,0,2,,,67,0,1
4096,note_on,,,,,0,0,2,,,67,96,1
4096,note_on,,,,,0,0,4,,,48,96,3
4096,note_off,,,,,1024,0,4,,,48,0,3
4608,note_off,,,,,512,0,3,,,60,0,2
4608,note_on,,,,,0,0,3,,,62,96,2
5120,note_off,,,,,512,0,3,,,62,0,2
5120,note_on,,,,,0,0,3,,,64,96,2
5120,note_on,,,,,0,0,4,,,60,96,3
5120,note_off,,,,,1024,0,2,,,67,0,1
5120,note_on,,,,,0,0,2,,,67,96,1
5120,note_off,,,,,1024,0,1,,,76,0,0
5120,note_on,,,,,0,0,1,,,72,96,0
5120,note_off,,,,,1024,0,4,,,48,0,3
6144,note_on,,,,,0,0,4,,,59,96,3
6144,note_off,,,,,1024,0,4,,,60,0,3
6144,note_off,,,,,1024,0,3,,,64,0,2
6144,note_on,,,,,0,0,2,,,67,96,1
6144,note_off,,,,,1024,0,2,,,67,0,1
6144,note_off,,,,,1024,0,1,,,72,0,0
6144,note_on,,,,,0,0,1,,,74,96,0
6144,note_on,,,,,0,0,3,,,62,96,2
7168,note_off,,,,,1024,0,3,,,62,0,2
7168,note_on,,,,,0,0,3,,,60,96,2
7168,note_on,,,,,0,0,1,,,76,96,0
7168,note_off,,,,,1024,0,4,,,59,0,3
7168,note_off,,,,,1024,0,1,,,74,0,0
7168,note_on,,,,,0,0,4,,,58,96,3
7168,note_off,,,,,1024,0,2,,,67,0,1
7168,note_on,,,,,0,0,2,,,67,96,1
8192,note_on,,,,,0,0,3,,,60,96,2
8192,note_off,,,,,1024,0,3,,,60,0,2
8192,note_off,,,,,1024,0,1,,,76,0,0
8192,note_on,,,,,0,0,4,,,57,96,3
8192,note_off,,,,,1024,0,4,,,58,0,3
8192,note_on,,,,,0,0,1,,,77,96,0
8192,note_on,,,,,0,0,2,,,65,96,1
8192,note_off,,,,,1024,0,2,,,67,0,1
8704,note_off,,,,,512,0,2,,,65,0,1
8704,note_on,,,,,0,0,2,,,67,96,1
9216,note_on,,,,,0,0,3,,,65,96,2
9216,note_off,,,,,1024,0,3,,,60,0,2
9216,note_off,,,,,1024,0,4,,,57,0,3
9216,note_on,,,,,0,0,4,,,55,96,3
9216,note_on,,,,,0,0,2,,,69,96,1
9216,note_off,,,,,512,0,2,,,67,0,1
9728,note_off,,,,,512,0,4,,,55,0,3
9728,note_on,,,,,0,0,4,,,53,96,3
10240,note_off,,,,,1024,0,3,,,65,0,2
10240,note_on,,,,,0,0,2,,,70,96,1
10240,note_off,,,,,1024,0,2,,,69,0,1
10240,note_on,,,,,0,0,3,,,65,96,2
10240,note_on,,,,,0,0,4,,,58,96,3
10240,note_off,,,,,2048,0,1,,,77,0,0
10240,note_on,,,,,0,0,1,,,74,96,0
10240,note_off,,,,,512,0,4,,,53,0,3
11264,note_off,,,,,1024,0,1,,,74,0,0
11264,note_on,,,,,0,0,1,,,74,96,0
11264,note_on,,,,,0,0,3,,,57,96,2
11264,note_off,,,,,1024,0,3,,,65,0,2
11264,note_on,,,,,11264,0,7,,,62,96,6
11264,note_off,,,,,1024,0,4,,,58,0,3
11264,note_on,,,,,0,0,4,,,54,96,3
11264,note_off,,,,,1024,0,2,,,70,0,1
11264,note_on,,,,,0,0,2,,,69,96,1
12288,note_off,,,,,1024,0,7,,,62,0,6
12288,note_on,,,,,0,0,7,,,62,96,6
12288,note_off,,,,,1024,0,2,,,69,0,1
12288,note_on,,,,,0,0,2,,,67,96,1
12288,note_on,,,,,0,0,1,,,74,96,0
12288,note_off,,,,,1024,0,1,,,74,0,0
12288,note_off,,,,,1024,0,4,,,54,0,3
12288,note_on,,,,,0,0,4,,,55,96,3
12288,note_off,,,,,1024,0,3,,,57,0,2
12288,note_on,,,,,0,0,3,,,59,96,2
12800,note_on,,,,,0,0,4,,,53,96,3
12800,note_off,,,,,512,0,4,,,55,0,3
13312,note_off,,,,,1024,0,7,,,62,0,6
13312,note_off,,,,,1024,0,1,,,74,0,0
13312,note_on,,,,,0,0,1,,,72,96,0
13312,note_on,,,,,0,0,7,,,64,96,6
13312,note_on,,,,,0,0,2,,,67,96,1
13312,note_off,,,,,1024,0,2,,,67,0,1
13312,note_on,,,,,0,0,3,,,60,96,2
13312,note_off,,,,,512,0,4,,,53,0,3
13312,note_on,,,,,0,0,4,,,52,96,3
13312,note_off,,,,,1024,0,3,,,59,0,2
13824,note_off,,,,,512,0,7,,,64,0,6
13824,note_on,,,,,0,0,7,,,65,96,6
14080,note_off,,,,,256,0,7,,,65,0,6
14080,note_on,,,,,0,0,7,,,67,96,6
14336,note_off,,,,,1024,0,1,,,72,0,0
14336,note_on,,,,,0,0,2,,,69,96,1
14336,note_off,,,,,1024,0,4,,,52,0,3
14336,note_off,,,,,256,0,7,,,67,0,6
14336,note_on,,,,,0,0,1,,,72,96,0
14336,note_off,,,,,1024,0,3,,,60,0,2
14336,note_on,,,,,0,0,3,,,65,96,2
14336,note_off,,,,,1024,0,2,,,67,0,1
14336,note_on,,,,,0,0,4,,,53,96,3
14848,note_off,,,,,512,0,3,,,65,0,2
14848,note_on,,,,,0,0,3,,,64,96,2
15360,note_off,,,,,512,0,3,,,64,0,2
15360,note_off,,,,,1024,0,4,,,53,0,3
15360,note_on,,,,,0,0,1,,,71,96,0
15360,note_off,,,,,1024,0,1,,,72,0,0
15360,note_on,,,,,0,0,4,,,55,96,3
15360,note_off,,,,,1024,0,2,,,69,0,1
15360,note_on,,,,,0,0,2,,,67,96,1
15360,note_on,,,,,0,0,3,,,62,96,2
16384,note_on,,,,,0,0,6,,,72,96,5
16384,note_on,,,,,16384,0,6,,,76,96,5
16384,note_on,,,,,16384,0,5,,,79,96,4
16384,note_off,,,,,1024,0,4,,,55,0,3
16384,note_off,,,,,1024,0,1,,,71,0,0
16384,note_on,,,,,0,0,2,,,67,96,1
16384,note_on,,,,,16384,0,8,,,48,96,7
16384,note_off,,,,,1024,0,2,,,67,0,1
16384,note_on,,,,,0,0,3,,,64,96,2
16384,note_off,,,,,1024,0,3,,,62,0,2
16384,note_on,,,,,0,0,1,,,72,96,0
16384,note_on,,,,,0,0,4,,,48,96,3
16896,note_on,,,,,0,0,5,,,81,96,4
16896,note_off,,,,,512,0,5,,,79,0,4
16896,note_off,,,,,512,0,6,,,76,0,5
16896,note_on,,,,,0,0,6,,,77,96,5
17408,note_off,,,,,1024,0,8,,,48,0,7
17408,note_off,,,,,512,0,6,,,72,0,5
17920,note_on,,,,,0,0,6,,,76,96,5
17920,note_off,,,,,1024,0,5,,,81,0,4
17920,note_on,,,,,0,0,5,,,79,96,4
17920,note_off,,,,,512,0,6,,,77,0,5
18176,note_off,,,,,256,0,6,,,76,0,5
18176,note_on,,,,,0,0,6,,,74,96,5
18176,note_off,,,,,256,0,5,,,79,0,4
18176,note_on,,,,,0,0,5,,,77,96,4
18432,note_on,,,,,0,0,5,,,79,96,4
18432,note_off,,,,,256,0,5,,,77,0,4
18432,note_off,,,,,256,0,6,,,74,0,5
18432,note_on,,,,,0,0,6,,,76,96,5
18944,note_off,,,,,512,0,5,,,79,0,4
18944,note_on,,,,,0,0,5,,,67,96,4
18944,note_on,,,,,0,0,6,,,64,96,5
18944,note_on,,,,,1536,0,8,,,48,96,7
18944,note_off,,,,,512,0,6,,,76,0,5
18944,note_on,,,,,0,0,6,,,60,96,5
19200,note_off,,,,,256,0,6,,,64,0,5
19200,note_on,,,,,0,0,6,,,64,96,5
19200,note_off,,,,,256,0,5,,,67,0,4
19200,note_on,,,,,0,0,5,,,67,96,4
19200,note_on,,,,,0,0,8,,,48,96,7
19200,note_off,,,,,256,0,8,,,48,0,7
19200,note_on,,,,,0,0,6,,,60,96,5
19200,note_off,,,,,0,0,6,,,60,0,5
19456,note_on,,,,,0,0,8,,,48,96,7
19456,note_off,,,,,256,0,6,,,64,0,5
19456,note_on,,,,,0,0,6,,,67,96,5
19456,note_off,,,,,0,0,6,,,60,0,5
19456,note_on,,,,,0,0,6,,,64,96,5
19456,note_off,,,,,3072,0,4,,,48,0,3
19456,note_off,,,,,3072,0,1,,,72,0,0
19456,note_off,,,,,256,0,8,,,48,0,7
19456,note_off,,,,,3072,0,3,,,64,0,2
19456,note_on,,,,,0,0,5,,,72,96,4
19456,note_off,,,,,256,0,5,,,67,0,4
19456,note_off,,,,,3072,0,2,,,67,0,1
19712,note_on,,,,,0,0,8,,,48,96,7
19712,note_on,,,,,0,0,5,,,72,96,4
19712,note_off,,,,,256,0,5,,,72,0,4
19712,note_off,,,,,256,0,8,,,48,0,7
19712,note_off,,,,,256,0,6,,,67,0,5
19712,note_on,,,,,0,0,6,,,67,96,5
19712,note_off,,,,,0,0,6,,,64,0,5
19712,note_on,,,,,0,0,6,,,64,96,5
19968,note_off,,,,,0,0,6,,,64,0,5
19968,note_off,,,,,256,0,8,,,48,0,7
19968,note_on,,,,,0,0,8,,,48,96,7
19968,note_on,,,,,0,0,5,,,76,96,4
19968,note_off,,,,,256,0,6,,,67,0,5
19968,note_on,,,,,0,0,6,,,72,96,5
19968,note_on,,,,,0,0,6,,,67,96,5
19968,note_off,,,,,256,0,5,,,72,0,4
20224,note_on,,,,,0,0,6,,,72,96,5
20224,note_off,,,,,256,0,6,,,72,0,5
20224,note_off,,,,,256,0,8,,,48,0,7
20224,note_on,,,,,0,0,6,,,67,96,5
20224,note_on,,,,,0,0,5,,,76,96,4
20224,note_on,,,,,0,0,8,,,48,96,7
20224,note_off,,,,,0,0,6,,,67,0,5
20224,note_off,,,,,256,0,5,,,76,0,4
20480,note_on,,,,,0,0,6,,,72,96,5
20480,note_off,,,,,256,0,6,,,72,0,5
20480,note_off,,,,,0,0,6,,,67,0,5
20480,note_on,,,,,0,0,8,,,48,96,7
20480,note_off,,,,,256,0,8,,,48,0,7
20480,note_on,,,,,0,0,6,,,76,96,5
20480,note_off,,,,,256,0,5,,,76,0,4
20480,note_on,,,,,0,0,5,,,79,96,4
20992,note_on,,,,,0,0,6,,,77,96,5
20992,note_off,,,,,512,0,5,,,79,0,4
20992,note_on,,,,,0,0,5,,,81,96,4
20992,note_on,,,,,0,0,6,,,60,96,5
20992,note_off,,,,,0,0,6,,,72,0,5
20992,note_off,,,,,512,0,6,,,76,0,5
20992,note_off,,,,,512,0,8,,,48,0,7
20992,note_on,,,,,0,0,8,,,48,96,7
21248,note_on,,,,,0,0,8,,,48,96,7
21248,note_off,,,,,256,0,8,,,48,0,7
21248,note_off,,,,,256,0,6,,,60,0,5
21248,note_on,,,,,0,0,6,,,60,96,5
21504,note_on,,,,,0,0,8,,,48,96,7
21504,note_off,,,,,256,0,8,,,48,0,7
21504,note_on,,,,,0,0,6,,,60,96,5
21504,note_off,,,,,256,0,6,,,60,0,5
21760,note_off,,,,,256,0,6,,,60,0,5
21760,note_on,,,,,0,0,6,,,60,96,5
21760,note_on,,,,,0,0,8,,,48,96,7
21760,note_off,,,,,256,0,8,,,48,0,7
22016,note_off,,,,,256,0,6,,,77,0,5
22016,note_on,,,,,0,0,6,,,76,96,5
22016,note_on,,,,,0,0,5,,,79,96,4
22016,note_on,,,,,0,0,6,,,60,96,5
22016,note_off,,,,,256,0,8,,,48,0,7
22016,note_on,,,,,0,0,8,,,48,96,7
22016,note_off,,,,,0,0,6,,,60,0,5
22016,note_off,,,,,1024,0,5,,,81,0,4
22272,note_on,,,,,0,0,6,,,60,96,5
22272,note_off,,,,,256,0,8,,,48,0,7
22272,note_on,,,,,0,0,8,,,48,96,7
22272,note_off,,,,,256,0,6,,,76,0,5
22272,note_on,,,,,0,0,6,,,74,96,5
22272,note_off,,,,,0,0,6,,,60,0,5
22272,note_on,,,,,0,0,5,,,77,96,4
22272,note_off,,,,,256,0,5,,,79,0,4
22528,note_on,,,,,0,0,6,,,72,96,5
22528,note_on,,,,,0,0,8,,,48,96,7
22528,note_off,,,,,256,0,8,,,48,0,7
22528,note_on,,,,,0,0,5,,,79,96,4
22528,note_off,,,,,256,0,5,,,77,0,4
22528,note_on,,,,,0,0,6,,,76,96,5
22528,note_off,,,,,256,0,6,,,74,0,5
22528,note_off,,,,,0,0,6,,,60,0,5
23552,note_off,,,,,1024,0,6,,,76,0,5
23552,note_on,,,,,4096,0,4,,,43,96,3
23552,note_on,,,,,4096,0,3,,,59,96,2
23552,note_on,,,,,9216,0,7,,,71,96,6
23552,note_off,,,,,0,0,6,,,72,0,5
23552,note_on,,,,,4096,0,1,,,74,96,0
23552,note_on,,,,,4096,0,2,,,67,96,1
23552,note_off,,,,,1024,0,8,,,48,0,7
23552,note_off,,,,,1024,0,5,,,79,0,4
24064,note_off,,,,,512,0,7,,,71,0,6
24064,note_on,,,,,0,0,3,,,57,96,2
24064,note_off,,,,,512,0,3,,,59,0,2
24064,note_on,,,,,0,0,2,,,66,96,1
24064,note_off,,,,,512,0,2,,,67,0,1
24064,note_on,,,,,0,0,7,,,72,96,6
24576,note_on,,,,,0,0,3,,,59,96,2
24576,note_off,,,,,512,0,3,,,57,0,2
24576,note_on,,,,,0,0,2,,,67,96,1
24576,note_off,,,,,512,0,2,,,66,0,1
24576,note_off,,,,,512,0,7,,,72,0,6
24576,note_on,,,,,0,0,4,,,55,96,3
24576,note_off,,,,,1024,0,4,,,43,0,3
24576,note_on,,,,,0,0,7,,,71,96,6
24576,note_off,,,,,1024,0,1,,,74,0,0
24576,note_on,,,,,0,0,1,,,74,96,0
25088,note_on,,,,,0,0,4,,,54,96,3
25088,note_on,,,,,0,0,3,,,57,96,2
25088,note_off,,,,,512,0,3,,,59,0,2
25088,note_off,,,,,512,0,7,,,71,0,6
25088,note_on,,,,,0,0,7,,,69,96,6
25088,note_off,,,,,512,0,4,,,55,0,3
25600,note_off,,,,,512,0,3,,,57,0,2
25600,note_off,,,,,1024,0,1,,,74,0,0
25600,note_on,,,,,0,0,7,,,67,96,6
25600,note_off,,,,,512,0,7,,,69,0,6
25600,note_on,,,,,0,0,3,,,59,96,2
25600,note_on,,,,,0,0,4,,,55,96,3
25600,note_off,,,,,512,0,4,,,54,0,3
25600,note_on,,,,,0,0,1,,,74,96,0
26112,note_on,,,,,0,0,2,,,66,96,1
26112,note_off,,,,,1536,0,2,,,67,0,1
26112,note_off,,,,,512,0,3,,,59,0,2
26112,note_on,,,,,0,0,3,,,60,96,2
26112,note_off,,,,,512,0,4,,,55,0,3
26112,note_on,,,,,0,0,4,,,57,96,3
26624,note_on,,,,,0,0,3,,,62,96,2
26624,note_on,,,,,0,0,7,,,62,96,6
26624,note_off,,,,,1024,0,7,,,67,0,6
26624,note_off,,,,,1024,0,1,,,74,0,0
26624,note_on,,,,,0,0,1,,,74,96,0
26624,note_off,,,,,512,0,2,,,66,0,1
26624,note_on,,,,,0,0,2,,,67,96,1
26624,note_off,,,,,512,0,3,,,60,0,2
26624,note_off,,,,,512,0,4,,,57,0,3
26624,note_on,,,,,0,0,4,,,59,96,3
27136,note_on,,,,,0,0,4,,,55,96,3
27136,note_off,,,,,512,0,4,,,59,0,3
27648,note_on,,,,,0,0,1,,,76,96,0
27648,note_off,,,,,1024,0,1,,,74,0,0
27648,note_off,,,,,512,0,4,,,55,0,3
27648,note_on,,,,,0,0,4,,,60,96,3
27648,note_on,,,,,0,0,7,,,60,96,6
27648,note_off,,,,,1024,0,3,,,62,0,2
27648,note_off,,,,,1024,0,2,,,67,0,1
27648,note_on,,,,,0,0,2,,,67,96,1
27648,note_on,,,,,0,0,3,,,60,96,2
27648,note_off,,,,,1024,0,7,,,62,0,6
28160,note_off,,,,,512,0,3,,,60,0,2
28160,note_on,,,,,0,0,3,,,58,96,2
28672,note_off,,,,,512,0,3,,,58,0,2
28672,note_on,,,,,0,0,3,,,58,96,2
28672,note_off,,,,,1024,0,4,,,60,0,3
28672,note_on,,,,,0,0,1,,,72,96,0
28672,note_on,,,,,0,0,7,,,60,96,6
28672,note_off,,,,,1024,0,7,,,60,0,6
28672,note_off,,,,,1024,0,2,,,67,0,1
28672,note_on,,,,,0,0,4,,,53,96,3
28672,note_off,,,,,1024,0,1,,,76,0,0
28672,note_on,,,,,0,0,2,,,67,96,1
29696,note_off,,,,,1024,0,7,,,60,0,6
29696,note_off,,,,,1024,0,3,,,58,0,2
29696,note_on,,,,,0,0,3,,,57,96,2
29696,note_on,,,,,0,0,7,,,65,96,6
29696,note_off,,,,,1024,0,2,,,67,0,1
29696,note_on,,,,,0,0,2,,,65,96,1
30208,note_on,,,,,0,0,2,,,64,96,1
30208,note_on,,,,,0,0,3,,,55,96,2
30208,note_off,,,,,512,0,2,,,65,0,1
30208,note_off,,,,,512,0,3,,,57,0,2
30720,note_off,,,,,512,0,3,,,55,0,2
30720,note_off,,,,,512,0,2,,,64,0,1
30720,note_on,,,,,0,0,2,,,65,96,1
30720,note_on,,,,,0,0,7,,,69,96,6
30720,note_off,,,,,1024,0,7,,,65,0,6
30720,note_on,,,,,0,0,3,,,57,96,2
30720,note_off,,,,,2048,0,1,,,72,0,0
30720,note_on,,,,,0,0,1,,,72,96,0
30720,note_off,,,,,2048,0,4,,,53,0,3
30720,note_on,,,,,0,0,4,,,53,96,3
31744,note_on,,,,,0,0,7,,,67,96,6
31744,note_off,,,,,1024,0,7,,,69,0,6
31744,note_off,,,,,1024,0,4,,,53,0,3
31744,note_on,,,,,0,0,4,,,52,96,3
31744,note_on,,,,,0,0,3,,,64,96,2
31744,note_off,,,,,1024,0,3,,,57,0,2
31744,note_on,,,,,0,0,1,,,72,96,0
31744,note_off,,,,,1024,0,1,,,72,0,0
31744,note_on,,,,,0,0,2,,,67,96,1
31744,note_off,,,,,1024,0,2,,,65,0,1
32256,note_off,,,,,512,0,4,,,52,0,3
32256,note_on,,,,,0,0,4,,,53,96,3
32768,note_off,,,,,1024,0,1,,,72,0,0
32768,note_on,,,,,0,0,1,,,71,96,0
32768,note_on,,,,,0,0,2,,,67,96,1
32768,note_off,,,,,1024,0,2,,,67,0,1
32768,note_off,,,,,1024,0,3,,,64,0,2
32768,note_off,,,,,1024,0,7,,,67,0,6
32768,note_on,,,,,0,0,3,,,62,96,2
32768,note_on,,,,,0,0,4,,,55,96,3
32768,note_on,,,,,0,0,7,,,67,96,6
32768,note_off,,,,,512,0,4,,,53,0,3
33280,note_off,,,,,512,0,7,,,67,0,6
33280,note_on,,,,,0,0,7,,,65,96,6
33280,note_off,,,,,512,0,2,,,67,0,1
33280,note_on,,,,,0,0,2,,,65,96,1
33792,note_off,,,,,1024,0,3,,,62,0,2
33792,note_on,,,,,0,0,3,,,60,96,2
33792,note_off,,,,,1024,0,4,,,55,0,3
33792,note_off,,,,,512,0,7,,,65,0,6
33792,note_on,,,,,0,0,2,,,64,96,1
33792,note_off,,,,,1024,0,1,,,71,0,0
33792,note_on,,,,,0,0,1,,,72,96,0
33792,note_off,,,,,512,0,2,,,65,0,1
33792,note_on,,,,,0,0,7,,,64,96,6
33792,note_on,,,,,0,0,4,,,57,96,3
34304,note_off,,,,,512,0,4,,,57,0,3
34304,note_on,,,,,0,0,4,,,55,96,3
34816,note_on,,,,,0,0,2,,,69,96,1
34816,note_off,,,,,1024,0,2,,,64,0,1
34816,note_off,,,,,1024,0,7,,,64,0,6
34816,note_off,,,,,512,0,4,,,55,0,3
34816,note_on,,,,,0,0,4,,,53,96,3
34816,note_off,,,,,1024,0,1,,,72,0,0
34816,note_on,,,,,0,0,1,,,74,96,0
34816,note_on,,,,,0,0,7,,,65,96,6
35328,note_on,,,,,0,0,7,,,64,96,6
35328,note_off,,,,,512,0,7,,,65,0,6
35840,note_on,,,,,0,0,7,,,62,96,6
35840,note_on,,,,,0,0,1,,,74,96,0
35840,note_off,,,,,1024,0,1,,,74,0,0
35840,note_off,,,,,512,0,7,,,64,0,6
35840,note_on,,,,,0,0,2,,,67,96,1
35840,note_off,,,,,1024,0,4,,,53,0,3
35840,note_on,,,,,0,0,4,,,55,96,3
35840,note_off,,,,,1024,0,2,,,69,0,1
35840,note_off,,,,,2048,0,3,,,60,0,2
35840,note_on,,,,,0,0,3,,,59,96,2
36352,note_on,,,,,0,0,4,,,43,96,3
36352,note_on,,,,,0,0,7,,,67,96,6
36352,note_on,,,,,0,0,2,,,65,96,1
36352,note_off,,,,,512,0,2,,,67,0,1
36352,note_off,,,,,512,0,4,,,55,0,3
36352,note_off,,,,,512,0,7,,,62,0,6
36864,note_on,,,,,13312,0,8,,,48,96,7
36864,note_on,,,,,13312,0,5,,,79,96,4
36864,note_on,,,,,0,0,1,,,72,96,0
36864,note_off,,,,,1024,0,1,,,74,0,0
36864,note_off,,,,,1024,0,3,,,59,0,2
36864,note_on,,,,,13312,0,6,,,76,96,5
36864,note_on,,,,,0,0,6,,,72,96,5
36864,note_on,,,,,0,0,3,,,55,96,2
36864,note_on,,,,,0,0,4,,,48,96,3
36864,note_off,,,,,512,0,2,,,65,0,1
36864,note_on,,,,,0,0,2,,,64,96,1
36864,note_off,,,,,512,0,4,,,43,0,3
36864,note_on,,,,,0,0,7,,,67,96,6
36864,note_off,,,,,512,0,7,,,67,0,6
37376,note_on,,,,,0,0,6,,,77,96,5
37376,note_off,,,,,512,0,5,,,79,0,4
37376,note_off,,,,,512,0,6,,,76,0,5
37376,note_on,,,,,0,0,5,,,81,96,4
37888,note_off,,,,,512,0,6,,,72,0,5
37888,note_off,,,,,1024,0,8,,,48,0,7
38400,note_off,,,,,1024,0,5,,,81,0,4
38400,note_on,,,,,0,0,6,,,76,96,5
38400,note_on,,,,,0,0,5,,,79,96,4
38400,note_off,,,,,512,0,6,,,77,0,5
38656,note_off,,,,,256,0,5,,,79,0,4
38656,note_on,,,,,0,0,5,,,77,96,4
38656,note_on,,,,,0,0,6,,,74,96,5
38656,note_off,,,,,256,0,6,,,76,0,5
38912,note_off,,,,,256,0,6,,,74,0,5
38912,note_on,,,,,0,0,6,,,76,96,5
38912,note_on,,,,,0,0,5,,,79,96,4
38912,note_off,,,,,256,0,5,,,77,0,4
39424,note_on,,,,,0,0,5,,,67,96,4
39424,note_off,,,,,512,0,6,,,76,0,5
39424,note_on,,,,,0,0,6,,,64,96,5
39424,note_on,,,,,0,0,6,,,60,96,5
39424,note_off,,,,,512,0,5,,,79,0,4
39424,note_on,,,,,1536,0,8,,,48,96,7
39680,note_off,,,,,0,0,6,,,60,0,5
39680,note_on,,,,,0,0,5,,,67,96,4
39680,note_off,,,,,256,0,5,,,67,0,4
39680,note_on,,,,,0,0,6,,,60,96,5
39680,note_off,,,,,256,0,8,,,48,0,7
39680,note_on,,,,,0,0,8,,,48,96,7
39680,note_on,,,,,0,0,6,,,64,96,5
39680,note_off,,,,,256,0,6,,,64,0,5
39936,note_on,,,,,0,0,8,,,48,96,7
39936,note_off,,,,,256,0,6,,,64,0,5
39936,note_on,,,,,0,0,6,,,67,96,5
39936,note_off,,,,,0,0,6,,,60,0,5
39936,note_off,,,,,3072,0,2,,,64,0,1
39936,note_on,,,,,0,0,6,,,64,96,5
39936,note_off,,,,,256,0,8,,,48,0,7
39936,note_on,,,,,0,0,5,,,72,96,4
39936,note_off,,,,,3072,0,4,,,48,0,3
39936,note_off,,,,,3072,0,3,,,55,0,2
39936,note_off,,,,,3072,0,1,,,72,0,0
39936,note_off,,,,,3072,0,7,,,67,0,6
39936,note_off,,,,,256,0,5,,,67,0,4
40192,note_on,,,,,0,0,6,,,64,96,5
40192,note_off,,,,,256,0,8,,,48,0,7
40192,note_on,,,,,0,0,8,,,48,96,7
40192,note_off,,,,,256,0,5,,,72,0,4
40192,note_on,,,,,0,0,5,,,72,96,4
40192,note_off,,,,,256,0,6,,,67,0,5
40192,note_on,,,,,0,0,6,,,67,96,5
40192,note_off,,,,,0,0,6,,,64,0,5
40448,note_off,,,,,256,0,5,,,72,0,4
40448,note_off,,,,,0,0,6,,,64,0,5
40448,note_on,,,,,0,0,6,,,72,96,5
40448,note_off,,,,,256,0,6,,,67,0,5
40448,note_on,,,,,0,0,6,,,67,96,5
40448,note_on,,,,,0,0,5,,,76,96,4
40448,note_off,,,,,256,0,8,,,48,0,7
40448,note_on,,,,,0,0,8,,,48,96,7
40704,note_on,,,,,0,0,6,,,72,96,5
40704,note_on,,,,,0,0,8,,,48,96,7
40704,note_off,,,,,256,0,6,,,72,0,5
40704,note_off,,,,,256,0,8,,,48,0,7
40704,note_off,,,,,0,0,6,,,67,0,5
40704,note_on,,,,,0,0,5,,,76,96,4
40704,note_off,,,,,256,0,5,,,76,0,4
40704,note_on,,,,,0,0,6,,,67,96,5
40960,note_off,,,,,256,0,6,,,72,0,5
40960,note_on,,,,,0,0,8,,,48,96,7
40960,note_on,,,,,0,0,6,,,76,96,5
40960,note_on,,,,,0,0,6,,,72,96,5
40960,note_off,,,,,0,0,6,,,67,0,5
40960,note_off,,,,,256,0,5,,,76,0,4
40960,note_on,,,,,0,0,5,,,79,96,4
40960,note_off,,,,,256,0,8,,,48,0,7
41472,note_on,,,,,0,0,8,,,48,96,7
41472,note_off,,,,,512,0,8,,,48,0,7
41472,note_off,,,,,512,0,5,,,79,0,4
41472,note_off,,,,,512,0,6,,,76,0,5
41472,note_on,,,,,0,0,6,,,77,96,5
41472,note_on,,,,,0,0,5,,,81,96,4
41472,note_off,,,,,0,0,6,,,72,0,5
41472,note_on,,,,,0,0,6,,,60,96,5
41728,note_on,,,,,0,0,6,,,60,96,5
41728,note_off,,,,,256,0,6,,,60,0,5
41728,note_off,,,,,256,0,8,,,48,0,7
41728,note_on,,,,,0,0,8,,,48,96,7
41984,note_off,,,,,256,0,8,,,48,0,7
41984,note_on,,,,,0,0,8,,,48,96,7
41984,note_off,,,,,256,0,6,,,60,0,5
41984,note_on,,,,,0,0,6,,,60,96,5
42240,note_on,,,,,0,0,6,,,60,96,5
42240,note_off,,,,,256,0,8,,,48,0,7
42240,note_off,,,,,256,0,6,,,60,0,5
42240,note_on,,,,,0,0,8,,,48,96,7
42496,note_off,,,,,1024,0,5,,,81,0,4
42496,note_off,,,,,0,0,6,,,60,0,5
42496,note_off,,,,,256,0,8,,,48,0,7
42496,note_on,,,,,0,0,6,,,76,96,5
42496,note_on,,,,,0,0,5,,,79,96,4
42496,note_on,,,,,0,0,6,,,60,96,5
42496,note_on,,,,,0,0,8,,,48,96,7
42496,note_off,,,,,256,0,6,,,77,0,5
42752,note_on,,,,,0,0,6,,,60,96,5
42752,note_off,,,,,0,0,6,,,60,0,5
42752,note_on,,,,,0,0,6,,,74,96,5
42752,note_off,,,,,256,0,6,,,76,0,5
42752,note_on,,,,,0,0,5,,,77,96,4
42752,note_off,,,,,256,0,8,,,48,0,7
42752,note_on,,,,,0,0,8,,,48,96,7
42752,note_off,,,,,256,0,5,,,79,0,4
43008,note_on,,,,,0,0,6,,,72,96,5
43008,note_off,,,,,0,0,6,,,60,0,5
43008,note_on,,,,,0,0,6,,,76,96,5
43008,note_off,,,,,256,0,6,,,74,0,5
43008,note_off,,,,,256,0,8,,,48,0,7
43008,note_on,,,,,0,0,8,,,48,96,7
43008,note_on,,,,,0,0,5,,,79,96,4
43008,note_off,,,,,256,0,5,,,77,0,4
44032,note_off,,,,,0,0,6,,,72,0,5
44032,note_on,,,,,4096,0,4,,,43,96,3
44032,note_on,,,,,4096,0,2,,,67,96,1
44032,note_off,,,,,1024,0,6,,,76,0,5
44032,note_on,,,,,4096,0,1,,,76,96,0
44032,note_off,,,,,1024,0,8,,,48,0,7
44032,note_off,,,,,1024,0,5,,,79,0,4
44032,note_on,,,,,4096,0,3,,,60,96,2
45056,note_off,,,,,1024,0,4,,,43,0,3
45056,note_on,,,,,0,0,2,,,67,96,1
45056,note_off,,,,,1024,0,2,,,67,0,1
45056,note_on,,,,,0,0,4,,,48,96,3
45056,note_off,,,,,1024,0,1,,,76,0,0
45056,note_on,,,,,0,0,1,,,76,96,0
45056,note_off,,,,,1024,0,3,,,60,0,2
45056,note_on,,,,,0,0,3,,,60,96,2
45568,note_off,,,,,512,0,3,,,60,0,2
45568,note_on,,,,,0,0,3,,,62,96,2
46080,note_off,,,,,1024,0,4,,,48,0,3
46080,note_on,,,,,0,0,1,,,72,96,0
46080,note_off,,,,,1024,0,1,,,76,0,0
46080,note_on,,,,,0,0,3,,,64,96,2
46080,note_off,,,,,512,0,3,,,62,0,2
46080,note_off,,,,,1024,0,2,,,67,0,1
46080,note_on,,,,,0,0,2,,,67,96,1
46080,note_on,,,,,0,0,4,,,60,96,3
47104,note_on,,,,,0,0,4,,,59,96,3
47104,note_off,,,,,1024,0,2,,,67,0,1
47104,note_on,,,,,0,0,1,,,74,96,0
47104,note_off,,,,,1024,0,1,,,72,0,0
47104,note_off,,,,,1024,0,4,,,60,0,3
47104,note_on,,,,,0,0,2,,,67,96,1
47104,note_off,,,,,1024,0,3,,,64,0,2
47104,note_on,,,,,0,0,3,,,62,96,2
48128,note_off,,,,,1024,0,2,,,67,0,1
48128,note_on,,,,,0,0,2,,,67,96,1
48128,note_off,,,,,1024,0,3,,,62,0,2
48128,note_on,,,,,0,0,3,,,60,96,2
48128,note_off,,,,,1024,0,1,,,74,0,0
48128,note_on,,,,,0,0,1,,,76,96,0
48128,note_on,,,,,0,0,4,,,58,96,3
48128,note_off,,,,,1024,0,4,,,59,0,3
49152,note_off,,,,,1024,0,3,,,60,0,2
49152,note_on,,,,,0,0,3,,,60,96,2
49152,note_off,,,,,1024,0,4,,,58,0,3
49152,note_on,,,,,0,0,4,,,57,96,3
49152,note_on,,,,,0,0,2,,,65,96,1
49152,note_on,,,,,0,0,1,,,77,96,0
49152,note_off,,,,,1024,0,1,,,76,0,0
49152,note_off,,,,,1024,0,2,,,67,0,1
49664,note_on,,,,,0,0,2,,,67,96,1
49664,note_off,,,,,512,0,2,,,65,0,1
50176,note_off,,,,,1024,0,3,,,60,0,2
50176,note_off,,,,,1024,0,4,,,57,0,3
50176,note_on,,,,,0,0,3,,,65,96,2
50176,note_on,,,,,0,0,2,,,69,96,1
50176,note_on,,,,,0,0,4,,,55,96,3
50176,note_off,,,,,512,0,2,,,67,0,1
50688,note_on,,,,,0,0,4,,,53,96,3
50688,note_off,,,,,512,0,4,,,55,0,3
51200,note_on,,,,,0,0,2,,,70,96,1
51200,note_on,,,,,0,0,4,,,58,96,3
51200,note_off,,,,,1024,0,2,,,69,0,1
51200,note_on,,,,,0,0,3,,,65,96,2
51200,note_off,,,,,1024,0,3,,,65,0,2
51200,note_on,,,,,0,0,1,,,74,96,0
51200,note_off,,,,,2048,0,1,,,77,0,0
51200,note_off,,,,,512,0,4,,,53,0,3
52224,note_off,,,,,1024,0,1,,,74,0,0
52224,note_off,,,,,1024,0,3,,,65,0,2
52224,note_on,,,,,0,0,3,,,57,96,2
52224,note_off,,,,,1024,0,4,,,58,0,3
52224,note_on,,,,,0,0,2,,,69,96,1
52224,note_off,,,,,1024,0,2,,,70,0,1
52224,note_on,,,,,0,0,1,,,74,96,0
52224,note_on,,,,,12288,0,7,,,62,96,6
52224,note_on,,,,,0,0,4,,,54,96,3
53248,note_off,,,,,1024,0,4,,,54,0,3
53248,note_on,,,,,0,0,4,,,55,96,3
53248,note_off,,,,,1024,0,2,,,69,0,1
53248,note_off,,,,,1024,0,3,,,57,0,2
53248,note_on,,,,,0,0,2,,,67,96,1
53248,note_on,,,,,0,0,1,,,74,96,0
53248,note_on,,,,,0,0,7,,,62,96,6
53248,note_off,,,,,1024,0,7,,,62,0,6
53248,note_off,,,,,1024,0,1,,,74,0,0
53248,note_on,,,,,0,0,3,,,59,96,2
53760,note_on,,,,,0,0,4,,,53,96,3
53760,note_off,,,,,512,0,4,,,55,0,3
54272,note_off,,,,,512,0,4,,,53,0,3
54272,note_on,,,,,0,0,3,,,60,96,2
54272,note_off,,,,,1024,0,3,,,59,0,2
54272,note_on,,,,,0,0,4,,,52,96,3
54272,note_on,,,,,0,0,2,,,67,96,1
54272,note_off,,,,,1024,0,7,,,62,0,6
54272,note_on,,,,,0,0,7,,,64,96,6
54272,note_off,,,,,1024,0,2,,,67,0,1
54272,note_off,,,,,1024,0,1,,,74,0,0
54272,note_on,,,,,0,0,1,,,72,96,0
54784,note_off,,,,,512,0,7,,,64,0,6
54784,note_on,,,,,0,0,7,,,65,96,6
55040,note_off,,,,,256,0,7,,,65,0,6
55040,note_on,,,,,0,0,7,,,67,96,6
55296,note_on,,,,,0,0,4,,,53,96,3
55296,note_off,,,,,1024,0,4,,,52,0,3
55296,note_on,,,,,0,0,1,,,72,96,0
55296,note_on,,,,,0,0,3,,,65,96,2
55296,note_on,,,,,0,0,2,,,69,96,1
55296,note_off,,,,,1024,0,2,,,67,0,1
55296,note_off,,,,,256,0,7,,,67,0,6
55296,note_off,,,,,1024,0,3,,,60,0,2
55296,note_off,,,,,1024,0,1,,,72,0,0
55808,note_off,,,,,512,0,3,,,65,0,2
55808,note_on,,,,,0,0,3,,,64,96,2
56320,note_off,,,,,1024,0,4,,,53,0,3
56320,note_on,,,,,0,0,4,,,55,96,3
56320,note_off,,,,,512,0,3,,,64,0,2
56320,note_on,,,,,0,0,1,,,71,96,0
56320,note_off,,,,,1024,0,1,,,72,0,0
56320,note_on,,,,,0,0,3,,,62,96,2
56320,note_off,,,,,1024,0,2,,,69,0,1
56320,note_on,,,,,0,0,2,,,67,96,1
57344,note_on,,,,,13312,0,5,,,79,96,4
57344,note_on,,,,,13312,0,8,,,48,96,7
57344,note_off,,,,,1024,0,2,,,67,0,1
57344,note_on,,,,,0,0,2,,,67,96,1
57344,note_on,,,,,0,0,1,,,72,96,0
57344,note_on,,,,,0,0,4,,,48,96,3
57344,note_off,,,,,1024,0,4,,,55,0,3
57344,note_on,,,,,13312,0,6,,,76,96,5
57344,note_on,,,,,0,0,6,,,72,96,5
57344,note_off,,,,,1024,0,3,,,62,0,2
57344,note_on,,,,,0,0,3,,,64,96,2
57344,note_off,,,,,1024,0,1,,,71,0,0
57856,note_on,,,,,0,0,5,,,81,96,4
57856,note_off,,,,,512,0,6,,,76,0,5
57856,note_off,,,,,512,0,5,,,79,0,4
57856,note_on,,,,,0,0,6,,,77,96,5
58368,note_off,,,,,512,0,6,,,72,0,5
58368,note_off,,,,,1024,0,8,,,48,0,7
58880,note_on,,,,,0,0,5,,,79,96,4
58880,note_off,,,,,512,0,6,,,77,0,5
58880,note_on,,,,,0,0,6,,,76,96,5
58880,note_off,,,,,1024,0,5,,,81,0,4
59136,note_off,,,,,256,0,5,,,79,0,4
59136,note_off,,,,,256,0,6,,,76,0,5
59136,note_on,,,,,0,0,5,,,77,96,4
59136,note_on,,,,,0,0,6,,,74,96,5
59392,note_off,,,,,256,0,5,,,77,0,4
59392,note_on,,,,,0,0,5,,,79,96,4
59392,note_off,,,,,256,0,6,,,74,0,5
59392,note_on,,,,,0,0,6,,,76,96,5
59904,note_on,,,,,0,0,6,,,60,96,5
59904,note_on,,,,,1536,0,8,,,48,96,7
59904,note_off,,,,,512,0,6,,,76,0,5
59904,note_off,,,,,512,0,5,,,79,0,4
59904,note_on,,,,,0,0,5,,,67,96,4
59904,note_on,,,,,0,0,6,,,64,96,5
60160,note_off,,,,,0,0,6,,,60,0,5
60160,note_on,,,,,0,0,6,,,60,96,5
60160,note_on,,,,,0,0,6,,,64,96,5
60160,note_off,,,,,256,0,6,,,64,0,5
60160,note_on,,,,,0,0,5,,,67,96,4
60160,note_off,,,,,256,0,5,,,67,0,4
60160,note_on,,,,,0,0,8,,,48,96,7
60160,note_off,,,,,256,0,8,,,48,0,7
60416,note_on,,,,,0,0,6,,,67,96,5
60416,note_off,,,,,256,0,6,,,64,0,5
60416,note_on,,,,,0,0,5,,,72,96,4
60416,note_off,,,,,3072,0,4,,,48,0,3
60416,note_off,,,,,3072,0,3,,,64,0,2
60416,note_off,,,,,3072,0,2,,,67,0,1
60416,note_off,,,,,3072,0,1,,,72,0,0
60416,note_on,,,,,0,0,8,,,48,96,7
60416,note_off,,,,,256,0,8,,,48,0,7
60416,note_off,,,,,0,0,6,,,60,0,5
60416,note_off,,,,,256,0,5,,,67,0,4
60416,note_on,,,,,0,0,6,,,64,96,5
60672,note_on,,,,,0,0,5,,,72,96,4
60672,note_off,,,,,256,0,5,,,72,0,4
60672,note_on,,,,,0,0,6,,,67,96,5
60672,note_off,,,,,0,0,6,,,64,0,5
60672,note_on,,,,,0,0,6,,,64,96,5
60672,note_off,,,,,256,0,6,,,67,0,5
60672,note_on,,,,,0,0,8,,,48,96,7
60672,note_off,,,,,256,0,8,,,48,0,7
60928,note_off,,,,,256,0,5,,,72,0,4
60928,note_on,,,,,0,0,5,,,76,96,4
60928,note_on,,,,,0,0,8,,,48,96,7
60928,note_off,,,,,256,0,8,,,48,0,7
60928,note_off,,,,,256,0,6,,,67,0,5
60928,note_on,,,,,0,0,6,,,72,96,5
60928,note_off,,,,,0,0,6,,,64,0,5
60928,note_on,,,,,0,0,6,,,67,96,5
61184,note_on,,,,,0,0,6,,,67,96,5
61184,note_off,,,,,256,0,5,,,76,0,4
61184,note_on,,,,,0,0,5,,,76,96,4
61184,note_off,,,,,0,0,6,,,67,0,5
61184,note_on,,,,,0,0,8,,,48,96,7
61184,note_off,,,,,256,0,8,,,48,0,7
61184,note_off,,,,,256,0,6,,,72,0,5
61184,note_on,,,,,0,0,6,,,72,96,5
61440,note_off,,,,,256,0,5,,,76,0,4
61440,note_on,,,,,0,0,5,,,79,96,4
61440,note_off,,,,,256,0,8,,,48,0,7
61440,note_on,,,,,0,0,8,,,48,96,7
61440,note_on,,,,,0,0,6,,,72,96,5
61440,note_on,,,,,0,0,6,,,76,96,5
61440,note_off,,,,,0,0,6,,,67,0,5
61440,note_off,,,,,256,0,6,,,72,0,5
61952,note_on,,,,,0,0,8,,,48,96,7
61952,note_off,,,,,512,0,6,,,76,0,5
61952,note_on,,,,,0,0,5,,,81,96,4
61952,note_off,,,,,512,0,5,,,79,0,4
61952,note_off,,,,,512,0,8,,,48,0,7
61952,note_off,,,,,0,0,6,,,72,0,5
61952,note_on,,,,,0,0,6,,,60,96,5
61952,note_on,,,,,0,0,6,,,77,96,5
62208,note_on,,,,,0,0,6,,,60,96,5
62208,note_off,,,,,256,0,6,,,60,0,5
62208,note_on,,,,,0,0,8,,,48,96,7
62208,note_off,,,,,256,0,8,,,48,0,7
62464,note_on,,,,,0,0,6,,,60,96,5
62464,note_off,,,,,256,0,6,,,60,0,5
62464,note_on,,,,,0,0,8,,,48,96,7
62464,note_off,,,,,256,0,8,,,48,0,7
62720,note_off,,,,,256,0,6,,,60,0,5
62720,note_on,,,,,0,0,6,,,60,96,5
62720,note_off,,,,,256,0,8,,,48,0,7
62720,note_on,,,,,0,0,8,,,48,96,7
62976,note_off,,,,,0,0,6,,,60,0,5
62976,note_on,,,,,0,0,6,,,60,96,5
62976,note_off,,,,,256,0,8,,,48,0,7
62976,note_off,,,,,1024,0,5,,,81,0,4
62976,note_on,,,,,0,0,5,,,79,96,4
62976,note_off,,,,,256,0,6,,,77,0,5
62976,note_on,,,,,0,0,8,,,48,96,7
62976,note_on,,,,,0,0,6,,,76,96,5
63232,note_on,,,,,0,0,5,,,77,96,4
63232,note_on,,,,,0,0,6,,,74,96,5
63232,note_off,,,,,256,0,6,,,76,0,5
63232,note_off,,,,,0,0,6,,,60,0,5
63232,note_on,,,,,0,0,6,,,60,96,5
63232,note_on,,,,,0,0,8,,,48,96,7
63232,note_off,,,,,256,0,8,,,48,0,7
63232,note_off,,,,,256,0,5,,,79,0,4
63488,note_off,,,,,256,0,8,,,48,0,7
63488,note_on,,,,,0,0,5,,,79,96,4
63488,note_on,,,,,0,0,8,,,48,96,7
63488,note_off,,,,,256,0,5,,,77,0,4
63488,note_on,,,,,0,0,6,,,72,96,5
63488,note_off,,,,,0,0,6,,,60,0,5
63488,note_on,,,,,0,0,6,,,76,96,5
63488,note_off,,,,,256,0,6,,,74,0,5
64512,note_on,,,,,4096,0,4,,,43,96,3
64512,note_off,,,,,1024,0,5,,,79,0,4
64512,note_on,,,,,4096,0,2,,,67,96,1
64512,note_on,,,,,9216,0,7,,,71,96,6
64512,note_on,,,,,4096,0,3,,,59,96,2
64512,note_off,,,,,1024,0,8,,,48,0,7
64512,note_on,,,,,4096,0,1,,,74,96,0
64512,note_off,,,,,1024,0,6,,,76,0,5
64512,note_off,,,,,0,0,6,,,72,0,5
65024,note_on,,,,,0,0,7,,,72,96,6
65024,note_off,,,,,512,0,3,,,59,0,2
65024,note_on,,,,,0,0,3,,,57,96,2
65024,note_off,,,,,512,0,2,,,67,0,1
65024,note_on,,,,,0,0,2,,,66,96,1
65024,note_off,,,,,512,0,7,,,71,0,6
65536,note_off,,,,,1024,0,1,,,74,0,0
65536,note_on,,,,,0,0,7,,,71,96,6
65536,note_off,,,,,512,0,7,,,72,0,6
65536,note_off,,,,,512,0,2,,,66,0,1
65536,note_on,,,,,0,0,1,,,74,96,0
65536,note_on,,,,,0,0,2,,,67,96,1
65536,note_off,,,,,1024,0,4,,,43,0,3
65536,note_on,,,,,0,0,3,,,59,96,2
65536,note_off,,,,,512,0,3,,,57,0,2
65536,note_on,,,,,0,0,4,,,55,96,3
66048,note_on,,,,,0,0,7,,,69,96,6
66048,note_on,,,,,0,0,4,,,54,96,3
66048,note_off,,,,,512,0,4,,,55,0,3
66048,note_off,,,,,512,0,3,,,59,0,2
66048,note_on,,,,,0,0,3,,,57,96,2
66048,note_off,,,,,512,0,7,,,71,0,6
66560,note_off,,,,,512,0,4,,,54,0,3
66560,note_on,,,,,0,0,4,,,55,96,3
66560,note_on,,,,,0,0,7,,,67,96,6
66560,note_on,,,,,0,0,1,,,74,96,0
66560,note_off,,,,,512,0,7,,,69,0,6
66560,note_off,,,,,1024,0,1,,,74,0,0
66560,note_off,,,,,512,0,3,,,57,0,2
66560,note_on,,,,,0,0,3,,,59,96,2
67072,note_off,,,,,1536,0,2,,,67,0,1
67072,note_off,,,,,512,0,4,,,55,0,3
67072,note_off,,,,,512,0,3,,,59,0,2
67072,note_on,,,,,0,0,3,,,60,96,2
67072,note_on,,,,,0,0,4,,,57,96,3
67072,note_on,,,,,0,0,2,,,66,96,1
67584,note_off,,,,,512,0,2,,,66,0,1
67584,note_on,,,,,0,0,2,,,67,96,1
67584,note_on,,,,,0,0,7,,,62,96,6
67584,note_off,,,,,1024,0,7,,,67,0,6
67584,note_off,,,,,512,0,4,,,57,0,3
67584,note_off,,,,,1024,0,1,,,74,0,0
67584,note_on,,,,,0,0,3,,,62,96,2
67584,note_off,,,,,512,0,3,,,60,0,2
67584,note_on,,,,,0,0,1,,,74,96,0
67584,note_on,,,,,0,0,4,,,59,96,3
68096,note_off,,,,,512,0,4,,,59,0,3
68096,note_on,,,,,0,0,4,,,55,96,3
68608,note_off,,,,,512,0,4,,,55,0,3
68608,note_on,,,,,0,0,4,,,60,96,3
68608,note_on,,,,,0,0,2,,,67,96,1
68608,note_off,,,,,1024,0,2,,,67,0,1
68608,note_on,,,,,0,0,1,,,76,96,0
68608,note_off,,,,,1024,0,3,,,62,0,2
68608,note_on,,,,,0,0,3,,,60,96,2
68608,note_off,,,,,1024,0,1,,,74,0,0
68608,note_off,,,,,1024,0,7,,,62,0,6
68608,note_on,,,,,0,0,7,,,60,96,6
69120,note_on,,,,,0,0,3,,,58,96,2
69120,note_off,,,,,512,0,3,,,60,0,2
69632,note_off,,,,,1024,0,1,,,76,0,0
69632,note_off,,,,,1024,0,2,,,67,0,1
69632,note_on,,,,,0,0,2,,,67,96,1
69632,note_on,,,,,0,0,3,,,58,96,2
69632,note_off,,,,,512,0,3,,,58,0,2
69632,note_off,,,,,1024,0,7,,,60,0,6
69632,note_on,,,,,0,0,7,,,60,96,6
69632,note_on,,,,,0,0,1,,,72,96,0
69632,note_off,,,,,1024,0,4,,,60,0,3
69632,note_on,,,,,0,0,4,,,53,96,3
70656,note_off,,,,,1024,0,2,,,67,0,1
70656,note_on,,,,,0,0,2,,,65,96,1
70656,note_on,,,,,0,0,7,,,65,96,6
70656,note_on,,,,,0,0,3,,,57,96,2
70656,note_off,,,,,1024,0,3,,,58,0,2
70656,note_off,,,,,1024,0,7,,,60,0,6
71168,note_on,,,,,0,0,3,,,55,96,2
71168,note_off,,,,,512,0,3,,,57,0,2
71168,note_off,,,,,512,0,2,,,65,0,1
71168,note_on,,,,,0,0,2,,,64,96,1
71680,note_off,,,,,512,0,2,,,64,0,1
71680,note_on,,,,,0,0,2,,,65,96,1
71680,note_on,,,,,0,0,3,,,57,96,2
71680,note_off,,,,,2048,0,1,,,72,0,0
71680,note_on,,,,,0,0,1,,,72,96,0
71680,note_off,,,,,512,0,3,,,55,0,2
71680,note_off,,,,,1024,0,7,,,65,0,6
71680,note_off,,,,,2048,0,4,,,53,0,3
71680,note_on,,,,,0,0,4,,,53,96,3
71680,note_on,,,,,0,0,7,,,69,96,6
72704,note_off,,,,,1024,0,7,,,69,0,6
72704,note_off,,,,,1024,0,4,,,53,0,3
72704,note_on,,,,,0,0,7,,,67,96,6
72704,note_off,,,,,1024,0,1,,,72,0,0
72704,note_on,,,,,0,0,1,,,72,96,0
72704,note_on,,,,,0,0,2,,,67,96,1
72704,note_off,,,,,1024,0,2,,,65,0,1
72704,note_on,,,,,0,0,4,,,52,96,3
72704,note_on,,,,,0,0,3,,,64,96,2
72704,note_off,,,,,1024,0,3,,,57,0,2
73216,note_off,,,,,512,0,4,,,52,0,3
73216,note_on,,,,,0,0,4,,,53,96,3
73728,note_off,,,,,1024,0,7,,,67,0,6
73728,note_on,,,,,0,0,4,,,55,96,3
73728,note_off,,,,,1024,0,2,,,67,0,1
73728,note_on,,,,,0,0,2,,,67,96,1
73728,note_on,,,,,0,0,7,,,67,96,6
73728,note_off,,,,,512,0,4,,,53,0,3
73728,note_off,,,,,1024,0,3,,,64,0,2
73728,note_on,,,,,0,0,3,,,62,96,2
73728,note_on,,,,,0,0,1,,,71,96,0
73728,note_off,,,,,1024,0,1,,,72,0,0
74240,note_off,,,,,512,0,2,,,67,0,1
74240,note_on,,,,,0,0,7,,,65,96,6
74240,note_off,,,,,512,0,7,,,67,0,6
74240,note_on,,,,,0,0,2,,,65,96,1
74752,note_on,,,,,0,0,4,,,57,96,3
74752,note_on,,,,,0,0,2,,,64,96,1
74752,note_off,,,,,512,0,7,,,65,0,6
74752,note_on,,,,,0,0,7,,,64,96,6
74752,note_off,,,,,1024,0,1,,,71,0,0
74752,note_on,,,,,0,0,3,,,60,96,2
74752,note_off,,,,,1024,0,4,,,55,0,3
74752,note_off,,,,,1024,0,3,,,62,0,2
74752,note_on,,,,,0,0,1,,,72,96,0
74752,note_off,,,,,512,0,2,,,65,0,1
75264,note_off,,,,,512,0,4,,,57,0,3
75264,note_on,,,,,0,0,4,,,55,96,3
75776,note_on,,,,,0,0,2,,,69,96,1
75776,note_off,,,,,1024,0,2,,,64,0,1
75776,note_on,,,,,0,0,4,,,53,96,3
75776,note_on,,,,,0,0,7,,,65,96,6
75776,note_off,,,,,1024,0,7,,,64,0,6
75776,note_off,,,,,1024,0,1,,,72,0,0
75776,note_on,,,,,0,0,1,,,74,96,0
75776,note_off,,,,,512,0,4,,,55,0,3
76288,note_off,,,,,512,0,7,,,65,0,6
76288,note_on,,,,,0,0,7,,,64,96,6
76800,note_off,,,,,1024,0,2,,,69,0,1
76800,note_off,,,,,1024,0,1,,,74,0,0
76800,note_on,,,,,0,0,1,,,74,96,0
76800,note_on,,,,,0,0,3,,,59,96,2
76800,note_off,,,,,2048,0,3,,,60,0,2
76800,note_off,,,,,1024,0,4,,,53,0,3
76800,note_on,,,,,0,0,2,,,67,96,1
76800,note_on,,,,,0,0,7,,,62,96,6
76800,note_on,,,,,0,0,4,,,55,96,3
76800,note_off,,,,,512,0,7,,,64,0,6
77312,note_off,,,,,512,0,7,,,62,0,6
77312,note_on,,,,,0,0,2,,,65,96,1
77312,note_off,,,,,512,0,2,,,67,0,1
77312,note_off,,,,,512,0,4,,,55,0,3
77312,note_on,,,,,0,0,4,,,43,96,3
77312,note_on,,,,,0,0,7,,,67,96,6
77824,note_on,,,,,13312,0,8,,,48,96,7
77824,note_off,,,,,1024,0,1,,,74,0,0
77824,note_on,,,,,0,0,3,,,55,96,2
77824,note_on,,,,,0,0,4,,,48,96,3
77824,note_on,,,,,13312,0,5,,,79,96,4
77824,note_off,,,,,512,0,4,,,43,0,3
77824,note_on,,,,,13312,0,6,,,76,96,5
77824,note_on,,,,,0,0,6,,,72,96,5
77824,note_off,,,,,1024,0,3,,,59,0,2
77824,note_off,,,,,512,0,7,,,67,0,6
77824,note_on,,,,,0,0,1,,,72,96,0
77824,note_on,,,,,0,0,2,,,64,96,1
77824,note_off,,,,,512,0,2,,,65,0,1
77824,note_on,,,,,0,0,7,,,67,96,6
78336,note_off,,,,,512,0,6,,,76,0,5
78336,note_off,,,,,512,0,5,,,79,0,4
78336,note_on,,,,,0,0,6,,,77,96,5
78336,note_on,,,,,0,0,5,,,81,96,4
78848,note_off,,,,,512,0,6,,,72,0,5
78848,note_off,,,,,1024,0,8,,,48,0,7
79360,note_off,,,,,512,0,6,,,77,0,5
79360,note_on,,,,,0,0,5,,,79,96,4
79360,note_off,,,,,1024,0,5,,,81,0,4
79360,note_on,,,,,0,0,6,,,76,96,5
79616,note_on,,,,,0,0,6,,,74,96,5
79616,note_off,,,,,256,0,6,,,76,0,5
79616,note_off,,,,,256,0,5,,,79,0,4
79616,note_on,,,,,0,0,5,,,77,96,4
79872,note_on,,,,,0,0,6,,,76,96,5
79872,note_off,,,,,256,0,6,,,74,0,5
79872,note_on,,,,,0,0,5,,,79,96,4
79872,note_off,,,,,256,0,5,,,77,0,4
80384,note_off,,,,,512,0,6,,,76,0,5
80384,note_on,,,,,0,0,6,,,60,96,5
80384,note_on,,,,,0,0,6,,,64,96,5
80384,note_off,,,,,512,0,5,,,79,0,4
80384,note_on,,,,,1536,0,8,,,48,96,7
80384,note_on,,,,,0,0,5,,,67,96,4
80640,note_off,,,,,256,0,6,,,64,0,5
80640,note_on,,,,,0,0,6,,,64,96,5
80640,note_off,,,,,0,0,6,,,60,0,5
80640,note_on,,,,,0,0,6,,,60,96,5
80640,note_off,,,,,256,0,8,,,48,0,7
80640,note_on,,,,,0,0,8,,,48,96,7
80640,note_on,,,,,0,0,5,,,67,96,4
80640,note_off,,,,,256,0,5,,,67,0,4
80896,note_on,,,,,0,0,8,,,48,96,7
80896,note_on,,,,,0,0,6,,,64,96,5
80896,note_off,,,,,0,0,6,,,60,0,5
80896,note_on,,,,,0,0,6,,,67,96,5
80896,note_off,,,,,256,0,6,,,64,0,5
80896,note_off,,,,,256,0,5,,,67,0,4
80896,note_on,,,,,0,0,5,,,72,96,4
80896,note_off,,,,,3072,0,4,,,48,0,3
80896,note_off,,,,,3072,0,7,,,67,0,6
80896,note_off,,,,,3072,0,2,,,64,0,1
80896,note_off,,,,,3072,0,1,,,72,0,0
80896,note_off,,,,,3072,0,3,,,55,0,2
80896,note_off,,,,,256,0,8,,,48,0,7
81152,note_on,,,,,0,0,5,,,72,96,4
81152,note_on,,,,,0,0,8,,,48,96,7
81152,note_off,,,,,256,0,8,,,48,0,7
81152,note_off,,,,,256,0,5,,,72,0,4
81152,note_off,,,,,256,0,6,,,67,0,5
81152,note_off,,,,,0,0,6,,,64,0,5
81152,note_on,,,,,0,0,6,,,64,96,5
81152,note_on,,,,,0,0,6,,,67,96,5
81408,note_on,,,,,0,0,5,,,76,96,4
81408,note_off,,,,,256,0,5,,,72,0,4
81408,note_on,,,,,0,0,8,,,48,96,7
81408,note_off,,,,,256,0,8,,,48,0,7
81408,note_off,,,,,256,0,6,,,67,0,5
81408,note_on,,,,,0,0,6,,,67,96,5
81408,note_on,,,,,0,0,6,,,72,96,5
81408,note_off,,,,,0,0,6,,,64,0,5
81664,note_off,,,,,256,0,6,,,72,0,5
81664,note_off,,,,,256,0,8,,,48,0,7
81664,note_on,,,,,0,0,8,,,48,96,7
81664,note_off,,,,,0,0,6,,,67,0,5
81664,note_on,,,,,0,0,6,,,72,96,5
81664,note_off,,,,,256,0,5,,,76,0,4
81664,note_on,,,,,0,0,5,,,76,96,4
81664,note_on,,,,,0,0,6,,,67,96,5
81920,note_on,,,,,0,0,5,,,79,96,4
81920,note_off,,,,,256,0,5,,,76,0,4
81920,note_on,,,,,0,0,8,,,48,96,7
81920,note_on,,,,,0,0,6,,,72,96,5
81920,note_on,,,,,0,0,6,,,76,96,5
81920,note_off,,,,,0,0,6,,,67,0,5
81920,note_off,,,,,256,0,6,,,72,0,5
81920,note_off,,,,,256,0,8,,,48,0,7
82432,note_off,,,,,0,0,6,,,72,0,5
82432,note_on,,,,,0,0,8,,,48,96,7
82432,note_off,,,,,512,0,8,,,48,0,7
82432,note_on,,,,,0,0,5,,,81,96,4
82432,note_off,,,,,512,0,5,,,79,0,4
82432,note_off,,,,,512,0,6,,,76,0,5
82432,note_on,,,,,0,0,6,,,77,96,5
82432,note_on,,,,,0,0,6,,,60,96,5
82688,note_on,,,,,0,0,6,,,60,96,5
82688,note_off,,,,,256,0,6,,,60,0,5
82688,note_off,,,,,256,0,8,,,48,0,7
82688,note_on,,,,,0,0,8,,,48,96,7
82944,note_off,,,,,256,0,8,,,48,0,7
82944,note_off,,,,,256,0,6,,,60,0,5
82944,note_on,,,,,0,0,8,,,48,96,7
82944,note_on,,,,,0,0,6,,,60,96,5
83200,note_on,,,,,0,0,8,,,48,96,7
83200,note_off,,,,,256,0,8,,,48,0,7
83200,note_off,,,,,256,0,6,,,60,0,5
83200,note_on,,,,,0,0,6,,,60,96,5
83456,note_on,,,,,0,0,6,,,76,96,5
83456,note_on,,,,,0,0,6,,,60,96,5
83456,note_on,,,,,0,0,8,,,48,96,7
83456,note_off,,,,,256,0,8,,,48,0,7
83456,note_off,,,,,256,0,6,,,77,0,5
83456,note_off,,,,,1024,0,5,,,81,0,4
83456,note_on,,,,,0,0,5,,,79,96,4
83456,note_off,,,,,0,0,6,,,60,0,5
83712,note_on,,,,,0,0,6,,,60,96,5
83712,note_on,,,,,0,0,5,,,77,96,4
83712,note_off,,,,,256,0,5,,,79,0,4
83712,note_off,,,,,256,0,6,,,76,0,5
83712,note_on,,,,,0,0,8,,,48,96,7
83712,note_on,,,,,0,0,6,,,74,96,5
83712,note_off,,,,,256,0,8,,,48,0,7
83712,note_off,,,,,0,0,6,,,60,0,5
83968,note_off,,,,,256,0,8,,,48,0,7
83968,note_off,,,,,0,0,6,,,60,0,5
83968,note_on,,,,,0,0,6,,,76,96,5
83968,note_off,,,,,256,0,5,,,77,0,4
83968,note_on,,,,,0,0,5,,,79,96,4
83968,note_off,,,,,256,0,6,,,74,0,5
83968,note_on,,,,,0,0,8,,,48,96,7
83968,note_on,,,,,0,0,6,,,72,96,5
84992,note_on,,,,,4096,0,1,,,71,96,0
84992,note_on,,,,,4096,0,2,,,67,96,1
84992,note_off,,,,,0,0,6,,,72,0,5
84992,note_off,,,,,1024,0,5,,,79,0,4
84992,note_off,,,,,1024,0,6,,,76,0,5
84992,note_off,,,,,1024,0,8,,,48,0,7
84992,note_on,,,,,4096,0,3,,,62,96,2
84992,note_on,,,,,4096,0,4,,,43,96,3
86016,note_off,,,,,1024,0,1,,,71,0,0
86016,note_on,,,,,0,0,3,,,62,96,2
86016,note_off,,,,,1024,0,3,,,62,0,2
86016,note_on,,,,,0,0,1,,,71,96,0
86016,note_off,,,,,1024,0,2,,,67,0,1
86016,note_on,,,,,0,0,2,,,67,96,1
86016,note_on,,,,,0,0,4,,,55,96,3
86016,note_off,,,,,1024,0,4,,,43,0,3
86528,note_off,,,,,512,0,3,,,62,0,2
86528,note_on,,,,,0,0,3,,,64,96,2
86528,note_on,,,,,0,0,4,,,54,96,3
86528,note_off,,,,,512,0,4,,,55,0,3
87040,note_on,,,,,0,0,1,,,71,96,0
87040,note_off,,,,,1024,0,2,,,67,0,1
87040,note_on,,,,,0,0,2,,,69,96,1
87040,note_off,,,,,1024,0,1,,,71,0,0
87040,note_off,,,,,512,0,4,,,54,0,3
87040,note_on,,,,,0,0,4,,,52,96,3
87040,note_off,,,,,512,0,3,,,64,0,2
87040,note_on,,,,,0,0,3,,,66,96,2
87552,note_on,,,,,0,0,4,,,51,96,3
87552,note_off,,,,,512,0,4,,,52,0,3
88064,note_on,,,,,0,0,3,,,64,96,2
88064,note_off,,,,,1024,0,1,,,71,0,0
88064,note_on,,,,,0,0,1,,,71,96,0
88064,note_off,,,,,512,0,4,,,51,0,3
88064,note_off,,,,,1024,0,2,,,69,0,1
88064,note_on,,,,,0,0,2,,,67,96,1
88064,note_on,,,,,0,0,4,,,52,96,3
88064,note_off,,,,,1024,0,3,,,66,0,2
88576,note_off,,,,,512,0,4,,,52,0,3
88576,note_on,,,,,0,0,4,,,50,96,3
89088,note_on,,,,,0,0,3,,,64,96,2
89088,note_on,,,,,0,0,2,,,68,96,1
89088,note_off,,,,,1024,0,2,,,67,0,1
89088,note_off,,,,,1024,0,1,,,71,0,0
89088,note_on,,,,,0,0,4,,,48,96,3
89088,note_off,,,,,512,0,4,,,50,0,3
89088,note_off,,,,,1024,0,3,,,64,0,2
89088,note_on,,,,,0,0,1,,,71,96,0
89600,note_off,,,,,512,0,4,,,48,0,3
89600,note_on,,,,,0,0,4,,,47,96,3
90112,note_on,,,,,0,0,3,,,64,96,2
90112,note_off,,,,,1024,0,1,,,71,0,0
90112,note_on,,,,,0,0,1,,,72,96,0
90112,note_off,,,,,1024,0,2,,,68,0,1
90112,note_on,,,,,0,0,2,,,69,96,1
90112,note_on,,,,,0,0,4,,,45,96,3
90112,note_off,,,,,512,0,4,,,47,0,3
90112,note_off,,,,,1024,0,3,,,64,0,2
92160,note_on,,,,,0,0,2,,,69,96,1
92160,note_on,,,,,0,0,4,,,45,96,3
92160,note_on,,,,,0,0,1,,,72,96,0
92160,note_off,,,,,2048,0,1,,,72,0,0
92160,note_off,,,,,2048,0,4,,,45,0,3
92160,note_on,,,,,0,0,3,,,64,96,2
92160,note_off,,,,,2048,0,3,,,64,0,2
92160,note_off,,,,,2048,0,2,,,69,0,1
93184,note_on,,,,,0,0,4,,,50,96,3
93184,note_off,,,,,1024,0,3,,,64,0,2
93184,note_off,,,,,1024,0,4,,,45,0,3
93184,note_off,,,,,1024,0,2,,,69,0,1
93184,note_on,,,,,0,0,2,,,69,96,1
93184,note_on,,,,,0,0,3,,,65,96,2
93184,note_off,,,,,1024,0,1,,,72,0,0
93184,note_on,,,,,0,0,1,,,71,96,0
94208,note_off,,,,,1024,0,3,,,65,0,2
94208,note_on,,,,,0,0,3,,,65,96,2
94208,note_off,,,,,1024,0,4,,,50,0,3
94208,note_on,,,,,0,0,1,,,71,96,0
94208,note_off,,,,,1024,0,1,,,71,0,0
94208,note_on,,,,,0,0,4,,,52,96,3
94208,note_on,,,,,0,0,2,,,69,96,1
94208,note_off,,,,,1024,0,2,,,69,0,1
94720,note_on,,,,,0,0,4,,,53,96,3
94720,note_off,,,,,512,0,4,,,52,0,3
95232,note_on,,,,,0,0,3,,,64,96,2
95232,note_off,,,,,512,0,4,,,53,0,3
95232,note_on,,,,,0,0,4,,,55,96,3
95232,note_off,,,,,1024,0,3,,,65,0,2
95232,note_on,,,,,0,0,1,,,71,96,0
95232,note_off,,,,,1024,0,2,,,69,0,1
95232,note_on,,,,,0,0,2,,,67,96,1
95232,note_off,,,,,1024,0,1,,,71,0,0
95744,note_off,,,,,512,0,3,,,64,0,2
95744,note_on,,,,,0,0,3,,,65,96,2
95744,note_off,,,,,512,0,4,,,55,0,3
95744,note_on,,,,,0,0,4,,,57,96,3
96256,note_off,,,,,1024,0,2,,,67,0,1
96256,note_on,,,,,0,0,2,,,62,96,1
96256,note_on,,,,,0,0,4,,,55,96,3
96256,note_off,,,,,512,0,4,,,57,0,3
96256,note_on,,,,,0,0,3,,,67,96,2
96256,note_off,,,,,512,0,3,,,65,0,2
96256,note_on,,,,,0,0,1,,,71,96,0
96256,note_off,,,,,1024,0,1,,,71,0,0
96768,note_on,,,,,0,0,4,,,53,96,3
96768,note_off,,,,,512,0,4,,,55,0,3
97280,note_on,,,,,0,0,3,,,65,96,2
97280,note_on,,,,,0,0,4,,,52,96,3
97280,note_off,,,,,512,0,4,,,53,0,3
97280,note_on,,,,,0,0,2,,,67,96,1
97280,note_off,,,,,1024,0,2,,,62,0,1
97280,note_off,,,,,1024,0,1,,,71,0,0
97280,note_on,,,,,0,0,1,,,71,96,0
97280,note_off,,,,,1024,0,3,,,67,0,2
97792,note_off,,,,,512,0,4,,,52,0,3
97792,note_on,,,,,0,0,4,,,50,96,3
98304,note_off,,,,,512,0,4,,,50,0,3
98304,note_on,,,,,0,0,4,,,48,96,3
98304,note_off,,,,,1024,0,1,,,71,0,0
98304,note_on,,,,,0,0,2,,,67,96,1
98304,note_off,,,,,1024,0,2,,,67,0,1
98304,note_on,,,,,0,0,1,,,72,96,0
99328,note_on,,,,,0,0,3,,,64,96,2
99328,note_off,,,,,2048,0,3,,,65,0,2
99840,note_on,,,,,0,0,3,,,62,96,2
99840,note_off,,,,,512,0,3,,,64,0,2
100352,note_on,,,,,0,0,4,,,48,96,3
100352,note_off,,,,,2048,0,4,,,48,0,3
100352,note_on,,,,,0,0,1,,,72,96,0
100352,note_off,,,,,2048,0,2,,,67,0,1
100352,note_on,,,,,0,0,2,,,67,96,1
100352,note_off,,,,,512,0,3,,,62,0,2
100352,note_off,,,,,2048,0,1,,,72,0,0
100352,note_on,,,,,0,0,3,,,64,96,2
101376,note_on,,,,,0,0,3,,,60,96,2
101376,note_off,,,,,1024,0,3,,,64,0,2
101376,note_on,,,,,0,0,4,,,48,96,3
101376,note_off,,,,,1024,0,4,,,48,0,3
101376,note_on,,,,,0,0,2,,,67,96,1
101376,note_off,,,,,1024,0,2,,,67,0,1
101376,note_off,,,,,1024,0,1,,,72,0,0
101376,note_on,,,,,0,0,1,,,76,96,0
102400,note_on,,,,,0,0,4,,,60,96,3
102400,note_on,,,,,0,0,3,,,60,96,2
102400,note_off,,,,,1024,0,1,,,76,0,0
102400,note_off,,,,,1024,0,4,,,48,0,3
102400,note_off,,,,,1024,0,3,,,60,0,2
102400,note_on,,,,,0,0,1,,,76,96,0
102400,time_signature,3,4,24,8,102400,1,0,,,,,
102400,note_on,,,,,0,0,2,,,67,96,1
102400,note_off,,,,,1024,0,2,,,67,0,1
103424,note_off,,,,,1024,0,3,,,60,0,2
103424,note_on,,,,,0,0,1,,,74,96,0
103424,note_off,,,,,1024,0,1,,,76,0,0
103424,note_off,,,,,1024,0,4,,,60,0,3
103424,note_on,,,,,0,0,3,,,62,96,2
103424,note_on,,,,,0,0,4,,,59,96,3
104448,note_on,,,,,0,0,3,,,64,96,2
104448,note_off,,,,,1024,0,3,,,62,0,2
104448,note_off,,,,,2048,0,2,,,67,0,1
104448,note_on,,,,,0,0,2,,,67,96,1
104448,note_on,,,,,0,0,4,,,57,96,3
104448,note_off,,,,,1024,0,1,,,74,0,0
104448,note_on,,,,,0,0,1,,,72,96,0
104448,note_off,,,,,1024,0,4,,,59,0,3
105472,note_on,,,,,0,0,3,,,62,96,2
105472,note_off,,,,,1024,0,3,,,64,0,2
105472,note_off,,,,,1024,0,1,,,72,0,0
105472,note_on,,,,,0,0,4,,,59,96,3
105472,note_on,,,,,0,0,2,,,67,96,1
105472,note_off,,,,,1024,0,4,,,57,0,3
105472,note_on,,,,,0,0,1,,,74,96,0
105472,note_off,,,,,1024,0,2,,,67,0,1
106496,note_off,,,,,1024,0,4,,,59,0,3
106496,note_on,,,,,0,0,4,,,57,96,3
106496,note_on,,,,,0,0,2,,,69,96,1
106496,note_off,,,,,1024,0,2,,,67,0,1
107520,note_on,,,,,0,0,2,,,71,96,1
107520,note_off,,,,,1024,0,2,,,69,0,1
107520,note_off,,,,,1024,0,4,,,57,0,3
107520,note_on,,,,,0,0,3,,,67,96,2
107520,note_off,,,,,2048,0,1,,,74,0,0
107520,note_on,,,,,0,0,1,,,76,96,0
107520,note_off,,,,,2048,0,3,,,62,0,2
107520,note_on,,,,,0,0,4,,,55,96,3
108544,note_off,,,,,1024,0,1,,,76,0,0
108544,note_on,,,,,0,0,1,,,77,96,0
108544,note_off,,,,,1024,0,4,,,55,0,3
108544,note_off,,,,,1024,0,3,,,67,0,2
108544,note_on,,,,,0,0,2,,,72,96,1
108544,note_off,,,,,1024,0,2,,,71,0,1
108544,note_on,,,,,0,0,3,,,60,96,2
108544,note_on,,,,,0,0,4,,,57,96,3
109568,note_on,,,,,0,0,2,,,71,96,1
109568,note_off,,,,,1024,0,2,,,72,0,1
110592,note_off,,,,,1024,0,2,,,71,0,1
110592,note_on,,,,,0,0,2,,,69,96,1
110592,note_off,,,,,2048,0,4,,,57,0,3
110592,note_on,,,,,0,0,4,,,59,96,3
110592,note_off,,,,,2048,0,3,,,60,0,2
110592,note_on,,,,,0,0,3,,,62,96,2
111616,note_off,,,,,1024,0,2,,,69,0,1
111616,note_on,,,,,0,0,3,,,64,96,2
111616,note_off,,,,,1024,0,3,,,62,0,2
111616,note_on,,,,,0,0,1,,,76,96,0
111616,note_off,,,,,3072,0,1,,,77,0,0
111616,note_off,,,,,1024,0,4,,,59,0,3
111616,note_on,,,,,0,0,4,,,60,96,3
111616,note_on,,,,,0,0,2,,,67,96,1
113664,note_off,,,,,2048,0,2,,,67,0,1
113664,note_on,,,,,0,0,3,,,67,96,2
113664,note_off,,,,,2048,0,3,,,64,0,2
113664,note_on,,,,,0,0,2,,,72,96,1
113664,note_off,,,,,2048,0,1,,,76,0,0
113664,note_off,,,,,2048,0,4,,,60,0,3
113664,note_on,,,,,0,0,1,,,76,96,0
113664,note_on,,,,,0,0,4,,,48,96,3
114688,note_off,,,,,1024,0,4,,,48,0,3
114688,note_on,,,,,0,0,2,,,71,96,1
114688,note_on,,,,,0,0,1,,,74,96,0
114688,note_off,,,,,1024,0,1,,,76,0,0
114688,note_on,,,,,0,0,3,,,67,96,2
114688,note_on,,,,,0,0,4,,,55,96,3
114688,note_off,,,,,1024,0,3,,,67,0,2
114688,note_off,,,,,1024,0,2,,,72,0,1
115712,note_on,,,,,0,0,4,,,57,96,3
115712,note_on,,,,,0,0,2,,,69,96,1
115712,note_off,,,,,1024,0,2,,,71,0,1
115712,note_off,,,,,1024,0,3,,,67,0,2
115712,note_off,,,,,1024,0,4,,,55,0,3
115712,note_on,,,,,0,0,3,,,65,96,2
116736,note_on,,,,,0,0,3,,,64,96,2
116736,note_on,,,,,0,0,1,,,74,96,0
116736,note_on,,,,,0,0,4,,,58,96,3
116736,note_on,,,,,0,0,2,,,67,96,1
116736,note_off,,,,,2048,0,1,,,74,0,0
116736,note_off,,,,,1024,0,4,,,57,0,3
116736,note_off,,,,,1024,0,3,,,65,0,2
116736,note_off,,,,,1024,0,2,,,69,0,1
117760,note_off,,,,,1024,0,3,,,64,0,2
117760,note_on,,,,,0,0,3,,,65,96,2
117760,note_off,,,,,1024,0,2,,,67,0,1
117760,note_off,,,,,1024,0,4,,,58,0,3
117760,note_on,,,,,0,0,2,,,69,96,1
117760,note_on,,,,,0,0,1,,,73,96,0
117760,note_off,,,,,1024,0,1,,,74,0,0
117760,note_on,,,,,0,0,4,,,57,96,3
118784,note_off,,,,,1024,0,4,,,57,0,3
118784,note_on,,,,,0,0,4,,,55,96,3
118784,note_off,,,,,1024,0,2,,,69,0,1
118784,note_on,,,,,0,0,2,,,70,96,1
118784,note_on,,,,,0,0,3,,,64,96,2
118784,note_off,,,,,1024,0,3,,,65,0,2
119808,note_on,,,,,0,0,2,,,67,96,1
119808,note_off,,,,,1024,0,4,,,55,0,3
119808,note_on,,,,,0,0,4,,,57,96,3
119808,note_off,,,,,1024,0,2,,,70,0,1
119808,note_off,,,,,2048,0,1,,,73,0,0
119808,note_on,,,,,0,0,1,,,73,96,0
120832,note_on,,,,,0,0,2,,,65,96,1
120832,note_on,,,,,0,0,3,,,62,96,2
120832,note_on,,,,,0,0,4,,,58,96,3
120832,note_off,,,,,1024,0,1,,,73,0,0
120832,note_on,,,,,0,0,1,,,74,96,0
120832,note_off,,,,,1024,0,2,,,67,0,1
120832,note_off,,,,,1024,0,4,,,57,0,3
120832,note_off,,,,,2048,0,3,,,64,0,2
121856,note_off,,,,,1024,0,4,,,58,0,3
121856,note_on,,,,,0,0,4,,,57,96,3
122880,note_off,,,,,2048,0,2,,,65,0,1
122880,note_on,,,,,0,0,2,,,70,96,1
122880,note_on,,,,,0,0,4,,,55,96,3
122880,note_off,,,,,1024,0,4,,,57,0,3
122880,note_off,,,,,2048,0,3,,,62,0,2
122880,note_on,,,,,0,0,3,,,64,96,2
123904,note_on,,,,,0,0,2,,,69,96,1
123904,note_on,,,,,0,0,4,,,50,96,3
123904,note_off,,,,,1024,0,4,,,55,0,3
123904,note_off,,,,,1024,0,3,,,64,0,2
123904,note_off,,,,,1024,0,2,,,70,0,1
123904,note_on,,,,,0,0,3,,,65,96,2
125952,note_off,,,,,2048,0,3,,,65,0,2
125952,note_off,,,,,5120,0,1,,,74,0,0
125952,note_on,,,,,0,0,4,,,57,96,3
125952,note_on,,,,,0,0,3,,,60,96,2
125952,note_on,,,,,0,0,2,,,69,96,1
125952,note_off,,,,,2048,0,2,,,69,0,1
125952,note_on,,,,,0,0,1,,,76,96,0
125952,note_on,,,,,45056,0,7,,,60,96,6
125952,note_off,,,,,2048,0,4,,,50,0,3
126976,note_on,,,,,0,0,7,,,64,96,6
126976,note_off,,,,,1024,0,7,,,60,0,6
126976,note_off,,,,,1024,0,1,,,76,0,0
126976,note_on,,,,,0,0,4,,,56,96,3
126976,note_off,,,,,1024,0,2,,,69,0,1
126976,note_on,,,,,0,0,2,,,71,96,1
126976,note_off,,,,,1024,0,3,,,60,0,2
126976,note_on,,,,,0,0,3,,,59,96,2
126976,note_off,,,,,1024,0,4,,,57,0,3
126976,note_on,,,,,0,0,1,,,76,96,0
128000,note_off,,,,,1024,0,3,,,59,0,2
128000,note_on,,,,,0,0,3,,,64,96,2
128000,note_off,,,,,1024,0,1,,,76,0,0
128000,note_on,,,,,0,0,1,,,74,96,0
129024,note_off,,,,,2048,0,7,,,64,0,6
129024,note_on,,,,,0,0,7,,,69,96,6
129024,note_off,,,,,2048,0,4,,,56,0,3
129024,note_on,,,,,0,0,4,,,57,96,3
129024,note_off,,,,,2048,0,2,,,71,0,1
129024,note_on,,,,,0,0,2,,,69,96,1
129024,note_off,,,,,1024,0,1,,,74,0,0
129024,note_on,,,,,0,0,1,,,72,96,0
130048,note_off,,,,,2048,0,3,,,64,0,2
130048,note_on,,,,,0,0,3,,,57,96,2
130048,note_on,,,,,0,0,2,,,69,96,1
130048,note_off,,,,,1024,0,2,,,69,0,1
130048,note_on,,,,,0,0,1,,,74,96,0
130048,note_off,,,,,1024,0,4,,,57,0,3
130048,note_on,,,,,0,0,7,,,65,96,6
130048,note_off,,,,,1024,0,7,,,69,0,6
130048,note_off,,,,,1024,0,1,,,72,0,0
130048,note_on,,,,,0,0,4,,,53,96,3
131072,note_on,,,,,0,0,3,,,59,96,2
131072,note_off,,,,,1024,0,3,,,57,0,2
132096,note_off,,,,,2048,0,7,,,65,0,6
132096,note_off,,,,,2048,0,1,,,74,0,0
132096,note_off,,,,,2048,0,2,,,69,0,1
132096,note_on,,,,,0,0,1,,,76,96,0
132096,note_off,,,,,2048,0,4,,,53,0,3
132096,note_on,,,,,0,0,7,,,60,96,6
132096,note_on,,,,,0,0,2,,,67,96,1
132096,note_on,,,,,0,0,4,,,52,96,3
132096,note_off,,,,,1024,0,3,,,59,0,2
132096,note_on,,,,,0,0,3,,,60,96,2
133120,note_off,,,,,1024,0,2,,,67,0,1
133120,note_on,,,,,0,0,1,,,77,96,0
133120,note_off,,,,,1024,0,4,,,52,0,3
133120,note_on,,,,,0,0,4,,,50,96,3
133120,note_on,,,,,0,0,2,,,69,96,1
133120,note_on,,,,,0,0,7,,,65,96,6
133120,note_off,,,,,1024,0,7,,,60,0,6
133120,note_off,,,,,1024,0,1,,,76,0,0
133632,note_on,,,,,0,0,7,,,69,96,6
133632,note_off,,,,,512,0,7,,,65,0,6
134144,note_off,,,,,512,0,7,,,69,0,6
134144,note_on,,,,,0,0,3,,,59,96,2
134144,note_off,,,,,2048,0,3,,,60,0,2
134144,note_on,,,,,0,0,7,,,71,96,6
134656,note_off,,,,,512,0,3,,,59,0,2
134656,note_on,,,,,0,0,3,,,57,96,2
134656,note_on,,,,,0,0,7,,,72,96,6
134656,note_off,,,,,512,0,7,,,71,0,6
135168,note_off,,,,,512,0,7,,,72,0,6
135168,note_on,,,,,0,0,7,,,71,96,6
135168,note_off,,,,,512,0,3,,,57,0,2
135168,note_on,,,,,0,0,3,,,59,96,2
135168,note_on,,,,,0,0,4,,,55,96,3
135168,note_off,,,,,2048,0,4,,,50,0,3
135168,note_off,,,,,2048,0,2,,,69,0,1
135168,note_on,,,,,0,0,2,,,67,96,1
135680,note_on,,,,,0,0,7,,,62,96,6
135680,note_off,,,,,512,0,7,,,71,0,6
136192,note_off,,,,,1024,0,4,,,55,0,3
136192,note_off,,,,,512,0,7,,,62,0,6
136192,note_on,,,,,0,0,1,,,76,96,0
136192,note_on,,,,,0,0,2,,,67,96,1
136192,note_off,,,,,1024,0,2,,,67,0,1
136192,note_on,,,,,0,0,3,,,60,96,2
136192,note_off,,,,,1024,0,3,,,59,0,2
136192,note_on,,,,,0,0,4,,,48,96,3
136192,note_off,,,,,3072,0,1,,,77,0,0
136192,note_on,,,,,0,0,7,,,60,96,6
138240,note_off,,,,,2048,0,2,,,67,0,1
138240,note_on,,,,,0,0,2,,,67,96,1
138240,note_on,,,,,0,0,4,,,49,96,3
138240,note_on,,,,,0,0,7,,,64,96,6
138240,note_off,,,,,2048,0,4,,,48,0,3
138240,note_on,,,,,0,0,1,,,76,96,0
138240,note_off,,,,,2048,0,1,,,76,0,0
138240,note_on,,,,,0,0,3,,,57,96,2
138240,note_off,,,,,2048,0,3,,,60,0,2
138240,note_off,,,,,2048,0,7,,,60,0,6
139264,note_on,,,,,0,0,4,,,50,96,3
139264,note_off,,,,,1024,0,7,,,64,0,6
139264,note_on,,,,,0,0,7,,,69,96,6
139264,note_on,,,,,0,0,1,,,74,96,0
139264,note_off,,,,,1024,0,1,,,76,0,0
139264,note_on,,,,,0,0,2,,,65,96,1
139264,note_off,,,,,1024,0,2,,,67,0,1
139264,note_on,,,,,0,0,3,,,57,96,2
139264,note_off,,,,,1024,0,3,,,57,0,2
139264,note_off,,,,,1024,0,4,,,49,0,3
140288,note_off,,,,,1024,0,2,,,65,0,1
140288,note_on,,,,,0,0,4,,,52,96,3
140288,note_on,,,,,0,0,2,,,67,96,1
140288,note_off,,,,,1024,0,4,,,50,0,3
141312,note_off,,,,,1024,0,2,,,67,0,1
141312,note_on,,,,,0,0,2,,,69,96,1
141312,note_off,,,,,2048,0,3,,,57,0,2
141312,note_off,,,,,1024,0,4,,,52,0,3
141312,note_on,,,,,0,0,1,,,74,96,0
141312,note_off,,,,,2048,0,7,,,69,0,6
141312,note_on,,,,,0,0,7,,,62,96,6
141312,note_off,,,,,2048,0,1,,,74,0,0
141312,note_on,,,,,0,0,4,,,53,96,3
141312,note_on,,,,,0,0,3,,,62,96,2
142336,note_off,,,,,1024,0,1,,,74,0,0
142336,note_on,,,,,0,0,2,,,67,96,1
142336,note_off,,,,,1024,0,2,,,69,0,1
142336,note_off,,,,,1024,0,7,,,62,0,6
142336,note_on,,,,,0,0,7,,,64,96,6
142336,note_on,,,,,0,0,1,,,73,96,0
142336,note_off,,,,,1024,0,3,,,62,0,2
142336,note_off,,,,,1024,0,4,,,53,0,3
142336,note_on,,,,,0,0,4,,,52,96,3
142336,note_on,,,,,0,0,3,,,64,96,2
143360,note_on,,,,,0,0,2,,,69,96,1
143360,note_off,,,,,1024,0,4,,,52,0,3
143360,note_off,,,,,1024,0,2,,,67,0,1
143360,note_on,,,,,0,0,4,,,53,96,3
144384,note_on,,,,,0,0,4,,,55,96,3
144384,note_off,,,,,1024,0,2,,,69,0,1
144384,note_off,,,,,2048,0,3,,,64,0,2
144384,note_on,,,,,0,0,3,,,64,96,2
144384,note_off,,,,,2048,0,1,,,73,0,0
144384,note_on,,,,,0,0,1,,,73,96,0
144384,note_on,,,,,0,0,7,,,64,96,6
144384,note_off,,,,,2048,0,7,,,64,0,6
144384,note_off,,,,,1024,0,4,,,53,0,3
144384,note_on,,,,,0,0,2,,,70,96,1
145408,note_off,,,,,1024,0,3,,,64,0,2
145408,note_off,,,,,1024,0,7,,,64,0,6
145408,note_on,,,,,0,0,2,,,69,96,1
145408,note_on,,,,,0,0,3,,,57,96,2
145408,note_on,,,,,0,0,7,,,62,96,6
145408,note_on,,,,,0,0,1,,,74,96,0
145408,note_off,,,,,1024,0,4,,,55,0,3
145408,note_on,,,,,0,0,4,,,54,96,3
145408,note_off,,,,,1024,0,1,,,73,0,0
145408,note_off,,,,,1024,0,2,,,70,0,1
146432,note_off,,,,,1024,0,4,,,54,0,3
146432,note_on,,,,,0,0,3,,,62,96,2
146432,note_on,,,,,0,0,4,,,55,96,3
146432,note_off,,,,,1024,0,7,,,62,0,6
146432,note_on,,,,,0,0,7,,,67,96,6
146432,note_off,,,,,1024,0,2,,,69,0,1
146432,note_on,,,,,0,0,2,,,70,96,1
146432,note_off,,,,,1024,0,3,,,57,0,2
147456,note_off,,,,,1024,0,3,,,62,0,2
147456,note_on,,,,,0,0,3,,,58,96,2
147456,note_off,,,,,1024,0,4,,,55,0,3
147456,note_off,,,,,1024,0,7,,,67,0,6
147456,note_on,,,,,0,0,7,,,70,96,6
147456,note_off,,,,,1024,0,2,,,70,0,1
147456,note_on,,,,,0,0,2,,,67,96,1
147456,note_on,,,,,0,0,4,,,43,96,3
148480,note_off,,,,,1024,0,2,,,67,0,1
148480,note_on,,,,,0,0,2,,,66,96,1
148480,note_on,,,,,0,0,4,,,50,96,3
148480,note_on,,,,,0,0,3,,,57,96,2
148480,note_on,,,,,0,0,7,,,69,96,6
148480,note_off,,,,,1024,0,7,,,70,0,6
148480,note_off,,,,,1024,0,4,,,43,0,3
148480,note_off,,,,,1024,0,3,,,58,0,2
150528,note_off,,,,,2048,0,4,,,50,0,3
150528,note_on,,,,,0,0,7,,,60,96,6
150528,note_off,,,,,2048,0,7,,,69,0,6
150528,note_on,,,,,0,0,1,,,76,96,0
150528,note_off,,,,,5120,0,1,,,74,0,0
150528,note_off,,,,,2048,0,3,,,57,0,2
150528,note_on,,,,,0,0,3,,,60,96,2
150528,note_on,,,,,0,0,4,,,45,96,3
150528,note_off,,,,,2048,0,2,,,66,0,1
150528,note_on,,,,,0,0,2,,,69,96,1
151040,note_on,,,,,0,0,4,,,47,96,3
151040,note_off,,,,,512,0,4,,,45,0,3
151552,time_signature,4,4,24,8,49152,1,0,,,,,
151552,note_off,,,,,1024,0,1,,,76,0,0
151552,note_on,,,,,0,0,1,,,76,96,0
151552,note_on,,,,,0,0,4,,,48,96,3
151552,note_off,,,,,1024,0,7,,,60,0,6
151552,note_on,,,,,0,0,7,,,60,96,6
151552,note_off,,,,,512,0,4,,,47,0,3
151552,note_on,,,,,0,0,2,,,67,96,1
151552,note_on,,,,,0,0,3,,,60,96,2
151552,note_off,,,,,1024,0,3,,,60,0,2
151552,note_off,,,,,1024,0,2,,,69,0,1
152064,note_off,,,,,512,0,4,,,48,0,3
152064,note_on,,,,,0,0,4,,,50,96,3
152576,note_off,,,,,1024,0,2,,,67,0,1
152576,note_on,,,,,0,0,2,,,67,96,1
152576,note_on,,,,,0,0,1,,,72,96,0
152576,note_on,,,,,0,0,3,,,60,96,2
152576,note_off,,,,,1024,0,3,,,60,0,2
152576,note_on,,,,,0,0,7,,,60,96,6
152576,note_off,,,,,1024,0,7,,,60,0,6
152576,note_off,,,,,512,0,4,,,50,0,3
152576,note_on,,,,,0,0,4,,,52,96,3
152576,note_off,,,,,1024,0,1,,,76,0,0
153088,note_on,,,,,0,0,4,,,48,96,3
153088,note_off,,,,,512,0,7,,,60,0,6
153088,note_on,,,,,0,0,7,,,67,96,6
153088,note_off,,,,,512,0,4,,,52,0,3
153600,note_on,,,,,0,0,3,,,59,96,2
153600,note_off,,,,,512,0,4,,,48,0,3
153600,note_on,,,,,0,0,4,,,53,96,3
153600,note_off,,,,,512,0,7,,,67,0,6
153600,note_on,,,,,0,0,7,,,71,96,6
153600,note_off,,,,,1024,0,3,,,60,0,2
153600,note_on,,,,,0,0,1,,,74,96,0
153600,note_off,,,,,1024,0,1,,,72,0,0
153600,note_off,,,,,1024,0,2,,,67,0,1
153600,note_on,,,,,0,0,2,,,67,96,1
154112,note_off,,,,,512,0,4,,,53,0,3
154112,note_on,,,,,0,0,4,,,55,96,3
154112,note_off,,,,,512,0,7,,,71,0,6
154112,note_on,,,,,0,0,7,,,67,96,6
154624,note_off,,,,,512,0,4,,,55,0,3
154624,note_on,,,,,0,0,4,,,53,96,3
154624,note_on,,,,,0,0,3,,,60,96,2
154624,note_on,,,,,0,0,2,,,67,96,1
154624,note_off,,,,,1024,0,2,,,67,0,1
154624,note_off,,,,,1024,0,3,,,59,0,2
154624,note_on,,,,,0,0,7,,,72,96,6
154624,note_off,,,,,1024,0,1,,,74,0,0
154624,note_on,,,,,0,0,1,,,76,96,0
154624,note_off,,,,,512,0,7,,,67,0,6
155136,note_off,,,,,512,0,4,,,53,0,3
155136,note_on,,,,,0,0,4,,,52,96,3
155648,note_off,,,,,1024,0,7,,,72,0,6
155648,note_off,,,,,1024,0,2,,,67,0,1
155648,note_on,,,,,0,0,2,,,69,96,1
155648,note_on,,,,,0,0,3,,,60,96,2
155648,note_off,,,,,1024,0,3,,,60,0,2
155648,note_on,,,,,0,0,1,,,77,96,0
155648,note_off,,,,,1024,0,1,,,76,0,0
155648,note_off,,,,,512,0,4,,,52,0,3
155648,note_on,,,,,0,0,4,,,50,96,3
156160,note_off,,,,,512,0,4,,,50,0,3
156160,note_on,,,,,0,0,3,,,64,96,2
156160,note_off,,,,,512,0,3,,,60,0,2
156160,note_on,,,,,0,0,4,,,52,96,3
156672,note_on,,,,,0,0,4,,,53,96,3
156672,note_on,,,,,0,0,3,,,62,96,2
156672,note_off,,,,,512,0,3,,,64,0,2
156672,note_off,,,,,512,0,4,,,52,0,3
157184,note_on,,,,,0,0,3,,,60,96,2
157184,note_off,,,,,512,0,3,,,62,0,2
157184,note_off,,,,,512,0,4,,,53,0,3
157184,note_on,,,,,0,0,4,,,50,96,3
157696,note_on,,,,,0,0,4,,,55,96,3
157696,note_off,,,,,2048,0,2,,,69,0,1
157696,note_off,,,,,2048,0,1,,,77,0,0
157696,note_on,,,,,0,0,1,,,74,96,0
157696,note_on,,,,,0,0,2,,,67,96,1
157696,note_off,,,,,512,0,4,,,50,0,3
157696,note_on,,,,,0,0,3,,,59,96,2
157696,note_off,,,,,512,0,3,,,60,0,2
158208,note_off,,,,,512,0,4,,,55,0,3
158208,note_on,,,,,0,0,4,,,57,96,3
158720,note_on,,,,,0,0,3,,,59,96,2
158720,note_off,,,,,1024,0,3,,,59,0,2
158720,note_off,,,,,1024,0,1,,,74,0,0
158720,note_on,,,,,0,0,1,,,74,96,0
158720,note_off,,,,,512,0,4,,,57,0,3
158720,note_on,,,,,0,0,4,,,55,96,3
158720,note_on,,,,,0,0,2,,,67,96,1
158720,note_off,,,,,1024,0,2,,,67,0,1
159232,note_on,,,,,0,0,4,,,53,96,3
159232,note_off,,,,,512,0,4,,,55,0,3
159744,note_on,,,,,0,0,3,,,59,96,2
159744,note_off,,,,,512,0,4,,,53,0,3
159744,note_on,,,,,0,0,4,,,52,96,3
159744,note_off,,,,,1024,0,2,,,67,0,1
159744,note_on,,,,,0,0,2,,,67,96,1
159744,note_on,,,,,0,0,1,,,74,96,0
159744,note_off,,,,,1024,0,1,,,74,0,0
159744,note_off,,,,,1024,0,3,,,59,0,2
160256,note_off,,,,,512,0,4,,,52,0,3
160256,note_on,,,,,0,0,4,,,50,96,3
160768,note_off,,,,,1024,0,2,,,67,0,1
160768,note_on,,,,,0,0,2,,,67,96,1
160768,note_off,,,,,1024,0,3,,,59,0,2
160768,note_on,,,,,0,0,3,,,60,96,2
160768,note_off,,,,,512,0,4,,,50,0,3
160768,note_on,,,,,0,0,4,,,52,96,3
160768,note_on,,,,,0,0,1,,,72,96,0
160768,note_off,,,,,1024,0,1,,,74,0,0
161280,note_off,,,,,512,0,4,,,52,0,3
161280,note_on,,,,,0,0,4,,,53,96,3
161280,note_off,,,,,512,0,3,,,60,0,2
161280,note_on,,,,,0,0,3,,,62,96,2
161792,note_off,,,,,1024,0,2,,,67,0,1
161792,note_off,,,,,512,0,4,,,53,0,3
161792,note_on,,,,,0,0,4,,,55,96,3
161792,note_on,,,,,0,0,1,,,72,96,0
161792,note_off,,,,,1024,0,1,,,72,0,0
161792,note_on,,,,,0,0,3,,,64,96,2
161792,note_off,,,,,512,0,3,,,62,0,2
161792,note_on,,,,,0,0,2,,,67,96,1
162304,note_off,,,,,512,0,4,,,55,0,3
162304,note_on,,,,,0,0,2,,,69,96,1
162304,note_off,,,,,512,0,2,,,67,0,1
162304,note_on,,,,,0,0,4,,,53,96,3
162816,note_off,,,,,512,0,4,,,53,0,3
162816,note_off,,,,,512,0,2,,,69,0,1
162816,note_on,,,,,0,0,2,,,67,96,1
162816,note_off,,,,,1024,0,3,,,64,0,2
162816,note_on,,,,,0,0,3,,,62,96,2
162816,note_off,,,,,1024,0,1,,,72,0,0
162816,note_on,,,,,0,0,1,,,71,96,0
162816,note_on,,,,,0,0,4,,,55,96,3
163328,note_off,,,,,512,0,3,,,62,0,2
163328,note_on,,,,,0,0,3,,,55,96,2
163328,note_off,,,,,512,0,4,,,55,0,3
163328,note_on,,,,,0,0,4,,,43,96,3
163328,note_off,,,,,512,0,2,,,67,0,1
163328,note_on,,,,,0,0,2,,,65,96,1
163840,note_on,,,,,0,0,4,,,36,96,3
163840,note_on,,,,,0,0,4,,,48,96,3
163840,note_on,,,,,0,0,1,,,72,96,0
163840,note_off,,,,,1024,0,1,,,71,0,0
163840,note_on,,,,,78848,0,5,,,79,96,4
163840,note_off,,,,,512,0,4,,,43,0,3
163840,note_off,,,,,512,0,3,,,55,0,2
163840,note_off,,,,,512,0,2,,,65,0,1
163840,note_on,,,,,0,0,3,,,55,96,2
163840,note_on,,,,,78848,0,8,,,48,96,7
163840,note_on,,,,,0,0,2,,,64,96,1
163840,note_on,,,,,78848,0,6,,,76,96,5
163840,note_on,,,,,0,0,6,,,72,96,5
164352,note_off,,,,,512,0,5,,,79,0,4
164352,note_on,,,,,0,0,5,,,81,96,4
164352,note_off,,,,,512,0,6,,,76,0,5
164352,note_on,,,,,0,0,6,,,77,96,5
164864,note_off,,,,,512,0,6,,,72,0,5
164864,note_off,,,,,1024,0,8,,,48,0,7
165376,note_off,,,,,512,0,6,,,77,0,5
165376,note_on,,,,,0,0,6,,,76,96,5
165376,note_on,,,,,0,0,5,,,79,96,4
165376,note_off,,,,,1024,0,5,,,81,0,4
165632,note_off,,,,,256,0,6,,,76,0,5
165632,note_on,,,,,0,0,6,,,74,96,5
165632,note_off,,,,,256,0,5,,,79,0,4
165632,note_on,,,,,0,0,5,,,77,96,4
165888,note_off,,,,,256,0,5,,,77,0,4
165888,note_off,,,,,256,0,6,,,74,0,5
165888,note_on,,,,,0,0,6,,,76,96,5
165888,note_on,,,,,0,0,5,,,79,96,4
166400,note_on,,,,,0,0,5,,,67,96,4
166400,note_on,,,,,0,0,6,,,64,96,5
166400,note_on,,,,,1536,0,8,,,48,96,7
166400,note_off,,,,,512,0,6,,,76,0,5
166400,note_off,,,,,512,0,5,,,79,0,4
166400,note_on,,,,,0,0,6,,,60,96,5
166656,note_off,,,,,0,0,6,,,60,0,5
166656,note_off,,,,,256,0,5,,,67,0,4
166656,note_on,,,,,0,0,5,,,67,96,4
166656,note_on,,,,,0,0,8,,,48,96,7
166656,note_off,,,,,256,0,8,,,48,0,7
166656,note_on,,,,,0,0,6,,,64,96,5
166656,note_off,,,,,256,0,6,,,64,0,5
166656,note_on,,,,,0,0,6,,,60,96,5
166912,note_off,,,,,256,0,8,,,48,0,7
166912,note_on,,,,,0,0,8,,,48,96,7
166912,note_off,,,,,0,0,4,,,48,0,3
166912,note_on,,,,,0,0,6,,,67,96,5
166912,note_off,,,,,0,0,6,,,60,0,5
166912,note_on,,,,,0,0,6,,,64,96,5
166912,note_off,,,,,256,0,6,,,64,0,5
166912,note_off,,,,,256,0,5,,,67,0,4
166912,note_off,,,,,3072,0,4,,,36,0,3
166912,note_off,,,,,3072,0,2,,,64,0,1
166912,note_off,,,,,3072,0,1,,,72,0,0
166912,note_on,,,,,0,0,5,,,72,96,4
166912,note_off,,,,,3072,0,3,,,55,0,2
167168,note_on,,,,,0,0,5,,,72,96,4
167168,note_on,,,,,0,0,8,,,48,96,7
167168,note_off,,,,,256,0,8,,,48,0,7
167168,note_on,,,,,0,0,6,,,64,96,5
167168,note_off,,,,,0,0,6,,,64,0,5
167168,note_on,,,,,0,0,6,,,67,96,5
167168,note_off,,,,,256,0,5,,,72,0,4
167168,note_off,,,,,256,0,6,,,67,0,5
167424,note_on,,,,,0,0,6,,,67,96,5
167424,note_off,,,,,0,0,6,,,64,0,5
167424,note_on,,,,,0,0,6,,,72,96,5
167424,note_off,,,,,256,0,6,,,67,0,5
167424,note_on,,,,,0,0,5,,,76,96,4
167424,note_off,,,,,256,0,8,,,48,0,7
167424,note_on,,,,,0,0,8,,,48,96,7
167424,note_off,,,,,256,0,5,,,72,0,4
167680,note_on,,,,,0,0,6,,,72,96,5
167680,note_on,,,,,0,0,5,,,76,96,4
167680,note_off,,,,,256,0,5,,,76,0,4
167680,note_off,,,,,256,0,8,,,48,0,7
167680,note_on,,,,,0,0,8,,,48,96,7
167680,note_on,,,,,0,0,6,,,67,96,5
167680,note_off,,,,,0,0,6,,,67,0,5
167680,note_off,,,,,256,0,6,,,72,0,5
167936,note_on,,,,,0,0,5,,,79,96,4
167936,note_off,,,,,256,0,5,,,76,0,4
167936,note_on,,,,,0,0,6,,,76,96,5
167936,note_off,,,,,0,0,6,,,67,0,5
167936,note_on,,,,,0,0,6,,,72,96,5
167936,note_on,,,,,0,0,8,,,48,96,7
167936,note_off,,,,,256,0,8,,,48,0,7
167936,note_off,,,,,256,0,6,,,72,0,5
168448,note_on,,,,,0,0,8,,,48,96,7
168448,note_off,,,,,512,0,8,,,48,0,7
168448,note_on,,,,,0,0,5,,,81,96,4
168448,note_on,,,,,0,0,6,,,72,96,5
168448,note_off,,,,,0,0,6,,,72,0,5
168448,note_on,,,,,0,0,6,,,77,96,5
168448,note_off,,,,,512,0,6,,,76,0,5
168448,note_off,,,,,512,0,5,,,79,0,4
168704,note_on,,,,,0,0,6,,,72,96,5
168704,note_off,,,,,256,0,8,,,48,0,7
168704,note_on,,,,,0,0,8,,,48,96,7
168704,note_off,,,,,256,0,6,,,72,0,5
168960,note_off,,,,,256,0,6,,,72,0,5
168960,note_off,,,,,256,0,8,,,48,0,7
168960,note_on,,,,,0,0,8,,,48,96,7
168960,note_on,,,,,0,0,6,,,72,96,5
169216,note_on,,,,,0,0,8,,,48,96,7
169216,note_on,,,,,0,0,6,,,72,96,5
169216,note_off,,,,,256,0,6,,,72,0,5
169216,note_off,,,,,256,0,8,,,48,0,7
169472,note_on,,,,,0,0,5,,,79,96,4
169472,note_on,,,,,0,0,6,,,72,96,5
169472,note_off,,,,,0,0,6,,,72,0,5
169472,note_off,,,,,256,0,6,,,77,0,5
169472,note_on,,,,,0,0,6,,,76,96,5
169472,note_off,,,,,1024,0,5,,,81,0,4
169472,note_off,,,,,256,0,8,,,48,0,7
169472,note_on,,,,,0,0,8,,,48,96,7
169728,note_on,,,,,0,0,6,,,72,96,5
169728,note_off,,,,,0,0,6,,,72,0,5
169728,note_off,,,,,256,0,6,,,76,0,5
169728,note_on,,,,,0,0,5,,,77,96,4
169728,note_on,,,,,0,0,6,,,74,96,5
169728,note_on,,,,,0,0,8,,,48,96,7
169728,note_off,,,,,256,0,8,,,48,0,7
169728,note_off,,,,,256,0,5,,,79,0,4
169984,note_off,,,,,256,0,5,,,77,0,4
169984,note_on,,,,,0,0,6,,,72,96,5
169984,note_on,,,,,0,0,5,,,79,96,4
169984,note_on,,,,,0,0,8,,,48,96,7
169984,note_off,,,,,256,0,6,,,74,0,5
169984,note_on,,,,,0,0,6,,,76,96,5
169984,note_off,,,,,0,0,6,,,72,0,5
169984,note_off,,,,,256,0,8,,,48,0,7
172032,note_off,,,,,2048,0,8,,,48,0,7
172032,note_off,,,,,2048,0,6,,,76,0,5
172032,note_off,,,,,2048,0,5,,,79,0,4
172032,note_off,,,,,0,0,6,,,72,0,5
172033,end_of_track,,,,,5121,1,1,,,,,
172033,end_of_track,,,,,5121,1,2,,,,,
172033,end_of_track,,,,,1,1,5,,,,,
172033,end_of_track,,,,,5121,1,3,,,,,
172033,end_of_track,,,,,5121,1,4,,,,,
172033,end_of_track,,,,,1,1,6,,,,,
172033,end_of_track,,,,,16385,1,7,,,,,
172033,end_of_track,,,,,20481,1,0,,,,,
172033,end_of_track,,,,,1,1,8,,,,,
