tick,type,numerator,denominator,clocks_per_click,notated_32nd_notes_per_beat,time,meta,track,key,tempo,note,velocity,channel
0,time_signature,4,4,24,8,0,1,0,,,,,
0,key_signature,,,,,0,1,0,G,,,,
0,set_tempo,,,,,0,1,0,,625000,,,
0,track_name,,,,,0,1,5,,,,,
0,track_name,,,,,0,1,1,,,,,
0,track_name,,,,,0,1,2,,,,,
0,track_name,,,,,0,1,7,,,,,
0,track_name,,,,,0,1,4,,,,,
0,track_name,,,,,0,1,6,,,,,
0,track_name,,,,,0,1,3,,,,,
3072,note_on,,,,,3072,0,7,,,43,96,6
3072,note_on,,,,,3072,0,4,,,55,96,3
3072,note_on,,,,,3072,0,6,,,59,96,5
3072,note_on,,,,,3072,0,5,,,67,96,4
3072,note_on,,,,,3072,0,1,,,67,96,0
3072,note_on,,,,,3072,0,2,,,62,96,1
3072,note_on,,,,,3072,0,3,,,59,96,2
3584,note_off,,,,,512,0,4,,,55,0,3
3584,note_on,,,,,0,0,4,,,54,96,3
4096,note_off,,,,,1024,0,5,,,67,0,4
4096,note_on,,,,,0,0,3,,,60,96,2
4096,note_off,,,,,1024,0,2,,,62,0,1
4096,note_on,,,,,0,0,7,,,43,96,6
4096,note_off,,,,,1024,0,7,,,43,0,6
4096,note_off,,,,,512,0,4,,,54,0,3
4096,note_off,,,,,1024,0,3,,,59,0,2
4096,note_off,,,,,1024,0,6,,,59,0,5
4096,note_on,,,,,0,0,6,,,55,96,5
4096,note_on,,,,,0,0,5,,,67,96,4
4096,note_on,,,,,0,0,4,,,52,96,3
4096,note_on,,,,,0,0,2,,,64,96,1
4096,note_off,,,,,1024,0,1,,,67,0,0
4096,note_on,,,,,0,0,1,,,67,96,0
4608,note_on,,,,,0,0,4,,,54,96,3
4608,note_off,,,,,512,0,4,,,52,0,3
5120,note_on,,,,,0,0,7,,,43,96,6
5120,note_off,,,,,1024,0,7,,,43,0,6
5120,note_on,,,,,0,0,1,,,67,96,0
5120,note_on,,,,,0,0,5,,,67,96,4
5120,note_off,,,,,1024,0,5,,,67,0,4
5120,note_off,,,,,1024,0,3,,,60,0,2
5120,note_off,,,,,1024,0,1,,,67,0,0
5120,note_on,,,,,0,0,6,,,59,96,5
5120,note_on,,,,,0,0,2,,,62,96,1
5120,note_off,,,,,1024,0,2,,,64,0,1
5120,note_off,,,,,512,0,4,,,54,0,3
5120,note_on,,,,,0,0,4,,,55,96,3
5120,note_off,,,,,1024,0,6,,,55,0,5
5120,note_on,,,,,0,0,3,,,59,96,2
5632,note_off,,,,,512,0,2,,,62,0,1
5632,note_on,,,,,0,0,2,,,64,96,1
6144,note_on,,,,,0,0,3,,,57,96,2
6144,note_off,,,,,512,0,2,,,64,0,1
6144,note_on,,,,,0,0,2,,,66,96,1
6144,note_off,,,,,1024,0,1,,,67,0,0
6144,note_on,,,,,0,0,1,,,69,96,0
6144,note_on,,,,,0,0,7,,,50,96,6
6144,note_on,,,,,0,0,5,,,69,96,4
6144,note_off,,,,,1024,0,5,,,67,0,4
6144,note_off,,,,,1024,0,6,,,59,0,5
6144,note_on,,,,,0,0,6,,,62,96,5
6144,note_on,,,,,0,0,4,,,50,96,3
6144,note_off,,,,,1024,0,4,,,55,0,3
6144,note_off,,,,,1024,0,3,,,59,0,2
6144,note_off,,,,,1024,0,7,,,43,0,6
6656,note_off,,,,,512,0,3,,,57,0,2
6656,note_on,,,,,0,0,3,,,62,96,2
7168,note_off,,,,,1024,0,1,,,69,0,0
7168,note_on,,,,,0,0,1,,,67,96,0
7168,note_off,,,,,512,0,3,,,62,0,2
7168,note_on,,,,,0,0,3,,,59,96,2
7168,note_off,,,,,1024,0,5,,,69,0,4
7168,note_off,,,,,1024,0,7,,,50,0,6
7168,note_off,,,,,1024,0,4,,,50,0,3
7168,note_on,,,,,0,0,4,,,52,96,3
7168,note_off,,,,,1024,0,2,,,66,0,1
7168,note_on,,,,,0,0,2,,,64,96,1
7168,note_on,,,,,0,0,5,,,67,96,4
7168,note_on,,,,,0,0,6,,,59,96,5
7168,note_off,,,,,1024,0,6,,,62,0,5
7680,note_off,,,,,512,0,6,,,59,0,5
7680,note_off,,,,,512,0,4,,,52,0,3
7680,note_on,,,,,0,0,4,,,50,96,3
7680,note_on,,,,,0,0,6,,,62,96,5
8192,note_on,,,,,0,0,6,,,67,96,5
8192,note_off,,,,,512,0,4,,,50,0,3
8192,note_on,,,,,0,0,4,,,48,96,3
8192,note_off,,,,,512,0,6,,,62,0,5
8192,note_on,,,,,0,0,2,,,67,96,1
8192,note_off,,,,,1024,0,1,,,67,0,0
8192,note_off,,,,,1024,0,2,,,64,0,1
8192,note_on,,,,,0,0,3,,,64,96,2
8192,note_off,,,,,1024,0,3,,,59,0,2
8192,note_on,,,,,0,0,1,,,72,96,0
8192,note_on,,,,,0,0,5,,,72,96,4
8192,note_off,,,,,1024,0,5,,,67,0,4
8704,note_on,,,,,0,0,3,,,60,96,2
8704,note_off,,,,,512,0,3,,,64,0,2
9216,note_on,,,,,0,0,6,,,67,96,5
9216,note_off,,,,,1024,0,6,,,67,0,5
9216,note_off,,,,,1024,0,1,,,72,0,0
9216,note_on,,,,,0,0,1,,,74,96,0
9216,note_on,,,,,0,0,4,,,43,96,3
9216,note_off,,,,,1024,0,4,,,48,0,3
9216,note_off,,,,,1024,0,2,,,67,0,1
9216,note_on,,,,,0,0,2,,,67,96,1
9216,note_on,,,,,0,0,5,,,74,96,4
9216,note_on,,,,,0,0,3,,,59,96,2
9216,note_off,,,,,512,0,3,,,60,0,2
9216,note_off,,,,,1024,0,5,,,72,0,4
9728,note_off,,,,,512,0,2,,,67,0,1
9728,note_on,,,,,0,0,2,,,65,96,1
10240,note_off,,,,,1024,0,5,,,74,0,4
10240,note_on,,,,,0,0,5,,,72,96,4
10240,note_on,,,,,0,0,3,,,55,96,2
10240,note_off,,,,,1024,0,4,,,43,0,3
10240,note_off,,,,,1024,0,3,,,59,0,2
10240,note_on,,,,,0,0,4,,,48,96,3
10240,note_on,,,,,0,0,6,,,67,96,5
10240,note_off,,,,,1024,0,6,,,67,0,5
10240,note_on,,,,,0,0,1,,,72,96,0
10240,note_on,,,,,0,0,2,,,64,96,1
10240,note_off,,,,,512,0,2,,,65,0,1
10240,note_off,,,,,1024,0,1,,,74,0,0
12288,note_off,,,,,2048,0,6,,,67,0,5
12288,note_on,,,,,0,0,6,,,67,96,5
12288,note_on,,,,,0,0,2,,,67,96,1
12288,note_off,,,,,2048,0,2,,,64,0,1
12288,note_on,,,,,0,0,4,,,52,96,3
12288,note_off,,,,,2048,0,4,,,48,0,3
12288,note_on,,,,,0,0,1,,,71,96,0
12288,note_off,,,,,2048,0,3,,,55,0,2
12288,note_on,,,,,0,0,3,,,64,96,2
12288,note_off,,,,,2048,0,1,,,72,0,0
12288,note_off,,,,,2048,0,5,,,72,0,4
12288,note_on,,,,,0,0,5,,,71,96,4
12800,note_off,,,,,512,0,6,,,67,0,5
12800,note_on,,,,,0,0,6,,,69,96,5
12800,note_on,,,,,0,0,2,,,69,96,1
12800,note_on,,,,,0,0,1,,,72,96,0
12800,note_off,,,,,512,0,1,,,71,0,0
12800,note_off,,,,,512,0,2,,,67,0,1
12800,note_on,,,,,0,0,5,,,72,96,4
12800,note_off,,,,,512,0,5,,,71,0,4
13312,note_on,,,,,0,0,3,,,65,96,2
13312,note_off,,,,,512,0,6,,,69,0,5
13312,note_on,,,,,0,0,6,,,71,96,5
13312,note_on,,,,,0,0,5,,,74,96,4
13312,note_off,,,,,512,0,5,,,72,0,4
13312,note_off,,,,,1024,0,3,,,64,0,2
13312,note_on,,,,,0,0,2,,,71,96,1
13312,note_on,,,,,0,0,4,,,50,96,3
13312,note_off,,,,,512,0,1,,,72,0,0
13312,note_off,,,,,512,0,2,,,69,0,1
13312,note_on,,,,,0,0,1,,,74,96,0
13312,note_off,,,,,1024,0,4,,,52,0,3
14336,note_on,,,,,0,0,3,,,67,96,2
14336,note_on,,,,,0,0,6,,,72,96,5
14336,note_off,,,,,1024,0,6,,,71,0,5
14336,note_off,,,,,1024,0,4,,,50,0,3
14336,note_off,,,,,1024,0,1,,,74,0,0
14336,note_on,,,,,0,0,1,,,76,96,0
14336,note_off,,,,,1024,0,3,,,65,0,2
14336,note_off,,,,,1024,0,5,,,74,0,4
14336,note_on,,,,,0,0,5,,,76,96,4
14336,note_off,,,,,1024,0,2,,,71,0,1
14336,note_on,,,,,0,0,2,,,72,96,1
14336,note_on,,,,,0,0,4,,,48,96,3
14848,note_off,,,,,512,0,2,,,72,0,1
14848,note_off,,,,,512,0,6,,,72,0,5
14848,note_on,,,,,0,0,6,,,71,96,5
14848,note_on,,,,,0,0,2,,,71,96,1
15360,note_off,,,,,1024,0,5,,,76,0,4
15360,note_off,,,,,512,0,2,,,71,0,1
15360,note_on,,,,,0,0,2,,,69,96,1
15360,note_on,,,,,0,0,3,,,62,96,2
15360,note_off,,,,,1024,0,3,,,67,0,2
15360,note_on,,,,,8192,0,7,,,50,96,6
15360,note_on,,,,,0,0,1,,,74,96,0
15360,note_off,,,,,1024,0,1,,,76,0,0
15360,note_on,,,,,0,0,5,,,74,96,4
15360,note_off,,,,,512,0,6,,,71,0,5
15360,note_on,,,,,0,0,6,,,69,96,5
15360,note_on,,,,,0,0,4,,,42,96,3
15360,note_off,,,,,1024,0,4,,,48,0,3
15872,note_on,,,,,0,0,5,,,72,96,4
15872,note_off,,,,,512,0,5,,,74,0,4
15872,note_on,,,,,0,0,1,,,72,96,0
15872,note_off,,,,,512,0,1,,,74,0,0
16384,note_off,,,,,1024,0,7,,,50,0,6
16384,note_on,,,,,0,0,4,,,43,96,3
16384,note_on,,,,,0,0,1,,,71,96,0
16384,note_off,,,,,512,0,1,,,72,0,0
16384,note_off,,,,,1024,0,4,,,42,0,3
16384,note_off,,,,,1024,0,2,,,69,0,1
16384,note_on,,,,,0,0,2,,,67,96,1
16384,note_on,,,,,0,0,7,,,50,96,6
16384,note_on,,,,,0,0,6,,,67,96,5
16384,note_off,,,,,1024,0,3,,,62,0,2
16384,note_on,,,,,0,0,3,,,62,96,2
16384,note_off,,,,,1024,0,6,,,69,0,5
16384,note_off,,,,,512,0,5,,,72,0,4
16384,note_on,,,,,0,0,5,,,71,96,4
16896,note_on,,,,,0,0,4,,,47,96,3
16896,note_off,,,,,512,0,4,,,43,0,3
17408,note_on,,,,,0,0,6,,,62,96,5
17408,note_on,,,,,0,0,5,,,69,96,4
17408,note_off,,,,,1024,0,1,,,71,0,0
17408,note_off,,,,,1024,0,5,,,71,0,4
17408,note_on,,,,,0,0,2,,,66,96,1
17408,note_on,,,,,0,0,7,,,50,96,6
17408,note_off,,,,,1024,0,7,,,50,0,6
17408,note_on,,,,,0,0,1,,,69,96,0
17408,note_off,,,,,1024,0,6,,,67,0,5
17408,note_off,,,,,1024,0,2,,,67,0,1
17408,note_on,,,,,0,0,4,,,50,96,3
17408,note_off,,,,,512,0,4,,,47,0,3
17920,note_off,,,,,1536,0,3,,,62,0,2
17920,note_on,,,,,0,0,3,,,60,96,2
18432,note_off,,,,,1024,0,2,,,66,0,1
18432,note_on,,,,,0,0,1,,,67,96,0
18432,note_off,,,,,1024,0,1,,,69,0,0
18432,note_off,,,,,1024,0,5,,,69,0,4
18432,note_on,,,,,0,0,2,,,62,96,1
18432,note_off,,,,,1024,0,6,,,62,0,5
18432,note_off,,,,,1024,0,7,,,50,0,6
18432,note_on,,,,,0,0,6,,,59,96,5
18432,note_off,,,,,1024,0,4,,,50,0,3
18432,note_on,,,,,0,0,4,,,43,96,3
18432,note_on,,,,,0,0,7,,,43,96,6
18432,note_on,,,,,0,0,5,,,67,96,4
18432,note_off,,,,,512,0,3,,,60,0,2
18432,note_on,,,,,0,0,3,,,59,96,2
19456,note_on,,,,,0,0,1,,,67,96,0
19456,note_off,,,,,1024,0,5,,,67,0,4
19456,note_off,,,,,1024,0,7,,,43,0,6
19456,note_on,,,,,0,0,2,,,62,96,1
19456,note_off,,,,,1024,0,3,,,59,0,2
19456,note_on,,,,,0,0,4,,,47,96,3
19456,note_off,,,,,1024,0,4,,,43,0,3
19456,note_off,,,,,1024,0,2,,,62,0,1
19456,note_on,,,,,0,0,6,,,62,96,5
19456,note_off,,,,,1024,0,6,,,59,0,5
19456,note_on,,,,,0,0,5,,,67,96,4
19456,note_off,,,,,1024,0,1,,,67,0,0
19456,note_on,,,,,0,0,3,,,55,96,2
19968,note_on,,,,,0,0,6,,,62,96,5
19968,note_off,,,,,512,0,2,,,62,0,1
19968,note_on,,,,,0,0,2,,,64,96,1
19968,note_off,,,,,512,0,6,,,62,0,5
20480,note_off,,,,,1024,0,1,,,67,0,0
20480,note_off,,,,,1024,0,4,,,47,0,3
20480,note_on,,,,,0,0,1,,,72,96,0
20480,note_on,,,,,0,0,4,,,45,96,3
20480,note_off,,,,,1024,0,3,,,55,0,2
20480,note_on,,,,,0,0,5,,,72,96,4
20480,note_off,,,,,512,0,2,,,64,0,1
20480,note_on,,,,,0,0,2,,,66,96,1
20480,note_on,,,,,0,0,3,,,57,96,2
20480,note_off,,,,,1024,0,5,,,67,0,4
20480,note_off,,,,,512,0,6,,,62,0,5
20480,note_on,,,,,0,0,6,,,62,96,5
20992,note_on,,,,,0,0,6,,,62,96,5
20992,note_off,,,,,512,0,6,,,62,0,5
21504,note_off,,,,,1024,0,4,,,45,0,3
21504,note_off,,,,,512,0,6,,,62,0,5
21504,note_on,,,,,0,0,6,,,62,96,5
21504,note_on,,,,,0,0,2,,,67,96,1
21504,note_off,,,,,1024,0,2,,,66,0,1
21504,note_off,,,,,1024,0,3,,,57,0,2
21504,note_on,,,,,0,0,3,,,62,96,2
21504,note_off,,,,,1024,0,1,,,72,0,0
21504,note_on,,,,,0,0,1,,,71,96,0
21504,note_on,,,,,2048,0,7,,,43,96,6
21504,note_on,,,,,0,0,4,,,43,96,3
21504,note_off,,,,,1024,0,5,,,72,0,4
21504,note_on,,,,,0,0,5,,,71,96,4
22016,note_off,,,,,512,0,5,,,71,0,4
22016,note_off,,,,,512,0,6,,,62,0,5
22016,note_on,,,,,0,0,5,,,72,96,4
22016,note_on,,,,,0,0,6,,,62,96,5
22016,note_off,,,,,512,0,1,,,71,0,0
22016,note_off,,,,,512,0,3,,,62,0,2
22016,note_off,,,,,512,0,4,,,43,0,3
22016,note_on,,,,,0,0,4,,,45,96,3
22016,note_on,,,,,0,0,1,,,72,96,0
22016,note_on,,,,,0,0,3,,,60,96,2
22528,note_on,,,,,0,0,4,,,47,96,3
22528,note_off,,,,,512,0,1,,,72,0,0
22528,note_on,,,,,0,0,3,,,59,96,2
22528,note_off,,,,,512,0,3,,,60,0,2
22528,note_off,,,,,1024,0,2,,,67,0,1
22528,note_on,,,,,0,0,2,,,67,96,1
22528,note_off,,,,,1024,0,7,,,43,0,6
22528,note_on,,,,,0,0,7,,,43,96,6
22528,note_on,,,,,0,0,5,,,74,96,4
22528,note_off,,,,,512,0,5,,,72,0,4
22528,note_off,,,,,512,0,6,,,62,0,5
22528,note_on,,,,,0,0,6,,,62,96,5
22528,note_on,,,,,0,0,1,,,74,96,0
22528,note_off,,,,,512,0,4,,,45,0,3
23040,note_on,,,,,0,0,6,,,62,96,5
23040,note_off,,,,,512,0,6,,,62,0,5
23040,note_on,,,,,0,0,4,,,48,96,3
23040,note_off,,,,,512,0,3,,,59,0,2
23040,note_on,,,,,0,0,3,,,55,96,2
23040,note_off,,,,,512,0,4,,,47,0,3
23552,note_off,,,,,512,0,3,,,55,0,2
23552,note_on,,,,,0,0,2,,,66,96,1
23552,note_on,,,,,0,0,6,,,62,96,5
23552,note_off,,,,,1024,0,1,,,74,0,0
23552,note_on,,,,,0,0,4,,,50,96,3
23552,note_on,,,,,0,0,3,,,62,96,2
23552,note_off,,,,,512,0,4,,,48,0,3
23552,note_off,,,,,1024,0,2,,,67,0,1
23552,note_on,,,,,0,0,1,,,69,96,0
23552,note_off,,,,,1024,0,7,,,43,0,6
23552,note_on,,,,,0,0,7,,,50,96,6
23552,note_off,,,,,512,0,6,,,62,0,5
23552,note_on,,,,,0,0,5,,,69,96,4
23552,note_off,,,,,1024,0,5,,,74,0,4
24064,note_on,,,,,0,0,2,,,64,96,1
24064,note_off,,,,,512,0,2,,,66,0,1
24064,note_off,,,,,512,0,6,,,62,0,5
24064,note_on,,,,,0,0,4,,,48,96,3
24064,note_on,,,,,0,0,6,,,62,96,5
24064,note_off,,,,,512,0,4,,,50,0,3
24576,note_on,,,,,0,0,7,,,50,96,6
24576,note_on,,,,,0,0,5,,,71,96,4
24576,note_off,,,,,512,0,6,,,62,0,5
24576,note_on,,,,,0,0,4,,,47,96,3
24576,note_off,,,,,1024,0,7,,,50,0,6
24576,note_off,,,,,1024,0,5,,,69,0,4
24576,note_on,,,,,0,0,6,,,67,96,5
24576,note_off,,,,,512,0,4,,,48,0,3
24576,note_off,,,,,1024,0,3,,,62,0,2
24576,note_on,,,,,0,0,1,,,67,96,0
24576,note_off,,,,,512,0,2,,,64,0,1
24576,note_on,,,,,0,0,2,,,62,96,1
24576,note_on,,,,,0,0,3,,,62,96,2
24576,note_off,,,,,1024,0,1,,,69,0,0
25088,note_on,,,,,0,0,1,,,66,96,0
25088,note_off,,,,,512,0,1,,,67,0,0
25088,note_on,,,,,0,0,2,,,59,96,1
25088,note_off,,,,,512,0,2,,,62,0,1
25088,note_off,,,,,512,0,5,,,71,0,4
25088,note_on,,,,,0,0,5,,,73,96,4
25088,note_on,,,,,0,0,6,,,69,96,5
25088,note_on,,,,,0,0,4,,,43,96,3
25088,note_off,,,,,512,0,4,,,47,0,3
25088,note_off,,,,,512,0,6,,,67,0,5
25344,note_off,,,,,256,0,6,,,69,0,5
25344,note_on,,,,,0,0,5,,,74,96,4
25344,note_off,,,,,256,0,5,,,73,0,4
25344,note_on,,,,,0,0,6,,,71,96,5
25600,note_off,,,,,512,0,4,,,43,0,3
25600,note_on,,,,,0,0,3,,,57,96,2
25600,note_off,,,,,1024,0,3,,,62,0,2
25600,note_on,,,,,0,0,2,,,61,96,1
25600,note_off,,,,,1024,0,7,,,50,0,6
25600,note_on,,,,,0,0,6,,,69,96,5
25600,note_on,,,,,0,0,5,,,73,96,4
25600,note_off,,,,,256,0,5,,,74,0,4
25600,note_off,,,,,512,0,1,,,66,0,0
25600,note_on,,,,,0,0,1,,,64,96,0
25600,note_on,,,,,0,0,4,,,45,96,3
25600,note_off,,,,,256,0,6,,,71,0,5
25600,note_off,,,,,512,0,2,,,59,0,1
26112,note_off,,,,,512,0,3,,,57,0,2
26112,note_on,,,,,0,0,3,,,55,96,2
26624,note_on,,,,,0,0,6,,,69,96,5
26624,note_on,,,,,0,0,2,,,57,96,1
26624,note_off,,,,,1024,0,2,,,61,0,1
26624,note_off,,,,,512,0,3,,,55,0,2
26624,note_on,,,,,0,0,3,,,54,96,2
26624,note_on,,,,,0,0,5,,,74,96,4
26624,note_off,,,,,1024,0,1,,,64,0,0
26624,note_off,,,,,1024,0,6,,,69,0,5
26624,note_off,,,,,1024,0,5,,,73,0,4
26624,note_on,,,,,0,0,4,,,50,96,3
26624,note_off,,,,,1024,0,4,,,45,0,3
26624,note_on,,,,,0,0,1,,,62,96,0
27648,note_off,,,,,1024,0,5,,,74,0,4
27648,note_on,,,,,0,0,3,,,54,96,2
27648,note_off,,,,,1024,0,3,,,54,0,2
27648,note_off,,,,,1024,0,2,,,57,0,1
27648,note_off,,,,,1024,0,6,,,69,0,5
27648,note_on,,,,,0,0,5,,,74,96,4
27648,note_on,,,,,0,0,6,,,69,96,5
27648,note_on,,,,,0,0,1,,,62,96,0
27648,note_off,,,,,1024,0,1,,,62,0,0
27648,note_on,,,,,0,0,2,,,57,96,1
27648,note_off,,,,,1024,0,4,,,50,0,3
27648,note_on,,,,,0,0,4,,,50,96,3
28160,note_on,,,,,0,0,3,,,55,96,2
28160,note_off,,,,,512,0,3,,,54,0,2
28160,note_on,,,,,0,0,4,,,52,96,3
28160,note_off,,,,,512,0,4,,,50,0,3
28672,note_off,,,,,1024,0,6,,,69,0,5
28672,note_off,,,,,1024,0,5,,,74,0,4
28672,note_off,,,,,512,0,4,,,52,0,3
28672,note_on,,,,,0,0,4,,,54,96,3
28672,note_on,,,,,0,0,5,,,69,96,4
28672,note_off,,,,,1024,0,1,,,62,0,0
28672,note_on,,,,,0,0,1,,,69,96,0
28672,note_off,,,,,512,0,3,,,55,0,2
28672,note_on,,,,,0,0,6,,,62,96,5
28672,note_on,,,,,0,0,3,,,57,96,2
28672,note_off,,,,,1024,0,2,,,57,0,1
28672,note_on,,,,,0,0,2,,,62,96,1
29184,note_on,,,,,0,0,4,,,55,96,3
29184,note_on,,,,,0,0,3,,,59,96,2
29184,note_off,,,,,512,0,3,,,57,0,2
29184,note_off,,,,,512,0,4,,,54,0,3
29696,note_on,,,,,0,0,2,,,61,96,1
29696,note_off,,,,,1024,0,2,,,62,0,1
29696,note_off,,,,,1024,0,6,,,62,0,5
29696,note_on,,,,,0,0,6,,,67,96,5
29696,note_off,,,,,512,0,3,,,59,0,2
29696,note_off,,,,,1024,0,1,,,69,0,0
29696,note_on,,,,,0,0,1,,,69,96,0
29696,note_off,,,,,1024,0,5,,,69,0,4
29696,note_on,,,,,0,0,5,,,69,96,4
29696,note_off,,,,,512,0,4,,,55,0,3
29696,note_on,,,,,0,0,3,,,61,96,2
29696,note_on,,,,,0,0,4,,,57,96,3
30208,note_on,,,,,0,0,3,,,64,96,2
30208,note_off,,,,,512,0,3,,,61,0,2
30208,note_off,,,,,512,0,4,,,57,0,3
30208,note_on,,,,,0,0,4,,,49,96,3
30720,note_off,,,,,512,0,3,,,64,0,2
30720,note_on,,,,,0,0,5,,,69,96,4
30720,note_off,,,,,1024,0,5,,,69,0,4
30720,note_on,,,,,0,0,2,,,66,96,1
30720,note_on,,,,,0,0,1,,,69,96,0
30720,note_off,,,,,1024,0,1,,,69,0,0
30720,note_on,,,,,0,0,6,,,62,96,5
30720,note_on,,,,,0,0,3,,,62,96,2
30720,note_off,,,,,512,0,4,,,49,0,3
30720,note_on,,,,,0,0,4,,,50,96,3
30720,note_off,,,,,1024,0,6,,,67,0,5
30720,note_off,,,,,1024,0,2,,,61,0,1
31232,note_off,,,,,512,0,4,,,50,0,3
31232,note_on,,,,,0,0,4,,,48,96,3
31744,note_on,,,,,0,0,1,,,71,96,0
31744,note_on,,,,,0,0,5,,,71,96,4
31744,note_off,,,,,1024,0,5,,,69,0,4
31744,note_off,,,,,1024,0,3,,,62,0,2
31744,note_on,,,,,0,0,3,,,62,96,2
31744,note_off,,,,,1024,0,2,,,66,0,1
31744,note_on,,,,,0,0,2,,,67,96,1
31744,note_on,,,,,0,0,6,,,67,96,5
31744,note_off,,,,,1024,0,6,,,62,0,5
31744,note_off,,,,,1024,0,1,,,69,0,0
31744,note_off,,,,,512,0,4,,,48,0,3
31744,note_on,,,,,6144,0,7,,,50,96,6
31744,note_on,,,,,0,0,4,,,47,96,3
32768,note_off,,,,,1024,0,2,,,67,0,1
32768,note_on,,,,,0,0,1,,,72,96,0
32768,note_off,,,,,1024,0,1,,,71,0,0
32768,note_on,,,,,0,0,5,,,72,96,4
32768,note_off,,,,,1024,0,5,,,71,0,4
32768,note_on,,,,,0,0,2,,,69,96,1
32768,note_off,,,,,1024,0,3,,,62,0,2
32768,note_on,,,,,0,0,6,,,69,96,5
32768,note_off,,,,,1024,0,4,,,47,0,3
32768,note_on,,,,,0,0,7,,,50,96,6
32768,note_on,,,,,0,0,3,,,64,96,2
32768,note_on,,,,,0,0,4,,,45,96,3
32768,note_off,,,,,1024,0,7,,,50,0,6
32768,note_off,,,,,1024,0,6,,,67,0,5
33280,note_on,,,,,0,0,1,,,71,96,0
33280,note_off,,,,,512,0,1,,,72,0,0
33280,note_off,,,,,512,0,2,,,69,0,1
33280,note_on,,,,,0,0,6,,,67,96,5
33280,note_off,,,,,512,0,6,,,69,0,5
33280,note_on,,,,,0,0,7,,,43,96,6
33280,note_on,,,,,0,0,5,,,71,96,4
33280,note_off,,,,,512,0,5,,,72,0,4
33280,note_on,,,,,0,0,4,,,47,96,3
33280,note_on,,,,,0,0,3,,,62,96,2
33280,note_off,,,,,512,0,4,,,45,0,3
33280,note_off,,,,,512,0,7,,,50,0,6
33280,note_on,,,,,0,0,2,,,67,96,1
33280,note_off,,,,,512,0,3,,,64,0,2
33792,note_on,,,,,0,0,1,,,69,96,0
33792,note_off,,,,,512,0,1,,,71,0,0
33792,note_on,,,,,0,0,7,,,50,96,6
33792,note_off,,,,,512,0,7,,,43,0,6
33792,note_on,,,,,0,0,4,,,48,96,3
33792,note_off,,,,,512,0,4,,,47,0,3
33792,note_on,,,,,0,0,5,,,69,96,4
33792,note_off,,,,,512,0,5,,,71,0,4
33792,note_off,,,,,512,0,3,,,62,0,2
33792,note_on,,,,,0,0,3,,,64,96,2
34304,note_off,,,,,1024,0,2,,,67,0,1
34304,note_on,,,,,0,0,6,,,62,96,5
34304,note_off,,,,,1024,0,6,,,67,0,5
34304,note_on,,,,,0,0,4,,,50,96,3
34304,note_off,,,,,512,0,4,,,48,0,3
34304,note_off,,,,,512,0,3,,,64,0,2
34304,note_on,,,,,0,0,3,,,62,96,2
34304,note_on,,,,,0,0,2,,,66,96,1
34816,note_off,,,,,512,0,2,,,66,0,1
34816,note_off,,,,,1024,0,5,,,69,0,4
34816,note_on,,,,,0,0,5,,,67,96,4
34816,note_on,,,,,0,0,4,,,52,96,3
34816,note_off,,,,,512,0,4,,,50,0,3
34816,note_off,,,,,1024,0,7,,,50,0,6
34816,note_on,,,,,0,0,7,,,43,96,6
34816,note_on,,,,,0,0,2,,,64,96,1
34816,note_on,,,,,0,0,1,,,67,96,0
34816,note_off,,,,,1024,0,1,,,69,0,0
34816,note_off,,,,,512,0,6,,,62,0,5
34816,note_on,,,,,0,0,6,,,59,96,5
35328,note_off,,,,,512,0,4,,,52,0,3
35328,note_on,,,,,0,0,2,,,69,96,1
35328,note_off,,,,,512,0,2,,,64,0,1
35328,note_on,,,,,0,0,4,,,54,96,3
35328,note_off,,,,,512,0,5,,,67,0,4
35328,note_on,,,,,0,0,6,,,62,96,5
35328,note_off,,,,,512,0,6,,,59,0,5
35328,note_on,,,,,0,0,7,,,50,96,6
35328,note_on,,,,,0,0,5,,,69,96,4
35328,note_on,,,,,0,0,3,,,60,96,2
35328,note_off,,,,,1024,0,3,,,62,0,2
35328,note_on,,,,,0,0,1,,,69,96,0
35328,note_off,,,,,512,0,1,,,67,0,0
35328,note_off,,,,,512,0,7,,,43,0,6
35840,note_off,,,,,512,0,6,,,62,0,5
35840,note_on,,,,,0,0,1,,,71,96,0
35840,note_off,,,,,512,0,1,,,69,0,0
35840,note_on,,,,,0,0,6,,,67,96,5
35840,note_on,,,,,0,0,5,,,71,96,4
35840,note_on,,,,,0,0,2,,,67,96,1
35840,note_on,,,,,0,0,7,,,43,96,6
35840,note_off,,,,,512,0,7,,,50,0,6
35840,note_off,,,,,512,0,4,,,54,0,3
35840,note_on,,,,,0,0,4,,,55,96,3
35840,note_off,,,,,512,0,2,,,69,0,1
35840,note_on,,,,,0,0,3,,,59,96,2
35840,note_off,,,,,512,0,3,,,60,0,2
35840,note_off,,,,,512,0,5,,,69,0,4
36352,note_on,,,,,0,0,3,,,60,96,2
36352,note_off,,,,,512,0,3,,,59,0,2
36864,note_off,,,,,512,0,3,,,60,0,2
36864,note_on,,,,,0,0,2,,,66,96,1
36864,note_on,,,,,0,0,6,,,62,96,5
36864,note_off,,,,,1024,0,6,,,67,0,5
36864,note_off,,,,,1024,0,4,,,55,0,3
36864,note_on,,,,,0,0,4,,,50,96,3
36864,note_off,,,,,1024,0,7,,,43,0,6
36864,note_on,,,,,0,0,7,,,50,96,6
36864,note_on,,,,,0,0,3,,,62,96,2
36864,note_off,,,,,1024,0,5,,,71,0,4
36864,note_on,,,,,0,0,5,,,69,96,4
36864,note_off,,,,,1024,0,1,,,71,0,0
36864,note_on,,,,,0,0,1,,,69,96,0
36864,note_off,,,,,1024,0,2,,,67,0,1
38912,note_off,,,,,2048,0,6,,,62,0,5
38912,note_off,,,,,2048,0,2,,,66,0,1
38912,note_on,,,,,0,0,2,,,62,96,1
38912,note_on,,,,,0,0,6,,,67,96,5
38912,note_on,,,,,0,0,1,,,67,96,0
38912,note_off,,,,,2048,0,1,,,69,0,0
38912,note_off,,,,,2048,0,7,,,50,0,6
38912,note_off,,,,,2048,0,4,,,50,0,3
38912,note_on,,,,,0,0,4,,,47,96,3
38912,note_off,,,,,2048,0,3,,,62,0,2
38912,note_on,,,,,0,0,3,,,62,96,2
38912,note_on,,,,,0,0,7,,,43,96,6
38912,note_off,,,,,2048,0,5,,,69,0,4
38912,note_on,,,,,0,0,5,,,71,96,4
39424,note_on,,,,,0,0,6,,,69,96,5
39424,note_on,,,,,0,0,5,,,72,96,4
39424,note_on,,,,,0,0,2,,,64,96,1
39424,note_on,,,,,0,0,4,,,45,96,3
39424,note_off,,,,,512,0,4,,,47,0,3
39424,note_off,,,,,512,0,6,,,67,0,5
39424,note_off,,,,,512,0,5,,,71,0,4
39424,note_off,,,,,512,0,2,,,62,0,1
39936,note_on,,,,,0,0,4,,,43,96,3
39936,note_off,,,,,512,0,4,,,45,0,3
39936,note_off,,,,,512,0,6,,,69,0,5
39936,note_on,,,,,0,0,6,,,71,96,5
39936,note_off,,,,,1024,0,7,,,43,0,6
39936,note_off,,,,,512,0,5,,,72,0,4
39936,note_on,,,,,0,0,1,,,67,96,0
39936,note_off,,,,,1024,0,1,,,67,0,0
39936,note_on,,,,,0,0,3,,,59,96,2
39936,note_on,,,,,0,0,5,,,74,96,4
39936,note_off,,,,,1024,0,3,,,62,0,2
39936,note_off,,,,,512,0,2,,,64,0,1
39936,note_on,,,,,0,0,7,,,43,96,6
39936,note_on,,,,,0,0,2,,,65,96,1
40448,note_off,,,,,512,0,5,,,74,0,4
40448,note_on,,,,,0,0,5,,,72,96,4
40448,note_off,,,,,512,0,6,,,71,0,5
40448,note_on,,,,,0,0,6,,,69,96,5
40704,note_on,,,,,0,0,6,,,71,96,5
40704,note_on,,,,,0,0,5,,,74,96,4
40704,note_off,,,,,256,0,5,,,72,0,4
40704,note_off,,,,,256,0,6,,,69,0,5
40960,note_on,,,,,0,0,6,,,72,96,5
40960,note_off,,,,,256,0,6,,,71,0,5
40960,note_off,,,,,1024,0,3,,,59,0,2
40960,note_on,,,,,0,0,1,,,67,96,0
40960,note_on,,,,,0,0,2,,,64,96,1
40960,note_off,,,,,1024,0,1,,,67,0,0
40960,note_off,,,,,256,0,5,,,74,0,4
40960,note_off,,,,,1024,0,7,,,43,0,6
40960,note_off,,,,,1024,0,2,,,65,0,1
40960,note_on,,,,,0,0,7,,,43,96,6
40960,note_on,,,,,0,0,3,,,55,96,2
40960,note_on,,,,,0,0,4,,,48,96,3
40960,note_off,,,,,1024,0,4,,,43,0,3
40960,note_on,,,,,0,0,5,,,76,96,4
41216,note_off,,,,,256,0,5,,,76,0,4
41216,note_on,,,,,0,0,5,,,74,96,4
41472,note_on,,,,,0,0,4,,,52,96,3
41472,note_off,,,,,512,0,6,,,72,0,5
41472,note_on,,,,,0,0,6,,,67,96,5
41472,note_off,,,,,512,0,4,,,48,0,3
41472,note_on,,,,,0,0,7,,,43,96,6
41472,note_off,,,,,512,0,7,,,43,0,6
41472,note_off,,,,,256,0,5,,,74,0,4
41472,note_on,,,,,0,0,5,,,72,96,4
41728,note_on,,,,,0,0,7,,,43,96,6
41728,note_off,,,,,256,0,7,,,43,0,6
41728,note_off,,,,,256,0,5,,,72,0,4
41728,note_on,,,,,0,0,5,,,74,96,4
41728,note_off,,,,,256,0,4,,,52,0,3
41728,note_on,,,,,0,0,4,,,50,96,3
41984,note_off,,,,,256,0,5,,,74,0,4
41984,note_off,,,,,1024,0,2,,,64,0,1
41984,note_on,,,,,0,0,5,,,76,96,4
41984,note_off,,,,,1024,0,3,,,55,0,2
41984,note_off,,,,,256,0,7,,,43,0,6
41984,note_on,,,,,0,0,3,,,60,96,2
41984,note_on,,,,,0,0,2,,,64,96,1
41984,note_off,,,,,256,0,4,,,50,0,3
41984,note_off,,,,,512,0,6,,,67,0,5
41984,note_on,,,,,0,0,7,,,43,96,6
41984,note_on,,,,,0,0,4,,,48,96,3
41984,note_on,,,,,0,0,6,,,67,96,5
42240,note_off,,,,,256,0,5,,,76,0,4
42240,note_off,,,,,256,0,6,,,67,0,5
42240,note_on,,,,,0,0,6,,,69,96,5
42240,note_on,,,,,0,0,5,,,78,96,4
42496,note_off,,,,,512,0,7,,,43,0,6
42496,note_on,,,,,0,0,7,,,43,96,6
42496,note_on,,,,,0,0,4,,,36,96,3
42496,note_on,,,,,0,0,5,,,76,96,4
42496,note_off,,,,,512,0,4,,,48,0,3
42496,note_off,,,,,256,0,6,,,69,0,5
42496,note_on,,,,,0,0,6,,,67,96,5
42496,note_off,,,,,256,0,5,,,78,0,4
42752,note_on,,,,,0,0,5,,,78,96,4
42752,note_off,,,,,256,0,6,,,67,0,5
42752,note_on,,,,,0,0,6,,,69,96,5
42752,note_off,,,,,256,0,5,,,76,0,4
43008,note_off,,,,,1024,0,3,,,60,0,2
43008,note_on,,,,,0,0,7,,,43,96,6
43008,note_on,,,,,0,0,3,,,59,96,2
43008,note_off,,,,,256,0,6,,,69,0,5
43008,note_on,,,,,0,0,4,,,43,96,3
43008,note_off,,,,,512,0,7,,,43,0,6
43008,note_on,,,,,0,0,2,,,62,96,1
43008,note_off,,,,,1024,0,2,,,64,0,1
43008,note_on,,,,,0,0,6,,,71,96,5
43008,note_on,,,,,0,0,5,,,79,96,4
43008,note_on,,,,,0,0,1,,,67,96,0
43008,note_off,,,,,2048,0,1,,,67,0,0
43008,note_off,,,,,512,0,4,,,36,0,3
43008,note_off,,,,,256,0,5,,,78,0,4
45056,note_off,,,,,2048,0,3,,,59,0,2
45056,end_of_track,,,,,0,1,6,,,,,
45056,note_off,,,,,2048,0,6,,,71,0,5
45056,note_off,,,,,2048,0,1,,,67,0,0
45056,end_of_track,,,,,0,1,1,,,,,
45056,end_of_track,,,,,0,1,5,,,,,
45056,note_off,,,,,2048,0,5,,,79,0,4
45056,end_of_track,,,,,0,1,3,,,,,
45056,note_off,,,,,2048,0,2,,,62,0,1
45056,end_of_track,,,,,0,1,2,,,,,
45056,end_of_track,,,,,0,1,4,,,,,
45056,note_off,,,,,2048,0,4,,,43,0,3
45056,note_off,,,,,2048,0,7,,,43,0,6
45056,end_of_track,,,,,45056,1,0,,,,,
45056,end_of_track,,,,,0,1,7,,,,,
