,note,step,duration,channel,velocity
0,43.0,0,512,3.0,96.0
1,74.0,0,1024,4.0,96.0
2,59.0,0,1024,2.0,96.0
3,62.0,0,1024,1.0,96.0
4,67.0,0,1024,0.0,96.0
5,45.0,512,512,3.0,96.0
6,47.0,0,1024,3.0,96.0
7,79.0,512,1024,4.0,96.0
8,59.0,0,1024,2.0,96.0
9,62.0,0,1024,0.0,96.0
10,62.0,0,1024,1.0,96.0
11,57.0,0,512,2.0,96.0
12,64.0,0,1024,0.0,96.0
13,55.0,512,512,2.0,96.0
14,81.0,0,1024,4.0,96.0
15,60.0,0,1024,1.0,96.0
16,48.0,1024,1024,3.0,96.0
17,54.0,0,1024,2.0,96.0
18,59.0,512,1024,1.0,96.0
19,66.0,0,1024,0.0,96.0
20,50.0,0,1024,3.0,96.0
21,83.0,0,1024,4.0,96.0
22,67.0,0,1024,0.0,96.0
23,84.0,0,1024,4.0,96.0
24,52.0,0,1024,3.0,96.0
25,64.0,1024,1024,2.0,96.0
26,67.0,0,1024,1.0,96.0
27,62.0,0,512,2.0,96.0
28,66.0,0,512,1.0,96.0
29,60.0,512,512,2.0,96.0
30,69.0,1024,1024,0.0,96.0
31,86.0,0,1024,4.0,96.0
32,54.0,0,1024,3.0,96.0
33,64.0,0,512,1.0,96.0
34,86.0,0,1024,4.0,96.0
35,59.0,512,1024,2.0,96.0
36,62.0,0,1024,1.0,96.0
37,71.0,0,1024,0.0,96.0
38,55.0,0,1024,3.0,96.0
39,88.0,1024,1024,4.0,96.0
40,48.0,0,1024,3.0,96.0
41,60.0,0,1024,1.0,96.0
42,60.0,0,1024,2.0,96.0
43,67.0,0,1024,0.0,96.0
44,71.0,0,512,0.0,96.0
45,62.0,512,0,1.0,96.0
46,59.0,0,1024,2.0,96.0
47,55.0,0,1024,3.0,96.0
48,72.0,512,512,0.0,96.0
49,86.0,1024,1536,4.0,96.0
50,54.0,0,512,3.0,96.0
51,64.0,512,512,1.0,96.0
52,52.0,0,512,3.0,96.0
53,84.0,0,512,4.0,96.0
54,74.0,0,0,0.0,96.0
55,57.0,0,1024,2.0,96.0
56,83.0,0,512,4.0,96.0
57,62.0,0,1024,2.0,96.0
58,66.0,512,1024,1.0,96.0
59,50.0,0,1024,3.0,96.0
60,81.0,512,512,4.0,96.0
61,55.0,0,512,2.0,96.0
62,79.0,0,512,4.0,96.0
63,71.0,512,512,0.0,96.0
64,67.0,0,1024,1.0,96.0
65,77.0,0,512,4.0,96.0
66,72.0,0,512,0.0,96.0
67,57.0,512,512,2.0,96.0
68,52.0,0,1024,3.0,96.0
69,76.0,512,512,4.0,96.0
70,74.0,512,512,4.0,96.0
71,65.0,0,1024,1.0,96.0
72,47.0,0,1024,3.0,96.0
73,74.0,0,1024,0.0,96.0
74,59.0,0,0,2.0,96.0
75,76.0,0,1024,4.0,96.0
76,64.0,512,1024,1.0,96.0
77,48.0,0,1024,3.0,96.0
78,78.0,1024,1024,4.0,96.0
79,57.0,0,1024,2.0,96.0
80,50.0,0,1024,3.0,96.0
81,72.0,0,2048,0.0,96.0
82,62.0,0,1024,1.0,96.0
83,62.0,0,1024,1.0,96.0
84,79.0,1024,0,4.0,96.0
85,43.0,0,1024,3.0,96.0
86,55.0,0,1024,2.0,96.0
87,71.0,0,1024,0.0,96.0
88,59.0,0,1024,2.0,96.0
89,55.0,0,1024,3.0,96.0
90,62.0,0,0,1.0,96.0
91,71.0,0,1024,0.0,96.0
92,72.0,0,1024,0.0,96.0
93,81.0,0,1024,4.0,96.0
94,57.0,1024,1024,2.0,96.0
95,54.0,0,1024,3.0,96.0
96,64.0,512,512,1.0,96.0
97,55.0,0,1024,3.0,96.0
98,71.0,1024,1024,0.0,96.0
99,79.0,0,1024,4.0,96.0
100,59.0,0,0,2.0,96.0
101,66.0,0,1024,1.0,96.0
102,59.0,1024,0,2.0,96.0
103,69.0,0,1024,0.0,96.0
104,78.0,0,1024,4.0,96.0
105,51.0,512,1024,3.0,96.0
106,67.0,0,512,0.0,96.0
107,67.0,0,512,1.0,96.0
108,52.0,0,512,3.0,96.0
109,76.0,0,512,4.0,96.0
110,54.0,0,512,3.0,96.0
111,66.0,0,512,1.0,96.0
112,69.0,512,512,0.0,96.0
113,75.0,0,512,4.0,96.0
114,55.0,0,512,3.0,96.0
115,76.0,0,512,4.0,96.0
116,59.0,512,0,2.0,96.0
117,57.0,512,512,3.0,96.0
118,71.0,0,0,0.0,96.0
119,64.0,512,1024,1.0,96.0
120,78.0,0,0,4.0,96.0
121,69.0,512,512,0.0,96.0
122,63.0,0,1024,1.0,96.0
123,59.0,0,1024,3.0,96.0
124,52.0,0,1024,3.0,96.0
125,76.0,0,1024,4.0,96.0
126,67.0,512,1024,0.0,96.0
127,59.0,0,1024,2.0,96.0
128,64.0,0,1024,1.0,96.0
129,64.0,0,1024,1.0,96.0
130,71.0,0,1024,0.0,96.0
131,52.0,1024,1024,3.0,96.0
132,59.0,0,1024,2.0,96.0
133,57.0,1024,512,2.0,96.0
134,83.0,0,2048,4.0,96.0
135,59.0,512,512,2.0,96.0
136,53.0,0,1024,3.0,96.0
137,74.0,0,0,0.0,96.0
138,62.0,0,0,1.0,96.0
139,60.0,512,512,2.0,96.0
140,54.0,0,1024,3.0,96.0
141,62.0,512,512,2.0,96.0
142,81.0,0,1024,4.0,96.0
143,71.0,0,1024,0.0,96.0
144,64.0,512,1024,2.0,96.0
145,55.0,0,1024,3.0,96.0
146,67.0,0,1024,1.0,96.0
147,79.0,0,1024,4.0,96.0
148,77.0,0,1024,4.0,96.0
149,74.0,0,1024,0.0,96.0
150,59.0,0,1024,2.0,96.0
151,56.0,1024,1024,3.0,96.0
152,71.0,0,0,1.0,96.0
153,57.0,0,1024,3.0,96.0
154,76.0,1024,1024,4.0,96.0
155,60.0,0,1024,2.0,96.0
156,72.0,0,2048,0.0,96.0
157,50.0,0,1024,3.0,96.0
158,69.0,1024,1024,1.0,96.0
159,62.0,0,0,2.0,96.0
160,78.0,0,1024,4.0,96.0
161,67.0,0,1024,1.0,96.0
162,55.0,0,1024,3.0,96.0
163,79.0,0,1024,4.0,96.0
164,62.0,0,0,2.0,96.0
165,71.0,0,0,0.0,96.0
166,55.0,0,512,3.0,96.0
167,74.0,0,1024,4.0,96.0
168,54.0,512,512,3.0,96.0
169,67.0,1024,1024,1.0,96.0
170,79.0,512,512,4.0,96.0
171,81.0,512,512,4.0,96.0
172,52.0,0,1024,3.0,96.0
173,67.0,0,1024,1.0,96.0
174,72.0,0,1024,0.0,96.0
175,60.0,0,1024,2.0,96.0
176,83.0,512,512,4.0,96.0
177,67.0,0,1024,1.0,96.0
178,84.0,512,512,4.0,96.0
179,50.0,0,1024,3.0,96.0
180,71.0,0,1024,0.0,96.0
181,62.0,0,0,2.0,96.0
182,66.0,512,512,1.0,96.0
183,64.0,512,512,1.0,96.0
184,48.0,0,1024,3.0,96.0
185,69.0,0,1024,0.0,96.0
186,67.0,0,512,0.0,96.0
187,62.0,0,512,2.0,96.0
188,47.0,0,512,3.0,96.0
189,69.0,512,512,0.0,96.0
190,45.0,0,512,3.0,96.0
191,62.0,512,1024,1.0,96.0
192,60.0,0,512,2.0,96.0
193,59.0,0,512,2.0,96.0
194,43.0,0,512,3.0,96.0
195,86.0,0,2560,4.0,96.0
196,45.0,512,512,3.0,96.0
197,57.0,0,512,2.0,96.0
198,71.0,512,1024,0.0,96.0
199,67.0,0,1024,1.0,96.0
200,74.0,0,512,4.0,96.0
201,79.0,0,512,4.0,96.0
202,47.0,512,1024,3.0,96.0
203,77.0,512,512,4.0,96.0
204,62.0,0,1024,1.0,96.0
205,55.0,0,1024,2.0,96.0
206,71.0,0,1024,0.0,96.0
207,48.0,0,1024,3.0,96.0
208,64.0,0,1024,1.0,96.0
209,76.0,512,1024,4.0,96.0
210,67.0,0,1024,0.0,96.0
211,60.0,0,0,2.0,96.0
212,78.0,0,1024,4.0,96.0
213,69.0,0,1024,0.0,96.0
214,57.0,1024,1024,3.0,96.0
215,60.0,0,1024,1.0,96.0
216,55.0,0,512,3.0,96.0
217,79.0,1024,512,4.0,96.0
218,81.0,0,512,4.0,96.0
219,62.0,0,1024,2.0,96.0
220,54.0,512,512,3.0,96.0
221,59.0,0,1024,1.0,96.0
222,71.0,0,0,0.0,96.0
223,52.0,512,512,3.0,96.0
224,55.0,0,1024,2.0,96.0
225,64.0,0,1024,1.0,96.0
226,50.0,512,512,3.0,96.0
227,83.0,0,1536,4.0,96.0
228,55.0,512,512,2.0,96.0
229,81.0,512,512,4.0,96.0
230,49.0,0,1024,3.0,96.0
231,57.0,0,512,2.0,96.0
232,64.0,0,1024,0.0,96.0
233,64.0,0,1024,1.0,96.0
234,57.0,0,512,2.0,96.0
235,79.0,0,512,4.0,96.0
236,62.0,512,0,1.0,96.0
237,78.0,512,512,4.0,96.0
238,50.0,512,1024,3.0,96.0
239,60.0,0,512,2.0,96.0
240,66.0,0,1024,0.0,96.0
241,76.0,0,512,4.0,96.0
242,67.0,0,512,0.0,96.0
243,66.0,0,512,0.0,96.0
244,71.0,0,512,1.0,96.0
245,59.0,0,1024,2.0,96.0
246,43.0,0,1024,3.0,96.0
247,69.0,0,512,1.0,96.0
248,52.0,0,512,2.0,96.0
249,74.0,512,1024,4.0,96.0
250,73.0,0,512,4.0,96.0
251,45.0,0,1024,3.0,96.0
252,67.0,0,512,1.0,96.0
253,57.0,0,0,2.0,96.0
254,64.0,512,1024,0.0,96.0
255,62.0,0,1024,0.0,96.0
256,50.0,0,1024,3.0,96.0
257,66.0,0,1024,1.0,96.0
258,74.0,0,0,4.0,96.0
259,62.0,0,512,3.0,96.0
260,66.0,0,512,2.0,96.0
261,60.0,0,512,3.0,96.0
262,64.0,512,512,2.0,96.0
263,62.0,1024,1024,0.0,96.0
264,69.0,0,1024,1.0,96.0
265,59.0,0,512,3.0,96.0
266,74.0,0,0,4.0,96.0
267,62.0,512,512,2.0,96.0
268,60.0,0,512,2.0,96.0
269,57.0,512,512,3.0,96.0
270,69.0,0,0,0.0,96.0
271,76.0,512,512,4.0,96.0
272,59.0,0,512,2.0,96.0
273,55.0,0,512,3.0,96.0
274,54.0,512,512,3.0,96.0
275,57.0,0,512,2.0,96.0
276,78.0,0,512,4.0,96.0
277,52.0,0,512,3.0,96.0
278,67.0,0,2560,1.0,96.0
279,79.0,0,1024,4.0,96.0
280,66.0,0,512,1.0,96.0
281,55.0,0,1024,2.0,96.0
282,71.0,512,1024,0.0,96.0
283,50.0,512,512,3.0,96.0
284,81.0,512,512,4.0,96.0
285,69.0,0,512,0.0,96.0
286,48.0,0,512,3.0,96.0
287,64.0,0,512,1.0,96.0
288,47.0,0,512,3.0,96.0
289,62.0,512,512,1.0,96.0
290,60.0,0,1024,2.0,96.0
291,79.0,0,512,4.0,96.0
292,71.0,0,512,0.0,96.0
293,78.0,512,512,4.0,96.0
294,60.0,0,512,1.0,96.0
295,45.0,0,512,3.0,96.0
296,60.0,0,512,2.0,96.0
297,76.0,512,512,4.0,96.0
298,69.0,0,512,1.0,96.0
299,57.0,0,512,2.0,96.0
300,42.0,0,512,3.0,96.0
301,72.0,0,1024,0.0,96.0
302,59.0,0,512,2.0,96.0
303,74.0,0,512,4.0,96.0
304,60.0,512,512,2.0,96.0
305,71.0,512,1024,0.0,96.0
306,43.0,0,1024,3.0,96.0
307,62.0,0,1024,1.0,96.0
308,62.0,512,512,2.0,96.0
309,79.0,0,1024,4.0,96.0
310,57.0,0,256,2.0,96.0
311,78.0,512,256,4.0,96.0
312,59.0,256,256,2.0,96.0
313,76.0,0,256,4.0,96.0
314,60.0,0,256,2.0,96.0
315,59.0,256,256,2.0,96.0
316,60.0,256,512,2.0,96.0
317,62.0,0,2048,1.0,96.0
318,69.0,0,2048,0.0,96.0
319,50.0,0,2048,3.0,96.0
320,78.0,256,1024,4.0,96.0
321,59.0,512,4096,2.0,96.0
322,67.0,0,4096,0.0,96.0
323,62.0,0,4096,1.0,96.0
324,79.0,0,4096,4.0,96.0
325,43.0,0,4096,3.0,96.0
