tick,type,numerator,denominator,clocks_per_click,notated_32nd_notes_per_beat,time,meta,track,key,tempo,note,velocity,channel
0,time_signature,4,4,24,8,0,1,0,,,,,
0,note_on,,,,,0,0,6,,,79,96,5
0,note_on,,,,,0,0,6,,,79,96,5
0,track_name,,,,,0,1,5,,,,,
0,note_on,,,,,0,0,8,,,43,96,7
0,note_on,,,,,0,0,8,,,43,96,7
0,track_name,,,,,0,1,8,,,,,
0,track_name,,,,,0,1,7,,,,,
0,note_on,,,,,0,0,7,,,79,96,6
0,note_on,,,,,0,0,7,,,74,96,6
0,note_on,,,,,0,0,7,,,71,96,6
0,track_name,,,,,0,1,4,,,,,
0,track_name,,,,,0,1,3,,,,,
0,track_name,,,,,0,1,2,,,,,
0,track_name,,,,,0,1,6,,,,,
0,key_signature,,,,,0,1,0,G,,,,
0,set_tempo,,,,,0,1,0,,789473,,,
0,track_name,,,,,0,1,1,,,,,
512,note_on,,,,,512,0,5,,,62,96,4
1024,note_off,,,,,0,0,7,,,71,0,6
1024,note_off,,,,,1024,0,6,,,79,0,5
1024,note_off,,,,,0,0,6,,,79,0,5
1024,note_off,,,,,512,0,5,,,62,0,4
1024,note_on,,,,,0,0,5,,,67,96,4
1024,note_off,,,,,0,0,8,,,43,0,7
1024,note_off,,,,,0,0,7,,,74,0,6
1024,note_off,,,,,1024,0,7,,,79,0,6
1024,note_off,,,,,1024,0,8,,,43,0,7
1536,note_on,,,,,0,0,5,,,69,96,4
1536,note_off,,,,,512,0,5,,,67,0,4
2048,note_off,,,,,512,0,5,,,69,0,4
2048,note_on,,,,,0,0,5,,,71,96,4
2048,note_on,,,,,0,0,7,,,67,96,6
2048,note_on,,,,,0,0,7,,,71,96,6
2048,note_on,,,,,1024,0,7,,,74,96,6
2048,note_on,,,,,1024,0,6,,,74,96,5
2048,note_on,,,,,0,0,8,,,43,96,7
2048,note_on,,,,,1024,0,8,,,43,96,7
2048,note_on,,,,,0,0,6,,,74,96,5
2304,note_on,,,,,0,0,5,,,69,96,4
2304,note_off,,,,,256,0,5,,,71,0,4
2560,note_on,,,,,0,0,5,,,62,96,4
2560,note_on,,,,,0,0,5,,,67,96,4
2560,note_off,,,,,256,0,5,,,69,0,4
2816,note_off,,,,,256,0,5,,,67,0,4
2816,note_on,,,,,0,0,5,,,69,96,4
3072,note_off,,,,,1024,0,6,,,74,0,5
3072,note_off,,,,,0,0,6,,,74,0,5
3072,note_off,,,,,1024,0,8,,,43,0,7
3072,note_off,,,,,0,0,8,,,43,0,7
3072,note_off,,,,,0,0,7,,,67,0,6
3072,note_off,,,,,0,0,7,,,71,0,6
3072,note_off,,,,,1024,0,7,,,74,0,6
3072,note_on,,,,,0,0,5,,,67,96,4
3072,note_off,,,,,256,0,5,,,69,0,4
3072,note_on,,,,,0,0,5,,,71,96,4
3072,note_off,,,,,0,0,5,,,62,0,4
3328,note_off,,,,,256,0,5,,,71,0,4
3328,note_on,,,,,0,0,5,,,74,96,4
3584,note_off,,,,,256,0,5,,,74,0,4
3584,note_on,,,,,0,0,5,,,72,96,4
3584,note_off,,,,,0,0,5,,,67,0,4
3584,note_on,,,,,0,0,5,,,69,96,4
3840,note_off,,,,,256,0,5,,,72,0,4
3840,note_on,,,,,0,0,5,,,76,96,4
4096,note_on,,,,,1024,0,7,,,67,96,6
4096,note_on,,,,,0,0,5,,,71,96,4
4096,note_on,,,,,0,0,5,,,74,96,4
4096,note_on,,,,,0,0,7,,,62,96,6
4096,note_off,,,,,256,0,5,,,76,0,4
4096,note_on,,,,,1024,0,8,,,43,96,7
4096,note_off,,,,,0,0,5,,,69,0,4
4096,note_on,,,,,0,0,8,,,43,96,7
4352,note_on,,,,,0,0,5,,,69,96,4
4352,note_on,,,,,0,0,5,,,72,96,4
4352,note_off,,,,,0,0,5,,,71,0,4
4352,note_off,,,,,256,0,5,,,74,0,4
4608,note_off,,,,,0,0,5,,,69,0,4
4608,note_on,,,,,512,0,7,,,62,96,6
4608,note_on,,,,,1536,0,6,,,62,96,5
4608,note_on,,,,,0,0,6,,,62,96,5
4608,note_off,,,,,256,0,5,,,72,0,4
4608,note_on,,,,,0,0,5,,,71,96,4
4608,note_on,,,,,0,0,5,,,67,96,4
4864,note_on,,,,,0,0,5,,,69,96,4
4864,note_off,,,,,0,0,5,,,67,0,4
4864,note_on,,,,,0,0,5,,,72,96,4
4864,note_off,,,,,256,0,5,,,71,0,4
5120,note_on,,,,,0,0,6,,,67,96,5
5120,note_off,,,,,512,0,6,,,62,0,5
5120,note_off,,,,,512,0,7,,,62,0,6
5120,note_on,,,,,0,0,7,,,67,96,6
5120,note_off,,,,,256,0,5,,,72,0,4
5120,note_on,,,,,0,0,5,,,74,96,4
5120,note_off,,,,,0,0,5,,,69,0,4
5120,note_on,,,,,0,0,5,,,71,96,4
5120,note_off,,,,,0,0,7,,,67,0,6
5120,note_off,,,,,0,0,7,,,62,0,6
5120,note_off,,,,,1024,0,8,,,43,0,7
5120,note_off,,,,,0,0,8,,,43,0,7
5120,note_on,,,,,0,0,6,,,67,96,5
5120,note_off,,,,,0,0,6,,,62,0,5
5376,note_off,,,,,256,0,5,,,71,0,4
5376,note_on,,,,,0,0,5,,,74,96,4
5632,note_off,,,,,512,0,7,,,67,0,6
5632,note_on,,,,,0,0,7,,,69,96,6
5632,note_off,,,,,512,0,6,,,67,0,5
5632,note_on,,,,,0,0,6,,,69,96,5
5632,note_on,,,,,0,0,6,,,69,96,5
5632,note_off,,,,,0,0,6,,,67,0,5
5632,note_off,,,,,256,0,5,,,74,0,4
5632,note_off,,,,,0,0,5,,,74,0,4
5632,note_on,,,,,0,0,5,,,72,96,4
5632,note_on,,,,,0,0,5,,,78,96,4
5888,note_off,,,,,256,0,5,,,72,0,4
5888,note_on,,,,,0,0,5,,,76,96,4
6144,note_off,,,,,0,0,6,,,69,0,5
6144,note_on,,,,,0,0,6,,,71,96,5
6144,note_on,,,,,0,0,5,,,74,96,4
6144,note_off,,,,,512,0,6,,,69,0,5
6144,note_off,,,,,0,0,5,,,76,0,4
6144,note_on,,,,,0,0,6,,,71,96,5
6144,note_off,,,,,256,0,5,,,78,0,4
6144,note_on,,,,,0,0,7,,,71,96,6
6144,note_off,,,,,512,0,7,,,69,0,6
6144,note_on,,,,,0,0,5,,,79,96,4
6400,note_on,,,,,0,0,7,,,69,96,6
6400,note_off,,,,,256,0,7,,,71,0,6
6400,note_off,,,,,256,0,5,,,74,0,4
6400,note_off,,,,,256,0,6,,,71,0,5
6400,note_on,,,,,0,0,6,,,69,96,5
6400,note_on,,,,,0,0,6,,,69,96,5
6400,note_off,,,,,0,0,6,,,71,0,5
6400,note_on,,,,,0,0,5,,,72,96,4
6656,note_on,,,,,1536,0,8,,,50,96,7
6656,note_on,,,,,0,0,8,,,50,96,7
6656,note_off,,,,,256,0,6,,,69,0,5
6656,note_off,,,,,256,0,5,,,79,0,4
6656,note_on,,,,,0,0,6,,,67,96,5
6656,note_off,,,,,0,0,5,,,72,0,4
6656,note_on,,,,,0,0,5,,,71,96,4
6656,note_off,,,,,256,0,7,,,69,0,6
6656,note_on,,,,,0,0,7,,,67,96,6
6656,note_on,,,,,0,0,5,,,74,96,4
6656,note_on,,,,,0,0,7,,,62,96,6
6656,note_on,,,,,0,0,6,,,67,96,5
6656,note_on,,,,,0,0,7,,,66,96,6
6656,note_off,,,,,0,0,6,,,69,0,5
6912,note_on,,,,,0,0,6,,,69,96,5
6912,note_off,,,,,256,0,6,,,67,0,5
6912,note_off,,,,,256,0,5,,,74,0,4
6912,note_on,,,,,0,0,5,,,72,96,4
6912,note_off,,,,,0,0,5,,,71,0,4
6912,note_on,,,,,0,0,5,,,69,96,4
6912,note_on,,,,,0,0,7,,,69,96,6
6912,note_off,,,,,0,0,6,,,67,0,5
6912,note_off,,,,,256,0,7,,,67,0,6
6912,note_on,,,,,0,0,6,,,69,96,5
7168,note_on,,,,,0,0,7,,,67,96,6
7168,note_on,,,,,0,0,7,,,62,96,6
7168,note_off,,,,,0,0,7,,,62,0,6
7168,note_off,,,,,256,0,7,,,69,0,6
7168,note_on,,,,,0,0,7,,,71,96,6
7168,note_off,,,,,0,0,7,,,66,0,6
7168,note_off,,,,,256,0,5,,,72,0,4
7168,note_on,,,,,0,0,8,,,43,96,7
7168,note_off,,,,,0,0,8,,,50,0,7
7168,note_on,,,,,0,0,8,,,55,96,7
7168,note_off,,,,,0,0,6,,,69,0,5
7168,note_off,,,,,512,0,8,,,50,0,7
7168,note_on,,,,,0,0,6,,,71,96,5
7168,note_on,,,,,0,0,5,,,71,96,4
7168,note_off,,,,,0,0,5,,,69,0,4
7168,note_on,,,,,0,0,5,,,67,96,4
7168,note_on,,,,,0,0,6,,,71,96,5
7168,note_off,,,,,256,0,6,,,69,0,5
7424,note_off,,,,,0,0,6,,,71,0,5
7424,note_off,,,,,256,0,6,,,71,0,5
7424,note_off,,,,,256,0,5,,,71,0,4
7424,note_on,,,,,0,0,5,,,72,96,4
7424,note_on,,,,,0,0,6,,,72,96,5
7424,note_on,,,,,0,0,7,,,72,96,6
7424,note_off,,,,,256,0,7,,,71,0,6
7424,note_on,,,,,0,0,6,,,72,96,5
7680,note_off,,,,,256,0,7,,,72,0,6
7680,note_on,,,,,0,0,7,,,71,96,6
7680,note_off,,,,,0,0,7,,,67,0,6
7680,note_on,,,,,0,0,7,,,66,96,6
7680,note_on,,,,,0,0,6,,,71,96,5
7680,note_on,,,,,0,0,6,,,71,96,5
7680,note_off,,,,,0,0,6,,,72,0,5
7680,note_on,,,,,0,0,5,,,62,96,4
7680,note_on,,,,,0,0,5,,,71,96,4
7680,note_off,,,,,256,0,5,,,72,0,4
7680,note_off,,,,,0,0,7,,,62,0,6
7680,note_on,,,,,0,0,8,,,57,96,7
7680,note_off,,,,,0,0,8,,,55,0,7
7680,note_on,,,,,0,0,8,,,50,96,7
7680,note_off,,,,,512,0,8,,,43,0,7
7680,note_off,,,,,256,0,6,,,72,0,5
7680,note_on,,,,,0,0,7,,,60,96,6
7680,note_off,,,,,0,0,5,,,67,0,4
7936,note_on,,,,,0,0,5,,,72,96,4
7936,note_off,,,,,256,0,7,,,71,0,6
7936,note_off,,,,,256,0,5,,,71,0,4
7936,note_off,,,,,0,0,6,,,71,0,5
7936,note_on,,,,,0,0,7,,,72,96,6
7936,note_on,,,,,0,0,6,,,72,96,5
7936,note_on,,,,,0,0,6,,,72,96,5
7936,note_off,,,,,256,0,6,,,71,0,5
8192,note_off,,,,,256,0,5,,,72,0,4
8192,note_on,,,,,0,0,5,,,74,96,4
8192,note_on,,,,,0,0,5,,,67,96,4
8192,note_on,,,,,0,0,8,,,59,96,7
8192,note_on,,,,,0,0,8,,,43,96,7
8192,note_off,,,,,256,0,6,,,72,0,5
8192,note_off,,,,,512,0,8,,,50,0,7
8192,note_on,,,,,0,0,7,,,59,96,6
8192,note_on,,,,,0,0,7,,,67,96,6
8192,note_on,,,,,0,0,7,,,74,96,6
8192,note_off,,,,,0,0,7,,,60,0,6
8192,note_off,,,,,0,0,7,,,66,0,6
8192,note_off,,,,,256,0,7,,,72,0,6
8192,note_off,,,,,0,0,8,,,57,0,7
8192,note_off,,,,,0,0,5,,,62,0,4
8192,note_off,,,,,0,0,6,,,72,0,5
8192,note_on,,,,,0,0,6,,,74,96,5
8192,note_on,,,,,0,0,6,,,74,96,5
8448,note_on,,,,,0,0,6,,,79,96,5
8448,note_on,,,,,0,0,7,,,79,96,6
8448,note_off,,,,,256,0,6,,,74,0,5
8448,note_off,,,,,256,0,7,,,74,0,6
8448,note_on,,,,,0,0,6,,,79,96,5
8448,note_off,,,,,0,0,6,,,74,0,5
8704,note_off,,,,,256,0,7,,,79,0,6
8704,note_on,,,,,0,0,7,,,78,96,6
8704,note_off,,,,,0,0,7,,,59,0,6
8704,note_on,,,,,0,0,7,,,57,96,6
8704,note_off,,,,,512,0,8,,,43,0,7
8704,note_off,,,,,256,0,6,,,79,0,5
8704,note_on,,,,,0,0,6,,,78,96,5
8704,note_off,,,,,0,0,5,,,67,0,4
8704,note_off,,,,,512,0,5,,,74,0,4
8704,note_off,,,,,0,0,6,,,79,0,5
8704,note_on,,,,,0,0,8,,,60,96,7
8704,note_off,,,,,0,0,8,,,59,0,7
8704,note_on,,,,,0,0,6,,,78,96,5
8960,note_on,,,,,0,0,7,,,76,96,6
8960,note_on,,,,,0,0,6,,,76,96,5
8960,note_on,,,,,0,0,6,,,76,96,5
8960,note_off,,,,,0,0,6,,,78,0,5
8960,note_off,,,,,256,0,6,,,78,0,5
8960,note_off,,,,,256,0,7,,,78,0,6
9216,note_on,,,,,0,0,7,,,74,96,6
9216,note_on,,,,,0,0,8,,,62,96,7
9216,note_off,,,,,256,0,7,,,76,0,6
9216,note_off,,,,,512,0,8,,,60,0,7
9216,note_off,,,,,0,0,7,,,57,0,6
9216,note_on,,,,,0,0,7,,,57,96,6
9216,note_off,,,,,256,0,6,,,76,0,5
9216,note_on,,,,,0,0,6,,,74,96,5
9216,note_on,,,,,0,0,6,,,74,96,5
9216,note_off,,,,,0,0,6,,,76,0,5
9472,note_off,,,,,256,0,6,,,74,0,5
9472,note_off,,,,,0,0,6,,,74,0,5
9472,note_on,,,,,0,0,6,,,72,96,5
9472,note_on,,,,,0,0,7,,,72,96,6
9472,note_off,,,,,256,0,7,,,74,0,6
9472,note_on,,,,,0,0,6,,,72,96,5
9728,note_off,,,,,0,0,8,,,62,0,7
9728,note_on,,,,,0,0,8,,,50,96,7
9728,note_on,,,,,512,0,8,,,50,96,7
9728,note_off,,,,,0,0,7,,,57,0,6
9728,note_on,,,,,0,0,7,,,62,96,6
9728,note_off,,,,,256,0,7,,,72,0,6
9728,note_on,,,,,0,0,7,,,66,96,6
9728,note_on,,,,,0,0,7,,,71,96,6
9728,note_off,,,,,0,0,7,,,67,0,6
9728,note_on,,,,,0,0,5,,,69,96,4
9728,note_off,,,,,256,0,6,,,72,0,5
9728,note_on,,,,,0,0,6,,,71,96,5
9728,note_on,,,,,0,0,6,,,71,96,5
9728,note_off,,,,,0,0,6,,,72,0,5
9728,note_on,,,,,1024,0,5,,,78,96,4
9984,note_off,,,,,256,0,6,,,71,0,5
9984,note_on,,,,,0,0,6,,,72,96,5
9984,note_off,,,,,256,0,7,,,71,0,6
9984,note_on,,,,,0,0,7,,,72,96,6
9984,note_off,,,,,0,0,6,,,71,0,5
9984,note_on,,,,,0,0,6,,,72,96,5
10240,note_on,,,,,0,0,8,,,43,96,7
10240,note_off,,,,,512,0,8,,,50,0,7
10240,note_off,,,,,256,0,6,,,72,0,5
10240,note_on,,,,,0,0,5,,,71,96,4
10240,note_off,,,,,512,0,5,,,78,0,4
10240,note_on,,,,,0,0,5,,,79,96,4
10240,note_off,,,,,0,0,5,,,69,0,4
10240,note_off,,,,,0,0,8,,,50,0,7
10240,note_on,,,,,0,0,7,,,71,96,6
10240,note_off,,,,,256,0,7,,,72,0,6
10240,note_on,,,,,0,0,6,,,71,96,5
10240,note_on,,,,,0,0,8,,,55,96,7
10240,note_off,,,,,0,0,6,,,72,0,5
10240,note_on,,,,,0,0,6,,,71,96,5
10496,note_off,,,,,256,0,6,,,71,0,5
10496,note_on,,,,,0,0,7,,,76,96,6
10496,note_off,,,,,256,0,7,,,71,0,6
10496,note_on,,,,,0,0,6,,,76,96,5
10496,note_on,,,,,0,0,6,,,76,96,5
10496,note_off,,,,,0,0,6,,,71,0,5
10752,note_off,,,,,256,0,6,,,76,0,5
10752,note_on,,,,,0,0,6,,,74,96,5
10752,note_on,,,,,0,0,6,,,74,96,5
10752,note_off,,,,,0,0,6,,,76,0,5
10752,note_off,,,,,512,0,5,,,79,0,4
10752,note_off,,,,,256,0,7,,,76,0,6
10752,note_on,,,,,0,0,7,,,74,96,6
10752,note_off,,,,,0,0,7,,,66,0,6
10752,note_on,,,,,0,0,7,,,64,96,6
10752,note_off,,,,,0,0,7,,,62,0,6
10752,note_off,,,,,0,0,5,,,71,0,4
10752,note_off,,,,,512,0,8,,,43,0,7
10752,note_off,,,,,0,0,8,,,55,0,7
10752,note_on,,,,,0,0,8,,,57,96,7
10752,note_on,,,,,0,0,7,,,57,96,6
11008,note_off,,,,,256,0,7,,,74,0,6
11008,note_off,,,,,0,0,6,,,74,0,5
11008,note_on,,,,,0,0,7,,,72,96,6
11008,note_off,,,,,256,0,6,,,74,0,5
11008,note_on,,,,,0,0,6,,,72,96,5
11008,note_on,,,,,0,0,6,,,72,96,5
11264,note_off,,,,,512,0,8,,,57,0,7
11264,note_on,,,,,0,0,8,,,59,96,7
11264,note_on,,,,,0,0,7,,,71,96,6
11264,note_off,,,,,256,0,7,,,72,0,6
11264,note_off,,,,,0,0,6,,,72,0,5
11264,note_off,,,,,256,0,6,,,72,0,5
11264,note_off,,,,,0,0,7,,,57,0,6
11264,note_on,,,,,0,0,6,,,71,96,5
11264,note_on,,,,,0,0,6,,,71,96,5
11264,note_on,,,,,0,0,7,,,54,96,6
11520,note_on,,,,,0,0,7,,,69,96,6
11520,note_off,,,,,0,0,6,,,71,0,5
11520,note_on,,,,,0,0,6,,,69,96,5
11520,note_on,,,,,0,0,6,,,69,96,5
11520,note_off,,,,,256,0,6,,,71,0,5
11520,note_off,,,,,256,0,7,,,71,0,6
11776,note_off,,,,,0,0,7,,,64,0,6
11776,note_off,,,,,256,0,7,,,69,0,6
11776,note_off,,,,,0,0,7,,,54,0,6
11776,note_on,,,,,0,0,7,,,59,96,6
11776,note_on,,,,,0,0,7,,,67,96,6
11776,note_on,,,,,0,0,7,,,63,96,6
11776,note_off,,,,,512,0,8,,,59,0,7
11776,note_on,,,,,0,0,8,,,47,96,7
11776,note_off,,,,,0,0,6,,,69,0,5
11776,note_on,,,,,0,0,5,,,71,96,4
11776,note_on,,,,,1024,0,5,,,78,96,4
11776,note_off,,,,,256,0,6,,,69,0,5
11776,note_on,,,,,0,0,6,,,67,96,5
11776,note_on,,,,,0,0,6,,,67,96,5
12032,note_off,,,,,0,0,6,,,67,0,5
12032,note_off,,,,,256,0,6,,,67,0,5
12032,note_on,,,,,0,0,6,,,69,96,5
12032,note_on,,,,,0,0,6,,,69,96,5
12032,note_on,,,,,0,0,7,,,69,96,6
12032,note_off,,,,,256,0,7,,,67,0,6
12288,note_on,,,,,0,0,7,,,64,96,6
12288,note_on,,,,,0,0,7,,,67,96,6
12288,note_off,,,,,0,0,7,,,59,0,6
12288,note_off,,,,,256,0,6,,,69,0,5
12288,note_off,,,,,0,0,6,,,69,0,5
12288,note_on,,,,,0,0,6,,,67,96,5
12288,note_on,,,,,0,0,6,,,67,96,5
12288,note_on,,,,,0,0,5,,,76,96,4
12288,note_on,,,,,0,0,5,,,67,96,4
12288,note_on,,,,,0,0,8,,,52,96,7
12288,note_off,,,,,512,0,8,,,47,0,7
12288,note_off,,,,,512,0,5,,,78,0,4
12288,note_off,,,,,256,0,7,,,69,0,6
12288,note_off,,,,,0,0,7,,,63,0,6
12288,note_off,,,,,0,0,5,,,71,0,4
12544,note_on,,,,,0,0,7,,,72,96,6
12544,note_on,,,,,0,0,6,,,72,96,5
12544,note_off,,,,,0,0,6,,,67,0,5
12544,note_off,,,,,256,0,7,,,67,0,6
12544,note_on,,,,,0,0,6,,,72,96,5
12544,note_off,,,,,256,0,6,,,67,0,5
12800,note_on,,,,,0,0,6,,,71,96,5
12800,note_on,,,,,0,0,6,,,71,96,5
12800,note_off,,,,,0,0,6,,,72,0,5
12800,note_off,,,,,256,0,6,,,72,0,5
12800,note_on,,,,,0,0,7,,,71,96,6
12800,note_off,,,,,0,0,7,,,64,0,6
12800,note_on,,,,,0,0,7,,,72,96,6
12800,note_off,,,,,512,0,8,,,52,0,7
12800,note_off,,,,,256,0,7,,,72,0,6
12800,note_on,,,,,0,0,8,,,53,96,7
12800,note_off,,,,,512,0,5,,,76,0,4
12800,note_off,,,,,0,0,5,,,67,0,4
13056,note_off,,,,,256,0,6,,,71,0,5
13056,note_on,,,,,0,0,6,,,69,96,5
13056,note_off,,,,,0,0,6,,,71,0,5
13056,note_on,,,,,0,0,6,,,69,96,5
13056,note_off,,,,,256,0,7,,,71,0,6
13056,note_on,,,,,0,0,7,,,69,96,6
13312,note_off,,,,,256,0,7,,,69,0,6
13312,note_on,,,,,0,0,7,,,67,96,6
13312,note_off,,,,,256,0,6,,,69,0,5
13312,note_on,,,,,0,0,6,,,67,96,5
13312,note_on,,,,,0,0,6,,,67,96,5
13312,note_off,,,,,0,0,6,,,69,0,5
13312,note_off,,,,,512,0,8,,,53,0,7
13312,note_on,,,,,0,0,8,,,55,96,7
13568,note_off,,,,,0,0,6,,,67,0,5
13568,note_on,,,,,0,0,6,,,65,96,5
13568,note_off,,,,,256,0,6,,,67,0,5
13568,note_off,,,,,256,0,7,,,67,0,6
13568,note_on,,,,,0,0,7,,,65,96,6
13568,note_on,,,,,0,0,6,,,65,96,5
13824,note_on,,,,,1024,0,5,,,74,96,4
13824,note_off,,,,,512,0,8,,,55,0,7
13824,note_on,,,,,0,0,8,,,43,96,7
13824,note_on,,,,,0,0,5,,,67,96,4
13824,note_off,,,,,0,0,6,,,65,0,5
13824,note_off,,,,,256,0,7,,,65,0,6
13824,note_on,,,,,0,0,7,,,64,96,6
13824,note_off,,,,,0,0,7,,,72,0,6
13824,note_on,,,,,0,0,7,,,71,96,6
13824,note_on,,,,,0,0,6,,,64,96,5
13824,note_on,,,,,0,0,6,,,64,96,5
13824,note_off,,,,,256,0,6,,,65,0,5
14080,note_off,,,,,0,0,6,,,64,0,5
14080,note_on,,,,,0,0,6,,,65,96,5
14080,note_off,,,,,256,0,6,,,64,0,5
14080,note_on,,,,,0,0,7,,,65,96,6
14080,note_on,,,,,0,0,6,,,65,96,5
14080,note_off,,,,,256,0,7,,,64,0,6
14336,note_on,,,,,0,0,8,,,48,96,7
14336,note_off,,,,,0,0,6,,,65,0,5
14336,note_on,,,,,0,0,6,,,64,96,5
14336,note_off,,,,,256,0,6,,,65,0,5
14336,note_off,,,,,512,0,5,,,74,0,4
14336,note_on,,,,,0,0,5,,,76,96,4
14336,note_off,,,,,0,0,5,,,67,0,4
14336,note_on,,,,,0,0,5,,,67,96,4
14336,note_off,,,,,512,0,8,,,43,0,7
14336,note_on,,,,,0,0,6,,,64,96,5
14336,note_on,,,,,0,0,7,,,64,96,6
14336,note_off,,,,,256,0,7,,,65,0,6
14592,note_off,,,,,0,0,6,,,64,0,5
14592,note_on,,,,,0,0,7,,,67,96,6
14592,note_off,,,,,256,0,7,,,64,0,6
14592,note_off,,,,,256,0,6,,,64,0,5
14592,note_on,,,,,0,0,6,,,67,96,5
14592,note_on,,,,,0,0,6,,,67,96,5
14848,note_on,,,,,0,0,7,,,69,96,6
14848,note_off,,,,,0,0,7,,,71,0,6
14848,note_on,,,,,0,0,7,,,66,96,6
14848,note_off,,,,,256,0,7,,,67,0,6
14848,note_off,,,,,256,0,6,,,67,0,5
14848,note_on,,,,,0,0,6,,,66,96,5
14848,note_off,,,,,512,0,5,,,76,0,4
14848,note_on,,,,,0,0,6,,,66,96,5
14848,note_on,,,,,0,0,5,,,74,96,4
14848,note_off,,,,,0,0,5,,,67,0,4
14848,note_on,,,,,0,0,5,,,69,96,4
14848,note_off,,,,,0,0,6,,,67,0,5
14848,note_on,,,,,0,0,8,,,60,96,7
14848,note_off,,,,,512,0,8,,,48,0,7
15104,note_off,,,,,256,0,6,,,66,0,5
15104,note_on,,,,,0,0,6,,,69,96,5
15104,note_on,,,,,0,0,6,,,69,96,5
15104,note_off,,,,,0,0,6,,,66,0,5
15104,note_on,,,,,0,0,7,,,69,96,6
15104,note_off,,,,,256,0,7,,,66,0,6
15360,note_on,,,,,0,0,7,,,67,96,6
15360,note_off,,,,,256,0,6,,,69,0,5
15360,note_on,,,,,0,0,5,,,71,96,4
15360,note_off,,,,,0,0,5,,,69,0,4
15360,note_on,,,,,0,0,5,,,74,96,4
15360,note_off,,,,,512,0,5,,,74,0,4
15360,note_off,,,,,512,0,8,,,60,0,7
15360,note_off,,,,,256,0,7,,,69,0,6
15360,note_on,,,,,0,0,8,,,59,96,7
15360,note_on,,,,,0,0,6,,,67,96,5
15360,note_off,,,,,0,0,6,,,69,0,5
15360,note_on,,,,,0,0,7,,,74,96,6
15360,note_off,,,,,0,0,7,,,69,0,6
15360,note_on,,,,,0,0,6,,,67,96,5
15616,note_on,,,,,0,0,6,,,79,96,5
15616,note_on,,,,,0,0,6,,,79,96,5
15616,note_off,,,,,256,0,6,,,67,0,5
15616,note_on,,,,,0,0,7,,,79,96,6
15616,note_off,,,,,256,0,7,,,67,0,6
15616,note_off,,,,,0,0,6,,,67,0,5
15872,note_off,,,,,256,0,6,,,79,0,5
15872,note_on,,,,,0,0,6,,,78,96,5
15872,note_on,,,,,0,0,6,,,78,96,5
15872,note_off,,,,,0,0,6,,,79,0,5
15872,note_off,,,,,0,0,7,,,74,0,6
15872,note_on,,,,,0,0,7,,,72,96,6
15872,note_off,,,,,512,0,8,,,59,0,7
15872,note_on,,,,,0,0,7,,,78,96,6
15872,note_off,,,,,256,0,7,,,79,0,6
15872,note_on,,,,,0,0,8,,,57,96,7
15872,note_off,,,,,512,0,5,,,71,0,4
15872,note_on,,,,,0,0,5,,,72,96,4
16128,note_off,,,,,0,0,6,,,78,0,5
16128,note_on,,,,,0,0,6,,,76,96,5
16128,note_on,,,,,0,0,6,,,76,96,5
16128,note_off,,,,,256,0,6,,,78,0,5
16128,note_on,,,,,0,0,7,,,76,96,6
16128,note_off,,,,,256,0,7,,,78,0,6
16384,note_on,,,,,0,0,7,,,74,96,6
16384,note_on,,,,,0,0,7,,,71,96,6
16384,note_on,,,,,0,0,6,,,74,96,5
16384,note_on,,,,,0,0,6,,,74,96,5
16384,note_off,,,,,0,0,7,,,72,0,6
16384,note_off,,,,,0,0,6,,,76,0,5
16384,note_off,,,,,512,0,5,,,72,0,4
16384,note_off,,,,,512,0,8,,,57,0,7
16384,note_on,,,,,0,0,8,,,59,96,7
16384,note_on,,,,,0,0,5,,,71,96,4
16384,note_off,,,,,256,0,6,,,76,0,5
16384,note_off,,,,,256,0,7,,,76,0,6
16640,note_off,,,,,256,0,7,,,74,0,6
16640,note_on,,,,,0,0,7,,,72,96,6
16640,note_off,,,,,0,0,6,,,74,0,5
16640,note_off,,,,,256,0,6,,,74,0,5
16640,note_on,,,,,0,0,6,,,72,96,5
16640,note_off,,,,,256,0,5,,,74,0,4
16640,note_on,,,,,0,0,5,,,72,96,4
16640,note_off,,,,,0,0,5,,,71,0,4
16640,note_on,,,,,0,0,6,,,72,96,5
16640,note_on,,,,,0,0,5,,,69,96,4
16896,note_off,,,,,0,0,7,,,71,0,6
16896,note_on,,,,,0,0,6,,,71,96,5
16896,note_off,,,,,256,0,6,,,72,0,5
16896,note_on,,,,,0,0,6,,,71,96,5
16896,note_on,,,,,0,0,8,,,60,96,7
16896,note_off,,,,,0,0,8,,,59,0,7
16896,note_on,,,,,0,0,7,,,71,96,6
16896,note_off,,,,,256,0,7,,,72,0,6
16896,note_off,,,,,256,0,5,,,72,0,4
16896,note_on,,,,,0,0,5,,,71,96,4
16896,note_off,,,,,0,0,5,,,69,0,4
16896,note_on,,,,,0,0,5,,,67,96,4
16896,note_on,,,,,512,0,8,,,43,96,7
16896,note_off,,,,,0,0,6,,,72,0,5
16896,note_on,,,,,0,0,7,,,67,96,6
17152,note_on,,,,,0,0,5,,,72,96,4
17152,note_off,,,,,0,0,6,,,71,0,5
17152,note_on,,,,,0,0,6,,,72,96,5
17152,note_off,,,,,256,0,5,,,71,0,4
17152,note_off,,,,,256,0,6,,,71,0,5
17152,note_on,,,,,0,0,7,,,72,96,6
17152,note_off,,,,,256,0,7,,,71,0,6
17152,note_on,,,,,0,0,6,,,72,96,5
17280,note_off,,,,,128,0,6,,,72,0,5
17280,note_on,,,,,0,0,6,,,74,96,5
17280,note_off,,,,,128,0,7,,,72,0,6
17280,note_on,,,,,0,0,6,,,74,96,5
17280,note_off,,,,,0,0,6,,,72,0,5
17280,note_on,,,,,0,0,7,,,74,96,6
17408,note_off,,,,,128,0,6,,,74,0,5
17408,note_on,,,,,0,0,6,,,69,96,5
17408,note_on,,,,,0,0,6,,,69,96,5
17408,note_off,,,,,0,0,6,,,74,0,5
17408,note_on,,,,,0,0,5,,,69,96,4
17408,note_off,,,,,0,0,8,,,60,0,7
17408,note_off,,,,,0,0,5,,,67,0,4
17408,note_off,,,,,512,0,8,,,43,0,7
17408,note_on,,,,,0,0,5,,,62,96,4
17408,note_on,,,,,0,0,8,,,50,96,7
17408,note_off,,,,,0,0,7,,,67,0,6
17408,note_on,,,,,0,0,7,,,69,96,6
17408,note_off,,,,,256,0,5,,,72,0,4
17408,note_on,,,,,0,0,7,,,67,96,6
17408,note_on,,,,,0,0,8,,,62,96,7
17408,note_off,,,,,128,0,7,,,74,0,6
17664,note_off,,,,,256,0,5,,,62,0,4
17664,note_on,,,,,0,0,5,,,59,96,4
17664,note_on,,,,,0,0,8,,,50,96,7
17664,note_off,,,,,256,0,8,,,50,0,7
17920,note_off,,,,,256,0,5,,,59,0,4
17920,note_on,,,,,0,0,5,,,62,96,4
17920,note_on,,,,,0,0,8,,,50,96,7
17920,note_off,,,,,0,0,8,,,62,0,7
17920,note_off,,,,,512,0,7,,,67,0,6
17920,note_off,,,,,256,0,8,,,50,0,7
17920,note_on,,,,,0,0,8,,,50,96,7
17920,note_on,,,,,0,0,7,,,66,96,6
18176,note_off,,,,,0,0,6,,,69,0,5
18176,note_on,,,,,0,0,5,,,67,96,4
18176,note_off,,,,,256,0,5,,,69,0,4
18176,note_off,,,,,768,0,6,,,69,0,5
18176,note_on,,,,,0,0,6,,,67,96,5
18176,note_on,,,,,0,0,6,,,67,96,5
18176,note_off,,,,,256,0,8,,,50,0,7
18176,note_on,,,,,0,0,7,,,67,96,6
18176,note_off,,,,,256,0,7,,,69,0,6
18176,note_on,,,,,0,0,8,,,50,96,7
18432,note_on,,,,,0,0,7,,,67,96,6
18432,note_on,,,,,0,0,6,,,67,96,5
18432,note_off,,,,,256,0,6,,,67,0,5
18432,note_on,,,,,0,0,7,,,62,96,6
18432,note_off,,,,,0,0,7,,,66,0,6
18432,note_off,,,,,256,0,5,,,67,0,4
18432,note_off,,,,,256,0,7,,,67,0,6
18432,note_on,,,,,0,0,6,,,67,96,5
18432,note_off,,,,,0,0,6,,,67,0,5
18432,note_on,,,,,0,0,5,,,67,96,4
18432,note_on,,,,,0,0,8,,,43,96,7
18432,note_off,,,,,0,0,5,,,62,0,4
18432,note_on,,,,,0,0,8,,,43,96,7
18432,note_off,,,,,0,0,8,,,50,0,7
18432,note_off,,,,,256,0,8,,,50,0,7
18432,note_on,,,,,0,0,5,,,59,96,4
18944,note_on,,,,,0,0,8,,,50,96,7
18944,note_on,,,,,512,0,7,,,55,96,6
18944,note_off,,,,,512,0,8,,,43,0,7
19456,note_off,,,,,0,0,5,,,59,0,4
19456,note_off,,,,,1024,0,6,,,67,0,5
19456,note_off,,,,,0,0,6,,,67,0,5
19456,note_on,,,,,19456,0,4,,,55,96,3
19456,note_off,,,,,512,0,7,,,67,0,6
19456,note_off,,,,,1024,0,5,,,67,0,4
19456,note_off,,,,,0,0,7,,,55,0,6
19456,note_on,,,,,0,0,7,,,55,96,6
19456,note_on,,,,,19456,0,1,,,62,96,0
19456,note_on,,,,,19456,0,3,,,55,96,2
19456,note_off,,,,,512,0,8,,,43,0,7
19456,note_off,,,,,0,0,8,,,50,0,7
19456,note_on,,,,,0,0,8,,,55,96,7
19456,note_on,,,,,19456,0,2,,,59,96,1
19456,note_off,,,,,0,0,7,,,62,0,6
19968,note_off,,,,,512,0,3,,,55,0,2
19968,note_on,,,,,0,0,3,,,57,96,2
19968,note_on,,,,,0,0,4,,,54,96,3
19968,note_off,,,,,512,0,4,,,55,0,3
19968,note_on,,,,,0,0,8,,,54,96,7
19968,note_off,,,,,512,0,7,,,55,0,6
19968,note_on,,,,,0,0,7,,,52,96,6
19968,note_off,,,,,512,0,8,,,55,0,7
19968,note_on,,,,,512,0,5,,,62,96,4
20480,note_off,,,,,512,0,4,,,54,0,3
20480,note_on,,,,,0,0,3,,,59,96,2
20480,note_off,,,,,512,0,8,,,54,0,7
20480,note_off,,,,,512,0,3,,,57,0,2
20480,note_on,,,,,0,0,5,,,67,96,4
20480,note_on,,,,,0,0,8,,,52,96,7
20480,note_off,,,,,1024,0,1,,,62,0,0
20480,note_on,,,,,0,0,4,,,52,96,3
20480,note_off,,,,,512,0,7,,,52,0,6
20480,note_on,,,,,0,0,2,,,64,96,1
20480,note_off,,,,,1024,0,2,,,59,0,1
20480,note_off,,,,,512,0,5,,,62,0,4
20480,note_on,,,,,0,0,1,,,67,96,0
20736,note_off,,,,,256,0,5,,,67,0,4
20736,note_on,,,,,0,0,5,,,69,96,4
20992,note_off,,,,,512,0,4,,,52,0,3
20992,note_on,,,,,0,0,4,,,50,96,3
20992,note_off,,,,,256,0,5,,,69,0,4
20992,note_off,,,,,512,0,8,,,52,0,7
20992,note_on,,,,,0,0,8,,,50,96,7
20992,note_on,,,,,0,0,5,,,62,96,4
20992,note_on,,,,,0,0,5,,,67,96,4
21504,note_off,,,,,1024,0,1,,,67,0,0
21504,note_on,,,,,0,0,5,,,67,96,4
21504,note_off,,,,,0,0,5,,,62,0,4
21504,note_on,,,,,0,0,3,,,57,96,2
21504,note_off,,,,,512,0,4,,,50,0,3
21504,note_on,,,,,0,0,4,,,48,96,3
21504,note_off,,,,,512,0,5,,,67,0,4
21504,note_off,,,,,1024,0,3,,,59,0,2
21504,note_on,,,,,0,0,1,,,69,96,0
21504,note_on,,,,,0,0,8,,,48,96,7
21504,note_off,,,,,512,0,8,,,50,0,7
22016,note_off,,,,,512,0,4,,,48,0,3
22016,note_on,,,,,0,0,5,,,62,96,4
22016,note_off,,,,,1536,0,2,,,64,0,1
22016,note_on,,,,,0,0,4,,,50,96,3
22016,note_on,,,,,0,0,8,,,50,96,7
22016,note_off,,,,,0,0,5,,,67,0,4
22016,note_on,,,,,512,0,5,,,69,96,4
22016,note_off,,,,,512,0,8,,,48,0,7
22016,note_on,,,,,0,0,2,,,66,96,1
22528,note_on,,,,,0,0,5,,,71,96,4
22528,note_off,,,,,512,0,2,,,66,0,1
22528,note_off,,,,,512,0,4,,,50,0,3
22528,note_off,,,,,512,0,5,,,69,0,4
22528,note_on,,,,,0,0,2,,,67,96,1
22528,note_on,,,,,0,0,4,,,55,96,3
22528,note_off,,,,,0,0,5,,,62,0,4
22528,note_on,,,,,512,0,8,,,43,96,7
22528,note_on,,,,,0,0,3,,,55,96,2
22528,note_off,,,,,1024,0,3,,,57,0,2
22528,note_off,,,,,1024,0,1,,,69,0,0
22528,note_on,,,,,0,0,1,,,71,96,0
22528,note_off,,,,,0,0,8,,,50,0,7
22528,note_on,,,,,0,0,8,,,43,96,7
22784,note_off,,,,,256,0,5,,,71,0,4
22784,note_on,,,,,0,0,5,,,72,96,4
23040,note_on,,,,,0,0,5,,,62,96,4
23040,note_off,,,,,512,0,8,,,43,0,7
23040,note_on,,,,,0,0,7,,,67,96,6
23040,note_on,,,,,0,0,7,,,55,96,6
23040,note_on,,,,,0,0,6,,,62,96,5
23040,note_on,,,,,0,0,5,,,71,96,4
23040,note_off,,,,,256,0,5,,,72,0,4
23040,note_on,,,,,3584,0,6,,,62,96,5
23040,note_on,,,,,0,0,8,,,55,96,7
23040,note_on,,,,,2560,0,7,,,62,96,6
23552,note_off,,,,,0,0,5,,,62,0,4
23552,note_on,,,,,0,0,6,,,67,96,5
23552,note_on,,,,,0,0,6,,,67,96,5
23552,note_off,,,,,512,0,6,,,62,0,5
23552,note_on,,,,,0,0,1,,,76,96,0
23552,note_off,,,,,1024,0,2,,,67,0,1
23552,note_on,,,,,0,0,2,,,60,96,1
23552,note_off,,,,,1024,0,4,,,55,0,3
23552,note_on,,,,,0,0,3,,,55,96,2
23552,note_off,,,,,1024,0,3,,,55,0,2
23552,note_off,,,,,1024,0,1,,,71,0,0
23552,note_off,,,,,512,0,7,,,62,0,6
23552,note_on,,,,,0,0,7,,,67,96,6
23552,note_on,,,,,0,0,7,,,67,96,6
23552,note_off,,,,,0,0,7,,,67,0,6
23552,note_off,,,,,0,0,7,,,55,0,6
23552,note_on,,,,,0,0,7,,,55,96,6
23552,note_on,,,,,0,0,5,,,67,96,4
23552,note_off,,,,,0,0,6,,,62,0,5
23552,note_off,,,,,512,0,5,,,71,0,4
23552,note_off,,,,,512,0,8,,,43,0,7
23552,note_off,,,,,0,0,8,,,55,0,7
23552,note_on,,,,,0,0,8,,,52,96,7
23808,note_on,,,,,0,0,5,,,69,96,4
23808,note_off,,,,,256,0,5,,,67,0,4
24064,note_off,,,,,0,0,6,,,67,0,5
24064,note_on,,,,,0,0,7,,,52,96,6
24064,note_off,,,,,0,0,7,,,55,0,6
24064,note_on,,,,,0,0,7,,,60,96,6
24064,note_on,,,,,0,0,8,,,48,96,7
24064,note_off,,,,,512,0,8,,,52,0,7
24064,note_on,,,,,512,0,4,,,60,96,3
24064,note_off,,,,,512,0,6,,,67,0,5
24064,note_on,,,,,0,0,6,,,69,96,5
24064,note_off,,,,,0,0,7,,,67,0,6
24064,note_on,,,,,0,0,7,,,69,96,6
24064,note_off,,,,,512,0,7,,,67,0,6
24064,note_on,,,,,0,0,6,,,69,96,5
24064,note_on,,,,,0,0,5,,,67,96,4
24064,note_off,,,,,0,0,5,,,69,0,4
24064,note_on,,,,,256,0,5,,,76,96,4
24576,note_on,,,,,0,0,6,,,71,96,5
24576,note_off,,,,,0,0,5,,,67,0,4
24576,note_on,,,,,0,0,5,,,74,96,4
24576,note_off,,,,,512,0,6,,,69,0,5
24576,note_off,,,,,512,0,8,,,48,0,7
24576,note_on,,,,,0,0,8,,,55,96,7
24576,note_on,,,,,0,0,6,,,71,96,5
24576,note_off,,,,,0,0,6,,,69,0,5
24576,note_off,,,,,512,0,5,,,76,0,4
24576,note_on,,,,,0,0,1,,,74,96,0
24576,note_on,,,,,0,0,3,,,55,96,2
24576,note_off,,,,,1024,0,2,,,60,0,1
24576,note_off,,,,,512,0,4,,,60,0,3
24576,note_off,,,,,1024,0,3,,,55,0,2
24576,note_off,,,,,512,0,7,,,69,0,6
24576,note_off,,,,,0,0,7,,,60,0,6
24576,note_off,,,,,0,0,7,,,52,0,6
24576,note_on,,,,,0,0,4,,,59,96,3
24576,note_on,,,,,0,0,7,,,71,96,6
24576,note_on,,,,,0,0,7,,,55,96,6
24576,note_off,,,,,1024,0,1,,,76,0,0
24576,note_on,,,,,0,0,7,,,62,96,6
24576,note_on,,,,,0,0,2,,,62,96,1
24832,note_off,,,,,256,0,7,,,71,0,6
24832,note_on,,,,,0,0,7,,,69,96,6
24832,note_off,,,,,0,0,7,,,62,0,6
24832,note_on,,,,,0,0,6,,,69,96,5
24832,note_on,,,,,0,0,7,,,64,96,6
24832,note_off,,,,,256,0,6,,,71,0,5
24832,note_off,,,,,256,0,4,,,59,0,3
24832,note_on,,,,,0,0,4,,,60,96,3
24832,note_on,,,,,0,0,6,,,69,96,5
24832,note_off,,,,,0,0,6,,,71,0,5
24832,note_on,,,,,0,0,5,,,72,96,4
24832,note_off,,,,,256,0,5,,,74,0,4
24832,note_on,,,,,0,0,2,,,64,96,1
24832,note_off,,,,,256,0,2,,,62,0,1
25088,note_on,,,,,0,0,7,,,62,96,6
25088,note_off,,,,,0,0,7,,,64,0,6
25088,note_on,,,,,0,0,7,,,67,96,6
25088,note_on,,,,,512,0,8,,,43,96,7
25088,note_off,,,,,256,0,6,,,69,0,5
25088,note_off,,,,,0,0,6,,,69,0,5
25088,note_on,,,,,0,0,6,,,67,96,5
25088,note_on,,,,,0,0,8,,,47,96,7
25088,note_on,,,,,0,0,4,,,59,96,3
25088,note_off,,,,,512,0,3,,,55,0,2
25088,note_off,,,,,256,0,4,,,60,0,3
25088,note_on,,,,,0,0,3,,,50,96,2
25088,note_off,,,,,0,0,7,,,55,0,6
25088,note_on,,,,,0,0,6,,,67,96,5
25088,note_on,,,,,0,0,7,,,50,96,6
25088,note_off,,,,,256,0,7,,,69,0,6
25088,note_off,,,,,0,0,8,,,55,0,7
25088,note_on,,,,,0,0,2,,,62,96,1
25088,note_off,,,,,256,0,2,,,64,0,1
25088,note_off,,,,,256,0,5,,,72,0,4
25088,note_on,,,,,0,0,5,,,74,96,4
25088,note_on,,,,,0,0,5,,,62,96,4
25344,note_on,,,,,0,0,2,,,64,96,1
25344,note_off,,,,,256,0,2,,,62,0,1
25344,note_off,,,,,256,0,6,,,67,0,5
25344,note_on,,,,,0,0,6,,,69,96,5
25344,note_on,,,,,0,0,6,,,69,96,5
25344,note_off,,,,,256,0,8,,,47,0,7
25344,note_on,,,,,0,0,4,,,60,96,3
25344,note_off,,,,,256,0,4,,,59,0,3
25344,note_off,,,,,0,0,6,,,67,0,5
25344,note_off,,,,,256,0,7,,,67,0,6
25344,note_on,,,,,0,0,7,,,69,96,6
25344,note_off,,,,,0,0,7,,,62,0,6
25344,note_on,,,,,0,0,7,,,64,96,6
25344,note_on,,,,,0,0,8,,,48,96,7
25600,note_on,,,,,0,0,8,,,50,96,7
25600,note_on,,,,,0,0,2,,,66,96,1
25600,note_off,,,,,256,0,2,,,64,0,1
25600,note_off,,,,,256,0,7,,,69,0,6
25600,note_on,,,,,0,0,7,,,71,96,6
25600,note_off,,,,,0,0,7,,,64,0,6
25600,note_on,,,,,0,0,7,,,66,96,6
25600,note_off,,,,,0,0,7,,,50,0,6
25600,note_on,,,,,0,0,7,,,62,96,6
25600,note_on,,,,,0,0,4,,,62,96,3
25600,note_off,,,,,256,0,4,,,60,0,3
25600,note_off,,,,,256,0,8,,,43,0,7
25600,note_on,,,,,0,0,8,,,50,96,7
25600,note_on,,,,,0,0,6,,,71,96,5
25600,note_off,,,,,0,0,5,,,62,0,4
25600,note_on,,,,,0,0,5,,,59,96,4
25600,note_off,,,,,512,0,3,,,50,0,2
25600,note_on,,,,,0,0,3,,,62,96,2
25600,note_off,,,,,0,0,8,,,48,0,7
25600,note_off,,,,,256,0,6,,,69,0,5
25600,note_on,,,,,0,0,6,,,71,96,5
25600,note_off,,,,,512,0,5,,,74,0,4
25600,note_off,,,,,0,0,6,,,69,0,5
25856,note_on,,,,,0,0,6,,,72,96,5
25856,note_on,,,,,0,0,6,,,72,96,5
25856,note_off,,,,,0,0,6,,,71,0,5
25856,note_off,,,,,256,0,7,,,71,0,6
25856,note_on,,,,,0,0,7,,,72,96,6
25856,note_off,,,,,256,0,6,,,71,0,5
26112,note_on,,,,,0,0,8,,,38,96,7
26112,note_off,,,,,0,0,8,,,50,0,7
26112,note_off,,,,,512,0,8,,,50,0,7
26112,note_on,,,,,0,0,8,,,50,96,7
26112,note_off,,,,,512,0,4,,,62,0,3
26112,note_off,,,,,1536,0,1,,,74,0,0
26112,note_on,,,,,0,0,1,,,72,96,0
26112,note_on,,,,,0,0,7,,,62,96,6
26112,note_off,,,,,0,0,7,,,62,0,6
26112,note_on,,,,,512,0,5,,,78,96,4
26112,note_off,,,,,0,0,5,,,59,0,4
26112,note_on,,,,,0,0,4,,,50,96,3
26112,note_off,,,,,0,0,6,,,72,0,5
26112,note_on,,,,,0,0,5,,,69,96,4
26112,note_on,,,,,0,0,6,,,71,96,5
26112,note_off,,,,,256,0,6,,,72,0,5
26112,note_on,,,,,0,0,7,,,69,96,6
26112,note_off,,,,,0,0,7,,,66,0,6
26112,note_on,,,,,0,0,7,,,71,96,6
26112,note_off,,,,,256,0,7,,,72,0,6
26112,note_off,,,,,512,0,2,,,66,0,1
26112,note_on,,,,,0,0,6,,,71,96,5
26112,note_on,,,,,0,0,2,,,69,96,1
26368,note_off,,,,,256,0,6,,,71,0,5
26368,note_on,,,,,0,0,6,,,72,96,5
26368,note_on,,,,,0,0,6,,,72,96,5
26368,note_off,,,,,0,0,6,,,71,0,5
26368,note_off,,,,,256,0,7,,,71,0,6
26368,note_on,,,,,0,0,7,,,72,96,6
26624,note_on,,,,,0,0,7,,,67,96,6
26624,note_off,,,,,512,0,8,,,50,0,7
26624,note_on,,,,,0,0,8,,,43,96,7
26624,note_on,,,,,0,0,8,,,43,96,7
26624,note_off,,,,,0,0,8,,,38,0,7
26624,note_on,,,,,0,0,7,,,62,96,6
26624,note_off,,,,,512,0,5,,,78,0,4
26624,note_on,,,,,0,0,1,,,71,96,0
26624,note_on,,,,,0,0,5,,,79,96,4
26624,note_on,,,,,0,0,4,,,55,96,3
26624,note_off,,,,,512,0,4,,,50,0,3
26624,note_off,,,,,512,0,1,,,72,0,0
26624,note_off,,,,,512,0,2,,,69,0,1
26624,note_on,,,,,0,0,2,,,67,96,1
26624,note_off,,,,,256,0,6,,,72,0,5
26624,note_on,,,,,0,0,6,,,74,96,5
26624,note_off,,,,,1024,0,3,,,62,0,2
26624,note_on,,,,,0,0,3,,,62,96,2
26624,note_on,,,,,0,0,5,,,71,96,4
26624,note_off,,,,,256,0,7,,,72,0,6
26624,note_on,,,,,0,0,7,,,74,96,6
26624,note_on,,,,,0,0,6,,,74,96,5
26624,note_off,,,,,0,0,7,,,69,0,6
26624,note_off,,,,,0,0,7,,,62,0,6
26624,note_off,,,,,0,0,6,,,72,0,5
26624,note_off,,,,,0,0,5,,,69,0,4
26880,note_off,,,,,0,0,6,,,74,0,5
26880,note_off,,,,,256,0,7,,,74,0,6
26880,note_on,,,,,0,0,7,,,79,96,6
26880,note_on,,,,,0,0,6,,,79,96,5
26880,note_on,,,,,0,0,6,,,79,96,5
26880,note_off,,,,,256,0,6,,,74,0,5
27136,note_off,,,,,256,0,7,,,79,0,6
27136,note_on,,,,,0,0,8,,,55,96,7
27136,note_off,,,,,0,0,7,,,67,0,6
27136,note_off,,,,,0,0,6,,,79,0,5
27136,note_on,,,,,0,0,6,,,78,96,5
27136,note_on,,,,,0,0,7,,,78,96,6
27136,note_off,,,,,256,0,6,,,79,0,5
27136,note_on,,,,,0,0,7,,,59,96,6
27136,note_on,,,,,0,0,6,,,78,96,5
27136,note_on,,,,,0,0,7,,,71,96,6
27136,note_off,,,,,0,0,5,,,71,0,4
27136,note_off,,,,,0,0,8,,,43,0,7
27136,note_off,,,,,512,0,8,,,43,0,7
27136,note_off,,,,,0,0,7,,,62,0,6
27136,note_off,,,,,512,0,5,,,79,0,4
27392,note_off,,,,,256,0,6,,,78,0,5
27392,note_on,,,,,0,0,6,,,76,96,5
27392,note_on,,,,,0,0,6,,,76,96,5
27392,note_off,,,,,0,0,6,,,78,0,5
27392,note_off,,,,,0,0,7,,,59,0,6
27392,note_on,,,,,0,0,7,,,76,96,6
27392,note_off,,,,,256,0,7,,,78,0,6
27392,note_on,,,,,0,0,7,,,60,96,6
27648,note_off,,,,,0,0,6,,,76,0,5
27648,note_on,,,,,0,0,6,,,74,96,5
27648,note_on,,,,,0,0,6,,,74,96,5
27648,note_off,,,,,256,0,6,,,76,0,5
27648,note_off,,,,,256,0,7,,,76,0,6
27648,note_on,,,,,0,0,7,,,74,96,6
27648,note_off,,,,,0,0,7,,,71,0,6
27648,note_on,,,,,0,0,7,,,69,96,6
27648,note_off,,,,,1024,0,3,,,62,0,2
27648,note_on,,,,,0,0,7,,,62,96,6
27648,note_off,,,,,0,0,7,,,60,0,6
27648,note_off,,,,,1024,0,1,,,71,0,0
27648,note_off,,,,,1024,0,4,,,55,0,3
27648,note_off,,,,,512,0,8,,,55,0,7
27648,note_off,,,,,1024,0,2,,,67,0,1
27648,note_on,,,,,0,0,8,,,54,96,7
27904,note_off,,,,,0,0,6,,,74,0,5
27904,note_on,,,,,0,0,6,,,72,96,5
27904,note_on,,,,,0,0,6,,,72,96,5
27904,note_off,,,,,256,0,6,,,74,0,5
27904,note_off,,,,,256,0,7,,,74,0,6
27904,note_on,,,,,0,0,7,,,72,96,6
28160,note_on,,,,,0,0,7,,,62,96,6
28160,note_off,,,,,0,0,7,,,62,0,6
28160,note_on,,,,,0,0,7,,,66,96,6
28160,note_off,,,,,0,0,7,,,69,0,6
28160,note_on,,,,,0,0,7,,,71,96,6
28160,note_off,,,,,256,0,7,,,72,0,6
28160,note_off,,,,,256,0,6,,,72,0,5
28160,note_on,,,,,0,0,6,,,71,96,5
28160,note_off,,,,,0,0,6,,,72,0,5
28160,note_on,,,,,0,0,6,,,71,96,5
28160,note_on,,,,,0,0,8,,,50,96,7
28160,note_on,,,,,1024,0,5,,,78,96,4
28160,note_on,,,,,0,0,5,,,69,96,4
28160,note_off,,,,,0,0,8,,,54,0,7
28160,note_on,,,,,512,0,8,,,50,96,7
28416,note_off,,,,,256,0,6,,,71,0,5
28416,note_on,,,,,0,0,6,,,72,96,5
28416,note_on,,,,,0,0,6,,,72,96,5
28416,note_off,,,,,0,0,6,,,71,0,5
28416,note_off,,,,,256,0,7,,,71,0,6
28416,note_on,,,,,0,0,7,,,72,96,6
28672,note_off,,,,,0,0,8,,,50,0,7
28672,note_off,,,,,512,0,8,,,50,0,7
28672,note_off,,,,,256,0,7,,,72,0,6
28672,note_on,,,,,0,0,7,,,71,96,6
28672,note_on,,,,,0,0,8,,,55,96,7
28672,note_on,,,,,0,0,8,,,43,96,7
28672,note_off,,,,,256,0,6,,,72,0,5
28672,note_off,,,,,512,0,5,,,78,0,4
28672,note_on,,,,,0,0,5,,,71,96,4
28672,note_on,,,,,0,0,5,,,79,96,4
28672,note_off,,,,,0,0,5,,,69,0,4
28672,note_on,,,,,0,0,6,,,71,96,5
28672,note_on,,,,,0,0,6,,,71,96,5
28672,note_off,,,,,0,0,6,,,72,0,5
28928,note_on,,,,,0,0,6,,,76,96,5
28928,note_off,,,,,256,0,6,,,71,0,5
28928,note_on,,,,,0,0,7,,,76,96,6
28928,note_off,,,,,0,0,6,,,71,0,5
28928,note_off,,,,,256,0,7,,,71,0,6
28928,note_on,,,,,0,0,6,,,76,96,5
29184,note_on,,,,,0,0,6,,,74,96,5
29184,note_off,,,,,0,0,6,,,76,0,5
29184,note_on,,,,,0,0,6,,,74,96,5
29184,note_off,,,,,512,0,5,,,79,0,4
29184,note_off,,,,,256,0,6,,,76,0,5
29184,note_off,,,,,0,0,5,,,71,0,4
29184,note_off,,,,,0,0,8,,,55,0,7
29184,note_on,,,,,0,0,8,,,57,96,7
29184,note_on,,,,,0,0,7,,,57,96,6
29184,note_off,,,,,0,0,7,,,62,0,6
29184,note_on,,,,,0,0,7,,,64,96,6
29184,note_off,,,,,0,0,7,,,66,0,6
29184,note_on,,,,,0,0,7,,,74,96,6
29184,note_off,,,,,256,0,7,,,76,0,6
29184,note_off,,,,,512,0,8,,,43,0,7
29440,note_on,,,,,0,0,7,,,72,96,6
29440,note_off,,,,,256,0,7,,,74,0,6
29440,note_off,,,,,256,0,6,,,74,0,5
29440,note_on,,,,,0,0,6,,,72,96,5
29440,note_off,,,,,0,0,6,,,74,0,5
29440,note_on,,,,,0,0,6,,,72,96,5
29696,note_on,,,,,0,0,6,,,71,96,5
29696,note_off,,,,,256,0,7,,,72,0,6
29696,note_off,,,,,512,0,8,,,57,0,7
29696,note_on,,,,,0,0,8,,,59,96,7
29696,note_off,,,,,256,0,6,,,72,0,5
29696,note_on,,,,,0,0,7,,,54,96,6
29696,note_off,,,,,0,0,7,,,57,0,6
29696,note_off,,,,,0,0,6,,,72,0,5
29696,note_on,,,,,0,0,6,,,71,96,5
29696,note_on,,,,,0,0,7,,,71,96,6
29952,note_on,,,,,0,0,6,,,69,96,5
29952,note_off,,,,,256,0,6,,,71,0,5
29952,note_off,,,,,0,0,6,,,71,0,5
29952,note_on,,,,,0,0,7,,,69,96,6
29952,note_off,,,,,256,0,7,,,71,0,6
29952,note_on,,,,,0,0,6,,,69,96,5
30208,note_off,,,,,256,0,7,,,69,0,6
30208,note_on,,,,,0,0,7,,,67,96,6
30208,note_off,,,,,512,0,8,,,59,0,7
30208,note_on,,,,,0,0,8,,,47,96,7
30208,note_on,,,,,1024,0,5,,,78,96,4
30208,note_on,,,,,0,0,5,,,71,96,4
30208,note_on,,,,,0,0,7,,,63,96,6
30208,note_on,,,,,0,0,7,,,59,96,6
30208,note_off,,,,,0,0,7,,,64,0,6
30208,note_off,,,,,0,0,7,,,54,0,6
30208,note_on,,,,,0,0,6,,,67,96,5
30208,note_on,,,,,0,0,6,,,67,96,5
30208,note_off,,,,,0,0,6,,,69,0,5
30208,note_off,,,,,256,0,6,,,69,0,5
30464,note_off,,,,,256,0,7,,,67,0,6
30464,note_on,,,,,0,0,7,,,69,96,6
30464,note_off,,,,,0,0,6,,,67,0,5
30464,note_on,,,,,0,0,6,,,69,96,5
30464,note_on,,,,,0,0,6,,,69,96,5
30464,note_off,,,,,256,0,6,,,67,0,5
30720,note_off,,,,,0,0,6,,,69,0,5
30720,note_on,,,,,0,0,6,,,67,96,5
30720,note_on,,,,,0,0,6,,,67,96,5
30720,note_off,,,,,256,0,6,,,69,0,5
30720,note_off,,,,,512,0,8,,,47,0,7
30720,note_on,,,,,0,0,8,,,52,96,7
30720,note_on,,,,,0,0,7,,,67,96,6
30720,note_off,,,,,512,0,5,,,78,0,4
30720,note_on,,,,,0,0,7,,,64,96,6
30720,note_off,,,,,0,0,7,,,63,0,6
30720,note_on,,,,,0,0,5,,,76,96,4
30720,note_off,,,,,256,0,7,,,69,0,6
30720,note_on,,,,,0,0,5,,,67,96,4
30720,note_off,,,,,0,0,5,,,71,0,4
30976,note_off,,,,,0,0,6,,,67,0,5
30976,note_on,,,,,0,0,6,,,72,96,5
30976,note_on,,,,,0,0,6,,,72,96,5
30976,note_off,,,,,256,0,6,,,67,0,5
30976,note_on,,,,,0,0,7,,,72,96,6
30976,note_off,,,,,256,0,7,,,67,0,6
31232,note_off,,,,,512,0,8,,,52,0,7
31232,note_off,,,,,0,0,7,,,64,0,6
31232,note_on,,,,,0,0,8,,,53,96,7
31232,note_on,,,,,0,0,6,,,71,96,5
31232,note_off,,,,,0,0,6,,,72,0,5
31232,note_off,,,,,256,0,7,,,72,0,6
31232,note_off,,,,,0,0,7,,,59,0,6
31232,note_on,,,,,0,0,7,,,72,96,6
31232,note_on,,,,,0,0,7,,,71,96,6
31232,note_on,,,,,0,0,7,,,62,96,6
31232,note_on,,,,,0,0,6,,,71,96,5
31232,note_off,,,,,0,0,5,,,67,0,4
31232,note_off,,,,,512,0,5,,,76,0,4
31232,note_off,,,,,256,0,6,,,72,0,5
31488,note_on,,,,,0,0,6,,,69,96,5
31488,note_off,,,,,0,0,6,,,71,0,5
31488,note_off,,,,,256,0,6,,,71,0,5
31488,note_on,,,,,0,0,6,,,69,96,5
31488,note_off,,,,,256,0,7,,,71,0,6
31488,note_on,,,,,0,0,7,,,69,96,6
31744,note_on,,,,,0,0,7,,,67,96,6
31744,note_off,,,,,256,0,6,,,69,0,5
31744,note_on,,,,,0,0,6,,,67,96,5
31744,note_on,,,,,0,0,6,,,67,96,5
31744,note_off,,,,,0,0,7,,,62,0,6
31744,note_on,,,,,0,0,8,,,55,96,7
31744,note_off,,,,,512,0,8,,,53,0,7
31744,note_on,,,,,0,0,7,,,64,96,6
31744,note_off,,,,,0,0,6,,,69,0,5
31744,note_off,,,,,256,0,7,,,69,0,6
32000,note_off,,,,,256,0,6,,,67,0,5
32000,note_on,,,,,0,0,6,,,65,96,5
32000,note_on,,,,,0,0,6,,,65,96,5
32000,note_off,,,,,0,0,6,,,67,0,5
32000,note_on,,,,,0,0,7,,,65,96,6
32000,note_off,,,,,256,0,7,,,67,0,6
32256,note_on,,,,,0,0,7,,,64,96,6
32256,note_on,,,,,0,0,6,,,64,96,5
32256,note_on,,,,,0,0,6,,,64,96,5
32256,note_off,,,,,256,0,6,,,65,0,5
32256,note_off,,,,,512,0,8,,,55,0,7
32256,note_off,,,,,256,0,7,,,65,0,6
32256,note_on,,,,,0,0,8,,,43,96,7
32256,note_off,,,,,0,0,7,,,72,0,6
32256,note_off,,,,,0,0,6,,,65,0,5
32256,note_on,,,,,0,0,7,,,71,96,6
32256,note_on,,,,,0,0,7,,,67,96,6
32256,note_on,,,,,1024,0,5,,,74,96,4
32256,note_on,,,,,0,0,5,,,71,96,4
32256,note_off,,,,,0,0,7,,,64,0,6
32512,note_off,,,,,256,0,7,,,64,0,6
32512,note_on,,,,,0,0,7,,,65,96,6
32512,note_on,,,,,0,0,6,,,65,96,5
32512,note_on,,,,,0,0,6,,,65,96,5
32512,note_off,,,,,0,0,6,,,64,0,5
32512,note_off,,,,,256,0,6,,,64,0,5
32768,note_on,,,,,0,0,5,,,76,96,4
32768,note_off,,,,,256,0,7,,,65,0,6
32768,note_off,,,,,512,0,5,,,74,0,4
32768,note_on,,,,,0,0,7,,,64,96,6
32768,note_on,,,,,0,0,5,,,72,96,4
32768,note_off,,,,,0,0,5,,,71,0,4
32768,note_on,,,,,0,0,6,,,64,96,5
32768,note_off,,,,,0,0,6,,,65,0,5
32768,note_on,,,,,0,0,6,,,64,96,5
32768,note_on,,,,,0,0,8,,,48,96,7
32768,note_off,,,,,512,0,8,,,43,0,7
32768,note_off,,,,,256,0,6,,,65,0,5
33024,note_off,,,,,256,0,7,,,64,0,6
33024,note_on,,,,,0,0,6,,,67,96,5
33024,note_on,,,,,0,0,7,,,67,96,6
33024,note_on,,,,,0,0,6,,,67,96,5
33024,note_off,,,,,0,0,6,,,64,0,5
33024,note_off,,,,,256,0,6,,,64,0,5
33280,note_on,,,,,0,0,7,,,69,96,6
33280,note_off,,,,,256,0,6,,,67,0,5
33280,note_on,,,,,0,0,6,,,66,96,5
33280,note_off,,,,,0,0,6,,,67,0,5
33280,note_off,,,,,256,0,7,,,67,0,6
33280,note_on,,,,,0,0,7,,,66,96,6
33280,note_off,,,,,0,0,7,,,71,0,6
33280,note_off,,,,,0,0,7,,,67,0,6
33280,note_on,,,,,0,0,6,,,66,96,5
33280,note_off,,,,,0,0,5,,,72,0,4
33280,note_off,,,,,512,0,5,,,76,0,4
33280,note_on,,,,,0,0,5,,,74,96,4
33280,note_on,,,,,0,0,7,,,62,96,6
33280,note_off,,,,,512,0,8,,,48,0,7
33280,note_on,,,,,0,0,8,,,50,96,7
33536,note_off,,,,,256,0,7,,,66,0,6
33536,note_on,,,,,0,0,7,,,69,96,6
33536,note_off,,,,,0,0,6,,,66,0,5
33536,note_on,,,,,0,0,6,,,69,96,5
33536,note_on,,,,,0,0,6,,,69,96,5
33536,note_off,,,,,256,0,6,,,66,0,5
33792,note_on,,,,,0,0,5,,,67,96,4
33792,note_off,,,,,0,0,7,,,69,0,6
33792,note_on,,,,,0,0,7,,,67,96,6
33792,note_on,,,,,0,0,7,,,67,96,6
33792,note_off,,,,,256,0,7,,,69,0,6
33792,note_off,,,,,512,0,5,,,74,0,4
33792,note_on,,,,,6144,0,3,,,55,96,2
33792,note_on,,,,,6144,0,1,,,76,96,0
33792,note_on,,,,,0,0,6,,,67,96,5
33792,note_on,,,,,0,0,6,,,67,96,5
33792,note_off,,,,,0,0,6,,,69,0,5
33792,note_on,,,,,6144,0,4,,,52,96,3
33792,note_off,,,,,512,0,8,,,50,0,7
33792,note_on,,,,,0,0,8,,,52,96,7
33792,note_on,,,,,6144,0,2,,,67,96,1
33792,note_off,,,,,256,0,6,,,69,0,5
34048,note_off,,,,,256,0,6,,,67,0,5
34048,note_on,,,,,0,0,6,,,79,96,5
34048,note_on,,,,,0,0,6,,,79,96,5
34048,note_off,,,,,0,0,6,,,67,0,5
34048,note_on,,,,,0,0,7,,,79,96,6
34048,note_off,,,,,256,0,7,,,67,0,6
34304,note_off,,,,,512,0,2,,,67,0,1
34304,note_off,,,,,512,0,8,,,52,0,7
34304,note_on,,,,,0,0,8,,,54,96,7
34304,note_off,,,,,512,0,5,,,67,0,4
34304,note_on,,,,,0,0,5,,,76,96,4
34304,note_on,,,,,0,0,5,,,69,96,4
34304,note_off,,,,,256,0,7,,,79,0,6
34304,note_off,,,,,256,0,6,,,79,0,5
34304,note_on,,,,,0,0,6,,,78,96,5
34304,note_on,,,,,0,0,2,,,69,96,1
34304,note_off,,,,,0,0,6,,,79,0,5
34304,note_on,,,,,0,0,6,,,78,96,5
34304,note_off,,,,,512,0,4,,,52,0,3
34304,note_on,,,,,0,0,4,,,54,96,3
34304,note_on,,,,,0,0,7,,,78,96,6
34304,note_on,,,,,0,0,7,,,60,96,6
34304,note_off,,,,,0,0,7,,,67,0,6
34304,note_on,,,,,0,0,7,,,69,96,6
34304,note_off,,,,,0,0,7,,,62,0,6
34560,note_on,,,,,0,0,7,,,76,96,6
34560,note_on,,,,,0,0,6,,,76,96,5
34560,note_on,,,,,0,0,6,,,76,96,5
34560,note_off,,,,,0,0,6,,,78,0,5
34560,note_off,,,,,256,0,7,,,78,0,6
34560,note_off,,,,,256,0,6,,,78,0,5
34816,note_on,,,,,0,0,5,,,74,96,4
34816,note_off,,,,,0,0,5,,,69,0,4
34816,note_on,,,,,0,0,5,,,71,96,4
34816,note_off,,,,,512,0,5,,,76,0,4
34816,note_off,,,,,0,0,7,,,69,0,6
34816,note_on,,,,,0,0,1,,,74,96,0
34816,note_on,,,,,0,0,7,,,59,96,6
34816,note_off,,,,,0,0,7,,,60,0,6
34816,note_on,,,,,0,0,7,,,71,96,6
34816,note_on,,,,,0,0,7,,,74,96,6
34816,note_off,,,,,256,0,7,,,76,0,6
34816,note_off,,,,,1024,0,1,,,76,0,0
34816,note_off,,,,,1024,0,3,,,55,0,2
34816,note_on,,,,,0,0,3,,,55,96,2
34816,note_off,,,,,0,0,6,,,76,0,5
34816,note_off,,,,,512,0,2,,,69,0,1
34816,note_off,,,,,512,0,8,,,54,0,7
34816,note_on,,,,,0,0,8,,,55,96,7
34816,note_on,,,,,0,0,6,,,74,96,5
34816,note_on,,,,,0,0,6,,,74,96,5
34816,note_off,,,,,256,0,6,,,76,0,5
34816,note_on,,,,,0,0,4,,,55,96,3
34816,note_off,,,,,512,0,4,,,54,0,3
34816,note_on,,,,,0,0,2,,,71,96,1
35072,note_off,,,,,256,0,7,,,74,0,6
35072,note_on,,,,,0,0,6,,,72,96,5
35072,note_off,,,,,0,0,6,,,74,0,5
35072,note_off,,,,,256,0,6,,,74,0,5
35072,note_on,,,,,0,0,6,,,72,96,5
35072,note_on,,,,,0,0,5,,,72,96,4
35072,note_off,,,,,256,0,5,,,74,0,4
35072,note_on,,,,,0,0,7,,,72,96,6
35328,note_off,,,,,256,0,7,,,72,0,6
35328,note_on,,,,,0,0,2,,,67,96,1
35328,note_off,,,,,512,0,8,,,55,0,7
35328,note_on,,,,,0,0,7,,,62,96,6
35328,note_off,,,,,0,0,7,,,59,0,6
35328,note_off,,,,,256,0,6,,,72,0,5
35328,note_on,,,,,0,0,7,,,67,96,6
35328,note_off,,,,,0,0,7,,,71,0,6
35328,note_on,,,,,0,0,6,,,71,96,5
35328,note_off,,,,,0,0,6,,,72,0,5
35328,note_on,,,,,0,0,7,,,71,96,6
35328,note_on,,,,,0,0,8,,,47,96,7
35328,note_on,,,,,0,0,6,,,71,96,5
35328,note_off,,,,,512,0,3,,,55,0,2
35328,note_off,,,,,512,0,2,,,71,0,1
35328,note_off,,,,,256,0,5,,,72,0,4
35328,note_on,,,,,0,0,3,,,59,96,2
35328,note_on,,,,,0,0,5,,,74,96,4
35328,note_off,,,,,0,0,5,,,71,0,4
35328,note_on,,,,,0,0,5,,,67,96,4
35584,note_on,,,,,0,0,7,,,72,96,6
35584,note_off,,,,,256,0,7,,,71,0,6
35584,note_off,,,,,256,0,6,,,71,0,5
35584,note_on,,,,,0,0,6,,,72,96,5
35584,note_on,,,,,0,0,6,,,72,96,5
35584,note_off,,,,,0,0,6,,,71,0,5
35712,note_on,,,,,0,0,7,,,74,96,6
35712,note_off,,,,,128,0,7,,,72,0,6
35712,note_off,,,,,0,0,6,,,72,0,5
35712,note_on,,,,,0,0,6,,,74,96,5
35712,note_on,,,,,0,0,6,,,74,96,5
35712,note_off,,,,,128,0,6,,,72,0,5
35840,note_on,,,,,0,0,6,,,69,96,5
35840,note_off,,,,,0,0,7,,,62,0,6
35840,note_on,,,,,0,0,7,,,69,96,6
35840,note_off,,,,,128,0,7,,,74,0,6
35840,note_on,,,,,0,0,4,,,48,96,3
35840,note_off,,,,,1024,0,4,,,55,0,3
35840,note_off,,,,,512,0,5,,,74,0,4
35840,note_off,,,,,512,0,3,,,59,0,2
35840,note_on,,,,,0,0,3,,,64,96,2
35840,note_off,,,,,128,0,6,,,74,0,5
35840,note_off,,,,,0,0,5,,,67,0,4
35840,note_off,,,,,512,0,8,,,47,0,7
35840,note_on,,,,,0,0,8,,,48,96,7
35840,note_on,,,,,0,0,7,,,64,96,6
35840,note_off,,,,,0,0,6,,,74,0,5
35840,note_on,,,,,0,0,6,,,69,96,5
35840,note_on,,,,,0,0,5,,,72,96,4
36096,note_off,,,,,256,0,5,,,72,0,4
36096,note_on,,,,,0,0,5,,,71,96,4
36352,note_on,,,,,0,0,1,,,72,96,0
36352,note_off,,,,,0,0,7,,,64,0,6
36352,note_off,,,,,1024,0,2,,,67,0,1
36352,note_off,,,,,1536,0,1,,,74,0,0
36352,note_on,,,,,0,0,2,,,66,96,1
36352,note_on,,,,,0,0,7,,,66,96,6
36352,note_off,,,,,512,0,4,,,48,0,3
36352,note_off,,,,,512,0,7,,,67,0,6
36352,note_off,,,,,512,0,3,,,64,0,2
36352,note_on,,,,,0,0,4,,,50,96,3
36352,note_off,,,,,512,0,8,,,48,0,7
36352,note_on,,,,,0,0,8,,,50,96,7
36352,note_on,,,,,256,0,5,,,72,96,4
36352,note_off,,,,,0,0,5,,,71,0,4
36352,note_on,,,,,0,0,5,,,72,96,4
36352,note_on,,,,,0,0,7,,,66,96,6
36352,note_on,,,,,0,0,3,,,57,96,2
36608,note_off,,,,,256,0,7,,,69,0,6
36608,note_off,,,,,0,0,6,,,69,0,5
36608,note_on,,,,,0,0,6,,,67,96,5
36608,note_on,,,,,0,0,7,,,67,96,6
36608,note_off,,,,,768,0,6,,,69,0,5
36608,note_on,,,,,0,0,6,,,67,96,5
36864,note_off,,,,,512,0,5,,,72,0,4
36864,note_off,,,,,512,0,3,,,57,0,2
36864,note_on,,,,,0,0,3,,,55,96,2
36864,note_off,,,,,0,0,6,,,67,0,5
36864,note_on,,,,,0,0,6,,,67,96,5
36864,note_on,,,,,0,0,2,,,67,96,1
36864,note_off,,,,,512,0,2,,,66,0,1
36864,note_on,,,,,0,0,5,,,71,96,4
36864,note_on,,,,,0,0,6,,,67,96,5
36864,note_off,,,,,0,0,5,,,72,0,4
36864,note_on,,,,,0,0,8,,,52,96,7
36864,note_off,,,,,512,0,8,,,50,0,7
36864,note_off,,,,,512,0,4,,,50,0,3
36864,note_on,,,,,0,0,4,,,52,96,3
36864,note_on,,,,,0,0,1,,,71,96,0
36864,note_off,,,,,512,0,1,,,72,0,0
36864,note_off,,,,,256,0,6,,,67,0,5
36864,note_off,,,,,0,0,7,,,66,0,6
36864,note_off,,,,,256,0,7,,,67,0,6
36864,note_on,,,,,0,0,7,,,59,96,6
36864,note_on,,,,,0,0,7,,,67,96,6
36864,note_on,,,,,0,0,7,,,67,96,6
36864,note_off,,,,,0,0,7,,,66,0,6
37120,note_on,,,,,0,0,5,,,69,96,4
37120,note_off,,,,,256,0,5,,,71,0,4
37376,note_off,,,,,256,0,5,,,69,0,4
37376,note_on,,,,,0,0,3,,,57,96,2
37376,note_off,,,,,512,0,3,,,55,0,2
37376,note_off,,,,,512,0,8,,,52,0,7
37376,note_on,,,,,0,0,5,,,62,96,4
37376,note_on,,,,,0,0,8,,,54,96,7
37376,note_on,,,,,0,0,5,,,71,96,4
37888,note_off,,,,,1024,0,6,,,67,0,5
37888,note_off,,,,,0,0,7,,,67,0,6
37888,note_off,,,,,0,0,6,,,67,0,5
37888,note_on,,,,,0,0,2,,,67,96,1
37888,note_on,,,,,0,0,5,,,67,96,4
37888,note_off,,,,,512,0,5,,,71,0,4
37888,note_off,,,,,1024,0,7,,,67,0,6
37888,note_off,,,,,1024,0,2,,,67,0,1
37888,note_off,,,,,0,0,5,,,62,0,4
37888,note_on,,,,,0,0,3,,,59,96,2
37888,note_on,,,,,0,0,1,,,71,96,0
37888,note_on,,,,,0,0,8,,,55,96,7
37888,note_off,,,,,0,0,8,,,54,0,7
37888,note_on,,,,,512,0,8,,,43,96,7
37888,note_off,,,,,1024,0,1,,,71,0,0
37888,note_off,,,,,512,0,3,,,57,0,2
37888,note_off,,,,,0,0,7,,,59,0,6
38144,note_off,,,,,256,0,5,,,67,0,4
38144,note_on,,,,,0,0,5,,,66,96,4
38400,note_off,,,,,512,0,3,,,59,0,2
38400,note_on,,,,,0,0,3,,,60,96,2
38400,note_on,,,,,256,0,5,,,71,96,4
38400,note_on,,,,,0,0,8,,,52,96,7
38400,note_on,,,,,0,0,5,,,67,96,4
38400,note_off,,,,,0,0,8,,,55,0,7
38400,note_off,,,,,512,0,8,,,43,0,7
38400,note_off,,,,,1536,0,4,,,52,0,3
38400,note_on,,,,,0,0,4,,,50,96,3
38400,note_off,,,,,0,0,5,,,66,0,4
38656,note_on,,,,,0,0,3,,,62,96,2
38656,note_off,,,,,256,0,3,,,60,0,2
38912,note_off,,,,,512,0,5,,,71,0,4
38912,note_on,,,,,0,0,2,,,67,96,1
38912,note_on,,,,,0,0,5,,,69,96,4
38912,note_on,,,,,0,0,3,,,64,96,2
38912,note_off,,,,,1024,0,1,,,71,0,0
38912,note_on,,,,,0,0,1,,,69,96,0
38912,note_on,,,,,0,0,8,,,48,96,7
38912,note_off,,,,,0,0,5,,,67,0,4
38912,note_off,,,,,512,0,8,,,52,0,7
38912,note_off,,,,,256,0,3,,,62,0,2
38912,note_off,,,,,1024,0,2,,,67,0,1
38912,note_off,,,,,512,0,4,,,50,0,3
38912,note_on,,,,,0,0,4,,,49,96,3
39168,note_off,,,,,256,0,5,,,69,0,4
39168,note_on,,,,,0,0,5,,,71,96,4
39424,note_on,,,,,0,0,5,,,69,96,4
39424,note_off,,,,,512,0,8,,,48,0,7
39424,note_on,,,,,0,0,8,,,45,96,7
39424,note_off,,,,,256,0,5,,,71,0,4
39424,note_on,,,,,0,0,5,,,76,96,4
39680,note_off,,,,,256,0,5,,,69,0,4
39680,note_on,,,,,0,0,5,,,71,96,4
39936,note_on,,,,,0,0,3,,,62,96,2
39936,note_off,,,,,1024,0,2,,,67,0,1
39936,note_off,,,,,256,0,5,,,71,0,4
39936,note_on,,,,,0,0,5,,,72,96,4
39936,note_off,,,,,0,0,5,,,76,0,4
39936,note_on,,,,,0,0,5,,,69,96,4
39936,note_off,,,,,1024,0,4,,,49,0,3
39936,note_on,,,,,0,0,4,,,50,96,3
39936,note_on,,,,,512,0,8,,,50,96,7
39936,note_off,,,,,0,0,8,,,45,0,7
39936,note_on,,,,,0,0,8,,,50,96,7
39936,note_off,,,,,1024,0,3,,,64,0,2
39936,note_on,,,,,0,0,2,,,66,96,1
40192,note_on,,,,,0,0,8,,,50,96,7
40192,note_off,,,,,256,0,5,,,72,0,4
40192,note_off,,,,,256,0,8,,,50,0,7
40192,note_on,,,,,0,0,5,,,74,96,4
40192,note_off,,,,,0,0,5,,,69,0,4
40192,note_on,,,,,0,0,5,,,71,96,4
40448,note_on,,,,,0,0,3,,,60,96,2
40448,note_off,,,,,0,0,5,,,71,0,4
40448,note_on,,,,,0,0,5,,,72,96,4
40448,note_on,,,,,0,0,5,,,69,96,4
40448,note_off,,,,,256,0,5,,,74,0,4
40448,note_on,,,,,0,0,8,,,38,96,7
40448,note_off,,,,,0,0,8,,,50,0,7
40448,note_on,,,,,0,0,8,,,50,96,7
40448,note_off,,,,,512,0,3,,,62,0,2
40448,note_off,,,,,256,0,8,,,50,0,7
40704,note_off,,,,,256,0,5,,,72,0,4
40704,note_on,,,,,0,0,5,,,74,96,4
40704,note_off,,,,,0,0,5,,,69,0,4
40704,note_off,,,,,256,0,8,,,50,0,7
40704,note_on,,,,,0,0,8,,,50,96,7
40704,note_on,,,,,0,0,5,,,71,96,4
40960,note_on,,,,,0,0,7,,,74,96,6
40960,note_on,,,,,0,0,7,,,71,96,6
40960,note_off,,,,,256,0,8,,,50,0,7
40960,note_off,,,,,0,0,8,,,38,0,7
40960,note_on,,,,,0,0,8,,,43,96,7
40960,note_on,,,,,0,0,8,,,43,96,7
40960,note_on,,,,,3072,0,7,,,79,96,6
40960,note_on,,,,,0,0,2,,,67,96,1
40960,note_off,,,,,0,0,5,,,71,0,4
40960,note_on,,,,,0,0,6,,,79,96,5
40960,note_on,,,,,3072,0,6,,,79,96,5
40960,note_off,,,,,512,0,3,,,60,0,2
40960,note_on,,,,,0,0,3,,,59,96,2
40960,note_off,,,,,1024,0,4,,,50,0,3
40960,note_on,,,,,0,0,4,,,43,96,3
40960,note_off,,,,,256,0,5,,,74,0,4
40960,note_on,,,,,0,0,5,,,71,96,4
40960,note_on,,,,,0,0,1,,,67,96,0
40960,note_off,,,,,2048,0,1,,,69,0,0
40960,note_on,,,,,0,0,5,,,67,96,4
40960,note_off,,,,,1024,0,2,,,66,0,1
41472,note_on,,,,,0,0,5,,,62,96,4
41472,note_off,,,,,512,0,5,,,71,0,4
41984,note_off,,,,,512,0,5,,,62,0,4
41984,note_off,,,,,0,0,8,,,43,0,7
41984,note_on,,,,,0,0,5,,,67,96,4
41984,note_off,,,,,0,0,5,,,67,0,4
41984,note_off,,,,,1024,0,8,,,43,0,7
41984,note_off,,,,,1024,0,2,,,67,0,1
41984,note_off,,,,,1024,0,6,,,79,0,5
41984,note_off,,,,,0,0,6,,,79,0,5
41984,note_off,,,,,1024,0,1,,,67,0,0
41984,note_off,,,,,1024,0,7,,,79,0,6
41984,note_off,,,,,1024,0,3,,,59,0,2
41984,note_off,,,,,0,0,7,,,71,0,6
41984,note_off,,,,,0,0,7,,,74,0,6
41984,note_off,,,,,1024,0,4,,,43,0,3
42496,note_on,,,,,0,0,5,,,69,96,4
42496,note_off,,,,,512,0,5,,,67,0,4
43008,note_on,,,,,0,0,7,,,71,96,6
43008,note_on,,,,,0,0,7,,,67,96,6
43008,note_on,,,,,0,0,6,,,74,96,5
43008,note_on,,,,,1024,0,6,,,74,96,5
43008,note_on,,,,,1024,0,7,,,74,96,6
43008,note_on,,,,,1024,0,8,,,43,96,7
43008,note_on,,,,,0,0,8,,,43,96,7
43008,note_off,,,,,512,0,5,,,69,0,4
43008,note_on,,,,,0,0,5,,,71,96,4
43264,note_off,,,,,256,0,5,,,71,0,4
43264,note_on,,,,,0,0,5,,,69,96,4
43520,note_on,,,,,0,0,5,,,62,96,4
43520,note_off,,,,,256,0,5,,,69,0,4
43520,note_on,,,,,0,0,5,,,67,96,4
43776,note_on,,,,,0,0,5,,,69,96,4
43776,note_off,,,,,256,0,5,,,67,0,4
44032,note_off,,,,,1024,0,8,,,43,0,7
44032,note_off,,,,,0,0,6,,,74,0,5
44032,note_off,,,,,1024,0,6,,,74,0,5
44032,note_on,,,,,0,0,5,,,71,96,4
44032,note_off,,,,,256,0,5,,,69,0,4
44032,note_off,,,,,0,0,7,,,71,0,6
44032,note_off,,,,,1024,0,7,,,74,0,6
44032,note_on,,,,,0,0,5,,,67,96,4
44032,note_off,,,,,0,0,8,,,43,0,7
44032,note_off,,,,,0,0,5,,,62,0,4
44032,note_off,,,,,0,0,7,,,67,0,6
44288,note_off,,,,,256,0,5,,,71,0,4
44288,note_on,,,,,0,0,5,,,74,96,4
44544,note_on,,,,,0,0,5,,,69,96,4
44544,note_off,,,,,0,0,5,,,67,0,4
44544,note_on,,,,,0,0,5,,,72,96,4
44544,note_off,,,,,256,0,5,,,74,0,4
44800,note_off,,,,,256,0,5,,,72,0,4
44800,note_on,,,,,0,0,5,,,76,96,4
45056,note_on,,,,,0,0,5,,,74,96,4
45056,note_on,,,,,1024,0,6,,,71,96,5
45056,note_on,,,,,0,0,6,,,71,96,5
45056,note_off,,,,,0,0,5,,,69,0,4
45056,note_off,,,,,256,0,5,,,76,0,4
45056,note_on,,,,,0,0,5,,,71,96,4
45056,note_on,,,,,1024,0,7,,,71,96,6
45056,note_on,,,,,1024,0,8,,,43,96,7
45056,note_on,,,,,0,0,7,,,67,96,6
45056,note_on,,,,,0,0,7,,,62,96,6
45312,note_on,,,,,0,0,5,,,69,96,4
45312,note_on,,,,,0,0,5,,,72,96,4
45312,note_off,,,,,0,0,5,,,71,0,4
45312,note_off,,,,,256,0,5,,,74,0,4
45568,note_on,,,,,0,0,7,,,62,96,6
45568,note_off,,,,,512,0,6,,,71,0,5
45568,note_off,,,,,256,0,5,,,72,0,4
45568,note_on,,,,,0,0,5,,,71,96,4
45568,note_off,,,,,0,0,6,,,71,0,5
45568,note_on,,,,,0,0,6,,,62,96,5
45568,note_on,,,,,0,0,6,,,62,96,5
45568,note_off,,,,,0,0,5,,,69,0,4
45568,note_off,,,,,512,0,7,,,71,0,6
45568,note_on,,,,,0,0,5,,,67,96,4
45824,note_off,,,,,256,0,5,,,71,0,4
45824,note_off,,,,,0,0,5,,,67,0,4
45824,note_on,,,,,0,0,5,,,69,96,4
45824,note_on,,,,,0,0,5,,,72,96,4
46080,note_off,,,,,1024,0,8,,,43,0,7
46080,note_on,,,,,0,0,8,,,43,96,7
46080,note_off,,,,,512,0,6,,,62,0,5
46080,note_on,,,,,0,0,6,,,67,96,5
46080,note_off,,,,,0,0,6,,,62,0,5
46080,note_off,,,,,512,0,7,,,62,0,6
46080,note_off,,,,,256,0,5,,,72,0,4
46080,note_on,,,,,0,0,5,,,74,96,4
46080,note_off,,,,,0,0,5,,,69,0,4
46080,note_on,,,,,0,0,5,,,71,96,4
46080,note_on,,,,,0,0,7,,,67,96,6
46080,note_off,,,,,0,0,7,,,67,0,6
46080,note_off,,,,,0,0,7,,,62,0,6
46080,note_on,,,,,0,0,6,,,67,96,5
46336,note_on,,,,,0,0,5,,,74,96,4
46336,note_off,,,,,256,0,5,,,71,0,4
46592,note_on,,,,,0,0,7,,,69,96,6
46592,note_off,,,,,512,0,7,,,67,0,6
46592,note_on,,,,,0,0,6,,,69,96,5
46592,note_off,,,,,0,0,6,,,67,0,5
46592,note_off,,,,,512,0,6,,,67,0,5
46592,note_off,,,,,256,0,5,,,74,0,4
46592,note_on,,,,,0,0,5,,,78,96,4
46592,note_off,,,,,0,0,5,,,74,0,4
46592,note_on,,,,,0,0,6,,,69,96,5
46592,note_on,,,,,0,0,5,,,72,96,4
46848,note_on,,,,,0,0,5,,,76,96,4
46848,note_off,,,,,256,0,5,,,72,0,4
47104,note_on,,,,,0,0,5,,,79,96,4
47104,note_on,,,,,0,0,6,,,71,96,5
47104,note_on,,,,,0,0,6,,,71,96,5
47104,note_off,,,,,0,0,6,,,69,0,5
47104,note_off,,,,,0,0,5,,,76,0,4
47104,note_on,,,,,0,0,7,,,71,96,6
47104,note_off,,,,,512,0,7,,,69,0,6
47104,note_on,,,,,0,0,5,,,74,96,4
47104,note_off,,,,,256,0,5,,,78,0,4
47104,note_off,,,,,1024,0,8,,,43,0,7
47104,note_off,,,,,512,0,6,,,69,0,5
47360,note_on,,,,,0,0,7,,,69,96,6
47360,note_off,,,,,256,0,5,,,74,0,4
47360,note_on,,,,,0,0,5,,,72,96,4
47360,note_off,,,,,256,0,7,,,71,0,6
47360,note_off,,,,,256,0,6,,,71,0,5
47360,note_on,,,,,0,0,6,,,69,96,5
47360,note_on,,,,,0,0,6,,,69,96,5
47360,note_off,,,,,0,0,6,,,71,0,5
47616,note_on,,,,,512,0,8,,,50,96,7
47616,note_on,,,,,0,0,7,,,66,96,6
47616,note_on,,,,,0,0,7,,,62,96,6
47616,note_off,,,,,0,0,6,,,69,0,5
47616,note_off,,,,,256,0,5,,,79,0,4
47616,note_on,,,,,0,0,5,,,74,96,4
47616,note_on,,,,,0,0,5,,,71,96,4
47616,note_on,,,,,0,0,7,,,67,96,6
47616,note_off,,,,,256,0,6,,,69,0,5
47616,note_on,,,,,0,0,6,,,67,96,5
47616,note_on,,,,,0,0,6,,,67,96,5
47616,note_on,,,,,0,0,8,,,50,96,7
47616,note_off,,,,,0,0,5,,,72,0,4
47616,note_off,,,,,256,0,7,,,69,0,6
47872,note_on,,,,,0,0,6,,,69,96,5
47872,note_off,,,,,256,0,5,,,74,0,4
47872,note_on,,,,,0,0,5,,,72,96,4
47872,note_off,,,,,0,0,5,,,71,0,4
47872,note_on,,,,,0,0,5,,,69,96,4
47872,note_off,,,,,0,0,6,,,67,0,5
47872,note_off,,,,,256,0,6,,,67,0,5
47872,note_on,,,,,0,0,6,,,69,96,5
47872,note_off,,,,,256,0,7,,,67,0,6
47872,note_on,,,,,0,0,7,,,69,96,6
48128,note_off,,,,,0,0,6,,,69,0,5
48128,note_off,,,,,0,0,5,,,69,0,4
48128,note_on,,,,,0,0,5,,,71,96,4
48128,note_off,,,,,256,0,5,,,72,0,4
48128,note_off,,,,,512,0,8,,,50,0,7
48128,note_on,,,,,0,0,8,,,43,96,7
48128,note_on,,,,,0,0,7,,,62,96,6
48128,note_off,,,,,0,0,7,,,62,0,6
48128,note_on,,,,,0,0,7,,,67,96,6
48128,note_off,,,,,0,0,7,,,66,0,6
48128,note_on,,,,,0,0,7,,,71,96,6
48128,note_off,,,,,256,0,7,,,69,0,6
48128,note_off,,,,,256,0,6,,,69,0,5
48128,note_on,,,,,0,0,6,,,71,96,5
48128,note_on,,,,,0,0,6,,,71,96,5
48128,note_off,,,,,0,0,8,,,50,0,7
48128,note_on,,,,,0,0,8,,,55,96,7
48128,note_on,,,,,0,0,5,,,67,96,4
48384,note_on,,,,,0,0,5,,,72,96,4
48384,note_on,,,,,0,0,6,,,72,96,5
48384,note_on,,,,,0,0,6,,,72,96,5
48384,note_off,,,,,256,0,7,,,71,0,6
48384,note_off,,,,,0,0,6,,,71,0,5
48384,note_off,,,,,256,0,6,,,71,0,5
48384,note_off,,,,,256,0,5,,,71,0,4
48384,note_on,,,,,0,0,7,,,72,96,6
48640,note_off,,,,,512,0,8,,,43,0,7
48640,note_on,,,,,0,0,8,,,50,96,7
48640,note_off,,,,,0,0,8,,,55,0,7
48640,note_on,,,,,0,0,8,,,57,96,7
48640,note_off,,,,,256,0,7,,,72,0,6
48640,note_off,,,,,0,0,7,,,62,0,6
48640,note_on,,,,,0,0,5,,,71,96,4
48640,note_off,,,,,256,0,5,,,72,0,4
48640,note_on,,,,,0,0,7,,,71,96,6
48640,note_off,,,,,0,0,7,,,67,0,6
48640,note_on,,,,,0,0,7,,,66,96,6
48640,note_on,,,,,0,0,7,,,60,96,6
48640,note_off,,,,,0,0,5,,,67,0,4
48640,note_on,,,,,0,0,6,,,71,96,5
48640,note_off,,,,,256,0,6,,,72,0,5
48640,note_off,,,,,0,0,6,,,72,0,5
48640,note_on,,,,,0,0,6,,,71,96,5
48640,note_on,,,,,0,0,5,,,62,96,4
48896,note_on,,,,,0,0,7,,,72,96,6
48896,note_off,,,,,256,0,7,,,71,0,6
48896,note_off,,,,,256,0,6,,,71,0,5
48896,note_on,,,,,0,0,5,,,72,96,4
48896,note_on,,,,,0,0,6,,,72,96,5
48896,note_on,,,,,0,0,6,,,72,96,5
48896,note_off,,,,,0,0,6,,,71,0,5
48896,note_off,,,,,256,0,5,,,71,0,4
49152,note_on,,,,,0,0,5,,,67,96,4
49152,note_on,,,,,0,0,5,,,74,96,4
49152,note_off,,,,,512,0,8,,,50,0,7
49152,note_on,,,,,0,0,6,,,74,96,5
49152,note_on,,,,,0,0,6,,,74,96,5
49152,note_off,,,,,0,0,5,,,62,0,4
49152,note_off,,,,,256,0,6,,,72,0,5
49152,note_off,,,,,0,0,6,,,72,0,5
49152,note_off,,,,,0,0,8,,,57,0,7
49152,note_on,,,,,0,0,8,,,43,96,7
49152,note_off,,,,,256,0,5,,,72,0,4
49152,note_on,,,,,0,0,8,,,59,96,7
49152,note_on,,,,,0,0,7,,,59,96,6
49152,note_on,,,,,0,0,7,,,67,96,6
49152,note_on,,,,,0,0,7,,,74,96,6
49152,note_off,,,,,0,0,7,,,60,0,6
49152,note_off,,,,,0,0,7,,,66,0,6
49152,note_off,,,,,256,0,7,,,72,0,6
49408,note_off,,,,,256,0,7,,,74,0,6
49408,note_on,,,,,0,0,7,,,79,96,6
49408,note_on,,,,,0,0,6,,,79,96,5
49408,note_on,,,,,0,0,6,,,79,96,5
49408,note_off,,,,,0,0,6,,,74,0,5
49408,note_off,,,,,256,0,6,,,74,0,5
49664,note_off,,,,,0,0,7,,,59,0,6
49664,note_on,,,,,0,0,7,,,78,96,6
49664,note_off,,,,,256,0,6,,,79,0,5
49664,note_on,,,,,0,0,6,,,78,96,5
49664,note_on,,,,,0,0,6,,,78,96,5
49664,note_off,,,,,0,0,6,,,79,0,5
49664,note_on,,,,,0,0,7,,,57,96,6
49664,note_off,,,,,512,0,8,,,43,0,7
49664,note_off,,,,,0,0,5,,,67,0,4
49664,note_off,,,,,0,0,8,,,59,0,7
49664,note_on,,,,,0,0,8,,,60,96,7
49664,note_off,,,,,256,0,7,,,79,0,6
49664,note_off,,,,,512,0,5,,,74,0,4
49920,note_off,,,,,0,0,6,,,78,0,5
49920,note_on,,,,,0,0,6,,,76,96,5
49920,note_off,,,,,256,0,7,,,78,0,6
49920,note_on,,,,,0,0,7,,,76,96,6
49920,note_off,,,,,256,0,6,,,78,0,5
49920,note_on,,,,,0,0,6,,,76,96,5
50176,note_off,,,,,512,0,8,,,60,0,7
50176,note_off,,,,,256,0,6,,,76,0,5
50176,note_on,,,,,0,0,6,,,74,96,5
50176,note_on,,,,,0,0,6,,,74,96,5
50176,note_off,,,,,0,0,6,,,76,0,5
50176,note_on,,,,,0,0,8,,,62,96,7
50176,note_on,,,,,0,0,7,,,57,96,6
50176,note_off,,,,,0,0,7,,,57,0,6
50176,note_on,,,,,0,0,7,,,74,96,6
50176,note_off,,,,,256,0,7,,,76,0,6
50432,note_off,,,,,256,0,6,,,74,0,5
50432,note_off,,,,,0,0,6,,,74,0,5
50432,note_on,,,,,0,0,7,,,72,96,6
50432,note_off,,,,,256,0,7,,,74,0,6
50432,note_on,,,,,0,0,6,,,72,96,5
50432,note_on,,,,,0,0,6,,,72,96,5
50688,note_off,,,,,256,0,6,,,72,0,5
50688,note_on,,,,,0,0,6,,,71,96,5
50688,note_on,,,,,0,0,6,,,71,96,5
50688,note_off,,,,,0,0,6,,,72,0,5
50688,note_on,,,,,0,0,5,,,69,96,4
50688,note_off,,,,,0,0,8,,,62,0,7
50688,note_on,,,,,0,0,8,,,50,96,7
50688,note_on,,,,,0,0,7,,,62,96,6
50688,note_off,,,,,0,0,7,,,57,0,6
50688,note_on,,,,,0,0,7,,,66,96,6
50688,note_off,,,,,0,0,7,,,67,0,6
50688,note_off,,,,,256,0,7,,,72,0,6
50688,note_on,,,,,1024,0,5,,,78,96,4
50688,note_on,,,,,512,0,8,,,50,96,7
50688,note_on,,,,,0,0,7,,,71,96,6
50944,note_on,,,,,0,0,7,,,72,96,6
50944,note_off,,,,,256,0,7,,,71,0,6
50944,note_on,,,,,0,0,6,,,72,96,5
50944,note_off,,,,,256,0,6,,,71,0,5
50944,note_on,,,,,0,0,6,,,72,96,5
50944,note_off,,,,,0,0,6,,,71,0,5
51200,note_off,,,,,256,0,7,,,72,0,6
51200,note_off,,,,,512,0,8,,,50,0,7
51200,note_on,,,,,0,0,8,,,43,96,7
51200,note_off,,,,,0,0,8,,,50,0,7
51200,note_on,,,,,0,0,8,,,55,96,7
51200,note_off,,,,,512,0,5,,,78,0,4
51200,note_on,,,,,0,0,5,,,79,96,4
51200,note_off,,,,,0,0,5,,,69,0,4
51200,note_on,,,,,0,0,5,,,71,96,4
51200,note_on,,,,,0,0,7,,,71,96,6
51200,note_off,,,,,0,0,6,,,72,0,5
51200,note_on,,,,,0,0,6,,,71,96,5
51200,note_on,,,,,0,0,6,,,71,96,5
51200,note_off,,,,,256,0,6,,,72,0,5
51456,note_off,,,,,256,0,7,,,71,0,6
51456,note_on,,,,,0,0,7,,,76,96,6
51456,note_off,,,,,0,0,6,,,71,0,5
51456,note_on,,,,,0,0,6,,,76,96,5
51456,note_off,,,,,256,0,6,,,71,0,5
51456,note_on,,,,,0,0,6,,,76,96,5
51712,note_on,,,,,0,0,6,,,74,96,5
51712,note_off,,,,,0,0,6,,,76,0,5
51712,note_on,,,,,0,0,6,,,74,96,5
51712,note_off,,,,,512,0,8,,,43,0,7
51712,note_off,,,,,256,0,6,,,76,0,5
51712,note_off,,,,,0,0,8,,,55,0,7
51712,note_on,,,,,0,0,7,,,57,96,6
51712,note_on,,,,,0,0,7,,,64,96,6
51712,note_off,,,,,0,0,7,,,66,0,6
51712,note_on,,,,,0,0,7,,,74,96,6
51712,note_off,,,,,256,0,7,,,76,0,6
51712,note_off,,,,,0,0,7,,,62,0,6
51712,note_off,,,,,0,0,5,,,71,0,4
51712,note_off,,,,,512,0,5,,,79,0,4
51712,note_on,,,,,0,0,8,,,57,96,7
51968,note_on,,,,,0,0,7,,,72,96,6
51968,note_off,,,,,0,0,6,,,74,0,5
51968,note_off,,,,,256,0,7,,,74,0,6
51968,note_on,,,,,0,0,6,,,72,96,5
51968,note_on,,,,,0,0,6,,,72,96,5
51968,note_off,,,,,256,0,6,,,74,0,5
52224,note_on,,,,,0,0,6,,,71,96,5
52224,note_on,,,,,0,0,6,,,71,96,5
52224,note_off,,,,,256,0,6,,,72,0,5
52224,note_off,,,,,512,0,8,,,57,0,7
52224,note_on,,,,,0,0,7,,,54,96,6
52224,note_off,,,,,0,0,7,,,57,0,6
52224,note_off,,,,,0,0,6,,,72,0,5
52224,note_on,,,,,0,0,7,,,71,96,6
52224,note_off,,,,,256,0,7,,,72,0,6
52224,note_on,,,,,0,0,8,,,59,96,7
52480,note_on,,,,,0,0,6,,,69,96,5
52480,note_off,,,,,0,0,6,,,71,0,5
52480,note_off,,,,,256,0,6,,,71,0,5
52480,note_off,,,,,256,0,7,,,71,0,6
52480,note_on,,,,,0,0,7,,,69,96,6
52480,note_on,,,,,0,0,6,,,69,96,5
52736,note_on,,,,,0,0,8,,,47,96,7
52736,note_on,,,,,0,0,5,,,71,96,4
52736,note_on,,,,,1024,0,5,,,78,96,4
52736,note_off,,,,,512,0,8,,,59,0,7
52736,note_off,,,,,256,0,6,,,69,0,5
52736,note_off,,,,,256,0,7,,,69,0,6
52736,note_on,,,,,0,0,7,,,67,96,6
52736,note_on,,,,,0,0,7,,,59,96,6
52736,note_off,,,,,0,0,7,,,54,0,6
52736,note_on,,,,,0,0,7,,,63,96,6
52736,note_off,,,,,0,0,7,,,64,0,6
52736,note_off,,,,,0,0,6,,,69,0,5
52736,note_on,,,,,0,0,6,,,67,96,5
52736,note_on,,,,,0,0,6,,,67,96,5
52992,note_on,,,,,0,0,6,,,69,96,5
52992,note_off,,,,,0,0,6,,,67,0,5
52992,note_off,,,,,256,0,6,,,67,0,5
52992,note_off,,,,,256,0,7,,,67,0,6
52992,note_on,,,,,0,0,7,,,69,96,6
52992,note_on,,,,,0,0,6,,,69,96,5
53248,note_off,,,,,0,0,7,,,63,0,6
53248,note_off,,,,,256,0,7,,,69,0,6
53248,note_on,,,,,0,0,7,,,67,96,6
53248,note_on,,,,,0,0,5,,,67,96,4
53248,note_on,,,,,0,0,8,,,52,96,7
53248,note_on,,,,,0,0,5,,,76,96,4
53248,note_off,,,,,512,0,5,,,78,0,4
53248,note_off,,,,,512,0,8,,,47,0,7
53248,note_on,,,,,0,0,6,,,67,96,5
53248,note_on,,,,,0,0,6,,,67,96,5
53248,note_off,,,,,0,0,6,,,69,0,5
53248,note_off,,,,,256,0,6,,,69,0,5
53248,note_on,,,,,0,0,7,,,64,96,6
53248,note_off,,,,,0,0,5,,,71,0,4
53504,note_on,,,,,0,0,6,,,72,96,5
53504,note_off,,,,,256,0,7,,,67,0,6
53504,note_off,,,,,0,0,6,,,67,0,5
53504,note_on,,,,,0,0,6,,,72,96,5
53504,note_on,,,,,0,0,7,,,72,96,6
53504,note_off,,,,,256,0,6,,,67,0,5
53760,note_on,,,,,0,0,6,,,71,96,5
53760,note_off,,,,,0,0,7,,,59,0,6
53760,note_on,,,,,0,0,7,,,62,96,6
53760,note_off,,,,,0,0,7,,,64,0,6
53760,note_on,,,,,0,0,7,,,71,96,6
53760,note_on,,,,,0,0,7,,,72,96,6
53760,note_on,,,,,0,0,8,,,53,96,7
53760,note_off,,,,,512,0,8,,,52,0,7
53760,note_off,,,,,0,0,5,,,67,0,4
53760,note_off,,,,,0,0,6,,,72,0,5
53760,note_off,,,,,256,0,7,,,72,0,6
53760,note_on,,,,,0,0,6,,,71,96,5
53760,note_off,,,,,256,0,6,,,72,0,5
53760,note_off,,,,,512,0,5,,,76,0,4
54016,note_on,,,,,0,0,7,,,69,96,6
54016,note_off,,,,,256,0,6,,,71,0,5
54016,note_on,,,,,0,0,6,,,69,96,5
54016,note_on,,,,,0,0,6,,,69,96,5
54016,note_off,,,,,256,0,7,,,71,0,6
54016,note_off,,,,,0,0,6,,,71,0,5
54272,note_on,,,,,0,0,7,,,64,96,6
54272,note_off,,,,,0,0,7,,,62,0,6
54272,note_off,,,,,256,0,7,,,69,0,6
54272,note_on,,,,,0,0,7,,,67,96,6
54272,note_on,,,,,0,0,8,,,55,96,7
54272,note_off,,,,,512,0,8,,,53,0,7
54272,note_off,,,,,0,0,6,,,69,0,5
54272,note_on,,,,,0,0,6,,,67,96,5
54272,note_on,,,,,0,0,6,,,67,96,5
54272,note_off,,,,,256,0,6,,,69,0,5
54528,note_on,,,,,0,0,6,,,65,96,5
54528,note_on,,,,,0,0,6,,,65,96,5
54528,note_on,,,,,0,0,7,,,65,96,6
54528,note_off,,,,,256,0,7,,,67,0,6
54528,note_off,,,,,0,0,6,,,67,0,5
54528,note_off,,,,,256,0,6,,,67,0,5
54784,note_on,,,,,0,0,7,,,71,96,6
54784,note_on,,,,,0,0,5,,,67,96,4
54784,note_off,,,,,0,0,6,,,65,0,5
54784,note_on,,,,,0,0,6,,,64,96,5
54784,note_on,,,,,0,0,6,,,64,96,5
54784,note_on,,,,,0,0,8,,,43,96,7
54784,note_off,,,,,512,0,8,,,55,0,7
54784,note_on,,,,,1024,0,5,,,74,96,4
54784,note_off,,,,,256,0,6,,,65,0,5
54784,note_off,,,,,0,0,7,,,64,0,6
54784,note_on,,,,,0,0,7,,,64,96,6
54784,note_off,,,,,0,0,7,,,72,0,6
54784,note_on,,,,,0,0,7,,,67,96,6
54784,note_off,,,,,256,0,7,,,65,0,6
55040,note_on,,,,,0,0,6,,,65,96,5
55040,note_on,,,,,0,0,6,,,65,96,5
55040,note_off,,,,,0,0,6,,,64,0,5
55040,note_off,,,,,256,0,6,,,64,0,5
55040,note_off,,,,,256,0,7,,,64,0,6
55040,note_on,,,,,0,0,7,,,65,96,6
55296,note_on,,,,,0,0,8,,,48,96,7
55296,note_off,,,,,256,0,7,,,65,0,6
55296,note_off,,,,,256,0,6,,,65,0,5
55296,note_on,,,,,0,0,6,,,64,96,5
55296,note_on,,,,,0,0,6,,,64,96,5
55296,note_off,,,,,0,0,6,,,65,0,5
55296,note_off,,,,,0,0,5,,,67,0,4
55296,note_on,,,,,0,0,5,,,67,96,4
55296,note_on,,,,,0,0,5,,,76,96,4
55296,note_off,,,,,512,0,5,,,74,0,4
55296,note_on,,,,,0,0,7,,,64,96,6
55296,note_off,,,,,512,0,8,,,43,0,7
55552,note_on,,,,,0,0,6,,,67,96,5
55552,note_on,,,,,0,0,6,,,67,96,5
55552,note_off,,,,,256,0,6,,,64,0,5
55552,note_off,,,,,0,0,6,,,64,0,5
55552,note_off,,,,,256,0,7,,,64,0,6
55552,note_on,,,,,0,0,7,,,67,96,6
55808,note_off,,,,,0,0,5,,,67,0,4
55808,note_off,,,,,0,0,6,,,67,0,5
55808,note_on,,,,,0,0,6,,,66,96,5
55808,note_on,,,,,0,0,6,,,66,96,5
55808,note_off,,,,,256,0,6,,,67,0,5
55808,note_off,,,,,512,0,8,,,48,0,7
55808,note_on,,,,,0,0,8,,,60,96,7
55808,note_off,,,,,512,0,5,,,76,0,4
55808,note_off,,,,,0,0,7,,,67,0,6
55808,note_on,,,,,0,0,7,,,69,96,6
55808,note_off,,,,,0,0,7,,,71,0,6
55808,note_on,,,,,0,0,7,,,66,96,6
55808,note_off,,,,,256,0,7,,,67,0,6
55808,note_on,,,,,0,0,5,,,69,96,4
55808,note_on,,,,,0,0,7,,,62,96,6
55808,note_on,,,,,0,0,5,,,74,96,4
56064,note_on,,,,,0,0,6,,,69,96,5
56064,note_off,,,,,256,0,7,,,66,0,6
56064,note_on,,,,,0,0,7,,,69,96,6
56064,note_off,,,,,256,0,6,,,66,0,5
56064,note_on,,,,,0,0,6,,,69,96,5
56064,note_off,,,,,0,0,6,,,66,0,5
56320,note_on,,,,,0,0,6,,,67,96,5
56320,note_off,,,,,512,0,5,,,74,0,4
56320,note_on,,,,,0,0,5,,,74,96,4
56320,note_off,,,,,0,0,5,,,69,0,4
56320,note_on,,,,,0,0,5,,,71,96,4
56320,note_on,,,,,0,0,7,,,62,96,6
56320,note_off,,,,,512,0,8,,,60,0,7
56320,note_off,,,,,0,0,7,,,62,0,6
56320,note_off,,,,,256,0,6,,,69,0,5
56320,note_on,,,,,0,0,8,,,59,96,7
56320,note_on,,,,,0,0,7,,,67,96,6
56320,note_off,,,,,0,0,7,,,69,0,6
56320,note_on,,,,,0,0,7,,,74,96,6
56320,note_off,,,,,0,0,6,,,69,0,5
56320,note_on,,,,,0,0,6,,,67,96,5
56320,note_off,,,,,256,0,7,,,69,0,6
56576,note_on,,,,,0,0,6,,,79,96,5
56576,note_off,,,,,256,0,6,,,67,0,5
56576,note_off,,,,,0,0,6,,,67,0,5
56576,note_on,,,,,0,0,6,,,79,96,5
56576,note_on,,,,,0,0,7,,,79,96,6
56576,note_off,,,,,256,0,7,,,67,0,6
56832,note_on,,,,,0,0,8,,,57,96,7
56832,note_off,,,,,512,0,8,,,59,0,7
56832,note_off,,,,,512,0,5,,,71,0,4
56832,note_on,,,,,0,0,5,,,72,96,4
56832,note_off,,,,,0,0,6,,,79,0,5
56832,note_on,,,,,0,0,6,,,78,96,5
56832,note_on,,,,,0,0,6,,,78,96,5
56832,note_off,,,,,256,0,6,,,79,0,5
56832,note_on,,,,,0,0,7,,,78,96,6
56832,note_off,,,,,256,0,7,,,79,0,6
56832,note_on,,,,,0,0,7,,,66,96,6
56832,note_off,,,,,0,0,7,,,62,0,6
56832,note_on,,,,,0,0,7,,,72,96,6
56832,note_off,,,,,0,0,7,,,74,0,6
57088,note_off,,,,,0,0,6,,,78,0,5
57088,note_on,,,,,0,0,6,,,76,96,5
57088,note_on,,,,,0,0,6,,,76,96,5
57088,note_off,,,,,256,0,6,,,78,0,5
57088,note_off,,,,,256,0,7,,,78,0,6
57088,note_on,,,,,0,0,7,,,76,96,6
57344,note_on,,,,,0,0,6,,,74,96,5
57344,note_on,,,,,0,0,6,,,74,96,5
57344,note_off,,,,,0,0,6,,,76,0,5
57344,note_off,,,,,256,0,6,,,76,0,5
57344,note_off,,,,,256,0,7,,,76,0,6
57344,note_off,,,,,0,0,7,,,66,0,6
57344,note_on,,,,,0,0,8,,,59,96,7
57344,note_off,,,,,512,0,5,,,72,0,4
57344,note_on,,,,,0,0,5,,,71,96,4
57344,note_on,,,,,0,0,7,,,67,96,6
57344,note_on,,,,,0,0,7,,,71,96,6
57344,note_on,,,,,0,0,7,,,74,96,6
57344,note_off,,,,,0,0,7,,,72,0,6
57344,note_off,,,,,512,0,8,,,57,0,7
57600,note_off,,,,,256,0,5,,,74,0,4
57600,note_on,,,,,0,0,5,,,72,96,4
57600,note_off,,,,,0,0,5,,,71,0,4
57600,note_on,,,,,0,0,5,,,69,96,4
57600,note_off,,,,,0,0,6,,,74,0,5
57600,note_on,,,,,0,0,6,,,72,96,5
57600,note_on,,,,,0,0,6,,,72,96,5
57600,note_on,,,,,0,0,7,,,72,96,6
57600,note_off,,,,,256,0,7,,,74,0,6
57600,note_off,,,,,256,0,6,,,74,0,5
57856,note_off,,,,,0,0,7,,,71,0,6
57856,note_on,,,,,0,0,7,,,67,96,6
57856,note_off,,,,,0,0,7,,,67,0,6
57856,note_on,,,,,0,0,7,,,55,96,6
57856,note_on,,,,,0,0,8,,,60,96,7
57856,note_on,,,,,0,0,7,,,71,96,6
57856,note_on,,,,,512,0,8,,,43,96,7
57856,note_off,,,,,256,0,5,,,72,0,4
57856,note_on,,,,,0,0,5,,,71,96,4
57856,note_off,,,,,0,0,5,,,69,0,4
57856,note_on,,,,,0,0,5,,,67,96,4
57856,note_off,,,,,0,0,6,,,72,0,5
57856,note_on,,,,,0,0,6,,,71,96,5
57856,note_on,,,,,0,0,6,,,71,96,5
57856,note_off,,,,,256,0,6,,,72,0,5
57856,note_off,,,,,0,0,8,,,59,0,7
57856,note_off,,,,,256,0,7,,,72,0,6
58112,note_off,,,,,256,0,7,,,71,0,6
58112,note_on,,,,,0,0,7,,,72,96,6
58112,note_off,,,,,0,0,6,,,71,0,5
58112,note_on,,,,,0,0,6,,,72,96,5
58112,note_on,,,,,0,0,6,,,72,96,5
58112,note_off,,,,,256,0,6,,,71,0,5
58112,note_on,,,,,0,0,5,,,72,96,4
58112,note_off,,,,,256,0,5,,,71,0,4
58240,note_on,,,,,0,0,7,,,74,96,6
58240,note_on,,,,,0,0,6,,,74,96,5
58240,note_off,,,,,128,0,7,,,72,0,6
58240,note_off,,,,,128,0,6,,,72,0,5
58240,note_on,,,,,0,0,6,,,74,96,5
58240,note_off,,,,,0,0,6,,,72,0,5
58368,note_on,,,,,0,0,5,,,69,96,4
58368,note_off,,,,,0,0,7,,,67,0,6
58368,note_on,,,,,0,0,7,,,69,96,6
58368,note_off,,,,,128,0,7,,,74,0,6
58368,note_on,,,,,0,0,7,,,67,96,6
58368,note_off,,,,,128,0,6,,,74,0,5
58368,note_off,,,,,256,0,5,,,72,0,4
58368,note_on,,,,,0,0,7,,,62,96,6
58368,note_on,,,,,0,0,6,,,69,96,5
58368,note_off,,,,,0,0,6,,,74,0,5
58368,note_on,,,,,0,0,8,,,62,96,7
58368,note_off,,,,,0,0,8,,,60,0,7
58368,note_on,,,,,0,0,8,,,50,96,7
58368,note_off,,,,,512,0,8,,,43,0,7
58368,note_on,,,,,0,0,5,,,62,96,4
58368,note_off,,,,,0,0,5,,,67,0,4
58368,note_on,,,,,0,0,6,,,69,96,5
58368,note_off,,,,,0,0,7,,,55,0,6
58624,note_off,,,,,256,0,8,,,50,0,7
58624,note_on,,,,,0,0,8,,,50,96,7
58624,note_off,,,,,256,0,5,,,62,0,4
58624,note_on,,,,,0,0,5,,,59,96,4
58880,note_off,,,,,512,0,7,,,67,0,6
58880,note_off,,,,,0,0,8,,,62,0,7
58880,note_on,,,,,0,0,8,,,50,96,7
58880,note_on,,,,,0,0,8,,,50,96,7
58880,note_on,,,,,0,0,5,,,62,96,4
58880,note_off,,,,,256,0,8,,,50,0,7
58880,note_on,,,,,0,0,7,,,57,96,6
58880,note_off,,,,,0,0,7,,,62,0,6
58880,note_on,,,,,0,0,7,,,66,96,6
58880,note_off,,,,,256,0,5,,,59,0,4
59136,note_off,,,,,256,0,5,,,69,0,4
59136,note_on,,,,,0,0,5,,,67,96,4
59136,note_off,,,,,0,0,6,,,69,0,5
59136,note_off,,,,,256,0,8,,,50,0,7
59136,note_on,,,,,0,0,8,,,50,96,7
59136,note_off,,,,,256,0,7,,,69,0,6
59136,note_on,,,,,0,0,7,,,67,96,6
59136,note_on,,,,,0,0,6,,,67,96,5
59136,note_on,,,,,0,0,6,,,67,96,5
59136,note_off,,,,,768,0,6,,,69,0,5
59392,note_on,,,,,0,0,6,,,67,96,5
59392,note_off,,,,,256,0,6,,,67,0,5
59392,note_on,,,,,0,0,5,,,67,96,4
59392,note_on,,,,,0,0,7,,,62,96,6
59392,note_off,,,,,256,0,5,,,67,0,4
59392,note_off,,,,,0,0,7,,,66,0,6
59392,note_on,,,,,0,0,7,,,67,96,6
59392,note_off,,,,,256,0,7,,,67,0,6
59392,note_off,,,,,256,0,8,,,50,0,7
59392,note_on,,,,,0,0,8,,,43,96,7
59392,note_on,,,,,0,0,8,,,43,96,7
59392,note_off,,,,,0,0,8,,,50,0,7
59392,note_off,,,,,0,0,7,,,57,0,6
59392,note_on,,,,,0,0,7,,,59,96,6
59392,note_off,,,,,0,0,6,,,67,0,5
59392,note_on,,,,,0,0,5,,,59,96,4
59392,note_off,,,,,0,0,5,,,62,0,4
59392,note_on,,,,,0,0,6,,,67,96,5
59904,note_on,,,,,0,0,8,,,50,96,7
59904,note_off,,,,,512,0,8,,,43,0,7
60416,note_off,,,,,512,0,8,,,50,0,7
60416,note_on,,,,,18432,0,3,,,55,96,2
60416,note_on,,,,,0,0,8,,,55,96,7
60416,note_on,,,,,18432,0,2,,,59,96,1
60416,note_on,,,,,18432,0,1,,,62,96,0
60416,note_on,,,,,18432,0,4,,,55,96,3
60416,note_off,,,,,0,0,7,,,62,0,6
60416,note_off,,,,,0,0,7,,,59,0,6
60416,note_off,,,,,1024,0,7,,,67,0,6
60928,note_on,,,,,0,0,3,,,57,96,2
60928,note_off,,,,,512,0,3,,,55,0,2
60928,note_off,,,,,0,0,5,,,59,0,4
60928,note_off,,,,,512,0,8,,,43,0,7
60928,note_off,,,,,512,0,4,,,55,0,3
60928,note_on,,,,,0,0,4,,,54,96,3
60928,note_off,,,,,0,0,6,,,67,0,5
60928,note_off,,,,,0,0,8,,,55,0,7
60928,note_off,,,,,1536,0,6,,,67,0,5
60928,note_on,,,,,0,0,5,,,62,96,4
60928,note_off,,,,,1536,0,5,,,67,0,4
60928,note_on,,,,,0,0,8,,,54,96,7
61440,note_on,,,,,0,0,4,,,52,96,3
61440,note_on,,,,,0,0,2,,,64,96,1
61440,note_off,,,,,1024,0,2,,,59,0,1
61440,note_off,,,,,512,0,8,,,54,0,7
61440,note_on,,,,,0,0,8,,,52,96,7
61440,note_off,,,,,512,0,5,,,62,0,4
61440,note_on,,,,,0,0,1,,,67,96,0
61440,note_off,,,,,1024,0,1,,,62,0,0
61440,note_off,,,,,512,0,3,,,57,0,2
61440,note_on,,,,,0,0,5,,,67,96,4
61440,note_on,,,,,0,0,3,,,59,96,2
61440,note_off,,,,,512,0,4,,,54,0,3
61696,note_off,,,,,256,0,5,,,67,0,4
61696,note_on,,,,,0,0,5,,,69,96,4
61952,note_off,,,,,256,0,5,,,69,0,4
61952,note_off,,,,,512,0,8,,,52,0,7
61952,note_off,,,,,512,0,4,,,52,0,3
61952,note_on,,,,,0,0,4,,,50,96,3
61952,note_on,,,,,0,0,5,,,67,96,4
61952,note_on,,,,,0,0,5,,,62,96,4
61952,note_on,,,,,0,0,8,,,50,96,7
62464,note_off,,,,,512,0,5,,,67,0,4
62464,note_off,,,,,0,0,5,,,62,0,4
62464,note_on,,,,,0,0,1,,,69,96,0
62464,note_on,,,,,0,0,3,,,57,96,2
62464,note_off,,,,,1024,0,1,,,67,0,0
62464,note_on,,,,,0,0,8,,,48,96,7
62464,note_off,,,,,512,0,4,,,50,0,3
62464,note_on,,,,,0,0,4,,,48,96,3
62464,note_off,,,,,1024,0,3,,,59,0,2
62464,note_off,,,,,512,0,8,,,50,0,7
62464,note_on,,,,,0,0,5,,,67,96,4
62976,note_off,,,,,512,0,8,,,48,0,7
62976,note_on,,,,,0,0,8,,,50,96,7
62976,note_on,,,,,0,0,5,,,62,96,4
62976,note_off,,,,,512,0,4,,,48,0,3
62976,note_on,,,,,512,0,5,,,69,96,4
62976,note_on,,,,,0,0,4,,,50,96,3
62976,note_off,,,,,1536,0,2,,,64,0,1
62976,note_on,,,,,0,0,2,,,66,96,1
62976,note_off,,,,,0,0,5,,,67,0,4
63488,note_on,,,,,512,0,8,,,43,96,7
63488,note_off,,,,,0,0,8,,,50,0,7
63488,note_on,,,,,0,0,2,,,67,96,1
63488,note_on,,,,,0,0,5,,,71,96,4
63488,note_off,,,,,512,0,5,,,69,0,4
63488,note_on,,,,,0,0,4,,,55,96,3
63488,note_off,,,,,512,0,4,,,50,0,3
63488,note_off,,,,,1024,0,1,,,69,0,0
63488,note_on,,,,,0,0,1,,,71,96,0
63488,note_on,,,,,0,0,8,,,43,96,7
63488,note_off,,,,,0,0,5,,,62,0,4
63488,note_off,,,,,512,0,2,,,66,0,1
63488,note_on,,,,,0,0,3,,,55,96,2
63488,note_off,,,,,1024,0,3,,,57,0,2
63744,note_off,,,,,256,0,5,,,71,0,4
63744,note_on,,,,,0,0,5,,,72,96,4
64000,note_on,,,,,0,0,6,,,62,96,5
64000,note_on,,,,,3072,0,6,,,62,96,5
64000,note_on,,,,,3584,0,7,,,62,96,6
64000,note_on,,,,,0,0,7,,,67,96,6
64000,note_on,,,,,0,0,7,,,55,96,6
64000,note_on,,,,,0,0,8,,,55,96,7
64000,note_on,,,,,0,0,5,,,62,96,4
64000,note_on,,,,,0,0,5,,,71,96,4
64000,note_off,,,,,256,0,5,,,72,0,4
64000,note_off,,,,,512,0,8,,,43,0,7
64512,note_off,,,,,512,0,7,,,62,0,6
64512,note_on,,,,,0,0,7,,,67,96,6
64512,note_on,,,,,0,0,7,,,67,96,6
64512,note_on,,,,,0,0,3,,,55,96,2
64512,note_off,,,,,1024,0,3,,,55,0,2
64512,note_on,,,,,0,0,2,,,60,96,1
64512,note_off,,,,,1024,0,2,,,67,0,1
64512,note_off,,,,,0,0,7,,,55,0,6
64512,note_on,,,,,0,0,1,,,76,96,0
64512,note_off,,,,,1024,0,1,,,71,0,0
64512,note_on,,,,,0,0,8,,,52,96,7
64512,note_off,,,,,0,0,8,,,55,0,7
64512,note_off,,,,,512,0,8,,,43,0,7
64512,note_off,,,,,1024,0,4,,,55,0,3
64512,note_on,,,,,0,0,7,,,55,96,6
64512,note_off,,,,,0,0,7,,,67,0,6
64512,note_off,,,,,512,0,6,,,62,0,5
64512,note_on,,,,,0,0,5,,,67,96,4
64512,note_off,,,,,0,0,5,,,62,0,4
64512,note_off,,,,,512,0,5,,,71,0,4
64512,note_on,,,,,0,0,6,,,67,96,5
64512,note_on,,,,,0,0,6,,,67,96,5
64512,note_off,,,,,0,0,6,,,62,0,5
64768,note_on,,,,,0,0,5,,,69,96,4
64768,note_off,,,,,256,0,5,,,67,0,4
65024,note_on,,,,,512,0,4,,,60,96,3
65024,note_off,,,,,512,0,6,,,67,0,5
65024,note_on,,,,,0,0,6,,,69,96,5
65024,note_on,,,,,256,0,5,,,76,96,4
65024,note_on,,,,,0,0,8,,,48,96,7
65024,note_off,,,,,0,0,5,,,69,0,4
65024,note_off,,,,,512,0,8,,,52,0,7
65024,note_on,,,,,0,0,6,,,69,96,5
65024,note_off,,,,,512,0,7,,,67,0,6
65024,note_on,,,,,0,0,7,,,69,96,6
65024,note_off,,,,,0,0,7,,,67,0,6
65024,note_on,,,,,0,0,7,,,60,96,6
65024,note_off,,,,,0,0,7,,,55,0,6
65024,note_on,,,,,0,0,7,,,52,96,6
65024,note_on,,,,,0,0,5,,,67,96,4
65024,note_off,,,,,0,0,6,,,67,0,5
65536,note_off,,,,,1024,0,2,,,60,0,1
65536,note_on,,,,,0,0,2,,,62,96,1
65536,note_off,,,,,0,0,7,,,60,0,6
65536,note_off,,,,,512,0,8,,,48,0,7
65536,note_on,,,,,0,0,8,,,55,96,7
65536,note_off,,,,,512,0,6,,,69,0,5
65536,note_off,,,,,0,0,6,,,69,0,5
65536,note_on,,,,,0,0,6,,,71,96,5
65536,note_on,,,,,0,0,6,,,71,96,5
65536,note_on,,,,,0,0,1,,,74,96,0
65536,note_off,,,,,1024,0,1,,,76,0,0
65536,note_off,,,,,1024,0,3,,,55,0,2
65536,note_on,,,,,0,0,3,,,55,96,2
65536,note_off,,,,,0,0,7,,,52,0,6
65536,note_on,,,,,0,0,7,,,55,96,6
65536,note_on,,,,,0,0,4,,,59,96,3
65536,note_off,,,,,512,0,7,,,69,0,6
65536,note_on,,,,,0,0,7,,,71,96,6
65536,note_on,,,,,0,0,5,,,64,96,4
65536,note_off,,,,,512,0,4,,,60,0,3
65536,note_on,,,,,0,0,7,,,62,96,6
65536,note_off,,,,,512,0,5,,,76,0,4
65536,note_off,,,,,0,0,5,,,67,0,4
65792,note_on,,,,,0,0,7,,,69,96,6
65792,note_on,,,,,0,0,4,,,60,96,3
65792,note_off,,,,,0,0,7,,,62,0,6
65792,note_off,,,,,256,0,6,,,71,0,5
65792,note_on,,,,,0,0,6,,,69,96,5
65792,note_on,,,,,0,0,6,,,69,96,5
65792,note_off,,,,,256,0,7,,,71,0,6
65792,note_on,,,,,0,0,7,,,64,96,6
65792,note_on,,,,,0,0,5,,,67,96,4
65792,note_off,,,,,256,0,4,,,59,0,3
65792,note_off,,,,,256,0,2,,,62,0,1
65792,note_on,,,,,0,0,2,,,64,96,1
65792,note_off,,,,,256,0,5,,,64,0,4
65792,note_off,,,,,0,0,6,,,71,0,5
66048,note_off,,,,,256,0,4,,,60,0,3
66048,note_off,,,,,512,0,3,,,55,0,2
66048,note_off,,,,,256,0,2,,,64,0,1
66048,note_on,,,,,0,0,2,,,62,96,1
66048,note_off,,,,,256,0,5,,,67,0,4
66048,note_on,,,,,0,0,5,,,66,96,4
66048,note_on,,,,,0,0,4,,,59,96,3
66048,note_on,,,,,0,0,3,,,50,96,2
66048,note_off,,,,,256,0,6,,,69,0,5
66048,note_on,,,,,0,0,6,,,67,96,5
66048,note_on,,,,,0,0,7,,,50,96,6
66048,note_on,,,,,512,0,8,,,43,96,7
66048,note_off,,,,,0,0,8,,,55,0,7
66048,note_on,,,,,0,0,8,,,47,96,7
66048,note_on,,,,,0,0,7,,,62,96,6
66048,note_off,,,,,0,0,7,,,64,0,6
66048,note_off,,,,,0,0,7,,,55,0,6
66048,note_off,,,,,256,0,7,,,69,0,6
66048,note_on,,,,,0,0,7,,,67,96,6
66048,note_off,,,,,0,0,6,,,69,0,5
66048,note_on,,,,,0,0,6,,,67,96,5
66304,note_on,,,,,0,0,4,,,60,96,3
66304,note_off,,,,,256,0,5,,,66,0,4
66304,note_on,,,,,0,0,2,,,64,96,1
66304,note_off,,,,,256,0,8,,,47,0,7
66304,note_on,,,,,0,0,7,,,64,96,6
66304,note_off,,,,,256,0,4,,,59,0,3
66304,note_on,,,,,0,0,7,,,69,96,6
66304,note_off,,,,,256,0,2,,,62,0,1
66304,note_on,,,,,0,0,8,,,48,96,7
66304,note_on,,,,,0,0,5,,,69,96,4
66304,note_off,,,,,0,0,6,,,67,0,5
66304,note_on,,,,,0,0,6,,,69,96,5
66304,note_off,,,,,256,0,6,,,67,0,5
66304,note_on,,,,,0,0,6,,,69,96,5
66304,note_off,,,,,256,0,7,,,67,0,6
66304,note_off,,,,,0,0,7,,,62,0,6
66560,note_off,,,,,256,0,7,,,69,0,6
66560,note_on,,,,,0,0,7,,,71,96,6
66560,note_off,,,,,0,0,7,,,64,0,6
66560,note_on,,,,,0,0,7,,,66,96,6
66560,note_off,,,,,0,0,7,,,50,0,6
66560,note_on,,,,,0,0,7,,,62,96,6
66560,note_on,,,,,0,0,3,,,62,96,2
66560,note_off,,,,,512,0,3,,,50,0,2
66560,note_off,,,,,256,0,5,,,69,0,4
66560,note_off,,,,,256,0,4,,,60,0,3
66560,note_off,,,,,0,0,8,,,48,0,7
66560,note_on,,,,,0,0,8,,,50,96,7
66560,note_on,,,,,0,0,8,,,50,96,7
66560,note_off,,,,,256,0,8,,,43,0,7
66560,note_off,,,,,256,0,6,,,69,0,5
66560,note_on,,,,,0,0,6,,,71,96,5
66560,note_on,,,,,0,0,4,,,62,96,3
66560,note_on,,,,,0,0,6,,,71,96,5
66560,note_off,,,,,0,0,6,,,69,0,5
66560,note_off,,,,,256,0,2,,,64,0,1
66560,note_on,,,,,0,0,2,,,66,96,1
66560,note_on,,,,,0,0,5,,,67,96,4
66816,note_off,,,,,256,0,6,,,71,0,5
66816,note_on,,,,,0,0,6,,,72,96,5
66816,note_off,,,,,256,0,5,,,67,0,4
66816,note_off,,,,,0,0,6,,,71,0,5
66816,note_off,,,,,256,0,7,,,71,0,6
66816,note_on,,,,,0,0,7,,,72,96,6
66816,note_on,,,,,0,0,5,,,79,96,4
66816,note_on,,,,,0,0,6,,,72,96,5
67072,note_on,,,,,0,0,2,,,69,96,1
67072,note_off,,,,,512,0,4,,,62,0,3
67072,note_on,,,,,0,0,4,,,50,96,3
67072,note_on,,,,,0,0,6,,,71,96,5
67072,note_off,,,,,1536,0,1,,,74,0,0
67072,note_on,,,,,0,0,1,,,72,96,0
67072,note_off,,,,,0,0,7,,,62,0,6
67072,note_on,,,,,0,0,7,,,62,96,6
67072,note_on,,,,,0,0,7,,,69,96,6
67072,note_off,,,,,256,0,6,,,72,0,5
67072,note_off,,,,,0,0,7,,,66,0,6
67072,note_on,,,,,0,0,7,,,71,96,6
67072,note_off,,,,,256,0,7,,,72,0,6
67072,note_off,,,,,0,0,6,,,72,0,5
67072,note_off,,,,,512,0,2,,,66,0,1
67072,note_on,,,,,0,0,6,,,71,96,5
67072,note_off,,,,,256,0,5,,,79,0,4
67072,note_on,,,,,0,0,5,,,78,96,4
67072,note_off,,,,,512,0,8,,,50,0,7
67072,note_on,,,,,0,0,8,,,38,96,7
67072,note_off,,,,,0,0,8,,,50,0,7
67072,note_on,,,,,0,0,8,,,50,96,7
67328,note_off,,,,,256,0,6,,,71,0,5
67328,note_on,,,,,0,0,6,,,72,96,5
67328,note_on,,,,,0,0,6,,,72,96,5
67328,note_off,,,,,0,0,6,,,71,0,5
67328,note_off,,,,,256,0,7,,,71,0,6
67328,note_on,,,,,0,0,7,,,72,96,6
67328,note_off,,,,,256,0,5,,,78,0,4
67328,note_on,,,,,0,0,5,,,76,96,4
67584,note_off,,,,,512,0,1,,,72,0,0
67584,note_on,,,,,0,0,7,,,67,96,6
67584,note_off,,,,,0,0,7,,,69,0,6
67584,note_off,,,,,0,0,8,,,38,0,7
67584,note_on,,,,,0,0,8,,,43,96,7
67584,note_off,,,,,256,0,6,,,72,0,5
67584,note_off,,,,,512,0,8,,,50,0,7
67584,note_on,,,,,0,0,6,,,74,96,5
67584,note_off,,,,,0,0,6,,,72,0,5
67584,note_off,,,,,512,0,4,,,50,0,3
67584,note_on,,,,,0,0,7,,,74,96,6
67584,note_off,,,,,256,0,7,,,72,0,6
67584,note_off,,,,,0,0,7,,,62,0,6
67584,note_on,,,,,0,0,8,,,43,96,7
67584,note_on,,,,,0,0,1,,,71,96,0
67584,note_on,,,,,0,0,6,,,74,96,5
67584,note_on,,,,,0,0,7,,,62,96,6
67584,note_on,,,,,0,0,4,,,55,96,3
67584,note_on,,,,,0,0,2,,,67,96,1
67584,note_on,,,,,0,0,3,,,62,96,2
67584,note_off,,,,,1024,0,3,,,62,0,2
67584,note_off,,,,,512,0,2,,,69,0,1
67584,note_off,,,,,256,0,5,,,76,0,4
67584,note_on,,,,,0,0,5,,,74,96,4
67840,note_on,,,,,0,0,6,,,79,96,5
67840,note_off,,,,,256,0,6,,,74,0,5
67840,note_on,,,,,0,0,6,,,79,96,5
67840,note_off,,,,,0,0,6,,,74,0,5
67840,note_off,,,,,256,0,5,,,74,0,4
67840,note_off,,,,,256,0,7,,,74,0,6
67840,note_on,,,,,0,0,7,,,79,96,6
67840,note_on,,,,,0,0,5,,,72,96,4
68096,note_on,,,,,0,0,5,,,71,96,4
68096,note_off,,,,,512,0,8,,,43,0,7
68096,note_off,,,,,0,0,8,,,43,0,7
68096,note_off,,,,,0,0,7,,,67,0,6
68096,note_on,,,,,0,0,6,,,78,96,5
68096,note_on,,,,,0,0,6,,,78,96,5
68096,note_on,,,,,0,0,8,,,55,96,7
68096,note_off,,,,,256,0,5,,,72,0,4
68096,note_on,,,,,0,0,7,,,78,96,6
68096,note_off,,,,,0,0,6,,,79,0,5
68096,note_off,,,,,256,0,7,,,79,0,6
68096,note_on,,,,,0,0,7,,,71,96,6
68096,note_off,,,,,0,0,7,,,62,0,6
68096,note_on,,,,,0,0,7,,,59,96,6
68096,note_off,,,,,256,0,6,,,79,0,5
68352,note_off,,,,,256,0,6,,,78,0,5
68352,note_on,,,,,0,0,6,,,76,96,5
68352,note_on,,,,,0,0,6,,,76,96,5
68352,note_off,,,,,0,0,6,,,78,0,5
68352,note_off,,,,,256,0,7,,,78,0,6
68352,note_on,,,,,0,0,7,,,76,96,6
68352,note_on,,,,,0,0,7,,,60,96,6
68352,note_off,,,,,0,0,7,,,59,0,6
68352,note_off,,,,,256,0,5,,,71,0,4
68352,note_on,,,,,0,0,5,,,72,96,4
68480,note_off,,,,,128,0,5,,,72,0,4
68480,note_on,,,,,0,0,5,,,74,96,4
68608,note_off,,,,,1024,0,1,,,71,0,0
68608,note_off,,,,,256,0,7,,,76,0,6
68608,note_on,,,,,0,0,8,,,54,96,7
68608,note_off,,,,,1024,0,4,,,55,0,3
68608,note_on,,,,,0,0,7,,,74,96,6
68608,note_off,,,,,1024,0,3,,,62,0,2
68608,note_on,,,,,0,0,7,,,62,96,6
68608,note_off,,,,,0,0,7,,,71,0,6
68608,note_on,,,,,0,0,7,,,69,96,6
68608,note_off,,,,,512,0,8,,,55,0,7
68608,note_off,,,,,0,0,7,,,60,0,6
68608,note_off,,,,,1024,0,2,,,67,0,1
68608,note_off,,,,,256,0,6,,,76,0,5
68608,note_on,,,,,0,0,6,,,74,96,5
68608,note_on,,,,,0,0,6,,,74,96,5
68608,note_off,,,,,0,0,6,,,76,0,5
68608,note_on,,,,,0,0,5,,,69,96,4
68608,note_off,,,,,128,0,5,,,74,0,4
68864,note_on,,,,,0,0,6,,,72,96,5
68864,note_on,,,,,0,0,7,,,72,96,6
68864,note_off,,,,,256,0,7,,,74,0,6
68864,note_off,,,,,256,0,6,,,74,0,5
68864,note_on,,,,,0,0,6,,,72,96,5
68864,note_off,,,,,0,0,6,,,74,0,5
69120,note_on,,,,,0,0,7,,,62,96,6
69120,note_off,,,,,0,0,7,,,69,0,6
69120,note_on,,,,,0,0,7,,,71,96,6
69120,note_off,,,,,0,0,7,,,62,0,6
69120,note_off,,,,,256,0,7,,,72,0,6
69120,note_on,,,,,0,0,7,,,66,96,6
69120,note_off,,,,,256,0,6,,,72,0,5
69120,note_off,,,,,0,0,8,,,54,0,7
69120,note_on,,,,,0,0,6,,,71,96,5
69120,note_on,,,,,512,0,8,,,50,96,7
69120,note_on,,,,,0,0,6,,,71,96,5
69120,note_off,,,,,0,0,6,,,72,0,5
69120,note_on,,,,,0,0,8,,,50,96,7
69376,note_off,,,,,256,0,7,,,71,0,6
69376,note_on,,,,,0,0,7,,,72,96,6
69376,note_off,,,,,256,0,6,,,71,0,5
69376,note_on,,,,,0,0,6,,,72,96,5
69376,note_off,,,,,0,0,6,,,71,0,5
69376,note_on,,,,,0,0,6,,,72,96,5
69376,note_on,,,,,0,0,5,,,67,96,4
69376,note_off,,,,,768,0,5,,,69,0,4
69632,note_off,,,,,0,0,6,,,72,0,5
69632,note_off,,,,,0,0,8,,,50,0,7
69632,note_on,,,,,0,0,8,,,43,96,7
69632,note_on,,,,,0,0,8,,,55,96,7
69632,note_off,,,,,256,0,7,,,72,0,6
69632,note_on,,,,,0,0,7,,,71,96,6
69632,note_on,,,,,0,0,6,,,71,96,5
69632,note_off,,,,,256,0,5,,,67,0,4
69632,note_on,,,,,0,0,5,,,79,96,4
69632,note_on,,,,,0,0,5,,,71,96,4
69632,note_on,,,,,0,0,6,,,71,96,5
69632,note_off,,,,,256,0,6,,,72,0,5
69632,note_off,,,,,512,0,8,,,50,0,7
69888,note_off,,,,,256,0,6,,,71,0,5
69888,note_on,,,,,0,0,6,,,76,96,5
69888,note_on,,,,,0,0,6,,,76,96,5
69888,note_off,,,,,0,0,6,,,71,0,5
69888,note_on,,,,,0,0,7,,,76,96,6
69888,note_off,,,,,256,0,7,,,71,0,6
70144,note_off,,,,,256,0,6,,,76,0,5
70144,note_on,,,,,0,0,6,,,74,96,5
70144,note_on,,,,,0,0,6,,,74,96,5
70144,note_off,,,,,0,0,6,,,76,0,5
70144,note_off,,,,,512,0,8,,,43,0,7
70144,note_off,,,,,0,0,8,,,55,0,7
70144,note_on,,,,,0,0,7,,,57,96,6
70144,note_on,,,,,0,0,8,,,57,96,7
70144,note_off,,,,,512,0,5,,,79,0,4
70144,note_off,,,,,0,0,5,,,71,0,4
70144,note_off,,,,,0,0,7,,,66,0,6
70144,note_on,,,,,0,0,7,,,74,96,6
70144,note_off,,,,,256,0,7,,,76,0,6
70144,note_on,,,,,0,0,7,,,64,96,6
70144,note_off,,,,,0,0,7,,,62,0,6
70400,note_off,,,,,0,0,6,,,74,0,5
70400,note_off,,,,,256,0,6,,,74,0,5
70400,note_on,,,,,0,0,6,,,72,96,5
70400,note_on,,,,,0,0,6,,,72,96,5
70400,note_on,,,,,0,0,7,,,72,96,6
70400,note_off,,,,,256,0,7,,,74,0,6
70656,note_on,,,,,0,0,6,,,71,96,5
70656,note_off,,,,,256,0,7,,,72,0,6
70656,note_on,,,,,0,0,7,,,71,96,6
70656,note_off,,,,,0,0,6,,,72,0,5
70656,note_on,,,,,0,0,7,,,54,96,6
70656,note_off,,,,,0,0,7,,,57,0,6
70656,note_off,,,,,512,0,8,,,57,0,7
70656,note_on,,,,,0,0,8,,,59,96,7
70656,note_off,,,,,256,0,6,,,72,0,5
70656,note_on,,,,,0,0,6,,,71,96,5
70912,note_on,,,,,0,0,7,,,69,96,6
70912,note_off,,,,,0,0,6,,,71,0,5
70912,note_on,,,,,0,0,6,,,69,96,5
70912,note_on,,,,,0,0,6,,,69,96,5
70912,note_off,,,,,256,0,6,,,71,0,5
70912,note_off,,,,,256,0,7,,,71,0,6
71168,note_off,,,,,0,0,7,,,64,0,6
71168,note_off,,,,,0,0,7,,,54,0,6
71168,note_on,,,,,0,0,7,,,67,96,6
71168,note_on,,,,,0,0,7,,,63,96,6
71168,note_on,,,,,0,0,5,,,71,96,4
71168,note_on,,,,,0,0,6,,,67,96,5
71168,note_on,,,,,1024,0,5,,,78,96,4
71168,note_on,,,,,0,0,6,,,67,96,5
71168,note_off,,,,,0,0,6,,,69,0,5
71168,note_off,,,,,512,0,8,,,59,0,7
71168,note_on,,,,,0,0,8,,,47,96,7
71168,note_off,,,,,256,0,7,,,69,0,6
71168,note_off,,,,,256,0,6,,,69,0,5
71168,note_on,,,,,0,0,7,,,59,96,6
71424,note_on,,,,,0,0,7,,,69,96,6
71424,note_off,,,,,256,0,7,,,67,0,6
71424,note_on,,,,,0,0,6,,,69,96,5
71424,note_off,,,,,0,0,6,,,67,0,5
71424,note_on,,,,,0,0,6,,,69,96,5
71424,note_off,,,,,256,0,6,,,67,0,5
71680,note_off,,,,,512,0,8,,,47,0,7
71680,note_off,,,,,0,0,6,,,69,0,5
71680,note_off,,,,,512,0,5,,,78,0,4
71680,note_on,,,,,0,0,5,,,76,96,4
71680,note_off,,,,,0,0,5,,,71,0,4
71680,note_on,,,,,0,0,5,,,67,96,4
71680,note_on,,,,,0,0,6,,,67,96,5
71680,note_on,,,,,0,0,6,,,67,96,5
71680,note_off,,,,,256,0,6,,,69,0,5
71680,note_on,,,,,0,0,8,,,52,96,7
71680,note_on,,,,,0,0,7,,,64,96,6
71680,note_off,,,,,0,0,7,,,63,0,6
71680,note_off,,,,,256,0,7,,,69,0,6
71680,note_on,,,,,0,0,7,,,67,96,6
71936,note_on,,,,,0,0,6,,,72,96,5
71936,note_off,,,,,256,0,7,,,67,0,6
71936,note_off,,,,,256,0,6,,,67,0,5
71936,note_on,,,,,0,0,6,,,72,96,5
71936,note_off,,,,,0,0,6,,,67,0,5
71936,note_on,,,,,0,0,7,,,72,96,6
72192,note_off,,,,,256,0,6,,,72,0,5
72192,note_on,,,,,0,0,6,,,71,96,5
72192,note_off,,,,,0,0,5,,,67,0,4
72192,note_on,,,,,0,0,6,,,71,96,5
72192,note_on,,,,,0,0,8,,,53,96,7
72192,note_off,,,,,512,0,8,,,52,0,7
72192,note_off,,,,,0,0,6,,,72,0,5
72192,note_off,,,,,0,0,7,,,59,0,6
72192,note_on,,,,,0,0,7,,,72,96,6
72192,note_off,,,,,0,0,7,,,64,0,6
72192,note_on,,,,,0,0,7,,,71,96,6
72192,note_off,,,,,256,0,7,,,72,0,6
72192,note_on,,,,,0,0,7,,,62,96,6
72192,note_off,,,,,512,0,5,,,76,0,4
72448,note_off,,,,,256,0,6,,,71,0,5
72448,note_on,,,,,0,0,6,,,69,96,5
72448,note_on,,,,,0,0,7,,,69,96,6
72448,note_off,,,,,0,0,6,,,71,0,5
72448,note_off,,,,,256,0,7,,,71,0,6
72448,note_on,,,,,0,0,6,,,69,96,5
72704,note_on,,,,,0,0,7,,,67,96,6
72704,note_off,,,,,256,0,6,,,69,0,5
72704,note_on,,,,,0,0,6,,,67,96,5
72704,note_on,,,,,0,0,6,,,67,96,5
72704,note_off,,,,,0,0,6,,,69,0,5
72704,note_off,,,,,256,0,7,,,69,0,6
72704,note_on,,,,,0,0,7,,,64,96,6
72704,note_off,,,,,0,0,7,,,62,0,6
72704,note_on,,,,,0,0,8,,,55,96,7
72704,note_off,,,,,512,0,8,,,53,0,7
72960,note_off,,,,,256,0,7,,,67,0,6
72960,note_on,,,,,0,0,7,,,65,96,6
72960,note_off,,,,,0,0,6,,,67,0,5
72960,note_on,,,,,0,0,6,,,65,96,5
72960,note_on,,,,,0,0,6,,,65,96,5
72960,note_off,,,,,256,0,6,,,67,0,5
73216,note_on,,,,,0,0,7,,,67,96,6
73216,note_off,,,,,0,0,7,,,64,0,6
73216,note_on,,,,,0,0,7,,,71,96,6
73216,note_off,,,,,0,0,7,,,72,0,6
73216,note_on,,,,,0,0,7,,,64,96,6
73216,note_off,,,,,256,0,7,,,65,0,6
73216,note_off,,,,,0,0,6,,,65,0,5
73216,note_on,,,,,0,0,6,,,64,96,5
73216,note_on,,,,,0,0,6,,,64,96,5
73216,note_off,,,,,512,0,8,,,55,0,7
73216,note_on,,,,,1024,0,5,,,74,96,4
73216,note_on,,,,,0,0,5,,,71,96,4
73216,note_on,,,,,0,0,8,,,43,96,7
73216,note_off,,,,,256,0,6,,,65,0,5
73472,note_off,,,,,256,0,6,,,64,0,5
73472,note_on,,,,,0,0,6,,,65,96,5
73472,note_on,,,,,0,0,6,,,65,96,5
73472,note_off,,,,,0,0,6,,,64,0,5
73472,note_on,,,,,0,0,7,,,65,96,6
73472,note_off,,,,,256,0,7,,,64,0,6
73728,note_on,,,,,0,0,7,,,64,96,6
73728,note_off,,,,,256,0,7,,,65,0,6
73728,note_off,,,,,512,0,8,,,43,0,7
73728,note_on,,,,,0,0,8,,,48,96,7
73728,note_off,,,,,0,0,6,,,65,0,5
73728,note_on,,,,,0,0,5,,,72,96,4
73728,note_on,,,,,0,0,5,,,76,96,4
73728,note_off,,,,,0,0,5,,,71,0,4
73728,note_off,,,,,256,0,6,,,65,0,5
73728,note_off,,,,,512,0,5,,,74,0,4
73728,note_on,,,,,0,0,6,,,64,96,5
73728,note_on,,,,,0,0,6,,,64,96,5
73984,note_on,,,,,0,0,7,,,67,96,6
73984,note_off,,,,,256,0,7,,,64,0,6
73984,note_on,,,,,0,0,6,,,67,96,5
73984,note_off,,,,,0,0,6,,,64,0,5
73984,note_on,,,,,0,0,6,,,67,96,5
73984,note_off,,,,,256,0,6,,,64,0,5
74240,note_on,,,,,0,0,7,,,66,96,6
74240,note_off,,,,,0,0,7,,,71,0,6
74240,note_on,,,,,0,0,7,,,69,96,6
74240,note_off,,,,,0,0,7,,,67,0,6
74240,note_on,,,,,0,0,7,,,62,96,6
74240,note_on,,,,,0,0,8,,,50,96,7
74240,note_off,,,,,512,0,8,,,48,0,7
74240,note_off,,,,,256,0,7,,,67,0,6
74240,note_off,,,,,512,0,5,,,76,0,4
74240,note_on,,,,,0,0,5,,,74,96,4
74240,note_off,,,,,0,0,5,,,72,0,4
74240,note_off,,,,,0,0,6,,,67,0,5
74240,note_on,,,,,0,0,6,,,66,96,5
74240,note_off,,,,,256,0,6,,,67,0,5
74240,note_on,,,,,0,0,6,,,66,96,5
74496,note_off,,,,,256,0,6,,,66,0,5
74496,note_on,,,,,0,0,7,,,69,96,6
74496,note_off,,,,,256,0,7,,,66,0,6
74496,note_on,,,,,0,0,6,,,69,96,5
74496,note_on,,,,,0,0,6,,,69,96,5
74496,note_off,,,,,0,0,6,,,66,0,5
74752,note_off,,,,,512,0,5,,,74,0,4
74752,note_off,,,,,0,0,7,,,69,0,6
74752,note_on,,,,,0,0,7,,,67,96,6
74752,note_on,,,,,6144,0,2,,,67,96,1
74752,note_on,,,,,0,0,7,,,67,96,6
74752,note_off,,,,,256,0,7,,,69,0,6
74752,note_on,,,,,0,0,8,,,52,96,7
74752,note_off,,,,,512,0,8,,,50,0,7
74752,note_on,,,,,0,0,5,,,67,96,4
74752,note_on,,,,,6144,0,3,,,55,96,2
74752,note_off,,,,,0,0,6,,,69,0,5
74752,note_on,,,,,0,0,6,,,67,96,5
74752,note_on,,,,,0,0,6,,,67,96,5
74752,note_off,,,,,256,0,6,,,69,0,5
74752,note_on,,,,,6144,0,1,,,76,96,0
74752,note_on,,,,,6144,0,4,,,52,96,3
75008,note_off,,,,,256,0,6,,,67,0,5
75008,note_off,,,,,0,0,6,,,67,0,5
75008,note_off,,,,,256,0,7,,,67,0,6
75008,note_on,,,,,0,0,6,,,79,96,5
75008,note_on,,,,,0,0,6,,,79,96,5
75008,note_on,,,,,0,0,7,,,79,96,6
75264,note_on,,,,,0,0,7,,,78,96,6
75264,note_off,,,,,0,0,7,,,62,0,6
75264,note_on,,,,,0,0,7,,,60,96,6
75264,note_off,,,,,512,0,4,,,52,0,3
75264,note_off,,,,,512,0,8,,,52,0,7
75264,note_on,,,,,0,0,8,,,54,96,7
75264,note_off,,,,,256,0,6,,,79,0,5
75264,note_off,,,,,0,0,7,,,67,0,6
75264,note_on,,,,,0,0,5,,,69,96,4
75264,note_on,,,,,0,0,6,,,78,96,5
75264,note_on,,,,,0,0,2,,,69,96,1
75264,note_off,,,,,512,0,2,,,67,0,1
75264,note_off,,,,,512,0,5,,,67,0,4
75264,note_off,,,,,0,0,6,,,79,0,5
75264,note_on,,,,,0,0,6,,,78,96,5
75264,note_on,,,,,0,0,7,,,69,96,6
75264,note_off,,,,,256,0,7,,,79,0,6
75264,note_on,,,,,0,0,5,,,76,96,4
75264,note_on,,,,,0,0,4,,,54,96,3
75520,note_on,,,,,0,0,7,,,76,96,6
75520,note_off,,,,,256,0,7,,,78,0,6
75520,note_off,,,,,0,0,6,,,78,0,5
75520,note_on,,,,,0,0,6,,,76,96,5
75520,note_on,,,,,0,0,6,,,76,96,5
75520,note_off,,,,,256,0,6,,,78,0,5
75776,note_on,,,,,0,0,6,,,74,96,5
75776,note_on,,,,,0,0,8,,,55,96,7
75776,note_off,,,,,512,0,8,,,54,0,7
75776,note_off,,,,,512,0,5,,,76,0,4
75776,note_on,,,,,0,0,5,,,74,96,4
75776,note_on,,,,,0,0,1,,,74,96,0
75776,note_off,,,,,1024,0,1,,,76,0,0
75776,note_on,,,,,0,0,5,,,71,96,4
75776,note_on,,,,,0,0,6,,,74,96,5
75776,note_off,,,,,256,0,6,,,76,0,5
75776,note_off,,,,,512,0,4,,,54,0,3
75776,note_on,,,,,0,0,4,,,55,96,3
75776,note_off,,,,,0,0,6,,,76,0,5
75776,note_off,,,,,0,0,5,,,69,0,4
75776,note_on,,,,,0,0,3,,,55,96,2
75776,note_on,,,,,0,0,7,,,59,96,6
75776,note_on,,,,,0,0,7,,,71,96,6
75776,note_off,,,,,256,0,7,,,76,0,6
75776,note_on,,,,,0,0,7,,,74,96,6
75776,note_on,,,,,0,0,2,,,71,96,1
75776,note_off,,,,,512,0,2,,,69,0,1
75776,note_off,,,,,0,0,7,,,60,0,6
75776,note_off,,,,,0,0,7,,,69,0,6
75776,note_off,,,,,1024,0,3,,,55,0,2
76032,note_on,,,,,0,0,6,,,72,96,5
76032,note_on,,,,,0,0,6,,,72,96,5
76032,note_off,,,,,256,0,6,,,74,0,5
76032,note_on,,,,,0,0,5,,,72,96,4
76032,note_off,,,,,256,0,5,,,74,0,4
76032,note_off,,,,,256,0,7,,,74,0,6
76032,note_off,,,,,0,0,6,,,74,0,5
76032,note_on,,,,,0,0,7,,,72,96,6
76288,note_off,,,,,512,0,3,,,55,0,2
76288,note_off,,,,,0,0,7,,,71,0,6
76288,note_on,,,,,0,0,7,,,67,96,6
76288,note_on,,,,,0,0,7,,,71,96,6
76288,note_off,,,,,512,0,2,,,71,0,1
76288,note_off,,,,,0,0,5,,,71,0,4
76288,note_off,,,,,256,0,5,,,72,0,4
76288,note_on,,,,,0,0,5,,,74,96,4
76288,note_off,,,,,0,0,7,,,59,0,6
76288,note_on,,,,,0,0,5,,,67,96,4
76288,note_off,,,,,0,0,6,,,72,0,5
76288,note_on,,,,,0,0,6,,,71,96,5
76288,note_on,,,,,0,0,6,,,71,96,5
76288,note_on,,,,,0,0,2,,,67,96,1
76288,note_on,,,,,0,0,7,,,62,96,6
76288,note_off,,,,,256,0,7,,,72,0,6
76288,note_off,,,,,256,0,6,,,72,0,5
76288,note_on,,,,,0,0,3,,,59,96,2
76288,note_on,,,,,0,0,8,,,47,96,7
76288,note_off,,,,,512,0,8,,,55,0,7
76544,note_off,,,,,0,0,6,,,71,0,5
76544,note_on,,,,,0,0,6,,,72,96,5
76544,note_off,,,,,256,0,7,,,71,0,6
76544,note_off,,,,,256,0,6,,,71,0,5
76544,note_on,,,,,0,0,6,,,72,96,5
76544,note_on,,,,,0,0,7,,,72,96,6
76672,note_off,,,,,128,0,7,,,72,0,6
76672,note_on,,,,,0,0,7,,,74,96,6
76672,note_off,,,,,128,0,6,,,72,0,5
76672,note_on,,,,,0,0,6,,,74,96,5
76672,note_on,,,,,0,0,6,,,74,96,5
76672,note_off,,,,,0,0,6,,,72,0,5
76800,note_off,,,,,1024,0,4,,,55,0,3
76800,note_off,,,,,512,0,8,,,47,0,7
76800,note_on,,,,,0,0,4,,,48,96,3
76800,note_off,,,,,128,0,6,,,74,0,5
76800,note_on,,,,,0,0,3,,,64,96,2
76800,note_off,,,,,0,0,5,,,67,0,4
76800,note_off,,,,,512,0,5,,,74,0,4
76800,note_off,,,,,512,0,3,,,59,0,2
76800,note_on,,,,,0,0,8,,,48,96,7
76800,note_on,,,,,0,0,5,,,72,96,4
76800,note_on,,,,,0,0,6,,,69,96,5
76800,note_on,,,,,0,0,7,,,64,96,6
76800,note_off,,,,,0,0,7,,,62,0,6
76800,note_on,,,,,0,0,6,,,69,96,5
76800,note_off,,,,,0,0,6,,,74,0,5
76800,note_on,,,,,0,0,7,,,69,96,6
76800,note_off,,,,,128,0,7,,,74,0,6
77056,note_on,,,,,0,0,5,,,71,96,4
77056,note_off,,,,,256,0,5,,,72,0,4
77312,note_on,,,,,0,0,7,,,66,96,6
77312,note_off,,,,,1536,0,1,,,74,0,0
77312,note_on,,,,,0,0,1,,,72,96,0
77312,note_on,,,,,0,0,2,,,66,96,1
77312,note_off,,,,,512,0,4,,,48,0,3
77312,note_on,,,,,0,0,4,,,50,96,3
77312,note_off,,,,,512,0,3,,,64,0,2
77312,note_on,,,,,0,0,3,,,57,96,2
77312,note_off,,,,,512,0,8,,,48,0,7
77312,note_off,,,,,512,0,7,,,67,0,6
77312,note_on,,,,,256,0,5,,,72,96,4
77312,note_off,,,,,1024,0,2,,,67,0,1
77312,note_off,,,,,0,0,7,,,64,0,6
77312,note_on,,,,,0,0,8,,,50,96,7
77312,note_on,,,,,0,0,7,,,66,96,6
77312,note_off,,,,,0,0,5,,,71,0,4
77312,note_on,,,,,0,0,5,,,72,96,4
77568,note_on,,,,,0,0,6,,,67,96,5
77568,note_on,,,,,0,0,6,,,67,96,5
77568,note_on,,,,,0,0,7,,,67,96,6
77568,note_off,,,,,256,0,7,,,69,0,6
77568,note_off,,,,,0,0,6,,,69,0,5
77568,note_off,,,,,768,0,6,,,69,0,5
77824,note_on,,,,,0,0,6,,,67,96,5
77824,note_off,,,,,256,0,6,,,67,0,5
77824,note_off,,,,,512,0,4,,,50,0,3
77824,note_on,,,,,0,0,4,,,52,96,3
77824,note_on,,,,,0,0,6,,,67,96,5
77824,note_off,,,,,0,0,6,,,67,0,5
77824,note_off,,,,,512,0,1,,,72,0,0
77824,note_off,,,,,0,0,5,,,72,0,4
77824,note_on,,,,,0,0,5,,,71,96,4
77824,note_on,,,,,0,0,1,,,71,96,0
77824,note_off,,,,,512,0,8,,,50,0,7
77824,note_off,,,,,512,0,5,,,72,0,4
77824,note_on,,,,,0,0,7,,,67,96,6
77824,note_off,,,,,256,0,7,,,67,0,6
77824,note_off,,,,,0,0,7,,,66,0,6
77824,note_off,,,,,0,0,7,,,66,0,6
77824,note_on,,,,,0,0,7,,,59,96,6
77824,note_off,,,,,512,0,2,,,66,0,1
77824,note_on,,,,,0,0,7,,,67,96,6
77824,note_off,,,,,512,0,3,,,57,0,2
77824,note_on,,,,,0,0,2,,,67,96,1
77824,note_on,,,,,0,0,3,,,55,96,2
77824,note_on,,,,,0,0,8,,,52,96,7
78080,note_on,,,,,0,0,5,,,69,96,4
78080,note_off,,,,,256,0,5,,,71,0,4
78336,note_off,,,,,256,0,5,,,69,0,4
78336,note_on,,,,,0,0,8,,,54,96,7
78336,note_on,,,,,0,0,3,,,57,96,2
78336,note_off,,,,,512,0,3,,,55,0,2
78336,note_on,,,,,0,0,5,,,62,96,4
78336,note_on,,,,,0,0,5,,,71,96,4
78336,note_off,,,,,512,0,8,,,52,0,7
78848,note_off,,,,,512,0,3,,,57,0,2
78848,note_off,,,,,1024,0,6,,,67,0,5
78848,note_off,,,,,0,0,6,,,67,0,5
78848,note_on,,,,,0,0,3,,,59,96,2
78848,note_off,,,,,1024,0,7,,,67,0,6
78848,note_off,,,,,1024,0,1,,,71,0,0
78848,note_off,,,,,0,0,7,,,59,0,6
78848,note_on,,,,,0,0,1,,,71,96,0
78848,note_on,,,,,512,0,8,,,43,96,7
78848,note_off,,,,,512,0,5,,,71,0,4
78848,note_off,,,,,0,0,5,,,62,0,4
78848,note_on,,,,,0,0,5,,,67,96,4
78848,note_on,,,,,0,0,8,,,55,96,7
78848,note_off,,,,,0,0,8,,,54,0,7
78848,note_off,,,,,1024,0,2,,,67,0,1
78848,note_on,,,,,0,0,2,,,67,96,1
78848,note_off,,,,,0,0,7,,,67,0,6
79104,note_off,,,,,256,0,5,,,67,0,4
79104,note_on,,,,,0,0,5,,,66,96,4
79360,note_off,,,,,512,0,8,,,43,0,7
79360,note_off,,,,,1536,0,4,,,52,0,3
79360,note_on,,,,,0,0,4,,,50,96,3
79360,note_on,,,,,0,0,8,,,52,96,7
79360,note_on,,,,,0,0,5,,,67,96,4
79360,note_off,,,,,0,0,5,,,66,0,4
79360,note_on,,,,,256,0,5,,,71,96,4
79360,note_off,,,,,0,0,8,,,55,0,7
79360,note_on,,,,,0,0,3,,,60,96,2
79360,note_off,,,,,512,0,3,,,59,0,2
79616,note_on,,,,,0,0,3,,,62,96,2
79616,note_off,,,,,256,0,3,,,60,0,2
79872,note_off,,,,,256,0,3,,,62,0,2
79872,note_off,,,,,0,0,5,,,67,0,4
79872,note_off,,,,,512,0,8,,,52,0,7
79872,note_on,,,,,0,0,8,,,48,96,7
79872,note_on,,,,,0,0,3,,,64,96,2
79872,note_off,,,,,512,0,5,,,71,0,4
79872,note_on,,,,,0,0,5,,,69,96,4
79872,note_on,,,,,0,0,1,,,69,96,0
79872,note_on,,,,,0,0,4,,,48,96,3
79872,note_off,,,,,1024,0,2,,,67,0,1
79872,note_on,,,,,0,0,2,,,67,96,1
79872,note_off,,,,,512,0,4,,,50,0,3
79872,note_off,,,,,1024,0,1,,,71,0,0
80128,note_off,,,,,256,0,5,,,69,0,4
80128,note_on,,,,,0,0,5,,,71,96,4
80384,note_off,,,,,512,0,8,,,48,0,7
80384,note_off,,,,,256,0,5,,,71,0,4
80384,note_on,,,,,0,0,8,,,45,96,7
80384,note_on,,,,,0,0,5,,,76,96,4
80384,note_on,,,,,0,0,5,,,69,96,4
80640,note_on,,,,,0,0,5,,,71,96,4
80640,note_off,,,,,256,0,5,,,69,0,4
80896,note_off,,,,,256,0,5,,,71,0,4
80896,note_on,,,,,0,0,8,,,50,96,7
80896,note_off,,,,,0,0,8,,,45,0,7
80896,note_on,,,,,0,0,5,,,72,96,4
80896,note_off,,,,,0,0,5,,,76,0,4
80896,note_off,,,,,1024,0,4,,,48,0,3
80896,note_on,,,,,0,0,4,,,50,96,3
80896,note_on,,,,,0,0,5,,,69,96,4
80896,note_on,,,,,512,0,8,,,50,96,7
80896,note_on,,,,,0,0,2,,,66,96,1
80896,note_off,,,,,1024,0,2,,,67,0,1
80896,note_off,,,,,1024,0,3,,,64,0,2
80896,note_on,,,,,0,0,3,,,62,96,2
81152,note_on,,,,,0,0,8,,,50,96,7
81152,note_on,,,,,0,0,5,,,71,96,4
81152,note_off,,,,,0,0,5,,,69,0,4
81152,note_on,,,,,0,0,5,,,74,96,4
81152,note_off,,,,,256,0,5,,,72,0,4
81152,note_off,,,,,256,0,8,,,50,0,7
81408,note_off,,,,,0,0,5,,,71,0,4
81408,note_on,,,,,0,0,5,,,72,96,4
81408,note_off,,,,,256,0,5,,,74,0,4
81408,note_off,,,,,256,0,8,,,50,0,7
81408,note_off,,,,,0,0,8,,,50,0,7
81408,note_on,,,,,0,0,5,,,69,96,4
81408,note_on,,,,,0,0,8,,,38,96,7
81408,note_off,,,,,512,0,3,,,62,0,2
81408,note_on,,,,,0,0,3,,,60,96,2
81408,note_on,,,,,0,0,8,,,50,96,7
81664,note_on,,,,,0,0,5,,,74,96,4
81664,note_off,,,,,0,0,5,,,69,0,4
81664,note_on,,,,,0,0,5,,,71,96,4
81664,note_off,,,,,256,0,8,,,50,0,7
81664,note_off,,,,,256,0,5,,,72,0,4
81664,note_on,,,,,0,0,8,,,50,96,7
81920,note_on,,,,,0,0,4,,,43,96,3
81920,note_off,,,,,1024,0,2,,,66,0,1
81920,note_on,,,,,0,0,1,,,67,96,0
81920,note_off,,,,,2048,0,1,,,69,0,0
81920,note_off,,,,,1024,0,4,,,50,0,3
81920,note_on,,,,,0,0,2,,,67,96,1
81920,note_on,,,,,0,0,8,,,43,96,7
81920,note_on,,,,,0,0,8,,,43,96,7
81920,note_off,,,,,0,0,8,,,38,0,7
81920,note_on,,,,,0,0,7,,,71,96,6
81920,note_on,,,,,0,0,6,,,79,96,5
81920,note_on,,,,,3072,0,6,,,79,96,5
81920,note_on,,,,,0,0,7,,,74,96,6
81920,note_on,,,,,3072,0,7,,,79,96,6
81920,note_off,,,,,256,0,8,,,50,0,7
81920,note_on,,,,,0,0,3,,,59,96,2
81920,note_off,,,,,512,0,3,,,60,0,2
81920,note_on,,,,,0,0,5,,,67,96,4
81920,note_on,,,,,0,0,5,,,71,96,4
81920,note_off,,,,,256,0,5,,,74,0,4
81920,note_off,,,,,0,0,5,,,71,0,4
82176,note_on,,,,,0,0,5,,,69,96,4
82176,note_off,,,,,0,0,5,,,67,0,4
82176,note_on,,,,,0,0,5,,,72,96,4
82176,note_off,,,,,256,0,5,,,71,0,4
82432,note_on,,,,,0,0,5,,,71,96,4
82432,note_off,,,,,0,0,5,,,69,0,4
82432,note_on,,,,,0,0,5,,,67,96,4
82432,note_off,,,,,256,0,5,,,72,0,4
82688,note_off,,,,,256,0,5,,,71,0,4
82688,note_on,,,,,0,0,5,,,72,96,4
82688,note_off,,,,,0,0,5,,,67,0,4
82688,note_on,,,,,0,0,5,,,69,96,4
82944,note_off,,,,,0,0,7,,,71,0,6
82944,note_off,,,,,0,0,7,,,74,0,6
82944,note_off,,,,,1024,0,7,,,79,0,6
82944,note_off,,,,,1024,0,3,,,59,0,2
82944,note_off,,,,,1024,0,1,,,67,0,0
82944,note_off,,,,,1024,0,2,,,67,0,1
82944,note_off,,,,,1024,0,4,,,43,0,3
82944,note_off,,,,,0,0,8,,,43,0,7
82944,note_off,,,,,0,0,6,,,79,0,5
82944,note_off,,,,,1024,0,6,,,79,0,5
82944,note_off,,,,,1024,0,8,,,43,0,7
82944,note_on,,,,,0,0,5,,,71,96,4
82944,note_off,,,,,256,0,5,,,72,0,4
82944,note_on,,,,,0,0,5,,,74,96,4
82944,note_off,,,,,0,0,5,,,69,0,4
83200,note_on,,,,,0,0,5,,,72,96,4
83200,note_off,,,,,0,0,5,,,71,0,4
83200,note_on,,,,,0,0,5,,,76,96,4
83200,note_off,,,,,256,0,5,,,74,0,4
83456,note_off,,,,,256,0,5,,,76,0,4
83456,note_on,,,,,0,0,5,,,74,96,4
83456,note_off,,,,,0,0,5,,,72,0,4
83456,note_on,,,,,0,0,5,,,71,96,4
83712,note_on,,,,,0,0,5,,,76,96,4
83712,note_off,,,,,0,0,5,,,71,0,4
83712,note_off,,,,,256,0,5,,,74,0,4
83712,note_on,,,,,0,0,5,,,72,96,4
83968,note_on,,,,,1024,0,7,,,78,96,6
83968,note_on,,,,,0,0,5,,,69,96,4
83968,note_off,,,,,0,0,5,,,72,0,4
83968,note_on,,,,,0,0,5,,,72,96,4
83968,note_on,,,,,0,0,7,,,69,96,6
83968,note_on,,,,,0,0,7,,,72,96,6
83968,note_off,,,,,256,0,5,,,76,0,4
83968,note_on,,,,,1024,0,6,,,78,96,5
83968,note_on,,,,,0,0,6,,,78,96,5
83968,note_on,,,,,1024,0,8,,,43,96,7
83968,note_on,,,,,0,0,8,,,43,96,7
84224,note_off,,,,,256,0,5,,,72,0,4
84224,note_on,,,,,0,0,5,,,74,96,4
84224,note_off,,,,,0,0,5,,,69,0,4
84224,note_on,,,,,0,0,5,,,71,96,4
84480,note_on,,,,,0,0,5,,,69,96,4
84480,note_off,,,,,0,0,5,,,71,0,4
84480,note_on,,,,,0,0,5,,,72,96,4
84480,note_off,,,,,256,0,5,,,74,0,4
84736,note_off,,,,,256,0,5,,,72,0,4
84736,note_on,,,,,0,0,5,,,74,96,4
84736,note_off,,,,,0,0,5,,,69,0,4
84736,note_on,,,,,0,0,5,,,71,96,4
84992,note_off,,,,,256,0,5,,,74,0,4
84992,note_on,,,,,0,0,5,,,76,96,4
84992,note_off,,,,,0,0,5,,,71,0,4
84992,note_on,,,,,0,0,5,,,72,96,4
84992,note_off,,,,,1024,0,8,,,43,0,7
84992,note_off,,,,,1024,0,6,,,78,0,5
84992,note_off,,,,,0,0,8,,,43,0,7
84992,note_off,,,,,0,0,6,,,78,0,5
84992,note_off,,,,,0,0,7,,,69,0,6
84992,note_off,,,,,0,0,7,,,72,0,6
84992,note_off,,,,,1024,0,7,,,78,0,6
85248,note_off,,,,,0,0,5,,,72,0,4
85248,note_off,,,,,256,0,5,,,76,0,4
85248,note_on,,,,,0,0,5,,,74,96,4
85248,note_on,,,,,0,0,5,,,78,96,4
85504,note_on,,,,,0,0,5,,,72,96,4
85504,note_off,,,,,0,0,5,,,74,0,4
85504,note_on,,,,,0,0,5,,,76,96,4
85504,note_off,,,,,256,0,5,,,78,0,4
85760,note_on,,,,,0,0,5,,,78,96,4
85760,note_off,,,,,0,0,5,,,72,0,4
85760,note_on,,,,,0,0,5,,,74,96,4
85760,note_off,,,,,256,0,5,,,76,0,4
86016,note_on,,,,,1024,0,8,,,43,96,7
86016,note_on,,,,,0,0,8,,,43,96,7
86016,note_on,,,,,1024,0,7,,,79,96,6
86016,note_on,,,,,0,0,7,,,74,96,6
86016,note_on,,,,,0,0,7,,,71,96,6
86016,note_on,,,,,0,0,5,,,71,96,4
86016,note_off,,,,,256,0,5,,,78,0,4
86016,note_on,,,,,0,0,5,,,74,96,4
86016,note_on,,,,,1024,0,6,,,79,96,5
86016,note_on,,,,,0,0,6,,,79,96,5
86016,note_off,,,,,0,0,5,,,74,0,4
86272,note_off,,,,,256,0,5,,,74,0,4
86272,note_on,,,,,0,0,5,,,72,96,4
86272,note_off,,,,,0,0,5,,,71,0,4
86272,note_on,,,,,0,0,5,,,69,96,4
86528,note_on,,,,,0,0,6,,,62,96,5
86528,note_off,,,,,512,0,6,,,79,0,5
86528,note_off,,,,,256,0,5,,,72,0,4
86528,note_off,,,,,512,0,7,,,79,0,6
86528,note_off,,,,,0,0,5,,,69,0,4
86528,note_on,,,,,0,0,5,,,67,96,4
86528,note_on,,,,,0,0,5,,,71,96,4
86528,note_on,,,,,0,0,7,,,62,96,6
86528,note_off,,,,,0,0,6,,,79,0,5
86528,note_on,,,,,0,0,6,,,62,96,5
86784,note_off,,,,,256,0,5,,,71,0,4
86784,note_on,,,,,0,0,5,,,69,96,4
86784,note_on,,,,,0,0,5,,,72,96,4
86784,note_off,,,,,0,0,5,,,67,0,4
87040,note_off,,,,,512,0,6,,,62,0,5
87040,note_on,,,,,0,0,6,,,67,96,5
87040,note_off,,,,,512,0,7,,,62,0,6
87040,note_on,,,,,0,0,7,,,67,96,6
87040,note_off,,,,,0,0,7,,,74,0,6
87040,note_on,,,,,0,0,6,,,67,96,5
87040,note_off,,,,,0,0,6,,,62,0,5
87040,note_off,,,,,256,0,5,,,72,0,4
87040,note_off,,,,,1024,0,8,,,43,0,7
87040,note_off,,,,,0,0,7,,,71,0,6
87040,note_on,,,,,0,0,5,,,74,96,4
87040,note_off,,,,,0,0,5,,,69,0,4
87040,note_on,,,,,0,0,5,,,71,96,4
87040,note_off,,,,,0,0,8,,,43,0,7
87296,note_off,,,,,256,0,5,,,71,0,4
87296,note_on,,,,,0,0,5,,,74,96,4
87552,note_off,,,,,256,0,5,,,74,0,4
87552,note_on,,,,,0,0,5,,,78,96,4
87552,note_off,,,,,0,0,5,,,74,0,4
87552,note_on,,,,,0,0,5,,,72,96,4
87552,note_on,,,,,0,0,7,,,69,96,6
87552,note_off,,,,,512,0,7,,,67,0,6
87552,note_off,,,,,0,0,6,,,67,0,5
87552,note_on,,,,,0,0,6,,,69,96,5
87552,note_on,,,,,0,0,6,,,69,96,5
87552,note_off,,,,,512,0,6,,,67,0,5
87808,note_on,,,,,0,0,5,,,76,96,4
87808,note_off,,,,,256,0,5,,,72,0,4
88064,note_on,,,,,0,0,6,,,71,96,5
88064,note_on,,,,,0,0,6,,,71,96,5
88064,note_off,,,,,512,0,6,,,69,0,5
88064,note_off,,,,,512,0,7,,,69,0,6
88064,note_off,,,,,256,0,5,,,78,0,4
88064,note_on,,,,,0,0,5,,,79,96,4
88064,note_off,,,,,0,0,5,,,76,0,4
88064,note_on,,,,,0,0,5,,,74,96,4
88064,note_on,,,,,0,0,7,,,71,96,6
88064,note_off,,,,,0,0,6,,,69,0,5
88320,note_off,,,,,256,0,5,,,74,0,4
88320,note_off,,,,,0,0,6,,,71,0,5
88320,note_on,,,,,0,0,5,,,72,96,4
88320,note_on,,,,,0,0,6,,,69,96,5
88320,note_on,,,,,0,0,6,,,69,96,5
88320,note_off,,,,,256,0,7,,,71,0,6
88320,note_on,,,,,0,0,7,,,69,96,6
88320,note_off,,,,,256,0,6,,,71,0,5
88576,note_off,,,,,256,0,5,,,79,0,4
88576,note_off,,,,,256,0,7,,,69,0,6
88576,note_on,,,,,0,0,7,,,67,96,6
88576,note_on,,,,,0,0,8,,,50,96,7
88576,note_on,,,,,1536,0,8,,,50,96,7
88576,note_on,,,,,0,0,5,,,71,96,4
88576,note_on,,,,,0,0,7,,,62,96,6
88576,note_on,,,,,0,0,7,,,66,96,6
88576,note_off,,,,,0,0,6,,,69,0,5
88576,note_on,,,,,0,0,6,,,67,96,5
88576,note_on,,,,,0,0,6,,,67,96,5
88576,note_off,,,,,256,0,6,,,69,0,5
88576,note_off,,,,,0,0,5,,,72,0,4
88576,note_on,,,,,0,0,5,,,74,96,4
88832,note_on,,,,,0,0,6,,,69,96,5
88832,note_on,,,,,0,0,6,,,69,96,5
88832,note_off,,,,,256,0,7,,,67,0,6
88832,note_off,,,,,256,0,6,,,67,0,5
88832,note_off,,,,,0,0,6,,,67,0,5
88832,note_on,,,,,0,0,7,,,69,96,6
88832,note_off,,,,,256,0,5,,,74,0,4
88832,note_off,,,,,0,0,5,,,71,0,4
88832,note_on,,,,,0,0,5,,,69,96,4
88832,note_on,,,,,0,0,5,,,72,96,4
89088,note_off,,,,,256,0,5,,,72,0,4
89088,note_on,,,,,0,0,5,,,71,96,4
89088,note_off,,,,,0,0,5,,,69,0,4
89088,note_on,,,,,0,0,5,,,67,96,4
89088,note_off,,,,,0,0,6,,,69,0,5
89088,note_on,,,,,0,0,8,,,55,96,7
89088,note_off,,,,,0,0,8,,,50,0,7
89088,note_on,,,,,0,0,8,,,43,96,7
89088,note_on,,,,,0,0,7,,,67,96,6
89088,note_on,,,,,0,0,6,,,71,96,5
89088,note_on,,,,,0,0,6,,,71,96,5
89088,note_off,,,,,256,0,6,,,69,0,5
89088,note_off,,,,,256,0,7,,,69,0,6
89088,note_on,,,,,0,0,7,,,71,96,6
89088,note_off,,,,,0,0,7,,,66,0,6
89088,note_off,,,,,512,0,8,,,50,0,7
89088,note_off,,,,,0,0,7,,,62,0,6
89088,note_on,,,,,0,0,7,,,62,96,6
89344,note_on,,,,,0,0,7,,,72,96,6
89344,note_on,,,,,0,0,5,,,72,96,4
89344,note_off,,,,,0,0,6,,,71,0,5
89344,note_off,,,,,256,0,7,,,71,0,6
89344,note_on,,,,,0,0,6,,,72,96,5
89344,note_off,,,,,256,0,5,,,71,0,4
89344,note_on,,,,,0,0,6,,,72,96,5
89344,note_off,,,,,256,0,6,,,71,0,5
89600,note_on,,,,,0,0,8,,,57,96,7
89600,note_off,,,,,256,0,7,,,72,0,6
89600,note_on,,,,,0,0,7,,,71,96,6
89600,note_off,,,,,0,0,7,,,67,0,6
89600,note_on,,,,,0,0,7,,,66,96,6
89600,note_off,,,,,0,0,7,,,62,0,6
89600,note_on,,,,,0,0,7,,,60,96,6
89600,note_off,,,,,512,0,8,,,43,0,7
89600,note_on,,,,,0,0,8,,,50,96,7
89600,note_off,,,,,0,0,8,,,55,0,7
89600,note_on,,,,,0,0,5,,,62,96,4
89600,note_off,,,,,0,0,5,,,67,0,4
89600,note_on,,,,,0,0,5,,,71,96,4
89600,note_off,,,,,256,0,5,,,72,0,4
89600,note_off,,,,,256,0,6,,,72,0,5
89600,note_on,,,,,0,0,6,,,71,96,5
89600,note_on,,,,,0,0,6,,,71,96,5
89600,note_off,,,,,0,0,6,,,72,0,5
89856,note_off,,,,,256,0,5,,,71,0,4
89856,note_off,,,,,256,0,6,,,71,0,5
89856,note_off,,,,,256,0,7,,,71,0,6
89856,note_on,,,,,0,0,6,,,72,96,5
89856,note_on,,,,,0,0,6,,,72,96,5
89856,note_off,,,,,0,0,6,,,71,0,5
89856,note_on,,,,,0,0,7,,,72,96,6
89856,note_on,,,,,0,0,5,,,72,96,4
90112,note_on,,,,,0,0,7,,,67,96,6
90112,note_on,,,,,0,0,7,,,59,96,6
90112,note_on,,,,,0,0,5,,,74,96,4
90112,note_on,,,,,0,0,7,,,74,96,6
90112,note_off,,,,,256,0,6,,,72,0,5
90112,note_off,,,,,512,0,8,,,50,0,7
90112,note_off,,,,,0,0,8,,,57,0,7
90112,note_on,,,,,0,0,5,,,67,96,4
90112,note_off,,,,,0,0,6,,,72,0,5
90112,note_on,,,,,0,0,8,,,43,96,7
90112,note_on,,,,,0,0,6,,,74,96,5
90112,note_off,,,,,0,0,7,,,66,0,6
90112,note_on,,,,,0,0,6,,,74,96,5
90112,note_off,,,,,256,0,5,,,72,0,4
90112,note_off,,,,,0,0,7,,,60,0,6
90112,note_off,,,,,0,0,5,,,62,0,4
90112,note_on,,,,,0,0,8,,,59,96,7
90112,note_off,,,,,256,0,7,,,72,0,6
90368,note_off,,,,,256,0,7,,,74,0,6
90368,note_off,,,,,0,0,6,,,74,0,5
90368,note_on,,,,,0,0,6,,,79,96,5
90368,note_on,,,,,0,0,6,,,79,96,5
90368,note_off,,,,,256,0,6,,,74,0,5
90368,note_on,,,,,0,0,7,,,79,96,6
90624,note_off,,,,,0,0,8,,,59,0,7
90624,note_off,,,,,0,0,6,,,79,0,5
90624,note_on,,,,,0,0,6,,,78,96,5
90624,note_on,,,,,0,0,6,,,78,96,5
90624,note_off,,,,,256,0,6,,,79,0,5
90624,note_on,,,,,0,0,8,,,60,96,7
90624,note_off,,,,,512,0,5,,,74,0,4
90624,note_on,,,,,0,0,7,,,57,96,6
90624,note_off,,,,,0,0,7,,,59,0,6
90624,note_off,,,,,256,0,7,,,79,0,6
90624,note_off,,,,,512,0,8,,,43,0,7
90624,note_off,,,,,0,0,5,,,67,0,4
90624,note_on,,,,,0,0,7,,,78,96,6
90880,note_off,,,,,256,0,6,,,78,0,5
90880,note_on,,,,,0,0,6,,,76,96,5
90880,note_on,,,,,0,0,6,,,76,96,5
90880,note_off,,,,,0,0,6,,,78,0,5
90880,note_on,,,,,0,0,7,,,76,96,6
90880,note_off,,,,,256,0,7,,,78,0,6
91136,note_on,,,,,0,0,7,,,74,96,6
91136,note_off,,,,,256,0,7,,,76,0,6
91136,note_on,,,,,0,0,8,,,62,96,7
91136,note_off,,,,,512,0,8,,,60,0,7
91136,note_on,,,,,0,0,7,,,57,96,6
91136,note_off,,,,,0,0,6,,,76,0,5
91136,note_on,,,,,0,0,6,,,74,96,5
91136,note_on,,,,,0,0,6,,,74,96,5
91136,note_off,,,,,256,0,6,,,76,0,5
91136,note_off,,,,,0,0,7,,,57,0,6
91392,note_on,,,,,0,0,6,,,72,96,5
91392,note_off,,,,,0,0,6,,,74,0,5
91392,note_off,,,,,256,0,6,,,74,0,5
91392,note_off,,,,,256,0,7,,,74,0,6
91392,note_on,,,,,0,0,6,,,72,96,5
91392,note_on,,,,,0,0,7,,,72,96,6
91648,note_off,,,,,256,0,6,,,72,0,5
91648,note_on,,,,,0,0,6,,,71,96,5
91648,note_on,,,,,0,0,6,,,71,96,5
91648,note_off,,,,,0,0,6,,,72,0,5
91648,note_on,,,,,1024,0,5,,,78,96,4
91648,note_off,,,,,0,0,7,,,67,0,6
91648,note_on,,,,,0,0,7,,,62,96,6
91648,note_off,,,,,0,0,7,,,57,0,6
91648,note_on,,,,,0,0,7,,,66,96,6
91648,note_off,,,,,256,0,7,,,72,0,6
91648,note_on,,,,,512,0,8,,,50,96,7
91648,note_on,,,,,0,0,7,,,71,96,6
91648,note_on,,,,,0,0,8,,,50,96,7
91648,note_on,,,,,0,0,5,,,69,96,4
91648,note_off,,,,,0,0,8,,,62,0,7
91904,note_off,,,,,256,0,6,,,71,0,5
91904,note_on,,,,,0,0,6,,,72,96,5
91904,note_on,,,,,0,0,6,,,72,96,5
91904,note_off,,,,,256,0,7,,,71,0,6
91904,note_on,,,,,0,0,7,,,72,96,6
91904,note_off,,,,,0,0,6,,,71,0,5
92160,note_off,,,,,256,0,7,,,72,0,6
92160,note_on,,,,,0,0,7,,,71,96,6
92160,note_off,,,,,0,0,6,,,72,0,5
92160,note_on,,,,,0,0,6,,,71,96,5
92160,note_off,,,,,256,0,6,,,72,0,5
92160,note_on,,,,,0,0,8,,,55,96,7
92160,note_off,,,,,0,0,8,,,50,0,7
92160,note_on,,,,,0,0,8,,,43,96,7
92160,note_off,,,,,512,0,8,,,50,0,7
92160,note_off,,,,,512,0,5,,,78,0,4
92160,note_off,,,,,0,0,5,,,69,0,4
92160,note_on,,,,,0,0,5,,,71,96,4
92160,note_on,,,,,0,0,5,,,79,96,4
92160,note_on,,,,,0,0,6,,,71,96,5
92416,note_off,,,,,256,0,6,,,71,0,5
92416,note_off,,,,,0,0,6,,,71,0,5
92416,note_on,,,,,0,0,6,,,76,96,5
92416,note_on,,,,,0,0,6,,,76,96,5
92416,note_on,,,,,0,0,7,,,76,96,6
92416,note_off,,,,,256,0,7,,,71,0,6
92672,note_on,,,,,0,0,6,,,74,96,5
92672,note_off,,,,,256,0,6,,,76,0,5
92672,note_on,,,,,0,0,6,,,74,96,5
92672,note_off,,,,,512,0,8,,,43,0,7
92672,note_on,,,,,0,0,8,,,57,96,7
92672,note_off,,,,,512,0,5,,,79,0,4
92672,note_off,,,,,256,0,7,,,76,0,6
92672,note_on,,,,,0,0,7,,,74,96,6
92672,note_off,,,,,0,0,7,,,66,0,6
92672,note_on,,,,,0,0,7,,,64,96,6
92672,note_off,,,,,0,0,7,,,62,0,6
92672,note_on,,,,,0,0,7,,,57,96,6
92672,note_off,,,,,0,0,8,,,55,0,7
92672,note_off,,,,,0,0,5,,,71,0,4
92672,note_off,,,,,0,0,6,,,76,0,5
92928,note_off,,,,,0,0,6,,,74,0,5
92928,note_on,,,,,0,0,6,,,72,96,5
92928,note_on,,,,,0,0,6,,,72,96,5
92928,note_off,,,,,256,0,6,,,74,0,5
92928,note_off,,,,,256,0,7,,,74,0,6
92928,note_on,,,,,0,0,7,,,72,96,6
93184,note_off,,,,,512,0,8,,,57,0,7
93184,note_on,,,,,0,0,6,,,71,96,5
93184,note_off,,,,,0,0,6,,,72,0,5
93184,note_on,,,,,0,0,6,,,71,96,5
93184,note_off,,,,,256,0,6,,,72,0,5
93184,note_on,,,,,0,0,8,,,59,96,7
93184,note_off,,,,,256,0,7,,,72,0,6
93184,note_on,,,,,0,0,7,,,54,96,6
93184,note_off,,,,,0,0,7,,,57,0,6
93184,note_on,,,,,0,0,7,,,71,96,6
93440,note_on,,,,,0,0,7,,,69,96,6
93440,note_off,,,,,256,0,6,,,71,0,5
93440,note_on,,,,,0,0,6,,,69,96,5
93440,note_on,,,,,0,0,6,,,69,96,5
93440,note_off,,,,,0,0,6,,,71,0,5
93440,note_off,,,,,256,0,7,,,71,0,6
93696,note_off,,,,,0,0,7,,,64,0,6
93696,note_off,,,,,256,0,7,,,69,0,6
93696,note_on,,,,,0,0,7,,,67,96,6
93696,note_on,,,,,0,0,8,,,47,96,7
93696,note_on,,,,,0,0,7,,,59,96,6
93696,note_on,,,,,1024,0,5,,,78,96,4
93696,note_on,,,,,0,0,5,,,71,96,4
93696,note_off,,,,,0,0,7,,,54,0,6
93696,note_off,,,,,256,0,6,,,69,0,5
93696,note_on,,,,,0,0,7,,,63,96,6
93696,note_on,,,,,0,0,6,,,67,96,5
93696,note_on,,,,,0,0,6,,,67,96,5
93696,note_off,,,,,0,0,6,,,69,0,5
93696,note_off,,,,,512,0,8,,,59,0,7
93952,note_off,,,,,256,0,7,,,67,0,6
93952,note_on,,,,,0,0,7,,,69,96,6
93952,note_on,,,,,0,0,6,,,69,96,5
93952,note_on,,,,,0,0,6,,,69,96,5
93952,note_off,,,,,0,0,6,,,67,0,5
93952,note_off,,,,,256,0,6,,,67,0,5
94208,note_off,,,,,512,0,8,,,47,0,7
94208,note_on,,,,,0,0,7,,,64,96,6
94208,note_on,,,,,0,0,7,,,67,96,6
94208,note_off,,,,,0,0,7,,,63,0,6
94208,note_on,,,,,0,0,5,,,67,96,4
94208,note_on,,,,,0,0,5,,,76,96,4
94208,note_on,,,,,0,0,6,,,67,96,5
94208,note_off,,,,,256,0,7,,,69,0,6
94208,note_off,,,,,512,0,5,,,78,0,4
94208,note_off,,,,,0,0,5,,,71,0,4
94208,note_off,,,,,0,0,6,,,69,0,5
94208,note_off,,,,,256,0,6,,,69,0,5
94208,note_on,,,,,0,0,8,,,52,96,7
94208,note_on,,,,,0,0,6,,,67,96,5
94464,note_off,,,,,256,0,6,,,67,0,5
94464,note_on,,,,,0,0,6,,,72,96,5
94464,note_off,,,,,0,0,6,,,67,0,5
94464,note_off,,,,,256,0,7,,,67,0,6
94464,note_on,,,,,0,0,6,,,72,96,5
94464,note_on,,,,,0,0,7,,,72,96,6
94720,note_on,,,,,0,0,7,,,71,96,6
94720,note_off,,,,,256,0,7,,,72,0,6
94720,note_off,,,,,0,0,7,,,64,0,6
94720,note_off,,,,,512,0,8,,,52,0,7
94720,note_off,,,,,0,0,7,,,59,0,6
94720,note_on,,,,,0,0,7,,,62,96,6
94720,note_off,,,,,0,0,5,,,67,0,4
94720,note_on,,,,,0,0,8,,,53,96,7
94720,note_off,,,,,512,0,5,,,76,0,4
94720,note_off,,,,,256,0,6,,,72,0,5
94720,note_on,,,,,0,0,6,,,71,96,5
94720,note_on,,,,,0,0,6,,,71,96,5
94720,note_off,,,,,0,0,6,,,72,0,5
94720,note_on,,,,,0,0,7,,,72,96,6
94976,note_off,,,,,0,0,6,,,71,0,5
94976,note_off,,,,,256,0,6,,,71,0,5
94976,note_on,,,,,0,0,6,,,69,96,5
94976,note_on,,,,,0,0,7,,,69,96,6
94976,note_on,,,,,0,0,6,,,69,96,5
94976,note_off,,,,,256,0,7,,,71,0,6
95232,note_on,,,,,12288,0,1,,,74,96,0
95232,note_on,,,,,0,0,8,,,55,96,7
95232,note_off,,,,,512,0,8,,,53,0,7
95232,note_on,,,,,12288,0,4,,,55,96,3
95232,note_on,,,,,0,0,7,,,67,96,6
95232,note_off,,,,,256,0,7,,,69,0,6
95232,note_off,,,,,0,0,6,,,69,0,5
95232,note_on,,,,,0,0,6,,,67,96,5
95232,note_on,,,,,0,0,6,,,67,96,5
95232,note_off,,,,,256,0,6,,,69,0,5
95232,note_on,,,,,12288,0,3,,,62,96,2
95232,note_on,,,,,12288,0,2,,,67,96,1
95488,note_off,,,,,256,0,7,,,67,0,6
95488,note_on,,,,,0,0,6,,,65,96,5
95488,note_on,,,,,0,0,6,,,65,96,5
95488,note_off,,,,,256,0,6,,,67,0,5
95488,note_off,,,,,0,0,6,,,67,0,5
95488,note_on,,,,,0,0,7,,,65,96,6
95744,note_off,,,,,256,0,7,,,65,0,6
95744,note_on,,,,,0,0,7,,,64,96,6
95744,note_off,,,,,0,0,7,,,72,0,6
95744,note_off,,,,,0,0,7,,,62,0,6
95744,note_on,,,,,0,0,7,,,67,96,6
95744,note_off,,,,,512,0,8,,,55,0,7
95744,note_off,,,,,256,0,6,,,65,0,5
95744,note_on,,,,,0,0,7,,,71,96,6
95744,note_off,,,,,0,0,6,,,65,0,5
95744,note_on,,,,,0,0,6,,,64,96,5
95744,note_on,,,,,0,0,6,,,64,96,5
95744,note_on,,,,,1024,0,5,,,74,96,4
95744,note_on,,,,,0,0,5,,,67,96,4
95744,note_on,,,,,0,0,8,,,43,96,7
96000,note_off,,,,,256,0,7,,,64,0,6
96000,note_off,,,,,0,0,6,,,64,0,5
96000,note_on,,,,,0,0,7,,,65,96,6
96000,note_on,,,,,0,0,6,,,65,96,5
96000,note_on,,,,,0,0,6,,,65,96,5
96000,note_off,,,,,256,0,6,,,64,0,5
96256,note_off,,,,,512,0,5,,,74,0,4
96256,note_on,,,,,0,0,4,,,48,96,3
96256,note_on,,,,,0,0,5,,,76,96,4
96256,note_off,,,,,1024,0,3,,,62,0,2
96256,note_off,,,,,0,0,5,,,67,0,4
96256,note_off,,,,,1024,0,2,,,67,0,1
96256,note_on,,,,,0,0,2,,,67,96,1
96256,note_off,,,,,1024,0,4,,,55,0,3
96256,note_on,,,,,0,0,3,,,60,96,2
96256,note_off,,,,,256,0,6,,,65,0,5
96256,note_on,,,,,0,0,6,,,64,96,5
96256,note_off,,,,,256,0,7,,,65,0,6
96256,note_on,,,,,0,0,7,,,64,96,6
96256,note_off,,,,,1024,0,1,,,74,0,0
96256,note_off,,,,,0,0,7,,,71,0,6
96256,note_off,,,,,0,0,6,,,65,0,5
96256,note_on,,,,,0,0,6,,,64,96,5
96256,note_on,,,,,0,0,8,,,48,96,7
96256,note_on,,,,,0,0,5,,,55,96,4
96256,note_on,,,,,0,0,7,,,72,96,6
96256,note_off,,,,,0,0,7,,,67,0,6
96256,note_on,,,,,0,0,7,,,67,96,6
96256,note_on,,,,,0,0,1,,,76,96,0
96256,note_off,,,,,512,0,8,,,43,0,7
96512,note_on,,,,,0,0,5,,,74,96,4
96512,note_on,,,,,0,0,6,,,67,96,5
96512,note_on,,,,,0,0,6,,,67,96,5
96512,note_off,,,,,256,0,6,,,64,0,5
96512,note_off,,,,,256,0,5,,,76,0,4
96512,note_off,,,,,256,0,7,,,64,0,6
96512,note_on,,,,,0,0,7,,,67,96,6
96512,note_off,,,,,0,0,6,,,64,0,5
96768,note_off,,,,,256,0,5,,,74,0,4
96768,note_on,,,,,0,0,7,,,66,96,6
96768,note_on,,,,,0,0,5,,,76,96,4
96768,note_off,,,,,0,0,5,,,55,0,4
96768,note_on,,,,,0,0,5,,,67,96,4
96768,note_on,,,,,0,0,8,,,50,96,7
96768,note_off,,,,,512,0,8,,,48,0,7
96768,note_off,,,,,256,0,6,,,67,0,5
96768,note_on,,,,,0,0,6,,,66,96,5
96768,note_on,,,,,0,0,6,,,66,96,5
96768,note_off,,,,,0,0,6,,,67,0,5
96768,note_off,,,,,256,0,7,,,67,0,6
96768,note_off,,,,,512,0,4,,,48,0,3
96768,note_on,,,,,0,0,4,,,50,96,3
96768,note_on,,,,,0,0,7,,,60,96,6
96768,note_on,,,,,0,0,7,,,66,96,6
96768,note_off,,,,,0,0,7,,,72,0,6
96768,note_off,,,,,0,0,7,,,67,0,6
97024,note_on,,,,,0,0,6,,,69,96,5
97024,note_off,,,,,256,0,7,,,66,0,6
97024,note_on,,,,,0,0,7,,,69,96,6
97024,note_off,,,,,256,0,6,,,66,0,5
97024,note_off,,,,,0,0,6,,,66,0,5
97024,note_on,,,,,0,0,6,,,69,96,5
97280,note_off,,,,,512,0,5,,,76,0,4
97280,note_off,,,,,256,0,6,,,69,0,5
97280,note_on,,,,,0,0,5,,,67,96,4
97280,note_off,,,,,0,0,7,,,66,0,6
97280,note_on,,,,,0,0,7,,,67,96,6
97280,note_off,,,,,256,0,7,,,69,0,6
97280,note_off,,,,,0,0,5,,,67,0,4
97280,note_off,,,,,512,0,8,,,50,0,7
97280,note_on,,,,,0,0,8,,,52,96,7
97280,note_on,,,,,0,0,6,,,67,96,5
97280,note_on,,,,,0,0,2,,,67,96,1
97280,note_off,,,,,1024,0,2,,,67,0,1
97280,note_on,,,,,0,0,1,,,76,96,0
97280,note_off,,,,,1024,0,1,,,76,0,0
97280,note_off,,,,,0,0,7,,,60,0,6
97280,note_on,,,,,0,0,7,,,64,96,6
97280,note_off,,,,,512,0,4,,,50,0,3
97280,note_on,,,,,0,0,4,,,52,96,3
97280,note_on,,,,,0,0,7,,,59,96,6
97280,note_off,,,,,1024,0,3,,,60,0,2
97280,note_on,,,,,0,0,3,,,59,96,2
97280,note_off,,,,,0,0,6,,,69,0,5
97280,note_on,,,,,0,0,6,,,67,96,5
97536,note_off,,,,,0,0,6,,,67,0,5
97536,note_on,,,,,0,0,6,,,79,96,5
97536,note_off,,,,,256,0,6,,,67,0,5
97536,note_off,,,,,256,0,7,,,67,0,6
97536,note_on,,,,,0,0,6,,,79,96,5
97536,note_on,,,,,0,0,7,,,79,96,6
97536,note_off,,,,,256,0,5,,,67,0,4
97536,note_on,,,,,0,0,5,,,66,96,4
97792,note_on,,,,,0,0,7,,,57,96,6
97792,note_on,,,,,0,0,6,,,78,96,5
97792,note_on,,,,,0,0,3,,,57,96,2
97792,note_off,,,,,512,0,3,,,59,0,2
97792,note_on,,,,,256,0,5,,,76,96,4
97792,note_off,,,,,0,0,5,,,66,0,4
97792,note_on,,,,,0,0,5,,,67,96,4
97792,note_on,,,,,0,0,6,,,78,96,5
97792,note_off,,,,,0,0,7,,,64,0,6
97792,note_on,,,,,0,0,7,,,67,96,6
97792,note_off,,,,,512,0,8,,,52,0,7
97792,note_on,,,,,0,0,7,,,78,96,6
97792,note_on,,,,,0,0,4,,,49,96,3
97792,note_off,,,,,256,0,7,,,79,0,6
97792,note_off,,,,,512,0,4,,,52,0,3
97792,note_on,,,,,0,0,8,,,49,96,7
97792,note_off,,,,,256,0,6,,,79,0,5
97792,note_off,,,,,0,0,7,,,59,0,6
97792,note_off,,,,,0,0,6,,,79,0,5
98048,note_off,,,,,256,0,7,,,78,0,6
98048,note_on,,,,,0,0,7,,,76,96,6
98048,note_off,,,,,256,0,6,,,78,0,5
98048,note_on,,,,,0,0,6,,,76,96,5
98048,note_on,,,,,0,0,6,,,76,96,5
98048,note_off,,,,,0,0,6,,,78,0,5
98304,note_on,,,,,0,0,1,,,69,96,0
98304,note_off,,,,,256,0,7,,,76,0,6
98304,note_off,,,,,0,0,7,,,67,0,6
98304,note_off,,,,,512,0,3,,,57,0,2
98304,note_on,,,,,0,0,3,,,57,96,2
98304,note_on,,,,,0,0,6,,,74,96,5
98304,note_on,,,,,0,0,6,,,74,96,5
98304,note_on,,,,,0,0,7,,,57,96,6
98304,note_off,,,,,0,0,6,,,76,0,5
98304,note_on,,,,,0,0,7,,,74,96,6
98304,note_on,,,,,0,0,7,,,66,96,6
98304,note_off,,,,,256,0,6,,,76,0,5
98304,note_on,,,,,0,0,2,,,66,96,1
98304,note_off,,,,,1024,0,2,,,67,0,1
98304,note_off,,,,,512,0,4,,,49,0,3
98304,note_off,,,,,1024,0,1,,,76,0,0
98304,note_on,,,,,0,0,4,,,50,96,3
98304,note_off,,,,,512,0,5,,,76,0,4
98304,note_on,,,,,0,0,8,,,50,96,7
98304,note_off,,,,,512,0,8,,,49,0,7
98304,note_off,,,,,0,0,7,,,57,0,6
98304,note_on,,,,,0,0,5,,,72,96,4
98304,note_off,,,,,0,0,5,,,67,0,4
98560,note_on,,,,,0,0,6,,,72,96,5
98560,note_on,,,,,0,0,6,,,72,96,5
98560,note_off,,,,,0,0,6,,,74,0,5
98560,note_on,,,,,0,0,7,,,72,96,6
98560,note_off,,,,,256,0,7,,,74,0,6
98560,note_off,,,,,256,0,6,,,74,0,5
98816,note_off,,,,,256,0,6,,,72,0,5
98816,note_on,,,,,0,0,6,,,71,96,5
98816,note_off,,,,,0,0,6,,,72,0,5
98816,note_on,,,,,0,0,6,,,71,96,5
98816,note_on,,,,,0,0,7,,,67,96,6
98816,note_on,,,,,0,0,5,,,74,96,4
98816,note_off,,,,,512,0,5,,,72,0,4
98816,note_on,,,,,0,0,7,,,71,96,6
98816,note_on,,,,,512,0,8,,,50,96,7
98816,note_on,,,,,0,0,7,,,62,96,6
98816,note_off,,,,,0,0,7,,,57,0,6
98816,note_off,,,,,0,0,7,,,66,0,6
98816,note_off,,,,,0,0,8,,,50,0,7
98816,note_off,,,,,256,0,7,,,72,0,6
98816,note_on,,,,,0,0,8,,,38,96,7
98816,note_on,,,,,0,0,5,,,62,96,4
99072,note_off,,,,,256,0,8,,,50,0,7
99072,note_on,,,,,0,0,7,,,60,96,6
99072,note_on,,,,,0,0,6,,,72,96,5
99072,note_off,,,,,256,0,6,,,71,0,5
99072,note_on,,,,,0,0,8,,,50,96,7
99072,note_off,,,,,256,0,7,,,71,0,6
99072,note_on,,,,,0,0,7,,,72,96,6
99072,note_off,,,,,0,0,7,,,62,0,6
99072,note_off,,,,,0,0,6,,,71,0,5
99072,note_on,,,,,0,0,6,,,72,96,5
99200,note_on,,,,,0,0,6,,,74,96,5
99200,note_on,,,,,0,0,6,,,74,96,5
99200,note_on,,,,,0,0,7,,,74,96,6
99200,note_off,,,,,128,0,6,,,72,0,5
99200,note_off,,,,,0,0,6,,,72,0,5
99200,note_off,,,,,128,0,7,,,72,0,6
99328,note_off,,,,,1024,0,1,,,69,0,0
99328,note_on,,,,,0,0,1,,,69,96,0
99328,note_off,,,,,0,0,5,,,74,0,4
99328,note_off,,,,,0,0,6,,,74,0,5
99328,note_on,,,,,0,0,6,,,69,96,5
99328,note_on,,,,,0,0,6,,,69,96,5
99328,note_off,,,,,128,0,6,,,74,0,5
99328,note_off,,,,,512,0,5,,,62,0,4
99328,note_off,,,,,1024,0,2,,,66,0,1
99328,note_off,,,,,256,0,8,,,50,0,7
99328,note_on,,,,,0,0,8,,,50,96,7
99328,note_on,,,,,0,0,8,,,50,96,7
99328,note_off,,,,,0,0,8,,,38,0,7
99328,note_on,,,,,0,0,5,,,69,96,4
99328,note_on,,,,,0,0,4,,,50,96,3
99328,note_on,,,,,0,0,2,,,66,96,1
99328,note_off,,,,,1024,0,4,,,50,0,3
99328,note_off,,,,,0,0,7,,,60,0,6
99328,note_on,,,,,0,0,7,,,62,96,6
99328,note_on,,,,,0,0,3,,,62,96,2
99328,note_off,,,,,1024,0,3,,,57,0,2
99328,note_off,,,,,128,0,7,,,74,0,6
99328,note_on,,,,,0,0,7,,,69,96,6
99328,note_off,,,,,0,0,7,,,67,0,6
99328,note_on,,,,,0,0,7,,,66,96,6
99840,note_off,,,,,0,0,8,,,50,0,7
99840,note_on,,,,,0,0,7,,,57,96,6
99840,note_off,,,,,0,0,7,,,62,0,6
99840,note_on,,,,,0,0,7,,,64,96,6
99840,note_off,,,,,512,0,7,,,66,0,6
99840,note_on,,,,,0,0,5,,,62,96,4
99840,note_on,,,,,0,0,8,,,48,96,7
99840,note_on,,,,,512,0,5,,,69,96,4
99840,note_on,,,,,0,0,8,,,50,96,7
99840,note_off,,,,,0,0,5,,,69,0,4
99840,note_off,,,,,512,0,4,,,50,0,3
99840,note_on,,,,,0,0,4,,,48,96,3
99840,note_off,,,,,512,0,8,,,50,0,7
100096,note_on,,,,,0,0,6,,,67,96,5
100096,note_off,,,,,0,0,6,,,69,0,5
100096,note_off,,,,,256,0,7,,,69,0,6
100096,note_on,,,,,0,0,7,,,67,96,6
100096,note_on,,,,,0,0,6,,,67,96,5
100096,note_off,,,,,768,0,6,,,69,0,5
100352,note_off,,,,,1024,0,3,,,62,0,2
100352,note_on,,,,,0,0,7,,,67,96,6
100352,note_off,,,,,0,0,7,,,64,0,6
100352,note_on,,,,,0,0,7,,,62,96,6
100352,note_off,,,,,0,0,7,,,57,0,6
100352,note_on,,,,,0,0,7,,,59,96,6
100352,note_on,,,,,0,0,1,,,74,96,0
100352,note_on,,,,,0,0,2,,,65,96,1
100352,note_off,,,,,1024,0,2,,,66,0,1
100352,note_on,,,,,0,0,3,,,55,96,2
100352,note_off,,,,,256,0,7,,,67,0,6
100352,note_on,,,,,0,0,6,,,67,96,5
100352,note_on,,,,,0,0,4,,,47,96,3
100352,note_off,,,,,512,0,4,,,48,0,3
100352,note_off,,,,,512,0,5,,,69,0,4
100352,note_on,,,,,0,0,5,,,74,96,4
100352,note_off,,,,,0,0,5,,,62,0,4
100352,note_off,,,,,256,0,6,,,67,0,5
100352,note_on,,,,,0,0,8,,,47,96,7
100352,note_off,,,,,0,0,8,,,48,0,7
100352,note_on,,,,,0,0,8,,,43,96,7
100352,note_off,,,,,1024,0,1,,,69,0,0
100352,note_off,,,,,0,0,6,,,67,0,5
100352,note_off,,,,,512,0,8,,,50,0,7
100352,note_on,,,,,0,0,6,,,67,96,5
100608,note_on,,,,,0,0,5,,,72,96,4
100608,note_off,,,,,256,0,5,,,74,0,4
100864,note_off,,,,,512,0,4,,,47,0,3
100864,note_on,,,,,0,0,3,,,57,96,2
100864,note_off,,,,,512,0,3,,,55,0,2
100864,note_off,,,,,512,0,8,,,47,0,7
100864,note_on,,,,,0,0,4,,,48,96,3
100864,note_on,,,,,0,0,8,,,48,96,7
100864,note_off,,,,,256,0,5,,,72,0,4
100864,note_on,,,,,0,0,5,,,74,96,4
100864,note_on,,,,,0,0,5,,,72,96,4
101376,note_off,,,,,0,0,6,,,67,0,5
101376,note_off,,,,,1024,0,1,,,74,0,0
101376,note_on,,,,,0,0,3,,,59,96,2
101376,note_off,,,,,512,0,3,,,57,0,2
101376,note_off,,,,,1024,0,6,,,67,0,5
101376,note_off,,,,,0,0,7,,,62,0,6
101376,note_on,,,,,0,0,4,,,50,96,3
101376,note_on,,,,,0,0,8,,,50,96,7
101376,note_off,,,,,0,0,8,,,48,0,7
101376,note_off,,,,,512,0,8,,,43,0,7
101376,note_off,,,,,0,0,7,,,59,0,6
101376,note_off,,,,,1024,0,7,,,67,0,6
101376,note_on,,,,,0,0,1,,,74,96,0
101376,note_off,,,,,512,0,4,,,48,0,3
101376,note_off,,,,,0,0,5,,,72,0,4
101376,note_off,,,,,512,0,5,,,74,0,4
101376,note_off,,,,,1024,0,2,,,65,0,1
101376,note_on,,,,,0,0,2,,,65,96,1
101376,note_on,,,,,0,0,5,,,71,96,4
101888,note_on,,,,,512,0,5,,,74,96,4
101888,note_on,,,,,0,0,4,,,47,96,3
101888,note_off,,,,,512,0,4,,,50,0,3
101888,note_on,,,,,0,0,3,,,60,96,2
101888,note_on,,,,,0,0,5,,,67,96,4
101888,note_off,,,,,512,0,3,,,59,0,2
101888,note_off,,,,,512,0,8,,,50,0,7
101888,note_on,,,,,0,0,8,,,47,96,7
101888,note_off,,,,,0,0,5,,,71,0,4
102144,note_off,,,,,256,0,3,,,60,0,2
102144,note_on,,,,,0,0,3,,,62,96,2
102400,note_off,,,,,512,0,5,,,74,0,4
102400,note_off,,,,,256,0,3,,,62,0,2
102400,note_on,,,,,0,0,3,,,60,96,2
102400,note_off,,,,,512,0,4,,,47,0,3
102400,note_on,,,,,0,0,4,,,48,96,3
102400,note_off,,,,,512,0,8,,,47,0,7
102400,note_off,,,,,1024,0,2,,,65,0,1
102400,note_on,,,,,0,0,8,,,48,96,7
102400,note_on,,,,,0,0,1,,,67,96,0
102400,note_on,,,,,0,0,5,,,67,96,4
102400,note_off,,,,,0,0,5,,,67,0,4
102400,note_on,,,,,0,0,2,,,64,96,1
102400,note_off,,,,,1024,0,1,,,74,0,0
102912,note_off,,,,,512,0,8,,,48,0,7
102912,note_on,,,,,0,0,8,,,36,96,7
102912,note_on,,,,,0,0,5,,,72,96,4
102912,note_off,,,,,512,0,5,,,67,0,4
102912,note_on,,,,,0,0,5,,,67,96,4
103424,note_on,,,,,0,0,1,,,71,96,0
103424,note_off,,,,,512,0,8,,,36,0,7
103424,note_on,,,,,0,0,8,,,43,96,7
103424,note_off,,,,,1024,0,4,,,48,0,3
103424,note_off,,,,,1024,0,3,,,60,0,2
103424,note_on,,,,,0,0,3,,,59,96,2
103424,note_off,,,,,512,0,5,,,72,0,4
103424,note_off,,,,,1024,0,1,,,67,0,0
103424,note_on,,,,,0,0,5,,,55,96,4
103424,note_off,,,,,0,0,5,,,67,0,4
103424,note_on,,,,,0,0,4,,,55,96,3
103424,note_on,,,,,0,0,2,,,62,96,1
103424,note_off,,,,,1024,0,2,,,64,0,1
103936,note_on,,,,,0,0,4,,,52,96,3
103936,note_on,,,,,0,0,2,,,67,96,1
103936,note_off,,,,,512,0,2,,,62,0,1
103936,note_off,,,,,512,0,4,,,55,0,3
103936,note_on,,,,,0,0,8,,,52,96,7
103936,note_off,,,,,512,0,8,,,43,0,7
103936,note_on,,,,,512,0,5,,,71,96,4
103936,note_off,,,,,0,0,5,,,55,0,4
103936,note_on,,,,,0,0,5,,,67,96,4
104448,note_on,,,,,0,0,4,,,49,96,3
104448,note_off,,,,,1024,0,1,,,71,0,0
104448,note_on,,,,,0,0,1,,,69,96,0
104448,note_off,,,,,512,0,4,,,52,0,3
104448,note_on,,,,,0,0,8,,,49,96,7
104448,note_off,,,,,512,0,8,,,52,0,7
104448,note_off,,,,,0,0,5,,,67,0,4
104448,note_on,,,,,0,0,3,,,64,96,2
104448,note_on,,,,,0,0,2,,,67,96,1
104448,note_off,,,,,1024,0,3,,,59,0,2
104448,note_off,,,,,512,0,5,,,71,0,4
104448,note_off,,,,,512,0,2,,,67,0,1
104448,note_on,,,,,0,0,5,,,69,96,4
104960,note_on,,,,,0,0,6,,,69,96,5
104960,note_on,,,,,3584,0,6,,,69,96,5
104960,note_on,,,,,0,0,5,,,69,96,4
104960,note_off,,,,,512,0,4,,,49,0,3
104960,note_on,,,,,0,0,8,,,50,96,7
104960,note_on,,,,,3584,0,7,,,69,96,6
104960,note_off,,,,,512,0,3,,,64,0,2
104960,note_on,,,,,0,0,3,,,62,96,2
104960,note_off,,,,,512,0,8,,,49,0,7
104960,note_on,,,,,0,0,4,,,50,96,3
104960,note_on,,,,,0,0,5,,,74,96,4
104960,note_on,,,,,0,0,7,,,66,96,6
104960,note_on,,,,,0,0,7,,,62,96,6
104960,note_off,,,,,512,0,5,,,69,0,4
104960,note_off,,,,,512,0,2,,,67,0,1
104960,note_on,,,,,0,0,2,,,66,96,1
105472,note_on,,,,,0,0,2,,,66,96,1
105472,note_off,,,,,0,0,7,,,66,0,6
105472,note_off,,,,,0,0,6,,,69,0,5
105472,note_on,,,,,0,0,6,,,74,96,5
105472,note_on,,,,,0,0,6,,,74,96,5
105472,note_off,,,,,512,0,6,,,69,0,5
105472,note_on,,,,,0,0,7,,,66,96,6
105472,note_on,,,,,0,0,3,,,62,96,2
105472,note_on,,,,,0,0,8,,,47,96,7
105472,note_off,,,,,0,0,5,,,69,0,4
105472,note_off,,,,,512,0,5,,,74,0,4
105472,note_on,,,,,0,0,1,,,67,96,0
105472,note_on,,,,,0,0,7,,,74,96,6
105472,note_off,,,,,512,0,8,,,50,0,7
105472,note_on,,,,,0,0,5,,,71,96,4
105472,note_off,,,,,1024,0,1,,,69,0,0
105472,note_off,,,,,0,0,7,,,62,0,6
105472,note_off,,,,,512,0,3,,,62,0,2
105472,note_off,,,,,512,0,7,,,69,0,6
105472,note_on,,,,,0,0,4,,,47,96,3
105472,note_off,,,,,512,0,4,,,50,0,3
105472,note_off,,,,,512,0,2,,,66,0,1
105472,note_on,,,,,0,0,7,,,62,96,6
105984,note_off,,,,,512,0,8,,,47,0,7
105984,note_on,,,,,0,0,8,,,49,96,7
105984,note_on,,,,,0,0,7,,,76,96,6
105984,note_on,,,,,0,0,7,,,57,96,6
105984,note_on,,,,,0,0,7,,,69,96,6
105984,note_off,,,,,0,0,7,,,62,0,6
105984,note_on,,,,,0,0,4,,,49,96,3
105984,note_off,,,,,512,0,4,,,47,0,3
105984,note_off,,,,,512,0,7,,,74,0,6
105984,note_off,,,,,0,0,7,,,66,0,6
105984,note_on,,,,,512,0,5,,,76,96,4
105984,note_on,,,,,0,0,6,,,76,96,5
105984,note_on,,,,,0,0,3,,,57,96,2
105984,note_off,,,,,512,0,6,,,74,0,5
105984,note_off,,,,,512,0,3,,,62,0,2
105984,note_on,,,,,0,0,6,,,76,96,5
105984,note_on,,,,,0,0,2,,,64,96,1
105984,note_off,,,,,512,0,2,,,66,0,1
105984,note_off,,,,,0,0,6,,,74,0,5
105984,note_off,,,,,0,0,5,,,71,0,4
105984,note_on,,,,,0,0,5,,,69,96,4
106496,note_off,,,,,512,0,2,,,64,0,1
106496,note_on,,,,,0,0,2,,,64,96,1
106496,note_on,,,,,0,0,7,,,78,96,6
106496,note_off,,,,,512,0,7,,,76,0,6
106496,note_off,,,,,512,0,4,,,49,0,3
106496,note_on,,,,,0,0,4,,,50,96,3
106496,note_off,,,,,512,0,3,,,57,0,2
106496,note_on,,,,,0,0,3,,,57,96,2
106496,note_off,,,,,512,0,5,,,76,0,4
106496,note_off,,,,,0,0,5,,,69,0,4
106496,note_on,,,,,0,0,1,,,66,96,0
106496,note_off,,,,,512,0,6,,,76,0,5
106496,note_on,,,,,0,0,5,,,74,96,4
106496,note_off,,,,,1024,0,1,,,67,0,0
106496,note_off,,,,,512,0,8,,,49,0,7
106496,note_on,,,,,0,0,6,,,78,96,5
106496,note_on,,,,,0,0,8,,,50,96,7
106496,note_on,,,,,0,0,6,,,78,96,5
106496,note_off,,,,,0,0,6,,,76,0,5
106752,note_on,,,,,0,0,7,,,64,96,6
106752,note_on,,,,,0,0,7,,,76,96,6
106752,note_off,,,,,0,0,6,,,78,0,5
106752,note_off,,,,,256,0,5,,,74,0,4
106752,note_on,,,,,0,0,5,,,73,96,4
106752,note_off,,,,,256,0,7,,,78,0,6
106752,note_off,,,,,256,0,6,,,78,0,5
106752,note_on,,,,,0,0,2,,,67,96,1
106752,note_off,,,,,256,0,2,,,64,0,1
106752,note_on,,,,,0,0,6,,,76,96,5
106752,note_off,,,,,0,0,7,,,57,0,6
106752,note_on,,,,,0,0,6,,,76,96,5
107008,note_on,,,,,0,0,6,,,74,96,5
107008,note_on,,,,,0,0,5,,,74,96,4
107008,note_off,,,,,256,0,5,,,73,0,4
107008,note_on,,,,,0,0,5,,,69,96,4
107008,note_off,,,,,0,0,7,,,69,0,6
107008,note_off,,,,,256,0,7,,,76,0,6
107008,note_on,,,,,0,0,7,,,66,96,6
107008,note_off,,,,,0,0,6,,,76,0,5
107008,note_on,,,,,0,0,8,,,45,96,7
107008,note_off,,,,,0,0,7,,,64,0,6
107008,note_on,,,,,512,0,8,,,50,96,7
107008,note_on,,,,,0,0,2,,,66,96,1
107008,note_off,,,,,0,0,8,,,50,0,7
107008,note_off,,,,,512,0,4,,,50,0,3
107008,note_off,,,,,256,0,6,,,76,0,5
107008,note_on,,,,,0,0,7,,,74,96,6
107008,note_on,,,,,0,0,7,,,74,96,6
107008,note_off,,,,,256,0,2,,,67,0,1
107008,note_on,,,,,0,0,4,,,57,96,3
107008,note_on,,,,,0,0,6,,,74,96,5
107264,note_on,,,,,0,0,7,,,73,96,6
107264,note_off,,,,,0,0,6,,,74,0,5
107264,note_on,,,,,0,0,6,,,76,96,5
107264,note_on,,,,,0,0,6,,,76,96,5
107264,note_off,,,,,256,0,6,,,74,0,5
107264,note_off,,,,,0,0,7,,,66,0,6
107264,note_on,,,,,0,0,7,,,76,96,6
107264,note_on,,,,,0,0,7,,,67,96,6
107264,note_off,,,,,0,0,7,,,74,0,6
107264,note_off,,,,,256,0,2,,,66,0,1
107264,note_off,,,,,256,0,7,,,74,0,6
107264,note_on,,,,,0,0,2,,,64,96,1
107520,note_off,,,,,1024,0,1,,,66,0,0
107520,note_on,,,,,0,0,4,,,54,96,3
107520,note_on,,,,,0,0,3,,,57,96,2
107520,note_off,,,,,1024,0,3,,,57,0,2
107520,note_off,,,,,256,0,6,,,76,0,5
107520,note_on,,,,,0,0,6,,,78,96,5
107520,note_on,,,,,0,0,2,,,62,96,1
107520,note_off,,,,,512,0,5,,,74,0,4
107520,note_off,,,,,0,0,5,,,69,0,4
107520,note_on,,,,,0,0,5,,,74,96,4
107520,note_on,,,,,0,0,6,,,78,96,5
107520,note_off,,,,,0,0,6,,,76,0,5
107520,note_off,,,,,512,0,4,,,57,0,3
107520,note_on,,,,,0,0,1,,,66,96,0
107520,note_on,,,,,0,0,8,,,42,96,7
107520,note_off,,,,,0,0,8,,,45,0,7
107520,note_off,,,,,256,0,7,,,76,0,6
107520,note_on,,,,,0,0,8,,,50,96,7
107520,note_off,,,,,512,0,8,,,50,0,7
107520,note_on,,,,,0,0,7,,,78,96,6
107520,note_off,,,,,0,0,7,,,73,0,6
107520,note_on,,,,,0,0,7,,,74,96,6
107520,note_off,,,,,0,0,7,,,67,0,6
107520,note_off,,,,,256,0,2,,,64,0,1
107520,note_on,,,,,0,0,7,,,69,96,6
107776,note_on,,,,,0,0,5,,,73,96,4
107776,note_off,,,,,256,0,5,,,74,0,4
107776,note_off,,,,,256,0,7,,,78,0,6
107776,note_on,,,,,0,0,6,,,79,96,5
107776,note_on,,,,,0,0,6,,,79,96,5
107776,note_off,,,,,0,0,6,,,78,0,5
107776,note_on,,,,,0,0,7,,,79,96,6
107776,note_on,,,,,0,0,8,,,50,96,7
107776,note_off,,,,,256,0,8,,,50,0,7
107776,note_off,,,,,256,0,6,,,78,0,5
108032,note_off,,,,,0,0,8,,,42,0,7
108032,note_on,,,,,0,0,6,,,78,96,5
108032,note_on,,,,,0,0,6,,,78,96,5
108032,note_on,,,,,0,0,8,,,50,96,7
108032,note_off,,,,,0,0,6,,,79,0,5
108032,note_off,,,,,256,0,6,,,79,0,5
108032,note_off,,,,,256,0,8,,,50,0,7
108032,note_on,,,,,256,0,5,,,74,96,4
108032,note_on,,,,,0,0,5,,,74,96,4
108032,note_on,,,,,0,0,7,,,66,96,6
108032,note_off,,,,,0,0,7,,,69,0,6
108032,note_on,,,,,0,0,7,,,78,96,6
108032,note_off,,,,,0,0,5,,,73,0,4
108032,note_off,,,,,256,0,7,,,79,0,6
108032,note_off,,,,,512,0,4,,,54,0,3
108032,note_on,,,,,0,0,8,,,38,96,7
108032,note_on,,,,,0,0,4,,,50,96,3
108288,note_off,,,,,256,0,7,,,78,0,6
108288,note_on,,,,,0,0,7,,,79,96,6
108288,note_on,,,,,0,0,6,,,79,96,5
108288,note_on,,,,,0,0,6,,,79,96,5
108288,note_off,,,,,0,0,6,,,78,0,5
108288,note_off,,,,,256,0,6,,,78,0,5
108544,note_off,,,,,256,0,6,,,79,0,5
108544,note_on,,,,,0,0,6,,,81,96,5
108544,note_off,,,,,512,0,8,,,50,0,7
108544,note_off,,,,,256,0,7,,,79,0,6
108544,note_off,,,,,0,0,7,,,66,0,6
108544,note_on,,,,,0,0,7,,,64,96,6
108544,note_on,,,,,0,0,6,,,81,96,5
108544,note_off,,,,,1024,0,1,,,66,0,0
108544,note_on,,,,,0,0,1,,,64,96,0
108544,note_off,,,,,512,0,5,,,74,0,4
108544,note_off,,,,,1024,0,3,,,57,0,2
108544,note_on,,,,,0,0,3,,,57,96,2
108544,note_off,,,,,0,0,8,,,38,0,7
108544,note_on,,,,,0,0,5,,,74,96,4
108544,note_off,,,,,0,0,5,,,74,0,4
108544,note_on,,,,,0,0,2,,,62,96,1
108544,note_on,,,,,0,0,7,,,81,96,6
108544,note_off,,,,,0,0,6,,,79,0,5
108544,note_off,,,,,1024,0,2,,,62,0,1
108544,note_on,,,,,0,0,8,,,45,96,7
108544,note_off,,,,,512,0,4,,,50,0,3
108544,note_on,,,,,0,0,4,,,45,96,3
108800,note_off,,,,,256,0,7,,,81,0,6
108800,note_on,,,,,0,0,6,,,86,96,5
108800,note_off,,,,,256,0,6,,,81,0,5
108800,note_on,,,,,0,0,7,,,86,96,6
109056,note_on,,,,,0,0,5,,,79,96,4
109056,note_on,,,,,0,0,7,,,67,96,6
109056,note_off,,,,,0,0,7,,,64,0,6
109056,note_on,,,,,0,0,7,,,76,96,6
109056,note_off,,,,,0,0,7,,,74,0,6
109056,note_on,,,,,0,0,7,,,85,96,6
109056,note_off,,,,,256,0,7,,,86,0,6
109056,note_on,,,,,0,0,5,,,76,96,4
109056,note_on,,,,,0,0,6,,,85,96,5
109056,note_off,,,,,256,0,6,,,86,0,5
109056,note_on,,,,,0,0,8,,,43,96,7
109056,note_off,,,,,512,0,8,,,45,0,7
109056,note_off,,,,,0,0,6,,,81,0,5
109056,note_off,,,,,512,0,5,,,74,0,4
109312,note_off,,,,,256,0,5,,,76,0,4
109312,note_on,,,,,0,0,5,,,71,96,4
109312,note_on,,,,,0,0,7,,,78,96,6
109312,note_on,,,,,0,0,6,,,83,96,5
109312,note_on,,,,,0,0,7,,,83,96,6
109312,note_off,,,,,256,0,7,,,85,0,6
109312,note_off,,,,,0,0,7,,,76,0,6
109312,note_off,,,,,256,0,6,,,85,0,5
109568,note_off,,,,,256,0,6,,,83,0,5
109568,note_on,,,,,0,0,6,,,81,96,5
109568,note_off,,,,,0,0,7,,,78,0,6
109568,note_off,,,,,256,0,7,,,83,0,6
109568,note_on,,,,,0,0,7,,,81,96,6
109568,note_on,,,,,0,0,8,,,45,96,7
109568,note_off,,,,,256,0,5,,,71,0,4
109568,note_on,,,,,0,0,5,,,73,96,4
109568,note_on,,,,,0,0,2,,,61,96,1
109568,note_on,,,,,0,0,7,,,76,96,6
109568,note_off,,,,,1024,0,2,,,62,0,1
109568,note_on,,,,,0,0,7,,,61,96,6
109568,note_off,,,,,512,0,8,,,43,0,7
109568,note_off,,,,,0,0,5,,,79,0,4
109568,note_on,,,,,0,0,5,,,76,96,4
109568,note_off,,,,,0,0,7,,,67,0,6
109824,note_off,,,,,256,0,6,,,81,0,5
109824,note_on,,,,,0,0,6,,,79,96,5
109824,note_on,,,,,0,0,6,,,79,96,5
109824,note_on,,,,,0,0,7,,,79,96,6
109824,note_off,,,,,256,0,7,,,81,0,6
110080,note_off,,,,,0,0,7,,,76,0,6
110080,note_on,,,,,0,0,5,,,69,96,4
110080,note_off,,,,,0,0,5,,,76,0,4
110080,note_on,,,,,0,0,5,,,76,96,4
110080,note_on,,,,,0,0,7,,,64,96,6
110080,note_off,,,,,0,0,7,,,61,0,6
110080,note_on,,,,,0,0,8,,,57,96,7
110080,note_on,,,,,0,0,7,,,78,96,6
110080,note_off,,,,,512,0,5,,,73,0,4
110080,note_off,,,,,512,0,8,,,45,0,7
110080,note_on,,,,,0,0,6,,,78,96,5
110080,note_on,,,,,0,0,6,,,78,96,5
110080,note_off,,,,,256,0,7,,,79,0,6
110080,note_on,,,,,0,0,7,,,72,96,6
110080,note_off,,,,,256,0,6,,,79,0,5
110080,note_off,,,,,0,0,6,,,79,0,5
110336,note_off,,,,,256,0,6,,,78,0,5
110336,note_off,,,,,256,0,7,,,78,0,6
110336,note_on,,,,,0,0,7,,,79,96,6
110336,note_on,,,,,0,0,6,,,79,96,5
110336,note_on,,,,,0,0,6,,,79,96,5
110336,note_off,,,,,0,0,6,,,78,0,5
110592,note_off,,,,,2048,0,1,,,64,0,0
110592,note_off,,,,,2048,0,3,,,57,0,2
110592,note_off,,,,,512,0,8,,,57,0,7
110592,note_on,,,,,0,0,1,,,62,96,0
110592,note_on,,,,,0,0,2,,,62,96,1
110592,note_off,,,,,1024,0,2,,,61,0,1
110592,note_off,,,,,256,0,7,,,79,0,6
110592,note_off,,,,,0,0,7,,,72,0,6
110592,note_off,,,,,0,0,7,,,64,0,6
110592,note_on,,,,,0,0,7,,,78,96,6
110592,note_on,,,,,0,0,3,,,57,96,2
110592,note_on,,,,,0,0,8,,,50,96,7
110592,note_off,,,,,512,0,5,,,76,0,4
110592,note_on,,,,,0,0,7,,,74,96,6
110592,note_on,,,,,0,0,4,,,50,96,3
110592,note_on,,,,,0,0,6,,,78,96,5
110592,note_on,,,,,0,0,6,,,78,96,5
110592,note_off,,,,,0,0,6,,,79,0,5
110592,note_on,,,,,0,0,7,,,62,96,6
110592,note_off,,,,,0,0,5,,,69,0,4
110592,note_off,,,,,256,0,6,,,79,0,5
110592,note_off,,,,,2048,0,4,,,45,0,3
110592,note_on,,,,,0,0,5,,,78,96,4
110848,note_on,,,,,0,0,7,,,83,96,6
110848,note_off,,,,,256,0,6,,,78,0,5
110848,note_on,,,,,0,0,6,,,83,96,5
110848,note_off,,,,,256,0,7,,,78,0,6
111104,note_on,,,,,0,0,8,,,52,96,7
111104,note_on,,,,,0,0,7,,,71,96,6
111104,note_off,,,,,512,0,8,,,50,0,7
111104,note_on,,,,,0,0,7,,,67,96,6
111104,note_off,,,,,0,0,7,,,62,0,6
111104,note_off,,,,,512,0,5,,,78,0,4
111104,note_off,,,,,256,0,6,,,83,0,5
111104,note_off,,,,,0,0,6,,,78,0,5
111104,note_on,,,,,0,0,6,,,81,96,5
111104,note_off,,,,,0,0,7,,,74,0,6
111104,note_on,,,,,0,0,7,,,81,96,6
111104,note_off,,,,,256,0,7,,,83,0,6
111360,note_off,,,,,256,0,6,,,81,0,5
111360,note_off,,,,,256,0,7,,,81,0,6
111360,note_on,,,,,0,0,7,,,79,96,6
111360,note_on,,,,,0,0,6,,,79,96,5
111616,note_off,,,,,512,0,8,,,52,0,7
111616,note_on,,,,,0,0,7,,,61,96,6
111616,note_off,,,,,1024,0,1,,,62,0,0
111616,note_off,,,,,256,0,6,,,79,0,5
111616,note_off,,,,,1024,0,4,,,50,0,3
111616,note_on,,,,,0,0,7,,,78,96,6
111616,note_off,,,,,256,0,7,,,79,0,6
111616,note_on,,,,,0,0,6,,,78,96,5
111616,note_off,,,,,0,0,7,,,67,0,6
111616,note_off,,,,,1024,0,3,,,57,0,2
111616,note_off,,,,,1024,0,2,,,62,0,1
111616,note_on,,,,,0,0,8,,,54,96,7
111872,note_on,,,,,0,0,6,,,76,96,5
111872,note_on,,,,,0,0,7,,,76,96,6
111872,note_off,,,,,256,0,6,,,78,0,5
111872,note_on,,,,,0,0,6,,,76,96,5
111872,note_off,,,,,256,0,7,,,78,0,6
112128,note_off,,,,,256,0,7,,,76,0,6
112128,note_on,,,,,0,0,8,,,42,96,7
112128,note_off,,,,,512,0,8,,,54,0,7
112128,note_on,,,,,0,0,7,,,66,96,6
112128,note_off,,,,,0,0,6,,,76,0,5
112128,note_on,,,,,1024,0,5,,,78,96,4
112128,note_on,,,,,0,0,7,,,74,96,6
112128,note_on,,,,,0,0,6,,,74,96,5
112128,note_off,,,,,0,0,7,,,61,0,6
112128,note_off,,,,,0,0,7,,,71,0,6
112128,note_on,,,,,0,0,6,,,74,96,5
112128,note_off,,,,,256,0,6,,,76,0,5
112128,note_on,,,,,0,0,7,,,70,96,6
112384,note_off,,,,,256,0,6,,,74,0,5
112384,note_on,,,,,0,0,6,,,76,96,5
112384,note_on,,,,,0,0,6,,,76,96,5
112384,note_off,,,,,0,0,6,,,74,0,5
112384,note_off,,,,,256,0,7,,,74,0,6
112384,note_on,,,,,0,0,7,,,76,96,6
112640,note_off,,,,,512,0,5,,,78,0,4
112640,note_off,,,,,512,0,8,,,42,0,7
112640,note_on,,,,,0,0,5,,,78,96,4
112640,note_on,,,,,0,0,7,,,74,96,6
112640,note_on,,,,,0,0,7,,,71,96,6
112640,note_off,,,,,0,0,7,,,70,0,6
112640,note_off,,,,,256,0,7,,,76,0,6
112640,note_on,,,,,0,0,6,,,74,96,5
112640,note_on,,,,,0,0,6,,,74,96,5
112640,note_off,,,,,256,0,6,,,76,0,5
112640,note_on,,,,,0,0,8,,,47,96,7
112640,note_off,,,,,0,0,6,,,76,0,5
112896,note_off,,,,,256,0,7,,,74,0,6
112896,note_off,,,,,256,0,6,,,74,0,5
112896,note_on,,,,,0,0,6,,,79,96,5
112896,note_on,,,,,0,0,7,,,79,96,6
113152,note_off,,,,,256,0,6,,,79,0,5
113152,note_off,,,,,512,0,8,,,47,0,7
113152,note_on,,,,,0,0,6,,,78,96,5
113152,note_off,,,,,0,0,6,,,74,0,5
113152,note_off,,,,,512,0,5,,,78,0,4
113152,note_on,,,,,0,0,7,,,57,96,6
113152,note_off,,,,,0,0,7,,,66,0,6
113152,note_on,,,,,0,0,7,,,79,96,6
113152,note_off,,,,,0,0,7,,,71,0,6
113152,note_on,,,,,0,0,7,,,78,96,6
113152,note_on,,,,,0,0,8,,,48,96,7
113152,note_off,,,,,256,0,7,,,79,0,6
113408,note_on,,,,,0,0,6,,,76,96,5
113408,note_off,,,,,256,0,6,,,78,0,5
113408,note_off,,,,,256,0,7,,,78,0,6
113408,note_on,,,,,0,0,7,,,76,96,6
113664,note_on,,,,,0,0,6,,,74,96,5
113664,note_off,,,,,256,0,6,,,76,0,5
113664,note_off,,,,,0,0,7,,,57,0,6
113664,note_on,,,,,0,0,7,,,59,96,6
113664,note_off,,,,,256,0,7,,,76,0,6
113664,note_on,,,,,0,0,8,,,50,96,7
113664,note_off,,,,,512,0,8,,,48,0,7
113664,note_on,,,,,0,0,7,,,74,96,6
113920,note_off,,,,,256,0,7,,,74,0,6
113920,note_off,,,,,256,0,6,,,74,0,5
113920,note_on,,,,,0,0,6,,,72,96,5
113920,note_on,,,,,0,0,6,,,72,96,5
113920,note_on,,,,,0,0,7,,,72,96,6
114176,note_on,,,,,1024,0,5,,,69,96,4
114176,note_on,,,,,0,0,8,,,38,96,7
114176,note_off,,,,,512,0,8,,,50,0,7
114176,note_off,,,,,0,0,7,,,59,0,6
114176,note_off,,,,,0,0,6,,,72,0,5
114176,note_on,,,,,0,0,6,,,71,96,5
114176,note_off,,,,,256,0,6,,,72,0,5
114176,note_off,,,,,256,0,7,,,72,0,6
114176,note_on,,,,,0,0,7,,,71,96,6
114176,note_on,,,,,0,0,7,,,62,96,6
114176,note_on,,,,,0,0,7,,,78,96,6
114176,note_off,,,,,0,0,7,,,79,0,6
114176,note_on,,,,,0,0,6,,,71,96,5
114432,note_on,,,,,0,0,7,,,72,96,6
114432,note_off,,,,,256,0,7,,,71,0,6
114432,note_off,,,,,0,0,6,,,71,0,5
114432,note_on,,,,,0,0,6,,,72,96,5
114432,note_on,,,,,0,0,6,,,72,96,5
114432,note_off,,,,,256,0,6,,,71,0,5
114688,note_off,,,,,256,0,6,,,72,0,5
114688,note_off,,,,,0,0,6,,,72,0,5
114688,note_on,,,,,0,0,7,,,62,96,6
114688,note_on,,,,,0,0,7,,,71,96,6
114688,note_off,,,,,0,0,7,,,62,0,6
114688,note_off,,,,,256,0,7,,,72,0,6
114688,note_on,,,,,0,0,6,,,71,96,5
114688,note_off,,,,,512,0,8,,,38,0,7
114688,note_on,,,,,0,0,8,,,43,96,7
114688,note_on,,,,,0,0,6,,,71,96,5
114688,note_on,,,,,0,0,5,,,71,96,4
114688,note_off,,,,,512,0,5,,,69,0,4
114944,note_on,,,,,0,0,6,,,74,96,5
114944,note_on,,,,,0,0,6,,,74,96,5
114944,note_off,,,,,0,0,6,,,71,0,5
114944,note_off,,,,,256,0,7,,,71,0,6
114944,note_on,,,,,0,0,7,,,74,96,6
114944,note_off,,,,,256,0,6,,,71,0,5
115200,note_off,,,,,512,0,8,,,43,0,7
115200,note_on,,,,,0,0,8,,,45,96,7
115200,note_off,,,,,512,0,5,,,71,0,4
115200,note_on,,,,,0,0,7,,,67,96,6
115200,note_on,,,,,0,0,6,,,73,96,5
115200,note_off,,,,,0,0,7,,,62,0,6
115200,note_off,,,,,256,0,6,,,74,0,5
115200,note_on,,,,,0,0,6,,,73,96,5
115200,note_off,,,,,256,0,7,,,74,0,6
115200,note_on,,,,,0,0,7,,,73,96,6
115200,note_off,,,,,0,0,7,,,78,0,6
115200,note_off,,,,,0,0,6,,,74,0,5
115200,note_on,,,,,0,0,7,,,76,96,6
115456,note_on,,,,,0,0,6,,,76,96,5
115456,note_off,,,,,0,0,6,,,73,0,5
115456,note_on,,,,,0,0,7,,,76,96,6
115456,note_off,,,,,256,0,7,,,73,0,6
115456,note_off,,,,,256,0,6,,,73,0,5
115456,note_on,,,,,0,0,6,,,76,96,5
115712,note_on,,,,,0,0,7,,,74,96,6
115712,note_off,,,,,0,0,7,,,76,0,6
115712,note_on,,,,,0,0,8,,,47,96,7
115712,note_off,,,,,512,0,8,,,45,0,7
115712,note_on,,,,,0,0,7,,,71,96,6
115712,note_off,,,,,0,0,7,,,67,0,6
115712,note_on,,,,,0,0,7,,,66,96,6
115712,note_on,,,,,0,0,6,,,74,96,5
115712,note_on,,,,,0,0,6,,,74,96,5
115712,note_off,,,,,256,0,6,,,76,0,5
115712,note_off,,,,,256,0,7,,,76,0,6
115712,note_off,,,,,0,0,6,,,76,0,5
115968,note_off,,,,,0,0,6,,,74,0,5
115968,note_off,,,,,256,0,7,,,74,0,6
115968,note_on,,,,,0,0,7,,,79,96,6
115968,note_off,,,,,256,0,6,,,74,0,5
115968,note_on,,,,,0,0,6,,,79,96,5
115968,note_on,,,,,0,0,6,,,79,96,5
116224,note_off,,,,,256,0,6,,,79,0,5
116224,note_off,,,,,0,0,7,,,66,0,6
116224,note_off,,,,,256,0,7,,,79,0,6
116224,note_on,,,,,0,0,7,,,78,96,6
116224,note_off,,,,,0,0,6,,,79,0,5
116224,note_on,,,,,0,0,6,,,78,96,5
116224,note_on,,,,,1024,0,5,,,79,96,4
116224,note_off,,,,,0,0,7,,,71,0,6
116224,note_on,,,,,0,0,7,,,69,96,6
116224,note_on,,,,,0,0,8,,,49,96,7
116224,note_off,,,,,512,0,8,,,47,0,7
116224,note_on,,,,,0,0,7,,,69,96,6
116224,note_on,,,,,0,0,6,,,78,96,5
116480,note_on,,,,,0,0,7,,,76,96,6
116480,note_on,,,,,0,0,6,,,76,96,5
116480,note_off,,,,,256,0,7,,,78,0,6
116480,note_off,,,,,0,0,6,,,78,0,5
116480,note_on,,,,,0,0,6,,,76,96,5
116480,note_off,,,,,256,0,6,,,78,0,5
116736,note_on,,,,,0,0,7,,,78,96,6
116736,note_off,,,,,0,0,7,,,69,0,6
116736,note_off,,,,,0,0,7,,,69,0,6
116736,note_on,,,,,0,0,7,,,69,96,6
116736,note_on,,,,,0,0,7,,,62,96,6
116736,note_off,,,,,256,0,7,,,76,0,6
116736,note_off,,,,,512,0,5,,,79,0,4
116736,note_on,,,,,0,0,6,,,78,96,5
116736,note_off,,,,,0,0,6,,,76,0,5
116736,note_on,,,,,0,0,6,,,78,96,5
116736,note_off,,,,,256,0,6,,,76,0,5
116736,note_off,,,,,512,0,8,,,49,0,7
116736,note_on,,,,,0,0,5,,,78,96,4
116736,note_on,,,,,0,0,8,,,50,96,7
116992,note_on,,,,,0,0,7,,,76,96,6
116992,note_off,,,,,256,0,7,,,78,0,6
116992,note_on,,,,,0,0,6,,,76,96,5
116992,note_off,,,,,256,0,6,,,78,0,5
116992,note_on,,,,,0,0,6,,,76,96,5
116992,note_off,,,,,256,0,5,,,78,0,4
116992,note_on,,,,,0,0,5,,,76,96,4
116992,note_off,,,,,0,0,6,,,78,0,5
117248,note_on,,,,,0,0,6,,,74,96,5
117248,note_off,,,,,0,0,6,,,76,0,5
117248,note_on,,,,,0,0,5,,,74,96,4
117248,note_off,,,,,256,0,5,,,76,0,4
117248,note_off,,,,,512,0,8,,,50,0,7
117248,note_off,,,,,256,0,6,,,76,0,5
117248,note_on,,,,,0,0,7,,,74,96,6
117248,note_off,,,,,0,0,7,,,69,0,6
117248,note_on,,,,,0,0,7,,,71,96,6
117248,note_off,,,,,0,0,7,,,62,0,6
117248,note_on,,,,,0,0,7,,,66,96,6
117248,note_on,,,,,0,0,6,,,74,96,5
117248,note_on,,,,,0,0,8,,,55,96,7
117248,note_off,,,,,256,0,7,,,76,0,6
117504,note_on,,,,,0,0,6,,,76,96,5
117504,note_off,,,,,0,0,6,,,74,0,5
117504,note_on,,,,,0,0,5,,,76,96,4
117504,note_on,,,,,0,0,6,,,76,96,5
117504,note_off,,,,,256,0,6,,,74,0,5
117504,note_on,,,,,0,0,7,,,76,96,6
117504,note_off,,,,,256,0,7,,,74,0,6
117504,note_off,,,,,256,0,5,,,74,0,4
117632,note_on,,,,,0,0,7,,,78,96,6
117632,note_on,,,,,0,0,6,,,78,96,5
117632,note_off,,,,,128,0,6,,,76,0,5
117632,note_on,,,,,0,0,6,,,78,96,5
117632,note_off,,,,,128,0,7,,,76,0,6
117632,note_off,,,,,0,0,6,,,76,0,5
117760,note_off,,,,,128,0,6,,,78,0,5
117760,note_on,,,,,0,0,6,,,73,96,5
117760,note_on,,,,,0,0,6,,,73,96,5
117760,note_off,,,,,512,0,8,,,55,0,7
117760,note_off,,,,,128,0,7,,,78,0,6
117760,note_on,,,,,0,0,7,,,64,96,6
117760,note_off,,,,,0,0,7,,,66,0,6
117760,note_on,,,,,0,0,7,,,69,96,6
117760,note_off,,,,,0,0,6,,,78,0,5
117760,note_off,,,,,0,0,7,,,71,0,6
117760,note_on,,,,,0,0,7,,,73,96,6
117760,note_on,,,,,0,0,8,,,57,96,7
117760,note_off,,,,,256,0,5,,,76,0,4
117760,note_on,,,,,0,0,5,,,73,96,4
118272,note_off,,,,,512,0,8,,,57,0,7
118272,note_on,,,,,0,0,8,,,45,96,7
118272,note_off,,,,,512,0,7,,,69,0,6
118272,note_on,,,,,0,0,7,,,69,96,6
118272,note_off,,,,,0,0,7,,,64,0,6
118272,note_on,,,,,0,0,7,,,64,96,6
118528,note_on,,,,,0,0,6,,,74,96,5
118528,note_off,,,,,256,0,7,,,73,0,6
118528,note_on,,,,,0,0,7,,,74,96,6
118528,note_on,,,,,0,0,6,,,74,96,5
118528,note_on,,,,,0,0,5,,,74,96,4
118528,note_off,,,,,768,0,5,,,73,0,4
118528,note_off,,,,,768,0,6,,,73,0,5
118528,note_off,,,,,0,0,6,,,73,0,5
118784,note_on,,,,,0,0,5,,,74,96,4
118784,note_off,,,,,512,0,8,,,45,0,7
118784,note_on,,,,,0,0,6,,,74,96,5
118784,note_on,,,,,0,0,6,,,74,96,5
118784,note_off,,,,,0,0,6,,,74,0,5
118784,note_on,,,,,0,0,5,,,69,96,4
118784,note_off,,,,,256,0,6,,,74,0,5
118784,note_off,,,,,256,0,5,,,74,0,4
118784,note_on,,,,,0,0,8,,,50,96,7
118784,note_off,,,,,0,0,7,,,69,0,6
118784,note_on,,,,,0,0,7,,,66,96,6
118784,note_on,,,,,0,0,7,,,69,96,6
118784,note_on,,,,,0,0,7,,,74,96,6
118784,note_off,,,,,256,0,7,,,74,0,6
118784,note_off,,,,,0,0,7,,,64,0,6
119040,note_off,,,,,0,0,6,,,74,0,5
119040,note_off,,,,,256,0,7,,,74,0,6
119040,note_on,,,,,0,0,7,,,79,96,6
119040,note_on,,,,,0,0,6,,,79,96,5
119040,note_on,,,,,0,0,6,,,79,96,5
119040,note_off,,,,,256,0,6,,,74,0,5
119296,note_off,,,,,0,0,6,,,79,0,5
119296,note_on,,,,,0,0,6,,,78,96,5
119296,note_on,,,,,0,0,6,,,78,96,5
119296,note_off,,,,,256,0,6,,,79,0,5
119296,note_on,,,,,0,0,7,,,67,96,6
119296,note_off,,,,,0,0,7,,,69,0,6
119296,note_off,,,,,256,0,7,,,79,0,6
119296,note_on,,,,,0,0,8,,,52,96,7
119296,note_off,,,,,0,0,8,,,50,0,7
119296,note_on,,,,,512,0,8,,,50,96,7
119296,note_on,,,,,0,0,5,,,69,96,4
119296,note_off,,,,,512,0,5,,,69,0,4
119296,note_on,,,,,0,0,7,,,78,96,6
119552,note_on,,,,,0,0,6,,,76,96,5
119552,note_on,,,,,0,0,8,,,50,96,7
119552,note_off,,,,,256,0,6,,,78,0,5
119552,note_on,,,,,0,0,6,,,76,96,5
119552,note_off,,,,,0,0,6,,,78,0,5
119552,note_on,,,,,0,0,7,,,76,96,6
119552,note_off,,,,,256,0,7,,,78,0,6
119552,note_off,,,,,256,0,8,,,50,0,7
119808,note_on,,,,,0,0,6,,,74,96,5
119808,note_on,,,,,0,0,5,,,74,96,4
119808,note_off,,,,,0,0,5,,,69,0,4
119808,note_off,,,,,512,0,5,,,74,0,4
119808,note_on,,,,,8192,0,3,,,66,96,2
119808,note_on,,,,,8192,0,2,,,69,96,1
119808,note_on,,,,,8192,0,1,,,74,96,0
119808,note_on,,,,,0,0,8,,,54,96,7
119808,note_on,,,,,0,0,7,,,66,96,6
119808,note_off,,,,,0,0,8,,,52,0,7
119808,note_on,,,,,0,0,6,,,74,96,5
119808,note_off,,,,,256,0,8,,,50,0,7
119808,note_on,,,,,0,0,8,,,50,96,7
119808,note_off,,,,,256,0,7,,,76,0,6
119808,note_on,,,,,0,0,7,,,74,96,6
119808,note_off,,,,,0,0,7,,,67,0,6
119808,note_on,,,,,0,0,7,,,69,96,6
119808,note_off,,,,,256,0,6,,,76,0,5
119808,note_off,,,,,0,0,6,,,76,0,5
119808,note_off,,,,,0,0,7,,,66,0,6
119808,note_on,,,,,8192,0,4,,,50,96,3
120064,note_off,,,,,256,0,7,,,74,0,6
120064,note_on,,,,,0,0,7,,,72,96,6
120064,note_off,,,,,0,0,6,,,74,0,5
120064,note_off,,,,,256,0,6,,,74,0,5
120064,note_on,,,,,0,0,6,,,72,96,5
120064,note_on,,,,,0,0,6,,,72,96,5
120320,note_on,,,,,0,0,8,,,50,96,7
120320,note_on,,,,,0,0,8,,,50,96,7
120320,note_off,,,,,512,0,8,,,50,0,7
120320,note_off,,,,,0,0,8,,,54,0,7
120320,note_on,,,,,0,0,5,,,78,96,4
120320,note_on,,,,,0,0,6,,,71,96,5
120320,note_on,,,,,512,0,5,,,74,96,4
120320,note_on,,,,,0,0,7,,,66,96,6
120320,note_off,,,,,0,0,7,,,69,0,6
120320,note_off,,,,,0,0,5,,,74,0,4
120320,note_off,,,,,256,0,7,,,72,0,6
120320,note_on,,,,,0,0,7,,,71,96,6
120320,note_off,,,,,256,0,6,,,72,0,5
120320,note_on,,,,,0,0,6,,,71,96,5
120320,note_off,,,,,0,0,6,,,72,0,5
120576,note_on,,,,,0,0,7,,,72,96,6
120576,note_off,,,,,256,0,6,,,71,0,5
120576,note_on,,,,,0,0,6,,,72,96,5
120576,note_off,,,,,0,0,6,,,71,0,5
120576,note_on,,,,,0,0,6,,,72,96,5
120576,note_off,,,,,256,0,7,,,71,0,6
120832,note_on,,,,,0,0,6,,,71,96,5
120832,note_on,,,,,0,0,6,,,71,96,5
120832,note_off,,,,,256,0,6,,,72,0,5
120832,note_off,,,,,256,0,7,,,72,0,6
120832,note_on,,,,,0,0,7,,,71,96,6
120832,note_off,,,,,0,0,7,,,66,0,6
120832,note_off,,,,,0,0,7,,,66,0,6
120832,note_on,,,,,0,0,7,,,67,96,6
120832,note_on,,,,,0,0,7,,,59,96,6
120832,note_off,,,,,512,0,8,,,50,0,7
120832,note_off,,,,,0,0,6,,,72,0,5
120832,note_on,,,,,0,0,8,,,43,96,7
120832,note_off,,,,,1024,0,3,,,66,0,2
120832,note_off,,,,,1024,0,1,,,74,0,0
120832,note_on,,,,,0,0,1,,,76,96,0
120832,note_off,,,,,0,0,5,,,78,0,4
120832,note_on,,,,,0,0,5,,,76,96,4
120832,note_on,,,,,0,0,3,,,59,96,2
120832,note_off,,,,,1024,0,2,,,69,0,1
120832,note_on,,,,,0,0,8,,,55,96,7
120832,note_off,,,,,512,0,5,,,74,0,4
120832,note_on,,,,,0,0,4,,,55,96,3
120832,note_off,,,,,1024,0,4,,,50,0,3
120832,note_on,,,,,0,0,2,,,71,96,1
120832,note_off,,,,,0,0,8,,,50,0,7
121088,note_off,,,,,256,0,6,,,71,0,5
121088,note_on,,,,,0,0,7,,,76,96,6
121088,note_on,,,,,0,0,6,,,76,96,5
121088,note_on,,,,,0,0,6,,,76,96,5
121088,note_off,,,,,0,0,6,,,71,0,5
121088,note_off,,,,,256,0,7,,,71,0,6
121344,note_off,,,,,0,0,8,,,55,0,7
121344,note_on,,,,,0,0,7,,,60,96,6
121344,note_on,,,,,0,0,5,,,76,96,4
121344,note_on,,,,,0,0,5,,,78,96,4
121344,note_off,,,,,256,0,7,,,76,0,6
121344,note_off,,,,,256,0,6,,,76,0,5
121344,note_on,,,,,0,0,6,,,74,96,5
121344,note_on,,,,,0,0,6,,,74,96,5
121344,note_off,,,,,0,0,6,,,76,0,5
121344,note_off,,,,,512,0,5,,,76,0,4
121344,note_off,,,,,0,0,7,,,67,0,6
121344,note_on,,,,,0,0,7,,,74,96,6
121344,note_off,,,,,512,0,8,,,43,0,7
121344,note_on,,,,,0,0,8,,,57,96,7
121344,note_on,,,,,0,0,4,,,57,96,3
121344,note_off,,,,,512,0,4,,,55,0,3
121344,note_on,,,,,0,0,3,,,60,96,2
121344,note_off,,,,,512,0,3,,,59,0,2
121344,note_off,,,,,0,0,7,,,59,0,6
121344,note_on,,,,,0,0,7,,,66,96,6
121600,note_on,,,,,0,0,7,,,72,96,6
121600,note_off,,,,,256,0,6,,,74,0,5
121600,note_on,,,,,0,0,6,,,72,96,5
121600,note_on,,,,,0,0,6,,,72,96,5
121600,note_off,,,,,0,0,6,,,74,0,5
121600,note_off,,,,,256,0,7,,,74,0,6
121856,note_on,,,,,0,0,4,,,59,96,3
121856,note_off,,,,,512,0,4,,,57,0,3
121856,note_off,,,,,256,0,7,,,72,0,6
121856,note_on,,,,,0,0,7,,,71,96,6
121856,note_off,,,,,0,0,7,,,60,0,6
121856,note_off,,,,,512,0,8,,,57,0,7
121856,note_off,,,,,512,0,3,,,60,0,2
121856,note_on,,,,,0,0,3,,,62,96,2
121856,note_on,,,,,0,0,8,,,59,96,7
121856,note_off,,,,,512,0,5,,,78,0,4
121856,note_off,,,,,0,0,5,,,76,0,4
121856,note_on,,,,,0,0,5,,,74,96,4
121856,note_on,,,,,0,0,1,,,74,96,0
121856,note_off,,,,,1024,0,1,,,76,0,0
121856,note_off,,,,,256,0,6,,,72,0,5
121856,note_on,,,,,0,0,6,,,71,96,5
121856,note_on,,,,,0,0,6,,,71,96,5
121856,note_off,,,,,0,0,6,,,72,0,5
121856,note_on,,,,,0,0,7,,,62,96,6
122112,note_on,,,,,0,0,6,,,69,96,5
122112,note_off,,,,,0,0,6,,,71,0,5
122112,note_on,,,,,0,0,6,,,69,96,5
122112,note_off,,,,,256,0,6,,,71,0,5
122112,note_off,,,,,256,0,7,,,71,0,6
122112,note_on,,,,,0,0,7,,,69,96,6
122368,note_off,,,,,256,0,7,,,69,0,6
122368,note_off,,,,,0,0,8,,,59,0,7
122368,note_on,,,,,0,0,8,,,50,96,7
122368,note_on,,,,,0,0,6,,,67,96,5
122368,note_on,,,,,0,0,6,,,67,96,5
122368,note_on,,,,,0,0,7,,,67,96,6
122368,note_off,,,,,0,0,6,,,69,0,5
122368,note_off,,,,,1536,0,2,,,71,0,1
122368,note_on,,,,,0,0,2,,,66,96,1
122368,note_on,,,,,512,0,8,,,50,96,7
122368,note_on,,,,,0,0,5,,,62,96,4
122368,note_off,,,,,256,0,6,,,69,0,5
122368,note_on,,,,,512,0,5,,,71,96,4
122368,note_off,,,,,0,0,7,,,66,0,6
122368,note_on,,,,,0,0,7,,,71,96,6
122368,note_off,,,,,0,0,5,,,74,0,4
122624,note_on,,,,,0,0,7,,,69,96,6
122624,note_off,,,,,256,0,7,,,67,0,6
122624,note_off,,,,,0,0,6,,,67,0,5
122624,note_on,,,,,0,0,6,,,69,96,5
122624,note_on,,,,,0,0,6,,,69,96,5
122624,note_off,,,,,256,0,6,,,67,0,5
122880,note_on,,,,,0,0,6,,,67,96,5
122880,note_on,,,,,0,0,6,,,67,96,5
122880,note_off,,,,,0,0,6,,,69,0,5
122880,note_off,,,,,1024,0,4,,,59,0,3
122880,note_on,,,,,0,0,1,,,72,96,0
122880,note_off,,,,,1024,0,1,,,74,0,0
122880,note_off,,,,,256,0,6,,,69,0,5
122880,note_on,,,,,0,0,4,,,52,96,3
122880,note_off,,,,,0,0,8,,,50,0,7
122880,note_on,,,,,0,0,7,,,55,96,6
122880,note_on,,,,,0,0,7,,,64,96,6
122880,note_on,,,,,0,0,7,,,67,96,6
122880,note_off,,,,,0,0,7,,,62,0,6
122880,note_off,,,,,1024,0,3,,,62,0,2
122880,note_on,,,,,0,0,3,,,55,96,2
122880,note_off,,,,,512,0,8,,,50,0,7
122880,note_off,,,,,0,0,7,,,71,0,6
122880,note_off,,,,,512,0,5,,,71,0,4
122880,note_off,,,,,0,0,5,,,62,0,4
122880,note_on,,,,,0,0,5,,,72,96,4
122880,note_off,,,,,512,0,2,,,66,0,1
122880,note_on,,,,,0,0,8,,,52,96,7
122880,note_off,,,,,256,0,7,,,69,0,6
122880,note_on,,,,,0,0,2,,,67,96,1
122880,note_on,,,,,0,0,8,,,43,96,7
123136,note_off,,,,,256,0,7,,,67,0,6
123136,note_on,,,,,0,0,7,,,72,96,6
123136,note_on,,,,,0,0,6,,,72,96,5
123136,note_off,,,,,0,0,6,,,67,0,5
123136,note_off,,,,,256,0,6,,,67,0,5
123136,note_on,,,,,0,0,6,,,72,96,5
123392,note_off,,,,,512,0,4,,,52,0,3
123392,note_on,,,,,0,0,4,,,54,96,3
123392,note_off,,,,,512,0,3,,,55,0,2
123392,note_on,,,,,0,0,3,,,57,96,2
123392,note_off,,,,,512,0,5,,,72,0,4
123392,note_on,,,,,0,0,5,,,74,96,4
123392,note_on,,,,,0,0,5,,,72,96,4
123392,note_off,,,,,512,0,8,,,43,0,7
123392,note_off,,,,,0,0,8,,,52,0,7
123392,note_on,,,,,0,0,8,,,54,96,7
123392,note_off,,,,,0,0,6,,,72,0,5
123392,note_off,,,,,0,0,7,,,64,0,6
123392,note_on,,,,,0,0,7,,,71,96,6
123392,note_on,,,,,0,0,6,,,71,96,5
123392,note_off,,,,,0,0,7,,,55,0,6
123392,note_on,,,,,0,0,7,,,57,96,6
123392,note_on,,,,,0,0,6,,,71,96,5
123392,note_off,,,,,256,0,6,,,72,0,5
123392,note_on,,,,,0,0,7,,,62,96,6
123392,note_off,,,,,256,0,7,,,72,0,6
123648,note_off,,,,,256,0,7,,,71,0,6
123648,note_off,,,,,256,0,6,,,71,0,5
123648,note_on,,,,,0,0,7,,,69,96,6
123648,note_off,,,,,0,0,6,,,71,0,5
123648,note_on,,,,,0,0,6,,,69,96,5
123648,note_on,,,,,0,0,6,,,69,96,5
123904,note_off,,,,,0,0,7,,,57,0,6
123904,note_on,,,,,0,0,7,,,59,96,6
123904,note_off,,,,,256,0,7,,,69,0,6
123904,note_off,,,,,1024,0,1,,,72,0,0
123904,note_off,,,,,512,0,5,,,74,0,4
123904,note_off,,,,,512,0,3,,,57,0,2
123904,note_on,,,,,0,0,3,,,59,96,2
123904,note_on,,,,,0,0,4,,,55,96,3
123904,note_off,,,,,512,0,4,,,54,0,3
123904,note_on,,,,,0,0,1,,,71,96,0
123904,note_off,,,,,512,0,8,,,54,0,7
123904,note_on,,,,,0,0,7,,,67,96,6
123904,note_off,,,,,0,0,6,,,69,0,5
123904,note_off,,,,,0,0,5,,,72,0,4
123904,note_on,,,,,0,0,5,,,71,96,4
123904,note_on,,,,,0,0,8,,,55,96,7
123904,note_off,,,,,256,0,6,,,69,0,5
123904,note_on,,,,,0,0,6,,,67,96,5
123904,note_on,,,,,0,0,6,,,67,96,5
124160,note_off,,,,,0,0,6,,,67,0,5
124160,note_off,,,,,256,0,7,,,67,0,6
124160,note_on,,,,,0,0,7,,,65,96,6
124160,note_on,,,,,0,0,6,,,65,96,5
124160,note_off,,,,,256,0,6,,,67,0,5
124160,note_on,,,,,0,0,6,,,65,96,5
124416,note_on,,,,,0,0,6,,,64,96,5
124416,note_on,,,,,0,0,6,,,64,96,5
124416,note_off,,,,,0,0,6,,,65,0,5
124416,note_off,,,,,256,0,6,,,65,0,5
124416,note_on,,,,,512,0,5,,,67,96,4
124416,note_off,,,,,512,0,8,,,55,0,7
124416,note_off,,,,,0,0,7,,,62,0,6
124416,note_on,,,,,0,0,7,,,64,96,6
124416,note_off,,,,,256,0,7,,,65,0,6
124416,note_on,,,,,0,0,2,,,62,96,1
124416,note_off,,,,,1536,0,2,,,67,0,1
124416,note_off,,,,,0,0,5,,,71,0,4
124416,note_on,,,,,0,0,8,,,47,96,7
124416,note_on,,,,,0,0,7,,,67,96,6
124416,note_on,,,,,0,0,5,,,59,96,4
124672,note_off,,,,,0,0,6,,,64,0,5
124672,note_on,,,,,0,0,7,,,65,96,6
124672,note_on,,,,,0,0,6,,,65,96,5
124672,note_on,,,,,0,0,6,,,65,96,5
124672,note_off,,,,,256,0,6,,,64,0,5
124672,note_off,,,,,256,0,7,,,64,0,6
124928,note_off,,,,,1024,0,4,,,55,0,3
124928,note_on,,,,,0,0,3,,,60,96,2
124928,note_off,,,,,1024,0,3,,,59,0,2
124928,note_off,,,,,512,0,5,,,67,0,4
124928,note_on,,,,,0,0,1,,,69,96,0
124928,note_off,,,,,0,0,6,,,65,0,5
124928,note_on,,,,,0,0,6,,,64,96,5
124928,note_on,,,,,0,0,6,,,64,96,5
124928,note_off,,,,,256,0,6,,,65,0,5
124928,note_on,,,,,0,0,5,,,69,96,4
124928,note_off,,,,,0,0,5,,,59,0,4
124928,note_on,,,,,0,0,4,,,48,96,3
124928,note_off,,,,,512,0,8,,,47,0,7
124928,note_off,,,,,1024,0,1,,,71,0,0
124928,note_off,,,,,0,0,7,,,59,0,6
124928,note_off,,,,,256,0,7,,,65,0,6
124928,note_on,,,,,0,0,7,,,64,96,6
124928,note_on,,,,,0,0,7,,,64,96,6
124928,note_off,,,,,0,0,7,,,67,0,6
124928,note_on,,,,,0,0,2,,,64,96,1
124928,note_off,,,,,512,0,2,,,62,0,1
124928,note_on,,,,,0,0,7,,,60,96,6
124928,note_on,,,,,0,0,8,,,48,96,7
125184,note_off,,,,,0,0,6,,,64,0,5
125184,note_off,,,,,256,0,5,,,69,0,4
125184,note_off,,,,,256,0,7,,,64,0,6
125184,note_on,,,,,0,0,6,,,67,96,5
125184,note_off,,,,,256,0,6,,,64,0,5
125184,note_on,,,,,0,0,6,,,67,96,5
125184,note_on,,,,,0,0,7,,,67,96,6
125184,note_on,,,,,0,0,5,,,71,96,4
125440,note_off,,,,,256,0,7,,,67,0,6
125440,note_on,,,,,0,0,7,,,66,96,6
125440,note_off,,,,,0,0,7,,,64,0,6
125440,note_off,,,,,512,0,8,,,48,0,7
125440,note_off,,,,,256,0,5,,,71,0,4
125440,note_on,,,,,0,0,7,,,60,96,6
125440,note_off,,,,,256,0,6,,,67,0,5
125440,note_on,,,,,0,0,6,,,66,96,5
125440,note_on,,,,,0,0,6,,,66,96,5
125440,note_off,,,,,0,0,6,,,67,0,5
125440,note_on,,,,,0,0,8,,,45,96,7
125440,note_on,,,,,0,0,5,,,69,96,4
125440,note_on,,,,,0,0,5,,,72,96,4
125696,note_off,,,,,256,0,7,,,66,0,6
125696,note_off,,,,,0,0,7,,,60,0,6
125696,note_off,,,,,0,0,6,,,66,0,5
125696,note_off,,,,,256,0,6,,,66,0,5
125696,note_on,,,,,0,0,6,,,67,96,5
125696,note_on,,,,,0,0,6,,,67,96,5
125696,note_on,,,,,0,0,7,,,59,96,6
125696,note_on,,,,,0,0,3,,,59,96,2
125696,note_off,,,,,768,0,3,,,60,0,2
125696,note_on,,,,,0,0,7,,,67,96,6
125824,note_off,,,,,128,0,6,,,67,0,5
125824,note_on,,,,,0,0,7,,,69,96,6
125824,note_off,,,,,128,0,7,,,67,0,6
125824,note_off,,,,,0,0,6,,,67,0,5
125824,note_on,,,,,0,0,6,,,69,96,5
125824,note_on,,,,,0,0,6,,,69,96,5
125952,note_on,,,,,0,0,7,,,66,96,6
125952,note_on,,,,,0,0,6,,,66,96,5
125952,note_on,,,,,0,0,6,,,66,96,5
125952,note_off,,,,,128,0,6,,,69,0,5
125952,note_off,,,,,0,0,7,,,59,0,6
125952,note_on,,,,,0,0,7,,,62,96,6
125952,note_off,,,,,512,0,5,,,69,0,4
125952,note_on,,,,,0,0,5,,,69,96,4
125952,note_on,,,,,0,0,7,,,57,96,6
125952,note_off,,,,,0,0,6,,,69,0,5
125952,note_off,,,,,128,0,7,,,69,0,6
125952,note_off,,,,,0,0,7,,,60,0,6
125952,note_on,,,,,0,0,3,,,57,96,2
125952,note_off,,,,,256,0,3,,,59,0,2
125952,note_off,,,,,1024,0,4,,,48,0,3
125952,note_on,,,,,0,0,4,,,50,96,3
125952,note_on,,,,,0,0,8,,,50,96,7
125952,note_off,,,,,0,0,8,,,45,0,7
125952,note_on,,,,,512,0,8,,,50,96,7
125952,note_on,,,,,0,0,2,,,62,96,1
125952,note_off,,,,,1024,0,2,,,64,0,1
126208,note_on,,,,,0,0,8,,,50,96,7
126208,note_off,,,,,256,0,8,,,50,0,7
126208,note_off,,,,,256,0,5,,,72,0,4
126208,note_on,,,,,0,0,5,,,71,96,4
126464,note_off,,,,,256,0,5,,,71,0,4
126464,note_on,,,,,0,0,5,,,69,96,4
126464,note_off,,,,,0,0,5,,,69,0,4
126464,note_on,,,,,0,0,5,,,62,96,4
126464,note_off,,,,,512,0,7,,,62,0,6
126464,note_on,,,,,0,0,7,,,62,96,6
126464,note_on,,,,,0,0,8,,,50,96,7
126464,note_off,,,,,0,0,8,,,50,0,7
126464,note_on,,,,,0,0,8,,,38,96,7
126464,note_off,,,,,256,0,8,,,50,0,7
126720,note_off,,,,,256,0,5,,,69,0,4
126720,note_on,,,,,0,0,7,,,67,96,6
126720,note_off,,,,,768,0,6,,,66,0,5
126720,note_on,,,,,0,0,6,,,67,96,5
126720,note_off,,,,,256,0,7,,,66,0,6
126720,note_off,,,,,0,0,6,,,66,0,5
126720,note_on,,,,,0,0,5,,,72,96,4
126720,note_on,,,,,0,0,6,,,67,96,5
126720,note_off,,,,,256,0,8,,,50,0,7
126720,note_on,,,,,0,0,8,,,50,96,7
126976,note_on,,,,,0,0,7,,,59,96,6
126976,note_off,,,,,0,0,5,,,62,0,4
126976,note_on,,,,,0,0,5,,,71,96,4
126976,note_on,,,,,0,0,7,,,62,96,6
126976,note_on,,,,,0,0,7,,,67,96,6
126976,note_off,,,,,0,0,7,,,57,0,6
126976,note_off,,,,,0,0,7,,,62,0,6
126976,note_off,,,,,256,0,7,,,67,0,6
126976,note_on,,,,,0,0,5,,,67,96,4
126976,note_off,,,,,256,0,5,,,72,0,4
126976,note_off,,,,,1024,0,3,,,57,0,2
126976,note_off,,,,,0,0,8,,,38,0,7
126976,note_on,,,,,0,0,8,,,43,96,7
126976,note_off,,,,,256,0,8,,,50,0,7
126976,note_on,,,,,0,0,8,,,43,96,7
126976,note_on,,,,,0,0,6,,,67,96,5
126976,note_on,,,,,0,0,6,,,67,96,5
126976,note_on,,,,,0,0,3,,,59,96,2
126976,note_off,,,,,256,0,6,,,67,0,5
126976,note_off,,,,,0,0,6,,,67,0,5
126976,note_off,,,,,1024,0,2,,,62,0,1
126976,note_on,,,,,0,0,1,,,67,96,0
126976,note_off,,,,,2048,0,1,,,69,0,0
126976,note_on,,,,,0,0,4,,,43,96,3
126976,note_off,,,,,1024,0,4,,,50,0,3
126976,note_on,,,,,0,0,2,,,62,96,1
127232,note_off,,,,,256,0,5,,,71,0,4
127232,note_on,,,,,0,0,5,,,72,96,4
127232,note_on,,,,,0,0,5,,,69,96,4
127232,note_off,,,,,0,0,5,,,67,0,4
127488,note_on,,,,,0,0,6,,,83,96,5
127488,note_off,,,,,0,0,5,,,69,0,4
127488,note_on,,,,,0,0,5,,,71,96,4
127488,note_off,,,,,256,0,5,,,72,0,4
127488,note_on,,,,,0,0,7,,,74,96,6
127488,note_off,,,,,0,0,7,,,59,0,6
127488,note_on,,,,,0,0,7,,,79,96,6
127488,note_off,,,,,0,0,6,,,67,0,5
127488,note_on,,,,,0,0,6,,,83,96,5
127488,note_off,,,,,512,0,7,,,67,0,6
127488,note_on,,,,,0,0,7,,,83,96,6
127488,note_off,,,,,0,0,7,,,62,0,6
127488,note_off,,,,,512,0,6,,,67,0,5
127488,note_on,,,,,0,0,5,,,67,96,4
127744,note_off,,,,,256,0,5,,,71,0,4
127744,note_off,,,,,0,0,5,,,67,0,4
127744,note_on,,,,,0,0,5,,,69,96,4
127744,note_on,,,,,0,0,5,,,72,96,4
128000,note_off,,,,,256,0,5,,,72,0,4
128000,note_on,,,,,0,0,5,,,74,96,4
128000,note_off,,,,,512,0,7,,,83,0,6
128000,note_on,,,,,0,0,7,,,79,96,6
128000,note_on,,,,,0,0,7,,,74,96,6
128000,note_off,,,,,0,0,5,,,69,0,4
128000,note_on,,,,,0,0,5,,,71,96,4
128000,note_off,,,,,0,0,8,,,43,0,7
128000,note_off,,,,,0,0,7,,,74,0,6
128000,note_off,,,,,0,0,7,,,79,0,6
128000,note_off,,,,,1024,0,8,,,43,0,7
128000,note_on,,,,,0,0,7,,,71,96,6
128000,note_off,,,,,0,0,6,,,83,0,5
128000,note_on,,,,,0,0,6,,,79,96,5
128000,note_on,,,,,0,0,6,,,79,96,5
128000,note_off,,,,,512,0,6,,,83,0,5
128256,note_on,,,,,0,0,5,,,72,96,4
128256,note_off,,,,,0,0,5,,,71,0,4
128256,note_on,,,,,0,0,5,,,76,96,4
128256,note_off,,,,,256,0,5,,,74,0,4
128512,note_on,,,,,0,0,5,,,71,96,4
128512,note_off,,,,,0,0,5,,,72,0,4
128512,note_on,,,,,0,0,5,,,74,96,4
128512,note_off,,,,,256,0,5,,,76,0,4
128512,note_off,,,,,512,0,7,,,79,0,6
128512,note_off,,,,,0,0,7,,,74,0,6
128512,note_on,,,,,0,0,7,,,74,96,6
128512,note_on,,,,,0,0,6,,,74,96,5
128512,note_off,,,,,0,0,7,,,71,0,6
128512,note_on,,,,,0,0,7,,,67,96,6
128512,note_off,,,,,0,0,6,,,79,0,5
128512,note_off,,,,,512,0,6,,,79,0,5
128512,note_on,,,,,0,0,7,,,71,96,6
128512,note_on,,,,,0,0,6,,,74,96,5
128768,note_on,,,,,0,0,5,,,72,96,4
128768,note_off,,,,,0,0,5,,,71,0,4
128768,note_off,,,,,256,0,5,,,74,0,4
128768,note_on,,,,,0,0,5,,,76,96,4
129024,note_on,,,,,1024,0,8,,,43,96,7
129024,note_off,,,,,0,0,6,,,74,0,5
129024,note_off,,,,,2048,0,2,,,62,0,1
129024,note_off,,,,,2048,0,1,,,67,0,0
129024,note_off,,,,,2048,0,3,,,59,0,2
129024,note_on,,,,,0,0,5,,,69,96,4
129024,note_off,,,,,512,0,6,,,74,0,5
129024,note_off,,,,,2048,0,4,,,43,0,3
129024,note_on,,,,,0,0,5,,,72,96,4
129024,note_off,,,,,0,0,5,,,72,0,4
129024,note_off,,,,,512,0,7,,,74,0,6
129024,note_off,,,,,256,0,5,,,76,0,4
129024,note_off,,,,,0,0,7,,,71,0,6
129024,note_off,,,,,0,0,7,,,67,0,6
129280,note_off,,,,,256,0,5,,,72,0,4
129280,note_off,,,,,0,0,5,,,69,0,4
129280,note_on,,,,,0,0,5,,,74,96,4
129280,note_on,,,,,0,0,5,,,71,96,4
129536,note_off,,,,,256,0,5,,,74,0,4
129536,note_on,,,,,0,0,5,,,72,96,4
129536,note_on,,,,,512,0,7,,,81,96,6
129536,note_on,,,,,0,0,5,,,69,96,4
129536,note_on,,,,,0,0,7,,,78,96,6
129536,note_on,,,,,0,0,7,,,72,96,6
129536,note_off,,,,,0,0,5,,,71,0,4
129536,note_on,,,,,0,0,6,,,81,96,5
129536,note_on,,,,,512,0,6,,,81,96,5
129792,note_on,,,,,0,0,5,,,74,96,4
129792,note_off,,,,,256,0,5,,,72,0,4
129792,note_off,,,,,0,0,5,,,69,0,4
129792,note_on,,,,,0,0,5,,,71,96,4
130048,note_off,,,,,256,0,5,,,74,0,4
130048,note_on,,,,,0,0,5,,,76,96,4
130048,note_off,,,,,0,0,5,,,71,0,4
130048,note_on,,,,,0,0,5,,,72,96,4
130048,note_off,,,,,512,0,7,,,81,0,6
130048,note_on,,,,,0,0,7,,,78,96,6
130048,note_off,,,,,1024,0,8,,,43,0,7
130048,note_on,,,,,0,0,7,,,72,96,6
130048,note_off,,,,,0,0,7,,,72,0,6
130048,note_on,,,,,0,0,7,,,69,96,6
130048,note_off,,,,,0,0,7,,,78,0,6
130048,note_off,,,,,0,0,6,,,81,0,5
130048,note_off,,,,,512,0,6,,,81,0,5
130048,note_on,,,,,0,0,6,,,78,96,5
130048,note_on,,,,,0,0,6,,,78,96,5
130304,note_on,,,,,0,0,5,,,74,96,4
130304,note_off,,,,,256,0,5,,,76,0,4
130304,note_on,,,,,0,0,5,,,78,96,4
130304,note_off,,,,,0,0,5,,,72,0,4
130560,note_off,,,,,0,0,6,,,78,0,5
130560,note_on,,,,,0,0,6,,,72,96,5
130560,note_on,,,,,0,0,6,,,72,96,5
130560,note_off,,,,,512,0,6,,,78,0,5
130560,note_off,,,,,0,0,7,,,69,0,6
130560,note_on,,,,,0,0,7,,,69,96,6
130560,note_on,,,,,0,0,5,,,76,96,4
130560,note_off,,,,,0,0,5,,,74,0,4
130560,note_on,,,,,0,0,5,,,72,96,4
130560,note_on,,,,,0,0,7,,,66,96,6
130560,note_off,,,,,512,0,7,,,78,0,6
130560,note_on,,,,,0,0,7,,,72,96,6
130560,note_off,,,,,0,0,7,,,72,0,6
130560,note_off,,,,,256,0,5,,,78,0,4
130816,note_off,,,,,256,0,5,,,76,0,4
130816,note_on,,,,,0,0,5,,,78,96,4
130816,note_off,,,,,0,0,5,,,72,0,4
130816,note_on,,,,,0,0,5,,,74,96,4
131072,note_on,,,,,1024,0,8,,,43,96,7
131072,note_on,,,,,0,0,8,,,43,96,7
131072,note_off,,,,,512,0,6,,,72,0,5
131072,note_off,,,,,0,0,6,,,72,0,5
131072,note_on,,,,,0,0,5,,,71,96,4
131072,note_on,,,,,0,0,5,,,74,96,4
131072,note_off,,,,,0,0,5,,,74,0,4
131072,note_off,,,,,256,0,5,,,78,0,4
131072,note_on,,,,,0,0,7,,,62,96,6
131072,note_on,,,,,0,0,7,,,71,96,6
131072,note_off,,,,,0,0,7,,,66,0,6
131072,note_off,,,,,0,0,7,,,69,0,6
131072,note_off,,,,,512,0,7,,,72,0,6
131328,note_on,,,,,256,0,7,,,79,96,6
131328,note_on,,,,,0,0,6,,,79,96,5
131328,note_on,,,,,256,0,6,,,79,96,5
131584,note_off,,,,,256,0,7,,,79,0,6
131584,note_on,,,,,0,0,8,,,62,96,7
131584,note_off,,,,,512,0,8,,,43,0,7
131584,note_on,,,,,0,0,7,,,59,96,6
131584,note_off,,,,,0,0,7,,,62,0,6
131584,note_off,,,,,256,0,6,,,79,0,5
131584,note_off,,,,,0,0,7,,,71,0,6
131584,note_on,,,,,0,0,7,,,78,96,6
131584,note_on,,,,,0,0,7,,,62,96,6
131584,note_on,,,,,0,0,6,,,78,96,5
131584,note_on,,,,,0,0,6,,,78,96,5
131584,note_off,,,,,0,0,6,,,79,0,5
131840,note_off,,,,,0,0,6,,,78,0,5
131840,note_on,,,,,0,0,6,,,76,96,5
131840,note_on,,,,,0,0,6,,,76,96,5
131840,note_off,,,,,256,0,6,,,78,0,5
131840,note_on,,,,,0,0,7,,,76,96,6
131840,note_off,,,,,256,0,7,,,78,0,6
132096,note_on,,,,,0,0,8,,,59,96,7
132096,note_off,,,,,0,0,8,,,62,0,7
132096,note_off,,,,,256,0,6,,,76,0,5
132096,note_on,,,,,0,0,6,,,74,96,5
132096,note_on,,,,,0,0,6,,,74,96,5
132096,note_off,,,,,512,0,8,,,43,0,7
132096,note_on,,,,,0,0,7,,,67,96,6
132096,note_on,,,,,0,0,7,,,62,96,6
132096,note_off,,,,,0,0,6,,,76,0,5
132096,note_off,,,,,0,0,7,,,59,0,6
132096,note_off,,,,,256,0,7,,,76,0,6
132096,note_on,,,,,0,0,7,,,74,96,6
132096,note_off,,,,,0,0,7,,,62,0,6
132352,note_on,,,,,0,0,7,,,72,96,6
132352,note_off,,,,,256,0,6,,,74,0,5
132352,note_off,,,,,0,0,6,,,74,0,5
132352,note_on,,,,,0,0,6,,,72,96,5
132352,note_on,,,,,0,0,6,,,72,96,5
132352,note_off,,,,,256,0,7,,,74,0,6
132608,note_off,,,,,0,0,7,,,62,0,6
132608,note_off,,,,,0,0,7,,,67,0,6
132608,note_on,,,,,0,0,7,,,71,96,6
132608,note_on,,,,,0,0,8,,,55,96,7
132608,note_on,,,,,0,0,7,,,67,96,6
132608,note_on,,,,,0,0,7,,,71,96,6
132608,note_off,,,,,256,0,7,,,72,0,6
132608,note_off,,,,,256,0,6,,,72,0,5
132608,note_on,,,,,0,0,6,,,71,96,5
132608,note_off,,,,,512,0,8,,,59,0,7
132608,note_off,,,,,0,0,6,,,72,0,5
132608,note_on,,,,,0,0,6,,,71,96,5
132864,note_on,,,,,0,0,6,,,72,96,5
132864,note_off,,,,,256,0,6,,,71,0,5
132864,note_on,,,,,0,0,6,,,72,96,5
132864,note_off,,,,,0,0,6,,,71,0,5
132864,note_on,,,,,0,0,7,,,72,96,6
132864,note_off,,,,,256,0,7,,,71,0,6
133120,note_off,,,,,256,0,7,,,72,0,6
133120,note_off,,,,,0,0,7,,,71,0,6
133120,note_off,,,,,0,0,7,,,67,0,6
133120,note_off,,,,,0,0,8,,,55,0,7
133120,note_on,,,,,0,0,8,,,50,96,7
133120,note_off,,,,,0,0,6,,,72,0,5
133120,note_on,,,,,0,0,6,,,71,96,5
133120,note_on,,,,,0,0,6,,,71,96,5
133120,note_off,,,,,256,0,6,,,72,0,5
133120,note_on,,,,,512,0,8,,,43,96,7
133120,note_on,,,,,0,0,7,,,71,96,6
133376,note_off,,,,,256,0,7,,,71,0,6
133376,note_on,,,,,0,0,7,,,76,96,6
133376,note_on,,,,,0,0,6,,,76,96,5
133376,note_on,,,,,0,0,6,,,76,96,5
133376,note_off,,,,,0,0,6,,,71,0,5
133376,note_off,,,,,256,0,6,,,71,0,5
133632,note_off,,,,,256,0,7,,,76,0,6
133632,note_on,,,,,0,0,7,,,74,96,6
133632,note_off,,,,,512,0,8,,,50,0,7
133632,note_on,,,,,0,0,7,,,62,96,6
133632,note_off,,,,,0,0,6,,,76,0,5
133632,note_on,,,,,0,0,6,,,74,96,5
133632,note_on,,,,,0,0,7,,,67,96,6
133632,note_off,,,,,256,0,6,,,76,0,5
133632,note_on,,,,,0,0,8,,,59,96,7
133632,note_on,,,,,0,0,6,,,74,96,5
133888,note_on,,,,,0,0,6,,,72,96,5
133888,note_off,,,,,0,0,6,,,74,0,5
133888,note_on,,,,,0,0,6,,,72,96,5
133888,note_off,,,,,256,0,6,,,74,0,5
133888,note_on,,,,,0,0,7,,,72,96,6
133888,note_off,,,,,256,0,7,,,74,0,6
134144,note_off,,,,,0,0,6,,,72,0,5
134144,note_on,,,,,0,0,6,,,71,96,5
134144,note_on,,,,,0,0,6,,,71,96,5
134144,note_off,,,,,256,0,6,,,72,0,5
134144,note_off,,,,,0,0,7,,,62,0,6
134144,note_on,,,,,0,0,7,,,67,96,6
134144,note_on,,,,,0,0,7,,,71,96,6
134144,note_on,,,,,0,0,7,,,71,96,6
134144,note_off,,,,,512,0,8,,,43,0,7
134144,note_off,,,,,0,0,8,,,59,0,7
134144,note_on,,,,,0,0,8,,,55,96,7
134144,note_off,,,,,256,0,7,,,72,0,6
134144,note_off,,,,,0,0,7,,,67,0,6
134400,note_on,,,,,0,0,7,,,69,96,6
134400,note_off,,,,,256,0,7,,,71,0,6
134400,note_off,,,,,256,0,6,,,71,0,5
134400,note_on,,,,,0,0,6,,,69,96,5
134400,note_on,,,,,0,0,6,,,69,96,5
134400,note_off,,,,,0,0,6,,,71,0,5
134656,note_off,,,,,256,0,6,,,69,0,5
134656,note_off,,,,,256,0,7,,,69,0,6
134656,note_off,,,,,0,0,6,,,69,0,5
134656,note_on,,,,,0,0,7,,,71,96,6
134656,note_off,,,,,0,0,7,,,67,0,6
134656,note_on,,,,,0,0,6,,,67,96,5
134656,note_off,,,,,512,0,8,,,55,0,7
134656,note_on,,,,,0,0,8,,,50,96,7
134656,note_on,,,,,0,0,7,,,74,96,6
134656,note_off,,,,,0,0,7,,,71,0,6
134656,note_on,,,,,0,0,7,,,67,96,6
134656,note_on,,,,,0,0,6,,,67,96,5
134912,note_off,,,,,256,0,7,,,67,0,6
134912,note_on,,,,,0,0,7,,,69,96,6
134912,note_on,,,,,0,0,6,,,69,96,5
134912,note_on,,,,,0,0,6,,,69,96,5
134912,note_off,,,,,256,0,6,,,67,0,5
134912,note_off,,,,,0,0,6,,,67,0,5
135168,note_off,,,,,256,0,6,,,69,0,5
135168,note_off,,,,,0,0,6,,,69,0,5
135168,note_on,,,,,0,0,6,,,67,96,5
135168,note_on,,,,,0,0,6,,,67,96,5
135168,note_off,,,,,0,0,7,,,71,0,6
135168,note_on,,,,,0,0,7,,,67,96,6
135168,note_off,,,,,0,0,7,,,74,0,6
135168,note_off,,,,,256,0,7,,,69,0,6
135168,note_off,,,,,512,0,8,,,50,0,7
135168,note_on,,,,,0,0,8,,,43,96,7
135168,note_on,,,,,0,0,8,,,47,96,7
135424,note_off,,,,,256,0,7,,,67,0,6
135424,note_off,,,,,0,0,6,,,67,0,5
135424,note_off,,,,,256,0,6,,,67,0,5
135424,note_on,,,,,0,0,6,,,72,96,5
135424,note_on,,,,,0,0,7,,,72,96,6
135424,note_on,,,,,0,0,6,,,72,96,5
135680,note_off,,,,,512,0,8,,,47,0,7
135680,note_on,,,,,0,0,8,,,55,96,7
135680,note_off,,,,,256,0,7,,,72,0,6
135680,note_on,,,,,0,0,7,,,71,96,6
135680,note_on,,,,,0,0,7,,,71,96,6
135680,note_off,,,,,256,0,6,,,72,0,5
135680,note_on,,,,,0,0,6,,,71,96,5
135680,note_on,,,,,0,0,6,,,71,96,5
135680,note_on,,,,,0,0,7,,,67,96,6
135680,note_off,,,,,0,0,6,,,72,0,5
135936,note_off,,,,,256,0,7,,,71,0,6
135936,note_on,,,,,0,0,7,,,69,96,6
135936,note_off,,,,,0,0,6,,,71,0,5
135936,note_on,,,,,0,0,6,,,69,96,5
135936,note_on,,,,,0,0,6,,,69,96,5
135936,note_off,,,,,256,0,6,,,71,0,5
136192,note_on,,,,,0,0,6,,,67,96,5
136192,note_off,,,,,256,0,6,,,69,0,5
136192,note_off,,,,,0,0,7,,,71,0,6
136192,note_off,,,,,0,0,7,,,67,0,6
136192,note_on,,,,,0,0,7,,,74,96,6
136192,note_on,,,,,0,0,8,,,50,96,7
136192,note_off,,,,,0,0,8,,,55,0,7
136192,note_off,,,,,512,0,8,,,43,0,7
136192,note_on,,,,,0,0,7,,,67,96,6
136192,note_off,,,,,256,0,7,,,69,0,6
136192,note_on,,,,,0,0,7,,,71,96,6
136192,note_off,,,,,0,0,6,,,69,0,5
136192,note_on,,,,,0,0,6,,,67,96,5
136448,note_on,,,,,0,0,6,,,65,96,5
136448,note_on,,,,,0,0,6,,,65,96,5
136448,note_off,,,,,0,0,6,,,67,0,5
136448,note_on,,,,,0,0,7,,,65,96,6
136448,note_off,,,,,256,0,7,,,67,0,6
136448,note_off,,,,,256,0,6,,,67,0,5
136704,note_on,,,,,0,0,7,,,74,96,6
136704,note_off,,,,,0,0,7,,,71,0,6
136704,note_on,,,,,0,0,7,,,79,96,6
136704,note_off,,,,,0,0,7,,,74,0,6
136704,note_on,,,,,0,0,7,,,64,96,6
136704,note_off,,,,,256,0,7,,,65,0,6
136704,note_on,,,,,0,0,8,,,47,96,7
136704,note_off,,,,,0,0,6,,,65,0,5
136704,note_on,,,,,0,0,6,,,64,96,5
136704,note_on,,,,,0,0,6,,,64,96,5
136704,note_off,,,,,256,0,6,,,65,0,5
136704,note_off,,,,,512,0,8,,,50,0,7
136960,note_on,,,,,0,0,6,,,65,96,5
136960,note_on,,,,,0,0,6,,,65,96,5
136960,note_off,,,,,256,0,6,,,64,0,5
136960,note_off,,,,,256,0,7,,,64,0,6
136960,note_on,,,,,0,0,7,,,65,96,6
136960,note_off,,,,,0,0,6,,,64,0,5
137216,note_off,,,,,256,0,7,,,65,0,6
137216,note_on,,,,,0,0,7,,,64,96,6
137216,note_off,,,,,0,0,7,,,79,0,6
137216,note_off,,,,,0,0,7,,,74,0,6
137216,note_on,,,,,0,0,5,,,72,96,4
137216,note_off,,,,,6144,0,5,,,74,0,4
137216,note_off,,,,,512,0,8,,,47,0,7
137216,note_on,,,,,0,0,8,,,43,96,7
137216,note_off,,,,,256,0,6,,,65,0,5
137216,note_on,,,,,0,0,6,,,64,96,5
137216,note_on,,,,,0,0,6,,,64,96,5
137216,note_off,,,,,0,0,6,,,65,0,5
137472,note_on,,,,,0,0,7,,,62,96,6
137472,note_off,,,,,256,0,7,,,64,0,6
137472,note_off,,,,,0,0,6,,,64,0,5
137472,note_on,,,,,0,0,6,,,62,96,5
137472,note_on,,,,,0,0,6,,,62,96,5
137472,note_off,,,,,256,0,6,,,64,0,5
137728,note_on,,,,,0,0,8,,,43,96,7
137728,note_on,,,,,0,0,7,,,60,96,6
137728,note_off,,,,,0,0,8,,,43,0,7
137728,note_on,,,,,512,0,8,,,43,96,7
137728,note_off,,,,,256,0,6,,,62,0,5
137728,note_on,,,,,0,0,6,,,64,96,5
137728,note_on,,,,,0,0,6,,,64,96,5
137728,note_off,,,,,0,0,6,,,62,0,5
137728,note_on,,,,,0,0,7,,,64,96,6
137728,note_off,,,,,256,0,7,,,62,0,6
137728,note_on,,,,,0,0,7,,,67,96,6
137984,note_on,,,,,0,0,7,,,67,96,6
137984,note_off,,,,,256,0,7,,,64,0,6
137984,note_on,,,,,0,0,6,,,67,96,5
137984,note_on,,,,,0,0,6,,,67,96,5
137984,note_off,,,,,0,0,6,,,64,0,5
137984,note_off,,,,,256,0,6,,,64,0,5
138240,note_on,,,,,0,0,7,,,72,96,6
138240,note_off,,,,,256,0,7,,,67,0,6
138240,note_on,,,,,0,0,7,,,66,96,6
138240,note_off,,,,,0,0,7,,,67,0,6
138240,note_on,,,,,0,0,7,,,69,96,6
138240,note_off,,,,,0,0,7,,,60,0,6
138240,note_on,,,,,0,0,6,,,66,96,5
138240,note_off,,,,,1024,0,5,,,71,0,4
138240,note_on,,,,,0,0,5,,,69,96,4
138240,note_off,,,,,0,0,8,,,43,0,7
138240,note_on,,,,,0,0,8,,,43,96,7
138240,note_off,,,,,512,0,8,,,43,0,7
138240,note_on,,,,,0,0,8,,,43,96,7
138240,note_off,,,,,256,0,6,,,67,0,5
138240,note_on,,,,,0,0,6,,,66,96,5
138240,note_off,,,,,0,0,6,,,67,0,5
138496,note_off,,,,,256,0,6,,,66,0,5
138496,note_on,,,,,0,0,7,,,64,96,6
138496,note_on,,,,,0,0,6,,,64,96,5
138496,note_on,,,,,0,0,6,,,64,96,5
138496,note_off,,,,,0,0,6,,,66,0,5
138496,note_off,,,,,256,0,7,,,66,0,6
138752,note_off,,,,,0,0,8,,,43,0,7
138752,note_on,,,,,0,0,8,,,43,96,7
138752,note_on,,,,,0,0,6,,,66,96,5
138752,note_on,,,,,0,0,7,,,72,96,6
138752,note_on,,,,,0,0,7,,,66,96,6
138752,note_off,,,,,0,0,7,,,69,0,6
138752,note_on,,,,,0,0,8,,,43,96,7
138752,note_off,,,,,0,0,7,,,72,0,6
138752,note_on,,,,,0,0,7,,,69,96,6
138752,note_off,,,,,256,0,6,,,64,0,5
138752,note_on,,,,,0,0,6,,,66,96,5
138752,note_off,,,,,0,0,6,,,64,0,5
138752,note_off,,,,,256,0,7,,,64,0,6
138752,note_off,,,,,512,0,8,,,43,0,7
139008,note_off,,,,,0,0,6,,,66,0,5
139008,note_on,,,,,0,0,6,,,69,96,5
139008,note_on,,,,,0,0,6,,,69,96,5
139008,note_off,,,,,256,0,6,,,66,0,5
139008,note_on,,,,,0,0,7,,,69,96,6
139008,note_off,,,,,256,0,7,,,66,0,6
139264,note_off,,,,,0,0,8,,,43,0,7
139264,note_on,,,,,0,0,5,,,67,96,4
139264,note_on,,,,,0,0,5,,,71,96,4
139264,note_off,,,,,0,0,5,,,69,0,4
139264,note_off,,,,,0,0,7,,,69,0,6
139264,note_off,,,,,0,0,7,,,72,0,6
139264,note_off,,,,,256,0,7,,,69,0,6
139264,note_off,,,,,0,0,6,,,69,0,5
139264,note_on,,,,,0,0,6,,,62,96,5
139264,note_off,,,,,1024,0,5,,,72,0,4
139264,note_on,,,,,0,0,8,,,43,96,7
139264,note_on,,,,,0,0,8,,,43,96,7
139264,note_off,,,,,256,0,6,,,69,0,5
139264,note_off,,,,,512,0,8,,,43,0,7
139520,note_on,,,,,256,0,7,,,76,96,6
139520,note_on,,,,,0,0,7,,,72,96,6
139776,note_off,,,,,512,0,6,,,62,0,5
139776,note_off,,,,,512,0,5,,,71,0,4
139776,note_on,,,,,0,0,5,,,62,96,4
139776,note_off,,,,,0,0,7,,,72,0,6
139776,note_on,,,,,0,0,7,,,71,96,6
139776,note_on,,,,,0,0,7,,,74,96,6
139776,note_off,,,,,256,0,7,,,76,0,6
140032,note_on,,,,,0,0,7,,,72,96,6
140032,note_off,,,,,256,0,7,,,74,0,6
140032,note_on,,,,,0,0,7,,,69,96,6
140032,note_off,,,,,0,0,7,,,71,0,6
140288,note_off,,,,,0,0,5,,,67,0,4
140288,note_on,,,,,0,0,5,,,67,96,4
140288,note_off,,,,,512,0,5,,,62,0,4
140288,note_off,,,,,256,0,7,,,72,0,6
140288,note_on,,,,,0,0,7,,,71,96,6
140288,note_off,,,,,0,0,8,,,43,0,7
140288,note_off,,,,,0,0,7,,,69,0,6
140288,note_on,,,,,0,0,7,,,67,96,6
140288,note_off,,,,,1024,0,8,,,43,0,7
140544,note_off,,,,,0,0,7,,,67,0,6
140544,note_on,,,,,0,0,7,,,69,96,6
140544,note_off,,,,,256,0,7,,,71,0,6
140544,note_on,,,,,0,0,7,,,64,96,6
140800,note_off,,,,,256,0,7,,,69,0,6
140800,note_on,,,,,0,0,7,,,67,96,6
140800,note_off,,,,,0,0,7,,,64,0,6
140800,note_on,,,,,0,0,7,,,62,96,6
140800,note_off,,,,,512,0,5,,,67,0,4
140800,note_on,,,,,0,0,5,,,69,96,4
141056,note_on,,,,,0,0,7,,,60,96,6
141056,note_off,,,,,256,0,7,,,67,0,6
141056,note_on,,,,,0,0,7,,,66,96,6
141056,note_off,,,,,0,0,7,,,62,0,6
141312,note_off,,,,,512,0,5,,,69,0,4
141312,note_on,,,,,0,0,5,,,71,96,4
141312,note_off,,,,,0,0,7,,,60,0,6
141312,note_on,,,,,0,0,7,,,59,96,6
141312,note_off,,,,,256,0,7,,,66,0,6
141312,note_on,,,,,0,0,8,,,43,96,7
141312,note_on,,,,,1024,0,8,,,43,96,7
141312,note_on,,,,,0,0,7,,,67,96,6
141568,note_on,,,,,1792,0,6,,,69,96,5
141568,note_off,,,,,256,0,5,,,71,0,4
141568,note_on,,,,,0,0,5,,,69,96,4
141824,note_on,,,,,0,0,6,,,71,96,5
141824,note_off,,,,,256,0,5,,,69,0,4
141824,note_off,,,,,256,0,6,,,69,0,5
141824,note_on,,,,,0,0,5,,,67,96,4
141824,note_on,,,,,0,0,5,,,62,96,4
142080,note_off,,,,,256,0,5,,,67,0,4
142080,note_on,,,,,0,0,5,,,69,96,4
142080,note_on,,,,,0,0,6,,,72,96,5
142080,note_off,,,,,256,0,6,,,71,0,5
142336,note_off,,,,,1024,0,7,,,67,0,6
142336,note_off,,,,,0,0,8,,,43,0,7
142336,note_off,,,,,1024,0,8,,,43,0,7
142336,note_on,,,,,0,0,5,,,67,96,4
142336,note_off,,,,,0,0,5,,,62,0,4
142336,note_off,,,,,256,0,5,,,69,0,4
142336,note_on,,,,,0,0,6,,,74,96,5
142336,note_off,,,,,256,0,6,,,72,0,5
142336,note_on,,,,,0,0,5,,,71,96,4
142336,note_off,,,,,0,0,7,,,59,0,6
142592,note_on,,,,,0,0,6,,,79,96,5
142592,note_off,,,,,256,0,6,,,74,0,5
142592,note_on,,,,,0,0,5,,,74,96,4
142592,note_off,,,,,256,0,5,,,71,0,4
142848,note_off,,,,,0,0,5,,,67,0,4
142848,note_on,,,,,0,0,5,,,72,96,4
142848,note_off,,,,,256,0,5,,,74,0,4
142848,note_on,,,,,0,0,6,,,78,96,5
142848,note_off,,,,,256,0,6,,,79,0,5
142848,note_on,,,,,0,0,5,,,69,96,4
143104,note_on,,,,,0,0,6,,,81,96,5
143104,note_on,,,,,0,0,5,,,76,96,4
143104,note_off,,,,,256,0,5,,,72,0,4
143104,note_off,,,,,256,0,6,,,78,0,5
143360,note_on,,,,,0,0,5,,,71,96,4
143360,note_on,,,,,0,0,6,,,79,96,5
143360,note_off,,,,,256,0,6,,,81,0,5
143360,note_on,,,,,1024,0,8,,,43,96,7
143360,note_on,,,,,0,0,5,,,74,96,4
143360,note_on,,,,,0,0,8,,,43,96,7
143360,note_off,,,,,0,0,5,,,69,0,4
143360,note_off,,,,,256,0,5,,,76,0,4
143616,note_on,,,,,0,0,5,,,72,96,4
143616,note_off,,,,,0,0,5,,,71,0,4
143616,note_off,,,,,256,0,5,,,74,0,4
143616,note_on,,,,,0,0,5,,,69,96,4
143872,note_on,,,,,0,0,5,,,67,96,4
143872,note_off,,,,,512,0,6,,,79,0,5
143872,note_on,,,,,0,0,6,,,62,96,5
143872,note_off,,,,,256,0,5,,,72,0,4
143872,note_on,,,,,0,0,5,,,71,96,4
143872,note_on,,,,,1536,0,7,,,62,96,6
143872,note_off,,,,,0,0,5,,,69,0,4
143872,note_on,,,,,0,0,6,,,62,96,5
144128,note_on,,,,,0,0,5,,,69,96,4
144128,note_off,,,,,0,0,5,,,67,0,4
144128,note_on,,,,,0,0,5,,,72,96,4
144128,note_off,,,,,256,0,5,,,71,0,4
144384,note_on,,,,,0,0,7,,,67,96,6
144384,note_off,,,,,0,0,8,,,43,0,7
144384,note_off,,,,,256,0,5,,,72,0,4
144384,note_off,,,,,1024,0,8,,,43,0,7
144384,note_off,,,,,0,0,5,,,69,0,4
144384,note_on,,,,,0,0,5,,,74,96,4
144384,note_on,,,,,0,0,5,,,71,96,4
144384,note_off,,,,,512,0,7,,,62,0,6
144384,note_off,,,,,512,0,6,,,62,0,5
144384,note_on,,,,,0,0,6,,,67,96,5
144384,note_on,,,,,0,0,6,,,67,96,5
144384,note_off,,,,,0,0,6,,,62,0,5
144640,note_on,,,,,0,0,5,,,74,96,4
144640,note_off,,,,,256,0,5,,,71,0,4
144896,note_on,,,,,0,0,6,,,69,96,5
144896,note_on,,,,,0,0,6,,,69,96,5
144896,note_off,,,,,0,0,6,,,67,0,5
144896,note_off,,,,,512,0,7,,,67,0,6
144896,note_on,,,,,0,0,7,,,69,96,6
144896,note_off,,,,,512,0,6,,,67,0,5
144896,note_off,,,,,0,0,5,,,74,0,4
144896,note_on,,,,,0,0,5,,,72,96,4
144896,note_on,,,,,0,0,5,,,78,96,4
144896,note_off,,,,,256,0,5,,,74,0,4
145152,note_on,,,,,0,0,5,,,76,96,4
145152,note_off,,,,,256,0,5,,,72,0,4
145408,note_on,,,,,0,0,5,,,74,96,4
145408,note_off,,,,,0,0,5,,,76,0,4
145408,note_on,,,,,0,0,5,,,79,96,4
145408,note_off,,,,,256,0,5,,,78,0,4
145408,note_off,,,,,512,0,7,,,69,0,6
145408,note_on,,,,,0,0,6,,,71,96,5
145408,note_off,,,,,0,0,6,,,69,0,5
145408,note_off,,,,,512,0,6,,,69,0,5
145408,note_on,,,,,0,0,6,,,71,96,5
145408,note_on,,,,,0,0,7,,,71,96,6
145664,note_off,,,,,0,0,6,,,71,0,5
145664,note_on,,,,,0,0,7,,,69,96,6
145664,note_on,,,,,0,0,6,,,69,96,5
145664,note_on,,,,,0,0,6,,,69,96,5
145664,note_off,,,,,256,0,6,,,71,0,5
145664,note_off,,,,,256,0,5,,,74,0,4
145664,note_on,,,,,0,0,5,,,72,96,4
145664,note_off,,,,,256,0,7,,,71,0,6
145920,note_on,,,,,0,0,5,,,71,96,4
145920,note_off,,,,,0,0,5,,,72,0,4
145920,note_on,,,,,0,0,7,,,66,96,6
145920,note_on,,,,,0,0,6,,,67,96,5
145920,note_on,,,,,0,0,7,,,62,96,6
145920,note_off,,,,,256,0,7,,,69,0,6
145920,note_off,,,,,256,0,6,,,69,0,5
145920,note_on,,,,,0,0,6,,,67,96,5
145920,note_off,,,,,0,0,6,,,69,0,5
145920,note_on,,,,,0,0,5,,,74,96,4
145920,note_off,,,,,256,0,5,,,79,0,4
145920,note_on,,,,,1536,0,8,,,50,96,7
145920,note_on,,,,,0,0,8,,,50,96,7
145920,note_on,,,,,0,0,7,,,67,96,6
146176,note_on,,,,,0,0,7,,,69,96,6
146176,note_off,,,,,256,0,6,,,67,0,5
146176,note_on,,,,,0,0,6,,,69,96,5
146176,note_off,,,,,0,0,6,,,67,0,5
146176,note_on,,,,,0,0,6,,,69,96,5
146176,note_on,,,,,0,0,5,,,69,96,4
146176,note_off,,,,,0,0,5,,,71,0,4
146176,note_on,,,,,0,0,5,,,72,96,4
146176,note_off,,,,,256,0,5,,,74,0,4
146176,note_off,,,,,256,0,7,,,67,0,6
146432,note_on,,,,,0,0,5,,,71,96,4
146432,note_off,,,,,0,0,5,,,69,0,4
146432,note_on,,,,,0,0,5,,,67,96,4
146432,note_on,,,,,0,0,8,,,43,96,7
146432,note_off,,,,,256,0,7,,,69,0,6
146432,note_on,,,,,0,0,7,,,71,96,6
146432,note_off,,,,,256,0,5,,,72,0,4
146432,note_off,,,,,0,0,7,,,66,0,6
146432,note_off,,,,,0,0,7,,,62,0,6
146432,note_on,,,,,0,0,7,,,62,96,6
146432,note_off,,,,,0,0,6,,,69,0,5
146432,note_on,,,,,0,0,6,,,71,96,5
146432,note_on,,,,,0,0,7,,,67,96,6
146432,note_off,,,,,256,0,6,,,69,0,5
146432,note_on,,,,,0,0,6,,,71,96,5
146432,note_off,,,,,512,0,8,,,50,0,7
146432,note_on,,,,,0,0,8,,,55,96,7
146432,note_off,,,,,0,0,8,,,50,0,7
146688,note_on,,,,,0,0,7,,,72,96,6
146688,note_off,,,,,256,0,5,,,71,0,4
146688,note_on,,,,,0,0,5,,,72,96,4
146688,note_off,,,,,256,0,7,,,71,0,6
146688,note_off,,,,,256,0,6,,,71,0,5
146688,note_on,,,,,0,0,6,,,72,96,5
146688,note_on,,,,,0,0,6,,,72,96,5
146688,note_off,,,,,0,0,6,,,71,0,5
146944,note_on,,,,,0,0,8,,,57,96,7
146944,note_on,,,,,0,0,5,,,71,96,4
146944,note_off,,,,,512,0,8,,,43,0,7
146944,note_off,,,,,256,0,5,,,72,0,4
146944,note_off,,,,,256,0,7,,,72,0,6
146944,note_on,,,,,0,0,7,,,71,96,6
146944,note_off,,,,,0,0,7,,,67,0,6
146944,note_on,,,,,0,0,7,,,66,96,6
146944,note_off,,,,,0,0,7,,,62,0,6
146944,note_on,,,,,0,0,7,,,60,96,6
146944,note_off,,,,,0,0,8,,,55,0,7
146944,note_on,,,,,0,0,8,,,50,96,7
146944,note_on,,,,,0,0,6,,,71,96,5
146944,note_off,,,,,0,0,5,,,67,0,4
146944,note_on,,,,,0,0,5,,,62,96,4
146944,note_off,,,,,256,0,6,,,72,0,5
146944,note_off,,,,,0,0,6,,,72,0,5
146944,note_on,,,,,0,0,6,,,71,96,5
147200,note_off,,,,,256,0,5,,,71,0,4
147200,note_on,,,,,0,0,5,,,72,96,4
147200,note_on,,,,,0,0,6,,,72,96,5
147200,note_off,,,,,256,0,7,,,71,0,6
147200,note_on,,,,,0,0,7,,,72,96,6
147200,note_off,,,,,256,0,6,,,71,0,5
147200,note_off,,,,,0,0,6,,,71,0,5
147200,note_on,,,,,0,0,6,,,72,96,5
147456,note_on,,,,,0,0,6,,,74,96,5
147456,note_off,,,,,256,0,6,,,72,0,5
147456,note_on,,,,,0,0,6,,,74,96,5
147456,note_off,,,,,0,0,6,,,72,0,5
147456,note_on,,,,,0,0,8,,,43,96,7
147456,note_on,,,,,0,0,7,,,74,96,6
147456,note_off,,,,,256,0,5,,,72,0,4
147456,note_off,,,,,0,0,5,,,62,0,4
147456,note_off,,,,,0,0,8,,,57,0,7
147456,note_on,,,,,0,0,8,,,59,96,7
147456,note_off,,,,,256,0,7,,,72,0,6
147456,note_off,,,,,0,0,7,,,66,0,6
147456,note_off,,,,,0,0,7,,,60,0,6
147456,note_off,,,,,512,0,8,,,50,0,7
147456,note_on,,,,,0,0,7,,,67,96,6
147456,note_on,,,,,0,0,7,,,59,96,6
147456,note_on,,,,,0,0,5,,,67,96,4
147456,note_on,,,,,0,0,5,,,74,96,4
147712,note_on,,,,,0,0,7,,,79,96,6
147712,note_off,,,,,0,0,6,,,74,0,5
147712,note_on,,,,,0,0,6,,,79,96,5
147712,note_on,,,,,0,0,6,,,79,96,5
147712,note_off,,,,,256,0,6,,,74,0,5
147712,note_off,,,,,256,0,7,,,74,0,6
147968,note_on,,,,,0,0,7,,,78,96,6
147968,note_off,,,,,0,0,5,,,67,0,4
147968,note_on,,,,,0,0,8,,,60,96,7
147968,note_off,,,,,0,0,8,,,59,0,7
147968,note_off,,,,,512,0,8,,,43,0,7
147968,note_on,,,,,0,0,7,,,57,96,6
147968,note_off,,,,,0,0,7,,,59,0,6
147968,note_off,,,,,512,0,5,,,74,0,4
147968,note_off,,,,,256,0,7,,,79,0,6
147968,note_off,,,,,256,0,6,,,79,0,5
147968,note_on,,,,,0,0,6,,,78,96,5
147968,note_on,,,,,0,0,6,,,78,96,5
147968,note_off,,,,,0,0,6,,,79,0,5
148224,note_on,,,,,0,0,7,,,76,96,6
148224,note_off,,,,,256,0,7,,,78,0,6
148224,note_off,,,,,256,0,6,,,78,0,5
148224,note_on,,,,,0,0,6,,,76,96,5
148224,note_off,,,,,0,0,6,,,78,0,5
148224,note_on,,,,,0,0,6,,,76,96,5
148480,note_off,,,,,256,0,6,,,76,0,5
148480,note_on,,,,,0,0,6,,,74,96,5
148480,note_on,,,,,0,0,6,,,74,96,5
148480,note_off,,,,,0,0,6,,,76,0,5
148480,note_on,,,,,0,0,7,,,57,96,6
148480,note_off,,,,,0,0,7,,,57,0,6
148480,note_off,,,,,512,0,8,,,60,0,7
148480,note_on,,,,,0,0,8,,,62,96,7
148480,note_off,,,,,256,0,7,,,76,0,6
148480,note_on,,,,,0,0,7,,,74,96,6
148736,note_off,,,,,256,0,7,,,74,0,6
148736,note_off,,,,,0,0,6,,,74,0,5
148736,note_off,,,,,256,0,6,,,74,0,5
148736,note_on,,,,,0,0,6,,,72,96,5
148736,note_on,,,,,0,0,7,,,72,96,6
148736,note_on,,,,,0,0,6,,,72,96,5
148992,note_on,,,,,1024,0,5,,,78,96,4
148992,note_on,,,,,0,0,6,,,71,96,5
148992,note_on,,,,,0,0,6,,,71,96,5
148992,note_off,,,,,256,0,6,,,72,0,5
148992,note_on,,,,,0,0,5,,,69,96,4
148992,note_off,,,,,256,0,7,,,72,0,6
148992,note_on,,,,,0,0,7,,,71,96,6
148992,note_off,,,,,0,0,7,,,67,0,6
148992,note_on,,,,,0,0,7,,,66,96,6
148992,note_off,,,,,0,0,7,,,57,0,6
148992,note_on,,,,,0,0,8,,,50,96,7
148992,note_off,,,,,0,0,8,,,62,0,7
148992,note_on,,,,,512,0,8,,,50,96,7
148992,note_on,,,,,0,0,7,,,62,96,6
148992,note_off,,,,,0,0,6,,,72,0,5
149248,note_off,,,,,256,0,7,,,71,0,6
149248,note_on,,,,,0,0,7,,,72,96,6
149248,note_off,,,,,256,0,6,,,71,0,5
149248,note_on,,,,,0,0,6,,,72,96,5
149248,note_off,,,,,0,0,6,,,71,0,5
149248,note_on,,,,,0,0,6,,,72,96,5
149504,note_off,,,,,256,0,7,,,72,0,6
149504,note_off,,,,,256,0,6,,,72,0,5
149504,note_on,,,,,0,0,6,,,71,96,5
149504,note_on,,,,,0,0,6,,,71,96,5
149504,note_off,,,,,0,0,6,,,72,0,5
149504,note_on,,,,,0,0,8,,,55,96,7
149504,note_off,,,,,0,0,8,,,50,0,7
149504,note_on,,,,,0,0,8,,,43,96,7
149504,note_off,,,,,512,0,8,,,50,0,7
149504,note_off,,,,,0,0,5,,,69,0,4
149504,note_on,,,,,0,0,5,,,79,96,4
149504,note_off,,,,,512,0,5,,,78,0,4
149504,note_on,,,,,0,0,7,,,71,96,6
149504,note_on,,,,,0,0,5,,,71,96,4
149760,note_on,,,,,0,0,6,,,76,96,5
149760,note_off,,,,,0,0,6,,,71,0,5
149760,note_on,,,,,0,0,6,,,76,96,5
149760,note_off,,,,,256,0,6,,,71,0,5
149760,note_off,,,,,256,0,7,,,71,0,6
149760,note_on,,,,,0,0,7,,,76,96,6
150016,note_off,,,,,512,0,8,,,43,0,7
150016,note_off,,,,,0,0,8,,,55,0,7
150016,note_on,,,,,0,0,8,,,57,96,7
150016,note_off,,,,,0,0,6,,,76,0,5
150016,note_on,,,,,0,0,6,,,74,96,5
150016,note_off,,,,,256,0,6,,,76,0,5
150016,note_off,,,,,512,0,5,,,79,0,4
150016,note_off,,,,,0,0,5,,,71,0,4
150016,note_off,,,,,256,0,7,,,76,0,6
150016,note_on,,,,,0,0,7,,,74,96,6
150016,note_on,,,,,0,0,6,,,74,96,5
150016,note_on,,,,,0,0,7,,,64,96,6
150016,note_off,,,,,0,0,7,,,62,0,6
150016,note_on,,,,,0,0,7,,,57,96,6
150016,note_off,,,,,0,0,7,,,66,0,6
150272,note_off,,,,,256,0,6,,,74,0,5
150272,note_on,,,,,0,0,6,,,72,96,5
150272,note_on,,,,,0,0,6,,,72,96,5
150272,note_off,,,,,0,0,6,,,74,0,5
150272,note_on,,,,,0,0,7,,,72,96,6
150272,note_off,,,,,256,0,7,,,74,0,6
150528,note_off,,,,,256,0,7,,,72,0,6
150528,note_off,,,,,0,0,6,,,72,0,5
150528,note_on,,,,,0,0,8,,,59,96,7
150528,note_off,,,,,512,0,8,,,57,0,7
150528,note_on,,,,,0,0,7,,,54,96,6
150528,note_off,,,,,0,0,7,,,57,0,6
150528,note_on,,,,,0,0,7,,,71,96,6
150528,note_on,,,,,0,0,6,,,71,96,5
150528,note_off,,,,,256,0,6,,,72,0,5
150528,note_on,,,,,0,0,6,,,71,96,5
150784,note_on,,,,,0,0,6,,,69,96,5
150784,note_off,,,,,256,0,7,,,71,0,6
150784,note_on,,,,,0,0,7,,,69,96,6
150784,note_off,,,,,256,0,6,,,71,0,5
150784,note_on,,,,,0,0,6,,,69,96,5
150784,note_off,,,,,0,0,6,,,71,0,5
151040,note_on,,,,,0,0,7,,,59,96,6
151040,note_off,,,,,256,0,7,,,69,0,6
151040,note_off,,,,,0,0,6,,,69,0,5
151040,note_off,,,,,256,0,6,,,69,0,5
151040,note_on,,,,,0,0,6,,,67,96,5
151040,note_on,,,,,0,0,6,,,67,96,5
151040,note_on,,,,,0,0,7,,,67,96,6
151040,note_off,,,,,0,0,7,,,64,0,6
151040,note_on,,,,,0,0,7,,,63,96,6
151040,note_off,,,,,512,0,8,,,59,0,7
151040,note_on,,,,,1024,0,5,,,78,96,4
151040,note_off,,,,,0,0,7,,,54,0,6
151040,note_on,,,,,0,0,8,,,47,96,7
151040,note_on,,,,,0,0,5,,,71,96,4
151296,note_on,,,,,0,0,6,,,69,96,5
151296,note_off,,,,,256,0,7,,,67,0,6
151296,note_on,,,,,0,0,7,,,69,96,6
151296,note_off,,,,,256,0,6,,,67,0,5
151296,note_off,,,,,0,0,6,,,67,0,5
151296,note_on,,,,,0,0,6,,,69,96,5
151552,note_on,,,,,0,0,5,,,67,96,4
151552,note_on,,,,,0,0,5,,,76,96,4
151552,note_off,,,,,0,0,5,,,71,0,4
151552,note_off,,,,,256,0,6,,,69,0,5
151552,note_off,,,,,512,0,5,,,78,0,4
151552,note_on,,,,,0,0,6,,,67,96,5
151552,note_off,,,,,0,0,6,,,69,0,5
151552,note_on,,,,,0,0,7,,,64,96,6
151552,note_on,,,,,0,0,7,,,67,96,6
151552,note_off,,,,,0,0,7,,,63,0,6
151552,note_off,,,,,256,0,7,,,69,0,6
151552,note_off,,,,,512,0,8,,,47,0,7
151552,note_on,,,,,0,0,8,,,52,96,7
151552,note_on,,,,,0,0,6,,,67,96,5
151808,note_off,,,,,256,0,7,,,67,0,6
151808,note_on,,,,,0,0,7,,,72,96,6
151808,note_off,,,,,256,0,6,,,67,0,5
151808,note_on,,,,,0,0,6,,,72,96,5
151808,note_off,,,,,0,0,6,,,67,0,5
151808,note_on,,,,,0,0,6,,,72,96,5
152064,note_off,,,,,256,0,6,,,72,0,5
152064,note_on,,,,,0,0,6,,,71,96,5
152064,note_on,,,,,0,0,6,,,71,96,5
152064,note_off,,,,,0,0,6,,,72,0,5
152064,note_on,,,,,0,0,8,,,53,96,7
152064,note_off,,,,,512,0,8,,,52,0,7
152064,note_off,,,,,512,0,5,,,76,0,4
152064,note_off,,,,,0,0,7,,,64,0,6
152064,note_on,,,,,0,0,7,,,72,96,6
152064,note_off,,,,,0,0,7,,,59,0,6
152064,note_off,,,,,0,0,5,,,67,0,4
152064,note_off,,,,,256,0,7,,,72,0,6
152064,note_on,,,,,0,0,7,,,71,96,6
152064,note_on,,,,,0,0,7,,,62,96,6
152320,note_off,,,,,0,0,6,,,71,0,5
152320,note_on,,,,,0,0,7,,,69,96,6
152320,note_on,,,,,0,0,6,,,69,96,5
152320,note_on,,,,,0,0,6,,,69,96,5
152320,note_off,,,,,256,0,6,,,71,0,5
152320,note_off,,,,,256,0,7,,,71,0,6
152576,note_off,,,,,512,0,8,,,53,0,7
152576,note_off,,,,,256,0,7,,,69,0,6
152576,note_on,,,,,0,0,7,,,67,96,6
152576,note_off,,,,,0,0,6,,,69,0,5
152576,note_on,,,,,0,0,7,,,64,96,6
152576,note_on,,,,,0,0,6,,,67,96,5
152576,note_off,,,,,256,0,6,,,69,0,5
152576,note_on,,,,,0,0,8,,,55,96,7
152576,note_off,,,,,0,0,7,,,62,0,6
152576,note_on,,,,,0,0,6,,,67,96,5
152832,note_off,,,,,256,0,6,,,67,0,5
152832,note_on,,,,,0,0,6,,,65,96,5
152832,note_off,,,,,0,0,6,,,67,0,5
152832,note_on,,,,,0,0,6,,,65,96,5
152832,note_on,,,,,0,0,7,,,65,96,6
152832,note_off,,,,,256,0,7,,,67,0,6
153088,note_on,,,,,0,0,7,,,64,96,6
153088,note_off,,,,,0,0,7,,,64,0,6
153088,note_on,,,,,0,0,7,,,67,96,6
153088,note_on,,,,,1024,0,5,,,74,96,4
153088,note_off,,,,,0,0,7,,,72,0,6
153088,note_off,,,,,0,0,6,,,65,0,5
153088,note_on,,,,,0,0,7,,,71,96,6
153088,note_on,,,,,0,0,6,,,64,96,5
153088,note_off,,,,,256,0,6,,,65,0,5
153088,note_on,,,,,0,0,8,,,43,96,7
153088,note_off,,,,,512,0,8,,,55,0,7
153088,note_on,,,,,0,0,5,,,67,96,4
153088,note_off,,,,,256,0,7,,,65,0,6
153088,note_on,,,,,0,0,6,,,64,96,5
153344,note_off,,,,,256,0,6,,,64,0,5
153344,note_on,,,,,0,0,6,,,65,96,5
153344,note_on,,,,,0,0,6,,,65,96,5
153344,note_on,,,,,0,0,7,,,65,96,6
153344,note_off,,,,,256,0,7,,,64,0,6
153344,note_off,,,,,0,0,6,,,64,0,5
153600,note_on,,,,,0,0,8,,,36,96,7
153600,note_on,,,,,0,0,7,,,64,96,6
153600,note_off,,,,,256,0,7,,,65,0,6
153600,note_off,,,,,0,0,6,,,65,0,5
153600,note_off,,,,,0,0,5,,,67,0,4
153600,note_on,,,,,0,0,5,,,67,96,4
153600,note_off,,,,,512,0,8,,,43,0,7
153600,note_on,,,,,0,0,6,,,64,96,5
153600,note_on,,,,,0,0,6,,,64,96,5
153600,note_off,,,,,256,0,6,,,65,0,5
153600,note_on,,,,,0,0,5,,,76,96,4
153600,note_off,,,,,512,0,5,,,74,0,4
153856,note_on,,,,,0,0,7,,,67,96,6
153856,note_off,,,,,256,0,7,,,64,0,6
153856,note_off,,,,,0,0,6,,,64,0,5
153856,note_on,,,,,0,0,6,,,67,96,5
153856,note_on,,,,,0,0,6,,,67,96,5
153856,note_off,,,,,256,0,6,,,64,0,5
154112,note_off,,,,,0,0,5,,,67,0,4
154112,note_on,,,,,0,0,8,,,48,96,7
154112,note_off,,,,,512,0,8,,,36,0,7
154112,note_off,,,,,0,0,7,,,71,0,6
154112,note_on,,,,,0,0,7,,,69,96,6
154112,note_off,,,,,0,0,7,,,67,0,6
154112,note_on,,,,,0,0,7,,,62,96,6
154112,note_on,,,,,0,0,5,,,69,96,4
154112,note_on,,,,,0,0,7,,,66,96,6
154112,note_off,,,,,512,0,5,,,76,0,4
154112,note_off,,,,,256,0,7,,,67,0,6
154112,note_off,,,,,256,0,6,,,67,0,5
154112,note_on,,,,,0,0,6,,,66,96,5
154112,note_on,,,,,0,0,6,,,66,96,5
154112,note_off,,,,,0,0,6,,,67,0,5
154112,note_on,,,,,0,0,5,,,74,96,4
154368,note_off,,,,,0,0,6,,,66,0,5
154368,note_on,,,,,0,0,7,,,69,96,6
154368,note_off,,,,,256,0,7,,,66,0,6
154368,note_off,,,,,256,0,6,,,66,0,5
154368,note_on,,,,,0,0,6,,,69,96,5
154368,note_on,,,,,0,0,6,,,69,96,5
154624,note_off,,,,,512,0,8,,,48,0,7
154624,note_on,,,,,0,0,8,,,47,96,7
154624,note_off,,,,,0,0,7,,,69,0,6
154624,note_off,,,,,256,0,6,,,69,0,5
154624,note_off,,,,,0,0,6,,,69,0,5
154624,note_on,,,,,0,0,7,,,62,96,6
154624,note_on,,,,,0,0,7,,,74,96,6
154624,note_on,,,,,0,0,5,,,71,96,4
154624,note_off,,,,,0,0,5,,,69,0,4
154624,note_off,,,,,0,0,7,,,62,0,6
154624,note_off,,,,,512,0,5,,,74,0,4
154624,note_on,,,,,0,0,6,,,67,96,5
154624,note_on,,,,,0,0,7,,,67,96,6
154624,note_off,,,,,256,0,7,,,69,0,6
154624,note_on,,,,,0,0,5,,,74,96,4
154624,note_on,,,,,0,0,6,,,67,96,5
154880,note_off,,,,,0,0,6,,,67,0,5
154880,note_on,,,,,0,0,6,,,79,96,5
154880,note_off,,,,,256,0,7,,,67,0,6
154880,note_on,,,,,0,0,7,,,79,96,6
154880,note_on,,,,,0,0,6,,,79,96,5
154880,note_off,,,,,256,0,6,,,67,0,5
155136,note_on,,,,,0,0,8,,,45,96,7
155136,note_on,,,,,0,0,6,,,78,96,5
155136,note_off,,,,,0,0,6,,,79,0,5
155136,note_off,,,,,512,0,8,,,47,0,7
155136,note_on,,,,,0,0,7,,,72,96,6
155136,note_on,,,,,0,0,7,,,66,96,6
155136,note_off,,,,,0,0,7,,,62,0,6
155136,note_off,,,,,256,0,6,,,79,0,5
155136,note_off,,,,,0,0,7,,,74,0,6
155136,note_on,,,,,0,0,7,,,78,96,6
155136,note_off,,,,,256,0,7,,,79,0,6
155136,note_on,,,,,0,0,5,,,72,96,4
155136,note_off,,,,,512,0,5,,,71,0,4
155136,note_on,,,,,0,0,6,,,78,96,5
155392,note_off,,,,,0,0,6,,,78,0,5
155392,note_on,,,,,0,0,6,,,76,96,5
155392,note_off,,,,,256,0,6,,,78,0,5
155392,note_on,,,,,0,0,6,,,76,96,5
155392,note_on,,,,,0,0,7,,,76,96,6
155392,note_off,,,,,256,0,7,,,78,0,6
155648,note_on,,,,,0,0,7,,,71,96,6
155648,note_on,,,,,0,0,7,,,74,96,6
155648,note_off,,,,,0,0,7,,,72,0,6
155648,note_off,,,,,256,0,7,,,76,0,6
155648,note_off,,,,,256,0,6,,,76,0,5
155648,note_on,,,,,0,0,7,,,67,96,6
155648,note_on,,,,,0,0,6,,,74,96,5
155648,note_off,,,,,0,0,7,,,66,0,6
155648,note_off,,,,,0,0,6,,,76,0,5
155648,note_off,,,,,512,0,5,,,72,0,4
155648,note_on,,,,,0,0,5,,,71,96,4
155648,note_on,,,,,0,0,8,,,47,96,7
155648,note_off,,,,,512,0,8,,,45,0,7
155648,note_on,,,,,0,0,6,,,74,96,5
155904,note_off,,,,,256,0,5,,,74,0,4
155904,note_on,,,,,0,0,5,,,72,96,4
155904,note_off,,,,,0,0,5,,,71,0,4
155904,note_on,,,,,0,0,5,,,69,96,4
155904,note_off,,,,,256,0,7,,,74,0,6
155904,note_off,,,,,256,0,6,,,74,0,5
155904,note_on,,,,,0,0,7,,,72,96,6
155904,note_on,,,,,0,0,6,,,72,96,5
155904,note_off,,,,,0,0,6,,,74,0,5
155904,note_on,,,,,0,0,6,,,72,96,5
156160,note_on,,,,,0,0,5,,,71,96,4
156160,note_off,,,,,0,0,5,,,69,0,4
156160,note_on,,,,,0,0,5,,,67,96,4
156160,note_off,,,,,0,0,6,,,72,0,5
156160,note_on,,,,,0,0,6,,,71,96,5
156160,note_off,,,,,256,0,6,,,72,0,5
156160,note_off,,,,,256,0,5,,,72,0,4
156160,note_off,,,,,256,0,7,,,72,0,6
156160,note_on,,,,,0,0,6,,,71,96,5
156160,note_off,,,,,0,0,7,,,71,0,6
156160,note_on,,,,,0,0,7,,,67,96,6
156160,note_off,,,,,0,0,7,,,67,0,6
156160,note_on,,,,,0,0,7,,,55,96,6
156160,note_on,,,,,512,0,8,,,43,96,7
156160,note_off,,,,,0,0,8,,,47,0,7
156160,note_on,,,,,0,0,8,,,48,96,7
156160,note_on,,,,,0,0,7,,,71,96,6
156416,note_on,,,,,0,0,6,,,72,96,5
156416,note_off,,,,,256,0,7,,,71,0,6
156416,note_off,,,,,0,0,6,,,71,0,5
156416,note_off,,,,,256,0,6,,,71,0,5
156416,note_on,,,,,0,0,7,,,72,96,6
156416,note_on,,,,,0,0,5,,,72,96,4
156416,note_off,,,,,256,0,5,,,71,0,4
156416,note_on,,,,,0,0,6,,,72,96,5
156544,note_off,,,,,128,0,6,,,72,0,5
156544,note_off,,,,,0,0,6,,,72,0,5
156544,note_off,,,,,128,0,7,,,72,0,6
156544,note_on,,,,,0,0,7,,,74,96,6
156544,note_on,,,,,0,0,6,,,74,96,5
156544,note_on,,,,,0,0,6,,,74,96,5
156672,note_on,,,,,0,0,6,,,69,96,5
156672,note_off,,,,,128,0,6,,,74,0,5
156672,note_on,,,,,0,0,6,,,69,96,5
156672,note_off,,,,,0,0,6,,,74,0,5
156672,note_off,,,,,0,0,8,,,48,0,7
156672,note_on,,,,,0,0,8,,,50,96,7
156672,note_on,,,,,0,0,8,,,50,96,7
156672,note_off,,,,,128,0,7,,,74,0,6
156672,note_on,,,,,0,0,7,,,69,96,6
156672,note_off,,,,,0,0,7,,,67,0,6
156672,note_on,,,,,0,0,7,,,67,96,6
156672,note_off,,,,,0,0,7,,,55,0,6
156672,note_on,,,,,0,0,7,,,62,96,6
156672,note_on,,,,,0,0,5,,,62,96,4
156672,note_off,,,,,512,0,8,,,43,0,7
156672,note_off,,,,,256,0,5,,,72,0,4
156672,note_on,,,,,0,0,5,,,69,96,4
156672,note_off,,,,,0,0,5,,,67,0,4
156928,note_off,,,,,256,0,5,,,62,0,4
156928,note_off,,,,,256,0,8,,,50,0,7
156928,note_on,,,,,0,0,5,,,59,96,4
156928,note_on,,,,,0,0,8,,,50,96,7
157184,note_on,,,,,0,0,5,,,62,96,4
157184,note_off,,,,,256,0,8,,,50,0,7
157184,note_off,,,,,0,0,8,,,50,0,7
157184,note_off,,,,,256,0,5,,,59,0,4
157184,note_on,,,,,0,0,8,,,38,96,7
157184,note_on,,,,,0,0,8,,,50,96,7
157184,note_off,,,,,512,0,7,,,67,0,6
157184,note_on,,,,,0,0,7,,,66,96,6
157184,note_off,,,,,0,0,7,,,62,0,6
157184,note_on,,,,,0,0,7,,,57,96,6
157440,note_on,,,,,0,0,8,,,50,96,7
157440,note_off,,,,,256,0,7,,,69,0,6
157440,note_on,,,,,0,0,7,,,67,96,6
157440,note_off,,,,,0,0,6,,,69,0,5
157440,note_on,,,,,0,0,6,,,67,96,5
157440,note_off,,,,,768,0,6,,,69,0,5
157440,note_on,,,,,0,0,6,,,67,96,5
157440,note_off,,,,,256,0,8,,,50,0,7
157440,note_on,,,,,0,0,5,,,67,96,4
157440,note_off,,,,,256,0,5,,,69,0,4
157696,note_off,,,,,0,0,7,,,57,0,6
157696,note_on,,,,,0,0,8,,,43,96,7
157696,note_on,,,,,0,0,8,,,43,96,7
157696,note_on,,,,,0,0,7,,,59,96,6
157696,note_on,,,,,0,0,5,,,59,96,4
157696,note_off,,,,,0,0,5,,,62,0,4
157696,note_off,,,,,256,0,7,,,67,0,6
157696,note_off,,,,,0,0,6,,,67,0,5
157696,note_on,,,,,0,0,6,,,67,96,5
157696,note_off,,,,,256,0,6,,,67,0,5
157696,note_on,,,,,0,0,5,,,67,96,4
157696,note_off,,,,,256,0,5,,,67,0,4
157696,note_off,,,,,256,0,8,,,50,0,7
157696,note_on,,,,,0,0,7,,,67,96,6
157696,note_off,,,,,0,0,7,,,66,0,6
157696,note_on,,,,,0,0,7,,,62,96,6
157696,note_on,,,,,0,0,6,,,67,96,5
157696,note_off,,,,,0,0,8,,,38,0,7
161792,note_off,,,,,4096,0,8,,,43,0,7
161792,note_off,,,,,0,0,6,,,67,0,5
161792,end_of_track,,,,,32768,1,1,,,,,
161792,end_of_track,,,,,32768,1,2,,,,,
161792,end_of_track,,,,,32768,1,3,,,,,
161792,end_of_track,,,,,32768,1,4,,,,,
161792,note_off,,,,,4096,0,5,,,67,0,4
161792,note_off,,,,,0,0,5,,,59,0,4
161792,end_of_track,,,,,0,1,5,,,,,
161792,note_off,,,,,0,0,8,,,43,0,7
161792,end_of_track,,,,,0,1,7,,,,,
161792,note_off,,,,,0,0,7,,,59,0,6
161792,note_off,,,,,0,0,7,,,62,0,6
161792,note_off,,,,,4096,0,7,,,67,0,6
161792,end_of_track,,,,,0,1,6,,,,,
161792,note_off,,,,,4096,0,6,,,67,0,5
161792,end_of_track,,,,,161792,1,0,,,,,
161792,end_of_track,,,,,0,1,8,,,,,
