,note,step,duration,channel,velocity
0,74.0,1024,1020,0.0,0.0
1,55.0,0,1020,3.0,0.0
2,55.0,0,1020,4.0,0.0
3,59.0,0,1020,2.0,0.0
4,67.0,0,1020,1.0,0.0
5,54.0,0,1020,4.0,0.0
6,54.0,0,1020,3.0,0.0
7,69.0,0,1020,1.0,0.0
8,57.0,512,1020,2.0,0.0
9,59.0,0,510,2.0,0.0
10,50.0,512,1020,3.0,0.0
11,67.0,512,510,1.0,0.0
12,74.0,0,15,0.0,0.0
13,50.0,0,1020,4.0,0.0
14,60.0,0,510,2.0,0.0
15,66.0,0,510,1.0,0.0
16,67.0,512,1020,1.0,0.0
17,74.0,512,510,0.0,0.0
18,59.0,0,1020,2.0,0.0
19,43.0,0,1020,3.0,0.0
20,43.0,0,1020,4.0,0.0
21,76.0,0,510,0.0,0.0
22,45.0,512,510,3.0,0.0
23,60.0,0,510,1.0,0.0
24,77.0,0,1020,0.0,0.0
25,57.0,0,1020,2.0,0.0
26,45.0,0,510,4.0,0.0
27,62.0,0,510,1.0,0.0
28,47.0,512,510,3.0,0.0
29,47.0,0,510,4.0,0.0
30,48.0,512,1020,4.0,0.0
31,64.0,0,510,1.0,0.0
32,55.0,512,510,2.0,0.0
33,48.0,0,1020,3.0,0.0
34,76.0,0,1020,0.0,0.0
35,65.0,0,510,1.0,0.0
36,60.0,0,15,2.0,0.0
37,43.0,0,1020,4.0,0.0
38,67.0,0,1020,1.0,0.0
39,74.0,1024,1020,0.0,0.0
40,43.0,0,1020,3.0,0.0
41,59.0,0,510,2.0,0.0
42,48.0,0,1020,4.0,0.0
43,64.0,0,1020,2.0,0.0
44,67.0,1024,1020,1.0,0.0
45,72.0,0,1020,0.0,0.0
46,48.0,0,1020,3.0,0.0
47,74.0,0,1020,0.0,0.0
48,54.0,0,1020,3.0,0.0
49,69.0,512,1020,1.0,0.0
50,42.0,0,1020,4.0,0.0
51,62.0,0,1020,2.0,0.0
52,62.0,0,510,2.0,0.0
53,55.0,0,1530,3.0,0.0
54,43.0,0,1530,4.0,0.0
55,67.0,0,1020,1.0,0.0
56,71.0,512,510,0.0,0.0
57,60.0,0,510,2.0,0.0
58,69.0,512,510,0.0,0.0
59,62.0,0,1020,1.0,0.0
60,59.0,512,510,2.0,0.0
61,67.0,0,510,0.0,0.0
62,69.0,0,510,0.0,0.0
63,42.0,0,510,4.0,0.0
64,54.0,0,510,3.0,0.0
65,57.0,512,510,2.0,0.0
66,71.0,0,1020,0.0,0.0
67,40.0,0,510,4.0,0.0
68,67.0,0,510,1.0,0.0
69,52.0,512,510,3.0,0.0
70,55.0,0,1020,2.0,0.0
71,42.0,0,510,4.0,0.0
72,54.0,0,510,3.0,0.0
73,66.0,512,510,1.0,0.0
74,43.0,512,510,4.0,0.0
75,64.0,0,1020,1.0,0.0
76,73.0,0,1020,0.0,0.0
77,55.0,0,510,3.0,0.0
78,57.0,0,1020,2.0,0.0
79,57.0,0,510,3.0,0.0
80,45.0,512,510,4.0,0.0
81,57.0,0,510,2.0,0.0
82,74.0,0,1020,0.0,0.0
83,42.0,0,510,4.0,0.0
84,69.0,0,510,1.0,0.0
85,54.0,512,510,3.0,0.0
86,66.0,0,510,1.0,0.0
87,38.0,0,510,4.0,0.0
88,62.0,512,1020,2.0,0.0
89,50.0,512,510,3.0,0.0
90,45.0,0,1020,4.0,0.0
91,57.0,1024,1020,3.0,0.0
92,67.0,0,1020,1.0,0.0
93,76.0,0,1020,0.0,0.0
94,61.0,0,510,2.0,0.0
95,38.0,0,1020,4.0,0.0
96,62.0,0,1020,2.0,0.0
97,74.0,0,1020,0.0,0.0
98,50.0,1024,1020,3.0,0.0
99,66.0,0,1020,1.0,0.0
100,67.0,0,1020,1.0,0.0
101,55.0,0,1020,4.0,0.0
102,59.0,1024,1020,3.0,0.0
103,59.0,0,1020,2.0,0.0
104,69.0,512,1020,1.0,0.0
105,74.0,0,15,0.0,0.0
106,54.0,0,1020,4.0,0.0
107,57.0,0,1020,2.0,0.0
108,54.0,0,1020,3.0,0.0
109,50.0,512,1020,3.0,0.0
110,67.0,512,510,1.0,0.0
111,59.0,0,510,2.0,0.0
112,50.0,0,1020,4.0,0.0
113,74.0,0,15,0.0,0.0
114,60.0,0,510,2.0,0.0
115,66.0,0,510,1.0,0.0
116,43.0,512,1020,4.0,0.0
117,43.0,0,1020,3.0,0.0
118,74.0,512,510,0.0,0.0
119,67.0,0,1020,1.0,0.0
120,59.0,0,1020,2.0,0.0
121,76.0,0,510,0.0,0.0
122,45.0,512,510,3.0,0.0
123,45.0,0,510,4.0,0.0
124,57.0,0,1020,2.0,0.0
125,77.0,512,1020,0.0,0.0
126,60.0,0,510,1.0,0.0
127,62.0,0,510,1.0,0.0
128,47.0,0,510,4.0,0.0
129,47.0,0,510,3.0,0.0
130,48.0,0,1020,3.0,0.0
131,55.0,512,510,2.0,0.0
132,76.0,512,1020,0.0,0.0
133,48.0,0,1020,4.0,0.0
134,64.0,0,510,1.0,0.0
135,65.0,0,510,1.0,0.0
136,60.0,0,15,2.0,0.0
137,43.0,0,1020,3.0,0.0
138,74.0,0,1020,0.0,0.0
139,43.0,0,1020,4.0,0.0
140,59.0,0,510,2.0,0.0
141,64.0,0,1020,2.0,0.0
142,67.0,1024,15,1.0,0.0
143,48.0,1024,1020,3.0,0.0
144,72.0,0,1020,0.0,0.0
145,48.0,0,1020,4.0,0.0
146,74.0,0,1020,0.0,0.0
147,62.0,0,1020,2.0,0.0
148,42.0,0,1020,4.0,0.0
149,69.0,0,1020,1.0,0.0
150,54.0,512,1020,3.0,0.0
151,43.0,512,1530,4.0,0.0
152,62.0,512,510,2.0,0.0
153,67.0,512,1020,1.0,0.0
154,71.0,0,510,0.0,0.0
155,55.0,0,1530,3.0,0.0
156,60.0,0,510,2.0,0.0
157,69.0,0,510,0.0,0.0
158,67.0,0,510,0.0,0.0
159,59.0,0,510,2.0,0.0
160,62.0,512,1020,1.0,0.0
161,57.0,0,510,2.0,0.0
162,69.0,0,510,0.0,0.0
163,54.0,0,510,3.0,0.0
164,42.0,0,510,4.0,0.0
165,71.0,0,1020,0.0,0.0
166,40.0,512,510,4.0,0.0
167,67.0,0,510,1.0,0.0
168,52.0,0,510,3.0,0.0
169,55.0,0,1020,2.0,0.0
170,66.0,0,510,1.0,0.0
171,54.0,512,510,3.0,0.0
172,42.0,0,510,4.0,0.0
173,73.0,0,1020,0.0,0.0
174,64.0,512,1020,1.0,0.0
175,55.0,0,510,3.0,0.0
176,43.0,512,510,4.0,0.0
177,45.0,0,510,4.0,0.0
178,57.0,0,510,3.0,0.0
179,69.0,0,510,1.0,0.0
180,42.0,512,510,4.0,0.0
181,54.0,0,510,3.0,0.0
182,74.0,0,1020,0.0,0.0
183,57.0,0,15,2.0,0.0
184,50.0,0,510,3.0,0.0
185,66.0,0,510,1.0,0.0
186,38.0,512,510,4.0,0.0
187,62.0,512,1020,2.0,0.0
188,67.0,1024,1020,1.0,0.0
189,57.0,0,1020,3.0,0.0
190,76.0,0,1020,0.0,0.0
191,45.0,0,1020,4.0,0.0
192,61.0,0,510,2.0,0.0
193,50.0,0,1020,3.0,0.0
194,66.0,0,1020,1.0,0.0
195,74.0,0,1020,0.0,0.0
196,38.0,0,1020,4.0,0.0
197,55.0,0,510,4.0,0.0
198,74.0,0,1020,0.0,0.0
199,55.0,512,510,3.0,0.0
200,62.0,512,15,2.0,0.0
201,57.0,0,510,4.0,0.0
202,57.0,0,510,3.0,0.0
203,59.0,512,510,3.0,0.0
204,59.0,0,510,4.0,0.0
205,79.0,0,1020,0.0,0.0
206,62.0,0,15,2.0,0.0
207,71.0,512,15,1.0,0.0
208,64.0,0,510,2.0,0.0
209,61.0,0,510,3.0,0.0
210,61.0,0,510,4.0,0.0
211,66.0,512,510,2.0,0.0
212,62.0,0,1020,4.0,0.0
213,78.0,0,1020,0.0,0.0
214,62.0,512,1020,3.0,0.0
215,69.0,0,510,1.0,0.0
216,71.0,0,510,1.0,0.0
217,67.0,0,510,2.0,0.0
218,69.0,512,510,2.0,0.0
219,57.0,0,1020,4.0,0.0
220,57.0,0,1020,3.0,0.0
221,76.0,512,1020,0.0,0.0
222,67.0,0,510,2.0,0.0
223,58.0,0,1020,4.0,0.0
224,66.0,512,510,2.0,0.0
225,78.0,0,1020,0.0,0.0
226,73.0,0,15,1.0,0.0
227,58.0,0,1020,3.0,0.0
228,64.0,0,510,2.0,0.0
229,59.0,0,510,3.0,0.0
230,59.0,0,510,4.0,0.0
231,62.0,0,1020,2.0,0.0
232,74.0,0,1020,1.0,0.0
233,79.0,512,510,0.0,0.0
234,78.0,0,510,0.0,0.0
235,55.0,512,510,3.0,0.0
236,55.0,0,510,4.0,0.0
237,69.0,512,510,1.0,0.0
238,57.0,1024,1020,4.0,0.0
239,61.0,0,1020,2.0,0.0
240,76.0,0,1020,0.0,0.0
241,57.0,0,1020,3.0,0.0
242,67.0,0,510,1.0,0.0
243,50.0,512,1020,3.0,0.0
244,57.0,0,1020,2.0,0.0
245,66.0,0,1020,1.0,0.0
246,50.0,0,1020,4.0,0.0
247,74.0,0,1020,0.0,0.0
248,55.0,512,510,3.0,0.0
249,55.0,0,510,4.0,0.0
250,59.0,0,1020,2.0,0.0
251,74.0,0,1020,0.0,0.0
252,54.0,0,510,3.0,0.0
253,54.0,0,510,4.0,0.0
254,52.0,512,510,3.0,0.0
255,52.0,0,510,4.0,0.0
256,67.0,512,15,1.0,0.0
257,59.0,0,510,2.0,0.0
258,79.0,0,1020,0.0,0.0
259,50.0,512,510,3.0,0.0
260,50.0,0,510,4.0,0.0
261,60.0,0,510,2.0,0.0
262,74.0,0,1020,0.0,0.0
263,67.0,0,15,1.0,0.0
264,48.0,512,510,3.0,0.0
265,48.0,0,510,4.0,0.0
266,62.0,0,1020,2.0,0.0
267,47.0,0,510,4.0,0.0
268,47.0,0,510,3.0,0.0
269,60.0,0,1020,2.0,0.0
270,76.0,0,1020,0.0,0.0
271,48.0,512,510,4.0,0.0
272,67.0,512,15,1.0,0.0
273,48.0,0,510,3.0,0.0
274,50.0,512,510,3.0,0.0
275,50.0,0,510,4.0,0.0
276,55.0,512,510,2.0,0.0
277,52.0,0,1020,4.0,0.0
278,67.0,0,15,1.0,0.0
279,71.0,0,510,0.0,0.0
280,52.0,0,1020,3.0,0.0
281,72.0,512,510,0.0,0.0
282,64.0,0,510,2.0,0.0
283,62.0,512,510,2.0,0.0
284,54.0,0,510,3.0,0.0
285,54.0,0,510,4.0,0.0
286,69.0,0,510,1.0,0.0
287,74.0,0,1020,0.0,0.0
288,56.0,0,510,4.0,0.0
289,56.0,0,510,3.0,0.0
290,71.0,512,510,1.0,0.0
291,59.0,0,510,2.0,0.0
292,72.0,0,1020,0.0,0.0
293,64.0,0,510,1.0,0.0
294,57.0,0,1020,3.0,0.0
295,60.0,256,510,2.0,0.0
296,57.0,0,1020,4.0,0.0
297,69.0,1024,510,1.0,0.0
298,64.0,256,270,2.0,0.0
299,63.0,0,270,2.0,0.0
300,52.0,0,1020,4.0,0.0
301,64.0,0,1020,2.0,0.0
302,52.0,0,1020,3.0,0.0
303,68.0,1024,1020,1.0,0.0
304,55.0,0,1020,4.0,0.0
305,71.0,0,15,0.0,0.0
306,67.0,0,1020,1.0,0.0
307,55.0,0,1020,3.0,0.0
308,62.0,512,1020,2.0,0.0
309,69.0,512,510,0.0,0.0
310,54.0,0,1020,3.0,0.0
311,54.0,512,1020,4.0,0.0
312,62.0,0,1020,2.0,0.0
313,69.0,0,1020,1.0,0.0
314,71.0,0,510,0.0,0.0
315,52.0,0,510,3.0,0.0
316,67.0,0,510,1.0,0.0
317,64.0,0,1020,2.0,0.0
318,52.0,512,510,4.0,0.0
319,72.0,512,1020,0.0,0.0
320,69.0,0,510,1.0,0.0
321,54.0,0,510,3.0,0.0
322,54.0,0,510,4.0,0.0
323,62.0,0,1020,2.0,0.0
324,55.0,512,1020,4.0,0.0
325,71.0,512,510,1.0,0.0
326,55.0,0,1020,3.0,0.0
327,71.0,0,1020,0.0,0.0
328,67.0,0,510,1.0,0.0
329,48.0,0,1020,4.0,0.0
330,48.0,1024,1020,3.0,0.0
331,64.0,0,1020,1.0,0.0
332,69.0,0,1020,0.0,0.0
333,60.0,512,510,2.0,0.0
334,59.0,0,510,2.0,0.0
335,49.0,0,1020,3.0,0.0
336,49.0,0,1020,4.0,0.0
337,64.0,0,1020,0.0,0.0
338,57.0,0,2040,2.0,0.0
339,64.0,1024,1020,1.0,0.0
340,50.0,2048,1020,3.0,0.0
341,62.0,0,1020,1.0,0.0
342,50.0,0,1020,4.0,0.0
343,66.0,0,1020,0.0,0.0
344,67.0,1,2040,0.0,0.0
345,43.0,0,2040,3.0,0.0
346,59.0,0,2040,2.0,0.0
347,43.0,0,2040,4.0,0.0
348,62.0,0,2040,1.0,0.0
