,note,step,duration,channel,velocity
0,62.0,0,512,4.0,96.0
1,69.0,0,512,5.0,96.0
2,74.0,0,256,5.0,96.0
3,76.0,256,256,5.0,96.0
4,62.0,512,1024,4.0,96.0
5,78.0,256,512,5.0,96.0
6,78.0,0,512,5.0,96.0
7,57.0,512,1024,4.0,96.0
8,76.0,512,512,5.0,96.0
9,66.0,0,256,5.0,96.0
10,50.0,256,0,4.0,96.0
11,66.0,256,256,7.0,96.0
12,69.0,0,0,7.0,96.0
13,74.0,0,0,7.0,96.0
14,69.0,0,256,6.0,96.0
15,62.0,0,0,5.0,96.0
16,74.0,0,512,5.0,96.0
17,74.0,0,0,6.0,96.0
18,50.0,256,0,4.0,96.0
19,78.0,0,0,7.0,96.0
20,78.0,0,256,6.0,96.0
21,66.0,0,256,5.0,96.0
22,74.0,0,256,7.0,96.0
23,81.0,0,256,6.0,96.0
24,78.0,0,256,6.0,96.0
25,69.0,0,512,5.0,96.0
26,66.0,0,256,5.0,96.0
27,62.0,256,0,5.0,96.0
28,81.0,0,0,7.0,96.0
29,50.0,0,0,4.0,96.0
30,66.0,0,512,5.0,96.0
31,66.0,0,512,7.0,96.0
32,81.0,0,512,6.0,96.0
33,69.0,512,0,5.0,96.0
34,86.0,0,512,7.0,96.0
35,86.0,0,512,6.0,96.0
36,74.0,0,256,5.0,96.0
37,76.0,256,256,5.0,96.0
38,50.0,0,0,4.0,96.0
39,74.0,0,256,5.0,96.0
40,78.0,256,256,5.0,96.0
41,76.0,0,256,5.0,96.0
42,79.0,256,256,5.0,96.0
43,78.0,0,512,5.0,96.0
44,81.0,256,512,5.0,96.0
45,81.0,0,512,5.0,96.0
46,78.0,512,512,5.0,96.0
47,79.0,512,512,5.0,96.0
48,76.0,0,512,5.0,96.0
49,45.0,0,1024,4.0,96.0
50,50.0,0,256,4.0,96.0
51,69.0,0,0,7.0,96.0
52,66.0,0,256,7.0,96.0
53,66.0,0,0,5.0,96.0
54,74.0,0,512,5.0,96.0
55,78.0,512,512,5.0,96.0
56,74.0,0,0,7.0,96.0
57,74.0,0,256,6.0,96.0
58,69.0,0,256,6.0,96.0
59,74.0,0,256,6.0,96.0
60,50.0,0,0,4.0,96.0
61,74.0,0,0,7.0,96.0
62,78.0,256,0,7.0,96.0
63,78.0,0,256,6.0,96.0
64,66.0,0,0,5.0,96.0
65,74.0,0,512,5.0,96.0
66,69.0,0,512,5.0,96.0
67,81.0,0,256,6.0,96.0
68,81.0,0,0,7.0,96.0
69,38.0,0,1024,4.0,96.0
70,50.0,0,0,4.0,96.0
71,78.0,0,256,6.0,96.0
72,74.0,0,256,5.0,96.0
73,76.0,256,256,5.0,96.0
74,81.0,0,512,6.0,96.0
75,66.0,256,512,7.0,96.0
76,86.0,0,512,7.0,96.0
77,86.0,0,512,6.0,96.0
78,69.0,0,512,5.0,96.0
79,66.0,0,512,5.0,96.0
80,50.0,0,0,4.0,96.0
81,78.0,256,256,5.0,96.0
82,74.0,0,256,5.0,96.0
83,50.0,0,0,4.0,96.0
84,66.0,256,0,7.0,96.0
85,74.0,0,512,7.0,96.0
86,69.0,0,512,7.0,96.0
87,76.0,0,256,5.0,96.0
88,78.0,0,0,6.0,96.0
89,81.0,0,0,6.0,96.0
90,79.0,256,256,5.0,96.0
91,69.0,0,512,5.0,96.0
92,81.0,0,512,5.0,96.0
93,78.0,0,512,5.0,96.0
94,50.0,512,0,4.0,96.0
95,74.0,0,512,7.0,96.0
96,69.0,0,512,7.0,96.0
97,50.0,0,0,4.0,96.0
98,83.0,0,512,5.0,96.0
99,79.0,0,512,6.0,96.0
100,73.0,512,0,7.0,96.0
101,83.0,0,0,6.0,96.0
102,79.0,0,512,5.0,96.0
103,74.0,0,1024,5.0,96.0
104,64.0,0,0,7.0,96.0
105,67.0,0,0,7.0,96.0
106,79.0,0,512,6.0,96.0
107,79.0,0,512,5.0,96.0
108,83.0,0,512,5.0,96.0
109,74.0,0,256,5.0,96.0
110,78.0,0,256,5.0,96.0
111,81.0,0,256,5.0,96.0
112,81.0,0,256,6.0,96.0
113,78.0,512,256,6.0,96.0
114,50.0,0,0,4.0,96.0
115,74.0,0,512,7.0,96.0
116,66.0,0,512,7.0,96.0
117,76.0,0,256,6.0,96.0
118,50.0,0,0,4.0,96.0
119,69.0,0,0,7.0,96.0
120,79.0,0,256,6.0,96.0
121,79.0,256,256,5.0,96.0
122,76.0,0,256,5.0,96.0
123,74.0,0,256,5.0,96.0
124,81.0,0,512,6.0,96.0
125,50.0,512,0,4.0,96.0
126,66.0,0,512,7.0,96.0
127,74.0,0,512,7.0,96.0
128,81.0,0,512,5.0,96.0
129,78.0,0,512,5.0,96.0
130,78.0,0,512,6.0,96.0
131,79.0,0,256,5.0,96.0
132,76.0,0,256,5.0,96.0
133,79.0,0,256,6.0,96.0
134,76.0,0,256,6.0,96.0
135,76.0,0,512,7.0,96.0
136,78.0,256,256,5.0,96.0
137,74.0,0,256,5.0,96.0
138,74.0,0,256,6.0,96.0
139,78.0,0,256,6.0,96.0
140,73.0,0,512,7.0,96.0
141,67.0,0,512,7.0,96.0
142,76.0,0,512,7.0,96.0
143,73.0,0,512,7.0,96.0
144,67.0,0,512,7.0,96.0
145,79.0,0,512,6.0,96.0
146,50.0,0,0,4.0,96.0
147,76.0,0,512,6.0,96.0
148,79.0,256,512,5.0,96.0
149,76.0,0,512,5.0,96.0
150,74.0,0,256,6.0,96.0
151,74.0,0,256,7.0,96.0
152,78.0,512,256,7.0,96.0
153,69.0,0,0,5.0,96.0
154,74.0,0,256,5.0,96.0
155,50.0,0,256,4.0,96.0
156,78.0,0,256,5.0,96.0
157,78.0,0,256,6.0,96.0
158,69.0,0,512,7.0,96.0
159,50.0,0,256,4.0,96.0
160,50.0,0,0,4.0,96.0
161,76.0,256,256,7.0,96.0
162,76.0,0,256,6.0,96.0
163,73.0,0,256,6.0,96.0
164,76.0,0,256,5.0,96.0
165,73.0,0,256,5.0,96.0
166,79.0,0,256,7.0,96.0
167,69.0,0,0,5.0,96.0
168,78.0,0,256,5.0,96.0
169,74.0,0,256,5.0,96.0
170,74.0,0,256,6.0,96.0
171,78.0,0,256,6.0,96.0
172,78.0,0,512,7.0,96.0
173,76.0,0,256,5.0,96.0
174,69.0,0,512,7.0,96.0
175,74.0,256,0,7.0,96.0
176,79.0,0,256,5.0,96.0
177,79.0,256,256,6.0,96.0
178,76.0,0,256,6.0,96.0
179,50.0,0,0,4.0,96.0
180,81.0,0,512,5.0,96.0
181,78.0,0,512,6.0,96.0
182,66.0,0,512,7.0,96.0
183,78.0,0,512,5.0,96.0
184,69.0,0,512,7.0,96.0
185,81.0,512,0,6.0,96.0
186,50.0,0,0,4.0,96.0
187,74.0,0,512,7.0,96.0
188,66.0,0,512,7.0,96.0
189,78.0,0,512,5.0,96.0
190,81.0,0,512,5.0,96.0
191,69.0,0,512,7.0,96.0
192,78.0,0,512,6.0,96.0
193,50.0,0,0,4.0,96.0
194,76.0,0,256,6.0,96.0
195,69.0,0,0,5.0,96.0
196,76.0,0,256,5.0,96.0
197,79.0,0,256,6.0,96.0
198,50.0,0,256,4.0,96.0
199,79.0,0,256,5.0,96.0
200,50.0,256,0,4.0,96.0
201,78.0,0,256,5.0,96.0
202,50.0,0,0,4.0,96.0
203,67.0,0,512,7.0,96.0
204,73.0,0,0,7.0,96.0
205,76.0,0,0,7.0,96.0
206,74.0,0,256,6.0,96.0
207,69.0,0,0,5.0,96.0
208,74.0,0,256,5.0,96.0
209,78.0,256,256,6.0,96.0
210,76.0,0,512,6.0,96.0
211,79.0,0,512,6.0,96.0
212,79.0,0,512,5.0,96.0
213,67.0,0,512,7.0,96.0
214,76.0,0,512,5.0,96.0
215,74.0,512,256,6.0,96.0
216,78.0,0,256,6.0,96.0
217,78.0,0,256,5.0,96.0
218,74.0,0,256,5.0,96.0
219,76.0,0,256,5.0,96.0
220,73.0,0,256,5.0,96.0
221,78.0,0,512,7.0,96.0
222,73.0,256,256,6.0,96.0
223,74.0,0,512,7.0,96.0
224,69.0,0,512,7.0,96.0
225,76.0,0,256,6.0,96.0
226,78.0,256,512,5.0,96.0
227,74.0,0,512,5.0,96.0
228,69.0,0,512,7.0,96.0
229,78.0,0,512,6.0,96.0
230,78.0,0,512,7.0,96.0
231,74.0,0,512,7.0,96.0
232,74.0,0,512,6.0,96.0
233,66.0,0,0,5.0,96.0
234,76.0,0,256,5.0,96.0
235,76.0,0,256,7.0,96.0
236,76.0,0,256,6.0,96.0
237,50.0,0,0,4.0,96.0
238,79.0,0,256,7.0,96.0
239,69.0,0,0,5.0,96.0
240,74.0,0,256,5.0,96.0
241,69.0,0,512,6.0,96.0
242,74.0,0,256,6.0,96.0
243,69.0,0,512,7.0,96.0
244,78.0,0,256,7.0,96.0
245,81.0,256,256,7.0,96.0
246,73.0,0,256,6.0,96.0
247,76.0,256,256,6.0,96.0
248,76.0,0,256,5.0,96.0
249,45.0,256,0,4.0,96.0
250,78.0,0,256,5.0,96.0
251,76.0,0,0,7.0,96.0
252,69.0,0,512,7.0,96.0
253,57.0,0,512,4.0,96.0
254,79.0,0,512,7.0,96.0
255,78.0,256,256,6.0,96.0
256,74.0,0,256,6.0,96.0
257,52.0,0,512,4.0,96.0
258,45.0,0,0,4.0,96.0
259,79.0,0,512,6.0,96.0
260,76.0,0,512,6.0,96.0
261,79.0,0,512,5.0,96.0
262,69.0,0,512,5.0,96.0
263,69.0,0,0,7.0,96.0
264,73.0,0,0,7.0,96.0
265,79.0,0,512,5.0,96.0
266,69.0,0,512,5.0,96.0
267,69.0,0,0,5.0,96.0
268,79.0,0,512,6.0,96.0
269,49.0,512,512,4.0,96.0
270,76.0,0,512,6.0,96.0
271,69.0,0,0,7.0,96.0
272,76.0,0,512,7.0,96.0
273,45.0,0,0,4.0,96.0
274,74.0,0,256,6.0,96.0
275,74.0,0,256,7.0,96.0
276,78.0,0,256,7.0,96.0
277,78.0,512,256,5.0,96.0
278,78.0,0,256,6.0,96.0
279,69.0,0,0,5.0,96.0
280,76.0,0,256,5.0,96.0
281,73.0,0,256,6.0,96.0
282,69.0,0,0,7.0,96.0
283,45.0,0,512,4.0,96.0
284,45.0,0,0,4.0,96.0
285,76.0,0,256,7.0,96.0
286,76.0,256,256,6.0,96.0
287,79.0,0,256,7.0,96.0
288,78.0,0,512,5.0,96.0
289,50.0,0,512,4.0,96.0
290,69.0,0,0,5.0,96.0
291,45.0,512,0,4.0,96.0
292,74.0,0,512,6.0,96.0
293,78.0,0,512,7.0,96.0
294,74.0,0,512,7.0,96.0
295,78.0,0,512,6.0,96.0
296,69.0,0,0,7.0,96.0
297,76.0,0,256,5.0,96.0
298,76.0,0,256,6.0,96.0
299,76.0,0,256,7.0,96.0
300,74.0,0,256,5.0,96.0
301,74.0,256,256,7.0,96.0
302,74.0,0,256,6.0,96.0
303,69.0,0,512,6.0,96.0
304,54.0,0,512,4.0,96.0
305,69.0,0,0,7.0,96.0
306,45.0,0,0,4.0,96.0
307,76.0,0,512,7.0,96.0
308,76.0,0,512,6.0,96.0
309,69.0,0,0,7.0,96.0
310,57.0,0,512,4.0,96.0
311,73.0,512,0,7.0,96.0
312,73.0,0,512,6.0,96.0
313,69.0,0,0,5.0,96.0
314,76.0,256,512,5.0,96.0
315,76.0,0,512,7.0,96.0
316,69.0,0,0,6.0,96.0
317,76.0,0,512,6.0,96.0
318,69.0,512,0,5.0,96.0
319,69.0,0,0,5.0,96.0
320,69.0,0,0,7.0,96.0
321,55.0,0,512,4.0,96.0
322,50.0,0,0,4.0,96.0
323,74.0,0,256,7.0,96.0
324,74.0,0,256,5.0,96.0
325,74.0,0,256,6.0,96.0
326,76.0,256,256,6.0,96.0
327,54.0,0,512,4.0,96.0
328,76.0,0,256,5.0,96.0
329,76.0,0,256,7.0,96.0
330,50.0,0,0,4.0,96.0
331,78.0,0,256,5.0,96.0
332,74.0,0,256,5.0,96.0
333,74.0,0,256,7.0,96.0
334,78.0,256,256,6.0,96.0
335,74.0,0,256,6.0,96.0
336,78.0,0,256,7.0,96.0
337,50.0,256,0,4.0,96.0
338,79.0,0,256,6.0,96.0
339,71.0,0,512,7.0,96.0
340,76.0,0,256,7.0,96.0
341,79.0,0,256,7.0,96.0
342,76.0,0,256,6.0,96.0
343,47.0,0,512,4.0,96.0
344,79.0,0,256,5.0,96.0
345,76.0,0,256,5.0,96.0
346,62.0,0,512,5.0,96.0
347,69.0,0,512,7.0,96.0
348,78.0,256,512,7.0,96.0
349,81.0,0,512,7.0,96.0
350,81.0,0,512,5.0,96.0
351,81.0,0,512,6.0,96.0
352,78.0,0,512,5.0,96.0
353,42.0,0,512,4.0,96.0
354,78.0,0,512,6.0,96.0
355,50.0,0,0,4.0,96.0
356,79.0,0,256,7.0,96.0
357,76.0,0,256,7.0,96.0
358,76.0,512,256,6.0,96.0
359,50.0,0,0,4.0,96.0
360,79.0,0,256,5.0,96.0
361,79.0,0,256,6.0,96.0
362,76.0,0,256,5.0,96.0
363,62.0,0,512,5.0,96.0
364,43.0,0,512,4.0,96.0
365,74.0,0,256,5.0,96.0
366,78.0,256,256,7.0,96.0
367,78.0,0,256,5.0,96.0
368,74.0,0,256,6.0,96.0
369,74.0,0,256,7.0,96.0
370,71.0,0,512,7.0,96.0
371,78.0,0,256,6.0,96.0
372,45.0,0,512,4.0,96.0
373,69.0,0,1024,5.0,96.0
374,47.0,512,512,4.0,96.0
375,73.0,0,1024,7.0,96.0
376,76.0,256,1024,7.0,96.0
377,76.0,0,1024,6.0,96.0
378,73.0,0,1024,6.0,96.0
379,64.0,0,1024,7.0,96.0
380,76.0,0,1024,5.0,96.0
381,81.0,0,1024,5.0,96.0
382,49.0,0,512,4.0,96.0
383,64.0,0,1024,1.0,96.0
384,45.0,0,1024,3.0,96.0
385,81.0,512,1024,6.0,96.0
386,45.0,512,512,4.0,96.0
387,61.0,0,1024,2.0,96.0
388,69.0,0,1024,0.0,96.0
389,50.0,0,512,4.0,96.0
390,50.0,0,512,3.0,96.0
391,66.0,0,1024,0.0,96.0
392,78.0,0,1024,6.0,96.0
393,62.0,512,1024,1.0,96.0
394,49.0,0,512,3.0,96.0
395,57.0,0,1024,2.0,96.0
396,49.0,512,512,4.0,96.0
397,64.0,0,512,0.0,96.0
398,50.0,0,512,4.0,96.0
399,76.0,0,512,6.0,96.0
400,54.0,0,512,2.0,96.0
401,50.0,512,512,3.0,96.0
402,55.0,0,512,2.0,96.0
403,52.0,512,512,4.0,96.0
404,57.0,0,1024,1.0,96.0
405,62.0,0,512,0.0,96.0
406,74.0,0,512,6.0,96.0
407,52.0,0,512,3.0,96.0
408,54.0,0,512,4.0,96.0
409,54.0,0,512,3.0,96.0
410,57.0,0,512,2.0,96.0
411,81.0,512,0,6.0,96.0
412,52.0,0,512,4.0,96.0
413,55.0,512,512,2.0,96.0
414,62.0,0,1024,1.0,96.0
415,69.0,512,1024,0.0,96.0
416,52.0,0,512,3.0,96.0
417,54.0,0,512,3.0,96.0
418,54.0,0,512,4.0,96.0
419,69.0,0,512,6.0,96.0
420,78.0,0,512,6.0,96.0
421,50.0,512,512,3.0,96.0
422,57.0,0,1024,2.0,96.0
423,50.0,0,512,4.0,96.0
424,62.0,0,1024,1.0,96.0
425,69.0,0,1024,0.0,96.0
426,71.0,0,256,6.0,96.0
427,79.0,0,256,6.0,96.0
428,81.0,0,256,6.0,96.0
429,72.0,256,256,6.0,96.0
430,55.0,0,1024,4.0,96.0
431,83.0,256,512,6.0,96.0
432,74.0,0,512,6.0,96.0
433,74.0,0,512,6.0,96.0
434,83.0,0,512,6.0,96.0
435,81.0,0,512,6.0,96.0
436,73.0,512,512,6.0,96.0
437,55.0,0,2048,2.0,96.0
438,71.0,0,2048,0.0,96.0
439,43.0,512,1024,4.0,96.0
440,55.0,512,2048,3.0,96.0
441,62.0,0,2048,1.0,96.0
442,71.0,0,512,6.0,96.0
443,79.0,512,512,6.0,96.0
444,74.0,0,512,6.0,96.0
445,67.0,512,512,6.0,96.0
446,55.0,0,1024,4.0,96.0
447,74.0,512,512,6.0,96.0
448,67.0,0,512,6.0,96.0
449,71.0,0,1024,0.0,96.0
450,62.0,0,1024,1.0,96.0
451,55.0,512,512,4.0,96.0
452,50.0,0,1024,2.0,96.0
453,55.0,0,1024,3.0,96.0
454,79.0,0,512,6.0,96.0
455,71.0,0,512,6.0,96.0
456,83.0,0,1024,6.0,96.0
457,73.0,0,256,6.0,96.0
458,64.0,0,256,6.0,96.0
459,66.0,0,256,6.0,96.0
460,74.0,256,256,6.0,96.0
461,57.0,512,512,4.0,96.0
462,61.0,0,1024,1.0,96.0
463,57.0,0,1024,2.0,96.0
464,67.0,0,512,6.0,96.0
465,76.0,0,0,6.0,96.0
466,57.0,0,1024,3.0,96.0
467,52.0,0,512,4.0,96.0
468,64.0,0,1024,0.0,96.0
469,67.0,0,512,6.0,96.0
470,61.0,0,512,1.0,96.0
471,57.0,512,512,2.0,96.0
472,49.0,0,512,4.0,96.0
473,62.0,0,512,1.0,96.0
474,64.0,0,1024,0.0,96.0
475,45.0,0,1024,3.0,96.0
476,45.0,0,512,4.0,96.0
477,59.0,0,512,2.0,96.0
478,66.0,512,512,6.0,96.0
479,74.0,0,512,6.0,96.0
480,64.0,0,512,6.0,96.0
481,73.0,0,512,6.0,96.0
482,57.0,0,512,3.0,96.0
483,57.0,0,512,4.0,96.0
484,55.0,0,512,4.0,96.0
485,61.0,0,0,6.0,96.0
486,69.0,0,0,6.0,96.0
487,55.0,0,512,3.0,96.0
488,64.0,512,1536,1.0,96.0
489,61.0,0,1536,2.0,96.0
490,69.0,0,1536,0.0,96.0
491,54.0,0,512,3.0,96.0
492,54.0,512,512,4.0,96.0
493,81.0,0,1536,6.0,96.0
494,52.0,0,512,3.0,96.0
495,67.0,0,512,0.0,96.0
496,61.0,512,512,1.0,96.0
497,64.0,0,512,2.0,96.0
498,52.0,0,512,4.0,96.0
499,79.0,0,512,6.0,96.0
500,57.0,0,512,2.0,96.0
501,50.0,0,512,3.0,96.0
502,50.0,0,512,4.0,96.0
503,47.0,512,512,3.0,96.0
504,66.0,512,1024,0.0,96.0
505,78.0,0,1024,6.0,96.0
506,47.0,0,512,4.0,96.0
507,62.0,0,1536,1.0,96.0
508,59.0,0,1024,2.0,96.0
509,43.0,512,512,3.0,96.0
510,43.0,0,512,4.0,96.0
511,61.0,0,512,1.0,96.0
512,57.0,0,512,2.0,96.0
513,45.0,0,512,4.0,96.0
514,73.0,0,512,6.0,96.0
515,64.0,0,1024,0.0,96.0
516,45.0,512,512,3.0,96.0
517,76.0,0,1024,6.0,96.0
518,74.0,0,256,6.0,96.0
519,76.0,0,256,6.0,96.0
520,78.0,0,512,6.0,96.0
521,50.0,0,1024,4.0,96.0
522,50.0,0,1024,3.0,96.0
523,62.0,0,1024,0.0,96.0
524,54.0,0,1024,2.0,96.0
525,57.0,512,1024,1.0,96.0
526,78.0,0,512,6.0,96.0
527,49.0,0,512,4.0,96.0
528,76.0,0,512,6.0,96.0
529,69.0,0,512,5.0,96.0
530,74.0,0,256,5.0,96.0
531,78.0,0,256,6.0,96.0
532,76.0,256,256,5.0,96.0
533,79.0,0,256,6.0,96.0
534,78.0,0,512,5.0,96.0
535,81.0,0,0,6.0,96.0
536,50.0,512,1024,4.0,96.0
537,78.0,512,512,5.0,96.0
538,76.0,512,512,5.0,96.0
539,57.0,0,1024,4.0,96.0
540,74.0,512,512,5.0,96.0
541,69.0,256,256,7.0,96.0
542,66.0,0,256,7.0,96.0
543,74.0,0,0,7.0,96.0
544,78.0,0,256,7.0,96.0
545,50.0,0,256,4.0,96.0
546,69.0,0,256,7.0,96.0
547,66.0,256,256,5.0,96.0
548,62.0,0,256,5.0,96.0
549,50.0,0,256,4.0,96.0
550,62.0,0,1024,4.0,96.0
551,62.0,0,0,5.0,96.0
552,69.0,0,512,5.0,96.0
553,78.0,0,256,7.0,96.0
554,74.0,0,256,7.0,96.0
555,81.0,256,256,7.0,96.0
556,66.0,0,256,5.0,96.0
557,66.0,0,512,5.0,96.0
558,50.0,0,512,4.0,96.0
559,66.0,0,512,7.0,96.0
560,81.0,0,512,7.0,96.0
561,86.0,256,512,7.0,96.0
562,69.0,512,0,5.0,96.0
563,74.0,0,256,5.0,96.0
564,57.0,0,512,4.0,96.0
565,76.0,256,256,5.0,96.0
566,78.0,0,256,5.0,96.0
567,74.0,0,256,5.0,96.0
568,76.0,0,256,5.0,96.0
569,79.0,256,256,5.0,96.0
570,50.0,256,1024,4.0,96.0
571,81.0,512,0,5.0,96.0
572,78.0,0,0,5.0,96.0
573,79.0,0,512,5.0,96.0
574,76.0,512,512,5.0,96.0
575,45.0,0,1024,4.0,96.0
576,38.0,512,512,4.0,96.0
577,74.0,0,512,5.0,96.0
578,78.0,0,512,5.0,96.0
579,74.0,0,0,7.0,96.0
580,69.0,0,256,7.0,96.0
581,66.0,0,256,7.0,96.0
582,79.0,0,256,6.0,96.0
583,78.0,0,256,6.0,96.0
584,50.0,256,0,4.0,96.0
585,78.0,0,256,7.0,96.0
586,69.0,0,256,7.0,96.0
587,66.0,0,0,5.0,96.0
588,76.0,0,256,6.0,96.0
589,50.0,256,0,4.0,96.0
590,78.0,0,256,7.0,96.0
591,81.0,0,0,7.0,96.0
592,74.0,0,256,7.0,96.0
593,66.0,0,0,5.0,96.0
594,74.0,0,512,5.0,96.0
595,69.0,0,512,5.0,96.0
596,49.0,0,512,4.0,96.0
597,66.0,0,1024,1.0,96.0
598,69.0,0,1024,0.0,96.0
599,50.0,512,512,4.0,96.0
600,62.0,0,0,2.0,96.0
601,66.0,0,1024,7.0,96.0
602,74.0,0,1024,6.0,96.0
603,81.0,0,1024,6.0,96.0
604,86.0,0,1024,7.0,96.0
605,50.0,0,1024,3.0,96.0
606,74.0,0,1024,5.0,96.0
607,69.0,0,1024,5.0,96.0
608,55.0,0,512,3.0,96.0
609,55.0,0,512,4.0,96.0
610,54.0,512,512,3.0,96.0
611,67.0,512,1024,1.0,96.0
612,83.0,0,1024,6.0,96.0
613,71.0,0,1024,0.0,96.0
614,54.0,0,512,4.0,96.0
615,52.0,0,512,4.0,96.0
616,52.0,512,512,3.0,96.0
617,67.0,0,512,1.0,96.0
618,71.0,0,1024,0.0,96.0
619,64.0,0,1024,2.0,96.0
620,83.0,0,1024,6.0,96.0
621,66.0,512,512,1.0,96.0
622,50.0,0,512,3.0,96.0
623,50.0,0,512,4.0,96.0
624,49.0,0,512,3.0,96.0
625,64.0,0,512,1.0,96.0
626,49.0,0,512,4.0,96.0
627,47.0,512,512,3.0,96.0
628,57.0,0,0,2.0,96.0
629,81.0,0,1024,6.0,96.0
630,47.0,0,512,4.0,96.0
631,62.0,0,512,1.0,96.0
632,69.0,512,1024,0.0,96.0
633,49.0,0,512,4.0,96.0
634,49.0,512,512,3.0,96.0
635,79.0,0,1024,6.0,96.0
636,73.0,512,512,6.0,96.0
637,64.0,0,512,6.0,96.0
638,45.0,0,512,3.0,96.0
639,64.0,0,1024,1.0,96.0
640,45.0,0,512,4.0,96.0
641,67.0,0,1024,0.0,96.0
642,57.0,0,0,2.0,96.0
643,66.0,0,256,6.0,96.0
644,74.0,512,256,6.0,96.0
645,67.0,256,256,6.0,96.0
646,76.0,0,256,6.0,96.0
647,50.0,0,1024,4.0,96.0
648,69.0,512,0,6.0,96.0
649,78.0,0,0,6.0,96.0
650,66.0,0,2048,0.0,96.0
651,38.0,0,1024,4.0,96.0
652,50.0,0,2048,3.0,96.0
653,76.0,512,512,6.0,96.0
654,62.0,0,2048,1.0,96.0
655,67.0,0,512,6.0,96.0
656,66.0,0,512,6.0,96.0
657,69.0,256,256,7.0,96.0
658,66.0,0,256,7.0,96.0
659,62.0,0,256,7.0,96.0
660,74.0,0,512,6.0,96.0
661,74.0,0,256,7.0,96.0
662,69.0,256,0,7.0,96.0
663,66.0,0,256,7.0,96.0
664,69.0,256,512,6.0,96.0
665,74.0,0,256,7.0,96.0
666,69.0,0,0,7.0,96.0
667,50.0,512,1024,4.0,96.0
668,78.0,0,256,7.0,96.0
669,62.0,0,512,6.0,96.0
670,64.0,256,512,7.0,96.0
671,81.0,0,512,7.0,96.0
672,69.0,0,512,6.0,96.0
673,64.0,0,512,6.0,96.0
674,49.0,0,512,4.0,96.0
675,64.0,0,1024,0.0,96.0
676,57.0,0,1024,3.0,96.0
677,47.0,512,512,4.0,96.0
678,61.0,0,0,2.0,96.0
679,64.0,512,0,1.0,96.0
680,76.0,0,1024,6.0,96.0
681,74.0,0,512,6.0,96.0
682,69.0,0,512,6.0,96.0
683,73.0,0,256,6.0,96.0
684,69.0,0,256,6.0,96.0
685,74.0,256,256,6.0,96.0
686,45.0,0,512,4.0,96.0
687,71.0,0,256,6.0,96.0
688,78.0,0,1024,6.0,96.0
689,73.0,0,512,6.0,96.0
690,61.0,0,512,1.0,96.0
691,45.0,0,1024,3.0,96.0
692,57.0,0,512,2.0,96.0
693,66.0,0,1024,0.0,96.0
694,76.0,0,0,6.0,96.0
695,57.0,0,512,4.0,96.0
696,73.0,0,512,6.0,96.0
697,59.0,512,512,4.0,96.0
698,47.0,0,1024,3.0,96.0
699,74.0,0,512,6.0,96.0
700,68.0,0,1024,0.0,96.0
701,71.0,0,512,6.0,96.0
702,62.0,0,1024,2.0,96.0
703,62.0,0,1024,1.0,96.0
704,80.0,0,1024,6.0,96.0
705,47.0,512,512,4.0,96.0
706,69.0,0,512,6.0,96.0
707,73.0,512,512,6.0,96.0
708,49.0,0,512,4.0,96.0
709,62.0,0,256,7.0,96.0
710,66.0,0,0,7.0,96.0
711,69.0,0,0,7.0,96.0
712,74.0,0,256,7.0,96.0
713,69.0,256,512,6.0,96.0
714,64.0,0,512,6.0,96.0
715,78.0,0,256,7.0,96.0
716,81.0,0,1024,6.0,96.0
717,69.0,256,256,7.0,96.0
718,74.0,0,256,7.0,96.0
719,49.0,0,1024,3.0,96.0
720,69.0,0,0,1.0,96.0
721,61.0,0,512,4.0,96.0
722,64.0,0,1024,2.0,96.0
723,69.0,0,1024,0.0,96.0
724,71.0,0,512,0.0,96.0
725,62.0,0,512,4.0,96.0
726,69.0,0,512,6.0,96.0
727,66.0,0,512,6.0,96.0
728,64.0,0,512,7.0,96.0
729,69.0,0,512,7.0,96.0
730,81.0,0,512,7.0,96.0
731,83.0,256,512,6.0,96.0
732,85.0,0,256,6.0,96.0
733,73.0,512,256,0.0,96.0
734,86.0,256,256,6.0,96.0
735,69.0,256,0,1.0,96.0
736,50.0,0,1024,3.0,96.0
737,74.0,0,256,0.0,96.0
738,66.0,0,1024,2.0,96.0
739,50.0,0,512,4.0,96.0
740,52.0,0,512,4.0,96.0
741,64.0,0,1024,2.0,96.0
742,85.0,0,1024,6.0,96.0
743,73.0,0,1024,0.0,96.0
744,50.0,512,512,4.0,96.0
745,52.0,0,512,4.0,96.0
746,62.0,512,512,2.0,96.0
747,76.0,512,0,5.0,96.0
748,61.0,0,512,2.0,96.0
749,68.0,0,512,6.0,96.0
750,83.0,0,1024,6.0,96.0
751,40.0,0,512,4.0,96.0
752,68.0,512,512,7.0,96.0
753,52.0,0,2048,3.0,96.0
754,71.0,0,1024,0.0,96.0
755,68.0,0,1024,1.0,96.0
756,69.0,0,256,6.0,96.0
757,69.0,0,256,7.0,96.0
758,71.0,256,256,7.0,96.0
759,71.0,0,256,6.0,96.0
760,81.0,0,1024,6.0,96.0
761,73.0,0,512,6.0,96.0
762,61.0,0,1024,2.0,96.0
763,73.0,256,512,7.0,96.0
764,64.0,0,1024,1.0,96.0
765,45.0,0,1024,3.0,96.0
766,45.0,0,1024,4.0,96.0
767,69.0,0,1024,0.0,96.0
768,73.0,0,512,6.0,96.0
769,73.0,512,512,7.0,96.0
770,64.0,512,512,7.0,96.0
771,71.0,0,512,7.0,96.0
772,44.0,0,512,4.0,96.0
773,71.0,0,512,6.0,96.0
774,64.0,0,512,6.0,96.0
775,73.0,512,256,7.0,96.0
776,69.0,0,256,7.0,96.0
777,73.0,0,256,6.0,96.0
778,69.0,0,256,6.0,96.0
779,74.0,256,256,7.0,96.0
780,71.0,0,256,7.0,96.0
781,71.0,0,256,6.0,96.0
782,74.0,0,256,6.0,96.0
783,76.0,0,512,7.0,96.0
784,45.0,0,1024,4.0,96.0
785,73.0,256,512,6.0,96.0
786,73.0,0,0,7.0,96.0
787,76.0,0,0,6.0,96.0
788,76.0,512,512,7.0,96.0
789,73.0,0,512,6.0,96.0
790,71.0,0,512,7.0,96.0
791,74.0,0,512,6.0,96.0
792,74.0,512,512,7.0,96.0
793,52.0,0,1024,4.0,96.0
794,71.0,0,512,6.0,96.0
795,69.0,0,512,7.0,96.0
796,73.0,512,512,7.0,96.0
797,69.0,0,0,6.0,96.0
798,73.0,0,512,6.0,96.0
799,81.0,256,0,5.0,96.0
800,64.0,0,512,6.0,96.0
801,69.0,512,512,7.0,96.0
802,64.0,0,512,7.0,96.0
803,57.0,0,1024,4.0,96.0
804,69.0,256,256,6.0,96.0
805,69.0,0,256,7.0,96.0
806,81.0,0,512,5.0,96.0
807,71.0,256,256,6.0,96.0
808,64.0,0,512,7.0,96.0
809,71.0,0,256,7.0,96.0
810,64.0,0,512,6.0,96.0
811,69.0,0,256,6.0,96.0
812,73.0,0,256,6.0,96.0
813,73.0,0,256,7.0,96.0
814,69.0,0,256,7.0,96.0
815,71.0,0,256,7.0,96.0
816,52.0,256,512,4.0,96.0
817,71.0,256,256,6.0,96.0
818,74.0,0,256,6.0,96.0
819,64.0,0,512,7.0,96.0
820,74.0,0,256,7.0,96.0
821,69.0,0,256,7.0,96.0
822,73.0,0,256,7.0,96.0
823,73.0,0,256,6.0,96.0
824,74.0,0,256,6.0,96.0
825,76.0,256,0,6.0,96.0
826,74.0,256,256,7.0,96.0
827,71.0,0,256,7.0,96.0
828,76.0,0,0,7.0,96.0
829,73.0,512,0,7.0,96.0
830,81.0,0,512,7.0,96.0
831,81.0,0,512,6.0,96.0
832,45.0,256,1024,4.0,96.0
833,76.0,0,512,6.0,96.0
834,81.0,0,512,7.0,96.0
835,76.0,0,512,7.0,96.0
836,81.0,0,512,6.0,96.0
837,74.0,0,512,7.0,96.0
838,80.0,0,512,7.0,96.0
839,71.0,0,512,7.0,96.0
840,74.0,0,512,6.0,96.0
841,80.0,512,512,6.0,96.0
842,40.0,0,1024,4.0,96.0
843,81.0,0,512,6.0,96.0
844,73.0,512,0,6.0,96.0
845,45.0,0,0,4.0,96.0
846,69.0,0,512,7.0,96.0
847,73.0,512,512,7.0,96.0
848,81.0,0,512,7.0,96.0
849,45.0,0,0,4.0,96.0
850,81.0,0,256,5.0,96.0
851,69.0,256,0,5.0,96.0
852,47.0,0,512,4.0,96.0
853,73.0,0,512,7.0,96.0
854,69.0,0,512,7.0,96.0
855,64.0,0,512,7.0,96.0
856,69.0,0,512,6.0,96.0
857,81.0,0,0,5.0,96.0
858,64.0,0,512,7.0,96.0
859,49.0,0,512,4.0,96.0
860,73.0,0,1024,7.0,96.0
861,81.0,256,1024,6.0,96.0
862,73.0,0,1024,6.0,96.0
863,69.0,0,1024,5.0,96.0
864,69.0,0,1024,7.0,96.0
865,45.0,512,512,4.0,96.0
866,69.0,0,1024,6.0,96.0
867,64.0,0,1024,1.0,96.0
868,61.0,0,1024,2.0,96.0
869,69.0,0,1024,0.0,96.0
870,45.0,0,1024,3.0,96.0
871,50.0,0,512,3.0,96.0
872,66.0,512,512,1.0,96.0
873,50.0,0,512,4.0,96.0
874,69.0,0,1024,0.0,96.0
875,49.0,0,512,4.0,96.0
876,49.0,512,512,3.0,96.0
877,64.0,0,512,1.0,96.0
878,62.0,0,1024,2.0,96.0
879,81.0,0,1024,6.0,96.0
880,50.0,0,512,3.0,96.0
881,66.0,512,512,1.0,96.0
882,50.0,0,512,4.0,96.0
883,69.0,0,1024,0.0,96.0
884,81.0,0,1024,6.0,96.0
885,52.0,512,512,3.0,96.0
886,62.0,0,1024,2.0,96.0
887,52.0,0,512,4.0,96.0
888,67.0,0,512,1.0,96.0
889,54.0,512,512,4.0,96.0
890,54.0,0,512,3.0,96.0
891,69.0,0,512,1.0,96.0
892,52.0,0,512,3.0,96.0
893,74.0,0,1024,0.0,96.0
894,67.0,512,512,1.0,96.0
895,57.0,0,1024,2.0,96.0
896,52.0,0,512,4.0,96.0
897,86.0,0,1024,6.0,96.0
898,54.0,512,512,3.0,96.0
899,54.0,0,512,4.0,96.0
900,69.0,512,512,6.0,96.0
901,62.0,0,1024,2.0,96.0
902,78.0,0,512,6.0,96.0
903,84.0,0,1024,6.0,96.0
904,50.0,0,512,4.0,96.0
905,69.0,0,1024,1.0,96.0
906,50.0,0,512,3.0,96.0
907,72.0,0,1024,0.0,96.0
908,71.0,0,256,6.0,96.0
909,79.0,0,256,6.0,96.0
910,81.0,256,256,6.0,96.0
911,72.0,0,256,6.0,96.0
912,83.0,0,512,6.0,96.0
913,74.0,256,512,6.0,96.0
914,55.0,512,1024,4.0,96.0
915,83.0,0,512,6.0,96.0
916,74.0,0,512,6.0,96.0
917,81.0,0,512,6.0,96.0
918,71.0,0,2048,0.0,96.0
919,72.0,512,512,6.0,96.0
920,67.0,0,2048,1.0,96.0
921,55.0,0,2048,3.0,96.0
922,62.0,0,2048,2.0,96.0
923,43.0,512,1024,4.0,96.0
924,71.0,0,512,6.0,96.0
925,62.0,256,256,7.0,96.0
926,67.0,0,256,7.0,96.0
927,79.0,512,512,6.0,96.0
928,59.0,0,256,7.0,96.0
929,55.0,0,512,4.0,96.0
930,67.0,0,256,7.0,96.0
931,71.0,0,256,7.0,96.0
932,62.0,0,256,7.0,96.0
933,67.0,0,256,7.0,96.0
934,71.0,0,0,7.0,96.0
935,57.0,0,512,4.0,96.0
936,74.0,0,512,6.0,96.0
937,74.0,0,0,7.0,96.0
938,67.0,256,512,6.0,96.0
939,55.0,0,512,4.0,96.0
940,55.0,0,512,3.0,96.0
941,79.0,0,512,7.0,96.0
942,71.0,0,1024,0.0,96.0
943,67.0,0,1024,1.0,96.0
944,54.0,512,512,4.0,96.0
945,83.0,256,1024,6.0,96.0
946,54.0,0,512,3.0,96.0
947,62.0,0,1024,2.0,96.0
948,52.0,0,512,3.0,96.0
949,52.0,0,512,4.0,96.0
950,68.0,512,512,1.0,96.0
951,83.0,512,0,6.0,96.0
952,71.0,0,0,0.0,96.0
953,50.0,512,512,4.0,96.0
954,66.0,0,512,1.0,96.0
955,50.0,0,512,3.0,96.0
956,64.0,0,1024,2.0,96.0
957,52.0,0,512,4.0,96.0
958,68.0,0,512,1.0,96.0
959,52.0,0,512,3.0,96.0
960,64.0,0,1024,2.0,96.0
961,54.0,512,512,3.0,96.0
962,54.0,0,512,4.0,96.0
963,69.0,0,512,1.0,96.0
964,71.0,512,512,1.0,96.0
965,56.0,0,512,3.0,96.0
966,56.0,0,512,4.0,96.0
967,59.0,0,1024,2.0,96.0
968,54.0,512,512,3.0,96.0
969,76.0,0,1024,0.0,96.0
970,69.0,0,512,1.0,96.0
971,54.0,0,512,4.0,96.0
972,88.0,0,1024,6.0,96.0
973,56.0,512,512,4.0,96.0
974,56.0,0,512,3.0,96.0
975,64.0,0,1024,2.0,96.0
976,74.0,0,1024,0.0,96.0
977,74.0,0,512,6.0,96.0
978,52.0,0,512,4.0,96.0
979,71.0,0,1024,1.0,96.0
980,76.0,0,0,6.0,96.0
981,86.0,0,1024,6.0,96.0
982,59.0,0,512,7.0,96.0
983,68.0,512,512,7.0,96.0
984,64.0,0,512,7.0,96.0
985,52.0,0,512,3.0,96.0
986,57.0,0,512,4.0,96.0
987,69.0,0,512,7.0,96.0
988,64.0,0,512,7.0,96.0
989,61.0,0,512,7.0,96.0
990,73.0,0,512,6.0,96.0
991,45.0,512,512,4.0,96.0
992,64.0,0,1024,2.0,96.0
993,57.0,0,1024,3.0,96.0
994,69.0,0,1024,1.0,96.0
995,85.0,0,1024,6.0,96.0
996,73.0,512,1024,0.0,96.0
997,78.0,0,0,6.0,96.0
998,68.0,0,512,7.0,96.0
999,62.0,0,512,7.0,96.0
1000,59.0,0,512,7.0,96.0
1001,74.0,0,0,6.0,96.0
1002,59.0,0,512,7.0,96.0
1003,45.0,512,512,4.0,96.0
1004,68.0,0,512,7.0,96.0
1005,62.0,0,512,7.0,96.0
1006,76.0,512,256,6.0,96.0
1007,73.0,0,256,6.0,96.0
1008,45.0,256,0,4.0,96.0
1009,69.0,0,512,7.0,96.0
1010,61.0,0,0,7.0,96.0
1011,64.0,0,0,7.0,96.0
1012,71.0,0,256,6.0,96.0
1013,74.0,256,256,6.0,96.0
1014,69.0,0,512,7.0,96.0
1015,73.0,0,512,6.0,96.0
1016,76.0,0,512,6.0,96.0
1017,71.0,0,256,6.0,96.0
1018,74.0,0,256,6.0,96.0
1019,45.0,0,512,4.0,96.0
1020,71.0,0,512,7.0,96.0
1021,68.0,0,512,7.0,96.0
1022,73.0,0,256,6.0,96.0
1023,69.0,256,256,6.0,96.0
1024,62.0,0,0,7.0,96.0
1025,71.0,0,512,7.0,96.0
1026,68.0,0,512,7.0,96.0
1027,71.0,0,512,6.0,96.0
1028,45.0,0,0,4.0,96.0
1029,74.0,256,512,6.0,96.0
1030,73.0,512,256,6.0,96.0
1031,69.0,0,256,6.0,96.0
1032,69.0,0,256,7.0,96.0
1033,73.0,0,256,7.0,96.0
1034,64.0,0,512,7.0,96.0
1035,71.0,0,256,7.0,96.0
1036,74.0,0,256,7.0,96.0
1037,76.0,0,512,5.0,96.0
1038,68.0,0,256,6.0,96.0
1039,71.0,256,256,6.0,96.0
1040,81.0,256,0,5.0,96.0
1041,76.0,0,256,5.0,96.0
1042,69.0,0,512,7.0,96.0
1043,73.0,0,0,7.0,96.0
1044,69.0,0,512,6.0,96.0
1045,64.0,0,0,7.0,96.0
1046,73.0,0,512,6.0,96.0
1047,78.0,256,256,5.0,96.0
1048,45.0,0,0,4.0,96.0
1049,83.0,0,512,5.0,96.0
1050,79.0,256,512,5.0,96.0
1051,79.0,0,0,6.0,96.0
1052,83.0,0,0,6.0,96.0
1053,67.0,0,512,7.0,96.0
1054,73.0,0,0,7.0,96.0
1055,83.0,0,512,5.0,96.0
1056,79.0,512,512,5.0,96.0
1057,64.0,0,512,7.0,96.0
1058,45.0,0,0,4.0,96.0
1059,67.0,0,512,7.0,96.0
1060,45.0,0,256,4.0,96.0
1061,78.0,0,256,5.0,96.0
1062,74.0,0,256,5.0,96.0
1063,78.0,0,256,6.0,96.0
1064,81.0,0,256,6.0,96.0
1065,81.0,512,256,5.0,96.0
1066,45.0,0,256,4.0,96.0
1067,79.0,256,256,5.0,96.0
1068,76.0,0,256,5.0,96.0
1069,66.0,0,512,7.0,96.0
1070,74.0,0,256,5.0,96.0
1071,45.0,0,0,4.0,96.0
1072,74.0,0,512,7.0,96.0
1073,79.0,0,256,6.0,96.0
1074,76.0,0,256,6.0,96.0
1075,69.0,256,0,7.0,96.0
1076,45.0,0,512,4.0,96.0
1077,78.0,0,512,5.0,96.0
1078,81.0,0,512,5.0,96.0
1079,81.0,0,512,6.0,96.0
1080,66.0,0,512,7.0,96.0
1081,74.0,0,512,7.0,96.0
1082,78.0,0,512,6.0,96.0
1083,76.0,0,256,6.0,96.0
1084,76.0,0,256,5.0,96.0
1085,79.0,512,256,5.0,96.0
1086,79.0,0,256,6.0,96.0
1087,67.0,0,512,7.0,96.0
1088,78.0,0,256,6.0,96.0
1089,73.0,256,0,7.0,96.0
1090,74.0,0,256,6.0,96.0
1091,74.0,256,256,5.0,96.0
1092,45.0,0,0,4.0,96.0
1093,76.0,0,0,7.0,96.0
1094,78.0,0,256,5.0,96.0
1095,79.0,0,512,6.0,96.0
1096,76.0,0,512,6.0,96.0
1097,67.0,0,512,7.0,96.0
1098,45.0,0,0,4.0,96.0
1099,76.0,0,512,5.0,96.0
1100,79.0,0,512,5.0,96.0
1101,78.0,0,256,5.0,96.0
1102,74.0,512,256,5.0,96.0
1103,74.0,0,256,6.0,96.0
1104,78.0,0,256,6.0,96.0
1105,69.0,0,256,5.0,96.0
1106,45.0,0,256,4.0,96.0
1107,78.0,0,256,7.0,96.0
1108,74.0,0,256,7.0,96.0
1109,69.0,256,0,7.0,96.0
1110,76.0,256,256,7.0,96.0
1111,79.0,0,256,7.0,96.0
1112,45.0,0,256,4.0,96.0
1113,76.0,0,256,5.0,96.0
1114,69.0,0,256,5.0,96.0
1115,73.0,0,256,5.0,96.0
1116,76.0,0,256,6.0,96.0
1117,73.0,0,256,6.0,96.0
1118,78.0,0,256,5.0,96.0
1119,74.0,0,256,5.0,96.0
1120,78.0,0,256,6.0,96.0
1121,74.0,0,256,6.0,96.0
1122,79.0,256,256,6.0,96.0
1123,50.0,0,512,4.0,96.0
1124,74.0,0,512,7.0,96.0
1125,76.0,0,256,6.0,96.0
1126,79.0,0,256,5.0,96.0
1127,78.0,0,512,7.0,96.0
1128,76.0,0,256,5.0,96.0
1129,81.0,0,512,5.0,96.0
1130,78.0,0,512,5.0,96.0
1131,69.0,0,1024,5.0,96.0
1132,74.0,0,512,7.0,96.0
1133,69.0,0,512,7.0,96.0
1134,66.0,512,0,7.0,96.0
1135,81.0,256,512,6.0,96.0
1136,50.0,0,512,4.0,96.0
1137,78.0,0,0,6.0,96.0
1138,69.0,0,512,7.0,96.0
1139,74.0,0,512,7.0,96.0
1140,81.0,0,512,6.0,96.0
1141,50.0,0,512,4.0,96.0
1142,81.0,0,512,5.0,96.0
1143,78.0,0,512,5.0,96.0
1144,69.0,0,256,5.0,96.0
1145,79.0,0,256,5.0,96.0
1146,76.0,0,256,5.0,96.0
1147,50.0,0,0,4.0,96.0
1148,76.0,0,256,6.0,96.0
1149,79.0,0,256,6.0,96.0
1150,78.0,256,256,5.0,96.0
1151,74.0,0,256,5.0,96.0
1152,69.0,0,256,5.0,96.0
1153,74.0,0,256,6.0,96.0
1154,76.0,0,0,7.0,96.0
1155,78.0,0,256,6.0,96.0
1156,73.0,0,512,7.0,96.0
1157,67.0,0,512,7.0,96.0
1158,50.0,0,0,4.0,96.0
1159,67.0,0,512,7.0,96.0
1160,73.0,0,512,7.0,96.0
1161,79.0,256,512,5.0,96.0
1162,79.0,0,512,6.0,96.0
1163,76.0,0,512,6.0,96.0
1164,76.0,0,512,5.0,96.0
1165,74.0,0,256,6.0,96.0
1166,78.0,0,256,6.0,96.0
1167,78.0,0,256,5.0,96.0
1168,78.0,512,256,7.0,96.0
1169,74.0,0,256,5.0,96.0
1170,74.0,0,256,7.0,96.0
1171,76.0,0,256,6.0,96.0
1172,73.0,256,256,6.0,96.0
1173,73.0,0,256,5.0,96.0
1174,76.0,0,256,5.0,96.0
1175,52.0,0,512,4.0,96.0
1176,79.0,0,256,7.0,96.0
1177,76.0,0,256,7.0,96.0
1178,69.0,0,1024,5.0,96.0
1179,69.0,0,512,7.0,96.0
1180,54.0,0,512,4.0,96.0
1181,78.0,0,512,7.0,96.0
1182,78.0,0,512,6.0,96.0
1183,74.0,0,512,6.0,96.0
1184,50.0,0,1024,3.0,96.0
1185,62.0,512,0,2.0,96.0
1186,69.0,0,1024,0.0,96.0
1187,66.0,0,1024,1.0,96.0
1188,74.0,0,1024,5.0,96.0
1189,69.0,0,1024,7.0,96.0
1190,78.0,0,1024,5.0,96.0
1191,74.0,0,1024,7.0,96.0
1192,81.0,256,1024,6.0,96.0
1193,50.0,512,512,4.0,96.0
1194,55.0,0,512,3.0,96.0
1195,55.0,0,512,4.0,96.0
1196,83.0,0,1024,6.0,96.0
1197,57.0,512,512,3.0,96.0
1198,67.0,0,1024,1.0,96.0
1199,71.0,0,1024,0.0,96.0
1200,57.0,0,512,4.0,96.0
1201,55.0,512,512,4.0,96.0
1202,55.0,0,512,3.0,96.0
1203,69.0,0,1024,1.0,96.0
1204,54.0,512,512,3.0,96.0
1205,81.0,0,1024,6.0,96.0
1206,69.0,0,1024,0.0,96.0
1207,54.0,0,512,4.0,96.0
1208,62.0,0,1024,2.0,96.0
1209,52.0,0,512,3.0,96.0
1210,67.0,0,512,1.0,96.0
1211,55.0,0,512,2.0,96.0
1212,52.0,0,512,4.0,96.0
1213,50.0,512,512,3.0,96.0
1214,71.0,512,1024,0.0,96.0
1215,59.0,0,0,2.0,96.0
1216,66.0,0,512,1.0,96.0
1217,50.0,0,512,4.0,96.0
1218,83.0,0,1024,6.0,96.0
1219,49.0,0,512,4.0,96.0
1220,64.0,0,512,1.0,96.0
1221,49.0,512,512,3.0,96.0
1222,54.0,0,512,3.0,96.0
1223,70.0,0,512,6.0,96.0
1224,85.0,0,1024,6.0,96.0
1225,66.0,0,512,6.0,96.0
1226,54.0,0,512,4.0,96.0
1227,58.0,512,512,2.0,96.0
1228,73.0,0,1024,0.0,96.0
1229,66.0,0,512,1.0,96.0
1230,71.0,0,256,6.0,96.0
1231,62.0,0,256,6.0,96.0
1232,73.0,256,256,6.0,96.0
1233,64.0,0,256,6.0,96.0
1234,47.0,0,1024,4.0,96.0
1235,66.0,0,0,6.0,96.0
1236,74.0,0,0,6.0,96.0
1237,66.0,0,2048,1.0,96.0
1238,59.0,512,1024,4.0,96.0
1239,54.0,0,2048,2.0,96.0
1240,64.0,0,512,6.0,96.0
1241,86.0,0,2048,6.0,96.0
1242,73.0,512,512,6.0,96.0
1243,74.0,512,2048,0.0,96.0
1244,47.0,0,2048,3.0,96.0
1245,47.0,512,512,4.0,96.0
1246,62.0,512,0,6.0,96.0
1247,71.0,0,512,6.0,96.0
1248,59.0,0,512,4.0,96.0
1249,62.0,0,0,6.0,96.0
1250,66.0,0,0,6.0,96.0
1251,54.0,512,512,4.0,96.0
1252,50.0,512,512,4.0,96.0
1253,62.0,0,0,1.0,96.0
1254,57.0,0,1024,2.0,96.0
1255,81.0,0,1024,6.0,96.0
1256,69.0,0,1024,0.0,96.0
1257,54.0,0,1024,3.0,96.0
1258,43.0,0,512,3.0,96.0
1259,71.0,0,512,0.0,96.0
1260,83.0,512,512,6.0,96.0
1261,43.0,0,512,4.0,96.0
1262,55.0,0,512,2.0,96.0
1263,69.0,0,512,0.0,96.0
1264,45.0,0,512,4.0,96.0
1265,45.0,512,512,3.0,96.0
1266,81.0,0,512,6.0,96.0
1267,62.0,0,0,1.0,96.0
1268,54.0,0,512,2.0,96.0
1269,52.0,0,512,2.0,96.0
1270,47.0,0,512,4.0,96.0
1271,79.0,0,512,6.0,96.0
1272,67.0,512,512,0.0,96.0
1273,47.0,0,512,3.0,96.0
1274,43.0,0,512,4.0,96.0
1275,43.0,0,512,3.0,96.0
1276,66.0,0,512,0.0,96.0
1277,50.0,512,512,2.0,96.0
1278,78.0,0,512,6.0,96.0
1279,45.0,0,512,3.0,96.0
1280,62.0,512,512,1.0,96.0
1281,76.0,0,512,6.0,96.0
1282,57.0,0,512,2.0,96.0
1283,64.0,0,512,0.0,96.0
1284,45.0,0,512,4.0,96.0
1285,78.0,0,256,6.0,96.0
1286,66.0,0,256,0.0,96.0
1287,43.0,0,512,4.0,96.0
1288,59.0,0,512,1.0,96.0
1289,79.0,0,256,6.0,96.0
1290,67.0,256,256,0.0,96.0
1291,43.0,512,512,3.0,96.0
1292,50.0,0,512,2.0,96.0
1293,45.0,256,512,4.0,96.0
1294,57.0,0,512,2.0,96.0
1295,76.0,0,1024,6.0,96.0
1296,69.0,512,512,5.0,96.0
1297,64.0,0,1024,0.0,96.0
1298,45.0,0,1024,3.0,96.0
1299,55.0,0,512,2.0,96.0
1300,45.0,0,512,4.0,96.0
1301,61.0,0,1024,1.0,96.0
1302,74.0,0,256,5.0,96.0
1303,76.0,256,256,5.0,96.0
1304,38.0,0,1024,4.0,96.0
1305,78.0,256,512,5.0,96.0
1306,78.0,0,512,5.0,96.0
1307,74.0,512,2048,6.0,96.0
1308,54.0,0,2048,2.0,96.0
1309,50.0,0,2048,3.0,96.0
1310,57.0,0,2048,1.0,96.0
1311,76.0,512,512,5.0,96.0
1312,50.0,512,1024,4.0,96.0
1313,62.0,0,2048,0.0,96.0
1314,69.0,0,256,7.0,96.0
1315,66.0,0,256,5.0,96.0
1316,62.0,0,256,5.0,96.0
1317,66.0,0,256,7.0,96.0
1318,74.0,0,256,7.0,96.0
1319,74.0,0,256,6.0,96.0
1320,69.0,0,256,6.0,96.0
1321,74.0,512,512,5.0,96.0
1322,50.0,0,0,4.0,96.0
1323,74.0,0,256,6.0,96.0
1324,78.0,0,0,6.0,96.0
1325,78.0,256,256,7.0,96.0
1326,62.0,0,0,5.0,96.0
1327,66.0,0,0,5.0,96.0
1328,74.0,0,256,7.0,96.0
1329,69.0,0,256,7.0,96.0
1330,50.0,0,256,4.0,96.0
1331,62.0,0,1024,4.0,96.0
1332,78.0,0,256,7.0,96.0
1333,81.0,0,256,6.0,96.0
1334,66.0,0,0,5.0,96.0
1335,69.0,0,0,5.0,96.0
1336,62.0,0,0,5.0,96.0
1337,81.0,0,0,7.0,96.0
1338,74.0,0,256,7.0,96.0
1339,86.0,0,512,7.0,96.0
1340,66.0,0,512,7.0,96.0
1341,50.0,0,0,4.0,96.0
1342,81.0,0,512,6.0,96.0
1343,86.0,0,512,6.0,96.0
1344,74.0,512,256,5.0,96.0
1345,76.0,256,256,5.0,96.0
1346,69.0,0,512,5.0,96.0
1347,50.0,256,0,4.0,96.0
1348,74.0,0,256,5.0,96.0
1349,78.0,0,256,5.0,96.0
1350,79.0,0,256,5.0,96.0
1351,76.0,256,256,5.0,96.0
1352,81.0,256,512,5.0,96.0
1353,78.0,0,512,5.0,96.0
1354,81.0,512,512,5.0,96.0
1355,78.0,0,512,5.0,96.0
1356,76.0,0,512,5.0,96.0
1357,45.0,0,1024,4.0,96.0
1358,79.0,512,512,5.0,96.0
1359,50.0,0,256,4.0,96.0
1360,74.0,0,256,6.0,96.0
1361,69.0,256,256,6.0,96.0
1362,69.0,0,256,7.0,96.0
1363,66.0,0,256,7.0,96.0
1364,74.0,0,512,5.0,96.0
1365,78.0,0,512,5.0,96.0
1366,74.0,0,0,7.0,96.0
1367,66.0,0,0,5.0,96.0
1368,69.0,0,256,7.0,96.0
1369,66.0,256,0,5.0,96.0
1370,78.0,0,256,6.0,96.0
1371,74.0,0,256,6.0,96.0
1372,50.0,0,0,4.0,96.0
1373,78.0,0,0,7.0,96.0
1374,74.0,0,512,5.0,96.0
1375,69.0,0,512,5.0,96.0
1376,81.0,0,256,6.0,96.0
1377,78.0,0,256,6.0,96.0
1378,81.0,0,256,7.0,96.0
1379,74.0,0,256,7.0,96.0
1380,38.0,512,1024,4.0,96.0
1381,66.0,0,0,5.0,96.0
1382,74.0,256,256,5.0,96.0
1383,66.0,0,512,7.0,96.0
1384,81.0,0,512,7.0,96.0
1385,76.0,256,256,5.0,96.0
1386,69.0,0,0,5.0,96.0
1387,81.0,0,512,6.0,96.0
1388,86.0,0,512,6.0,96.0
1389,86.0,0,512,7.0,96.0
1390,50.0,0,512,4.0,96.0
1391,74.0,0,256,5.0,96.0
1392,78.0,0,256,5.0,96.0
1393,69.0,256,512,7.0,96.0
1394,66.0,0,512,7.0,96.0
1395,76.0,0,256,5.0,96.0
1396,79.0,256,256,5.0,96.0
1397,81.0,256,0,6.0,96.0
1398,78.0,0,0,6.0,96.0
1399,74.0,0,0,7.0,96.0
1400,50.0,0,0,4.0,96.0
1401,81.0,0,512,5.0,96.0
1402,78.0,0,512,5.0,96.0
1403,66.0,0,512,7.0,96.0
1404,69.0,0,512,7.0,96.0
1405,50.0,0,0,4.0,96.0
1406,79.0,0,512,5.0,96.0
1407,83.0,0,0,5.0,96.0
1408,74.0,0,1024,5.0,96.0
1409,64.0,512,0,7.0,96.0
1410,73.0,0,512,7.0,96.0
1411,67.0,0,512,7.0,96.0
1412,50.0,0,0,4.0,96.0
1413,79.0,0,512,6.0,96.0
1414,83.0,0,0,6.0,96.0
1415,50.0,0,0,4.0,96.0
1416,79.0,0,512,5.0,96.0
1417,67.0,0,512,7.0,96.0
1418,73.0,0,512,7.0,96.0
1419,79.0,0,512,6.0,96.0
1420,50.0,0,256,4.0,96.0
1421,74.0,0,0,5.0,96.0
1422,81.0,0,256,6.0,96.0
1423,81.0,0,256,5.0,96.0
1424,78.0,0,256,5.0,96.0
1425,78.0,0,256,6.0,96.0
1426,76.0,0,256,6.0,96.0
1427,50.0,256,256,4.0,96.0
1428,50.0,0,0,4.0,96.0
1429,74.0,0,512,7.0,96.0
1430,76.0,0,256,5.0,96.0
1431,79.0,0,256,6.0,96.0
1432,66.0,0,0,7.0,96.0
1433,69.0,0,0,7.0,96.0
1434,79.0,0,256,5.0,96.0
1435,74.0,0,512,7.0,96.0
1436,81.0,0,512,6.0,96.0
1437,78.0,0,512,5.0,96.0
1438,78.0,256,512,6.0,96.0
1439,81.0,0,512,5.0,96.0
1440,79.0,0,256,6.0,96.0
1441,76.0,0,256,6.0,96.0
1442,79.0,0,256,5.0,96.0
1443,76.0,0,256,5.0,96.0
1444,76.0,0,512,7.0,96.0
1445,74.0,0,256,6.0,96.0
1446,73.0,0,512,7.0,96.0
1447,74.0,0,256,5.0,96.0
1448,78.0,0,256,5.0,96.0
1449,50.0,0,512,4.0,96.0
1450,67.0,0,0,7.0,96.0
1451,78.0,256,256,6.0,96.0
1452,76.0,0,512,7.0,96.0
1453,73.0,0,512,7.0,96.0
1454,79.0,0,512,6.0,96.0
1455,76.0,0,512,6.0,96.0
1456,76.0,256,512,5.0,96.0
1457,79.0,0,512,5.0,96.0
1458,50.0,0,0,4.0,96.0
1459,50.0,0,256,4.0,96.0
1460,78.0,0,256,5.0,96.0
1461,69.0,0,0,5.0,96.0
1462,74.0,0,256,6.0,96.0
1463,78.0,0,256,6.0,96.0
1464,74.0,0,256,7.0,96.0
1465,78.0,512,256,7.0,96.0
1466,74.0,0,256,5.0,96.0
1467,69.0,0,512,7.0,96.0
1468,76.0,0,256,7.0,96.0
1469,79.0,0,256,7.0,96.0
1470,50.0,0,0,4.0,96.0
1471,76.0,256,256,5.0,96.0
1472,73.0,0,256,5.0,96.0
1473,73.0,0,256,6.0,96.0
1474,76.0,0,256,6.0,96.0
1475,74.0,0,256,5.0,96.0
1476,74.0,0,256,6.0,96.0
1477,78.0,0,256,6.0,96.0
1478,78.0,256,256,5.0,96.0
1479,79.0,0,256,5.0,96.0
1480,76.0,256,256,5.0,96.0
1481,74.0,0,512,7.0,96.0
1482,76.0,0,256,6.0,96.0
1483,79.0,0,256,6.0,96.0
1484,50.0,0,512,4.0,96.0
1485,78.0,0,512,7.0,96.0
1486,69.0,0,0,7.0,96.0
1487,66.0,0,512,7.0,96.0
1488,78.0,0,512,6.0,96.0
1489,50.0,0,512,4.0,96.0
1490,81.0,0,512,6.0,96.0
1491,74.0,512,0,7.0,96.0
1492,78.0,0,512,5.0,96.0
1493,81.0,0,0,5.0,96.0
1494,69.0,0,1024,5.0,96.0
1495,69.0,0,512,7.0,96.0
1496,66.0,0,512,7.0,96.0
1497,50.0,0,0,4.0,96.0
1498,81.0,0,512,6.0,96.0
1499,78.0,0,512,6.0,96.0
1500,78.0,0,512,5.0,96.0
1501,76.0,0,256,5.0,96.0
1502,69.0,0,256,5.0,96.0
1503,50.0,0,0,4.0,96.0
1504,76.0,0,256,6.0,96.0
1505,79.0,0,256,6.0,96.0
1506,79.0,0,256,5.0,96.0
1507,74.0,256,256,5.0,96.0
1508,78.0,0,256,5.0,96.0
1509,69.0,0,256,5.0,96.0
1510,67.0,0,512,7.0,96.0
1511,73.0,0,0,7.0,96.0
1512,76.0,0,0,7.0,96.0
1513,50.0,256,0,4.0,96.0
1514,74.0,0,256,6.0,96.0
1515,78.0,0,256,6.0,96.0
1516,79.0,0,512,5.0,96.0
1517,76.0,0,512,5.0,96.0
1518,79.0,0,512,6.0,96.0
1519,76.0,0,512,6.0,96.0
1520,67.0,0,512,7.0,96.0
1521,74.0,512,256,5.0,96.0
1522,78.0,0,256,6.0,96.0
1523,78.0,0,256,5.0,96.0
1524,74.0,0,256,6.0,96.0
1525,69.0,0,1024,5.0,96.0
1526,73.0,0,256,5.0,96.0
1527,78.0,0,512,7.0,96.0
1528,74.0,0,512,7.0,96.0
1529,69.0,0,0,7.0,96.0
1530,76.0,0,256,5.0,96.0
1531,73.0,256,256,6.0,96.0
1532,50.0,0,1024,4.0,96.0
1533,76.0,0,256,6.0,96.0
1534,74.0,256,512,5.0,96.0
1535,74.0,0,512,7.0,96.0
1536,78.0,0,512,7.0,96.0
1537,74.0,0,512,6.0,96.0
1538,78.0,0,512,6.0,96.0
1539,78.0,0,512,5.0,96.0
1540,76.0,0,256,5.0,96.0
1541,66.0,0,256,5.0,96.0
1542,73.0,0,256,6.0,96.0
1543,76.0,0,256,6.0,96.0
1544,50.0,0,0,4.0,96.0
1545,79.0,0,256,7.0,96.0
1546,76.0,512,256,7.0,96.0
1547,74.0,0,256,6.0,96.0
1548,69.0,0,512,7.0,96.0
1549,78.0,0,256,7.0,96.0
1550,81.0,0,256,7.0,96.0
1551,71.0,0,256,6.0,96.0
1552,66.0,0,256,5.0,96.0
1553,69.0,0,0,5.0,96.0
1554,74.0,256,256,5.0,96.0
1555,76.0,0,256,6.0,96.0
1556,73.0,0,256,6.0,96.0
1557,76.0,0,256,5.0,96.0
1558,45.0,0,512,4.0,96.0
1559,69.0,0,0,7.0,96.0
1560,76.0,0,512,7.0,96.0
1561,79.0,0,512,7.0,96.0
1562,74.0,256,256,6.0,96.0
1563,78.0,0,256,6.0,96.0
1564,78.0,0,256,5.0,96.0
1565,57.0,0,512,4.0,96.0
1566,69.0,0,0,5.0,96.0
1567,79.0,0,512,5.0,96.0
1568,76.0,512,0,5.0,96.0
1569,76.0,0,0,6.0,96.0
1570,79.0,0,512,6.0,96.0
1571,76.0,0,512,7.0,96.0
1572,69.0,0,0,7.0,96.0
1573,52.0,0,512,4.0,96.0
1574,45.0,0,0,4.0,96.0
1575,73.0,0,512,7.0,96.0
1576,45.0,512,0,4.0,96.0
1577,73.0,0,512,7.0,96.0
1578,76.0,0,512,7.0,96.0
1579,69.0,0,0,7.0,96.0
1580,79.0,0,512,6.0,96.0
1581,69.0,0,512,5.0,96.0
1582,79.0,0,512,5.0,96.0
1583,49.0,0,512,4.0,96.0
1584,74.0,0,256,6.0,96.0
1585,78.0,0,256,6.0,96.0
1586,74.0,0,256,7.0,96.0
1587,74.0,0,256,5.0,96.0
1588,78.0,0,256,7.0,96.0
1589,78.0,0,256,5.0,96.0
1590,45.0,0,512,4.0,96.0
1591,45.0,256,0,4.0,96.0
1592,76.0,0,256,7.0,96.0
1593,79.0,0,256,7.0,96.0
1594,76.0,0,256,6.0,96.0
1595,73.0,0,256,5.0,96.0
1596,76.0,0,256,5.0,96.0
1597,69.0,0,0,5.0,96.0
1598,73.0,256,256,6.0,96.0
1599,74.0,0,512,6.0,96.0
1600,78.0,0,512,6.0,96.0
1601,74.0,0,512,5.0,96.0
1602,78.0,0,512,5.0,96.0
1603,78.0,0,512,7.0,96.0
1604,69.0,0,512,7.0,96.0
1605,74.0,0,512,7.0,96.0
1606,50.0,0,512,4.0,96.0
1607,76.0,0,256,6.0,96.0
1608,76.0,0,256,7.0,96.0
1609,76.0,0,256,5.0,96.0
1610,69.0,512,512,6.0,96.0
1611,74.0,256,256,6.0,96.0
1612,69.0,0,512,5.0,96.0
1613,74.0,0,256,7.0,96.0
1614,74.0,0,256,5.0,96.0
1615,69.0,0,0,5.0,96.0
1616,54.0,0,512,4.0,96.0
1617,45.0,0,0,4.0,96.0
1618,69.0,0,0,7.0,96.0
1619,81.0,0,512,7.0,96.0
1620,76.0,0,512,7.0,96.0
1621,81.0,256,512,6.0,96.0
1622,76.0,0,0,5.0,96.0
1623,81.0,0,512,5.0,96.0
1624,49.0,0,512,4.0,96.0
1625,76.0,0,512,6.0,96.0
1626,45.0,0,0,4.0,96.0
1627,69.0,0,0,5.0,96.0
1628,69.0,512,0,7.0,96.0
1629,73.0,0,512,7.0,96.0
1630,79.0,512,512,7.0,96.0
1631,45.0,0,512,4.0,96.0
1632,79.0,0,512,5.0,96.0
1633,69.0,0,512,6.0,96.0
1634,79.0,0,512,6.0,96.0
1635,74.0,0,512,5.0,96.0
1636,78.0,0,512,5.0,96.0
1637,78.0,0,512,6.0,96.0
1638,74.0,0,512,6.0,96.0
1639,50.0,0,512,4.0,96.0
1640,50.0,0,0,4.0,96.0
1641,74.0,0,0,7.0,96.0
1642,78.0,0,512,7.0,96.0
1643,76.0,0,256,7.0,96.0
1644,76.0,512,256,5.0,96.0
1645,76.0,0,256,6.0,96.0
1646,78.0,0,256,7.0,96.0
1647,74.0,0,512,6.0,96.0
1648,71.0,0,512,7.0,96.0
1649,78.0,256,256,6.0,96.0
1650,50.0,0,256,4.0,96.0
1651,55.0,0,512,4.0,96.0
1652,62.0,0,512,5.0,96.0
1653,78.0,0,256,5.0,96.0
1654,74.0,0,0,5.0,96.0
1655,74.0,0,512,6.0,96.0
1656,69.0,0,512,7.0,96.0
1657,74.0,0,512,7.0,96.0
1658,79.0,0,512,6.0,96.0
1659,79.0,256,512,7.0,96.0
1660,57.0,0,512,4.0,96.0
1661,45.0,0,0,4.0,96.0
1662,69.0,0,512,5.0,96.0
1663,79.0,0,512,5.0,96.0
1664,69.0,256,0,5.0,96.0
1665,78.0,0,256,6.0,96.0
1666,78.0,0,256,5.0,96.0
1667,78.0,0,256,7.0,96.0
1668,45.0,0,0,4.0,96.0
1669,69.0,0,512,7.0,96.0
1670,69.0,0,0,5.0,96.0
1671,76.0,0,256,5.0,96.0
1672,73.0,512,512,6.0,96.0
1673,76.0,0,256,6.0,96.0
1674,76.0,0,256,7.0,96.0
1675,73.0,0,512,7.0,96.0
1676,69.0,0,4096,7.0,96.0
1677,74.0,0,4096,7.0,96.0
1678,69.0,0,4096,6.0,96.0
1679,50.0,0,4096,4.0,96.0
1680,38.0,0,4096,4.0,96.0
1681,74.0,0,4096,5.0,96.0
1682,66.0,0,4096,5.0,96.0
1683,74.0,0,4096,6.0,96.0
