tick,type,numerator,denominator,clocks_per_click,notated_32nd_notes_per_beat,time,meta,track,key,tempo,note,velocity,channel
0,time_signature,4,4,24,8,0,1,0,,,,,
0,track_name,,,,,0,1,3,,,,,
0,note_on,,,,,0,0,3,,,55,96,2
0,track_name,,,,,0,1,4,,,,,
0,note_on,,,,,0,0,4,,,51,96,3
0,note_on,,,,,0,0,2,,,58,96,1
0,track_name,,,,,0,1,2,,,,,
0,set_tempo,,,,,0,1,0,,324324,,,
0,track_name,,,,,0,1,1,,,,,
0,key_signature,,,,,0,1,0,Eb,,,,
0,note_on,,,,,0,0,1,,,63,96,0
2048,note_on,,,,,0,0,2,,,63,96,1
2048,note_off,,,,,2048,0,3,,,55,0,2
2048,note_on,,,,,0,0,3,,,58,96,2
2048,note_off,,,,,2048,0,1,,,63,0,0
2048,note_off,,,,,2048,0,2,,,58,0,1
2048,note_on,,,,,0,0,1,,,67,96,0
4096,note_off,,,,,2048,0,2,,,63,0,1
4096,note_on,,,,,0,0,2,,,67,96,1
4096,note_on,,,,,0,0,1,,,70,96,0
4096,note_off,,,,,2048,0,3,,,58,0,2
4096,note_on,,,,,0,0,3,,,63,96,2
4096,note_off,,,,,2048,0,1,,,67,0,0
5120,note_on,,,,,0,0,4,,,55,96,3
5120,note_off,,,,,5120,0,4,,,51,0,3
6144,note_on,,,,,0,0,3,,,62,96,2
6144,note_off,,,,,2048,0,3,,,63,0,2
6144,note_off,,,,,2048,0,2,,,67,0,1
6144,note_on,,,,,0,0,2,,,65,96,1
6144,note_off,,,,,1024,0,4,,,55,0,3
6144,note_on,,,,,0,0,4,,,58,96,3
7168,note_off,,,,,1024,0,4,,,58,0,3
7168,note_off,,,,,3072,0,1,,,70,0,0
7168,note_on,,,,,0,0,1,,,70,96,0
7168,note_on,,,,,0,0,4,,,56,96,3
8192,note_off,,,,,1024,0,4,,,56,0,3
8192,note_on,,,,,0,0,4,,,55,96,3
8192,note_on,,,,,0,0,3,,,63,96,2
8192,note_off,,,,,2048,0,3,,,62,0,2
8192,note_on,,,,,0,0,1,,,70,96,0
8192,note_off,,,,,2048,0,2,,,65,0,1
8192,note_on,,,,,0,0,2,,,67,96,1
8192,note_off,,,,,1024,0,1,,,70,0,0
9216,note_off,,,,,1024,0,4,,,55,0,3
9216,note_on,,,,,0,0,4,,,53,96,3
10240,note_on,,,,,0,0,1,,,70,96,0
10240,note_off,,,,,2048,0,1,,,70,0,0
10240,note_on,,,,,0,0,3,,,58,96,2
10240,note_off,,,,,2048,0,2,,,67,0,1
10240,note_off,,,,,1024,0,4,,,53,0,3
10240,note_on,,,,,0,0,2,,,65,96,1
10240,note_off,,,,,2048,0,3,,,63,0,2
10240,note_on,,,,,0,0,4,,,51,96,3
11264,note_off,,,,,1024,0,4,,,51,0,3
11264,note_on,,,,,0,0,4,,,50,96,3
12288,note_on,,,,,0,0,2,,,67,96,1
12288,note_off,,,,,2048,0,2,,,65,0,1
12288,note_off,,,,,1024,0,4,,,50,0,3
12288,note_on,,,,,0,0,4,,,51,96,3
12288,note_on,,,,,0,0,3,,,58,96,2
12288,note_on,,,,,0,0,1,,,72,96,0
12288,note_off,,,,,2048,0,3,,,58,0,2
12288,note_off,,,,,2048,0,1,,,70,0,0
13312,note_on,,,,,0,0,4,,,48,96,3
13312,note_off,,,,,1024,0,4,,,51,0,3
14336,note_off,,,,,1024,0,4,,,48,0,3
14336,note_off,,,,,2048,0,2,,,67,0,1
14336,note_off,,,,,2048,0,3,,,58,0,2
14336,note_on,,,,,0,0,2,,,65,96,1
14336,note_on,,,,,0,0,4,,,53,96,3
14336,note_on,,,,,0,0,3,,,57,96,2
16384,note_on,,,,,0,0,4,,,46,96,3
16384,note_on,,,,,0,0,3,,,62,96,2
16384,note_on,,,,,0,0,1,,,70,96,0
16384,note_off,,,,,4096,0,1,,,72,0,0
16384,note_on,,,,,0,0,2,,,65,96,1
16384,note_off,,,,,2048,0,4,,,53,0,3
16384,note_off,,,,,2048,0,3,,,57,0,2
16384,note_off,,,,,2048,0,2,,,65,0,1
20480,note_off,,,,,4096,0,2,,,65,0,1
20480,note_off,,,,,4096,0,3,,,62,0,2
20480,note_off,,,,,4096,0,4,,,46,0,3
20480,note_off,,,,,4096,0,1,,,70,0,0
22528,note_on,,,,,2048,0,3,,,62,96,2
22528,note_on,,,,,2048,0,4,,,58,96,3
22528,note_on,,,,,2048,0,1,,,70,96,0
22528,note_on,,,,,2048,0,2,,,65,96,1
23552,note_on,,,,,0,0,4,,,56,96,3
23552,note_off,,,,,1024,0,4,,,58,0,3
24576,note_on,,,,,0,0,4,,,55,96,3
24576,note_off,,,,,1024,0,4,,,56,0,3
24576,note_on,,,,,0,0,1,,,75,96,0
24576,note_off,,,,,2048,0,2,,,65,0,1
24576,note_off,,,,,2048,0,1,,,70,0,0
24576,note_on,,,,,0,0,3,,,63,96,2
24576,note_off,,,,,2048,0,3,,,62,0,2
24576,note_on,,,,,0,0,2,,,70,96,1
25600,note_on,,,,,0,0,4,,,56,96,3
25600,note_off,,,,,1024,0,4,,,55,0,3
26624,note_on,,,,,0,0,4,,,55,96,3
26624,note_off,,,,,1024,0,4,,,56,0,3
26624,note_off,,,,,2048,0,3,,,63,0,2
26624,note_on,,,,,0,0,1,,,70,96,0
26624,note_off,,,,,2048,0,1,,,75,0,0
26624,note_on,,,,,0,0,3,,,63,96,2
27648,note_on,,,,,0,0,2,,,68,96,1
27648,note_off,,,,,1024,0,4,,,55,0,3
27648,note_on,,,,,0,0,4,,,53,96,3
27648,note_off,,,,,3072,0,2,,,70,0,1
28672,note_on,,,,,0,0,3,,,58,96,2
28672,note_on,,,,,0,0,4,,,51,96,3
28672,note_on,,,,,0,0,2,,,67,96,1
28672,note_off,,,,,1024,0,2,,,68,0,1
28672,note_off,,,,,1024,0,4,,,53,0,3
28672,note_off,,,,,2048,0,3,,,63,0,2
28672,note_off,,,,,2048,0,1,,,70,0,0
28672,note_on,,,,,0,0,1,,,75,96,0
29696,note_off,,,,,1024,0,1,,,75,0,0
29696,note_off,,,,,1024,0,2,,,67,0,1
29696,note_on,,,,,0,0,2,,,68,96,1
29696,note_on,,,,,0,0,1,,,77,96,0
30720,note_on,,,,,0,0,2,,,70,96,1
30720,note_on,,,,,0,0,3,,,63,96,2
30720,note_on,,,,,0,0,4,,,63,96,3
30720,note_off,,,,,2048,0,4,,,51,0,3
30720,note_off,,,,,2048,0,3,,,58,0,2
30720,note_on,,,,,0,0,1,,,79,96,0
30720,note_off,,,,,1024,0,2,,,68,0,1
30720,note_off,,,,,1024,0,1,,,77,0,0
32768,note_on,,,,,0,0,2,,,70,96,1
32768,note_off,,,,,2048,0,1,,,79,0,0
32768,note_on,,,,,0,0,1,,,77,96,0
32768,note_off,,,,,2048,0,4,,,63,0,3
32768,note_on,,,,,0,0,4,,,62,96,3
32768,note_on,,,,,0,0,3,,,65,96,2
32768,note_off,,,,,2048,0,3,,,63,0,2
32768,note_off,,,,,2048,0,2,,,70,0,1
33792,note_off,,,,,1024,0,4,,,62,0,3
33792,note_on,,,,,0,0,4,,,60,96,3
34816,note_off,,,,,2048,0,3,,,65,0,2
34816,note_on,,,,,0,0,3,,,65,96,2
34816,note_on,,,,,0,0,2,,,72,96,1
34816,note_off,,,,,1024,0,4,,,60,0,3
34816,note_off,,,,,2048,0,2,,,70,0,1
34816,note_on,,,,,0,0,4,,,58,96,3
34816,note_off,,,,,2048,0,1,,,77,0,0
34816,note_on,,,,,0,0,1,,,75,96,0
35840,note_on,,,,,0,0,4,,,57,96,3
35840,note_off,,,,,1024,0,4,,,58,0,3
36864,note_on,,,,,0,0,3,,,65,96,2
36864,note_on,,,,,0,0,1,,,74,96,0
36864,note_off,,,,,2048,0,3,,,65,0,2
36864,note_on,,,,,0,0,4,,,58,96,3
36864,note_off,,,,,2048,0,1,,,75,0,0
36864,note_off,,,,,1024,0,4,,,57,0,3
36864,note_on,,,,,0,0,2,,,72,96,1
36864,note_off,,,,,2048,0,2,,,72,0,1
37888,note_off,,,,,1024,0,2,,,72,0,1
37888,note_on,,,,,0,0,2,,,70,96,1
38912,note_on,,,,,0,0,4,,,53,96,3
38912,note_off,,,,,2048,0,4,,,58,0,3
38912,note_off,,,,,2048,0,1,,,74,0,0
38912,note_on,,,,,0,0,1,,,72,96,0
39936,note_on,,,,,0,0,2,,,69,96,1
39936,note_off,,,,,2048,0,2,,,70,0,1
39936,note_off,,,,,3072,0,3,,,65,0,2
39936,note_on,,,,,0,0,3,,,60,96,2
40960,note_off,,,,,1024,0,2,,,69,0,1
40960,note_on,,,,,0,0,3,,,62,96,2
40960,note_off,,,,,1024,0,3,,,60,0,2
40960,note_on,,,,,0,0,2,,,65,96,1
40960,note_off,,,,,2048,0,1,,,72,0,0
40960,note_on,,,,,0,0,1,,,70,96,0
40960,note_off,,,,,2048,0,4,,,53,0,3
40960,note_on,,,,,0,0,4,,,46,96,3
45056,note_off,,,,,4096,0,1,,,70,0,0
45056,note_off,,,,,4096,0,4,,,46,0,3
45056,note_off,,,,,4096,0,2,,,65,0,1
45056,note_off,,,,,4096,0,3,,,62,0,2
47104,note_on,,,,,2048,0,1,,,70,96,0
47104,note_on,,,,,2048,0,2,,,67,96,1
47104,note_on,,,,,2048,0,3,,,63,96,2
47104,note_on,,,,,2048,0,4,,,51,96,3
48128,note_on,,,,,0,0,4,,,49,96,3
48128,note_off,,,,,1024,0,4,,,51,0,3
49152,note_off,,,,,1024,0,4,,,49,0,3
49152,note_on,,,,,0,0,2,,,68,96,1
49152,note_off,,,,,2048,0,2,,,67,0,1
49152,note_on,,,,,0,0,3,,,63,96,2
49152,note_off,,,,,2048,0,3,,,63,0,2
49152,note_on,,,,,0,0,4,,,48,96,3
49152,note_on,,,,,0,0,1,,,75,96,0
49152,note_off,,,,,2048,0,1,,,70,0,0
50176,note_off,,,,,1024,0,4,,,48,0,3
50176,note_on,,,,,0,0,4,,,50,96,3
51200,note_off,,,,,2048,0,1,,,75,0,0
51200,note_off,,,,,1024,0,4,,,50,0,3
51200,note_on,,,,,0,0,4,,,51,96,3
51200,note_off,,,,,2048,0,2,,,68,0,1
51200,note_on,,,,,0,0,1,,,70,96,0
51200,note_on,,,,,0,0,2,,,67,96,1
51200,note_off,,,,,2048,0,3,,,63,0,2
51200,note_on,,,,,0,0,3,,,63,96,2
52224,note_off,,,,,1024,0,3,,,63,0,2
52224,note_on,,,,,0,0,3,,,61,96,2
53248,note_off,,,,,1024,0,3,,,61,0,2
53248,note_on,,,,,0,0,3,,,60,96,2
53248,note_off,,,,,2048,0,1,,,70,0,0
53248,note_on,,,,,0,0,4,,,56,96,3
53248,note_off,,,,,2048,0,2,,,67,0,1
53248,note_on,,,,,0,0,2,,,63,96,1
53248,note_on,,,,,0,0,1,,,72,96,0
53248,note_off,,,,,2048,0,4,,,51,0,3
54272,note_off,,,,,1024,0,4,,,56,0,3
54272,note_on,,,,,0,0,4,,,58,96,3
55296,note_off,,,,,1024,0,4,,,58,0,3
55296,note_on,,,,,0,0,4,,,60,96,3
55296,note_off,,,,,2048,0,2,,,63,0,1
55296,note_on,,,,,0,0,1,,,67,96,0
55296,note_off,,,,,2048,0,1,,,72,0,0
55296,note_on,,,,,0,0,2,,,63,96,1
55296,note_off,,,,,2048,0,3,,,60,0,2
55296,note_on,,,,,0,0,3,,,60,96,2
57344,note_off,,,,,2048,0,1,,,67,0,0
57344,note_on,,,,,0,0,1,,,68,96,0
57344,note_on,,,,,0,0,2,,,63,96,1
57344,note_on,,,,,0,0,4,,,53,96,3
57344,note_off,,,,,2048,0,4,,,60,0,3
57344,note_off,,,,,2048,0,3,,,60,0,2
57344,note_on,,,,,0,0,3,,,60,96,2
57344,note_off,,,,,2048,0,2,,,63,0,1
58368,note_on,,,,,0,0,3,,,58,96,2
58368,note_on,,,,,0,0,1,,,67,96,0
58368,note_off,,,,,1024,0,3,,,60,0,2
58368,note_off,,,,,1024,0,1,,,68,0,0
59392,note_off,,,,,1024,0,3,,,58,0,2
59392,note_on,,,,,0,0,3,,,56,96,2
59392,note_off,,,,,2048,0,4,,,53,0,3
59392,note_on,,,,,0,0,4,,,46,96,3
59392,note_on,,,,,0,0,1,,,65,96,0
59392,note_off,,,,,1024,0,1,,,67,0,0
59392,note_off,,,,,2048,0,2,,,63,0,1
59392,note_on,,,,,0,0,2,,,62,96,1
61440,note_on,,,,,0,0,1,,,63,96,0
61440,note_off,,,,,2048,0,1,,,65,0,0
61440,note_on,,,,,0,0,2,,,58,96,1
61440,note_off,,,,,2048,0,4,,,46,0,3
61440,note_off,,,,,2048,0,2,,,62,0,1
61440,note_on,,,,,0,0,3,,,55,96,2
61440,note_off,,,,,2048,0,3,,,56,0,2
61440,note_on,,,,,0,0,4,,,51,96,3
65536,note_off,,,,,4096,0,4,,,51,0,3
65536,note_on,,,,,0,0,3,,,55,96,2
65536,note_off,,,,,4096,0,3,,,55,0,2
65536,note_off,,,,,4096,0,1,,,63,0,0
65536,note_on,,,,,0,0,1,,,63,96,0
65536,note_on,,,,,0,0,4,,,51,96,3
65536,note_on,,,,,0,0,2,,,58,96,1
65536,note_off,,,,,4096,0,2,,,58,0,1
67584,note_off,,,,,2048,0,3,,,55,0,2
67584,note_off,,,,,2048,0,2,,,58,0,1
67584,note_off,,,,,2048,0,1,,,63,0,0
67584,note_on,,,,,0,0,3,,,58,96,2
67584,note_on,,,,,0,0,2,,,63,96,1
67584,note_on,,,,,0,0,1,,,67,96,0
69632,note_on,,,,,0,0,2,,,67,96,1
69632,note_on,,,,,0,0,3,,,63,96,2
69632,note_off,,,,,2048,0,3,,,58,0,2
69632,note_off,,,,,2048,0,2,,,63,0,1
69632,note_off,,,,,2048,0,1,,,67,0,0
69632,note_on,,,,,0,0,1,,,70,96,0
70656,note_on,,,,,0,0,4,,,55,96,3
70656,note_off,,,,,5120,0,4,,,51,0,3
71680,note_on,,,,,0,0,4,,,58,96,3
71680,note_on,,,,,0,0,2,,,65,96,1
71680,note_off,,,,,2048,0,3,,,63,0,2
71680,note_on,,,,,0,0,3,,,62,96,2
71680,note_off,,,,,2048,0,2,,,67,0,1
71680,note_off,,,,,1024,0,4,,,55,0,3
72704,note_on,,,,,0,0,1,,,70,96,0
72704,note_off,,,,,1024,0,4,,,58,0,3
72704,note_off,,,,,3072,0,1,,,70,0,0
72704,note_on,,,,,0,0,4,,,56,96,3
73728,note_off,,,,,2048,0,2,,,65,0,1
73728,note_on,,,,,0,0,4,,,55,96,3
73728,note_off,,,,,1024,0,4,,,56,0,3
73728,note_off,,,,,1024,0,1,,,70,0,0
73728,note_on,,,,,0,0,1,,,70,96,0
73728,note_off,,,,,2048,0,3,,,62,0,2
73728,note_on,,,,,0,0,3,,,63,96,2
73728,note_on,,,,,0,0,2,,,67,96,1
74752,note_off,,,,,1024,0,4,,,55,0,3
74752,note_on,,,,,0,0,4,,,53,96,3
75776,note_off,,,,,2048,0,2,,,67,0,1
75776,note_on,,,,,0,0,2,,,65,96,1
75776,note_on,,,,,0,0,1,,,70,96,0
75776,note_off,,,,,1024,0,4,,,53,0,3
75776,note_on,,,,,0,0,4,,,51,96,3
75776,note_off,,,,,2048,0,3,,,63,0,2
75776,note_on,,,,,0,0,3,,,58,96,2
75776,note_off,,,,,2048,0,1,,,70,0,0
76800,note_off,,,,,1024,0,4,,,51,0,3
76800,note_on,,,,,0,0,4,,,50,96,3
77824,note_on,,,,,0,0,2,,,67,96,1
77824,note_on,,,,,0,0,1,,,72,96,0
77824,note_off,,,,,2048,0,1,,,70,0,0
77824,note_off,,,,,2048,0,2,,,65,0,1
77824,note_on,,,,,0,0,4,,,51,96,3
77824,note_off,,,,,1024,0,4,,,50,0,3
77824,note_off,,,,,2048,0,3,,,58,0,2
77824,note_on,,,,,0,0,3,,,58,96,2
78848,note_on,,,,,0,0,4,,,48,96,3
78848,note_off,,,,,1024,0,4,,,51,0,3
79872,note_on,,,,,0,0,2,,,65,96,1
79872,note_off,,,,,2048,0,2,,,67,0,1
79872,note_on,,,,,0,0,3,,,57,96,2
79872,note_off,,,,,1024,0,4,,,48,0,3
79872,note_on,,,,,0,0,4,,,53,96,3
79872,note_off,,,,,2048,0,3,,,58,0,2
81920,note_on,,,,,0,0,1,,,70,96,0
81920,note_off,,,,,2048,0,3,,,57,0,2
81920,note_off,,,,,2048,0,2,,,65,0,1
81920,note_on,,,,,0,0,2,,,65,96,1
81920,note_on,,,,,0,0,3,,,62,96,2
81920,note_off,,,,,4096,0,1,,,72,0,0
81920,note_on,,,,,0,0,4,,,46,96,3
81920,note_off,,,,,2048,0,4,,,53,0,3
86016,note_off,,,,,4096,0,1,,,70,0,0
86016,note_off,,,,,4096,0,3,,,62,0,2
86016,note_off,,,,,4096,0,4,,,46,0,3
86016,note_off,,,,,4096,0,2,,,65,0,1
88064,note_on,,,,,2048,0,1,,,70,96,0
88064,note_on,,,,,2048,0,3,,,62,96,2
88064,note_on,,,,,2048,0,4,,,58,96,3
88064,note_on,,,,,2048,0,2,,,65,96,1
89088,note_off,,,,,1024,0,4,,,58,0,3
89088,note_on,,,,,0,0,4,,,56,96,3
90112,note_on,,,,,0,0,3,,,63,96,2
90112,note_off,,,,,2048,0,3,,,62,0,2
90112,note_off,,,,,1024,0,4,,,56,0,3
90112,note_on,,,,,0,0,4,,,55,96,3
90112,note_on,,,,,0,0,1,,,75,96,0
90112,note_off,,,,,2048,0,2,,,65,0,1
90112,note_on,,,,,0,0,2,,,70,96,1
90112,note_off,,,,,2048,0,1,,,70,0,0
91136,note_on,,,,,0,0,4,,,56,96,3
91136,note_off,,,,,1024,0,4,,,55,0,3
92160,note_on,,,,,0,0,3,,,63,96,2
92160,note_off,,,,,2048,0,3,,,63,0,2
92160,note_on,,,,,0,0,1,,,70,96,0
92160,note_off,,,,,1024,0,4,,,56,0,3
92160,note_off,,,,,2048,0,1,,,75,0,0
92160,note_on,,,,,0,0,4,,,55,96,3
93184,note_off,,,,,1024,0,4,,,55,0,3
93184,note_on,,,,,0,0,2,,,68,96,1
93184,note_off,,,,,3072,0,2,,,70,0,1
93184,note_on,,,,,0,0,4,,,53,96,3
94208,note_on,,,,,0,0,1,,,75,96,0
94208,note_off,,,,,2048,0,1,,,70,0,0
94208,note_on,,,,,0,0,3,,,58,96,2
94208,note_off,,,,,2048,0,3,,,63,0,2
94208,note_on,,,,,0,0,2,,,67,96,1
94208,note_off,,,,,1024,0,2,,,68,0,1
94208,note_off,,,,,1024,0,4,,,53,0,3
94208,note_on,,,,,0,0,4,,,51,96,3
95232,note_on,,,,,0,0,2,,,68,96,1
95232,note_off,,,,,1024,0,1,,,75,0,0
95232,note_on,,,,,0,0,1,,,77,96,0
95232,note_off,,,,,1024,0,2,,,67,0,1
96256,note_off,,,,,1024,0,2,,,68,0,1
96256,note_on,,,,,0,0,2,,,70,96,1
96256,note_on,,,,,0,0,1,,,79,96,0
96256,note_off,,,,,1024,0,1,,,77,0,0
96256,note_on,,,,,0,0,4,,,63,96,3
96256,note_off,,,,,2048,0,4,,,51,0,3
96256,note_off,,,,,2048,0,3,,,58,0,2
96256,note_on,,,,,0,0,3,,,63,96,2
98304,note_off,,,,,2048,0,2,,,70,0,1
98304,note_on,,,,,0,0,2,,,70,96,1
98304,note_off,,,,,2048,0,3,,,63,0,2
98304,note_off,,,,,2048,0,1,,,79,0,0
98304,note_on,,,,,0,0,4,,,62,96,3
98304,note_off,,,,,2048,0,4,,,63,0,3
98304,note_on,,,,,0,0,1,,,77,96,0
98304,note_on,,,,,0,0,3,,,65,96,2
99328,note_on,,,,,0,0,4,,,60,96,3
99328,note_off,,,,,1024,0,4,,,62,0,3
100352,note_off,,,,,2048,0,1,,,77,0,0
100352,note_on,,,,,0,0,1,,,75,96,0
100352,note_off,,,,,2048,0,3,,,65,0,2
100352,note_off,,,,,2048,0,2,,,70,0,1
100352,note_on,,,,,0,0,2,,,72,96,1
100352,note_on,,,,,0,0,3,,,65,96,2
100352,note_off,,,,,1024,0,4,,,60,0,3
100352,note_on,,,,,0,0,4,,,58,96,3
101376,note_off,,,,,1024,0,4,,,58,0,3
101376,note_on,,,,,0,0,4,,,57,96,3
102400,note_on,,,,,0,0,2,,,72,96,1
102400,note_on,,,,,0,0,3,,,65,96,2
102400,note_off,,,,,2048,0,3,,,65,0,2
102400,note_off,,,,,2048,0,2,,,72,0,1
102400,note_off,,,,,2048,0,1,,,75,0,0
102400,note_on,,,,,0,0,4,,,58,96,3
102400,note_off,,,,,1024,0,4,,,57,0,3
102400,note_on,,,,,0,0,1,,,74,96,0
103424,note_on,,,,,0,0,2,,,70,96,1
103424,note_off,,,,,1024,0,2,,,72,0,1
104448,note_off,,,,,2048,0,1,,,74,0,0
104448,note_on,,,,,0,0,1,,,72,96,0
104448,note_off,,,,,2048,0,4,,,58,0,3
104448,note_on,,,,,0,0,4,,,53,96,3
105472,note_on,,,,,0,0,2,,,69,96,1
105472,note_off,,,,,2048,0,2,,,70,0,1
105472,note_on,,,,,0,0,3,,,60,96,2
105472,note_off,,,,,3072,0,3,,,65,0,2
106496,note_off,,,,,1024,0,2,,,69,0,1
106496,note_on,,,,,0,0,3,,,62,96,2
106496,note_off,,,,,1024,0,3,,,60,0,2
106496,note_on,,,,,0,0,4,,,46,96,3
106496,note_on,,,,,0,0,2,,,65,96,1
106496,note_off,,,,,2048,0,4,,,53,0,3
106496,note_on,,,,,0,0,1,,,70,96,0
106496,note_off,,,,,2048,0,1,,,72,0,0
110592,note_off,,,,,4096,0,4,,,46,0,3
110592,note_off,,,,,4096,0,3,,,62,0,2
110592,note_off,,,,,4096,0,1,,,70,0,0
110592,note_off,,,,,4096,0,2,,,65,0,1
112640,note_on,,,,,2048,0,2,,,67,96,1
112640,note_on,,,,,2048,0,1,,,70,96,0
112640,note_on,,,,,2048,0,4,,,51,96,3
112640,note_on,,,,,2048,0,3,,,63,96,2
113664,note_off,,,,,1024,0,4,,,51,0,3
113664,note_on,,,,,0,0,4,,,49,96,3
114688,note_on,,,,,0,0,1,,,75,96,0
114688,note_off,,,,,2048,0,1,,,70,0,0
114688,note_on,,,,,0,0,3,,,63,96,2
114688,note_on,,,,,0,0,4,,,48,96,3
114688,note_off,,,,,1024,0,4,,,49,0,3
114688,note_off,,,,,2048,0,3,,,63,0,2
114688,note_off,,,,,2048,0,2,,,67,0,1
114688,note_on,,,,,0,0,2,,,68,96,1
115712,note_on,,,,,0,0,4,,,50,96,3
115712,note_off,,,,,1024,0,4,,,48,0,3
116736,note_on,,,,,0,0,4,,,51,96,3
116736,note_off,,,,,1024,0,4,,,50,0,3
116736,note_off,,,,,2048,0,3,,,63,0,2
116736,note_off,,,,,2048,0,1,,,75,0,0
116736,note_off,,,,,2048,0,2,,,68,0,1
116736,note_on,,,,,0,0,3,,,63,96,2
116736,note_on,,,,,0,0,1,,,70,96,0
116736,note_on,,,,,0,0,2,,,67,96,1
117760,note_on,,,,,0,0,3,,,61,96,2
117760,note_off,,,,,1024,0,3,,,63,0,2
118784,note_on,,,,,0,0,4,,,56,96,3
118784,note_off,,,,,2048,0,4,,,51,0,3
118784,note_off,,,,,2048,0,2,,,67,0,1
118784,note_on,,,,,0,0,3,,,60,96,2
118784,note_on,,,,,0,0,1,,,72,96,0
118784,note_on,,,,,0,0,2,,,63,96,1
118784,note_off,,,,,1024,0,3,,,61,0,2
118784,note_off,,,,,2048,0,1,,,70,0,0
119808,note_off,,,,,1024,0,4,,,56,0,3
119808,note_on,,,,,0,0,4,,,58,96,3
120832,note_off,,,,,2048,0,1,,,72,0,0
120832,note_on,,,,,0,0,1,,,67,96,0
120832,note_on,,,,,0,0,4,,,60,96,3
120832,note_off,,,,,1024,0,4,,,58,0,3
120832,note_on,,,,,0,0,3,,,60,96,2
120832,note_off,,,,,2048,0,3,,,60,0,2
120832,note_on,,,,,0,0,2,,,63,96,1
120832,note_off,,,,,2048,0,2,,,63,0,1
122880,note_on,,,,,0,0,2,,,63,96,1
122880,note_off,,,,,2048,0,2,,,63,0,1
122880,note_on,,,,,0,0,4,,,53,96,3
122880,note_off,,,,,2048,0,1,,,67,0,0
122880,note_on,,,,,0,0,1,,,68,96,0
122880,note_on,,,,,0,0,3,,,60,96,2
122880,note_off,,,,,2048,0,4,,,60,0,3
122880,note_off,,,,,2048,0,3,,,60,0,2
123904,note_off,,,,,1024,0,3,,,60,0,2
123904,note_on,,,,,0,0,3,,,58,96,2
123904,note_off,,,,,1024,0,1,,,68,0,0
123904,note_on,,,,,0,0,1,,,67,96,0
124928,note_on,,,,,0,0,2,,,62,96,1
124928,note_on,,,,,0,0,4,,,46,96,3
124928,note_off,,,,,2048,0,4,,,53,0,3
124928,note_on,,,,,0,0,1,,,65,96,0
124928,note_off,,,,,1024,0,3,,,58,0,2
124928,note_on,,,,,0,0,3,,,56,96,2
124928,note_off,,,,,2048,0,2,,,63,0,1
124928,note_off,,,,,1024,0,1,,,67,0,0
126976,note_off,,,,,2048,0,4,,,46,0,3
126976,note_off,,,,,2048,0,3,,,56,0,2
126976,note_on,,,,,0,0,3,,,55,96,2
126976,note_on,,,,,0,0,4,,,51,96,3
126976,note_on,,,,,0,0,1,,,63,96,0
126976,note_off,,,,,2048,0,1,,,65,0,0
126976,note_on,,,,,0,0,2,,,58,96,1
126976,note_off,,,,,2048,0,2,,,62,0,1
131072,note_off,,,,,4096,0,2,,,58,0,1
131072,note_off,,,,,4096,0,3,,,55,0,2
131072,note_off,,,,,4096,0,1,,,63,0,0
131072,note_off,,,,,4096,0,4,,,51,0,3
133120,note_on,,,,,2048,0,4,,,50,96,3
133120,note_on,,,,,2048,0,2,,,65,96,1
133120,note_on,,,,,2048,0,3,,,58,96,2
133120,note_on,,,,,2048,0,1,,,70,96,0
135168,note_off,,,,,2048,0,2,,,65,0,1
135168,note_on,,,,,0,0,1,,,70,96,0
135168,note_off,,,,,2048,0,1,,,70,0,0
135168,note_off,,,,,2048,0,4,,,50,0,3
135168,note_on,,,,,0,0,2,,,67,96,1
135168,note_on,,,,,0,0,3,,,63,96,2
135168,note_off,,,,,2048,0,3,,,58,0,2
135168,note_on,,,,,0,0,4,,,51,96,3
136192,note_on,,,,,0,0,3,,,62,96,2
136192,note_off,,,,,1024,0,3,,,63,0,2
137216,note_on,,,,,0,0,3,,,60,96,2
137216,note_off,,,,,1024,0,3,,,62,0,2
137216,note_off,,,,,2048,0,4,,,51,0,3
137216,note_on,,,,,0,0,4,,,53,96,3
138240,note_off,,,,,1024,0,3,,,60,0,2
138240,note_on,,,,,0,0,2,,,65,96,1
138240,note_off,,,,,3072,0,1,,,70,0,0
138240,note_on,,,,,0,0,1,,,68,96,0
138240,note_on,,,,,0,0,3,,,62,96,2
138240,note_off,,,,,3072,0,2,,,67,0,1
139264,note_on,,,,,0,0,4,,,55,96,3
139264,note_off,,,,,1024,0,1,,,68,0,0
139264,note_on,,,,,0,0,1,,,67,96,0
139264,note_off,,,,,2048,0,4,,,53,0,3
139264,note_off,,,,,1024,0,2,,,65,0,1
139264,note_on,,,,,0,0,2,,,58,96,1
139264,note_off,,,,,1024,0,3,,,62,0,2
139264,note_on,,,,,0,0,3,,,63,96,2
140288,note_on,,,,,0,0,2,,,60,96,1
140288,note_off,,,,,1024,0,2,,,58,0,1
140288,note_on,,,,,0,0,4,,,56,96,3
140288,note_off,,,,,1024,0,4,,,55,0,3
141312,note_off,,,,,1024,0,2,,,60,0,1
141312,note_on,,,,,0,0,2,,,62,96,1
141312,note_on,,,,,0,0,4,,,58,96,3
141312,note_on,,,,,0,0,1,,,65,96,0
141312,note_off,,,,,2048,0,1,,,67,0,0
141312,note_off,,,,,1024,0,4,,,56,0,3
141312,note_on,,,,,0,0,3,,,58,96,2
141312,note_off,,,,,2048,0,3,,,63,0,2
142336,note_on,,,,,0,0,4,,,46,96,3
142336,note_off,,,,,1024,0,4,,,58,0,3
142336,note_off,,,,,1024,0,3,,,58,0,2
142336,note_on,,,,,0,0,3,,,56,96,2
143360,note_off,,,,,1024,0,3,,,56,0,2
143360,note_on,,,,,0,0,3,,,55,96,2
143360,note_off,,,,,2048,0,1,,,65,0,0
143360,note_on,,,,,0,0,2,,,60,96,1
143360,note_off,,,,,2048,0,2,,,62,0,1
143360,note_off,,,,,1024,0,4,,,46,0,3
143360,note_on,,,,,0,0,4,,,48,96,3
143360,note_on,,,,,0,0,1,,,63,96,0
147456,note_off,,,,,4096,0,4,,,48,0,3
147456,note_off,,,,,4096,0,1,,,63,0,0
147456,note_off,,,,,4096,0,3,,,55,0,2
147456,note_off,,,,,4096,0,2,,,60,0,1
149504,note_on,,,,,2048,0,1,,,70,96,0
149504,note_on,,,,,2048,0,3,,,58,96,2
149504,note_on,,,,,2048,0,2,,,62,96,1
149504,note_on,,,,,2048,0,4,,,55,96,3
150528,note_off,,,,,1024,0,2,,,62,0,1
150528,note_on,,,,,0,0,2,,,63,96,1
151552,note_on,,,,,0,0,3,,,58,96,2
151552,note_off,,,,,2048,0,1,,,70,0,0
151552,note_on,,,,,0,0,1,,,70,96,0
151552,note_off,,,,,2048,0,4,,,55,0,3
151552,note_on,,,,,0,0,4,,,50,96,3
151552,note_off,,,,,2048,0,3,,,58,0,2
151552,note_off,,,,,1024,0,2,,,63,0,1
151552,note_on,,,,,0,0,2,,,65,96,1
152576,note_off,,,,,1024,0,3,,,58,0,2
152576,note_on,,,,,0,0,3,,,60,96,2
152576,note_off,,,,,1024,0,4,,,50,0,3
152576,note_on,,,,,0,0,4,,,48,96,3
153600,note_on,,,,,0,0,2,,,65,96,1
153600,note_on,,,,,0,0,3,,,62,96,2
153600,note_off,,,,,1024,0,4,,,48,0,3
153600,note_on,,,,,0,0,4,,,46,96,3
153600,note_off,,,,,1024,0,3,,,60,0,2
153600,note_off,,,,,2048,0,2,,,65,0,1
154624,note_on,,,,,0,0,1,,,68,96,0
154624,note_off,,,,,3072,0,1,,,70,0,0
155648,note_off,,,,,1024,0,1,,,68,0,0
155648,note_on,,,,,0,0,1,,,67,96,0
155648,note_off,,,,,2048,0,3,,,62,0,2
155648,note_on,,,,,0,0,4,,,51,96,3
155648,note_on,,,,,0,0,2,,,65,96,1
155648,note_off,,,,,2048,0,2,,,65,0,1
155648,note_off,,,,,2048,0,4,,,46,0,3
155648,note_on,,,,,0,0,3,,,58,96,2
156672,note_off,,,,,1024,0,3,,,58,0,2
156672,note_on,,,,,0,0,3,,,60,96,2
156672,note_on,,,,,0,0,2,,,63,96,1
156672,note_off,,,,,1024,0,4,,,51,0,3
156672,note_on,,,,,0,0,4,,,48,96,3
156672,note_off,,,,,1024,0,2,,,65,0,1
157696,note_on,,,,,0,0,4,,,44,96,3
157696,note_off,,,,,1024,0,4,,,48,0,3
157696,note_off,,,,,2048,0,1,,,67,0,0
157696,note_on,,,,,0,0,1,,,65,96,0
158720,note_off,,,,,2048,0,2,,,63,0,1
158720,note_on,,,,,0,0,2,,,62,96,1
158720,note_off,,,,,2048,0,3,,,60,0,2
158720,note_on,,,,,0,0,3,,,58,96,2
158720,note_off,,,,,1024,0,4,,,44,0,3
158720,note_on,,,,,0,0,4,,,46,96,3
159744,note_off,,,,,1024,0,3,,,58,0,2
159744,note_on,,,,,0,0,3,,,55,96,2
159744,note_off,,,,,1024,0,4,,,46,0,3
159744,note_on,,,,,0,0,1,,,63,96,0
159744,note_off,,,,,2048,0,1,,,65,0,0
159744,note_on,,,,,0,0,4,,,51,96,3
159744,note_off,,,,,1024,0,2,,,62,0,1
159744,note_on,,,,,0,0,2,,,58,96,1
163840,note_off,,,,,4096,0,2,,,58,0,1
163840,note_off,,,,,4096,0,4,,,51,0,3
163840,note_off,,,,,4096,0,3,,,55,0,2
163840,note_off,,,,,4096,0,1,,,63,0,0
165888,note_on,,,,,2048,0,2,,,62,96,1
165888,note_on,,,,,2048,0,1,,,65,96,0
165888,note_on,,,,,2048,0,4,,,58,96,3
165888,note_on,,,,,2048,0,3,,,58,96,2
166912,note_off,,,,,1024,0,4,,,58,0,3
166912,note_on,,,,,0,0,4,,,56,96,3
167936,note_off,,,,,1024,0,4,,,56,0,3
167936,note_on,,,,,0,0,1,,,67,96,0
167936,note_on,,,,,0,0,2,,,63,96,1
167936,note_off,,,,,2048,0,2,,,62,0,1
167936,note_off,,,,,2048,0,1,,,65,0,0
167936,note_off,,,,,2048,0,3,,,58,0,2
167936,note_on,,,,,0,0,3,,,58,96,2
167936,note_on,,,,,0,0,4,,,55,96,3
169984,note_off,,,,,2048,0,1,,,67,0,0
169984,note_on,,,,,0,0,4,,,53,96,3
169984,note_off,,,,,2048,0,3,,,58,0,2
169984,note_on,,,,,0,0,3,,,60,96,2
169984,note_on,,,,,0,0,1,,,68,96,0
169984,note_off,,,,,2048,0,4,,,55,0,3
171008,note_on,,,,,0,0,3,,,56,96,2
171008,note_off,,,,,1024,0,3,,,60,0,2
171008,note_off,,,,,3072,0,2,,,63,0,1
171008,note_on,,,,,0,0,2,,,62,96,1
172032,note_on,,,,,0,0,4,,,51,96,3
172032,note_on,,,,,0,0,1,,,67,96,0
172032,note_off,,,,,2048,0,1,,,68,0,0
172032,note_off,,,,,2048,0,4,,,53,0,3
172032,note_on,,,,,0,0,2,,,63,96,1
172032,note_on,,,,,0,0,3,,,58,96,2
172032,note_off,,,,,1024,0,2,,,62,0,1
172032,note_off,,,,,1024,0,3,,,56,0,2
176128,note_off,,,,,4096,0,4,,,51,0,3
176128,note_off,,,,,4096,0,1,,,67,0,0
176128,note_off,,,,,4096,0,2,,,63,0,1
176128,note_off,,,,,4096,0,3,,,58,0,2
178176,note_on,,,,,2048,0,2,,,67,96,1
178176,note_on,,,,,2048,0,1,,,70,96,0
178176,note_on,,,,,2048,0,3,,,63,96,2
178176,note_on,,,,,2048,0,4,,,63,96,3
180224,note_on,,,,,0,0,1,,,72,96,0
180224,note_off,,,,,2048,0,4,,,63,0,3
180224,note_on,,,,,0,0,3,,,63,96,2
180224,note_off,,,,,2048,0,3,,,63,0,2
180224,note_off,,,,,2048,0,1,,,70,0,0
180224,note_on,,,,,0,0,4,,,57,96,3
180224,note_off,,,,,2048,0,2,,,67,0,1
180224,note_on,,,,,0,0,2,,,67,96,1
181248,note_off,,,,,1024,0,2,,,67,0,1
181248,note_on,,,,,0,0,2,,,65,96,1
182272,note_on,,,,,0,0,1,,,74,96,0
182272,note_on,,,,,0,0,4,,,59,96,3
182272,note_off,,,,,2048,0,4,,,57,0,3
182272,note_off,,,,,2048,0,1,,,72,0,0
182272,note_on,,,,,0,0,2,,,65,96,1
182272,note_off,,,,,1024,0,2,,,65,0,1
182272,note_on,,,,,0,0,3,,,62,96,2
182272,note_off,,,,,2048,0,3,,,63,0,2
183296,note_off,,,,,1024,0,2,,,65,0,1
183296,note_on,,,,,0,0,2,,,67,96,1
184320,note_on,,,,,0,0,2,,,67,96,1
184320,note_off,,,,,2048,0,3,,,62,0,2
184320,note_on,,,,,0,0,3,,,60,96,2
184320,note_off,,,,,2048,0,1,,,74,0,0
184320,note_on,,,,,0,0,1,,,75,96,0
184320,note_off,,,,,1024,0,2,,,67,0,1
184320,note_on,,,,,0,0,4,,,60,96,3
184320,note_off,,,,,2048,0,4,,,59,0,3
186368,note_on,,,,,0,0,1,,,75,96,0
186368,note_off,,,,,2048,0,1,,,75,0,0
186368,note_on,,,,,0,0,4,,,60,96,3
186368,note_on,,,,,0,0,3,,,63,96,2
186368,note_off,,,,,2048,0,3,,,60,0,2
186368,note_off,,,,,2048,0,4,,,60,0,3
186368,note_on,,,,,0,0,2,,,67,96,1
186368,note_off,,,,,2048,0,2,,,67,0,1
187392,note_off,,,,,1024,0,1,,,75,0,0
187392,note_on,,,,,0,0,2,,,68,96,1
187392,note_off,,,,,1024,0,2,,,67,0,1
187392,note_on,,,,,0,0,1,,,77,96,0
188416,note_off,,,,,1024,0,1,,,77,0,0
188416,note_on,,,,,0,0,1,,,79,96,0
188416,note_off,,,,,1024,0,2,,,68,0,1
188416,note_on,,,,,0,0,2,,,70,96,1
188416,note_on,,,,,0,0,3,,,63,96,2
188416,note_off,,,,,2048,0,3,,,63,0,2
188416,note_on,,,,,0,0,4,,,55,96,3
188416,note_off,,,,,2048,0,4,,,60,0,3
189440,note_on,,,,,0,0,4,,,56,96,3
189440,note_off,,,,,1024,0,4,,,55,0,3
190464,note_on,,,,,0,0,3,,,62,96,2
190464,note_off,,,,,2048,0,3,,,63,0,2
190464,note_off,,,,,2048,0,1,,,79,0,0
190464,note_on,,,,,0,0,4,,,58,96,3
190464,note_off,,,,,1024,0,4,,,56,0,3
190464,note_on,,,,,0,0,1,,,77,96,0
191488,note_on,,,,,0,0,2,,,68,96,1
191488,note_off,,,,,3072,0,2,,,70,0,1
192512,note_on,,,,,0,0,2,,,67,96,1
192512,note_off,,,,,2048,0,1,,,77,0,0
192512,note_off,,,,,2048,0,3,,,62,0,2
192512,note_on,,,,,0,0,3,,,63,96,2
192512,note_on,,,,,0,0,1,,,75,96,0
192512,note_off,,,,,2048,0,4,,,58,0,3
192512,note_on,,,,,0,0,4,,,48,96,3
192512,note_off,,,,,1024,0,2,,,68,0,1
194560,note_off,,,,,2048,0,3,,,63,0,2
194560,note_on,,,,,0,0,3,,,63,96,2
194560,note_off,,,,,2048,0,2,,,67,0,1
194560,note_on,,,,,0,0,1,,,70,96,0
194560,note_on,,,,,0,0,2,,,67,96,1
194560,note_on,,,,,0,0,4,,,51,96,3
194560,note_off,,,,,2048,0,4,,,48,0,3
194560,note_off,,,,,2048,0,1,,,75,0,0
195584,note_off,,,,,1024,0,2,,,67,0,1
195584,note_off,,,,,1024,0,4,,,51,0,3
195584,note_on,,,,,0,0,2,,,68,96,1
195584,note_on,,,,,0,0,4,,,53,96,3
196608,note_off,,,,,1024,0,2,,,68,0,1
196608,note_on,,,,,0,0,2,,,70,96,1
196608,note_off,,,,,2048,0,3,,,63,0,2
196608,note_on,,,,,0,0,3,,,58,96,2
196608,note_off,,,,,2048,0,1,,,70,0,0
196608,note_on,,,,,0,0,1,,,75,96,0
196608,note_off,,,,,1024,0,4,,,53,0,3
196608,note_on,,,,,0,0,4,,,55,96,3
197632,note_off,,,,,1024,0,4,,,55,0,3
197632,note_on,,,,,0,0,4,,,53,96,3
197632,note_off,,,,,1024,0,2,,,70,0,1
197632,note_on,,,,,0,0,2,,,68,96,1
198656,note_on,,,,,0,0,1,,,70,96,0
198656,note_off,,,,,1024,0,4,,,53,0,3
198656,note_off,,,,,2048,0,1,,,75,0,0
198656,note_off,,,,,1024,0,2,,,68,0,1
198656,note_on,,,,,0,0,4,,,55,96,3
198656,note_off,,,,,2048,0,3,,,58,0,2
198656,note_on,,,,,0,0,2,,,70,96,1
198656,note_on,,,,,0,0,3,,,63,96,2
199680,note_off,,,,,1024,0,2,,,70,0,1
199680,note_on,,,,,0,0,2,,,67,96,1
199680,note_off,,,,,1024,0,4,,,55,0,3
199680,note_on,,,,,0,0,4,,,51,96,3
200704,note_on,,,,,0,0,1,,,72,96,0
200704,note_off,,,,,2048,0,1,,,70,0,0
200704,note_off,,,,,1024,0,2,,,67,0,1
200704,note_on,,,,,0,0,3,,,63,96,2
200704,note_on,,,,,0,0,4,,,44,96,3
200704,note_off,,,,,1024,0,4,,,51,0,3
200704,note_on,,,,,0,0,2,,,68,96,1
200704,note_off,,,,,2048,0,3,,,63,0,2
201728,note_off,,,,,1024,0,4,,,44,0,3
201728,note_on,,,,,0,0,4,,,46,96,3
202752,note_off,,,,,1024,0,4,,,46,0,3
202752,note_on,,,,,0,0,2,,,63,96,1
202752,note_off,,,,,2048,0,1,,,72,0,0
202752,note_on,,,,,0,0,1,,,67,96,0
202752,note_off,,,,,2048,0,2,,,68,0,1
202752,note_on,,,,,0,0,4,,,48,96,3
203776,note_off,,,,,3072,0,3,,,63,0,2
203776,note_on,,,,,0,0,3,,,60,96,2
204800,note_off,,,,,1024,0,3,,,60,0,2
204800,note_on,,,,,0,0,3,,,60,96,2
204800,note_on,,,,,0,0,2,,,63,96,1
204800,note_off,,,,,2048,0,2,,,63,0,1
204800,note_on,,,,,0,0,4,,,53,96,3
204800,note_off,,,,,2048,0,4,,,48,0,3
204800,note_on,,,,,0,0,1,,,68,96,0
204800,note_off,,,,,2048,0,1,,,67,0,0
205824,note_on,,,,,0,0,1,,,67,96,0
205824,note_off,,,,,1024,0,1,,,68,0,0
205824,note_on,,,,,0,0,3,,,58,96,2
205824,note_off,,,,,1024,0,3,,,60,0,2
206848,note_on,,,,,0,0,1,,,65,96,0
206848,note_off,,,,,1024,0,1,,,67,0,0
206848,note_off,,,,,2048,0,2,,,63,0,1
206848,note_off,,,,,2048,0,4,,,53,0,3
206848,note_on,,,,,0,0,4,,,46,96,3
206848,note_on,,,,,0,0,2,,,62,96,1
206848,note_on,,,,,0,0,3,,,56,96,2
206848,note_off,,,,,1024,0,3,,,58,0,2
208896,note_off,,,,,2048,0,1,,,65,0,0
208896,note_on,,,,,0,0,2,,,58,96,1
208896,note_off,,,,,2048,0,2,,,62,0,1
208896,note_off,,,,,2048,0,3,,,56,0,2
208896,note_on,,,,,0,0,3,,,55,96,2
208896,note_on,,,,,0,0,4,,,51,96,3
208896,note_on,,,,,0,0,1,,,63,96,0
208896,note_off,,,,,2048,0,4,,,46,0,3
212992,note_off,,,,,4096,0,4,,,51,0,3
212992,note_off,,,,,4096,0,3,,,55,0,2
212992,note_off,,,,,4096,0,2,,,58,0,1
212992,note_off,,,,,4096,0,1,,,63,0,0
212993,end_of_track,,,,,1,1,1,,,,,
212993,end_of_track,,,,,212993,1,0,,,,,
212993,end_of_track,,,,,1,1,3,,,,,
212993,end_of_track,,,,,1,1,2,,,,,
212993,end_of_track,,,,,1,1,4,,,,,
