tick,type,numerator,denominator,clocks_per_click,notated_32nd_notes_per_beat,time,meta,track,key,tempo,note,velocity,channel
0,time_signature,9,8,36,8,0,1,0,,,,,
0,track_name,,,,,0,1,6,,,,,
0,note_on,,,,,0,0,5,,,43,96,4
0,track_name,,,,,0,1,5,,,,,
0,track_name,,,,,0,1,8,,,,,
0,track_name,,,,,0,1,4,,,,,
0,track_name,,,,,0,1,3,,,,,
0,track_name,,,,,0,1,2,,,,,
0,track_name,,,,,0,1,7,,,,,
0,key_signature,,,,,0,1,0,G,,,,
0,set_tempo,,,,,0,1,0,,444444,,,
0,track_name,,,,,0,1,1,,,,,
512,note_on,,,,,512,0,6,,,67,96,5
1024,note_on,,,,,0,0,6,,,69,96,5
1024,note_off,,,,,512,0,6,,,67,0,5
1536,note_off,,,,,1536,0,5,,,43,0,4
1536,note_on,,,,,0,0,5,,,55,96,4
1536,note_on,,,,,1536,0,8,,,62,96,7
1536,note_on,,,,,1536,0,7,,,67,96,6
1536,note_on,,,,,0,0,6,,,71,96,5
1536,note_off,,,,,512,0,6,,,69,0,5
2048,note_on,,,,,0,0,6,,,74,96,5
2048,note_off,,,,,512,0,6,,,71,0,5
2560,note_on,,,,,0,0,7,,,66,96,6
2560,note_off,,,,,512,0,6,,,74,0,5
2560,note_on,,,,,0,0,6,,,72,96,5
2560,note_off,,,,,1024,0,7,,,67,0,6
3072,note_off,,,,,512,0,7,,,66,0,6
3072,note_on,,,,,0,0,7,,,67,96,6
3072,note_off,,,,,1536,0,5,,,55,0,4
3072,note_off,,,,,1536,0,8,,,62,0,7
3072,note_off,,,,,512,0,6,,,72,0,5
3072,note_on,,,,,0,0,6,,,72,96,5
3072,note_on,,,,,0,0,8,,,64,96,7
3072,note_on,,,,,0,0,5,,,52,96,4
3584,note_on,,,,,0,0,6,,,76,96,5
3584,note_off,,,,,512,0,6,,,72,0,5
4096,note_off,,,,,512,0,6,,,76,0,5
4096,note_on,,,,,0,0,7,,,69,96,6
4096,note_off,,,,,1024,0,7,,,67,0,6
4096,note_on,,,,,0,0,6,,,74,96,5
4608,note_on,,,,,0,0,8,,,67,96,7
4608,note_off,,,,,1536,0,8,,,64,0,7
4608,note_off,,,,,512,0,7,,,69,0,6
4608,note_on,,,,,0,0,7,,,71,96,6
4608,note_off,,,,,1536,0,5,,,52,0,4
4608,note_on,,,,,0,0,5,,,47,96,4
4608,note_on,,,,,0,0,6,,,74,96,5
4608,note_off,,,,,512,0,6,,,74,0,5
5120,note_off,,,,,512,0,6,,,74,0,5
5120,note_on,,,,,0,0,6,,,79,96,5
5632,note_on,,,,,0,0,6,,,78,96,5
5632,note_off,,,,,1024,0,7,,,71,0,6
5632,note_on,,,,,0,0,7,,,69,96,6
5632,note_off,,,,,512,0,6,,,79,0,5
6144,note_on,,,,,0,0,8,,,64,96,7
6144,note_off,,,,,512,0,6,,,78,0,5
6144,note_off,,,,,1536,0,8,,,67,0,7
6144,note_on,,,,,0,0,5,,,52,96,4
6144,note_off,,,,,1536,0,5,,,47,0,4
6144,note_on,,,,,0,0,6,,,79,96,5
6144,note_on,,,,,0,0,7,,,71,96,6
6144,note_off,,,,,512,0,7,,,69,0,6
6656,note_on,,,,,0,0,6,,,74,96,5
6656,note_off,,,,,512,0,6,,,79,0,5
7168,note_off,,,,,1024,0,7,,,71,0,6
7168,note_off,,,,,512,0,6,,,74,0,5
7168,note_on,,,,,0,0,6,,,71,96,5
7168,note_on,,,,,0,0,7,,,67,96,6
7680,note_off,,,,,512,0,7,,,67,0,6
7680,note_off,,,,,512,0,6,,,71,0,5
7680,note_on,,,,,0,0,6,,,67,96,5
7680,note_off,,,,,1536,0,5,,,52,0,4
7680,note_on,,,,,0,0,5,,,40,96,4
7680,note_on,,,,,0,0,7,,,64,96,6
7680,note_off,,,,,1536,0,8,,,64,0,7
7680,note_on,,,,,0,0,8,,,59,96,7
8192,note_on,,,,,0,0,6,,,69,96,5
8192,note_off,,,,,512,0,6,,,67,0,5
8704,note_on,,,,,0,0,7,,,62,96,6
8704,note_off,,,,,1024,0,7,,,64,0,6
8704,note_on,,,,,0,0,6,,,71,96,5
8704,note_off,,,,,512,0,6,,,69,0,5
9216,note_on,,,,,0,0,7,,,64,96,6
9216,note_off,,,,,512,0,7,,,62,0,6
9216,note_off,,,,,1536,0,5,,,40,0,4
9216,note_on,,,,,0,0,8,,,57,96,7
9216,note_off,,,,,512,0,6,,,71,0,5
9216,note_on,,,,,0,0,6,,,72,96,5
9216,note_on,,,,,0,0,5,,,45,96,4
9216,note_off,,,,,1536,0,8,,,59,0,7
9728,note_off,,,,,512,0,6,,,72,0,5
9728,note_on,,,,,0,0,6,,,74,96,5
10240,note_off,,,,,512,0,6,,,74,0,5
10240,note_on,,,,,0,0,6,,,76,96,5
10240,note_off,,,,,1024,0,7,,,64,0,6
10240,note_on,,,,,0,0,7,,,66,96,6
10752,note_off,,,,,1536,0,5,,,45,0,4
10752,note_on,,,,,0,0,5,,,47,96,4
10752,note_on,,,,,0,0,7,,,67,96,6
10752,note_off,,,,,512,0,6,,,76,0,5
10752,note_on,,,,,0,0,8,,,62,96,7
10752,note_off,,,,,1536,0,8,,,57,0,7
10752,note_off,,,,,512,0,7,,,66,0,6
10752,note_on,,,,,0,0,6,,,74,96,5
11264,note_off,,,,,512,0,6,,,74,0,5
11264,note_on,,,,,0,0,6,,,72,96,5
11776,note_off,,,,,1024,0,7,,,67,0,6
11776,note_on,,,,,0,0,7,,,62,96,6
11776,note_off,,,,,512,0,6,,,72,0,5
11776,note_on,,,,,0,0,6,,,71,96,5
12288,note_on,,,,,0,0,8,,,60,96,7
12288,note_off,,,,,1536,0,8,,,62,0,7
12288,note_on,,,,,0,0,5,,,48,96,4
12288,note_off,,,,,1536,0,5,,,47,0,4
12288,note_on,,,,,0,0,7,,,64,96,6
12288,note_off,,,,,512,0,7,,,62,0,6
12288,note_off,,,,,512,0,6,,,71,0,5
12288,note_on,,,,,0,0,6,,,69,96,5
12800,note_off,,,,,512,0,6,,,69,0,5
12800,note_on,,,,,0,0,6,,,71,96,5
13312,note_off,,,,,1024,0,7,,,64,0,6
13312,note_off,,,,,512,0,6,,,71,0,5
13312,note_on,,,,,0,0,6,,,67,96,5
13312,note_on,,,,,0,0,7,,,59,96,6
13824,note_on,,,,,0,0,5,,,50,96,4
13824,note_on,,,,,0,0,7,,,57,96,6
13824,note_off,,,,,1536,0,5,,,48,0,4
13824,note_off,,,,,512,0,7,,,59,0,6
13824,note_off,,,,,512,0,6,,,67,0,5
13824,note_on,,,,,0,0,6,,,66,96,5
14336,note_off,,,,,512,0,6,,,66,0,5
14336,note_on,,,,,0,0,6,,,67,96,5
14848,note_on,,,,,0,0,6,,,69,96,5
14848,note_off,,,,,512,0,6,,,67,0,5
14848,note_on,,,,,0,0,7,,,62,96,6
14848,note_off,,,,,1024,0,7,,,57,0,6
15360,note_off,,,,,512,0,7,,,62,0,6
15360,note_off,,,,,512,0,6,,,69,0,5
15360,note_on,,,,,0,0,6,,,62,96,5
15360,note_off,,,,,1536,0,5,,,50,0,4
15360,note_off,,,,,3072,0,8,,,60,0,7
15360,note_on,,,,,0,0,5,,,54,96,4
15360,note_on,,,,,0,0,8,,,57,96,7
15360,note_on,,,,,0,0,7,,,69,96,6
15872,note_on,,,,,0,0,6,,,66,96,5
15872,note_off,,,,,512,0,6,,,62,0,5
16384,note_off,,,,,512,0,6,,,66,0,5
16384,note_off,,,,,1024,0,7,,,69,0,6
16384,note_on,,,,,0,0,7,,,67,96,6
16384,note_on,,,,,0,0,6,,,69,96,5
16896,note_on,,,,,0,0,5,,,50,96,4
16896,note_off,,,,,512,0,7,,,67,0,6
16896,note_off,,,,,1536,0,8,,,57,0,7
16896,note_on,,,,,0,0,8,,,66,96,7
16896,note_on,,,,,0,0,7,,,69,96,6
16896,note_off,,,,,1536,0,5,,,54,0,4
16896,note_on,,,,,0,0,6,,,72,96,5
16896,note_off,,,,,512,0,6,,,69,0,5
17408,note_on,,,,,0,0,6,,,71,96,5
17408,note_off,,,,,512,0,6,,,72,0,5
17920,note_off,,,,,512,0,6,,,71,0,5
17920,note_on,,,,,0,0,7,,,66,96,6
17920,note_off,,,,,1024,0,7,,,69,0,6
17920,note_on,,,,,0,0,6,,,69,96,5
18432,note_off,,,,,512,0,7,,,66,0,6
18432,note_on,,,,,0,0,7,,,62,96,6
18432,note_off,,,,,512,0,6,,,69,0,5
18432,note_on,,,,,0,0,6,,,71,96,5
18432,note_on,,,,,0,0,5,,,55,96,4
18432,note_off,,,,,1536,0,5,,,50,0,4
18432,note_on,,,,,0,0,8,,,67,96,7
18432,note_off,,,,,1536,0,8,,,66,0,7
18944,note_off,,,,,512,0,6,,,71,0,5
18944,note_on,,,,,0,0,6,,,67,96,5
19456,note_on,,,,,0,0,7,,,66,96,6
19456,note_off,,,,,1024,0,7,,,62,0,6
19456,note_on,,,,,0,0,6,,,69,96,5
19456,note_off,,,,,512,0,6,,,67,0,5
19968,note_on,,,,,0,0,6,,,71,96,5
19968,note_off,,,,,512,0,6,,,69,0,5
19968,note_off,,,,,1536,0,8,,,67,0,7
19968,note_on,,,,,0,0,8,,,55,96,7
19968,note_on,,,,,0,0,7,,,67,96,6
19968,note_off,,,,,512,0,7,,,66,0,6
19968,note_on,,,,,0,0,5,,,52,96,4
19968,note_off,,,,,1536,0,5,,,55,0,4
20480,note_on,,,,,0,0,6,,,74,96,5
20480,note_off,,,,,512,0,6,,,71,0,5
20992,note_on,,,,,0,0,7,,,66,96,6
20992,note_off,,,,,1024,0,7,,,67,0,6
20992,note_off,,,,,512,0,6,,,74,0,5
20992,note_on,,,,,0,0,6,,,72,96,5
21504,note_off,,,,,1536,0,8,,,55,0,7
21504,note_on,,,,,0,0,7,,,67,96,6
21504,note_on,,,,,0,0,6,,,72,96,5
21504,note_off,,,,,512,0,6,,,72,0,5
21504,note_on,,,,,0,0,5,,,48,96,4
21504,note_off,,,,,1536,0,5,,,52,0,4
21504,note_off,,,,,512,0,7,,,66,0,6
21504,note_on,,,,,0,0,8,,,64,96,7
22016,note_on,,,,,0,0,6,,,76,96,5
22016,note_off,,,,,512,0,6,,,72,0,5
22528,note_off,,,,,1024,0,7,,,67,0,6
22528,note_on,,,,,0,0,7,,,69,96,6
22528,note_off,,,,,512,0,6,,,76,0,5
22528,note_on,,,,,0,0,6,,,74,96,5
23040,note_on,,,,,0,0,7,,,71,96,6
23040,note_on,,,,,0,0,8,,,67,96,7
23040,note_off,,,,,512,0,7,,,69,0,6
23040,note_on,,,,,0,0,6,,,74,96,5
23040,note_off,,,,,1536,0,8,,,64,0,7
23040,note_off,,,,,1536,0,5,,,48,0,4
23040,note_off,,,,,512,0,6,,,74,0,5
23040,note_on,,,,,0,0,5,,,47,96,4
23552,note_off,,,,,512,0,6,,,74,0,5
23552,note_on,,,,,0,0,6,,,79,96,5
24064,note_on,,,,,0,0,7,,,69,96,6
24064,note_off,,,,,512,0,6,,,79,0,5
24064,note_on,,,,,0,0,6,,,78,96,5
24064,note_off,,,,,1024,0,7,,,71,0,6
24576,note_on,,,,,0,0,6,,,79,96,5
24576,note_on,,,,,0,0,7,,,71,96,6
24576,note_off,,,,,512,0,7,,,69,0,6
24576,note_off,,,,,1536,0,8,,,67,0,7
24576,note_off,,,,,1536,0,5,,,47,0,4
24576,note_off,,,,,512,0,6,,,78,0,5
24576,note_on,,,,,0,0,8,,,64,96,7
24576,note_on,,,,,0,0,5,,,52,96,4
25088,note_on,,,,,0,0,6,,,74,96,5
25088,note_off,,,,,512,0,6,,,79,0,5
25600,note_on,,,,,0,0,6,,,71,96,5
25600,note_off,,,,,512,0,6,,,74,0,5
25600,note_off,,,,,1024,0,7,,,71,0,6
25600,note_on,,,,,0,0,7,,,67,96,6
26112,note_on,,,,,0,0,6,,,67,96,5
26112,note_off,,,,,512,0,6,,,71,0,5
26112,note_off,,,,,512,0,7,,,67,0,6
26112,note_on,,,,,0,0,7,,,64,96,6
26112,note_off,,,,,1536,0,5,,,52,0,4
26112,note_on,,,,,0,0,5,,,50,96,4
26112,note_off,,,,,1536,0,8,,,64,0,7
26112,note_on,,,,,0,0,8,,,59,96,7
26624,note_off,,,,,512,0,6,,,67,0,5
26624,note_on,,,,,0,0,6,,,69,96,5
27136,note_off,,,,,512,0,6,,,69,0,5
27136,note_off,,,,,1024,0,7,,,64,0,6
27136,note_on,,,,,0,0,6,,,71,96,5
27136,note_on,,,,,0,0,7,,,67,96,6
27648,note_on,,,,,0,0,6,,,64,96,5
27648,note_off,,,,,512,0,7,,,67,0,6
27648,note_on,,,,,0,0,5,,,48,96,4
27648,note_off,,,,,1536,0,5,,,50,0,4
27648,note_off,,,,,512,0,6,,,71,0,5
27648,note_off,,,,,1536,0,8,,,59,0,7
27648,note_on,,,,,0,0,7,,,69,96,6
27648,note_on,,,,,0,0,8,,,60,96,7
28160,note_off,,,,,512,0,6,,,64,0,5
28160,note_on,,,,,0,0,6,,,74,96,5
28672,note_off,,,,,1024,0,7,,,69,0,6
28672,note_on,,,,,0,0,7,,,66,96,6
28672,note_off,,,,,512,0,6,,,74,0,5
28672,note_on,,,,,0,0,6,,,72,96,5
29184,note_off,,,,,1536,0,8,,,60,0,7
29184,note_on,,,,,0,0,8,,,64,96,7
29184,note_on,,,,,0,0,5,,,49,96,4
29184,note_off,,,,,1536,0,5,,,48,0,4
29184,note_off,,,,,512,0,7,,,66,0,6
29184,note_off,,,,,512,0,6,,,72,0,5
29184,note_on,,,,,0,0,6,,,71,96,5
29184,note_on,,,,,0,0,7,,,67,96,6
29696,note_off,,,,,512,0,6,,,71,0,5
29696,note_on,,,,,0,0,6,,,69,96,5
30208,note_off,,,,,512,0,6,,,69,0,5
30208,note_on,,,,,0,0,7,,,64,96,6
30208,note_on,,,,,0,0,6,,,67,96,5
30208,note_off,,,,,1024,0,7,,,67,0,6
30720,note_off,,,,,1536,0,5,,,49,0,4
30720,note_on,,,,,0,0,7,,,57,96,6
30720,note_off,,,,,512,0,7,,,64,0,6
30720,note_off,,,,,512,0,6,,,67,0,5
30720,note_on,,,,,0,0,6,,,62,96,5
30720,note_on,,,,,0,0,8,,,62,96,7
30720,note_off,,,,,1536,0,8,,,64,0,7
30720,note_on,,,,,0,0,5,,,50,96,4
31232,note_on,,,,,0,0,6,,,67,96,5
31232,note_off,,,,,512,0,6,,,62,0,5
31744,note_on,,,,,0,0,6,,,66,96,5
31744,note_off,,,,,1024,0,7,,,57,0,6
31744,note_off,,,,,512,0,6,,,67,0,5
31744,note_on,,,,,0,0,7,,,60,96,6
32256,note_on,,,,,0,0,5,,,43,96,4
32256,note_off,,,,,1536,0,5,,,50,0,4
32256,note_on,,,,,0,0,7,,,59,96,6
32256,note_off,,,,,1536,0,8,,,62,0,7
32256,note_on,,,,,0,0,8,,,62,96,7
32256,note_off,,,,,512,0,7,,,60,0,6
32256,note_on,,,,,0,0,6,,,67,96,5
32256,note_off,,,,,512,0,6,,,66,0,5
32768,note_on,,,,,0,0,6,,,71,96,5
32768,note_off,,,,,512,0,6,,,67,0,5
33280,note_off,,,,,1024,0,7,,,59,0,6
33280,note_on,,,,,0,0,6,,,74,96,5
33280,note_off,,,,,512,0,6,,,71,0,5
33280,note_on,,,,,0,0,7,,,67,96,6
33792,note_off,,,,,512,0,6,,,74,0,5
33792,note_on,,,,,0,0,6,,,79,96,5
33792,note_on,,,,,0,0,7,,,71,96,6
33792,note_off,,,,,512,0,7,,,67,0,6
33792,note_off,,,,,1536,0,5,,,43,0,4
33792,note_off,,,,,1536,0,8,,,62,0,7
34304,note_off,,,,,512,0,6,,,79,0,5
34304,note_on,,,,,0,0,6,,,74,96,5
34816,note_off,,,,,1024,0,7,,,71,0,6
34816,note_on,,,,,0,0,7,,,74,96,6
34816,note_on,,,,,1024,0,5,,,55,96,4
34816,note_on,,,,,0,0,6,,,71,96,5
34816,note_off,,,,,512,0,6,,,74,0,5
34816,note_on,,,,,1024,0,8,,,62,96,7
35328,note_off,,,,,512,0,7,,,74,0,6
35328,note_on,,,,,0,0,8,,,59,96,7
35328,note_on,,,,,0,0,7,,,79,96,6
35328,note_on,,,,,0,0,6,,,67,96,5
35328,note_on,,,,,0,0,5,,,50,96,4
35328,note_off,,,,,512,0,5,,,55,0,4
35328,note_off,,,,,512,0,6,,,71,0,5
35328,note_off,,,,,512,0,8,,,62,0,7
35840,note_on,,,,,0,0,6,,,71,96,5
35840,note_off,,,,,512,0,6,,,67,0,5
36352,note_on,,,,,0,0,7,,,74,96,6
36352,note_on,,,,,0,0,5,,,47,96,4
36352,note_off,,,,,1024,0,8,,,59,0,7
36352,note_on,,,,,0,0,8,,,67,96,7
36352,note_off,,,,,512,0,6,,,71,0,5
36352,note_on,,,,,0,0,6,,,74,96,5
36352,note_off,,,,,1024,0,7,,,79,0,6
36352,note_off,,,,,1024,0,5,,,50,0,4
36864,note_on,,,,,36864,0,1,,,71,96,0
36864,note_off,,,,,512,0,8,,,67,0,7
36864,note_on,,,,,36864,0,4,,,55,96,3
36864,note_on,,,,,0,0,8,,,62,96,7
36864,note_off,,,,,512,0,6,,,74,0,5
36864,note_on,,,,,0,0,6,,,79,96,5
36864,note_on,,,,,36864,0,2,,,67,96,1
36864,note_off,,,,,512,0,5,,,47,0,4
36864,note_on,,,,,36864,0,3,,,62,96,2
36864,note_on,,,,,0,0,5,,,43,96,4
36864,note_on,,,,,0,0,7,,,71,96,6
36864,note_off,,,,,512,0,7,,,74,0,6
38400,note_off,,,,,1536,0,4,,,55,0,3
38400,note_on,,,,,0,0,4,,,54,96,3
38400,note_off,,,,,1536,0,8,,,62,0,7
38400,note_off,,,,,1536,0,7,,,71,0,6
38400,note_off,,,,,1536,0,6,,,79,0,5
38400,note_off,,,,,1536,0,5,,,43,0,4
38400,note_on,,,,,0,0,5,,,54,96,4
39936,note_on,,,,,0,0,3,,,64,96,2
39936,note_off,,,,,3072,0,3,,,62,0,2
39936,note_off,,,,,3072,0,1,,,71,0,0
39936,note_on,,,,,0,0,2,,,67,96,1
39936,note_off,,,,,3072,0,2,,,67,0,1
39936,note_on,,,,,0,0,1,,,72,96,0
39936,note_off,,,,,1536,0,4,,,54,0,3
39936,note_on,,,,,0,0,4,,,52,96,3
39936,note_on,,,,,0,0,5,,,52,96,4
39936,note_off,,,,,1536,0,5,,,54,0,4
41472,note_on,,,,,0,0,1,,,74,96,0
41472,note_off,,,,,1536,0,5,,,52,0,4
41472,note_off,,,,,1536,0,2,,,67,0,1
41472,note_on,,,,,0,0,2,,,69,96,1
41472,note_off,,,,,1536,0,1,,,72,0,0
41472,note_off,,,,,1536,0,3,,,64,0,2
41472,note_on,,,,,0,0,3,,,57,96,2
41472,note_on,,,,,0,0,5,,,54,96,4
41472,note_on,,,,,0,0,4,,,54,96,3
41472,note_off,,,,,1536,0,4,,,52,0,3
43008,note_off,,,,,1536,0,5,,,54,0,4
43008,note_on,,,,,0,0,5,,,52,96,4
43008,note_on,,,,,0,0,2,,,67,96,1
43008,note_off,,,,,1536,0,4,,,54,0,3
43008,note_on,,,,,0,0,4,,,52,96,3
43008,note_off,,,,,1536,0,2,,,69,0,1
44544,note_on,,,,,0,0,2,,,66,96,1
44544,note_off,,,,,3072,0,1,,,74,0,0
44544,note_on,,,,,0,0,1,,,74,96,0
44544,note_off,,,,,1536,0,4,,,52,0,3
44544,note_on,,,,,0,0,4,,,50,96,3
44544,note_off,,,,,3072,0,3,,,57,0,2
44544,note_on,,,,,0,0,3,,,59,96,2
44544,note_off,,,,,1536,0,5,,,52,0,4
44544,note_on,,,,,0,0,5,,,50,96,4
44544,note_off,,,,,1536,0,2,,,67,0,1
46080,note_on,,,,,0,0,3,,,59,96,2
46080,note_on,,,,,0,0,4,,,52,96,3
46080,note_off,,,,,1536,0,4,,,50,0,3
46080,note_off,,,,,1536,0,3,,,59,0,2
46080,note_on,,,,,0,0,5,,,52,96,4
46080,note_off,,,,,1536,0,5,,,50,0,4
46080,note_off,,,,,1536,0,1,,,74,0,0
46080,note_off,,,,,1536,0,2,,,66,0,1
46080,note_on,,,,,0,0,2,,,67,96,1
46080,note_on,,,,,0,0,1,,,72,96,0
47616,note_off,,,,,1536,0,4,,,52,0,3
47616,note_on,,,,,0,0,4,,,54,96,3
47616,note_on,,,,,0,0,2,,,62,96,1
47616,note_off,,,,,1536,0,5,,,52,0,4
47616,note_off,,,,,1536,0,3,,,59,0,2
47616,note_on,,,,,0,0,3,,,57,96,2
47616,note_on,,,,,0,0,5,,,54,96,4
47616,note_off,,,,,1536,0,2,,,67,0,1
49152,note_off,,,,,1536,0,3,,,57,0,2
49152,note_on,,,,,0,0,3,,,55,96,2
49152,note_off,,,,,3072,0,1,,,72,0,0
49152,note_on,,,,,0,0,1,,,71,96,0
49152,note_on,,,,,0,0,4,,,55,96,3
49152,note_off,,,,,1536,0,4,,,54,0,3
49152,note_off,,,,,1536,0,5,,,54,0,4
49152,note_on,,,,,0,0,5,,,55,96,4
50688,note_on,,,,,0,0,4,,,50,96,3
50688,note_on,,,,,0,0,1,,,69,96,0
50688,note_off,,,,,1536,0,1,,,71,0,0
50688,note_off,,,,,1536,0,4,,,55,0,3
50688,note_off,,,,,3072,0,2,,,62,0,1
50688,note_on,,,,,0,0,2,,,62,96,1
50688,note_on,,,,,0,0,5,,,50,96,4
50688,note_off,,,,,1536,0,5,,,55,0,4
50688,note_off,,,,,1536,0,3,,,55,0,2
50688,note_on,,,,,0,0,3,,,54,96,2
51200,note_on,,,,,12800,0,6,,,62,96,5
51712,note_off,,,,,512,0,6,,,62,0,5
51712,note_on,,,,,0,0,6,,,64,96,5
52224,note_on,,,,,0,0,1,,,69,96,0
52224,note_on,,,,,0,0,4,,,50,96,3
52224,note_off,,,,,1536,0,1,,,69,0,0
52224,note_off,,,,,1536,0,4,,,50,0,3
52224,note_off,,,,,1536,0,5,,,50,0,4
52224,note_on,,,,,13824,0,8,,,57,96,7
52224,note_off,,,,,1536,0,3,,,54,0,2
52224,note_on,,,,,0,0,6,,,66,96,5
52224,note_off,,,,,512,0,6,,,64,0,5
52224,note_on,,,,,0,0,3,,,57,96,2
52224,note_on,,,,,0,0,2,,,62,96,1
52224,note_off,,,,,1536,0,2,,,62,0,1
52224,note_on,,,,,13824,0,7,,,62,96,6
52736,note_off,,,,,512,0,6,,,66,0,5
52736,note_on,,,,,0,0,6,,,69,96,5
53248,note_on,,,,,1024,0,5,,,50,96,4
53248,note_on,,,,,0,0,7,,,64,96,6
53248,note_off,,,,,1024,0,7,,,62,0,6
53248,note_on,,,,,0,0,8,,,57,96,7
53248,note_off,,,,,512,0,6,,,69,0,5
53248,note_on,,,,,0,0,6,,,67,96,5
53248,note_off,,,,,1024,0,8,,,57,0,7
53760,note_off,,,,,1536,0,2,,,62,0,1
53760,note_off,,,,,512,0,7,,,64,0,6
53760,note_off,,,,,1536,0,3,,,57,0,2
53760,note_off,,,,,1536,0,1,,,69,0,0
53760,note_off,,,,,512,0,6,,,67,0,5
53760,note_on,,,,,0,0,6,,,69,96,5
53760,note_off,,,,,512,0,8,,,57,0,7
53760,note_off,,,,,512,0,5,,,50,0,4
53760,note_on,,,,,0,0,5,,,50,96,4
53760,note_on,,,,,0,0,7,,,66,96,6
53760,note_off,,,,,1536,0,4,,,50,0,3
53760,note_on,,,,,0,0,8,,,62,96,7
54272,note_on,,,,,0,0,6,,,72,96,5
54272,note_off,,,,,512,0,6,,,69,0,5
54784,note_off,,,,,1024,0,7,,,66,0,6
54784,note_on,,,,,0,0,7,,,67,96,6
54784,note_on,,,,,0,0,6,,,71,96,5
54784,note_off,,,,,512,0,6,,,72,0,5
54784,note_off,,,,,1024,0,5,,,50,0,4
54784,note_on,,,,,0,0,5,,,50,96,4
54784,note_off,,,,,1024,0,8,,,62,0,7
54784,note_on,,,,,0,0,8,,,62,96,7
55296,note_on,,,,,0,0,7,,,69,96,6
55296,note_off,,,,,512,0,5,,,50,0,4
55296,note_on,,,,,0,0,5,,,38,96,4
55296,note_off,,,,,512,0,8,,,62,0,7
55296,note_on,,,,,0,0,8,,,66,96,7
55296,note_off,,,,,512,0,6,,,71,0,5
55296,note_on,,,,,0,0,6,,,72,96,5
55296,note_off,,,,,512,0,7,,,67,0,6
55808,note_off,,,,,512,0,6,,,72,0,5
55808,note_on,,,,,0,0,6,,,69,96,5
56320,note_on,,,,,0,0,7,,,72,96,6
56320,note_off,,,,,512,0,6,,,69,0,5
56320,note_off,,,,,1024,0,7,,,69,0,6
56320,note_on,,,,,0,0,6,,,66,96,5
56320,note_on,,,,,0,0,8,,,69,96,7
56320,note_off,,,,,1024,0,8,,,66,0,7
56832,note_on,,,,,0,0,8,,,66,96,7
56832,note_off,,,,,512,0,8,,,69,0,7
56832,note_off,,,,,1536,0,5,,,38,0,4
56832,note_off,,,,,512,0,7,,,72,0,6
56832,note_on,,,,,0,0,7,,,69,96,6
56832,note_off,,,,,512,0,6,,,66,0,5
56832,note_on,,,,,0,0,6,,,62,96,5
57344,note_off,,,,,512,0,6,,,62,0,5
57344,note_on,,,,,0,0,6,,,66,96,5
57856,note_on,,,,,0,0,7,,,66,96,6
57856,note_off,,,,,1024,0,7,,,69,0,6
57856,note_on,,,,,1024,0,5,,,50,96,4
57856,note_on,,,,,0,0,6,,,69,96,5
57856,note_on,,,,,0,0,8,,,62,96,7
57856,note_off,,,,,1024,0,8,,,66,0,7
57856,note_off,,,,,512,0,6,,,66,0,5
58368,note_on,,,,,0,0,6,,,72,96,5
58368,note_off,,,,,512,0,6,,,69,0,5
58368,note_off,,,,,512,0,8,,,62,0,7
58368,note_on,,,,,0,0,7,,,62,96,6
58368,note_off,,,,,512,0,7,,,66,0,6
58368,note_off,,,,,512,0,5,,,50,0,4
58368,note_on,,,,,0,0,5,,,50,96,4
58368,note_on,,,,,0,0,8,,,57,96,7
58880,note_on,,,,,0,0,6,,,71,96,5
58880,note_off,,,,,512,0,6,,,72,0,5
59392,note_off,,,,,1024,0,5,,,50,0,4
59392,note_on,,,,,0,0,8,,,62,96,7
59392,note_on,,,,,0,0,7,,,66,96,6
59392,note_off,,,,,1024,0,7,,,62,0,6
59392,note_off,,,,,1024,0,8,,,57,0,7
59392,note_on,,,,,0,0,5,,,50,96,4
59392,note_on,,,,,0,0,6,,,69,96,5
59392,note_off,,,,,512,0,6,,,71,0,5
59904,note_on,,,,,6144,0,2,,,67,96,1
59904,note_on,,,,,0,0,8,,,62,96,7
59904,note_off,,,,,512,0,8,,,62,0,7
59904,note_on,,,,,6144,0,1,,,71,96,0
59904,note_on,,,,,6144,0,4,,,55,96,3
59904,note_on,,,,,0,0,5,,,55,96,4
59904,note_on,,,,,6144,0,3,,,62,96,2
59904,note_off,,,,,512,0,6,,,69,0,5
59904,note_on,,,,,0,0,6,,,71,96,5
59904,note_off,,,,,512,0,5,,,50,0,4
59904,note_off,,,,,512,0,7,,,66,0,6
59904,note_on,,,,,0,0,7,,,67,96,6
60416,note_off,,,,,512,0,6,,,71,0,5
60416,note_on,,,,,0,0,6,,,67,96,5
60928,note_on,,,,,0,0,7,,,62,96,6
60928,note_off,,,,,512,0,6,,,67,0,5
60928,note_on,,,,,0,0,6,,,69,96,5
60928,note_off,,,,,1024,0,7,,,67,0,6
61440,note_on,,,,,0,0,4,,,54,96,3
61440,note_off,,,,,512,0,7,,,62,0,6
61440,note_on,,,,,0,0,5,,,54,96,4
61440,note_off,,,,,1536,0,5,,,55,0,4
61440,note_on,,,,,0,0,8,,,62,96,7
61440,note_on,,,,,0,0,7,,,67,96,6
61440,note_on,,,,,0,0,6,,,71,96,5
61440,note_off,,,,,1536,0,4,,,55,0,3
61440,note_off,,,,,1536,0,8,,,62,0,7
61440,note_off,,,,,512,0,6,,,69,0,5
61952,note_on,,,,,0,0,6,,,74,96,5
61952,note_off,,,,,512,0,6,,,71,0,5
62464,note_off,,,,,1024,0,7,,,67,0,6
62464,note_on,,,,,0,0,7,,,66,96,6
62464,note_on,,,,,0,0,6,,,72,96,5
62464,note_off,,,,,512,0,6,,,74,0,5
62976,note_on,,,,,0,0,5,,,52,96,4
62976,note_off,,,,,1536,0,5,,,54,0,4
62976,note_off,,,,,3072,0,2,,,67,0,1
62976,note_off,,,,,3072,0,3,,,62,0,2
62976,note_on,,,,,0,0,2,,,67,96,1
62976,note_on,,,,,0,0,1,,,72,96,0
62976,note_on,,,,,0,0,3,,,64,96,2
62976,note_on,,,,,0,0,7,,,67,96,6
62976,note_off,,,,,512,0,7,,,66,0,6
62976,note_on,,,,,0,0,4,,,52,96,3
62976,note_off,,,,,1536,0,4,,,54,0,3
62976,note_off,,,,,1536,0,8,,,62,0,7
62976,note_off,,,,,512,0,6,,,72,0,5
62976,note_on,,,,,0,0,6,,,72,96,5
62976,note_on,,,,,0,0,8,,,64,96,7
62976,note_off,,,,,3072,0,1,,,71,0,0
63488,note_on,,,,,0,0,6,,,76,96,5
63488,note_off,,,,,512,0,6,,,72,0,5
64000,note_off,,,,,1024,0,7,,,67,0,6
64000,note_on,,,,,0,0,6,,,74,96,5
64000,note_off,,,,,512,0,6,,,76,0,5
64000,note_on,,,,,0,0,7,,,69,96,6
64512,note_on,,,,,0,0,3,,,62,96,2
64512,note_on,,,,,0,0,4,,,59,96,3
64512,note_off,,,,,1536,0,4,,,52,0,3
64512,note_on,,,,,0,0,6,,,74,96,5
64512,note_off,,,,,512,0,6,,,74,0,5
64512,note_on,,,,,0,0,5,,,59,96,4
64512,note_on,,,,,0,0,8,,,67,96,7
64512,note_off,,,,,512,0,7,,,69,0,6
64512,note_off,,,,,1536,0,1,,,72,0,0
64512,note_off,,,,,1536,0,3,,,64,0,2
64512,note_off,,,,,1536,0,8,,,64,0,7
64512,note_on,,,,,0,0,1,,,74,96,0
64512,note_on,,,,,0,0,2,,,67,96,1
64512,note_off,,,,,1536,0,2,,,67,0,1
64512,note_on,,,,,0,0,7,,,71,96,6
64512,note_off,,,,,1536,0,5,,,52,0,4
65024,note_off,,,,,512,0,6,,,74,0,5
65024,note_on,,,,,0,0,6,,,79,96,5
65536,note_off,,,,,1024,0,7,,,71,0,6
65536,note_on,,,,,0,0,7,,,69,96,6
65536,note_on,,,,,0,0,6,,,78,96,5
65536,note_off,,,,,512,0,6,,,79,0,5
66048,note_on,,,,,0,0,5,,,47,96,4
66048,note_off,,,,,1536,0,4,,,59,0,3
66048,note_off,,,,,512,0,7,,,69,0,6
66048,note_on,,,,,0,0,7,,,67,96,6
66048,note_on,,,,,0,0,4,,,47,96,3
66048,note_off,,,,,1536,0,3,,,62,0,2
66048,note_on,,,,,0,0,3,,,59,96,2
66048,note_on,,,,,0,0,8,,,62,96,7
66048,note_off,,,,,1536,0,8,,,67,0,7
66048,note_off,,,,,1536,0,2,,,67,0,1
66048,note_on,,,,,0,0,2,,,62,96,1
66048,note_off,,,,,512,0,6,,,78,0,5
66048,note_on,,,,,0,0,6,,,79,96,5
66048,note_off,,,,,1536,0,5,,,59,0,4
66560,note_on,,,,,0,0,6,,,74,96,5
66560,note_off,,,,,512,0,6,,,79,0,5
67072,note_on,,,,,0,0,7,,,66,96,6
67072,note_off,,,,,1024,0,7,,,67,0,6
67072,note_on,,,,,0,0,6,,,71,96,5
67072,note_off,,,,,512,0,6,,,74,0,5
67584,note_off,,,,,1536,0,3,,,59,0,2
67584,note_off,,,,,512,0,7,,,66,0,6
67584,note_on,,,,,0,0,7,,,64,96,6
67584,note_on,,,,,0,0,5,,,52,96,4
67584,note_off,,,,,1536,0,5,,,47,0,4
67584,note_off,,,,,3072,0,1,,,74,0,0
67584,note_on,,,,,0,0,3,,,59,96,2
67584,note_on,,,,,0,0,4,,,52,96,3
67584,note_off,,,,,1536,0,4,,,47,0,3
67584,note_on,,,,,0,0,8,,,59,96,7
67584,note_off,,,,,1536,0,8,,,62,0,7
67584,note_off,,,,,1536,0,2,,,62,0,1
67584,note_on,,,,,0,0,2,,,64,96,1
67584,note_off,,,,,512,0,6,,,71,0,5
67584,note_on,,,,,0,0,6,,,67,96,5
67584,note_on,,,,,0,0,1,,,71,96,0
68096,note_on,,,,,0,0,6,,,69,96,5
68096,note_off,,,,,512,0,6,,,67,0,5
68608,note_off,,,,,512,0,6,,,69,0,5
68608,note_off,,,,,1024,0,7,,,64,0,6
68608,note_on,,,,,0,0,7,,,67,96,6
68608,note_on,,,,,0,0,6,,,71,96,5
69120,note_off,,,,,1536,0,4,,,52,0,3
69120,note_off,,,,,1536,0,8,,,59,0,7
69120,note_off,,,,,1536,0,1,,,71,0,0
69120,note_on,,,,,0,0,6,,,64,96,5
69120,note_off,,,,,512,0,6,,,71,0,5
69120,note_on,,,,,0,0,5,,,48,96,4
69120,note_off,,,,,1536,0,5,,,52,0,4
69120,note_on,,,,,0,0,1,,,69,96,0
69120,note_on,,,,,0,0,7,,,69,96,6
69120,note_on,,,,,0,0,2,,,64,96,1
69120,note_on,,,,,0,0,8,,,60,96,7
69120,note_on,,,,,0,0,4,,,48,96,3
69120,note_off,,,,,1536,0,3,,,59,0,2
69120,note_on,,,,,0,0,3,,,60,96,2
69120,note_off,,,,,512,0,7,,,67,0,6
69120,note_off,,,,,1536,0,2,,,64,0,1
69632,note_off,,,,,512,0,6,,,64,0,5
69632,note_on,,,,,0,0,6,,,74,96,5
69888,note_off,,,,,768,0,1,,,69,0,0
69888,note_on,,,,,0,0,1,,,71,96,0
69888,note_off,,,,,768,0,3,,,60,0,2
69888,note_on,,,,,0,0,3,,,57,96,2
69888,note_on,,,,,0,0,8,,,57,96,7
69888,note_off,,,,,768,0,8,,,60,0,7
70144,note_on,,,,,0,0,7,,,67,96,6
70144,note_off,,,,,1024,0,7,,,69,0,6
70144,note_on,,,,,0,0,6,,,72,96,5
70144,note_off,,,,,512,0,6,,,74,0,5
70272,note_off,,,,,384,0,1,,,71,0,0
70272,note_on,,,,,0,0,1,,,72,96,0
70656,note_on,,,,,0,0,7,,,66,96,6
70656,note_off,,,,,1536,0,2,,,64,0,1
70656,note_on,,,,,0,0,3,,,62,96,2
70656,note_off,,,,,768,0,3,,,57,0,2
70656,note_off,,,,,1536,0,4,,,48,0,3
70656,note_on,,,,,0,0,6,,,71,96,5
70656,note_off,,,,,512,0,7,,,67,0,6
70656,note_off,,,,,768,0,8,,,57,0,7
70656,note_on,,,,,0,0,1,,,71,96,0
70656,note_off,,,,,384,0,1,,,72,0,0
70656,note_off,,,,,1536,0,5,,,48,0,4
70656,note_on,,,,,0,0,5,,,50,96,4
70656,note_on,,,,,0,0,4,,,50,96,3
70656,note_on,,,,,0,0,8,,,62,96,7
70656,note_on,,,,,0,0,2,,,66,96,1
70656,note_off,,,,,512,0,6,,,72,0,5
71168,note_off,,,,,512,0,6,,,71,0,5
71168,note_on,,,,,0,0,6,,,69,96,5
71424,note_on,,,,,0,0,8,,,59,96,7
71424,note_off,,,,,768,0,3,,,62,0,2
71424,note_on,,,,,0,0,3,,,59,96,2
71424,note_off,,,,,768,0,2,,,66,0,1
71424,note_on,,,,,0,0,2,,,64,96,1
71424,note_off,,,,,768,0,8,,,62,0,7
71680,note_off,,,,,512,0,6,,,69,0,5
71680,note_off,,,,,1024,0,7,,,66,0,6
71680,note_on,,,,,0,0,6,,,67,96,5
71680,note_on,,,,,0,0,7,,,67,96,6
72192,note_on,,,,,0,0,6,,,62,96,5
72192,note_on,,,,,0,0,2,,,66,96,1
72192,note_off,,,,,768,0,2,,,64,0,1
72192,note_on,,,,,0,0,3,,,60,96,2
72192,note_off,,,,,768,0,3,,,59,0,2
72192,note_off,,,,,512,0,6,,,67,0,5
72192,note_off,,,,,1536,0,4,,,50,0,3
72192,note_on,,,,,0,0,4,,,50,96,3
72192,note_off,,,,,768,0,8,,,59,0,7
72192,note_on,,,,,0,0,7,,,69,96,6
72192,note_on,,,,,0,0,5,,,38,96,4
72192,note_off,,,,,1536,0,5,,,50,0,4
72192,note_off,,,,,512,0,7,,,67,0,6
72192,note_on,,,,,0,0,8,,,60,96,7
72192,note_on,,,,,0,0,1,,,69,96,0
72192,note_off,,,,,1536,0,1,,,71,0,0
72704,note_on,,,,,0,0,6,,,67,96,5
72704,note_off,,,,,512,0,6,,,62,0,5
72960,note_on,,,,,0,0,8,,,57,96,7
72960,note_off,,,,,768,0,8,,,60,0,7
73216,note_off,,,,,512,0,6,,,67,0,5
73216,note_on,,,,,0,0,6,,,66,96,5
73216,note_on,,,,,0,0,7,,,60,96,6
73216,note_off,,,,,1024,0,7,,,69,0,6
73728,note_off,,,,,1536,0,1,,,69,0,0
73728,note_on,,,,,0,0,4,,,43,96,3
73728,note_off,,,,,1536,0,2,,,66,0,1
73728,note_on,,,,,0,0,1,,,67,96,0
73728,note_off,,,,,1536,0,3,,,60,0,2
73728,note_on,,,,,0,0,2,,,62,96,1
73728,note_on,,,,,0,0,3,,,59,96,2
73728,note_off,,,,,1536,0,4,,,50,0,3
73728,note_on,,,,,0,0,8,,,59,96,7
73728,note_off,,,,,768,0,8,,,57,0,7
73728,note_off,,,,,512,0,6,,,66,0,5
73728,note_off,,,,,512,0,7,,,60,0,6
73728,note_off,,,,,1536,0,5,,,38,0,4
73728,note_on,,,,,0,0,6,,,67,96,5
73728,note_on,,,,,0,0,5,,,43,96,4
73728,note_on,,,,,0,0,7,,,59,96,6
74240,note_off,,,,,512,0,6,,,67,0,5
74240,note_on,,,,,0,0,6,,,71,96,5
74752,note_off,,,,,1024,0,7,,,59,0,6
74752,note_on,,,,,0,0,7,,,62,96,6
74752,note_off,,,,,512,0,6,,,71,0,5
74752,note_on,,,,,0,0,6,,,69,96,5
75264,note_off,,,,,1536,0,8,,,59,0,7
75264,note_on,,,,,0,0,8,,,62,96,7
75264,note_on,,,,,0,0,6,,,71,96,5
75264,note_off,,,,,512,0,6,,,69,0,5
75264,note_on,,,,,0,0,5,,,55,96,4
75264,note_on,,,,,0,0,7,,,67,96,6
75264,note_off,,,,,512,0,7,,,62,0,6
75264,note_off,,,,,1536,0,5,,,43,0,4
75776,note_off,,,,,512,0,6,,,71,0,5
75776,note_on,,,,,0,0,6,,,74,96,5
76288,note_off,,,,,512,0,6,,,74,0,5
76288,note_on,,,,,0,0,7,,,66,96,6
76288,note_on,,,,,0,0,6,,,72,96,5
76288,note_off,,,,,1024,0,7,,,67,0,6
76800,note_on,,,,,0,0,7,,,67,96,6
76800,note_off,,,,,512,0,7,,,66,0,6
76800,note_off,,,,,3072,0,2,,,62,0,1
76800,note_off,,,,,3072,0,1,,,67,0,0
76800,note_on,,,,,0,0,8,,,64,96,7
76800,note_on,,,,,0,0,6,,,72,96,5
76800,note_off,,,,,512,0,6,,,72,0,5
76800,note_on,,,,,0,0,5,,,52,96,4
76800,note_off,,,,,3072,0,3,,,59,0,2
76800,note_off,,,,,1536,0,5,,,55,0,4
76800,note_off,,,,,1536,0,8,,,62,0,7
76800,note_off,,,,,3072,0,4,,,43,0,3
77312,note_off,,,,,512,0,6,,,72,0,5
77312,note_on,,,,,0,0,6,,,76,96,5
77824,note_on,,,,,0,0,7,,,69,96,6
77824,note_off,,,,,1024,0,7,,,67,0,6
77824,note_on,,,,,0,0,6,,,74,96,5
77824,note_off,,,,,512,0,6,,,76,0,5
78336,note_on,,,,,0,0,7,,,71,96,6
78336,note_on,,,,,0,0,5,,,47,96,4
78336,note_off,,,,,1536,0,8,,,64,0,7
78336,note_on,,,,,0,0,8,,,67,96,7
78336,note_off,,,,,512,0,6,,,74,0,5
78336,note_off,,,,,512,0,7,,,69,0,6
78336,note_off,,,,,1536,0,5,,,52,0,4
78336,note_on,,,,,0,0,6,,,74,96,5
78848,note_on,,,,,0,0,6,,,79,96,5
78848,note_off,,,,,512,0,6,,,74,0,5
79360,note_on,,,,,0,0,6,,,78,96,5
79360,note_off,,,,,1024,0,7,,,71,0,6
79360,note_on,,,,,0,0,7,,,69,96,6
79360,note_off,,,,,512,0,6,,,79,0,5
79872,note_off,,,,,512,0,6,,,78,0,5
79872,note_on,,,,,0,0,6,,,79,96,5
79872,note_on,,,,,0,0,8,,,64,96,7
79872,note_off,,,,,512,0,7,,,69,0,6
79872,note_on,,,,,0,0,7,,,71,96,6
79872,note_off,,,,,1536,0,5,,,47,0,4
79872,note_on,,,,,0,0,5,,,52,96,4
79872,note_off,,,,,1536,0,8,,,67,0,7
80384,note_off,,,,,512,0,6,,,79,0,5
80384,note_on,,,,,0,0,6,,,74,96,5
80896,note_on,,,,,0,0,7,,,67,96,6
80896,note_off,,,,,512,0,6,,,74,0,5
80896,note_on,,,,,0,0,6,,,71,96,5
80896,note_off,,,,,1024,0,7,,,71,0,6
81408,note_on,,,,,0,0,8,,,59,96,7
81408,note_off,,,,,1536,0,8,,,64,0,7
81408,note_on,,,,,0,0,5,,,40,96,4
81408,note_off,,,,,1536,0,5,,,52,0,4
81408,note_on,,,,,0,0,7,,,64,96,6
81408,note_off,,,,,512,0,6,,,71,0,5
81408,note_on,,,,,0,0,6,,,67,96,5
81408,note_off,,,,,512,0,7,,,67,0,6
81920,note_off,,,,,512,0,6,,,67,0,5
81920,note_on,,,,,0,0,6,,,69,96,5
82432,note_on,,,,,0,0,7,,,62,96,6
82432,note_off,,,,,512,0,6,,,69,0,5
82432,note_on,,,,,0,0,6,,,71,96,5
82432,note_off,,,,,1024,0,7,,,64,0,6
82944,note_on,,,,,0,0,5,,,45,96,4
82944,note_off,,,,,512,0,7,,,62,0,6
82944,note_off,,,,,512,0,6,,,71,0,5
82944,note_on,,,,,0,0,7,,,64,96,6
82944,note_on,,,,,0,0,6,,,72,96,5
82944,note_on,,,,,0,0,8,,,57,96,7
82944,note_off,,,,,1536,0,8,,,59,0,7
82944,note_off,,,,,1536,0,5,,,40,0,4
83456,note_off,,,,,512,0,6,,,72,0,5
83456,note_on,,,,,0,0,6,,,74,96,5
83968,note_on,,,,,0,0,6,,,76,96,5
83968,note_off,,,,,512,0,6,,,74,0,5
83968,note_on,,,,,0,0,7,,,66,96,6
83968,note_off,,,,,1024,0,7,,,64,0,6
84480,note_on,,,,,0,0,6,,,74,96,5
84480,note_off,,,,,512,0,6,,,76,0,5
84480,note_on,,,,,0,0,7,,,67,96,6
84480,note_on,,,,,0,0,5,,,47,96,4
84480,note_off,,,,,1536,0,8,,,57,0,7
84480,note_on,,,,,0,0,8,,,62,96,7
84480,note_off,,,,,1536,0,5,,,45,0,4
84480,note_off,,,,,512,0,7,,,66,0,6
84992,note_off,,,,,512,0,6,,,74,0,5
84992,note_on,,,,,0,0,6,,,72,96,5
85504,note_off,,,,,1024,0,7,,,67,0,6
85504,note_off,,,,,512,0,6,,,72,0,5
85504,note_on,,,,,0,0,6,,,71,96,5
85504,note_on,,,,,0,0,7,,,62,96,6
86016,note_on,,,,,0,0,7,,,64,96,6
86016,note_off,,,,,512,0,7,,,62,0,6
86016,note_off,,,,,1536,0,8,,,62,0,7
86016,note_on,,,,,0,0,8,,,60,96,7
86016,note_off,,,,,1536,0,5,,,47,0,4
86016,note_on,,,,,0,0,5,,,48,96,4
86016,note_on,,,,,0,0,6,,,69,96,5
86016,note_off,,,,,512,0,6,,,71,0,5
86528,note_off,,,,,512,0,6,,,69,0,5
86528,note_on,,,,,0,0,6,,,71,96,5
87040,note_on,,,,,0,0,6,,,67,96,5
87040,note_on,,,,,0,0,7,,,59,96,6
87040,note_off,,,,,1024,0,7,,,64,0,6
87040,note_off,,,,,512,0,6,,,71,0,5
87552,note_on,,,,,0,0,6,,,66,96,5
87552,note_off,,,,,512,0,6,,,67,0,5
87552,note_on,,,,,0,0,7,,,57,96,6
87552,note_off,,,,,512,0,7,,,59,0,6
87552,note_off,,,,,1536,0,5,,,48,0,4
87552,note_on,,,,,0,0,5,,,50,96,4
88064,note_on,,,,,0,0,6,,,67,96,5
88064,note_off,,,,,512,0,6,,,66,0,5
88576,note_off,,,,,1024,0,7,,,57,0,6
88576,note_on,,,,,0,0,7,,,62,96,6
88576,note_off,,,,,512,0,6,,,67,0,5
88576,note_on,,,,,0,0,6,,,69,96,5
89088,note_on,,,,,0,0,7,,,69,96,6
89088,note_off,,,,,512,0,7,,,62,0,6
89088,note_off,,,,,512,0,6,,,69,0,5
89088,note_on,,,,,0,0,6,,,62,96,5
89088,note_off,,,,,1536,0,5,,,50,0,4
89088,note_off,,,,,3072,0,8,,,60,0,7
89088,note_on,,,,,0,0,5,,,54,96,4
89088,note_on,,,,,0,0,8,,,57,96,7
89600,note_on,,,,,0,0,6,,,66,96,5
89600,note_off,,,,,512,0,6,,,62,0,5
90112,note_off,,,,,1024,0,7,,,69,0,6
90112,note_on,,,,,0,0,6,,,69,96,5
90112,note_off,,,,,512,0,6,,,66,0,5
90112,note_on,,,,,0,0,7,,,67,96,6
90624,note_off,,,,,512,0,7,,,67,0,6
90624,note_on,,,,,0,0,5,,,50,96,4
90624,note_off,,,,,1536,0,8,,,57,0,7
90624,note_on,,,,,0,0,7,,,69,96,6
90624,note_off,,,,,1536,0,5,,,54,0,4
90624,note_off,,,,,512,0,6,,,69,0,5
90624,note_on,,,,,0,0,6,,,72,96,5
90624,note_on,,,,,0,0,8,,,66,96,7
91136,note_on,,,,,0,0,6,,,71,96,5
91136,note_off,,,,,512,0,6,,,72,0,5
91648,note_off,,,,,1024,0,7,,,69,0,6
91648,note_off,,,,,512,0,6,,,71,0,5
91648,note_on,,,,,0,0,7,,,66,96,6
91648,note_on,,,,,0,0,6,,,69,96,5
92160,note_off,,,,,1536,0,5,,,50,0,4
92160,note_on,,,,,0,0,7,,,62,96,6
92160,note_off,,,,,512,0,7,,,66,0,6
92160,note_on,,,,,0,0,6,,,71,96,5
92160,note_off,,,,,512,0,6,,,69,0,5
92160,note_off,,,,,1536,0,8,,,66,0,7
92160,note_on,,,,,0,0,8,,,67,96,7
92160,note_on,,,,,0,0,5,,,55,96,4
92672,note_on,,,,,0,0,6,,,67,96,5
92672,note_off,,,,,512,0,6,,,71,0,5
93184,note_off,,,,,512,0,6,,,67,0,5
93184,note_on,,,,,0,0,6,,,69,96,5
93184,note_off,,,,,1024,0,7,,,62,0,6
93184,note_on,,,,,0,0,7,,,66,96,6
93696,note_off,,,,,512,0,6,,,69,0,5
93696,note_on,,,,,0,0,6,,,71,96,5
93696,note_on,,,,,0,0,7,,,67,96,6
93696,note_off,,,,,1536,0,5,,,55,0,4
93696,note_on,,,,,0,0,5,,,52,96,4
93696,note_off,,,,,512,0,7,,,66,0,6
93696,note_on,,,,,0,0,8,,,55,96,7
93696,note_off,,,,,1536,0,8,,,67,0,7
94208,note_off,,,,,512,0,6,,,71,0,5
94208,note_on,,,,,0,0,6,,,74,96,5
94720,note_off,,,,,512,0,6,,,74,0,5
94720,note_on,,,,,0,0,6,,,72,96,5
94720,note_off,,,,,1024,0,7,,,67,0,6
94720,note_on,,,,,0,0,7,,,66,96,6
95232,note_on,,,,,0,0,5,,,48,96,4
95232,note_on,,,,,0,0,7,,,67,96,6
95232,note_off,,,,,1536,0,8,,,55,0,7
95232,note_off,,,,,512,0,7,,,66,0,6
95232,note_off,,,,,512,0,6,,,72,0,5
95232,note_on,,,,,0,0,6,,,72,96,5
95232,note_on,,,,,0,0,8,,,64,96,7
95232,note_off,,,,,1536,0,5,,,52,0,4
95744,note_on,,,,,0,0,6,,,76,96,5
95744,note_off,,,,,512,0,6,,,72,0,5
96256,note_on,,,,,0,0,6,,,74,96,5
96256,note_on,,,,,0,0,7,,,69,96,6
96256,note_off,,,,,512,0,6,,,76,0,5
96256,note_off,,,,,1024,0,7,,,67,0,6
96768,note_off,,,,,1536,0,8,,,64,0,7
96768,note_on,,,,,0,0,8,,,67,96,7
96768,note_on,,,,,0,0,5,,,47,96,4
96768,note_off,,,,,1536,0,5,,,48,0,4
96768,note_on,,,,,0,0,7,,,71,96,6
96768,note_off,,,,,512,0,6,,,74,0,5
96768,note_on,,,,,0,0,6,,,74,96,5
96768,note_off,,,,,512,0,7,,,69,0,6
97280,note_off,,,,,512,0,6,,,74,0,5
97280,note_on,,,,,0,0,6,,,79,96,5
97792,note_off,,,,,1024,0,7,,,71,0,6
97792,note_off,,,,,512,0,6,,,79,0,5
97792,note_on,,,,,0,0,6,,,78,96,5
97792,note_on,,,,,0,0,7,,,69,96,6
98304,note_on,,,,,0,0,5,,,52,96,4
98304,note_off,,,,,512,0,6,,,78,0,5
98304,note_on,,,,,0,0,6,,,79,96,5
98304,note_off,,,,,1536,0,5,,,47,0,4
98304,note_on,,,,,0,0,8,,,64,96,7
98304,note_off,,,,,1536,0,8,,,67,0,7
98304,note_off,,,,,512,0,7,,,69,0,6
98304,note_on,,,,,0,0,7,,,71,96,6
98816,note_off,,,,,512,0,6,,,79,0,5
98816,note_on,,,,,0,0,6,,,74,96,5
99328,note_on,,,,,0,0,6,,,71,96,5
99328,note_off,,,,,512,0,6,,,74,0,5
99328,note_off,,,,,1024,0,7,,,71,0,6
99328,note_on,,,,,0,0,7,,,67,96,6
99840,note_on,,,,,0,0,6,,,67,96,5
99840,note_off,,,,,512,0,6,,,71,0,5
99840,note_off,,,,,512,0,7,,,67,0,6
99840,note_on,,,,,0,0,7,,,64,96,6
99840,note_off,,,,,1536,0,5,,,52,0,4
99840,note_on,,,,,0,0,8,,,59,96,7
99840,note_off,,,,,1536,0,8,,,64,0,7
99840,note_on,,,,,0,0,5,,,50,96,4
100352,note_off,,,,,512,0,6,,,67,0,5
100352,note_on,,,,,0,0,6,,,69,96,5
100864,note_on,,,,,0,0,6,,,71,96,5
100864,note_off,,,,,512,0,6,,,69,0,5
100864,note_off,,,,,1024,0,7,,,64,0,6
100864,note_on,,,,,0,0,7,,,67,96,6
101376,note_on,,,,,0,0,5,,,48,96,4
101376,note_off,,,,,512,0,6,,,71,0,5
101376,note_off,,,,,512,0,7,,,67,0,6
101376,note_off,,,,,1536,0,8,,,59,0,7
101376,note_on,,,,,0,0,8,,,60,96,7
101376,note_on,,,,,0,0,7,,,69,96,6
101376,note_on,,,,,0,0,6,,,64,96,5
101376,note_off,,,,,1536,0,5,,,50,0,4
101888,note_off,,,,,512,0,6,,,64,0,5
101888,note_on,,,,,0,0,6,,,74,96,5
102400,note_off,,,,,1024,0,7,,,69,0,6
102400,note_on,,,,,0,0,6,,,72,96,5
102400,note_on,,,,,0,0,7,,,66,96,6
102400,note_off,,,,,512,0,6,,,74,0,5
102912,note_on,,,,,0,0,6,,,71,96,5
102912,note_off,,,,,512,0,6,,,72,0,5
102912,note_off,,,,,1536,0,8,,,60,0,7
102912,note_off,,,,,512,0,7,,,66,0,6
102912,note_on,,,,,0,0,7,,,67,96,6
102912,note_on,,,,,0,0,5,,,49,96,4
102912,note_on,,,,,0,0,8,,,64,96,7
102912,note_off,,,,,1536,0,5,,,48,0,4
103424,note_off,,,,,512,0,6,,,71,0,5
103424,note_on,,,,,0,0,6,,,69,96,5
103936,note_off,,,,,512,0,6,,,69,0,5
103936,note_on,,,,,0,0,6,,,67,96,5
103936,note_off,,,,,1024,0,7,,,67,0,6
103936,note_on,,,,,0,0,7,,,64,96,6
104448,note_off,,,,,1536,0,5,,,49,0,4
104448,note_on,,,,,0,0,7,,,57,96,6
104448,note_off,,,,,512,0,7,,,64,0,6
104448,note_on,,,,,0,0,8,,,62,96,7
104448,note_on,,,,,0,0,6,,,62,96,5
104448,note_off,,,,,512,0,6,,,67,0,5
104448,note_off,,,,,1536,0,8,,,64,0,7
104448,note_on,,,,,0,0,5,,,50,96,4
104960,note_on,,,,,0,0,6,,,67,96,5
104960,note_off,,,,,512,0,6,,,62,0,5
105472,note_on,,,,,0,0,7,,,60,96,6
105472,note_off,,,,,1024,0,7,,,57,0,6
105472,note_on,,,,,0,0,6,,,66,96,5
105472,note_off,,,,,512,0,6,,,67,0,5
105984,note_on,,,,,0,0,8,,,62,96,7
105984,note_on,,,,,29184,0,3,,,62,96,2
105984,note_on,,,,,29184,0,4,,,55,96,3
105984,note_off,,,,,1536,0,8,,,62,0,7
105984,note_off,,,,,512,0,6,,,66,0,5
105984,note_on,,,,,0,0,5,,,43,96,4
105984,note_on,,,,,29184,0,2,,,67,96,1
105984,note_off,,,,,512,0,7,,,60,0,6
105984,note_on,,,,,29184,0,1,,,71,96,0
105984,note_on,,,,,0,0,6,,,67,96,5
105984,note_off,,,,,1536,0,5,,,50,0,4
105984,note_on,,,,,0,0,7,,,59,96,6
107520,note_off,,,,,1536,0,6,,,67,0,5
107520,note_off,,,,,1536,0,5,,,43,0,4
107520,note_off,,,,,1536,0,4,,,55,0,3
107520,note_on,,,,,0,0,4,,,54,96,3
107520,note_on,,,,,0,0,5,,,54,96,4
107520,note_off,,,,,1536,0,7,,,59,0,6
107520,note_off,,,,,1536,0,8,,,62,0,7
109056,note_on,,,,,0,0,2,,,67,96,1
109056,note_off,,,,,3072,0,2,,,67,0,1
109056,note_off,,,,,3072,0,1,,,71,0,0
109056,note_on,,,,,0,0,1,,,72,96,0
109056,note_on,,,,,0,0,4,,,52,96,3
109056,note_off,,,,,1536,0,4,,,54,0,3
109056,note_off,,,,,3072,0,3,,,62,0,2
109056,note_on,,,,,0,0,5,,,52,96,4
109056,note_off,,,,,1536,0,5,,,54,0,4
109056,note_on,,,,,0,0,3,,,64,96,2
110592,note_off,,,,,1536,0,2,,,67,0,1
110592,note_off,,,,,1536,0,1,,,72,0,0
110592,note_off,,,,,1536,0,3,,,64,0,2
110592,note_on,,,,,0,0,3,,,57,96,2
110592,note_off,,,,,1536,0,5,,,52,0,4
110592,note_off,,,,,1536,0,4,,,52,0,3
110592,note_on,,,,,0,0,2,,,69,96,1
110592,note_on,,,,,0,0,4,,,54,96,3
110592,note_on,,,,,0,0,5,,,54,96,4
110592,note_on,,,,,0,0,1,,,74,96,0
112128,note_off,,,,,1536,0,2,,,69,0,1
112128,note_on,,,,,0,0,4,,,52,96,3
112128,note_on,,,,,0,0,2,,,67,96,1
112128,note_off,,,,,1536,0,4,,,54,0,3
112128,note_on,,,,,0,0,5,,,52,96,4
112128,note_off,,,,,1536,0,5,,,54,0,4
113664,note_on,,,,,0,0,5,,,50,96,4
113664,note_on,,,,,0,0,2,,,66,96,1
113664,note_off,,,,,1536,0,2,,,67,0,1
113664,note_off,,,,,1536,0,4,,,52,0,3
113664,note_off,,,,,1536,0,5,,,52,0,4
113664,note_on,,,,,0,0,3,,,59,96,2
113664,note_on,,,,,0,0,4,,,50,96,3
113664,note_on,,,,,0,0,1,,,74,96,0
113664,note_off,,,,,3072,0,1,,,74,0,0
113664,note_off,,,,,3072,0,3,,,57,0,2
115200,note_off,,,,,1536,0,1,,,74,0,0
115200,note_on,,,,,0,0,2,,,67,96,1
115200,note_off,,,,,1536,0,2,,,66,0,1
115200,note_on,,,,,0,0,4,,,52,96,3
115200,note_on,,,,,0,0,3,,,59,96,2
115200,note_off,,,,,1536,0,3,,,59,0,2
115200,note_on,,,,,0,0,1,,,72,96,0
115200,note_off,,,,,1536,0,4,,,50,0,3
115200,note_on,,,,,0,0,5,,,52,96,4
115200,note_off,,,,,1536,0,5,,,50,0,4
116736,note_off,,,,,1536,0,4,,,52,0,3
116736,note_on,,,,,0,0,4,,,54,96,3
116736,note_on,,,,,0,0,3,,,57,96,2
116736,note_off,,,,,1536,0,2,,,67,0,1
116736,note_on,,,,,0,0,2,,,62,96,1
116736,note_off,,,,,1536,0,3,,,59,0,2
116736,note_off,,,,,1536,0,5,,,52,0,4
116736,note_on,,,,,0,0,5,,,54,96,4
118272,note_on,,,,,0,0,3,,,55,96,2
118272,note_on,,,,,0,0,5,,,55,96,4
118272,note_off,,,,,1536,0,3,,,57,0,2
118272,note_off,,,,,1536,0,5,,,54,0,4
118272,note_on,,,,,0,0,1,,,71,96,0
118272,note_off,,,,,3072,0,1,,,72,0,0
118272,note_on,,,,,0,0,4,,,55,96,3
118272,note_off,,,,,1536,0,4,,,54,0,3
119808,note_on,,,,,0,0,5,,,50,96,4
119808,note_on,,,,,0,0,4,,,50,96,3
119808,note_off,,,,,1536,0,4,,,55,0,3
119808,note_on,,,,,0,0,2,,,62,96,1
119808,note_off,,,,,3072,0,2,,,62,0,1
119808,note_on,,,,,0,0,3,,,54,96,2
119808,note_off,,,,,1536,0,5,,,55,0,4
119808,note_off,,,,,1536,0,1,,,71,0,0
119808,note_on,,,,,0,0,1,,,69,96,0
119808,note_off,,,,,1536,0,3,,,55,0,2
120320,note_on,,,,,12800,0,6,,,62,96,5
120832,note_on,,,,,0,0,6,,,64,96,5
120832,note_off,,,,,512,0,6,,,62,0,5
121344,note_off,,,,,1536,0,3,,,54,0,2
121344,note_on,,,,,0,0,3,,,57,96,2
121344,note_off,,,,,1536,0,4,,,50,0,3
121344,note_on,,,,,0,0,4,,,50,96,3
121344,note_off,,,,,1536,0,5,,,50,0,4
121344,note_on,,,,,13824,0,7,,,62,96,6
121344,note_on,,,,,0,0,2,,,62,96,1
121344,note_on,,,,,0,0,6,,,66,96,5
121344,note_off,,,,,512,0,6,,,64,0,5
121344,note_off,,,,,1536,0,1,,,69,0,0
121344,note_on,,,,,0,0,1,,,69,96,0
121344,note_off,,,,,1536,0,2,,,62,0,1
121344,note_on,,,,,13824,0,8,,,57,96,7
121856,note_on,,,,,0,0,6,,,69,96,5
121856,note_off,,,,,512,0,6,,,66,0,5
122368,note_off,,,,,512,0,6,,,69,0,5
122368,note_off,,,,,1024,0,8,,,57,0,7
122368,note_on,,,,,1024,0,5,,,50,96,4
122368,note_on,,,,,0,0,7,,,64,96,6
122368,note_off,,,,,1024,0,7,,,62,0,6
122368,note_on,,,,,0,0,8,,,57,96,7
122368,note_on,,,,,0,0,6,,,67,96,5
122880,note_off,,,,,512,0,7,,,64,0,6
122880,note_on,,,,,0,0,6,,,69,96,5
122880,note_on,,,,,0,0,5,,,50,96,4
122880,note_off,,,,,512,0,5,,,50,0,4
122880,note_on,,,,,0,0,7,,,66,96,6
122880,note_off,,,,,1536,0,4,,,50,0,3
122880,note_off,,,,,1536,0,1,,,69,0,0
122880,note_off,,,,,512,0,8,,,57,0,7
122880,note_off,,,,,1536,0,3,,,57,0,2
122880,note_off,,,,,512,0,6,,,67,0,5
122880,note_on,,,,,0,0,8,,,62,96,7
122880,note_off,,,,,1536,0,2,,,62,0,1
123392,note_off,,,,,512,0,6,,,69,0,5
123392,note_on,,,,,0,0,6,,,72,96,5
123904,note_on,,,,,0,0,6,,,71,96,5
123904,note_off,,,,,1024,0,8,,,62,0,7
123904,note_on,,,,,0,0,8,,,62,96,7
123904,note_off,,,,,1024,0,5,,,50,0,4
123904,note_on,,,,,0,0,5,,,50,96,4
123904,note_off,,,,,512,0,6,,,72,0,5
123904,note_off,,,,,1024,0,7,,,66,0,6
123904,note_on,,,,,0,0,7,,,67,96,6
124416,note_on,,,,,0,0,7,,,69,96,6
124416,note_on,,,,,0,0,8,,,66,96,7
124416,note_on,,,,,0,0,5,,,38,96,4
124416,note_off,,,,,512,0,5,,,50,0,4
124416,note_off,,,,,512,0,8,,,62,0,7
124416,note_on,,,,,0,0,6,,,72,96,5
124416,note_off,,,,,512,0,6,,,71,0,5
124416,note_off,,,,,512,0,7,,,67,0,6
124928,note_on,,,,,0,0,6,,,69,96,5
124928,note_off,,,,,512,0,6,,,72,0,5
125440,note_on,,,,,0,0,6,,,66,96,5
125440,note_off,,,,,512,0,6,,,69,0,5
125440,note_off,,,,,1024,0,8,,,66,0,7
125440,note_on,,,,,0,0,8,,,69,96,7
125440,note_off,,,,,1024,0,7,,,69,0,6
125440,note_on,,,,,0,0,7,,,72,96,6
125952,note_on,,,,,0,0,8,,,66,96,7
125952,note_off,,,,,1536,0,5,,,38,0,4
125952,note_off,,,,,512,0,8,,,69,0,7
125952,note_on,,,,,0,0,6,,,62,96,5
125952,note_off,,,,,512,0,6,,,66,0,5
125952,note_off,,,,,512,0,7,,,72,0,6
125952,note_on,,,,,0,0,7,,,69,96,6
126464,note_on,,,,,0,0,6,,,66,96,5
126464,note_off,,,,,512,0,6,,,62,0,5
126976,note_off,,,,,1024,0,8,,,66,0,7
126976,note_on,,,,,0,0,8,,,62,96,7
126976,note_on,,,,,0,0,6,,,69,96,5
126976,note_off,,,,,512,0,6,,,66,0,5
126976,note_on,,,,,1024,0,5,,,50,96,4
126976,note_on,,,,,0,0,7,,,66,96,6
126976,note_off,,,,,1024,0,7,,,69,0,6
127488,note_off,,,,,512,0,7,,,66,0,6
127488,note_on,,,,,0,0,7,,,62,96,6
127488,note_off,,,,,512,0,5,,,50,0,4
127488,note_on,,,,,0,0,5,,,50,96,4
127488,note_off,,,,,512,0,8,,,62,0,7
127488,note_on,,,,,0,0,8,,,57,96,7
127488,note_off,,,,,512,0,6,,,69,0,5
127488,note_on,,,,,0,0,6,,,72,96,5
128000,note_off,,,,,512,0,6,,,72,0,5
128000,note_on,,,,,0,0,6,,,71,96,5
128512,note_off,,,,,1024,0,5,,,50,0,4
128512,note_off,,,,,1024,0,8,,,57,0,7
128512,note_on,,,,,0,0,8,,,62,96,7
128512,note_off,,,,,512,0,6,,,71,0,5
128512,note_on,,,,,0,0,6,,,69,96,5
128512,note_on,,,,,0,0,5,,,50,96,4
128512,note_on,,,,,0,0,7,,,66,96,6
128512,note_off,,,,,1024,0,7,,,62,0,6
129024,note_on,,,,,0,0,6,,,71,96,5
129024,note_on,,,,,6144,0,2,,,67,96,1
129024,note_off,,,,,512,0,8,,,62,0,7
129024,note_on,,,,,6144,0,1,,,71,96,0
129024,note_on,,,,,0,0,7,,,67,96,6
129024,note_off,,,,,512,0,7,,,66,0,6
129024,note_off,,,,,512,0,6,,,69,0,5
129024,note_on,,,,,6144,0,3,,,62,96,2
129024,note_on,,,,,0,0,8,,,62,96,7
129024,note_on,,,,,0,0,5,,,55,96,4
129024,note_on,,,,,6144,0,4,,,55,96,3
129024,note_off,,,,,512,0,5,,,50,0,4
129536,note_off,,,,,512,0,6,,,71,0,5
129536,note_on,,,,,0,0,6,,,67,96,5
130048,note_on,,,,,0,0,7,,,62,96,6
130048,note_off,,,,,1024,0,7,,,67,0,6
130048,note_off,,,,,512,0,6,,,67,0,5
130048,note_on,,,,,0,0,6,,,69,96,5
130560,note_off,,,,,1536,0,8,,,62,0,7
130560,note_off,,,,,512,0,7,,,62,0,6
130560,note_off,,,,,1536,0,4,,,55,0,3
130560,note_on,,,,,0,0,4,,,54,96,3
130560,note_on,,,,,0,0,8,,,62,96,7
130560,note_off,,,,,512,0,6,,,69,0,5
130560,note_on,,,,,0,0,6,,,71,96,5
130560,note_on,,,,,0,0,5,,,54,96,4
130560,note_off,,,,,1536,0,5,,,55,0,4
130560,note_on,,,,,0,0,7,,,67,96,6
131072,note_off,,,,,512,0,6,,,71,0,5
131072,note_on,,,,,0,0,6,,,74,96,5
131584,note_on,,,,,0,0,7,,,66,96,6
131584,note_off,,,,,512,0,6,,,74,0,5
131584,note_on,,,,,0,0,6,,,72,96,5
131584,note_off,,,,,1024,0,7,,,67,0,6
132096,note_off,,,,,3072,0,3,,,62,0,2
132096,note_on,,,,,0,0,4,,,52,96,3
132096,note_off,,,,,1536,0,4,,,54,0,3
132096,note_on,,,,,0,0,7,,,67,96,6
132096,note_on,,,,,0,0,8,,,64,96,7
132096,note_off,,,,,1536,0,8,,,62,0,7
132096,note_off,,,,,1536,0,5,,,54,0,4
132096,note_on,,,,,0,0,5,,,52,96,4
132096,note_on,,,,,0,0,1,,,72,96,0
132096,note_off,,,,,3072,0,1,,,71,0,0
132096,note_on,,,,,0,0,3,,,64,96,2
132096,note_off,,,,,512,0,7,,,66,0,6
132096,note_on,,,,,0,0,6,,,72,96,5
132096,note_off,,,,,3072,0,2,,,67,0,1
132096,note_on,,,,,0,0,2,,,67,96,1
132096,note_off,,,,,512,0,6,,,72,0,5
132608,note_on,,,,,0,0,6,,,76,96,5
132608,note_off,,,,,512,0,6,,,72,0,5
133120,note_on,,,,,0,0,7,,,69,96,6
133120,note_on,,,,,0,0,6,,,74,96,5
133120,note_off,,,,,512,0,6,,,76,0,5
133120,note_off,,,,,1024,0,7,,,67,0,6
133632,note_off,,,,,1536,0,4,,,52,0,3
133632,note_on,,,,,0,0,8,,,67,96,7
133632,note_off,,,,,1536,0,8,,,64,0,7
133632,note_off,,,,,1536,0,2,,,67,0,1
133632,note_off,,,,,512,0,7,,,69,0,6
133632,note_on,,,,,0,0,7,,,71,96,6
133632,note_on,,,,,0,0,2,,,67,96,1
133632,note_off,,,,,512,0,6,,,74,0,5
133632,note_on,,,,,0,0,6,,,74,96,5
133632,note_on,,,,,0,0,1,,,74,96,0
133632,note_off,,,,,1536,0,1,,,72,0,0
133632,note_off,,,,,1536,0,5,,,52,0,4
133632,note_on,,,,,0,0,5,,,59,96,4
133632,note_on,,,,,0,0,3,,,62,96,2
133632,note_off,,,,,1536,0,3,,,64,0,2
133632,note_on,,,,,0,0,4,,,59,96,3
134144,note_off,,,,,512,0,6,,,74,0,5
134144,note_on,,,,,0,0,6,,,79,96,5
134656,note_off,,,,,1024,0,7,,,71,0,6
134656,note_on,,,,,0,0,7,,,69,96,6
134656,note_off,,,,,512,0,6,,,79,0,5
134656,note_on,,,,,0,0,6,,,78,96,5
135168,note_off,,,,,1536,0,4,,,59,0,3
135168,note_off,,,,,512,0,6,,,78,0,5
135168,note_on,,,,,0,0,6,,,79,96,5
135168,note_on,,,,,0,0,2,,,62,96,1
135168,note_off,,,,,1536,0,2,,,67,0,1
135168,note_on,,,,,0,0,7,,,67,96,6
135168,note_on,,,,,0,0,8,,,62,96,7
135168,note_off,,,,,1536,0,8,,,67,0,7
135168,note_off,,,,,1536,0,3,,,62,0,2
135168,note_on,,,,,0,0,3,,,59,96,2
135168,note_on,,,,,0,0,5,,,47,96,4
135168,note_off,,,,,1536,0,5,,,59,0,4
135168,note_on,,,,,0,0,4,,,47,96,3
135168,note_off,,,,,512,0,7,,,69,0,6
135680,note_off,,,,,512,0,6,,,79,0,5
135680,note_on,,,,,0,0,6,,,74,96,5
136192,note_off,,,,,1024,0,7,,,67,0,6
136192,note_off,,,,,512,0,6,,,74,0,5
136192,note_on,,,,,0,0,7,,,66,96,6
136192,note_on,,,,,0,0,6,,,71,96,5
136704,note_on,,,,,0,0,7,,,64,96,6
136704,note_on,,,,,0,0,4,,,52,96,3
136704,note_off,,,,,1536,0,4,,,47,0,3
136704,note_off,,,,,512,0,7,,,66,0,6
136704,note_off,,,,,1536,0,2,,,62,0,1
136704,note_on,,,,,0,0,2,,,64,96,1
136704,note_off,,,,,1536,0,8,,,62,0,7
136704,note_off,,,,,3072,0,1,,,74,0,0
136704,note_on,,,,,0,0,3,,,59,96,2
136704,note_off,,,,,1536,0,3,,,59,0,2
136704,note_on,,,,,0,0,6,,,67,96,5
136704,note_on,,,,,0,0,8,,,59,96,7
136704,note_on,,,,,0,0,1,,,71,96,0
136704,note_off,,,,,1536,0,5,,,47,0,4
136704,note_on,,,,,0,0,5,,,52,96,4
136704,note_off,,,,,512,0,6,,,71,0,5
137216,note_on,,,,,0,0,6,,,69,96,5
137216,note_off,,,,,512,0,6,,,67,0,5
137728,note_on,,,,,0,0,6,,,71,96,5
137728,note_off,,,,,512,0,6,,,69,0,5
137728,note_on,,,,,0,0,7,,,67,96,6
137728,note_off,,,,,1024,0,7,,,64,0,6
138240,note_off,,,,,512,0,7,,,67,0,6
138240,note_off,,,,,1536,0,2,,,64,0,1
138240,note_on,,,,,0,0,2,,,64,96,1
138240,note_on,,,,,0,0,4,,,48,96,3
138240,note_off,,,,,1536,0,4,,,52,0,3
138240,note_off,,,,,512,0,6,,,71,0,5
138240,note_on,,,,,0,0,6,,,64,96,5
138240,note_on,,,,,0,0,7,,,69,96,6
138240,note_on,,,,,0,0,3,,,60,96,2
138240,note_on,,,,,0,0,5,,,48,96,4
138240,note_on,,,,,0,0,1,,,69,96,0
138240,note_on,,,,,0,0,8,,,60,96,7
138240,note_off,,,,,1536,0,8,,,59,0,7
138240,note_off,,,,,1536,0,5,,,52,0,4
138240,note_off,,,,,1536,0,1,,,71,0,0
138240,note_off,,,,,1536,0,3,,,59,0,2
138752,note_on,,,,,0,0,6,,,74,96,5
138752,note_off,,,,,512,0,6,,,64,0,5
139008,note_off,,,,,768,0,1,,,69,0,0
139008,note_off,,,,,768,0,3,,,60,0,2
139008,note_on,,,,,0,0,3,,,57,96,2
139008,note_on,,,,,0,0,8,,,57,96,7
139008,note_off,,,,,768,0,8,,,60,0,7
139008,note_on,,,,,0,0,1,,,71,96,0
139264,note_on,,,,,0,0,6,,,72,96,5
139264,note_off,,,,,512,0,6,,,74,0,5
139264,note_off,,,,,1024,0,7,,,69,0,6
139264,note_on,,,,,0,0,7,,,67,96,6
139392,note_on,,,,,0,0,1,,,72,96,0
139392,note_off,,,,,384,0,1,,,71,0,0
139776,note_off,,,,,512,0,6,,,72,0,5
139776,note_on,,,,,0,0,1,,,71,96,0
139776,note_off,,,,,384,0,1,,,72,0,0
139776,note_on,,,,,0,0,6,,,71,96,5
139776,note_off,,,,,1536,0,5,,,48,0,4
139776,note_on,,,,,0,0,8,,,62,96,7
139776,note_on,,,,,0,0,4,,,50,96,3
139776,note_off,,,,,1536,0,4,,,48,0,3
139776,note_off,,,,,768,0,3,,,57,0,2
139776,note_on,,,,,0,0,2,,,66,96,1
139776,note_off,,,,,512,0,7,,,67,0,6
139776,note_on,,,,,0,0,7,,,66,96,6
139776,note_off,,,,,768,0,8,,,57,0,7
139776,note_on,,,,,0,0,5,,,50,96,4
139776,note_on,,,,,0,0,3,,,62,96,2
139776,note_off,,,,,1536,0,2,,,64,0,1
140288,note_off,,,,,512,0,6,,,71,0,5
140288,note_on,,,,,0,0,6,,,69,96,5
140544,note_on,,,,,0,0,2,,,64,96,1
140544,note_on,,,,,0,0,3,,,59,96,2
140544,note_off,,,,,768,0,3,,,62,0,2
140544,note_off,,,,,768,0,8,,,62,0,7
140544,note_on,,,,,0,0,8,,,59,96,7
140544,note_off,,,,,768,0,2,,,66,0,1
140800,note_off,,,,,512,0,6,,,69,0,5
140800,note_off,,,,,1024,0,7,,,66,0,6
140800,note_on,,,,,0,0,7,,,67,96,6
140800,note_on,,,,,0,0,6,,,67,96,5
141312,note_on,,,,,0,0,3,,,60,96,2
141312,note_off,,,,,768,0,3,,,59,0,2
141312,note_on,,,,,0,0,5,,,38,96,4
141312,note_off,,,,,1536,0,5,,,50,0,4
141312,note_on,,,,,0,0,2,,,66,96,1
141312,note_off,,,,,768,0,2,,,64,0,1
141312,note_on,,,,,0,0,1,,,69,96,0
141312,note_off,,,,,512,0,7,,,67,0,6
141312,note_off,,,,,768,0,8,,,59,0,7
141312,note_on,,,,,0,0,8,,,60,96,7
141312,note_off,,,,,1536,0,4,,,50,0,3
141312,note_on,,,,,0,0,4,,,50,96,3
141312,note_off,,,,,512,0,6,,,67,0,5
141312,note_on,,,,,0,0,6,,,62,96,5
141312,note_off,,,,,1536,0,1,,,71,0,0
141312,note_on,,,,,0,0,7,,,69,96,6
141824,note_off,,,,,512,0,6,,,62,0,5
141824,note_on,,,,,0,0,6,,,67,96,5
142080,note_on,,,,,0,0,8,,,57,96,7
142080,note_off,,,,,768,0,8,,,60,0,7
142336,note_off,,,,,1024,0,7,,,69,0,6
142336,note_on,,,,,0,0,7,,,60,96,6
142336,note_on,,,,,0,0,6,,,66,96,5
142336,note_off,,,,,512,0,6,,,67,0,5
142848,note_off,,,,,512,0,7,,,60,0,6
142848,note_on,,,,,0,0,7,,,59,96,6
142848,note_off,,,,,1536,0,2,,,66,0,1
142848,note_on,,,,,0,0,2,,,62,96,1
142848,note_off,,,,,1536,0,1,,,69,0,0
142848,note_on,,,,,0,0,1,,,67,96,0
142848,note_off,,,,,1536,0,5,,,38,0,4
142848,note_off,,,,,1536,0,4,,,50,0,3
142848,note_on,,,,,0,0,4,,,43,96,3
142848,note_off,,,,,512,0,6,,,66,0,5
142848,note_on,,,,,0,0,6,,,67,96,5
142848,note_on,,,,,0,0,3,,,59,96,2
142848,note_on,,,,,0,0,5,,,43,96,4
142848,note_off,,,,,1536,0,3,,,60,0,2
142848,note_on,,,,,0,0,8,,,59,96,7
142848,note_off,,,,,768,0,8,,,57,0,7
143360,note_off,,,,,512,0,6,,,67,0,5
143360,note_on,,,,,0,0,6,,,71,96,5
143872,note_off,,,,,1024,0,7,,,59,0,6
143872,note_on,,,,,0,0,7,,,62,96,6
143872,note_off,,,,,512,0,6,,,71,0,5
143872,note_on,,,,,0,0,6,,,69,96,5
144384,note_off,,,,,1536,0,8,,,59,0,7
144384,note_off,,,,,512,0,7,,,62,0,6
144384,note_on,,,,,0,0,7,,,67,96,6
144384,note_on,,,,,0,0,8,,,62,96,7
144384,note_on,,,,,0,0,5,,,55,96,4
144384,note_off,,,,,1536,0,5,,,43,0,4
144384,note_off,,,,,512,0,6,,,69,0,5
144384,note_on,,,,,0,0,6,,,71,96,5
144896,note_off,,,,,512,0,6,,,71,0,5
144896,note_on,,,,,0,0,6,,,74,96,5
145408,note_off,,,,,512,0,6,,,74,0,5
145408,note_on,,,,,0,0,6,,,72,96,5
145408,note_on,,,,,0,0,7,,,66,96,6
145408,note_off,,,,,1024,0,7,,,67,0,6
145920,note_off,,,,,3072,0,1,,,67,0,0
145920,note_off,,,,,3072,0,4,,,43,0,3
145920,note_off,,,,,512,0,6,,,72,0,5
145920,note_on,,,,,0,0,6,,,72,96,5
145920,note_on,,,,,0,0,5,,,52,96,4
145920,note_off,,,,,3072,0,3,,,59,0,2
145920,note_on,,,,,0,0,8,,,64,96,7
145920,note_off,,,,,1536,0,5,,,55,0,4
145920,note_on,,,,,0,0,7,,,67,96,6
145920,note_off,,,,,512,0,7,,,66,0,6
145920,note_off,,,,,3072,0,2,,,62,0,1
145920,note_off,,,,,1536,0,8,,,62,0,7
146432,note_off,,,,,512,0,6,,,72,0,5
146432,note_on,,,,,0,0,6,,,76,96,5
146944,note_off,,,,,512,0,6,,,76,0,5
146944,note_off,,,,,1024,0,7,,,67,0,6
146944,note_on,,,,,0,0,6,,,74,96,5
146944,note_on,,,,,0,0,7,,,69,96,6
147456,note_off,,,,,1536,0,8,,,64,0,7
147456,note_on,,,,,0,0,6,,,74,96,5
147456,note_off,,,,,512,0,6,,,74,0,5
147456,note_on,,,,,0,0,7,,,71,96,6
147456,note_on,,,,,0,0,5,,,47,96,4
147456,note_off,,,,,1536,0,5,,,52,0,4
147456,note_off,,,,,512,0,7,,,69,0,6
147456,note_on,,,,,0,0,8,,,67,96,7
147968,note_on,,,,,0,0,6,,,79,96,5
147968,note_off,,,,,512,0,6,,,74,0,5
148480,note_off,,,,,1024,0,7,,,71,0,6
148480,note_on,,,,,0,0,7,,,69,96,6
148480,note_off,,,,,512,0,6,,,79,0,5
148480,note_on,,,,,0,0,6,,,78,96,5
148992,note_off,,,,,1536,0,8,,,67,0,7
148992,note_off,,,,,512,0,6,,,78,0,5
148992,note_on,,,,,0,0,6,,,79,96,5
148992,note_on,,,,,0,0,7,,,71,96,6
148992,note_off,,,,,512,0,7,,,69,0,6
148992,note_off,,,,,1536,0,5,,,47,0,4
148992,note_on,,,,,0,0,5,,,52,96,4
148992,note_on,,,,,0,0,8,,,64,96,7
149504,note_off,,,,,512,0,6,,,79,0,5
149504,note_on,,,,,0,0,6,,,74,96,5
150016,note_on,,,,,0,0,7,,,67,96,6
150016,note_on,,,,,0,0,6,,,71,96,5
150016,note_off,,,,,1024,0,7,,,71,0,6
150016,note_off,,,,,512,0,6,,,74,0,5
150528,note_off,,,,,512,0,6,,,71,0,5
150528,note_on,,,,,0,0,8,,,59,96,7
150528,note_off,,,,,1536,0,8,,,64,0,7
150528,note_off,,,,,512,0,7,,,67,0,6
150528,note_on,,,,,0,0,7,,,64,96,6
150528,note_off,,,,,1536,0,5,,,52,0,4
150528,note_on,,,,,0,0,6,,,67,96,5
150528,note_on,,,,,0,0,5,,,40,96,4
151040,note_on,,,,,0,0,6,,,69,96,5
151040,note_off,,,,,512,0,6,,,67,0,5
151552,note_off,,,,,1024,0,7,,,64,0,6
151552,note_on,,,,,0,0,7,,,62,96,6
151552,note_on,,,,,0,0,6,,,71,96,5
151552,note_off,,,,,512,0,6,,,69,0,5
152064,note_off,,,,,1536,0,8,,,59,0,7
152064,note_off,,,,,512,0,6,,,71,0,5
152064,note_on,,,,,0,0,7,,,64,96,6
152064,note_off,,,,,1536,0,5,,,40,0,4
152064,note_off,,,,,512,0,7,,,62,0,6
152064,note_on,,,,,0,0,6,,,72,96,5
152064,note_on,,,,,0,0,5,,,45,96,4
152064,note_on,,,,,0,0,8,,,57,96,7
152576,note_off,,,,,512,0,6,,,72,0,5
152576,note_on,,,,,0,0,6,,,74,96,5
153088,note_on,,,,,0,0,6,,,76,96,5
153088,note_off,,,,,512,0,6,,,74,0,5
153088,note_off,,,,,1024,0,7,,,64,0,6
153088,note_on,,,,,0,0,7,,,66,96,6
153600,note_on,,,,,0,0,6,,,74,96,5
153600,note_off,,,,,512,0,6,,,76,0,5
153600,note_off,,,,,512,0,7,,,66,0,6
153600,note_on,,,,,0,0,8,,,62,96,7
153600,note_off,,,,,1536,0,8,,,57,0,7
153600,note_off,,,,,1536,0,5,,,45,0,4
153600,note_on,,,,,0,0,5,,,47,96,4
153600,note_on,,,,,0,0,7,,,67,96,6
154112,note_off,,,,,512,0,6,,,74,0,5
154112,note_on,,,,,0,0,6,,,72,96,5
154624,note_off,,,,,1024,0,7,,,67,0,6
154624,note_on,,,,,0,0,7,,,62,96,6
154624,note_off,,,,,512,0,6,,,72,0,5
154624,note_on,,,,,0,0,6,,,71,96,5
155136,note_on,,,,,0,0,8,,,60,96,7
155136,note_off,,,,,1536,0,8,,,62,0,7
155136,note_off,,,,,1536,0,5,,,47,0,4
155136,note_on,,,,,0,0,5,,,48,96,4
155136,note_off,,,,,512,0,7,,,62,0,6
155136,note_on,,,,,0,0,7,,,64,96,6
155136,note_off,,,,,512,0,6,,,71,0,5
155136,note_on,,,,,0,0,6,,,69,96,5
155648,note_off,,,,,512,0,6,,,69,0,5
155648,note_on,,,,,0,0,6,,,71,96,5
156160,note_off,,,,,1024,0,7,,,64,0,6
156160,note_off,,,,,512,0,6,,,71,0,5
156160,note_on,,,,,0,0,6,,,67,96,5
156160,note_on,,,,,0,0,7,,,59,96,6
156672,note_off,,,,,512,0,7,,,59,0,6
156672,note_off,,,,,1536,0,5,,,48,0,4
156672,note_on,,,,,0,0,5,,,50,96,4
156672,note_on,,,,,0,0,6,,,66,96,5
156672,note_off,,,,,512,0,6,,,67,0,5
156672,note_on,,,,,0,0,7,,,57,96,6
157184,note_off,,,,,512,0,6,,,66,0,5
157184,note_on,,,,,0,0,6,,,67,96,5
157696,note_on,,,,,0,0,7,,,62,96,6
157696,note_off,,,,,512,0,6,,,67,0,5
157696,note_on,,,,,0,0,6,,,69,96,5
157696,note_off,,,,,1024,0,7,,,57,0,6
158208,note_off,,,,,3072,0,8,,,60,0,7
158208,note_on,,,,,0,0,7,,,67,96,6
158208,note_off,,,,,512,0,6,,,69,0,5
158208,note_off,,,,,1536,0,5,,,50,0,4
158208,note_off,,,,,512,0,7,,,62,0,6
158208,note_on,,,,,0,0,6,,,62,96,5
158208,note_on,,,,,0,0,8,,,57,96,7
158208,note_on,,,,,0,0,5,,,54,96,4
158720,note_off,,,,,512,0,7,,,67,0,6
158720,note_on,,,,,0,0,7,,,67,96,6
158720,note_on,,,,,0,0,6,,,66,96,5
158720,note_off,,,,,512,0,6,,,62,0,5
159232,note_on,,,,,0,0,6,,,69,96,5
159232,note_off,,,,,512,0,6,,,66,0,5
159744,note_on,,,,,0,0,7,,,69,96,6
159744,note_on,,,,,0,0,5,,,50,96,4
159744,note_off,,,,,1024,0,7,,,67,0,6
159744,note_off,,,,,1536,0,5,,,54,0,4
159744,note_off,,,,,1536,0,8,,,57,0,7
159744,note_on,,,,,0,0,8,,,66,96,7
159744,note_on,,,,,0,0,6,,,72,96,5
159744,note_off,,,,,512,0,6,,,69,0,5
160256,note_on,,,,,0,0,6,,,71,96,5
160256,note_off,,,,,512,0,6,,,72,0,5
160768,note_off,,,,,1024,0,7,,,69,0,6
160768,note_on,,,,,0,0,7,,,66,96,6
160768,note_on,,,,,0,0,6,,,69,96,5
160768,note_off,,,,,512,0,6,,,71,0,5
161280,note_on,,,,,0,0,6,,,71,96,5
161280,note_off,,,,,1536,0,8,,,66,0,7
161280,note_on,,,,,0,0,8,,,67,96,7
161280,note_off,,,,,512,0,6,,,69,0,5
161280,note_off,,,,,1536,0,5,,,50,0,4
161280,note_on,,,,,0,0,5,,,55,96,4
161280,note_off,,,,,512,0,7,,,66,0,6
161280,note_on,,,,,0,0,7,,,62,96,6
161792,note_on,,,,,0,0,6,,,67,96,5
161792,note_off,,,,,512,0,6,,,71,0,5
162304,note_on,,,,,0,0,6,,,69,96,5
162304,note_on,,,,,0,0,7,,,66,96,6
162304,note_off,,,,,512,0,6,,,67,0,5
162304,note_off,,,,,1024,0,7,,,62,0,6
162816,note_off,,,,,1536,0,8,,,67,0,7
162816,note_off,,,,,512,0,6,,,69,0,5
162816,note_on,,,,,0,0,8,,,55,96,7
162816,note_on,,,,,0,0,5,,,52,96,4
162816,note_off,,,,,512,0,7,,,66,0,6
162816,note_on,,,,,0,0,7,,,67,96,6
162816,note_off,,,,,1536,0,5,,,55,0,4
162816,note_on,,,,,0,0,6,,,71,96,5
163328,note_off,,,,,512,0,6,,,71,0,5
163328,note_on,,,,,0,0,6,,,74,96,5
163840,note_off,,,,,1024,0,7,,,67,0,6
163840,note_on,,,,,0,0,7,,,66,96,6
163840,note_on,,,,,0,0,6,,,72,96,5
163840,note_off,,,,,512,0,6,,,74,0,5
164352,note_on,,,,,0,0,5,,,48,96,4
164352,note_off,,,,,1536,0,5,,,52,0,4
164352,note_on,,,,,0,0,8,,,64,96,7
164352,note_off,,,,,1536,0,8,,,55,0,7
164352,note_off,,,,,512,0,6,,,72,0,5
164352,note_on,,,,,0,0,7,,,67,96,6
164352,note_off,,,,,512,0,7,,,66,0,6
164352,note_on,,,,,0,0,6,,,72,96,5
164864,note_on,,,,,0,0,6,,,76,96,5
164864,note_off,,,,,512,0,6,,,72,0,5
165376,note_on,,,,,0,0,7,,,69,96,6
165376,note_off,,,,,1024,0,7,,,67,0,6
165376,note_on,,,,,0,0,6,,,74,96,5
165376,note_off,,,,,512,0,6,,,76,0,5
165888,note_on,,,,,0,0,8,,,67,96,7
165888,note_on,,,,,0,0,6,,,74,96,5
165888,note_off,,,,,1536,0,8,,,64,0,7
165888,note_off,,,,,1536,0,5,,,48,0,4
165888,note_off,,,,,512,0,7,,,69,0,6
165888,note_on,,,,,0,0,7,,,71,96,6
165888,note_off,,,,,512,0,6,,,74,0,5
165888,note_on,,,,,0,0,5,,,47,96,4
166400,note_off,,,,,512,0,6,,,74,0,5
166400,note_on,,,,,0,0,6,,,79,96,5
166912,note_off,,,,,512,0,6,,,79,0,5
166912,note_on,,,,,0,0,6,,,78,96,5
166912,note_off,,,,,1024,0,7,,,71,0,6
166912,note_on,,,,,0,0,7,,,69,96,6
167424,note_on,,,,,0,0,5,,,52,96,4
167424,note_off,,,,,512,0,7,,,69,0,6
167424,note_on,,,,,0,0,7,,,71,96,6
167424,note_on,,,,,0,0,6,,,79,96,5
167424,note_off,,,,,512,0,6,,,78,0,5
167424,note_on,,,,,0,0,8,,,64,96,7
167424,note_off,,,,,1536,0,8,,,67,0,7
167424,note_off,,,,,1536,0,5,,,47,0,4
167936,note_off,,,,,512,0,6,,,79,0,5
167936,note_on,,,,,0,0,6,,,74,96,5
168448,note_off,,,,,512,0,6,,,74,0,5
168448,note_on,,,,,0,0,7,,,67,96,6
168448,note_off,,,,,1024,0,7,,,71,0,6
168448,note_on,,,,,0,0,6,,,71,96,5
168960,note_on,,,,,0,0,8,,,59,96,7
168960,note_off,,,,,1536,0,8,,,64,0,7
168960,note_off,,,,,1536,0,5,,,52,0,4
168960,note_on,,,,,0,0,6,,,67,96,5
168960,note_on,,,,,0,0,7,,,64,96,6
168960,note_on,,,,,0,0,5,,,50,96,4
168960,note_off,,,,,512,0,7,,,67,0,6
168960,note_off,,,,,512,0,6,,,71,0,5
169472,note_off,,,,,512,0,6,,,67,0,5
169472,note_on,,,,,0,0,6,,,69,96,5
169984,note_off,,,,,512,0,6,,,69,0,5
169984,note_on,,,,,0,0,7,,,67,96,6
169984,note_on,,,,,0,0,6,,,71,96,5
169984,note_off,,,,,1024,0,7,,,64,0,6
170496,note_on,,,,,0,0,6,,,64,96,5
170496,note_off,,,,,512,0,6,,,71,0,5
170496,note_off,,,,,512,0,7,,,67,0,6
170496,note_on,,,,,0,0,7,,,69,96,6
170496,note_on,,,,,0,0,5,,,48,96,4
170496,note_off,,,,,1536,0,5,,,50,0,4
170496,note_off,,,,,1536,0,8,,,59,0,7
170496,note_on,,,,,0,0,8,,,60,96,7
171008,note_on,,,,,0,0,6,,,74,96,5
171008,note_off,,,,,512,0,6,,,64,0,5
171520,note_on,,,,,0,0,6,,,72,96,5
171520,note_off,,,,,512,0,6,,,74,0,5
171520,note_off,,,,,1024,0,7,,,69,0,6
171520,note_on,,,,,0,0,7,,,66,96,6
172032,note_on,,,,,0,0,6,,,71,96,5
172032,note_off,,,,,1536,0,5,,,48,0,4
172032,note_off,,,,,1536,0,8,,,60,0,7
172032,note_on,,,,,0,0,8,,,64,96,7
172032,note_off,,,,,512,0,7,,,66,0,6
172032,note_on,,,,,0,0,7,,,67,96,6
172032,note_off,,,,,512,0,6,,,72,0,5
172032,note_on,,,,,0,0,5,,,49,96,4
172544,note_off,,,,,512,0,6,,,71,0,5
172544,note_on,,,,,0,0,6,,,69,96,5
173056,note_on,,,,,0,0,6,,,67,96,5
173056,note_on,,,,,0,0,7,,,64,96,6
173056,note_off,,,,,1024,0,7,,,67,0,6
173056,note_off,,,,,512,0,6,,,69,0,5
173568,note_on,,,,,0,0,5,,,50,96,4
173568,note_off,,,,,1536,0,5,,,49,0,4
173568,note_off,,,,,1536,0,8,,,64,0,7
173568,note_on,,,,,0,0,7,,,57,96,6
173568,note_on,,,,,0,0,8,,,62,96,7
173568,note_off,,,,,512,0,7,,,64,0,6
173568,note_on,,,,,0,0,6,,,62,96,5
173568,note_off,,,,,512,0,6,,,67,0,5
174080,note_off,,,,,512,0,6,,,62,0,5
174080,note_on,,,,,0,0,6,,,67,96,5
174592,note_on,,,,,0,0,7,,,60,96,6
174592,note_off,,,,,512,0,6,,,67,0,5
174592,note_on,,,,,0,0,6,,,66,96,5
174592,note_off,,,,,1024,0,7,,,57,0,6
175104,note_on,,,,,0,0,5,,,43,96,4
175104,note_on,,,,,0,0,7,,,59,96,6
175104,note_off,,,,,1536,0,8,,,62,0,7
175104,note_off,,,,,512,0,6,,,66,0,5
175104,note_on,,,,,0,0,6,,,67,96,5
175104,note_on,,,,,0,0,8,,,62,96,7
175104,note_off,,,,,1536,0,5,,,50,0,4
175104,note_off,,,,,512,0,7,,,60,0,6
175616,note_on,,,,,0,0,7,,,67,96,6
175616,note_off,,,,,512,0,6,,,67,0,5
175616,note_on,,,,,0,0,6,,,71,96,5
175616,note_off,,,,,512,0,7,,,59,0,6
176128,note_on,,,,,0,0,6,,,74,96,5
176128,note_off,,,,,512,0,6,,,71,0,5
176640,note_off,,,,,1536,0,8,,,62,0,7
176640,note_off,,,,,512,0,6,,,74,0,5
176640,note_on,,,,,0,0,6,,,79,96,5
176640,note_off,,,,,1536,0,5,,,43,0,4
176640,note_off,,,,,1024,0,7,,,67,0,6
176640,note_on,,,,,0,0,7,,,71,96,6
177152,note_off,,,,,512,0,6,,,79,0,5
177152,note_on,,,,,0,0,6,,,74,96,5
177664,note_on,,,,,0,0,7,,,74,96,6
177664,note_off,,,,,512,0,6,,,74,0,5
177664,note_on,,,,,0,0,6,,,71,96,5
177664,note_on,,,,,1024,0,5,,,55,96,4
177664,note_off,,,,,1024,0,7,,,71,0,6
177664,note_on,,,,,1024,0,8,,,67,96,7
178176,note_on,,,,,0,0,5,,,54,96,4
178176,note_off,,,,,512,0,7,,,74,0,6
178176,note_on,,,,,0,0,7,,,79,96,6
178176,note_on,,,,,0,0,6,,,67,96,5
178176,note_off,,,,,512,0,6,,,71,0,5
178176,note_off,,,,,512,0,8,,,67,0,7
178176,note_on,,,,,0,0,8,,,62,96,7
178176,note_off,,,,,512,0,5,,,55,0,4
178688,note_off,,,,,512,0,6,,,67,0,5
178688,note_on,,,,,0,0,6,,,71,96,5
179200,note_off,,,,,512,0,6,,,71,0,5
179200,note_on,,,,,0,0,7,,,67,96,6
179200,note_off,,,,,1024,0,5,,,54,0,4
179200,note_on,,,,,0,0,5,,,52,96,4
179200,note_off,,,,,1024,0,7,,,79,0,6
179200,note_on,,,,,0,0,6,,,73,96,5
179200,note_off,,,,,1024,0,8,,,62,0,7
179200,note_on,,,,,0,0,8,,,64,96,7
179712,note_on,,,,,33792,0,2,,,66,96,1
179712,note_on,,,,,0,0,6,,,74,96,5
179712,note_off,,,,,512,0,6,,,73,0,5
179712,note_on,,,,,0,0,7,,,69,96,6
179712,note_on,,,,,33792,0,3,,,62,96,2
179712,note_off,,,,,512,0,5,,,52,0,4
179712,note_on,,,,,0,0,5,,,50,96,4
179712,note_off,,,,,512,0,7,,,67,0,6
179712,note_on,,,,,33792,0,4,,,50,96,3
179712,note_on,,,,,33792,0,1,,,69,96,0
179712,note_on,,,,,0,0,8,,,66,96,7
179712,note_off,,,,,512,0,8,,,64,0,7
180224,note_on,,,,,0,0,6,,,62,96,5
180224,note_off,,,,,512,0,6,,,74,0,5
180736,note_off,,,,,512,0,6,,,62,0,5
180736,note_on,,,,,0,0,6,,,64,96,5
180736,note_off,,,,,1024,0,7,,,69,0,6
180736,note_on,,,,,0,0,7,,,67,96,6
181248,note_off,,,,,1536,0,8,,,66,0,7
181248,note_on,,,,,0,0,6,,,66,96,5
181248,note_off,,,,,512,0,6,,,64,0,5
181248,note_off,,,,,1536,0,5,,,50,0,4
181248,note_on,,,,,0,0,5,,,48,96,4
181248,note_off,,,,,1536,0,4,,,50,0,3
181248,note_on,,,,,0,0,4,,,48,96,3
181248,note_on,,,,,0,0,8,,,62,96,7
181248,note_on,,,,,0,0,7,,,69,96,6
181248,note_off,,,,,512,0,7,,,67,0,6
181760,note_on,,,,,0,0,6,,,69,96,5
181760,note_off,,,,,512,0,6,,,66,0,5
182272,note_on,,,,,0,0,6,,,68,96,5
182272,note_off,,,,,1024,0,7,,,69,0,6
182272,note_off,,,,,512,0,6,,,69,0,5
182272,note_on,,,,,0,0,7,,,74,96,6
182784,note_off,,,,,512,0,7,,,74,0,6
182784,note_on,,,,,0,0,8,,,62,96,7
182784,note_off,,,,,1536,0,8,,,62,0,7
182784,note_on,,,,,0,0,5,,,47,96,4
182784,note_off,,,,,1536,0,5,,,48,0,4
182784,note_off,,,,,3072,0,2,,,66,0,1
182784,note_on,,,,,0,0,2,,,68,96,1
182784,note_off,,,,,3072,0,1,,,69,0,0
182784,note_on,,,,,0,0,1,,,71,96,0
182784,note_on,,,,,0,0,6,,,68,96,5
182784,note_on,,,,,0,0,4,,,47,96,3
182784,note_off,,,,,1536,0,4,,,48,0,3
182784,note_on,,,,,0,0,7,,,62,96,6
182784,note_off,,,,,3072,0,3,,,62,0,2
182784,note_on,,,,,0,0,3,,,62,96,2
182784,note_off,,,,,512,0,6,,,68,0,5
183296,note_off,,,,,512,0,6,,,68,0,5
183296,note_on,,,,,0,0,6,,,71,96,5
183808,note_on,,,,,0,0,6,,,69,96,5
183808,note_on,,,,,0,0,7,,,60,96,6
183808,note_off,,,,,1024,0,7,,,62,0,6
183808,note_off,,,,,512,0,6,,,71,0,5
184320,note_on,,,,,0,0,2,,,69,96,1
184320,note_on,,,,,0,0,3,,,64,96,2
184320,note_off,,,,,1536,0,1,,,71,0,0
184320,note_on,,,,,0,0,1,,,72,96,0
184320,note_off,,,,,1536,0,3,,,62,0,2
184320,note_off,,,,,1536,0,2,,,68,0,1
184320,note_on,,,,,0,0,7,,,60,96,6
184320,note_on,,,,,0,0,4,,,45,96,3
184320,note_on,,,,,0,0,8,,,64,96,7
184320,note_off,,,,,1536,0,8,,,62,0,7
184320,note_on,,,,,0,0,5,,,45,96,4
184320,note_off,,,,,1536,0,5,,,47,0,4
184320,note_off,,,,,1536,0,4,,,47,0,3
184320,note_on,,,,,0,0,6,,,69,96,5
184320,note_off,,,,,512,0,6,,,69,0,5
184320,note_off,,,,,512,0,7,,,60,0,6
184832,note_off,,,,,512,0,6,,,69,0,5
184832,note_on,,,,,0,0,6,,,72,96,5
185344,note_on,,,,,0,0,7,,,62,96,6
185344,note_off,,,,,1024,0,7,,,60,0,6
185344,note_off,,,,,512,0,6,,,72,0,5
185344,note_on,,,,,0,0,6,,,71,96,5
185856,note_off,,,,,512,0,7,,,62,0,6
185856,note_off,,,,,1536,0,8,,,64,0,7
185856,note_off,,,,,1536,0,4,,,45,0,3
185856,note_on,,,,,0,0,4,,,57,96,3
185856,note_on,,,,,0,0,5,,,57,96,4
185856,note_off,,,,,1536,0,5,,,45,0,4
185856,note_on,,,,,0,0,7,,,64,96,6
185856,note_on,,,,,0,0,8,,,57,96,7
185856,note_off,,,,,512,0,6,,,71,0,5
185856,note_on,,,,,0,0,6,,,72,96,5
186368,note_off,,,,,512,0,6,,,72,0,5
186368,note_on,,,,,0,0,6,,,69,96,5
186624,note_on,,,,,0,0,4,,,55,96,3
186624,note_off,,,,,768,0,4,,,57,0,3
186624,note_off,,,,,768,0,5,,,57,0,4
186624,note_on,,,,,0,0,5,,,55,96,4
186880,note_off,,,,,512,0,6,,,69,0,5
186880,note_on,,,,,0,0,6,,,64,96,5
186880,note_on,,,,,0,0,7,,,60,96,6
186880,note_off,,,,,1024,0,7,,,64,0,6
187392,note_off,,,,,1536,0,8,,,57,0,7
187392,note_on,,,,,0,0,1,,,72,96,0
187392,note_off,,,,,3072,0,1,,,72,0,0
187392,note_off,,,,,512,0,7,,,60,0,6
187392,note_on,,,,,0,0,2,,,69,96,1
187392,note_on,,,,,0,0,6,,,60,96,5
187392,note_off,,,,,512,0,6,,,64,0,5
187392,note_on,,,,,0,0,5,,,53,96,4
187392,note_off,,,,,768,0,5,,,55,0,4
187392,note_on,,,,,0,0,8,,,69,96,7
187392,note_off,,,,,3072,0,2,,,69,0,1
187392,note_on,,,,,0,0,4,,,53,96,3
187392,note_on,,,,,0,0,7,,,57,96,6
187392,note_off,,,,,768,0,4,,,55,0,3
187392,note_off,,,,,3072,0,3,,,64,0,2
187392,note_on,,,,,0,0,3,,,65,96,2
187904,note_on,,,,,0,0,6,,,62,96,5
187904,note_off,,,,,512,0,6,,,60,0,5
188160,note_off,,,,,768,0,4,,,53,0,3
188160,note_on,,,,,0,0,5,,,52,96,4
188160,note_off,,,,,768,0,5,,,53,0,4
188160,note_on,,,,,0,0,4,,,52,96,3
188416,note_on,,,,,0,0,7,,,60,96,6
188416,note_off,,,,,1024,0,7,,,57,0,6
188416,note_on,,,,,0,0,6,,,64,96,5
188416,note_off,,,,,512,0,6,,,62,0,5
188928,note_on,,,,,0,0,6,,,65,96,5
188928,note_off,,,,,512,0,6,,,64,0,5
188928,note_off,,,,,768,0,4,,,52,0,3
188928,note_off,,,,,1536,0,2,,,69,0,1
188928,note_off,,,,,1536,0,1,,,72,0,0
188928,note_on,,,,,0,0,1,,,71,96,0
188928,note_on,,,,,0,0,2,,,69,96,1
188928,note_on,,,,,0,0,5,,,50,96,4
188928,note_off,,,,,768,0,5,,,52,0,4
188928,note_on,,,,,0,0,4,,,50,96,3
188928,note_on,,,,,0,0,7,,,62,96,6
188928,note_off,,,,,1536,0,3,,,65,0,2
188928,note_on,,,,,0,0,3,,,65,96,2
188928,note_off,,,,,512,0,7,,,60,0,6
189440,note_on,,,,,0,0,6,,,74,96,5
189440,note_off,,,,,512,0,6,,,65,0,5
189952,note_on,,,,,0,0,7,,,64,96,6
189952,note_off,,,,,1024,0,7,,,62,0,6
189952,note_on,,,,,0,0,6,,,72,96,5
189952,note_off,,,,,512,0,6,,,74,0,5
190464,note_off,,,,,1536,0,4,,,50,0,3
190464,note_on,,,,,0,0,7,,,65,96,6
190464,note_off,,,,,512,0,7,,,64,0,6
190464,note_on,,,,,0,0,6,,,74,96,5
190464,note_off,,,,,1536,0,5,,,50,0,4
190464,note_on,,,,,0,0,5,,,47,96,4
190464,note_off,,,,,512,0,6,,,72,0,5
190464,note_on,,,,,0,0,4,,,47,96,3
190464,note_off,,,,,1536,0,3,,,65,0,2
190464,note_on,,,,,0,0,3,,,62,96,2
190464,note_off,,,,,3072,0,8,,,69,0,7
190464,note_on,,,,,0,0,8,,,69,96,7
190976,note_off,,,,,512,0,6,,,74,0,5
190976,note_on,,,,,0,0,6,,,71,96,5
191232,note_off,,,,,2304,0,1,,,71,0,0
191232,note_on,,,,,0,0,1,,,72,96,0
191488,note_off,,,,,1024,0,7,,,65,0,6
191488,note_on,,,,,0,0,7,,,62,96,6
191488,note_off,,,,,512,0,6,,,71,0,5
191488,note_on,,,,,0,0,6,,,68,96,5
191616,note_off,,,,,384,0,1,,,72,0,0
191616,note_on,,,,,0,0,1,,,74,96,0
192000,note_on,,,,,0,0,8,,,68,96,7
192000,note_off,,,,,1536,0,3,,,62,0,2
192000,note_off,,,,,1536,0,5,,,47,0,4
192000,note_on,,,,,0,0,5,,,52,96,4
192000,note_on,,,,,0,0,1,,,71,96,0
192000,note_off,,,,,384,0,1,,,74,0,0
192000,note_on,,,,,0,0,3,,,64,96,2
192000,note_off,,,,,1536,0,8,,,69,0,7
192000,note_on,,,,,0,0,7,,,59,96,6
192000,note_off,,,,,512,0,7,,,62,0,6
192000,note_off,,,,,3072,0,2,,,69,0,1
192000,note_on,,,,,0,0,2,,,68,96,1
192000,note_off,,,,,1536,0,4,,,47,0,3
192000,note_on,,,,,0,0,4,,,52,96,3
192000,note_off,,,,,512,0,6,,,68,0,5
192000,note_on,,,,,0,0,6,,,64,96,5
192512,note_on,,,,,0,0,6,,,66,96,5
192512,note_off,,,,,512,0,6,,,64,0,5
193024,note_on,,,,,0,0,6,,,68,96,5
193024,note_off,,,,,512,0,6,,,66,0,5
193024,note_on,,,,,0,0,7,,,62,96,6
193024,note_off,,,,,1024,0,7,,,59,0,6
193536,note_off,,,,,1536,0,4,,,52,0,3
193536,note_on,,,,,0,0,4,,,45,96,3
193536,note_on,,,,,0,0,2,,,69,96,1
193536,note_off,,,,,1536,0,2,,,68,0,1
193536,note_off,,,,,1536,0,8,,,68,0,7
193536,note_off,,,,,1536,0,3,,,64,0,2
193536,note_on,,,,,0,0,3,,,60,96,2
193536,note_off,,,,,1536,0,1,,,71,0,0
193536,note_on,,,,,0,0,1,,,69,96,0
193536,note_on,,,,,0,0,5,,,45,96,4
193536,note_on,,,,,0,0,7,,,60,96,6
193536,note_on,,,,,0,0,8,,,64,96,7
193536,note_on,,,,,0,0,6,,,69,96,5
193536,note_off,,,,,512,0,7,,,62,0,6
193536,note_off,,,,,1536,0,5,,,52,0,4
193536,note_off,,,,,512,0,6,,,68,0,5
194048,note_on,,,,,0,0,6,,,72,96,5
194048,note_off,,,,,512,0,6,,,69,0,5
194560,note_off,,,,,512,0,6,,,72,0,5
194560,note_on,,,,,0,0,6,,,71,96,5
194560,note_off,,,,,1024,0,7,,,60,0,6
194560,note_on,,,,,0,0,7,,,64,96,6
195072,note_off,,,,,1536,0,1,,,69,0,0
195072,note_off,,,,,1536,0,2,,,69,0,1
195072,note_on,,,,,0,0,1,,,69,96,0
195072,note_on,,,,,0,0,6,,,72,96,5
195072,note_off,,,,,512,0,6,,,71,0,5
195072,note_on,,,,,0,0,2,,,69,96,1
195072,note_off,,,,,1536,0,8,,,64,0,7
195072,note_on,,,,,0,0,8,,,57,96,7
195072,note_on,,,,,0,0,5,,,53,96,4
195072,note_on,,,,,0,0,7,,,69,96,6
195072,note_off,,,,,512,0,7,,,64,0,6
195072,note_on,,,,,0,0,3,,,60,96,2
195072,note_off,,,,,1536,0,5,,,45,0,4
195072,note_off,,,,,1536,0,3,,,60,0,2
195072,note_on,,,,,0,0,4,,,45,96,3
195072,note_off,,,,,1536,0,4,,,45,0,3
195584,note_off,,,,,512,0,6,,,72,0,5
195584,note_on,,,,,0,0,6,,,76,96,5
196096,note_on,,,,,0,0,6,,,74,96,5
196096,note_on,,,,,0,0,7,,,68,96,6
196096,note_off,,,,,1024,0,7,,,69,0,6
196096,note_off,,,,,512,0,6,,,76,0,5
196608,note_off,,,,,1536,0,4,,,45,0,3
196608,note_on,,,,,0,0,8,,,65,96,7
196608,note_off,,,,,512,0,6,,,74,0,5
196608,note_on,,,,,0,0,6,,,74,96,5
196608,note_off,,,,,1536,0,8,,,57,0,7
196608,note_on,,,,,0,0,7,,,69,96,6
196608,note_off,,,,,1536,0,2,,,69,0,1
196608,note_off,,,,,512,0,7,,,68,0,6
196608,note_on,,,,,0,0,5,,,50,96,4
196608,note_off,,,,,1536,0,3,,,60,0,2
196608,note_off,,,,,1536,0,5,,,53,0,4
196608,note_off,,,,,1536,0,1,,,69,0,0
197120,note_off,,,,,512,0,6,,,74,0,5
197120,note_on,,,,,0,0,6,,,77,96,5
197632,note_off,,,,,512,0,6,,,77,0,5
197632,note_off,,,,,1024,0,7,,,69,0,6
197632,note_on,,,,,0,0,7,,,71,96,6
197632,note_on,,,,,0,0,6,,,76,96,5
198144,note_on,,,,,0,0,5,,,48,96,4
198144,note_off,,,,,1536,0,8,,,65,0,7
198144,note_off,,,,,1536,0,5,,,50,0,4
198144,note_off,,,,,512,0,6,,,76,0,5
198144,note_on,,,,,0,0,7,,,72,96,6
198144,note_on,,,,,0,0,8,,,69,96,7
198144,note_on,,,,,0,0,6,,,76,96,5
198144,note_off,,,,,512,0,7,,,71,0,6
198656,note_on,,,,,0,0,6,,,81,96,5
198656,note_off,,,,,512,0,6,,,76,0,5
199168,note_on,,,,,0,0,7,,,71,96,6
199168,note_on,,,,,0,0,6,,,80,96,5
199168,note_off,,,,,512,0,6,,,81,0,5
199168,note_off,,,,,1024,0,7,,,72,0,6
199680,note_off,,,,,512,0,7,,,71,0,6
199680,note_on,,,,,0,0,5,,,53,96,4
199680,note_off,,,,,1536,0,8,,,69,0,7
199680,note_on,,,,,0,0,8,,,65,96,7
199680,note_off,,,,,1536,0,5,,,48,0,4
199680,note_on,,,,,0,0,6,,,81,96,5
199680,note_on,,,,,0,0,7,,,72,96,6
199680,note_off,,,,,512,0,6,,,80,0,5
200192,note_on,,,,,0,0,6,,,76,96,5
200192,note_off,,,,,512,0,6,,,81,0,5
200704,note_off,,,,,512,0,6,,,76,0,5
200704,note_on,,,,,0,0,6,,,72,96,5
200704,note_off,,,,,1024,0,7,,,72,0,6
200704,note_on,,,,,0,0,7,,,69,96,6
201216,note_on,,,,,0,0,7,,,65,96,6
201216,note_off,,,,,1536,0,5,,,53,0,4
201216,note_on,,,,,0,0,5,,,52,96,4
201216,note_off,,,,,512,0,6,,,72,0,5
201216,note_on,,,,,0,0,6,,,69,96,5
201216,note_on,,,,,0,0,8,,,60,96,7
201216,note_off,,,,,1536,0,8,,,65,0,7
201216,note_off,,,,,512,0,7,,,69,0,6
201728,note_off,,,,,512,0,6,,,69,0,5
201728,note_off,,,,,512,0,7,,,65,0,6
201728,note_on,,,,,0,0,7,,,69,96,6
201728,note_on,,,,,0,0,6,,,71,96,5
202240,note_off,,,,,512,0,6,,,71,0,5
202240,note_on,,,,,0,0,6,,,72,96,5
202752,note_on,,,,,0,0,6,,,77,96,5
202752,note_off,,,,,512,0,6,,,72,0,5
202752,note_off,,,,,1024,0,7,,,69,0,6
202752,note_on,,,,,0,0,7,,,69,96,6
202752,note_off,,,,,1536,0,8,,,60,0,7
202752,note_on,,,,,0,0,8,,,62,96,7
202752,note_on,,,,,0,0,5,,,50,96,4
202752,note_off,,,,,1536,0,5,,,52,0,4
203264,note_off,,,,,512,0,6,,,77,0,5
203264,note_on,,,,,0,0,6,,,76,96,5
203776,note_off,,,,,512,0,6,,,76,0,5
203776,note_on,,,,,0,0,6,,,74,96,5
203776,note_off,,,,,1024,0,7,,,69,0,6
203776,note_on,,,,,0,0,7,,,68,96,6
204288,note_off,,,,,1536,0,5,,,50,0,4
204288,note_on,,,,,0,0,8,,,66,96,7
204288,note_off,,,,,1536,0,8,,,62,0,7
204288,note_off,,,,,512,0,7,,,68,0,6
204288,note_on,,,,,0,0,7,,,69,96,6
204288,note_on,,,,,0,0,5,,,51,96,4
204288,note_on,,,,,0,0,6,,,72,96,5
204288,note_off,,,,,512,0,6,,,74,0,5
204800,note_on,,,,,0,0,6,,,71,96,5
204800,note_off,,,,,512,0,6,,,72,0,5
205312,note_on,,,,,0,0,7,,,66,96,6
205312,note_on,,,,,0,0,6,,,69,96,5
205312,note_off,,,,,512,0,6,,,71,0,5
205312,note_off,,,,,1024,0,7,,,69,0,6
205824,note_on,,,,,0,0,7,,,59,96,6
205824,note_off,,,,,512,0,7,,,66,0,6
205824,note_off,,,,,1536,0,5,,,51,0,4
205824,note_on,,,,,0,0,8,,,64,96,7
205824,note_off,,,,,1536,0,8,,,66,0,7
205824,note_on,,,,,0,0,5,,,52,96,4
205824,note_on,,,,,0,0,6,,,64,96,5
205824,note_off,,,,,512,0,6,,,69,0,5
206336,note_on,,,,,0,0,6,,,69,96,5
206336,note_off,,,,,512,0,6,,,64,0,5
206848,note_off,,,,,512,0,6,,,69,0,5
206848,note_on,,,,,0,0,7,,,62,96,6
206848,note_on,,,,,0,0,6,,,68,96,5
206848,note_off,,,,,1024,0,7,,,59,0,6
207360,note_on,,,,,10752,0,3,,,64,96,2
207360,note_on,,,,,0,0,8,,,64,96,7
207360,note_off,,,,,1536,0,8,,,64,0,7
207360,note_on,,,,,10752,0,1,,,72,96,0
207360,note_off,,,,,1536,0,5,,,52,0,4
207360,note_on,,,,,0,0,5,,,45,96,4
207360,note_on,,,,,10752,0,4,,,57,96,3
207360,note_off,,,,,512,0,6,,,68,0,5
207360,note_on,,,,,0,0,6,,,69,96,5
207360,note_on,,,,,10752,0,2,,,69,96,1
207360,note_off,,,,,512,0,7,,,62,0,6
207360,note_on,,,,,0,0,7,,,60,96,6
207872,note_off,,,,,512,0,6,,,69,0,5
207872,note_on,,,,,0,0,6,,,72,96,5
208384,note_off,,,,,512,0,6,,,72,0,5
208384,note_on,,,,,0,0,6,,,76,96,5
208896,note_off,,,,,1536,0,8,,,64,0,7
208896,note_off,,,,,512,0,6,,,76,0,5
208896,note_on,,,,,0,0,5,,,57,96,4
208896,note_off,,,,,1536,0,5,,,45,0,4
208896,note_on,,,,,0,0,6,,,81,96,5
208896,note_off,,,,,1536,0,7,,,60,0,6
209408,note_off,,,,,512,0,6,,,81,0,5
210432,note_on,,,,,0,0,1,,,74,96,0
210432,note_on,,,,,0,0,5,,,59,96,4
210432,note_off,,,,,3072,0,2,,,69,0,1
210432,note_on,,,,,0,0,2,,,67,96,1
210432,note_on,,,,,0,0,4,,,59,96,3
210432,note_off,,,,,3072,0,4,,,57,0,3
210432,note_off,,,,,3072,0,1,,,72,0,0
210432,note_off,,,,,3072,0,3,,,64,0,2
210432,note_off,,,,,1536,0,5,,,57,0,4
210432,note_on,,,,,0,0,3,,,62,96,2
211968,note_off,,,,,1536,0,3,,,62,0,2
211968,note_off,,,,,1536,0,5,,,59,0,4
211968,note_on,,,,,0,0,5,,,60,96,4
211968,note_off,,,,,1536,0,1,,,74,0,0
211968,note_on,,,,,0,0,1,,,76,96,0
211968,note_off,,,,,1536,0,2,,,67,0,1
211968,note_on,,,,,0,0,2,,,67,96,1
211968,note_on,,,,,0,0,4,,,60,96,3
211968,note_off,,,,,1536,0,4,,,59,0,3
211968,note_on,,,,,0,0,3,,,60,96,2
212480,note_on,,,,,3072,0,6,,,72,96,5
212992,note_on,,,,,0,0,6,,,74,96,5
212992,note_off,,,,,512,0,6,,,72,0,5
213504,note_on,,,,,0,0,2,,,72,96,1
213504,note_off,,,,,1536,0,2,,,67,0,1
213504,note_on,,,,,4608,0,7,,,72,96,6
213504,note_on,,,,,0,0,5,,,57,96,4
213504,note_off,,,,,1536,0,5,,,60,0,4
213504,note_on,,,,,0,0,6,,,76,96,5
213504,note_on,,,,,4608,0,8,,,69,96,7
213504,note_off,,,,,512,0,6,,,74,0,5
213504,note_off,,,,,1536,0,4,,,60,0,3
213504,note_on,,,,,0,0,4,,,57,96,3
214016,note_off,,,,,512,0,6,,,76,0,5
214016,note_on,,,,,0,0,6,,,79,96,5
214528,note_off,,,,,1024,0,7,,,72,0,6
214528,note_on,,,,,0,0,7,,,74,96,6
214528,note_on,,,,,0,0,6,,,77,96,5
214528,note_off,,,,,512,0,6,,,79,0,5
215040,note_on,,,,,0,0,3,,,60,96,2
215040,note_off,,,,,1536,0,8,,,69,0,7
215040,note_on,,,,,0,0,6,,,79,96,5
215040,note_off,,,,,512,0,6,,,77,0,5
215040,note_on,,,,,0,0,4,,,52,96,3
215040,note_off,,,,,1536,0,2,,,72,0,1
215040,note_on,,,,,0,0,2,,,67,96,1
215040,note_off,,,,,3072,0,1,,,76,0,0
215040,note_on,,,,,0,0,5,,,52,96,4
215040,note_off,,,,,1536,0,4,,,57,0,3
215040,note_off,,,,,3072,0,3,,,60,0,2
215040,note_off,,,,,512,0,7,,,74,0,6
215040,note_on,,,,,0,0,7,,,76,96,6
215040,note_off,,,,,1536,0,5,,,57,0,4
215040,note_on,,,,,0,0,1,,,76,96,0
215040,note_on,,,,,0,0,8,,,67,96,7
215552,note_on,,,,,0,0,6,,,82,96,5
215552,note_off,,,,,512,0,6,,,79,0,5
216064,note_on,,,,,0,0,7,,,72,96,6
216064,note_on,,,,,0,0,6,,,81,96,5
216064,note_off,,,,,512,0,6,,,82,0,5
216064,note_off,,,,,1024,0,7,,,76,0,6
216576,note_off,,,,,1536,0,4,,,52,0,3
216576,note_on,,,,,0,0,4,,,53,96,3
216576,note_off,,,,,512,0,7,,,72,0,6
216576,note_off,,,,,1536,0,2,,,67,0,1
216576,note_on,,,,,0,0,2,,,65,96,1
216576,note_on,,,,,0,0,7,,,65,96,6
216576,note_on,,,,,0,0,1,,,74,96,0
216576,note_on,,,,,0,0,5,,,53,96,4
216576,note_off,,,,,1536,0,3,,,60,0,2
216576,note_on,,,,,0,0,3,,,57,96,2
216576,note_off,,,,,1536,0,8,,,67,0,7
216576,note_on,,,,,0,0,8,,,62,96,7
216576,note_off,,,,,1536,0,5,,,52,0,4
216576,note_off,,,,,512,0,6,,,81,0,5
216576,note_on,,,,,0,0,6,,,81,96,5
216576,note_off,,,,,1536,0,1,,,76,0,0
217088,note_on,,,,,0,0,6,,,84,96,5
217088,note_off,,,,,512,0,6,,,81,0,5
217600,note_off,,,,,1024,0,7,,,65,0,6
217600,note_on,,,,,0,0,7,,,67,96,6
217600,note_off,,,,,512,0,6,,,84,0,5
217600,note_on,,,,,0,0,6,,,83,96,5
218112,note_on,,,,,0,0,7,,,69,96,6
218112,note_on,,,,,0,0,8,,,65,96,7
218112,note_on,,,,,0,0,2,,,69,96,1
218112,note_off,,,,,1536,0,2,,,65,0,1
218112,note_off,,,,,1536,0,8,,,62,0,7
218112,note_off,,,,,1536,0,5,,,53,0,4
218112,note_on,,,,,0,0,6,,,84,96,5
218112,note_off,,,,,1536,0,4,,,53,0,3
218112,note_off,,,,,512,0,7,,,67,0,6
218112,note_on,,,,,0,0,4,,,50,96,3
218112,note_on,,,,,0,0,5,,,50,96,4
218112,note_off,,,,,512,0,6,,,83,0,5
218624,note_off,,,,,512,0,6,,,84,0,5
218624,note_on,,,,,0,0,6,,,81,96,5
218880,note_on,,,,,0,0,1,,,76,96,0
218880,note_off,,,,,2304,0,1,,,74,0,0
219136,note_off,,,,,1024,0,7,,,69,0,6
219136,note_on,,,,,0,0,6,,,77,96,5
219136,note_off,,,,,512,0,6,,,81,0,5
219136,note_on,,,,,0,0,7,,,74,96,6
219264,note_on,,,,,0,0,1,,,77,96,0
219264,note_off,,,,,384,0,1,,,76,0,0
219648,note_on,,,,,0,0,6,,,74,96,5
219648,note_off,,,,,512,0,6,,,77,0,5
219648,note_off,,,,,512,0,7,,,74,0,6
219648,note_on,,,,,0,0,3,,,59,96,2
219648,note_on,,,,,0,0,8,,,67,96,7
219648,note_off,,,,,1536,0,8,,,65,0,7
219648,note_off,,,,,3072,0,3,,,57,0,2
219648,note_off,,,,,1536,0,4,,,50,0,3
219648,note_on,,,,,0,0,4,,,55,96,3
219648,note_off,,,,,1536,0,5,,,50,0,4
219648,note_on,,,,,0,0,7,,,71,96,6
219648,note_on,,,,,0,0,5,,,55,96,4
219648,note_off,,,,,384,0,1,,,77,0,0
219648,note_on,,,,,0,0,1,,,74,96,0
219648,note_off,,,,,1536,0,2,,,69,0,1
219648,note_on,,,,,0,0,2,,,67,96,1
220160,note_on,,,,,0,0,7,,,74,96,6
220160,note_off,,,,,512,0,7,,,71,0,6
220160,note_on,,,,,0,0,6,,,76,96,5
220160,note_off,,,,,512,0,6,,,74,0,5
220672,note_on,,,,,0,0,6,,,77,96,5
220672,note_off,,,,,512,0,6,,,76,0,5
221184,note_off,,,,,512,0,6,,,77,0,5
221184,note_on,,,,,0,0,8,,,67,96,7
221184,note_off,,,,,1536,0,8,,,67,0,7
221184,note_on,,,,,0,0,1,,,72,96,0
221184,note_off,,,,,1536,0,1,,,74,0,0
221184,note_on,,,,,0,0,2,,,67,96,1
221184,note_off,,,,,1536,0,5,,,55,0,4
221184,note_on,,,,,0,0,5,,,48,96,4
221184,note_on,,,,,0,0,6,,,76,96,5
221184,note_on,,,,,0,0,7,,,72,96,6
221184,note_off,,,,,1024,0,7,,,74,0,6
221184,note_off,,,,,1536,0,3,,,59,0,2
221184,note_off,,,,,1536,0,2,,,67,0,1
221184,note_on,,,,,0,0,4,,,48,96,3
221184,note_on,,,,,0,0,3,,,64,96,2
221184,note_off,,,,,1536,0,4,,,55,0,3
221696,note_on,,,,,0,0,6,,,79,96,5
221696,note_off,,,,,512,0,6,,,76,0,5
222208,note_on,,,,,0,0,6,,,77,96,5
222208,note_off,,,,,512,0,6,,,79,0,5
222208,note_off,,,,,1024,0,7,,,72,0,6
222208,note_on,,,,,0,0,7,,,67,96,6
222720,note_off,,,,,1536,0,8,,,67,0,7
222720,note_on,,,,,0,0,1,,,72,96,0
222720,note_off,,,,,512,0,6,,,77,0,5
222720,note_on,,,,,0,0,3,,,64,96,2
222720,note_off,,,,,1536,0,3,,,64,0,2
222720,note_on,,,,,0,0,6,,,79,96,5
222720,note_on,,,,,0,0,8,,,64,96,7
222720,note_on,,,,,0,0,4,,,48,96,3
222720,note_off,,,,,1536,0,4,,,48,0,3
222720,note_off,,,,,1536,0,5,,,48,0,4
222720,note_on,,,,,0,0,5,,,52,96,4
222720,note_off,,,,,1536,0,1,,,72,0,0
222720,note_off,,,,,512,0,7,,,67,0,6
222720,note_on,,,,,0,0,7,,,72,96,6
222720,note_off,,,,,1536,0,2,,,67,0,1
222720,note_on,,,,,0,0,2,,,67,96,1
223232,note_off,,,,,512,0,6,,,79,0,5
223232,note_on,,,,,0,0,6,,,76,96,5
223744,note_off,,,,,1024,0,7,,,72,0,6
223744,note_off,,,,,512,0,6,,,76,0,5
223744,note_on,,,,,0,0,7,,,67,96,6
223744,note_on,,,,,0,0,6,,,72,96,5
224256,note_off,,,,,512,0,7,,,67,0,6
224256,note_on,,,,,0,0,7,,,64,96,6
224256,note_off,,,,,1536,0,4,,,48,0,3
224256,note_off,,,,,1536,0,3,,,64,0,2
224256,note_off,,,,,1536,0,8,,,64,0,7
224256,note_on,,,,,0,0,5,,,48,96,4
224256,note_off,,,,,1536,0,5,,,52,0,4
224256,note_off,,,,,1536,0,2,,,67,0,1
224256,note_on,,,,,0,0,8,,,67,96,7
224256,note_off,,,,,1536,0,1,,,72,0,0
224256,note_on,,,,,0,0,6,,,67,96,5
224256,note_off,,,,,512,0,6,,,72,0,5
224768,note_off,,,,,512,0,6,,,67,0,5
224768,note_on,,,,,0,0,6,,,69,96,5
225280,note_on,,,,,0,0,7,,,62,96,6
225280,note_on,,,,,0,0,6,,,70,96,5
225280,note_off,,,,,512,0,6,,,69,0,5
225280,note_off,,,,,1024,0,7,,,64,0,6
225792,note_on,,,,,0,0,8,,,65,96,7
225792,note_off,,,,,1536,0,5,,,48,0,4
225792,note_off,,,,,512,0,7,,,62,0,6
225792,note_on,,,,,0,0,7,,,60,96,6
225792,note_off,,,,,512,0,6,,,70,0,5
225792,note_off,,,,,1536,0,8,,,67,0,7
225792,note_on,,,,,0,0,6,,,69,96,5
225792,note_on,,,,,0,0,5,,,53,96,4
226304,note_off,,,,,512,0,6,,,69,0,5
226304,note_on,,,,,0,0,6,,,72,96,5
226816,note_on,,,,,0,0,7,,,64,96,6
226816,note_off,,,,,1024,0,7,,,60,0,6
226816,note_on,,,,,0,0,6,,,71,96,5
226816,note_off,,,,,512,0,6,,,72,0,5
227328,note_off,,,,,512,0,6,,,71,0,5
227328,note_off,,,,,512,0,7,,,64,0,6
227328,note_on,,,,,0,0,7,,,65,96,6
227328,note_off,,,,,1536,0,8,,,65,0,7
227328,note_on,,,,,0,0,5,,,50,96,4
227328,note_on,,,,,0,0,8,,,69,96,7
227328,note_on,,,,,0,0,6,,,72,96,5
227328,note_off,,,,,1536,0,5,,,53,0,4
227840,note_off,,,,,512,0,6,,,72,0,5
227840,note_on,,,,,0,0,6,,,69,96,5
228352,note_on,,,,,0,0,7,,,69,96,6
228352,note_off,,,,,1024,0,7,,,65,0,6
228352,note_on,,,,,0,0,6,,,65,96,5
228352,note_off,,,,,512,0,6,,,69,0,5
228864,note_off,,,,,1536,0,5,,,50,0,4
228864,note_on,,,,,0,0,5,,,55,96,4
228864,note_on,,,,,0,0,7,,,71,96,6
228864,note_off,,,,,512,0,7,,,69,0,6
228864,note_on,,,,,0,0,8,,,67,96,7
228864,note_off,,,,,1536,0,8,,,69,0,7
228864,note_on,,,,,0,0,6,,,62,96,5
228864,note_off,,,,,512,0,6,,,65,0,5
229376,note_off,,,,,512,0,6,,,62,0,5
229376,note_on,,,,,0,0,6,,,64,96,5
229888,note_on,,,,,0,0,7,,,74,96,6
229888,note_on,,,,,0,0,6,,,65,96,5
229888,note_off,,,,,512,0,6,,,64,0,5
229888,note_off,,,,,1024,0,7,,,71,0,6
230400,note_on,,,,,0,0,6,,,64,96,5
230400,note_off,,,,,512,0,6,,,65,0,5
230400,note_on,,,,,0,0,7,,,72,96,6
230400,note_on,,,,,0,0,5,,,48,96,4
230400,note_off,,,,,1536,0,5,,,55,0,4
230400,note_off,,,,,1536,0,8,,,67,0,7
230400,note_on,,,,,0,0,8,,,67,96,7
230400,note_off,,,,,512,0,7,,,74,0,6
230912,note_off,,,,,512,0,6,,,64,0,5
230912,note_on,,,,,0,0,6,,,60,96,5
231424,note_off,,,,,1024,0,7,,,72,0,6
231424,note_on,,,,,0,0,7,,,67,96,6
231424,note_off,,,,,512,0,6,,,60,0,5
231424,note_on,,,,,0,0,6,,,62,96,5
231936,note_off,,,,,1536,0,8,,,67,0,7
231936,note_off,,,,,512,0,6,,,62,0,5
231936,note_off,,,,,512,0,7,,,67,0,6
231936,note_on,,,,,0,0,7,,,72,96,6
231936,note_on,,,,,0,0,6,,,64,96,5
231936,note_off,,,,,1536,0,5,,,48,0,4
232448,note_on,,,,,0,0,6,,,67,96,5
232448,note_off,,,,,512,0,6,,,64,0,5
232960,note_on,,,,,0,0,7,,,69,96,6
232960,note_on,,,,,1024,0,5,,,48,96,4
232960,note_off,,,,,1024,0,7,,,72,0,6
232960,note_on,,,,,0,0,6,,,66,96,5
232960,note_off,,,,,512,0,6,,,67,0,5
232960,note_on,,,,,1024,0,8,,,62,96,7
233472,note_on,,,,,0,0,5,,,47,96,4
233472,note_off,,,,,512,0,5,,,48,0,4
233472,note_off,,,,,512,0,7,,,69,0,6
233472,note_on,,,,,0,0,6,,,67,96,5
233472,note_off,,,,,512,0,6,,,66,0,5
233472,note_off,,,,,512,0,8,,,62,0,7
233472,note_on,,,,,0,0,7,,,74,96,6
233472,note_on,,,,,0,0,8,,,62,96,7
233984,note_off,,,,,512,0,6,,,67,0,5
233984,note_on,,,,,0,0,6,,,71,96,5
234496,note_off,,,,,1024,0,8,,,62,0,7
234496,note_on,,,,,0,0,8,,,62,96,7
234496,note_off,,,,,1024,0,5,,,47,0,4
234496,note_off,,,,,512,0,6,,,71,0,5
234496,note_on,,,,,0,0,6,,,69,96,5
234496,note_on,,,,,0,0,7,,,66,96,6
234496,note_off,,,,,1024,0,7,,,74,0,6
234496,note_on,,,,,0,0,5,,,50,96,4
235008,note_on,,,,,10752,0,2,,,67,96,1
235008,note_on,,,,,0,0,5,,,43,96,4
235008,note_on,,,,,0,0,7,,,67,96,6
235008,note_on,,,,,10752,0,4,,,55,96,3
235008,note_off,,,,,512,0,7,,,66,0,6
235008,note_off,,,,,512,0,5,,,50,0,4
235008,note_off,,,,,512,0,8,,,62,0,7
235008,note_on,,,,,0,0,8,,,62,96,7
235008,note_on,,,,,0,0,6,,,71,96,5
235008,note_off,,,,,512,0,6,,,69,0,5
235008,note_on,,,,,10752,0,1,,,71,96,0
235008,note_on,,,,,10752,0,3,,,62,96,2
235520,note_on,,,,,0,0,6,,,67,96,5
235520,note_off,,,,,512,0,6,,,71,0,5
236032,note_off,,,,,512,0,6,,,67,0,5
236032,note_on,,,,,0,0,6,,,69,96,5
236032,note_on,,,,,0,0,7,,,62,96,6
236032,note_off,,,,,1024,0,7,,,67,0,6
236544,note_off,,,,,1536,0,8,,,62,0,7
236544,note_on,,,,,0,0,7,,,67,96,6
236544,note_off,,,,,512,0,7,,,62,0,6
236544,note_on,,,,,0,0,5,,,55,96,4
236544,note_on,,,,,0,0,6,,,71,96,5
236544,note_off,,,,,1536,0,5,,,43,0,4
236544,note_on,,,,,0,0,8,,,62,96,7
236544,note_off,,,,,512,0,6,,,69,0,5
237056,note_on,,,,,0,0,6,,,74,96,5
237056,note_off,,,,,512,0,6,,,71,0,5
237568,note_on,,,,,0,0,6,,,72,96,5
237568,note_off,,,,,512,0,6,,,74,0,5
237568,note_off,,,,,1024,0,7,,,67,0,6
237568,note_on,,,,,0,0,7,,,66,96,6
238080,note_off,,,,,512,0,7,,,66,0,6
238080,note_on,,,,,0,0,7,,,67,96,6
238080,note_off,,,,,3072,0,2,,,67,0,1
238080,note_on,,,,,0,0,2,,,67,96,1
238080,note_off,,,,,1536,0,5,,,55,0,4
238080,note_on,,,,,0,0,6,,,72,96,5
238080,note_off,,,,,512,0,6,,,72,0,5
238080,note_on,,,,,0,0,8,,,64,96,7
238080,note_off,,,,,1536,0,8,,,62,0,7
238080,note_on,,,,,0,0,1,,,72,96,0
238080,note_off,,,,,3072,0,1,,,71,0,0
238080,note_off,,,,,3072,0,3,,,62,0,2
238080,note_on,,,,,0,0,3,,,64,96,2
238080,note_on,,,,,0,0,4,,,52,96,3
238080,note_off,,,,,3072,0,4,,,55,0,3
238080,note_on,,,,,0,0,5,,,52,96,4
238592,note_on,,,,,0,0,6,,,76,96,5
238592,note_off,,,,,512,0,6,,,72,0,5
239104,note_on,,,,,0,0,7,,,69,96,6
239104,note_off,,,,,512,0,6,,,76,0,5
239104,note_on,,,,,0,0,6,,,74,96,5
239104,note_off,,,,,1024,0,7,,,67,0,6
239616,note_on,,,,,0,0,3,,,62,96,2
239616,note_off,,,,,1536,0,3,,,64,0,2
239616,note_off,,,,,1536,0,4,,,52,0,3
239616,note_on,,,,,0,0,4,,,59,96,3
239616,note_off,,,,,512,0,6,,,74,0,5
239616,note_off,,,,,1536,0,8,,,64,0,7
239616,note_on,,,,,0,0,8,,,67,96,7
239616,note_on,,,,,0,0,6,,,74,96,5
239616,note_off,,,,,1536,0,5,,,52,0,4
239616,note_on,,,,,0,0,5,,,47,96,4
239616,note_on,,,,,0,0,1,,,74,96,0
239616,note_on,,,,,0,0,2,,,67,96,1
239616,note_off,,,,,1536,0,2,,,67,0,1
239616,note_off,,,,,1536,0,1,,,72,0,0
239616,note_off,,,,,512,0,7,,,69,0,6
239616,note_on,,,,,0,0,7,,,71,96,6
240128,note_on,,,,,0,0,6,,,79,96,5
240128,note_off,,,,,512,0,6,,,74,0,5
240640,note_off,,,,,512,0,6,,,79,0,5
240640,note_on,,,,,0,0,7,,,69,96,6
240640,note_off,,,,,1024,0,7,,,71,0,6
240640,note_on,,,,,0,0,6,,,78,96,5
241152,note_off,,,,,512,0,7,,,69,0,6
241152,note_on,,,,,0,0,7,,,71,96,6
241152,note_on,,,,,0,0,6,,,79,96,5
241152,note_off,,,,,1536,0,5,,,47,0,4
241152,note_on,,,,,0,0,5,,,52,96,4
241152,note_off,,,,,512,0,6,,,78,0,5
241152,note_off,,,,,1536,0,4,,,59,0,3
241152,note_on,,,,,0,0,3,,,59,96,2
241152,note_off,,,,,1536,0,3,,,62,0,2
241152,note_on,,,,,0,0,4,,,64,96,3
241152,note_on,,,,,0,0,8,,,64,96,7
241152,note_off,,,,,1536,0,8,,,67,0,7
241664,note_off,,,,,512,0,6,,,79,0,5
241664,note_on,,,,,0,0,6,,,74,96,5
242176,note_off,,,,,512,0,6,,,74,0,5
242176,note_on,,,,,0,0,6,,,71,96,5
242176,note_off,,,,,1024,0,7,,,71,0,6
242176,note_on,,,,,0,0,7,,,67,96,6
242688,note_on,,,,,0,0,8,,,59,96,7
242688,note_off,,,,,1536,0,8,,,64,0,7
242688,note_on,,,,,0,0,1,,,74,96,0
242688,note_off,,,,,3072,0,1,,,74,0,0
242688,note_on,,,,,0,0,5,,,40,96,4
242688,note_off,,,,,512,0,7,,,67,0,6
242688,note_on,,,,,0,0,7,,,64,96,6
242688,note_off,,,,,1536,0,5,,,52,0,4
242688,note_on,,,,,0,0,2,,,67,96,1
242688,note_off,,,,,1536,0,3,,,59,0,2
242688,note_on,,,,,0,0,3,,,59,96,2
242688,note_off,,,,,3072,0,2,,,67,0,1
242688,note_on,,,,,0,0,4,,,52,96,3
242688,note_off,,,,,512,0,6,,,71,0,5
242688,note_off,,,,,1536,0,4,,,64,0,3
242688,note_on,,,,,0,0,6,,,67,96,5
243200,note_off,,,,,512,0,6,,,67,0,5
243200,note_on,,,,,0,0,6,,,69,96,5
243712,note_off,,,,,1024,0,7,,,64,0,6
243712,note_on,,,,,0,0,7,,,62,96,6
243712,note_off,,,,,512,0,6,,,69,0,5
243712,note_on,,,,,0,0,6,,,71,96,5
244224,note_on,,,,,0,0,1,,,72,96,0
244224,note_on,,,,,0,0,7,,,64,96,6
244224,note_on,,,,,0,0,3,,,60,96,2
244224,note_off,,,,,1536,0,3,,,59,0,2
244224,note_off,,,,,1536,0,8,,,59,0,7
244224,note_on,,,,,0,0,4,,,45,96,3
244224,note_off,,,,,512,0,7,,,62,0,6
244224,note_on,,,,,0,0,8,,,57,96,7
244224,note_off,,,,,1536,0,1,,,74,0,0
244224,note_off,,,,,1536,0,4,,,52,0,3
244224,note_on,,,,,0,0,6,,,72,96,5
244224,note_off,,,,,1536,0,5,,,40,0,4
244224,note_on,,,,,0,0,5,,,45,96,4
244224,note_off,,,,,512,0,6,,,71,0,5
244224,note_off,,,,,1536,0,2,,,67,0,1
244224,note_on,,,,,0,0,2,,,67,96,1
244736,note_off,,,,,512,0,6,,,72,0,5
244736,note_on,,,,,0,0,6,,,74,96,5
244992,note_off,,,,,768,0,2,,,67,0,1
244992,note_on,,,,,0,0,2,,,66,96,1
245248,note_off,,,,,512,0,6,,,74,0,5
245248,note_on,,,,,0,0,6,,,76,96,5
245248,note_on,,,,,0,0,7,,,66,96,6
245248,note_off,,,,,1024,0,7,,,64,0,6
245760,note_on,,,,,0,0,2,,,67,96,1
245760,note_off,,,,,512,0,7,,,66,0,6
245760,note_on,,,,,0,0,7,,,67,96,6
245760,note_on,,,,,0,0,3,,,62,96,2
245760,note_off,,,,,1536,0,3,,,60,0,2
245760,note_off,,,,,1536,0,4,,,45,0,3
245760,note_on,,,,,0,0,4,,,47,96,3
245760,note_off,,,,,768,0,2,,,66,0,1
245760,note_on,,,,,0,0,6,,,74,96,5
245760,note_on,,,,,0,0,5,,,47,96,4
245760,note_off,,,,,512,0,6,,,76,0,5
245760,note_on,,,,,0,0,8,,,62,96,7
245760,note_off,,,,,1536,0,1,,,72,0,0
245760,note_on,,,,,0,0,1,,,71,96,0
245760,note_off,,,,,1536,0,8,,,57,0,7
245760,note_off,,,,,1536,0,5,,,45,0,4
246272,note_on,,,,,0,0,6,,,72,96,5
246272,note_off,,,,,512,0,6,,,74,0,5
246784,note_off,,,,,512,0,6,,,72,0,5
246784,note_off,,,,,1024,0,7,,,67,0,6
246784,note_on,,,,,0,0,7,,,62,96,6
246784,note_on,,,,,0,0,6,,,71,96,5
247296,note_off,,,,,512,0,6,,,71,0,5
247296,note_on,,,,,0,0,6,,,69,96,5
247296,note_on,,,,,0,0,4,,,48,96,3
247296,note_off,,,,,1536,0,5,,,47,0,4
247296,note_off,,,,,1536,0,8,,,62,0,7
247296,note_on,,,,,0,0,8,,,60,96,7
247296,note_off,,,,,1536,0,4,,,47,0,3
247296,note_on,,,,,0,0,5,,,48,96,4
247296,note_off,,,,,1536,0,3,,,62,0,2
247296,note_on,,,,,0,0,7,,,64,96,6
247296,note_off,,,,,512,0,7,,,62,0,6
247296,note_on,,,,,0,0,3,,,64,96,2
247808,note_off,,,,,512,0,6,,,69,0,5
247808,note_on,,,,,0,0,6,,,71,96,5
248320,note_on,,,,,0,0,6,,,67,96,5
248320,note_off,,,,,512,0,6,,,71,0,5
248320,note_off,,,,,1024,0,7,,,64,0,6
248320,note_on,,,,,0,0,7,,,59,96,6
248832,note_off,,,,,512,0,7,,,59,0,6
248832,note_on,,,,,0,0,4,,,50,96,3
248832,note_off,,,,,1536,0,4,,,48,0,3
248832,note_on,,,,,0,0,5,,,50,96,4
248832,note_on,,,,,0,0,7,,,57,96,6
248832,note_on,,,,,0,0,2,,,66,96,1
248832,note_off,,,,,3072,0,2,,,67,0,1
248832,note_off,,,,,3072,0,1,,,71,0,0
248832,note_off,,,,,512,0,6,,,67,0,5
248832,note_on,,,,,0,0,1,,,69,96,0
248832,note_on,,,,,0,0,6,,,66,96,5
248832,note_off,,,,,1536,0,5,,,48,0,4
248832,note_off,,,,,1536,0,3,,,64,0,2
248832,note_on,,,,,0,0,3,,,57,96,2
249344,note_on,,,,,0,0,6,,,62,96,5
249344,note_off,,,,,512,0,6,,,66,0,5
249856,note_on,,,,,0,0,7,,,61,96,6
249856,note_off,,,,,1024,0,7,,,57,0,6
249856,note_on,,,,,0,0,6,,,64,96,5
249856,note_off,,,,,1024,0,5,,,50,0,4
249856,note_off,,,,,512,0,6,,,62,0,5
250368,note_off,,,,,3072,0,8,,,60,0,7
250368,note_off,,,,,512,0,6,,,64,0,5
250368,note_off,,,,,512,0,7,,,61,0,6
250368,note_on,,,,,0,0,6,,,66,96,5
250368,note_on,,,,,0,0,7,,,62,96,6
250368,note_on,,,,,0,0,8,,,57,96,7
250880,note_off,,,,,512,0,6,,,66,0,5
250880,note_on,,,,,0,0,6,,,69,96,5
251392,note_on,,,,,1536,0,5,,,50,96,4
251392,note_off,,,,,512,0,6,,,69,0,5
251392,note_off,,,,,1024,0,7,,,62,0,6
251392,note_on,,,,,0,0,6,,,67,96,5
251392,note_on,,,,,0,0,8,,,57,96,7
251392,note_off,,,,,1024,0,8,,,57,0,7
251392,note_on,,,,,0,0,7,,,64,96,6
251904,note_off,,,,,512,0,8,,,57,0,7
251904,note_on,,,,,0,0,8,,,62,96,7
251904,note_off,,,,,512,0,5,,,50,0,4
251904,note_off,,,,,512,0,7,,,64,0,6
251904,note_on,,,,,0,0,7,,,66,96,6
251904,note_off,,,,,3072,0,2,,,66,0,1
251904,note_on,,,,,0,0,6,,,69,96,5
251904,note_off,,,,,512,0,6,,,67,0,5
251904,note_on,,,,,0,0,5,,,50,96,4
251904,note_off,,,,,3072,0,4,,,50,0,3
251904,note_off,,,,,3072,0,3,,,57,0,2
251904,note_off,,,,,3072,0,1,,,69,0,0
252416,note_on,,,,,0,0,6,,,72,96,5
252416,note_off,,,,,512,0,6,,,69,0,5
252928,note_off,,,,,512,0,6,,,72,0,5
252928,note_on,,,,,0,0,6,,,71,96,5
252928,note_off,,,,,1024,0,5,,,50,0,4
252928,note_on,,,,,0,0,7,,,67,96,6
252928,note_off,,,,,1024,0,7,,,66,0,6
252928,note_off,,,,,1024,0,8,,,62,0,7
252928,note_on,,,,,0,0,8,,,62,96,7
252928,note_on,,,,,0,0,5,,,50,96,4
253440,note_off,,,,,512,0,7,,,67,0,6
253440,note_off,,,,,512,0,8,,,62,0,7
253440,note_on,,,,,0,0,8,,,66,96,7
253440,note_on,,,,,0,0,7,,,69,96,6
253440,note_off,,,,,512,0,6,,,71,0,5
253440,note_off,,,,,512,0,5,,,50,0,4
253440,note_on,,,,,0,0,5,,,38,96,4
253440,note_on,,,,,0,0,6,,,72,96,5
253952,note_on,,,,,0,0,6,,,69,96,5
253952,note_off,,,,,512,0,6,,,72,0,5
254464,note_on,,,,,0,0,8,,,69,96,7
254464,note_off,,,,,1024,0,8,,,66,0,7
254464,note_off,,,,,512,0,6,,,69,0,5
254464,note_on,,,,,0,0,6,,,66,96,5
254464,note_on,,,,,0,0,7,,,72,96,6
254464,note_off,,,,,1024,0,5,,,38,0,4
254464,note_off,,,,,1024,0,7,,,69,0,6
254976,note_on,,,,,0,0,8,,,66,96,7
254976,note_on,,,,,0,0,7,,,69,96,6
254976,note_off,,,,,512,0,7,,,72,0,6
254976,note_on,,,,,0,0,6,,,62,96,5
254976,note_off,,,,,512,0,8,,,69,0,7
254976,note_off,,,,,512,0,6,,,66,0,5
255488,note_off,,,,,512,0,6,,,62,0,5
255488,note_on,,,,,0,0,6,,,66,96,5
256000,note_off,,,,,1024,0,8,,,66,0,7
256000,note_off,,,,,1024,0,7,,,69,0,6
256000,note_on,,,,,0,0,7,,,66,96,6
256000,note_on,,,,,1536,0,5,,,50,96,4
256000,note_off,,,,,512,0,6,,,66,0,5
256000,note_on,,,,,0,0,6,,,69,96,5
256000,note_on,,,,,0,0,8,,,62,96,7
256512,note_off,,,,,512,0,6,,,69,0,5
256512,note_on,,,,,0,0,8,,,57,96,7
256512,note_on,,,,,0,0,7,,,62,96,6
256512,note_off,,,,,512,0,7,,,66,0,6
256512,note_on,,,,,0,0,5,,,50,96,4
256512,note_off,,,,,512,0,5,,,50,0,4
256512,note_off,,,,,512,0,8,,,62,0,7
256512,note_on,,,,,0,0,6,,,72,96,5
257024,note_off,,,,,512,0,6,,,72,0,5
257024,note_on,,,,,0,0,6,,,71,96,5
257536,note_on,,,,,0,0,7,,,66,96,6
257536,note_off,,,,,1024,0,7,,,62,0,6
257536,note_off,,,,,512,0,6,,,71,0,5
257536,note_off,,,,,1024,0,5,,,50,0,4
257536,note_on,,,,,0,0,5,,,50,96,4
257536,note_on,,,,,0,0,6,,,69,96,5
257536,note_off,,,,,1024,0,8,,,57,0,7
257536,note_on,,,,,0,0,8,,,62,96,7
258048,note_on,,,,,6144,0,4,,,55,96,3
258048,note_on,,,,,0,0,6,,,71,96,5
258048,note_on,,,,,0,0,8,,,62,96,7
258048,note_off,,,,,512,0,8,,,62,0,7
258048,note_off,,,,,512,0,5,,,50,0,4
258048,note_on,,,,,0,0,5,,,55,96,4
258048,note_off,,,,,512,0,6,,,69,0,5
258048,note_on,,,,,6144,0,3,,,62,96,2
258048,note_on,,,,,6144,0,2,,,67,96,1
258048,note_on,,,,,6144,0,1,,,71,96,0
258048,note_off,,,,,512,0,7,,,66,0,6
258048,note_on,,,,,0,0,7,,,67,96,6
258560,note_off,,,,,512,0,6,,,71,0,5
258560,note_on,,,,,0,0,6,,,67,96,5
259072,note_on,,,,,0,0,7,,,62,96,6
259072,note_on,,,,,0,0,6,,,69,96,5
259072,note_off,,,,,512,0,6,,,67,0,5
259072,note_off,,,,,1024,0,7,,,67,0,6
259584,note_off,,,,,512,0,7,,,62,0,6
259584,note_on,,,,,0,0,7,,,67,96,6
259584,note_off,,,,,1536,0,8,,,62,0,7
259584,note_on,,,,,0,0,6,,,71,96,5
259584,note_off,,,,,512,0,6,,,69,0,5
259584,note_on,,,,,0,0,8,,,62,96,7
259584,note_off,,,,,1536,0,4,,,55,0,3
259584,note_on,,,,,0,0,4,,,54,96,3
259584,note_on,,,,,0,0,5,,,54,96,4
259584,note_off,,,,,1536,0,5,,,55,0,4
260096,note_off,,,,,512,0,6,,,71,0,5
260096,note_on,,,,,0,0,6,,,74,96,5
260608,note_on,,,,,0,0,6,,,72,96,5
260608,note_on,,,,,0,0,7,,,66,96,6
260608,note_off,,,,,1024,0,7,,,67,0,6
260608,note_off,,,,,512,0,6,,,74,0,5
261120,note_on,,,,,0,0,2,,,67,96,1
261120,note_on,,,,,0,0,4,,,52,96,3
261120,note_off,,,,,3072,0,2,,,67,0,1
261120,note_off,,,,,3072,0,3,,,62,0,2
261120,note_on,,,,,0,0,3,,,64,96,2
261120,note_off,,,,,512,0,7,,,66,0,6
261120,note_on,,,,,0,0,7,,,67,96,6
261120,note_off,,,,,512,0,6,,,72,0,5
261120,note_off,,,,,1536,0,4,,,54,0,3
261120,note_on,,,,,0,0,6,,,72,96,5
261120,note_on,,,,,0,0,5,,,52,96,4
261120,note_on,,,,,0,0,8,,,64,96,7
261120,note_on,,,,,0,0,1,,,72,96,0
261120,note_off,,,,,1536,0,5,,,54,0,4
261120,note_off,,,,,1536,0,8,,,62,0,7
261120,note_off,,,,,3072,0,1,,,71,0,0
261632,note_off,,,,,512,0,6,,,72,0,5
261632,note_on,,,,,0,0,6,,,76,96,5
262144,note_on,,,,,0,0,6,,,74,96,5
262144,note_off,,,,,512,0,6,,,76,0,5
262144,note_on,,,,,0,0,7,,,69,96,6
262144,note_off,,,,,1024,0,7,,,67,0,6
262656,note_off,,,,,1536,0,1,,,72,0,0
262656,note_off,,,,,512,0,6,,,74,0,5
262656,note_on,,,,,0,0,3,,,62,96,2
262656,note_off,,,,,1536,0,3,,,64,0,2
262656,note_on,,,,,0,0,6,,,74,96,5
262656,note_off,,,,,1536,0,8,,,64,0,7
262656,note_on,,,,,0,0,1,,,74,96,0
262656,note_on,,,,,0,0,7,,,71,96,6
262656,note_on,,,,,0,0,4,,,59,96,3
262656,note_off,,,,,512,0,7,,,69,0,6
262656,note_on,,,,,0,0,5,,,59,96,4
262656,note_on,,,,,0,0,2,,,67,96,1
262656,note_off,,,,,1536,0,2,,,67,0,1
262656,note_off,,,,,1536,0,5,,,52,0,4
262656,note_on,,,,,0,0,8,,,67,96,7
262656,note_off,,,,,1536,0,4,,,52,0,3
263168,note_off,,,,,512,0,6,,,74,0,5
263168,note_on,,,,,0,0,6,,,79,96,5
263680,note_on,,,,,0,0,6,,,78,96,5
263680,note_on,,,,,0,0,7,,,69,96,6
263680,note_off,,,,,512,0,6,,,79,0,5
263680,note_off,,,,,1024,0,7,,,71,0,6
264192,note_on,,,,,0,0,7,,,67,96,6
264192,note_off,,,,,1536,0,8,,,67,0,7
264192,note_on,,,,,0,0,6,,,79,96,5
264192,note_off,,,,,512,0,6,,,78,0,5
264192,note_on,,,,,0,0,5,,,47,96,4
264192,note_on,,,,,0,0,8,,,62,96,7
264192,note_off,,,,,1536,0,4,,,59,0,3
264192,note_on,,,,,0,0,4,,,47,96,3
264192,note_off,,,,,1536,0,5,,,59,0,4
264192,note_off,,,,,512,0,7,,,69,0,6
264192,note_on,,,,,0,0,3,,,59,96,2
264192,note_off,,,,,1536,0,2,,,67,0,1
264192,note_off,,,,,1536,0,3,,,62,0,2
264192,note_on,,,,,0,0,2,,,62,96,1
264704,note_off,,,,,512,0,6,,,79,0,5
264704,note_on,,,,,0,0,6,,,74,96,5
265216,note_off,,,,,1024,0,7,,,67,0,6
265216,note_on,,,,,0,0,7,,,66,96,6
265216,note_off,,,,,512,0,6,,,74,0,5
265216,note_on,,,,,0,0,6,,,71,96,5
265728,note_off,,,,,1536,0,5,,,47,0,4
265728,note_on,,,,,0,0,4,,,52,96,3
265728,note_on,,,,,0,0,6,,,67,96,5
265728,note_off,,,,,1536,0,2,,,62,0,1
265728,note_on,,,,,0,0,2,,,64,96,1
265728,note_off,,,,,512,0,6,,,71,0,5
265728,note_off,,,,,1536,0,4,,,47,0,3
265728,note_on,,,,,0,0,3,,,59,96,2
265728,note_on,,,,,0,0,8,,,59,96,7
265728,note_on,,,,,0,0,5,,,52,96,4
265728,note_off,,,,,512,0,7,,,66,0,6
265728,note_on,,,,,0,0,7,,,64,96,6
265728,note_off,,,,,1536,0,8,,,62,0,7
265728,note_on,,,,,0,0,1,,,71,96,0
265728,note_off,,,,,3072,0,1,,,74,0,0
265728,note_off,,,,,1536,0,3,,,59,0,2
266240,note_off,,,,,512,0,6,,,67,0,5
266240,note_on,,,,,0,0,6,,,69,96,5
266752,note_on,,,,,0,0,6,,,71,96,5
266752,note_off,,,,,1024,0,7,,,64,0,6
266752,note_on,,,,,0,0,7,,,67,96,6
266752,note_off,,,,,512,0,6,,,69,0,5
267264,note_on,,,,,0,0,1,,,69,96,0
267264,note_off,,,,,1536,0,4,,,52,0,3
267264,note_on,,,,,0,0,4,,,48,96,3
267264,note_on,,,,,0,0,8,,,60,96,7
267264,note_on,,,,,0,0,5,,,48,96,4
267264,note_off,,,,,1536,0,5,,,52,0,4
267264,note_on,,,,,0,0,2,,,64,96,1
267264,note_off,,,,,1536,0,1,,,71,0,0
267264,note_off,,,,,1536,0,2,,,64,0,1
267264,note_off,,,,,1536,0,8,,,59,0,7
267264,note_on,,,,,0,0,3,,,60,96,2
267264,note_off,,,,,512,0,7,,,67,0,6
267264,note_on,,,,,0,0,7,,,69,96,6
267264,note_on,,,,,0,0,6,,,64,96,5
267264,note_off,,,,,1536,0,3,,,59,0,2
267264,note_off,,,,,512,0,6,,,71,0,5
267776,note_off,,,,,512,0,6,,,64,0,5
267776,note_on,,,,,0,0,6,,,74,96,5
268032,note_off,,,,,768,0,1,,,69,0,0
268032,note_off,,,,,768,0,8,,,60,0,7
268032,note_on,,,,,0,0,8,,,57,96,7
268032,note_on,,,,,0,0,1,,,71,96,0
268032,note_off,,,,,768,0,3,,,60,0,2
268032,note_on,,,,,0,0,3,,,57,96,2
268288,note_off,,,,,1024,0,7,,,69,0,6
268288,note_on,,,,,0,0,7,,,67,96,6
268288,note_off,,,,,512,0,6,,,74,0,5
268288,note_on,,,,,0,0,6,,,72,96,5
268416,note_on,,,,,0,0,1,,,72,96,0
268416,note_off,,,,,384,0,1,,,71,0,0
268800,note_on,,,,,0,0,3,,,62,96,2
268800,note_off,,,,,512,0,6,,,72,0,5
268800,note_off,,,,,512,0,7,,,67,0,6
268800,note_off,,,,,768,0,8,,,57,0,7
268800,note_on,,,,,0,0,7,,,66,96,6
268800,note_on,,,,,0,0,5,,,50,96,4
268800,note_off,,,,,1536,0,5,,,48,0,4
268800,note_on,,,,,0,0,2,,,66,96,1
268800,note_off,,,,,1536,0,2,,,64,0,1
268800,note_on,,,,,0,0,6,,,71,96,5
268800,note_on,,,,,0,0,1,,,69,96,0
268800,note_off,,,,,768,0,3,,,57,0,2
268800,note_on,,,,,0,0,8,,,62,96,7
268800,note_off,,,,,1536,0,4,,,48,0,3
268800,note_on,,,,,0,0,4,,,50,96,3
268800,note_off,,,,,384,0,1,,,72,0,0
269312,note_off,,,,,512,0,6,,,71,0,5
269312,note_on,,,,,0,0,6,,,69,96,5
269568,note_on,,,,,0,0,3,,,59,96,2
269568,note_off,,,,,768,0,8,,,62,0,7
269568,note_off,,,,,768,0,2,,,66,0,1
269568,note_off,,,,,768,0,3,,,62,0,2
269568,note_on,,,,,0,0,8,,,59,96,7
269568,note_on,,,,,0,0,2,,,64,96,1
269824,note_off,,,,,512,0,6,,,69,0,5
269824,note_off,,,,,1024,0,7,,,66,0,6
269824,note_on,,,,,0,0,6,,,67,96,5
269824,note_on,,,,,0,0,7,,,67,96,6
270336,note_off,,,,,768,0,2,,,64,0,1
270336,note_on,,,,,0,0,5,,,38,96,4
270336,note_off,,,,,1536,0,5,,,50,0,4
270336,note_on,,,,,0,0,2,,,66,96,1
270336,note_on,,,,,0,0,3,,,60,96,2
270336,note_off,,,,,768,0,3,,,59,0,2
270336,note_off,,,,,768,0,8,,,59,0,7
270336,note_on,,,,,0,0,6,,,62,96,5
270336,note_on,,,,,0,0,8,,,60,96,7
270336,note_off,,,,,512,0,6,,,67,0,5
270336,note_on,,,,,0,0,7,,,69,96,6
270336,note_off,,,,,512,0,7,,,67,0,6
270848,note_off,,,,,512,0,6,,,62,0,5
270848,note_on,,,,,0,0,6,,,67,96,5
271104,note_on,,,,,0,0,8,,,57,96,7
271104,note_off,,,,,768,0,8,,,60,0,7
271360,note_on,,,,,0,0,6,,,66,96,5
271360,note_off,,,,,512,0,6,,,67,0,5
271360,note_off,,,,,1024,0,7,,,69,0,6
271360,note_on,,,,,0,0,7,,,60,96,6
271872,note_on,,,,,0,0,7,,,59,96,6
271872,note_off,,,,,1536,0,5,,,38,0,4
271872,note_on,,,,,0,0,5,,,43,96,4
271872,note_off,,,,,3072,0,1,,,69,0,0
271872,note_on,,,,,0,0,1,,,67,96,0
271872,note_on,,,,,0,0,4,,,43,96,3
271872,note_off,,,,,512,0,7,,,60,0,6
271872,note_off,,,,,512,0,6,,,66,0,5
271872,note_on,,,,,0,0,6,,,67,96,5
271872,note_off,,,,,1536,0,2,,,66,0,1
271872,note_off,,,,,1536,0,3,,,60,0,2
271872,note_on,,,,,0,0,3,,,59,96,2
271872,note_off,,,,,3072,0,4,,,50,0,3
271872,note_off,,,,,768,0,8,,,57,0,7
271872,note_on,,,,,0,0,8,,,59,96,7
271872,note_on,,,,,0,0,2,,,62,96,1
272384,note_off,,,,,512,0,6,,,67,0,5
272384,note_on,,,,,0,0,6,,,71,96,5
272896,note_on,,,,,0,0,7,,,67,96,6
272896,note_on,,,,,0,0,6,,,74,96,5
272896,note_off,,,,,1024,0,7,,,59,0,6
272896,note_off,,,,,512,0,6,,,71,0,5
273408,note_on,,,,,0,0,7,,,71,96,6
273408,note_on,,,,,0,0,6,,,79,96,5
273408,note_off,,,,,512,0,6,,,74,0,5
273408,note_off,,,,,512,0,7,,,67,0,6
273408,note_off,,,,,1536,0,8,,,59,0,7
273920,note_off,,,,,512,0,6,,,79,0,5
273920,note_on,,,,,0,0,6,,,74,96,5
274432,note_on,,,,,1024,0,8,,,67,96,7
274432,note_off,,,,,512,0,6,,,74,0,5
274432,note_off,,,,,1024,0,7,,,71,0,6
274432,note_on,,,,,0,0,7,,,74,96,6
274432,note_on,,,,,0,0,6,,,71,96,5
274944,note_off,,,,,512,0,7,,,74,0,6
274944,note_on,,,,,0,0,7,,,79,96,6
274944,note_on,,,,,0,0,6,,,67,96,5
274944,note_off,,,,,512,0,6,,,71,0,5
274944,note_on,,,,,0,0,8,,,62,96,7
274944,note_off,,,,,512,0,8,,,67,0,7
275456,note_on,,,,,0,0,6,,,71,96,5
275456,note_off,,,,,512,0,6,,,67,0,5
275968,note_off,,,,,512,0,6,,,71,0,5
275968,note_off,,,,,1024,0,8,,,62,0,7
275968,note_on,,,,,0,0,8,,,67,96,7
275968,note_off,,,,,1024,0,7,,,79,0,6
275968,note_on,,,,,0,0,6,,,74,96,5
275968,note_on,,,,,0,0,7,,,74,96,6
276480,note_on,,,,,0,0,7,,,71,96,6
276480,note_off,,,,,4608,0,2,,,62,0,1
276480,note_off,,,,,4608,0,1,,,67,0,0
276480,note_off,,,,,512,0,8,,,67,0,7
276480,note_on,,,,,0,0,6,,,77,96,5
276480,note_off,,,,,4608,0,4,,,43,0,3
276480,note_off,,,,,4608,0,3,,,59,0,2
276480,note_off,,,,,512,0,6,,,74,0,5
276480,note_off,,,,,512,0,7,,,74,0,6
276480,note_on,,,,,0,0,8,,,62,96,7
276992,note_on,,,,,0,0,6,,,74,96,5
276992,note_off,,,,,512,0,6,,,77,0,5
277504,note_off,,,,,1024,0,7,,,71,0,6
277504,note_on,,,,,0,0,6,,,71,96,5
277504,note_off,,,,,512,0,6,,,74,0,5
277504,note_on,,,,,0,0,7,,,67,96,6
278016,note_on,,,,,0,0,6,,,67,96,5
278016,note_off,,,,,512,0,7,,,67,0,6
278016,note_off,,,,,1536,0,8,,,62,0,7
278016,note_off,,,,,512,0,6,,,71,0,5
278016,note_on,,,,,0,0,7,,,74,96,6
278528,note_on,,,,,0,0,6,,,71,96,5
278528,note_off,,,,,512,0,6,,,67,0,5
279040,note_on,,,,,0,0,7,,,71,96,6
279040,note_off,,,,,1024,0,7,,,74,0,6
279040,note_on,,,,,1024,0,8,,,67,96,7
279040,note_on,,,,,0,0,6,,,74,96,5
279040,note_off,,,,,512,0,6,,,71,0,5
279552,note_on,,,,,0,0,8,,,64,96,7
279552,note_on,,,,,0,0,6,,,76,96,5
279552,note_off,,,,,512,0,6,,,74,0,5
279552,note_off,,,,,512,0,8,,,67,0,7
279552,note_off,,,,,512,0,7,,,71,0,6
279552,note_on,,,,,0,0,7,,,72,96,6
280064,note_on,,,,,0,0,6,,,72,96,5
280064,note_off,,,,,512,0,6,,,76,0,5
280576,note_on,,,,,0,0,6,,,69,96,5
280576,note_off,,,,,512,0,6,,,72,0,5
280576,note_on,,,,,0,0,8,,,60,96,7
280576,note_off,,,,,1024,0,8,,,64,0,7
281088,note_off,,,,,512,0,8,,,60,0,7
281088,note_on,,,,,0,0,6,,,66,96,5
281088,note_off,,,,,512,0,6,,,69,0,5
281088,note_on,,,,,0,0,8,,,57,96,7
281600,note_off,,,,,512,0,6,,,66,0,5
281600,note_on,,,,,0,0,6,,,69,96,5
282112,note_on,,,,,0,0,7,,,69,96,6
282112,note_on,,,,,0,0,6,,,72,96,5
282112,note_off,,,,,512,0,6,,,69,0,5
282112,note_off,,,,,2560,0,7,,,72,0,6
282624,note_on,,,,,0,0,7,,,71,96,6
282624,note_on,,,,,0,0,6,,,74,96,5
282624,note_off,,,,,1536,0,8,,,57,0,7
282624,note_off,,,,,512,0,7,,,69,0,6
282624,note_off,,,,,512,0,6,,,72,0,5
283136,note_on,,,,,0,0,6,,,71,96,5
283136,note_off,,,,,512,0,6,,,74,0,5
283648,note_on,,,,,1024,0,8,,,62,96,7
283648,note_on,,,,,0,0,6,,,67,96,5
283648,note_off,,,,,512,0,6,,,71,0,5
284160,note_on,,,,,0,0,8,,,59,96,7
284160,note_off,,,,,512,0,8,,,62,0,7
284160,note_on,,,,,0,0,6,,,64,96,5
284160,note_off,,,,,512,0,6,,,67,0,5
284672,note_off,,,,,512,0,6,,,64,0,5
284672,note_on,,,,,0,0,6,,,67,96,5
285184,note_off,,,,,2560,0,7,,,71,0,6
285184,note_off,,,,,512,0,6,,,67,0,5
285184,note_on,,,,,0,0,6,,,71,96,5
285184,note_off,,,,,1024,0,8,,,59,0,7
285184,note_on,,,,,0,0,8,,,64,96,7
285184,note_on,,,,,0,0,7,,,67,96,6
285696,note_on,,,,,0,0,6,,,72,96,5
285696,note_off,,,,,512,0,8,,,64,0,7
285696,note_on,,,,,0,0,8,,,52,96,7
285696,note_off,,,,,512,0,6,,,71,0,5
285696,note_off,,,,,512,0,7,,,67,0,6
285696,note_on,,,,,0,0,7,,,69,96,6
286208,note_off,,,,,512,0,6,,,72,0,5
286208,note_on,,,,,0,0,6,,,69,96,5
286720,note_on,,,,,0,0,8,,,57,96,7
286720,note_off,,,,,512,0,6,,,69,0,5
286720,note_off,,,,,1024,0,8,,,52,0,7
286720,note_on,,,,,0,0,6,,,66,96,5
287232,note_off,,,,,512,0,6,,,66,0,5
287232,note_on,,,,,0,0,6,,,62,96,5
287232,note_on,,,,,0,0,8,,,54,96,7
287232,note_off,,,,,512,0,8,,,57,0,7
287744,note_off,,,,,512,0,6,,,62,0,5
287744,note_on,,,,,0,0,6,,,66,96,5
288256,note_on,,,,,0,0,7,,,66,96,6
288256,note_on,,,,,0,0,6,,,69,96,5
288256,note_off,,,,,2560,0,7,,,69,0,6
288256,note_off,,,,,1024,0,8,,,54,0,7
288256,note_off,,,,,512,0,6,,,66,0,5
288256,note_on,,,,,0,0,8,,,69,96,7
288768,note_on,,,,,0,0,8,,,66,96,7
288768,note_off,,,,,512,0,7,,,66,0,6
288768,note_off,,,,,512,0,8,,,69,0,7
288768,note_off,,,,,512,0,6,,,69,0,5
288768,note_on,,,,,0,0,6,,,72,96,5
288768,note_on,,,,,0,0,7,,,62,96,6
289280,note_on,,,,,0,0,6,,,71,96,5
289280,note_off,,,,,512,0,6,,,72,0,5
289792,note_on,,,,,0,0,8,,,62,96,7
289792,note_off,,,,,1024,0,8,,,66,0,7
289792,note_on,,,,,0,0,6,,,69,96,5
289792,note_on,,,,,0,0,7,,,66,96,6
289792,note_off,,,,,1024,0,7,,,62,0,6
289792,note_off,,,,,512,0,6,,,71,0,5
290304,note_off,,,,,512,0,8,,,62,0,7
290304,note_off,,,,,512,0,6,,,69,0,5
290304,note_off,,,,,512,0,7,,,66,0,6
290304,note_on,,,,,0,0,7,,,67,96,6
290304,note_on,,,,,0,0,8,,,62,96,7
290304,note_on,,,,,0,0,6,,,71,96,5
290816,note_off,,,,,512,0,6,,,71,0,5
290816,note_on,,,,,0,0,6,,,67,96,5
291328,note_off,,,,,512,0,6,,,67,0,5
291328,note_on,,,,,0,0,6,,,69,96,5
291328,note_off,,,,,1024,0,7,,,67,0,6
291328,note_on,,,,,0,0,7,,,62,96,6
291840,note_off,,,,,512,0,6,,,69,0,5
291840,note_on,,,,,0,0,6,,,71,96,5
291840,note_off,,,,,1536,0,8,,,62,0,7
291840,note_on,,,,,0,0,5,,,55,96,4
291840,note_off,,,,,512,0,7,,,62,0,6
291840,note_off,,,,,19968,0,5,,,43,0,4
291840,note_on,,,,,0,0,8,,,62,96,7
291840,note_on,,,,,0,0,7,,,67,96,6
292352,note_off,,,,,512,0,6,,,71,0,5
292352,note_on,,,,,0,0,6,,,74,96,5
292864,note_on,,,,,0,0,7,,,66,96,6
292864,note_off,,,,,1024,0,7,,,67,0,6
292864,note_on,,,,,0,0,6,,,72,96,5
292864,note_off,,,,,512,0,6,,,74,0,5
293376,note_off,,,,,512,0,6,,,72,0,5
293376,note_off,,,,,1536,0,5,,,55,0,4
293376,note_on,,,,,0,0,5,,,52,96,4
293376,note_on,,,,,0,0,6,,,72,96,5
293376,note_on,,,,,0,0,7,,,67,96,6
293376,note_off,,,,,512,0,7,,,66,0,6
293376,note_on,,,,,0,0,8,,,64,96,7
293376,note_off,,,,,1536,0,8,,,62,0,7
293888,note_off,,,,,512,0,6,,,72,0,5
293888,note_on,,,,,0,0,6,,,76,96,5
294400,note_off,,,,,1024,0,7,,,67,0,6
294400,note_on,,,,,0,0,7,,,69,96,6
294400,note_on,,,,,0,0,6,,,74,96,5
294400,note_off,,,,,512,0,6,,,76,0,5
294912,note_on,,,,,0,0,5,,,47,96,4
294912,note_off,,,,,1536,0,5,,,52,0,4
294912,note_on,,,,,0,0,8,,,67,96,7
294912,note_off,,,,,512,0,6,,,74,0,5
294912,note_on,,,,,0,0,7,,,71,96,6
294912,note_off,,,,,512,0,7,,,69,0,6
294912,note_off,,,,,1536,0,8,,,64,0,7
294912,note_on,,,,,0,0,6,,,74,96,5
295424,note_off,,,,,512,0,6,,,74,0,5
295424,note_on,,,,,0,0,6,,,79,96,5
295936,note_off,,,,,512,0,6,,,79,0,5
295936,note_on,,,,,0,0,6,,,78,96,5
295936,note_on,,,,,0,0,7,,,69,96,6
295936,note_off,,,,,1024,0,7,,,71,0,6
296448,note_off,,,,,512,0,7,,,69,0,6
296448,note_off,,,,,1536,0,8,,,67,0,7
296448,note_on,,,,,0,0,8,,,64,96,7
296448,note_on,,,,,0,0,7,,,71,96,6
296448,note_on,,,,,0,0,5,,,52,96,4
296448,note_on,,,,,0,0,6,,,79,96,5
296448,note_off,,,,,512,0,6,,,78,0,5
296448,note_off,,,,,1536,0,5,,,47,0,4
296960,note_on,,,,,0,0,6,,,74,96,5
296960,note_off,,,,,512,0,6,,,79,0,5
297472,note_off,,,,,1024,0,7,,,71,0,6
297472,note_off,,,,,512,0,6,,,74,0,5
297472,note_on,,,,,0,0,6,,,71,96,5
297472,note_on,,,,,0,0,7,,,67,96,6
297984,note_on,,,,,0,0,6,,,67,96,5
297984,note_off,,,,,1536,0,8,,,64,0,7
297984,note_on,,,,,0,0,7,,,64,96,6
297984,note_off,,,,,512,0,7,,,67,0,6
297984,note_on,,,,,0,0,8,,,59,96,7
297984,note_off,,,,,1536,0,5,,,52,0,4
297984,note_on,,,,,0,0,5,,,40,96,4
297984,note_off,,,,,512,0,6,,,71,0,5
298496,note_off,,,,,512,0,6,,,67,0,5
298496,note_on,,,,,0,0,6,,,69,96,5
299008,note_on,,,,,0,0,7,,,62,96,6
299008,note_off,,,,,1024,0,7,,,64,0,6
299008,note_off,,,,,512,0,6,,,69,0,5
299008,note_on,,,,,0,0,6,,,71,96,5
299520,note_on,,,,,0,0,8,,,57,96,7
299520,note_off,,,,,1536,0,8,,,59,0,7
299520,note_on,,,,,0,0,5,,,45,96,4
299520,note_off,,,,,1536,0,5,,,40,0,4
299520,note_on,,,,,0,0,6,,,72,96,5
299520,note_on,,,,,0,0,7,,,64,96,6
299520,note_off,,,,,512,0,7,,,62,0,6
299520,note_off,,,,,512,0,6,,,71,0,5
300032,note_off,,,,,512,0,6,,,72,0,5
300032,note_on,,,,,0,0,6,,,74,96,5
300544,note_off,,,,,1024,0,7,,,64,0,6
300544,note_on,,,,,0,0,7,,,66,96,6
300544,note_on,,,,,0,0,6,,,76,96,5
300544,note_off,,,,,512,0,6,,,74,0,5
301056,note_off,,,,,512,0,7,,,66,0,6
301056,note_off,,,,,1536,0,5,,,45,0,4
301056,note_on,,,,,0,0,7,,,67,96,6
301056,note_on,,,,,0,0,5,,,47,96,4
301056,note_on,,,,,0,0,8,,,62,96,7
301056,note_off,,,,,1536,0,8,,,57,0,7
301056,note_off,,,,,512,0,6,,,76,0,5
301056,note_on,,,,,0,0,6,,,74,96,5
301568,note_off,,,,,512,0,6,,,74,0,5
301568,note_on,,,,,0,0,6,,,72,96,5
302080,note_on,,,,,0,0,7,,,62,96,6
302080,note_off,,,,,1024,0,7,,,67,0,6
302080,note_off,,,,,512,0,6,,,72,0,5
302080,note_on,,,,,0,0,6,,,71,96,5
302592,note_on,,,,,0,0,7,,,64,96,6
302592,note_off,,,,,512,0,7,,,62,0,6
302592,note_off,,,,,1536,0,8,,,62,0,7
302592,note_on,,,,,0,0,6,,,69,96,5
302592,note_off,,,,,512,0,6,,,71,0,5
302592,note_off,,,,,1536,0,5,,,47,0,4
302592,note_on,,,,,0,0,8,,,60,96,7
302592,note_on,,,,,0,0,5,,,48,96,4
303104,note_off,,,,,512,0,6,,,69,0,5
303104,note_on,,,,,0,0,6,,,71,96,5
303616,note_on,,,,,0,0,6,,,67,96,5
303616,note_off,,,,,512,0,6,,,71,0,5
303616,note_off,,,,,1024,0,7,,,64,0,6
303616,note_on,,,,,0,0,7,,,59,96,6
304128,note_on,,,,,0,0,6,,,66,96,5
304128,note_off,,,,,1536,0,5,,,48,0,4
304128,note_off,,,,,512,0,7,,,59,0,6
304128,note_on,,,,,0,0,7,,,57,96,6
304128,note_off,,,,,512,0,6,,,67,0,5
304128,note_on,,,,,0,0,5,,,50,96,4
304640,note_off,,,,,512,0,6,,,66,0,5
304640,note_on,,,,,0,0,6,,,67,96,5
305152,note_off,,,,,512,0,6,,,67,0,5
305152,note_on,,,,,0,0,7,,,62,96,6
305152,note_on,,,,,0,0,6,,,69,96,5
305152,note_off,,,,,1024,0,7,,,57,0,6
305664,note_on,,,,,0,0,7,,,69,96,6
305664,note_off,,,,,512,0,6,,,69,0,5
305664,note_on,,,,,0,0,6,,,62,96,5
305664,note_off,,,,,512,0,7,,,62,0,6
305664,note_on,,,,,0,0,8,,,57,96,7
305664,note_off,,,,,3072,0,8,,,60,0,7
305664,note_off,,,,,1536,0,5,,,50,0,4
305664,note_on,,,,,0,0,5,,,54,96,4
306176,note_off,,,,,512,0,6,,,62,0,5
306176,note_on,,,,,0,0,6,,,66,96,5
306688,note_on,,,,,0,0,7,,,67,96,6
306688,note_off,,,,,1024,0,7,,,69,0,6
306688,note_off,,,,,512,0,6,,,66,0,5
306688,note_on,,,,,0,0,6,,,69,96,5
307200,note_on,,,,,0,0,8,,,66,96,7
307200,note_off,,,,,512,0,7,,,67,0,6
307200,note_on,,,,,0,0,7,,,69,96,6
307200,note_off,,,,,1536,0,8,,,57,0,7
307200,note_on,,,,,0,0,5,,,50,96,4
307200,note_off,,,,,1536,0,5,,,54,0,4
307200,note_on,,,,,0,0,6,,,72,96,5
307200,note_off,,,,,512,0,6,,,69,0,5
307712,note_off,,,,,512,0,6,,,72,0,5
307712,note_on,,,,,0,0,6,,,71,96,5
308224,note_on,,,,,0,0,6,,,69,96,5
308224,note_off,,,,,1024,0,7,,,69,0,6
308224,note_off,,,,,512,0,6,,,71,0,5
308224,note_on,,,,,0,0,7,,,66,96,6
308736,note_off,,,,,1536,0,5,,,50,0,4
308736,note_on,,,,,0,0,5,,,55,96,4
308736,note_off,,,,,1536,0,8,,,66,0,7
308736,note_on,,,,,0,0,8,,,67,96,7
308736,note_on,,,,,0,0,7,,,62,96,6
308736,note_off,,,,,512,0,6,,,69,0,5
308736,note_on,,,,,0,0,6,,,71,96,5
308736,note_off,,,,,512,0,7,,,66,0,6
309248,note_off,,,,,512,0,6,,,71,0,5
309248,note_on,,,,,0,0,6,,,67,96,5
309760,note_off,,,,,1024,0,7,,,62,0,6
309760,note_on,,,,,0,0,7,,,66,96,6
309760,note_off,,,,,512,0,6,,,67,0,5
309760,note_on,,,,,0,0,6,,,69,96,5
310272,note_on,,,,,0,0,5,,,52,96,4
310272,note_off,,,,,1536,0,5,,,55,0,4
310272,note_off,,,,,512,0,6,,,69,0,5
310272,note_off,,,,,512,0,7,,,66,0,6
310272,note_off,,,,,1536,0,8,,,67,0,7
310272,note_on,,,,,0,0,8,,,55,96,7
310272,note_on,,,,,0,0,6,,,71,96,5
310272,note_on,,,,,0,0,7,,,67,96,6
310784,note_off,,,,,512,0,6,,,71,0,5
310784,note_on,,,,,0,0,6,,,74,96,5
311296,note_off,,,,,512,0,6,,,74,0,5
311296,note_on,,,,,0,0,6,,,72,96,5
311296,note_off,,,,,1024,0,7,,,67,0,6
311296,note_on,,,,,0,0,7,,,66,96,6
311808,note_on,,,,,0,0,7,,,67,96,6
311808,note_off,,,,,512,0,7,,,66,0,6
311808,note_on,,,,,0,0,5,,,48,96,4
311808,note_off,,,,,1536,0,5,,,52,0,4
311808,note_off,,,,,1536,0,8,,,55,0,7
311808,note_on,,,,,0,0,8,,,64,96,7
311808,note_on,,,,,0,0,6,,,72,96,5
311808,note_off,,,,,512,0,6,,,72,0,5
312320,note_on,,,,,0,0,6,,,76,96,5
312320,note_off,,,,,512,0,6,,,72,0,5
312832,note_on,,,,,0,0,7,,,69,96,6
312832,note_on,,,,,0,0,6,,,74,96,5
312832,note_off,,,,,512,0,6,,,76,0,5
312832,note_off,,,,,1024,0,7,,,67,0,6
313344,note_on,,,,,0,0,8,,,67,96,7
313344,note_off,,,,,1536,0,5,,,48,0,4
313344,note_on,,,,,0,0,5,,,47,96,4
313344,note_off,,,,,1536,0,8,,,64,0,7
313344,note_on,,,,,0,0,7,,,71,96,6
313344,note_off,,,,,512,0,7,,,69,0,6
313344,note_on,,,,,0,0,6,,,74,96,5
313344,note_off,,,,,512,0,6,,,74,0,5
313856,note_on,,,,,0,0,6,,,79,96,5
313856,note_off,,,,,512,0,6,,,74,0,5
314368,note_on,,,,,0,0,7,,,69,96,6
314368,note_off,,,,,1024,0,7,,,71,0,6
314368,note_on,,,,,0,0,6,,,78,96,5
314368,note_off,,,,,512,0,6,,,79,0,5
314880,note_on,,,,,0,0,7,,,71,96,6
314880,note_on,,,,,0,0,5,,,52,96,4
314880,note_off,,,,,1536,0,5,,,47,0,4
314880,note_off,,,,,512,0,6,,,78,0,5
314880,note_on,,,,,0,0,6,,,79,96,5
314880,note_on,,,,,0,0,8,,,64,96,7
314880,note_off,,,,,512,0,7,,,69,0,6
314880,note_off,,,,,1536,0,8,,,67,0,7
315392,note_on,,,,,0,0,6,,,74,96,5
315392,note_off,,,,,512,0,6,,,79,0,5
315904,note_on,,,,,0,0,7,,,67,96,6
315904,note_on,,,,,0,0,6,,,71,96,5
315904,note_off,,,,,512,0,6,,,74,0,5
315904,note_off,,,,,1024,0,7,,,71,0,6
316416,note_on,,,,,0,0,8,,,59,96,7
316416,note_on,,,,,0,0,5,,,50,96,4
316416,note_off,,,,,1536,0,5,,,52,0,4
316416,note_off,,,,,1536,0,8,,,64,0,7
316416,note_on,,,,,0,0,6,,,67,96,5
316416,note_off,,,,,512,0,6,,,71,0,5
316416,note_on,,,,,0,0,7,,,64,96,6
316416,note_off,,,,,512,0,7,,,67,0,6
316928,note_off,,,,,512,0,6,,,67,0,5
316928,note_on,,,,,0,0,6,,,69,96,5
317440,note_off,,,,,512,0,6,,,69,0,5
317440,note_on,,,,,0,0,7,,,67,96,6
317440,note_off,,,,,1024,0,7,,,64,0,6
317440,note_on,,,,,0,0,6,,,71,96,5
317952,note_on,,,,,0,0,5,,,48,96,4
317952,note_off,,,,,512,0,6,,,71,0,5
317952,note_on,,,,,0,0,6,,,64,96,5
317952,note_on,,,,,0,0,8,,,60,96,7
317952,note_off,,,,,1536,0,5,,,50,0,4
317952,note_off,,,,,1536,0,8,,,59,0,7
317952,note_off,,,,,512,0,7,,,67,0,6
317952,note_on,,,,,0,0,7,,,69,96,6
318464,note_off,,,,,512,0,6,,,64,0,5
318464,note_on,,,,,0,0,6,,,74,96,5
318976,note_off,,,,,1024,0,7,,,69,0,6
318976,note_on,,,,,0,0,7,,,66,96,6
318976,note_off,,,,,512,0,6,,,74,0,5
318976,note_on,,,,,0,0,6,,,72,96,5
319488,note_on,,,,,0,0,6,,,71,96,5
319488,note_off,,,,,512,0,7,,,66,0,6
319488,note_on,,,,,0,0,7,,,67,96,6
319488,note_off,,,,,512,0,6,,,72,0,5
319488,note_on,,,,,0,0,8,,,64,96,7
319488,note_off,,,,,1536,0,8,,,60,0,7
319488,note_off,,,,,1536,0,5,,,48,0,4
319488,note_on,,,,,0,0,5,,,49,96,4
320000,note_on,,,,,0,0,6,,,69,96,5
320000,note_off,,,,,512,0,6,,,71,0,5
320512,note_on,,,,,0,0,7,,,64,96,6
320512,note_on,,,,,0,0,6,,,67,96,5
320512,note_off,,,,,512,0,6,,,69,0,5
320512,note_off,,,,,1024,0,7,,,67,0,6
321024,note_off,,,,,512,0,7,,,64,0,6
321024,note_on,,,,,0,0,7,,,57,96,6
321024,note_on,,,,,0,0,8,,,62,96,7
321024,note_on,,,,,0,0,5,,,50,96,4
321024,note_off,,,,,1536,0,8,,,64,0,7
321024,note_off,,,,,512,0,6,,,67,0,5
321024,note_on,,,,,0,0,6,,,62,96,5
321024,note_off,,,,,1536,0,5,,,49,0,4
321536,note_off,,,,,512,0,6,,,62,0,5
321536,note_on,,,,,0,0,6,,,67,96,5
322048,note_on,,,,,0,0,6,,,66,96,5
322048,note_off,,,,,512,0,6,,,67,0,5
322048,note_on,,,,,0,0,7,,,60,96,6
322048,note_off,,,,,1024,0,7,,,57,0,6
322560,note_on,,,,,0,0,8,,,62,96,7
322560,note_off,,,,,1536,0,8,,,62,0,7
322560,note_off,,,,,512,0,7,,,60,0,6
322560,note_on,,,,,0,0,5,,,43,96,4
322560,note_on,,,,,0,0,7,,,59,96,6
322560,note_off,,,,,1536,0,5,,,50,0,4
322560,note_off,,,,,512,0,6,,,66,0,5
322560,note_on,,,,,0,0,6,,,67,96,5
327168,note_off,,,,,4608,0,8,,,62,0,7
327168,note_off,,,,,4608,0,7,,,59,0,6
327168,note_off,,,,,4608,0,6,,,67,0,5
327168,note_off,,,,,4608,0,5,,,43,0,4
327170,end_of_track,,,,,50690,1,1,,,,,
327170,end_of_track,,,,,2,1,5,,,,,
327170,end_of_track,,,,,2,1,6,,,,,
327170,end_of_track,,,,,327170,1,0,,,,,
327170,end_of_track,,,,,2,1,7,,,,,
327170,end_of_track,,,,,50690,1,3,,,,,
327170,end_of_track,,,,,50690,1,2,,,,,
327170,end_of_track,,,,,50690,1,4,,,,,
327170,end_of_track,,,,,2,1,8,,,,,
