,note,step,duration,channel,velocity
0,69.0,0,1024,1.0,96.0
1,54.0,0,1024,4.0,96.0
2,54.0,0,1024,3.0,96.0
3,66.0,0,1024,2.0,96.0
4,73.0,0,1024,0.0,96.0
5,53.0,0,1024,3.0,96.0
6,53.0,1024,1024,4.0,96.0
7,68.0,0,1024,1.0,96.0
8,61.0,1024,0,2.0,96.0
9,71.0,0,1024,0.0,96.0
10,54.0,0,1024,4.0,96.0
11,54.0,0,1024,3.0,96.0
12,66.0,0,1024,1.0,96.0
13,69.0,0,1024,0.0,96.0
14,59.0,1024,1024,2.0,96.0
15,71.0,0,1024,0.0,96.0
16,56.0,0,1024,4.0,96.0
17,64.0,0,1024,1.0,96.0
18,56.0,0,1024,3.0,96.0
19,64.0,0,1024,1.0,96.0
20,57.0,0,1024,4.0,96.0
21,57.0,1024,1024,3.0,96.0
22,57.0,0,1024,2.0,96.0
23,73.0,0,1024,0.0,96.0
24,74.0,0,1024,0.0,96.0
25,57.0,1024,0,2.0,96.0
26,54.0,0,1024,4.0,96.0
27,54.0,0,1024,3.0,96.0
28,66.0,1024,1024,1.0,96.0
29,67.0,0,2048,1.0,96.0
30,49.0,0,2048,4.0,96.0
31,49.0,0,2048,3.0,96.0
32,76.0,0,2048,0.0,96.0
33,66.0,0,1024,1.0,96.0
34,78.0,0,1024,0.0,96.0
35,62.0,0,1024,2.0,96.0
36,50.0,2048,1024,3.0,96.0
37,50.0,0,1024,4.0,96.0
38,61.0,0,1024,2.0,96.0
39,68.0,0,1024,1.0,96.0
40,52.0,0,1024,3.0,96.0
41,76.0,0,1024,0.0,96.0
42,52.0,1024,1024,4.0,96.0
43,69.0,0,512,1.0,96.0
44,61.0,1024,512,2.0,96.0
45,54.0,0,512,3.0,96.0
46,54.0,0,512,4.0,96.0
47,71.0,0,512,1.0,96.0
48,74.0,0,1024,0.0,96.0
49,59.0,0,512,2.0,96.0
50,56.0,0,512,3.0,96.0
51,56.0,512,512,4.0,96.0
52,73.0,512,512,0.0,96.0
53,61.0,0,512,2.0,96.0
54,64.0,0,512,1.0,96.0
55,71.0,512,512,0.0,96.0
56,57.0,0,1024,3.0,96.0
57,69.0,0,512,1.0,96.0
58,62.0,0,512,2.0,96.0
59,57.0,0,1024,4.0,96.0
60,64.0,512,1024,2.0,96.0
61,69.0,0,1024,1.0,96.0
62,62.0,1024,512,2.0,96.0
63,68.0,0,1024,1.0,96.0
64,52.0,0,2048,3.0,96.0
65,52.0,0,2048,4.0,96.0
66,71.0,0,2048,0.0,96.0
67,61.0,512,512,2.0,96.0
68,45.0,0,2048,3.0,96.0
69,64.0,512,2048,1.0,96.0
70,69.0,0,2048,0.0,96.0
71,45.0,0,2048,4.0,96.0
72,61.0,0,2048,2.0,96.0
73,64.0,0,1024,2.0,96.0
74,73.0,0,1024,0.0,96.0
75,57.0,0,1024,3.0,96.0
76,57.0,2048,1024,4.0,96.0
77,69.0,0,1024,1.0,96.0
78,56.0,0,1024,3.0,96.0
79,76.0,1024,1024,0.0,96.0
80,71.0,0,1024,1.0,96.0
81,56.0,0,1024,4.0,96.0
82,64.0,0,1024,2.0,96.0
83,54.0,0,512,4.0,96.0
84,54.0,0,512,3.0,96.0
85,66.0,0,1024,2.0,96.0
86,74.0,1024,1024,0.0,96.0
87,56.0,512,512,4.0,96.0
88,56.0,0,512,3.0,96.0
89,69.0,0,0,1.0,96.0
90,57.0,0,1024,3.0,96.0
91,64.0,0,1024,2.0,96.0
92,57.0,0,1024,4.0,96.0
93,73.0,512,1024,0.0,96.0
94,71.0,0,1024,0.0,96.0
95,62.0,0,1024,2.0,96.0
96,53.0,1024,1024,3.0,96.0
97,53.0,0,1024,4.0,96.0
98,68.0,0,1024,1.0,96.0
99,66.0,0,1024,1.0,96.0
100,54.0,0,1024,3.0,96.0
101,54.0,0,1024,4.0,96.0
102,69.0,0,1024,0.0,96.0
103,61.0,1024,0,2.0,96.0
104,49.0,0,2048,4.0,96.0
105,65.0,0,2048,1.0,96.0
106,68.0,0,2048,0.0,96.0
107,49.0,0,2048,3.0,96.0
108,61.0,0,0,2.0,96.0
109,54.0,2048,1024,4.0,96.0
110,66.0,0,1024,1.0,96.0
111,54.0,0,1024,3.0,96.0
112,69.0,0,1024,0.0,96.0
113,56.0,0,1024,4.0,96.0
114,71.0,0,1024,0.0,96.0
115,56.0,1024,1024,3.0,96.0
116,64.0,0,0,1.0,96.0
117,59.0,0,1024,2.0,96.0
118,57.0,0,512,2.0,96.0
119,57.0,0,1024,3.0,96.0
120,59.0,512,512,2.0,96.0
121,57.0,1024,1024,4.0,96.0
122,73.0,0,0,0.0,96.0
123,74.0,512,256,0.0,96.0
124,58.0,0,1024,3.0,96.0
125,58.0,0,1024,4.0,96.0
126,61.0,0,0,2.0,96.0
127,66.0,0,1024,1.0,96.0
128,76.0,256,256,0.0,96.0
129,66.0,0,512,1.0,96.0
130,69.0,512,512,1.0,96.0
131,59.0,0,512,2.0,96.0
132,68.0,512,512,1.0,96.0
133,57.0,512,512,2.0,96.0
134,59.0,0,2048,3.0,96.0
135,74.0,0,2048,0.0,96.0
136,66.0,0,512,1.0,96.0
137,59.0,256,2048,4.0,96.0
138,68.0,512,2048,1.0,96.0
139,53.0,0,2048,3.0,96.0
140,59.0,0,2048,2.0,96.0
141,53.0,0,2048,4.0,96.0
142,73.0,2048,0,0.0,96.0
143,54.0,0,512,3.0,96.0
144,54.0,0,512,4.0,96.0
145,66.0,0,1024,1.0,96.0
146,57.0,0,1024,2.0,96.0
147,56.0,512,512,3.0,96.0
148,56.0,0,512,4.0,96.0
149,71.0,0,512,0.0,96.0
150,57.0,0,512,3.0,96.0
151,57.0,0,512,4.0,96.0
152,73.0,0,512,0.0,96.0
153,59.0,512,512,4.0,96.0
154,59.0,0,512,3.0,96.0
155,69.0,512,1024,2.0,96.0
156,74.0,0,512,0.0,96.0
157,66.0,0,1024,1.0,96.0
158,61.0,0,512,1.0,96.0
159,61.0,0,1024,4.0,96.0
160,68.0,512,512,1.0,96.0
161,76.0,0,1024,0.0,96.0
162,61.0,512,1024,3.0,96.0
163,68.0,0,1024,2.0,96.0
164,69.0,0,512,1.0,96.0
165,54.0,512,512,3.0,96.0
166,54.0,0,512,4.0,96.0
167,56.0,0,512,4.0,96.0
168,71.0,0,512,1.0,96.0
169,56.0,512,512,3.0,96.0
170,74.0,0,1024,0.0,96.0
171,66.0,0,1024,2.0,96.0
172,57.0,512,1024,4.0,96.0
173,73.0,0,1024,0.0,96.0
174,69.0,0,1024,1.0,96.0
175,64.0,0,1024,2.0,96.0
176,57.0,0,1024,3.0,96.0
177,68.0,0,1024,1.0,96.0
178,64.0,0,1024,2.0,96.0
179,52.0,0,1024,4.0,96.0
180,52.0,1024,1024,3.0,96.0
181,71.0,0,1024,0.0,96.0
182,45.0,0,2048,3.0,96.0
183,69.0,1024,2048,1.0,96.0
184,64.0,0,2048,2.0,96.0
185,73.0,0,2048,0.0,96.0
186,45.0,0,2048,4.0,96.0
187,63.0,0,1024,2.0,96.0
188,57.0,2048,1024,3.0,96.0
189,57.0,0,1024,4.0,96.0
190,71.0,0,0,0.0,96.0
191,66.0,0,1024,1.0,96.0
192,56.0,0,1024,3.0,96.0
193,64.0,0,0,2.0,96.0
194,64.0,0,1024,1.0,96.0
195,56.0,0,1024,4.0,96.0
196,73.0,0,512,0.0,96.0
197,66.0,0,512,2.0,96.0
198,75.0,512,512,0.0,96.0
199,55.0,1024,1024,3.0,96.0
200,69.0,0,1024,1.0,96.0
201,55.0,0,1024,4.0,96.0
202,54.0,512,512,3.0,96.0
203,54.0,0,512,4.0,96.0
204,52.0,512,512,3.0,96.0
205,67.0,0,1024,2.0,96.0
206,71.0,0,1024,1.0,96.0
207,76.0,0,0,0.0,96.0
208,52.0,0,512,4.0,96.0
209,66.0,0,1024,2.0,96.0
210,58.0,512,1024,3.0,96.0
211,73.0,0,1024,1.0,96.0
212,46.0,0,1024,4.0,96.0
213,71.0,0,512,1.0,96.0
214,59.0,1024,1024,2.0,96.0
215,59.0,0,1024,3.0,96.0
216,75.0,0,1024,0.0,96.0
217,47.0,0,1024,4.0,96.0
218,69.0,512,512,1.0,96.0
219,68.0,0,0,1.0,96.0
220,52.0,0,2048,3.0,96.0
221,59.0,512,2048,2.0,96.0
222,40.0,0,2048,4.0,96.0
223,76.0,0,0,0.0,96.0
224,49.0,0,1024,4.0,96.0
225,61.0,1024,0,2.0,96.0
226,49.0,2048,1024,3.0,96.0
227,54.0,0,1024,4.0,96.0
228,73.0,0,1024,0.0,96.0
229,69.0,1024,0,1.0,96.0
230,54.0,0,1024,3.0,96.0
231,50.0,0,1024,4.0,96.0
232,50.0,0,1024,3.0,96.0
233,60.0,0,1024,2.0,96.0
234,78.0,0,1536,0.0,96.0
235,59.0,0,512,2.0,96.0
236,55.0,0,1024,3.0,96.0
237,55.0,0,1024,4.0,96.0
238,58.0,0,512,2.0,96.0
239,67.0,1024,1024,1.0,96.0
240,76.0,512,512,0.0,96.0
241,67.0,0,512,1.0,96.0
242,59.0,0,1024,2.0,96.0
243,66.0,512,512,1.0,96.0
244,52.0,0,1024,3.0,96.0
245,52.0,0,1024,4.0,96.0
246,74.0,512,1024,0.0,96.0
247,73.0,0,512,0.0,96.0
248,54.0,512,0,4.0,96.0
249,71.0,0,0,0.0,96.0
250,54.0,0,1024,3.0,96.0
251,64.0,0,1024,1.0,96.0
252,58.0,512,1024,2.0,96.0
253,59.0,0,2048,2.0,96.0
254,62.0,0,2048,1.0,96.0
255,47.0,0,2048,3.0,96.0
256,54.0,0,0,4.0,96.0
257,54.0,0,512,3.0,96.0
258,57.0,0,1024,2.0,96.0
259,66.0,2048,1024,1.0,96.0
260,52.0,0,512,4.0,96.0
261,52.0,512,512,3.0,96.0
262,73.0,0,0,0.0,96.0
263,50.0,0,512,4.0,96.0
264,50.0,0,512,3.0,96.0
265,64.0,0,512,1.0,96.0
266,74.0,0,256,0.0,96.0
267,57.0,512,1024,2.0,96.0
268,49.0,512,512,4.0,96.0
269,76.0,256,256,0.0,96.0
270,66.0,0,512,1.0,96.0
271,49.0,0,512,3.0,96.0
272,59.0,0,1024,2.0,96.0
273,74.0,0,1024,0.0,96.0
274,47.0,0,1024,4.0,96.0
275,47.0,256,1024,3.0,96.0
276,68.0,0,1024,1.0,96.0
277,49.0,0,512,3.0,96.0
278,73.0,0,512,0.0,96.0
279,49.0,0,512,4.0,96.0
280,50.0,0,512,3.0,96.0
281,50.0,512,512,4.0,96.0
282,71.0,0,0,0.0,96.0
283,69.0,0,1024,1.0,96.0
284,52.0,1024,1024,2.0,96.0
285,69.0,0,512,1.0,96.0
286,66.0,512,512,1.0,96.0
287,64.0,0,1024,2.0,96.0
288,62.0,0,256,2.0,96.0
289,61.0,256,256,2.0,96.0
290,52.0,512,2048,3.0,96.0
291,68.0,512,1024,1.0,96.0
292,52.0,0,2048,4.0,96.0
293,62.0,256,512,2.0,96.0
294,64.0,0,2048,1.0,96.0
295,45.0,0,2048,3.0,96.0
296,69.0,0,2048,0.0,96.0
297,61.0,0,2048,2.0,96.0
298,45.0,512,2048,4.0,96.0
