,note,step,duration,channel,velocity
0,43.0,0,512,3.0,96.0
1,58.0,0,512,2.0,96.0
2,60.0,0,512,2.0,96.0
3,45.0,512,512,3.0,96.0
4,67.0,0,1024,1.0,96.0
5,74.0,0,1024,0.0,96.0
6,67.0,0,1024,0.0,96.0
7,62.0,512,1024,2.0,96.0
8,46.0,0,1024,3.0,96.0
9,67.0,0,1024,1.0,96.0
10,45.0,0,512,3.0,96.0
11,66.0,0,512,1.0,96.0
12,60.0,0,512,2.0,96.0
13,69.0,1024,512,0.0,96.0
14,70.0,0,512,0.0,96.0
15,43.0,512,512,3.0,96.0
16,62.0,0,512,2.0,96.0
17,67.0,0,512,1.0,96.0
18,63.0,0,512,2.0,96.0
19,42.0,512,1024,3.0,96.0
20,62.0,0,0,2.0,96.0
21,72.0,0,1024,0.0,96.0
22,69.0,0,1536,1.0,96.0
23,70.0,0,1024,0.0,96.0
24,43.0,512,1024,3.0,96.0
25,63.0,0,512,2.0,96.0
26,48.0,0,512,3.0,96.0
27,67.0,512,1024,1.0,96.0
28,66.0,0,256,1.0,96.0
29,64.0,256,256,1.0,96.0
30,69.0,256,0,0.0,96.0
31,45.0,0,512,3.0,96.0
32,60.0,512,512,2.0,96.0
33,57.0,0,512,2.0,96.0
34,62.0,512,256,2.0,96.0
35,66.0,0,1024,1.0,96.0
36,60.0,256,256,2.0,96.0
37,50.0,0,1024,3.0,96.0
38,43.0,0,1024,3.0,96.0
39,58.0,0,1024,2.0,96.0
40,62.0,256,1024,1.0,96.0
41,67.0,0,1024,0.0,96.0
42,60.0,0,512,2.0,96.0
43,58.0,512,512,2.0,96.0
44,40.0,1024,1024,3.0,96.0
45,72.0,0,1024,0.0,96.0
46,67.0,0,1024,1.0,96.0
47,41.0,0,512,3.0,96.0
48,65.0,512,512,1.0,96.0
49,57.0,0,512,2.0,96.0
50,43.0,0,512,3.0,96.0
51,72.0,512,0,0.0,96.0
52,64.0,0,512,1.0,96.0
53,58.0,512,512,2.0,96.0
54,60.0,0,512,2.0,96.0
55,45.0,0,512,3.0,96.0
56,57.0,512,512,2.0,96.0
57,65.0,0,1024,1.0,96.0
58,41.0,0,512,3.0,96.0
59,46.0,0,512,3.0,96.0
60,65.0,0,0,1.0,96.0
61,58.0,512,1024,2.0,96.0
62,74.0,0,1024,0.0,96.0
63,58.0,512,1024,3.0,96.0
64,72.0,0,1024,0.0,96.0
65,60.0,512,1024,2.0,96.0
66,57.0,512,512,3.0,96.0
67,55.0,0,512,3.0,96.0
68,70.0,0,512,1.0,96.0
69,58.0,0,512,2.0,96.0
70,53.0,512,512,3.0,96.0
71,74.0,512,1024,0.0,96.0
72,57.0,0,512,2.0,96.0
73,74.0,0,1024,1.0,96.0
74,52.0,512,1024,3.0,96.0
75,73.0,512,512,1.0,96.0
76,55.0,0,1024,2.0,96.0
77,76.0,0,1024,0.0,96.0
78,57.0,0,1024,2.0,96.0
79,50.0,0,1024,3.0,96.0
80,74.0,0,1024,1.0,96.0
81,77.0,512,1024,0.0,96.0
82,74.0,0,1024,0.0,96.0
83,43.0,0,1024,3.0,96.0
84,70.0,0,1024,1.0,96.0
85,67.0,1024,1536,2.0,96.0
86,72.0,1024,1024,0.0,96.0
87,45.0,0,1024,3.0,96.0
88,69.0,0,1024,1.0,96.0
89,66.0,512,512,2.0,96.0
90,46.0,0,512,3.0,96.0
91,62.0,0,512,1.0,96.0
92,64.0,512,512,1.0,96.0
93,48.0,0,512,3.0,96.0
94,70.0,512,1024,0.0,96.0
95,67.0,0,1024,2.0,96.0
96,62.0,512,512,2.0,96.0
97,60.0,512,512,2.0,96.0
98,50.0,0,1024,3.0,96.0
99,66.0,0,1024,1.0,96.0
100,69.0,0,1024,0.0,96.0
101,51.0,512,512,3.0,96.0
102,58.0,0,1024,2.0,96.0
103,67.0,0,1024,0.0,96.0
104,50.0,512,512,3.0,96.0
105,67.0,0,0,1.0,96.0
106,63.0,0,512,2.0,96.0
107,60.0,512,512,2.0,96.0
108,48.0,512,1024,3.0,96.0
109,57.0,0,512,2.0,96.0
110,62.0,512,256,2.0,96.0
111,66.0,512,1024,1.0,96.0
112,69.0,0,2048,0.0,96.0
113,60.0,256,256,2.0,96.0
114,50.0,0,1024,3.0,96.0
115,58.0,0,1024,2.0,96.0
116,62.0,256,1024,1.0,96.0
117,67.0,0,1024,0.0,96.0
118,43.0,0,0,3.0,96.0
119,58.0,0,512,2.0,96.0
120,60.0,512,512,2.0,96.0
121,67.0,0,0,1.0,96.0
122,45.0,0,512,3.0,96.0
123,74.0,1024,1024,0.0,96.0
124,62.0,512,1024,2.0,96.0
125,46.0,0,1024,3.0,96.0
126,67.0,0,1024,0.0,96.0
127,60.0,0,512,2.0,96.0
128,66.0,0,512,1.0,96.0
129,45.0,1024,512,3.0,96.0
130,69.0,0,512,0.0,96.0
131,62.0,512,512,2.0,96.0
132,70.0,0,512,0.0,96.0
133,43.0,0,512,3.0,96.0
134,67.0,0,512,1.0,96.0
135,63.0,0,512,2.0,96.0
136,72.0,512,1024,0.0,96.0
137,62.0,512,512,2.0,96.0
138,42.0,0,1024,3.0,96.0
139,69.0,0,1536,1.0,96.0
140,43.0,0,1024,3.0,96.0
141,70.0,512,1024,0.0,96.0
142,62.0,0,1024,2.0,96.0
143,67.0,512,1024,1.0,96.0
144,48.0,0,512,3.0,96.0
145,63.0,0,512,2.0,96.0
146,66.0,512,256,1.0,96.0
147,69.0,512,1024,0.0,96.0
148,45.0,0,512,3.0,96.0
149,64.0,256,256,1.0,96.0
150,60.0,0,512,2.0,96.0
151,57.0,0,512,2.0,96.0
152,62.0,512,256,2.0,96.0
153,66.0,0,1024,1.0,96.0
154,50.0,0,1024,3.0,96.0
155,69.0,256,1024,0.0,96.0
156,60.0,256,256,2.0,96.0
157,58.0,0,1024,2.0,96.0
158,43.0,0,1024,3.0,96.0
159,67.0,0,1024,0.0,96.0
160,62.0,256,1024,1.0,96.0
161,60.0,1024,512,2.0,96.0
162,40.0,0,1024,3.0,96.0
163,67.0,0,1024,1.0,96.0
164,72.0,0,0,0.0,96.0
165,58.0,512,512,2.0,96.0
166,65.0,0,512,1.0,96.0
167,57.0,0,512,2.0,96.0
168,41.0,512,512,3.0,96.0
169,58.0,0,512,2.0,96.0
170,43.0,0,512,3.0,96.0
171,64.0,512,512,1.0,96.0
172,45.0,512,512,3.0,96.0
173,60.0,0,512,2.0,96.0
174,41.0,512,512,3.0,96.0
175,72.0,0,1024,0.0,96.0
176,65.0,0,1024,1.0,96.0
177,57.0,0,512,2.0,96.0
178,46.0,512,512,3.0,96.0
179,74.0,0,1024,0.0,96.0
180,65.0,512,0,1.0,96.0
181,58.0,0,1024,2.0,96.0
182,58.0,512,1024,3.0,96.0
183,72.0,0,1024,0.0,96.0
184,60.0,0,1024,2.0,96.0
185,57.0,512,512,3.0,96.0
186,70.0,0,512,1.0,96.0
187,58.0,0,512,2.0,96.0
188,55.0,512,512,3.0,96.0
189,74.0,0,1024,0.0,96.0
190,53.0,0,512,3.0,96.0
191,57.0,0,512,2.0,96.0
192,74.0,512,1024,1.0,96.0
193,55.0,0,1024,2.0,96.0
194,52.0,0,1024,3.0,96.0
195,73.0,512,512,1.0,96.0
196,76.0,512,1024,0.0,96.0
197,57.0,512,1024,2.0,96.0
198,50.0,0,1024,3.0,96.0
199,77.0,0,1024,0.0,96.0
200,74.0,0,1024,1.0,96.0
201,43.0,0,1024,3.0,96.0
202,74.0,0,1024,0.0,96.0
203,70.0,0,1024,1.0,96.0
204,67.0,1024,1536,2.0,96.0
205,45.0,0,1024,3.0,96.0
206,66.0,512,512,2.0,96.0
207,69.0,0,1024,1.0,96.0
208,72.0,1024,1024,0.0,96.0
209,62.0,512,512,1.0,96.0
210,46.0,0,512,3.0,96.0
211,64.0,512,512,1.0,96.0
212,48.0,0,512,3.0,96.0
213,70.0,0,1024,0.0,96.0
214,67.0,0,1024,2.0,96.0
215,62.0,0,512,2.0,96.0
216,66.0,512,1024,1.0,96.0
217,69.0,0,1024,0.0,96.0
218,50.0,0,1024,3.0,96.0
219,60.0,512,512,2.0,96.0
220,51.0,0,512,3.0,96.0
221,50.0,512,512,3.0,96.0
222,58.0,0,1024,2.0,96.0
223,67.0,512,1024,1.0,96.0
224,67.0,0,1024,0.0,96.0
225,63.0,0,512,2.0,96.0
226,48.0,512,1024,3.0,96.0
227,67.0,0,1024,1.0,96.0
228,60.0,512,512,2.0,96.0
229,57.0,0,512,2.0,96.0
230,62.0,512,256,2.0,96.0
231,69.0,0,2048,0.0,96.0
232,50.0,0,1024,3.0,96.0
233,60.0,256,256,2.0,96.0
234,66.0,512,1024,1.0,96.0
235,62.0,0,1024,1.0,96.0
236,67.0,256,1024,0.0,96.0
237,43.0,0,1024,3.0,96.0
238,58.0,0,1024,2.0,96.0
239,53.0,0,512,3.0,96.0
240,65.0,1024,1024,1.0,96.0
241,60.0,0,1024,2.0,96.0
242,69.0,0,1024,0.0,96.0
243,51.0,512,512,3.0,96.0
244,65.0,512,512,1.0,96.0
245,50.0,0,1024,3.0,96.0
246,62.0,0,1024,2.0,96.0
247,70.0,0,1024,0.0,96.0
248,70.0,512,1024,1.0,96.0
249,48.0,512,1024,3.0,96.0
250,72.0,0,1024,0.0,96.0
251,63.0,0,1024,2.0,96.0
252,69.0,512,512,1.0,96.0
253,46.0,0,512,3.0,96.0
254,65.0,0,1024,2.0,96.0
255,70.0,512,1024,1.0,96.0
256,74.0,0,1024,0.0,96.0
257,58.0,512,1024,3.0,96.0
258,57.0,512,512,3.0,96.0
259,75.0,512,1024,0.0,96.0
260,65.0,0,0,2.0,96.0
261,72.0,0,1536,1.0,96.0
262,58.0,512,512,3.0,96.0
263,74.0,0,1024,0.0,96.0
264,50.0,512,512,3.0,96.0
265,51.0,512,512,3.0,96.0
266,70.0,0,1024,1.0,96.0
267,67.0,0,512,2.0,96.0
268,65.0,0,256,2.0,96.0
269,53.0,512,512,3.0,96.0
270,63.0,256,256,2.0,96.0
271,69.0,0,512,1.0,96.0
272,72.0,0,1024,0.0,96.0
273,46.0,1024,0,3.0,96.0
274,70.0,0,1024,0.0,96.0
275,62.0,0,0,2.0,96.0
276,65.0,0,0,1.0,96.0
277,65.0,1024,0,1.0,96.0
278,74.0,0,1024,0.0,96.0
279,45.0,0,512,3.0,96.0
280,60.0,0,512,2.0,96.0
281,41.0,512,512,3.0,96.0
282,77.0,0,1024,0.0,96.0
283,69.0,0,512,1.0,96.0
284,62.0,0,512,2.0,96.0
285,43.0,0,512,3.0,96.0
286,58.0,512,512,2.0,96.0
287,67.0,0,512,1.0,96.0
288,60.0,0,512,2.0,96.0
289,65.0,0,512,1.0,96.0
290,45.0,512,512,3.0,96.0
291,75.0,0,1024,0.0,96.0
292,65.0,0,1024,1.0,96.0
293,74.0,0,1024,0.0,96.0
294,62.0,512,1024,2.0,96.0
295,46.0,0,1024,3.0,96.0
296,60.0,0,512,2.0,96.0
297,67.0,0,512,0.0,96.0
298,48.0,0,1024,3.0,96.0
299,69.0,512,512,0.0,96.0
300,63.0,1024,1024,1.0,96.0
301,54.0,0,512,2.0,96.0
302,62.0,0,512,1.0,96.0
303,46.0,0,512,3.0,96.0
304,55.0,512,512,2.0,96.0
305,62.0,0,512,2.0,96.0
306,70.0,0,1024,0.0,96.0
307,43.0,0,512,3.0,96.0
308,67.0,512,1024,1.0,96.0
309,62.0,0,768,2.0,96.0
310,69.0,0,1024,0.0,96.0
311,66.0,512,512,1.0,96.0
312,50.0,512,1024,3.0,96.0
313,60.0,256,256,2.0,96.0
314,67.0,256,2048,0.0,96.0
315,59.0,0,2048,2.0,96.0
316,43.0,0,2048,3.0,96.0
317,62.0,0,2048,1.0,96.0
