,note,step,duration,channel,velocity
0,57.0,0,512,2.0,96.0
1,41.0,0,512,3.0,96.0
2,65.0,0,1024,1.0,96.0
3,58.0,512,512,2.0,96.0
4,43.0,0,512,3.0,96.0
5,72.0,0,1024,0.0,96.0
6,45.0,0,512,3.0,96.0
7,69.0,0,1024,0.0,96.0
8,46.0,512,512,3.0,96.0
9,60.0,0,1536,2.0,96.0
10,65.0,512,1536,1.0,96.0
11,64.0,0,256,1.0,96.0
12,55.0,512,512,2.0,96.0
13,62.0,256,256,1.0,96.0
14,60.0,256,512,2.0,96.0
15,48.0,0,2048,3.0,96.0
16,58.0,512,512,2.0,96.0
17,67.0,512,2048,0.0,96.0
18,64.0,0,1024,1.0,96.0
19,57.0,0,2048,2.0,96.0
20,41.0,0,2048,3.0,96.0
21,60.0,0,2048,1.0,96.0
22,65.0,512,2048,0.0,96.0
23,52.0,0,512,3.0,96.0
24,67.0,0,1024,1.0,96.0
25,48.0,512,512,3.0,96.0
26,72.0,0,1024,0.0,96.0
27,55.0,0,512,3.0,96.0
28,60.0,2048,1536,2.0,96.0
29,74.0,512,1024,0.0,96.0
30,43.0,512,512,3.0,96.0
31,67.0,512,0,1.0,96.0
32,59.0,0,512,2.0,96.0
33,48.0,0,2048,3.0,96.0
34,64.0,0,2048,2.0,96.0
35,72.0,0,2048,0.0,96.0
36,50.0,0,512,3.0,96.0
37,48.0,512,512,3.0,96.0
38,77.0,0,0,0.0,96.0
39,65.0,2048,1024,1.0,96.0
40,57.0,0,1024,2.0,96.0
41,47.0,512,512,3.0,96.0
42,43.0,512,512,3.0,96.0
43,67.0,0,0,1.0,96.0
44,48.0,512,512,3.0,96.0
45,62.0,0,1536,2.0,96.0
46,60.0,0,256,2.0,96.0
47,76.0,0,1024,0.0,96.0
48,52.0,512,512,3.0,96.0
49,59.0,256,256,2.0,96.0
50,57.0,0,512,3.0,96.0
51,64.0,0,512,1.0,96.0
52,65.0,0,256,1.0,96.0
53,55.0,512,512,3.0,96.0
54,76.0,256,1024,0.0,96.0
55,67.0,256,256,1.0,96.0
56,60.0,0,1536,2.0,96.0
57,53.0,0,512,3.0,96.0
58,59.0,512,256,2.0,96.0
59,57.0,256,256,2.0,96.0
60,50.0,0,512,3.0,96.0
61,74.0,0,1536,0.0,96.0
62,69.0,256,1536,1.0,96.0
63,55.0,0,512,3.0,96.0
64,67.0,0,256,1.0,96.0
65,72.0,512,512,0.0,96.0
66,43.0,0,512,3.0,96.0
67,65.0,256,256,1.0,96.0
68,59.0,256,1024,2.0,96.0
69,48.0,256,2048,3.0,96.0
70,64.0,0,2048,1.0,96.0
71,72.0,0,2048,0.0,96.0
72,55.0,0,2048,2.0,96.0
73,53.0,0,1024,3.0,96.0
74,57.0,0,1024,2.0,96.0
75,72.0,0,1024,0.0,96.0
76,65.0,0,0,1.0,96.0
77,58.0,0,512,2.0,96.0
78,57.0,512,512,2.0,96.0
79,74.0,0,1024,0.0,96.0
80,46.0,1024,1024,3.0,96.0
81,72.0,0,1024,0.0,96.0
82,55.0,512,1024,2.0,96.0
83,64.0,0,1024,1.0,96.0
84,48.0,0,1024,3.0,96.0
85,50.0,1024,512,3.0,96.0
86,62.0,0,512,1.0,96.0
87,53.0,0,512,2.0,96.0
88,52.0,512,512,3.0,96.0
89,70.0,0,1024,0.0,96.0
90,60.0,0,512,1.0,96.0
91,55.0,0,512,2.0,96.0
92,60.0,0,2048,1.0,96.0
93,53.0,512,2048,3.0,96.0
94,69.0,0,2048,0.0,96.0
95,57.0,0,2048,2.0,96.0
96,48.0,0,512,3.0,96.0
97,64.0,0,512,1.0,96.0
98,67.0,3072,1024,0.0,96.0
99,67.0,512,512,1.0,96.0
100,60.0,512,0,2.0,96.0
101,52.0,0,512,3.0,96.0
102,69.0,0,512,0.0,96.0
103,53.0,0,512,3.0,96.0
104,65.0,0,1024,1.0,96.0
105,55.0,0,512,3.0,96.0
106,71.0,512,512,0.0,96.0
107,57.0,0,512,3.0,96.0
108,55.0,512,512,3.0,96.0
109,72.0,0,1024,0.0,96.0
110,60.0,0,1024,2.0,96.0
111,64.0,512,1024,1.0,96.0
112,53.0,512,512,3.0,96.0
113,69.0,0,512,1.0,96.0
114,67.0,512,256,1.0,96.0
115,65.0,256,256,1.0,96.0
116,50.0,0,512,3.0,96.0
117,72.0,0,1024,0.0,96.0
118,55.0,256,512,3.0,96.0
119,62.0,0,1536,2.0,96.0
120,64.0,0,256,2.0,96.0
121,67.0,0,1024,1.0,96.0
122,71.0,0,1024,0.0,96.0
123,65.0,256,256,2.0,96.0
124,43.0,512,512,3.0,96.0
125,48.0,256,2048,3.0,96.0
126,64.0,0,2048,2.0,96.0
127,72.0,0,0,0.0,96.0
128,67.0,0,2048,1.0,96.0
129,53.0,2048,512,3.0,96.0
130,69.0,0,1024,1.0,96.0
131,52.0,512,512,3.0,96.0
132,65.0,0,0,2.0,96.0
133,50.0,0,512,3.0,96.0
134,74.0,0,1024,0.0,96.0
135,53.0,512,512,3.0,96.0
136,55.0,512,512,3.0,96.0
137,69.0,512,1536,1.0,96.0
138,67.0,0,256,1.0,96.0
139,53.0,512,512,3.0,96.0
140,70.0,0,1024,0.0,96.0
141,65.0,256,256,1.0,96.0
142,62.0,0,1024,2.0,96.0
143,52.0,0,512,3.0,96.0
144,60.0,0,1024,2.0,96.0
145,48.0,512,512,3.0,96.0
146,70.0,256,1024,0.0,96.0
147,67.0,0,1536,1.0,96.0
148,53.0,0,512,3.0,96.0
149,65.0,512,256,1.0,96.0
150,64.0,256,256,1.0,96.0
151,60.0,0,1024,2.0,96.0
152,69.0,512,1024,0.0,96.0
153,52.0,0,512,3.0,96.0
154,50.0,0,512,3.0,96.0
155,58.0,256,512,2.0,96.0
156,62.0,0,512,2.0,96.0
157,46.0,512,512,3.0,96.0
158,70.0,0,1024,0.0,96.0
159,65.0,0,1536,1.0,96.0
160,64.0,512,256,1.0,96.0
161,48.0,512,1024,3.0,96.0
162,62.0,256,256,1.0,96.0
163,69.0,0,1024,0.0,96.0
164,60.0,0,1536,2.0,96.0
165,64.0,0,1024,1.0,96.0
166,67.0,0,1024,0.0,96.0
167,36.0,256,1024,3.0,96.0
168,58.0,512,512,2.0,96.0
169,60.0,512,2048,1.0,96.0
170,57.0,0,2048,2.0,96.0
171,65.0,0,2048,0.0,96.0
172,41.0,0,2048,3.0,96.0
173,69.0,0,1024,0.0,96.0
174,53.0,0,1024,3.0,96.0
175,60.0,0,0,2.0,96.0
176,65.0,0,0,1.0,96.0
177,64.0,1024,1024,1.0,96.0
178,48.0,0,2048,3.0,96.0
179,67.0,1024,2048,0.0,96.0
180,58.0,512,512,2.0,96.0
181,50.0,0,1024,3.0,96.0
182,65.0,0,1024,0.0,96.0
183,62.0,512,1024,1.0,96.0
184,57.0,0,1024,2.0,96.0
185,52.0,1024,1024,3.0,96.0
186,67.0,0,1024,1.0,96.0
187,55.0,0,1024,2.0,96.0
188,72.0,0,0,0.0,96.0
189,53.0,1024,1024,3.0,96.0
190,62.0,0,0,2.0,96.0
191,69.0,0,1024,1.0,96.0
192,67.0,1024,512,1.0,96.0
193,65.0,512,512,1.0,96.0
194,71.0,0,1024,0.0,96.0
195,55.0,0,1024,3.0,96.0
196,60.0,0,1024,2.0,96.0
197,57.0,1024,0,3.0,96.0
198,64.0,0,1024,1.0,96.0
199,72.0,0,1024,0.0,96.0
200,60.0,0,1024,2.0,96.0
201,77.0,0,0,0.0,96.0
202,65.0,0,1024,1.0,96.0
203,59.0,1024,1024,3.0,96.0
204,67.0,0,1024,1.0,96.0
205,62.0,0,1536,2.0,96.0
206,76.0,0,1024,0.0,96.0
207,67.0,1024,1024,1.0,96.0
208,60.0,0,1024,3.0,96.0
209,60.0,512,1024,2.0,96.0
210,59.0,512,256,2.0,96.0
211,69.0,0,1024,1.0,96.0
212,53.0,0,1024,3.0,96.0
213,57.0,256,256,2.0,96.0
214,67.0,0,512,1.0,96.0
215,65.0,512,512,1.0,96.0
216,74.0,512,2048,0.0,96.0
217,59.0,256,1024,2.0,96.0
218,55.0,0,1024,3.0,96.0
219,72.0,2048,0,0.0,96.0
220,64.0,512,2048,1.0,96.0
221,55.0,0,2048,2.0,96.0
222,48.0,0,2048,3.0,96.0
223,53.0,0,512,3.0,96.0
224,65.0,0,0,1.0,96.0
225,52.0,512,512,3.0,96.0
226,57.0,512,0,2.0,96.0
227,74.0,0,512,0.0,96.0
228,50.0,0,512,3.0,96.0
229,64.0,0,512,1.0,96.0
230,53.0,512,512,3.0,96.0
231,72.0,0,512,0.0,96.0
232,55.0,0,512,3.0,96.0
233,58.0,0,512,2.0,96.0
234,57.0,0,512,2.0,96.0
235,62.0,512,1024,1.0,96.0
236,53.0,512,512,3.0,96.0
237,70.0,0,0,0.0,96.0
238,52.0,0,512,3.0,96.0
239,60.0,0,1024,1.0,96.0
240,48.0,512,512,3.0,96.0
241,55.0,512,1024,2.0,96.0
242,53.0,512,512,3.0,96.0
243,60.0,0,512,1.0,96.0
244,53.0,0,512,2.0,96.0
245,62.0,512,256,1.0,96.0
246,52.0,0,512,3.0,96.0
247,57.0,0,512,2.0,96.0
248,69.0,0,1024,0.0,96.0
249,64.0,256,256,1.0,96.0
250,70.0,0,512,0.0,96.0
251,50.0,256,512,3.0,96.0
252,48.0,0,512,3.0,96.0
253,69.0,512,512,0.0,96.0
254,65.0,0,1536,1.0,96.0
255,62.0,0,1536,2.0,96.0
256,46.0,512,512,3.0,96.0
257,64.0,0,256,1.0,96.0
258,43.0,0,512,3.0,96.0
259,62.0,256,256,1.0,96.0
260,58.0,512,512,2.0,96.0
261,55.0,0,512,2.0,96.0
262,60.0,512,512,2.0,96.0
263,67.0,0,2048,0.0,96.0
264,48.0,256,1024,3.0,96.0
265,64.0,0,1024,1.0,96.0
266,41.0,512,2048,3.0,96.0
267,60.0,0,2048,1.0,96.0
268,65.0,0,2048,0.0,96.0
269,57.0,0,2048,2.0,96.0
