,note,step,duration,channel,velocity
0,65.0,0,1024,1.0,0.0
1,62.0,0,1024,2.0,0.0
2,58.0,512,512,3.0,0.0
3,70.0,0,1024,0.0,0.0
4,57.0,512,512,3.0,0.0
5,67.0,0,1024,1.0,0.0
6,55.0,0,1024,3.0,0.0
7,62.0,512,512,2.0,0.0
8,63.0,0,512,2.0,0.0
9,65.0,512,1024,2.0,0.0
10,50.0,0,1024,3.0,0.0
11,70.0,1024,0,0.0,0.0
12,68.0,0,1024,1.0,0.0
13,51.0,0,1024,3.0,0.0
14,67.0,1024,1024,1.0,0.0
15,63.0,512,512,2.0,0.0
16,70.0,0,1024,0.0,0.0
17,62.0,0,512,2.0,0.0
18,72.0,0,1024,0.0,0.0
19,52.0,0,1024,3.0,0.0
20,53.0,0,1024,3.0,0.0
21,60.0,0,0,2.0,0.0
22,67.0,512,0,1.0,0.0
23,68.0,512,1024,0.0,0.0
24,65.0,512,1024,1.0,0.0
25,58.0,0,1024,2.0,0.0
26,48.0,0,1024,3.0,0.0
27,67.0,0,1024,0.0,0.0
28,64.0,1024,512,1.0,0.0
29,41.0,0,1024,3.0,0.0
30,57.0,0,1024,2.0,0.0
31,65.0,0,1024,0.0,0.0
32,72.0,0,1024,0.0,0.0
33,60.0,0,1024,2.0,0.0
34,65.0,1024,0,1.0,0.0
35,45.0,0,1024,3.0,0.0
36,46.0,0,1024,3.0,0.0
37,74.0,1024,1024,0.0,0.0
38,65.0,512,0,1.0,0.0
39,58.0,512,512,2.0,0.0
40,57.0,0,512,2.0,0.0
41,55.0,0,1024,2.0,0.0
42,48.0,0,1024,3.0,0.0
43,64.0,0,1024,1.0,0.0
44,72.0,1024,1024,0.0,0.0
45,53.0,0,1024,2.0,0.0
46,65.0,0,1024,1.0,0.0
47,50.0,512,1024,3.0,0.0
48,70.0,0,1024,0.0,0.0
49,52.0,0,1024,3.0,0.0
50,69.0,512,512,0.0,0.0
51,60.0,512,1536,1.0,0.0
52,60.0,0,1024,2.0,0.0
53,67.0,512,512,0.0,0.0
54,60.0,0,1024,2.0,0.0
55,53.0,512,1024,3.0,0.0
56,69.0,0,1024,0.0,0.0
57,65.0,512,1024,1.0,0.0
58,58.0,0,1024,2.0,0.0
59,67.0,0,1024,0.0,0.0
60,48.0,1024,1024,3.0,0.0
61,64.0,0,512,1.0,0.0
62,57.0,1024,1024,2.0,0.0
63,60.0,0,1024,1.0,0.0
64,65.0,0,1024,0.0,0.0
65,41.0,0,1024,3.0,0.0
66,50.0,0,1024,3.0,0.0
67,70.0,512,1024,0.0,0.0
68,58.0,0,1024,2.0,0.0
69,65.0,0,1024,1.0,0.0
70,67.0,0,1024,1.0,0.0
71,58.0,512,512,2.0,0.0
72,51.0,0,1024,3.0,0.0
73,70.0,1024,1024,0.0,0.0
74,60.0,0,512,2.0,0.0
75,65.0,0,1024,1.0,0.0
76,46.0,512,1024,3.0,0.0
77,62.0,0,1024,2.0,0.0
78,63.0,512,512,2.0,0.0
79,70.0,0,0,0.0,0.0
80,51.0,0,1024,3.0,0.0
81,62.0,0,512,2.0,0.0
82,60.0,0,1024,2.0,0.0
83,52.0,0,1024,3.0,0.0
84,67.0,1024,0,1.0,0.0
85,72.0,0,1024,0.0,0.0
86,68.0,0,1024,0.0,0.0
87,53.0,0,1024,3.0,0.0
88,60.0,512,1024,2.0,0.0
89,67.0,512,512,1.0,0.0
90,65.0,512,1024,1.0,0.0
91,67.0,0,1024,0.0,0.0
92,48.0,0,1024,3.0,0.0
93,58.0,0,1024,2.0,0.0
94,64.0,1024,512,1.0,0.0
95,65.0,1024,1024,0.0,0.0
96,57.0,0,1024,2.0,0.0
97,41.0,0,1024,3.0,0.0
98,65.0,0,1024,1.0,0.0
99,72.0,0,1024,0.0,0.0
100,65.0,0,1024,1.0,0.0
101,45.0,512,1024,3.0,0.0
102,60.0,0,1024,2.0,0.0
103,74.0,1024,1024,0.0,0.0
104,58.0,512,512,2.0,0.0
105,65.0,0,1024,1.0,0.0
106,46.0,0,1024,3.0,0.0
107,57.0,0,512,2.0,0.0
108,64.0,0,1024,1.0,0.0
109,72.0,0,1024,0.0,0.0
110,48.0,1024,1024,3.0,0.0
111,55.0,0,1024,2.0,0.0
112,50.0,0,1024,3.0,0.0
113,70.0,0,1024,0.0,0.0
114,65.0,512,1024,1.0,0.0
115,53.0,0,1024,2.0,0.0
116,60.0,512,1536,1.0,0.0
117,60.0,0,1024,2.0,0.0
118,69.0,512,512,0.0,0.0
119,52.0,512,1024,3.0,0.0
120,67.0,0,512,0.0,0.0
121,53.0,0,1024,3.0,0.0
122,60.0,0,1024,2.0,0.0
123,69.0,512,1024,0.0,0.0
124,65.0,512,1024,1.0,0.0
125,48.0,0,1024,3.0,0.0
126,67.0,1024,1024,0.0,0.0
127,58.0,0,1024,2.0,0.0
128,64.0,0,512,1.0,0.0
129,57.0,0,1024,2.0,0.0
130,60.0,512,1024,1.0,0.0
131,65.0,0,1024,0.0,0.0
132,41.0,0,1024,3.0,0.0
133,62.0,0,512,2.0,0.0
134,77.0,0,1024,0.0,0.0
135,70.0,512,512,1.0,0.0
136,50.0,0,1024,3.0,0.0
137,60.0,0,512,2.0,0.0
138,69.0,512,512,1.0,0.0
139,55.0,0,1024,3.0,0.0
140,58.0,512,512,2.0,0.0
141,67.0,0,1024,1.0,0.0
142,75.0,512,1024,0.0,0.0
143,60.0,0,512,2.0,0.0
144,65.0,512,512,1.0,0.0
145,74.0,1024,1024,0.0,0.0
146,62.0,0,512,2.0,0.0
147,58.0,0,1024,3.0,0.0
148,67.0,0,512,1.0,0.0
149,63.0,0,512,2.0,0.0
150,69.0,0,1024,1.0,0.0
151,65.0,512,1024,2.0,0.0
152,51.0,0,1024,3.0,0.0
153,72.0,0,1024,0.0,0.0
154,70.0,512,512,1.0,0.0
155,50.0,0,1024,3.0,0.0
156,65.0,0,1024,2.0,0.0
157,68.0,0,512,1.0,0.0
158,70.0,512,0,0.0,0.0
159,58.0,0,2048,2.0,0.0
160,67.0,0,1024,1.0,0.0
161,51.0,0,1024,3.0,0.0
162,72.0,1024,512,0.0,0.0
163,74.0,0,1024,0.0,0.0
164,46.0,1024,1024,3.0,0.0
165,65.0,0,1024,1.0,0.0
166,65.0,0,1024,1.0,0.0
167,57.0,0,1024,2.0,0.0
168,72.0,1024,1024,0.0,0.0
169,53.0,0,1024,3.0,0.0
170,50.0,0,1024,3.0,0.0
171,74.0,0,1024,0.0,0.0
172,59.0,0,1024,2.0,0.0
173,65.0,1024,1024,1.0,0.0
174,48.0,0,1024,3.0,0.0
175,63.0,0,1024,1.0,0.0
176,75.0,512,1024,0.0,0.0
177,60.0,512,1536,2.0,0.0
178,74.0,0,1024,0.0,0.0
179,68.0,0,512,1.0,0.0
180,53.0,0,512,3.0,0.0
181,67.0,512,1024,1.0,0.0
182,55.0,0,512,3.0,0.0
183,59.0,512,512,2.0,0.0
184,56.0,1024,1024,3.0,0.0
185,60.0,0,1024,2.0,0.0
186,72.0,0,1024,0.0,0.0
187,65.0,0,512,1.0,0.0
188,67.0,3072,1024,1.0,0.0
189,55.0,0,1024,3.0,0.0
190,71.0,0,1024,0.0,0.0
191,62.0,0,1024,2.0,0.0
192,72.0,0,3072,0.0,0.0
193,63.0,1024,3072,2.0,0.0
194,67.0,0,3072,1.0,0.0
195,48.0,0,3072,3.0,0.0
196,65.0,1024,1024,0.0,0.0
197,51.0,0,1024,3.0,0.0
198,57.0,0,1024,2.0,0.0
199,60.0,0,1024,1.0,0.0
200,70.0,512,1024,0.0,0.0
201,65.0,0,1024,1.0,0.0
202,50.0,0,1024,3.0,0.0
203,58.0,0,1024,2.0,0.0
204,67.0,512,512,1.0,0.0
205,72.0,0,1024,0.0,0.0
206,51.0,0,1024,2.0,0.0
207,48.0,0,1024,3.0,0.0
208,69.0,512,512,1.0,0.0
209,46.0,0,1024,3.0,0.0
210,53.0,512,512,2.0,0.0
211,70.0,0,1024,1.0,0.0
212,74.0,512,1024,0.0,0.0
213,65.0,0,512,2.0,0.0
214,63.0,512,1536,2.0,0.0
215,69.0,512,512,1.0,0.0
216,48.0,512,1024,3.0,0.0
217,75.0,0,1024,0.0,0.0
218,67.0,0,512,1.0,0.0
219,77.0,0,1024,0.0,0.0
220,50.0,0,1024,3.0,0.0
221,65.0,0,1024,1.0,0.0
222,62.0,512,512,2.0,0.0
223,75.0,0,512,0.0,0.0
224,67.0,0,1024,1.0,0.0
225,51.0,0,1024,3.0,0.0
226,60.0,512,512,2.0,0.0
227,74.0,0,512,0.0,0.0
228,58.0,1024,512,2.0,0.0
229,53.0,0,1024,3.0,0.0
230,72.0,1024,1024,0.0,0.0
231,69.0,0,1024,1.0,0.0
232,65.0,0,1024,2.0,0.0
233,70.0,0,1024,1.0,0.0
234,55.0,1024,1024,3.0,0.0
235,75.0,0,1024,0.0,0.0
236,58.0,0,0,2.0,0.0
237,68.0,0,1024,1.0,0.0
238,74.0,512,1024,0.0,0.0
239,53.0,0,1024,3.0,0.0
240,51.0,0,2048,3.0,0.0
241,72.0,0,1024,0.0,0.0
242,67.0,0,1024,1.0,0.0
243,60.0,1024,512,2.0,0.0
244,77.0,0,1024,0.0,0.0
245,65.0,512,1024,1.0,0.0
246,57.0,0,1024,2.0,0.0
247,50.0,0,512,3.0,0.0
248,70.0,0,512,0.0,0.0
249,65.0,512,512,1.0,0.0
250,72.0,0,512,0.0,0.0
251,51.0,0,512,3.0,0.0
252,67.0,512,512,1.0,0.0
253,58.0,0,0,2.0,0.0
254,74.0,0,1024,0.0,0.0
255,53.0,512,1024,3.0,0.0
256,65.0,512,512,1.0,0.0
257,63.0,512,1024,1.0,0.0
258,72.0,2048,1024,0.0,0.0
259,57.0,0,1024,2.0,0.0
260,41.0,0,1024,3.0,0.0
261,53.0,0,2048,2.0,0.0
262,46.0,0,2048,3.0,0.0
263,62.0,0,0,1.0,0.0
264,70.0,1,2048,0.0,0.0
