tick,type,numerator,denominator,clocks_per_click,notated_32nd_notes_per_beat,time,meta,track,key,tempo,note,velocity,channel
0,time_signature,4,4,24,8,0,1,0,,,,,
0,note_on,,,,,0,0,3,,,46,96,2
0,track_name,,,,,0,1,2,,,,,
0,track_name,,,,,0,1,1,,,,,
0,track_name,,,,,0,1,3,,,,,
0,key_signature,,,,,0,1,0,Bb,,,,
0,set_tempo,,,,,0,1,0,,555555,,,
1024,note_on,,,,,1024,0,2,,,62,96,1
2048,note_off,,,,,1024,0,2,,,62,0,1
2048,note_on,,,,,0,0,2,,,62,96,1
2048,note_off,,,,,2048,0,3,,,46,0,2
3072,note_off,,,,,1024,0,2,,,62,0,1
3072,note_on,,,,,1024,0,3,,,58,96,2
3072,note_on,,,,,0,0,2,,,65,96,1
3328,note_off,,,,,256,0,2,,,65,0,1
3328,note_on,,,,,0,0,2,,,63,96,1
3584,note_off,,,,,256,0,2,,,63,0,1
3584,note_on,,,,,0,0,2,,,62,96,1
3840,note_on,,,,,0,0,2,,,63,96,1
3840,note_off,,,,,256,0,2,,,62,0,1
4096,note_on,,,,,0,0,3,,,58,96,2
4096,note_off,,,,,1024,0,3,,,58,0,2
4096,note_on,,,,,0,0,2,,,62,96,1
4096,note_off,,,,,256,0,2,,,63,0,1
5120,note_off,,,,,1024,0,3,,,58,0,2
5120,note_on,,,,,0,0,3,,,62,96,2
5632,note_on,,,,,0,0,2,,,58,96,1
5632,note_off,,,,,1536,0,2,,,62,0,1
6144,note_on,,,,,0,0,3,,,58,96,2
6144,note_off,,,,,512,0,2,,,58,0,1
6144,note_on,,,,,0,0,2,,,67,96,1
6144,note_off,,,,,1024,0,3,,,62,0,2
6656,note_off,,,,,512,0,2,,,67,0,1
6656,note_on,,,,,0,0,2,,,62,96,1
7168,note_off,,,,,512,0,2,,,62,0,1
7168,note_on,,,,,0,0,2,,,70,96,1
7680,note_off,,,,,512,0,2,,,70,0,1
7680,note_on,,,,,0,0,2,,,62,96,1
8192,note_off,,,,,512,0,2,,,62,0,1
8192,note_on,,,,,0,0,2,,,64,96,1
8704,note_off,,,,,512,0,2,,,64,0,1
8704,note_on,,,,,0,0,2,,,60,96,1
8960,note_off,,,,,256,0,2,,,60,0,1
8960,note_on,,,,,0,0,2,,,55,96,1
9216,note_off,,,,,256,0,2,,,55,0,1
9216,note_on,,,,,0,0,2,,,48,96,1
9216,note_on,,,,,0,0,3,,,56,96,2
9216,note_off,,,,,3072,0,3,,,58,0,2
9728,note_off,,,,,512,0,3,,,56,0,2
9728,note_off,,,,,512,0,2,,,48,0,1
9728,note_on,,,,,0,0,2,,,60,96,1
9728,note_on,,,,,0,0,3,,,55,96,2
10240,note_off,,,,,512,0,3,,,55,0,2
10240,note_on,,,,,0,0,3,,,56,96,2
10240,note_off,,,,,512,0,2,,,60,0,1
10240,note_on,,,,,0,0,2,,,65,96,1
10752,note_off,,,,,512,0,2,,,65,0,1
10752,note_on,,,,,0,0,2,,,60,96,1
11264,note_off,,,,,512,0,2,,,60,0,1
11264,note_on,,,,,0,0,2,,,68,96,1
11776,note_off,,,,,512,0,2,,,68,0,1
11776,note_on,,,,,0,0,2,,,60,96,1
12288,note_off,,,,,512,0,2,,,60,0,1
12288,note_on,,,,,0,0,2,,,62,96,1
12800,note_off,,,,,512,0,2,,,62,0,1
12800,note_on,,,,,0,0,2,,,58,96,1
13056,note_off,,,,,256,0,2,,,58,0,1
13056,note_on,,,,,0,0,2,,,53,96,1
13312,note_off,,,,,256,0,2,,,53,0,1
13312,note_on,,,,,0,0,2,,,46,96,1
13312,note_on,,,,,0,0,3,,,55,96,2
13312,note_off,,,,,3072,0,3,,,56,0,2
13824,note_off,,,,,512,0,2,,,46,0,1
13824,note_on,,,,,0,0,2,,,58,96,1
13824,note_on,,,,,0,0,3,,,53,96,2
13824,note_off,,,,,512,0,3,,,55,0,2
14336,note_on,,,,,0,0,2,,,63,96,1
14336,note_off,,,,,512,0,2,,,58,0,1
14336,note_on,,,,,0,0,3,,,55,96,2
14336,note_off,,,,,512,0,3,,,53,0,2
14848,note_off,,,,,512,0,2,,,63,0,1
14848,note_on,,,,,0,0,2,,,58,96,1
15360,note_off,,,,,1024,0,3,,,55,0,2
15360,note_off,,,,,512,0,2,,,58,0,1
15360,note_on,,,,,0,0,2,,,67,96,1
15872,note_off,,,,,512,0,2,,,67,0,1
15872,note_on,,,,,0,0,2,,,58,96,1
16384,note_off,,,,,512,0,2,,,58,0,1
16384,note_on,,,,,1024,0,3,,,57,96,2
16384,note_on,,,,,0,0,2,,,60,96,1
16896,note_off,,,,,512,0,2,,,60,0,1
16896,note_on,,,,,0,0,2,,,53,96,1
17408,note_off,,,,,1024,0,3,,,57,0,2
17408,note_off,,,,,512,0,2,,,53,0,1
17408,note_on,,,,,0,0,2,,,63,96,1
17920,note_off,,,,,512,0,2,,,63,0,1
17920,note_on,,,,,0,0,2,,,60,96,1
18432,note_on,,,,,0,0,2,,,62,96,1
18432,note_on,,,,,1024,0,3,,,58,96,2
18432,note_off,,,,,512,0,2,,,60,0,1
18944,note_on,,,,,0,0,2,,,58,96,1
18944,note_off,,,,,512,0,2,,,62,0,1
19456,note_on,,,,,0,0,2,,,65,96,1
19456,note_off,,,,,512,0,2,,,58,0,1
19456,note_on,,,,,0,0,3,,,46,96,2
19456,note_off,,,,,1024,0,3,,,58,0,2
19968,note_on,,,,,0,0,2,,,58,96,1
19968,note_off,,,,,512,0,2,,,65,0,1
20480,note_off,,,,,512,0,2,,,58,0,1
20480,note_on,,,,,0,0,2,,,60,96,1
20480,note_on,,,,,0,0,3,,,53,96,2
20480,note_off,,,,,1024,0,3,,,46,0,2
20736,note_off,,,,,256,0,2,,,60,0,1
20736,note_on,,,,,0,0,2,,,58,96,1
20992,note_on,,,,,0,0,2,,,57,96,1
20992,note_off,,,,,256,0,2,,,58,0,1
21248,note_on,,,,,0,0,2,,,55,96,1
21248,note_off,,,,,256,0,2,,,57,0,1
21504,note_off,,,,,256,0,2,,,55,0,1
21504,note_on,,,,,0,0,3,,,57,96,2
21504,note_on,,,,,0,0,2,,,53,96,1
21504,note_off,,,,,1024,0,3,,,53,0,2
22016,note_off,,,,,512,0,2,,,53,0,1
22016,note_on,,,,,0,0,2,,,60,96,1
22528,note_on,,,,,0,0,3,,,53,96,2
22528,note_off,,,,,512,0,2,,,60,0,1
22528,note_on,,,,,0,0,2,,,63,96,1
22528,note_off,,,,,1024,0,3,,,57,0,2
23040,note_off,,,,,512,0,2,,,63,0,1
23040,note_on,,,,,0,0,2,,,60,96,1
23552,note_off,,,,,512,0,2,,,60,0,1
23552,note_on,,,,,0,0,2,,,69,96,1
24064,note_on,,,,,0,0,2,,,60,96,1
24064,note_off,,,,,512,0,2,,,69,0,1
24576,note_off,,,,,512,0,2,,,60,0,1
24576,note_on,,,,,0,0,2,,,62,96,1
24832,note_on,,,,,0,0,2,,,60,96,1
24832,note_off,,,,,256,0,2,,,62,0,1
25088,note_on,,,,,0,0,2,,,58,96,1
25088,note_off,,,,,256,0,2,,,60,0,1
25344,note_off,,,,,256,0,2,,,58,0,1
25344,note_on,,,,,0,0,2,,,57,96,1
25600,note_on,,,,,0,0,3,,,62,96,2
25600,note_off,,,,,256,0,2,,,57,0,1
25600,note_off,,,,,3072,0,3,,,53,0,2
25600,note_on,,,,,0,0,2,,,58,96,1
26112,note_off,,,,,512,0,2,,,58,0,1
26112,note_on,,,,,0,0,2,,,62,96,1
26624,note_off,,,,,1024,0,3,,,62,0,2
26624,note_off,,,,,512,0,2,,,62,0,1
26624,note_on,,,,,0,0,2,,,65,96,1
26624,note_on,,,,,0,0,3,,,53,96,2
27136,note_off,,,,,512,0,2,,,65,0,1
27136,note_on,,,,,0,0,2,,,62,96,1
27648,note_on,,,,,0,0,2,,,70,96,1
27648,note_off,,,,,512,0,2,,,62,0,1
28160,note_on,,,,,0,0,2,,,62,96,1
28160,note_off,,,,,512,0,2,,,70,0,1
28672,note_on,,,,,0,0,2,,,63,96,1
28672,note_off,,,,,512,0,2,,,62,0,1
28928,note_off,,,,,256,0,2,,,63,0,1
28928,note_on,,,,,0,0,2,,,62,96,1
29184,note_on,,,,,0,0,2,,,60,96,1
29184,note_off,,,,,256,0,2,,,62,0,1
29440,note_on,,,,,0,0,2,,,58,96,1
29440,note_off,,,,,256,0,2,,,60,0,1
29696,note_off,,,,,3072,0,3,,,53,0,2
29696,note_on,,,,,0,0,3,,,60,96,2
29696,note_on,,,,,0,0,2,,,60,96,1
29696,note_off,,,,,256,0,2,,,58,0,1
30208,note_off,,,,,512,0,2,,,60,0,1
30208,note_on,,,,,0,0,2,,,63,96,1
30720,note_off,,,,,1024,0,3,,,60,0,2
30720,note_on,,,,,0,0,3,,,53,96,2
30720,note_off,,,,,512,0,2,,,63,0,1
30720,note_on,,,,,0,0,2,,,69,96,1
31232,note_off,,,,,512,0,2,,,69,0,1
31232,note_on,,,,,0,0,2,,,63,96,1
31744,note_off,,,,,512,0,2,,,63,0,1
31744,note_on,,,,,0,0,2,,,72,96,1
32256,note_on,,,,,0,0,2,,,63,96,1
32256,note_off,,,,,512,0,2,,,72,0,1
32768,note_off,,,,,512,0,2,,,63,0,1
32768,note_on,,,,,0,0,2,,,65,96,1
33024,note_off,,,,,256,0,2,,,65,0,1
33024,note_on,,,,,0,0,2,,,63,96,1
33280,note_off,,,,,256,0,2,,,63,0,1
33280,note_on,,,,,0,0,2,,,62,96,1
33536,note_off,,,,,256,0,2,,,62,0,1
33536,note_on,,,,,0,0,2,,,60,96,1
33792,note_on,,,,,0,0,3,,,58,96,2
33792,note_off,,,,,3072,0,3,,,53,0,2
33792,note_off,,,,,256,0,2,,,60,0,1
33792,note_on,,,,,0,0,2,,,62,96,1
34304,note_off,,,,,512,0,2,,,62,0,1
34304,note_on,,,,,0,0,2,,,65,96,1
34816,note_on,,,,,0,0,2,,,70,96,1
34816,note_off,,,,,512,0,2,,,65,0,1
34816,note_off,,,,,1024,0,3,,,58,0,2
34816,note_on,,,,,0,0,3,,,55,96,2
35072,note_off,,,,,256,0,2,,,70,0,1
35072,note_on,,,,,0,0,2,,,62,96,1
35328,note_off,,,,,256,0,2,,,62,0,1
35328,note_on,,,,,0,0,2,,,70,96,1
35584,note_off,,,,,256,0,2,,,70,0,1
35584,note_on,,,,,0,0,2,,,62,96,1
35840,note_off,,,,,1024,0,3,,,55,0,2
35840,note_off,,,,,256,0,2,,,62,0,1
35840,note_on,,,,,0,0,2,,,60,96,1
35840,note_on,,,,,0,0,3,,,51,96,2
36096,note_off,,,,,256,0,2,,,60,0,1
36096,note_on,,,,,0,0,2,,,70,96,1
36352,note_off,,,,,256,0,2,,,70,0,1
36352,note_on,,,,,0,0,2,,,60,96,1
36352,note_on,,,,,0,0,3,,,48,96,2
36352,note_off,,,,,512,0,3,,,51,0,2
36608,note_off,,,,,256,0,2,,,60,0,1
36608,note_on,,,,,0,0,2,,,70,96,1
36864,note_on,,,,,0,0,2,,,69,96,1
36864,note_on,,,,,0,0,3,,,53,96,2
36864,note_off,,,,,256,0,2,,,70,0,1
36864,note_off,,,,,512,0,3,,,48,0,2
37120,note_on,,,,,0,0,2,,,60,96,1
37120,note_off,,,,,256,0,2,,,69,0,1
37376,note_on,,,,,0,0,2,,,69,96,1
37376,note_off,,,,,256,0,2,,,60,0,1
37632,note_on,,,,,0,0,2,,,60,96,1
37632,note_off,,,,,256,0,2,,,69,0,1
37888,note_off,,,,,256,0,2,,,60,0,1
37888,note_off,,,,,1024,0,3,,,53,0,2
37888,note_on,,,,,0,0,3,,,50,96,2
37888,note_on,,,,,0,0,2,,,58,96,1
38144,note_on,,,,,0,0,2,,,68,96,1
38144,note_off,,,,,256,0,2,,,58,0,1
38400,note_off,,,,,256,0,2,,,68,0,1
38400,note_on,,,,,0,0,3,,,46,96,2
38400,note_off,,,,,512,0,3,,,50,0,2
38400,note_on,,,,,0,0,2,,,58,96,1
38656,note_on,,,,,0,0,2,,,68,96,1
38656,note_off,,,,,256,0,2,,,58,0,1
38912,note_off,,,,,256,0,2,,,68,0,1
38912,note_on,,,,,0,0,3,,,51,96,2
38912,note_off,,,,,512,0,3,,,46,0,2
38912,note_on,,,,,0,0,2,,,67,96,1
39168,note_on,,,,,0,0,2,,,58,96,1
39168,note_off,,,,,256,0,2,,,67,0,1
39424,note_off,,,,,256,0,2,,,58,0,1
39424,note_on,,,,,0,0,2,,,67,96,1
39680,note_off,,,,,256,0,2,,,67,0,1
39680,note_on,,,,,0,0,2,,,58,96,1
39936,note_on,,,,,0,0,3,,,48,96,2
39936,note_off,,,,,1024,0,3,,,51,0,2
39936,note_off,,,,,256,0,2,,,58,0,1
39936,note_on,,,,,0,0,2,,,57,96,1
40192,note_off,,,,,256,0,2,,,57,0,1
40192,note_on,,,,,0,0,2,,,67,96,1
40448,note_off,,,,,256,0,2,,,67,0,1
40448,note_on,,,,,0,0,3,,,45,96,2
40448,note_off,,,,,512,0,3,,,48,0,2
40448,note_on,,,,,0,0,2,,,57,96,1
40704,note_on,,,,,0,0,2,,,67,96,1
40704,note_off,,,,,256,0,2,,,57,0,1
40960,note_on,,,,,0,0,2,,,65,96,1
40960,note_off,,,,,256,0,2,,,67,0,1
40960,note_on,,,,,0,0,3,,,50,96,2
40960,note_off,,,,,512,0,3,,,45,0,2
41216,note_on,,,,,0,0,2,,,57,96,1
41216,note_off,,,,,256,0,2,,,65,0,1
41472,note_on,,,,,0,0,2,,,65,96,1
41472,note_off,,,,,256,0,2,,,57,0,1
41728,note_off,,,,,256,0,2,,,65,0,1
41728,note_on,,,,,0,0,2,,,57,96,1
41984,note_off,,,,,1024,0,3,,,50,0,2
41984,note_on,,,,,0,0,3,,,46,96,2
41984,note_off,,,,,256,0,2,,,57,0,1
41984,note_on,,,,,0,0,2,,,55,96,1
42240,note_off,,,,,256,0,2,,,55,0,1
42240,note_on,,,,,0,0,2,,,58,96,1
42496,note_off,,,,,512,0,3,,,46,0,2
42496,note_off,,,,,256,0,2,,,58,0,1
42496,note_on,,,,,0,0,3,,,43,96,2
42496,note_on,,,,,0,0,2,,,60,96,1
42752,note_off,,,,,256,0,2,,,60,0,1
42752,note_on,,,,,0,0,2,,,62,96,1
43008,note_off,,,,,256,0,2,,,62,0,1
43008,note_on,,,,,0,0,2,,,63,96,1
43008,note_off,,,,,512,0,3,,,43,0,2
43008,note_on,,,,,0,0,3,,,48,96,2
43264,note_off,,,,,256,0,2,,,63,0,1
43264,note_on,,,,,0,0,2,,,55,96,1
43520,note_off,,,,,256,0,2,,,55,0,1
43520,note_on,,,,,0,0,2,,,63,96,1
43776,note_off,,,,,256,0,2,,,63,0,1
43776,note_on,,,,,0,0,2,,,55,96,1
44032,note_on,,,,,0,0,3,,,45,96,2
44032,note_off,,,,,1024,0,3,,,48,0,2
44032,note_off,,,,,256,0,2,,,55,0,1
44032,note_on,,,,,0,0,2,,,53,96,1
44288,note_off,,,,,256,0,2,,,53,0,1
44288,note_on,,,,,0,0,2,,,63,96,1
44544,note_on,,,,,0,0,3,,,41,96,2
44544,note_on,,,,,0,0,2,,,53,96,1
44544,note_off,,,,,512,0,3,,,45,0,2
44544,note_off,,,,,256,0,2,,,63,0,1
44800,note_off,,,,,256,0,2,,,53,0,1
44800,note_on,,,,,0,0,2,,,63,96,1
45056,note_off,,,,,512,0,3,,,41,0,2
45056,note_off,,,,,256,0,2,,,63,0,1
45056,note_on,,,,,0,0,2,,,62,96,1
45056,note_on,,,,,0,0,3,,,46,96,2
45312,note_off,,,,,256,0,2,,,62,0,1
45312,note_on,,,,,0,0,2,,,53,96,1
45568,note_off,,,,,256,0,2,,,53,0,1
45568,note_on,,,,,0,0,2,,,62,96,1
45824,note_on,,,,,0,0,2,,,53,96,1
45824,note_off,,,,,256,0,2,,,62,0,1
46080,note_on,,,,,0,0,2,,,51,96,1
46080,note_off,,,,,1024,0,3,,,46,0,2
46080,note_off,,,,,256,0,2,,,53,0,1
46080,note_on,,,,,0,0,3,,,43,96,2
46336,note_off,,,,,256,0,2,,,51,0,1
46336,note_on,,,,,0,0,2,,,62,96,1
46592,note_off,,,,,256,0,2,,,62,0,1
46592,note_on,,,,,0,0,2,,,51,96,1
46848,note_off,,,,,256,0,2,,,51,0,1
46848,note_on,,,,,0,0,2,,,62,96,1
47104,note_on,,,,,0,0,3,,,45,96,2
47104,note_off,,,,,1024,0,3,,,43,0,2
47104,note_on,,,,,0,0,2,,,51,96,1
47104,note_off,,,,,256,0,2,,,62,0,1
47360,note_on,,,,,0,0,2,,,60,96,1
47360,note_off,,,,,256,0,2,,,51,0,1
47616,note_on,,,,,0,0,2,,,51,96,1
47616,note_off,,,,,256,0,2,,,60,0,1
47872,note_off,,,,,256,0,2,,,51,0,1
47872,note_on,,,,,0,0,2,,,60,96,1
48128,note_off,,,,,1024,0,3,,,45,0,2
48128,note_on,,,,,0,0,3,,,48,96,2
48128,note_on,,,,,0,0,2,,,51,96,1
48128,note_off,,,,,256,0,2,,,60,0,1
48384,note_off,,,,,256,0,2,,,51,0,1
48384,note_on,,,,,0,0,2,,,58,96,1
48640,note_on,,,,,0,0,2,,,51,96,1
48640,note_off,,,,,256,0,2,,,58,0,1
48896,note_on,,,,,0,0,2,,,58,96,1
48896,note_off,,,,,256,0,2,,,51,0,1
49152,note_on,,,,,0,0,2,,,51,96,1
49152,note_off,,,,,256,0,2,,,58,0,1
49152,note_on,,,,,0,0,3,,,41,96,2
49152,note_off,,,,,1024,0,3,,,48,0,2
49408,note_off,,,,,256,0,2,,,51,0,1
49408,note_on,,,,,0,0,2,,,57,96,1
49664,note_off,,,,,256,0,2,,,57,0,1
49664,note_on,,,,,0,0,2,,,50,96,1
49920,note_off,,,,,256,0,2,,,50,0,1
49920,note_on,,,,,0,0,2,,,57,96,1
50176,note_on,,,,,0,0,2,,,51,96,1
50176,note_off,,,,,256,0,2,,,57,0,1
50432,note_off,,,,,256,0,2,,,51,0,1
50432,note_on,,,,,0,0,2,,,57,96,1
50688,note_off,,,,,256,0,2,,,57,0,1
50688,note_on,,,,,0,0,2,,,55,96,1
50944,note_on,,,,,0,0,2,,,57,96,1
50944,note_off,,,,,256,0,2,,,55,0,1
51200,note_off,,,,,2048,0,3,,,41,0,2
51200,note_on,,,,,0,0,2,,,53,96,1
51200,note_off,,,,,256,0,2,,,57,0,1
51456,note_on,,,,,0,0,2,,,57,96,1
51456,note_off,,,,,256,0,2,,,53,0,1
51712,note_on,,,,,0,0,2,,,51,96,1
51712,note_off,,,,,256,0,2,,,57,0,1
51968,note_on,,,,,0,0,2,,,57,96,1
51968,note_off,,,,,256,0,2,,,51,0,1
52224,note_on,,,,,0,0,2,,,50,96,1
52224,note_on,,,,,1024,0,3,,,53,96,2
52224,note_off,,,,,256,0,2,,,57,0,1
52480,note_on,,,,,0,0,2,,,57,96,1
52480,note_off,,,,,256,0,2,,,50,0,1
52736,note_on,,,,,0,0,2,,,51,96,1
52736,note_off,,,,,256,0,2,,,57,0,1
52992,note_on,,,,,0,0,2,,,57,96,1
52992,note_off,,,,,256,0,2,,,51,0,1
53248,note_off,,,,,256,0,2,,,57,0,1
53248,note_off,,,,,1024,0,3,,,53,0,2
53248,note_on,,,,,0,0,3,,,58,96,2
53248,note_on,,,,,0,0,2,,,50,96,1
53504,note_off,,,,,256,0,2,,,50,0,1
53504,note_on,,,,,0,0,2,,,53,96,1
53760,note_off,,,,,256,0,2,,,53,0,1
53760,note_on,,,,,0,0,2,,,55,96,1
54016,note_off,,,,,256,0,2,,,55,0,1
54016,note_on,,,,,0,0,2,,,57,96,1
54272,note_off,,,,,256,0,2,,,57,0,1
54272,note_on,,,,,0,0,2,,,58,96,1
54272,note_on,,,,,0,0,3,,,55,96,2
54272,note_off,,,,,1024,0,3,,,58,0,2
54528,note_off,,,,,256,0,2,,,58,0,1
54528,note_on,,,,,0,0,2,,,60,96,1
54784,note_off,,,,,256,0,2,,,60,0,1
54784,note_off,,,,,512,0,3,,,55,0,2
54784,note_on,,,,,0,0,3,,,51,96,2
54784,note_on,,,,,0,0,2,,,62,96,1
55040,note_on,,,,,0,0,2,,,63,96,1
55040,note_off,,,,,256,0,2,,,62,0,1
55296,note_on,,,,,0,0,3,,,50,96,2
55296,note_on,,,,,0,0,2,,,65,96,1
55296,note_off,,,,,256,0,2,,,63,0,1
55296,note_off,,,,,512,0,3,,,51,0,2
55808,note_on,,,,,0,0,2,,,62,96,1
55808,note_off,,,,,512,0,2,,,65,0,1
56064,note_on,,,,,0,0,2,,,58,96,1
56064,note_off,,,,,256,0,2,,,62,0,1
56320,note_off,,,,,1024,0,3,,,50,0,2
56320,note_on,,,,,0,0,3,,,53,96,2
56320,note_on,,,,,0,0,2,,,53,96,1
56320,note_off,,,,,256,0,2,,,58,0,1
56832,note_on,,,,,0,0,2,,,57,96,1
56832,note_off,,,,,512,0,2,,,53,0,1
57344,note_off,,,,,1024,0,3,,,53,0,2
57344,note_on,,,,,0,0,3,,,46,96,2
57344,note_on,,,,,0,0,2,,,46,96,1
57344,note_off,,,,,512,0,2,,,57,0,1
58368,note_on,,,,,0,0,2,,,62,96,1
58368,note_off,,,,,1024,0,2,,,46,0,1
58368,note_off,,,,,1024,0,3,,,46,0,2
59392,note_on,,,,,59392,0,1,,,74,96,0
59392,note_off,,,,,1024,0,2,,,62,0,1
59392,note_on,,,,,0,0,2,,,62,96,1
60416,note_on,,,,,0,0,2,,,65,96,1
60416,note_on,,,,,2048,0,3,,,58,96,2
60416,note_off,,,,,1024,0,2,,,62,0,1
60672,note_off,,,,,256,0,2,,,65,0,1
60672,note_on,,,,,0,0,2,,,63,96,1
60928,note_on,,,,,0,0,2,,,62,96,1
60928,note_off,,,,,256,0,2,,,63,0,1
61184,note_off,,,,,256,0,2,,,62,0,1
61184,note_on,,,,,0,0,2,,,63,96,1
61440,note_off,,,,,1024,0,3,,,58,0,2
61440,note_on,,,,,0,0,3,,,58,96,2
61440,note_on,,,,,0,0,1,,,74,96,0
61440,note_off,,,,,256,0,2,,,63,0,1
61440,note_off,,,,,2048,0,1,,,74,0,0
61440,note_on,,,,,0,0,2,,,62,96,1
62464,note_off,,,,,1024,0,3,,,58,0,2
62464,note_on,,,,,0,0,3,,,62,96,2
62976,note_off,,,,,1536,0,2,,,62,0,1
62976,note_on,,,,,0,0,2,,,58,96,1
63488,note_off,,,,,2048,0,1,,,74,0,0
63488,note_on,,,,,0,0,1,,,77,96,0
63488,note_off,,,,,1024,0,3,,,62,0,2
63488,note_on,,,,,0,0,2,,,62,96,1
63488,note_off,,,,,512,0,2,,,58,0,1
63488,note_on,,,,,0,0,3,,,58,96,2
64000,note_off,,,,,512,0,2,,,62,0,1
64000,note_on,,,,,0,0,2,,,58,96,1
64512,note_off,,,,,1024,0,3,,,58,0,2
64512,note_on,,,,,0,0,3,,,56,96,2
64512,note_off,,,,,512,0,2,,,58,0,1
64512,note_on,,,,,0,0,2,,,65,96,1
65024,note_off,,,,,512,0,3,,,56,0,2
65024,note_off,,,,,512,0,2,,,65,0,1
65024,note_on,,,,,0,0,3,,,55,96,2
65024,note_on,,,,,0,0,2,,,58,96,1
65536,note_off,,,,,2048,0,1,,,77,0,0
65536,note_on,,,,,0,0,1,,,74,96,0
65536,note_off,,,,,512,0,3,,,55,0,2
65536,note_on,,,,,0,0,2,,,58,96,1
65536,note_on,,,,,0,0,3,,,56,96,2
65536,note_off,,,,,512,0,2,,,58,0,1
66048,note_on,,,,,0,0,2,,,53,96,1
66048,note_off,,,,,512,0,2,,,58,0,1
66304,note_on,,,,,0,0,2,,,50,96,1
66304,note_off,,,,,256,0,2,,,53,0,1
66560,note_off,,,,,1024,0,3,,,56,0,2
66560,note_on,,,,,0,0,3,,,55,96,2
66560,note_off,,,,,256,0,2,,,50,0,1
66560,note_on,,,,,0,0,2,,,46,96,1
67072,note_on,,,,,0,0,3,,,53,96,2
67072,note_off,,,,,512,0,3,,,55,0,2
67072,note_off,,,,,512,0,2,,,46,0,1
67072,note_on,,,,,0,0,2,,,65,96,1
67584,note_on,,,,,0,0,3,,,55,96,2
67584,note_off,,,,,512,0,3,,,53,0,2
67584,note_on,,,,,0,0,1,,,70,96,0
67584,note_off,,,,,2048,0,1,,,74,0,0
68096,note_off,,,,,1024,0,2,,,65,0,1
68096,note_on,,,,,0,0,2,,,58,96,1
68608,note_off,,,,,1024,0,3,,,55,0,2
68608,note_on,,,,,0,0,3,,,51,96,2
68608,note_off,,,,,512,0,2,,,58,0,1
68608,note_on,,,,,0,0,2,,,67,96,1
69120,note_off,,,,,512,0,2,,,67,0,1
69120,note_on,,,,,0,0,2,,,63,96,1
69632,note_off,,,,,512,0,2,,,63,0,1
69632,note_on,,,,,0,0,2,,,60,96,1
69632,note_on,,,,,0,0,3,,,56,96,2
69632,note_off,,,,,2048,0,1,,,70,0,0
69632,note_on,,,,,0,0,1,,,72,96,0
69632,note_off,,,,,1024,0,3,,,51,0,2
70144,note_off,,,,,512,0,2,,,60,0,1
70144,note_on,,,,,0,0,2,,,56,96,1
70400,note_on,,,,,0,0,2,,,53,96,1
70400,note_off,,,,,256,0,2,,,56,0,1
70656,note_on,,,,,0,0,3,,,53,96,2
70656,note_off,,,,,256,0,2,,,53,0,1
70656,note_off,,,,,1024,0,3,,,56,0,2
70656,note_on,,,,,0,0,2,,,44,96,1
71168,note_off,,,,,512,0,2,,,44,0,1
71168,note_on,,,,,0,0,2,,,68,96,1
71680,note_off,,,,,2048,0,1,,,72,0,0
71680,note_on,,,,,0,0,1,,,74,96,0
71680,note_on,,,,,0,0,3,,,58,96,2
71680,note_off,,,,,1024,0,3,,,53,0,2
72192,note_on,,,,,0,0,2,,,65,96,1
72192,note_off,,,,,1024,0,2,,,68,0,1
72704,note_on,,,,,0,0,2,,,70,96,1
72704,note_off,,,,,512,0,2,,,65,0,1
72704,note_on,,,,,0,0,3,,,46,96,2
72704,note_off,,,,,1024,0,3,,,58,0,2
73216,note_on,,,,,0,0,2,,,65,96,1
73216,note_off,,,,,512,0,2,,,70,0,1
73728,note_on,,,,,0,0,2,,,67,96,1
73728,note_off,,,,,1024,0,3,,,46,0,2
73728,note_off,,,,,512,0,2,,,65,0,1
73728,note_off,,,,,2048,0,1,,,74,0,0
73728,note_on,,,,,0,0,1,,,75,96,0
73728,note_on,,,,,0,0,3,,,51,96,2
74240,note_off,,,,,512,0,2,,,67,0,1
74240,note_on,,,,,0,0,2,,,63,96,1
74496,note_off,,,,,256,0,2,,,63,0,1
74496,note_on,,,,,0,0,2,,,58,96,1
74752,note_on,,,,,0,0,2,,,51,96,1
74752,note_off,,,,,256,0,2,,,58,0,1
74752,note_off,,,,,1024,0,3,,,51,0,2
75264,note_off,,,,,512,0,2,,,51,0,1
75264,note_on,,,,,0,0,2,,,58,96,1
75776,note_on,,,,,1024,0,3,,,55,96,2
75776,note_off,,,,,512,0,2,,,58,0,1
75776,note_on,,,,,0,0,2,,,63,96,1
76288,note_off,,,,,512,0,2,,,63,0,1
76288,note_on,,,,,0,0,2,,,58,96,1
76800,note_off,,,,,512,0,2,,,58,0,1
76800,note_on,,,,,0,0,2,,,67,96,1
76800,note_off,,,,,1024,0,3,,,55,0,2
77312,note_off,,,,,512,0,2,,,67,0,1
77312,note_on,,,,,0,0,2,,,58,96,1
77824,note_off,,,,,512,0,2,,,58,0,1
77824,note_on,,,,,0,0,2,,,60,96,1
77824,note_off,,,,,4096,0,1,,,75,0,0
77824,note_on,,,,,1024,0,3,,,57,96,2
78336,note_off,,,,,512,0,2,,,60,0,1
78336,note_on,,,,,0,0,2,,,53,96,1
78848,note_on,,,,,0,0,2,,,63,96,1
78848,note_off,,,,,1024,0,3,,,57,0,2
78848,note_off,,,,,512,0,2,,,53,0,1
79360,note_on,,,,,0,0,2,,,60,96,1
79360,note_off,,,,,512,0,2,,,63,0,1
79872,note_on,,,,,0,0,2,,,62,96,1
79872,note_on,,,,,1024,0,3,,,58,96,2
79872,note_off,,,,,512,0,2,,,60,0,1
80384,note_off,,,,,512,0,2,,,62,0,1
80384,note_on,,,,,0,0,2,,,58,96,1
80896,note_on,,,,,0,0,3,,,46,96,2
80896,note_off,,,,,512,0,2,,,58,0,1
80896,note_on,,,,,0,0,2,,,65,96,1
80896,note_off,,,,,1024,0,3,,,58,0,2
81408,note_off,,,,,512,0,2,,,65,0,1
81408,note_on,,,,,0,0,2,,,58,96,1
81920,note_on,,,,,0,0,3,,,53,96,2
81920,note_on,,,,,0,0,2,,,60,96,1
81920,note_off,,,,,512,0,2,,,58,0,1
81920,note_off,,,,,1024,0,3,,,46,0,2
82176,note_off,,,,,256,0,2,,,60,0,1
82176,note_on,,,,,0,0,2,,,58,96,1
82432,note_on,,,,,0,0,2,,,57,96,1
82432,note_off,,,,,256,0,2,,,58,0,1
82688,note_off,,,,,256,0,2,,,57,0,1
82688,note_on,,,,,0,0,2,,,55,96,1
82944,note_on,,,,,0,0,3,,,57,96,2
82944,note_on,,,,,0,0,2,,,53,96,1
82944,note_off,,,,,256,0,2,,,55,0,1
82944,note_off,,,,,1024,0,3,,,53,0,2
83456,note_off,,,,,512,0,2,,,53,0,1
83456,note_on,,,,,0,0,2,,,60,96,1
83968,note_off,,,,,512,0,2,,,60,0,1
83968,note_on,,,,,0,0,2,,,63,96,1
83968,note_off,,,,,1024,0,3,,,57,0,2
83968,note_on,,,,,0,0,3,,,53,96,2
84480,note_off,,,,,512,0,2,,,63,0,1
84480,note_on,,,,,0,0,2,,,60,96,1
84992,note_off,,,,,512,0,2,,,60,0,1
84992,note_on,,,,,0,0,2,,,69,96,1
85504,note_off,,,,,512,0,2,,,69,0,1
85504,note_on,,,,,0,0,2,,,60,96,1
86016,note_off,,,,,512,0,2,,,60,0,1
86016,note_on,,,,,0,0,2,,,62,96,1
86272,note_off,,,,,256,0,2,,,62,0,1
86272,note_on,,,,,0,0,2,,,60,96,1
86528,note_off,,,,,256,0,2,,,60,0,1
86528,note_on,,,,,0,0,2,,,58,96,1
86784,note_on,,,,,0,0,2,,,57,96,1
86784,note_off,,,,,256,0,2,,,58,0,1
87040,note_on,,,,,0,0,3,,,62,96,2
87040,note_off,,,,,3072,0,3,,,53,0,2
87040,note_on,,,,,0,0,2,,,58,96,1
87040,note_off,,,,,256,0,2,,,57,0,1
87552,note_on,,,,,0,0,2,,,62,96,1
87552,note_off,,,,,512,0,2,,,58,0,1
88064,note_off,,,,,512,0,2,,,62,0,1
88064,note_on,,,,,0,0,2,,,65,96,1
88064,note_on,,,,,0,0,3,,,53,96,2
88064,note_off,,,,,1024,0,3,,,62,0,2
88064,note_on,,,,,10240,0,1,,,74,96,0
88576,note_off,,,,,512,0,2,,,65,0,1
88576,note_on,,,,,0,0,2,,,62,96,1
89088,note_on,,,,,0,0,2,,,70,96,1
89088,note_off,,,,,512,0,2,,,62,0,1
89600,note_off,,,,,512,0,2,,,70,0,1
89600,note_on,,,,,0,0,2,,,62,96,1
90112,note_on,,,,,0,0,1,,,72,96,0
90112,note_on,,,,,0,0,2,,,63,96,1
90112,note_off,,,,,2048,0,1,,,74,0,0
90112,note_off,,,,,512,0,2,,,62,0,1
90368,note_off,,,,,256,0,2,,,63,0,1
90368,note_on,,,,,0,0,2,,,62,96,1
90624,note_on,,,,,0,0,2,,,60,96,1
90624,note_off,,,,,256,0,2,,,62,0,1
90880,note_off,,,,,256,0,2,,,60,0,1
90880,note_on,,,,,0,0,2,,,58,96,1
91136,note_on,,,,,0,0,2,,,57,96,1
91136,note_off,,,,,256,0,2,,,58,0,1
91136,note_off,,,,,3072,0,3,,,53,0,2
91136,note_on,,,,,0,0,3,,,54,96,2
91648,note_off,,,,,512,0,2,,,57,0,1
91648,note_on,,,,,0,0,2,,,62,96,1
92160,note_on,,,,,0,0,1,,,70,96,0
92160,note_off,,,,,1024,0,3,,,54,0,2
92160,note_on,,,,,0,0,3,,,55,96,2
92160,note_off,,,,,512,0,2,,,62,0,1
92160,note_on,,,,,0,0,2,,,70,96,1
92160,note_off,,,,,2048,0,1,,,72,0,0
92416,note_off,,,,,256,0,2,,,70,0,1
92416,note_on,,,,,0,0,2,,,62,96,1
92672,note_off,,,,,256,0,2,,,62,0,1
92672,note_on,,,,,0,0,2,,,70,96,1
92928,note_on,,,,,0,0,2,,,62,96,1
92928,note_off,,,,,256,0,2,,,70,0,1
93184,note_off,,,,,1024,0,3,,,55,0,2
93184,note_on,,,,,0,0,3,,,53,96,2
93184,note_on,,,,,0,0,2,,,68,96,1
93184,note_off,,,,,256,0,2,,,62,0,1
93440,note_on,,,,,0,0,2,,,62,96,1
93440,note_off,,,,,256,0,2,,,68,0,1
93696,note_on,,,,,0,0,2,,,68,96,1
93696,note_off,,,,,256,0,2,,,62,0,1
93952,note_off,,,,,256,0,2,,,68,0,1
93952,note_on,,,,,0,0,2,,,62,96,1
94208,note_on,,,,,0,0,3,,,51,96,2
94208,note_off,,,,,1024,0,3,,,53,0,2
94208,note_on,,,,,0,0,1,,,70,96,0
94208,note_off,,,,,2048,0,1,,,70,0,0
94208,note_on,,,,,0,0,2,,,67,96,1
94208,note_off,,,,,256,0,2,,,62,0,1
94464,note_on,,,,,0,0,2,,,63,96,1
94464,note_off,,,,,256,0,2,,,67,0,1
94720,note_on,,,,,0,0,2,,,67,96,1
94720,note_off,,,,,256,0,2,,,63,0,1
94976,note_off,,,,,256,0,2,,,67,0,1
94976,note_on,,,,,0,0,2,,,63,96,1
95232,note_on,,,,,0,0,1,,,72,96,0
95232,note_on,,,,,0,0,3,,,50,96,2
95232,note_off,,,,,1024,0,3,,,51,0,2
95232,note_off,,,,,256,0,2,,,63,0,1
95232,note_on,,,,,0,0,2,,,69,96,1
95232,note_off,,,,,1024,0,1,,,70,0,0
95488,note_off,,,,,256,0,2,,,69,0,1
95488,note_on,,,,,0,0,2,,,63,96,1
95744,note_on,,,,,0,0,3,,,48,96,2
95744,note_off,,,,,512,0,3,,,50,0,2
95744,note_on,,,,,0,0,2,,,69,96,1
95744,note_off,,,,,256,0,2,,,63,0,1
96000,note_on,,,,,0,0,2,,,63,96,1
96000,note_off,,,,,256,0,2,,,69,0,1
96256,note_off,,,,,256,0,2,,,63,0,1
96256,note_on,,,,,0,0,2,,,70,96,1
96256,note_on,,,,,0,0,1,,,74,96,0
96256,note_off,,,,,1024,0,1,,,72,0,0
96256,note_off,,,,,512,0,3,,,48,0,2
96256,note_on,,,,,0,0,3,,,46,96,2
96512,note_off,,,,,256,0,2,,,70,0,1
96512,note_on,,,,,0,0,2,,,69,96,1
96768,note_off,,,,,256,0,2,,,69,0,1
96768,note_on,,,,,0,0,2,,,67,96,1
97024,note_off,,,,,256,0,2,,,67,0,1
97024,note_on,,,,,0,0,2,,,65,96,1
97280,note_off,,,,,1024,0,3,,,46,0,2
97280,note_on,,,,,0,0,3,,,50,96,2
97280,note_on,,,,,0,0,2,,,63,96,1
97280,note_off,,,,,256,0,2,,,65,0,1
97536,note_on,,,,,0,0,2,,,62,96,1
97536,note_off,,,,,256,0,2,,,63,0,1
97792,note_off,,,,,256,0,2,,,62,0,1
97792,note_on,,,,,0,0,2,,,60,96,1
98048,note_on,,,,,0,0,2,,,58,96,1
98048,note_off,,,,,256,0,2,,,60,0,1
98304,note_on,,,,,0,0,3,,,51,96,2
98304,note_on,,,,,0,0,2,,,67,96,1
98304,note_off,,,,,256,0,2,,,58,0,1
98304,note_off,,,,,1024,0,3,,,50,0,2
98304,note_off,,,,,2048,0,1,,,74,0,0
98304,note_on,,,,,0,0,1,,,72,96,0
98560,note_off,,,,,256,0,2,,,67,0,1
98560,note_on,,,,,0,0,2,,,65,96,1
98816,note_off,,,,,256,0,2,,,65,0,1
98816,note_on,,,,,0,0,2,,,63,96,1
99072,note_on,,,,,0,0,2,,,62,96,1
99072,note_off,,,,,256,0,2,,,63,0,1
99328,note_on,,,,,0,0,2,,,60,96,1
99328,note_off,,,,,256,0,2,,,62,0,1
99328,note_on,,,,,0,0,3,,,55,96,2
99328,note_off,,,,,1024,0,1,,,72,0,0
99328,note_on,,,,,0,0,1,,,70,96,0
99328,note_off,,,,,1024,0,3,,,51,0,2
99584,note_off,,,,,256,0,2,,,60,0,1
99584,note_on,,,,,0,0,2,,,58,96,1
99840,note_off,,,,,256,0,2,,,58,0,1
99840,note_on,,,,,0,0,2,,,57,96,1
100096,note_on,,,,,0,0,2,,,55,96,1
100096,note_off,,,,,256,0,2,,,57,0,1
100352,note_on,,,,,0,0,1,,,72,96,0
100352,note_off,,,,,256,0,2,,,55,0,1
100352,note_on,,,,,0,0,2,,,57,96,1
100352,note_off,,,,,1024,0,3,,,55,0,2
100352,note_on,,,,,0,0,3,,,53,96,2
100352,note_off,,,,,1024,0,1,,,70,0,0
100608,note_off,,,,,256,0,2,,,57,0,1
100608,note_on,,,,,0,0,2,,,58,96,1
100864,note_off,,,,,256,0,2,,,58,0,1
100864,note_on,,,,,0,0,2,,,60,96,1
101120,note_off,,,,,256,0,2,,,60,0,1
101120,note_on,,,,,0,0,2,,,62,96,1
101376,note_on,,,,,0,0,2,,,63,96,1
101376,note_on,,,,,0,0,3,,,41,96,2
101376,note_off,,,,,1024,0,3,,,53,0,2
101376,note_off,,,,,256,0,2,,,62,0,1
101888,note_off,,,,,512,0,2,,,63,0,1
101888,note_on,,,,,0,0,2,,,60,96,1
102400,note_off,,,,,1024,0,3,,,41,0,2
102400,note_on,,,,,0,0,3,,,46,96,2
102400,note_on,,,,,0,0,1,,,70,96,0
102400,note_on,,,,,0,0,2,,,62,96,1
102400,note_off,,,,,512,0,2,,,60,0,1
102400,note_off,,,,,2048,0,1,,,72,0,0
102912,note_off,,,,,512,0,2,,,62,0,1
102912,note_on,,,,,0,0,2,,,58,96,1
103424,note_off,,,,,1024,0,3,,,46,0,2
103424,note_on,,,,,0,0,3,,,50,96,2
103424,note_on,,,,,0,0,2,,,65,96,1
103424,note_off,,,,,512,0,2,,,58,0,1
103936,note_off,,,,,512,0,2,,,65,0,1
103936,note_on,,,,,0,0,2,,,56,96,1
104448,note_off,,,,,512,0,2,,,56,0,1
104448,note_on,,,,,0,0,2,,,55,96,1
104448,note_off,,,,,1024,0,3,,,50,0,2
104448,note_on,,,,,0,0,3,,,51,96,2
104704,note_on,,,,,0,0,2,,,53,96,1
104704,note_off,,,,,256,0,2,,,55,0,1
104960,note_off,,,,,256,0,2,,,53,0,1
104960,note_on,,,,,0,0,2,,,51,96,1
105216,note_off,,,,,256,0,2,,,51,0,1
105216,note_on,,,,,0,0,2,,,50,96,1
105472,note_off,,,,,1024,0,3,,,51,0,2
105472,note_on,,,,,0,0,3,,,55,96,2
105472,note_off,,,,,256,0,2,,,50,0,1
105472,note_on,,,,,0,0,2,,,51,96,1
105984,note_off,,,,,512,0,2,,,51,0,1
105984,note_on,,,,,0,0,2,,,58,96,1
106496,note_on,,,,,0,0,3,,,48,96,2
106496,note_off,,,,,1024,0,3,,,55,0,2
106496,note_off,,,,,512,0,2,,,58,0,1
106496,note_on,,,,,0,0,2,,,63,96,1
106496,note_off,,,,,4096,0,1,,,70,0,0
107008,note_off,,,,,512,0,2,,,63,0,1
107008,note_on,,,,,0,0,2,,,60,96,1
107520,note_on,,,,,0,0,3,,,51,96,2
107520,note_off,,,,,1024,0,3,,,48,0,2
107520,note_on,,,,,0,0,2,,,67,96,1
107520,note_off,,,,,512,0,2,,,60,0,1
108032,note_off,,,,,512,0,2,,,67,0,1
108032,note_on,,,,,0,0,2,,,58,96,1
108544,note_off,,,,,1024,0,3,,,51,0,2
108544,note_off,,,,,512,0,2,,,58,0,1
108544,note_on,,,,,0,0,2,,,57,96,1
108544,note_on,,,,,0,0,3,,,53,96,2
108800,note_off,,,,,256,0,2,,,57,0,1
108800,note_on,,,,,0,0,2,,,55,96,1
109056,note_on,,,,,0,0,2,,,53,96,1
109056,note_off,,,,,256,0,2,,,55,0,1
109312,note_on,,,,,0,0,2,,,52,96,1
109312,note_off,,,,,256,0,2,,,53,0,1
109568,note_on,,,,,0,0,2,,,53,96,1
109568,note_off,,,,,256,0,2,,,52,0,1
109568,note_on,,,,,0,0,3,,,55,96,2
109568,note_off,,,,,1024,0,3,,,53,0,2
109824,note_on,,,,,0,0,2,,,55,96,1
109824,note_off,,,,,256,0,2,,,53,0,1
110080,note_off,,,,,256,0,2,,,55,0,1
110080,note_on,,,,,0,0,2,,,57,96,1
110336,note_off,,,,,256,0,2,,,57,0,1
110336,note_on,,,,,0,0,2,,,58,96,1
110592,note_on,,,,,0,0,3,,,57,96,2
110592,note_off,,,,,256,0,2,,,58,0,1
110592,note_on,,,,,0,0,2,,,60,96,1
110592,note_off,,,,,1024,0,3,,,55,0,2
110848,note_off,,,,,256,0,2,,,60,0,1
110848,note_on,,,,,0,0,2,,,51,96,1
111104,note_on,,,,,0,0,2,,,60,96,1
111104,note_off,,,,,256,0,2,,,51,0,1
111360,note_on,,,,,0,0,2,,,51,96,1
111360,note_off,,,,,256,0,2,,,60,0,1
111616,note_off,,,,,1024,0,3,,,57,0,2
111616,note_on,,,,,0,0,3,,,58,96,2
111616,note_on,,,,,0,0,2,,,62,96,1
111616,note_off,,,,,256,0,2,,,51,0,1
111872,note_on,,,,,0,0,2,,,51,96,1
111872,note_off,,,,,256,0,2,,,62,0,1
112128,note_off,,,,,256,0,2,,,51,0,1
112128,note_on,,,,,0,0,2,,,62,96,1
112384,note_off,,,,,256,0,2,,,62,0,1
112384,note_on,,,,,0,0,2,,,51,96,1
112640,note_off,,,,,1024,0,3,,,58,0,2
112640,note_off,,,,,256,0,2,,,51,0,1
112640,note_on,,,,,0,0,2,,,60,96,1
112640,note_on,,,,,0,0,3,,,57,96,2
112896,note_off,,,,,256,0,2,,,60,0,1
112896,note_on,,,,,0,0,2,,,51,96,1
113152,note_on,,,,,0,0,2,,,60,96,1
113152,note_off,,,,,256,0,2,,,51,0,1
113408,note_off,,,,,256,0,2,,,60,0,1
113408,note_on,,,,,0,0,2,,,51,96,1
113664,note_on,,,,,0,0,2,,,58,96,1
113664,note_on,,,,,0,0,3,,,55,96,2
113664,note_off,,,,,256,0,2,,,51,0,1
113664,note_off,,,,,1024,0,3,,,57,0,2
113920,note_off,,,,,256,0,2,,,58,0,1
113920,note_on,,,,,0,0,2,,,51,96,1
114176,note_off,,,,,256,0,2,,,51,0,1
114176,note_on,,,,,0,0,2,,,58,96,1
114432,note_off,,,,,256,0,2,,,58,0,1
114432,note_on,,,,,0,0,2,,,51,96,1
114688,note_on,,,,,0,0,3,,,53,96,2
114688,note_off,,,,,256,0,2,,,51,0,1
114688,note_on,,,,,0,0,2,,,51,96,1
114688,note_off,,,,,1024,0,3,,,55,0,2
114944,note_on,,,,,0,0,2,,,57,96,1
114944,note_off,,,,,256,0,2,,,51,0,1
115200,note_off,,,,,256,0,2,,,57,0,1
115200,note_on,,,,,0,0,2,,,50,96,1
115456,note_off,,,,,256,0,2,,,50,0,1
115456,note_on,,,,,0,0,2,,,57,96,1
115712,note_off,,,,,256,0,2,,,57,0,1
115712,note_on,,,,,0,0,2,,,51,96,1
115968,note_off,,,,,256,0,2,,,51,0,1
115968,note_on,,,,,0,0,2,,,57,96,1
116224,note_off,,,,,256,0,2,,,57,0,1
116224,note_on,,,,,0,0,2,,,55,96,1
116480,note_off,,,,,256,0,2,,,55,0,1
116480,note_on,,,,,0,0,2,,,57,96,1
116736,note_off,,,,,256,0,2,,,57,0,1
116736,note_off,,,,,2048,0,3,,,53,0,2
116736,note_on,,,,,0,0,2,,,53,96,1
116992,note_off,,,,,256,0,2,,,53,0,1
116992,note_on,,,,,0,0,2,,,57,96,1
117248,note_off,,,,,256,0,2,,,57,0,1
117248,note_on,,,,,0,0,2,,,51,96,1
117504,note_off,,,,,256,0,2,,,51,0,1
117504,note_on,,,,,0,0,2,,,57,96,1
117760,note_on,,,,,0,0,2,,,50,96,1
117760,note_on,,,,,1024,0,3,,,53,96,2
117760,note_off,,,,,256,0,2,,,57,0,1
118016,note_on,,,,,0,0,2,,,57,96,1
118016,note_off,,,,,256,0,2,,,50,0,1
118272,note_on,,,,,0,0,2,,,51,96,1
118272,note_off,,,,,256,0,2,,,57,0,1
118528,note_on,,,,,0,0,2,,,57,96,1
118528,note_off,,,,,256,0,2,,,51,0,1
118784,note_off,,,,,1024,0,3,,,53,0,2
118784,note_off,,,,,256,0,2,,,57,0,1
118784,note_on,,,,,0,0,2,,,50,96,1
118784,note_on,,,,,0,0,3,,,58,96,2
119040,note_off,,,,,256,0,2,,,50,0,1
119040,note_on,,,,,0,0,2,,,53,96,1
119296,note_off,,,,,256,0,2,,,53,0,1
119296,note_on,,,,,0,0,2,,,55,96,1
119552,note_on,,,,,0,0,2,,,57,96,1
119552,note_off,,,,,256,0,2,,,55,0,1
119808,note_off,,,,,1024,0,3,,,58,0,2
119808,note_on,,,,,0,0,3,,,55,96,2
119808,note_on,,,,,0,0,2,,,58,96,1
119808,note_off,,,,,256,0,2,,,57,0,1
120064,note_on,,,,,0,0,2,,,60,96,1
120064,note_off,,,,,256,0,2,,,58,0,1
120320,note_on,,,,,0,0,2,,,62,96,1
120320,note_off,,,,,512,0,3,,,55,0,2
120320,note_on,,,,,0,0,3,,,51,96,2
120320,note_off,,,,,256,0,2,,,60,0,1
120576,note_on,,,,,0,0,2,,,63,96,1
120576,note_off,,,,,256,0,2,,,62,0,1
120832,note_off,,,,,512,0,3,,,51,0,2
120832,note_on,,,,,0,0,3,,,50,96,2
120832,note_off,,,,,256,0,2,,,63,0,1
120832,note_on,,,,,0,0,2,,,65,96,1
121344,note_on,,,,,0,0,2,,,62,96,1
121344,note_off,,,,,512,0,2,,,65,0,1
121600,note_off,,,,,256,0,2,,,62,0,1
121600,note_on,,,,,0,0,2,,,58,96,1
121856,note_off,,,,,256,0,2,,,58,0,1
121856,note_on,,,,,0,0,2,,,53,96,1
121856,note_off,,,,,1024,0,3,,,50,0,2
121856,note_on,,,,,0,0,3,,,53,96,2
122368,note_off,,,,,512,0,2,,,53,0,1
122368,note_on,,,,,0,0,2,,,57,96,1
122880,note_off,,,,,512,0,2,,,57,0,1
122880,note_on,,,,,0,0,3,,,46,96,2
122880,note_on,,,,,0,0,2,,,46,96,1
122880,note_off,,,,,1024,0,3,,,53,0,2
123904,note_off,,,,,1024,0,2,,,46,0,1
123904,note_on,,,,,0,0,2,,,65,96,1
124928,note_off,,,,,2048,0,3,,,46,0,2
124928,note_off,,,,,1024,0,2,,,65,0,1
124928,note_on,,,,,0,0,2,,,65,96,1
124928,note_on,,,,,18432,0,1,,,74,96,0
125952,note_on,,,,,1024,0,3,,,58,96,2
125952,note_on,,,,,0,0,2,,,69,96,1
125952,note_off,,,,,1024,0,2,,,65,0,1
126208,note_off,,,,,256,0,2,,,69,0,1
126208,note_on,,,,,0,0,2,,,67,96,1
126464,note_off,,,,,256,0,2,,,67,0,1
126464,note_on,,,,,0,0,2,,,66,96,1
126720,note_on,,,,,0,0,2,,,67,96,1
126720,note_off,,,,,256,0,2,,,66,0,1
126976,note_on,,,,,0,0,2,,,66,96,1
126976,note_on,,,,,0,0,1,,,72,96,0
126976,note_off,,,,,2048,0,1,,,74,0,0
126976,note_off,,,,,1024,0,3,,,58,0,2
126976,note_off,,,,,256,0,2,,,67,0,1
126976,note_on,,,,,0,0,3,,,57,96,2
128000,note_off,,,,,1024,0,2,,,66,0,1
128000,note_on,,,,,0,0,3,,,60,96,2
128000,note_on,,,,,0,0,2,,,57,96,1
128000,note_off,,,,,1024,0,3,,,57,0,2
128512,note_on,,,,,0,0,3,,,57,96,2
128512,note_off,,,,,512,0,3,,,60,0,2
129024,note_on,,,,,0,0,2,,,57,96,1
129024,note_off,,,,,1024,0,2,,,57,0,1
129024,note_off,,,,,512,0,3,,,57,0,2
129024,note_on,,,,,0,0,3,,,54,96,2
129024,note_on,,,,,0,0,1,,,74,96,0
129024,note_off,,,,,2048,0,1,,,72,0,0
130048,note_off,,,,,1024,0,3,,,54,0,2
130048,note_on,,,,,0,0,3,,,50,96,2
130048,note_off,,,,,1024,0,2,,,57,0,1
130048,note_on,,,,,0,0,2,,,60,96,1
130304,note_off,,,,,256,0,2,,,60,0,1
130304,note_on,,,,,0,0,2,,,58,96,1
130560,note_off,,,,,256,0,2,,,58,0,1
130560,note_on,,,,,0,0,2,,,57,96,1
130816,note_off,,,,,256,0,2,,,57,0,1
130816,note_on,,,,,0,0,2,,,58,96,1
131072,note_off,,,,,256,0,2,,,58,0,1
131072,note_on,,,,,0,0,2,,,55,96,1
131072,note_on,,,,,0,0,3,,,55,96,2
131072,note_off,,,,,1024,0,3,,,50,0,2
131072,note_off,,,,,2048,0,1,,,74,0,0
131072,note_on,,,,,0,0,1,,,70,96,0
131584,note_off,,,,,512,0,2,,,55,0,1
131584,note_on,,,,,0,0,2,,,50,96,1
132096,note_on,,,,,0,0,2,,,58,96,1
132096,note_off,,,,,1024,0,3,,,55,0,2
132096,note_off,,,,,512,0,2,,,50,0,1
132608,note_off,,,,,512,0,2,,,58,0,1
132608,note_on,,,,,0,0,2,,,55,96,1
133120,note_on,,,,,1024,0,3,,,48,96,2
133120,note_off,,,,,512,0,2,,,55,0,1
133120,note_on,,,,,0,0,2,,,63,96,1
133120,note_off,,,,,2048,0,1,,,70,0,0
133120,note_on,,,,,0,0,1,,,67,96,0
133632,note_on,,,,,0,0,2,,,60,96,1
133632,note_off,,,,,512,0,2,,,63,0,1
134144,note_off,,,,,512,0,2,,,60,0,1
134144,note_on,,,,,0,0,2,,,67,96,1
134144,note_off,,,,,1024,0,3,,,48,0,2
134656,note_off,,,,,512,0,2,,,67,0,1
134656,note_on,,,,,0,0,2,,,58,96,1
135168,note_off,,,,,512,0,2,,,58,0,1
135168,note_on,,,,,0,0,2,,,57,96,1
135168,note_on,,,,,1024,0,3,,,53,96,2
135168,note_on,,,,,0,0,1,,,69,96,0
135168,note_off,,,,,2048,0,1,,,67,0,0
135680,note_on,,,,,0,0,2,,,53,96,1
135680,note_off,,,,,512,0,2,,,57,0,1
136192,note_off,,,,,512,0,2,,,53,0,1
136192,note_off,,,,,1024,0,3,,,53,0,2
136192,note_on,,,,,0,0,2,,,60,96,1
136704,note_on,,,,,0,0,2,,,51,96,1
136704,note_off,,,,,512,0,2,,,60,0,1
137216,note_on,,,,,0,0,1,,,70,96,0
137216,note_off,,,,,2048,0,1,,,69,0,0
137216,note_on,,,,,1024,0,3,,,55,96,2
137216,note_off,,,,,512,0,2,,,51,0,1
137216,note_on,,,,,0,0,2,,,50,96,1
137472,note_off,,,,,256,0,2,,,50,0,1
137472,note_on,,,,,0,0,2,,,54,96,1
137728,note_off,,,,,256,0,2,,,54,0,1
137728,note_on,,,,,0,0,2,,,55,96,1
137984,note_off,,,,,256,0,2,,,55,0,1
137984,note_on,,,,,0,0,2,,,57,96,1
138240,note_off,,,,,1024,0,3,,,55,0,2
138240,note_off,,,,,256,0,2,,,57,0,1
138240,note_on,,,,,0,0,2,,,58,96,1
138496,note_off,,,,,256,0,2,,,58,0,1
138496,note_on,,,,,0,0,2,,,60,96,1
138752,note_off,,,,,256,0,2,,,60,0,1
138752,note_on,,,,,0,0,2,,,62,96,1
139008,note_off,,,,,256,0,2,,,62,0,1
139008,note_on,,,,,0,0,2,,,64,96,1
139264,note_off,,,,,2048,0,1,,,70,0,0
139264,note_on,,,,,0,0,1,,,72,96,0
139264,note_on,,,,,1024,0,3,,,48,96,2
139264,note_off,,,,,256,0,2,,,64,0,1
139264,note_on,,,,,0,0,2,,,65,96,1
139520,note_off,,,,,256,0,2,,,65,0,1
139520,note_on,,,,,0,0,2,,,64,96,1
139776,note_off,,,,,256,0,2,,,64,0,1
139776,note_on,,,,,0,0,2,,,62,96,1
140032,note_off,,,,,256,0,2,,,62,0,1
140032,note_on,,,,,0,0,2,,,64,96,1
140288,note_on,,,,,0,0,3,,,52,96,2
140288,note_off,,,,,1024,0,3,,,48,0,2
140288,note_on,,,,,0,0,2,,,60,96,1
140288,note_off,,,,,256,0,2,,,64,0,1
140544,note_off,,,,,256,0,2,,,60,0,1
140544,note_on,,,,,0,0,2,,,70,96,1
140800,note_off,,,,,256,0,2,,,70,0,1
140800,note_on,,,,,0,0,2,,,60,96,1
141056,note_on,,,,,0,0,2,,,70,96,1
141056,note_off,,,,,256,0,2,,,60,0,1
141312,note_on,,,,,0,0,2,,,69,96,1
141312,note_on,,,,,0,0,3,,,53,96,2
141312,note_off,,,,,1024,0,3,,,52,0,2
141312,note_off,,,,,256,0,2,,,70,0,1
141568,note_off,,,,,256,0,2,,,69,0,1
141568,note_on,,,,,0,0,2,,,60,96,1
141824,note_on,,,,,0,0,2,,,69,96,1
141824,note_off,,,,,256,0,2,,,60,0,1
142080,note_off,,,,,256,0,2,,,69,0,1
142080,note_on,,,,,0,0,2,,,60,96,1
142336,note_off,,,,,256,0,2,,,60,0,1
142336,note_on,,,,,0,0,2,,,58,96,1
142336,note_off,,,,,1024,0,3,,,53,0,2
142336,note_on,,,,,0,0,3,,,55,96,2
142592,note_off,,,,,256,0,2,,,58,0,1
142592,note_on,,,,,0,0,2,,,69,96,1
142848,note_off,,,,,256,0,2,,,69,0,1
142848,note_off,,,,,512,0,3,,,55,0,2
142848,note_on,,,,,0,0,3,,,57,96,2
142848,note_on,,,,,0,0,2,,,58,96,1
143104,note_on,,,,,0,0,2,,,69,96,1
143104,note_off,,,,,256,0,2,,,58,0,1
143360,note_off,,,,,512,0,3,,,57,0,2
143360,note_on,,,,,0,0,3,,,58,96,2
143360,note_off,,,,,4096,0,1,,,72,0,0
143360,note_on,,,,,0,0,2,,,67,96,1
143360,note_off,,,,,256,0,2,,,69,0,1
143616,note_on,,,,,0,0,2,,,58,96,1
143616,note_off,,,,,256,0,2,,,67,0,1
143872,note_on,,,,,0,0,2,,,67,96,1
143872,note_off,,,,,256,0,2,,,58,0,1
144128,note_on,,,,,0,0,2,,,58,96,1
144128,note_off,,,,,256,0,2,,,67,0,1
144384,note_on,,,,,0,0,3,,,60,96,2
144384,note_off,,,,,1024,0,3,,,58,0,2
144384,note_off,,,,,256,0,2,,,58,0,1
144384,note_on,,,,,0,0,2,,,57,96,1
144640,note_on,,,,,0,0,2,,,67,96,1
144640,note_off,,,,,256,0,2,,,57,0,1
144896,note_off,,,,,256,0,2,,,67,0,1
144896,note_on,,,,,0,0,2,,,57,96,1
145152,note_off,,,,,256,0,2,,,57,0,1
145152,note_on,,,,,0,0,2,,,67,96,1
145408,note_off,,,,,256,0,2,,,67,0,1
145408,note_on,,,,,0,0,3,,,62,96,2
145408,note_on,,,,,0,0,2,,,65,96,1
145408,note_off,,,,,1024,0,3,,,60,0,2
145664,note_on,,,,,0,0,2,,,57,96,1
145664,note_off,,,,,256,0,2,,,65,0,1
145920,note_on,,,,,0,0,2,,,65,96,1
145920,note_off,,,,,256,0,2,,,57,0,1
146176,note_off,,,,,256,0,2,,,65,0,1
146176,note_on,,,,,0,0,2,,,57,96,1
146432,note_off,,,,,256,0,2,,,57,0,1
146432,note_on,,,,,0,0,3,,,58,96,2
146432,note_off,,,,,1024,0,3,,,62,0,2
146432,note_on,,,,,0,0,2,,,55,96,1
146688,note_off,,,,,256,0,2,,,55,0,1
146688,note_on,,,,,0,0,2,,,65,96,1
146944,note_on,,,,,0,0,2,,,57,96,1
146944,note_off,,,,,256,0,2,,,65,0,1
147200,note_on,,,,,0,0,2,,,65,96,1
147200,note_off,,,,,256,0,2,,,57,0,1
147456,note_on,,,,,0,0,3,,,60,96,2
147456,note_on,,,,,0,0,2,,,58,96,1
147456,note_off,,,,,256,0,2,,,65,0,1
147456,note_off,,,,,1024,0,3,,,58,0,2
147712,note_off,,,,,256,0,2,,,58,0,1
147712,note_on,,,,,0,0,2,,,64,96,1
147968,note_on,,,,,0,0,2,,,57,96,1
147968,note_off,,,,,256,0,2,,,64,0,1
148224,note_off,,,,,256,0,2,,,57,0,1
148224,note_on,,,,,0,0,2,,,64,96,1
148480,note_off,,,,,256,0,2,,,64,0,1
148480,note_on,,,,,0,0,2,,,58,96,1
148736,note_off,,,,,256,0,2,,,58,0,1
148736,note_on,,,,,0,0,2,,,64,96,1
148992,note_off,,,,,256,0,2,,,64,0,1
148992,note_on,,,,,0,0,2,,,62,96,1
149248,note_off,,,,,256,0,2,,,62,0,1
149248,note_on,,,,,0,0,2,,,64,96,1
149504,note_off,,,,,2048,0,3,,,60,0,2
149504,note_off,,,,,256,0,2,,,64,0,1
149504,note_on,,,,,0,0,2,,,60,96,1
149760,note_off,,,,,256,0,2,,,60,0,1
149760,note_on,,,,,0,0,2,,,64,96,1
150016,note_off,,,,,256,0,2,,,64,0,1
150016,note_on,,,,,0,0,2,,,58,96,1
150272,note_off,,,,,256,0,2,,,58,0,1
150272,note_on,,,,,0,0,2,,,64,96,1
150528,note_off,,,,,256,0,2,,,64,0,1
150528,note_on,,,,,1024,0,3,,,48,96,2
150528,note_on,,,,,0,0,2,,,57,96,1
150784,note_off,,,,,256,0,2,,,57,0,1
150784,note_on,,,,,0,0,2,,,64,96,1
151040,note_off,,,,,256,0,2,,,64,0,1
151040,note_on,,,,,0,0,2,,,58,96,1
151296,note_off,,,,,256,0,2,,,58,0,1
151296,note_on,,,,,0,0,2,,,64,96,1
151552,note_off,,,,,256,0,2,,,64,0,1
151552,note_on,,,,,0,0,3,,,53,96,2
151552,note_off,,,,,1024,0,3,,,48,0,2
151552,note_on,,,,,0,0,2,,,57,96,1
151808,note_off,,,,,256,0,2,,,57,0,1
151808,note_on,,,,,0,0,2,,,60,96,1
152064,note_on,,,,,0,0,2,,,62,96,1
152064,note_off,,,,,256,0,2,,,60,0,1
152320,note_on,,,,,0,0,2,,,64,96,1
152320,note_off,,,,,256,0,2,,,62,0,1
152576,note_on,,,,,0,0,3,,,45,96,2
152576,note_off,,,,,1024,0,3,,,53,0,2
152576,note_on,,,,,0,0,2,,,65,96,1
152576,note_off,,,,,256,0,2,,,64,0,1
152832,note_off,,,,,256,0,2,,,65,0,1
152832,note_on,,,,,0,0,2,,,67,96,1
153088,note_on,,,,,0,0,3,,,43,96,2
153088,note_off,,,,,512,0,3,,,45,0,2
153088,note_off,,,,,256,0,2,,,67,0,1
153088,note_on,,,,,0,0,2,,,69,96,1
153344,note_on,,,,,0,0,2,,,70,96,1
153344,note_off,,,,,256,0,2,,,69,0,1
153600,note_off,,,,,256,0,2,,,70,0,1
153600,note_on,,,,,0,0,2,,,69,96,1
153600,note_on,,,,,0,0,3,,,42,96,2
153600,note_off,,,,,512,0,3,,,43,0,2
153600,note_on,,,,,10240,0,1,,,74,96,0
153856,note_off,,,,,256,0,2,,,69,0,1
153856,note_on,,,,,0,0,2,,,67,96,1
154112,note_off,,,,,256,0,2,,,67,0,1
154112,note_on,,,,,0,0,2,,,66,96,1
154368,note_off,,,,,256,0,2,,,66,0,1
154368,note_on,,,,,0,0,2,,,64,96,1
154624,note_on,,,,,0,0,3,,,50,96,2
154624,note_on,,,,,0,0,2,,,62,96,1
154624,note_off,,,,,256,0,2,,,64,0,1
154624,note_off,,,,,1024,0,3,,,42,0,2
154880,note_on,,,,,0,0,2,,,60,96,1
154880,note_off,,,,,256,0,2,,,62,0,1
155136,note_on,,,,,0,0,2,,,58,96,1
155136,note_off,,,,,256,0,2,,,60,0,1
155392,note_on,,,,,0,0,2,,,57,96,1
155392,note_off,,,,,256,0,2,,,58,0,1
155648,note_on,,,,,0,0,2,,,55,96,1
155648,note_on,,,,,0,0,1,,,72,96,0
155648,note_off,,,,,256,0,2,,,57,0,1
155648,note_off,,,,,2048,0,1,,,74,0,0
155648,note_off,,,,,1024,0,3,,,50,0,2
155648,note_on,,,,,0,0,3,,,52,96,2
156672,note_off,,,,,1024,0,3,,,52,0,2
156672,note_off,,,,,1024,0,2,,,55,0,1
156672,note_on,,,,,0,0,2,,,62,96,1
156672,note_on,,,,,0,0,3,,,54,96,2
157696,note_on,,,,,0,0,2,,,62,96,1
157696,note_on,,,,,0,0,3,,,55,96,2
157696,note_off,,,,,1024,0,2,,,62,0,1
157696,note_on,,,,,0,0,1,,,70,96,0
157696,note_off,,,,,1024,0,3,,,54,0,2
157696,note_off,,,,,2048,0,1,,,72,0,0
158208,note_on,,,,,0,0,3,,,54,96,2
158208,note_off,,,,,512,0,3,,,55,0,2
158720,note_off,,,,,512,0,3,,,54,0,2
158720,note_on,,,,,0,0,3,,,55,96,2
158720,note_on,,,,,0,0,2,,,65,96,1
158720,note_off,,,,,1024,0,2,,,62,0,1
158976,note_on,,,,,0,0,2,,,63,96,1
158976,note_off,,,,,256,0,2,,,65,0,1
159232,note_on,,,,,0,0,2,,,62,96,1
159232,note_off,,,,,256,0,2,,,63,0,1
159232,note_off,,,,,512,0,3,,,55,0,2
159232,note_on,,,,,0,0,3,,,57,96,2
159488,note_off,,,,,256,0,2,,,62,0,1
159488,note_on,,,,,0,0,2,,,63,96,1
159744,note_off,,,,,512,0,3,,,57,0,2
159744,note_on,,,,,0,0,3,,,58,96,2
159744,note_off,,,,,2048,0,1,,,70,0,0
159744,note_off,,,,,256,0,2,,,63,0,1
159744,note_on,,,,,0,0,2,,,62,96,1
159744,note_on,,,,,0,0,1,,,70,96,0
160000,note_off,,,,,256,0,2,,,62,0,1
160000,note_on,,,,,0,0,2,,,58,96,1
160256,note_off,,,,,256,0,2,,,58,0,1
160256,note_on,,,,,0,0,2,,,62,96,1
160512,note_off,,,,,256,0,2,,,62,0,1
160512,note_on,,,,,0,0,2,,,58,96,1
160768,note_off,,,,,1024,0,1,,,70,0,0
160768,note_on,,,,,0,0,2,,,63,96,1
160768,note_off,,,,,256,0,2,,,58,0,1
160768,note_on,,,,,0,0,1,,,72,96,0
161024,note_on,,,,,0,0,2,,,58,96,1
161024,note_off,,,,,256,0,2,,,63,0,1
161280,note_off,,,,,256,0,2,,,58,0,1
161280,note_on,,,,,0,0,2,,,63,96,1
161536,note_off,,,,,256,0,2,,,63,0,1
161536,note_on,,,,,0,0,2,,,58,96,1
161792,note_off,,,,,1024,0,1,,,72,0,0
161792,note_on,,,,,0,0,1,,,74,96,0
161792,note_off,,,,,256,0,2,,,58,0,1
161792,note_on,,,,,0,0,2,,,65,96,1
162304,note_on,,,,,0,0,2,,,58,96,1
162304,note_off,,,,,512,0,2,,,65,0,1
162304,note_off,,,,,2560,0,3,,,58,0,2
162304,note_on,,,,,0,0,3,,,57,96,2
162816,note_on,,,,,0,0,2,,,70,96,1
162816,note_on,,,,,0,0,3,,,55,96,2
162816,note_off,,,,,512,0,2,,,58,0,1
162816,note_off,,,,,512,0,3,,,57,0,2
163072,note_off,,,,,256,0,2,,,70,0,1
163072,note_on,,,,,0,0,2,,,68,96,1
163328,note_off,,,,,256,0,2,,,68,0,1
163328,note_off,,,,,512,0,3,,,55,0,2
163328,note_on,,,,,0,0,3,,,53,96,2
163328,note_on,,,,,0,0,2,,,67,96,1
163584,note_off,,,,,256,0,2,,,67,0,1
163584,note_on,,,,,0,0,2,,,68,96,1
163840,note_on,,,,,0,0,1,,,72,96,0
163840,note_on,,,,,0,0,2,,,67,96,1
163840,note_off,,,,,2048,0,1,,,74,0,0
163840,note_off,,,,,256,0,2,,,68,0,1
163840,note_on,,,,,0,0,3,,,51,96,2
163840,note_off,,,,,512,0,3,,,53,0,2
164352,note_on,,,,,0,0,3,,,53,96,2
164352,note_off,,,,,512,0,2,,,67,0,1
164352,note_on,,,,,0,0,2,,,57,96,1
164352,note_off,,,,,512,0,3,,,51,0,2
164864,note_off,,,,,512,0,3,,,53,0,2
164864,note_on,,,,,0,0,3,,,55,96,2
164864,note_off,,,,,1024,0,1,,,72,0,0
164864,note_on,,,,,0,0,1,,,70,96,0
164864,note_off,,,,,512,0,2,,,57,0,1
164864,note_on,,,,,0,0,2,,,58,96,1
165376,note_off,,,,,512,0,3,,,55,0,2
165376,note_on,,,,,0,0,3,,,53,96,2
165888,note_on,,,,,0,0,3,,,51,96,2
165888,note_on,,,,,0,0,1,,,72,96,0
165888,note_off,,,,,512,0,3,,,53,0,2
165888,note_off,,,,,1024,0,1,,,70,0,0
166400,note_off,,,,,512,0,3,,,51,0,2
166400,note_on,,,,,0,0,3,,,48,96,2
166912,note_off,,,,,512,0,3,,,48,0,2
166912,note_on,,,,,0,0,3,,,53,96,2
166912,note_on,,,,,0,0,2,,,57,96,1
166912,note_off,,,,,2048,0,2,,,58,0,1
167424,note_off,,,,,512,0,3,,,53,0,2
167424,note_on,,,,,0,0,3,,,51,96,2
167936,note_off,,,,,512,0,3,,,51,0,2
167936,note_on,,,,,0,0,3,,,50,96,2
167936,note_off,,,,,1024,0,2,,,57,0,1
167936,note_on,,,,,0,0,2,,,58,96,1
167936,note_on,,,,,0,0,1,,,70,96,0
167936,note_off,,,,,2048,0,1,,,72,0,0
168448,note_off,,,,,512,0,2,,,58,0,1
168448,note_on,,,,,0,0,2,,,53,96,1
168960,note_on,,,,,0,0,2,,,62,96,1
168960,note_off,,,,,512,0,2,,,53,0,1
168960,note_off,,,,,1024,0,3,,,50,0,2
168960,note_on,,,,,0,0,3,,,46,96,2
169472,note_off,,,,,512,0,2,,,62,0,1
169472,note_on,,,,,0,0,2,,,56,96,1
169984,note_on,,,,,0,0,2,,,55,96,1
169984,note_off,,,,,1024,0,3,,,46,0,2
169984,note_on,,,,,0,0,3,,,51,96,2
169984,note_off,,,,,512,0,2,,,56,0,1
170240,note_on,,,,,0,0,2,,,53,96,1
170240,note_off,,,,,256,0,2,,,55,0,1
170496,note_off,,,,,256,0,2,,,53,0,1
170496,note_on,,,,,0,0,2,,,51,96,1
170752,note_off,,,,,256,0,2,,,51,0,1
170752,note_on,,,,,0,0,2,,,50,96,1
171008,note_off,,,,,1024,0,3,,,51,0,2
171008,note_off,,,,,256,0,2,,,50,0,1
171008,note_on,,,,,0,0,2,,,48,96,1
171008,note_on,,,,,0,0,3,,,55,96,2
171264,note_on,,,,,0,0,2,,,43,96,1
171264,note_off,,,,,256,0,2,,,48,0,1
171520,note_off,,,,,256,0,2,,,43,0,1
171520,note_on,,,,,0,0,2,,,48,96,1
171776,note_on,,,,,0,0,2,,,43,96,1
171776,note_off,,,,,256,0,2,,,48,0,1
172032,note_on,,,,,0,0,3,,,53,96,2
172032,note_off,,,,,4096,0,1,,,70,0,0
172032,note_off,,,,,1024,0,3,,,55,0,2
172032,note_on,,,,,0,0,2,,,56,96,1
172032,note_off,,,,,256,0,2,,,43,0,1
172288,note_on,,,,,0,0,2,,,46,96,1
172288,note_off,,,,,256,0,2,,,56,0,1
172544,note_off,,,,,256,0,2,,,46,0,1
172544,note_on,,,,,0,0,2,,,56,96,1
172800,note_on,,,,,0,0,2,,,46,96,1
172800,note_off,,,,,256,0,2,,,56,0,1
173056,note_off,,,,,1024,0,3,,,53,0,2
173056,note_off,,,,,256,0,2,,,46,0,1
173056,note_on,,,,,0,0,2,,,55,96,1
173056,note_on,,,,,0,0,3,,,51,96,2
173312,note_off,,,,,256,0,2,,,55,0,1
173312,note_on,,,,,0,0,2,,,46,96,1
173568,note_off,,,,,256,0,2,,,46,0,1
173568,note_on,,,,,0,0,2,,,55,96,1
173824,note_off,,,,,256,0,2,,,55,0,1
173824,note_on,,,,,0,0,2,,,46,96,1
174080,note_off,,,,,256,0,2,,,46,0,1
174080,note_on,,,,,0,0,2,,,53,96,1
174080,note_off,,,,,1024,0,3,,,51,0,2
174080,note_on,,,,,0,0,3,,,56,96,2
174336,note_on,,,,,0,0,2,,,46,96,1
174336,note_off,,,,,256,0,2,,,53,0,1
174592,note_on,,,,,0,0,2,,,53,96,1
174592,note_off,,,,,256,0,2,,,46,0,1
174848,note_off,,,,,256,0,2,,,53,0,1
174848,note_on,,,,,0,0,2,,,46,96,1
175104,note_off,,,,,256,0,2,,,46,0,1
175104,note_on,,,,,0,0,2,,,51,96,1
175104,note_on,,,,,0,0,3,,,55,96,2
175104,note_off,,,,,1024,0,3,,,56,0,2
175360,note_off,,,,,256,0,2,,,51,0,1
175360,note_on,,,,,0,0,2,,,46,96,1
175616,note_off,,,,,256,0,2,,,46,0,1
175616,note_on,,,,,0,0,2,,,51,96,1
175872,note_off,,,,,256,0,2,,,51,0,1
175872,note_on,,,,,0,0,2,,,46,96,1
176128,note_on,,,,,0,0,3,,,53,96,2
176128,note_on,,,,,0,0,2,,,44,96,1
176128,note_off,,,,,256,0,2,,,46,0,1
176128,note_off,,,,,1024,0,3,,,55,0,2
176384,note_off,,,,,256,0,2,,,44,0,1
176384,note_on,,,,,0,0,2,,,50,96,1
176640,note_on,,,,,0,0,2,,,43,96,1
176640,note_off,,,,,256,0,2,,,50,0,1
176896,note_off,,,,,256,0,2,,,43,0,1
176896,note_on,,,,,0,0,2,,,50,96,1
177152,note_off,,,,,256,0,2,,,50,0,1
177152,note_on,,,,,0,0,2,,,44,96,1
177408,note_off,,,,,256,0,2,,,44,0,1
177408,note_on,,,,,0,0,2,,,50,96,1
177664,note_off,,,,,256,0,2,,,50,0,1
177664,note_on,,,,,0,0,2,,,48,96,1
177920,note_on,,,,,0,0,2,,,50,96,1
177920,note_off,,,,,256,0,2,,,48,0,1
178176,note_off,,,,,256,0,2,,,50,0,1
178176,note_on,,,,,0,0,2,,,46,96,1
178176,note_off,,,,,2048,0,3,,,53,0,2
178432,note_off,,,,,256,0,2,,,46,0,1
178432,note_on,,,,,0,0,2,,,50,96,1
178688,note_off,,,,,256,0,2,,,50,0,1
178688,note_on,,,,,0,0,2,,,44,96,1
178944,note_off,,,,,256,0,2,,,44,0,1
178944,note_on,,,,,0,0,2,,,50,96,1
179200,note_off,,,,,256,0,2,,,50,0,1
179200,note_on,,,,,1024,0,3,,,46,96,2
179200,note_on,,,,,0,0,2,,,43,96,1
179456,note_off,,,,,256,0,2,,,43,0,1
179456,note_on,,,,,0,0,2,,,50,96,1
179712,note_on,,,,,0,0,2,,,44,96,1
179712,note_off,,,,,256,0,2,,,50,0,1
179968,note_on,,,,,0,0,2,,,50,96,1
179968,note_off,,,,,256,0,2,,,44,0,1
180224,note_on,,,,,0,0,2,,,43,96,1
180224,note_off,,,,,256,0,2,,,50,0,1
180224,note_on,,,,,0,0,3,,,51,96,2
180224,note_off,,,,,1024,0,3,,,46,0,2
180480,note_on,,,,,0,0,2,,,46,96,1
180480,note_off,,,,,256,0,2,,,43,0,1
180736,note_off,,,,,256,0,2,,,46,0,1
180736,note_on,,,,,0,0,2,,,48,96,1
180992,note_on,,,,,0,0,2,,,50,96,1
180992,note_off,,,,,256,0,2,,,48,0,1
181248,note_on,,,,,0,0,2,,,51,96,1
181248,note_off,,,,,256,0,2,,,50,0,1
181504,note_off,,,,,256,0,2,,,51,0,1
181504,note_on,,,,,0,0,2,,,53,96,1
181760,note_off,,,,,1536,0,3,,,51,0,2
181760,note_off,,,,,256,0,2,,,53,0,1
181760,note_on,,,,,0,0,2,,,55,96,1
181760,note_on,,,,,0,0,3,,,53,96,2
182016,note_off,,,,,256,0,2,,,55,0,1
182016,note_on,,,,,0,0,2,,,57,96,1
182272,note_off,,,,,256,0,2,,,57,0,1
182272,note_on,,,,,0,0,2,,,58,96,1
182272,note_off,,,,,512,0,3,,,53,0,2
182272,note_on,,,,,0,0,3,,,55,96,2
182528,note_off,,,,,256,0,2,,,58,0,1
182528,note_on,,,,,0,0,2,,,60,96,1
182784,note_off,,,,,512,0,3,,,55,0,2
182784,note_off,,,,,256,0,2,,,60,0,1
182784,note_on,,,,,0,0,2,,,62,96,1
182784,note_on,,,,,0,0,3,,,53,96,2
183040,note_off,,,,,256,0,2,,,62,0,1
183040,note_on,,,,,0,0,2,,,63,96,1
183296,note_on,,,,,0,0,2,,,65,96,1
183296,note_off,,,,,256,0,2,,,63,0,1
183296,note_on,,,,,0,0,3,,,55,96,2
183296,note_off,,,,,512,0,3,,,53,0,2
183552,note_on,,,,,0,0,2,,,63,96,1
183552,note_off,,,,,256,0,2,,,65,0,1
183808,note_on,,,,,0,0,2,,,62,96,1
183808,note_off,,,,,256,0,2,,,63,0,1
183808,note_off,,,,,512,0,3,,,55,0,2
183808,note_on,,,,,0,0,3,,,57,96,2
184064,note_off,,,,,256,0,2,,,62,0,1
184064,note_on,,,,,0,0,2,,,63,96,1
184320,note_off,,,,,512,0,3,,,57,0,2
184320,note_on,,,,,0,0,3,,,58,96,2
184320,note_off,,,,,256,0,2,,,63,0,1
184320,note_on,,,,,0,0,2,,,62,96,1
185344,note_off,,,,,1024,0,3,,,58,0,2
185344,note_on,,,,,0,0,3,,,62,96,2
185856,note_off,,,,,1536,0,2,,,62,0,1
185856,note_on,,,,,0,0,2,,,58,96,1
186368,note_on,,,,,0,0,2,,,67,96,1
186368,note_off,,,,,1024,0,3,,,62,0,2
186368,note_on,,,,,0,0,3,,,58,96,2
186368,note_off,,,,,512,0,2,,,58,0,1
186880,note_on,,,,,0,0,2,,,62,96,1
186880,note_off,,,,,512,0,2,,,67,0,1
187392,note_on,,,,,0,0,2,,,70,96,1
187392,note_off,,,,,512,0,2,,,62,0,1
187904,note_on,,,,,0,0,2,,,62,96,1
187904,note_off,,,,,512,0,2,,,70,0,1
188416,note_on,,,,,0,0,2,,,64,96,1
188416,note_off,,,,,512,0,2,,,62,0,1
188928,note_on,,,,,0,0,2,,,60,96,1
188928,note_off,,,,,512,0,2,,,64,0,1
189184,note_on,,,,,0,0,2,,,55,96,1
189184,note_off,,,,,256,0,2,,,60,0,1
189440,note_off,,,,,256,0,2,,,55,0,1
189440,note_on,,,,,0,0,2,,,48,96,1
189440,note_off,,,,,3072,0,3,,,58,0,2
189440,note_on,,,,,0,0,3,,,56,96,2
189952,note_off,,,,,512,0,3,,,56,0,2
189952,note_on,,,,,0,0,3,,,55,96,2
189952,note_off,,,,,512,0,2,,,48,0,1
189952,note_on,,,,,0,0,2,,,60,96,1
190464,note_on,,,,,0,0,3,,,56,96,2
190464,note_on,,,,,0,0,2,,,65,96,1
190464,note_off,,,,,512,0,2,,,60,0,1
190464,note_off,,,,,512,0,3,,,55,0,2
190976,note_off,,,,,512,0,2,,,65,0,1
190976,note_on,,,,,0,0,2,,,60,96,1
191488,note_off,,,,,512,0,2,,,60,0,1
191488,note_on,,,,,0,0,2,,,68,96,1
192000,note_on,,,,,0,0,2,,,60,96,1
192000,note_off,,,,,512,0,2,,,68,0,1
192512,note_on,,,,,0,0,2,,,62,96,1
192512,note_off,,,,,512,0,2,,,60,0,1
193024,note_on,,,,,0,0,2,,,58,96,1
193024,note_off,,,,,512,0,2,,,62,0,1
193280,note_off,,,,,256,0,2,,,58,0,1
193280,note_on,,,,,0,0,2,,,53,96,1
193536,note_off,,,,,256,0,2,,,53,0,1
193536,note_on,,,,,0,0,3,,,55,96,2
193536,note_off,,,,,3072,0,3,,,56,0,2
193536,note_on,,,,,0,0,2,,,46,96,1
194048,note_on,,,,,0,0,2,,,58,96,1
194048,note_off,,,,,512,0,2,,,46,0,1
194048,note_off,,,,,512,0,3,,,55,0,2
194048,note_on,,,,,0,0,3,,,53,96,2
194560,note_on,,,,,0,0,2,,,63,96,1
194560,note_on,,,,,0,0,3,,,55,96,2
194560,note_off,,,,,512,0,2,,,58,0,1
194560,note_off,,,,,512,0,3,,,53,0,2
195072,note_on,,,,,0,0,2,,,58,96,1
195072,note_off,,,,,512,0,2,,,63,0,1
195584,note_off,,,,,1024,0,3,,,55,0,2
195584,note_off,,,,,512,0,2,,,58,0,1
195584,note_on,,,,,0,0,2,,,67,96,1
196096,note_on,,,,,0,0,2,,,58,96,1
196096,note_off,,,,,512,0,2,,,67,0,1
196608,note_on,,,,,1024,0,3,,,57,96,2
196608,note_on,,,,,0,0,2,,,60,96,1
196608,note_off,,,,,512,0,2,,,58,0,1
197120,note_on,,,,,0,0,2,,,53,96,1
197120,note_off,,,,,512,0,2,,,60,0,1
197632,note_off,,,,,1024,0,3,,,57,0,2
197632,note_off,,,,,512,0,2,,,53,0,1
197632,note_on,,,,,0,0,2,,,63,96,1
198144,note_off,,,,,512,0,2,,,63,0,1
198144,note_on,,,,,0,0,2,,,60,96,1
198656,note_on,,,,,1024,0,3,,,58,96,2
198656,note_off,,,,,512,0,2,,,60,0,1
198656,note_on,,,,,0,0,2,,,62,96,1
199168,note_on,,,,,0,0,2,,,58,96,1
199168,note_off,,,,,512,0,2,,,62,0,1
199680,note_on,,,,,0,0,2,,,65,96,1
199680,note_on,,,,,0,0,3,,,46,96,2
199680,note_off,,,,,512,0,2,,,58,0,1
199680,note_off,,,,,1024,0,3,,,58,0,2
200192,note_off,,,,,512,0,2,,,65,0,1
200192,note_on,,,,,0,0,2,,,58,96,1
200704,note_off,,,,,512,0,2,,,58,0,1
200704,note_on,,,,,0,0,2,,,60,96,1
200704,note_on,,,,,0,0,3,,,53,96,2
200704,note_off,,,,,1024,0,3,,,46,0,2
200960,note_off,,,,,256,0,2,,,60,0,1
200960,note_on,,,,,0,0,2,,,58,96,1
201216,note_on,,,,,0,0,2,,,57,96,1
201216,note_off,,,,,256,0,2,,,58,0,1
201472,note_off,,,,,256,0,2,,,57,0,1
201472,note_on,,,,,0,0,2,,,55,96,1
201728,note_on,,,,,0,0,3,,,57,96,2
201728,note_off,,,,,1024,0,3,,,53,0,2
201728,note_off,,,,,256,0,2,,,55,0,1
201728,note_on,,,,,0,0,2,,,53,96,1
202240,note_off,,,,,512,0,2,,,53,0,1
202240,note_on,,,,,0,0,2,,,60,96,1
202752,note_on,,,,,0,0,2,,,63,96,1
202752,note_off,,,,,512,0,2,,,60,0,1
202752,note_off,,,,,1024,0,3,,,57,0,2
202752,note_on,,,,,0,0,3,,,53,96,2
203264,note_off,,,,,512,0,2,,,63,0,1
203264,note_on,,,,,0,0,2,,,60,96,1
203776,note_off,,,,,512,0,2,,,60,0,1
203776,note_on,,,,,0,0,2,,,69,96,1
204288,note_on,,,,,0,0,2,,,60,96,1
204288,note_off,,,,,512,0,2,,,69,0,1
204800,note_on,,,,,0,0,2,,,62,96,1
204800,note_off,,,,,512,0,2,,,60,0,1
205056,note_on,,,,,0,0,2,,,60,96,1
205056,note_off,,,,,256,0,2,,,62,0,1
205312,note_on,,,,,0,0,2,,,58,96,1
205312,note_off,,,,,256,0,2,,,60,0,1
205568,note_on,,,,,0,0,2,,,57,96,1
205568,note_off,,,,,256,0,2,,,58,0,1
205824,note_on,,,,,0,0,3,,,62,96,2
205824,note_off,,,,,256,0,2,,,57,0,1
205824,note_off,,,,,3072,0,3,,,53,0,2
205824,note_on,,,,,0,0,2,,,58,96,1
206336,note_on,,,,,0,0,2,,,62,96,1
206336,note_off,,,,,512,0,2,,,58,0,1
206848,note_off,,,,,512,0,2,,,62,0,1
206848,note_on,,,,,0,0,3,,,53,96,2
206848,note_off,,,,,1024,0,3,,,62,0,2
206848,note_on,,,,,0,0,2,,,65,96,1
207360,note_on,,,,,0,0,2,,,62,96,1
207360,note_off,,,,,512,0,2,,,65,0,1
207872,note_off,,,,,512,0,2,,,62,0,1
207872,note_on,,,,,0,0,2,,,70,96,1
208384,note_off,,,,,512,0,2,,,70,0,1
208384,note_on,,,,,0,0,2,,,62,96,1
208896,note_off,,,,,512,0,2,,,62,0,1
208896,note_on,,,,,0,0,2,,,63,96,1
209152,note_off,,,,,256,0,2,,,63,0,1
209152,note_on,,,,,0,0,2,,,62,96,1
209408,note_on,,,,,0,0,2,,,60,96,1
209408,note_off,,,,,256,0,2,,,62,0,1
209664,note_on,,,,,0,0,2,,,58,96,1
209664,note_off,,,,,256,0,2,,,60,0,1
209920,note_on,,,,,0,0,2,,,60,96,1
209920,note_off,,,,,256,0,2,,,58,0,1
209920,note_on,,,,,0,0,3,,,60,96,2
209920,note_off,,,,,3072,0,3,,,53,0,2
210432,note_on,,,,,0,0,2,,,63,96,1
210432,note_off,,,,,512,0,2,,,60,0,1
210944,note_off,,,,,512,0,2,,,63,0,1
210944,note_on,,,,,0,0,2,,,69,96,1
210944,note_on,,,,,0,0,3,,,53,96,2
210944,note_off,,,,,1024,0,3,,,60,0,2
211456,note_on,,,,,0,0,2,,,63,96,1
211456,note_off,,,,,512,0,2,,,69,0,1
211968,note_on,,,,,0,0,2,,,72,96,1
211968,note_off,,,,,512,0,2,,,63,0,1
212480,note_on,,,,,0,0,2,,,63,96,1
212480,note_off,,,,,512,0,2,,,72,0,1
212992,note_off,,,,,512,0,2,,,63,0,1
212992,note_on,,,,,0,0,2,,,65,96,1
213248,note_off,,,,,256,0,2,,,65,0,1
213248,note_on,,,,,0,0,2,,,63,96,1
213504,note_off,,,,,256,0,2,,,63,0,1
213504,note_on,,,,,0,0,2,,,62,96,1
213760,note_on,,,,,0,0,2,,,60,96,1
213760,note_off,,,,,256,0,2,,,62,0,1
214016,note_on,,,,,0,0,2,,,62,96,1
214016,note_off,,,,,256,0,2,,,60,0,1
214016,note_on,,,,,0,0,3,,,58,96,2
214016,note_off,,,,,3072,0,3,,,53,0,2
214528,note_on,,,,,0,0,2,,,65,96,1
214528,note_off,,,,,512,0,2,,,62,0,1
215040,note_off,,,,,1024,0,3,,,58,0,2
215040,note_on,,,,,0,0,2,,,70,96,1
215040,note_off,,,,,512,0,2,,,65,0,1
215040,note_on,,,,,0,0,3,,,55,96,2
215296,note_on,,,,,0,0,2,,,62,96,1
215296,note_off,,,,,256,0,2,,,70,0,1
215552,note_on,,,,,0,0,2,,,70,96,1
215552,note_off,,,,,256,0,2,,,62,0,1
215808,note_off,,,,,256,0,2,,,70,0,1
215808,note_on,,,,,0,0,2,,,62,96,1
216064,note_off,,,,,1024,0,3,,,55,0,2
216064,note_on,,,,,0,0,3,,,51,96,2
216064,note_off,,,,,256,0,2,,,62,0,1
216064,note_on,,,,,0,0,2,,,60,96,1
216320,note_off,,,,,256,0,2,,,60,0,1
216320,note_on,,,,,0,0,2,,,70,96,1
216576,note_off,,,,,512,0,3,,,51,0,2
216576,note_off,,,,,256,0,2,,,70,0,1
216576,note_on,,,,,0,0,2,,,60,96,1
216576,note_on,,,,,0,0,3,,,48,96,2
216832,note_off,,,,,256,0,2,,,60,0,1
216832,note_on,,,,,0,0,2,,,70,96,1
217088,note_off,,,,,256,0,2,,,70,0,1
217088,note_on,,,,,0,0,2,,,69,96,1
217088,note_on,,,,,0,0,3,,,53,96,2
217088,note_off,,,,,512,0,3,,,48,0,2
217344,note_off,,,,,256,0,2,,,69,0,1
217344,note_on,,,,,0,0,2,,,60,96,1
217600,note_off,,,,,256,0,2,,,60,0,1
217600,note_on,,,,,0,0,2,,,69,96,1
217856,note_off,,,,,256,0,2,,,69,0,1
217856,note_on,,,,,0,0,2,,,60,96,1
218112,note_on,,,,,0,0,3,,,50,96,2
218112,note_off,,,,,1024,0,3,,,53,0,2
218112,note_off,,,,,256,0,2,,,60,0,1
218112,note_on,,,,,0,0,2,,,58,96,1
218368,note_on,,,,,0,0,2,,,68,96,1
218368,note_off,,,,,256,0,2,,,58,0,1
218624,note_off,,,,,512,0,3,,,50,0,2
218624,note_on,,,,,0,0,2,,,58,96,1
218624,note_off,,,,,256,0,2,,,68,0,1
218624,note_on,,,,,0,0,3,,,46,96,2
218880,note_on,,,,,0,0,2,,,68,96,1
218880,note_off,,,,,256,0,2,,,58,0,1
219136,note_on,,,,,0,0,2,,,67,96,1
219136,note_on,,,,,0,0,3,,,51,96,2
219136,note_off,,,,,256,0,2,,,68,0,1
219136,note_off,,,,,512,0,3,,,46,0,2
219392,note_off,,,,,256,0,2,,,67,0,1
219392,note_on,,,,,0,0,2,,,58,96,1
219648,note_off,,,,,256,0,2,,,58,0,1
219648,note_on,,,,,0,0,2,,,67,96,1
219904,note_off,,,,,256,0,2,,,67,0,1
219904,note_on,,,,,0,0,2,,,58,96,1
220160,note_off,,,,,256,0,2,,,58,0,1
220160,note_on,,,,,0,0,2,,,57,96,1
220160,note_on,,,,,0,0,3,,,48,96,2
220160,note_off,,,,,1024,0,3,,,51,0,2
220416,note_on,,,,,0,0,2,,,67,96,1
220416,note_off,,,,,256,0,2,,,57,0,1
220672,note_off,,,,,256,0,2,,,67,0,1
220672,note_on,,,,,0,0,2,,,57,96,1
220672,note_off,,,,,512,0,3,,,48,0,2
220672,note_on,,,,,0,0,3,,,45,96,2
220928,note_on,,,,,0,0,2,,,67,96,1
220928,note_off,,,,,256,0,2,,,57,0,1
221184,note_on,,,,,0,0,2,,,65,96,1
221184,note_off,,,,,256,0,2,,,67,0,1
221184,note_off,,,,,512,0,3,,,45,0,2
221184,note_on,,,,,0,0,3,,,50,96,2
221440,note_off,,,,,256,0,2,,,65,0,1
221440,note_on,,,,,0,0,2,,,57,96,1
221696,note_on,,,,,0,0,2,,,65,96,1
221696,note_off,,,,,256,0,2,,,57,0,1
221952,note_off,,,,,256,0,2,,,65,0,1
221952,note_on,,,,,0,0,2,,,57,96,1
222208,note_on,,,,,0,0,3,,,46,96,2
222208,note_off,,,,,1024,0,3,,,50,0,2
222208,note_off,,,,,256,0,2,,,57,0,1
222208,note_on,,,,,0,0,2,,,55,96,1
222464,note_on,,,,,0,0,2,,,58,96,1
222464,note_off,,,,,256,0,2,,,55,0,1
222720,note_on,,,,,0,0,2,,,60,96,1
222720,note_off,,,,,256,0,2,,,58,0,1
222720,note_on,,,,,0,0,3,,,43,96,2
222720,note_off,,,,,512,0,3,,,46,0,2
222976,note_on,,,,,0,0,2,,,62,96,1
222976,note_off,,,,,256,0,2,,,60,0,1
223232,note_off,,,,,256,0,2,,,62,0,1
223232,note_off,,,,,512,0,3,,,43,0,2
223232,note_on,,,,,0,0,3,,,48,96,2
223232,note_on,,,,,0,0,2,,,63,96,1
223488,note_on,,,,,0,0,2,,,55,96,1
223488,note_off,,,,,256,0,2,,,63,0,1
223744,note_on,,,,,0,0,2,,,63,96,1
223744,note_off,,,,,256,0,2,,,55,0,1
224000,note_on,,,,,0,0,2,,,55,96,1
224000,note_off,,,,,256,0,2,,,63,0,1
224256,note_off,,,,,256,0,2,,,55,0,1
224256,note_off,,,,,1024,0,3,,,48,0,2
224256,note_on,,,,,0,0,3,,,45,96,2
224256,note_on,,,,,0,0,2,,,53,96,1
224512,note_on,,,,,0,0,2,,,63,96,1
224512,note_off,,,,,256,0,2,,,53,0,1
224768,note_off,,,,,512,0,3,,,45,0,2
224768,note_off,,,,,256,0,2,,,63,0,1
224768,note_on,,,,,0,0,2,,,53,96,1
224768,note_on,,,,,0,0,3,,,41,96,2
225024,note_off,,,,,256,0,2,,,53,0,1
225024,note_on,,,,,0,0,2,,,63,96,1
225280,note_off,,,,,256,0,2,,,63,0,1
225280,note_on,,,,,0,0,2,,,62,96,1
225280,note_off,,,,,512,0,3,,,41,0,2
225280,note_on,,,,,0,0,3,,,46,96,2
225536,note_off,,,,,256,0,2,,,62,0,1
225536,note_on,,,,,0,0,2,,,53,96,1
225792,note_off,,,,,256,0,2,,,53,0,1
225792,note_on,,,,,0,0,2,,,62,96,1
226048,note_off,,,,,256,0,2,,,62,0,1
226048,note_on,,,,,0,0,2,,,53,96,1
226304,note_on,,,,,0,0,2,,,51,96,1
226304,note_on,,,,,0,0,3,,,43,96,2
226304,note_off,,,,,1024,0,3,,,46,0,2
226304,note_off,,,,,256,0,2,,,53,0,1
226560,note_off,,,,,256,0,2,,,51,0,1
226560,note_on,,,,,0,0,2,,,62,96,1
226816,note_on,,,,,0,0,2,,,51,96,1
226816,note_off,,,,,256,0,2,,,62,0,1
227072,note_off,,,,,256,0,2,,,51,0,1
227072,note_on,,,,,0,0,2,,,62,96,1
227328,note_off,,,,,256,0,2,,,62,0,1
227328,note_on,,,,,0,0,3,,,45,96,2
227328,note_on,,,,,0,0,2,,,51,96,1
227328,note_off,,,,,1024,0,3,,,43,0,2
227584,note_off,,,,,256,0,2,,,51,0,1
227584,note_on,,,,,0,0,2,,,60,96,1
227840,note_off,,,,,256,0,2,,,60,0,1
227840,note_on,,,,,0,0,2,,,51,96,1
228096,note_on,,,,,0,0,2,,,60,96,1
228096,note_off,,,,,256,0,2,,,51,0,1
228352,note_off,,,,,256,0,2,,,60,0,1
228352,note_off,,,,,1024,0,3,,,45,0,2
228352,note_on,,,,,0,0,3,,,48,96,2
228352,note_on,,,,,0,0,2,,,51,96,1
228608,note_on,,,,,0,0,2,,,58,96,1
228608,note_off,,,,,256,0,2,,,51,0,1
228864,note_off,,,,,256,0,2,,,58,0,1
228864,note_on,,,,,0,0,2,,,51,96,1
229120,note_off,,,,,256,0,2,,,51,0,1
229120,note_on,,,,,0,0,2,,,58,96,1
229376,note_off,,,,,1024,0,3,,,48,0,2
229376,note_on,,,,,0,0,3,,,41,96,2
229376,note_off,,,,,256,0,2,,,58,0,1
229376,note_on,,,,,0,0,2,,,51,96,1
229632,note_off,,,,,256,0,2,,,51,0,1
229632,note_on,,,,,0,0,2,,,57,96,1
229888,note_off,,,,,256,0,2,,,57,0,1
229888,note_on,,,,,0,0,2,,,50,96,1
230144,note_on,,,,,0,0,2,,,57,96,1
230144,note_off,,,,,256,0,2,,,50,0,1
230400,note_off,,,,,256,0,2,,,57,0,1
230400,note_on,,,,,0,0,2,,,51,96,1
230656,note_on,,,,,0,0,2,,,57,96,1
230656,note_off,,,,,256,0,2,,,51,0,1
230912,note_on,,,,,0,0,2,,,55,96,1
230912,note_off,,,,,256,0,2,,,57,0,1
231168,note_on,,,,,0,0,2,,,57,96,1
231168,note_off,,,,,256,0,2,,,55,0,1
231424,note_off,,,,,2048,0,3,,,41,0,2
231424,note_off,,,,,256,0,2,,,57,0,1
231424,note_on,,,,,0,0,2,,,53,96,1
231680,note_on,,,,,0,0,2,,,57,96,1
231680,note_off,,,,,256,0,2,,,53,0,1
231936,note_off,,,,,256,0,2,,,57,0,1
231936,note_on,,,,,0,0,2,,,51,96,1
232192,note_off,,,,,256,0,2,,,51,0,1
232192,note_on,,,,,0,0,2,,,57,96,1
232448,note_on,,,,,1024,0,3,,,53,96,2
232448,note_on,,,,,0,0,2,,,50,96,1
232448,note_off,,,,,256,0,2,,,57,0,1
232704,note_on,,,,,0,0,2,,,57,96,1
232704,note_off,,,,,256,0,2,,,50,0,1
232960,note_on,,,,,0,0,2,,,51,96,1
232960,note_off,,,,,256,0,2,,,57,0,1
233216,note_on,,,,,0,0,2,,,57,96,1
233216,note_off,,,,,256,0,2,,,51,0,1
233472,note_off,,,,,1024,0,3,,,53,0,2
233472,note_on,,,,,0,0,3,,,58,96,2
233472,note_off,,,,,256,0,2,,,57,0,1
233472,note_on,,,,,0,0,2,,,50,96,1
233728,note_off,,,,,256,0,2,,,50,0,1
233728,note_on,,,,,0,0,2,,,53,96,1
233984,note_on,,,,,0,0,2,,,55,96,1
233984,note_off,,,,,256,0,2,,,53,0,1
234240,note_off,,,,,256,0,2,,,55,0,1
234240,note_on,,,,,0,0,2,,,57,96,1
234496,note_off,,,,,256,0,2,,,57,0,1
234496,note_on,,,,,0,0,2,,,58,96,1
234496,note_on,,,,,0,0,3,,,55,96,2
234496,note_off,,,,,1024,0,3,,,58,0,2
234752,note_on,,,,,0,0,2,,,60,96,1
234752,note_off,,,,,256,0,2,,,58,0,1
235008,note_off,,,,,512,0,3,,,55,0,2
235008,note_on,,,,,0,0,3,,,51,96,2
235008,note_on,,,,,0,0,2,,,62,96,1
235008,note_off,,,,,256,0,2,,,60,0,1
235264,note_on,,,,,0,0,2,,,63,96,1
235264,note_off,,,,,256,0,2,,,62,0,1
235520,note_off,,,,,512,0,3,,,51,0,2
235520,note_on,,,,,0,0,3,,,50,96,2
235520,note_off,,,,,256,0,2,,,63,0,1
235520,note_on,,,,,0,0,2,,,65,96,1
236032,note_off,,,,,512,0,2,,,65,0,1
236032,note_on,,,,,0,0,2,,,62,96,1
236288,note_off,,,,,256,0,2,,,62,0,1
236288,note_on,,,,,0,0,2,,,58,96,1
236544,note_off,,,,,1024,0,3,,,50,0,2
236544,note_on,,,,,0,0,3,,,53,96,2
236544,note_off,,,,,256,0,2,,,58,0,1
236544,note_on,,,,,0,0,2,,,53,96,1
237056,note_off,,,,,512,0,2,,,53,0,1
237056,note_on,,,,,0,0,2,,,57,96,1
237568,note_off,,,,,1024,0,3,,,53,0,2
237568,note_off,,,,,512,0,2,,,57,0,1
237568,note_on,,,,,0,0,3,,,46,96,2
237568,note_on,,,,,0,0,2,,,46,96,1
241664,end_of_track,,,,,0,1,2,,,,,
241664,end_of_track,,,,,69632,1,1,,,,,
241664,note_off,,,,,4096,0,3,,,46,0,2
241664,note_off,,,,,4096,0,2,,,46,0,1
241664,end_of_track,,,,,241664,1,0,,,,,
241664,end_of_track,,,,,0,1,3,,,,,
