tick,type,numerator,denominator,clocks_per_click,notated_32nd_notes_per_beat,time,meta,track,key,tempo,note,velocity,channel
0,time_signature,3,4,24,8,0,1,0,,,,,
0,track_name,,,,,0,1,3,,,,,
0,track_name,,,,,0,1,5,,,,,
0,note_on,,,,,0,0,5,,,27,96,4
0,note_on,,,,,0,0,4,,,39,96,3
0,track_name,,,,,0,1,2,,,,,
0,track_name,,,,,0,1,4,,,,,
0,track_name,,,,,0,1,1,,,,,
0,key_signature,,,,,0,1,0,Eb,,,,
0,set_tempo,,,,,0,1,0,,652173,,,
1024,note_on,,,,,0,0,4,,,51,96,3
1024,note_off,,,,,1024,0,5,,,27,0,4
1024,note_on,,,,,1024,0,2,,,67,96,1
1024,note_on,,,,,1024,0,3,,,58,96,2
1024,note_on,,,,,0,0,5,,,39,96,4
1024,note_off,,,,,1024,0,4,,,39,0,3
1792,note_on,,,,,0,0,2,,,68,96,1
1792,note_off,,,,,768,0,2,,,67,0,1
1792,note_off,,,,,768,0,3,,,58,0,2
1792,note_on,,,,,0,0,3,,,60,96,2
2048,note_off,,,,,1024,0,4,,,51,0,3
2048,note_on,,,,,0,0,4,,,46,96,3
2048,note_off,,,,,256,0,2,,,68,0,1
2048,note_on,,,,,0,0,2,,,65,96,1
2048,note_on,,,,,0,0,3,,,56,96,2
2048,note_off,,,,,256,0,3,,,60,0,2
2048,note_on,,,,,0,0,5,,,34,96,4
2048,note_off,,,,,1024,0,5,,,39,0,4
2816,note_off,,,,,768,0,3,,,56,0,2
2816,note_off,,,,,768,0,2,,,65,0,1
2816,note_on,,,,,0,0,2,,,63,96,1
2816,note_on,,,,,0,0,3,,,55,96,2
2944,note_off,,,,,128,0,3,,,55,0,2
2944,note_on,,,,,0,0,3,,,56,96,2
2944,note_off,,,,,128,0,2,,,63,0,1
2944,note_on,,,,,0,0,2,,,65,96,1
3072,note_off,,,,,128,0,2,,,65,0,1
3072,note_on,,,,,0,0,2,,,63,96,1
3072,note_on,,,,,0,0,3,,,55,96,2
3072,note_off,,,,,128,0,3,,,56,0,2
3072,note_on,,,,,0,0,5,,,36,96,4
3072,note_off,,,,,1024,0,5,,,34,0,4
3072,note_off,,,,,1024,0,4,,,46,0,3
3072,note_on,,,,,0,0,4,,,48,96,3
3584,note_off,,,,,512,0,2,,,63,0,1
3584,note_on,,,,,0,0,2,,,65,96,1
4096,note_on,,,,,0,0,5,,,48,96,4
4096,note_off,,,,,1024,0,5,,,36,0,4
4096,note_off,,,,,1024,0,4,,,48,0,3
4096,note_off,,,,,512,0,2,,,65,0,1
4096,note_on,,,,,0,0,2,,,67,96,1
4096,note_on,,,,,0,0,4,,,60,96,3
4096,note_off,,,,,1024,0,3,,,55,0,2
4096,note_on,,,,,0,0,3,,,63,96,2
4608,note_on,,,,,0,0,2,,,68,96,1
4608,note_off,,,,,512,0,2,,,67,0,1
4864,note_on,,,,,0,0,3,,,65,96,2
4864,note_off,,,,,768,0,3,,,63,0,2
5120,note_off,,,,,256,0,3,,,65,0,2
5120,note_on,,,,,0,0,3,,,61,96,2
5120,note_off,,,,,512,0,2,,,68,0,1
5120,note_on,,,,,0,0,2,,,70,96,1
5120,note_on,,,,,0,0,4,,,55,96,3
5120,note_off,,,,,1024,0,5,,,48,0,4
5120,note_on,,,,,0,0,5,,,43,96,4
5120,note_off,,,,,1024,0,4,,,60,0,3
5888,note_on,,,,,0,0,3,,,60,96,2
5888,note_off,,,,,768,0,3,,,61,0,2
6016,note_on,,,,,0,0,3,,,61,96,2
6016,note_off,,,,,128,0,3,,,60,0,2
6144,note_off,,,,,1024,0,4,,,55,0,3
6144,note_on,,,,,0,0,4,,,56,96,3
6144,note_on,,,,,0,0,5,,,44,96,4
6144,note_on,,,,,0,0,3,,,60,96,2
6144,note_off,,,,,128,0,3,,,61,0,2
6144,note_off,,,,,1024,0,5,,,43,0,4
6656,note_on,,,,,0,0,2,,,72,96,1
6656,note_off,,,,,1536,0,2,,,70,0,1
7168,note_on,,,,,0,0,5,,,41,96,4
7168,note_off,,,,,512,0,2,,,72,0,1
7168,note_on,,,,,0,0,2,,,68,96,1
7168,note_off,,,,,1024,0,5,,,44,0,4
7168,note_on,,,,,0,0,4,,,53,96,3
7168,note_off,,,,,1024,0,4,,,56,0,3
7680,note_off,,,,,1536,0,3,,,60,0,2
7680,note_on,,,,,0,0,3,,,58,96,2
8192,note_off,,,,,512,0,3,,,58,0,2
8192,note_on,,,,,0,0,5,,,46,96,4
8192,note_on,,,,,0,0,4,,,58,96,3
8192,note_off,,,,,1024,0,4,,,53,0,3
8192,note_off,,,,,1024,0,5,,,41,0,4
8192,note_on,,,,,0,0,3,,,60,96,2
8704,note_off,,,,,512,0,3,,,60,0,2
8704,note_off,,,,,1536,0,2,,,68,0,1
8704,note_on,,,,,0,0,2,,,67,96,1
8704,note_on,,,,,0,0,3,,,62,96,2
8960,note_on,,,,,0,0,2,,,68,96,1
8960,note_off,,,,,256,0,2,,,67,0,1
9216,note_off,,,,,256,0,2,,,68,0,1
9216,note_off,,,,,1024,0,5,,,46,0,4
9216,note_on,,,,,0,0,4,,,51,96,3
9216,note_on,,,,,0,0,3,,,63,96,2
9216,note_off,,,,,512,0,3,,,62,0,2
9216,note_on,,,,,0,0,2,,,67,96,1
9216,note_off,,,,,1024,0,4,,,58,0,3
9216,note_on,,,,,0,0,5,,,39,96,4
9728,note_off,,,,,512,0,2,,,67,0,1
9728,note_on,,,,,0,0,2,,,65,96,1
10240,note_on,,,,,0,0,5,,,38,96,4
10240,note_on,,,,,0,0,4,,,50,96,3
10240,note_off,,,,,1024,0,4,,,51,0,3
10240,note_on,,,,,0,0,2,,,67,96,1
10240,note_off,,,,,512,0,2,,,65,0,1
10240,note_off,,,,,1024,0,3,,,63,0,2
10240,note_on,,,,,0,0,3,,,58,96,2
10240,note_off,,,,,1024,0,5,,,39,0,4
11008,note_off,,,,,768,0,2,,,67,0,1
11008,note_off,,,,,768,0,3,,,58,0,2
11008,note_on,,,,,0,0,3,,,60,96,2
11008,note_on,,,,,0,0,2,,,68,96,1
11264,note_on,,,,,0,0,5,,,36,96,4
11264,note_off,,,,,1024,0,5,,,38,0,4
11264,note_on,,,,,0,0,3,,,60,96,2
11264,note_off,,,,,256,0,2,,,68,0,1
11264,note_on,,,,,0,0,4,,,48,96,3
11264,note_off,,,,,1024,0,4,,,50,0,3
11264,note_on,,,,,0,0,2,,,68,96,1
11264,note_off,,,,,256,0,3,,,60,0,2
12032,note_on,,,,,0,0,3,,,58,96,2
12032,note_off,,,,,768,0,3,,,60,0,2
12032,note_on,,,,,0,0,2,,,67,96,1
12032,note_off,,,,,768,0,2,,,68,0,1
12160,note_off,,,,,128,0,2,,,67,0,1
12160,note_on,,,,,0,0,2,,,68,96,1
12160,note_off,,,,,128,0,3,,,58,0,2
12160,note_on,,,,,0,0,3,,,60,96,2
12288,note_off,,,,,128,0,2,,,68,0,1
12288,note_on,,,,,0,0,2,,,70,96,1
12288,note_off,,,,,1024,0,4,,,48,0,3
12288,note_on,,,,,0,0,4,,,46,96,3
12288,note_off,,,,,128,0,3,,,60,0,2
12288,note_on,,,,,0,0,3,,,62,96,2
12288,note_on,,,,,0,0,5,,,34,96,4
12288,note_off,,,,,1024,0,5,,,36,0,4
12800,note_on,,,,,0,0,3,,,60,96,2
12800,note_off,,,,,512,0,3,,,62,0,2
13312,note_on,,,,,0,0,3,,,62,96,2
13312,note_off,,,,,512,0,3,,,60,0,2
14080,note_on,,,,,0,0,3,,,63,96,2
14080,note_off,,,,,768,0,3,,,62,0,2
14336,note_on,,,,,0,0,5,,,36,96,4
14336,note_off,,,,,2048,0,5,,,34,0,4
14336,note_off,,,,,2048,0,4,,,46,0,3
14336,note_on,,,,,0,0,4,,,48,96,3
14336,note_on,,,,,0,0,3,,,63,96,2
14336,note_off,,,,,256,0,3,,,63,0,2
15104,note_on,,,,,0,0,3,,,62,96,2
15104,note_off,,,,,768,0,3,,,63,0,2
15232,note_on,,,,,0,0,3,,,63,96,2
15232,note_off,,,,,128,0,3,,,62,0,2
15360,note_on,,,,,0,0,5,,,38,96,4
15360,note_on,,,,,0,0,3,,,65,96,2
15360,note_off,,,,,1024,0,5,,,36,0,4
15360,note_off,,,,,1024,0,4,,,48,0,3
15360,note_on,,,,,0,0,4,,,50,96,3
15360,note_off,,,,,128,0,3,,,63,0,2
15872,note_off,,,,,3584,0,2,,,70,0,1
15872,note_on,,,,,0,0,2,,,68,96,1
16384,note_on,,,,,0,0,5,,,39,96,4
16384,note_on,,,,,0,0,4,,,51,96,3
16384,note_off,,,,,1024,0,5,,,38,0,4
16384,note_off,,,,,1024,0,4,,,50,0,3
16384,note_off,,,,,512,0,2,,,68,0,1
16384,note_on,,,,,0,0,2,,,67,96,1
16896,note_on,,,,,0,0,3,,,63,96,2
16896,note_off,,,,,1536,0,3,,,65,0,2
17408,note_on,,,,,0,0,5,,,41,96,4
17408,note_off,,,,,1024,0,5,,,39,0,4
17408,note_on,,,,,0,0,2,,,65,96,1
17408,note_on,,,,,0,0,4,,,53,96,3
17408,note_on,,,,,0,0,3,,,62,96,2
17408,note_off,,,,,512,0,3,,,63,0,2
17408,note_off,,,,,1024,0,2,,,67,0,1
17408,note_off,,,,,1024,0,4,,,51,0,3
17920,note_off,,,,,512,0,2,,,65,0,1
17920,note_on,,,,,0,0,2,,,63,96,1
17920,note_on,,,,,0,0,3,,,60,96,2
17920,note_off,,,,,512,0,3,,,62,0,2
18432,note_off,,,,,512,0,3,,,60,0,2
18432,note_on,,,,,0,0,3,,,58,96,2
18432,note_off,,,,,512,0,2,,,63,0,1
18432,note_on,,,,,0,0,2,,,62,96,1
18944,note_off,,,,,512,0,2,,,62,0,1
18944,note_on,,,,,0,0,2,,,68,96,1
19456,note_off,,,,,2048,0,4,,,53,0,3
19456,note_on,,,,,0,0,4,,,51,96,3
19456,note_off,,,,,2048,0,5,,,41,0,4
19456,note_on,,,,,0,0,5,,,39,96,4
19456,note_off,,,,,512,0,2,,,68,0,1
19456,note_on,,,,,0,0,2,,,67,96,1
19968,note_off,,,,,1536,0,3,,,58,0,2
19968,note_on,,,,,0,0,2,,,65,96,1
19968,note_off,,,,,512,0,2,,,67,0,1
19968,note_on,,,,,0,0,3,,,55,96,2
20480,note_on,,,,,0,0,3,,,60,96,2
20480,note_off,,,,,512,0,3,,,55,0,2
20480,note_off,,,,,512,0,2,,,65,0,1
20480,note_on,,,,,0,0,2,,,63,96,1
20992,note_off,,,,,512,0,2,,,63,0,1
20992,note_on,,,,,0,0,2,,,67,96,1
21504,note_off,,,,,2048,0,5,,,39,0,4
21504,note_on,,,,,0,0,4,,,50,96,3
21504,note_off,,,,,2048,0,4,,,51,0,3
21504,note_on,,,,,0,0,5,,,38,96,4
21504,note_on,,,,,0,0,2,,,65,96,1
21504,note_off,,,,,512,0,2,,,67,0,1
22016,note_on,,,,,0,0,2,,,63,96,1
22016,note_off,,,,,512,0,2,,,65,0,1
22016,note_on,,,,,0,0,3,,,53,96,2
22016,note_off,,,,,1536,0,3,,,60,0,2
22528,note_on,,,,,0,0,2,,,62,96,1
22528,note_on,,,,,0,0,3,,,58,96,2
22528,note_off,,,,,512,0,3,,,53,0,2
22528,note_off,,,,,512,0,2,,,63,0,1
23040,note_on,,,,,0,0,5,,,44,96,4
23040,note_off,,,,,1536,0,4,,,50,0,3
23040,note_on,,,,,0,0,4,,,56,96,3
23040,note_off,,,,,512,0,2,,,62,0,1
23040,note_on,,,,,0,0,2,,,65,96,1
23040,note_off,,,,,1536,0,5,,,38,0,4
23552,note_on,,,,,0,0,5,,,43,96,4
23552,note_off,,,,,512,0,5,,,44,0,4
23552,note_off,,,,,512,0,4,,,56,0,3
23552,note_on,,,,,0,0,4,,,55,96,3
23552,note_off,,,,,512,0,2,,,65,0,1
23552,note_on,,,,,0,0,2,,,63,96,1
24064,note_off,,,,,512,0,5,,,43,0,4
24064,note_on,,,,,0,0,5,,,41,96,4
24064,note_on,,,,,0,0,2,,,62,96,1
24064,note_off,,,,,512,0,2,,,63,0,1
24064,note_on,,,,,0,0,4,,,53,96,3
24064,note_off,,,,,512,0,4,,,55,0,3
24576,note_on,,,,,0,0,2,,,60,96,1
24576,note_off,,,,,512,0,2,,,62,0,1
24576,note_off,,,,,512,0,5,,,41,0,4
24576,note_on,,,,,0,0,4,,,51,96,3
24576,note_off,,,,,512,0,4,,,53,0,3
24576,note_on,,,,,0,0,5,,,39,96,4
25088,note_on,,,,,0,0,2,,,62,96,1
25088,note_off,,,,,512,0,2,,,60,0,1
25088,note_off,,,,,512,0,4,,,51,0,3
25088,note_on,,,,,0,0,4,,,50,96,3
25088,note_on,,,,,0,0,5,,,38,96,4
25088,note_off,,,,,512,0,5,,,39,0,4
25600,note_off,,,,,3072,0,3,,,58,0,2
25600,note_on,,,,,0,0,2,,,63,96,1
25600,note_off,,,,,512,0,2,,,62,0,1
25600,note_on,,,,,0,0,3,,,57,96,2
25600,note_off,,,,,512,0,4,,,50,0,3
25600,note_on,,,,,0,0,4,,,48,96,3
25600,note_on,,,,,0,0,5,,,36,96,4
25600,note_off,,,,,512,0,5,,,38,0,4
26112,note_on,,,,,0,0,5,,,43,96,4
26112,note_off,,,,,512,0,5,,,36,0,4
26112,note_off,,,,,512,0,4,,,48,0,3
26112,note_on,,,,,0,0,4,,,55,96,3
26624,note_on,,,,,0,0,5,,,41,96,4
26624,note_on,,,,,0,0,2,,,62,96,1
26624,note_off,,,,,512,0,5,,,43,0,4
26624,note_off,,,,,512,0,4,,,55,0,3
26624,note_off,,,,,1024,0,2,,,63,0,1
26624,note_on,,,,,0,0,4,,,53,96,3
27136,note_on,,,,,0,0,4,,,51,96,3
27136,note_on,,,,,0,0,3,,,55,96,2
27136,note_off,,,,,1536,0,3,,,57,0,2
27136,note_off,,,,,512,0,5,,,41,0,4
27136,note_on,,,,,0,0,5,,,39,96,4
27136,note_off,,,,,512,0,4,,,53,0,3
27136,note_on,,,,,0,0,2,,,60,96,1
27136,note_off,,,,,512,0,2,,,62,0,1
27392,note_off,,,,,256,0,3,,,55,0,2
27392,note_on,,,,,0,0,3,,,57,96,2
27648,note_off,,,,,256,0,3,,,57,0,2
27648,note_off,,,,,512,0,4,,,51,0,3
27648,note_on,,,,,0,0,2,,,58,96,1
27648,note_on,,,,,0,0,3,,,58,96,2
27648,note_on,,,,,0,0,4,,,50,96,3
27648,note_off,,,,,512,0,2,,,60,0,1
27648,note_off,,,,,512,0,5,,,39,0,4
27648,note_on,,,,,0,0,5,,,38,96,4
28160,note_on,,,,,0,0,3,,,56,96,2
28160,note_off,,,,,512,0,3,,,58,0,2
28672,note_on,,,,,0,0,3,,,55,96,2
28672,note_on,,,,,0,0,4,,,51,96,3
28672,note_off,,,,,1024,0,4,,,50,0,3
28672,note_on,,,,,0,0,5,,,39,96,4
28672,note_off,,,,,512,0,3,,,56,0,2
28672,note_off,,,,,1024,0,5,,,38,0,4
29184,note_off,,,,,1536,0,2,,,58,0,1
29184,note_on,,,,,0,0,2,,,60,96,1
29440,note_off,,,,,768,0,3,,,55,0,2
29440,note_on,,,,,0,0,3,,,56,96,2
29696,note_on,,,,,0,0,3,,,53,96,2
29696,note_on,,,,,0,0,2,,,62,96,1
29696,note_off,,,,,512,0,2,,,60,0,1
29696,note_on,,,,,0,0,5,,,35,96,4
29696,note_off,,,,,1024,0,5,,,39,0,4
29696,note_off,,,,,256,0,3,,,56,0,2
29696,note_off,,,,,1024,0,4,,,51,0,3
29696,note_on,,,,,0,0,4,,,47,96,3
30464,note_off,,,,,768,0,3,,,53,0,2
30464,note_on,,,,,0,0,3,,,51,96,2
30592,note_on,,,,,0,0,3,,,53,96,2
30592,note_off,,,,,128,0,3,,,51,0,2
30720,note_off,,,,,1024,0,4,,,47,0,3
30720,note_on,,,,,0,0,3,,,51,96,2
30720,note_on,,,,,0,0,4,,,48,96,3
30720,note_on,,,,,0,0,2,,,60,96,1
30720,note_off,,,,,128,0,3,,,53,0,2
30720,note_off,,,,,1024,0,2,,,62,0,1
30720,note_on,,,,,0,0,5,,,36,96,4
30720,note_off,,,,,1024,0,5,,,35,0,4
30720,note_on,,,,,30720,0,1,,,67,96,0
31232,note_off,,,,,512,0,3,,,51,0,2
31232,note_off,,,,,512,0,2,,,60,0,1
31232,note_on,,,,,0,0,3,,,53,96,2
31232,note_on,,,,,0,0,2,,,62,96,1
31744,note_off,,,,,512,0,3,,,53,0,2
31744,note_on,,,,,0,0,5,,,36,96,4
31744,note_on,,,,,0,0,3,,,55,96,2
31744,note_off,,,,,1024,0,5,,,36,0,4
31744,note_off,,,,,1024,0,4,,,48,0,3
31744,note_on,,,,,0,0,2,,,63,96,1
31744,note_off,,,,,512,0,2,,,62,0,1
31744,note_on,,,,,0,0,4,,,48,96,3
32256,note_on,,,,,0,0,3,,,56,96,2
32256,note_off,,,,,512,0,3,,,55,0,2
32768,note_off,,,,,1024,0,4,,,48,0,3
32768,note_off,,,,,512,0,3,,,56,0,2
32768,note_off,,,,,1024,0,5,,,36,0,4
32768,note_on,,,,,0,0,4,,,43,96,3
32768,note_on,,,,,0,0,3,,,58,96,2
32768,note_on,,,,,0,0,5,,,31,96,4
33280,note_on,,,,,0,0,3,,,51,96,2
33280,note_off,,,,,512,0,3,,,58,0,2
33792,note_off,,,,,1024,0,4,,,43,0,3
33792,note_on,,,,,0,0,4,,,44,96,3
33792,note_on,,,,,0,0,1,,,65,96,0
33792,note_off,,,,,3072,0,1,,,67,0,0
33792,note_on,,,,,0,0,3,,,60,96,2
33792,note_on,,,,,0,0,5,,,32,96,4
33792,note_off,,,,,1024,0,5,,,31,0,4
33792,note_off,,,,,512,0,3,,,51,0,2
34304,note_off,,,,,512,0,3,,,60,0,2
34304,note_on,,,,,0,0,3,,,58,96,2
34816,note_off,,,,,1024,0,4,,,44,0,3
34816,note_on,,,,,0,0,2,,,62,96,1
34816,note_off,,,,,3072,0,2,,,63,0,1
34816,note_off,,,,,1024,0,5,,,32,0,4
34816,note_on,,,,,0,0,5,,,29,96,4
34816,note_on,,,,,0,0,4,,,41,96,3
34816,note_off,,,,,512,0,3,,,58,0,2
34816,note_on,,,,,0,0,3,,,56,96,2
35328,note_off,,,,,512,0,2,,,62,0,1
35328,note_off,,,,,512,0,3,,,56,0,2
35328,note_on,,,,,0,0,3,,,60,96,2
35328,note_on,,,,,0,0,2,,,60,96,1
35840,note_off,,,,,1024,0,5,,,29,0,4
35840,note_off,,,,,512,0,3,,,60,0,2
35840,note_off,,,,,1024,0,4,,,41,0,3
35840,note_off,,,,,512,0,2,,,60,0,1
35840,note_on,,,,,0,0,2,,,62,96,1
35840,note_on,,,,,0,0,3,,,58,96,2
35840,note_on,,,,,0,0,4,,,46,96,3
35840,note_on,,,,,0,0,5,,,34,96,4
36352,note_off,,,,,512,0,3,,,58,0,2
36352,note_on,,,,,0,0,3,,,56,96,2
36864,note_on,,,,,0,0,1,,,63,96,0
36864,note_off,,,,,3072,0,1,,,65,0,0
36864,note_off,,,,,512,0,3,,,56,0,2
36864,note_on,,,,,0,0,4,,,36,96,3
36864,note_off,,,,,1024,0,4,,,46,0,3
36864,note_off,,,,,1024,0,5,,,34,0,4
36864,note_on,,,,,0,0,3,,,55,96,2
36864,note_on,,,,,0,0,5,,,24,96,4
37376,note_on,,,,,0,0,2,,,60,96,1
37376,note_off,,,,,1536,0,2,,,62,0,1
37632,note_off,,,,,256,0,2,,,60,0,1
37632,note_on,,,,,0,0,2,,,59,96,1
37888,note_on,,,,,0,0,2,,,60,96,1
37888,note_off,,,,,256,0,2,,,59,0,1
37888,note_off,,,,,1024,0,4,,,36,0,3
37888,note_on,,,,,0,0,4,,,48,96,3
37888,note_off,,,,,1024,0,5,,,24,0,4
37888,note_on,,,,,0,0,5,,,36,96,4
38400,note_on,,,,,0,0,3,,,56,96,2
38400,note_off,,,,,1536,0,3,,,55,0,2
38912,note_off,,,,,1024,0,4,,,48,0,3
38912,note_off,,,,,1024,0,5,,,36,0,4
38912,note_on,,,,,0,0,5,,,38,96,4
38912,note_off,,,,,2048,0,1,,,63,0,0
38912,note_on,,,,,0,0,1,,,65,96,0
38912,note_off,,,,,1024,0,2,,,60,0,1
38912,note_on,,,,,0,0,2,,,58,96,1
38912,note_on,,,,,0,0,4,,,50,96,3
38912,note_on,,,,,0,0,3,,,55,96,2
38912,note_off,,,,,512,0,3,,,56,0,2
39424,note_on,,,,,0,0,3,,,53,96,2
39424,note_off,,,,,512,0,3,,,55,0,2
39680,note_on,,,,,0,0,1,,,67,96,0
39680,note_off,,,,,768,0,1,,,65,0,0
39808,note_on,,,,,0,0,1,,,68,96,0
39808,note_off,,,,,128,0,1,,,67,0,0
39936,note_on,,,,,0,0,4,,,51,96,3
39936,note_off,,,,,512,0,3,,,53,0,2
39936,note_off,,,,,1024,0,5,,,38,0,4
39936,note_on,,,,,0,0,3,,,51,96,2
39936,note_off,,,,,1024,0,4,,,50,0,3
39936,note_on,,,,,0,0,5,,,39,96,4
39936,note_off,,,,,128,0,1,,,68,0,0
39936,note_on,,,,,0,0,1,,,67,96,0
40448,note_off,,,,,1536,0,2,,,58,0,1
40448,note_on,,,,,0,0,2,,,63,96,1
40704,note_off,,,,,768,0,1,,,67,0,0
40704,note_on,,,,,0,0,1,,,68,96,0
40960,note_off,,,,,1024,0,4,,,51,0,3
40960,note_off,,,,,512,0,2,,,63,0,1
40960,note_on,,,,,0,0,2,,,62,96,1
40960,note_on,,,,,0,0,4,,,53,96,3
40960,note_off,,,,,1024,0,3,,,51,0,2
40960,note_on,,,,,0,0,5,,,41,96,4
40960,note_on,,,,,0,0,1,,,68,96,0
40960,note_off,,,,,256,0,1,,,68,0,0
40960,note_off,,,,,1024,0,5,,,39,0,4
41472,note_on,,,,,0,0,2,,,60,96,1
41472,note_off,,,,,512,0,2,,,62,0,1
41728,note_on,,,,,0,0,1,,,67,96,0
41728,note_off,,,,,768,0,1,,,68,0,0
41856,note_off,,,,,128,0,1,,,67,0,0
41856,note_on,,,,,0,0,1,,,68,96,0
41984,note_off,,,,,512,0,2,,,60,0,1
41984,note_on,,,,,0,0,2,,,58,96,1
41984,note_off,,,,,1024,0,5,,,41,0,4
41984,note_off,,,,,1024,0,4,,,53,0,3
41984,note_on,,,,,0,0,5,,,43,96,4
41984,note_on,,,,,0,0,1,,,70,96,0
41984,note_off,,,,,128,0,1,,,68,0,0
41984,note_on,,,,,0,0,4,,,55,96,3
42496,note_on,,,,,0,0,2,,,67,96,1
42496,note_off,,,,,512,0,2,,,58,0,1
43008,note_on,,,,,0,0,2,,,65,96,1
43008,note_off,,,,,512,0,2,,,67,0,1
43008,note_on,,,,,0,0,5,,,44,96,4
43008,note_off,,,,,1024,0,4,,,55,0,3
43008,note_on,,,,,0,0,4,,,56,96,3
43008,note_off,,,,,1024,0,5,,,43,0,4
43264,note_on,,,,,0,0,1,,,73,96,0
43264,note_off,,,,,1280,0,1,,,70,0,0
43520,note_on,,,,,0,0,2,,,63,96,1
43520,note_on,,,,,0,0,1,,,72,96,0
43520,note_off,,,,,256,0,1,,,73,0,0
43520,note_off,,,,,512,0,2,,,65,0,1
43776,note_on,,,,,0,0,1,,,70,96,0
43776,note_off,,,,,256,0,1,,,72,0,0
44032,note_off,,,,,1024,0,4,,,56,0,3
44032,note_on,,,,,0,0,1,,,68,96,0
44032,note_off,,,,,256,0,1,,,70,0,0
44032,note_off,,,,,512,0,2,,,63,0,1
44032,note_on,,,,,0,0,2,,,62,96,1
44032,note_off,,,,,1024,0,5,,,44,0,4
44032,note_on,,,,,0,0,5,,,41,96,4
44032,note_on,,,,,0,0,4,,,53,96,3
44544,note_off,,,,,512,0,2,,,62,0,1
44544,note_on,,,,,0,0,2,,,63,96,1
45056,note_on,,,,,0,0,5,,,46,96,4
45056,note_off,,,,,1024,0,5,,,41,0,4
45056,note_off,,,,,1024,0,4,,,53,0,3
45056,note_on,,,,,0,0,4,,,58,96,3
45056,note_on,,,,,0,0,2,,,60,96,1
45056,note_off,,,,,512,0,2,,,63,0,1
45568,note_on,,,,,0,0,2,,,62,96,1
45568,note_off,,,,,512,0,2,,,60,0,1
45568,note_on,,,,,0,0,1,,,67,96,0
45568,note_off,,,,,1536,0,1,,,68,0,0
45824,note_on,,,,,0,0,1,,,68,96,0
45824,note_off,,,,,256,0,1,,,67,0,0
46080,note_off,,,,,512,0,2,,,62,0,1
46080,note_on,,,,,0,0,5,,,39,96,4
46080,note_off,,,,,1024,0,5,,,46,0,4
46080,note_on,,,,,0,0,2,,,63,96,1
46080,note_on,,,,,0,0,4,,,51,96,3
46080,note_off,,,,,1024,0,4,,,58,0,3
46080,note_on,,,,,0,0,1,,,67,96,0
46080,note_off,,,,,256,0,1,,,68,0,0
46592,note_off,,,,,512,0,2,,,63,0,1
46592,note_on,,,,,0,0,2,,,65,96,1
47104,note_on,,,,,6144,0,3,,,67,96,2
47104,note_on,,,,,0,0,2,,,67,96,1
47104,note_off,,,,,512,0,2,,,65,0,1
47616,note_on,,,,,0,0,2,,,68,96,1
47616,note_off,,,,,512,0,2,,,67,0,1
48128,note_on,,,,,0,0,5,,,38,96,4
48128,note_on,,,,,0,0,2,,,71,96,1
48128,note_off,,,,,512,0,2,,,68,0,1
48128,note_off,,,,,2048,0,5,,,39,0,4
48128,note_on,,,,,0,0,3,,,65,96,2
48128,note_on,,,,,0,0,4,,,50,96,3
48128,note_off,,,,,2048,0,4,,,51,0,3
48128,note_off,,,,,1024,0,3,,,67,0,2
48896,note_off,,,,,768,0,3,,,65,0,2
48896,note_on,,,,,0,0,3,,,63,96,2
49024,note_off,,,,,128,0,3,,,63,0,2
49024,note_on,,,,,0,0,3,,,65,96,2
49152,note_on,,,,,0,0,2,,,72,96,1
49152,note_on,,,,,0,0,5,,,36,96,4
49152,note_off,,,,,1024,0,4,,,50,0,3
49152,note_on,,,,,0,0,4,,,48,96,3
49152,note_off,,,,,1024,0,5,,,38,0,4
49152,note_off,,,,,1024,0,2,,,71,0,1
49152,note_off,,,,,128,0,3,,,65,0,2
49152,note_on,,,,,0,0,3,,,63,96,2
49664,note_on,,,,,0,0,3,,,60,96,2
49664,note_on,,,,,0,0,2,,,63,96,1
49664,note_off,,,,,512,0,2,,,72,0,1
49664,note_off,,,,,512,0,3,,,63,0,2
50176,note_off,,,,,512,0,3,,,60,0,2
50176,note_on,,,,,0,0,3,,,62,96,2
50176,note_on,,,,,0,0,5,,,48,96,4
50176,note_off,,,,,1024,0,5,,,36,0,4
50176,note_on,,,,,0,0,2,,,65,96,1
50176,note_off,,,,,512,0,2,,,63,0,1
50176,note_on,,,,,0,0,4,,,60,96,3
50176,note_off,,,,,1024,0,4,,,48,0,3
50688,note_off,,,,,512,0,3,,,62,0,2
50688,note_on,,,,,0,0,3,,,65,96,2
50944,note_on,,,,,0,0,2,,,67,96,1
50944,note_off,,,,,768,0,2,,,65,0,1
51200,note_on,,,,,0,0,5,,,46,96,4
51200,note_off,,,,,1024,0,5,,,48,0,4
51200,note_on,,,,,0,0,2,,,67,96,1
51200,note_off,,,,,512,0,3,,,65,0,2
51200,note_off,,,,,5120,0,1,,,67,0,0
51200,note_off,,,,,1024,0,4,,,60,0,3
51200,note_off,,,,,256,0,2,,,67,0,1
51200,note_on,,,,,0,0,4,,,58,96,3
51200,note_on,,,,,0,0,3,,,63,96,2
51712,note_on,,,,,0,0,3,,,62,96,2
51712,note_off,,,,,512,0,3,,,63,0,2
51968,note_on,,,,,0,0,2,,,65,96,1
51968,note_off,,,,,768,0,2,,,67,0,1
52096,note_on,,,,,0,0,2,,,67,96,1
52096,note_off,,,,,128,0,2,,,65,0,1
52224,note_on,,,,,0,0,3,,,60,96,2
52224,note_on,,,,,0,0,4,,,56,96,3
52224,note_off,,,,,1024,0,5,,,46,0,4
52224,note_off,,,,,512,0,3,,,62,0,2
52224,note_off,,,,,1024,0,4,,,58,0,3
52224,note_on,,,,,0,0,5,,,44,96,4
52224,note_off,,,,,128,0,2,,,67,0,1
52224,note_on,,,,,0,0,2,,,68,96,1
52736,note_off,,,,,512,0,3,,,60,0,2
52736,note_on,,,,,0,0,3,,,58,96,2
53248,note_on,,,,,0,0,4,,,44,96,3
53248,note_off,,,,,512,0,3,,,58,0,2
53248,note_on,,,,,0,0,3,,,60,96,2
53248,note_on,,,,,0,0,5,,,32,96,4
53248,note_off,,,,,1024,0,5,,,44,0,4
53248,note_off,,,,,1024,0,4,,,56,0,3
54016,note_off,,,,,768,0,3,,,60,0,2
54016,note_on,,,,,0,0,3,,,61,96,2
54272,note_off,,,,,1024,0,4,,,44,0,3
54272,note_off,,,,,1024,0,5,,,32,0,4
54272,note_off,,,,,256,0,3,,,61,0,2
54272,note_on,,,,,0,0,4,,,46,96,3
54272,note_on,,,,,0,0,3,,,61,96,2
54272,note_on,,,,,0,0,5,,,34,96,4
55040,note_off,,,,,768,0,3,,,61,0,2
55040,note_on,,,,,0,0,3,,,60,96,2
55168,note_on,,,,,0,0,3,,,61,96,2
55168,note_off,,,,,128,0,3,,,60,0,2
55296,note_on,,,,,0,0,5,,,36,96,4
55296,note_off,,,,,128,0,3,,,61,0,2
55296,note_on,,,,,0,0,4,,,48,96,3
55296,note_on,,,,,0,0,3,,,63,96,2
55296,note_off,,,,,1024,0,5,,,34,0,4
55296,note_off,,,,,1024,0,4,,,46,0,3
55808,note_off,,,,,3584,0,2,,,68,0,1
55808,note_on,,,,,0,0,2,,,72,96,1
56320,note_off,,,,,1024,0,4,,,48,0,3
56320,note_on,,,,,0,0,4,,,49,96,3
56320,note_off,,,,,1024,0,3,,,63,0,2
56320,note_off,,,,,512,0,2,,,72,0,1
56320,note_on,,,,,0,0,2,,,70,96,1
56320,note_on,,,,,0,0,5,,,37,96,4
56320,note_off,,,,,1024,0,5,,,36,0,4
56320,note_on,,,,,0,0,3,,,65,96,2
56832,note_on,,,,,0,0,2,,,68,96,1
56832,note_off,,,,,512,0,2,,,70,0,1
57344,note_on,,,,,0,0,3,,,58,96,2
57344,note_on,,,,,0,0,2,,,67,96,1
57344,note_off,,,,,512,0,2,,,68,0,1
57344,note_off,,,,,1024,0,3,,,65,0,2
57344,note_on,,,,,0,0,4,,,51,96,3
57344,note_off,,,,,1024,0,5,,,37,0,4
57344,note_on,,,,,0,0,5,,,39,96,4
57344,note_off,,,,,1024,0,4,,,49,0,3
57856,note_on,,,,,0,0,2,,,70,96,1
57856,note_off,,,,,512,0,2,,,67,0,1
58368,note_on,,,,,0,0,3,,,60,96,2
58368,note_on,,,,,0,0,2,,,68,96,1
58368,note_off,,,,,512,0,2,,,70,0,1
58368,note_off,,,,,1024,0,3,,,58,0,2
58880,note_off,,,,,512,0,2,,,68,0,1
58880,note_on,,,,,0,0,2,,,67,96,1
59392,note_off,,,,,512,0,2,,,67,0,1
59392,note_on,,,,,0,0,4,,,49,96,3
59392,note_off,,,,,2048,0,4,,,51,0,3
59392,note_on,,,,,0,0,2,,,65,96,1
59392,note_off,,,,,2048,0,5,,,39,0,4
59392,note_on,,,,,0,0,5,,,37,96,4
59904,note_off,,,,,512,0,2,,,65,0,1
59904,note_on,,,,,0,0,2,,,68,96,1
60416,note_on,,,,,0,0,3,,,58,96,2
60416,note_off,,,,,2048,0,3,,,60,0,2
60416,note_on,,,,,0,0,2,,,67,96,1
60416,note_off,,,,,512,0,2,,,68,0,1
60928,note_on,,,,,0,0,2,,,65,96,1
60928,note_off,,,,,512,0,2,,,67,0,1
61440,note_off,,,,,512,0,2,,,65,0,1
61440,note_on,,,,,0,0,4,,,48,96,3
61440,note_off,,,,,2048,0,4,,,49,0,3
61440,note_on,,,,,0,0,5,,,36,96,4
61440,note_off,,,,,2048,0,5,,,37,0,4
61440,note_on,,,,,0,0,2,,,64,96,1
61952,note_on,,,,,0,0,3,,,61,96,2
61952,note_off,,,,,1536,0,3,,,58,0,2
62464,note_on,,,,,0,0,3,,,60,96,2
62464,note_off,,,,,512,0,3,,,61,0,2
62976,note_off,,,,,1536,0,2,,,64,0,1
62976,note_on,,,,,0,0,3,,,58,96,2
62976,note_off,,,,,512,0,3,,,60,0,2
62976,note_on,,,,,0,0,2,,,64,96,1
63488,note_off,,,,,512,0,2,,,64,0,1
63488,note_on,,,,,0,0,5,,,37,96,4
63488,note_off,,,,,2048,0,5,,,36,0,4
63488,note_on,,,,,0,0,4,,,49,96,3
63488,note_off,,,,,512,0,3,,,58,0,2
63488,note_on,,,,,0,0,3,,,56,96,2
63488,note_off,,,,,2048,0,4,,,48,0,3
63488,note_on,,,,,0,0,2,,,65,96,1
64000,note_off,,,,,512,0,3,,,56,0,2
64000,note_on,,,,,0,0,3,,,55,96,2
64000,note_off,,,,,512,0,2,,,65,0,1
64000,note_on,,,,,0,0,2,,,64,96,1
64512,note_off,,,,,512,0,2,,,64,0,1
64512,note_on,,,,,0,0,5,,,34,96,4
64512,note_off,,,,,1024,0,5,,,37,0,4
64512,note_off,,,,,512,0,3,,,55,0,2
64512,note_on,,,,,0,0,3,,,56,96,2
64512,note_on,,,,,0,0,2,,,65,96,1
64512,note_on,,,,,0,0,4,,,46,96,3
64512,note_off,,,,,1024,0,4,,,49,0,3
65024,note_on,,,,,0,0,3,,,58,96,2
65024,note_off,,,,,512,0,3,,,56,0,2
65024,note_off,,,,,512,0,2,,,65,0,1
65024,note_on,,,,,0,0,2,,,67,96,1
65536,note_off,,,,,1024,0,4,,,46,0,3
65536,note_off,,,,,512,0,3,,,58,0,2
65536,note_on,,,,,0,0,3,,,55,96,2
65536,note_on,,,,,0,0,4,,,48,96,3
65536,note_off,,,,,1024,0,5,,,34,0,4
65536,note_on,,,,,0,0,5,,,36,96,4
65536,note_off,,,,,512,0,2,,,67,0,1
65536,note_on,,,,,0,0,2,,,64,96,1
66048,note_off,,,,,512,0,3,,,55,0,2
66048,note_on,,,,,0,0,3,,,61,96,2
66560,note_on,,,,,0,0,3,,,60,96,2
66560,note_off,,,,,1024,0,4,,,48,0,3
66560,note_on,,,,,0,0,4,,,36,96,3
66560,note_off,,,,,512,0,3,,,61,0,2
66560,note_off,,,,,1024,0,5,,,36,0,4
66560,note_on,,,,,0,0,5,,,24,96,4
67072,note_off,,,,,1536,0,2,,,64,0,1
67072,note_on,,,,,0,0,2,,,62,96,1
67072,note_on,,,,,0,0,3,,,58,96,2
67072,note_off,,,,,512,0,3,,,60,0,2
67328,note_off,,,,,256,0,2,,,62,0,1
67328,note_on,,,,,0,0,2,,,64,96,1
67584,note_on,,,,,0,0,3,,,56,96,2
67584,note_off,,,,,512,0,3,,,58,0,2
67584,note_on,,,,,0,0,5,,,29,96,4
67584,note_on,,,,,0,0,2,,,65,96,1
67584,note_off,,,,,1024,0,4,,,36,0,3
67584,note_on,,,,,0,0,4,,,41,96,3
67584,note_off,,,,,1024,0,5,,,24,0,4
67584,note_off,,,,,256,0,2,,,64,0,1
68096,note_off,,,,,512,0,3,,,56,0,2
68096,note_on,,,,,0,0,3,,,55,96,2
68608,note_on,,,,,0,0,5,,,41,96,4
68608,note_off,,,,,1024,0,4,,,41,0,3
68608,note_on,,,,,0,0,4,,,53,96,3
68608,note_on,,,,,0,0,3,,,56,96,2
68608,note_off,,,,,512,0,3,,,55,0,2
68608,note_off,,,,,1024,0,5,,,29,0,4
69120,note_off,,,,,512,0,3,,,56,0,2
69120,note_on,,,,,0,0,3,,,53,96,2
69632,note_on,,,,,0,0,5,,,39,96,4
69632,note_off,,,,,1024,0,5,,,41,0,4
69632,note_off,,,,,2048,0,2,,,65,0,1
69632,note_on,,,,,0,0,4,,,51,96,3
69632,note_off,,,,,1024,0,4,,,53,0,3
69632,note_on,,,,,0,0,3,,,55,96,2
69632,note_off,,,,,512,0,3,,,53,0,2
70144,note_on,,,,,0,0,3,,,57,96,2
70144,note_off,,,,,512,0,3,,,55,0,2
70656,note_on,,,,,0,0,4,,,50,96,3
70656,note_on,,,,,0,0,3,,,58,96,2
70656,note_off,,,,,512,0,3,,,57,0,2
70656,note_off,,,,,1024,0,5,,,39,0,4
70656,note_off,,,,,1024,0,4,,,51,0,3
70656,note_on,,,,,0,0,5,,,38,96,4
71168,note_off,,,,,512,0,3,,,58,0,2
71168,note_on,,,,,0,0,3,,,53,96,2
71680,note_on,,,,,2048,0,2,,,65,96,1
71680,note_on,,,,,0,0,3,,,58,96,2
71680,note_off,,,,,512,0,3,,,53,0,2
72448,note_on,,,,,0,0,2,,,67,96,1
72448,note_off,,,,,768,0,2,,,65,0,1
72704,note_off,,,,,256,0,2,,,67,0,1
72704,note_on,,,,,0,0,2,,,65,96,1
72704,note_on,,,,,0,0,5,,,36,96,4
72704,note_on,,,,,0,0,4,,,48,96,3
72704,note_off,,,,,2048,0,4,,,50,0,3
72704,note_off,,,,,2048,0,5,,,38,0,4
72960,note_off,,,,,256,0,2,,,65,0,1
72960,note_on,,,,,0,0,2,,,63,96,1
73216,note_off,,,,,256,0,2,,,63,0,1
73216,note_on,,,,,0,0,2,,,62,96,1
73216,note_off,,,,,1536,0,3,,,58,0,2
73216,note_on,,,,,0,0,3,,,57,96,2
73472,note_off,,,,,256,0,2,,,62,0,1
73472,note_on,,,,,0,0,2,,,63,96,1
73728,note_on,,,,,0,0,3,,,58,96,2
73728,note_off,,,,,512,0,3,,,57,0,2
73728,note_off,,,,,1024,0,4,,,48,0,3
73728,note_off,,,,,1024,0,5,,,36,0,4
73728,note_on,,,,,0,0,4,,,46,96,3
73728,note_on,,,,,0,0,5,,,34,96,4
73728,note_on,,,,,0,0,2,,,62,96,1
73728,note_off,,,,,256,0,2,,,63,0,1
73728,note_on,,,,,22528,0,1,,,70,96,0
74240,note_off,,,,,512,0,4,,,46,0,3
74240,note_on,,,,,0,0,4,,,60,96,3
74240,note_on,,,,,0,0,5,,,48,96,4
74240,note_off,,,,,512,0,5,,,34,0,4
74752,note_on,,,,,0,0,4,,,58,96,3
74752,note_off,,,,,512,0,4,,,60,0,3
74752,note_off,,,,,1024,0,2,,,62,0,1
74752,note_on,,,,,0,0,2,,,63,96,1
74752,note_on,,,,,0,0,3,,,60,96,2
74752,note_off,,,,,1024,0,3,,,58,0,2
74752,note_on,,,,,0,0,5,,,46,96,4
74752,note_off,,,,,512,0,5,,,48,0,4
75264,note_on,,,,,0,0,4,,,56,96,3
75264,note_off,,,,,512,0,4,,,58,0,3
75264,note_on,,,,,0,0,5,,,44,96,4
75264,note_off,,,,,512,0,5,,,46,0,4
75776,note_on,,,,,0,0,5,,,43,96,4
75776,note_off,,,,,512,0,4,,,56,0,3
75776,note_on,,,,,0,0,4,,,55,96,3
75776,note_off,,,,,512,0,5,,,44,0,4
75776,note_off,,,,,1024,0,2,,,63,0,1
75776,note_on,,,,,0,0,2,,,65,96,1
75776,note_off,,,,,1024,0,3,,,60,0,2
75776,note_on,,,,,0,0,3,,,62,96,2
76288,note_on,,,,,0,0,4,,,53,96,3
76288,note_off,,,,,512,0,4,,,55,0,3
76288,note_on,,,,,0,0,5,,,41,96,4
76288,note_off,,,,,512,0,5,,,43,0,4
76800,note_off,,,,,512,0,5,,,41,0,4
76800,note_off,,,,,1024,0,2,,,65,0,1
76800,note_on,,,,,0,0,2,,,67,96,1
76800,note_on,,,,,0,0,5,,,39,96,4
76800,note_off,,,,,512,0,4,,,53,0,3
76800,note_on,,,,,0,0,3,,,63,96,2
76800,note_on,,,,,0,0,4,,,51,96,3
76800,note_on,,,,,0,0,1,,,67,96,0
76800,note_off,,,,,3072,0,1,,,70,0,0
76800,note_off,,,,,1024,0,3,,,62,0,2
77312,note_off,,,,,512,0,4,,,51,0,3
77312,note_on,,,,,0,0,5,,,38,96,4
77312,note_on,,,,,0,0,4,,,50,96,3
77312,note_off,,,,,512,0,5,,,39,0,4
77824,note_off,,,,,512,0,4,,,50,0,3
77824,note_off,,,,,1024,0,3,,,63,0,2
77824,note_on,,,,,0,0,3,,,64,96,2
77824,note_on,,,,,0,0,4,,,48,96,3
77824,note_on,,,,,0,0,2,,,72,96,1
77824,note_off,,,,,1024,0,2,,,67,0,1
77824,note_on,,,,,0,0,5,,,36,96,4
77824,note_off,,,,,512,0,5,,,38,0,4
78336,note_off,,,,,512,0,4,,,48,0,3
78336,note_on,,,,,0,0,4,,,46,96,3
78336,note_off,,,,,512,0,5,,,36,0,4
78336,note_on,,,,,0,0,5,,,34,96,4
78848,note_off,,,,,512,0,5,,,34,0,4
78848,note_on,,,,,0,0,2,,,70,96,1
78848,note_on,,,,,0,0,5,,,32,96,4
78848,note_off,,,,,512,0,4,,,46,0,3
78848,note_off,,,,,1024,0,2,,,72,0,1
78848,note_on,,,,,0,0,4,,,44,96,3
79360,note_on,,,,,0,0,4,,,43,96,3
79360,note_on,,,,,0,0,5,,,31,96,4
79360,note_off,,,,,512,0,5,,,32,0,4
79360,note_off,,,,,512,0,4,,,44,0,3
79872,note_off,,,,,2048,0,3,,,64,0,2
79872,note_off,,,,,512,0,5,,,31,0,4
79872,note_on,,,,,0,0,2,,,68,96,1
79872,note_off,,,,,1024,0,2,,,70,0,1
79872,note_off,,,,,3072,0,1,,,67,0,0
79872,note_on,,,,,0,0,1,,,68,96,0
79872,note_on,,,,,0,0,5,,,29,96,4
79872,note_on,,,,,0,0,3,,,65,96,2
79872,note_on,,,,,0,0,4,,,41,96,3
79872,note_off,,,,,512,0,4,,,43,0,3
80384,note_on,,,,,0,0,3,,,63,96,2
80384,note_off,,,,,512,0,3,,,65,0,2
80384,note_off,,,,,512,0,2,,,68,0,1
80384,note_on,,,,,0,0,2,,,67,96,1
80896,note_on,,,,,0,0,3,,,62,96,2
80896,note_off,,,,,512,0,3,,,63,0,2
80896,note_off,,,,,512,0,2,,,67,0,1
80896,note_on,,,,,0,0,2,,,65,96,1
81408,note_on,,,,,0,0,1,,,68,96,0
81408,note_off,,,,,512,0,3,,,62,0,2
81408,note_on,,,,,0,0,3,,,60,96,2
81408,note_off,,,,,1536,0,1,,,68,0,0
81920,note_off,,,,,512,0,3,,,60,0,2
81920,note_on,,,,,0,0,3,,,58,96,2
81920,note_off,,,,,512,0,1,,,68,0,0
81920,note_off,,,,,2048,0,5,,,29,0,4
81920,note_off,,,,,2048,0,4,,,41,0,3
81920,note_on,,,,,0,0,4,,,43,96,3
81920,note_on,,,,,0,0,1,,,67,96,0
81920,note_off,,,,,1024,0,2,,,65,0,1
81920,note_on,,,,,0,0,2,,,63,96,1
81920,note_on,,,,,0,0,5,,,31,96,4
82432,note_off,,,,,512,0,1,,,67,0,0
82432,note_on,,,,,0,0,2,,,61,96,1
82432,note_on,,,,,0,0,1,,,65,96,0
82432,note_off,,,,,512,0,2,,,63,0,1
82944,note_off,,,,,1024,0,4,,,43,0,3
82944,note_on,,,,,0,0,4,,,44,96,3
82944,note_on,,,,,0,0,2,,,60,96,1
82944,note_off,,,,,512,0,2,,,61,0,1
82944,note_off,,,,,1024,0,5,,,31,0,4
82944,note_off,,,,,512,0,1,,,65,0,0
82944,note_on,,,,,0,0,1,,,63,96,0
82944,note_on,,,,,0,0,5,,,32,96,4
83456,note_off,,,,,512,0,1,,,63,0,0
83456,note_on,,,,,0,0,1,,,65,96,0
83456,note_off,,,,,1536,0,3,,,58,0,2
83456,note_on,,,,,0,0,3,,,56,96,2
83968,note_off,,,,,512,0,1,,,65,0,0
83968,note_off,,,,,1024,0,2,,,60,0,1
83968,note_on,,,,,0,0,2,,,58,96,1
83968,note_off,,,,,512,0,3,,,56,0,2
83968,note_on,,,,,0,0,3,,,50,96,2
83968,note_on,,,,,0,0,1,,,65,96,0
84736,note_off,,,,,768,0,1,,,65,0,0
84736,note_on,,,,,0,0,1,,,63,96,0
84864,note_off,,,,,128,0,1,,,63,0,0
84864,note_on,,,,,0,0,1,,,65,96,0
84992,note_on,,,,,0,0,5,,,31,96,4
84992,note_on,,,,,0,0,4,,,43,96,3
84992,note_on,,,,,0,0,3,,,51,96,2
84992,note_off,,,,,1024,0,3,,,50,0,2
84992,note_off,,,,,2048,0,5,,,32,0,4
84992,note_off,,,,,2048,0,4,,,44,0,3
84992,note_on,,,,,0,0,1,,,67,96,0
84992,note_off,,,,,128,0,1,,,65,0,0
85504,note_off,,,,,1536,0,2,,,58,0,1
85504,note_on,,,,,0,0,2,,,58,96,1
86016,note_on,,,,,0,0,5,,,32,96,4
86016,note_off,,,,,1024,0,5,,,31,0,4
86016,note_on,,,,,0,0,4,,,44,96,3
86016,note_off,,,,,1024,0,4,,,43,0,3
86016,note_off,,,,,512,0,2,,,58,0,1
86016,note_on,,,,,0,0,2,,,60,96,1
86272,note_off,,,,,1280,0,1,,,67,0,0
86272,note_on,,,,,0,0,1,,,72,96,0
86528,note_off,,,,,256,0,1,,,72,0,0
86528,note_on,,,,,0,0,1,,,70,96,0
86784,note_on,,,,,0,0,1,,,68,96,0
86784,note_off,,,,,256,0,1,,,70,0,0
87040,note_on,,,,,0,0,2,,,58,96,1
87040,note_on,,,,,0,0,5,,,34,96,4
87040,note_off,,,,,256,0,1,,,68,0,0
87040,note_off,,,,,1024,0,4,,,44,0,3
87040,note_on,,,,,0,0,4,,,46,96,3
87040,note_off,,,,,1024,0,2,,,60,0,1
87040,note_on,,,,,0,0,1,,,67,96,0
87040,note_off,,,,,1024,0,5,,,32,0,4
87552,note_on,,,,,0,0,3,,,51,96,2
87552,note_off,,,,,2560,0,3,,,51,0,2
88064,note_off,,,,,1024,0,4,,,46,0,3
88064,note_on,,,,,0,0,1,,,65,96,0
88064,note_on,,,,,0,0,4,,,44,96,3
88064,note_on,,,,,0,0,5,,,32,96,4
88064,note_off,,,,,512,0,3,,,51,0,2
88064,note_on,,,,,0,0,3,,,50,96,2
88064,note_off,,,,,1024,0,5,,,34,0,4
88064,note_off,,,,,1024,0,1,,,67,0,0
88576,note_off,,,,,512,0,1,,,65,0,0
88576,note_on,,,,,0,0,1,,,63,96,0
88576,note_off,,,,,512,0,3,,,50,0,2
88576,note_on,,,,,0,0,3,,,51,96,2
88832,note_off,,,,,256,0,1,,,63,0,0
88832,note_on,,,,,0,0,1,,,65,96,0
89088,note_off,,,,,1024,0,5,,,32,0,4
89088,note_on,,,,,0,0,5,,,31,96,4
89088,note_off,,,,,256,0,1,,,65,0,0
89088,note_on,,,,,0,0,1,,,63,96,0
89088,note_on,,,,,0,0,3,,,53,96,2
89088,note_off,,,,,512,0,3,,,51,0,2
89088,note_off,,,,,1024,0,4,,,44,0,3
89088,note_on,,,,,0,0,4,,,43,96,3
89600,note_on,,,,,0,0,2,,,60,96,1
89600,note_off,,,,,2560,0,2,,,58,0,1
90112,note_off,,,,,512,0,2,,,60,0,1
90112,note_on,,,,,0,0,2,,,61,96,1
90624,note_off,,,,,1536,0,3,,,53,0,2
90624,note_on,,,,,0,0,3,,,58,96,2
91136,note_off,,,,,2048,0,4,,,43,0,3
91136,note_on,,,,,0,0,4,,,44,96,3
91136,note_off,,,,,1024,0,2,,,61,0,1
91136,note_off,,,,,2048,0,5,,,31,0,4
91136,note_on,,,,,0,0,2,,,60,96,1
91136,note_on,,,,,0,0,5,,,32,96,4
91648,note_on,,,,,0,0,3,,,56,96,2
91648,note_off,,,,,1024,0,3,,,58,0,2
92160,note_off,,,,,1024,0,2,,,60,0,1
92160,note_off,,,,,1024,0,5,,,32,0,4
92160,note_on,,,,,0,0,5,,,34,96,4
92160,note_on,,,,,0,0,4,,,46,96,3
92160,note_off,,,,,1024,0,4,,,44,0,3
92160,note_on,,,,,0,0,2,,,58,96,1
92672,note_on,,,,,0,0,3,,,55,96,2
92672,note_off,,,,,1024,0,3,,,56,0,2
93184,note_off,,,,,1024,0,2,,,58,0,1
93184,note_on,,,,,0,0,2,,,56,96,1
93184,note_off,,,,,1024,0,5,,,34,0,4
93184,note_on,,,,,0,0,5,,,36,96,4
93184,note_on,,,,,0,0,4,,,48,96,3
93184,note_off,,,,,1024,0,4,,,46,0,3
93696,note_off,,,,,1024,0,3,,,55,0,2
93696,note_on,,,,,0,0,3,,,53,96,2
94208,note_off,,,,,1024,0,5,,,36,0,4
94208,note_off,,,,,512,0,3,,,53,0,2
94208,note_on,,,,,0,0,3,,,51,96,2
94208,note_on,,,,,0,0,5,,,37,96,4
94208,note_on,,,,,0,0,4,,,49,96,3
94208,note_off,,,,,1024,0,4,,,48,0,3
94720,note_on,,,,,0,0,2,,,55,96,1
94720,note_off,,,,,1536,0,2,,,56,0,1
95232,note_on,,,,,0,0,4,,,48,96,3
95232,note_on,,,,,0,0,2,,,56,96,1
95232,note_off,,,,,512,0,2,,,55,0,1
95232,note_off,,,,,1024,0,4,,,49,0,3
95232,note_on,,,,,0,0,5,,,36,96,4
95232,note_off,,,,,1024,0,5,,,37,0,4
95744,note_off,,,,,1536,0,3,,,51,0,2
95744,note_off,,,,,512,0,2,,,56,0,1
95744,note_on,,,,,0,0,3,,,55,96,2
95744,note_on,,,,,0,0,2,,,58,96,1
96256,note_off,,,,,1024,0,5,,,36,0,4
96256,note_on,,,,,0,0,4,,,46,96,3
96256,note_off,,,,,1024,0,4,,,48,0,3
96256,note_off,,,,,512,0,3,,,55,0,2
96256,note_off,,,,,512,0,2,,,58,0,1
96256,note_on,,,,,0,0,2,,,60,96,1
96256,note_on,,,,,0,0,5,,,34,96,4
96256,note_on,,,,,0,0,3,,,56,96,2
96768,note_off,,,,,512,0,3,,,56,0,2
96768,note_off,,,,,512,0,2,,,60,0,1
96768,note_on,,,,,0,0,2,,,61,96,1
96768,note_on,,,,,0,0,3,,,58,96,2
97280,note_off,,,,,512,0,3,,,58,0,2
97280,note_on,,,,,0,0,3,,,60,96,2
97280,note_off,,,,,1024,0,5,,,34,0,4
97280,note_on,,,,,0,0,5,,,32,96,4
97280,note_off,,,,,512,0,2,,,61,0,1
97280,note_on,,,,,0,0,2,,,63,96,1
97280,note_on,,,,,0,0,4,,,44,96,3
97280,note_off,,,,,1024,0,4,,,46,0,3
97792,note_off,,,,,512,0,3,,,60,0,2
97792,note_on,,,,,0,0,3,,,56,96,2
98304,note_on,,,,,0,0,3,,,53,96,2
98304,note_on,,,,,0,0,5,,,34,96,4
98304,note_off,,,,,1024,0,5,,,32,0,4
98304,note_on,,,,,0,0,4,,,46,96,3
98304,note_off,,,,,1024,0,4,,,44,0,3
98304,note_off,,,,,512,0,3,,,56,0,2
98816,note_off,,,,,1536,0,2,,,63,0,1
98816,note_on,,,,,0,0,2,,,65,96,1
99328,note_on,,,,,0,0,5,,,32,96,4
99328,note_on,,,,,0,0,2,,,61,96,1
99328,note_off,,,,,1024,0,5,,,34,0,4
99328,note_on,,,,,0,0,3,,,55,96,2
99328,note_off,,,,,512,0,2,,,65,0,1
99328,note_off,,,,,1024,0,4,,,46,0,3
99328,note_on,,,,,0,0,4,,,44,96,3
99328,note_off,,,,,1024,0,3,,,53,0,2
99840,note_off,,,,,512,0,3,,,55,0,2
99840,note_on,,,,,0,0,3,,,56,96,2
100352,note_on,,,,,0,0,4,,,43,96,3
100352,note_off,,,,,1024,0,5,,,32,0,4
100352,note_on,,,,,0,0,3,,,58,96,2
100352,note_on,,,,,0,0,5,,,31,96,4
100352,note_off,,,,,512,0,3,,,56,0,2
100352,note_off,,,,,1024,0,4,,,44,0,3
100864,note_off,,,,,1536,0,2,,,61,0,1
100864,note_on,,,,,0,0,2,,,60,96,1
101120,note_off,,,,,256,0,2,,,60,0,1
101120,note_on,,,,,0,0,2,,,61,96,1
101376,note_on,,,,,0,0,2,,,60,96,1
101376,note_off,,,,,1024,0,5,,,31,0,4
101376,note_on,,,,,0,0,5,,,32,96,4
101376,note_on,,,,,0,0,4,,,44,96,3
101376,note_off,,,,,1024,0,4,,,43,0,3
101376,note_off,,,,,256,0,2,,,61,0,1
101888,note_on,,,,,0,0,3,,,58,96,2
101888,note_off,,,,,1536,0,3,,,58,0,2
102400,note_on,,,,,0,0,3,,,56,96,2
102400,note_off,,,,,512,0,3,,,58,0,2
102912,note_off,,,,,512,0,3,,,56,0,2
102912,note_on,,,,,0,0,3,,,55,96,2
102912,note_off,,,,,1536,0,2,,,60,0,1
102912,note_on,,,,,0,0,2,,,58,96,1
103424,note_off,,,,,512,0,3,,,55,0,2
103424,note_off,,,,,512,0,2,,,58,0,1
103424,note_on,,,,,0,0,2,,,60,96,1
103424,note_on,,,,,0,0,3,,,56,96,2
103936,note_off,,,,,512,0,3,,,56,0,2
103936,note_on,,,,,0,0,3,,,53,96,2
103936,note_off,,,,,512,0,2,,,60,0,1
103936,note_on,,,,,0,0,2,,,62,96,1
104448,note_off,,,,,512,0,3,,,53,0,2
104448,note_on,,,,,0,0,3,,,55,96,2
104448,note_on,,,,,0,0,4,,,39,96,3
104448,note_on,,,,,0,0,5,,,27,96,4
104448,note_on,,,,,0,0,2,,,63,96,1
104448,note_off,,,,,15360,0,1,,,63,0,0
104448,note_off,,,,,3072,0,4,,,44,0,3
104448,note_off,,,,,512,0,2,,,62,0,1
104448,note_off,,,,,3072,0,5,,,32,0,4
104960,note_off,,,,,512,0,3,,,55,0,2
104960,note_on,,,,,0,0,3,,,56,96,2
104960,note_on,,,,,0,0,2,,,65,96,1
104960,note_off,,,,,512,0,2,,,63,0,1
105472,note_off,,,,,1024,0,4,,,39,0,3
105472,note_on,,,,,0,0,5,,,39,96,4
105472,note_off,,,,,1024,0,5,,,27,0,4
105472,note_on,,,,,0,0,3,,,58,96,2
105472,note_on,,,,,0,0,2,,,67,96,1
105472,note_off,,,,,512,0,2,,,65,0,1
105472,note_on,,,,,0,0,4,,,51,96,3
105472,note_off,,,,,512,0,3,,,56,0,2
106240,note_off,,,,,768,0,3,,,58,0,2
106240,note_on,,,,,0,0,2,,,68,96,1
106240,note_off,,,,,768,0,2,,,67,0,1
106240,note_on,,,,,0,0,3,,,60,96,2
106496,note_off,,,,,256,0,3,,,60,0,2
106496,note_on,,,,,0,0,2,,,65,96,1
106496,note_off,,,,,256,0,2,,,68,0,1
106496,note_off,,,,,1024,0,5,,,39,0,4
106496,note_on,,,,,0,0,5,,,34,96,4
106496,note_off,,,,,1024,0,4,,,51,0,3
106496,note_on,,,,,0,0,3,,,56,96,2
106496,note_on,,,,,0,0,4,,,46,96,3
107264,note_off,,,,,768,0,2,,,65,0,1
107264,note_on,,,,,0,0,3,,,55,96,2
107264,note_off,,,,,768,0,3,,,56,0,2
107264,note_on,,,,,0,0,2,,,63,96,1
107392,note_on,,,,,0,0,3,,,56,96,2
107392,note_off,,,,,128,0,3,,,55,0,2
107392,note_on,,,,,0,0,2,,,65,96,1
107392,note_off,,,,,128,0,2,,,63,0,1
107520,note_off,,,,,1024,0,4,,,46,0,3
107520,note_off,,,,,128,0,3,,,56,0,2
107520,note_on,,,,,0,0,2,,,63,96,1
107520,note_on,,,,,0,0,4,,,48,96,3
107520,note_on,,,,,0,0,5,,,36,96,4
107520,note_off,,,,,1024,0,5,,,34,0,4
107520,note_off,,,,,128,0,2,,,65,0,1
107520,note_on,,,,,0,0,3,,,55,96,2
108032,note_on,,,,,0,0,2,,,65,96,1
108032,note_off,,,,,512,0,2,,,63,0,1
108544,note_on,,,,,0,0,5,,,48,96,4
108544,note_off,,,,,1024,0,3,,,55,0,2
108544,note_on,,,,,0,0,4,,,60,96,3
108544,note_off,,,,,1024,0,4,,,48,0,3
108544,note_on,,,,,0,0,2,,,67,96,1
108544,note_on,,,,,0,0,3,,,63,96,2
108544,note_off,,,,,512,0,2,,,65,0,1
108544,note_off,,,,,1024,0,5,,,36,0,4
109056,note_on,,,,,0,0,2,,,68,96,1
109056,note_off,,,,,512,0,2,,,67,0,1
109312,note_off,,,,,768,0,3,,,63,0,2
109312,note_on,,,,,0,0,3,,,65,96,2
109568,note_off,,,,,1024,0,5,,,48,0,4
109568,note_on,,,,,0,0,5,,,43,96,4
109568,note_on,,,,,0,0,2,,,70,96,1
109568,note_off,,,,,256,0,3,,,65,0,2
109568,note_on,,,,,0,0,3,,,61,96,2
109568,note_off,,,,,1024,0,4,,,60,0,3
109568,note_on,,,,,0,0,4,,,55,96,3
109568,note_off,,,,,512,0,2,,,68,0,1
110336,note_off,,,,,768,0,3,,,61,0,2
110336,note_on,,,,,0,0,3,,,60,96,2
110464,note_off,,,,,128,0,3,,,60,0,2
110464,note_on,,,,,0,0,3,,,61,96,2
110592,note_on,,,,,0,0,4,,,56,96,3
110592,note_off,,,,,128,0,3,,,61,0,2
110592,note_on,,,,,0,0,3,,,60,96,2
110592,note_off,,,,,1024,0,5,,,43,0,4
110592,note_on,,,,,0,0,5,,,44,96,4
110592,note_off,,,,,1024,0,4,,,55,0,3
111104,note_off,,,,,1536,0,2,,,70,0,1
111104,note_on,,,,,0,0,2,,,72,96,1
111616,note_off,,,,,1024,0,4,,,56,0,3
111616,note_on,,,,,0,0,4,,,53,96,3
111616,note_on,,,,,0,0,2,,,68,96,1
111616,note_off,,,,,512,0,2,,,72,0,1
111616,note_on,,,,,0,0,5,,,41,96,4
111616,note_off,,,,,1024,0,5,,,44,0,4
112128,note_off,,,,,1536,0,3,,,60,0,2
112128,note_on,,,,,0,0,3,,,58,96,2
112640,note_off,,,,,1024,0,4,,,53,0,3
112640,note_on,,,,,0,0,5,,,46,96,4
112640,note_on,,,,,0,0,3,,,60,96,2
112640,note_off,,,,,512,0,3,,,58,0,2
112640,note_on,,,,,0,0,4,,,58,96,3
112640,note_off,,,,,1024,0,5,,,41,0,4
113152,note_off,,,,,512,0,3,,,60,0,2
113152,note_on,,,,,0,0,2,,,67,96,1
113152,note_off,,,,,1536,0,2,,,68,0,1
113152,note_on,,,,,0,0,3,,,62,96,2
113408,note_on,,,,,0,0,2,,,68,96,1
113408,note_off,,,,,256,0,2,,,67,0,1
113664,note_off,,,,,256,0,2,,,68,0,1
113664,note_on,,,,,0,0,2,,,67,96,1
113664,note_off,,,,,512,0,3,,,62,0,2
113664,note_on,,,,,0,0,5,,,39,96,4
113664,note_off,,,,,1024,0,4,,,58,0,3
113664,note_off,,,,,1024,0,5,,,46,0,4
113664,note_on,,,,,0,0,3,,,63,96,2
113664,note_on,,,,,0,0,4,,,51,96,3
114176,note_off,,,,,512,0,2,,,67,0,1
114176,note_on,,,,,0,0,2,,,65,96,1
114688,note_on,,,,,0,0,3,,,58,96,2
114688,note_off,,,,,1024,0,4,,,51,0,3
114688,note_on,,,,,0,0,4,,,50,96,3
114688,note_off,,,,,1024,0,5,,,39,0,4
114688,note_on,,,,,0,0,5,,,38,96,4
114688,note_off,,,,,512,0,2,,,65,0,1
114688,note_on,,,,,0,0,2,,,67,96,1
114688,note_off,,,,,1024,0,3,,,63,0,2
115456,note_off,,,,,768,0,3,,,58,0,2
115456,note_on,,,,,0,0,3,,,60,96,2
115456,note_off,,,,,768,0,2,,,67,0,1
115456,note_on,,,,,0,0,2,,,68,96,1
115712,note_off,,,,,256,0,2,,,68,0,1
115712,note_on,,,,,0,0,2,,,68,96,1
115712,note_off,,,,,1024,0,4,,,50,0,3
115712,note_on,,,,,0,0,3,,,60,96,2
115712,note_off,,,,,1024,0,5,,,38,0,4
115712,note_on,,,,,0,0,5,,,36,96,4
115712,note_off,,,,,256,0,3,,,60,0,2
115712,note_on,,,,,0,0,4,,,48,96,3
116480,note_on,,,,,0,0,2,,,67,96,1
116480,note_off,,,,,768,0,2,,,68,0,1
116480,note_off,,,,,768,0,3,,,60,0,2
116480,note_on,,,,,0,0,3,,,58,96,2
116608,note_on,,,,,0,0,2,,,68,96,1
116608,note_off,,,,,128,0,2,,,67,0,1
116608,note_off,,,,,128,0,3,,,58,0,2
116608,note_on,,,,,0,0,3,,,60,96,2
116736,note_off,,,,,1024,0,4,,,48,0,3
116736,note_off,,,,,1024,0,5,,,36,0,4
116736,note_on,,,,,0,0,5,,,34,96,4
116736,note_off,,,,,128,0,2,,,68,0,1
116736,note_off,,,,,128,0,3,,,60,0,2
116736,note_on,,,,,0,0,2,,,70,96,1
116736,note_on,,,,,0,0,4,,,46,96,3
116736,note_on,,,,,0,0,3,,,62,96,2
117248,note_off,,,,,512,0,3,,,62,0,2
117248,note_on,,,,,0,0,3,,,60,96,2
117760,note_off,,,,,512,0,3,,,60,0,2
117760,note_on,,,,,0,0,3,,,62,96,2
118528,note_off,,,,,768,0,3,,,62,0,2
118528,note_on,,,,,0,0,3,,,63,96,2
118784,note_off,,,,,256,0,3,,,63,0,2
118784,note_on,,,,,0,0,5,,,36,96,4
118784,note_off,,,,,2048,0,5,,,34,0,4
118784,note_on,,,,,0,0,4,,,48,96,3
118784,note_off,,,,,2048,0,4,,,46,0,3
118784,note_on,,,,,0,0,3,,,63,96,2
119552,note_off,,,,,768,0,3,,,63,0,2
119552,note_on,,,,,0,0,3,,,62,96,2
119680,note_off,,,,,128,0,3,,,62,0,2
119680,note_on,,,,,0,0,3,,,63,96,2
119808,note_off,,,,,1024,0,4,,,48,0,3
119808,note_off,,,,,1024,0,5,,,36,0,4
119808,note_on,,,,,0,0,3,,,65,96,2
119808,note_on,,,,,0,0,5,,,38,96,4
119808,note_off,,,,,128,0,3,,,63,0,2
119808,note_on,,,,,0,0,4,,,50,96,3
120320,note_off,,,,,3584,0,2,,,70,0,1
120320,note_on,,,,,0,0,2,,,68,96,1
120832,note_on,,,,,0,0,5,,,39,96,4
120832,note_off,,,,,512,0,2,,,68,0,1
120832,note_on,,,,,0,0,2,,,67,96,1
120832,note_off,,,,,1024,0,5,,,38,0,4
120832,note_on,,,,,0,0,4,,,51,96,3
120832,note_off,,,,,1024,0,4,,,50,0,3
121344,note_off,,,,,1536,0,3,,,65,0,2
121344,note_on,,,,,0,0,3,,,63,96,2
121856,note_off,,,,,1024,0,2,,,67,0,1
121856,note_off,,,,,512,0,3,,,63,0,2
121856,note_on,,,,,0,0,3,,,62,96,2
121856,note_on,,,,,0,0,5,,,41,96,4
121856,note_off,,,,,1024,0,5,,,39,0,4
121856,note_on,,,,,0,0,4,,,53,96,3
121856,note_off,,,,,1024,0,4,,,51,0,3
121856,note_on,,,,,0,0,2,,,65,96,1
122368,note_off,,,,,512,0,3,,,62,0,2
122368,note_on,,,,,0,0,3,,,60,96,2
122368,note_off,,,,,512,0,2,,,65,0,1
122368,note_on,,,,,0,0,2,,,63,96,1
122880,note_on,,,,,0,0,3,,,58,96,2
122880,note_off,,,,,512,0,2,,,63,0,1
122880,note_on,,,,,0,0,2,,,62,96,1
122880,note_off,,,,,512,0,3,,,60,0,2
123392,note_on,,,,,0,0,2,,,68,96,1
123392,note_off,,,,,512,0,2,,,62,0,1
123904,note_on,,,,,0,0,2,,,67,96,1
123904,note_off,,,,,512,0,2,,,68,0,1
123904,note_off,,,,,2048,0,4,,,53,0,3
123904,note_off,,,,,2048,0,5,,,41,0,4
123904,note_on,,,,,0,0,4,,,51,96,3
123904,note_on,,,,,0,0,5,,,39,96,4
124416,note_off,,,,,512,0,2,,,67,0,1
124416,note_on,,,,,0,0,2,,,65,96,1
124416,note_on,,,,,0,0,3,,,55,96,2
124416,note_off,,,,,1536,0,3,,,58,0,2
124928,note_off,,,,,512,0,2,,,65,0,1
124928,note_off,,,,,512,0,3,,,55,0,2
124928,note_on,,,,,0,0,3,,,60,96,2
124928,note_on,,,,,0,0,2,,,63,96,1
125440,note_off,,,,,512,0,2,,,63,0,1
125440,note_on,,,,,0,0,2,,,67,96,1
125952,note_on,,,,,0,0,4,,,50,96,3
125952,note_off,,,,,2048,0,4,,,51,0,3
125952,note_off,,,,,512,0,2,,,67,0,1
125952,note_on,,,,,0,0,2,,,65,96,1
125952,note_on,,,,,0,0,5,,,38,96,4
125952,note_off,,,,,2048,0,5,,,39,0,4
126464,note_off,,,,,1536,0,3,,,60,0,2
126464,note_on,,,,,0,0,3,,,53,96,2
126464,note_off,,,,,512,0,2,,,65,0,1
126464,note_on,,,,,0,0,2,,,63,96,1
126976,note_off,,,,,512,0,2,,,63,0,1
126976,note_on,,,,,0,0,2,,,62,96,1
126976,note_on,,,,,0,0,3,,,58,96,2
126976,note_off,,,,,512,0,3,,,53,0,2
127488,note_on,,,,,0,0,4,,,56,96,3
127488,note_off,,,,,1536,0,4,,,50,0,3
127488,note_off,,,,,512,0,2,,,62,0,1
127488,note_on,,,,,0,0,2,,,65,96,1
127488,note_on,,,,,0,0,5,,,44,96,4
127488,note_off,,,,,1536,0,5,,,38,0,4
128000,note_on,,,,,0,0,5,,,43,96,4
128000,note_on,,,,,0,0,2,,,63,96,1
128000,note_off,,,,,512,0,2,,,65,0,1
128000,note_off,,,,,512,0,4,,,56,0,3
128000,note_on,,,,,0,0,4,,,55,96,3
128000,note_off,,,,,512,0,5,,,44,0,4
128512,note_on,,,,,0,0,4,,,53,96,3
128512,note_off,,,,,512,0,4,,,55,0,3
128512,note_off,,,,,512,0,5,,,43,0,4
128512,note_on,,,,,0,0,5,,,41,96,4
128512,note_on,,,,,0,0,2,,,62,96,1
128512,note_off,,,,,512,0,2,,,63,0,1
129024,note_off,,,,,512,0,5,,,41,0,4
129024,note_on,,,,,0,0,5,,,39,96,4
129024,note_off,,,,,512,0,2,,,62,0,1
129024,note_off,,,,,512,0,4,,,53,0,3
129024,note_on,,,,,0,0,4,,,51,96,3
129024,note_on,,,,,0,0,2,,,60,96,1
129536,note_off,,,,,512,0,2,,,60,0,1
129536,note_off,,,,,512,0,4,,,51,0,3
129536,note_on,,,,,0,0,4,,,50,96,3
129536,note_on,,,,,0,0,5,,,38,96,4
129536,note_off,,,,,512,0,5,,,39,0,4
129536,note_on,,,,,0,0,2,,,62,96,1
130048,note_off,,,,,3072,0,3,,,58,0,2
130048,note_off,,,,,512,0,4,,,50,0,3
130048,note_on,,,,,0,0,4,,,48,96,3
130048,note_on,,,,,0,0,3,,,57,96,2
130048,note_on,,,,,0,0,2,,,63,96,1
130048,note_off,,,,,512,0,5,,,38,0,4
130048,note_off,,,,,512,0,2,,,62,0,1
130048,note_on,,,,,0,0,5,,,36,96,4
130560,note_on,,,,,0,0,4,,,55,96,3
130560,note_off,,,,,512,0,4,,,48,0,3
130560,note_on,,,,,0,0,5,,,43,96,4
130560,note_off,,,,,512,0,5,,,36,0,4
131072,note_off,,,,,1024,0,2,,,63,0,1
131072,note_on,,,,,0,0,2,,,62,96,1
131072,note_on,,,,,0,0,4,,,53,96,3
131072,note_off,,,,,512,0,4,,,55,0,3
131072,note_on,,,,,0,0,5,,,41,96,4
131072,note_off,,,,,512,0,5,,,43,0,4
131584,note_off,,,,,512,0,4,,,53,0,3
131584,note_on,,,,,0,0,3,,,55,96,2
131584,note_off,,,,,512,0,5,,,41,0,4
131584,note_on,,,,,0,0,5,,,39,96,4
131584,note_on,,,,,0,0,2,,,60,96,1
131584,note_off,,,,,512,0,2,,,62,0,1
131584,note_off,,,,,1536,0,3,,,57,0,2
131584,note_on,,,,,0,0,4,,,51,96,3
131840,note_off,,,,,256,0,3,,,55,0,2
131840,note_on,,,,,0,0,3,,,57,96,2
132096,note_off,,,,,512,0,5,,,39,0,4
132096,note_off,,,,,256,0,3,,,57,0,2
132096,note_off,,,,,512,0,4,,,51,0,3
132096,note_on,,,,,0,0,4,,,50,96,3
132096,note_on,,,,,0,0,5,,,38,96,4
132096,note_on,,,,,0,0,3,,,58,96,2
132096,note_off,,,,,512,0,2,,,60,0,1
132096,note_on,,,,,0,0,2,,,58,96,1
132608,note_off,,,,,512,0,3,,,58,0,2
132608,note_on,,,,,0,0,3,,,56,96,2
133120,note_off,,,,,1024,0,5,,,38,0,4
133120,note_on,,,,,0,0,5,,,39,96,4
133120,note_on,,,,,0,0,4,,,51,96,3
133120,note_off,,,,,1024,0,4,,,50,0,3
133120,note_off,,,,,512,0,3,,,56,0,2
133120,note_on,,,,,0,0,3,,,55,96,2
133632,note_on,,,,,0,0,2,,,60,96,1
133632,note_off,,,,,1536,0,2,,,58,0,1
133888,note_off,,,,,768,0,3,,,55,0,2
133888,note_on,,,,,0,0,3,,,56,96,2
134144,note_off,,,,,512,0,2,,,60,0,1
134144,note_on,,,,,0,0,2,,,62,96,1
134144,note_on,,,,,0,0,3,,,53,96,2
134144,note_off,,,,,1024,0,5,,,39,0,4
134144,note_off,,,,,256,0,3,,,56,0,2
134144,note_on,,,,,0,0,5,,,35,96,4
134144,note_on,,,,,0,0,4,,,47,96,3
134144,note_off,,,,,1024,0,4,,,51,0,3
134912,note_on,,,,,0,0,3,,,51,96,2
134912,note_off,,,,,768,0,3,,,53,0,2
135040,note_on,,,,,0,0,3,,,53,96,2
135040,note_off,,,,,128,0,3,,,51,0,2
135168,note_on,,,,,0,0,2,,,60,96,1
135168,note_on,,,,,30720,0,1,,,67,96,0
135168,note_on,,,,,0,0,3,,,51,96,2
135168,note_off,,,,,1024,0,2,,,62,0,1
135168,note_on,,,,,0,0,4,,,48,96,3
135168,note_off,,,,,128,0,3,,,53,0,2
135168,note_off,,,,,1024,0,5,,,35,0,4
135168,note_off,,,,,1024,0,4,,,47,0,3
135168,note_on,,,,,0,0,5,,,36,96,4
135680,note_off,,,,,512,0,2,,,60,0,1
135680,note_on,,,,,0,0,2,,,62,96,1
135680,note_off,,,,,512,0,3,,,51,0,2
135680,note_on,,,,,0,0,3,,,53,96,2
136192,note_off,,,,,512,0,2,,,62,0,1
136192,note_on,,,,,0,0,4,,,48,96,3
136192,note_off,,,,,1024,0,4,,,48,0,3
136192,note_on,,,,,0,0,2,,,63,96,1
136192,note_on,,,,,0,0,5,,,36,96,4
136192,note_off,,,,,1024,0,5,,,36,0,4
136192,note_on,,,,,0,0,3,,,55,96,2
136192,note_off,,,,,512,0,3,,,53,0,2
136704,note_off,,,,,512,0,3,,,55,0,2
136704,note_on,,,,,0,0,3,,,56,96,2
137216,note_on,,,,,0,0,3,,,58,96,2
137216,note_off,,,,,1024,0,5,,,36,0,4
137216,note_on,,,,,0,0,5,,,31,96,4
137216,note_off,,,,,1024,0,4,,,48,0,3
137216,note_on,,,,,0,0,4,,,43,96,3
137216,note_off,,,,,512,0,3,,,56,0,2
137728,note_on,,,,,0,0,3,,,51,96,2
137728,note_off,,,,,512,0,3,,,58,0,2
138240,note_off,,,,,3072,0,1,,,67,0,0
138240,note_on,,,,,0,0,1,,,65,96,0
138240,note_on,,,,,0,0,4,,,44,96,3
138240,note_off,,,,,512,0,3,,,51,0,2
138240,note_on,,,,,0,0,5,,,32,96,4
138240,note_off,,,,,1024,0,5,,,31,0,4
138240,note_off,,,,,1024,0,4,,,43,0,3
138240,note_on,,,,,0,0,3,,,60,96,2
138752,note_on,,,,,0,0,3,,,58,96,2
138752,note_off,,,,,512,0,3,,,60,0,2
139264,note_on,,,,,0,0,3,,,56,96,2
139264,note_off,,,,,512,0,3,,,58,0,2
139264,note_on,,,,,0,0,4,,,41,96,3
139264,note_on,,,,,0,0,5,,,29,96,4
139264,note_on,,,,,0,0,2,,,62,96,1
139264,note_off,,,,,3072,0,2,,,63,0,1
139264,note_off,,,,,1024,0,5,,,32,0,4
139264,note_off,,,,,1024,0,4,,,44,0,3
139776,note_on,,,,,0,0,2,,,60,96,1
139776,note_off,,,,,512,0,2,,,62,0,1
139776,note_on,,,,,0,0,3,,,60,96,2
139776,note_off,,,,,512,0,3,,,56,0,2
140288,note_on,,,,,0,0,4,,,46,96,3
140288,note_off,,,,,1024,0,4,,,41,0,3
140288,note_on,,,,,0,0,3,,,58,96,2
140288,note_off,,,,,512,0,2,,,60,0,1
140288,note_on,,,,,0,0,2,,,62,96,1
140288,note_off,,,,,512,0,3,,,60,0,2
140288,note_off,,,,,1024,0,5,,,29,0,4
140288,note_on,,,,,0,0,5,,,34,96,4
140800,note_off,,,,,512,0,3,,,58,0,2
140800,note_on,,,,,0,0,3,,,56,96,2
141312,note_on,,,,,0,0,4,,,36,96,3
141312,note_off,,,,,1024,0,4,,,46,0,3
141312,note_off,,,,,512,0,3,,,56,0,2
141312,note_off,,,,,3072,0,1,,,65,0,0
141312,note_on,,,,,0,0,5,,,24,96,4
141312,note_on,,,,,0,0,3,,,55,96,2
141312,note_on,,,,,0,0,1,,,63,96,0
141312,note_off,,,,,1024,0,5,,,34,0,4
141824,note_off,,,,,1536,0,2,,,62,0,1
141824,note_on,,,,,0,0,2,,,60,96,1
142080,note_on,,,,,0,0,2,,,59,96,1
142080,note_off,,,,,256,0,2,,,60,0,1
142336,note_off,,,,,1024,0,4,,,36,0,3
142336,note_on,,,,,0,0,5,,,36,96,4
142336,note_on,,,,,0,0,4,,,48,96,3
142336,note_on,,,,,0,0,2,,,60,96,1
142336,note_off,,,,,256,0,2,,,59,0,1
142336,note_off,,,,,1024,0,5,,,24,0,4
142848,note_on,,,,,0,0,3,,,56,96,2
142848,note_off,,,,,1536,0,3,,,55,0,2
143360,note_off,,,,,2048,0,1,,,63,0,0
143360,note_on,,,,,0,0,1,,,65,96,0
143360,note_on,,,,,0,0,5,,,38,96,4
143360,note_off,,,,,1024,0,5,,,36,0,4
143360,note_off,,,,,1024,0,4,,,48,0,3
143360,note_on,,,,,0,0,4,,,50,96,3
143360,note_off,,,,,1024,0,2,,,60,0,1
143360,note_on,,,,,0,0,2,,,58,96,1
143360,note_off,,,,,512,0,3,,,56,0,2
143360,note_on,,,,,0,0,3,,,55,96,2
143872,note_on,,,,,0,0,3,,,53,96,2
143872,note_off,,,,,512,0,3,,,55,0,2
144128,note_off,,,,,768,0,1,,,65,0,0
144128,note_on,,,,,0,0,1,,,67,96,0
144256,note_on,,,,,0,0,1,,,68,96,0
144256,note_off,,,,,128,0,1,,,67,0,0
144384,note_on,,,,,0,0,5,,,39,96,4
144384,note_on,,,,,0,0,1,,,67,96,0
144384,note_off,,,,,128,0,1,,,68,0,0
144384,note_off,,,,,1024,0,4,,,50,0,3
144384,note_on,,,,,0,0,4,,,51,96,3
144384,note_off,,,,,512,0,3,,,53,0,2
144384,note_on,,,,,0,0,3,,,51,96,2
144384,note_off,,,,,1024,0,5,,,38,0,4
144896,note_off,,,,,1536,0,2,,,58,0,1
144896,note_on,,,,,0,0,2,,,63,96,1
145152,note_on,,,,,0,0,1,,,68,96,0
145152,note_off,,,,,768,0,1,,,67,0,0
145408,note_off,,,,,1024,0,3,,,51,0,2
145408,note_off,,,,,512,0,2,,,63,0,1
145408,note_on,,,,,0,0,4,,,53,96,3
145408,note_on,,,,,0,0,2,,,62,96,1
145408,note_off,,,,,1024,0,5,,,39,0,4
145408,note_on,,,,,0,0,5,,,41,96,4
145408,note_off,,,,,256,0,1,,,68,0,0
145408,note_off,,,,,1024,0,4,,,51,0,3
145408,note_on,,,,,0,0,1,,,68,96,0
145920,note_on,,,,,0,0,2,,,60,96,1
145920,note_off,,,,,512,0,2,,,62,0,1
146176,note_off,,,,,768,0,1,,,68,0,0
146176,note_on,,,,,0,0,1,,,67,96,0
146304,note_off,,,,,128,0,1,,,67,0,0
146304,note_on,,,,,0,0,1,,,68,96,0
146432,note_on,,,,,0,0,1,,,70,96,0
146432,note_off,,,,,512,0,2,,,60,0,1
146432,note_off,,,,,128,0,1,,,68,0,0
146432,note_on,,,,,0,0,2,,,58,96,1
146432,note_on,,,,,0,0,4,,,55,96,3
146432,note_on,,,,,0,0,5,,,43,96,4
146432,note_off,,,,,1024,0,5,,,41,0,4
146432,note_off,,,,,1024,0,4,,,53,0,3
146944,note_off,,,,,512,0,2,,,58,0,1
146944,note_on,,,,,0,0,2,,,67,96,1
147456,note_off,,,,,1024,0,5,,,43,0,4
147456,note_off,,,,,1024,0,4,,,55,0,3
147456,note_on,,,,,0,0,4,,,56,96,3
147456,note_on,,,,,0,0,5,,,44,96,4
147456,note_off,,,,,512,0,2,,,67,0,1
147456,note_on,,,,,0,0,2,,,65,96,1
147712,note_off,,,,,1280,0,1,,,70,0,0
147712,note_on,,,,,0,0,1,,,73,96,0
147968,note_off,,,,,256,0,1,,,73,0,0
147968,note_on,,,,,0,0,2,,,63,96,1
147968,note_on,,,,,0,0,1,,,72,96,0
147968,note_off,,,,,512,0,2,,,65,0,1
148224,note_off,,,,,256,0,1,,,72,0,0
148224,note_on,,,,,0,0,1,,,70,96,0
148480,note_off,,,,,1024,0,4,,,56,0,3
148480,note_on,,,,,0,0,4,,,53,96,3
148480,note_on,,,,,0,0,2,,,62,96,1
148480,note_off,,,,,1024,0,5,,,44,0,4
148480,note_on,,,,,0,0,5,,,41,96,4
148480,note_off,,,,,256,0,1,,,70,0,0
148480,note_on,,,,,0,0,1,,,68,96,0
148480,note_off,,,,,512,0,2,,,63,0,1
148992,note_off,,,,,512,0,2,,,62,0,1
148992,note_on,,,,,0,0,2,,,63,96,1
149504,note_on,,,,,0,0,4,,,58,96,3
149504,note_off,,,,,1024,0,5,,,41,0,4
149504,note_on,,,,,0,0,5,,,46,96,4
149504,note_on,,,,,0,0,2,,,60,96,1
149504,note_off,,,,,512,0,2,,,63,0,1
149504,note_off,,,,,1024,0,4,,,53,0,3
150016,note_on,,,,,0,0,2,,,62,96,1
150016,note_off,,,,,512,0,2,,,60,0,1
150016,note_off,,,,,1536,0,1,,,68,0,0
150016,note_on,,,,,0,0,1,,,67,96,0
150272,note_on,,,,,0,0,1,,,68,96,0
150272,note_off,,,,,256,0,1,,,67,0,0
150528,note_off,,,,,1024,0,4,,,58,0,3
150528,note_off,,,,,1024,0,5,,,46,0,4
150528,note_on,,,,,0,0,5,,,39,96,4
150528,note_on,,,,,0,0,4,,,51,96,3
150528,note_off,,,,,512,0,2,,,62,0,1
150528,note_on,,,,,0,0,2,,,63,96,1
150528,note_off,,,,,256,0,1,,,68,0,0
150528,note_on,,,,,0,0,1,,,67,96,0
151040,note_off,,,,,512,0,2,,,63,0,1
151040,note_on,,,,,0,0,2,,,65,96,1
151552,note_off,,,,,512,0,2,,,65,0,1
151552,note_on,,,,,0,0,2,,,67,96,1
151552,note_on,,,,,6144,0,3,,,67,96,2
152064,note_off,,,,,512,0,2,,,67,0,1
152064,note_on,,,,,0,0,2,,,68,96,1
152576,note_on,,,,,0,0,4,,,50,96,3
152576,note_off,,,,,2048,0,4,,,51,0,3
152576,note_on,,,,,0,0,3,,,65,96,2
152576,note_off,,,,,1024,0,3,,,67,0,2
152576,note_off,,,,,2048,0,5,,,39,0,4
152576,note_on,,,,,0,0,5,,,38,96,4
152576,note_on,,,,,0,0,2,,,71,96,1
152576,note_off,,,,,512,0,2,,,68,0,1
153344,note_off,,,,,768,0,3,,,65,0,2
153344,note_on,,,,,0,0,3,,,63,96,2
153472,note_off,,,,,128,0,3,,,63,0,2
153472,note_on,,,,,0,0,3,,,65,96,2
153600,note_off,,,,,1024,0,5,,,38,0,4
153600,note_on,,,,,0,0,5,,,36,96,4
153600,note_on,,,,,0,0,3,,,63,96,2
153600,note_on,,,,,0,0,4,,,48,96,3
153600,note_off,,,,,1024,0,4,,,50,0,3
153600,note_on,,,,,0,0,2,,,72,96,1
153600,note_off,,,,,1024,0,2,,,71,0,1
153600,note_off,,,,,128,0,3,,,65,0,2
154112,note_off,,,,,512,0,3,,,63,0,2
154112,note_on,,,,,0,0,3,,,60,96,2
154112,note_on,,,,,0,0,2,,,63,96,1
154112,note_off,,,,,512,0,2,,,72,0,1
154624,note_off,,,,,512,0,3,,,60,0,2
154624,note_on,,,,,0,0,3,,,62,96,2
154624,note_on,,,,,0,0,2,,,65,96,1
154624,note_off,,,,,512,0,2,,,63,0,1
154624,note_off,,,,,1024,0,5,,,36,0,4
154624,note_on,,,,,0,0,5,,,48,96,4
154624,note_on,,,,,0,0,4,,,60,96,3
154624,note_off,,,,,1024,0,4,,,48,0,3
155136,note_off,,,,,512,0,3,,,62,0,2
155136,note_on,,,,,0,0,3,,,65,96,2
155392,note_on,,,,,0,0,2,,,67,96,1
155392,note_off,,,,,768,0,2,,,65,0,1
155648,note_on,,,,,0,0,4,,,58,96,3
155648,note_off,,,,,1024,0,4,,,60,0,3
155648,note_off,,,,,5120,0,1,,,67,0,0
155648,note_off,,,,,1024,0,5,,,48,0,4
155648,note_on,,,,,0,0,5,,,46,96,4
155648,note_off,,,,,256,0,2,,,67,0,1
155648,note_on,,,,,0,0,3,,,63,96,2
155648,note_off,,,,,512,0,3,,,65,0,2
155648,note_on,,,,,0,0,2,,,67,96,1
156160,note_off,,,,,512,0,3,,,63,0,2
156160,note_on,,,,,0,0,3,,,62,96,2
156416,note_on,,,,,0,0,2,,,65,96,1
156416,note_off,,,,,768,0,2,,,67,0,1
156544,note_on,,,,,0,0,2,,,67,96,1
156544,note_off,,,,,128,0,2,,,65,0,1
156672,note_on,,,,,0,0,2,,,68,96,1
156672,note_on,,,,,0,0,4,,,56,96,3
156672,note_on,,,,,0,0,5,,,44,96,4
156672,note_off,,,,,512,0,3,,,62,0,2
156672,note_on,,,,,0,0,3,,,60,96,2
156672,note_off,,,,,128,0,2,,,67,0,1
156672,note_off,,,,,1024,0,4,,,58,0,3
156672,note_off,,,,,1024,0,5,,,46,0,4
157184,note_off,,,,,512,0,3,,,60,0,2
157184,note_on,,,,,0,0,3,,,58,96,2
157696,note_on,,,,,0,0,4,,,44,96,3
157696,note_on,,,,,0,0,5,,,32,96,4
157696,note_off,,,,,512,0,3,,,58,0,2
157696,note_off,,,,,1024,0,5,,,44,0,4
157696,note_off,,,,,1024,0,4,,,56,0,3
157696,note_on,,,,,0,0,3,,,60,96,2
158464,note_on,,,,,0,0,3,,,61,96,2
158464,note_off,,,,,768,0,3,,,60,0,2
158720,note_off,,,,,256,0,3,,,61,0,2
158720,note_on,,,,,0,0,3,,,61,96,2
158720,note_on,,,,,0,0,4,,,46,96,3
158720,note_off,,,,,1024,0,4,,,44,0,3
158720,note_on,,,,,0,0,5,,,34,96,4
158720,note_off,,,,,1024,0,5,,,32,0,4
159488,note_off,,,,,768,0,3,,,61,0,2
159488,note_on,,,,,0,0,3,,,60,96,2
159616,note_on,,,,,0,0,3,,,61,96,2
159616,note_off,,,,,128,0,3,,,60,0,2
159744,note_off,,,,,1024,0,4,,,46,0,3
159744,note_on,,,,,0,0,4,,,48,96,3
159744,note_off,,,,,128,0,3,,,61,0,2
159744,note_on,,,,,0,0,3,,,63,96,2
159744,note_off,,,,,1024,0,5,,,34,0,4
159744,note_on,,,,,0,0,5,,,36,96,4
160256,note_off,,,,,3584,0,2,,,68,0,1
160256,note_on,,,,,0,0,2,,,72,96,1
160768,note_on,,,,,0,0,4,,,49,96,3
160768,note_off,,,,,1024,0,4,,,48,0,3
160768,note_on,,,,,0,0,3,,,65,96,2
160768,note_on,,,,,0,0,2,,,70,96,1
160768,note_off,,,,,512,0,2,,,72,0,1
160768,note_off,,,,,1024,0,3,,,63,0,2
160768,note_off,,,,,1024,0,5,,,36,0,4
160768,note_on,,,,,0,0,5,,,37,96,4
161280,note_off,,,,,512,0,2,,,70,0,1
161280,note_on,,,,,0,0,2,,,68,96,1
161792,note_on,,,,,0,0,5,,,39,96,4
161792,note_off,,,,,1024,0,5,,,37,0,4
161792,note_on,,,,,0,0,4,,,51,96,3
161792,note_off,,,,,1024,0,3,,,65,0,2
161792,note_on,,,,,0,0,3,,,58,96,2
161792,note_off,,,,,512,0,2,,,68,0,1
161792,note_on,,,,,0,0,2,,,67,96,1
161792,note_off,,,,,1024,0,4,,,49,0,3
162304,note_off,,,,,512,0,2,,,67,0,1
162304,note_on,,,,,0,0,2,,,70,96,1
162816,note_off,,,,,512,0,2,,,70,0,1
162816,note_on,,,,,0,0,2,,,68,96,1
162816,note_off,,,,,1024,0,3,,,58,0,2
162816,note_on,,,,,0,0,3,,,60,96,2
163328,note_off,,,,,512,0,2,,,68,0,1
163328,note_on,,,,,0,0,2,,,67,96,1
163840,note_off,,,,,2048,0,5,,,39,0,4
163840,note_off,,,,,512,0,2,,,67,0,1
163840,note_on,,,,,0,0,2,,,65,96,1
163840,note_on,,,,,0,0,4,,,49,96,3
163840,note_on,,,,,0,0,5,,,37,96,4
163840,note_off,,,,,2048,0,4,,,51,0,3
164352,note_on,,,,,0,0,2,,,68,96,1
164352,note_off,,,,,512,0,2,,,65,0,1
164864,note_on,,,,,0,0,3,,,58,96,2
164864,note_on,,,,,0,0,2,,,67,96,1
164864,note_off,,,,,2048,0,3,,,60,0,2
164864,note_off,,,,,512,0,2,,,68,0,1
165376,note_on,,,,,0,0,2,,,65,96,1
165376,note_off,,,,,512,0,2,,,67,0,1
165888,note_off,,,,,512,0,2,,,65,0,1
165888,note_on,,,,,0,0,2,,,64,96,1
165888,note_on,,,,,0,0,4,,,48,96,3
165888,note_off,,,,,2048,0,4,,,49,0,3
165888,note_off,,,,,2048,0,5,,,37,0,4
165888,note_on,,,,,0,0,5,,,36,96,4
166400,note_on,,,,,0,0,3,,,61,96,2
166400,note_off,,,,,1536,0,3,,,58,0,2
166912,note_on,,,,,0,0,3,,,60,96,2
166912,note_off,,,,,512,0,3,,,61,0,2
167424,note_on,,,,,0,0,3,,,58,96,2
167424,note_off,,,,,512,0,3,,,60,0,2
167424,note_off,,,,,1536,0,2,,,64,0,1
167424,note_on,,,,,0,0,2,,,64,96,1
167936,note_off,,,,,2048,0,4,,,48,0,3
167936,note_on,,,,,0,0,3,,,56,96,2
167936,note_off,,,,,512,0,3,,,58,0,2
167936,note_off,,,,,512,0,2,,,64,0,1
167936,note_on,,,,,0,0,2,,,65,96,1
167936,note_on,,,,,0,0,5,,,37,96,4
167936,note_off,,,,,2048,0,5,,,36,0,4
167936,note_on,,,,,0,0,4,,,49,96,3
168448,note_off,,,,,512,0,2,,,65,0,1
168448,note_on,,,,,0,0,2,,,64,96,1
168448,note_off,,,,,512,0,3,,,56,0,2
168448,note_on,,,,,0,0,3,,,55,96,2
168960,note_off,,,,,512,0,3,,,55,0,2
168960,note_off,,,,,512,0,2,,,64,0,1
168960,note_on,,,,,0,0,2,,,65,96,1
168960,note_on,,,,,0,0,3,,,56,96,2
168960,note_on,,,,,0,0,5,,,34,96,4
168960,note_off,,,,,1024,0,5,,,37,0,4
168960,note_off,,,,,1024,0,4,,,49,0,3
168960,note_on,,,,,0,0,4,,,46,96,3
169472,note_off,,,,,512,0,3,,,56,0,2
169472,note_on,,,,,0,0,3,,,58,96,2
169472,note_on,,,,,0,0,2,,,67,96,1
169472,note_off,,,,,512,0,2,,,65,0,1
169984,note_on,,,,,0,0,2,,,64,96,1
169984,note_off,,,,,512,0,3,,,58,0,2
169984,note_off,,,,,512,0,2,,,67,0,1
169984,note_off,,,,,1024,0,4,,,46,0,3
169984,note_off,,,,,1024,0,5,,,34,0,4
169984,note_on,,,,,0,0,5,,,36,96,4
169984,note_on,,,,,0,0,4,,,48,96,3
169984,note_on,,,,,0,0,3,,,55,96,2
170496,note_on,,,,,0,0,3,,,61,96,2
170496,note_off,,,,,512,0,3,,,55,0,2
171008,note_on,,,,,0,0,3,,,60,96,2
171008,note_off,,,,,512,0,3,,,61,0,2
171008,note_on,,,,,0,0,4,,,36,96,3
171008,note_on,,,,,0,0,5,,,24,96,4
171008,note_off,,,,,1024,0,5,,,36,0,4
171008,note_off,,,,,1024,0,4,,,48,0,3
171520,note_off,,,,,1536,0,2,,,64,0,1
171520,note_off,,,,,512,0,3,,,60,0,2
171520,note_on,,,,,0,0,3,,,58,96,2
171520,note_on,,,,,0,0,2,,,62,96,1
171776,note_on,,,,,0,0,2,,,64,96,1
171776,note_off,,,,,256,0,2,,,62,0,1
172032,note_off,,,,,1024,0,4,,,36,0,3
172032,note_on,,,,,0,0,4,,,41,96,3
172032,note_off,,,,,1024,0,5,,,24,0,4
172032,note_on,,,,,0,0,5,,,29,96,4
172032,note_off,,,,,256,0,2,,,64,0,1
172032,note_off,,,,,512,0,3,,,58,0,2
172032,note_on,,,,,0,0,2,,,65,96,1
172032,note_on,,,,,0,0,3,,,56,96,2
172544,note_off,,,,,512,0,3,,,56,0,2
172544,note_on,,,,,0,0,3,,,55,96,2
173056,note_on,,,,,0,0,4,,,53,96,3
173056,note_on,,,,,0,0,5,,,41,96,4
173056,note_off,,,,,1024,0,5,,,29,0,4
173056,note_off,,,,,512,0,3,,,55,0,2
173056,note_on,,,,,0,0,3,,,56,96,2
173056,note_off,,,,,1024,0,4,,,41,0,3
173568,note_off,,,,,512,0,3,,,56,0,2
173568,note_on,,,,,0,0,3,,,53,96,2
174080,note_off,,,,,2048,0,2,,,65,0,1
174080,note_off,,,,,512,0,3,,,53,0,2
174080,note_on,,,,,0,0,4,,,51,96,3
174080,note_on,,,,,0,0,3,,,55,96,2
174080,note_off,,,,,1024,0,5,,,41,0,4
174080,note_on,,,,,0,0,5,,,39,96,4
174080,note_off,,,,,1024,0,4,,,53,0,3
174592,note_off,,,,,512,0,3,,,55,0,2
174592,note_on,,,,,0,0,3,,,57,96,2
175104,note_off,,,,,1024,0,4,,,51,0,3
175104,note_off,,,,,1024,0,5,,,39,0,4
175104,note_on,,,,,0,0,5,,,38,96,4
175104,note_off,,,,,512,0,3,,,57,0,2
175104,note_on,,,,,0,0,3,,,58,96,2
175104,note_on,,,,,0,0,4,,,50,96,3
175616,note_on,,,,,0,0,3,,,53,96,2
175616,note_off,,,,,512,0,3,,,58,0,2
176128,note_on,,,,,0,0,3,,,58,96,2
176128,note_on,,,,,2048,0,2,,,65,96,1
176128,note_off,,,,,512,0,3,,,53,0,2
176896,note_off,,,,,768,0,2,,,65,0,1
176896,note_on,,,,,0,0,2,,,67,96,1
177152,note_off,,,,,2048,0,4,,,50,0,3
177152,note_on,,,,,0,0,4,,,48,96,3
177152,note_off,,,,,2048,0,5,,,38,0,4
177152,note_on,,,,,0,0,5,,,36,96,4
177152,note_off,,,,,256,0,2,,,67,0,1
177152,note_on,,,,,0,0,2,,,65,96,1
177408,note_off,,,,,256,0,2,,,65,0,1
177408,note_on,,,,,0,0,2,,,63,96,1
177664,note_off,,,,,256,0,2,,,63,0,1
177664,note_on,,,,,0,0,2,,,62,96,1
177664,note_on,,,,,0,0,3,,,57,96,2
177664,note_off,,,,,1536,0,3,,,58,0,2
177920,note_on,,,,,0,0,2,,,63,96,1
177920,note_off,,,,,256,0,2,,,62,0,1
178176,note_on,,,,,0,0,3,,,58,96,2
178176,note_on,,,,,0,0,5,,,34,96,4
178176,note_on,,,,,22528,0,1,,,70,96,0
178176,note_off,,,,,512,0,3,,,57,0,2
178176,note_off,,,,,1024,0,5,,,36,0,4
178176,note_off,,,,,1024,0,4,,,48,0,3
178176,note_off,,,,,256,0,2,,,63,0,1
178176,note_on,,,,,0,0,4,,,46,96,3
178176,note_on,,,,,0,0,2,,,62,96,1
178688,note_off,,,,,512,0,5,,,34,0,4
178688,note_on,,,,,0,0,5,,,48,96,4
178688,note_on,,,,,0,0,4,,,60,96,3
178688,note_off,,,,,512,0,4,,,46,0,3
179200,note_off,,,,,512,0,4,,,60,0,3
179200,note_on,,,,,0,0,5,,,46,96,4
179200,note_on,,,,,0,0,3,,,60,96,2
179200,note_off,,,,,1024,0,3,,,58,0,2
179200,note_off,,,,,1024,0,2,,,62,0,1
179200,note_off,,,,,512,0,5,,,48,0,4
179200,note_on,,,,,0,0,4,,,58,96,3
179200,note_on,,,,,0,0,2,,,63,96,1
179712,note_on,,,,,0,0,4,,,56,96,3
179712,note_off,,,,,512,0,4,,,58,0,3
179712,note_on,,,,,0,0,5,,,44,96,4
179712,note_off,,,,,512,0,5,,,46,0,4
180224,note_on,,,,,0,0,4,,,55,96,3
180224,note_off,,,,,512,0,4,,,56,0,3
180224,note_on,,,,,0,0,2,,,65,96,1
180224,note_off,,,,,1024,0,3,,,60,0,2
180224,note_on,,,,,0,0,3,,,62,96,2
180224,note_on,,,,,0,0,5,,,43,96,4
180224,note_off,,,,,512,0,5,,,44,0,4
180224,note_off,,,,,1024,0,2,,,63,0,1
180736,note_on,,,,,0,0,5,,,41,96,4
180736,note_off,,,,,512,0,4,,,55,0,3
180736,note_on,,,,,0,0,4,,,53,96,3
180736,note_off,,,,,512,0,5,,,43,0,4
181248,note_off,,,,,512,0,5,,,41,0,4
181248,note_on,,,,,0,0,5,,,39,96,4
181248,note_off,,,,,1024,0,2,,,65,0,1
181248,note_on,,,,,0,0,3,,,63,96,2
181248,note_on,,,,,0,0,4,,,51,96,3
181248,note_off,,,,,512,0,4,,,53,0,3
181248,note_on,,,,,0,0,2,,,67,96,1
181248,note_off,,,,,1024,0,3,,,62,0,2
181248,note_off,,,,,3072,0,1,,,70,0,0
181248,note_on,,,,,0,0,1,,,67,96,0
181760,note_on,,,,,0,0,5,,,38,96,4
181760,note_on,,,,,0,0,4,,,50,96,3
181760,note_off,,,,,512,0,4,,,51,0,3
181760,note_off,,,,,512,0,5,,,39,0,4
182272,note_on,,,,,0,0,4,,,48,96,3
182272,note_off,,,,,512,0,4,,,50,0,3
182272,note_on,,,,,0,0,5,,,36,96,4
182272,note_off,,,,,512,0,5,,,38,0,4
182272,note_off,,,,,1024,0,2,,,67,0,1
182272,note_on,,,,,0,0,2,,,72,96,1
182272,note_off,,,,,1024,0,3,,,63,0,2
182272,note_on,,,,,0,0,3,,,64,96,2
182784,note_off,,,,,512,0,4,,,48,0,3
182784,note_on,,,,,0,0,4,,,46,96,3
182784,note_off,,,,,512,0,5,,,36,0,4
182784,note_on,,,,,0,0,5,,,34,96,4
183296,note_off,,,,,1024,0,2,,,72,0,1
183296,note_off,,,,,512,0,5,,,34,0,4
183296,note_on,,,,,0,0,5,,,32,96,4
183296,note_on,,,,,0,0,2,,,70,96,1
183296,note_off,,,,,512,0,4,,,46,0,3
183296,note_on,,,,,0,0,4,,,44,96,3
183808,note_on,,,,,0,0,4,,,43,96,3
183808,note_off,,,,,512,0,4,,,44,0,3
183808,note_on,,,,,0,0,5,,,31,96,4
183808,note_off,,,,,512,0,5,,,32,0,4
184320,note_on,,,,,0,0,3,,,65,96,2
184320,note_on,,,,,0,0,2,,,68,96,1
184320,note_off,,,,,1024,0,2,,,70,0,1
184320,note_off,,,,,512,0,5,,,31,0,4
184320,note_on,,,,,0,0,5,,,29,96,4
184320,note_off,,,,,2048,0,3,,,64,0,2
184320,note_on,,,,,0,0,1,,,68,96,0
184320,note_off,,,,,3072,0,1,,,67,0,0
184320,note_off,,,,,512,0,4,,,43,0,3
184320,note_on,,,,,0,0,4,,,41,96,3
184832,note_off,,,,,512,0,3,,,65,0,2
184832,note_off,,,,,512,0,2,,,68,0,1
184832,note_on,,,,,0,0,2,,,67,96,1
184832,note_on,,,,,0,0,3,,,63,96,2
185344,note_off,,,,,512,0,3,,,63,0,2
185344,note_on,,,,,0,0,3,,,62,96,2
185344,note_off,,,,,512,0,2,,,67,0,1
185344,note_on,,,,,0,0,2,,,65,96,1
185856,note_off,,,,,1536,0,1,,,68,0,0
185856,note_on,,,,,0,0,1,,,68,96,0
185856,note_on,,,,,0,0,3,,,60,96,2
185856,note_off,,,,,512,0,3,,,62,0,2
186368,note_on,,,,,0,0,3,,,58,96,2
186368,note_off,,,,,512,0,3,,,60,0,2
186368,note_on,,,,,0,0,5,,,31,96,4
186368,note_off,,,,,1024,0,2,,,65,0,1
186368,note_on,,,,,0,0,2,,,63,96,1
186368,note_off,,,,,2048,0,5,,,29,0,4
186368,note_on,,,,,0,0,4,,,43,96,3
186368,note_on,,,,,0,0,1,,,67,96,0
186368,note_off,,,,,512,0,1,,,68,0,0
186368,note_off,,,,,2048,0,4,,,41,0,3
186880,note_on,,,,,0,0,2,,,61,96,1
186880,note_off,,,,,512,0,2,,,63,0,1
186880,note_on,,,,,0,0,1,,,65,96,0
186880,note_off,,,,,512,0,1,,,67,0,0
187392,note_on,,,,,0,0,1,,,63,96,0
187392,note_off,,,,,1024,0,5,,,31,0,4
187392,note_on,,,,,0,0,5,,,32,96,4
187392,note_on,,,,,0,0,2,,,60,96,1
187392,note_on,,,,,0,0,4,,,44,96,3
187392,note_off,,,,,1024,0,4,,,43,0,3
187392,note_off,,,,,512,0,1,,,65,0,0
187392,note_off,,,,,512,0,2,,,61,0,1
187904,note_off,,,,,512,0,1,,,63,0,0
187904,note_off,,,,,1536,0,3,,,58,0,2
187904,note_on,,,,,0,0,3,,,56,96,2
187904,note_on,,,,,0,0,1,,,65,96,0
188416,note_on,,,,,0,0,1,,,65,96,0
188416,note_off,,,,,1024,0,2,,,60,0,1
188416,note_on,,,,,0,0,2,,,58,96,1
188416,note_on,,,,,0,0,3,,,50,96,2
188416,note_off,,,,,512,0,3,,,56,0,2
188416,note_off,,,,,512,0,1,,,65,0,0
189184,note_off,,,,,768,0,1,,,65,0,0
189184,note_on,,,,,0,0,1,,,63,96,0
189312,note_off,,,,,128,0,1,,,63,0,0
189312,note_on,,,,,0,0,1,,,65,96,0
189440,note_off,,,,,2048,0,5,,,32,0,4
189440,note_on,,,,,0,0,3,,,51,96,2
189440,note_off,,,,,1024,0,3,,,50,0,2
189440,note_on,,,,,0,0,1,,,67,96,0
189440,note_off,,,,,128,0,1,,,65,0,0
189440,note_on,,,,,0,0,5,,,31,96,4
189440,note_on,,,,,0,0,4,,,43,96,3
189440,note_off,,,,,2048,0,4,,,44,0,3
189952,note_off,,,,,1536,0,2,,,58,0,1
189952,note_on,,,,,0,0,2,,,58,96,1
190464,note_off,,,,,512,0,2,,,58,0,1
190464,note_off,,,,,1024,0,5,,,31,0,4
190464,note_on,,,,,0,0,5,,,32,96,4
190464,note_on,,,,,0,0,2,,,60,96,1
190464,note_off,,,,,1024,0,4,,,43,0,3
190464,note_on,,,,,0,0,4,,,44,96,3
190720,note_on,,,,,0,0,1,,,72,96,0
190720,note_off,,,,,1280,0,1,,,67,0,0
190976,note_off,,,,,256,0,1,,,72,0,0
190976,note_on,,,,,0,0,1,,,70,96,0
191232,note_on,,,,,0,0,1,,,68,96,0
191232,note_off,,,,,256,0,1,,,70,0,0
191488,note_off,,,,,1024,0,5,,,32,0,4
191488,note_on,,,,,0,0,5,,,34,96,4
191488,note_on,,,,,0,0,4,,,46,96,3
191488,note_on,,,,,0,0,2,,,58,96,1
191488,note_off,,,,,1024,0,2,,,60,0,1
191488,note_off,,,,,1024,0,4,,,44,0,3
191488,note_off,,,,,256,0,1,,,68,0,0
191488,note_on,,,,,0,0,1,,,67,96,0
192000,note_off,,,,,2560,0,3,,,51,0,2
192000,note_on,,,,,0,0,3,,,51,96,2
192512,note_off,,,,,512,0,3,,,51,0,2
192512,note_on,,,,,0,0,5,,,32,96,4
192512,note_off,,,,,1024,0,5,,,34,0,4
192512,note_on,,,,,0,0,3,,,50,96,2
192512,note_on,,,,,0,0,4,,,44,96,3
192512,note_on,,,,,0,0,1,,,65,96,0
192512,note_off,,,,,1024,0,4,,,46,0,3
192512,note_off,,,,,1024,0,1,,,67,0,0
193024,note_off,,,,,512,0,1,,,65,0,0
193024,note_on,,,,,0,0,1,,,63,96,0
193024,note_off,,,,,512,0,3,,,50,0,2
193024,note_on,,,,,0,0,3,,,51,96,2
193280,note_off,,,,,256,0,1,,,63,0,0
193280,note_on,,,,,0,0,1,,,65,96,0
193536,note_off,,,,,512,0,3,,,51,0,2
193536,note_on,,,,,0,0,3,,,53,96,2
193536,note_off,,,,,1024,0,5,,,32,0,4
193536,note_on,,,,,0,0,5,,,31,96,4
193536,note_on,,,,,0,0,4,,,43,96,3
193536,note_off,,,,,1024,0,4,,,44,0,3
193536,note_on,,,,,0,0,1,,,63,96,0
193536,note_off,,,,,256,0,1,,,65,0,0
194048,note_off,,,,,2560,0,2,,,58,0,1
194048,note_on,,,,,0,0,2,,,60,96,1
194560,note_off,,,,,512,0,2,,,60,0,1
194560,note_on,,,,,0,0,2,,,61,96,1
195072,note_on,,,,,0,0,3,,,58,96,2
195072,note_off,,,,,1536,0,3,,,53,0,2
195584,note_off,,,,,1024,0,2,,,61,0,1
195584,note_on,,,,,0,0,2,,,60,96,1
195584,note_on,,,,,0,0,5,,,32,96,4
195584,note_off,,,,,2048,0,5,,,31,0,4
195584,note_on,,,,,0,0,4,,,44,96,3
195584,note_off,,,,,2048,0,4,,,43,0,3
196096,note_off,,,,,1024,0,3,,,58,0,2
196096,note_on,,,,,0,0,3,,,56,96,2
196608,note_on,,,,,0,0,5,,,34,96,4
196608,note_off,,,,,1024,0,4,,,44,0,3
196608,note_on,,,,,0,0,4,,,46,96,3
196608,note_on,,,,,0,0,2,,,58,96,1
196608,note_off,,,,,1024,0,5,,,32,0,4
196608,note_off,,,,,1024,0,2,,,60,0,1
197120,note_off,,,,,1024,0,3,,,56,0,2
197120,note_on,,,,,0,0,3,,,55,96,2
197632,note_off,,,,,1024,0,2,,,58,0,1
197632,note_on,,,,,0,0,5,,,36,96,4
197632,note_off,,,,,1024,0,4,,,46,0,3
197632,note_on,,,,,0,0,4,,,48,96,3
197632,note_off,,,,,1024,0,5,,,34,0,4
197632,note_on,,,,,0,0,2,,,56,96,1
198144,note_off,,,,,1024,0,3,,,55,0,2
198144,note_on,,,,,0,0,3,,,53,96,2
198656,note_off,,,,,1024,0,5,,,36,0,4
198656,note_on,,,,,0,0,5,,,37,96,4
198656,note_on,,,,,0,0,3,,,51,96,2
198656,note_on,,,,,0,0,4,,,49,96,3
198656,note_off,,,,,512,0,3,,,53,0,2
198656,note_off,,,,,1024,0,4,,,48,0,3
199168,note_off,,,,,1536,0,2,,,56,0,1
199168,note_on,,,,,0,0,2,,,55,96,1
199680,note_off,,,,,1024,0,4,,,49,0,3
199680,note_on,,,,,0,0,5,,,36,96,4
199680,note_off,,,,,1024,0,5,,,37,0,4
199680,note_on,,,,,0,0,4,,,48,96,3
199680,note_off,,,,,512,0,2,,,55,0,1
199680,note_on,,,,,0,0,2,,,56,96,1
200192,note_off,,,,,1536,0,3,,,51,0,2
200192,note_on,,,,,0,0,3,,,55,96,2
200192,note_off,,,,,512,0,2,,,56,0,1
200192,note_on,,,,,0,0,2,,,58,96,1
200704,note_on,,,,,0,0,2,,,60,96,1
200704,note_off,,,,,1024,0,4,,,48,0,3
200704,note_on,,,,,0,0,5,,,34,96,4
200704,note_off,,,,,1024,0,5,,,36,0,4
200704,note_on,,,,,0,0,4,,,46,96,3
200704,note_off,,,,,512,0,2,,,58,0,1
200704,note_on,,,,,0,0,3,,,56,96,2
200704,note_off,,,,,512,0,3,,,55,0,2
201216,note_off,,,,,512,0,2,,,60,0,1
201216,note_on,,,,,0,0,2,,,61,96,1
201216,note_off,,,,,512,0,3,,,56,0,2
201216,note_on,,,,,0,0,3,,,58,96,2
201728,note_on,,,,,0,0,5,,,32,96,4
201728,note_off,,,,,1024,0,5,,,34,0,4
201728,note_off,,,,,512,0,2,,,61,0,1
201728,note_on,,,,,0,0,2,,,63,96,1
201728,note_off,,,,,512,0,3,,,58,0,2
201728,note_on,,,,,0,0,3,,,60,96,2
201728,note_off,,,,,1024,0,4,,,46,0,3
201728,note_on,,,,,0,0,4,,,44,96,3
202240,note_off,,,,,512,0,3,,,60,0,2
202240,note_on,,,,,0,0,3,,,56,96,2
202752,note_on,,,,,0,0,3,,,53,96,2
202752,note_off,,,,,512,0,3,,,56,0,2
202752,note_off,,,,,1024,0,5,,,32,0,4
202752,note_on,,,,,0,0,5,,,34,96,4
202752,note_on,,,,,0,0,4,,,46,96,3
202752,note_off,,,,,1024,0,4,,,44,0,3
203264,note_off,,,,,1536,0,2,,,63,0,1
203264,note_on,,,,,0,0,2,,,65,96,1
203776,note_off,,,,,1024,0,5,,,34,0,4
203776,note_off,,,,,512,0,2,,,65,0,1
203776,note_on,,,,,0,0,2,,,61,96,1
203776,note_off,,,,,1024,0,4,,,46,0,3
203776,note_on,,,,,0,0,4,,,44,96,3
203776,note_on,,,,,0,0,5,,,32,96,4
203776,note_off,,,,,1024,0,3,,,53,0,2
203776,note_on,,,,,0,0,3,,,55,96,2
204288,note_on,,,,,0,0,3,,,56,96,2
204288,note_off,,,,,512,0,3,,,55,0,2
204800,note_off,,,,,1024,0,5,,,32,0,4
204800,note_on,,,,,0,0,3,,,58,96,2
204800,note_off,,,,,1024,0,4,,,44,0,3
204800,note_on,,,,,0,0,4,,,43,96,3
204800,note_off,,,,,512,0,3,,,56,0,2
204800,note_on,,,,,0,0,5,,,31,96,4
205312,note_on,,,,,0,0,2,,,60,96,1
205312,note_off,,,,,1536,0,2,,,61,0,1
205568,note_on,,,,,0,0,2,,,61,96,1
205568,note_off,,,,,256,0,2,,,60,0,1
205824,note_off,,,,,1024,0,4,,,43,0,3
205824,note_on,,,,,0,0,2,,,60,96,1
205824,note_off,,,,,256,0,2,,,61,0,1
205824,note_on,,,,,0,0,4,,,44,96,3
205824,note_on,,,,,0,0,5,,,32,96,4
205824,note_off,,,,,1024,0,5,,,31,0,4
206336,note_on,,,,,0,0,3,,,58,96,2
206336,note_off,,,,,1536,0,3,,,58,0,2
206848,note_off,,,,,512,0,3,,,58,0,2
206848,note_on,,,,,0,0,3,,,56,96,2
207360,note_on,,,,,0,0,2,,,58,96,1
207360,note_off,,,,,1536,0,2,,,60,0,1
207360,note_on,,,,,0,0,3,,,55,96,2
207360,note_off,,,,,512,0,3,,,56,0,2
207872,note_on,,,,,0,0,3,,,56,96,2
207872,note_off,,,,,512,0,2,,,58,0,1
207872,note_on,,,,,0,0,2,,,60,96,1
207872,note_off,,,,,512,0,3,,,55,0,2
208384,note_off,,,,,512,0,2,,,60,0,1
208384,note_on,,,,,0,0,3,,,53,96,2
208384,note_off,,,,,512,0,3,,,56,0,2
208384,note_on,,,,,0,0,2,,,61,96,1
208896,note_off,,,,,3072,0,5,,,32,0,4
208896,note_on,,,,,0,0,5,,,27,96,4
208896,note_on,,,,,0,0,3,,,55,96,2
208896,note_off,,,,,512,0,3,,,53,0,2
208896,note_off,,,,,15360,0,1,,,63,0,0
208896,note_off,,,,,512,0,2,,,61,0,1
208896,note_on,,,,,0,0,2,,,58,96,1
208896,note_off,,,,,3072,0,4,,,44,0,3
208896,note_on,,,,,0,0,4,,,39,96,3
209920,note_off,,,,,1024,0,2,,,58,0,1
209920,note_off,,,,,1024,0,5,,,27,0,4
209920,note_off,,,,,1024,0,4,,,39,0,3
209920,note_on,,,,,0,0,4,,,51,96,3
209920,note_off,,,,,1024,0,3,,,55,0,2
209920,note_on,,,,,0,0,5,,,39,96,4
210432,note_on,,,,,512,0,2,,,58,96,1
210944,note_off,,,,,512,0,2,,,58,0,1
210944,note_off,,,,,1024,0,4,,,51,0,3
210944,note_on,,,,,0,0,4,,,50,96,3
210944,note_on,,,,,0,0,2,,,60,96,1
210944,note_off,,,,,1024,0,5,,,39,0,4
210944,note_on,,,,,0,0,5,,,38,96,4
211456,note_on,,,,,0,0,2,,,62,96,1
211456,note_off,,,,,512,0,2,,,60,0,1
211968,note_on,,,,,0,0,5,,,36,96,4
211968,note_off,,,,,1024,0,5,,,38,0,4
211968,note_off,,,,,512,0,2,,,62,0,1
211968,note_off,,,,,1024,0,4,,,50,0,3
211968,note_on,,,,,0,0,4,,,48,96,3
211968,note_on,,,,,0,0,2,,,63,96,1
212480,note_off,,,,,512,0,2,,,63,0,1
212480,note_on,,,,,0,0,2,,,62,96,1
212992,note_off,,,,,512,0,2,,,62,0,1
212992,note_on,,,,,0,0,2,,,63,96,1
213504,note_on,,,,,3584,0,3,,,55,96,2
214016,note_off,,,,,2048,0,5,,,36,0,4
214016,note_on,,,,,0,0,5,,,34,96,4
214016,note_on,,,,,0,0,3,,,57,96,2
214016,note_off,,,,,512,0,3,,,55,0,2
214016,note_off,,,,,2048,0,4,,,48,0,3
214016,note_on,,,,,0,0,4,,,46,96,3
214528,note_off,,,,,512,0,3,,,57,0,2
214528,note_on,,,,,0,0,3,,,58,96,2
215040,note_off,,,,,1024,0,5,,,34,0,4
215040,note_on,,,,,0,0,5,,,33,96,4
215040,note_on,,,,,0,0,4,,,45,96,3
215040,note_on,,,,,0,0,3,,,60,96,2
215040,note_off,,,,,512,0,3,,,58,0,2
215040,note_off,,,,,1024,0,4,,,46,0,3
215552,note_off,,,,,512,0,3,,,60,0,2
215552,note_on,,,,,0,0,3,,,58,96,2
215552,note_on,,,,,0,0,2,,,62,96,1
215552,note_off,,,,,2560,0,2,,,63,0,1
216064,note_off,,,,,512,0,3,,,58,0,2
216064,note_off,,,,,512,0,2,,,62,0,1
216064,note_on,,,,,0,0,3,,,60,96,2
216064,note_on,,,,,0,0,2,,,63,96,1
216576,note_on,,,,,0,0,4,,,41,96,3
216576,note_off,,,,,1536,0,4,,,45,0,3
216576,note_off,,,,,1536,0,5,,,33,0,4
216576,note_on,,,,,0,0,5,,,29,96,4
216576,note_on,,,,,0,0,2,,,67,96,1
216576,note_off,,,,,512,0,2,,,63,0,1
217088,note_off,,,,,512,0,4,,,41,0,3
217088,note_on,,,,,0,0,4,,,43,96,3
217088,note_off,,,,,512,0,5,,,29,0,4
217088,note_on,,,,,0,0,5,,,31,96,4
217088,note_on,,,,,0,0,2,,,65,96,1
217088,note_off,,,,,512,0,2,,,67,0,1
217600,note_off,,,,,512,0,2,,,65,0,1
217600,note_on,,,,,0,0,2,,,63,96,1
217600,note_off,,,,,512,0,4,,,43,0,3
217600,note_on,,,,,0,0,4,,,45,96,3
217600,note_on,,,,,0,0,5,,,33,96,4
217600,note_off,,,,,512,0,5,,,31,0,4
218112,note_off,,,,,512,0,4,,,45,0,3
218112,note_on,,,,,0,0,5,,,34,96,4
218112,note_off,,,,,512,0,5,,,33,0,4
218112,note_on,,,,,0,0,4,,,46,96,3
218112,note_off,,,,,512,0,2,,,63,0,1
218112,note_on,,,,,0,0,2,,,62,96,1
218624,note_off,,,,,512,0,5,,,34,0,4
218624,note_on,,,,,0,0,4,,,45,96,3
218624,note_on,,,,,0,0,5,,,33,96,4
218624,note_off,,,,,512,0,2,,,62,0,1
218624,note_on,,,,,0,0,2,,,63,96,1
218624,note_off,,,,,512,0,4,,,46,0,3
219136,note_on,,,,,0,0,2,,,62,96,1
219136,note_off,,,,,512,0,4,,,45,0,3
219136,note_on,,,,,0,0,4,,,46,96,3
219136,note_on,,,,,0,0,3,,,58,96,2
219136,note_off,,,,,512,0,2,,,63,0,1
219136,note_off,,,,,3072,0,3,,,60,0,2
219136,note_on,,,,,0,0,5,,,34,96,4
219136,note_off,,,,,512,0,5,,,33,0,4
219648,note_on,,,,,0,0,2,,,63,96,1
219648,note_on,,,,,0,0,3,,,60,96,2
219648,note_off,,,,,512,0,3,,,58,0,2
219648,note_off,,,,,512,0,2,,,62,0,1
220160,note_on,,,,,0,0,4,,,38,96,3
220160,note_on,,,,,0,0,5,,,26,96,4
220160,note_off,,,,,1024,0,5,,,34,0,4
220160,note_off,,,,,1024,0,4,,,46,0,3
220160,note_on,,,,,0,0,3,,,58,96,2
220160,note_on,,,,,0,0,2,,,65,96,1
220160,note_off,,,,,512,0,3,,,60,0,2
220160,note_off,,,,,512,0,2,,,63,0,1
220672,note_on,,,,,0,0,3,,,56,96,2
220672,note_off,,,,,512,0,3,,,58,0,2
221184,note_on,,,,,0,0,4,,,39,96,3
221184,note_off,,,,,1024,0,5,,,26,0,4
221184,note_on,,,,,0,0,5,,,27,96,4
221184,note_on,,,,,0,0,3,,,58,96,2
221184,note_off,,,,,512,0,3,,,56,0,2
221184,note_off,,,,,1024,0,4,,,38,0,3
221696,note_off,,,,,512,0,3,,,58,0,2
221696,note_on,,,,,0,0,3,,,61,96,2
222208,note_on,,,,,0,0,4,,,36,96,3
222208,note_off,,,,,512,0,3,,,61,0,2
222208,note_on,,,,,0,0,3,,,58,96,2
222208,note_on,,,,,0,0,2,,,63,96,1
222208,note_off,,,,,1024,0,4,,,39,0,3
222208,note_off,,,,,2048,0,2,,,65,0,1
222208,note_off,,,,,1024,0,5,,,27,0,4
222208,note_on,,,,,0,0,5,,,24,96,4
222720,note_on,,,,,0,0,2,,,65,96,1
222720,note_off,,,,,512,0,2,,,63,0,1
222720,note_off,,,,,512,0,3,,,58,0,2
222720,note_on,,,,,0,0,3,,,61,96,2
223232,note_off,,,,,1024,0,5,,,24,0,4
223232,note_on,,,,,0,0,5,,,43,96,4
223232,note_off,,,,,1024,0,4,,,36,0,3
223232,note_on,,,,,0,0,4,,,55,96,3
223232,note_on,,,,,0,0,2,,,63,96,1
223232,note_on,,,,,0,0,3,,,62,96,2
223232,note_off,,,,,512,0,2,,,65,0,1
223232,note_off,,,,,512,0,3,,,61,0,2
223744,note_on,,,,,0,0,2,,,62,96,1
223744,note_off,,,,,512,0,2,,,63,0,1
224256,note_off,,,,,512,0,2,,,62,0,1
224256,note_on,,,,,0,0,2,,,60,96,1
224256,note_on,,,,,0,0,4,,,51,96,3
224256,note_off,,,,,1024,0,5,,,43,0,4
224256,note_on,,,,,0,0,5,,,39,96,4
224256,note_off,,,,,1024,0,4,,,55,0,3
224768,note_off,,,,,512,0,2,,,60,0,1
224768,note_on,,,,,0,0,2,,,62,96,1
225280,note_off,,,,,1024,0,5,,,39,0,4
225280,note_on,,,,,0,0,5,,,36,96,4
225280,note_off,,,,,1024,0,4,,,51,0,3
225280,note_off,,,,,512,0,2,,,62,0,1
225280,note_on,,,,,0,0,2,,,60,96,1
225280,note_on,,,,,0,0,4,,,48,96,3
225792,note_on,,,,,0,0,2,,,62,96,1
225792,note_off,,,,,512,0,2,,,60,0,1
226304,note_on,,,,,0,0,2,,,63,96,1
226304,note_off,,,,,512,0,2,,,62,0,1
226304,note_off,,,,,1024,0,4,,,48,0,3
226304,note_on,,,,,0,0,4,,,53,96,3
226304,note_off,,,,,1024,0,5,,,36,0,4
226304,note_on,,,,,0,0,5,,,41,96,4
226304,note_on,,,,,0,0,3,,,57,96,2
226304,note_off,,,,,3072,0,3,,,62,0,2
226816,note_on,,,,,0,0,2,,,65,96,1
226816,note_off,,,,,512,0,2,,,63,0,1
227328,note_off,,,,,1024,0,3,,,57,0,2
227328,note_off,,,,,512,0,2,,,65,0,1
227328,note_on,,,,,0,0,2,,,62,96,1
227328,note_off,,,,,1024,0,4,,,53,0,3
227328,note_on,,,,,0,0,4,,,46,96,3
227328,note_off,,,,,1024,0,5,,,41,0,4
227328,note_on,,,,,0,0,5,,,34,96,4
227840,note_on,,,,,512,0,3,,,58,96,2
228352,note_off,,,,,1024,0,2,,,62,0,1
228352,note_on,,,,,0,0,2,,,63,96,1
228352,note_off,,,,,1024,0,5,,,34,0,4
228352,note_on,,,,,0,0,5,,,36,96,4
228352,note_off,,,,,1024,0,4,,,46,0,3
228352,note_on,,,,,0,0,3,,,56,96,2
228352,note_off,,,,,512,0,3,,,58,0,2
228352,note_on,,,,,0,0,4,,,48,96,3
228864,note_on,,,,,0,0,3,,,55,96,2
228864,note_off,,,,,512,0,3,,,56,0,2
229376,note_off,,,,,1024,0,5,,,36,0,4
229376,note_on,,,,,0,0,5,,,38,96,4
229376,note_on,,,,,0,0,3,,,53,96,2
229376,note_off,,,,,1024,0,2,,,63,0,1
229376,note_on,,,,,0,0,2,,,65,96,1
229376,note_on,,,,,0,0,4,,,50,96,3
229376,note_off,,,,,1024,0,4,,,48,0,3
229376,note_off,,,,,512,0,3,,,55,0,2
229888,note_off,,,,,512,0,3,,,53,0,2
229888,note_on,,,,,0,0,3,,,56,96,2
230400,note_off,,,,,1024,0,4,,,50,0,3
230400,note_off,,,,,1024,0,5,,,38,0,4
230400,note_on,,,,,0,0,5,,,39,96,4
230400,note_on,,,,,0,0,4,,,51,96,3
230400,note_off,,,,,512,0,3,,,56,0,2
230400,note_on,,,,,0,0,3,,,55,96,2
230400,note_on,,,,,21504,0,1,,,70,96,0
230912,note_on,,,,,0,0,2,,,63,96,1
230912,note_on,,,,,0,0,3,,,60,96,2
230912,note_off,,,,,512,0,3,,,55,0,2
230912,note_off,,,,,1536,0,2,,,65,0,1
231424,note_on,,,,,0,0,3,,,58,96,2
231424,note_off,,,,,512,0,3,,,60,0,2
231424,note_on,,,,,0,0,2,,,62,96,1
231424,note_off,,,,,512,0,2,,,63,0,1
231936,note_on,,,,,0,0,2,,,65,96,1
231936,note_off,,,,,512,0,2,,,62,0,1
231936,note_on,,,,,0,0,3,,,56,96,2
231936,note_off,,,,,512,0,3,,,58,0,2
232448,note_on,,,,,0,0,3,,,55,96,2
232448,note_off,,,,,512,0,2,,,65,0,1
232448,note_on,,,,,0,0,2,,,63,96,1
232448,note_off,,,,,512,0,3,,,56,0,2
232960,note_off,,,,,512,0,2,,,63,0,1
232960,note_on,,,,,0,0,2,,,67,96,1
232960,note_on,,,,,0,0,3,,,58,96,2
232960,note_off,,,,,512,0,3,,,55,0,2
233472,note_off,,,,,512,0,3,,,58,0,2
233472,note_on,,,,,0,0,3,,,57,96,2
233472,note_on,,,,,0,0,1,,,72,96,0
233472,note_on,,,,,0,0,2,,,65,96,1
233472,note_off,,,,,512,0,2,,,67,0,1
233472,note_off,,,,,3072,0,1,,,70,0,0
233984,note_on,,,,,0,0,3,,,59,96,2
233984,note_off,,,,,512,0,3,,,57,0,2
233984,note_off,,,,,512,0,1,,,72,0,0
233984,note_on,,,,,0,0,1,,,74,96,0
234496,note_on,,,,,0,0,5,,,38,96,4
234496,note_off,,,,,512,0,1,,,74,0,0
234496,note_on,,,,,0,0,1,,,74,96,0
234496,note_off,,,,,512,0,3,,,59,0,2
234496,note_off,,,,,4096,0,4,,,51,0,3
234496,note_on,,,,,0,0,4,,,50,96,3
234496,note_on,,,,,0,0,3,,,59,96,2
234496,note_off,,,,,4096,0,5,,,39,0,4
235008,note_off,,,,,512,0,5,,,38,0,4
235008,note_on,,,,,0,0,4,,,55,96,3
235008,note_off,,,,,512,0,4,,,50,0,3
235008,note_on,,,,,0,0,5,,,43,96,4
235520,note_on,,,,,0,0,5,,,41,96,4
235520,note_on,,,,,0,0,4,,,53,96,3
235520,note_off,,,,,2048,0,2,,,65,0,1
235520,note_off,,,,,512,0,5,,,43,0,4
235520,note_off,,,,,512,0,4,,,55,0,3
236032,note_on,,,,,0,0,5,,,43,96,4
236032,note_off,,,,,512,0,4,,,53,0,3
236032,note_on,,,,,0,0,4,,,55,96,3
236032,note_on,,,,,0,0,1,,,72,96,0
236032,note_off,,,,,512,0,5,,,41,0,4
236032,note_off,,,,,1536,0,1,,,74,0,0
236032,note_off,,,,,1536,0,3,,,59,0,2
236032,note_on,,,,,0,0,3,,,57,96,2
236288,note_on,,,,,0,0,1,,,74,96,0
236288,note_off,,,,,256,0,1,,,72,0,0
236288,note_off,,,,,256,0,3,,,57,0,2
236288,note_on,,,,,0,0,3,,,59,96,2
236544,note_off,,,,,256,0,1,,,74,0,0
236544,note_off,,,,,256,0,3,,,59,0,2
236544,note_on,,,,,0,0,5,,,36,96,4
236544,note_on,,,,,0,0,1,,,75,96,0
236544,note_off,,,,,512,0,5,,,43,0,4
236544,note_on,,,,,0,0,4,,,48,96,3
236544,note_off,,,,,512,0,4,,,55,0,3
236544,note_on,,,,,0,0,3,,,60,96,2
237056,note_on,,,,,1536,0,2,,,62,96,1
237568,note_on,,,,,0,0,2,,,63,96,1
237568,note_off,,,,,512,0,2,,,62,0,1
237568,note_on,,,,,0,0,4,,,50,96,3
237568,note_off,,,,,1024,0,4,,,48,0,3
237568,note_on,,,,,0,0,5,,,38,96,4
237568,note_off,,,,,1024,0,5,,,36,0,4
238080,note_on,,,,,0,0,2,,,65,96,1
238080,note_off,,,,,512,0,2,,,63,0,1
238592,note_off,,,,,1024,0,5,,,38,0,4
238592,note_on,,,,,0,0,2,,,67,96,1
238592,note_on,,,,,0,0,5,,,39,96,4
238592,note_on,,,,,0,0,1,,,75,96,0
238592,note_off,,,,,512,0,2,,,65,0,1
238592,note_off,,,,,2048,0,1,,,75,0,0
238592,note_on,,,,,0,0,4,,,51,96,3
238592,note_off,,,,,1024,0,4,,,50,0,3
239104,note_off,,,,,2560,0,3,,,60,0,2
239104,note_on,,,,,0,0,3,,,58,96,2
239616,note_on,,,,,0,0,3,,,57,96,2
239616,note_on,,,,,0,0,4,,,53,96,3
239616,note_off,,,,,1024,0,4,,,51,0,3
239616,note_off,,,,,1024,0,5,,,39,0,4
239616,note_on,,,,,0,0,5,,,41,96,4
239616,note_off,,,,,512,0,3,,,58,0,2
240128,note_off,,,,,1536,0,2,,,67,0,1
240128,note_on,,,,,0,0,2,,,67,96,1
240640,note_on,,,,,0,0,2,,,65,96,1
240640,note_off,,,,,2048,0,1,,,75,0,0
240640,note_off,,,,,512,0,2,,,67,0,1
240640,note_on,,,,,0,0,1,,,74,96,0
241152,note_on,,,,,0,0,2,,,63,96,1
241152,note_off,,,,,512,0,2,,,65,0,1
241664,note_off,,,,,1024,0,1,,,74,0,0
241664,note_on,,,,,0,0,1,,,72,96,0
241664,note_off,,,,,2048,0,4,,,53,0,3
241664,note_on,,,,,0,0,4,,,54,96,3
241664,note_on,,,,,0,0,2,,,62,96,1
241664,note_off,,,,,512,0,2,,,63,0,1
241664,note_off,,,,,2048,0,5,,,41,0,4
241664,note_on,,,,,0,0,5,,,42,96,4
242176,note_off,,,,,2560,0,3,,,57,0,2
242176,note_on,,,,,0,0,3,,,57,96,2
242688,note_off,,,,,1024,0,5,,,42,0,4
242688,note_on,,,,,0,0,3,,,55,96,2
242688,note_off,,,,,512,0,3,,,57,0,2
242688,note_on,,,,,0,0,5,,,43,96,4
242688,note_off,,,,,1024,0,1,,,72,0,0
242688,note_on,,,,,0,0,4,,,55,96,3
242688,note_on,,,,,0,0,1,,,70,96,0
242688,note_off,,,,,1024,0,4,,,54,0,3
243200,note_off,,,,,512,0,1,,,70,0,0
243200,note_off,,,,,512,0,3,,,55,0,2
243200,note_on,,,,,0,0,3,,,57,96,2
243200,note_on,,,,,0,0,1,,,72,96,0
243712,note_off,,,,,512,0,1,,,72,0,0
243712,note_on,,,,,0,0,1,,,70,96,0
243712,note_off,,,,,1024,0,5,,,43,0,4
243712,note_off,,,,,512,0,3,,,57,0,2
243712,note_on,,,,,0,0,3,,,55,96,2
243712,note_on,,,,,0,0,5,,,41,96,4
243712,note_on,,,,,0,0,4,,,53,96,3
243712,note_off,,,,,1024,0,4,,,55,0,3
244224,note_off,,,,,512,0,4,,,53,0,3
244224,note_on,,,,,0,0,4,,,51,96,3
244224,note_on,,,,,0,0,3,,,57,96,2
244224,note_off,,,,,512,0,3,,,55,0,2
244224,note_off,,,,,512,0,5,,,41,0,4
244224,note_on,,,,,0,0,5,,,39,96,4
244224,note_off,,,,,512,0,1,,,70,0,0
244224,note_on,,,,,0,0,1,,,72,96,0
244736,note_off,,,,,512,0,1,,,72,0,0
244736,note_off,,,,,3072,0,2,,,62,0,1
244736,note_on,,,,,0,0,3,,,58,96,2
244736,note_off,,,,,512,0,3,,,57,0,2
244736,note_on,,,,,0,0,5,,,38,96,4
244736,note_off,,,,,512,0,5,,,39,0,4
244736,note_on,,,,,0,0,4,,,50,96,3
244736,note_off,,,,,512,0,4,,,51,0,3
244736,note_on,,,,,0,0,1,,,74,96,0
245248,note_on,,,,,512,0,2,,,65,96,1
245504,note_on,,,,,0,0,1,,,75,96,0
245504,note_off,,,,,768,0,1,,,74,0,0
245760,note_off,,,,,256,0,1,,,75,0,0
245760,note_on,,,,,0,0,1,,,74,96,0
245760,note_on,,,,,0,0,2,,,67,96,1
245760,note_off,,,,,512,0,2,,,65,0,1
245760,note_on,,,,,0,0,5,,,39,96,4
245760,note_off,,,,,1024,0,5,,,38,0,4
245760,note_on,,,,,0,0,4,,,51,96,3
245760,note_off,,,,,1024,0,4,,,50,0,3
246272,note_on,,,,,0,0,2,,,65,96,1
246272,note_off,,,,,512,0,2,,,67,0,1
246528,note_on,,,,,0,0,1,,,75,96,0
246528,note_off,,,,,768,0,1,,,74,0,0
246656,note_on,,,,,0,0,1,,,72,96,0
246656,note_off,,,,,128,0,1,,,75,0,0
246784,note_off,,,,,128,0,1,,,72,0,0
246784,note_on,,,,,0,0,1,,,72,96,0
246784,note_off,,,,,1024,0,4,,,51,0,3
246784,note_on,,,,,0,0,4,,,53,96,3
246784,note_on,,,,,0,0,2,,,63,96,1
246784,note_off,,,,,1024,0,5,,,39,0,4
246784,note_on,,,,,0,0,5,,,41,96,4
246784,note_off,,,,,512,0,2,,,65,0,1
247296,note_off,,,,,512,0,2,,,63,0,1
247296,note_on,,,,,0,0,2,,,62,96,1
247808,note_on,,,,,0,0,2,,,60,96,1
247808,note_on,,,,,0,0,3,,,57,96,2
247808,note_off,,,,,3072,0,3,,,58,0,2
247808,note_off,,,,,1024,0,4,,,53,0,3
247808,note_on,,,,,0,0,5,,,29,96,4
247808,note_off,,,,,1024,0,5,,,41,0,4
247808,note_off,,,,,512,0,2,,,62,0,1
247808,note_on,,,,,0,0,4,,,41,96,3
248320,note_off,,,,,1536,0,1,,,72,0,0
248320,note_on,,,,,0,0,2,,,63,96,1
248320,note_off,,,,,512,0,2,,,60,0,1
248320,note_on,,,,,0,0,1,,,70,96,0
248576,note_on,,,,,0,0,1,,,72,96,0
248576,note_off,,,,,256,0,1,,,70,0,0
248832,note_off,,,,,512,0,2,,,63,0,1
248832,note_on,,,,,0,0,1,,,70,96,0
248832,note_off,,,,,256,0,1,,,72,0,0
248832,note_off,,,,,1024,0,3,,,57,0,2
248832,note_on,,,,,0,0,3,,,58,96,2
248832,note_off,,,,,1024,0,4,,,41,0,3
248832,note_off,,,,,1024,0,5,,,29,0,4
248832,note_on,,,,,0,0,2,,,62,96,1
248832,note_on,,,,,0,0,4,,,46,96,3
248832,note_on,,,,,0,0,5,,,34,96,4
249344,note_off,,,,,512,0,2,,,62,0,1
249344,note_on,,,,,0,0,2,,,70,96,1
249856,note_on,,,,,0,0,4,,,48,96,3
249856,note_off,,,,,1024,0,4,,,46,0,3
249856,note_off,,,,,1024,0,3,,,58,0,2
249856,note_off,,,,,1024,0,5,,,34,0,4
249856,note_on,,,,,0,0,5,,,36,96,4
249856,note_on,,,,,0,0,2,,,68,96,1
249856,note_off,,,,,512,0,2,,,70,0,1
250368,note_on,,,,,0,0,2,,,67,96,1
250368,note_off,,,,,512,0,2,,,68,0,1
250880,note_on,,,,,0,0,4,,,50,96,3
250880,note_off,,,,,512,0,2,,,67,0,1
250880,note_on,,,,,0,0,5,,,38,96,4
250880,note_on,,,,,0,0,2,,,65,96,1
250880,note_off,,,,,1024,0,5,,,36,0,4
250880,note_off,,,,,1024,0,4,,,48,0,3
251392,note_on,,,,,0,0,2,,,68,96,1
251392,note_off,,,,,512,0,2,,,65,0,1
251904,note_on,,,,,0,0,4,,,51,96,3
251904,note_on,,,,,0,0,2,,,67,96,1
251904,note_off,,,,,512,0,2,,,68,0,1
251904,note_off,,,,,1024,0,5,,,38,0,4
251904,note_on,,,,,0,0,5,,,39,96,4
251904,note_off,,,,,1024,0,4,,,50,0,3
252416,note_on,,,,,2560,0,3,,,63,96,2
252928,note_off,,,,,1024,0,2,,,67,0,1
252928,note_on,,,,,0,0,2,,,68,96,1
252928,note_off,,,,,1024,0,4,,,51,0,3
252928,note_on,,,,,0,0,4,,,53,96,3
252928,note_off,,,,,1024,0,5,,,39,0,4
252928,note_on,,,,,0,0,5,,,41,96,4
252928,note_on,,,,,0,0,3,,,61,96,2
252928,note_off,,,,,512,0,3,,,63,0,2
253440,note_on,,,,,0,0,3,,,60,96,2
253440,note_off,,,,,512,0,3,,,61,0,2
253952,note_off,,,,,512,0,3,,,60,0,2
253952,note_off,,,,,1024,0,5,,,41,0,4
253952,note_on,,,,,0,0,5,,,43,96,4
253952,note_on,,,,,0,0,2,,,70,96,1
253952,note_off,,,,,1024,0,2,,,68,0,1
253952,note_on,,,,,0,0,3,,,58,96,2
253952,note_on,,,,,0,0,4,,,55,96,3
253952,note_off,,,,,1024,0,4,,,53,0,3
253952,note_off,,,,,5120,0,1,,,70,0,0
254464,note_off,,,,,512,0,3,,,58,0,2
254464,note_on,,,,,0,0,3,,,61,96,2
254976,note_on,,,,,0,0,4,,,56,96,3
254976,note_off,,,,,1024,0,4,,,55,0,3
254976,note_off,,,,,1024,0,5,,,43,0,4
254976,note_on,,,,,0,0,5,,,44,96,4
254976,note_off,,,,,512,0,3,,,61,0,2
254976,note_on,,,,,0,0,3,,,60,96,2
255488,note_off,,,,,512,0,3,,,60,0,2
255488,note_off,,,,,1536,0,2,,,70,0,1
255488,note_on,,,,,0,0,2,,,70,96,1
255488,note_on,,,,,0,0,3,,,61,96,2
256000,note_off,,,,,512,0,2,,,70,0,1
256000,note_off,,,,,512,0,3,,,61,0,2
256000,note_on,,,,,0,0,3,,,60,96,2
256000,note_on,,,,,0,0,2,,,68,96,1
256512,note_off,,,,,512,0,2,,,68,0,1
256512,note_on,,,,,0,0,3,,,58,96,2
256512,note_off,,,,,512,0,3,,,60,0,2
256512,note_on,,,,,0,0,2,,,67,96,1
257024,note_off,,,,,512,0,2,,,67,0,1
257024,note_on,,,,,0,0,3,,,56,96,2
257024,note_off,,,,,512,0,3,,,58,0,2
257024,note_on,,,,,0,0,2,,,65,96,1
257536,note_off,,,,,512,0,2,,,65,0,1
257536,note_on,,,,,0,0,2,,,68,96,1
257536,note_on,,,,,0,0,3,,,60,96,2
257536,note_off,,,,,512,0,3,,,56,0,2
258048,note_on,,,,,0,0,2,,,62,96,1
258048,note_off,,,,,512,0,2,,,68,0,1
258048,note_off,,,,,512,0,3,,,60,0,2
258048,note_on,,,,,4096,0,1,,,70,96,0
258048,note_on,,,,,0,0,3,,,53,96,2
258560,note_off,,,,,3584,0,4,,,56,0,3
258560,note_on,,,,,0,0,4,,,56,96,3
258560,note_on,,,,,0,0,5,,,44,96,4
258560,note_off,,,,,3584,0,5,,,44,0,4
259072,note_off,,,,,512,0,5,,,44,0,4
259072,note_on,,,,,0,0,5,,,43,96,4
259072,note_on,,,,,0,0,4,,,55,96,3
259072,note_on,,,,,0,0,2,,,63,96,1
259072,note_off,,,,,512,0,4,,,56,0,3
259072,note_on,,,,,0,0,3,,,55,96,2
259072,note_off,,,,,1024,0,3,,,53,0,2
259072,note_off,,,,,1024,0,2,,,62,0,1
259584,note_on,,,,,0,0,4,,,53,96,3
259584,note_off,,,,,512,0,4,,,55,0,3
259584,note_on,,,,,0,0,5,,,41,96,4
259584,note_off,,,,,512,0,2,,,63,0,1
259584,note_on,,,,,0,0,2,,,65,96,1
259584,note_on,,,,,0,0,3,,,56,96,2
259584,note_off,,,,,512,0,3,,,55,0,2
259584,note_off,,,,,512,0,5,,,43,0,4
260096,note_on,,,,,0,0,5,,,39,96,4
260096,note_on,,,,,0,0,4,,,51,96,3
260096,note_off,,,,,512,0,2,,,65,0,1
260096,note_off,,,,,512,0,4,,,53,0,3
260096,note_on,,,,,0,0,3,,,58,96,2
260096,note_off,,,,,512,0,3,,,56,0,2
260096,note_off,,,,,512,0,5,,,41,0,4
260096,note_on,,,,,0,0,2,,,67,96,1
260608,note_on,,,,,0,0,5,,,43,96,4
260608,note_off,,,,,512,0,4,,,51,0,3
260608,note_on,,,,,0,0,4,,,55,96,3
260608,note_off,,,,,512,0,5,,,39,0,4
261120,note_off,,,,,512,0,4,,,55,0,3
261120,note_off,,,,,3072,0,1,,,70,0,0
261120,note_on,,,,,0,0,5,,,33,96,4
261120,note_off,,,,,512,0,5,,,43,0,4
261120,note_on,,,,,0,0,4,,,45,96,3
261120,note_on,,,,,0,0,1,,,72,96,0
261632,note_on,,,,,0,0,3,,,58,96,2
261632,note_off,,,,,1536,0,3,,,58,0,2
261632,note_on,,,,,0,0,2,,,67,96,1
261632,note_off,,,,,1536,0,2,,,67,0,1
261888,note_off,,,,,768,0,1,,,72,0,0
261888,note_on,,,,,0,0,1,,,74,96,0
262144,note_on,,,,,0,0,4,,,47,96,3
262144,note_off,,,,,1024,0,4,,,45,0,3
262144,note_off,,,,,1024,0,5,,,33,0,4
262144,note_off,,,,,256,0,1,,,74,0,0
262144,note_off,,,,,512,0,2,,,67,0,1
262144,note_on,,,,,0,0,5,,,35,96,4
262144,note_on,,,,,0,0,2,,,65,96,1
262144,note_on,,,,,0,0,1,,,74,96,0
262144,note_off,,,,,512,0,3,,,58,0,2
262144,note_on,,,,,0,0,3,,,56,96,2
262656,note_on,,,,,0,0,2,,,63,96,1
262656,note_on,,,,,0,0,3,,,55,96,2
262656,note_off,,,,,512,0,3,,,56,0,2
262656,note_off,,,,,512,0,2,,,65,0,1
263168,note_off,,,,,512,0,2,,,63,0,1
263168,note_on,,,,,0,0,3,,,53,96,2
263168,note_on,,,,,0,0,2,,,62,96,1
263168,note_off,,,,,512,0,3,,,55,0,2
263680,note_off,,,,,1536,0,1,,,74,0,0
263680,note_on,,,,,0,0,1,,,72,96,0
263680,note_off,,,,,512,0,3,,,53,0,2
263680,note_on,,,,,0,0,2,,,65,96,1
263680,note_off,,,,,512,0,2,,,62,0,1
263680,note_on,,,,,0,0,3,,,56,96,2
263936,note_on,,,,,0,0,1,,,74,96,0
263936,note_off,,,,,256,0,1,,,72,0,0
264192,note_on,,,,,0,0,1,,,75,96,0
264192,note_off,,,,,512,0,3,,,56,0,2
264192,note_on,,,,,0,0,3,,,55,96,2
264192,note_off,,,,,2048,0,4,,,47,0,3
264192,note_on,,,,,0,0,4,,,48,96,3
264192,note_off,,,,,512,0,2,,,65,0,1
264192,note_off,,,,,2048,0,5,,,35,0,4
264192,note_on,,,,,0,0,5,,,36,96,4
264192,note_on,,,,,0,0,2,,,63,96,1
264192,note_off,,,,,256,0,1,,,74,0,0
264704,note_off,,,,,512,0,3,,,55,0,2
264704,note_on,,,,,0,0,3,,,60,96,2
265216,note_off,,,,,1024,0,2,,,63,0,1
265216,note_on,,,,,0,0,2,,,65,96,1
265216,note_on,,,,,0,0,3,,,58,96,2
265216,note_off,,,,,512,0,3,,,60,0,2
265216,note_off,,,,,1024,0,5,,,36,0,4
265216,note_on,,,,,0,0,5,,,38,96,4
265216,note_on,,,,,0,0,4,,,50,96,3
265216,note_off,,,,,1024,0,4,,,48,0,3
265728,note_off,,,,,512,0,3,,,58,0,2
265728,note_on,,,,,0,0,3,,,56,96,2
266240,note_on,,,,,0,0,5,,,39,96,4
266240,note_off,,,,,1024,0,5,,,38,0,4
266240,note_off,,,,,1024,0,2,,,65,0,1
266240,note_off,,,,,1024,0,4,,,50,0,3
266240,note_on,,,,,0,0,4,,,51,96,3
266240,note_on,,,,,0,0,3,,,55,96,2
266240,note_off,,,,,512,0,3,,,56,0,2
266240,note_off,,,,,2048,0,1,,,75,0,0
266240,note_on,,,,,0,0,1,,,75,96,0
266240,note_on,,,,,0,0,2,,,67,96,1
266752,note_off,,,,,512,0,3,,,55,0,2
266752,note_on,,,,,0,0,3,,,58,96,2
267264,note_on,,,,,0,0,2,,,60,96,1
267264,note_off,,,,,512,0,3,,,58,0,2
267264,note_off,,,,,1024,0,5,,,39,0,4
267264,note_on,,,,,0,0,5,,,41,96,4
267264,note_off,,,,,1024,0,4,,,51,0,3
267264,note_on,,,,,0,0,4,,,53,96,3
267264,note_on,,,,,0,0,3,,,57,96,2
267264,note_off,,,,,1024,0,2,,,67,0,1
267776,note_on,,,,,0,0,1,,,79,96,0
267776,note_off,,,,,1536,0,1,,,75,0,0
268288,note_on,,,,,0,0,2,,,62,96,1
268288,note_off,,,,,512,0,1,,,79,0,0
268288,note_on,,,,,0,0,1,,,77,96,0
268288,note_on,,,,,0,0,3,,,58,96,2
268288,note_off,,,,,1024,0,3,,,57,0,2
268288,note_off,,,,,1024,0,2,,,60,0,1
268800,note_on,,,,,0,0,1,,,75,96,0
268800,note_off,,,,,512,0,1,,,77,0,0
269312,note_on,,,,,0,0,2,,,63,96,1
269312,note_off,,,,,1024,0,2,,,62,0,1
269312,note_on,,,,,0,0,3,,,60,96,2
269312,note_off,,,,,512,0,1,,,75,0,0
269312,note_on,,,,,0,0,1,,,74,96,0
269312,note_off,,,,,1024,0,3,,,58,0,2
269824,note_off,,,,,512,0,1,,,74,0,0
269824,note_on,,,,,0,0,1,,,72,96,0
270336,note_off,,,,,3072,0,4,,,53,0,3
270336,note_on,,,,,0,0,4,,,54,96,3
270336,note_on,,,,,0,0,1,,,70,96,0
270336,note_off,,,,,512,0,1,,,72,0,0
270336,note_on,,,,,0,0,5,,,42,96,4
270336,note_off,,,,,3072,0,5,,,41,0,4
270848,note_off,,,,,512,0,1,,,70,0,0
270848,note_on,,,,,0,0,1,,,69,96,0
271360,note_on,,,,,0,0,5,,,43,96,4
271360,note_off,,,,,2048,0,2,,,63,0,1
271360,note_on,,,,,0,0,2,,,64,96,1
271360,note_on,,,,,0,0,4,,,55,96,3
271360,note_on,,,,,0,0,1,,,70,96,0
271360,note_off,,,,,2048,0,3,,,60,0,2
271360,note_on,,,,,0,0,3,,,58,96,2
271360,note_off,,,,,512,0,1,,,69,0,0
271360,note_off,,,,,1024,0,4,,,54,0,3
271360,note_off,,,,,1024,0,5,,,42,0,4
271872,note_on,,,,,0,0,1,,,69,96,0
271872,note_off,,,,,512,0,1,,,70,0,0
271872,note_on,,,,,0,0,3,,,60,96,2
271872,note_off,,,,,512,0,3,,,58,0,2
272384,note_off,,,,,512,0,1,,,69,0,0
272384,note_on,,,,,0,0,1,,,70,96,0
272384,note_on,,,,,0,0,3,,,61,96,2
272384,note_off,,,,,512,0,3,,,60,0,2
272896,note_on,,,,,0,0,2,,,64,96,1
272896,note_off,,,,,1536,0,2,,,64,0,1
273408,note_on,,,,,0,0,2,,,65,96,1
273408,note_off,,,,,512,0,2,,,64,0,1
273408,note_on,,,,,0,0,4,,,53,96,3
273408,note_off,,,,,2048,0,4,,,55,0,3
273408,note_on,,,,,0,0,5,,,41,96,4
273408,note_off,,,,,2048,0,5,,,43,0,4
273664,note_off,,,,,1280,0,1,,,70,0,0
273664,note_on,,,,,0,0,1,,,69,96,0
273920,note_off,,,,,1536,0,3,,,61,0,2
273920,note_on,,,,,0,0,3,,,58,96,2
273920,note_on,,,,,0,0,1,,,70,96,0
273920,note_off,,,,,256,0,1,,,69,0,0
274176,note_on,,,,,0,0,1,,,75,96,0
274176,note_off,,,,,256,0,1,,,70,0,0
274432,note_off,,,,,256,0,1,,,75,0,0
274432,note_on,,,,,0,0,1,,,74,96,0
274944,note_off,,,,,1024,0,3,,,58,0,2
274944,note_on,,,,,0,0,3,,,57,96,2
275456,note_on,,,,,0,0,1,,,72,96,0
275456,note_off,,,,,1024,0,1,,,74,0,0
275456,note_on,,,,,0,0,3,,,55,96,2
275456,note_off,,,,,2048,0,4,,,53,0,3
275456,note_on,,,,,0,0,4,,,51,96,3
275456,note_off,,,,,512,0,3,,,57,0,2
275456,note_off,,,,,2048,0,5,,,41,0,4
275456,note_on,,,,,0,0,5,,,39,96,4
275968,note_off,,,,,512,0,1,,,72,0,0
275968,note_on,,,,,0,0,1,,,70,96,0
275968,note_off,,,,,512,0,3,,,55,0,2
275968,note_on,,,,,0,0,3,,,57,96,2
276224,note_off,,,,,256,0,1,,,70,0,0
276224,note_on,,,,,0,0,1,,,72,96,0
276480,note_on,,,,,0,0,5,,,38,96,4
276480,note_on,,,,,0,0,4,,,50,96,3
276480,note_off,,,,,1024,0,4,,,51,0,3
276480,note_off,,,,,512,0,3,,,57,0,2
276480,note_on,,,,,0,0,3,,,58,96,2
276480,note_off,,,,,1024,0,5,,,39,0,4
276480,note_on,,,,,0,0,1,,,70,96,0
276480,note_off,,,,,256,0,1,,,72,0,0
276992,note_on,,,,,0,0,2,,,62,96,1
276992,note_off,,,,,3584,0,2,,,65,0,1
277504,note_off,,,,,512,0,2,,,62,0,1
277504,note_on,,,,,0,0,5,,,36,96,4
277504,note_on,,,,,0,0,2,,,63,96,1
277504,note_off,,,,,1024,0,5,,,38,0,4
277504,note_off,,,,,1024,0,4,,,50,0,3
277504,note_on,,,,,0,0,4,,,48,96,3
278016,note_off,,,,,512,0,2,,,63,0,1
278016,note_on,,,,,0,0,2,,,65,96,1
278528,note_on,,,,,0,0,5,,,34,96,4
278528,note_on,,,,,0,0,2,,,67,96,1
278528,note_off,,,,,512,0,2,,,65,0,1
278528,note_off,,,,,1024,0,4,,,48,0,3
278528,note_on,,,,,0,0,4,,,46,96,3
278528,note_off,,,,,1024,0,5,,,36,0,4
279040,note_off,,,,,512,0,2,,,67,0,1
279040,note_on,,,,,0,0,2,,,68,96,1
279552,note_off,,,,,512,0,2,,,68,0,1
279552,note_on,,,,,0,0,2,,,67,96,1
279552,note_on,,,,,0,0,4,,,51,96,3
279552,note_off,,,,,1024,0,4,,,46,0,3
279552,note_on,,,,,0,0,5,,,39,96,4
279552,note_off,,,,,1024,0,5,,,34,0,4
280064,note_on,,,,,0,0,3,,,55,96,2
280064,note_off,,,,,3584,0,3,,,58,0,2
280576,note_off,,,,,512,0,3,,,55,0,2
280576,note_on,,,,,0,0,3,,,56,96,2
281088,note_off,,,,,512,0,3,,,56,0,2
281088,note_on,,,,,0,0,3,,,58,96,2
281600,note_off,,,,,5120,0,1,,,70,0,0
281600,note_off,,,,,512,0,3,,,58,0,2
281600,note_on,,,,,0,0,3,,,60,96,2
282112,note_on,,,,,0,0,3,,,61,96,2
282112,note_off,,,,,512,0,3,,,60,0,2
282624,note_off,,,,,3072,0,5,,,39,0,4
282624,note_on,,,,,0,0,5,,,40,96,4
282624,note_on,,,,,0,0,3,,,60,96,2
282624,note_off,,,,,512,0,3,,,61,0,2
282624,note_on,,,,,0,0,4,,,52,96,3
282624,note_off,,,,,3072,0,4,,,51,0,3
283136,note_off,,,,,3584,0,2,,,67,0,1
283136,note_on,,,,,0,0,2,,,64,96,1
283648,note_on,,,,,0,0,4,,,50,96,3
283648,note_on,,,,,0,0,5,,,38,96,4
283648,note_off,,,,,1024,0,4,,,52,0,3
283648,note_on,,,,,0,0,2,,,65,96,1
283648,note_off,,,,,512,0,2,,,64,0,1
283648,note_off,,,,,1024,0,5,,,40,0,4
284160,note_off,,,,,512,0,2,,,65,0,1
284160,note_on,,,,,0,0,2,,,67,96,1
284672,note_on,,,,,0,0,4,,,48,96,3
284672,note_off,,,,,1024,0,4,,,50,0,3
284672,note_off,,,,,1024,0,5,,,38,0,4
284672,note_on,,,,,0,0,5,,,36,96,4
284672,note_off,,,,,512,0,2,,,67,0,1
284672,note_on,,,,,0,0,2,,,68,96,1
285184,note_off,,,,,512,0,2,,,68,0,1
285184,note_on,,,,,0,0,2,,,70,96,1
285696,note_on,,,,,0,0,4,,,53,96,3
285696,note_off,,,,,1024,0,4,,,48,0,3
285696,note_off,,,,,1024,0,5,,,36,0,4
285696,note_on,,,,,0,0,5,,,41,96,4
285696,note_on,,,,,0,0,2,,,68,96,1
285696,note_off,,,,,512,0,2,,,70,0,1
286208,note_off,,,,,3584,0,3,,,60,0,2
286208,note_on,,,,,0,0,3,,,56,96,2
286720,note_off,,,,,512,0,3,,,56,0,2
286720,note_on,,,,,0,0,3,,,58,96,2
287232,note_on,,,,,0,0,3,,,60,96,2
287232,note_off,,,,,512,0,3,,,58,0,2
287744,note_on,,,,,0,0,3,,,61,96,2
287744,note_off,,,,,512,0,3,,,60,0,2
288256,note_off,,,,,512,0,3,,,61,0,2
288256,note_on,,,,,0,0,3,,,63,96,2
288768,note_on,,,,,0,0,5,,,34,96,4
288768,note_off,,,,,3072,0,5,,,41,0,4
288768,note_on,,,,,0,0,3,,,61,96,2
288768,note_off,,,,,512,0,3,,,63,0,2
288768,note_on,,,,,0,0,4,,,46,96,3
288768,note_off,,,,,3072,0,4,,,53,0,3
289280,note_off,,,,,3584,0,2,,,68,0,1
289280,note_on,,,,,0,0,2,,,72,96,1
289792,note_on,,,,,0,0,4,,,48,96,3
289792,note_on,,,,,0,0,2,,,70,96,1
289792,note_off,,,,,1024,0,4,,,46,0,3
289792,note_off,,,,,512,0,2,,,72,0,1
289792,note_on,,,,,0,0,5,,,36,96,4
289792,note_off,,,,,1024,0,5,,,34,0,4
290304,note_off,,,,,512,0,2,,,70,0,1
290304,note_on,,,,,0,0,2,,,68,96,1
290816,note_off,,,,,1024,0,5,,,36,0,4
290816,note_on,,,,,0,0,5,,,37,96,4
290816,note_off,,,,,512,0,2,,,68,0,1
290816,note_on,,,,,0,0,2,,,67,96,1
290816,note_off,,,,,1024,0,4,,,48,0,3
290816,note_on,,,,,0,0,4,,,49,96,3
291328,note_on,,,,,0,0,2,,,65,96,1
291328,note_off,,,,,512,0,2,,,67,0,1
291840,note_on,,,,,0,0,4,,,48,96,3
291840,note_off,,,,,512,0,2,,,65,0,1
291840,note_off,,,,,1024,0,5,,,37,0,4
291840,note_on,,,,,0,0,5,,,36,96,4
291840,note_on,,,,,0,0,2,,,64,96,1
291840,note_off,,,,,1024,0,4,,,49,0,3
292352,note_off,,,,,3584,0,3,,,61,0,2
292352,note_on,,,,,0,0,3,,,61,96,2
292864,note_off,,,,,1024,0,4,,,48,0,3
292864,note_on,,,,,0,0,4,,,50,96,3
292864,note_on,,,,,0,0,2,,,65,96,1
292864,note_off,,,,,1024,0,2,,,64,0,1
292864,note_off,,,,,512,0,3,,,61,0,2
292864,note_on,,,,,0,0,3,,,60,96,2
292864,note_on,,,,,0,0,5,,,38,96,4
292864,note_off,,,,,1024,0,5,,,36,0,4
293376,note_off,,,,,512,0,3,,,60,0,2
293376,note_on,,,,,0,0,3,,,58,96,2
293888,note_on,,,,,0,0,5,,,40,96,4
293888,note_off,,,,,1024,0,5,,,38,0,4
293888,note_on,,,,,0,0,2,,,67,96,1
293888,note_on,,,,,0,0,3,,,56,96,2
293888,note_off,,,,,512,0,3,,,58,0,2
293888,note_off,,,,,1024,0,4,,,50,0,3
293888,note_on,,,,,0,0,4,,,52,96,3
293888,note_off,,,,,1024,0,2,,,65,0,1
294400,note_on,,,,,0,0,3,,,55,96,2
294400,note_off,,,,,512,0,3,,,56,0,2
294912,note_on,,,,,0,0,5,,,41,96,4
294912,note_off,,,,,1024,0,5,,,40,0,4
294912,note_off,,,,,512,0,3,,,55,0,2
294912,note_on,,,,,0,0,3,,,56,96,2
294912,note_off,,,,,1024,0,4,,,52,0,3
294912,note_on,,,,,0,0,4,,,53,96,3
295424,note_off,,,,,1536,0,2,,,67,0,1
295424,note_on,,,,,0,0,2,,,70,96,1
295936,note_on,,,,,0,0,5,,,43,96,4
295936,note_off,,,,,1024,0,4,,,53,0,3
295936,note_off,,,,,512,0,2,,,70,0,1
295936,note_on,,,,,0,0,2,,,68,96,1
295936,note_off,,,,,1024,0,5,,,41,0,4
295936,note_on,,,,,0,0,4,,,55,96,3
296448,note_on,,,,,0,0,2,,,67,96,1
296448,note_off,,,,,512,0,2,,,68,0,1
296960,note_on,,,,,0,0,4,,,56,96,3
296960,note_off,,,,,1024,0,4,,,55,0,3
296960,note_off,,,,,512,0,2,,,67,0,1
296960,note_on,,,,,0,0,2,,,65,96,1
296960,note_off,,,,,1024,0,5,,,43,0,4
296960,note_on,,,,,0,0,5,,,44,96,4
297472,note_off,,,,,512,0,2,,,65,0,1
297472,note_on,,,,,0,0,2,,,63,96,1
297984,note_off,,,,,1024,0,5,,,44,0,4
297984,note_off,,,,,1024,0,4,,,56,0,3
297984,note_on,,,,,0,0,2,,,61,96,1
297984,note_off,,,,,512,0,2,,,63,0,1
297984,note_on,,,,,0,0,4,,,46,96,3
297984,note_on,,,,,0,0,5,,,34,96,4
298496,note_on,,,,,0,0,2,,,65,96,1
298496,note_off,,,,,512,0,2,,,61,0,1
299008,note_on,,,,,0,0,2,,,63,96,1
299008,note_off,,,,,512,0,2,,,65,0,1
299008,note_off,,,,,4096,0,3,,,56,0,2
299008,note_off,,,,,1024,0,5,,,34,0,4
299008,note_off,,,,,1024,0,4,,,46,0,3
299008,note_on,,,,,0,0,4,,,51,96,3
299008,note_on,,,,,0,0,3,,,55,96,2
299008,note_on,,,,,0,0,5,,,39,96,4
299520,note_on,,,,,0,0,2,,,61,96,1
299520,note_off,,,,,512,0,2,,,63,0,1
300032,note_off,,,,,1024,0,4,,,51,0,3
300032,note_on,,,,,0,0,2,,,60,96,1
300032,note_off,,,,,512,0,2,,,61,0,1
300032,note_on,,,,,0,0,4,,,39,96,3
300032,note_on,,,,,0,0,5,,,27,96,4
300032,note_off,,,,,1024,0,5,,,39,0,4
300544,note_off,,,,,1536,0,3,,,55,0,2
300544,note_on,,,,,0,0,3,,,53,96,2
300544,note_off,,,,,512,0,2,,,60,0,1
300544,note_on,,,,,0,0,2,,,58,96,1
300800,note_off,,,,,256,0,3,,,53,0,2
300800,note_on,,,,,0,0,3,,,55,96,2
301056,note_on,,,,,0,0,4,,,44,96,3
301056,note_off,,,,,1024,0,4,,,39,0,3
301056,note_off,,,,,1024,0,5,,,27,0,4
301056,note_off,,,,,256,0,3,,,55,0,2
301056,note_on,,,,,0,0,3,,,56,96,2
301056,note_on,,,,,0,0,5,,,32,96,4
301056,note_off,,,,,512,0,2,,,58,0,1
301056,note_on,,,,,0,0,2,,,60,96,1
301568,note_on,,,,,0,0,3,,,58,96,2
301568,note_off,,,,,512,0,2,,,60,0,1
301568,note_on,,,,,0,0,2,,,61,96,1
301568,note_off,,,,,512,0,3,,,56,0,2
302080,note_on,,,,,0,0,2,,,63,96,1
302080,note_off,,,,,512,0,3,,,58,0,2
302080,note_on,,,,,0,0,3,,,60,96,2
302080,note_off,,,,,512,0,2,,,61,0,1
302592,note_off,,,,,512,0,3,,,60,0,2
302592,note_on,,,,,0,0,2,,,65,96,1
302592,note_off,,,,,512,0,2,,,63,0,1
302592,note_on,,,,,0,0,3,,,62,96,2
303104,note_on,,,,,0,0,3,,,63,96,2
303104,note_off,,,,,512,0,3,,,62,0,2
303104,note_on,,,,,0,0,2,,,67,96,1
303104,note_off,,,,,512,0,2,,,65,0,1
303616,note_on,,,,,0,0,3,,,65,96,2
303616,note_on,,,,,0,0,2,,,68,96,1
303616,note_off,,,,,512,0,2,,,67,0,1
303616,note_off,,,,,512,0,3,,,63,0,2
304128,note_off,,,,,512,0,2,,,68,0,1
304128,note_on,,,,,22528,0,1,,,65,96,0
304128,note_on,,,,,0,0,2,,,62,96,1
304128,note_off,,,,,512,0,3,,,65,0,2
304128,note_on,,,,,0,0,3,,,58,96,2
304640,note_on,,,,,0,0,4,,,48,96,3
304640,note_off,,,,,3584,0,4,,,44,0,3
304640,note_off,,,,,3584,0,5,,,32,0,4
304640,note_on,,,,,0,0,5,,,36,96,4
305152,note_off,,,,,512,0,4,,,48,0,3
305152,note_off,,,,,512,0,5,,,36,0,4
305152,note_on,,,,,0,0,5,,,34,96,4
305152,note_on,,,,,0,0,3,,,53,96,2
305152,note_off,,,,,1024,0,3,,,58,0,2
305152,note_on,,,,,0,0,4,,,46,96,3
305664,note_off,,,,,512,0,4,,,46,0,3
305664,note_off,,,,,512,0,5,,,34,0,4
305664,note_on,,,,,0,0,5,,,32,96,4
305664,note_on,,,,,0,0,4,,,44,96,3
306176,note_on,,,,,0,0,4,,,43,96,3
306176,note_off,,,,,2048,0,2,,,62,0,1
306176,note_on,,,,,0,0,3,,,58,96,2
306176,note_off,,,,,1024,0,3,,,53,0,2
306176,note_off,,,,,512,0,5,,,32,0,4
306176,note_off,,,,,512,0,4,,,44,0,3
306176,note_on,,,,,0,0,5,,,31,96,4
306176,note_on,,,,,0,0,2,,,61,96,1
306688,note_on,,,,,0,0,4,,,41,96,3
306688,note_off,,,,,512,0,5,,,31,0,4
306688,note_on,,,,,0,0,5,,,29,96,4
306688,note_off,,,,,512,0,4,,,43,0,3
307200,note_off,,,,,512,0,4,,,41,0,3
307200,note_off,,,,,3072,0,1,,,65,0,0
307200,note_off,,,,,512,0,5,,,29,0,4
307200,note_on,,,,,0,0,5,,,28,96,4
307200,note_on,,,,,0,0,4,,,40,96,3
307200,note_on,,,,,0,0,1,,,67,96,0
307712,note_off,,,,,512,0,5,,,28,0,4
307712,note_on,,,,,0,0,5,,,37,96,4
307712,note_on,,,,,0,0,4,,,49,96,3
307712,note_off,,,,,512,0,4,,,40,0,3
308224,note_on,,,,,0,0,3,,,52,96,2
308224,note_on,,,,,0,0,4,,,48,96,3
308224,note_off,,,,,512,0,4,,,49,0,3
308224,note_off,,,,,2048,0,2,,,61,0,1
308224,note_on,,,,,0,0,2,,,55,96,1
308224,note_off,,,,,2048,0,3,,,58,0,2
308224,note_off,,,,,512,0,5,,,37,0,4
308224,note_on,,,,,0,0,5,,,36,96,4
308736,note_on,,,,,0,0,5,,,34,96,4
308736,note_off,,,,,512,0,5,,,36,0,4
308736,note_on,,,,,0,0,4,,,46,96,3
308736,note_off,,,,,512,0,4,,,48,0,3
309248,note_on,,,,,0,0,2,,,60,96,1
309248,note_off,,,,,512,0,5,,,34,0,4
309248,note_off,,,,,1024,0,2,,,55,0,1
309248,note_on,,,,,0,0,5,,,32,96,4
309248,note_on,,,,,0,0,4,,,44,96,3
309248,note_off,,,,,512,0,4,,,46,0,3
309760,note_off,,,,,512,0,5,,,32,0,4
309760,note_on,,,,,0,0,5,,,31,96,4
309760,note_off,,,,,512,0,4,,,44,0,3
309760,note_on,,,,,0,0,4,,,43,96,3
310272,note_off,,,,,512,0,4,,,43,0,3
310272,note_on,,,,,0,0,4,,,41,96,3
310272,note_on,,,,,0,0,5,,,29,96,4
310272,note_off,,,,,2048,0,3,,,52,0,2
310272,note_on,,,,,0,0,3,,,53,96,2
310272,note_off,,,,,512,0,5,,,31,0,4
310272,note_on,,,,,0,0,1,,,68,96,0
310272,note_off,,,,,3072,0,1,,,67,0,0
310784,note_off,,,,,512,0,3,,,53,0,2
310784,note_on,,,,,0,0,3,,,55,96,2
311296,note_on,,,,,0,0,3,,,56,96,2
311296,note_off,,,,,2048,0,2,,,60,0,1
311296,note_off,,,,,512,0,3,,,55,0,2
311296,note_off,,,,,1024,0,4,,,41,0,3
311296,note_on,,,,,0,0,4,,,43,96,3
311296,note_on,,,,,0,0,5,,,31,96,4
311296,note_off,,,,,1024,0,5,,,29,0,4
311808,note_on,,,,,0,0,3,,,58,96,2
311808,note_off,,,,,512,0,3,,,56,0,2
312320,note_on,,,,,0,0,4,,,44,96,3
312320,note_on,,,,,0,0,5,,,32,96,4
312320,note_off,,,,,1024,0,5,,,31,0,4
312320,note_off,,,,,1024,0,4,,,43,0,3
312320,note_off,,,,,2048,0,1,,,68,0,0
312320,note_on,,,,,0,0,1,,,68,96,0
312320,note_on,,,,,0,0,3,,,60,96,2
312320,note_off,,,,,512,0,3,,,58,0,2
312832,note_on,,,,,0,0,3,,,53,96,2
312832,note_off,,,,,512,0,3,,,60,0,2
313344,note_on,,,,,0,0,3,,,61,96,2
313344,note_off,,,,,512,0,3,,,53,0,2
313344,note_off,,,,,1024,0,4,,,44,0,3
313344,note_on,,,,,0,0,4,,,46,96,3
313344,note_off,,,,,1024,0,5,,,32,0,4
313344,note_on,,,,,0,0,5,,,34,96,4
313856,note_off,,,,,512,0,3,,,61,0,2
313856,note_on,,,,,0,0,3,,,53,96,2
314368,note_off,,,,,1024,0,5,,,34,0,4
314368,note_on,,,,,0,0,1,,,67,96,0
314368,note_off,,,,,1024,0,4,,,46,0,3
314368,note_off,,,,,2048,0,1,,,68,0,0
314368,note_on,,,,,0,0,3,,,52,96,2
314368,note_off,,,,,512,0,3,,,53,0,2
314368,note_on,,,,,0,0,5,,,36,96,4
314368,note_on,,,,,0,0,4,,,48,96,3
314880,note_off,,,,,512,0,3,,,52,0,2
314880,note_on,,,,,0,0,3,,,58,96,2
314880,note_on,,,,,0,0,1,,,64,96,0
314880,note_off,,,,,512,0,1,,,67,0,0
315392,note_off,,,,,1024,0,4,,,48,0,3
315392,note_off,,,,,1024,0,5,,,36,0,4
315392,note_on,,,,,0,0,5,,,37,96,4
315392,note_on,,,,,0,0,3,,,56,96,2
315392,note_off,,,,,512,0,3,,,58,0,2
315392,note_on,,,,,0,0,4,,,49,96,3
315392,note_on,,,,,0,0,1,,,65,96,0
315392,note_off,,,,,512,0,1,,,64,0,0
315904,note_on,,,,,0,0,3,,,52,96,2
315904,note_off,,,,,512,0,3,,,56,0,2
315904,note_off,,,,,512,0,1,,,65,0,0
315904,note_on,,,,,0,0,1,,,73,96,0
316416,note_off,,,,,512,0,1,,,73,0,0
316416,note_on,,,,,0,0,1,,,72,96,0
316416,note_on,,,,,0,0,3,,,53,96,2
316416,note_off,,,,,512,0,3,,,52,0,2
316416,note_off,,,,,1024,0,4,,,49,0,3
316416,note_on,,,,,0,0,4,,,44,96,3
316416,note_off,,,,,1024,0,5,,,37,0,4
316416,note_on,,,,,0,0,5,,,32,96,4
316928,note_on,,,,,0,0,1,,,65,96,0
316928,note_on,,,,,5632,0,2,,,60,96,1
316928,note_off,,,,,512,0,1,,,72,0,0
317440,note_off,,,,,1024,0,5,,,32,0,4
317440,note_on,,,,,0,0,5,,,34,96,4
317440,note_on,,,,,0,0,2,,,61,96,1
317440,note_on,,,,,0,0,1,,,68,96,0
317440,note_off,,,,,512,0,1,,,65,0,0
317440,note_on,,,,,0,0,4,,,46,96,3
317440,note_off,,,,,1024,0,4,,,44,0,3
317440,note_off,,,,,512,0,2,,,60,0,1
317952,note_off,,,,,512,0,2,,,61,0,1
317952,note_on,,,,,0,0,2,,,60,96,1
318464,note_on,,,,,0,0,1,,,67,96,0
318464,note_on,,,,,0,0,4,,,48,96,3
318464,note_off,,,,,512,0,2,,,60,0,1
318464,note_on,,,,,0,0,3,,,52,96,2
318464,note_off,,,,,1024,0,5,,,34,0,4
318464,note_on,,,,,0,0,5,,,36,96,4
318464,note_off,,,,,1024,0,4,,,46,0,3
318464,note_off,,,,,2048,0,3,,,53,0,2
318464,note_off,,,,,1024,0,1,,,68,0,0
318464,note_on,,,,,0,0,2,,,58,96,1
318976,note_on,,,,,0,0,2,,,60,96,1
318976,note_off,,,,,512,0,2,,,58,0,1
318976,note_on,,,,,0,0,1,,,65,96,0
318976,note_off,,,,,512,0,1,,,67,0,0
319232,note_on,,,,,0,0,1,,,67,96,0
319232,note_off,,,,,256,0,1,,,65,0,0
319488,note_off,,,,,512,0,2,,,60,0,1
319488,note_on,,,,,0,0,2,,,57,96,1
319488,note_on,,,,,0,0,3,,,53,96,2
319488,note_on,,,,,0,0,1,,,65,96,0
319488,note_on,,,,,0,0,4,,,41,96,3
319488,note_off,,,,,1024,0,4,,,48,0,3
319488,note_off,,,,,1024,0,5,,,36,0,4
319488,note_on,,,,,0,0,5,,,29,96,4
319488,note_off,,,,,1024,0,3,,,52,0,2
319488,note_off,,,,,256,0,1,,,67,0,0
320000,note_on,,,,,0,0,2,,,65,96,1
320000,note_off,,,,,512,0,2,,,57,0,1
320512,note_off,,,,,1024,0,5,,,29,0,4
320512,note_off,,,,,1024,0,4,,,41,0,3
320512,note_on,,,,,0,0,3,,,55,96,2
320512,note_off,,,,,1024,0,3,,,53,0,2
321024,note_on,,,,,0,0,2,,,63,96,1
321024,note_off,,,,,1024,0,2,,,65,0,1
321536,note_off,,,,,1024,0,3,,,55,0,2
321536,note_on,,,,,0,0,3,,,57,96,2
321536,note_off,,,,,512,0,2,,,63,0,1
321536,note_on,,,,,0,0,2,,,61,96,1
321536,note_on,,,,,1024,0,4,,,53,96,3
321536,note_on,,,,,1024,0,5,,,41,96,4
322048,note_on,,,,,0,0,2,,,60,96,1
322048,note_off,,,,,512,0,2,,,61,0,1
322560,note_on,,,,,0,0,3,,,58,96,2
322560,note_off,,,,,512,0,2,,,60,0,1
322560,note_on,,,,,0,0,2,,,61,96,1
322560,note_off,,,,,1024,0,5,,,41,0,4
322560,note_on,,,,,0,0,4,,,58,96,3
322560,note_off,,,,,1024,0,4,,,53,0,3
322560,note_on,,,,,0,0,5,,,46,96,4
322560,note_off,,,,,1024,0,3,,,57,0,2
323072,note_off,,,,,512,0,2,,,61,0,1
323072,note_on,,,,,0,0,2,,,65,96,1
323584,note_off,,,,,1024,0,5,,,46,0,4
323584,note_off,,,,,512,0,2,,,65,0,1
323584,note_on,,,,,0,0,2,,,70,96,1
323584,note_off,,,,,1024,0,4,,,58,0,3
324096,note_on,,,,,0,0,2,,,69,96,1
324096,note_off,,,,,512,0,2,,,70,0,1
324096,note_on,,,,,0,0,3,,,60,96,2
324096,note_off,,,,,1536,0,3,,,58,0,2
324608,note_on,,,,,1024,0,4,,,46,96,3
324608,note_on,,,,,0,0,2,,,70,96,1
324608,note_off,,,,,512,0,2,,,69,0,1
324608,note_on,,,,,0,0,3,,,61,96,2
324608,note_off,,,,,512,0,3,,,60,0,2
324608,note_on,,,,,1024,0,5,,,34,96,4
325120,note_on,,,,,0,0,2,,,72,96,1
325120,note_off,,,,,512,0,2,,,70,0,1
325120,note_on,,,,,0,0,3,,,63,96,2
325120,note_off,,,,,512,0,3,,,61,0,2
325632,note_on,,,,,0,0,2,,,69,96,1
325632,note_off,,,,,512,0,2,,,72,0,1
325632,note_on,,,,,0,0,3,,,65,96,2
325632,note_off,,,,,512,0,3,,,63,0,2
325632,note_off,,,,,1024,0,4,,,46,0,3
325632,note_on,,,,,0,0,5,,,29,96,4
325632,note_off,,,,,1024,0,5,,,34,0,4
325632,note_on,,,,,0,0,4,,,41,96,3
326144,note_on,,,,,0,0,3,,,66,96,2
326144,note_off,,,,,512,0,3,,,65,0,2
326656,note_off,,,,,512,0,3,,,66,0,2
326656,note_on,,,,,0,0,3,,,65,96,2
326656,note_on,,,,,0,0,2,,,70,96,1
326656,note_off,,,,,1024,0,4,,,41,0,3
326656,note_on,,,,,0,0,4,,,43,96,3
326656,note_off,,,,,1024,0,2,,,69,0,1
326656,note_off,,,,,1024,0,5,,,29,0,4
326656,note_on,,,,,0,0,5,,,31,96,4
327168,note_off,,,,,512,0,3,,,65,0,2
327168,note_on,,,,,0,0,3,,,63,96,2
327680,note_off,,,,,1024,0,4,,,43,0,3
327680,note_off,,,,,1024,0,5,,,31,0,4
327680,note_off,,,,,512,0,3,,,63,0,2
327680,note_off,,,,,8192,0,1,,,65,0,0
327680,note_on,,,,,0,0,3,,,61,96,2
327680,note_on,,,,,0,0,2,,,72,96,1
327680,note_off,,,,,1024,0,2,,,70,0,1
327680,note_on,,,,,0,0,5,,,33,96,4
327680,note_on,,,,,0,0,4,,,45,96,3
328192,note_on,,,,,0,0,3,,,60,96,2
328192,note_off,,,,,512,0,3,,,61,0,2
328704,note_on,,,,,0,0,3,,,58,96,2
328704,note_off,,,,,512,0,3,,,60,0,2
328704,note_on,,,,,0,0,5,,,34,96,4
328704,note_off,,,,,1024,0,5,,,33,0,4
328704,note_off,,,,,1024,0,4,,,45,0,3
328704,note_on,,,,,0,0,4,,,46,96,3
328704,note_off,,,,,1024,0,2,,,72,0,1
328704,note_on,,,,,0,0,2,,,73,96,1
329216,note_on,,,,,0,0,3,,,72,96,2
329216,note_off,,,,,512,0,3,,,58,0,2
329728,note_on,,,,,0,0,3,,,70,96,2
329728,note_off,,,,,1024,0,4,,,46,0,3
329728,note_on,,,,,0,0,4,,,48,96,3
329728,note_off,,,,,512,0,3,,,72,0,2
329728,note_on,,,,,0,0,5,,,36,96,4
329728,note_off,,,,,1024,0,5,,,34,0,4
330240,note_on,,,,,0,0,3,,,68,96,2
330240,note_off,,,,,512,0,3,,,70,0,2
330752,note_off,,,,,512,0,3,,,68,0,2
330752,note_on,,,,,0,0,4,,,49,96,3
330752,note_off,,,,,1024,0,4,,,48,0,3
330752,note_off,,,,,1024,0,5,,,36,0,4
330752,note_on,,,,,0,0,5,,,37,96,4
330752,note_on,,,,,0,0,3,,,66,96,2
331264,note_off,,,,,512,0,3,,,66,0,2
331264,note_on,,,,,0,0,3,,,65,96,2
331776,note_on,,,,,0,0,4,,,51,96,3
331776,note_off,,,,,1024,0,4,,,49,0,3
331776,note_off,,,,,1024,0,5,,,37,0,4
331776,note_off,,,,,512,0,3,,,65,0,2
331776,note_on,,,,,0,0,3,,,66,96,2
331776,note_on,,,,,0,0,5,,,39,96,4
332288,note_on,,,,,0,0,2,,,77,96,1
332288,note_off,,,,,3584,0,2,,,73,0,1
332800,note_off,,,,,1024,0,4,,,51,0,3
332800,note_off,,,,,1024,0,5,,,39,0,4
332800,note_on,,,,,0,0,5,,,41,96,4
332800,note_off,,,,,512,0,2,,,77,0,1
332800,note_on,,,,,0,0,2,,,75,96,1
332800,note_on,,,,,0,0,4,,,53,96,3
333312,note_off,,,,,512,0,2,,,75,0,1
333312,note_on,,,,,0,0,3,,,65,96,2
333312,note_on,,,,,0,0,2,,,73,96,1
333312,note_off,,,,,1536,0,3,,,66,0,2
333824,note_on,,,,,0,0,4,,,54,96,3
333824,note_on,,,,,0,0,3,,,63,96,2
333824,note_off,,,,,512,0,3,,,65,0,2
333824,note_on,,,,,0,0,2,,,72,96,1
333824,note_off,,,,,512,0,2,,,73,0,1
333824,note_off,,,,,1024,0,5,,,41,0,4
333824,note_off,,,,,1024,0,4,,,53,0,3
333824,note_on,,,,,0,0,5,,,42,96,4
334336,note_off,,,,,512,0,2,,,72,0,1
334336,note_on,,,,,0,0,2,,,73,96,1
334592,note_on,,,,,0,0,2,,,75,96,1
334592,note_off,,,,,256,0,2,,,73,0,1
334848,note_off,,,,,1024,0,4,,,54,0,3
334848,note_on,,,,,0,0,5,,,41,96,4
334848,note_off,,,,,1024,0,5,,,42,0,4
334848,note_off,,,,,256,0,2,,,75,0,1
334848,note_on,,,,,0,0,4,,,53,96,3
334848,note_on,,,,,0,0,2,,,69,96,1
335360,note_off,,,,,512,0,5,,,41,0,4
335360,note_on,,,,,0,0,5,,,39,96,4
335360,note_on,,,,,0,0,3,,,66,96,2
335360,note_off,,,,,1536,0,3,,,63,0,2
335360,note_off,,,,,512,0,4,,,53,0,3
335360,note_on,,,,,0,0,4,,,51,96,3
335872,note_off,,,,,512,0,3,,,66,0,2
335872,note_off,,,,,512,0,5,,,39,0,4
335872,note_on,,,,,0,0,5,,,37,96,4
335872,note_on,,,,,0,0,3,,,65,96,2
335872,note_off,,,,,512,0,4,,,51,0,3
335872,note_on,,,,,0,0,4,,,49,96,3
336384,note_off,,,,,1536,0,2,,,69,0,1
336384,note_on,,,,,0,0,3,,,63,96,2
336384,note_off,,,,,512,0,3,,,65,0,2
336384,note_off,,,,,512,0,5,,,37,0,4
336384,note_on,,,,,0,0,4,,,48,96,3
336384,note_on,,,,,0,0,5,,,36,96,4
336384,note_on,,,,,0,0,2,,,69,96,1
336384,note_off,,,,,512,0,4,,,49,0,3
336896,note_off,,,,,512,0,4,,,48,0,3
336896,note_on,,,,,0,0,3,,,61,96,2
336896,note_on,,,,,0,0,4,,,46,96,3
336896,note_off,,,,,512,0,3,,,63,0,2
336896,note_off,,,,,512,0,2,,,69,0,1
336896,note_on,,,,,0,0,5,,,34,96,4
336896,note_on,,,,,0,0,2,,,70,96,1
336896,note_off,,,,,512,0,5,,,36,0,4
337408,note_off,,,,,512,0,4,,,46,0,3
337408,note_off,,,,,512,0,5,,,34,0,4
337408,note_on,,,,,0,0,5,,,32,96,4
337408,note_on,,,,,0,0,4,,,44,96,3
337920,note_on,,,,,0,0,5,,,30,96,4
337920,note_off,,,,,512,0,4,,,44,0,3
337920,note_on,,,,,0,0,4,,,42,96,3
337920,note_off,,,,,512,0,5,,,32,0,4
338432,note_off,,,,,512,0,5,,,30,0,4
338432,note_on,,,,,0,0,5,,,27,96,4
338432,note_off,,,,,512,0,4,,,42,0,3
338432,note_on,,,,,0,0,4,,,39,96,3
338432,note_on,,,,,0,0,2,,,72,96,1
338432,note_off,,,,,1536,0,2,,,70,0,1
338432,note_on,,,,,0,0,3,,,63,96,2
338432,note_off,,,,,1536,0,3,,,61,0,2
338944,note_off,,,,,512,0,3,,,63,0,2
338944,note_on,,,,,0,0,3,,,60,96,2
338944,note_on,,,,,0,0,4,,,41,96,3
338944,note_off,,,,,512,0,2,,,72,0,1
338944,note_off,,,,,512,0,4,,,39,0,3
338944,note_off,,,,,512,0,5,,,27,0,4
338944,note_on,,,,,0,0,5,,,29,96,4
338944,note_on,,,,,0,0,2,,,69,96,1
339456,note_on,,,,,0,0,3,,,65,96,2
339456,note_off,,,,,512,0,3,,,60,0,2
339968,note_off,,,,,1024,0,4,,,41,0,3
339968,note_on,,,,,0,0,5,,,41,96,4
339968,note_on,,,,,0,0,3,,,63,96,2
339968,note_off,,,,,512,0,3,,,65,0,2
339968,note_on,,,,,0,0,4,,,53,96,3
339968,note_off,,,,,1024,0,5,,,29,0,4
340480,note_off,,,,,1536,0,2,,,69,0,1
340480,note_on,,,,,0,0,3,,,65,96,2
340480,note_on,,,,,0,0,2,,,69,96,1
340480,note_off,,,,,512,0,3,,,63,0,2
340992,note_on,,,,,0,0,4,,,46,96,3
340992,note_off,,,,,1024,0,4,,,53,0,3
340992,note_off,,,,,512,0,2,,,69,0,1
340992,note_on,,,,,0,0,2,,,70,96,1
340992,note_on,,,,,0,0,5,,,34,96,4
340992,note_off,,,,,1024,0,5,,,41,0,4
340992,note_off,,,,,512,0,3,,,65,0,2
340992,note_on,,,,,0,0,3,,,62,96,2
341504,note_off,,,,,512,0,3,,,62,0,2
341504,note_on,,,,,0,0,3,,,60,96,2
342016,note_off,,,,,1024,0,5,,,34,0,4
342016,note_on,,,,,0,0,2,,,65,96,1
342016,note_on,,,,,0,0,4,,,58,96,3
342016,note_off,,,,,1024,0,4,,,46,0,3
342016,note_on,,,,,0,0,5,,,46,96,4
342016,note_off,,,,,1024,0,2,,,70,0,1
342016,note_off,,,,,512,0,3,,,60,0,2
342016,note_on,,,,,0,0,3,,,62,96,2
342784,note_on,,,,,0,0,3,,,63,96,2
342784,note_off,,,,,768,0,2,,,65,0,1
342784,note_on,,,,,0,0,2,,,67,96,1
342784,note_off,,,,,768,0,3,,,62,0,2
343040,note_off,,,,,1024,0,4,,,58,0,3
343040,note_on,,,,,0,0,4,,,53,96,3
343040,note_off,,,,,256,0,3,,,63,0,2
343040,note_off,,,,,256,0,2,,,67,0,1
343040,note_off,,,,,1024,0,5,,,46,0,4
343040,note_on,,,,,0,0,5,,,41,96,4
343040,note_on,,,,,0,0,3,,,60,96,2
343040,note_on,,,,,0,0,2,,,63,96,1
343808,note_on,,,,,0,0,2,,,62,96,1
343808,note_on,,,,,0,0,3,,,58,96,2
343808,note_off,,,,,768,0,3,,,60,0,2
343808,note_off,,,,,768,0,2,,,63,0,1
343936,note_off,,,,,128,0,2,,,62,0,1
343936,note_on,,,,,0,0,2,,,63,96,1
343936,note_on,,,,,0,0,3,,,60,96,2
343936,note_off,,,,,128,0,3,,,58,0,2
344064,note_on,,,,,0,0,4,,,55,96,3
344064,note_on,,,,,0,0,3,,,58,96,2
344064,note_on,,,,,0,0,5,,,43,96,4
344064,note_off,,,,,1024,0,5,,,41,0,4
344064,note_on,,,,,0,0,2,,,62,96,1
344064,note_off,,,,,1024,0,4,,,53,0,3
344064,note_off,,,,,128,0,3,,,60,0,2
344064,note_off,,,,,128,0,2,,,63,0,1
344576,note_off,,,,,512,0,3,,,58,0,2
344576,note_on,,,,,0,0,3,,,60,96,2
345088,note_on,,,,,0,0,5,,,31,96,4
345088,note_off,,,,,1024,0,5,,,43,0,4
345088,note_on,,,,,0,0,4,,,43,96,3
345088,note_off,,,,,1024,0,2,,,62,0,1
345088,note_off,,,,,512,0,3,,,60,0,2
345088,note_on,,,,,0,0,3,,,62,96,2
345088,note_off,,,,,1024,0,4,,,55,0,3
345088,note_on,,,,,0,0,2,,,70,96,1
345600,note_off,,,,,512,0,3,,,62,0,2
345600,note_on,,,,,0,0,3,,,63,96,2
345856,note_off,,,,,768,0,2,,,70,0,1
345856,note_on,,,,,0,0,2,,,72,96,1
346112,note_on,,,,,0,0,4,,,50,96,3
346112,note_off,,,,,1024,0,4,,,43,0,3
346112,note_on,,,,,0,0,2,,,68,96,1
346112,note_off,,,,,512,0,3,,,63,0,2
346112,note_off,,,,,1024,0,5,,,31,0,4
346112,note_on,,,,,0,0,5,,,38,96,4
346112,note_off,,,,,256,0,2,,,72,0,1
346112,note_on,,,,,0,0,3,,,65,96,2
346880,note_off,,,,,768,0,2,,,68,0,1
346880,note_on,,,,,0,0,2,,,67,96,1
347008,note_off,,,,,128,0,2,,,67,0,1
347008,note_on,,,,,0,0,2,,,68,96,1
347136,note_on,,,,,0,0,5,,,39,96,4
347136,note_off,,,,,1024,0,4,,,50,0,3
347136,note_off,,,,,1024,0,5,,,38,0,4
347136,note_off,,,,,128,0,2,,,68,0,1
347136,note_on,,,,,0,0,2,,,67,96,1
347136,note_on,,,,,0,0,4,,,51,96,3
347904,note_off,,,,,1792,0,3,,,65,0,2
347904,note_on,,,,,0,0,3,,,67,96,2
348160,note_off,,,,,256,0,3,,,67,0,2
348160,note_on,,,,,0,0,3,,,63,96,2
348160,note_on,,,,,0,0,4,,,48,96,3
348160,note_on,,,,,0,0,5,,,36,96,4
348160,note_off,,,,,1024,0,4,,,51,0,3
348160,note_off,,,,,1024,0,5,,,39,0,4
348672,note_off,,,,,1536,0,2,,,67,0,1
348672,note_on,,,,,0,0,2,,,65,96,1
349184,note_off,,,,,1024,0,5,,,36,0,4
349184,note_on,,,,,0,0,5,,,41,96,4
349184,note_on,,,,,0,0,2,,,67,96,1
349184,note_on,,,,,0,0,4,,,53,96,3
349184,note_off,,,,,1024,0,4,,,48,0,3
349184,note_off,,,,,512,0,2,,,65,0,1
349696,note_on,,,,,0,0,2,,,69,96,1
349696,note_off,,,,,1536,0,3,,,63,0,2
349696,note_on,,,,,0,0,3,,,62,96,2
349696,note_off,,,,,512,0,2,,,67,0,1
349952,note_on,,,,,0,0,3,,,63,96,2
349952,note_off,,,,,256,0,3,,,62,0,2
350208,note_off,,,,,1024,0,5,,,41,0,4
350208,note_on,,,,,0,0,4,,,46,96,3
350208,note_on,,,,,0,0,5,,,34,96,4
350208,note_on,,,,,0,0,2,,,70,96,1
350208,note_off,,,,,512,0,2,,,69,0,1
350208,note_on,,,,,0,0,3,,,62,96,2
350208,note_off,,,,,1024,0,4,,,53,0,3
350208,note_off,,,,,256,0,3,,,63,0,2
350720,note_on,,,,,0,0,3,,,60,96,2
350720,note_off,,,,,512,0,3,,,62,0,2
351232,note_on,,,,,0,0,3,,,58,96,2
351232,note_on,,,,,0,0,4,,,48,96,3
351232,note_off,,,,,1024,0,4,,,46,0,3
351232,note_on,,,,,0,0,5,,,36,96,4
351232,note_off,,,,,512,0,3,,,60,0,2
351232,note_off,,,,,1024,0,5,,,34,0,4
351744,note_off,,,,,512,0,3,,,58,0,2
351744,note_on,,,,,0,0,3,,,56,96,2
352256,note_on,,,,,0,0,4,,,50,96,3
352256,note_off,,,,,1024,0,4,,,48,0,3
352256,note_off,,,,,1024,0,5,,,36,0,4
352256,note_on,,,,,0,0,5,,,38,96,4
352256,note_on,,,,,0,0,3,,,55,96,2
352256,note_off,,,,,512,0,3,,,56,0,2
352768,note_on,,,,,0,0,3,,,53,96,2
352768,note_on,,,,,0,0,2,,,68,96,1
352768,note_off,,,,,2560,0,2,,,70,0,1
352768,note_off,,,,,512,0,3,,,55,0,2
353280,note_on,,,,,0,0,2,,,67,96,1
353280,note_off,,,,,1024,0,5,,,38,0,4
353280,note_on,,,,,0,0,5,,,39,96,4
353280,note_off,,,,,512,0,2,,,68,0,1
353280,note_on,,,,,0,0,3,,,51,96,2
353280,note_off,,,,,512,0,3,,,53,0,2
353280,note_off,,,,,1024,0,4,,,50,0,3
353280,note_on,,,,,0,0,4,,,51,96,3
353792,note_on,,,,,0,0,2,,,65,96,1
353792,note_off,,,,,512,0,2,,,67,0,1
354304,note_off,,,,,512,0,2,,,65,0,1
354304,note_off,,,,,1024,0,3,,,51,0,2
354304,note_on,,,,,0,0,3,,,58,96,2
354304,note_on,,,,,0,0,2,,,67,96,1
355072,note_off,,,,,768,0,2,,,67,0,1
355072,note_on,,,,,0,0,2,,,68,96,1
355072,note_off,,,,,768,0,3,,,58,0,2
355072,note_on,,,,,0,0,3,,,60,96,2
355328,note_on,,,,,0,0,4,,,46,96,3
355328,note_off,,,,,2048,0,4,,,51,0,3
355328,note_off,,,,,256,0,2,,,68,0,1
355328,note_on,,,,,0,0,2,,,65,96,1
355328,note_on,,,,,0,0,3,,,56,96,2
355328,note_off,,,,,256,0,3,,,60,0,2
355328,note_on,,,,,0,0,5,,,34,96,4
355328,note_off,,,,,2048,0,5,,,39,0,4
356096,note_on,,,,,0,0,3,,,55,96,2
356096,note_off,,,,,768,0,2,,,65,0,1
356096,note_on,,,,,0,0,2,,,63,96,1
356096,note_off,,,,,768,0,3,,,56,0,2
356224,note_on,,,,,0,0,3,,,56,96,2
356224,note_off,,,,,128,0,3,,,55,0,2
356224,note_off,,,,,128,0,2,,,63,0,1
356224,note_on,,,,,0,0,2,,,65,96,1
356352,note_on,,,,,0,0,2,,,63,96,1
356352,note_on,,,,,0,0,5,,,36,96,4
356352,note_off,,,,,128,0,3,,,56,0,2
356352,note_on,,,,,0,0,4,,,48,96,3
356352,note_off,,,,,1024,0,5,,,34,0,4
356352,note_off,,,,,1024,0,4,,,46,0,3
356352,note_off,,,,,128,0,2,,,65,0,1
356352,note_on,,,,,0,0,3,,,55,96,2
356864,note_off,,,,,512,0,2,,,63,0,1
356864,note_on,,,,,0,0,2,,,65,96,1
357376,note_off,,,,,1024,0,5,,,36,0,4
357376,note_on,,,,,0,0,5,,,48,96,4
357376,note_on,,,,,0,0,4,,,60,96,3
357376,note_on,,,,,0,0,3,,,63,96,2
357376,note_off,,,,,1024,0,3,,,55,0,2
357376,note_off,,,,,512,0,2,,,65,0,1
357376,note_on,,,,,0,0,2,,,67,96,1
357376,note_off,,,,,1024,0,4,,,48,0,3
357888,note_off,,,,,512,0,2,,,67,0,1
357888,note_on,,,,,0,0,2,,,68,96,1
358144,note_on,,,,,0,0,3,,,65,96,2
358144,note_off,,,,,768,0,3,,,63,0,2
358400,note_on,,,,,0,0,3,,,61,96,2
358400,note_off,,,,,1024,0,5,,,48,0,4
358400,note_on,,,,,0,0,5,,,43,96,4
358400,note_off,,,,,256,0,3,,,65,0,2
358400,note_on,,,,,0,0,2,,,70,96,1
358400,note_on,,,,,0,0,4,,,55,96,3
358400,note_off,,,,,512,0,2,,,68,0,1
358400,note_off,,,,,1024,0,4,,,60,0,3
359168,note_on,,,,,0,0,3,,,60,96,2
359168,note_off,,,,,768,0,3,,,61,0,2
359296,note_on,,,,,0,0,3,,,61,96,2
359296,note_off,,,,,128,0,3,,,60,0,2
359424,note_on,,,,,0,0,3,,,60,96,2
359424,note_off,,,,,1024,0,4,,,55,0,3
359424,note_on,,,,,0,0,4,,,56,96,3
359424,note_off,,,,,128,0,3,,,61,0,2
359424,note_off,,,,,1024,0,5,,,43,0,4
359424,note_on,,,,,0,0,5,,,44,96,4
359936,note_off,,,,,1536,0,2,,,70,0,1
359936,note_on,,,,,0,0,2,,,72,96,1
360448,note_off,,,,,512,0,2,,,72,0,1
360448,note_on,,,,,0,0,5,,,41,96,4
360448,note_on,,,,,0,0,4,,,53,96,3
360448,note_off,,,,,1024,0,4,,,56,0,3
360448,note_on,,,,,0,0,2,,,68,96,1
360448,note_off,,,,,1024,0,5,,,44,0,4
360960,note_on,,,,,0,0,3,,,58,96,2
360960,note_off,,,,,1536,0,3,,,60,0,2
361472,note_off,,,,,512,0,3,,,58,0,2
361472,note_off,,,,,1024,0,4,,,53,0,3
361472,note_on,,,,,0,0,4,,,58,96,3
361472,note_off,,,,,1024,0,5,,,41,0,4
361472,note_on,,,,,0,0,5,,,46,96,4
361472,note_on,,,,,0,0,3,,,60,96,2
361984,note_on,,,,,0,0,2,,,67,96,1
361984,note_off,,,,,1536,0,2,,,68,0,1
361984,note_on,,,,,0,0,3,,,62,96,2
361984,note_off,,,,,512,0,3,,,60,0,2
362240,note_off,,,,,256,0,2,,,67,0,1
362240,note_on,,,,,0,0,2,,,68,96,1
362496,note_on,,,,,0,0,2,,,67,96,1
362496,note_off,,,,,256,0,2,,,68,0,1
362496,note_off,,,,,512,0,3,,,62,0,2
362496,note_on,,,,,0,0,3,,,63,96,2
362496,note_off,,,,,1024,0,5,,,46,0,4
362496,note_on,,,,,0,0,5,,,39,96,4
362496,note_on,,,,,0,0,4,,,51,96,3
362496,note_off,,,,,1024,0,4,,,58,0,3
363008,note_on,,,,,0,0,2,,,68,96,1
363008,note_off,,,,,512,0,2,,,67,0,1
363008,note_on,,,,,0,0,3,,,65,96,2
363008,note_off,,,,,512,0,3,,,63,0,2
363520,note_on,,,,,0,0,2,,,67,96,1
363520,note_off,,,,,512,0,2,,,68,0,1
363520,note_on,,,,,0,0,5,,,41,96,4
363520,note_on,,,,,0,0,3,,,63,96,2
363520,note_off,,,,,512,0,3,,,65,0,2
363520,note_off,,,,,1024,0,5,,,39,0,4
363520,note_on,,,,,0,0,4,,,53,96,3
363520,note_off,,,,,1024,0,4,,,51,0,3
364032,note_off,,,,,512,0,2,,,67,0,1
364032,note_on,,,,,0,0,2,,,65,96,1
364032,note_off,,,,,512,0,3,,,63,0,2
364032,note_on,,,,,0,0,3,,,62,96,2
364544,note_on,,,,,0,0,4,,,55,96,3
364544,note_off,,,,,512,0,3,,,62,0,2
364544,note_on,,,,,0,0,3,,,60,96,2
364544,note_off,,,,,512,0,2,,,65,0,1
364544,note_on,,,,,0,0,2,,,63,96,1
364544,note_on,,,,,0,0,5,,,43,96,4
364544,note_off,,,,,1024,0,5,,,41,0,4
364544,note_off,,,,,1024,0,4,,,53,0,3
365056,note_off,,,,,512,0,2,,,63,0,1
365056,note_on,,,,,0,0,3,,,59,96,2
365056,note_off,,,,,512,0,3,,,60,0,2
365056,note_on,,,,,0,0,2,,,62,96,1
365568,note_off,,,,,512,0,3,,,59,0,2
365568,note_off,,,,,1024,0,5,,,43,0,4
365568,note_on,,,,,0,0,4,,,48,96,3
365568,note_on,,,,,0,0,5,,,36,96,4
365568,note_off,,,,,1024,0,4,,,55,0,3
365568,note_off,,,,,512,0,2,,,62,0,1
365568,note_on,,,,,0,0,2,,,63,96,1
365568,note_on,,,,,0,0,3,,,60,96,2
365568,note_on,,,,,37888,0,1,,,67,96,0
366080,note_off,,,,,512,0,2,,,63,0,1
366080,note_on,,,,,0,0,5,,,39,96,4
366080,note_on,,,,,0,0,2,,,67,96,1
366080,note_off,,,,,512,0,4,,,48,0,3
366080,note_on,,,,,0,0,4,,,51,96,3
366080,note_off,,,,,512,0,5,,,36,0,4
366592,note_on,,,,,0,0,2,,,65,96,1
366592,note_off,,,,,512,0,5,,,39,0,4
366592,note_on,,,,,0,0,5,,,38,96,4
366592,note_off,,,,,1024,0,3,,,60,0,2
366592,note_off,,,,,512,0,4,,,51,0,3
366592,note_on,,,,,0,0,4,,,50,96,3
366592,note_off,,,,,512,0,2,,,67,0,1
367104,note_off,,,,,512,0,2,,,65,0,1
367104,note_on,,,,,0,0,2,,,63,96,1
367104,note_on,,,,,0,0,4,,,48,96,3
367104,note_off,,,,,512,0,5,,,38,0,4
367104,note_on,,,,,0,0,5,,,36,96,4
367104,note_on,,,,,0,0,1,,,68,96,0
367104,note_off,,,,,512,0,4,,,50,0,3
367104,note_off,,,,,1536,0,1,,,67,0,0
367616,note_on,,,,,0,0,1,,,68,96,0
367616,note_off,,,,,512,0,5,,,36,0,4
367616,note_on,,,,,0,0,5,,,34,96,4
367616,note_off,,,,,512,0,1,,,68,0,0
367616,note_off,,,,,512,0,2,,,63,0,1
367616,note_off,,,,,512,0,4,,,48,0,3
367616,note_on,,,,,0,0,4,,,46,96,3
367616,note_on,,,,,0,0,2,,,61,96,1
368128,note_off,,,,,512,0,4,,,46,0,3
368128,note_on,,,,,0,0,4,,,44,96,3
368128,note_on,,,,,0,0,5,,,32,96,4
368128,note_off,,,,,512,0,5,,,34,0,4
368128,note_on,,,,,0,0,2,,,60,96,1
368128,note_off,,,,,512,0,2,,,61,0,1
368384,note_off,,,,,768,0,1,,,68,0,0
368384,note_on,,,,,0,0,1,,,67,96,0
368512,note_off,,,,,128,0,1,,,67,0,0
368512,note_on,,,,,0,0,1,,,68,96,0
368640,note_off,,,,,512,0,5,,,32,0,4
368640,note_off,,,,,128,0,1,,,68,0,0
368640,note_on,,,,,0,0,5,,,31,96,4
368640,note_off,,,,,512,0,2,,,60,0,1
368640,note_on,,,,,0,0,4,,,43,96,3
368640,note_off,,,,,512,0,4,,,44,0,3
368640,note_on,,,,,0,0,2,,,58,96,1
368640,note_on,,,,,0,0,1,,,70,96,0
369152,note_on,,,,,2560,0,3,,,50,96,2
369152,note_on,,,,,0,0,4,,,44,96,3
369152,note_on,,,,,0,0,5,,,32,96,4
369152,note_off,,,,,512,0,5,,,31,0,4
369152,note_off,,,,,512,0,4,,,43,0,3
369664,note_off,,,,,512,0,5,,,32,0,4
369664,note_on,,,,,0,0,3,,,51,96,2
369664,note_off,,,,,512,0,3,,,50,0,2
369664,note_on,,,,,0,0,4,,,43,96,3
369664,note_off,,,,,512,0,4,,,44,0,3
369664,note_on,,,,,0,0,5,,,31,96,4
370176,note_off,,,,,1536,0,2,,,58,0,1
370176,note_on,,,,,0,0,3,,,55,96,2
370176,note_off,,,,,512,0,3,,,51,0,2
370176,note_on,,,,,0,0,4,,,41,96,3
370176,note_off,,,,,512,0,4,,,43,0,3
370176,note_off,,,,,512,0,5,,,31,0,4
370176,note_on,,,,,0,0,2,,,58,96,1
370176,note_on,,,,,0,0,5,,,29,96,4
370688,note_on,,,,,0,0,5,,,27,96,4
370688,note_on,,,,,0,0,4,,,39,96,3
370688,note_off,,,,,512,0,4,,,41,0,3
370688,note_off,,,,,512,0,3,,,55,0,2
370688,note_on,,,,,0,0,3,,,56,96,2
370688,note_off,,,,,512,0,2,,,58,0,1
370688,note_on,,,,,0,0,2,,,60,96,1
370688,note_off,,,,,512,0,5,,,29,0,4
371200,note_off,,,,,512,0,3,,,56,0,2
371200,note_on,,,,,0,0,5,,,26,96,4
371200,note_off,,,,,512,0,5,,,27,0,4
371200,note_off,,,,,512,0,2,,,60,0,1
371200,note_on,,,,,0,0,3,,,58,96,2
371200,note_on,,,,,0,0,4,,,38,96,3
371200,note_on,,,,,0,0,2,,,62,96,1
371200,note_off,,,,,512,0,4,,,39,0,3
371712,note_off,,,,,512,0,3,,,58,0,2
371712,note_off,,,,,3072,0,1,,,70,0,0
371712,note_on,,,,,0,0,1,,,68,96,0
371712,note_on,,,,,0,0,5,,,24,96,4
371712,note_off,,,,,512,0,4,,,38,0,3
371712,note_on,,,,,0,0,4,,,36,96,3
371712,note_on,,,,,0,0,3,,,60,96,2
371712,note_off,,,,,512,0,2,,,62,0,1
371712,note_on,,,,,0,0,2,,,63,96,1
371712,note_off,,,,,512,0,5,,,26,0,4
372224,note_off,,,,,512,0,2,,,63,0,1
372224,note_off,,,,,512,0,3,,,60,0,2
372224,note_on,,,,,0,0,3,,,62,96,2
372224,note_on,,,,,0,0,2,,,65,96,1
372736,note_off,,,,,512,0,2,,,65,0,1
372736,note_off,,,,,512,0,3,,,62,0,2
372736,note_on,,,,,0,0,2,,,67,96,1
372736,note_on,,,,,0,0,3,,,63,96,2
372736,note_on,,,,,0,0,4,,,48,96,3
372736,note_off,,,,,1024,0,4,,,36,0,3
372736,note_off,,,,,1024,0,5,,,24,0,4
372736,note_on,,,,,0,0,5,,,36,96,4
372736,note_off,,,,,1024,0,1,,,68,0,0
373248,note_on,,,,,512,0,1,,,67,96,0
373760,note_on,,,,,0,0,5,,,31,96,4
373760,note_on,,,,,0,0,3,,,58,96,2
373760,note_on,,,,,0,0,4,,,43,96,3
373760,note_off,,,,,1024,0,4,,,48,0,3
373760,note_off,,,,,1024,0,5,,,36,0,4
373760,note_off,,,,,512,0,1,,,67,0,0
373760,note_off,,,,,1024,0,3,,,63,0,2
373760,note_on,,,,,0,0,1,,,70,96,0
373760,note_on,,,,,0,0,2,,,63,96,1
373760,note_off,,,,,1024,0,2,,,67,0,1
374272,note_on,,,,,0,0,1,,,68,96,0
374272,note_off,,,,,512,0,1,,,70,0,0
374528,note_off,,,,,256,0,1,,,68,0,0
374528,note_on,,,,,0,0,1,,,67,96,0
374784,note_on,,,,,0,0,4,,,44,96,3
374784,note_on,,,,,0,0,2,,,60,96,1
374784,note_on,,,,,0,0,5,,,32,96,4
374784,note_off,,,,,256,0,1,,,67,0,0
374784,note_on,,,,,0,0,1,,,65,96,0
374784,note_off,,,,,1024,0,5,,,31,0,4
374784,note_off,,,,,1024,0,2,,,63,0,1
374784,note_on,,,,,0,0,3,,,56,96,2
374784,note_off,,,,,1024,0,3,,,58,0,2
374784,note_off,,,,,1024,0,4,,,43,0,3
374912,note_off,,,,,128,0,1,,,65,0,0
374912,note_on,,,,,0,0,1,,,63,96,0
375296,note_on,,,,,0,0,1,,,68,96,0
375296,note_off,,,,,512,0,3,,,56,0,2
375296,note_off,,,,,384,0,1,,,63,0,0
375296,note_off,,,,,512,0,2,,,60,0,1
375296,note_on,,,,,0,0,2,,,62,96,1
375296,note_on,,,,,0,0,3,,,53,96,2
375808,note_off,,,,,1024,0,4,,,44,0,3
375808,note_on,,,,,0,0,2,,,63,96,1
375808,note_off,,,,,512,0,2,,,62,0,1
375808,note_off,,,,,512,0,3,,,53,0,2
375808,note_off,,,,,512,0,1,,,68,0,0
375808,note_on,,,,,0,0,1,,,67,96,0
375808,note_off,,,,,1024,0,5,,,32,0,4
375808,note_on,,,,,0,0,3,,,60,96,2
376320,note_off,,,,,512,0,1,,,67,0,0
376320,note_on,,,,,0,0,1,,,68,96,0
376320,note_on,,,,,512,0,4,,,41,96,3
376320,note_on,,,,,0,0,2,,,62,96,1
376320,note_off,,,,,512,0,3,,,60,0,2
376320,note_on,,,,,0,0,3,,,56,96,2
376320,note_off,,,,,512,0,2,,,63,0,1
376320,note_on,,,,,512,0,5,,,29,96,4
376576,note_on,,,,,0,0,1,,,70,96,0
376576,note_off,,,,,256,0,1,,,68,0,0
376704,note_on,,,,,0,0,1,,,72,96,0
376704,note_off,,,,,128,0,1,,,70,0,0
376832,note_off,,,,,512,0,5,,,29,0,4
376832,note_on,,,,,0,0,5,,,31,96,4
376832,note_off,,,,,128,0,1,,,72,0,0
376832,note_on,,,,,0,0,3,,,58,96,2
376832,note_off,,,,,512,0,2,,,62,0,1
376832,note_off,,,,,512,0,4,,,41,0,3
376832,note_off,,,,,512,0,3,,,56,0,2
376832,note_on,,,,,0,0,4,,,43,96,3
376832,note_on,,,,,0,0,2,,,63,96,1
376832,note_on,,,,,0,0,1,,,70,96,0
377344,note_on,,,,,0,0,4,,,38,96,3
377344,note_on,,,,,0,0,5,,,26,96,4
377344,note_off,,,,,512,0,5,,,31,0,4
377344,note_off,,,,,512,0,2,,,63,0,1
377344,note_on,,,,,0,0,2,,,65,96,1
377344,note_off,,,,,512,0,4,,,43,0,3
377856,note_on,,,,,0,0,2,,,67,96,1
377856,note_on,,,,,0,0,3,,,63,96,2
377856,note_off,,,,,512,0,4,,,38,0,3
377856,note_on,,,,,0,0,4,,,39,96,3
377856,note_off,,,,,512,0,5,,,26,0,4
377856,note_on,,,,,0,0,5,,,27,96,4
377856,note_off,,,,,512,0,2,,,65,0,1
377856,note_off,,,,,1024,0,3,,,58,0,2
378368,note_off,,,,,512,0,5,,,27,0,4
378368,note_on,,,,,0,0,5,,,32,96,4
378368,note_on,,,,,0,0,2,,,65,96,1
378368,note_off,,,,,512,0,4,,,39,0,3
378368,note_off,,,,,512,0,2,,,67,0,1
378368,note_on,,,,,0,0,4,,,44,96,3
378368,note_on,,,,,0,0,1,,,72,96,0
378368,note_off,,,,,1536,0,1,,,70,0,0
378624,note_on,,,,,0,0,1,,,68,96,0
378624,note_off,,,,,256,0,1,,,72,0,0
378880,note_on,,,,,0,0,1,,,67,96,0
378880,note_on,,,,,0,0,4,,,46,96,3
378880,note_off,,,,,512,0,4,,,44,0,3
378880,note_off,,,,,512,0,5,,,32,0,4
378880,note_on,,,,,0,0,5,,,34,96,4
378880,note_off,,,,,512,0,2,,,65,0,1
378880,note_on,,,,,0,0,2,,,67,96,1
378880,note_off,,,,,256,0,1,,,68,0,0
379392,note_off,,,,,512,0,2,,,67,0,1
379392,note_off,,,,,1536,0,3,,,63,0,2
379392,note_on,,,,,0,0,2,,,68,96,1
379392,note_on,,,,,0,0,3,,,60,96,2
379904,note_off,,,,,512,0,3,,,60,0,2
379904,note_on,,,,,0,0,1,,,65,96,0
379904,note_off,,,,,1024,0,1,,,67,0,0
379904,note_on,,,,,0,0,3,,,61,96,2
379904,note_off,,,,,512,0,2,,,68,0,1
379904,note_on,,,,,0,0,2,,,70,96,1
380672,note_on,,,,,0,0,1,,,63,96,0
380672,note_off,,,,,768,0,1,,,65,0,0
380800,note_off,,,,,128,0,1,,,63,0,0
380800,note_on,,,,,0,0,1,,,65,96,0
380928,note_on,,,,,0,0,5,,,36,96,4
380928,note_off,,,,,128,0,1,,,65,0,0
380928,note_on,,,,,0,0,4,,,48,96,3
380928,note_on,,,,,0,0,1,,,63,96,0
380928,note_off,,,,,2048,0,5,,,34,0,4
380928,note_off,,,,,2048,0,4,,,46,0,3
381440,note_on,,,,,0,0,2,,,63,96,1
381440,note_off,,,,,1536,0,2,,,70,0,1
381952,note_off,,,,,2048,0,3,,,61,0,2
381952,note_on,,,,,0,0,3,,,60,96,2
381952,note_on,,,,,0,0,2,,,68,96,1
381952,note_off,,,,,512,0,2,,,63,0,1
382464,note_off,,,,,512,0,3,,,60,0,2
382464,note_on,,,,,0,0,3,,,61,96,2
382464,note_on,,,,,0,0,4,,,46,96,3
382464,note_off,,,,,1536,0,4,,,48,0,3
382464,note_off,,,,,1536,0,5,,,36,0,4
382464,note_on,,,,,0,0,5,,,34,96,4
382976,note_off,,,,,512,0,3,,,61,0,2
382976,note_on,,,,,0,0,3,,,63,96,2
382976,note_off,,,,,512,0,4,,,46,0,3
382976,note_on,,,,,0,0,5,,,36,96,4
382976,note_off,,,,,512,0,5,,,34,0,4
382976,note_on,,,,,0,0,4,,,48,96,3
383488,note_off,,,,,512,0,3,,,63,0,2
383488,note_on,,,,,0,0,4,,,50,96,3
383488,note_off,,,,,512,0,5,,,36,0,4
383488,note_off,,,,,512,0,4,,,48,0,3
383488,note_on,,,,,0,0,5,,,38,96,4
383488,note_on,,,,,0,0,3,,,65,96,2
384000,note_on,,,,,0,0,5,,,39,96,4
384000,note_off,,,,,512,0,5,,,38,0,4
384000,note_on,,,,,0,0,4,,,51,96,3
384000,note_off,,,,,512,0,4,,,50,0,3
384000,note_on,,,,,0,0,3,,,58,96,2
384000,note_off,,,,,512,0,3,,,65,0,2
384512,note_off,,,,,2560,0,2,,,68,0,1
384512,note_on,,,,,0,0,2,,,68,96,1
385024,note_on,,,,,0,0,2,,,67,96,1
385024,note_off,,,,,512,0,2,,,68,0,1
385536,note_off,,,,,1536,0,4,,,51,0,3
385536,note_on,,,,,0,0,2,,,65,96,1
385536,note_off,,,,,1536,0,5,,,39,0,4
385536,note_on,,,,,0,0,5,,,39,96,4
385536,note_off,,,,,512,0,2,,,67,0,1
385536,note_on,,,,,0,0,4,,,51,96,3
386048,note_off,,,,,512,0,4,,,51,0,3
386048,note_off,,,,,512,0,2,,,65,0,1
386048,note_on,,,,,0,0,2,,,63,96,1
386048,note_on,,,,,0,0,4,,,53,96,3
386048,note_off,,,,,512,0,5,,,39,0,4
386048,note_on,,,,,0,0,5,,,41,96,4
386560,note_off,,,,,512,0,5,,,41,0,4
386560,note_on,,,,,0,0,5,,,43,96,4
386560,note_off,,,,,512,0,2,,,63,0,1
386560,note_on,,,,,0,0,2,,,61,96,1
386560,note_on,,,,,0,0,4,,,55,96,3
386560,note_off,,,,,512,0,4,,,53,0,3
387072,note_off,,,,,512,0,4,,,55,0,3
387072,note_on,,,,,0,0,4,,,56,96,3
387072,note_off,,,,,512,0,5,,,43,0,4
387072,note_on,,,,,0,0,5,,,44,96,4
387072,note_off,,,,,512,0,2,,,61,0,1
387072,note_on,,,,,0,0,2,,,60,96,1
387584,note_off,,,,,3584,0,3,,,58,0,2
387584,note_on,,,,,0,0,3,,,58,96,2
388096,note_off,,,,,512,0,3,,,58,0,2
388096,note_on,,,,,0,0,3,,,56,96,2
388608,note_on,,,,,0,0,5,,,34,96,4
388608,note_on,,,,,0,0,3,,,55,96,2
388608,note_off,,,,,1536,0,5,,,44,0,4
388608,note_off,,,,,512,0,3,,,56,0,2
388608,note_off,,,,,1536,0,4,,,56,0,3
388608,note_on,,,,,0,0,4,,,46,96,3
389120,note_on,,,,,0,0,4,,,48,96,3
389120,note_off,,,,,512,0,3,,,55,0,2
389120,note_off,,,,,512,0,5,,,34,0,4
389120,note_on,,,,,0,0,3,,,56,96,2
389120,note_off,,,,,512,0,4,,,46,0,3
389120,note_on,,,,,0,0,5,,,36,96,4
389632,note_off,,,,,512,0,4,,,48,0,3
389632,note_on,,,,,0,0,4,,,38,96,3
389632,note_off,,,,,512,0,5,,,36,0,4
389632,note_on,,,,,0,0,5,,,26,96,4
390144,note_off,,,,,512,0,5,,,26,0,4
390144,note_off,,,,,512,0,4,,,38,0,3
390144,note_on,,,,,0,0,5,,,27,96,4
390144,note_on,,,,,0,0,4,,,39,96,3
390656,note_on,,,,,0,0,2,,,60,96,1
390656,note_off,,,,,3584,0,2,,,60,0,1
391168,note_off,,,,,512,0,2,,,60,0,1
391168,note_on,,,,,0,0,2,,,58,96,1
391680,note_on,,,,,0,0,3,,,56,96,2
391680,note_off,,,,,2560,0,3,,,56,0,2
392192,note_on,,,,,0,0,3,,,55,96,2
392192,note_off,,,,,512,0,3,,,56,0,2
392704,note_on,,,,,0,0,3,,,53,96,2
392704,note_off,,,,,512,0,3,,,55,0,2
393216,note_on,,,,,0,0,3,,,55,96,2
393216,note_off,,,,,512,0,3,,,53,0,2
396288,note_off,,,,,6144,0,4,,,39,0,3
396288,end_of_track,,,,,0,1,3,,,,,
396288,note_off,,,,,6144,0,5,,,27,0,4
396288,end_of_track,,,,,0,1,2,,,,,
396288,note_off,,,,,5120,0,2,,,58,0,1
396288,end_of_track,,,,,0,1,4,,,,,
396288,end_of_track,,,,,396288,1,0,,,,,
396288,note_off,,,,,15360,0,1,,,63,0,0
396288,end_of_track,,,,,0,1,1,,,,,
396288,note_off,,,,,3072,0,3,,,55,0,2
396288,end_of_track,,,,,0,1,5,,,,,
