tick,type,numerator,denominator,clocks_per_click,notated_32nd_notes_per_beat,time,meta,track,key,tempo,note,velocity,channel
0,time_signature,4,4,24,8,0,1,0,,,,,
0,track_name,,,,,0,1,3,,,,,
0,track_name,,,,,0,1,1,,,,,
0,track_name,,,,,0,1,2,,,,,
0,set_tempo,,,,,0,1,0,,2000000,,,
0,key_signature,,,,,0,1,0,Am,,,,
3072,note_on,,,,,3072,0,1,,,64,96,0
3072,note_on,,,,,3072,0,2,,,48,96,1
3072,note_on,,,,,3072,0,3,,,45,96,2
3584,note_on,,,,,0,0,2,,,50,96,1
3584,note_off,,,,,512,0,3,,,45,0,2
3584,note_on,,,,,0,0,3,,,47,96,2
3584,note_off,,,,,512,0,2,,,48,0,1
4096,note_off,,,,,512,0,2,,,50,0,1
4096,note_on,,,,,0,0,2,,,52,96,1
4096,note_on,,,,,0,0,1,,,69,96,0
4096,note_off,,,,,512,0,3,,,47,0,2
4096,note_on,,,,,0,0,3,,,48,96,2
4096,note_off,,,,,1024,0,1,,,64,0,0
4352,note_on,,,,,0,0,1,,,71,96,0
4352,note_off,,,,,256,0,1,,,69,0,0
4608,note_off,,,,,512,0,2,,,52,0,1
4608,note_on,,,,,0,0,2,,,57,96,1
4608,note_on,,,,,0,0,3,,,53,96,2
4608,note_off,,,,,512,0,3,,,48,0,2
4608,note_off,,,,,256,0,1,,,71,0,0
4608,note_on,,,,,0,0,1,,,69,96,0
4864,note_on,,,,,0,0,1,,,71,96,0
4864,note_off,,,,,256,0,1,,,69,0,0
5120,note_off,,,,,512,0,3,,,53,0,2
5120,note_on,,,,,0,0,3,,,50,96,2
5120,note_on,,,,,0,0,1,,,71,96,0
5120,note_off,,,,,256,0,1,,,71,0,0
5632,note_off,,,,,512,0,3,,,50,0,2
5632,note_on,,,,,0,0,3,,,52,96,2
5632,note_off,,,,,1024,0,2,,,57,0,1
5632,note_on,,,,,0,0,2,,,56,96,1
5888,note_off,,,,,768,0,1,,,71,0,0
5888,note_on,,,,,0,0,1,,,69,96,0
6016,note_on,,,,,0,0,1,,,71,96,0
6016,note_off,,,,,128,0,1,,,69,0,0
6144,note_on,,,,,0,0,1,,,72,96,0
6144,note_on,,,,,0,0,3,,,57,96,2
6144,note_off,,,,,512,0,3,,,52,0,2
6144,note_off,,,,,128,0,1,,,71,0,0
6144,note_off,,,,,512,0,2,,,56,0,1
6144,note_on,,,,,0,0,2,,,57,96,1
6656,note_off,,,,,512,0,2,,,57,0,1
6656,note_on,,,,,0,0,2,,,60,96,1
7168,note_off,,,,,1024,0,1,,,72,0,0
7168,note_off,,,,,512,0,2,,,60,0,1
7168,note_on,,,,,0,0,2,,,62,96,1
7168,note_on,,,,,0,0,1,,,71,96,0
7424,note_on,,,,,0,0,1,,,72,96,0
7424,note_off,,,,,256,0,1,,,71,0,0
7552,note_off,,,,,128,0,1,,,72,0,0
7552,note_on,,,,,0,0,1,,,74,96,0
7680,note_on,,,,,0,0,1,,,72,96,0
7680,note_off,,,,,1536,0,3,,,57,0,2
7680,note_on,,,,,0,0,3,,,55,96,2
7680,note_on,,,,,0,0,2,,,64,96,1
7680,note_off,,,,,128,0,1,,,74,0,0
7680,note_off,,,,,512,0,2,,,62,0,1
7936,note_off,,,,,256,0,1,,,72,0,0
7936,note_on,,,,,0,0,1,,,71,96,0
8192,note_off,,,,,512,0,3,,,55,0,2
8192,note_on,,,,,0,0,3,,,53,96,2
8192,note_off,,,,,256,0,1,,,71,0,0
8192,note_on,,,,,0,0,1,,,69,96,0
8448,note_on,,,,,0,0,1,,,69,96,0
8448,note_off,,,,,256,0,1,,,69,0,0
8704,note_off,,,,,1024,0,2,,,64,0,1
8704,note_on,,,,,0,0,2,,,62,96,1
8704,note_on,,,,,0,0,1,,,71,96,0
8704,note_off,,,,,256,0,1,,,69,0,0
8960,note_off,,,,,768,0,3,,,53,0,2
8960,note_off,,,,,256,0,1,,,71,0,0
8960,note_on,,,,,0,0,1,,,72,96,0
8960,note_on,,,,,0,0,3,,,52,96,2
9216,note_on,,,,,0,0,3,,,50,96,2
9216,note_off,,,,,256,0,3,,,52,0,2
9216,note_on,,,,,0,0,1,,,71,96,0
9216,note_off,,,,,256,0,1,,,72,0,0
9728,note_off,,,,,1024,0,2,,,62,0,1
9728,note_on,,,,,0,0,2,,,60,96,1
9984,note_on,,,,,0,0,1,,,69,96,0
9984,note_off,,,,,768,0,1,,,71,0,0
10240,note_on,,,,,0,0,3,,,52,96,2
10240,note_off,,,,,1024,0,3,,,50,0,2
10240,note_on,,,,,0,0,2,,,59,96,1
10240,note_on,,,,,0,0,1,,,68,96,0
10240,note_off,,,,,256,0,1,,,69,0,0
10240,note_off,,,,,512,0,2,,,60,0,1
10752,note_off,,,,,512,0,2,,,59,0,1
10752,note_on,,,,,0,0,2,,,57,96,1
11008,note_on,,,,,0,0,1,,,66,96,0
11008,note_off,,,,,768,0,1,,,68,0,0
11264,note_off,,,,,256,0,1,,,66,0,0
11264,note_on,,,,,0,0,1,,,64,96,0
11264,note_on,,,,,0,0,2,,,56,96,1
11264,note_off,,,,,512,0,2,,,57,0,1
11776,note_off,,,,,512,0,2,,,56,0,1
11776,note_on,,,,,0,0,2,,,59,96,1
11776,note_off,,,,,1536,0,3,,,52,0,2
11776,note_on,,,,,0,0,1,,,67,96,0
11776,note_off,,,,,512,0,1,,,64,0,0
11776,note_on,,,,,0,0,3,,,52,96,2
12288,note_off,,,,,512,0,3,,,52,0,2
12288,note_off,,,,,512,0,2,,,59,0,1
12288,note_on,,,,,0,0,2,,,60,96,1
12288,note_off,,,,,512,0,1,,,67,0,0
12288,note_on,,,,,0,0,3,,,57,96,2
12288,note_on,,,,,0,0,1,,,67,96,0
12544,note_off,,,,,256,0,1,,,67,0,0
12544,note_on,,,,,0,0,1,,,65,96,0
12800,note_off,,,,,256,0,1,,,65,0,0
12800,note_on,,,,,0,0,1,,,64,96,0
13056,note_off,,,,,256,0,1,,,64,0,0
13056,note_on,,,,,0,0,1,,,65,96,0
13312,note_on,,,,,0,0,1,,,65,96,0
13312,note_on,,,,,0,0,3,,,50,96,2
13312,note_off,,,,,1024,0,3,,,57,0,2
13312,note_off,,,,,256,0,1,,,65,0,0
13824,note_on,,,,,0,0,3,,,55,96,2
13824,note_off,,,,,512,0,3,,,50,0,2
13824,note_on,,,,,0,0,2,,,59,96,1
13824,note_off,,,,,1536,0,2,,,60,0,1
14080,note_off,,,,,768,0,1,,,65,0,0
14080,note_on,,,,,0,0,1,,,64,96,0
14336,note_on,,,,,0,0,3,,,48,96,2
14336,note_off,,,,,512,0,3,,,55,0,2
14336,note_off,,,,,256,0,1,,,64,0,0
14336,note_on,,,,,0,0,1,,,64,96,0
14848,note_on,,,,,0,0,2,,,57,96,1
14848,note_off,,,,,1024,0,2,,,59,0,1
15104,note_off,,,,,256,0,2,,,57,0,1
15104,note_on,,,,,0,0,2,,,56,96,1
15360,note_on,,,,,0,0,3,,,53,96,2
15360,note_on,,,,,0,0,2,,,57,96,1
15360,note_off,,,,,1024,0,3,,,48,0,2
15360,note_off,,,,,1024,0,1,,,64,0,0
15360,note_off,,,,,256,0,2,,,56,0,1
15616,note_on,,,,,256,0,1,,,69,96,0
15872,note_off,,,,,256,0,1,,,69,0,0
15872,note_on,,,,,0,0,3,,,52,96,2
15872,note_off,,,,,512,0,3,,,53,0,2
15872,note_on,,,,,0,0,1,,,71,96,0
16128,note_on,,,,,0,0,1,,,72,96,0
16128,note_off,,,,,256,0,1,,,71,0,0
16384,note_off,,,,,1024,0,2,,,57,0,1
16384,note_on,,,,,0,0,2,,,62,96,1
16384,note_off,,,,,256,0,1,,,72,0,0
16384,note_on,,,,,0,0,1,,,72,96,0
16384,note_on,,,,,0,0,3,,,50,96,2
16384,note_off,,,,,512,0,3,,,52,0,2
16640,note_off,,,,,256,0,1,,,72,0,0
16640,note_on,,,,,0,0,1,,,71,96,0
16896,note_on,,,,,0,0,1,,,72,96,0
16896,note_off,,,,,256,0,1,,,71,0,0
16896,note_off,,,,,512,0,2,,,62,0,1
16896,note_on,,,,,0,0,2,,,60,96,1
17152,note_off,,,,,256,0,1,,,72,0,0
17152,note_on,,,,,0,0,1,,,74,96,0
17408,note_off,,,,,1024,0,3,,,50,0,2
17408,note_on,,,,,0,0,3,,,52,96,2
17408,note_off,,,,,512,0,2,,,60,0,1
17408,note_on,,,,,0,0,2,,,59,96,1
17408,note_off,,,,,256,0,1,,,74,0,0
17408,note_on,,,,,0,0,1,,,68,96,0
18176,note_on,,,,,0,0,1,,,69,96,0
18176,note_off,,,,,768,0,1,,,68,0,0
18432,note_on,,,,,0,0,1,,,69,96,0
18432,note_on,,,,,0,0,2,,,57,96,1
18432,note_off,,,,,1024,0,2,,,59,0,1
18432,note_off,,,,,256,0,1,,,69,0,0
18432,note_off,,,,,1024,0,3,,,52,0,2
18944,note_on,,,,,512,0,3,,,45,96,2
19456,note_off,,,,,1024,0,2,,,57,0,1
19456,note_off,,,,,512,0,3,,,45,0,2
19456,note_on,,,,,0,0,3,,,45,96,2
19456,note_off,,,,,1024,0,1,,,69,0,0
19456,note_on,,,,,0,0,2,,,48,96,1
19456,note_on,,,,,0,0,1,,,64,96,0
19968,note_off,,,,,512,0,3,,,45,0,2
19968,note_on,,,,,0,0,3,,,47,96,2
19968,note_off,,,,,512,0,2,,,48,0,1
19968,note_on,,,,,0,0,2,,,50,96,1
20480,note_off,,,,,512,0,3,,,47,0,2
20480,note_on,,,,,0,0,3,,,48,96,2
20480,note_off,,,,,512,0,2,,,50,0,1
20480,note_on,,,,,0,0,2,,,52,96,1
20480,note_on,,,,,0,0,1,,,69,96,0
20480,note_off,,,,,1024,0,1,,,64,0,0
20736,note_off,,,,,256,0,1,,,69,0,0
20736,note_on,,,,,0,0,1,,,71,96,0
20992,note_off,,,,,256,0,1,,,71,0,0
20992,note_on,,,,,0,0,1,,,69,96,0
20992,note_off,,,,,512,0,3,,,48,0,2
20992,note_on,,,,,0,0,3,,,53,96,2
20992,note_off,,,,,512,0,2,,,52,0,1
20992,note_on,,,,,0,0,2,,,57,96,1
21248,note_on,,,,,0,0,1,,,71,96,0
21248,note_off,,,,,256,0,1,,,69,0,0
21504,note_off,,,,,512,0,3,,,53,0,2
21504,note_on,,,,,0,0,3,,,50,96,2
21504,note_off,,,,,256,0,1,,,71,0,0
21504,note_on,,,,,0,0,1,,,71,96,0
22016,note_off,,,,,1024,0,2,,,57,0,1
22016,note_on,,,,,0,0,3,,,52,96,2
22016,note_on,,,,,0,0,2,,,56,96,1
22016,note_off,,,,,512,0,3,,,50,0,2
22272,note_off,,,,,768,0,1,,,71,0,0
22272,note_on,,,,,0,0,1,,,69,96,0
22400,note_off,,,,,128,0,1,,,69,0,0
22400,note_on,,,,,0,0,1,,,71,96,0
22528,note_off,,,,,512,0,3,,,52,0,2
22528,note_on,,,,,0,0,2,,,57,96,1
22528,note_on,,,,,0,0,3,,,57,96,2
22528,note_on,,,,,0,0,1,,,72,96,0
22528,note_off,,,,,128,0,1,,,71,0,0
22528,note_off,,,,,512,0,2,,,56,0,1
23040,note_on,,,,,0,0,2,,,60,96,1
23040,note_off,,,,,512,0,2,,,57,0,1
23552,note_off,,,,,512,0,2,,,60,0,1
23552,note_off,,,,,1024,0,1,,,72,0,0
23552,note_on,,,,,0,0,2,,,62,96,1
23552,note_on,,,,,0,0,1,,,71,96,0
23808,note_off,,,,,256,0,1,,,71,0,0
23808,note_on,,,,,0,0,1,,,72,96,0
23936,note_off,,,,,128,0,1,,,72,0,0
23936,note_on,,,,,0,0,1,,,74,96,0
24064,note_off,,,,,128,0,1,,,74,0,0
24064,note_on,,,,,0,0,1,,,72,96,0
24064,note_off,,,,,1536,0,3,,,57,0,2
24064,note_off,,,,,512,0,2,,,62,0,1
24064,note_on,,,,,0,0,2,,,64,96,1
24064,note_on,,,,,0,0,3,,,55,96,2
24320,note_off,,,,,256,0,1,,,72,0,0
24320,note_on,,,,,0,0,1,,,71,96,0
24576,note_on,,,,,0,0,3,,,53,96,2
24576,note_off,,,,,256,0,1,,,71,0,0
24576,note_off,,,,,512,0,3,,,55,0,2
24576,note_on,,,,,0,0,1,,,69,96,0
24832,note_on,,,,,0,0,1,,,69,96,0
24832,note_off,,,,,256,0,1,,,69,0,0
25088,note_on,,,,,0,0,1,,,71,96,0
25088,note_off,,,,,256,0,1,,,69,0,0
25088,note_off,,,,,1024,0,2,,,64,0,1
25088,note_on,,,,,0,0,2,,,62,96,1
25344,note_off,,,,,256,0,1,,,71,0,0
25344,note_off,,,,,768,0,3,,,53,0,2
25344,note_on,,,,,0,0,3,,,52,96,2
25344,note_on,,,,,0,0,1,,,72,96,0
25600,note_on,,,,,0,0,1,,,71,96,0
25600,note_off,,,,,256,0,1,,,72,0,0
25600,note_on,,,,,0,0,3,,,50,96,2
25600,note_off,,,,,256,0,3,,,52,0,2
26112,note_on,,,,,0,0,2,,,60,96,1
26112,note_off,,,,,1024,0,2,,,62,0,1
26368,note_on,,,,,0,0,1,,,69,96,0
26368,note_off,,,,,768,0,1,,,71,0,0
26624,note_on,,,,,0,0,2,,,59,96,1
26624,note_off,,,,,512,0,2,,,60,0,1
26624,note_on,,,,,0,0,3,,,52,96,2
26624,note_off,,,,,1024,0,3,,,50,0,2
26624,note_off,,,,,256,0,1,,,69,0,0
26624,note_on,,,,,0,0,1,,,68,96,0
27136,note_off,,,,,512,0,2,,,59,0,1
27136,note_on,,,,,0,0,2,,,57,96,1
27392,note_on,,,,,0,0,1,,,66,96,0
27392,note_off,,,,,768,0,1,,,68,0,0
27648,note_off,,,,,512,0,2,,,57,0,1
27648,note_on,,,,,0,0,2,,,56,96,1
27648,note_on,,,,,0,0,1,,,64,96,0
27648,note_off,,,,,256,0,1,,,66,0,0
28160,note_on,,,,,0,0,1,,,67,96,0
28160,note_off,,,,,512,0,1,,,64,0,0
28160,note_on,,,,,0,0,2,,,59,96,1
28160,note_off,,,,,1536,0,3,,,52,0,2
28160,note_off,,,,,512,0,2,,,56,0,1
28160,note_on,,,,,0,0,3,,,52,96,2
28672,note_off,,,,,512,0,3,,,52,0,2
28672,note_on,,,,,0,0,2,,,60,96,1
28672,note_off,,,,,512,0,2,,,59,0,1
28672,note_off,,,,,512,0,1,,,67,0,0
28672,note_on,,,,,0,0,1,,,67,96,0
28672,note_on,,,,,0,0,3,,,57,96,2
28928,note_off,,,,,256,0,1,,,67,0,0
28928,note_on,,,,,0,0,1,,,65,96,0
29184,note_off,,,,,256,0,1,,,65,0,0
29184,note_on,,,,,0,0,1,,,64,96,0
29440,note_on,,,,,0,0,1,,,65,96,0
29440,note_off,,,,,256,0,1,,,64,0,0
29696,note_on,,,,,0,0,1,,,65,96,0
29696,note_off,,,,,256,0,1,,,65,0,0
29696,note_on,,,,,0,0,3,,,50,96,2
29696,note_off,,,,,1024,0,3,,,57,0,2
30208,note_off,,,,,512,0,3,,,50,0,2
30208,note_on,,,,,0,0,2,,,59,96,1
30208,note_off,,,,,1536,0,2,,,60,0,1
30208,note_on,,,,,0,0,3,,,55,96,2
30464,note_off,,,,,768,0,1,,,65,0,0
30464,note_on,,,,,0,0,1,,,64,96,0
30720,note_on,,,,,0,0,3,,,48,96,2
30720,note_off,,,,,512,0,3,,,55,0,2
30720,note_on,,,,,0,0,1,,,64,96,0
30720,note_off,,,,,256,0,1,,,64,0,0
31232,note_off,,,,,1024,0,2,,,59,0,1
31232,note_on,,,,,0,0,2,,,57,96,1
31488,note_off,,,,,256,0,2,,,57,0,1
31488,note_on,,,,,0,0,2,,,56,96,1
31744,note_on,,,,,0,0,2,,,57,96,1
31744,note_off,,,,,256,0,2,,,56,0,1
31744,note_off,,,,,1024,0,1,,,64,0,0
31744,note_on,,,,,0,0,3,,,53,96,2
31744,note_off,,,,,1024,0,3,,,48,0,2
32000,note_on,,,,,256,0,1,,,69,96,0
32256,note_off,,,,,512,0,3,,,53,0,2
32256,note_on,,,,,0,0,3,,,52,96,2
32256,note_off,,,,,256,0,1,,,69,0,0
32256,note_on,,,,,0,0,1,,,71,96,0
32512,note_off,,,,,256,0,1,,,71,0,0
32512,note_on,,,,,0,0,1,,,72,96,0
32768,note_off,,,,,256,0,1,,,72,0,0
32768,note_on,,,,,0,0,3,,,50,96,2
32768,note_off,,,,,512,0,3,,,52,0,2
32768,note_on,,,,,0,0,1,,,72,96,0
32768,note_off,,,,,1024,0,2,,,57,0,1
32768,note_on,,,,,0,0,2,,,62,96,1
33024,note_off,,,,,256,0,1,,,72,0,0
33024,note_on,,,,,0,0,1,,,71,96,0
33280,note_off,,,,,256,0,1,,,71,0,0
33280,note_off,,,,,512,0,2,,,62,0,1
33280,note_on,,,,,0,0,2,,,60,96,1
33280,note_on,,,,,0,0,1,,,72,96,0
33536,note_off,,,,,256,0,1,,,72,0,0
33536,note_on,,,,,0,0,1,,,74,96,0
33792,note_off,,,,,512,0,2,,,60,0,1
33792,note_on,,,,,0,0,2,,,59,96,1
33792,note_on,,,,,0,0,1,,,68,96,0
33792,note_off,,,,,256,0,1,,,74,0,0
33792,note_on,,,,,0,0,3,,,52,96,2
33792,note_off,,,,,1024,0,3,,,50,0,2
34560,note_on,,,,,0,0,1,,,69,96,0
34560,note_off,,,,,768,0,1,,,68,0,0
34816,note_off,,,,,256,0,1,,,69,0,0
34816,note_on,,,,,0,0,1,,,69,96,0
34816,note_on,,,,,0,0,2,,,57,96,1
34816,note_off,,,,,1024,0,2,,,59,0,1
34816,note_off,,,,,1024,0,3,,,52,0,2
35328,note_on,,,,,512,0,3,,,45,96,2
35840,note_off,,,,,1024,0,1,,,69,0,0
35840,note_on,,,,,0,0,3,,,44,96,2
35840,note_on,,,,,0,0,1,,,71,96,0
35840,note_off,,,,,1024,0,2,,,57,0,1
35840,note_off,,,,,512,0,3,,,45,0,2
36352,note_on,,,,,512,0,2,,,52,96,1
36480,note_off,,,,,640,0,1,,,71,0,0
36480,note_on,,,,,0,0,1,,,72,96,0
36544,note_on,,,,,0,0,1,,,71,96,0
36544,note_off,,,,,64,0,1,,,72,0,0
36608,note_on,,,,,0,0,1,,,69,96,0
36608,note_off,,,,,64,0,1,,,71,0,0
36736,note_on,,,,,0,0,1,,,71,96,0
36736,note_off,,,,,128,0,1,,,69,0,0
36864,note_off,,,,,1024,0,3,,,44,0,2
36864,note_on,,,,,0,0,3,,,45,96,2
36864,note_on,,,,,0,0,1,,,72,96,0
36864,note_off,,,,,128,0,1,,,71,0,0
37120,note_off,,,,,256,0,1,,,72,0,0
37120,note_on,,,,,0,0,1,,,74,96,0
37376,note_off,,,,,256,0,1,,,74,0,0
37376,note_on,,,,,0,0,1,,,72,96,0
37376,note_off,,,,,1024,0,2,,,52,0,1
37376,note_on,,,,,0,0,2,,,53,96,1
37632,note_on,,,,,0,0,1,,,74,96,0
37632,note_off,,,,,256,0,1,,,72,0,0
37888,note_on,,,,,0,0,3,,,47,96,2
37888,note_off,,,,,1024,0,3,,,45,0,2
37888,note_on,,,,,0,0,1,,,74,96,0
37888,note_off,,,,,256,0,1,,,74,0,0
38400,note_on,,,,,0,0,2,,,55,96,1
38400,note_off,,,,,1024,0,2,,,53,0,1
38656,note_off,,,,,768,0,1,,,74,0,0
38656,note_on,,,,,0,0,1,,,72,96,0
38784,note_off,,,,,128,0,1,,,72,0,0
38784,note_on,,,,,0,0,1,,,74,96,0
38912,note_on,,,,,0,0,1,,,76,96,0
38912,note_on,,,,,0,0,3,,,48,96,2
38912,note_off,,,,,1024,0,3,,,47,0,2
38912,note_off,,,,,128,0,1,,,74,0,0
39424,note_off,,,,,1024,0,2,,,55,0,1
39424,note_on,,,,,0,0,2,,,55,96,1
39936,note_off,,,,,512,0,2,,,55,0,1
39936,note_on,,,,,0,0,1,,,76,96,0
39936,note_off,,,,,1024,0,1,,,76,0,0
39936,note_on,,,,,0,0,2,,,60,96,1
40192,note_on,,,,,0,0,1,,,77,96,0
40192,note_off,,,,,256,0,1,,,76,0,0
40320,note_on,,,,,0,0,1,,,79,96,0
40320,note_off,,,,,128,0,1,,,77,0,0
40448,note_off,,,,,1536,0,3,,,48,0,2
40448,note_on,,,,,0,0,1,,,77,96,0
40448,note_off,,,,,128,0,1,,,79,0,0
40448,note_on,,,,,0,0,3,,,57,96,2
40704,note_on,,,,,0,0,1,,,76,96,0
40704,note_off,,,,,256,0,1,,,77,0,0
40960,note_on,,,,,0,0,3,,,53,96,2
40960,note_off,,,,,512,0,3,,,57,0,2
40960,note_on,,,,,0,0,1,,,81,96,0
40960,note_off,,,,,256,0,1,,,76,0,0
41216,note_on,,,,,0,0,1,,,71,96,0
41216,note_off,,,,,256,0,1,,,81,0,0
41472,note_on,,,,,0,0,3,,,54,96,2
41472,note_on,,,,,0,0,1,,,72,96,0
41472,note_off,,,,,512,0,3,,,53,0,2
41472,note_off,,,,,256,0,1,,,71,0,0
41728,note_off,,,,,256,0,1,,,72,0,0
41728,note_on,,,,,0,0,1,,,74,96,0
41984,note_off,,,,,512,0,3,,,54,0,2
41984,note_on,,,,,0,0,3,,,55,96,2
41984,note_on,,,,,0,0,1,,,67,96,0
41984,note_off,,,,,256,0,1,,,74,0,0
42368,note_on,,,,,0,0,1,,,77,96,0
42368,note_off,,,,,384,0,1,,,67,0,0
42496,note_on,,,,,0,0,2,,,59,96,1
42496,note_on,,,,,0,0,1,,,76,96,0
42496,note_off,,,,,2560,0,2,,,60,0,1
42496,note_off,,,,,128,0,1,,,77,0,0
42752,note_off,,,,,256,0,1,,,76,0,0
42752,note_on,,,,,0,0,1,,,74,96,0
42880,note_on,,,,,0,0,1,,,72,96,0
42880,note_off,,,,,128,0,1,,,74,0,0
43008,note_off,,,,,512,0,2,,,59,0,1
43008,note_on,,,,,0,0,3,,,48,96,2
43008,note_on,,,,,0,0,1,,,72,96,0
43008,note_off,,,,,128,0,1,,,72,0,0
43008,note_off,,,,,1024,0,3,,,55,0,2
43264,note_on,,,,,256,0,2,,,55,96,1
43520,note_off,,,,,256,0,2,,,55,0,1
43520,note_on,,,,,0,0,2,,,57,96,1
43776,note_off,,,,,256,0,2,,,57,0,1
43776,note_on,,,,,0,0,2,,,59,96,1
44032,note_on,,,,,0,0,2,,,60,96,1
44032,note_off,,,,,1024,0,1,,,72,0,0
44032,note_on,,,,,0,0,1,,,76,96,0
44032,note_off,,,,,1024,0,3,,,48,0,2
44032,note_off,,,,,256,0,2,,,59,0,1
44288,note_off,,,,,256,0,1,,,76,0,0
44288,note_on,,,,,0,0,1,,,79,96,0
44544,note_on,,,,,512,0,3,,,57,96,2
44544,note_off,,,,,256,0,1,,,79,0,0
44544,note_on,,,,,0,0,1,,,77,96,0
44800,note_off,,,,,256,0,1,,,77,0,0
44800,note_on,,,,,0,0,1,,,76,96,0
45056,note_on,,,,,0,0,2,,,59,96,1
45056,note_off,,,,,1024,0,2,,,60,0,1
45056,note_on,,,,,0,0,1,,,74,96,0
45056,note_off,,,,,256,0,1,,,76,0,0
45312,note_on,,,,,0,0,1,,,72,96,0
45312,note_off,,,,,256,0,1,,,74,0,0
45568,note_on,,,,,0,0,1,,,71,96,0
45568,note_off,,,,,1024,0,3,,,57,0,2
45568,note_off,,,,,256,0,1,,,72,0,0
45568,note_on,,,,,0,0,3,,,56,96,2
45824,note_on,,,,,0,0,1,,,72,96,0
45824,note_off,,,,,256,0,1,,,71,0,0
46080,note_off,,,,,1024,0,2,,,59,0,1
46080,note_on,,,,,0,0,3,,,57,96,2
46080,note_off,,,,,256,0,1,,,72,0,0
46080,note_on,,,,,0,0,2,,,57,96,1
46080,note_off,,,,,512,0,3,,,56,0,2
46080,note_on,,,,,0,0,1,,,72,96,0
46592,note_off,,,,,512,0,3,,,57,0,2
46592,note_on,,,,,0,0,3,,,48,96,2
46848,note_on,,,,,0,0,1,,,71,96,0
46848,note_off,,,,,768,0,1,,,72,0,0
47104,note_on,,,,,0,0,1,,,72,96,0
47104,note_off,,,,,256,0,1,,,71,0,0
47104,note_on,,,,,0,0,3,,,50,96,2
47104,note_off,,,,,512,0,3,,,48,0,2
47360,note_on,,,,,0,0,1,,,71,96,0
47360,note_off,,,,,256,0,1,,,72,0,0
47616,note_off,,,,,512,0,3,,,50,0,2
47616,note_on,,,,,0,0,3,,,52,96,2
47616,note_off,,,,,1536,0,2,,,57,0,1
47616,note_off,,,,,256,0,1,,,71,0,0
47616,note_on,,,,,0,0,1,,,69,96,0
47616,note_on,,,,,0,0,2,,,62,96,1
47872,note_on,,,,,0,0,1,,,68,96,0
47872,note_off,,,,,256,0,1,,,69,0,0
48128,note_on,,,,,0,0,1,,,69,96,0
48128,note_off,,,,,512,0,2,,,62,0,1
48128,note_on,,,,,0,0,2,,,60,96,1
48128,note_off,,,,,512,0,3,,,52,0,2
48128,note_off,,,,,256,0,1,,,68,0,0
48128,note_on,,,,,0,0,3,,,54,96,2
48640,note_on,,,,,0,0,1,,,72,96,0
48640,note_on,,,,,0,0,3,,,55,96,2
48640,note_off,,,,,512,0,1,,,69,0,0
48640,note_off,,,,,512,0,3,,,54,0,2
48640,note_off,,,,,512,0,2,,,60,0,1
48640,note_on,,,,,0,0,2,,,59,96,1
48896,note_off,,,,,256,0,1,,,72,0,0
48896,note_on,,,,,0,0,1,,,71,96,0
49152,note_off,,,,,256,0,1,,,71,0,0
49152,note_on,,,,,0,0,3,,,57,96,2
49152,note_off,,,,,512,0,3,,,55,0,2
49152,note_off,,,,,512,0,2,,,59,0,1
49152,note_on,,,,,0,0,2,,,57,96,1
49152,note_on,,,,,0,0,1,,,72,96,0
49664,note_off,,,,,512,0,3,,,57,0,2
49664,note_on,,,,,0,0,1,,,74,96,0
49664,note_off,,,,,512,0,1,,,72,0,0
49664,note_on,,,,,0,0,3,,,50,96,2
49920,note_on,,,,,0,0,1,,,76,96,0
49920,note_off,,,,,256,0,1,,,74,0,0
50176,note_off,,,,,512,0,3,,,50,0,2
50176,note_on,,,,,0,0,1,,,72,96,0
50176,note_off,,,,,256,0,1,,,76,0,0
50176,note_on,,,,,0,0,3,,,52,96,2
50688,note_off,,,,,512,0,1,,,72,0,0
50688,note_off,,,,,1536,0,2,,,57,0,1
50688,note_on,,,,,0,0,2,,,56,96,1
50688,note_on,,,,,0,0,1,,,71,96,0
50944,note_off,,,,,256,0,1,,,71,0,0
50944,note_on,,,,,0,0,1,,,69,96,0
51200,note_on,,,,,0,0,1,,,69,96,0
51200,note_on,,,,,0,0,1,,,69,96,0
51200,note_off,,,,,1024,0,3,,,52,0,2
51200,note_off,,,,,512,0,2,,,56,0,1
51200,note_on,,,,,0,0,3,,,45,96,2
51200,note_off,,,,,256,0,1,,,69,0,0
51456,note_off,,,,,256,0,1,,,69,0,0
51456,note_on,,,,,0,0,1,,,64,96,0
51712,note_on,,,,,256,0,1,,,60,96,0
51968,note_on,,,,,768,0,2,,,52,96,1
52224,note_on,,,,,0,0,2,,,57,96,1
52224,note_off,,,,,256,0,2,,,52,0,1
54272,note_off,,,,,2048,0,2,,,57,0,1
54272,end_of_track,,,,,0,1,1,,,,,
54272,note_off,,,,,0,0,1,,,64,0,0
54272,note_off,,,,,0,0,1,,,60,0,0
54272,note_off,,,,,2560,0,1,,,69,0,0
54272,note_off,,,,,3072,0,3,,,45,0,2
54272,end_of_track,,,,,54272,1,0,,,,,
54272,end_of_track,,,,,0,1,2,,,,,
54272,end_of_track,,,,,0,1,3,,,,,
