,note,step,duration,channel,velocity
0,57.0,2048,2040,2.0,0.0
1,60.0,1024,2040,2.0,0.0
2,57.0,512,2040,2.0,0.0
3,60.0,512,510,1.0,0.0
4,62.0,512,510,1.0,0.0
5,64.0,0,510,1.0,0.0
6,57.0,1024,2040,2.0,0.0
7,65.0,512,510,1.0,0.0
8,67.0,512,510,1.0,0.0
9,69.0,512,510,1.0,0.0
10,65.0,0,510,1.0,0.0
11,58.0,1024,2040,2.0,0.0
12,62.0,1024,1020,1.0,0.0
13,67.0,0,1020,1.0,0.0
14,60.0,1024,1020,1.0,0.0
15,57.0,1024,2040,2.0,0.0
16,65.0,512,2040,1.0,0.0
17,55.0,1024,4110,2.0,0.0
18,64.0,512,510,1.0,0.0
19,62.0,2048,510,1.0,0.0
20,64.0,1024,3060,1.0,0.0
21,53.0,1024,3060,2.0,0.0
22,57.0,1024,1020,1.0,0.0
23,62.0,1024,4110,1.0,0.0
24,55.0,1024,1020,2.0,0.0
25,57.0,1024,1020,2.0,0.0
26,52.0,0,1020,2.0,0.0
27,60.0,0,3060,1.0,0.0
28,57.0,1024,1020,2.0,0.0
29,55.0,1024,1020,2.0,0.0
30,54.0,512,1020,2.0,0.0
31,50.0,0,1020,2.0,0.0
32,58.0,512,510,1.0,0.0
33,57.0,1024,510,1.0,0.0
34,55.0,512,3060,2.0,0.0
35,58.0,512,1020,1.0,0.0
36,60.0,512,510,1.0,0.0
37,58.0,1024,510,1.0,0.0
38,57.0,1024,2040,1.0,0.0
39,53.0,512,510,2.0,0.0
40,52.0,0,510,2.0,0.0
41,62.0,512,3060,1.0,0.0
42,53.0,512,1020,2.0,0.0
43,55.0,512,510,2.0,0.0
44,53.0,1024,510,2.0,0.0
45,52.0,1024,2040,2.0,0.0
46,61.0,512,510,1.0,0.0
47,59.0,0,510,1.0,0.0
48,61.0,512,1020,1.0,0.0
49,57.0,0,2040,2.0,0.0
50,62.0,512,510,1.0,0.0
51,64.0,512,510,1.0,0.0
52,50.0,512,510,2.0,0.0
53,69.0,512,2040,0.0,0.0
54,65.0,0,2040,1.0,0.0
55,53.0,512,510,2.0,0.0
56,52.0,512,510,2.0,0.0
57,50.0,0,510,2.0,0.0
58,48.0,512,510,2.0,0.0
59,72.0,512,2040,0.0,0.0
60,64.0,512,3060,1.0,0.0
61,46.0,512,510,2.0,0.0
62,45.0,512,510,2.0,0.0
63,48.0,0,510,2.0,0.0
64,41.0,512,510,2.0,0.0
65,45.0,0,510,2.0,0.0
66,62.0,0,510,1.0,0.0
67,47.0,512,510,2.0,0.0
68,64.0,0,510,1.0,0.0
69,49.0,0,510,2.0,0.0
70,50.0,512,510,2.0,0.0
71,69.0,512,15,0.0,0.0
72,65.0,0,1020,1.0,0.0
73,52.0,512,510,2.0,0.0
74,62.0,0,2040,1.0,0.0
75,53.0,512,510,2.0,0.0
76,50.0,512,510,2.0,0.0
77,70.0,0,2040,0.0,0.0
78,55.0,512,510,2.0,0.0
79,53.0,512,510,2.0,0.0
80,67.0,0,1020,1.0,0.0
81,52.0,512,510,2.0,0.0
82,55.0,512,510,2.0,0.0
83,69.0,512,2040,0.0,0.0
84,60.0,512,1020,1.0,0.0
85,53.0,512,510,2.0,0.0
86,52.0,0,510,2.0,0.0
87,65.0,512,2040,1.0,0.0
88,50.0,512,510,2.0,0.0
89,53.0,0,510,2.0,0.0
90,67.0,512,4110,0.0,0.0
91,47.0,512,510,2.0,0.0
92,50.0,0,510,2.0,0.0
93,49.0,512,510,2.0,0.0
94,64.0,0,510,1.0,0.0
95,62.0,512,510,1.0,0.0
96,47.0,0,510,2.0,0.0
97,49.0,512,510,2.0,0.0
98,64.0,512,4110,1.0,0.0
99,52.0,512,510,2.0,0.0
100,45.0,512,510,2.0,0.0
101,49.0,0,510,2.0,0.0
102,50.0,512,510,2.0,0.0
103,65.0,512,4110,0.0,0.0
104,45.0,512,510,2.0,0.0
105,47.0,512,510,2.0,0.0
106,49.0,0,510,2.0,0.0
107,50.0,512,510,2.0,0.0
108,52.0,512,510,2.0,0.0
109,53.0,512,510,2.0,0.0
110,50.0,0,510,2.0,0.0
111,57.0,512,2550,2.0,0.0
112,62.0,512,15,1.0,0.0
113,60.0,512,510,1.0,0.0
114,59.0,512,510,1.0,0.0
115,60.0,0,3060,1.0,0.0
116,55.0,512,510,2.0,0.0
117,64.0,0,15,0.0,0.0
118,53.0,512,510,2.0,0.0
119,52.0,512,510,2.0,0.0
120,65.0,512,510,0.0,0.0
121,50.0,0,1020,2.0,0.0
122,64.0,512,510,0.0,0.0
123,55.0,512,1020,2.0,0.0
124,59.0,0,2040,1.0,0.0
125,62.0,512,510,0.0,0.0
126,65.0,0,510,0.0,0.0
127,48.0,0,1020,2.0,0.0
128,64.0,512,510,0.0,0.0
129,62.0,512,510,0.0,0.0
130,60.0,512,510,0.0,0.0
131,57.0,512,1530,1.0,0.0
132,53.0,512,1020,2.0,0.0
133,64.0,0,510,0.0,0.0
134,62.0,0,4110,0.0,0.0
135,47.0,512,1020,2.0,0.0
136,60.0,0,510,1.0,0.0
137,48.0,0,510,2.0,0.0
138,59.0,512,510,1.0,0.0
139,57.0,0,510,1.0,0.0
140,50.0,512,510,2.0,0.0
141,56.0,0,510,1.0,0.0
142,52.0,512,510,2.0,0.0
143,57.0,512,510,1.0,0.0
144,54.0,0,510,2.0,0.0
145,59.0,0,2040,1.0,0.0
146,56.0,512,510,2.0,0.0
147,52.0,512,510,2.0,0.0
148,60.0,0,2040,0.0,0.0
149,57.0,512,510,2.0,0.0
150,55.0,512,510,2.0,0.0
151,57.0,512,2040,1.0,0.0
152,53.0,512,510,2.0,0.0
153,52.0,512,510,2.0,0.0
154,65.0,0,4110,0.0,0.0
155,50.0,512,510,2.0,0.0
156,48.0,0,510,2.0,0.0
157,46.0,512,510,2.0,0.0
158,62.0,512,1020,1.0,0.0
159,50.0,0,510,2.0,0.0
160,43.0,512,510,2.0,0.0
161,58.0,512,1020,1.0,0.0
162,53.0,0,510,2.0,0.0
163,52.0,512,510,2.0,0.0
164,55.0,0,2040,1.0,0.0
165,50.0,512,510,2.0,0.0
166,64.0,0,4110,0.0,0.0
167,48.0,512,510,2.0,0.0
168,46.0,512,510,2.0,0.0
169,60.0,512,1020,1.0,0.0
170,45.0,512,510,2.0,0.0
171,48.0,0,510,2.0,0.0
172,57.0,0,1020,1.0,0.0
173,41.0,512,510,2.0,0.0
174,52.0,512,510,2.0,0.0
175,50.0,512,510,2.0,0.0
176,53.0,512,2040,1.0,0.0
177,48.0,512,510,2.0,0.0
178,46.0,512,510,2.0,0.0
179,62.0,512,4110,0.0,0.0
180,45.0,0,510,2.0,0.0
181,43.0,512,510,2.0,0.0
182,58.0,0,1020,1.0,0.0
183,46.0,512,510,2.0,0.0
184,55.0,512,1020,1.0,0.0
185,40.0,512,510,2.0,0.0
186,50.0,0,510,2.0,0.0
187,52.0,0,2040,1.0,0.0
188,49.0,512,510,2.0,0.0
189,47.0,0,510,2.0,0.0
190,61.0,512,2040,0.0,0.0
191,45.0,512,510,2.0,0.0
192,43.0,512,510,2.0,0.0
193,41.0,512,510,2.0,0.0
194,57.0,0,1020,1.0,0.0
195,45.0,0,510,2.0,0.0
196,53.0,512,510,1.0,0.0
197,38.0,512,1020,2.0,0.0
198,62.0,0,1020,0.0,0.0
199,52.0,0,510,1.0,0.0
200,53.0,512,510,1.0,0.0
201,50.0,0,2040,2.0,0.0
202,55.0,512,510,1.0,0.0
203,57.0,512,510,1.0,0.0
204,59.0,512,510,1.0,0.0
205,60.0,512,510,1.0,0.0
206,48.0,512,1530,2.0,0.0
207,57.0,512,510,1.0,0.0
208,62.0,512,4620,1.0,0.0
209,47.0,512,510,2.0,0.0
210,48.0,512,510,2.0,0.0
211,50.0,512,510,2.0,0.0
212,52.0,512,510,2.0,0.0
213,54.0,512,510,2.0,0.0
214,56.0,512,510,2.0,0.0
215,52.0,512,510,2.0,0.0
216,57.0,512,4620,2.0,0.0
217,60.0,512,510,1.0,0.0
218,62.0,512,510,1.0,0.0
219,64.0,512,510,1.0,0.0
220,65.0,512,510,1.0,0.0
221,67.0,512,510,1.0,0.0
222,69.0,512,510,1.0,0.0
223,65.0,512,510,1.0,0.0
224,70.0,512,4620,1.0,0.0
225,55.0,512,510,2.0,0.0
226,57.0,512,510,2.0,0.0
227,58.0,512,510,2.0,0.0
228,60.0,512,510,2.0,0.0
229,62.0,512,510,2.0,0.0
230,64.0,512,510,2.0,0.0
231,60.0,512,510,2.0,0.0
232,65.0,512,3060,2.0,0.0
233,67.0,512,510,1.0,0.0
234,69.0,512,510,1.0,0.0
235,70.0,512,510,1.0,0.0
236,72.0,512,510,1.0,0.0
237,74.0,0,510,1.0,0.0
238,64.0,0,1020,2.0,0.0
239,76.0,512,510,1.0,0.0
240,72.0,512,510,1.0,0.0
241,77.0,512,510,1.0,0.0
242,62.0,512,4620,2.0,0.0
243,76.0,512,510,1.0,0.0
244,74.0,512,510,1.0,0.0
245,72.0,512,510,1.0,0.0
246,71.0,512,510,1.0,0.0
247,69.0,512,510,1.0,0.0
248,68.0,512,510,1.0,0.0
249,71.0,512,510,1.0,0.0
250,64.0,512,1020,1.0,0.0
251,56.0,0,510,2.0,0.0
252,66.0,512,510,1.0,0.0
253,57.0,0,510,2.0,0.0
254,59.0,512,510,2.0,0.0
255,68.0,0,510,1.0,0.0
256,60.0,512,510,2.0,0.0
257,69.0,512,3060,1.0,0.0
258,62.0,512,510,2.0,0.0
259,64.0,512,510,2.0,0.0
260,60.0,512,510,2.0,0.0
261,65.0,512,510,2.0,0.0
262,64.0,0,510,2.0,0.0
263,71.0,0,510,1.0,0.0
264,62.0,512,510,2.0,0.0
265,69.0,512,510,1.0,0.0
266,60.0,0,510,2.0,0.0
267,59.0,512,510,2.0,0.0
268,68.0,0,1020,1.0,0.0
269,60.0,512,510,2.0,0.0
270,62.0,512,510,2.0,0.0
271,71.0,512,1020,1.0,0.0
272,59.0,0,510,2.0,0.0
273,64.0,512,1020,1.0,0.0
274,76.0,0,2040,0.0,0.0
275,60.0,512,510,2.0,0.0
276,59.0,0,510,2.0,0.0
277,60.0,512,510,2.0,0.0
278,69.0,512,1020,1.0,0.0
279,62.0,0,510,2.0,0.0
280,64.0,512,510,2.0,0.0
281,67.0,0,1020,1.0,0.0
282,79.0,0,2040,0.0,0.0
283,65.0,512,510,2.0,0.0
284,71.0,0,1020,1.0,0.0
285,67.0,512,510,2.0,0.0
286,64.0,1024,510,2.0,0.0
287,72.0,0,3060,1.0,0.0
288,69.0,512,3060,2.0,0.0
289,56.0,512,510,3.0,0.0
290,57.0,512,510,3.0,0.0
291,59.0,0,510,3.0,0.0
292,60.0,512,510,3.0,0.0
293,76.0,512,15,0.0,0.0
294,62.0,0,510,3.0,0.0
295,71.0,512,1020,1.0,0.0
296,68.0,0,1020,2.0,0.0
297,64.0,512,510,3.0,0.0
298,60.0,0,510,3.0,0.0
299,72.0,512,510,1.0,0.0
300,57.0,0,1020,3.0,0.0
301,69.0,0,1020,2.0,0.0
302,77.0,0,2040,0.0,0.0
303,76.0,512,510,1.0,0.0
304,71.0,0,2040,2.0,0.0
305,74.0,512,510,1.0,0.0
306,62.0,0,1020,3.0,0.0
307,72.0,512,510,1.0,0.0
308,71.0,512,510,1.0,0.0
309,76.0,512,2040,0.0,0.0
310,56.0,512,1020,3.0,0.0
311,74.0,0,510,1.0,0.0
312,72.0,0,510,1.0,0.0
313,69.0,512,510,2.0,0.0
314,60.0,512,2040,3.0,0.0
315,67.0,0,510,2.0,0.0
316,71.0,0,510,1.0,0.0
317,74.0,512,4110,0.0,0.0
318,69.0,0,1020,1.0,0.0
319,65.0,512,510,2.0,0.0
320,64.0,0,510,2.0,0.0
321,68.0,512,510,1.0,0.0
322,62.0,0,510,2.0,0.0
323,59.0,0,510,3.0,0.0
324,57.0,512,510,3.0,0.0
325,60.0,0,510,2.0,0.0
326,66.0,0,510,1.0,0.0
327,68.0,512,510,1.0,0.0
328,59.0,0,1020,3.0,0.0
329,62.0,0,1020,2.0,0.0
330,69.0,1024,510,1.0,0.0
331,52.0,0,1020,3.0,0.0
332,56.0,0,1020,2.0,0.0
333,71.0,512,2040,1.0,0.0
334,57.0,512,4620,3.0,0.0
335,72.0,0,6150,0.0,0.0
336,57.0,512,510,2.0,0.0
337,59.0,0,510,2.0,0.0
338,60.0,512,510,2.0,0.0
339,69.0,0,510,1.0,0.0
340,68.0,0,510,1.0,0.0
341,62.0,512,510,2.0,0.0
342,69.0,0,4110,1.0,0.0
343,64.0,512,510,2.0,0.0
344,65.0,512,510,2.0,0.0
345,67.0,512,510,2.0,0.0
346,64.0,512,510,2.0,0.0
347,65.0,512,4110,2.0,0.0
348,50.0,512,510,3.0,0.0
349,52.0,512,510,3.0,0.0
350,53.0,512,510,3.0,0.0
351,67.0,512,4110,1.0,0.0
352,70.0,0,4110,0.0,0.0
353,55.0,512,510,3.0,0.0
354,57.0,512,510,3.0,0.0
355,58.0,512,510,3.0,0.0
356,55.0,0,510,3.0,0.0
357,60.0,512,510,3.0,0.0
358,64.0,0,4110,2.0,0.0
359,48.0,512,510,3.0,0.0
360,50.0,512,510,3.0,0.0
361,52.0,0,510,3.0,0.0
362,53.0,512,510,3.0,0.0
363,69.0,512,2040,0.0,0.0
364,65.0,512,2550,1.0,0.0
365,55.0,512,510,3.0,0.0
366,57.0,512,510,3.0,0.0
367,53.0,0,510,3.0,0.0
368,58.0,0,4110,3.0,0.0
369,62.0,512,4620,2.0,0.0
370,74.0,0,2040,0.0,0.0
371,72.0,512,510,1.0,0.0
372,70.0,512,510,1.0,0.0
373,69.0,512,510,1.0,0.0
374,67.0,512,510,1.0,0.0
375,76.0,512,2040,0.0,0.0
376,65.0,512,510,1.0,0.0
377,64.0,512,510,1.0,0.0
378,67.0,0,510,1.0,0.0
379,57.0,0,4110,3.0,0.0
380,69.0,0,2040,1.0,0.0
381,77.0,512,4110,0.0,0.0
382,61.0,512,510,2.0,0.0
383,62.0,512,510,2.0,0.0
384,64.0,512,510,2.0,0.0
385,74.0,0,4110,1.0,0.0
386,65.0,512,510,2.0,0.0
387,67.0,512,510,2.0,0.0
388,69.0,512,510,2.0,0.0
389,65.0,0,510,2.0,0.0
390,55.0,512,2040,3.0,0.0
391,70.0,512,510,2.0,0.0
392,76.0,0,4110,0.0,0.0
393,69.0,512,510,2.0,0.0
394,67.0,512,510,2.0,0.0
395,65.0,0,510,2.0,0.0
396,64.0,512,510,2.0,0.0
397,72.0,512,4110,1.0,0.0
398,57.0,512,2040,3.0,0.0
399,62.0,512,510,2.0,0.0
400,60.0,512,510,2.0,0.0
401,64.0,0,510,2.0,0.0
402,74.0,512,510,0.0,0.0
403,54.0,0,2040,3.0,0.0
404,57.0,0,2040,2.0,0.0
405,84.0,512,510,0.0,0.0
406,82.0,512,510,0.0,0.0
407,81.0,0,510,0.0,0.0
408,58.0,512,1020,2.0,0.0
409,79.0,512,510,0.0,0.0
410,70.0,0,2040,1.0,0.0
411,55.0,512,2550,3.0,0.0
412,77.0,0,510,0.0,0.0
413,76.0,512,510,0.0,0.0
414,67.0,0,1020,2.0,0.0
415,79.0,512,510,0.0,0.0
416,73.0,0,2040,0.0,0.0
417,64.0,512,2040,2.0,0.0
418,58.0,512,510,3.0,0.0
419,57.0,512,510,3.0,0.0
420,55.0,0,510,3.0,0.0
421,69.0,0,15,1.0,0.0
422,74.0,0,4110,0.0,0.0
423,65.0,0,2040,2.0,0.0
424,53.0,512,510,3.0,0.0
425,52.0,512,510,3.0,0.0
426,50.0,512,510,3.0,0.0
427,53.0,1024,510,3.0,0.0
428,64.0,0,4110,2.0,0.0
429,45.0,1024,4110,4.0,0.0
430,69.0,0,4110,1.0,0.0
431,47.0,512,510,3.0,0.0
432,49.0,512,510,3.0,0.0
433,50.0,512,510,3.0,0.0
434,52.0,512,510,3.0,0.0
435,73.0,0,2040,0.0,0.0
436,53.0,512,510,3.0,0.0
437,55.0,512,510,3.0,0.0
438,52.0,0,510,3.0,0.0
439,53.0,1024,1020,3.0,0.0
440,69.0,1024,2040,1.0,0.0
441,50.0,0,2040,4.0,0.0
442,74.0,0,2040,0.0,0.0
443,62.0,1024,3060,2.0,0.0
444,58.0,0,1020,3.0,0.0
445,52.0,0,1020,3.0,0.0
446,57.0,512,1020,3.0,0.0
447,60.0,512,1530,2.0,0.0
448,50.0,0,3060,3.0,0.0
449,63.0,512,510,2.0,0.0
450,62.0,512,510,2.0,0.0
451,60.0,512,510,2.0,0.0
452,58.0,512,510,2.0,0.0
453,57.0,512,510,2.0,0.0
454,55.0,512,510,2.0,0.0
455,52.0,0,1020,3.0,0.0
456,58.0,1024,510,2.0,0.0
457,53.0,512,4620,3.0,0.0
458,57.0,512,1020,2.0,0.0
459,70.0,0,510,1.0,0.0
460,69.0,512,510,1.0,0.0
461,61.0,512,1020,2.0,0.0
462,67.0,0,510,1.0,0.0
463,62.0,0,1020,2.0,0.0
464,65.0,512,510,1.0,0.0
465,64.0,512,510,1.0,0.0
466,57.0,0,1020,2.0,0.0
467,62.0,512,510,1.0,0.0
468,65.0,512,510,1.0,0.0
469,59.0,512,1020,1.0,0.0
470,55.0,0,2040,2.0,0.0
471,57.0,0,510,3.0,0.0
472,67.0,512,1020,1.0,0.0
473,55.0,512,510,3.0,0.0
474,53.0,0,510,3.0,0.0
475,52.0,512,510,3.0,0.0
476,57.0,512,2550,2.0,0.0
477,61.0,0,1020,1.0,0.0
478,50.0,512,510,3.0,0.0
479,67.0,0,1020,1.0,0.0
480,49.0,512,510,3.0,0.0
481,52.0,512,510,3.0,0.0
482,66.0,0,510,1.0,0.0
483,50.0,512,3060,3.0,0.0
484,54.0,0,510,2.0,0.0
485,62.0,512,510,1.0,0.0
486,55.0,0,510,2.0,0.0
487,64.0,512,510,1.0,0.0
488,66.0,0,510,1.0,0.0
489,57.0,512,510,2.0,0.0
490,67.0,0,4110,1.0,0.0
491,58.0,512,510,2.0,0.0
492,60.0,0,510,2.0,0.0
493,62.0,512,510,2.0,0.0
494,46.0,512,1020,3.0,0.0
495,58.0,0,510,2.0,0.0
496,48.0,512,1020,3.0,0.0
497,63.0,512,510,2.0,0.0
498,62.0,0,510,2.0,0.0
499,60.0,512,510,2.0,0.0
500,45.0,512,1020,3.0,0.0
501,58.0,0,510,2.0,0.0
502,50.0,0,2040,3.0,0.0
503,66.0,512,2040,1.0,0.0
504,57.0,512,510,2.0,0.0
505,58.0,512,510,2.0,0.0
506,60.0,512,510,2.0,0.0
507,57.0,0,510,2.0,0.0
508,67.0,512,3060,1.0,0.0
509,43.0,512,510,3.0,0.0
510,58.0,512,2040,2.0,0.0
511,45.0,512,510,3.0,0.0
512,46.0,512,510,3.0,0.0
513,48.0,0,510,3.0,0.0
514,50.0,512,510,3.0,0.0
515,57.0,0,2040,2.0,0.0
516,52.0,0,510,3.0,0.0
517,53.0,512,510,3.0,0.0
518,65.0,0,2040,1.0,0.0
519,50.0,512,510,3.0,0.0
520,55.0,512,510,3.0,0.0
521,59.0,0,1020,2.0,0.0
522,50.0,512,510,3.0,0.0
523,64.0,0,1020,1.0,0.0
524,52.0,512,510,3.0,0.0
525,60.0,0,1020,2.0,0.0
526,53.0,512,510,3.0,0.0
527,59.0,0,1020,2.0,0.0
528,62.0,512,1020,1.0,0.0
529,55.0,512,510,3.0,0.0
530,57.0,0,510,3.0,0.0
531,67.0,512,1020,1.0,0.0
532,62.0,0,2040,2.0,0.0
533,59.0,512,510,3.0,0.0
534,55.0,0,510,3.0,0.0
535,60.0,512,510,3.0,0.0
536,64.0,0,2040,1.0,0.0
537,59.0,512,510,3.0,0.0
538,57.0,0,510,3.0,0.0
539,60.0,512,510,2.0,0.0
540,55.0,0,510,3.0,0.0
541,59.0,512,510,2.0,0.0
542,53.0,512,510,3.0,0.0
543,60.0,512,1020,2.0,0.0
544,69.0,512,4110,1.0,0.0
545,52.0,0,510,3.0,0.0
546,65.0,512,1020,2.0,0.0
547,50.0,512,510,3.0,0.0
548,53.0,0,510,3.0,0.0
549,47.0,512,1020,3.0,0.0
550,62.0,512,510,2.0,0.0
551,64.0,0,510,2.0,0.0
552,62.0,0,510,2.0,0.0
553,48.0,512,510,3.0,0.0
554,50.0,0,510,3.0,0.0
555,60.0,0,510,2.0,0.0
556,59.0,512,510,2.0,0.0
557,68.0,0,1020,1.0,0.0
558,52.0,0,1020,3.0,0.0
559,57.0,512,510,2.0,0.0
560,50.0,0,1020,3.0,0.0
561,71.0,512,1020,1.0,0.0
562,56.0,512,510,2.0,0.0
563,59.0,0,510,2.0,0.0
564,70.0,512,510,1.0,0.0
565,48.0,0,1020,3.0,0.0
566,52.0,512,1020,2.0,0.0
567,64.0,0,510,1.0,0.0
568,66.0,512,510,1.0,0.0
569,50.0,0,1020,2.0,0.0
570,47.0,0,1020,3.0,0.0
571,68.0,512,510,1.0,0.0
572,52.0,0,1020,2.0,0.0
573,48.0,512,1020,3.0,0.0
574,69.0,512,510,1.0,0.0
575,71.0,0,510,1.0,0.0
576,57.0,512,2040,2.0,0.0
577,53.0,512,1530,3.0,0.0
578,72.0,512,510,1.0,0.0
579,69.0,512,510,1.0,0.0
580,74.0,0,4110,1.0,0.0
581,47.0,0,510,3.0,0.0
582,48.0,512,510,3.0,0.0
583,69.0,512,1020,2.0,0.0
584,50.0,0,510,3.0,0.0
585,68.0,512,1020,2.0,0.0
586,52.0,512,510,3.0,0.0
587,54.0,0,510,3.0,0.0
588,71.0,512,1020,2.0,0.0
589,56.0,512,510,3.0,0.0
590,52.0,0,510,3.0,0.0
591,72.0,512,2040,0.0,0.0
592,57.0,512,510,3.0,0.0
593,64.0,0,2040,1.0,0.0
594,60.0,512,510,3.0,0.0
595,59.0,512,510,3.0,0.0
596,57.0,0,510,3.0,0.0
597,67.0,0,2040,1.0,0.0
598,71.0,512,2040,0.0,0.0
599,55.0,512,510,3.0,0.0
600,53.0,512,510,3.0,0.0
601,52.0,512,510,3.0,0.0
602,55.0,0,510,3.0,0.0
603,48.0,512,510,3.0,0.0
604,64.0,0,2040,1.0,0.0
605,72.0,0,2040,0.0,0.0
606,57.0,512,2040,2.0,0.0
607,53.0,512,510,3.0,0.0
608,52.0,512,510,3.0,0.0
609,50.0,0,510,3.0,0.0
610,60.0,0,2040,2.0,0.0
611,67.0,0,2040,0.0,0.0
612,48.0,512,510,3.0,0.0
613,64.0,0,2040,1.0,0.0
614,46.0,512,510,3.0,0.0
615,45.0,512,510,3.0,0.0
616,48.0,512,510,3.0,0.0
617,65.0,512,2040,1.0,0.0
618,69.0,512,3060,0.0,0.0
619,41.0,512,510,3.0,0.0
620,43.0,512,510,3.0,0.0
621,45.0,512,510,3.0,0.0
622,46.0,0,510,3.0,0.0
623,48.0,512,510,3.0,0.0
624,57.0,0,15,2.0,0.0
625,64.0,512,2040,1.0,0.0
626,50.0,0,510,3.0,0.0
627,67.0,0,1020,0.0,0.0
628,52.0,512,510,3.0,0.0
629,48.0,0,510,3.0,0.0
630,65.0,512,510,0.0,0.0
631,58.0,0,2040,2.0,0.0
632,62.0,0,4110,1.0,0.0
633,50.0,512,1020,3.0,0.0
634,70.0,0,510,0.0,0.0
635,69.0,512,510,0.0,0.0
636,48.0,0,1020,3.0,0.0
637,67.0,512,510,0.0,0.0
638,57.0,512,2040,2.0,0.0
639,50.0,0,1020,3.0,0.0
640,65.0,512,510,0.0,0.0
641,64.0,512,510,0.0,0.0
642,62.0,512,510,0.0,0.0
643,46.0,0,2040,3.0,0.0
644,65.0,0,510,0.0,0.0
645,64.0,512,510,0.0,0.0
646,60.0,512,5130,1.0,0.0
647,55.0,0,4110,2.0,0.0
648,69.0,512,510,0.0,0.0
649,48.0,512,510,3.0,0.0
650,67.0,0,510,0.0,0.0
651,65.0,512,510,0.0,0.0
652,50.0,0,510,3.0,0.0
653,48.0,0,1020,3.0,0.0
654,64.0,512,510,0.0,0.0
655,65.0,512,510,0.0,0.0
656,67.0,512,510,0.0,0.0
657,46.0,512,1020,3.0,0.0
658,64.0,0,510,0.0,0.0
659,45.0,0,1020,3.0,0.0
660,65.0,512,510,0.0,0.0
661,53.0,512,5130,2.0,0.0
662,67.0,0,510,0.0,0.0
663,43.0,0,1020,3.0,0.0
664,69.0,512,510,0.0,0.0
665,70.0,512,510,0.0,0.0
666,45.0,0,1020,3.0,0.0
667,72.0,512,510,0.0,0.0
668,74.0,512,510,0.0,0.0
669,41.0,0,1020,3.0,0.0
670,75.0,512,510,0.0,0.0
671,72.0,512,510,0.0,0.0
672,74.0,512,2040,0.0,0.0
673,46.0,512,510,3.0,0.0
674,48.0,0,510,3.0,0.0
675,70.0,0,2040,1.0,0.0
676,50.0,512,510,3.0,0.0
677,52.0,0,510,3.0,0.0
678,72.0,0,2040,0.0,0.0
679,53.0,512,510,3.0,0.0
680,55.0,512,510,3.0,0.0
681,69.0,512,1530,1.0,0.0
682,57.0,512,510,3.0,0.0
683,53.0,512,510,3.0,0.0
684,70.0,512,4620,0.0,0.0
685,55.0,0,2040,3.0,0.0
686,67.0,512,510,1.0,0.0
687,65.0,512,510,1.0,0.0
688,64.0,512,510,1.0,0.0
689,53.0,512,2040,3.0,0.0
690,62.0,512,510,1.0,0.0
691,60.0,512,510,1.0,0.0
692,58.0,512,510,1.0,0.0
693,62.0,0,510,1.0,0.0
694,55.0,512,2040,1.0,0.0
695,52.0,512,1020,3.0,0.0
696,74.0,0,510,0.0,0.0
697,48.0,0,1020,3.0,0.0
698,72.0,512,510,0.0,0.0
699,70.0,0,510,0.0,0.0
700,69.0,512,510,0.0,0.0
701,53.0,512,1020,3.0,0.0
702,67.0,0,510,0.0,0.0
703,45.0,0,1020,3.0,0.0
704,65.0,512,510,0.0,0.0
705,60.0,0,2040,1.0,0.0
706,69.0,512,510,0.0,0.0
707,46.0,512,1020,3.0,0.0
708,62.0,512,510,0.0,0.0
709,64.0,0,510,0.0,0.0
710,58.0,512,510,1.0,0.0
711,65.0,512,2040,0.0,0.0
712,43.0,0,1020,3.0,0.0
713,57.0,512,510,1.0,0.0
714,48.0,1024,2040,3.0,0.0
715,55.0,512,510,1.0,0.0
716,57.0,0,510,1.0,0.0
717,64.0,0,1020,0.0,0.0
718,58.0,512,510,1.0,0.0
719,55.0,0,510,1.0,0.0
720,65.0,0,3060,0.0,0.0
721,41.0,1024,1020,3.0,0.0
722,57.0,0,1020,1.0,0.0
723,62.0,1024,1020,1.0,0.0
724,55.0,1024,1020,1.0,0.0
725,60.0,512,1020,1.0,0.0
726,64.0,512,1530,0.0,0.0
727,53.0,512,2040,1.0,0.0
728,69.0,512,510,0.0,0.0
729,71.0,512,510,0.0,0.0
730,73.0,0,510,0.0,0.0
731,58.0,512,2550,3.0,0.0
732,74.0,512,510,0.0,0.0
733,76.0,512,510,0.0,0.0
734,77.0,512,510,0.0,0.0
735,74.0,512,510,0.0,0.0
736,79.0,0,6150,0.0,0.0
737,52.0,512,510,3.0,0.0
738,53.0,512,510,3.0,0.0
739,55.0,512,510,3.0,0.0
740,57.0,512,510,3.0,0.0
741,59.0,512,510,3.0,0.0
742,61.0,512,510,3.0,0.0
743,57.0,1024,510,3.0,0.0
744,62.0,0,2550,3.0,0.0
745,64.0,512,510,1.0,0.0
746,65.0,512,510,1.0,0.0
747,67.0,512,510,1.0,0.0
748,77.0,512,4110,0.0,0.0
749,69.0,512,510,1.0,0.0
750,50.0,512,510,3.0,0.0
751,70.0,0,510,1.0,0.0
752,72.0,512,510,1.0,0.0
753,52.0,0,510,3.0,0.0
754,69.0,0,510,1.0,0.0
755,53.0,512,510,3.0,0.0
756,70.0,0,4110,1.0,0.0
757,55.0,512,510,3.0,0.0
758,57.0,512,510,3.0,0.0
759,58.0,512,510,3.0,0.0
760,55.0,0,510,3.0,0.0
761,60.0,512,510,3.0,0.0
762,76.0,0,4110,0.0,0.0
763,48.0,512,510,3.0,0.0
764,50.0,512,510,3.0,0.0
765,52.0,512,510,3.0,0.0
766,69.0,512,4110,1.0,0.0
767,53.0,512,510,3.0,0.0
768,55.0,512,510,3.0,0.0
769,57.0,512,510,3.0,0.0
770,53.0,512,510,3.0,0.0
771,74.0,0,4110,0.0,0.0
772,58.0,512,510,3.0,0.0
773,57.0,512,510,3.0,0.0
774,55.0,512,510,3.0,0.0
775,53.0,0,510,3.0,0.0
776,52.0,512,510,3.0,0.0
777,67.0,0,4110,1.0,0.0
778,50.0,512,510,3.0,0.0
779,49.0,512,510,3.0,0.0
780,52.0,512,510,3.0,0.0
781,73.0,512,2040,0.0,0.0
782,45.0,512,510,3.0,0.0
783,55.0,512,510,3.0,0.0
784,53.0,512,510,3.0,0.0
785,52.0,0,510,3.0,0.0
786,74.0,512,1020,0.0,0.0
787,50.0,512,510,3.0,0.0
788,65.0,0,1020,1.0,0.0
789,48.0,0,510,3.0,0.0
790,46.0,512,510,3.0,0.0
791,66.0,512,1020,1.0,0.0
792,72.0,0,1020,0.0,0.0
793,50.0,0,510,3.0,0.0
794,43.0,0,1020,3.0,0.0
795,70.0,512,2040,0.0,0.0
796,67.0,512,510,1.0,0.0
797,65.0,512,510,1.0,0.0
798,55.0,0,1530,3.0,0.0
799,64.0,512,510,1.0,0.0
800,62.0,0,510,1.0,0.0
801,61.0,512,510,1.0,0.0
802,69.0,0,2040,0.0,0.0
803,58.0,512,510,3.0,0.0
804,62.0,0,510,1.0,0.0
805,64.0,0,510,1.0,0.0
806,57.0,512,510,3.0,0.0
807,55.0,512,510,3.0,0.0
808,61.0,0,510,1.0,0.0
809,74.0,0,4110,0.0,0.0
810,57.0,0,1020,1.0,0.0
811,53.0,512,510,3.0,0.0
812,52.0,512,510,3.0,0.0
813,65.0,0,1020,1.0,0.0
814,50.0,512,510,3.0,0.0
815,53.0,512,510,3.0,0.0
816,67.0,512,2550,2.0,0.0
817,52.0,512,510,3.0,0.0
818,50.0,512,510,3.0,0.0
819,49.0,512,510,3.0,0.0
820,47.0,512,510,3.0,0.0
821,73.0,512,2040,0.0,0.0
822,45.0,0,510,3.0,0.0
823,70.0,0,510,2.0,0.0
824,43.0,512,510,3.0,0.0
825,41.0,0,510,3.0,0.0
826,69.0,512,510,2.0,0.0
827,45.0,0,510,3.0,0.0
828,67.0,0,510,2.0,0.0
829,65.0,512,510,2.0,0.0
830,38.0,0,1020,3.0,0.0
831,69.0,512,2040,1.0,0.0
832,74.0,0,2040,0.0,0.0
833,65.0,512,510,2.0,0.0
834,64.0,512,510,2.0,0.0
835,62.0,0,510,2.0,0.0
836,60.0,512,510,2.0,0.0
837,76.0,0,2040,0.0,0.0
838,72.0,512,2040,1.0,0.0
839,58.0,512,510,2.0,0.0
840,57.0,512,510,2.0,0.0
841,60.0,0,510,2.0,0.0
842,53.0,512,510,2.0,0.0
843,50.0,512,2040,3.0,0.0
844,77.0,512,1020,0.0,0.0
845,52.0,0,510,2.0,0.0
846,74.0,0,1020,0.0,0.0
847,53.0,512,510,2.0,0.0
848,55.0,0,510,2.0,0.0
849,53.0,0,2040,3.0,0.0
850,69.0,0,15,1.0,0.0
851,72.0,512,1020,0.0,0.0
852,57.0,512,510,2.0,0.0
853,58.0,0,510,2.0,0.0
854,60.0,512,510,2.0,0.0
855,81.0,0,2040,0.0,0.0
856,57.0,512,510,2.0,0.0
857,70.0,0,2040,1.0,0.0
858,62.0,512,510,2.0,0.0
859,60.0,512,510,2.0,0.0
860,79.0,0,2040,0.0,0.0
861,58.0,512,510,2.0,0.0
862,62.0,0,510,2.0,0.0
863,69.0,0,2040,1.0,0.0
864,60.0,512,510,2.0,0.0
865,50.0,512,15,3.0,0.0
866,58.0,512,510,2.0,0.0
867,78.0,0,1020,0.0,0.0
868,57.0,512,510,2.0,0.0
869,60.0,0,510,2.0,0.0
870,67.0,0,2040,1.0,0.0
871,79.0,512,510,0.0,0.0
872,51.0,0,2040,3.0,0.0
873,58.0,512,4620,2.0,0.0
874,69.0,512,510,0.0,0.0
875,70.0,512,510,0.0,0.0
876,72.0,512,510,0.0,0.0
877,65.0,0,2040,1.0,0.0
878,74.0,512,510,0.0,0.0
879,50.0,512,2040,3.0,0.0
880,75.0,512,510,0.0,0.0
881,77.0,512,510,0.0,0.0
882,74.0,0,510,0.0,0.0
883,75.0,512,2040,0.0,0.0
884,67.0,0,2040,1.0,0.0
885,48.0,0,4110,3.0,0.0
886,57.0,512,510,2.0,0.0
887,55.0,512,510,2.0,0.0
888,54.0,0,510,2.0,0.0
889,69.0,512,2040,1.0,0.0
890,52.0,512,510,2.0,0.0
891,50.0,512,510,2.0,0.0
892,54.0,512,510,2.0,0.0
893,46.0,0,1020,3.0,0.0
894,70.0,0,1020,1.0,0.0
895,55.0,512,8190,2.0,0.0
896,74.0,512,15,0.0,0.0
897,45.0,512,1020,3.0,0.0
898,76.0,512,510,0.0,0.0
899,78.0,0,510,0.0,0.0
900,79.0,512,510,0.0,0.0
901,46.0,0,1020,3.0,0.0
902,81.0,512,510,0.0,0.0
903,43.0,0,1020,3.0,0.0
904,82.0,512,510,0.0,0.0
905,79.0,1024,510,0.0,0.0
906,72.0,512,4620,0.0,0.0
907,45.0,0,1020,3.0,0.0
908,65.0,512,510,1.0,0.0
909,63.0,512,510,1.0,0.0
910,46.0,512,1020,3.0,0.0
911,62.0,0,510,1.0,0.0
912,63.0,512,510,1.0,0.0
913,48.0,512,1020,3.0,0.0
914,62.0,0,510,1.0,0.0
915,60.0,512,510,1.0,0.0
916,45.0,0,1020,3.0,0.0
917,63.0,0,510,1.0,0.0
918,54.0,512,4110,2.0,0.0
919,57.0,512,1020,1.0,0.0
920,50.0,0,1020,3.0,0.0
921,70.0,0,510,0.0,0.0
922,69.0,512,510,0.0,0.0
923,48.0,512,1020,3.0,0.0
924,70.0,0,510,0.0,0.0
925,72.0,512,510,0.0,0.0
926,46.0,512,1020,3.0,0.0
927,75.0,0,510,0.0,0.0
928,45.0,0,1020,3.0,0.0
929,74.0,512,510,0.0,0.0
930,72.0,0,510,0.0,0.0
931,43.0,512,510,3.0,0.0
932,55.0,0,1020,2.0,0.0
933,70.0,0,1020,0.0,0.0
934,38.0,512,510,3.0,0.0
935,65.0,0,1020,2.0,0.0
936,40.0,512,510,3.0,0.0
937,69.0,512,1020,0.0,0.0
938,41.0,0,510,3.0,0.0
939,64.0,512,1020,2.0,0.0
940,43.0,512,510,3.0,0.0
941,67.0,0,3570,0.0,0.0
942,45.0,0,510,3.0,0.0
943,62.0,512,1020,2.0,0.0
944,46.0,512,510,3.0,0.0
945,43.0,0,510,3.0,0.0
946,49.0,512,510,3.0,0.0
947,64.0,0,3060,2.0,0.0
948,45.0,512,510,3.0,0.0
949,47.0,512,510,3.0,0.0
950,69.0,0,510,0.0,0.0
951,49.0,512,510,3.0,0.0
952,65.0,512,1530,0.0,0.0
953,50.0,512,510,3.0,0.0
954,52.0,512,510,3.0,0.0
955,62.0,512,2040,2.0,0.0
956,53.0,0,510,3.0,0.0
957,67.0,0,510,0.0,0.0
958,50.0,512,510,3.0,0.0
959,64.0,0,3060,0.0,0.0
960,56.0,512,510,3.0,0.0
961,52.0,0,510,3.0,0.0
962,54.0,512,510,3.0,0.0
963,60.0,0,510,2.0,0.0
964,59.0,512,510,2.0,0.0
965,56.0,0,510,3.0,0.0
966,57.0,512,510,3.0,0.0
967,60.0,512,3060,2.0,0.0
968,59.0,512,510,3.0,0.0
969,69.0,512,1020,0.0,0.0
970,60.0,512,510,3.0,0.0
971,57.0,0,510,3.0,0.0
972,54.0,512,510,3.0,0.0
973,62.0,512,2550,0.0,0.0
974,50.0,0,510,3.0,0.0
975,52.0,512,510,3.0,0.0
976,58.0,0,510,2.0,0.0
977,57.0,0,510,2.0,0.0
978,54.0,512,510,3.0,0.0
979,55.0,512,4110,3.0,0.0
980,58.0,512,2040,2.0,0.0
981,77.0,512,510,0.0,0.0
982,76.0,512,510,0.0,0.0
983,74.0,0,510,0.0,0.0
984,57.0,512,2550,2.0,0.0
985,73.0,512,510,0.0,0.0
986,71.0,512,510,0.0,0.0
987,69.0,512,510,0.0,0.0
988,73.0,0,510,0.0,0.0
989,74.0,0,4110,0.0,0.0
990,53.0,0,1020,3.0,0.0
991,72.0,512,510,2.0,0.0
992,50.0,0,1020,3.0,0.0
993,70.0,512,510,2.0,0.0
994,69.0,512,510,2.0,0.0
995,52.0,0,1020,3.0,0.0
996,67.0,512,510,2.0,0.0
997,65.0,512,510,2.0,0.0
998,55.0,0,1020,3.0,0.0
999,64.0,512,510,2.0,0.0
1000,65.0,512,510,2.0,0.0
1001,57.0,0,1020,3.0,0.0
1002,73.0,0,2040,0.0,0.0
1003,67.0,512,510,2.0,0.0
1004,70.0,512,510,2.0,0.0
1005,45.0,0,1020,3.0,0.0
1006,69.0,512,510,2.0,0.0
1007,67.0,512,510,2.0,0.0
1008,65.0,0,2040,2.0,0.0
1009,50.0,512,510,3.0,0.0
1010,74.0,512,1020,0.0,0.0
1011,69.0,512,2040,1.0,0.0
1012,62.0,0,510,3.0,0.0
1013,60.0,512,510,3.0,0.0
1014,77.0,0,2040,0.0,0.0
1015,58.0,0,510,3.0,0.0
1016,69.0,512,1020,2.0,0.0
1017,57.0,512,510,3.0,0.0
1018,72.0,0,2040,1.0,0.0
1019,58.0,0,510,3.0,0.0
1020,76.0,512,2040,0.0,0.0
1021,67.0,0,2040,2.0,0.0
1022,60.0,512,510,3.0,0.0
1023,57.0,512,510,3.0,0.0
1024,53.0,512,510,3.0,0.0
1025,58.0,0,510,3.0,0.0
1026,65.0,0,2040,2.0,0.0
1027,57.0,512,510,3.0,0.0
1028,74.0,512,2040,0.0,0.0
1029,55.0,512,510,3.0,0.0
1030,69.0,0,15,1.0,0.0
1031,53.0,512,510,3.0,0.0
1032,55.0,0,510,3.0,0.0
1033,73.0,0,1020,0.0,0.0
1034,64.0,512,1020,2.0,0.0
1035,57.0,512,510,3.0,0.0
1036,53.0,0,510,3.0,0.0
1037,50.0,512,510,3.0,0.0
1038,74.0,0,1020,0.0,0.0
1039,70.0,0,2040,1.0,0.0
1040,65.0,0,1020,2.0,0.0
1041,48.0,512,510,3.0,0.0
1042,67.0,0,1020,2.0,0.0
1043,72.0,512,2040,0.0,0.0
1044,50.0,512,510,3.0,0.0
1045,52.0,512,510,3.0,0.0
1046,53.0,512,510,3.0,0.0
1047,69.0,0,2040,1.0,0.0
1048,60.0,0,1020,2.0,0.0
1049,52.0,0,510,3.0,0.0
1050,50.0,0,510,3.0,0.0
1051,65.0,512,2040,2.0,0.0
1052,74.0,512,510,0.0,0.0
1053,53.0,512,510,3.0,0.0
1054,72.0,0,510,0.0,0.0
1055,67.0,0,4110,1.0,0.0
1056,55.0,512,510,3.0,0.0
1057,70.0,0,4110,0.0,0.0
1058,43.0,0,510,3.0,0.0
1059,45.0,0,510,3.0,0.0
1060,63.0,512,510,2.0,0.0
1061,62.0,0,510,2.0,0.0
1062,46.0,512,510,3.0,0.0
1063,48.0,512,510,3.0,0.0
1064,64.0,512,2550,2.0,0.0
1065,50.0,512,510,3.0,0.0
1066,51.0,512,510,3.0,0.0
1067,48.0,512,510,3.0,0.0
1068,53.0,512,7170,3.0,0.0
1069,69.0,512,2040,0.0,0.0
1070,65.0,0,4620,1.0,0.0
1071,63.0,512,510,2.0,0.0
1072,62.0,512,510,2.0,0.0
1073,60.0,0,510,2.0,0.0
1074,58.0,512,510,2.0,0.0
1075,74.0,0,2040,0.0,0.0
1076,57.0,512,510,2.0,0.0
1077,55.0,512,510,2.0,0.0
1078,58.0,512,510,2.0,0.0
1079,72.0,512,2040,0.0,0.0
1080,57.0,512,510,2.0,0.0
1081,64.0,512,510,1.0,0.0
1082,55.0,0,510,2.0,0.0
1083,57.0,0,510,2.0,0.0
1084,65.0,512,510,1.0,0.0
1085,58.0,0,510,2.0,0.0
1086,67.0,0,510,1.0,0.0
1087,69.0,512,510,1.0,0.0
1088,60.0,512,4110,2.0,0.0
1089,77.0,512,2550,0.0,0.0
1090,71.0,0,510,1.0,0.0
1091,72.0,512,510,1.0,0.0
1092,52.0,512,1020,3.0,0.0
1093,69.0,0,510,1.0,0.0
1094,74.0,0,6150,1.0,0.0
1095,50.0,512,1020,3.0,0.0
1096,77.0,0,510,0.0,0.0
1097,79.0,0,510,0.0,0.0
1098,52.0,512,510,3.0,0.0
1099,81.0,0,510,0.0,0.0
1100,53.0,0,510,3.0,0.0
1101,55.0,512,510,3.0,0.0
1102,59.0,512,4110,2.0,0.0
1103,79.0,0,1020,0.0,0.0
1104,57.0,512,510,3.0,0.0
1105,77.0,512,1530,0.0,0.0
1106,58.0,512,510,3.0,0.0
1107,55.0,512,510,3.0,0.0
1108,48.0,0,2040,3.0,0.0
1109,76.0,512,510,0.0,0.0
1110,78.0,512,510,0.0,0.0
1111,80.0,0,510,0.0,0.0
1112,53.0,512,2550,3.0,0.0
1113,72.0,512,2040,1.0,0.0
1114,81.0,512,510,0.0,0.0
1115,57.0,512,4110,2.0,0.0
1116,83.0,512,510,0.0,0.0
1117,84.0,512,510,0.0,0.0
1118,81.0,0,510,0.0,0.0
1119,74.0,0,5130,0.0,0.0
1120,71.0,512,5130,1.0,0.0
1121,47.0,512,510,3.0,0.0
1122,48.0,512,510,3.0,0.0
1123,50.0,0,510,3.0,0.0
1124,52.0,512,510,3.0,0.0
1125,56.0,512,1020,2.0,0.0
1126,54.0,0,510,3.0,0.0
1127,56.0,512,510,3.0,0.0
1128,64.0,512,1530,2.0,0.0
1129,52.0,512,510,3.0,0.0
1130,57.0,512,2550,3.0,0.0
1131,45.0,0,4110,4.0,0.0
1132,65.0,0,510,2.0,0.0
1133,72.0,512,510,0.0,0.0
1134,64.0,0,510,2.0,0.0
1135,69.0,0,510,1.0,0.0
1136,71.0,0,510,0.0,0.0
1137,62.0,0,510,2.0,0.0
1138,68.0,512,510,1.0,0.0
1139,72.0,512,1020,0.0,0.0
1140,64.0,0,1020,2.0,0.0
1141,69.0,0,1020,1.0,0.0
1142,60.0,0,510,3.0,0.0
1143,65.0,512,1020,2.0,0.0
1144,58.0,512,510,3.0,0.0
1145,77.0,0,2040,0.0,0.0
1146,72.0,0,1020,1.0,0.0
1147,57.0,0,510,3.0,0.0
1148,55.0,0,4110,3.0,0.0
1149,60.0,512,510,2.0,0.0
1150,48.0,512,4110,4.0,0.0
1151,72.0,512,3060,1.0,0.0
1152,62.0,512,510,2.0,0.0
1153,64.0,0,510,2.0,0.0
1154,76.0,512,510,0.0,0.0
1155,65.0,512,510,2.0,0.0
1156,74.0,0,510,0.0,0.0
1157,76.0,0,1020,0.0,0.0
1158,67.0,512,510,2.0,0.0
1159,65.0,0,510,2.0,0.0
1160,79.0,512,1530,0.0,0.0
1161,76.0,0,1530,1.0,0.0
1162,64.0,512,510,2.0,0.0
1163,67.0,0,510,2.0,0.0
1164,61.0,0,2040,2.0,0.0
1165,45.0,0,4110,4.0,0.0
1166,57.0,1024,4110,3.0,0.0
1167,79.0,0,510,1.0,0.0
1168,82.0,512,510,0.0,0.0
1169,81.0,512,510,0.0,0.0
1170,77.0,0,510,1.0,0.0
1171,76.0,512,510,1.0,0.0
1172,79.0,0,510,0.0,0.0
1173,62.0,0,2040,2.0,0.0
1174,77.0,512,510,0.0,0.0
1175,74.0,0,3060,1.0,0.0
1176,76.0,512,510,0.0,0.0
1177,74.0,512,510,0.0,0.0
1178,77.0,0,510,0.0,0.0
1179,64.0,0,3060,2.0,0.0
1180,76.0,0,3060,0.0,0.0
1181,45.0,0,4110,4.0,0.0
1182,52.0,512,510,3.0,0.0
1183,72.0,512,510,1.0,0.0
1184,54.0,0,510,3.0,0.0
1185,71.0,0,510,1.0,0.0
1186,56.0,512,510,3.0,0.0
1187,72.0,512,3060,1.0,0.0
1188,57.0,512,510,3.0,0.0
1189,59.0,512,510,3.0,0.0
1190,60.0,512,510,3.0,0.0
1191,65.0,0,3060,2.0,0.0
1192,75.0,0,1020,0.0,0.0
1193,57.0,512,510,3.0,0.0
1194,46.0,0,4110,4.0,0.0
1195,53.0,512,510,3.0,0.0
1196,74.0,512,4620,0.0,0.0
1197,50.0,0,510,3.0,0.0
1198,52.0,0,510,3.0,0.0
1199,70.0,512,510,1.0,0.0
1200,69.0,0,510,1.0,0.0
1201,53.0,512,510,3.0,0.0
1202,62.0,512,2040,2.0,0.0
1203,70.0,0,4110,1.0,0.0
1204,55.0,512,510,3.0,0.0
1205,57.0,512,510,3.0,0.0
1206,58.0,512,510,3.0,0.0
1207,55.0,0,510,3.0,0.0
1208,64.0,0,1020,2.0,0.0
1209,45.0,0,4110,4.0,0.0
1210,60.0,512,1020,3.0,0.0
1211,72.0,0,510,0.0,0.0
1212,62.0,0,1020,2.0,0.0
1213,74.0,512,510,0.0,0.0
1214,55.0,512,1020,3.0,0.0
1215,76.0,0,510,0.0,0.0
1216,69.0,0,2040,1.0,0.0
1217,60.0,0,1020,2.0,0.0
1218,77.0,512,510,0.0,0.0
1219,57.0,512,1020,3.0,0.0
1220,79.0,0,510,0.0,0.0
1221,60.0,0,1020,3.0,0.0
1222,81.0,512,510,0.0,0.0
1223,77.0,0,510,0.0,0.0
1224,82.0,0,2040,0.0,0.0
1225,74.0,512,510,1.0,0.0
1226,58.0,0,1020,3.0,0.0
1227,43.0,0,8190,4.0,0.0
1228,65.0,512,15,2.0,0.0
1229,75.0,512,510,1.0,0.0
1230,57.0,0,1020,3.0,0.0
1231,74.0,512,510,1.0,0.0
1232,72.0,512,510,1.0,0.0
1233,55.0,0,3060,3.0,0.0
1234,70.0,512,510,1.0,0.0
1235,69.0,0,510,1.0,0.0
1236,67.0,512,510,1.0,0.0
1237,64.0,0,510,2.0,0.0
1238,62.0,1024,510,2.0,0.0
1239,70.0,0,510,1.0,0.0
1240,64.0,0,2040,1.0,0.0
1241,60.0,0,6150,2.0,0.0
1242,74.0,512,510,0.0,0.0
1243,58.0,0,510,3.0,0.0
1244,76.0,512,510,0.0,0.0
1245,57.0,512,510,3.0,0.0
1246,77.0,0,510,0.0,0.0
1247,79.0,512,510,0.0,0.0
1248,63.0,512,2550,1.0,0.0
1249,58.0,0,2040,3.0,0.0
1250,81.0,512,510,0.0,0.0
1251,82.0,512,510,0.0,0.0
1252,79.0,512,510,0.0,0.0
1253,41.0,0,10230,4.0,0.0
1254,84.0,0,2040,0.0,0.0
1255,57.0,0,2040,3.0,0.0
1256,79.0,512,510,1.0,0.0
1257,77.0,512,510,1.0,0.0
1258,75.0,512,510,1.0,0.0
1259,62.0,0,4110,2.0,0.0
1260,58.0,0,3060,3.0,0.0
1261,82.0,512,2550,0.0,0.0
1262,74.0,512,510,1.0,0.0
1263,75.0,512,510,1.0,0.0
1264,77.0,512,510,1.0,0.0
1265,74.0,512,510,1.0,0.0
1266,81.0,512,510,0.0,0.0
1267,57.0,512,1020,3.0,0.0
1268,79.0,512,510,0.0,0.0
1269,77.0,0,510,0.0,0.0
1270,76.0,512,510,0.0,0.0
1271,55.0,0,2040,3.0,0.0
1272,60.0,512,1020,2.0,0.0
1273,77.0,0,510,0.0,0.0
1274,79.0,512,510,0.0,0.0
1275,58.0,512,1020,2.0,0.0
1276,76.0,0,510,0.0,0.0
1277,53.0,512,2550,3.0,0.0
1278,77.0,512,6150,0.0,0.0
1279,60.0,0,2040,2.0,0.0
1280,70.0,512,15,1.0,0.0
1281,69.0,512,510,1.0,0.0
1282,67.0,512,510,1.0,0.0
1283,69.0,0,2040,1.0,0.0
1284,55.0,512,510,3.0,0.0
1285,57.0,512,510,3.0,0.0
1286,58.0,1024,510,3.0,0.0
1287,67.0,0,2040,1.0,0.0
1288,60.0,512,2550,3.0,0.0
1289,62.0,512,510,2.0,0.0
1290,64.0,512,510,2.0,0.0
1291,65.0,0,510,2.0,0.0
1292,76.0,0,4110,0.0,0.0
1293,67.0,0,510,2.0,0.0
1294,72.0,0,4110,1.0,0.0
1295,69.0,512,510,2.0,0.0
1296,48.0,0,510,3.0,0.0
1297,50.0,512,510,3.0,0.0
1298,70.0,0,510,2.0,0.0
1299,67.0,0,510,2.0,0.0
1300,52.0,512,510,3.0,0.0
1301,69.0,0,4110,2.0,0.0
1302,53.0,512,510,3.0,0.0
1303,55.0,512,510,3.0,0.0
1304,57.0,512,510,3.0,0.0
1305,53.0,512,510,3.0,0.0
1306,71.0,512,4110,1.0,0.0
1307,74.0,0,4110,0.0,0.0
1308,59.0,512,510,3.0,0.0
1309,47.0,512,510,3.0,0.0
1310,48.0,512,510,3.0,0.0
1311,50.0,512,510,3.0,0.0
1312,67.0,0,4110,2.0,0.0
1313,52.0,512,510,3.0,0.0
1314,53.0,512,510,3.0,0.0
1315,55.0,512,510,3.0,0.0
1316,52.0,0,510,3.0,0.0
1317,69.0,0,4110,1.0,0.0
1318,72.0,512,4110,0.0,0.0
1319,57.0,512,510,3.0,0.0
1320,45.0,512,510,3.0,0.0
1321,47.0,512,510,3.0,0.0
1322,48.0,512,510,3.0,0.0
1323,50.0,512,510,3.0,0.0
1324,65.0,0,6150,2.0,0.0
1325,52.0,512,510,3.0,0.0
1326,53.0,512,510,3.0,0.0
1327,50.0,0,510,3.0,0.0
1328,71.0,0,2040,0.0,0.0
1329,55.0,512,510,3.0,0.0
1330,52.0,512,510,3.0,0.0
1331,53.0,512,510,3.0,0.0
1332,55.0,512,510,3.0,0.0
1333,67.0,0,15,1.0,0.0
1334,72.0,512,2550,0.0,0.0
1335,48.0,512,510,3.0,0.0
1336,55.0,512,510,3.0,0.0
1337,57.0,512,510,3.0,0.0
1338,59.0,512,510,3.0,0.0
1339,64.0,512,2040,2.0,0.0
1340,74.0,512,510,0.0,0.0
1341,72.0,512,510,0.0,0.0
1342,71.0,0,510,0.0,0.0
1343,69.0,512,510,0.0,0.0
1344,66.0,512,3060,1.0,0.0
1345,71.0,512,510,0.0,0.0
1346,72.0,512,510,0.0,0.0
1347,69.0,512,510,0.0,0.0
1348,74.0,0,6150,0.0,0.0
1349,60.0,512,15,3.0,0.0
1350,59.0,512,510,3.0,0.0
1351,68.0,0,510,1.0,0.0
1352,69.0,0,510,1.0,0.0
1353,57.0,512,510,3.0,0.0
1354,71.0,512,4110,1.0,0.0
1355,56.0,512,510,3.0,0.0
1356,57.0,512,510,3.0,0.0
1357,59.0,512,510,3.0,0.0
1358,56.0,1024,510,3.0,0.0
1359,48.0,512,4110,3.0,0.0
1360,52.0,512,510,2.0,0.0
1361,54.0,512,510,2.0,0.0
1362,56.0,0,510,2.0,0.0
1363,57.0,512,510,2.0,0.0
1364,72.0,0,2040,0.0,0.0
1365,69.0,512,2550,1.0,0.0
1366,59.0,512,510,2.0,0.0
1367,60.0,512,510,2.0,0.0
1368,57.0,0,510,2.0,0.0
1369,62.0,0,4110,2.0,0.0
1370,53.0,0,4110,3.0,0.0
1371,72.0,512,510,1.0,0.0
1372,71.0,512,510,1.0,0.0
1373,69.0,512,510,1.0,0.0
1374,68.0,512,510,1.0,0.0
1375,69.0,512,510,1.0,0.0
1376,71.0,512,510,1.0,0.0
1377,68.0,1024,510,1.0,0.0
1378,52.0,0,2040,3.0,0.0
1379,69.0,512,5640,1.0,0.0
1380,60.0,0,2040,2.0,0.0
1381,72.0,512,510,0.0,0.0
1382,74.0,512,510,0.0,0.0
1383,76.0,512,510,0.0,0.0
1384,77.0,512,510,0.0,0.0
1385,59.0,512,4110,2.0,0.0
1386,50.0,0,2040,3.0,0.0
1387,76.0,512,510,0.0,0.0
1388,74.0,512,510,0.0,0.0
1389,77.0,512,510,0.0,0.0
1390,71.0,512,510,0.0,0.0
1391,52.0,512,2550,3.0,0.0
1392,72.0,512,510,0.0,0.0
1393,74.0,0,2040,0.0,0.0
1394,68.0,0,510,1.0,0.0
1395,69.0,0,3060,1.0,0.0
1396,57.0,512,2040,2.0,0.0
1397,45.0,0,4110,4.0,0.0
1398,52.0,512,510,3.0,0.0
1399,72.0,0,510,0.0,0.0
1400,54.0,512,510,3.0,0.0
1401,71.0,0,510,0.0,0.0
1402,56.0,0,510,3.0,0.0
1403,72.0,512,7170,0.0,0.0
1404,57.0,512,510,3.0,0.0
1405,59.0,512,510,3.0,0.0
1406,65.0,512,1530,1.0,0.0
1407,60.0,512,510,3.0,0.0
1408,57.0,512,510,3.0,0.0
1409,48.0,0,4110,4.0,0.0
1410,55.0,0,3060,3.0,0.0
1411,69.0,512,510,1.0,0.0
1412,67.0,512,510,1.0,0.0
1413,65.0,512,510,1.0,0.0
1414,64.0,512,510,1.0,0.0
1415,62.0,512,510,1.0,0.0
1416,54.0,0,1020,3.0,0.0
1417,60.0,512,510,1.0,0.0
1418,63.0,1024,510,1.0,0.0
1419,43.0,0,4110,4.0,0.0
1420,55.0,0,4110,3.0,0.0
1421,62.0,0,1020,1.0,0.0
1422,57.0,0,510,2.0,0.0
1423,58.0,512,510,2.0,0.0
1424,67.0,0,1020,1.0,0.0
1425,70.0,512,1020,0.0,0.0
1426,60.0,0,510,2.0,0.0
1427,62.0,512,510,2.0,0.0
1428,66.0,512,1020,1.0,0.0
1429,69.0,0,1020,0.0,0.0
1430,64.0,0,510,2.0,0.0
1431,69.0,512,1020,1.0,0.0
1432,66.0,512,510,2.0,0.0
1433,74.0,0,1020,0.0,0.0
1434,62.0,0,510,2.0,0.0
1435,67.0,0,6150,2.0,0.0
1436,70.0,0,510,0.0,0.0
1437,67.0,512,510,1.0,0.0
1438,43.0,0,4110,4.0,0.0
1439,72.0,0,510,0.0,0.0
1440,69.0,512,510,1.0,0.0
1441,74.0,512,510,0.0,0.0
1442,70.0,0,510,1.0,0.0
1443,76.0,0,510,0.0,0.0
1444,67.0,512,510,1.0,0.0
1445,69.0,512,510,1.0,0.0
1446,78.0,0,510,0.0,0.0
1447,79.0,512,510,0.0,0.0
1448,70.0,0,510,1.0,0.0
1449,81.0,512,510,0.0,0.0
1450,72.0,0,510,1.0,0.0
1451,69.0,1024,510,1.0,0.0
1452,78.0,0,510,0.0,0.0
1453,82.0,0,3060,0.0,0.0
1454,74.0,512,3060,1.0,0.0
1455,55.0,512,510,3.0,0.0
1456,57.0,512,510,3.0,0.0
1457,58.0,512,510,3.0,0.0
1458,60.0,512,510,3.0,0.0
1459,62.0,0,510,3.0,0.0
1460,63.0,512,510,3.0,0.0
1461,81.0,0,2040,0.0,0.0
1462,72.0,0,2040,1.0,0.0
1463,60.0,0,510,3.0,0.0
1464,62.0,512,2040,3.0,0.0
1465,43.0,1024,15,4.0,0.0
1466,64.0,512,510,2.0,0.0
1467,79.0,0,2040,0.0,0.0
1468,70.0,0,1020,1.0,0.0
1469,66.0,512,510,2.0,0.0
1470,67.0,0,510,2.0,0.0
1471,72.0,512,510,1.0,0.0
1472,69.0,0,510,2.0,0.0
1473,70.0,0,510,2.0,0.0
1474,74.0,512,510,1.0,0.0
1475,78.0,0,1020,0.0,0.0
1476,75.0,512,510,1.0,0.0
1477,72.0,0,510,2.0,0.0
1478,72.0,0,510,1.0,0.0
1479,69.0,1024,510,2.0,0.0
1480,43.0,0,4110,4.0,0.0
1481,74.0,0,2040,1.0,0.0
1482,79.0,0,5130,0.0,0.0
1483,70.0,512,4620,2.0,0.0
1484,65.0,512,510,3.0,0.0
1485,64.0,512,510,3.0,0.0
1486,62.0,512,510,3.0,0.0
1487,76.0,512,3060,1.0,0.0
1488,61.0,512,510,3.0,0.0
1489,62.0,512,510,3.0,0.0
1490,64.0,512,510,3.0,0.0
1491,61.0,512,510,3.0,0.0
1492,38.0,0,4110,4.0,0.0
1493,62.0,0,4110,3.0,0.0
1494,70.0,0,510,2.0,0.0
1495,69.0,0,510,2.0,0.0
1496,77.0,512,510,0.0,0.0
1497,74.0,0,510,1.0,0.0
1498,67.0,512,510,2.0,0.0
1499,76.0,0,510,0.0,0.0
1500,73.0,0,510,1.0,0.0
1501,65.0,512,510,2.0,0.0
1502,77.0,512,1020,0.0,0.0
1503,74.0,1024,2040,1.0,0.0
1504,67.0,0,510,2.0,0.0
1505,69.0,512,510,2.0,0.0
1506,79.0,0,1020,0.0,0.0
1507,65.0,0,510,2.0,0.0
1508,81.0,0,4110,0.0,0.0
1509,62.0,0,8190,2.0,0.0
1510,41.0,1024,4110,4.0,0.0
1511,69.0,512,510,1.0,0.0
1512,71.0,512,510,1.0,0.0
1513,73.0,512,510,1.0,0.0
1514,74.0,512,510,1.0,0.0
1515,76.0,512,510,1.0,0.0
1516,77.0,512,510,1.0,0.0
1517,74.0,0,510,1.0,0.0
1518,79.0,512,1020,1.0,0.0
1519,82.0,0,1020,0.0,0.0
1520,40.0,0,8190,4.0,0.0
1521,50.0,0,510,3.0,0.0
1522,52.0,512,510,3.0,0.0
1523,77.0,0,1020,1.0,0.0
1524,81.0,0,1020,0.0,0.0
1525,53.0,512,510,3.0,0.0
1526,55.0,512,510,3.0,0.0
1527,76.0,0,3060,1.0,0.0
1528,79.0,512,2550,0.0,0.0
1529,57.0,512,510,3.0,0.0
1530,58.0,512,510,3.0,0.0
1531,55.0,512,510,3.0,0.0
1532,61.0,0,1020,2.0,0.0
1533,52.0,512,1020,3.0,0.0
1534,81.0,0,510,0.0,0.0
1535,74.0,0,2040,1.0,0.0
1536,79.0,512,510,0.0,0.0
1537,53.0,0,1020,3.0,0.0
1538,62.0,512,1020,2.0,0.0
1539,77.0,0,510,0.0,0.0
1540,55.0,0,2040,3.0,0.0
1541,76.0,512,510,0.0,0.0
1542,64.0,0,2040,2.0,0.0
1543,78.0,512,510,0.0,0.0
1544,79.0,512,510,0.0,0.0
1545,72.0,512,1530,1.0,0.0
1546,76.0,512,510,0.0,0.0
1547,60.0,0,2040,2.0,0.0
1548,57.0,0,2040,3.0,0.0
1549,38.0,0,17400,4.0,0.0
1550,78.0,0,2040,0.0,0.0
1551,75.0,512,510,1.0,0.0
1552,74.0,512,510,1.0,0.0
1553,72.0,512,510,1.0,0.0
1554,79.0,0,2040,0.0,0.0
1555,70.0,512,510,1.0,0.0
1556,69.0,512,510,1.0,0.0
1557,67.0,512,510,1.0,0.0
1558,70.0,1024,510,1.0,0.0
1559,81.0,512,2040,0.0,0.0
1560,66.0,0,2040,1.0,0.0
1561,63.0,512,510,2.0,0.0
1562,62.0,512,510,2.0,0.0
1563,60.0,0,510,2.0,0.0
1564,67.0,1024,2040,1.0,0.0
1565,58.0,512,510,2.0,0.0
1566,74.0,0,3060,0.0,0.0
1567,57.0,512,510,2.0,0.0
1568,55.0,512,510,2.0,0.0
1569,58.0,0,510,2.0,0.0
1570,54.0,0,1020,2.0,0.0
1571,69.0,0,3060,1.0,0.0
1572,50.0,512,510,3.0,0.0
1573,57.0,0,1020,2.0,0.0
1574,72.0,512,1020,0.0,0.0
1575,52.0,512,510,3.0,0.0
1576,54.0,0,510,3.0,0.0
1577,55.0,512,510,3.0,0.0
1578,70.0,0,2550,0.0,0.0
1579,62.0,0,2040,2.0,0.0
1580,57.0,512,510,3.0,0.0
1581,58.0,512,510,3.0,0.0
1582,67.0,512,1530,1.0,0.0
1583,55.0,512,510,3.0,0.0
1584,49.0,0,1020,3.0,0.0
1585,64.0,0,1020,2.0,0.0
1586,69.0,0,510,0.0,0.0
1587,65.0,512,510,1.0,0.0
1588,57.0,512,1020,2.0,0.0
1589,50.0,0,1020,3.0,0.0
1590,67.0,0,510,0.0,0.0
1591,64.0,512,510,1.0,0.0
1592,65.0,0,510,0.0,0.0
1593,62.0,0,510,1.0,0.0
1594,55.0,512,2040,3.0,0.0
1595,61.0,0,510,1.0,0.0
1596,64.0,512,510,0.0,0.0
1597,58.0,0,2040,2.0,0.0
1598,62.0,0,510,1.0,0.0
1599,65.0,512,510,0.0,0.0
1600,64.0,0,510,1.0,0.0
1601,67.0,512,510,0.0,0.0
1602,64.0,0,510,0.0,0.0
1603,61.0,0,510,1.0,0.0
1604,57.0,0,1020,2.0,0.0
1605,62.0,0,1020,1.0,0.0
1606,53.0,512,1020,3.0,0.0
1607,67.0,512,510,0.0,0.0
1608,65.0,0,510,0.0,0.0
1609,40.0,1024,1020,4.0,0.0
1610,64.0,512,510,0.0,0.0
1611,62.0,0,510,0.0,0.0
1612,74.0,0,4110,0.0,0.0
1613,41.0,1024,1020,4.0,0.0
1614,64.0,0,1020,1.0,0.0
1615,55.0,0,1020,3.0,0.0
1616,58.0,0,1020,2.0,0.0
1617,43.0,512,1020,4.0,0.0
1618,65.0,512,510,1.0,0.0
1619,53.0,512,1020,3.0,0.0
1620,45.0,0,4110,4.0,0.0
1621,57.0,0,14340,2.0,0.0
1622,69.0,0,510,1.0,0.0
1623,67.0,512,510,1.0,0.0
1624,52.0,0,510,3.0,0.0
1625,65.0,512,510,1.0,0.0
1626,50.0,0,510,3.0,0.0
1627,52.0,0,2040,3.0,0.0
1628,64.0,512,510,1.0,0.0
1629,73.0,0,2040,0.0,0.0
1630,66.0,512,510,1.0,0.0
1631,67.0,512,510,1.0,0.0
1632,64.0,10240,510,1.0,0.0
1633,66.0,0,10230,1.0,0.0
1634,74.0,0,10230,0.0,0.0
1635,38.0,0,10230,4.0,0.0
1636,50.0,0,10230,3.0,0.0
