tick,type,time,meta,track,numerator,denominator,clocks_per_click,notated_32nd_notes_per_beat,key,tempo,port,program,channel,control,value,note,velocity
0,text,0,1,0,,,,,,,,,,,,,
0,program_change,0,0,3,,,,,,,,48,1,,,,
0,midi_port,0,1,4,,,,,,,0,,,,,,
0,track_name,0,1,4,,,,,,,,,,,,,
0,program_change,0,0,4,,,,,,,,48,2,,,,
0,midi_port,0,1,5,,,,,,,0,,,,,,
0,track_name,0,1,5,,,,,,,,,,,,,
0,program_change,0,0,5,,,,,,,,52,3,,,,
0,track_name,0,1,10,,,,,,,,,,,,,
0,midi_port,0,1,6,,,,,,,0,,,,,,
0,track_name,0,1,6,,,,,,,,,,,,,
0,program_change,0,0,6,,,,,,,,52,4,,,,
0,midi_port,0,1,7,,,,,,,0,,,,,,
0,track_name,0,1,7,,,,,,,,,,,,,
0,program_change,0,0,7,,,,,,,,52,5,,,,
0,midi_port,0,1,8,,,,,,,0,,,,,,
0,track_name,0,1,8,,,,,,,,,,,,,
0,program_change,0,0,8,,,,,,,,52,6,,,,
0,midi_port,0,1,9,,,,,,,0,,,,,,
0,track_name,0,1,9,,,,,,,,,,,,,
0,program_change,0,0,9,,,,,,,,52,7,,,,
0,program_change,0,0,10,,,,,,,,19,8,,,,
0,track_name,0,1,3,,,,,,,,,,,,,
0,midi_port,0,1,3,,,,,,,0,,,,,,
0,midi_port,0,1,10,,,,,,,0,,,,,,
0,key_signature,0,1,0,,,,,D,,,,,,,,
0,program_change,0,0,1,,,,,,,,19,8,,,,
0,midi_port,0,1,2,,,,,,,0,,,,,,
0,track_name,0,1,2,,,,,,,,,,,,,
0,program_change,0,0,2,,,,,,,,48,0,,,,
0,track_name,0,1,1,,,,,,,,,,,,,
0,set_tempo,0,1,0,,,,,,625000,,,,,,,
0,midi_port,0,1,1,,,,,,,0,,,,,,
0,time_signature,0,1,0,2,4,24,8,,,,,,,,,
240,control_change,240,0,4,,,,,,,,,2,7,90,,
240,note_on,240,0,8,,,,,,,,,6,,,64,89
240,set_tempo,0,1,0,,,,,,333333,,,,,,,
240,control_change,240,0,3,,,,,,,,,1,7,90,,
240,control_change,240,0,2,,,,,,,,,0,7,90,,
240,time_signature,240,1,0,4,2,48,8,,,,,,,,,
360,note_on,360,0,10,,,,,,,,,8,,,57,64
360,note_on,120,0,4,,,,,,,,,2,,,57,64
431,note_on,71,0,4,,,,,,,,,2,,,57,0
431,note_on,71,0,10,,,,,,,,,8,,,57,0
480,note_on,49,0,4,,,,,,,,,2,,,56,64
480,note_on,49,0,10,,,,,,,,,8,,,56,64
551,note_on,71,0,4,,,,,,,,,2,,,56,0
551,note_on,71,0,10,,,,,,,,,8,,,56,0
600,note_on,49,0,4,,,,,,,,,2,,,54,64
600,note_on,49,0,10,,,,,,,,,8,,,54,64
671,note_on,71,0,4,,,,,,,,,2,,,54,0
671,note_on,71,0,10,,,,,,,,,8,,,54,0
720,note_on,49,0,4,,,,,,,,,2,,,52,64
720,note_on,49,0,10,,,,,,,,,8,,,52,64
791,note_on,71,0,4,,,,,,,,,2,,,52,0
791,note_on,71,0,10,,,,,,,,,8,,,52,0
840,note_on,49,0,4,,,,,,,,,2,,,50,64
840,note_on,49,0,10,,,,,,,,,8,,,50,64
911,note_on,71,0,10,,,,,,,,,8,,,50,0
911,note_on,71,0,4,,,,,,,,,2,,,50,0
960,note_on,49,0,4,,,,,,,,,2,,,49,64
960,note_on,49,0,10,,,,,,,,,8,,,49,64
1031,note_on,71,0,10,,,,,,,,,8,,,49,0
1031,note_on,71,0,4,,,,,,,,,2,,,49,0
1080,note_on,49,0,10,,,,,,,,,8,,,47,64
1080,note_on,49,0,4,,,,,,,,,2,,,47,64
1151,note_on,71,0,10,,,,,,,,,8,,,47,0
1151,note_on,71,0,4,,,,,,,,,2,,,47,0
1200,note_on,0,0,8,,,,,,,,,6,,,61,89
1200,note_on,960,0,8,,,,,,,,,6,,,64,0
1200,note_on,49,0,4,,,,,,,,,2,,,45,64
1200,note_on,49,0,10,,,,,,,,,8,,,45,64
1271,note_on,71,0,10,,,,,,,,,8,,,45,0
1271,note_on,71,0,4,,,,,,,,,2,,,45,0
1320,note_on,49,0,4,,,,,,,,,2,,,47,64
1320,note_on,49,0,10,,,,,,,,,8,,,47,64
1391,note_on,71,0,10,,,,,,,,,8,,,47,0
1391,note_on,71,0,4,,,,,,,,,2,,,47,0
1440,note_on,49,0,4,,,,,,,,,2,,,45,64
1440,note_on,49,0,10,,,,,,,,,8,,,45,64
1511,note_on,71,0,4,,,,,,,,,2,,,45,0
1511,note_on,71,0,10,,,,,,,,,8,,,45,0
1560,note_on,49,0,4,,,,,,,,,2,,,43,64
1560,note_on,49,0,10,,,,,,,,,8,,,43,64
1631,note_on,71,0,4,,,,,,,,,2,,,43,0
1631,note_on,71,0,10,,,,,,,,,8,,,43,0
1680,note_on,49,0,4,,,,,,,,,2,,,42,64
1680,note_on,49,0,10,,,,,,,,,8,,,42,64
1680,note_on,480,0,8,,,,,,,,,6,,,61,0
1680,note_on,0,0,8,,,,,,,,,6,,,62,89
1751,note_on,71,0,4,,,,,,,,,2,,,42,0
1751,note_on,71,0,10,,,,,,,,,8,,,42,0
1800,note_on,49,0,10,,,,,,,,,8,,,40,64
1800,note_on,49,0,4,,,,,,,,,2,,,40,64
1871,note_on,71,0,10,,,,,,,,,8,,,40,0
1871,note_on,71,0,4,,,,,,,,,2,,,40,0
1920,note_on,49,0,10,,,,,,,,,8,,,42,64
1920,note_on,49,0,4,,,,,,,,,2,,,42,64
1991,note_on,71,0,4,,,,,,,,,2,,,42,0
1991,note_on,71,0,10,,,,,,,,,8,,,42,0
2040,note_on,49,0,4,,,,,,,,,2,,,44,64
2040,note_on,49,0,10,,,,,,,,,8,,,44,64
2111,note_on,71,0,4,,,,,,,,,2,,,44,0
2111,note_on,71,0,10,,,,,,,,,8,,,44,0
2160,note_on,49,0,4,,,,,,,,,2,,,45,64
2160,note_on,480,0,8,,,,,,,,,6,,,62,0
2160,note_on,0,0,8,,,,,,,,,6,,,61,89
2160,note_on,49,0,10,,,,,,,,,8,,,45,64
2231,note_on,71,0,10,,,,,,,,,8,,,45,0
2231,note_on,71,0,4,,,,,,,,,2,,,45,0
2280,note_on,49,0,10,,,,,,,,,8,,,47,64
2280,note_on,49,0,4,,,,,,,,,2,,,47,64
2351,note_on,71,0,10,,,,,,,,,8,,,47,0
2351,note_on,71,0,4,,,,,,,,,2,,,47,0
2400,note_on,49,0,4,,,,,,,,,2,,,49,64
2400,note_on,49,0,10,,,,,,,,,8,,,49,64
2471,note_on,71,0,4,,,,,,,,,2,,,49,0
2471,note_on,71,0,10,,,,,,,,,8,,,49,0
2520,note_on,49,0,4,,,,,,,,,2,,,50,64
2520,note_on,49,0,10,,,,,,,,,8,,,50,64
2591,note_on,71,0,10,,,,,,,,,8,,,50,0
2591,note_on,71,0,4,,,,,,,,,2,,,50,0
2640,note_on,49,0,4,,,,,,,,,2,,,52,64
2640,note_on,480,0,8,,,,,,,,,6,,,61,0
2640,note_on,0,0,8,,,,,,,,,6,,,59,89
2640,note_on,49,0,10,,,,,,,,,8,,,52,64
2711,note_on,71,0,10,,,,,,,,,8,,,52,0
2711,note_on,71,0,4,,,,,,,,,2,,,52,0
2760,note_on,49,0,10,,,,,,,,,8,,,54,64
2760,note_on,49,0,4,,,,,,,,,2,,,54,64
2831,note_on,71,0,10,,,,,,,,,8,,,54,0
2831,note_on,71,0,4,,,,,,,,,2,,,54,0
2880,note_on,49,0,4,,,,,,,,,2,,,52,64
2880,note_on,49,0,10,,,,,,,,,8,,,52,64
2951,note_on,71,0,4,,,,,,,,,2,,,52,0
2951,note_on,71,0,10,,,,,,,,,8,,,52,0
3000,note_on,49,0,10,,,,,,,,,8,,,50,64
3000,note_on,49,0,4,,,,,,,,,2,,,50,64
3071,note_on,71,0,4,,,,,,,,,2,,,50,0
3071,note_on,71,0,10,,,,,,,,,8,,,50,0
3120,note_on,0,0,8,,,,,,,,,6,,,64,89
3120,note_on,3120,0,9,,,,,,,,,7,,,57,108
3120,note_on,49,0,4,,,,,,,,,2,,,49,64
3120,note_on,480,0,8,,,,,,,,,6,,,59,0
3120,note_on,49,0,10,,,,,,,,,8,,,49,64
3191,note_on,71,0,4,,,,,,,,,2,,,49,0
3191,note_on,71,0,10,,,,,,,,,8,,,49,0
3240,note_on,49,0,4,,,,,,,,,2,,,45,64
3240,note_on,49,0,10,,,,,,,,,8,,,45,64
3311,note_on,71,0,4,,,,,,,,,2,,,45,0
3311,note_on,71,0,10,,,,,,,,,8,,,45,0
3360,note_on,49,0,10,,,,,,,,,8,,,47,64
3360,note_on,49,0,4,,,,,,,,,2,,,47,64
3431,note_on,71,0,10,,,,,,,,,8,,,47,0
3431,note_on,71,0,4,,,,,,,,,2,,,47,0
3480,note_on,49,0,4,,,,,,,,,2,,,49,64
3480,note_on,49,0,10,,,,,,,,,8,,,49,64
3551,note_on,71,0,10,,,,,,,,,8,,,49,0
3551,note_on,71,0,4,,,,,,,,,2,,,49,0
3600,note_on,49,0,10,,,,,,,,,8,,,50,64
3600,note_on,480,0,8,,,,,,,,,6,,,64,0
3600,note_on,0,0,8,,,,,,,,,6,,,66,89
3600,note_on,49,0,4,,,,,,,,,2,,,50,64
3671,note_on,71,0,10,,,,,,,,,8,,,50,0
3671,note_on,71,0,4,,,,,,,,,2,,,50,0
3720,note_on,49,0,4,,,,,,,,,2,,,49,64
3720,note_on,49,0,10,,,,,,,,,8,,,49,64
3780,note_on,180,0,8,,,,,,,,,6,,,66,0
3791,note_on,71,0,4,,,,,,,,,2,,,49,0
3791,note_on,71,0,10,,,,,,,,,8,,,49,0
3840,note_on,49,0,10,,,,,,,,,8,,,50,64
3840,note_on,49,0,4,,,,,,,,,2,,,50,64
3840,note_on,60,0,8,,,,,,,,,6,,,54,89
3911,note_on,71,0,4,,,,,,,,,2,,,50,0
3911,note_on,71,0,10,,,,,,,,,8,,,50,0
3960,note_on,49,0,10,,,,,,,,,8,,,52,64
3960,note_on,49,0,4,,,,,,,,,2,,,52,64
3960,note_on,120,0,8,,,,,,,,,6,,,54,0
3960,note_on,0,0,8,,,,,,,,,6,,,55,89
4031,note_on,71,0,10,,,,,,,,,8,,,52,0
4031,note_on,71,0,4,,,,,,,,,2,,,52,0
4080,note_on,120,0,8,,,,,,,,,6,,,55,0
4080,note_on,49,0,4,,,,,,,,,2,,,54,64
4080,note_on,0,0,8,,,,,,,,,6,,,57,89
4080,note_on,0,0,9,,,,,,,,,7,,,54,89
4080,note_on,49,0,10,,,,,,,,,8,,,54,64
4080,note_on,960,0,9,,,,,,,,,7,,,57,0
4151,note_on,71,0,10,,,,,,,,,8,,,54,0
4151,note_on,71,0,4,,,,,,,,,2,,,54,0
4200,note_on,49,0,10,,,,,,,,,8,,,52,64
4200,note_on,49,0,4,,,,,,,,,2,,,52,64
4200,note_on,0,0,8,,,,,,,,,6,,,61,89
4200,note_on,120,0,8,,,,,,,,,6,,,57,0
4271,note_on,71,0,10,,,,,,,,,8,,,52,0
4271,note_on,71,0,4,,,,,,,,,2,,,52,0
4320,note_on,49,0,4,,,,,,,,,2,,,50,64
4320,note_on,120,0,8,,,,,,,,,6,,,61,0
4320,note_on,0,0,8,,,,,,,,,6,,,66,89
4320,note_on,49,0,10,,,,,,,,,8,,,50,64
4391,note_on,71,0,4,,,,,,,,,2,,,50,0
4391,note_on,71,0,10,,,,,,,,,8,,,50,0
4440,note_on,49,0,4,,,,,,,,,2,,,49,64
4440,note_on,49,0,10,,,,,,,,,8,,,49,64
4511,note_on,71,0,4,,,,,,,,,2,,,49,0
4511,note_on,71,0,10,,,,,,,,,8,,,49,0
4560,note_on,0,0,9,,,,,,,,,7,,,55,89
4560,note_on,49,0,4,,,,,,,,,2,,,47,64
4560,note_on,49,0,10,,,,,,,,,8,,,47,64
4560,note_on,480,0,9,,,,,,,,,7,,,54,0
4631,note_on,71,0,10,,,,,,,,,8,,,47,0
4631,note_on,71,0,4,,,,,,,,,2,,,47,0
4680,note_on,49,0,4,,,,,,,,,2,,,45,64
4680,note_on,49,0,10,,,,,,,,,8,,,45,64
4751,note_on,71,0,4,,,,,,,,,2,,,45,0
4751,note_on,71,0,10,,,,,,,,,8,,,45,0
4800,note_on,480,0,8,,,,,,,,,6,,,66,0
4800,note_on,49,0,4,,,,,,,,,2,,,47,64
4800,note_on,0,0,8,,,,,,,,,6,,,64,89
4800,note_on,49,0,10,,,,,,,,,8,,,47,64
4871,note_on,71,0,4,,,,,,,,,2,,,47,0
4871,note_on,71,0,10,,,,,,,,,8,,,47,0
4920,note_on,49,0,10,,,,,,,,,8,,,49,64
4920,note_on,49,0,4,,,,,,,,,2,,,49,64
4991,note_on,71,0,10,,,,,,,,,8,,,49,0
4991,note_on,71,0,4,,,,,,,,,2,,,49,0
5040,note_on,49,0,10,,,,,,,,,8,,,50,64
5040,note_on,49,0,4,,,,,,,,,2,,,50,64
5040,note_on,0,0,9,,,,,,,,,7,,,54,89
5040,note_on,480,0,9,,,,,,,,,7,,,55,0
5040,note_on,5040,0,7,,,,,,,,,5,,,69,108
5111,note_on,71,0,10,,,,,,,,,8,,,50,0
5111,note_on,71,0,4,,,,,,,,,2,,,50,0
5130,note_on,330,0,8,,,,,,,,,6,,,64,0
5160,note_on,30,0,8,,,,,,,,,6,,,57,89
5160,note_on,49,0,10,,,,,,,,,8,,,52,64
5160,note_on,49,0,4,,,,,,,,,2,,,52,64
5231,note_on,71,0,10,,,,,,,,,8,,,52,0
5231,note_on,71,0,4,,,,,,,,,2,,,52,0
5280,note_on,49,0,10,,,,,,,,,8,,,54,64
5280,note_on,120,0,8,,,,,,,,,6,,,57,0
5280,note_on,0,0,8,,,,,,,,,6,,,62,89
5280,note_on,49,0,4,,,,,,,,,2,,,54,64
5351,note_on,71,0,10,,,,,,,,,8,,,54,0
5351,note_on,71,0,4,,,,,,,,,2,,,54,0
5400,note_on,49,0,4,,,,,,,,,2,,,55,64
5400,note_on,49,0,10,,,,,,,,,8,,,55,64
5471,note_on,71,0,10,,,,,,,,,8,,,55,0
5471,note_on,71,0,4,,,,,,,,,2,,,55,0
5520,note_on,480,0,9,,,,,,,,,7,,,54,0
5520,note_on,49,0,10,,,,,,,,,8,,,57,64
5520,note_on,0,0,9,,,,,,,,,7,,,52,89
5520,note_on,49,0,4,,,,,,,,,2,,,57,64
5591,note_on,71,0,4,,,,,,,,,2,,,57,0
5591,note_on,71,0,10,,,,,,,,,8,,,57,0
5640,note_on,360,0,8,,,,,,,,,6,,,62,0
5640,note_on,0,0,8,,,,,,,,,6,,,61,89
5640,note_on,49,0,4,,,,,,,,,2,,,55,64
5640,note_on,49,0,10,,,,,,,,,8,,,55,64
5700,note_on,60,0,8,,,,,,,,,6,,,61,0
5700,note_on,0,0,8,,,,,,,,,6,,,59,89
5711,note_on,71,0,10,,,,,,,,,8,,,55,0
5711,note_on,71,0,4,,,,,,,,,2,,,55,0
5760,note_on,49,0,10,,,,,,,,,8,,,54,64
5760,note_on,49,0,4,,,,,,,,,2,,,54,64
5760,note_on,60,0,8,,,,,,,,,6,,,59,0
5760,note_on,0,0,8,,,,,,,,,6,,,61,89
5831,note_on,71,0,10,,,,,,,,,8,,,54,0
5831,note_on,71,0,4,,,,,,,,,2,,,54,0
5880,note_on,49,0,4,,,,,,,,,2,,,52,64
5880,note_on,49,0,10,,,,,,,,,8,,,52,64
5951,note_on,71,0,10,,,,,,,,,8,,,52,0
5951,note_on,71,0,4,,,,,,,,,2,,,52,0
6000,note_on,49,0,10,,,,,,,,,8,,,50,64
6000,note_on,240,0,8,,,,,,,,,6,,,61,0
6000,note_on,0,0,8,,,,,,,,,6,,,62,89
6000,note_on,49,0,4,,,,,,,,,2,,,50,64
6000,note_on,0,0,9,,,,,,,,,7,,,57,89
6000,note_on,0,0,7,,,,,,,,,5,,,66,89
6000,note_on,480,0,9,,,,,,,,,7,,,52,0
6000,note_on,960,0,7,,,,,,,,,5,,,69,0
6071,note_on,71,0,10,,,,,,,,,8,,,50,0
6071,note_on,71,0,4,,,,,,,,,2,,,50,0
6120,note_on,49,0,4,,,,,,,,,2,,,52,64
6120,note_on,120,0,8,,,,,,,,,6,,,62,0
6120,note_on,0,0,8,,,,,,,,,6,,,57,89
6120,note_on,49,0,10,,,,,,,,,8,,,52,64
6191,note_on,71,0,4,,,,,,,,,2,,,52,0
6191,note_on,71,0,10,,,,,,,,,8,,,52,0
6240,note_on,120,0,8,,,,,,,,,6,,,57,0
6240,note_on,49,0,4,,,,,,,,,2,,,50,64
6240,note_on,0,0,8,,,,,,,,,6,,,62,89
6240,note_on,49,0,10,,,,,,,,,8,,,50,64
6311,note_on,71,0,4,,,,,,,,,2,,,50,0
6311,note_on,71,0,10,,,,,,,,,8,,,50,0
6360,note_on,49,0,4,,,,,,,,,2,,,49,64
6360,note_on,49,0,10,,,,,,,,,8,,,49,64
6431,note_on,71,0,10,,,,,,,,,8,,,49,0
6431,note_on,71,0,4,,,,,,,,,2,,,49,0
6480,note_on,49,0,4,,,,,,,,,2,,,47,64
6480,note_on,0,0,7,,,,,,,,,5,,,67,89
6480,note_on,0,0,9,,,,,,,,,7,,,59,89
6480,note_on,480,0,9,,,,,,,,,7,,,57,0
6480,note_on,480,0,7,,,,,,,,,5,,,66,0
6480,note_on,49,0,10,,,,,,,,,8,,,47,64
6551,note_on,71,0,4,,,,,,,,,2,,,47,0
6551,note_on,71,0,10,,,,,,,,,8,,,47,0
6600,note_on,360,0,8,,,,,,,,,6,,,62,0
6600,note_on,0,0,8,,,,,,,,,6,,,61,89
6600,note_on,49,0,10,,,,,,,,,8,,,45,64
6600,note_on,49,0,4,,,,,,,,,2,,,45,64
6660,note_on,180,0,9,,,,,,,,,7,,,59,0
6671,note_on,71,0,4,,,,,,,,,2,,,45,0
6671,note_on,71,0,10,,,,,,,,,8,,,45,0
6720,note_on,60,0,9,,,,,,,,,7,,,50,89
6720,note_on,49,0,4,,,,,,,,,2,,,47,64
6720,note_on,120,0,8,,,,,,,,,6,,,61,0
6720,note_on,49,0,10,,,,,,,,,8,,,47,64
6720,note_on,0,0,8,,,,,,,,,6,,,59,89
6791,note_on,71,0,4,,,,,,,,,2,,,47,0
6791,note_on,71,0,10,,,,,,,,,8,,,47,0
6840,note_on,49,0,10,,,,,,,,,8,,,49,64
6840,note_on,120,0,9,,,,,,,,,7,,,50,0
6840,note_on,49,0,4,,,,,,,,,2,,,49,64
6840,note_on,0,0,9,,,,,,,,,7,,,52,89
6911,note_on,71,0,4,,,,,,,,,2,,,49,0
6911,note_on,71,0,10,,,,,,,,,8,,,49,0
6960,note_on,49,0,10,,,,,,,,,8,,,50,64
6960,note_on,49,0,4,,,,,,,,,2,,,50,64
6960,note_on,240,0,8,,,,,,,,,6,,,59,0
6960,note_on,480,0,7,,,,,,,,,5,,,67,0
6960,note_on,0,0,7,,,,,,,,,5,,,66,89
6960,note_on,0,0,8,,,,,,,,,6,,,57,89
6960,note_on,120,0,9,,,,,,,,,7,,,52,0
6960,note_on,0,0,9,,,,,,,,,7,,,54,89
7031,note_on,71,0,4,,,,,,,,,2,,,50,0
7031,note_on,71,0,10,,,,,,,,,8,,,50,0
7080,note_on,49,0,10,,,,,,,,,8,,,52,64
7080,note_on,120,0,9,,,,,,,,,7,,,54,0
7080,note_on,0,0,9,,,,,,,,,7,,,57,89
7080,note_on,49,0,4,,,,,,,,,2,,,52,64
7151,note_on,71,0,10,,,,,,,,,8,,,52,0
7151,note_on,71,0,4,,,,,,,,,2,,,52,0
7200,note_on,49,0,10,,,,,,,,,8,,,54,64
7200,note_on,0,0,9,,,,,,,,,7,,,62,89
7200,note_on,120,0,9,,,,,,,,,7,,,57,0
7200,note_on,49,0,4,,,,,,,,,2,,,54,64
7271,note_on,71,0,10,,,,,,,,,8,,,54,0
7271,note_on,71,0,4,,,,,,,,,2,,,54,0
7320,note_on,49,0,10,,,,,,,,,8,,,55,64
7320,note_on,49,0,4,,,,,,,,,2,,,55,64
7391,note_on,71,0,10,,,,,,,,,8,,,55,0
7391,note_on,71,0,4,,,,,,,,,2,,,55,0
7440,note_on,49,0,4,,,,,,,,,2,,,57,64
7440,note_on,480,0,7,,,,,,,,,5,,,66,0
7440,note_on,0,0,7,,,,,,,,,5,,,64,89
7440,note_on,49,0,10,,,,,,,,,8,,,57,64
7511,note_on,71,0,10,,,,,,,,,8,,,57,0
7511,note_on,71,0,4,,,,,,,,,2,,,57,0
7560,note_on,49,0,4,,,,,,,,,2,,,59,64
7560,note_on,49,0,10,,,,,,,,,8,,,59,64
7631,note_on,71,0,4,,,,,,,,,2,,,59,0
7631,note_on,71,0,10,,,,,,,,,8,,,59,0
7680,note_on,0,0,9,,,,,,,,,7,,,61,89
7680,note_on,480,0,9,,,,,,,,,7,,,62,0
7680,note_on,49,0,4,,,,,,,,,2,,,61,64
7680,note_on,49,0,10,,,,,,,,,8,,,61,64
7751,note_on,71,0,4,,,,,,,,,2,,,61,0
7751,note_on,71,0,10,,,,,,,,,8,,,61,0
7800,note_on,49,0,10,,,,,,,,,8,,,62,64
7800,note_on,120,0,9,,,,,,,,,7,,,61,0
7800,note_on,0,0,9,,,,,,,,,7,,,59,89
7800,note_on,49,0,4,,,,,,,,,2,,,62,64
7871,note_on,71,0,10,,,,,,,,,8,,,62,0
7871,note_on,71,0,4,,,,,,,,,2,,,62,0
7920,note_on,7920,0,5,,,,,,,,,3,,,76,108
7920,note_on,120,0,9,,,,,,,,,7,,,59,0
7920,note_on,49,0,10,,,,,,,,,8,,,61,64
7920,note_on,0,0,7,,,,,,,,,5,,,69,89
7920,note_on,0,0,9,,,,,,,,,7,,,64,89
7920,note_on,49,0,4,,,,,,,,,2,,,61,64
7920,note_on,960,0,8,,,,,,,,,6,,,57,0
7920,note_on,0,0,8,,,,,,,,,6,,,57,89
7920,note_on,480,0,7,,,,,,,,,5,,,64,0
7991,note_on,71,0,10,,,,,,,,,8,,,61,0
7991,note_on,71,0,4,,,,,,,,,2,,,61,0
8040,note_on,49,0,10,,,,,,,,,8,,,57,64
8040,note_on,120,0,9,,,,,,,,,7,,,64,0
8040,note_on,0,0,9,,,,,,,,,7,,,52,89
8040,note_on,49,0,4,,,,,,,,,2,,,57,64
8111,note_on,71,0,10,,,,,,,,,8,,,57,0
8111,note_on,71,0,4,,,,,,,,,2,,,57,0
8160,note_on,120,0,9,,,,,,,,,7,,,52,0
8160,note_on,240,0,8,,,,,,,,,6,,,57,0
8160,note_on,49,0,4,,,,,,,,,2,,,56,64
8160,note_on,0,0,9,,,,,,,,,7,,,57,89
8160,note_on,49,0,10,,,,,,,,,8,,,56,64
8231,note_on,71,0,4,,,,,,,,,2,,,56,0
8231,note_on,71,0,10,,,,,,,,,8,,,56,0
8280,note_on,120,0,8,,,,,,,,,6,,,57,89
8280,note_on,49,0,10,,,,,,,,,8,,,54,64
8280,note_on,49,0,4,,,,,,,,,2,,,54,64
8351,note_on,71,0,10,,,,,,,,,8,,,54,0
8351,note_on,71,0,4,,,,,,,,,2,,,54,0
8400,note_on,120,0,8,,,,,,,,,6,,,57,0
8400,note_on,0,0,8,,,,,,,,,6,,,64,89
8400,note_on,49,0,10,,,,,,,,,8,,,52,64
8400,note_on,49,0,4,,,,,,,,,2,,,52,64
8400,note_on,480,0,7,,,,,,,,,5,,,69,0
8400,note_on,0,0,7,,,,,,,,,5,,,71,89
8471,note_on,71,0,4,,,,,,,,,2,,,52,0
8471,note_on,71,0,10,,,,,,,,,8,,,52,0
8520,note_on,0,0,9,,,,,,,,,7,,,56,89
8520,note_on,360,0,9,,,,,,,,,7,,,57,0
8520,note_on,49,0,4,,,,,,,,,2,,,50,64
8520,note_on,49,0,10,,,,,,,,,8,,,50,64
8580,note_on,60,0,9,,,,,,,,,7,,,56,0
8580,note_on,0,0,9,,,,,,,,,7,,,54,89
8591,note_on,71,0,10,,,,,,,,,8,,,50,0
8591,note_on,71,0,4,,,,,,,,,2,,,50,0
8640,note_on,49,0,10,,,,,,,,,8,,,49,64
8640,note_on,60,0,9,,,,,,,,,7,,,54,0
8640,note_on,0,0,9,,,,,,,,,7,,,56,89
8640,note_on,49,0,4,,,,,,,,,2,,,49,64
8711,note_on,71,0,10,,,,,,,,,8,,,49,0
8711,note_on,71,0,4,,,,,,,,,2,,,49,0
8760,note_on,49,0,4,,,,,,,,,2,,,47,64
8760,note_on,49,0,10,,,,,,,,,8,,,47,64
8831,note_on,71,0,10,,,,,,,,,8,,,47,0
8831,note_on,71,0,4,,,,,,,,,2,,,47,0
8880,note_on,0,0,5,,,,,,,,,3,,,73,89
8880,note_on,0,0,9,,,,,,,,,7,,,57,89
8880,note_on,240,0,9,,,,,,,,,7,,,56,0
8880,note_on,49,0,4,,,,,,,,,2,,,45,64
8880,note_on,49,0,10,,,,,,,,,8,,,45,64
8880,note_on,960,0,5,,,,,,,,,3,,,76,0
8951,note_on,71,0,10,,,,,,,,,8,,,45,0
8951,note_on,71,0,4,,,,,,,,,2,,,45,0
9000,note_on,0,0,7,,,,,,,,,5,,,69,89
9000,note_on,600,0,7,,,,,,,,,5,,,71,0
9000,note_on,49,0,4,,,,,,,,,2,,,47,64
9000,note_on,49,0,10,,,,,,,,,8,,,47,64
9060,note_on,60,0,7,,,,,,,,,5,,,69,0
9060,note_on,0,0,7,,,,,,,,,5,,,68,89
9071,note_on,71,0,4,,,,,,,,,2,,,47,0
9071,note_on,71,0,10,,,,,,,,,8,,,47,0
9120,note_on,49,0,4,,,,,,,,,2,,,45,64
9120,note_on,60,0,7,,,,,,,,,5,,,68,0
9120,note_on,240,0,9,,,,,,,,,7,,,57,0
9120,note_on,720,0,8,,,,,,,,,6,,,64,0
9120,note_on,0,0,7,,,,,,,,,5,,,69,89
9120,note_on,0,0,8,,,,,,,,,6,,,64,89
9120,note_on,49,0,10,,,,,,,,,8,,,45,64
9180,note_on,60,0,7,,,,,,,,,5,,,69,0
9180,note_on,0,0,7,,,,,,,,,5,,,71,89
9191,note_on,71,0,10,,,,,,,,,8,,,45,0
9191,note_on,71,0,4,,,,,,,,,2,,,45,0
9240,note_on,49,0,10,,,,,,,,,8,,,44,64
9240,note_on,49,0,4,,,,,,,,,2,,,44,64
9240,note_on,60,0,7,,,,,,,,,5,,,71,0
9240,note_on,120,0,9,,,,,,,,,7,,,52,89
9240,note_on,0,0,7,,,,,,,,,5,,,73,89
9311,note_on,71,0,10,,,,,,,,,8,,,44,0
9311,note_on,71,0,4,,,,,,,,,2,,,44,0
9360,note_on,49,0,4,,,,,,,,,2,,,42,64
9360,note_on,480,0,5,,,,,,,,,3,,,73,0
9360,note_on,0,0,8,,,,,,,,,6,,,66,89
9360,note_on,0,0,5,,,,,,,,,3,,,74,89
9360,note_on,240,0,8,,,,,,,,,6,,,64,0
9360,note_on,0,0,9,,,,,,,,,7,,,57,89
9360,note_on,120,0,9,,,,,,,,,7,,,52,0
9360,note_on,49,0,10,,,,,,,,,8,,,42,64
9431,note_on,71,0,10,,,,,,,,,8,,,42,0
9431,note_on,71,0,4,,,,,,,,,2,,,42,0
9480,note_on,240,0,7,,,,,,,,,5,,,73,0
9480,note_on,0,0,7,,,,,,,,,5,,,74,89
9480,note_on,49,0,10,,,,,,,,,8,,,40,64
9480,note_on,49,0,4,,,,,,,,,2,,,40,64
9540,note_on,0,0,7,,,,,,,,,5,,,73,89
9540,note_on,60,0,7,,,,,,,,,5,,,74,0
9551,note_on,71,0,10,,,,,,,,,8,,,40,0
9551,note_on,71,0,4,,,,,,,,,2,,,40,0
9600,note_on,49,0,4,,,,,,,,,2,,,42,64
9600,note_on,60,0,7,,,,,,,,,5,,,73,0
9600,note_on,240,0,9,,,,,,,,,7,,,57,0
9600,note_on,49,0,10,,,,,,,,,8,,,42,64
9600,note_on,0,0,7,,,,,,,,,5,,,71,89
9600,note_on,0,0,9,,,,,,,,,7,,,59,89
9671,note_on,71,0,4,,,,,,,,,2,,,42,0
9671,note_on,71,0,10,,,,,,,,,8,,,42,0
9720,note_on,49,0,4,,,,,,,,,2,,,44,64
9720,note_on,49,0,10,,,,,,,,,8,,,44,64
9791,note_on,71,0,4,,,,,,,,,2,,,44,0
9791,note_on,71,0,10,,,,,,,,,8,,,44,0
9840,note_on,49,0,4,,,,,,,,,2,,,45,64
9840,note_on,0,0,9,,,,,,,,,7,,,61,89
9840,note_on,240,0,9,,,,,,,,,7,,,59,0
9840,note_on,480,0,8,,,,,,,,,6,,,66,0
9840,note_on,0,0,8,,,,,,,,,6,,,64,89
9840,note_on,0,0,5,,,,,,,,,3,,,73,89
9840,note_on,49,0,10,,,,,,,,,8,,,45,64
9840,note_on,480,0,5,,,,,,,,,3,,,74,0
9911,note_on,71,0,4,,,,,,,,,2,,,45,0
9911,note_on,71,0,10,,,,,,,,,8,,,45,0
9930,note_on,330,0,7,,,,,,,,,5,,,71,0
9960,note_on,30,0,7,,,,,,,,,5,,,64,89
9960,note_on,49,0,4,,,,,,,,,2,,,47,64
9960,note_on,49,0,10,,,,,,,,,8,,,47,64
10031,note_on,71,0,4,,,,,,,,,2,,,47,0
10031,note_on,71,0,10,,,,,,,,,8,,,47,0
10080,note_on,240,0,8,,,,,,,,,6,,,64,0
10080,note_on,0,0,7,,,,,,,,,5,,,69,89
10080,note_on,120,0,7,,,,,,,,,5,,,64,0
10080,note_on,49,0,4,,,,,,,,,2,,,49,64
10080,note_on,49,0,10,,,,,,,,,8,,,49,64
10151,note_on,71,0,4,,,,,,,,,2,,,49,0
10151,note_on,71,0,10,,,,,,,,,8,,,49,0
10200,note_on,120,0,8,,,,,,,,,6,,,66,89
10200,note_on,49,0,4,,,,,,,,,2,,,50,64
10200,note_on,49,0,10,,,,,,,,,8,,,50,64
10200,note_on,360,0,9,,,,,,,,,7,,,61,0
10200,note_on,0,0,9,,,,,,,,,7,,,59,89
10260,note_on,0,0,9,,,,,,,,,7,,,57,89
10260,note_on,60,0,9,,,,,,,,,7,,,59,0
10271,note_on,71,0,10,,,,,,,,,8,,,50,0
10271,note_on,71,0,4,,,,,,,,,2,,,50,0
10320,note_on,0,0,9,,,,,,,,,7,,,64,89
10320,note_on,49,0,10,,,,,,,,,8,,,52,64
10320,note_on,0,0,8,,,,,,,,,6,,,59,89
10320,note_on,120,0,8,,,,,,,,,6,,,66,0
10320,note_on,480,0,5,,,,,,,,,3,,,73,0
10320,note_on,0,0,5,,,,,,,,,3,,,71,89
10320,note_on,60,0,9,,,,,,,,,7,,,57,0
10320,note_on,49,0,4,,,,,,,,,2,,,52,64
10391,note_on,71,0,4,,,,,,,,,2,,,52,0
10391,note_on,71,0,10,,,,,,,,,8,,,52,0
10440,note_on,0,0,7,,,,,,,,,5,,,68,89
10440,note_on,49,0,10,,,,,,,,,8,,,54,64
10440,note_on,360,0,7,,,,,,,,,5,,,69,0
10440,note_on,49,0,4,,,,,,,,,2,,,54,64
10440,note_on,0,0,8,,,,,,,,,6,,,57,89
10440,note_on,120,0,8,,,,,,,,,6,,,59,0
10500,note_on,60,0,7,,,,,,,,,5,,,68,0
10500,note_on,0,0,7,,,,,,,,,5,,,66,89
10511,note_on,71,0,4,,,,,,,,,2,,,54,0
10511,note_on,71,0,10,,,,,,,,,8,,,54,0
10560,note_on,49,0,10,,,,,,,,,8,,,52,64
10560,note_on,60,0,7,,,,,,,,,5,,,66,0
10560,note_on,0,0,7,,,,,,,,,5,,,68,89
10560,note_on,120,0,8,,,,,,,,,6,,,57,0
10560,note_on,0,0,8,,,,,,,,,6,,,59,89
10560,note_on,49,0,4,,,,,,,,,2,,,52,64
10631,note_on,71,0,4,,,,,,,,,2,,,52,0
10631,note_on,71,0,10,,,,,,,,,8,,,52,0
10680,note_on,49,0,4,,,,,,,,,2,,,50,64
10680,note_on,49,0,10,,,,,,,,,8,,,50,64
10751,note_on,71,0,4,,,,,,,,,2,,,50,0
10751,note_on,71,0,10,,,,,,,,,8,,,50,0
10800,note_on,240,0,7,,,,,,,,,5,,,68,0
10800,note_on,240,0,8,,,,,,,,,6,,,59,0
10800,note_on,0,0,8,,,,,,,,,6,,,57,89
10800,note_on,49,0,10,,,,,,,,,8,,,49,64
10800,note_on,0,0,7,,,,,,,,,5,,,69,89
10800,note_on,10800,0,6,,,,,,,,,4,,,69,108
10800,note_on,480,0,5,,,,,,,,,3,,,71,0
10800,note_on,49,0,4,,,,,,,,,2,,,49,64
10800,note_on,0,0,5,,,,,,,,,3,,,76,89
10871,note_on,71,0,4,,,,,,,,,2,,,49,0
10871,note_on,71,0,10,,,,,,,,,8,,,49,0
10920,note_on,0,0,9,,,,,,,,,7,,,61,89
10920,note_on,600,0,9,,,,,,,,,7,,,64,0
10920,note_on,49,0,10,,,,,,,,,8,,,45,64
10920,note_on,49,0,4,,,,,,,,,2,,,45,64
10991,note_on,71,0,4,,,,,,,,,2,,,45,0
10991,note_on,71,0,10,,,,,,,,,8,,,45,0
11040,note_on,0,0,8,,,,,,,,,6,,,64,108
11040,note_on,240,0,8,,,,,,,,,6,,,57,0
11040,note_on,0,0,9,,,,,,,,,7,,,57,89
11040,note_on,49,0,10,,,,,,,,,8,,,47,64
11040,note_on,49,0,4,,,,,,,,,2,,,47,64
11040,note_on,120,0,9,,,,,,,,,7,,,61,0
11111,note_on,71,0,4,,,,,,,,,2,,,47,0
11111,note_on,71,0,10,,,,,,,,,8,,,47,0
11160,note_on,360,0,7,,,,,,,,,5,,,69,0
11160,note_on,49,0,4,,,,,,,,,2,,,49,64
11160,note_on,49,0,10,,,,,,,,,8,,,49,64
11160,note_on,0,0,7,,,,,,,,,5,,,67,89
11231,note_on,71,0,4,,,,,,,,,2,,,49,0
11231,note_on,71,0,10,,,,,,,,,8,,,49,0
11280,note_on,49,0,4,,,,,,,,,2,,,50,64
11280,note_on,480,0,5,,,,,,,,,3,,,76,0
11280,note_on,120,0,7,,,,,,,,,5,,,67,0
11280,note_on,0,0,7,,,,,,,,,5,,,66,89
11280,note_on,240,0,9,,,,,,,,,7,,,57,0
11280,note_on,0,0,5,,,,,,,,,3,,,78,89
11280,note_on,49,0,10,,,,,,,,,8,,,50,64
11351,note_on,71,0,10,,,,,,,,,8,,,50,0
11351,note_on,71,0,4,,,,,,,,,2,,,50,0
11400,note_on,49,0,10,,,,,,,,,8,,,49,64
11400,note_on,0,0,7,,,,,,,,,5,,,69,89
11400,note_on,49,0,4,,,,,,,,,2,,,49,64
11400,note_on,120,0,7,,,,,,,,,5,,,66,0
11460,note_on,180,0,5,,,,,,,,,3,,,78,0
11471,note_on,71,0,10,,,,,,,,,8,,,49,0
11471,note_on,71,0,4,,,,,,,,,2,,,49,0
11520,note_on,60,0,5,,,,,,,,,3,,,66,89
11520,note_on,0,0,8,,,,,,,,,6,,,62,89
11520,note_on,480,0,8,,,,,,,,,6,,,64,0
11520,note_on,0,0,7,,,,,,,,,5,,,74,89
11520,note_on,120,0,7,,,,,,,,,5,,,69,0
11520,note_on,49,0,4,,,,,,,,,2,,,50,64
11520,note_on,49,0,10,,,,,,,,,8,,,50,64
11591,note_on,71,0,10,,,,,,,,,8,,,50,0
11591,note_on,71,0,4,,,,,,,,,2,,,50,0
11640,note_on,49,0,10,,,,,,,,,8,,,52,64
11640,note_on,0,0,5,,,,,,,,,3,,,67,89
11640,note_on,49,0,4,,,,,,,,,2,,,52,64
11640,note_on,120,0,5,,,,,,,,,3,,,66,0
11711,note_on,71,0,4,,,,,,,,,2,,,52,0
11711,note_on,71,0,10,,,,,,,,,8,,,52,0
11760,note_on,49,0,4,,,,,,,,,2,,,54,64
11760,note_on,49,0,10,,,,,,,,,8,,,54,64
11760,note_on,120,0,5,,,,,,,,,3,,,67,0
11760,note_on,0,0,8,,,,,,,,,6,,,57,89
11760,note_on,240,0,8,,,,,,,,,6,,,62,0
11760,note_on,0,0,6,,,,,,,,,4,,,66,89
11760,note_on,960,0,6,,,,,,,,,4,,,69,0
11760,note_on,0,0,5,,,,,,,,,3,,,69,89
11831,note_on,71,0,10,,,,,,,,,8,,,54,0
11831,note_on,71,0,4,,,,,,,,,2,,,54,0
11880,note_on,49,0,4,,,,,,,,,2,,,52,64
11880,note_on,360,0,7,,,,,,,,,5,,,74,0
11880,note_on,0,0,5,,,,,,,,,3,,,73,89
11880,note_on,0,0,7,,,,,,,,,5,,,73,89
11880,note_on,49,0,10,,,,,,,,,8,,,52,64
11880,note_on,120,0,5,,,,,,,,,3,,,69,0
11951,note_on,71,0,10,,,,,,,,,8,,,52,0
11951,note_on,71,0,4,,,,,,,,,2,,,52,0
12000,note_on,49,0,10,,,,,,,,,8,,,50,64
12000,note_on,0,0,7,,,,,,,,,5,,,71,89
12000,note_on,240,0,8,,,,,,,,,6,,,57,0
12000,note_on,0,0,8,,,,,,,,,6,,,59,89
12000,note_on,120,0,7,,,,,,,,,5,,,73,0
12000,note_on,49,0,4,,,,,,,,,2,,,50,64
12000,note_on,720,0,9,,,,,,,,,7,,,62,108
12000,note_on,120,0,5,,,,,,,,,3,,,73,0
12000,note_on,0,0,5,,,,,,,,,3,,,78,89
12071,note_on,71,0,4,,,,,,,,,2,,,50,0
12071,note_on,71,0,10,,,,,,,,,8,,,50,0
12090,note_on,90,0,7,,,,,,,,,5,,,71,0
12120,note_on,0,0,8,,,,,,,,,6,,,61,89
12120,note_on,49,0,4,,,,,,,,,2,,,49,64
12120,note_on,49,0,10,,,,,,,,,8,,,49,64
12120,note_on,30,0,7,,,,,,,,,5,,,69,89
12120,note_on,120,0,8,,,,,,,,,6,,,59,0
12191,note_on,71,0,4,,,,,,,,,2,,,49,0
12191,note_on,71,0,10,,,,,,,,,8,,,49,0
12240,note_on,49,0,10,,,,,,,,,8,,,47,64
12240,note_on,480,0,6,,,,,,,,,4,,,66,0
12240,note_on,0,0,6,,,,,,,,,4,,,67,89
12240,note_on,120,0,7,,,,,,,,,5,,,69,0
12240,note_on,0,0,7,,,,,,,,,5,,,71,89
12240,note_on,0,0,8,,,,,,,,,6,,,62,89
12240,note_on,49,0,4,,,,,,,,,2,,,47,64
12240,note_on,120,0,8,,,,,,,,,6,,,61,0
12311,note_on,71,0,4,,,,,,,,,2,,,47,0
12311,note_on,71,0,10,,,,,,,,,8,,,47,0
12360,note_on,49,0,10,,,,,,,,,8,,,45,64
12360,note_on,49,0,4,,,,,,,,,2,,,45,64
12431,note_on,71,0,4,,,,,,,,,2,,,45,0
12431,note_on,71,0,10,,,,,,,,,8,,,45,0
12480,note_on,49,0,4,,,,,,,,,2,,,47,64
12480,note_on,0,0,5,,,,,,,,,3,,,76,89
12480,note_on,240,0,8,,,,,,,,,6,,,62,0
12480,note_on,49,0,10,,,,,,,,,8,,,47,64
12480,note_on,240,0,7,,,,,,,,,5,,,71,0
12480,note_on,480,0,9,,,,,,,,,7,,,62,0
12480,note_on,0,0,9,,,,,,,,,7,,,57,89
12480,note_on,480,0,5,,,,,,,,,3,,,78,0
12480,note_on,0,0,8,,,,,,,,,6,,,64,89
12480,note_on,0,0,7,,,,,,,,,5,,,64,89
12551,note_on,71,0,10,,,,,,,,,8,,,47,0
12551,note_on,71,0,4,,,,,,,,,2,,,47,0
12600,note_on,49,0,4,,,,,,,,,2,,,49,64
12600,note_on,49,0,10,,,,,,,,,8,,,49,64
12671,note_on,71,0,10,,,,,,,,,8,,,49,0
12671,note_on,71,0,4,,,,,,,,,2,,,49,0
12720,note_on,0,0,8,,,,,,,,,6,,,57,89
12720,note_on,240,0,8,,,,,,,,,6,,,64,0
12720,note_on,480,0,6,,,,,,,,,4,,,67,0
12720,note_on,0,0,6,,,,,,,,,4,,,66,89
12720,note_on,49,0,10,,,,,,,,,8,,,50,64
12720,note_on,49,0,4,,,,,,,,,2,,,50,64
12720,note_on,0,0,7,,,,,,,,,5,,,66,89
12720,note_on,12480,0,2,,,,,,,,,0,,,81,64
12720,note_on,240,0,7,,,,,,,,,5,,,64,0
12791,note_on,71,0,10,,,,,,,,,8,,,50,0
12791,note_on,71,0,4,,,,,,,,,2,,,50,0
12840,note_on,49,0,10,,,,,,,,,8,,,52,64
12840,note_on,0,0,5,,,,,,,,,3,,,69,89
12840,note_on,120,0,7,,,,,,,,,5,,,66,0
12840,note_on,0,0,7,,,,,,,,,5,,,67,89
12840,note_on,49,0,4,,,,,,,,,2,,,52,64
12840,note_on,360,0,9,,,,,,,,,7,,,57,0
12840,note_on,0,0,9,,,,,,,,,7,,,55,89
12840,note_on,360,0,5,,,,,,,,,3,,,76,0
12911,note_on,71,0,4,,,,,,,,,2,,,52,0
12911,note_on,71,0,10,,,,,,,,,8,,,52,0
12960,note_on,120,0,5,,,,,,,,,3,,,69,0
12960,note_on,49,0,10,,,,,,,,,8,,,54,64
12960,note_on,120,0,9,,,,,,,,,7,,,55,0
12960,note_on,120,0,7,,,,,,,,,5,,,67,0
12960,note_on,0,0,5,,,,,,,,,3,,,74,89
12960,note_on,0,0,7,,,,,,,,,5,,,69,89
12960,note_on,0,0,9,,,,,,,,,7,,,54,89
12960,note_on,240,0,8,,,,,,,,,6,,,57,0
12960,note_on,49,0,4,,,,,,,,,2,,,54,64
13031,note_on,71,0,4,,,,,,,,,2,,,54,0
13031,note_on,71,0,10,,,,,,,,,8,,,54,0
13080,note_on,120,0,9,,,,,,,,,7,,,54,0
13080,note_on,0,0,9,,,,,,,,,7,,,50,89
13080,note_on,49,0,10,,,,,,,,,8,,,55,64
13080,note_on,49,0,4,,,,,,,,,2,,,55,64
13151,note_on,71,0,4,,,,,,,,,2,,,55,0
13151,note_on,71,0,10,,,,,,,,,8,,,55,0
13200,note_on,0,0,6,,,,,,,,,4,,,64,89
13200,note_on,49,0,4,,,,,,,,,2,,,57,64
13200,note_on,0,0,9,,,,,,,,,7,,,57,89
13200,note_on,120,0,9,,,,,,,,,7,,,50,0
13200,note_on,49,0,10,,,,,,,,,8,,,57,64
13200,note_on,480,0,6,,,,,,,,,4,,,66,0
13271,note_on,71,0,4,,,,,,,,,2,,,57,0
13271,note_on,71,0,10,,,,,,,,,8,,,57,0
13320,note_on,49,0,10,,,,,,,,,8,,,55,64
13320,note_on,49,0,4,,,,,,,,,2,,,55,64
13320,note_on,0,0,5,,,,,,,,,3,,,73,89
13320,note_on,360,0,5,,,,,,,,,3,,,74,0
13380,note_on,0,0,5,,,,,,,,,3,,,71,89
13380,note_on,60,0,5,,,,,,,,,3,,,73,0
13391,note_on,71,0,10,,,,,,,,,8,,,55,0
13391,note_on,71,0,4,,,,,,,,,2,,,55,0
13440,note_on,0,0,7,,,,,,,,,5,,,69,89
13440,note_on,49,0,10,,,,,,,,,8,,,54,64
13440,note_on,49,0,4,,,,,,,,,2,,,54,64
13440,note_on,0,0,5,,,,,,,,,3,,,73,89
13440,note_on,60,0,5,,,,,,,,,3,,,71,0
13440,note_on,480,0,7,,,,,,,,,5,,,69,0
13511,note_on,71,0,10,,,,,,,,,8,,,54,0
13511,note_on,71,0,4,,,,,,,,,2,,,54,0
13560,note_on,49,0,4,,,,,,,,,2,,,52,64
13560,note_on,49,0,10,,,,,,,,,8,,,52,64
13560,note_on,600,0,8,,,,,,,,,6,,,64,89
13631,note_on,71,0,4,,,,,,,,,2,,,52,0
13631,note_on,71,0,10,,,,,,,,,8,,,52,0
13680,note_on,0,0,6,,,,,,,,,4,,,69,89
13680,note_on,480,0,6,,,,,,,,,4,,,64,0
13680,note_on,49,0,10,,,,,,,,,8,,,50,64
13680,note_on,0,0,5,,,,,,,,,3,,,74,89
13680,note_on,240,0,5,,,,,,,,,3,,,73,0
13680,note_on,960,0,2,,,,,,,,,0,,,81,0
13680,note_on,0,0,2,,,,,,,,,0,,,78,64
13680,note_on,240,0,7,,,,,,,,,5,,,69,0
13680,note_on,49,0,4,,,,,,,,,2,,,50,64
13680,note_on,120,0,8,,,,,,,,,6,,,64,0
13680,note_on,0,0,8,,,,,,,,,6,,,66,89
13751,note_on,71,0,4,,,,,,,,,2,,,50,0
13751,note_on,71,0,10,,,,,,,,,8,,,50,0
13800,note_on,120,0,8,,,,,,,,,6,,,66,0
13800,note_on,49,0,4,,,,,,,,,2,,,52,64
13800,note_on,0,0,9,,,,,,,,,7,,,55,89
13800,note_on,600,0,9,,,,,,,,,7,,,57,0
13800,note_on,49,0,10,,,,,,,,,8,,,52,64
13800,note_on,0,0,8,,,,,,,,,6,,,67,89
13860,note_on,180,0,5,,,,,,,,,3,,,74,0
13871,note_on,71,0,10,,,,,,,,,8,,,52,0
13871,note_on,71,0,4,,,,,,,,,2,,,52,0
13920,note_on,120,0,8,,,,,,,,,6,,,67,0
13920,note_on,0,0,8,,,,,,,,,6,,,69,89
13920,note_on,49,0,10,,,,,,,,,8,,,50,64
13920,note_on,60,0,5,,,,,,,,,3,,,74,108
13920,note_on,120,0,9,,,,,,,,,7,,,55,0
13920,note_on,0,0,9,,,,,,,,,7,,,54,89
13920,note_on,49,0,4,,,,,,,,,2,,,50,64
13991,note_on,71,0,10,,,,,,,,,8,,,50,0
13991,note_on,71,0,4,,,,,,,,,2,,,50,0
14040,note_on,49,0,10,,,,,,,,,8,,,49,64
14040,note_on,120,0,9,,,,,,,,,7,,,54,0
14040,note_on,0,0,9,,,,,,,,,7,,,52,89
14040,note_on,49,0,4,,,,,,,,,2,,,49,64
14040,note_on,360,0,7,,,,,,,,,5,,,57,89
14111,note_on,71,0,4,,,,,,,,,2,,,49,0
14111,note_on,71,0,10,,,,,,,,,8,,,49,0
14160,note_on,49,0,10,,,,,,,,,8,,,47,64
14160,note_on,0,0,6,,,,,,,,,4,,,71,89
14160,note_on,480,0,6,,,,,,,,,4,,,69,0
14160,note_on,120,0,7,,,,,,,,,5,,,57,0
14160,note_on,0,0,9,,,,,,,,,7,,,50,89
14160,note_on,120,0,9,,,,,,,,,7,,,52,0
14160,note_on,0,0,7,,,,,,,,,5,,,62,89
14160,note_on,49,0,4,,,,,,,,,2,,,47,64
14160,note_on,480,0,2,,,,,,,,,0,,,78,0
14160,note_on,0,0,2,,,,,,,,,0,,,79,64
14160,note_on,240,0,8,,,,,,,,,6,,,69,0
14160,note_on,0,0,8,,,,,,,,,6,,,67,89
14231,note_on,71,0,10,,,,,,,,,8,,,47,0
14231,note_on,71,0,4,,,,,,,,,2,,,47,0
14280,note_on,49,0,10,,,,,,,,,8,,,45,64
14280,note_on,49,0,4,,,,,,,,,2,,,45,64
14340,note_on,180,0,6,,,,,,,,,4,,,71,0
14351,note_on,71,0,10,,,,,,,,,8,,,45,0
14351,note_on,71,0,4,,,,,,,,,2,,,45,0
14400,note_on,49,0,4,,,,,,,,,2,,,47,64
14400,note_on,49,0,10,,,,,,,,,8,,,47,64
14400,note_on,0,0,5,,,,,,,,,3,,,71,89
14400,note_on,60,0,6,,,,,,,,,4,,,62,89
14400,note_on,240,0,9,,,,,,,,,7,,,50,0
14400,note_on,480,0,5,,,,,,,,,3,,,74,0
14471,note_on,71,0,4,,,,,,,,,2,,,47,0
14471,note_on,71,0,10,,,,,,,,,8,,,47,0
14520,note_on,0,0,6,,,,,,,,,4,,,64,89
14520,note_on,49,0,10,,,,,,,,,8,,,49,64
14520,note_on,49,0,4,,,,,,,,,2,,,49,64
14520,note_on,120,0,6,,,,,,,,,4,,,62,0
14591,note_on,71,0,10,,,,,,,,,8,,,49,0
14591,note_on,71,0,4,,,,,,,,,2,,,49,0
14640,note_on,240,0,5,,,,,,,,,3,,,71,0
14640,note_on,0,0,5,,,,,,,,,3,,,69,89
14640,note_on,49,0,10,,,,,,,,,8,,,50,64
14640,note_on,0,0,2,,,,,,,,,0,,,78,64
14640,note_on,49,0,4,,,,,,,,,2,,,50,64
14640,note_on,480,0,2,,,,,,,,,0,,,79,0
14640,note_on,480,0,8,,,,,,,,,6,,,67,0
14640,note_on,120,0,6,,,,,,,,,4,,,64,0
14640,note_on,0,0,6,,,,,,,,,4,,,66,89
14640,note_on,0,0,8,,,,,,,,,6,,,62,89
14711,note_on,71,0,4,,,,,,,,,2,,,50,0
14711,note_on,71,0,10,,,,,,,,,8,,,50,0
14760,note_on,0,0,6,,,,,,,,,4,,,69,89
14760,note_on,49,0,10,,,,,,,,,8,,,52,64
14760,note_on,120,0,6,,,,,,,,,4,,,66,0
14760,note_on,49,0,4,,,,,,,,,2,,,52,64
14831,note_on,71,0,4,,,,,,,,,2,,,52,0
14831,note_on,71,0,10,,,,,,,,,8,,,52,0
14880,note_on,0,0,6,,,,,,,,,4,,,74,89
14880,note_on,0,0,5,,,,,,,,,3,,,62,89
14880,note_on,240,0,5,,,,,,,,,3,,,69,0
14880,note_on,120,0,6,,,,,,,,,4,,,69,0
14880,note_on,49,0,10,,,,,,,,,8,,,54,64
14880,note_on,240,0,8,,,,,,,,,6,,,62,0
14880,note_on,49,0,4,,,,,,,,,2,,,54,64
14880,note_on,720,0,7,,,,,,,,,5,,,62,0
14880,note_on,0,0,7,,,,,,,,,5,,,61,89
14951,note_on,71,0,10,,,,,,,,,8,,,54,0
14951,note_on,71,0,4,,,,,,,,,2,,,54,0
15000,note_on,600,0,9,,,,,,,,,7,,,59,89
15000,note_on,49,0,4,,,,,,,,,2,,,56,64
15000,note_on,120,0,7,,,,,,,,,5,,,61,0
15000,note_on,0,0,7,,,,,,,,,5,,,59,89
15000,note_on,49,0,10,,,,,,,,,8,,,56,64
15071,note_on,71,0,4,,,,,,,,,2,,,56,0
15071,note_on,71,0,10,,,,,,,,,8,,,56,0
15120,note_on,120,0,7,,,,,,,,,5,,,59,0
15120,note_on,0,0,7,,,,,,,,,5,,,61,89
15120,note_on,240,0,5,,,,,,,,,3,,,62,0
15120,note_on,49,0,10,,,,,,,,,8,,,57,64
15120,note_on,120,0,9,,,,,,,,,7,,,59,0
15120,note_on,0,0,9,,,,,,,,,7,,,52,89
15120,note_on,0,0,2,,,,,,,,,0,,,76,64
15120,note_on,480,0,2,,,,,,,,,0,,,78,0
15120,note_on,49,0,4,,,,,,,,,2,,,57,64
15191,note_on,71,0,10,,,,,,,,,8,,,57,0
15191,note_on,71,0,4,,,,,,,,,2,,,57,0
15240,note_on,49,0,10,,,,,,,,,8,,,59,64
15240,note_on,120,0,7,,,,,,,,,5,,,61,0
15240,note_on,0,0,7,,,,,,,,,5,,,62,89
15240,note_on,49,0,4,,,,,,,,,2,,,59,64
15311,note_on,71,0,10,,,,,,,,,8,,,59,0
15311,note_on,71,0,4,,,,,,,,,2,,,59,0
15360,note_on,0,0,9,,,,,,,,,7,,,57,89
15360,note_on,240,0,9,,,,,,,,,7,,,52,0
15360,note_on,240,0,5,,,,,,,,,3,,,69,89
15360,note_on,480,0,6,,,,,,,,,4,,,74,0
15360,note_on,0,0,6,,,,,,,,,4,,,73,89
15360,note_on,120,0,7,,,,,,,,,5,,,62,0
15360,note_on,0,0,7,,,,,,,,,5,,,64,89
15360,note_on,49,0,10,,,,,,,,,8,,,61,64
15360,note_on,49,0,4,,,,,,,,,2,,,61,64
15431,note_on,71,0,10,,,,,,,,,8,,,61,0
15431,note_on,71,0,4,,,,,,,,,2,,,61,0
15480,note_on,0,0,5,,,,,,,,,3,,,68,89
15480,note_on,120,0,5,,,,,,,,,3,,,69,0
15480,note_on,120,0,9,,,,,,,,,7,,,57,0
15480,note_on,0,0,9,,,,,,,,,7,,,59,89
15480,note_on,120,0,6,,,,,,,,,4,,,73,0
15480,note_on,49,0,10,,,,,,,,,8,,,62,64
15480,note_on,49,0,4,,,,,,,,,2,,,62,64
15480,note_on,0,0,6,,,,,,,,,4,,,71,89
15551,note_on,71,0,10,,,,,,,,,8,,,62,0
15551,note_on,71,0,4,,,,,,,,,2,,,62,0
15600,note_on,15360,0,3,,,,,,,,,1,,,76,64
15600,note_on,49,0,10,,,,,,,,,8,,,61,64
15600,note_on,120,0,9,,,,,,,,,7,,,59,0
15600,note_on,0,0,5,,,,,,,,,3,,,69,89
15600,note_on,0,0,9,,,,,,,,,7,,,61,89
15600,note_on,120,0,5,,,,,,,,,3,,,68,0
15600,note_on,0,0,2,,,,,,,,,0,,,81,64
15600,note_on,480,0,2,,,,,,,,,0,,,76,0
15600,note_on,0,0,6,,,,,,,,,4,,,76,89
15600,note_on,49,0,4,,,,,,,,,2,,,61,64
15600,note_on,120,0,6,,,,,,,,,4,,,71,0
15671,note_on,71,0,4,,,,,,,,,2,,,61,0
15671,note_on,71,0,10,,,,,,,,,8,,,61,0
15720,note_on,120,0,6,,,,,,,,,4,,,76,0
15720,note_on,0,0,6,,,,,,,,,4,,,64,89
15720,note_on,0,0,5,,,,,,,,,3,,,73,89
15720,note_on,49,0,10,,,,,,,,,8,,,57,64
15720,note_on,120,0,5,,,,,,,,,3,,,69,0
15720,note_on,49,0,4,,,,,,,,,2,,,57,64
15791,note_on,71,0,10,,,,,,,,,8,,,57,0
15791,note_on,71,0,4,,,,,,,,,2,,,57,0
15840,note_on,120,0,5,,,,,,,,,3,,,73,0
15840,note_on,0,0,5,,,,,,,,,3,,,76,89
15840,note_on,0,0,9,,,,,,,,,7,,,59,89
15840,note_on,49,0,4,,,,,,,,,2,,,56,64
15840,note_on,120,0,6,,,,,,,,,4,,,64,0
15840,note_on,240,0,9,,,,,,,,,7,,,61,0
15840,note_on,0,0,6,,,,,,,,,4,,,69,89
15840,note_on,49,0,10,,,,,,,,,8,,,56,64
15911,note_on,71,0,10,,,,,,,,,8,,,56,0
15911,note_on,71,0,4,,,,,,,,,2,,,56,0
15960,note_on,49,0,4,,,,,,,,,2,,,54,64
15960,note_on,0,0,9,,,,,,,,,7,,,57,89
15960,note_on,49,0,10,,,,,,,,,8,,,54,64
15960,note_on,120,0,9,,,,,,,,,7,,,59,0
16031,note_on,71,0,4,,,,,,,,,2,,,54,0
16031,note_on,71,0,10,,,,,,,,,8,,,54,0
16080,note_on,0,0,2,,,,,,,,,0,,,83,64
16080,note_on,480,0,2,,,,,,,,,0,,,81,0
16080,note_on,0,0,9,,,,,,,,,7,,,64,89
16080,note_on,120,0,9,,,,,,,,,7,,,57,0
16080,note_on,49,0,10,,,,,,,,,8,,,52,64
16080,note_on,49,0,4,,,,,,,,,2,,,52,64
16151,note_on,71,0,4,,,,,,,,,2,,,52,0
16151,note_on,71,0,10,,,,,,,,,8,,,52,0
16200,note_on,360,0,6,,,,,,,,,4,,,69,0
16200,note_on,0,0,6,,,,,,,,,4,,,68,89
16200,note_on,49,0,10,,,,,,,,,8,,,50,64
16200,note_on,49,0,4,,,,,,,,,2,,,50,64
16260,note_on,0,0,6,,,,,,,,,4,,,66,89
16260,note_on,60,0,6,,,,,,,,,4,,,68,0
16271,note_on,71,0,10,,,,,,,,,8,,,50,0
16271,note_on,71,0,4,,,,,,,,,2,,,50,0
16320,note_on,0,0,5,,,,,,,,,3,,,64,89
16320,note_on,480,0,5,,,,,,,,,3,,,76,0
16320,note_on,60,0,6,,,,,,,,,4,,,66,0
16320,note_on,0,0,6,,,,,,,,,4,,,68,89
16320,note_on,960,0,7,,,,,,,,,5,,,64,0
16320,note_on,0,0,7,,,,,,,,,5,,,71,89
16320,note_on,49,0,4,,,,,,,,,2,,,49,64
16320,note_on,49,0,10,,,,,,,,,8,,,49,64
16391,note_on,71,0,10,,,,,,,,,8,,,49,0
16391,note_on,71,0,4,,,,,,,,,2,,,49,0
16440,note_on,49,0,4,,,,,,,,,2,,,47,64
16440,note_on,49,0,10,,,,,,,,,8,,,47,64
16511,note_on,71,0,10,,,,,,,,,8,,,47,0
16511,note_on,71,0,4,,,,,,,,,2,,,47,0
16560,note_on,0,0,9,,,,,,,,,7,,,57,89
16560,note_on,49,0,4,,,,,,,,,2,,,45,64
16560,note_on,49,0,10,,,,,,,,,8,,,45,64
16560,note_on,480,0,9,,,,,,,,,7,,,64,0
16560,note_on,0,0,7,,,,,,,,,5,,,73,89
16560,note_on,960,0,3,,,,,,,,,1,,,76,0
16560,note_on,0,0,3,,,,,,,,,1,,,73,64
16560,note_on,0,0,6,,,,,,,,,4,,,69,89
16560,note_on,240,0,6,,,,,,,,,4,,,68,0
16560,note_on,240,0,7,,,,,,,,,5,,,71,0
16631,note_on,71,0,4,,,,,,,,,2,,,45,0
16631,note_on,71,0,10,,,,,,,,,8,,,45,0
16680,note_on,600,0,2,,,,,,,,,0,,,83,0
16680,note_on,49,0,4,,,,,,,,,2,,,47,64
16680,note_on,49,0,10,,,,,,,,,8,,,47,64
16680,note_on,0,0,2,,,,,,,,,0,,,81,64
16740,note_on,180,0,9,,,,,,,,,7,,,57,0
16740,note_on,60,0,2,,,,,,,,,0,,,81,0
16740,note_on,0,0,2,,,,,,,,,0,,,80,64
16740,note_on,180,0,6,,,,,,,,,4,,,69,0
16751,note_on,71,0,10,,,,,,,,,8,,,47,0
16751,note_on,71,0,4,,,,,,,,,2,,,47,0
16800,note_on,49,0,10,,,,,,,,,8,,,45,64
16800,note_on,60,0,9,,,,,,,,,7,,,57,108
16800,note_on,49,0,4,,,,,,,,,2,,,45,64
16800,note_on,60,0,2,,,,,,,,,0,,,80,0
16800,note_on,0,0,2,,,,,,,,,0,,,81,64
16800,note_on,240,0,7,,,,,,,,,5,,,73,0
16800,note_on,60,0,6,,,,,,,,,4,,,76,89
16800,note_on,480,0,5,,,,,,,,,3,,,64,0
16860,note_on,60,0,2,,,,,,,,,0,,,81,0
16860,note_on,0,0,2,,,,,,,,,0,,,83,64
16871,note_on,71,0,10,,,,,,,,,8,,,45,0
16871,note_on,71,0,4,,,,,,,,,2,,,45,0
16920,note_on,49,0,4,,,,,,,,,2,,,43,64
16920,note_on,49,0,10,,,,,,,,,8,,,43,64
16920,note_on,120,0,5,,,,,,,,,3,,,64,89
16920,note_on,0,0,2,,,,,,,,,0,,,85,64
16920,note_on,60,0,2,,,,,,,,,0,,,83,0
16991,note_on,71,0,10,,,,,,,,,8,,,43,0
16991,note_on,71,0,4,,,,,,,,,2,,,43,0
17040,note_on,480,0,3,,,,,,,,,1,,,73,0
17040,note_on,49,0,10,,,,,,,,,8,,,42,64
17040,note_on,2160,0,8,,,,,,,,,6,,,66,108
17040,note_on,240,0,6,,,,,,,,,4,,,76,0
17040,note_on,0,0,6,,,,,,,,,4,,,78,89
17040,note_on,120,0,5,,,,,,,,,3,,,64,0
17040,note_on,49,0,4,,,,,,,,,2,,,42,64
17040,note_on,0,0,3,,,,,,,,,1,,,74,64
17040,note_on,0,0,5,,,,,,,,,3,,,69,89
17111,note_on,71,0,4,,,,,,,,,2,,,42,0
17111,note_on,71,0,10,,,,,,,,,8,,,42,0
17160,note_on,0,0,5,,,,,,,,,3,,,67,89
17160,note_on,240,0,2,,,,,,,,,0,,,85,0
17160,note_on,49,0,10,,,,,,,,,8,,,40,64
17160,note_on,49,0,4,,,,,,,,,2,,,40,64
17160,note_on,120,0,5,,,,,,,,,3,,,69,0
17160,note_on,0,0,2,,,,,,,,,0,,,86,64
17220,note_on,60,0,2,,,,,,,,,0,,,86,0
17220,note_on,0,0,2,,,,,,,,,0,,,85,64
17231,note_on,71,0,10,,,,,,,,,8,,,40,0
17231,note_on,71,0,4,,,,,,,,,2,,,40,0
17280,note_on,120,0,5,,,,,,,,,3,,,67,0
17280,note_on,240,0,6,,,,,,,,,4,,,78,0
17280,note_on,0,0,5,,,,,,,,,3,,,66,89
17280,note_on,480,0,7,,,,,,,,,5,,,66,108
17280,note_on,49,0,10,,,,,,,,,8,,,38,64
17280,note_on,0,0,9,,,,,,,,,7,,,50,89
17280,note_on,49,0,4,,,,,,,,,2,,,38,64
17280,note_on,60,0,2,,,,,,,,,0,,,85,0
17280,note_on,0,0,2,,,,,,,,,0,,,83,64
17280,note_on,480,0,9,,,,,,,,,7,,,57,0
17280,note_on,0,0,6,,,,,,,,,4,,,71,89
17351,note_on,71,0,4,,,,,,,,,2,,,38,0
17351,note_on,71,0,10,,,,,,,,,8,,,38,0
17400,note_on,0,0,5,,,,,,,,,3,,,67,89
17400,note_on,120,0,5,,,,,,,,,3,,,66,0
17400,note_on,49,0,10,,,,,,,,,8,,,40,64
17400,note_on,49,0,4,,,,,,,,,2,,,40,64
17471,note_on,71,0,4,,,,,,,,,2,,,40,0
17471,note_on,71,0,10,,,,,,,,,8,,,40,0
17520,note_on,49,0,4,,,,,,,,,2,,,42,64
17520,note_on,0,0,6,,,,,,,,,4,,,78,89
17520,note_on,480,0,3,,,,,,,,,1,,,74,0
17520,note_on,240,0,6,,,,,,,,,4,,,71,0
17520,note_on,0,0,3,,,,,,,,,1,,,73,64
17520,note_on,0,0,5,,,,,,,,,3,,,69,89
17520,note_on,240,0,9,,,,,,,,,7,,,50,0
17520,note_on,49,0,10,,,,,,,,,8,,,42,64
17520,note_on,120,0,5,,,,,,,,,3,,,67,0
17591,note_on,71,0,10,,,,,,,,,8,,,42,0
17591,note_on,71,0,4,,,,,,,,,2,,,42,0
17640,note_on,0,0,5,,,,,,,,,3,,,71,89
17640,note_on,49,0,10,,,,,,,,,8,,,43,64
17640,note_on,120,0,5,,,,,,,,,3,,,69,0
17640,note_on,49,0,4,,,,,,,,,2,,,43,64
17711,note_on,71,0,4,,,,,,,,,2,,,43,0
17711,note_on,71,0,10,,,,,,,,,8,,,43,0
17760,note_on,49,0,10,,,,,,,,,8,,,45,64
17760,note_on,480,0,7,,,,,,,,,5,,,66,0
17760,note_on,0,0,5,,,,,,,,,3,,,73,89
17760,note_on,0,0,7,,,,,,,,,5,,,61,89
17760,note_on,120,0,5,,,,,,,,,3,,,71,0
17760,note_on,49,0,4,,,,,,,,,2,,,45,64
17760,note_on,240,0,9,,,,,,,,,7,,,54,89
17760,note_on,0,0,2,,,,,,,,,0,,,81,64
17760,note_on,480,0,2,,,,,,,,,0,,,83,0
17831,note_on,71,0,10,,,,,,,,,8,,,45,0
17831,note_on,71,0,4,,,,,,,,,2,,,45,0
17880,note_on,120,0,5,,,,,,,,,3,,,73,0
17880,note_on,0,0,5,,,,,,,,,3,,,69,89
17880,note_on,49,0,4,,,,,,,,,2,,,42,64
17880,note_on,49,0,10,,,,,,,,,8,,,42,64
17951,note_on,71,0,4,,,,,,,,,2,,,42,0
17951,note_on,71,0,10,,,,,,,,,8,,,42,0
18000,note_on,0,0,6,,,,,,,,,4,,,71,89
18000,note_on,480,0,6,,,,,,,,,4,,,78,0
18000,note_on,49,0,4,,,,,,,,,2,,,43,64
18000,note_on,480,0,3,,,,,,,,,1,,,73,0
18000,note_on,0,0,3,,,,,,,,,1,,,71,64
18000,note_on,120,0,5,,,,,,,,,3,,,69,0
18000,note_on,240,0,7,,,,,,,,,5,,,61,0
18000,note_on,0,0,9,,,,,,,,,7,,,59,89
18000,note_on,0,0,5,,,,,,,,,3,,,71,89
18000,note_on,49,0,10,,,,,,,,,8,,,43,64
18000,note_on,960,0,8,,,,,,,,,6,,,66,0
18000,note_on,0,0,8,,,,,,,,,6,,,62,89
18000,note_on,240,0,9,,,,,,,,,7,,,54,0
18071,note_on,71,0,4,,,,,,,,,2,,,43,0
18071,note_on,71,0,10,,,,,,,,,8,,,43,0
18120,note_on,120,0,9,,,,,,,,,7,,,59,0
18120,note_on,0,0,9,,,,,,,,,7,,,57,89
18120,note_on,49,0,10,,,,,,,,,8,,,54,64
18120,note_on,49,0,4,,,,,,,,,2,,,54,64
18191,note_on,71,0,10,,,,,,,,,8,,,54,0
18191,note_on,71,0,4,,,,,,,,,2,,,54,0
18240,note_on,240,0,7,,,,,,,,,5,,,67,89
18240,note_on,49,0,10,,,,,,,,,8,,,52,64
18240,note_on,0,0,2,,,,,,,,,0,,,79,64
18240,note_on,49,0,4,,,,,,,,,2,,,52,64
18240,note_on,240,0,6,,,,,,,,,4,,,71,0
18240,note_on,0,0,9,,,,,,,,,7,,,59,89
18240,note_on,120,0,9,,,,,,,,,7,,,57,0
18240,note_on,480,0,2,,,,,,,,,0,,,81,0
18311,note_on,71,0,4,,,,,,,,,2,,,52,0
18311,note_on,71,0,10,,,,,,,,,8,,,52,0
18360,note_on,49,0,10,,,,,,,,,8,,,50,64
18360,note_on,49,0,4,,,,,,,,,2,,,50,64
18431,note_on,71,0,10,,,,,,,,,8,,,50,0
18431,note_on,71,0,4,,,,,,,,,2,,,50,0
18480,note_on,480,0,8,,,,,,,,,6,,,62,0
18480,note_on,0,0,8,,,,,,,,,6,,,64,89
18480,note_on,49,0,4,,,,,,,,,2,,,49,64
18480,note_on,480,0,3,,,,,,,,,1,,,71,0
18480,note_on,0,0,3,,,,,,,,,1,,,76,64
18480,note_on,480,0,5,,,,,,,,,3,,,71,0
18480,note_on,0,0,5,,,,,,,,,3,,,69,89
18480,note_on,0,0,9,,,,,,,,,7,,,52,89
18480,note_on,0,0,7,,,,,,,,,5,,,69,89
18480,note_on,240,0,7,,,,,,,,,5,,,67,0
18480,note_on,49,0,10,,,,,,,,,8,,,49,64
18480,note_on,240,0,9,,,,,,,,,7,,,59,0
18551,note_on,71,0,10,,,,,,,,,8,,,49,0
18551,note_on,71,0,4,,,,,,,,,2,,,49,0
18600,note_on,49,0,10,,,,,,,,,8,,,45,64
18600,note_on,49,0,4,,,,,,,,,2,,,45,64
18600,note_on,360,0,2,,,,,,,,,0,,,79,0
18600,note_on,0,0,2,,,,,,,,,0,,,83,64
18660,note_on,180,0,9,,,,,,,,,7,,,52,0
18671,note_on,71,0,4,,,,,,,,,2,,,45,0
18671,note_on,71,0,10,,,,,,,,,8,,,45,0
18720,note_on,49,0,10,,,,,,,,,8,,,47,64
18720,note_on,120,0,2,,,,,,,,,0,,,83,0
18720,note_on,0,0,2,,,,,,,,,0,,,81,64
18720,note_on,480,0,6,,,,,,,,,4,,,76,89
18720,note_on,49,0,4,,,,,,,,,2,,,47,64
18720,note_on,240,0,5,,,,,,,,,3,,,69,0
18720,note_on,60,0,9,,,,,,,,,7,,,57,108
18791,note_on,71,0,4,,,,,,,,,2,,,47,0
18791,note_on,71,0,10,,,,,,,,,8,,,47,0
18840,note_on,0,0,2,,,,,,,,,0,,,79,64
18840,note_on,49,0,4,,,,,,,,,2,,,49,64
18840,note_on,49,0,10,,,,,,,,,8,,,49,64
18840,note_on,120,0,2,,,,,,,,,0,,,81,0
18911,note_on,71,0,4,,,,,,,,,2,,,49,0
18911,note_on,71,0,10,,,,,,,,,8,,,49,0
18960,note_on,49,0,4,,,,,,,,,2,,,50,64
18960,note_on,0,0,8,,,,,,,,,6,,,62,89
18960,note_on,120,0,2,,,,,,,,,0,,,79,0
18960,note_on,0,0,2,,,,,,,,,0,,,78,64
18960,note_on,480,0,3,,,,,,,,,1,,,76,0
18960,note_on,0,0,3,,,,,,,,,1,,,78,64
18960,note_on,240,0,6,,,,,,,,,4,,,76,0
18960,note_on,49,0,10,,,,,,,,,8,,,50,64
18960,note_on,0,0,6,,,,,,,,,4,,,69,89
18960,note_on,480,0,8,,,,,,,,,6,,,64,0
19031,note_on,71,0,10,,,,,,,,,8,,,50,0
19031,note_on,71,0,4,,,,,,,,,2,,,50,0
19080,note_on,0,0,7,,,,,,,,,5,,,67,89
19080,note_on,0,0,2,,,,,,,,,0,,,79,64
19080,note_on,120,0,2,,,,,,,,,0,,,78,0
19080,note_on,49,0,10,,,,,,,,,8,,,52,64
19080,note_on,600,0,7,,,,,,,,,5,,,69,0
19080,note_on,49,0,4,,,,,,,,,2,,,52,64
19151,note_on,71,0,4,,,,,,,,,2,,,52,0
19151,note_on,71,0,10,,,,,,,,,8,,,52,0
19200,note_on,0,0,7,,,,,,,,,5,,,66,89
19200,note_on,480,0,5,,,,,,,,,3,,,81,108
19200,note_on,480,0,9,,,,,,,,,7,,,57,0
19200,note_on,0,0,9,,,,,,,,,7,,,50,89
19200,note_on,49,0,4,,,,,,,,,2,,,54,64
19200,note_on,120,0,7,,,,,,,,,5,,,67,0
19200,note_on,120,0,2,,,,,,,,,0,,,79,0
19200,note_on,0,0,2,,,,,,,,,0,,,81,64
19200,note_on,49,0,10,,,,,,,,,8,,,54,64
19271,note_on,71,0,4,,,,,,,,,2,,,54,0
19271,note_on,71,0,10,,,,,,,,,8,,,54,0
19320,note_on,120,0,7,,,,,,,,,5,,,66,0
19320,note_on,0,0,7,,,,,,,,,5,,,62,89
19320,note_on,0,0,6,,,,,,,,,4,,,71,89
19320,note_on,360,0,6,,,,,,,,,4,,,69,0
19320,note_on,49,0,10,,,,,,,,,8,,,55,64
19320,note_on,49,0,4,,,,,,,,,2,,,55,64
19391,note_on,71,0,4,,,,,,,,,2,,,55,0
19391,note_on,71,0,10,,,,,,,,,8,,,55,0
19440,note_on,120,0,6,,,,,,,,,4,,,71,0
19440,note_on,49,0,4,,,,,,,,,2,,,57,64
19440,note_on,120,0,7,,,,,,,,,5,,,62,0
19440,note_on,0,0,7,,,,,,,,,5,,,57,89
19440,note_on,480,0,8,,,,,,,,,6,,,62,0
19440,note_on,0,0,3,,,,,,,,,1,,,76,64
19440,note_on,0,0,8,,,,,,,,,6,,,61,89
19440,note_on,240,0,9,,,,,,,,,7,,,50,0
19440,note_on,480,0,3,,,,,,,,,1,,,78,0
19440,note_on,0,0,6,,,,,,,,,4,,,73,89
19440,note_on,49,0,10,,,,,,,,,8,,,57,64
19511,note_on,71,0,10,,,,,,,,,8,,,57,0
19511,note_on,71,0,4,,,,,,,,,2,,,57,0
19560,note_on,49,0,10,,,,,,,,,8,,,55,64
19560,note_on,0,0,2,,,,,,,,,0,,,83,64
19560,note_on,49,0,4,,,,,,,,,2,,,55,64
19560,note_on,360,0,2,,,,,,,,,0,,,81,0
19631,note_on,71,0,10,,,,,,,,,8,,,55,0
19631,note_on,71,0,4,,,,,,,,,2,,,55,0
19680,note_on,120,0,2,,,,,,,,,0,,,83,0
19680,note_on,240,0,3,,,,,,,,,1,,,76,0
19680,note_on,0,0,3,,,,,,,,,1,,,81,64
19680,note_on,0,0,2,,,,,,,,,0,,,81,64
19680,note_on,240,0,7,,,,,,,,,5,,,57,0
19680,note_on,0,0,6,,,,,,,,,4,,,78,89
19680,note_on,240,0,6,,,,,,,,,4,,,73,0
19680,note_on,49,0,10,,,,,,,,,8,,,54,64
19680,note_on,49,0,4,,,,,,,,,2,,,54,64
19680,note_on,480,0,5,,,,,,,,,3,,,81,0
19680,note_on,0,0,5,,,,,,,,,3,,,69,89
19680,note_on,240,0,9,,,,,,,,,7,,,54,108
19751,note_on,71,0,4,,,,,,,,,2,,,54,0
19751,note_on,71,0,10,,,,,,,,,8,,,54,0
19800,note_on,120,0,2,,,,,,,,,0,,,81,0
19800,note_on,49,0,4,,,,,,,,,2,,,52,64
19800,note_on,49,0,10,,,,,,,,,8,,,52,64
19800,note_on,0,0,2,,,,,,,,,0,,,79,64
19871,note_on,71,0,4,,,,,,,,,2,,,52,0
19871,note_on,71,0,10,,,,,,,,,8,,,52,0
19920,note_on,49,0,4,,,,,,,,,2,,,51,64
19920,note_on,240,0,7,,,,,,,,,5,,,71,108
19920,note_on,480,0,8,,,,,,,,,6,,,61,0
19920,note_on,0,0,2,,,,,,,,,0,,,78,64
19920,note_on,0,0,8,,,,,,,,,6,,,66,89
19920,note_on,120,0,2,,,,,,,,,0,,,79,0
19920,note_on,0,0,6,,,,,,,,,4,,,71,89
19920,note_on,240,0,6,,,,,,,,,4,,,78,0
19920,note_on,49,0,10,,,,,,,,,8,,,51,64
19920,note_on,240,0,5,,,,,,,,,3,,,69,0
19991,note_on,71,0,4,,,,,,,,,2,,,51,0
19991,note_on,71,0,10,,,,,,,,,8,,,51,0
20040,note_on,120,0,5,,,,,,,,,3,,,75,89
20040,note_on,49,0,4,,,,,,,,,2,,,47,64
20040,note_on,0,0,3,,,,,,,,,1,,,83,64
20040,note_on,360,0,3,,,,,,,,,1,,,81,0
20040,note_on,49,0,10,,,,,,,,,8,,,47,64
20100,note_on,60,0,3,,,,,,,,,1,,,83,0
20100,note_on,0,0,3,,,,,,,,,1,,,84,64
20111,note_on,71,0,4,,,,,,,,,2,,,47,0
20111,note_on,71,0,10,,,,,,,,,8,,,47,0
20160,note_on,0,0,5,,,,,,,,,3,,,76,89
20160,note_on,240,0,6,,,,,,,,,4,,,71,0
20160,note_on,0,0,3,,,,,,,,,1,,,83,64
20160,note_on,60,0,3,,,,,,,,,1,,,84,0
20160,note_on,120,0,5,,,,,,,,,3,,,75,0
20160,note_on,49,0,4,,,,,,,,,2,,,49,64
20160,note_on,49,0,10,,,,,,,,,8,,,49,64
20160,note_on,480,0,9,,,,,,,,,7,,,54,0
20160,note_on,0,0,9,,,,,,,,,7,,,47,89
20231,note_on,71,0,10,,,,,,,,,8,,,49,0
20231,note_on,71,0,4,,,,,,,,,2,,,49,0
20280,note_on,49,0,10,,,,,,,,,8,,,51,64
20280,note_on,120,0,3,,,,,,,,,1,,,83,0
20280,note_on,0,0,3,,,,,,,,,1,,,81,64
20280,note_on,49,0,4,,,,,,,,,2,,,51,64
20280,note_on,0,0,5,,,,,,,,,3,,,78,89
20280,note_on,120,0,5,,,,,,,,,3,,,76,0
20351,note_on,71,0,4,,,,,,,,,2,,,51,0
20351,note_on,71,0,10,,,,,,,,,8,,,51,0
20400,note_on,0,0,5,,,,,,,,,3,,,71,89
20400,note_on,120,0,5,,,,,,,,,3,,,78,0
20400,note_on,0,0,3,,,,,,,,,1,,,79,64
20400,note_on,49,0,10,,,,,,,,,8,,,52,64
20400,note_on,0,0,8,,,,,,,,,6,,,67,89
20400,note_on,120,0,3,,,,,,,,,1,,,81,0
20400,note_on,49,0,4,,,,,,,,,2,,,52,64
20400,note_on,240,0,9,,,,,,,,,7,,,47,0
20400,note_on,480,0,8,,,,,,,,,6,,,66,0
20471,note_on,71,0,10,,,,,,,,,8,,,52,0
20471,note_on,71,0,4,,,,,,,,,2,,,52,0
20520,note_on,49,0,4,,,,,,,,,2,,,54,64
20520,note_on,0,0,3,,,,,,,,,1,,,81,64
20520,note_on,120,0,3,,,,,,,,,1,,,79,0
20520,note_on,49,0,10,,,,,,,,,8,,,54,64
20580,note_on,180,0,8,,,,,,,,,6,,,67,0
20591,note_on,71,0,4,,,,,,,,,2,,,54,0
20591,note_on,71,0,10,,,,,,,,,8,,,54,0
20640,note_on,240,0,9,,,,,,,,,7,,,52,89
20640,note_on,720,0,2,,,,,,,,,0,,,78,0
20640,note_on,49,0,4,,,,,,,,,2,,,55,64
20640,note_on,0,0,2,,,,,,,,,0,,,76,64
20640,note_on,0,0,5,,,,,,,,,3,,,76,89
20640,note_on,240,0,5,,,,,,,,,3,,,71,0
20640,note_on,60,0,8,,,,,,,,,6,,,59,89
20640,note_on,0,0,3,,,,,,,,,1,,,83,64
20640,note_on,120,0,3,,,,,,,,,1,,,81,0
20640,note_on,49,0,10,,,,,,,,,8,,,55,64
20711,note_on,71,0,10,,,,,,,,,8,,,55,0
20711,note_on,71,0,4,,,,,,,,,2,,,55,0
20760,note_on,49,0,10,,,,,,,,,8,,,54,64
20760,note_on,0,0,9,,,,,,,,,7,,,54,89
20760,note_on,120,0,9,,,,,,,,,7,,,52,0
20760,note_on,0,0,2,,,,,,,,,0,,,75,64
20760,note_on,120,0,2,,,,,,,,,0,,,76,0
20760,note_on,49,0,4,,,,,,,,,2,,,54,64
20831,note_on,71,0,10,,,,,,,,,8,,,54,0
20831,note_on,71,0,4,,,,,,,,,2,,,54,0
20880,note_on,0,0,2,,,,,,,,,0,,,76,64
20880,note_on,120,0,2,,,,,,,,,0,,,75,0
20880,note_on,960,0,7,,,,,,,,,5,,,71,0
20880,note_on,0,0,7,,,,,,,,,5,,,67,89
20880,note_on,240,0,5,,,,,,,,,3,,,76,0
20880,note_on,49,0,10,,,,,,,,,8,,,52,64
20880,note_on,0,0,9,,,,,,,,,7,,,55,89
20880,note_on,49,0,4,,,,,,,,,2,,,52,64
20880,note_on,120,0,9,,,,,,,,,7,,,54,0
20880,note_on,240,0,8,,,,,,,,,6,,,59,0
20880,note_on,0,0,8,,,,,,,,,6,,,64,89
20951,note_on,71,0,4,,,,,,,,,2,,,52,0
20951,note_on,71,0,10,,,,,,,,,8,,,52,0
21000,note_on,49,0,4,,,,,,,,,2,,,50,64
21000,note_on,120,0,8,,,,,,,,,6,,,64,0
21000,note_on,0,0,8,,,,,,,,,6,,,66,89
21000,note_on,0,0,9,,,,,,,,,7,,,57,89
21000,note_on,49,0,10,,,,,,,,,8,,,50,64
21000,note_on,120,0,5,,,,,,,,,3,,,71,89
21000,note_on,120,0,9,,,,,,,,,7,,,55,0
21071,note_on,71,0,10,,,,,,,,,8,,,50,0
21071,note_on,71,0,4,,,,,,,,,2,,,50,0
21120,note_on,0,0,9,,,,,,,,,7,,,59,89
21120,note_on,49,0,10,,,,,,,,,8,,,48,64
21120,note_on,120,0,5,,,,,,,,,3,,,71,0
21120,note_on,0,0,5,,,,,,,,,3,,,76,89
21120,note_on,120,0,8,,,,,,,,,6,,,66,0
21120,note_on,0,0,8,,,,,,,,,6,,,67,89
21120,note_on,480,0,3,,,,,,,,,1,,,83,0
21120,note_on,49,0,4,,,,,,,,,2,,,48,64
21120,note_on,120,0,9,,,,,,,,,7,,,57,0
21191,note_on,71,0,4,,,,,,,,,2,,,48,0
21191,note_on,71,0,10,,,,,,,,,8,,,48,0
21240,note_on,49,0,4,,,,,,,,,2,,,47,64
21240,note_on,120,0,5,,,,,,,,,3,,,76,0
21240,note_on,0,0,5,,,,,,,,,3,,,74,89
21240,note_on,120,0,3,,,,,,,,,1,,,71,64
21240,note_on,49,0,10,,,,,,,,,8,,,47,64
21311,note_on,71,0,4,,,,,,,,,2,,,47,0
21311,note_on,71,0,10,,,,,,,,,8,,,47,0
21360,note_on,49,0,10,,,,,,,,,8,,,48,64
21360,note_on,480,0,7,,,,,,,,,5,,,67,0
21360,note_on,0,0,7,,,,,,,,,5,,,69,89
21360,note_on,120,0,3,,,,,,,,,1,,,71,0
21360,note_on,120,0,5,,,,,,,,,3,,,74,0
21360,note_on,0,0,5,,,,,,,,,3,,,72,89
21360,note_on,0,0,3,,,,,,,,,1,,,76,64
21360,note_on,49,0,4,,,,,,,,,2,,,48,64
21360,note_on,240,0,9,,,,,,,,,7,,,59,0
21360,note_on,0,0,9,,,,,,,,,7,,,57,89
21431,note_on,71,0,4,,,,,,,,,2,,,48,0
21431,note_on,71,0,10,,,,,,,,,8,,,48,0
21480,note_on,49,0,10,,,,,,,,,8,,,45,64
21480,note_on,49,0,4,,,,,,,,,2,,,45,64
21551,note_on,71,0,10,,,,,,,,,8,,,45,0
21551,note_on,71,0,4,,,,,,,,,2,,,45,0
21600,note_on,49,0,4,,,,,,,,,2,,,50,64
21600,note_on,240,0,9,,,,,,,,,7,,,57,0
21600,note_on,720,0,2,,,,,,,,,0,,,76,0
21600,note_on,0,0,5,,,,,,,,,3,,,69,89
21600,note_on,0,0,3,,,,,,,,,1,,,74,64
21600,note_on,0,0,2,,,,,,,,,0,,,78,64
21600,note_on,49,0,10,,,,,,,,,8,,,50,64
21600,note_on,240,0,3,,,,,,,,,1,,,76,0
21600,note_on,0,0,8,,,,,,,,,6,,,66,89
21600,note_on,480,0,8,,,,,,,,,6,,,67,0
21600,note_on,240,0,5,,,,,,,,,3,,,72,0
21671,note_on,71,0,10,,,,,,,,,8,,,50,0
21671,note_on,71,0,4,,,,,,,,,2,,,50,0
21720,note_on,49,0,10,,,,,,,,,8,,,48,64
21720,note_on,49,0,4,,,,,,,,,2,,,48,64
21791,note_on,71,0,4,,,,,,,,,2,,,48,0
21791,note_on,71,0,10,,,,,,,,,8,,,48,0
21840,note_on,240,0,5,,,,,,,,,3,,,69,0
21840,note_on,0,0,5,,,,,,,,,3,,,71,89
21840,note_on,0,0,2,,,,,,,,,0,,,79,64
21840,note_on,49,0,10,,,,,,,,,8,,,47,64
21840,note_on,49,0,4,,,,,,,,,2,,,47,64
21840,note_on,240,0,2,,,,,,,,,0,,,78,0
21840,note_on,480,0,7,,,,,,,,,5,,,69,0
21840,note_on,0,0,7,,,,,,,,,5,,,67,89
21870,note_on,270,0,8,,,,,,,,,6,,,66,0
21911,note_on,71,0,10,,,,,,,,,8,,,47,0
21911,note_on,71,0,4,,,,,,,,,2,,,47,0
21960,note_on,0,0,3,,,,,,,,,1,,,75,64
21960,note_on,49,0,10,,,,,,,,,8,,,43,64
21960,note_on,360,0,3,,,,,,,,,1,,,74,0
21960,note_on,90,0,8,,,,,,,,,6,,,59,89
21960,note_on,49,0,4,,,,,,,,,2,,,43,64
22031,note_on,71,0,4,,,,,,,,,2,,,43,0
22031,note_on,71,0,10,,,,,,,,,8,,,43,0
22080,note_on,0,0,8,,,,,,,,,6,,,64,89
22080,note_on,120,0,8,,,,,,,,,6,,,59,0
22080,note_on,49,0,10,,,,,,,,,8,,,48,64
22080,note_on,0,0,3,,,,,,,,,1,,,76,64
22080,note_on,240,0,5,,,,,,,,,3,,,71,0
22080,note_on,49,0,4,,,,,,,,,2,,,48,64
22080,note_on,120,0,3,,,,,,,,,1,,,75,0
22151,note_on,71,0,4,,,,,,,,,2,,,48,0
22151,note_on,71,0,10,,,,,,,,,8,,,48,0
22200,note_on,49,0,10,,,,,,,,,8,,,47,64
22200,note_on,49,0,4,,,,,,,,,2,,,47,64
22200,note_on,0,0,3,,,,,,,,,1,,,78,64
22200,note_on,120,0,3,,,,,,,,,1,,,76,0
22200,note_on,360,0,2,,,,,,,,,0,,,79,0
22200,note_on,0,0,2,,,,,,,,,0,,,76,64
22260,note_on,0,0,3,,,,,,,,,1,,,79,64
22260,note_on,60,0,3,,,,,,,,,1,,,78,0
22271,note_on,71,0,4,,,,,,,,,2,,,47,0
22271,note_on,71,0,10,,,,,,,,,8,,,47,0
22320,note_on,0,0,3,,,,,,,,,1,,,81,64
22320,note_on,60,0,3,,,,,,,,,1,,,79,0
22320,note_on,120,0,2,,,,,,,,,0,,,76,0
22320,note_on,0,0,2,,,,,,,,,0,,,84,64
22320,note_on,49,0,4,,,,,,,,,2,,,45,64
22320,note_on,0,0,7,,,,,,,,,5,,,66,89
22320,note_on,480,0,7,,,,,,,,,5,,,67,0
22320,note_on,49,0,10,,,,,,,,,8,,,45,64
22391,note_on,71,0,4,,,,,,,,,2,,,45,0
22391,note_on,71,0,10,,,,,,,,,8,,,45,0
22440,note_on,0,0,2,,,,,,,,,0,,,81,64
22440,note_on,49,0,4,,,,,,,,,2,,,42,64
22440,note_on,120,0,3,,,,,,,,,1,,,81,0
22440,note_on,120,0,2,,,,,,,,,0,,,84,0
22440,note_on,0,0,3,,,,,,,,,1,,,69,64
22440,note_on,360,0,8,,,,,,,,,6,,,64,0
22440,note_on,0,0,8,,,,,,,,,6,,,63,89
22440,note_on,49,0,10,,,,,,,,,8,,,42,64
22500,note_on,60,0,8,,,,,,,,,6,,,63,0
22500,note_on,0,0,8,,,,,,,,,6,,,61,89
22511,note_on,71,0,4,,,,,,,,,2,,,42,0
22511,note_on,71,0,10,,,,,,,,,8,,,42,0
22560,note_on,0,0,8,,,,,,,,,6,,,63,89
22560,note_on,49,0,10,,,,,,,,,8,,,47,64
22560,note_on,60,0,8,,,,,,,,,6,,,61,0
22560,note_on,49,0,4,,,,,,,,,2,,,47,64
22560,note_on,0,0,2,,,,,,,,,0,,,78,64
22560,note_on,960,0,9,,,,,,,,,7,,,59,108
22560,note_on,120,0,2,,,,,,,,,0,,,81,0
22631,note_on,71,0,10,,,,,,,,,8,,,47,0
22631,note_on,71,0,4,,,,,,,,,2,,,47,0
22680,note_on,49,0,4,,,,,,,,,2,,,45,64
22680,note_on,49,0,10,,,,,,,,,8,,,45,64
22680,note_on,240,0,3,,,,,,,,,1,,,69,0
22680,note_on,0,0,3,,,,,,,,,1,,,71,64
22740,note_on,0,0,3,,,,,,,,,1,,,72,64
22740,note_on,60,0,3,,,,,,,,,1,,,71,0
22751,note_on,71,0,4,,,,,,,,,2,,,45,0
22751,note_on,71,0,10,,,,,,,,,8,,,45,0
22800,note_on,0,0,3,,,,,,,,,1,,,71,64
22800,note_on,60,0,3,,,,,,,,,1,,,72,0
22800,note_on,240,0,8,,,,,,,,,6,,,63,0
22800,note_on,0,0,8,,,,,,,,,6,,,64,89
22800,note_on,0,0,7,,,,,,,,,5,,,71,89
22800,note_on,480,0,7,,,,,,,,,5,,,66,0
22800,note_on,0,0,2,,,,,,,,,0,,,76,64
22800,note_on,49,0,4,,,,,,,,,2,,,44,64
22800,note_on,240,0,2,,,,,,,,,0,,,78,0
22800,note_on,49,0,10,,,,,,,,,8,,,44,64
22800,note_on,2640,0,6,,,,,,,,,4,,,76,108
22871,note_on,71,0,10,,,,,,,,,8,,,44,0
22871,note_on,71,0,4,,,,,,,,,2,,,44,0
22920,note_on,120,0,8,,,,,,,,,6,,,64,0
22920,note_on,0,0,8,,,,,,,,,6,,,59,89
22920,note_on,0,0,3,,,,,,,,,1,,,68,64
22920,note_on,49,0,10,,,,,,,,,8,,,40,64
22920,note_on,49,0,4,,,,,,,,,2,,,40,64
22920,note_on,120,0,3,,,,,,,,,1,,,71,0
22991,note_on,71,0,4,,,,,,,,,2,,,40,0
22991,note_on,71,0,10,,,,,,,,,8,,,40,0
23040,note_on,120,0,8,,,,,,,,,6,,,59,0
23040,note_on,480,0,9,,,,,,,,,7,,,59,0
23040,note_on,0,0,9,,,,,,,,,7,,,57,89
23040,note_on,49,0,4,,,,,,,,,2,,,42,64
23040,note_on,49,0,10,,,,,,,,,8,,,42,64
23040,note_on,0,0,3,,,,,,,,,1,,,69,64
23040,note_on,120,0,3,,,,,,,,,1,,,68,0
23040,note_on,0,0,8,,,,,,,,,6,,,64,89
23111,note_on,71,0,10,,,,,,,,,8,,,42,0
23111,note_on,71,0,4,,,,,,,,,2,,,42,0
23160,note_on,49,0,4,,,,,,,,,2,,,44,64
23160,note_on,360,0,2,,,,,,,,,0,,,76,0
23160,note_on,0,0,2,,,,,,,,,0,,,74,64
23160,note_on,120,0,9,,,,,,,,,7,,,57,0
23160,note_on,0,0,3,,,,,,,,,1,,,71,64
23160,note_on,120,0,3,,,,,,,,,1,,,69,0
23160,note_on,0,0,9,,,,,,,,,7,,,56,89
23160,note_on,49,0,10,,,,,,,,,8,,,44,64
23231,note_on,71,0,4,,,,,,,,,2,,,44,0
23231,note_on,71,0,10,,,,,,,,,8,,,44,0
23280,note_on,0,0,9,,,,,,,,,7,,,64,89
23280,note_on,120,0,9,,,,,,,,,7,,,56,0
23280,note_on,0,0,2,,,,,,,,,0,,,73,64
23280,note_on,480,0,7,,,,,,,,,5,,,71,0
23280,note_on,0,0,7,,,,,,,,,5,,,73,89
23280,note_on,49,0,10,,,,,,,,,8,,,45,64
23280,note_on,0,0,3,,,,,,,,,1,,,64,64
23280,note_on,120,0,3,,,,,,,,,1,,,71,0
23280,note_on,49,0,4,,,,,,,,,2,,,45,64
23280,note_on,120,0,2,,,,,,,,,0,,,74,0
23351,note_on,71,0,10,,,,,,,,,8,,,45,0
23351,note_on,71,0,4,,,,,,,,,2,,,45,0
23400,note_on,49,0,10,,,,,,,,,8,,,47,64
23400,note_on,49,0,4,,,,,,,,,2,,,47,64
23400,note_on,0,0,2,,,,,,,,,0,,,74,64
23400,note_on,120,0,2,,,,,,,,,0,,,73,0
23400,note_on,0,0,8,,,,,,,,,6,,,62,89
23400,note_on,360,0,8,,,,,,,,,6,,,64,0
23460,note_on,180,0,7,,,,,,,,,5,,,73,0
23471,note_on,71,0,10,,,,,,,,,8,,,47,0
23471,note_on,71,0,4,,,,,,,,,2,,,47,0
23520,note_on,49,0,10,,,,,,,,,8,,,49,64
23520,note_on,240,0,3,,,,,,,,,1,,,64,0
23520,note_on,0,0,3,,,,,,,,,1,,,69,64
23520,note_on,60,0,7,,,,,,,,,5,,,64,89
23520,note_on,120,0,2,,,,,,,,,0,,,74,0
23520,note_on,0,0,2,,,,,,,,,0,,,76,64
23520,note_on,49,0,4,,,,,,,,,2,,,49,64
23520,note_on,0,0,9,,,,,,,,,7,,,57,89
23520,note_on,240,0,9,,,,,,,,,7,,,64,0
23520,note_on,120,0,8,,,,,,,,,6,,,62,0
23520,note_on,0,0,8,,,,,,,,,6,,,61,89
23591,note_on,71,0,4,,,,,,,,,2,,,49,0
23591,note_on,71,0,10,,,,,,,,,8,,,49,0
23640,note_on,0,0,8,,,,,,,,,6,,,62,89
23640,note_on,120,0,9,,,,,,,,,7,,,57,0
23640,note_on,120,0,8,,,,,,,,,6,,,61,0
23640,note_on,49,0,4,,,,,,,,,2,,,47,64
23640,note_on,49,0,10,,,,,,,,,8,,,47,64
23640,note_on,0,0,9,,,,,,,,,7,,,59,89
23711,note_on,71,0,10,,,,,,,,,8,,,47,0
23711,note_on,71,0,4,,,,,,,,,2,,,47,0
23760,note_on,120,0,8,,,,,,,,,6,,,62,0
23760,note_on,240,0,3,,,,,,,,,1,,,69,0
23760,note_on,0,0,3,,,,,,,,,1,,,57,64
23760,note_on,0,0,8,,,,,,,,,6,,,64,89
23760,note_on,0,0,7,,,,,,,,,5,,,69,89
23760,note_on,240,0,7,,,,,,,,,5,,,64,0
23760,note_on,49,0,4,,,,,,,,,2,,,45,64
23760,note_on,120,0,9,,,,,,,,,7,,,59,0
23760,note_on,49,0,10,,,,,,,,,8,,,45,64
23760,note_on,960,0,6,,,,,,,,,4,,,76,0
23760,note_on,0,0,6,,,,,,,,,4,,,73,89
23760,note_on,0,0,9,,,,,,,,,7,,,61,89
23831,note_on,71,0,10,,,,,,,,,8,,,45,0
23831,note_on,71,0,4,,,,,,,,,2,,,45,0
23880,note_on,120,0,9,,,,,,,,,7,,,61,0
23880,note_on,0,0,9,,,,,,,,,7,,,62,89
23880,note_on,120,0,7,,,,,,,,,5,,,69,0
23880,note_on,0,0,7,,,,,,,,,5,,,71,89
23880,note_on,49,0,4,,,,,,,,,2,,,43,64
23880,note_on,49,0,10,,,,,,,,,8,,,43,64
23951,note_on,71,0,10,,,,,,,,,8,,,43,0
23951,note_on,71,0,4,,,,,,,,,2,,,43,0
24000,note_on,49,0,10,,,,,,,,,8,,,42,64
24000,note_on,120,0,7,,,,,,,,,5,,,71,0
24000,note_on,0,0,7,,,,,,,,,5,,,73,89
24000,note_on,240,0,3,,,,,,,,,1,,,57,0
24000,note_on,0,0,3,,,,,,,,,1,,,64,64
24000,note_on,0,0,8,,,,,,,,,6,,,57,89
24000,note_on,240,0,8,,,,,,,,,6,,,64,0
24000,note_on,49,0,4,,,,,,,,,2,,,42,64
24000,note_on,480,0,2,,,,,,,,,0,,,76,0
24000,note_on,0,0,9,,,,,,,,,7,,,64,89
24000,note_on,120,0,9,,,,,,,,,7,,,62,0
24000,note_on,0,0,2,,,,,,,,,0,,,81,64
24071,note_on,71,0,10,,,,,,,,,8,,,42,0
24071,note_on,71,0,4,,,,,,,,,2,,,42,0
24120,note_on,49,0,10,,,,,,,,,8,,,40,64
24120,note_on,49,0,4,,,,,,,,,2,,,40,64
24120,note_on,120,0,2,,,,,,,,,0,,,81,0
24120,note_on,0,0,2,,,,,,,,,0,,,79,64
24191,note_on,71,0,4,,,,,,,,,2,,,40,0
24191,note_on,71,0,10,,,,,,,,,8,,,40,0
24240,note_on,240,0,3,,,,,,,,,1,,,64,0
24240,note_on,49,0,4,,,,,,,,,2,,,38,64
24240,note_on,240,0,7,,,,,,,,,5,,,73,0
24240,note_on,0,0,6,,,,,,,,,4,,,74,89
24240,note_on,480,0,6,,,,,,,,,4,,,73,0
24240,note_on,0,0,3,,,,,,,,,1,,,66,64
24240,note_on,240,0,9,,,,,,,,,7,,,64,0
24240,note_on,49,0,10,,,,,,,,,8,,,38,64
24240,note_on,0,0,7,,,,,,,,,5,,,66,89
24240,note_on,0,0,2,,,,,,,,,0,,,78,64
24240,note_on,120,0,2,,,,,,,,,0,,,79,0
24240,note_on,2160,0,5,,,,,,,,,3,,,78,108
24240,note_on,0,0,9,,,,,,,,,7,,,57,89
24311,note_on,71,0,10,,,,,,,,,8,,,38,0
24311,note_on,71,0,4,,,,,,,,,2,,,38,0
24360,note_on,49,0,10,,,,,,,,,8,,,50,64
24360,note_on,49,0,4,,,,,,,,,2,,,50,64
24431,note_on,71,0,4,,,,,,,,,2,,,50,0
24431,note_on,71,0,10,,,,,,,,,8,,,50,0
24480,note_on,0,0,7,,,,,,,,,5,,,64,89
24480,note_on,240,0,7,,,,,,,,,5,,,66,0
24480,note_on,49,0,4,,,,,,,,,2,,,49,64
24480,note_on,240,0,9,,,,,,,,,7,,,57,0
24480,note_on,240,0,3,,,,,,,,,1,,,66,0
24480,note_on,0,0,8,,,,,,,,,6,,,59,89
24480,note_on,0,0,2,,,,,,,,,0,,,83,64
24480,note_on,240,0,2,,,,,,,,,0,,,78,0
24480,note_on,49,0,10,,,,,,,,,8,,,49,64
24480,note_on,480,0,8,,,,,,,,,6,,,57,0
24551,note_on,71,0,10,,,,,,,,,8,,,49,0
24551,note_on,71,0,4,,,,,,,,,2,,,49,0
24600,note_on,120,0,7,,,,,,,,,5,,,64,0
24600,note_on,49,0,4,,,,,,,,,2,,,47,64
24600,note_on,49,0,10,,,,,,,,,8,,,47,64
24600,note_on,0,0,7,,,,,,,,,5,,,62,89
24671,note_on,71,0,4,,,,,,,,,2,,,47,0
24671,note_on,71,0,10,,,,,,,,,8,,,47,0
24720,note_on,480,0,6,,,,,,,,,4,,,74,0
24720,note_on,240,0,2,,,,,,,,,0,,,83,0
24720,note_on,49,0,4,,,,,,,,,2,,,46,64
24720,note_on,0,0,8,,,,,,,,,6,,,61,89
24720,note_on,240,0,8,,,,,,,,,6,,,59,0
24720,note_on,120,0,7,,,,,,,,,5,,,62,0
24720,note_on,49,0,10,,,,,,,,,8,,,46,64
24720,note_on,240,0,9,,,,,,,,,7,,,66,108
24720,note_on,0,0,7,,,,,,,,,5,,,64,89
24720,note_on,0,0,6,,,,,,,,,4,,,73,89
24791,note_on,71,0,4,,,,,,,,,2,,,46,0
24791,note_on,71,0,10,,,,,,,,,8,,,46,0
24840,note_on,120,0,7,,,,,,,,,5,,,64,0
24840,note_on,0,0,7,,,,,,,,,5,,,62,89
24840,note_on,49,0,10,,,,,,,,,8,,,42,64
24840,note_on,49,0,4,,,,,,,,,2,,,42,64
24900,note_on,180,0,8,,,,,,,,,6,,,61,0
24911,note_on,71,0,10,,,,,,,,,8,,,42,0
24911,note_on,71,0,4,,,,,,,,,2,,,42,0
24960,note_on,49,0,10,,,,,,,,,8,,,44,64
24960,note_on,49,0,4,,,,,,,,,2,,,44,64
24960,note_on,0,0,9,,,,,,,,,7,,,54,89
24960,note_on,0,0,7,,,,,,,,,5,,,61,89
24960,note_on,120,0,7,,,,,,,,,5,,,62,0
24960,note_on,60,0,8,,,,,,,,,6,,,66,89
24960,note_on,240,0,2,,,,,,,,,0,,,78,64
24960,note_on,240,0,9,,,,,,,,,7,,,66,0
25031,note_on,71,0,4,,,,,,,,,2,,,44,0
25031,note_on,71,0,10,,,,,,,,,8,,,44,0
25080,note_on,49,0,10,,,,,,,,,8,,,46,64
25080,note_on,600,0,3,,,,,,,,,1,,,66,64
25080,note_on,49,0,4,,,,,,,,,2,,,46,64
25151,note_on,71,0,10,,,,,,,,,8,,,46,0
25151,note_on,71,0,4,,,,,,,,,2,,,46,0
25200,note_on,49,0,10,,,,,,,,,8,,,47,64
25200,note_on,120,0,3,,,,,,,,,1,,,66,0
25200,note_on,0,0,7,,,,,,,,,5,,,62,89
25200,note_on,240,0,7,,,,,,,,,5,,,61,0
25200,note_on,0,0,5,,,,,,,,,3,,,74,89
25200,note_on,0,0,3,,,,,,,,,1,,,78,64
25200,note_on,960,0,5,,,,,,,,,3,,,78,0
25200,note_on,0,0,6,,,,,,,,,4,,,71,89
25200,note_on,480,0,6,,,,,,,,,4,,,73,0
25200,note_on,49,0,4,,,,,,,,,2,,,47,64
25271,note_on,71,0,4,,,,,,,,,2,,,47,0
25271,note_on,71,0,10,,,,,,,,,8,,,47,0
25320,note_on,49,0,10,,,,,,,,,8,,,49,64
25320,note_on,0,0,2,,,,,,,,,0,,,76,64
25320,note_on,0,0,9,,,,,,,,,7,,,61,89
25320,note_on,360,0,9,,,,,,,,,7,,,54,0
25320,note_on,120,0,7,,,,,,,,,5,,,62,0
25320,note_on,360,0,2,,,,,,,,,0,,,78,0
25320,note_on,49,0,4,,,,,,,,,2,,,49,64
25320,note_on,0,0,7,,,,,,,,,5,,,64,89
25391,note_on,71,0,10,,,,,,,,,8,,,49,0
25391,note_on,71,0,4,,,,,,,,,2,,,49,0
25440,note_on,120,0,2,,,,,,,,,0,,,76,0
25440,note_on,120,0,9,,,,,,,,,7,,,61,0
25440,note_on,0,0,9,,,,,,,,,7,,,62,89
25440,note_on,0,0,2,,,,,,,,,0,,,74,64
25440,note_on,480,0,8,,,,,,,,,6,,,66,0
25440,note_on,49,0,4,,,,,,,,,2,,,47,64
25440,note_on,49,0,10,,,,,,,,,8,,,47,64
25440,note_on,0,0,7,,,,,,,,,5,,,66,89
25440,note_on,120,0,7,,,,,,,,,5,,,64,0
25440,note_on,0,0,8,,,,,,,,,6,,,59,89
25511,note_on,71,0,4,,,,,,,,,2,,,47,0
25511,note_on,71,0,10,,,,,,,,,8,,,47,0
25560,note_on,0,0,2,,,,,,,,,0,,,73,64
25560,note_on,49,0,4,,,,,,,,,2,,,45,64
25560,note_on,49,0,10,,,,,,,,,8,,,45,64
25560,note_on,120,0,2,,,,,,,,,0,,,74,0
25560,note_on,360,0,3,,,,,,,,,1,,,78,0
25560,note_on,0,0,3,,,,,,,,,1,,,79,64
25620,note_on,60,0,3,,,,,,,,,1,,,79,0
25620,note_on,0,0,3,,,,,,,,,1,,,78,64
25631,note_on,71,0,10,,,,,,,,,8,,,45,0
25631,note_on,71,0,4,,,,,,,,,2,,,45,0
25680,note_on,120,0,2,,,,,,,,,0,,,73,0
25680,note_on,0,0,7,,,,,,,,,5,,,59,89
25680,note_on,240,0,7,,,,,,,,,5,,,66,0
25680,note_on,480,0,5,,,,,,,,,3,,,74,0
25680,note_on,49,0,10,,,,,,,,,8,,,44,64
25680,note_on,0,0,6,,,,,,,,,4,,,76,89
25680,note_on,480,0,6,,,,,,,,,4,,,71,0
25680,note_on,0,0,5,,,,,,,,,3,,,76,89
25680,note_on,49,0,4,,,,,,,,,2,,,44,64
25680,note_on,0,0,2,,,,,,,,,0,,,71,64
25680,note_on,0,0,3,,,,,,,,,1,,,76,64
25680,note_on,60,0,3,,,,,,,,,1,,,78,0
25751,note_on,71,0,4,,,,,,,,,2,,,44,0
25751,note_on,71,0,10,,,,,,,,,8,,,44,0
25800,note_on,49,0,10,,,,,,,,,8,,,40,64
25800,note_on,0,0,7,,,,,,,,,5,,,68,89
25800,note_on,120,0,7,,,,,,,,,5,,,59,0
25800,note_on,49,0,4,,,,,,,,,2,,,40,64
25871,note_on,71,0,4,,,,,,,,,2,,,40,0
25871,note_on,71,0,10,,,,,,,,,8,,,40,0
25920,note_on,0,0,7,,,,,,,,,5,,,69,89
25920,note_on,120,0,7,,,,,,,,,5,,,68,0
25920,note_on,0,0,2,,,,,,,,,0,,,73,64
25920,note_on,0,0,8,,,,,,,,,6,,,57,89
25920,note_on,480,0,9,,,,,,,,,7,,,62,0
25920,note_on,49,0,4,,,,,,,,,2,,,45,64
25920,note_on,240,0,2,,,,,,,,,0,,,71,0
25920,note_on,0,0,9,,,,,,,,,7,,,61,89
25920,note_on,480,0,8,,,,,,,,,6,,,59,0
25920,note_on,49,0,10,,,,,,,,,8,,,45,64
25991,note_on,71,0,4,,,,,,,,,2,,,45,0
25991,note_on,71,0,10,,,,,,,,,8,,,45,0
26040,note_on,120,0,2,,,,,,,,,0,,,73,0
26040,note_on,49,0,10,,,,,,,,,8,,,43,64
26040,note_on,0,0,2,,,,,,,,,0,,,71,64
26040,note_on,49,0,4,,,,,,,,,2,,,43,64
26111,note_on,71,0,10,,,,,,,,,8,,,43,0
26111,note_on,71,0,4,,,,,,,,,2,,,43,0
26160,note_on,0,0,2,,,,,,,,,0,,,69,64
26160,note_on,240,0,8,,,,,,,,,6,,,57,0
26160,note_on,0,0,6,,,,,,,,,4,,,78,89
26160,note_on,480,0,6,,,,,,,,,4,,,76,0
26160,note_on,480,0,3,,,,,,,,,1,,,76,0
26160,note_on,0,0,5,,,,,,,,,3,,,74,89
26160,note_on,480,0,5,,,,,,,,,3,,,76,0
26160,note_on,49,0,10,,,,,,,,,8,,,42,64
26160,note_on,0,0,8,,,,,,,,,6,,,62,89
26160,note_on,120,0,2,,,,,,,,,0,,,71,0
26160,note_on,49,0,4,,,,,,,,,2,,,42,64
26231,note_on,71,0,10,,,,,,,,,8,,,42,0
26231,note_on,71,0,4,,,,,,,,,2,,,42,0
26250,note_on,330,0,9,,,,,,,,,7,,,61,0
26280,note_on,30,0,9,,,,,,,,,7,,,54,89
26280,note_on,49,0,10,,,,,,,,,8,,,38,64
26280,note_on,120,0,2,,,,,,,,,0,,,69,0
26280,note_on,0,0,2,,,,,,,,,0,,,74,64
26280,note_on,49,0,4,,,,,,,,,2,,,38,64
26351,note_on,71,0,4,,,,,,,,,2,,,38,0
26351,note_on,71,0,10,,,,,,,,,8,,,38,0
26400,note_on,480,0,7,,,,,,,,,5,,,69,0
26400,note_on,0,0,9,,,,,,,,,7,,,59,89
26400,note_on,49,0,10,,,,,,,,,8,,,43,64
26400,note_on,120,0,9,,,,,,,,,7,,,54,0
26400,note_on,0,0,7,,,,,,,,,5,,,67,89
26400,note_on,240,0,6,,,,,,,,,4,,,78,0
26400,note_on,49,0,4,,,,,,,,,2,,,43,64
26471,note_on,71,0,10,,,,,,,,,8,,,43,0
26471,note_on,71,0,4,,,,,,,,,2,,,43,0
26520,note_on,49,0,10,,,,,,,,,8,,,42,64
26520,note_on,120,0,6,,,,,,,,,4,,,74,89
26520,note_on,0,0,2,,,,,,,,,0,,,79,64
26520,note_on,240,0,2,,,,,,,,,0,,,74,0
26520,note_on,49,0,4,,,,,,,,,2,,,42,64
26520,note_on,0,0,8,,,,,,,,,6,,,59,89
26520,note_on,360,0,8,,,,,,,,,6,,,62,0
26580,note_on,180,0,7,,,,,,,,,5,,,67,0
26591,note_on,71,0,4,,,,,,,,,2,,,42,0
26591,note_on,71,0,10,,,,,,,,,8,,,42,0
26640,note_on,49,0,4,,,,,,,,,2,,,40,64
26640,note_on,120,0,8,,,,,,,,,6,,,59,0
26640,note_on,0,0,8,,,,,,,,,6,,,64,89
26640,note_on,49,0,10,,,,,,,,,8,,,40,64
26640,note_on,480,0,5,,,,,,,,,3,,,74,0
26640,note_on,0,0,5,,,,,,,,,3,,,73,89
26640,note_on,120,0,6,,,,,,,,,4,,,74,0
26640,note_on,0,0,6,,,,,,,,,4,,,76,89
26640,note_on,60,0,7,,,,,,,,,5,,,61,89
26711,note_on,71,0,4,,,,,,,,,2,,,40,0
26711,note_on,71,0,10,,,,,,,,,8,,,40,0
26760,note_on,49,0,4,,,,,,,,,2,,,37,64
26760,note_on,0,0,6,,,,,,,,,4,,,79,89
26760,note_on,0,0,2,,,,,,,,,0,,,76,64
26760,note_on,0,0,7,,,,,,,,,5,,,64,89
26760,note_on,120,0,7,,,,,,,,,5,,,61,0
26760,note_on,240,0,2,,,,,,,,,0,,,79,0
26760,note_on,120,0,6,,,,,,,,,4,,,76,0
26760,note_on,49,0,10,,,,,,,,,8,,,37,64
26831,note_on,71,0,10,,,,,,,,,8,,,37,0
26831,note_on,71,0,4,,,,,,,,,2,,,37,0
26880,note_on,0,0,7,,,,,,,,,5,,,69,89
26880,note_on,0,0,9,,,,,,,,,7,,,57,89
26880,note_on,480,0,9,,,,,,,,,7,,,59,0
26880,note_on,120,0,7,,,,,,,,,5,,,64,0
26880,note_on,49,0,10,,,,,,,,,8,,,42,64
26880,note_on,0,0,2,,,,,,,,,0,,,73,64
26880,note_on,120,0,2,,,,,,,,,0,,,76,0
26880,note_on,49,0,4,,,,,,,,,2,,,42,64
26880,note_on,120,0,6,,,,,,,,,4,,,79,0
26880,note_on,0,0,6,,,,,,,,,4,,,78,89
26940,note_on,60,0,9,,,,,,,,,7,,,57,0
26940,note_on,0,0,9,,,,,,,,,7,,,59,89
26951,note_on,71,0,4,,,,,,,,,2,,,42,0
26951,note_on,71,0,10,,,,,,,,,8,,,42,0
27000,note_on,0,0,9,,,,,,,,,7,,,61,89
27000,note_on,0,0,8,,,,,,,,,6,,,66,89
27000,note_on,360,0,8,,,,,,,,,6,,,64,0
27000,note_on,60,0,9,,,,,,,,,7,,,59,0
27000,note_on,49,0,4,,,,,,,,,2,,,40,64
27000,note_on,49,0,10,,,,,,,,,8,,,40,64
27060,note_on,0,0,8,,,,,,,,,6,,,67,89
27060,note_on,60,0,8,,,,,,,,,6,,,66,0
27071,note_on,71,0,4,,,,,,,,,2,,,40,0
27071,note_on,71,0,10,,,,,,,,,8,,,40,0
27120,note_on,0,0,5,,,,,,,,,3,,,78,89
27120,note_on,480,0,5,,,,,,,,,3,,,73,0
27120,note_on,0,0,6,,,,,,,,,4,,,71,89
27120,note_on,49,0,4,,,,,,,,,2,,,39,64
27120,note_on,240,0,6,,,,,,,,,4,,,78,0
27120,note_on,120,0,9,,,,,,,,,7,,,61,0
27120,note_on,960,0,3,,,,,,,,,1,,,83,64
27120,note_on,240,0,2,,,,,,,,,0,,,73,0
27120,note_on,0,0,9,,,,,,,,,7,,,54,89
27120,note_on,0,0,2,,,,,,,,,0,,,71,64
27120,note_on,60,0,8,,,,,,,,,6,,,67,0
27120,note_on,0,0,8,,,,,,,,,6,,,66,89
27120,note_on,49,0,10,,,,,,,,,8,,,39,64
27191,note_on,71,0,10,,,,,,,,,8,,,39,0
27191,note_on,71,0,4,,,,,,,,,2,,,39,0
27240,note_on,360,0,7,,,,,,,,,5,,,69,0
27240,note_on,49,0,4,,,,,,,,,2,,,47,64
27240,note_on,0,0,7,,,,,,,,,5,,,68,89
27240,note_on,49,0,10,,,,,,,,,8,,,47,64
27311,note_on,71,0,10,,,,,,,,,8,,,47,0
27311,note_on,71,0,4,,,,,,,,,2,,,47,0
27360,note_on,49,0,10,,,,,,,,,8,,,49,64
27360,note_on,240,0,9,,,,,,,,,7,,,54,0
27360,note_on,120,0,7,,,,,,,,,5,,,68,0
27360,note_on,0,0,7,,,,,,,,,5,,,66,89
27360,note_on,240,0,6,,,,,,,,,4,,,71,0
27360,note_on,0,0,9,,,,,,,,,7,,,59,89
27360,note_on,49,0,4,,,,,,,,,2,,,49,64
27360,note_on,240,0,8,,,,,,,,,6,,,66,0
27431,note_on,71,0,10,,,,,,,,,8,,,49,0
27431,note_on,71,0,4,,,,,,,,,2,,,49,0
27480,note_on,49,0,4,,,,,,,,,2,,,51,64
27480,note_on,49,0,10,,,,,,,,,8,,,51,64
27480,note_on,120,0,8,,,,,,,,,6,,,57,89
27551,note_on,71,0,4,,,,,,,,,2,,,51,0
27551,note_on,71,0,10,,,,,,,,,8,,,51,0
27600,note_on,0,0,5,,,,,,,,,3,,,80,89
27600,note_on,49,0,10,,,,,,,,,8,,,52,64
27600,note_on,0,0,8,,,,,,,,,6,,,56,89
27600,note_on,480,0,5,,,,,,,,,3,,,78,0
27600,note_on,240,0,6,,,,,,,,,4,,,71,108
27600,note_on,480,0,2,,,,,,,,,0,,,71,0
27600,note_on,49,0,4,,,,,,,,,2,,,52,64
27600,note_on,240,0,9,,,,,,,,,7,,,59,0
27600,note_on,0,0,9,,,,,,,,,7,,,52,89
27600,note_on,120,0,8,,,,,,,,,6,,,57,0
27671,note_on,71,0,4,,,,,,,,,2,,,52,0
27671,note_on,71,0,10,,,,,,,,,8,,,52,0
27720,note_on,0,0,8,,,,,,,,,6,,,57,89
27720,note_on,49,0,4,,,,,,,,,2,,,54,64
27720,note_on,0,0,7,,,,,,,,,5,,,64,89
27720,note_on,360,0,7,,,,,,,,,5,,,66,0
27720,note_on,120,0,8,,,,,,,,,6,,,56,0
27720,note_on,49,0,10,,,,,,,,,8,,,54,64
27780,note_on,0,0,7,,,,,,,,,5,,,63,89
27780,note_on,60,0,7,,,,,,,,,5,,,64,0
27780,note_on,180,0,5,,,,,,,,,3,,,80,0
27791,note_on,71,0,4,,,,,,,,,2,,,54,0
27791,note_on,71,0,10,,,,,,,,,8,,,54,0
27840,note_on,49,0,10,,,,,,,,,8,,,56,64
27840,note_on,49,0,4,,,,,,,,,2,,,56,64
27840,note_on,60,0,5,,,,,,,,,3,,,71,108
27840,note_on,60,0,7,,,,,,,,,5,,,63,0
27840,note_on,0,0,7,,,,,,,,,5,,,64,89
27840,note_on,120,0,8,,,,,,,,,6,,,57,0
27840,note_on,0,0,8,,,,,,,,,6,,,59,89
27900,note_on,300,0,6,,,,,,,,,4,,,71,0
27900,note_on,0,0,6,,,,,,,,,4,,,73,89
27911,note_on,71,0,10,,,,,,,,,8,,,56,0
27911,note_on,71,0,4,,,,,,,,,2,,,56,0
27960,note_on,120,0,8,,,,,,,,,6,,,59,0
27960,note_on,0,0,8,,,,,,,,,6,,,54,89
27960,note_on,0,0,6,,,,,,,,,4,,,74,89
27960,note_on,60,0,6,,,,,,,,,4,,,73,0
27960,note_on,120,0,7,,,,,,,,,5,,,64,0
27960,note_on,49,0,10,,,,,,,,,8,,,54,64
27960,note_on,49,0,4,,,,,,,,,2,,,54,64
27960,note_on,0,0,7,,,,,,,,,5,,,66,89
28031,note_on,71,0,10,,,,,,,,,8,,,54,0
28031,note_on,71,0,4,,,,,,,,,2,,,54,0
28080,note_on,960,0,3,,,,,,,,,1,,,83,0
28080,note_on,120,0,7,,,,,,,,,5,,,66,0
28080,note_on,0,0,7,,,,,,,,,5,,,68,89
28080,note_on,480,0,9,,,,,,,,,7,,,52,0
28080,note_on,120,0,8,,,,,,,,,6,,,54,0
28080,note_on,0,0,3,,,,,,,,,1,,,80,64
28080,note_on,49,0,4,,,,,,,,,2,,,53,64
28080,note_on,0,0,6,,,,,,,,,4,,,73,89
28080,note_on,120,0,6,,,,,,,,,4,,,74,0
28080,note_on,49,0,10,,,,,,,,,8,,,53,64
28080,note_on,0,0,8,,,,,,,,,6,,,61,89
28151,note_on,71,0,10,,,,,,,,,8,,,53,0
28151,note_on,71,0,4,,,,,,,,,2,,,53,0
28200,note_on,49,0,10,,,,,,,,,8,,,49,64
28200,note_on,120,0,7,,,,,,,,,5,,,68,0
28200,note_on,0,0,7,,,,,,,,,5,,,73,89
28200,note_on,49,0,4,,,,,,,,,2,,,49,64
28200,note_on,120,0,9,,,,,,,,,7,,,53,89
28271,note_on,71,0,4,,,,,,,,,2,,,49,0
28271,note_on,71,0,10,,,,,,,,,8,,,49,0
28320,note_on,0,0,9,,,,,,,,,7,,,54,89
28320,note_on,49,0,4,,,,,,,,,2,,,51,64
28320,note_on,120,0,9,,,,,,,,,7,,,53,0
28320,note_on,0,0,5,,,,,,,,,3,,,69,89
28320,note_on,480,0,5,,,,,,,,,3,,,71,0
28320,note_on,49,0,10,,,,,,,,,8,,,51,64
28391,note_on,71,0,4,,,,,,,,,2,,,51,0
28391,note_on,71,0,10,,,,,,,,,8,,,51,0
28440,note_on,120,0,9,,,,,,,,,7,,,54,0
28440,note_on,0,0,9,,,,,,,,,7,,,56,89
28440,note_on,49,0,4,,,,,,,,,2,,,53,64
28440,note_on,120,0,5,,,,,,,,,3,,,69,0
28440,note_on,0,0,5,,,,,,,,,3,,,68,89
28440,note_on,49,0,10,,,,,,,,,8,,,53,64
28440,note_on,0,0,7,,,,,,,,,5,,,71,89
28440,note_on,240,0,7,,,,,,,,,5,,,73,0
28511,note_on,71,0,10,,,,,,,,,8,,,53,0
28511,note_on,71,0,4,,,,,,,,,2,,,53,0
28560,note_on,0,0,7,,,,,,,,,5,,,69,89
28560,note_on,0,0,9,,,,,,,,,7,,,57,89
28560,note_on,480,0,8,,,,,,,,,6,,,61,0
28560,note_on,0,0,8,,,,,,,,,6,,,61,89
28560,note_on,49,0,4,,,,,,,,,2,,,54,64
28560,note_on,480,0,3,,,,,,,,,1,,,80,0
28560,note_on,0,0,3,,,,,,,,,1,,,81,64
28560,note_on,120,0,7,,,,,,,,,5,,,71,0
28560,note_on,120,0,5,,,,,,,,,3,,,68,0
28560,note_on,120,0,9,,,,,,,,,7,,,56,0
28560,note_on,49,0,10,,,,,,,,,8,,,54,64
28560,note_on,0,0,5,,,,,,,,,3,,,66,89
28560,note_on,960,0,2,,,,,,,,,0,,,85,64
28631,note_on,71,0,4,,,,,,,,,2,,,54,0
28631,note_on,71,0,10,,,,,,,,,8,,,54,0
28680,note_on,120,0,5,,,,,,,,,3,,,66,0
28680,note_on,600,0,6,,,,,,,,,4,,,73,0
28680,note_on,0,0,5,,,,,,,,,3,,,73,89
28680,note_on,49,0,10,,,,,,,,,8,,,56,64
28680,note_on,0,0,7,,,,,,,,,5,,,68,89
28680,note_on,120,0,7,,,,,,,,,5,,,69,0
28680,note_on,120,0,9,,,,,,,,,7,,,57,0
28680,note_on,0,0,9,,,,,,,,,7,,,59,89
28680,note_on,0,0,6,,,,,,,,,4,,,71,89
28680,note_on,49,0,4,,,,,,,,,2,,,56,64
28740,note_on,180,0,8,,,,,,,,,6,,,61,0
28751,note_on,71,0,4,,,,,,,,,2,,,56,0
28751,note_on,71,0,10,,,,,,,,,8,,,56,0
28800,note_on,120,0,9,,,,,,,,,7,,,59,0
28800,note_on,0,0,9,,,,,,,,,7,,,61,89
28800,note_on,120,0,7,,,,,,,,,5,,,68,0
28800,note_on,0,0,7,,,,,,,,,5,,,66,89
28800,note_on,49,0,10,,,,,,,,,8,,,57,64
28800,note_on,120,0,5,,,,,,,,,3,,,73,0
28800,note_on,49,0,4,,,,,,,,,2,,,57,64
28800,note_on,0,0,6,,,,,,,,,4,,,69,89
28800,note_on,120,0,6,,,,,,,,,4,,,71,0
28800,note_on,60,0,8,,,,,,,,,6,,,61,89
28800,note_on,0,0,5,,,,,,,,,3,,,78,89
28871,note_on,71,0,10,,,,,,,,,8,,,57,0
28871,note_on,71,0,4,,,,,,,,,2,,,57,0
28920,note_on,49,0,10,,,,,,,,,8,,,59,64
28920,note_on,120,0,6,,,,,,,,,4,,,69,0
28920,note_on,0,0,6,,,,,,,,,4,,,66,89
28920,note_on,49,0,4,,,,,,,,,2,,,59,64
28991,note_on,71,0,4,,,,,,,,,2,,,59,0
28991,note_on,71,0,10,,,,,,,,,8,,,59,0
29040,note_on,49,0,4,,,,,,,,,2,,,61,64
29040,note_on,49,0,10,,,,,,,,,8,,,61,64
29040,note_on,240,0,8,,,,,,,,,6,,,61,0
29040,note_on,240,0,7,,,,,,,,,5,,,66,0
29040,note_on,0,0,6,,,,,,,,,4,,,73,89
29040,note_on,120,0,6,,,,,,,,,4,,,66,0
29040,note_on,0,0,3,,,,,,,,,1,,,80,64
29040,note_on,480,0,3,,,,,,,,,1,,,81,0
29040,note_on,0,0,8,,,,,,,,,6,,,68,89
29111,note_on,71,0,10,,,,,,,,,8,,,61,0
29111,note_on,71,0,4,,,,,,,,,2,,,61,0
29160,note_on,0,0,5,,,,,,,,,3,,,77,89
29160,note_on,49,0,10,,,,,,,,,8,,,49,64
29160,note_on,49,0,4,,,,,,,,,2,,,49,64
29160,note_on,360,0,5,,,,,,,,,3,,,78,0
29231,note_on,71,0,10,,,,,,,,,8,,,49,0
29231,note_on,71,0,4,,,,,,,,,2,,,49,0
29280,note_on,49,0,4,,,,,,,,,2,,,51,64
29280,note_on,480,0,9,,,,,,,,,7,,,61,0
29280,note_on,0,0,9,,,,,,,,,7,,,49,89
29280,note_on,120,0,5,,,,,,,,,3,,,77,0
29280,note_on,0,0,5,,,,,,,,,3,,,73,108
29280,note_on,49,0,10,,,,,,,,,8,,,51,64
29280,note_on,240,0,8,,,,,,,,,6,,,68,0
29280,note_on,0,0,8,,,,,,,,,6,,,65,89
29351,note_on,71,0,4,,,,,,,,,2,,,51,0
29351,note_on,71,0,10,,,,,,,,,8,,,51,0
29400,note_on,0,0,6,,,,,,,,,4,,,68,89
29400,note_on,49,0,10,,,,,,,,,8,,,53,64
29400,note_on,49,0,4,,,,,,,,,2,,,53,64
29400,note_on,360,0,6,,,,,,,,,4,,,73,0
29471,note_on,71,0,10,,,,,,,,,8,,,53,0
29471,note_on,71,0,4,,,,,,,,,2,,,53,0
29520,note_on,0,0,2,,,,,,,,,0,,,81,64
29520,note_on,0,0,6,,,,,,,,,4,,,69,89
29520,note_on,49,0,4,,,,,,,,,2,,,54,64
29520,note_on,960,0,2,,,,,,,,,0,,,85,0
29520,note_on,0,0,3,,,,,,,,,1,,,78,64
29520,note_on,120,0,6,,,,,,,,,4,,,68,0
29520,note_on,240,0,9,,,,,,,,,7,,,49,0
29520,note_on,0,0,9,,,,,,,,,7,,,54,89
29520,note_on,49,0,10,,,,,,,,,8,,,54,64
29520,note_on,240,0,8,,,,,,,,,6,,,65,0
29520,note_on,0,0,8,,,,,,,,,6,,,61,89
29520,note_on,480,0,3,,,,,,,,,1,,,80,0
29591,note_on,71,0,4,,,,,,,,,2,,,54,0
29591,note_on,71,0,10,,,,,,,,,8,,,54,0
29640,note_on,0,0,5,,,,,,,,,3,,,71,89
29640,note_on,49,0,4,,,,,,,,,2,,,56,64
29640,note_on,49,0,10,,,,,,,,,8,,,56,64
29640,note_on,360,0,5,,,,,,,,,3,,,73,0
29711,note_on,71,0,4,,,,,,,,,2,,,56,0
29711,note_on,71,0,10,,,,,,,,,8,,,56,0
29760,note_on,240,0,6,,,,,,,,,4,,,69,0
29760,note_on,240,0,8,,,,,,,,,6,,,61,0
29760,note_on,720,0,7,,,,,,,,,5,,,69,108
29760,note_on,0,0,5,,,,,,,,,3,,,73,89
29760,note_on,0,0,8,,,,,,,,,6,,,66,89
29760,note_on,120,0,5,,,,,,,,,3,,,71,0
29760,note_on,49,0,10,,,,,,,,,8,,,54,64
29760,note_on,49,0,4,,,,,,,,,2,,,54,64
29831,note_on,71,0,4,,,,,,,,,2,,,54,0
29831,note_on,71,0,10,,,,,,,,,8,,,54,0
29880,note_on,49,0,10,,,,,,,,,8,,,52,64
29880,note_on,120,0,5,,,,,,,,,3,,,73,0
29880,note_on,0,0,5,,,,,,,,,3,,,78,89
29880,note_on,120,0,6,,,,,,,,,4,,,73,89
29880,note_on,49,0,4,,,,,,,,,2,,,52,64
29951,note_on,71,0,4,,,,,,,,,2,,,52,0
29951,note_on,71,0,10,,,,,,,,,8,,,52,0
30000,note_on,49,0,10,,,,,,,,,8,,,51,64
30000,note_on,0,0,2,,,,,,,,,0,,,83,64
30000,note_on,0,0,8,,,,,,,,,6,,,59,89
30000,note_on,480,0,2,,,,,,,,,0,,,81,0
30000,note_on,240,0,8,,,,,,,,,6,,,66,0
30000,note_on,0,0,5,,,,,,,,,3,,,78,89
30000,note_on,480,0,9,,,,,,,,,7,,,54,0
30000,note_on,49,0,4,,,,,,,,,2,,,51,64
30000,note_on,0,0,6,,,,,,,,,4,,,71,89
30000,note_on,120,0,6,,,,,,,,,4,,,73,0
30000,note_on,0,0,3,,,,,,,,,1,,,83,64
30000,note_on,480,0,3,,,,,,,,,1,,,78,0
30000,note_on,120,0,5,,,,,,,,,3,,,78,0
30071,note_on,71,0,4,,,,,,,,,2,,,51,0
30071,note_on,71,0,10,,,,,,,,,8,,,51,0
30120,note_on,49,0,10,,,,,,,,,8,,,47,64
30120,note_on,49,0,4,,,,,,,,,2,,,47,64
30120,note_on,0,0,5,,,,,,,,,3,,,75,89
30120,note_on,120,0,5,,,,,,,,,3,,,78,0
30191,note_on,71,0,4,,,,,,,,,2,,,47,0
30191,note_on,71,0,10,,,,,,,,,8,,,47,0
30240,note_on,0,0,7,,,,,,,,,5,,,68,89
30240,note_on,49,0,4,,,,,,,,,2,,,52,64
30240,note_on,480,0,7,,,,,,,,,5,,,69,0
30240,note_on,49,0,10,,,,,,,,,8,,,52,64
30240,note_on,240,0,8,,,,,,,,,6,,,59,0
30240,note_on,120,0,5,,,,,,,,,3,,,75,0
30240,note_on,0,0,5,,,,,,,,,3,,,76,89
30311,note_on,71,0,10,,,,,,,,,8,,,52,0
30311,note_on,71,0,4,,,,,,,,,2,,,52,0
30360,note_on,360,0,6,,,,,,,,,4,,,71,0
30360,note_on,0,0,6,,,,,,,,,4,,,64,89
30360,note_on,49,0,10,,,,,,,,,8,,,50,64
30360,note_on,49,0,4,,,,,,,,,2,,,50,64
30431,note_on,71,0,4,,,,,,,,,2,,,50,0
30431,note_on,71,0,10,,,,,,,,,8,,,50,0
30480,note_on,120,0,6,,,,,,,,,4,,,64,0
30480,note_on,480,0,2,,,,,,,,,0,,,83,0
30480,note_on,0,0,6,,,,,,,,,4,,,69,89
30480,note_on,49,0,4,,,,,,,,,2,,,49,64
30480,note_on,0,0,2,,,,,,,,,0,,,81,64
30480,note_on,480,0,3,,,,,,,,,1,,,83,0
30480,note_on,49,0,10,,,,,,,,,8,,,49,64
30480,note_on,0,0,3,,,,,,,,,1,,,85,64
30551,note_on,71,0,10,,,,,,,,,8,,,49,0
30551,note_on,71,0,4,,,,,,,,,2,,,49,0
30600,note_on,49,0,10,,,,,,,,,8,,,45,64
30600,note_on,49,0,4,,,,,,,,,2,,,45,64
30600,note_on,0,0,7,,,,,,,,,5,,,73,89
30600,note_on,360,0,7,,,,,,,,,5,,,68,0
30671,note_on,71,0,10,,,,,,,,,8,,,45,0
30671,note_on,71,0,4,,,,,,,,,2,,,45,0
30720,note_on,0,0,7,,,,,,,,,5,,,66,89
30720,note_on,49,0,10,,,,,,,,,8,,,50,64
30720,note_on,120,0,7,,,,,,,,,5,,,73,0
30720,note_on,0,0,5,,,,,,,,,3,,,74,89
30720,note_on,49,0,4,,,,,,,,,2,,,50,64
30720,note_on,480,0,8,,,,,,,,,6,,,62,108
30720,note_on,480,0,5,,,,,,,,,3,,,76,0
30791,note_on,71,0,4,,,,,,,,,2,,,50,0
30791,note_on,71,0,10,,,,,,,,,8,,,50,0
30840,note_on,0,0,3,,,,,,,,,1,,,83,64
30840,note_on,49,0,4,,,,,,,,,2,,,49,64
30840,note_on,49,0,10,,,,,,,,,8,,,49,64
30840,note_on,360,0,3,,,,,,,,,1,,,85,0
30900,note_on,60,0,3,,,,,,,,,1,,,83,0
30900,note_on,0,0,3,,,,,,,,,1,,,81,64
30911,note_on,71,0,4,,,,,,,,,2,,,49,0
30911,note_on,71,0,10,,,,,,,,,8,,,49,0
30960,note_on,49,0,4,,,,,,,,,2,,,47,64
30960,note_on,0,0,2,,,,,,,,,0,,,80,64
30960,note_on,480,0,2,,,,,,,,,0,,,81,0
30960,note_on,0,0,6,,,,,,,,,4,,,71,89
30960,note_on,480,0,6,,,,,,,,,4,,,69,0
30960,note_on,60,0,3,,,,,,,,,1,,,81,0
30960,note_on,0,0,3,,,,,,,,,1,,,86,64
30960,note_on,49,0,10,,,,,,,,,8,,,47,64
31031,note_on,71,0,4,,,,,,,,,2,,,47,0
31031,note_on,71,0,10,,,,,,,,,8,,,47,0
31050,note_on,330,0,5,,,,,,,,,3,,,74,0
31080,note_on,360,0,7,,,,,,,,,5,,,66,0
31080,note_on,49,0,10,,,,,,,,,8,,,44,64
31080,note_on,30,0,5,,,,,,,,,3,,,74,89
31080,note_on,0,0,7,,,,,,,,,5,,,71,89
31080,note_on,0,0,8,,,,,,,,,6,,,59,89
31080,note_on,360,0,8,,,,,,,,,6,,,62,0
31080,note_on,49,0,4,,,,,,,,,2,,,44,64
31151,note_on,71,0,4,,,,,,,,,2,,,44,0
31151,note_on,71,0,10,,,,,,,,,8,,,44,0
31200,note_on,120,0,5,,,,,,,,,3,,,74,0
31200,note_on,0,0,5,,,,,,,,,3,,,76,89
31200,note_on,49,0,10,,,,,,,,,8,,,49,64
31200,note_on,240,0,6,,,,,,,,,4,,,71,0
31200,note_on,240,0,3,,,,,,,,,1,,,86,0
31200,note_on,0,0,3,,,,,,,,,1,,,85,64
31200,note_on,120,0,7,,,,,,,,,5,,,71,0
31200,note_on,0,0,7,,,,,,,,,5,,,64,89
31200,note_on,120,0,8,,,,,,,,,6,,,59,0
31200,note_on,0,0,8,,,,,,,,,6,,,56,89
31200,note_on,49,0,4,,,,,,,,,2,,,49,64
31271,note_on,71,0,10,,,,,,,,,8,,,49,0
31271,note_on,71,0,4,,,,,,,,,2,,,49,0
31320,note_on,49,0,4,,,,,,,,,2,,,47,64
31320,note_on,120,0,5,,,,,,,,,3,,,76,0
31320,note_on,120,0,6,,,,,,,,,4,,,68,89
31320,note_on,49,0,10,,,,,,,,,8,,,47,64
31320,note_on,0,0,5,,,,,,,,,3,,,74,89
31391,note_on,71,0,4,,,,,,,,,2,,,47,0
31391,note_on,71,0,10,,,,,,,,,8,,,47,0
31440,note_on,120,0,6,,,,,,,,,4,,,68,0
31440,note_on,120,0,5,,,,,,,,,3,,,74,0
31440,note_on,0,0,5,,,,,,,,,3,,,73,89
31440,note_on,240,0,8,,,,,,,,,6,,,56,0
31440,note_on,0,0,6,,,,,,,,,4,,,69,89
31440,note_on,240,0,7,,,,,,,,,5,,,64,0
31440,note_on,480,0,2,,,,,,,,,0,,,80,0
31440,note_on,1440,0,9,,,,,,,,,7,,,57,108
31440,note_on,0,0,2,,,,,,,,,0,,,85,64
31440,note_on,49,0,10,,,,,,,,,8,,,45,64
31440,note_on,0,0,7,,,,,,,,,5,,,64,89
31440,note_on,49,0,4,,,,,,,,,2,,,45,64
31511,note_on,71,0,10,,,,,,,,,8,,,45,0
31511,note_on,71,0,4,,,,,,,,,2,,,45,0
31560,note_on,49,0,10,,,,,,,,,8,,,47,64
31560,note_on,0,0,5,,,,,,,,,3,,,74,89
31560,note_on,120,0,5,,,,,,,,,3,,,73,0
31560,note_on,49,0,4,,,,,,,,,2,,,47,64
31631,note_on,71,0,10,,,,,,,,,8,,,47,0
31631,note_on,71,0,4,,,,,,,,,2,,,47,0
31680,note_on,0,0,3,,,,,,,,,1,,,73,64
31680,note_on,240,0,7,,,,,,,,,5,,,64,0
31680,note_on,49,0,4,,,,,,,,,2,,,45,64
31680,note_on,120,0,5,,,,,,,,,3,,,74,0
31680,note_on,0,0,5,,,,,,,,,3,,,76,89
31680,note_on,240,0,8,,,,,,,,,6,,,64,89
31680,note_on,480,0,3,,,,,,,,,1,,,85,0
31680,note_on,49,0,10,,,,,,,,,8,,,45,64
31751,note_on,71,0,4,,,,,,,,,2,,,45,0
31751,note_on,71,0,10,,,,,,,,,8,,,45,0
31800,note_on,360,0,6,,,,,,,,,4,,,69,0
31800,note_on,0,0,6,,,,,,,,,4,,,64,89
31800,note_on,49,0,4,,,,,,,,,2,,,43,64
31800,note_on,49,0,10,,,,,,,,,8,,,43,64
31871,note_on,71,0,4,,,,,,,,,2,,,43,0
31871,note_on,71,0,10,,,,,,,,,8,,,43,0
31920,note_on,0,0,3,,,,,,,,,1,,,78,64
31920,note_on,480,0,2,,,,,,,,,0,,,85,0
31920,note_on,240,0,8,,,,,,,,,6,,,64,0
31920,note_on,0,0,8,,,,,,,,,6,,,62,89
31920,note_on,49,0,4,,,,,,,,,2,,,42,64
31920,note_on,0,0,2,,,,,,,,,0,,,86,64
31920,note_on,240,0,3,,,,,,,,,1,,,73,0
31920,note_on,240,0,5,,,,,,,,,3,,,76,0
31920,note_on,49,0,10,,,,,,,,,8,,,42,64
31920,note_on,0,0,5,,,,,,,,,3,,,69,89
31920,note_on,0,0,6,,,,,,,,,4,,,66,89
31920,note_on,120,0,6,,,,,,,,,4,,,64,0
31991,note_on,71,0,4,,,,,,,,,2,,,42,0
31991,note_on,71,0,10,,,,,,,,,8,,,42,0
32040,note_on,49,0,10,,,,,,,,,8,,,54,64
32040,note_on,0,0,6,,,,,,,,,4,,,62,89
32040,note_on,120,0,6,,,,,,,,,4,,,66,0
32040,note_on,49,0,4,,,,,,,,,2,,,54,64
32040,note_on,0,0,8,,,,,,,,,6,,,57,89
32040,note_on,120,0,8,,,,,,,,,6,,,62,0
32040,note_on,0,0,3,,,,,,,,,1,,,81,64
32040,note_on,120,0,3,,,,,,,,,1,,,78,0
32100,note_on,0,0,3,,,,,,,,,1,,,79,64
32100,note_on,60,0,3,,,,,,,,,1,,,81,0
32111,note_on,71,0,4,,,,,,,,,2,,,54,0
32111,note_on,71,0,10,,,,,,,,,8,,,54,0
32160,note_on,49,0,10,,,,,,,,,8,,,52,64
32160,note_on,49,0,4,,,,,,,,,2,,,52,64
32160,note_on,120,0,8,,,,,,,,,6,,,57,0
32160,note_on,0,0,8,,,,,,,,,6,,,66,89
32160,note_on,60,0,3,,,,,,,,,1,,,79,0
32160,note_on,0,0,3,,,,,,,,,1,,,81,64
32160,note_on,120,0,6,,,,,,,,,4,,,62,0
32160,note_on,0,0,6,,,,,,,,,4,,,69,89
32231,note_on,71,0,4,,,,,,,,,2,,,52,0
32231,note_on,71,0,10,,,,,,,,,8,,,52,0
32280,note_on,49,0,10,,,,,,,,,8,,,50,64
32280,note_on,360,0,2,,,,,,,,,0,,,86,0
32280,note_on,0,0,2,,,,,,,,,0,,,85,64
32280,note_on,49,0,4,,,,,,,,,2,,,50,64
32340,note_on,60,0,2,,,,,,,,,0,,,85,0
32340,note_on,0,0,2,,,,,,,,,0,,,83,64
32351,note_on,71,0,4,,,,,,,,,2,,,50,0
32351,note_on,71,0,10,,,,,,,,,8,,,50,0
32400,note_on,240,0,6,,,,,,,,,4,,,69,0
32400,note_on,0,0,2,,,,,,,,,0,,,81,64
32400,note_on,60,0,2,,,,,,,,,0,,,83,0
32400,note_on,49,0,4,,,,,,,,,2,,,49,64
32400,note_on,0,0,6,,,,,,,,,4,,,76,108
32400,note_on,0,0,8,,,,,,,,,6,,,64,89
32400,note_on,49,0,10,,,,,,,,,8,,,49,64
32400,note_on,480,0,5,,,,,,,,,3,,,69,0
32400,note_on,720,0,7,,,,,,,,,5,,,67,108
32400,note_on,240,0,8,,,,,,,,,6,,,66,0
32471,note_on,71,0,10,,,,,,,,,8,,,49,0
32471,note_on,71,0,4,,,,,,,,,2,,,49,0
32520,note_on,0,0,3,,,,,,,,,1,,,76,64
32520,note_on,360,0,3,,,,,,,,,1,,,81,0
32520,note_on,49,0,10,,,,,,,,,8,,,45,64
32520,note_on,120,0,2,,,,,,,,,0,,,81,0
32520,note_on,0,0,2,,,,,,,,,0,,,79,64
32520,note_on,49,0,4,,,,,,,,,2,,,45,64
32580,note_on,0,0,2,,,,,,,,,0,,,78,64
32580,note_on,60,0,2,,,,,,,,,0,,,79,0
32591,note_on,71,0,4,,,,,,,,,2,,,45,0
32591,note_on,71,0,10,,,,,,,,,8,,,45,0
32640,note_on,60,0,2,,,,,,,,,0,,,78,0
32640,note_on,120,0,3,,,,,,,,,1,,,76,0
32640,note_on,49,0,4,,,,,,,,,2,,,49,64
32640,note_on,49,0,10,,,,,,,,,8,,,49,64
32640,note_on,240,0,5,,,,,,,,,3,,,73,108
32640,note_on,0,0,2,,,,,,,,,0,,,76,64
32640,note_on,0,0,3,,,,,,,,,1,,,69,64
32700,note_on,60,0,2,,,,,,,,,0,,,76,0
32700,note_on,0,0,2,,,,,,,,,0,,,74,64
32711,note_on,71,0,10,,,,,,,,,8,,,49,0
32711,note_on,71,0,4,,,,,,,,,2,,,49,0
32760,note_on,49,0,4,,,,,,,,,2,,,52,64
32760,note_on,49,0,10,,,,,,,,,8,,,52,64
32760,note_on,0,0,2,,,,,,,,,0,,,73,64
32760,note_on,60,0,2,,,,,,,,,0,,,74,0
32820,note_on,60,0,2,,,,,,,,,0,,,73,0
32820,note_on,0,0,2,,,,,,,,,0,,,71,64
32831,note_on,71,0,10,,,,,,,,,8,,,52,0
32831,note_on,71,0,4,,,,,,,,,2,,,52,0
32880,note_on,49,0,10,,,,,,,,,8,,,57,64
32880,note_on,49,0,4,,,,,,,,,2,,,57,64
32880,note_on,0,0,7,,,,,,,,,5,,,64,89
32880,note_on,480,0,8,,,,,,,,,6,,,64,0
32880,note_on,480,0,7,,,,,,,,,5,,,67,0
32880,note_on,0,0,2,,,,,,,,,0,,,69,64
32880,note_on,60,0,2,,,,,,,,,0,,,71,0
32880,note_on,480,0,6,,,,,,,,,4,,,76,0
32880,note_on,0,0,6,,,,,,,,,4,,,73,89
32940,note_on,300,0,3,,,,,,,,,1,,,69,0
32940,note_on,0,0,3,,,,,,,,,1,,,67,64
32951,note_on,71,0,4,,,,,,,,,2,,,57,0
32951,note_on,71,0,10,,,,,,,,,8,,,57,0
33000,note_on,0,0,3,,,,,,,,,1,,,69,64
33000,note_on,120,0,2,,,,,,,,,0,,,69,0
33000,note_on,49,0,10,,,,,,,,,8,,,55,64
33000,note_on,60,0,3,,,,,,,,,1,,,67,0
33000,note_on,0,0,2,,,,,,,,,0,,,76,64
33000,note_on,49,0,4,,,,,,,,,2,,,55,64
33060,note_on,0,0,3,,,,,,,,,1,,,71,64
33060,note_on,60,0,3,,,,,,,,,1,,,69,0
33071,note_on,71,0,4,,,,,,,,,2,,,55,0
33071,note_on,71,0,10,,,,,,,,,8,,,55,0
33120,note_on,0,0,3,,,,,,,,,1,,,73,64
33120,note_on,0,0,2,,,,,,,,,0,,,81,64
33120,note_on,49,0,10,,,,,,,,,8,,,54,64
33120,note_on,240,0,8,,,,,,,,,6,,,69,108
33120,note_on,0,0,5,,,,,,,,,3,,,69,89
33120,note_on,480,0,5,,,,,,,,,3,,,73,0
33120,note_on,120,0,2,,,,,,,,,0,,,76,0
33120,note_on,60,0,3,,,,,,,,,1,,,71,0
33120,note_on,49,0,4,,,,,,,,,2,,,54,64
33180,note_on,60,0,3,,,,,,,,,1,,,73,0
33180,note_on,0,0,3,,,,,,,,,1,,,74,64
33191,note_on,71,0,10,,,,,,,,,8,,,54,0
33191,note_on,71,0,4,,,,,,,,,2,,,54,0
33240,note_on,49,0,4,,,,,,,,,2,,,52,64
33240,note_on,0,0,3,,,,,,,,,1,,,76,64
33240,note_on,60,0,3,,,,,,,,,1,,,74,0
33240,note_on,49,0,10,,,,,,,,,8,,,52,64
33300,note_on,60,0,3,,,,,,,,,1,,,76,0
33300,note_on,0,0,3,,,,,,,,,1,,,73,64
33311,note_on,71,0,10,,,,,,,,,8,,,52,0
33311,note_on,71,0,4,,,,,,,,,2,,,52,0
33360,note_on,0,0,6,,,,,,,,,4,,,74,89
33360,note_on,0,0,2,,,,,,,,,0,,,81,64
33360,note_on,49,0,10,,,,,,,,,8,,,50,64
33360,note_on,60,0,3,,,,,,,,,1,,,73,0
33360,note_on,0,0,3,,,,,,,,,1,,,69,64
33360,note_on,240,0,2,,,,,,,,,0,,,81,0
33360,note_on,480,0,6,,,,,,,,,4,,,73,0
33360,note_on,1920,0,9,,,,,,,,,7,,,57,0
33360,note_on,0,0,9,,,,,,,,,7,,,54,108
33360,note_on,49,0,4,,,,,,,,,2,,,50,64
33360,note_on,480,0,7,,,,,,,,,5,,,64,0
33360,note_on,0,0,7,,,,,,,,,5,,,66,89
33420,note_on,60,0,2,,,,,,,,,0,,,81,0
33420,note_on,0,0,2,,,,,,,,,0,,,79,64
33431,note_on,71,0,10,,,,,,,,,8,,,50,0
33431,note_on,71,0,4,,,,,,,,,2,,,50,0
33480,note_on,49,0,4,,,,,,,,,2,,,49,64
33480,note_on,120,0,3,,,,,,,,,1,,,69,0
33480,note_on,0,0,3,,,,,,,,,1,,,57,64
33480,note_on,60,0,2,,,,,,,,,0,,,79,0
33480,note_on,0,0,2,,,,,,,,,0,,,78,64
33480,note_on,49,0,10,,,,,,,,,8,,,49,64
33540,note_on,0,0,2,,,,,,,,,0,,,76,64
33540,note_on,60,0,2,,,,,,,,,0,,,78,0
33551,note_on,71,0,10,,,,,,,,,8,,,49,0
33551,note_on,71,0,4,,,,,,,,,2,,,49,0
33600,note_on,480,0,8,,,,,,,,,6,,,69,0
33600,note_on,480,0,5,,,,,,,,,3,,,69,0
33600,note_on,0,0,8,,,,,,,,,6,,,66,89
33600,note_on,0,0,2,,,,,,,,,0,,,74,64
33600,note_on,60,0,2,,,,,,,,,0,,,76,0
33600,note_on,49,0,10,,,,,,,,,8,,,50,64
33600,note_on,120,0,3,,,,,,,,,1,,,57,0
33600,note_on,0,0,5,,,,,,,,,3,,,71,89
33600,note_on,49,0,4,,,,,,,,,2,,,50,64
33671,note_on,71,0,4,,,,,,,,,2,,,50,0
33671,note_on,71,0,10,,,,,,,,,8,,,50,0
33720,note_on,49,0,4,,,,,,,,,2,,,52,64
33720,note_on,120,0,2,,,,,,,,,0,,,74,0
33720,note_on,49,0,10,,,,,,,,,8,,,52,64
33791,note_on,71,0,4,,,,,,,,,2,,,52,0
33791,note_on,71,0,10,,,,,,,,,8,,,52,0
33840,note_on,49,0,10,,,,,,,,,8,,,54,64
33840,note_on,480,0,7,,,,,,,,,5,,,66,0
33840,note_on,240,0,8,,,,,,,,,6,,,66,0
33840,note_on,0,0,7,,,,,,,,,5,,,64,89
33840,note_on,49,0,4,,,,,,,,,2,,,54,64
33840,note_on,480,0,6,,,,,,,,,4,,,74,0
33840,note_on,0,0,6,,,,,,,,,4,,,73,89
33911,note_on,71,0,4,,,,,,,,,2,,,54,0
33911,note_on,71,0,10,,,,,,,,,8,,,54,0
33960,note_on,49,0,10,,,,,,,,,8,,,55,64
33960,note_on,49,0,4,,,,,,,,,2,,,55,64
34031,note_on,71,0,10,,,,,,,,,8,,,55,0
34031,note_on,71,0,4,,,,,,,,,2,,,55,0
34080,note_on,49,0,4,,,,,,,,,2,,,57,64
34080,note_on,360,0,2,,,,,,,,,0,,,78,64
34080,note_on,49,0,10,,,,,,,,,8,,,57,64
34080,note_on,0,0,5,,,,,,,,,3,,,69,89
34080,note_on,480,0,5,,,,,,,,,3,,,71,0
34080,note_on,240,0,8,,,,,,,,,6,,,57,89
34151,note_on,71,0,10,,,,,,,,,8,,,57,0
34151,note_on,71,0,4,,,,,,,,,2,,,57,0
34200,note_on,49,0,4,,,,,,,,,2,,,54,64
34200,note_on,49,0,10,,,,,,,,,8,,,54,64
34271,note_on,71,0,10,,,,,,,,,8,,,54,0
34271,note_on,71,0,4,,,,,,,,,2,,,54,0
34320,note_on,49,0,10,,,,,,,,,8,,,59,64
34320,note_on,0,0,6,,,,,,,,,4,,,71,89
34320,note_on,240,0,8,,,,,,,,,6,,,57,0
34320,note_on,49,0,4,,,,,,,,,2,,,59,64
34320,note_on,480,0,7,,,,,,,,,5,,,64,0
34320,note_on,0,0,7,,,,,,,,,5,,,62,89
34320,note_on,0,0,8,,,,,,,,,6,,,59,89
34320,note_on,960,0,9,,,,,,,,,7,,,54,0
34320,note_on,480,0,6,,,,,,,,,4,,,73,0
34320,note_on,0,0,9,,,,,,,,,7,,,55,108
34380,note_on,0,0,8,,,,,,,,,6,,,61,89
34380,note_on,60,0,8,,,,,,,,,6,,,59,0
34391,note_on,71,0,4,,,,,,,,,2,,,59,0
34391,note_on,71,0,10,,,,,,,,,8,,,59,0
34440,note_on,49,0,10,,,,,,,,,8,,,47,64
34440,note_on,0,0,8,,,,,,,,,6,,,62,89
34440,note_on,60,0,8,,,,,,,,,6,,,61,0
34440,note_on,49,0,4,,,,,,,,,2,,,47,64
34511,note_on,71,0,10,,,,,,,,,8,,,47,0
34511,note_on,71,0,4,,,,,,,,,2,,,47,0
34560,note_on,0,0,8,,,,,,,,,6,,,62,89
34560,note_on,120,0,8,,,,,,,,,6,,,62,0
34560,note_on,480,0,2,,,,,,,,,0,,,78,0
34560,note_on,960,0,3,,,,,,,,,1,,,71,64
34560,note_on,49,0,4,,,,,,,,,2,,,59,64
34560,note_on,49,0,10,,,,,,,,,8,,,59,64
34560,note_on,0,0,2,,,,,,,,,0,,,74,64
34560,note_on,0,0,5,,,,,,,,,3,,,67,89
34560,note_on,480,0,5,,,,,,,,,3,,,69,0
34631,note_on,71,0,10,,,,,,,,,8,,,59,0
34631,note_on,71,0,4,,,,,,,,,2,,,59,0
34680,note_on,0,0,8,,,,,,,,,6,,,61,89
34680,note_on,49,0,10,,,,,,,,,8,,,57,64
34680,note_on,49,0,4,,,,,,,,,2,,,57,64
34680,note_on,120,0,8,,,,,,,,,6,,,62,0
34751,note_on,71,0,4,,,,,,,,,2,,,57,0
34751,note_on,71,0,10,,,,,,,,,8,,,57,0
34800,note_on,0,0,6,,,,,,,,,4,,,76,89
34800,note_on,480,0,6,,,,,,,,,4,,,71,0
34800,note_on,0,0,7,,,,,,,,,5,,,67,89
34800,note_on,480,0,7,,,,,,,,,5,,,62,0
34800,note_on,49,0,10,,,,,,,,,8,,,55,64
34800,note_on,0,0,8,,,,,,,,,6,,,59,89
34800,note_on,240,0,2,,,,,,,,,0,,,74,0
34800,note_on,49,0,4,,,,,,,,,2,,,55,64
34800,note_on,120,0,8,,,,,,,,,6,,,61,0
34871,note_on,71,0,10,,,,,,,,,8,,,55,0
34871,note_on,71,0,4,,,,,,,,,2,,,55,0
34920,note_on,49,0,10,,,,,,,,,8,,,43,64
34920,note_on,49,0,4,,,,,,,,,2,,,43,64
34991,note_on,71,0,10,,,,,,,,,8,,,43,0
34991,note_on,71,0,4,,,,,,,,,2,,,43,0
35040,note_on,49,0,4,,,,,,,,,2,,,42,64
35040,note_on,240,0,2,,,,,,,,,0,,,76,64
35040,note_on,49,0,10,,,,,,,,,8,,,42,64
35040,note_on,0,0,8,,,,,,,,,6,,,64,89
35040,note_on,240,0,8,,,,,,,,,6,,,59,0
35040,note_on,480,0,3,,,,,,,,,1,,,71,0
35040,note_on,0,0,3,,,,,,,,,1,,,67,64
35040,note_on,480,0,5,,,,,,,,,3,,,67,0
35040,note_on,0,0,5,,,,,,,,,3,,,73,89
35111,note_on,71,0,4,,,,,,,,,2,,,42,0
35111,note_on,71,0,10,,,,,,,,,8,,,42,0
35160,note_on,49,0,10,,,,,,,,,8,,,40,64
35160,note_on,49,0,4,,,,,,,,,2,,,40,64
35231,note_on,71,0,4,,,,,,,,,2,,,40,0
35231,note_on,71,0,10,,,,,,,,,8,,,40,0
35280,note_on,0,0,9,,,,,,,,,7,,,54,108
35280,note_on,960,0,9,,,,,,,,,7,,,55,0
35280,note_on,240,0,3,,,,,,,,,1,,,67,0
35280,note_on,480,0,6,,,,,,,,,4,,,76,0
35280,note_on,49,0,4,,,,,,,,,2,,,45,64
35280,note_on,240,0,8,,,,,,,,,6,,,64,0
35280,note_on,0,0,6,,,,,,,,,4,,,78,89
35280,note_on,480,0,7,,,,,,,,,5,,,67,0
35280,note_on,0,0,7,,,,,,,,,5,,,69,89
35280,note_on,0,0,8,,,,,,,,,6,,,61,89
35280,note_on,49,0,10,,,,,,,,,8,,,45,64
35351,note_on,71,0,10,,,,,,,,,8,,,45,0
35351,note_on,71,0,4,,,,,,,,,2,,,45,0
35400,note_on,49,0,4,,,,,,,,,2,,,43,64
35400,note_on,49,0,10,,,,,,,,,8,,,43,64
35460,note_on,180,0,8,,,,,,,,,6,,,61,0
35471,note_on,71,0,4,,,,,,,,,2,,,43,0
35471,note_on,71,0,10,,,,,,,,,8,,,43,0
35520,note_on,0,0,2,,,,,,,,,0,,,74,64
35520,note_on,49,0,4,,,,,,,,,2,,,42,64
35520,note_on,240,0,3,,,,,,,,,1,,,69,64
35520,note_on,480,0,2,,,,,,,,,0,,,76,0
35520,note_on,0,0,5,,,,,,,,,3,,,74,89
35520,note_on,49,0,10,,,,,,,,,8,,,42,64
35520,note_on,60,0,8,,,,,,,,,6,,,66,89
35520,note_on,480,0,5,,,,,,,,,3,,,73,0
35591,note_on,71,0,4,,,,,,,,,2,,,42,0
35591,note_on,71,0,10,,,,,,,,,8,,,42,0
35640,note_on,49,0,10,,,,,,,,,8,,,45,64
35640,note_on,120,0,2,,,,,,,,,0,,,74,0
35640,note_on,0,0,2,,,,,,,,,0,,,73,64
35640,note_on,49,0,4,,,,,,,,,2,,,45,64
35711,note_on,71,0,10,,,,,,,,,8,,,45,0
35711,note_on,71,0,4,,,,,,,,,2,,,45,0
35760,note_on,49,0,4,,,,,,,,,2,,,50,64
35760,note_on,49,0,10,,,,,,,,,8,,,50,64
35760,note_on,120,0,2,,,,,,,,,0,,,73,0
35760,note_on,0,0,2,,,,,,,,,0,,,74,64
35831,note_on,71,0,10,,,,,,,,,8,,,50,0
35831,note_on,71,0,4,,,,,,,,,2,,,50,0
35880,note_on,49,0,4,,,,,,,,,2,,,48,64
35880,note_on,49,0,10,,,,,,,,,8,,,48,64
35940,note_on,660,0,6,,,,,,,,,4,,,78,0
35951,note_on,71,0,10,,,,,,,,,8,,,48,0
35951,note_on,71,0,4,,,,,,,,,2,,,48,0
36000,note_on,0,0,8,,,,,,,,,6,,,67,89
36000,note_on,240,0,2,,,,,,,,,0,,,74,0
36000,note_on,49,0,10,,,,,,,,,8,,,47,64
36000,note_on,0,0,3,,,,,,,,,1,,,67,64
36000,note_on,480,0,3,,,,,,,,,1,,,69,0
36000,note_on,60,0,6,,,,,,,,,4,,,74,108
36000,note_on,480,0,8,,,,,,,,,6,,,66,0
36000,note_on,720,0,7,,,,,,,,,5,,,69,0
36000,note_on,49,0,4,,,,,,,,,2,,,47,64
36030,note_on,510,0,5,,,,,,,,,3,,,74,0
36071,note_on,71,0,4,,,,,,,,,2,,,47,0
36071,note_on,71,0,10,,,,,,,,,8,,,47,0
36120,note_on,120,0,3,,,,,,,,,1,,,67,0
36120,note_on,49,0,10,,,,,,,,,8,,,50,64
36120,note_on,49,0,4,,,,,,,,,2,,,50,64
36120,note_on,90,0,5,,,,,,,,,3,,,69,89
36120,note_on,0,0,8,,,,,,,,,6,,,69,89
36120,note_on,120,0,8,,,,,,,,,6,,,67,0
36120,note_on,0,0,3,,,,,,,,,1,,,66,64
36191,note_on,71,0,10,,,,,,,,,8,,,50,0
36191,note_on,71,0,4,,,,,,,,,2,,,50,0
36240,note_on,120,0,5,,,,,,,,,3,,,69,0
36240,note_on,0,0,3,,,,,,,,,1,,,67,64
36240,note_on,120,0,3,,,,,,,,,1,,,66,0
36240,note_on,0,0,8,,,,,,,,,6,,,67,89
36240,note_on,240,0,2,,,,,,,,,0,,,83,64
36240,note_on,0,0,5,,,,,,,,,3,,,71,89
36240,note_on,49,0,10,,,,,,,,,8,,,43,64
36240,note_on,0,0,9,,,,,,,,,7,,,52,108
36240,note_on,49,0,4,,,,,,,,,2,,,43,64
36240,note_on,120,0,8,,,,,,,,,6,,,69,0
36240,note_on,960,0,9,,,,,,,,,7,,,54,0
36311,note_on,71,0,10,,,,,,,,,8,,,43,0
36311,note_on,71,0,4,,,,,,,,,2,,,43,0
36360,note_on,49,0,4,,,,,,,,,2,,,55,64
36360,note_on,49,0,10,,,,,,,,,8,,,55,64
36360,note_on,0,0,6,,,,,,,,,4,,,71,89
36360,note_on,360,0,6,,,,,,,,,4,,,74,0
36431,note_on,71,0,10,,,,,,,,,8,,,55,0
36431,note_on,71,0,4,,,,,,,,,2,,,55,0
36480,note_on,49,0,10,,,,,,,,,8,,,57,64
36480,note_on,0,0,3,,,,,,,,,1,,,79,64
36480,note_on,0,0,6,,,,,,,,,4,,,67,89
36480,note_on,120,0,6,,,,,,,,,4,,,71,0
36480,note_on,240,0,5,,,,,,,,,3,,,71,0
36480,note_on,0,0,5,,,,,,,,,3,,,73,89
36480,note_on,480,0,7,,,,,,,,,5,,,76,108
36480,note_on,240,0,3,,,,,,,,,1,,,67,0
36480,note_on,49,0,4,,,,,,,,,2,,,57,64
36551,note_on,71,0,10,,,,,,,,,8,,,57,0
36551,note_on,71,0,4,,,,,,,,,2,,,57,0
36600,note_on,120,0,5,,,,,,,,,3,,,73,0
36600,note_on,0,0,5,,,,,,,,,3,,,75,89
36600,note_on,49,0,4,,,,,,,,,2,,,59,64
36600,note_on,49,0,10,,,,,,,,,8,,,59,64
36671,note_on,71,0,4,,,,,,,,,2,,,59,0
36671,note_on,71,0,10,,,,,,,,,8,,,59,0
36720,note_on,240,0,6,,,,,,,,,4,,,67,0
36720,note_on,49,0,4,,,,,,,,,2,,,60,64
36720,note_on,0,0,2,,,,,,,,,0,,,79,64
36720,note_on,480,0,2,,,,,,,,,0,,,83,0
36720,note_on,120,0,5,,,,,,,,,3,,,75,0
36720,note_on,0,0,5,,,,,,,,,3,,,76,89
36720,note_on,49,0,10,,,,,,,,,8,,,60,64
36720,note_on,0,0,8,,,,,,,,,6,,,64,89
36720,note_on,480,0,8,,,,,,,,,6,,,67,0
36791,note_on,71,0,4,,,,,,,,,2,,,60,0
36791,note_on,71,0,10,,,,,,,,,8,,,60,0
36840,note_on,120,0,5,,,,,,,,,3,,,76,0
36840,note_on,49,0,4,,,,,,,,,2,,,62,64
36840,note_on,360,0,7,,,,,,,,,5,,,76,0
36840,note_on,0,0,7,,,,,,,,,5,,,71,89
36840,note_on,49,0,10,,,,,,,,,8,,,62,64
36840,note_on,0,0,5,,,,,,,,,3,,,77,89
36911,note_on,71,0,4,,,,,,,,,2,,,62,0
36911,note_on,71,0,10,,,,,,,,,8,,,62,0
36960,note_on,49,0,4,,,,,,,,,2,,,60,64
36960,note_on,0,0,7,,,,,,,,,5,,,67,89
36960,note_on,120,0,7,,,,,,,,,5,,,71,0
36960,note_on,240,0,6,,,,,,,,,4,,,76,108
36960,note_on,49,0,10,,,,,,,,,8,,,60,64
36960,note_on,0,0,5,,,,,,,,,3,,,79,89
36960,note_on,120,0,5,,,,,,,,,3,,,77,0
36960,note_on,0,0,3,,,,,,,,,1,,,76,64
36960,note_on,480,0,3,,,,,,,,,1,,,79,0
37031,note_on,71,0,10,,,,,,,,,8,,,60,0
37031,note_on,71,0,4,,,,,,,,,2,,,60,0
37080,note_on,49,0,4,,,,,,,,,2,,,59,64
37080,note_on,49,0,10,,,,,,,,,8,,,59,64
37151,note_on,71,0,4,,,,,,,,,2,,,59,0
37151,note_on,71,0,10,,,,,,,,,8,,,59,0
37200,note_on,49,0,10,,,,,,,,,8,,,57,64
37200,note_on,240,0,6,,,,,,,,,4,,,76,0
37200,note_on,0,0,6,,,,,,,,,4,,,73,89
37200,note_on,240,0,7,,,,,,,,,5,,,67,0
37200,note_on,480,0,2,,,,,,,,,0,,,79,0
37200,note_on,0,0,2,,,,,,,,,0,,,81,64
37200,note_on,0,0,9,,,,,,,,,7,,,57,108
37200,note_on,49,0,4,,,,,,,,,2,,,57,64
37200,note_on,960,0,9,,,,,,,,,7,,,52,0
37271,note_on,71,0,10,,,,,,,,,8,,,57,0
37271,note_on,71,0,4,,,,,,,,,2,,,57,0
37320,note_on,49,0,10,,,,,,,,,8,,,56,64
37320,note_on,49,0,4,,,,,,,,,2,,,56,64
37320,note_on,0,0,6,,,,,,,,,4,,,76,89
37320,note_on,120,0,6,,,,,,,,,4,,,73,0
37391,note_on,71,0,4,,,,,,,,,2,,,56,0
37391,note_on,71,0,10,,,,,,,,,8,,,56,0
37440,note_on,720,0,8,,,,,,,,,6,,,64,0
37440,note_on,49,0,4,,,,,,,,,2,,,57,64
37440,note_on,0,0,8,,,,,,,,,6,,,62,89
37440,note_on,49,0,10,,,,,,,,,8,,,57,64
37440,note_on,0,0,6,,,,,,,,,4,,,69,89
37440,note_on,0,0,5,,,,,,,,,3,,,77,89
37440,note_on,480,0,5,,,,,,,,,3,,,79,0
37440,note_on,0,0,3,,,,,,,,,1,,,77,64
37440,note_on,480,0,3,,,,,,,,,1,,,76,0
37440,note_on,240,0,7,,,,,,,,,5,,,65,89
37440,note_on,120,0,6,,,,,,,,,4,,,76,0
37511,note_on,71,0,10,,,,,,,,,8,,,57,0
37511,note_on,71,0,4,,,,,,,,,2,,,57,0
37560,note_on,49,0,10,,,,,,,,,8,,,59,64
37560,note_on,0,0,7,,,,,,,,,5,,,67,89
37560,note_on,49,0,4,,,,,,,,,2,,,59,64
37560,note_on,120,0,7,,,,,,,,,5,,,65,0
37631,note_on,71,0,10,,,,,,,,,8,,,59,0
37631,note_on,71,0,4,,,,,,,,,2,,,59,0
37680,note_on,49,0,4,,,,,,,,,2,,,61,64
37680,note_on,0,0,2,,,,,,,,,0,,,79,64
37680,note_on,0,0,8,,,,,,,,,6,,,61,89
37680,note_on,49,0,10,,,,,,,,,8,,,61,64
37680,note_on,240,0,8,,,,,,,,,6,,,62,0
37680,note_on,240,0,5,,,,,,,,,3,,,77,0
37680,note_on,480,0,2,,,,,,,,,0,,,81,0
37680,note_on,120,0,7,,,,,,,,,5,,,67,0
37680,note_on,0,0,7,,,,,,,,,5,,,69,89
37751,note_on,71,0,10,,,,,,,,,8,,,61,0
37751,note_on,71,0,4,,,,,,,,,2,,,61,0
37800,note_on,49,0,10,,,,,,,,,8,,,57,64
37800,note_on,49,0,4,,,,,,,,,2,,,57,64
37871,note_on,71,0,4,,,,,,,,,2,,,57,0
37871,note_on,71,0,10,,,,,,,,,8,,,57,0
37920,note_on,49,0,10,,,,,,,,,8,,,59,64
37920,note_on,240,0,7,,,,,,,,,5,,,69,0
37920,note_on,49,0,4,,,,,,,,,2,,,59,64
37920,note_on,0,0,8,,,,,,,,,6,,,57,89
37920,note_on,0,0,7,,,,,,,,,5,,,61,89
37920,note_on,480,0,6,,,,,,,,,4,,,69,0
37920,note_on,240,0,5,,,,,,,,,3,,,81,108
37920,note_on,0,0,3,,,,,,,,,1,,,76,64
37920,note_on,480,0,3,,,,,,,,,1,,,77,0
37920,note_on,240,0,8,,,,,,,,,6,,,61,0
37920,note_on,0,0,6,,,,,,,,,4,,,64,89
37991,note_on,71,0,4,,,,,,,,,2,,,59,0
37991,note_on,71,0,10,,,,,,,,,8,,,59,0
38040,note_on,49,0,10,,,,,,,,,8,,,61,64
38040,note_on,49,0,4,,,,,,,,,2,,,61,64
38111,note_on,71,0,10,,,,,,,,,8,,,61,0
38111,note_on,71,0,4,,,,,,,,,2,,,61,0
38160,note_on,49,0,4,,,,,,,,,2,,,62,64
38160,note_on,960,0,9,,,,,,,,,7,,,57,0
38160,note_on,0,0,6,,,,,,,,,4,,,71,89
38160,note_on,0,0,9,,,,,,,,,7,,,59,108
38160,note_on,49,0,10,,,,,,,,,8,,,62,64
38160,note_on,240,0,6,,,,,,,,,4,,,64,0
38160,note_on,0,0,8,,,,,,,,,6,,,62,89
38160,note_on,240,0,8,,,,,,,,,6,,,57,0
38160,note_on,480,0,2,,,,,,,,,0,,,79,0
38160,note_on,0,0,2,,,,,,,,,0,,,78,64
38160,note_on,0,0,7,,,,,,,,,5,,,66,89
38160,note_on,240,0,7,,,,,,,,,5,,,61,0
38231,note_on,71,0,4,,,,,,,,,2,,,62,0
38231,note_on,71,0,10,,,,,,,,,8,,,62,0
38280,note_on,49,0,4,,,,,,,,,2,,,60,64
38280,note_on,120,0,6,,,,,,,,,4,,,71,0
38280,note_on,49,0,10,,,,,,,,,8,,,60,64
38280,note_on,0,0,6,,,,,,,,,4,,,72,89
38351,note_on,71,0,10,,,,,,,,,8,,,60,0
38351,note_on,71,0,4,,,,,,,,,2,,,60,0
38400,note_on,49,0,4,,,,,,,,,2,,,59,64
38400,note_on,49,0,10,,,,,,,,,8,,,59,64
38400,note_on,0,0,5,,,,,,,,,3,,,79,89
38400,note_on,480,0,3,,,,,,,,,1,,,76,0
38400,note_on,480,0,5,,,,,,,,,3,,,81,0
38400,note_on,240,0,7,,,,,,,,,5,,,66,0
38400,note_on,0,0,7,,,,,,,,,5,,,59,89
38400,note_on,0,0,8,,,,,,,,,6,,,67,89
38400,note_on,0,0,3,,,,,,,,,1,,,74,64
38400,note_on,0,0,6,,,,,,,,,4,,,74,89
38400,note_on,120,0,6,,,,,,,,,4,,,72,0
38400,note_on,240,0,8,,,,,,,,,6,,,62,0
38471,note_on,71,0,4,,,,,,,,,2,,,59,0
38471,note_on,71,0,10,,,,,,,,,8,,,59,0
38520,note_on,49,0,10,,,,,,,,,8,,,57,64
38520,note_on,49,0,4,,,,,,,,,2,,,57,64
38591,note_on,71,0,10,,,,,,,,,8,,,57,0
38591,note_on,71,0,4,,,,,,,,,2,,,57,0
38640,note_on,49,0,10,,,,,,,,,8,,,55,64
38640,note_on,480,0,2,,,,,,,,,0,,,78,0
38640,note_on,0,0,2,,,,,,,,,0,,,83,64
38640,note_on,49,0,4,,,,,,,,,2,,,55,64
38640,note_on,240,0,7,,,,,,,,,5,,,59,0
38640,note_on,240,0,6,,,,,,,,,4,,,74,0
38640,note_on,0,0,6,,,,,,,,,4,,,74,89
38711,note_on,71,0,10,,,,,,,,,8,,,55,0
38711,note_on,71,0,4,,,,,,,,,2,,,55,0
38760,note_on,360,0,8,,,,,,,,,6,,,67,0
38760,note_on,0,0,8,,,,,,,,,6,,,69,89
38760,note_on,49,0,10,,,,,,,,,8,,,54,64
38760,note_on,49,0,4,,,,,,,,,2,,,54,64
38831,note_on,71,0,4,,,,,,,,,2,,,54,0
38831,note_on,71,0,10,,,,,,,,,8,,,54,0
38880,note_on,0,0,5,,,,,,,,,3,,,71,89
38880,note_on,49,0,4,,,,,,,,,2,,,52,64
38880,note_on,0,0,3,,,,,,,,,1,,,79,64
38880,note_on,480,0,3,,,,,,,,,1,,,74,0
38880,note_on,49,0,10,,,,,,,,,8,,,52,64
38880,note_on,480,0,5,,,,,,,,,3,,,79,0
38880,note_on,120,0,8,,,,,,,,,6,,,69,0
38880,note_on,0,0,8,,,,,,,,,6,,,67,89
38880,note_on,240,0,6,,,,,,,,,4,,,74,0
38880,note_on,240,0,7,,,,,,,,,5,,,64,89
38951,note_on,71,0,10,,,,,,,,,8,,,52,0
38951,note_on,71,0,4,,,,,,,,,2,,,52,0
38970,note_on,90,0,8,,,,,,,,,6,,,67,0
39000,note_on,49,0,4,,,,,,,,,2,,,51,64
39000,note_on,120,0,7,,,,,,,,,5,,,64,0
39000,note_on,0,0,7,,,,,,,,,5,,,66,89
39000,note_on,49,0,10,,,,,,,,,8,,,51,64
39000,note_on,30,0,8,,,,,,,,,6,,,66,89
39071,note_on,71,0,10,,,,,,,,,8,,,51,0
39071,note_on,71,0,4,,,,,,,,,2,,,51,0
39120,note_on,120,0,7,,,,,,,,,5,,,66,0
39120,note_on,0,0,7,,,,,,,,,5,,,67,89
39120,note_on,0,0,5,,,,,,,,,3,,,76,89
39120,note_on,480,0,2,,,,,,,,,0,,,83,0
39120,note_on,120,0,8,,,,,,,,,6,,,66,0
39120,note_on,0,0,8,,,,,,,,,6,,,64,89
39120,note_on,0,0,2,,,,,,,,,0,,,84,64
39120,note_on,49,0,4,,,,,,,,,2,,,52,64
39120,note_on,240,0,5,,,,,,,,,3,,,71,0
39120,note_on,49,0,10,,,,,,,,,8,,,52,64
39191,note_on,71,0,10,,,,,,,,,8,,,52,0
39191,note_on,71,0,4,,,,,,,,,2,,,52,0
39210,note_on,1050,0,9,,,,,,,,,7,,,59,0
39240,note_on,49,0,4,,,,,,,,,2,,,55,64
39240,note_on,49,0,10,,,,,,,,,8,,,55,64
39240,note_on,30,0,9,,,,,,,,,7,,,52,89
39311,note_on,71,0,4,,,,,,,,,2,,,55,0
39311,note_on,71,0,10,,,,,,,,,8,,,55,0
39360,note_on,49,0,4,,,,,,,,,2,,,54,64
39360,note_on,49,0,10,,,,,,,,,8,,,54,64
39360,note_on,0,0,9,,,,,,,,,7,,,57,89
39360,note_on,0,0,8,,,,,,,,,6,,,66,89
39360,note_on,0,0,3,,,,,,,,,1,,,81,64
39360,note_on,120,0,9,,,,,,,,,7,,,52,0
39360,note_on,240,0,7,,,,,,,,,5,,,67,0
39360,note_on,480,0,6,,,,,,,,,4,,,69,89
39360,note_on,240,0,5,,,,,,,,,3,,,76,0
39360,note_on,0,0,5,,,,,,,,,3,,,75,89
39360,note_on,480,0,3,,,,,,,,,1,,,79,0
39360,note_on,0,0,7,,,,,,,,,5,,,72,89
39360,note_on,240,0,8,,,,,,,,,6,,,64,0
39431,note_on,71,0,10,,,,,,,,,8,,,54,0
39431,note_on,71,0,4,,,,,,,,,2,,,54,0
39480,note_on,120,0,5,,,,,,,,,3,,,75,0
39480,note_on,0,0,5,,,,,,,,,3,,,76,89
39480,note_on,49,0,10,,,,,,,,,8,,,52,64
39480,note_on,360,0,2,,,,,,,,,0,,,84,0
39480,note_on,49,0,4,,,,,,,,,2,,,52,64
39480,note_on,0,0,2,,,,,,,,,0,,,78,64
39551,note_on,71,0,4,,,,,,,,,2,,,52,0
39551,note_on,71,0,10,,,,,,,,,8,,,52,0
39600,note_on,240,0,7,,,,,,,,,5,,,72,0
39600,note_on,0,0,7,,,,,,,,,5,,,71,89
39600,note_on,0,0,8,,,,,,,,,6,,,59,89
39600,note_on,0,0,2,,,,,,,,,0,,,83,64
39600,note_on,120,0,2,,,,,,,,,0,,,78,0
39600,note_on,240,0,8,,,,,,,,,6,,,66,0
39600,note_on,0,0,5,,,,,,,,,3,,,78,89
39600,note_on,120,0,5,,,,,,,,,3,,,76,0
39600,note_on,49,0,4,,,,,,,,,2,,,51,64
39600,note_on,0,0,6,,,,,,,,,4,,,66,89
39600,note_on,240,0,6,,,,,,,,,4,,,69,0
39600,note_on,49,0,10,,,,,,,,,8,,,51,64
39671,note_on,71,0,4,,,,,,,,,2,,,51,0
39671,note_on,71,0,10,,,,,,,,,8,,,51,0
39720,note_on,49,0,10,,,,,,,,,8,,,47,64
39720,note_on,0,0,3,,,,,,,,,1,,,75,64
39720,note_on,49,0,4,,,,,,,,,2,,,47,64
39720,note_on,360,0,3,,,,,,,,,1,,,81,0
39791,note_on,71,0,10,,,,,,,,,8,,,47,0
39791,note_on,71,0,4,,,,,,,,,2,,,47,0
39840,note_on,480,0,9,,,,,,,,,7,,,57,0
39840,note_on,0,0,3,,,,,,,,,1,,,76,64
39840,note_on,240,0,6,,,,,,,,,4,,,66,0
39840,note_on,0,0,5,,,,,,,,,3,,,76,89
39840,note_on,240,0,5,,,,,,,,,3,,,78,0
39840,note_on,49,0,10,,,,,,,,,8,,,52,64
39840,note_on,0,0,6,,,,,,,,,4,,,67,89
39840,note_on,49,0,4,,,,,,,,,2,,,52,64
39840,note_on,0,0,9,,,,,,,,,7,,,55,89
39840,note_on,120,0,3,,,,,,,,,1,,,75,0
39911,note_on,71,0,4,,,,,,,,,2,,,52,0
39911,note_on,71,0,10,,,,,,,,,8,,,52,0
39960,note_on,0,0,7,,,,,,,,,5,,,72,89
39960,note_on,360,0,7,,,,,,,,,5,,,71,0
39960,note_on,360,0,2,,,,,,,,,0,,,83,0
39960,note_on,0,0,2,,,,,,,,,0,,,76,64
39960,note_on,49,0,10,,,,,,,,,8,,,50,64
39960,note_on,49,0,4,,,,,,,,,2,,,50,64
40020,note_on,60,0,7,,,,,,,,,5,,,72,0
40020,note_on,0,0,7,,,,,,,,,5,,,71,89
40031,note_on,71,0,10,,,,,,,,,8,,,50,0
40031,note_on,71,0,4,,,,,,,,,2,,,50,0
40080,note_on,0,0,8,,,,,,,,,6,,,61,89
40080,note_on,480,0,8,,,,,,,,,6,,,59,0
40080,note_on,0,0,6,,,,,,,,,4,,,69,89
40080,note_on,240,0,5,,,,,,,,,3,,,76,0
40080,note_on,0,0,7,,,,,,,,,5,,,69,89
40080,note_on,60,0,7,,,,,,,,,5,,,71,0
40080,note_on,0,0,2,,,,,,,,,0,,,81,64
40080,note_on,120,0,2,,,,,,,,,0,,,76,0
40080,note_on,240,0,6,,,,,,,,,4,,,67,0
40080,note_on,49,0,10,,,,,,,,,8,,,49,64
40080,note_on,49,0,4,,,,,,,,,2,,,49,64
40151,note_on,71,0,10,,,,,,,,,8,,,49,0
40151,note_on,71,0,4,,,,,,,,,2,,,49,0
40200,note_on,0,0,3,,,,,,,,,1,,,67,64
40200,note_on,0,0,9,,,,,,,,,7,,,49,89
40200,note_on,360,0,9,,,,,,,,,7,,,55,0
40200,note_on,49,0,4,,,,,,,,,2,,,45,64
40200,note_on,360,0,3,,,,,,,,,1,,,76,0
40200,note_on,49,0,10,,,,,,,,,8,,,45,64
40271,note_on,71,0,4,,,,,,,,,2,,,45,0
40271,note_on,71,0,10,,,,,,,,,8,,,45,0
40320,note_on,49,0,10,,,,,,,,,8,,,50,64
40320,note_on,120,0,9,,,,,,,,,7,,,49,0
40320,note_on,0,0,9,,,,,,,,,7,,,54,89
40320,note_on,240,0,5,,,,,,,,,3,,,74,108
40320,note_on,49,0,4,,,,,,,,,2,,,50,64
40320,note_on,120,0,3,,,,,,,,,1,,,67,0
40320,note_on,0,0,3,,,,,,,,,1,,,66,64
40320,note_on,0,0,8,,,,,,,,,6,,,62,89
40320,note_on,240,0,8,,,,,,,,,6,,,61,0
40391,note_on,71,0,10,,,,,,,,,8,,,50,0
40391,note_on,71,0,4,,,,,,,,,2,,,50,0
40440,note_on,49,0,10,,,,,,,,,8,,,49,64
40440,note_on,360,0,2,,,,,,,,,0,,,81,0
40440,note_on,0,0,7,,,,,,,,,5,,,67,89
40440,note_on,0,0,3,,,,,,,,,1,,,69,64
40440,note_on,120,0,3,,,,,,,,,1,,,66,0
40440,note_on,49,0,4,,,,,,,,,2,,,49,64
40440,note_on,0,0,2,,,,,,,,,0,,,74,64
40440,note_on,360,0,7,,,,,,,,,5,,,69,0
40500,note_on,60,0,7,,,,,,,,,5,,,67,0
40500,note_on,0,0,7,,,,,,,,,5,,,66,89
40511,note_on,71,0,4,,,,,,,,,2,,,49,0
40511,note_on,71,0,10,,,,,,,,,8,,,49,0
40560,note_on,0,0,3,,,,,,,,,1,,,71,64
40560,note_on,120,0,3,,,,,,,,,1,,,69,0
40560,note_on,0,0,2,,,,,,,,,0,,,79,64
40560,note_on,60,0,7,,,,,,,,,5,,,66,0
40560,note_on,0,0,6,,,,,,,,,4,,,71,89
40560,note_on,480,0,6,,,,,,,,,4,,,69,0
40560,note_on,120,0,2,,,,,,,,,0,,,74,0
40560,note_on,49,0,4,,,,,,,,,2,,,47,64
40560,note_on,0,0,7,,,,,,,,,5,,,67,89
40560,note_on,49,0,10,,,,,,,,,8,,,47,64
40631,note_on,71,0,4,,,,,,,,,2,,,47,0
40631,note_on,71,0,10,,,,,,,,,8,,,47,0
40680,note_on,49,0,10,,,,,,,,,8,,,45,64
40680,note_on,49,0,4,,,,,,,,,2,,,45,64
40680,note_on,0,0,3,,,,,,,,,1,,,73,64
40680,note_on,120,0,3,,,,,,,,,1,,,71,0
40751,note_on,71,0,4,,,,,,,,,2,,,45,0
40751,note_on,71,0,10,,,,,,,,,8,,,45,0
40800,note_on,480,0,8,,,,,,,,,6,,,62,0
40800,note_on,240,0,7,,,,,,,,,5,,,67,0
40800,note_on,0,0,8,,,,,,,,,6,,,59,89
40800,note_on,0,0,7,,,,,,,,,5,,,55,89
40800,note_on,49,0,10,,,,,,,,,8,,,47,64
40800,note_on,0,0,9,,,,,,,,,7,,,52,89
40800,note_on,0,0,3,,,,,,,,,1,,,74,64
40800,note_on,120,0,3,,,,,,,,,1,,,73,0
40800,note_on,49,0,4,,,,,,,,,2,,,47,64
40800,note_on,480,0,9,,,,,,,,,7,,,54,0
40800,note_on,240,0,6,,,,,,,,,4,,,71,0
40871,note_on,71,0,10,,,,,,,,,8,,,47,0
40871,note_on,71,0,4,,,,,,,,,2,,,47,0
40920,note_on,49,0,10,,,,,,,,,8,,,49,64
40920,note_on,49,0,4,,,,,,,,,2,,,49,64
40920,note_on,600,0,5,,,,,,,,,3,,,74,0
40920,note_on,0,0,3,,,,,,,,,1,,,76,64
40920,note_on,120,0,3,,,,,,,,,1,,,74,0
40920,note_on,0,0,5,,,,,,,,,3,,,73,89
40980,note_on,60,0,5,,,,,,,,,3,,,73,0
40980,note_on,0,0,5,,,,,,,,,3,,,71,89
40991,note_on,71,0,10,,,,,,,,,8,,,49,0
40991,note_on,71,0,4,,,,,,,,,2,,,49,0
41040,note_on,60,0,5,,,,,,,,,3,,,71,0
41040,note_on,0,0,5,,,,,,,,,3,,,69,89
41040,note_on,480,0,2,,,,,,,,,0,,,79,0
41040,note_on,49,0,10,,,,,,,,,8,,,50,64
41040,note_on,49,0,4,,,,,,,,,2,,,50,64
41040,note_on,240,0,8,,,,,,,,,6,,,59,0
41040,note_on,120,0,3,,,,,,,,,1,,,76,0
41040,note_on,0,0,3,,,,,,,,,1,,,78,64
41040,note_on,0,0,8,,,,,,,,,6,,,66,89
41040,note_on,240,0,7,,,,,,,,,5,,,55,0
41040,note_on,0,0,2,,,,,,,,,0,,,78,64
41070,note_on,270,0,9,,,,,,,,,7,,,52,0
41111,note_on,71,0,10,,,,,,,,,8,,,50,0
41111,note_on,71,0,4,,,,,,,,,2,,,50,0
41160,note_on,120,0,3,,,,,,,,,1,,,78,0
41160,note_on,0,0,8,,,,,,,,,6,,,64,89
41160,note_on,49,0,10,,,,,,,,,8,,,49,64
41160,note_on,120,0,8,,,,,,,,,6,,,66,0
41160,note_on,0,0,3,,,,,,,,,1,,,81,64
41160,note_on,49,0,4,,,,,,,,,2,,,49,64
41160,note_on,120,0,5,,,,,,,,,3,,,69,0
41160,note_on,0,0,5,,,,,,,,,3,,,73,89
41160,note_on,120,0,7,,,,,,,,,5,,,69,108
41160,note_on,90,0,9,,,,,,,,,7,,,45,89
41220,note_on,60,0,3,,,,,,,,,1,,,81,0
41220,note_on,0,0,3,,,,,,,,,1,,,79,64
41231,note_on,71,0,4,,,,,,,,,2,,,49,0
41231,note_on,71,0,10,,,,,,,,,8,,,49,0
41280,note_on,120,0,5,,,,,,,,,3,,,73,0
41280,note_on,0,0,5,,,,,,,,,3,,,78,89
41280,note_on,480,0,6,,,,,,,,,4,,,69,108
41280,note_on,120,0,8,,,,,,,,,6,,,64,0
41280,note_on,49,0,4,,,,,,,,,2,,,50,64
41280,note_on,0,0,8,,,,,,,,,6,,,62,89
41280,note_on,120,0,9,,,,,,,,,7,,,45,0
41280,note_on,0,0,9,,,,,,,,,7,,,50,89
41280,note_on,60,0,3,,,,,,,,,1,,,79,0
41280,note_on,0,0,3,,,,,,,,,1,,,78,64
41280,note_on,49,0,10,,,,,,,,,8,,,50,64
41351,note_on,71,0,4,,,,,,,,,2,,,50,0
41351,note_on,71,0,10,,,,,,,,,8,,,50,0
41400,note_on,0,0,2,,,,,,,,,0,,,79,64
41400,note_on,360,0,2,,,,,,,,,0,,,78,0
41400,note_on,240,0,7,,,,,,,,,5,,,69,0
41400,note_on,120,0,3,,,,,,,,,1,,,78,0
41400,note_on,49,0,4,,,,,,,,,2,,,52,64
41400,note_on,0,0,3,,,,,,,,,1,,,76,64
41400,note_on,49,0,10,,,,,,,,,8,,,52,64
41400,note_on,0,0,7,,,,,,,,,5,,,67,89
41471,note_on,71,0,4,,,,,,,,,2,,,52,0
41471,note_on,71,0,10,,,,,,,,,8,,,52,0
41520,note_on,49,0,4,,,,,,,,,2,,,54,64
41520,note_on,120,0,3,,,,,,,,,1,,,76,0
41520,note_on,0,0,3,,,,,,,,,1,,,74,64
41520,note_on,240,0,8,,,,,,,,,6,,,62,0
41520,note_on,120,0,2,,,,,,,,,0,,,79,0
41520,note_on,0,0,7,,,,,,,,,5,,,66,89
41520,note_on,120,0,7,,,,,,,,,5,,,67,0
41520,note_on,0,0,2,,,,,,,,,0,,,81,64
41520,note_on,49,0,10,,,,,,,,,8,,,54,64
41591,note_on,71,0,10,,,,,,,,,8,,,54,0
41591,note_on,71,0,4,,,,,,,,,2,,,54,0
41640,note_on,120,0,2,,,,,,,,,0,,,81,0
41640,note_on,49,0,4,,,,,,,,,2,,,55,64
41640,note_on,0,0,2,,,,,,,,,0,,,79,64
41640,note_on,120,0,7,,,,,,,,,5,,,66,0
41640,note_on,0,0,7,,,,,,,,,5,,,62,89
41640,note_on,360,0,5,,,,,,,,,3,,,78,0
41640,note_on,0,0,5,,,,,,,,,3,,,71,89
41640,note_on,360,0,6,,,,,,,,,4,,,69,0
41640,note_on,0,0,6,,,,,,,,,4,,,71,89
41640,note_on,49,0,10,,,,,,,,,8,,,55,64
41700,note_on,0,0,2,,,,,,,,,0,,,78,64
41700,note_on,60,0,2,,,,,,,,,0,,,79,0
41711,note_on,71,0,4,,,,,,,,,2,,,55,0
41711,note_on,71,0,10,,,,,,,,,8,,,55,0
41760,note_on,240,0,8,,,,,,,,,6,,,57,89
41760,note_on,480,0,9,,,,,,,,,7,,,50,0
41760,note_on,0,0,9,,,,,,,,,7,,,49,89
41760,note_on,0,0,7,,,,,,,,,5,,,69,89
41760,note_on,49,0,10,,,,,,,,,8,,,57,64
41760,note_on,60,0,2,,,,,,,,,0,,,78,0
41760,note_on,0,0,2,,,,,,,,,0,,,76,64
41760,note_on,240,0,3,,,,,,,,,1,,,74,0
41760,note_on,120,0,7,,,,,,,,,5,,,62,0
41760,note_on,0,0,6,,,,,,,,,4,,,73,89
41760,note_on,49,0,4,,,,,,,,,2,,,57,64
41760,note_on,120,0,5,,,,,,,,,3,,,71,0
41760,note_on,0,0,5,,,,,,,,,3,,,76,89
41760,note_on,120,0,6,,,,,,,,,4,,,71,0
41831,note_on,71,0,10,,,,,,,,,8,,,57,0
41831,note_on,71,0,4,,,,,,,,,2,,,57,0
41880,note_on,0,0,6,,,,,,,,,4,,,64,89
41880,note_on,120,0,6,,,,,,,,,4,,,73,0
41880,note_on,49,0,10,,,,,,,,,8,,,55,64
41880,note_on,49,0,4,,,,,,,,,2,,,55,64
41951,note_on,71,0,4,,,,,,,,,2,,,55,0
41951,note_on,71,0,10,,,,,,,,,8,,,55,0
42000,note_on,0,0,6,,,,,,,,,4,,,66,89
42000,note_on,240,0,3,,,,,,,,,1,,,69,64
42000,note_on,240,0,8,,,,,,,,,6,,,57,0
42000,note_on,240,0,5,,,,,,,,,3,,,76,0
42000,note_on,0,0,5,,,,,,,,,3,,,69,89
42000,note_on,240,0,9,,,,,,,,,7,,,49,0
42000,note_on,49,0,10,,,,,,,,,8,,,54,64
42000,note_on,120,0,6,,,,,,,,,4,,,64,0
42000,note_on,0,0,8,,,,,,,,,6,,,57,89
42000,note_on,0,0,9,,,,,,,,,7,,,50,89
42000,note_on,49,0,4,,,,,,,,,2,,,54,64
42071,note_on,71,0,4,,,,,,,,,2,,,54,0
42071,note_on,71,0,10,,,,,,,,,8,,,54,0
42120,note_on,49,0,10,,,,,,,,,8,,,52,64
42120,note_on,360,0,7,,,,,,,,,5,,,69,0
42120,note_on,49,0,4,,,,,,,,,2,,,52,64
42120,note_on,0,0,7,,,,,,,,,5,,,67,89
42120,note_on,0,0,6,,,,,,,,,4,,,67,89
42120,note_on,120,0,6,,,,,,,,,4,,,66,0
42120,note_on,0,0,2,,,,,,,,,0,,,78,64
42120,note_on,360,0,2,,,,,,,,,0,,,76,0
42180,note_on,0,0,2,,,,,,,,,0,,,76,64
42180,note_on,60,0,2,,,,,,,,,0,,,78,0
42191,note_on,71,0,10,,,,,,,,,8,,,52,0
42191,note_on,71,0,4,,,,,,,,,2,,,52,0
42240,note_on,0,0,7,,,,,,,,,5,,,66,89
42240,note_on,60,0,2,,,,,,,,,0,,,76,0
42240,note_on,0,0,2,,,,,,,,,0,,,74,64
42240,note_on,0,0,8,,,,,,,,,6,,,57,89
42240,note_on,120,0,7,,,,,,,,,5,,,67,0
42240,note_on,49,0,4,,,,,,,,,2,,,54,64
42240,note_on,49,0,10,,,,,,,,,8,,,54,64
42240,note_on,240,0,5,,,,,,,,,3,,,69,0
42240,note_on,0,0,5,,,,,,,,,3,,,74,89
42240,note_on,0,0,6,,,,,,,,,4,,,69,89
42240,note_on,120,0,6,,,,,,,,,4,,,67,0
42240,note_on,240,0,8,,,,,,,,,6,,,57,0
42300,note_on,0,0,3,,,,,,,,,1,,,67,64
42300,note_on,300,0,3,,,,,,,,,1,,,69,0
42311,note_on,71,0,4,,,,,,,,,2,,,54,0
42311,note_on,71,0,10,,,,,,,,,8,,,54,0
42360,note_on,49,0,10,,,,,,,,,8,,,50,64
42360,note_on,0,0,3,,,,,,,,,1,,,66,64
42360,note_on,49,0,4,,,,,,,,,2,,,50,64
42360,note_on,60,0,3,,,,,,,,,1,,,67,0
42360,note_on,120,0,2,,,,,,,,,0,,,74,0
42360,note_on,0,0,2,,,,,,,,,0,,,69,64
42420,note_on,0,0,3,,,,,,,,,1,,,64,64
42420,note_on,60,0,3,,,,,,,,,1,,,66,0
42431,note_on,71,0,10,,,,,,,,,8,,,50,0
42431,note_on,71,0,4,,,,,,,,,2,,,50,0
42480,note_on,49,0,4,,,,,,,,,2,,,57,64
42480,note_on,49,0,10,,,,,,,,,8,,,57,64
42480,note_on,480,0,9,,,,,,,,,7,,,50,0
42480,note_on,240,0,8,,,,,,,,,6,,,57,0
42480,note_on,0,0,2,,,,,,,,,0,,,66,64
42480,note_on,120,0,2,,,,,,,,,0,,,69,0
42480,note_on,0,0,3,,,,,,,,,1,,,62,64
42480,note_on,0,0,9,,,,,,,,,7,,,45,89
42480,note_on,60,0,3,,,,,,,,,1,,,64,0
42480,note_on,0,0,8,,,,,,,,,6,,,57,89
42582,set_tempo,42342,1,0,,,,,,375000,,,,,,,
42600,note_on,0,0,2,,,,,,,,,0,,,62,64
42600,note_on,120,0,2,,,,,,,,,0,,,66,0
42600,note_on,0,0,3,,,,,,,,,1,,,69,64
42600,note_on,120,0,3,,,,,,,,,1,,,62,0
42660,note_on,60,0,3,,,,,,,,,1,,,69,0
42660,note_on,0,0,3,,,,,,,,,1,,,71,64
42720,note_on,60,0,3,,,,,,,,,1,,,71,0
42720,note_on,120,0,2,,,,,,,,,0,,,62,0
42720,note_on,0,0,5,,,,,,,,,3,,,73,89
42720,note_on,480,0,5,,,,,,,,,3,,,74,0
42720,note_on,0,0,2,,,,,,,,,0,,,57,64
42720,note_on,0,0,3,,,,,,,,,1,,,73,64
42720,note_on,480,0,7,,,,,,,,,5,,,66,0
42720,note_on,0,0,7,,,,,,,,,5,,,64,89
42780,note_on,0,0,3,,,,,,,,,1,,,74,64
42780,note_on,60,0,3,,,,,,,,,1,,,73,0
42840,note_on,0,0,2,,,,,,,,,0,,,81,64
42840,note_on,0,0,5,,,,,,,,,3,,,71,89
42840,note_on,60,0,3,,,,,,,,,1,,,74,0
42840,note_on,120,0,5,,,,,,,,,3,,,73,0
42840,note_on,120,0,2,,,,,,,,,0,,,57,0
42840,note_on,0,0,3,,,,,,,,,1,,,76,64
42840,note_on,120,0,7,,,,,,,,,5,,,64,0
42840,note_on,0,0,7,,,,,,,,,5,,,62,89
42868,set_tempo,286,1,0,,,,,,461538,,,,,,,
42900,note_on,0,0,3,,,,,,,,,1,,,77,64
42900,note_on,0,0,2,,,,,,,,,0,,,80,64
42900,note_on,60,0,2,,,,,,,,,0,,,81,0
42900,note_on,60,0,3,,,,,,,,,1,,,76,0
42915,set_tempo,47,1,0,,,,,,750000,,,,,,,
42935,note_on,35,0,3,,,,,,,,,1,,,77,0
42935,note_on,35,0,2,,,,,,,,,0,,,80,0
42960,note_on,0,0,10,,,,,,,,,8,,,45,64
42960,note_on,480,0,10,,,,,,,,,8,,,57,0
42960,note_on,25,0,2,,,,,,,,,0,,,81,64
42960,note_on,0,0,6,,,,,,,,,4,,,69,89
42960,note_on,480,0,4,,,,,,,,,2,,,57,0
42960,note_on,0,0,8,,,,,,,,,6,,,57,89
42960,note_on,480,0,8,,,,,,,,,6,,,57,0
42960,note_on,0,0,4,,,,,,,,,2,,,45,64
42960,note_on,25,0,3,,,,,,,,,1,,,76,64
42960,note_on,0,0,7,,,,,,,,,5,,,64,89
42960,note_on,120,0,7,,,,,,,,,5,,,62,0
42960,note_on,720,0,6,,,,,,,,,4,,,69,0
42960,note_on,120,0,5,,,,,,,,,3,,,71,0
42960,note_on,0,0,5,,,,,,,,,3,,,73,89
43440,note_on,480,0,3,,,,,,,,,1,,,76,0
43440,note_on,960,0,9,,,,,,,,,7,,,45,0
43440,note_on,480,0,6,,,,,,,,,4,,,69,0
43440,note_on,480,0,10,,,,,,,,,8,,,45,0
43440,note_on,480,0,5,,,,,,,,,3,,,73,0
43440,note_on,480,0,4,,,,,,,,,2,,,45,0
43440,note_on,480,0,7,,,,,,,,,5,,,64,0
43440,note_on,480,0,8,,,,,,,,,6,,,57,0
43440,note_on,480,0,2,,,,,,,,,0,,,81,0
44400,end_of_track,960,1,4,,,,,,,,,,,,,
44400,end_of_track,960,1,9,,,,,,,,,,,,,
44400,end_of_track,960,1,3,,,,,,,,,,,,,
44400,end_of_track,960,1,6,,,,,,,,,,,,,
44400,end_of_track,960,1,2,,,,,,,,,,,,,
44400,end_of_track,44400,1,1,,,,,,,,,,,,,
44400,end_of_track,1485,1,0,,,,,,,,,,,,,
44400,end_of_track,960,1,7,,,,,,,,,,,,,
44400,end_of_track,960,1,8,,,,,,,,,,,,,
44400,end_of_track,960,1,5,,,,,,,,,,,,,
44400,end_of_track,960,1,10,,,,,,,,,,,,,
