,note,step,duration,channel,velocity
0,62.0,0,390,3.0,0.0
1,59.0,0,390,4.0,0.0
2,43.0,0,390,6.0,0.0
3,67.0,0,180,1.0,0.0
4,67.0,0,180,2.0,0.0
5,43.0,192,390,11.0,0.0
6,31.0,0,390,7.0,0.0
7,67.0,192,180,10.0,0.0
8,62.0,0,390,1.0,0.0
9,62.0,0,390,2.0,0.0
10,62.0,0,180,10.0,0.0
11,42.0,0,390,11.0,0.0
12,57.0,0,390,4.0,0.0
13,62.0,192,180,10.0,0.0
14,42.0,0,390,6.0,0.0
15,62.0,192,390,3.0,0.0
16,30.0,0,390,7.0,0.0
17,60.0,0,180,1.0,0.0
18,60.0,0,180,10.0,0.0
19,60.0,0,180,2.0,0.0
20,55.0,0,390,4.0,0.0
21,59.0,0,180,1.0,0.0
22,31.0,0,180,7.0,0.0
23,43.0,96,180,6.0,0.0
24,59.0,0,180,10.0,0.0
25,59.0,0,180,2.0,0.0
26,43.0,0,180,11.0,0.0
27,62.0,0,390,3.0,0.0
28,33.0,0,90,7.0,0.0
29,60.0,0,90,2.0,0.0
30,45.0,96,90,11.0,0.0
31,45.0,0,90,6.0,0.0
32,60.0,0,90,10.0,0.0
33,60.0,0,90,1.0,0.0
34,62.0,0,90,1.0,0.0
35,62.0,0,90,2.0,0.0
36,47.0,0,90,6.0,0.0
37,62.0,0,90,10.0,0.0
38,47.0,192,90,11.0,0.0
39,35.0,0,90,7.0,0.0
40,60.0,0,180,3.0,0.0
41,55.0,0,180,4.0,0.0
42,60.0,192,180,10.0,0.0
43,48.0,0,180,11.0,0.0
44,64.0,0,180,2.0,0.0
45,64.0,0,180,1.0,0.0
46,48.0,0,180,6.0,0.0
47,64.0,0,180,10.0,0.0
48,36.0,0,180,7.0,0.0
49,60.0,0,180,4.0,0.0
50,60.0,0,390,6.0,0.0
51,69.0,0,180,1.0,0.0
52,60.0,0,390,11.0,0.0
53,69.0,0,180,10.0,0.0
54,64.0,192,180,10.0,0.0
55,48.0,0,390,7.0,0.0
56,69.0,0,180,2.0,0.0
57,64.0,0,180,3.0,0.0
58,57.0,0,180,4.0,0.0
59,66.0,0,180,10.0,0.0
60,62.0,0,390,10.0,0.0
61,66.0,192,180,2.0,0.0
62,66.0,0,180,1.0,0.0
63,62.0,0,390,3.0,0.0
64,67.0,0,180,1.0,0.0
65,59.0,0,180,11.0,0.0
66,62.0,0,390,4.0,0.0
67,67.0,192,180,2.0,0.0
68,67.0,0,180,10.0,0.0
69,47.0,0,180,7.0,0.0
70,59.0,0,180,6.0,0.0
71,54.0,0,180,6.0,0.0
72,54.0,0,180,11.0,0.0
73,42.0,192,180,7.0,0.0
74,69.0,0,180,3.0,0.0
75,72.0,0,180,2.0,0.0
76,72.0,0,180,10.0,0.0
77,69.0,0,180,10.0,0.0
78,72.0,0,180,1.0,0.0
79,62.0,0,180,4.0,0.0
80,67.0,0,180,10.0,0.0
81,67.0,0,180,3.0,0.0
82,55.0,0,180,6.0,0.0
83,71.0,0,180,10.0,0.0
84,71.0,0,180,1.0,0.0
85,71.0,64,180,2.0,0.0
86,43.0,0,180,7.0,0.0
87,55.0,0,180,11.0,0.0
88,50.0,0,180,7.0,0.0
89,71.0,0,60,1.0,0.0
90,62.0,0,180,4.0,0.0
91,62.0,0,180,11.0,0.0
92,67.0,64,60,10.0,0.0
93,71.0,0,60,2.0,0.0
94,62.0,0,180,6.0,0.0
95,67.0,0,60,3.0,0.0
96,71.0,0,60,10.0,0.0
97,69.0,0,60,10.0,0.0
98,69.0,0,60,3.0,0.0
99,72.0,0,60,2.0,0.0
100,72.0,0,60,1.0,0.0
101,72.0,64,60,10.0,0.0
102,67.0,0,60,10.0,0.0
103,71.0,0,60,10.0,0.0
104,71.0,192,60,2.0,0.0
105,71.0,0,60,1.0,0.0
106,67.0,0,60,3.0,0.0
107,50.0,0,180,6.0,0.0
108,69.0,0,180,1.0,0.0
109,62.0,0,180,4.0,0.0
110,38.0,0,180,7.0,0.0
111,66.0,0,180,10.0,0.0
112,69.0,0,180,10.0,0.0
113,66.0,0,180,3.0,0.0
114,69.0,576,180,2.0,0.0
115,50.0,0,180,11.0,0.0
116,57.0,192,390,4.0,0.0
117,69.0,0,180,1.0,0.0
118,36.0,0,390,7.0,0.0
119,64.0,0,390,3.0,0.0
120,69.0,192,180,2.0,0.0
121,48.0,0,390,6.0,0.0
122,69.0,0,180,10.0,0.0
123,48.0,0,390,11.0,0.0
124,64.0,0,390,2.0,0.0
125,64.0,0,180,10.0,0.0
126,64.0,192,390,1.0,0.0
127,44.0,0,390,6.0,0.0
128,64.0,0,180,10.0,0.0
129,59.0,0,390,4.0,0.0
130,32.0,0,390,7.0,0.0
131,64.0,192,390,3.0,0.0
132,44.0,0,390,11.0,0.0
133,62.0,0,180,2.0,0.0
134,62.0,0,180,1.0,0.0
135,62.0,0,180,10.0,0.0
136,60.0,0,180,10.0,0.0
137,45.0,0,180,6.0,0.0
138,57.0,0,390,4.0,0.0
139,60.0,96,180,2.0,0.0
140,33.0,0,180,7.0,0.0
141,64.0,0,390,3.0,0.0
142,45.0,0,180,11.0,0.0
143,60.0,0,180,1.0,0.0
144,47.0,0,90,6.0,0.0
145,62.0,0,90,2.0,0.0
146,62.0,0,90,1.0,0.0
147,62.0,0,90,10.0,0.0
148,35.0,96,90,7.0,0.0
149,47.0,0,90,11.0,0.0
150,48.0,48,90,11.0,0.0
151,48.0,0,90,6.0,0.0
152,64.0,0,90,1.0,0.0
153,64.0,0,90,10.0,0.0
154,64.0,0,90,2.0,0.0
155,36.0,0,90,7.0,0.0
156,65.0,0,30,10.0,0.0
157,62.0,0,180,3.0,0.0
158,38.0,0,180,7.0,0.0
159,65.0,0,30,1.0,0.0
160,57.0,0,180,4.0,0.0
161,50.0,0,180,6.0,0.0
162,50.0,0,180,11.0,0.0
163,65.0,48,30,2.0,0.0
164,64.0,96,30,10.0,0.0
165,64.0,0,30,2.0,0.0
166,64.0,0,30,1.0,0.0
167,62.0,0,90,2.0,0.0
168,62.0,192,90,1.0,0.0
169,62.0,0,90,10.0,0.0
170,71.0,0,180,1.0,0.0
171,50.0,192,390,7.0,0.0
172,62.0,0,180,4.0,0.0
173,65.0,0,180,3.0,0.0
174,71.0,0,180,2.0,0.0
175,62.0,0,390,6.0,0.0
176,62.0,0,390,11.0,0.0
177,71.0,0,180,10.0,0.0
178,65.0,192,180,10.0,0.0
179,68.0,0,180,2.0,0.0
180,68.0,0,180,1.0,0.0
181,59.0,0,180,4.0,0.0
182,64.0,0,390,10.0,0.0
183,64.0,0,390,3.0,0.0
184,68.0,0,180,10.0,0.0
185,64.0,0,390,4.0,0.0
186,69.0,0,180,1.0,0.0
187,48.0,192,180,7.0,0.0
188,69.0,0,180,2.0,0.0
189,69.0,0,180,10.0,0.0
190,60.0,0,180,6.0,0.0
191,60.0,0,180,11.0,0.0
192,56.0,0,180,6.0,0.0
193,71.0,0,180,3.0,0.0
194,74.0,0,180,1.0,0.0
195,44.0,0,180,7.0,0.0
196,56.0,0,180,11.0,0.0
197,74.0,0,180,2.0,0.0
198,74.0,192,180,10.0,0.0
199,71.0,0,180,10.0,0.0
200,69.0,64,180,3.0,0.0
201,45.0,0,180,7.0,0.0
202,72.0,0,180,10.0,0.0
203,69.0,0,180,10.0,0.0
204,72.0,0,180,2.0,0.0
205,72.0,0,180,1.0,0.0
206,57.0,0,180,11.0,0.0
207,57.0,0,180,6.0,0.0
208,64.0,0,180,4.0,0.0
209,64.0,0,180,4.0,0.0
210,52.0,0,180,7.0,0.0
211,72.0,64,60,2.0,0.0
212,72.0,0,60,1.0,0.0
213,64.0,0,180,6.0,0.0
214,69.0,0,60,3.0,0.0
215,64.0,192,180,11.0,0.0
216,72.0,0,60,10.0,0.0
217,69.0,0,60,10.0,0.0
218,74.0,0,60,10.0,0.0
219,74.0,0,60,1.0,0.0
220,74.0,0,60,2.0,0.0
221,71.0,0,60,3.0,0.0
222,71.0,64,60,10.0,0.0
223,72.0,0,60,10.0,0.0
224,69.0,0,60,10.0,0.0
225,72.0,0,60,2.0,0.0
226,72.0,0,60,1.0,0.0
227,69.0,0,60,3.0,0.0
228,52.0,0,180,6.0,0.0
229,40.0,0,180,7.0,0.0
230,64.0,0,180,4.0,0.0
231,71.0,0,180,2.0,0.0
232,71.0,0,180,10.0,0.0
233,68.0,0,180,10.0,0.0
234,68.0,0,180,3.0,0.0
235,71.0,0,180,1.0,0.0
236,52.0,192,180,11.0,0.0
237,71.0,96,90,1.0,0.0
238,69.0,96,90,1.0,0.0
239,71.0,96,90,1.0,0.0
240,57.0,0,180,6.0,0.0
241,45.0,0,180,7.0,0.0
242,72.0,96,90,1.0,0.0
243,57.0,0,180,11.0,0.0
244,64.0,96,90,1.0,0.0
245,33.0,0,180,7.0,0.0
246,45.0,0,180,6.0,0.0
247,57.0,96,90,1.0,0.0
248,45.0,0,180,11.0,0.0
249,64.0,48,90,1.0,0.0
250,72.0,48,30,1.0,0.0
251,72.0,0,180,10.0,0.0
252,69.0,48,180,4.0,0.0
253,72.0,0,180,2.0,0.0
254,72.0,0,180,3.0,0.0
255,69.0,48,30,1.0,0.0
256,71.0,48,30,1.0,0.0
257,72.0,0,30,1.0,0.0
258,64.0,0,180,10.0,0.0
259,57.0,0,180,4.0,0.0
260,64.0,0,180,3.0,0.0
261,64.0,0,180,2.0,0.0
262,74.0,48,30,1.0,0.0
263,76.0,48,30,1.0,0.0
264,78.0,48,30,1.0,0.0
265,79.0,96,30,1.0,0.0
266,48.0,0,180,11.0,0.0
267,36.0,0,180,7.0,0.0
268,48.0,96,180,6.0,0.0
269,81.0,96,90,1.0,0.0
270,72.0,0,90,1.0,0.0
271,64.0,96,90,1.0,0.0
272,33.0,0,180,7.0,0.0
273,45.0,0,180,6.0,0.0
274,45.0,96,180,11.0,0.0
275,72.0,0,90,1.0,0.0
276,76.0,0,180,3.0,0.0
277,60.0,0,180,4.0,0.0
278,76.0,0,180,10.0,0.0
279,76.0,0,180,2.0,0.0
280,81.0,96,90,1.0,0.0
281,72.0,0,90,1.0,0.0
282,72.0,0,180,2.0,0.0
283,79.0,96,90,1.0,0.0
284,57.0,0,180,4.0,0.0
285,72.0,96,180,3.0,0.0
286,72.0,0,180,10.0,0.0
287,72.0,0,90,1.0,0.0
288,38.0,0,180,7.0,0.0
289,78.0,96,90,1.0,0.0
290,50.0,0,180,11.0,0.0
291,50.0,96,180,6.0,0.0
292,72.0,0,90,1.0,0.0
293,26.0,0,180,7.0,0.0
294,38.0,48,180,6.0,0.0
295,38.0,0,180,11.0,0.0
296,62.0,96,90,1.0,0.0
297,72.0,0,90,1.0,0.0
298,69.0,0,180,2.0,0.0
299,69.0,0,180,10.0,0.0
300,62.0,0,180,4.0,0.0
301,78.0,48,30,1.0,0.0
302,69.0,0,180,3.0,0.0
303,74.0,48,30,1.0,0.0
304,76.0,48,30,1.0,0.0
305,78.0,0,30,1.0,0.0
306,66.0,0,180,3.0,0.0
307,66.0,0,180,10.0,0.0
308,66.0,0,180,2.0,0.0
309,50.0,0,180,4.0,0.0
310,79.0,48,30,1.0,0.0
311,81.0,48,30,1.0,0.0
312,83.0,48,30,1.0,0.0
313,84.0,0,30,1.0,0.0
314,42.0,96,180,7.0,0.0
315,86.0,96,90,1.0,0.0
316,54.0,0,180,6.0,0.0
317,54.0,0,180,11.0,0.0
318,74.0,0,90,1.0,0.0
319,50.0,96,180,11.0,0.0
320,50.0,0,180,6.0,0.0
321,38.0,0,180,7.0,0.0
322,62.0,96,90,1.0,0.0
323,74.0,0,90,1.0,0.0
324,66.0,0,180,4.0,0.0
325,74.0,0,180,2.0,0.0
326,86.0,96,90,1.0,0.0
327,74.0,0,180,10.0,0.0
328,74.0,0,180,3.0,0.0
329,74.0,96,90,1.0,0.0
330,69.0,0,180,2.0,0.0
331,69.0,0,180,3.0,0.0
332,84.0,96,90,1.0,0.0
333,69.0,0,180,10.0,0.0
334,62.0,0,180,4.0,0.0
335,74.0,0,90,1.0,0.0
336,43.0,0,180,7.0,0.0
337,55.0,0,180,6.0,0.0
338,55.0,0,180,11.0,0.0
339,83.0,96,90,1.0,0.0
340,74.0,96,90,1.0,0.0
341,74.0,96,180,10.0,0.0
342,71.0,0,180,3.0,0.0
343,67.0,96,90,1.0,0.0
344,74.0,0,180,2.0,0.0
345,43.0,0,180,11.0,0.0
346,31.0,0,180,7.0,0.0
347,43.0,0,180,6.0,0.0
348,71.0,0,180,10.0,0.0
349,67.0,0,180,4.0,0.0
350,74.0,0,90,1.0,0.0
351,83.0,96,90,1.0,0.0
352,71.0,96,180,4.0,0.0
353,74.0,0,180,3.0,0.0
354,79.0,0,180,2.0,0.0
355,74.0,0,180,10.0,0.0
356,79.0,0,180,10.0,0.0
357,74.0,0,90,1.0,0.0
358,83.0,96,90,1.0,0.0
359,67.0,0,180,4.0,0.0
360,71.0,0,180,10.0,0.0
361,71.0,0,180,3.0,0.0
362,83.0,96,180,10.0,0.0
363,83.0,0,180,2.0,0.0
364,74.0,0,90,1.0,0.0
365,83.0,96,90,1.0,0.0
366,76.0,0,180,2.0,0.0
367,67.0,96,180,3.0,0.0
368,60.0,0,180,4.0,0.0
369,67.0,0,180,10.0,0.0
370,76.0,0,180,10.0,0.0
371,76.0,0,90,1.0,0.0
372,60.0,0,90,11.0,0.0
373,60.0,0,90,6.0,0.0
374,48.0,96,90,7.0,0.0
375,67.0,0,90,1.0,0.0
376,59.0,0,90,6.0,0.0
377,59.0,0,90,11.0,0.0
378,76.0,96,90,1.0,0.0
379,47.0,0,90,7.0,0.0
380,57.0,96,180,6.0,0.0
381,57.0,0,180,11.0,0.0
382,84.0,96,90,1.0,0.0
383,45.0,0,180,7.0,0.0
384,76.0,0,90,1.0,0.0
385,43.0,0,180,7.0,0.0
386,55.0,96,180,11.0,0.0
387,55.0,0,180,6.0,0.0
388,83.0,96,90,1.0,0.0
389,76.0,0,90,1.0,0.0
390,54.0,0,180,11.0,0.0
391,42.0,0,180,7.0,0.0
392,54.0,96,180,6.0,0.0
393,81.0,96,90,1.0,0.0
394,76.0,0,90,1.0,0.0
395,42.0,0,180,6.0,0.0
396,66.0,0,180,4.0,0.0
397,30.0,0,180,7.0,0.0
398,69.0,0,180,10.0,0.0
399,76.0,96,180,10.0,0.0
400,42.0,0,180,11.0,0.0
401,69.0,0,180,3.0,0.0
402,76.0,0,180,2.0,0.0
403,66.0,96,90,1.0,0.0
404,76.0,0,90,1.0,0.0
405,69.0,0,180,4.0,0.0
406,78.0,0,180,10.0,0.0
407,72.0,0,180,10.0,0.0
408,72.0,0,180,3.0,0.0
409,81.0,96,90,1.0,0.0
410,78.0,0,180,2.0,0.0
411,76.0,96,90,1.0,0.0
412,81.0,96,90,1.0,0.0
413,81.0,96,180,2.0,0.0
414,69.0,0,180,10.0,0.0
415,66.0,0,180,4.0,0.0
416,69.0,0,180,3.0,0.0
417,81.0,0,180,10.0,0.0
418,76.0,0,90,1.0,0.0
419,74.0,0,180,2.0,0.0
420,66.0,0,180,10.0,0.0
421,74.0,96,180,10.0,0.0
422,59.0,0,180,4.0,0.0
423,81.0,96,90,1.0,0.0
424,66.0,0,180,3.0,0.0
425,74.0,0,90,1.0,0.0
426,59.0,96,90,6.0,0.0
427,66.0,0,90,1.0,0.0
428,47.0,0,90,7.0,0.0
429,59.0,0,90,11.0,0.0
430,57.0,0,90,6.0,0.0
431,45.0,96,90,7.0,0.0
432,57.0,0,90,11.0,0.0
433,74.0,0,90,1.0,0.0
434,55.0,0,180,6.0,0.0
435,55.0,96,180,11.0,0.0
436,43.0,0,180,7.0,0.0
437,83.0,96,90,1.0,0.0
438,74.0,0,90,1.0,0.0
439,42.0,0,180,7.0,0.0
440,81.0,96,90,1.0,0.0
441,54.0,96,180,6.0,0.0
442,54.0,0,180,11.0,0.0
443,74.0,0,90,1.0,0.0
444,52.0,0,180,11.0,0.0
445,52.0,0,180,6.0,0.0
446,40.0,0,180,7.0,0.0
447,79.0,96,90,1.0,0.0
448,74.0,96,90,1.0,0.0
449,67.0,0,180,10.0,0.0
450,40.0,0,180,6.0,0.0
451,64.0,96,90,1.0,0.0
452,28.0,0,180,7.0,0.0
453,74.0,0,180,10.0,0.0
454,40.0,0,180,11.0,0.0
455,74.0,0,180,2.0,0.0
456,64.0,0,180,4.0,0.0
457,67.0,0,180,3.0,0.0
458,74.0,96,90,1.0,0.0
459,79.0,96,90,1.0,0.0
460,76.0,0,180,2.0,0.0
461,76.0,96,180,10.0,0.0
462,71.0,0,180,3.0,0.0
463,71.0,0,180,10.0,0.0
464,69.0,0,180,4.0,0.0
465,74.0,0,90,1.0,0.0
466,67.0,0,180,10.0,0.0
467,67.0,0,180,3.0,0.0
468,64.0,0,180,4.0,0.0
469,79.0,0,180,10.0,0.0
470,79.0,0,180,2.0,0.0
471,79.0,96,90,1.0,0.0
472,74.0,96,90,1.0,0.0
473,72.0,0,1140,10.0,0.0
474,64.0,0,750,3.0,0.0
475,64.0,0,750,10.0,0.0
476,72.0,0,1140,2.0,0.0
477,79.0,96,90,1.0,0.0
478,57.0,0,1140,4.0,0.0
479,72.0,96,90,1.0,0.0
480,57.0,0,90,11.0,0.0
481,57.0,0,90,6.0,0.0
482,64.0,0,90,1.0,0.0
483,45.0,96,90,7.0,0.0
484,55.0,0,90,11.0,0.0
485,43.0,0,90,7.0,0.0
486,72.0,96,90,1.0,0.0
487,55.0,0,90,6.0,0.0
488,42.0,0,180,7.0,0.0
489,54.0,0,180,11.0,0.0
490,54.0,96,180,6.0,0.0
491,81.0,96,90,1.0,0.0
492,72.0,0,90,1.0,0.0
493,52.0,96,180,11.0,0.0
494,40.0,0,180,7.0,0.0
495,52.0,0,180,6.0,0.0
496,79.0,96,90,1.0,0.0
497,72.0,0,90,1.0,0.0
498,78.0,96,90,1.0,0.0
499,50.0,96,180,6.0,0.0
500,50.0,0,180,11.0,0.0
501,69.0,0,390,3.0,0.0
502,69.0,0,390,10.0,0.0
503,38.0,0,180,7.0,0.0
504,72.0,0,90,1.0,0.0
505,62.0,96,90,1.0,0.0
506,38.0,0,180,11.0,0.0
507,26.0,0,180,7.0,0.0
508,38.0,96,180,6.0,0.0
509,72.0,0,90,1.0,0.0
510,62.0,96,180,10.0,0.0
511,78.0,96,90,1.0,0.0
512,62.0,0,180,2.0,0.0
513,72.0,0,90,1.0,0.0
514,64.0,0,180,2.0,0.0
515,64.0,0,180,10.0,0.0
516,79.0,96,90,1.0,0.0
517,72.0,96,90,1.0,0.0
518,66.0,96,180,2.0,0.0
519,66.0,0,180,10.0,0.0
520,81.0,96,90,1.0,0.0
521,72.0,0,90,1.0,0.0
522,83.0,96,90,1.0,0.0
523,67.0,0,180,10.0,0.0
524,67.0,96,180,2.0,0.0
525,72.0,0,90,1.0,0.0
526,66.0,96,180,10.0,0.0
527,81.0,96,90,1.0,0.0
528,66.0,0,180,2.0,0.0
529,72.0,0,90,1.0,0.0
530,64.0,0,180,2.0,0.0
531,64.0,96,180,10.0,0.0
532,79.0,96,90,1.0,0.0
533,72.0,0,90,1.0,0.0
534,50.0,0,180,6.0,0.0
535,78.0,96,90,1.0,0.0
536,50.0,96,180,11.0,0.0
537,62.0,0,390,2.0,0.0
538,62.0,96,390,10.0,0.0
539,38.0,0,180,7.0,0.0
540,72.0,0,90,1.0,0.0
541,38.0,0,180,11.0,0.0
542,38.0,0,180,6.0,0.0
543,62.0,96,90,1.0,0.0
544,26.0,0,180,7.0,0.0
545,72.0,0,90,1.0,0.0
546,78.0,96,90,1.0,0.0
547,69.0,0,180,10.0,0.0
548,69.0,96,180,3.0,0.0
549,72.0,0,180,2.0,0.0
550,72.0,0,180,10.0,0.0
551,50.0,0,180,4.0,0.0
552,72.0,0,90,1.0,0.0
553,67.0,0,180,3.0,0.0
554,52.0,0,180,4.0,0.0
555,71.0,96,180,10.0,0.0
556,79.0,96,90,1.0,0.0
557,67.0,0,180,10.0,0.0
558,71.0,0,180,2.0,0.0
559,72.0,0,90,1.0,0.0
560,66.0,0,180,3.0,0.0
561,69.0,0,180,10.0,0.0
562,69.0,0,180,2.0,0.0
563,81.0,96,90,1.0,0.0
564,66.0,0,180,10.0,0.0
565,54.0,96,180,4.0,0.0
566,72.0,0,90,1.0,0.0
567,64.0,96,180,3.0,0.0
568,83.0,96,90,1.0,0.0
569,67.0,0,180,2.0,0.0
570,67.0,0,180,10.0,0.0
571,55.0,0,180,4.0,0.0
572,64.0,0,180,10.0,0.0
573,72.0,0,90,1.0,0.0
574,54.0,0,180,4.0,0.0
575,66.0,0,180,3.0,0.0
576,81.0,96,90,1.0,0.0
577,69.0,0,180,2.0,0.0
578,69.0,0,180,10.0,0.0
579,66.0,0,180,10.0,0.0
580,72.0,96,90,1.0,0.0
581,79.0,96,90,1.0,0.0
582,71.0,96,180,2.0,0.0
583,52.0,0,180,4.0,0.0
584,67.0,0,180,3.0,0.0
585,67.0,0,180,10.0,0.0
586,71.0,0,180,10.0,0.0
587,72.0,0,90,1.0,0.0
588,78.0,96,90,1.0,0.0
589,72.0,0,180,2.0,0.0
590,69.0,0,180,10.0,0.0
591,72.0,0,180,10.0,0.0
592,69.0,96,180,3.0,0.0
593,50.0,0,180,4.0,0.0
594,72.0,0,90,1.0,0.0
595,71.0,96,90,2.0,0.0
596,71.0,0,90,1.0,0.0
597,50.0,0,180,11.0,0.0
598,38.0,0,180,7.0,0.0
599,67.0,0,90,3.0,0.0
600,50.0,0,180,6.0,0.0
601,62.0,96,180,4.0,0.0
602,71.0,0,90,10.0,0.0
603,67.0,0,90,10.0,0.0
604,69.0,0,90,1.0,0.0
605,66.0,0,90,10.0,0.0
606,66.0,0,90,3.0,0.0
607,69.0,0,90,10.0,0.0
608,69.0,0,90,2.0,0.0
609,55.0,0,180,11.0,0.0
610,71.0,0,180,2.0,0.0
611,62.0,0,180,4.0,0.0
612,67.0,0,180,3.0,0.0
613,55.0,0,180,6.0,0.0
614,71.0,0,180,10.0,0.0
615,71.0,96,90,1.0,0.0
616,43.0,0,180,7.0,0.0
617,67.0,96,180,10.0,0.0
618,79.0,0,90,1.0,0.0
619,64.0,0,180,4.0,0.0
620,48.0,0,180,6.0,0.0
621,69.0,96,90,1.0,0.0
622,67.0,0,180,3.0,0.0
623,48.0,0,180,11.0,0.0
624,67.0,0,180,10.0,0.0
625,79.0,96,180,10.0,0.0
626,79.0,0,180,2.0,0.0
627,36.0,0,180,7.0,0.0
628,67.0,0,90,1.0,0.0
629,62.0,0,750,4.0,0.0
630,38.0,0,390,7.0,0.0
631,50.0,96,390,6.0,0.0
632,67.0,0,180,3.0,0.0
633,67.0,0,180,10.0,0.0
634,71.0,0,390,10.0,0.0
635,50.0,0,390,11.0,0.0
636,71.0,0,390,2.0,0.0
637,62.0,96,90,1.0,0.0
638,69.0,96,90,1.0,0.0
639,62.0,0,390,3.0,0.0
640,79.0,96,90,1.0,0.0
641,62.0,64,390,10.0,0.0
642,76.0,0,90,1.0,0.0
643,38.0,0,390,6.0,0.0
644,26.0,0,390,7.0,0.0
645,78.0,32,90,1.0,0.0
646,69.0,0,120,2.0,0.0
647,38.0,0,390,11.0,0.0
648,69.0,64,120,10.0,0.0
649,81.0,0,90,1.0,0.0
650,71.0,0,120,2.0,0.0
651,71.0,32,120,10.0,0.0
652,60.0,192,180,3.0,0.0
653,60.0,0,180,10.0,0.0
654,74.0,96,90,1.0,0.0
655,69.0,0,120,2.0,0.0
656,69.0,0,120,10.0,0.0
657,78.0,0,90,1.0,0.0
658,62.0,0,180,4.0,0.0
659,43.0,0,390,6.0,0.0
660,67.0,192,180,2.0,0.0
661,79.0,0,180,1.0,0.0
662,67.0,0,180,10.0,0.0
663,59.0,0,180,10.0,0.0
664,55.0,0,180,0.0,0.0
665,43.0,0,390,11.0,0.0
666,59.0,0,180,3.0,0.0
667,31.0,192,390,7.0,0.0
668,67.0,0,180,1.0,0.0
669,50.0,0,390,0.0,0.0
670,42.0,192,390,6.0,0.0
671,30.0,0,390,7.0,0.0
672,69.0,0,180,2.0,0.0
673,69.0,0,180,10.0,0.0
674,62.0,0,180,10.0,0.0
675,42.0,0,390,11.0,0.0
676,62.0,192,180,4.0,0.0
677,62.0,0,180,3.0,0.0
678,48.0,0,180,0.0,0.0
679,71.0,0,180,2.0,0.0
680,43.0,0,180,11.0,0.0
681,47.0,0,180,0.0,0.0
682,67.0,0,180,10.0,0.0
683,31.0,0,180,7.0,0.0
684,43.0,96,180,6.0,0.0
685,67.0,0,180,3.0,0.0
686,71.0,0,180,10.0,0.0
687,62.0,0,180,4.0,0.0
688,33.0,0,90,7.0,0.0
689,48.0,0,90,0.0,0.0
690,45.0,96,90,11.0,0.0
691,45.0,0,90,6.0,0.0
692,35.0,0,90,7.0,0.0
693,50.0,0,90,0.0,0.0
694,47.0,0,90,6.0,0.0
695,47.0,192,90,11.0,0.0
696,36.0,0,180,7.0,0.0
697,60.0,0,180,4.0,0.0
698,64.0,0,180,3.0,0.0
699,48.0,0,180,11.0,0.0
700,64.0,192,180,10.0,0.0
701,69.0,0,180,10.0,0.0
702,48.0,0,180,6.0,0.0
703,69.0,0,180,2.0,0.0
704,52.0,0,180,0.0,0.0
705,57.0,192,180,0.0,0.0
706,60.0,0,390,6.0,0.0
707,60.0,0,390,11.0,0.0
708,48.0,0,390,7.0,0.0
709,74.0,0,180,10.0,0.0
710,62.0,0,180,3.0,0.0
711,54.0,0,180,0.0,0.0
712,74.0,192,180,2.0,0.0
713,54.0,0,180,4.0,0.0
714,62.0,0,180,10.0,0.0
715,59.0,192,180,6.0,0.0
716,62.0,192,390,4.0,0.0
717,67.0,0,180,2.0,0.0
718,55.0,0,180,0.0,0.0
719,74.0,0,180,3.0,0.0
720,67.0,0,180,10.0,0.0
721,74.0,0,180,10.0,0.0
722,67.0,0,180,1.0,0.0
723,47.0,0,180,7.0,0.0
724,59.0,0,180,11.0,0.0
725,54.0,0,180,11.0,0.0
726,72.0,0,180,2.0,0.0
727,72.0,0,180,1.0,0.0
728,69.0,0,180,3.0,0.0
729,60.0,0,180,0.0,0.0
730,42.0,0,180,7.0,0.0
731,72.0,0,180,10.0,0.0
732,69.0,0,180,10.0,0.0
733,54.0,0,180,6.0,0.0
734,71.0,0,180,2.0,0.0
735,67.0,0,180,3.0,0.0
736,55.0,0,180,11.0,0.0
737,43.0,0,180,7.0,0.0
738,71.0,0,180,1.0,0.0
739,71.0,0,180,10.0,0.0
740,67.0,0,180,10.0,0.0
741,55.0,64,180,6.0,0.0
742,62.0,0,180,4.0,0.0
743,59.0,0,180,0.0,0.0
744,67.0,0,60,3.0,0.0
745,50.0,0,180,7.0,0.0
746,71.0,0,60,2.0,0.0
747,62.0,0,180,11.0,0.0
748,62.0,0,180,4.0,0.0
749,71.0,0,60,10.0,0.0
750,67.0,64,60,10.0,0.0
751,62.0,0,180,6.0,0.0
752,59.0,0,180,0.0,0.0
753,71.0,0,60,1.0,0.0
754,72.0,64,60,1.0,0.0
755,69.0,0,60,3.0,0.0
756,72.0,0,60,10.0,0.0
757,69.0,0,60,10.0,0.0
758,72.0,0,60,2.0,0.0
759,71.0,0,60,2.0,0.0
760,67.0,0,60,10.0,0.0
761,71.0,96,60,10.0,0.0
762,67.0,0,60,3.0,0.0
763,71.0,0,60,1.0,0.0
764,54.0,0,180,6.0,0.0
765,66.0,0,90,3.0,0.0
766,57.0,0,180,0.0,0.0
767,54.0,0,180,11.0,0.0
768,69.0,0,90,2.0,0.0
769,69.0,48,270,1.0,0.0
770,62.0,0,390,4.0,0.0
771,66.0,96,90,10.0,0.0
772,69.0,0,90,10.0,0.0
773,42.0,0,180,7.0,0.0
774,64.0,0,90,3.0,0.0
775,67.0,0,90,10.0,0.0
776,64.0,0,90,10.0,0.0
777,67.0,96,90,2.0,0.0
778,36.0,0,180,7.0,0.0
779,69.0,0,180,10.0,0.0
780,48.0,0,180,6.0,0.0
781,48.0,0,180,11.0,0.0
782,69.0,0,180,2.0,0.0
783,66.0,48,180,3.0,0.0
784,66.0,0,180,10.0,0.0
785,71.0,48,30,1.0,0.0
786,72.0,0,30,1.0,0.0
787,62.0,0,180,4.0,0.0
788,74.0,48,30,1.0,0.0
789,35.0,0,180,7.0,0.0
790,71.0,0,180,2.0,0.0
791,47.0,0,180,6.0,0.0
792,68.0,0,180,3.0,0.0
793,47.0,0,180,11.0,0.0
794,68.0,192,180,10.0,0.0
795,71.0,0,180,10.0,0.0
796,76.0,48,30,1.0,0.0
797,78.0,48,30,1.0,0.0
798,80.0,0,30,1.0,0.0
799,72.0,0,180,2.0,0.0
800,33.0,0,390,7.0,0.0
801,64.0,192,180,4.0,0.0
802,72.0,0,180,10.0,0.0
803,64.0,0,180,10.0,0.0
804,81.0,0,180,1.0,0.0
805,45.0,0,390,11.0,0.0
806,64.0,0,180,3.0,0.0
807,45.0,0,390,6.0,0.0
808,57.0,0,180,0.0,0.0
809,52.0,0,390,0.0,0.0
810,69.0,192,180,1.0,0.0
811,32.0,0,390,7.0,0.0
812,44.0,192,390,6.0,0.0
813,44.0,0,390,11.0,0.0
814,76.0,0,180,2.0,0.0
815,76.0,0,180,10.0,0.0
816,71.0,192,180,10.0,0.0
817,71.0,0,180,3.0,0.0
818,64.0,0,180,4.0,0.0
819,50.0,0,180,0.0,0.0
820,45.0,0,180,11.0,0.0
821,33.0,0,180,7.0,0.0
822,81.0,0,180,2.0,0.0
823,72.0,0,180,10.0,0.0
824,64.0,96,180,4.0,0.0
825,48.0,0,180,0.0,0.0
826,72.0,0,180,3.0,0.0
827,81.0,0,180,10.0,0.0
828,45.0,0,180,6.0,0.0
829,50.0,0,90,0.0,0.0
830,47.0,0,90,6.0,0.0
831,47.0,96,90,11.0,0.0
832,35.0,0,90,7.0,0.0
833,48.0,0,90,11.0,0.0
834,36.0,0,90,7.0,0.0
835,52.0,48,90,0.0,0.0
836,48.0,0,90,6.0,0.0
837,38.0,0,180,7.0,0.0
838,50.0,192,180,11.0,0.0
839,69.0,0,180,2.0,0.0
840,71.0,0,180,10.0,0.0
841,69.0,0,180,10.0,0.0
842,50.0,0,180,6.0,0.0
843,71.0,0,180,3.0,0.0
844,62.0,0,180,4.0,0.0
845,53.0,48,30,0.0,0.0
846,52.0,96,30,0.0,0.0
847,50.0,0,90,0.0,0.0
848,59.0,192,180,0.0,0.0
849,62.0,0,390,6.0,0.0
850,62.0,0,390,11.0,0.0
851,50.0,0,390,7.0,0.0
852,76.0,0,180,2.0,0.0
853,56.0,0,180,0.0,0.0
854,64.0,0,180,4.0,0.0
855,76.0,0,180,10.0,0.0
856,71.0,192,180,10.0,0.0
857,71.0,0,180,3.0,0.0
858,64.0,0,390,4.0,0.0
859,48.0,192,180,7.0,0.0
860,69.0,0,180,2.0,0.0
861,76.0,0,180,10.0,0.0
862,69.0,0,180,10.0,0.0
863,60.0,0,180,6.0,0.0
864,76.0,0,180,3.0,0.0
865,69.0,0,180,1.0,0.0
866,57.0,0,180,0.0,0.0
867,60.0,0,180,11.0,0.0
868,74.0,0,180,1.0,0.0
869,56.0,0,180,6.0,0.0
870,71.0,0,180,10.0,0.0
871,71.0,0,180,3.0,0.0
872,74.0,0,180,10.0,0.0
873,56.0,0,180,11.0,0.0
874,62.0,0,180,0.0,0.0
875,44.0,0,180,7.0,0.0
876,74.0,192,180,2.0,0.0
877,72.0,64,180,1.0,0.0
878,72.0,0,180,10.0,0.0
879,69.0,0,180,10.0,0.0
880,57.0,0,180,11.0,0.0
881,60.0,0,180,0.0,0.0
882,64.0,0,180,4.0,0.0
883,57.0,0,180,6.0,0.0
884,69.0,0,180,3.0,0.0
885,72.0,0,180,2.0,0.0
886,45.0,0,180,7.0,0.0
887,72.0,0,60,10.0,0.0
888,69.0,0,60,10.0,0.0
889,72.0,0,60,1.0,0.0
890,52.0,0,180,6.0,0.0
891,72.0,0,60,2.0,0.0
892,69.0,64,60,3.0,0.0
893,40.0,0,180,7.0,0.0
894,60.0,0,180,0.0,0.0
895,64.0,0,180,4.0,0.0
896,52.0,0,180,11.0,0.0
897,71.0,64,60,3.0,0.0
898,74.0,0,60,2.0,0.0
899,74.0,0,60,1.0,0.0
900,74.0,0,60,10.0,0.0
901,71.0,0,60,10.0,0.0
902,72.0,0,60,1.0,0.0
903,72.0,0,60,2.0,0.0
904,69.0,96,60,3.0,0.0
905,69.0,0,60,10.0,0.0
906,72.0,0,60,10.0,0.0
907,71.0,0,180,2.0,0.0
908,50.0,0,180,11.0,0.0
909,50.0,48,180,6.0,0.0
910,59.0,0,180,0.0,0.0
911,38.0,0,180,7.0,0.0
912,71.0,0,180,1.0,0.0
913,64.0,0,390,4.0,0.0
914,68.0,96,90,10.0,0.0
915,71.0,0,180,10.0,0.0
916,68.0,0,90,3.0,0.0
917,66.0,0,90,10.0,0.0
918,66.0,0,90,3.0,0.0
919,38.0,0,180,7.0,0.0
920,36.0,0,180,7.0,0.0
921,76.0,0,180,10.0,0.0
922,67.0,0,180,10.0,0.0
923,50.0,0,180,6.0,0.0
924,71.0,48,30,1.0,0.0
925,48.0,0,180,6.0,0.0
926,50.0,0,180,11.0,0.0
927,76.0,0,180,2.0,0.0
928,48.0,0,180,11.0,0.0
929,67.0,48,180,3.0,0.0
930,69.0,48,30,1.0,0.0
931,71.0,48,30,1.0,0.0
932,72.0,0,30,1.0,0.0
933,71.0,0,180,3.0,0.0
934,74.0,48,30,1.0,0.0
935,47.0,0,180,11.0,0.0
936,74.0,96,180,10.0,0.0
937,71.0,0,180,10.0,0.0
938,35.0,0,180,7.0,0.0
939,64.0,0,180,4.0,0.0
940,74.0,0,180,2.0,0.0
941,47.0,0,180,6.0,0.0
942,76.0,48,30,1.0,0.0
943,78.0,48,30,1.0,0.0
944,80.0,0,30,1.0,0.0
945,45.0,96,180,11.0,0.0
946,72.0,0,180,10.0,0.0
947,64.0,0,180,3.0,0.0
948,45.0,0,180,6.0,0.0
949,64.0,0,180,4.0,0.0
950,64.0,0,180,10.0,0.0
951,72.0,0,180,2.0,0.0
952,60.0,96,90,0.0,0.0
953,33.0,0,180,7.0,0.0
954,81.0,0,90,1.0,0.0
955,72.0,0,90,1.0,0.0
956,59.0,0,90,0.0,0.0
957,64.0,96,90,1.0,0.0
958,57.0,0,390,0.0,0.0
959,72.0,92,90,1.0,0.0
960,81.0,96,90,1.0,0.0
961,48.0,0,180,6.0,0.0
962,36.0,0,180,7.0,0.0
963,76.0,0,180,2.0,0.0
964,69.0,0,180,3.0,0.0
965,48.0,92,180,11.0,0.0
966,69.0,0,180,10.0,0.0
967,76.0,0,180,10.0,0.0
968,64.0,0,180,4.0,0.0
969,72.0,4,90,1.0,0.0
970,81.0,96,90,1.0,0.0
971,55.0,92,180,0.0,0.0
972,72.0,4,90,1.0,0.0
973,81.0,96,90,1.0,0.0
974,78.0,0,180,2.0,0.0
975,38.0,0,180,7.0,0.0
976,62.0,0,180,4.0,0.0
977,54.0,0,180,0.0,0.0
978,50.0,0,180,6.0,0.0
979,78.0,0,180,10.0,0.0
980,69.0,0,180,10.0,0.0
981,69.0,0,180,3.0,0.0
982,50.0,92,180,11.0,0.0
983,72.0,4,90,1.0,0.0
984,62.0,4,90,1.0,0.0
985,52.0,92,90,0.0,0.0
986,72.0,4,90,1.0,0.0
987,50.0,92,90,0.0,0.0
988,81.0,96,90,1.0,0.0
989,38.0,0,180,6.0,0.0
990,60.0,0,180,0.0,0.0
991,69.0,92,180,3.0,0.0
992,26.0,0,180,7.0,0.0
993,69.0,0,180,10.0,0.0
994,62.0,0,180,4.0,0.0
995,78.0,0,180,10.0,0.0
996,78.0,0,180,2.0,0.0
997,38.0,0,180,11.0,0.0
998,72.0,4,90,1.0,0.0
999,81.0,96,90,1.0,0.0
1000,60.0,88,180,0.0,0.0
1001,72.0,4,90,1.0,0.0
1002,79.0,96,90,1.0,0.0
1003,31.0,0,180,7.0,0.0
1004,67.0,0,180,3.0,0.0
1005,60.0,0,180,0.0,0.0
1006,62.0,0,180,4.0,0.0
1007,79.0,0,180,2.0,0.0
1008,67.0,0,180,10.0,0.0
1009,79.0,0,180,10.0,0.0
1010,43.0,88,180,11.0,0.0
1011,43.0,0,180,6.0,0.0
1012,71.0,8,90,1.0,0.0
1013,62.0,96,90,1.0,0.0
1014,55.0,0,180,6.0,0.0
1015,71.0,0,180,10.0,0.0
1016,67.0,0,390,10.0,0.0
1017,71.0,0,180,2.0,0.0
1018,43.0,0,180,7.0,0.0
1019,55.0,88,180,11.0,0.0
1020,67.0,0,390,3.0,0.0
1021,71.0,88,390,4.0,0.0
1022,59.0,0,180,0.0,0.0
1023,71.0,8,90,1.0,0.0
1024,79.0,96,90,1.0,0.0
1025,73.0,0,180,10.0,0.0
1026,57.0,0,180,6.0,0.0
1027,73.0,0,180,2.0,0.0
1028,57.0,0,180,11.0,0.0
1029,45.0,0,180,7.0,0.0
1030,71.0,8,90,1.0,0.0
1031,79.0,96,90,1.0,0.0
1032,66.0,0,180,3.0,0.0
1033,59.0,0,180,4.0,0.0
1034,66.0,0,180,10.0,0.0
1035,75.0,0,180,10.0,0.0
1036,75.0,88,180,2.0,0.0
1037,47.0,0,180,7.0,0.0
1038,59.0,0,180,6.0,0.0
1039,59.0,0,180,11.0,0.0
1040,71.0,8,90,1.0,0.0
1041,79.0,8,90,1.0,0.0
1042,60.0,88,180,11.0,0.0
1043,64.0,0,180,3.0,0.0
1044,60.0,0,180,6.0,0.0
1045,57.0,88,90,0.0,0.0
1046,64.0,0,180,10.0,0.0
1047,76.0,0,180,10.0,0.0
1048,64.0,0,180,4.0,0.0
1049,76.0,0,180,2.0,0.0
1050,48.0,0,180,7.0,0.0
1051,69.0,8,90,1.0,0.0
1052,55.0,0,90,0.0,0.0
1053,64.0,96,90,1.0,0.0
1054,54.0,0,390,0.0,0.0
1055,69.0,96,90,1.0,0.0
1056,78.0,96,90,1.0,0.0
1057,72.0,0,180,2.0,0.0
1058,66.0,88,180,4.0,0.0
1059,72.0,0,180,10.0,0.0
1060,69.0,0,180,10.0,0.0
1061,57.0,0,180,11.0,0.0
1062,69.0,0,180,3.0,0.0
1063,57.0,0,180,6.0,0.0
1064,45.0,0,180,7.0,0.0
1065,69.0,8,90,1.0,0.0
1066,78.0,96,90,1.0,0.0
1067,52.0,84,180,0.0,0.0
1068,69.0,8,90,1.0,0.0
1069,78.0,96,90,1.0,0.0
1070,59.0,0,180,4.0,0.0
1071,47.0,0,180,7.0,0.0
1072,71.0,0,180,2.0,0.0
1073,66.0,0,180,10.0,0.0
1074,66.0,0,180,3.0,0.0
1075,59.0,0,180,11.0,0.0
1076,51.0,0,180,0.0,0.0
1077,71.0,0,180,10.0,0.0
1078,59.0,84,180,6.0,0.0
1079,71.0,12,90,1.0,0.0
1080,69.0,12,90,1.0,0.0
1081,49.0,84,90,0.0,0.0
1082,71.0,12,90,1.0,0.0
1083,47.0,84,90,0.0,0.0
1084,78.0,96,90,1.0,0.0
1085,47.0,0,180,6.0,0.0
1086,35.0,0,180,7.0,0.0
1087,71.0,0,180,10.0,0.0
1088,75.0,0,180,2.0,0.0
1089,47.0,0,180,11.0,0.0
1090,75.0,0,180,10.0,0.0
1091,71.0,84,180,3.0,0.0
1092,57.0,0,180,0.0,0.0
1093,59.0,0,180,4.0,0.0
1094,71.0,12,90,1.0,0.0
1095,78.0,96,90,1.0,0.0
1096,57.0,84,180,0.0,0.0
1097,71.0,12,90,1.0,0.0
1098,76.0,96,90,1.0,0.0
1099,71.0,0,180,3.0,0.0
1100,40.0,84,180,11.0,0.0
1101,59.0,0,180,4.0,0.0
1102,28.0,0,180,7.0,0.0
1103,57.0,0,180,0.0,0.0
1104,76.0,0,180,2.0,0.0
1105,76.0,0,180,10.0,0.0
1106,71.0,0,180,10.0,0.0
1107,40.0,0,180,6.0,0.0
1108,71.0,12,90,1.0,0.0
1109,67.0,12,90,1.0,0.0
1110,59.0,0,90,6.0,0.0
1111,59.0,0,90,11.0,0.0
1112,47.0,84,90,7.0,0.0
1113,55.0,96,390,0.0,0.0
1114,71.0,12,90,1.0,0.0
1115,57.0,0,90,6.0,0.0
1116,45.0,180,90,7.0,0.0
1117,57.0,0,90,11.0,0.0
1118,76.0,12,180,1.0,0.0
1119,43.0,0,180,7.0,0.0
1120,55.0,0,180,6.0,0.0
1121,55.0,0,180,11.0,0.0
1122,54.0,0,180,6.0,0.0
1123,54.0,192,180,11.0,0.0
1124,42.0,0,180,7.0,0.0
1125,59.0,96,90,0.0,0.0
1126,57.0,0,90,0.0,0.0
1127,40.0,0,180,7.0,0.0
1128,52.0,0,180,11.0,0.0
1129,52.0,0,180,6.0,0.0
1130,55.0,192,180,0.0,0.0
1131,54.0,0,180,0.0,0.0
1132,50.0,96,180,6.0,0.0
1133,38.0,0,180,7.0,0.0
1134,50.0,0,180,11.0,0.0
1135,37.0,0,180,7.0,0.0
1136,52.0,96,90,0.0,0.0
1137,49.0,0,180,11.0,0.0
1138,49.0,0,180,6.0,0.0
1139,54.0,192,90,0.0,0.0
1140,47.0,180,180,6.0,0.0
1141,47.0,0,180,11.0,0.0
1142,55.0,0,180,0.0,0.0
1143,35.0,0,180,7.0,0.0
1144,45.0,0,180,11.0,0.0
1145,45.0,0,180,6.0,0.0
1146,49.0,0,180,0.0,0.0
1147,33.0,84,180,7.0,0.0
1148,81.0,12,90,1.0,0.0
1149,83.0,96,90,1.0,0.0
1150,45.0,0,180,0.0,0.0
1151,36.0,0,180,7.0,0.0
1152,48.0,84,180,11.0,0.0
1153,48.0,0,180,6.0,0.0
1154,81.0,12,90,1.0,0.0
1155,79.0,96,90,1.0,0.0
1156,50.0,0,180,11.0,0.0
1157,50.0,0,180,6.0,0.0
1158,57.0,84,180,0.0,0.0
1159,38.0,0,180,7.0,0.0
1160,78.0,12,90,1.0,0.0
1161,76.0,96,90,1.0,0.0
1162,42.0,0,180,7.0,0.0
1163,54.0,84,180,6.0,0.0
1164,57.0,0,180,0.0,0.0
1165,54.0,0,180,11.0,0.0
1166,74.0,12,90,1.0,0.0
1167,73.0,96,90,1.0,0.0
1168,57.0,0,390,0.0,0.0
1169,57.0,84,180,6.0,0.0
1170,57.0,0,180,11.0,0.0
1171,45.0,0,180,7.0,0.0
1172,67.0,12,90,1.0,0.0
1173,57.0,96,90,1.0,0.0
1174,33.0,84,180,7.0,0.0
1175,45.0,0,180,11.0,0.0
1176,45.0,0,180,6.0,0.0
1177,67.0,12,90,1.0,0.0
1178,73.0,96,90,1.0,0.0
1179,57.0,84,180,2.0,0.0
1180,57.0,0,180,10.0,0.0
1181,67.0,12,90,1.0,0.0
1182,74.0,96,90,1.0,0.0
1183,59.0,84,180,2.0,0.0
1184,59.0,0,180,10.0,0.0
1185,67.0,12,90,1.0,0.0
1186,76.0,96,90,1.0,0.0
1187,61.0,84,180,2.0,0.0
1188,61.0,0,180,10.0,0.0
1189,67.0,12,90,1.0,0.0
1190,78.0,96,90,1.0,0.0
1191,62.0,0,180,10.0,0.0
1192,45.0,0,180,0.0,0.0
1193,62.0,84,180,2.0,0.0
1194,67.0,12,90,1.0,0.0
1195,76.0,96,90,1.0,0.0
1196,57.0,0,180,0.0,0.0
1197,61.0,84,180,2.0,0.0
1198,61.0,0,180,10.0,0.0
1199,67.0,12,90,1.0,0.0
1200,74.0,96,90,1.0,0.0
1201,59.0,0,180,2.0,0.0
1202,57.0,0,180,0.0,0.0
1203,59.0,84,180,10.0,0.0
1204,67.0,12,90,1.0,0.0
1205,73.0,96,90,1.0,0.0
1206,57.0,0,390,0.0,0.0
1207,57.0,0,390,2.0,0.0
1208,45.0,84,180,7.0,0.0
1209,57.0,0,390,10.0,0.0
1210,57.0,0,180,11.0,0.0
1211,57.0,0,180,6.0,0.0
1212,67.0,12,90,1.0,0.0
1213,57.0,96,90,1.0,0.0
1214,45.0,84,180,11.0,0.0
1215,33.0,0,180,7.0,0.0
1216,45.0,0,180,6.0,0.0
1217,67.0,12,90,1.0,0.0
1218,73.0,96,90,1.0,0.0
1219,67.0,0,180,2.0,0.0
1220,64.0,84,180,3.0,0.0
1221,64.0,0,180,10.0,0.0
1222,67.0,0,180,10.0,0.0
1223,57.0,0,180,4.0,0.0
1224,67.0,12,90,1.0,0.0
1225,74.0,96,90,1.0,0.0
1226,62.0,0,180,3.0,0.0
1227,59.0,0,180,4.0,0.0
1228,66.0,84,180,2.0,0.0
1229,62.0,0,180,10.0,0.0
1230,66.0,0,180,10.0,0.0
1231,67.0,12,90,1.0,0.0
1232,76.0,96,90,1.0,0.0
1233,61.0,0,180,3.0,0.0
1234,61.0,0,180,4.0,0.0
1235,61.0,0,180,10.0,0.0
1236,64.0,0,180,2.0,0.0
1237,64.0,84,180,10.0,0.0
1238,67.0,12,90,1.0,0.0
1239,78.0,96,90,1.0,0.0
1240,59.0,0,180,10.0,0.0
1241,62.0,0,180,10.0,0.0
1242,62.0,0,180,4.0,0.0
1243,62.0,84,180,2.0,0.0
1244,59.0,0,180,3.0,0.0
1245,67.0,12,90,1.0,0.0
1246,76.0,96,90,1.0,0.0
1247,61.0,0,180,10.0,0.0
1248,64.0,0,180,10.0,0.0
1249,61.0,0,180,4.0,0.0
1250,61.0,84,180,3.0,0.0
1251,64.0,0,180,2.0,0.0
1252,67.0,12,90,1.0,0.0
1253,74.0,96,90,1.0,0.0
1254,66.0,0,180,2.0,0.0
1255,59.0,96,180,4.0,0.0
1256,66.0,0,180,10.0,0.0
1257,62.0,0,180,10.0,0.0
1258,62.0,0,180,3.0,0.0
1259,67.0,12,90,1.0,0.0
1260,73.0,96,90,1.0,0.0
1261,64.0,0,390,3.0,0.0
1262,64.0,0,390,10.0,0.0
1263,64.0,0,90,0.0,0.0
1264,57.0,92,390,4.0,0.0
1265,67.0,0,390,10.0,0.0
1266,67.0,4,390,2.0,0.0
1267,67.0,0,90,1.0,0.0
1268,62.0,96,90,0.0,0.0
1269,61.0,0,390,0.0,0.0
1270,57.0,96,90,1.0,0.0
1271,67.0,0,90,1.0,0.0
1272,33.0,96,180,7.0,0.0
1273,45.0,0,180,6.0,0.0
1274,73.0,96,90,1.0,0.0
1275,45.0,0,180,11.0,0.0
1276,67.0,0,90,1.0,0.0
1277,47.0,0,180,6.0,0.0
1278,59.0,0,180,0.0,0.0
1279,35.0,0,180,7.0,0.0
1280,47.0,96,180,11.0,0.0
1281,74.0,96,90,1.0,0.0
1282,67.0,0,90,1.0,0.0
1283,76.0,96,90,1.0,0.0
1284,37.0,0,180,7.0,0.0
1285,57.0,0,180,0.0,0.0
1286,49.0,0,180,11.0,0.0
1287,49.0,0,180,6.0,0.0
1288,67.0,96,90,1.0,0.0
1289,52.0,0,180,11.0,0.0
1290,52.0,96,180,6.0,0.0
1291,73.0,96,90,1.0,0.0
1292,40.0,0,180,7.0,0.0
1293,55.0,0,90,0.0,0.0
1294,67.0,0,90,1.0,0.0
1295,54.0,0,90,0.0,0.0
1296,76.0,96,90,1.0,0.0
1297,37.0,96,180,7.0,0.0
1298,49.0,0,180,11.0,0.0
1299,55.0,0,180,0.0,0.0
1300,49.0,0,180,6.0,0.0
1301,67.0,0,90,1.0,0.0
1302,64.0,0,180,0.0,0.0
1303,45.0,0,180,6.0,0.0
1304,33.0,0,180,7.0,0.0
1305,45.0,96,180,11.0,0.0
1306,73.0,96,90,1.0,0.0
1307,67.0,0,90,1.0,0.0
1308,74.0,0,90,1.0,0.0
1309,55.0,96,90,0.0,0.0
1310,38.0,0,180,7.0,0.0
1311,50.0,0,180,11.0,0.0
1312,50.0,0,180,6.0,0.0
1313,66.0,96,90,1.0,0.0
1314,54.0,0,270,0.0,0.0
1315,52.0,0,180,6.0,0.0
1316,69.0,0,90,10.0,0.0
1317,74.0,0,90,2.0,0.0
1318,69.0,0,90,3.0,0.0
1319,57.0,96,90,1.0,0.0
1320,74.0,0,90,10.0,0.0
1321,40.0,0,180,7.0,0.0
1322,52.0,0,180,11.0,0.0
1323,66.0,0,90,4.0,0.0
1324,73.0,0,90,2.0,0.0
1325,67.0,96,90,3.0,0.0
1326,67.0,0,90,10.0,0.0
1327,73.0,0,90,10.0,0.0
1328,66.0,0,90,1.0,0.0
1329,64.0,0,90,4.0,0.0
1330,54.0,0,180,11.0,0.0
1331,74.0,0,180,10.0,0.0
1332,66.0,0,180,10.0,0.0
1333,62.0,0,180,4.0,0.0
1334,54.0,0,180,6.0,0.0
1335,74.0,0,180,2.0,0.0
1336,74.0,96,90,1.0,0.0
1337,66.0,0,180,3.0,0.0
1338,42.0,96,180,7.0,0.0
1339,66.0,0,90,1.0,0.0
1340,66.0,0,180,2.0,0.0
1341,74.0,96,90,1.0,0.0
1342,59.0,0,180,4.0,0.0
1343,55.0,0,180,11.0,0.0
1344,43.0,0,180,7.0,0.0
1345,66.0,0,180,10.0,0.0
1346,62.0,0,180,10.0,0.0
1347,55.0,0,180,6.0,0.0
1348,62.0,96,180,3.0,0.0
1349,66.0,0,90,1.0,0.0
1350,73.0,0,90,1.0,0.0
1351,57.0,0,390,11.0,0.0
1352,45.0,0,390,7.0,0.0
1353,69.0,96,390,10.0,0.0
1354,69.0,0,390,3.0,0.0
1355,57.0,0,390,6.0,0.0
1356,64.0,0,390,4.0,0.0
1357,64.0,0,390,2.0,0.0
1358,64.0,96,90,0.0,0.0
1359,64.0,0,390,10.0,0.0
1360,62.0,0,90,0.0,0.0
1361,67.0,96,90,1.0,0.0
1362,61.0,96,390,0.0,0.0
1363,57.0,96,90,1.0,0.0
1364,67.0,0,90,1.0,0.0
1365,45.0,0,180,6.0,0.0
1366,45.0,0,180,11.0,0.0
1367,33.0,0,180,7.0,0.0
1368,73.0,96,90,1.0,0.0
1369,67.0,0,90,1.0,0.0
1370,47.0,0,180,6.0,0.0
1371,35.0,0,180,7.0,0.0
1372,47.0,96,180,11.0,0.0
1373,74.0,96,90,1.0,0.0
1374,59.0,0,180,0.0,0.0
1375,67.0,0,90,1.0,0.0
1376,57.0,0,180,0.0,0.0
1377,49.0,0,180,6.0,0.0
1378,49.0,0,180,11.0,0.0
1379,37.0,0,180,7.0,0.0
1380,76.0,96,90,1.0,0.0
1381,67.0,96,90,1.0,0.0
1382,52.0,0,180,6.0,0.0
1383,73.0,96,90,1.0,0.0
1384,52.0,0,180,11.0,0.0
1385,55.0,0,90,0.0,0.0
1386,40.0,96,180,7.0,0.0
1387,67.0,0,90,1.0,0.0
1388,54.0,0,90,0.0,0.0
1389,49.0,0,180,11.0,0.0
1390,55.0,96,180,0.0,0.0
1391,37.0,0,180,7.0,0.0
1392,49.0,0,180,6.0,0.0
1393,76.0,96,90,1.0,0.0
1394,67.0,0,90,1.0,0.0
1395,64.0,0,180,0.0,0.0
1396,33.0,0,180,7.0,0.0
1397,45.0,0,180,11.0,0.0
1398,73.0,96,90,1.0,0.0
1399,45.0,192,180,6.0,0.0
1400,67.0,0,90,1.0,0.0
1401,50.0,96,180,11.0,0.0
1402,74.0,0,180,1.0,0.0
1403,38.0,0,180,7.0,0.0
1404,50.0,0,180,6.0,0.0
1405,54.0,0,180,0.0,0.0
1406,38.0,0,180,6.0,0.0
1407,38.0,0,180,11.0,0.0
1408,26.0,192,180,7.0,0.0
1409,71.0,96,90,10.0,0.0
1410,71.0,0,90,2.0,0.0
1411,59.0,0,390,0.0,0.0
1412,69.0,0,90,2.0,0.0
1413,69.0,0,90,10.0,0.0
1414,38.0,0,570,7.0,0.0
1415,67.0,192,180,2.0,0.0
1416,50.0,192,570,11.0,0.0
1417,50.0,0,570,6.0,0.0
1418,67.0,0,180,10.0,0.0
1419,66.0,0,180,10.0,0.0
1420,57.0,0,180,0.0,0.0
1421,66.0,192,180,2.0,0.0
1422,64.0,0,180,2.0,0.0
1423,56.0,0,180,0.0,0.0
1424,64.0,0,180,10.0,0.0
1425,37.0,0,180,7.0,0.0
1426,49.0,192,180,6.0,0.0
1427,57.0,0,390,0.0,0.0
1428,49.0,0,180,11.0,0.0
1429,54.0,0,180,11.0,0.0
1430,42.0,0,180,7.0,0.0
1431,54.0,192,180,6.0,0.0
1432,50.0,0,180,0.0,0.0
1433,43.0,0,180,7.0,0.0
1434,55.0,0,180,11.0,0.0
1435,55.0,192,180,6.0,0.0
1436,57.0,0,180,11.0,0.0
1437,54.0,0,390,0.0,0.0
1438,45.0,0,180,7.0,0.0
1439,57.0,192,180,6.0,0.0
1440,55.0,0,180,11.0,0.0
1441,43.0,192,180,7.0,0.0
1442,55.0,0,180,6.0,0.0
1443,57.0,192,180,6.0,0.0
1444,52.0,0,390,0.0,0.0
1445,57.0,0,180,11.0,0.0
1446,45.0,0,180,7.0,0.0
1447,45.0,192,180,6.0,0.0
1448,45.0,0,180,11.0,0.0
1449,33.0,0,180,7.0,0.0
1450,66.0,0,390,3.0,0.0
1451,74.0,0,180,10.0,0.0
1452,66.0,0,390,10.0,0.0
1453,57.0,0,390,4.0,0.0
1454,74.0,0,180,1.0,0.0
1455,50.0,192,390,11.0,0.0
1456,50.0,0,390,0.0,0.0
1457,74.0,192,180,2.0,0.0
1458,38.0,0,390,7.0,0.0
1459,50.0,0,390,6.0,0.0
1460,69.0,192,390,10.0,0.0
1461,69.0,0,390,1.0,0.0
1462,69.0,0,390,2.0,0.0
1463,49.0,0,390,6.0,0.0
1464,37.0,0,390,7.0,0.0
1465,57.0,0,390,4.0,0.0
1466,49.0,0,390,11.0,0.0
1467,64.0,0,390,10.0,0.0
1468,64.0,0,390,3.0,0.0
1469,67.0,192,180,2.0,0.0
1470,67.0,0,180,1.0,0.0
1471,67.0,0,180,10.0,0.0
1472,38.0,0,180,7.0,0.0
1473,66.0,0,180,2.0,0.0
1474,50.0,0,180,11.0,0.0
1475,66.0,0,180,1.0,0.0
1476,57.0,0,390,4.0,0.0
1477,62.0,0,390,3.0,0.0
1478,50.0,0,180,6.0,0.0
1479,62.0,192,390,10.0,0.0
1480,66.0,96,180,10.0,0.0
1481,40.0,0,90,7.0,0.0
1482,52.0,96,90,6.0,0.0
1483,67.0,0,90,1.0,0.0
1484,67.0,0,90,2.0,0.0
1485,52.0,0,90,11.0,0.0
1486,67.0,0,90,10.0,0.0
1487,69.0,0,90,2.0,0.0
1488,69.0,0,90,1.0,0.0
1489,69.0,0,90,10.0,0.0
1490,54.0,0,90,11.0,0.0
1491,54.0,0,90,6.0,0.0
1492,42.0,0,90,7.0,0.0
1493,55.0,0,180,11.0,0.0
1494,43.0,0,180,7.0,0.0
1495,62.0,192,180,10.0,0.0
1496,71.0,0,180,10.0,0.0
1497,71.0,0,180,2.0,0.0
1498,55.0,0,180,6.0,0.0
1499,71.0,0,180,1.0,0.0
1500,55.0,0,180,4.0,0.0
1501,62.0,0,180,3.0,0.0
1502,43.0,0,390,11.0,0.0
1503,43.0,0,390,6.0,0.0
1504,76.0,0,180,1.0,0.0
1505,76.0,0,180,2.0,0.0
1506,67.0,192,180,3.0,0.0
1507,67.0,0,180,10.0,0.0
1508,59.0,0,180,4.0,0.0
1509,76.0,0,180,10.0,0.0
1510,31.0,192,390,7.0,0.0
1511,73.0,0,180,1.0,0.0
1512,64.0,0,180,3.0,0.0
1513,73.0,0,180,2.0,0.0
1514,73.0,0,180,10.0,0.0
1515,57.0,0,390,4.0,0.0
1516,64.0,0,180,10.0,0.0
1517,74.0,0,180,10.0,0.0
1518,69.0,0,390,10.0,0.0
1519,30.0,0,180,7.0,0.0
1520,74.0,192,180,1.0,0.0
1521,42.0,0,180,11.0,0.0
1522,74.0,0,180,2.0,0.0
1523,42.0,0,180,6.0,0.0
1524,69.0,192,390,3.0,0.0
1525,49.0,0,180,6.0,0.0
1526,37.0,0,180,7.0,0.0
1527,49.0,0,180,11.0,0.0
1528,69.0,0,180,4.0,0.0
1529,79.0,0,180,10.0,0.0
1530,79.0,0,180,2.0,0.0
1531,79.0,0,180,1.0,0.0
1532,78.0,0,180,2.0,0.0
1533,78.0,0,180,10.0,0.0
1534,50.0,0,180,6.0,0.0
1535,38.0,64,180,7.0,0.0
1536,78.0,0,180,1.0,0.0
1537,50.0,0,180,11.0,0.0
1538,69.0,0,180,4.0,0.0
1539,74.0,0,180,10.0,0.0
1540,74.0,0,180,3.0,0.0
1541,78.0,0,60,1.0,0.0
1542,74.0,64,60,3.0,0.0
1543,74.0,0,60,10.0,0.0
1544,78.0,0,60,2.0,0.0
1545,78.0,0,60,10.0,0.0
1546,57.0,0,180,11.0,0.0
1547,69.0,0,180,4.0,0.0
1548,57.0,192,180,6.0,0.0
1549,45.0,0,180,7.0,0.0
1550,79.0,0,60,2.0,0.0
1551,79.0,0,60,1.0,0.0
1552,76.0,64,60,3.0,0.0
1553,76.0,0,60,10.0,0.0
1554,79.0,0,60,10.0,0.0
1555,74.0,0,60,10.0,0.0
1556,78.0,0,60,10.0,0.0
1557,78.0,0,60,1.0,0.0
1558,78.0,0,60,2.0,0.0
1559,74.0,0,60,3.0,0.0
1560,76.0,0,180,10.0,0.0
1561,76.0,0,180,2.0,0.0
1562,73.0,0,180,3.0,0.0
1563,73.0,0,180,10.0,0.0
1564,33.0,0,180,7.0,0.0
1565,76.0,0,180,1.0,0.0
1566,45.0,576,180,6.0,0.0
1567,45.0,0,180,11.0,0.0
1568,69.0,0,180,4.0,0.0
1569,76.0,0,180,2.0,0.0
1570,71.0,0,390,3.0,0.0
1571,55.0,0,390,11.0,0.0
1572,55.0,0,390,6.0,0.0
1573,76.0,0,180,10.0,0.0
1574,64.0,192,390,4.0,0.0
1575,43.0,0,390,7.0,0.0
1576,76.0,192,180,1.0,0.0
1577,71.0,0,180,10.0,0.0
1578,71.0,0,390,2.0,0.0
1579,71.0,192,390,1.0,0.0
1580,71.0,0,390,3.0,0.0
1581,66.0,0,390,4.0,0.0
1582,39.0,0,390,7.0,0.0
1583,51.0,0,390,6.0,0.0
1584,51.0,0,390,11.0,0.0
1585,71.0,0,180,10.0,0.0
1586,69.0,192,180,2.0,0.0
1587,69.0,0,180,1.0,0.0
1588,69.0,0,180,10.0,0.0
1589,67.0,0,180,10.0,0.0
1590,64.0,0,390,4.0,0.0
1591,52.0,0,180,11.0,0.0
1592,40.0,0,180,7.0,0.0
1593,67.0,0,180,1.0,0.0
1594,67.0,0,180,2.0,0.0
1595,52.0,96,180,6.0,0.0
1596,71.0,0,390,3.0,0.0
1597,69.0,0,90,1.0,0.0
1598,54.0,0,90,11.0,0.0
1599,69.0,96,90,2.0,0.0
1600,54.0,0,90,6.0,0.0
1601,69.0,0,90,10.0,0.0
1602,42.0,0,90,7.0,0.0
1603,55.0,0,90,6.0,0.0
1604,55.0,0,90,11.0,0.0
1605,71.0,0,90,2.0,0.0
1606,71.0,0,90,10.0,0.0
1607,71.0,0,90,1.0,0.0
1608,43.0,0,90,7.0,0.0
1609,64.0,0,180,4.0,0.0
1610,57.0,0,180,11.0,0.0
1611,69.0,192,180,3.0,0.0
1612,45.0,0,180,7.0,0.0
1613,72.0,0,30,1.0,0.0
1614,72.0,48,30,2.0,0.0
1615,57.0,0,180,6.0,0.0
1616,72.0,0,30,10.0,0.0
1617,71.0,0,30,10.0,0.0
1618,71.0,96,30,2.0,0.0
1619,71.0,0,30,1.0,0.0
1620,69.0,0,90,10.0,0.0
1621,69.0,0,90,1.0,0.0
1622,69.0,0,90,2.0,0.0
1623,78.0,192,180,10.0,0.0
1624,78.0,0,180,1.0,0.0
1625,72.0,0,180,3.0,0.0
1626,72.0,0,180,10.0,0.0
1627,78.0,0,180,2.0,0.0
1628,45.0,192,390,6.0,0.0
1629,69.0,0,180,4.0,0.0
1630,45.0,0,390,11.0,0.0
1631,33.0,0,390,7.0,0.0
1632,71.0,0,390,10.0,0.0
1633,75.0,0,180,10.0,0.0
1634,71.0,0,390,3.0,0.0
1635,75.0,0,180,1.0,0.0
1636,66.0,0,180,4.0,0.0
1637,75.0,0,180,2.0,0.0
1638,31.0,0,180,7.0,0.0
1639,76.0,192,180,2.0,0.0
1640,76.0,0,180,1.0,0.0
1641,43.0,0,180,6.0,0.0
1642,71.0,0,390,4.0,0.0
1643,76.0,0,180,10.0,0.0
1644,43.0,0,180,11.0,0.0
1645,78.0,192,180,3.0,0.0
1646,78.0,0,180,10.0,0.0
1647,81.0,0,180,10.0,0.0
1648,81.0,0,180,2.0,0.0
1649,51.0,0,180,6.0,0.0
1650,51.0,0,180,11.0,0.0
1651,81.0,0,180,1.0,0.0
1652,39.0,0,180,7.0,0.0
1653,79.0,0,180,1.0,0.0
1654,52.0,0,180,6.0,0.0
1655,76.0,0,180,3.0,0.0
1656,52.0,0,180,11.0,0.0
1657,71.0,64,180,4.0,0.0
1658,79.0,0,180,2.0,0.0
1659,76.0,0,180,10.0,0.0
1660,79.0,0,180,10.0,0.0
1661,40.0,0,180,7.0,0.0
1662,79.0,0,60,1.0,0.0
1663,59.0,0,180,6.0,0.0
1664,79.0,0,60,10.0,0.0
1665,59.0,0,180,11.0,0.0
1666,47.0,0,180,7.0,0.0
1667,76.0,0,60,10.0,0.0
1668,71.0,192,180,4.0,0.0
1669,76.0,0,60,3.0,0.0
1670,79.0,64,60,2.0,0.0
1671,81.0,0,60,10.0,0.0
1672,78.0,0,60,3.0,0.0
1673,78.0,0,60,10.0,0.0
1674,81.0,64,60,1.0,0.0
1675,81.0,0,60,2.0,0.0
1676,79.0,0,60,2.0,0.0
1677,76.0,0,60,10.0,0.0
1678,79.0,0,60,10.0,0.0
1679,76.0,0,60,3.0,0.0
1680,79.0,0,60,1.0,0.0
1681,47.0,0,180,6.0,0.0
1682,35.0,0,180,7.0,0.0
1683,75.0,192,180,3.0,0.0
1684,78.0,0,180,2.0,0.0
1685,47.0,0,180,11.0,0.0
1686,71.0,0,180,4.0,0.0
1687,78.0,0,180,1.0,0.0
1688,75.0,0,180,10.0,0.0
1689,78.0,0,180,10.0,0.0
1690,78.0,96,90,1.0,0.0
1691,76.0,96,90,1.0,0.0
1692,78.0,96,90,1.0,0.0
1693,40.0,0,180,7.0,0.0
1694,52.0,0,180,6.0,0.0
1695,52.0,0,180,11.0,0.0
1696,79.0,96,90,1.0,0.0
1697,71.0,96,90,1.0,0.0
1698,40.0,0,180,6.0,0.0
1699,64.0,96,90,1.0,0.0
1700,40.0,0,180,11.0,0.0
1701,28.0,0,180,7.0,0.0
1702,71.0,48,90,1.0,0.0
1703,71.0,0,180,10.0,0.0
1704,71.0,48,180,3.0,0.0
1705,76.0,0,180,10.0,0.0
1706,79.0,48,30,1.0,0.0
1707,64.0,0,180,4.0,0.0
1708,76.0,0,180,2.0,0.0
1709,81.0,48,30,1.0,0.0
1710,79.0,48,30,1.0,0.0
1711,78.0,0,30,1.0,0.0
1712,67.0,0,180,3.0,0.0
1713,52.0,96,180,4.0,0.0
1714,67.0,0,180,10.0,0.0
1715,71.0,0,180,2.0,0.0
1716,76.0,48,30,1.0,0.0
1717,71.0,0,180,10.0,0.0
1718,74.0,48,30,1.0,0.0
1719,72.0,48,30,1.0,0.0
1720,71.0,0,30,1.0,0.0
1721,57.0,0,180,6.0,0.0
1722,72.0,96,90,1.0,0.0
1723,57.0,0,180,11.0,0.0
1724,45.0,96,180,7.0,0.0
1725,64.0,0,90,1.0,0.0
1726,57.0,96,90,1.0,0.0
1727,45.0,48,180,6.0,0.0
1728,45.0,0,180,11.0,0.0
1729,33.0,0,180,7.0,0.0
1730,64.0,0,90,1.0,0.0
1731,72.0,0,180,10.0,0.0
1732,72.0,48,30,1.0,0.0
1733,69.0,0,180,4.0,0.0
1734,72.0,0,180,2.0,0.0
1735,64.0,48,180,3.0,0.0
1736,64.0,0,180,10.0,0.0
1737,69.0,48,30,1.0,0.0
1738,71.0,48,30,1.0,0.0
1739,72.0,0,30,1.0,0.0
1740,57.0,0,180,4.0,0.0
1741,60.0,96,180,10.0,0.0
1742,69.0,0,180,10.0,0.0
1743,60.0,0,180,3.0,0.0
1744,69.0,0,180,2.0,0.0
1745,74.0,48,30,1.0,0.0
1746,76.0,48,30,1.0,0.0
1747,78.0,48,30,1.0,0.0
1748,79.0,0,30,1.0,0.0
1749,50.0,0,180,11.0,0.0
1750,50.0,96,180,6.0,0.0
1751,78.0,96,90,1.0,0.0
1752,38.0,0,180,7.0,0.0
1753,69.0,0,90,1.0,0.0
1754,38.0,48,180,11.0,0.0
1755,62.0,96,90,1.0,0.0
1756,38.0,0,180,6.0,0.0
1757,26.0,0,180,7.0,0.0
1758,69.0,0,90,1.0,0.0
1759,62.0,0,180,4.0,0.0
1760,69.0,0,180,10.0,0.0
1761,74.0,0,180,10.0,0.0
1762,78.0,48,30,1.0,0.0
1763,74.0,0,180,2.0,0.0
1764,69.0,48,180,3.0,0.0
1765,79.0,48,30,1.0,0.0
1766,78.0,48,30,1.0,0.0
1767,76.0,0,30,1.0,0.0
1768,50.0,0,180,4.0,0.0
1769,69.0,0,180,2.0,0.0
1770,74.0,48,30,1.0,0.0
1771,66.0,0,180,3.0,0.0
1772,66.0,0,180,10.0,0.0
1773,69.0,0,180,10.0,0.0
1774,72.0,48,30,1.0,0.0
1775,71.0,48,30,1.0,0.0
1776,69.0,96,30,1.0,0.0
1777,55.0,0,180,11.0,0.0
1778,43.0,0,180,7.0,0.0
1779,71.0,96,90,1.0,0.0
1780,55.0,0,180,6.0,0.0
1781,62.0,96,90,1.0,0.0
1782,55.0,96,90,1.0,0.0
1783,43.0,0,180,11.0,0.0
1784,31.0,0,180,7.0,0.0
1785,43.0,48,180,6.0,0.0
1786,62.0,0,90,1.0,0.0
1787,71.0,0,180,10.0,0.0
1788,67.0,0,180,4.0,0.0
1789,71.0,0,180,2.0,0.0
1790,62.0,48,180,10.0,0.0
1791,62.0,0,180,3.0,0.0
1792,71.0,48,30,1.0,0.0
1793,67.0,48,30,1.0,0.0
1794,69.0,48,30,1.0,0.0
1795,71.0,0,30,1.0,0.0
1796,59.0,0,180,10.0,0.0
1797,59.0,0,180,3.0,0.0
1798,55.0,96,180,4.0,0.0
1799,67.0,0,180,10.0,0.0
1800,67.0,0,180,2.0,0.0
1801,72.0,48,30,1.0,0.0
1802,74.0,48,30,1.0,0.0
1803,76.0,48,30,1.0,0.0
1804,77.0,0,30,1.0,0.0
1805,64.0,0,180,10.0,0.0
1806,44.0,0,180,11.0,0.0
1807,71.0,0,180,10.0,0.0
1808,32.0,0,180,7.0,0.0
1809,56.0,92,180,4.0,0.0
1810,64.0,0,180,3.0,0.0
1811,44.0,0,180,6.0,0.0
1812,71.0,0,180,2.0,0.0
1813,62.0,0,90,0.0,0.0
1814,76.0,96,90,1.0,0.0
1815,74.0,4,90,1.0,0.0
1816,60.0,0,90,0.0,0.0
1817,68.0,96,90,1.0,0.0
1818,59.0,0,390,0.0,0.0
1819,74.0,96,90,1.0,0.0
1820,74.0,0,180,10.0,0.0
1821,68.0,0,180,10.0,0.0
1822,47.0,0,180,11.0,0.0
1823,74.0,0,180,2.0,0.0
1824,68.0,0,180,3.0,0.0
1825,76.0,96,90,1.0,0.0
1826,62.0,92,180,4.0,0.0
1827,47.0,0,180,6.0,0.0
1828,35.0,4,180,7.0,0.0
1829,74.0,0,90,1.0,0.0
1830,76.0,96,90,1.0,0.0
1831,57.0,0,180,0.0,0.0
1832,74.0,96,90,1.0,0.0
1833,59.0,92,180,4.0,0.0
1834,56.0,0,180,0.0,0.0
1835,68.0,0,180,3.0,0.0
1836,40.0,0,180,6.0,0.0
1837,83.0,96,90,1.0,0.0
1838,76.0,0,180,2.0,0.0
1839,28.0,0,180,7.0,0.0
1840,40.0,0,180,11.0,0.0
1841,68.0,0,180,10.0,0.0
1842,76.0,0,180,10.0,0.0
1843,74.0,4,90,1.0,0.0
1844,54.0,96,90,0.0,0.0
1845,64.0,0,90,1.0,0.0
1846,74.0,96,90,1.0,0.0
1847,52.0,0,90,0.0,0.0
1848,52.0,0,180,6.0,0.0
1849,52.0,0,180,11.0,0.0
1850,76.0,4,180,10.0,0.0
1851,68.0,0,180,10.0,0.0
1852,40.0,0,180,7.0,0.0
1853,83.0,96,90,1.0,0.0
1854,76.0,0,180,2.0,0.0
1855,64.0,92,180,4.0,0.0
1856,62.0,0,180,0.0,0.0
1857,68.0,0,180,3.0,0.0
1858,74.0,0,90,1.0,0.0
1859,83.0,96,90,1.0,0.0
1860,62.0,0,180,0.0,0.0
1861,74.0,96,90,1.0,0.0
1862,57.0,0,180,6.0,0.0
1863,57.0,4,180,11.0,0.0
1864,62.0,0,180,0.0,0.0
1865,76.0,0,180,10.0,0.0
1866,64.0,92,180,4.0,0.0
1867,69.0,0,180,3.0,0.0
1868,83.0,96,90,1.0,0.0
1869,76.0,0,180,2.0,0.0
1870,45.0,0,180,7.0,0.0
1871,69.0,0,180,10.0,0.0
1872,72.0,0,90,1.0,0.0
1873,76.0,0,180,10.0,0.0
1874,76.0,4,180,3.0,0.0
1875,81.0,0,180,2.0,0.0
1876,60.0,92,180,4.0,0.0
1877,60.0,0,180,0.0,0.0
1878,45.0,0,180,11.0,0.0
1879,33.0,0,180,7.0,0.0
1880,64.0,96,90,1.0,0.0
1881,45.0,0,180,6.0,0.0
1882,81.0,0,180,10.0,0.0
1883,72.0,0,90,1.0,0.0
1884,64.0,92,180,4.0,0.0
1885,72.0,0,180,10.0,0.0
1886,76.0,4,180,10.0,0.0
1887,76.0,0,180,2.0,0.0
1888,83.0,96,90,1.0,0.0
1889,36.0,0,180,7.0,0.0
1890,48.0,0,180,6.0,0.0
1891,48.0,0,180,11.0,0.0
1892,72.0,0,180,3.0,0.0
1893,72.0,0,90,1.0,0.0
1894,83.0,96,90,1.0,0.0
1895,74.0,0,180,10.0,0.0
1896,52.0,0,180,6.0,0.0
1897,74.0,0,180,2.0,0.0
1898,71.0,0,180,10.0,0.0
1899,40.0,0,180,7.0,0.0
1900,68.0,92,180,4.0,0.0
1901,52.0,0,180,11.0,0.0
1902,71.0,0,180,3.0,0.0
1903,72.0,4,90,1.0,0.0
1904,45.0,0,180,7.0,0.0
1905,60.0,0,90,0.0,0.0
1906,81.0,96,90,1.0,0.0
1907,72.0,0,180,10.0,0.0
1908,64.0,0,180,10.0,0.0
1909,57.0,4,180,11.0,0.0
1910,64.0,0,180,3.0,0.0
1911,72.0,0,180,2.0,0.0
1912,57.0,0,180,6.0,0.0
1913,69.0,92,180,4.0,0.0
1914,59.0,0,90,0.0,0.0
1915,72.0,0,90,1.0,0.0
1916,57.0,0,390,0.0,0.0
1917,64.0,96,90,1.0,0.0
1918,72.0,96,90,1.0,0.0
1919,57.0,92,180,4.0,0.0
1920,81.0,96,90,1.0,0.0
1921,48.0,0,180,6.0,0.0
1922,36.0,0,180,7.0,0.0
1923,72.0,0,180,10.0,0.0
1924,64.0,0,180,10.0,0.0
1925,64.0,0,180,3.0,0.0
1926,48.0,0,180,11.0,0.0
1927,72.0,4,180,2.0,0.0
1928,72.0,0,90,1.0,0.0
1929,81.0,96,90,1.0,0.0
1930,55.0,96,180,0.0,0.0
1931,72.0,0,90,1.0,0.0
1932,72.0,0,180,2.0,0.0
1933,53.0,0,180,0.0,0.0
1934,50.0,0,180,11.0,0.0
1935,72.0,0,180,10.0,0.0
1936,65.0,0,180,10.0,0.0
1937,38.0,0,180,7.0,0.0
1938,81.0,96,90,1.0,0.0
1939,50.0,0,180,6.0,0.0
1940,62.0,92,180,4.0,0.0
1941,65.0,4,180,3.0,0.0
1942,72.0,0,90,1.0,0.0
1943,62.0,4,90,1.0,0.0
1944,59.0,92,90,0.0,0.0
1945,60.0,92,90,0.0,0.0
1946,72.0,4,90,1.0,0.0
1947,62.0,92,180,0.0,0.0
1948,67.0,0,180,10.0,0.0
1949,71.0,0,180,10.0,0.0
1950,31.0,0,180,7.0,0.0
1951,43.0,0,180,6.0,0.0
1952,43.0,4,180,11.0,0.0
1953,79.0,96,90,1.0,0.0
1954,62.0,0,180,4.0,0.0
1955,67.0,0,180,3.0,0.0
1956,71.0,0,180,2.0,0.0
1957,71.0,0,90,1.0,0.0
1958,79.0,96,90,1.0,0.0
1959,53.0,92,180,0.0,0.0
1960,71.0,4,90,1.0,0.0
1961,48.0,0,180,11.0,0.0
1962,36.0,0,180,7.0,0.0
1963,72.0,0,180,2.0,0.0
1964,48.0,0,180,6.0,0.0
1965,67.0,4,180,3.0,0.0
1966,64.0,0,180,4.0,0.0
1967,52.0,92,180,0.0,0.0
1968,72.0,0,180,10.0,0.0
1969,67.0,0,180,10.0,0.0
1970,79.0,96,90,1.0,0.0
1971,72.0,0,90,1.0,0.0
1972,58.0,92,300,0.0,0.0
1973,64.0,0,90,1.0,0.0
1974,43.0,96,90,7.0,0.0
1975,55.0,0,90,6.0,0.0
1976,55.0,0,90,11.0,0.0
1977,53.0,0,90,6.0,0.0
1978,72.0,0,90,1.0,0.0
1979,41.0,100,90,7.0,0.0
1980,53.0,0,90,11.0,0.0
1981,52.0,0,180,11.0,0.0
1982,40.0,0,180,7.0,0.0
1983,52.0,4,180,6.0,0.0
1984,79.0,0,180,1.0,0.0
1985,55.0,188,90,0.0,0.0
1986,48.0,4,180,11.0,0.0
1987,48.0,0,180,6.0,0.0
1988,57.0,92,180,0.0,0.0
1989,36.0,0,180,7.0,0.0
1990,53.0,0,180,6.0,0.0
1991,57.0,96,90,0.0,0.0
1992,53.0,0,180,11.0,0.0
1993,41.0,0,180,7.0,0.0
1994,55.0,96,90,0.0,0.0
1995,51.0,0,90,6.0,0.0
1996,51.0,96,90,11.0,0.0
1997,39.0,0,90,7.0,0.0
1998,54.0,0,390,0.0,0.0
1999,50.0,0,90,6.0,0.0
2000,50.0,0,90,11.0,0.0
2001,38.0,192,90,7.0,0.0
2002,48.0,0,180,11.0,0.0
2003,48.0,192,180,6.0,0.0
2004,36.0,0,180,7.0,0.0
2005,45.0,0,180,6.0,0.0
2006,33.0,192,180,7.0,0.0
2007,55.0,0,180,0.0,0.0
2008,45.0,0,180,11.0,0.0
2009,35.0,96,180,7.0,0.0
2010,47.0,0,180,6.0,0.0
2011,47.0,0,180,11.0,0.0
2012,55.0,0,390,0.0,0.0
2013,79.0,0,90,1.0,0.0
2014,43.0,0,180,11.0,0.0
2015,81.0,96,90,1.0,0.0
2016,43.0,0,180,6.0,0.0
2017,31.0,96,180,7.0,0.0
2018,79.0,0,90,1.0,0.0
2019,47.0,96,180,11.0,0.0
2020,43.0,0,390,0.0,0.0
2021,77.0,96,90,1.0,0.0
2022,35.0,0,180,7.0,0.0
2023,47.0,0,180,6.0,0.0
2024,76.0,0,90,1.0,0.0
2025,50.0,0,180,11.0,0.0
2026,74.0,96,90,1.0,0.0
2027,38.0,0,180,7.0,0.0
2028,50.0,96,180,6.0,0.0
2029,72.0,0,90,1.0,0.0
2030,71.0,96,90,1.0,0.0
2031,43.0,0,180,7.0,0.0
2032,55.0,0,180,11.0,0.0
2033,55.0,96,180,6.0,0.0
2034,65.0,0,90,1.0,0.0
2035,55.0,96,90,1.0,0.0
2036,31.0,0,180,7.0,0.0
2037,43.0,0,180,11.0,0.0
2038,43.0,0,180,6.0,0.0
2039,65.0,96,90,1.0,0.0
2040,71.0,96,90,1.0,0.0
2041,55.0,80,180,0.0,0.0
2042,65.0,16,90,1.0,0.0
2043,72.0,96,90,1.0,0.0
2044,57.0,80,180,0.0,0.0
2045,65.0,16,90,1.0,0.0
2046,74.0,96,90,1.0,0.0
2047,59.0,80,180,0.0,0.0
2048,65.0,16,90,1.0,0.0
2049,76.0,96,90,1.0,0.0
2050,60.0,80,180,0.0,0.0
2051,65.0,16,90,1.0,0.0
2052,74.0,96,90,1.0,0.0
2053,59.0,80,180,0.0,0.0
2054,65.0,16,90,1.0,0.0
2055,72.0,96,90,1.0,0.0
2056,57.0,80,180,0.0,0.0
2057,65.0,16,90,1.0,0.0
2058,55.0,0,180,6.0,0.0
2059,55.0,0,180,11.0,0.0
2060,71.0,96,90,1.0,0.0
2061,43.0,0,180,7.0,0.0
2062,55.0,80,180,0.0,0.0
2063,65.0,16,90,1.0,0.0
2064,31.0,0,180,7.0,0.0
2065,43.0,0,180,11.0,0.0
2066,43.0,0,180,6.0,0.0
2067,55.0,16,90,1.0,0.0
2068,53.0,80,90,0.0,0.0
2069,65.0,16,90,1.0,0.0
2070,52.0,80,90,0.0,0.0
2071,55.0,0,180,4.0,0.0
2072,55.0,0,180,3.0,0.0
2073,55.0,0,180,10.0,0.0
2074,55.0,16,180,2.0,0.0
2075,71.0,96,90,1.0,0.0
2076,50.0,80,180,0.0,0.0
2077,65.0,0,90,1.0,0.0
2078,57.0,0,180,3.0,0.0
2079,57.0,0,180,10.0,0.0
2080,57.0,0,180,4.0,0.0
2081,57.0,0,180,2.0,0.0
2082,72.0,96,90,1.0,0.0
2083,52.0,80,180,0.0,0.0
2084,65.0,0,90,1.0,0.0
2085,59.0,0,180,2.0,0.0
2086,59.0,0,180,10.0,0.0
2087,59.0,0,180,4.0,0.0
2088,74.0,96,90,1.0,0.0
2089,59.0,0,180,3.0,0.0
2090,53.0,80,180,0.0,0.0
2091,65.0,0,90,1.0,0.0
2092,60.0,0,180,4.0,0.0
2093,60.0,0,180,3.0,0.0
2094,60.0,0,180,2.0,0.0
2095,60.0,0,180,10.0,0.0
2096,76.0,96,90,1.0,0.0
2097,52.0,80,180,0.0,0.0
2098,65.0,16,90,1.0,0.0
2099,74.0,96,90,1.0,0.0
2100,59.0,16,180,2.0,0.0
2101,59.0,0,180,4.0,0.0
2102,59.0,0,180,3.0,0.0
2103,59.0,0,180,10.0,0.0
2104,53.0,80,180,0.0,0.0
2105,65.0,0,90,1.0,0.0
2106,57.0,0,180,3.0,0.0
2107,57.0,0,180,10.0,0.0
2108,72.0,96,90,1.0,0.0
2109,57.0,0,180,2.0,0.0
2110,57.0,0,180,4.0,0.0
2111,50.0,80,180,0.0,0.0
2112,65.0,16,90,1.0,0.0
2113,55.0,0,390,2.0,0.0
2114,55.0,0,390,3.0,0.0
2115,55.0,0,390,4.0,0.0
2116,55.0,0,390,10.0,0.0
2117,71.0,96,90,1.0,0.0
2118,62.0,96,180,0.0,0.0
2119,65.0,16,90,1.0,0.0
2120,55.0,0,180,1.0,0.0
2121,60.0,80,90,0.0,0.0
2122,59.0,192,90,0.0,0.0
2123,57.0,80,180,0.0,0.0
2124,55.0,0,90,11.0,0.0
2125,43.0,0,90,7.0,0.0
2126,55.0,96,90,6.0,0.0
2127,59.0,176,180,0.0,0.0
2128,53.0,0,90,6.0,0.0
2129,41.0,16,90,7.0,0.0
2130,53.0,0,90,11.0,0.0
2131,52.0,16,180,11.0,0.0
2132,40.0,0,180,7.0,0.0
2133,52.0,0,180,6.0,0.0
2134,60.0,80,180,0.0,0.0
2135,50.0,0,90,6.0,0.0
2136,38.0,96,90,7.0,0.0
2137,50.0,0,90,11.0,0.0
2138,54.0,176,180,0.0,0.0
2139,48.0,0,90,11.0,0.0
2140,48.0,0,90,6.0,0.0
2141,36.0,16,90,7.0,0.0
2142,47.0,16,180,6.0,0.0
2143,35.0,0,180,7.0,0.0
2144,47.0,0,180,11.0,0.0
2145,55.0,80,180,0.0,0.0
2146,40.0,0,90,7.0,0.0
2147,52.0,0,90,6.0,0.0
2148,52.0,96,90,11.0,0.0
2149,48.0,176,180,0.0,0.0
2150,48.0,16,90,6.0,0.0
2151,48.0,0,90,11.0,0.0
2152,36.0,0,90,7.0,0.0
2153,43.0,0,180,7.0,0.0
2154,55.0,192,180,11.0,0.0
2155,55.0,0,180,6.0,0.0
2156,52.0,176,390,0.0,0.0
2157,53.0,16,180,11.0,0.0
2158,53.0,0,180,6.0,0.0
2159,41.0,0,180,7.0,0.0
2160,55.0,0,180,11.0,0.0
2161,43.0,192,180,7.0,0.0
2162,55.0,0,180,6.0,0.0
2163,50.0,368,390,0.0,0.0
2164,43.0,0,180,6.0,0.0
2165,31.0,16,180,7.0,0.0
2166,43.0,0,180,11.0,0.0
2167,48.0,16,390,6.0,0.0
2168,36.0,0,390,7.0,0.0
2169,48.0,0,390,11.0,0.0
2170,48.0,560,390,0.0,0.0
2171,67.0,192,180,1.0,0.0
2172,43.0,0,390,11.0,0.0
2173,62.0,0,390,3.0,0.0
2174,31.0,192,390,7.0,0.0
2175,43.0,0,390,6.0,0.0
2176,67.0,0,180,10.0,0.0
2177,67.0,0,180,2.0,0.0
2178,59.0,0,390,4.0,0.0
2179,62.0,0,180,10.0,0.0
2180,62.0,0,390,1.0,0.0
2181,62.0,192,390,2.0,0.0
2182,42.0,0,390,11.0,0.0
2183,62.0,0,390,3.0,0.0
2184,62.0,0,180,10.0,0.0
2185,42.0,0,390,6.0,0.0
2186,30.0,0,390,7.0,0.0
2187,57.0,0,390,4.0,0.0
2188,60.0,192,180,10.0,0.0
2189,60.0,0,180,1.0,0.0
2190,60.0,0,180,2.0,0.0
2191,43.0,0,180,11.0,0.0
2192,43.0,0,180,6.0,0.0
2193,62.0,0,390,3.0,0.0
2194,59.0,0,180,1.0,0.0
2195,59.0,0,180,2.0,0.0
2196,31.0,0,180,7.0,0.0
2197,55.0,0,390,4.0,0.0
2198,59.0,96,180,10.0,0.0
2199,60.0,0,90,1.0,0.0
2200,45.0,0,90,11.0,0.0
2201,33.0,0,90,7.0,0.0
2202,60.0,0,90,10.0,0.0
2203,60.0,0,90,2.0,0.0
2204,45.0,96,90,6.0,0.0
2205,35.0,0,90,7.0,0.0
2206,62.0,0,90,1.0,0.0
2207,47.0,0,90,11.0,0.0
2208,47.0,0,90,6.0,0.0
2209,62.0,0,90,10.0,0.0
2210,62.0,192,90,2.0,0.0
2211,60.0,0,180,10.0,0.0
2212,64.0,0,180,10.0,0.0
2213,36.0,0,180,7.0,0.0
2214,48.0,0,180,11.0,0.0
2215,64.0,0,180,1.0,0.0
2216,55.0,0,180,4.0,0.0
2217,60.0,192,180,3.0,0.0
2218,64.0,0,180,2.0,0.0
2219,48.0,0,180,6.0,0.0
2220,48.0,0,390,7.0,0.0
2221,60.0,192,390,6.0,0.0
2222,69.0,0,180,1.0,0.0
2223,60.0,0,390,11.0,0.0
2224,64.0,0,180,3.0,0.0
2225,69.0,192,180,10.0,0.0
2226,60.0,0,180,4.0,0.0
2227,64.0,0,180,10.0,0.0
2228,69.0,0,180,2.0,0.0
2229,66.0,0,180,10.0,0.0
2230,57.0,0,180,4.0,0.0
2231,66.0,0,180,1.0,0.0
2232,62.0,0,390,10.0,0.0
2233,62.0,0,390,3.0,0.0
2234,66.0,0,180,2.0,0.0
2235,67.0,0,180,1.0,0.0
2236,67.0,0,180,2.0,0.0
2237,67.0,0,180,10.0,0.0
2238,59.0,0,180,6.0,0.0
2239,59.0,192,180,11.0,0.0
2240,62.0,0,390,4.0,0.0
2241,47.0,0,180,7.0,0.0
2242,69.0,0,180,3.0,0.0
2243,42.0,0,180,7.0,0.0
2244,72.0,192,180,10.0,0.0
2245,69.0,0,180,10.0,0.0
2246,72.0,0,180,1.0,0.0
2247,54.0,0,180,6.0,0.0
2248,72.0,0,180,2.0,0.0
2249,54.0,0,180,11.0,0.0
2250,71.0,0,180,10.0,0.0
2251,67.0,0,180,10.0,0.0
2252,43.0,0,180,7.0,0.0
2253,62.0,0,180,4.0,0.0
2254,67.0,0,180,3.0,0.0
2255,55.0,0,180,6.0,0.0
2256,55.0,0,180,11.0,0.0
2257,71.0,0,180,2.0,0.0
2258,71.0,64,180,1.0,0.0
2259,71.0,0,60,1.0,0.0
2260,50.0,0,180,11.0,0.0
2261,38.0,0,180,7.0,0.0
2262,50.0,0,180,6.0,0.0
2263,67.0,0,60,3.0,0.0
2264,71.0,0,60,10.0,0.0
2265,67.0,0,60,10.0,0.0
2266,62.0,0,180,4.0,0.0
2267,71.0,64,60,2.0,0.0
2268,72.0,0,60,10.0,0.0
2269,69.0,0,60,10.0,0.0
2270,72.0,64,60,1.0,0.0
2271,69.0,0,60,3.0,0.0
2272,72.0,0,60,2.0,0.0
2273,45.0,96,90,0.0,0.0
2274,71.0,0,60,1.0,0.0
2275,71.0,0,60,2.0,0.0
2276,71.0,0,60,10.0,0.0
2277,67.0,0,60,3.0,0.0
2278,67.0,16,60,10.0,0.0
2279,66.0,0,180,3.0,0.0
2280,69.0,0,180,1.0,0.0
2281,38.0,0,180,11.0,0.0
2282,62.0,0,180,4.0,0.0
2283,69.0,0,180,10.0,0.0
2284,69.0,16,180,2.0,0.0
2285,38.0,0,180,6.0,0.0
2286,66.0,0,180,10.0,0.0
2287,26.0,0,180,7.0,0.0
2288,47.0,80,90,0.0,0.0
2289,48.0,96,90,0.0,0.0
2290,50.0,96,90,0.0,0.0
2291,52.0,96,90,0.0,0.0
2292,54.0,96,90,0.0,0.0
2293,55.0,176,90,0.0,0.0
2294,57.0,80,180,0.0,0.0
2295,72.0,16,90,1.0,0.0
2296,26.0,0,180,7.0,0.0
2297,38.0,16,180,11.0,0.0
2298,62.0,96,90,1.0,0.0
2299,38.0,0,180,6.0,0.0
2300,50.0,80,180,0.0,0.0
2301,72.0,0,90,1.0,0.0
2302,40.0,0,180,11.0,0.0
2303,81.0,96,90,1.0,0.0
2304,28.0,0,180,7.0,0.0
2305,40.0,0,180,6.0,0.0
2306,50.0,80,180,0.0,0.0
2307,72.0,16,90,1.0,0.0
2308,30.0,16,180,7.0,0.0
2309,42.0,0,180,11.0,0.0
2310,42.0,0,180,6.0,0.0
2311,81.0,96,90,1.0,0.0
2312,48.0,80,180,0.0,0.0
2313,72.0,0,90,1.0,0.0
2314,43.0,0,390,11.0,0.0
2315,43.0,16,390,6.0,0.0
2316,81.0,96,90,1.0,0.0
2317,31.0,0,390,7.0,0.0
2318,47.0,80,180,0.0,0.0
2319,71.0,16,90,1.0,0.0
2320,62.0,16,90,1.0,0.0
2321,48.0,80,90,0.0,0.0
2322,71.0,0,90,1.0,0.0
2323,50.0,80,90,0.0,0.0
2324,81.0,16,90,1.0,0.0
2325,52.0,80,90,0.0,0.0
2326,71.0,16,90,1.0,0.0
2327,54.0,80,90,0.0,0.0
2328,81.0,16,90,1.0,0.0
2329,55.0,80,90,0.0,0.0
2330,71.0,16,90,1.0,0.0
2331,57.0,80,90,0.0,0.0
2332,79.0,96,90,1.0,0.0
2333,59.0,80,180,0.0,0.0
2334,71.0,16,90,1.0,0.0
2335,28.0,0,180,7.0,0.0
2336,40.0,0,180,11.0,0.0
2337,64.0,96,90,1.0,0.0
2338,40.0,16,180,6.0,0.0
2339,52.0,80,180,0.0,0.0
2340,71.0,0,90,1.0,0.0
2341,79.0,96,90,1.0,0.0
2342,42.0,0,180,11.0,0.0
2343,30.0,0,180,7.0,0.0
2344,42.0,0,180,6.0,0.0
2345,52.0,80,180,0.0,0.0
2346,71.0,16,90,1.0,0.0
2347,43.0,0,180,6.0,0.0
2348,31.0,16,180,7.0,0.0
2349,79.0,96,90,1.0,0.0
2350,43.0,0,180,11.0,0.0
2351,50.0,80,180,0.0,0.0
2352,71.0,0,90,1.0,0.0
2353,45.0,16,180,11.0,0.0
2354,33.0,0,180,7.0,0.0
2355,45.0,0,180,6.0,0.0
2356,79.0,96,90,1.0,0.0
2357,50.0,80,180,0.0,0.0
2358,72.0,0,90,1.0,0.0
2359,69.0,96,90,1.0,0.0
2360,31.0,0,180,7.0,0.0
2361,43.0,16,180,6.0,0.0
2362,43.0,0,180,11.0,0.0
2363,48.0,80,180,0.0,0.0
2364,72.0,0,90,1.0,0.0
2365,45.0,0,180,6.0,0.0
2366,77.0,96,90,1.0,0.0
2367,45.0,0,180,11.0,0.0
2368,33.0,96,180,7.0,0.0
2369,72.0,0,90,1.0,0.0
2370,50.0,96,180,6.0,0.0
2371,38.0,0,180,7.0,0.0
2372,50.0,0,180,11.0,0.0
2373,77.0,96,90,1.0,0.0
2374,72.0,0,90,1.0,0.0
2375,47.0,0,180,11.0,0.0
2376,35.0,0,180,7.0,0.0
2377,62.0,0,180,0.0,0.0
2378,77.0,96,90,1.0,0.0
2379,47.0,96,180,6.0,0.0
2380,74.0,0,90,1.0,0.0
2381,31.0,0,180,7.0,0.0
2382,43.0,96,180,11.0,0.0
2383,55.0,0,390,0.0,0.0
2384,67.0,96,90,1.0,0.0
2385,43.0,0,180,6.0,0.0
2386,74.0,0,90,1.0,0.0
2387,77.0,96,90,1.0,0.0
2388,45.0,0,180,6.0,0.0
2389,45.0,0,180,11.0,0.0
2390,33.0,48,180,7.0,0.0
2391,74.0,0,90,1.0,0.0
2392,47.0,0,180,11.0,0.0
2393,50.0,48,30,0.0,0.0
2394,47.0,0,180,6.0,0.0
2395,35.0,0,180,7.0,0.0
2396,77.0,96,90,1.0,0.0
2397,52.0,0,30,0.0,0.0
2398,53.0,96,90,0.0,0.0
2399,74.0,0,90,1.0,0.0
2400,48.0,0,390,6.0,0.0
2401,52.0,0,180,0.0,0.0
2402,76.0,96,90,1.0,0.0
2403,36.0,0,390,7.0,0.0
2404,48.0,0,390,11.0,0.0
2405,74.0,96,90,1.0,0.0
2406,54.0,96,90,0.0,0.0
2407,67.0,0,90,1.0,0.0
2408,74.0,96,90,1.0,0.0
2409,56.0,0,90,0.0,0.0
2410,76.0,96,90,1.0,0.0
2411,57.0,0,90,0.0,0.0
2412,59.0,0,90,0.0,0.0
2413,74.0,96,90,1.0,0.0
2414,60.0,96,90,0.0,0.0
2415,76.0,0,90,1.0,0.0
2416,74.0,0,90,1.0,0.0
2417,62.0,96,90,0.0,0.0
2418,81.0,96,90,1.0,0.0
2419,64.0,0,180,0.0,0.0
2420,72.0,96,90,1.0,0.0
2421,33.0,96,180,7.0,0.0
2422,57.0,0,180,0.0,0.0
2423,64.0,96,90,1.0,0.0
2424,45.0,0,180,6.0,0.0
2425,45.0,0,180,11.0,0.0
2426,72.0,0,90,1.0,0.0
2427,47.0,0,180,6.0,0.0
2428,47.0,0,180,11.0,0.0
2429,57.0,0,180,0.0,0.0
2430,81.0,96,90,1.0,0.0
2431,35.0,96,180,7.0,0.0
2432,72.0,0,90,1.0,0.0
2433,81.0,96,90,1.0,0.0
2434,36.0,0,180,7.0,0.0
2435,55.0,96,180,0.0,0.0
2436,48.0,0,180,11.0,0.0
2437,48.0,0,180,6.0,0.0
2438,72.0,0,90,1.0,0.0
2439,50.0,0,180,6.0,0.0
2440,50.0,0,180,11.0,0.0
2441,55.0,96,180,0.0,0.0
2442,38.0,0,180,7.0,0.0
2443,81.0,96,90,1.0,0.0
2444,72.0,0,90,1.0,0.0
2445,40.0,192,180,7.0,0.0
2446,54.0,0,180,0.0,0.0
2447,52.0,0,180,6.0,0.0
2448,62.0,96,90,1.0,0.0
2449,52.0,0,180,11.0,0.0
2450,72.0,0,90,1.0,0.0
2451,50.0,0,180,6.0,0.0
2452,81.0,0,180,1.0,0.0
2453,38.0,0,180,7.0,0.0
2454,57.0,0,180,0.0,0.0
2455,50.0,96,180,11.0,0.0
2456,36.0,0,180,7.0,0.0
2457,48.0,96,180,11.0,0.0
2458,59.0,96,90,0.0,0.0
2459,48.0,0,180,6.0,0.0
2460,60.0,0,90,0.0,0.0
2461,62.0,96,90,0.0,0.0
2462,35.0,0,180,7.0,0.0
2463,47.0,0,180,6.0,0.0
2464,47.0,96,180,11.0,0.0
2465,64.0,0,90,0.0,0.0
2466,62.0,96,90,0.0,0.0
2467,33.0,0,180,7.0,0.0
2468,45.0,0,180,6.0,0.0
2469,45.0,96,180,11.0,0.0
2470,60.0,0,90,0.0,0.0
2471,43.0,96,180,11.0,0.0
2472,59.0,96,90,0.0,0.0
2473,43.0,0,180,6.0,0.0
2474,31.0,0,180,7.0,0.0
2475,57.0,0,90,0.0,0.0
2476,45.0,0,90,6.0,0.0
2477,45.0,96,90,11.0,0.0
2478,33.0,0,90,7.0,0.0
2479,55.0,0,90,0.0,0.0
2480,47.0,0,90,11.0,0.0
2481,35.0,0,90,7.0,0.0
2482,47.0,0,90,6.0,0.0
2483,54.0,96,90,0.0,0.0
2484,52.0,96,180,0.0,0.0
2485,48.0,96,90,6.0,0.0
2486,48.0,0,90,11.0,0.0
2487,36.0,0,90,7.0,0.0
2488,50.0,0,90,11.0,0.0
2489,50.0,0,90,6.0,0.0
2490,38.0,0,90,7.0,0.0
2491,48.0,96,90,6.0,0.0
2492,36.0,0,90,7.0,0.0
2493,48.0,0,90,11.0,0.0
2494,55.0,0,180,0.0,0.0
2495,47.0,0,90,11.0,0.0
2496,35.0,0,90,7.0,0.0
2497,47.0,96,90,6.0,0.0
2498,45.0,0,90,6.0,0.0
2499,60.0,96,570,0.0,0.0
2500,45.0,0,90,11.0,0.0
2501,33.0,96,90,7.0,0.0
2502,43.0,0,90,6.0,0.0
2503,31.0,0,90,7.0,0.0
2504,43.0,96,90,11.0,0.0
2505,42.0,96,90,11.0,0.0
2506,42.0,0,90,6.0,0.0
2507,30.0,0,90,7.0,0.0
2508,40.0,0,90,11.0,0.0
2509,40.0,192,90,6.0,0.0
2510,28.0,0,90,7.0,0.0
2511,38.0,0,180,11.0,0.0
2512,26.0,0,180,7.0,0.0
2513,38.0,0,180,6.0,0.0
2514,40.0,96,90,6.0,0.0
2515,28.0,0,90,7.0,0.0
2516,40.0,0,90,11.0,0.0
2517,59.0,0,90,0.0,0.0
2518,57.0,96,90,0.0,0.0
2519,42.0,0,90,6.0,0.0
2520,42.0,0,90,11.0,0.0
2521,30.0,0,90,7.0,0.0
2522,31.0,0,90,7.0,0.0
2523,43.0,0,90,11.0,0.0
2524,59.0,96,180,0.0,0.0
2525,43.0,96,90,6.0,0.0
2526,45.0,0,90,6.0,0.0
2527,33.0,0,90,7.0,0.0
2528,45.0,0,90,11.0,0.0
2529,50.0,96,180,0.0,0.0
2530,47.0,0,90,6.0,0.0
2531,47.0,0,90,11.0,0.0
2532,35.0,96,90,7.0,0.0
2533,43.0,0,90,11.0,0.0
2534,43.0,0,90,6.0,0.0
2535,31.0,0,90,7.0,0.0
2536,33.0,0,90,7.0,0.0
2537,45.0,0,90,11.0,0.0
2538,45.0,96,90,6.0,0.0
2539,50.0,0,180,0.0,0.0
2540,31.0,0,90,7.0,0.0
2541,43.0,96,90,11.0,0.0
2542,43.0,0,90,6.0,0.0
2543,45.0,0,90,6.0,0.0
2544,48.0,96,180,0.0,0.0
2545,45.0,0,90,11.0,0.0
2546,72.0,0,90,1.0,0.0
2547,33.0,96,90,7.0,0.0
2548,35.0,0,90,7.0,0.0
2549,47.0,0,90,6.0,0.0
2550,47.0,0,90,11.0,0.0
2551,74.0,0,90,1.0,0.0
2552,76.0,0,90,1.0,0.0
2553,48.0,0,90,6.0,0.0
2554,48.0,0,90,11.0,0.0
2555,36.0,96,90,7.0,0.0
2556,50.0,0,90,6.0,0.0
2557,50.0,0,90,11.0,0.0
2558,78.0,96,90,1.0,0.0
2559,38.0,0,90,7.0,0.0
2560,40.0,0,90,7.0,0.0
2561,79.0,0,90,1.0,0.0
2562,52.0,0,90,6.0,0.0
2563,52.0,96,90,11.0,0.0
2564,36.0,96,90,7.0,0.0
2565,48.0,0,90,11.0,0.0
2566,76.0,0,90,1.0,0.0
2567,48.0,0,90,6.0,0.0
2568,50.0,0,180,11.0,0.0
2569,78.0,96,90,1.0,0.0
2570,38.0,0,180,7.0,0.0
2571,50.0,0,180,6.0,0.0
2572,72.0,96,90,1.0,0.0
2573,38.0,0,180,6.0,0.0
2574,38.0,96,180,11.0,0.0
2575,26.0,0,180,7.0,0.0
2576,64.0,96,90,1.0,0.0
2577,72.0,0,90,1.0,0.0
2578,50.0,96,180,0.0,0.0
2579,78.0,96,90,1.0,0.0
2580,72.0,0,90,1.0,0.0
2581,52.0,0,180,0.0,0.0
2582,79.0,96,90,1.0,0.0
2583,72.0,96,90,1.0,0.0
2584,38.0,0,180,7.0,0.0
2585,50.0,0,180,11.0,0.0
2586,54.0,0,180,0.0,0.0
2587,81.0,96,90,1.0,0.0
2588,50.0,96,180,6.0,0.0
2589,72.0,0,90,1.0,0.0
2590,55.0,0,180,0.0,0.0
2591,38.0,96,180,11.0,0.0
2592,38.0,0,180,6.0,0.0
2593,26.0,0,180,7.0,0.0
2594,83.0,96,90,1.0,0.0
2595,72.0,0,90,1.0,0.0
2596,81.0,96,90,1.0,0.0
2597,54.0,0,180,0.0,0.0
2598,72.0,96,90,1.0,0.0
2599,52.0,0,180,0.0,0.0
2600,79.0,96,90,1.0,0.0
2601,72.0,96,90,1.0,0.0
2602,50.0,0,180,11.0,0.0
2603,50.0,0,180,6.0,0.0
2604,50.0,0,90,0.0,0.0
2605,38.0,0,180,7.0,0.0
2606,78.0,96,90,1.0,0.0
2607,72.0,96,90,1.0,0.0
2608,52.0,0,90,0.0,0.0
2609,38.0,0,180,11.0,0.0
2610,26.0,0,180,7.0,0.0
2611,38.0,96,180,6.0,0.0
2612,54.0,96,90,0.0,0.0
2613,62.0,0,90,1.0,0.0
2614,55.0,0,90,0.0,0.0
2615,72.0,0,90,1.0,0.0
2616,62.0,0,180,3.0,0.0
2617,57.0,0,180,0.0,0.0
2618,78.0,96,90,1.0,0.0
2619,62.0,0,180,2.0,0.0
2620,62.0,0,180,10.0,0.0
2621,62.0,0,180,4.0,0.0
2622,72.0,96,90,1.0,0.0
2623,64.0,0,180,2.0,0.0
2624,64.0,0,180,10.0,0.0
2625,64.0,0,180,3.0,0.0
2626,64.0,0,180,4.0,0.0
2627,59.0,0,180,0.0,0.0
2628,79.0,96,90,1.0,0.0
2629,72.0,0,90,1.0,0.0
2630,66.0,0,180,10.0,0.0
2631,66.0,0,180,3.0,0.0
2632,50.0,0,180,6.0,0.0
2633,66.0,0,180,4.0,0.0
2634,60.0,0,180,0.0,0.0
2635,81.0,96,90,1.0,0.0
2636,50.0,0,180,11.0,0.0
2637,66.0,0,180,2.0,0.0
2638,38.0,0,180,7.0,0.0
2639,72.0,0,90,1.0,0.0
2640,62.0,96,90,0.0,0.0
2641,83.0,0,90,1.0,0.0
2642,67.0,0,180,3.0,0.0
2643,67.0,0,180,2.0,0.0
2644,26.0,0,180,7.0,0.0
2645,38.0,0,180,6.0,0.0
2646,38.0,96,180,11.0,0.0
2647,67.0,0,180,4.0,0.0
2648,67.0,0,180,10.0,0.0
2649,72.0,0,90,1.0,0.0
2650,59.0,0,90,0.0,0.0
2651,60.0,96,180,0.0,0.0
2652,66.0,0,180,2.0,0.0
2653,66.0,0,180,4.0,0.0
2654,66.0,0,180,10.0,0.0
2655,66.0,0,180,3.0,0.0
2656,81.0,96,90,1.0,0.0
2657,72.0,0,90,1.0,0.0
2658,62.0,0,90,0.0,0.0
2659,64.0,0,180,4.0,0.0
2660,64.0,0,180,10.0,0.0
2661,64.0,0,180,2.0,0.0
2662,64.0,0,180,3.0,0.0
2663,79.0,96,90,1.0,0.0
2664,59.0,0,90,0.0,0.0
2665,72.0,0,90,1.0,0.0
2666,62.0,0,390,4.0,0.0
2667,78.0,96,90,1.0,0.0
2668,62.0,0,390,3.0,0.0
2669,62.0,0,390,2.0,0.0
2670,62.0,0,390,10.0,0.0
2671,60.0,84,570,0.0,0.0
2672,72.0,96,90,1.0,0.0
2673,50.0,96,90,6.0,0.0
2674,50.0,0,90,11.0,0.0
2675,62.0,0,90,1.0,0.0
2676,38.0,0,90,7.0,0.0
2677,40.0,0,90,7.0,0.0
2678,72.0,0,90,1.0,0.0
2679,52.0,96,90,11.0,0.0
2680,52.0,0,90,6.0,0.0
2681,50.0,0,90,6.0,0.0
2682,50.0,0,90,11.0,0.0
2683,78.0,0,180,1.0,0.0
2684,38.0,96,90,7.0,0.0
2685,48.0,0,90,6.0,0.0
2686,48.0,0,90,11.0,0.0
2687,36.0,4,90,7.0,0.0
2688,62.0,8,90,0.0,0.0
2689,47.0,0,90,11.0,0.0
2690,47.0,0,90,6.0,0.0
2691,35.0,96,90,7.0,0.0
2692,33.0,0,90,7.0,0.0
2693,45.0,0,90,11.0,0.0
2694,45.0,4,90,6.0,0.0
2695,60.0,84,90,0.0,0.0
2696,59.0,104,90,0.0,0.0
2697,31.0,0,180,7.0,0.0
2698,43.0,0,180,11.0,0.0
2699,43.0,96,180,6.0,0.0
2700,57.0,0,90,0.0,0.0
2701,45.0,0,90,11.0,0.0
2702,45.0,0,90,6.0,0.0
2703,33.0,12,90,7.0,0.0
2704,55.0,84,90,0.0,0.0
2705,47.0,0,90,11.0,0.0
2706,47.0,16,90,6.0,0.0
2707,35.0,0,90,7.0,0.0
2708,54.0,176,90,0.0,0.0
2709,36.0,0,180,7.0,0.0
2710,48.0,0,180,11.0,0.0
2711,48.0,12,180,6.0,0.0
2712,52.0,168,180,0.0,0.0
2713,57.0,12,180,0.0,0.0
2714,33.0,192,180,7.0,0.0
2715,45.0,0,180,11.0,0.0
2716,45.0,0,180,6.0,0.0
2717,54.0,0,180,0.0,0.0
2718,50.0,96,180,6.0,0.0
2719,50.0,0,180,11.0,0.0
2720,38.0,0,180,7.0,0.0
2721,40.0,0,90,7.0,0.0
2722,50.0,0,180,0.0,0.0
2723,52.0,0,90,11.0,0.0
2724,52.0,96,90,6.0,0.0
2725,42.0,96,90,7.0,0.0
2726,54.0,0,90,11.0,0.0
2727,54.0,0,90,6.0,0.0
2728,59.0,96,90,0.0,0.0
2729,55.0,0,180,11.0,0.0
2730,55.0,0,180,6.0,0.0
2731,43.0,96,180,7.0,0.0
2732,57.0,0,90,0.0,0.0
2733,40.0,96,180,7.0,0.0
2734,60.0,96,90,0.0,0.0
2735,52.0,0,180,11.0,0.0
2736,52.0,0,180,6.0,0.0
2737,59.0,0,90,0.0,0.0
2738,48.0,0,180,6.0,0.0
2739,57.0,96,90,0.0,0.0
2740,36.0,0,180,7.0,0.0
2741,48.0,0,180,11.0,0.0
2742,54.0,96,90,0.0,0.0
2743,45.0,0,180,11.0,0.0
2744,45.0,0,180,6.0,0.0
2745,55.0,96,90,0.0,0.0
2746,33.0,192,180,7.0,0.0
2747,52.0,0,90,0.0,0.0
2748,50.0,0,180,11.0,0.0
2749,50.0,96,180,6.0,0.0
2750,38.0,0,180,7.0,0.0
2751,54.0,96,270,0.0,0.0
2752,38.0,0,180,6.0,0.0
2753,26.0,0,180,7.0,0.0
2754,38.0,192,180,11.0,0.0
2755,55.0,0,90,0.0,0.0
2756,43.0,0,390,11.0,0.0
2757,67.0,0,180,10.0,0.0
2758,55.0,0,390,0.0,0.0
2759,67.0,0,180,2.0,0.0
2760,31.0,192,390,7.0,0.0
2761,62.0,0,390,3.0,0.0
2762,59.0,0,390,4.0,0.0
2763,43.0,0,390,6.0,0.0
2764,67.0,192,180,1.0,0.0
2765,62.0,0,180,10.0,0.0
2766,62.0,0,390,1.0,0.0
2767,62.0,192,390,2.0,0.0
2768,42.0,0,390,6.0,0.0
2769,42.0,0,390,11.0,0.0
2770,62.0,0,180,10.0,0.0
2771,62.0,0,390,3.0,0.0
2772,57.0,192,390,4.0,0.0
2773,30.0,0,390,7.0,0.0
2774,60.0,0,180,10.0,0.0
2775,60.0,0,180,1.0,0.0
2776,60.0,0,180,2.0,0.0
2777,43.0,0,180,11.0,0.0
2778,59.0,0,180,1.0,0.0
2779,43.0,96,180,6.0,0.0
2780,59.0,0,180,10.0,0.0
2781,55.0,0,390,4.0,0.0
2782,31.0,0,180,7.0,0.0
2783,62.0,0,390,3.0,0.0
2784,59.0,0,180,2.0,0.0
2785,60.0,0,90,2.0,0.0
2786,60.0,0,90,10.0,0.0
2787,60.0,0,90,1.0,0.0
2788,45.0,0,90,11.0,0.0
2789,33.0,96,90,7.0,0.0
2790,45.0,0,90,6.0,0.0
2791,62.0,0,90,10.0,0.0
2792,62.0,0,90,1.0,0.0
2793,35.0,0,90,7.0,0.0
2794,47.0,0,90,11.0,0.0
2795,62.0,192,90,2.0,0.0
2796,47.0,0,90,6.0,0.0
2797,60.0,0,180,3.0,0.0
2798,36.0,0,180,7.0,0.0
2799,48.0,0,180,11.0,0.0
2800,60.0,0,180,10.0,0.0
2801,55.0,0,180,4.0,0.0
2802,64.0,192,180,1.0,0.0
2803,64.0,0,180,2.0,0.0
2804,64.0,0,180,10.0,0.0
2805,48.0,0,180,6.0,0.0
2806,60.0,192,180,4.0,0.0
2807,60.0,0,390,6.0,0.0
2808,64.0,0,180,10.0,0.0
2809,69.0,0,180,10.0,0.0
2810,69.0,0,180,1.0,0.0
2811,60.0,0,390,11.0,0.0
2812,48.0,0,390,7.0,0.0
2813,64.0,0,180,3.0,0.0
2814,69.0,0,180,2.0,0.0
2815,57.0,0,180,4.0,0.0
2816,66.0,0,180,2.0,0.0
2817,66.0,0,180,1.0,0.0
2818,66.0,192,180,10.0,0.0
2819,62.0,0,390,10.0,0.0
2820,62.0,0,390,3.0,0.0
2821,67.0,0,180,2.0,0.0
2822,59.0,0,180,11.0,0.0
2823,47.0,0,180,7.0,0.0
2824,67.0,0,180,10.0,0.0
2825,67.0,192,180,1.0,0.0
2826,59.0,0,180,6.0,0.0
2827,62.0,0,390,4.0,0.0
2828,72.0,0,180,2.0,0.0
2829,69.0,0,180,3.0,0.0
2830,72.0,192,180,1.0,0.0
2831,69.0,0,180,10.0,0.0
2832,54.0,0,180,11.0,0.0
2833,54.0,0,180,6.0,0.0
2834,72.0,0,180,10.0,0.0
2835,42.0,0,180,7.0,0.0
2836,71.0,0,180,1.0,0.0
2837,71.0,0,180,10.0,0.0
2838,43.0,64,180,7.0,0.0
2839,67.0,0,180,10.0,0.0
2840,62.0,0,180,4.0,0.0
2841,71.0,0,180,2.0,0.0
2842,55.0,0,180,11.0,0.0
2843,67.0,0,180,3.0,0.0
2844,55.0,0,180,6.0,0.0
2845,71.0,64,60,2.0,0.0
2846,67.0,0,60,10.0,0.0
2847,71.0,0,60,1.0,0.0
2848,62.0,0,180,4.0,0.0
2849,71.0,0,60,10.0,0.0
2850,62.0,0,180,6.0,0.0
2851,62.0,0,180,11.0,0.0
2852,50.0,192,180,7.0,0.0
2853,67.0,0,60,3.0,0.0
2854,69.0,64,60,3.0,0.0
2855,69.0,0,60,10.0,0.0
2856,72.0,0,60,10.0,0.0
2857,72.0,0,60,1.0,0.0
2858,72.0,0,60,2.0,0.0
2859,71.0,0,60,2.0,0.0
2860,71.0,0,60,10.0,0.0
2861,67.0,0,60,10.0,0.0
2862,67.0,0,60,3.0,0.0
2863,71.0,0,60,1.0,0.0
2864,69.0,0,180,2.0,0.0
2865,69.0,576,180,10.0,0.0
2866,66.0,0,180,10.0,0.0
2867,50.0,0,180,6.0,0.0
2868,66.0,0,180,3.0,0.0
2869,50.0,0,180,11.0,0.0
2870,62.0,0,180,4.0,0.0
2871,69.0,0,180,1.0,0.0
2872,38.0,0,180,7.0,0.0
2873,36.0,0,390,7.0,0.0
2874,48.0,0,390,6.0,0.0
2875,69.0,192,180,1.0,0.0
2876,57.0,192,390,4.0,0.0
2877,64.0,0,390,3.0,0.0
2878,48.0,0,390,11.0,0.0
2879,69.0,0,180,10.0,0.0
2880,69.0,0,180,2.0,0.0
2881,64.0,0,390,1.0,0.0
2882,64.0,192,390,2.0,0.0
2883,64.0,0,180,10.0,0.0
2884,64.0,0,390,3.0,0.0
2885,64.0,0,180,10.0,0.0
2886,44.0,0,390,6.0,0.0
2887,44.0,0,390,11.0,0.0
2888,32.0,0,390,7.0,0.0
2889,59.0,0,390,4.0,0.0
2890,62.0,0,180,10.0,0.0
2891,62.0,192,180,2.0,0.0
2892,62.0,0,180,1.0,0.0
2893,60.0,96,180,2.0,0.0
2894,57.0,0,390,4.0,0.0
2895,60.0,0,180,10.0,0.0
2896,33.0,0,180,7.0,0.0
2897,64.0,0,390,3.0,0.0
2898,45.0,0,180,11.0,0.0
2899,60.0,0,180,1.0,0.0
2900,45.0,0,180,6.0,0.0
2901,35.0,0,90,7.0,0.0
2902,47.0,0,90,11.0,0.0
2903,62.0,0,90,1.0,0.0
2904,62.0,0,90,10.0,0.0
2905,62.0,0,90,2.0,0.0
2906,47.0,96,90,6.0,0.0
2907,48.0,0,90,11.0,0.0
2908,64.0,0,90,2.0,0.0
2909,36.0,0,90,7.0,0.0
2910,48.0,0,90,6.0,0.0
2911,64.0,48,90,1.0,0.0
2912,64.0,0,90,10.0,0.0
2913,65.0,0,30,2.0,0.0
2914,38.0,192,180,7.0,0.0
2915,50.0,0,180,11.0,0.0
2916,57.0,0,180,4.0,0.0
2917,65.0,0,30,10.0,0.0
2918,62.0,0,180,3.0,0.0
2919,65.0,48,30,1.0,0.0
2920,50.0,0,180,6.0,0.0
2921,64.0,0,30,2.0,0.0
2922,64.0,96,30,10.0,0.0
2923,64.0,0,30,1.0,0.0
2924,62.0,0,90,1.0,0.0
2925,62.0,0,90,10.0,0.0
2926,62.0,0,90,2.0,0.0
2927,71.0,192,180,2.0,0.0
2928,71.0,0,180,10.0,0.0
2929,65.0,0,180,10.0,0.0
2930,62.0,0,180,4.0,0.0
2931,71.0,0,180,1.0,0.0
2932,65.0,0,180,3.0,0.0
2933,68.0,0,180,2.0,0.0
2934,62.0,0,180,6.0,0.0
2935,64.0,8,390,3.0,0.0
2936,68.0,0,180,1.0,0.0
2937,62.0,0,180,11.0,0.0
2938,68.0,0,180,10.0,0.0
2939,59.0,0,180,4.0,0.0
2940,50.0,192,180,7.0,0.0
2941,64.0,0,390,10.0,0.0
2942,69.0,0,180,10.0,0.0
2943,64.0,0,390,4.0,0.0
2944,69.0,0,180,2.0,0.0
2945,69.0,0,180,1.0,0.0
2946,48.0,0,180,7.0,0.0
2947,60.0,0,180,6.0,0.0
2948,60.0,184,180,11.0,0.0
2949,74.0,0,180,2.0,0.0
2950,71.0,0,180,10.0,0.0
2951,44.0,0,180,7.0,0.0
2952,56.0,0,180,6.0,0.0
2953,74.0,0,180,10.0,0.0
2954,56.0,0,180,11.0,0.0
2955,71.0,0,180,3.0,0.0
2956,74.0,192,180,1.0,0.0
2957,72.0,0,180,1.0,0.0
2958,69.0,0,180,3.0,0.0
2959,64.0,0,180,4.0,0.0
2960,69.0,0,180,10.0,0.0
2961,57.0,0,180,11.0,0.0
2962,45.0,0,180,7.0,0.0
2963,72.0,0,180,2.0,0.0
2964,57.0,0,180,6.0,0.0
2965,72.0,64,180,10.0,0.0
2966,72.0,0,60,10.0,0.0
2967,52.0,0,180,7.0,0.0
2968,72.0,0,60,2.0,0.0
2969,64.0,0,180,11.0,0.0
2970,69.0,0,60,10.0,0.0
2971,64.0,0,180,6.0,0.0
2972,64.0,0,180,4.0,0.0
2973,69.0,64,60,3.0,0.0
2974,72.0,0,60,1.0,0.0
2975,71.0,0,60,10.0,0.0
2976,74.0,0,60,1.0,0.0
2977,71.0,64,60,3.0,0.0
2978,74.0,0,60,2.0,0.0
2979,74.0,0,60,10.0,0.0
2980,72.0,192,60,2.0,0.0
2981,72.0,0,60,10.0,0.0
2982,69.0,0,60,10.0,0.0
2983,69.0,0,60,3.0,0.0
2984,72.0,0,60,1.0,0.0
2985,71.0,0,180,2.0,0.0
2986,68.0,0,180,3.0,0.0
2987,52.0,0,180,11.0,0.0
2988,52.0,0,180,6.0,0.0
2989,71.0,0,180,1.0,0.0
2990,64.0,192,180,4.0,0.0
2991,71.0,0,180,10.0,0.0
2992,68.0,0,180,10.0,0.0
2993,40.0,0,180,7.0,0.0
2994,71.0,96,90,1.0,0.0
2995,69.0,96,90,1.0,0.0
2996,71.0,96,90,1.0,0.0
2997,57.0,0,180,6.0,0.0
2998,45.0,0,180,7.0,0.0
2999,72.0,96,90,1.0,0.0
3000,57.0,0,180,11.0,0.0
3001,64.0,96,90,1.0,0.0
3002,45.0,0,180,11.0,0.0
3003,57.0,96,90,1.0,0.0
3004,33.0,0,180,7.0,0.0
3005,45.0,0,180,6.0,0.0
3006,64.0,48,90,1.0,0.0
3007,76.0,0,180,2.0,0.0
3008,76.0,0,180,10.0,0.0
3009,72.0,0,180,10.0,0.0
3010,72.0,48,30,1.0,0.0
3011,72.0,0,180,3.0,0.0
3012,69.0,0,180,4.0,0.0
3013,69.0,48,30,1.0,0.0
3014,71.0,48,30,1.0,0.0
3015,72.0,48,30,1.0,0.0
3016,74.0,48,30,1.0,0.0
3017,64.0,0,180,3.0,0.0
3018,72.0,0,180,10.0,0.0
3019,57.0,96,180,4.0,0.0
3020,64.0,0,180,10.0,0.0
3021,72.0,0,180,2.0,0.0
3022,76.0,48,30,1.0,0.0
3023,78.0,48,30,1.0,0.0
3024,79.0,0,30,1.0,0.0
3025,36.0,0,180,7.0,0.0
3026,48.0,0,180,11.0,0.0
3027,81.0,96,90,1.0,0.0
3028,48.0,96,180,6.0,0.0
3029,72.0,0,90,1.0,0.0
3030,45.0,0,180,6.0,0.0
3031,45.0,96,180,11.0,0.0
3032,64.0,96,90,1.0,0.0
3033,33.0,0,180,7.0,0.0
3034,72.0,0,90,1.0,0.0
3035,76.0,0,180,10.0,0.0
3036,60.0,0,180,4.0,0.0
3037,81.0,96,180,10.0,0.0
3038,81.0,0,180,2.0,0.0
3039,76.0,0,180,3.0,0.0
3040,81.0,96,90,1.0,0.0
3041,72.0,0,90,1.0,0.0
3042,79.0,96,90,1.0,0.0
3043,72.0,0,180,3.0,0.0
3044,76.0,0,180,10.0,0.0
3045,72.0,0,180,10.0,0.0
3046,76.0,96,180,2.0,0.0
3047,57.0,0,180,4.0,0.0
3048,72.0,0,90,1.0,0.0
3049,38.0,96,180,7.0,0.0
3050,78.0,96,90,1.0,0.0
3051,50.0,0,180,11.0,0.0
3052,50.0,0,180,6.0,0.0
3053,72.0,0,90,1.0,0.0
3054,38.0,0,180,6.0,0.0
3055,62.0,96,90,1.0,0.0
3056,38.0,0,180,11.0,0.0
3057,26.0,48,180,7.0,0.0
3058,72.0,0,90,1.0,0.0
3059,78.0,0,180,2.0,0.0
3060,78.0,48,30,1.0,0.0
3061,62.0,0,180,4.0,0.0
3062,78.0,0,180,10.0,0.0
3063,69.0,48,180,10.0,0.0
3064,69.0,0,180,3.0,0.0
3065,74.0,48,30,1.0,0.0
3066,76.0,48,30,1.0,0.0
3067,78.0,0,30,1.0,0.0
3068,79.0,48,30,1.0,0.0
3069,66.0,0,180,3.0,0.0
3070,50.0,96,180,4.0,0.0
3071,74.0,0,180,2.0,0.0
3072,74.0,0,180,10.0,0.0
3073,66.0,0,180,10.0,0.0
3074,81.0,48,30,1.0,0.0
3075,83.0,48,30,1.0,0.0
3076,84.0,0,30,1.0,0.0
3077,54.0,0,180,11.0,0.0
3078,86.0,96,90,1.0,0.0
3079,54.0,0,180,6.0,0.0
3080,42.0,96,180,7.0,0.0
3081,74.0,0,90,1.0,0.0
3082,50.0,0,180,6.0,0.0
3083,62.0,96,90,1.0,0.0
3084,50.0,96,180,11.0,0.0
3085,38.0,0,180,7.0,0.0
3086,74.0,0,90,1.0,0.0
3087,66.0,0,180,4.0,0.0
3088,81.0,0,180,10.0,0.0
3089,81.0,96,180,2.0,0.0
3090,86.0,96,90,1.0,0.0
3091,74.0,0,180,10.0,0.0
3092,74.0,0,180,3.0,0.0
3093,74.0,0,90,1.0,0.0
3094,62.0,0,180,4.0,0.0
3095,69.0,0,180,10.0,0.0
3096,78.0,0,180,10.0,0.0
3097,69.0,96,180,3.0,0.0
3098,84.0,96,90,1.0,0.0
3099,78.0,0,180,2.0,0.0
3100,74.0,0,90,1.0,0.0
3101,55.0,0,180,11.0,0.0
3102,55.0,96,180,6.0,0.0
3103,43.0,0,180,7.0,0.0
3104,83.0,96,90,1.0,0.0
3105,74.0,0,90,1.0,0.0
3106,43.0,0,180,11.0,0.0
3107,71.0,0,180,10.0,0.0
3108,74.0,0,180,10.0,0.0
3109,43.0,0,180,6.0,0.0
3110,71.0,0,180,3.0,0.0
3111,74.0,0,180,2.0,0.0
3112,67.0,0,180,4.0,0.0
3113,67.0,96,90,1.0,0.0
3114,31.0,96,180,7.0,0.0
3115,74.0,0,90,1.0,0.0
3116,71.0,0,180,4.0,0.0
3117,74.0,0,180,10.0,0.0
3118,79.0,0,180,10.0,0.0
3119,79.0,96,180,2.0,0.0
3120,74.0,0,180,3.0,0.0
3121,83.0,96,90,1.0,0.0
3122,74.0,0,90,1.0,0.0
3123,71.0,0,180,10.0,0.0
3124,83.0,96,180,2.0,0.0
3125,83.0,0,180,10.0,0.0
3126,71.0,0,180,3.0,0.0
3127,83.0,96,90,1.0,0.0
3128,67.0,0,180,4.0,0.0
3129,74.0,0,90,1.0,0.0
3130,76.0,0,180,10.0,0.0
3131,83.0,96,90,1.0,0.0
3132,60.0,0,180,4.0,0.0
3133,67.0,0,180,3.0,0.0
3134,67.0,96,180,10.0,0.0
3135,76.0,0,180,2.0,0.0
3136,76.0,0,90,1.0,0.0
3137,60.0,0,90,11.0,0.0
3138,60.0,0,90,6.0,0.0
3139,48.0,0,90,7.0,0.0
3140,67.0,96,90,1.0,0.0
3141,59.0,0,90,11.0,0.0
3142,47.0,96,90,7.0,0.0
3143,76.0,0,90,1.0,0.0
3144,59.0,0,90,6.0,0.0
3145,57.0,96,180,11.0,0.0
3146,57.0,0,180,6.0,0.0
3147,45.0,0,180,7.0,0.0
3148,81.0,96,90,1.0,0.0
3149,76.0,0,90,1.0,0.0
3150,83.0,96,90,1.0,0.0
3151,55.0,0,180,11.0,0.0
3152,43.0,0,180,7.0,0.0
3153,55.0,0,180,6.0,0.0
3154,76.0,96,90,1.0,0.0
3155,81.0,96,90,1.0,0.0
3156,54.0,0,180,6.0,0.0
3157,54.0,0,180,11.0,0.0
3158,42.0,0,180,7.0,0.0
3159,76.0,96,90,1.0,0.0
3160,66.0,0,180,4.0,0.0
3161,76.0,0,180,2.0,0.0
3162,69.0,0,180,3.0,0.0
3163,42.0,0,180,11.0,0.0
3164,42.0,0,180,6.0,0.0
3165,30.0,0,180,7.0,0.0
3166,76.0,0,180,10.0,0.0
3167,69.0,0,180,10.0,0.0
3168,66.0,96,90,1.0,0.0
3169,76.0,96,90,1.0,0.0
3170,72.0,0,180,3.0,0.0
3171,78.0,0,180,2.0,0.0
3172,69.0,96,180,4.0,0.0
3173,81.0,96,90,1.0,0.0
3174,72.0,0,180,10.0,0.0
3175,78.0,0,180,10.0,0.0
3176,76.0,0,90,1.0,0.0
3177,81.0,0,180,10.0,0.0
3178,81.0,0,180,2.0,0.0
3179,66.0,0,180,4.0,0.0
3180,69.0,96,180,3.0,0.0
3181,69.0,0,180,10.0,0.0
3182,81.0,96,90,1.0,0.0
3183,76.0,0,90,1.0,0.0
3184,59.0,0,180,4.0,0.0
3185,66.0,96,180,10.0,0.0
3186,74.0,0,180,10.0,0.0
3187,81.0,96,90,1.0,0.0
3188,74.0,0,180,2.0,0.0
3189,66.0,0,180,3.0,0.0
3190,74.0,0,90,1.0,0.0
3191,59.0,0,90,11.0,0.0
3192,47.0,0,90,7.0,0.0
3193,59.0,96,90,6.0,0.0
3194,66.0,0,90,1.0,0.0
3195,45.0,96,90,7.0,0.0
3196,57.0,0,90,6.0,0.0
3197,57.0,0,90,11.0,0.0
3198,74.0,0,90,1.0,0.0
3199,83.0,96,90,1.0,0.0
3200,55.0,0,180,6.0,0.0
3201,43.0,0,180,7.0,0.0
3202,55.0,96,180,11.0,0.0
3203,74.0,0,90,1.0,0.0
3204,81.0,96,90,1.0,0.0
3205,54.0,0,180,6.0,0.0
3206,54.0,0,180,11.0,0.0
3207,42.0,96,180,7.0,0.0
3208,74.0,0,90,1.0,0.0
3209,40.0,0,180,7.0,0.0
3210,52.0,96,180,11.0,0.0
3211,52.0,0,180,6.0,0.0
3212,79.0,96,90,1.0,0.0
3213,74.0,0,90,1.0,0.0
3214,64.0,96,90,1.0,0.0
3215,64.0,0,180,4.0,0.0
3216,40.0,0,180,11.0,0.0
3217,67.0,0,180,10.0,0.0
3218,28.0,0,180,7.0,0.0
3219,40.0,0,180,6.0,0.0
3220,67.0,96,180,3.0,0.0
3221,74.0,0,180,2.0,0.0
3222,74.0,0,180,10.0,0.0
3223,74.0,0,90,1.0,0.0
3224,71.0,96,180,3.0,0.0
3225,79.0,96,90,1.0,0.0
3226,67.0,0,180,4.0,0.0
3227,71.0,0,180,10.0,0.0
3228,76.0,0,180,10.0,0.0
3229,76.0,0,180,2.0,0.0
3230,74.0,0,90,1.0,0.0
3231,79.0,96,180,10.0,0.0
3232,64.0,0,180,4.0,0.0
3233,67.0,0,180,10.0,0.0
3234,67.0,0,180,3.0,0.0
3235,79.0,0,180,2.0,0.0
3236,79.0,96,90,1.0,0.0
3237,74.0,0,90,1.0,0.0
3238,64.0,0,750,10.0,0.0
3239,79.0,96,90,1.0,0.0
3240,72.0,0,1140,10.0,0.0
3241,64.0,0,750,3.0,0.0
3242,57.0,0,1140,4.0,0.0
3243,72.0,0,1140,2.0,0.0
3244,72.0,96,90,1.0,0.0
3245,57.0,96,90,11.0,0.0
3246,57.0,0,90,6.0,0.0
3247,45.0,0,90,7.0,0.0
3248,64.0,0,90,1.0,0.0
3249,55.0,96,90,6.0,0.0
3250,43.0,0,90,7.0,0.0
3251,55.0,0,90,11.0,0.0
3252,72.0,0,90,1.0,0.0
3253,54.0,96,180,11.0,0.0
3254,81.0,96,90,1.0,0.0
3255,42.0,0,180,7.0,0.0
3256,54.0,0,180,6.0,0.0
3257,72.0,0,90,1.0,0.0
3258,52.0,0,180,11.0,0.0
3259,40.0,0,180,7.0,0.0
3260,79.0,96,90,1.0,0.0
3261,52.0,0,180,6.0,0.0
3262,72.0,96,90,1.0,0.0
3263,69.0,96,390,3.0,0.0
3264,69.0,0,390,10.0,0.0
3265,50.0,0,180,6.0,0.0
3266,78.0,96,90,1.0,0.0
3267,50.0,96,180,11.0,0.0
3268,38.0,0,180,7.0,0.0
3269,72.0,0,90,1.0,0.0
3270,62.0,96,90,1.0,0.0
3271,26.0,0,180,7.0,0.0
3272,38.0,0,180,11.0,0.0
3273,38.0,0,180,6.0,0.0
3274,72.0,0,90,1.0,0.0
3275,62.0,0,180,10.0,0.0
3276,62.0,96,180,2.0,0.0
3277,78.0,96,90,1.0,0.0
3278,72.0,0,90,1.0,0.0
3279,79.0,96,90,1.0,0.0
3280,64.0,0,180,2.0,0.0
3281,64.0,0,180,10.0,0.0
3282,72.0,96,90,1.0,0.0
3283,66.0,96,180,2.0,0.0
3284,81.0,96,90,1.0,0.0
3285,66.0,0,180,10.0,0.0
3286,72.0,0,90,1.0,0.0
3287,67.0,96,180,2.0,0.0
3288,83.0,96,90,1.0,0.0
3289,67.0,0,180,10.0,0.0
3290,72.0,0,90,1.0,0.0
3291,66.0,0,180,2.0,0.0
3292,81.0,96,90,1.0,0.0
3293,66.0,0,180,10.0,0.0
3294,72.0,96,90,1.0,0.0
3295,79.0,96,90,1.0,0.0
3296,64.0,0,180,10.0,0.0
3297,64.0,0,180,2.0,0.0
3298,72.0,96,90,1.0,0.0
3299,50.0,0,180,6.0,0.0
3300,62.0,0,390,10.0,0.0
3301,38.0,0,180,7.0,0.0
3302,62.0,0,390,2.0,0.0
3303,78.0,96,90,1.0,0.0
3304,50.0,96,180,11.0,0.0
3305,72.0,0,90,1.0,0.0
3306,26.0,0,180,7.0,0.0
3307,38.0,0,180,6.0,0.0
3308,62.0,96,90,1.0,0.0
3309,38.0,96,180,11.0,0.0
3310,72.0,0,90,1.0,0.0
3311,69.0,0,180,3.0,0.0
3312,50.0,0,180,4.0,0.0
3313,72.0,0,180,2.0,0.0
3314,72.0,0,180,10.0,0.0
3315,69.0,0,180,10.0,0.0
3316,78.0,96,90,1.0,0.0
3317,72.0,96,90,1.0,0.0
3318,52.0,0,180,4.0,0.0
3319,67.0,0,180,3.0,0.0
3320,71.0,0,180,2.0,0.0
3321,79.0,96,90,1.0,0.0
3322,67.0,0,180,10.0,0.0
3323,71.0,96,180,10.0,0.0
3324,72.0,0,90,1.0,0.0
3325,54.0,96,180,4.0,0.0
3326,81.0,96,90,1.0,0.0
3327,66.0,0,180,3.0,0.0
3328,69.0,0,180,2.0,0.0
3329,69.0,0,180,10.0,0.0
3330,66.0,0,180,10.0,0.0
3331,72.0,0,90,1.0,0.0
3332,67.0,0,180,2.0,0.0
3333,67.0,0,180,10.0,0.0
3334,83.0,96,90,1.0,0.0
3335,64.0,0,180,3.0,0.0
3336,64.0,96,180,10.0,0.0
3337,55.0,0,180,4.0,0.0
3338,72.0,0,90,1.0,0.0
3339,54.0,0,180,4.0,0.0
3340,66.0,0,180,3.0,0.0
3341,69.0,0,180,10.0,0.0
3342,66.0,0,180,10.0,0.0
3343,81.0,96,90,1.0,0.0
3344,69.0,96,180,2.0,0.0
3345,72.0,0,90,1.0,0.0
3346,79.0,96,90,1.0,0.0
3347,67.0,0,180,3.0,0.0
3348,71.0,0,180,10.0,0.0
3349,52.0,0,180,4.0,0.0
3350,71.0,0,180,2.0,0.0
3351,67.0,0,180,10.0,0.0
3352,72.0,96,90,1.0,0.0
3353,72.0,0,180,10.0,0.0
3354,72.0,0,180,2.0,0.0
3355,78.0,96,90,1.0,0.0
3356,50.0,0,180,4.0,0.0
3357,69.0,96,180,3.0,0.0
3358,69.0,0,180,10.0,0.0
3359,72.0,0,90,1.0,0.0
3360,38.0,0,180,7.0,0.0
3361,67.0,0,90,10.0,0.0
3362,67.0,96,90,3.0,0.0
3363,62.0,0,180,4.0,0.0
3364,50.0,0,180,11.0,0.0
3365,71.0,0,90,10.0,0.0
3366,71.0,0,90,1.0,0.0
3367,50.0,0,180,6.0,0.0
3368,71.0,0,90,2.0,0.0
3369,66.0,0,90,3.0,0.0
3370,66.0,0,90,10.0,0.0
3371,69.0,96,90,10.0,0.0
3372,69.0,0,90,2.0,0.0
3373,69.0,0,90,1.0,0.0
3374,55.0,0,180,11.0,0.0
3375,71.0,96,180,2.0,0.0
3376,71.0,0,180,10.0,0.0
3377,43.0,0,180,7.0,0.0
3378,55.0,0,180,6.0,0.0
3379,71.0,96,90,1.0,0.0
3380,67.0,0,180,3.0,0.0
3381,67.0,0,180,10.0,0.0
3382,62.0,0,180,4.0,0.0
3383,79.0,0,90,1.0,0.0
3384,67.0,96,180,10.0,0.0
3385,48.0,0,180,6.0,0.0
3386,64.0,0,180,4.0,0.0
3387,69.0,96,90,1.0,0.0
3388,79.0,0,180,2.0,0.0
3389,36.0,0,180,7.0,0.0
3390,67.0,0,180,3.0,0.0
3391,48.0,0,180,11.0,0.0
3392,79.0,0,180,10.0,0.0
3393,67.0,0,90,1.0,0.0
3394,62.0,96,90,1.0,0.0
3395,67.0,0,180,10.0,0.0
3396,50.0,0,390,6.0,0.0
3397,71.0,0,390,10.0,0.0
3398,71.0,96,390,2.0,0.0
3399,50.0,0,390,11.0,0.0
3400,67.0,0,180,3.0,0.0
3401,38.0,0,390,7.0,0.0
3402,62.0,0,750,4.0,0.0
3403,69.0,96,90,1.0,0.0
3404,62.0,64,390,3.0,0.0
3405,79.0,96,90,1.0,0.0
3406,62.0,0,390,10.0,0.0
3407,76.0,0,90,1.0,0.0
3408,26.0,0,390,7.0,0.0
3409,69.0,64,120,2.0,0.0
3410,38.0,0,390,6.0,0.0
3411,38.0,0,390,11.0,0.0
3412,69.0,0,120,10.0,0.0
3413,78.0,32,90,1.0,0.0
3414,81.0,0,90,1.0,0.0
3415,71.0,32,120,10.0,0.0
3416,71.0,0,120,2.0,0.0
3417,60.0,0,180,3.0,0.0
3418,74.0,96,90,1.0,0.0
3419,60.0,0,180,10.0,0.0
3420,69.0,0,120,10.0,0.0
3421,69.0,192,120,2.0,0.0
3422,78.0,0,90,1.0,0.0
3423,43.0,0,1530,6.0,0.0
3424,59.0,0,1530,3.0,0.0
3425,43.0,0,1530,11.0,0.0
3426,79.0,1152,180,1.0,0.0
3427,31.0,0,1530,7.0,0.0
3428,62.0,0,1530,4.0,0.0
3429,67.0,0,1530,2.0,0.0
3430,67.0,0,1530,10.0,0.0
3431,59.0,0,1530,10.0,0.0
3432,67.0,192,1140,1.0,0.0
