,note,step,duration,channel,velocity
0,47.0,0,190,8.0,100.0
1,35.0,0,190,8.0,100.0
2,35.0,0,190,6.0,96.0
3,66.0,0,190,10.0,90.0
4,66.0,0,190,1.0,103.0
5,35.0,0,190,12.0,84.0
6,47.0,0,190,12.0,84.0
7,47.0,0,190,5.0,96.0
8,71.0,0,46,10.0,90.0
9,71.0,0,46,1.0,103.0
10,73.0,0,46,1.0,103.0
11,73.0,48,46,10.0,90.0
12,47.0,0,190,6.0,96.0
13,47.0,0,190,12.0,84.0
14,59.0,0,190,8.0,100.0
15,47.0,0,190,8.0,100.0
16,59.0,0,190,12.0,84.0
17,59.0,0,190,5.0,96.0
18,74.0,0,190,10.0,90.0
19,74.0,48,190,1.0,103.0
20,73.0,96,94,10.0,90.0
21,59.0,96,190,5.0,96.0
22,73.0,0,94,1.0,103.0
23,47.0,0,190,8.0,100.0
24,59.0,0,190,12.0,84.0
25,59.0,0,190,8.0,100.0
26,47.0,0,190,6.0,96.0
27,47.0,0,190,12.0,84.0
28,71.0,0,190,10.0,90.0
29,71.0,0,190,1.0,103.0
30,47.0,0,190,8.0,100.0
31,59.0,0,190,8.0,100.0
32,47.0,0,190,12.0,84.0
33,47.0,0,190,6.0,96.0
34,59.0,96,190,12.0,84.0
35,59.0,0,190,5.0,96.0
36,73.0,0,94,1.0,103.0
37,73.0,0,94,10.0,90.0
38,57.0,0,190,8.0,100.0
39,45.0,0,190,8.0,100.0
40,57.0,0,190,12.0,84.0
41,45.0,0,190,12.0,84.0
42,45.0,0,190,6.0,96.0
43,57.0,192,190,5.0,96.0
44,71.0,0,190,1.0,103.0
45,71.0,96,190,10.0,90.0
46,57.0,0,190,5.0,96.0
47,45.0,0,190,12.0,84.0
48,45.0,0,190,8.0,100.0
49,70.0,0,94,10.0,90.0
50,57.0,0,190,8.0,100.0
51,57.0,96,190,12.0,84.0
52,70.0,96,94,1.0,103.0
53,45.0,0,190,6.0,96.0
54,45.0,0,190,8.0,100.0
55,45.0,0,190,6.0,96.0
56,57.0,0,190,8.0,100.0
57,71.0,0,190,10.0,90.0
58,57.0,0,190,5.0,96.0
59,66.0,0,1150,7.0,100.0
60,45.0,0,190,12.0,84.0
61,71.0,96,190,1.0,103.0
62,57.0,0,190,12.0,84.0
63,66.0,0,1150,3.0,93.0
64,66.0,0,1150,11.0,84.0
65,55.0,0,190,5.0,96.0
66,43.0,0,190,6.0,96.0
67,43.0,0,190,8.0,100.0
68,55.0,0,190,12.0,84.0
69,43.0,0,190,12.0,84.0
70,55.0,192,190,8.0,100.0
71,55.0,192,190,12.0,84.0
72,43.0,0,190,8.0,100.0
73,43.0,0,190,6.0,96.0
74,55.0,0,190,5.0,96.0
75,43.0,0,190,12.0,84.0
76,55.0,0,190,8.0,100.0
77,62.0,0,1724,11.0,84.0
78,62.0,0,1724,4.0,96.0
79,62.0,0,1724,7.0,100.0
80,71.0,0,1726,2.0,96.0
81,67.0,0,574,7.0,100.0
82,67.0,0,574,11.0,84.0
83,67.0,0,574,3.0,93.0
84,71.0,0,1726,11.0,84.0
85,55.0,192,190,5.0,96.0
86,55.0,0,190,12.0,84.0
87,43.0,0,190,8.0,100.0
88,43.0,0,190,6.0,96.0
89,55.0,0,190,8.0,100.0
90,71.0,192,1726,7.0,100.0
91,43.0,0,190,12.0,84.0
92,42.0,0,190,12.0,84.0
93,54.0,0,190,8.0,100.0
94,42.0,0,190,6.0,96.0
95,54.0,0,190,5.0,96.0
96,42.0,0,190,8.0,100.0
97,54.0,0,190,12.0,84.0
98,42.0,192,190,6.0,96.0
99,54.0,0,190,12.0,84.0
100,71.0,0,958,1.0,103.0
101,71.0,0,958,10.0,90.0
102,54.0,0,190,8.0,100.0
103,42.0,0,190,12.0,84.0
104,54.0,0,190,5.0,96.0
105,42.0,0,190,8.0,100.0
106,66.0,192,572,11.0,84.0
107,66.0,0,572,7.0,100.0
108,66.0,0,572,4.0,96.0
109,54.0,0,190,5.0,96.0
110,71.0,0,190,1.0,103.0
111,75.0,0,574,11.0,84.0
112,69.0,0,574,7.0,100.0
113,42.0,0,190,6.0,96.0
114,42.0,0,190,8.0,100.0
115,54.0,0,190,8.0,100.0
116,69.0,0,574,11.0,84.0
117,71.0,0,190,10.0,90.0
118,54.0,0,190,12.0,84.0
119,75.0,0,574,7.0,100.0
120,75.0,0,574,2.0,96.0
121,69.0,0,574,3.0,93.0
122,42.0,192,190,12.0,84.0
123,52.0,0,190,8.0,100.0
124,40.0,192,190,8.0,100.0
125,40.0,0,190,12.0,84.0
126,52.0,0,190,5.0,96.0
127,40.0,0,190,6.0,96.0
128,52.0,0,190,12.0,84.0
129,79.0,0,286,1.0,103.0
130,79.0,0,286,10.0,90.0
131,78.0,0,46,1.0,103.0
132,78.0,96,46,10.0,90.0
133,52.0,0,190,8.0,100.0
134,79.0,48,46,10.0,90.0
135,40.0,192,190,6.0,96.0
136,52.0,0,190,5.0,96.0
137,79.0,0,46,1.0,103.0
138,40.0,0,190,12.0,84.0
139,52.0,0,190,12.0,84.0
140,40.0,0,190,8.0,100.0
141,59.0,0,572,7.0,100.0
142,59.0,0,572,11.0,84.0
143,59.0,0,572,4.0,96.0
144,52.0,0,190,8.0,100.0
145,40.0,0,190,6.0,96.0
146,40.0,0,190,8.0,100.0
147,76.0,0,574,2.0,96.0
148,40.0,0,190,12.0,84.0
149,52.0,0,190,12.0,84.0
150,76.0,0,574,11.0,84.0
151,52.0,48,190,5.0,96.0
152,76.0,0,574,7.0,100.0
153,42.0,0,190,12.0,84.0
154,54.0,0,190,5.0,96.0
155,54.0,0,190,12.0,84.0
156,54.0,0,190,8.0,100.0
157,42.0,0,190,8.0,100.0
158,42.0,192,190,6.0,96.0
159,81.0,0,478,1.0,103.0
160,81.0,0,478,10.0,90.0
161,42.0,0,190,6.0,96.0
162,42.0,0,190,12.0,84.0
163,54.0,192,190,12.0,84.0
164,79.0,96,94,10.0,90.0
165,54.0,0,190,5.0,96.0
166,42.0,0,190,8.0,100.0
167,54.0,0,190,8.0,100.0
168,79.0,0,94,1.0,103.0
169,57.0,0,572,4.0,96.0
170,57.0,0,572,7.0,100.0
171,57.0,0,572,11.0,84.0
172,78.0,0,190,10.0,90.0
173,78.0,0,190,1.0,103.0
174,54.0,0,190,12.0,84.0
175,42.0,96,190,12.0,84.0
176,42.0,0,190,6.0,96.0
177,54.0,0,190,8.0,100.0
178,54.0,0,190,5.0,96.0
179,42.0,0,190,8.0,100.0
180,75.0,0,574,11.0,84.0
181,75.0,0,574,2.0,96.0
182,75.0,0,574,7.0,100.0
183,78.0,0,94,10.0,90.0
184,78.0,0,94,1.0,103.0
185,55.0,0,190,8.0,100.0
186,43.0,0,190,8.0,100.0
187,55.0,0,190,5.0,96.0
188,43.0,0,190,6.0,96.0
189,43.0,0,190,12.0,84.0
190,55.0,0,190,12.0,84.0
191,52.0,0,190,8.0,100.0
192,40.0,0,190,6.0,96.0
193,52.0,0,190,5.0,96.0
194,40.0,0,190,12.0,84.0
195,52.0,96,190,12.0,84.0
196,40.0,0,190,8.0,100.0
197,55.0,0,572,7.0,100.0
198,55.0,192,572,4.0,96.0
199,55.0,0,572,11.0,84.0
200,43.0,0,190,8.0,100.0
201,55.0,0,190,12.0,84.0
202,43.0,0,190,12.0,84.0
203,55.0,0,190,8.0,100.0
204,43.0,0,190,6.0,96.0
205,55.0,192,190,5.0,96.0
206,47.0,192,190,8.0,100.0
207,59.0,0,190,8.0,100.0
208,59.0,0,190,5.0,96.0
209,59.0,0,190,12.0,84.0
210,47.0,0,190,6.0,96.0
211,47.0,0,190,12.0,84.0
212,76.0,0,766,1.0,103.0
213,76.0,96,766,10.0,90.0
214,79.0,96,94,10.0,90.0
215,43.0,0,190,6.0,96.0
216,55.0,0,190,5.0,96.0
217,43.0,0,190,8.0,100.0
218,79.0,0,94,1.0,103.0
219,55.0,0,190,8.0,100.0
220,55.0,0,190,12.0,84.0
221,43.0,192,190,12.0,84.0
222,67.0,0,572,4.0,96.0
223,67.0,0,572,7.0,100.0
224,67.0,0,572,11.0,84.0
225,47.0,0,190,6.0,96.0
226,76.0,0,190,10.0,90.0
227,76.0,0,190,1.0,103.0
228,71.0,0,2302,7.0,100.0
229,71.0,0,2302,3.0,93.0
230,59.0,0,190,5.0,96.0
231,76.0,0,1150,11.0,84.0
232,59.0,0,190,8.0,100.0
233,47.0,0,190,8.0,100.0
234,71.0,0,2302,11.0,84.0
235,59.0,0,190,12.0,84.0
236,47.0,96,190,12.0,84.0
237,76.0,0,1150,7.0,100.0
238,76.0,0,1150,2.0,96.0
239,74.0,0,94,10.0,90.0
240,74.0,0,94,1.0,103.0
241,52.0,192,190,6.0,96.0
242,52.0,0,190,8.0,100.0
243,64.0,0,190,8.0,100.0
244,64.0,0,190,5.0,96.0
245,52.0,0,190,12.0,84.0
246,64.0,0,190,12.0,84.0
247,72.0,0,190,10.0,90.0
248,72.0,96,190,1.0,103.0
249,52.0,0,190,8.0,100.0
250,79.0,96,94,1.0,103.0
251,52.0,0,190,12.0,84.0
252,64.0,0,190,12.0,84.0
253,52.0,0,190,6.0,96.0
254,64.0,96,190,5.0,96.0
255,64.0,0,190,8.0,100.0
256,79.0,0,94,10.0,90.0
257,72.0,0,572,7.0,100.0
258,72.0,0,572,4.0,96.0
259,72.0,0,572,11.0,84.0
260,76.0,96,190,1.0,103.0
261,52.0,0,190,8.0,100.0
262,76.0,0,190,10.0,90.0
263,52.0,0,190,12.0,84.0
264,64.0,0,190,5.0,96.0
265,52.0,0,190,6.0,96.0
266,64.0,0,190,8.0,100.0
267,64.0,0,190,12.0,84.0
268,72.0,192,94,1.0,103.0
269,72.0,0,94,10.0,90.0
270,50.0,0,190,8.0,100.0
271,62.0,0,190,5.0,96.0
272,62.0,0,190,12.0,84.0
273,50.0,0,190,12.0,84.0
274,62.0,0,190,8.0,100.0
275,50.0,0,190,6.0,96.0
276,71.0,96,190,1.0,103.0
277,71.0,0,190,10.0,90.0
278,50.0,0,190,12.0,84.0
279,62.0,0,190,12.0,84.0
280,79.0,0,94,10.0,90.0
281,62.0,0,190,5.0,96.0
282,79.0,96,94,1.0,103.0
283,50.0,0,190,6.0,96.0
284,50.0,0,190,8.0,100.0
285,62.0,96,190,8.0,100.0
286,71.0,0,572,11.0,84.0
287,71.0,0,572,7.0,100.0
288,71.0,0,572,4.0,96.0
289,50.0,0,190,8.0,100.0
290,62.0,0,190,8.0,100.0
291,76.0,0,190,1.0,103.0
292,62.0,0,190,5.0,96.0
293,50.0,0,190,12.0,84.0
294,50.0,96,190,6.0,96.0
295,62.0,0,190,12.0,84.0
296,76.0,0,190,10.0,90.0
297,71.0,0,94,10.0,90.0
298,71.0,0,94,1.0,103.0
299,49.0,0,190,6.0,96.0
300,61.0,0,190,12.0,84.0
301,49.0,0,190,12.0,84.0
302,61.0,0,190,8.0,100.0
303,49.0,192,190,8.0,100.0
304,61.0,0,190,5.0,96.0
305,70.0,0,190,1.0,103.0
306,70.0,96,190,10.0,90.0
307,76.0,96,46,10.0,90.0
308,76.0,0,46,1.0,103.0
309,49.0,96,190,6.0,96.0
310,61.0,0,190,12.0,84.0
311,61.0,0,190,8.0,100.0
312,49.0,0,190,12.0,84.0
313,49.0,0,190,8.0,100.0
314,78.0,48,46,10.0,90.0
315,61.0,0,190,5.0,96.0
316,78.0,0,46,1.0,103.0
317,70.0,0,572,11.0,84.0
318,70.0,0,572,4.0,96.0
319,70.0,0,572,7.0,100.0
320,79.0,0,1726,11.0,84.0
321,79.0,0,1726,7.0,100.0
322,79.0,0,1726,2.0,96.0
323,61.0,0,190,8.0,100.0
324,61.0,0,190,12.0,84.0
325,49.0,0,190,8.0,100.0
326,49.0,0,190,12.0,84.0
327,61.0,0,190,5.0,96.0
328,49.0,0,190,6.0,96.0
329,46.0,0,190,12.0,84.0
330,46.0,0,190,8.0,100.0
331,46.0,0,190,6.0,96.0
332,58.0,0,190,5.0,96.0
333,58.0,192,190,8.0,100.0
334,58.0,0,190,12.0,84.0
335,79.0,48,478,1.0,103.0
336,79.0,0,478,10.0,90.0
337,46.0,192,190,12.0,84.0
338,58.0,0,190,12.0,84.0
339,58.0,0,190,5.0,96.0
340,78.0,0,94,1.0,103.0
341,46.0,0,190,6.0,96.0
342,46.0,0,190,8.0,100.0
343,58.0,0,190,8.0,100.0
344,78.0,96,94,10.0,90.0
345,73.0,0,572,4.0,96.0
346,73.0,0,572,11.0,84.0
347,73.0,0,572,7.0,100.0
348,76.0,0,2302,7.0,100.0
349,46.0,0,190,6.0,96.0
350,76.0,0,2302,3.0,93.0
351,76.0,0,190,10.0,90.0
352,73.0,0,574,2.0,96.0
353,46.0,0,190,8.0,100.0
354,76.0,0,2302,11.0,84.0
355,58.0,0,190,12.0,84.0
356,46.0,0,190,12.0,84.0
357,76.0,0,190,1.0,103.0
358,58.0,96,190,5.0,96.0
359,58.0,0,190,8.0,100.0
360,74.0,0,22,1.0,103.0
361,74.0,0,22,10.0,90.0
362,76.0,24,22,10.0,90.0
363,76.0,0,22,1.0,103.0
364,74.0,24,22,1.0,103.0
365,74.0,0,22,10.0,90.0
366,76.0,24,22,1.0,103.0
367,76.0,0,22,10.0,90.0
368,74.0,0,22,1.0,103.0
369,74.0,24,22,10.0,90.0
370,76.0,0,22,1.0,103.0
371,76.0,24,22,10.0,90.0
372,74.0,24,22,10.0,90.0
373,74.0,0,22,1.0,103.0
374,59.0,0,190,12.0,84.0
375,47.0,0,190,12.0,84.0
376,76.0,24,22,10.0,90.0
377,47.0,0,190,6.0,96.0
378,76.0,0,22,1.0,103.0
379,59.0,0,190,5.0,96.0
380,47.0,0,190,8.0,100.0
381,59.0,0,190,8.0,100.0
382,74.0,24,22,1.0,103.0
383,74.0,0,22,10.0,90.0
384,76.0,0,22,1.0,103.0
385,76.0,24,22,10.0,90.0
386,74.0,24,22,1.0,103.0
387,74.0,0,22,10.0,90.0
388,76.0,24,22,1.0,103.0
389,76.0,0,22,10.0,90.0
390,73.0,24,46,10.0,90.0
391,73.0,0,46,1.0,103.0
392,59.0,0,190,5.0,96.0
393,74.0,0,46,1.0,103.0
394,74.0,48,46,10.0,90.0
395,47.0,0,190,6.0,96.0
396,59.0,0,190,8.0,100.0
397,47.0,0,190,8.0,100.0
398,47.0,0,190,12.0,84.0
399,59.0,0,190,12.0,84.0
400,66.0,0,572,4.0,96.0
401,66.0,0,572,7.0,100.0
402,66.0,0,572,11.0,84.0
403,59.0,48,190,5.0,96.0
404,74.0,0,574,7.0,100.0
405,59.0,0,190,8.0,100.0
406,47.0,0,190,6.0,96.0
407,74.0,0,574,11.0,84.0
408,47.0,0,190,12.0,84.0
409,59.0,0,190,12.0,84.0
410,74.0,192,574,2.0,96.0
411,47.0,0,190,8.0,100.0
412,74.0,0,574,3.0,93.0
413,43.0,0,190,6.0,96.0
414,43.0,0,190,12.0,84.0
415,55.0,0,190,5.0,96.0
416,55.0,0,190,12.0,84.0
417,43.0,0,190,8.0,100.0
418,55.0,0,190,8.0,100.0
419,76.0,0,478,1.0,103.0
420,76.0,0,478,10.0,90.0
421,74.0,96,94,10.0,90.0
422,55.0,0,190,12.0,84.0
423,43.0,0,190,12.0,84.0
424,55.0,192,190,8.0,100.0
425,43.0,0,190,8.0,100.0
426,74.0,0,94,1.0,103.0
427,43.0,0,190,6.0,96.0
428,55.0,0,190,5.0,96.0
429,67.0,0,572,4.0,96.0
430,67.0,0,572,11.0,84.0
431,67.0,0,572,7.0,100.0
432,73.0,0,190,10.0,90.0
433,71.0,192,574,3.0,93.0
434,55.0,0,190,12.0,84.0
435,76.0,0,574,11.0,84.0
436,71.0,0,574,11.0,84.0
437,76.0,0,574,2.0,96.0
438,55.0,0,190,5.0,96.0
439,76.0,0,574,7.0,100.0
440,73.0,0,190,1.0,103.0
441,71.0,0,574,7.0,100.0
442,43.0,0,190,6.0,96.0
443,55.0,96,190,8.0,100.0
444,43.0,0,190,8.0,100.0
445,43.0,0,190,12.0,84.0
446,71.0,0,94,1.0,103.0
447,71.0,0,94,10.0,90.0
448,54.0,0,190,12.0,84.0
449,42.0,0,190,6.0,96.0
450,54.0,0,190,8.0,100.0
451,54.0,192,190,5.0,96.0
452,42.0,0,190,12.0,84.0
453,42.0,0,190,8.0,100.0
454,37.0,0,190,8.0,100.0
455,37.0,0,190,12.0,84.0
456,49.0,96,190,8.0,100.0
457,49.0,0,190,5.0,96.0
458,49.0,0,190,12.0,84.0
459,37.0,0,190,6.0,96.0
460,52.0,0,190,8.0,100.0
461,40.0,0,190,8.0,100.0
462,40.0,192,190,12.0,84.0
463,52.0,0,190,12.0,84.0
464,40.0,0,190,6.0,96.0
465,52.0,0,190,5.0,96.0
466,52.0,0,190,12.0,84.0
467,40.0,0,190,8.0,100.0
468,40.0,192,190,12.0,84.0
469,52.0,0,190,8.0,100.0
470,40.0,0,190,6.0,96.0
471,52.0,0,190,5.0,96.0
472,70.0,0,766,1.0,103.0
473,70.0,96,766,10.0,90.0
474,61.0,0,956,4.0,96.0
475,61.0,0,956,11.0,84.0
476,61.0,0,956,7.0,100.0
477,78.0,0,958,2.0,96.0
478,46.0,0,190,8.0,100.0
479,34.0,0,190,8.0,100.0
480,66.0,0,94,10.0,90.0
481,66.0,96,94,1.0,103.0
482,34.0,0,190,12.0,84.0
483,70.0,0,958,3.0,93.0
484,78.0,0,958,7.0,100.0
485,70.0,0,958,7.0,100.0
486,70.0,0,958,11.0,84.0
487,78.0,0,958,11.0,84.0
488,46.0,192,190,5.0,96.0
489,46.0,0,190,12.0,84.0
490,34.0,0,190,6.0,96.0
491,70.0,0,94,10.0,90.0
492,70.0,0,94,1.0,103.0
493,73.0,96,94,1.0,103.0
494,49.0,0,190,5.0,96.0
495,73.0,0,94,10.0,90.0
496,37.0,96,190,12.0,84.0
497,49.0,0,190,12.0,84.0
498,37.0,0,190,6.0,96.0
499,49.0,0,190,8.0,100.0
500,37.0,0,190,8.0,100.0
501,76.0,96,92,1.0,103.0
502,76.0,0,92,10.0,90.0
503,74.0,0,92,1.0,103.0
504,74.0,96,92,10.0,90.0
505,70.0,0,380,2.0,96.0
506,70.0,0,380,7.0,100.0
507,70.0,0,380,11.0,84.0
508,73.0,0,188,10.0,90.0
509,66.0,0,380,3.0,93.0
510,66.0,0,380,11.0,84.0
511,61.0,0,380,11.0,84.0
512,61.0,0,380,7.0,100.0
513,66.0,0,380,7.0,100.0
514,61.0,0,380,4.0,96.0
515,73.0,96,188,1.0,103.0
516,62.0,0,380,7.0,100.0
517,30.0,0,764,8.0,100.0
518,30.0,0,764,12.0,84.0
519,42.0,0,764,8.0,100.0
520,62.0,192,380,11.0,84.0
521,71.0,0,380,2.0,96.0
522,62.0,0,380,4.0,96.0
523,71.0,0,380,1.0,103.0
524,71.0,0,380,7.0,100.0
525,68.0,0,380,7.0,100.0
526,42.0,0,764,12.0,84.0
527,68.0,0,380,11.0,84.0
528,42.0,0,764,5.0,96.0
529,71.0,0,380,10.0,90.0
530,71.0,0,380,11.0,84.0
531,30.0,0,764,6.0,96.0
532,68.0,0,380,3.0,93.0
533,70.0,0,188,1.0,103.0
534,70.0,0,188,10.0,90.0
535,71.0,0,60,1.0,103.0
536,71.0,192,60,10.0,90.0
537,73.0,0,380,11.0,84.0
538,73.0,0,380,2.0,96.0
539,64.0,384,380,4.0,96.0
540,73.0,0,380,7.0,100.0
541,70.0,0,380,11.0,84.0
542,70.0,0,380,7.0,100.0
543,64.0,0,380,7.0,100.0
544,70.0,0,380,3.0,93.0
545,64.0,0,380,11.0,84.0
546,73.0,0,92,1.0,103.0
547,73.0,0,92,10.0,90.0
548,71.0,96,92,1.0,103.0
549,71.0,0,92,10.0,90.0
550,54.0,0,380,4.0,96.0
551,54.0,168,380,7.0,100.0
552,54.0,0,380,11.0,84.0
553,73.0,0,380,11.0,84.0
554,73.0,0,380,2.0,96.0
555,70.0,24,380,11.0,84.0
556,70.0,96,188,1.0,103.0
557,70.0,0,188,10.0,90.0
558,70.0,0,380,3.0,93.0
559,73.0,0,380,7.0,100.0
560,70.0,0,380,7.0,100.0
561,54.0,0,380,7.0,100.0
562,54.0,168,380,4.0,96.0
563,54.0,0,380,11.0,84.0
564,74.0,0,380,11.0,84.0
565,71.0,24,380,3.0,93.0
566,67.0,0,380,10.0,90.0
567,74.0,0,380,7.0,100.0
568,74.0,0,380,2.0,96.0
569,67.0,0,380,1.0,103.0
570,71.0,0,380,11.0,84.0
571,71.0,0,380,7.0,100.0
572,66.0,24,188,1.0,103.0
573,66.0,0,188,10.0,90.0
574,54.0,360,380,4.0,96.0
575,54.0,0,380,7.0,100.0
576,54.0,0,380,11.0,84.0
577,67.0,192,188,10.0,90.0
578,73.0,0,380,3.0,93.0
579,67.0,0,188,1.0,103.0
580,76.0,0,380,7.0,100.0
581,73.0,0,380,11.0,84.0
582,76.0,0,380,11.0,84.0
583,76.0,0,380,2.0,96.0
584,73.0,0,380,7.0,100.0
585,67.0,0,92,10.0,90.0
586,67.0,192,92,1.0,103.0
587,66.0,0,92,10.0,90.0
588,66.0,96,92,1.0,103.0
589,42.0,0,380,12.0,84.0
590,30.0,0,380,12.0,84.0
591,64.0,96,188,1.0,103.0
592,30.0,0,380,6.0,96.0
593,30.0,0,380,8.0,100.0
594,42.0,0,380,8.0,100.0
595,64.0,0,188,10.0,90.0
596,42.0,0,380,5.0,96.0
597,42.0,192,380,5.0,96.0
598,30.0,0,380,6.0,96.0
599,30.0,0,380,8.0,100.0
600,42.0,0,380,12.0,84.0
601,30.0,0,380,12.0,84.0
602,42.0,0,380,8.0,100.0
603,70.0,0,572,10.0,90.0
604,70.0,0,572,1.0,103.0
605,67.0,0,92,10.0,90.0
606,67.0,192,92,1.0,103.0
607,66.0,96,92,1.0,103.0
608,66.0,0,92,10.0,90.0
609,30.0,0,380,12.0,84.0
610,42.0,0,380,12.0,84.0
611,30.0,0,380,8.0,100.0
612,30.0,0,380,6.0,96.0
613,42.0,0,380,8.0,100.0
614,42.0,384,380,5.0,96.0
615,67.0,96,92,1.0,103.0
616,67.0,0,92,10.0,90.0
617,66.0,0,92,10.0,90.0
618,66.0,96,92,1.0,103.0
619,64.0,0,188,1.0,103.0
620,42.0,0,380,5.0,96.0
621,30.0,0,380,12.0,84.0
622,64.0,96,188,10.0,90.0
623,30.0,0,380,6.0,96.0
624,30.0,0,380,8.0,100.0
625,42.0,0,380,8.0,100.0
626,42.0,0,380,12.0,84.0
627,76.0,0,1916,11.0,84.0
628,70.0,0,1916,7.0,100.0
629,73.0,0,1916,3.0,93.0
630,70.0,0,1916,11.0,84.0
631,73.0,0,1916,11.0,84.0
632,73.0,0,1916,7.0,100.0
633,70.0,0,1916,4.0,96.0
634,30.0,0,380,6.0,96.0
635,42.0,192,380,5.0,96.0
636,30.0,0,380,8.0,100.0
637,42.0,0,380,8.0,100.0
638,42.0,0,380,12.0,84.0
639,30.0,0,380,12.0,84.0
640,76.0,0,1916,7.0,100.0
641,76.0,0,1916,2.0,96.0
642,73.0,0,572,1.0,103.0
643,73.0,0,572,10.0,90.0
644,66.0,0,92,10.0,90.0
645,66.0,192,92,1.0,103.0
646,64.0,0,92,10.0,90.0
647,42.0,0,380,8.0,100.0
648,42.0,0,380,12.0,84.0
649,42.0,384,380,5.0,96.0
650,30.0,0,380,8.0,100.0
651,64.0,96,92,1.0,103.0
652,30.0,0,380,6.0,96.0
653,30.0,0,380,12.0,84.0
654,66.0,0,46,10.0,90.0
655,66.0,0,46,1.0,103.0
656,64.0,0,46,1.0,103.0
657,64.0,48,46,10.0,90.0
658,57.0,0,188,7.0,100.0
659,57.0,0,188,11.0,84.0
660,57.0,0,188,4.0,96.0
661,66.0,0,190,7.0,100.0
662,63.0,0,190,7.0,100.0
663,63.0,48,94,10.0,90.0
664,66.0,96,190,2.0,96.0
665,63.0,0,190,3.0,93.0
666,66.0,0,190,11.0,84.0
667,63.0,0,94,1.0,103.0
668,63.0,0,190,11.0,84.0
669,55.0,0,188,4.0,96.0
670,55.0,0,188,11.0,84.0
671,55.0,0,188,7.0,100.0
672,47.0,0,382,12.0,84.0
673,35.0,0,382,12.0,84.0
674,35.0,0,382,6.0,96.0
675,47.0,0,382,8.0,100.0
676,67.0,0,190,11.0,84.0
677,67.0,0,190,2.0,96.0
678,47.0,0,382,5.0,96.0
679,35.0,0,382,8.0,100.0
680,64.0,96,190,11.0,84.0
681,64.0,0,190,7.0,100.0
682,60.0,0,190,10.0,90.0
683,60.0,0,190,1.0,103.0
684,67.0,0,190,7.0,100.0
685,64.0,0,190,3.0,93.0
686,59.0,0,94,1.0,103.0
687,59.0,0,94,10.0,90.0
688,69.0,0,46,10.0,90.0
689,69.0,96,46,1.0,103.0
690,54.0,0,188,4.0,96.0
691,54.0,0,188,11.0,84.0
692,54.0,0,188,7.0,100.0
693,67.0,48,46,10.0,90.0
694,69.0,0,190,11.0,84.0
695,66.0,0,190,11.0,84.0
696,69.0,192,190,7.0,100.0
697,66.0,0,190,7.0,100.0
698,67.0,0,46,1.0,103.0
699,66.0,0,190,3.0,93.0
700,69.0,0,190,2.0,96.0
701,69.0,0,46,10.0,90.0
702,69.0,0,46,1.0,103.0
703,67.0,48,46,1.0,103.0
704,67.0,0,46,10.0,90.0
705,59.0,0,188,4.0,96.0
706,59.0,0,188,7.0,100.0
707,59.0,0,188,11.0,84.0
708,63.0,0,190,7.0,100.0
709,66.0,0,190,2.0,96.0
710,63.0,0,190,11.0,84.0
711,66.0,0,190,11.0,84.0
712,66.0,48,94,1.0,103.0
713,66.0,0,94,10.0,90.0
714,63.0,0,190,3.0,93.0
715,66.0,48,190,7.0,100.0
716,59.0,0,188,11.0,84.0
717,59.0,96,188,4.0,96.0
718,59.0,0,188,7.0,100.0
719,67.0,0,190,2.0,96.0
720,64.0,0,190,7.0,100.0
721,64.0,0,190,11.0,84.0
722,64.0,0,190,10.0,90.0
723,64.0,0,190,1.0,103.0
724,64.0,0,190,3.0,93.0
725,67.0,0,190,7.0,100.0
726,67.0,0,190,11.0,84.0
727,63.0,0,94,10.0,90.0
728,63.0,0,94,1.0,103.0
729,72.0,96,46,10.0,90.0
730,72.0,0,46,1.0,103.0
731,59.0,0,188,7.0,100.0
732,59.0,192,188,4.0,96.0
733,59.0,0,188,11.0,84.0
734,66.0,0,190,11.0,84.0
735,71.0,0,46,1.0,103.0
736,71.0,48,46,10.0,90.0
737,66.0,0,190,3.0,93.0
738,69.0,0,190,2.0,96.0
739,69.0,0,190,7.0,100.0
740,66.0,0,190,7.0,100.0
741,69.0,0,190,11.0,84.0
742,72.0,0,46,1.0,103.0
743,72.0,0,46,10.0,90.0
744,71.0,0,46,1.0,103.0
745,71.0,48,46,10.0,90.0
746,69.0,0,94,10.0,90.0
747,69.0,48,94,1.0,103.0
748,47.0,0,190,5.0,96.0
749,35.0,0,190,6.0,96.0
750,35.0,0,190,8.0,100.0
751,47.0,0,190,8.0,100.0
752,35.0,0,190,12.0,84.0
753,47.0,0,190,12.0,84.0
754,35.0,0,190,6.0,96.0
755,47.0,0,190,5.0,96.0
756,47.0,96,190,12.0,84.0
757,67.0,0,190,10.0,90.0
758,67.0,0,190,1.0,103.0
759,35.0,0,190,8.0,100.0
760,35.0,0,190,12.0,84.0
761,47.0,0,190,8.0,100.0
762,66.0,0,94,1.0,103.0
763,66.0,192,94,10.0,90.0
764,78.0,96,46,1.0,103.0
765,78.0,0,46,10.0,90.0
766,47.0,0,190,5.0,96.0
767,76.0,0,46,1.0,103.0
768,35.0,0,190,8.0,100.0
769,35.0,0,190,6.0,96.0
770,47.0,0,190,8.0,100.0
771,76.0,48,46,10.0,90.0
772,35.0,0,190,12.0,84.0
773,47.0,0,190,12.0,84.0
774,78.0,0,46,10.0,90.0
775,78.0,0,46,1.0,103.0
776,76.0,48,46,10.0,90.0
777,76.0,0,46,1.0,103.0
778,35.0,0,190,12.0,84.0
779,35.0,0,190,6.0,96.0
780,35.0,0,190,8.0,100.0
781,75.0,48,94,10.0,90.0
782,75.0,0,94,1.0,103.0
783,47.0,0,190,8.0,100.0
784,47.0,48,190,5.0,96.0
785,47.0,0,190,12.0,84.0
786,63.0,0,956,4.0,96.0
787,63.0,0,956,7.0,100.0
788,63.0,48,956,11.0,84.0
789,66.0,0,958,3.0,93.0
790,35.0,0,190,8.0,100.0
791,47.0,0,190,8.0,100.0
792,47.0,0,190,12.0,84.0
793,72.0,96,190,1.0,103.0
794,69.0,0,958,7.0,100.0
795,47.0,0,190,5.0,96.0
796,69.0,0,958,2.0,96.0
797,35.0,0,190,6.0,96.0
798,35.0,0,190,12.0,84.0
799,72.0,0,190,10.0,90.0
800,66.0,0,958,7.0,100.0
801,69.0,0,958,11.0,84.0
802,66.0,0,958,11.0,84.0
803,71.0,0,94,10.0,90.0
804,71.0,0,94,1.0,103.0
805,78.0,0,94,1.0,103.0
806,78.0,96,94,10.0,90.0
807,47.0,0,190,5.0,96.0
808,47.0,0,190,12.0,84.0
809,47.0,0,190,8.0,100.0
810,35.0,0,190,8.0,100.0
811,35.0,0,190,12.0,84.0
812,35.0,192,190,6.0,96.0
813,79.0,0,46,10.0,90.0
814,79.0,0,46,1.0,103.0
815,81.0,0,46,10.0,90.0
816,81.0,48,46,1.0,103.0
817,40.0,0,190,8.0,100.0
818,40.0,0,190,5.0,96.0
819,28.0,0,190,8.0,100.0
820,40.0,0,190,12.0,84.0
821,28.0,0,190,12.0,84.0
822,28.0,0,190,6.0,96.0
823,83.0,0,190,1.0,103.0
824,83.0,48,190,10.0,90.0
825,81.0,96,46,1.0,103.0
826,81.0,0,46,10.0,90.0
827,28.0,0,190,6.0,96.0
828,79.0,48,46,1.0,103.0
829,28.0,0,190,12.0,84.0
830,79.0,0,46,10.0,90.0
831,40.0,0,190,12.0,84.0
832,28.0,0,190,8.0,100.0
833,40.0,96,190,8.0,100.0
834,40.0,0,190,5.0,96.0
835,81.0,0,46,10.0,90.0
836,81.0,0,46,1.0,103.0
837,79.0,0,46,1.0,103.0
838,79.0,48,46,10.0,90.0
839,59.0,96,572,11.0,84.0
840,59.0,0,572,4.0,96.0
841,59.0,0,572,7.0,100.0
842,40.0,0,190,12.0,84.0
843,28.0,0,190,12.0,84.0
844,64.0,0,574,7.0,100.0
845,64.0,0,574,11.0,84.0
846,28.0,48,190,8.0,100.0
847,40.0,0,190,8.0,100.0
848,67.0,0,574,7.0,100.0
849,28.0,0,190,6.0,96.0
850,40.0,0,190,5.0,96.0
851,67.0,0,574,11.0,84.0
852,78.0,0,94,10.0,90.0
853,67.0,0,574,2.0,96.0
854,64.0,0,574,3.0,93.0
855,78.0,48,94,1.0,103.0
856,76.0,0,46,1.0,103.0
857,76.0,0,46,10.0,90.0
858,78.0,0,46,10.0,90.0
859,78.0,48,46,1.0,103.0
860,28.0,0,190,8.0,100.0
861,40.0,0,190,5.0,96.0
862,40.0,0,190,8.0,100.0
863,40.0,0,190,12.0,84.0
864,28.0,0,190,12.0,84.0
865,28.0,96,190,6.0,96.0
866,79.0,48,190,10.0,90.0
867,79.0,0,190,1.0,103.0
868,78.0,0,46,1.0,103.0
869,78.0,96,46,10.0,90.0
870,40.0,0,190,12.0,84.0
871,40.0,0,190,8.0,100.0
872,28.0,0,190,12.0,84.0
873,76.0,48,46,10.0,90.0
874,28.0,96,190,8.0,100.0
875,40.0,0,190,5.0,96.0
876,76.0,0,46,1.0,103.0
877,28.0,0,190,6.0,96.0
878,78.0,0,46,10.0,90.0
879,78.0,0,46,1.0,103.0
880,76.0,0,46,1.0,103.0
881,76.0,48,46,10.0,90.0
882,64.0,0,572,4.0,96.0
883,64.0,0,572,7.0,100.0
884,64.0,0,572,11.0,84.0
885,71.0,0,574,11.0,84.0
886,40.0,48,190,8.0,100.0
887,28.0,0,190,8.0,100.0
888,28.0,0,190,12.0,84.0
889,67.0,0,574,7.0,100.0
890,40.0,0,190,5.0,96.0
891,71.0,0,574,7.0,100.0
892,40.0,0,190,12.0,84.0
893,67.0,0,574,3.0,93.0
894,74.0,48,94,1.0,103.0
895,74.0,0,94,10.0,90.0
896,28.0,0,190,6.0,96.0
897,71.0,0,574,2.0,96.0
898,67.0,0,574,11.0,84.0
899,72.0,0,46,10.0,90.0
900,72.0,0,46,1.0,103.0
901,74.0,0,46,1.0,103.0
902,74.0,48,46,10.0,90.0
903,28.0,0,190,6.0,96.0
904,40.0,0,190,12.0,84.0
905,28.0,0,190,12.0,84.0
906,40.0,0,190,5.0,96.0
907,40.0,0,190,8.0,100.0
908,28.0,0,190,8.0,100.0
909,76.0,48,190,10.0,90.0
910,76.0,0,190,1.0,103.0
911,74.0,0,46,1.0,103.0
912,74.0,96,46,10.0,90.0
913,28.0,0,190,6.0,96.0
914,28.0,0,190,12.0,84.0
915,40.0,96,190,5.0,96.0
916,72.0,0,46,10.0,90.0
917,40.0,0,190,12.0,84.0
918,72.0,48,46,1.0,103.0
919,28.0,0,190,8.0,100.0
920,40.0,0,190,8.0,100.0
921,74.0,0,46,10.0,90.0
922,74.0,0,46,1.0,103.0
923,72.0,48,46,1.0,103.0
924,72.0,0,46,10.0,90.0
925,67.0,0,572,7.0,100.0
926,67.0,0,572,11.0,84.0
927,67.0,0,572,4.0,96.0
928,71.0,48,94,1.0,103.0
929,76.0,0,574,7.0,100.0
930,72.0,0,574,7.0,100.0
931,72.0,0,574,3.0,93.0
932,76.0,0,574,2.0,96.0
933,28.0,0,190,8.0,100.0
934,40.0,0,190,8.0,100.0
935,40.0,0,190,5.0,96.0
936,76.0,0,574,11.0,84.0
937,40.0,0,190,12.0,84.0
938,72.0,96,574,11.0,84.0
939,71.0,0,94,10.0,90.0
940,28.0,0,190,6.0,96.0
941,28.0,48,190,12.0,84.0
942,70.0,0,46,1.0,103.0
943,70.0,0,46,10.0,90.0
944,71.0,48,46,1.0,103.0
945,71.0,0,46,10.0,90.0
946,61.0,0,188,4.0,96.0
947,61.0,0,188,11.0,84.0
948,61.0,0,188,7.0,100.0
949,40.0,0,190,12.0,84.0
950,76.0,0,190,11.0,84.0
951,79.0,0,190,11.0,84.0
952,40.0,0,190,5.0,96.0
953,28.0,96,190,12.0,84.0
954,79.0,0,190,2.0,96.0
955,28.0,0,190,8.0,100.0
956,28.0,0,190,6.0,96.0
957,76.0,0,190,3.0,93.0
958,76.0,0,190,7.0,100.0
959,40.0,0,190,8.0,100.0
960,79.0,0,190,7.0,100.0
961,73.0,0,190,10.0,90.0
962,73.0,48,190,1.0,103.0
963,71.0,0,46,1.0,103.0
964,71.0,96,46,10.0,90.0
965,40.0,0,190,12.0,84.0
966,40.0,0,190,8.0,100.0
967,28.0,0,190,8.0,100.0
968,28.0,0,190,12.0,84.0
969,40.0,0,190,5.0,96.0
970,70.0,0,46,1.0,103.0
971,28.0,0,190,6.0,96.0
972,70.0,48,46,10.0,90.0
973,71.0,0,46,1.0,103.0
974,71.0,0,46,10.0,90.0
975,70.0,0,46,10.0,90.0
976,70.0,48,46,1.0,103.0
977,70.0,0,380,4.0,96.0
978,70.0,0,380,11.0,84.0
979,70.0,96,380,7.0,100.0
980,68.0,0,94,10.0,90.0
981,73.0,0,382,7.0,100.0
982,68.0,48,94,1.0,103.0
983,73.0,0,382,11.0,84.0
984,52.0,0,190,12.0,84.0
985,40.0,48,190,8.0,100.0
986,52.0,0,190,8.0,100.0
987,40.0,0,190,6.0,96.0
988,40.0,0,190,12.0,84.0
989,73.0,0,382,3.0,93.0
990,52.0,0,190,5.0,96.0
991,71.0,0,188,4.0,96.0
992,71.0,0,188,11.0,84.0
993,71.0,0,188,7.0,100.0
994,78.0,0,574,2.0,96.0
995,38.0,0,190,12.0,84.0
996,50.0,0,190,12.0,84.0
997,50.0,0,190,5.0,96.0
998,78.0,0,574,11.0,84.0
999,38.0,0,190,6.0,96.0
1000,74.0,0,190,11.0,84.0
1001,38.0,0,190,8.0,100.0
1002,50.0,0,190,8.0,100.0
1003,74.0,0,190,3.0,93.0
1004,74.0,0,190,7.0,100.0
1005,78.0,0,574,7.0,100.0
1006,66.0,0,286,1.0,103.0
1007,66.0,96,286,10.0,90.0
1008,68.0,0,46,1.0,103.0
1009,68.0,96,46,10.0,90.0
1010,64.0,0,188,11.0,84.0
1011,64.0,0,188,7.0,100.0
1012,64.0,0,188,4.0,96.0
1013,69.0,0,190,7.0,100.0
1014,49.0,0,190,8.0,100.0
1015,70.0,0,46,1.0,103.0
1016,76.0,0,190,2.0,96.0
1017,37.0,0,190,6.0,96.0
1018,69.0,0,190,3.0,93.0
1019,49.0,0,190,5.0,96.0
1020,76.0,0,190,7.0,100.0
1021,70.0,48,46,10.0,90.0
1022,37.0,192,190,12.0,84.0
1023,37.0,0,190,8.0,100.0
1024,69.0,0,190,11.0,84.0
1025,76.0,0,190,11.0,84.0
1026,49.0,0,190,12.0,84.0
1027,71.0,0,46,1.0,103.0
1028,71.0,0,46,10.0,90.0
1029,73.0,48,46,10.0,90.0
1030,73.0,0,46,1.0,103.0
1031,74.0,0,46,10.0,90.0
1032,74.0,48,46,1.0,103.0
1033,66.0,0,188,4.0,96.0
1034,66.0,0,188,7.0,100.0
1035,66.0,0,188,11.0,84.0
1036,47.0,0,190,5.0,96.0
1037,73.0,48,46,1.0,103.0
1038,74.0,0,190,2.0,96.0
1039,74.0,0,190,11.0,84.0
1040,47.0,0,190,12.0,84.0
1041,74.0,0,190,7.0,100.0
1042,35.0,0,190,12.0,84.0
1043,35.0,0,190,6.0,96.0
1044,35.0,48,190,8.0,100.0
1045,73.0,0,46,10.0,90.0
1046,47.0,0,190,8.0,100.0
1047,76.0,0,128,10.0,90.0
1048,76.0,0,128,7.0,100.0
1049,61.0,0,128,7.0,100.0
1050,61.0,0,128,4.0,96.0
1051,76.0,0,128,2.0,96.0
1052,76.0,0,128,1.0,103.0
1053,76.0,48,128,11.0,84.0
1054,61.0,0,128,11.0,84.0
1055,71.0,0,382,7.0,100.0
1056,42.0,0,190,6.0,96.0
1057,42.0,0,190,12.0,84.0
1058,54.0,0,190,5.0,96.0
1059,42.0,0,190,8.0,100.0
1060,54.0,0,190,8.0,100.0
1061,71.0,0,382,3.0,93.0
1062,71.0,0,382,11.0,84.0
1063,54.0,0,190,12.0,84.0
1064,71.0,0,128,11.0,84.0
1065,71.0,0,128,3.0,93.0
1066,62.0,0,128,4.0,96.0
1067,62.0,0,128,7.0,100.0
1068,62.0,0,128,11.0,84.0
1069,74.0,0,128,7.0,100.0
1070,74.0,0,128,10.0,90.0
1071,74.0,0,128,2.0,96.0
1072,74.0,0,128,1.0,103.0
1073,71.0,0,128,7.0,100.0
1074,74.0,0,128,11.0,84.0
1075,42.0,0,190,12.0,84.0
1076,30.0,0,190,12.0,84.0
1077,30.0,0,190,6.0,96.0
1078,42.0,0,190,8.0,100.0
1079,30.0,0,190,8.0,100.0
1080,42.0,192,190,5.0,96.0
1081,74.0,0,44,10.0,90.0
1082,74.0,0,44,1.0,103.0
1083,73.0,0,20,1.0,103.0
1084,73.0,48,20,10.0,90.0
1085,74.0,0,20,1.0,103.0
1086,74.0,24,20,10.0,90.0
1087,73.0,24,20,10.0,90.0
1088,73.0,0,20,1.0,103.0
1089,69.0,0,128,11.0,84.0
1090,73.0,0,128,2.0,96.0
1091,64.0,192,128,4.0,96.0
1092,64.0,0,128,11.0,84.0
1093,69.0,0,128,7.0,100.0
1094,73.0,0,128,7.0,100.0
1095,69.0,0,128,3.0,93.0
1096,73.0,0,128,11.0,84.0
1097,64.0,0,128,7.0,100.0
1098,74.0,24,20,1.0,103.0
1099,74.0,0,20,10.0,90.0
1100,73.0,0,44,10.0,90.0
1101,73.0,24,44,1.0,103.0
1102,30.0,0,190,6.0,96.0
1103,30.0,0,190,12.0,84.0
1104,42.0,0,190,12.0,84.0
1105,42.0,0,190,8.0,100.0
1106,30.0,0,190,8.0,100.0
1107,42.0,0,190,5.0,96.0
1108,62.0,0,188,11.0,84.0
1109,62.0,0,188,7.0,100.0
1110,62.0,0,188,4.0,96.0
1111,66.0,0,190,3.0,93.0
1112,71.0,0,190,11.0,84.0
1113,66.0,0,190,11.0,84.0
1114,66.0,0,190,7.0,100.0
1115,71.0,0,190,2.0,96.0
1116,71.0,0,190,7.0,100.0
1117,64.0,0,188,4.0,96.0
1118,64.0,0,188,11.0,84.0
1119,64.0,0,188,7.0,100.0
1120,69.0,0,190,11.0,84.0
1121,73.0,0,190,11.0,84.0
1122,73.0,0,190,7.0,100.0
1123,73.0,192,190,2.0,96.0
1124,69.0,0,190,3.0,93.0
1125,69.0,0,190,7.0,100.0
1126,66.0,192,188,4.0,96.0
1127,66.0,0,188,11.0,84.0
1128,66.0,0,188,7.0,100.0
1129,71.0,0,190,7.0,100.0
1130,71.0,0,190,3.0,93.0
1131,74.0,0,190,11.0,84.0
1132,74.0,0,190,7.0,100.0
1133,74.0,0,190,2.0,96.0
1134,71.0,0,190,11.0,84.0
1135,64.0,0,188,7.0,100.0
1136,64.0,0,188,11.0,84.0
1137,64.0,0,188,4.0,96.0
1138,69.0,192,190,11.0,84.0
1139,73.0,0,190,2.0,96.0
1140,69.0,0,190,3.0,93.0
1141,69.0,0,190,7.0,100.0
1142,73.0,0,190,7.0,100.0
1143,73.0,0,190,11.0,84.0
1144,66.0,0,188,11.0,84.0
1145,71.0,0,956,1.0,103.0
1146,66.0,0,188,4.0,96.0
1147,66.0,0,188,7.0,100.0
1148,71.0,0,956,10.0,90.0
1149,74.0,192,190,2.0,96.0
1150,71.0,0,190,3.0,93.0
1151,47.0,0,958,5.0,96.0
1152,35.0,48,958,12.0,84.0
1153,74.0,0,190,11.0,84.0
1154,35.0,0,958,6.0,96.0
1155,71.0,0,190,11.0,84.0
1156,74.0,0,190,7.0,100.0
1157,47.0,0,958,12.0,84.0
1158,71.0,0,190,7.0,100.0
1159,35.0,0,958,8.0,100.0
1160,47.0,0,958,8.0,100.0
1161,58.0,0,188,11.0,84.0
1162,58.0,0,188,4.0,96.0
1163,58.0,0,188,7.0,100.0
1164,76.0,192,190,11.0,84.0
1165,73.0,0,190,11.0,84.0
1166,47.0,0,190,12.0,84.0
1167,76.0,0,190,7.0,100.0
1168,76.0,0,190,2.0,96.0
1169,47.0,0,190,5.0,96.0
1170,35.0,0,190,8.0,100.0
1171,66.0,96,94,0.0,125.0
1172,47.0,0,190,8.0,100.0
1173,73.0,0,190,3.0,93.0
1174,35.0,0,190,6.0,96.0
1175,35.0,0,190,12.0,84.0
1176,73.0,0,190,7.0,100.0
1177,59.0,0,188,8.0,100.0
1178,59.0,0,188,5.0,96.0
1179,47.0,96,188,12.0,84.0
1180,59.0,0,188,12.0,84.0
1181,47.0,0,188,6.0,96.0
1182,47.0,0,188,8.0,100.0
1183,74.0,0,284,0.0,125.0
1184,47.0,0,188,8.0,100.0
1185,59.0,0,188,8.0,100.0
1186,73.0,96,92,0.0,125.0
1187,59.0,192,188,5.0,96.0
1188,47.0,0,188,12.0,84.0
1189,59.0,0,188,12.0,84.0
1190,47.0,0,188,6.0,96.0
1191,59.0,0,188,8.0,100.0
1192,47.0,0,188,8.0,100.0
1193,47.0,0,188,6.0,96.0
1194,59.0,0,188,5.0,96.0
1195,59.0,96,188,12.0,84.0
1196,47.0,0,188,12.0,84.0
1197,57.0,0,188,5.0,96.0
1198,45.0,192,188,12.0,84.0
1199,57.0,0,188,8.0,100.0
1200,45.0,0,188,6.0,96.0
1201,57.0,0,188,12.0,84.0
1202,45.0,0,188,8.0,100.0
1203,71.0,0,476,0.0,125.0
1204,57.0,0,188,12.0,84.0
1205,45.0,0,188,12.0,84.0
1206,57.0,0,188,5.0,96.0
1207,45.0,192,188,8.0,100.0
1208,57.0,0,188,8.0,100.0
1209,70.0,96,92,0.0,125.0
1210,45.0,0,188,6.0,96.0
1211,57.0,0,188,8.0,100.0
1212,45.0,0,188,8.0,100.0
1213,57.0,0,188,12.0,84.0
1214,66.0,0,1148,4.0,96.0
1215,57.0,0,188,5.0,96.0
1216,71.0,0,188,0.0,125.0
1217,45.0,0,188,12.0,84.0
1218,66.0,0,1148,11.0,84.0
1219,45.0,96,188,6.0,96.0
1220,66.0,0,1148,7.0,100.0
1221,55.0,0,188,8.0,100.0
1222,43.0,0,188,8.0,100.0
1223,43.0,192,188,6.0,96.0
1224,43.0,0,188,12.0,84.0
1225,55.0,0,188,12.0,84.0
1226,55.0,0,188,5.0,96.0
1227,55.0,0,188,5.0,96.0
1228,43.0,0,188,8.0,100.0
1229,55.0,0,188,8.0,100.0
1230,55.0,0,188,12.0,84.0
1231,43.0,0,188,12.0,84.0
1232,43.0,192,188,6.0,96.0
1233,71.0,0,1724,11.0,84.0
1234,67.0,0,572,11.0,84.0
1235,74.0,0,1724,11.0,84.0
1236,55.0,0,188,8.0,100.0
1237,71.0,0,1724,7.0,100.0
1238,74.0,0,1724,2.0,96.0
1239,55.0,0,188,12.0,84.0
1240,43.0,0,188,12.0,84.0
1241,74.0,0,1724,7.0,100.0
1242,71.0,0,1724,3.0,93.0
1243,67.0,0,572,7.0,100.0
1244,43.0,0,188,6.0,96.0
1245,67.0,0,572,4.0,96.0
1246,43.0,192,188,8.0,100.0
1247,55.0,0,188,5.0,96.0
1248,42.0,0,188,6.0,96.0
1249,54.0,0,188,12.0,84.0
1250,54.0,192,188,5.0,96.0
1251,42.0,0,188,12.0,84.0
1252,42.0,0,188,8.0,100.0
1253,54.0,0,188,8.0,100.0
1254,54.0,192,188,8.0,100.0
1255,42.0,0,188,8.0,100.0
1256,42.0,0,188,6.0,96.0
1257,54.0,0,188,5.0,96.0
1258,42.0,0,188,12.0,84.0
1259,54.0,0,188,12.0,84.0
1260,75.0,0,572,7.0,100.0
1261,69.0,0,572,3.0,93.0
1262,69.0,0,572,11.0,84.0
1263,69.0,0,572,4.0,96.0
1264,75.0,0,572,2.0,96.0
1265,54.0,0,188,12.0,84.0
1266,75.0,0,572,11.0,84.0
1267,42.0,0,188,8.0,100.0
1268,54.0,0,188,5.0,96.0
1269,42.0,0,188,6.0,96.0
1270,69.0,0,572,7.0,100.0
1271,54.0,192,188,8.0,100.0
1272,42.0,0,188,12.0,84.0
1273,76.0,0,44,1.0,103.0
1274,76.0,0,44,10.0,90.0
1275,78.0,48,44,10.0,90.0
1276,78.0,0,44,1.0,103.0
1277,52.0,0,188,12.0,84.0
1278,40.0,0,188,12.0,84.0
1279,52.0,0,188,5.0,96.0
1280,40.0,0,188,8.0,100.0
1281,52.0,0,188,8.0,100.0
1282,40.0,192,188,6.0,96.0
1283,79.0,0,188,1.0,103.0
1284,79.0,48,188,10.0,90.0
1285,78.0,96,44,1.0,103.0
1286,78.0,0,44,10.0,90.0
1287,79.0,48,44,1.0,103.0
1288,52.0,0,188,12.0,84.0
1289,40.0,0,188,12.0,84.0
1290,40.0,0,188,8.0,100.0
1291,52.0,0,188,5.0,96.0
1292,52.0,96,188,8.0,100.0
1293,40.0,0,188,6.0,96.0
1294,79.0,0,44,10.0,90.0
1295,71.0,0,1532,0.0,125.0
1296,40.0,0,188,6.0,96.0
1297,40.0,0,188,8.0,100.0
1298,76.0,0,572,11.0,84.0
1299,76.0,0,572,2.0,96.0
1300,71.0,0,572,3.0,93.0
1301,76.0,0,572,7.0,100.0
1302,71.0,0,572,7.0,100.0
1303,71.0,0,572,11.0,84.0
1304,52.0,48,188,8.0,100.0
1305,67.0,0,572,11.0,84.0
1306,64.0,0,188,0.0,125.0
1307,40.0,0,188,12.0,84.0
1308,67.0,0,572,4.0,96.0
1309,52.0,0,188,12.0,84.0
1310,52.0,0,188,5.0,96.0
1311,67.0,0,572,7.0,100.0
1312,52.0,0,188,5.0,96.0
1313,40.0,0,188,6.0,96.0
1314,64.0,0,188,0.0,125.0
1315,52.0,0,188,12.0,84.0
1316,52.0,0,188,8.0,100.0
1317,40.0,0,188,8.0,100.0
1318,40.0,0,188,12.0,84.0
1319,81.0,0,476,10.0,90.0
1320,81.0,0,476,1.0,103.0
1321,52.0,0,188,5.0,96.0
1322,40.0,192,188,6.0,96.0
1323,79.0,96,92,1.0,103.0
1324,79.0,0,92,10.0,90.0
1325,52.0,0,188,8.0,100.0
1326,52.0,0,188,12.0,84.0
1327,40.0,0,188,8.0,100.0
1328,63.0,0,188,0.0,125.0
1329,40.0,0,188,12.0,84.0
1330,72.0,0,572,7.0,100.0
1331,72.0,0,572,11.0,84.0
1332,52.0,0,188,8.0,100.0
1333,40.0,0,188,6.0,96.0
1334,40.0,0,188,8.0,100.0
1335,40.0,0,188,12.0,84.0
1336,69.0,0,188,0.0,125.0
1337,52.0,0,188,5.0,96.0
1338,52.0,0,188,12.0,84.0
1339,66.0,192,572,11.0,84.0
1340,69.0,0,572,11.0,84.0
1341,72.0,0,572,2.0,96.0
1342,78.0,96,188,10.0,90.0
1343,78.0,0,188,1.0,103.0
1344,69.0,0,572,3.0,93.0
1345,66.0,0,572,4.0,96.0
1346,66.0,0,572,7.0,100.0
1347,69.0,0,572,7.0,100.0
1348,78.0,0,92,10.0,90.0
1349,78.0,0,92,1.0,103.0
1350,52.0,192,188,12.0,84.0
1351,40.0,0,188,6.0,96.0
1352,40.0,0,188,12.0,84.0
1353,40.0,0,188,8.0,100.0
1354,52.0,0,188,5.0,96.0
1355,52.0,0,188,8.0,100.0
1356,40.0,0,188,8.0,100.0
1357,52.0,0,188,12.0,84.0
1358,40.0,96,188,12.0,84.0
1359,52.0,0,188,8.0,100.0
1360,67.0,0,380,0.0,125.0
1361,40.0,0,188,6.0,96.0
1362,52.0,0,188,5.0,96.0
1363,71.0,0,572,2.0,96.0
1364,71.0,0,572,11.0,84.0
1365,64.0,0,188,0.0,125.0
1366,40.0,0,188,6.0,96.0
1367,71.0,0,572,7.0,100.0
1368,40.0,192,188,8.0,100.0
1369,52.0,0,188,5.0,96.0
1370,40.0,0,188,12.0,84.0
1371,52.0,0,188,12.0,84.0
1372,52.0,0,188,8.0,100.0
1373,40.0,0,188,8.0,100.0
1374,52.0,0,188,8.0,100.0
1375,52.0,0,188,5.0,96.0
1376,40.0,0,188,12.0,84.0
1377,52.0,192,188,12.0,84.0
1378,40.0,0,188,6.0,96.0
1379,76.0,0,812,1.0,103.0
1380,76.0,96,812,10.0,90.0
1381,52.0,0,188,12.0,84.0
1382,52.0,0,188,8.0,100.0
1383,79.0,0,92,10.0,90.0
1384,40.0,0,188,12.0,84.0
1385,67.0,0,380,0.0,125.0
1386,79.0,96,92,1.0,103.0
1387,52.0,0,188,5.0,96.0
1388,40.0,192,188,8.0,100.0
1389,40.0,0,188,6.0,96.0
1390,40.0,0,188,12.0,84.0
1391,71.0,0,188,0.0,125.0
1392,52.0,0,188,12.0,84.0
1393,52.0,0,188,5.0,96.0
1394,76.0,0,572,2.0,96.0
1395,40.0,96,188,6.0,96.0
1396,40.0,0,188,8.0,100.0
1397,52.0,0,188,8.0,100.0
1398,67.0,0,1148,11.0,84.0
1399,67.0,0,1148,7.0,100.0
1400,76.0,0,188,1.0,103.0
1401,71.0,0,1148,3.0,93.0
1402,67.0,0,1148,4.0,96.0
1403,76.0,0,188,10.0,90.0
1404,76.0,0,572,7.0,100.0
1405,76.0,0,572,11.0,84.0
1406,74.0,0,92,10.0,90.0
1407,74.0,192,92,1.0,103.0
1408,52.0,0,188,5.0,96.0
1409,40.0,0,188,6.0,96.0
1410,52.0,0,188,12.0,84.0
1411,40.0,0,188,12.0,84.0
1412,40.0,0,188,8.0,100.0
1413,52.0,0,188,8.0,100.0
1414,72.0,0,188,10.0,90.0
1415,72.0,96,188,1.0,103.0
1416,40.0,0,188,12.0,84.0
1417,52.0,0,188,12.0,84.0
1418,52.0,0,188,8.0,100.0
1419,40.0,0,188,8.0,100.0
1420,72.0,0,380,0.0,125.0
1421,52.0,0,188,5.0,96.0
1422,79.0,0,92,10.0,90.0
1423,40.0,96,188,6.0,96.0
1424,79.0,96,92,1.0,103.0
1425,76.0,0,188,1.0,103.0
1426,40.0,96,188,8.0,100.0
1427,76.0,0,188,10.0,90.0
1428,71.0,0,188,0.0,125.0
1429,52.0,0,188,8.0,100.0
1430,40.0,0,188,6.0,96.0
1431,52.0,0,188,12.0,84.0
1432,40.0,0,188,12.0,84.0
1433,52.0,0,188,5.0,96.0
1434,72.0,0,92,1.0,103.0
1435,72.0,192,92,10.0,90.0
1436,38.0,0,188,12.0,84.0
1437,50.0,0,188,5.0,96.0
1438,50.0,0,188,8.0,100.0
1439,38.0,0,188,8.0,100.0
1440,50.0,0,188,12.0,84.0
1441,38.0,0,188,6.0,96.0
1442,71.0,0,188,10.0,90.0
1443,71.0,96,188,1.0,103.0
1444,50.0,0,188,5.0,96.0
1445,38.0,0,188,6.0,96.0
1446,79.0,96,92,1.0,103.0
1447,38.0,0,188,8.0,100.0
1448,71.0,0,380,0.0,125.0
1449,79.0,0,92,10.0,90.0
1450,38.0,96,188,12.0,84.0
1451,50.0,0,188,12.0,84.0
1452,50.0,0,188,8.0,100.0
1453,50.0,0,188,12.0,84.0
1454,76.0,0,188,10.0,90.0
1455,76.0,0,188,1.0,103.0
1456,38.0,0,188,6.0,96.0
1457,50.0,0,188,8.0,100.0
1458,38.0,0,188,8.0,100.0
1459,50.0,96,188,5.0,96.0
1460,70.0,0,188,0.0,125.0
1461,38.0,0,188,12.0,84.0
1462,71.0,0,92,1.0,103.0
1463,71.0,0,92,10.0,90.0
1464,37.0,0,188,6.0,96.0
1465,49.0,0,188,12.0,84.0
1466,49.0,0,188,8.0,100.0
1467,37.0,0,188,8.0,100.0
1468,37.0,0,188,12.0,84.0
1469,49.0,192,188,5.0,96.0
1470,70.0,0,188,1.0,103.0
1471,70.0,96,188,10.0,90.0
1472,76.0,96,44,10.0,90.0
1473,76.0,0,44,1.0,103.0
1474,49.0,0,188,8.0,100.0
1475,37.0,0,188,8.0,100.0
1476,78.0,0,44,10.0,90.0
1477,37.0,0,188,6.0,96.0
1478,78.0,48,44,1.0,103.0
1479,49.0,96,188,12.0,84.0
1480,70.0,0,380,0.0,125.0
1481,37.0,0,188,12.0,84.0
1482,49.0,0,188,5.0,96.0
1483,37.0,0,188,8.0,100.0
1484,37.0,0,188,12.0,84.0
1485,64.0,0,1724,4.0,96.0
1486,64.0,0,1724,7.0,100.0
1487,49.0,0,188,5.0,96.0
1488,71.0,0,188,0.0,125.0
1489,37.0,0,188,6.0,96.0
1490,64.0,0,1724,11.0,84.0
1491,79.0,0,1724,7.0,100.0
1492,79.0,0,1724,2.0,96.0
1493,49.0,0,188,8.0,100.0
1494,79.0,0,1724,11.0,84.0
1495,49.0,48,188,12.0,84.0
1496,34.0,0,188,8.0,100.0
1497,46.0,0,188,5.0,96.0
1498,46.0,0,188,8.0,100.0
1499,34.0,0,188,6.0,96.0
1500,46.0,0,188,12.0,84.0
1501,34.0,0,188,12.0,84.0
1502,79.0,0,476,10.0,90.0
1503,79.0,0,476,1.0,103.0
1504,46.0,0,188,8.0,100.0
1505,34.0,0,188,8.0,100.0
1506,34.0,192,188,12.0,84.0
1507,78.0,0,92,10.0,90.0
1508,46.0,0,188,12.0,84.0
1509,78.0,96,92,1.0,103.0
1510,34.0,0,188,6.0,96.0
1511,46.0,0,188,5.0,96.0
1512,73.0,0,572,7.0,100.0
1513,76.0,0,2300,7.0,100.0
1514,76.0,0,188,1.0,103.0
1515,58.0,0,572,7.0,100.0
1516,58.0,0,572,11.0,84.0
1517,76.0,0,2300,11.0,84.0
1518,58.0,0,572,4.0,96.0
1519,34.0,0,188,12.0,84.0
1520,76.0,0,188,10.0,90.0
1521,73.0,0,572,2.0,96.0
1522,76.0,0,2300,3.0,93.0
1523,46.0,0,188,5.0,96.0
1524,73.0,0,572,11.0,84.0
1525,46.0,0,188,8.0,100.0
1526,34.0,96,188,8.0,100.0
1527,34.0,0,188,6.0,96.0
1528,46.0,0,188,12.0,84.0
1529,76.0,0,92,1.0,103.0
1530,76.0,0,92,10.0,90.0
1531,35.0,0,188,8.0,100.0
1532,47.0,192,188,8.0,100.0
1533,35.0,0,188,6.0,96.0
1534,47.0,0,188,5.0,96.0
1535,47.0,0,188,12.0,84.0
1536,35.0,0,188,12.0,84.0
1537,74.0,96,188,1.0,103.0
1538,74.0,0,188,10.0,90.0
1539,73.0,192,860,0.0,125.0
1540,73.0,0,44,1.0,103.0
1541,73.0,0,44,10.0,90.0
1542,35.0,0,188,12.0,84.0
1543,74.0,48,44,10.0,90.0
1544,47.0,0,188,5.0,96.0
1545,35.0,0,188,8.0,100.0
1546,35.0,0,188,6.0,96.0
1547,74.0,0,44,1.0,103.0
1548,70.0,96,92,0.0,125.0
1549,47.0,96,188,12.0,84.0
1550,47.0,0,188,8.0,100.0
1551,74.0,0,572,3.0,93.0
1552,35.0,0,188,6.0,96.0
1553,71.0,0,188,0.0,125.0
1554,74.0,0,572,7.0,100.0
1555,66.0,0,572,7.0,100.0
1556,35.0,0,188,12.0,84.0
1557,47.0,0,188,8.0,100.0
1558,35.0,0,188,8.0,100.0
1559,66.0,0,572,4.0,96.0
1560,74.0,0,572,11.0,84.0
1561,74.0,0,572,2.0,96.0
1562,47.0,0,188,5.0,96.0
1563,47.0,0,188,12.0,84.0
1564,66.0,0,572,11.0,84.0
1565,73.0,0,92,0.0,125.0
1566,31.0,192,188,8.0,100.0
1567,43.0,0,188,5.0,96.0
1568,43.0,0,188,8.0,100.0
1569,31.0,0,188,6.0,96.0
1570,74.0,96,92,0.0,125.0
1571,31.0,0,188,12.0,84.0
1572,43.0,0,188,12.0,84.0
1573,76.0,0,476,10.0,90.0
1574,76.0,48,476,1.0,103.0
1575,31.0,0,188,8.0,100.0
1576,43.0,96,188,5.0,96.0
1577,31.0,0,188,6.0,96.0
1578,43.0,0,188,8.0,100.0
1579,76.0,0,188,0.0,125.0
1580,74.0,0,92,10.0,90.0
1581,74.0,96,92,1.0,103.0
1582,31.0,0,188,12.0,84.0
1583,43.0,0,188,12.0,84.0
1584,67.0,0,572,4.0,96.0
1585,67.0,0,572,11.0,84.0
1586,73.0,0,188,10.0,90.0
1587,73.0,0,188,1.0,103.0
1588,43.0,0,188,8.0,100.0
1589,31.0,0,188,8.0,100.0
1590,71.0,0,572,11.0,84.0
1591,76.0,0,572,11.0,84.0
1592,31.0,0,188,12.0,84.0
1593,71.0,0,572,3.0,93.0
1594,31.0,0,188,6.0,96.0
1595,43.0,96,188,5.0,96.0
1596,67.0,0,572,7.0,100.0
1597,71.0,0,572,7.0,100.0
1598,76.0,0,572,7.0,100.0
1599,43.0,0,188,12.0,84.0
1600,73.0,0,188,0.0,125.0
1601,76.0,0,572,2.0,96.0
1602,71.0,0,92,1.0,103.0
1603,71.0,0,92,10.0,90.0
1604,70.0,0,188,3.0,93.0
1605,70.0,0,188,11.0,84.0
1606,70.0,0,188,7.0,100.0
1607,61.0,0,188,7.0,100.0
1608,61.0,0,188,11.0,84.0
1609,61.0,0,188,4.0,96.0
1610,70.0,0,380,0.0,125.0
1611,62.0,0,188,4.0,96.0
1612,62.0,96,188,7.0,100.0
1613,42.0,0,380,12.0,84.0
1614,71.0,0,188,7.0,100.0
1615,42.0,192,380,5.0,96.0
1616,30.0,0,380,8.0,100.0
1617,71.0,0,188,11.0,84.0
1618,42.0,0,380,8.0,100.0
1619,30.0,0,380,6.0,96.0
1620,62.0,0,188,11.0,84.0
1621,30.0,0,380,12.0,84.0
1622,71.0,0,188,3.0,93.0
1623,64.0,0,188,4.0,96.0
1624,68.0,0,188,0.0,125.0
1625,64.0,0,188,11.0,84.0
1626,73.0,192,188,11.0,84.0
1627,73.0,0,188,3.0,93.0
1628,73.0,0,188,7.0,100.0
1629,64.0,0,188,7.0,100.0
1630,61.0,0,188,3.0,93.0
1631,61.0,0,188,7.0,100.0
1632,58.0,0,188,7.0,100.0
1633,58.0,0,188,11.0,84.0
1634,61.0,0,188,11.0,84.0
1635,58.0,192,188,4.0,96.0
1636,78.0,0,956,2.0,96.0
1637,59.0,0,188,11.0,84.0
1638,62.0,0,188,11.0,84.0
1639,70.0,96,860,1.0,103.0
1640,62.0,0,188,7.0,100.0
1641,78.0,0,956,7.0,100.0
1642,70.0,0,860,10.0,90.0
1643,66.0,0,380,0.0,125.0
1644,59.0,0,188,7.0,100.0
1645,78.0,0,956,11.0,84.0
1646,59.0,0,188,4.0,96.0
1647,62.0,192,188,3.0,93.0
1648,61.0,0,188,11.0,84.0
1649,64.0,0,188,0.0,125.0
1650,70.0,0,188,11.0,84.0
1651,64.0,0,188,3.0,93.0
1652,64.0,0,188,7.0,100.0
1653,70.0,0,188,7.0,100.0
1654,70.0,192,188,2.0,96.0
1655,61.0,0,188,4.0,96.0
1656,64.0,0,188,11.0,84.0
1657,61.0,0,188,7.0,100.0
1658,69.0,0,44,7.0,100.0
1659,69.0,0,44,11.0,84.0
1660,69.0,0,44,2.0,96.0
1661,71.0,0,44,11.0,84.0
1662,71.0,0,44,2.0,96.0
1663,71.0,48,44,7.0,100.0
1664,59.0,0,188,4.0,96.0
1665,63.0,0,188,0.0,125.0
1666,66.0,0,188,11.0,84.0
1667,59.0,192,188,7.0,100.0
1668,66.0,0,188,7.0,100.0
1669,59.0,0,188,11.0,84.0
1670,66.0,0,188,3.0,93.0
1671,66.0,0,92,0.0,125.0
1672,59.0,0,188,7.0,100.0
1673,66.0,0,188,7.0,100.0
1674,72.0,48,284,7.0,100.0
1675,66.0,96,188,11.0,84.0
1676,71.0,0,92,11.0,84.0
1677,35.0,0,380,6.0,96.0
1678,59.0,0,188,11.0,84.0
1679,72.0,0,284,11.0,84.0
1680,59.0,0,188,4.0,96.0
1681,71.0,96,92,7.0,100.0
1682,66.0,0,188,3.0,93.0
1683,71.0,0,92,2.0,96.0
1684,72.0,0,284,2.0,96.0
1685,69.0,0,92,0.0,125.0
1686,47.0,0,380,5.0,96.0
1687,35.0,0,380,12.0,84.0
1688,47.0,0,380,8.0,100.0
1689,35.0,0,380,8.0,100.0
1690,47.0,0,380,12.0,84.0
1691,66.0,96,188,3.0,93.0
1692,69.0,0,188,2.0,96.0
1693,69.0,0,188,11.0,84.0
1694,59.0,0,188,4.0,96.0
1695,66.0,0,188,11.0,84.0
1696,59.0,0,188,11.0,84.0
1697,59.0,0,188,7.0,100.0
1698,66.0,0,188,7.0,100.0
1699,69.0,0,188,7.0,100.0
1700,66.0,0,188,3.0,93.0
1701,59.0,192,188,4.0,96.0
1702,59.0,0,188,11.0,84.0
1703,66.0,0,188,11.0,84.0
1704,59.0,0,188,7.0,100.0
1705,66.0,0,188,7.0,100.0
1706,75.0,0,284,7.0,100.0
1707,75.0,0,284,2.0,96.0
1708,75.0,0,284,11.0,84.0
1709,72.0,0,476,0.0,125.0
1710,71.0,96,92,0.0,125.0
1711,59.0,0,188,4.0,96.0
1712,76.0,0,92,7.0,100.0
1713,66.0,0,188,11.0,84.0
1714,76.0,0,92,11.0,84.0
1715,66.0,0,188,7.0,100.0
1716,59.0,0,188,7.0,100.0
1717,76.0,0,92,2.0,96.0
1718,66.0,0,188,3.0,93.0
1719,59.0,192,188,11.0,84.0
1720,59.0,0,188,4.0,96.0
1721,78.0,0,188,2.0,96.0
1722,59.0,0,188,7.0,100.0
1723,66.0,0,188,11.0,84.0
1724,66.0,0,188,7.0,100.0
1725,66.0,96,188,3.0,93.0
1726,69.0,0,188,0.0,125.0
1727,78.0,0,188,11.0,84.0
1728,59.0,0,188,11.0,84.0
1729,78.0,0,188,7.0,100.0
1730,69.0,0,92,0.0,125.0
1731,59.0,0,128,11.0,84.0
1732,67.0,0,128,11.0,84.0
1733,67.0,0,128,3.0,93.0
1734,59.0,0,128,4.0,96.0
1735,67.0,0,128,7.0,100.0
1736,59.0,0,128,7.0,100.0
1737,78.0,0,188,2.0,96.0
1738,78.0,0,188,11.0,84.0
1739,78.0,0,188,7.0,100.0
1740,67.0,0,188,7.0,100.0
1741,40.0,192,380,8.0,100.0
1742,52.0,0,380,8.0,100.0
1743,40.0,0,380,6.0,96.0
1744,67.0,96,188,3.0,93.0
1745,76.0,96,92,10.0,90.0
1746,76.0,0,92,1.0,103.0
1747,59.0,0,188,4.0,96.0
1748,59.0,0,188,11.0,84.0
1749,59.0,0,188,7.0,100.0
1750,67.0,0,188,11.0,84.0
1751,40.0,0,380,12.0,84.0
1752,52.0,0,380,12.0,84.0
1753,52.0,0,380,5.0,96.0
1754,57.0,0,188,7.0,100.0
1755,71.0,0,188,10.0,90.0
1756,71.0,0,188,1.0,103.0
1757,66.0,0,188,7.0,100.0
1758,57.0,0,188,4.0,96.0
1759,66.0,0,188,3.0,93.0
1760,66.0,96,188,11.0,84.0
1761,57.0,0,188,11.0,84.0
1762,69.0,0,92,10.0,90.0
1763,69.0,0,92,1.0,103.0
1764,67.0,0,188,11.0,84.0
1765,67.0,192,188,3.0,93.0
1766,59.0,0,188,7.0,100.0
1767,67.0,0,188,7.0,100.0
1768,59.0,0,188,11.0,84.0
1769,59.0,0,188,4.0,96.0
1770,61.0,96,188,4.0,96.0
1771,70.0,0,188,7.0,100.0
1772,76.0,0,764,7.0,100.0
1773,70.0,0,188,3.0,93.0
1774,67.0,96,860,0.0,125.0
1775,76.0,0,764,2.0,96.0
1776,61.0,0,188,7.0,100.0
1777,61.0,0,188,11.0,84.0
1778,70.0,0,188,11.0,84.0
1779,76.0,0,764,11.0,84.0
1780,67.0,96,380,1.0,103.0
1781,67.0,0,380,10.0,90.0
1782,71.0,0,188,11.0,84.0
1783,66.0,0,188,0.0,125.0
1784,62.0,0,188,11.0,84.0
1785,71.0,0,188,7.0,100.0
1786,71.0,0,188,3.0,93.0
1787,62.0,0,188,4.0,96.0
1788,71.0,0,188,2.0,96.0
1789,62.0,0,188,7.0,100.0
1790,71.0,0,44,7.0,100.0
1791,71.0,0,44,2.0,96.0
1792,71.0,0,44,11.0,84.0
1793,73.0,48,44,2.0,96.0
1794,73.0,0,44,11.0,84.0
1795,73.0,0,44,7.0,100.0
1796,68.0,0,188,3.0,93.0
1797,61.0,0,188,7.0,100.0
1798,68.0,192,188,7.0,100.0
1799,68.0,0,188,11.0,84.0
1800,61.0,0,188,4.0,96.0
1801,65.0,0,188,0.0,125.0
1802,61.0,0,188,11.0,84.0
1803,68.0,0,92,0.0,125.0
1804,68.0,0,188,3.0,93.0
1805,74.0,48,284,7.0,100.0
1806,61.0,0,188,4.0,96.0
1807,68.0,96,188,11.0,84.0
1808,73.0,0,92,11.0,84.0
1809,49.0,0,380,8.0,100.0
1810,37.0,0,380,8.0,100.0
1811,61.0,0,188,11.0,84.0
1812,49.0,0,380,12.0,84.0
1813,68.0,0,188,7.0,100.0
1814,74.0,0,284,11.0,84.0
1815,37.0,0,380,6.0,96.0
1816,37.0,0,380,12.0,84.0
1817,73.0,0,92,2.0,96.0
1818,71.0,0,92,0.0,125.0
1819,49.0,0,380,5.0,96.0
1820,73.0,96,92,7.0,100.0
1821,61.0,0,188,7.0,100.0
1822,74.0,0,284,2.0,96.0
1823,71.0,0,188,2.0,96.0
1824,71.0,0,188,11.0,84.0
1825,68.0,0,188,11.0,84.0
1826,61.0,0,188,4.0,96.0
1827,61.0,0,188,7.0,100.0
1828,68.0,0,188,7.0,100.0
1829,71.0,0,188,7.0,100.0
1830,68.0,96,188,3.0,93.0
1831,61.0,0,188,11.0,84.0
1832,61.0,0,188,4.0,96.0
1833,68.0,0,188,11.0,84.0
1834,61.0,0,188,11.0,84.0
1835,61.0,192,188,7.0,100.0
1836,68.0,0,188,7.0,100.0
1837,68.0,0,188,3.0,93.0
1838,74.0,0,476,0.0,125.0
1839,77.0,0,284,11.0,84.0
1840,77.0,0,284,2.0,96.0
1841,77.0,0,284,7.0,100.0
1842,68.0,0,188,3.0,93.0
1843,78.0,0,92,7.0,100.0
1844,78.0,96,92,11.0,84.0
1845,68.0,0,188,7.0,100.0
1846,61.0,0,188,7.0,100.0
1847,73.0,0,92,0.0,125.0
1848,78.0,0,92,2.0,96.0
1849,61.0,0,188,4.0,96.0
1850,61.0,192,188,11.0,84.0
1851,68.0,0,188,11.0,84.0
1852,68.0,0,188,3.0,93.0
1853,80.0,0,188,2.0,96.0
1854,61.0,0,188,7.0,100.0
1855,61.0,0,188,11.0,84.0
1856,61.0,0,188,4.0,96.0
1857,80.0,0,188,11.0,84.0
1858,71.0,96,188,0.0,125.0
1859,80.0,0,188,7.0,100.0
1860,68.0,0,188,7.0,100.0
1861,68.0,0,188,11.0,84.0
1862,61.0,0,188,4.0,96.0
1863,80.0,0,188,11.0,84.0
1864,69.0,0,188,11.0,84.0
1865,61.0,0,188,11.0,84.0
1866,80.0,192,188,7.0,100.0
1867,69.0,0,188,3.0,93.0
1868,80.0,0,188,2.0,96.0
1869,61.0,0,188,7.0,100.0
1870,69.0,0,188,7.0,100.0
1871,57.0,0,188,11.0,84.0
1872,78.0,96,92,1.0,103.0
1873,78.0,0,92,10.0,90.0
1874,69.0,0,380,0.0,125.0
1875,54.0,0,380,12.0,84.0
1876,42.0,0,380,12.0,84.0
1877,54.0,0,380,8.0,100.0
1878,54.0,0,380,5.0,96.0
1879,66.0,0,188,3.0,93.0
1880,66.0,192,188,11.0,84.0
1881,42.0,0,380,8.0,100.0
1882,66.0,0,188,7.0,100.0
1883,57.0,0,188,4.0,96.0
1884,42.0,0,380,6.0,96.0
1885,57.0,0,188,7.0,100.0
1886,65.0,0,128,3.0,93.0
1887,59.0,0,128,7.0,100.0
1888,65.0,0,128,7.0,100.0
1889,65.0,0,128,11.0,84.0
1890,59.0,0,128,11.0,84.0
1891,59.0,0,128,4.0,96.0
1892,73.0,0,188,10.0,90.0
1893,73.0,96,188,1.0,103.0
1894,68.0,0,188,0.0,125.0
1895,71.0,0,92,10.0,90.0
1896,71.0,0,92,1.0,103.0
1897,61.0,0,188,4.0,96.0
1898,61.0,0,188,7.0,100.0
1899,66.0,0,188,11.0,84.0
1900,61.0,0,188,11.0,84.0
1901,66.0,0,188,7.0,100.0
1902,66.0,192,188,3.0,93.0
1903,69.0,0,284,0.0,125.0
1904,69.0,0,188,11.0,84.0
1905,69.0,0,188,4.0,96.0
1906,78.0,0,188,7.0,100.0
1907,78.0,0,188,11.0,84.0
1908,69.0,96,188,7.0,100.0
1909,78.0,0,188,3.0,93.0
1910,69.0,0,284,1.0,103.0
1911,73.0,96,92,0.0,125.0
1912,69.0,96,284,10.0,90.0
1913,78.0,0,764,2.0,96.0
1914,68.0,0,128,7.0,100.0
1915,68.0,0,128,11.0,84.0
1916,77.0,0,128,11.0,84.0
1917,68.0,0,128,4.0,96.0
1918,77.0,0,128,7.0,100.0
1919,77.0,0,128,3.0,93.0
1920,73.0,0,188,10.0,90.0
1921,71.0,96,188,0.0,125.0
1922,73.0,0,188,1.0,103.0
1923,78.0,0,44,10.0,90.0
1924,78.0,0,44,1.0,103.0
1925,80.0,0,44,10.0,90.0
1926,80.0,48,44,1.0,103.0
1927,42.0,0,188,12.0,84.0
1928,42.0,0,188,6.0,96.0
1929,42.0,0,188,8.0,100.0
1930,54.0,0,188,5.0,96.0
1931,54.0,0,188,8.0,100.0
1932,54.0,0,188,12.0,84.0
1933,81.0,0,188,1.0,103.0
1934,81.0,48,188,10.0,90.0
1935,42.0,0,188,12.0,84.0
1936,54.0,0,188,12.0,84.0
1937,54.0,0,188,8.0,100.0
1938,42.0,96,188,8.0,100.0
1939,54.0,0,188,5.0,96.0
1940,80.0,0,92,10.0,90.0
1941,80.0,96,92,1.0,103.0
1942,42.0,0,188,6.0,96.0
1943,42.0,96,188,8.0,100.0
1944,78.0,0,188,10.0,90.0
1945,54.0,0,188,8.0,100.0
1946,54.0,0,188,5.0,96.0
1947,54.0,0,188,12.0,84.0
1948,42.0,0,188,6.0,96.0
1949,78.0,0,188,1.0,103.0
1950,42.0,0,188,12.0,84.0
1951,80.0,0,92,10.0,90.0
1952,80.0,0,92,1.0,103.0
1953,52.0,0,188,5.0,96.0
1954,40.0,0,188,6.0,96.0
1955,40.0,0,188,8.0,100.0
1956,52.0,0,188,8.0,100.0
1957,52.0,0,188,12.0,84.0
1958,40.0,192,188,12.0,84.0
1959,78.0,96,188,10.0,90.0
1960,78.0,0,188,1.0,103.0
1961,77.0,0,92,10.0,90.0
1962,77.0,96,92,1.0,103.0
1963,40.0,0,188,8.0,100.0
1964,52.0,0,188,8.0,100.0
1965,52.0,0,188,5.0,96.0
1966,40.0,96,188,12.0,84.0
1967,52.0,0,188,12.0,84.0
1968,40.0,0,188,6.0,96.0
1969,73.0,0,1148,2.0,96.0
1970,52.0,0,188,5.0,96.0
1971,78.0,0,188,1.0,103.0
1972,73.0,0,1148,7.0,100.0
1973,40.0,0,188,8.0,100.0
1974,52.0,0,188,8.0,100.0
1975,40.0,96,188,6.0,96.0
1976,52.0,0,188,12.0,84.0
1977,73.0,0,1148,11.0,84.0
1978,40.0,0,188,12.0,84.0
1979,78.0,0,188,10.0,90.0
1980,50.0,0,188,12.0,84.0
1981,50.0,192,188,5.0,96.0
1982,69.0,0,1340,11.0,84.0
1983,38.0,0,188,12.0,84.0
1984,50.0,0,188,8.0,100.0
1985,38.0,0,188,6.0,96.0
1986,69.0,0,1340,4.0,96.0
1987,38.0,0,188,8.0,100.0
1988,69.0,0,1340,7.0,100.0
1989,73.0,192,1436,0.0,125.0
1990,50.0,0,188,5.0,96.0
1991,50.0,0,188,8.0,100.0
1992,38.0,0,188,8.0,100.0
1993,38.0,0,188,12.0,84.0
1994,50.0,0,188,12.0,84.0
1995,68.0,0,188,11.0,84.0
1996,68.0,0,188,7.0,100.0
1997,71.0,96,92,0.0,125.0
1998,68.0,192,188,4.0,96.0
1999,38.0,0,188,6.0,96.0
2000,74.0,0,572,2.0,96.0
2001,38.0,0,188,6.0,96.0
2002,38.0,0,188,12.0,84.0
2003,66.0,0,188,7.0,100.0
2004,50.0,0,188,12.0,84.0
2005,66.0,0,188,4.0,96.0
2006,74.0,0,572,7.0,100.0
2007,50.0,0,188,8.0,100.0
2008,78.0,0,1724,7.0,100.0
2009,78.0,0,1724,11.0,84.0
2010,74.0,0,572,11.0,84.0
2011,66.0,0,188,11.0,84.0
2012,50.0,0,188,5.0,96.0
2013,38.0,96,188,8.0,100.0
2014,78.0,0,1724,3.0,93.0
2015,64.0,0,188,4.0,96.0
2016,37.0,192,188,8.0,100.0
2017,49.0,0,188,8.0,100.0
2018,49.0,0,188,5.0,96.0
2019,64.0,0,188,7.0,100.0
2020,37.0,0,188,12.0,84.0
2021,49.0,0,188,12.0,84.0
2022,37.0,0,188,6.0,96.0
2023,64.0,0,188,11.0,84.0
2024,70.0,0,476,0.0,125.0
2025,62.0,0,188,7.0,100.0
2026,71.0,96,92,0.0,125.0
2027,62.0,192,188,11.0,84.0
2028,37.0,0,188,6.0,96.0
2029,49.0,0,188,12.0,84.0
2030,62.0,0,188,4.0,96.0
2031,37.0,0,188,12.0,84.0
2032,49.0,0,188,8.0,100.0
2033,49.0,0,188,5.0,96.0
2034,37.0,0,188,8.0,100.0
2035,49.0,0,188,8.0,100.0
2036,61.0,0,188,4.0,96.0
2037,73.0,0,188,0.0,125.0
2038,70.0,0,572,11.0,84.0
2039,76.0,0,572,11.0,84.0
2040,49.0,0,188,12.0,84.0
2041,37.0,0,188,12.0,84.0
2042,37.0,0,188,8.0,100.0
2043,61.0,0,188,11.0,84.0
2044,37.0,96,188,6.0,96.0
2045,76.0,0,572,2.0,96.0
2046,49.0,0,188,5.0,96.0
2047,76.0,0,572,7.0,100.0
2048,70.0,0,572,7.0,100.0
2049,61.0,0,188,7.0,100.0
2050,70.0,0,572,3.0,93.0
2051,47.0,0,188,12.0,84.0
2052,35.0,0,188,6.0,96.0
2053,47.0,0,188,8.0,100.0
2054,47.0,0,188,5.0,96.0
2055,35.0,0,188,8.0,100.0
2056,35.0,0,188,12.0,84.0
2057,74.0,0,284,0.0,125.0
2058,73.0,96,44,0.0,125.0
2059,35.0,0,188,8.0,100.0
2060,47.0,0,188,8.0,100.0
2061,74.0,48,44,0.0,125.0
2062,78.0,0,1532,10.0,90.0
2063,47.0,0,188,12.0,84.0
2064,35.0,0,188,12.0,84.0
2065,47.0,0,188,5.0,96.0
2066,35.0,192,188,6.0,96.0
2067,78.0,0,1532,1.0,103.0
2068,35.0,0,188,6.0,96.0
2069,74.0,192,572,2.0,96.0
2070,35.0,0,188,12.0,84.0
2071,47.0,48,188,12.0,84.0
2072,47.0,0,188,5.0,96.0
2073,71.0,0,188,10.0,90.0
2074,35.0,0,188,8.0,100.0
2075,74.0,0,572,7.0,100.0
2076,71.0,0,572,11.0,84.0
2077,71.0,0,572,3.0,93.0
2078,71.0,0,188,1.0,103.0
2079,47.0,0,188,8.0,100.0
2080,71.0,0,572,7.0,100.0
2081,74.0,0,572,11.0,84.0
2082,71.0,0,188,10.0,90.0
2083,71.0,0,188,1.0,103.0
2084,37.0,0,188,12.0,84.0
2085,49.0,0,188,5.0,96.0
2086,37.0,0,188,8.0,100.0
2087,49.0,0,188,8.0,100.0
2088,49.0,0,188,12.0,84.0
2089,37.0,0,188,6.0,96.0
2090,76.0,0,476,0.0,125.0
2091,70.0,0,188,10.0,90.0
2092,76.0,192,380,11.0,84.0
2093,37.0,0,188,6.0,96.0
2094,37.0,192,188,8.0,100.0
2095,76.0,0,380,7.0,100.0
2096,49.0,0,188,5.0,96.0
2097,76.0,0,380,3.0,93.0
2098,70.0,0,188,1.0,103.0
2099,37.0,0,188,12.0,84.0
2100,49.0,0,188,12.0,84.0
2101,49.0,0,188,8.0,100.0
2102,74.0,96,140,0.0,125.0
2103,49.0,96,188,5.0,96.0
2104,73.0,0,572,7.0,100.0
2105,70.0,0,188,7.0,100.0
2106,73.0,0,572,2.0,96.0
2107,70.0,0,188,3.0,93.0
2108,73.0,0,188,0.0,125.0
2109,37.0,0,188,8.0,100.0
2110,37.0,0,188,6.0,96.0
2111,49.0,0,188,8.0,100.0
2112,37.0,0,188,12.0,84.0
2113,73.0,0,572,11.0,84.0
2114,70.0,0,188,11.0,84.0
2115,49.0,0,188,12.0,84.0
2116,73.0,0,92,0.0,125.0
2117,76.0,0,380,1.0,103.0
2118,50.0,0,188,12.0,84.0
2119,38.0,0,188,6.0,96.0
2120,38.0,0,188,12.0,84.0
2121,38.0,0,188,8.0,100.0
2122,50.0,0,188,5.0,96.0
2123,76.0,0,380,10.0,90.0
2124,50.0,0,188,8.0,100.0
2125,74.0,0,92,1.0,103.0
2126,74.0,96,92,10.0,90.0
2127,47.0,0,188,12.0,84.0
2128,35.0,0,188,12.0,84.0
2129,35.0,0,188,8.0,100.0
2130,78.0,96,92,1.0,103.0
2131,47.0,0,188,5.0,96.0
2132,35.0,0,188,6.0,96.0
2133,78.0,0,92,10.0,90.0
2134,47.0,0,188,8.0,100.0
2135,71.0,0,572,3.0,93.0
2136,50.0,0,188,5.0,96.0
2137,66.0,0,1724,11.0,84.0
2138,71.0,0,572,11.0,84.0
2139,66.0,0,1724,4.0,96.0
2140,50.0,96,188,8.0,100.0
2141,66.0,0,1724,7.0,100.0
2142,71.0,0,572,7.0,100.0
2143,38.0,0,188,8.0,100.0
2144,50.0,0,188,12.0,84.0
2145,38.0,0,188,12.0,84.0
2146,38.0,0,188,6.0,96.0
2147,73.0,0,380,1.0,103.0
2148,54.0,0,188,5.0,96.0
2149,54.0,0,188,12.0,84.0
2150,73.0,0,380,10.0,90.0
2151,42.0,192,188,8.0,100.0
2152,54.0,0,188,8.0,100.0
2153,42.0,0,188,12.0,84.0
2154,42.0,0,188,6.0,96.0
2155,71.0,0,92,10.0,90.0
2156,71.0,0,92,1.0,103.0
2157,74.0,0,92,1.0,103.0
2158,74.0,96,92,10.0,90.0
2159,71.0,96,860,0.0,125.0
2160,38.0,0,188,6.0,96.0
2161,50.0,0,188,5.0,96.0
2162,50.0,0,188,8.0,100.0
2163,38.0,192,188,8.0,100.0
2164,50.0,0,188,12.0,84.0
2165,38.0,0,188,12.0,84.0
2166,42.0,0,188,8.0,100.0
2167,54.0,0,188,8.0,100.0
2168,69.0,0,188,10.0,90.0
2169,69.0,0,188,1.0,103.0
2170,66.0,0,572,11.0,84.0
2171,66.0,0,572,7.0,100.0
2172,62.0,0,572,11.0,84.0
2173,62.0,0,572,7.0,100.0
2174,54.0,0,188,5.0,96.0
2175,54.0,0,188,12.0,84.0
2176,42.0,0,188,12.0,84.0
2177,62.0,0,572,4.0,96.0
2178,69.0,96,188,0.0,125.0
2179,66.0,0,572,3.0,93.0
2180,42.0,0,188,6.0,96.0
2181,69.0,0,92,10.0,90.0
2182,69.0,0,92,1.0,103.0
2183,47.0,0,188,8.0,100.0
2184,59.0,0,188,8.0,100.0
2185,59.0,0,188,5.0,96.0
2186,47.0,0,188,6.0,96.0
2187,47.0,0,188,12.0,84.0
2188,59.0,0,188,12.0,84.0
2189,67.0,96,188,10.0,90.0
2190,67.0,0,188,1.0,103.0
2191,74.0,96,92,1.0,103.0
2192,59.0,0,188,5.0,96.0
2193,47.0,0,188,12.0,84.0
2194,74.0,0,92,10.0,90.0
2195,67.0,192,380,0.0,125.0
2196,59.0,96,188,12.0,84.0
2197,47.0,0,188,6.0,96.0
2198,47.0,0,188,8.0,100.0
2199,59.0,0,188,8.0,100.0
2200,47.0,0,188,8.0,100.0
2201,59.0,0,188,8.0,100.0
2202,71.0,0,188,10.0,90.0
2203,71.0,0,188,1.0,103.0
2204,59.0,0,188,5.0,96.0
2205,59.0,0,572,4.0,96.0
2206,47.0,0,188,12.0,84.0
2207,47.0,96,188,6.0,96.0
2208,59.0,0,572,11.0,84.0
2209,59.0,0,572,7.0,100.0
2210,59.0,0,188,12.0,84.0
2211,66.0,0,188,0.0,125.0
2212,67.0,0,92,10.0,90.0
2213,67.0,0,92,1.0,103.0
2214,45.0,0,188,6.0,96.0
2215,57.0,0,188,5.0,96.0
2216,57.0,0,188,8.0,100.0
2217,45.0,0,188,8.0,100.0
2218,57.0,192,188,12.0,84.0
2219,45.0,0,188,12.0,84.0
2220,66.0,0,188,10.0,90.0
2221,66.0,96,188,1.0,103.0
2222,57.0,96,188,5.0,96.0
2223,74.0,0,92,1.0,103.0
2224,66.0,0,380,0.0,125.0
2225,57.0,0,188,12.0,84.0
2226,45.0,0,188,12.0,84.0
2227,45.0,0,188,6.0,96.0
2228,57.0,0,188,8.0,100.0
2229,45.0,0,188,8.0,100.0
2230,74.0,96,92,10.0,90.0
2231,71.0,96,188,1.0,103.0
2232,71.0,0,188,10.0,90.0
2233,57.0,0,188,5.0,96.0
2234,57.0,0,188,12.0,84.0
2235,65.0,0,188,0.0,125.0
2236,66.0,0,572,11.0,84.0
2237,45.0,0,188,12.0,84.0
2238,45.0,0,188,8.0,100.0
2239,57.0,0,188,8.0,100.0
2240,66.0,0,572,4.0,96.0
2241,66.0,0,572,7.0,100.0
2242,45.0,0,188,6.0,96.0
2243,66.0,0,92,10.0,90.0
2244,66.0,0,92,1.0,103.0
2245,56.0,0,188,8.0,100.0
2246,44.0,0,188,8.0,100.0
2247,44.0,0,188,12.0,84.0
2248,56.0,0,188,12.0,84.0
2249,44.0,0,188,6.0,96.0
2250,56.0,0,188,5.0,96.0
2251,65.0,96,188,1.0,103.0
2252,65.0,0,284,0.0,125.0
2253,65.0,0,188,10.0,90.0
2254,71.0,96,44,1.0,103.0
2255,71.0,0,44,10.0,90.0
2256,71.0,0,44,0.0,125.0
2257,56.0,96,188,12.0,84.0
2258,44.0,0,188,12.0,84.0
2259,44.0,0,188,6.0,96.0
2260,56.0,0,188,8.0,100.0
2261,44.0,0,188,8.0,100.0
2262,56.0,0,188,5.0,96.0
2263,73.0,0,44,10.0,90.0
2264,73.0,48,44,0.0,125.0
2265,73.0,0,44,1.0,103.0
2266,56.0,0,188,12.0,84.0
2267,74.0,0,1724,11.0,84.0
2268,44.0,0,188,8.0,100.0
2269,56.0,0,188,8.0,100.0
2270,56.0,0,188,5.0,96.0
2271,44.0,48,188,6.0,96.0
2272,44.0,0,188,12.0,84.0
2273,74.0,0,1724,7.0,100.0
2274,74.0,0,1724,3.0,93.0
2275,53.0,0,188,5.0,96.0
2276,53.0,0,188,12.0,84.0
2277,41.0,0,188,12.0,84.0
2278,41.0,0,188,8.0,100.0
2279,41.0,0,188,6.0,96.0
2280,53.0,0,188,8.0,100.0
2281,74.0,0,476,1.0,103.0
2282,74.0,0,476,10.0,90.0
2283,74.0,0,476,0.0,125.0
2284,53.0,192,188,12.0,84.0
2285,53.0,0,188,8.0,100.0
2286,73.0,0,92,10.0,90.0
2287,73.0,96,92,1.0,103.0
2288,41.0,0,188,6.0,96.0
2289,73.0,0,92,0.0,125.0
2290,53.0,0,188,5.0,96.0
2291,41.0,0,188,12.0,84.0
2292,41.0,0,188,8.0,100.0
2293,68.0,192,572,3.0,93.0
2294,68.0,0,1148,4.0,96.0
2295,68.0,0,572,7.0,100.0
2296,71.0,0,3452,2.0,96.0
2297,41.0,0,188,6.0,96.0
2298,41.0,0,188,8.0,100.0
2299,68.0,0,572,11.0,84.0
2300,41.0,0,188,12.0,84.0
2301,71.0,0,188,10.0,90.0
2302,71.0,0,188,1.0,103.0
2303,53.0,0,188,5.0,96.0
2304,53.0,96,188,8.0,100.0
2305,71.0,0,188,0.0,125.0
2306,53.0,0,188,12.0,84.0
2307,71.0,0,92,10.0,90.0
2308,71.0,0,92,1.0,103.0
2309,42.0,0,188,8.0,100.0
2310,54.0,0,188,8.0,100.0
2311,42.0,0,188,6.0,96.0
2312,54.0,0,188,12.0,84.0
2313,42.0,0,188,12.0,84.0
2314,54.0,0,188,5.0,96.0
2315,69.0,0,284,0.0,125.0
2316,69.0,96,188,10.0,90.0
2317,69.0,0,188,1.0,103.0
2318,68.0,0,44,10.0,90.0
2319,68.0,96,44,1.0,103.0
2320,54.0,0,188,8.0,100.0
2321,69.0,0,44,10.0,90.0
2322,54.0,0,188,12.0,84.0
2323,42.0,0,188,12.0,84.0
2324,42.0,0,188,6.0,96.0
2325,54.0,0,188,5.0,96.0
2326,68.0,0,92,0.0,125.0
2327,69.0,48,44,1.0,103.0
2328,42.0,96,188,8.0,100.0
2329,69.0,0,572,7.0,100.0
2330,69.0,0,572,3.0,93.0
2331,42.0,0,188,8.0,100.0
2332,54.0,0,188,8.0,100.0
2333,61.0,0,572,11.0,84.0
2334,69.0,0,572,11.0,84.0
2335,71.0,0,188,10.0,90.0
2336,42.0,0,188,6.0,96.0
2337,54.0,0,188,5.0,96.0
2338,61.0,192,572,4.0,96.0
2339,71.0,0,188,1.0,103.0
2340,54.0,0,188,12.0,84.0
2341,42.0,0,188,12.0,84.0
2342,69.0,0,572,2.0,96.0
2343,61.0,0,572,7.0,100.0
2344,38.0,0,188,12.0,84.0
2345,38.0,0,188,8.0,100.0
2346,50.0,0,188,8.0,100.0
2347,38.0,0,188,6.0,96.0
2348,50.0,0,188,5.0,96.0
2349,50.0,0,188,12.0,84.0
2350,71.0,48,476,0.0,125.0
2351,71.0,0,284,1.0,103.0
2352,71.0,0,284,10.0,90.0
2353,69.0,0,92,10.0,90.0
2354,38.0,192,188,6.0,96.0
2355,69.0,96,92,1.0,103.0
2356,50.0,0,188,8.0,100.0
2357,38.0,0,188,8.0,100.0
2358,69.0,0,92,0.0,125.0
2359,50.0,0,188,12.0,84.0
2360,38.0,0,188,12.0,84.0
2361,50.0,0,188,5.0,96.0
2362,50.0,0,188,5.0,96.0
2363,71.0,0,572,2.0,96.0
2364,62.0,0,572,11.0,84.0
2365,66.0,0,572,11.0,84.0
2366,71.0,0,572,11.0,84.0
2367,38.0,0,188,8.0,100.0
2368,50.0,0,188,8.0,100.0
2369,68.0,0,188,0.0,125.0
2370,50.0,0,188,12.0,84.0
2371,38.0,0,188,6.0,96.0
2372,62.0,0,572,7.0,100.0
2373,66.0,0,572,7.0,100.0
2374,71.0,0,572,7.0,100.0
2375,38.0,96,188,12.0,84.0
2376,66.0,192,572,3.0,93.0
2377,62.0,0,572,4.0,96.0
2378,66.0,0,92,1.0,103.0
2379,68.0,0,188,1.0,103.0
2380,68.0,0,188,10.0,90.0
2381,66.0,96,92,10.0,90.0
2382,49.0,0,188,12.0,84.0
2383,37.0,0,188,12.0,84.0
2384,49.0,0,188,5.0,96.0
2385,37.0,0,188,8.0,100.0
2386,49.0,0,188,8.0,100.0
2387,37.0,0,188,6.0,96.0
2388,32.0,0,188,8.0,100.0
2389,44.0,0,188,8.0,100.0
2390,44.0,0,188,12.0,84.0
2391,32.0,0,188,6.0,96.0
2392,32.0,0,188,12.0,84.0
2393,65.0,0,380,0.0,125.0
2394,44.0,192,188,5.0,96.0
2395,47.0,0,188,8.0,100.0
2396,35.0,0,188,8.0,100.0
2397,47.0,0,188,5.0,96.0
2398,35.0,0,188,12.0,84.0
2399,35.0,0,188,6.0,96.0
2400,47.0,0,188,12.0,84.0
2401,63.0,192,188,0.0,125.0
2402,65.0,0,668,10.0,90.0
2403,65.0,0,668,1.0,103.0
2404,35.0,0,188,12.0,84.0
2405,47.0,0,188,5.0,96.0
2406,47.0,192,188,8.0,100.0
2407,35.0,0,188,8.0,100.0
2408,66.0,0,92,10.0,90.0
2409,66.0,96,92,1.0,103.0
2410,47.0,0,188,12.0,84.0
2411,35.0,0,188,6.0,96.0
2412,68.0,0,92,1.0,103.0
2413,68.0,0,92,10.0,90.0
2414,73.0,96,92,1.0,103.0
2415,29.0,0,188,8.0,100.0
2416,56.0,96,956,11.0,84.0
2417,29.0,0,188,12.0,84.0
2418,61.0,0,380,0.0,125.0
2419,68.0,0,956,7.0,100.0
2420,41.0,0,188,5.0,96.0
2421,29.0,0,188,6.0,96.0
2422,56.0,0,956,4.0,96.0
2423,73.0,0,92,10.0,90.0
2424,41.0,0,188,8.0,100.0
2425,41.0,96,188,12.0,84.0
2426,73.0,0,1004,11.0,84.0
2427,68.0,0,1004,11.0,84.0
2428,68.0,0,1004,3.0,93.0
2429,73.0,0,1004,2.0,96.0
2430,73.0,0,1004,7.0,100.0
2431,77.0,0,92,10.0,90.0
2432,77.0,0,92,1.0,103.0
2433,44.0,0,188,5.0,96.0
2434,44.0,0,188,8.0,100.0
2435,32.0,96,188,6.0,96.0
2436,32.0,0,188,8.0,100.0
2437,44.0,0,188,12.0,84.0
2438,80.0,96,92,1.0,103.0
2439,32.0,0,188,12.0,84.0
2440,80.0,0,92,10.0,90.0
2441,83.0,0,44,1.0,103.0
2442,83.0,0,44,10.0,90.0
2443,81.0,0,44,10.0,90.0
2444,81.0,48,44,1.0,103.0
2445,77.0,0,188,2.0,96.0
2446,80.0,0,92,10.0,90.0
2447,68.0,0,188,7.0,100.0
2448,73.0,0,188,7.0,100.0
2449,77.0,0,188,7.0,100.0
2450,77.0,0,188,11.0,84.0
2451,73.0,0,188,11.0,84.0
2452,68.0,0,188,4.0,96.0
2453,68.0,0,188,11.0,84.0
2454,73.0,96,188,3.0,93.0
2455,80.0,48,92,1.0,103.0
2456,78.0,96,188,11.0,84.0
2457,69.0,0,188,4.0,96.0
2458,78.0,0,188,2.0,96.0
2459,78.0,0,188,10.0,90.0
2460,78.0,0,188,7.0,100.0
2461,75.0,0,188,3.0,93.0
2462,69.0,0,188,7.0,100.0
2463,69.0,0,188,11.0,84.0
2464,75.0,0,188,11.0,84.0
2465,75.0,0,188,7.0,100.0
2466,78.0,0,188,1.0,103.0
2467,77.0,0,140,1.0,103.0
2468,77.0,192,140,10.0,90.0
2469,77.0,0,188,3.0,93.0
2470,71.0,0,188,4.0,96.0
2471,80.0,0,188,7.0,100.0
2472,80.0,0,188,2.0,96.0
2473,80.0,0,188,11.0,84.0
2474,71.0,0,188,7.0,100.0
2475,71.0,0,188,11.0,84.0
2476,77.0,0,188,7.0,100.0
2477,78.0,0,44,10.0,90.0
2478,78.0,144,44,1.0,103.0
2479,77.0,0,188,11.0,84.0
2480,80.0,0,44,10.0,90.0
2481,80.0,0,44,1.0,103.0
2482,78.0,0,44,10.0,90.0
2483,78.0,48,44,1.0,103.0
2484,77.0,0,188,11.0,84.0
2485,80.0,48,188,11.0,84.0
2486,80.0,0,188,2.0,96.0
2487,77.0,0,92,10.0,90.0
2488,61.0,0,188,4.0,96.0
2489,61.0,0,188,11.0,84.0
2490,77.0,0,188,3.0,93.0
2491,61.0,0,188,7.0,100.0
2492,77.0,0,188,7.0,100.0
2493,80.0,0,188,7.0,100.0
2494,77.0,48,92,1.0,103.0
2495,61.0,0,188,4.0,96.0
2496,74.0,0,188,10.0,90.0
2497,81.0,0,188,7.0,100.0
2498,78.0,96,188,7.0,100.0
2499,61.0,0,188,7.0,100.0
2500,61.0,0,188,11.0,84.0
2501,78.0,0,188,11.0,84.0
2502,81.0,0,188,2.0,96.0
2503,61.0,96,92,0.0,125.0
2504,78.0,0,188,3.0,93.0
2505,74.0,0,188,1.0,103.0
2506,81.0,0,188,11.0,84.0
2507,65.0,0,92,0.0,125.0
2508,73.0,0,140,1.0,103.0
2509,73.0,96,140,10.0,90.0
2510,68.0,96,92,0.0,125.0
2511,80.0,0,188,3.0,93.0
2512,61.0,0,188,11.0,84.0
2513,80.0,0,188,11.0,84.0
2514,83.0,0,188,11.0,84.0
2515,83.0,0,188,7.0,100.0
2516,80.0,0,188,7.0,100.0
2517,74.0,48,44,10.0,90.0
2518,74.0,0,44,1.0,103.0
2519,61.0,0,188,7.0,100.0
2520,61.0,0,188,4.0,96.0
2521,83.0,0,188,2.0,96.0
2522,78.0,48,92,10.0,90.0
2523,78.0,0,92,1.0,103.0
2524,37.0,0,188,12.0,84.0
2525,49.0,0,188,8.0,100.0
2526,37.0,0,188,8.0,100.0
2527,37.0,0,188,6.0,96.0
2528,49.0,0,188,12.0,84.0
2529,49.0,0,188,5.0,96.0
2530,71.0,0,284,0.0,125.0
2531,37.0,0,188,6.0,96.0
2532,73.0,96,92,0.0,125.0
2533,37.0,96,188,12.0,84.0
2534,37.0,0,188,8.0,100.0
2535,49.0,0,188,8.0,100.0
2536,49.0,0,188,12.0,84.0
2537,49.0,0,188,5.0,96.0
2538,37.0,96,188,12.0,84.0
2539,37.0,0,188,6.0,96.0
2540,49.0,0,188,12.0,84.0
2541,49.0,0,188,5.0,96.0
2542,37.0,0,188,8.0,100.0
2543,49.0,0,188,8.0,100.0
2544,77.0,0,572,10.0,90.0
2545,77.0,96,572,1.0,103.0
2546,49.0,192,188,5.0,96.0
2547,49.0,0,188,8.0,100.0
2548,37.0,0,188,8.0,100.0
2549,49.0,0,188,12.0,84.0
2550,37.0,0,188,12.0,84.0
2551,37.0,0,188,6.0,96.0
2552,74.0,0,476,0.0,125.0
2553,37.0,0,188,12.0,84.0
2554,49.0,0,188,12.0,84.0
2555,49.0,0,188,5.0,96.0
2556,68.0,0,956,3.0,93.0
2557,37.0,192,188,6.0,96.0
2558,61.0,0,956,11.0,84.0
2559,68.0,0,956,11.0,84.0
2560,77.0,0,956,11.0,84.0
2561,61.0,0,956,4.0,96.0
2562,77.0,0,956,2.0,96.0
2563,73.0,96,92,0.0,125.0
2564,61.0,0,956,7.0,100.0
2565,37.0,0,188,8.0,100.0
2566,49.0,0,188,8.0,100.0
2567,68.0,0,956,7.0,100.0
2568,77.0,0,956,7.0,100.0
2569,49.0,0,188,8.0,100.0
2570,37.0,0,188,8.0,100.0
2571,71.0,96,188,0.0,125.0
2572,37.0,0,188,6.0,96.0
2573,37.0,0,188,12.0,84.0
2574,49.0,0,188,12.0,84.0
2575,49.0,0,188,5.0,96.0
2576,76.0,0,44,10.0,90.0
2577,76.0,0,44,1.0,103.0
2578,74.0,48,44,1.0,103.0
2579,74.0,0,44,10.0,90.0
2580,61.0,192,188,7.0,100.0
2581,61.0,0,188,4.0,96.0
2582,70.0,0,188,3.0,93.0
2583,73.0,0,92,1.0,103.0
2584,73.0,0,188,2.0,96.0
2585,70.0,0,188,11.0,84.0
2586,70.0,0,188,7.0,100.0
2587,61.0,0,188,11.0,84.0
2588,73.0,0,188,7.0,100.0
2589,73.0,48,92,10.0,90.0
2590,73.0,0,188,11.0,84.0
2591,74.0,0,188,11.0,84.0
2592,42.0,0,380,12.0,84.0
2593,66.0,0,188,11.0,84.0
2594,71.0,96,188,11.0,84.0
2595,71.0,0,188,1.0,103.0
2596,71.0,0,188,10.0,90.0
2597,30.0,0,380,6.0,96.0
2598,70.0,0,380,0.0,125.0
2599,66.0,0,188,4.0,96.0
2600,74.0,0,188,2.0,96.0
2601,42.0,0,380,8.0,100.0
2602,30.0,0,380,8.0,100.0
2603,66.0,0,188,7.0,100.0
2604,71.0,0,188,7.0,100.0
2605,74.0,0,188,7.0,100.0
2606,71.0,0,188,3.0,93.0
2607,30.0,0,380,12.0,84.0
2608,42.0,0,380,5.0,96.0
2609,70.0,0,140,1.0,103.0
2610,70.0,0,140,10.0,90.0
2611,76.0,0,188,11.0,84.0
2612,73.0,0,188,11.0,84.0
2613,66.0,192,188,11.0,84.0
2614,71.0,144,44,1.0,103.0
2615,73.0,0,188,7.0,100.0
2616,76.0,0,188,7.0,100.0
2617,76.0,0,188,2.0,96.0
2618,73.0,0,188,0.0,125.0
2619,66.0,0,188,7.0,100.0
2620,66.0,0,188,4.0,96.0
2621,73.0,0,188,3.0,93.0
2622,71.0,0,44,10.0,90.0
2623,73.0,48,44,1.0,103.0
2624,73.0,0,44,0.0,125.0
2625,73.0,0,44,10.0,90.0
2626,71.0,48,44,1.0,103.0
2627,74.0,0,44,0.0,125.0
2628,71.0,0,44,10.0,90.0
2629,70.0,0,188,11.0,84.0
2630,73.0,0,188,11.0,84.0
2631,66.0,0,188,11.0,84.0
2632,70.0,0,92,1.0,103.0
2633,66.0,0,188,7.0,100.0
2634,73.0,0,188,7.0,100.0
2635,66.0,0,188,4.0,96.0
2636,70.0,48,92,10.0,90.0
2637,70.0,0,188,3.0,93.0
2638,73.0,0,188,2.0,96.0
2639,70.0,0,188,7.0,100.0
2640,76.0,0,188,0.0,125.0
2641,66.0,0,188,7.0,100.0
2642,73.0,96,92,0.0,125.0
2643,74.0,96,188,7.0,100.0
2644,71.0,0,188,7.0,100.0
2645,74.0,0,188,11.0,84.0
2646,74.0,0,188,2.0,96.0
2647,66.0,0,188,11.0,84.0
2648,71.0,0,188,11.0,84.0
2649,67.0,0,188,1.0,103.0
2650,67.0,0,188,10.0,90.0
2651,71.0,0,188,3.0,93.0
2652,66.0,0,188,4.0,96.0
2653,70.0,96,92,0.0,125.0
2654,66.0,0,140,1.0,103.0
2655,66.0,0,140,10.0,90.0
2656,76.0,0,188,2.0,96.0
2657,71.0,96,92,0.0,125.0
2658,67.0,48,44,10.0,90.0
2659,66.0,0,188,11.0,84.0
2660,73.0,0,188,11.0,84.0
2661,76.0,0,188,11.0,84.0
2662,67.0,0,44,1.0,103.0
2663,73.0,0,188,3.0,93.0
2664,66.0,0,188,4.0,96.0
2665,66.0,0,188,7.0,100.0
2666,73.0,0,188,7.0,100.0
2667,76.0,0,188,7.0,100.0
2668,71.0,0,92,1.0,103.0
2669,71.0,0,92,10.0,90.0
2670,30.0,0,188,8.0,100.0
2671,42.0,0,188,5.0,96.0
2672,30.0,0,188,12.0,84.0
2673,42.0,0,188,12.0,84.0
2674,42.0,0,188,8.0,100.0
2675,30.0,0,188,6.0,96.0
2676,64.0,0,284,0.0,125.0
2677,30.0,96,188,12.0,84.0
2678,30.0,0,188,6.0,96.0
2679,42.0,0,188,8.0,100.0
2680,66.0,96,92,0.0,125.0
2681,42.0,0,188,12.0,84.0
2682,30.0,0,188,8.0,100.0
2683,42.0,0,188,5.0,96.0
2684,30.0,0,188,12.0,84.0
2685,42.0,0,188,5.0,96.0
2686,30.0,0,188,8.0,100.0
2687,42.0,0,188,8.0,100.0
2688,30.0,0,188,6.0,96.0
2689,42.0,96,188,12.0,84.0
2690,42.0,0,188,12.0,84.0
2691,42.0,0,188,5.0,96.0
2692,30.0,192,188,12.0,84.0
2693,42.0,0,188,8.0,100.0
2694,30.0,0,188,6.0,96.0
2695,30.0,0,188,8.0,100.0
2696,67.0,0,476,0.0,125.0
2697,61.0,0,908,11.0,84.0
2698,61.0,0,908,7.0,100.0
2699,61.0,0,908,3.0,93.0
2700,66.0,48,956,7.0,100.0
2701,70.0,0,956,7.0,100.0
2702,30.0,0,188,12.0,84.0
2703,66.0,0,956,4.0,96.0
2704,30.0,0,188,6.0,96.0
2705,42.0,0,188,12.0,84.0
2706,70.0,0,956,2.0,96.0
2707,42.0,192,188,5.0,96.0
2708,66.0,0,956,11.0,84.0
2709,70.0,0,956,11.0,84.0
2710,66.0,96,92,0.0,125.0
2711,30.0,0,188,8.0,100.0
2712,42.0,0,188,8.0,100.0
2713,70.0,96,1004,1.0,103.0
2714,70.0,0,1004,10.0,90.0
2715,30.0,0,188,12.0,84.0
2716,42.0,0,188,12.0,84.0
2717,42.0,0,188,5.0,96.0
2718,42.0,0,188,8.0,100.0
2719,30.0,0,188,6.0,96.0
2720,64.0,96,188,0.0,125.0
2721,30.0,0,188,8.0,100.0
2722,74.0,192,44,10.0,90.0
2723,74.0,0,44,1.0,103.0
2724,76.0,48,44,10.0,90.0
2725,76.0,0,44,1.0,103.0
2726,47.0,0,188,8.0,100.0
2727,35.0,0,188,8.0,100.0
2728,35.0,0,188,6.0,96.0
2729,47.0,0,188,5.0,96.0
2730,62.0,0,188,0.0,125.0
2731,47.0,0,188,12.0,84.0
2732,35.0,0,188,12.0,84.0
2733,78.0,0,188,1.0,103.0
2734,78.0,48,188,10.0,90.0
2735,76.0,0,44,1.0,103.0
2736,76.0,96,44,10.0,90.0
2737,47.0,0,188,8.0,100.0
2738,35.0,0,188,12.0,84.0
2739,47.0,0,188,12.0,84.0
2740,74.0,48,44,1.0,103.0
2741,35.0,0,188,8.0,100.0
2742,35.0,0,188,6.0,96.0
2743,74.0,0,44,10.0,90.0
2744,47.0,96,188,5.0,96.0
2745,64.0,0,188,0.0,125.0
2746,76.0,48,44,10.0,90.0
2747,76.0,0,44,1.0,103.0
2748,74.0,48,44,10.0,90.0
2749,74.0,0,44,1.0,103.0
2750,35.0,0,188,8.0,100.0
2751,59.0,0,572,7.0,100.0
2752,62.0,0,572,7.0,100.0
2753,54.0,0,572,4.0,96.0
2754,73.0,48,92,1.0,103.0
2755,62.0,0,572,11.0,84.0
2756,35.0,0,188,12.0,84.0
2757,59.0,0,572,3.0,93.0
2758,62.0,0,572,2.0,96.0
2759,47.0,0,188,8.0,100.0
2760,59.0,0,572,11.0,84.0
2761,47.0,0,188,12.0,84.0
2762,54.0,0,572,7.0,100.0
2763,54.0,0,572,11.0,84.0
2764,73.0,0,92,10.0,90.0
2765,35.0,0,188,6.0,96.0
2766,47.0,0,188,5.0,96.0
2767,71.0,0,44,1.0,103.0
2768,71.0,0,44,10.0,90.0
2769,73.0,0,44,1.0,103.0
2770,73.0,48,44,10.0,90.0
2771,66.0,0,380,0.0,125.0
2772,47.0,0,188,8.0,100.0
2773,35.0,0,188,8.0,100.0
2774,47.0,0,188,12.0,84.0
2775,35.0,0,188,12.0,84.0
2776,47.0,0,188,5.0,96.0
2777,35.0,0,188,6.0,96.0
2778,74.0,0,188,1.0,103.0
2779,74.0,48,188,10.0,90.0
2780,73.0,0,44,1.0,103.0
2781,73.0,96,44,10.0,90.0
2782,35.0,0,188,6.0,96.0
2783,47.0,0,188,8.0,100.0
2784,47.0,96,188,12.0,84.0
2785,35.0,0,188,8.0,100.0
2786,71.0,48,44,10.0,90.0
2787,47.0,0,188,5.0,96.0
2788,35.0,0,188,12.0,84.0
2789,68.0,0,188,0.0,125.0
2790,71.0,0,44,1.0,103.0
2791,73.0,0,44,1.0,103.0
2792,73.0,0,44,10.0,90.0
2793,71.0,48,44,10.0,90.0
2794,71.0,0,44,1.0,103.0
2795,59.0,0,572,11.0,84.0
2796,35.0,48,188,6.0,96.0
2797,47.0,0,188,12.0,84.0
2798,69.0,0,92,1.0,103.0
2799,66.0,0,572,11.0,84.0
2800,70.0,0,188,0.0,125.0
2801,62.0,0,572,11.0,84.0
2802,47.0,0,188,5.0,96.0
2803,35.0,0,188,12.0,84.0
2804,35.0,0,188,8.0,100.0
2805,62.0,0,572,3.0,93.0
2806,59.0,0,572,7.0,100.0
2807,66.0,0,572,7.0,100.0
2808,62.0,0,572,7.0,100.0
2809,47.0,0,188,8.0,100.0
2810,69.0,48,92,10.0,90.0
2811,66.0,96,572,2.0,96.0
2812,59.0,0,572,4.0,96.0
2813,67.0,0,44,1.0,103.0
2814,67.0,0,44,10.0,90.0
2815,69.0,0,44,10.0,90.0
2816,69.0,48,44,1.0,103.0
2817,47.0,0,188,8.0,100.0
2818,35.0,0,188,8.0,100.0
2819,35.0,96,188,6.0,96.0
2820,47.0,0,188,5.0,96.0
2821,47.0,0,188,12.0,84.0
2822,35.0,0,188,12.0,84.0
2823,71.0,0,188,0.0,125.0
2824,71.0,0,188,1.0,103.0
2825,71.0,48,188,10.0,90.0
2826,69.0,96,44,1.0,103.0
2827,69.0,0,44,10.0,90.0
2828,67.0,48,44,1.0,103.0
2829,67.0,0,44,10.0,90.0
2830,47.0,0,188,8.0,100.0
2831,35.0,0,188,8.0,100.0
2832,73.0,0,188,0.0,125.0
2833,35.0,0,188,6.0,96.0
2834,35.0,0,188,12.0,84.0
2835,47.0,0,188,12.0,84.0
2836,47.0,96,188,5.0,96.0
2837,69.0,0,44,1.0,103.0
2838,69.0,0,44,10.0,90.0
2839,67.0,48,44,10.0,90.0
2840,67.0,0,44,1.0,103.0
2841,47.0,0,188,8.0,100.0
2842,35.0,0,188,8.0,100.0
2843,71.0,0,572,2.0,96.0
2844,66.0,48,92,10.0,90.0
2845,62.0,0,572,7.0,100.0
2846,67.0,0,572,7.0,100.0
2847,62.0,0,572,4.0,96.0
2848,35.0,0,188,6.0,96.0
2849,66.0,0,92,1.0,103.0
2850,67.0,0,572,3.0,93.0
2851,47.0,48,188,12.0,84.0
2852,47.0,0,188,5.0,96.0
2853,35.0,0,188,12.0,84.0
2854,71.0,0,572,7.0,100.0
2855,71.0,0,572,11.0,84.0
2856,67.0,0,572,11.0,84.0
2857,62.0,0,572,11.0,84.0
2858,65.0,0,44,1.0,103.0
2859,65.0,0,44,10.0,90.0
2860,66.0,48,44,1.0,103.0
2861,66.0,0,44,10.0,90.0
2862,35.0,0,188,6.0,96.0
2863,71.0,0,188,3.0,93.0
2864,56.0,0,188,11.0,84.0
2865,35.0,0,188,8.0,100.0
2866,47.0,0,188,5.0,96.0
2867,74.0,0,380,0.0,125.0
2868,35.0,0,188,12.0,84.0
2869,56.0,0,188,4.0,96.0
2870,74.0,0,188,11.0,84.0
2871,71.0,0,188,11.0,84.0
2872,74.0,0,188,7.0,100.0
2873,71.0,0,188,7.0,100.0
2874,56.0,96,188,7.0,100.0
2875,74.0,0,188,2.0,96.0
2876,47.0,0,188,12.0,84.0
2877,47.0,0,188,8.0,100.0
2878,73.0,0,92,0.0,125.0
2879,68.0,48,188,1.0,103.0
2880,68.0,0,188,10.0,90.0
2881,66.0,0,44,10.0,90.0
2882,66.0,0,44,1.0,103.0
2883,71.0,96,92,0.0,125.0
2884,47.0,0,188,12.0,84.0
2885,35.0,0,188,12.0,84.0
2886,47.0,0,188,8.0,100.0
2887,47.0,0,188,5.0,96.0
2888,65.0,0,44,1.0,103.0
2889,65.0,48,44,10.0,90.0
2890,35.0,0,188,6.0,96.0
2891,35.0,0,188,8.0,100.0
2892,66.0,0,44,1.0,103.0
2893,66.0,0,44,10.0,90.0
2894,65.0,48,44,1.0,103.0
2895,69.0,0,92,0.0,125.0
2896,65.0,0,44,10.0,90.0
2897,63.0,0,92,10.0,90.0
2898,65.0,0,380,11.0,84.0
2899,68.0,0,380,3.0,93.0
2900,65.0,96,380,4.0,96.0
2901,47.0,0,188,8.0,100.0
2902,35.0,0,188,8.0,100.0
2903,68.0,0,92,0.0,125.0
2904,63.0,48,92,1.0,103.0
2905,35.0,0,188,12.0,84.0
2906,47.0,0,188,12.0,84.0
2907,65.0,0,380,7.0,100.0
2908,68.0,0,380,7.0,100.0
2909,47.0,0,188,5.0,96.0
2910,68.0,0,380,11.0,84.0
2911,35.0,48,188,6.0,96.0
2912,61.0,0,188,1.0,103.0
2913,33.0,0,188,6.0,96.0
2914,33.0,0,188,8.0,100.0
2915,73.0,0,188,0.0,125.0
2916,45.0,0,188,5.0,96.0
2917,45.0,0,188,8.0,100.0
2918,61.0,0,188,10.0,90.0
2919,33.0,96,188,12.0,84.0
2920,45.0,0,188,12.0,84.0
2921,71.0,192,188,0.0,125.0
2922,66.0,0,380,4.0,96.0
2923,43.0,0,188,5.0,96.0
2924,73.0,0,764,7.0,100.0
2925,66.0,0,380,7.0,100.0
2926,31.0,0,188,8.0,100.0
2927,69.0,0,380,7.0,100.0
2928,31.0,0,188,6.0,96.0
2929,43.0,0,188,8.0,100.0
2930,73.0,0,764,11.0,84.0
2931,66.0,0,380,11.0,84.0
2932,69.0,0,380,11.0,84.0
2933,43.0,0,188,12.0,84.0
2934,31.0,0,188,12.0,84.0
2935,73.0,0,764,2.0,96.0
2936,69.0,0,380,3.0,93.0
2937,42.0,0,188,8.0,100.0
2938,30.0,192,188,8.0,100.0
2939,69.0,0,188,0.0,125.0
2940,42.0,0,188,12.0,84.0
2941,42.0,0,188,5.0,96.0
2942,30.0,0,188,12.0,84.0
2943,30.0,0,188,6.0,96.0
2944,73.0,0,92,0.0,125.0
2945,37.0,0,188,6.0,96.0
2946,37.0,0,188,12.0,84.0
2947,49.0,0,188,5.0,96.0
2948,49.0,192,188,12.0,84.0
2949,71.0,96,92,0.0,125.0
2950,49.0,0,188,8.0,100.0
2951,37.0,0,188,8.0,100.0
2952,49.0,0,188,12.0,84.0
2953,37.0,0,188,12.0,84.0
2954,49.0,0,188,8.0,100.0
2955,37.0,0,188,8.0,100.0
2956,49.0,0,188,5.0,96.0
2957,37.0,96,188,6.0,96.0
2958,69.0,0,188,0.0,125.0
2959,49.0,0,188,5.0,96.0
2960,37.0,0,188,6.0,96.0
2961,49.0,0,188,12.0,84.0
2962,37.0,192,188,12.0,84.0
2963,68.0,0,188,0.0,125.0
2964,37.0,0,188,8.0,100.0
2965,49.0,0,188,8.0,100.0
2966,42.0,0,188,12.0,84.0
2967,54.0,0,188,12.0,84.0
2968,42.0,0,188,6.0,96.0
2969,54.0,0,188,5.0,96.0
2970,42.0,192,188,8.0,100.0
2971,54.0,0,188,8.0,100.0
2972,42.0,192,188,5.0,96.0
2973,42.0,0,188,12.0,84.0
2974,30.0,0,188,8.0,100.0
2975,42.0,0,188,8.0,100.0
2976,30.0,0,188,12.0,84.0
2977,30.0,0,188,6.0,96.0
2978,33.0,0,188,8.0,100.0
2979,45.0,0,188,5.0,96.0
2980,45.0,192,188,8.0,100.0
2981,66.0,0,572,0.0,125.0
2982,33.0,0,188,6.0,96.0
2983,45.0,0,188,12.0,84.0
2984,33.0,0,188,12.0,84.0
2985,49.0,0,188,8.0,100.0
2986,37.0,0,188,8.0,100.0
2987,37.0,0,188,12.0,84.0
2988,49.0,0,188,12.0,84.0
2989,37.0,0,188,6.0,96.0
2990,49.0,192,188,5.0,96.0
2991,33.0,0,188,12.0,84.0
2992,45.0,0,188,5.0,96.0
2993,33.0,192,188,6.0,96.0
2994,45.0,0,188,12.0,84.0
2995,33.0,0,188,8.0,100.0
2996,45.0,0,188,8.0,100.0
2997,66.0,0,380,0.0,125.0
2998,37.0,0,188,12.0,84.0
2999,49.0,0,188,12.0,84.0
3000,73.0,0,188,10.0,90.0
3001,73.0,0,188,1.0,103.0
3002,37.0,0,188,6.0,96.0
3003,49.0,192,188,5.0,96.0
3004,49.0,0,188,8.0,100.0
3005,37.0,0,188,8.0,100.0
3006,78.0,0,44,10.0,90.0
3007,78.0,0,44,1.0,103.0
3008,80.0,48,44,1.0,103.0
3009,80.0,0,44,10.0,90.0
3010,42.0,0,188,6.0,96.0
3011,54.0,0,188,12.0,84.0
3012,42.0,0,188,12.0,84.0
3013,42.0,0,188,8.0,100.0
3014,54.0,0,188,8.0,100.0
3015,54.0,0,188,5.0,96.0
3016,81.0,48,188,10.0,90.0
3017,81.0,0,188,1.0,103.0
3018,54.0,96,188,12.0,84.0
3019,42.0,0,188,12.0,84.0
3020,80.0,0,92,1.0,103.0
3021,42.0,0,188,8.0,100.0
3022,42.0,0,188,6.0,96.0
3023,54.0,0,188,5.0,96.0
3024,54.0,0,188,8.0,100.0
3025,80.0,96,92,10.0,90.0
3026,78.0,0,188,1.0,103.0
3027,54.0,0,188,5.0,96.0
3028,78.0,96,188,10.0,90.0
3029,42.0,0,188,6.0,96.0
3030,54.0,0,188,12.0,84.0
3031,42.0,0,188,12.0,84.0
3032,54.0,0,188,8.0,100.0
3033,42.0,0,188,8.0,100.0
3034,80.0,0,92,10.0,90.0
3035,80.0,0,92,1.0,103.0
3036,52.0,0,188,8.0,100.0
3037,40.0,0,188,8.0,100.0
3038,40.0,0,188,6.0,96.0
3039,40.0,0,188,12.0,84.0
3040,52.0,0,188,12.0,84.0
3041,52.0,192,188,5.0,96.0
3042,78.0,0,188,1.0,103.0
3043,78.0,96,188,10.0,90.0
3044,52.0,0,188,8.0,100.0
3045,77.0,96,92,1.0,103.0
3046,52.0,96,188,5.0,96.0
3047,77.0,0,92,10.0,90.0
3048,40.0,0,188,6.0,96.0
3049,40.0,0,188,8.0,100.0
3050,52.0,0,188,12.0,84.0
3051,40.0,0,188,12.0,84.0
3052,52.0,0,188,5.0,96.0
3053,52.0,0,188,8.0,100.0
3054,40.0,0,188,8.0,100.0
3055,40.0,0,188,6.0,96.0
3056,78.0,0,188,1.0,103.0
3057,78.0,96,188,10.0,90.0
3058,52.0,0,188,12.0,84.0
3059,40.0,0,188,12.0,84.0
3060,50.0,0,188,8.0,100.0
3061,38.0,192,188,6.0,96.0
3062,38.0,0,188,8.0,100.0
3063,38.0,0,188,12.0,84.0
3064,50.0,0,188,12.0,84.0
3065,50.0,0,188,5.0,96.0
3066,50.0,0,188,5.0,96.0
3067,69.0,0,1532,3.0,93.0
3068,38.0,0,188,8.0,100.0
3069,50.0,0,188,8.0,100.0
3070,50.0,0,188,12.0,84.0
3071,69.0,192,1532,7.0,100.0
3072,66.0,0,1532,7.0,100.0
3073,38.0,192,188,12.0,84.0
3074,73.0,0,1532,7.0,100.0
3075,66.0,0,1532,11.0,84.0
3076,69.0,0,1532,11.0,84.0
3077,73.0,0,1532,11.0,84.0
3078,73.0,0,1532,2.0,96.0
3079,38.0,0,188,6.0,96.0
3080,66.0,0,1532,4.0,96.0
3081,59.0,0,188,7.0,100.0
3082,59.0,0,188,11.0,84.0
3083,71.0,0,188,11.0,84.0
3084,71.0,0,188,7.0,100.0
3085,38.0,0,188,6.0,96.0
3086,50.0,0,188,12.0,84.0
3087,38.0,0,188,12.0,84.0
3088,50.0,0,188,5.0,96.0
3089,71.0,0,188,3.0,93.0
3090,38.0,0,188,8.0,100.0
3091,50.0,192,188,8.0,100.0
3092,59.0,0,188,4.0,96.0
3093,71.0,0,188,2.0,96.0
3094,76.0,0,188,7.0,100.0
3095,76.0,192,188,11.0,84.0
3096,49.0,0,188,8.0,100.0
3097,49.0,0,188,12.0,84.0
3098,37.0,0,188,12.0,84.0
3099,49.0,0,188,5.0,96.0
3100,37.0,0,188,8.0,100.0
3101,37.0,0,188,6.0,96.0
3102,76.0,0,188,3.0,93.0
3103,71.0,0,380,2.0,96.0
3104,71.0,0,380,11.0,84.0
3105,74.0,0,188,11.0,84.0
3106,49.0,192,188,12.0,84.0
3107,37.0,0,188,12.0,84.0
3108,37.0,0,188,8.0,100.0
3109,49.0,0,188,8.0,100.0
3110,78.0,0,956,10.0,90.0
3111,49.0,0,188,5.0,96.0
3112,78.0,0,956,1.0,103.0
3113,74.0,0,188,3.0,93.0
3114,71.0,0,380,7.0,100.0
3115,74.0,0,188,7.0,100.0
3116,37.0,0,188,6.0,96.0
3117,49.0,192,188,5.0,96.0
3118,61.0,0,572,4.0,96.0
3119,73.0,0,188,3.0,93.0
3120,78.0,0,188,1.0,103.0
3121,37.0,0,188,8.0,100.0
3122,49.0,0,188,8.0,100.0
3123,49.0,0,188,12.0,84.0
3124,37.0,0,188,12.0,84.0
3125,37.0,0,188,6.0,96.0
3126,70.0,0,188,2.0,96.0
3127,70.0,0,188,11.0,84.0
3128,78.0,0,188,10.0,90.0
3129,61.0,0,572,7.0,100.0
3130,61.0,0,572,11.0,84.0
3131,70.0,0,188,7.0,100.0
3132,73.0,0,188,11.0,84.0
3133,73.0,0,188,7.0,100.0
3134,35.0,0,188,8.0,100.0
3135,35.0,0,188,6.0,96.0
3136,47.0,0,188,5.0,96.0
3137,47.0,0,188,12.0,84.0
3138,35.0,0,188,12.0,84.0
3139,47.0,0,188,8.0,100.0
3140,86.0,0,284,10.0,90.0
3141,86.0,0,284,1.0,103.0
3142,85.0,0,44,10.0,90.0
3143,85.0,96,44,1.0,103.0
3144,86.0,48,44,10.0,90.0
3145,35.0,0,188,8.0,100.0
3146,47.0,0,188,8.0,100.0
3147,86.0,0,44,1.0,103.0
3148,47.0,192,188,5.0,96.0
3149,35.0,0,188,12.0,84.0
3150,47.0,0,188,12.0,84.0
3151,35.0,0,188,6.0,96.0
3152,74.0,0,572,3.0,93.0
3153,47.0,0,188,5.0,96.0
3154,71.0,0,572,11.0,84.0
3155,47.0,48,188,8.0,100.0
3156,35.0,0,188,8.0,100.0
3157,66.0,0,572,7.0,100.0
3158,74.0,0,572,11.0,84.0
3159,66.0,192,572,11.0,84.0
3160,66.0,0,572,4.0,96.0
3161,47.0,0,188,12.0,84.0
3162,35.0,0,188,12.0,84.0
3163,35.0,0,188,6.0,96.0
3164,71.0,0,572,7.0,100.0
3165,74.0,0,572,7.0,100.0
3166,71.0,0,572,2.0,96.0
3167,49.0,192,188,12.0,84.0
3168,49.0,0,188,5.0,96.0
3169,37.0,0,188,12.0,84.0
3170,37.0,0,188,6.0,96.0
3171,49.0,0,188,8.0,100.0
3172,37.0,0,188,8.0,100.0
3173,88.0,0,476,1.0,103.0
3174,88.0,0,476,10.0,90.0
3175,37.0,0,188,6.0,96.0
3176,37.0,0,188,8.0,100.0
3177,37.0,0,188,12.0,84.0
3178,49.0,0,188,12.0,84.0
3179,86.0,0,92,10.0,90.0
3180,86.0,96,92,1.0,103.0
3181,49.0,192,188,5.0,96.0
3182,49.0,0,188,8.0,100.0
3183,70.0,0,572,7.0,100.0
3184,70.0,0,572,11.0,84.0
3185,64.0,0,572,4.0,96.0
3186,37.0,0,188,8.0,100.0
3187,49.0,0,188,8.0,100.0
3188,85.0,0,188,1.0,103.0
3189,64.0,0,572,7.0,100.0
3190,64.0,0,572,11.0,84.0
3191,37.0,0,188,6.0,96.0
3192,49.0,0,188,5.0,96.0
3193,85.0,96,188,10.0,90.0
3194,70.0,0,572,3.0,93.0
3195,49.0,0,188,12.0,84.0
3196,37.0,0,188,12.0,84.0
3197,85.0,0,92,1.0,103.0
3198,85.0,0,92,10.0,90.0
3199,38.0,0,188,8.0,100.0
3200,38.0,0,188,6.0,96.0
3201,38.0,0,188,12.0,84.0
3202,50.0,0,188,12.0,84.0
3203,50.0,0,188,5.0,96.0
3204,50.0,0,188,8.0,100.0
3205,47.0,0,188,12.0,84.0
3206,47.0,96,188,8.0,100.0
3207,35.0,0,188,12.0,84.0
3208,35.0,0,188,8.0,100.0
3209,67.0,0,956,2.0,96.0
3210,35.0,0,188,6.0,96.0
3211,67.0,0,956,11.0,84.0
3212,47.0,0,188,5.0,96.0
3213,67.0,0,956,7.0,100.0
3214,50.0,0,188,5.0,96.0
3215,38.0,0,188,6.0,96.0
3216,66.0,0,188,11.0,84.0
3217,66.0,0,188,2.0,96.0
3218,66.0,0,188,7.0,100.0
3219,38.0,192,188,12.0,84.0
3220,38.0,0,188,8.0,100.0
3221,50.0,0,188,12.0,84.0
3222,50.0,0,188,8.0,100.0
3223,42.0,0,188,12.0,84.0
3224,42.0,192,188,8.0,100.0
3225,42.0,0,188,6.0,96.0
3226,54.0,0,188,5.0,96.0
3227,54.0,0,188,12.0,84.0
3228,54.0,0,188,8.0,100.0
3229,83.0,0,764,10.0,90.0
3230,83.0,96,764,1.0,103.0
3231,71.0,0,380,11.0,84.0
3232,38.0,192,188,8.0,100.0
3233,50.0,0,188,8.0,100.0
3234,86.0,96,92,1.0,103.0
3235,50.0,0,188,12.0,84.0
3236,71.0,0,380,2.0,96.0
3237,86.0,0,92,10.0,90.0
3238,71.0,0,380,7.0,100.0
3239,38.0,0,188,12.0,84.0
3240,38.0,0,188,6.0,96.0
3241,50.0,0,188,5.0,96.0
3242,54.0,96,188,5.0,96.0
3243,83.0,0,188,10.0,90.0
3244,42.0,0,188,6.0,96.0
3245,74.0,0,188,7.0,100.0
3246,74.0,0,188,2.0,96.0
3247,54.0,0,188,8.0,100.0
3248,42.0,0,188,8.0,100.0
3249,42.0,0,188,12.0,84.0
3250,54.0,0,188,12.0,84.0
3251,74.0,0,188,11.0,84.0
3252,83.0,0,188,1.0,103.0
3253,81.0,0,92,1.0,103.0
3254,81.0,0,92,10.0,90.0
3255,59.0,0,188,8.0,100.0
3256,47.0,0,188,8.0,100.0
3257,47.0,0,188,6.0,96.0
3258,47.0,0,188,12.0,84.0
3259,59.0,0,188,5.0,96.0
3260,59.0,0,188,12.0,84.0
3261,79.0,96,188,1.0,103.0
3262,79.0,0,188,10.0,90.0
3263,86.0,96,92,10.0,90.0
3264,47.0,0,188,8.0,100.0
3265,47.0,96,188,12.0,84.0
3266,59.0,0,188,12.0,84.0
3267,86.0,0,92,1.0,103.0
3268,59.0,0,188,8.0,100.0
3269,59.0,0,188,5.0,96.0
3270,47.0,0,188,6.0,96.0
3271,59.0,96,188,8.0,100.0
3272,83.0,0,188,10.0,90.0
3273,59.0,0,188,5.0,96.0
3274,47.0,0,188,6.0,96.0
3275,79.0,0,572,7.0,100.0
3276,59.0,0,188,12.0,84.0
3277,47.0,0,188,12.0,84.0
3278,79.0,192,572,2.0,96.0
3279,47.0,0,188,8.0,100.0
3280,83.0,0,188,1.0,103.0
3281,79.0,0,572,11.0,84.0
3282,79.0,0,92,1.0,103.0
3283,79.0,0,92,10.0,90.0
3284,45.0,0,188,12.0,84.0
3285,57.0,192,188,12.0,84.0
3286,57.0,0,188,5.0,96.0
3287,45.0,0,188,8.0,100.0
3288,57.0,0,188,8.0,100.0
3289,45.0,0,188,6.0,96.0
3290,78.0,96,188,1.0,103.0
3291,78.0,0,188,10.0,90.0
3292,86.0,0,92,10.0,90.0
3293,45.0,0,188,6.0,96.0
3294,45.0,0,188,12.0,84.0
3295,57.0,96,188,12.0,84.0
3296,57.0,0,188,5.0,96.0
3297,57.0,0,188,8.0,100.0
3298,86.0,96,92,1.0,103.0
3299,45.0,0,188,8.0,100.0
3300,78.0,0,572,7.0,100.0
3301,45.0,0,188,12.0,84.0
3302,57.0,0,188,12.0,84.0
3303,78.0,0,572,2.0,96.0
3304,83.0,96,188,10.0,90.0
3305,45.0,0,188,6.0,96.0
3306,78.0,0,572,11.0,84.0
3307,57.0,0,188,5.0,96.0
3308,57.0,0,188,8.0,100.0
3309,45.0,0,188,8.0,100.0
3310,83.0,0,188,1.0,103.0
3311,78.0,0,92,1.0,103.0
3312,78.0,0,92,10.0,90.0
3313,56.0,0,188,12.0,84.0
3314,56.0,0,188,5.0,96.0
3315,44.0,192,188,6.0,96.0
3316,56.0,0,188,8.0,100.0
3317,44.0,0,188,12.0,84.0
3318,44.0,0,188,8.0,100.0
3319,77.0,0,188,10.0,90.0
3320,77.0,96,188,1.0,103.0
3321,80.0,96,44,10.0,90.0
3322,80.0,0,44,1.0,103.0
3323,56.0,0,188,5.0,96.0
3324,56.0,0,188,12.0,84.0
3325,44.0,0,188,12.0,84.0
3326,44.0,0,188,8.0,100.0
3327,81.0,0,44,1.0,103.0
3328,44.0,0,188,6.0,96.0
3329,81.0,48,44,10.0,90.0
3330,56.0,96,188,8.0,100.0
3331,62.0,0,2876,11.0,84.0
3332,77.0,0,572,2.0,96.0
3333,44.0,0,188,6.0,96.0
3334,77.0,0,572,11.0,84.0
3335,56.0,0,188,8.0,100.0
3336,62.0,0,2876,4.0,96.0
3337,56.0,0,188,12.0,84.0
3338,44.0,0,188,12.0,84.0
3339,77.0,0,572,7.0,100.0
3340,83.0,0,188,1.0,103.0
3341,83.0,0,188,10.0,90.0
3342,56.0,0,188,5.0,96.0
3343,62.0,0,2876,7.0,100.0
3344,44.0,48,188,8.0,100.0
3345,73.0,0,92,10.0,90.0
3346,73.0,0,92,1.0,103.0
3347,53.0,0,188,5.0,96.0
3348,41.0,0,188,6.0,96.0
3349,53.0,192,188,8.0,100.0
3350,41.0,0,188,8.0,100.0
3351,41.0,0,188,12.0,84.0
3352,53.0,0,188,12.0,84.0
3353,74.0,96,188,10.0,90.0
3354,74.0,0,188,1.0,103.0
3355,73.0,96,92,10.0,90.0
3356,53.0,0,188,5.0,96.0
3357,41.0,0,188,12.0,84.0
3358,41.0,0,188,8.0,100.0
3359,53.0,0,188,8.0,100.0
3360,53.0,0,188,12.0,84.0
3361,41.0,96,188,6.0,96.0
3362,73.0,0,92,1.0,103.0
3363,71.0,0,3452,3.0,93.0
3364,71.0,0,188,1.0,103.0
3365,53.0,0,188,8.0,100.0
3366,41.0,96,188,6.0,96.0
3367,41.0,0,188,8.0,100.0
3368,56.0,0,572,7.0,100.0
3369,71.0,0,188,10.0,90.0
3370,53.0,0,188,5.0,96.0
3371,56.0,0,572,4.0,96.0
3372,41.0,0,188,12.0,84.0
3373,53.0,0,188,12.0,84.0
3374,56.0,0,572,11.0,84.0
3375,61.0,0,188,11.0,84.0
3376,61.0,0,188,7.0,100.0
3377,61.0,0,188,4.0,96.0
3378,57.0,0,190,12.0,84.0
3379,45.0,0,190,12.0,84.0
3380,57.0,0,190,8.0,100.0
3381,80.0,0,766,7.0,100.0
3382,45.0,0,190,8.0,100.0
3383,80.0,0,766,11.0,84.0
3384,69.0,192,190,11.0,84.0
3385,69.0,0,190,7.0,100.0
3386,45.0,0,190,6.0,96.0
3387,69.0,0,190,3.0,93.0
3388,57.0,0,190,5.0,96.0
3389,80.0,0,766,2.0,96.0
3390,73.0,0,286,10.0,90.0
3391,73.0,0,286,1.0,103.0
3392,75.0,0,46,10.0,90.0
3393,75.0,96,46,1.0,103.0
3394,68.0,0,188,7.0,100.0
3395,68.0,0,188,11.0,84.0
3396,68.0,0,188,4.0,96.0
3397,77.0,48,46,1.0,103.0
3398,77.0,0,190,7.0,100.0
3399,77.0,0,190,11.0,84.0
3400,71.0,192,190,3.0,93.0
3401,77.0,0,190,2.0,96.0
3402,44.0,0,190,6.0,96.0
3403,71.0,0,190,11.0,84.0
3404,71.0,0,190,7.0,100.0
3405,56.0,0,190,12.0,84.0
3406,56.0,0,190,8.0,100.0
3407,56.0,0,190,5.0,96.0
3408,44.0,0,190,12.0,84.0
3409,44.0,0,190,8.0,100.0
3410,77.0,0,46,10.0,90.0
3411,78.0,0,46,1.0,103.0
3412,78.0,0,46,10.0,90.0
3413,80.0,0,46,10.0,90.0
3414,80.0,48,46,1.0,103.0
3415,81.0,48,46,10.0,90.0
3416,81.0,0,46,1.0,103.0
3417,69.0,0,188,4.0,96.0
3418,69.0,0,188,11.0,84.0
3419,69.0,0,188,7.0,100.0
3420,80.0,0,46,1.0,103.0
3421,42.0,0,190,6.0,96.0
3422,78.0,0,190,7.0,100.0
3423,78.0,48,190,2.0,96.0
3424,54.0,0,190,5.0,96.0
3425,54.0,0,190,12.0,84.0
3426,54.0,0,190,8.0,100.0
3427,80.0,48,46,10.0,90.0
3428,42.0,0,190,12.0,84.0
3429,78.0,0,190,11.0,84.0
3430,42.0,0,190,8.0,100.0
3431,80.0,0,46,2.0,96.0
3432,80.0,0,46,7.0,100.0
3433,80.0,0,46,11.0,84.0
3434,81.0,0,46,2.0,96.0
3435,81.0,48,46,7.0,100.0
3436,81.0,0,46,11.0,84.0
3437,68.0,0,128,7.0,100.0
3438,68.0,0,128,4.0,96.0
3439,83.0,0,128,1.0,103.0
3440,68.0,0,128,11.0,84.0
3441,83.0,0,128,10.0,90.0
3442,83.0,0,94,11.0,84.0
3443,83.0,0,94,2.0,96.0
3444,61.0,0,190,12.0,84.0
3445,73.0,0,382,3.0,93.0
3446,73.0,0,382,11.0,84.0
3447,83.0,48,94,7.0,100.0
3448,73.0,0,382,7.0,100.0
3449,49.0,0,190,6.0,96.0
3450,61.0,0,190,5.0,96.0
3451,49.0,48,190,8.0,100.0
3452,61.0,0,190,8.0,100.0
3453,49.0,0,190,12.0,84.0
3454,69.0,0,128,7.0,100.0
3455,69.0,0,128,11.0,84.0
3456,78.0,0,128,7.0,100.0
3457,81.0,0,128,2.0,96.0
3458,78.0,0,128,11.0,84.0
3459,81.0,0,128,7.0,100.0
3460,69.0,0,128,4.0,96.0
3461,81.0,0,128,10.0,90.0
3462,81.0,0,128,1.0,103.0
3463,81.0,0,128,11.0,84.0
3464,78.0,0,128,3.0,93.0
3465,49.0,0,190,8.0,100.0
3466,49.0,96,190,6.0,96.0
3467,61.0,0,190,5.0,96.0
3468,61.0,0,190,12.0,84.0
3469,49.0,0,190,12.0,84.0
3470,61.0,0,190,8.0,100.0
3471,81.0,192,44,1.0,103.0
3472,81.0,0,44,10.0,90.0
3473,80.0,48,20,1.0,103.0
3474,80.0,0,20,10.0,90.0
3475,81.0,24,20,10.0,90.0
3476,81.0,0,20,1.0,103.0
3477,80.0,24,20,1.0,103.0
3478,80.0,0,20,10.0,90.0
3479,80.0,0,128,11.0,84.0
3480,77.0,0,128,11.0,84.0
3481,71.0,0,128,11.0,84.0
3482,71.0,0,128,4.0,96.0
3483,80.0,0,128,7.0,100.0
3484,80.0,0,128,2.0,96.0
3485,71.0,0,128,7.0,100.0
3486,77.0,0,128,3.0,93.0
3487,77.0,0,128,7.0,100.0
3488,81.0,0,20,10.0,90.0
3489,81.0,24,20,1.0,103.0
3490,80.0,24,44,10.0,90.0
3491,80.0,0,44,1.0,103.0
3492,49.0,0,190,8.0,100.0
3493,37.0,0,190,8.0,100.0
3494,49.0,0,190,5.0,96.0
3495,37.0,0,190,6.0,96.0
3496,49.0,0,190,12.0,84.0
3497,37.0,0,190,12.0,84.0
3498,42.0,0,190,8.0,100.0
3499,54.0,0,190,8.0,100.0
3500,54.0,0,190,5.0,96.0
3501,42.0,0,190,12.0,84.0
3502,42.0,0,190,6.0,96.0
3503,54.0,0,190,12.0,84.0
3504,57.0,0,190,5.0,96.0
3505,45.0,0,190,12.0,84.0
3506,57.0,192,190,12.0,84.0
3507,45.0,0,190,6.0,96.0
3508,45.0,0,190,8.0,100.0
3509,57.0,0,190,8.0,100.0
3510,37.0,0,190,12.0,84.0
3511,49.0,0,190,5.0,96.0
3512,49.0,0,190,12.0,84.0
3513,37.0,192,190,8.0,100.0
3514,49.0,0,190,8.0,100.0
3515,37.0,0,190,6.0,96.0
3516,54.0,0,190,12.0,84.0
3517,42.0,0,190,12.0,84.0
3518,54.0,192,190,8.0,100.0
3519,42.0,0,190,8.0,100.0
3520,42.0,0,190,6.0,96.0
3521,54.0,0,190,5.0,96.0
3522,73.0,0,286,0.0,125.0
3523,78.0,0,956,10.0,90.0
3524,69.0,0,956,11.0,84.0
3525,69.0,0,956,7.0,100.0
3526,69.0,0,956,4.0,96.0
3527,78.0,0,956,1.0,103.0
3528,78.0,0,958,7.0,100.0
3529,45.0,192,190,8.0,100.0
3530,33.0,0,190,8.0,100.0
3531,73.0,0,958,7.0,100.0
3532,33.0,0,190,12.0,84.0
3533,45.0,0,190,12.0,84.0
3534,73.0,48,958,11.0,84.0
3535,33.0,0,190,6.0,96.0
3536,45.0,0,190,5.0,96.0
3537,78.0,0,958,11.0,84.0
3538,73.0,0,958,3.0,93.0
3539,78.0,0,958,2.0,96.0
3540,71.0,96,94,0.0,125.0
3541,69.0,0,94,0.0,125.0
3542,68.0,96,94,0.0,125.0
3543,49.0,0,190,12.0,84.0
3544,37.0,0,190,12.0,84.0
3545,37.0,0,190,8.0,100.0
3546,37.0,96,190,6.0,96.0
3547,49.0,0,190,8.0,100.0
3548,49.0,0,190,5.0,96.0
3549,66.0,0,188,7.0,100.0
3550,66.0,0,188,4.0,96.0
3551,66.0,0,188,11.0,84.0
3552,69.0,0,190,7.0,100.0
3553,69.0,0,190,11.0,84.0
3554,69.0,0,190,3.0,93.0
3555,68.0,0,188,4.0,96.0
3556,68.0,0,188,11.0,84.0
3557,68.0,0,188,7.0,100.0
3558,30.0,0,382,8.0,100.0
3559,84.0,96,94,10.0,90.0
3560,42.0,0,382,8.0,100.0
3561,71.0,192,190,11.0,84.0
3562,30.0,0,382,6.0,96.0
3563,30.0,0,382,12.0,84.0
3564,84.0,0,94,1.0,103.0
3565,42.0,0,382,12.0,84.0
3566,71.0,0,190,3.0,93.0
3567,71.0,0,190,7.0,100.0
3568,42.0,0,382,5.0,96.0
3569,69.0,0,188,11.0,84.0
3570,69.0,0,188,7.0,100.0
3571,69.0,0,188,4.0,96.0
3572,72.0,96,190,11.0,84.0
3573,72.0,0,190,3.0,93.0
3574,81.0,0,190,10.0,90.0
3575,72.0,0,190,7.0,100.0
3576,81.0,0,190,1.0,103.0
3577,78.0,0,94,1.0,103.0
3578,78.0,192,94,10.0,90.0
3579,69.0,0,188,7.0,100.0
3580,69.0,0,188,4.0,96.0
3581,69.0,0,188,11.0,84.0
3582,72.0,0,190,3.0,93.0
3583,72.0,0,190,7.0,100.0
3584,72.0,0,190,11.0,84.0
3585,76.0,0,190,10.0,90.0
3586,76.0,96,190,1.0,103.0
3587,67.0,0,188,4.0,96.0
3588,67.0,0,188,11.0,84.0
3589,67.0,0,188,7.0,100.0
3590,71.0,0,190,7.0,100.0
3591,84.0,0,94,1.0,103.0
3592,84.0,96,94,10.0,90.0
3593,71.0,0,190,3.0,93.0
3594,71.0,96,190,11.0,84.0
3595,69.0,0,188,11.0,84.0
3596,69.0,96,188,7.0,100.0
3597,69.0,0,188,4.0,96.0
3598,72.0,0,190,11.0,84.0
3599,81.0,0,190,1.0,103.0
3600,72.0,0,190,7.0,100.0
3601,72.0,0,190,3.0,93.0
3602,81.0,0,190,10.0,90.0
3603,76.0,0,94,1.0,103.0
3604,76.0,0,94,10.0,90.0
3605,66.0,0,188,11.0,84.0
3606,66.0,0,188,7.0,100.0
3607,66.0,0,188,4.0,96.0
3608,47.0,0,190,12.0,84.0
3609,47.0,0,190,5.0,96.0
3610,35.0,0,190,12.0,84.0
3611,75.0,0,94,1.0,103.0
3612,71.0,0,190,11.0,84.0
3613,35.0,0,190,6.0,96.0
3614,75.0,96,94,10.0,90.0
3615,35.0,0,190,8.0,100.0
3616,47.0,0,190,8.0,100.0
3617,71.0,0,190,3.0,93.0
3618,71.0,192,190,7.0,100.0
3619,69.0,0,1438,0.0,125.0
3620,69.0,0,46,0.0,125.0
3621,78.0,0,46,11.0,84.0
3622,78.0,96,46,2.0,96.0
3623,78.0,0,46,7.0,100.0
3624,64.0,0,188,7.0,100.0
3625,64.0,0,188,11.0,84.0
3626,64.0,0,188,4.0,96.0
3627,73.0,0,190,3.0,93.0
3628,79.0,0,46,2.0,96.0
3629,47.0,0,190,8.0,100.0
3630,35.0,96,190,6.0,96.0
3631,79.0,0,46,11.0,84.0
3632,73.0,0,190,11.0,84.0
3633,79.0,0,46,7.0,100.0
3634,73.0,0,190,7.0,100.0
3635,47.0,0,190,12.0,84.0
3636,35.0,0,190,12.0,84.0
3637,71.0,48,46,0.0,125.0
3638,35.0,0,190,8.0,100.0
3639,47.0,0,190,5.0,96.0
3640,66.0,0,188,11.0,84.0
3641,66.0,0,188,7.0,100.0
3642,66.0,0,188,4.0,96.0
3643,47.0,0,190,5.0,96.0
3644,75.0,0,190,11.0,84.0
3645,75.0,0,190,3.0,93.0
3646,35.0,0,190,8.0,100.0
3647,75.0,0,190,7.0,100.0
3648,35.0,0,190,12.0,84.0
3649,47.0,0,190,8.0,100.0
3650,47.0,0,190,12.0,84.0
3651,35.0,0,190,6.0,96.0
3652,47.0,0,190,5.0,96.0
3653,47.0,0,190,8.0,100.0
3654,35.0,0,190,12.0,84.0
3655,35.0,0,190,8.0,100.0
3656,35.0,0,190,6.0,96.0
3657,47.0,0,190,12.0,84.0
3658,81.0,0,478,2.0,96.0
3659,81.0,48,478,11.0,84.0
3660,72.0,0,478,0.0,125.0
3661,81.0,0,478,7.0,100.0
3662,66.0,0,380,7.0,100.0
3663,66.0,192,380,11.0,84.0
3664,66.0,0,380,4.0,96.0
3665,35.0,0,190,12.0,84.0
3666,47.0,0,190,12.0,84.0
3667,75.0,0,382,11.0,84.0
3668,79.0,0,94,7.0,100.0
3669,71.0,0,94,0.0,125.0
3670,75.0,0,382,3.0,93.0
3671,75.0,0,382,7.0,100.0
3672,35.0,0,190,8.0,100.0
3673,47.0,0,190,8.0,100.0
3674,79.0,96,94,11.0,84.0
3675,47.0,192,190,5.0,96.0
3676,35.0,0,190,6.0,96.0
3677,79.0,0,94,2.0,96.0
3678,35.0,0,190,8.0,100.0
3679,47.0,0,190,5.0,96.0
3680,47.0,0,190,12.0,84.0
3681,35.0,0,190,12.0,84.0
3682,69.0,0,190,0.0,125.0
3683,47.0,0,190,8.0,100.0
3684,78.0,0,190,11.0,84.0
3685,78.0,0,190,7.0,100.0
3686,78.0,96,190,2.0,96.0
3687,35.0,0,190,6.0,96.0
3688,59.0,0,188,4.0,96.0
3689,59.0,0,188,11.0,84.0
3690,59.0,0,188,7.0,100.0
3691,64.0,0,190,11.0,84.0
3692,64.0,0,190,3.0,93.0
3693,64.0,0,190,7.0,100.0
3694,63.0,0,188,11.0,84.0
3695,63.0,0,188,4.0,96.0
3696,63.0,0,188,7.0,100.0
3697,40.0,0,382,5.0,96.0
3698,40.0,0,382,8.0,100.0
3699,28.0,192,382,8.0,100.0
3700,79.0,96,94,10.0,90.0
3701,66.0,0,190,7.0,100.0
3702,28.0,0,382,6.0,96.0
3703,66.0,192,190,3.0,93.0
3704,79.0,0,94,1.0,103.0
3705,28.0,0,382,12.0,84.0
3706,40.0,0,382,12.0,84.0
3707,66.0,0,190,11.0,84.0
3708,64.0,0,188,4.0,96.0
3709,64.0,0,188,11.0,84.0
3710,64.0,0,188,7.0,100.0
3711,76.0,0,190,10.0,90.0
3712,67.0,0,190,11.0,84.0
3713,76.0,0,190,1.0,103.0
3714,67.0,0,190,3.0,93.0
3715,67.0,96,190,7.0,100.0
3716,74.0,0,94,10.0,90.0
3717,74.0,0,94,1.0,103.0
3718,64.0,0,188,11.0,84.0
3719,64.0,0,188,4.0,96.0
3720,64.0,0,188,7.0,100.0
3721,67.0,0,190,3.0,93.0
3722,67.0,0,190,11.0,84.0
3723,67.0,192,190,7.0,100.0
3724,72.0,0,190,1.0,103.0
3725,72.0,96,190,10.0,90.0
3726,63.0,0,188,11.0,84.0
3727,63.0,0,188,7.0,100.0
3728,63.0,0,188,4.0,96.0
3729,66.0,96,190,3.0,93.0
3730,66.0,0,190,11.0,84.0
3731,79.0,96,94,1.0,103.0
3732,79.0,0,94,10.0,90.0
3733,66.0,0,190,7.0,100.0
3734,64.0,0,188,4.0,96.0
3735,64.0,0,188,11.0,84.0
3736,64.0,0,188,7.0,100.0
3737,67.0,0,190,11.0,84.0
3738,76.0,0,190,10.0,90.0
3739,67.0,0,190,7.0,100.0
3740,76.0,0,190,1.0,103.0
3741,67.0,96,190,3.0,93.0
3742,71.0,0,94,1.0,103.0
3743,71.0,0,94,10.0,90.0
3744,54.0,0,188,7.0,100.0
3745,54.0,0,188,11.0,84.0
3746,54.0,0,188,4.0,96.0
3747,30.0,0,190,8.0,100.0
3748,67.0,0,1342,0.0,125.0
3749,42.0,0,190,8.0,100.0
3750,76.0,0,1342,7.0,100.0
3751,42.0,0,190,5.0,96.0
3752,30.0,0,190,6.0,96.0
3753,30.0,0,190,12.0,84.0
3754,42.0,0,190,12.0,84.0
3755,76.0,0,1342,11.0,84.0
3756,70.0,0,94,10.0,90.0
3757,70.0,96,94,1.0,103.0
3758,76.0,0,1342,2.0,96.0
3759,64.0,0,188,4.0,96.0
3760,64.0,0,188,7.0,100.0
3761,64.0,0,188,11.0,84.0
3762,30.0,0,190,12.0,84.0
3763,30.0,0,190,6.0,96.0
3764,42.0,0,190,8.0,100.0
3765,30.0,0,190,8.0,100.0
3766,70.0,0,190,7.0,100.0
3767,61.0,0,382,7.0,100.0
3768,42.0,0,190,5.0,96.0
3769,70.0,0,190,11.0,84.0
3770,61.0,192,382,11.0,84.0
3771,66.0,96,190,0.0,125.0
3772,70.0,0,190,2.0,96.0
3773,42.0,0,190,12.0,84.0
3774,61.0,0,382,3.0,93.0
3775,62.0,0,188,4.0,96.0
3776,62.0,0,188,11.0,84.0
3777,62.0,0,188,7.0,100.0
3778,71.0,0,190,7.0,100.0
3779,30.0,0,190,12.0,84.0
3780,42.0,0,190,12.0,84.0
3781,68.0,0,190,0.0,125.0
3782,42.0,0,190,5.0,96.0
3783,30.0,192,190,6.0,96.0
3784,42.0,0,190,8.0,100.0
3785,30.0,0,190,8.0,100.0
3786,71.0,0,190,2.0,96.0
3787,71.0,0,190,11.0,84.0
3788,62.0,0,190,3.0,93.0
3789,73.0,0,94,7.0,100.0
3790,73.0,0,94,2.0,96.0
3791,73.0,0,94,11.0,84.0
3792,74.0,0,94,11.0,84.0
3793,30.0,0,190,6.0,96.0
3794,70.0,0,190,0.0,125.0
3795,30.0,0,190,12.0,84.0
3796,30.0,0,190,8.0,100.0
3797,42.0,0,190,5.0,96.0
3798,74.0,96,94,2.0,96.0
3799,42.0,0,190,12.0,84.0
3800,42.0,0,190,8.0,100.0
3801,74.0,0,94,7.0,100.0
3802,61.0,0,380,7.0,100.0
3803,61.0,0,380,4.0,96.0
3804,61.0,0,380,11.0,84.0
3805,64.0,192,382,3.0,93.0
3806,42.0,0,190,5.0,96.0
3807,30.0,0,190,6.0,96.0
3808,42.0,0,190,12.0,84.0
3809,30.0,0,190,12.0,84.0
3810,71.0,0,190,0.0,125.0
3811,76.0,0,190,7.0,100.0
3812,64.0,0,382,11.0,84.0
3813,76.0,0,190,11.0,84.0
3814,30.0,96,190,8.0,100.0
3815,64.0,0,382,7.0,100.0
3816,76.0,0,190,2.0,96.0
3817,42.0,0,190,8.0,100.0
3818,70.0,0,190,11.0,84.0
3819,70.0,0,190,7.0,100.0
3820,70.0,0,190,2.0,96.0
3821,42.0,0,190,12.0,84.0
3822,42.0,0,190,5.0,96.0
3823,73.0,0,190,0.0,125.0
3824,30.0,0,190,12.0,84.0
3825,42.0,192,190,8.0,100.0
3826,30.0,0,190,8.0,100.0
3827,30.0,0,190,6.0,96.0
3828,62.0,0,188,4.0,96.0
3829,62.0,0,188,7.0,100.0
3830,62.0,0,188,11.0,84.0
3831,66.0,0,190,11.0,84.0
3832,66.0,0,190,3.0,93.0
3833,66.0,0,190,7.0,100.0
3834,64.0,0,188,11.0,84.0
3835,64.0,0,188,7.0,100.0
3836,64.0,0,188,4.0,96.0
3837,47.0,0,382,12.0,84.0
3838,70.0,192,190,11.0,84.0
3839,70.0,0,190,3.0,93.0
3840,86.0,0,94,10.0,90.0
3841,86.0,96,94,1.0,103.0
3842,35.0,0,382,12.0,84.0
3843,47.0,0,382,5.0,96.0
3844,47.0,0,382,8.0,100.0
3845,35.0,0,382,8.0,100.0
3846,35.0,0,382,6.0,96.0
3847,70.0,0,190,7.0,100.0
3848,66.0,0,188,4.0,96.0
3849,66.0,0,188,11.0,84.0
3850,66.0,0,188,7.0,100.0
3851,83.0,0,190,10.0,90.0
3852,71.0,0,190,11.0,84.0
3853,71.0,0,190,3.0,93.0
3854,71.0,0,190,7.0,100.0
3855,83.0,96,190,1.0,103.0
3856,81.0,0,94,10.0,90.0
3857,81.0,0,94,1.0,103.0
3858,67.0,0,188,4.0,96.0
3859,67.0,0,188,11.0,84.0
3860,67.0,0,188,7.0,100.0
3861,71.0,0,190,3.0,93.0
3862,71.0,0,190,11.0,84.0
3863,71.0,192,190,7.0,100.0
3864,79.0,96,190,10.0,90.0
3865,79.0,0,190,1.0,103.0
3866,64.0,0,188,7.0,100.0
3867,64.0,0,188,4.0,96.0
3868,64.0,0,188,11.0,84.0
3869,70.0,0,190,3.0,93.0
3870,70.0,96,190,11.0,84.0
3871,86.0,96,94,10.0,90.0
3872,86.0,0,94,1.0,103.0
3873,70.0,0,190,7.0,100.0
3874,66.0,96,188,4.0,96.0
3875,66.0,0,188,11.0,84.0
3876,66.0,0,188,7.0,100.0
3877,83.0,0,190,10.0,90.0
3878,71.0,0,190,3.0,93.0
3879,71.0,0,190,11.0,84.0
3880,71.0,0,190,7.0,100.0
3881,83.0,0,190,1.0,103.0
3882,78.0,0,94,10.0,90.0
3883,78.0,0,94,1.0,103.0
3884,49.0,0,190,12.0,84.0
3885,49.0,0,190,5.0,96.0
3886,49.0,0,190,8.0,100.0
3887,37.0,0,190,8.0,100.0
3888,77.0,0,94,10.0,90.0
3889,37.0,0,190,12.0,84.0
3890,77.0,96,94,1.0,103.0
3891,61.0,0,190,7.0,100.0
3892,61.0,0,190,3.0,93.0
3893,37.0,0,190,6.0,96.0
3894,61.0,192,190,11.0,84.0
3895,74.0,192,1438,0.0,125.0
3896,71.0,0,1438,2.0,96.0
3897,56.0,0,380,4.0,96.0
3898,56.0,0,380,7.0,100.0
3899,56.0,0,380,11.0,84.0
3900,49.0,0,190,5.0,96.0
3901,63.0,0,190,11.0,84.0
3902,69.0,0,94,11.0,84.0
3903,37.0,0,190,12.0,84.0
3904,49.0,0,190,8.0,100.0
3905,37.0,96,190,6.0,96.0
3906,69.0,0,94,2.0,96.0
3907,69.0,0,94,7.0,100.0
3908,73.0,96,94,0.0,125.0
3909,63.0,0,190,3.0,93.0
3910,49.0,0,190,12.0,84.0
3911,37.0,0,190,8.0,100.0
3912,63.0,0,190,7.0,100.0
3913,61.0,0,188,7.0,100.0
3914,61.0,0,188,11.0,84.0
3915,61.0,96,188,4.0,96.0
3916,68.0,0,190,7.0,100.0
3917,65.0,0,190,7.0,100.0
3918,49.0,0,190,12.0,84.0
3919,37.0,0,190,12.0,84.0
3920,65.0,0,190,3.0,93.0
3921,65.0,0,190,11.0,84.0
3922,68.0,0,190,11.0,84.0
3923,68.0,0,190,2.0,96.0
3924,37.0,0,190,8.0,100.0
3925,49.0,0,190,8.0,100.0
3926,37.0,0,190,6.0,96.0
3927,49.0,0,190,5.0,96.0
3928,71.0,0,190,0.0,125.0
3929,68.0,0,46,2.0,96.0
3930,68.0,0,46,11.0,84.0
3931,71.0,0,46,0.0,125.0
3932,68.0,0,46,7.0,100.0
3933,73.0,48,46,0.0,125.0
3934,69.0,0,46,7.0,100.0
3935,69.0,0,46,11.0,84.0
3936,69.0,0,46,2.0,96.0
3937,37.0,0,190,6.0,96.0
3938,37.0,192,190,8.0,100.0
3939,49.0,0,190,8.0,100.0
3940,49.0,0,190,5.0,96.0
3941,37.0,0,190,12.0,84.0
3942,49.0,0,190,12.0,84.0
3943,74.0,0,190,0.0,125.0
3944,71.0,0,190,7.0,100.0
3945,71.0,0,190,2.0,96.0
3946,71.0,48,190,11.0,84.0
3947,68.0,0,380,4.0,96.0
3948,37.0,0,190,12.0,84.0
3949,69.0,0,94,11.0,84.0
3950,65.0,0,382,11.0,84.0
3951,49.0,0,190,5.0,96.0
3952,49.0,0,190,12.0,84.0
3953,37.0,0,190,6.0,96.0
3954,37.0,96,190,8.0,100.0
3955,49.0,0,190,8.0,100.0
3956,65.0,0,382,7.0,100.0
3957,73.0,0,94,0.0,125.0
3958,65.0,0,382,3.0,93.0
3959,69.0,0,94,2.0,96.0
3960,69.0,96,94,7.0,100.0
3961,37.0,0,190,12.0,84.0
3962,68.0,0,190,7.0,100.0
3963,68.0,0,190,11.0,84.0
3964,37.0,0,190,6.0,96.0
3965,68.0,96,190,2.0,96.0
3966,49.0,0,190,5.0,96.0
3967,49.0,0,190,8.0,100.0
3968,37.0,0,190,8.0,100.0
3969,71.0,0,190,0.0,125.0
3970,49.0,0,190,12.0,84.0
3971,81.0,0,46,10.0,90.0
3972,81.0,0,46,1.0,103.0
3973,83.0,0,46,10.0,90.0
3974,83.0,48,46,1.0,103.0
3975,42.0,192,190,8.0,100.0
3976,30.0,0,190,8.0,100.0
3977,69.0,0,190,0.0,125.0
3978,30.0,0,190,12.0,84.0
3979,42.0,0,190,5.0,96.0
3980,30.0,0,190,6.0,96.0
3981,42.0,0,190,12.0,84.0
3982,85.0,0,190,10.0,90.0
3983,85.0,48,190,1.0,103.0
3984,83.0,96,46,10.0,90.0
3985,83.0,0,46,1.0,103.0
3986,42.0,0,190,12.0,84.0
3987,81.0,48,46,10.0,90.0
3988,81.0,0,46,1.0,103.0
3989,42.0,0,190,8.0,100.0
3990,30.0,0,190,12.0,84.0
3991,42.0,96,190,5.0,96.0
3992,30.0,0,190,8.0,100.0
3993,30.0,0,190,6.0,96.0
3994,66.0,0,190,0.0,125.0
3995,83.0,0,46,1.0,103.0
3996,83.0,0,46,10.0,90.0
3997,81.0,48,46,1.0,103.0
3998,81.0,0,46,10.0,90.0
3999,57.0,0,572,11.0,84.0
4000,57.0,0,572,7.0,100.0
4001,57.0,0,572,4.0,96.0
4002,61.0,0,574,7.0,100.0
4003,66.0,0,574,11.0,84.0
4004,42.0,0,190,5.0,96.0
4005,80.0,48,94,1.0,103.0
4006,66.0,0,574,7.0,100.0
4007,30.0,0,190,12.0,84.0
4008,68.0,0,190,0.0,125.0
4009,66.0,0,574,2.0,96.0
4010,80.0,0,94,10.0,90.0
4011,61.0,0,574,3.0,93.0
4012,30.0,0,190,6.0,96.0
4013,42.0,0,190,8.0,100.0
4014,30.0,0,190,8.0,100.0
4015,42.0,48,190,12.0,84.0
4016,61.0,0,574,11.0,84.0
4017,78.0,0,46,10.0,90.0
4018,78.0,0,46,1.0,103.0
4019,80.0,0,46,10.0,90.0
4020,80.0,48,46,1.0,103.0
4021,42.0,0,190,8.0,100.0
4022,30.0,0,190,8.0,100.0
4023,42.0,0,190,12.0,84.0
4024,30.0,0,190,6.0,96.0
4025,30.0,0,190,12.0,84.0
4026,42.0,0,190,5.0,96.0
4027,81.0,48,190,1.0,103.0
4028,81.0,0,190,10.0,90.0
4029,80.0,96,46,10.0,90.0
4030,80.0,0,46,1.0,103.0
4031,30.0,96,190,8.0,100.0
4032,78.0,0,46,1.0,103.0
4033,30.0,0,190,6.0,96.0
4034,42.0,0,190,8.0,100.0
4035,30.0,0,190,12.0,84.0
4036,42.0,0,190,12.0,84.0
4037,42.0,0,190,5.0,96.0
4038,78.0,48,46,10.0,90.0
4039,80.0,0,46,1.0,103.0
4040,80.0,0,46,10.0,90.0
4041,78.0,0,46,10.0,90.0
4042,78.0,48,46,1.0,103.0
4043,61.0,96,572,11.0,84.0
4044,61.0,0,572,4.0,96.0
4045,61.0,0,572,7.0,100.0
4046,76.0,48,94,1.0,103.0
4047,66.0,0,574,7.0,100.0
4048,69.0,0,574,7.0,100.0
4049,30.0,48,190,12.0,84.0
4050,30.0,0,190,6.0,96.0
4051,69.0,0,574,11.0,84.0
4052,42.0,0,190,12.0,84.0
4053,66.0,0,574,11.0,84.0
4054,30.0,0,190,8.0,100.0
4055,69.0,0,574,2.0,96.0
4056,42.0,0,190,5.0,96.0
4057,76.0,0,94,10.0,90.0
4058,66.0,0,574,3.0,93.0
4059,42.0,0,190,8.0,100.0
4060,74.0,0,46,1.0,103.0
4061,74.0,96,46,10.0,90.0
4062,76.0,48,46,1.0,103.0
4063,76.0,0,46,10.0,90.0
4064,42.0,0,190,5.0,96.0
4065,30.0,0,190,8.0,100.0
4066,42.0,0,190,8.0,100.0
4067,69.0,0,766,0.0,125.0
4068,30.0,0,190,6.0,96.0
4069,30.0,0,190,12.0,84.0
4070,42.0,0,190,12.0,84.0
4071,78.0,48,190,10.0,90.0
4072,78.0,0,190,1.0,103.0
4073,76.0,96,46,1.0,103.0
4074,76.0,0,46,10.0,90.0
4075,42.0,0,190,8.0,100.0
4076,75.0,48,46,10.0,90.0
4077,30.0,96,190,6.0,96.0
4078,30.0,0,190,8.0,100.0
4079,30.0,0,190,12.0,84.0
4080,72.0,0,190,0.0,125.0
4081,75.0,0,46,1.0,103.0
4082,42.0,0,190,12.0,84.0
4083,42.0,0,190,5.0,96.0
4084,76.0,0,46,10.0,90.0
4085,76.0,0,46,1.0,103.0
4086,75.0,48,46,10.0,90.0
4087,75.0,0,46,1.0,103.0
4088,66.0,0,572,7.0,100.0
4089,66.0,0,572,4.0,96.0
4090,66.0,0,572,11.0,84.0
4091,74.0,0,574,7.0,100.0
4092,30.0,0,190,6.0,96.0
4093,73.0,48,94,10.0,90.0
4094,73.0,0,190,2.0,96.0
4095,69.0,0,574,11.0,84.0
4096,73.0,48,190,11.0,84.0
4097,30.0,0,190,12.0,84.0
4098,42.0,0,190,12.0,84.0
4099,73.0,0,94,1.0,103.0
4100,73.0,0,190,7.0,100.0
4101,69.0,0,574,7.0,100.0
4102,73.0,0,190,0.0,125.0
4103,42.0,0,190,5.0,96.0
4104,74.0,0,574,11.0,84.0
4105,30.0,0,190,8.0,100.0
4106,42.0,0,190,8.0,100.0
4107,69.0,0,574,3.0,93.0
4108,74.0,0,574,2.0,96.0
4109,60.0,0,188,11.0,84.0
4110,60.0,0,188,7.0,100.0
4111,60.0,0,188,4.0,96.0
4112,80.0,0,190,2.0,96.0
4113,54.0,0,190,8.0,100.0
4114,54.0,0,190,12.0,84.0
4115,42.0,0,190,12.0,84.0
4116,54.0,0,190,5.0,96.0
4117,42.0,0,190,6.0,96.0
4118,42.0,0,190,8.0,100.0
4119,68.0,0,190,3.0,93.0
4120,80.0,0,190,7.0,100.0
4121,68.0,96,190,7.0,100.0
4122,75.0,0,190,0.0,125.0
4123,72.0,0,190,1.0,103.0
4124,72.0,0,190,10.0,90.0
4125,80.0,0,190,11.0,84.0
4126,68.0,0,190,11.0,84.0
4127,51.0,0,190,5.0,96.0
4128,66.0,0,190,0.0,125.0
4129,39.0,0,190,12.0,84.0
4130,51.0,0,190,8.0,100.0
4131,39.0,0,190,8.0,100.0
4132,51.0,0,190,12.0,84.0
4133,39.0,192,190,6.0,96.0
4134,36.0,0,190,12.0,84.0
4135,48.0,0,190,12.0,84.0
4136,36.0,0,190,8.0,100.0
4137,48.0,0,190,8.0,100.0
4138,48.0,0,190,5.0,96.0
4139,36.0,192,190,6.0,96.0
4140,69.0,0,190,0.0,125.0
4141,52.0,0,190,12.0,84.0
4142,40.0,0,190,8.0,100.0
4143,52.0,0,190,8.0,100.0
4144,52.0,0,190,5.0,96.0
4145,40.0,0,190,12.0,84.0
4146,40.0,0,190,6.0,96.0
4147,68.0,192,286,0.0,125.0
4148,40.0,0,190,8.0,100.0
4149,52.0,192,190,8.0,100.0
4150,52.0,0,190,5.0,96.0
4151,40.0,0,190,6.0,96.0
4152,52.0,0,190,12.0,84.0
4153,40.0,0,190,12.0,84.0
4154,73.0,96,94,0.0,125.0
4155,52.0,0,190,8.0,100.0
4156,52.0,0,190,12.0,84.0
4157,40.0,0,190,6.0,96.0
4158,52.0,0,190,5.0,96.0
4159,40.0,0,190,12.0,84.0
4160,69.0,96,190,0.0,125.0
4161,40.0,0,190,8.0,100.0
4162,68.0,0,94,0.0,125.0
4163,57.0,0,190,8.0,100.0
4164,57.0,0,190,12.0,84.0
4165,45.0,0,190,12.0,84.0
4166,45.0,0,190,8.0,100.0
4167,45.0,0,190,6.0,96.0
4168,57.0,0,190,5.0,96.0
4169,57.0,0,190,8.0,100.0
4170,81.0,0,94,1.0,103.0
4171,57.0,96,190,5.0,96.0
4172,45.0,0,190,6.0,96.0
4173,45.0,0,190,8.0,100.0
4174,57.0,0,190,12.0,84.0
4175,45.0,0,190,12.0,84.0
4176,81.0,96,94,10.0,90.0
4177,45.0,0,190,12.0,84.0
4178,57.0,0,190,12.0,84.0
4179,73.0,0,574,11.0,84.0
4180,45.0,96,190,6.0,96.0
4181,57.0,0,190,8.0,100.0
4182,73.0,0,574,2.0,96.0
4183,78.0,0,190,10.0,90.0
4184,73.0,0,574,7.0,100.0
4185,45.0,0,190,8.0,100.0
4186,57.0,0,190,5.0,96.0
4187,78.0,0,190,1.0,103.0
4188,76.0,0,94,10.0,90.0
4189,76.0,0,94,1.0,103.0
4190,42.0,0,190,8.0,100.0
4191,54.0,0,190,8.0,100.0
4192,66.0,96,670,0.0,125.0
4193,54.0,192,190,5.0,96.0
4194,42.0,0,190,12.0,84.0
4195,42.0,0,190,6.0,96.0
4196,54.0,0,190,12.0,84.0
4197,74.0,0,190,1.0,103.0
4198,74.0,96,190,10.0,90.0
4199,54.0,96,190,8.0,100.0
4200,81.0,0,94,10.0,90.0
4201,42.0,0,190,6.0,96.0
4202,42.0,0,190,8.0,100.0
4203,42.0,0,190,12.0,84.0
4204,54.0,0,190,12.0,84.0
4205,65.0,0,190,0.0,125.0
4206,54.0,0,190,5.0,96.0
4207,81.0,96,94,1.0,103.0
4208,54.0,0,190,8.0,100.0
4209,42.0,0,190,6.0,96.0
4210,74.0,0,574,11.0,84.0
4211,74.0,0,574,2.0,96.0
4212,54.0,0,190,12.0,84.0
4213,54.0,0,190,5.0,96.0
4214,42.0,0,190,12.0,84.0
4215,78.0,96,190,10.0,90.0
4216,74.0,0,574,7.0,100.0
4217,78.0,0,190,1.0,103.0
4218,66.0,0,190,0.0,125.0
4219,42.0,0,190,8.0,100.0
4220,74.0,0,94,10.0,90.0
4221,74.0,0,94,1.0,103.0
4222,52.0,0,190,8.0,100.0
4223,40.0,0,190,8.0,100.0
4224,69.0,0,190,0.0,125.0
4225,52.0,0,190,5.0,96.0
4226,40.0,0,190,6.0,96.0
4227,52.0,192,190,12.0,84.0
4228,40.0,0,190,12.0,84.0
4229,73.0,0,190,1.0,103.0
4230,74.0,0,94,0.0,125.0
4231,73.0,96,190,10.0,90.0
4232,40.0,0,190,6.0,96.0
4233,72.0,96,94,0.0,125.0
4234,40.0,0,190,12.0,84.0
4235,52.0,0,190,12.0,84.0
4236,52.0,0,190,8.0,100.0
4237,40.0,96,190,8.0,100.0
4238,81.0,0,94,1.0,103.0
4239,52.0,0,190,5.0,96.0
4240,81.0,0,94,10.0,90.0
4241,78.0,0,190,1.0,103.0
4242,40.0,0,190,8.0,100.0
4243,52.0,96,190,8.0,100.0
4244,73.0,0,574,11.0,84.0
4245,52.0,0,190,12.0,84.0
4246,73.0,0,574,2.0,96.0
4247,52.0,0,190,5.0,96.0
4248,40.0,0,190,6.0,96.0
4249,40.0,0,190,12.0,84.0
4250,73.0,0,190,0.0,125.0
4251,73.0,0,574,7.0,100.0
4252,78.0,0,190,10.0,90.0
4253,73.0,0,94,10.0,90.0
4254,73.0,0,94,1.0,103.0
4255,51.0,192,190,8.0,100.0
4256,39.0,0,190,8.0,100.0
4257,39.0,0,190,6.0,96.0
4258,39.0,0,190,12.0,84.0
4259,51.0,0,190,12.0,84.0
4260,51.0,0,190,5.0,96.0
4261,72.0,0,190,1.0,103.0
4262,72.0,96,190,10.0,90.0
4263,66.0,0,286,0.0,125.0
4264,66.0,0,2108,4.0,96.0
4265,66.0,192,2108,7.0,100.0
4266,66.0,0,2108,11.0,84.0
4267,40.0,0,190,6.0,96.0
4268,72.0,0,382,11.0,84.0
4269,69.0,0,2110,7.0,100.0
4270,72.0,0,382,7.0,100.0
4271,69.0,0,2110,3.0,93.0
4272,52.0,0,190,12.0,84.0
4273,69.0,96,94,0.0,125.0
4274,40.0,0,190,12.0,84.0
4275,40.0,0,190,8.0,100.0
4276,52.0,0,190,8.0,100.0
4277,72.0,0,382,2.0,96.0
4278,69.0,0,2110,11.0,84.0
4279,52.0,96,190,5.0,96.0
4280,42.0,96,190,12.0,84.0
4281,54.0,0,190,12.0,84.0
4282,42.0,0,190,6.0,96.0
4283,54.0,0,190,8.0,100.0
4284,68.0,0,190,0.0,125.0
4285,42.0,0,190,8.0,100.0
4286,54.0,0,190,5.0,96.0
4287,40.0,0,190,12.0,84.0
4288,40.0,0,190,6.0,96.0
4289,52.0,0,190,5.0,96.0
4290,68.0,0,190,0.0,125.0
4291,52.0,192,190,12.0,84.0
4292,40.0,0,190,8.0,100.0
4293,52.0,0,190,8.0,100.0
4294,66.0,0,94,0.0,125.0
4295,64.0,96,94,0.0,125.0
4296,42.0,0,190,8.0,100.0
4297,54.0,0,190,5.0,96.0
4298,54.0,0,190,12.0,84.0
4299,42.0,192,190,12.0,84.0
4300,42.0,0,190,6.0,96.0
4301,54.0,0,190,8.0,100.0
4302,63.0,0,94,0.0,125.0
4303,44.0,96,190,12.0,84.0
4304,56.0,0,190,12.0,84.0
4305,44.0,0,190,6.0,96.0
4306,44.0,0,190,8.0,100.0
4307,61.0,96,94,0.0,125.0
4308,56.0,0,190,8.0,100.0
4309,56.0,0,190,5.0,96.0
4310,65.0,0,188,7.0,100.0
4311,65.0,0,188,4.0,96.0
4312,65.0,0,188,11.0,84.0
4313,37.0,0,190,12.0,84.0
4314,49.0,0,190,12.0,84.0
4315,37.0,0,190,6.0,96.0
4316,49.0,96,190,5.0,96.0
4317,37.0,0,190,8.0,100.0
4318,49.0,0,190,8.0,100.0
4319,68.0,0,188,7.0,100.0
4320,68.0,192,188,4.0,96.0
4321,68.0,0,188,11.0,84.0
4322,49.0,0,190,5.0,96.0
4323,49.0,0,190,8.0,100.0
4324,37.0,0,190,8.0,100.0
4325,49.0,0,190,12.0,84.0
4326,37.0,0,190,12.0,84.0
4327,37.0,0,190,6.0,96.0
4328,68.0,0,572,2.0,96.0
4329,37.0,0,190,6.0,96.0
4330,49.0,0,190,12.0,84.0
4331,49.0,24,190,5.0,96.0
4332,37.0,0,190,8.0,100.0
4333,49.0,0,190,8.0,100.0
4334,37.0,0,190,12.0,84.0
4335,71.0,168,380,4.0,96.0
4336,71.0,0,380,11.0,84.0
4337,71.0,0,380,7.0,100.0
4338,41.0,192,190,12.0,84.0
4339,53.0,0,190,5.0,96.0
4340,41.0,0,190,6.0,96.0
4341,61.0,0,766,0.0,125.0
4342,53.0,0,190,12.0,84.0
4343,41.0,0,190,8.0,100.0
4344,53.0,0,190,8.0,100.0
4345,69.0,0,188,11.0,84.0
4346,69.0,168,188,7.0,100.0
4347,69.0,0,188,4.0,96.0
4348,41.0,0,190,8.0,100.0
4349,53.0,0,190,5.0,96.0
4350,41.0,0,190,12.0,84.0
4351,53.0,0,190,8.0,100.0
4352,41.0,0,190,6.0,96.0
4353,53.0,24,190,12.0,84.0
4354,68.0,168,188,11.0,84.0
4355,68.0,0,188,7.0,100.0
4356,68.0,0,188,4.0,96.0
4357,68.0,0,1148,3.0,93.0
4358,53.0,0,190,5.0,96.0
4359,53.0,0,190,8.0,100.0
4360,41.0,0,190,12.0,84.0
4361,53.0,0,190,12.0,84.0
4362,41.0,0,190,8.0,100.0
4363,73.0,0,190,1.0,103.0
4364,41.0,24,190,6.0,96.0
4365,73.0,0,190,10.0,90.0
4366,78.0,0,46,1.0,103.0
4367,78.0,0,46,10.0,90.0
4368,80.0,48,46,1.0,103.0
4369,80.0,0,46,10.0,90.0
4370,42.0,0,190,6.0,96.0
4371,54.0,0,190,8.0,100.0
4372,54.0,0,190,12.0,84.0
4373,54.0,0,190,5.0,96.0
4374,42.0,192,190,12.0,84.0
4375,42.0,0,190,8.0,100.0
4376,81.0,0,190,1.0,103.0
4377,81.0,48,190,10.0,90.0
4378,80.0,0,46,10.0,90.0
4379,80.0,96,46,1.0,103.0
4380,54.0,0,190,12.0,84.0
4381,54.0,0,190,8.0,100.0
4382,42.0,96,190,6.0,96.0
4383,42.0,0,190,8.0,100.0
4384,42.0,0,190,12.0,84.0
4385,81.0,0,46,1.0,103.0
4386,54.0,0,190,5.0,96.0
4387,81.0,48,46,10.0,90.0
4388,73.0,0,1148,7.0,100.0
4389,69.0,0,572,4.0,96.0
4390,69.0,0,572,7.0,100.0
4391,73.0,0,1148,11.0,84.0
4392,69.0,0,572,11.0,84.0
4393,73.0,0,1148,2.0,96.0
4394,66.0,0,574,3.0,93.0
4395,54.0,0,190,12.0,84.0
4396,66.0,0,574,7.0,100.0
4397,66.0,0,574,11.0,84.0
4398,54.0,0,190,8.0,100.0
4399,42.0,0,190,8.0,100.0
4400,42.0,48,190,6.0,96.0
4401,54.0,0,190,5.0,96.0
4402,42.0,0,190,12.0,84.0
4403,37.0,0,190,12.0,84.0
4404,68.0,0,190,3.0,93.0
4405,68.0,0,190,11.0,84.0
4406,68.0,0,190,7.0,100.0
4407,37.0,0,190,6.0,96.0
4408,49.0,0,190,5.0,96.0
4409,49.0,0,190,12.0,84.0
4410,37.0,0,190,8.0,100.0
4411,49.0,0,190,8.0,100.0
4412,83.0,0,478,1.0,103.0
4413,83.0,0,478,10.0,90.0
4414,37.0,0,190,6.0,96.0
4415,49.0,0,190,12.0,84.0
4416,49.0,0,190,8.0,100.0
4417,69.0,0,190,3.0,93.0
4418,81.0,96,94,10.0,90.0
4419,81.0,0,94,1.0,103.0
4420,37.0,0,190,12.0,84.0
4421,69.0,0,190,7.0,100.0
4422,37.0,192,190,8.0,100.0
4423,69.0,0,190,11.0,84.0
4424,49.0,0,190,5.0,96.0
4425,73.0,0,572,11.0,84.0
4426,73.0,192,572,4.0,96.0
4427,73.0,0,572,7.0,100.0
4428,71.0,0,190,7.0,100.0
4429,49.0,96,190,8.0,100.0
4430,77.0,0,574,2.0,96.0
4431,49.0,0,190,5.0,96.0
4432,77.0,0,574,7.0,100.0
4433,49.0,0,190,12.0,84.0
4434,71.0,0,190,3.0,93.0
4435,80.0,0,190,10.0,90.0
4436,80.0,0,190,1.0,103.0
4437,37.0,0,190,12.0,84.0
4438,77.0,0,574,11.0,84.0
4439,37.0,0,190,8.0,100.0
4440,71.0,0,190,11.0,84.0
4441,37.0,0,190,6.0,96.0
4442,61.0,0,188,7.0,100.0
4443,61.0,0,188,11.0,84.0
4444,61.0,0,188,4.0,96.0
4445,50.0,192,190,5.0,96.0
4446,50.0,0,190,12.0,84.0
4447,38.0,0,190,12.0,84.0
4448,38.0,0,190,8.0,100.0
4449,38.0,0,190,6.0,96.0
4450,50.0,0,190,8.0,100.0
4451,50.0,192,190,12.0,84.0
4452,38.0,0,190,12.0,84.0
4453,38.0,0,190,6.0,96.0
4454,69.0,0,382,7.0,100.0
4455,50.0,0,190,8.0,100.0
4456,38.0,0,190,8.0,100.0
4457,50.0,0,190,5.0,96.0
4458,69.0,0,382,11.0,84.0
4459,69.0,0,382,3.0,93.0
4460,71.0,0,190,3.0,93.0
4461,38.0,0,190,6.0,96.0
4462,78.0,0,574,2.0,96.0
4463,78.0,0,574,7.0,100.0
4464,71.0,0,190,7.0,100.0
4465,50.0,192,190,5.0,96.0
4466,50.0,0,190,8.0,100.0
4467,78.0,0,574,11.0,84.0
4468,38.0,0,190,8.0,100.0
4469,38.0,0,190,12.0,84.0
4470,50.0,0,190,12.0,84.0
4471,71.0,0,190,11.0,84.0
4472,34.0,0,190,8.0,100.0
4473,46.0,0,190,8.0,100.0
4474,34.0,0,190,12.0,84.0
4475,46.0,0,190,12.0,84.0
4476,34.0,0,190,6.0,96.0
4477,46.0,0,190,5.0,96.0
4478,34.0,0,190,6.0,96.0
4479,46.0,0,190,8.0,100.0
4480,46.0,0,190,12.0,84.0
4481,34.0,0,190,12.0,84.0
4482,34.0,0,190,8.0,100.0
4483,46.0,192,190,5.0,96.0
4484,76.0,0,574,7.0,100.0
4485,46.0,0,190,12.0,84.0
4486,73.0,0,574,7.0,100.0
4487,46.0,192,190,5.0,96.0
4488,46.0,0,190,8.0,100.0
4489,34.0,0,190,8.0,100.0
4490,73.0,0,574,3.0,93.0
4491,34.0,0,190,12.0,84.0
4492,73.0,0,574,11.0,84.0
4493,76.0,0,574,11.0,84.0
4494,76.0,192,574,2.0,96.0
4495,66.0,0,190,0.0,125.0
4496,34.0,0,190,6.0,96.0
4497,35.0,0,190,6.0,96.0
4498,47.0,0,190,5.0,96.0
4499,47.0,0,190,12.0,84.0
4500,47.0,0,190,8.0,100.0
4501,35.0,0,190,12.0,84.0
4502,35.0,192,190,8.0,100.0
4503,74.0,0,286,0.0,125.0
4504,73.0,96,46,0.0,125.0
4505,35.0,0,190,12.0,84.0
4506,47.0,0,190,12.0,84.0
4507,35.0,0,190,6.0,96.0
4508,35.0,192,190,8.0,100.0
4509,47.0,0,190,8.0,100.0
4510,74.0,48,46,0.0,125.0
4511,47.0,0,190,5.0,96.0
4512,74.0,0,574,7.0,100.0
4513,71.0,0,574,7.0,100.0
4514,74.0,0,574,2.0,96.0
4515,35.0,0,190,12.0,84.0
4516,71.0,0,574,11.0,84.0
4517,71.0,0,574,3.0,93.0
4518,35.0,0,190,8.0,100.0
4519,47.0,48,190,12.0,84.0
4520,47.0,0,190,8.0,100.0
4521,35.0,0,190,6.0,96.0
4522,47.0,0,190,5.0,96.0
4523,74.0,0,574,11.0,84.0
4524,42.0,0,190,12.0,84.0
4525,30.0,0,190,6.0,96.0
4526,30.0,0,190,12.0,84.0
4527,42.0,0,190,5.0,96.0
4528,30.0,0,190,8.0,100.0
4529,42.0,0,190,8.0,100.0
4530,76.0,0,478,0.0,125.0
4531,66.0,0,1916,11.0,84.0
4532,66.0,0,1916,4.0,96.0
4533,66.0,0,1916,7.0,100.0
4534,42.0,0,190,8.0,100.0
4535,74.0,96,94,0.0,125.0
4536,30.0,0,190,12.0,84.0
4537,30.0,0,190,6.0,96.0
4538,42.0,0,190,12.0,84.0
4539,42.0,192,190,5.0,96.0
4540,30.0,0,190,8.0,100.0
4541,64.0,0,188,4.0,96.0
4542,64.0,0,188,7.0,100.0
4543,64.0,96,188,11.0,84.0
4544,30.0,0,190,12.0,84.0
4545,42.0,0,190,12.0,84.0
4546,73.0,0,574,7.0,100.0
4547,70.0,0,574,7.0,100.0
4548,73.0,0,574,2.0,96.0
4549,42.0,0,190,8.0,100.0
4550,30.0,0,190,8.0,100.0
4551,73.0,192,574,11.0,84.0
4552,70.0,0,574,11.0,84.0
4553,42.0,0,190,5.0,96.0
4554,70.0,0,574,3.0,93.0
4555,73.0,0,190,0.0,125.0
4556,30.0,0,190,6.0,96.0
4557,43.0,0,190,12.0,84.0
4558,31.0,192,190,6.0,96.0
4559,31.0,0,190,8.0,100.0
4560,43.0,0,190,8.0,100.0
4561,43.0,0,190,5.0,96.0
4562,31.0,0,190,12.0,84.0
4563,78.0,0,2590,10.0,90.0
4564,78.0,0,2590,1.0,103.0
4565,62.0,0,380,4.0,96.0
4566,62.0,0,380,7.0,100.0
4567,62.0,0,380,11.0,84.0
4568,43.0,0,190,5.0,96.0
4569,31.0,192,190,6.0,96.0
4570,71.0,0,382,0.0,125.0
4571,83.0,0,94,10.0,90.0
4572,43.0,0,190,12.0,84.0
4573,83.0,96,94,1.0,103.0
4574,31.0,0,190,8.0,100.0
4575,43.0,0,190,8.0,100.0
4576,31.0,0,190,12.0,84.0
4577,64.0,96,188,7.0,100.0
4578,64.0,0,188,11.0,84.0
4579,64.0,0,188,4.0,96.0
4580,43.0,0,190,12.0,84.0
4581,79.0,0,190,1.0,103.0
4582,31.0,0,190,6.0,96.0
4583,31.0,0,190,8.0,100.0
4584,43.0,0,190,8.0,100.0
4585,43.0,0,190,5.0,96.0
4586,31.0,0,190,12.0,84.0
4587,71.0,0,574,7.0,100.0
4588,71.0,0,574,2.0,96.0
4589,64.0,0,190,0.0,125.0
4590,71.0,0,574,11.0,84.0
4591,79.0,0,190,10.0,90.0
4592,72.0,0,94,1.0,103.0
4593,72.0,192,94,10.0,90.0
4594,35.0,0,190,6.0,96.0
4595,35.0,0,190,8.0,100.0
4596,47.0,0,190,8.0,100.0
4597,47.0,0,190,12.0,84.0
4598,35.0,0,190,12.0,84.0
4599,47.0,0,190,5.0,96.0
4600,71.0,0,190,10.0,90.0
4601,71.0,96,190,1.0,103.0
4602,81.0,0,94,1.0,103.0
4603,71.0,0,958,3.0,93.0
4604,81.0,96,94,10.0,90.0
4605,35.0,96,190,12.0,84.0
4606,47.0,0,190,12.0,84.0
4607,35.0,0,190,8.0,100.0
4608,47.0,0,190,5.0,96.0
4609,47.0,0,190,8.0,100.0
4610,35.0,0,190,6.0,96.0
4611,63.0,0,382,0.0,125.0
4612,66.0,0,572,11.0,84.0
4613,66.0,0,572,4.0,96.0
4614,66.0,0,572,7.0,100.0
4615,47.0,0,190,12.0,84.0
4616,71.0,0,190,0.0,125.0
4617,75.0,0,190,11.0,84.0
4618,78.0,0,574,11.0,84.0
4619,78.0,0,190,1.0,103.0
4620,78.0,0,190,10.0,90.0
4621,35.0,96,190,8.0,100.0
4622,35.0,0,190,6.0,96.0
4623,75.0,0,190,3.0,93.0
4624,78.0,0,574,2.0,96.0
4625,78.0,0,574,7.0,100.0
4626,47.0,0,190,5.0,96.0
4627,75.0,0,190,7.0,100.0
4628,35.0,0,190,12.0,84.0
4629,47.0,0,190,8.0,100.0
4630,69.0,0,94,1.0,103.0
4631,69.0,0,94,10.0,90.0
4632,40.0,0,190,8.0,100.0
4633,40.0,0,190,12.0,84.0
4634,52.0,0,190,12.0,84.0
4635,52.0,0,190,8.0,100.0
4636,52.0,0,190,5.0,96.0
4637,40.0,0,190,6.0,96.0
4638,67.0,96,190,1.0,103.0
4639,67.0,0,190,10.0,90.0
4640,79.0,0,94,10.0,90.0
4641,40.0,0,190,6.0,96.0
4642,52.0,96,190,12.0,84.0
4643,40.0,0,190,8.0,100.0
4644,52.0,0,190,8.0,100.0
4645,52.0,0,190,5.0,96.0
4646,79.0,96,94,1.0,103.0
4647,72.0,192,382,0.0,125.0
4648,40.0,0,190,12.0,84.0
4649,76.0,96,190,10.0,90.0
4650,40.0,0,190,12.0,84.0
4651,76.0,0,190,1.0,103.0
4652,71.0,0,190,0.0,125.0
4653,40.0,0,190,6.0,96.0
4654,52.0,0,190,5.0,96.0
4655,40.0,0,190,8.0,100.0
4656,52.0,0,190,8.0,100.0
4657,52.0,0,190,12.0,84.0
4658,72.0,0,94,10.0,90.0
4659,72.0,0,94,1.0,103.0
4660,38.0,192,190,12.0,84.0
4661,50.0,0,190,8.0,100.0
4662,38.0,0,190,6.0,96.0
4663,50.0,0,190,12.0,84.0
4664,38.0,0,190,8.0,100.0
4665,50.0,0,190,5.0,96.0
4666,71.0,0,190,1.0,103.0
4667,71.0,96,190,10.0,90.0
4668,38.0,0,190,6.0,96.0
4669,50.0,0,190,5.0,96.0
4670,79.0,0,94,10.0,90.0
4671,71.0,0,382,0.0,125.0
4672,38.0,0,190,8.0,100.0
4673,50.0,0,190,8.0,100.0
4674,50.0,0,190,12.0,84.0
4675,79.0,96,94,1.0,103.0
4676,38.0,96,190,12.0,84.0
4677,76.0,0,190,10.0,90.0
4678,50.0,0,190,12.0,84.0
4679,38.0,96,190,12.0,84.0
4680,38.0,0,190,6.0,96.0
4681,50.0,0,190,8.0,100.0
4682,38.0,0,190,8.0,100.0
4683,76.0,0,190,1.0,103.0
4684,50.0,0,190,5.0,96.0
4685,70.0,0,190,0.0,125.0
4686,71.0,0,94,10.0,90.0
4687,71.0,0,94,1.0,103.0
4688,37.0,0,190,12.0,84.0
4689,49.0,0,190,12.0,84.0
4690,37.0,0,190,6.0,96.0
4691,49.0,0,190,8.0,100.0
4692,37.0,192,190,8.0,100.0
4693,49.0,0,190,5.0,96.0
4694,70.0,0,190,1.0,103.0
4695,70.0,96,190,10.0,90.0
4696,76.0,96,46,1.0,103.0
4697,76.0,0,46,10.0,90.0
4698,49.0,0,190,8.0,100.0
4699,49.0,96,190,5.0,96.0
4700,70.0,0,382,0.0,125.0
4701,37.0,0,190,8.0,100.0
4702,78.0,0,46,10.0,90.0
4703,78.0,48,46,1.0,103.0
4704,37.0,0,190,12.0,84.0
4705,49.0,0,190,12.0,84.0
4706,37.0,0,190,6.0,96.0
4707,64.0,0,1724,11.0,84.0
4708,64.0,0,1724,4.0,96.0
4709,64.0,0,1724,7.0,100.0
4710,37.0,0,190,6.0,96.0
4711,49.0,0,190,5.0,96.0
4712,37.0,0,190,12.0,84.0
4713,37.0,0,190,8.0,100.0
4714,49.0,0,190,12.0,84.0
4715,79.0,0,1726,7.0,100.0
4716,79.0,0,1726,11.0,84.0
4717,49.0,0,190,8.0,100.0
4718,71.0,0,190,0.0,125.0
4719,79.0,0,1726,2.0,96.0
4720,46.0,0,190,12.0,84.0
4721,34.0,0,190,12.0,84.0
4722,46.0,192,190,5.0,96.0
4723,46.0,0,190,8.0,100.0
4724,34.0,0,190,8.0,100.0
4725,34.0,0,190,6.0,96.0
4726,79.0,0,478,1.0,103.0
4727,79.0,48,478,10.0,90.0
4728,46.0,0,190,12.0,84.0
4729,34.0,0,190,12.0,84.0
4730,78.0,0,94,1.0,103.0
4731,34.0,0,190,8.0,100.0
4732,46.0,0,190,5.0,96.0
4733,46.0,0,190,8.0,100.0
4734,78.0,96,94,10.0,90.0
4735,34.0,192,190,6.0,96.0
4736,58.0,0,572,11.0,84.0
4737,58.0,0,572,7.0,100.0
4738,58.0,0,572,4.0,96.0
4739,76.0,0,2302,3.0,93.0
4740,76.0,0,190,1.0,103.0
4741,46.0,0,190,8.0,100.0
4742,34.0,0,190,8.0,100.0
4743,34.0,0,190,12.0,84.0
4744,46.0,0,190,12.0,84.0
4745,34.0,0,190,6.0,96.0
4746,73.0,0,574,2.0,96.0
4747,73.0,0,574,7.0,100.0
4748,46.0,96,190,5.0,96.0
4749,76.0,0,190,10.0,90.0
4750,76.0,0,2302,11.0,84.0
4751,73.0,0,574,11.0,84.0
4752,76.0,0,2302,7.0,100.0
4753,76.0,0,94,10.0,90.0
4754,76.0,0,94,1.0,103.0
4755,35.0,0,190,12.0,84.0
4756,35.0,192,190,6.0,96.0
4757,35.0,0,190,8.0,100.0
4758,47.0,0,190,5.0,96.0
4759,47.0,0,190,8.0,100.0
4760,47.0,0,190,12.0,84.0
4761,73.0,0,286,0.0,125.0
4762,74.0,0,190,10.0,90.0
4763,74.0,96,190,1.0,103.0
4764,73.0,0,46,10.0,90.0
4765,73.0,0,46,1.0,103.0
4766,35.0,0,190,6.0,96.0
4767,35.0,96,190,8.0,100.0
4768,47.0,0,190,8.0,100.0
4769,70.0,96,94,0.0,125.0
4770,74.0,0,46,10.0,90.0
4771,35.0,0,190,12.0,84.0
4772,47.0,0,190,12.0,84.0
4773,47.0,0,190,5.0,96.0
4774,74.0,48,46,1.0,103.0
4775,66.0,0,572,7.0,100.0
4776,66.0,0,572,11.0,84.0
4777,66.0,0,572,4.0,96.0
4778,35.0,48,190,8.0,100.0
4779,47.0,0,190,12.0,84.0
4780,35.0,0,190,12.0,84.0
4781,74.0,0,574,7.0,100.0
4782,74.0,0,574,11.0,84.0
4783,47.0,0,190,5.0,96.0
4784,74.0,0,574,3.0,93.0
4785,71.0,0,190,0.0,125.0
4786,74.0,0,574,2.0,96.0
4787,35.0,0,190,6.0,96.0
4788,47.0,0,190,8.0,100.0
4789,73.0,0,94,0.0,125.0
4790,43.0,0,190,5.0,96.0
4791,74.0,96,94,0.0,125.0
4792,31.0,0,190,12.0,84.0
4793,31.0,0,190,6.0,96.0
4794,43.0,0,190,12.0,84.0
4795,43.0,0,190,8.0,100.0
4796,31.0,0,190,8.0,100.0
4797,76.0,0,478,10.0,90.0
4798,76.0,0,478,1.0,103.0
4799,43.0,96,190,8.0,100.0
4800,31.0,0,190,8.0,100.0
4801,74.0,96,94,1.0,103.0
4802,31.0,0,190,6.0,96.0
4803,74.0,0,94,10.0,90.0
4804,76.0,0,190,0.0,125.0
4805,43.0,0,190,5.0,96.0
4806,43.0,0,190,12.0,84.0
4807,31.0,0,190,12.0,84.0
4808,67.0,0,572,7.0,100.0
4809,67.0,0,572,4.0,96.0
4810,67.0,0,572,11.0,84.0
4811,43.0,96,190,8.0,100.0
4812,31.0,0,190,6.0,96.0
4813,73.0,0,190,10.0,90.0
4814,76.0,0,574,7.0,100.0
4815,73.0,0,190,0.0,125.0
4816,76.0,192,574,11.0,84.0
4817,31.0,0,190,8.0,100.0
4818,71.0,0,574,11.0,84.0
4819,73.0,0,190,1.0,103.0
4820,76.0,0,574,2.0,96.0
4821,43.0,0,190,5.0,96.0
4822,43.0,0,190,12.0,84.0
4823,31.0,0,190,12.0,84.0
4824,71.0,0,574,3.0,93.0
4825,71.0,0,574,7.0,100.0
4826,71.0,0,94,1.0,103.0
4827,71.0,0,94,10.0,90.0
4828,61.0,0,188,7.0,100.0
4829,61.0,0,188,4.0,96.0
4830,61.0,0,188,11.0,84.0
4831,70.0,0,190,11.0,84.0
4832,70.0,0,190,3.0,93.0
4833,70.0,0,190,7.0,100.0
4834,62.0,0,188,7.0,100.0
4835,62.0,0,188,4.0,96.0
4836,62.0,0,188,11.0,84.0
4837,42.0,0,382,12.0,84.0
4838,42.0,0,382,5.0,96.0
4839,42.0,192,382,8.0,100.0
4840,71.0,96,190,3.0,93.0
4841,30.0,0,382,6.0,96.0
4842,30.0,0,382,12.0,84.0
4843,30.0,0,382,8.0,100.0
4844,71.0,0,190,7.0,100.0
4845,70.0,0,382,0.0,125.0
4846,71.0,0,190,11.0,84.0
4847,64.0,0,188,7.0,100.0
4848,64.0,0,188,11.0,84.0
4849,64.0,192,188,4.0,96.0
4850,68.0,0,190,0.0,125.0
4851,73.0,0,190,7.0,100.0
4852,73.0,0,190,11.0,84.0
4853,73.0,0,190,3.0,93.0
4854,58.0,0,188,7.0,100.0
4855,58.0,0,188,4.0,96.0
4856,58.0,0,188,11.0,84.0
4857,61.0,0,190,11.0,84.0
4858,61.0,192,190,7.0,100.0
4859,61.0,0,190,3.0,93.0
4860,59.0,0,188,7.0,100.0
4861,59.0,0,188,11.0,84.0
4862,59.0,192,188,4.0,96.0
4863,78.0,0,958,7.0,100.0
4864,66.0,0,382,0.0,125.0
4865,78.0,0,958,11.0,84.0
4866,70.0,96,862,10.0,90.0
4867,70.0,0,862,1.0,103.0
4868,62.0,0,190,3.0,93.0
4869,78.0,0,958,2.0,96.0
4870,62.0,0,190,7.0,100.0
4871,62.0,0,190,11.0,84.0
4872,61.0,0,188,11.0,84.0
4873,61.0,0,188,4.0,96.0
4874,61.0,0,188,7.0,100.0
4875,64.0,192,190,3.0,93.0
4876,70.0,0,190,2.0,96.0
4877,64.0,0,190,0.0,125.0
4878,70.0,0,190,11.0,84.0
4879,64.0,0,190,7.0,100.0
4880,70.0,0,190,7.0,100.0
4881,64.0,0,190,11.0,84.0
4882,69.0,0,46,11.0,84.0
4883,69.0,0,46,7.0,100.0
4884,69.0,0,46,2.0,96.0
4885,71.0,48,46,11.0,84.0
4886,71.0,0,46,7.0,100.0
4887,71.0,0,46,2.0,96.0
4888,59.0,0,188,11.0,84.0
4889,59.0,192,188,4.0,96.0
4890,59.0,0,188,7.0,100.0
4891,63.0,0,190,0.0,125.0
4892,66.0,0,190,11.0,84.0
4893,66.0,0,190,3.0,93.0
4894,66.0,0,190,7.0,100.0
4895,66.0,0,94,0.0,125.0
4896,59.0,0,188,4.0,96.0
4897,59.0,0,188,11.0,84.0
4898,59.0,0,188,7.0,100.0
4899,66.0,96,190,3.0,93.0
4900,47.0,0,382,5.0,96.0
4901,71.0,0,94,11.0,84.0
4902,66.0,0,190,11.0,84.0
4903,72.0,0,286,11.0,84.0
4904,47.0,0,382,8.0,100.0
4905,69.0,0,94,0.0,125.0
4906,35.0,0,382,8.0,100.0
4907,35.0,0,382,6.0,96.0
4908,71.0,0,94,2.0,96.0
4909,72.0,48,286,2.0,96.0
4910,47.0,0,382,12.0,84.0
4911,72.0,0,286,7.0,100.0
4912,35.0,0,382,12.0,84.0
4913,66.0,0,190,7.0,100.0
4914,71.0,96,94,7.0,100.0
4915,59.0,0,188,4.0,96.0
4916,59.0,96,188,7.0,100.0
4917,59.0,0,188,11.0,84.0
4918,69.0,0,190,7.0,100.0
4919,69.0,0,190,2.0,96.0
4920,66.0,0,190,7.0,100.0
4921,66.0,0,190,11.0,84.0
4922,69.0,0,190,11.0,84.0
4923,66.0,0,190,3.0,93.0
4924,59.0,0,188,7.0,100.0
4925,59.0,0,188,4.0,96.0
4926,59.0,0,188,11.0,84.0
4927,66.0,192,190,7.0,100.0
4928,66.0,0,190,11.0,84.0
4929,66.0,0,190,3.0,93.0
4930,75.0,0,286,7.0,100.0
4931,75.0,0,286,2.0,96.0
4932,75.0,0,286,11.0,84.0
4933,72.0,0,478,0.0,125.0
4934,59.0,0,188,4.0,96.0
4935,59.0,192,188,7.0,100.0
4936,59.0,0,188,11.0,84.0
4937,71.0,0,94,0.0,125.0
4938,66.0,0,190,3.0,93.0
4939,66.0,0,190,11.0,84.0
4940,76.0,0,94,11.0,84.0
4941,76.0,0,94,7.0,100.0
4942,66.0,0,190,7.0,100.0
4943,76.0,96,94,2.0,96.0
4944,59.0,0,188,11.0,84.0
4945,59.0,0,188,7.0,100.0
4946,59.0,0,188,4.0,96.0
4947,78.0,0,190,7.0,100.0
4948,78.0,0,190,2.0,96.0
4949,66.0,0,190,3.0,93.0
4950,69.0,0,190,0.0,125.0
4951,78.0,0,190,11.0,84.0
4952,66.0,0,190,11.0,84.0
4953,66.0,96,190,7.0,100.0
4954,69.0,0,94,0.0,125.0
4955,59.0,0,188,4.0,96.0
4956,59.0,0,188,7.0,100.0
4957,59.0,0,188,11.0,84.0
4958,67.0,0,190,7.0,100.0
4959,67.0,0,190,3.0,93.0
4960,78.0,0,190,7.0,100.0
4961,78.0,0,190,2.0,96.0
4962,78.0,0,190,11.0,84.0
4963,67.0,0,190,11.0,84.0
4964,55.0,0,188,7.0,100.0
4965,55.0,0,188,4.0,96.0
4966,55.0,0,188,11.0,84.0
4967,64.0,0,190,3.0,93.0
4968,52.0,0,382,5.0,96.0
4969,76.0,0,94,10.0,90.0
4970,52.0,0,382,8.0,100.0
4971,76.0,96,94,1.0,103.0
4972,64.0,0,190,11.0,84.0
4973,40.0,192,382,8.0,100.0
4974,40.0,0,382,6.0,96.0
4975,52.0,0,382,12.0,84.0
4976,64.0,0,190,7.0,100.0
4977,40.0,0,382,12.0,84.0
4978,57.0,0,188,11.0,84.0
4979,57.0,0,188,4.0,96.0
4980,57.0,0,188,7.0,100.0
4981,71.0,0,190,10.0,90.0
4982,71.0,0,190,1.0,103.0
4983,66.0,96,190,11.0,84.0
4984,66.0,0,190,3.0,93.0
4985,66.0,0,190,7.0,100.0
4986,69.0,0,94,1.0,103.0
4987,69.0,0,94,10.0,90.0
4988,59.0,0,188,7.0,100.0
4989,59.0,192,188,11.0,84.0
4990,59.0,0,188,4.0,96.0
4991,67.0,0,190,3.0,93.0
4992,67.0,0,190,7.0,100.0
4993,67.0,0,190,11.0,84.0
4994,61.0,0,188,11.0,84.0
4995,61.0,0,188,4.0,96.0
4996,61.0,0,188,7.0,100.0
4997,64.0,96,190,3.0,93.0
4998,76.0,0,766,7.0,100.0
4999,76.0,96,766,11.0,84.0
5000,64.0,0,190,11.0,84.0
5001,76.0,0,766,2.0,96.0
5002,67.0,96,862,0.0,125.0
5003,64.0,0,190,7.0,100.0
5004,67.0,96,382,1.0,103.0
5005,67.0,0,382,10.0,90.0
5006,59.0,0,188,11.0,84.0
5007,59.0,0,188,4.0,96.0
5008,59.0,0,188,7.0,100.0
5009,62.0,0,190,11.0,84.0
5010,62.0,0,190,3.0,93.0
5011,62.0,192,190,7.0,100.0
5012,71.0,0,190,0.0,125.0
5013,57.0,0,188,4.0,96.0
5014,57.0,0,188,7.0,100.0
5015,57.0,0,188,11.0,84.0
5016,61.0,0,190,7.0,100.0
5017,61.0,0,190,3.0,93.0
5018,61.0,0,190,11.0,84.0
5019,67.0,0,478,11.0,84.0
5020,67.0,0,478,2.0,96.0
5021,67.0,0,478,7.0,100.0
5022,64.0,0,286,0.0,125.0
5023,59.0,0,188,11.0,84.0
5024,59.0,192,188,7.0,100.0
5025,59.0,0,188,4.0,96.0
5026,54.0,192,382,5.0,96.0
5027,66.0,0,94,11.0,84.0
5028,54.0,0,382,8.0,100.0
5029,62.0,0,190,3.0,93.0
5030,54.0,0,382,12.0,84.0
5031,62.0,0,190,7.0,100.0
5032,42.0,0,382,6.0,96.0
5033,42.0,0,382,8.0,100.0
5034,66.0,0,94,7.0,100.0
5035,62.0,0,190,11.0,84.0
5036,66.0,0,94,2.0,96.0
5037,66.0,96,94,0.0,125.0
5038,42.0,0,382,12.0,84.0
5039,61.0,0,188,7.0,100.0
5040,61.0,0,188,11.0,84.0
5041,61.0,0,188,4.0,96.0
5042,64.0,0,190,2.0,96.0
5043,64.0,0,190,11.0,84.0
5044,64.0,0,190,7.0,100.0
5045,54.0,0,188,7.0,100.0
5046,54.0,0,188,4.0,96.0
5047,54.0,0,188,11.0,84.0
5048,64.0,0,382,3.0,93.0
5049,70.0,0,286,2.0,96.0
5050,70.0,0,286,7.0,100.0
5051,70.0,192,286,11.0,84.0
5052,67.0,0,478,0.0,125.0
5053,54.0,0,188,7.0,100.0
5054,54.0,0,188,11.0,84.0
5055,54.0,0,188,4.0,96.0
5056,71.0,96,94,11.0,84.0
5057,66.0,0,94,0.0,125.0
5058,62.0,0,190,3.0,93.0
5059,71.0,0,94,2.0,96.0
5060,62.0,192,190,7.0,100.0
5061,62.0,0,190,11.0,84.0
5062,71.0,0,94,7.0,100.0
5063,54.0,0,188,7.0,100.0
5064,54.0,0,188,4.0,96.0
5065,54.0,96,188,11.0,84.0
5066,61.0,0,190,11.0,84.0
5067,73.0,0,190,2.0,96.0
5068,73.0,0,190,11.0,84.0
5069,61.0,0,190,7.0,100.0
5070,73.0,0,190,7.0,100.0
5071,64.0,0,190,0.0,125.0
5072,61.0,0,190,3.0,93.0
5073,54.0,0,188,11.0,84.0
5074,54.0,0,188,7.0,100.0
5075,54.0,0,188,4.0,96.0
5076,62.0,0,190,3.0,93.0
5077,62.0,0,190,7.0,100.0
5078,62.0,0,190,11.0,84.0
5079,50.0,0,188,4.0,96.0
5080,50.0,0,188,11.0,84.0
5081,50.0,0,188,7.0,100.0
5082,35.0,0,382,8.0,100.0
5083,47.0,0,382,8.0,100.0
5084,62.0,0,382,0.0,125.0
5085,35.0,0,382,12.0,84.0
5086,47.0,0,382,12.0,84.0
5087,59.0,0,190,11.0,84.0
5088,71.0,0,94,10.0,90.0
5089,71.0,96,94,1.0,103.0
5090,47.0,0,382,5.0,96.0
5091,35.0,0,382,6.0,96.0
5092,59.0,192,190,3.0,93.0
5093,59.0,0,190,7.0,100.0
5094,58.0,0,128,11.0,84.0
5095,52.0,0,128,11.0,84.0
5096,52.0,0,128,7.0,100.0
5097,52.0,0,128,4.0,96.0
5098,58.0,0,128,3.0,93.0
5099,58.0,0,128,7.0,100.0
5100,66.0,0,190,10.0,90.0
5101,66.0,96,190,1.0,103.0
5102,61.0,0,190,0.0,125.0
5103,66.0,0,94,1.0,103.0
5104,66.0,0,94,10.0,90.0
5105,54.0,0,188,11.0,84.0
5106,54.0,0,188,7.0,100.0
5107,54.0,0,188,4.0,96.0
5108,59.0,0,190,3.0,93.0
5109,59.0,0,190,11.0,84.0
5110,59.0,192,190,7.0,100.0
5111,62.0,0,286,0.0,125.0
5112,62.0,0,188,4.0,96.0
5113,62.0,0,188,11.0,84.0
5114,62.0,0,188,7.0,100.0
5115,71.0,0,190,7.0,100.0
5116,71.0,0,190,11.0,84.0
5117,71.0,96,190,3.0,93.0
5118,71.0,192,958,2.0,96.0
5119,66.0,96,94,0.0,125.0
5120,62.0,0,286,1.0,103.0
5121,62.0,96,286,10.0,90.0
5122,61.0,0,128,11.0,84.0
5123,61.0,0,128,7.0,100.0
5124,61.0,0,128,4.0,96.0
5125,70.0,0,128,7.0,100.0
5126,70.0,0,128,3.0,93.0
5127,70.0,0,128,11.0,84.0
5128,73.0,0,190,2.0,96.0
5129,64.0,0,190,0.0,125.0
5130,66.0,96,190,1.0,103.0
5131,66.0,0,190,10.0,90.0
5132,73.0,0,190,11.0,84.0
5133,73.0,0,190,7.0,100.0
5134,59.0,0,190,5.0,96.0
5135,59.0,0,190,8.0,100.0
5136,47.0,0,190,12.0,84.0
5137,47.0,0,190,8.0,100.0
5138,59.0,0,190,12.0,84.0
5139,47.0,0,190,6.0,96.0
5140,74.0,192,286,1.0,103.0
5141,74.0,0,286,10.0,90.0
5142,59.0,0,190,12.0,84.0
5143,73.0,96,94,10.0,90.0
5144,73.0,0,94,1.0,103.0
5145,47.0,0,190,12.0,84.0
5146,47.0,0,190,8.0,100.0
5147,59.0,0,190,5.0,96.0
5148,47.0,0,190,6.0,96.0
5149,59.0,192,190,8.0,100.0
5150,59.0,0,190,5.0,96.0
5151,59.0,0,190,12.0,84.0
5152,47.0,96,190,12.0,84.0
5153,47.0,0,190,6.0,96.0
5154,71.0,0,190,1.0,103.0
5155,71.0,0,190,10.0,90.0
5156,59.0,0,190,8.0,100.0
5157,47.0,0,190,8.0,100.0
5158,73.0,0,94,10.0,90.0
5159,73.0,0,94,1.0,103.0
5160,45.0,0,190,8.0,100.0
5161,57.0,0,190,12.0,84.0
5162,57.0,0,190,8.0,100.0
5163,45.0,0,190,12.0,84.0
5164,45.0,192,190,6.0,96.0
5165,57.0,0,190,5.0,96.0
5166,71.0,96,190,1.0,103.0
5167,71.0,0,190,10.0,90.0
5168,45.0,0,190,12.0,84.0
5169,57.0,96,190,12.0,84.0
5170,57.0,0,190,5.0,96.0
5171,45.0,0,190,8.0,100.0
5172,57.0,0,190,8.0,100.0
5173,70.0,0,94,10.0,90.0
5174,45.0,0,190,6.0,96.0
5175,70.0,96,94,1.0,103.0
5176,57.0,0,190,8.0,100.0
5177,45.0,0,190,6.0,96.0
5178,45.0,0,190,12.0,84.0
5179,57.0,0,190,12.0,84.0
5180,57.0,0,190,5.0,96.0
5181,71.0,96,190,1.0,103.0
5182,71.0,0,190,10.0,90.0
5183,45.0,0,190,8.0,100.0
5184,55.0,0,190,12.0,84.0
5185,43.0,0,190,12.0,84.0
5186,74.0,0,1342,7.0,100.0
5187,74.0,0,1342,2.0,96.0
5188,55.0,0,190,5.0,96.0
5189,55.0,0,190,8.0,100.0
5190,43.0,0,190,8.0,100.0
5191,74.0,0,1342,11.0,84.0
5192,43.0,0,190,6.0,96.0
5193,66.0,0,1438,0.0,125.0
5194,64.0,96,94,0.0,125.0
5195,43.0,0,190,6.0,96.0
5196,43.0,0,190,8.0,100.0
5197,73.0,0,190,2.0,96.0
5198,55.0,0,190,8.0,100.0
5199,73.0,0,190,7.0,100.0
5200,55.0,0,190,5.0,96.0
5201,73.0,192,190,11.0,84.0
5202,43.0,0,190,12.0,84.0
5203,55.0,0,190,12.0,84.0
5204,59.0,0,1724,11.0,84.0
5205,59.0,0,1724,7.0,100.0
5206,59.0,0,1724,4.0,96.0
5207,43.0,0,190,12.0,84.0
5208,55.0,0,190,12.0,84.0
5209,71.0,96,190,2.0,96.0
5210,55.0,0,190,8.0,100.0
5211,71.0,0,190,7.0,100.0
5212,43.0,0,190,6.0,96.0
5213,43.0,0,190,8.0,100.0
5214,71.0,0,1726,3.0,93.0
5215,71.0,0,190,11.0,84.0
5216,55.0,0,190,5.0,96.0
5217,66.0,0,188,11.0,84.0
5218,66.0,0,188,7.0,100.0
5219,66.0,0,188,4.0,96.0
5220,54.0,0,190,12.0,84.0
5221,69.0,0,190,11.0,84.0
5222,69.0,0,190,7.0,100.0
5223,42.0,0,190,6.0,96.0
5224,54.0,0,190,5.0,96.0
5225,42.0,192,190,8.0,100.0
5226,42.0,0,190,12.0,84.0
5227,54.0,0,190,8.0,100.0
5228,69.0,0,190,2.0,96.0
5229,63.0,0,478,0.0,125.0
5230,67.0,0,188,7.0,100.0
5231,67.0,0,188,11.0,84.0
5232,67.0,0,188,4.0,96.0
5233,67.0,0,190,2.0,96.0
5234,42.0,0,190,6.0,96.0
5235,54.0,0,190,12.0,84.0
5236,42.0,0,190,12.0,84.0
5237,64.0,96,94,0.0,125.0
5238,54.0,0,190,5.0,96.0
5239,42.0,0,190,8.0,100.0
5240,54.0,0,190,8.0,100.0
5241,69.0,0,188,7.0,100.0
5242,69.0,0,188,11.0,84.0
5243,69.0,0,188,4.0,96.0
5244,66.0,0,190,7.0,100.0
5245,66.0,96,190,2.0,96.0
5246,75.0,0,574,7.0,100.0
5247,54.0,0,190,5.0,96.0
5248,54.0,0,190,8.0,100.0
5249,66.0,0,190,11.0,84.0
5250,66.0,0,190,0.0,125.0
5251,42.0,0,190,8.0,100.0
5252,42.0,0,190,6.0,96.0
5253,75.0,0,574,3.0,93.0
5254,42.0,0,190,12.0,84.0
5255,75.0,0,574,11.0,84.0
5256,54.0,0,190,12.0,84.0
5257,52.0,0,190,8.0,100.0
5258,40.0,0,190,12.0,84.0
5259,52.0,0,190,12.0,84.0
5260,52.0,0,190,5.0,96.0
5261,40.0,0,190,8.0,100.0
5262,40.0,0,190,6.0,96.0
5263,67.0,192,286,0.0,125.0
5264,66.0,96,46,0.0,125.0
5265,52.0,0,190,8.0,100.0
5266,71.0,0,1534,10.0,90.0
5267,67.0,48,46,0.0,125.0
5268,40.0,0,190,8.0,100.0
5269,52.0,0,190,12.0,84.0
5270,40.0,192,190,6.0,96.0
5271,40.0,0,190,12.0,84.0
5272,71.0,192,1534,1.0,103.0
5273,52.0,0,190,5.0,96.0
5274,67.0,0,572,11.0,84.0
5275,67.0,0,572,4.0,96.0
5276,67.0,0,572,7.0,100.0
5277,40.0,0,190,12.0,84.0
5278,52.0,0,190,12.0,84.0
5279,76.0,0,574,3.0,93.0
5280,76.0,0,190,10.0,90.0
5281,52.0,0,190,5.0,96.0
5282,40.0,48,190,6.0,96.0
5283,76.0,0,574,7.0,100.0
5284,76.0,0,574,11.0,84.0
5285,40.0,0,190,8.0,100.0
5286,52.0,0,190,8.0,100.0
5287,76.0,0,190,1.0,103.0
5288,54.0,0,190,5.0,96.0
5289,42.0,192,190,6.0,96.0
5290,76.0,0,190,1.0,103.0
5291,54.0,0,190,8.0,100.0
5292,42.0,0,190,8.0,100.0
5293,54.0,0,190,12.0,84.0
5294,76.0,0,190,10.0,90.0
5295,42.0,0,190,12.0,84.0
5296,69.0,0,478,0.0,125.0
5297,54.0,0,190,8.0,100.0
5298,42.0,0,190,12.0,84.0
5299,54.0,0,190,12.0,84.0
5300,81.0,0,382,11.0,84.0
5301,42.0,0,190,8.0,100.0
5302,81.0,0,382,7.0,100.0
5303,54.0,0,190,5.0,96.0
5304,67.0,96,94,0.0,125.0
5305,81.0,0,382,3.0,93.0
5306,75.0,0,190,1.0,103.0
5307,75.0,0,190,10.0,90.0
5308,42.0,192,190,6.0,96.0
5309,66.0,0,572,4.0,96.0
5310,66.0,0,572,11.0,84.0
5311,66.0,0,572,7.0,100.0
5312,54.0,0,190,8.0,100.0
5313,42.0,96,190,12.0,84.0
5314,54.0,0,190,12.0,84.0
5315,75.0,0,190,7.0,100.0
5316,66.0,0,190,0.0,125.0
5317,54.0,0,190,5.0,96.0
5318,75.0,0,190,3.0,93.0
5319,75.0,0,190,11.0,84.0
5320,42.0,0,190,6.0,96.0
5321,42.0,0,190,8.0,100.0
5322,66.0,0,94,0.0,125.0
5323,43.0,0,190,6.0,96.0
5324,55.0,0,190,12.0,84.0
5325,43.0,0,190,12.0,84.0
5326,55.0,0,190,5.0,96.0
5327,43.0,0,190,8.0,100.0
5328,55.0,0,190,8.0,100.0
5329,81.0,0,382,10.0,90.0
5330,81.0,0,382,1.0,103.0
5331,79.0,0,94,1.0,103.0
5332,79.0,0,94,10.0,90.0
5333,52.0,96,190,8.0,100.0
5334,40.0,0,190,8.0,100.0
5335,40.0,0,190,6.0,96.0
5336,52.0,0,190,12.0,84.0
5337,40.0,0,190,12.0,84.0
5338,81.0,0,94,1.0,103.0
5339,81.0,96,94,10.0,90.0
5340,52.0,0,190,5.0,96.0
5341,43.0,0,190,6.0,96.0
5342,76.0,0,574,11.0,84.0
5343,76.0,192,574,3.0,93.0
5344,43.0,0,190,12.0,84.0
5345,55.0,0,190,5.0,96.0
5346,43.0,96,190,8.0,100.0
5347,55.0,0,190,8.0,100.0
5348,76.0,0,574,7.0,100.0
5349,55.0,0,190,12.0,84.0
5350,59.0,0,190,12.0,84.0
5351,47.0,0,190,6.0,96.0
5352,59.0,0,190,5.0,96.0
5353,47.0,0,190,8.0,100.0
5354,59.0,0,190,8.0,100.0
5355,78.0,0,382,10.0,90.0
5356,47.0,192,190,12.0,84.0
5357,78.0,0,382,1.0,103.0
5358,76.0,0,94,10.0,90.0
5359,76.0,0,94,1.0,103.0
5360,43.0,192,190,6.0,96.0
5361,64.0,96,862,0.0,125.0
5362,79.0,0,94,1.0,103.0
5363,55.0,0,190,8.0,100.0
5364,43.0,0,190,12.0,84.0
5365,55.0,0,190,12.0,84.0
5366,55.0,0,190,5.0,96.0
5367,43.0,0,190,8.0,100.0
5368,79.0,96,94,10.0,90.0
5369,67.0,0,190,0.0,125.0
5370,71.0,0,574,11.0,84.0
5371,71.0,0,2302,2.0,96.0
5372,47.0,0,190,6.0,96.0
5373,71.0,0,574,7.0,100.0
5374,59.0,0,190,12.0,84.0
5375,47.0,96,190,12.0,84.0
5376,59.0,0,190,8.0,100.0
5377,74.0,0,190,10.0,90.0
5378,71.0,0,574,3.0,93.0
5379,47.0,0,190,8.0,100.0
5380,74.0,0,190,1.0,103.0
5381,59.0,0,190,5.0,96.0
5382,74.0,0,94,10.0,90.0
5383,74.0,0,94,1.0,103.0
5384,64.0,0,190,8.0,100.0
5385,52.0,0,190,8.0,100.0
5386,52.0,0,190,12.0,84.0
5387,52.0,0,190,6.0,96.0
5388,64.0,0,190,5.0,96.0
5389,64.0,0,190,12.0,84.0
5390,72.0,0,190,1.0,103.0
5391,72.0,96,190,10.0,90.0
5392,72.0,0,382,0.0,125.0
5393,52.0,0,190,8.0,100.0
5394,79.0,96,94,1.0,103.0
5395,64.0,0,190,5.0,96.0
5396,52.0,0,190,12.0,84.0
5397,64.0,0,190,12.0,84.0
5398,64.0,0,190,8.0,100.0
5399,79.0,0,94,10.0,90.0
5400,52.0,96,190,6.0,96.0
5401,52.0,96,190,8.0,100.0
5402,64.0,0,190,8.0,100.0
5403,72.0,0,574,11.0,84.0
5404,52.0,0,190,6.0,96.0
5405,72.0,192,574,7.0,100.0
5406,72.0,0,574,3.0,93.0
5407,64.0,0,190,12.0,84.0
5408,52.0,0,190,12.0,84.0
5409,64.0,0,190,5.0,96.0
5410,76.0,0,190,10.0,90.0
5411,76.0,0,190,1.0,103.0
5412,71.0,0,190,0.0,125.0
5413,72.0,0,94,10.0,90.0
5414,72.0,0,94,1.0,103.0
5415,62.0,0,190,5.0,96.0
5416,50.0,0,190,8.0,100.0
5417,62.0,0,190,8.0,100.0
5418,50.0,0,190,12.0,84.0
5419,62.0,0,190,12.0,84.0
5420,50.0,0,190,6.0,96.0
5421,71.0,96,190,10.0,90.0
5422,71.0,0,190,1.0,103.0
5423,79.0,96,94,1.0,103.0
5424,62.0,96,190,12.0,84.0
5425,50.0,0,190,6.0,96.0
5426,50.0,0,190,8.0,100.0
5427,50.0,0,190,12.0,84.0
5428,71.0,192,382,0.0,125.0
5429,62.0,0,190,8.0,100.0
5430,79.0,0,94,10.0,90.0
5431,62.0,0,190,5.0,96.0
5432,62.0,0,190,12.0,84.0
5433,76.0,0,190,1.0,103.0
5434,50.0,0,190,6.0,96.0
5435,70.0,0,190,0.0,125.0
5436,50.0,0,190,8.0,100.0
5437,62.0,0,190,8.0,100.0
5438,76.0,0,190,10.0,90.0
5439,50.0,96,190,12.0,84.0
5440,62.0,0,190,5.0,96.0
5441,71.0,0,94,1.0,103.0
5442,71.0,0,94,10.0,90.0
5443,61.0,0,190,5.0,96.0
5444,49.0,0,190,8.0,100.0
5445,61.0,0,190,8.0,100.0
5446,49.0,0,190,12.0,84.0
5447,49.0,192,190,6.0,96.0
5448,61.0,0,190,12.0,84.0
5449,70.0,0,286,0.0,125.0
5450,70.0,0,190,10.0,90.0
5451,70.0,96,190,1.0,103.0
5452,64.0,0,46,0.0,125.0
5453,76.0,96,46,1.0,103.0
5454,76.0,0,46,10.0,90.0
5455,66.0,0,46,0.0,125.0
5456,49.0,0,190,6.0,96.0
5457,49.0,0,190,12.0,84.0
5458,61.0,0,190,5.0,96.0
5459,61.0,96,190,12.0,84.0
5460,49.0,0,190,8.0,100.0
5461,78.0,48,46,10.0,90.0
5462,78.0,0,46,1.0,103.0
5463,61.0,0,190,8.0,100.0
5464,49.0,0,190,8.0,100.0
5465,49.0,0,190,12.0,84.0
5466,49.0,0,190,6.0,96.0
5467,61.0,0,190,12.0,84.0
5468,79.0,0,1726,2.0,96.0
5469,61.0,0,190,5.0,96.0
5470,79.0,0,1726,7.0,100.0
5471,61.0,0,190,8.0,100.0
5472,79.0,0,1726,11.0,84.0
5473,46.0,192,190,12.0,84.0
5474,76.0,0,1342,3.0,93.0
5475,76.0,0,1342,11.0,84.0
5476,76.0,0,1342,7.0,100.0
5477,46.0,0,190,6.0,96.0
5478,58.0,0,190,5.0,96.0
5479,46.0,0,190,8.0,100.0
5480,58.0,0,190,8.0,100.0
5481,58.0,0,190,12.0,84.0
5482,67.0,0,478,0.0,125.0
5483,79.0,0,478,10.0,90.0
5484,79.0,48,478,1.0,103.0
5485,64.0,0,3260,7.0,100.0
5486,64.0,0,3260,4.0,96.0
5487,64.0,0,3260,11.0,84.0
5488,46.0,0,190,6.0,96.0
5489,78.0,96,94,1.0,103.0
5490,58.0,0,190,5.0,96.0
5491,74.0,0,190,3.0,93.0
5492,74.0,0,190,7.0,100.0
5493,74.0,0,190,11.0,84.0
5494,58.0,192,190,8.0,100.0
5495,46.0,0,190,8.0,100.0
5496,58.0,0,190,12.0,84.0
5497,64.0,0,94,0.0,125.0
5498,78.0,0,94,10.0,90.0
5499,46.0,0,190,12.0,84.0
5500,66.0,0,188,11.0,84.0
5501,66.0,0,188,4.0,96.0
5502,66.0,0,188,7.0,100.0
5503,66.0,0,190,0.0,125.0
5504,76.0,96,190,10.0,90.0
5505,73.0,0,190,11.0,84.0
5506,73.0,0,190,3.0,93.0
5507,73.0,0,190,7.0,100.0
5508,58.0,0,190,5.0,96.0
5509,58.0,0,190,8.0,100.0
5510,73.0,0,574,2.0,96.0
5511,46.0,0,190,6.0,96.0
5512,46.0,0,190,12.0,84.0
5513,76.0,0,190,1.0,103.0
5514,46.0,0,190,8.0,100.0
5515,58.0,0,190,12.0,84.0
5516,76.0,0,94,10.0,90.0
5517,76.0,0,94,1.0,103.0
5518,59.0,0,190,8.0,100.0
5519,47.0,0,190,8.0,100.0
5520,59.0,0,190,5.0,96.0
5521,47.0,0,190,6.0,96.0
5522,59.0,0,190,12.0,84.0
5523,47.0,0,190,12.0,84.0
5524,74.0,96,190,1.0,103.0
5525,74.0,0,286,0.0,125.0
5526,74.0,0,190,10.0,90.0
5527,73.0,0,46,1.0,103.0
5528,73.0,0,46,10.0,90.0
5529,73.0,96,94,0.0,125.0
5530,47.0,0,190,8.0,100.0
5531,59.0,0,190,5.0,96.0
5532,74.0,0,46,10.0,90.0
5533,74.0,48,46,1.0,103.0
5534,59.0,0,190,8.0,100.0
5535,47.0,0,190,12.0,84.0
5536,59.0,0,190,12.0,84.0
5537,47.0,96,190,6.0,96.0
5538,73.0,0,46,0.0,125.0
5539,74.0,48,46,0.0,125.0
5540,47.0,48,190,6.0,96.0
5541,59.0,0,190,8.0,100.0
5542,47.0,0,190,8.0,100.0
5543,78.0,0,574,11.0,84.0
5544,78.0,192,574,7.0,100.0
5545,59.0,0,190,5.0,96.0
5546,47.0,0,190,12.0,84.0
5547,59.0,0,190,12.0,84.0
5548,78.0,0,574,2.0,96.0
5549,55.0,0,190,5.0,96.0
5550,43.0,0,190,6.0,96.0
5551,55.0,0,190,8.0,100.0
5552,55.0,0,190,12.0,84.0
5553,43.0,96,190,12.0,84.0
5554,43.0,0,190,8.0,100.0
5555,76.0,48,382,0.0,125.0
5556,76.0,0,478,1.0,103.0
5557,76.0,0,478,10.0,90.0
5558,55.0,0,190,5.0,96.0
5559,43.0,0,190,6.0,96.0
5560,74.0,0,94,1.0,103.0
5561,55.0,192,190,12.0,84.0
5562,43.0,0,190,12.0,84.0
5563,43.0,0,190,8.0,100.0
5564,55.0,0,190,8.0,100.0
5565,74.0,0,94,10.0,90.0
5566,74.0,96,94,0.0,125.0
5567,59.0,0,1148,7.0,100.0
5568,59.0,0,1148,11.0,84.0
5569,59.0,0,1148,4.0,96.0
5570,55.0,0,190,8.0,100.0
5571,73.0,0,190,10.0,90.0
5572,73.0,0,190,0.0,125.0
5573,71.0,0,1150,11.0,84.0
5574,43.0,0,190,8.0,100.0
5575,55.0,0,190,5.0,96.0
5576,74.0,0,574,11.0,84.0
5577,73.0,96,190,1.0,103.0
5578,43.0,0,190,12.0,84.0
5579,55.0,0,190,12.0,84.0
5580,74.0,0,574,2.0,96.0
5581,43.0,0,190,6.0,96.0
5582,71.0,0,1150,7.0,100.0
5583,71.0,0,1150,3.0,93.0
5584,74.0,0,574,7.0,100.0
5585,71.0,0,94,10.0,90.0
5586,71.0,192,94,1.0,103.0
5587,42.0,0,190,6.0,96.0
5588,42.0,0,190,12.0,84.0
5589,54.0,0,190,12.0,84.0
5590,54.0,0,190,8.0,100.0
5591,42.0,0,190,8.0,100.0
5592,54.0,0,190,5.0,96.0
5593,37.0,0,190,12.0,84.0
5594,37.0,96,190,6.0,96.0
5595,49.0,0,190,5.0,96.0
5596,70.0,0,382,0.0,125.0
5597,49.0,0,190,12.0,84.0
5598,37.0,0,190,8.0,100.0
5599,49.0,0,190,8.0,100.0
5600,40.0,0,190,6.0,96.0
5601,40.0,0,190,8.0,100.0
5602,52.0,0,190,12.0,84.0
5603,40.0,0,190,12.0,84.0
5604,52.0,0,190,5.0,96.0
5605,68.0,192,190,0.0,125.0
5606,52.0,0,190,8.0,100.0
5607,70.0,0,574,10.0,90.0
5608,70.0,96,574,1.0,103.0
5609,40.0,0,190,8.0,100.0
5610,52.0,0,190,12.0,84.0
5611,40.0,0,190,12.0,84.0
5612,52.0,0,190,8.0,100.0
5613,52.0,0,190,5.0,96.0
5614,61.0,0,94,10.0,90.0
5615,40.0,0,190,6.0,96.0
5616,61.0,96,94,1.0,103.0
5617,66.0,0,94,10.0,90.0
5618,66.0,0,94,1.0,103.0
5619,66.0,0,956,4.0,96.0
5620,66.0,0,956,7.0,100.0
5621,66.0,0,956,11.0,84.0
5622,78.0,0,958,11.0,84.0
5623,66.0,192,382,0.0,125.0
5624,46.0,0,190,12.0,84.0
5625,34.0,0,190,12.0,84.0
5626,70.0,0,94,1.0,103.0
5627,70.0,96,94,10.0,90.0
5628,46.0,0,190,5.0,96.0
5629,34.0,0,190,8.0,100.0
5630,76.0,0,958,7.0,100.0
5631,78.0,0,958,7.0,100.0
5632,46.0,0,190,8.0,100.0
5633,76.0,0,958,3.0,93.0
5634,34.0,96,190,6.0,96.0
5635,76.0,0,958,11.0,84.0
5636,78.0,0,958,2.0,96.0
5637,73.0,0,94,10.0,90.0
5638,73.0,0,94,1.0,103.0
5639,37.0,0,190,8.0,100.0
5640,49.0,0,190,5.0,96.0
5641,74.0,96,94,1.0,103.0
5642,37.0,0,190,12.0,84.0
5643,74.0,0,94,10.0,90.0
5644,49.0,0,190,12.0,84.0
5645,49.0,96,190,8.0,100.0
5646,37.0,0,190,6.0,96.0
5647,76.0,0,46,10.0,90.0
5648,76.0,96,46,1.0,103.0
5649,74.0,0,46,1.0,103.0
5650,74.0,48,46,10.0,90.0
5651,61.0,0,188,11.0,84.0
5652,61.0,0,188,4.0,96.0
5653,61.0,0,188,7.0,100.0
5654,70.0,0,190,7.0,100.0
5655,66.0,0,190,3.0,93.0
5656,73.0,0,94,10.0,90.0
5657,66.0,0,190,11.0,84.0
5658,70.0,0,190,2.0,96.0
5659,70.0,0,190,11.0,84.0
5660,73.0,48,94,1.0,103.0
5661,66.0,0,190,7.0,100.0
5662,62.0,0,188,7.0,100.0
5663,62.0,0,188,11.0,84.0
5664,62.0,0,188,4.0,96.0
5665,71.0,0,190,7.0,100.0
5666,68.0,0,190,7.0,100.0
5667,71.0,0,190,11.0,84.0
5668,71.0,96,190,10.0,90.0
5669,68.0,0,190,11.0,84.0
5670,68.0,0,190,3.0,93.0
5671,71.0,0,190,1.0,103.0
5672,71.0,0,190,2.0,96.0
5673,70.0,0,142,10.0,90.0
5674,70.0,0,142,1.0,103.0
5675,71.0,144,14,10.0,90.0
5676,71.0,0,14,1.0,103.0
5677,64.0,0,188,11.0,84.0
5678,64.0,0,188,7.0,100.0
5679,64.0,0,188,4.0,96.0
5680,73.0,0,190,7.0,100.0
5681,70.0,0,190,7.0,100.0
5682,70.0,0,190,11.0,84.0
5683,70.0,192,190,3.0,93.0
5684,73.0,0,190,11.0,84.0
5685,73.0,0,190,2.0,96.0
5686,73.0,0,46,1.0,103.0
5687,73.0,0,46,10.0,90.0
5688,71.0,0,46,1.0,103.0
5689,71.0,48,46,10.0,90.0
5690,54.0,0,188,11.0,84.0
5691,54.0,0,188,7.0,100.0
5692,54.0,48,188,4.0,96.0
5693,70.0,48,94,1.0,103.0
5694,70.0,0,190,3.0,93.0
5695,70.0,0,94,10.0,90.0
5696,73.0,0,190,2.0,96.0
5697,73.0,0,190,11.0,84.0
5698,70.0,0,190,7.0,100.0
5699,73.0,0,190,7.0,100.0
5700,70.0,0,190,11.0,84.0
5701,54.0,0,188,7.0,100.0
5702,54.0,0,188,4.0,96.0
5703,54.0,0,188,11.0,84.0
5704,71.0,96,190,11.0,84.0
5705,74.0,0,190,2.0,96.0
5706,74.0,0,190,11.0,84.0
5707,67.0,0,190,10.0,90.0
5708,67.0,0,190,1.0,103.0
5709,74.0,0,190,7.0,100.0
5710,71.0,0,190,7.0,100.0
5711,71.0,0,190,3.0,93.0
5712,66.0,0,142,10.0,90.0
5713,66.0,0,142,1.0,103.0
5714,54.0,192,188,11.0,84.0
5715,54.0,0,188,7.0,100.0
5716,54.0,0,188,4.0,96.0
5717,76.0,0,190,2.0,96.0
5718,73.0,0,190,0.0,125.0
5719,73.0,0,190,3.0,93.0
5720,67.0,144,46,1.0,103.0
5721,73.0,0,190,11.0,84.0
5722,76.0,0,190,11.0,84.0
5723,73.0,0,190,7.0,100.0
5724,67.0,0,46,10.0,90.0
5725,76.0,0,190,7.0,100.0
5726,71.0,0,94,1.0,103.0
5727,71.0,0,94,10.0,90.0
5728,42.0,0,190,12.0,84.0
5729,42.0,0,190,8.0,100.0
5730,30.0,0,190,12.0,84.0
5731,30.0,0,190,8.0,100.0
5732,30.0,0,190,6.0,96.0
5733,42.0,0,190,5.0,96.0
5734,70.0,0,190,1.0,103.0
5735,64.0,0,286,0.0,125.0
5736,70.0,96,190,10.0,90.0
5737,30.0,0,190,12.0,84.0
5738,42.0,0,190,12.0,84.0
5739,30.0,0,190,8.0,100.0
5740,42.0,0,190,5.0,96.0
5741,30.0,0,190,6.0,96.0
5742,42.0,96,190,8.0,100.0
5743,66.0,96,94,0.0,125.0
5744,30.0,0,190,8.0,100.0
5745,42.0,0,190,5.0,96.0
5746,42.0,0,190,8.0,100.0
5747,30.0,0,190,6.0,96.0
5748,42.0,96,190,12.0,84.0
5749,30.0,0,190,12.0,84.0
5750,30.0,0,190,8.0,100.0
5751,30.0,0,190,12.0,84.0
5752,42.0,0,190,12.0,84.0
5753,42.0,0,190,8.0,100.0
5754,30.0,0,190,6.0,96.0
5755,42.0,192,190,5.0,96.0
5756,67.0,0,478,0.0,125.0
5757,70.0,0,910,2.0,96.0
5758,61.0,0,910,7.0,100.0
5759,61.0,0,910,11.0,84.0
5760,70.0,0,910,11.0,84.0
5761,61.0,0,910,3.0,93.0
5762,70.0,0,910,7.0,100.0
5763,54.0,0,956,7.0,100.0
5764,54.0,0,956,11.0,84.0
5765,54.0,48,956,4.0,96.0
5766,66.0,96,94,0.0,125.0
5767,42.0,192,190,5.0,96.0
5768,42.0,0,190,8.0,100.0
5769,42.0,0,190,12.0,84.0
5770,30.0,0,190,8.0,100.0
5771,30.0,0,190,12.0,84.0
5772,30.0,0,190,6.0,96.0
5773,30.0,0,190,8.0,100.0
5774,42.0,96,190,5.0,96.0
5775,42.0,0,190,8.0,100.0
5776,30.0,0,190,6.0,96.0
5777,42.0,0,190,12.0,84.0
5778,30.0,0,190,12.0,84.0
5779,64.0,0,190,0.0,125.0
5780,81.0,0,46,10.0,90.0
5781,81.0,0,46,1.0,103.0
5782,79.0,48,46,1.0,103.0
5783,79.0,0,46,10.0,90.0
5784,54.0,0,188,7.0,100.0
5785,54.0,0,188,11.0,84.0
5786,54.0,192,188,4.0,96.0
5787,66.0,0,190,11.0,84.0
5788,63.0,0,190,7.0,100.0
5789,66.0,0,190,7.0,100.0
5790,63.0,0,190,3.0,93.0
5791,78.0,48,94,1.0,103.0
5792,66.0,0,190,2.0,96.0
5793,63.0,0,190,11.0,84.0
5794,78.0,0,94,10.0,90.0
5795,59.0,0,188,11.0,84.0
5796,59.0,0,188,4.0,96.0
5797,59.0,0,188,7.0,100.0
5798,35.0,0,382,6.0,96.0
5799,35.0,0,382,8.0,100.0
5800,47.0,0,382,8.0,100.0
5801,63.0,0,382,0.0,125.0
5802,64.0,0,190,11.0,84.0
5803,67.0,0,190,11.0,84.0
5804,67.0,0,190,7.0,100.0
5805,64.0,0,190,7.0,100.0
5806,35.0,0,382,12.0,84.0
5807,47.0,0,382,12.0,84.0
5808,76.0,0,190,1.0,103.0
5809,64.0,0,190,3.0,93.0
5810,67.0,0,190,2.0,96.0
5811,47.0,0,382,5.0,96.0
5812,76.0,96,190,10.0,90.0
5813,75.0,0,142,1.0,103.0
5814,75.0,0,142,10.0,90.0
5815,59.0,0,188,11.0,84.0
5816,59.0,0,188,7.0,100.0
5817,59.0,0,188,4.0,96.0
5818,66.0,0,190,3.0,93.0
5819,69.0,0,190,2.0,96.0
5820,69.0,0,190,7.0,100.0
5821,59.0,192,190,0.0,125.0
5822,76.0,0,46,10.0,90.0
5823,66.0,0,190,7.0,100.0
5824,76.0,144,46,1.0,103.0
5825,69.0,0,190,11.0,84.0
5826,66.0,0,190,11.0,84.0
5827,66.0,0,46,0.0,125.0
5828,78.0,0,46,10.0,90.0
5829,78.0,0,46,1.0,103.0
5830,67.0,0,46,0.0,125.0
5831,76.0,48,46,10.0,90.0
5832,76.0,0,46,1.0,103.0
5833,59.0,0,188,11.0,84.0
5834,59.0,0,188,4.0,96.0
5835,59.0,0,188,7.0,100.0
5836,66.0,0,190,7.0,100.0
5837,63.0,0,190,7.0,100.0
5838,75.0,0,94,1.0,103.0
5839,75.0,48,94,10.0,90.0
5840,66.0,0,190,11.0,84.0
5841,63.0,0,190,11.0,84.0
5842,66.0,0,190,2.0,96.0
5843,63.0,48,190,3.0,93.0
5844,59.0,0,188,7.0,100.0
5845,59.0,0,188,11.0,84.0
5846,59.0,0,188,4.0,96.0
5847,64.0,0,190,7.0,100.0
5848,67.0,0,190,7.0,100.0
5849,72.0,0,190,1.0,103.0
5850,67.0,0,190,2.0,96.0
5851,64.0,96,190,11.0,84.0
5852,64.0,0,190,3.0,93.0
5853,72.0,0,190,10.0,90.0
5854,67.0,0,190,11.0,84.0
5855,69.0,0,334,0.0,125.0
5856,66.0,48,46,0.0,125.0
5857,63.0,48,46,0.0,125.0
5858,71.0,0,142,10.0,90.0
5859,71.0,192,142,1.0,103.0
5860,59.0,0,188,7.0,100.0
5861,59.0,0,188,4.0,96.0
5862,59.0,0,188,11.0,84.0
5863,64.0,48,46,0.0,125.0
5864,69.0,0,190,7.0,100.0
5865,66.0,0,190,3.0,93.0
5866,72.0,0,46,1.0,103.0
5867,69.0,0,190,11.0,84.0
5868,66.0,0,190,11.0,84.0
5869,66.0,0,190,7.0,100.0
5870,69.0,0,190,2.0,96.0
5871,72.0,0,46,10.0,90.0
5872,76.0,0,94,1.0,103.0
5873,76.0,0,94,10.0,90.0
5874,35.0,0,190,8.0,100.0
5875,47.0,0,190,5.0,96.0
5876,47.0,0,190,8.0,100.0
5877,35.0,0,190,6.0,96.0
5878,35.0,0,190,12.0,84.0
5879,47.0,0,190,12.0,84.0
5880,69.0,0,286,0.0,125.0
5881,35.0,0,190,12.0,84.0
5882,47.0,0,190,8.0,100.0
5883,47.0,0,190,5.0,96.0
5884,35.0,96,190,8.0,100.0
5885,35.0,0,190,6.0,96.0
5886,71.0,96,94,0.0,125.0
5887,47.0,0,190,12.0,84.0
5888,35.0,0,190,8.0,100.0
5889,47.0,0,190,8.0,100.0
5890,47.0,0,190,12.0,84.0
5891,35.0,96,190,12.0,84.0
5892,35.0,0,190,6.0,96.0
5893,47.0,0,190,5.0,96.0
5894,47.0,0,190,8.0,100.0
5895,35.0,0,190,6.0,96.0
5896,35.0,0,190,8.0,100.0
5897,35.0,0,190,12.0,84.0
5898,47.0,192,190,12.0,84.0
5899,47.0,0,190,5.0,96.0
5900,72.0,0,478,0.0,125.0
5901,66.0,0,910,11.0,84.0
5902,66.0,0,910,7.0,100.0
5903,66.0,0,910,3.0,93.0
5904,59.0,0,956,4.0,96.0
5905,59.0,0,956,11.0,84.0
5906,59.0,0,956,7.0,100.0
5907,35.0,192,190,12.0,84.0
5908,47.0,0,190,8.0,100.0
5909,69.0,0,958,7.0,100.0
5910,35.0,0,190,8.0,100.0
5911,47.0,0,190,5.0,96.0
5912,69.0,48,958,2.0,96.0
5913,35.0,0,190,6.0,96.0
5914,47.0,0,190,12.0,84.0
5915,69.0,0,958,11.0,84.0
5916,71.0,96,94,0.0,125.0
5917,75.0,0,1006,10.0,90.0
5918,75.0,96,1006,1.0,103.0
5919,47.0,0,190,12.0,84.0
5920,35.0,0,190,12.0,84.0
5921,69.0,96,190,0.0,125.0
5922,47.0,0,190,5.0,96.0
5923,47.0,0,190,8.0,100.0
5924,35.0,0,190,6.0,96.0
5925,35.0,0,190,8.0,100.0
5926,79.0,0,24,1.0,103.0
5927,79.0,0,24,10.0,90.0
5928,81.0,0,24,10.0,90.0
5929,81.0,48,24,1.0,103.0
5930,40.0,0,190,5.0,96.0
5931,67.0,0,190,0.0,125.0
5932,40.0,0,190,8.0,100.0
5933,28.0,0,190,12.0,84.0
5934,40.0,0,190,12.0,84.0
5935,28.0,0,190,6.0,96.0
5936,28.0,0,190,8.0,100.0
5937,83.0,48,168,10.0,90.0
5938,83.0,0,168,1.0,103.0
5939,81.0,0,24,10.0,90.0
5940,81.0,96,24,1.0,103.0
5941,79.0,48,24,10.0,90.0
5942,79.0,0,24,1.0,103.0
5943,28.0,0,190,8.0,100.0
5944,40.0,0,190,8.0,100.0
5945,40.0,0,190,5.0,96.0
5946,28.0,0,190,6.0,96.0
5947,40.0,96,190,12.0,84.0
5948,28.0,0,190,12.0,84.0
5949,69.0,0,190,0.0,125.0
5950,81.0,0,24,1.0,103.0
5951,81.0,0,24,10.0,90.0
5952,79.0,48,24,10.0,90.0
5953,79.0,0,24,1.0,103.0
5954,78.0,48,72,10.0,90.0
5955,78.0,0,72,1.0,103.0
5956,59.0,0,572,4.0,96.0
5957,59.0,0,572,7.0,100.0
5958,59.0,0,572,11.0,84.0
5959,64.0,0,574,3.0,93.0
5960,67.0,0,574,2.0,96.0
5961,67.0,0,574,7.0,100.0
5962,64.0,0,574,7.0,100.0
5963,40.0,0,190,12.0,84.0
5964,28.0,0,190,12.0,84.0
5965,28.0,0,190,6.0,96.0
5966,64.0,0,574,11.0,84.0
5967,67.0,192,574,11.0,84.0
5968,40.0,0,190,5.0,96.0
5969,40.0,0,190,8.0,100.0
5970,28.0,0,190,8.0,100.0
5971,76.0,96,24,10.0,90.0
5972,76.0,0,24,1.0,103.0
5973,78.0,48,24,10.0,90.0
5974,78.0,0,24,1.0,103.0
5975,40.0,0,190,5.0,96.0
5976,40.0,0,190,12.0,84.0
5977,71.0,48,382,0.0,125.0
5978,28.0,0,190,12.0,84.0
5979,40.0,0,190,8.0,100.0
5980,28.0,0,190,6.0,96.0
5981,28.0,0,190,8.0,100.0
5982,79.0,0,168,1.0,103.0
5983,79.0,48,168,10.0,90.0
5984,78.0,96,24,1.0,103.0
5985,78.0,0,24,10.0,90.0
5986,76.0,48,24,10.0,90.0
5987,76.0,0,24,1.0,103.0
5988,28.0,0,190,8.0,100.0
5989,40.0,0,190,8.0,100.0
5990,40.0,0,190,5.0,96.0
5991,28.0,96,190,12.0,84.0
5992,73.0,0,190,0.0,125.0
5993,28.0,0,190,6.0,96.0
5994,40.0,0,190,12.0,84.0
5995,78.0,0,24,10.0,90.0
5996,78.0,0,24,1.0,103.0
5997,76.0,48,24,10.0,90.0
5998,76.0,0,24,1.0,103.0
5999,74.0,48,72,1.0,103.0
6000,74.0,0,72,10.0,90.0
6001,71.0,0,572,4.0,96.0
6002,71.0,0,572,11.0,84.0
6003,71.0,0,572,7.0,100.0
6004,75.0,0,190,0.0,125.0
6005,28.0,0,190,8.0,100.0
6006,67.0,0,574,3.0,93.0
6007,28.0,48,190,6.0,96.0
6008,71.0,0,574,2.0,96.0
6009,40.0,0,190,5.0,96.0
6010,67.0,0,574,7.0,100.0
6011,40.0,0,190,8.0,100.0
6012,28.0,0,190,12.0,84.0
6013,40.0,0,190,12.0,84.0
6014,67.0,0,574,11.0,84.0
6015,72.0,0,24,10.0,90.0
6016,72.0,0,24,1.0,103.0
6017,74.0,48,24,1.0,103.0
6018,74.0,0,24,10.0,90.0
6019,28.0,0,190,6.0,96.0
6020,28.0,0,190,8.0,100.0
6021,40.0,0,190,12.0,84.0
6022,28.0,0,190,12.0,84.0
6023,40.0,0,190,8.0,100.0
6024,40.0,0,190,5.0,96.0
6025,76.0,0,168,1.0,103.0
6026,76.0,48,168,10.0,90.0
6027,76.0,0,286,0.0,125.0
6028,74.0,96,24,1.0,103.0
6029,74.0,0,24,10.0,90.0
6030,74.0,0,46,0.0,125.0
6031,72.0,0,24,1.0,103.0
6032,72.0,0,24,10.0,90.0
6033,28.0,96,190,8.0,100.0
6034,28.0,0,190,6.0,96.0
6035,40.0,0,190,8.0,100.0
6036,72.0,48,46,0.0,125.0
6037,40.0,0,190,12.0,84.0
6038,28.0,0,190,12.0,84.0
6039,40.0,0,190,5.0,96.0
6040,74.0,0,24,10.0,90.0
6041,74.0,0,24,1.0,103.0
6042,72.0,48,24,10.0,90.0
6043,72.0,0,24,1.0,103.0
6044,71.0,0,94,0.0,125.0
6045,71.0,0,72,10.0,90.0
6046,71.0,48,72,1.0,103.0
6047,28.0,0,190,6.0,96.0
6048,40.0,48,190,5.0,96.0
6049,72.0,0,574,3.0,93.0
6050,76.0,0,574,2.0,96.0
6051,72.0,0,574,11.0,84.0
6052,76.0,0,574,11.0,84.0
6053,72.0,0,574,7.0,100.0
6054,76.0,96,574,7.0,100.0
6055,28.0,0,190,12.0,84.0
6056,40.0,0,190,8.0,100.0
6057,69.0,0,94,0.0,125.0
6058,40.0,0,190,12.0,84.0
6059,28.0,0,190,8.0,100.0
6060,70.0,0,46,1.0,103.0
6061,70.0,0,46,10.0,90.0
6062,73.0,0,94,2.0,96.0
6063,76.0,0,94,7.0,100.0
6064,71.0,0,46,1.0,103.0
6065,73.0,0,94,7.0,100.0
6066,73.0,0,94,11.0,84.0
6067,76.0,0,94,11.0,84.0
6068,76.0,0,94,3.0,93.0
6069,71.0,48,46,10.0,90.0
6070,70.0,0,22,11.0,84.0
6071,70.0,0,22,2.0,96.0
6072,70.0,48,22,7.0,100.0
6073,71.0,24,22,2.0,96.0
6074,71.0,0,22,7.0,100.0
6075,71.0,0,22,11.0,84.0
6076,70.0,24,22,11.0,84.0
6077,70.0,0,22,2.0,96.0
6078,70.0,0,22,7.0,100.0
6079,67.0,0,764,4.0,96.0
6080,67.0,0,764,7.0,100.0
6081,67.0,0,764,11.0,84.0
6082,28.0,96,190,8.0,100.0
6083,40.0,0,190,8.0,100.0
6084,40.0,0,190,5.0,96.0
6085,67.0,0,190,0.0,125.0
6086,28.0,0,190,12.0,84.0
6087,28.0,0,190,6.0,96.0
6088,40.0,0,190,12.0,84.0
6089,71.0,0,22,11.0,84.0
6090,71.0,0,22,2.0,96.0
6091,71.0,24,22,7.0,100.0
6092,70.0,0,22,2.0,96.0
6093,70.0,0,22,7.0,100.0
6094,70.0,0,22,11.0,84.0
6095,71.0,0,22,7.0,100.0
6096,71.0,0,22,11.0,84.0
6097,71.0,24,22,2.0,96.0
6098,70.0,24,22,11.0,84.0
6099,70.0,0,22,2.0,96.0
6100,70.0,0,22,7.0,100.0
6101,71.0,0,22,11.0,84.0
6102,73.0,0,190,10.0,90.0
6103,71.0,24,22,7.0,100.0
6104,73.0,0,190,1.0,103.0
6105,71.0,0,22,2.0,96.0
6106,66.0,0,94,0.0,125.0
6107,70.0,0,22,7.0,100.0
6108,70.0,24,22,11.0,84.0
6109,70.0,0,22,2.0,96.0
6110,71.0,0,46,10.0,90.0
6111,71.0,0,22,7.0,100.0
6112,71.0,24,22,11.0,84.0
6113,71.0,0,22,2.0,96.0
6114,71.0,0,46,1.0,103.0
6115,70.0,0,22,2.0,96.0
6116,70.0,0,22,11.0,84.0
6117,70.0,0,22,7.0,100.0
6118,71.0,0,22,7.0,100.0
6119,71.0,0,22,2.0,96.0
6120,40.0,0,190,5.0,96.0
6121,40.0,0,190,8.0,100.0
6122,28.0,24,190,6.0,96.0
6123,28.0,0,190,12.0,84.0
6124,40.0,0,190,12.0,84.0
6125,64.0,0,94,0.0,125.0
6126,70.0,24,46,10.0,90.0
6127,70.0,0,46,1.0,103.0
6128,28.0,0,190,8.0,100.0
6129,71.0,24,22,11.0,84.0
6130,70.0,0,22,11.0,84.0
6131,70.0,0,22,7.0,100.0
6132,70.0,0,22,2.0,96.0
6133,71.0,24,22,7.0,100.0
6134,71.0,0,22,11.0,84.0
6135,71.0,0,46,1.0,103.0
6136,71.0,24,46,10.0,90.0
6137,71.0,0,22,2.0,96.0
6138,70.0,0,22,7.0,100.0
6139,70.0,0,22,2.0,96.0
6140,70.0,0,22,11.0,84.0
6141,71.0,24,22,7.0,100.0
6142,71.0,0,22,2.0,96.0
6143,71.0,0,22,11.0,84.0
6144,70.0,0,46,1.0,103.0
6145,62.0,0,94,0.0,125.0
6146,70.0,24,46,10.0,90.0
6147,70.0,0,22,2.0,96.0
6148,70.0,0,22,7.0,100.0
6149,70.0,0,22,11.0,84.0
6150,71.0,24,22,7.0,100.0
6151,71.0,0,22,11.0,84.0
6152,71.0,0,22,2.0,96.0
6153,70.0,24,22,7.0,100.0
6154,70.0,0,22,2.0,96.0
6155,70.0,0,22,11.0,84.0
6156,68.0,0,94,1.0,103.0
6157,71.0,0,22,11.0,84.0
6158,61.0,24,94,0.0,125.0
6159,73.0,0,478,11.0,84.0
6160,73.0,0,478,3.0,93.0
6161,52.0,0,190,12.0,84.0
6162,68.0,0,94,10.0,90.0
6163,73.0,0,478,7.0,100.0
6164,40.0,0,190,12.0,84.0
6165,52.0,0,190,5.0,96.0
6166,40.0,0,190,6.0,96.0
6167,52.0,0,190,8.0,100.0
6168,71.0,0,22,2.0,96.0
6169,40.0,0,190,8.0,100.0
6170,71.0,24,22,7.0,100.0
6171,66.0,0,572,4.0,96.0
6172,66.0,0,572,7.0,100.0
6173,66.0,0,572,11.0,84.0
6174,38.0,0,190,8.0,100.0
6175,71.0,24,190,2.0,96.0
6176,66.0,0,190,0.0,125.0
6177,50.0,0,190,8.0,100.0
6178,66.0,0,190,1.0,103.0
6179,71.0,0,190,7.0,100.0
6180,50.0,0,190,5.0,96.0
6181,38.0,0,190,12.0,84.0
6182,50.0,0,190,12.0,84.0
6183,71.0,0,190,3.0,93.0
6184,66.0,0,190,10.0,90.0
6185,71.0,0,190,11.0,84.0
6186,38.0,0,190,6.0,96.0
6187,68.0,192,46,0.0,125.0
6188,70.0,48,46,0.0,125.0
6189,71.0,48,46,0.0,125.0
6190,49.0,0,190,12.0,84.0
6191,73.0,48,46,0.0,125.0
6192,37.0,0,190,6.0,96.0
6193,49.0,0,190,8.0,100.0
6194,37.0,0,190,8.0,100.0
6195,37.0,0,190,12.0,84.0
6196,49.0,0,190,5.0,96.0
6197,74.0,0,94,0.0,125.0
6198,47.0,0,190,12.0,84.0
6199,47.0,0,190,5.0,96.0
6200,35.0,48,190,12.0,84.0
6201,35.0,0,190,6.0,96.0
6202,73.0,96,94,0.0,125.0
6203,47.0,0,190,8.0,100.0
6204,35.0,0,190,8.0,100.0
6205,76.0,0,190,0.0,125.0
6206,42.0,0,190,6.0,96.0
6207,42.0,0,190,8.0,100.0
6208,54.0,0,190,12.0,84.0
6209,54.0,96,190,5.0,96.0
6210,42.0,0,190,12.0,84.0
6211,54.0,0,190,8.0,100.0
6212,74.0,0,190,0.0,125.0
6213,54.0,0,190,5.0,96.0
6214,42.0,0,190,6.0,96.0
6215,42.0,192,190,8.0,100.0
6216,54.0,0,190,8.0,100.0
6217,42.0,0,190,12.0,84.0
6218,54.0,0,190,12.0,84.0
6219,73.0,0,190,0.0,125.0
6220,42.0,0,190,5.0,96.0
6221,30.0,0,190,6.0,96.0
6222,42.0,0,190,12.0,84.0
6223,30.0,0,190,12.0,84.0
6224,42.0,192,190,8.0,100.0
6225,30.0,0,190,8.0,100.0
6226,35.0,0,190,12.0,84.0
6227,47.0,192,190,5.0,96.0
6228,47.0,0,190,12.0,84.0
6229,35.0,0,190,8.0,100.0
6230,47.0,0,190,8.0,100.0
6231,35.0,0,190,6.0,96.0
6232,26.0,0,190,8.0,100.0
6233,38.0,0,190,8.0,100.0
6234,26.0,0,190,6.0,96.0
6235,38.0,0,190,5.0,96.0
6236,38.0,192,190,12.0,84.0
6237,26.0,0,190,12.0,84.0
6238,30.0,0,190,6.0,96.0
6239,30.0,0,190,8.0,100.0
6240,42.0,0,190,8.0,100.0
6241,30.0,192,190,12.0,84.0
6242,42.0,0,190,5.0,96.0
6243,42.0,0,190,12.0,84.0
6244,71.0,0,574,0.0,125.0
6245,35.0,0,190,8.0,100.0
6246,47.0,0,190,8.0,100.0
6247,35.0,0,190,12.0,84.0
6248,47.0,192,190,12.0,84.0
6249,35.0,0,190,6.0,96.0
6250,47.0,0,190,5.0,96.0
6251,50.0,0,190,5.0,96.0
6252,71.0,0,382,0.0,125.0
6253,50.0,0,190,12.0,84.0
6254,38.0,0,190,12.0,84.0
6255,38.0,0,190,8.0,100.0
6256,50.0,0,190,8.0,100.0
6257,38.0,192,190,6.0,96.0
6258,42.0,0,190,8.0,100.0
6259,42.0,192,190,6.0,96.0
6260,66.0,0,190,10.0,90.0
6261,54.0,0,190,5.0,96.0
6262,54.0,0,190,8.0,100.0
6263,42.0,0,190,12.0,84.0
6264,66.0,0,190,1.0,103.0
6265,54.0,0,190,12.0,84.0
6266,71.0,0,46,10.0,90.0
6267,71.0,0,46,1.0,103.0
6268,73.0,48,46,10.0,90.0
6269,73.0,0,46,1.0,103.0
6270,47.0,0,190,6.0,96.0
6271,59.0,0,190,8.0,100.0
6272,47.0,192,190,12.0,84.0
6273,59.0,0,190,12.0,84.0
6274,47.0,0,190,8.0,100.0
6275,59.0,0,190,5.0,96.0
6276,74.0,0,190,10.0,90.0
6277,74.0,48,190,1.0,103.0
6278,73.0,0,94,1.0,103.0
6279,73.0,96,94,10.0,90.0
6280,59.0,0,190,5.0,96.0
6281,47.0,0,190,6.0,96.0
6282,47.0,96,190,8.0,100.0
6283,59.0,0,190,8.0,100.0
6284,47.0,0,190,12.0,84.0
6285,59.0,0,190,12.0,84.0
6286,47.0,0,190,8.0,100.0
6287,59.0,96,190,8.0,100.0
6288,71.0,0,190,1.0,103.0
6289,47.0,0,190,6.0,96.0
6290,71.0,0,190,10.0,90.0
6291,59.0,0,190,12.0,84.0
6292,59.0,0,190,5.0,96.0
6293,47.0,0,190,12.0,84.0
6294,73.0,0,94,10.0,90.0
6295,73.0,0,94,1.0,103.0
6296,57.0,0,190,8.0,100.0
6297,57.0,0,190,12.0,84.0
6298,45.0,0,190,12.0,84.0
6299,45.0,0,190,8.0,100.0
6300,57.0,192,190,5.0,96.0
6301,45.0,0,190,6.0,96.0
6302,71.0,0,190,10.0,90.0
6303,71.0,96,190,1.0,103.0
6304,70.0,96,94,10.0,90.0
6305,70.0,0,94,1.0,103.0
6306,45.0,0,190,6.0,96.0
6307,57.0,96,190,8.0,100.0
6308,45.0,0,190,8.0,100.0
6309,57.0,0,190,12.0,84.0
6310,57.0,0,190,5.0,96.0
6311,45.0,0,190,12.0,84.0
6312,45.0,0,190,6.0,96.0
6313,71.0,0,190,1.0,103.0
6314,71.0,0,190,10.0,90.0
6315,66.0,0,1150,3.0,93.0
6316,57.0,96,190,5.0,96.0
6317,66.0,0,1150,11.0,84.0
6318,57.0,0,190,8.0,100.0
6319,45.0,0,190,12.0,84.0
6320,45.0,0,190,8.0,100.0
6321,57.0,0,190,12.0,84.0
6322,66.0,0,1150,7.0,100.0
6323,55.0,0,190,12.0,84.0
6324,43.0,0,190,8.0,100.0
6325,55.0,0,190,5.0,96.0
6326,55.0,0,190,8.0,100.0
6327,43.0,0,190,6.0,96.0
6328,43.0,0,190,12.0,84.0
6329,55.0,0,190,12.0,84.0
6330,43.0,0,190,12.0,84.0
6331,55.0,0,190,8.0,100.0
6332,43.0,0,190,8.0,100.0
6333,43.0,0,190,6.0,96.0
6334,55.0,192,190,5.0,96.0
6335,62.0,0,1724,11.0,84.0
6336,62.0,0,1724,7.0,100.0
6337,62.0,0,1724,4.0,96.0
6338,55.0,192,190,5.0,96.0
6339,43.0,0,190,12.0,84.0
6340,55.0,0,190,8.0,100.0
6341,67.0,0,574,3.0,93.0
6342,43.0,0,190,8.0,100.0
6343,71.0,0,1726,2.0,96.0
6344,43.0,0,190,6.0,96.0
6345,55.0,0,190,12.0,84.0
6346,67.0,0,574,7.0,100.0
6347,71.0,0,1726,7.0,100.0
6348,67.0,192,574,11.0,84.0
6349,71.0,0,1726,11.0,84.0
6350,54.0,0,190,12.0,84.0
6351,42.0,192,190,8.0,100.0
6352,54.0,0,190,8.0,100.0
6353,42.0,0,190,6.0,96.0
6354,54.0,0,190,5.0,96.0
6355,42.0,0,190,12.0,84.0
6356,71.0,0,958,1.0,103.0
6357,42.0,0,190,12.0,84.0
6358,54.0,0,190,8.0,100.0
6359,42.0,0,190,8.0,100.0
6360,54.0,0,190,12.0,84.0
6361,42.0,0,190,6.0,96.0
6362,54.0,192,190,5.0,96.0
6363,71.0,0,958,10.0,90.0
6364,66.0,0,572,11.0,84.0
6365,66.0,0,572,4.0,96.0
6366,66.0,0,572,7.0,100.0
6367,71.0,0,190,1.0,103.0
6368,75.0,0,574,11.0,84.0
6369,69.0,0,574,3.0,93.0
6370,69.0,0,574,7.0,100.0
6371,75.0,0,574,7.0,100.0
6372,54.0,192,190,8.0,100.0
6373,69.0,0,574,11.0,84.0
6374,75.0,0,574,2.0,96.0
6375,71.0,0,190,10.0,90.0
6376,42.0,0,190,6.0,96.0
6377,54.0,0,190,12.0,84.0
6378,42.0,0,190,12.0,84.0
6379,54.0,0,190,5.0,96.0
6380,42.0,0,190,8.0,100.0
6381,40.0,0,190,12.0,84.0
6382,52.0,0,190,12.0,84.0
6383,52.0,0,190,5.0,96.0
6384,40.0,0,190,8.0,100.0
6385,52.0,0,190,8.0,100.0
6386,40.0,0,190,6.0,96.0
6387,79.0,0,286,10.0,90.0
6388,79.0,192,286,1.0,103.0
6389,78.0,96,46,1.0,103.0
6390,78.0,0,46,10.0,90.0
6391,79.0,48,46,10.0,90.0
6392,40.0,0,190,12.0,84.0
6393,52.0,0,190,12.0,84.0
6394,79.0,0,46,1.0,103.0
6395,40.0,192,190,6.0,96.0
6396,52.0,0,190,8.0,100.0
6397,52.0,0,190,5.0,96.0
6398,40.0,0,190,8.0,100.0
6399,59.0,0,572,7.0,100.0
6400,59.0,0,572,11.0,84.0
6401,59.0,0,572,4.0,96.0
6402,52.0,0,190,5.0,96.0
6403,76.0,0,574,2.0,96.0
6404,40.0,0,190,6.0,96.0
6405,76.0,0,574,11.0,84.0
6406,40.0,0,190,12.0,84.0
6407,52.0,0,190,12.0,84.0
6408,76.0,0,574,7.0,100.0
6409,40.0,0,190,8.0,100.0
6410,52.0,48,190,8.0,100.0
6411,54.0,0,190,12.0,84.0
6412,54.0,0,190,5.0,96.0
6413,42.0,0,190,6.0,96.0
6414,42.0,0,190,12.0,84.0
6415,42.0,0,190,8.0,100.0
6416,54.0,0,190,8.0,100.0
6417,81.0,0,478,1.0,103.0
6418,81.0,0,478,10.0,90.0
6419,79.0,0,94,10.0,90.0
6420,42.0,0,190,8.0,100.0
6421,54.0,0,190,8.0,100.0
6422,42.0,0,190,6.0,96.0
6423,54.0,0,190,5.0,96.0
6424,79.0,96,94,1.0,103.0
6425,42.0,192,190,12.0,84.0
6426,54.0,0,190,12.0,84.0
6427,57.0,0,572,11.0,84.0
6428,57.0,0,572,4.0,96.0
6429,57.0,0,572,7.0,100.0
6430,75.0,0,574,7.0,100.0
6431,54.0,0,190,8.0,100.0
6432,42.0,0,190,8.0,100.0
6433,75.0,192,574,2.0,96.0
6434,42.0,0,190,6.0,96.0
6435,78.0,96,190,1.0,103.0
6436,75.0,0,574,11.0,84.0
6437,54.0,0,190,12.0,84.0
6438,42.0,0,190,12.0,84.0
6439,54.0,0,190,5.0,96.0
6440,78.0,0,190,10.0,90.0
6441,78.0,0,94,10.0,90.0
6442,78.0,0,94,1.0,103.0
6443,43.0,0,190,6.0,96.0
6444,55.0,0,190,12.0,84.0
6445,55.0,0,190,5.0,96.0
6446,43.0,0,190,12.0,84.0
6447,43.0,192,190,8.0,100.0
6448,55.0,0,190,8.0,100.0
6449,52.0,96,190,12.0,84.0
6450,40.0,0,190,12.0,84.0
6451,52.0,0,190,8.0,100.0
6452,52.0,0,190,5.0,96.0
6453,40.0,0,190,8.0,100.0
6454,40.0,0,190,6.0,96.0
6455,55.0,0,572,11.0,84.0
6456,55.0,0,572,7.0,100.0
6457,55.0,0,572,4.0,96.0
6458,55.0,0,190,12.0,84.0
6459,43.0,0,190,6.0,96.0
6460,55.0,0,190,8.0,100.0
6461,43.0,192,190,8.0,100.0
6462,43.0,0,190,12.0,84.0
6463,55.0,0,190,5.0,96.0
6464,47.0,192,190,6.0,96.0
6465,59.0,0,190,12.0,84.0
6466,47.0,0,190,12.0,84.0
6467,59.0,0,190,5.0,96.0
6468,47.0,0,190,8.0,100.0
6469,59.0,0,190,8.0,100.0
6470,76.0,0,766,10.0,90.0
6471,76.0,96,766,1.0,103.0
6472,55.0,0,190,12.0,84.0
6473,43.0,0,190,12.0,84.0
6474,55.0,0,190,8.0,100.0
6475,43.0,0,190,6.0,96.0
6476,55.0,0,190,5.0,96.0
6477,79.0,0,94,1.0,103.0
6478,43.0,192,190,8.0,100.0
6479,79.0,96,94,10.0,90.0
6480,67.0,0,572,4.0,96.0
6481,67.0,0,572,11.0,84.0
6482,67.0,0,572,7.0,100.0
6483,71.0,0,2302,7.0,100.0
6484,59.0,0,190,12.0,84.0
6485,71.0,0,2302,3.0,93.0
6486,76.0,0,1150,2.0,96.0
6487,47.0,0,190,12.0,84.0
6488,76.0,0,1150,7.0,100.0
6489,76.0,0,190,1.0,103.0
6490,47.0,96,190,6.0,96.0
6491,59.0,0,190,8.0,100.0
6492,47.0,0,190,8.0,100.0
6493,71.0,0,2302,11.0,84.0
6494,76.0,0,1150,11.0,84.0
6495,76.0,0,190,10.0,90.0
6496,59.0,0,190,5.0,96.0
6497,74.0,0,94,1.0,103.0
6498,74.0,0,94,10.0,90.0
6499,64.0,0,190,12.0,84.0
6500,52.0,0,190,6.0,96.0
6501,52.0,0,190,8.0,100.0
6502,64.0,0,190,8.0,100.0
6503,64.0,0,190,5.0,96.0
6504,52.0,0,190,12.0,84.0
6505,72.0,0,190,10.0,90.0
6506,72.0,96,190,1.0,103.0
6507,79.0,0,94,1.0,103.0
6508,64.0,0,190,5.0,96.0
6509,64.0,96,190,12.0,84.0
6510,52.0,0,190,6.0,96.0
6511,64.0,0,190,8.0,100.0
6512,52.0,0,190,12.0,84.0
6513,79.0,96,94,10.0,90.0
6514,52.0,0,190,8.0,100.0
6515,72.0,0,572,4.0,96.0
6516,72.0,0,572,7.0,100.0
6517,72.0,0,572,11.0,84.0
6518,64.0,0,190,5.0,96.0
6519,64.0,0,190,8.0,100.0
6520,52.0,0,190,12.0,84.0
6521,64.0,0,190,12.0,84.0
6522,52.0,0,190,6.0,96.0
6523,76.0,96,190,1.0,103.0
6524,76.0,0,190,10.0,90.0
6525,52.0,0,190,8.0,100.0
6526,72.0,0,94,10.0,90.0
6527,72.0,0,94,1.0,103.0
6528,50.0,0,190,12.0,84.0
6529,50.0,0,190,8.0,100.0
6530,62.0,0,190,12.0,84.0
6531,62.0,192,190,8.0,100.0
6532,50.0,0,190,6.0,96.0
6533,62.0,0,190,5.0,96.0
6534,71.0,96,190,1.0,103.0
6535,71.0,0,190,10.0,90.0
6536,62.0,0,190,5.0,96.0
6537,62.0,0,190,8.0,100.0
6538,50.0,0,190,8.0,100.0
6539,50.0,96,190,6.0,96.0
6540,79.0,0,94,1.0,103.0
6541,62.0,0,190,12.0,84.0
6542,50.0,0,190,12.0,84.0
6543,79.0,96,94,10.0,90.0
6544,71.0,0,572,7.0,100.0
6545,71.0,0,572,4.0,96.0
6546,71.0,0,572,11.0,84.0
6547,50.0,0,190,8.0,100.0
6548,50.0,0,190,6.0,96.0
6549,62.0,0,190,12.0,84.0
6550,76.0,0,190,1.0,103.0
6551,62.0,0,190,8.0,100.0
6552,76.0,0,190,10.0,90.0
6553,62.0,0,190,5.0,96.0
6554,50.0,96,190,12.0,84.0
6555,71.0,0,94,1.0,103.0
6556,71.0,0,94,10.0,90.0
6557,61.0,0,190,12.0,84.0
6558,49.0,0,190,12.0,84.0
6559,61.0,0,190,8.0,100.0
6560,61.0,0,190,5.0,96.0
6561,49.0,0,190,6.0,96.0
6562,49.0,0,190,8.0,100.0
6563,70.0,96,190,1.0,103.0
6564,70.0,0,190,10.0,90.0
6565,76.0,96,46,1.0,103.0
6566,76.0,0,46,10.0,90.0
6567,78.0,48,46,1.0,103.0
6568,49.0,0,190,6.0,96.0
6569,61.0,0,190,12.0,84.0
6570,78.0,0,46,10.0,90.0
6571,49.0,0,190,12.0,84.0
6572,49.0,96,190,8.0,100.0
6573,61.0,0,190,8.0,100.0
6574,61.0,0,190,5.0,96.0
6575,70.0,0,572,4.0,96.0
6576,70.0,192,572,11.0,84.0
6577,70.0,0,572,7.0,100.0
6578,49.0,0,190,6.0,96.0
6579,49.0,0,190,8.0,100.0
6580,61.0,0,190,8.0,100.0
6581,79.0,0,1726,2.0,96.0
6582,61.0,0,190,12.0,84.0
6583,49.0,48,190,12.0,84.0
6584,61.0,0,190,5.0,96.0
6585,79.0,0,1726,7.0,100.0
6586,79.0,0,1726,11.0,84.0
6587,46.0,0,190,8.0,100.0
6588,58.0,0,190,8.0,100.0
6589,46.0,0,190,6.0,96.0
6590,46.0,0,190,12.0,84.0
6591,58.0,0,190,5.0,96.0
6592,58.0,0,190,12.0,84.0
6593,79.0,0,478,10.0,90.0
6594,79.0,0,478,1.0,103.0
6595,58.0,0,190,5.0,96.0
6596,46.0,0,190,8.0,100.0
6597,58.0,0,190,12.0,84.0
6598,78.0,0,94,1.0,103.0
6599,46.0,192,190,12.0,84.0
6600,78.0,96,94,10.0,90.0
6601,58.0,0,190,8.0,100.0
6602,46.0,0,190,6.0,96.0
6603,73.0,0,572,4.0,96.0
6604,73.0,0,572,7.0,100.0
6605,73.0,0,572,11.0,84.0
6606,46.0,96,190,6.0,96.0
6607,58.0,0,190,8.0,100.0
6608,76.0,192,2302,7.0,100.0
6609,46.0,0,190,12.0,84.0
6610,58.0,0,190,12.0,84.0
6611,76.0,0,2302,11.0,84.0
6612,76.0,0,190,1.0,103.0
6613,58.0,0,190,5.0,96.0
6614,46.0,0,190,8.0,100.0
6615,76.0,0,2302,3.0,93.0
6616,73.0,0,574,2.0,96.0
6617,76.0,0,190,10.0,90.0
6618,74.0,192,22,1.0,103.0
6619,74.0,0,22,10.0,90.0
6620,76.0,24,22,10.0,90.0
6621,76.0,0,22,1.0,103.0
6622,74.0,0,22,10.0,90.0
6623,74.0,24,22,1.0,103.0
6624,76.0,24,22,10.0,90.0
6625,76.0,0,22,1.0,103.0
6626,74.0,24,22,1.0,103.0
6627,74.0,0,22,10.0,90.0
6628,76.0,0,22,10.0,90.0
6629,76.0,24,22,1.0,103.0
6630,74.0,0,22,1.0,103.0
6631,74.0,24,22,10.0,90.0
6632,59.0,0,190,12.0,84.0
6633,47.0,0,190,8.0,100.0
6634,76.0,24,22,1.0,103.0
6635,76.0,0,22,10.0,90.0
6636,47.0,0,190,6.0,96.0
6637,59.0,0,190,8.0,100.0
6638,59.0,0,190,5.0,96.0
6639,47.0,0,190,12.0,84.0
6640,74.0,0,22,10.0,90.0
6641,74.0,0,22,1.0,103.0
6642,76.0,24,22,10.0,90.0
6643,76.0,0,22,1.0,103.0
6644,74.0,0,22,10.0,90.0
6645,74.0,24,22,1.0,103.0
6646,76.0,0,22,1.0,103.0
6647,76.0,24,22,10.0,90.0
6648,73.0,0,46,10.0,90.0
6649,73.0,24,46,1.0,103.0
6650,59.0,0,190,5.0,96.0
6651,74.0,48,46,1.0,103.0
6652,47.0,0,190,12.0,84.0
6653,47.0,0,190,6.0,96.0
6654,59.0,0,190,12.0,84.0
6655,47.0,24,190,8.0,100.0
6656,74.0,0,46,10.0,90.0
6657,59.0,0,190,8.0,100.0
6658,66.0,0,572,11.0,84.0
6659,66.0,0,572,4.0,96.0
6660,66.0,0,572,7.0,100.0
6661,74.0,0,574,11.0,84.0
6662,47.0,0,190,12.0,84.0
6663,59.0,48,190,12.0,84.0
6664,47.0,0,190,8.0,100.0
6665,59.0,0,190,8.0,100.0
6666,47.0,0,190,6.0,96.0
6667,74.0,0,574,7.0,100.0
6668,59.0,0,190,5.0,96.0
6669,74.0,0,574,2.0,96.0
6670,74.0,0,574,3.0,93.0
6671,43.0,0,190,12.0,84.0
6672,43.0,0,190,8.0,100.0
6673,43.0,0,190,6.0,96.0
6674,55.0,0,190,8.0,100.0
6675,55.0,192,190,12.0,84.0
6676,55.0,0,190,5.0,96.0
6677,76.0,0,478,1.0,103.0
6678,76.0,0,478,10.0,90.0
6679,55.0,0,190,12.0,84.0
6680,74.0,0,94,10.0,90.0
6681,43.0,0,190,12.0,84.0
6682,55.0,0,190,8.0,100.0
6683,55.0,0,190,5.0,96.0
6684,43.0,192,190,8.0,100.0
6685,43.0,0,190,6.0,96.0
6686,74.0,96,94,1.0,103.0
6687,67.0,0,572,7.0,100.0
6688,67.0,0,572,4.0,96.0
6689,67.0,0,572,11.0,84.0
6690,43.0,0,190,8.0,100.0
6691,55.0,0,190,8.0,100.0
6692,43.0,96,190,12.0,84.0
6693,76.0,0,574,7.0,100.0
6694,55.0,0,190,12.0,84.0
6695,76.0,0,574,11.0,84.0
6696,76.0,0,574,2.0,96.0
6697,73.0,0,190,10.0,90.0
6698,43.0,0,190,6.0,96.0
6699,71.0,0,574,7.0,100.0
6700,71.0,0,574,3.0,93.0
6701,71.0,0,574,11.0,84.0
6702,73.0,0,190,1.0,103.0
6703,55.0,0,190,5.0,96.0
6704,71.0,0,94,1.0,103.0
6705,71.0,0,94,10.0,90.0
6706,42.0,0,190,8.0,100.0
6707,54.0,192,190,8.0,100.0
6708,42.0,0,190,12.0,84.0
6709,42.0,0,190,6.0,96.0
6710,54.0,0,190,12.0,84.0
6711,54.0,0,190,5.0,96.0
6712,37.0,96,190,12.0,84.0
6713,49.0,0,190,12.0,84.0
6714,49.0,0,190,5.0,96.0
6715,49.0,0,190,8.0,100.0
6716,37.0,0,190,6.0,96.0
6717,37.0,0,190,8.0,100.0
6718,40.0,0,190,12.0,84.0
6719,40.0,192,190,6.0,96.0
6720,52.0,0,190,5.0,96.0
6721,40.0,0,190,8.0,100.0
6722,52.0,0,190,8.0,100.0
6723,52.0,0,190,12.0,84.0
6724,40.0,0,190,12.0,84.0
6725,40.0,0,190,8.0,100.0
6726,40.0,192,190,6.0,96.0
6727,52.0,0,190,5.0,96.0
6728,52.0,0,190,8.0,100.0
6729,52.0,0,190,12.0,84.0
6730,70.0,0,766,10.0,90.0
6731,70.0,96,766,1.0,103.0
6732,61.0,0,956,4.0,96.0
6733,61.0,0,956,7.0,100.0
6734,61.0,0,956,11.0,84.0
6735,34.0,0,190,6.0,96.0
6736,70.0,0,958,3.0,93.0
6737,70.0,0,958,11.0,84.0
6738,66.0,0,94,10.0,90.0
6739,46.0,0,190,8.0,100.0
6740,78.0,0,958,7.0,100.0
6741,46.0,0,190,5.0,96.0
6742,66.0,96,94,1.0,103.0
6743,78.0,0,958,11.0,84.0
6744,34.0,192,190,8.0,100.0
6745,70.0,0,958,7.0,100.0
6746,46.0,0,190,12.0,84.0
6747,34.0,0,190,12.0,84.0
6748,78.0,0,958,2.0,96.0
6749,70.0,0,94,1.0,103.0
6750,70.0,0,94,10.0,90.0
6751,37.0,0,190,6.0,96.0
6752,49.0,0,190,8.0,100.0
6753,73.0,0,94,1.0,103.0
6754,37.0,96,190,8.0,100.0
6755,49.0,0,190,5.0,96.0
6756,73.0,96,94,10.0,90.0
6757,49.0,0,190,12.0,84.0
6758,37.0,0,190,12.0,84.0
6759,76.0,0,46,1.0,103.0
6760,76.0,0,46,10.0,90.0
6761,74.0,0,46,1.0,103.0
6762,74.0,48,46,10.0,90.0
6763,61.0,0,188,11.0,84.0
6764,61.0,0,188,7.0,100.0
6765,61.0,0,188,4.0,96.0
6766,66.0,96,190,3.0,93.0
6767,70.0,0,190,2.0,96.0
6768,73.0,0,94,10.0,90.0
6769,66.0,0,190,7.0,100.0
6770,73.0,48,94,1.0,103.0
6771,70.0,0,190,7.0,100.0
6772,70.0,0,190,11.0,84.0
6773,66.0,0,190,11.0,84.0
6774,62.0,0,188,11.0,84.0
6775,62.0,0,188,7.0,100.0
6776,62.0,0,188,4.0,96.0
6777,42.0,0,382,5.0,96.0
6778,68.0,0,190,7.0,100.0
6779,71.0,96,190,7.0,100.0
6780,68.0,0,190,3.0,93.0
6781,42.0,0,382,8.0,100.0
6782,30.0,0,382,12.0,84.0
6783,42.0,0,382,12.0,84.0
6784,30.0,0,382,6.0,96.0
6785,71.0,0,190,11.0,84.0
6786,68.0,0,190,11.0,84.0
6787,71.0,0,190,2.0,96.0
6788,71.0,0,190,10.0,90.0
6789,30.0,0,382,8.0,100.0
6790,71.0,0,190,1.0,103.0
6791,70.0,0,94,10.0,90.0
6792,70.0,0,94,1.0,103.0
6793,71.0,96,30,10.0,90.0
6794,71.0,0,30,1.0,103.0
6795,64.0,0,188,4.0,96.0
6796,64.0,0,188,7.0,100.0
6797,64.0,0,188,11.0,84.0
6798,73.0,0,190,7.0,100.0
6799,70.0,0,190,3.0,93.0
6800,73.0,192,190,11.0,84.0
6801,70.0,0,190,11.0,84.0
6802,70.0,0,190,7.0,100.0
6803,73.0,0,190,2.0,96.0
6804,73.0,0,46,1.0,103.0
6805,73.0,0,46,10.0,90.0
6806,71.0,48,46,10.0,90.0
6807,71.0,0,46,1.0,103.0
6808,54.0,0,188,11.0,84.0
6809,54.0,0,188,4.0,96.0
6810,54.0,0,188,7.0,100.0
6811,73.0,0,190,11.0,84.0
6812,70.0,0,190,11.0,84.0
6813,73.0,0,190,7.0,100.0
6814,70.0,0,190,7.0,100.0
6815,70.0,48,94,1.0,103.0
6816,70.0,0,190,3.0,93.0
6817,70.0,0,94,10.0,90.0
6818,73.0,96,190,2.0,96.0
6819,54.0,0,188,11.0,84.0
6820,54.0,0,188,7.0,100.0
6821,54.0,0,188,4.0,96.0
6822,71.0,0,190,3.0,93.0
6823,74.0,96,190,7.0,100.0
6824,67.0,0,190,1.0,103.0
6825,71.0,0,190,7.0,100.0
6826,67.0,0,190,10.0,90.0
6827,74.0,0,190,2.0,96.0
6828,74.0,0,190,11.0,84.0
6829,71.0,0,190,11.0,84.0
6830,66.0,0,94,10.0,90.0
6831,66.0,0,94,1.0,103.0
6832,54.0,0,188,11.0,84.0
6833,54.0,192,188,7.0,100.0
6834,54.0,0,188,4.0,96.0
6835,67.0,96,94,1.0,103.0
6836,73.0,0,190,7.0,100.0
6837,67.0,0,94,10.0,90.0
6838,76.0,0,190,11.0,84.0
6839,73.0,0,190,11.0,84.0
6840,76.0,0,190,7.0,100.0
6841,76.0,0,190,2.0,96.0
6842,73.0,0,190,3.0,93.0
6843,67.0,0,46,1.0,103.0
6844,67.0,0,46,10.0,90.0
6845,66.0,48,46,1.0,103.0
6846,66.0,0,46,10.0,90.0
6847,42.0,0,190,5.0,96.0
6848,42.0,0,190,8.0,100.0
6849,30.0,0,190,12.0,84.0
6850,30.0,0,190,6.0,96.0
6851,64.0,0,94,10.0,90.0
6852,42.0,0,190,12.0,84.0
6853,64.0,48,94,1.0,103.0
6854,30.0,0,190,8.0,100.0
6855,30.0,0,190,12.0,84.0
6856,42.0,96,190,5.0,96.0
6857,42.0,0,190,12.0,84.0
6858,30.0,0,190,6.0,96.0
6859,30.0,0,190,8.0,100.0
6860,42.0,0,190,8.0,100.0
6861,70.0,0,286,10.0,90.0
6862,70.0,0,286,1.0,103.0
6863,67.0,0,46,1.0,103.0
6864,67.0,96,46,10.0,90.0
6865,66.0,48,46,10.0,90.0
6866,66.0,0,46,1.0,103.0
6867,30.0,0,190,8.0,100.0
6868,30.0,0,190,12.0,84.0
6869,42.0,0,190,12.0,84.0
6870,42.0,0,190,8.0,100.0
6871,42.0,192,190,5.0,96.0
6872,30.0,0,190,6.0,96.0
6873,67.0,48,46,1.0,103.0
6874,67.0,0,46,10.0,90.0
6875,66.0,0,46,10.0,90.0
6876,66.0,48,46,1.0,103.0
6877,30.0,0,190,8.0,100.0
6878,42.0,0,190,8.0,100.0
6879,42.0,0,190,5.0,96.0
6880,64.0,0,94,10.0,90.0
6881,64.0,48,94,1.0,103.0
6882,30.0,0,190,12.0,84.0
6883,42.0,0,190,12.0,84.0
6884,30.0,0,190,6.0,96.0
6885,70.0,96,956,11.0,84.0
6886,70.0,0,956,7.0,100.0
6887,70.0,0,956,4.0,96.0
6888,73.0,0,958,3.0,93.0
6889,73.0,0,958,7.0,100.0
6890,30.0,96,190,12.0,84.0
6891,73.0,0,958,11.0,84.0
6892,76.0,0,958,11.0,84.0
6893,42.0,0,190,8.0,100.0
6894,42.0,0,190,12.0,84.0
6895,42.0,0,190,5.0,96.0
6896,76.0,0,958,2.0,96.0
6897,76.0,0,958,7.0,100.0
6898,30.0,0,190,6.0,96.0
6899,30.0,0,190,8.0,100.0
6900,73.0,0,286,10.0,90.0
6901,73.0,0,286,1.0,103.0
6902,66.0,0,46,10.0,90.0
6903,66.0,96,46,1.0,103.0
6904,30.0,0,190,8.0,100.0
6905,64.0,48,46,10.0,90.0
6906,64.0,0,46,1.0,103.0
6907,42.0,192,190,12.0,84.0
6908,42.0,0,190,8.0,100.0
6909,42.0,0,190,5.0,96.0
6910,30.0,0,190,12.0,84.0
6911,30.0,0,190,6.0,96.0
6912,66.0,0,46,1.0,103.0
6913,66.0,0,46,10.0,90.0
6914,64.0,0,46,10.0,90.0
6915,64.0,48,46,1.0,103.0
6916,57.0,0,188,11.0,84.0
6917,57.0,0,188,7.0,100.0
6918,57.0,0,188,4.0,96.0
6919,63.0,0,94,1.0,103.0
6920,63.0,0,190,3.0,93.0
6921,63.0,0,190,7.0,100.0
6922,63.0,48,94,10.0,90.0
6923,66.0,0,190,2.0,96.0
6924,66.0,0,190,7.0,100.0
6925,66.0,0,190,11.0,84.0
6926,63.0,0,190,11.0,84.0
6927,55.0,0,188,4.0,96.0
6928,55.0,0,188,11.0,84.0
6929,55.0,0,188,7.0,100.0
6930,60.0,0,190,1.0,103.0
6931,35.0,0,382,6.0,96.0
6932,47.0,48,382,8.0,100.0
6933,35.0,0,382,8.0,100.0
6934,67.0,0,190,11.0,84.0
6935,47.0,0,382,5.0,96.0
6936,47.0,0,382,12.0,84.0
6937,64.0,0,190,7.0,100.0
6938,67.0,0,190,7.0,100.0
6939,67.0,96,190,2.0,96.0
6940,35.0,0,382,12.0,84.0
6941,60.0,0,190,10.0,90.0
6942,64.0,0,190,3.0,93.0
6943,64.0,0,190,11.0,84.0
6944,59.0,192,94,1.0,103.0
6945,59.0,0,94,10.0,90.0
6946,69.0,96,46,10.0,90.0
6947,69.0,0,46,1.0,103.0
6948,54.0,0,188,7.0,100.0
6949,54.0,0,188,4.0,96.0
6950,54.0,0,188,11.0,84.0
6951,67.0,48,46,1.0,103.0
6952,66.0,0,190,7.0,100.0
6953,69.0,0,190,7.0,100.0
6954,69.0,0,190,2.0,96.0
6955,69.0,0,190,11.0,84.0
6956,67.0,0,46,10.0,90.0
6957,66.0,0,190,3.0,93.0
6958,66.0,0,190,11.0,84.0
6959,69.0,0,46,1.0,103.0
6960,69.0,0,46,10.0,90.0
6961,67.0,48,46,10.0,90.0
6962,67.0,0,46,1.0,103.0
6963,59.0,0,188,7.0,100.0
6964,59.0,0,188,11.0,84.0
6965,59.0,0,188,4.0,96.0
6966,66.0,48,94,10.0,90.0
6967,66.0,0,190,11.0,84.0
6968,63.0,0,190,11.0,84.0
6969,63.0,0,190,3.0,93.0
6970,66.0,0,94,1.0,103.0
6971,66.0,48,190,7.0,100.0
6972,63.0,0,190,7.0,100.0
6973,66.0,0,190,2.0,96.0
6974,59.0,0,188,11.0,84.0
6975,59.0,0,188,4.0,96.0
6976,59.0,0,188,7.0,100.0
6977,67.0,0,190,11.0,84.0
6978,67.0,0,190,7.0,100.0
6979,64.0,0,190,7.0,100.0
6980,64.0,0,190,11.0,84.0
6981,64.0,96,190,10.0,90.0
6982,64.0,0,190,3.0,93.0
6983,67.0,0,190,2.0,96.0
6984,64.0,0,190,1.0,103.0
6985,63.0,0,94,1.0,103.0
6986,63.0,192,94,10.0,90.0
6987,72.0,0,46,10.0,90.0
6988,72.0,96,46,1.0,103.0
6989,59.0,0,188,7.0,100.0
6990,59.0,0,188,4.0,96.0
6991,59.0,0,188,11.0,84.0
6992,69.0,0,190,2.0,96.0
6993,71.0,0,46,1.0,103.0
6994,66.0,0,190,7.0,100.0
6995,66.0,0,190,11.0,84.0
6996,69.0,0,190,11.0,84.0
6997,71.0,48,46,10.0,90.0
6998,69.0,0,190,7.0,100.0
6999,66.0,0,190,3.0,93.0
7000,72.0,48,46,10.0,90.0
7001,72.0,0,46,1.0,103.0
7002,71.0,0,46,1.0,103.0
7003,71.0,48,46,10.0,90.0
7004,35.0,0,190,8.0,100.0
7005,47.0,0,190,12.0,84.0
7006,35.0,0,190,12.0,84.0
7007,35.0,0,190,6.0,96.0
7008,47.0,0,190,8.0,100.0
7009,69.0,0,94,10.0,90.0
7010,47.0,0,190,5.0,96.0
7011,69.0,48,94,1.0,103.0
7012,35.0,0,190,8.0,100.0
7013,35.0,96,190,6.0,96.0
7014,47.0,0,190,12.0,84.0
7015,35.0,0,190,12.0,84.0
7016,47.0,0,190,5.0,96.0
7017,67.0,0,190,10.0,90.0
7018,47.0,0,190,8.0,100.0
7019,67.0,0,190,1.0,103.0
7020,66.0,0,94,10.0,90.0
7021,66.0,0,94,1.0,103.0
7022,78.0,96,46,10.0,90.0
7023,78.0,0,46,1.0,103.0
7024,47.0,0,190,8.0,100.0
7025,35.0,0,190,8.0,100.0
7026,76.0,0,46,1.0,103.0
7027,35.0,0,190,6.0,96.0
7028,76.0,48,46,10.0,90.0
7029,47.0,0,190,12.0,84.0
7030,35.0,0,190,12.0,84.0
7031,47.0,192,190,5.0,96.0
7032,78.0,0,46,10.0,90.0
7033,78.0,0,46,1.0,103.0
7034,76.0,0,46,1.0,103.0
7035,76.0,48,46,10.0,90.0
7036,75.0,0,94,10.0,90.0
7037,35.0,48,190,6.0,96.0
7038,47.0,0,190,5.0,96.0
7039,75.0,48,94,1.0,103.0
7040,35.0,0,190,8.0,100.0
7041,47.0,0,190,12.0,84.0
7042,35.0,0,190,12.0,84.0
7043,47.0,0,190,8.0,100.0
7044,63.0,0,956,11.0,84.0
7045,63.0,0,956,7.0,100.0
7046,63.0,0,956,4.0,96.0
7047,69.0,0,958,7.0,100.0
7048,66.0,0,958,3.0,93.0
7049,47.0,0,190,8.0,100.0
7050,35.0,0,190,8.0,100.0
7051,72.0,0,190,10.0,90.0
7052,35.0,0,190,6.0,96.0
7053,66.0,0,958,11.0,84.0
7054,69.0,0,958,2.0,96.0
7055,69.0,0,958,11.0,84.0
7056,66.0,0,958,7.0,100.0
7057,47.0,0,190,12.0,84.0
7058,35.0,0,190,12.0,84.0
7059,47.0,96,190,5.0,96.0
7060,72.0,0,190,1.0,103.0
7061,71.0,0,94,1.0,103.0
7062,71.0,0,94,10.0,90.0
7063,35.0,192,190,12.0,84.0
7064,47.0,0,190,5.0,96.0
7065,47.0,0,190,8.0,100.0
7066,47.0,0,190,12.0,84.0
7067,78.0,96,94,1.0,103.0
7068,35.0,0,190,6.0,96.0
7069,78.0,0,94,10.0,90.0
7070,35.0,0,190,8.0,100.0
7071,79.0,0,46,1.0,103.0
7072,79.0,0,46,10.0,90.0
7073,81.0,0,46,1.0,103.0
7074,81.0,48,46,10.0,90.0
7075,28.0,96,190,8.0,100.0
7076,40.0,0,190,8.0,100.0
7077,28.0,0,190,6.0,96.0
7078,40.0,0,190,5.0,96.0
7079,40.0,0,190,12.0,84.0
7080,28.0,0,190,12.0,84.0
7081,83.0,48,190,10.0,90.0
7082,83.0,0,190,1.0,103.0
7083,81.0,0,46,10.0,90.0
7084,81.0,96,46,1.0,103.0
7085,79.0,0,46,10.0,90.0
7086,28.0,96,190,8.0,100.0
7087,28.0,0,190,6.0,96.0
7088,40.0,0,190,8.0,100.0
7089,79.0,48,46,1.0,103.0
7090,40.0,0,190,5.0,96.0
7091,28.0,0,190,12.0,84.0
7092,40.0,0,190,12.0,84.0
7093,81.0,0,46,1.0,103.0
7094,81.0,0,46,10.0,90.0
7095,79.0,0,46,1.0,103.0
7096,79.0,48,46,10.0,90.0
7097,59.0,0,572,7.0,100.0
7098,59.0,0,572,11.0,84.0
7099,59.0,0,572,4.0,96.0
7100,28.0,0,190,8.0,100.0
7101,40.0,0,190,12.0,84.0
7102,78.0,0,94,10.0,90.0
7103,78.0,48,94,1.0,103.0
7104,67.0,0,574,2.0,96.0
7105,64.0,0,574,7.0,100.0
7106,40.0,0,190,5.0,96.0
7107,64.0,0,574,3.0,93.0
7108,64.0,0,574,11.0,84.0
7109,67.0,0,574,11.0,84.0
7110,28.0,0,190,12.0,84.0
7111,28.0,48,190,6.0,96.0
7112,67.0,0,574,7.0,100.0
7113,40.0,0,190,8.0,100.0
7114,76.0,0,46,10.0,90.0
7115,76.0,0,46,1.0,103.0
7116,78.0,0,46,10.0,90.0
7117,78.0,48,46,1.0,103.0
7118,40.0,0,190,8.0,100.0
7119,28.0,0,190,12.0,84.0
7120,40.0,0,190,12.0,84.0
7121,28.0,0,190,6.0,96.0
7122,28.0,0,190,8.0,100.0
7123,40.0,0,190,5.0,96.0
7124,79.0,0,190,1.0,103.0
7125,79.0,48,190,10.0,90.0
7126,78.0,0,46,10.0,90.0
7127,78.0,96,46,1.0,103.0
7128,28.0,0,190,12.0,84.0
7129,40.0,0,190,5.0,96.0
7130,40.0,96,190,12.0,84.0
7131,40.0,0,190,8.0,100.0
7132,28.0,0,190,6.0,96.0
7133,76.0,0,46,10.0,90.0
7134,28.0,0,190,8.0,100.0
7135,76.0,48,46,1.0,103.0
7136,78.0,48,46,1.0,103.0
7137,78.0,0,46,10.0,90.0
7138,76.0,0,46,10.0,90.0
7139,76.0,48,46,1.0,103.0
7140,64.0,0,572,7.0,100.0
7141,64.0,0,572,11.0,84.0
7142,64.0,0,572,4.0,96.0
7143,28.0,0,190,8.0,100.0
7144,28.0,0,190,12.0,84.0
7145,28.0,0,190,6.0,96.0
7146,67.0,0,574,3.0,93.0
7147,40.0,0,190,12.0,84.0
7148,71.0,0,574,2.0,96.0
7149,40.0,0,190,5.0,96.0
7150,67.0,0,574,11.0,84.0
7151,40.0,0,190,8.0,100.0
7152,67.0,0,574,7.0,100.0
7153,71.0,0,574,11.0,84.0
7154,74.0,48,94,10.0,90.0
7155,71.0,96,574,7.0,100.0
7156,74.0,0,94,1.0,103.0
7157,72.0,0,46,1.0,103.0
7158,72.0,0,46,10.0,90.0
7159,74.0,0,46,10.0,90.0
7160,74.0,48,46,1.0,103.0
7161,40.0,0,190,8.0,100.0
7162,40.0,0,190,12.0,84.0
7163,28.0,0,190,12.0,84.0
7164,40.0,0,190,5.0,96.0
7165,28.0,96,190,8.0,100.0
7166,28.0,0,190,6.0,96.0
7167,76.0,0,190,1.0,103.0
7168,76.0,48,190,10.0,90.0
7169,74.0,0,46,10.0,90.0
7170,74.0,96,46,1.0,103.0
7171,72.0,0,46,1.0,103.0
7172,40.0,0,190,5.0,96.0
7173,28.0,0,190,12.0,84.0
7174,40.0,0,190,8.0,100.0
7175,28.0,0,190,6.0,96.0
7176,72.0,48,46,10.0,90.0
7177,28.0,0,190,8.0,100.0
7178,40.0,96,190,12.0,84.0
7179,74.0,0,46,1.0,103.0
7180,74.0,0,46,10.0,90.0
7181,72.0,48,46,1.0,103.0
7182,72.0,0,46,10.0,90.0
7183,67.0,0,572,11.0,84.0
7184,67.0,0,572,7.0,100.0
7185,67.0,0,572,4.0,96.0
7186,72.0,0,574,7.0,100.0
7187,76.0,0,574,7.0,100.0
7188,72.0,0,574,3.0,93.0
7189,40.0,0,190,5.0,96.0
7190,76.0,0,574,11.0,84.0
7191,72.0,0,574,11.0,84.0
7192,71.0,0,94,10.0,90.0
7193,28.0,0,190,12.0,84.0
7194,40.0,0,190,12.0,84.0
7195,28.0,48,190,6.0,96.0
7196,28.0,0,190,8.0,100.0
7197,40.0,0,190,8.0,100.0
7198,76.0,0,574,2.0,96.0
7199,71.0,48,94,1.0,103.0
7200,70.0,0,46,1.0,103.0
7201,70.0,0,46,10.0,90.0
7202,71.0,0,46,1.0,103.0
7203,71.0,48,46,10.0,90.0
7204,61.0,0,188,7.0,100.0
7205,61.0,0,188,11.0,84.0
7206,61.0,0,188,4.0,96.0
7207,40.0,0,190,5.0,96.0
7208,76.0,0,190,3.0,93.0
7209,28.0,0,190,12.0,84.0
7210,28.0,0,190,8.0,100.0
7211,40.0,0,190,8.0,100.0
7212,76.0,0,190,7.0,100.0
7213,28.0,0,190,6.0,96.0
7214,40.0,96,190,12.0,84.0
7215,79.0,0,190,7.0,100.0
7216,76.0,0,190,11.0,84.0
7217,79.0,0,190,2.0,96.0
7218,79.0,0,190,11.0,84.0
7219,73.0,0,190,1.0,103.0
7220,73.0,48,190,10.0,90.0
7221,71.0,0,46,10.0,90.0
7222,71.0,96,46,1.0,103.0
7223,40.0,0,190,8.0,100.0
7224,28.0,0,190,8.0,100.0
7225,28.0,0,190,6.0,96.0
7226,70.0,0,46,1.0,103.0
7227,28.0,0,190,12.0,84.0
7228,40.0,0,190,5.0,96.0
7229,40.0,0,190,12.0,84.0
7230,70.0,48,46,10.0,90.0
7231,71.0,0,46,1.0,103.0
7232,71.0,0,46,10.0,90.0
7233,70.0,48,46,10.0,90.0
7234,70.0,0,46,1.0,103.0
7235,70.0,96,380,11.0,84.0
7236,70.0,0,380,4.0,96.0
7237,70.0,0,380,7.0,100.0
7238,68.0,48,94,10.0,90.0
7239,40.0,48,190,6.0,96.0
7240,68.0,0,94,1.0,103.0
7241,73.0,0,382,3.0,93.0
7242,73.0,0,382,7.0,100.0
7243,73.0,0,382,11.0,84.0
7244,52.0,0,190,8.0,100.0
7245,52.0,0,190,12.0,84.0
7246,52.0,0,190,5.0,96.0
7247,40.0,0,190,12.0,84.0
7248,40.0,0,190,8.0,100.0
7249,71.0,0,188,7.0,100.0
7250,71.0,0,188,11.0,84.0
7251,71.0,0,188,4.0,96.0
7252,50.0,0,190,8.0,100.0
7253,78.0,0,574,7.0,100.0
7254,74.0,0,190,7.0,100.0
7255,74.0,0,190,3.0,93.0
7256,38.0,0,190,6.0,96.0
7257,78.0,0,574,11.0,84.0
7258,50.0,0,190,12.0,84.0
7259,38.0,0,190,12.0,84.0
7260,50.0,0,190,5.0,96.0
7261,38.0,96,190,8.0,100.0
7262,78.0,0,574,2.0,96.0
7263,74.0,0,190,11.0,84.0
7264,66.0,0,286,10.0,90.0
7265,66.0,0,286,1.0,103.0
7266,68.0,96,46,10.0,90.0
7267,68.0,0,46,1.0,103.0
7268,64.0,0,188,4.0,96.0
7269,64.0,0,188,11.0,84.0
7270,64.0,0,188,7.0,100.0
7271,70.0,0,46,10.0,90.0
7272,49.0,0,190,8.0,100.0
7273,49.0,0,190,5.0,96.0
7274,37.0,0,190,8.0,100.0
7275,49.0,192,190,12.0,84.0
7276,69.0,0,190,3.0,93.0
7277,69.0,0,190,7.0,100.0
7278,76.0,0,190,7.0,100.0
7279,70.0,48,46,1.0,103.0
7280,37.0,0,190,6.0,96.0
7281,76.0,0,190,2.0,96.0
7282,76.0,0,190,11.0,84.0
7283,69.0,0,190,11.0,84.0
7284,37.0,0,190,12.0,84.0
7285,71.0,0,46,10.0,90.0
7286,71.0,0,46,1.0,103.0
7287,73.0,48,46,10.0,90.0
7288,73.0,0,46,1.0,103.0
7289,74.0,0,46,10.0,90.0
7290,74.0,48,46,1.0,103.0
7291,66.0,0,188,4.0,96.0
7292,66.0,0,188,11.0,84.0
7293,66.0,48,188,7.0,100.0
7294,74.0,0,190,2.0,96.0
7295,47.0,0,190,5.0,96.0
7296,73.0,48,46,1.0,103.0
7297,73.0,0,46,10.0,90.0
7298,74.0,0,190,11.0,84.0
7299,35.0,0,190,12.0,84.0
7300,47.0,0,190,12.0,84.0
7301,74.0,0,190,7.0,100.0
7302,47.0,0,190,8.0,100.0
7303,35.0,0,190,8.0,100.0
7304,35.0,0,190,6.0,96.0
7305,61.0,0,128,4.0,96.0
7306,61.0,0,128,7.0,100.0
7307,76.0,0,128,1.0,103.0
7308,61.0,0,128,11.0,84.0
7309,76.0,48,128,11.0,84.0
7310,76.0,0,128,2.0,96.0
7311,76.0,0,128,7.0,100.0
7312,76.0,0,128,10.0,90.0
7313,42.0,0,190,6.0,96.0
7314,54.0,0,190,12.0,84.0
7315,54.0,0,190,5.0,96.0
7316,71.0,0,382,11.0,84.0
7317,42.0,0,190,8.0,100.0
7318,71.0,0,382,3.0,93.0
7319,42.0,0,190,12.0,84.0
7320,71.0,0,382,7.0,100.0
7321,54.0,0,190,8.0,100.0
7322,62.0,0,128,4.0,96.0
7323,74.0,0,128,2.0,96.0
7324,74.0,0,128,1.0,103.0
7325,71.0,0,128,7.0,100.0
7326,62.0,0,128,7.0,100.0
7327,71.0,0,128,3.0,93.0
7328,62.0,192,128,11.0,84.0
7329,71.0,0,128,11.0,84.0
7330,74.0,0,128,10.0,90.0
7331,74.0,0,128,11.0,84.0
7332,74.0,0,128,7.0,100.0
7333,42.0,0,190,12.0,84.0
7334,30.0,0,190,8.0,100.0
7335,42.0,0,190,8.0,100.0
7336,42.0,0,190,5.0,96.0
7337,30.0,0,190,6.0,96.0
7338,30.0,0,190,12.0,84.0
7339,74.0,0,44,1.0,103.0
7340,74.0,0,44,10.0,90.0
7341,73.0,0,20,1.0,103.0
7342,73.0,48,20,10.0,90.0
7343,74.0,24,20,1.0,103.0
7344,74.0,0,20,10.0,90.0
7345,73.0,0,20,1.0,103.0
7346,73.0,24,20,10.0,90.0
7347,64.0,0,128,4.0,96.0
7348,69.0,0,128,7.0,100.0
7349,69.0,0,128,3.0,93.0
7350,73.0,0,128,11.0,84.0
7351,69.0,0,128,11.0,84.0
7352,64.0,0,128,11.0,84.0
7353,73.0,0,128,2.0,96.0
7354,73.0,0,128,7.0,100.0
7355,64.0,0,128,7.0,100.0
7356,74.0,24,20,1.0,103.0
7357,74.0,0,20,10.0,90.0
7358,73.0,0,44,1.0,103.0
7359,73.0,24,44,10.0,90.0
7360,30.0,0,190,8.0,100.0
7361,42.0,0,190,12.0,84.0
7362,30.0,0,190,12.0,84.0
7363,30.0,192,190,6.0,96.0
7364,42.0,0,190,8.0,100.0
7365,42.0,0,190,5.0,96.0
7366,62.0,0,188,4.0,96.0
7367,62.0,0,188,11.0,84.0
7368,62.0,0,188,7.0,100.0
7369,71.0,0,190,7.0,100.0
7370,66.0,0,190,7.0,100.0
7371,71.0,0,190,11.0,84.0
7372,71.0,0,190,2.0,96.0
7373,66.0,0,190,11.0,84.0
7374,66.0,48,190,3.0,93.0
7375,64.0,0,188,7.0,100.0
7376,64.0,0,188,4.0,96.0
7377,64.0,0,188,11.0,84.0
7378,69.0,0,190,3.0,93.0
7379,69.0,0,190,7.0,100.0
7380,73.0,0,190,7.0,100.0
7381,73.0,0,190,2.0,96.0
7382,69.0,0,190,11.0,84.0
7383,73.0,192,190,11.0,84.0
7384,66.0,0,188,11.0,84.0
7385,66.0,192,188,4.0,96.0
7386,66.0,0,188,7.0,100.0
7387,71.0,0,190,11.0,84.0
7388,74.0,0,190,7.0,100.0
7389,71.0,0,190,3.0,93.0
7390,74.0,0,190,2.0,96.0
7391,71.0,0,190,7.0,100.0
7392,74.0,0,190,11.0,84.0
7393,64.0,0,188,11.0,84.0
7394,64.0,0,188,7.0,100.0
7395,64.0,0,188,4.0,96.0
7396,73.0,0,190,2.0,96.0
7397,73.0,192,190,11.0,84.0
7398,69.0,0,190,11.0,84.0
7399,69.0,0,190,3.0,93.0
7400,69.0,0,190,7.0,100.0
7401,73.0,0,190,7.0,100.0
7402,66.0,0,188,4.0,96.0
7403,66.0,0,188,7.0,100.0
7404,66.0,0,188,11.0,84.0
7405,74.0,0,190,2.0,96.0
7406,47.0,0,958,8.0,100.0
7407,35.0,0,958,8.0,100.0
7408,71.0,192,190,3.0,93.0
7409,71.0,0,190,7.0,100.0
7410,47.0,0,958,12.0,84.0
7411,35.0,0,958,6.0,96.0
7412,35.0,0,958,12.0,84.0
7413,74.0,0,190,11.0,84.0
7414,71.0,0,190,11.0,84.0
7415,74.0,0,190,7.0,100.0
7416,47.0,0,958,5.0,96.0
7417,58.0,0,188,4.0,96.0
7418,58.0,0,188,7.0,100.0
7419,58.0,0,188,11.0,84.0
7420,73.0,0,190,7.0,100.0
7421,76.0,0,190,7.0,100.0
7422,73.0,0,190,11.0,84.0
7423,76.0,0,190,11.0,84.0
7424,76.0,0,190,2.0,96.0
7425,73.0,0,190,3.0,93.0
7426,35.0,0,190,6.0,96.0
7427,47.0,192,190,12.0,84.0
7428,35.0,0,190,12.0,84.0
7429,47.0,0,190,8.0,100.0
7430,47.0,0,190,5.0,96.0
7431,35.0,0,190,8.0,100.0
7432,71.0,0,1148,11.0,84.0
7433,23.0,0,1148,12.0,84.0
7434,59.0,0,1148,11.0,84.0
7435,35.0,0,1148,12.0,84.0
7436,47.0,0,1148,12.0,84.0
7437,66.0,0,1148,11.0,84.0
7438,59.0,0,1148,7.0,100.0
7439,71.0,0,1148,7.0,100.0
7440,66.0,0,1148,7.0,100.0
7441,35.0,0,1148,8.0,100.0
7442,23.0,0,1148,8.0,100.0
7443,47.0,0,1148,8.0,100.0
7444,71.0,0,2300,10.0,90.0
7445,71.0,0,2300,1.0,103.0
7446,59.0,0,1148,4.0,96.0
7447,23.0,0,1148,6.0,96.0
7448,35.0,192,1148,6.0,96.0
7449,35.0,0,1148,5.0,96.0
7450,71.0,0,1148,3.0,93.0
7451,47.0,0,1148,5.0,96.0
7452,66.0,0,1148,2.0,96.0
