,note,step,duration,channel,velocity
0,61.0,0.0,210.0,4.0,0.0
1,61.0,240.0,210.0,10.0,0.0
2,69.0,240.0,210.0,10.0,0.0
3,69.0,0.0,210.0,4.0,0.0
4,68.0,240.0,210.0,4.0,0.0
5,68.0,0.0,210.0,10.0,0.0
6,66.0,456.0,210.0,4.0,0.0
7,66.0,0.0,210.0,10.0,0.0
8,64.0,0.0,420.0,4.0,0.0
9,64.0,24.0,420.0,10.0,0.0
10,81.0,216.0,210.0,2.0,0.0
11,78.0,0.0,420.0,7.0,0.0
12,81.0,0.0,420.0,6.0,0.0
13,78.0,24.0,420.0,3.0,0.0
14,63.0,0.0,420.0,4.0,0.0
15,71.0,24.0,420.0,6.0,0.0
16,71.0,216.0,210.0,2.0,0.0
17,63.0,0.0,420.0,10.0,0.0
18,80.0,132.0,450.0,6.0,0.0
19,80.0,240.0,210.0,2.0,0.0
20,76.0,0.0,450.0,7.0,0.0
21,76.0,0.0,450.0,3.0,0.0
22,69.0,0.0,420.0,6.0,0.0
23,61.0,0.0,420.0,4.0,0.0
24,69.0,0.0,210.0,2.0,0.0
25,61.0,24.0,420.0,10.0,0.0
26,75.0,84.0,120.0,3.0,0.0
27,78.0,12.0,210.0,2.0,0.0
28,75.0,0.0,120.0,7.0,0.0
29,78.0,24.0,420.0,6.0,0.0
30,73.0,0.0,120.0,7.0,0.0
31,73.0,204.0,120.0,3.0,0.0
32,68.0,24.0,1140.0,6.0,0.0
33,75.0,0.0,690.0,3.0,0.0
34,60.0,0.0,420.0,4.0,0.0
35,60.0,24.0,420.0,10.0,0.0
36,75.0,132.0,690.0,7.0,0.0
37,68.0,216.0,210.0,2.0,0.0
38,78.0,0.0,210.0,6.0,0.0
39,78.0,240.0,210.0,2.0,0.0
40,76.0,12.0,690.0,6.0,0.0
41,61.0,36.0,420.0,4.0,0.0
42,76.0,0.0,210.0,2.0,0.0
43,61.0,0.0,420.0,10.0,0.0
44,73.0,84.0,120.0,7.0,0.0
45,73.0,0.0,120.0,3.0,0.0
46,68.0,24.0,420.0,2.0,0.0
47,71.0,0.0,120.0,7.0,0.0
48,71.0,120.0,120.0,3.0,0.0
49,70.0,60.0,120.0,3.0,0.0
50,70.0,0.0,420.0,7.0,0.0
51,63.0,0.0,420.0,4.0,0.0
52,63.0,24.0,420.0,10.0,0.0
53,76.0,120.0,120.0,3.0,0.0
54,67.0,12.0,210.0,6.0,0.0
55,75.0,84.0,120.0,6.0,0.0
56,75.0,0.0,120.0,3.0,0.0
57,67.0,0.0,210.0,2.0,0.0
58,73.0,0.0,120.0,3.0,0.0
59,73.0,120.0,120.0,6.0,0.0
60,80.0,0.0,210.0,0.0,0.0
61,68.0,0.0,210.0,2.0,0.0
62,80.0,0.0,210.0,1.0,0.0
63,56.0,24.0,420.0,4.0,0.0
64,71.0,12.0,210.0,6.0,0.0
65,71.0,0.0,210.0,3.0,0.0
66,56.0,0.0,420.0,10.0,0.0
67,68.0,108.0,120.0,10.0,0.0
68,63.0,120.0,120.0,10.0,0.0
69,70.0,0.0,120.0,3.0,0.0
70,88.0,0.0,210.0,0.0,0.0
71,70.0,0.0,120.0,6.0,0.0
72,61.0,84.0,120.0,10.0,0.0
73,88.0,12.0,210.0,1.0,0.0
74,68.0,0.0,120.0,3.0,0.0
75,68.0,0.0,120.0,6.0,0.0
76,59.0,228.0,120.0,10.0,0.0
77,58.0,24.0,420.0,10.0,0.0
78,70.0,0.0,420.0,3.0,0.0
79,87.0,216.0,210.0,0.0,0.0
80,70.0,0.0,420.0,6.0,0.0
81,55.0,0.0,420.0,4.0,0.0
82,55.0,0.0,420.0,10.0,0.0
83,63.0,0.0,420.0,8.0,0.0
84,87.0,0.0,210.0,1.0,0.0
85,85.0,240.0,210.0,1.0,0.0
86,85.0,0.0,210.0,0.0,0.0
87,83.0,24.0,420.0,0.0,0.0
88,59.0,0.0,210.0,8.0,0.0
89,56.0,0.0,210.0,10.0,0.0
90,63.0,0.0,210.0,10.0,0.0
91,56.0,0.0,210.0,4.0,0.0
92,83.0,0.0,420.0,1.0,0.0
93,68.0,0.0,210.0,3.0,0.0
94,68.0,216.0,210.0,6.0,0.0
95,64.0,0.0,210.0,10.0,0.0
96,73.0,0.0,420.0,2.0,0.0
97,68.0,0.0,210.0,4.0,0.0
98,76.0,24.0,420.0,3.0,0.0
99,64.0,216.0,210.0,5.0,0.0
100,52.0,0.0,210.0,5.0,0.0
101,54.0,0.0,210.0,10.0,0.0
102,42.0,0.0,210.0,5.0,0.0
103,82.0,24.0,420.0,1.0,0.0
104,82.0,0.0,420.0,0.0,0.0
105,70.0,0.0,210.0,4.0,0.0
106,54.0,216.0,210.0,5.0,0.0
107,71.0,0.0,450.0,2.0,0.0
108,51.0,0.0,210.0,5.0,0.0
109,75.0,0.0,450.0,3.0,0.0
110,66.0,240.0,210.0,4.0,0.0
111,63.0,0.0,210.0,5.0,0.0
112,63.0,0.0,210.0,10.0,0.0
113,80.0,0.0,420.0,0.0,0.0
114,52.0,0.0,210.0,5.0,0.0
115,80.0,24.0,420.0,1.0,0.0
116,52.0,0.0,210.0,10.0,0.0
117,68.0,0.0,210.0,4.0,0.0
118,40.0,132.0,210.0,5.0,0.0
119,70.0,84.0,120.0,2.0,0.0
120,49.0,0.0,210.0,5.0,0.0
121,64.0,0.0,210.0,4.0,0.0
122,61.0,12.0,210.0,5.0,0.0
123,61.0,0.0,210.0,10.0,0.0
124,73.0,24.0,420.0,3.0,0.0
125,68.0,204.0,120.0,2.0,0.0
126,79.0,0.0,420.0,0.0,0.0
127,70.0,0.0,420.0,2.0,0.0
128,39.0,132.0,210.0,5.0,0.0
129,51.0,0.0,210.0,5.0,0.0
130,63.0,0.0,690.0,4.0,0.0
131,51.0,0.0,210.0,10.0,0.0
132,79.0,24.0,420.0,1.0,0.0
133,49.0,12.0,210.0,5.0,0.0
134,71.0,84.0,120.0,3.0,0.0
135,61.0,0.0,210.0,5.0,0.0
136,61.0,0.0,210.0,10.0,0.0
137,70.0,228.0,120.0,3.0,0.0
138,71.0,0.0,210.0,3.0,0.0
139,80.0,0.0,420.0,0.0,0.0
140,68.0,0.0,210.0,2.0,0.0
141,80.0,24.0,420.0,1.0,0.0
142,59.0,216.0,210.0,10.0,0.0
143,47.0,0.0,210.0,5.0,0.0
144,59.0,0.0,210.0,5.0,0.0
145,44.0,0.0,210.0,5.0,0.0
146,56.0,216.0,210.0,5.0,0.0
147,59.0,0.0,210.0,4.0,0.0
148,56.0,0.0,210.0,10.0,0.0
149,76.0,24.0,420.0,2.0,0.0
150,61.0,0.0,210.0,4.0,0.0
151,46.0,0.0,210.0,5.0,0.0
152,78.0,0.0,420.0,0.0,0.0
153,58.0,0.0,210.0,10.0,0.0
154,78.0,24.0,420.0,1.0,0.0
155,58.0,216.0,210.0,5.0,0.0
156,75.0,240.0,210.0,2.0,0.0
157,68.0,0.0,450.0,3.0,0.0
158,63.0,0.0,210.0,4.0,0.0
159,48.0,0.0,210.0,5.0,0.0
160,60.0,0.0,210.0,5.0,0.0
161,60.0,0.0,210.0,10.0,0.0
162,73.0,0.0,210.0,2.0,0.0
163,76.0,0.0,420.0,1.0,0.0
164,49.0,216.0,210.0,5.0,0.0
165,61.0,0.0,210.0,10.0,0.0
166,76.0,24.0,420.0,0.0,0.0
167,61.0,0.0,210.0,5.0,0.0
168,64.0,0.0,210.0,4.0,0.0
169,62.0,0.0,210.0,10.0,0.0
170,50.0,240.0,210.0,5.0,0.0
171,62.0,0.0,210.0,5.0,0.0
172,71.0,0.0,210.0,3.0,0.0
173,68.0,0.0,210.0,4.0,0.0
174,61.0,0.0,210.0,5.0,0.0
175,77.0,24.0,420.0,1.0,0.0
176,69.0,0.0,210.0,3.0,0.0
177,77.0,0.0,420.0,0.0,0.0
178,73.0,108.0,600.0,4.0,0.0
179,49.0,0.0,210.0,5.0,0.0
180,61.0,216.0,210.0,10.0,0.0
181,68.0,0.0,210.0,3.0,0.0
182,59.0,132.0,210.0,5.0,0.0
183,59.0,0.0,210.0,10.0,0.0
184,47.0,0.0,210.0,5.0,0.0
185,66.0,0.0,210.0,3.0,0.0
186,45.0,0.0,210.0,5.0,0.0
187,57.0,0.0,210.0,5.0,0.0
188,73.0,12.0,210.0,2.0,0.0
189,78.0,0.0,210.0,0.0,0.0
190,57.0,0.0,210.0,10.0,0.0
191,78.0,0.0,210.0,1.0,0.0
192,72.0,120.0,120.0,4.0,0.0
193,81.0,12.0,210.0,2.0,0.0
194,56.0,108.0,120.0,5.0,0.0
195,64.0,0.0,210.0,3.0,0.0
196,73.0,24.0,420.0,4.0,0.0
197,56.0,0.0,120.0,10.0,0.0
198,44.0,0.0,120.0,5.0,0.0
199,54.0,0.0,120.0,10.0,0.0
200,42.0,120.0,120.0,5.0,0.0
201,54.0,0.0,120.0,5.0,0.0
202,80.0,12.0,210.0,2.0,0.0
203,56.0,0.0,420.0,5.0,0.0
204,63.0,84.0,120.0,3.0,0.0
205,44.0,24.0,420.0,5.0,0.0
206,56.0,0.0,420.0,10.0,0.0
207,61.0,204.0,120.0,3.0,0.0
208,63.0,132.0,210.0,3.0,0.0
209,78.0,0.0,210.0,2.0,0.0
210,72.0,0.0,210.0,4.0,0.0
211,61.0,24.0,420.0,3.0,0.0
212,73.0,108.0,120.0,4.0,0.0
213,37.0,0.0,210.0,5.0,0.0
214,76.0,0.0,420.0,2.0,0.0
215,49.0,0.0,210.0,5.0,0.0
216,49.0,12.0,210.0,10.0,0.0
217,71.0,204.0,120.0,4.0,0.0
218,54.0,24.0,420.0,5.0,0.0
219,42.0,0.0,420.0,5.0,0.0
220,69.0,0.0,420.0,4.0,0.0
221,54.0,0.0,420.0,10.0,0.0
222,81.0,216.0,210.0,1.0,0.0
223,81.0,0.0,210.0,0.0,0.0
224,71.0,216.0,210.0,0.0,0.0
225,75.0,24.0,420.0,2.0,0.0
226,63.0,0.0,210.0,3.0,0.0
227,71.0,0.0,210.0,1.0,0.0
228,80.0,0.0,210.0,0.0,0.0
229,80.0,240.0,210.0,1.0,0.0
230,68.0,0.0,450.0,4.0,0.0
231,52.0,0.0,450.0,5.0,0.0
232,40.0,0.0,450.0,5.0,0.0
233,64.0,132.0,450.0,3.0,0.0
234,52.0,0.0,450.0,10.0,0.0
235,69.0,0.0,210.0,0.0,0.0
236,69.0,0.0,210.0,1.0,0.0
237,73.0,24.0,420.0,2.0,0.0
238,39.0,84.0,120.0,5.0,0.0
239,51.0,0.0,120.0,5.0,0.0
240,51.0,0.0,120.0,10.0,0.0
241,78.0,0.0,210.0,0.0,0.0
242,78.0,12.0,210.0,1.0,0.0
243,66.0,24.0,420.0,4.0,0.0
244,66.0,0.0,120.0,3.0,0.0
245,37.0,0.0,120.0,5.0,0.0
246,64.0,0.0,120.0,3.0,0.0
247,49.0,0.0,120.0,5.0,0.0
248,49.0,204.0,120.0,10.0,0.0
249,51.0,132.0,210.0,10.0,0.0
250,63.0,0.0,420.0,3.0,0.0
251,68.0,0.0,210.0,0.0,0.0
252,68.0,0.0,210.0,1.0,0.0
253,72.0,24.0,420.0,2.0,0.0
254,51.0,0.0,210.0,5.0,0.0
255,39.0,0.0,210.0,5.0,0.0
256,44.0,12.0,210.0,5.0,0.0
257,78.0,0.0,210.0,0.0,0.0
258,32.0,0.0,210.0,5.0,0.0
259,64.0,84.0,120.0,4.0,0.0
260,78.0,0.0,210.0,1.0,0.0
261,44.0,0.0,210.0,10.0,0.0
262,63.0,120.0,120.0,4.0,0.0
263,64.0,108.0,120.0,4.0,0.0
264,61.0,0.0,120.0,3.0,0.0
265,76.0,12.0,210.0,1.0,0.0
266,49.0,0.0,120.0,10.0,0.0
267,37.0,0.0,420.0,5.0,0.0
268,76.0,0.0,210.0,0.0,0.0
269,49.0,0.0,420.0,5.0,0.0
270,73.0,24.0,420.0,2.0,0.0
271,63.0,120.0,120.0,3.0,0.0
272,66.0,0.0,120.0,4.0,0.0
273,51.0,0.0,120.0,10.0,0.0
274,52.0,84.0,120.0,10.0,0.0
275,73.0,0.0,210.0,1.0,0.0
276,73.0,12.0,210.0,0.0,0.0
277,68.0,24.0,420.0,4.0,0.0
278,64.0,0.0,120.0,3.0,0.0
279,49.0,204.0,120.0,10.0,0.0
280,61.0,0.0,120.0,3.0,0.0
281,71.0,0.0,420.0,2.0,0.0
282,68.0,24.0,420.0,3.0,0.0
283,75.0,0.0,210.0,1.0,0.0
284,75.0,0.0,210.0,0.0,0.0
285,56.0,216.0,210.0,10.0,0.0
286,77.0,240.0,210.0,1.0,0.0
287,49.0,0.0,210.0,10.0,0.0
288,77.0,0.0,210.0,0.0,0.0
289,61.0,0.0,210.0,4.0,0.0
290,66.0,0.0,210.0,4.0,0.0
291,78.0,0.0,1170.0,1.0,0.0
292,54.0,0.0,420.0,10.0,0.0
293,69.0,24.0,420.0,2.0,0.0
294,66.0,216.0,210.0,3.0,0.0
295,78.0,0.0,1170.0,0.0,0.0
296,68.0,240.0,210.0,4.0,0.0
297,76.0,0.0,210.0,3.0,0.0
298,42.0,24.0,420.0,5.0,0.0
299,30.0,0.0,420.0,5.0,0.0
300,70.0,0.0,420.0,2.0,0.0
301,75.0,0.0,210.0,3.0,0.0
302,66.0,216.0,210.0,4.0,0.0
303,42.0,0.0,420.0,10.0,0.0
304,73.0,240.0,210.0,3.0,0.0
305,64.0,0.0,210.0,4.0,0.0
306,47.0,0.0,210.0,10.0,0.0
307,47.0,0.0,420.0,5.0,0.0
308,71.0,216.0,210.0,2.0,0.0
309,63.0,0.0,210.0,4.0,0.0
310,71.0,0.0,210.0,3.0,0.0
311,35.0,24.0,420.0,5.0,0.0
312,85.0,0.0,210.0,1.0,0.0
313,59.0,0.0,210.0,4.0,0.0
314,59.0,240.0,210.0,10.0,0.0
315,85.0,0.0,210.0,0.0,0.0
316,81.0,0.0,210.0,2.0,0.0
317,63.0,0.0,210.0,3.0,0.0
318,80.0,0.0,210.0,2.0,0.0
319,64.0,0.0,210.0,3.0,0.0
320,61.0,240.0,210.0,4.0,0.0
321,61.0,0.0,210.0,10.0,0.0
322,83.0,0.0,210.0,1.0,0.0
323,83.0,0.0,210.0,0.0,0.0
324,81.0,0.0,210.0,0.0,0.0
325,63.0,0.0,210.0,4.0,0.0
326,78.0,0.0,210.0,2.0,0.0
327,63.0,132.0,210.0,10.0,0.0
328,66.0,0.0,210.0,3.0,0.0
329,81.0,0.0,210.0,1.0,0.0
330,64.0,0.0,210.0,10.0,0.0
331,76.0,108.0,120.0,2.0,0.0
332,80.0,12.0,210.0,1.0,0.0
333,80.0,0.0,210.0,0.0,0.0
334,68.0,0.0,210.0,3.0,0.0
335,64.0,0.0,210.0,4.0,0.0
336,78.0,120.0,120.0,2.0,0.0
337,61.0,0.0,210.0,4.0,0.0
338,88.0,0.0,210.0,1.0,0.0
339,80.0,24.0,420.0,2.0,0.0
340,61.0,12.0,210.0,10.0,0.0
341,88.0,0.0,210.0,0.0,0.0
342,70.0,108.0,120.0,3.0,0.0
343,71.0,120.0,120.0,3.0,0.0
344,63.0,0.0,690.0,4.0,0.0
345,51.0,0.0,420.0,5.0,0.0
346,70.0,84.0,120.0,3.0,0.0
347,63.0,12.0,210.0,10.0,0.0
348,87.0,0.0,210.0,1.0,0.0
349,39.0,24.0,420.0,5.0,0.0
350,87.0,0.0,210.0,0.0,0.0
351,68.0,204.0,120.0,3.0,0.0
352,79.0,0.0,210.0,2.0,0.0
353,85.0,0.0,210.0,0.0,0.0
354,51.0,0.0,210.0,10.0,0.0
355,85.0,0.0,210.0,1.0,0.0
356,70.0,240.0,210.0,3.0,0.0
357,68.0,48.0,870.0,3.0,0.0
358,56.0,0.0,210.0,10.0,0.0
359,32.0,0.0,420.0,5.0,0.0
360,44.0,0.0,420.0,5.0,0.0
361,83.0,0.0,420.0,0.0,0.0
362,83.0,24.0,420.0,1.0,0.0
363,80.0,216.0,210.0,2.0,0.0
364,81.0,240.0,210.0,2.0,0.0
365,66.0,0.0,210.0,4.0,0.0
366,54.0,0.0,210.0,10.0,0.0
367,84.0,0.0,420.0,1.0,0.0
368,64.0,0.0,210.0,4.0,0.0
369,52.0,0.0,210.0,10.0,0.0
370,84.0,24.0,420.0,0.0,0.0
371,80.0,168.0,210.0,2.0,0.0
372,63.0,0.0,210.0,4.0,0.0
373,78.0,132.0,210.0,2.0,0.0
374,51.0,0.0,210.0,10.0,0.0
375,85.0,0.0,210.0,1.0,0.0
376,69.0,0.0,420.0,3.0,0.0
377,49.0,12.0,210.0,5.0,0.0
378,37.0,0.0,210.0,5.0,0.0
379,77.0,108.0,120.0,2.0,0.0
380,61.0,24.0,420.0,4.0,0.0
381,85.0,0.0,210.0,0.0,0.0
382,49.0,0.0,210.0,10.0,0.0
383,73.0,204.0,120.0,2.0,0.0
384,78.0,24.0,420.0,2.0,0.0
385,57.0,216.0,210.0,10.0,0.0
386,57.0,0.0,210.0,5.0,0.0
387,45.0,0.0,210.0,5.0,0.0
388,56.0,0.0,210.0,5.0,0.0
389,56.0,0.0,210.0,10.0,0.0
390,68.0,0.0,690.0,4.0,0.0
391,63.0,24.0,420.0,3.0,0.0
392,44.0,216.0,210.0,5.0,0.0
393,42.0,0.0,210.0,5.0,0.0
394,72.0,0.0,210.0,2.0,0.0
395,54.0,0.0,210.0,5.0,0.0
396,54.0,240.0,210.0,10.0,0.0
397,61.0,132.0,210.0,3.0,0.0
398,52.0,0.0,420.0,10.0,0.0
399,40.0,0.0,420.0,5.0,0.0
400,73.0,0.0,210.0,2.0,0.0
401,52.0,24.0,420.0,5.0,0.0
402,85.0,0.0,210.0,2.0,0.0
403,81.0,12.0,210.0,1.0,0.0
404,78.0,24.0,420.0,3.0,0.0
405,81.0,0.0,210.0,0.0,0.0
406,66.0,84.0,120.0,4.0,0.0
407,64.0,204.0,120.0,4.0,0.0
408,51.0,0.0,420.0,10.0,0.0
409,66.0,216.0,210.0,4.0,0.0
410,51.0,24.0,420.0,5.0,0.0
411,90.0,0.0,210.0,0.0,0.0
412,39.0,0.0,420.0,5.0,0.0
413,83.0,0.0,420.0,2.0,0.0
414,90.0,0.0,210.0,1.0,0.0
415,80.0,240.0,210.0,0.0,0.0
416,80.0,0.0,210.0,1.0,0.0
417,71.0,0.0,210.0,4.0,0.0
418,76.0,0.0,450.0,3.0,0.0
419,88.0,132.0,210.0,1.0,0.0
420,37.0,24.0,420.0,5.0,0.0
421,73.0,0.0,210.0,4.0,0.0
422,49.0,0.0,420.0,5.0,0.0
423,81.0,48.0,660.0,2.0,0.0
424,88.0,0.0,210.0,0.0,0.0
425,49.0,0.0,420.0,10.0,0.0
426,69.0,0.0,210.0,4.0,0.0
427,78.0,12.0,210.0,1.0,0.0
428,75.0,84.0,120.0,3.0,0.0
429,78.0,0.0,210.0,0.0,0.0
430,73.0,180.0,120.0,3.0,0.0
431,75.0,0.0,210.0,3.0,0.0
432,48.0,0.0,420.0,10.0,0.0
433,36.0,0.0,420.0,5.0,0.0
434,48.0,24.0,420.0,5.0,0.0
435,66.0,132.0,210.0,4.0,0.0
436,87.0,0.0,600.0,0.0,0.0
437,87.0,108.0,600.0,1.0,0.0
438,80.0,0.0,450.0,3.0,0.0
439,80.0,84.0,120.0,2.0,0.0
440,63.0,12.0,210.0,4.0,0.0
441,78.0,120.0,120.0,2.0,0.0
442,49.0,0.0,210.0,5.0,0.0
443,37.0,0.0,210.0,5.0,0.0
444,49.0,0.0,210.0,10.0,0.0
445,68.0,24.0,420.0,4.0,0.0
446,76.0,12.0,210.0,2.0,0.0
447,80.0,204.0,120.0,0.0,0.0
448,80.0,0.0,120.0,1.0,0.0
449,85.0,0.0,420.0,0.0,0.0
450,61.0,0.0,210.0,5.0,0.0
451,49.0,0.0,210.0,5.0,0.0
452,85.0,0.0,420.0,1.0,0.0
453,77.0,0.0,210.0,3.0,0.0
454,61.0,216.0,210.0,10.0,0.0
455,81.0,24.0,420.0,2.0,0.0
456,51.0,0.0,210.0,5.0,0.0
457,78.0,0.0,210.0,3.0,0.0
458,66.0,0.0,210.0,4.0,0.0
459,63.0,0.0,210.0,10.0,0.0
460,63.0,240.0,210.0,5.0,0.0
461,80.0,216.0,450.0,2.0,0.0
462,83.0,0.0,210.0,0.0,0.0
463,65.0,240.0,210.0,5.0,0.0
464,80.0,0.0,210.0,3.0,0.0
465,65.0,0.0,210.0,10.0,0.0
466,53.0,0.0,210.0,5.0,0.0
467,83.0,0.0,210.0,1.0,0.0
468,61.0,0.0,210.0,4.0,0.0
469,73.0,24.0,420.0,3.0,0.0
470,66.0,0.0,210.0,10.0,0.0
471,54.0,0.0,210.0,5.0,0.0
472,66.0,108.0,600.0,4.0,0.0
473,81.0,0.0,1170.0,0.0,0.0
474,81.0,0.0,1170.0,1.0,0.0
475,66.0,0.0,210.0,5.0,0.0
476,73.0,0.0,210.0,2.0,0.0
477,64.0,132.0,210.0,10.0,0.0
478,52.0,0.0,210.0,5.0,0.0
479,64.0,0.0,210.0,5.0,0.0
480,78.0,12.0,210.0,2.0,0.0
481,72.0,0.0,210.0,3.0,0.0
482,63.0,0.0,210.0,10.0,0.0
483,63.0,0.0,210.0,5.0,0.0
484,51.0,0.0,210.0,5.0,0.0
485,68.0,228.0,120.0,4.0,0.0
486,61.0,0.0,210.0,10.0,0.0
487,61.0,0.0,210.0,5.0,0.0
488,69.0,240.0,210.0,4.0,0.0
489,76.0,0.0,210.0,2.0,0.0
490,49.0,0.0,210.0,5.0,0.0
491,73.0,0.0,210.0,3.0,0.0
492,63.0,108.0,210.0,4.0,0.0
493,75.0,0.0,1170.0,2.0,0.0
494,48.0,24.0,420.0,5.0,0.0
495,60.0,0.0,420.0,10.0,0.0
496,60.0,0.0,420.0,5.0,0.0
497,75.0,24.0,330.0,3.0,0.0
498,75.0,12.0,210.0,1.0,0.0
499,75.0,0.0,210.0,0.0,0.0
500,68.0,84.0,120.0,4.0,0.0
501,69.0,120.0,120.0,4.0,0.0
502,73.0,0.0,120.0,3.0,0.0
503,72.0,0.0,120.0,3.0,0.0
504,80.0,0.0,210.0,0.0,0.0
505,68.0,108.0,120.0,4.0,0.0
506,80.0,12.0,210.0,1.0,0.0
507,70.0,120.0,120.0,3.0,0.0
508,66.0,0.0,120.0,4.0,0.0
509,44.0,0.0,210.0,5.0,0.0
510,78.0,0.0,210.0,0.0,0.0
511,64.0,108.0,120.0,4.0,0.0
512,78.0,0.0,210.0,1.0,0.0
513,72.0,12.0,210.0,3.0,0.0
514,56.0,0.0,210.0,10.0,0.0
515,56.0,0.0,210.0,5.0,0.0
516,63.0,120.0,120.0,4.0,0.0
517,76.0,24.0,420.0,0.0,0.0
518,61.0,0.0,210.0,10.0,0.0
519,64.0,108.0,120.0,4.0,0.0
520,49.0,12.0,210.0,5.0,0.0
521,61.0,0.0,210.0,5.0,0.0
522,68.0,0.0,420.0,3.0,0.0
523,76.0,0.0,420.0,1.0,0.0
524,66.0,120.0,120.0,4.0,0.0
525,73.0,24.0,420.0,2.0,0.0
526,68.0,12.0,210.0,4.0,0.0
527,40.0,0.0,120.0,5.0,0.0
528,52.0,0.0,120.0,10.0,0.0
529,52.0,84.0,120.0,5.0,0.0
530,54.0,0.0,120.0,10.0,0.0
531,42.0,204.0,120.0,5.0,0.0
532,54.0,0.0,120.0,5.0,0.0
533,68.0,0.0,420.0,3.0,0.0
534,56.0,0.0,210.0,5.0,0.0
535,75.0,24.0,420.0,1.0,0.0
536,56.0,0.0,210.0,10.0,0.0
537,56.0,0.0,210.0,4.0,0.0
538,75.0,0.0,420.0,0.0,0.0
539,44.0,216.0,210.0,5.0,0.0
540,44.0,0.0,210.0,5.0,0.0
541,72.0,0.0,210.0,2.0,0.0
542,66.0,96.0,210.0,4.0,0.0
543,44.0,0.0,210.0,10.0,0.0
544,32.0,0.0,210.0,5.0,0.0
545,73.0,0.0,210.0,0.0,0.0
546,61.0,80.0,60.0,10.0,0.0
547,49.0,0.0,210.0,10.0,0.0
548,73.0,0.0,210.0,2.0,0.0
549,37.0,0.0,210.0,5.0,0.0
550,49.0,0.0,210.0,5.0,0.0
551,73.0,0.0,210.0,1.0,0.0
552,68.0,16.0,210.0,3.0,0.0
553,64.0,0.0,210.0,4.0,0.0
554,64.0,64.0,60.0,10.0,0.0
555,68.0,80.0,60.0,10.0,0.0
556,60.0,80.0,60.0,10.0,0.0
557,66.0,80.0,60.0,10.0,0.0
558,69.0,80.0,60.0,10.0,0.0
559,61.0,80.0,60.0,10.0,0.0
560,64.0,80.0,60.0,10.0,0.0
561,68.0,80.0,60.0,10.0,0.0
562,56.0,80.0,60.0,10.0,0.0
563,63.0,80.0,60.0,10.0,0.0
564,66.0,80.0,60.0,10.0,0.0
565,61.0,80.0,60.0,10.0,0.0
566,63.0,80.0,60.0,10.0,0.0
567,64.0,80.0,60.0,10.0,0.0
568,66.0,80.0,60.0,10.0,0.0
569,73.0,16.0,210.0,6.0,0.0
570,78.0,0.0,420.0,6.0,0.0
571,81.0,40.0,420.0,6.0,0.0
572,76.0,0.0,210.0,6.0,0.0
573,68.0,64.0,60.0,10.0,0.0
574,69.0,80.0,60.0,10.0,0.0
575,71.0,40.0,420.0,6.0,0.0
576,59.0,80.0,60.0,10.0,0.0
577,75.0,0.0,420.0,6.0,0.0
578,61.0,40.0,60.0,10.0,0.0
579,63.0,80.0,60.0,10.0,0.0
580,80.0,16.0,450.0,6.0,0.0
581,76.0,0.0,450.0,6.0,0.0
582,64.0,80.0,60.0,10.0,0.0
583,66.0,40.0,60.0,10.0,0.0
584,68.0,80.0,60.0,10.0,0.0
585,73.0,40.0,420.0,6.0,0.0
586,69.0,0.0,420.0,6.0,0.0
587,57.0,80.0,60.0,10.0,0.0
588,59.0,64.0,60.0,10.0,0.0
589,61.0,80.0,60.0,10.0,0.0
590,75.0,16.0,450.0,6.0,0.0
591,78.0,0.0,450.0,6.0,0.0
592,63.0,80.0,60.0,10.0,0.0
593,64.0,40.0,60.0,10.0,0.0
594,66.0,80.0,60.0,10.0,0.0
595,68.0,0.0,420.0,6.0,0.0
596,56.0,80.0,60.0,10.0,0.0
597,60.0,64.0,60.0,10.0,0.0
598,63.0,80.0,60.0,10.0,0.0
599,66.0,80.0,60.0,10.0,0.0
600,75.0,16.0,210.0,6.0,0.0
601,72.0,0.0,180.0,6.0,0.0
602,63.0,40.0,60.0,10.0,0.0
603,60.0,80.0,60.0,10.0,0.0
604,68.0,0.0,420.0,6.0,0.0
605,73.0,0.0,420.0,7.0,0.0
606,76.0,40.0,420.0,6.0,0.0
607,56.0,80.0,60.0,10.0,0.0
608,61.0,80.0,60.0,10.0,0.0
609,63.0,80.0,60.0,10.0,0.0
610,64.0,80.0,60.0,10.0,0.0
611,63.0,40.0,60.0,10.0,0.0
612,61.0,80.0,60.0,10.0,0.0
613,75.0,24.0,420.0,6.0,0.0
614,73.0,0.0,210.0,7.0,0.0
615,70.0,16.0,210.0,6.0,0.0
616,67.0,80.0,60.0,10.0,0.0
617,64.0,64.0,60.0,10.0,0.0
618,63.0,80.0,60.0,10.0,0.0
619,70.0,16.0,210.0,7.0,0.0
620,61.0,80.0,60.0,10.0,0.0
621,67.0,0.0,210.0,6.0,0.0
622,59.0,40.0,60.0,10.0,0.0
623,58.0,80.0,60.0,10.0,0.0
624,68.0,36.0,60.0,6.0,0.0
625,59.0,44.0,120.0,10.0,0.0
626,71.0,80.0,60.0,6.0,0.0
627,75.0,80.0,60.0,6.0,0.0
628,67.0,36.0,60.0,6.0,0.0
629,58.0,44.0,120.0,10.0,0.0
630,73.0,80.0,60.0,6.0,0.0
631,76.0,80.0,60.0,6.0,0.0
632,68.0,36.0,60.0,6.0,0.0
633,59.0,44.0,120.0,10.0,0.0
634,71.0,80.0,60.0,6.0,0.0
635,75.0,80.0,60.0,6.0,0.0
636,63.0,36.0,60.0,6.0,0.0
637,55.0,44.0,120.0,10.0,0.0
638,70.0,80.0,60.0,6.0,0.0
639,73.0,80.0,60.0,6.0,0.0
640,59.0,80.0,60.0,10.0,0.0
641,68.0,0.0,60.0,6.0,0.0
642,70.0,0.0,60.0,6.0,0.0
643,58.0,80.0,60.0,10.0,0.0
644,56.0,0.0,60.0,10.0,0.0
645,71.0,80.0,60.0,6.0,0.0
646,64.0,40.0,420.0,10.0,0.0
647,73.0,80.0,60.0,6.0,0.0
648,75.0,80.0,60.0,6.0,0.0
649,76.0,80.0,60.0,6.0,0.0
650,66.0,80.0,60.0,6.0,0.0
651,68.0,40.0,60.0,6.0,0.0
652,70.0,80.0,60.0,6.0,0.0
653,63.0,16.0,450.0,10.0,0.0
654,71.0,80.0,60.0,6.0,0.0
655,73.0,80.0,60.0,6.0,0.0
656,75.0,80.0,60.0,6.0,0.0
657,64.0,80.0,60.0,6.0,0.0
658,66.0,64.0,60.0,6.0,0.0
659,68.0,80.0,60.0,6.0,0.0
660,70.0,80.0,60.0,6.0,0.0
661,61.0,80.0,300.0,10.0,0.0
662,71.0,80.0,60.0,6.0,0.0
663,73.0,80.0,60.0,6.0,0.0
664,63.0,0.0,60.0,6.0,0.0
665,67.0,80.0,60.0,6.0,0.0
666,58.0,0.0,60.0,10.0,0.0
667,55.0,0.0,60.0,10.0,0.0
668,70.0,80.0,60.0,6.0,0.0
669,51.0,0.0,60.0,10.0,0.0
670,73.0,80.0,60.0,6.0,0.0
671,55.0,0.0,60.0,10.0,0.0
672,70.0,80.0,60.0,6.0,0.0
673,67.0,0.0,60.0,6.0,0.0
674,58.0,80.0,60.0,10.0,0.0
675,63.0,36.0,60.0,6.0,0.0
676,59.0,44.0,120.0,10.0,0.0
677,68.0,80.0,60.0,6.0,0.0
678,70.0,80.0,60.0,6.0,0.0
679,56.0,44.0,120.0,10.0,0.0
680,71.0,36.0,60.0,6.0,0.0
681,70.0,80.0,60.0,6.0,0.0
682,68.0,80.0,60.0,6.0,0.0
683,72.0,80.0,60.0,6.0,0.0
684,51.0,0.0,60.0,10.0,0.0
685,52.0,0.0,60.0,10.0,0.0
686,69.0,80.0,60.0,6.0,0.0
687,68.0,80.0,60.0,6.0,0.0
688,54.0,0.0,60.0,10.0,0.0
689,66.0,0.0,60.0,6.0,0.0
690,56.0,80.0,60.0,10.0,0.0
691,58.0,80.0,60.0,10.0,0.0
692,64.0,0.0,60.0,6.0,0.0
693,63.0,80.0,60.0,6.0,0.0
694,60.0,0.0,60.0,10.0,0.0
695,64.0,44.0,120.0,10.0,0.0
696,61.0,0.0,120.0,10.0,0.0
697,73.0,36.0,60.0,6.0,0.0
698,76.0,80.0,60.0,6.0,0.0
699,80.0,80.0,60.0,6.0,0.0
700,72.0,36.0,60.0,6.0,0.0
701,56.0,0.0,120.0,10.0,0.0
702,63.0,44.0,120.0,10.0,0.0
703,78.0,80.0,60.0,6.0,0.0
704,81.0,80.0,60.0,6.0,0.0
705,52.0,0.0,120.0,10.0,0.0
706,64.0,44.0,120.0,10.0,0.0
707,73.0,36.0,60.0,6.0,0.0
708,76.0,80.0,60.0,6.0,0.0
709,80.0,80.0,60.0,6.0,0.0
710,60.0,44.0,120.0,10.0,0.0
711,68.0,36.0,60.0,6.0,0.0
712,56.0,0.0,120.0,10.0,0.0
713,75.0,80.0,60.0,6.0,0.0
714,78.0,80.0,60.0,6.0,0.0
715,64.0,36.0,60.0,10.0,0.0
716,61.0,44.0,120.0,10.0,0.0
717,73.0,0.0,60.0,6.0,0.0
718,63.0,0.0,60.0,10.0,0.0
719,75.0,80.0,60.0,6.0,0.0
720,61.0,80.0,60.0,10.0,0.0
721,76.0,0.0,60.0,6.0,0.0
722,78.0,36.0,60.0,6.0,0.0
723,63.0,44.0,120.0,10.0,0.0
724,69.0,40.0,420.0,10.0,0.0
725,80.0,80.0,60.0,6.0,0.0
726,81.0,80.0,60.0,6.0,0.0
727,71.0,80.0,60.0,6.0,0.0
728,64.0,70.0,390.0,10.0,0.0
729,73.0,40.0,60.0,6.0,0.0
730,75.0,80.0,60.0,6.0,0.0
731,68.0,16.0,450.0,10.0,0.0
732,76.0,80.0,60.0,6.0,0.0
733,78.0,10.0,60.0,6.0,0.0
734,80.0,2.0,60.0,6.0,0.0
735,63.0,78.0,60.0,10.0,0.0
736,61.0,0.0,300.0,10.0,0.0
737,69.0,80.0,60.0,6.0,0.0
738,71.0,64.0,60.0,6.0,0.0
739,73.0,80.0,60.0,6.0,0.0
740,75.0,80.0,60.0,6.0,0.0
741,66.0,0.0,300.0,10.0,0.0
742,76.0,0.0,60.0,6.0,0.0
743,60.0,80.0,60.0,10.0,0.0
744,78.0,80.0,60.0,6.0,0.0
745,58.0,0.0,60.0,10.0,0.0
746,68.0,80.0,60.0,6.0,0.0
747,60.0,16.0,210.0,10.0,0.0
748,72.0,0.0,60.0,6.0,0.0
749,69.0,64.0,60.0,10.0,0.0
750,75.0,80.0,60.0,6.0,0.0
751,66.0,0.0,60.0,10.0,0.0
752,63.0,16.0,210.0,10.0,0.0
753,78.0,80.0,60.0,6.0,0.0
754,60.0,0.0,60.0,10.0,0.0
755,75.0,64.0,60.0,6.0,0.0
756,56.0,80.0,60.0,10.0,0.0
757,72.0,0.0,60.0,6.0,0.0
758,61.0,44.0,120.0,10.0,0.0
759,64.0,0.0,120.0,10.0,0.0
760,68.0,36.0,60.0,6.0,0.0
761,73.0,80.0,60.0,6.0,0.0
762,75.0,80.0,60.0,6.0,0.0
763,58.0,44.0,120.0,10.0,0.0
764,61.0,0.0,120.0,10.0,0.0
765,76.0,36.0,60.0,6.0,0.0
766,75.0,80.0,60.0,6.0,0.0
767,73.0,80.0,60.0,6.0,0.0
768,58.0,0.0,60.0,10.0,0.0
769,51.0,44.0,120.0,10.0,0.0
770,79.0,36.0,60.0,6.0,0.0
771,59.0,80.0,60.0,10.0,0.0
772,76.0,0.0,60.0,6.0,0.0
773,75.0,80.0,60.0,6.0,0.0
774,61.0,0.0,60.0,10.0,0.0
775,63.0,0.0,60.0,10.0,0.0
776,73.0,80.0,60.0,6.0,0.0
777,71.0,80.0,60.0,6.0,0.0
778,65.0,0.0,60.0,10.0,0.0
779,67.0,0.0,60.0,10.0,0.0
780,70.0,224.0,60.0,6.0,0.0
781,80.0,0.0,420.0,1.0,0.0
782,56.0,0.0,210.0,5.0,0.0
783,80.0,0.0,420.0,2.0,0.0
784,71.0,0.0,210.0,6.0,0.0
785,44.0,216.0,210.0,5.0,0.0
786,56.0,0.0,210.0,10.0,0.0
787,71.0,0.0,210.0,4.0,0.0
788,80.0,24.0,420.0,0.0,0.0
789,68.0,0.0,210.0,10.0,0.0
790,64.0,0.0,210.0,10.0,0.0
791,68.0,0.0,210.0,4.0,0.0
792,64.0,0.0,210.0,5.0,0.0
793,73.0,24.0,420.0,3.0,0.0
794,52.0,216.0,210.0,5.0,0.0
795,79.0,0.0,420.0,2.0,0.0
796,63.0,132.0,210.0,10.0,0.0
797,82.0,0.0,420.0,0.0,0.0
798,82.0,24.0,420.0,1.0,0.0
799,63.0,0.0,210.0,5.0,0.0
800,75.0,0.0,690.0,4.0,0.0
801,51.0,0.0,210.0,5.0,0.0
802,61.0,0.0,210.0,5.0,0.0
803,71.0,84.0,120.0,3.0,0.0
804,61.0,0.0,210.0,10.0,0.0
805,49.0,12.0,210.0,5.0,0.0
806,70.0,228.0,120.0,3.0,0.0
807,75.0,0.0,210.0,0.0,0.0
808,59.0,0.0,420.0,10.0,0.0
809,75.0,216.0,210.0,1.0,0.0
810,59.0,24.0,420.0,5.0,0.0
811,80.0,0.0,210.0,2.0,0.0
812,47.0,0.0,420.0,5.0,0.0
813,68.0,0.0,420.0,3.0,0.0
814,76.0,24.0,420.0,2.0,0.0
815,73.0,0.0,420.0,4.0,0.0
816,88.0,0.0,210.0,0.0,0.0
817,88.0,216.0,210.0,1.0,0.0
818,58.0,0.0,420.0,5.0,0.0
819,46.0,24.0,420.0,5.0,0.0
820,78.0,0.0,210.0,0.0,0.0
821,78.0,0.0,210.0,1.0,0.0
822,58.0,0.0,420.0,10.0,0.0
823,70.0,216.0,210.0,3.0,0.0
824,71.0,132.0,450.0,4.0,0.0
825,87.0,0.0,210.0,1.0,0.0
826,75.0,0.0,450.0,2.0,0.0
827,87.0,0.0,210.0,0.0,0.0
828,66.0,240.0,210.0,3.0,0.0
829,71.0,0.0,210.0,3.0,0.0
830,56.0,0.0,420.0,5.0,0.0
831,76.0,0.0,210.0,1.0,0.0
832,56.0,0.0,420.0,10.0,0.0
833,76.0,0.0,210.0,0.0,0.0
834,44.0,24.0,420.0,5.0,0.0
835,73.0,24.0,420.0,2.0,0.0
836,76.0,0.0,210.0,3.0,0.0
837,85.0,12.0,210.0,0.0,0.0
838,70.0,84.0,120.0,4.0,0.0
839,85.0,0.0,210.0,1.0,0.0
840,68.0,204.0,120.0,4.0,0.0
841,75.0,132.0,210.0,0.0,0.0
842,55.0,0.0,420.0,5.0,0.0
843,55.0,0.0,420.0,10.0,0.0
844,43.0,0.0,420.0,5.0,0.0
845,75.0,0.0,210.0,1.0,0.0
846,70.0,0.0,210.0,3.0,0.0
847,70.0,24.0,420.0,4.0,0.0
848,85.0,0.0,210.0,0.0,0.0
849,71.0,84.0,120.0,2.0,0.0
850,85.0,12.0,210.0,1.0,0.0
851,82.0,0.0,210.0,3.0,0.0
852,70.0,84.0,120.0,2.0,0.0
853,71.0,16.0,210.0,6.0,0.0
854,83.0,0.0,210.0,1.0,0.0
855,68.0,0.0,210.0,6.0,0.0
856,80.0,0.0,210.0,3.0,0.0
857,63.0,0.0,210.0,4.0,0.0
858,56.0,80.0,60.0,10.0,0.0
859,71.0,0.0,210.0,2.0,0.0
860,83.0,0.0,210.0,0.0,0.0
861,56.0,0.0,210.0,5.0,0.0
862,44.0,0.0,210.0,5.0,0.0
863,63.0,64.0,60.0,10.0,0.0
864,61.0,80.0,60.0,10.0,0.0
865,59.0,80.0,60.0,10.0,0.0
866,58.0,80.0,60.0,10.0,0.0
867,56.0,80.0,60.0,10.0,0.0
868,62.0,80.0,60.0,10.0,0.0
869,71.0,0.0,210.0,6.0,0.0
870,68.0,16.0,210.0,6.0,0.0
871,77.0,0.0,210.0,6.0,0.0
872,59.0,64.0,60.0,10.0,0.0
873,57.0,80.0,60.0,10.0,0.0
874,56.0,80.0,60.0,10.0,0.0
875,54.0,80.0,60.0,10.0,0.0
876,53.0,80.0,60.0,10.0,0.0
877,59.0,80.0,60.0,10.0,0.0
878,71.0,0.0,210.0,6.0,0.0
879,80.0,0.0,210.0,6.0,0.0
880,77.0,0.0,210.0,6.0,0.0
881,74.0,16.0,210.0,6.0,0.0
882,68.0,0.0,210.0,6.0,0.0
883,56.0,64.0,60.0,10.0,0.0
884,54.0,80.0,60.0,10.0,0.0
885,53.0,80.0,60.0,10.0,0.0
886,51.0,160.0,60.0,10.0,0.0
887,49.0,16.0,300.0,10.0,0.0
888,56.0,80.0,60.0,10.0,0.0
889,77.0,0.0,60.0,6.0,0.0
890,74.0,0.0,60.0,6.0,0.0
891,57.0,64.0,60.0,10.0,0.0
892,73.0,80.0,60.0,6.0,0.0
893,59.0,0.0,60.0,10.0,0.0
894,61.0,0.0,60.0,10.0,0.0
895,71.0,80.0,60.0,6.0,0.0
896,63.0,0.0,60.0,10.0,0.0
897,69.0,80.0,60.0,6.0,0.0
898,68.0,224.0,60.0,6.0,0.0
899,65.0,0.0,60.0,10.0,0.0
900,69.0,0.0,210.0,6.0,0.0
901,54.0,0.0,420.0,5.0,0.0
902,78.0,0.0,210.0,0.0,0.0
903,42.0,0.0,420.0,5.0,0.0
904,66.0,0.0,210.0,10.0,0.0
905,54.0,24.0,420.0,10.0,0.0
906,69.0,0.0,420.0,4.0,0.0
907,78.0,216.0,210.0,1.0,0.0
908,86.0,240.0,210.0,0.0,0.0
909,86.0,0.0,210.0,1.0,0.0
910,73.0,0.0,690.0,3.0,0.0
911,68.0,0.0,420.0,4.0,0.0
912,85.0,0.0,210.0,1.0,0.0
913,53.0,0.0,420.0,5.0,0.0
914,53.0,0.0,420.0,10.0,0.0
915,41.0,24.0,420.0,5.0,0.0
916,85.0,216.0,210.0,0.0,0.0
917,83.0,0.0,210.0,0.0,0.0
918,83.0,240.0,210.0,1.0,0.0
919,42.0,0.0,210.0,5.0,0.0
920,54.0,0.0,210.0,5.0,0.0
921,81.0,24.0,420.0,1.0,0.0
922,54.0,216.0,210.0,10.0,0.0
923,66.0,0.0,420.0,4.0,0.0
924,81.0,0.0,420.0,0.0,0.0
925,59.0,0.0,420.0,5.0,0.0
926,71.0,0.0,210.0,3.0,0.0
927,59.0,0.0,420.0,10.0,0.0
928,86.0,216.0,210.0,2.0,0.0
929,47.0,24.0,420.0,5.0,0.0
930,76.0,0.0,210.0,2.0,0.0
931,73.0,0.0,420.0,4.0,0.0
932,76.0,132.0,210.0,3.0,0.0
933,79.0,24.0,420.0,0.0,0.0
934,79.0,0.0,420.0,1.0,0.0
935,58.0,12.0,210.0,10.0,0.0
936,46.0,0.0,210.0,5.0,0.0
937,85.0,0.0,210.0,2.0,0.0
938,74.0,84.0,120.0,3.0,0.0
939,58.0,0.0,210.0,5.0,0.0
940,73.0,120.0,120.0,3.0,0.0
941,66.0,0.0,210.0,4.0,0.0
942,78.0,0.0,660.0,1.0,0.0
943,59.0,0.0,210.0,5.0,0.0
944,47.0,0.0,210.0,5.0,0.0
945,74.0,12.0,210.0,2.0,0.0
946,59.0,0.0,210.0,10.0,0.0
947,74.0,108.0,120.0,3.0,0.0
948,78.0,48.0,660.0,0.0,0.0
949,73.0,120.0,120.0,3.0,0.0
950,56.0,0.0,210.0,5.0,0.0
951,71.0,108.0,120.0,3.0,0.0
952,56.0,0.0,210.0,10.0,0.0
953,44.0,12.0,210.0,5.0,0.0
954,83.0,0.0,210.0,2.0,0.0
955,74.0,0.0,210.0,4.0,0.0
956,69.0,180.0,120.0,3.0,0.0
957,68.0,0.0,420.0,3.0,0.0
958,61.0,0.0,210.0,10.0,0.0
959,73.0,24.0,420.0,4.0,0.0
960,61.0,216.0,210.0,5.0,0.0
961,73.0,0.0,210.0,2.0,0.0
962,49.0,0.0,210.0,5.0,0.0
963,77.0,0.0,210.0,0.0,0.0
964,49.0,0.0,210.0,10.0,0.0
965,77.0,0.0,210.0,1.0,0.0
966,49.0,96.0,210.0,5.0,0.0
967,83.0,0.0,210.0,2.0,0.0
968,37.0,0.0,210.0,5.0,0.0
969,73.0,16.0,210.0,4.0,0.0
970,69.0,0.0,210.0,6.0,0.0
971,78.0,0.0,210.0,0.0,0.0
972,54.0,0.0,210.0,5.0,0.0
973,78.0,0.0,210.0,1.0,0.0
974,42.0,0.0,210.0,5.0,0.0
975,81.0,0.0,210.0,2.0,0.0
976,66.0,0.0,210.0,3.0,0.0
977,66.0,0.0,210.0,6.0,0.0
978,54.0,80.0,60.0,10.0,0.0
979,61.0,64.0,60.0,10.0,0.0
980,59.0,80.0,60.0,10.0,0.0
981,57.0,80.0,60.0,10.0,0.0
982,56.0,80.0,60.0,10.0,0.0
983,54.0,80.0,60.0,10.0,0.0
984,60.0,80.0,60.0,10.0,0.0
985,69.0,16.0,210.0,6.0,0.0
986,66.0,0.0,210.0,6.0,0.0
987,75.0,0.0,210.0,6.0,0.0
988,57.0,64.0,60.0,10.0,0.0
989,56.0,80.0,60.0,10.0,0.0
990,54.0,80.0,60.0,10.0,0.0
991,52.0,80.0,60.0,10.0,0.0
992,51.0,80.0,60.0,10.0,0.0
993,57.0,80.0,60.0,10.0,0.0
994,78.0,0.0,210.0,6.0,0.0
995,66.0,0.0,210.0,6.0,0.0
996,75.0,16.0,210.0,6.0,0.0
997,69.0,0.0,210.0,6.0,0.0
998,72.0,0.0,210.0,6.0,0.0
999,54.0,64.0,60.0,10.0,0.0
1000,52.0,80.0,60.0,10.0,0.0
1001,51.0,80.0,60.0,10.0,0.0
1002,49.0,160.0,60.0,10.0,0.0
1003,47.0,44.0,180.0,10.0,0.0
1004,54.0,0.0,60.0,10.0,0.0
1005,75.0,36.0,60.0,6.0,0.0
1006,72.0,80.0,60.0,6.0,0.0
1007,56.0,0.0,60.0,10.0,0.0
1008,57.0,0.0,60.0,10.0,0.0
1009,71.0,80.0,60.0,6.0,0.0
1010,69.0,80.0,60.0,6.0,0.0
1011,59.0,0.0,60.0,10.0,0.0
1012,61.0,0.0,60.0,10.0,0.0
1013,68.0,80.0,60.0,6.0,0.0
1014,63.0,80.0,60.0,10.0,0.0
1015,66.0,0.0,60.0,6.0,0.0
1016,64.0,36.0,60.0,10.0,0.0
1017,40.0,44.0,120.0,5.0,0.0
1018,52.0,0.0,120.0,5.0,0.0
1019,68.0,0.0,60.0,6.0,0.0
1020,59.0,80.0,60.0,10.0,0.0
1021,71.0,0.0,60.0,6.0,0.0
1022,76.0,0.0,60.0,6.0,0.0
1023,56.0,80.0,60.0,10.0,0.0
1024,61.0,0.0,60.0,10.0,0.0
1025,61.0,0.0,120.0,5.0,0.0
1026,49.0,44.0,120.0,5.0,0.0
1027,69.0,36.0,60.0,6.0,0.0
1028,57.0,0.0,60.0,10.0,0.0
1029,73.0,80.0,60.0,6.0,0.0
1030,52.0,80.0,60.0,10.0,0.0
1031,76.0,0.0,60.0,6.0,0.0
1032,59.0,44.0,120.0,5.0,0.0
1033,68.0,0.0,60.0,6.0,0.0
1034,59.0,36.0,60.0,10.0,0.0
1035,47.0,0.0,120.0,5.0,0.0
1036,71.0,0.0,60.0,6.0,0.0
1037,56.0,80.0,60.0,10.0,0.0
1038,76.0,0.0,60.0,6.0,0.0
1039,52.0,80.0,60.0,10.0,0.0
1040,45.0,0.0,120.0,5.0,0.0
1041,57.0,44.0,120.0,5.0,0.0
1042,66.0,0.0,60.0,6.0,0.0
1043,57.0,36.0,60.0,10.0,0.0
1044,54.0,80.0,60.0,10.0,0.0
1045,69.0,0.0,60.0,6.0,0.0
1046,75.0,0.0,60.0,6.0,0.0
1047,47.0,80.0,60.0,10.0,0.0
1048,56.0,0.0,120.0,5.0,0.0
1049,64.0,44.0,120.0,3.0,0.0
1050,52.0,0.0,60.0,10.0,0.0
1051,68.0,36.0,60.0,6.0,0.0
1052,44.0,0.0,120.0,5.0,0.0
1053,71.0,0.0,60.0,6.0,0.0
1054,56.0,80.0,60.0,10.0,0.0
1055,76.0,0.0,60.0,6.0,0.0
1056,59.0,80.0,60.0,10.0,0.0
1057,57.0,0.0,120.0,5.0,0.0
1058,45.0,44.0,120.0,5.0,0.0
1059,73.0,0.0,120.0,3.0,0.0
1060,57.0,36.0,60.0,10.0,0.0
1061,73.0,0.0,60.0,6.0,0.0
1062,69.0,0.0,60.0,6.0,0.0
1063,61.0,80.0,60.0,10.0,0.0
1064,73.0,0.0,60.0,6.0,0.0
1065,64.0,80.0,60.0,10.0,0.0
1066,47.0,0.0,120.0,5.0,0.0
1067,71.0,44.0,120.0,3.0,0.0
1068,59.0,0.0,120.0,5.0,0.0
1069,71.0,36.0,60.0,6.0,0.0
1070,56.0,0.0,60.0,10.0,0.0
1071,68.0,0.0,60.0,6.0,0.0
1072,59.0,80.0,60.0,10.0,0.0
1073,71.0,0.0,60.0,6.0,0.0
1074,64.0,80.0,60.0,10.0,0.0
1075,47.0,0.0,120.0,5.0,0.0
1076,69.0,44.0,120.0,3.0,0.0
1077,35.0,0.0,120.0,5.0,0.0
1078,69.0,36.0,60.0,6.0,0.0
1079,54.0,0.0,60.0,10.0,0.0
1080,66.0,0.0,60.0,6.0,0.0
1081,57.0,80.0,60.0,10.0,0.0
1082,63.0,0.0,60.0,10.0,0.0
1083,69.0,80.0,60.0,6.0,0.0
1084,68.0,36.0,60.0,6.0,0.0
1085,40.0,44.0,120.0,5.0,0.0
1086,52.0,16.0,210.0,10.0,0.0
1087,68.0,0.0,120.0,3.0,0.0
1088,52.0,0.0,120.0,5.0,0.0
1089,69.0,64.0,60.0,6.0,0.0
1090,71.0,80.0,60.0,6.0,0.0
1091,80.0,0.0,120.0,3.0,0.0
1092,64.0,44.0,120.0,5.0,0.0
1093,73.0,36.0,60.0,6.0,0.0
1094,64.0,40.0,420.0,10.0,0.0
1095,52.0,0.0,120.0,5.0,0.0
1096,75.0,80.0,60.0,6.0,0.0
1097,76.0,80.0,60.0,6.0,0.0
1098,70.0,0.0,120.0,3.0,0.0
1099,66.0,36.0,60.0,6.0,0.0
1100,52.0,0.0,120.0,5.0,0.0
1101,64.0,44.0,120.0,5.0,0.0
1102,68.0,40.0,60.0,6.0,0.0
1103,70.0,80.0,60.0,6.0,0.0
1104,51.0,0.0,120.0,5.0,0.0
1105,71.0,0.0,60.0,6.0,0.0
1106,63.0,36.0,60.0,10.0,0.0
1107,63.0,0.0,120.0,5.0,0.0
1108,78.0,44.0,120.0,3.0,0.0
1109,73.0,0.0,60.0,6.0,0.0
1110,64.0,80.0,60.0,10.0,0.0
1111,66.0,80.0,60.0,10.0,0.0
1112,75.0,0.0,60.0,6.0,0.0
1113,68.0,0.0,120.0,3.0,0.0
1114,68.0,0.0,60.0,6.0,0.0
1115,49.0,0.0,120.0,5.0,0.0
1116,76.0,36.0,60.0,6.0,0.0
1117,61.0,44.0,120.0,5.0,0.0
1118,78.0,0.0,60.0,6.0,0.0
1119,70.0,80.0,60.0,6.0,0.0
1120,80.0,0.0,150.0,6.0,0.0
1121,71.0,80.0,60.0,6.0,0.0
1122,42.0,0.0,120.0,5.0,0.0
1123,54.0,44.0,120.0,5.0,0.0
1124,70.0,36.0,60.0,6.0,0.0
1125,76.0,0.0,120.0,3.0,0.0
1126,78.0,80.0,60.0,6.0,0.0
1127,71.0,0.0,60.0,6.0,0.0
1128,73.0,80.0,60.0,6.0,0.0
1129,76.0,0.0,60.0,6.0,0.0
1130,59.0,44.0,120.0,5.0,0.0
1131,71.0,0.0,120.0,6.0,0.0
1132,75.0,0.0,120.0,6.0,0.0
1133,47.0,0.0,120.0,5.0,0.0
1134,59.0,0.0,120.0,4.0,0.0
1135,75.0,0.0,120.0,3.0,0.0
1136,59.0,36.0,60.0,10.0,0.0
1137,63.0,80.0,60.0,10.0,0.0
1138,66.0,80.0,60.0,10.0,0.0
1139,58.0,0.0,120.0,5.0,0.0
1140,68.0,44.0,120.0,4.0,0.0
1141,76.0,0.0,120.0,3.0,0.0
1142,76.0,0.0,120.0,6.0,0.0
1143,46.0,0.0,120.0,5.0,0.0
1144,73.0,0.0,120.0,6.0,0.0
1145,58.0,36.0,60.0,10.0,0.0
1146,64.0,80.0,60.0,10.0,0.0
1147,68.0,80.0,60.0,10.0,0.0
1148,59.0,0.0,120.0,5.0,0.0
1149,75.0,0.0,120.0,3.0,0.0
1150,75.0,0.0,120.0,6.0,0.0
1151,47.0,44.0,120.0,5.0,0.0
1152,71.0,0.0,120.0,6.0,0.0
1153,59.0,36.0,60.0,10.0,0.0
1154,66.0,0.0,120.0,4.0,0.0
1155,63.0,80.0,60.0,10.0,0.0
1156,66.0,80.0,60.0,10.0,0.0
1157,42.0,0.0,120.0,5.0,0.0
1158,54.0,36.0,60.0,10.0,0.0
1159,64.0,0.0,120.0,4.0,0.0
1160,73.0,0.0,120.0,3.0,0.0
1161,73.0,0.0,120.0,6.0,0.0
1162,54.0,44.0,120.0,5.0,0.0
1163,70.0,0.0,120.0,6.0,0.0
1164,61.0,80.0,60.0,10.0,0.0
1165,64.0,80.0,60.0,10.0,0.0
1166,71.0,0.0,120.0,3.0,0.0
1167,71.0,36.0,60.0,6.0,0.0
1168,47.0,0.0,120.0,5.0,0.0
1169,63.0,44.0,120.0,4.0,0.0
1170,66.0,0.0,120.0,10.0,0.0
1171,63.0,0.0,120.0,10.0,0.0
1172,35.0,0.0,120.0,5.0,0.0
1173,75.0,80.0,60.0,6.0,0.0
1174,78.0,80.0,60.0,6.0,0.0
1175,70.0,36.0,60.0,6.0,0.0
1176,70.0,44.0,120.0,3.0,0.0
1177,61.0,0.0,120.0,10.0,0.0
1178,64.0,0.0,120.0,10.0,0.0
1179,80.0,0.0,120.0,2.0,0.0
1180,61.0,0.0,120.0,4.0,0.0
1181,76.0,80.0,60.0,6.0,0.0
1182,80.0,80.0,60.0,6.0,0.0
1183,63.0,0.0,120.0,10.0,0.0
1184,66.0,0.0,120.0,10.0,0.0
1185,71.0,36.0,60.0,6.0,0.0
1186,71.0,44.0,120.0,3.0,0.0
1187,78.0,0.0,120.0,2.0,0.0
1188,63.0,0.0,120.0,4.0,0.0
1189,75.0,80.0,60.0,6.0,0.0
1190,78.0,80.0,60.0,6.0,0.0
1191,61.0,0.0,120.0,10.0,0.0
1192,66.0,36.0,60.0,6.0,0.0
1193,76.0,0.0,120.0,2.0,0.0
1194,58.0,0.0,120.0,10.0,0.0
1195,58.0,44.0,120.0,4.0,0.0
1196,73.0,0.0,120.0,3.0,0.0
1197,73.0,80.0,60.0,6.0,0.0
1198,76.0,80.0,60.0,6.0,0.0
1199,71.0,0.0,120.0,3.0,0.0
1200,59.0,0.0,120.0,4.0,0.0
1201,59.0,44.0,120.0,10.0,0.0
1202,63.0,0.0,120.0,10.0,0.0
1203,66.0,36.0,60.0,6.0,0.0
1204,75.0,0.0,120.0,2.0,0.0
1205,71.0,80.0,60.0,6.0,0.0
1206,75.0,80.0,60.0,6.0,0.0
1207,67.0,44.0,120.0,2.0,0.0
1208,58.0,0.0,120.0,4.0,0.0
1209,76.0,0.0,120.0,3.0,0.0
1210,58.0,0.0,120.0,10.0,0.0
1211,61.0,0.0,120.0,10.0,0.0
1212,67.0,36.0,60.0,6.0,0.0
1213,73.0,80.0,60.0,6.0,0.0
1214,76.0,80.0,60.0,6.0,0.0
1215,68.0,36.0,60.0,6.0,0.0
1216,68.0,0.0,120.0,2.0,0.0
1217,59.0,44.0,120.0,10.0,0.0
1218,63.0,0.0,120.0,10.0,0.0
1219,75.0,0.0,120.0,3.0,0.0
1220,59.0,0.0,120.0,4.0,0.0
1221,71.0,80.0,60.0,6.0,0.0
1222,75.0,80.0,60.0,6.0,0.0
1223,73.0,0.0,120.0,3.0,0.0
1224,58.0,0.0,120.0,10.0,0.0
1225,55.0,0.0,120.0,4.0,0.0
1226,55.0,0.0,120.0,10.0,0.0
1227,39.0,0.0,120.0,5.0,0.0
1228,70.0,44.0,120.0,2.0,0.0
1229,63.0,36.0,60.0,6.0,0.0
1230,51.0,0.0,120.0,5.0,0.0
1231,70.0,80.0,60.0,6.0,0.0
1232,73.0,80.0,60.0,6.0,0.0
1233,56.0,44.0,120.0,5.0,0.0
1234,56.0,0.0,120.0,4.0,0.0
1235,71.0,0.0,120.0,3.0,0.0
1236,71.0,0.0,120.0,2.0,0.0
1237,44.0,0.0,120.0,5.0,0.0
1238,56.0,36.0,60.0,10.0,0.0
1239,68.0,0.0,120.0,6.0,0.0
1240,71.0,0.0,120.0,6.0,0.0
1241,59.0,80.0,60.0,10.0,0.0
1242,63.0,80.0,60.0,10.0,0.0
1243,55.0,0.0,120.0,5.0,0.0
1244,70.0,0.0,120.0,6.0,0.0
1245,43.0,0.0,120.0,5.0,0.0
1246,73.0,0.0,120.0,2.0,0.0
1247,70.0,0.0,120.0,3.0,0.0
1248,64.0,44.0,120.0,4.0,0.0
1249,55.0,36.0,60.0,10.0,0.0
1250,73.0,0.0,120.0,6.0,0.0
1251,61.0,80.0,60.0,10.0,0.0
1252,64.0,80.0,60.0,10.0,0.0
1253,63.0,0.0,120.0,4.0,0.0
1254,56.0,44.0,120.0,5.0,0.0
1255,71.0,0.0,120.0,6.0,0.0
1256,44.0,0.0,120.0,5.0,0.0
1257,68.0,0.0,120.0,6.0,0.0
1258,56.0,36.0,60.0,10.0,0.0
1259,68.0,0.0,120.0,3.0,0.0
1260,71.0,0.0,120.0,2.0,0.0
1261,59.0,80.0,60.0,10.0,0.0
1262,63.0,80.0,60.0,10.0,0.0
1263,51.0,36.0,60.0,10.0,0.0
1264,63.0,0.0,120.0,4.0,0.0
1265,39.0,0.0,120.0,5.0,0.0
1266,67.0,0.0,120.0,3.0,0.0
1267,70.0,44.0,120.0,6.0,0.0
1268,67.0,0.0,120.0,6.0,0.0
1269,51.0,0.0,120.0,5.0,0.0
1270,70.0,0.0,120.0,2.0,0.0
1271,58.0,80.0,60.0,10.0,0.0
1272,61.0,80.0,60.0,10.0,0.0
1273,80.0,36.0,60.0,6.0,0.0
1274,47.0,0.0,120.0,5.0,0.0
1275,68.0,44.0,120.0,3.0,0.0
1276,68.0,0.0,120.0,6.0,0.0
1277,35.0,0.0,120.0,5.0,0.0
1278,59.0,0.0,120.0,10.0,0.0
1279,80.0,0.0,120.0,1.0,0.0
1280,80.0,0.0,120.0,0.0,0.0
1281,63.0,0.0,120.0,4.0,0.0
1282,68.0,0.0,120.0,2.0,0.0
1283,63.0,0.0,120.0,10.0,0.0
1284,83.0,80.0,60.0,6.0,0.0
1285,87.0,80.0,60.0,6.0,0.0
1286,85.0,0.0,120.0,2.0,0.0
1287,61.0,0.0,120.0,10.0,0.0
1288,70.0,0.0,120.0,3.0,0.0
1289,37.0,0.0,120.0,5.0,0.0
1290,88.0,0.0,120.0,1.0,0.0
1291,79.0,36.0,60.0,6.0,0.0
1292,70.0,0.0,120.0,6.0,0.0
1293,58.0,0.0,120.0,4.0,0.0
1294,88.0,0.0,120.0,0.0,0.0
1295,49.0,44.0,120.0,5.0,0.0
1296,64.0,0.0,120.0,10.0,0.0
1297,85.0,80.0,60.0,6.0,0.0
1298,88.0,80.0,60.0,6.0,0.0
1299,71.0,0.0,120.0,6.0,0.0
1300,80.0,36.0,60.0,6.0,0.0
1301,51.0,0.0,120.0,5.0,0.0
1302,83.0,0.0,120.0,2.0,0.0
1303,71.0,0.0,120.0,3.0,0.0
1304,87.0,0.0,120.0,0.0,0.0
1305,87.0,0.0,120.0,1.0,0.0
1306,39.0,0.0,120.0,5.0,0.0
1307,63.0,44.0,120.0,4.0,0.0
1308,63.0,0.0,120.0,10.0,0.0
1309,83.0,80.0,60.0,6.0,0.0
1310,87.0,80.0,60.0,6.0,0.0
1311,63.0,70.0,150.0,10.0,0.0
1312,85.0,0.0,120.0,1.0,0.0
1313,75.0,36.0,60.0,6.0,0.0
1314,51.0,0.0,120.0,5.0,0.0
1315,75.0,0.0,120.0,3.0,0.0
1316,39.0,0.0,120.0,5.0,0.0
1317,82.0,0.0,120.0,2.0,0.0
1318,67.0,0.0,120.0,6.0,0.0
1319,85.0,44.0,120.0,0.0,0.0
1320,67.0,0.0,120.0,4.0,0.0
1321,82.0,10.0,60.0,6.0,0.0
1322,85.0,2.0,60.0,6.0,0.0
1323,58.0,78.0,60.0,10.0,0.0
1324,63.0,36.0,60.0,10.0,0.0
1325,83.0,44.0,120.0,0.0,0.0
1326,59.0,0.0,300.0,10.0,0.0
1327,75.0,0.0,120.0,3.0,0.0
1328,83.0,0.0,120.0,1.0,0.0
1329,68.0,0.0,120.0,4.0,0.0
1330,44.0,0.0,120.0,5.0,0.0
1331,80.0,0.0,60.0,6.0,0.0
1332,80.0,0.0,120.0,2.0,0.0
1333,32.0,0.0,120.0,5.0,0.0
1334,61.0,0.0,60.0,10.0,0.0
1335,82.0,80.0,60.0,6.0,0.0
1336,63.0,80.0,60.0,10.0,0.0
1337,83.0,0.0,60.0,6.0,0.0
1338,64.0,0.0,300.0,10.0,0.0
1339,85.0,80.0,60.0,6.0,0.0
1340,87.0,80.0,60.0,6.0,0.0
1341,58.0,0.0,60.0,10.0,0.0
1342,56.0,0.0,60.0,10.0,0.0
1343,88.0,80.0,60.0,6.0,0.0
1344,58.0,0.0,300.0,10.0,0.0
1345,78.0,80.0,60.0,6.0,0.0
1346,63.0,0.0,60.0,10.0,0.0
1347,80.0,80.0,60.0,6.0,0.0
1348,82.0,0.0,60.0,6.0,0.0
1349,61.0,80.0,60.0,10.0,0.0
1350,83.0,80.0,60.0,6.0,0.0
1351,63.0,0.0,300.0,10.0,0.0
1352,85.0,0.0,60.0,6.0,0.0
1353,56.0,80.0,60.0,10.0,0.0
1354,87.0,0.0,60.0,6.0,0.0
1355,54.0,80.0,60.0,10.0,0.0
1356,56.0,80.0,300.0,10.0,0.0
1357,76.0,80.0,60.0,6.0,0.0
1358,61.0,0.0,60.0,10.0,0.0
1359,78.0,80.0,60.0,6.0,0.0
1360,59.0,80.0,60.0,10.0,0.0
1361,80.0,0.0,60.0,6.0,0.0
1362,61.0,44.0,360.0,10.0,0.0
1363,82.0,0.0,60.0,6.0,0.0
1364,83.0,0.0,60.0,6.0,0.0
1365,55.0,80.0,60.0,10.0,0.0
1366,85.0,0.0,60.0,6.0,0.0
1367,53.0,80.0,60.0,10.0,0.0
1368,75.0,36.0,60.0,6.0,0.0
1369,55.0,0.0,60.0,10.0,0.0
1370,79.0,0.0,60.0,6.0,0.0
1371,51.0,80.0,60.0,10.0,0.0
1372,55.0,0.0,60.0,10.0,0.0
1373,82.0,80.0,60.0,6.0,0.0
1374,58.0,0.0,60.0,10.0,0.0
1375,85.0,80.0,60.0,6.0,0.0
1376,82.0,0.0,60.0,6.0,0.0
1377,55.0,80.0,60.0,10.0,0.0
1378,79.0,0.0,60.0,6.0,0.0
1379,58.0,80.0,60.0,10.0,0.0
1380,59.0,80.0,60.0,10.0,0.0
1381,75.0,0.0,60.0,6.0,0.0
1382,80.0,80.0,60.0,6.0,0.0
1383,63.0,0.0,60.0,10.0,0.0
1384,82.0,80.0,60.0,6.0,0.0
1385,61.0,0.0,60.0,10.0,0.0
1386,63.0,0.0,60.0,10.0,0.0
1387,83.0,80.0,60.0,6.0,0.0
1388,61.0,80.0,60.0,10.0,0.0
1389,82.0,0.0,60.0,6.0,0.0
1390,80.0,0.0,60.0,6.0,0.0
1391,59.0,80.0,60.0,10.0,0.0
1392,58.0,80.0,60.0,10.0,0.0
1393,73.0,0.0,60.0,6.0,0.0
1394,79.0,0.0,60.0,6.0,0.0
1395,61.0,80.0,60.0,10.0,0.0
1396,59.0,0.0,60.0,10.0,0.0
1397,80.0,80.0,60.0,6.0,0.0
1398,61.0,0.0,60.0,10.0,0.0
1399,82.0,80.0,60.0,6.0,0.0
1400,59.0,0.0,60.0,10.0,0.0
1401,80.0,80.0,60.0,6.0,0.0
1402,79.0,80.0,60.0,6.0,0.0
1403,58.0,0.0,60.0,10.0,0.0
1404,71.0,0.0,60.0,6.0,0.0
1405,56.0,80.0,60.0,10.0,0.0
1406,75.0,0.0,60.0,6.0,0.0
1407,58.0,80.0,60.0,10.0,0.0
1408,80.0,0.0,60.0,6.0,0.0
1409,59.0,80.0,60.0,10.0,0.0
1410,70.0,80.0,60.0,6.0,0.0
1411,61.0,0.0,60.0,10.0,0.0
1412,73.0,0.0,60.0,6.0,0.0
1413,63.0,80.0,60.0,10.0,0.0
1414,78.0,0.0,60.0,6.0,0.0
1415,61.0,80.0,60.0,10.0,0.0
1416,60.0,16.0,210.0,10.0,0.0
1417,68.0,80.0,60.0,6.0,0.0
1418,75.0,64.0,60.0,6.0,0.0
1419,76.0,80.0,60.0,6.0,0.0
1420,87.0,16.0,210.0,1.0,0.0
1421,78.0,80.0,60.0,6.0,0.0
1422,76.0,64.0,60.0,6.0,0.0
1423,75.0,80.0,60.0,6.0,0.0
1424,68.0,80.0,60.0,6.0,0.0
1425,61.0,16.0,210.0,10.0,0.0
1426,76.0,0.0,210.0,1.0,0.0
1427,73.0,64.0,60.0,6.0,0.0
1428,75.0,80.0,60.0,6.0,0.0
1429,76.0,80.0,60.0,6.0,0.0
1430,76.0,0.0,210.0,4.0,0.0
1431,85.0,16.0,210.0,1.0,0.0
1432,75.0,64.0,60.0,6.0,0.0
1433,73.0,80.0,60.0,6.0,0.0
1434,75.0,36.0,60.0,6.0,0.0
1435,66.0,0.0,210.0,4.0,0.0
1436,54.0,44.0,120.0,10.0,0.0
1437,75.0,16.0,210.0,1.0,0.0
1438,66.0,64.0,60.0,6.0,0.0
1439,68.0,80.0,60.0,6.0,0.0
1440,84.0,0.0,210.0,1.0,0.0
1441,51.0,44.0,120.0,10.0,0.0
1442,75.0,16.0,210.0,4.0,0.0
1443,90.0,0.0,210.0,0.0,0.0
1444,69.0,36.0,60.0,6.0,0.0
1445,68.0,64.0,60.0,6.0,0.0
1446,66.0,80.0,60.0,6.0,0.0
1447,73.0,36.0,60.0,6.0,0.0
1448,52.0,44.0,120.0,10.0,0.0
1449,80.0,0.0,210.0,0.0,0.0
1450,85.0,16.0,210.0,1.0,0.0
1451,64.0,0.0,210.0,4.0,0.0
1452,64.0,64.0,60.0,6.0,0.0
1453,66.0,80.0,60.0,6.0,0.0
1454,68.0,36.0,60.0,6.0,0.0
1455,49.0,44.0,120.0,10.0,0.0
1456,88.0,0.0,210.0,0.0,0.0
1457,73.0,16.0,210.0,4.0,0.0
1458,66.0,64.0,60.0,6.0,0.0
1459,64.0,80.0,60.0,6.0,0.0
1460,51.0,44.0,120.0,10.0,0.0
1461,72.0,36.0,60.0,6.0,0.0
1462,63.0,0.0,210.0,4.0,0.0
1463,78.0,16.0,210.0,0.0,0.0
1464,63.0,64.0,60.0,6.0,0.0
1465,64.0,80.0,60.0,6.0,0.0
1466,72.0,16.0,210.0,4.0,0.0
1467,87.0,54.0,150.0,0.0,0.0
1468,66.0,36.0,60.0,6.0,0.0
1469,44.0,44.0,120.0,10.0,0.0
1470,64.0,10.0,60.0,6.0,0.0
1471,63.0,2.0,60.0,6.0,0.0
1472,78.0,78.0,60.0,0.0,0.0
1473,61.0,0.0,210.0,3.0,0.0
1474,61.0,0.0,210.0,4.0,0.0
1475,49.0,16.0,210.0,10.0,0.0
1476,64.0,80.0,60.0,6.0,0.0
1477,76.0,0.0,60.0,0.0,0.0
1478,75.0,64.0,60.0,0.0,0.0
1479,68.0,0.0,60.0,6.0,0.0
1480,73.0,80.0,60.0,0.0,0.0
1481,73.0,0.0,60.0,6.0,0.0
1482,69.0,16.0,210.0,3.0,0.0
1483,66.0,80.0,60.0,6.0,0.0
1484,72.0,64.0,60.0,6.0,0.0
1485,75.0,80.0,60.0,6.0,0.0
1486,68.0,0.0,210.0,3.0,0.0
1487,68.0,0.0,60.0,6.0,0.0
1488,49.0,80.0,60.0,10.0,0.0
1489,73.0,16.0,210.0,2.0,0.0
1490,73.0,0.0,60.0,6.0,0.0
1491,52.0,64.0,60.0,10.0,0.0
1492,76.0,0.0,60.0,6.0,0.0
1493,56.0,80.0,60.0,10.0,0.0
1494,81.0,16.0,210.0,2.0,0.0
1495,66.0,0.0,210.0,3.0,0.0
1496,51.0,80.0,60.0,10.0,0.0
1497,72.0,0.0,60.0,6.0,0.0
1498,75.0,64.0,60.0,6.0,0.0
1499,54.0,0.0,60.0,10.0,0.0
1500,60.0,0.0,60.0,10.0,0.0
1501,78.0,80.0,60.0,6.0,0.0
1502,52.0,44.0,120.0,10.0,0.0
1503,64.0,16.0,210.0,3.0,0.0
1504,73.0,36.0,60.0,6.0,0.0
1505,80.0,0.0,210.0,2.0,0.0
1506,76.0,64.0,60.0,6.0,0.0
1507,78.0,80.0,60.0,6.0,0.0
1508,64.0,16.0,210.0,4.0,0.0
1509,76.0,54.0,390.0,3.0,0.0
1510,85.0,0.0,450.0,2.0,0.0
1511,80.0,80.0,60.0,6.0,0.0
1512,78.0,64.0,60.0,6.0,0.0
1513,76.0,80.0,60.0,6.0,0.0
1514,54.0,44.0,120.0,10.0,0.0
1515,81.0,36.0,60.0,6.0,0.0
1516,73.0,16.0,210.0,0.0,0.0
1517,80.0,10.0,60.0,6.0,0.0
1518,78.0,2.0,60.0,6.0,0.0
1519,75.0,78.0,60.0,3.0,0.0
1520,66.0,0.0,210.0,4.0,0.0
1521,73.0,0.0,210.0,3.0,0.0
1522,76.0,80.0,60.0,6.0,0.0
1523,81.0,12.0,210.0,0.0,0.0
1524,75.0,64.0,60.0,6.0,0.0
1525,78.0,4.0,120.0,2.0,0.0
1526,73.0,80.0,60.0,6.0,0.0
1527,56.0,44.0,120.0,10.0,0.0
1528,80.0,16.0,210.0,0.0,0.0
1529,84.0,36.0,60.0,6.0,0.0
1530,76.0,0.0,210.0,2.0,0.0
1531,72.0,0.0,210.0,3.0,0.0
1532,81.0,64.0,60.0,6.0,0.0
1533,80.0,80.0,60.0,6.0,0.0
1534,75.0,0.0,210.0,2.0,0.0
1535,78.0,16.0,210.0,0.0,0.0
1536,80.0,0.0,450.0,3.0,0.0
1537,78.0,80.0,60.0,6.0,0.0
1538,68.0,0.0,210.0,4.0,0.0
1539,76.0,64.0,60.0,6.0,0.0
1540,75.0,80.0,60.0,6.0,0.0
1541,57.0,44.0,120.0,10.0,0.0
1542,73.0,0.0,210.0,2.0,0.0
1543,73.0,16.0,210.0,1.0,0.0
1544,85.0,36.0,60.0,6.0,0.0
1545,76.0,0.0,210.0,0.0,0.0
1546,81.0,64.0,60.0,6.0,0.0
1547,80.0,80.0,60.0,6.0,0.0
1548,78.0,80.0,60.0,6.0,0.0
1549,78.0,54.0,390.0,3.0,0.0
1550,85.0,0.0,210.0,0.0,0.0
1551,69.0,16.0,210.0,4.0,0.0
1552,81.0,0.0,210.0,1.0,0.0
1553,76.0,64.0,60.0,6.0,0.0
1554,75.0,80.0,60.0,6.0,0.0
1555,87.0,36.0,60.0,6.0,0.0
1556,80.0,16.0,210.0,1.0,0.0
1557,60.0,44.0,120.0,10.0,0.0
1558,87.0,24.0,420.0,0.0,0.0
1559,81.0,10.0,60.0,6.0,0.0
1560,80.0,2.0,60.0,6.0,0.0
1561,76.0,78.0,60.0,3.0,0.0
1562,60.0,0.0,210.0,4.0,0.0
1563,78.0,80.0,60.0,6.0,0.0
1564,78.0,16.0,210.0,1.0,0.0
1565,75.0,0.0,210.0,3.0,0.0
1566,76.0,40.0,60.0,6.0,0.0
1567,75.0,80.0,60.0,6.0,0.0
1568,73.0,0.0,210.0,3.0,0.0
1569,61.0,0.0,210.0,4.0,0.0
1570,88.0,0.0,120.0,6.0,0.0
1571,76.0,16.0,210.0,1.0,0.0
1572,73.0,0.0,210.0,2.0,0.0
1573,80.0,0.0,210.0,0.0,0.0
1574,61.0,44.0,120.0,10.0,0.0
1575,73.0,36.0,60.0,6.0,0.0
1576,76.0,64.0,60.0,6.0,0.0
1577,80.0,80.0,60.0,6.0,0.0
1578,81.0,0.0,210.0,2.0,0.0
1579,72.0,0.0,210.0,3.0,0.0
1580,66.0,16.0,210.0,4.0,0.0
1581,87.0,0.0,210.0,1.0,0.0
1582,87.0,0.0,120.0,6.0,0.0
1583,72.0,36.0,60.0,6.0,0.0
1584,66.0,44.0,120.0,10.0,0.0
1585,78.0,64.0,60.0,6.0,0.0
1586,81.0,80.0,60.0,6.0,0.0
1587,85.0,0.0,210.0,1.0,0.0
1588,73.0,16.0,210.0,3.0,0.0
1589,80.0,0.0,210.0,2.0,0.0
1590,73.0,36.0,60.0,6.0,0.0
1591,85.0,0.0,120.0,6.0,0.0
1592,64.0,44.0,120.0,10.0,0.0
1593,64.0,0.0,210.0,4.0,0.0
1594,76.0,64.0,60.0,6.0,0.0
1595,80.0,80.0,60.0,6.0,0.0
1596,84.0,16.0,210.0,1.0,0.0
1597,78.0,0.0,210.0,2.0,0.0
1598,63.0,0.0,120.0,10.0,0.0
1599,75.0,0.0,210.0,3.0,0.0
1600,84.0,44.0,120.0,6.0,0.0
1601,63.0,0.0,210.0,4.0,0.0
1602,68.0,36.0,60.0,6.0,0.0
1603,75.0,64.0,60.0,6.0,0.0
1604,78.0,80.0,60.0,6.0,0.0
1605,64.0,16.0,210.0,10.0,0.0
1606,73.0,36.0,60.0,6.0,0.0
1607,64.0,0.0,210.0,4.0,0.0
1608,76.0,0.0,420.0,2.0,0.0
1609,85.0,24.0,420.0,1.0,0.0
1610,68.0,0.0,210.0,3.0,0.0
1611,85.0,44.0,120.0,6.0,0.0
1612,75.0,64.0,60.0,6.0,0.0
1613,76.0,80.0,60.0,6.0,0.0
1614,57.0,0.0,420.0,5.0,0.0
1615,90.0,0.0,420.0,0.0,0.0
1616,69.0,0.0,420.0,10.0,0.0
1617,66.0,0.0,210.0,4.0,0.0
1618,45.0,24.0,420.0,5.0,0.0
1619,73.0,16.0,210.0,3.0,0.0
1620,78.0,80.0,60.0,6.0,0.0
1621,80.0,40.0,60.0,6.0,0.0
1622,81.0,80.0,60.0,6.0,0.0
1623,75.0,0.0,60.0,6.0,0.0
1624,71.0,80.0,60.0,6.0,0.0
1625,71.0,0.0,210.0,4.0,0.0
1626,66.0,16.0,210.0,3.0,0.0
1627,83.0,24.0,420.0,1.0,0.0
1628,75.0,0.0,420.0,2.0,0.0
1629,73.0,0.0,60.0,6.0,0.0
1630,76.0,40.0,60.0,6.0,0.0
1631,78.0,80.0,60.0,6.0,0.0
1632,75.0,0.0,60.0,6.0,0.0
1633,64.0,16.0,210.0,4.0,0.0
1634,76.0,80.0,60.0,6.0,0.0
1635,80.0,0.0,60.0,6.0,0.0
1636,71.0,0.0,210.0,3.0,0.0
1637,68.0,0.0,450.0,10.0,0.0
1638,56.0,16.0,450.0,5.0,0.0
1639,88.0,0.0,450.0,0.0,0.0
1640,44.0,0.0,450.0,5.0,0.0
1641,78.0,40.0,60.0,6.0,0.0
1642,81.0,0.0,60.0,6.0,0.0
1643,83.0,0.0,60.0,6.0,0.0
1644,80.0,80.0,60.0,6.0,0.0
1645,73.0,0.0,210.0,2.0,0.0
1646,69.0,0.0,210.0,4.0,0.0
1647,81.0,24.0,420.0,1.0,0.0
1648,64.0,0.0,210.0,3.0,0.0
1649,69.0,0.0,60.0,6.0,0.0
1650,73.0,80.0,60.0,6.0,0.0
1651,71.0,64.0,60.0,6.0,0.0
1652,75.0,0.0,60.0,6.0,0.0
1653,76.0,80.0,60.0,6.0,0.0
1654,73.0,0.0,60.0,6.0,0.0
1655,78.0,0.0,60.0,6.0,0.0
1656,87.0,30.0,150.0,0.0,0.0
1657,75.0,80.0,60.0,6.0,0.0
1658,69.0,0.0,210.0,3.0,0.0
1659,66.0,80.0,300.0,10.0,0.0
1660,75.0,24.0,420.0,2.0,0.0
1661,42.0,0.0,420.0,5.0,0.0
1662,54.0,0.0,420.0,5.0,0.0
1663,63.0,16.0,210.0,4.0,0.0
1664,80.0,10.0,60.0,6.0,0.0
1665,76.0,0.0,60.0,6.0,0.0
1666,78.0,0.0,60.0,6.0,0.0
1667,81.0,2.0,60.0,6.0,0.0
1668,85.0,78.0,60.0,0.0,0.0
1669,68.0,0.0,690.0,4.0,0.0
1670,68.0,0.0,60.0,6.0,0.0
1671,80.0,8.0,1350.0,6.0,0.0
1672,80.0,0.0,1350.0,1.0,0.0
1673,63.0,16.0,210.0,3.0,0.0
1674,84.0,24.0,420.0,0.0,0.0
1675,72.0,0.0,60.0,6.0,0.0
1676,63.0,40.0,60.0,10.0,0.0
1677,60.0,0.0,60.0,10.0,0.0
1678,75.0,80.0,60.0,6.0,0.0
1679,78.0,0.0,60.0,6.0,0.0
1680,56.0,80.0,60.0,10.0,0.0
1681,44.0,30.0,150.0,5.0,0.0
1682,75.0,0.0,450.0,3.0,0.0
1683,63.0,16.0,210.0,2.0,0.0
1684,56.0,0.0,150.0,5.0,0.0
1685,60.0,0.0,60.0,10.0,0.0
1686,75.0,10.0,60.0,6.0,0.0
1687,72.0,2.0,60.0,6.0,0.0
1688,63.0,0.0,60.0,10.0,0.0
1689,54.0,0.0,60.0,5.0,0.0
1690,42.0,78.0,60.0,5.0,0.0
1691,68.0,36.0,60.0,6.0,0.0
1692,40.0,0.0,210.0,5.0,0.0
1693,64.0,44.0,120.0,10.0,0.0
1694,52.0,0.0,210.0,5.0,0.0
1695,68.0,16.0,210.0,2.0,0.0
1696,85.0,0.0,1170.0,0.0,0.0
1697,73.0,64.0,60.0,6.0,0.0
1698,75.0,80.0,60.0,6.0,0.0
1699,49.0,16.0,210.0,5.0,0.0
1700,76.0,0.0,210.0,3.0,0.0
1701,61.0,44.0,120.0,10.0,0.0
1702,37.0,0.0,210.0,5.0,0.0
1703,76.0,36.0,60.0,6.0,0.0
1704,68.0,0.0,420.0,4.0,0.0
1705,73.0,40.0,420.0,2.0,0.0
1706,75.0,64.0,60.0,6.0,0.0
1707,73.0,80.0,60.0,6.0,0.0
1708,77.0,30.0,150.0,3.0,0.0
1709,59.0,44.0,120.0,10.0,0.0
1710,77.0,36.0,60.0,6.0,0.0
1711,74.0,10.0,60.0,6.0,0.0
1712,73.0,2.0,60.0,6.0,0.0
1713,78.0,78.0,60.0,3.0,0.0
1714,61.0,16.0,450.0,4.0,0.0
1715,53.0,0.0,210.0,5.0,0.0
1716,41.0,0.0,210.0,5.0,0.0
1717,71.0,36.0,60.0,6.0,0.0
1718,80.0,0.0,210.0,3.0,0.0
1719,53.0,36.0,120.0,10.0,0.0
1720,71.0,16.0,210.0,2.0,0.0
1721,69.0,64.0,60.0,6.0,0.0
1722,68.0,80.0,60.0,6.0,0.0
1723,42.0,0.0,210.0,5.0,0.0
1724,69.0,0.0,210.0,2.0,0.0
1725,69.0,0.0,120.0,6.0,0.0
1726,78.0,0.0,210.0,1.0,0.0
1727,73.0,0.0,210.0,3.0,0.0
1728,78.0,44.0,120.0,6.0,0.0
1729,54.0,0.0,210.0,5.0,0.0
1730,66.0,36.0,60.0,10.0,0.0
1731,69.0,64.0,60.0,10.0,0.0
1732,73.0,80.0,60.0,10.0,0.0
1733,50.0,16.0,210.0,5.0,0.0
1734,80.0,0.0,210.0,3.0,0.0
1735,80.0,0.0,120.0,6.0,0.0
1736,62.0,0.0,210.0,4.0,0.0
1737,83.0,0.0,210.0,1.0,0.0
1738,83.0,44.0,120.0,6.0,0.0
1739,38.0,0.0,210.0,5.0,0.0
1740,65.0,36.0,60.0,10.0,0.0
1741,71.0,64.0,60.0,10.0,0.0
1742,74.0,80.0,60.0,10.0,0.0
1743,66.0,36.0,60.0,10.0,0.0
1744,78.0,44.0,120.0,6.0,0.0
1745,81.0,0.0,210.0,1.0,0.0
1746,66.0,0.0,210.0,4.0,0.0
1747,35.0,0.0,210.0,5.0,0.0
1748,78.0,0.0,210.0,3.0,0.0
1749,47.0,0.0,210.0,5.0,0.0
1750,81.0,0.0,120.0,6.0,0.0
1751,74.0,16.0,210.0,2.0,0.0
1752,69.0,64.0,60.0,10.0,0.0
1753,73.0,80.0,60.0,10.0,0.0
1754,61.0,36.0,60.0,10.0,0.0
1755,77.0,0.0,120.0,6.0,0.0
1756,80.0,16.0,210.0,1.0,0.0
1757,37.0,0.0,210.0,5.0,0.0
1758,68.0,0.0,210.0,2.0,0.0
1759,80.0,44.0,120.0,6.0,0.0
1760,73.0,0.0,210.0,4.0,0.0
1761,89.0,0.0,210.0,0.0,0.0
1762,77.0,0.0,210.0,3.0,0.0
1763,49.0,0.0,210.0,5.0,0.0
1764,68.0,64.0,60.0,10.0,0.0
1765,71.0,80.0,60.0,10.0,0.0
1766,78.0,0.0,210.0,1.0,0.0
1767,69.0,0.0,210.0,2.0,0.0
1768,78.0,0.0,210.0,6.0,0.0
1769,30.0,0.0,210.0,5.0,0.0
1770,81.0,16.0,210.0,6.0,0.0
1771,81.0,0.0,210.0,3.0,0.0
1772,66.0,80.0,60.0,10.0,0.0
1773,73.0,0.0,210.0,4.0,0.0
1774,90.0,0.0,210.0,0.0,0.0
1775,42.0,0.0,210.0,5.0,0.0
1776,68.0,64.0,60.0,10.0,0.0
1777,69.0,80.0,60.0,10.0,0.0
1778,86.0,80.0,300.0,6.0,0.0
1779,81.0,80.0,60.0,6.0,0.0
1780,71.0,0.0,60.0,10.0,0.0
1781,80.0,80.0,60.0,6.0,0.0
1782,73.0,0.0,60.0,10.0,0.0
1783,74.0,80.0,60.0,10.0,0.0
1784,78.0,0.0,60.0,6.0,0.0
1785,64.0,0.0,60.0,10.0,0.0
1786,80.0,0.0,300.0,6.0,0.0
1787,66.0,0.0,60.0,10.0,0.0
1788,85.0,80.0,60.0,6.0,0.0
1789,68.0,0.0,60.0,10.0,0.0
1790,83.0,80.0,60.0,6.0,0.0
1791,69.0,80.0,60.0,10.0,0.0
1792,85.0,80.0,300.0,6.0,0.0
1793,71.0,80.0,60.0,10.0,0.0
1794,78.0,0.0,60.0,6.0,0.0
1795,77.0,80.0,60.0,6.0,0.0
1796,73.0,0.0,60.0,10.0,0.0
1797,63.0,0.0,60.0,10.0,0.0
1798,66.0,16.0,210.0,2.0,0.0
1799,78.0,0.0,300.0,6.0,0.0
1800,65.0,0.0,60.0,10.0,0.0
1801,83.0,64.0,60.0,6.0,0.0
1802,66.0,80.0,60.0,10.0,0.0
1803,82.0,0.0,60.0,6.0,0.0
1804,83.0,0.0,360.0,6.0,0.0
1805,68.0,80.0,60.0,10.0,0.0
1806,74.0,16.0,210.0,2.0,0.0
1807,69.0,0.0,60.0,10.0,0.0
1808,77.0,64.0,60.0,6.0,0.0
1809,71.0,80.0,60.0,10.0,0.0
1810,75.0,0.0,60.0,6.0,0.0
1811,61.0,0.0,210.0,3.0,0.0
1812,73.0,16.0,210.0,2.0,0.0
1813,61.0,36.0,60.0,10.0,0.0
1814,77.0,44.0,120.0,6.0,0.0
1815,65.0,64.0,60.0,10.0,0.0
1816,68.0,80.0,60.0,10.0,0.0
1817,49.0,0.0,210.0,5.0,0.0
1818,77.0,44.0,120.0,6.0,0.0
1819,68.0,16.0,210.0,3.0,0.0
1820,71.0,36.0,60.0,10.0,0.0
1821,80.0,0.0,120.0,6.0,0.0
1822,71.0,0.0,210.0,2.0,0.0
1823,37.0,0.0,210.0,5.0,0.0
1824,68.0,64.0,60.0,10.0,0.0
1825,65.0,80.0,60.0,10.0,0.0
1826,61.0,36.0,60.0,10.0,0.0
1827,42.0,0.0,210.0,5.0,0.0
1828,69.0,16.0,210.0,2.0,0.0
1829,78.0,0.0,120.0,6.0,0.0
1830,61.0,0.0,210.0,4.0,0.0
1831,54.0,0.0,210.0,5.0,0.0
1832,81.0,44.0,120.0,6.0,0.0
1833,66.0,0.0,210.0,3.0,0.0
1834,66.0,64.0,60.0,10.0,0.0
1835,68.0,80.0,60.0,10.0,0.0
1836,69.0,36.0,60.0,10.0,0.0
1837,73.0,44.0,120.0,6.0,0.0
1838,64.0,16.0,210.0,3.0,0.0
1839,69.0,0.0,210.0,4.0,0.0
1840,73.0,0.0,210.0,2.0,0.0
1841,78.0,0.0,120.0,6.0,0.0
1842,68.0,64.0,60.0,10.0,0.0
1843,66.0,80.0,60.0,10.0,0.0
1844,63.0,0.0,210.0,3.0,0.0
1845,72.0,0.0,210.0,2.0,0.0
1846,68.0,16.0,210.0,4.0,0.0
1847,75.0,80.0,540.0,6.0,0.0
1848,72.0,80.0,60.0,10.0,0.0
1849,78.0,80.0,1020.0,6.0,0.0
1850,69.0,64.0,60.0,10.0,0.0
1851,68.0,80.0,60.0,10.0,0.0
1852,63.0,0.0,210.0,2.0,0.0
1853,66.0,0.0,210.0,4.0,0.0
1854,44.0,16.0,210.0,5.0,0.0
1855,56.0,0.0,210.0,5.0,0.0
1856,60.0,0.0,210.0,3.0,0.0
1857,66.0,80.0,60.0,10.0,0.0
1858,64.0,64.0,60.0,10.0,0.0
1859,63.0,80.0,60.0,10.0,0.0
1860,64.0,0.0,210.0,4.0,0.0
1861,61.0,16.0,210.0,2.0,0.0
1862,64.0,80.0,1020.0,10.0,0.0
1863,49.0,0.0,210.0,5.0,0.0
1864,68.0,0.0,210.0,3.0,0.0
1865,37.0,0.0,210.0,5.0,0.0
1866,75.0,64.0,60.0,6.0,0.0
1867,73.0,80.0,60.0,6.0,0.0
1868,72.0,80.0,60.0,6.0,0.0
1869,70.0,80.0,60.0,6.0,0.0
1870,68.0,80.0,60.0,6.0,0.0
1871,80.0,40.0,420.0,0.0,0.0
1872,80.0,80.0,60.0,6.0,0.0
1873,78.0,80.0,60.0,6.0,0.0
1874,76.0,80.0,60.0,6.0,0.0
1875,75.0,40.0,60.0,6.0,0.0
1876,73.0,0.0,60.0,6.0,0.0
1877,82.0,80.0,540.0,6.0,0.0
1878,79.0,16.0,210.0,0.0,0.0
1879,61.0,64.0,60.0,10.0,0.0
1880,59.0,80.0,60.0,10.0,0.0
1881,58.0,80.0,60.0,10.0,0.0
1882,82.0,16.0,210.0,0.0,0.0
1883,56.0,64.0,60.0,10.0,0.0
1884,55.0,80.0,60.0,10.0,0.0
1885,59.0,80.0,1020.0,10.0,0.0
1886,75.0,16.0,210.0,0.0,0.0
1887,82.0,64.0,60.0,6.0,0.0
1888,80.0,80.0,60.0,6.0,0.0
1889,79.0,80.0,60.0,6.0,0.0
1890,79.0,16.0,210.0,0.0,0.0
1891,77.0,64.0,60.0,6.0,0.0
1892,75.0,160.0,60.0,6.0,0.0
1893,80.0,80.0,1500.0,6.0,0.0
1894,80.0,16.0,210.0,0.0,0.0
1895,75.0,64.0,60.0,6.0,0.0
1896,73.0,80.0,60.0,6.0,0.0
1897,75.0,16.0,210.0,0.0,0.0
1898,71.0,80.0,60.0,6.0,0.0
1899,70.0,64.0,60.0,6.0,0.0
1900,68.0,80.0,60.0,6.0,0.0
1901,74.0,80.0,540.0,6.0,0.0
1902,71.0,16.0,210.0,0.0,0.0
1903,80.0,16.0,690.0,1.0,0.0
1904,62.0,64.0,60.0,10.0,0.0
1905,61.0,80.0,60.0,10.0,0.0
1906,68.0,16.0,210.0,0.0,0.0
1907,59.0,80.0,60.0,10.0,0.0
1908,57.0,64.0,60.0,10.0,0.0
1909,56.0,80.0,60.0,10.0,0.0
1910,65.0,80.0,1020.0,10.0,0.0
1911,71.0,0.0,210.0,0.0,0.0
1912,74.0,64.0,60.0,6.0,0.0
1913,73.0,80.0,60.0,6.0,0.0
1914,83.0,0.0,210.0,1.0,0.0
1915,74.0,16.0,210.0,0.0,0.0
1916,71.0,80.0,60.0,6.0,0.0
1917,69.0,64.0,60.0,6.0,0.0
1918,68.0,80.0,60.0,6.0,0.0
1919,77.0,16.0,210.0,1.0,0.0
1920,73.0,0.0,210.0,0.0,0.0
1921,80.0,64.0,60.0,6.0,0.0
1922,78.0,80.0,60.0,6.0,0.0
1923,85.0,16.0,210.0,0.0,0.0
1924,77.0,80.0,60.0,6.0,0.0
1925,80.0,0.0,210.0,1.0,0.0
1926,75.0,64.0,60.0,6.0,0.0
1927,73.0,0.0,60.0,6.0,0.0
1928,73.0,16.0,210.0,1.0,0.0
1929,83.0,80.0,540.0,6.0,0.0
1930,80.0,48.0,660.0,0.0,0.0
1931,68.0,64.0,60.0,10.0,0.0
1932,66.0,80.0,60.0,10.0,0.0
1933,61.0,16.0,210.0,1.0,0.0
1934,65.0,80.0,60.0,10.0,0.0
1935,63.0,64.0,60.0,10.0,0.0
1936,61.0,80.0,60.0,10.0,0.0
1937,73.0,16.0,210.0,1.0,0.0
1938,66.0,80.0,540.0,10.0,0.0
1939,85.0,16.0,60.0,6.0,0.0
1940,83.0,80.0,60.0,6.0,0.0
1941,81.0,36.0,60.0,6.0,0.0
1942,75.0,12.0,210.0,1.0,0.0
1943,78.0,44.0,120.0,0.0,0.0
1944,80.0,64.0,60.0,6.0,0.0
1945,76.0,4.0,120.0,0.0,0.0
1946,78.0,80.0,60.0,6.0,0.0
1947,75.0,0.0,210.0,0.0,0.0
1948,68.0,0.0,210.0,1.0,0.0
1949,72.0,16.0,210.0,6.0,0.0
1950,80.0,80.0,540.0,6.0,0.0
1951,68.0,64.0,60.0,10.0,0.0
1952,66.0,80.0,60.0,10.0,0.0
1953,61.0,16.0,210.0,1.0,0.0
1954,64.0,80.0,60.0,10.0,0.0
1955,73.0,44.0,840.0,6.0,0.0
1956,76.0,40.0,420.0,0.0,0.0
1957,63.0,64.0,60.0,10.0,0.0
1958,61.0,80.0,60.0,10.0,0.0
1959,73.0,16.0,690.0,1.0,0.0
1960,69.0,24.0,420.0,10.0,0.0
1961,81.0,40.0,60.0,6.0,0.0
1962,80.0,80.0,60.0,6.0,0.0
1963,78.0,16.0,210.0,0.0,0.0
1964,78.0,80.0,60.0,6.0,0.0
1965,76.0,40.0,60.0,6.0,0.0
1966,75.0,80.0,60.0,6.0,0.0
1967,80.0,24.0,420.0,0.0,0.0
1968,68.0,36.0,60.0,10.0,0.0
1969,76.0,0.0,120.0,6.0,0.0
1970,69.0,64.0,60.0,10.0,0.0
1971,68.0,80.0,60.0,10.0,0.0
1972,66.0,36.0,60.0,10.0,0.0
1973,75.0,0.0,120.0,6.0,0.0
1974,72.0,44.0,120.0,6.0,0.0
1975,72.0,16.0,210.0,1.0,0.0
1976,64.0,40.0,60.0,10.0,0.0
1977,63.0,80.0,60.0,10.0,0.0
1978,80.0,70.0,150.0,6.0,0.0
1979,64.0,80.0,60.0,10.0,0.0
1980,66.0,10.0,60.0,10.0,0.0
1981,64.0,2.0,60.0,10.0,0.0
1982,85.0,78.0,60.0,6.0,0.0
1983,78.0,70.0,150.0,6.0,0.0
1984,63.0,80.0,60.0,10.0,0.0
1985,61.0,10.0,60.0,10.0,0.0
1986,59.0,2.0,60.0,10.0,0.0
1987,83.0,78.0,60.0,6.0,0.0
1988,61.0,80.0,60.0,10.0,0.0
1989,76.0,70.0,150.0,6.0,0.0
1990,63.0,10.0,60.0,10.0,0.0
1991,61.0,2.0,60.0,10.0,0.0
1992,81.0,78.0,60.0,6.0,0.0
1993,59.0,80.0,60.0,10.0,0.0
1994,75.0,70.0,150.0,6.0,0.0
1995,57.0,10.0,60.0,10.0,0.0
1996,56.0,2.0,60.0,10.0,0.0
1997,80.0,78.0,60.0,6.0,0.0
1998,57.0,80.0,60.0,10.0,0.0
1999,73.0,70.0,150.0,6.0,0.0
2000,59.0,10.0,60.0,10.0,0.0
2001,57.0,2.0,60.0,10.0,0.0
2002,78.0,78.0,60.0,6.0,0.0
2003,71.0,70.0,150.0,6.0,0.0
2004,56.0,80.0,60.0,10.0,0.0
2005,54.0,10.0,60.0,10.0,0.0
2006,52.0,2.0,60.0,10.0,0.0
2007,76.0,78.0,60.0,6.0,0.0
2008,54.0,80.0,60.0,10.0,0.0
2009,69.0,70.0,150.0,6.0,0.0
2010,56.0,10.0,60.0,10.0,0.0
2011,54.0,2.0,60.0,10.0,0.0
2012,74.0,78.0,60.0,6.0,0.0
2013,52.0,80.0,60.0,10.0,0.0
2014,68.0,70.0,150.0,6.0,0.0
2015,51.0,10.0,60.0,10.0,0.0
2016,49.0,2.0,60.0,10.0,0.0
2017,73.0,78.0,60.0,6.0,0.0
2018,66.0,80.0,60.0,6.0,0.0
2019,51.0,70.0,150.0,10.0,0.0
2020,72.0,10.0,60.0,6.0,0.0
2021,73.0,2.0,60.0,6.0,0.0
2022,52.0,78.0,60.0,10.0,0.0
2023,54.0,80.0,60.0,10.0,0.0
2024,81.0,0.0,450.0,1.0,0.0
2025,75.0,0.0,60.0,6.0,0.0
2026,56.0,80.0,60.0,10.0,0.0
2027,73.0,0.0,60.0,6.0,0.0
2028,57.0,0.0,60.0,10.0,0.0
2029,72.0,160.0,60.0,6.0,0.0
2030,78.0,80.0,1500.0,6.0,0.0
2031,48.0,16.0,210.0,10.0,0.0
2032,68.0,64.0,60.0,6.0,0.0
2033,70.0,80.0,60.0,6.0,0.0
2034,78.0,40.0,420.0,1.0,0.0
2035,72.0,80.0,60.0,6.0,0.0
2036,70.0,80.0,60.0,6.0,0.0
2037,68.0,80.0,60.0,6.0,0.0
2038,75.0,80.0,540.0,6.0,0.0
2039,60.0,80.0,60.0,10.0,0.0
2040,57.0,40.0,60.0,10.0,0.0
2041,56.0,80.0,60.0,10.0,0.0
2042,81.0,0.0,450.0,0.0,0.0
2043,75.0,0.0,450.0,1.0,0.0
2044,54.0,80.0,60.0,10.0,0.0
2045,52.0,80.0,60.0,10.0,0.0
2046,51.0,80.0,60.0,10.0,0.0
2047,49.0,16.0,210.0,10.0,0.0
2048,75.0,64.0,60.0,6.0,0.0
2049,73.0,80.0,60.0,6.0,0.0
2050,78.0,24.0,420.0,0.0,0.0
2051,72.0,80.0,60.0,6.0,0.0
2052,81.0,16.0,210.0,1.0,0.0
2053,70.0,64.0,60.0,6.0,0.0
2054,68.0,80.0,60.0,6.0,0.0
2055,73.0,54.0,630.0,6.0,0.0
2056,80.0,16.0,210.0,1.0,0.0
2057,81.0,40.0,60.0,6.0,0.0
2058,80.0,80.0,60.0,6.0,0.0
2059,78.0,80.0,60.0,6.0,0.0
2060,75.0,16.0,210.0,0.0,0.0
2061,84.0,0.0,210.0,1.0,0.0
2062,76.0,64.0,60.0,6.0,0.0
2063,75.0,80.0,60.0,6.0,0.0
2064,85.0,0.0,210.0,1.0,0.0
2065,49.0,0.0,210.0,5.0,0.0
2066,76.0,54.0,390.0,6.0,0.0
2067,37.0,0.0,210.0,5.0,0.0
2068,49.0,80.0,60.0,10.0,0.0
2069,76.0,0.0,210.0,0.0,0.0
2070,52.0,10.0,60.0,10.0,0.0
2071,56.0,2.0,60.0,10.0,0.0
2072,73.0,78.0,60.0,6.0,0.0
2073,48.0,0.0,210.0,5.0,0.0
2074,48.0,80.0,60.0,10.0,0.0
2075,66.0,0.0,210.0,6.0,0.0
2076,45.0,0.0,210.0,5.0,0.0
2077,36.0,16.0,210.0,5.0,0.0
2078,57.0,0.0,210.0,5.0,0.0
2079,54.0,10.0,60.0,10.0,0.0
2080,57.0,80.0,60.0,10.0,0.0
2081,75.0,54.0,210.0,6.0,0.0
2082,64.0,0.0,210.0,6.0,0.0
2083,44.0,0.0,210.0,5.0,0.0
2084,49.0,80.0,60.0,10.0,0.0
2085,56.0,0.0,210.0,5.0,0.0
2086,49.0,0.0,210.0,5.0,0.0
2087,37.0,16.0,210.0,5.0,0.0
2088,52.0,10.0,60.0,10.0,0.0
2089,56.0,80.0,60.0,10.0,0.0
2090,73.0,54.0,210.0,6.0,0.0
2091,44.0,0.0,210.0,5.0,0.0
2092,54.0,0.0,210.0,5.0,0.0
2093,63.0,16.0,210.0,6.0,0.0
2094,42.0,0.0,210.0,5.0,0.0
2095,32.0,0.0,210.0,5.0,0.0
2096,44.0,80.0,60.0,10.0,0.0
2097,51.0,10.0,60.0,10.0,0.0
2098,54.0,2.0,60.0,10.0,0.0
2099,72.0,78.0,60.0,6.0,0.0
2100,37.0,16.0,210.0,5.0,0.0
2101,40.0,0.0,210.0,5.0,0.0
2102,49.0,36.0,60.0,10.0,0.0
2103,49.0,0.0,210.0,5.0,0.0
2104,73.0,0.0,120.0,6.0,0.0
2105,64.0,44.0,120.0,6.0,0.0
2106,52.0,0.0,210.0,5.0,0.0
2107,51.0,64.0,60.0,10.0,0.0
2108,52.0,80.0,60.0,10.0,0.0
2109,69.0,0.0,210.0,3.0,0.0
2110,54.0,0.0,210.0,5.0,0.0
2111,81.0,0.0,420.0,0.0,0.0
2112,66.0,24.0,420.0,4.0,0.0
2113,57.0,80.0,60.0,10.0,0.0
2114,54.0,0.0,60.0,10.0,0.0
2115,78.0,0.0,420.0,1.0,0.0
2116,42.0,0.0,210.0,5.0,0.0
2117,85.0,0.0,210.0,2.0,0.0
2118,56.0,0.0,60.0,10.0,0.0
2119,59.0,64.0,60.0,10.0,0.0
2120,61.0,0.0,60.0,10.0,0.0
2121,57.0,80.0,60.0,10.0,0.0
2122,75.0,0.0,210.0,2.0,0.0
2123,47.0,0.0,60.0,10.0,0.0
2124,47.0,0.0,210.0,5.0,0.0
2125,78.0,16.0,210.0,3.0,0.0
2126,63.0,80.0,60.0,6.0,0.0
2127,35.0,0.0,210.0,5.0,0.0
2128,49.0,0.0,60.0,10.0,0.0
2129,64.0,40.0,60.0,6.0,0.0
2130,51.0,80.0,60.0,10.0,0.0
2131,66.0,0.0,60.0,6.0,0.0
2132,68.0,0.0,210.0,3.0,0.0
2133,68.0,0.0,210.0,4.0,0.0
2134,68.0,0.0,60.0,6.0,0.0
2135,76.0,0.0,450.0,1.0,0.0
2136,83.0,0.0,210.0,2.0,0.0
2137,80.0,0.0,450.0,0.0,0.0
2138,40.0,0.0,210.0,5.0,0.0
2139,52.0,80.0,60.0,10.0,0.0
2140,52.0,0.0,210.0,5.0,0.0
2141,69.0,0.0,60.0,6.0,0.0
2142,54.0,64.0,60.0,10.0,0.0
2143,71.0,0.0,60.0,6.0,0.0
2144,56.0,80.0,60.0,10.0,0.0
2145,76.0,0.0,210.0,3.0,0.0
2146,33.0,0.0,210.0,5.0,0.0
2147,45.0,0.0,210.0,5.0,0.0
2148,69.0,24.0,420.0,4.0,0.0
2149,45.0,0.0,60.0,10.0,0.0
2150,73.0,80.0,60.0,6.0,0.0
2151,73.0,16.0,210.0,2.0,0.0
2152,47.0,64.0,60.0,10.0,0.0
2153,75.0,0.0,60.0,6.0,0.0
2154,76.0,80.0,60.0,6.0,0.0
2155,49.0,0.0,60.0,10.0,0.0
2156,78.0,24.0,420.0,0.0,0.0
2157,66.0,16.0,210.0,3.0,0.0
2158,51.0,0.0,210.0,5.0,0.0
2159,75.0,0.0,420.0,1.0,0.0
2160,81.0,0.0,210.0,2.0,0.0
2161,39.0,0.0,210.0,5.0,0.0
2162,51.0,80.0,60.0,10.0,0.0
2163,78.0,0.0,60.0,6.0,0.0
2164,80.0,0.0,60.0,6.0,0.0
2165,52.0,40.0,60.0,10.0,0.0
2166,81.0,0.0,60.0,6.0,0.0
2167,54.0,80.0,60.0,10.0,0.0
2168,68.0,24.0,420.0,4.0,0.0
2169,75.0,16.0,210.0,3.0,0.0
2170,44.0,0.0,1650.0,5.0,0.0
2171,32.0,0.0,1650.0,5.0,0.0
2172,72.0,0.0,60.0,6.0,0.0
2173,44.0,80.0,60.0,10.0,0.0
2174,72.0,0.0,210.0,2.0,0.0
2175,48.0,40.0,60.0,10.0,0.0
2176,75.0,0.0,60.0,6.0,0.0
2177,51.0,0.0,60.0,10.0,0.0
2178,78.0,80.0,60.0,6.0,0.0
2179,68.0,0.0,210.0,2.0,0.0
2180,84.0,16.0,210.0,0.0,0.0
2181,54.0,80.0,60.0,10.0,0.0
2182,87.0,0.0,210.0,1.0,0.0
2183,75.0,0.0,60.0,6.0,0.0
2184,66.0,0.0,210.0,3.0,0.0
2185,72.0,0.0,60.0,6.0,0.0
2186,51.0,40.0,60.0,10.0,0.0
2187,48.0,80.0,60.0,10.0,0.0
2188,68.0,0.0,60.0,6.0,0.0
2189,88.0,0.0,210.0,1.0,0.0
2190,64.0,48.0,660.0,3.0,0.0
2191,64.0,0.0,60.0,10.0,0.0
2192,68.0,24.0,420.0,4.0,0.0
2193,85.0,8.0,870.0,0.0,0.0
2194,80.0,16.0,210.0,2.0,0.0
2195,44.0,80.0,60.0,10.0,0.0
2196,68.0,0.0,60.0,10.0,0.0
2197,49.0,64.0,60.0,10.0,0.0
2198,60.0,0.0,60.0,10.0,0.0
2199,51.0,80.0,60.0,10.0,0.0
2200,52.0,80.0,60.0,10.0,0.0
2201,61.0,0.0,60.0,10.0,0.0
2202,85.0,0.0,210.0,2.0,0.0
2203,80.0,16.0,210.0,1.0,0.0
2204,63.0,40.0,60.0,10.0,0.0
2205,51.0,0.0,60.0,10.0,0.0
2206,64.0,0.0,60.0,10.0,0.0
2207,49.0,80.0,60.0,10.0,0.0
2208,82.0,16.0,210.0,1.0,0.0
2209,58.0,0.0,60.0,10.0,0.0
2210,55.0,80.0,60.0,10.0,0.0
2211,79.0,40.0,420.0,2.0,0.0
2212,61.0,0.0,60.0,10.0,0.0
2213,52.0,16.0,60.0,10.0,0.0
2214,59.0,80.0,60.0,10.0,0.0
2215,51.0,0.0,60.0,10.0,0.0
2216,49.0,72.0,60.0,10.0,0.0
2217,58.0,0.0,60.0,10.0,0.0
2218,87.0,0.0,450.0,1.0,0.0
2219,63.0,0.0,450.0,3.0,0.0
2220,47.0,0.0,60.0,10.0,0.0
2221,56.0,40.0,60.0,10.0,0.0
2222,46.0,0.0,60.0,10.0,0.0
2223,55.0,80.0,60.0,10.0,0.0
2224,83.0,0.0,210.0,0.0,0.0
2225,56.0,36.0,60.0,10.0,0.0
2226,75.0,16.0,210.0,2.0,0.0
2227,56.0,0.0,210.0,4.0,0.0
2228,47.0,44.0,120.0,10.0,0.0
2229,59.0,64.0,60.0,10.0,0.0
2230,63.0,80.0,60.0,10.0,0.0
2231,85.0,16.0,210.0,1.0,0.0
2232,70.0,0.0,210.0,3.0,0.0
2233,64.0,0.0,210.0,4.0,0.0
2234,34.0,0.0,210.0,5.0,0.0
2235,85.0,0.0,210.0,0.0,0.0
2236,79.0,0.0,210.0,2.0,0.0
2237,46.0,0.0,210.0,5.0,0.0
2238,46.0,44.0,120.0,10.0,0.0
2239,55.0,36.0,60.0,10.0,0.0
2240,61.0,64.0,60.0,10.0,0.0
2241,64.0,80.0,60.0,10.0,0.0
2242,56.0,36.0,60.0,10.0,0.0
2243,75.0,0.0,210.0,2.0,0.0
2244,47.0,44.0,120.0,10.0,0.0
2245,83.0,0.0,210.0,0.0,0.0
2246,35.0,0.0,210.0,5.0,0.0
2247,47.0,0.0,210.0,5.0,0.0
2248,63.0,0.0,210.0,4.0,0.0
2249,68.0,16.0,210.0,3.0,0.0
2250,87.0,0.0,690.0,1.0,0.0
2251,59.0,64.0,60.0,10.0,0.0
2252,63.0,80.0,60.0,10.0,0.0
2253,70.0,16.0,210.0,3.0,0.0
2254,79.0,0.0,210.0,2.0,0.0
2255,39.0,0.0,210.0,5.0,0.0
2256,51.0,36.0,60.0,10.0,0.0
2257,82.0,0.0,210.0,0.0,0.0
2258,43.0,44.0,120.0,10.0,0.0
2259,61.0,0.0,210.0,4.0,0.0
2260,51.0,0.0,210.0,5.0,0.0
2261,58.0,64.0,60.0,10.0,0.0
2262,61.0,80.0,60.0,10.0,0.0
2263,32.0,0.0,210.0,5.0,0.0
2264,75.0,0.0,210.0,2.0,0.0
2265,80.0,0.0,210.0,0.0,0.0
2266,59.0,16.0,210.0,4.0,0.0
2267,44.0,0.0,210.0,5.0,0.0
2268,56.0,0.0,60.0,10.0,0.0
2269,47.0,80.0,60.0,10.0,0.0
2270,71.0,0.0,210.0,3.0,0.0
2271,46.0,0.0,60.0,10.0,0.0
2272,58.0,64.0,60.0,10.0,0.0
2273,59.0,0.0,60.0,10.0,0.0
2274,44.0,80.0,60.0,10.0,0.0
2275,61.0,36.0,60.0,10.0,0.0
2276,52.0,44.0,120.0,10.0,0.0
2277,76.0,40.0,420.0,0.0,0.0
2278,85.0,0.0,420.0,1.0,0.0
2279,63.0,80.0,60.0,10.0,0.0
2280,64.0,80.0,60.0,10.0,0.0
2281,54.0,0.0,60.0,10.0,0.0
2282,46.0,80.0,60.0,10.0,0.0
2283,44.0,40.0,60.0,10.0,0.0
2284,56.0,0.0,60.0,10.0,0.0
2285,58.0,0.0,60.0,10.0,0.0
2286,42.0,80.0,60.0,10.0,0.0
2287,59.0,36.0,60.0,10.0,0.0
2288,51.0,44.0,120.0,10.0,0.0
2289,75.0,0.0,450.0,0.0,0.0
2290,83.0,16.0,450.0,1.0,0.0
2291,61.0,80.0,60.0,10.0,0.0
2292,63.0,80.0,60.0,10.0,0.0
2293,44.0,80.0,60.0,10.0,0.0
2294,52.0,0.0,60.0,10.0,0.0
2295,54.0,0.0,60.0,10.0,0.0
2296,42.0,64.0,60.0,10.0,0.0
2297,40.0,0.0,60.0,10.0,0.0
2298,56.0,80.0,60.0,10.0,0.0
2299,82.0,16.0,210.0,1.0,0.0
2300,73.0,0.0,210.0,0.0,0.0
2301,58.0,36.0,60.0,10.0,0.0
2302,49.0,44.0,120.0,10.0,0.0
2303,59.0,64.0,60.0,10.0,0.0
2304,61.0,80.0,60.0,10.0,0.0
2305,73.0,0.0,690.0,0.0,0.0
2306,82.0,16.0,690.0,1.0,0.0
2307,43.0,70.0,150.0,10.0,0.0
2308,51.0,80.0,60.0,10.0,0.0
2309,55.0,10.0,60.0,10.0,0.0
2310,58.0,2.0,60.0,10.0,0.0
2311,49.0,78.0,60.0,10.0,0.0
2312,43.0,70.0,150.0,10.0,0.0
2313,61.0,80.0,60.0,10.0,0.0
2314,58.0,10.0,60.0,10.0,0.0
2315,55.0,2.0,60.0,10.0,0.0
2316,49.0,78.0,60.0,10.0,0.0
2317,44.0,54.0,150.0,10.0,0.0
2318,51.0,80.0,60.0,10.0,0.0
2319,56.0,10.0,60.0,10.0,0.0
2320,58.0,2.0,60.0,10.0,0.0
2321,49.0,78.0,60.0,10.0,0.0
2322,59.0,80.0,60.0,10.0,0.0
2323,44.0,54.0,150.0,10.0,0.0
2324,71.0,0.0,210.0,0.0,0.0
2325,80.0,16.0,210.0,1.0,0.0
2326,58.0,10.0,60.0,10.0,0.0
2327,56.0,2.0,60.0,10.0,0.0
2328,47.0,78.0,60.0,10.0,0.0
2329,54.0,0.0,210.0,4.0,0.0
2330,63.0,0.0,210.0,4.0,0.0
2331,72.0,16.0,210.0,4.0,0.0
2332,66.0,0.0,210.0,2.0,0.0
2333,60.0,0.0,60.0,10.0,0.0
2334,42.0,80.0,60.0,10.0,0.0
2335,75.0,0.0,210.0,3.0,0.0
2336,69.0,0.0,210.0,3.0,0.0
2337,66.0,0.0,210.0,3.0,0.0
2338,81.0,0.0,210.0,2.0,0.0
2339,75.0,0.0,210.0,2.0,0.0
2340,42.0,0.0,210.0,5.0,0.0
2341,30.0,0.0,210.0,5.0,0.0
2342,54.0,0.0,60.0,10.0,0.0
2343,57.0,64.0,60.0,10.0,0.0
2344,52.0,80.0,60.0,10.0,0.0
2345,56.0,0.0,60.0,10.0,0.0
2346,54.0,0.0,60.0,10.0,0.0
2347,84.0,16.0,210.0,0.0,0.0
2348,81.0,0.0,210.0,1.0,0.0
2349,51.0,80.0,60.0,10.0,0.0
2350,49.0,0.0,60.0,10.0,0.0
2351,52.0,64.0,60.0,10.0,0.0
2352,48.0,0.0,60.0,10.0,0.0
2353,51.0,80.0,60.0,10.0,0.0
2354,40.0,16.0,210.0,5.0,0.0
2355,76.0,0.0,210.0,3.0,0.0
2356,68.0,0.0,210.0,3.0,0.0
2357,61.0,0.0,210.0,3.0,0.0
2358,80.0,0.0,210.0,2.0,0.0
2359,73.0,0.0,210.0,2.0,0.0
2360,28.0,0.0,210.0,5.0,0.0
2361,73.0,0.0,210.0,4.0,0.0
2362,68.0,0.0,210.0,4.0,0.0
2363,61.0,0.0,210.0,4.0,0.0
2364,76.0,0.0,210.0,2.0,0.0
2365,61.0,36.0,60.0,10.0,0.0
2366,40.0,44.0,120.0,10.0,0.0
2367,56.0,64.0,60.0,10.0,0.0
2368,54.0,80.0,60.0,10.0,0.0
2369,85.0,0.0,210.0,0.0,0.0
2370,52.0,80.0,60.0,10.0,0.0
2371,80.0,16.0,210.0,1.0,0.0
2372,51.0,64.0,60.0,10.0,0.0
2373,49.0,80.0,60.0,10.0,0.0
2374,77.0,0.0,210.0,2.0,0.0
2375,68.0,16.0,210.0,2.0,0.0
2376,59.0,0.0,210.0,4.0,0.0
2377,68.0,0.0,210.0,4.0,0.0
2378,59.0,0.0,210.0,3.0,0.0
2379,32.0,0.0,210.0,5.0,0.0
2380,77.0,0.0,210.0,3.0,0.0
2381,44.0,0.0,210.0,5.0,0.0
2382,74.0,0.0,210.0,4.0,0.0
2383,74.0,0.0,210.0,3.0,0.0
2384,83.0,0.0,210.0,2.0,0.0
2385,62.0,0.0,60.0,10.0,0.0
2386,44.0,80.0,60.0,10.0,0.0
2387,59.0,64.0,60.0,10.0,0.0
2388,56.0,0.0,60.0,10.0,0.0
2389,54.0,0.0,60.0,10.0,0.0
2390,58.0,80.0,60.0,10.0,0.0
2391,53.0,80.0,60.0,10.0,0.0
2392,86.0,0.0,210.0,0.0,0.0
2393,83.0,16.0,210.0,1.0,0.0
2394,56.0,0.0,60.0,10.0,0.0
2395,54.0,0.0,60.0,10.0,0.0
2396,51.0,64.0,60.0,10.0,0.0
2397,50.0,0.0,60.0,10.0,0.0
2398,53.0,80.0,60.0,10.0,0.0
2399,82.0,0.0,210.0,2.0,0.0
2400,75.0,0.0,210.0,2.0,0.0
2401,30.0,0.0,210.0,5.0,0.0
2402,78.0,16.0,210.0,3.0,0.0
2403,66.0,0.0,210.0,4.0,0.0
2404,70.0,0.0,210.0,3.0,0.0
2405,63.0,0.0,210.0,3.0,0.0
2406,63.0,0.0,210.0,4.0,0.0
2407,63.0,36.0,60.0,10.0,0.0
2408,66.0,0.0,210.0,2.0,0.0
2409,42.0,44.0,120.0,10.0,0.0
2410,75.0,0.0,210.0,4.0,0.0
2411,42.0,0.0,210.0,5.0,0.0
2412,58.0,64.0,60.0,10.0,0.0
2413,56.0,80.0,60.0,10.0,0.0
2414,82.0,16.0,210.0,1.0,0.0
2415,87.0,0.0,210.0,0.0,0.0
2416,54.0,80.0,60.0,10.0,0.0
2417,53.0,64.0,60.0,10.0,0.0
2418,51.0,80.0,60.0,10.0,0.0
2419,65.0,0.0,210.0,4.0,0.0
2420,71.0,0.0,210.0,2.0,0.0
2421,80.0,0.0,210.0,2.0,0.0
2422,53.0,80.0,60.0,10.0,0.0
2423,44.0,16.0,210.0,10.0,0.0
2424,44.0,0.0,210.0,5.0,0.0
2425,32.0,0.0,210.0,5.0,0.0
2426,77.0,0.0,210.0,3.0,0.0
2427,68.0,0.0,210.0,3.0,0.0
2428,59.0,0.0,210.0,3.0,0.0
2429,56.0,0.0,210.0,4.0,0.0
2430,71.0,0.0,210.0,4.0,0.0
2431,77.0,0.0,210.0,2.0,0.0
2432,62.0,64.0,60.0,10.0,0.0
2433,63.0,80.0,60.0,10.0,0.0
2434,83.0,0.0,210.0,1.0,0.0
2435,65.0,80.0,60.0,10.0,0.0
2436,86.0,16.0,210.0,0.0,0.0
2437,66.0,64.0,60.0,10.0,0.0
2438,68.0,80.0,60.0,10.0,0.0
2439,66.0,0.0,210.0,3.0,0.0
2440,46.0,16.0,210.0,10.0,0.0
2441,54.0,80.0,60.0,10.0,0.0
2442,54.0,0.0,210.0,4.0,0.0
2443,63.0,0.0,210.0,4.0,0.0
2444,70.0,0.0,210.0,4.0,0.0
2445,46.0,0.0,210.0,5.0,0.0
2446,75.0,0.0,210.0,3.0,0.0
2447,70.0,0.0,210.0,3.0,0.0
2448,78.0,0.0,210.0,2.0,0.0
2449,34.0,0.0,210.0,5.0,0.0
2450,63.0,0.0,210.0,2.0,0.0
2451,70.0,0.0,210.0,2.0,0.0
2452,63.0,64.0,60.0,10.0,0.0
2453,65.0,80.0,60.0,10.0,0.0
2454,66.0,80.0,60.0,10.0,0.0
2455,87.0,16.0,210.0,0.0,0.0
2456,82.0,0.0,210.0,1.0,0.0
2457,68.0,64.0,60.0,10.0,0.0
2458,70.0,80.0,60.0,10.0,0.0
2459,35.0,16.0,210.0,5.0,0.0
2460,68.0,0.0,210.0,4.0,0.0
2461,63.0,0.0,210.0,4.0,0.0
2462,59.0,0.0,210.0,4.0,0.0
2463,65.0,0.0,210.0,3.0,0.0
2464,68.0,0.0,210.0,3.0,0.0
2465,75.0,0.0,210.0,3.0,0.0
2466,47.0,0.0,210.0,5.0,0.0
2467,59.0,0.0,210.0,2.0,0.0
2468,68.0,0.0,210.0,2.0,0.0
2469,77.0,0.0,210.0,2.0,0.0
2470,56.0,80.0,60.0,10.0,0.0
2471,47.0,0.0,210.0,10.0,0.0
2472,65.0,64.0,60.0,10.0,0.0
2473,66.0,80.0,60.0,10.0,0.0
2474,87.0,16.0,210.0,0.0,0.0
2475,68.0,80.0,60.0,10.0,0.0
2476,77.0,0.0,210.0,1.0,0.0
2477,70.0,64.0,60.0,10.0,0.0
2478,71.0,80.0,60.0,10.0,0.0
2479,70.0,0.0,210.0,4.0,0.0
2480,46.0,0.0,870.0,5.0,0.0
2481,34.0,8.0,870.0,5.0,0.0
2482,54.0,44.0,120.0,10.0,0.0
2483,46.0,0.0,120.0,10.0,0.0
2484,78.0,16.0,210.0,2.0,0.0
2485,63.0,36.0,60.0,6.0,0.0
2486,63.0,0.0,210.0,3.0,0.0
2487,66.0,64.0,60.0,6.0,0.0
2488,70.0,80.0,60.0,6.0,0.0
2489,80.0,0.0,210.0,2.0,0.0
2490,62.0,36.0,60.0,6.0,0.0
2491,71.0,0.0,210.0,3.0,0.0
2492,46.0,0.0,120.0,10.0,0.0
2493,53.0,44.0,120.0,10.0,0.0
2494,62.0,16.0,210.0,4.0,0.0
2495,86.0,0.0,210.0,0.0,0.0
2496,68.0,64.0,60.0,6.0,0.0
2497,71.0,80.0,60.0,6.0,0.0
2498,54.0,0.0,120.0,10.0,0.0
2499,63.0,36.0,60.0,6.0,0.0
2500,90.0,0.0,210.0,0.0,0.0
2501,46.0,44.0,120.0,10.0,0.0
2502,63.0,16.0,210.0,4.0,0.0
2503,78.0,0.0,210.0,2.0,0.0
2504,70.0,0.0,210.0,3.0,0.0
2505,66.0,64.0,60.0,6.0,0.0
2506,70.0,80.0,60.0,6.0,0.0
2507,68.0,0.0,210.0,3.0,0.0
2508,65.0,16.0,210.0,4.0,0.0
2509,50.0,36.0,120.0,8.0,0.0
2510,82.0,0.0,450.0,1.0,0.0
2511,86.0,0.0,210.0,0.0,0.0
2512,53.0,0.0,120.0,10.0,0.0
2513,46.0,0.0,120.0,10.0,0.0
2514,58.0,36.0,60.0,6.0,0.0
2515,77.0,0.0,210.0,2.0,0.0
2516,65.0,64.0,60.0,6.0,0.0
2517,68.0,80.0,60.0,6.0,0.0
2518,66.0,24.0,420.0,3.0,0.0
2519,39.0,16.0,210.0,5.0,0.0
2520,51.0,0.0,210.0,5.0,0.0
2521,51.0,44.0,120.0,10.0,0.0
2522,63.0,36.0,60.0,6.0,0.0
2523,87.0,54.0,150.0,0.0,0.0
2524,66.0,0.0,210.0,4.0,0.0
2525,75.0,0.0,420.0,2.0,0.0
2526,65.0,10.0,60.0,6.0,0.0
2527,66.0,2.0,60.0,6.0,0.0
2528,85.0,78.0,60.0,0.0,0.0
2529,83.0,24.0,420.0,0.0,0.0
2530,80.0,0.0,420.0,1.0,0.0
2531,63.0,0.0,210.0,4.0,0.0
2532,32.0,0.0,210.0,5.0,0.0
2533,68.0,80.0,60.0,6.0,0.0
2534,44.0,16.0,210.0,5.0,0.0
2535,70.0,40.0,60.0,6.0,0.0
2536,71.0,80.0,60.0,6.0,0.0
2537,65.0,16.0,210.0,4.0,0.0
2538,49.0,0.0,210.0,5.0,0.0
2539,73.0,0.0,420.0,2.0,0.0
2540,49.0,44.0,120.0,10.0,0.0
2541,61.0,0.0,60.0,6.0,0.0
2542,65.0,24.0,420.0,3.0,0.0
2543,37.0,0.0,210.0,5.0,0.0
2544,53.0,36.0,60.0,10.0,0.0
2545,54.0,0.0,60.0,10.0,0.0
2546,63.0,40.0,60.0,6.0,0.0
2547,56.0,0.0,60.0,10.0,0.0
2548,65.0,80.0,60.0,6.0,0.0
2549,58.0,0.0,60.0,10.0,0.0
2550,61.0,0.0,210.0,4.0,0.0
2551,42.0,16.0,210.0,5.0,0.0
2552,78.0,0.0,450.0,1.0,0.0
2553,82.0,0.0,450.0,0.0,0.0
2554,30.0,0.0,210.0,5.0,0.0
2555,66.0,80.0,60.0,6.0,0.0
2556,59.0,40.0,60.0,10.0,0.0
2557,68.0,0.0,60.0,6.0,0.0
2558,61.0,80.0,60.0,10.0,0.0
2559,70.0,0.0,60.0,6.0,0.0
2560,63.0,0.0,210.0,4.0,0.0
2561,59.0,0.0,60.0,6.0,0.0
2562,47.0,0.0,210.0,5.0,0.0
2563,35.0,0.0,210.0,5.0,0.0
2564,51.0,36.0,60.0,10.0,0.0
2565,71.0,16.0,210.0,2.0,0.0
2566,47.0,44.0,120.0,10.0,0.0
2567,63.0,0.0,210.0,3.0,0.0
2568,53.0,0.0,60.0,10.0,0.0
2569,61.0,64.0,60.0,6.0,0.0
2570,63.0,80.0,60.0,6.0,0.0
2571,54.0,0.0,60.0,10.0,0.0
2572,68.0,0.0,210.0,3.0,0.0
2573,65.0,0.0,210.0,4.0,0.0
2574,83.0,0.0,210.0,2.0,0.0
2575,32.0,16.0,210.0,5.0,0.0
2576,56.0,80.0,60.0,10.0,0.0
2577,44.0,0.0,210.0,5.0,0.0
2578,65.0,0.0,60.0,6.0,0.0
2579,77.0,0.0,150.0,1.0,0.0
2580,80.0,54.0,150.0,0.0,0.0
2581,66.0,10.0,60.0,6.0,0.0
2582,58.0,0.0,60.0,10.0,0.0
2583,68.0,2.0,60.0,6.0,0.0
2584,59.0,0.0,60.0,10.0,0.0
2585,78.0,78.0,60.0,0.0,0.0
2586,75.0,0.0,60.0,1.0,0.0
2587,44.0,0.0,210.0,5.0,0.0
2588,70.0,0.0,210.0,2.0,0.0
2589,77.0,0.0,210.0,2.0,0.0
2590,82.0,0.0,210.0,2.0,0.0
2591,74.0,0.0,210.0,1.0,0.0
2592,70.0,0.0,210.0,3.0,0.0
2593,58.0,80.0,60.0,6.0,0.0
2594,56.0,0.0,210.0,5.0,0.0
2595,74.0,0.0,210.0,3.0,0.0
2596,65.0,0.0,210.0,3.0,0.0
2597,44.0,0.0,210.0,10.0,0.0
2598,70.0,0.0,210.0,4.0,0.0
2599,65.0,0.0,210.0,4.0,0.0
2600,58.0,16.0,210.0,4.0,0.0
2601,53.0,0.0,210.0,10.0,0.0
2602,50.0,0.0,210.0,10.0,0.0
2603,77.0,0.0,210.0,0.0,0.0
2604,62.0,64.0,60.0,6.0,0.0
2605,65.0,80.0,60.0,6.0,0.0
2606,86.0,16.0,210.0,0.0,0.0
2607,77.0,0.0,210.0,1.0,0.0
2608,68.0,80.0,60.0,6.0,0.0
2609,65.0,64.0,60.0,6.0,0.0
2610,62.0,80.0,60.0,6.0,0.0
2611,54.0,0.0,210.0,5.0,0.0
2612,82.0,0.0,210.0,2.0,0.0
2613,75.0,16.0,210.0,2.0,0.0
2614,66.0,0.0,210.0,2.0,0.0
2615,54.0,0.0,210.0,4.0,0.0
2616,70.0,0.0,210.0,4.0,0.0
2617,42.0,0.0,210.0,10.0,0.0
2618,63.0,0.0,210.0,4.0,0.0
2619,51.0,0.0,210.0,10.0,0.0
2620,54.0,0.0,210.0,10.0,0.0
2621,75.0,0.0,210.0,3.0,0.0
2622,70.0,0.0,210.0,3.0,0.0
2623,58.0,80.0,60.0,6.0,0.0
2624,66.0,0.0,210.0,3.0,0.0
2625,42.0,0.0,210.0,5.0,0.0
2626,46.0,0.0,210.0,10.0,0.0
2627,63.0,64.0,60.0,6.0,0.0
2628,65.0,80.0,60.0,6.0,0.0
2629,66.0,80.0,60.0,6.0,0.0
2630,87.0,0.0,210.0,0.0,0.0
2631,70.0,16.0,210.0,1.0,0.0
2632,65.0,64.0,60.0,6.0,0.0
2633,63.0,80.0,60.0,6.0,0.0
2634,67.0,80.0,60.0,6.0,0.0
2635,52.0,0.0,210.0,4.0,0.0
2636,73.0,0.0,210.0,2.0,0.0
2637,61.0,0.0,210.0,4.0,0.0
2638,67.0,16.0,210.0,4.0,0.0
2639,73.0,0.0,210.0,3.0,0.0
2640,70.0,0.0,210.0,3.0,0.0
2641,67.0,0.0,210.0,3.0,0.0
2642,58.0,0.0,210.0,10.0,0.0
2643,49.0,0.0,210.0,10.0,0.0
2644,76.0,0.0,210.0,2.0,0.0
2645,46.0,0.0,210.0,10.0,0.0
2646,82.0,0.0,210.0,2.0,0.0
2647,46.0,0.0,210.0,5.0,0.0
2648,34.0,0.0,210.0,5.0,0.0
2649,64.0,64.0,60.0,6.0,0.0
2650,63.0,80.0,60.0,6.0,0.0
2651,61.0,80.0,60.0,6.0,0.0
2652,79.0,16.0,210.0,0.0,0.0
2653,76.0,0.0,210.0,1.0,0.0
2654,59.0,64.0,60.0,6.0,0.0
2655,58.0,160.0,60.0,6.0,0.0
2656,56.0,0.0,210.0,10.0,0.0
2657,47.0,0.0,210.0,10.0,0.0
2658,68.0,0.0,210.0,4.0,0.0
2659,71.0,16.0,210.0,2.0,0.0
2660,35.0,0.0,210.0,5.0,0.0
2661,47.0,0.0,210.0,5.0,0.0
2662,80.0,0.0,210.0,2.0,0.0
2663,75.0,0.0,210.0,3.0,0.0
2664,68.0,0.0,210.0,3.0,0.0
2665,59.0,0.0,210.0,3.0,0.0
2666,63.0,0.0,210.0,4.0,0.0
2667,75.0,0.0,210.0,2.0,0.0
2668,56.0,0.0,210.0,4.0,0.0
2669,51.0,0.0,210.0,10.0,0.0
2670,68.0,64.0,60.0,6.0,0.0
2671,70.0,80.0,60.0,6.0,0.0
2672,75.0,16.0,210.0,1.0,0.0
2673,80.0,0.0,210.0,0.0,0.0
2674,71.0,80.0,60.0,6.0,0.0
2675,70.0,64.0,60.0,6.0,0.0
2676,68.0,80.0,60.0,6.0,0.0
2677,57.0,0.0,210.0,10.0,0.0
2678,63.0,0.0,210.0,1.0,0.0
2679,51.0,0.0,210.0,10.0,0.0
2680,75.0,0.0,210.0,3.0,0.0
2681,36.0,0.0,210.0,5.0,0.0
2682,48.0,0.0,210.0,10.0,0.0
2683,66.0,0.0,210.0,3.0,0.0
2684,54.0,0.0,210.0,4.0,0.0
2685,63.0,0.0,210.0,4.0,0.0
2686,66.0,0.0,210.0,4.0,0.0
2687,69.0,0.0,210.0,3.0,0.0
2688,48.0,16.0,210.0,5.0,0.0
2689,81.0,0.0,210.0,0.0,0.0
2690,66.0,80.0,60.0,6.0,0.0
2691,78.0,0.0,210.0,2.0,0.0
2692,69.0,0.0,210.0,2.0,0.0
2693,60.0,0.0,210.0,2.0,0.0
2694,69.0,64.0,60.0,6.0,0.0
2695,68.0,80.0,60.0,6.0,0.0
2696,69.0,0.0,210.0,1.0,0.0
2697,66.0,80.0,60.0,6.0,0.0
2698,90.0,16.0,210.0,0.0,0.0
2699,64.0,64.0,60.0,6.0,0.0
2700,63.0,80.0,60.0,6.0,0.0
2701,88.0,16.0,210.0,0.0,0.0
2702,56.0,0.0,210.0,10.0,0.0
2703,72.0,80.0,60.0,6.0,0.0
2704,68.0,0.0,210.0,1.0,0.0
2705,44.0,0.0,210.0,10.0,0.0
2706,32.0,0.0,210.0,5.0,0.0
2707,44.0,0.0,210.0,5.0,0.0
2708,69.0,64.0,60.0,6.0,0.0
2709,68.0,80.0,60.0,6.0,0.0
2710,68.0,0.0,210.0,4.0,0.0
2711,75.0,0.0,210.0,3.0,0.0
2712,84.0,0.0,210.0,2.0,0.0
2713,66.0,16.0,210.0,1.0,0.0
2714,87.0,0.0,210.0,0.0,0.0
2715,66.0,80.0,60.0,6.0,0.0
2716,64.0,64.0,60.0,6.0,0.0
2717,63.0,80.0,60.0,6.0,0.0
2718,64.0,80.0,60.0,6.0,0.0
2719,76.0,0.0,210.0,3.0,0.0
2720,85.0,16.0,210.0,2.0,0.0
2721,68.0,0.0,210.0,4.0,0.0
2722,49.0,0.0,210.0,5.0,0.0
2723,37.0,0.0,210.0,5.0,0.0
2724,64.0,0.0,210.0,1.0,0.0
2725,49.0,0.0,210.0,10.0,0.0
2726,85.0,0.0,210.0,0.0,0.0
2727,56.0,0.0,210.0,10.0,0.0
2728,73.0,64.0,60.0,6.0,0.0
2729,75.0,80.0,60.0,6.0,0.0
2730,68.0,0.0,210.0,3.0,0.0
2731,76.0,80.0,60.0,6.0,0.0
2732,64.0,0.0,210.0,4.0,0.0
2733,73.0,16.0,210.0,2.0,0.0
2734,75.0,64.0,60.0,6.0,0.0
2735,73.0,80.0,60.0,6.0,0.0
2736,51.0,0.0,210.0,5.0,0.0
2737,39.0,0.0,210.0,5.0,0.0
2738,54.0,0.0,210.0,10.0,0.0
2739,66.0,80.0,60.0,6.0,0.0
2740,60.0,16.0,210.0,10.0,0.0
2741,51.0,0.0,210.0,10.0,0.0
2742,73.0,64.0,60.0,6.0,0.0
2743,75.0,80.0,60.0,6.0,0.0
2744,66.0,0.0,210.0,3.0,0.0
2745,73.0,16.0,210.0,2.0,0.0
2746,63.0,0.0,210.0,4.0,0.0
2747,76.0,80.0,60.0,6.0,0.0
2748,75.0,64.0,60.0,6.0,0.0
2749,73.0,80.0,60.0,6.0,0.0
2750,52.0,0.0,210.0,5.0,0.0
2751,40.0,0.0,210.0,5.0,0.0
2752,56.0,16.0,210.0,10.0,0.0
2753,61.0,0.0,210.0,10.0,0.0
2754,52.0,0.0,210.0,10.0,0.0
2755,68.0,80.0,60.0,6.0,0.0
2756,73.0,64.0,60.0,6.0,0.0
2757,75.0,80.0,60.0,6.0,0.0
2758,73.0,0.0,210.0,2.0,0.0
2759,68.0,0.0,210.0,3.0,0.0
2760,61.0,16.0,210.0,4.0,0.0
2761,76.0,80.0,60.0,6.0,0.0
2762,75.0,64.0,60.0,6.0,0.0
2763,73.0,80.0,60.0,6.0,0.0
2764,79.0,80.0,60.0,6.0,0.0
2765,58.0,0.0,210.0,10.0,0.0
2766,51.0,0.0,210.0,10.0,0.0
2767,61.0,0.0,210.0,10.0,0.0
2768,51.0,16.0,210.0,5.0,0.0
2769,39.0,0.0,210.0,5.0,0.0
2770,73.0,64.0,60.0,6.0,0.0
2771,75.0,80.0,60.0,6.0,0.0
2772,70.0,16.0,210.0,3.0,0.0
2773,73.0,0.0,210.0,2.0,0.0
2774,76.0,80.0,60.0,6.0,0.0
2775,67.0,0.0,210.0,4.0,0.0
2776,75.0,64.0,60.0,6.0,0.0
2777,73.0,80.0,60.0,6.0,0.0
2778,56.0,0.0,210.0,10.0,0.0
2779,80.0,80.0,60.0,6.0,0.0
2780,61.0,16.0,210.0,10.0,0.0
2781,52.0,0.0,210.0,10.0,0.0
2782,52.0,0.0,210.0,5.0,0.0
2783,40.0,0.0,210.0,5.0,0.0
2784,73.0,64.0,60.0,6.0,0.0
2785,75.0,80.0,60.0,6.0,0.0
2786,61.0,0.0,210.0,3.0,0.0
2787,73.0,16.0,210.0,2.0,0.0
2788,76.0,80.0,60.0,6.0,0.0
2789,68.0,0.0,210.0,4.0,0.0
2790,75.0,64.0,60.0,6.0,0.0
2791,73.0,80.0,60.0,6.0,0.0
2792,55.0,0.0,210.0,10.0,0.0
2793,55.0,0.0,210.0,5.0,0.0
2794,70.0,0.0,210.0,1.0,0.0
2795,58.0,0.0,210.0,10.0,0.0
2796,76.0,0.0,210.0,0.0,0.0
2797,43.0,16.0,210.0,5.0,0.0
2798,61.0,0.0,210.0,10.0,0.0
2799,82.0,80.0,60.0,6.0,0.0
2800,73.0,64.0,60.0,6.0,0.0
2801,75.0,80.0,60.0,6.0,0.0
2802,85.0,0.0,210.0,0.0,0.0
2803,73.0,0.0,210.0,2.0,0.0
2804,67.0,0.0,210.0,3.0,0.0
2805,76.0,16.0,210.0,1.0,0.0
2806,76.0,80.0,60.0,6.0,0.0
2807,70.0,0.0,210.0,4.0,0.0
2808,75.0,64.0,60.0,6.0,0.0
2809,73.0,80.0,60.0,6.0,0.0
2810,63.0,0.0,210.0,10.0,0.0
2811,51.0,0.0,210.0,10.0,0.0
2812,39.0,0.0,210.0,5.0,0.0
2813,75.0,0.0,210.0,1.0,0.0
2814,79.0,80.0,60.0,6.0,0.0
2815,83.0,16.0,210.0,0.0,0.0
2816,51.0,0.0,210.0,5.0,0.0
2817,76.0,64.0,60.0,6.0,0.0
2818,75.0,80.0,60.0,6.0,0.0
2819,73.0,80.0,60.0,6.0,0.0
2820,82.0,0.0,210.0,0.0,0.0
2821,75.0,0.0,210.0,3.0,0.0
2822,73.0,0.0,210.0,1.0,0.0
2823,70.0,0.0,210.0,4.0,0.0
2824,79.0,16.0,210.0,2.0,0.0
2825,71.0,64.0,60.0,6.0,0.0
2826,70.0,80.0,60.0,6.0,0.0
2827,71.0,0.0,210.0,1.0,0.0
2828,56.0,36.0,60.0,10.0,0.0
2829,75.0,0.0,210.0,3.0,0.0
2830,56.0,0.0,210.0,5.0,0.0
2831,80.0,0.0,210.0,2.0,0.0
2832,71.0,0.0,210.0,4.0,0.0
2833,44.0,0.0,210.0,5.0,0.0
2834,71.0,44.0,120.0,6.0,0.0
2835,80.0,16.0,210.0,0.0,0.0
2836,59.0,64.0,60.0,10.0,0.0
2837,63.0,80.0,60.0,10.0,0.0
2838,80.0,70.0,150.0,6.0,0.0
2839,53.0,80.0,60.0,10.0,0.0
2840,59.0,10.0,60.0,10.0,0.0
2841,62.0,2.0,60.0,10.0,0.0
2842,71.0,78.0,60.0,6.0,0.0
2843,70.0,44.0,120.0,6.0,0.0
2844,54.0,36.0,60.0,10.0,0.0
2845,58.0,80.0,60.0,10.0,0.0
2846,61.0,80.0,60.0,10.0,0.0
2847,51.0,80.0,60.0,10.0,0.0
2848,78.0,70.0,150.0,6.0,0.0
2849,57.0,10.0,60.0,10.0,0.0
2850,60.0,2.0,60.0,10.0,0.0
2851,69.0,78.0,60.0,6.0,0.0
2852,52.0,36.0,60.0,10.0,0.0
2853,68.0,44.0,120.0,6.0,0.0
2854,56.0,80.0,60.0,10.0,0.0
2855,59.0,80.0,60.0,10.0,0.0
2856,49.0,80.0,60.0,10.0,0.0
2857,76.0,70.0,150.0,6.0,0.0
2858,52.0,10.0,60.0,10.0,0.0
2859,58.0,2.0,60.0,10.0,0.0
2860,68.0,78.0,60.0,6.0,0.0
2861,66.0,70.0,150.0,6.0,0.0
2862,51.0,80.0,60.0,10.0,0.0
2863,54.0,10.0,60.0,10.0,0.0
2864,57.0,2.0,60.0,10.0,0.0
2865,76.0,78.0,60.0,6.0,0.0
2866,48.0,80.0,60.0,10.0,0.0
2867,75.0,70.0,150.0,6.0,0.0
2868,51.0,10.0,60.0,10.0,0.0
2869,56.0,2.0,60.0,10.0,0.0
2870,66.0,78.0,60.0,6.0,0.0
2871,37.0,0.0,120.0,5.0,0.0
2872,49.0,36.0,60.0,10.0,0.0
2873,64.0,0.0,120.0,6.0,0.0
2874,49.0,0.0,120.0,5.0,0.0
2875,52.0,80.0,60.0,10.0,0.0
2876,56.0,80.0,60.0,10.0,0.0
2877,48.0,0.0,120.0,5.0,0.0
2878,48.0,36.0,60.0,10.0,0.0
2879,57.0,0.0,120.0,5.0,0.0
2880,63.0,0.0,120.0,6.0,0.0
2881,45.0,0.0,120.0,5.0,0.0
2882,36.0,44.0,120.0,5.0,0.0
2883,54.0,80.0,60.0,10.0,0.0
2884,57.0,80.0,60.0,10.0,0.0
2885,49.0,0.0,120.0,5.0,0.0
2886,49.0,36.0,60.0,10.0,0.0
2887,56.0,44.0,120.0,5.0,0.0
2888,44.0,0.0,120.0,5.0,0.0
2889,37.0,0.0,120.0,5.0,0.0
2890,64.0,0.0,120.0,6.0,0.0
2891,52.0,80.0,60.0,10.0,0.0
2892,56.0,80.0,60.0,10.0,0.0
2893,32.0,0.0,120.0,5.0,0.0
2894,42.0,0.0,120.0,5.0,0.0
2895,44.0,0.0,120.0,5.0,0.0
2896,54.0,0.0,120.0,5.0,0.0
2897,60.0,44.0,120.0,10.0,0.0
2898,44.0,36.0,60.0,10.0,0.0
2899,51.0,80.0,60.0,10.0,0.0
2900,54.0,80.0,60.0,10.0,0.0
2901,40.0,0.0,120.0,5.0,0.0
2902,52.0,0.0,120.0,5.0,0.0
2903,61.0,36.0,60.0,10.0,0.0
2904,37.0,0.0,120.0,5.0,0.0
2905,52.0,0.0,120.0,10.0,0.0
2906,49.0,44.0,120.0,5.0,0.0
2907,61.0,0.0,120.0,4.0,0.0
2908,64.0,80.0,60.0,10.0,0.0
2909,68.0,80.0,60.0,10.0,0.0
2910,51.0,0.0,120.0,10.0,0.0
2911,60.0,36.0,60.0,10.0,0.0
2912,51.0,0.0,120.0,5.0,0.0
2913,69.0,0.0,120.0,4.0,0.0
2914,39.0,0.0,120.0,5.0,0.0
2915,66.0,80.0,60.0,10.0,0.0
2916,69.0,80.0,60.0,10.0,0.0
2917,61.0,36.0,60.0,10.0,0.0
2918,52.0,0.0,120.0,5.0,0.0
2919,52.0,44.0,120.0,10.0,0.0
2920,68.0,0.0,120.0,4.0,0.0
2921,40.0,0.0,120.0,5.0,0.0
2922,64.0,80.0,60.0,10.0,0.0
2923,68.0,80.0,60.0,10.0,0.0
2924,44.0,0.0,120.0,5.0,0.0
2925,66.0,0.0,120.0,4.0,0.0
2926,56.0,0.0,60.0,10.0,0.0
2927,56.0,0.0,120.0,5.0,0.0
2928,63.0,80.0,60.0,10.0,0.0
2929,66.0,80.0,60.0,10.0,0.0
2930,49.0,0.0,120.0,5.0,0.0
2931,73.0,0.0,120.0,3.0,0.0
2932,73.0,36.0,60.0,6.0,0.0
2933,64.0,0.0,120.0,10.0,0.0
2934,61.0,44.0,120.0,10.0,0.0
2935,61.0,0.0,120.0,5.0,0.0
2936,64.0,0.0,120.0,4.0,0.0
2937,76.0,80.0,60.0,6.0,0.0
2938,80.0,80.0,60.0,6.0,0.0
2939,42.0,0.0,120.0,5.0,0.0
2940,81.0,44.0,120.0,3.0,0.0
2941,72.0,0.0,120.0,4.0,0.0
2942,72.0,36.0,60.0,6.0,0.0
2943,54.0,0.0,120.0,10.0,0.0
2944,54.0,0.0,120.0,5.0,0.0
2945,63.0,0.0,120.0,10.0,0.0
2946,78.0,80.0,60.0,6.0,0.0
2947,81.0,80.0,60.0,6.0,0.0
2948,40.0,0.0,120.0,5.0,0.0
2949,52.0,0.0,120.0,10.0,0.0
2950,80.0,0.0,120.0,3.0,0.0
2951,73.0,44.0,120.0,4.0,0.0
2952,64.0,0.0,120.0,10.0,0.0
2953,73.0,36.0,60.0,6.0,0.0
2954,52.0,0.0,120.0,5.0,0.0
2955,76.0,80.0,60.0,6.0,0.0
2956,80.0,80.0,60.0,6.0,0.0
2957,68.0,36.0,60.0,6.0,0.0
2958,56.0,0.0,120.0,10.0,0.0
2959,44.0,0.0,120.0,5.0,0.0
2960,56.0,44.0,120.0,5.0,0.0
2961,78.0,0.0,120.0,3.0,0.0
2962,60.0,0.0,120.0,10.0,0.0
2963,75.0,0.0,120.0,4.0,0.0
2964,75.0,80.0,60.0,6.0,0.0
2965,78.0,80.0,60.0,6.0,0.0
2966,76.0,44.0,120.0,3.0,0.0
2967,61.0,0.0,210.0,10.0,0.0
2968,73.0,24.0,420.0,4.0,0.0
2969,37.0,16.0,210.0,5.0,0.0
2970,73.0,36.0,60.0,6.0,0.0
2971,57.0,80.0,300.0,10.0,0.0
2972,49.0,0.0,210.0,5.0,0.0
2973,75.0,64.0,60.0,6.0,0.0
2974,76.0,80.0,60.0,6.0,0.0
2975,81.0,0.0,420.0,1.0,0.0
2976,90.0,24.0,420.0,0.0,0.0
2977,78.0,0.0,60.0,6.0,0.0
2978,45.0,0.0,210.0,5.0,0.0
2979,57.0,16.0,210.0,5.0,0.0
2980,78.0,0.0,420.0,3.0,0.0
2981,73.0,0.0,210.0,2.0,0.0
2982,59.0,40.0,60.0,10.0,0.0
2983,80.0,0.0,60.0,6.0,0.0
2984,81.0,80.0,60.0,6.0,0.0
2985,61.0,0.0,60.0,10.0,0.0
2986,51.0,0.0,210.0,5.0,0.0
2987,71.0,24.0,420.0,4.0,0.0
2988,75.0,16.0,210.0,2.0,0.0
2989,71.0,0.0,60.0,6.0,0.0
2990,39.0,0.0,210.0,5.0,0.0
2991,51.0,80.0,60.0,10.0,0.0
2992,73.0,40.0,60.0,6.0,0.0
2993,52.0,0.0,60.0,10.0,0.0
2994,54.0,0.0,60.0,10.0,0.0
2995,75.0,80.0,60.0,6.0,0.0
2996,56.0,0.0,210.0,5.0,0.0
2997,80.0,0.0,450.0,1.0,0.0
2998,88.0,0.0,450.0,0.0,0.0
2999,71.0,16.0,210.0,3.0,0.0
3000,76.0,80.0,60.0,6.0,0.0
3001,76.0,16.0,450.0,2.0,0.0
3002,44.0,0.0,210.0,5.0,0.0
3003,56.0,0.0,60.0,10.0,0.0
3004,57.0,0.0,60.0,10.0,0.0
3005,78.0,40.0,60.0,6.0,0.0
3006,59.0,80.0,60.0,10.0,0.0
3007,80.0,0.0,60.0,6.0,0.0
3008,69.0,80.0,60.0,6.0,0.0
3009,69.0,24.0,420.0,4.0,0.0
3010,61.0,0.0,60.0,10.0,0.0
3011,49.0,0.0,210.0,5.0,0.0
3012,37.0,0.0,210.0,5.0,0.0
3013,73.0,0.0,210.0,3.0,0.0
3014,71.0,0.0,60.0,6.0,0.0
3015,63.0,64.0,60.0,10.0,0.0
3016,64.0,0.0,60.0,10.0,0.0
3017,73.0,80.0,60.0,6.0,0.0
3018,75.0,0.0,210.0,3.0,0.0
3019,42.0,0.0,210.0,5.0,0.0
3020,66.0,80.0,60.0,10.0,0.0
3021,87.0,0.0,210.0,0.0,0.0
3022,54.0,0.0,210.0,5.0,0.0
3023,78.0,30.0,150.0,1.0,0.0
3024,81.0,16.0,210.0,2.0,0.0
3025,75.0,0.0,60.0,6.0,0.0
3026,76.0,10.0,60.0,6.0,0.0
3027,68.0,0.0,60.0,10.0,0.0
3028,69.0,2.0,60.0,10.0,0.0
3029,78.0,0.0,60.0,6.0,0.0
3030,76.0,78.0,60.0,1.0,0.0
3031,66.0,0.0,420.0,3.0,0.0
3032,60.0,44.0,120.0,10.0,0.0
3033,36.0,0.0,420.0,5.0,0.0
3034,75.0,0.0,420.0,1.0,0.0
3035,80.0,8.0,1350.0,2.0,0.0
3036,48.0,40.0,420.0,5.0,0.0
3037,68.0,36.0,60.0,6.0,0.0
3038,87.0,0.0,420.0,0.0,0.0
3039,63.0,0.0,420.0,4.0,0.0
3040,72.0,80.0,60.0,6.0,0.0
3041,75.0,80.0,60.0,6.0,0.0
3042,56.0,80.0,60.0,10.0,0.0
3043,78.0,0.0,60.0,6.0,0.0
3044,60.0,40.0,60.0,10.0,0.0
3045,75.0,0.0,60.0,6.0,0.0
3046,63.0,80.0,60.0,10.0,0.0
3047,72.0,0.0,60.0,6.0,0.0
3048,64.0,0.0,420.0,3.0,0.0
3049,85.0,0.0,420.0,0.0,0.0
3050,37.0,0.0,420.0,5.0,0.0
3051,49.0,0.0,420.0,5.0,0.0
3052,64.0,44.0,120.0,10.0,0.0
3053,76.0,0.0,420.0,1.0,0.0
3054,68.0,36.0,60.0,6.0,0.0
3055,68.0,40.0,420.0,4.0,0.0
3056,73.0,80.0,60.0,6.0,0.0
3057,75.0,80.0,60.0,6.0,0.0
3058,76.0,80.0,60.0,6.0,0.0
3059,61.0,0.0,60.0,10.0,0.0
3060,75.0,40.0,60.0,6.0,0.0
3061,59.0,0.0,60.0,10.0,0.0
3062,73.0,80.0,60.0,6.0,0.0
3063,57.0,0.0,60.0,10.0,0.0
3064,47.0,0.0,420.0,5.0,0.0
3065,71.0,0.0,420.0,4.0,0.0
3066,56.0,0.0,60.0,10.0,0.0
3067,77.0,40.0,420.0,1.0,0.0
3068,35.0,0.0,420.0,5.0,0.0
3069,68.0,0.0,420.0,3.0,0.0
3070,77.0,80.0,60.0,6.0,0.0
3071,86.0,0.0,420.0,0.0,0.0
3072,71.0,80.0,60.0,6.0,0.0
3073,74.0,0.0,60.0,6.0,0.0
3074,73.0,0.0,60.0,6.0,0.0
3075,69.0,80.0,60.0,6.0,0.0
3076,71.0,0.0,60.0,6.0,0.0
3077,68.0,72.0,60.0,6.0,0.0
3078,69.0,0.0,60.0,6.0,0.0
3079,66.0,40.0,60.0,6.0,0.0
3080,68.0,0.0,60.0,6.0,0.0
3081,65.0,80.0,60.0,6.0,0.0
3082,73.0,0.0,420.0,4.0,0.0
3083,45.0,0.0,420.0,5.0,0.0
3084,78.0,40.0,420.0,1.0,0.0
3085,69.0,0.0,420.0,3.0,0.0
3086,33.0,0.0,420.0,5.0,0.0
3087,73.0,8.0,870.0,2.0,0.0
3088,85.0,0.0,420.0,0.0,0.0
3089,78.0,36.0,60.0,6.0,0.0
3090,57.0,44.0,120.0,10.0,0.0
3091,73.0,80.0,60.0,6.0,0.0
3092,71.0,80.0,60.0,6.0,0.0
3093,69.0,80.0,60.0,6.0,0.0
3094,68.0,40.0,60.0,6.0,0.0
3095,66.0,80.0,60.0,6.0,0.0
3096,73.0,0.0,420.0,3.0,0.0
3097,79.0,0.0,420.0,1.0,0.0
3098,88.0,0.0,420.0,0.0,0.0
3099,58.0,0.0,60.0,10.0,0.0
3100,61.0,0.0,420.0,4.0,0.0
3101,79.0,80.0,60.0,6.0,0.0
3102,34.0,0.0,420.0,5.0,0.0
3103,46.0,40.0,420.0,5.0,0.0
3104,76.0,0.0,60.0,6.0,0.0
3105,73.0,80.0,60.0,6.0,0.0
3106,75.0,0.0,60.0,6.0,0.0
3107,71.0,80.0,60.0,6.0,0.0
3108,73.0,0.0,60.0,6.0,0.0
3109,70.0,72.0,60.0,6.0,0.0
3110,71.0,40.0,60.0,6.0,0.0
3111,68.0,0.0,60.0,6.0,0.0
3112,67.0,80.0,60.0,6.0,0.0
3113,70.0,0.0,60.0,6.0,0.0
3114,47.0,0.0,420.0,5.0,0.0
3115,71.0,0.0,420.0,3.0,0.0
3116,68.0,0.0,420.0,4.0,0.0
3117,87.0,0.0,420.0,0.0,0.0
3118,80.0,0.0,420.0,1.0,0.0
3119,35.0,40.0,420.0,5.0,0.0
3120,75.0,8.0,870.0,2.0,0.0
3121,80.0,36.0,60.0,6.0,0.0
3122,59.0,44.0,120.0,10.0,0.0
3123,75.0,80.0,60.0,6.0,0.0
3124,73.0,80.0,60.0,6.0,0.0
3125,71.0,80.0,60.0,6.0,0.0
3126,70.0,40.0,60.0,6.0,0.0
3127,68.0,80.0,60.0,6.0,0.0
3128,81.0,0.0,60.0,6.0,0.0
3129,63.0,0.0,420.0,4.0,0.0
3130,90.0,0.0,420.0,0.0,0.0
3131,60.0,80.0,60.0,10.0,0.0
3132,36.0,40.0,420.0,5.0,0.0
3133,81.0,0.0,420.0,1.0,0.0
3134,66.0,0.0,420.0,3.0,0.0
3135,48.0,0.0,420.0,5.0,0.0
3136,63.0,0.0,60.0,10.0,0.0
3137,78.0,80.0,60.0,6.0,0.0
3138,76.0,0.0,60.0,6.0,0.0
3139,64.0,80.0,60.0,10.0,0.0
3140,75.0,72.0,60.0,6.0,0.0
3141,66.0,0.0,60.0,10.0,0.0
3142,73.0,0.0,60.0,6.0,0.0
3143,68.0,40.0,60.0,10.0,0.0
3144,69.0,0.0,60.0,10.0,0.0
3145,72.0,80.0,60.0,6.0,0.0
3146,88.0,0.0,210.0,0.0,0.0
3147,76.0,0.0,210.0,2.0,0.0
3148,64.0,80.0,60.0,10.0,0.0
3149,61.0,0.0,210.0,4.0,0.0
3150,37.0,0.0,210.0,5.0,0.0
3151,80.0,0.0,210.0,1.0,0.0
3152,80.0,0.0,60.0,6.0,0.0
3153,49.0,0.0,210.0,5.0,0.0
3154,73.0,16.0,210.0,3.0,0.0
3155,78.0,64.0,60.0,6.0,0.0
3156,66.0,0.0,60.0,10.0,0.0
3157,76.0,0.0,60.0,6.0,0.0
3158,68.0,80.0,60.0,10.0,0.0
3159,85.0,44.0,120.0,6.0,0.0
3160,57.0,36.0,60.0,10.0,0.0
3161,59.0,80.0,60.0,10.0,0.0
3162,61.0,80.0,60.0,10.0,0.0
3163,63.0,80.0,60.0,10.0,0.0
3164,78.0,0.0,60.0,6.0,0.0
3165,64.0,80.0,60.0,10.0,0.0
3166,76.0,0.0,60.0,6.0,0.0
3167,66.0,80.0,60.0,10.0,0.0
3168,75.0,0.0,60.0,6.0,0.0
3169,83.0,44.0,120.0,6.0,0.0
3170,56.0,36.0,60.0,10.0,0.0
3171,57.0,80.0,60.0,10.0,0.0
3172,59.0,80.0,60.0,10.0,0.0
3173,76.0,0.0,60.0,6.0,0.0
3174,61.0,80.0,60.0,10.0,0.0
3175,63.0,80.0,60.0,10.0,0.0
3176,75.0,0.0,60.0,6.0,0.0
3177,73.0,0.0,60.0,6.0,0.0
3178,64.0,80.0,60.0,10.0,0.0
3179,81.0,44.0,120.0,6.0,0.0
3180,54.0,36.0,60.0,10.0,0.0
3181,56.0,80.0,60.0,10.0,0.0
3182,57.0,80.0,60.0,10.0,0.0
3183,59.0,80.0,60.0,10.0,0.0
3184,75.0,0.0,60.0,6.0,0.0
3185,73.0,80.0,60.0,6.0,0.0
3186,61.0,0.0,60.0,10.0,0.0
3187,63.0,0.0,60.0,10.0,0.0
3188,71.0,80.0,60.0,6.0,0.0
3189,80.0,44.0,120.0,6.0,0.0
3190,52.0,36.0,60.0,10.0,0.0
3191,54.0,80.0,60.0,10.0,0.0
3192,56.0,80.0,60.0,10.0,0.0
3193,49.0,0.0,120.0,10.0,0.0
3194,76.0,0.0,120.0,3.0,0.0
3195,46.0,0.0,120.0,10.0,0.0
3196,79.0,0.0,120.0,2.0,0.0
3197,73.0,0.0,120.0,4.0,0.0
3198,52.0,0.0,120.0,10.0,0.0
3199,46.0,44.0,120.0,5.0,0.0
3200,34.0,0.0,120.0,5.0,0.0
3201,79.0,36.0,60.0,6.0,0.0
3202,73.0,80.0,60.0,6.0,0.0
3203,75.0,80.0,60.0,6.0,0.0
3204,76.0,0.0,60.0,6.0,0.0
3205,67.0,80.0,60.0,1.0,0.0
3206,75.0,0.0,60.0,6.0,0.0
3207,66.0,80.0,60.0,1.0,0.0
3208,73.0,0.0,60.0,6.0,0.0
3209,64.0,80.0,60.0,1.0,0.0
3210,79.0,0.0,120.0,2.0,0.0
3211,76.0,0.0,120.0,3.0,0.0
3212,35.0,0.0,120.0,5.0,0.0
3213,47.0,44.0,120.0,5.0,0.0
3214,47.0,0.0,120.0,10.0,0.0
3215,76.0,16.0,210.0,1.0,0.0
3216,52.0,0.0,120.0,10.0,0.0
3217,55.0,0.0,120.0,10.0,0.0
3218,71.0,36.0,60.0,6.0,0.0
3219,71.0,0.0,120.0,4.0,0.0
3220,76.0,64.0,60.0,6.0,0.0
3221,78.0,80.0,60.0,6.0,0.0
3222,79.0,0.0,60.0,6.0,0.0
3223,71.0,80.0,60.0,0.0,0.0
3224,78.0,80.0,60.0,6.0,0.0
3225,69.0,0.0,60.0,0.0,0.0
3226,76.0,0.0,60.0,6.0,0.0
3227,67.0,80.0,60.0,0.0,0.0
3228,63.0,0.0,120.0,4.0,0.0
3229,69.0,0.0,120.0,3.0,0.0
3230,75.0,16.0,210.0,0.0,0.0
3231,78.0,0.0,120.0,2.0,0.0
3232,48.0,0.0,120.0,5.0,0.0
3233,48.0,44.0,120.0,10.0,0.0
3234,57.0,0.0,120.0,10.0,0.0
3235,51.0,0.0,120.0,10.0,0.0
3236,78.0,36.0,60.0,6.0,0.0
3237,36.0,0.0,120.0,5.0,0.0
3238,69.0,64.0,60.0,6.0,0.0
3239,71.0,80.0,60.0,6.0,0.0
3240,81.0,80.0,60.0,1.0,0.0
3241,72.0,0.0,60.0,6.0,0.0
3242,79.0,0.0,60.0,1.0,0.0
3243,71.0,80.0,60.0,6.0,0.0
3244,78.0,80.0,60.0,1.0,0.0
3245,69.0,0.0,60.0,6.0,0.0
3246,52.0,0.0,120.0,10.0,0.0
3247,88.0,16.0,210.0,1.0,0.0
3248,37.0,0.0,120.0,5.0,0.0
3249,49.0,0.0,120.0,5.0,0.0
3250,58.0,0.0,120.0,4.0,0.0
3251,76.0,0.0,120.0,2.0,0.0
3252,67.0,36.0,60.0,6.0,0.0
3253,67.0,0.0,120.0,3.0,0.0
3254,58.0,0.0,120.0,10.0,0.0
3255,49.0,44.0,120.0,10.0,0.0
3256,73.0,64.0,60.0,6.0,0.0
3257,75.0,80.0,60.0,6.0,0.0
3258,82.0,0.0,60.0,1.0,0.0
3259,79.0,80.0,60.0,0.0,0.0
3260,76.0,0.0,60.0,6.0,0.0
3261,83.0,0.0,60.0,1.0,0.0
3262,78.0,80.0,60.0,0.0,0.0
3263,75.0,0.0,60.0,6.0,0.0
3264,82.0,0.0,60.0,1.0,0.0
3265,76.0,0.0,60.0,0.0,0.0
3266,73.0,80.0,60.0,6.0,0.0
3267,90.0,16.0,210.0,0.0,0.0
3268,47.0,0.0,120.0,10.0,0.0
3269,54.0,0.0,120.0,10.0,0.0
3270,83.0,0.0,120.0,2.0,0.0
3271,35.0,44.0,120.0,5.0,0.0
3272,47.0,0.0,120.0,5.0,0.0
3273,83.0,0.0,210.0,1.0,0.0
3274,66.0,0.0,120.0,3.0,0.0
3275,59.0,0.0,120.0,10.0,0.0
3276,63.0,0.0,120.0,4.0,0.0
3277,75.0,36.0,60.0,6.0,0.0
3278,71.0,64.0,60.0,6.0,0.0
3279,73.0,80.0,60.0,6.0,0.0
3280,75.0,80.0,60.0,6.0,0.0
3281,76.0,0.0,60.0,6.0,0.0
3282,49.0,80.0,60.0,10.0,0.0
3283,78.0,80.0,60.0,6.0,0.0
3284,51.0,0.0,60.0,10.0,0.0
3285,52.0,80.0,60.0,10.0,0.0
3286,80.0,0.0,60.0,6.0,0.0
3287,54.0,80.0,60.0,10.0,0.0
3288,81.0,0.0,60.0,6.0,0.0
3289,83.0,0.0,60.0,6.0,0.0
3290,56.0,80.0,60.0,10.0,0.0
3291,84.0,0.0,60.0,6.0,0.0
3292,57.0,80.0,60.0,10.0,0.0
3293,59.0,0.0,60.0,10.0,0.0
3294,81.0,80.0,60.0,6.0,0.0
3295,60.0,80.0,60.0,10.0,0.0
3296,78.0,0.0,60.0,6.0,0.0
3297,66.0,16.0,210.0,3.0,0.0
3298,87.0,54.0,150.0,6.0,0.0
3299,59.0,80.0,60.0,10.0,0.0
3300,63.0,10.0,60.0,10.0,0.0
3301,66.0,2.0,60.0,10.0,0.0
3302,83.0,78.0,60.0,6.0,0.0
3303,58.0,80.0,60.0,10.0,0.0
3304,73.0,16.0,210.0,3.0,0.0
3305,88.0,24.0,420.0,6.0,0.0
3306,64.0,64.0,60.0,10.0,0.0
3307,67.0,160.0,60.0,10.0,0.0
3308,71.0,16.0,210.0,3.0,0.0
3309,59.0,24.0,420.0,10.0,0.0
3310,66.0,40.0,60.0,10.0,0.0
3311,68.0,80.0,60.0,10.0,0.0
3312,69.0,0.0,210.0,3.0,0.0
3313,69.0,80.0,60.0,10.0,0.0
3314,87.0,16.0,210.0,6.0,0.0
3315,68.0,40.0,60.0,10.0,0.0
3316,66.0,224.0,60.0,10.0,0.0
3317,64.0,0.0,210.0,10.0,0.0
3318,52.0,0.0,210.0,5.0,0.0
3319,76.0,24.0,420.0,2.0,0.0
3320,68.0,0.0,210.0,10.0,0.0
3321,68.0,0.0,420.0,4.0,0.0
3322,40.0,216.0,210.0,5.0,0.0
3323,68.0,0.0,210.0,3.0,0.0
3324,88.0,0.0,210.0,6.0,0.0
3325,61.0,0.0,210.0,5.0,0.0
3326,49.0,0.0,210.0,5.0,0.0
3327,76.0,24.0,420.0,3.0,0.0
3328,61.0,216.0,210.0,10.0,0.0
3329,59.0,216.0,210.0,5.0,0.0
3330,71.0,216.0,690.0,4.0,0.0
3331,59.0,0.0,210.0,10.0,0.0
3332,78.0,24.0,420.0,2.0,0.0
3333,47.0,0.0,210.0,5.0,0.0
3334,75.0,0.0,210.0,3.0,0.0
3335,57.0,0.0,210.0,10.0,0.0
3336,45.0,0.0,210.0,5.0,0.0
3337,57.0,240.0,210.0,5.0,0.0
3338,44.0,24.0,420.0,5.0,0.0
3339,80.0,0.0,210.0,2.0,0.0
3340,76.0,0.0,420.0,3.0,0.0
3341,56.0,0.0,420.0,5.0,0.0
3342,56.0,0.0,420.0,10.0,0.0
3343,85.0,0.0,210.0,1.0,0.0
3344,64.0,0.0,210.0,4.0,0.0
3345,85.0,216.0,210.0,0.0,0.0
3346,81.0,24.0,420.0,2.0,0.0
3347,54.0,24.0,420.0,5.0,0.0
3348,75.0,0.0,210.0,1.0,0.0
3349,78.0,0.0,210.0,3.0,0.0
3350,75.0,0.0,210.0,0.0,0.0
3351,69.0,216.0,210.0,4.0,0.0
3352,42.0,0.0,420.0,5.0,0.0
3353,54.0,0.0,420.0,10.0,0.0
3354,80.0,0.0,450.0,2.0,0.0
3355,83.0,240.0,210.0,1.0,0.0
3356,71.0,0.0,210.0,3.0,0.0
3357,83.0,0.0,210.0,0.0,0.0
3358,63.0,0.0,210.0,4.0,0.0
3359,73.0,132.0,210.0,3.0,0.0
3360,68.0,0.0,210.0,4.0,0.0
3361,40.0,0.0,420.0,5.0,0.0
3362,73.0,0.0,210.0,0.0,0.0
3363,73.0,0.0,210.0,1.0,0.0
3364,52.0,24.0,420.0,10.0,0.0
3365,52.0,0.0,420.0,5.0,0.0
3366,78.0,84.0,120.0,2.0,0.0
3367,66.0,12.0,210.0,3.0,0.0
3368,61.0,0.0,210.0,4.0,0.0
3369,81.0,0.0,210.0,0.0,0.0
3370,81.0,0.0,210.0,1.0,0.0
3371,76.0,228.0,120.0,2.0,0.0
3372,71.0,216.0,210.0,1.0,0.0
3373,51.0,0.0,420.0,5.0,0.0
3374,39.0,24.0,420.0,5.0,0.0
3375,78.0,0.0,690.0,2.0,0.0
3376,66.0,0.0,210.0,4.0,0.0
3377,71.0,0.0,690.0,3.0,0.0
3378,51.0,0.0,420.0,10.0,0.0
3379,71.0,0.0,210.0,0.0,0.0
3380,81.0,132.0,210.0,1.0,0.0
3381,59.0,0.0,210.0,4.0,0.0
3382,81.0,0.0,210.0,0.0,0.0
3383,52.0,24.0,420.0,10.0,0.0
3384,64.0,12.0,210.0,4.0,0.0
3385,80.0,108.0,120.0,0.0,0.0
3386,52.0,0.0,420.0,5.0,0.0
3387,40.0,0.0,420.0,5.0,0.0
3388,80.0,0.0,120.0,1.0,0.0
3389,82.0,120.0,120.0,1.0,0.0
3390,82.0,0.0,120.0,0.0,0.0
3391,59.0,12.0,210.0,4.0,0.0
3392,76.0,84.0,120.0,2.0,0.0
3393,80.0,0.0,210.0,3.0,0.0
3394,83.0,24.0,420.0,0.0,0.0
3395,83.0,0.0,420.0,1.0,0.0
3396,75.0,120.0,120.0,2.0,0.0
3397,78.0,12.0,210.0,3.0,0.0
3398,42.0,0.0,420.0,5.0,0.0
3399,54.0,24.0,420.0,5.0,0.0
3400,73.0,84.0,120.0,2.0,0.0
3401,54.0,0.0,420.0,10.0,0.0
3402,80.0,120.0,120.0,2.0,0.0
3403,66.0,0.0,450.0,4.0,0.0
3404,73.0,12.0,210.0,3.0,0.0
3405,78.0,84.0,120.0,2.0,0.0
3406,82.0,0.0,210.0,0.0,0.0
3407,82.0,0.0,210.0,1.0,0.0
3408,76.0,228.0,120.0,2.0,0.0
3409,75.0,0.0,420.0,2.0,0.0
3410,83.0,0.0,210.0,0.0,0.0
3411,83.0,216.0,210.0,1.0,0.0
3412,47.0,0.0,420.0,5.0,0.0
3413,35.0,0.0,420.0,5.0,0.0
3414,75.0,0.0,210.0,3.0,0.0
3415,47.0,24.0,420.0,10.0,0.0
3416,71.0,24.0,420.0,4.0,0.0
3417,92.0,0.0,210.0,1.0,0.0
3418,92.0,216.0,210.0,0.0,0.0
3419,73.0,24.0,420.0,2.0,0.0
3420,90.0,216.0,210.0,1.0,0.0
3421,90.0,0.0,210.0,0.0,0.0
3422,70.0,240.0,210.0,4.0,0.0
3423,88.0,0.0,210.0,0.0,0.0
3424,88.0,0.0,210.0,1.0,0.0
3425,71.0,216.0,210.0,4.0,0.0
3426,71.0,0.0,420.0,2.0,0.0
3427,87.0,0.0,420.0,1.0,0.0
3428,87.0,24.0,420.0,0.0,0.0
3429,56.0,0.0,210.0,5.0,0.0
3430,68.0,216.0,210.0,5.0,0.0
3431,76.0,24.0,420.0,3.0,0.0
3432,68.0,0.0,210.0,10.0,0.0
3433,68.0,0.0,420.0,4.0,0.0
3434,58.0,0.0,210.0,5.0,0.0
3435,46.0,0.0,210.0,5.0,0.0
3436,85.0,0.0,420.0,0.0,0.0
3437,70.0,0.0,420.0,2.0,0.0
3438,85.0,24.0,420.0,1.0,0.0
3439,58.0,216.0,210.0,10.0,0.0
3440,54.0,0.0,210.0,5.0,0.0
3441,66.0,240.0,210.0,10.0,0.0
3442,66.0,0.0,210.0,5.0,0.0
3443,75.0,0.0,450.0,3.0,0.0
3444,66.0,0.0,450.0,4.0,0.0
3445,44.0,132.0,210.0,5.0,0.0
3446,83.0,24.0,420.0,0.0,0.0
3447,83.0,0.0,420.0,1.0,0.0
3448,56.0,0.0,210.0,10.0,0.0
3449,56.0,0.0,210.0,5.0,0.0
3450,71.0,0.0,210.0,2.0,0.0
3451,68.0,0.0,210.0,2.0,0.0
3452,64.0,0.0,210.0,10.0,0.0
3453,73.0,84.0,120.0,3.0,0.0
3454,64.0,24.0,420.0,4.0,0.0
3455,64.0,0.0,210.0,5.0,0.0
3456,52.0,12.0,210.0,5.0,0.0
3457,71.0,204.0,120.0,3.0,0.0
3458,54.0,0.0,210.0,5.0,0.0
3459,54.0,0.0,210.0,10.0,0.0
3460,82.0,24.0,420.0,0.0,0.0
3461,66.0,0.0,690.0,2.0,0.0
3462,42.0,132.0,210.0,5.0,0.0
3463,82.0,0.0,420.0,1.0,0.0
3464,73.0,0.0,420.0,3.0,0.0
3465,63.0,84.0,120.0,4.0,0.0
3466,64.0,12.0,210.0,10.0,0.0
3467,64.0,0.0,210.0,5.0,0.0
3468,52.0,0.0,210.0,5.0,0.0
3469,61.0,228.0,120.0,4.0,0.0
3470,51.0,0.0,210.0,5.0,0.0
3471,83.0,0.0,420.0,0.0,0.0
3472,71.0,216.0,210.0,3.0,0.0
3473,83.0,24.0,420.0,1.0,0.0
3474,63.0,0.0,210.0,10.0,0.0
3475,63.0,0.0,210.0,5.0,0.0
3476,63.0,0.0,210.0,4.0,0.0
3477,68.0,24.0,420.0,4.0,0.0
3478,59.0,0.0,210.0,10.0,0.0
3479,47.0,0.0,210.0,5.0,0.0
3480,59.0,216.0,210.0,5.0,0.0
3481,75.0,0.0,210.0,2.0,0.0
3482,49.0,216.0,210.0,5.0,0.0
3483,81.0,24.0,420.0,1.0,0.0
3484,61.0,0.0,210.0,10.0,0.0
3485,76.0,0.0,210.0,2.0,0.0
3486,81.0,0.0,420.0,0.0,0.0
3487,61.0,0.0,210.0,5.0,0.0
3488,63.0,0.0,210.0,5.0,0.0
3489,63.0,0.0,210.0,10.0,0.0
3490,66.0,0.0,210.0,4.0,0.0
3491,78.0,0.0,210.0,2.0,0.0
3492,51.0,240.0,210.0,5.0,0.0
3493,80.0,0.0,1170.0,1.0,0.0
3494,52.0,0.0,210.0,5.0,0.0
3495,64.0,0.0,210.0,4.0,0.0
3496,80.0,0.0,1170.0,0.0,0.0
3497,71.0,24.0,420.0,2.0,0.0
3498,64.0,0.0,210.0,5.0,0.0
3499,64.0,216.0,210.0,10.0,0.0
3500,54.0,240.0,210.0,5.0,0.0
3501,74.0,0.0,210.0,3.0,0.0
3502,66.0,0.0,210.0,5.0,0.0
3503,71.0,0.0,210.0,4.0,0.0
3504,66.0,0.0,210.0,10.0,0.0
3505,73.0,0.0,210.0,3.0,0.0
3506,76.0,24.0,900.0,4.0,0.0
3507,64.0,240.0,210.0,10.0,0.0
3508,64.0,0.0,210.0,5.0,0.0
3509,52.0,0.0,210.0,5.0,0.0
3510,62.0,0.0,210.0,5.0,0.0
3511,71.0,0.0,210.0,3.0,0.0
3512,50.0,240.0,210.0,5.0,0.0
3513,62.0,0.0,210.0,10.0,0.0
3514,69.0,0.0,210.0,3.0,0.0
3515,61.0,0.0,210.0,5.0,0.0
3516,49.0,216.0,210.0,5.0,0.0
3517,61.0,0.0,210.0,10.0,0.0
3518,85.0,0.0,210.0,1.0,0.0
3519,45.0,0.0,210.0,5.0,0.0
3520,68.0,0.0,210.0,3.0,0.0
3521,76.0,24.0,420.0,2.0,0.0
3522,85.0,0.0,210.0,0.0,0.0
3523,57.0,0.0,210.0,5.0,0.0
3524,57.0,132.0,210.0,10.0,0.0
3525,66.0,84.0,120.0,3.0,0.0
3526,83.0,0.0,210.0,1.0,0.0
3527,71.0,0.0,690.0,4.0,0.0
3528,83.0,0.0,210.0,0.0,0.0
3529,59.0,0.0,210.0,5.0,0.0
3530,59.0,0.0,210.0,10.0,0.0
3531,47.0,12.0,210.0,5.0,0.0
3532,64.0,228.0,120.0,3.0,0.0
3533,81.0,0.0,210.0,0.0,0.0
3534,81.0,0.0,210.0,1.0,0.0
3535,47.0,0.0,210.0,5.0,0.0
3536,66.0,0.0,210.0,3.0,0.0
3537,47.0,0.0,210.0,10.0,0.0
3538,35.0,0.0,210.0,5.0,0.0
3539,75.0,240.0,210.0,2.0,0.0
3540,40.0,0.0,210.0,5.0,0.0
3541,80.0,0.0,210.0,0.0,0.0
3542,80.0,132.0,210.0,1.0,0.0
3543,52.0,0.0,210.0,5.0,0.0
3544,64.0,24.0,420.0,3.0,0.0
3545,76.0,0.0,210.0,2.0,0.0
3546,52.0,0.0,210.0,10.0,0.0
3547,69.0,84.0,120.0,4.0,0.0
3548,45.0,0.0,420.0,5.0,0.0
3549,85.0,12.0,210.0,1.0,0.0
3550,57.0,24.0,420.0,5.0,0.0
3551,57.0,0.0,420.0,10.0,0.0
3552,85.0,0.0,210.0,2.0,0.0
3553,85.0,0.0,210.0,0.0,0.0
3554,68.0,204.0,120.0,4.0,0.0
3555,75.0,0.0,210.0,2.0,0.0
3556,66.0,216.0,210.0,4.0,0.0
3557,78.0,0.0,210.0,0.0,0.0
3558,71.0,24.0,420.0,3.0,0.0
3559,78.0,0.0,420.0,1.0,0.0
3560,56.0,0.0,450.0,10.0,0.0
3561,83.0,240.0,210.0,0.0,0.0
3562,56.0,0.0,450.0,5.0,0.0
3563,83.0,0.0,210.0,2.0,0.0
3564,44.0,132.0,450.0,5.0,0.0
3565,68.0,0.0,210.0,4.0,0.0
3566,76.0,0.0,420.0,0.0,0.0
3567,73.0,0.0,210.0,2.0,0.0
3568,69.0,24.0,660.0,4.0,0.0
3569,76.0,24.0,420.0,1.0,0.0
3570,73.0,0.0,210.0,3.0,0.0
3571,54.0,0.0,120.0,10.0,0.0
3572,42.0,0.0,120.0,5.0,0.0
3573,81.0,12.0,210.0,2.0,0.0
3574,78.0,24.0,420.0,3.0,0.0
3575,54.0,84.0,120.0,5.0,0.0
3576,52.0,0.0,120.0,10.0,0.0
3577,52.0,0.0,120.0,5.0,0.0
3578,40.0,180.0,120.0,5.0,0.0
3579,75.0,132.0,210.0,0.0,0.0
3580,71.0,0.0,210.0,2.0,0.0
3581,54.0,0.0,210.0,10.0,0.0
3582,42.0,0.0,210.0,5.0,0.0
3583,75.0,0.0,210.0,1.0,0.0
3584,54.0,0.0,210.0,5.0,0.0
3585,78.0,0.0,210.0,1.0,0.0
3586,71.0,0.0,450.0,3.0,0.0
3587,68.0,108.0,120.0,4.0,0.0
3588,47.0,0.0,210.0,5.0,0.0
3589,59.0,12.0,210.0,5.0,0.0
3590,78.0,0.0,210.0,0.0,0.0
3591,75.0,0.0,210.0,2.0,0.0
3592,59.0,0.0,210.0,10.0,0.0
3593,66.0,228.0,120.0,4.0,0.0
3594,80.0,0.0,210.0,1.0,0.0
3595,40.0,0.0,420.0,5.0,0.0
3596,80.0,0.0,210.0,0.0,0.0
3597,64.0,132.0,210.0,4.0,0.0
3598,52.0,24.0,420.0,5.0,0.0
3599,52.0,0.0,420.0,10.0,0.0
3600,76.0,0.0,210.0,2.0,0.0
3601,81.0,0.0,210.0,0.0,0.0
3602,66.0,0.0,210.0,4.0,0.0
3603,75.0,84.0,120.0,2.0,0.0
3604,78.0,0.0,210.0,3.0,0.0
3605,81.0,12.0,210.0,1.0,0.0
3606,73.0,228.0,120.0,2.0,0.0
3607,71.0,240.0,210.0,2.0,0.0
3608,83.0,240.0,690.0,1.0,0.0
3609,83.0,0.0,690.0,0.0,0.0
3610,68.0,0.0,210.0,4.0,0.0
3611,76.0,0.0,210.0,3.0,0.0
3612,74.0,0.0,210.0,3.0,0.0
3613,78.0,240.0,210.0,2.0,0.0
3614,66.0,0.0,210.0,4.0,0.0
3615,73.0,0.0,210.0,3.0,0.0
3616,65.0,0.0,210.0,4.0,0.0
3617,80.0,0.0,210.0,2.0,0.0
3618,86.0,0.0,210.0,0.0,0.0
3619,65.0,0.0,210.0,3.0,0.0
3620,86.0,0.0,210.0,1.0,0.0
3621,83.0,0.0,210.0,2.0,0.0
3622,61.0,240.0,210.0,4.0,0.0
3623,85.0,0.0,210.0,0.0,0.0
3624,73.0,0.0,210.0,4.0,0.0
3625,81.0,216.0,210.0,2.0,0.0
3626,61.0,0.0,420.0,5.0,0.0
3627,66.0,0.0,210.0,3.0,0.0
3628,61.0,24.0,420.0,10.0,0.0
3629,49.0,0.0,420.0,5.0,0.0
3630,85.0,0.0,210.0,1.0,0.0
3631,83.0,0.0,210.0,0.0,0.0
3632,83.0,0.0,210.0,1.0,0.0
3633,68.0,0.0,210.0,3.0,0.0
3634,65.0,0.0,210.0,4.0,0.0
3635,80.0,240.0,210.0,2.0,0.0
3636,66.0,132.0,210.0,4.0,0.0
3637,54.0,0.0,420.0,5.0,0.0
3638,54.0,24.0,420.0,10.0,0.0
3639,78.0,0.0,210.0,2.0,0.0
3640,81.0,0.0,210.0,0.0,0.0
3641,42.0,0.0,420.0,5.0,0.0
3642,69.0,0.0,210.0,3.0,0.0
3643,81.0,0.0,210.0,1.0,0.0
3644,68.0,0.0,210.0,4.0,0.0
3645,83.0,0.0,210.0,1.0,0.0
3646,80.0,12.0,210.0,3.0,0.0
3647,83.0,0.0,210.0,0.0,0.0
3648,77.0,84.0,120.0,2.0,0.0
3649,75.0,228.0,120.0,2.0,0.0
3650,85.0,0.0,690.0,1.0,0.0
3651,85.0,0.0,690.0,0.0,0.0
3652,78.0,240.0,210.0,3.0,0.0
3653,69.0,0.0,210.0,4.0,0.0
3654,73.0,0.0,210.0,2.0,0.0
3655,80.0,0.0,210.0,2.0,0.0
3656,76.0,240.0,210.0,3.0,0.0
3657,68.0,0.0,210.0,4.0,0.0
3658,82.0,0.0,210.0,2.0,0.0
3659,75.0,0.0,210.0,3.0,0.0
3660,67.0,240.0,210.0,4.0,0.0
3661,88.0,240.0,210.0,0.0,0.0
3662,85.0,0.0,210.0,2.0,0.0
3663,67.0,0.0,210.0,3.0,0.0
3664,63.0,0.0,210.0,4.0,0.0
3665,88.0,0.0,210.0,1.0,0.0
3666,68.0,0.0,210.0,3.0,0.0
3667,87.0,216.0,210.0,0.0,0.0
3668,63.0,24.0,420.0,10.0,0.0
3669,87.0,0.0,210.0,1.0,0.0
3670,51.0,0.0,420.0,5.0,0.0
3671,83.0,0.0,210.0,2.0,0.0
3672,75.0,0.0,210.0,4.0,0.0
3673,63.0,0.0,420.0,5.0,0.0
3674,70.0,240.0,210.0,3.0,0.0
3675,85.0,0.0,210.0,1.0,0.0
3676,67.0,0.0,210.0,4.0,0.0
3677,85.0,0.0,210.0,0.0,0.0
3678,82.0,0.0,210.0,2.0,0.0
3679,80.0,240.0,210.0,2.0,0.0
3680,56.0,0.0,1170.0,10.0,0.0
3681,68.0,0.0,210.0,4.0,0.0
3682,44.0,0.0,1170.0,5.0,0.0
3683,56.0,0.0,1170.0,5.0,0.0
3684,83.0,0.0,210.0,1.0,0.0
3685,83.0,0.0,210.0,0.0,0.0
3686,71.0,0.0,210.0,3.0,0.0
3687,70.0,240.0,210.0,3.0,0.0
3688,85.0,0.0,210.0,1.0,0.0
3689,85.0,0.0,210.0,0.0,0.0
3690,79.0,0.0,210.0,2.0,0.0
3691,76.0,0.0,210.0,4.0,0.0
3692,80.0,0.0,210.0,2.0,0.0
3693,87.0,0.0,690.0,0.0,0.0
3694,71.0,0.0,210.0,3.0,0.0
3695,87.0,0.0,690.0,1.0,0.0
3696,75.0,240.0,210.0,4.0,0.0
3697,73.0,0.0,210.0,4.0,0.0
3698,82.0,132.0,210.0,2.0,0.0
3699,67.0,0.0,210.0,3.0,0.0
3700,71.0,12.0,210.0,4.0,0.0
3701,68.0,24.0,660.0,3.0,0.0
3702,83.0,108.0,120.0,2.0,0.0
3703,82.0,228.0,120.0,2.0,0.0
3704,80.0,24.0,420.0,2.0,0.0
3705,73.0,192.0,210.0,4.0,0.0
3706,85.0,0.0,210.0,0.0,0.0
3707,85.0,0.0,210.0,1.0,0.0
3708,64.0,0.0,210.0,10.0,0.0
3709,64.0,0.0,210.0,5.0,0.0
3710,52.0,0.0,210.0,5.0,0.0
3711,75.0,0.0,690.0,4.0,0.0
3712,83.0,0.0,210.0,1.0,0.0
3713,63.0,0.0,210.0,5.0,0.0
3714,63.0,0.0,210.0,10.0,0.0
3715,83.0,240.0,210.0,0.0,0.0
3716,51.0,0.0,210.0,5.0,0.0
3717,82.0,0.0,210.0,0.0,0.0
3718,61.0,0.0,210.0,5.0,0.0
3719,82.0,0.0,210.0,1.0,0.0
3720,70.0,0.0,210.0,3.0,0.0
3721,61.0,0.0,210.0,10.0,0.0
3722,49.0,0.0,210.0,5.0,0.0
3723,79.0,240.0,210.0,2.0,0.0
3724,80.0,216.0,210.0,0.0,0.0
3725,80.0,0.0,210.0,2.0,0.0
3726,47.0,0.0,420.0,5.0,0.0
3727,59.0,24.0,420.0,10.0,0.0
3728,59.0,0.0,420.0,5.0,0.0
3729,71.0,0.0,210.0,3.0,0.0
3730,80.0,0.0,210.0,1.0,0.0
3731,68.0,216.0,210.0,3.0,0.0
3732,76.0,24.0,420.0,4.0,0.0
3733,88.0,0.0,210.0,0.0,0.0
3734,85.0,0.0,420.0,2.0,0.0
3735,88.0,0.0,210.0,1.0,0.0
3736,58.0,24.0,420.0,5.0,0.0
3737,58.0,0.0,420.0,10.0,0.0
3738,73.0,0.0,210.0,3.0,0.0
3739,46.0,0.0,420.0,5.0,0.0
3740,78.0,0.0,210.0,0.0,0.0
3741,78.0,216.0,210.0,1.0,0.0
3742,83.0,0.0,450.0,2.0,0.0
3743,66.0,0.0,210.0,3.0,0.0
3744,87.0,0.0,210.0,1.0,0.0
3745,87.0,240.0,210.0,0.0,0.0
3746,75.0,0.0,450.0,4.0,0.0
3747,56.0,0.0,420.0,10.0,0.0
3748,76.0,0.0,210.0,0.0,0.0
3749,44.0,0.0,420.0,5.0,0.0
3750,71.0,132.0,210.0,3.0,0.0
3751,56.0,24.0,420.0,5.0,0.0
3752,76.0,0.0,210.0,1.0,0.0
3753,85.0,12.0,210.0,0.0,0.0
3754,82.0,84.0,120.0,2.0,0.0
3755,64.0,0.0,210.0,3.0,0.0
3756,85.0,0.0,210.0,1.0,0.0
3757,73.0,0.0,120.0,4.0,0.0
3758,71.0,228.0,120.0,4.0,0.0
3759,80.0,0.0,120.0,2.0,0.0
3760,75.0,216.0,210.0,0.0,0.0
3761,43.0,24.0,420.0,5.0,0.0
3762,75.0,0.0,210.0,1.0,0.0
3763,55.0,0.0,420.0,10.0,0.0
3764,70.0,0.0,210.0,3.0,0.0
3765,82.0,0.0,690.0,2.0,0.0
3766,55.0,0.0,420.0,5.0,0.0
3767,73.0,0.0,210.0,4.0,0.0
3768,70.0,0.0,210.0,4.0,0.0
3769,85.0,0.0,210.0,0.0,0.0
3770,85.0,0.0,210.0,1.0,0.0
3771,63.0,240.0,210.0,3.0,0.0
3772,83.0,0.0,2130.0,1.0,0.0
3773,56.0,0.0,210.0,5.0,0.0
3774,56.0,132.0,210.0,10.0,0.0
3775,83.0,0.0,2130.0,0.0,0.0
3776,71.0,24.0,420.0,4.0,0.0
3777,44.0,0.0,210.0,5.0,0.0
3778,75.0,0.0,420.0,3.0,0.0
3779,80.0,84.0,120.0,2.0,0.0
3780,59.0,0.0,210.0,5.0,0.0
3781,59.0,0.0,210.0,10.0,0.0
3782,47.0,12.0,210.0,5.0,0.0
3783,79.0,228.0,120.0,2.0,0.0
3784,80.0,0.0,210.0,2.0,0.0
3785,51.0,0.0,210.0,5.0,0.0
3786,63.0,0.0,210.0,5.0,0.0
3787,63.0,240.0,210.0,10.0,0.0
3788,54.0,0.0,210.0,5.0,0.0
3789,54.0,0.0,210.0,10.0,0.0
3790,42.0,0.0,210.0,5.0,0.0
3791,69.0,0.0,210.0,4.0,0.0
3792,75.0,240.0,210.0,3.0,0.0
3793,52.0,0.0,210.0,10.0,0.0
3794,40.0,0.0,210.0,5.0,0.0
3795,76.0,0.0,210.0,3.0,0.0
3796,68.0,132.0,210.0,4.0,0.0
3797,52.0,0.0,210.0,5.0,0.0
3798,71.0,108.0,120.0,3.0,0.0
3799,80.0,0.0,120.0,2.0,0.0
3800,56.0,12.0,210.0,5.0,0.0
3801,76.0,0.0,120.0,4.0,0.0
3802,44.0,0.0,210.0,5.0,0.0
3803,56.0,0.0,210.0,10.0,0.0
3804,69.0,228.0,120.0,3.0,0.0
3805,78.0,0.0,120.0,2.0,0.0
3806,75.0,0.0,120.0,4.0,0.0
3807,47.0,0.0,210.0,5.0,0.0
3808,80.0,0.0,210.0,2.0,0.0
3809,76.0,0.0,210.0,4.0,0.0
3810,68.0,240.0,210.0,3.0,0.0
3811,59.0,0.0,210.0,10.0,0.0
3812,59.0,0.0,210.0,5.0,0.0
3813,71.0,0.0,210.0,4.0,0.0
3814,76.0,0.0,210.0,3.0,0.0
3815,38.0,0.0,210.0,5.0,0.0
3816,50.0,240.0,210.0,5.0,0.0
3817,50.0,0.0,210.0,10.0,0.0
3818,37.0,0.0,210.0,5.0,0.0
3819,64.0,0.0,210.0,3.0,0.0
3820,49.0,0.0,210.0,10.0,0.0
3821,73.0,132.0,210.0,4.0,0.0
3822,49.0,0.0,210.0,5.0,0.0
3823,66.0,24.0,420.0,3.0,0.0
3824,42.0,0.0,210.0,5.0,0.0
3825,81.0,0.0,420.0,1.0,0.0
3826,54.0,0.0,210.0,5.0,0.0
3827,61.0,12.0,210.0,4.0,0.0
3828,78.0,108.0,120.0,2.0,0.0
3829,54.0,0.0,210.0,10.0,0.0
3830,81.0,0.0,420.0,0.0,0.0
3831,76.0,204.0,120.0,2.0,0.0
3832,51.0,132.0,210.0,10.0,0.0
3833,78.0,0.0,210.0,2.0,0.0
3834,51.0,0.0,210.0,5.0,0.0
3835,59.0,0.0,690.0,4.0,0.0
3836,39.0,0.0,210.0,5.0,0.0
3837,80.0,108.0,120.0,0.0,0.0
3838,47.0,12.0,210.0,10.0,0.0
3839,35.0,0.0,210.0,5.0,0.0
3840,47.0,0.0,210.0,5.0,0.0
3841,80.0,0.0,120.0,1.0,0.0
3842,71.0,0.0,210.0,3.0,0.0
3843,76.0,0.0,120.0,2.0,0.0
3844,78.0,228.0,120.0,1.0,0.0
3845,78.0,0.0,120.0,0.0,0.0
3846,75.0,0.0,120.0,2.0,0.0
3847,80.0,0.0,330.0,1.0,0.0
3848,40.0,0.0,210.0,5.0,0.0
3849,52.0,0.0,210.0,5.0,0.0
3850,76.0,0.0,330.0,2.0,0.0
3851,80.0,132.0,330.0,0.0,0.0
3852,52.0,0.0,210.0,10.0,0.0
3853,68.0,108.0,210.0,3.0,0.0
3854,45.0,0.0,210.0,5.0,0.0
3855,61.0,0.0,210.0,4.0,0.0
3856,57.0,12.0,210.0,10.0,0.0
3857,64.0,0.0,210.0,3.0,0.0
3858,57.0,0.0,210.0,5.0,0.0
3859,78.0,0.0,120.0,2.0,0.0
3860,81.0,0.0,120.0,1.0,0.0
3861,81.0,228.0,120.0,0.0,0.0
3862,71.0,0.0,210.0,3.0,0.0
3863,47.0,108.0,210.0,5.0,0.0
3864,59.0,0.0,210.0,10.0,0.0
3865,63.0,24.0,420.0,4.0,0.0
3866,75.0,0.0,330.0,2.0,0.0
3867,78.0,0.0,330.0,1.0,0.0
3868,78.0,108.0,330.0,0.0,0.0
3869,59.0,0.0,210.0,5.0,0.0
3870,47.0,0.0,210.0,10.0,0.0
3871,47.0,0.0,210.0,5.0,0.0
3872,35.0,12.0,210.0,5.0,0.0
3873,69.0,0.0,210.0,3.0,0.0
3874,76.0,0.0,120.0,1.0,0.0
3875,76.0,0.0,120.0,0.0,0.0
3876,76.0,66.0,120.0,2.0,0.0
3877,76.0,0.0,210.0,1.0,0.0
3878,76.0,0.0,210.0,0.0,0.0
3879,88.0,33.0,60.0,6.0,0.0
3880,68.0,0.0,210.0,3.0,0.0
3881,52.0,0.0,1380.0,10.0,0.0
3882,59.0,21.0,210.0,4.0,0.0
3883,52.0,0.0,210.0,5.0,0.0
3884,40.0,0.0,210.0,5.0,0.0
3885,76.0,0.0,210.0,2.0,0.0
3886,87.0,30.0,30.0,6.0,0.0
3887,85.0,30.0,30.0,6.0,0.0
3888,83.0,30.0,30.0,6.0,0.0
3889,81.0,30.0,30.0,6.0,0.0
3890,80.0,9.0,30.0,6.0,0.0
3891,78.0,75.0,30.0,6.0,0.0
3892,56.0,16.0,210.0,10.0,0.0
3893,76.0,80.0,60.0,6.0,0.0
3894,80.0,64.0,60.0,6.0,0.0
3895,83.0,80.0,60.0,6.0,0.0
3896,85.0,80.0,60.0,6.0,0.0
3897,57.0,16.0,210.0,10.0,0.0
3898,81.0,64.0,60.0,6.0,0.0
3899,78.0,80.0,60.0,6.0,0.0
3900,75.0,80.0,60.0,6.0,0.0
3901,54.0,16.0,210.0,10.0,0.0
3902,78.0,64.0,60.0,6.0,0.0
3903,81.0,80.0,60.0,6.0,0.0
3904,83.0,80.0,60.0,6.0,0.0
3905,56.0,40.0,420.0,8.0,0.0
3906,80.0,80.0,60.0,6.0,0.0
3907,76.0,80.0,60.0,6.0,0.0
3908,73.0,80.0,60.0,6.0,0.0
3909,64.0,40.0,420.0,10.0,0.0
3910,76.0,40.0,60.0,6.0,0.0
3911,80.0,80.0,60.0,6.0,0.0
3912,54.0,24.0,420.0,10.0,0.0
3913,81.0,80.0,60.0,6.0,0.0
3914,78.0,40.0,60.0,6.0,0.0
3915,75.0,80.0,60.0,6.0,0.0
3916,63.0,16.0,210.0,10.0,0.0
3917,71.0,80.0,60.0,6.0,0.0
3918,75.0,40.0,60.0,6.0,0.0
3919,78.0,80.0,60.0,6.0,0.0
3920,64.0,16.0,210.0,1.0,0.0
3921,80.0,44.0,120.0,6.0,0.0
3922,71.0,0.0,210.0,0.0,0.0
3923,64.0,36.0,60.0,6.0,0.0
3924,68.0,64.0,60.0,6.0,0.0
3925,71.0,80.0,60.0,6.0,0.0
3926,63.0,36.0,60.0,6.0,0.0
3927,81.0,0.0,210.0,0.0,0.0
3928,78.0,44.0,120.0,6.0,0.0
3929,73.0,16.0,210.0,1.0,0.0
3930,69.0,64.0,60.0,6.0,0.0
3931,73.0,80.0,60.0,6.0,0.0
3932,71.0,0.0,210.0,1.0,0.0
3933,80.0,44.0,120.0,6.0,0.0
3934,80.0,16.0,210.0,0.0,0.0
3935,64.0,36.0,60.0,6.0,0.0
3936,68.0,64.0,60.0,6.0,0.0
3937,71.0,80.0,60.0,6.0,0.0
3938,78.0,16.0,210.0,0.0,0.0
3939,59.0,36.0,60.0,6.0,0.0
3940,75.0,44.0,120.0,6.0,0.0
3941,69.0,0.0,210.0,1.0,0.0
3942,66.0,64.0,60.0,6.0,0.0
3943,69.0,80.0,60.0,6.0,0.0
3944,68.0,16.0,210.0,2.0,0.0
3945,61.0,36.0,60.0,10.0,0.0
3946,68.0,0.0,210.0,1.0,0.0
3947,76.0,44.0,120.0,6.0,0.0
3948,76.0,0.0,210.0,0.0,0.0
3949,61.0,0.0,210.0,3.0,0.0
3950,64.0,64.0,60.0,10.0,0.0
3951,68.0,80.0,60.0,10.0,0.0
3952,60.0,36.0,60.0,10.0,0.0
3953,75.0,44.0,120.0,6.0,0.0
3954,75.0,0.0,210.0,0.0,0.0
3955,69.0,0.0,210.0,3.0,0.0
3956,75.0,16.0,210.0,1.0,0.0
3957,78.0,0.0,210.0,2.0,0.0
3958,66.0,64.0,60.0,10.0,0.0
3959,69.0,80.0,60.0,10.0,0.0
3960,68.0,0.0,210.0,3.0,0.0
3961,76.0,44.0,120.0,6.0,0.0
3962,73.0,16.0,210.0,1.0,0.0
3963,76.0,0.0,210.0,0.0,0.0
3964,76.0,0.0,210.0,2.0,0.0
3965,61.0,36.0,60.0,10.0,0.0
3966,64.0,64.0,60.0,10.0,0.0
3967,68.0,80.0,60.0,10.0,0.0
3968,75.0,0.0,210.0,2.0,0.0
3969,72.0,16.0,210.0,1.0,0.0
3970,72.0,44.0,120.0,6.0,0.0
3971,56.0,36.0,60.0,10.0,0.0
3972,80.0,0.0,210.0,0.0,0.0
3973,66.0,0.0,210.0,3.0,0.0
3974,63.0,64.0,60.0,10.0,0.0
3975,66.0,80.0,60.0,10.0,0.0
3976,57.0,36.0,60.0,10.0,0.0
3977,64.0,0.0,210.0,3.0,0.0
3978,73.0,44.0,120.0,6.0,0.0
3979,73.0,0.0,210.0,0.0,0.0
3980,73.0,0.0,210.0,2.0,0.0
3981,73.0,16.0,210.0,1.0,0.0
3982,61.0,64.0,60.0,10.0,0.0
3983,64.0,80.0,60.0,10.0,0.0
3984,75.0,0.0,210.0,2.0,0.0
3985,56.0,36.0,60.0,10.0,0.0
3986,72.0,16.0,210.0,1.0,0.0
3987,72.0,44.0,120.0,6.0,0.0
3988,66.0,0.0,210.0,3.0,0.0
3989,63.0,64.0,60.0,10.0,0.0
3990,66.0,80.0,60.0,10.0,0.0
3991,57.0,36.0,60.0,10.0,0.0
3992,73.0,16.0,210.0,2.0,0.0
3993,73.0,44.0,120.0,6.0,0.0
3994,73.0,0.0,210.0,1.0,0.0
3995,64.0,0.0,210.0,3.0,0.0
3996,61.0,64.0,60.0,10.0,0.0
3997,64.0,80.0,60.0,10.0,0.0
3998,68.0,44.0,120.0,6.0,0.0
3999,62.0,0.0,210.0,3.0,0.0
4000,83.0,16.0,210.0,1.0,0.0
4001,53.0,36.0,60.0,10.0,0.0
4002,68.0,0.0,210.0,2.0,0.0
4003,59.0,64.0,60.0,10.0,0.0
4004,62.0,80.0,60.0,10.0,0.0
4005,54.0,80.0,60.0,10.0,0.0
4006,61.0,0.0,210.0,3.0,0.0
4007,81.0,16.0,210.0,1.0,0.0
4008,69.0,54.0,150.0,6.0,0.0
4009,54.0,0.0,210.0,4.0,0.0
4010,66.0,0.0,210.0,2.0,0.0
4011,57.0,10.0,60.0,10.0,0.0
4012,61.0,2.0,60.0,10.0,0.0
4013,78.0,78.0,60.0,6.0,0.0
4014,62.0,16.0,210.0,4.0,0.0
4015,71.0,54.0,150.0,6.0,0.0
4016,53.0,80.0,60.0,10.0,0.0
4017,59.0,10.0,60.0,10.0,0.0
4018,62.0,2.0,60.0,10.0,0.0
4019,80.0,78.0,60.0,6.0,0.0
4020,69.0,54.0,150.0,6.0,0.0
4021,61.0,16.0,210.0,4.0,0.0
4022,54.0,80.0,60.0,10.0,0.0
4023,57.0,10.0,60.0,10.0,0.0
4024,61.0,2.0,60.0,10.0,0.0
4025,78.0,78.0,60.0,6.0,0.0
4026,68.0,54.0,150.0,6.0,0.0
4027,59.0,16.0,210.0,4.0,0.0
4028,49.0,80.0,60.0,10.0,0.0
4029,56.0,10.0,60.0,10.0,0.0
4030,59.0,2.0,60.0,10.0,0.0
4031,77.0,78.0,60.0,6.0,0.0
4032,61.0,0.0,210.0,4.0,0.0
4033,78.0,36.0,60.0,6.0,0.0
4034,78.0,16.0,210.0,0.0,0.0
4035,57.0,44.0,120.0,10.0,0.0
4036,81.0,64.0,60.0,6.0,0.0
4037,85.0,80.0,60.0,6.0,0.0
4038,59.0,0.0,210.0,4.0,0.0
4039,77.0,36.0,60.0,6.0,0.0
4040,83.0,0.0,210.0,1.0,0.0
4041,56.0,44.0,120.0,10.0,0.0
4042,86.0,16.0,210.0,0.0,0.0
4043,83.0,64.0,60.0,6.0,0.0
4044,86.0,80.0,60.0,6.0,0.0
4045,61.0,0.0,210.0,4.0,0.0
4046,78.0,36.0,60.0,6.0,0.0
4047,57.0,44.0,120.0,10.0,0.0
4048,81.0,16.0,210.0,1.0,0.0
4049,85.0,0.0,210.0,0.0,0.0
4050,81.0,64.0,60.0,6.0,0.0
4051,85.0,80.0,60.0,6.0,0.0
4052,53.0,44.0,120.0,10.0,0.0
4053,65.0,16.0,210.0,4.0,0.0
4054,83.0,0.0,210.0,0.0,0.0
4055,73.0,36.0,60.0,6.0,0.0
4056,80.0,0.0,210.0,1.0,0.0
4057,80.0,64.0,60.0,6.0,0.0
4058,83.0,80.0,60.0,6.0,0.0
4059,81.0,0.0,210.0,0.0,0.0
4060,66.0,0.0,210.0,4.0,0.0
4061,54.0,44.0,120.0,10.0,0.0
4062,78.0,16.0,210.0,1.0,0.0
4063,66.0,36.0,60.0,6.0,0.0
4064,81.0,0.0,120.0,6.0,0.0
4065,66.0,0.0,210.0,2.0,0.0
4066,69.0,64.0,60.0,6.0,0.0
4067,73.0,80.0,60.0,6.0,0.0
4068,47.0,0.0,210.0,5.0,0.0
4069,65.0,0.0,210.0,4.0,0.0
4070,65.0,36.0,60.0,6.0,0.0
4071,80.0,44.0,120.0,6.0,0.0
4072,74.0,0.0,210.0,2.0,0.0
4073,59.0,0.0,120.0,10.0,0.0
4074,59.0,0.0,210.0,5.0,0.0
4075,80.0,16.0,210.0,1.0,0.0
4076,68.0,0.0,210.0,3.0,0.0
4077,80.0,0.0,210.0,0.0,0.0
4078,68.0,64.0,60.0,6.0,0.0
4079,74.0,80.0,60.0,6.0,0.0
4080,45.0,0.0,210.0,5.0,0.0
4081,78.0,0.0,120.0,6.0,0.0
4082,66.0,36.0,60.0,6.0,0.0
4083,57.0,44.0,120.0,10.0,0.0
4084,66.0,16.0,210.0,4.0,0.0
4085,78.0,0.0,210.0,1.0,0.0
4086,78.0,0.0,210.0,0.0,0.0
4087,73.0,0.0,210.0,2.0,0.0
4088,57.0,0.0,210.0,5.0,0.0
4089,69.0,0.0,210.0,3.0,0.0
4090,69.0,64.0,60.0,6.0,0.0
4091,73.0,80.0,60.0,6.0,0.0
4092,56.0,0.0,210.0,5.0,0.0
4093,44.0,16.0,210.0,5.0,0.0
4094,61.0,36.0,60.0,6.0,0.0
4095,71.0,0.0,210.0,2.0,0.0
4096,77.0,0.0,120.0,6.0,0.0
4097,77.0,0.0,210.0,1.0,0.0
4098,71.0,0.0,210.0,3.0,0.0
4099,77.0,0.0,210.0,0.0,0.0
4100,68.0,0.0,210.0,4.0,0.0
4101,56.0,44.0,120.0,10.0,0.0
4102,68.0,64.0,60.0,6.0,0.0
4103,71.0,80.0,60.0,6.0,0.0
4104,57.0,44.0,120.0,10.0,0.0
4105,69.0,16.0,210.0,2.0,0.0
4106,78.0,0.0,210.0,0.0,0.0
4107,78.0,24.0,420.0,1.0,0.0
4108,73.0,0.0,210.0,3.0,0.0
4109,54.0,0.0,210.0,5.0,0.0
4110,61.0,0.0,210.0,4.0,0.0
4111,78.0,0.0,120.0,6.0,0.0
4112,66.0,36.0,60.0,6.0,0.0
4113,42.0,0.0,210.0,5.0,0.0
4114,68.0,64.0,60.0,6.0,0.0
4115,69.0,80.0,60.0,6.0,0.0
4116,71.0,36.0,60.0,6.0,0.0
4117,50.0,0.0,420.0,5.0,0.0
4118,66.0,0.0,210.0,3.0,0.0
4119,62.0,0.0,210.0,4.0,0.0
4120,71.0,24.0,420.0,2.0,0.0
4121,62.0,0.0,420.0,5.0,0.0
4122,62.0,44.0,120.0,10.0,0.0
4123,90.0,16.0,210.0,0.0,0.0
4124,73.0,40.0,60.0,6.0,0.0
4125,74.0,80.0,60.0,6.0,0.0
4126,80.0,16.0,210.0,0.0,0.0
4127,64.0,24.0,420.0,4.0,0.0
4128,68.0,0.0,210.0,3.0,0.0
4129,64.0,36.0,60.0,6.0,0.0
4130,62.0,44.0,120.0,10.0,0.0
4131,80.0,0.0,60.0,6.0,0.0
4132,76.0,0.0,420.0,1.0,0.0
4133,66.0,0.0,60.0,6.0,0.0
4134,81.0,40.0,60.0,6.0,0.0
4135,83.0,0.0,60.0,6.0,0.0
4136,68.0,80.0,60.0,6.0,0.0
4137,69.0,0.0,450.0,2.0,0.0
4138,69.0,0.0,450.0,3.0,0.0
4139,61.0,44.0,120.0,10.0,0.0
4140,61.0,0.0,450.0,5.0,0.0
4141,88.0,16.0,210.0,0.0,0.0
4142,49.0,0.0,450.0,5.0,0.0
4143,85.0,0.0,60.0,6.0,0.0
4144,69.0,36.0,60.0,6.0,0.0
4145,86.0,0.0,60.0,6.0,0.0
4146,71.0,40.0,60.0,6.0,0.0
4147,73.0,80.0,60.0,6.0,0.0
4148,88.0,0.0,60.0,6.0,0.0
4149,61.0,44.0,120.0,10.0,0.0
4150,78.0,0.0,60.0,6.0,0.0
4151,62.0,36.0,60.0,6.0,0.0
4152,78.0,0.0,210.0,0.0,0.0
4153,66.0,16.0,210.0,4.0,0.0
4154,74.0,24.0,420.0,1.0,0.0
4155,80.0,0.0,60.0,6.0,0.0
4156,64.0,64.0,60.0,6.0,0.0
4157,81.0,0.0,60.0,6.0,0.0
4158,66.0,80.0,60.0,6.0,0.0
4159,86.0,0.0,210.0,0.0,0.0
4160,68.0,36.0,60.0,6.0,0.0
4161,62.0,16.0,210.0,3.0,0.0
4162,68.0,0.0,420.0,2.0,0.0
4163,59.0,44.0,120.0,10.0,0.0
4164,59.0,0.0,420.0,5.0,0.0
4165,83.0,0.0,60.0,6.0,0.0
4166,68.0,0.0,210.0,4.0,0.0
4167,47.0,24.0,420.0,5.0,0.0
4168,85.0,0.0,60.0,6.0,0.0
4169,69.0,40.0,60.0,6.0,0.0
4170,86.0,0.0,60.0,6.0,0.0
4171,71.0,80.0,60.0,6.0,0.0
4172,85.0,0.0,600.0,6.0,0.0
4173,68.0,0.0,420.0,3.0,0.0
4174,73.0,0.0,420.0,1.0,0.0
4175,77.0,24.0,420.0,0.0,0.0
4176,61.0,16.0,210.0,4.0,0.0
4177,61.0,36.0,60.0,6.0,0.0
4178,59.0,44.0,120.0,10.0,0.0
4179,65.0,40.0,60.0,6.0,0.0
4180,68.0,80.0,60.0,6.0,0.0
4181,57.0,0.0,120.0,5.0,0.0
4182,61.0,12.0,210.0,2.0,0.0
4183,71.0,36.0,60.0,6.0,0.0
4184,68.0,0.0,210.0,4.0,0.0
4185,45.0,44.0,120.0,5.0,0.0
4186,68.0,40.0,60.0,6.0,0.0
4187,44.0,4.0,120.0,5.0,0.0
4188,56.0,0.0,120.0,5.0,0.0
4189,65.0,80.0,60.0,6.0,0.0
4190,57.0,0.0,210.0,5.0,0.0
4191,57.0,44.0,120.0,10.0,0.0
4192,69.0,0.0,210.0,3.0,0.0
4193,66.0,16.0,210.0,4.0,0.0
4194,45.0,0.0,210.0,5.0,0.0
4195,61.0,36.0,60.0,6.0,0.0
4196,66.0,0.0,210.0,2.0,0.0
4197,73.0,8.0,870.0,1.0,0.0
4198,78.0,0.0,1170.0,0.0,0.0
4199,66.0,64.0,60.0,6.0,0.0
4200,68.0,80.0,60.0,6.0,0.0
4201,78.0,40.0,420.0,2.0,0.0
4202,54.0,0.0,210.0,5.0,0.0
4203,69.0,36.0,60.0,6.0,0.0
4204,42.0,0.0,210.0,5.0,0.0
4205,73.0,0.0,420.0,3.0,0.0
4206,69.0,16.0,210.0,4.0,0.0
4207,54.0,44.0,120.0,10.0,0.0
4208,73.0,48.0,660.0,6.0,0.0
4209,68.0,64.0,60.0,6.0,0.0
4210,66.0,80.0,60.0,6.0,0.0
4211,70.0,36.0,60.0,6.0,0.0
4212,52.0,44.0,120.0,10.0,0.0
4213,70.0,30.0,150.0,4.0,0.0
4214,67.0,10.0,60.0,6.0,0.0
4215,66.0,2.0,60.0,6.0,0.0
4216,71.0,78.0,60.0,4.0,0.0
4217,76.0,0.0,210.0,2.0,0.0
4218,66.0,16.0,450.0,3.0,0.0
4219,46.0,0.0,210.0,5.0,0.0
4220,58.0,36.0,120.0,10.0,0.0
4221,64.0,36.0,60.0,6.0,0.0
4222,58.0,0.0,210.0,5.0,0.0
4223,73.0,16.0,210.0,4.0,0.0
4224,62.0,16.0,60.0,6.0,0.0
4225,61.0,80.0,60.0,6.0,0.0
4226,71.0,0.0,120.0,6.0,0.0
4227,47.0,0.0,210.0,5.0,0.0
4228,66.0,0.0,210.0,4.0,0.0
4229,59.0,36.0,60.0,10.0,0.0
4230,71.0,0.0,210.0,1.0,0.0
4231,74.0,0.0,210.0,2.0,0.0
4232,59.0,0.0,210.0,5.0,0.0
4233,62.0,0.0,30.0,10.0,0.0
4234,66.0,80.0,60.0,10.0,0.0
4235,64.0,16.0,210.0,3.0,0.0
4236,76.0,0.0,210.0,1.0,0.0
4237,43.0,0.0,210.0,5.0,0.0
4238,55.0,0.0,210.0,5.0,0.0
4239,85.0,44.0,120.0,6.0,0.0
4240,58.0,36.0,60.0,10.0,0.0
4241,67.0,0.0,210.0,4.0,0.0
4242,85.0,0.0,210.0,0.0,0.0
4243,76.0,0.0,120.0,6.0,0.0
4244,64.0,64.0,60.0,10.0,0.0
4245,67.0,80.0,60.0,10.0,0.0
4246,83.0,0.0,210.0,0.0,0.0
4247,74.0,0.0,120.0,6.0,0.0
4248,59.0,36.0,60.0,10.0,0.0
4249,74.0,0.0,210.0,1.0,0.0
4250,67.0,16.0,210.0,3.0,0.0
4251,40.0,0.0,210.0,5.0,0.0
4252,83.0,44.0,120.0,6.0,0.0
4253,52.0,0.0,210.0,5.0,0.0
4254,71.0,0.0,210.0,4.0,0.0
4255,62.0,64.0,60.0,10.0,0.0
4256,66.0,80.0,60.0,10.0,0.0
4257,82.0,0.0,210.0,0.0,0.0
4258,66.0,0.0,210.0,4.0,0.0
4259,61.0,0.0,210.0,3.0,0.0
4260,73.0,44.0,120.0,6.0,0.0
4261,73.0,16.0,210.0,1.0,0.0
4262,54.0,0.0,210.0,5.0,0.0
4263,82.0,0.0,120.0,6.0,0.0
4264,42.0,0.0,210.0,5.0,0.0
4265,76.0,0.0,210.0,2.0,0.0
4266,54.0,36.0,60.0,10.0,0.0
4267,61.0,64.0,60.0,10.0,0.0
4268,64.0,80.0,60.0,10.0,0.0
4269,35.0,0.0,210.0,5.0,0.0
4270,47.0,0.0,210.0,5.0,0.0
4271,83.0,44.0,120.0,6.0,0.0
4272,74.0,80.0,300.0,6.0,0.0
4273,66.0,0.0,210.0,4.0,0.0
4274,62.0,0.0,210.0,3.0,0.0
4275,83.0,0.0,210.0,0.0,0.0
4276,74.0,16.0,210.0,2.0,0.0
4277,71.0,0.0,210.0,1.0,0.0
4278,59.0,36.0,60.0,10.0,0.0
4279,61.0,64.0,60.0,10.0,0.0
4280,62.0,80.0,60.0,10.0,0.0
4281,79.0,80.0,300.0,6.0,0.0
4282,64.0,0.0,60.0,10.0,0.0
4283,66.0,0.0,60.0,10.0,0.0
4284,73.0,80.0,60.0,6.0,0.0
4285,71.0,0.0,60.0,6.0,0.0
4286,67.0,80.0,60.0,10.0,0.0
4287,57.0,0.0,60.0,10.0,0.0
4288,73.0,0.0,300.0,6.0,0.0
4289,59.0,80.0,60.0,10.0,0.0
4290,78.0,0.0,60.0,6.0,0.0
4291,77.0,80.0,60.0,6.0,0.0
4292,61.0,0.0,60.0,10.0,0.0
4293,78.0,0.0,300.0,6.0,0.0
4294,62.0,80.0,60.0,10.0,0.0
4295,64.0,80.0,60.0,10.0,0.0
4296,71.0,0.0,60.0,6.0,0.0
4297,70.0,80.0,60.0,6.0,0.0
4298,66.0,0.0,60.0,10.0,0.0
4299,71.0,16.0,210.0,2.0,0.0
4300,56.0,80.0,60.0,10.0,0.0
4301,71.0,0.0,300.0,6.0,0.0
4302,76.0,64.0,60.0,6.0,0.0
4303,58.0,0.0,60.0,10.0,0.0
4304,75.0,0.0,60.0,6.0,0.0
4305,59.0,80.0,60.0,10.0,0.0
4306,79.0,16.0,210.0,2.0,0.0
4307,76.0,0.0,360.0,6.0,0.0
4308,61.0,80.0,60.0,10.0,0.0
4309,62.0,64.0,60.0,10.0,0.0
4310,70.0,0.0,60.0,6.0,0.0
4311,68.0,80.0,60.0,6.0,0.0
4312,64.0,0.0,60.0,10.0,0.0
4313,70.0,44.0,120.0,6.0,0.0
4314,54.0,36.0,60.0,10.0,0.0
4315,78.0,16.0,210.0,2.0,0.0
4316,66.0,0.0,210.0,3.0,0.0
4317,58.0,64.0,60.0,10.0,0.0
4318,61.0,80.0,60.0,10.0,0.0
4319,64.0,36.0,60.0,10.0,0.0
4320,42.0,16.0,210.0,5.0,0.0
4321,76.0,0.0,210.0,2.0,0.0
4322,70.0,44.0,120.0,6.0,0.0
4323,73.0,0.0,120.0,6.0,0.0
4324,30.0,0.0,210.0,5.0,0.0
4325,73.0,0.0,210.0,3.0,0.0
4326,61.0,64.0,60.0,10.0,0.0
4327,58.0,80.0,60.0,10.0,0.0
4328,54.0,36.0,60.0,10.0,0.0
4329,74.0,16.0,210.0,2.0,0.0
4330,71.0,0.0,210.0,3.0,0.0
4331,54.0,0.0,210.0,4.0,0.0
4332,71.0,44.0,120.0,6.0,0.0
4333,35.0,0.0,210.0,5.0,0.0
4334,74.0,0.0,120.0,6.0,0.0
4335,47.0,0.0,210.0,5.0,0.0
4336,59.0,64.0,60.0,10.0,0.0
4337,61.0,80.0,60.0,10.0,0.0
4338,62.0,36.0,60.0,10.0,0.0
4339,66.0,16.0,210.0,3.0,0.0
4340,71.0,0.0,210.0,2.0,0.0
4341,71.0,44.0,120.0,6.0,0.0
4342,78.0,0.0,120.0,6.0,0.0
4343,62.0,0.0,210.0,4.0,0.0
4344,61.0,64.0,60.0,10.0,0.0
4345,59.0,80.0,60.0,10.0,0.0
4346,71.0,80.0,1020.0,6.0,0.0
4347,61.0,0.0,210.0,4.0,0.0
4348,65.0,80.0,60.0,10.0,0.0
4349,65.0,0.0,210.0,2.0,0.0
4350,73.0,16.0,210.0,3.0,0.0
4351,80.0,80.0,540.0,6.0,0.0
4352,62.0,64.0,60.0,10.0,0.0
4353,61.0,80.0,60.0,10.0,0.0
4354,37.0,0.0,210.0,5.0,0.0
4355,59.0,0.0,210.0,4.0,0.0
4356,68.0,16.0,210.0,2.0,0.0
4357,65.0,0.0,210.0,3.0,0.0
4358,49.0,0.0,210.0,5.0,0.0
4359,59.0,80.0,60.0,10.0,0.0
4360,57.0,64.0,60.0,10.0,0.0
4361,56.0,80.0,60.0,10.0,0.0
4362,57.0,0.0,210.0,4.0,0.0
4363,54.0,0.0,210.0,5.0,0.0
4364,57.0,80.0,1020.0,10.0,0.0
4365,61.0,16.0,210.0,2.0,0.0
4366,42.0,0.0,210.0,5.0,0.0
4367,66.0,0.0,210.0,3.0,0.0
4368,80.0,64.0,60.0,6.0,0.0
4369,78.0,80.0,60.0,6.0,0.0
4370,77.0,80.0,60.0,6.0,0.0
4371,75.0,80.0,60.0,6.0,0.0
4372,73.0,80.0,60.0,6.0,0.0
4373,78.0,80.0,1500.0,6.0,0.0
4374,73.0,40.0,420.0,1.0,0.0
4375,73.0,80.0,60.0,6.0,0.0
4376,71.0,80.0,60.0,6.0,0.0
4377,69.0,80.0,60.0,6.0,0.0
4378,68.0,40.0,60.0,6.0,0.0
4379,66.0,80.0,60.0,6.0,0.0
4380,72.0,16.0,210.0,1.0,0.0
4381,75.0,80.0,540.0,6.0,0.0
4382,54.0,64.0,60.0,10.0,0.0
4383,52.0,80.0,60.0,10.0,0.0
4384,75.0,16.0,210.0,1.0,0.0
4385,51.0,80.0,60.0,10.0,0.0
4386,49.0,64.0,60.0,10.0,0.0
4387,48.0,80.0,60.0,10.0,0.0
4388,68.0,16.0,210.0,1.0,0.0
4389,52.0,80.0,1020.0,10.0,0.0
4390,75.0,64.0,60.0,6.0,0.0
4391,73.0,80.0,60.0,6.0,0.0
4392,72.0,16.0,210.0,1.0,0.0
4393,72.0,80.0,60.0,6.0,0.0
4394,70.0,64.0,60.0,6.0,0.0
4395,68.0,80.0,60.0,6.0,0.0
4396,73.0,16.0,210.0,1.0,0.0
4397,80.0,64.0,60.0,6.0,0.0
4398,78.0,80.0,60.0,6.0,0.0
4399,68.0,16.0,210.0,1.0,0.0
4400,76.0,80.0,60.0,6.0,0.0
4401,75.0,64.0,60.0,6.0,0.0
4402,73.0,0.0,60.0,6.0,0.0
4403,88.0,24.0,420.0,0.0,0.0
4404,79.0,80.0,540.0,6.0,0.0
4405,64.0,16.0,210.0,1.0,0.0
4406,55.0,64.0,60.0,10.0,0.0
4407,54.0,80.0,60.0,10.0,0.0
4408,52.0,80.0,60.0,10.0,0.0
4409,61.0,16.0,210.0,1.0,0.0
4410,50.0,40.0,60.0,10.0,0.0
4411,49.0,80.0,60.0,10.0,0.0
4412,64.0,0.0,210.0,1.0,0.0
4413,85.0,16.0,210.0,0.0,0.0
4414,58.0,80.0,1020.0,10.0,0.0
4415,79.0,64.0,60.0,6.0,0.0
4416,78.0,80.0,60.0,6.0,0.0
4417,67.0,16.0,210.0,1.0,0.0
4418,76.0,80.0,60.0,6.0,0.0
4419,88.0,0.0,210.0,0.0,0.0
4420,74.0,64.0,60.0,6.0,0.0
4421,73.0,160.0,60.0,6.0,0.0
4422,66.0,0.0,210.0,1.0,0.0
4423,82.0,16.0,210.0,0.0,0.0
4424,73.0,64.0,60.0,6.0,0.0
4425,71.0,80.0,60.0,6.0,0.0
4426,85.0,0.0,210.0,0.0,0.0
4427,70.0,80.0,60.0,6.0,0.0
4428,78.0,16.0,210.0,1.0,0.0
4429,68.0,64.0,60.0,6.0,0.0
4430,66.0,80.0,60.0,6.0,0.0
4431,76.0,80.0,540.0,6.0,0.0
4432,85.0,48.0,660.0,1.0,0.0
4433,78.0,16.0,210.0,0.0,0.0
4434,61.0,64.0,60.0,10.0,0.0
4435,59.0,80.0,60.0,10.0,0.0
4436,58.0,80.0,60.0,10.0,0.0
4437,66.0,16.0,210.0,0.0,0.0
4438,56.0,64.0,60.0,10.0,0.0
4439,54.0,80.0,60.0,10.0,0.0
4440,78.0,16.0,210.0,0.0,0.0
4441,59.0,80.0,540.0,10.0,0.0
4442,78.0,0.0,60.0,6.0,0.0
4443,76.0,80.0,60.0,6.0,0.0
4444,80.0,16.0,210.0,0.0,0.0
4445,83.0,54.0,150.0,1.0,0.0
4446,74.0,80.0,60.0,6.0,0.0
4447,73.0,10.0,60.0,6.0,0.0
4448,71.0,2.0,60.0,6.0,0.0
4449,81.0,78.0,60.0,1.0,0.0
4450,73.0,80.0,540.0,6.0,0.0
4451,80.0,16.0,210.0,1.0,0.0
4452,77.0,0.0,210.0,6.0,0.0
4453,73.0,40.0,420.0,0.0,0.0
4454,61.0,64.0,60.0,10.0,0.0
4455,59.0,80.0,60.0,10.0,0.0
4456,57.0,80.0,60.0,10.0,0.0
4457,78.0,0.0,840.0,6.0,0.0
4458,81.0,40.0,420.0,1.0,0.0
4459,56.0,40.0,60.0,10.0,0.0
4460,54.0,80.0,60.0,10.0,0.0
4461,78.0,16.0,690.0,0.0,0.0
4462,62.0,24.0,420.0,10.0,0.0
4463,74.0,40.0,60.0,6.0,0.0
4464,73.0,80.0,60.0,6.0,0.0
4465,83.0,16.0,210.0,1.0,0.0
4466,71.0,80.0,60.0,6.0,0.0
4467,69.0,40.0,60.0,6.0,0.0
4468,68.0,80.0,60.0,6.0,0.0
4469,85.0,24.0,420.0,1.0,0.0
4470,69.0,44.0,120.0,6.0,0.0
4471,61.0,36.0,60.0,10.0,0.0
4472,62.0,64.0,60.0,10.0,0.0
4473,61.0,80.0,60.0,10.0,0.0
4474,59.0,36.0,60.0,10.0,0.0
4475,77.0,16.0,210.0,0.0,0.0
4476,77.0,0.0,120.0,6.0,0.0
4477,68.0,44.0,120.0,6.0,0.0
4478,57.0,40.0,60.0,10.0,0.0
4479,56.0,80.0,60.0,10.0,0.0
4480,85.0,80.0,60.0,6.0,0.0
4481,57.0,0.0,60.0,10.0,0.0
4482,59.0,80.0,60.0,10.0,0.0
4483,86.0,0.0,60.0,6.0,0.0
4484,57.0,80.0,60.0,10.0,0.0
4485,85.0,0.0,60.0,6.0,0.0
4486,56.0,0.0,60.0,10.0,0.0
4487,83.0,80.0,60.0,6.0,0.0
4488,81.0,0.0,60.0,6.0,0.0
4489,54.0,80.0,60.0,10.0,0.0
4490,80.0,0.0,60.0,6.0,0.0
4491,53.0,80.0,60.0,10.0,0.0
4492,54.0,70.0,150.0,10.0,0.0
4493,81.0,80.0,60.0,6.0,0.0
4494,83.0,10.0,60.0,6.0,0.0
4495,81.0,2.0,60.0,6.0,0.0
4496,62.0,78.0,60.0,10.0,0.0
4497,52.0,70.0,150.0,10.0,0.0
4498,80.0,80.0,60.0,6.0,0.0
4499,78.0,10.0,60.0,6.0,0.0
4500,76.0,2.0,60.0,6.0,0.0
4501,61.0,78.0,60.0,10.0,0.0
4502,78.0,80.0,60.0,6.0,0.0
4503,50.0,70.0,150.0,10.0,0.0
4504,79.0,10.0,60.0,6.0,0.0
4505,78.0,2.0,60.0,6.0,0.0
4506,59.0,78.0,60.0,10.0,0.0
4507,49.0,70.0,150.0,10.0,0.0
4508,76.0,80.0,60.0,6.0,0.0
4509,74.0,10.0,60.0,6.0,0.0
4510,73.0,2.0,60.0,6.0,0.0
4511,57.0,78.0,60.0,10.0,0.0
4512,74.0,80.0,60.0,6.0,0.0
4513,47.0,70.0,150.0,10.0,0.0
4514,76.0,10.0,60.0,6.0,0.0
4515,74.0,2.0,60.0,6.0,0.0
4516,56.0,78.0,60.0,10.0,0.0
4517,45.0,0.0,60.0,10.0,0.0
4518,73.0,80.0,60.0,6.0,0.0
4519,76.0,0.0,60.0,6.0,0.0
4520,57.0,80.0,60.0,10.0,0.0
4521,81.0,0.0,60.0,6.0,0.0
4522,61.0,80.0,60.0,10.0,0.0
4523,71.0,0.0,60.0,6.0,0.0
4524,52.0,80.0,60.0,10.0,0.0
4525,76.0,80.0,60.0,6.0,0.0
4526,56.0,0.0,60.0,10.0,0.0
4527,78.0,80.0,60.0,6.0,0.0
4528,57.0,0.0,60.0,10.0,0.0
4529,80.0,0.0,60.0,6.0,0.0
4530,59.0,80.0,60.0,10.0,0.0
4531,61.0,80.0,60.0,10.0,0.0
4532,81.0,0.0,60.0,6.0,0.0
4533,62.0,0.0,60.0,10.0,0.0
4534,83.0,80.0,60.0,6.0,0.0
4535,84.0,0.0,120.0,2.0,0.0
4536,51.0,0.0,120.0,10.0,0.0
4537,54.0,0.0,120.0,8.0,0.0
4538,84.0,36.0,60.0,6.0,0.0
4539,57.0,0.0,120.0,8.0,0.0
4540,51.0,44.0,120.0,5.0,0.0
4541,78.0,0.0,120.0,3.0,0.0
4542,39.0,0.0,120.0,5.0,0.0
4543,69.0,0.0,120.0,4.0,0.0
4544,78.0,80.0,60.0,6.0,0.0
4545,80.0,80.0,60.0,6.0,0.0
4546,81.0,0.0,60.0,6.0,0.0
4547,60.0,80.0,60.0,4.0,0.0
4548,80.0,0.0,60.0,6.0,0.0
4549,59.0,80.0,60.0,4.0,0.0
4550,78.0,80.0,60.0,6.0,0.0
4551,57.0,0.0,60.0,4.0,0.0
4552,60.0,0.0,120.0,8.0,0.0
4553,52.0,0.0,120.0,5.0,0.0
4554,52.0,0.0,120.0,10.0,0.0
4555,76.0,36.0,60.0,6.0,0.0
4556,76.0,0.0,120.0,3.0,0.0
4557,57.0,0.0,120.0,8.0,0.0
4558,84.0,0.0,120.0,2.0,0.0
4559,40.0,0.0,120.0,5.0,0.0
4560,69.0,44.0,120.0,4.0,0.0
4561,81.0,80.0,60.0,6.0,0.0
4562,83.0,80.0,60.0,6.0,0.0
4563,84.0,16.0,210.0,0.0,0.0
4564,76.0,0.0,210.0,1.0,0.0
4565,84.0,80.0,60.0,6.0,0.0
4566,64.0,0.0,60.0,3.0,0.0
4567,62.0,0.0,60.0,3.0,0.0
4568,83.0,64.0,60.0,6.0,0.0
4569,81.0,80.0,60.0,6.0,0.0
4570,60.0,0.0,60.0,3.0,0.0
4571,68.0,16.0,210.0,1.0,0.0
4572,56.0,44.0,120.0,8.0,0.0
4573,83.0,36.0,60.0,6.0,0.0
4574,62.0,0.0,120.0,4.0,0.0
4575,53.0,0.0,120.0,5.0,0.0
4576,74.0,0.0,210.0,0.0,0.0
4577,68.0,0.0,120.0,3.0,0.0
4578,83.0,0.0,120.0,2.0,0.0
4579,62.0,0.0,120.0,8.0,0.0
4580,53.0,0.0,120.0,10.0,0.0
4581,41.0,0.0,120.0,5.0,0.0
4582,74.0,64.0,60.0,6.0,0.0
4583,76.0,80.0,60.0,6.0,0.0
4584,74.0,16.0,210.0,1.0,0.0
4585,74.0,0.0,60.0,2.0,0.0
4586,83.0,0.0,210.0,0.0,0.0
4587,77.0,80.0,60.0,6.0,0.0
4588,72.0,0.0,60.0,2.0,0.0
4589,76.0,64.0,60.0,6.0,0.0
4590,71.0,80.0,60.0,2.0,0.0
4591,74.0,0.0,60.0,6.0,0.0
4592,72.0,36.0,60.0,6.0,0.0
4593,63.0,0.0,210.0,1.0,0.0
4594,63.0,0.0,120.0,4.0,0.0
4595,81.0,44.0,120.0,2.0,0.0
4596,42.0,0.0,120.0,5.0,0.0
4597,72.0,16.0,210.0,0.0,0.0
4598,54.0,0.0,120.0,10.0,0.0
4599,54.0,0.0,120.0,5.0,0.0
4600,57.0,0.0,120.0,8.0,0.0
4601,72.0,0.0,120.0,3.0,0.0
4602,63.0,0.0,120.0,8.0,0.0
4603,78.0,64.0,60.0,6.0,0.0
4604,80.0,80.0,60.0,6.0,0.0
4605,72.0,0.0,60.0,1.0,0.0
4606,81.0,0.0,60.0,0.0,0.0
4607,81.0,80.0,60.0,6.0,0.0
4608,83.0,80.0,60.0,0.0,0.0
4609,80.0,0.0,60.0,6.0,0.0
4610,71.0,0.0,60.0,1.0,0.0
4611,69.0,0.0,60.0,1.0,0.0
4612,78.0,80.0,60.0,6.0,0.0
4613,84.0,0.0,60.0,0.0,0.0
4614,80.0,0.0,210.0,0.0,0.0
4615,40.0,0.0,120.0,5.0,0.0
4616,80.0,36.0,60.0,6.0,0.0
4617,80.0,44.0,120.0,2.0,0.0
4618,59.0,0.0,120.0,8.0,0.0
4619,52.0,0.0,120.0,5.0,0.0
4620,64.0,0.0,120.0,4.0,0.0
4621,71.0,0.0,120.0,3.0,0.0
4622,76.0,16.0,210.0,1.0,0.0
4623,52.0,0.0,120.0,10.0,0.0
4624,64.0,0.0,120.0,8.0,0.0
4625,71.0,64.0,60.0,6.0,0.0
4626,72.0,80.0,60.0,6.0,0.0
4627,56.0,44.0,120.0,4.0,0.0
4628,59.0,0.0,120.0,3.0,0.0
4629,64.0,0.0,120.0,2.0,0.0
4630,74.0,36.0,60.0,6.0,0.0
4631,72.0,80.0,60.0,6.0,0.0
4632,71.0,80.0,60.0,6.0,0.0
4633,59.0,0.0,120.0,4.0,0.0
4634,62.0,44.0,120.0,3.0,0.0
4635,77.0,36.0,60.0,6.0,0.0
4636,68.0,0.0,120.0,2.0,0.0
4637,74.0,80.0,60.0,6.0,0.0
4638,71.0,80.0,60.0,6.0,0.0
4639,62.0,0.0,120.0,4.0,0.0
4640,68.0,36.0,60.0,6.0,0.0
4641,71.0,8.0,120.0,2.0,0.0
4642,68.0,0.0,120.0,3.0,0.0
4643,71.0,40.0,30.0,6.0,0.0
4644,69.0,40.0,30.0,6.0,0.0
4645,68.0,40.0,30.0,6.0,0.0
4646,66.0,76.0,30.0,6.0,0.0
4647,71.0,0.0,870.0,3.0,0.0
4648,68.0,0.0,870.0,4.0,0.0
4649,74.0,12.0,870.0,2.0,0.0
4650,64.0,80.0,60.0,6.0,0.0
4651,68.0,80.0,60.0,6.0,0.0
4652,64.0,80.0,60.0,6.0,0.0
4653,59.0,44.0,120.0,5.0,0.0
4654,47.0,0.0,120.0,5.0,0.0
4655,59.0,36.0,60.0,10.0,0.0
4656,64.0,80.0,60.0,10.0,0.0
4657,59.0,80.0,60.0,10.0,0.0
4658,44.0,8.0,120.0,5.0,0.0
4659,56.0,36.0,60.0,10.0,0.0
4660,56.0,0.0,120.0,5.0,0.0
4661,59.0,40.0,30.0,10.0,0.0
4662,57.0,40.0,30.0,10.0,0.0
4663,56.0,40.0,30.0,10.0,0.0
4664,54.0,76.0,30.0,10.0,0.0
4665,52.0,36.0,60.0,10.0,0.0
4666,40.0,0.0,120.0,5.0,0.0
4667,52.0,8.0,120.0,5.0,0.0
4668,56.0,28.0,30.0,10.0,0.0
4669,54.0,40.0,30.0,10.0,0.0
4670,52.0,40.0,30.0,10.0,0.0
4671,50.0,76.0,30.0,10.0,0.0
4672,64.0,0.0,120.0,4.0,0.0
4673,76.0,0.0,120.0,2.0,0.0
4674,37.0,0.0,120.0,5.0,0.0
4675,49.0,0.0,120.0,10.0,0.0
4676,69.0,36.0,60.0,6.0,0.0
4677,69.0,44.0,120.0,3.0,0.0
4678,49.0,0.0,120.0,5.0,0.0
4679,73.0,80.0,60.0,6.0,0.0
4680,76.0,80.0,60.0,6.0,0.0
4681,74.0,16.0,210.0,1.0,0.0
4682,78.0,0.0,210.0,0.0,0.0
4683,47.0,44.0,120.0,10.0,0.0
4684,68.0,36.0,60.0,6.0,0.0
4685,74.0,64.0,60.0,6.0,0.0
4686,78.0,80.0,60.0,6.0,0.0
4687,76.0,16.0,210.0,0.0,0.0
4688,69.0,36.0,60.0,6.0,0.0
4689,73.0,0.0,210.0,1.0,0.0
4690,49.0,44.0,120.0,10.0,0.0
4691,73.0,64.0,60.0,6.0,0.0
4692,76.0,80.0,60.0,6.0,0.0
4693,52.0,0.0,120.0,5.0,0.0
4694,64.0,36.0,60.0,6.0,0.0
4695,74.0,44.0,120.0,2.0,0.0
4696,68.0,0.0,120.0,4.0,0.0
4697,40.0,0.0,120.0,5.0,0.0
4698,71.0,0.0,120.0,3.0,0.0
4699,44.0,0.0,120.0,10.0,0.0
4700,71.0,80.0,60.0,6.0,0.0
4701,74.0,80.0,60.0,6.0,0.0
4702,73.0,0.0,120.0,2.0,0.0
4703,57.0,0.0,120.0,5.0,0.0
4704,69.0,0.0,120.0,3.0,0.0
4705,64.0,0.0,120.0,4.0,0.0
4706,45.0,0.0,120.0,5.0,0.0
4707,73.0,44.0,120.0,6.0,0.0
4708,57.0,36.0,60.0,10.0,0.0
4709,61.0,80.0,60.0,10.0,0.0
4710,64.0,80.0,60.0,10.0,0.0
4711,71.0,16.0,210.0,1.0,0.0
4712,71.0,44.0,120.0,6.0,0.0
4713,56.0,36.0,60.0,10.0,0.0
4714,74.0,0.0,210.0,0.0,0.0
4715,62.0,64.0,60.0,10.0,0.0
4716,66.0,80.0,60.0,10.0,0.0
4717,73.0,44.0,120.0,6.0,0.0
4718,69.0,0.0,210.0,1.0,0.0
4719,57.0,36.0,60.0,10.0,0.0
4720,73.0,16.0,210.0,0.0,0.0
4721,61.0,64.0,60.0,10.0,0.0
4722,64.0,80.0,60.0,10.0,0.0
4723,68.0,44.0,120.0,3.0,0.0
4724,49.0,0.0,120.0,5.0,0.0
4725,68.0,0.0,120.0,6.0,0.0
4726,65.0,0.0,120.0,4.0,0.0
4727,37.0,0.0,120.0,5.0,0.0
4728,71.0,0.0,120.0,2.0,0.0
4729,53.0,36.0,60.0,10.0,0.0
4730,59.0,80.0,60.0,10.0,0.0
4731,62.0,80.0,60.0,10.0,0.0
4732,42.0,0.0,120.0,5.0,0.0
4733,69.0,0.0,120.0,2.0,0.0
4734,54.0,0.0,120.0,5.0,0.0
4735,78.0,0.0,120.0,6.0,0.0
4736,69.0,44.0,120.0,6.0,0.0
4737,66.0,0.0,120.0,3.0,0.0
4738,61.0,0.0,120.0,4.0,0.0
4739,54.0,36.0,60.0,10.0,0.0
4740,57.0,80.0,60.0,10.0,0.0
4741,61.0,80.0,60.0,10.0,0.0
4742,71.0,16.0,210.0,0.0,0.0
4743,80.0,0.0,120.0,6.0,0.0
4744,68.0,0.0,210.0,1.0,0.0
4745,71.0,44.0,120.0,6.0,0.0
4746,53.0,36.0,60.0,10.0,0.0
4747,59.0,64.0,60.0,10.0,0.0
4748,62.0,80.0,60.0,10.0,0.0
4749,78.0,44.0,120.0,6.0,0.0
4750,69.0,0.0,120.0,6.0,0.0
4751,54.0,36.0,60.0,10.0,0.0
4752,61.0,0.0,210.0,1.0,0.0
4753,69.0,16.0,210.0,0.0,0.0
4754,57.0,64.0,60.0,10.0,0.0
4755,61.0,80.0,60.0,10.0,0.0
4756,68.0,0.0,120.0,2.0,0.0
4757,59.0,0.0,120.0,4.0,0.0
4758,49.0,44.0,120.0,5.0,0.0
4759,68.0,0.0,120.0,6.0,0.0
4760,77.0,0.0,120.0,6.0,0.0
4761,65.0,0.0,120.0,3.0,0.0
4762,49.0,36.0,60.0,10.0,0.0
4763,37.0,0.0,120.0,5.0,0.0
4764,56.0,80.0,60.0,10.0,0.0
4765,59.0,80.0,60.0,10.0,0.0
4766,50.0,36.0,60.0,10.0,0.0
4767,57.0,44.0,120.0,4.0,0.0
4768,66.0,0.0,60.0,6.0,0.0
4769,66.0,0.0,120.0,3.0,0.0
4770,66.0,0.0,120.0,2.0,0.0
4771,38.0,0.0,120.0,5.0,0.0
4772,50.0,0.0,120.0,5.0,0.0
4773,69.0,0.0,60.0,6.0,0.0
4774,54.0,80.0,60.0,10.0,0.0
4775,73.0,80.0,60.0,6.0,0.0
4776,57.0,0.0,60.0,10.0,0.0
4777,51.0,44.0,60.0,10.0,0.0
4778,69.0,16.0,210.0,0.0,0.0
4779,66.0,0.0,210.0,1.0,0.0
4780,78.0,0.0,60.0,6.0,0.0
4781,71.0,36.0,30.0,6.0,0.0
4782,54.0,4.0,60.0,10.0,0.0
4783,69.0,40.0,30.0,6.0,0.0
4784,68.0,20.0,30.0,6.0,0.0
4785,59.0,4.0,60.0,10.0,0.0
4786,66.0,76.0,30.0,6.0,0.0
4787,52.0,80.0,60.0,10.0,0.0
4788,59.0,16.0,210.0,1.0,0.0
4789,68.0,0.0,60.0,6.0,0.0
4790,68.0,0.0,210.0,0.0,0.0
4791,71.0,64.0,60.0,6.0,0.0
4792,56.0,0.0,60.0,10.0,0.0
4793,74.0,0.0,60.0,6.0,0.0
4794,59.0,80.0,60.0,10.0,0.0
4795,80.0,36.0,60.0,6.0,0.0
4796,68.0,8.0,120.0,3.0,0.0
4797,53.0,0.0,120.0,5.0,0.0
4798,71.0,0.0,120.0,2.0,0.0
4799,41.0,0.0,120.0,5.0,0.0
4800,61.0,0.0,120.0,4.0,0.0
4801,53.0,0.0,60.0,10.0,0.0
4802,56.0,4.0,60.0,10.0,0.0
4803,73.0,36.0,30.0,6.0,0.0
4804,71.0,40.0,30.0,6.0,0.0
4805,61.0,4.0,60.0,10.0,0.0
4806,69.0,36.0,30.0,6.0,0.0
4807,68.0,76.0,30.0,6.0,0.0
4808,42.0,0.0,120.0,5.0,0.0
4809,54.0,0.0,60.0,10.0,0.0
4810,69.0,36.0,60.0,6.0,0.0
4811,61.0,0.0,120.0,4.0,0.0
4812,69.0,44.0,120.0,2.0,0.0
4813,54.0,0.0,120.0,5.0,0.0
4814,66.0,0.0,120.0,3.0,0.0
4815,73.0,0.0,60.0,6.0,0.0
4816,57.0,80.0,60.0,10.0,0.0
4817,78.0,44.0,60.0,6.0,0.0
4818,61.0,0.0,60.0,10.0,0.0
4819,81.0,36.0,30.0,6.0,0.0
4820,69.0,16.0,210.0,1.0,0.0
4821,54.0,4.0,60.0,10.0,0.0
4822,73.0,0.0,210.0,0.0,0.0
4823,80.0,40.0,30.0,6.0,0.0
4824,78.0,36.0,30.0,6.0,0.0
4825,57.0,4.0,60.0,10.0,0.0
4826,76.0,40.0,30.0,6.0,0.0
4827,62.0,4.0,60.0,10.0,0.0
4828,74.0,20.0,30.0,6.0,0.0
4829,73.0,76.0,30.0,6.0,0.0
4830,56.0,0.0,60.0,10.0,0.0
4831,71.0,16.0,210.0,0.0,0.0
4832,71.0,80.0,60.0,6.0,0.0
4833,65.0,0.0,210.0,1.0,0.0
4834,59.0,64.0,60.0,10.0,0.0
4835,74.0,0.0,60.0,6.0,0.0
4836,80.0,44.0,60.0,6.0,0.0
4837,62.0,0.0,60.0,10.0,0.0
4838,65.0,0.0,120.0,4.0,0.0
4839,71.0,0.0,120.0,3.0,0.0
4840,74.0,8.0,120.0,2.0,0.0
4841,83.0,36.0,30.0,6.0,0.0
4842,56.0,4.0,60.0,10.0,0.0
4843,44.0,0.0,120.0,5.0,0.0
4844,56.0,0.0,120.0,5.0,0.0
4845,81.0,32.0,30.0,6.0,0.0
4846,59.0,4.0,60.0,10.0,0.0
4847,80.0,36.0,30.0,6.0,0.0
4848,78.0,40.0,30.0,6.0,0.0
4849,77.0,36.0,30.0,6.0,0.0
4850,65.0,4.0,60.0,10.0,0.0
4851,74.0,40.0,30.0,6.0,0.0
4852,57.0,4.0,60.0,10.0,0.0
4853,45.0,0.0,120.0,5.0,0.0
4854,57.0,8.0,120.0,5.0,0.0
4855,69.0,0.0,120.0,3.0,0.0
4856,66.0,0.0,120.0,4.0,0.0
4857,73.0,0.0,120.0,2.0,0.0
4858,73.0,36.0,30.0,6.0,0.0
4859,77.0,32.0,30.0,6.0,0.0
4860,61.0,4.0,60.0,10.0,0.0
4861,78.0,36.0,30.0,6.0,0.0
4862,80.0,40.0,30.0,6.0,0.0
4863,66.0,4.0,60.0,10.0,0.0
4864,81.0,36.0,30.0,6.0,0.0
4865,83.0,40.0,30.0,6.0,0.0
4866,58.0,4.0,60.0,10.0,0.0
4867,85.0,36.0,30.0,6.0,0.0
4868,73.0,0.0,210.0,1.0,0.0
4869,76.0,16.0,210.0,0.0,0.0
4870,83.0,40.0,30.0,6.0,0.0
4871,82.0,36.0,30.0,6.0,0.0
4872,61.0,4.0,60.0,10.0,0.0
4873,80.0,40.0,30.0,6.0,0.0
4874,78.0,20.0,30.0,6.0,0.0
4875,66.0,4.0,60.0,10.0,0.0
4876,76.0,76.0,30.0,6.0,0.0
4877,59.0,44.0,120.0,10.0,0.0
4878,71.0,16.0,210.0,1.0,0.0
4879,74.0,0.0,210.0,0.0,0.0
4880,74.0,36.0,60.0,6.0,0.0
4881,77.0,64.0,60.0,6.0,0.0
4882,78.0,80.0,60.0,6.0,0.0
4883,80.0,36.0,60.0,6.0,0.0
4884,47.0,0.0,120.0,5.0,0.0
4885,59.0,0.0,120.0,5.0,0.0
4886,80.0,44.0,120.0,3.0,0.0
4887,77.0,0.0,120.0,4.0,0.0
4888,86.0,0.0,120.0,2.0,0.0
4889,81.0,80.0,60.0,6.0,0.0
4890,83.0,80.0,60.0,6.0,0.0
4891,73.0,36.0,60.0,6.0,0.0
4892,57.0,44.0,120.0,10.0,0.0
4893,73.0,0.0,210.0,1.0,0.0
4894,78.0,16.0,210.0,0.0,0.0
4895,75.0,64.0,60.0,6.0,0.0
4896,77.0,80.0,60.0,6.0,0.0
4897,57.0,44.0,120.0,5.0,0.0
4898,78.0,0.0,120.0,4.0,0.0
4899,45.0,0.0,120.0,5.0,0.0
4900,85.0,0.0,120.0,2.0,0.0
4901,78.0,36.0,60.0,6.0,0.0
4902,81.0,0.0,120.0,3.0,0.0
4903,80.0,80.0,60.0,6.0,0.0
4904,81.0,80.0,60.0,6.0,0.0
4905,56.0,44.0,120.0,10.0,0.0
4906,80.0,16.0,210.0,0.0,0.0
4907,71.0,36.0,60.0,6.0,0.0
4908,77.0,0.0,210.0,1.0,0.0
4909,73.0,64.0,60.0,6.0,0.0
4910,74.0,80.0,60.0,6.0,0.0
4911,61.0,0.0,120.0,10.0,0.0
4912,77.0,36.0,60.0,6.0,0.0
4913,61.0,0.0,120.0,5.0,0.0
4914,83.0,0.0,120.0,2.0,0.0
4915,49.0,0.0,120.0,5.0,0.0
4916,80.0,0.0,120.0,3.0,0.0
4917,77.0,44.0,120.0,4.0,0.0
4918,73.0,80.0,60.0,6.0,0.0
4919,71.0,80.0,60.0,6.0,0.0
4920,69.0,0.0,60.0,6.0,0.0
4921,78.0,0.0,210.0,1.0,0.0
4922,54.0,44.0,60.0,10.0,0.0
4923,81.0,16.0,210.0,0.0,0.0
4924,56.0,4.0,60.0,10.0,0.0
4925,71.0,36.0,30.0,6.0,0.0
4926,69.0,40.0,30.0,6.0,0.0
4927,68.0,20.0,30.0,6.0,0.0
4928,57.0,4.0,60.0,10.0,0.0
4929,66.0,76.0,30.0,6.0,0.0
4930,60.0,36.0,60.0,10.0,0.0
4931,80.0,44.0,120.0,2.0,0.0
4932,54.0,0.0,120.0,5.0,0.0
4933,72.0,0.0,120.0,3.0,0.0
4934,75.0,0.0,120.0,4.0,0.0
4935,42.0,0.0,120.0,5.0,0.0
4936,75.0,36.0,300.0,6.0,0.0
4937,56.0,80.0,60.0,10.0,0.0
4938,54.0,80.0,60.0,10.0,0.0
4939,52.0,44.0,120.0,10.0,0.0
4940,80.0,16.0,210.0,0.0,0.0
4941,80.0,0.0,210.0,1.0,0.0
4942,76.0,64.0,60.0,6.0,0.0
4943,78.0,44.0,60.0,6.0,0.0
4944,85.0,0.0,120.0,2.0,0.0
4945,64.0,36.0,300.0,10.0,0.0
4946,73.0,8.0,120.0,4.0,0.0
4947,40.0,0.0,120.0,5.0,0.0
4948,80.0,0.0,120.0,3.0,0.0
4949,80.0,40.0,30.0,6.0,0.0
4950,52.0,0.0,120.0,5.0,0.0
4951,78.0,32.0,30.0,6.0,0.0
4952,76.0,40.0,30.0,6.0,0.0
4953,75.0,40.0,30.0,6.0,0.0
4954,73.0,40.0,30.0,6.0,0.0
4955,72.0,76.0,30.0,6.0,0.0
4956,73.0,44.0,120.0,6.0,0.0
4957,66.0,80.0,60.0,10.0,0.0
4958,68.0,80.0,60.0,10.0,0.0
4959,57.0,0.0,210.0,5.0,0.0
4960,69.0,80.0,60.0,10.0,0.0
4961,76.0,0.0,210.0,4.0,0.0
4962,76.0,0.0,210.0,6.0,0.0
4963,85.0,24.0,420.0,2.0,0.0
4964,88.0,0.0,210.0,0.0,0.0
4965,45.0,0.0,210.0,5.0,0.0
4966,85.0,0.0,420.0,6.0,0.0
4967,81.0,0.0,420.0,3.0,0.0
4968,73.0,16.0,210.0,1.0,0.0
4969,81.0,0.0,420.0,7.0,0.0
4970,66.0,64.0,60.0,10.0,0.0
4971,64.0,80.0,60.0,10.0,0.0
4972,63.0,80.0,60.0,10.0,0.0
4973,78.0,24.0,420.0,4.0,0.0
4974,39.0,0.0,210.0,5.0,0.0
4975,81.0,0.0,210.0,1.0,0.0
4976,78.0,0.0,210.0,0.0,0.0
4977,78.0,0.0,420.0,6.0,0.0
4978,51.0,16.0,210.0,5.0,0.0
4979,64.0,40.0,60.0,10.0,0.0
4980,66.0,80.0,60.0,10.0,0.0
4981,83.0,0.0,450.0,6.0,0.0
4982,71.0,0.0,210.0,1.0,0.0
4983,56.0,0.0,210.0,5.0,0.0
4984,80.0,16.0,210.0,7.0,0.0
4985,87.0,0.0,210.0,0.0,0.0
4986,44.0,0.0,210.0,5.0,0.0
4987,80.0,16.0,450.0,3.0,0.0
4988,83.0,0.0,450.0,2.0,0.0
4989,68.0,80.0,60.0,10.0,0.0
4990,64.0,40.0,60.0,10.0,0.0
4991,63.0,80.0,60.0,10.0,0.0
4992,61.0,80.0,60.0,10.0,0.0
4993,76.0,0.0,420.0,6.0,0.0
4994,49.0,0.0,210.0,5.0,0.0
4995,80.0,0.0,210.0,7.0,0.0
4996,76.0,24.0,420.0,4.0,0.0
4997,37.0,0.0,210.0,5.0,0.0
4998,80.0,0.0,210.0,1.0,0.0
4999,76.0,0.0,210.0,0.0,0.0
5000,63.0,64.0,60.0,10.0,0.0
5001,64.0,80.0,60.0,10.0,0.0
5002,69.0,0.0,210.0,1.0,0.0
5003,42.0,16.0,210.0,5.0,0.0
5004,66.0,80.0,60.0,10.0,0.0
5005,78.0,24.0,420.0,3.0,0.0
5006,54.0,0.0,210.0,5.0,0.0
5007,81.0,0.0,420.0,2.0,0.0
5008,85.0,0.0,210.0,0.0,0.0
5009,78.0,0.0,450.0,6.0,0.0
5010,81.0,0.0,450.0,6.0,0.0
5011,63.0,40.0,60.0,10.0,0.0
5012,61.0,80.0,60.0,10.0,0.0
5013,75.0,0.0,210.0,6.0,0.0
5014,78.0,20.0,690.0,1.0,0.0
5015,36.0,16.0,210.0,5.0,0.0
5016,48.0,0.0,210.0,5.0,0.0
5017,60.0,80.0,60.0,10.0,0.0
5018,75.0,0.0,690.0,0.0,0.0
5019,75.0,0.0,210.0,4.0,0.0
5020,63.0,40.0,60.0,10.0,0.0
5021,66.0,80.0,60.0,10.0,0.0
5022,69.0,80.0,60.0,10.0,0.0
5023,45.0,0.0,210.0,5.0,0.0
5024,57.0,16.0,210.0,5.0,0.0
5025,66.0,64.0,60.0,10.0,0.0
5026,63.0,80.0,60.0,10.0,0.0
5027,87.0,0.0,210.0,6.0,0.0
5028,78.0,0.0,210.0,6.0,0.0
5029,80.0,0.0,210.0,6.0,0.0
5030,75.0,0.0,210.0,2.0,0.0
5031,60.0,44.0,60.0,10.0,0.0
5032,75.0,0.0,210.0,6.0,0.0
5033,56.0,0.0,210.0,5.0,0.0
5034,78.0,0.0,210.0,3.0,0.0
5035,44.0,0.0,210.0,5.0,0.0
5036,60.0,0.0,210.0,4.0,0.0
5037,63.0,40.0,30.0,10.0,0.0
5038,61.0,40.0,30.0,10.0,0.0
5039,60.0,20.0,30.0,10.0,0.0
5040,58.0,76.0,30.0,10.0,0.0
5041,72.0,0.0,210.0,1.0,0.0
5042,56.0,44.0,60.0,10.0,0.0
5043,87.0,0.0,210.0,0.0,0.0
5044,42.0,0.0,210.0,5.0,0.0
5045,54.0,20.0,210.0,5.0,0.0
5046,60.0,40.0,30.0,10.0,0.0
5047,58.0,40.0,30.0,10.0,0.0
5048,56.0,20.0,30.0,10.0,0.0
5049,54.0,120.0,30.0,10.0,0.0
5050,52.0,0.0,540.0,10.0,0.0
5051,40.0,0.0,690.0,5.0,0.0
5052,80.0,0.0,210.0,0.0,0.0
5053,52.0,0.0,690.0,5.0,0.0
5054,73.0,20.0,210.0,1.0,0.0
5055,90.0,40.0,30.0,6.0,0.0
5056,88.0,40.0,30.0,6.0,0.0
5057,87.0,20.0,30.0,6.0,0.0
5058,85.0,40.0,30.0,6.0,0.0
5059,75.0,0.0,210.0,1.0,0.0
5060,84.0,40.0,30.0,6.0,0.0
5061,78.0,0.0,210.0,2.0,0.0
5062,84.0,0.0,210.0,0.0,0.0
5063,68.0,0.0,210.0,4.0,0.0
5064,75.0,20.0,210.0,3.0,0.0
5065,87.0,40.0,30.0,6.0,0.0
5066,85.0,40.0,30.0,6.0,0.0
5067,84.0,40.0,30.0,6.0,0.0
5068,82.0,20.0,30.0,6.0,0.0
5069,80.0,76.0,30.0,6.0,0.0
5070,85.0,0.0,210.0,0.0,0.0
5071,76.0,0.0,210.0,2.0,0.0
5072,76.0,0.0,210.0,1.0,0.0
5073,85.0,80.0,60.0,6.0,0.0
5074,73.0,16.0,210.0,3.0,0.0
5075,68.0,0.0,210.0,4.0,0.0
5076,54.0,0.0,60.0,10.0,0.0
5077,87.0,64.0,60.0,6.0,0.0
5078,56.0,0.0,60.0,10.0,0.0
5079,88.0,80.0,60.0,6.0,0.0
5080,57.0,0.0,60.0,10.0,0.0
5081,85.0,80.0,60.0,6.0,0.0
5082,87.0,80.0,60.0,6.0,0.0
5083,59.0,0.0,60.0,10.0,0.0
5084,88.0,80.0,60.0,6.0,0.0
5085,61.0,0.0,60.0,10.0,0.0
5086,63.0,80.0,60.0,10.0,0.0
5087,84.0,0.0,60.0,6.0,0.0
5088,64.0,80.0,60.0,10.0,0.0
5089,85.0,0.0,60.0,6.0,0.0
5090,87.0,0.0,60.0,6.0,0.0
5091,66.0,80.0,60.0,10.0,0.0
5092,83.0,80.0,60.0,6.0,0.0
5093,68.0,0.0,60.0,6.0,0.0
5094,70.0,0.0,60.0,6.0,0.0
5095,85.0,80.0,60.0,6.0,0.0
5096,87.0,0.0,60.0,6.0,0.0
5097,71.0,80.0,60.0,6.0,0.0
5098,73.0,0.0,60.0,6.0,0.0
5099,82.0,80.0,60.0,6.0,0.0
5100,75.0,80.0,60.0,6.0,0.0
5101,83.0,0.0,60.0,6.0,0.0
5102,85.0,0.0,60.0,6.0,0.0
5103,77.0,80.0,60.0,6.0,0.0
5104,81.0,0.0,60.0,6.0,0.0
5105,78.0,80.0,60.0,6.0,0.0
5106,83.0,0.0,60.0,6.0,0.0
5107,80.0,80.0,60.0,6.0,0.0
5108,81.0,0.0,60.0,6.0,0.0
5109,85.0,80.0,60.0,6.0,0.0
5110,72.0,80.0,60.0,6.0,0.0
5111,87.0,0.0,60.0,6.0,0.0
5112,75.0,0.0,60.0,6.0,0.0
5113,78.0,80.0,60.0,6.0,0.0
5114,76.0,80.0,60.0,6.0,0.0
5115,80.0,0.0,60.0,6.0,0.0
5116,81.0,0.0,60.0,6.0,0.0
5117,78.0,80.0,60.0,6.0,0.0
5118,80.0,80.0,60.0,6.0,0.0
5119,76.0,0.0,60.0,6.0,0.0
5120,75.0,0.0,60.0,6.0,0.0
5121,78.0,80.0,60.0,6.0,0.0
5122,80.0,0.0,60.0,6.0,0.0
5123,76.0,80.0,60.0,6.0,0.0
5124,73.0,0.0,60.0,6.0,0.0
5125,82.0,80.0,60.0,6.0,0.0
5126,84.0,0.0,60.0,6.0,0.0
5127,75.0,80.0,60.0,6.0,0.0
5128,76.0,0.0,60.0,6.0,0.0
5129,85.0,80.0,60.0,6.0,0.0
5130,75.0,0.0,60.0,6.0,0.0
5131,84.0,80.0,60.0,6.0,0.0
5132,73.0,80.0,60.0,6.0,0.0
5133,82.0,0.0,60.0,6.0,0.0
5134,84.0,0.0,60.0,6.0,0.0
5135,75.0,80.0,60.0,6.0,0.0
5136,75.0,0.0,60.0,6.0,0.0
5137,72.0,80.0,60.0,6.0,0.0
5138,76.0,0.0,60.0,6.0,0.0
5139,73.0,80.0,60.0,6.0,0.0
5140,75.0,0.0,60.0,6.0,0.0
5141,78.0,80.0,60.0,6.0,0.0
5142,73.0,80.0,60.0,6.0,0.0
5143,76.0,0.0,60.0,6.0,0.0
5144,75.0,80.0,60.0,6.0,0.0
5145,72.0,0.0,60.0,6.0,0.0
5146,73.0,0.0,60.0,6.0,0.0
5147,76.0,80.0,60.0,6.0,0.0
5148,70.0,80.0,60.0,6.0,0.0
5149,79.0,0.0,60.0,6.0,0.0
5150,80.0,0.0,60.0,6.0,0.0
5151,72.0,80.0,60.0,6.0,0.0
5152,82.0,80.0,60.0,6.0,0.0
5153,73.0,0.0,60.0,6.0,0.0
5154,80.0,80.0,60.0,6.0,0.0
5155,72.0,0.0,60.0,6.0,0.0
5156,70.0,80.0,60.0,6.0,0.0
5157,79.0,0.0,60.0,6.0,0.0
5158,72.0,80.0,60.0,6.0,0.0
5159,80.0,0.0,60.0,6.0,0.0
5160,72.0,80.0,60.0,6.0,0.0
5161,68.0,0.0,60.0,6.0,0.0
5162,70.0,0.0,60.0,6.0,0.0
5163,73.0,80.0,60.0,6.0,0.0
5164,75.0,0.0,60.0,6.0,0.0
5165,72.0,80.0,60.0,6.0,0.0
5166,73.0,80.0,60.0,6.0,0.0
5167,76.0,0.0,60.0,6.0,0.0
5168,78.0,16.0,300.0,6.0,0.0
5169,75.0,80.0,60.0,6.0,0.0
5170,64.0,0.0,60.0,10.0,0.0
5171,68.0,80.0,60.0,6.0,0.0
5172,70.0,0.0,60.0,6.0,0.0
5173,66.0,64.0,60.0,10.0,0.0
5174,68.0,80.0,60.0,10.0,0.0
5175,72.0,0.0,60.0,6.0,0.0
5176,76.0,0.0,300.0,6.0,0.0
5177,61.0,80.0,60.0,10.0,0.0
5178,73.0,96.0,930.0,6.0,0.0
5179,63.0,80.0,60.0,10.0,0.0
5180,64.0,80.0,60.0,10.0,0.0
5181,57.0,80.0,60.0,10.0,0.0
5182,75.0,0.0,60.0,6.0,0.0
5183,59.0,80.0,60.0,10.0,0.0
5184,76.0,0.0,60.0,6.0,0.0
5185,61.0,80.0,60.0,10.0,0.0
5186,81.0,36.0,300.0,6.0,0.0
5187,54.0,80.0,60.0,10.0,0.0
5188,56.0,80.0,60.0,10.0,0.0
5189,57.0,80.0,60.0,10.0,0.0
5190,81.0,0.0,120.0,1.0,0.0
5191,90.0,44.0,120.0,0.0,0.0
5192,50.0,0.0,300.0,10.0,0.0
5193,77.0,64.0,60.0,6.0,0.0
5194,78.0,36.0,150.0,6.0,0.0
5195,73.0,44.0,120.0,4.0,0.0
5196,50.0,0.0,120.0,5.0,0.0
5197,73.0,120.0,420.0,6.0,0.0
5198,78.0,0.0,120.0,3.0,0.0
5199,81.0,0.0,120.0,2.0,0.0
5200,62.0,0.0,120.0,5.0,0.0
5201,57.0,0.0,60.0,10.0,0.0
5202,77.0,80.0,60.0,6.0,0.0
5203,54.0,80.0,60.0,10.0,0.0
5204,78.0,0.0,60.0,6.0,0.0
5205,81.0,0.0,120.0,1.0,0.0
5206,50.0,36.0,300.0,10.0,0.0
5207,81.0,36.0,60.0,6.0,0.0
5208,90.0,44.0,120.0,0.0,0.0
5209,77.0,40.0,60.0,6.0,0.0
5210,78.0,0.0,150.0,6.0,0.0
5211,73.0,16.0,210.0,6.0,0.0
5212,81.0,0.0,120.0,2.0,0.0
5213,73.0,0.0,120.0,4.0,0.0
5214,50.0,0.0,120.0,5.0,0.0
5215,78.0,0.0,120.0,3.0,0.0
5216,62.0,44.0,120.0,5.0,0.0
5217,57.0,64.0,60.0,10.0,0.0
5218,77.0,0.0,60.0,6.0,0.0
5219,78.0,0.0,60.0,6.0,0.0
5220,54.0,80.0,60.0,10.0,0.0
5221,81.0,36.0,60.0,6.0,0.0
5222,69.0,0.0,120.0,1.0,0.0
5223,78.0,44.0,120.0,0.0,0.0
5224,50.0,0.0,300.0,10.0,0.0
5225,77.0,160.0,60.0,6.0,0.0
5226,78.0,36.0,150.0,6.0,0.0
5227,69.0,0.0,120.0,2.0,0.0
5228,73.0,44.0,120.0,4.0,0.0
5229,66.0,0.0,120.0,3.0,0.0
5230,73.0,120.0,420.0,6.0,0.0
5231,50.0,0.0,120.0,5.0,0.0
5232,38.0,0.0,120.0,5.0,0.0
5233,57.0,80.0,60.0,10.0,0.0
5234,77.0,0.0,60.0,6.0,0.0
5235,78.0,0.0,60.0,6.0,0.0
5236,54.0,80.0,60.0,10.0,0.0
5237,69.0,44.0,120.0,1.0,0.0
5238,81.0,36.0,60.0,6.0,0.0
5239,78.0,0.0,120.0,0.0,0.0
5240,50.0,0.0,300.0,10.0,0.0
5241,77.0,40.0,60.0,6.0,0.0
5242,78.0,36.0,150.0,6.0,0.0
5243,69.0,0.0,120.0,2.0,0.0
5244,73.0,0.0,120.0,4.0,0.0
5245,73.0,16.0,210.0,6.0,0.0
5246,38.0,44.0,120.0,5.0,0.0
5247,66.0,0.0,120.0,3.0,0.0
5248,50.0,0.0,120.0,5.0,0.0
5249,57.0,0.0,60.0,10.0,0.0
5250,77.0,64.0,60.0,6.0,0.0
5251,78.0,0.0,60.0,6.0,0.0
5252,54.0,80.0,60.0,10.0,0.0
5253,51.0,0.0,300.0,10.0,0.0
5254,81.0,44.0,120.0,1.0,0.0
5255,90.0,0.0,120.0,0.0,0.0
5256,81.0,36.0,60.0,6.0,0.0
5257,77.0,160.0,60.0,6.0,0.0
5258,78.0,36.0,150.0,6.0,0.0
5259,72.0,120.0,420.0,6.0,0.0
5260,72.0,0.0,120.0,4.0,0.0
5261,81.0,44.0,120.0,2.0,0.0
5262,63.0,0.0,120.0,5.0,0.0
5263,78.0,0.0,120.0,3.0,0.0
5264,51.0,0.0,120.0,5.0,0.0
5265,57.0,80.0,60.0,10.0,0.0
5266,77.0,0.0,60.0,6.0,0.0
5267,78.0,80.0,60.0,6.0,0.0
5268,54.0,0.0,60.0,10.0,0.0
5269,51.0,36.0,300.0,10.0,0.0
5270,81.0,36.0,60.0,6.0,0.0
5271,90.0,0.0,120.0,0.0,0.0
5272,81.0,44.0,120.0,1.0,0.0
5273,77.0,40.0,60.0,6.0,0.0
5274,78.0,0.0,150.0,6.0,0.0
5275,72.0,16.0,210.0,6.0,0.0
5276,72.0,0.0,120.0,4.0,0.0
5277,63.0,0.0,120.0,5.0,0.0
5278,78.0,0.0,120.0,3.0,0.0
5279,81.0,0.0,120.0,2.0,0.0
5280,51.0,44.0,120.0,5.0,0.0
5281,77.0,64.0,60.0,6.0,0.0
5282,57.0,0.0,60.0,10.0,0.0
5283,78.0,80.0,60.0,6.0,0.0
5284,54.0,0.0,60.0,10.0,0.0
5285,51.0,36.0,300.0,10.0,0.0
5286,69.0,44.0,120.0,1.0,0.0
5287,81.0,36.0,60.0,6.0,0.0
5288,78.0,0.0,120.0,0.0,0.0
5289,77.0,160.0,60.0,6.0,0.0
5290,78.0,0.0,150.0,6.0,0.0
5291,51.0,0.0,120.0,5.0,0.0
5292,66.0,0.0,120.0,3.0,0.0
5293,69.0,44.0,120.0,2.0,0.0
5294,72.0,120.0,420.0,6.0,0.0
5295,39.0,0.0,120.0,5.0,0.0
5296,72.0,0.0,120.0,4.0,0.0
5297,77.0,0.0,60.0,6.0,0.0
5298,57.0,80.0,60.0,10.0,0.0
5299,54.0,0.0,60.0,10.0,0.0
5300,78.0,80.0,60.0,6.0,0.0
5301,78.0,0.0,120.0,0.0,0.0
5302,81.0,36.0,60.0,6.0,0.0
5303,51.0,0.0,300.0,10.0,0.0
5304,69.0,44.0,120.0,1.0,0.0
5305,77.0,40.0,60.0,6.0,0.0
5306,78.0,36.0,150.0,6.0,0.0
5307,39.0,0.0,120.0,5.0,0.0
5308,72.0,44.0,120.0,4.0,0.0
5309,72.0,16.0,210.0,6.0,0.0
5310,51.0,0.0,120.0,5.0,0.0
5311,66.0,0.0,120.0,3.0,0.0
5312,69.0,0.0,120.0,2.0,0.0
5313,77.0,0.0,60.0,6.0,0.0
5314,57.0,64.0,60.0,10.0,0.0
5315,54.0,0.0,60.0,10.0,0.0
5316,78.0,80.0,60.0,6.0,0.0
5317,81.0,0.0,120.0,0.0,0.0
5318,78.0,44.0,120.0,1.0,0.0
5319,44.0,0.0,120.0,5.0,0.0
5320,32.0,0.0,120.0,5.0,0.0
5321,81.0,36.0,60.0,6.0,0.0
5322,44.0,16.0,690.0,10.0,0.0
5323,77.0,80.0,60.0,6.0,0.0
5324,78.0,80.0,60.0,6.0,0.0
5325,78.0,44.0,120.0,3.0,0.0
5326,72.0,0.0,120.0,4.0,0.0
5327,72.0,16.0,210.0,6.0,0.0
5328,81.0,36.0,60.0,6.0,0.0
5329,81.0,0.0,120.0,2.0,0.0
5330,77.0,64.0,60.0,6.0,0.0
5331,78.0,80.0,60.0,6.0,0.0
5332,80.0,0.0,120.0,2.0,0.0
5333,73.0,0.0,210.0,6.0,0.0
5334,80.0,36.0,60.0,6.0,0.0
5335,73.0,44.0,120.0,4.0,0.0
5336,76.0,0.0,120.0,3.0,0.0
5337,75.0,64.0,60.0,6.0,0.0
5338,76.0,80.0,60.0,6.0,0.0
5339,78.0,36.0,60.0,6.0,0.0
5340,72.0,16.0,210.0,6.0,0.0
5341,75.0,0.0,120.0,3.0,0.0
5342,72.0,44.0,120.0,4.0,0.0
5343,78.0,0.0,120.0,2.0,0.0
5344,32.0,0.0,120.0,5.0,0.0
5345,44.0,0.0,120.0,5.0,0.0
5346,73.0,64.0,60.0,6.0,0.0
5347,75.0,2.0,60.0,6.0,0.0
5348,44.0,78.0,60.0,10.0,0.0
5349,73.0,36.0,60.0,6.0,0.0
5350,76.0,0.0,120.0,6.0,0.0
5351,68.0,0.0,120.0,4.0,0.0
5352,76.0,0.0,120.0,2.0,0.0
5353,49.0,64.0,660.0,10.0,0.0
5354,37.0,0.0,120.0,5.0,0.0
5355,73.0,0.0,120.0,3.0,0.0
5356,49.0,44.0,120.0,5.0,0.0
5357,68.0,80.0,60.0,6.0,0.0
5358,69.0,80.0,60.0,6.0,0.0
5359,77.0,44.0,120.0,0.0,0.0
5360,74.0,0.0,120.0,6.0,0.0
5361,71.0,36.0,60.0,6.0,0.0
5362,68.0,0.0,120.0,1.0,0.0
5363,66.0,80.0,60.0,6.0,0.0
5364,68.0,80.0,60.0,6.0,0.0
5365,73.0,0.0,120.0,6.0,0.0
5366,69.0,36.0,60.0,6.0,0.0
5367,78.0,0.0,120.0,0.0,0.0
5368,69.0,44.0,120.0,1.0,0.0
5369,65.0,16.0,60.0,6.0,0.0
5370,66.0,80.0,60.0,6.0,0.0
5371,37.0,0.0,120.0,5.0,0.0
5372,71.0,0.0,120.0,2.0,0.0
5373,68.0,36.0,60.0,6.0,0.0
5374,49.0,44.0,120.0,5.0,0.0
5375,65.0,0.0,120.0,1.0,0.0
5376,68.0,0.0,120.0,3.0,0.0
5377,80.0,0.0,120.0,0.0,0.0
5378,71.0,0.0,120.0,6.0,0.0
5379,65.0,0.0,120.0,4.0,0.0
5380,63.0,80.0,60.0,6.0,0.0
5381,65.0,2.0,60.0,6.0,0.0
5382,49.0,78.0,60.0,10.0,0.0
5383,66.0,0.0,120.0,1.0,0.0
5384,30.0,0.0,120.0,5.0,0.0
5385,42.0,0.0,120.0,5.0,0.0
5386,66.0,44.0,120.0,6.0,0.0
5387,66.0,0.0,120.0,3.0,0.0
5388,69.0,0.0,120.0,6.0,0.0
5389,81.0,0.0,120.0,0.0,0.0
5390,61.0,0.0,120.0,4.0,0.0
5391,42.0,36.0,60.0,10.0,0.0
5392,69.0,0.0,120.0,2.0,0.0
5393,45.0,80.0,60.0,10.0,0.0
5394,49.0,80.0,60.0,10.0,0.0
5395,54.0,80.0,60.0,10.0,0.0
5396,57.0,80.0,60.0,10.0,0.0
5397,61.0,0.0,60.0,6.0,0.0
5398,54.0,80.0,60.0,10.0,0.0
5399,66.0,0.0,60.0,6.0,0.0
5400,42.0,0.0,60.0,10.0,0.0
5401,69.0,80.0,60.0,6.0,0.0
5402,45.0,0.0,60.0,10.0,0.0
5403,66.0,80.0,60.0,6.0,0.0
5404,69.0,80.0,60.0,6.0,0.0
5405,49.0,0.0,60.0,10.0,0.0
5406,73.0,80.0,60.0,6.0,0.0
5407,54.0,0.0,60.0,10.0,0.0
5408,57.0,80.0,60.0,10.0,0.0
5409,69.0,0.0,60.0,6.0,0.0
5410,54.0,0.0,60.0,10.0,0.0
5411,73.0,80.0,60.0,6.0,0.0
5412,78.0,80.0,60.0,6.0,0.0
5413,42.0,0.0,60.0,10.0,0.0
5414,73.0,16.0,210.0,0.0,0.0
5415,73.0,64.0,60.0,6.0,0.0
5416,45.0,0.0,60.0,10.0,0.0
5417,78.0,0.0,60.0,6.0,0.0
5418,49.0,80.0,60.0,10.0,0.0
5419,54.0,0.0,60.0,10.0,0.0
5420,81.0,80.0,60.0,6.0,0.0
5421,81.0,16.0,210.0,0.0,0.0
5422,78.0,0.0,60.0,6.0,0.0
5423,57.0,64.0,60.0,10.0,0.0
5424,81.0,80.0,60.0,6.0,0.0
5425,54.0,0.0,60.0,10.0,0.0
5426,87.0,36.0,60.0,6.0,0.0
5427,75.0,0.0,120.0,3.0,0.0
5428,48.0,0.0,120.0,5.0,0.0
5429,48.0,0.0,120.0,10.0,0.0
5430,36.0,0.0,120.0,5.0,0.0
5431,68.0,16.0,210.0,1.0,0.0
5432,78.0,0.0,120.0,2.0,0.0
5433,75.0,44.0,120.0,4.0,0.0
5434,80.0,0.0,120.0,3.0,0.0
5435,60.0,0.0,120.0,4.0,0.0
5436,66.0,0.0,120.0,4.0,0.0
5437,87.0,0.0,120.0,2.0,0.0
5438,68.0,0.0,120.0,3.0,0.0
5439,80.0,0.0,210.0,0.0,0.0
5440,68.0,0.0,120.0,2.0,0.0
5441,81.0,64.0,60.0,6.0,0.0
5442,80.0,80.0,60.0,6.0,0.0
5443,78.0,80.0,60.0,6.0,0.0
5444,78.0,0.0,210.0,0.0,0.0
5445,75.0,16.0,210.0,1.0,0.0
5446,76.0,64.0,60.0,6.0,0.0
5447,75.0,80.0,60.0,6.0,0.0
5448,73.0,0.0,210.0,1.0,0.0
5449,76.0,44.0,120.0,2.0,0.0
5450,85.0,0.0,120.0,2.0,0.0
5451,73.0,0.0,120.0,3.0,0.0
5452,76.0,16.0,210.0,0.0,0.0
5453,37.0,0.0,120.0,5.0,0.0
5454,76.0,0.0,120.0,3.0,0.0
5455,80.0,0.0,120.0,3.0,0.0
5456,49.0,36.0,60.0,10.0,0.0
5457,49.0,0.0,120.0,5.0,0.0
5458,76.0,0.0,120.0,4.0,0.0
5459,76.0,0.0,60.0,6.0,0.0
5460,61.0,0.0,120.0,4.0,0.0
5461,68.0,0.0,120.0,4.0,0.0
5462,68.0,0.0,120.0,2.0,0.0
5463,52.0,64.0,60.0,10.0,0.0
5464,73.0,0.0,60.0,6.0,0.0
5465,76.0,80.0,60.0,6.0,0.0
5466,56.0,0.0,60.0,10.0,0.0
5467,61.0,0.0,60.0,10.0,0.0
5468,80.0,80.0,60.0,6.0,0.0
5469,73.0,16.0,210.0,0.0,0.0
5470,76.0,0.0,210.0,1.0,0.0
5471,64.0,64.0,60.0,10.0,0.0
5472,76.0,0.0,60.0,6.0,0.0
5473,61.0,0.0,60.0,10.0,0.0
5474,80.0,80.0,60.0,6.0,0.0
5475,80.0,0.0,120.0,3.0,0.0
5476,74.0,0.0,120.0,3.0,0.0
5477,71.0,0.0,120.0,3.0,0.0
5478,83.0,36.0,60.0,6.0,0.0
5479,74.0,0.0,120.0,2.0,0.0
5480,71.0,0.0,120.0,2.0,0.0
5481,53.0,0.0,120.0,5.0,0.0
5482,41.0,0.0,120.0,5.0,0.0
5483,74.0,16.0,210.0,0.0,0.0
5484,59.0,0.0,120.0,4.0,0.0
5485,68.0,0.0,120.0,4.0,0.0
5486,74.0,44.0,120.0,4.0,0.0
5487,53.0,0.0,120.0,10.0,0.0
5488,80.0,0.0,210.0,1.0,0.0
5489,83.0,0.0,120.0,2.0,0.0
5490,86.0,64.0,60.0,6.0,0.0
5491,85.0,80.0,60.0,6.0,0.0
5492,83.0,0.0,210.0,1.0,0.0
5493,83.0,80.0,60.0,6.0,0.0
5494,86.0,16.0,210.0,0.0,0.0
5495,81.0,64.0,60.0,6.0,0.0
5496,80.0,80.0,60.0,6.0,0.0
5497,73.0,0.0,120.0,4.0,0.0
5498,69.0,44.0,120.0,4.0,0.0
5499,66.0,0.0,120.0,2.0,0.0
5500,66.0,0.0,120.0,4.0,0.0
5501,81.0,0.0,210.0,1.0,0.0
5502,42.0,0.0,120.0,5.0,0.0
5503,54.0,0.0,120.0,5.0,0.0
5504,85.0,16.0,210.0,0.0,0.0
5505,54.0,0.0,60.0,10.0,0.0
5506,61.0,0.0,120.0,3.0,0.0
5507,69.0,0.0,120.0,3.0,0.0
5508,78.0,0.0,120.0,3.0,0.0
5509,81.0,0.0,120.0,2.0,0.0
5510,73.0,0.0,120.0,2.0,0.0
5511,81.0,36.0,60.0,6.0,0.0
5512,78.0,64.0,60.0,6.0,0.0
5513,57.0,0.0,60.0,10.0,0.0
5514,61.0,0.0,60.0,10.0,0.0
5515,81.0,80.0,60.0,6.0,0.0
5516,78.0,16.0,210.0,0.0,0.0
5517,66.0,0.0,60.0,10.0,0.0
5518,69.0,0.0,210.0,1.0,0.0
5519,85.0,80.0,60.0,6.0,0.0
5520,81.0,64.0,60.0,6.0,0.0
5521,69.0,0.0,60.0,10.0,0.0
5522,85.0,0.0,60.0,6.0,0.0
5523,66.0,80.0,60.0,10.0,0.0
5524,82.0,0.0,210.0,0.0,0.0
5525,82.0,0.0,120.0,2.0,0.0
5526,76.0,0.0,120.0,2.0,0.0
5527,73.0,0.0,120.0,2.0,0.0
5528,61.0,0.0,120.0,3.0,0.0
5529,70.0,44.0,120.0,3.0,0.0
5530,70.0,0.0,120.0,4.0,0.0
5531,88.0,36.0,60.0,6.0,0.0
5532,55.0,0.0,120.0,10.0,0.0
5533,73.0,0.0,120.0,4.0,0.0
5534,76.0,0.0,120.0,3.0,0.0
5535,55.0,0.0,120.0,5.0,0.0
5536,64.0,0.0,120.0,4.0,0.0
5537,73.0,16.0,210.0,1.0,0.0
5538,43.0,0.0,120.0,5.0,0.0
5539,87.0,64.0,60.0,6.0,0.0
5540,85.0,80.0,60.0,6.0,0.0
5541,85.0,16.0,210.0,1.0,0.0
5542,88.0,0.0,210.0,0.0,0.0
5543,84.0,80.0,60.0,6.0,0.0
5544,85.0,64.0,60.0,6.0,0.0
5545,82.0,80.0,60.0,6.0,0.0
5546,56.0,0.0,120.0,4.0,0.0
5547,63.0,0.0,120.0,4.0,0.0
5548,72.0,0.0,120.0,4.0,0.0
5549,75.0,0.0,120.0,3.0,0.0
5550,72.0,0.0,120.0,2.0,0.0
5551,75.0,0.0,120.0,2.0,0.0
5552,80.0,0.0,120.0,2.0,0.0
5553,56.0,44.0,120.0,5.0,0.0
5554,72.0,0.0,120.0,3.0,0.0
5555,44.0,0.0,120.0,5.0,0.0
5556,56.0,0.0,60.0,10.0,0.0
5557,87.0,16.0,210.0,0.0,0.0
5558,84.0,0.0,210.0,1.0,0.0
5559,84.0,36.0,60.0,6.0,0.0
5560,63.0,0.0,120.0,3.0,0.0
5561,80.0,0.0,60.0,6.0,0.0
5562,68.0,64.0,60.0,10.0,0.0
5563,84.0,80.0,60.0,6.0,0.0
5564,66.0,0.0,60.0,10.0,0.0
5565,85.0,60.0,390.0,6.0,0.0
5566,64.0,80.0,60.0,10.0,0.0
5567,63.0,80.0,60.0,10.0,0.0
5568,61.0,2.0,60.0,10.0,0.0
5569,76.0,60.0,60.0,6.0,0.0
5570,68.0,54.0,120.0,10.0,0.0
5571,75.0,54.0,60.0,6.0,0.0
5572,78.0,72.0,150.0,6.0,0.0
5573,85.0,60.0,210.0,6.0,0.0
5574,56.0,54.0,120.0,10.0,0.0
5575,75.0,54.0,60.0,6.0,0.0
5576,78.0,12.0,150.0,6.0,0.0
5577,84.0,60.0,60.0,6.0,0.0
5578,61.0,6.0,120.0,10.0,0.0
5579,49.0,0.0,5010.0,5.0,0.0
5580,37.0,0.0,5010.0,5.0,0.0
5581,73.0,18.0,210.0,0.0,0.0
5582,85.0,54.0,60.0,6.0,0.0
5583,80.0,60.0,60.0,6.0,0.0
5584,76.0,42.0,60.0,6.0,0.0
5585,80.0,60.0,60.0,6.0,0.0
5586,81.0,18.0,210.0,0.0,0.0
5587,81.0,60.0,60.0,6.0,0.0
5588,60.0,0.0,210.0,4.0,0.0
5589,63.0,0.0,210.0,3.0,0.0
5590,78.0,60.0,60.0,6.0,0.0
5591,75.0,42.0,60.0,6.0,0.0
5592,78.0,60.0,60.0,6.0,0.0
5593,73.0,0.0,210.0,1.0,0.0
5594,80.0,60.0,60.0,6.0,0.0
5595,64.0,18.0,210.0,3.0,0.0
5596,61.0,0.0,210.0,4.0,0.0
5597,80.0,0.0,210.0,0.0,0.0
5598,76.0,60.0,60.0,6.0,0.0
5599,73.0,42.0,60.0,6.0,0.0
5600,76.0,60.0,60.0,6.0,0.0
5601,66.0,0.0,210.0,3.0,0.0
5602,78.0,60.0,60.0,6.0,0.0
5603,63.0,0.0,210.0,4.0,0.0
5604,81.0,18.0,210.0,1.0,0.0
5605,78.0,0.0,210.0,0.0,0.0
5606,75.0,60.0,60.0,6.0,0.0
5607,72.0,42.0,60.0,6.0,0.0
5608,75.0,60.0,60.0,6.0,0.0
5609,64.0,0.0,210.0,4.0,0.0
5610,80.0,0.0,210.0,1.0,0.0
5611,68.0,18.0,210.0,3.0,0.0
5612,76.0,0.0,210.0,0.0,0.0
5613,73.0,54.0,60.0,6.0,0.0
5614,61.0,0.0,210.0,2.0,0.0
5615,76.0,6.0,120.0,6.0,0.0
5616,68.0,60.0,60.0,6.0,0.0
5617,64.0,42.0,60.0,6.0,0.0
5618,68.0,60.0,60.0,6.0,0.0
5619,78.0,6.0,120.0,6.0,0.0
5620,69.0,54.0,60.0,6.0,0.0
5621,69.0,0.0,210.0,2.0,0.0
5622,72.0,18.0,210.0,3.0,0.0
5623,66.0,0.0,210.0,4.0,0.0
5624,75.0,0.0,210.0,0.0,0.0
5625,78.0,0.0,210.0,1.0,0.0
5626,66.0,60.0,60.0,6.0,0.0
5627,63.0,42.0,60.0,6.0,0.0
5628,66.0,60.0,60.0,6.0,0.0
5629,76.0,0.0,210.0,0.0,0.0
5630,68.0,0.0,210.0,2.0,0.0
5631,76.0,18.0,210.0,1.0,0.0
5632,68.0,54.0,60.0,6.0,0.0
5633,76.0,6.0,120.0,6.0,0.0
5634,73.0,0.0,210.0,3.0,0.0
5635,68.0,0.0,210.0,4.0,0.0
5636,64.0,60.0,60.0,6.0,0.0
5637,61.0,42.0,60.0,6.0,0.0
5638,64.0,60.0,60.0,6.0,0.0
5639,75.0,6.0,120.0,6.0,0.0
5640,75.0,0.0,210.0,3.0,0.0
5641,66.0,18.0,210.0,2.0,0.0
5642,78.0,0.0,210.0,0.0,0.0
5643,75.0,0.0,210.0,1.0,0.0
5644,69.0,0.0,210.0,4.0,0.0
5645,66.0,54.0,60.0,6.0,0.0
5646,63.0,60.0,60.0,6.0,0.0
5647,60.0,42.0,60.0,6.0,0.0
5648,63.0,60.0,60.0,6.0,0.0
5649,76.0,18.0,210.0,3.0,0.0
5650,68.0,0.0,210.0,4.0,0.0
5651,73.0,54.0,60.0,6.0,0.0
5652,64.0,6.0,120.0,10.0,0.0
5653,80.0,0.0,210.0,0.0,0.0
5654,64.0,0.0,210.0,2.0,0.0
5655,73.0,0.0,210.0,1.0,0.0
5656,76.0,60.0,60.0,6.0,0.0
5657,80.0,42.0,60.0,6.0,0.0
5658,76.0,60.0,60.0,6.0,0.0
5659,63.0,0.0,210.0,2.0,0.0
5660,81.0,0.0,210.0,1.0,0.0
5661,78.0,0.0,210.0,3.0,0.0
5662,72.0,18.0,210.0,4.0,0.0
5663,63.0,6.0,120.0,10.0,0.0
5664,72.0,54.0,60.0,6.0,0.0
5665,78.0,60.0,60.0,6.0,0.0
5666,81.0,42.0,60.0,6.0,0.0
5667,78.0,60.0,60.0,6.0,0.0
5668,73.0,0.0,210.0,0.0,0.0
5669,73.0,54.0,60.0,6.0,0.0
5670,73.0,0.0,210.0,4.0,0.0
5671,80.0,0.0,210.0,1.0,0.0
5672,64.0,6.0,120.0,10.0,0.0
5673,64.0,0.0,210.0,2.0,0.0
5674,76.0,18.0,210.0,3.0,0.0
5675,76.0,60.0,60.0,6.0,0.0
5676,80.0,42.0,60.0,6.0,0.0
5677,76.0,60.0,60.0,6.0,0.0
5678,78.0,18.0,210.0,1.0,0.0
5679,75.0,0.0,210.0,3.0,0.0
5680,68.0,54.0,60.0,6.0,0.0
5681,68.0,0.0,210.0,2.0,0.0
5682,60.0,0.0,210.0,4.0,0.0
5683,60.0,6.0,120.0,10.0,0.0
5684,75.0,0.0,210.0,0.0,0.0
5685,75.0,60.0,60.0,6.0,0.0
5686,78.0,42.0,60.0,6.0,0.0
5687,75.0,60.0,60.0,6.0,0.0
5688,61.0,54.0,60.0,10.0,0.0
5689,76.0,6.0,120.0,6.0,0.0
5690,73.0,0.0,210.0,2.0,0.0
5691,61.0,0.0,210.0,4.0,0.0
5692,76.0,18.0,210.0,0.0,0.0
5693,73.0,0.0,210.0,3.0,0.0
5694,76.0,0.0,210.0,1.0,0.0
5695,64.0,60.0,60.0,10.0,0.0
5696,68.0,42.0,60.0,10.0,0.0
5697,64.0,60.0,60.0,10.0,0.0
5698,78.0,0.0,210.0,0.0,0.0
5699,75.0,6.0,120.0,6.0,0.0
5700,75.0,0.0,210.0,2.0,0.0
5701,69.0,0.0,210.0,4.0,0.0
5702,60.0,54.0,60.0,10.0,0.0
5703,75.0,18.0,210.0,1.0,0.0
5704,60.0,0.0,210.0,3.0,0.0
5705,66.0,60.0,60.0,10.0,0.0
5706,69.0,42.0,60.0,10.0,0.0
5707,66.0,60.0,60.0,10.0,0.0
5708,61.0,0.0,210.0,3.0,0.0
5709,73.0,0.0,210.0,1.0,0.0
5710,76.0,0.0,210.0,0.0,0.0
5711,76.0,6.0,120.0,6.0,0.0
5712,68.0,0.0,210.0,4.0,0.0
5713,76.0,18.0,210.0,2.0,0.0
5714,61.0,54.0,60.0,10.0,0.0
5715,64.0,60.0,60.0,10.0,0.0
5716,68.0,42.0,60.0,10.0,0.0
5717,64.0,60.0,60.0,10.0,0.0
5718,75.0,0.0,210.0,0.0,0.0
5719,72.0,6.0,120.0,6.0,0.0
5720,66.0,0.0,210.0,4.0,0.0
5721,72.0,18.0,210.0,1.0,0.0
5722,56.0,54.0,60.0,10.0,0.0
5723,63.0,60.0,60.0,10.0,0.0
5724,66.0,42.0,60.0,10.0,0.0
5725,63.0,60.0,60.0,10.0,0.0
5726,73.0,18.0,210.0,1.0,0.0
5727,61.0,0.0,210.0,3.0,0.0
5728,73.0,54.0,60.0,6.0,0.0
5729,64.0,0.0,210.0,4.0,0.0
5730,64.0,6.0,120.0,10.0,0.0
5731,73.0,0.0,210.0,0.0,0.0
5732,68.0,60.0,60.0,6.0,0.0
5733,66.0,42.0,60.0,6.0,0.0
5734,64.0,60.0,60.0,6.0,0.0
5735,84.0,0.0,210.0,0.0,0.0
5736,66.0,18.0,210.0,4.0,0.0
5737,69.0,0.0,60.0,6.0,0.0
5738,54.0,60.0,60.0,10.0,0.0
5739,69.0,0.0,210.0,3.0,0.0
5740,75.0,0.0,210.0,1.0,0.0
5741,66.0,60.0,60.0,6.0,0.0
5742,63.0,0.0,60.0,10.0,0.0
5743,61.0,42.0,60.0,10.0,0.0
5744,64.0,0.0,60.0,6.0,0.0
5745,63.0,60.0,60.0,6.0,0.0
5746,60.0,0.0,60.0,10.0,0.0
5747,52.0,60.0,60.0,10.0,0.0
5748,76.0,0.0,210.0,1.0,0.0
5749,64.0,0.0,210.0,4.0,0.0
5750,61.0,0.0,210.0,2.0,0.0
5751,85.0,0.0,210.0,0.0,0.0
5752,68.0,0.0,60.0,6.0,0.0
5753,68.0,18.0,210.0,3.0,0.0
5754,61.0,0.0,60.0,10.0,0.0
5755,64.0,60.0,60.0,6.0,0.0
5756,63.0,0.0,60.0,6.0,0.0
5757,60.0,42.0,60.0,10.0,0.0
5758,58.0,60.0,60.0,10.0,0.0
5759,61.0,0.0,60.0,6.0,0.0
5760,66.0,0.0,60.0,6.0,0.0
5761,66.0,0.0,210.0,3.0,0.0
5762,78.0,18.0,210.0,1.0,0.0
5763,63.0,0.0,210.0,4.0,0.0
5764,69.0,0.0,210.0,2.0,0.0
5765,87.0,0.0,210.0,0.0,0.0
5766,51.0,60.0,60.0,10.0,0.0
5767,63.0,0.0,60.0,6.0,0.0
5768,60.0,60.0,60.0,10.0,0.0
5769,61.0,42.0,60.0,6.0,0.0
5770,58.0,0.0,60.0,10.0,0.0
5771,60.0,0.0,60.0,6.0,0.0
5772,56.0,60.0,60.0,10.0,0.0
5773,80.0,0.0,210.0,1.0,0.0
5774,61.0,54.0,60.0,10.0,0.0
5775,61.0,0.0,210.0,4.0,0.0
5776,88.0,18.0,210.0,0.0,0.0
5777,64.0,0.0,210.0,3.0,0.0
5778,64.0,6.0,120.0,6.0,0.0
5779,68.0,0.0,210.0,2.0,0.0
5780,56.0,60.0,60.0,10.0,0.0
5781,54.0,42.0,60.0,10.0,0.0
5782,52.0,60.0,60.0,10.0,0.0
5783,45.0,18.0,210.0,5.0,0.0
5784,57.0,0.0,210.0,5.0,0.0
5785,57.0,60.0,60.0,10.0,0.0
5786,84.0,0.0,210.0,1.0,0.0
5787,66.0,0.0,210.0,2.0,0.0
5788,66.0,0.0,60.0,6.0,0.0
5789,66.0,0.0,210.0,3.0,0.0
5790,87.0,0.0,210.0,0.0,0.0
5791,69.0,0.0,60.0,6.0,0.0
5792,54.0,60.0,60.0,10.0,0.0
5793,52.0,0.0,60.0,10.0,0.0
5794,68.0,42.0,60.0,6.0,0.0
5795,66.0,0.0,60.0,6.0,0.0
5796,51.0,60.0,60.0,10.0,0.0
5797,64.0,60.0,60.0,6.0,0.0
5798,85.0,0.0,210.0,0.0,0.0
5799,44.0,0.0,210.0,5.0,0.0
5800,56.0,0.0,60.0,10.0,0.0
5801,56.0,0.0,210.0,5.0,0.0
5802,64.0,0.0,210.0,2.0,0.0
5803,68.0,0.0,210.0,3.0,0.0
5804,85.0,18.0,210.0,1.0,0.0
5805,68.0,0.0,60.0,6.0,0.0
5806,52.0,60.0,60.0,10.0,0.0
5807,51.0,0.0,60.0,10.0,0.0
5808,66.0,42.0,60.0,6.0,0.0
5809,49.0,0.0,60.0,10.0,0.0
5810,64.0,60.0,60.0,6.0,0.0
5811,63.0,18.0,210.0,2.0,0.0
5812,42.0,0.0,210.0,5.0,0.0
5813,54.0,60.0,60.0,10.0,0.0
5814,69.0,0.0,210.0,3.0,0.0
5815,84.0,0.0,210.0,0.0,0.0
5816,54.0,0.0,210.0,5.0,0.0
5817,63.0,0.0,60.0,6.0,0.0
5818,87.0,0.0,210.0,1.0,0.0
5819,66.0,0.0,60.0,6.0,0.0
5820,51.0,60.0,60.0,10.0,0.0
5821,64.0,0.0,60.0,6.0,0.0
5822,49.0,42.0,60.0,10.0,0.0
5823,48.0,60.0,60.0,10.0,0.0
5824,63.0,0.0,60.0,6.0,0.0
5825,52.0,6.0,120.0,10.0,0.0
5826,52.0,0.0,210.0,5.0,0.0
5827,80.0,0.0,210.0,1.0,0.0
5828,61.0,54.0,60.0,6.0,0.0
5829,61.0,0.0,210.0,2.0,0.0
5830,85.0,0.0,210.0,0.0,0.0
5831,40.0,18.0,210.0,5.0,0.0
5832,68.0,0.0,210.0,3.0,0.0
5833,61.0,0.0,210.0,4.0,0.0
5834,68.0,60.0,60.0,6.0,0.0
5835,64.0,42.0,60.0,6.0,0.0
5836,68.0,60.0,60.0,6.0,0.0
5837,60.0,0.0,210.0,2.0,0.0
5838,90.0,0.0,210.0,0.0,0.0
5839,69.0,0.0,210.0,4.0,0.0
5840,51.0,6.0,120.0,10.0,0.0
5841,60.0,54.0,60.0,6.0,0.0
5842,75.0,0.0,210.0,1.0,0.0
5843,51.0,18.0,210.0,5.0,0.0
5844,66.0,0.0,210.0,3.0,0.0
5845,39.0,0.0,210.0,5.0,0.0
5846,69.0,60.0,60.0,6.0,0.0
5847,66.0,42.0,60.0,6.0,0.0
5848,69.0,60.0,60.0,6.0,0.0
5849,88.0,0.0,210.0,0.0,0.0
5850,52.0,6.0,120.0,10.0,0.0
5851,40.0,0.0,210.0,5.0,0.0
5852,68.0,0.0,210.0,1.0,0.0
5853,52.0,0.0,210.0,5.0,0.0
5854,61.0,0.0,210.0,2.0,0.0
5855,61.0,54.0,60.0,6.0,0.0
5856,68.0,0.0,210.0,3.0,0.0
5857,68.0,18.0,210.0,4.0,0.0
5858,68.0,60.0,60.0,6.0,0.0
5859,64.0,42.0,60.0,6.0,0.0
5860,68.0,60.0,60.0,6.0,0.0
5861,66.0,0.0,210.0,4.0,0.0
5862,75.0,0.0,210.0,1.0,0.0
5863,87.0,18.0,210.0,0.0,0.0
5864,56.0,54.0,60.0,6.0,0.0
5865,80.0,0.0,210.0,2.0,0.0
5866,56.0,0.0,210.0,5.0,0.0
5867,48.0,6.0,120.0,10.0,0.0
5868,72.0,0.0,210.0,3.0,0.0
5869,44.0,0.0,210.0,5.0,0.0
5870,66.0,60.0,60.0,6.0,0.0
5871,63.0,42.0,60.0,6.0,0.0
5872,66.0,60.0,60.0,6.0,0.0
5873,85.0,0.0,210.0,0.0,0.0
5874,64.0,0.0,210.0,4.0,0.0
5875,80.0,0.0,210.0,2.0,0.0
5876,49.0,0.0,210.0,5.0,0.0
5877,68.0,0.0,210.0,3.0,0.0
5878,64.0,0.0,60.0,6.0,0.0
5879,76.0,18.0,210.0,1.0,0.0
5880,37.0,0.0,210.0,5.0,0.0
5881,49.0,60.0,60.0,10.0,0.0
5882,73.0,60.0,60.0,6.0,0.0
5883,56.0,0.0,60.0,10.0,0.0
5884,52.0,0.0,60.0,10.0,0.0
5885,68.0,42.0,60.0,6.0,0.0
5886,56.0,60.0,60.0,10.0,0.0
5887,73.0,0.0,60.0,6.0,0.0
5888,66.0,60.0,60.0,6.0,0.0
5889,48.0,0.0,60.0,10.0,0.0
5890,57.0,60.0,60.0,10.0,0.0
5891,75.0,0.0,60.0,6.0,0.0
5892,54.0,0.0,60.0,10.0,0.0
5893,69.0,60.0,60.0,6.0,0.0
5894,57.0,0.0,60.0,10.0,0.0
5895,75.0,60.0,60.0,6.0,0.0
5896,64.0,60.0,60.0,6.0,0.0
5897,49.0,0.0,60.0,10.0,0.0
5898,56.0,60.0,60.0,10.0,0.0
5899,68.0,0.0,60.0,6.0,0.0
5900,73.0,0.0,60.0,6.0,0.0
5901,52.0,60.0,60.0,10.0,0.0
5902,56.0,0.0,60.0,10.0,0.0
5903,68.0,60.0,60.0,6.0,0.0
5904,44.0,60.0,60.0,10.0,0.0
5905,63.0,0.0,60.0,6.0,0.0
5906,72.0,0.0,60.0,6.0,0.0
5907,54.0,60.0,60.0,10.0,0.0
5908,66.0,60.0,60.0,6.0,0.0
5909,51.0,0.0,60.0,10.0,0.0
5910,72.0,0.0,60.0,6.0,0.0
5911,54.0,78.0,60.0,10.0,0.0
5912,49.0,80.0,60.0,10.0,0.0
5913,64.0,0.0,60.0,6.0,0.0
5914,51.0,0.0,60.0,10.0,0.0
5915,66.0,80.0,60.0,6.0,0.0
5916,52.0,0.0,60.0,10.0,0.0
5917,68.0,80.0,60.0,6.0,0.0
5918,85.0,0.0,210.0,2.0,0.0
5919,69.0,0.0,60.0,6.0,0.0
5920,42.0,16.0,210.0,5.0,0.0
5921,66.0,0.0,420.0,4.0,0.0
5922,69.0,0.0,210.0,3.0,0.0
5923,81.0,0.0,420.0,0.0,0.0
5924,78.0,24.0,420.0,1.0,0.0
5925,54.0,80.0,60.0,10.0,0.0
5926,54.0,0.0,210.0,5.0,0.0
5927,56.0,0.0,60.0,10.0,0.0
5928,71.0,64.0,60.0,6.0,0.0
5929,57.0,80.0,60.0,10.0,0.0
5930,73.0,0.0,60.0,6.0,0.0
5931,75.0,0.0,210.0,2.0,0.0
5932,47.0,0.0,210.0,5.0,0.0
5933,78.0,0.0,210.0,3.0,0.0
5934,75.0,80.0,60.0,6.0,0.0
5935,47.0,0.0,60.0,10.0,0.0
5936,35.0,16.0,210.0,5.0,0.0
5937,49.0,40.0,60.0,10.0,0.0
5938,76.0,0.0,60.0,6.0,0.0
5939,78.0,80.0,60.0,6.0,0.0
5940,51.0,0.0,60.0,10.0,0.0
5941,52.0,16.0,210.0,5.0,0.0
5942,68.0,0.0,210.0,4.0,0.0
5943,80.0,0.0,60.0,6.0,0.0
5944,83.0,0.0,210.0,2.0,0.0
5945,40.0,0.0,210.0,5.0,0.0
5946,80.0,0.0,450.0,0.0,0.0
5947,76.0,0.0,450.0,1.0,0.0
5948,68.0,0.0,210.0,3.0,0.0
5949,52.0,80.0,60.0,10.0,0.0
5950,81.0,0.0,60.0,6.0,0.0
5951,54.0,64.0,60.0,10.0,0.0
5952,83.0,80.0,60.0,6.0,0.0
5953,56.0,0.0,60.0,10.0,0.0
5954,76.0,0.0,210.0,3.0,0.0
5955,33.0,0.0,210.0,5.0,0.0
5956,45.0,16.0,210.0,5.0,0.0
5957,69.0,24.0,420.0,4.0,0.0
5958,85.0,80.0,60.0,6.0,0.0
5959,73.0,0.0,210.0,2.0,0.0
5960,45.0,0.0,60.0,10.0,0.0
5961,47.0,0.0,60.0,10.0,0.0
5962,87.0,64.0,60.0,6.0,0.0
5963,49.0,0.0,60.0,10.0,0.0
5964,88.0,80.0,60.0,6.0,0.0
5965,75.0,0.0,210.0,1.0,0.0
5966,81.0,0.0,210.0,2.0,0.0
5967,39.0,16.0,210.0,5.0,0.0
5968,78.0,0.0,210.0,0.0,0.0
5969,90.0,44.0,120.0,6.0,0.0
5970,66.0,0.0,210.0,3.0,0.0
5971,51.0,36.0,60.0,10.0,0.0
5972,51.0,0.0,210.0,5.0,0.0
5973,52.0,40.0,60.0,10.0,0.0
5974,54.0,224.0,60.0,10.0,0.0
5975,75.0,0.0,210.0,1.0,0.0
5976,72.0,416.0,210.0,2.0,0.0
5977,32.0,0.0,210.0,5.0,0.0
5978,75.0,0.0,210.0,3.0,0.0
5979,78.0,0.0,210.0,0.0,0.0
5980,68.0,0.0,210.0,4.0,0.0
5981,44.0,0.0,210.0,5.0,0.0
5982,84.0,80.0,60.0,6.0,0.0
5983,87.0,80.0,60.0,6.0,0.0
5984,90.0,80.0,60.0,6.0,0.0
5985,87.0,80.0,60.0,6.0,0.0
5986,84.0,80.0,60.0,6.0,0.0
5987,81.0,80.0,60.0,6.0,0.0
5988,90.0,80.0,60.0,6.0,0.0
5989,87.0,80.0,60.0,6.0,0.0
5990,85.0,80.0,60.0,6.0,0.0
5991,84.0,80.0,60.0,6.0,0.0
5992,82.0,80.0,60.0,6.0,0.0
5993,80.0,80.0,60.0,6.0,0.0
5994,84.0,80.0,60.0,6.0,0.0
5995,85.0,80.0,60.0,6.0,0.0
5996,88.0,80.0,60.0,6.0,0.0
5997,85.0,80.0,60.0,6.0,0.0
5998,84.0,80.0,60.0,6.0,0.0
5999,80.0,80.0,60.0,6.0,0.0
6000,88.0,80.0,60.0,6.0,0.0
6001,85.0,80.0,60.0,6.0,0.0
6002,83.0,80.0,60.0,6.0,0.0
6003,82.0,80.0,60.0,6.0,0.0
6004,80.0,80.0,60.0,6.0,0.0
6005,79.0,80.0,60.0,6.0,0.0
6006,82.0,80.0,60.0,6.0,0.0
6007,85.0,80.0,60.0,6.0,0.0
6008,88.0,80.0,60.0,6.0,0.0
6009,85.0,80.0,60.0,6.0,0.0
6010,82.0,80.0,60.0,6.0,0.0
6011,79.0,80.0,60.0,6.0,0.0
6012,88.0,80.0,60.0,6.0,0.0
6013,85.0,80.0,60.0,6.0,0.0
6014,82.0,80.0,60.0,6.0,0.0
6015,80.0,80.0,60.0,6.0,0.0
6016,79.0,80.0,60.0,6.0,0.0
6017,78.0,80.0,60.0,6.0,0.0
6018,81.0,80.0,60.0,6.0,0.0
6019,84.0,80.0,60.0,6.0,0.0
6020,87.0,80.0,60.0,6.0,0.0
6021,84.0,80.0,60.0,6.0,0.0
6022,81.0,80.0,60.0,6.0,0.0
6023,78.0,80.0,60.0,6.0,0.0
6024,87.0,80.0,60.0,6.0,0.0
6025,84.0,80.0,60.0,6.0,0.0
6026,81.0,80.0,60.0,6.0,0.0
6027,80.0,80.0,60.0,6.0,0.0
6028,78.0,80.0,60.0,6.0,0.0
6029,77.0,80.0,60.0,6.0,0.0
6030,80.0,80.0,60.0,6.0,0.0
6031,83.0,80.0,60.0,6.0,0.0
6032,86.0,80.0,60.0,6.0,0.0
6033,83.0,80.0,60.0,6.0,0.0
6034,80.0,80.0,60.0,6.0,0.0
6035,77.0,80.0,60.0,6.0,0.0
6036,86.0,80.0,60.0,6.0,0.0
6037,83.0,80.0,60.0,6.0,0.0
6038,80.0,80.0,60.0,6.0,0.0
6039,78.0,80.0,60.0,6.0,0.0
6040,77.0,80.0,60.0,6.0,0.0
6041,44.0,0.0,210.0,10.0,0.0
6042,76.0,80.0,60.0,6.0,0.0
6043,79.0,64.0,60.0,6.0,0.0
6044,82.0,80.0,60.0,6.0,0.0
6045,85.0,80.0,60.0,6.0,0.0
6046,82.0,80.0,60.0,6.0,0.0
6047,79.0,80.0,60.0,6.0,0.0
6048,76.0,80.0,60.0,6.0,0.0
6049,85.0,80.0,60.0,6.0,0.0
6050,82.0,80.0,60.0,6.0,0.0
6051,79.0,80.0,60.0,6.0,0.0
6052,76.0,80.0,60.0,6.0,0.0
6053,75.0,80.0,60.0,6.0,0.0
6054,84.0,80.0,60.0,6.0,0.0
6055,81.0,80.0,60.0,6.0,0.0
6056,80.0,80.0,60.0,6.0,0.0
6057,78.0,80.0,60.0,6.0,0.0
6058,76.0,80.0,60.0,6.0,0.0
6059,75.0,80.0,60.0,6.0,0.0
6060,81.0,80.0,60.0,6.0,0.0
6061,78.0,80.0,60.0,6.0,0.0
6062,76.0,80.0,60.0,6.0,0.0
6063,75.0,80.0,60.0,6.0,0.0
6064,73.0,80.0,60.0,6.0,0.0
6065,72.0,80.0,60.0,6.0,0.0
6066,78.0,80.0,60.0,6.0,0.0
6067,75.0,80.0,60.0,6.0,0.0
6068,73.0,80.0,60.0,6.0,0.0
6069,72.0,80.0,60.0,6.0,0.0
6070,70.0,80.0,60.0,6.0,0.0
6071,68.0,80.0,60.0,6.0,0.0
6072,69.0,80.0,60.0,6.0,0.0
6073,78.0,80.0,60.0,6.0,0.0
6074,75.0,80.0,60.0,6.0,0.0
6075,72.0,80.0,60.0,6.0,0.0
6076,69.0,80.0,60.0,6.0,0.0
6077,68.0,80.0,60.0,6.0,0.0
6078,66.0,80.0,60.0,6.0,0.0
6079,75.0,80.0,60.0,6.0,0.0
6080,72.0,80.0,60.0,6.0,0.0
6081,69.0,80.0,60.0,6.0,0.0
6082,68.0,80.0,60.0,6.0,0.0
6083,66.0,80.0,60.0,6.0,0.0
6084,64.0,80.0,60.0,6.0,0.0
6085,73.0,80.0,60.0,6.0,0.0
6086,70.0,80.0,60.0,6.0,0.0
6087,67.0,80.0,60.0,6.0,0.0
6088,64.0,80.0,60.0,6.0,0.0
6089,63.0,80.0,60.0,6.0,0.0
6090,61.0,80.0,60.0,6.0,0.0
6091,70.0,80.0,60.0,6.0,0.0
6092,67.0,80.0,60.0,6.0,0.0
6093,64.0,80.0,60.0,8.0,0.0
6094,63.0,80.0,60.0,8.0,0.0
6095,61.0,224.0,60.0,8.0,0.0
6096,42.0,0.0,210.0,10.0,0.0
6097,56.0,48.0,210.0,8.0,0.0
6098,60.0,0.0,210.0,8.0,0.0
6099,68.0,27.0,20.0,6.0,0.0
6100,70.0,27.0,20.0,6.0,0.0
6101,72.0,27.0,20.0,6.0,0.0
6102,73.0,27.0,20.0,6.0,0.0
6103,75.0,27.0,20.0,6.0,0.0
6104,76.0,27.0,20.0,6.0,0.0
6105,78.0,27.0,20.0,6.0,0.0
6106,76.0,27.0,20.0,6.0,0.0
6107,75.0,57.0,20.0,6.0,0.0
6108,81.0,267.0,60.0,6.0,0.0
6109,80.0,18.0,270.0,6.0,0.0
6110,78.0,10.0,15.0,6.0,0.0
6111,76.0,10.0,15.0,6.0,0.0
6112,75.0,82.0,15.0,6.0,0.0
6113,76.0,18.0,90.0,6.0,0.0
6114,75.0,10.0,15.0,6.0,0.0
6115,73.0,10.0,15.0,6.0,0.0
6116,72.0,457.0,15.0,6.0,0.0
6117,73.0,30.0,510.0,6.0,0.0
6118,70.0,0.0,210.0,6.0,0.0
6119,64.0,0.0,210.0,6.0,0.0
6120,61.0,0.0,210.0,10.0,0.0
6121,58.0,51.0,210.0,10.0,0.0
6122,55.0,0.0,210.0,10.0,0.0
6123,68.0,0.0,120.0,6.0,0.0
6124,64.0,0.0,120.0,10.0,0.0
6125,56.0,21.0,210.0,10.0,0.0
6126,61.0,9.0,120.0,10.0,0.0
6127,72.0,30.0,30.0,6.0,0.0
6128,73.0,21.0,30.0,6.0,0.0
6129,76.0,30.0,30.0,6.0,0.0
6130,75.0,30.0,30.0,6.0,0.0
6131,73.0,30.0,30.0,6.0,0.0
6132,72.0,9.0,30.0,6.0,0.0
6133,70.0,57.0,30.0,6.0,0.0
6134,78.0,114.0,60.0,6.0,0.0
6135,75.0,66.0,120.0,6.0,0.0
6136,70.0,222.0,60.0,6.0,0.0
6137,66.0,0.0,420.0,10.0,0.0
6138,63.0,0.0,420.0,10.0,0.0
6139,73.0,186.0,210.0,6.0,0.0
6140,68.0,0.0,420.0,6.0,0.0
6141,56.0,42.0,420.0,10.0,0.0
6142,72.0,30.0,150.0,6.0,0.0
6143,73.0,222.0,60.0,6.0,0.0
6144,61.0,0.0,210.0,10.0,0.0
6145,49.0,24.0,420.0,10.0,0.0
6146,37.0,0.0,420.0,5.0,0.0
6147,49.0,0.0,420.0,5.0,0.0
6148,73.0,0.0,210.0,6.0,0.0
6149,64.0,216.0,210.0,6.0,0.0
6150,68.0,0.0,210.0,6.0,0.0
6151,61.0,0.0,210.0,4.0,0.0
6152,69.0,0.0,210.0,6.0,0.0
6153,69.0,240.0,210.0,4.0,0.0
6154,36.0,0.0,420.0,5.0,0.0
6155,68.0,216.0,210.0,4.0,0.0
6156,48.0,0.0,420.0,5.0,0.0
6157,48.0,24.0,420.0,10.0,0.0
6158,68.0,0.0,210.0,6.0,0.0
6159,66.0,0.0,210.0,6.0,0.0
6160,66.0,240.0,210.0,4.0,0.0
6161,49.0,0.0,210.0,10.0,0.0
6162,49.0,216.0,210.0,5.0,0.0
6163,64.0,0.0,210.0,6.0,0.0
6164,37.0,0.0,210.0,5.0,0.0
6165,64.0,24.0,420.0,4.0,0.0
6166,42.0,0.0,210.0,5.0,0.0
6167,54.0,0.0,210.0,5.0,0.0
6168,61.0,0.0,210.0,10.0,0.0
6169,81.0,0.0,210.0,2.0,0.0
6170,54.0,0.0,210.0,10.0,0.0
6171,78.0,0.0,420.0,3.0,0.0
6172,81.0,0.0,420.0,6.0,0.0
6173,78.0,24.0,420.0,7.0,0.0
6174,73.0,216.0,210.0,6.0,0.0
6175,68.0,0.0,420.0,10.0,0.0
6176,63.0,24.0,420.0,4.0,0.0
6177,56.0,0.0,690.0,10.0,0.0
6178,44.0,0.0,690.0,5.0,0.0
6179,56.0,0.0,690.0,5.0,0.0
6180,71.0,0.0,420.0,6.0,0.0
6181,71.0,132.0,210.0,2.0,0.0
6182,80.0,12.0,210.0,2.0,0.0
6183,80.0,84.0,120.0,6.0,0.0
6184,76.0,0.0,120.0,7.0,0.0
6185,76.0,0.0,450.0,3.0,0.0
6186,75.0,228.0,120.0,7.0,0.0
6187,78.0,0.0,120.0,6.0,0.0
6188,76.0,0.0,210.0,6.0,0.0
6189,61.0,0.0,420.0,4.0,0.0
6190,69.0,0.0,210.0,2.0,0.0
6191,69.0,24.0,420.0,10.0,0.0
6192,73.0,132.0,210.0,7.0,0.0
6193,75.0,0.0,210.0,7.0,0.0
6194,78.0,0.0,210.0,2.0,0.0
6195,54.0,0.0,120.0,10.0,0.0
6196,54.0,24.0,420.0,5.0,0.0
6197,75.0,84.0,120.0,3.0,0.0
6198,78.0,12.0,210.0,6.0,0.0
6199,42.0,0.0,420.0,5.0,0.0
6200,52.0,0.0,120.0,10.0,0.0
6201,73.0,204.0,120.0,3.0,0.0
6202,75.0,0.0,690.0,3.0,0.0
6203,72.0,0.0,420.0,7.0,0.0
6204,68.0,24.0,1140.0,6.0,0.0
6205,54.0,0.0,210.0,10.0,0.0
6206,75.0,0.0,690.0,7.0,0.0
6207,60.0,24.0,420.0,4.0,0.0
6208,68.0,132.0,210.0,2.0,0.0
6209,40.0,0.0,120.0,5.0,0.0
6210,78.0,0.0,210.0,6.0,0.0
6211,56.0,0.0,210.0,10.0,0.0
6212,52.0,84.0,120.0,5.0,0.0
6213,78.0,12.0,210.0,2.0,0.0
6214,51.0,0.0,120.0,5.0,0.0
6215,39.0,228.0,120.0,5.0,0.0
6216,37.0,0.0,420.0,5.0,0.0
6217,49.0,24.0,420.0,5.0,0.0
6218,61.0,0.0,210.0,4.0,0.0
6219,49.0,0.0,210.0,10.0,0.0
6220,76.0,132.0,210.0,2.0,0.0
6221,76.0,0.0,420.0,6.0,0.0
6222,73.0,0.0,120.0,7.0,0.0
6223,61.0,12.0,210.0,10.0,0.0
6224,68.0,24.0,420.0,2.0,0.0
6225,73.0,84.0,120.0,3.0,0.0
6226,64.0,0.0,210.0,4.0,0.0
6227,71.0,120.0,120.0,7.0,0.0
6228,71.0,0.0,120.0,3.0,0.0
6229,63.0,12.0,210.0,10.0,0.0
6230,75.0,0.0,690.0,6.0,0.0
6231,39.0,0.0,420.0,5.0,0.0
6232,70.0,24.0,420.0,7.0,0.0
6233,51.0,0.0,420.0,5.0,0.0
6234,70.0,60.0,120.0,3.0,0.0
6235,76.0,120.0,120.0,3.0,0.0
6236,58.0,0.0,210.0,4.0,0.0
6237,67.0,12.0,210.0,6.0,0.0
6238,75.0,84.0,120.0,3.0,0.0
6239,67.0,0.0,210.0,2.0,0.0
6240,51.0,0.0,210.0,10.0,0.0
6241,73.0,228.0,120.0,3.0,0.0
6242,71.0,0.0,210.0,7.0,0.0
6243,80.0,0.0,210.0,0.0,0.0
6244,44.0,0.0,210.0,5.0,0.0
6245,80.0,0.0,210.0,1.0,0.0
6246,56.0,24.0,420.0,10.0,0.0
6247,56.0,0.0,420.0,4.0,0.0
6248,32.0,0.0,210.0,5.0,0.0
6249,71.0,132.0,210.0,3.0,0.0
6250,68.0,0.0,210.0,6.0,0.0
6251,68.0,0.0,210.0,2.0,0.0
6252,88.0,0.0,210.0,1.0,0.0
6253,70.0,84.0,120.0,3.0,0.0
6254,88.0,12.0,210.0,0.0,0.0
6255,68.0,228.0,120.0,3.0,0.0
6256,87.0,0.0,210.0,1.0,0.0
6257,87.0,216.0,210.0,0.0,0.0
6258,55.0,24.0,420.0,10.0,0.0
6259,55.0,0.0,420.0,4.0,0.0
6260,70.0,0.0,420.0,3.0,0.0
6261,85.0,240.0,210.0,0.0,0.0
6262,85.0,0.0,210.0,1.0,0.0
6263,68.0,216.0,210.0,3.0,0.0
6264,56.0,0.0,210.0,4.0,0.0
6265,83.0,24.0,420.0,1.0,0.0
6266,83.0,0.0,420.0,0.0,0.0
6267,56.0,0.0,210.0,10.0,0.0
6268,76.0,24.0,420.0,3.0,0.0
6269,52.0,0.0,210.0,5.0,0.0
6270,68.0,0.0,210.0,4.0,0.0
6271,73.0,0.0,420.0,2.0,0.0
6272,64.0,0.0,210.0,10.0,0.0
6273,64.0,216.0,210.0,5.0,0.0
6274,54.0,216.0,210.0,10.0,0.0
6275,82.0,0.0,420.0,0.0,0.0
6276,70.0,0.0,210.0,4.0,0.0
6277,42.0,0.0,210.0,5.0,0.0
6278,54.0,0.0,210.0,5.0,0.0
6279,82.0,24.0,420.0,1.0,0.0
6280,51.0,240.0,210.0,5.0,0.0
6281,63.0,0.0,210.0,5.0,0.0
6282,63.0,0.0,210.0,10.0,0.0
6283,71.0,0.0,450.0,2.0,0.0
6284,66.0,0.0,210.0,4.0,0.0
6285,75.0,0.0,450.0,3.0,0.0
6286,52.0,0.0,210.0,5.0,0.0
6287,68.0,0.0,210.0,4.0,0.0
6288,80.0,0.0,420.0,0.0,0.0
6289,80.0,24.0,420.0,1.0,0.0
6290,52.0,0.0,210.0,10.0,0.0
6291,40.0,132.0,210.0,5.0,0.0
6292,61.0,0.0,210.0,10.0,0.0
6293,61.0,12.0,210.0,5.0,0.0
6294,73.0,24.0,420.0,3.0,0.0
6295,64.0,0.0,210.0,4.0,0.0
6296,49.0,0.0,210.0,5.0,0.0
6297,70.0,84.0,120.0,2.0,0.0
6298,68.0,204.0,120.0,2.0,0.0
6299,63.0,0.0,690.0,4.0,0.0
6300,51.0,132.0,210.0,10.0,0.0
6301,79.0,0.0,420.0,1.0,0.0
6302,79.0,24.0,420.0,0.0,0.0
6303,39.0,0.0,210.0,5.0,0.0
6304,70.0,0.0,420.0,2.0,0.0
6305,51.0,0.0,210.0,5.0,0.0
6306,61.0,0.0,210.0,10.0,0.0
6307,71.0,84.0,120.0,3.0,0.0
6308,49.0,0.0,210.0,5.0,0.0
6309,61.0,12.0,210.0,5.0,0.0
6310,70.0,228.0,120.0,3.0,0.0
6311,80.0,0.0,420.0,1.0,0.0
6312,47.0,0.0,210.0,5.0,0.0
6313,59.0,0.0,210.0,10.0,0.0
6314,71.0,216.0,210.0,3.0,0.0
6315,68.0,0.0,210.0,2.0,0.0
6316,59.0,0.0,210.0,5.0,0.0
6317,80.0,24.0,420.0,0.0,0.0
6318,56.0,0.0,210.0,5.0,0.0
6319,59.0,216.0,210.0,4.0,0.0
6320,76.0,24.0,420.0,2.0,0.0
6321,44.0,0.0,210.0,5.0,0.0
6322,56.0,0.0,210.0,10.0,0.0
6323,58.0,0.0,210.0,10.0,0.0
6324,78.0,24.0,420.0,0.0,0.0
6325,46.0,216.0,210.0,5.0,0.0
6326,58.0,0.0,210.0,5.0,0.0
6327,78.0,0.0,420.0,1.0,0.0
6328,61.0,0.0,210.0,4.0,0.0
6329,48.0,0.0,210.0,5.0,0.0
6330,60.0,0.0,210.0,5.0,0.0
6331,75.0,240.0,210.0,2.0,0.0
6332,63.0,0.0,210.0,4.0,0.0
6333,60.0,0.0,210.0,10.0,0.0
6334,68.0,0.0,450.0,3.0,0.0
6335,64.0,216.0,210.0,4.0,0.0
6336,73.0,0.0,210.0,2.0,0.0
6337,76.0,24.0,420.0,0.0,0.0
6338,61.0,0.0,210.0,5.0,0.0
6339,49.0,0.0,210.0,5.0,0.0
6340,76.0,0.0,420.0,1.0,0.0
6341,61.0,0.0,210.0,10.0,0.0
6342,71.0,0.0,210.0,3.0,0.0
6343,62.0,0.0,210.0,10.0,0.0
6344,62.0,240.0,210.0,5.0,0.0
6345,68.0,0.0,210.0,4.0,0.0
6346,50.0,0.0,210.0,5.0,0.0
6347,49.0,0.0,210.0,5.0,0.0
6348,77.0,0.0,420.0,1.0,0.0
6349,61.0,0.0,210.0,5.0,0.0
6350,69.0,216.0,210.0,3.0,0.0
6351,77.0,0.0,420.0,0.0,0.0
6352,73.0,24.0,420.0,4.0,0.0
6353,61.0,0.0,210.0,10.0,0.0
6354,68.0,0.0,210.0,3.0,0.0
6355,47.0,0.0,210.0,5.0,0.0
6356,59.0,0.0,210.0,10.0,0.0
6357,59.0,132.0,210.0,5.0,0.0
6358,78.0,0.0,210.0,1.0,0.0
6359,73.0,0.0,210.0,2.0,0.0
6360,57.0,0.0,210.0,10.0,0.0
6361,78.0,0.0,210.0,0.0,0.0
6362,73.0,108.0,120.0,4.0,0.0
6363,66.0,0.0,210.0,3.0,0.0
6364,57.0,12.0,210.0,5.0,0.0
6365,45.0,0.0,210.0,5.0,0.0
6366,72.0,120.0,120.0,4.0,0.0
6367,44.0,0.0,120.0,5.0,0.0
6368,73.0,24.0,420.0,4.0,0.0
6369,56.0,108.0,120.0,10.0,0.0
6370,81.0,0.0,210.0,2.0,0.0
6371,56.0,0.0,120.0,5.0,0.0
6372,64.0,12.0,210.0,3.0,0.0
6373,42.0,0.0,120.0,5.0,0.0
6374,54.0,120.0,120.0,10.0,0.0
6375,54.0,0.0,120.0,5.0,0.0
6376,44.0,0.0,420.0,5.0,0.0
6377,56.0,24.0,420.0,5.0,0.0
6378,80.0,12.0,210.0,2.0,0.0
6379,56.0,0.0,420.0,10.0,0.0
6380,63.0,84.0,120.0,3.0,0.0
6381,61.0,204.0,120.0,3.0,0.0
6382,78.0,132.0,210.0,2.0,0.0
6383,72.0,0.0,210.0,4.0,0.0
6384,63.0,0.0,210.0,3.0,0.0
6385,61.0,0.0,420.0,3.0,0.0
6386,73.0,108.0,120.0,4.0,0.0
6387,76.0,24.0,420.0,2.0,0.0
6388,37.0,0.0,210.0,5.0,0.0
6389,49.0,0.0,210.0,10.0,0.0
6390,49.0,12.0,210.0,5.0,0.0
6391,71.0,204.0,120.0,4.0,0.0
6392,54.0,0.0,420.0,10.0,0.0
6393,69.0,0.0,420.0,4.0,0.0
6394,54.0,24.0,420.0,5.0,0.0
6395,42.0,0.0,420.0,5.0,0.0
6396,81.0,216.0,210.0,0.0,0.0
6397,81.0,0.0,210.0,1.0,0.0
6398,63.0,0.0,210.0,3.0,0.0
6399,75.0,24.0,420.0,2.0,0.0
6400,71.0,0.0,210.0,0.0,0.0
6401,71.0,216.0,210.0,1.0,0.0
6402,64.0,0.0,450.0,3.0,0.0
6403,40.0,0.0,450.0,5.0,0.0
6404,52.0,0.0,450.0,10.0,0.0
6405,80.0,0.0,210.0,1.0,0.0
6406,80.0,240.0,210.0,0.0,0.0
6407,68.0,0.0,450.0,4.0,0.0
6408,52.0,0.0,450.0,5.0,0.0
6409,69.0,132.0,210.0,1.0,0.0
6410,69.0,0.0,210.0,0.0,0.0
6411,73.0,24.0,420.0,2.0,0.0
6412,51.0,0.0,120.0,10.0,0.0
6413,66.0,24.0,420.0,4.0,0.0
6414,66.0,0.0,120.0,3.0,0.0
6415,51.0,84.0,120.0,5.0,0.0
6416,39.0,0.0,120.0,5.0,0.0
6417,78.0,12.0,210.0,0.0,0.0
6418,78.0,0.0,210.0,1.0,0.0
6419,37.0,0.0,120.0,5.0,0.0
6420,49.0,0.0,120.0,5.0,0.0
6421,49.0,0.0,120.0,10.0,0.0
6422,64.0,204.0,120.0,3.0,0.0
6423,72.0,24.0,420.0,2.0,0.0
6424,63.0,0.0,420.0,3.0,0.0
6425,68.0,0.0,210.0,1.0,0.0
6426,68.0,0.0,210.0,0.0,0.0
6427,39.0,0.0,210.0,5.0,0.0
6428,51.0,0.0,210.0,5.0,0.0
6429,51.0,132.0,210.0,10.0,0.0
6430,32.0,0.0,210.0,5.0,0.0
6431,44.0,12.0,210.0,5.0,0.0
6432,44.0,0.0,210.0,10.0,0.0
6433,78.0,0.0,210.0,0.0,0.0
6434,64.0,84.0,120.0,4.0,0.0
6435,78.0,0.0,210.0,1.0,0.0
6436,63.0,120.0,120.0,4.0,0.0
6437,49.0,0.0,120.0,10.0,0.0
6438,64.0,108.0,120.0,4.0,0.0
6439,76.0,12.0,210.0,0.0,0.0
6440,49.0,0.0,420.0,5.0,0.0
6441,76.0,0.0,210.0,1.0,0.0
6442,73.0,24.0,420.0,2.0,0.0
6443,61.0,0.0,120.0,3.0,0.0
6444,37.0,0.0,420.0,5.0,0.0
6445,51.0,0.0,120.0,10.0,0.0
6446,63.0,0.0,120.0,3.0,0.0
6447,66.0,120.0,120.0,4.0,0.0
6448,52.0,0.0,120.0,10.0,0.0
6449,68.0,24.0,420.0,4.0,0.0
6450,64.0,84.0,120.0,3.0,0.0
6451,73.0,12.0,210.0,0.0,0.0
6452,73.0,0.0,210.0,1.0,0.0
6453,61.0,204.0,120.0,3.0,0.0
6454,49.0,0.0,120.0,10.0,0.0
6455,75.0,216.0,210.0,1.0,0.0
6456,56.0,0.0,210.0,10.0,0.0
6457,68.0,0.0,420.0,3.0,0.0
6458,71.0,24.0,420.0,2.0,0.0
6459,75.0,0.0,210.0,0.0,0.0
6460,49.0,0.0,210.0,10.0,0.0
6461,61.0,240.0,210.0,4.0,0.0
6462,77.0,0.0,210.0,1.0,0.0
6463,77.0,0.0,210.0,0.0,0.0
6464,78.0,0.0,1170.0,0.0,0.0
6465,66.0,0.0,210.0,4.0,0.0
6466,69.0,24.0,420.0,2.0,0.0
6467,66.0,216.0,210.0,3.0,0.0
6468,54.0,0.0,420.0,10.0,0.0
6469,78.0,0.0,1170.0,1.0,0.0
6470,68.0,0.0,210.0,4.0,0.0
6471,76.0,240.0,210.0,3.0,0.0
6472,42.0,0.0,420.0,10.0,0.0
6473,75.0,0.0,210.0,3.0,0.0
6474,70.0,0.0,420.0,2.0,0.0
6475,30.0,24.0,420.0,5.0,0.0
6476,42.0,0.0,420.0,5.0,0.0
6477,66.0,216.0,210.0,4.0,0.0
6478,73.0,0.0,210.0,3.0,0.0
6479,64.0,240.0,210.0,4.0,0.0
6480,35.0,24.0,420.0,5.0,0.0
6481,47.0,0.0,420.0,5.0,0.0
6482,47.0,0.0,210.0,10.0,0.0
6483,71.0,0.0,210.0,3.0,0.0
6484,71.0,0.0,210.0,2.0,0.0
6485,63.0,216.0,210.0,4.0,0.0
6486,63.0,0.0,210.0,3.0,0.0
6487,85.0,0.0,210.0,0.0,0.0
6488,59.0,0.0,210.0,4.0,0.0
6489,81.0,0.0,210.0,2.0,0.0
6490,59.0,0.0,210.0,10.0,0.0
6491,85.0,240.0,210.0,1.0,0.0
6492,83.0,0.0,210.0,0.0,0.0
6493,61.0,0.0,210.0,10.0,0.0
6494,80.0,0.0,210.0,2.0,0.0
6495,83.0,240.0,210.0,1.0,0.0
6496,61.0,0.0,210.0,4.0,0.0
6497,64.0,0.0,210.0,3.0,0.0
6498,63.0,0.0,210.0,4.0,0.0
6499,66.0,0.0,210.0,3.0,0.0
6500,78.0,132.0,210.0,2.0,0.0
6501,63.0,0.0,210.0,10.0,0.0
6502,81.0,0.0,210.0,1.0,0.0
6503,81.0,0.0,210.0,0.0,0.0
6504,68.0,0.0,210.0,3.0,0.0
6505,80.0,0.0,210.0,0.0,0.0
6506,64.0,12.0,210.0,4.0,0.0
6507,64.0,0.0,210.0,10.0,0.0
6508,80.0,0.0,210.0,1.0,0.0
6509,76.0,108.0,120.0,2.0,0.0
6510,78.0,120.0,120.0,2.0,0.0
6511,70.0,108.0,120.0,3.0,0.0
6512,61.0,12.0,210.0,4.0,0.0
6513,88.0,0.0,210.0,0.0,0.0
6514,80.0,24.0,420.0,2.0,0.0
6515,88.0,0.0,210.0,1.0,0.0
6516,61.0,0.0,210.0,10.0,0.0
6517,71.0,120.0,120.0,3.0,0.0
6518,63.0,0.0,690.0,4.0,0.0
6519,63.0,0.0,210.0,10.0,0.0
6520,70.0,84.0,120.0,3.0,0.0
6521,39.0,0.0,420.0,5.0,0.0
6522,87.0,12.0,210.0,1.0,0.0
6523,87.0,0.0,210.0,0.0,0.0
6524,51.0,24.0,420.0,5.0,0.0
6525,68.0,204.0,120.0,3.0,0.0
6526,85.0,0.0,210.0,1.0,0.0
6527,51.0,0.0,210.0,10.0,0.0
6528,70.0,0.0,210.0,3.0,0.0
6529,79.0,0.0,210.0,2.0,0.0
6530,85.0,240.0,210.0,0.0,0.0
6531,68.0,48.0,870.0,3.0,0.0
6532,83.0,24.0,420.0,0.0,0.0
6533,83.0,0.0,420.0,1.0,0.0
6534,32.0,0.0,420.0,5.0,0.0
6535,44.0,0.0,420.0,5.0,0.0
6536,80.0,216.0,210.0,2.0,0.0
6537,56.0,0.0,210.0,10.0,0.0
6538,66.0,240.0,210.0,4.0,0.0
6539,54.0,0.0,210.0,10.0,0.0
6540,81.0,0.0,210.0,2.0,0.0
6541,84.0,24.0,420.0,0.0,0.0
6542,84.0,0.0,420.0,1.0,0.0
6543,64.0,0.0,210.0,4.0,0.0
6544,52.0,0.0,210.0,10.0,0.0
6545,80.0,168.0,210.0,2.0,0.0
6546,51.0,0.0,210.0,10.0,0.0
6547,63.0,0.0,210.0,4.0,0.0
6548,78.0,132.0,210.0,2.0,0.0
6549,37.0,0.0,210.0,5.0,0.0
6550,49.0,0.0,210.0,5.0,0.0
6551,85.0,0.0,210.0,1.0,0.0
6552,69.0,0.0,420.0,3.0,0.0
6553,77.0,108.0,120.0,2.0,0.0
6554,61.0,24.0,420.0,4.0,0.0
6555,85.0,0.0,210.0,0.0,0.0
6556,49.0,12.0,210.0,10.0,0.0
6557,73.0,204.0,120.0,2.0,0.0
6558,57.0,0.0,210.0,10.0,0.0
6559,45.0,216.0,210.0,5.0,0.0
6560,78.0,24.0,420.0,2.0,0.0
6561,57.0,0.0,210.0,5.0,0.0
6562,44.0,0.0,210.0,5.0,0.0
6563,63.0,24.0,420.0,3.0,0.0
6564,56.0,216.0,210.0,5.0,0.0
6565,56.0,0.0,210.0,10.0,0.0
6566,68.0,132.0,690.0,4.0,0.0
6567,54.0,0.0,210.0,5.0,0.0
6568,42.0,0.0,210.0,5.0,0.0
6569,72.0,240.0,210.0,2.0,0.0
6570,54.0,0.0,210.0,10.0,0.0
6571,61.0,0.0,210.0,3.0,0.0
6572,52.0,24.0,420.0,10.0,0.0
6573,52.0,0.0,420.0,5.0,0.0
6574,40.0,0.0,420.0,5.0,0.0
6575,73.0,0.0,210.0,2.0,0.0
6576,66.0,84.0,120.0,4.0,0.0
6577,78.0,24.0,420.0,3.0,0.0
6578,85.0,0.0,210.0,2.0,0.0
6579,81.0,0.0,210.0,1.0,0.0
6580,81.0,12.0,210.0,0.0,0.0
6581,64.0,204.0,120.0,4.0,0.0
6582,66.0,216.0,210.0,4.0,0.0
6583,83.0,24.0,420.0,2.0,0.0
6584,51.0,0.0,420.0,10.0,0.0
6585,39.0,0.0,420.0,5.0,0.0
6586,51.0,0.0,420.0,5.0,0.0
6587,90.0,0.0,210.0,1.0,0.0
6588,90.0,0.0,210.0,0.0,0.0
6589,80.0,0.0,210.0,0.0,0.0
6590,76.0,0.0,450.0,3.0,0.0
6591,71.0,240.0,210.0,4.0,0.0
6592,80.0,0.0,210.0,1.0,0.0
6593,49.0,0.0,420.0,10.0,0.0
6594,73.0,0.0,210.0,4.0,0.0
6595,88.0,0.0,210.0,1.0,0.0
6596,49.0,24.0,420.0,5.0,0.0
6597,81.0,48.0,660.0,2.0,0.0
6598,37.0,0.0,420.0,5.0,0.0
6599,88.0,132.0,210.0,0.0,0.0
6600,78.0,0.0,210.0,0.0,0.0
6601,75.0,84.0,120.0,3.0,0.0
6602,78.0,12.0,210.0,1.0,0.0
6603,69.0,0.0,210.0,4.0,0.0
6604,73.0,180.0,120.0,3.0,0.0
6605,36.0,0.0,420.0,5.0,0.0
6606,66.0,132.0,210.0,4.0,0.0
6607,87.0,0.0,420.0,1.0,0.0
6608,75.0,0.0,210.0,3.0,0.0
6609,48.0,24.0,420.0,5.0,0.0
6610,48.0,0.0,420.0,10.0,0.0
6611,87.0,0.0,420.0,0.0,0.0
6612,80.0,84.0,120.0,2.0,0.0
6613,80.0,0.0,210.0,3.0,0.0
6614,63.0,12.0,210.0,4.0,0.0
6615,78.0,120.0,120.0,2.0,0.0
6616,68.0,24.0,420.0,4.0,0.0
6617,37.0,0.0,210.0,5.0,0.0
6618,87.0,108.0,120.0,0.0,0.0
6619,49.0,0.0,210.0,10.0,0.0
6620,80.0,0.0,210.0,3.0,0.0
6621,87.0,0.0,120.0,1.0,0.0
6622,76.0,12.0,210.0,2.0,0.0
6623,49.0,0.0,210.0,5.0,0.0
6624,80.0,0.0,120.0,1.0,0.0
6625,80.0,204.0,120.0,0.0,0.0
6626,77.0,0.0,210.0,3.0,0.0
6627,61.0,0.0,210.0,5.0,0.0
6628,85.0,24.0,420.0,0.0,0.0
6629,49.0,216.0,210.0,5.0,0.0
6630,85.0,0.0,420.0,1.0,0.0
6631,61.0,0.0,210.0,10.0,0.0
6632,81.0,0.0,420.0,2.0,0.0
6633,63.0,0.0,210.0,5.0,0.0
6634,51.0,240.0,210.0,5.0,0.0
6635,63.0,0.0,210.0,10.0,0.0
6636,66.0,0.0,210.0,4.0,0.0
6637,78.0,0.0,210.0,3.0,0.0
6638,80.0,0.0,450.0,2.0,0.0
6639,61.0,0.0,210.0,4.0,0.0
6640,53.0,0.0,210.0,5.0,0.0
6641,83.0,240.0,210.0,0.0,0.0
6642,80.0,0.0,210.0,3.0,0.0
6643,83.0,0.0,210.0,1.0,0.0
6644,65.0,0.0,210.0,5.0,0.0
6645,65.0,0.0,210.0,10.0,0.0
6646,66.0,0.0,210.0,10.0,0.0
6647,73.0,24.0,420.0,3.0,0.0
6648,54.0,0.0,210.0,5.0,0.0
6649,66.0,108.0,600.0,4.0,0.0
6650,81.0,0.0,1170.0,1.0,0.0
6651,81.0,108.0,1170.0,0.0,0.0
6652,66.0,216.0,210.0,5.0,0.0
6653,73.0,0.0,210.0,2.0,0.0
6654,52.0,0.0,210.0,5.0,0.0
6655,64.0,0.0,210.0,10.0,0.0
6656,64.0,132.0,210.0,5.0,0.0
6657,78.0,0.0,210.0,2.0,0.0
6658,51.0,0.0,210.0,5.0,0.0
6659,63.0,0.0,210.0,5.0,0.0
6660,72.0,12.0,210.0,3.0,0.0
6661,63.0,0.0,210.0,10.0,0.0
6662,68.0,228.0,120.0,4.0,0.0
6663,61.0,0.0,210.0,5.0,0.0
6664,61.0,240.0,210.0,10.0,0.0
6665,49.0,0.0,210.0,5.0,0.0
6666,73.0,0.0,210.0,3.0,0.0
6667,69.0,0.0,210.0,4.0,0.0
6668,76.0,0.0,210.0,2.0,0.0
6669,75.0,24.0,330.0,3.0,0.0
6670,60.0,0.0,420.0,5.0,0.0
6671,60.0,0.0,420.0,10.0,0.0
6672,63.0,0.0,210.0,4.0,0.0
6673,75.0,24.0,420.0,2.0,0.0
6674,48.0,0.0,420.0,5.0,0.0
6675,75.0,0.0,210.0,1.0,0.0
6676,75.0,12.0,210.0,0.0,0.0
6677,68.0,84.0,120.0,4.0,0.0
6678,73.0,0.0,120.0,3.0,0.0
6679,69.0,120.0,120.0,4.0,0.0
6680,80.0,0.0,210.0,1.0,0.0
6681,87.0,0.0,690.0,2.0,0.0
6682,68.0,0.0,120.0,4.0,0.0
6683,72.0,108.0,120.0,3.0,0.0
6684,80.0,12.0,210.0,0.0,0.0
6685,66.0,0.0,120.0,4.0,0.0
6686,70.0,120.0,120.0,3.0,0.0
6687,56.0,0.0,210.0,10.0,0.0
6688,78.0,12.0,210.0,0.0,0.0
6689,72.0,0.0,210.0,3.0,0.0
6690,78.0,0.0,210.0,1.0,0.0
6691,64.0,108.0,120.0,4.0,0.0
6692,44.0,0.0,210.0,5.0,0.0
6693,56.0,0.0,210.0,5.0,0.0
6694,63.0,120.0,120.0,4.0,0.0
6695,64.0,108.0,120.0,4.0,0.0
6696,49.0,0.0,210.0,5.0,0.0
6697,76.0,0.0,210.0,0.0,0.0
6698,61.0,12.0,210.0,5.0,0.0
6699,61.0,0.0,210.0,10.0,0.0
6700,80.0,24.0,420.0,3.0,0.0
6701,76.0,0.0,420.0,1.0,0.0
6702,66.0,120.0,120.0,4.0,0.0
6703,40.0,84.0,120.0,5.0,0.0
6704,85.0,24.0,420.0,2.0,0.0
6705,92.0,12.0,210.0,0.0,0.0
6706,52.0,0.0,120.0,5.0,0.0
6707,52.0,0.0,120.0,10.0,0.0
6708,68.0,0.0,420.0,4.0,0.0
6709,54.0,0.0,120.0,10.0,0.0
6710,42.0,0.0,120.0,5.0,0.0
6711,54.0,204.0,120.0,5.0,0.0
6712,56.0,0.0,210.0,10.0,0.0
6713,56.0,0.0,210.0,5.0,0.0
6714,75.0,0.0,420.0,1.0,0.0
6715,75.0,24.0,420.0,3.0,0.0
6716,68.0,0.0,420.0,1.0,0.0
6717,44.0,0.0,210.0,5.0,0.0
6718,80.0,216.0,210.0,0.0,0.0
6719,32.0,0.0,210.0,5.0,0.0
6720,84.0,0.0,210.0,2.0,0.0
6721,84.0,0.0,210.0,0.0,0.0
6722,44.0,0.0,210.0,10.0,0.0
6723,44.0,456.0,210.0,5.0,0.0
6724,66.0,0.0,210.0,4.0,0.0
6725,85.0,0.0,420.0,2.0,0.0
6726,64.0,0.0,420.0,4.0,0.0
6727,85.0,0.0,420.0,0.0,0.0
6728,49.0,0.0,420.0,10.0,0.0
6729,68.0,0.0,420.0,1.0,0.0
6730,64.0,0.0,420.0,1.0,0.0
6731,37.0,0.0,420.0,5.0,0.0
6732,49.0,0.0,420.0,5.0,0.0
6733,73.0,0.0,420.0,3.0,0.0
6734,73.0,0.0,420.0,1.0,0.0
