,note,step,duration,channel,velocity
0,32.0,0.0,60.0,4.0,0.0
1,44.0,0.0,60.0,3.0,0.0
2,59.0,60.0,180.0,2.0,0.0
3,56.0,30.0,30.0,1.0,0.0
4,44.0,0.0,60.0,8.0,0.0
5,56.0,0.0,30.0,7.0,0.0
6,58.0,30.0,30.0,7.0,0.0
7,58.0,0.0,30.0,1.0,0.0
8,59.0,30.0,30.0,1.0,0.0
9,44.0,0.0,60.0,4.0,0.0
10,56.0,0.0,60.0,3.0,0.0
11,56.0,0.0,60.0,8.0,0.0
12,59.0,0.0,30.0,7.0,0.0
13,61.0,0.0,30.0,7.0,0.0
14,61.0,60.0,30.0,1.0,0.0
15,63.0,0.0,60.0,7.0,0.0
16,42.0,0.0,60.0,4.0,0.0
17,54.0,0.0,60.0,3.0,0.0
18,54.0,0.0,60.0,8.0,0.0
19,63.0,0.0,60.0,1.0,0.0
20,40.0,30.0,60.0,4.0,0.0
21,68.0,0.0,60.0,1.0,0.0
22,52.0,0.0,60.0,8.0,0.0
23,61.0,0.0,60.0,2.0,0.0
24,52.0,0.0,60.0,3.0,0.0
25,68.0,0.0,60.0,7.0,0.0
26,51.0,0.0,30.0,8.0,0.0
27,67.0,30.0,60.0,1.0,0.0
28,63.0,0.0,60.0,2.0,0.0
29,51.0,30.0,30.0,3.0,0.0
30,67.0,0.0,60.0,7.0,0.0
31,39.0,0.0,30.0,4.0,0.0
32,37.0,0.0,30.0,4.0,0.0
33,49.0,0.0,30.0,8.0,0.0
34,49.0,0.0,30.0,3.0,0.0
35,51.0,30.0,30.0,3.0,0.0
36,51.0,0.0,30.0,8.0,0.0
37,39.0,0.0,30.0,4.0,0.0
38,63.0,0.0,60.0,7.0,0.0
39,58.0,0.0,60.0,2.0,0.0
40,63.0,0.0,60.0,1.0,0.0
41,52.0,0.0,30.0,8.0,0.0
42,40.0,30.0,30.0,4.0,0.0
43,52.0,0.0,30.0,3.0,0.0
44,55.0,30.0,60.0,2.0,0.0
45,39.0,30.0,30.0,4.0,0.0
46,58.0,0.0,60.0,1.0,0.0
47,51.0,0.0,30.0,3.0,0.0
48,58.0,0.0,60.0,7.0,0.0
49,51.0,0.0,30.0,8.0,0.0
50,49.0,0.0,30.0,3.0,0.0
51,37.0,0.0,30.0,4.0,0.0
52,49.0,0.0,30.0,8.0,0.0
53,47.0,0.0,30.0,8.0,0.0
54,35.0,0.0,30.0,4.0,0.0
55,61.0,0.0,60.0,1.0,0.0
56,61.0,0.0,60.0,7.0,0.0
57,47.0,30.0,30.0,3.0,0.0
58,46.0,30.0,30.0,3.0,0.0
59,34.0,0.0,30.0,4.0,0.0
60,46.0,0.0,30.0,8.0,0.0
61,60.0,0.0,60.0,1.0,0.0
62,44.0,0.0,30.0,8.0,0.0
63,32.0,30.0,30.0,4.0,0.0
64,44.0,0.0,30.0,3.0,0.0
65,60.0,30.0,60.0,7.0,0.0
66,42.0,0.0,30.0,8.0,0.0
67,42.0,0.0,30.0,3.0,0.0
68,30.0,0.0,30.0,4.0,0.0
69,44.0,30.0,30.0,3.0,0.0
70,60.0,0.0,30.0,2.0,0.0
71,44.0,0.0,30.0,8.0,0.0
72,32.0,0.0,30.0,4.0,0.0
73,56.0,0.0,60.0,1.0,0.0
74,56.0,0.0,60.0,7.0,0.0
75,33.0,0.0,30.0,4.0,0.0
76,45.0,30.0,30.0,3.0,0.0
77,61.0,0.0,30.0,2.0,0.0
78,45.0,0.0,30.0,8.0,0.0
79,32.0,30.0,30.0,4.0,0.0
80,63.0,0.0,60.0,2.0,0.0
81,66.0,0.0,180.0,7.0,0.0
82,66.0,0.0,180.0,1.0,0.0
83,44.0,0.0,30.0,8.0,0.0
84,44.0,0.0,30.0,3.0,0.0
85,42.0,0.0,30.0,8.0,0.0
86,42.0,0.0,30.0,3.0,0.0
87,30.0,30.0,30.0,4.0,0.0
88,56.0,0.0,60.0,2.0,0.0
89,41.0,0.0,30.0,3.0,0.0
90,41.0,30.0,30.0,8.0,0.0
91,29.0,0.0,30.0,4.0,0.0
92,27.0,30.0,30.0,4.0,0.0
93,39.0,0.0,30.0,8.0,0.0
94,39.0,0.0,30.0,3.0,0.0
95,37.0,0.0,540.0,3.0,0.0
96,61.0,29.0,30.0,2.0,0.0
97,37.0,1.0,60.0,8.0,0.0
98,25.0,29.0,540.0,4.0,0.0
99,60.0,30.0,30.0,2.0,0.0
100,47.0,1.0,60.0,8.0,0.0
101,61.0,0.0,30.0,2.0,0.0
102,65.0,0.0,30.0,1.0,0.0
103,65.0,29.0,30.0,7.0,0.0
104,63.0,30.0,30.0,1.0,0.0
105,63.0,0.0,30.0,2.0,0.0
106,63.0,0.0,30.0,7.0,0.0
107,65.0,0.0,60.0,7.0,0.0
108,49.0,1.0,180.0,8.0,0.0
109,65.0,0.0,60.0,1.0,0.0
110,61.0,30.0,30.0,2.0,0.0
111,59.0,30.0,30.0,2.0,0.0
112,61.0,0.0,60.0,7.0,0.0
113,61.0,30.0,60.0,1.0,0.0
114,58.0,30.0,30.0,2.0,0.0
115,56.0,0.0,30.0,2.0,0.0
116,58.0,0.0,60.0,1.0,0.0
117,58.0,0.0,60.0,7.0,0.0
118,55.0,29.0,30.0,2.0,0.0
119,56.0,30.0,30.0,2.0,0.0
120,61.0,30.0,60.0,7.0,0.0
121,58.0,30.0,30.0,2.0,0.0
122,61.0,0.0,60.0,1.0,0.0
123,37.0,0.0,60.0,8.0,0.0
124,59.0,0.0,30.0,2.0,0.0
125,49.0,1.0,180.0,8.0,0.0
126,64.0,0.0,60.0,7.0,0.0
127,61.0,30.0,30.0,2.0,0.0
128,64.0,0.0,60.0,1.0,0.0
129,63.0,30.0,30.0,2.0,0.0
130,56.0,0.0,60.0,1.0,0.0
131,56.0,59.0,60.0,7.0,0.0
132,64.0,30.0,30.0,2.0,0.0
133,61.0,0.0,30.0,2.0,0.0
134,55.0,0.0,60.0,7.0,0.0
135,63.0,0.0,60.0,2.0,0.0
136,55.0,0.0,60.0,1.0,0.0
137,63.0,0.0,60.0,1.0,0.0
138,63.0,0.0,60.0,7.0,0.0
139,55.0,0.0,60.0,2.0,0.0
140,23.0,29.0,30.0,4.0,0.0
141,47.0,1.0,30.0,8.0,0.0
142,35.0,0.0,30.0,3.0,0.0
143,46.0,1.0,30.0,8.0,0.0
144,22.0,0.0,30.0,4.0,0.0
145,34.0,59.0,30.0,3.0,0.0
146,47.0,1.0,60.0,8.0,0.0
147,23.0,0.0,60.0,4.0,0.0
148,56.0,0.0,240.0,2.0,0.0
149,35.0,0.0,60.0,3.0,0.0
150,56.0,0.0,60.0,7.0,0.0
151,56.0,59.0,60.0,1.0,0.0
152,52.0,1.0,60.0,8.0,0.0
153,40.0,0.0,60.0,3.0,0.0
154,28.0,0.0,60.0,4.0,0.0
155,61.0,0.0,60.0,7.0,0.0
156,61.0,59.0,60.0,1.0,0.0
157,59.0,0.0,120.0,1.0,0.0
158,27.0,0.0,60.0,4.0,0.0
159,59.0,15.0,120.0,7.0,0.0
160,39.0,59.0,60.0,3.0,0.0
161,51.0,1.0,60.0,8.0,0.0
162,25.0,0.0,60.0,4.0,0.0
163,49.0,1.0,60.0,8.0,0.0
164,37.0,0.0,60.0,3.0,0.0
165,58.0,30.0,120.0,1.0,0.0
166,51.0,1.0,60.0,8.0,0.0
167,39.0,0.0,60.0,3.0,0.0
168,58.0,15.0,15.0,7.0,0.0
169,55.0,0.0,120.0,2.0,0.0
170,59.0,15.0,15.0,7.0,0.0
171,58.0,14.0,15.0,7.0,0.0
172,59.0,0.0,15.0,7.0,0.0
173,58.0,20.0,20.0,7.0,0.0
174,27.0,20.0,15.0,4.0,0.0
175,39.0,1.0,60.0,8.0,0.0
176,39.0,0.0,60.0,3.0,0.0
177,59.0,19.0,20.0,7.0,0.0
178,58.0,0.0,20.0,7.0,0.0
179,56.0,0.0,60.0,2.0,0.0
180,56.0,0.0,30.0,1.0,0.0
181,32.0,0.0,60.0,3.0,0.0
182,56.0,29.0,30.0,7.0,0.0
183,20.0,0.0,60.0,4.0,0.0
184,32.0,1.0,60.0,8.0,0.0
185,55.0,0.0,30.0,1.0,0.0
186,55.0,30.0,30.0,7.0,0.0
187,56.0,29.0,30.0,1.0,0.0
188,44.0,0.0,60.0,3.0,0.0
189,44.0,1.0,60.0,8.0,0.0
190,51.0,29.0,90.0,2.0,0.0
191,32.0,0.0,60.0,4.0,0.0
192,56.0,0.0,30.0,7.0,0.0
193,58.0,30.0,30.0,7.0,0.0
194,58.0,0.0,30.0,1.0,0.0
195,42.0,1.0,60.0,8.0,0.0
196,42.0,0.0,60.0,3.0,0.0
197,60.0,0.0,30.0,7.0,0.0
198,30.0,30.0,60.0,4.0,0.0
199,60.0,0.0,30.0,1.0,0.0
200,62.0,0.0,30.0,7.0,0.0
201,53.0,0.0,30.0,2.0,0.0
202,62.0,0.0,30.0,1.0,0.0
203,41.0,1.0,60.0,8.0,0.0
204,29.0,0.0,60.0,4.0,0.0
205,41.0,0.0,60.0,3.0,0.0
206,63.0,29.0,30.0,7.0,0.0
207,63.0,0.0,30.0,1.0,0.0
208,54.0,0.0,30.0,2.0,0.0
209,56.0,0.0,30.0,2.0,0.0
210,65.0,30.0,30.0,7.0,0.0
211,65.0,0.0,30.0,1.0,0.0
212,66.0,0.0,30.0,7.0,0.0
213,39.0,0.0,60.0,3.0,0.0
214,39.0,0.0,60.0,6.0,0.0
215,58.0,0.0,60.0,2.0,0.0
216,66.0,0.0,30.0,1.0,0.0
217,63.0,0.0,30.0,0.0,0.0
218,27.0,0.0,60.0,4.0,0.0
219,39.0,1.0,60.0,8.0,0.0
220,63.0,29.0,30.0,5.0,0.0
221,65.0,0.0,30.0,7.0,0.0
222,65.0,0.0,30.0,5.0,0.0
223,65.0,0.0,30.0,1.0,0.0
224,65.0,30.0,30.0,0.0,0.0
225,51.0,1.0,60.0,6.0,0.0
226,51.0,0.0,60.0,8.0,0.0
227,51.0,0.0,60.0,3.0,0.0
228,39.0,30.0,60.0,4.0,0.0
229,66.0,29.0,30.0,5.0,0.0
230,63.0,0.0,30.0,7.0,0.0
231,63.0,0.0,30.0,1.0,0.0
232,54.0,0.0,60.0,2.0,0.0
233,66.0,0.0,30.0,0.0,0.0
234,65.0,0.0,30.0,7.0,0.0
235,68.0,0.0,30.0,0.0,0.0
236,65.0,0.0,30.0,1.0,0.0
237,68.0,0.0,30.0,5.0,0.0
238,49.0,0.0,60.0,3.0,0.0
239,49.0,1.0,60.0,8.0,0.0
240,66.0,0.0,30.0,7.0,0.0
241,70.0,0.0,60.0,5.0,0.0
242,51.0,0.0,120.0,2.0,0.0
243,37.0,0.0,60.0,4.0,0.0
244,66.0,29.0,30.0,1.0,0.0
245,49.0,0.0,60.0,6.0,0.0
246,70.0,0.0,60.0,0.0,0.0
247,65.0,0.0,30.0,1.0,0.0
248,65.0,30.0,30.0,7.0,0.0
249,35.0,29.0,60.0,4.0,0.0
250,47.0,1.0,60.0,8.0,0.0
251,75.0,0.0,60.0,5.0,0.0
252,66.0,0.0,30.0,1.0,0.0
253,75.0,0.0,60.0,0.0,0.0
254,47.0,0.0,60.0,3.0,0.0
255,47.0,0.0,60.0,6.0,0.0
256,66.0,29.0,30.0,7.0,0.0
257,68.0,0.0,30.0,7.0,0.0
258,68.0,0.0,30.0,1.0,0.0
259,46.0,1.0,60.0,8.0,0.0
260,53.0,0.0,60.0,2.0,0.0
261,70.0,0.0,60.0,1.0,0.0
262,70.0,0.0,60.0,7.0,0.0
263,74.0,0.0,60.0,0.0,0.0
264,46.0,1.0,30.0,6.0,0.0
265,34.0,0.0,30.0,4.0,0.0
266,46.0,29.0,30.0,3.0,0.0
267,74.0,0.0,60.0,5.0,0.0
268,32.0,0.0,30.0,4.0,0.0
269,44.0,29.0,30.0,3.0,0.0
270,44.0,0.0,30.0,6.0,0.0
271,58.0,1.0,30.0,8.0,0.0
272,65.0,29.0,60.0,7.0,0.0
273,46.0,0.0,30.0,6.0,0.0
274,34.0,29.0,30.0,4.0,0.0
275,65.0,0.0,60.0,1.0,0.0
276,70.0,0.0,60.0,5.0,0.0
277,58.0,0.0,60.0,2.0,0.0
278,70.0,0.0,60.0,0.0,0.0
279,46.0,0.0,30.0,3.0,0.0
280,35.0,0.0,30.0,4.0,0.0
281,47.0,0.0,30.0,6.0,0.0
282,47.0,0.0,30.0,3.0,0.0
283,59.0,1.0,30.0,8.0,0.0
284,65.0,29.0,60.0,0.0,0.0
285,65.0,0.0,60.0,5.0,0.0
286,46.0,0.0,30.0,3.0,0.0
287,70.0,0.0,150.0,1.0,0.0
288,58.0,1.0,30.0,8.0,0.0
289,34.0,29.0,30.0,4.0,0.0
290,62.0,0.0,120.0,2.0,0.0
291,70.0,0.0,150.0,7.0,0.0
292,46.0,0.0,30.0,6.0,0.0
293,44.0,1.0,30.0,6.0,0.0
294,56.0,0.0,30.0,8.0,0.0
295,44.0,0.0,30.0,3.0,0.0
296,32.0,0.0,30.0,4.0,0.0
297,68.0,29.0,60.0,0.0,0.0
298,42.0,0.0,30.0,3.0,0.0
299,68.0,0.0,60.0,5.0,0.0
300,42.0,0.0,30.0,6.0,0.0
301,54.0,1.0,30.0,8.0,0.0
302,30.0,29.0,30.0,4.0,0.0
303,53.0,1.0,30.0,8.0,0.0
304,41.0,0.0,30.0,6.0,0.0
305,41.0,0.0,30.0,3.0,0.0
306,29.0,0.0,30.0,4.0,0.0
307,39.0,1.0,30.0,6.0,0.0
308,27.0,29.0,30.0,4.0,0.0
309,67.0,0.0,60.0,5.0,0.0
310,67.0,0.0,60.0,0.0,0.0
311,51.0,0.0,120.0,8.0,0.0
312,63.0,0.0,60.0,2.0,0.0
313,39.0,0.0,30.0,3.0,0.0
314,68.0,0.0,30.0,1.0,0.0
315,68.0,0.0,30.0,7.0,0.0
316,38.0,0.0,30.0,3.0,0.0
317,26.0,29.0,30.0,4.0,0.0
318,38.0,1.0,30.0,6.0,0.0
319,58.0,0.0,60.0,2.0,0.0
320,67.0,0.0,30.0,7.0,0.0
321,63.0,29.0,60.0,0.0,0.0
322,67.0,0.0,30.0,1.0,0.0
323,27.0,0.0,30.0,4.0,0.0
324,63.0,0.0,60.0,5.0,0.0
325,39.0,1.0,30.0,6.0,0.0
326,39.0,29.0,30.0,3.0,0.0
327,65.0,0.0,30.0,1.0,0.0
328,65.0,0.0,30.0,7.0,0.0
329,29.0,0.0,30.0,4.0,0.0
330,41.0,0.0,30.0,3.0,0.0
331,41.0,1.0,30.0,6.0,0.0
332,67.0,0.0,30.0,7.0,0.0
333,27.0,0.0,30.0,4.0,0.0
334,67.0,0.0,30.0,1.0,0.0
335,39.0,29.0,30.0,3.0,0.0
336,70.0,0.0,60.0,2.0,0.0
337,73.0,0.0,180.0,5.0,0.0
338,39.0,1.0,30.0,6.0,0.0
339,73.0,0.0,180.0,0.0,0.0
340,25.0,29.0,30.0,4.0,0.0
341,63.0,0.0,30.0,1.0,0.0
342,49.0,1.0,30.0,8.0,0.0
343,37.0,0.0,30.0,6.0,0.0
344,37.0,0.0,30.0,3.0,0.0
345,63.0,0.0,30.0,7.0,0.0
346,47.0,0.0,30.0,8.0,0.0
347,35.0,0.0,30.0,3.0,0.0
348,23.0,29.0,30.0,4.0,0.0
349,65.0,0.0,30.0,7.0,0.0
350,35.0,1.0,30.0,6.0,0.0
351,63.0,0.0,60.0,2.0,0.0
352,65.0,0.0,30.0,1.0,0.0
353,67.0,0.0,30.0,1.0,0.0
354,34.0,1.0,30.0,6.0,0.0
355,34.0,0.0,30.0,3.0,0.0
356,46.0,0.0,30.0,8.0,0.0
357,67.0,0.0,30.0,7.0,0.0
358,22.0,29.0,30.0,4.0,0.0
359,32.0,0.0,30.0,3.0,0.0
360,32.0,1.0,30.0,6.0,0.0
361,44.0,0.0,30.0,8.0,0.0
362,20.0,29.0,30.0,4.0,0.0
363,68.0,0.0,60.0,7.0,0.0
364,68.0,0.0,60.0,1.0,0.0
365,43.0,1.0,30.0,8.0,0.0
366,43.0,0.0,30.0,3.0,0.0
367,31.0,29.0,30.0,4.0,0.0
368,43.0,0.0,30.0,6.0,0.0
369,32.0,29.0,30.0,4.0,0.0
370,63.0,29.0,60.0,2.0,0.0
371,72.0,0.0,30.0,0.0,0.0
372,63.0,0.0,60.0,7.0,0.0
373,44.0,1.0,30.0,8.0,0.0
374,44.0,0.0,30.0,6.0,0.0
375,44.0,0.0,30.0,3.0,0.0
376,63.0,0.0,60.0,1.0,0.0
377,72.0,0.0,30.0,5.0,0.0
378,70.0,0.0,30.0,5.0,0.0
379,46.0,0.0,30.0,3.0,0.0
380,34.0,0.0,30.0,4.0,0.0
381,70.0,0.0,30.0,0.0,0.0
382,46.0,1.0,30.0,6.0,0.0
383,46.0,0.0,30.0,8.0,0.0
384,72.0,29.0,60.0,5.0,0.0
385,68.0,30.0,150.0,7.0,0.0
386,32.0,0.0,30.0,4.0,0.0
387,72.0,0.0,60.0,0.0,0.0
388,68.0,0.0,150.0,1.0,0.0
389,51.0,0.0,60.0,2.0,0.0
390,44.0,29.0,30.0,3.0,0.0
391,44.0,0.0,30.0,6.0,0.0
392,44.0,1.0,30.0,8.0,0.0
393,42.0,0.0,30.0,3.0,0.0
394,42.0,1.0,30.0,8.0,0.0
395,30.0,0.0,30.0,4.0,0.0
396,42.0,0.0,30.0,6.0,0.0
397,56.0,0.0,60.0,2.0,0.0
398,41.0,0.0,30.0,3.0,0.0
399,41.0,0.0,30.0,6.0,0.0
400,68.0,0.0,60.0,5.0,0.0
401,68.0,30.0,60.0,0.0,0.0
402,40.0,1.0,30.0,8.0,0.0
403,29.0,29.0,30.0,4.0,0.0
404,39.0,1.0,30.0,6.0,0.0
405,39.0,0.0,30.0,8.0,0.0
406,27.0,0.0,30.0,4.0,0.0
407,39.0,0.0,30.0,3.0,0.0
408,65.0,0.0,60.0,0.0,0.0
409,38.0,30.0,120.0,3.0,0.0
410,26.0,0.0,120.0,4.0,0.0
411,38.0,0.0,120.0,8.0,0.0
412,65.0,0.0,60.0,5.0,0.0
413,38.0,1.0,120.0,6.0,0.0
414,66.0,0.0,30.0,1.0,0.0
415,66.0,30.0,30.0,7.0,0.0
416,65.0,29.0,30.0,7.0,0.0
417,59.0,0.0,60.0,2.0,0.0
418,68.0,0.0,60.0,5.0,0.0
419,68.0,0.0,60.0,0.0,0.0
420,65.0,0.0,30.0,1.0,0.0
421,66.0,0.0,30.0,1.0,0.0
422,66.0,0.0,30.0,7.0,0.0
423,71.0,0.0,60.0,5.0,0.0
424,68.0,0.0,30.0,1.0,0.0
425,68.0,30.0,30.0,7.0,0.0
426,53.0,30.0,60.0,2.0,0.0
427,71.0,0.0,60.0,0.0,0.0
428,70.0,0.0,30.0,1.0,0.0
429,70.0,0.0,30.0,7.0,0.0
430,44.0,1.0,120.0,6.0,0.0
431,32.0,0.0,120.0,4.0,0.0
432,71.0,30.0,30.0,1.0,0.0
433,71.0,0.0,30.0,7.0,0.0
434,44.0,0.0,120.0,8.0,0.0
435,63.0,0.0,60.0,0.0,0.0
436,44.0,0.0,120.0,3.0,0.0
437,63.0,0.0,60.0,5.0,0.0
438,56.0,0.0,60.0,2.0,0.0
439,68.0,0.0,30.0,7.0,0.0
440,68.0,30.0,30.0,1.0,0.0
441,70.0,29.0,30.0,7.0,0.0
442,62.0,0.0,60.0,0.0,0.0
443,62.0,0.0,60.0,5.0,0.0
444,70.0,0.0,30.0,1.0,0.0
445,71.0,29.0,30.0,1.0,0.0
446,71.0,0.0,30.0,7.0,0.0
447,70.0,30.0,60.0,0.0,0.0
448,70.0,0.0,30.0,7.0,0.0
449,42.0,0.0,30.0,3.0,0.0
450,30.0,0.0,30.0,4.0,0.0
451,42.0,0.0,30.0,6.0,0.0
452,50.0,0.0,60.0,2.0,0.0
453,42.0,1.0,30.0,8.0,0.0
454,70.0,0.0,60.0,5.0,0.0
455,70.0,29.0,30.0,1.0,0.0
456,29.0,0.0,30.0,4.0,0.0
457,68.0,0.0,30.0,1.0,0.0
458,41.0,0.0,30.0,3.0,0.0
459,68.0,0.0,30.0,7.0,0.0
460,41.0,1.0,30.0,6.0,0.0
461,41.0,0.0,30.0,8.0,0.0
462,63.0,0.0,60.0,5.0,0.0
463,42.0,0.0,60.0,3.0,0.0
464,66.0,0.0,30.0,1.0,0.0
465,42.0,1.0,60.0,8.0,0.0
466,30.0,30.0,60.0,4.0,0.0
467,46.0,0.0,60.0,2.0,0.0
468,42.0,0.0,60.0,6.0,0.0
469,66.0,29.0,30.0,7.0,0.0
470,63.0,0.0,60.0,0.0,0.0
471,65.0,0.0,30.0,1.0,0.0
472,65.0,0.0,30.0,7.0,0.0
473,47.0,1.0,60.0,6.0,0.0
474,51.0,0.0,60.0,2.0,0.0
475,68.0,0.0,60.0,5.0,0.0
476,47.0,0.0,60.0,3.0,0.0
477,63.0,0.0,30.0,1.0,0.0
478,63.0,29.0,30.0,7.0,0.0
479,68.0,0.0,60.0,0.0,0.0
480,47.0,0.0,60.0,8.0,0.0
481,35.0,0.0,60.0,4.0,0.0
482,62.0,0.0,30.0,1.0,0.0
483,62.0,59.0,30.0,7.0,0.0
484,34.0,59.0,60.0,4.0,0.0
485,66.0,0.0,120.0,5.0,0.0
486,58.0,0.0,60.0,2.0,0.0
487,66.0,15.0,120.0,0.0,0.0
488,46.0,0.0,60.0,6.0,0.0
489,63.0,0.0,60.0,1.0,0.0
490,46.0,0.0,60.0,3.0,0.0
491,63.0,0.0,60.0,7.0,0.0
492,46.0,1.0,60.0,8.0,0.0
493,44.0,0.0,60.0,3.0,0.0
494,75.0,20.0,120.0,1.0,0.0
495,75.0,0.0,120.0,7.0,0.0
496,44.0,0.0,60.0,8.0,0.0
497,44.0,1.0,60.0,6.0,0.0
498,59.0,0.0,120.0,2.0,0.0
499,32.0,0.0,60.0,4.0,0.0
500,46.0,1.0,60.0,8.0,0.0
501,65.0,15.0,15.0,5.0,0.0
502,46.0,0.0,60.0,3.0,0.0
503,46.0,0.0,60.0,6.0,0.0
504,65.0,30.0,120.0,0.0,0.0
505,34.0,0.0,60.0,4.0,0.0
506,66.0,15.0,15.0,5.0,0.0
507,65.0,14.0,15.0,5.0,0.0
508,66.0,0.0,15.0,5.0,0.0
509,34.0,1.0,60.0,8.0,0.0
510,65.0,10.0,20.0,5.0,0.0
511,58.0,10.0,30.0,2.0,0.0
512,74.0,0.0,60.0,1.0,0.0
513,34.0,0.0,60.0,6.0,0.0
514,74.0,0.0,60.0,7.0,0.0
515,34.0,0.0,60.0,3.0,0.0
516,22.0,0.0,60.0,4.0,0.0
517,66.0,19.0,20.0,5.0,0.0
518,56.0,0.0,30.0,2.0,0.0
519,65.0,0.0,20.0,5.0,0.0
520,75.0,0.0,60.0,1.0,0.0
521,39.0,0.0,120.0,3.0,0.0
522,63.0,0.0,30.0,5.0,0.0
523,75.0,0.0,60.0,7.0,0.0
524,54.0,0.0,60.0,2.0,0.0
525,27.0,0.0,120.0,4.0,0.0
526,39.0,1.0,60.0,8.0,0.0
527,63.0,29.0,30.0,0.0,0.0
528,39.0,1.0,120.0,6.0,0.0
529,62.0,30.0,30.0,5.0,0.0
530,62.0,0.0,30.0,0.0,0.0
531,58.0,0.0,60.0,2.0,0.0
532,51.0,0.0,60.0,8.0,0.0
533,63.0,0.0,30.0,1.0,0.0
534,63.0,29.0,30.0,0.0,0.0
535,63.0,0.0,30.0,5.0,0.0
536,63.0,0.0,30.0,7.0,0.0
537,62.0,0.0,30.0,7.0,0.0
538,65.0,30.0,30.0,5.0,0.0
539,62.0,0.0,30.0,1.0,0.0
540,65.0,0.0,30.0,0.0,0.0
541,66.0,0.0,30.0,0.0,0.0
542,63.0,0.0,60.0,2.0,0.0
543,39.0,1.0,120.0,8.0,0.0
544,63.0,0.0,30.0,7.0,0.0
545,63.0,30.0,30.0,1.0,0.0
546,66.0,0.0,30.0,5.0,0.0
547,68.0,0.0,30.0,0.0,0.0
548,65.0,0.0,30.0,1.0,0.0
549,68.0,30.0,30.0,5.0,0.0
550,65.0,0.0,30.0,7.0,0.0
551,66.0,0.0,30.0,7.0,0.0
552,70.0,29.0,30.0,0.0,0.0
553,66.0,0.0,30.0,1.0,0.0
554,51.0,0.0,60.0,2.0,0.0
555,51.0,0.0,60.0,6.0,0.0
556,70.0,0.0,30.0,5.0,0.0
557,63.0,0.0,30.0,1.0,0.0
558,71.0,0.0,30.0,5.0,0.0
559,63.0,0.0,30.0,7.0,0.0
560,71.0,30.0,30.0,0.0,0.0
561,65.0,30.0,30.0,7.0,0.0
562,73.0,0.0,60.0,5.0,0.0
563,46.0,1.0,120.0,6.0,0.0
564,65.0,0.0,30.0,1.0,0.0
565,58.0,0.0,120.0,2.0,0.0
566,73.0,0.0,60.0,0.0,0.0
567,63.0,0.0,30.0,1.0,0.0
568,63.0,30.0,30.0,7.0,0.0
569,61.0,0.0,60.0,5.0,0.0
570,65.0,29.0,30.0,1.0,0.0
571,58.0,0.0,60.0,8.0,0.0
572,61.0,0.0,60.0,0.0,0.0
573,65.0,0.0,30.0,7.0,0.0
574,66.0,30.0,30.0,7.0,0.0
575,66.0,0.0,30.0,1.0,0.0
576,73.0,0.0,180.0,5.0,0.0
577,65.0,30.0,30.0,7.0,0.0
578,65.0,0.0,30.0,1.0,0.0
579,73.0,0.0,180.0,0.0,0.0
580,46.0,1.0,120.0,8.0,0.0
581,67.0,30.0,30.0,7.0,0.0
582,67.0,0.0,30.0,1.0,0.0
583,46.0,30.0,60.0,2.0,0.0
584,68.0,29.0,30.0,7.0,0.0
585,58.0,0.0,60.0,6.0,0.0
586,68.0,0.0,30.0,1.0,0.0
587,65.0,0.0,30.0,1.0,0.0
588,65.0,0.0,30.0,7.0,0.0
589,51.0,0.0,120.0,6.0,0.0
590,51.0,0.0,120.0,2.0,0.0
591,67.0,30.0,30.0,1.0,0.0
592,67.0,0.0,30.0,7.0,0.0
593,65.0,0.0,30.0,1.0,0.0
594,65.0,30.0,30.0,7.0,0.0
595,70.0,0.0,60.0,0.0,0.0
596,67.0,29.0,30.0,7.0,0.0
597,70.0,30.0,60.0,5.0,0.0
598,51.0,1.0,60.0,8.0,0.0
599,67.0,0.0,30.0,1.0,0.0
600,68.0,0.0,30.0,7.0,0.0
601,68.0,0.0,30.0,1.0,0.0
602,67.0,30.0,30.0,1.0,0.0
603,67.0,0.0,30.0,7.0,0.0
604,63.0,0.0,60.0,0.0,0.0
605,39.0,1.0,120.0,8.0,0.0
606,63.0,0.0,60.0,5.0,0.0
607,68.0,0.0,30.0,7.0,0.0
608,68.0,30.0,30.0,1.0,0.0
609,55.0,0.0,60.0,2.0,0.0
610,73.0,0.0,60.0,0.0,0.0
611,73.0,0.0,60.0,5.0,0.0
612,70.0,29.0,30.0,1.0,0.0
613,51.0,0.0,60.0,6.0,0.0
614,70.0,0.0,30.0,7.0,0.0
615,67.0,0.0,30.0,7.0,0.0
616,67.0,29.0,30.0,1.0,0.0
617,44.0,0.0,30.0,8.0,0.0
618,71.0,0.0,30.0,0.0,0.0
619,68.0,0.0,60.0,7.0,0.0
620,44.0,0.0,30.0,3.0,0.0
621,63.0,0.0,30.0,2.0,0.0
622,44.0,1.0,30.0,6.0,0.0
623,32.0,29.0,30.0,4.0,0.0
624,71.0,0.0,30.0,5.0,0.0
625,68.0,29.0,60.0,1.0,0.0
626,46.0,1.0,30.0,6.0,0.0
627,70.0,0.0,30.0,5.0,0.0
628,61.0,0.0,30.0,2.0,0.0
629,34.0,0.0,30.0,4.0,0.0
630,70.0,0.0,30.0,0.0,0.0
631,46.0,0.0,30.0,3.0,0.0
632,46.0,0.0,30.0,8.0,0.0
633,68.0,0.0,30.0,5.0,0.0
634,47.0,0.0,30.0,3.0,0.0
635,68.0,29.0,30.0,0.0,0.0
636,35.0,0.0,30.0,4.0,0.0
637,59.0,0.0,30.0,2.0,0.0
638,75.0,0.0,60.0,1.0,0.0
639,47.0,0.0,30.0,8.0,0.0
640,47.0,1.0,30.0,6.0,0.0
641,75.0,0.0,60.0,7.0,0.0
642,37.0,0.0,30.0,4.0,0.0
643,49.0,0.0,30.0,8.0,0.0
644,49.0,0.0,30.0,3.0,0.0
645,70.0,0.0,30.0,5.0,0.0
646,49.0,1.0,30.0,6.0,0.0
647,70.0,30.0,30.0,0.0,0.0
648,58.0,0.0,30.0,2.0,0.0
649,71.0,29.0,30.0,5.0,0.0
650,56.0,0.0,30.0,2.0,0.0
651,51.0,0.0,60.0,6.0,0.0
652,51.0,30.0,60.0,3.0,0.0
653,51.0,1.0,60.0,8.0,0.0
654,71.0,0.0,30.0,0.0,0.0
655,39.0,0.0,60.0,4.0,0.0
656,55.0,0.0,30.0,2.0,0.0
657,70.0,0.0,30.0,5.0,0.0
658,70.0,0.0,30.0,0.0,0.0
659,44.0,0.0,60.0,4.0,0.0
660,56.0,0.0,60.0,6.0,0.0
661,71.0,0.0,60.0,1.0,0.0
662,56.0,0.0,30.0,2.0,0.0
663,71.0,0.0,60.0,7.0,0.0
664,56.0,1.0,60.0,8.0,0.0
665,71.0,29.0,30.0,0.0,0.0
666,71.0,0.0,30.0,5.0,0.0
667,56.0,0.0,60.0,3.0,0.0
668,73.0,0.0,30.0,5.0,0.0
669,58.0,0.0,30.0,2.0,0.0
670,73.0,30.0,30.0,0.0,0.0
671,75.0,0.0,60.0,5.0,0.0
672,55.0,1.0,60.0,6.0,0.0
673,51.0,0.0,60.0,2.0,0.0
674,70.0,29.0,30.0,1.0,0.0
675,70.0,0.0,30.0,7.0,0.0
676,55.0,0.0,60.0,8.0,0.0
677,43.0,0.0,60.0,4.0,0.0
678,75.0,0.0,60.0,0.0,0.0
679,55.0,0.0,60.0,3.0,0.0
680,68.0,30.0,30.0,7.0,0.0
681,68.0,0.0,30.0,1.0,0.0
682,39.0,0.0,60.0,4.0,0.0
683,51.0,1.0,60.0,6.0,0.0
684,70.0,30.0,60.0,0.0,0.0
685,70.0,0.0,60.0,5.0,0.0
686,63.0,0.0,60.0,2.0,0.0
687,51.0,0.0,60.0,8.0,0.0
688,67.0,0.0,30.0,7.0,0.0
689,67.0,29.0,30.0,1.0,0.0
690,51.0,0.0,60.0,3.0,0.0
691,65.0,0.0,30.0,1.0,0.0
692,65.0,0.0,30.0,7.0,0.0
693,61.0,0.0,60.0,2.0,0.0
694,67.0,0.0,30.0,1.0,0.0
695,46.0,0.0,60.0,8.0,0.0
696,34.0,0.0,60.0,4.0,0.0
697,46.0,0.0,60.0,3.0,0.0
698,75.0,0.0,150.0,5.0,0.0
699,75.0,29.0,150.0,0.0,0.0
700,46.0,1.0,60.0,6.0,0.0
701,67.0,29.0,30.0,7.0,0.0
702,63.0,30.0,30.0,1.0,0.0
703,63.0,0.0,30.0,7.0,0.0
704,65.0,29.0,30.0,7.0,0.0
705,49.0,1.0,60.0,8.0,0.0
706,49.0,0.0,60.0,6.0,0.0
707,37.0,0.0,60.0,4.0,0.0
708,58.0,0.0,60.0,2.0,0.0
709,49.0,30.0,60.0,3.0,0.0
710,65.0,0.0,30.0,1.0,0.0
711,67.0,0.0,30.0,1.0,0.0
712,67.0,0.0,30.0,7.0,0.0
713,48.0,0.0,60.0,8.0,0.0
714,48.0,1.0,60.0,6.0,0.0
715,36.0,0.0,60.0,4.0,0.0
716,48.0,30.0,60.0,3.0,0.0
717,68.0,0.0,60.0,7.0,0.0
718,68.0,0.0,60.0,1.0,0.0
719,73.0,0.0,30.0,5.0,0.0
720,73.0,0.0,30.0,0.0,0.0
721,44.0,1.0,60.0,6.0,0.0
722,44.0,0.0,60.0,8.0,0.0
723,63.0,0.0,60.0,2.0,0.0
724,63.0,0.0,60.0,7.0,0.0
725,63.0,0.0,60.0,1.0,0.0
726,72.0,29.0,30.0,0.0,0.0
727,72.0,0.0,30.0,5.0,0.0
728,32.0,0.0,60.0,4.0,0.0
729,44.0,0.0,60.0,3.0,0.0
730,70.0,0.0,30.0,0.0,0.0
731,70.0,30.0,30.0,5.0,0.0
732,54.0,0.0,180.0,3.0,0.0
733,72.0,30.0,30.0,0.0,0.0
734,42.0,0.0,180.0,4.0,0.0
735,54.0,1.0,180.0,6.0,0.0
736,68.0,0.0,30.0,7.0,0.0
737,51.0,0.0,60.0,2.0,0.0
738,54.0,0.0,180.0,8.0,0.0
739,72.0,0.0,30.0,5.0,0.0
740,68.0,29.0,150.0,1.0,0.0
741,70.0,0.0,30.0,7.0,0.0
742,68.0,0.0,30.0,5.0,0.0
743,68.0,30.0,30.0,0.0,0.0
744,70.0,0.0,30.0,5.0,0.0
745,72.0,30.0,30.0,7.0,0.0
746,63.0,0.0,60.0,2.0,0.0
747,70.0,0.0,30.0,0.0,0.0
748,72.0,0.0,30.0,0.0,0.0
749,72.0,30.0,30.0,5.0,0.0
750,73.0,0.0,30.0,7.0,0.0
751,68.0,0.0,30.0,7.0,0.0
752,73.0,0.0,60.0,0.0,0.0
753,73.0,0.0,60.0,5.0,0.0
754,66.0,0.0,30.0,1.0,0.0
755,66.0,29.0,30.0,7.0,0.0
756,68.0,29.0,30.0,1.0,0.0
757,41.0,0.0,30.0,4.0,0.0
758,53.0,0.0,30.0,3.0,0.0
759,68.0,0.0,60.0,5.0,0.0
760,61.0,0.0,60.0,2.0,0.0
761,53.0,0.0,30.0,8.0,0.0
762,53.0,1.0,30.0,6.0,0.0
763,68.0,0.0,60.0,0.0,0.0
764,68.0,0.0,30.0,7.0,0.0
765,39.0,30.0,30.0,4.0,0.0
766,51.0,0.0,30.0,3.0,0.0
767,51.0,0.0,30.0,6.0,0.0
768,51.0,1.0,30.0,8.0,0.0
769,70.0,0.0,30.0,1.0,0.0
770,70.0,0.0,30.0,7.0,0.0
771,73.0,0.0,150.0,5.0,0.0
772,68.0,29.0,30.0,1.0,0.0
773,68.0,0.0,30.0,7.0,0.0
774,49.0,0.0,60.0,2.0,0.0
775,53.0,0.0,60.0,3.0,0.0
776,53.0,0.0,60.0,6.0,0.0
777,53.0,1.0,60.0,8.0,0.0
778,41.0,0.0,60.0,4.0,0.0
779,73.0,29.0,150.0,0.0,0.0
780,71.0,30.0,30.0,1.0,0.0
781,71.0,0.0,30.0,7.0,0.0
782,70.0,0.0,30.0,1.0,0.0
783,53.0,0.0,60.0,2.0,0.0
784,37.0,30.0,60.0,4.0,0.0
785,49.0,1.0,60.0,6.0,0.0
786,49.0,0.0,60.0,8.0,0.0
787,49.0,0.0,60.0,3.0,0.0
788,70.0,29.0,30.0,7.0,0.0
789,68.0,0.0,30.0,1.0,0.0
790,68.0,0.0,30.0,7.0,0.0
791,46.0,0.0,60.0,8.0,0.0
792,70.0,0.0,60.0,1.0,0.0
793,54.0,0.0,60.0,2.0,0.0
794,46.0,0.0,60.0,3.0,0.0
795,70.0,0.0,60.0,7.0,0.0
796,46.0,1.0,60.0,6.0,0.0
797,34.0,0.0,60.0,4.0,0.0
798,71.0,0.0,30.0,0.0,0.0
799,71.0,30.0,30.0,5.0,0.0
800,37.0,30.0,60.0,4.0,0.0
801,49.0,1.0,60.0,6.0,0.0
802,49.0,0.0,60.0,8.0,0.0
803,55.0,30.0,120.0,2.0,0.0
804,58.0,0.0,60.0,1.0,0.0
805,58.0,0.0,60.0,7.0,0.0
806,70.0,0.0,30.0,5.0,0.0
807,70.0,29.0,30.0,0.0,0.0
808,49.0,0.0,60.0,3.0,0.0
809,71.0,0.0,30.0,5.0,0.0
810,71.0,0.0,30.0,0.0,0.0
811,52.0,1.0,60.0,6.0,0.0
812,73.0,29.0,30.0,0.0,0.0
813,73.0,0.0,30.0,5.0,0.0
814,52.0,0.0,60.0,3.0,0.0
815,52.0,0.0,60.0,8.0,0.0
816,70.0,0.0,150.0,7.0,0.0
817,70.0,0.0,150.0,1.0,0.0
818,40.0,0.0,60.0,4.0,0.0
819,75.0,0.0,30.0,5.0,0.0
820,75.0,0.0,30.0,0.0,0.0
821,44.0,1.0,60.0,6.0,0.0
822,32.0,0.0,60.0,4.0,0.0
823,56.0,0.0,60.0,2.0,0.0
824,44.0,0.0,60.0,8.0,0.0
825,44.0,30.0,60.0,3.0,0.0
826,76.0,0.0,30.0,0.0,0.0
827,76.0,29.0,30.0,5.0,0.0
828,73.0,0.0,30.0,5.0,0.0
829,73.0,0.0,30.0,0.0,0.0
830,75.0,0.0,30.0,5.0,0.0
831,58.0,0.0,60.0,2.0,0.0
832,43.0,1.0,60.0,8.0,0.0
833,75.0,29.0,30.0,0.0,0.0
834,43.0,0.0,60.0,3.0,0.0
835,43.0,0.0,60.0,6.0,0.0
836,31.0,0.0,60.0,4.0,0.0
837,76.0,0.0,30.0,0.0,0.0
838,76.0,0.0,30.0,5.0,0.0
839,68.0,30.0,30.0,1.0,0.0
840,68.0,0.0,30.0,7.0,0.0
841,51.0,1.0,60.0,6.0,0.0
842,51.0,0.0,60.0,3.0,0.0
843,39.0,0.0,60.0,4.0,0.0
844,46.0,30.0,60.0,2.0,0.0
845,75.0,29.0,30.0,0.0,0.0
846,75.0,0.0,30.0,5.0,0.0
847,51.0,0.0,60.0,8.0,0.0
848,67.0,0.0,30.0,1.0,0.0
849,67.0,0.0,30.0,7.0,0.0
850,73.0,0.0,30.0,0.0,0.0
851,65.0,0.0,30.0,1.0,0.0
852,73.0,0.0,30.0,5.0,0.0
853,65.0,0.0,30.0,7.0,0.0
854,63.0,0.0,30.0,1.0,0.0
855,32.0,0.0,60.0,4.0,0.0
856,71.0,0.0,30.0,0.0,0.0
857,44.0,0.0,60.0,3.0,0.0
858,71.0,29.0,30.0,5.0,0.0
859,44.0,1.0,60.0,8.0,0.0
860,63.0,0.0,30.0,7.0,0.0
861,44.0,0.0,60.0,6.0,0.0
862,47.0,0.0,60.0,2.0,0.0
863,70.0,0.0,30.0,0.0,0.0
864,61.0,30.0,30.0,1.0,0.0
865,70.0,0.0,30.0,5.0,0.0
866,61.0,0.0,30.0,7.0,0.0
867,49.0,1.0,60.0,8.0,0.0
868,68.0,0.0,30.0,0.0,0.0
869,49.0,0.0,60.0,6.0,0.0
870,59.0,0.0,30.0,1.0,0.0
871,49.0,0.0,60.0,3.0,0.0
872,52.0,0.0,60.0,2.0,0.0
873,68.0,29.0,30.0,5.0,0.0
874,59.0,0.0,30.0,7.0,0.0
875,37.0,0.0,60.0,4.0,0.0
876,58.0,0.0,30.0,7.0,0.0
877,58.0,0.0,30.0,1.0,0.0
878,67.0,0.0,30.0,0.0,0.0
879,67.0,29.0,30.0,5.0,0.0
880,47.0,0.0,120.0,8.0,0.0
881,47.0,0.0,120.0,6.0,0.0
882,56.0,0.0,30.0,7.0,0.0
883,51.0,29.0,60.0,2.0,0.0
884,47.0,20.0,120.0,3.0,0.0
885,35.0,0.0,120.0,4.0,0.0
886,68.0,1.0,60.0,0.0,0.0
887,56.0,30.0,30.0,1.0,0.0
888,68.0,0.0,60.0,5.0,0.0
889,66.0,0.0,30.0,1.0,0.0
890,66.0,0.0,30.0,7.0,0.0
891,80.0,1.0,120.0,0.0,0.0
892,64.0,0.0,30.0,7.0,0.0
893,59.0,0.0,60.0,2.0,0.0
894,80.0,0.0,120.0,5.0,0.0
895,64.0,30.0,30.0,1.0,0.0
896,63.0,0.0,30.0,1.0,0.0
897,63.0,1.0,30.0,7.0,0.0
898,47.0,0.0,20.0,6.0,0.0
899,64.0,15.0,60.0,2.0,0.0
900,34.0,0.0,120.0,4.0,0.0
901,61.0,11.0,30.0,1.0,0.0
902,47.0,9.0,20.0,8.0,0.0
903,46.0,0.0,120.0,3.0,0.0
904,61.0,0.0,30.0,7.0,0.0
905,46.0,0.0,20.0,6.0,0.0
906,46.0,19.0,20.0,8.0,0.0
907,59.0,0.0,30.0,7.0,0.0
908,59.0,0.0,30.0,1.0,0.0
909,44.0,0.0,20.0,6.0,0.0
910,44.0,0.0,20.0,8.0,0.0
911,46.0,14.0,15.0,6.0,0.0
912,58.0,1.0,30.0,7.0,0.0
913,46.0,0.0,15.0,8.0,0.0
914,61.0,0.0,60.0,2.0,0.0
915,79.0,0.0,60.0,5.0,0.0
916,58.0,0.0,30.0,1.0,0.0
917,79.0,0.0,60.0,0.0,0.0
918,44.0,0.0,15.0,8.0,0.0
919,44.0,29.0,15.0,6.0,0.0
920,61.0,1.0,30.0,1.0,0.0
921,61.0,0.0,30.0,7.0,0.0
922,46.0,29.0,30.0,6.0,0.0
923,46.0,0.0,30.0,8.0,0.0
924,63.0,0.0,30.0,2.0,0.0
925,80.0,0.0,120.0,5.0,0.0
926,59.0,0.0,60.0,1.0,0.0
927,32.0,29.0,30.0,4.0,0.0
928,59.0,0.0,60.0,7.0,0.0
929,44.0,1.0,30.0,8.0,0.0
930,44.0,0.0,30.0,3.0,0.0
931,80.0,0.0,120.0,0.0,0.0
932,44.0,0.0,30.0,6.0,0.0
933,31.0,0.0,30.0,4.0,0.0
934,43.0,29.0,30.0,3.0,0.0
935,43.0,1.0,30.0,6.0,0.0
936,61.0,0.0,30.0,2.0,0.0
937,43.0,0.0,30.0,8.0,0.0
938,32.0,29.0,30.0,4.0,0.0
939,44.0,0.0,30.0,8.0,0.0
940,44.0,0.0,30.0,3.0,0.0
941,56.0,0.0,60.0,1.0,0.0
942,56.0,0.0,60.0,7.0,0.0
943,59.0,0.0,30.0,2.0,0.0
944,44.0,1.0,30.0,6.0,0.0
945,46.0,0.0,30.0,6.0,0.0
946,46.0,29.0,30.0,3.0,0.0
947,58.0,0.0,30.0,2.0,0.0
948,46.0,1.0,30.0,8.0,0.0
949,34.0,0.0,30.0,4.0,0.0
950,47.0,1.0,30.0,6.0,0.0
951,47.0,0.0,30.0,8.0,0.0
952,56.0,0.0,30.0,2.0,0.0
953,63.0,0.0,150.0,7.0,0.0
954,35.0,0.0,30.0,4.0,0.0
955,63.0,0.0,150.0,1.0,0.0
956,47.0,29.0,30.0,3.0,0.0
957,37.0,29.0,30.0,4.0,0.0
958,49.0,1.0,30.0,8.0,0.0
959,49.0,0.0,30.0,6.0,0.0
960,58.0,0.0,30.0,2.0,0.0
961,49.0,0.0,30.0,3.0,0.0
962,51.0,0.0,30.0,6.0,0.0
963,71.0,1.0,60.0,0.0,0.0
964,71.0,0.0,60.0,5.0,0.0
965,39.0,0.0,30.0,4.0,0.0
966,59.0,29.0,30.0,2.0,0.0
967,51.0,0.0,30.0,3.0,0.0
968,51.0,1.0,30.0,8.0,0.0
969,41.0,0.0,30.0,4.0,0.0
970,53.0,0.0,30.0,6.0,0.0
971,53.0,0.0,30.0,3.0,0.0
972,53.0,0.0,30.0,8.0,0.0
973,61.0,29.0,30.0,2.0,0.0
974,55.0,1.0,30.0,6.0,0.0
975,70.0,0.0,60.0,0.0,0.0
976,43.0,0.0,30.0,4.0,0.0
977,63.0,29.0,60.0,2.0,0.0
978,55.0,29.0,30.0,3.0,0.0
979,70.0,0.0,60.0,5.0,0.0
980,55.0,0.0,30.0,8.0,0.0
981,41.0,0.0,30.0,4.0,0.0
982,65.0,1.0,30.0,1.0,0.0
983,53.0,0.0,30.0,3.0,0.0
984,53.0,0.0,30.0,6.0,0.0
985,53.0,0.0,30.0,8.0,0.0
986,65.0,0.0,30.0,7.0,0.0
987,58.0,0.0,60.0,2.0,0.0
988,51.0,0.0,30.0,8.0,0.0
989,75.0,0.0,60.0,5.0,0.0
990,51.0,0.0,30.0,6.0,0.0
991,67.0,0.0,30.0,1.0,0.0
992,67.0,1.0,30.0,7.0,0.0
993,75.0,0.0,60.0,0.0,0.0
994,39.0,0.0,30.0,4.0,0.0
995,51.0,29.0,30.0,3.0,0.0
996,53.0,0.0,30.0,3.0,0.0
997,53.0,1.0,30.0,8.0,0.0
998,41.0,29.0,30.0,4.0,0.0
999,68.0,0.0,30.0,7.0,0.0
1000,53.0,0.0,30.0,6.0,0.0
1001,68.0,0.0,30.0,1.0,0.0
1002,55.0,0.0,30.0,3.0,0.0
1003,55.0,0.0,30.0,8.0,0.0
1004,55.0,1.0,30.0,6.0,0.0
1005,70.0,0.0,60.0,7.0,0.0
1006,43.0,29.0,30.0,4.0,0.0
1007,63.0,0.0,180.0,5.0,0.0
1008,63.0,0.0,180.0,0.0,0.0
1009,70.0,1.0,60.0,1.0,0.0
1010,51.0,0.0,30.0,3.0,0.0
1011,39.0,29.0,30.0,4.0,0.0
1012,51.0,0.0,30.0,8.0,0.0
1013,51.0,0.0,30.0,6.0,0.0
1014,41.0,29.0,30.0,4.0,0.0
1015,73.0,0.0,60.0,7.0,0.0
1016,53.0,0.0,30.0,8.0,0.0
1017,63.0,0.0,60.0,2.0,0.0
1018,73.0,0.0,60.0,1.0,0.0
1019,53.0,0.0,30.0,3.0,0.0
1020,53.0,1.0,30.0,6.0,0.0
1021,55.0,0.0,30.0,6.0,0.0
1022,55.0,1.0,30.0,8.0,0.0
1023,43.0,59.0,30.0,4.0,0.0
1024,55.0,0.0,30.0,3.0,0.0
1025,56.0,29.0,60.0,2.0,0.0
1026,56.0,0.0,60.0,6.0,0.0
1027,56.0,0.0,60.0,8.0,0.0
1028,44.0,0.0,60.0,4.0,0.0
1029,56.0,0.0,60.0,3.0,0.0
1030,72.0,0.0,60.0,7.0,0.0
1031,72.0,1.0,60.0,1.0,0.0
1032,68.0,0.0,30.0,5.0,0.0
1033,68.0,0.0,60.0,1.0,0.0
1034,68.0,30.0,30.0,0.0,0.0
1035,44.0,0.0,60.0,6.0,0.0
1036,68.0,1.0,60.0,7.0,0.0
1037,44.0,0.0,60.0,8.0,0.0
1038,32.0,29.0,60.0,4.0,0.0
1039,44.0,0.0,60.0,3.0,0.0
1040,60.0,0.0,60.0,2.0,0.0
1041,70.0,0.0,30.0,5.0,0.0
1042,70.0,0.0,30.0,0.0,0.0
1043,56.0,29.0,150.0,6.0,0.0
1044,56.0,0.0,150.0,3.0,0.0
1045,63.0,29.0,60.0,2.0,0.0
1046,72.0,0.0,30.0,0.0,0.0
1047,63.0,0.0,60.0,7.0,0.0
1048,56.0,0.0,60.0,8.0,0.0
1049,44.0,0.0,150.0,4.0,0.0
1050,72.0,30.0,30.0,5.0,0.0
1051,63.0,0.0,60.0,1.0,0.0
1052,73.0,1.0,30.0,5.0,0.0
1053,73.0,0.0,30.0,0.0,0.0
1054,66.0,0.0,60.0,7.0,0.0
1055,60.0,0.0,60.0,2.0,0.0
1056,44.0,29.0,60.0,8.0,0.0
1057,75.0,0.0,30.0,5.0,0.0
1058,66.0,1.0,60.0,1.0,0.0
1059,75.0,30.0,30.0,0.0,0.0
1060,72.0,0.0,30.0,5.0,0.0
1061,72.0,0.0,30.0,0.0,0.0
1062,73.0,0.0,60.0,0.0,0.0
1063,56.0,0.0,60.0,2.0,0.0
1064,73.0,0.0,60.0,5.0,0.0
1065,56.0,1.0,30.0,8.0,0.0
1066,65.0,0.0,60.0,7.0,0.0
1067,65.0,0.0,60.0,1.0,0.0
1068,54.0,0.0,30.0,6.0,0.0
1069,54.0,1.0,30.0,8.0,0.0
1070,54.0,29.0,30.0,3.0,0.0
1071,42.0,0.0,30.0,4.0,0.0
1072,53.0,0.0,30.0,8.0,0.0
1073,68.0,1.0,30.0,5.0,0.0
1074,61.0,0.0,60.0,1.0,0.0
1075,53.0,0.0,30.0,3.0,0.0
1076,41.0,29.0,30.0,4.0,0.0
1077,61.0,0.0,60.0,2.0,0.0
1078,53.0,0.0,30.0,6.0,0.0
1079,68.0,0.0,30.0,0.0,0.0
1080,61.0,0.0,60.0,7.0,0.0
1081,51.0,0.0,30.0,3.0,0.0
1082,66.0,0.0,30.0,5.0,0.0
1083,51.0,1.0,30.0,6.0,0.0
1084,66.0,0.0,30.0,0.0,0.0
1085,39.0,29.0,30.0,4.0,0.0
1086,51.0,0.0,30.0,8.0,0.0
1087,71.0,0.0,180.0,7.0,0.0
1088,53.0,0.0,30.0,3.0,0.0
1089,68.0,0.0,30.0,5.0,0.0
1090,41.0,29.0,30.0,4.0,0.0
1091,68.0,0.0,30.0,0.0,0.0
1092,53.0,1.0,30.0,8.0,0.0
1093,71.0,0.0,180.0,1.0,0.0
1094,53.0,0.0,30.0,6.0,0.0
1095,65.0,1.0,30.0,0.0,0.0
1096,49.0,0.0,30.0,8.0,0.0
1097,49.0,29.0,30.0,3.0,0.0
1098,65.0,0.0,30.0,5.0,0.0
1099,37.0,0.0,30.0,4.0,0.0
1100,49.0,0.0,30.0,6.0,0.0
1101,39.0,0.0,30.0,4.0,0.0
1102,51.0,29.0,30.0,3.0,0.0
1103,66.0,0.0,30.0,0.0,0.0
1104,66.0,0.0,30.0,5.0,0.0
1105,51.0,0.0,30.0,8.0,0.0
1106,56.0,29.0,90.0,2.0,0.0
1107,51.0,1.0,30.0,6.0,0.0
1108,53.0,0.0,30.0,6.0,0.0
1109,41.0,30.0,30.0,4.0,0.0
1110,68.0,1.0,30.0,5.0,0.0
1111,53.0,0.0,30.0,8.0,0.0
1112,68.0,0.0,30.0,0.0,0.0
1113,53.0,0.0,30.0,3.0,0.0
1114,54.0,1.0,60.0,8.0,0.0
1115,61.0,0.0,60.0,0.0,0.0
1116,54.0,0.0,60.0,3.0,0.0
1117,54.0,0.0,60.0,6.0,0.0
1118,61.0,0.0,60.0,5.0,0.0
1119,42.0,29.0,60.0,4.0,0.0
1120,49.0,0.0,30.0,2.0,0.0
1121,70.0,30.0,30.0,7.0,0.0
1122,42.0,0.0,60.0,6.0,0.0
1123,70.0,0.0,30.0,1.0,0.0
1124,66.0,0.0,60.0,0.0,0.0
1125,66.0,0.0,60.0,5.0,0.0
1126,51.0,0.0,30.0,2.0,0.0
1127,42.0,0.0,60.0,8.0,0.0
1128,30.0,29.0,60.0,4.0,0.0
1129,42.0,0.0,60.0,3.0,0.0
1130,68.0,1.0,30.0,1.0,0.0
1131,68.0,0.0,30.0,7.0,0.0
1132,53.0,0.0,30.0,2.0,0.0
1133,70.0,0.0,60.0,1.0,0.0
1134,54.0,30.0,60.0,6.0,0.0
1135,42.0,0.0,150.0,4.0,0.0
1136,70.0,0.0,60.0,7.0,0.0
1137,54.0,29.0,150.0,3.0,0.0
1138,73.0,0.0,180.0,5.0,0.0
1139,73.0,0.0,180.0,0.0,0.0
1140,54.0,0.0,150.0,8.0,0.0
1141,54.0,30.0,30.0,2.0,0.0
1142,56.0,0.0,30.0,2.0,0.0
1143,66.0,0.0,60.0,1.0,0.0
1144,42.0,30.0,60.0,6.0,0.0
1145,66.0,0.0,60.0,7.0,0.0
1146,57.0,30.0,30.0,2.0,0.0
1147,59.0,0.0,30.0,2.0,0.0
1148,57.0,1.0,30.0,2.0,0.0
1149,63.0,1.0,60.0,1.0,0.0
1150,54.0,0.0,30.0,6.0,0.0
1151,63.0,0.0,60.0,7.0,0.0
1152,40.0,29.0,30.0,4.0,0.0
1153,52.0,0.0,30.0,6.0,0.0
1154,52.0,0.0,30.0,3.0,0.0
1155,52.0,0.0,30.0,8.0,0.0
1156,56.0,0.0,30.0,2.0,0.0
1157,66.0,1.0,60.0,1.0,0.0
1158,66.0,0.0,60.0,7.0,0.0
1159,72.0,0.0,30.0,5.0,0.0
1160,51.0,0.0,30.0,8.0,0.0
1161,51.0,29.0,30.0,3.0,0.0
1162,54.0,0.0,30.0,2.0,0.0
1163,72.0,1.0,30.0,0.0,0.0
1164,51.0,0.0,30.0,6.0,0.0
1165,39.0,0.0,30.0,4.0,0.0
1166,52.0,0.0,30.0,3.0,0.0
1167,52.0,0.0,30.0,8.0,0.0
1168,40.0,29.0,30.0,4.0,0.0
1169,73.0,0.0,30.0,5.0,0.0
1170,52.0,0.0,30.0,2.0,0.0
1171,73.0,0.0,30.0,0.0,0.0
1172,52.0,0.0,30.0,6.0,0.0
1173,75.0,0.0,60.0,5.0,0.0
1174,54.0,0.0,30.0,3.0,0.0
1175,54.0,0.0,30.0,6.0,0.0
1176,75.0,0.0,60.0,0.0,0.0
1177,69.0,0.0,60.0,7.0,0.0
1178,51.0,1.0,30.0,2.0,0.0
1179,69.0,0.0,60.0,1.0,0.0
1180,42.0,29.0,30.0,4.0,0.0
1181,54.0,0.0,30.0,8.0,0.0
1182,56.0,0.0,30.0,3.0,0.0
1183,44.0,29.0,30.0,4.0,0.0
1184,52.0,1.0,30.0,2.0,0.0
1185,56.0,0.0,30.0,6.0,0.0
1186,56.0,0.0,30.0,8.0,0.0
1187,57.0,1.0,30.0,8.0,0.0
1188,57.0,0.0,30.0,3.0,0.0
1189,57.0,0.0,30.0,6.0,0.0
1190,45.0,29.0,30.0,4.0,0.0
1191,66.0,0.0,120.0,0.0,0.0
1192,54.0,0.0,30.0,2.0,0.0
1193,66.0,0.0,120.0,5.0,0.0
1194,61.0,0.0,60.0,1.0,0.0
1195,61.0,1.0,60.0,7.0,0.0
1196,54.0,0.0,30.0,3.0,0.0
1197,42.0,29.0,30.0,4.0,0.0
1198,54.0,0.0,30.0,8.0,0.0
1199,51.0,0.0,30.0,2.0,0.0
1200,54.0,0.0,30.0,6.0,0.0
1201,60.0,1.0,60.0,1.0,0.0
1202,63.0,0.0,30.0,2.0,0.0
1203,56.0,0.0,30.0,6.0,0.0
1204,56.0,29.0,30.0,3.0,0.0
1205,60.0,0.0,60.0,7.0,0.0
1206,44.0,0.0,30.0,4.0,0.0
1207,56.0,1.0,30.0,8.0,0.0
1208,57.0,0.0,30.0,3.0,0.0
1209,45.0,29.0,30.0,4.0,0.0
1210,57.0,0.0,30.0,6.0,0.0
1211,61.0,0.0,30.0,2.0,0.0
1212,57.0,0.0,30.0,8.0,0.0
1213,64.0,0.0,30.0,0.0,0.0
1214,60.0,0.0,30.0,2.0,0.0
1215,56.0,0.0,30.0,6.0,0.0
1216,68.0,0.0,60.0,7.0,0.0
1217,68.0,1.0,60.0,1.0,0.0
1218,56.0,1.0,30.0,8.0,0.0
1219,44.0,29.0,30.0,4.0,0.0
1220,64.0,0.0,30.0,5.0,0.0
1221,56.0,0.0,30.0,3.0,0.0
1222,54.0,0.0,30.0,8.0,0.0
1223,66.0,0.0,30.0,0.0,0.0
1224,66.0,0.0,30.0,5.0,0.0
1225,54.0,0.0,30.0,6.0,0.0
1226,58.0,0.0,30.0,2.0,0.0
1227,42.0,0.0,30.0,4.0,0.0
1228,54.0,29.0,30.0,3.0,0.0
1229,56.0,1.0,30.0,2.0,0.0
1230,52.0,0.0,30.0,6.0,0.0
1231,40.0,0.0,30.0,4.0,0.0
1232,68.0,0.0,60.0,5.0,0.0
1233,68.0,0.0,60.0,0.0,0.0
1234,61.0,0.0,60.0,7.0,0.0
1235,61.0,1.0,60.0,1.0,0.0
1236,52.0,0.0,30.0,8.0,0.0
1237,52.0,29.0,30.0,3.0,0.0
1238,39.0,29.0,30.0,4.0,0.0
1239,54.0,0.0,30.0,2.0,0.0
1240,51.0,0.0,30.0,8.0,0.0
1241,51.0,0.0,30.0,3.0,0.0
1242,51.0,0.0,30.0,6.0,0.0
1243,75.0,1.0,120.0,5.0,0.0
1244,49.0,0.0,30.0,6.0,0.0
1245,66.0,0.0,60.0,1.0,0.0
1246,37.0,29.0,30.0,4.0,0.0
1247,49.0,0.0,30.0,3.0,0.0
1248,75.0,0.0,120.0,0.0,0.0
1249,52.0,1.0,30.0,2.0,0.0
1250,49.0,0.0,30.0,8.0,0.0
1251,66.0,0.0,60.0,7.0,0.0
1252,48.0,1.0,30.0,6.0,0.0
1253,51.0,0.0,30.0,2.0,0.0
1254,48.0,0.0,30.0,8.0,0.0
1255,48.0,0.0,30.0,3.0,0.0
1256,36.0,29.0,30.0,4.0,0.0
1257,64.0,0.0,120.0,7.0,0.0
1258,49.0,0.0,30.0,8.0,0.0
1259,49.0,0.0,30.0,6.0,0.0
1260,49.0,0.0,30.0,3.0,0.0
1261,37.0,29.0,30.0,4.0,0.0
1262,64.0,0.0,120.0,1.0,0.0
1263,52.0,1.0,30.0,2.0,0.0
1264,47.0,0.0,30.0,8.0,0.0
1265,47.0,0.0,30.0,3.0,0.0
1266,35.0,29.0,30.0,4.0,0.0
1267,47.0,0.0,30.0,6.0,0.0
1268,56.0,0.0,30.0,2.0,0.0
1269,55.0,0.0,30.0,2.0,0.0
1270,46.0,1.0,30.0,6.0,0.0
1271,73.0,0.0,120.0,0.0,0.0
1272,34.0,0.0,30.0,4.0,0.0
1273,46.0,0.0,30.0,8.0,0.0
1274,73.0,0.0,120.0,5.0,0.0
1275,46.0,29.0,30.0,3.0,0.0
1276,32.0,0.0,30.0,4.0,0.0
1277,44.0,0.0,30.0,6.0,0.0
1278,44.0,29.0,30.0,3.0,0.0
1279,56.0,0.0,30.0,2.0,0.0
1280,44.0,1.0,30.0,8.0,0.0
1281,43.0,29.0,30.0,3.0,0.0
1282,63.0,0.0,120.0,7.0,0.0
1283,58.0,0.0,60.0,2.0,0.0
1284,43.0,0.0,30.0,6.0,0.0
1285,43.0,1.0,30.0,8.0,0.0
1286,63.0,1.0,120.0,1.0,0.0
1287,31.0,0.0,30.0,4.0,0.0
1288,39.0,1.0,30.0,8.0,0.0
1289,39.0,0.0,30.0,6.0,0.0
1290,39.0,29.0,30.0,3.0,0.0
1291,27.0,0.0,30.0,4.0,0.0
1292,44.0,0.0,30.0,3.0,0.0
1293,44.0,1.0,30.0,6.0,0.0
1294,32.0,29.0,30.0,4.0,0.0
1295,71.0,0.0,120.0,5.0,0.0
1296,71.0,0.0,120.0,0.0,0.0
1297,44.0,0.0,30.0,8.0,0.0
1298,56.0,1.0,120.0,2.0,0.0
1299,42.0,0.0,30.0,8.0,0.0
1300,42.0,0.0,30.0,3.0,0.0
1301,30.0,29.0,30.0,4.0,0.0
1302,42.0,0.0,30.0,6.0,0.0
1303,61.0,0.0,120.0,1.0,0.0
1304,28.0,0.0,30.0,4.0,0.0
1305,40.0,29.0,30.0,3.0,0.0
1306,41.0,0.0,30.0,8.0,0.0
1307,41.0,1.0,30.0,6.0,0.0
1308,61.0,0.0,120.0,7.0,0.0
1309,44.0,0.0,30.0,8.0,0.0
1310,32.0,0.0,30.0,4.0,0.0
1311,44.0,29.0,30.0,3.0,0.0
1312,44.0,0.0,30.0,6.0,0.0
1313,58.0,0.0,30.0,2.0,0.0
1314,43.0,0.0,30.0,6.0,0.0
1315,43.0,0.0,30.0,3.0,0.0
1316,31.0,29.0,30.0,4.0,0.0
1317,70.0,0.0,30.0,0.0,0.0
1318,43.0,0.0,30.0,8.0,0.0
1319,70.0,1.0,30.0,5.0,0.0
1320,68.0,0.0,30.0,0.0,0.0
1321,44.0,0.0,30.0,6.0,0.0
1322,44.0,0.0,30.0,8.0,0.0
1323,59.0,0.0,30.0,2.0,0.0
1324,68.0,1.0,30.0,5.0,0.0
1325,32.0,29.0,30.0,4.0,0.0
1326,44.0,0.0,30.0,3.0,0.0
1327,67.0,0.0,30.0,5.0,0.0
1328,34.0,29.0,30.0,4.0,0.0
1329,46.0,0.0,30.0,6.0,0.0
1330,61.0,0.0,30.0,2.0,0.0
1331,67.0,0.0,30.0,0.0,0.0
1332,46.0,1.0,30.0,8.0,0.0
1333,46.0,0.0,30.0,3.0,0.0
1334,47.0,0.0,30.0,8.0,0.0
1335,63.0,0.0,30.0,2.0,0.0
1336,47.0,29.0,30.0,3.0,0.0
1337,68.0,0.0,30.0,5.0,0.0
1338,35.0,0.0,30.0,4.0,0.0
1339,68.0,1.0,30.0,0.0,0.0
1340,47.0,0.0,30.0,6.0,0.0
1341,49.0,0.0,30.0,6.0,0.0
1342,49.0,29.0,30.0,3.0,0.0
1343,37.0,0.0,30.0,4.0,0.0
1344,61.0,0.0,30.0,2.0,0.0
1345,49.0,1.0,30.0,8.0,0.0
1346,65.0,0.0,30.0,5.0,0.0
1347,58.0,0.0,60.0,1.0,0.0
1348,65.0,0.0,30.0,0.0,0.0
1349,58.0,0.0,60.0,7.0,0.0
1350,63.0,0.0,30.0,2.0,0.0
1351,46.0,1.0,30.0,6.0,0.0
1352,46.0,0.0,30.0,8.0,0.0
1353,34.0,29.0,30.0,4.0,0.0
1354,46.0,0.0,30.0,3.0,0.0
1355,67.0,0.0,30.0,5.0,0.0
1356,67.0,0.0,30.0,0.0,0.0
1357,68.0,0.0,30.0,0.0,0.0
1358,47.0,1.0,30.0,8.0,0.0
1359,63.0,0.0,60.0,7.0,0.0
1360,59.0,0.0,60.0,2.0,0.0
1361,47.0,0.0,30.0,6.0,0.0
1362,63.0,0.0,60.0,1.0,0.0
1363,47.0,0.0,30.0,3.0,0.0
1364,68.0,0.0,30.0,5.0,0.0
1365,35.0,29.0,30.0,4.0,0.0
1366,46.0,0.0,30.0,3.0,0.0
1367,46.0,0.0,30.0,6.0,0.0
1368,70.0,0.0,30.0,0.0,0.0
1369,70.0,1.0,30.0,5.0,0.0
1370,34.0,29.0,30.0,4.0,0.0
1371,46.0,0.0,30.0,8.0,0.0
1372,44.0,29.0,30.0,3.0,0.0
1373,44.0,1.0,30.0,6.0,0.0
1374,44.0,0.0,30.0,8.0,0.0
1375,63.0,1.0,60.0,2.0,0.0
1376,51.0,29.0,60.0,7.0,0.0
1377,71.0,0.0,30.0,0.0,0.0
1378,71.0,0.0,30.0,5.0,0.0
1379,32.0,0.0,30.0,4.0,0.0
1380,51.0,0.0,60.0,1.0,0.0
1381,46.0,0.0,30.0,6.0,0.0
1382,46.0,0.0,30.0,8.0,0.0
1383,34.0,0.0,30.0,4.0,0.0
1384,73.0,0.0,30.0,0.0,0.0
1385,46.0,0.0,30.0,3.0,0.0
1386,73.0,0.0,30.0,5.0,0.0
1387,47.0,0.0,30.0,6.0,0.0
1388,75.0,0.0,60.0,5.0,0.0
1389,47.0,1.0,30.0,8.0,0.0
1390,47.0,29.0,30.0,3.0,0.0
1391,75.0,0.0,60.0,0.0,0.0
1392,35.0,0.0,30.0,4.0,0.0
1393,63.0,0.0,150.0,7.0,0.0
1394,63.0,29.0,150.0,1.0,0.0
1395,56.0,0.0,60.0,2.0,0.0
1396,34.0,29.0,30.0,4.0,0.0
1397,46.0,1.0,30.0,6.0,0.0
1398,46.0,0.0,30.0,3.0,0.0
1399,46.0,0.0,30.0,8.0,0.0
1400,47.0,29.0,30.0,3.0,0.0
1401,47.0,1.0,30.0,6.0,0.0
1402,47.0,0.0,30.0,8.0,0.0
1403,80.0,0.0,60.0,5.0,0.0
1404,80.0,0.0,60.0,0.0,0.0
1405,59.0,0.0,60.0,2.0,0.0
1406,35.0,0.0,30.0,4.0,0.0
1407,49.0,0.0,30.0,8.0,0.0
1408,37.0,30.0,30.0,4.0,0.0
1409,49.0,1.0,30.0,6.0,0.0
1410,49.0,0.0,30.0,3.0,0.0
1411,79.0,1.0,60.0,5.0,0.0
1412,51.0,0.0,60.0,3.0,0.0
1413,58.0,0.0,60.0,2.0,0.0
1414,51.0,0.0,60.0,8.0,0.0
1415,79.0,0.0,60.0,0.0,0.0
1416,51.0,0.0,60.0,6.0,0.0
1417,39.0,29.0,60.0,4.0,0.0
1418,62.0,0.0,30.0,1.0,0.0
1419,62.0,0.0,30.0,7.0,0.0
1420,75.0,0.0,60.0,0.0,0.0
1421,63.0,0.0,30.0,7.0,0.0
1422,27.0,0.0,60.0,4.0,0.0
1423,55.0,0.0,60.0,2.0,0.0
1424,75.0,0.0,60.0,5.0,0.0
1425,63.0,30.0,30.0,1.0,0.0
1426,39.0,0.0,60.0,8.0,0.0
1427,39.0,29.0,60.0,3.0,0.0
1428,39.0,0.0,60.0,6.0,0.0
1429,65.0,0.0,30.0,1.0,0.0
1430,65.0,1.0,30.0,7.0,0.0
1431,51.0,29.0,150.0,8.0,0.0
1432,70.0,0.0,60.0,5.0,0.0
1433,51.0,0.0,150.0,3.0,0.0
1434,67.0,30.0,30.0,7.0,0.0
1435,39.0,0.0,150.0,4.0,0.0
1436,70.0,0.0,60.0,0.0,0.0
1437,67.0,0.0,30.0,1.0,0.0
1438,51.0,0.0,60.0,6.0,0.0
1439,58.0,30.0,60.0,2.0,0.0
1440,68.0,0.0,30.0,1.0,0.0
1441,68.0,0.0,30.0,7.0,0.0
1442,70.0,0.0,30.0,7.0,0.0
1443,55.0,30.0,60.0,2.0,0.0
1444,39.0,0.0,60.0,6.0,0.0
1445,73.0,0.0,60.0,0.0,0.0
1446,73.0,0.0,60.0,5.0,0.0
1447,70.0,30.0,30.0,1.0,0.0
1448,67.0,0.0,30.0,1.0,0.0
1449,67.0,0.0,30.0,7.0,0.0
1450,72.0,0.0,60.0,0.0,0.0
1451,51.0,0.0,60.0,2.0,0.0
1452,68.0,0.0,30.0,7.0,0.0
1453,51.0,1.0,30.0,6.0,0.0
1454,72.0,1.0,60.0,5.0,0.0
1455,68.0,0.0,30.0,1.0,0.0
1456,37.0,29.0,30.0,4.0,0.0
1457,49.0,0.0,30.0,3.0,0.0
1458,64.0,0.0,30.0,7.0,0.0
1459,49.0,0.0,30.0,6.0,0.0
1460,64.0,0.0,30.0,1.0,0.0
1461,49.0,0.0,30.0,8.0,0.0
1462,36.0,0.0,30.0,4.0,0.0
1463,47.0,0.0,30.0,6.0,0.0
1464,68.0,0.0,60.0,0.0,0.0
1465,63.0,1.0,30.0,1.0,0.0
1466,56.0,1.0,60.0,2.0,0.0
1467,48.0,29.0,30.0,3.0,0.0
1468,47.0,0.0,30.0,8.0,0.0
1469,63.0,0.0,30.0,7.0,0.0
1470,68.0,0.0,60.0,5.0,0.0
1471,61.0,0.0,30.0,1.0,0.0
1472,34.0,29.0,30.0,4.0,0.0
1473,46.0,0.0,30.0,8.0,0.0
1474,46.0,0.0,30.0,6.0,0.0
1475,61.0,0.0,30.0,7.0,0.0
1476,46.0,0.0,30.0,3.0,0.0
1477,78.0,0.0,180.0,5.0,0.0
1478,63.0,0.0,30.0,1.0,0.0
1479,48.0,29.0,30.0,3.0,0.0
1480,36.0,0.0,30.0,4.0,0.0
1481,47.0,0.0,30.0,6.0,0.0
1482,78.0,0.0,180.0,0.0,0.0
1483,63.0,1.0,30.0,7.0,0.0
1484,47.0,0.0,30.0,8.0,0.0
1485,60.0,0.0,30.0,1.0,0.0
1486,32.0,29.0,30.0,4.0,0.0
1487,60.0,0.0,30.0,7.0,0.0
1488,44.0,0.0,30.0,6.0,0.0
1489,44.0,1.0,30.0,8.0,0.0
1490,44.0,0.0,30.0,3.0,0.0
1491,63.0,30.0,90.0,2.0,0.0
1492,46.0,29.0,30.0,3.0,0.0
1493,46.0,0.0,30.0,6.0,0.0
1494,61.0,0.0,30.0,1.0,0.0
1495,34.0,0.0,30.0,4.0,0.0
1496,61.0,1.0,30.0,7.0,0.0
1497,46.0,0.0,30.0,8.0,0.0
1498,36.0,0.0,30.0,4.0,0.0
1499,63.0,1.0,30.0,7.0,0.0
1500,63.0,0.0,30.0,1.0,0.0
1501,47.0,0.0,30.0,8.0,0.0
1502,47.0,0.0,30.0,6.0,0.0
1503,48.0,29.0,30.0,3.0,0.0
1504,49.0,0.0,60.0,6.0,0.0
1505,49.0,0.0,60.0,3.0,0.0
1506,56.0,0.0,60.0,1.0,0.0
1507,37.0,29.0,60.0,4.0,0.0
1508,49.0,1.0,60.0,8.0,0.0
1509,56.0,0.0,60.0,7.0,0.0
1510,56.0,0.0,30.0,2.0,0.0
1511,25.0,29.0,60.0,4.0,0.0
1512,37.0,1.0,60.0,8.0,0.0
1513,61.0,0.0,60.0,7.0,0.0
1514,37.0,0.0,60.0,6.0,0.0
1515,77.0,0.0,30.0,5.0,0.0
1516,37.0,0.0,60.0,3.0,0.0
1517,58.0,0.0,30.0,2.0,0.0
1518,77.0,30.0,30.0,0.0,0.0
1519,61.0,0.0,60.0,1.0,0.0
1520,75.0,0.0,30.0,5.0,0.0
1521,75.0,0.0,30.0,0.0,0.0
1522,59.0,0.0,30.0,2.0,0.0
1523,77.0,0.0,60.0,5.0,0.0
1524,49.0,0.0,150.0,6.0,0.0
1525,68.0,0.0,180.0,1.0,0.0
1526,49.0,0.0,150.0,3.0,0.0
1527,37.0,29.0,150.0,4.0,0.0
1528,61.0,30.0,30.0,2.0,0.0
1529,68.0,0.0,180.0,7.0,0.0
1530,77.0,0.0,60.0,0.0,0.0
1531,49.0,30.0,60.0,8.0,0.0
1532,63.0,0.0,30.0,2.0,0.0
1533,73.0,0.0,60.0,5.0,0.0
1534,73.0,0.0,60.0,0.0,0.0
1535,37.0,0.0,60.0,8.0,0.0
1536,64.0,30.0,30.0,2.0,0.0
1537,66.0,30.0,30.0,2.0,0.0
1538,64.0,0.0,30.0,2.0,0.0
1539,49.0,1.0,30.0,8.0,0.0
1540,70.0,30.0,60.0,5.0,0.0
1541,70.0,0.0,60.0,0.0,0.0
1542,35.0,0.0,30.0,4.0,0.0
1543,47.0,0.0,30.0,3.0,0.0
1544,47.0,0.0,30.0,8.0,0.0
1545,47.0,0.0,30.0,6.0,0.0
1546,63.0,0.0,30.0,2.0,0.0
1547,64.0,30.0,30.0,2.0,0.0
1548,73.0,0.0,60.0,0.0,0.0
1549,67.0,0.0,30.0,1.0,0.0
1550,46.0,0.0,30.0,8.0,0.0
1551,46.0,0.0,30.0,6.0,0.0
1552,34.0,0.0,30.0,4.0,0.0
1553,67.0,0.0,30.0,7.0,0.0
1554,46.0,0.0,30.0,3.0,0.0
1555,73.0,0.0,60.0,5.0,0.0
1556,47.0,0.0,30.0,3.0,0.0
1557,68.0,0.0,30.0,1.0,0.0
1558,63.0,30.0,30.0,2.0,0.0
1559,47.0,0.0,30.0,6.0,0.0
1560,35.0,0.0,30.0,4.0,0.0
1561,47.0,0.0,30.0,8.0,0.0
1562,68.0,0.0,30.0,7.0,0.0
1563,49.0,30.0,30.0,6.0,0.0
1564,70.0,0.0,30.0,1.0,0.0
1565,76.0,0.0,60.0,5.0,0.0
1566,49.0,0.0,30.0,3.0,0.0
1567,37.0,0.0,30.0,4.0,0.0
1568,61.0,0.0,60.0,2.0,0.0
1569,49.0,0.0,30.0,8.0,0.0
1570,76.0,0.0,60.0,0.0,0.0
1571,70.0,0.0,30.0,7.0,0.0
1572,51.0,0.0,30.0,6.0,0.0
1573,71.0,0.0,30.0,1.0,0.0
1574,71.0,0.0,30.0,7.0,0.0
1575,39.0,0.0,30.0,4.0,0.0
1576,51.0,0.0,30.0,3.0,0.0
1577,51.0,30.0,30.0,8.0,0.0
1578,73.0,0.0,90.0,1.0,0.0
1579,73.0,0.0,90.0,7.0,0.0
1580,49.0,30.0,60.0,2.0,0.0
1581,40.0,0.0,30.0,4.0,0.0
1582,68.0,0.0,60.0,5.0,0.0
1583,52.0,0.0,30.0,3.0,0.0
1584,52.0,30.0,30.0,6.0,0.0
1585,52.0,0.0,30.0,8.0,0.0
1586,68.0,0.0,60.0,0.0,0.0
1587,37.0,0.0,30.0,4.0,0.0
1588,49.0,0.0,30.0,8.0,0.0
1589,49.0,0.0,30.0,3.0,0.0
1590,49.0,0.0,30.0,6.0,0.0
1591,51.0,0.0,30.0,6.0,0.0
1592,39.0,0.0,30.0,4.0,0.0
1593,51.0,30.0,30.0,3.0,0.0
1594,67.0,0.0,60.0,5.0,0.0
1595,67.0,0.0,60.0,0.0,0.0
1596,58.0,0.0,30.0,2.0,0.0
1597,51.0,0.0,30.0,8.0,0.0
1598,52.0,0.0,30.0,8.0,0.0
1599,52.0,0.0,30.0,6.0,0.0
1600,40.0,0.0,30.0,4.0,0.0
1601,55.0,0.0,30.0,2.0,0.0
1602,52.0,0.0,30.0,3.0,0.0
1603,70.0,30.0,30.0,1.0,0.0
1604,70.0,0.0,30.0,7.0,0.0
1605,51.0,0.0,30.0,8.0,0.0
1606,71.0,30.0,30.0,7.0,0.0
1607,75.0,0.0,60.0,0.0,0.0
1608,39.0,0.0,30.0,4.0,0.0
1609,51.0,0.0,30.0,6.0,0.0
1610,71.0,0.0,30.0,1.0,0.0
1611,56.0,0.0,30.0,2.0,0.0
1612,75.0,0.0,60.0,5.0,0.0
1613,51.0,0.0,30.0,3.0,0.0
1614,49.0,0.0,30.0,3.0,0.0
1615,37.0,0.0,30.0,4.0,0.0
1616,58.0,0.0,30.0,2.0,0.0
1617,73.0,0.0,30.0,7.0,0.0
1618,49.0,30.0,30.0,6.0,0.0
1619,73.0,0.0,30.0,1.0,0.0
1620,49.0,0.0,30.0,8.0,0.0
1621,35.0,0.0,30.0,4.0,0.0
1622,68.0,30.0,60.0,0.0,0.0
1623,47.0,0.0,30.0,3.0,0.0
1624,75.0,0.0,60.0,7.0,0.0
1625,68.0,0.0,60.0,5.0,0.0
1626,47.0,30.0,30.0,6.0,0.0
1627,47.0,0.0,30.0,8.0,0.0
1628,75.0,0.0,60.0,1.0,0.0
1629,59.0,0.0,30.0,2.0,0.0
1630,34.0,0.0,30.0,4.0,0.0
1631,46.0,0.0,30.0,3.0,0.0
1632,46.0,0.0,30.0,8.0,0.0
1633,61.0,0.0,30.0,2.0,0.0
1634,46.0,0.0,30.0,6.0,0.0
1635,44.0,0.0,30.0,6.0,0.0
1636,44.0,0.0,30.0,3.0,0.0
1637,70.0,1.0,120.0,1.0,0.0
1638,63.0,0.0,60.0,2.0,0.0
1639,73.0,60.0,60.0,5.0,0.0
1640,73.0,0.0,60.0,0.0,0.0
1641,70.0,0.0,120.0,7.0,0.0
1642,32.0,0.0,30.0,4.0,0.0
1643,44.0,30.0,30.0,8.0,0.0
1644,43.0,0.0,30.0,8.0,0.0
1645,31.0,0.0,30.0,4.0,0.0
1646,43.0,0.0,30.0,3.0,0.0
1647,43.0,0.0,30.0,6.0,0.0
1648,51.0,0.0,60.0,2.0,0.0
1649,71.0,0.0,120.0,0.0,0.0
1650,44.0,0.0,60.0,8.0,0.0
1651,44.0,0.0,60.0,6.0,0.0
1652,44.0,0.0,60.0,3.0,0.0
1653,32.0,59.0,60.0,4.0,0.0
1654,71.0,0.0,120.0,5.0,0.0
1655,40.0,59.0,60.0,3.0,0.0
1656,68.0,0.0,120.0,1.0,0.0
1657,56.0,0.0,60.0,2.0,0.0
1658,40.0,0.0,60.0,8.0,0.0
1659,68.0,0.0,120.0,7.0,0.0
1660,40.0,1.0,60.0,6.0,0.0
1661,28.0,0.0,60.0,4.0,0.0
1662,37.0,0.0,60.0,8.0,0.0
1663,64.0,1.0,60.0,2.0,0.0
1664,70.0,0.0,120.0,5.0,0.0
1665,37.0,59.0,60.0,3.0,0.0
1666,25.0,0.0,60.0,4.0,0.0
1667,70.0,0.0,120.0,0.0,0.0
1668,37.0,0.0,60.0,6.0,0.0
1669,67.0,0.0,60.0,1.0,0.0
1670,67.0,0.0,60.0,7.0,0.0
1671,39.0,1.0,60.0,6.0,0.0
1672,39.0,0.0,60.0,8.0,0.0
1673,63.0,0.0,60.0,2.0,0.0
1674,27.0,0.0,60.0,4.0,0.0
1675,39.0,59.0,60.0,3.0,0.0
1676,32.0,0.0,120.0,8.0,0.0
1677,68.0,30.0,60.0,5.0,0.0
1678,68.0,0.0,120.0,0.0,0.0
1679,59.0,0.0,120.0,2.0,0.0
1680,20.0,0.0,120.0,4.0,0.0
1681,68.0,0.0,120.0,7.0,0.0
1682,32.0,0.0,120.0,3.0,0.0
1683,32.0,0.0,120.0,6.0,0.0
1684,68.0,30.0,120.0,1.0,0.0
1685,66.0,30.0,30.0,5.0,0.0
1686,64.0,0.0,30.0,5.0,0.0
1687,63.0,30.0,30.0,5.0,0.0
1688,61.0,30.0,30.0,5.0,0.0
1689,59.0,30.0,30.0,5.0,0.0
1690,58.0,30.0,30.0,5.0,0.0
1691,63.0,0.0,60.0,1.0,0.0
1692,59.0,30.0,30.0,5.0,0.0
1693,56.0,0.0,60.0,2.0,0.0
1694,68.0,29.0,60.0,0.0,0.0
1695,32.0,0.0,60.0,4.0,0.0
1696,44.0,0.0,60.0,3.0,0.0
1697,56.0,0.0,30.0,6.0,0.0
1698,51.0,1.0,30.0,6.0,0.0
1699,75.0,0.0,30.0,5.0,0.0
1700,47.0,30.0,30.0,6.0,0.0
1701,51.0,30.0,30.0,6.0,0.0
1702,55.0,30.0,30.0,6.0,0.0
1703,55.0,0.0,60.0,2.0,0.0
1704,27.0,0.0,60.0,4.0,0.0
1705,70.0,0.0,60.0,0.0,0.0
1706,39.0,29.0,60.0,3.0,0.0
1707,58.0,0.0,30.0,5.0,0.0
1708,63.0,0.0,60.0,1.0,0.0
1709,51.0,1.0,30.0,6.0,0.0
1710,73.0,0.0,30.0,5.0,0.0
1711,46.0,30.0,30.0,6.0,0.0
1712,51.0,30.0,30.0,6.0,0.0
1713,56.0,0.0,30.0,5.0,0.0
1714,32.0,0.0,60.0,3.0,0.0
1715,63.0,29.0,60.0,1.0,0.0
1716,56.0,0.0,60.0,2.0,0.0
1717,20.0,0.0,60.0,4.0,0.0
1718,56.0,30.0,30.0,6.0,0.0
1719,71.0,0.0,60.0,0.0,0.0
1720,55.0,1.0,30.0,6.0,0.0
1721,73.0,0.0,30.0,5.0,0.0
1722,71.0,0.0,30.0,5.0,0.0
1723,56.0,30.0,30.0,6.0,0.0
1724,70.0,30.0,30.0,5.0,0.0
1725,58.0,0.0,30.0,6.0,0.0
1726,59.0,0.0,30.0,6.0,0.0
1727,68.0,30.0,30.0,5.0,0.0
1728,66.0,0.0,30.0,5.0,0.0
1729,60.0,30.0,30.0,6.0,0.0
1730,61.0,30.0,30.0,6.0,0.0
1731,64.0,0.0,30.0,5.0,0.0
1732,63.0,0.0,30.0,5.0,0.0
1733,63.0,30.0,30.0,6.0,0.0
1734,64.0,0.0,30.0,5.0,0.0
1735,37.0,0.0,60.0,4.0,0.0
1736,64.0,29.0,60.0,1.0,0.0
1737,68.0,0.0,60.0,2.0,0.0
1738,73.0,0.0,60.0,0.0,0.0
1739,61.0,30.0,30.0,6.0,0.0
1740,49.0,0.0,60.0,3.0,0.0
1741,56.0,1.0,30.0,6.0,0.0
1742,80.0,0.0,30.0,5.0,0.0
1743,52.0,30.0,30.0,6.0,0.0
1744,56.0,30.0,30.0,6.0,0.0
1745,68.0,0.0,60.0,2.0,0.0
1746,75.0,29.0,60.0,0.0,0.0
1747,60.0,30.0,30.0,6.0,0.0
1748,44.0,0.0,60.0,3.0,0.0
1749,60.0,0.0,60.0,1.0,0.0
1750,63.0,0.0,30.0,5.0,0.0
1751,32.0,0.0,60.0,4.0,0.0
1752,56.0,1.0,30.0,6.0,0.0
1753,51.0,30.0,30.0,6.0,0.0
1754,78.0,0.0,30.0,5.0,0.0
1755,56.0,30.0,30.0,6.0,0.0
1756,61.0,0.0,30.0,6.0,0.0
1757,25.0,29.0,60.0,4.0,0.0
1758,61.0,30.0,30.0,5.0,0.0
1759,37.0,0.0,60.0,3.0,0.0
1760,68.0,0.0,60.0,2.0,0.0
1761,61.0,0.0,60.0,1.0,0.0
1762,76.0,0.0,60.0,0.0,0.0
1763,78.0,0.0,30.0,5.0,0.0
1764,60.0,1.0,30.0,6.0,0.0
1765,76.0,30.0,30.0,5.0,0.0
1766,61.0,0.0,30.0,6.0,0.0
1767,63.0,0.0,30.0,6.0,0.0
1768,75.0,30.0,30.0,5.0,0.0
1769,64.0,30.0,60.0,6.0,0.0
1770,73.0,30.0,30.0,5.0,0.0
1771,71.0,0.0,30.0,5.0,0.0
1772,70.0,30.0,30.0,5.0,0.0
1773,61.0,0.0,120.0,6.0,0.0
1774,68.0,30.0,30.0,5.0,0.0
1775,70.0,30.0,30.0,5.0,0.0
1776,42.0,0.0,60.0,4.0,0.0
1777,54.0,29.0,60.0,3.0,0.0
1778,76.0,1.0,30.0,5.0,0.0
1779,75.0,30.0,30.0,5.0,0.0
1780,54.0,1.0,120.0,6.0,0.0
1781,73.0,30.0,30.0,5.0,0.0
1782,75.0,30.0,30.0,5.0,0.0
1783,47.0,0.0,60.0,3.0,0.0
1784,35.0,29.0,60.0,4.0,0.0
1785,70.0,0.0,30.0,5.0,0.0
1786,59.0,1.0,120.0,6.0,0.0
1787,68.0,30.0,30.0,5.0,0.0
1788,67.0,30.0,30.0,5.0,0.0
1789,52.0,0.0,60.0,3.0,0.0
1790,68.0,30.0,30.0,5.0,0.0
1791,40.0,29.0,60.0,4.0,0.0
1792,75.0,0.0,30.0,5.0,0.0
1793,52.0,0.0,120.0,6.0,0.0
1794,73.0,30.0,30.0,5.0,0.0
1795,71.0,30.0,30.0,5.0,0.0
1796,73.0,30.0,30.0,5.0,0.0
1797,46.0,29.0,60.0,3.0,0.0
1798,34.0,0.0,60.0,4.0,0.0
1799,68.0,1.0,30.0,5.0,0.0
1800,58.0,1.0,120.0,6.0,0.0
1801,67.0,30.0,30.0,5.0,0.0
1802,65.0,30.0,30.0,5.0,0.0
1803,67.0,30.0,30.0,5.0,0.0
1804,39.0,0.0,60.0,4.0,0.0
1805,51.0,29.0,60.0,3.0,0.0
1806,73.0,0.0,30.0,5.0,0.0
1807,71.0,30.0,30.0,5.0,0.0
1808,51.0,0.0,120.0,6.0,0.0
1809,70.0,30.0,30.0,5.0,0.0
1810,71.0,30.0,30.0,5.0,0.0
1811,44.0,0.0,60.0,3.0,0.0
1812,32.0,29.0,60.0,4.0,0.0
1813,70.0,1.0,30.0,5.0,0.0
1814,56.0,0.0,60.0,6.0,0.0
1815,68.0,30.0,30.0,5.0,0.0
1816,71.0,30.0,30.0,5.0,0.0
1817,55.0,0.0,60.0,6.0,0.0
1818,70.0,30.0,30.0,5.0,0.0
1819,51.0,0.0,60.0,3.0,0.0
1820,39.0,29.0,60.0,4.0,0.0
1821,68.0,1.0,30.0,5.0,0.0
1822,34.0,0.0,60.0,4.0,0.0
1823,46.0,29.0,60.0,3.0,0.0
1824,67.0,0.0,30.0,5.0,0.0
1825,51.0,30.0,30.0,6.0,0.0
1826,46.0,0.0,30.0,6.0,0.0
1827,65.0,1.0,30.0,5.0,0.0
1828,43.0,30.0,30.0,6.0,0.0
1829,31.0,29.0,60.0,4.0,0.0
1830,63.0,0.0,150.0,5.0,0.0
1831,43.0,0.0,60.0,3.0,0.0
1832,39.0,0.0,30.0,6.0,0.0
1833,61.0,1.0,30.0,7.0,0.0
1834,39.0,29.0,60.0,3.0,0.0
1835,27.0,0.0,60.0,4.0,0.0
1836,41.0,30.0,30.0,6.0,0.0
1837,59.0,0.0,30.0,7.0,0.0
1838,43.0,0.0,30.0,6.0,0.0
1839,58.0,1.0,30.0,7.0,0.0
1840,68.0,0.0,60.0,0.0,0.0
1841,44.0,0.0,60.0,6.0,0.0
1842,63.0,29.0,60.0,1.0,0.0
1843,44.0,0.0,60.0,3.0,0.0
1844,59.0,0.0,30.0,7.0,0.0
1845,32.0,0.0,60.0,4.0,0.0
1846,59.0,0.0,60.0,2.0,0.0
1847,56.0,30.0,30.0,8.0,0.0
1848,59.0,0.0,30.0,5.0,0.0
1849,51.0,1.0,30.0,8.0,0.0
1850,47.0,0.0,60.0,6.0,0.0
1851,75.0,0.0,30.0,7.0,0.0
1852,47.0,0.0,30.0,8.0,0.0
1853,56.0,30.0,30.0,5.0,0.0
1854,51.0,0.0,30.0,8.0,0.0
1855,59.0,30.0,30.0,5.0,0.0
1856,27.0,0.0,60.0,4.0,0.0
1857,67.0,0.0,60.0,1.0,0.0
1858,61.0,30.0,30.0,5.0,0.0
1859,51.0,0.0,60.0,6.0,0.0
1860,55.0,0.0,30.0,8.0,0.0
1861,70.0,0.0,60.0,0.0,0.0
1862,63.0,29.0,60.0,2.0,0.0
1863,39.0,0.0,60.0,3.0,0.0
1864,58.0,0.0,30.0,7.0,0.0
1865,51.0,0.0,30.0,8.0,0.0
1866,58.0,1.0,30.0,5.0,0.0
1867,55.0,0.0,30.0,5.0,0.0
1868,73.0,0.0,30.0,7.0,0.0
1869,46.0,30.0,30.0,8.0,0.0
1870,39.0,0.0,60.0,6.0,0.0
1871,58.0,0.0,30.0,5.0,0.0
1872,51.0,30.0,30.0,8.0,0.0
1873,59.0,0.0,30.0,5.0,0.0
1874,44.0,0.0,60.0,6.0,0.0
1875,56.0,30.0,30.0,7.0,0.0
1876,63.0,0.0,60.0,2.0,0.0
1877,20.0,0.0,60.0,4.0,0.0
1878,68.0,0.0,60.0,1.0,0.0
1879,71.0,0.0,60.0,0.0,0.0
1880,56.0,0.0,30.0,8.0,0.0
1881,32.0,29.0,60.0,3.0,0.0
1882,73.0,1.0,30.0,7.0,0.0
1883,55.0,0.0,30.0,8.0,0.0
1884,56.0,0.0,30.0,5.0,0.0
1885,32.0,30.0,60.0,6.0,0.0
1886,56.0,30.0,30.0,8.0,0.0
1887,71.0,0.0,30.0,7.0,0.0
1888,70.0,0.0,30.0,7.0,0.0
1889,58.0,0.0,30.0,8.0,0.0
1890,59.0,0.0,30.0,8.0,0.0
1891,68.0,30.0,150.0,5.0,0.0
1892,68.0,30.0,30.0,7.0,0.0
1893,60.0,0.0,30.0,8.0,0.0
1894,44.0,0.0,30.0,6.0,0.0
1895,66.0,30.0,30.0,7.0,0.0
1896,64.0,30.0,30.0,7.0,0.0
1897,46.0,0.0,30.0,6.0,0.0
1898,61.0,0.0,30.0,8.0,0.0
1899,48.0,0.0,30.0,6.0,0.0
1900,63.0,30.0,30.0,7.0,0.0
1901,63.0,0.0,30.0,8.0,0.0
1902,49.0,0.0,60.0,6.0,0.0
1903,68.0,0.0,60.0,1.0,0.0
1904,73.0,0.0,60.0,0.0,0.0
1905,64.0,29.0,60.0,2.0,0.0
1906,61.0,0.0,30.0,8.0,0.0
1907,37.0,0.0,60.0,4.0,0.0
1908,49.0,0.0,60.0,3.0,0.0
1909,64.0,0.0,30.0,7.0,0.0
1910,64.0,1.0,30.0,5.0,0.0
1911,56.0,0.0,30.0,8.0,0.0
1912,80.0,0.0,30.0,7.0,0.0
1913,52.0,30.0,60.0,6.0,0.0
1914,52.0,30.0,30.0,8.0,0.0
1915,61.0,0.0,30.0,5.0,0.0
1916,64.0,0.0,30.0,5.0,0.0
1917,56.0,0.0,30.0,8.0,0.0
1918,66.0,30.0,30.0,5.0,0.0
1919,63.0,0.0,30.0,7.0,0.0
1920,32.0,0.0,60.0,4.0,0.0
1921,60.0,0.0,60.0,2.0,0.0
1922,68.0,29.0,60.0,1.0,0.0
1923,56.0,1.0,60.0,6.0,0.0
1924,44.0,0.0,60.0,3.0,0.0
1925,75.0,0.0,60.0,0.0,0.0
1926,60.0,0.0,30.0,8.0,0.0
1927,63.0,0.0,30.0,5.0,0.0
1928,56.0,0.0,30.0,8.0,0.0
1929,78.0,0.0,30.0,7.0,0.0
1930,60.0,30.0,30.0,5.0,0.0
1931,51.0,0.0,30.0,8.0,0.0
1932,44.0,0.0,60.0,6.0,0.0
1933,63.0,30.0,30.0,5.0,0.0
1934,56.0,0.0,30.0,8.0,0.0
1935,61.0,0.0,30.0,8.0,0.0
1936,37.0,0.0,60.0,3.0,0.0
1937,64.0,0.0,30.0,5.0,0.0
1938,61.0,29.0,60.0,2.0,0.0
1939,49.0,0.0,60.0,6.0,0.0
1940,25.0,0.0,60.0,4.0,0.0
1941,76.0,0.0,60.0,0.0,0.0
1942,68.0,0.0,60.0,1.0,0.0
1943,61.0,30.0,30.0,7.0,0.0
1944,60.0,0.0,30.0,8.0,0.0
1945,78.0,1.0,30.0,7.0,0.0
1946,61.0,30.0,30.0,5.0,0.0
1947,37.0,0.0,60.0,6.0,0.0
1948,76.0,0.0,30.0,7.0,0.0
1949,61.0,0.0,30.0,8.0,0.0
1950,75.0,0.0,30.0,7.0,0.0
1951,63.0,30.0,30.0,8.0,0.0
1952,76.0,30.0,150.0,5.0,0.0
1953,73.0,30.0,30.0,7.0,0.0
1954,64.0,0.0,60.0,8.0,0.0
1955,71.0,0.0,30.0,7.0,0.0
1956,49.0,30.0,30.0,6.0,0.0
1957,61.0,0.0,120.0,8.0,0.0
1958,70.0,30.0,30.0,7.0,0.0
1959,51.0,0.0,30.0,6.0,0.0
1960,68.0,0.0,30.0,7.0,0.0
1961,52.0,30.0,30.0,6.0,0.0
1962,42.0,29.0,60.0,4.0,0.0
1963,54.0,1.0,60.0,6.0,0.0
1964,54.0,0.0,60.0,3.0,0.0
1965,70.0,0.0,30.0,7.0,0.0
1966,76.0,0.0,30.0,7.0,0.0
1967,61.0,0.0,30.0,5.0,0.0
1968,75.0,0.0,30.0,7.0,0.0
1969,59.0,30.0,30.0,5.0,0.0
1970,54.0,0.0,120.0,8.0,0.0
1971,58.0,0.0,30.0,5.0,0.0
1972,73.0,30.0,30.0,7.0,0.0
1973,75.0,30.0,30.0,7.0,0.0
1974,47.0,0.0,60.0,3.0,0.0
1975,35.0,29.0,60.0,4.0,0.0
1976,59.0,0.0,60.0,5.0,0.0
1977,70.0,0.0,30.0,7.0,0.0
1978,54.0,1.0,30.0,6.0,0.0
1979,59.0,0.0,120.0,8.0,0.0
1980,75.0,0.0,90.0,5.0,0.0
1981,68.0,0.0,30.0,7.0,0.0
1982,52.0,30.0,30.0,6.0,0.0
1983,67.0,0.0,30.0,7.0,0.0
1984,51.0,30.0,30.0,6.0,0.0
1985,40.0,29.0,60.0,4.0,0.0
1986,52.0,0.0,60.0,3.0,0.0
1987,68.0,30.0,30.0,7.0,0.0
1988,52.0,1.0,60.0,6.0,0.0
1989,75.0,0.0,30.0,7.0,0.0
1990,59.0,0.0,30.0,5.0,0.0
1991,52.0,0.0,120.0,8.0,0.0
1992,73.0,0.0,30.0,7.0,0.0
1993,58.0,30.0,30.0,5.0,0.0
1994,71.0,30.0,30.0,7.0,0.0
1995,56.0,0.0,30.0,5.0,0.0
1996,73.0,30.0,30.0,7.0,0.0
1997,34.0,29.0,60.0,4.0,0.0
1998,58.0,0.0,60.0,5.0,0.0
1999,46.0,0.0,60.0,3.0,0.0
2000,52.0,1.0,30.0,6.0,0.0
2001,68.0,0.0,30.0,7.0,0.0
2002,51.0,30.0,30.0,6.0,0.0
2003,58.0,1.0,120.0,8.0,0.0
2004,73.0,30.0,90.0,5.0,0.0
2005,67.0,0.0,30.0,7.0,0.0
2006,65.0,0.0,30.0,7.0,0.0
2007,49.0,30.0,30.0,6.0,0.0
2008,67.0,0.0,30.0,7.0,0.0
2009,51.0,0.0,60.0,6.0,0.0
2010,51.0,0.0,60.0,3.0,0.0
2011,39.0,29.0,60.0,4.0,0.0
2012,73.0,0.0,30.0,7.0,0.0
2013,58.0,0.0,30.0,5.0,0.0
2014,51.0,0.0,120.0,8.0,0.0
2015,71.0,30.0,30.0,7.0,0.0
2016,56.0,0.0,30.0,5.0,0.0
2017,70.0,30.0,30.0,7.0,0.0
2018,55.0,0.0,30.0,5.0,0.0
2019,71.0,30.0,30.0,7.0,0.0
2020,56.0,0.0,60.0,5.0,0.0
2021,44.0,0.0,60.0,3.0,0.0
2022,32.0,29.0,60.0,4.0,0.0
2023,70.0,1.0,30.0,7.0,0.0
2024,51.0,0.0,30.0,6.0,0.0
2025,47.0,0.0,30.0,6.0,0.0
2026,56.0,30.0,60.0,8.0,0.0
2027,68.0,30.0,30.0,7.0,0.0
2028,68.0,30.0,90.0,5.0,0.0
2029,44.0,0.0,30.0,6.0,0.0
2030,71.0,0.0,30.0,7.0,0.0
2031,70.0,0.0,30.0,7.0,0.0
2032,39.0,29.0,60.0,4.0,0.0
2033,51.0,0.0,60.0,3.0,0.0
2034,51.0,1.0,60.0,8.0,0.0
2035,51.0,0.0,60.0,6.0,0.0
2036,68.0,0.0,30.0,7.0,0.0
2037,71.0,0.0,30.0,5.0,0.0
2038,67.0,30.0,30.0,7.0,0.0
2039,70.0,0.0,30.0,5.0,0.0
2040,46.0,29.0,60.0,3.0,0.0
2041,46.0,0.0,60.0,8.0,0.0
2042,34.0,0.0,60.0,4.0,0.0
2043,39.0,1.0,60.0,6.0,0.0
2044,65.0,0.0,30.0,7.0,0.0
2045,68.0,0.0,30.0,5.0,0.0
2046,63.0,1.0,180.0,7.0,0.0
2047,31.0,29.0,60.0,4.0,0.0
2048,43.0,0.0,60.0,3.0,0.0
2049,70.0,30.0,30.0,5.0,0.0
2050,43.0,1.0,60.0,8.0,0.0
2051,51.0,0.0,30.0,6.0,0.0
2052,73.0,0.0,30.0,5.0,0.0
2053,53.0,30.0,30.0,6.0,0.0
2054,39.0,29.0,60.0,3.0,0.0
2055,27.0,0.0,60.0,4.0,0.0
2056,39.0,0.0,60.0,8.0,0.0
2057,71.0,0.0,30.0,5.0,0.0
2058,70.0,0.0,30.0,5.0,0.0
2059,55.0,1.0,30.0,6.0,0.0
2060,56.0,1.0,30.0,6.0,0.0
2061,56.0,29.0,30.0,2.0,0.0
2062,44.0,0.0,60.0,3.0,0.0
2063,32.0,29.0,60.0,4.0,0.0
2064,44.0,0.0,60.0,8.0,0.0
2065,56.0,0.0,30.0,0.0,0.0
2066,56.0,0.0,30.0,1.0,0.0
2067,71.0,0.0,30.0,5.0,0.0
2068,58.0,0.0,30.0,0.0,0.0
2069,55.0,0.0,30.0,6.0,0.0
2070,58.0,0.0,30.0,1.0,0.0
2071,63.0,0.0,30.0,5.0,0.0
2072,58.0,0.0,30.0,2.0,0.0
2073,68.0,0.0,30.0,7.0,0.0
2074,56.0,1.0,60.0,6.0,0.0
2075,59.0,0.0,30.0,1.0,0.0
2076,59.0,29.0,30.0,0.0,0.0
2077,65.0,1.0,30.0,5.0,0.0
2078,59.0,0.0,30.0,2.0,0.0
2079,61.0,0.0,30.0,1.0,0.0
2080,61.0,29.0,30.0,0.0,0.0
2081,67.0,0.0,30.0,5.0,0.0
2082,70.0,0.0,30.0,7.0,0.0
2083,61.0,0.0,30.0,2.0,0.0
2084,63.0,0.0,60.0,2.0,0.0
2085,44.0,30.0,30.0,8.0,0.0
2086,68.0,0.0,30.0,5.0,0.0
2087,71.0,29.0,60.0,7.0,0.0
2088,63.0,0.0,60.0,0.0,0.0
2089,63.0,0.0,60.0,1.0,0.0
2090,43.0,0.0,30.0,8.0,0.0
2091,70.0,1.0,30.0,5.0,0.0
2092,68.0,29.0,60.0,2.0,0.0
2093,68.0,0.0,60.0,0.0,0.0
2094,44.0,1.0,60.0,8.0,0.0
2095,71.0,30.0,30.0,5.0,0.0
2096,68.0,0.0,60.0,1.0,0.0
2097,56.0,29.0,90.0,7.0,0.0
2098,68.0,0.0,30.0,5.0,0.0
2099,49.0,0.0,60.0,8.0,0.0
2100,65.0,0.0,60.0,0.0,0.0
2101,65.0,0.0,60.0,2.0,0.0
2102,37.0,0.0,60.0,4.0,0.0
2103,65.0,29.0,60.0,1.0,0.0
2104,61.0,1.0,30.0,5.0,0.0
2105,49.0,0.0,60.0,3.0,0.0
2106,54.0,1.0,30.0,7.0,0.0
2107,68.0,0.0,30.0,5.0,0.0
2108,71.0,29.0,90.0,5.0,0.0
2109,61.0,0.0,60.0,0.0,0.0
2110,44.0,0.0,60.0,3.0,0.0
2111,61.0,0.0,60.0,2.0,0.0
2112,32.0,0.0,60.0,4.0,0.0
2113,61.0,30.0,60.0,1.0,0.0
2114,49.0,1.0,60.0,6.0,0.0
2115,53.0,30.0,30.0,7.0,0.0
2116,44.0,0.0,60.0,8.0,0.0
2117,51.0,0.0,30.0,7.0,0.0
2118,29.0,29.0,60.0,4.0,0.0
2119,41.0,0.0,60.0,3.0,0.0
2120,41.0,0.0,60.0,8.0,0.0
2121,53.0,0.0,60.0,7.0,0.0
2122,53.0,1.0,60.0,6.0,0.0
2123,68.0,0.0,30.0,5.0,0.0
2124,25.0,0.0,60.0,4.0,0.0
2125,61.0,0.0,120.0,7.0,0.0
2126,37.0,29.0,60.0,3.0,0.0
2127,56.0,0.0,60.0,6.0,0.0
2128,37.0,0.0,60.0,8.0,0.0
2129,65.0,30.0,30.0,5.0,0.0
2130,61.0,1.0,30.0,5.0,0.0
2131,54.0,0.0,30.0,6.0,0.0
2132,54.0,0.0,30.0,0.0,0.0
2133,54.0,0.0,30.0,2.0,0.0
2134,70.0,1.0,30.0,5.0,0.0
2135,42.0,0.0,60.0,8.0,0.0
2136,54.0,29.0,30.0,1.0,0.0
2137,30.0,0.0,60.0,4.0,0.0
2138,42.0,29.0,60.0,3.0,0.0
2139,56.0,0.0,30.0,0.0,0.0
2140,53.0,1.0,30.0,6.0,0.0
2141,56.0,0.0,30.0,1.0,0.0
2142,56.0,0.0,30.0,2.0,0.0
2143,61.0,0.0,30.0,5.0,0.0
2144,58.0,0.0,30.0,0.0,0.0
2145,54.0,1.0,60.0,6.0,0.0
2146,58.0,0.0,30.0,1.0,0.0
2147,66.0,1.0,30.0,7.0,0.0
2148,58.0,29.0,30.0,2.0,0.0
2149,63.0,0.0,30.0,5.0,0.0
2150,59.0,29.0,30.0,0.0,0.0
2151,68.0,0.0,30.0,7.0,0.0
2152,59.0,0.0,30.0,1.0,0.0
2153,59.0,0.0,30.0,2.0,0.0
2154,65.0,0.0,30.0,5.0,0.0
2155,42.0,0.0,30.0,8.0,0.0
2156,61.0,0.0,60.0,2.0,0.0
2157,70.0,29.0,60.0,7.0,0.0
2158,66.0,30.0,30.0,5.0,0.0
2159,61.0,0.0,60.0,1.0,0.0
2160,61.0,0.0,60.0,0.0,0.0
2161,41.0,0.0,30.0,8.0,0.0
2162,68.0,1.0,30.0,5.0,0.0
2163,42.0,0.0,60.0,8.0,0.0
2164,66.0,0.0,60.0,2.0,0.0
2165,70.0,30.0,30.0,5.0,0.0
2166,66.0,0.0,60.0,1.0,0.0
2167,54.0,29.0,90.0,7.0,0.0
2168,66.0,29.0,60.0,0.0,0.0
2169,66.0,1.0,30.0,5.0,0.0
2170,47.0,1.0,60.0,8.0,0.0
2171,63.0,0.0,60.0,1.0,0.0
2172,63.0,0.0,60.0,2.0,0.0
2173,63.0,0.0,60.0,0.0,0.0
2174,59.0,1.0,30.0,5.0,0.0
2175,35.0,0.0,60.0,4.0,0.0
2176,47.0,29.0,60.0,3.0,0.0
2177,66.0,0.0,30.0,5.0,0.0
2178,52.0,0.0,30.0,7.0,0.0
2179,69.0,29.0,90.0,5.0,0.0
2180,51.0,30.0,30.0,7.0,0.0
2181,59.0,30.0,60.0,2.0,0.0
2182,30.0,0.0,60.0,4.0,0.0
2183,44.0,0.0,60.0,8.0,0.0
2184,47.0,1.0,60.0,6.0,0.0
2185,59.0,0.0,60.0,1.0,0.0
2186,42.0,0.0,60.0,3.0,0.0
2187,59.0,0.0,60.0,0.0,0.0
2188,49.0,0.0,30.0,7.0,0.0
2189,27.0,29.0,60.0,4.0,0.0
2190,39.0,1.0,60.0,8.0,0.0
2191,51.0,0.0,60.0,6.0,0.0
2192,39.0,0.0,60.0,3.0,0.0
2193,51.0,0.0,60.0,7.0,0.0
2194,66.0,0.0,30.0,5.0,0.0
2195,59.0,29.0,90.0,7.0,0.0
2196,23.0,29.0,60.0,4.0,0.0
2197,35.0,1.0,60.0,8.0,0.0
2198,54.0,0.0,60.0,6.0,0.0
2199,63.0,30.0,30.0,5.0,0.0
2200,35.0,0.0,60.0,3.0,0.0
2201,59.0,0.0,30.0,5.0,0.0
2202,28.0,0.0,60.0,4.0,0.0
2203,52.0,1.0,30.0,6.0,0.0
2204,40.0,15.0,60.0,3.0,0.0
2205,40.0,0.0,60.0,8.0,0.0
2206,68.0,0.0,60.0,5.0,0.0
2207,61.0,1.0,30.0,7.0,0.0
2208,51.0,0.0,30.0,6.0,0.0
2209,44.0,0.0,60.0,8.0,0.0
2210,59.0,1.0,30.0,7.0,0.0
2211,52.0,0.0,60.0,6.0,0.0
2212,71.0,0.0,60.0,0.0,0.0
2213,73.0,14.0,15.0,5.0,0.0
2214,71.0,15.0,15.0,5.0,0.0
2215,70.0,14.0,15.0,5.0,0.0
2216,58.0,1.0,30.0,7.0,0.0
2217,71.0,29.0,15.0,5.0,0.0
2218,41.0,0.0,60.0,8.0,0.0
2219,73.0,29.0,60.0,0.0,0.0
2220,41.0,0.0,60.0,3.0,0.0
2221,29.0,0.0,60.0,4.0,0.0
2222,73.0,0.0,30.0,5.0,0.0
2223,56.0,30.0,30.0,7.0,0.0
2224,54.0,1.0,30.0,7.0,0.0
2225,53.0,30.0,30.0,7.0,0.0
2226,37.0,0.0,60.0,8.0,0.0
2227,68.0,0.0,30.0,5.0,0.0
2228,68.0,29.0,60.0,1.0,0.0
2229,53.0,1.0,60.0,6.0,0.0
2230,51.0,0.0,30.0,7.0,0.0
2231,70.0,0.0,60.0,1.0,0.0
2232,70.0,0.0,30.0,5.0,0.0
2233,42.0,1.0,60.0,8.0,0.0
2234,54.0,0.0,30.0,6.0,0.0
2235,42.0,0.0,60.0,3.0,0.0
2236,49.0,30.0,30.0,7.0,0.0
2237,30.0,15.0,60.0,4.0,0.0
2238,53.0,0.0,30.0,6.0,0.0
2239,63.0,0.0,30.0,7.0,0.0
2240,61.0,1.0,30.0,7.0,0.0
2241,75.0,14.0,15.0,5.0,0.0
2242,46.0,1.0,60.0,8.0,0.0
2243,73.0,29.0,60.0,0.0,0.0
2244,54.0,0.0,60.0,6.0,0.0
2245,73.0,15.0,15.0,5.0,0.0
2246,59.0,0.0,30.0,7.0,0.0
2247,71.0,14.0,15.0,5.0,0.0
2248,73.0,0.0,15.0,5.0,0.0
2249,75.0,30.0,30.0,5.0,0.0
2250,75.0,0.0,60.0,0.0,0.0
2251,43.0,0.0,60.0,3.0,0.0
2252,43.0,0.0,60.0,8.0,0.0
2253,58.0,0.0,30.0,7.0,0.0
2254,31.0,29.0,60.0,4.0,0.0
2255,56.0,1.0,30.0,7.0,0.0
2256,70.0,29.0,60.0,1.0,0.0
2257,55.0,0.0,60.0,6.0,0.0
2258,39.0,0.0,60.0,8.0,0.0
2259,70.0,30.0,30.0,5.0,0.0
2260,55.0,0.0,30.0,7.0,0.0
2261,53.0,1.0,30.0,7.0,0.0
2262,71.0,0.0,30.0,5.0,0.0
2263,71.0,0.0,60.0,1.0,0.0
2264,51.0,0.0,60.0,7.0,0.0
2265,44.0,15.0,60.0,3.0,0.0
2266,56.0,0.0,60.0,6.0,0.0
2267,44.0,30.0,30.0,8.0,0.0
2268,32.0,0.0,60.0,4.0,0.0
2269,43.0,0.0,30.0,8.0,0.0
2270,73.0,1.0,30.0,5.0,0.0
2271,71.0,1.0,30.0,5.0,0.0
2272,44.0,0.0,60.0,6.0,0.0
2273,44.0,1.0,60.0,8.0,0.0
2274,63.0,0.0,60.0,0.0,0.0
2275,64.0,14.0,15.0,7.0,0.0
2276,63.0,15.0,15.0,7.0,0.0
2277,61.0,14.0,15.0,7.0,0.0
2278,70.0,0.0,30.0,5.0,0.0
2279,63.0,29.0,15.0,7.0,0.0
2280,40.0,1.0,60.0,6.0,0.0
2281,64.0,30.0,30.0,7.0,0.0
2282,28.0,0.0,60.0,4.0,0.0
2283,68.0,0.0,30.0,5.0,0.0
2284,64.0,0.0,60.0,0.0,0.0
2285,40.0,29.0,60.0,3.0,0.0
2286,66.0,0.0,30.0,5.0,0.0
2287,44.0,0.0,60.0,6.0,0.0
2288,59.0,0.0,30.0,7.0,0.0
2289,64.0,30.0,30.0,5.0,0.0
2290,59.0,29.0,60.0,1.0,0.0
2291,44.0,0.0,60.0,8.0,0.0
2292,63.0,1.0,30.0,5.0,0.0
2293,34.0,0.0,60.0,6.0,0.0
2294,61.0,29.0,60.0,1.0,0.0
2295,46.0,30.0,30.0,8.0,0.0
2296,46.0,0.0,60.0,3.0,0.0
2297,34.0,0.0,60.0,4.0,0.0
2298,61.0,0.0,30.0,7.0,0.0
2299,61.0,0.0,30.0,5.0,0.0
2300,75.0,0.0,30.0,5.0,0.0
2301,44.0,1.0,30.0,8.0,0.0
2302,64.0,30.0,30.0,7.0,0.0
2303,46.0,0.0,60.0,8.0,0.0
2304,46.0,0.0,60.0,6.0,0.0
2305,64.0,29.0,60.0,0.0,0.0
2306,73.0,0.0,30.0,5.0,0.0
2307,71.0,1.0,30.0,5.0,0.0
2308,42.0,29.0,60.0,3.0,0.0
2309,30.0,0.0,60.0,4.0,0.0
2310,70.0,0.0,30.0,5.0,0.0
2311,66.0,30.0,30.0,7.0,0.0
2312,42.0,0.0,60.0,6.0,0.0
2313,66.0,0.0,60.0,0.0,0.0
2314,68.0,1.0,30.0,5.0,0.0
2315,66.0,30.0,30.0,5.0,0.0
2316,61.0,29.0,60.0,1.0,0.0
2317,46.0,0.0,60.0,8.0,0.0
2318,61.0,0.0,30.0,7.0,0.0
2319,46.0,1.0,60.0,6.0,0.0
2320,64.0,0.0,30.0,5.0,0.0
2321,63.0,1.0,30.0,7.0,0.0
2322,59.0,0.0,30.0,2.0,0.0
2323,59.0,0.0,30.0,0.0,0.0
2324,63.0,29.0,30.0,1.0,0.0
2325,35.0,0.0,60.0,4.0,0.0
2326,35.0,0.0,60.0,6.0,0.0
2327,47.0,0.0,30.0,8.0,0.0
2328,47.0,0.0,60.0,3.0,0.0
2329,63.0,29.0,60.0,5.0,0.0
2330,61.0,0.0,30.0,2.0,0.0
2331,61.0,0.0,30.0,0.0,0.0
2332,46.0,0.0,30.0,8.0,0.0
2333,61.0,0.0,30.0,1.0,0.0
2334,66.0,1.0,30.0,7.0,0.0
2335,63.0,0.0,30.0,2.0,0.0
2336,47.0,0.0,60.0,8.0,0.0
2337,63.0,29.0,30.0,1.0,0.0
2338,47.0,0.0,60.0,6.0,0.0
2339,63.0,0.0,30.0,0.0,0.0
2340,68.0,0.0,30.0,7.0,0.0
2341,71.0,1.0,30.0,5.0,0.0
2342,64.0,29.0,30.0,0.0,0.0
2343,70.0,1.0,30.0,7.0,0.0
2344,64.0,0.0,30.0,1.0,0.0
2345,73.0,0.0,30.0,5.0,0.0
2346,64.0,0.0,30.0,2.0,0.0
2347,66.0,0.0,60.0,1.0,0.0
2348,66.0,29.0,60.0,0.0,0.0
2349,71.0,30.0,30.0,7.0,0.0
2350,47.0,1.0,60.0,6.0,0.0
2351,75.0,0.0,60.0,5.0,0.0
2352,66.0,0.0,60.0,2.0,0.0
2353,73.0,0.0,30.0,7.0,0.0
2354,71.0,29.0,60.0,1.0,0.0
2355,32.0,0.0,60.0,4.0,0.0
2356,44.0,0.0,60.0,3.0,0.0
2357,71.0,0.0,60.0,2.0,0.0
2358,75.0,30.0,30.0,7.0,0.0
2359,71.0,0.0,60.0,0.0,0.0
2360,59.0,29.0,90.0,5.0,0.0
2361,44.0,1.0,60.0,6.0,0.0
2362,71.0,0.0,30.0,7.0,0.0
2363,68.0,0.0,60.0,0.0,0.0
2364,29.0,29.0,60.0,4.0,0.0
2365,65.0,1.0,30.0,7.0,0.0
2366,68.0,0.0,60.0,1.0,0.0
2367,41.0,0.0,60.0,6.0,0.0
2368,68.0,0.0,60.0,2.0,0.0
2369,41.0,0.0,60.0,3.0,0.0
2370,71.0,1.0,30.0,7.0,0.0
2371,58.0,0.0,30.0,5.0,0.0
2372,53.0,29.0,30.0,3.0,0.0
2373,41.0,0.0,30.0,8.0,0.0
2374,65.0,0.0,60.0,2.0,0.0
2375,65.0,30.0,60.0,1.0,0.0
2376,53.0,1.0,60.0,6.0,0.0
2377,56.0,1.0,30.0,5.0,0.0
2378,65.0,0.0,60.0,0.0,0.0
2379,75.0,29.0,90.0,7.0,0.0
2380,41.0,0.0,30.0,4.0,0.0
2381,54.0,0.0,30.0,5.0,0.0
2382,42.0,0.0,30.0,4.0,0.0
2383,42.0,0.0,30.0,8.0,0.0
2384,54.0,0.0,30.0,3.0,0.0
2385,56.0,29.0,60.0,3.0,0.0
2386,53.0,0.0,60.0,5.0,0.0
2387,44.0,0.0,60.0,8.0,0.0
2388,44.0,0.0,60.0,4.0,0.0
2389,51.0,0.0,30.0,6.0,0.0
2390,71.0,1.0,30.0,7.0,0.0
2391,53.0,29.0,60.0,3.0,0.0
2392,50.0,0.0,30.0,6.0,0.0
2393,65.0,0.0,120.0,5.0,0.0
2394,41.0,1.0,60.0,8.0,0.0
2395,41.0,0.0,60.0,4.0,0.0
2396,68.0,30.0,30.0,7.0,0.0
2397,48.0,0.0,30.0,6.0,0.0
2398,65.0,0.0,30.0,7.0,0.0
2399,58.0,29.0,30.0,2.0,0.0
2400,34.0,0.0,60.0,4.0,0.0
2401,46.0,29.0,60.0,3.0,0.0
2402,74.0,1.0,30.0,7.0,0.0
2403,58.0,0.0,30.0,0.0,0.0
2404,58.0,0.0,30.0,1.0,0.0
2405,46.0,0.0,30.0,8.0,0.0
2406,46.0,0.0,60.0,6.0,0.0
2407,60.0,0.0,30.0,1.0,0.0
2408,65.0,0.0,30.0,7.0,0.0
2409,44.0,1.0,30.0,8.0,0.0
2410,60.0,0.0,30.0,0.0,0.0
2411,60.0,0.0,30.0,2.0,0.0
2412,62.0,0.0,30.0,1.0,0.0
2413,46.0,0.0,60.0,8.0,0.0
2414,62.0,0.0,30.0,2.0,0.0
2415,70.0,0.0,30.0,5.0,0.0
2416,62.0,29.0,30.0,0.0,0.0
2417,34.0,0.0,60.0,6.0,0.0
2418,66.0,1.0,30.0,7.0,0.0
2419,63.0,29.0,30.0,1.0,0.0
2420,63.0,0.0,30.0,2.0,0.0
2421,63.0,0.0,30.0,0.0,0.0
2422,71.0,0.0,30.0,5.0,0.0
2423,68.0,1.0,30.0,7.0,0.0
2424,70.0,30.0,30.0,7.0,0.0
2425,65.0,0.0,60.0,1.0,0.0
2426,65.0,29.0,60.0,0.0,0.0
2427,65.0,0.0,60.0,2.0,0.0
2428,46.0,0.0,60.0,6.0,0.0
2429,73.0,0.0,60.0,5.0,0.0
2430,71.0,1.0,30.0,7.0,0.0
2431,70.0,0.0,60.0,1.0,0.0
2432,58.0,29.0,90.0,5.0,0.0
2433,31.0,0.0,60.0,4.0,0.0
2434,70.0,0.0,60.0,2.0,0.0
2435,43.0,0.0,60.0,6.0,0.0
2436,43.0,29.0,60.0,3.0,0.0
2437,73.0,30.0,30.0,7.0,0.0
2438,70.0,0.0,60.0,0.0,0.0
2439,70.0,1.0,30.0,7.0,0.0
2440,39.0,0.0,60.0,6.0,0.0
2441,63.0,1.0,30.0,7.0,0.0
2442,67.0,0.0,60.0,2.0,0.0
2443,67.0,0.0,60.0,0.0,0.0
2444,67.0,29.0,60.0,1.0,0.0
2445,27.0,0.0,60.0,4.0,0.0
2446,39.0,0.0,60.0,3.0,0.0
2447,56.0,0.0,30.0,5.0,0.0
2448,70.0,1.0,30.0,7.0,0.0
2449,55.0,1.0,30.0,5.0,0.0
2450,51.0,0.0,60.0,6.0,0.0
2451,63.0,0.0,60.0,2.0,0.0
2452,39.0,29.0,30.0,4.0,0.0
2453,39.0,0.0,30.0,8.0,0.0
2454,73.0,29.0,90.0,7.0,0.0
2455,63.0,0.0,60.0,0.0,0.0
2456,51.0,0.0,30.0,3.0,0.0
2457,63.0,0.0,60.0,1.0,0.0
2458,53.0,0.0,30.0,3.0,0.0
2459,41.0,30.0,30.0,4.0,0.0
2460,53.0,1.0,30.0,5.0,0.0
2461,41.0,0.0,30.0,8.0,0.0
2462,43.0,0.0,60.0,8.0,0.0
2463,51.0,29.0,60.0,5.0,0.0
2464,43.0,0.0,60.0,4.0,0.0
2465,55.0,0.0,60.0,3.0,0.0
2466,70.0,1.0,30.0,7.0,0.0
2467,49.0,0.0,30.0,6.0,0.0
2468,67.0,30.0,30.0,7.0,0.0
2469,51.0,0.0,60.0,3.0,0.0
2470,47.0,0.0,30.0,6.0,0.0
2471,63.0,29.0,90.0,5.0,0.0
2472,39.0,0.0,60.0,8.0,0.0
2473,39.0,29.0,60.0,4.0,0.0
2474,63.0,0.0,30.0,7.0,0.0
2475,46.0,1.0,30.0,6.0,0.0
2476,44.0,0.0,60.0,8.0,0.0
2477,32.0,29.0,60.0,4.0,0.0
2478,44.0,0.0,60.0,3.0,0.0
2479,44.0,1.0,30.0,6.0,0.0
2480,71.0,0.0,60.0,7.0,0.0
2481,47.0,0.0,30.0,6.0,0.0
2482,68.0,1.0,30.0,5.0,0.0
2483,71.0,0.0,30.0,5.0,0.0
2484,63.0,0.0,60.0,2.0,0.0
2485,68.0,29.0,60.0,7.0,0.0
2486,51.0,30.0,30.0,6.0,0.0
2487,68.0,0.0,60.0,1.0,0.0
2488,75.0,0.0,30.0,5.0,0.0
2489,56.0,1.0,30.0,6.0,0.0
2490,68.0,0.0,60.0,1.0,0.0
2491,63.0,0.0,60.0,7.0,0.0
2492,71.0,0.0,15.0,0.0,0.0
2493,80.0,30.0,30.0,5.0,0.0
2494,59.0,1.0,60.0,6.0,0.0
2495,63.0,0.0,60.0,2.0,0.0
2496,44.0,0.0,30.0,8.0,0.0
2497,75.0,0.0,30.0,5.0,0.0
2498,44.0,0.0,60.0,4.0,0.0
2499,44.0,0.0,60.0,6.0,0.0
2500,47.0,0.0,30.0,8.0,0.0
2501,71.0,30.0,30.0,5.0,0.0
2502,75.0,29.0,120.0,7.0,0.0
2503,56.0,29.0,60.0,3.0,0.0
2504,68.0,1.0,30.0,5.0,0.0
2505,51.0,0.0,30.0,8.0,0.0
2506,54.0,1.0,60.0,8.0,0.0
2507,63.0,0.0,30.0,5.0,0.0
2508,54.0,0.0,60.0,3.0,0.0
2509,42.0,30.0,30.0,6.0,0.0
2510,42.0,0.0,60.0,4.0,0.0
2511,66.0,0.0,30.0,5.0,0.0
2512,46.0,0.0,30.0,6.0,0.0
2513,51.0,30.0,30.0,6.0,0.0
2514,63.0,29.0,60.0,2.0,0.0
2515,70.0,0.0,60.0,0.0,0.0
2516,70.0,0.0,30.0,5.0,0.0
2517,70.0,0.0,30.0,7.0,0.0
2518,75.0,1.0,30.0,5.0,0.0
2519,54.0,0.0,30.0,6.0,0.0
2520,66.0,0.0,30.0,7.0,0.0
2521,58.0,0.0,60.0,6.0,0.0
2522,78.0,30.0,30.0,5.0,0.0
2523,63.0,0.0,15.0,1.0,0.0
2524,63.0,0.0,180.0,7.0,0.0
2525,70.0,0.0,60.0,0.0,0.0
2526,63.0,29.0,60.0,2.0,0.0
2527,58.0,1.0,30.0,8.0,0.0
2528,75.0,0.0,30.0,5.0,0.0
2529,54.0,0.0,30.0,8.0,0.0
2530,42.0,0.0,60.0,6.0,0.0
2531,42.0,29.0,60.0,3.0,0.0
2532,30.0,0.0,60.0,4.0,0.0
2533,70.0,30.0,30.0,5.0,0.0
2534,66.0,1.0,30.0,5.0,0.0
2535,51.0,0.0,30.0,8.0,0.0
2536,47.0,0.0,60.0,3.0,0.0
2537,47.0,30.0,30.0,6.0,0.0
2538,63.0,0.0,30.0,5.0,0.0
2539,35.0,29.0,60.0,4.0,0.0
2540,47.0,0.0,60.0,8.0,0.0
2541,65.0,0.0,30.0,5.0,0.0
2542,44.0,1.0,30.0,6.0,0.0
2543,47.0,30.0,30.0,6.0,0.0
2544,68.0,0.0,30.0,5.0,0.0
2545,51.0,0.0,60.0,2.0,0.0
2546,59.0,0.0,60.0,7.0,0.0
2547,68.0,0.0,60.0,0.0,0.0
2548,53.0,1.0,30.0,6.0,0.0
2549,71.0,0.0,30.0,5.0,0.0
2550,63.0,29.0,15.0,1.0,0.0
2551,68.0,0.0,60.0,0.0,0.0
2552,51.0,0.0,60.0,2.0,0.0
2553,77.0,30.0,30.0,5.0,0.0
2554,56.0,0.0,60.0,7.0,0.0
2555,56.0,1.0,60.0,6.0,0.0
2556,47.0,0.0,30.0,8.0,0.0
2557,71.0,0.0,30.0,5.0,0.0
2558,68.0,0.0,120.0,7.0,0.0
2559,35.0,29.0,60.0,3.0,0.0
2560,53.0,0.0,30.0,8.0,0.0
2561,23.0,0.0,60.0,4.0,0.0
2562,68.0,30.0,30.0,5.0,0.0
2563,35.0,1.0,60.0,6.0,0.0
2564,63.0,0.0,30.0,5.0,0.0
2565,56.0,0.0,30.0,8.0,0.0
2566,46.0,0.0,60.0,8.0,0.0
2567,34.0,0.0,60.0,3.0,0.0
2568,22.0,29.0,60.0,4.0,0.0
2569,34.0,30.0,30.0,6.0,0.0
2570,62.0,0.0,30.0,5.0,0.0
2571,65.0,1.0,30.0,5.0,0.0
2572,38.0,0.0,30.0,6.0,0.0
2573,68.0,30.0,30.0,5.0,0.0
2574,41.0,0.0,30.0,6.0,0.0
2575,62.0,0.0,60.0,1.0,0.0
2576,53.0,0.0,60.0,2.0,0.0
2577,68.0,29.0,60.0,0.0,0.0
2578,65.0,0.0,30.0,7.0,0.0
2579,70.0,0.0,30.0,5.0,0.0
2580,62.0,0.0,30.0,7.0,0.0
2581,44.0,1.0,30.0,6.0,0.0
2582,62.0,0.0,60.0,1.0,0.0
2583,77.0,29.0,60.0,5.0,0.0
2584,53.0,0.0,60.0,2.0,0.0
2585,58.0,30.0,30.0,7.0,0.0
2586,50.0,1.0,60.0,6.0,0.0
2587,68.0,0.0,60.0,0.0,0.0
2588,56.0,0.0,30.0,7.0,0.0
2589,46.0,0.0,30.0,8.0,0.0
2590,48.0,30.0,30.0,8.0,0.0
2591,54.0,0.0,30.0,7.0,0.0
2592,53.0,0.0,30.0,7.0,0.0
2593,50.0,30.0,30.0,8.0,0.0
2594,66.0,0.0,60.0,0.0,0.0
2595,63.0,0.0,60.0,1.0,0.0
2596,39.0,0.0,60.0,3.0,0.0
2597,51.0,1.0,30.0,8.0,0.0
2598,27.0,0.0,60.0,4.0,0.0
2599,58.0,29.0,60.0,2.0,0.0
2600,54.0,29.0,30.0,7.0,0.0
2601,46.0,1.0,30.0,8.0,0.0
2602,42.0,1.0,30.0,8.0,0.0
2603,70.0,29.0,30.0,7.0,0.0
2604,46.0,30.0,30.0,8.0,0.0
2605,50.0,1.0,30.0,8.0,0.0
2606,34.0,0.0,60.0,4.0,0.0
2607,53.0,29.0,30.0,7.0,0.0
2608,58.0,29.0,60.0,2.0,0.0
2609,62.0,0.0,60.0,0.0,0.0
2610,65.0,0.0,60.0,1.0,0.0
2611,46.0,0.0,60.0,3.0,0.0
2612,46.0,1.0,30.0,8.0,0.0
2613,41.0,1.0,30.0,8.0,0.0
2614,68.0,29.0,30.0,7.0,0.0
2615,46.0,30.0,30.0,8.0,0.0
2616,51.0,0.0,60.0,3.0,0.0
2617,51.0,29.0,30.0,7.0,0.0
2618,66.0,29.0,60.0,1.0,0.0
2619,58.0,0.0,60.0,2.0,0.0
2620,39.0,0.0,60.0,4.0,0.0
2621,63.0,0.0,60.0,0.0,0.0
2622,51.0,1.0,30.0,8.0,0.0
2623,50.0,1.0,30.0,8.0,0.0
2624,68.0,0.0,30.0,7.0,0.0
2625,51.0,1.0,30.0,8.0,0.0
2626,66.0,29.0,30.0,7.0,0.0
2627,65.0,29.0,30.0,7.0,0.0
2628,53.0,1.0,30.0,8.0,0.0
2629,54.0,1.0,30.0,8.0,0.0
2630,63.0,29.0,30.0,7.0,0.0
2631,55.0,1.0,30.0,8.0,0.0
2632,61.0,29.0,30.0,7.0,0.0
2633,56.0,1.0,30.0,8.0,0.0
2634,59.0,29.0,30.0,7.0,0.0
2635,58.0,29.0,30.0,7.0,0.0
2636,58.0,1.0,30.0,8.0,0.0
2637,32.0,29.0,60.0,4.0,0.0
2638,71.0,0.0,60.0,0.0,0.0
2639,44.0,0.0,60.0,3.0,0.0
2640,59.0,29.0,30.0,7.0,0.0
2641,63.0,0.0,60.0,2.0,0.0
2642,56.0,1.0,30.0,8.0,0.0
2643,68.0,0.0,60.0,1.0,0.0
2644,51.0,1.0,30.0,8.0,0.0
2645,47.0,1.0,30.0,8.0,0.0
2646,75.0,29.0,30.0,7.0,0.0
2647,51.0,30.0,30.0,8.0,0.0
2648,55.0,1.0,30.0,8.0,0.0
2649,63.0,0.0,60.0,2.0,0.0
2650,67.0,0.0,60.0,0.0,0.0
2651,51.0,0.0,60.0,3.0,0.0
2652,70.0,29.0,60.0,1.0,0.0
2653,58.0,29.0,30.0,7.0,0.0
2654,39.0,0.0,60.0,4.0,0.0
2655,51.0,1.0,30.0,8.0,0.0
2656,73.0,29.0,30.0,7.0,0.0
2657,46.0,1.0,30.0,8.0,0.0
2658,51.0,30.0,30.0,8.0,0.0
2659,56.0,29.0,30.0,7.0,0.0
2660,68.0,29.0,60.0,0.0,0.0
2661,56.0,1.0,30.0,8.0,0.0
2662,71.0,0.0,60.0,1.0,0.0
2663,63.0,0.0,60.0,2.0,0.0
2664,56.0,0.0,60.0,3.0,0.0
2665,44.0,0.0,60.0,4.0,0.0
2666,73.0,0.0,30.0,7.0,0.0
2667,55.0,1.0,30.0,8.0,0.0
2668,71.0,29.0,30.0,7.0,0.0
2669,56.0,1.0,30.0,8.0,0.0
2670,58.0,1.0,30.0,8.0,0.0
2671,70.0,30.0,30.0,7.0,0.0
2672,59.0,1.0,60.0,8.0,0.0
2673,68.0,29.0,30.0,7.0,0.0
2674,66.0,30.0,30.0,7.0,0.0
2675,65.0,30.0,30.0,7.0,0.0
2676,56.0,1.0,120.0,8.0,0.0
2677,63.0,30.0,30.0,7.0,0.0
2678,49.0,0.0,60.0,3.0,0.0
2679,37.0,0.0,60.0,4.0,0.0
2680,65.0,29.0,30.0,7.0,0.0
2681,71.0,30.0,30.0,7.0,0.0
2682,49.0,1.0,120.0,8.0,0.0
2683,70.0,30.0,30.0,7.0,0.0
2684,68.0,30.0,30.0,7.0,0.0
2685,70.0,29.0,30.0,7.0,0.0
2686,30.0,30.0,60.0,4.0,0.0
2687,42.0,0.0,60.0,3.0,0.0
2688,65.0,0.0,30.0,7.0,0.0
2689,54.0,1.0,120.0,8.0,0.0
2690,63.0,30.0,30.0,7.0,0.0
2691,62.0,30.0,30.0,7.0,0.0
2692,35.0,0.0,60.0,4.0,0.0
2693,63.0,29.0,30.0,7.0,0.0
2694,47.0,30.0,60.0,3.0,0.0
2695,70.0,0.0,30.0,7.0,0.0
2696,47.0,1.0,120.0,8.0,0.0
2697,68.0,30.0,30.0,7.0,0.0
2698,66.0,30.0,30.0,7.0,0.0
2699,68.0,29.0,30.0,7.0,0.0
2700,41.0,0.0,60.0,3.0,0.0
2701,29.0,30.0,60.0,4.0,0.0
2702,63.0,0.0,30.0,7.0,0.0
2703,62.0,30.0,30.0,7.0,0.0
2704,53.0,1.0,120.0,8.0,0.0
2705,60.0,30.0,30.0,7.0,0.0
2706,62.0,29.0,30.0,7.0,0.0
2707,46.0,0.0,60.0,3.0,0.0
2708,34.0,0.0,60.0,4.0,0.0
2709,68.0,30.0,30.0,7.0,0.0
2710,46.0,1.0,120.0,8.0,0.0
2711,66.0,30.0,30.0,7.0,0.0
2712,65.0,30.0,30.0,7.0,0.0
2713,27.0,0.0,60.0,4.0,0.0
2714,66.0,29.0,30.0,7.0,0.0
2715,39.0,0.0,60.0,3.0,0.0
2716,65.0,30.0,30.0,7.0,0.0
2717,63.0,29.0,30.0,7.0,0.0
2718,51.0,1.0,60.0,8.0,0.0
2719,66.0,30.0,30.0,7.0,0.0
2720,46.0,29.0,60.0,3.0,0.0
2721,34.0,0.0,60.0,4.0,0.0
2722,65.0,29.0,30.0,7.0,0.0
2723,50.0,1.0,60.0,8.0,0.0
2724,63.0,0.0,30.0,7.0,0.0
2725,62.0,29.0,30.0,7.0,0.0
2726,29.0,0.0,60.0,4.0,0.0
2727,46.0,1.0,30.0,8.0,0.0
2728,41.0,0.0,60.0,3.0,0.0
2729,60.0,29.0,30.0,7.0,0.0
2730,41.0,1.0,30.0,8.0,0.0
2731,38.0,29.0,60.0,3.0,0.0
2732,38.0,30.0,30.0,8.0,0.0
2733,58.0,0.0,150.0,7.0,0.0
2734,26.0,0.0,60.0,4.0,0.0
2735,34.0,1.0,30.0,8.0,0.0
2736,56.0,0.0,30.0,5.0,0.0
2737,36.0,1.0,30.0,8.0,0.0
2738,22.0,29.0,60.0,4.0,0.0
2739,54.0,29.0,30.0,5.0,0.0
2740,34.0,0.0,60.0,3.0,0.0
2741,53.0,0.0,30.0,5.0,0.0
2742,38.0,1.0,30.0,8.0,0.0
2743,63.0,0.0,60.0,0.0,0.0
2744,58.0,29.0,60.0,2.0,0.0
2745,51.0,1.0,30.0,6.0,0.0
2746,39.0,1.0,60.0,8.0,0.0
2747,39.0,0.0,60.0,3.0,0.0
2748,54.0,29.0,30.0,5.0,0.0
2749,66.0,0.0,60.0,1.0,0.0
2750,27.0,0.0,60.0,4.0,0.0
2751,54.0,0.0,30.0,7.0,0.0
2752,46.0,0.0,30.0,6.0,0.0
2753,42.0,1.0,30.0,6.0,0.0
2754,70.0,29.0,30.0,5.0,0.0
2755,51.0,0.0,30.0,7.0,0.0
2756,42.0,0.0,60.0,8.0,0.0
2757,46.0,1.0,30.0,6.0,0.0
2758,54.0,29.0,30.0,7.0,0.0
2759,53.0,29.0,30.0,5.0,0.0
2760,56.0,0.0,30.0,7.0,0.0
2761,65.0,0.0,60.0,0.0,0.0
2762,62.0,0.0,60.0,1.0,0.0
2763,50.0,1.0,30.0,6.0,0.0
2764,46.0,0.0,60.0,3.0,0.0
2765,46.0,0.0,60.0,8.0,0.0
2766,58.0,0.0,60.0,2.0,0.0
2767,34.0,29.0,60.0,4.0,0.0
2768,53.0,0.0,30.0,7.0,0.0
2769,46.0,1.0,30.0,6.0,0.0
2770,34.0,1.0,60.0,8.0,0.0
2771,41.0,1.0,30.0,6.0,0.0
2772,68.0,29.0,30.0,5.0,0.0
2773,50.0,0.0,30.0,7.0,0.0
2774,46.0,0.0,30.0,6.0,0.0
2775,53.0,29.0,30.0,7.0,0.0
2776,39.0,29.0,60.0,4.0,0.0
2777,51.0,1.0,30.0,6.0,0.0
2778,58.0,0.0,60.0,2.0,0.0
2779,66.0,0.0,60.0,0.0,0.0
2780,63.0,0.0,60.0,1.0,0.0
2781,54.0,0.0,30.0,7.0,0.0
2782,51.0,29.0,30.0,5.0,0.0
2783,51.0,0.0,60.0,3.0,0.0
2784,39.0,0.0,60.0,8.0,0.0
2785,68.0,0.0,30.0,5.0,0.0
2786,50.0,1.0,30.0,6.0,0.0
2787,66.0,0.0,30.0,5.0,0.0
2788,51.0,0.0,60.0,8.0,0.0
2789,51.0,1.0,30.0,6.0,0.0
2790,51.0,29.0,30.0,7.0,0.0
2791,65.0,29.0,30.0,5.0,0.0
2792,53.0,1.0,30.0,6.0,0.0
2793,63.0,0.0,150.0,7.0,0.0
2794,54.0,1.0,30.0,6.0,0.0
2795,63.0,29.0,30.0,5.0,0.0
2796,39.0,1.0,30.0,8.0,0.0
2797,55.0,0.0,30.0,6.0,0.0
2798,61.0,29.0,30.0,5.0,0.0
2799,56.0,0.0,30.0,6.0,0.0
2800,41.0,1.0,30.0,8.0,0.0
2801,59.0,29.0,30.0,5.0,0.0
2802,43.0,1.0,30.0,8.0,0.0
2803,58.0,0.0,30.0,6.0,0.0
2804,58.0,29.0,30.0,5.0,0.0
2805,68.0,0.0,60.0,0.0,0.0
2806,56.0,1.0,30.0,6.0,0.0
2807,71.0,0.0,60.0,1.0,0.0
2808,44.0,0.0,60.0,3.0,0.0
2809,59.0,29.0,30.0,5.0,0.0
2810,32.0,0.0,60.0,4.0,0.0
2811,63.0,29.0,60.0,2.0,0.0
2812,44.0,0.0,60.0,8.0,0.0
2813,51.0,1.0,30.0,6.0,0.0
2814,59.0,0.0,30.0,7.0,0.0
2815,47.0,1.0,60.0,8.0,0.0
2816,47.0,1.0,30.0,6.0,0.0
2817,75.0,0.0,30.0,5.0,0.0
2818,56.0,29.0,30.0,7.0,0.0
2819,51.0,0.0,30.0,6.0,0.0
2820,59.0,29.0,30.0,7.0,0.0
2821,61.0,0.0,30.0,7.0,0.0
2822,51.0,0.0,60.0,3.0,0.0
2823,39.0,0.0,60.0,4.0,0.0
2824,67.0,0.0,60.0,1.0,0.0
2825,63.0,29.0,60.0,2.0,0.0
2826,55.0,1.0,30.0,6.0,0.0
2827,58.0,29.0,30.0,5.0,0.0
2828,70.0,0.0,60.0,0.0,0.0
2829,51.0,1.0,60.0,8.0,0.0
2830,51.0,0.0,30.0,6.0,0.0
2831,58.0,0.0,30.0,7.0,0.0
2832,46.0,1.0,30.0,6.0,0.0
2833,73.0,29.0,30.0,5.0,0.0
2834,55.0,0.0,30.0,7.0,0.0
2835,39.0,1.0,60.0,8.0,0.0
2836,58.0,29.0,30.0,7.0,0.0
2837,51.0,0.0,30.0,6.0,0.0
2838,56.0,0.0,60.0,3.0,0.0
2839,56.0,29.0,30.0,5.0,0.0
2840,44.0,0.0,60.0,8.0,0.0
2841,71.0,0.0,60.0,0.0,0.0
2842,68.0,29.0,60.0,1.0,0.0
2843,44.0,0.0,60.0,4.0,0.0
2844,56.0,1.0,30.0,6.0,0.0
2845,63.0,0.0,60.0,2.0,0.0
2846,59.0,0.0,30.0,7.0,0.0
2847,73.0,0.0,30.0,5.0,0.0
2848,55.0,1.0,30.0,6.0,0.0
2849,56.0,0.0,30.0,7.0,0.0
2850,56.0,1.0,30.0,6.0,0.0
2851,71.0,29.0,30.0,5.0,0.0
2852,32.0,0.0,60.0,8.0,0.0
2853,70.0,30.0,30.0,5.0,0.0
2854,58.0,1.0,30.0,6.0,0.0
2855,68.0,29.0,30.0,5.0,0.0
2856,59.0,1.0,60.0,6.0,0.0
2857,71.0,29.0,150.0,7.0,0.0
2858,44.0,0.0,30.0,8.0,0.0
2859,66.0,29.0,30.0,5.0,0.0
2860,46.0,1.0,30.0,8.0,0.0
2861,56.0,1.0,120.0,6.0,0.0
2862,65.0,29.0,30.0,5.0,0.0
2863,47.0,1.0,30.0,8.0,0.0
2864,63.0,30.0,30.0,5.0,0.0
2865,37.0,0.0,60.0,4.0,0.0
2866,49.0,0.0,60.0,3.0,0.0
2867,65.0,0.0,30.0,5.0,0.0
2868,49.0,0.0,60.0,8.0,0.0
2869,56.0,0.0,30.0,7.0,0.0
2870,71.0,30.0,30.0,5.0,0.0
2871,54.0,0.0,30.0,7.0,0.0
2872,70.0,30.0,30.0,5.0,0.0
2873,49.0,1.0,120.0,6.0,0.0
2874,53.0,30.0,30.0,7.0,0.0
2875,68.0,0.0,30.0,5.0,0.0
2876,30.0,29.0,60.0,4.0,0.0
2877,42.0,0.0,60.0,3.0,0.0
2878,54.0,0.0,60.0,7.0,0.0
2879,70.0,29.0,30.0,5.0,0.0
2880,65.0,0.0,30.0,5.0,0.0
2881,49.0,0.0,30.0,8.0,0.0
2882,70.0,0.0,90.0,7.0,0.0
2883,63.0,29.0,30.0,5.0,0.0
2884,47.0,1.0,30.0,8.0,0.0
2885,54.0,0.0,120.0,6.0,0.0
2886,46.0,1.0,30.0,8.0,0.0
2887,62.0,30.0,30.0,5.0,0.0
2888,47.0,0.0,60.0,3.0,0.0
2889,35.0,0.0,60.0,4.0,0.0
2890,63.0,29.0,30.0,5.0,0.0
2891,47.0,1.0,60.0,8.0,0.0
2892,54.0,0.0,30.0,7.0,0.0
2893,70.0,30.0,30.0,5.0,0.0
2894,53.0,30.0,30.0,7.0,0.0
2895,47.0,0.0,120.0,6.0,0.0
2896,68.0,0.0,30.0,5.0,0.0
2897,66.0,0.0,30.0,5.0,0.0
2898,51.0,30.0,30.0,7.0,0.0
2899,41.0,0.0,60.0,3.0,0.0
2900,29.0,0.0,60.0,4.0,0.0
2901,53.0,0.0,60.0,7.0,0.0
2902,68.0,29.0,30.0,5.0,0.0
2903,47.0,1.0,30.0,8.0,0.0
2904,63.0,29.0,30.0,5.0,0.0
2905,53.0,0.0,120.0,6.0,0.0
2906,62.0,29.0,30.0,5.0,0.0
2907,68.0,29.0,90.0,7.0,0.0
2908,46.0,1.0,30.0,8.0,0.0
2909,60.0,30.0,30.0,5.0,0.0
2910,44.0,1.0,30.0,8.0,0.0
2911,34.0,0.0,60.0,4.0,0.0
2912,46.0,1.0,60.0,8.0,0.0
2913,62.0,0.0,30.0,5.0,0.0
2914,46.0,0.0,60.0,3.0,0.0
2915,53.0,0.0,30.0,7.0,0.0
2916,68.0,30.0,30.0,5.0,0.0
2917,66.0,0.0,30.0,5.0,0.0
2918,46.0,1.0,120.0,6.0,0.0
2919,51.0,30.0,30.0,7.0,0.0
2920,50.0,0.0,30.0,7.0,0.0
2921,65.0,30.0,30.0,5.0,0.0
2922,39.0,0.0,60.0,3.0,0.0
2923,27.0,29.0,60.0,4.0,0.0
2924,66.0,29.0,30.0,5.0,0.0
2925,51.0,0.0,60.0,7.0,0.0
2926,46.0,0.0,30.0,8.0,0.0
2927,65.0,0.0,30.0,5.0,0.0
2928,63.0,29.0,30.0,5.0,0.0
2929,51.0,1.0,60.0,6.0,0.0
2930,42.0,1.0,30.0,8.0,0.0
2931,63.0,0.0,90.0,7.0,0.0
2932,39.0,0.0,30.0,8.0,0.0
2933,66.0,30.0,30.0,5.0,0.0
2934,46.0,0.0,60.0,8.0,0.0
2935,65.0,29.0,30.0,5.0,0.0
2936,46.0,0.0,60.0,3.0,0.0
2937,34.0,0.0,60.0,4.0,0.0
2938,50.0,1.0,60.0,6.0,0.0
2939,66.0,30.0,30.0,7.0,0.0
2940,63.0,0.0,30.0,5.0,0.0
2941,34.0,0.0,60.0,3.0,0.0
2942,22.0,0.0,60.0,4.0,0.0
2943,46.0,0.0,60.0,6.0,0.0
2944,62.0,29.0,30.0,5.0,0.0
2945,34.0,1.0,60.0,8.0,0.0
2946,65.0,0.0,30.0,7.0,0.0
2947,60.0,0.0,30.0,5.0,0.0
2948,63.0,30.0,30.0,7.0,0.0
2949,26.0,0.0,60.0,4.0,0.0
2950,58.0,0.0,60.0,5.0,0.0
2951,38.0,29.0,60.0,3.0,0.0
2952,65.0,29.0,30.0,7.0,0.0
2953,68.0,0.0,30.0,7.0,0.0
2954,34.0,0.0,30.0,8.0,0.0
2955,50.0,1.0,30.0,6.0,0.0
2956,51.0,0.0,30.0,6.0,0.0
2957,66.0,29.0,30.0,7.0,0.0
2958,36.0,1.0,30.0,8.0,0.0
2959,34.0,0.0,60.0,3.0,0.0
2960,22.0,0.0,60.0,4.0,0.0
2961,38.0,1.0,30.0,8.0,0.0
2962,53.0,0.0,30.0,6.0,0.0
2963,65.0,30.0,30.0,7.0,0.0
2964,39.0,0.0,60.0,3.0,0.0
2965,63.0,0.0,30.0,5.0,0.0
2966,63.0,0.0,30.0,0.0,0.0
2967,66.0,29.0,30.0,7.0,0.0
2968,39.0,0.0,60.0,6.0,0.0
2969,58.0,0.0,60.0,2.0,0.0
2970,27.0,0.0,60.0,4.0,0.0
2971,39.0,1.0,60.0,8.0,0.0
2972,65.0,0.0,30.0,0.0,0.0
2973,65.0,30.0,30.0,7.0,0.0
2974,65.0,0.0,30.0,5.0,0.0
2975,51.0,1.0,60.0,8.0,0.0
2976,63.0,0.0,30.0,1.0,0.0
2977,54.0,0.0,60.0,2.0,0.0
2978,66.0,29.0,30.0,5.0,0.0
2979,39.0,0.0,60.0,4.0,0.0
2980,51.0,0.0,60.0,3.0,0.0
2981,66.0,0.0,30.0,0.0,0.0
2982,51.0,0.0,60.0,6.0,0.0
2983,63.0,0.0,30.0,7.0,0.0
2984,65.0,30.0,30.0,7.0,0.0
2985,65.0,0.0,30.0,1.0,0.0
2986,68.0,0.0,30.0,0.0,0.0
2987,68.0,0.0,30.0,5.0,0.0
2988,37.0,0.0,60.0,4.0,0.0
2989,70.0,0.0,60.0,5.0,0.0
2990,66.0,0.0,30.0,1.0,0.0
2991,49.0,0.0,60.0,8.0,0.0
2992,49.0,0.0,60.0,3.0,0.0
2993,70.0,0.0,60.0,0.0,0.0
2994,49.0,1.0,60.0,6.0,0.0
2995,51.0,0.0,120.0,2.0,0.0
2996,66.0,29.0,30.0,7.0,0.0
2997,65.0,0.0,30.0,1.0,0.0
2998,65.0,30.0,30.0,7.0,0.0
2999,47.0,0.0,60.0,3.0,0.0
3000,47.0,0.0,60.0,8.0,0.0
3001,35.0,29.0,60.0,4.0,0.0
3002,66.0,29.0,30.0,1.0,0.0
3003,75.0,0.0,60.0,0.0,0.0
3004,75.0,0.0,60.0,5.0,0.0
3005,47.0,1.0,60.0,6.0,0.0
3006,66.0,0.0,30.0,7.0,0.0
3007,68.0,0.0,30.0,7.0,0.0
3008,68.0,0.0,30.0,1.0,0.0
3009,46.0,1.0,30.0,6.0,0.0
3010,46.0,29.0,30.0,3.0,0.0
3011,46.0,1.0,60.0,8.0,0.0
3012,74.0,0.0,60.0,5.0,0.0
3013,70.0,29.0,60.0,1.0,0.0
3014,53.0,0.0,60.0,2.0,0.0
3015,34.0,0.0,30.0,4.0,0.0
3016,74.0,0.0,60.0,0.0,0.0
3017,70.0,0.0,60.0,7.0,0.0
3018,44.0,0.0,30.0,3.0,0.0
3019,32.0,0.0,30.0,4.0,0.0
3020,44.0,0.0,30.0,6.0,0.0
3021,34.0,0.0,30.0,4.0,0.0
3022,70.0,0.0,60.0,5.0,0.0
3023,65.0,0.0,60.0,7.0,0.0
3024,46.0,29.0,30.0,3.0,0.0
3025,58.0,0.0,30.0,8.0,0.0
3026,70.0,0.0,60.0,0.0,0.0
3027,46.0,1.0,30.0,6.0,0.0
3028,58.0,29.0,60.0,2.0,0.0
3029,65.0,0.0,60.0,1.0,0.0
3030,59.0,1.0,30.0,8.0,0.0
3031,47.0,0.0,30.0,6.0,0.0
3032,35.0,0.0,30.0,4.0,0.0
3033,47.0,0.0,30.0,3.0,0.0
3034,58.0,1.0,30.0,8.0,0.0
3035,65.0,0.0,60.0,5.0,0.0
3036,34.0,0.0,30.0,4.0,0.0
3037,62.0,0.0,120.0,2.0,0.0
3038,65.0,0.0,60.0,0.0,0.0
3039,70.0,0.0,150.0,1.0,0.0
3040,46.0,0.0,30.0,6.0,0.0
3041,46.0,29.0,30.0,3.0,0.0
3042,70.0,0.0,150.0,7.0,0.0
3043,44.0,0.0,30.0,6.0,0.0
3044,56.0,1.0,30.0,8.0,0.0
3045,44.0,29.0,30.0,3.0,0.0
3046,32.0,0.0,30.0,4.0,0.0
3047,55.0,0.0,30.0,8.0,0.0
3048,43.0,1.0,30.0,6.0,0.0
3049,42.0,29.0,30.0,3.0,0.0
3050,68.0,0.0,60.0,0.0,0.0
3051,30.0,0.0,30.0,4.0,0.0
3052,68.0,29.0,60.0,5.0,0.0
3053,29.0,0.0,30.0,4.0,0.0
3054,53.0,0.0,30.0,8.0,0.0
3055,41.0,1.0,30.0,6.0,0.0
3056,41.0,0.0,30.0,3.0,0.0
3057,39.0,0.0,30.0,3.0,0.0
3058,63.0,0.0,60.0,2.0,0.0
3059,27.0,29.0,30.0,4.0,0.0
3060,67.0,0.0,60.0,0.0,0.0
3061,39.0,1.0,30.0,6.0,0.0
3062,67.0,29.0,60.0,5.0,0.0
3063,51.0,0.0,150.0,8.0,0.0
3064,38.0,0.0,30.0,3.0,0.0
3065,26.0,0.0,30.0,4.0,0.0
3066,68.0,0.0,30.0,7.0,0.0
3067,38.0,1.0,30.0,6.0,0.0
3068,68.0,0.0,30.0,1.0,0.0
3069,67.0,0.0,30.0,7.0,0.0
3070,63.0,0.0,60.0,5.0,0.0
3071,39.0,29.0,30.0,3.0,0.0
3072,58.0,0.0,60.0,2.0,0.0
3073,27.0,0.0,30.0,4.0,0.0
3074,67.0,0.0,30.0,1.0,0.0
3075,39.0,1.0,30.0,6.0,0.0
3076,63.0,29.0,60.0,0.0,0.0
3077,41.0,1.0,30.0,6.0,0.0
3078,29.0,0.0,30.0,4.0,0.0
3079,65.0,0.0,30.0,7.0,0.0
3080,41.0,0.0,30.0,3.0,0.0
3081,65.0,0.0,30.0,1.0,0.0
3082,67.0,29.0,30.0,1.0,0.0
3083,27.0,0.0,30.0,4.0,0.0
3084,73.0,0.0,180.0,5.0,0.0
3085,70.0,0.0,60.0,2.0,0.0
3086,73.0,0.0,180.0,0.0,0.0
3087,39.0,0.0,30.0,3.0,0.0
3088,67.0,0.0,30.0,7.0,0.0
3089,39.0,1.0,30.0,6.0,0.0
3090,37.0,0.0,30.0,3.0,0.0
3091,63.0,0.0,30.0,1.0,0.0
3092,49.0,0.0,30.0,8.0,0.0
3093,63.0,29.0,30.0,7.0,0.0
3094,37.0,1.0,30.0,6.0,0.0
3095,25.0,0.0,30.0,4.0,0.0
3096,35.0,29.0,30.0,3.0,0.0
3097,23.0,0.0,30.0,4.0,0.0
3098,63.0,29.0,60.0,2.0,0.0
3099,65.0,0.0,30.0,1.0,0.0
3100,35.0,0.0,30.0,6.0,0.0
3101,47.0,1.0,30.0,8.0,0.0
3102,65.0,0.0,30.0,7.0,0.0
3103,67.0,0.0,30.0,1.0,0.0
3104,46.0,0.0,30.0,8.0,0.0
3105,67.0,0.0,30.0,7.0,0.0
3106,22.0,0.0,30.0,4.0,0.0
3107,34.0,0.0,30.0,3.0,0.0
3108,34.0,1.0,30.0,6.0,0.0
3109,20.0,0.0,30.0,4.0,0.0
3110,32.0,29.0,30.0,3.0,0.0
3111,68.0,29.0,60.0,1.0,0.0
3112,32.0,0.0,30.0,6.0,0.0
3113,44.0,1.0,30.0,8.0,0.0
3114,68.0,0.0,60.0,7.0,0.0
3115,31.0,0.0,30.0,4.0,0.0
3116,43.0,0.0,30.0,8.0,0.0
3117,43.0,1.0,30.0,6.0,0.0
3118,43.0,0.0,30.0,3.0,0.0
3119,44.0,0.0,30.0,3.0,0.0
3120,32.0,29.0,30.0,4.0,0.0
3121,44.0,1.0,30.0,8.0,0.0
3122,63.0,0.0,60.0,2.0,0.0
3123,72.0,0.0,30.0,0.0,0.0
3124,63.0,0.0,60.0,1.0,0.0
3125,72.0,0.0,30.0,5.0,0.0
3126,63.0,29.0,60.0,7.0,0.0
3127,44.0,0.0,30.0,6.0,0.0
3128,70.0,0.0,30.0,5.0,0.0
3129,46.0,0.0,30.0,3.0,0.0
3130,70.0,0.0,30.0,0.0,0.0
3131,46.0,1.0,30.0,6.0,0.0
3132,46.0,0.0,30.0,8.0,0.0
3133,34.0,0.0,30.0,4.0,0.0
3134,32.0,29.0,30.0,4.0,0.0
3135,44.0,1.0,30.0,6.0,0.0
3136,51.0,0.0,60.0,2.0,0.0
3137,72.0,29.0,60.0,0.0,0.0
3138,44.0,0.0,30.0,3.0,0.0
3139,72.0,0.0,60.0,5.0,0.0
3140,44.0,0.0,30.0,8.0,0.0
3141,68.0,30.0,150.0,1.0,0.0
3142,68.0,0.0,150.0,7.0,0.0
3143,42.0,0.0,30.0,3.0,0.0
3144,30.0,0.0,30.0,4.0,0.0
3145,42.0,1.0,30.0,6.0,0.0
3146,42.0,0.0,30.0,8.0,0.0
3147,68.0,0.0,60.0,5.0,0.0
3148,29.0,0.0,30.0,4.0,0.0
3149,56.0,0.0,60.0,2.0,0.0
3150,41.0,0.0,30.0,8.0,0.0
3151,41.0,1.0,30.0,6.0,0.0
3152,68.0,0.0,60.0,0.0,0.0
3153,41.0,29.0,30.0,3.0,0.0
3154,39.0,30.0,30.0,3.0,0.0
3155,39.0,1.0,30.0,8.0,0.0
3156,39.0,0.0,30.0,6.0,0.0
3157,27.0,0.0,30.0,4.0,0.0
3158,65.0,30.0,60.0,0.0,0.0
3159,38.0,1.0,120.0,8.0,0.0
3160,26.0,0.0,120.0,4.0,0.0
3161,38.0,0.0,120.0,6.0,0.0
3162,65.0,0.0,60.0,5.0,0.0
3163,38.0,0.0,120.0,3.0,0.0
3164,66.0,0.0,30.0,7.0,0.0
3165,66.0,0.0,30.0,1.0,0.0
3166,68.0,0.0,60.0,5.0,0.0
3167,59.0,0.0,60.0,2.0,0.0
3168,65.0,0.0,30.0,1.0,0.0
3169,68.0,0.0,60.0,0.0,0.0
3170,65.0,29.0,30.0,7.0,0.0
3171,66.0,30.0,30.0,7.0,0.0
3172,66.0,0.0,30.0,1.0,0.0
3173,68.0,30.0,30.0,1.0,0.0
3174,53.0,0.0,60.0,2.0,0.0
3175,71.0,0.0,60.0,5.0,0.0
3176,71.0,0.0,60.0,0.0,0.0
3177,68.0,0.0,30.0,7.0,0.0
3178,70.0,0.0,30.0,7.0,0.0
3179,70.0,30.0,30.0,1.0,0.0
3180,56.0,0.0,60.0,2.0,0.0
3181,71.0,30.0,30.0,7.0,0.0
3182,63.0,0.0,60.0,5.0,0.0
3183,32.0,0.0,120.0,4.0,0.0
3184,44.0,1.0,120.0,8.0,0.0
3185,44.0,0.0,120.0,3.0,0.0
3186,44.0,0.0,120.0,6.0,0.0
3187,71.0,0.0,30.0,1.0,0.0
3188,63.0,30.0,60.0,0.0,0.0
3189,68.0,0.0,30.0,7.0,0.0
3190,68.0,0.0,30.0,1.0,0.0
3191,70.0,0.0,30.0,7.0,0.0
3192,62.0,0.0,60.0,0.0,0.0
3193,62.0,0.0,60.0,5.0,0.0
3194,70.0,29.0,30.0,1.0,0.0
3195,71.0,29.0,30.0,7.0,0.0
3196,71.0,0.0,30.0,1.0,0.0
3197,70.0,29.0,30.0,1.0,0.0
3198,70.0,0.0,30.0,7.0,0.0
3199,42.0,0.0,30.0,3.0,0.0
3200,50.0,0.0,60.0,2.0,0.0
3201,42.0,1.0,30.0,6.0,0.0
3202,70.0,0.0,60.0,0.0,0.0
3203,42.0,0.0,30.0,8.0,0.0
3204,70.0,0.0,60.0,5.0,0.0
3205,30.0,0.0,30.0,4.0,0.0
3206,41.0,1.0,30.0,8.0,0.0
3207,41.0,0.0,30.0,6.0,0.0
3208,29.0,0.0,30.0,4.0,0.0
3209,41.0,0.0,30.0,3.0,0.0
3210,68.0,0.0,30.0,1.0,0.0
3211,68.0,30.0,30.0,7.0,0.0
3212,63.0,0.0,60.0,0.0,0.0
3213,42.0,0.0,60.0,6.0,0.0
3214,30.0,0.0,60.0,4.0,0.0
3215,66.0,0.0,30.0,1.0,0.0
3216,66.0,29.0,30.0,7.0,0.0
3217,42.0,1.0,60.0,8.0,0.0
3218,46.0,0.0,60.0,2.0,0.0
3219,63.0,30.0,60.0,5.0,0.0
3220,42.0,0.0,60.0,3.0,0.0
3221,65.0,0.0,30.0,1.0,0.0
3222,65.0,0.0,30.0,7.0,0.0
3223,47.0,0.0,60.0,3.0,0.0
3224,35.0,0.0,60.0,4.0,0.0
3225,63.0,29.0,30.0,7.0,0.0
3226,47.0,1.0,60.0,8.0,0.0
3227,51.0,0.0,60.0,2.0,0.0
3228,47.0,0.0,60.0,6.0,0.0
3229,68.0,59.0,60.0,0.0,0.0
3230,68.0,0.0,60.0,5.0,0.0
3231,63.0,0.0,30.0,1.0,0.0
3232,62.0,0.0,30.0,7.0,0.0
3233,62.0,0.0,30.0,1.0,0.0
3234,66.0,0.0,120.0,5.0,0.0
3235,66.0,0.0,120.0,0.0,0.0
3236,63.0,0.0,60.0,7.0,0.0
3237,46.0,1.0,60.0,8.0,0.0
3238,34.0,0.0,60.0,4.0,0.0
3239,58.0,0.0,60.0,2.0,0.0
3240,63.0,0.0,60.0,1.0,0.0
3241,46.0,0.0,60.0,6.0,0.0
3242,46.0,59.0,60.0,3.0,0.0
3243,75.0,0.0,120.0,7.0,0.0
3244,32.0,0.0,60.0,4.0,0.0
3245,59.0,20.0,120.0,2.0,0.0
3246,44.0,0.0,60.0,6.0,0.0
3247,75.0,0.0,120.0,1.0,0.0
3248,44.0,15.0,60.0,3.0,0.0
3249,44.0,1.0,60.0,8.0,0.0
3250,46.0,0.0,60.0,3.0,0.0
3251,34.0,0.0,60.0,4.0,0.0
3252,46.0,0.0,60.0,6.0,0.0
3253,65.0,15.0,15.0,5.0,0.0
3254,65.0,0.0,120.0,0.0,0.0
3255,46.0,1.0,60.0,8.0,0.0
3256,66.0,15.0,15.0,5.0,0.0
3257,65.0,14.0,15.0,5.0,0.0
3258,66.0,0.0,15.0,5.0,0.0
3259,74.0,0.0,60.0,1.0,0.0
3260,74.0,59.0,60.0,7.0,0.0
3261,34.0,0.0,60.0,6.0,0.0
3262,58.0,10.0,30.0,2.0,0.0
3263,34.0,1.0,60.0,8.0,0.0
3264,65.0,10.0,20.0,5.0,0.0
3265,34.0,0.0,60.0,3.0,0.0
3266,22.0,0.0,60.0,4.0,0.0
3267,66.0,19.0,20.0,5.0,0.0
3268,56.0,0.0,30.0,2.0,0.0
3269,65.0,0.0,20.0,5.0,0.0
3270,75.0,0.0,120.0,1.0,0.0
3271,63.0,0.0,120.0,0.0,0.0
3272,39.0,1.0,60.0,8.0,0.0
3273,39.0,0.0,60.0,3.0,0.0
3274,39.0,0.0,60.0,6.0,0.0
3275,27.0,30.0,60.0,4.0,0.0
3276,54.0,0.0,60.0,2.0,0.0
3277,63.0,0.0,120.0,5.0,0.0
3278,75.0,0.0,60.0,7.0,0.0
3279,42.0,1.0,60.0,6.0,0.0
3280,51.0,0.0,60.0,3.0,0.0
3281,73.0,29.0,30.0,7.0,0.0
3282,39.0,0.0,60.0,4.0,0.0
3283,71.0,30.0,30.0,7.0,0.0
3284,38.0,0.0,60.0,4.0,0.0
3285,50.0,0.0,60.0,3.0,0.0
3286,46.0,1.0,60.0,6.0,0.0
3287,70.0,29.0,30.0,7.0,0.0
3288,59.0,0.0,30.0,5.0,0.0
3289,68.0,30.0,30.0,7.0,0.0
3290,65.0,0.0,30.0,8.0,0.0
3291,34.0,0.0,60.0,4.0,0.0
3292,63.0,0.0,30.0,8.0,0.0
3293,34.0,1.0,60.0,6.0,0.0
3294,46.0,0.0,60.0,3.0,0.0
3295,66.0,29.0,30.0,7.0,0.0
3296,58.0,0.0,30.0,5.0,0.0
3297,56.0,0.0,30.0,5.0,0.0
3298,62.0,30.0,30.0,8.0,0.0
3299,65.0,0.0,30.0,7.0,0.0
3300,46.0,1.0,60.0,6.0,0.0
3301,58.0,0.0,840.0,1.0,0.0
3302,54.0,0.0,30.0,5.0,0.0
3303,58.0,29.0,840.0,0.0,0.0
3304,58.0,0.0,840.0,2.0,0.0
3305,63.0,29.0,30.0,7.0,0.0
3306,39.0,30.0,60.0,4.0,0.0
3307,51.0,0.0,60.0,3.0,0.0
3308,66.0,0.0,30.0,7.0,0.0
3309,63.0,30.0,30.0,5.0,0.0
3310,70.0,0.0,30.0,7.0,0.0
3311,75.0,30.0,30.0,7.0,0.0
3312,56.0,30.0,30.0,5.0,0.0
3313,65.0,0.0,30.0,7.0,0.0
3314,68.0,30.0,30.0,7.0,0.0
3315,65.0,0.0,30.0,5.0,0.0
3316,70.0,30.0,30.0,7.0,0.0
3317,74.0,30.0,30.0,7.0,0.0
3318,75.0,0.0,30.0,7.0,0.0
3319,54.0,30.0,30.0,5.0,0.0
3320,70.0,30.0,30.0,7.0,0.0
3321,63.0,0.0,30.0,5.0,0.0
3322,66.0,30.0,30.0,7.0,0.0
3323,63.0,30.0,30.0,7.0,0.0
3324,53.0,0.0,30.0,5.0,0.0
3325,62.0,30.0,30.0,7.0,0.0
3326,65.0,30.0,30.0,7.0,0.0
3327,62.0,0.0,30.0,5.0,0.0
3328,68.0,30.0,30.0,7.0,0.0
3329,70.0,30.0,30.0,7.0,0.0
3330,63.0,30.0,30.0,7.0,0.0
3331,54.0,0.0,30.0,5.0,0.0
3332,66.0,30.0,30.0,7.0,0.0
3333,39.0,30.0,60.0,4.0,0.0
3334,63.0,29.0,30.0,5.0,0.0
3335,70.0,0.0,30.0,7.0,0.0
3336,51.0,1.0,60.0,6.0,0.0
3337,51.0,0.0,60.0,3.0,0.0
3338,75.0,0.0,30.0,7.0,0.0
3339,50.0,1.0,60.0,6.0,0.0
3340,65.0,0.0,30.0,7.0,0.0
3341,50.0,0.0,60.0,3.0,0.0
3342,58.0,29.0,30.0,5.0,0.0
3343,38.0,0.0,60.0,4.0,0.0
3344,68.0,30.0,30.0,7.0,0.0
3345,34.0,30.0,60.0,4.0,0.0
3346,46.0,0.0,60.0,3.0,0.0
3347,65.0,0.0,30.0,5.0,0.0
3348,46.0,1.0,60.0,6.0,0.0
3349,70.0,29.0,30.0,7.0,0.0
3350,74.0,0.0,30.0,7.0,0.0
3351,66.0,29.0,30.0,5.0,0.0
3352,51.0,30.0,60.0,3.0,0.0
3353,75.0,0.0,30.0,7.0,0.0
3354,51.0,1.0,60.0,6.0,0.0
3355,39.0,0.0,60.0,4.0,0.0
3356,70.0,0.0,30.0,7.0,0.0
3357,27.0,0.0,30.0,4.0,0.0
3358,66.0,0.0,30.0,7.0,0.0
3359,58.0,1.0,60.0,6.0,0.0
3360,39.0,29.0,30.0,3.0,0.0
3361,63.0,0.0,30.0,5.0,0.0
3362,41.0,0.0,30.0,3.0,0.0
3363,63.0,0.0,30.0,7.0,0.0
3364,29.0,0.0,30.0,4.0,0.0
3365,30.0,0.0,60.0,4.0,0.0
3366,42.0,0.0,60.0,3.0,0.0
3367,51.0,30.0,30.0,8.0,0.0
3368,63.0,1.0,30.0,6.0,0.0
3369,64.0,0.0,30.0,7.0,0.0
3370,73.0,0.0,30.0,5.0,0.0
3371,70.0,30.0,30.0,5.0,0.0
3372,55.0,0.0,30.0,8.0,0.0
3373,56.0,0.0,30.0,8.0,0.0
3374,39.0,0.0,60.0,3.0,0.0
3375,27.0,0.0,60.0,4.0,0.0
3376,68.0,0.0,30.0,5.0,0.0
3377,71.0,30.0,30.0,5.0,0.0
3378,63.0,0.0,30.0,7.0,0.0
3379,58.0,30.0,30.0,8.0,0.0
3380,61.0,0.0,30.0,7.0,0.0
3381,67.0,0.0,30.0,5.0,0.0
3382,70.0,0.0,30.0,5.0,0.0
3383,59.0,30.0,30.0,7.0,0.0
3384,63.0,29.0,780.0,1.0,0.0
3385,32.0,0.0,60.0,4.0,0.0
3386,68.0,0.0,30.0,5.0,0.0
3387,51.0,0.0,840.0,2.0,0.0
3388,63.0,30.0,840.0,0.0,0.0
3389,44.0,30.0,60.0,3.0,0.0
3390,51.0,0.0,60.0,8.0,0.0
3391,71.0,0.0,30.0,5.0,0.0
3392,68.0,0.0,30.0,7.0,0.0
3393,75.0,30.0,30.0,5.0,0.0
3394,80.0,30.0,30.0,5.0,0.0
3395,61.0,0.0,30.0,7.0,0.0
3396,70.0,30.0,30.0,5.0,0.0
3397,73.0,30.0,30.0,5.0,0.0
3398,75.0,0.0,30.0,5.0,0.0
3399,70.0,30.0,30.0,7.0,0.0
3400,79.0,30.0,30.0,5.0,0.0
3401,59.0,30.0,30.0,7.0,0.0
3402,80.0,0.0,30.0,5.0,0.0
3403,75.0,30.0,30.0,5.0,0.0
3404,71.0,30.0,30.0,5.0,0.0
3405,68.0,0.0,30.0,7.0,0.0
3406,68.0,30.0,30.0,5.0,0.0
3407,58.0,0.0,30.0,7.0,0.0
3408,67.0,30.0,30.0,5.0,0.0
3409,70.0,30.0,30.0,5.0,0.0
3410,73.0,0.0,30.0,5.0,0.0
3411,67.0,30.0,30.0,7.0,0.0
3412,75.0,30.0,30.0,5.0,0.0
3413,68.0,0.0,30.0,5.0,0.0
3414,59.0,30.0,30.0,7.0,0.0
3415,71.0,30.0,30.0,5.0,0.0
3416,56.0,0.0,60.0,3.0,0.0
3417,44.0,0.0,60.0,4.0,0.0
3418,56.0,1.0,60.0,8.0,0.0
3419,75.0,29.0,30.0,5.0,0.0
3420,68.0,0.0,30.0,7.0,0.0
3421,80.0,30.0,30.0,5.0,0.0
3422,70.0,0.0,30.0,5.0,0.0
3423,63.0,29.0,30.0,7.0,0.0
3424,55.0,0.0,60.0,3.0,0.0
3425,55.0,1.0,60.0,8.0,0.0
3426,43.0,0.0,60.0,4.0,0.0
3427,73.0,30.0,30.0,5.0,0.0
3428,51.0,1.0,60.0,3.0,0.0
3429,39.0,0.0,60.0,4.0,0.0
3430,70.0,29.0,30.0,7.0,0.0
3431,51.0,0.0,60.0,8.0,0.0
3432,75.0,0.0,30.0,5.0,0.0
3433,79.0,30.0,30.0,5.0,0.0
3434,44.0,1.0,60.0,4.0,0.0
3435,56.0,0.0,60.0,8.0,0.0
3436,80.0,29.0,30.0,5.0,0.0
3437,56.0,0.0,60.0,3.0,0.0
3438,71.0,0.0,30.0,7.0,0.0
3439,75.0,0.0,30.0,5.0,0.0
3440,71.0,29.0,30.0,5.0,0.0
3441,68.0,0.0,30.0,7.0,0.0
3442,44.0,1.0,30.0,3.0,0.0
3443,32.0,0.0,30.0,4.0,0.0
3444,56.0,0.0,60.0,1.0,0.0
3445,44.0,0.0,30.0,8.0,0.0
3446,68.0,0.0,30.0,5.0,0.0
3447,34.0,0.0,30.0,4.0,0.0
3448,46.0,1.0,30.0,3.0,0.0
3449,46.0,0.0,30.0,8.0,0.0
3450,56.0,29.0,30.0,5.0,0.0
3451,47.0,0.0,60.0,8.0,0.0
3452,47.0,0.0,60.0,3.0,0.0
3453,35.0,1.0,60.0,4.0,0.0
3454,68.0,0.0,180.0,1.0,0.0
3455,58.0,30.0,30.0,5.0,0.0
3456,44.0,1.0,60.0,8.0,0.0
3457,56.0,0.0,60.0,0.0,0.0
3458,68.0,0.0,120.0,7.0,0.0
3459,59.0,29.0,30.0,5.0,0.0
3460,32.0,0.0,60.0,4.0,0.0
3461,44.0,0.0,60.0,3.0,0.0
3462,56.0,0.0,30.0,5.0,0.0
3463,51.0,30.0,15.0,2.0,0.0
3464,58.0,0.0,30.0,0.0,0.0
3465,51.0,0.0,120.0,8.0,0.0
3466,58.0,30.0,30.0,5.0,0.0
3467,51.0,0.0,120.0,3.0,0.0
3468,39.0,0.0,120.0,4.0,0.0
3469,56.0,30.0,30.0,5.0,0.0
3470,56.0,0.0,30.0,0.0,0.0
3471,66.0,0.0,30.0,1.0,0.0
3472,58.0,29.0,30.0,5.0,0.0
3473,51.0,1.0,60.0,6.0,0.0
3474,58.0,0.0,30.0,0.0,0.0
3475,66.0,0.0,30.0,7.0,0.0
3476,65.0,0.0,30.0,7.0,0.0
3477,65.0,0.0,30.0,1.0,0.0
3478,59.0,0.0,30.0,0.0,0.0
3479,59.0,0.0,30.0,5.0,0.0
3480,58.0,0.0,30.0,5.0,0.0
3481,58.0,30.0,30.0,0.0,0.0
3482,66.0,0.0,180.0,7.0,0.0
3483,66.0,0.0,180.0,1.0,0.0
3484,39.0,1.0,120.0,6.0,0.0
3485,60.0,0.0,30.0,0.0,0.0
3486,60.0,30.0,30.0,5.0,0.0
3487,61.0,0.0,30.0,0.0,0.0
3488,51.0,0.0,60.0,8.0,0.0
3489,61.0,29.0,30.0,5.0,0.0
3490,51.0,30.0,60.0,2.0,0.0
3491,58.0,0.0,30.0,0.0,0.0
3492,58.0,0.0,30.0,5.0,0.0
3493,56.0,0.0,120.0,8.0,0.0
3494,60.0,30.0,30.0,5.0,0.0
3495,60.0,0.0,30.0,0.0,0.0
3496,56.0,0.0,120.0,2.0,0.0
3497,58.0,30.0,30.0,0.0,0.0
3498,58.0,0.0,30.0,5.0,0.0
3499,63.0,0.0,60.0,1.0,0.0
3500,63.0,30.0,60.0,7.0,0.0
3501,60.0,0.0,30.0,5.0,0.0
3502,60.0,29.0,30.0,0.0,0.0
3503,44.0,1.0,60.0,6.0,0.0
3504,61.0,0.0,30.0,5.0,0.0
3505,61.0,0.0,30.0,0.0,0.0
3506,56.0,0.0,60.0,7.0,0.0
3507,60.0,0.0,30.0,0.0,0.0
3508,60.0,30.0,30.0,5.0,0.0
3509,56.0,0.0,60.0,1.0,0.0
3510,56.0,1.0,120.0,6.0,0.0
3511,61.0,0.0,30.0,5.0,0.0
3512,61.0,30.0,30.0,0.0,0.0
3513,63.0,29.0,30.0,0.0,0.0
3514,66.0,0.0,60.0,1.0,0.0
3515,63.0,0.0,30.0,5.0,0.0
3516,66.0,0.0,60.0,7.0,0.0
3517,44.0,0.0,60.0,8.0,0.0
3518,60.0,0.0,60.0,2.0,0.0
3519,60.0,29.0,30.0,5.0,0.0
3520,60.0,0.0,30.0,0.0,0.0
3521,64.0,0.0,30.0,7.0,0.0
3522,68.0,0.0,30.0,2.0,0.0
3523,37.0,30.0,30.0,6.0,0.0
3524,37.0,0.0,30.0,8.0,0.0
3525,61.0,30.0,60.0,0.0,0.0
3526,37.0,0.0,30.0,3.0,0.0
3527,61.0,0.0,60.0,5.0,0.0
3528,64.0,0.0,30.0,1.0,0.0
3529,25.0,0.0,30.0,4.0,0.0
3530,39.0,0.0,30.0,6.0,0.0
3531,39.0,0.0,30.0,8.0,0.0
3532,27.0,0.0,30.0,4.0,0.0
3533,39.0,0.0,30.0,3.0,0.0
3534,63.0,0.0,30.0,1.0,0.0
3535,66.0,0.0,30.0,2.0,0.0
3536,63.0,0.0,30.0,7.0,0.0
3537,68.0,0.0,60.0,0.0,0.0
3538,28.0,30.0,30.0,4.0,0.0
3539,40.0,0.0,30.0,3.0,0.0
3540,61.0,0.0,30.0,1.0,0.0
3541,40.0,0.0,30.0,8.0,0.0
3542,40.0,0.0,30.0,6.0,0.0
3543,61.0,0.0,30.0,7.0,0.0
3544,64.0,0.0,30.0,2.0,0.0
3545,68.0,0.0,60.0,5.0,0.0
3546,63.0,0.0,30.0,2.0,0.0
3547,42.0,0.0,30.0,3.0,0.0
3548,63.0,0.0,30.0,1.0,0.0
3549,42.0,0.0,30.0,8.0,0.0
3550,63.0,0.0,30.0,7.0,0.0
3551,42.0,30.0,30.0,6.0,0.0
3552,30.0,0.0,30.0,4.0,0.0
3553,32.0,0.0,60.0,4.0,0.0
3554,64.0,30.0,30.0,7.0,0.0
3555,61.0,0.0,30.0,2.0,0.0
3556,44.0,0.0,60.0,8.0,0.0
3557,44.0,0.0,60.0,6.0,0.0
3558,64.0,0.0,30.0,1.0,0.0
3559,44.0,30.0,60.0,3.0,0.0
3560,63.0,0.0,30.0,7.0,0.0
3561,63.0,0.0,30.0,1.0,0.0
3562,60.0,0.0,30.0,2.0,0.0
3563,76.0,0.0,60.0,0.0,0.0
3564,64.0,30.0,30.0,7.0,0.0
3565,76.0,0.0,60.0,5.0,0.0
3566,61.0,0.0,30.0,2.0,0.0
3567,49.0,0.0,60.0,8.0,0.0
3568,37.0,0.0,60.0,4.0,0.0
3569,49.0,0.0,60.0,6.0,0.0
3570,49.0,30.0,60.0,3.0,0.0
3571,64.0,0.0,30.0,1.0,0.0
3572,63.0,0.0,30.0,2.0,0.0
3573,66.0,0.0,30.0,7.0,0.0
3574,66.0,0.0,30.0,1.0,0.0
3575,68.0,29.0,60.0,7.0,0.0
3576,68.0,0.0,60.0,1.0,0.0
3577,56.0,0.0,60.0,2.0,0.0
3578,48.0,0.0,60.0,6.0,0.0
3579,75.0,30.0,30.0,0.0,0.0
3580,75.0,0.0,30.0,5.0,0.0
3581,48.0,0.0,60.0,3.0,0.0
3582,36.0,0.0,60.0,4.0,0.0
3583,48.0,1.0,60.0,8.0,0.0
3584,73.0,0.0,30.0,0.0,0.0
3585,73.0,0.0,30.0,5.0,0.0
3586,32.0,1.0,60.0,4.0,0.0
3587,44.0,0.0,60.0,8.0,0.0
3588,44.0,0.0,60.0,6.0,0.0
3589,44.0,0.0,60.0,3.0,0.0
3590,68.0,0.0,60.0,2.0,0.0
3591,72.0,0.0,30.0,5.0,0.0
3592,63.0,0.0,60.0,7.0,0.0
3593,72.0,30.0,30.0,0.0,0.0
3594,63.0,29.0,60.0,1.0,0.0
3595,70.0,0.0,30.0,5.0,0.0
3596,70.0,0.0,30.0,0.0,0.0
3597,39.0,0.0,60.0,6.0,0.0
3598,68.0,0.0,150.0,1.0,0.0
3599,39.0,0.0,60.0,8.0,0.0
3600,39.0,30.0,60.0,3.0,0.0
3601,72.0,30.0,30.0,5.0,0.0
3602,68.0,29.0,150.0,7.0,0.0
3603,27.0,0.0,60.0,4.0,0.0
3604,72.0,0.0,30.0,0.0,0.0
3605,66.0,0.0,60.0,2.0,0.0
3606,68.0,0.0,30.0,5.0,0.0
3607,68.0,0.0,30.0,0.0,0.0
3608,70.0,30.0,30.0,5.0,0.0
3609,30.0,0.0,60.0,4.0,0.0
3610,42.0,0.0,60.0,6.0,0.0
3611,70.0,0.0,30.0,0.0,0.0
3612,63.0,0.0,60.0,2.0,0.0
3613,42.0,0.0,60.0,3.0,0.0
3614,42.0,0.0,60.0,8.0,0.0
3615,72.0,0.0,30.0,5.0,0.0
3616,71.0,31.0,30.0,0.0,0.0
3617,73.0,29.0,60.0,0.0,0.0
3618,73.0,0.0,60.0,5.0,0.0
3619,41.0,0.0,60.0,8.0,0.0
3620,29.0,1.0,60.0,4.0,0.0
3621,41.0,0.0,60.0,6.0,0.0
3622,41.0,0.0,60.0,3.0,0.0
3623,66.0,0.0,30.0,1.0,0.0
3624,66.0,0.0,30.0,7.0,0.0
3625,37.0,0.0,60.0,6.0,0.0
3626,68.0,0.0,60.0,5.0,0.0
3627,37.0,1.0,60.0,8.0,0.0
3628,25.0,0.0,60.0,4.0,0.0
3629,68.0,29.0,60.0,0.0,0.0
3630,65.0,0.0,30.0,1.0,0.0
3631,65.0,30.0,30.0,7.0,0.0
3632,37.0,0.0,60.0,3.0,0.0
3633,68.0,0.0,60.0,2.0,0.0
3634,63.0,0.0,30.0,7.0,0.0
3635,63.0,0.0,30.0,1.0,0.0
3636,65.0,0.0,30.0,7.0,0.0
3637,47.0,0.0,180.0,3.0,0.0
3638,65.0,30.0,30.0,1.0,0.0
3639,56.0,0.0,60.0,2.0,0.0
3640,73.0,29.0,150.0,0.0,0.0
3641,73.0,0.0,30.0,5.0,0.0
3642,47.0,0.0,180.0,6.0,0.0
3643,47.0,0.0,180.0,8.0,0.0
3644,35.0,0.0,180.0,4.0,0.0
3645,61.0,0.0,30.0,1.0,0.0
3646,77.0,30.0,30.0,5.0,0.0
3647,61.0,0.0,30.0,7.0,0.0
3648,78.0,0.0,30.0,5.0,0.0
3649,63.0,30.0,30.0,1.0,0.0
3650,68.0,30.0,60.0,2.0,0.0
3651,63.0,0.0,30.0,7.0,0.0
3652,80.0,0.0,30.0,5.0,0.0
3653,65.0,0.0,30.0,1.0,0.0
3654,65.0,0.0,30.0,7.0,0.0
3655,66.0,29.0,60.0,1.0,0.0
3656,73.0,1.0,30.0,5.0,0.0
3657,66.0,0.0,60.0,7.0,0.0
3658,71.0,1.0,30.0,5.0,0.0
3659,71.0,0.0,30.0,0.0,0.0
3660,34.0,0.0,30.0,4.0,0.0
3661,73.0,30.0,30.0,5.0,0.0
3662,61.0,0.0,60.0,2.0,0.0
3663,61.0,0.0,60.0,7.0,0.0
3664,46.0,0.0,30.0,3.0,0.0
3665,61.0,29.0,60.0,1.0,0.0
3666,73.0,0.0,30.0,0.0,0.0
3667,46.0,0.0,30.0,6.0,0.0
3668,46.0,0.0,30.0,8.0,0.0
3669,44.0,0.0,30.0,3.0,0.0
3670,32.0,0.0,30.0,4.0,0.0
3671,75.0,0.0,30.0,5.0,0.0
3672,75.0,0.0,30.0,0.0,0.0
3673,44.0,0.0,30.0,8.0,0.0
3674,44.0,1.0,30.0,6.0,0.0
3675,46.0,30.0,60.0,8.0,0.0
3676,46.0,0.0,60.0,6.0,0.0
3677,46.0,0.0,60.0,3.0,0.0
3678,73.0,0.0,30.0,0.0,0.0
3679,66.0,0.0,60.0,2.0,0.0
3680,66.0,29.0,150.0,7.0,0.0
3681,34.0,0.0,60.0,4.0,0.0
3682,73.0,30.0,30.0,5.0,0.0
3683,66.0,0.0,150.0,1.0,0.0
3684,76.0,0.0,30.0,0.0,0.0
3685,76.0,0.0,30.0,5.0,0.0
3686,42.0,0.0,60.0,8.0,0.0
3687,42.0,0.0,60.0,6.0,0.0
3688,42.0,0.0,60.0,3.0,0.0
3689,30.0,0.0,60.0,4.0,0.0
3690,75.0,30.0,30.0,0.0,0.0
3691,58.0,0.0,60.0,2.0,0.0
3692,75.0,0.0,30.0,5.0,0.0
3693,73.0,31.0,30.0,0.0,0.0
3694,73.0,0.0,30.0,5.0,0.0
3695,27.0,0.0,60.0,4.0,0.0
3696,39.0,0.0,60.0,6.0,0.0
3697,39.0,0.0,60.0,3.0,0.0
3698,59.0,0.0,60.0,2.0,0.0
3699,39.0,1.0,60.0,8.0,0.0
3700,75.0,0.0,60.0,5.0,0.0
3701,75.0,29.0,60.0,0.0,0.0
3702,64.0,0.0,30.0,1.0,0.0
3703,64.0,0.0,30.0,7.0,0.0
3704,63.0,30.0,30.0,1.0,0.0
3705,63.0,29.0,60.0,0.0,0.0
3706,30.0,0.0,60.0,4.0,0.0
3707,42.0,0.0,60.0,6.0,0.0
3708,63.0,0.0,60.0,5.0,0.0
3709,42.0,0.0,60.0,8.0,0.0
3710,42.0,1.0,60.0,3.0,0.0
3711,60.0,0.0,120.0,2.0,0.0
3712,63.0,0.0,30.0,7.0,0.0
3713,64.0,0.0,30.0,7.0,0.0
3714,64.0,0.0,30.0,1.0,0.0
3715,66.0,30.0,30.0,7.0,0.0
3716,33.0,0.0,60.0,4.0,0.0
3717,75.0,29.0,150.0,0.0,0.0
3718,45.0,0.0,60.0,8.0,0.0
3719,75.0,0.0,150.0,5.0,0.0
3720,66.0,0.0,30.0,1.0,0.0
3721,45.0,0.0,60.0,6.0,0.0
3722,45.0,0.0,60.0,3.0,0.0
3723,68.0,0.0,30.0,7.0,0.0
3724,68.0,30.0,30.0,1.0,0.0
3725,69.0,0.0,30.0,7.0,0.0
3726,37.0,30.0,60.0,3.0,0.0
3727,37.0,0.0,60.0,8.0,0.0
3728,25.0,0.0,60.0,4.0,0.0
3729,37.0,0.0,60.0,6.0,0.0
3730,61.0,0.0,60.0,2.0,0.0
3731,69.0,30.0,30.0,1.0,0.0
3732,66.0,0.0,30.0,7.0,0.0
3733,66.0,0.0,30.0,1.0,0.0
3734,36.0,0.0,60.0,3.0,0.0
3735,68.0,0.0,30.0,1.0,0.0
3736,36.0,30.0,60.0,6.0,0.0
3737,63.0,0.0,60.0,2.0,0.0
3738,24.0,0.0,60.0,4.0,0.0
3739,36.0,0.0,60.0,8.0,0.0
3740,68.0,1.0,30.0,7.0,0.0
3741,69.0,0.0,30.0,7.0,0.0
3742,73.0,0.0,30.0,5.0,0.0
3743,69.0,0.0,30.0,1.0,0.0
3744,73.0,0.0,30.0,0.0,0.0
3745,68.0,0.0,30.0,1.0,0.0
3746,51.0,0.0,60.0,2.0,0.0
3747,44.0,0.0,60.0,3.0,0.0
3748,72.0,0.0,30.0,0.0,0.0
3749,32.0,0.0,60.0,4.0,0.0
3750,68.0,30.0,30.0,7.0,0.0
3751,44.0,0.0,60.0,6.0,0.0
3752,44.0,0.0,60.0,8.0,0.0
3753,72.0,0.0,30.0,5.0,0.0
3754,66.0,0.0,30.0,7.0,0.0
3755,70.0,30.0,30.0,0.0,0.0
3756,70.0,0.0,30.0,5.0,0.0
3757,66.0,0.0,30.0,1.0,0.0
3758,52.0,0.0,60.0,2.0,0.0
3759,68.0,0.0,30.0,0.0,0.0
3760,37.0,0.0,60.0,8.0,0.0
3761,25.0,0.0,60.0,4.0,0.0
3762,37.0,0.0,60.0,3.0,0.0
3763,37.0,30.0,60.0,6.0,0.0
3764,68.0,0.0,30.0,5.0,0.0
3765,64.0,0.0,30.0,1.0,0.0
3766,64.0,30.0,30.0,7.0,0.0
3767,63.0,0.0,30.0,7.0,0.0
3768,66.0,0.0,30.0,0.0,0.0
3769,66.0,0.0,30.0,5.0,0.0
3770,63.0,0.0,30.0,1.0,0.0
3771,33.0,0.0,60.0,4.0,0.0
3772,61.0,0.0,30.0,1.0,0.0
3773,45.0,0.0,60.0,8.0,0.0
3774,54.0,0.0,60.0,2.0,0.0
3775,64.0,0.0,30.0,0.0,0.0
3776,61.0,30.0,30.0,7.0,0.0
3777,64.0,0.0,30.0,5.0,0.0
3778,45.0,0.0,60.0,6.0,0.0
3779,45.0,0.0,60.0,3.0,0.0
3780,60.0,60.0,30.0,1.0,0.0
3781,60.0,0.0,30.0,7.0,0.0
3782,63.0,0.0,30.0,0.0,0.0
3783,63.0,0.0,30.0,5.0,0.0
3784,61.0,0.0,60.0,1.0,0.0
3785,44.0,30.0,60.0,3.0,0.0
3786,32.0,0.0,60.0,4.0,0.0
3787,56.0,0.0,60.0,2.0,0.0
3788,64.0,30.0,90.0,0.0,0.0
3789,61.0,0.0,60.0,7.0,0.0
3790,44.0,0.0,60.0,6.0,0.0
3791,44.0,0.0,60.0,8.0,0.0
3792,64.0,0.0,90.0,5.0,0.0
3793,42.0,0.0,60.0,6.0,0.0
3794,42.0,60.0,60.0,3.0,0.0
3795,42.0,0.0,60.0,8.0,0.0
3796,73.0,0.0,120.0,7.0,0.0
3797,73.0,0.0,120.0,1.0,0.0
3798,57.0,0.0,60.0,2.0,0.0
3799,30.0,0.0,60.0,4.0,0.0
3800,66.0,0.0,30.0,0.0,0.0
3801,66.0,0.0,30.0,5.0,0.0
3802,44.0,0.0,60.0,6.0,0.0
3803,51.0,0.0,60.0,2.0,0.0
3804,63.0,0.0,90.0,5.0,0.0
3805,63.0,30.0,90.0,0.0,0.0
3806,44.0,30.0,60.0,8.0,0.0
3807,44.0,0.0,60.0,3.0,0.0
3808,32.0,0.0,60.0,4.0,0.0
3809,32.0,0.0,60.0,6.0,0.0
3810,72.0,0.0,60.0,7.0,0.0
3811,32.0,0.0,60.0,8.0,0.0
3812,72.0,0.0,60.0,1.0,0.0
3813,32.0,0.0,60.0,3.0,0.0
3814,20.0,0.0,60.0,4.0,0.0
3815,56.0,0.0,60.0,2.0,0.0
3816,61.0,0.0,30.0,5.0,0.0
3817,61.0,30.0,30.0,0.0,0.0
3818,61.0,0.0,120.0,0.0,0.0
3819,25.0,0.0,60.0,4.0,0.0
3820,73.0,0.0,120.0,1.0,0.0
3821,37.0,0.0,60.0,6.0,0.0
3822,61.0,30.0,30.0,5.0,0.0
3823,37.0,0.0,60.0,3.0,0.0
3824,52.0,30.0,120.0,2.0,0.0
3825,37.0,0.0,60.0,8.0,0.0
3826,73.0,0.0,120.0,7.0,0.0
3827,73.0,30.0,30.0,5.0,0.0
3828,37.0,0.0,60.0,4.0,0.0
3829,72.0,30.0,30.0,5.0,0.0
3830,40.0,0.0,60.0,8.0,0.0
3831,49.0,0.0,60.0,3.0,0.0
3832,70.0,0.0,30.0,5.0,0.0
3833,44.0,0.0,30.0,8.0,0.0
3834,36.0,0.0,60.0,4.0,0.0
3835,48.0,0.0,60.0,3.0,0.0
3836,68.0,30.0,30.0,5.0,0.0
3837,48.0,0.0,30.0,8.0,0.0
3838,57.0,0.0,30.0,7.0,0.0
3839,63.0,0.0,30.0,5.0,0.0
3840,66.0,30.0,30.0,5.0,0.0
3841,61.0,0.0,30.0,5.0,0.0
3842,44.0,30.0,60.0,3.0,0.0
3843,56.0,0.0,30.0,7.0,0.0
3844,32.0,0.0,60.0,4.0,0.0
3845,49.0,30.0,30.0,8.0,0.0
3846,64.0,0.0,30.0,5.0,0.0
3847,54.0,0.0,30.0,7.0,0.0
3848,63.0,0.0,30.0,5.0,0.0
3849,51.0,0.0,30.0,8.0,0.0
3850,60.0,0.0,30.0,5.0,0.0
3851,61.0,30.0,30.0,5.0,0.0
3852,52.0,0.0,30.0,7.0,0.0
3853,37.0,0.0,60.0,4.0,0.0
3854,56.0,0.0,840.0,2.0,0.0
3855,56.0,0.0,840.0,0.0,0.0
3856,49.0,0.0,60.0,3.0,0.0
3857,44.0,0.0,60.0,8.0,0.0
3858,56.0,29.0,840.0,1.0,0.0
3859,64.0,30.0,30.0,5.0,0.0
3860,68.0,0.0,30.0,5.0,0.0
3861,61.0,30.0,30.0,7.0,0.0
3862,73.0,30.0,30.0,5.0,0.0
3863,63.0,30.0,30.0,5.0,0.0
3864,54.0,0.0,30.0,7.0,0.0
3865,66.0,30.0,30.0,5.0,0.0
3866,68.0,0.0,30.0,5.0,0.0
3867,63.0,30.0,30.0,7.0,0.0
3868,72.0,30.0,30.0,5.0,0.0
3869,73.0,0.0,30.0,5.0,0.0
3870,52.0,30.0,30.0,7.0,0.0
3871,68.0,30.0,30.0,5.0,0.0
3872,61.0,0.0,30.0,7.0,0.0
3873,64.0,30.0,30.0,5.0,0.0
3874,61.0,30.0,30.0,5.0,0.0
3875,51.0,0.0,30.0,7.0,0.0
3876,60.0,30.0,30.0,5.0,0.0
3877,63.0,30.0,30.0,5.0,0.0
3878,66.0,0.0,30.0,5.0,0.0
3879,60.0,30.0,30.0,7.0,0.0
3880,68.0,30.0,30.0,5.0,0.0
3881,52.0,30.0,30.0,7.0,0.0
3882,61.0,0.0,30.0,5.0,0.0
3883,64.0,30.0,30.0,5.0,0.0
3884,49.0,0.0,60.0,8.0,0.0
3885,49.0,0.0,60.0,3.0,0.0
3886,37.0,30.0,60.0,4.0,0.0
3887,61.0,30.0,30.0,7.0,0.0
3888,68.0,0.0,30.0,5.0,0.0
3889,73.0,0.0,30.0,5.0,0.0
3890,63.0,30.0,30.0,5.0,0.0
3891,36.0,0.0,60.0,4.0,0.0
3892,48.0,0.0,60.0,3.0,0.0
3893,48.0,0.0,60.0,8.0,0.0
3894,56.0,0.0,30.0,7.0,0.0
3895,66.0,30.0,30.0,5.0,0.0
3896,44.0,0.0,60.0,3.0,0.0
3897,44.0,0.0,60.0,8.0,0.0
3898,68.0,30.0,30.0,5.0,0.0
3899,32.0,0.0,60.0,4.0,0.0
3900,63.0,0.0,30.0,7.0,0.0
3901,72.0,30.0,30.0,5.0,0.0
3902,73.0,30.0,30.0,5.0,0.0
3903,49.0,30.0,60.0,3.0,0.0
3904,49.0,0.0,60.0,8.0,0.0
3905,64.0,0.0,30.0,7.0,0.0
3906,37.0,0.0,60.0,4.0,0.0
3907,68.0,0.0,30.0,5.0,0.0
3908,37.0,30.0,30.0,3.0,0.0
3909,25.0,0.0,30.0,4.0,0.0
3910,56.0,0.0,60.0,8.0,0.0
3911,61.0,0.0,30.0,7.0,0.0
3912,64.0,0.0,30.0,5.0,0.0
3913,61.0,0.0,30.0,5.0,0.0
3914,39.0,0.0,30.0,3.0,0.0
3915,27.0,1.0,30.0,4.0,0.0
3916,40.0,30.0,60.0,3.0,0.0
3917,61.0,30.0,30.0,8.0,0.0
3918,28.0,0.0,60.0,4.0,0.0
3919,49.0,0.0,30.0,6.0,0.0
3920,71.0,0.0,30.0,7.0,0.0
3921,68.0,0.0,30.0,7.0,0.0
3922,62.0,0.0,30.0,5.0,0.0
3923,53.0,0.0,30.0,6.0,0.0
3924,66.0,0.0,30.0,7.0,0.0
3925,54.0,0.0,30.0,6.0,0.0
3926,25.0,0.0,60.0,4.0,0.0
3927,69.0,30.0,30.0,7.0,0.0
3928,61.0,0.0,30.0,5.0,0.0
3929,37.0,0.0,60.0,3.0,0.0
3930,65.0,0.0,30.0,7.0,0.0
3931,56.0,0.0,30.0,6.0,0.0
3932,68.0,0.0,30.0,7.0,0.0
3933,59.0,30.0,30.0,5.0,0.0
3934,42.0,0.0,60.0,3.0,0.0
3935,49.0,0.0,840.0,2.0,0.0
3936,30.0,0.0,60.0,4.0,0.0
3937,57.0,0.0,30.0,5.0,0.0
3938,66.0,30.0,30.0,7.0,0.0
3939,49.0,0.0,60.0,6.0,0.0
3940,61.0,0.0,840.0,1.0,0.0
3941,61.0,29.0,840.0,0.0,0.0
3942,69.0,30.0,30.0,7.0,0.0
3943,66.0,0.0,30.0,5.0,0.0
3944,73.0,30.0,30.0,7.0,0.0
3945,78.0,30.0,30.0,7.0,0.0
3946,68.0,0.0,30.0,7.0,0.0
3947,59.0,30.0,30.0,5.0,0.0
3948,71.0,30.0,30.0,7.0,0.0
3949,73.0,0.0,30.0,7.0,0.0
3950,68.0,30.0,30.0,5.0,0.0
3951,77.0,30.0,30.0,7.0,0.0
3952,57.0,30.0,30.0,5.0,0.0
3953,78.0,0.0,30.0,7.0,0.0
3954,73.0,30.0,30.0,7.0,0.0
3955,66.0,0.0,30.0,5.0,0.0
3956,69.0,30.0,30.0,7.0,0.0
3957,66.0,30.0,30.0,7.0,0.0
3958,65.0,0.0,30.0,7.0,0.0
3959,56.0,30.0,30.0,5.0,0.0
3960,68.0,30.0,30.0,7.0,0.0
3961,71.0,0.0,30.0,7.0,0.0
3962,65.0,30.0,30.0,5.0,0.0
3963,73.0,30.0,30.0,7.0,0.0
3964,66.0,0.0,30.0,7.0,0.0
3965,57.0,30.0,30.0,5.0,0.0
3966,69.0,30.0,30.0,7.0,0.0
3967,73.0,30.0,30.0,7.0,0.0
3968,66.0,0.0,30.0,5.0,0.0
3969,42.0,30.0,60.0,4.0,0.0
3970,54.0,0.0,60.0,3.0,0.0
3971,54.0,0.0,60.0,6.0,0.0
3972,78.0,0.0,30.0,7.0,0.0
3973,41.0,0.0,60.0,4.0,0.0
3974,53.0,0.0,60.0,3.0,0.0
3975,61.0,0.0,30.0,5.0,0.0
3976,68.0,30.0,30.0,7.0,0.0
3977,53.0,0.0,60.0,6.0,0.0
3978,71.0,30.0,30.0,7.0,0.0
3979,49.0,0.0,60.0,6.0,0.0
3980,37.0,0.0,60.0,4.0,0.0
3981,68.0,30.0,30.0,5.0,0.0
3982,49.0,0.0,60.0,3.0,0.0
3983,73.0,0.0,30.0,7.0,0.0
3984,77.0,30.0,30.0,7.0,0.0
3985,54.0,0.0,60.0,6.0,0.0
3986,42.0,0.0,60.0,4.0,0.0
3987,78.0,0.0,30.0,7.0,0.0
3988,54.0,30.0,60.0,3.0,0.0
3989,69.0,30.0,30.0,5.0,0.0
3990,73.0,0.0,30.0,7.0,0.0
3991,42.0,0.0,30.0,3.0,0.0
3992,42.0,0.0,30.0,6.0,0.0
3993,66.0,0.0,30.0,5.0,0.0
3994,69.0,30.0,30.0,7.0,0.0
3995,30.0,0.0,30.0,4.0,0.0
3996,44.0,0.0,30.0,6.0,0.0
3997,32.0,0.0,30.0,4.0,0.0
3998,44.0,0.0,30.0,3.0,0.0
3999,66.0,1.0,30.0,7.0,0.0
4000,33.0,0.0,60.0,4.0,0.0
4001,45.0,0.0,60.0,3.0,0.0
4002,54.0,0.0,60.0,7.0,0.0
4003,45.0,0.0,60.0,6.0,0.0
4004,54.0,30.0,30.0,8.0,0.0
4005,52.0,0.0,30.0,8.0,0.0
4006,61.0,30.0,30.0,5.0,0.0
4007,42.0,30.0,60.0,3.0,0.0
4008,51.0,0.0,30.0,8.0,0.0
4009,42.0,0.0,60.0,6.0,0.0
4010,69.0,0.0,120.0,7.0,0.0
4011,30.0,0.0,60.0,4.0,0.0
4012,59.0,30.0,30.0,5.0,0.0
4013,61.0,0.0,30.0,5.0,0.0
4014,49.0,0.0,30.0,8.0,0.0
4015,47.0,0.0,60.0,3.0,0.0
4016,63.0,30.0,30.0,5.0,0.0
4017,47.0,0.0,60.0,6.0,0.0
4018,47.0,30.0,60.0,8.0,0.0
4019,35.0,0.0,60.0,4.0,0.0
4020,61.0,0.0,30.0,5.0,0.0
4021,57.0,0.0,30.0,2.0,0.0
4022,66.0,0.0,30.0,0.0,0.0
4023,63.0,29.0,30.0,1.0,0.0
4024,63.0,1.0,30.0,5.0,0.0
4025,54.0,0.0,60.0,6.0,0.0
4026,59.0,0.0,60.0,7.0,0.0
4027,56.0,0.0,30.0,2.0,0.0
4028,64.0,0.0,30.0,0.0,0.0
4029,61.0,29.0,30.0,1.0,0.0
4030,64.0,1.0,30.0,5.0,0.0
4031,54.0,1.0,60.0,6.0,0.0
4032,54.0,0.0,60.0,2.0,0.0
4033,63.0,29.0,60.0,1.0,0.0
4034,69.0,30.0,180.0,7.0,0.0
4035,66.0,0.0,60.0,0.0,0.0
4036,63.0,30.0,30.0,5.0,0.0
4037,64.0,0.0,30.0,5.0,0.0
4038,47.0,0.0,60.0,6.0,0.0
4039,66.0,30.0,30.0,5.0,0.0
4040,23.0,0.0,60.0,4.0,0.0
4041,35.0,0.0,60.0,8.0,0.0
4042,35.0,30.0,60.0,3.0,0.0
4043,63.0,0.0,30.0,5.0,0.0
4044,52.0,30.0,30.0,6.0,0.0
4045,40.0,0.0,60.0,8.0,0.0
4046,28.0,0.0,60.0,4.0,0.0
4047,64.0,0.0,30.0,5.0,0.0
4048,40.0,0.0,60.0,3.0,0.0
4049,63.0,0.0,30.0,5.0,0.0
4050,54.0,0.0,30.0,6.0,0.0
4051,64.0,1.0,30.0,5.0,0.0
4052,59.0,0.0,30.0,2.0,0.0
4053,68.0,29.0,30.0,0.0,0.0
4054,56.0,0.0,30.0,6.0,0.0
4055,64.0,0.0,30.0,1.0,0.0
4056,59.0,0.0,60.0,7.0,0.0
4057,63.0,0.0,30.0,1.0,0.0
4058,69.0,0.0,30.0,0.0,0.0
4059,66.0,1.0,30.0,5.0,0.0
4060,54.0,0.0,30.0,6.0,0.0
4061,57.0,29.0,30.0,2.0,0.0
4062,52.0,0.0,60.0,7.0,0.0
4063,52.0,0.0,30.0,6.0,0.0
4064,68.0,0.0,60.0,0.0,0.0
4065,64.0,29.0,60.0,1.0,0.0
4066,59.0,0.0,60.0,2.0,0.0
4067,68.0,30.0,30.0,5.0,0.0
4068,66.0,1.0,30.0,5.0,0.0
4069,51.0,0.0,30.0,6.0,0.0
4070,52.0,0.0,30.0,6.0,0.0
4071,28.0,0.0,30.0,4.0,0.0
4072,40.0,0.0,30.0,3.0,0.0
4073,68.0,30.0,30.0,5.0,0.0
4074,40.0,0.0,30.0,8.0,0.0
4075,68.0,0.0,120.0,7.0,0.0
4076,30.0,0.0,30.0,4.0,0.0
4077,42.0,0.0,30.0,8.0,0.0
4078,49.0,0.0,30.0,6.0,0.0
4079,42.0,0.0,30.0,3.0,0.0
4080,70.0,30.0,30.0,5.0,0.0
4081,44.0,0.0,60.0,8.0,0.0
4082,44.0,0.0,60.0,3.0,0.0
4083,32.0,0.0,60.0,4.0,0.0
4084,56.0,0.0,60.0,6.0,0.0
4085,72.0,30.0,30.0,5.0,0.0
4086,70.0,30.0,30.0,5.0,0.0
4087,72.0,1.0,30.0,5.0,0.0
4088,60.0,0.0,30.0,2.0,0.0
4089,56.0,0.0,60.0,7.0,0.0
4090,63.0,0.0,60.0,6.0,0.0
4091,68.0,29.0,30.0,0.0,0.0
4092,63.0,0.0,30.0,1.0,0.0
4093,73.0,1.0,30.0,5.0,0.0
4094,64.0,0.0,30.0,1.0,0.0
4095,58.0,0.0,30.0,2.0,0.0
4096,70.0,29.0,30.0,0.0,0.0
4097,56.0,0.0,60.0,2.0,0.0
4098,72.0,30.0,30.0,5.0,0.0
4099,66.0,0.0,180.0,7.0,0.0
4100,72.0,29.0,60.0,0.0,0.0
4101,66.0,0.0,60.0,1.0,0.0
4102,63.0,1.0,60.0,6.0,0.0
4103,73.0,0.0,30.0,5.0,0.0
4104,56.0,30.0,60.0,6.0,0.0
4105,20.0,0.0,60.0,4.0,0.0
4106,75.0,30.0,30.0,5.0,0.0
4107,32.0,0.0,60.0,3.0,0.0
4108,32.0,0.0,60.0,8.0,0.0
4109,72.0,0.0,30.0,5.0,0.0
4110,37.0,0.0,60.0,8.0,0.0
4111,73.0,30.0,30.0,5.0,0.0
4112,25.0,0.0,60.0,4.0,0.0
4113,61.0,0.0,30.0,6.0,0.0
4114,37.0,30.0,60.0,3.0,0.0
4115,66.0,0.0,30.0,5.0,0.0
4116,60.0,0.0,30.0,6.0,0.0
4117,73.0,29.0,30.0,0.0,0.0
4118,61.0,0.0,60.0,6.0,0.0
4119,64.0,0.0,30.0,1.0,0.0
4120,56.0,0.0,30.0,2.0,0.0
4121,56.0,1.0,60.0,7.0,0.0
4122,64.0,1.0,30.0,5.0,0.0
4123,54.0,0.0,30.0,2.0,0.0
4124,72.0,0.0,30.0,0.0,0.0
4125,63.0,0.0,30.0,5.0,0.0
4126,66.0,29.0,30.0,1.0,0.0
4127,49.0,30.0,30.0,7.0,0.0
4128,64.0,0.0,30.0,5.0,0.0
4129,49.0,0.0,60.0,6.0,0.0
4130,68.0,0.0,60.0,1.0,0.0
4131,52.0,29.0,60.0,2.0,0.0
4132,73.0,0.0,60.0,0.0,0.0
4133,52.0,1.0,30.0,7.0,0.0
4134,68.0,0.0,30.0,5.0,0.0
4135,58.0,0.0,60.0,6.0,0.0
4136,22.0,0.0,60.0,4.0,0.0
4137,34.0,30.0,60.0,3.0,0.0
4138,34.0,0.0,60.0,8.0,0.0
4139,73.0,0.0,120.0,5.0,0.0
4140,51.0,30.0,30.0,7.0,0.0
4141,53.0,0.0,30.0,7.0,0.0
4142,27.0,0.0,60.0,4.0,0.0
4143,51.0,30.0,60.0,6.0,0.0
4144,55.0,30.0,30.0,7.0,0.0
4145,39.0,0.0,60.0,3.0,0.0
4146,39.0,0.0,60.0,8.0,0.0
4147,53.0,0.0,30.0,7.0,0.0
4148,70.0,0.0,30.0,1.0,0.0
4149,46.0,0.0,60.0,8.0,0.0
4150,55.0,1.0,30.0,7.0,0.0
4151,73.0,29.0,30.0,0.0,0.0
4152,63.0,0.0,60.0,5.0,0.0
4153,63.0,0.0,60.0,2.0,0.0
4154,68.0,29.0,30.0,1.0,0.0
4155,71.0,0.0,30.0,0.0,0.0
4156,56.0,1.0,30.0,7.0,0.0
4157,58.0,0.0,60.0,2.0,0.0
4158,73.0,29.0,60.0,0.0,0.0
4159,73.0,0.0,180.0,5.0,0.0
4160,70.0,0.0,60.0,1.0,0.0
4161,46.0,1.0,60.0,8.0,0.0
4162,55.0,30.0,30.0,7.0,0.0
4163,56.0,0.0,30.0,7.0,0.0
4164,39.0,0.0,60.0,6.0,0.0
4165,27.0,0.0,60.0,4.0,0.0
4166,39.0,0.0,60.0,8.0,0.0
4167,39.0,0.0,60.0,3.0,0.0
4168,58.0,30.0,30.0,7.0,0.0
4169,55.0,30.0,30.0,7.0,0.0
4170,44.0,0.0,60.0,6.0,0.0
4171,56.0,30.0,30.0,7.0,0.0
4172,44.0,0.0,30.0,8.0,0.0
4173,44.0,0.0,60.0,3.0,0.0
4174,32.0,0.0,60.0,4.0,0.0
4175,46.0,30.0,30.0,8.0,0.0
4176,55.0,0.0,30.0,7.0,0.0
4177,56.0,0.0,30.0,2.0,0.0
4178,47.0,1.0,30.0,8.0,0.0
4179,71.0,29.0,30.0,0.0,0.0
4180,56.0,0.0,30.0,7.0,0.0
4181,63.0,0.0,60.0,5.0,0.0
4182,63.0,0.0,30.0,1.0,0.0
4183,46.0,1.0,30.0,8.0,0.0
4184,70.0,29.0,30.0,0.0,0.0
4185,61.0,0.0,30.0,1.0,0.0
4186,55.0,0.0,30.0,2.0,0.0
4187,58.0,0.0,30.0,7.0,0.0
4188,56.0,29.0,60.0,2.0,0.0
4189,44.0,30.0,30.0,8.0,0.0
4190,59.0,0.0,60.0,1.0,0.0
4191,68.0,0.0,60.0,0.0,0.0
4192,59.0,0.0,30.0,7.0,0.0
4193,56.0,0.0,60.0,5.0,0.0
4194,42.0,1.0,30.0,8.0,0.0
4195,58.0,0.0,30.0,7.0,0.0
4196,71.0,30.0,120.0,5.0,0.0
4197,44.0,0.0,30.0,3.0,0.0
4198,44.0,0.0,30.0,8.0,0.0
4199,59.0,30.0,30.0,7.0,0.0
4200,32.0,0.0,30.0,4.0,0.0
4201,44.0,0.0,30.0,6.0,0.0
4202,45.0,30.0,30.0,6.0,0.0
4203,45.0,0.0,30.0,3.0,0.0
4204,33.0,0.0,30.0,4.0,0.0
4205,61.0,0.0,30.0,7.0,0.0
4206,40.0,0.0,30.0,8.0,0.0
4207,35.0,0.0,60.0,4.0,0.0
4208,47.0,0.0,60.0,3.0,0.0
4209,47.0,0.0,60.0,6.0,0.0
4210,47.0,0.0,60.0,8.0,0.0
4211,63.0,30.0,30.0,7.0,0.0
4212,61.0,0.0,30.0,7.0,0.0
4213,59.0,0.0,30.0,1.0,0.0
4214,54.0,0.0,30.0,2.0,0.0
4215,59.0,1.0,60.0,5.0,0.0
4216,69.0,29.0,30.0,0.0,0.0
4217,63.0,1.0,30.0,7.0,0.0
4218,54.0,0.0,60.0,8.0,0.0
4219,56.0,29.0,30.0,2.0,0.0
4220,64.0,0.0,30.0,7.0,0.0
4221,68.0,0.0,30.0,0.0,0.0
4222,61.0,0.0,30.0,1.0,0.0
4223,63.0,30.0,30.0,7.0,0.0
4224,66.0,0.0,60.0,0.0,0.0
4225,63.0,29.0,60.0,1.0,0.0
4226,69.0,30.0,180.0,5.0,0.0
4227,57.0,0.0,60.0,2.0,0.0
4228,54.0,1.0,60.0,8.0,0.0
4229,64.0,0.0,30.0,7.0,0.0
4230,35.0,0.0,60.0,3.0,0.0
4231,23.0,0.0,60.0,4.0,0.0
4232,66.0,30.0,30.0,7.0,0.0
4233,47.0,30.0,60.0,8.0,0.0
4234,35.0,0.0,60.0,6.0,0.0
4235,63.0,0.0,30.0,7.0,0.0
4236,28.0,0.0,60.0,4.0,0.0
4237,52.0,0.0,30.0,8.0,0.0
4238,64.0,30.0,30.0,7.0,0.0
4239,40.0,0.0,60.0,6.0,0.0
4240,40.0,0.0,60.0,3.0,0.0
4241,51.0,0.0,30.0,8.0,0.0
4242,57.0,0.0,30.0,7.0,0.0
4243,56.0,1.0,30.0,7.0,0.0
4244,59.0,1.0,60.0,5.0,0.0
4245,52.0,0.0,60.0,8.0,0.0
4246,56.0,0.0,30.0,2.0,0.0
4247,64.0,0.0,30.0,0.0,0.0
4248,59.0,29.0,30.0,1.0,0.0
4249,54.0,0.0,30.0,7.0,0.0
4250,57.0,0.0,30.0,2.0,0.0
4251,63.0,0.0,30.0,0.0,0.0
4252,57.0,29.0,30.0,1.0,0.0
4253,59.0,0.0,60.0,2.0,0.0
4254,40.0,1.0,60.0,8.0,0.0
4255,52.0,0.0,60.0,5.0,0.0
4256,56.0,30.0,30.0,7.0,0.0
4257,64.0,0.0,60.0,0.0,0.0
4258,56.0,29.0,60.0,1.0,0.0
4259,59.0,0.0,30.0,7.0,0.0
4260,68.0,0.0,60.0,5.0,0.0
4261,40.0,0.0,30.0,4.0,0.0
4262,64.0,30.0,120.0,7.0,0.0
4263,52.0,0.0,30.0,8.0,0.0
4264,52.0,30.0,30.0,3.0,0.0
4265,51.0,0.0,30.0,8.0,0.0
4266,51.0,0.0,30.0,3.0,0.0
4267,39.0,30.0,30.0,4.0,0.0
4268,49.0,0.0,60.0,8.0,0.0
4269,58.0,30.0,30.0,5.0,0.0
4270,49.0,0.0,60.0,3.0,0.0
4271,37.0,0.0,60.0,4.0,0.0
4272,59.0,0.0,30.0,5.0,0.0
4273,61.0,1.0,30.0,5.0,0.0
4274,61.0,0.0,30.0,2.0,0.0
4275,64.0,1.0,60.0,7.0,0.0
4276,61.0,0.0,30.0,0.0,0.0
4277,61.0,29.0,30.0,1.0,0.0
4278,59.0,29.0,30.0,1.0,0.0
4279,59.0,0.0,30.0,0.0,0.0
4280,59.0,0.0,30.0,2.0,0.0
4281,64.0,0.0,30.0,5.0,0.0
4282,67.0,30.0,30.0,5.0,0.0
4283,61.0,1.0,60.0,7.0,0.0
4284,58.0,0.0,60.0,1.0,0.0
4285,58.0,29.0,60.0,2.0,0.0
4286,58.0,0.0,60.0,0.0,0.0
4287,76.0,0.0,30.0,5.0,0.0
4288,70.0,0.0,120.0,7.0,0.0
4289,34.0,30.0,60.0,4.0,0.0
4290,75.0,30.0,30.0,5.0,0.0
4291,46.0,0.0,60.0,3.0,0.0
4292,43.0,0.0,60.0,8.0,0.0
4293,73.0,0.0,30.0,5.0,0.0
4294,47.0,30.0,60.0,8.0,0.0
4295,47.0,0.0,60.0,3.0,0.0
4296,35.0,0.0,60.0,4.0,0.0
4297,59.0,30.0,30.0,5.0,0.0
4298,61.0,0.0,30.0,5.0,0.0
4299,59.0,29.0,30.0,1.0,0.0
4300,59.0,0.0,30.0,2.0,0.0
4301,63.0,1.0,30.0,5.0,0.0
4302,59.0,0.0,30.0,0.0,0.0
4303,63.0,1.0,60.0,7.0,0.0
4304,58.0,29.0,30.0,0.0,0.0
4305,67.0,0.0,30.0,5.0,0.0
4306,58.0,0.0,30.0,2.0,0.0
4307,58.0,0.0,30.0,1.0,0.0
4308,56.0,29.0,60.0,2.0,0.0
4309,59.0,1.0,60.0,7.0,0.0
4310,68.0,30.0,30.0,5.0,0.0
4311,56.0,0.0,60.0,0.0,0.0
4312,56.0,0.0,60.0,1.0,0.0
4313,75.0,0.0,30.0,5.0,0.0
4314,41.0,30.0,60.0,8.0,0.0
4315,44.0,0.0,60.0,3.0,0.0
4316,68.0,30.0,120.0,7.0,0.0
4317,32.0,0.0,60.0,4.0,0.0
4318,73.0,30.0,30.0,5.0,0.0
4319,71.0,0.0,30.0,5.0,0.0
4320,34.0,0.0,60.0,4.0,0.0
4321,46.0,0.0,60.0,8.0,0.0
4322,61.0,30.0,30.0,5.0,0.0
4323,46.0,0.0,60.0,3.0,0.0
4324,63.0,0.0,30.0,5.0,0.0
4325,58.0,29.0,30.0,0.0,0.0
4326,58.0,0.0,30.0,2.0,0.0
4327,58.0,0.0,30.0,1.0,0.0
4328,61.0,1.0,60.0,7.0,0.0
4329,67.0,1.0,30.0,5.0,0.0
4330,68.0,0.0,30.0,5.0,0.0
4331,56.0,29.0,30.0,1.0,0.0
4332,56.0,0.0,30.0,2.0,0.0
4333,56.0,0.0,30.0,0.0,0.0
4334,55.0,0.0,60.0,2.0,0.0
4335,55.0,29.0,60.0,0.0,0.0
4336,58.0,1.0,60.0,7.0,0.0
4337,55.0,0.0,60.0,1.0,0.0
4338,70.0,30.0,30.0,5.0,0.0
4339,73.0,0.0,30.0,5.0,0.0
4340,67.0,0.0,60.0,7.0,0.0
4341,39.0,0.0,60.0,8.0,0.0
4342,55.0,0.0,60.0,2.0,0.0
4343,58.0,29.0,60.0,1.0,0.0
4344,27.0,1.0,60.0,4.0,0.0
4345,39.0,0.0,60.0,3.0,0.0
4346,71.0,30.0,30.0,5.0,0.0
4347,63.0,0.0,60.0,0.0,0.0
4348,70.0,0.0,30.0,5.0,0.0
4349,68.0,29.0,150.0,7.0,0.0
4350,63.0,0.0,60.0,2.0,0.0
4351,63.0,0.0,30.0,5.0,0.0
4352,32.0,1.0,60.0,4.0,0.0
4353,59.0,29.0,60.0,0.0,0.0
4354,44.0,0.0,30.0,8.0,0.0
4355,56.0,0.0,60.0,1.0,0.0
4356,44.0,0.0,60.0,3.0,0.0
4357,63.0,30.0,30.0,6.0,0.0
4358,67.0,0.0,30.0,5.0,0.0
4359,61.0,0.0,30.0,6.0,0.0
4360,51.0,0.0,30.0,8.0,0.0
4361,59.0,30.0,30.0,6.0,0.0
4362,32.0,0.0,60.0,3.0,0.0
4363,68.0,0.0,30.0,5.0,0.0
4364,53.0,0.0,30.0,8.0,0.0
4365,20.0,0.0,60.0,4.0,0.0
4366,55.0,0.0,30.0,8.0,0.0
4367,58.0,30.0,30.0,6.0,0.0
4368,70.0,0.0,30.0,5.0,0.0
4369,56.0,0.0,60.0,8.0,0.0
4370,44.0,30.0,60.0,3.0,0.0
4371,71.0,0.0,60.0,5.0,0.0
4372,32.0,0.0,60.0,4.0,0.0
4373,56.0,1.0,30.0,6.0,0.0
4374,58.0,0.0,30.0,6.0,0.0
4375,66.0,0.0,30.0,7.0,0.0
4376,35.0,0.0,60.0,4.0,0.0
4377,64.0,0.0,30.0,7.0,0.0
4378,44.0,0.0,60.0,8.0,0.0
4379,47.0,30.0,60.0,3.0,0.0
4380,56.0,30.0,30.0,6.0,0.0
4381,68.0,0.0,120.0,5.0,0.0
4382,63.0,0.0,30.0,7.0,0.0
4383,54.0,0.0,30.0,6.0,0.0
4384,61.0,0.0,30.0,1.0,0.0
4385,37.0,0.0,60.0,4.0,0.0
4386,61.0,29.0,30.0,2.0,0.0
4387,64.0,0.0,30.0,7.0,0.0
4388,61.0,0.0,30.0,0.0,0.0
4389,49.0,0.0,30.0,8.0,0.0
4390,52.0,1.0,30.0,6.0,0.0
4391,49.0,1.0,60.0,3.0,0.0
4392,63.0,29.0,30.0,0.0,0.0
4393,63.0,0.0,30.0,1.0,0.0
4394,63.0,0.0,30.0,2.0,0.0
4395,56.0,0.0,30.0,7.0,0.0
4396,48.0,0.0,30.0,8.0,0.0
4397,54.0,0.0,30.0,6.0,0.0
4398,52.0,1.0,30.0,6.0,0.0
4399,73.0,0.0,30.0,5.0,0.0
4400,64.0,0.0,30.0,1.0,0.0
4401,58.0,0.0,30.0,7.0,0.0
4402,49.0,0.0,60.0,8.0,0.0
4403,64.0,29.0,30.0,0.0,0.0
4404,64.0,0.0,30.0,2.0,0.0
4405,66.0,0.0,30.0,2.0,0.0
4406,66.0,29.0,30.0,0.0,0.0
4407,60.0,1.0,30.0,7.0,0.0
4408,51.0,0.0,30.0,6.0,0.0
4409,75.0,0.0,30.0,5.0,0.0
4410,66.0,0.0,30.0,1.0,0.0
4411,68.0,29.0,60.0,2.0,0.0
4412,68.0,0.0,60.0,1.0,0.0
4413,68.0,0.0,60.0,0.0,0.0
4414,61.0,0.0,30.0,7.0,0.0
4415,49.0,30.0,30.0,6.0,0.0
4416,76.0,0.0,60.0,5.0,0.0
4417,63.0,1.0,30.0,7.0,0.0
4418,48.0,0.0,30.0,6.0,0.0
4419,61.0,30.0,90.0,5.0,0.0
4420,73.0,0.0,60.0,1.0,0.0
4421,64.0,30.0,30.0,7.0,0.0
4422,73.0,29.0,60.0,0.0,0.0
4423,61.0,0.0,60.0,2.0,0.0
4424,49.0,0.0,60.0,6.0,0.0
4425,61.0,1.0,30.0,7.0,0.0
4426,54.0,0.0,30.0,7.0,0.0
4427,70.0,29.0,60.0,1.0,0.0
4428,54.0,0.0,60.0,3.0,0.0
4429,70.0,0.0,60.0,0.0,0.0
4430,42.0,0.0,60.0,4.0,0.0
4431,70.0,0.0,60.0,2.0,0.0
4432,54.0,1.0,60.0,6.0,0.0
4433,61.0,0.0,30.0,7.0,0.0
4434,59.0,0.0,30.0,5.0,0.0
4435,66.0,0.0,60.0,0.0,0.0
4436,42.0,0.0,60.0,8.0,0.0
4437,49.0,0.0,60.0,3.0,0.0
4438,37.0,0.0,60.0,4.0,0.0
4439,66.0,29.0,60.0,1.0,0.0
4440,49.0,1.0,60.0,6.0,0.0
4441,58.0,30.0,30.0,5.0,0.0
4442,66.0,0.0,60.0,2.0,0.0
4443,64.0,30.0,90.0,7.0,0.0
4444,56.0,0.0,30.0,5.0,0.0
4445,34.0,0.0,60.0,4.0,0.0
4446,54.0,0.0,60.0,5.0,0.0
4447,46.0,0.0,60.0,3.0,0.0
4448,46.0,0.0,60.0,8.0,0.0
4449,46.0,30.0,60.0,6.0,0.0
4450,61.0,0.0,30.0,7.0,0.0
4451,66.0,0.0,120.0,5.0,0.0
4452,58.0,30.0,30.0,7.0,0.0
4453,42.0,0.0,60.0,3.0,0.0
4454,30.0,0.0,60.0,4.0,0.0
4455,42.0,0.0,60.0,6.0,0.0
4456,49.0,0.0,60.0,8.0,0.0
4457,54.0,30.0,30.0,7.0,0.0
4458,47.0,1.0,30.0,8.0,0.0
4459,63.0,0.0,30.0,7.0,0.0
4460,59.0,0.0,30.0,0.0,0.0
4461,59.0,0.0,30.0,1.0,0.0
4462,47.0,0.0,60.0,6.0,0.0
4463,35.0,0.0,60.0,4.0,0.0
4464,47.0,0.0,60.0,3.0,0.0
4465,47.0,29.0,30.0,2.0,0.0
4466,54.0,0.0,30.0,7.0,0.0
4467,46.0,1.0,30.0,8.0,0.0
4468,61.0,0.0,30.0,0.0,0.0
4469,61.0,29.0,30.0,1.0,0.0
4470,49.0,0.0,30.0,2.0,0.0
4471,56.0,1.0,30.0,7.0,0.0
4472,51.0,0.0,30.0,2.0,0.0
4473,63.0,29.0,30.0,0.0,0.0
4474,71.0,0.0,30.0,5.0,0.0
4475,47.0,0.0,60.0,8.0,0.0
4476,63.0,0.0,30.0,1.0,0.0
4477,64.0,0.0,30.0,1.0,0.0
4478,58.0,0.0,30.0,7.0,0.0
4479,52.0,0.0,30.0,2.0,0.0
4480,64.0,29.0,30.0,0.0,0.0
4481,73.0,1.0,30.0,5.0,0.0
4482,47.0,0.0,30.0,6.0,0.0
4483,75.0,0.0,60.0,5.0,0.0
4484,59.0,30.0,30.0,7.0,0.0
4485,66.0,0.0,60.0,1.0,0.0
4486,54.0,0.0,60.0,2.0,0.0
4487,66.0,29.0,60.0,0.0,0.0
4488,46.0,1.0,30.0,6.0,0.0
4489,61.0,0.0,30.0,7.0,0.0
4490,71.0,0.0,60.0,0.0,0.0
4491,71.0,0.0,60.0,1.0,0.0
4492,59.0,30.0,90.0,5.0,0.0
4493,59.0,29.0,60.0,2.0,0.0
4494,47.0,0.0,60.0,6.0,0.0
4495,63.0,30.0,30.0,7.0,0.0
4496,59.0,1.0,30.0,7.0,0.0
4497,52.0,0.0,60.0,3.0,0.0
4498,68.0,0.0,60.0,1.0,0.0
4499,68.0,0.0,60.0,0.0,0.0
4500,40.0,1.0,60.0,4.0,0.0
4501,56.0,29.0,60.0,2.0,0.0
4502,52.0,0.0,30.0,7.0,0.0
4503,52.0,0.0,60.0,6.0,0.0
4504,59.0,0.0,30.0,7.0,0.0
4505,57.0,0.0,30.0,5.0,0.0
4506,47.0,1.0,60.0,3.0,0.0
4507,56.0,30.0,30.0,5.0,0.0
4508,35.0,0.0,60.0,4.0,0.0
4509,64.0,29.0,60.0,0.0,0.0
4510,62.0,30.0,90.0,7.0,0.0
4511,47.0,0.0,60.0,6.0,0.0
4512,40.0,0.0,60.0,8.0,0.0
4513,52.0,0.0,60.0,2.0,0.0
4514,64.0,0.0,60.0,1.0,0.0
4515,54.0,0.0,30.0,5.0,0.0
4516,32.0,0.0,60.0,4.0,0.0
4517,44.0,0.0,60.0,3.0,0.0
4518,44.0,0.0,60.0,6.0,0.0
4519,44.0,30.0,60.0,8.0,0.0
4520,52.0,0.0,60.0,5.0,0.0
4521,59.0,0.0,30.0,7.0,0.0
4522,28.0,0.0,60.0,4.0,0.0
4523,47.0,0.0,60.0,8.0,0.0
4524,64.0,30.0,90.0,5.0,0.0
4525,40.0,0.0,60.0,6.0,0.0
4526,40.0,30.0,60.0,3.0,0.0
4527,56.0,30.0,30.0,7.0,0.0
4528,52.0,0.0,30.0,7.0,0.0
4529,45.0,0.0,60.0,3.0,0.0
4530,45.0,0.0,30.0,8.0,0.0
4531,33.0,0.0,60.0,4.0,0.0
4532,61.0,0.0,60.0,7.0,0.0
4533,45.0,16.0,60.0,6.0,0.0
4534,66.0,0.0,30.0,5.0,0.0
4535,44.0,0.0,30.0,8.0,0.0
4536,64.0,0.0,60.0,0.0,0.0
4537,66.0,14.0,15.0,7.0,0.0
4538,49.0,0.0,60.0,6.0,0.0
4539,64.0,1.0,30.0,5.0,0.0
4540,45.0,1.0,60.0,8.0,0.0
4541,64.0,15.0,15.0,7.0,0.0
4542,63.0,0.0,30.0,5.0,0.0
4543,63.0,14.0,15.0,7.0,0.0
4544,64.0,29.0,15.0,7.0,0.0
4545,46.0,0.0,60.0,3.0,0.0
4546,66.0,29.0,60.0,0.0,0.0
4547,34.0,0.0,60.0,4.0,0.0
4548,66.0,30.0,30.0,7.0,0.0
4549,61.0,0.0,30.0,5.0,0.0
4550,46.0,0.0,60.0,6.0,0.0
4551,59.0,1.0,30.0,5.0,0.0
4552,61.0,0.0,30.0,7.0,0.0
4553,46.0,0.0,60.0,8.0,0.0
4554,42.0,1.0,60.0,6.0,0.0
4555,58.0,30.0,30.0,5.0,0.0
4556,61.0,29.0,60.0,1.0,0.0
4557,56.0,0.0,30.0,5.0,0.0
4558,63.0,15.0,60.0,1.0,0.0
4559,35.0,0.0,60.0,4.0,0.0
4560,54.0,0.0,30.0,5.0,0.0
4561,47.0,0.0,30.0,8.0,0.0
4562,47.0,0.0,60.0,3.0,0.0
4563,47.0,0.0,60.0,6.0,0.0
4564,63.0,30.0,30.0,7.0,0.0
4565,46.0,0.0,30.0,8.0,0.0
4566,68.0,1.0,30.0,5.0,0.0
4567,68.0,14.0,15.0,7.0,0.0
4568,51.0,0.0,60.0,6.0,0.0
4569,47.0,0.0,60.0,8.0,0.0
4570,66.0,0.0,60.0,0.0,0.0
4571,66.0,1.0,30.0,5.0,0.0
4572,66.0,15.0,15.0,7.0,0.0
4573,64.0,1.0,30.0,5.0,0.0
4574,64.0,14.0,15.0,7.0,0.0
4575,66.0,29.0,15.0,7.0,0.0
4576,68.0,30.0,30.0,7.0,0.0
4577,68.0,29.0,60.0,0.0,0.0
4578,63.0,0.0,30.0,5.0,0.0
4579,48.0,0.0,60.0,6.0,0.0
4580,48.0,1.0,60.0,3.0,0.0
4581,36.0,0.0,60.0,4.0,0.0
4582,61.0,0.0,30.0,5.0,0.0
4583,60.0,0.0,30.0,5.0,0.0
4584,44.0,0.0,60.0,6.0,0.0
4585,48.0,0.0,60.0,8.0,0.0
4586,63.0,30.0,30.0,7.0,0.0
4587,63.0,29.0,60.0,1.0,0.0
4588,58.0,1.0,30.0,5.0,0.0
4589,64.0,15.0,60.0,1.0,0.0
4590,37.0,0.0,60.0,8.0,0.0
4591,49.0,30.0,30.0,6.0,0.0
4592,49.0,0.0,60.0,3.0,0.0
4593,37.0,0.0,60.0,4.0,0.0
4594,64.0,0.0,30.0,7.0,0.0
4595,56.0,0.0,60.0,5.0,0.0
4596,48.0,1.0,30.0,6.0,0.0
4597,66.0,0.0,30.0,7.0,0.0
4598,64.0,1.0,30.0,7.0,0.0
4599,68.0,29.0,60.0,0.0,0.0
4600,69.0,14.0,15.0,5.0,0.0
4601,49.0,0.0,60.0,6.0,0.0
4602,49.0,1.0,60.0,8.0,0.0
4603,68.0,15.0,15.0,5.0,0.0
4604,63.0,0.0,30.0,7.0,0.0
4605,66.0,14.0,15.0,5.0,0.0
4606,68.0,0.0,15.0,5.0,0.0
4607,33.0,0.0,60.0,4.0,0.0
4608,69.0,29.0,60.0,0.0,0.0
4609,45.0,0.0,60.0,3.0,0.0
4610,69.0,30.0,30.0,5.0,0.0
4611,61.0,0.0,30.0,7.0,0.0
4612,45.0,1.0,60.0,8.0,0.0
4613,59.0,0.0,30.0,7.0,0.0
4614,57.0,30.0,30.0,7.0,0.0
4615,64.0,29.0,60.0,1.0,0.0
4616,49.0,0.0,60.0,8.0,0.0
4617,49.0,1.0,60.0,6.0,0.0
4618,64.0,0.0,30.0,5.0,0.0
4619,56.0,0.0,30.0,7.0,0.0
4620,39.0,0.0,60.0,8.0,0.0
4621,51.0,0.0,30.0,6.0,0.0
4622,54.0,0.0,30.0,7.0,0.0
4623,66.0,30.0,30.0,5.0,0.0
4624,66.0,15.0,60.0,1.0,0.0
4625,39.0,0.0,60.0,4.0,0.0
4626,51.0,0.0,60.0,3.0,0.0
4627,68.0,0.0,30.0,7.0,0.0
4628,49.0,1.0,30.0,6.0,0.0
4629,51.0,1.0,60.0,6.0,0.0
4630,71.0,14.0,15.0,5.0,0.0
4631,66.0,1.0,30.0,7.0,0.0
4632,51.0,0.0,60.0,8.0,0.0
4633,69.0,0.0,60.0,0.0,0.0
4634,69.0,15.0,15.0,5.0,0.0
4635,64.0,0.0,30.0,7.0,0.0
4636,68.0,14.0,15.0,5.0,0.0
4637,69.0,29.0,15.0,5.0,0.0
4638,47.0,0.0,60.0,8.0,0.0
4639,35.0,0.0,60.0,4.0,0.0
4640,63.0,30.0,30.0,7.0,0.0
4641,47.0,1.0,60.0,3.0,0.0
4642,71.0,29.0,60.0,0.0,0.0
4643,71.0,0.0,30.0,5.0,0.0
4644,61.0,0.0,30.0,7.0,0.0
4645,66.0,29.0,60.0,1.0,0.0
4646,66.0,30.0,30.0,5.0,0.0
4647,51.0,0.0,60.0,8.0,0.0
4648,59.0,0.0,30.0,7.0,0.0
4649,51.0,0.0,60.0,6.0,0.0
4650,57.0,1.0,30.0,7.0,0.0
4651,40.0,0.0,60.0,4.0,0.0
4652,52.0,29.0,30.0,2.0,0.0
4653,52.0,0.0,30.0,0.0,0.0
4654,68.0,0.0,60.0,1.0,0.0
4655,40.0,0.0,60.0,8.0,0.0
4656,52.0,0.0,60.0,3.0,0.0
4657,52.0,1.0,30.0,6.0,0.0
4658,68.0,0.0,30.0,5.0,0.0
4659,56.0,0.0,60.0,7.0,0.0
4660,54.0,29.0,30.0,0.0,0.0
4661,51.0,1.0,30.0,6.0,0.0
4662,71.0,0.0,30.0,5.0,0.0
4663,54.0,0.0,30.0,2.0,0.0
4664,56.0,0.0,30.0,0.0,0.0
4665,64.0,0.0,30.0,7.0,0.0
4666,56.0,29.0,30.0,1.0,0.0
4667,52.0,0.0,60.0,8.0,0.0
4668,56.0,0.0,30.0,2.0,0.0
4669,52.0,0.0,60.0,6.0,0.0
4670,73.0,1.0,30.0,5.0,0.0
4671,66.0,1.0,30.0,7.0,0.0
4672,75.0,0.0,30.0,5.0,0.0
4673,57.0,29.0,30.0,0.0,0.0
4674,57.0,0.0,30.0,1.0,0.0
4675,57.0,0.0,30.0,2.0,0.0
4676,52.0,0.0,60.0,8.0,0.0
4677,68.0,0.0,60.0,7.0,0.0
4678,76.0,30.0,30.0,5.0,0.0
4679,59.0,0.0,60.0,2.0,0.0
4680,59.0,0.0,60.0,0.0,0.0
4681,59.0,29.0,60.0,1.0,0.0
4682,78.0,1.0,30.0,5.0,0.0
4683,64.0,29.0,60.0,2.0,0.0
4684,64.0,0.0,90.0,7.0,0.0
4685,49.0,0.0,60.0,3.0,0.0
4686,64.0,0.0,60.0,1.0,0.0
4687,37.0,0.0,60.0,4.0,0.0
4688,64.0,0.0,60.0,0.0,0.0
4689,49.0,1.0,60.0,8.0,0.0
4690,80.0,30.0,30.0,5.0,0.0
4691,76.0,0.0,30.0,5.0,0.0
4692,61.0,29.0,60.0,1.0,0.0
4693,46.0,0.0,60.0,3.0,0.0
4694,61.0,0.0,60.0,0.0,0.0
4695,61.0,0.0,60.0,2.0,0.0
4696,34.0,0.0,60.0,4.0,0.0
4697,46.0,1.0,60.0,8.0,0.0
4698,70.0,30.0,30.0,5.0,0.0
4699,63.0,0.0,30.0,7.0,0.0
4700,76.0,0.0,30.0,5.0,0.0
4701,34.0,30.0,30.0,3.0,0.0
4702,80.0,30.0,90.0,5.0,0.0
4703,61.0,0.0,30.0,7.0,0.0
4704,46.0,0.0,30.0,6.0,0.0
4705,58.0,0.0,60.0,2.0,0.0
4706,58.0,29.0,60.0,0.0,0.0
4707,22.0,0.0,30.0,4.0,0.0
4708,58.0,0.0,60.0,1.0,0.0
4709,58.0,0.0,60.0,8.0,0.0
4710,59.0,0.0,30.0,7.0,0.0
4711,47.0,0.0,30.0,6.0,0.0
4712,35.0,0.0,30.0,3.0,0.0
4713,23.0,1.0,30.0,4.0,0.0
4714,25.0,0.0,60.0,4.0,0.0
4715,58.0,0.0,60.0,7.0,0.0
4716,49.0,0.0,60.0,6.0,0.0
4717,37.0,0.0,60.0,3.0,0.0
4718,76.0,30.0,30.0,5.0,0.0
4719,56.0,0.0,30.0,8.0,0.0
4720,34.0,0.0,60.0,3.0,0.0
4721,70.0,0.0,120.0,7.0,0.0
4722,46.0,0.0,60.0,6.0,0.0
4723,55.0,0.0,30.0,8.0,0.0
4724,73.0,30.0,30.0,5.0,0.0
4725,22.0,0.0,60.0,4.0,0.0
4726,53.0,0.0,30.0,8.0,0.0
4727,70.0,30.0,30.0,5.0,0.0
4728,51.0,0.0,30.0,0.0,0.0
4729,27.0,0.0,60.0,4.0,0.0
4730,39.0,0.0,60.0,3.0,0.0
4731,51.0,0.0,30.0,2.0,0.0
4732,51.0,0.0,30.0,6.0,0.0
4733,79.0,1.0,30.0,5.0,0.0
4734,51.0,29.0,30.0,1.0,0.0
4735,51.0,1.0,60.0,8.0,0.0
4736,49.0,0.0,30.0,6.0,0.0
4737,53.0,29.0,30.0,1.0,0.0
4738,53.0,0.0,30.0,2.0,0.0
4739,70.0,0.0,30.0,5.0,0.0
4740,53.0,0.0,30.0,0.0,0.0
4741,55.0,29.0,30.0,2.0,0.0
4742,71.0,1.0,30.0,5.0,0.0
4743,39.0,1.0,60.0,8.0,0.0
4744,55.0,0.0,30.0,0.0,0.0
4745,51.0,0.0,60.0,6.0,0.0
4746,55.0,0.0,30.0,1.0,0.0
4747,63.0,0.0,30.0,7.0,0.0
4748,64.0,0.0,30.0,7.0,0.0
4749,56.0,0.0,30.0,2.0,0.0
4750,56.0,0.0,30.0,1.0,0.0
4751,73.0,0.0,30.0,5.0,0.0
4752,56.0,29.0,30.0,0.0,0.0
4753,58.0,29.0,60.0,2.0,0.0
4754,58.0,0.0,60.0,0.0,0.0
4755,66.0,0.0,60.0,7.0,0.0
4756,75.0,30.0,30.0,5.0,0.0
4757,58.0,0.0,60.0,1.0,0.0
4758,51.0,1.0,60.0,8.0,0.0
4759,76.0,0.0,30.0,5.0,0.0
4760,63.0,0.0,60.0,0.0,0.0
4761,36.0,1.0,60.0,4.0,0.0
4762,63.0,0.0,90.0,7.0,0.0
4763,63.0,29.0,60.0,1.0,0.0
4764,48.0,0.0,60.0,8.0,0.0
4765,48.0,0.0,60.0,3.0,0.0
4766,63.0,0.0,60.0,2.0,0.0
4767,78.0,30.0,30.0,5.0,0.0
4768,75.0,0.0,30.0,5.0,0.0
4769,68.0,30.0,30.0,5.0,0.0
4770,44.0,0.0,60.0,8.0,0.0
4771,60.0,29.0,60.0,2.0,0.0
4772,60.0,0.0,60.0,0.0,0.0
4773,44.0,0.0,60.0,3.0,0.0
4774,32.0,0.0,60.0,4.0,0.0
4775,60.0,0.0,60.0,1.0,0.0
4776,75.0,0.0,30.0,5.0,0.0
4777,61.0,1.0,30.0,7.0,0.0
4778,56.0,0.0,60.0,0.0,0.0
4779,56.0,0.0,60.0,1.0,0.0
4780,20.0,0.0,30.0,4.0,0.0
4781,56.0,29.0,60.0,2.0,0.0
4782,56.0,0.0,60.0,8.0,0.0
4783,44.0,0.0,30.0,6.0,0.0
4784,60.0,30.0,30.0,7.0,0.0
4785,78.0,30.0,90.0,5.0,0.0
4786,32.0,0.0,30.0,3.0,0.0
4787,22.0,0.0,30.0,4.0,0.0
4788,34.0,1.0,30.0,3.0,0.0
4789,46.0,0.0,30.0,6.0,0.0
4790,58.0,0.0,30.0,7.0,0.0
4791,24.0,0.0,60.0,4.0,0.0
4792,36.0,30.0,60.0,3.0,0.0
4793,48.0,0.0,60.0,6.0,0.0
4794,56.0,29.0,150.0,7.0,0.0
4795,54.0,0.0,30.0,8.0,0.0
4796,75.0,0.0,30.0,5.0,0.0
4797,72.0,30.0,30.0,5.0,0.0
4798,44.0,0.0,60.0,6.0,0.0
4799,52.0,0.0,30.0,8.0,0.0
4800,32.0,0.0,60.0,3.0,0.0
4801,20.0,0.0,60.0,4.0,0.0
4802,68.0,0.0,30.0,5.0,0.0
4803,51.0,30.0,30.0,8.0,0.0
4804,25.0,0.0,60.0,4.0,0.0
4805,37.0,30.0,60.0,3.0,0.0
4806,49.0,0.0,60.0,6.0,0.0
4807,76.0,0.0,60.0,5.0,0.0
4808,49.0,1.0,30.0,8.0,0.0
4809,61.0,0.0,30.0,7.0,0.0
4810,52.0,0.0,30.0,8.0,0.0
4811,68.0,0.0,60.0,2.0,0.0
4812,73.0,0.0,60.0,1.0,0.0
4813,64.0,30.0,30.0,7.0,0.0
4814,56.0,0.0,30.0,8.0,0.0
4815,73.0,1.0,60.0,5.0,0.0
4816,61.0,0.0,30.0,8.0,0.0
4817,68.0,0.0,30.0,7.0,0.0
4818,68.0,29.0,60.0,2.0,0.0
4819,68.0,0.0,60.0,5.0,0.0
4820,73.0,30.0,30.0,7.0,0.0
4821,76.0,29.0,15.0,0.0,0.0
4822,73.0,0.0,60.0,1.0,0.0
4823,64.0,0.0,60.0,8.0,0.0
4824,68.0,1.0,30.0,7.0,0.0
4825,49.0,0.0,30.0,6.0,0.0
4826,49.0,30.0,60.0,3.0,0.0
4827,49.0,0.0,60.0,8.0,0.0
4828,52.0,30.0,30.0,6.0,0.0
4829,80.0,0.0,120.0,5.0,0.0
4830,64.0,0.0,30.0,7.0,0.0
4831,37.0,0.0,60.0,4.0,0.0
4832,61.0,0.0,30.0,7.0,0.0
4833,56.0,0.0,30.0,6.0,0.0
4834,59.0,0.0,60.0,6.0,0.0
4835,35.0,30.0,60.0,4.0,0.0
4836,47.0,0.0,60.0,3.0,0.0
4837,56.0,0.0,30.0,7.0,0.0
4838,47.0,30.0,30.0,8.0,0.0
4839,51.0,0.0,30.0,8.0,0.0
4840,59.0,0.0,30.0,7.0,0.0
4841,56.0,0.0,30.0,8.0,0.0
4842,75.0,30.0,30.0,5.0,0.0
4843,63.0,0.0,30.0,7.0,0.0
4844,71.0,1.0,30.0,5.0,0.0
4845,68.0,0.0,30.0,7.0,0.0
4846,59.0,0.0,30.0,8.0,0.0
4847,63.0,1.0,60.0,8.0,0.0
4848,68.0,0.0,180.0,5.0,0.0
4849,68.0,29.0,15.0,1.0,0.0
4850,68.0,0.0,15.0,2.0,0.0
4851,71.0,30.0,30.0,7.0,0.0
4852,75.0,0.0,15.0,0.0,0.0
4853,68.0,0.0,30.0,7.0,0.0
4854,63.0,0.0,30.0,6.0,0.0
4855,63.0,30.0,30.0,7.0,0.0
4856,47.0,0.0,60.0,8.0,0.0
4857,35.0,0.0,60.0,3.0,0.0
4858,23.0,30.0,60.0,4.0,0.0
4859,59.0,0.0,30.0,6.0,0.0
4860,56.0,0.0,30.0,6.0,0.0
4861,59.0,0.0,30.0,7.0,0.0
4862,28.0,0.0,60.0,4.0,0.0
4863,52.0,30.0,30.0,8.0,0.0
4864,56.0,0.0,30.0,7.0,0.0
4865,40.0,0.0,60.0,3.0,0.0
4866,52.0,0.0,60.0,6.0,0.0
4867,49.0,0.0,30.0,8.0,0.0
4868,58.0,30.0,30.0,7.0,0.0
4869,56.0,29.0,60.0,2.0,0.0
4870,52.0,30.0,30.0,8.0,0.0
4871,64.0,1.0,60.0,5.0,0.0
4872,68.0,0.0,60.0,1.0,0.0
4873,61.0,0.0,30.0,7.0,0.0
4874,64.0,0.0,30.0,7.0,0.0
4875,58.0,0.0,30.0,8.0,0.0
4876,73.0,0.0,15.0,0.0,0.0
4877,61.0,0.0,60.0,5.0,0.0
4878,68.0,29.0,60.0,1.0,0.0
4879,70.0,30.0,30.0,7.0,0.0
4880,61.0,1.0,60.0,8.0,0.0
4881,56.0,0.0,60.0,2.0,0.0
4882,64.0,0.0,30.0,7.0,0.0
4883,52.0,0.0,30.0,6.0,0.0
4884,73.0,0.0,120.0,5.0,0.0
4885,52.0,0.0,60.0,3.0,0.0
4886,61.0,0.0,30.0,7.0,0.0
4887,58.0,30.0,30.0,6.0,0.0
4888,40.0,0.0,60.0,8.0,0.0
4889,40.0,0.0,60.0,4.0,0.0
4890,61.0,0.0,30.0,6.0,0.0
4891,56.0,30.0,30.0,7.0,0.0
4892,55.0,30.0,30.0,7.0,0.0
4893,39.0,0.0,60.0,4.0,0.0
4894,39.0,0.0,30.0,8.0,0.0
4895,51.0,30.0,60.0,6.0,0.0
4896,51.0,0.0,60.0,3.0,0.0
4897,43.0,0.0,30.0,8.0,0.0
4898,58.0,0.0,30.0,7.0,0.0
4899,73.0,0.0,60.0,0.0,0.0
4900,70.0,30.0,30.0,5.0,0.0
4901,58.0,29.0,60.0,2.0,0.0
4902,46.0,0.0,30.0,8.0,0.0
4903,61.0,0.0,30.0,7.0,0.0
4904,49.0,0.0,30.0,8.0,0.0
4905,67.0,0.0,30.0,5.0,0.0
4906,63.0,1.0,30.0,7.0,0.0
4907,63.0,30.0,30.0,5.0,0.0
4908,73.0,29.0,60.0,0.0,0.0
4909,67.0,0.0,15.0,1.0,0.0
4910,70.0,0.0,60.0,7.0,0.0
4911,58.0,0.0,60.0,2.0,0.0
4912,55.0,0.0,60.0,8.0,0.0
4913,61.0,1.0,30.0,5.0,0.0
4914,51.0,0.0,30.0,6.0,0.0
4915,53.0,30.0,30.0,6.0,0.0
4916,59.0,0.0,30.0,5.0,0.0
4917,58.0,0.0,30.0,5.0,0.0
4918,55.0,30.0,30.0,6.0,0.0
4919,44.0,0.0,60.0,3.0,0.0
4920,56.0,0.0,30.0,6.0,0.0
4921,68.0,29.0,60.0,1.0,0.0
4922,71.0,0.0,60.0,0.0,0.0
4923,63.0,0.0,60.0,2.0,0.0
4924,32.0,1.0,60.0,4.0,0.0
4925,59.0,30.0,30.0,5.0,0.0
4926,51.0,0.0,30.0,6.0,0.0
4927,75.0,30.0,30.0,5.0,0.0
4928,47.0,0.0,30.0,6.0,0.0
4929,51.0,30.0,30.0,6.0,0.0
4930,55.0,30.0,30.0,6.0,0.0
4931,63.0,0.0,60.0,2.0,0.0
4932,67.0,29.0,60.0,0.0,0.0
4933,58.0,0.0,30.0,5.0,0.0
4934,70.0,0.0,60.0,1.0,0.0
4935,39.0,0.0,60.0,3.0,0.0
4936,27.0,1.0,60.0,4.0,0.0
4937,51.0,0.0,30.0,6.0,0.0
4938,46.0,30.0,30.0,6.0,0.0
4939,73.0,0.0,30.0,5.0,0.0
4940,51.0,30.0,30.0,6.0,0.0
4941,56.0,0.0,30.0,5.0,0.0
4942,71.0,0.0,60.0,1.0,0.0
4943,63.0,0.0,60.0,2.0,0.0
4944,68.0,29.0,60.0,0.0,0.0
4945,20.0,0.0,60.0,4.0,0.0
4946,32.0,0.0,60.0,3.0,0.0
4947,56.0,30.0,30.0,6.0,0.0
4948,73.0,0.0,30.0,5.0,0.0
4949,55.0,1.0,30.0,6.0,0.0
4950,56.0,0.0,30.0,6.0,0.0
4951,71.0,30.0,30.0,5.0,0.0
4952,58.0,0.0,30.0,6.0,0.0
4953,70.0,30.0,30.0,5.0,0.0
4954,68.0,0.0,30.0,5.0,0.0
4955,59.0,30.0,30.0,6.0,0.0
4956,66.0,30.0,30.0,5.0,0.0
4957,60.0,0.0,30.0,6.0,0.0
4958,61.0,30.0,30.0,6.0,0.0
4959,64.0,0.0,30.0,5.0,0.0
4960,63.0,0.0,30.0,5.0,0.0
4961,63.0,30.0,30.0,6.0,0.0
4962,49.0,1.0,60.0,3.0,0.0
4963,37.0,0.0,60.0,4.0,0.0
4964,68.0,29.0,60.0,2.0,0.0
4965,64.0,30.0,30.0,5.0,0.0
4966,73.0,0.0,60.0,1.0,0.0
4967,61.0,0.0,30.0,6.0,0.0
4968,76.0,0.0,60.0,0.0,0.0
4969,56.0,0.0,30.0,6.0,0.0
4970,52.0,30.0,30.0,6.0,0.0
4971,80.0,0.0,30.0,5.0,0.0
4972,56.0,30.0,30.0,6.0,0.0
4973,72.0,0.0,60.0,0.0,0.0
4974,75.0,0.0,60.0,1.0,0.0
4975,44.0,0.0,60.0,3.0,0.0
4976,32.0,1.0,60.0,4.0,0.0
4977,63.0,0.0,30.0,5.0,0.0
4978,60.0,30.0,30.0,6.0,0.0
4979,68.0,29.0,60.0,2.0,0.0
4980,56.0,0.0,30.0,6.0,0.0
4981,78.0,0.0,30.0,5.0,0.0
4982,51.0,30.0,30.0,6.0,0.0
4983,56.0,30.0,30.0,6.0,0.0
4984,61.0,30.0,30.0,6.0,0.0
4985,25.0,0.0,60.0,4.0,0.0
4986,73.0,29.0,60.0,0.0,0.0
4987,68.0,0.0,60.0,2.0,0.0
4988,37.0,1.0,60.0,3.0,0.0
4989,76.0,0.0,60.0,1.0,0.0
4990,61.0,0.0,30.0,5.0,0.0
4991,78.0,0.0,30.0,5.0,0.0
4992,60.0,0.0,30.0,6.0,0.0
4993,76.0,0.0,30.0,5.0,0.0
4994,61.0,30.0,30.0,6.0,0.0
4995,75.0,30.0,30.0,5.0,0.0
4996,63.0,0.0,30.0,6.0,0.0
4997,73.0,30.0,30.0,5.0,0.0
4998,64.0,0.0,60.0,6.0,0.0
4999,71.0,30.0,30.0,5.0,0.0
5000,70.0,30.0,30.0,5.0,0.0
5001,61.0,0.0,120.0,6.0,0.0
5002,68.0,30.0,30.0,5.0,0.0
5003,54.0,0.0,60.0,3.0,0.0
5004,70.0,30.0,30.0,5.0,0.0
5005,42.0,30.0,60.0,4.0,0.0
5006,76.0,0.0,30.0,5.0,0.0
5007,54.0,0.0,120.0,6.0,0.0
5008,75.0,30.0,30.0,5.0,0.0
5009,73.0,30.0,30.0,5.0,0.0
5010,75.0,30.0,30.0,5.0,0.0
5011,35.0,0.0,60.0,4.0,0.0
5012,47.0,0.0,60.0,3.0,0.0
5013,70.0,30.0,30.0,5.0,0.0
5014,59.0,30.0,120.0,6.0,0.0
5015,68.0,30.0,30.0,5.0,0.0
5016,67.0,30.0,30.0,5.0,0.0
5017,52.0,0.0,60.0,3.0,0.0
5018,40.0,0.0,60.0,4.0,0.0
5019,68.0,30.0,30.0,5.0,0.0
5020,75.0,0.0,30.0,5.0,0.0
5021,52.0,0.0,120.0,6.0,0.0
5022,73.0,30.0,30.0,5.0,0.0
5023,71.0,30.0,30.0,5.0,0.0
5024,34.0,0.0,60.0,4.0,0.0
5025,73.0,30.0,30.0,5.0,0.0
5026,46.0,0.0,60.0,3.0,0.0
5027,68.0,30.0,30.0,5.0,0.0
5028,67.0,30.0,30.0,5.0,0.0
5029,58.0,30.0,120.0,6.0,0.0
5030,65.0,30.0,30.0,5.0,0.0
5031,51.0,0.0,60.0,3.0,0.0
5032,67.0,30.0,30.0,5.0,0.0
5033,39.0,0.0,60.0,4.0,0.0
5034,73.0,0.0,30.0,5.0,0.0
5035,71.0,30.0,30.0,5.0,0.0
5036,51.0,0.0,120.0,6.0,0.0
5037,70.0,30.0,30.0,5.0,0.0
5038,71.0,30.0,30.0,5.0,0.0
5039,32.0,0.0,60.0,4.0,0.0
5040,44.0,30.0,60.0,3.0,0.0
5041,70.0,0.0,30.0,5.0,0.0
5042,56.0,0.0,60.0,6.0,0.0
5043,68.0,30.0,30.0,5.0,0.0
5044,71.0,30.0,30.0,5.0,0.0
5045,55.0,0.0,60.0,6.0,0.0
5046,51.0,0.0,60.0,3.0,0.0
5047,39.0,30.0,60.0,4.0,0.0
5048,70.0,30.0,30.0,5.0,0.0
5049,68.0,0.0,30.0,5.0,0.0
5050,51.0,0.0,30.0,6.0,0.0
5051,46.0,0.0,60.0,3.0,0.0
5052,34.0,30.0,60.0,4.0,0.0
5053,67.0,30.0,30.0,5.0,0.0
5054,46.0,0.0,30.0,6.0,0.0
5055,65.0,0.0,30.0,5.0,0.0
5056,43.0,0.0,60.0,3.0,0.0
5057,63.0,29.0,150.0,5.0,0.0
5058,31.0,30.0,60.0,4.0,0.0
5059,43.0,30.0,30.0,6.0,0.0
5060,61.0,0.0,30.0,7.0,0.0
5061,39.0,0.0,30.0,6.0,0.0
5062,27.0,0.0,60.0,4.0,0.0
5063,39.0,0.0,60.0,3.0,0.0
5064,59.0,0.0,30.0,7.0,0.0
5065,41.0,30.0,30.0,6.0,0.0
5066,43.0,0.0,30.0,6.0,0.0
5067,58.0,30.0,30.0,7.0,0.0
5068,59.0,0.0,60.0,2.0,0.0
5069,44.0,0.0,60.0,6.0,0.0
5070,68.0,0.0,60.0,0.0,0.0
5071,63.0,29.0,60.0,1.0,0.0
5072,32.0,0.0,60.0,4.0,0.0
5073,59.0,0.0,30.0,7.0,0.0
5074,56.0,1.0,30.0,8.0,0.0
5075,44.0,0.0,60.0,3.0,0.0
5076,51.0,1.0,30.0,8.0,0.0
5077,59.0,0.0,30.0,5.0,0.0
5078,47.0,0.0,60.0,6.0,0.0
5079,75.0,30.0,30.0,7.0,0.0
5080,47.0,0.0,30.0,8.0,0.0
5081,56.0,0.0,30.0,5.0,0.0
5082,59.0,30.0,30.0,5.0,0.0
5083,51.0,0.0,30.0,8.0,0.0
5084,70.0,29.0,60.0,0.0,0.0
5085,39.0,0.0,60.0,3.0,0.0
5086,67.0,0.0,60.0,1.0,0.0
5087,55.0,30.0,30.0,8.0,0.0
5088,63.0,0.0,60.0,2.0,0.0
5089,51.0,0.0,60.0,6.0,0.0
5090,58.0,0.0,30.0,7.0,0.0
5091,61.0,0.0,30.0,5.0,0.0
5092,27.0,0.0,60.0,4.0,0.0
5093,58.0,0.0,30.0,5.0,0.0
5094,51.0,1.0,30.0,8.0,0.0
5095,39.0,30.0,60.0,6.0,0.0
5096,55.0,30.0,30.0,5.0,0.0
5097,46.0,0.0,30.0,8.0,0.0
5098,73.0,0.0,30.0,7.0,0.0
5099,51.0,0.0,30.0,8.0,0.0
5100,58.0,0.0,30.0,5.0,0.0
5101,56.0,30.0,30.0,7.0,0.0
5102,63.0,0.0,60.0,2.0,0.0
5103,32.0,0.0,60.0,3.0,0.0
5104,56.0,0.0,30.0,8.0,0.0
5105,20.0,0.0,60.0,4.0,0.0
5106,59.0,0.0,60.0,5.0,0.0
5107,44.0,1.0,60.0,6.0,0.0
5108,71.0,0.0,60.0,0.0,0.0
5109,68.0,29.0,60.0,1.0,0.0
5110,55.0,0.0,30.0,8.0,0.0
5111,73.0,0.0,30.0,7.0,0.0
5112,71.0,0.0,30.0,7.0,0.0
5113,32.0,30.0,60.0,6.0,0.0
5114,56.0,0.0,60.0,5.0,0.0
5115,56.0,30.0,30.0,8.0,0.0
5116,70.0,0.0,30.0,7.0,0.0
5117,58.0,0.0,30.0,8.0,0.0
5118,68.0,0.0,30.0,7.0,0.0
5119,68.0,29.0,150.0,5.0,0.0
5120,59.0,30.0,30.0,8.0,0.0
5121,44.0,30.0,30.0,6.0,0.0
5122,66.0,0.0,30.0,7.0,0.0
5123,60.0,0.0,30.0,8.0,0.0
5124,46.0,0.0,30.0,6.0,0.0
5125,64.0,30.0,30.0,7.0,0.0
5126,61.0,0.0,30.0,8.0,0.0
5127,63.0,0.0,30.0,7.0,0.0
5128,63.0,30.0,30.0,8.0,0.0
5129,48.0,0.0,30.0,6.0,0.0
5130,64.0,0.0,30.0,7.0,0.0
5131,61.0,1.0,30.0,8.0,0.0
5132,49.0,0.0,60.0,3.0,0.0
5133,37.0,0.0,60.0,4.0,0.0
5134,64.0,29.0,60.0,1.0,0.0
5135,73.0,0.0,60.0,0.0,0.0
5136,49.0,0.0,60.0,6.0,0.0
5137,56.0,0.0,60.0,2.0,0.0
5138,56.0,0.0,30.0,8.0,0.0
5139,64.0,1.0,30.0,5.0,0.0
5140,80.0,0.0,30.0,7.0,0.0
5141,61.0,30.0,30.0,5.0,0.0
5142,52.0,0.0,60.0,6.0,0.0
5143,52.0,0.0,30.0,8.0,0.0
5144,64.0,0.0,30.0,5.0,0.0
5145,56.0,30.0,30.0,8.0,0.0
5146,60.0,29.0,60.0,1.0,0.0
5147,56.0,0.0,60.0,6.0,0.0
5148,75.0,0.0,60.0,0.0,0.0
5149,63.0,0.0,30.0,7.0,0.0
5150,66.0,30.0,30.0,5.0,0.0
5151,44.0,0.0,60.0,3.0,0.0
5152,68.0,0.0,60.0,2.0,0.0
5153,60.0,0.0,30.0,8.0,0.0
5154,32.0,0.0,60.0,4.0,0.0
5155,56.0,1.0,30.0,8.0,0.0
5156,63.0,0.0,30.0,5.0,0.0
5157,78.0,0.0,30.0,7.0,0.0
5158,44.0,30.0,60.0,6.0,0.0
5159,51.0,0.0,30.0,8.0,0.0
5160,60.0,30.0,30.0,5.0,0.0
5161,56.0,0.0,30.0,8.0,0.0
5162,63.0,0.0,30.0,5.0,0.0
5163,68.0,0.0,60.0,2.0,0.0
5164,25.0,0.0,60.0,4.0,0.0
5165,61.0,29.0,60.0,1.0,0.0
5166,76.0,0.0,60.0,0.0,0.0
5167,61.0,30.0,30.0,7.0,0.0
5168,49.0,0.0,60.0,6.0,0.0
5169,37.0,0.0,60.0,3.0,0.0
5170,64.0,0.0,60.0,5.0,0.0
5171,61.0,0.0,30.0,8.0,0.0
5172,78.0,1.0,30.0,7.0,0.0
5173,60.0,0.0,30.0,8.0,0.0
5174,37.0,0.0,60.0,6.0,0.0
5175,61.0,30.0,60.0,5.0,0.0
5176,76.0,0.0,30.0,7.0,0.0
5177,61.0,30.0,30.0,8.0,0.0
5178,75.0,0.0,30.0,7.0,0.0
5179,63.0,0.0,30.0,8.0,0.0
5180,73.0,30.0,30.0,7.0,0.0
5181,76.0,29.0,150.0,5.0,0.0
5182,64.0,0.0,60.0,8.0,0.0
5183,71.0,0.0,30.0,7.0,0.0
5184,49.0,30.0,30.0,6.0,0.0
5185,61.0,29.0,120.0,8.0,0.0
5186,51.0,30.0,30.0,6.0,0.0
5187,70.0,0.0,30.0,7.0,0.0
5188,52.0,30.0,30.0,6.0,0.0
5189,68.0,0.0,30.0,7.0,0.0
5190,70.0,1.0,30.0,7.0,0.0
5191,54.0,0.0,60.0,6.0,0.0
5192,54.0,1.0,60.0,3.0,0.0
5193,42.0,0.0,60.0,4.0,0.0
5194,76.0,0.0,30.0,7.0,0.0
5195,61.0,0.0,30.0,5.0,0.0
5196,75.0,0.0,30.0,7.0,0.0
5197,54.0,0.0,120.0,8.0,0.0
5198,59.0,30.0,30.0,5.0,0.0
5199,58.0,0.0,30.0,5.0,0.0
5200,73.0,30.0,30.0,7.0,0.0
5201,47.0,0.0,60.0,3.0,0.0
5202,35.0,30.0,60.0,4.0,0.0
5203,75.0,30.0,30.0,7.0,0.0
5204,59.0,0.0,60.0,5.0,0.0
5205,54.0,0.0,30.0,6.0,0.0
5206,70.0,0.0,30.0,7.0,0.0
5207,59.0,30.0,120.0,8.0,0.0
5208,75.0,30.0,90.0,5.0,0.0
5209,68.0,30.0,30.0,7.0,0.0
5210,52.0,0.0,30.0,6.0,0.0
5211,51.0,0.0,30.0,6.0,0.0
5212,67.0,30.0,30.0,7.0,0.0
5213,52.0,0.0,60.0,3.0,0.0
5214,68.0,0.0,30.0,7.0,0.0
5215,52.0,0.0,60.0,6.0,0.0
5216,40.0,0.0,60.0,4.0,0.0
5217,75.0,0.0,30.0,7.0,0.0
5218,59.0,0.0,30.0,5.0,0.0
5219,73.0,30.0,30.0,7.0,0.0
5220,58.0,0.0,30.0,5.0,0.0
5221,52.0,0.0,120.0,8.0,0.0
5222,71.0,0.0,30.0,7.0,0.0
5223,56.0,30.0,30.0,5.0,0.0
5224,73.0,30.0,30.0,7.0,0.0
5225,58.0,30.0,60.0,5.0,0.0
5226,34.0,0.0,60.0,4.0,0.0
5227,46.0,0.0,60.0,3.0,0.0
5228,52.0,0.0,30.0,6.0,0.0
5229,68.0,0.0,30.0,7.0,0.0
5230,51.0,30.0,30.0,6.0,0.0
5231,58.0,0.0,120.0,8.0,0.0
5232,73.0,0.0,90.0,5.0,0.0
5233,67.0,0.0,30.0,7.0,0.0
5234,65.0,30.0,30.0,7.0,0.0
5235,49.0,0.0,30.0,6.0,0.0
5236,67.0,30.0,30.0,7.0,0.0
5237,51.0,0.0,60.0,3.0,0.0
5238,39.0,0.0,60.0,4.0,0.0
5239,51.0,0.0,60.0,6.0,0.0
5240,73.0,30.0,30.0,7.0,0.0
5241,58.0,0.0,30.0,5.0,0.0
5242,56.0,30.0,30.0,5.0,0.0
5243,71.0,0.0,30.0,7.0,0.0
5244,51.0,0.0,120.0,8.0,0.0
5245,70.0,0.0,30.0,7.0,0.0
5246,55.0,30.0,30.0,5.0,0.0
5247,56.0,0.0,60.0,5.0,0.0
5248,71.0,30.0,30.0,7.0,0.0
5249,44.0,0.0,60.0,3.0,0.0
5250,32.0,0.0,60.0,4.0,0.0
5251,51.0,0.0,30.0,6.0,0.0
5252,70.0,30.0,30.0,7.0,0.0
5253,68.0,30.0,30.0,7.0,0.0
5254,68.0,0.0,90.0,5.0,0.0
5255,47.0,0.0,30.0,6.0,0.0
5256,56.0,30.0,60.0,8.0,0.0
5257,44.0,0.0,30.0,6.0,0.0
5258,71.0,0.0,30.0,7.0,0.0
5259,70.0,30.0,30.0,7.0,0.0
5260,51.0,0.0,60.0,3.0,0.0
5261,39.0,0.0,60.0,4.0,0.0
5262,51.0,0.0,30.0,8.0,0.0
5263,51.0,0.0,60.0,6.0,0.0
5264,50.0,0.0,30.0,8.0,0.0
5265,68.0,0.0,30.0,7.0,0.0
5266,71.0,30.0,30.0,5.0,0.0
5267,67.0,30.0,30.0,7.0,0.0
5268,39.0,0.0,60.0,6.0,0.0
5269,51.0,0.0,30.0,8.0,0.0
5270,27.0,0.0,60.0,4.0,0.0
5271,70.0,0.0,30.0,5.0,0.0
5272,39.0,0.0,60.0,3.0,0.0
5273,53.0,30.0,30.0,8.0,0.0
5274,68.0,0.0,30.0,5.0,0.0
5275,65.0,0.0,30.0,7.0,0.0
5276,43.0,0.0,60.0,3.0,0.0
5277,55.0,0.0,30.0,8.0,0.0
5278,70.0,30.0,30.0,5.0,0.0
5279,31.0,0.0,60.0,4.0,0.0
5280,63.0,0.0,60.0,7.0,0.0
5281,51.0,0.0,30.0,6.0,0.0
5282,73.0,30.0,30.0,5.0,0.0
5283,58.0,0.0,30.0,8.0,0.0
5284,39.0,0.0,60.0,3.0,0.0
5285,71.0,0.0,30.0,5.0,0.0
5286,27.0,0.0,60.0,4.0,0.0
5287,56.0,30.0,30.0,8.0,0.0
5288,53.0,0.0,30.0,6.0,0.0
5289,70.0,0.0,30.0,5.0,0.0
5290,55.0,0.0,30.0,6.0,0.0
5291,55.0,30.0,30.0,8.0,0.0
5292,71.0,0.0,30.0,5.0,0.0
5293,44.0,30.0,30.0,3.0,0.0
5294,63.0,29.0,300.0,2.0,0.0
5295,68.0,0.0,30.0,0.0,0.0
5296,32.0,0.0,30.0,4.0,0.0
5297,56.0,0.0,60.0,6.0,0.0
5298,56.0,0.0,60.0,8.0,0.0
5299,31.0,30.0,30.0,4.0,0.0
5300,43.0,0.0,30.0,3.0,0.0
5301,70.0,0.0,30.0,0.0,0.0
5302,73.0,0.0,30.0,5.0,0.0
5303,44.0,0.0,30.0,8.0,0.0
5304,63.0,0.0,60.0,1.0,0.0
5305,71.0,0.0,30.0,5.0,0.0
5306,44.0,30.0,30.0,6.0,0.0
5307,63.0,0.0,60.0,7.0,0.0
5308,71.0,0.0,30.0,0.0,0.0
5309,44.0,0.0,30.0,3.0,0.0
5310,32.0,0.0,30.0,4.0,0.0
5311,46.0,0.0,30.0,8.0,0.0
5312,46.0,0.0,30.0,3.0,0.0
5313,70.0,30.0,30.0,5.0,0.0
5314,73.0,0.0,30.0,0.0,0.0
5315,34.0,0.0,30.0,4.0,0.0
5316,46.0,0.0,30.0,6.0,0.0
5317,68.0,0.0,60.0,5.0,0.0
5318,47.0,30.0,30.0,3.0,0.0
5319,68.0,0.0,60.0,1.0,0.0
5320,47.0,0.0,30.0,6.0,0.0
5321,68.0,0.0,60.0,7.0,0.0
5322,35.0,0.0,30.0,4.0,0.0
5323,75.0,0.0,60.0,0.0,0.0
5324,47.0,0.0,30.0,8.0,0.0
5325,46.0,30.0,30.0,8.0,0.0
5326,46.0,0.0,30.0,6.0,0.0
5327,46.0,0.0,30.0,3.0,0.0
5328,34.0,0.0,30.0,4.0,0.0
5329,71.0,0.0,60.0,7.0,0.0
5330,80.0,0.0,60.0,0.0,0.0
5331,35.0,0.0,30.0,4.0,0.0
5332,47.0,0.0,30.0,8.0,0.0
5333,47.0,0.0,30.0,3.0,0.0
5334,80.0,0.0,60.0,5.0,0.0
5335,47.0,30.0,30.0,6.0,0.0
5336,71.0,0.0,60.0,1.0,0.0
5337,37.0,0.0,30.0,4.0,0.0
5338,49.0,0.0,30.0,8.0,0.0
5339,49.0,0.0,30.0,6.0,0.0
5340,49.0,30.0,30.0,3.0,0.0
5341,51.0,30.0,30.0,8.0,0.0
5342,79.0,0.0,60.0,5.0,0.0
5343,51.0,0.0,30.0,6.0,0.0
5344,79.0,0.0,60.0,0.0,0.0
5345,70.0,0.0,60.0,1.0,0.0
5346,51.0,0.0,30.0,3.0,0.0
5347,39.0,0.0,30.0,4.0,0.0
5348,70.0,1.0,60.0,7.0,0.0
5349,49.0,0.0,30.0,6.0,0.0
5350,49.0,0.0,30.0,3.0,0.0
5351,37.0,0.0,30.0,4.0,0.0
5352,49.0,0.0,30.0,8.0,0.0
5353,67.0,0.0,60.0,7.0,0.0
5354,51.0,30.0,30.0,8.0,0.0
5355,51.0,0.0,30.0,3.0,0.0
5356,51.0,0.0,30.0,6.0,0.0
5357,67.0,0.0,60.0,1.0,0.0
5358,58.0,0.0,60.0,2.0,0.0
5359,39.0,0.0,30.0,4.0,0.0
5360,75.0,0.0,60.0,5.0,0.0
5361,75.0,0.0,60.0,0.0,0.0
5362,40.0,0.0,30.0,4.0,0.0
5363,52.0,0.0,30.0,8.0,0.0
5364,52.0,0.0,30.0,6.0,0.0
5365,52.0,30.0,30.0,3.0,0.0
5366,51.0,0.0,30.0,8.0,0.0
5367,63.0,0.0,150.0,7.0,0.0
5368,70.0,0.0,60.0,0.0,0.0
5369,63.0,29.0,150.0,1.0,0.0
5370,70.0,0.0,60.0,5.0,0.0
5371,39.0,30.0,30.0,4.0,0.0
5372,51.0,0.0,30.0,3.0,0.0
5373,55.0,30.0,120.0,2.0,0.0
5374,51.0,0.0,30.0,6.0,0.0
5375,49.0,0.0,30.0,6.0,0.0
5376,49.0,30.0,30.0,8.0,0.0
5377,49.0,0.0,30.0,3.0,0.0
5378,37.0,0.0,30.0,4.0,0.0
5379,36.0,0.0,30.0,4.0,0.0
5380,73.0,0.0,60.0,0.0,0.0
5381,48.0,30.0,30.0,3.0,0.0
5382,48.0,0.0,30.0,8.0,0.0
5383,73.0,0.0,60.0,5.0,0.0
5384,48.0,0.0,30.0,6.0,0.0
5385,46.0,0.0,30.0,6.0,0.0
5386,34.0,0.0,30.0,4.0,0.0
5387,46.0,0.0,30.0,8.0,0.0
5388,46.0,0.0,30.0,3.0,0.0
5389,56.0,0.0,60.0,2.0,0.0
5390,32.0,0.0,30.0,4.0,0.0
5391,72.0,0.0,60.0,0.0,0.0
5392,72.0,0.0,60.0,5.0,0.0
5393,44.0,0.0,30.0,3.0,0.0
5394,44.0,0.0,30.0,8.0,0.0
5395,44.0,1.0,30.0,6.0,0.0
5396,61.0,0.0,30.0,7.0,0.0
5397,43.0,0.0,30.0,6.0,0.0
5398,42.0,0.0,30.0,3.0,0.0
5399,43.0,30.0,30.0,8.0,0.0
5400,30.0,0.0,30.0,4.0,0.0
5401,61.0,0.0,30.0,1.0,0.0
5402,60.0,0.0,30.0,7.0,0.0
5403,60.0,0.0,30.0,1.0,0.0
5404,44.0,0.0,30.0,3.0,0.0
5405,68.0,30.0,60.0,0.0,0.0
5406,44.0,30.0,30.0,8.0,0.0
5407,32.0,0.0,30.0,4.0,0.0
5408,68.0,0.0,60.0,5.0,0.0
5409,44.0,0.0,30.0,6.0,0.0
5410,51.0,0.0,60.0,2.0,0.0
5411,46.0,0.0,30.0,8.0,0.0
5412,58.0,0.0,30.0,7.0,0.0
5413,58.0,0.0,30.0,1.0,0.0
5414,33.0,0.0,30.0,4.0,0.0
5415,45.0,0.0,30.0,3.0,0.0
5416,46.0,0.0,30.0,6.0,0.0
5417,44.0,0.0,30.0,6.0,0.0
5418,60.0,0.0,30.0,1.0,0.0
5419,32.0,30.0,30.0,4.0,0.0
5420,78.0,0.0,180.0,5.0,0.0
5421,63.0,30.0,60.0,2.0,0.0
5422,78.0,0.0,180.0,0.0,0.0
5423,44.0,0.0,30.0,8.0,0.0
5424,60.0,0.0,30.0,7.0,0.0
5425,44.0,0.0,30.0,3.0,0.0
5426,42.0,0.0,30.0,6.0,0.0
5427,30.0,0.0,30.0,4.0,0.0
5428,42.0,0.0,30.0,3.0,0.0
5429,42.0,0.0,30.0,8.0,0.0
5430,56.0,0.0,30.0,1.0,0.0
5431,56.0,0.0,30.0,7.0,0.0
5432,41.0,0.0,30.0,6.0,0.0
5433,41.0,0.0,30.0,8.0,0.0
5434,58.0,0.0,30.0,7.0,0.0
5435,40.0,30.0,30.0,3.0,0.0
5436,28.0,0.0,30.0,4.0,0.0
5437,56.0,30.0,60.0,2.0,0.0
5438,58.0,0.0,30.0,1.0,0.0
5439,39.0,0.0,30.0,3.0,0.0
5440,27.0,0.0,30.0,4.0,0.0
5441,60.0,0.0,30.0,1.0,0.0
5442,39.0,0.0,30.0,8.0,0.0
5443,39.0,0.0,30.0,6.0,0.0
5444,60.0,0.0,30.0,7.0,0.0
5445,37.0,0.0,30.0,8.0,0.0
5446,37.0,30.0,30.0,6.0,0.0
5447,61.0,0.0,60.0,1.0,0.0
5448,25.0,0.0,30.0,4.0,0.0
5449,37.0,0.0,30.0,3.0,0.0
5450,61.0,29.0,60.0,7.0,0.0
5451,48.0,1.0,30.0,3.0,0.0
5452,36.0,0.0,30.0,6.0,0.0
5453,36.0,0.0,30.0,8.0,0.0
5454,36.0,0.0,30.0,4.0,0.0
5455,56.0,0.0,60.0,1.0,0.0
5456,37.0,0.0,30.0,4.0,0.0
5457,49.0,0.0,30.0,3.0,0.0
5458,77.0,0.0,30.0,5.0,0.0
5459,56.0,29.0,60.0,7.0,0.0
5460,37.0,0.0,30.0,8.0,0.0
5461,37.0,0.0,30.0,6.0,0.0
5462,68.0,0.0,60.0,2.0,0.0
5463,77.0,30.0,30.0,0.0,0.0
5464,75.0,0.0,30.0,0.0,0.0
5465,75.0,0.0,30.0,5.0,0.0
5466,39.0,1.0,30.0,4.0,0.0
5467,39.0,0.0,30.0,6.0,0.0
5468,39.0,0.0,30.0,8.0,0.0
5469,51.0,0.0,30.0,3.0,0.0
5470,77.0,0.0,60.0,0.0,0.0
5471,49.0,30.0,30.0,3.0,0.0
5472,61.0,0.0,150.0,1.0,0.0
5473,77.0,0.0,60.0,5.0,0.0
5474,37.0,0.0,30.0,6.0,0.0
5475,56.0,0.0,60.0,2.0,0.0
5476,37.0,0.0,30.0,4.0,0.0
5477,61.0,29.0,150.0,7.0,0.0
5478,37.0,0.0,30.0,8.0,0.0
5479,35.0,0.0,30.0,4.0,0.0
5480,47.0,30.0,30.0,3.0,0.0
5481,35.0,0.0,30.0,6.0,0.0
5482,35.0,0.0,30.0,8.0,0.0
5483,73.0,0.0,60.0,0.0,0.0
5484,34.0,0.0,30.0,4.0,0.0
5485,34.0,0.0,30.0,6.0,0.0
5486,61.0,31.0,60.0,2.0,0.0
5487,46.0,0.0,30.0,3.0,0.0
5488,34.0,30.0,30.0,8.0,0.0
5489,73.0,0.0,60.0,5.0,0.0
5490,32.0,0.0,30.0,8.0,0.0
5491,44.0,0.0,30.0,3.0,0.0
5492,32.0,0.0,30.0,4.0,0.0
5493,32.0,0.0,30.0,6.0,0.0
5494,43.0,0.0,120.0,8.0,0.0
5495,43.0,0.0,120.0,3.0,0.0
5496,31.0,0.0,120.0,4.0,0.0
5497,70.0,0.0,60.0,5.0,0.0
5498,43.0,0.0,120.0,6.0,0.0
5499,70.0,30.0,60.0,0.0,0.0
5500,59.0,0.0,30.0,1.0,0.0
5501,59.0,0.0,30.0,7.0,0.0
5502,73.0,0.0,60.0,0.0,0.0
5503,58.0,30.0,30.0,1.0,0.0
5504,64.0,30.0,60.0,2.0,0.0
5505,73.0,0.0,60.0,5.0,0.0
5506,58.0,0.0,30.0,7.0,0.0
5507,59.0,0.0,30.0,1.0,0.0
5508,59.0,0.0,30.0,7.0,0.0
5509,61.0,0.0,30.0,1.0,0.0
5510,76.0,0.0,60.0,5.0,0.0
5511,58.0,30.0,60.0,2.0,0.0
5512,76.0,0.0,60.0,0.0,0.0
5513,61.0,30.0,30.0,7.0,0.0
5514,63.0,0.0,30.0,1.0,0.0
5515,63.0,0.0,30.0,7.0,0.0
5516,49.0,0.0,120.0,6.0,0.0
5517,68.0,0.0,60.0,0.0,0.0
5518,61.0,30.0,60.0,2.0,0.0
5519,68.0,0.0,60.0,5.0,0.0
5520,37.0,0.0,120.0,4.0,0.0
5521,49.0,30.0,120.0,8.0,0.0
5522,64.0,0.0,30.0,1.0,0.0
5523,49.0,0.0,120.0,3.0,0.0
5524,64.0,30.0,30.0,7.0,0.0
5525,61.0,0.0,30.0,7.0,0.0
5526,61.0,0.0,30.0,1.0,0.0
5527,67.0,0.0,60.0,5.0,0.0
5528,67.0,0.0,60.0,0.0,0.0
5529,63.0,0.0,30.0,1.0,0.0
5530,63.0,30.0,30.0,7.0,0.0
5531,64.0,0.0,30.0,1.0,0.0
5532,64.0,0.0,30.0,7.0,0.0
5533,63.0,0.0,30.0,7.0,0.0
5534,55.0,0.0,60.0,2.0,0.0
5535,35.0,0.0,30.0,4.0,0.0
5536,47.0,0.0,30.0,3.0,0.0
5537,75.0,0.0,60.0,0.0,0.0
5538,47.0,30.0,30.0,6.0,0.0
5539,75.0,0.0,60.0,5.0,0.0
5540,63.0,0.0,30.0,1.0,0.0
5541,47.0,0.0,30.0,8.0,0.0
5542,46.0,0.0,30.0,8.0,0.0
5543,61.0,0.0,30.0,7.0,0.0
5544,34.0,0.0,30.0,4.0,0.0
5545,46.0,0.0,30.0,3.0,0.0
5546,61.0,0.0,30.0,1.0,0.0
5547,46.0,30.0,30.0,6.0,0.0
5548,47.0,0.0,60.0,6.0,0.0
5549,51.0,0.0,60.0,2.0,0.0
5550,68.0,0.0,60.0,0.0,0.0
5551,35.0,0.0,60.0,4.0,0.0
5552,68.0,30.0,60.0,5.0,0.0
5553,47.0,0.0,60.0,3.0,0.0
5554,47.0,0.0,60.0,8.0,0.0
5555,59.0,30.0,30.0,1.0,0.0
5556,59.0,0.0,30.0,7.0,0.0
5557,58.0,0.0,30.0,7.0,0.0
5558,58.0,0.0,30.0,1.0,0.0
5559,52.0,0.0,60.0,3.0,0.0
5560,56.0,30.0,30.0,1.0,0.0
5561,73.0,0.0,60.0,0.0,0.0
5562,56.0,0.0,30.0,7.0,0.0
5563,73.0,0.0,60.0,5.0,0.0
5564,40.0,0.0,60.0,4.0,0.0
5565,56.0,0.0,60.0,2.0,0.0
5566,52.0,60.0,60.0,8.0,0.0
5567,52.0,0.0,60.0,6.0,0.0
5568,55.0,0.0,30.0,1.0,0.0
5569,55.0,0.0,30.0,7.0,0.0
5570,39.0,0.0,60.0,4.0,0.0
5571,51.0,0.0,60.0,6.0,0.0
5572,51.0,0.0,60.0,3.0,0.0
5573,71.0,0.0,120.0,5.0,0.0
5574,56.0,0.0,60.0,7.0,0.0
5575,56.0,60.0,60.0,1.0,0.0
5576,51.0,0.0,60.0,8.0,0.0
5577,63.0,0.0,60.0,2.0,0.0
5578,71.0,0.0,120.0,0.0,0.0
5579,68.0,0.0,120.0,1.0,0.0
5580,68.0,21.0,120.0,7.0,0.0
5581,37.0,0.0,60.0,4.0,0.0
5582,49.0,15.0,60.0,6.0,0.0
5583,49.0,0.0,60.0,8.0,0.0
5584,49.0,0.0,60.0,3.0,0.0
5585,64.0,0.0,120.0,2.0,0.0
5586,51.0,0.0,60.0,3.0,0.0
5587,70.0,15.0,15.0,5.0,0.0
5588,39.0,0.0,60.0,4.0,0.0
5589,70.0,0.0,15.0,0.0,0.0
5590,51.0,0.0,60.0,6.0,0.0
5591,51.0,0.0,60.0,8.0,0.0
5592,71.0,15.0,15.0,5.0,0.0
5593,71.0,0.0,15.0,0.0,0.0
5594,70.0,0.0,15.0,5.0,0.0
5595,70.0,15.0,15.0,0.0,0.0
5596,71.0,0.0,15.0,5.0,0.0
5597,71.0,0.0,15.0,0.0,0.0
5598,67.0,0.0,60.0,1.0,0.0
5599,70.0,9.0,20.0,5.0,0.0
5600,39.0,0.0,60.0,8.0,0.0
5601,27.0,0.0,60.0,4.0,0.0
5602,39.0,0.0,60.0,6.0,0.0
5603,39.0,0.0,60.0,3.0,0.0
5604,70.0,0.0,20.0,0.0,0.0
5605,63.0,11.0,30.0,2.0,0.0
5606,67.0,0.0,60.0,7.0,0.0
5607,71.0,0.0,20.0,5.0,0.0
5608,71.0,19.0,20.0,0.0,0.0
5609,61.0,1.0,30.0,2.0,0.0
5610,70.0,0.0,20.0,0.0,0.0
5611,70.0,239.0,20.0,5.0,0.0
5612,68.0,0.0,240.0,7.0,0.0
5613,68.0,0.0,240.0,0.0,0.0
5614,68.0,0.0,240.0,5.0,0.0
5615,44.0,601.0,240.0,6.0,0.0
5616,44.0,0.0,240.0,3.0,0.0
5617,68.0,0.0,240.0,1.0,0.0
5618,32.0,0.0,240.0,8.0,0.0
5619,32.0,0.0,240.0,4.0,0.0
5620,59.0,0.0,240.0,2.0,0.0
5621,71.0,60.0,240.0,7.0,0.0
5622,54.0,0.0,120.0,2.0,0.0
5623,47.0,60.0,120.0,3.0,0.0
5624,47.0,0.0,120.0,8.0,0.0
5625,59.0,0.0,120.0,1.0,0.0
5626,35.0,0.0,120.0,4.0,0.0
5627,63.0,0.0,120.0,0.0,0.0
5628,35.0,0.0,60.0,3.0,0.0
5629,23.0,0.0,60.0,4.0,0.0
5630,35.0,60.0,60.0,8.0,0.0
5631,25.0,60.0,120.0,4.0,0.0
5632,64.0,0.0,120.0,0.0,0.0
5633,37.0,0.0,120.0,3.0,0.0
5634,61.0,0.0,120.0,2.0,0.0
5635,52.0,0.0,120.0,1.0,0.0
5636,37.0,0.0,120.0,8.0,0.0
5637,70.0,0.0,60.0,7.0,0.0
5638,68.0,0.0,60.0,7.0,0.0
5639,49.0,0.0,60.0,8.0,0.0
5640,49.0,120.0,60.0,3.0,0.0
5641,37.0,0.0,60.0,4.0,0.0
5642,39.0,0.0,120.0,4.0,0.0
5643,66.0,0.0,120.0,0.0,0.0
5644,54.0,60.0,120.0,2.0,0.0
5645,66.0,60.0,240.0,7.0,0.0
5646,59.0,0.0,120.0,1.0,0.0
5647,51.0,0.0,120.0,3.0,0.0
5648,51.0,0.0,120.0,8.0,0.0
5649,39.0,0.0,60.0,8.0,0.0
5650,27.0,0.0,60.0,4.0,0.0
5651,39.0,60.0,60.0,3.0,0.0
5652,56.0,0.0,120.0,1.0,0.0
5653,28.0,0.0,120.0,4.0,0.0
5654,40.0,0.0,120.0,8.0,0.0
5655,68.0,60.0,120.0,0.0,0.0
5656,40.0,0.0,120.0,3.0,0.0
5657,47.0,0.0,120.0,2.0,0.0
5658,64.0,0.0,60.0,7.0,0.0
5659,63.0,60.0,60.0,7.0,0.0
5660,52.0,0.0,60.0,3.0,0.0
5661,40.0,0.0,15.0,4.0,0.0
5662,61.0,0.0,120.0,1.0,0.0
5663,52.0,0.0,120.0,3.0,0.0
5664,61.0,60.0,60.0,7.0,0.0
5665,52.0,0.0,15.0,8.0,0.0
5666,70.0,0.0,60.0,0.0,0.0
5667,66.0,0.0,60.0,0.0,0.0
5668,58.0,0.0,60.0,7.0,0.0
5669,71.0,60.0,120.0,0.0,0.0
5670,51.0,60.0,60.0,3.0,0.0
5671,59.0,0.0,60.0,7.0,0.0
5672,51.0,0.0,60.0,8.0,0.0
5673,54.0,0.0,15.0,2.0,0.0
5674,66.0,0.0,60.0,1.0,0.0
5675,39.0,0.0,60.0,4.0,0.0
5676,68.0,0.0,120.0,1.0,0.0
5677,49.0,0.0,120.0,8.0,0.0
5678,37.0,0.0,120.0,4.0,0.0
5679,49.0,60.0,120.0,3.0,0.0
5680,61.0,0.0,120.0,2.0,0.0
5681,64.0,60.0,240.0,7.0,0.0
5682,68.0,0.0,60.0,0.0,0.0
5683,61.0,0.0,60.0,2.0,0.0
5684,42.0,0.0,60.0,4.0,0.0
5685,70.0,0.0,60.0,0.0,0.0
5686,54.0,0.0,60.0,8.0,0.0
5687,66.0,0.0,60.0,1.0,0.0
5688,54.0,60.0,60.0,3.0,0.0
5689,35.0,0.0,120.0,4.0,0.0
5690,47.0,60.0,120.0,8.0,0.0
5691,71.0,0.0,120.0,0.0,0.0
5692,66.0,0.0,120.0,1.0,0.0
5693,47.0,0.0,120.0,3.0,0.0
5694,63.0,0.0,60.0,7.0,0.0
5695,66.0,0.0,60.0,7.0,0.0
5696,51.0,0.0,60.0,3.0,0.0
5697,39.0,60.0,60.0,4.0,0.0
5698,51.0,0.0,60.0,8.0,0.0
5699,59.0,0.0,15.0,2.0,0.0
5700,44.0,0.0,120.0,8.0,0.0
5701,63.0,0.0,15.0,1.0,0.0
5702,71.0,30.0,60.0,7.0,0.0
5703,66.0,0.0,15.0,0.0,0.0
5704,44.0,0.0,120.0,3.0,0.0
5705,59.0,0.0,120.0,2.0,0.0
5706,32.0,0.0,120.0,4.0,0.0
5707,73.0,30.0,30.0,7.0,0.0
5708,71.0,0.0,30.0,7.0,0.0
5709,49.0,0.0,60.0,8.0,0.0
5710,49.0,0.0,60.0,3.0,0.0
5711,61.0,0.0,60.0,2.0,0.0
5712,37.0,0.0,60.0,4.0,0.0
5713,61.0,0.0,60.0,1.0,0.0
5714,70.0,30.0,30.0,7.0,0.0
5715,65.0,0.0,60.0,0.0,0.0
5716,68.0,30.0,30.0,7.0,0.0
5717,30.0,0.0,120.0,4.0,0.0
5718,42.0,30.0,120.0,8.0,0.0
5719,70.0,30.0,30.0,7.0,0.0
5720,78.0,0.0,240.0,5.0,0.0
5721,54.0,0.0,120.0,6.0,0.0
5722,66.0,0.0,120.0,0.0,0.0
5723,58.0,0.0,120.0,2.0,0.0
5724,61.0,0.0,120.0,1.0,0.0
5725,42.0,0.0,120.0,3.0,0.0
5726,68.0,30.0,30.0,7.0,0.0
5727,70.0,30.0,30.0,7.0,0.0
5728,66.0,0.0,30.0,7.0,0.0
5729,42.0,0.0,60.0,6.0,0.0
5730,42.0,0.0,60.0,4.0,0.0
5731,54.0,30.0,60.0,3.0,0.0
5732,61.0,30.0,30.0,7.0,0.0
5733,54.0,0.0,60.0,8.0,0.0
5734,66.0,0.0,30.0,7.0,0.0
5735,56.0,30.0,120.0,8.0,0.0
5736,71.0,0.0,120.0,0.0,0.0
5737,44.0,0.0,120.0,4.0,0.0
5738,56.0,0.0,120.0,2.0,0.0
5739,71.0,30.0,30.0,7.0,0.0
5740,59.0,0.0,120.0,1.0,0.0
5741,44.0,0.0,120.0,6.0,0.0
5742,56.0,0.0,120.0,3.0,0.0
5743,70.0,30.0,30.0,7.0,0.0
5744,71.0,30.0,30.0,7.0,0.0
5745,77.0,0.0,60.0,5.0,0.0
5746,68.0,0.0,30.0,7.0,0.0
5747,44.0,0.0,60.0,3.0,0.0
5748,75.0,0.0,60.0,5.0,0.0
5749,56.0,0.0,60.0,6.0,0.0
5750,32.0,0.0,60.0,4.0,0.0
5751,65.0,30.0,30.0,7.0,0.0
5752,44.0,0.0,60.0,8.0,0.0
5753,68.0,30.0,30.0,7.0,0.0
5754,46.0,0.0,120.0,3.0,0.0
5755,66.0,0.0,120.0,1.0,0.0
5756,46.0,0.0,120.0,8.0,0.0
5757,70.0,30.0,120.0,0.0,0.0
5758,73.0,30.0,240.0,5.0,0.0
5759,58.0,0.0,120.0,6.0,0.0
5760,49.0,0.0,120.0,2.0,0.0
5761,73.0,30.0,30.0,7.0,0.0
5762,34.0,0.0,120.0,4.0,0.0
5763,71.0,30.0,30.0,7.0,0.0
5764,73.0,30.0,30.0,7.0,0.0
5765,70.0,0.0,30.0,7.0,0.0
5766,46.0,30.0,60.0,6.0,0.0
5767,34.0,0.0,60.0,3.0,0.0
5768,58.0,0.0,60.0,8.0,0.0
5769,22.0,0.0,60.0,4.0,0.0
5770,66.0,30.0,30.0,7.0,0.0
5771,70.0,0.0,30.0,7.0,0.0
5772,23.0,0.0,120.0,4.0,0.0
5773,54.0,0.0,120.0,2.0,0.0
5774,75.0,30.0,30.0,7.0,0.0
5775,59.0,0.0,120.0,8.0,0.0
5776,47.0,30.0,120.0,6.0,0.0
5777,63.0,0.0,120.0,1.0,0.0
5778,35.0,0.0,120.0,3.0,0.0
5779,66.0,0.0,120.0,0.0,0.0
5780,73.0,0.0,30.0,7.0,0.0
5781,71.0,0.0,60.0,5.0,0.0
5782,75.0,30.0,30.0,7.0,0.0
5783,71.0,0.0,30.0,7.0,0.0
5784,47.0,0.0,60.0,8.0,0.0
5785,73.0,30.0,30.0,7.0,0.0
5786,59.0,0.0,60.0,6.0,0.0
5787,35.0,15.0,60.0,4.0,0.0
5788,70.0,0.0,60.0,5.0,0.0
5789,75.0,0.0,30.0,7.0,0.0
5790,65.0,0.0,60.0,7.0,0.0
5791,47.0,0.0,120.0,8.0,0.0
5792,59.0,0.0,120.0,6.0,0.0
5793,47.0,0.0,15.0,3.0,0.0
5794,70.0,45.0,15.0,5.0,0.0
5795,68.0,0.0,120.0,1.0,0.0
5796,73.0,0.0,120.0,0.0,0.0
5797,35.0,0.0,120.0,4.0,0.0
5798,68.0,15.0,60.0,5.0,0.0
5799,66.0,45.0,15.0,5.0,0.0
5800,73.0,0.0,60.0,7.0,0.0
5801,65.0,0.0,60.0,5.0,0.0
5802,70.0,0.0,60.0,1.0,0.0
5803,46.0,60.0,60.0,8.0,0.0
5804,34.0,0.0,60.0,4.0,0.0
5805,46.0,0.0,60.0,3.0,0.0
5806,66.0,30.0,120.0,7.0,0.0
5807,58.0,0.0,60.0,6.0,0.0
5808,49.0,60.0,15.0,2.0,0.0
5809,73.0,0.0,60.0,0.0,0.0
5810,66.0,0.0,60.0,5.0,0.0
5811,56.0,0.0,120.0,2.0,0.0
5812,63.0,60.0,120.0,1.0,0.0
5813,44.0,0.0,120.0,3.0,0.0
5814,71.0,0.0,120.0,0.0,0.0
5815,32.0,0.0,120.0,4.0,0.0
5816,56.0,0.0,120.0,6.0,0.0
5817,71.0,30.0,240.0,5.0,0.0
5818,44.0,0.0,120.0,8.0,0.0
5819,65.0,30.0,30.0,7.0,0.0
5820,63.0,0.0,30.0,7.0,0.0
5821,68.0,0.0,60.0,0.0,0.0
5822,65.0,0.0,60.0,7.0,0.0
5823,53.0,0.0,60.0,2.0,0.0
5824,37.0,0.0,60.0,4.0,0.0
5825,49.0,30.0,60.0,3.0,0.0
5826,49.0,0.0,60.0,8.0,0.0
5827,61.0,0.0,60.0,1.0,0.0
5828,49.0,0.0,60.0,6.0,0.0
5829,54.0,0.0,120.0,6.0,0.0
5830,66.0,0.0,120.0,0.0,0.0
5831,30.0,0.0,120.0,4.0,0.0
5832,61.0,0.0,120.0,1.0,0.0
5833,49.0,0.0,120.0,2.0,0.0
5834,42.0,0.0,120.0,3.0,0.0
5835,42.0,0.0,120.0,8.0,0.0
5836,66.0,30.0,30.0,7.0,0.0
5837,65.0,0.0,30.0,7.0,0.0
5838,66.0,30.0,30.0,7.0,0.0
5839,70.0,0.0,60.0,5.0,0.0
5840,61.0,30.0,30.0,7.0,0.0
5841,40.0,0.0,60.0,8.0,0.0
5842,28.0,30.0,60.0,4.0,0.0
5843,40.0,0.0,60.0,3.0,0.0
5844,73.0,0.0,60.0,5.0,0.0
5845,52.0,0.0,60.0,6.0,0.0
5846,58.0,30.0,30.0,7.0,0.0
5847,61.0,0.0,30.0,7.0,0.0
5848,51.0,0.0,120.0,6.0,0.0
5849,39.0,30.0,120.0,3.0,0.0
5850,78.0,0.0,120.0,5.0,0.0
5851,39.0,0.0,120.0,8.0,0.0
5852,59.0,30.0,30.0,7.0,0.0
5853,27.0,0.0,120.0,4.0,0.0
5854,61.0,30.0,30.0,7.0,0.0
5855,63.0,30.0,30.0,7.0,0.0
5856,64.0,0.0,30.0,7.0,0.0
5857,47.0,0.0,60.0,6.0,0.0
5858,35.0,0.0,60.0,8.0,0.0
5859,66.0,0.0,120.0,0.0,0.0
5860,69.0,0.0,120.0,5.0,0.0
5861,23.0,0.0,60.0,4.0,0.0
5862,66.0,30.0,30.0,7.0,0.0
5863,59.0,0.0,60.0,1.0,0.0
5864,51.0,0.0,60.0,2.0,0.0
5865,35.0,0.0,60.0,3.0,0.0
5866,63.0,30.0,30.0,7.0,0.0
5867,59.0,0.0,120.0,1.0,0.0
5868,40.0,0.0,120.0,8.0,0.0
5869,52.0,0.0,120.0,2.0,0.0
5870,28.0,0.0,120.0,4.0,0.0
5871,40.0,0.0,120.0,3.0,0.0
5872,59.0,30.0,30.0,7.0,0.0
5873,52.0,0.0,120.0,6.0,0.0
5874,57.0,30.0,30.0,7.0,0.0
5875,59.0,30.0,30.0,7.0,0.0
5876,68.0,0.0,60.0,5.0,0.0
5877,64.0,30.0,60.0,0.0,0.0
5878,64.0,0.0,30.0,7.0,0.0
5879,27.0,0.0,60.0,4.0,0.0
5880,39.0,0.0,60.0,8.0,0.0
5881,56.0,30.0,30.0,7.0,0.0
5882,71.0,0.0,60.0,5.0,0.0
5883,39.0,0.0,60.0,3.0,0.0
5884,51.0,0.0,60.0,6.0,0.0
5885,59.0,30.0,30.0,7.0,0.0
5886,37.0,0.0,120.0,8.0,0.0
5887,49.0,0.0,120.0,6.0,0.0
5888,37.0,30.0,120.0,3.0,0.0
5889,25.0,0.0,120.0,4.0,0.0
5890,76.0,0.0,120.0,5.0,0.0
5891,58.0,30.0,30.0,7.0,0.0
5892,59.0,30.0,30.0,7.0,0.0
5893,61.0,30.0,30.0,7.0,0.0
5894,63.0,0.0,30.0,7.0,0.0
5895,64.0,30.0,30.0,7.0,0.0
5896,34.0,0.0,60.0,8.0,0.0
5897,22.0,0.0,60.0,4.0,0.0
5898,68.0,0.0,120.0,5.0,0.0
5899,34.0,0.0,60.0,3.0,0.0
5900,46.0,0.0,60.0,6.0,0.0
5901,49.0,0.0,60.0,2.0,0.0
5902,64.0,0.0,120.0,0.0,0.0
5903,61.0,0.0,30.0,7.0,0.0
5904,27.0,30.0,120.0,4.0,0.0
5905,51.0,0.0,120.0,2.0,0.0
5906,58.0,30.0,30.0,7.0,0.0
5907,39.0,0.0,120.0,3.0,0.0
5908,51.0,0.0,120.0,6.0,0.0
5909,39.0,0.0,120.0,8.0,0.0
5910,58.0,30.0,15.0,1.0,0.0
5911,56.0,30.0,30.0,7.0,0.0
5912,66.0,0.0,60.0,5.0,0.0
5913,63.0,0.0,60.0,0.0,0.0
5914,58.0,30.0,30.0,7.0,0.0
5915,63.0,0.0,30.0,7.0,0.0
5916,37.0,30.0,60.0,3.0,0.0
5917,70.0,0.0,60.0,5.0,0.0
5918,49.0,0.0,60.0,6.0,0.0
5919,37.0,0.0,60.0,8.0,0.0
5920,25.0,0.0,60.0,4.0,0.0
5921,54.0,30.0,30.0,7.0,0.0
5922,58.0,0.0,30.0,7.0,0.0
5923,23.0,0.0,120.0,4.0,0.0
5924,47.0,0.0,120.0,6.0,0.0
5925,75.0,0.0,120.0,5.0,0.0
5926,35.0,30.0,120.0,8.0,0.0
5927,35.0,0.0,120.0,3.0,0.0
5928,56.0,30.0,30.0,7.0,0.0
5929,58.0,30.0,30.0,7.0,0.0
5930,59.0,30.0,30.0,7.0,0.0
5931,61.0,0.0,30.0,7.0,0.0
5932,66.0,0.0,120.0,5.0,0.0
5933,44.0,0.0,60.0,6.0,0.0
5934,32.0,0.0,60.0,3.0,0.0
5935,63.0,30.0,30.0,7.0,0.0
5936,32.0,0.0,60.0,8.0,0.0
5937,20.0,0.0,60.0,4.0,0.0
5938,47.0,0.0,60.0,2.0,0.0
5939,56.0,30.0,60.0,1.0,0.0
5940,63.0,0.0,120.0,0.0,0.0
5941,59.0,0.0,30.0,7.0,0.0
5942,56.0,30.0,30.0,7.0,0.0
5943,49.0,0.0,120.0,6.0,0.0
5944,37.0,0.0,120.0,8.0,0.0
5945,37.0,0.0,120.0,3.0,0.0
5946,25.0,0.0,120.0,4.0,0.0
5947,49.0,0.0,120.0,2.0,0.0
5948,56.0,0.0,120.0,1.0,0.0
5949,54.0,30.0,30.0,7.0,0.0
5950,61.0,0.0,60.0,0.0,0.0
5951,56.0,30.0,30.0,7.0,0.0
5952,64.0,30.0,60.0,5.0,0.0
5953,61.0,0.0,30.0,7.0,0.0
5954,35.0,0.0,60.0,3.0,0.0
5955,52.0,30.0,30.0,7.0,0.0
5956,47.0,0.0,60.0,6.0,0.0
5957,23.0,30.0,60.0,4.0,0.0
5958,35.0,0.0,60.0,8.0,0.0
5959,68.0,0.0,60.0,5.0,0.0
5960,56.0,0.0,30.0,7.0,0.0
5961,34.0,30.0,120.0,8.0,0.0
5962,34.0,0.0,120.0,3.0,0.0
5963,73.0,0.0,120.0,5.0,0.0
5964,54.0,30.0,30.0,7.0,0.0
5965,22.0,0.0,120.0,4.0,0.0
5966,46.0,0.0,120.0,6.0,0.0
5967,56.0,30.0,30.0,7.0,0.0
5968,58.0,30.0,30.0,7.0,0.0
5969,59.0,0.0,30.0,7.0,0.0
5970,64.0,60.0,120.0,5.0,0.0
5971,42.0,0.0,60.0,8.0,0.0
5972,61.0,0.0,60.0,2.0,0.0
5973,30.0,0.0,60.0,4.0,0.0
5974,58.0,60.0,60.0,1.0,0.0
5975,42.0,0.0,60.0,6.0,0.0
5976,61.0,30.0,30.0,7.0,0.0
5977,42.0,0.0,60.0,3.0,0.0
5978,66.0,0.0,120.0,0.0,0.0
5979,58.0,0.0,30.0,7.0,0.0
5980,35.0,0.0,120.0,8.0,0.0
5981,59.0,0.0,120.0,7.0,0.0
5982,59.0,0.0,120.0,2.0,0.0
5983,47.0,60.0,120.0,6.0,0.0
5984,35.0,0.0,120.0,3.0,0.0
5985,54.0,0.0,120.0,1.0,0.0
5986,23.0,0.0,120.0,4.0,0.0
5987,71.0,0.0,60.0,0.0,0.0
5988,63.0,0.0,60.0,5.0,0.0
5989,59.0,0.0,60.0,2.0,0.0
5990,28.0,0.0,60.0,4.0,0.0
5991,52.0,0.0,60.0,6.0,0.0
5992,68.0,0.0,60.0,0.0,0.0
5993,68.0,0.0,60.0,5.0,0.0
5994,52.0,0.0,60.0,1.0,0.0
5995,40.0,0.0,60.0,3.0,0.0
5996,40.0,60.0,60.0,8.0,0.0
5997,22.0,0.0,120.0,4.0,0.0
5998,34.0,0.0,120.0,3.0,0.0
5999,73.0,30.0,60.0,5.0,0.0
6000,61.0,30.0,120.0,2.0,0.0
6001,46.0,0.0,120.0,6.0,0.0
6002,64.0,0.0,120.0,1.0,0.0
6003,34.0,0.0,120.0,8.0,0.0
6004,68.0,0.0,120.0,0.0,0.0
6005,75.0,30.0,30.0,5.0,0.0
6006,73.0,0.0,30.0,5.0,0.0
6007,63.0,0.0,60.0,1.0,0.0
6008,67.0,0.0,60.0,0.0,0.0
6009,39.0,0.0,60.0,3.0,0.0
6010,71.0,30.0,30.0,5.0,0.0
6011,39.0,0.0,60.0,8.0,0.0
6012,27.0,0.0,60.0,4.0,0.0
6013,63.0,0.0,60.0,2.0,0.0
6014,51.0,0.0,60.0,6.0,0.0
6015,70.0,30.0,30.0,5.0,0.0
6016,44.0,0.0,120.0,6.0,0.0
6017,44.0,0.0,120.0,3.0,0.0
6018,32.0,0.0,120.0,4.0,0.0
6019,68.0,0.0,120.0,0.0,0.0
6020,59.0,0.0,120.0,2.0,0.0
6021,68.0,0.0,240.0,7.0,0.0
6022,32.0,0.0,120.0,8.0,0.0
6023,63.0,30.0,120.0,1.0,0.0
6024,71.0,30.0,30.0,5.0,0.0
6025,70.0,30.0,30.0,5.0,0.0
6026,71.0,30.0,30.0,5.0,0.0
6027,68.0,0.0,30.0,5.0,0.0
6028,32.0,0.0,60.0,3.0,0.0
6029,32.0,0.0,60.0,6.0,0.0
6030,20.0,30.0,60.0,4.0,0.0
6031,44.0,0.0,60.0,8.0,0.0
6032,63.0,30.0,30.0,5.0,0.0
6033,68.0,0.0,30.0,5.0,0.0
6034,73.0,30.0,30.0,5.0,0.0
6035,61.0,0.0,120.0,1.0,0.0
6036,73.0,0.0,120.0,0.0,0.0
6037,34.0,0.0,120.0,3.0,0.0
6038,58.0,0.0,120.0,2.0,0.0
6039,34.0,0.0,120.0,6.0,0.0
6040,22.0,0.0,120.0,4.0,0.0
6041,46.0,0.0,120.0,8.0,0.0
6042,71.0,30.0,30.0,5.0,0.0
6043,73.0,30.0,30.0,5.0,0.0
6044,66.0,30.0,60.0,7.0,0.0
6045,70.0,0.0,30.0,5.0,0.0
6046,67.0,30.0,30.0,5.0,0.0
6047,34.0,0.0,60.0,8.0,0.0
6048,46.0,0.0,60.0,6.0,0.0
6049,64.0,0.0,60.0,7.0,0.0
6050,34.0,30.0,60.0,4.0,0.0
6051,46.0,0.0,60.0,3.0,0.0
6052,70.0,0.0,30.0,5.0,0.0
6053,59.0,0.0,120.0,1.0,0.0
6054,51.0,0.0,120.0,2.0,0.0
6055,75.0,30.0,30.0,5.0,0.0
6056,47.0,0.0,120.0,6.0,0.0
6057,66.0,30.0,120.0,0.0,0.0
6058,35.0,0.0,120.0,8.0,0.0
6059,47.0,0.0,120.0,3.0,0.0
6060,63.0,30.0,240.0,7.0,0.0
6061,35.0,0.0,120.0,4.0,0.0
6062,73.0,30.0,30.0,5.0,0.0
6063,75.0,30.0,30.0,5.0,0.0
6064,71.0,0.0,30.0,5.0,0.0
6065,47.0,30.0,60.0,8.0,0.0
6066,35.0,0.0,60.0,6.0,0.0
6067,35.0,0.0,60.0,3.0,0.0
6068,23.0,0.0,60.0,4.0,0.0
6069,68.0,30.0,30.0,5.0,0.0
6070,71.0,0.0,30.0,5.0,0.0
6071,37.0,0.0,120.0,6.0,0.0
6072,37.0,0.0,120.0,3.0,0.0
6073,25.0,0.0,120.0,4.0,0.0
6074,49.0,0.0,120.0,8.0,0.0
6075,59.0,0.0,120.0,1.0,0.0
6076,56.0,0.0,120.0,2.0,0.0
6077,64.0,30.0,120.0,0.0,0.0
6078,76.0,30.0,30.0,5.0,0.0
6079,75.0,0.0,30.0,5.0,0.0
6080,61.0,0.0,60.0,7.0,0.0
6081,76.0,30.0,30.0,5.0,0.0
6082,73.0,0.0,30.0,5.0,0.0
6083,75.0,30.0,30.0,5.0,0.0
6084,59.0,0.0,60.0,7.0,0.0
6085,76.0,0.0,30.0,5.0,0.0
6086,58.0,0.0,120.0,2.0,0.0
6087,63.0,0.0,120.0,0.0,0.0
6088,58.0,0.0,120.0,1.0,0.0
6089,49.0,0.0,15.0,6.0,0.0
6090,67.0,0.0,60.0,5.0,0.0
6091,37.0,0.0,15.0,8.0,0.0
6092,37.0,60.0,15.0,4.0,0.0
6093,58.0,60.0,60.0,7.0,0.0
6094,49.0,0.0,15.0,3.0,0.0
6095,55.0,0.0,60.0,7.0,0.0
6096,75.0,60.0,60.0,5.0,0.0
6097,75.0,0.0,60.0,0.0,0.0
6098,51.0,0.0,60.0,1.0,0.0
6099,59.0,0.0,60.0,2.0,0.0
6100,47.0,0.0,60.0,6.0,0.0
6101,35.0,0.0,60.0,8.0,0.0
6102,68.0,30.0,120.0,5.0,0.0
6103,35.0,0.0,60.0,4.0,0.0
6104,47.0,60.0,60.0,3.0,0.0
6105,56.0,0.0,60.0,7.0,0.0
6106,34.0,0.0,120.0,4.0,0.0
6107,58.0,0.0,120.0,1.0,0.0
6108,46.0,0.0,120.0,6.0,0.0
6109,61.0,30.0,210.0,7.0,0.0
6110,73.0,0.0,120.0,0.0,0.0
6111,64.0,0.0,120.0,2.0,0.0
6112,34.0,0.0,120.0,8.0,0.0
6113,46.0,60.0,120.0,3.0,0.0
6114,67.0,30.0,30.0,5.0,0.0
6115,65.0,0.0,30.0,5.0,0.0
6116,67.0,0.0,60.0,5.0,0.0
6117,51.0,0.0,60.0,6.0,0.0
6118,39.0,30.0,60.0,4.0,0.0
6119,55.0,0.0,60.0,1.0,0.0
6120,39.0,0.0,60.0,8.0,0.0
6121,51.0,0.0,60.0,3.0,0.0
6122,70.0,0.0,60.0,0.0,0.0
6123,44.0,0.0,120.0,6.0,0.0
6124,44.0,0.0,120.0,3.0,0.0
6125,51.0,0.0,120.0,1.0,0.0
6126,63.0,0.0,15.0,2.0,0.0
6127,68.0,0.0,120.0,5.0,0.0
6128,32.0,0.0,120.0,4.0,0.0
6129,68.0,0.0,120.0,0.0,0.0
6130,32.0,0.0,120.0,8.0,0.0
6131,58.0,30.0,30.0,7.0,0.0
6132,60.0,30.0,30.0,7.0,0.0
6133,61.0,0.0,30.0,7.0,0.0
6134,44.0,0.0,60.0,8.0,0.0
6135,56.0,0.0,60.0,3.0,0.0
6136,56.0,0.0,60.0,6.0,0.0
6137,63.0,30.0,30.0,7.0,0.0
6138,44.0,30.0,60.0,4.0,0.0
6139,64.0,0.0,30.0,7.0,0.0
6140,48.0,0.0,120.0,6.0,0.0
6141,36.0,0.0,120.0,8.0,0.0
6142,48.0,30.0,120.0,3.0,0.0
6143,36.0,0.0,120.0,4.0,0.0
6144,66.0,30.0,30.0,7.0,0.0
6145,69.0,30.0,30.0,7.0,0.0
6146,68.0,30.0,30.0,7.0,0.0
6147,63.0,30.0,150.0,5.0,0.0
6148,66.0,0.0,30.0,7.0,0.0
6149,32.0,0.0,60.0,4.0,0.0
6150,44.0,30.0,60.0,6.0,0.0
6151,60.0,0.0,60.0,1.0,0.0
6152,44.0,0.0,60.0,3.0,0.0
6153,32.0,0.0,60.0,8.0,0.0
6154,66.0,0.0,60.0,0.0,0.0
6155,64.0,30.0,30.0,7.0,0.0
6156,63.0,0.0,30.0,7.0,0.0
6157,56.0,0.0,15.0,2.0,0.0
6158,64.0,30.0,390.0,7.0,0.0
6159,49.0,0.0,120.0,3.0,0.0
6160,49.0,0.0,120.0,6.0,0.0
6161,64.0,0.0,120.0,0.0,0.0
6162,56.0,0.0,120.0,1.0,0.0
6163,37.0,0.0,120.0,4.0,0.0
6164,37.0,0.0,120.0,8.0,0.0
6165,60.0,30.0,30.0,5.0,0.0
6166,61.0,30.0,30.0,5.0,0.0
6167,63.0,0.0,30.0,5.0,0.0
6168,64.0,30.0,30.0,5.0,0.0
6169,57.0,0.0,60.0,3.0,0.0
6170,45.0,0.0,60.0,8.0,0.0
6171,45.0,30.0,60.0,4.0,0.0
6172,57.0,0.0,60.0,6.0,0.0
6173,66.0,0.0,30.0,5.0,0.0
6174,37.0,30.0,120.0,4.0,0.0
6175,49.0,0.0,120.0,3.0,0.0
6176,68.0,30.0,30.0,5.0,0.0
6177,49.0,0.0,120.0,6.0,0.0
6178,37.0,0.0,120.0,8.0,0.0
6179,71.0,30.0,30.0,5.0,0.0
6180,69.0,30.0,30.0,5.0,0.0
6181,68.0,0.0,30.0,5.0,0.0
6182,66.0,30.0,30.0,5.0,0.0
6183,61.0,0.0,60.0,0.0,0.0
6184,45.0,0.0,60.0,3.0,0.0
6185,33.0,0.0,60.0,8.0,0.0
6186,33.0,0.0,60.0,4.0,0.0
6187,45.0,30.0,60.0,6.0,0.0
6188,64.0,0.0,30.0,5.0,0.0
6189,57.0,0.0,15.0,1.0,0.0
6190,39.0,0.0,120.0,8.0,0.0
6191,51.0,0.0,120.0,6.0,0.0
6192,51.0,0.0,120.0,3.0,0.0
6193,39.0,30.0,120.0,4.0,0.0
6194,54.0,0.0,15.0,2.0,0.0
6195,66.0,0.0,180.0,5.0,0.0
6196,59.0,0.0,120.0,0.0,0.0
6197,61.0,30.0,30.0,7.0,0.0
6198,63.0,30.0,30.0,7.0,0.0
6199,64.0,0.0,30.0,7.0,0.0
6200,59.0,0.0,60.0,3.0,0.0
6201,47.0,30.0,60.0,8.0,0.0
6202,59.0,0.0,60.0,6.0,0.0
6203,47.0,0.0,60.0,4.0,0.0
6204,66.0,30.0,30.0,7.0,0.0
6205,68.0,0.0,30.0,7.0,0.0
6206,69.0,30.0,30.0,7.0,0.0
6207,39.0,0.0,120.0,8.0,0.0
6208,51.0,0.0,120.0,3.0,0.0
6209,51.0,0.0,120.0,6.0,0.0
6210,39.0,0.0,120.0,4.0,0.0
6211,73.0,30.0,30.0,7.0,0.0
6212,71.0,30.0,30.0,7.0,0.0
6213,69.0,30.0,30.0,7.0,0.0
6214,63.0,0.0,60.0,0.0,0.0
6215,35.0,0.0,60.0,4.0,0.0
6216,59.0,0.0,60.0,2.0,0.0
6217,47.0,30.0,60.0,3.0,0.0
6218,47.0,0.0,60.0,6.0,0.0
6219,57.0,0.0,60.0,1.0,0.0
6220,68.0,30.0,30.0,7.0,0.0
6221,35.0,0.0,60.0,8.0,0.0
6222,66.0,0.0,30.0,7.0,0.0
6223,40.0,0.0,120.0,6.0,0.0
6224,56.0,0.0,120.0,1.0,0.0
6225,40.0,0.0,120.0,4.0,0.0
6226,64.0,30.0,120.0,0.0,0.0
6227,68.0,30.0,30.0,7.0,0.0
6228,52.0,0.0,120.0,3.0,0.0
6229,59.0,0.0,120.0,2.0,0.0
6230,52.0,0.0,120.0,8.0,0.0
6231,76.0,30.0,240.0,5.0,0.0
6232,66.0,30.0,30.0,7.0,0.0
6233,68.0,30.0,30.0,7.0,0.0
6234,64.0,0.0,30.0,7.0,0.0
6235,40.0,0.0,60.0,3.0,0.0
6236,28.0,30.0,60.0,4.0,0.0
6237,40.0,0.0,60.0,8.0,0.0
6238,52.0,0.0,60.0,6.0,0.0
6239,59.0,30.0,30.0,7.0,0.0
6240,64.0,0.0,30.0,7.0,0.0
6241,69.0,30.0,30.0,7.0,0.0
6242,57.0,0.0,120.0,2.0,0.0
6243,42.0,0.0,120.0,3.0,0.0
6244,54.0,0.0,120.0,6.0,0.0
6245,42.0,30.0,120.0,8.0,0.0
6246,30.0,0.0,120.0,4.0,0.0
6247,54.0,0.0,120.0,1.0,0.0
6248,69.0,0.0,120.0,0.0,0.0
6249,68.0,0.0,30.0,7.0,0.0
6250,75.0,0.0,60.0,5.0,0.0
6251,69.0,30.0,30.0,7.0,0.0
6252,66.0,0.0,30.0,7.0,0.0
6253,63.0,30.0,30.0,7.0,0.0
6254,42.0,0.0,60.0,4.0,0.0
6255,54.0,0.0,60.0,3.0,0.0
6256,73.0,0.0,60.0,5.0,0.0
6257,42.0,30.0,60.0,6.0,0.0
6258,54.0,0.0,60.0,8.0,0.0
6259,66.0,0.0,30.0,7.0,0.0
6260,56.0,0.0,120.0,3.0,0.0
6261,71.0,30.0,240.0,5.0,0.0
6262,71.0,30.0,30.0,7.0,0.0
6263,56.0,0.0,120.0,8.0,0.0
6264,59.0,0.0,120.0,1.0,0.0
6265,68.0,0.0,120.0,0.0,0.0
6266,44.0,0.0,120.0,4.0,0.0
6267,44.0,0.0,120.0,6.0,0.0
6268,52.0,0.0,120.0,2.0,0.0
6269,69.0,30.0,30.0,7.0,0.0
6270,71.0,30.0,30.0,7.0,0.0
6271,68.0,30.0,30.0,7.0,0.0
6272,64.0,30.0,30.0,7.0,0.0
6273,32.0,0.0,60.0,4.0,0.0
6274,56.0,0.0,60.0,6.0,0.0
6275,44.0,0.0,60.0,3.0,0.0
6276,44.0,30.0,60.0,8.0,0.0
6277,68.0,0.0,30.0,7.0,0.0
6278,64.0,0.0,120.0,1.0,0.0
6279,73.0,30.0,30.0,7.0,0.0
6280,73.0,0.0,120.0,0.0,0.0
6281,57.0,0.0,120.0,6.0,0.0
6282,45.0,0.0,120.0,8.0,0.0
6283,33.0,0.0,120.0,4.0,0.0
6284,49.0,30.0,120.0,2.0,0.0
6285,45.0,0.0,120.0,3.0,0.0
6286,71.0,0.0,30.0,7.0,0.0
6287,73.0,30.0,30.0,7.0,0.0
6288,69.0,0.0,60.0,5.0,0.0
6289,69.0,0.0,30.0,7.0,0.0
6290,68.0,60.0,60.0,5.0,0.0
6291,45.0,0.0,60.0,4.0,0.0
6292,57.0,0.0,60.0,8.0,0.0
6293,71.0,30.0,30.0,7.0,0.0
6294,73.0,0.0,30.0,7.0,0.0
6295,45.0,0.0,15.0,6.0,0.0
6296,57.0,0.0,15.0,3.0,0.0
6297,45.0,0.0,120.0,4.0,0.0
6298,66.0,60.0,60.0,5.0,0.0
6299,66.0,60.0,120.0,1.0,0.0
6300,57.0,0.0,120.0,8.0,0.0
6301,63.0,0.0,60.0,7.0,0.0
6302,54.0,0.0,120.0,2.0,0.0
6303,63.0,0.0,60.0,5.0,0.0
6304,71.0,0.0,60.0,7.0,0.0
6305,44.0,0.0,60.0,4.0,0.0
6306,56.0,0.0,60.0,3.0,0.0
6307,56.0,0.0,60.0,8.0,0.0
6308,71.0,0.0,15.0,0.0,0.0
6309,64.0,30.0,120.0,7.0,0.0
6310,47.0,0.0,60.0,2.0,0.0
6311,44.0,60.0,60.0,6.0,0.0
6312,68.0,0.0,60.0,1.0,0.0
6313,64.0,0.0,60.0,5.0,0.0
6314,42.0,0.0,120.0,4.0,0.0
6315,61.0,0.0,120.0,1.0,0.0
6316,69.0,0.0,120.0,0.0,0.0
6317,69.0,60.0,240.0,5.0,0.0
6318,54.0,0.0,120.0,8.0,0.0
6319,54.0,0.0,120.0,2.0,0.0
6320,54.0,0.0,120.0,3.0,0.0
6321,42.0,0.0,120.0,6.0,0.0
6322,63.0,30.0,30.0,7.0,0.0
6323,61.0,60.0,30.0,7.0,0.0
6324,51.0,0.0,60.0,2.0,0.0
6325,47.0,0.0,60.0,8.0,0.0
6326,47.0,60.0,60.0,6.0,0.0
6327,63.0,0.0,60.0,7.0,0.0
6328,66.0,0.0,60.0,0.0,0.0
6329,35.0,0.0,60.0,4.0,0.0
6330,47.0,0.0,60.0,3.0,0.0
6331,40.0,0.0,120.0,4.0,0.0
6332,59.0,0.0,15.0,1.0,0.0
6333,64.0,0.0,120.0,0.0,0.0
6334,40.0,0.0,120.0,6.0,0.0
6335,64.0,0.0,180.0,7.0,0.0
6336,47.0,60.0,120.0,2.0,0.0
6337,52.0,0.0,120.0,8.0,0.0
6338,52.0,0.0,120.0,3.0,0.0
6339,68.0,0.0,60.0,5.0,0.0
6340,56.0,0.0,60.0,3.0,0.0
6341,44.0,0.0,60.0,6.0,0.0
6342,56.0,0.0,60.0,8.0,0.0
6343,71.0,0.0,60.0,5.0,0.0
6344,71.0,0.0,60.0,0.0,0.0
6345,44.0,0.0,60.0,4.0,0.0
6346,52.0,60.0,60.0,2.0,0.0
6347,56.0,0.0,60.0,1.0,0.0
6348,49.0,0.0,120.0,8.0,0.0
6349,76.0,30.0,60.0,5.0,0.0
6350,49.0,0.0,120.0,3.0,0.0
6351,71.0,0.0,120.0,0.0,0.0
6352,68.0,0.0,120.0,1.0,0.0
6353,37.0,30.0,120.0,4.0,0.0
6354,37.0,0.0,120.0,6.0,0.0
6355,78.0,30.0,30.0,5.0,0.0
6356,76.0,0.0,30.0,5.0,0.0
6357,42.0,0.0,60.0,6.0,0.0
6358,66.0,0.0,60.0,1.0,0.0
6359,54.0,29.0,60.0,3.0,0.0
6360,61.0,0.0,15.0,2.0,0.0
6361,75.0,30.0,30.0,5.0,0.0
6362,42.0,0.0,60.0,4.0,0.0
6363,42.0,0.0,60.0,8.0,0.0
6364,70.0,0.0,60.0,0.0,0.0
6365,73.0,0.0,30.0,5.0,0.0
6366,75.0,30.0,30.0,5.0,0.0
6367,71.0,0.0,120.0,0.0,0.0
6368,66.0,29.0,120.0,1.0,0.0
6369,47.0,1.0,120.0,6.0,0.0
6370,59.0,0.0,120.0,2.0,0.0
6371,35.0,0.0,120.0,8.0,0.0
6372,47.0,0.0,120.0,3.0,0.0
6373,71.0,29.0,240.0,7.0,0.0
6374,35.0,0.0,120.0,4.0,0.0
6375,73.0,30.0,30.0,5.0,0.0
6376,75.0,30.0,30.0,5.0,0.0
6377,71.0,0.0,30.0,5.0,0.0
6378,47.0,30.0,60.0,8.0,0.0
6379,35.0,0.0,60.0,3.0,0.0
6380,35.0,0.0,60.0,6.0,0.0
6381,66.0,30.0,30.0,5.0,0.0
6382,23.0,0.0,60.0,4.0,0.0
6383,71.0,0.0,30.0,5.0,0.0
6384,76.0,30.0,30.0,5.0,0.0
6385,49.0,0.0,120.0,8.0,0.0
6386,64.0,0.0,120.0,2.0,0.0
6387,61.0,0.0,120.0,1.0,0.0
6388,37.0,0.0,120.0,6.0,0.0
6389,64.0,0.0,120.0,0.0,0.0
6390,25.0,0.0,120.0,4.0,0.0
6391,37.0,1.0,120.0,3.0,0.0
6392,75.0,1.0,30.0,5.0,0.0
6393,70.0,29.0,60.0,7.0,0.0
6394,76.0,30.0,30.0,5.0,0.0
6395,73.0,0.0,30.0,5.0,0.0
6396,70.0,30.0,30.0,5.0,0.0
6397,49.0,1.0,60.0,6.0,0.0
6398,37.0,0.0,60.0,8.0,0.0
6399,68.0,29.0,60.0,7.0,0.0
6400,49.0,0.0,60.0,3.0,0.0
6401,37.0,0.0,60.0,4.0,0.0
6402,73.0,0.0,30.0,5.0,0.0
6403,51.0,0.0,120.0,3.0,0.0
6404,66.0,29.0,240.0,7.0,0.0
6405,71.0,0.0,120.0,0.0,0.0
6406,39.0,0.0,120.0,4.0,0.0
6407,39.0,0.0,120.0,8.0,0.0
6408,66.0,29.0,120.0,1.0,0.0
6409,78.0,30.0,30.0,5.0,0.0
6410,51.0,0.0,120.0,6.0,0.0
6411,63.0,0.0,120.0,2.0,0.0
6412,76.0,30.0,30.0,5.0,0.0
6413,78.0,30.0,30.0,5.0,0.0
6414,75.0,1.0,30.0,5.0,0.0
6415,51.0,0.0,60.0,8.0,0.0
6416,39.0,0.0,60.0,6.0,0.0
6417,27.0,0.0,60.0,4.0,0.0
6418,71.0,30.0,30.0,5.0,0.0
6419,39.0,0.0,60.0,3.0,0.0
6420,75.0,30.0,30.0,5.0,0.0
6421,28.0,0.0,120.0,4.0,0.0
6422,80.0,30.0,30.0,5.0,0.0
6423,59.0,0.0,120.0,1.0,0.0
6424,71.0,29.0,120.0,0.0,0.0
6425,40.0,0.0,120.0,6.0,0.0
6426,52.0,1.0,120.0,8.0,0.0
6427,40.0,0.0,120.0,3.0,0.0
6428,56.0,0.0,120.0,2.0,0.0
6429,78.0,1.0,30.0,5.0,0.0
6430,64.0,0.0,60.0,7.0,0.0
6431,80.0,30.0,30.0,5.0,0.0
6432,76.0,0.0,30.0,5.0,0.0
6433,52.0,0.0,60.0,3.0,0.0
6434,63.0,59.0,60.0,7.0,0.0
6435,52.0,0.0,60.0,6.0,0.0
6436,40.0,0.0,60.0,8.0,0.0
6437,40.0,1.0,60.0,4.0,0.0
6438,78.0,30.0,30.0,5.0,0.0
6439,80.0,0.0,30.0,5.0,0.0
6440,52.0,1.0,120.0,6.0,0.0
6441,40.0,0.0,120.0,4.0,0.0
6442,61.0,59.0,60.0,7.0,0.0
6443,52.0,0.0,120.0,3.0,0.0
6444,54.0,0.0,120.0,2.0,0.0
6445,73.0,0.0,120.0,0.0,0.0
6446,40.0,0.0,120.0,8.0,0.0
6447,70.0,1.0,60.0,5.0,0.0
6448,58.0,0.0,60.0,7.0,0.0
6449,78.0,0.0,60.0,5.0,0.0
6450,59.0,59.0,60.0,7.0,0.0
6451,71.0,60.0,120.0,5.0,0.0
6452,75.0,0.0,60.0,0.0,0.0
6453,66.0,59.0,15.0,1.0,0.0
6454,51.0,0.0,60.0,3.0,0.0
6455,39.0,0.0,60.0,4.0,0.0
6456,51.0,1.0,60.0,6.0,0.0
6457,39.0,0.0,60.0,8.0,0.0
6458,59.0,0.0,60.0,2.0,0.0
6459,37.0,0.0,120.0,4.0,0.0
6460,64.0,29.0,240.0,7.0,0.0
6461,61.0,59.0,120.0,2.0,0.0
6462,49.0,1.0,120.0,3.0,0.0
6463,37.0,0.0,120.0,8.0,0.0
6464,68.0,0.0,120.0,0.0,0.0
6465,64.0,0.0,120.0,1.0,0.0
6466,49.0,0.0,120.0,6.0,0.0
6467,68.0,0.0,60.0,5.0,0.0
6468,58.0,0.0,60.0,2.0,0.0
6469,61.0,0.0,60.0,1.0,0.0
6470,42.0,30.0,60.0,8.0,0.0
6471,42.0,0.0,60.0,6.0,0.0
6472,30.0,0.0,60.0,4.0,0.0
6473,70.0,0.0,60.0,5.0,0.0
6474,42.0,0.0,60.0,3.0,0.0
6475,66.0,0.0,60.0,0.0,0.0
6476,35.0,0.0,120.0,8.0,0.0
6477,47.0,1.0,120.0,6.0,0.0
6478,71.0,30.0,30.0,5.0,0.0
6479,35.0,0.0,120.0,4.0,0.0
6480,66.0,0.0,120.0,0.0,0.0
6481,54.0,0.0,120.0,2.0,0.0
6482,47.0,0.0,120.0,3.0,0.0
6483,59.0,0.0,120.0,1.0,0.0
6484,70.0,1.0,30.0,5.0,0.0
6485,63.0,29.0,60.0,7.0,0.0
6486,71.0,30.0,30.0,5.0,0.0
6487,75.0,0.0,30.0,5.0,0.0
6488,49.0,0.0,60.0,3.0,0.0
6489,70.0,30.0,30.0,5.0,0.0
6490,37.0,0.0,60.0,8.0,0.0
6491,37.0,0.0,60.0,4.0,0.0
6492,49.0,1.0,60.0,6.0,0.0
6493,64.0,29.0,60.0,7.0,0.0
6494,73.0,0.0,30.0,5.0,0.0
6495,66.0,29.0,120.0,7.0,0.0
6496,51.0,1.0,120.0,3.0,0.0
6497,39.0,0.0,120.0,4.0,0.0
6498,51.0,0.0,120.0,6.0,0.0
6499,39.0,0.0,120.0,8.0,0.0
6500,71.0,30.0,30.0,5.0,0.0
6501,73.0,30.0,30.0,5.0,0.0
6502,75.0,30.0,30.0,5.0,0.0
6503,76.0,0.0,30.0,5.0,0.0
6504,78.0,30.0,30.0,5.0,0.0
6505,35.0,30.0,60.0,4.0,0.0
6506,47.0,0.0,60.0,6.0,0.0
6507,47.0,0.0,60.0,3.0,0.0
6508,51.0,0.0,60.0,2.0,0.0
6509,57.0,29.0,120.0,7.0,0.0
6510,59.0,0.0,60.0,1.0,0.0
6511,35.0,0.0,60.0,8.0,0.0
6512,78.0,0.0,120.0,0.0,0.0
6513,75.0,0.0,30.0,5.0,0.0
6514,52.0,29.0,120.0,2.0,0.0
6515,52.0,0.0,120.0,3.0,0.0
6516,52.0,0.0,120.0,6.0,0.0
6517,40.0,0.0,120.0,8.0,0.0
6518,71.0,30.0,30.0,5.0,0.0
6519,40.0,1.0,120.0,4.0,0.0
6520,59.0,0.0,120.0,1.0,0.0
6521,69.0,1.0,30.0,5.0,0.0
6522,56.0,0.0,60.0,7.0,0.0
6523,76.0,0.0,60.0,0.0,0.0
6524,71.0,30.0,30.0,5.0,0.0
6525,76.0,0.0,30.0,5.0,0.0
6526,59.0,29.0,60.0,7.0,0.0
6527,39.0,0.0,60.0,4.0,0.0
6528,39.0,0.0,60.0,8.0,0.0
6529,68.0,30.0,30.0,5.0,0.0
6530,51.0,0.0,60.0,3.0,0.0
6531,51.0,1.0,60.0,6.0,0.0
6532,71.0,0.0,30.0,5.0,0.0
6533,70.0,30.0,30.0,5.0,0.0
6534,49.0,1.0,120.0,6.0,0.0
6535,37.0,0.0,120.0,8.0,0.0
6536,64.0,29.0,120.0,7.0,0.0
6537,49.0,0.0,120.0,3.0,0.0
6538,37.0,0.0,120.0,4.0,0.0
6539,71.0,30.0,30.0,5.0,0.0
6540,73.0,30.0,30.0,5.0,0.0
6541,75.0,0.0,30.0,5.0,0.0
6542,76.0,30.0,30.0,5.0,0.0
6543,46.0,0.0,60.0,3.0,0.0
6544,34.0,0.0,60.0,4.0,0.0
6545,56.0,29.0,120.0,7.0,0.0
6546,76.0,0.0,120.0,0.0,0.0
6547,46.0,1.0,60.0,6.0,0.0
6548,49.0,29.0,60.0,2.0,0.0
6549,34.0,0.0,60.0,8.0,0.0
6550,58.0,0.0,60.0,1.0,0.0
6551,73.0,0.0,30.0,5.0,0.0
6552,70.0,30.0,30.0,5.0,0.0
6553,51.0,1.0,120.0,3.0,0.0
6554,58.0,29.0,120.0,1.0,0.0
6555,51.0,0.0,120.0,2.0,0.0
6556,51.0,0.0,120.0,6.0,0.0
6557,39.0,0.0,120.0,4.0,0.0
6558,39.0,0.0,120.0,8.0,0.0
6559,68.0,1.0,30.0,5.0,0.0
6560,70.0,30.0,30.0,5.0,0.0
6561,75.0,0.0,60.0,0.0,0.0
6562,54.0,0.0,60.0,7.0,0.0
6563,75.0,0.0,30.0,5.0,0.0
6564,49.0,0.0,60.0,3.0,0.0
6565,66.0,30.0,30.0,5.0,0.0
6566,58.0,29.0,60.0,7.0,0.0
6567,49.0,0.0,60.0,6.0,0.0
6568,37.0,0.0,60.0,4.0,0.0
6569,37.0,1.0,60.0,8.0,0.0
6570,70.0,0.0,30.0,5.0,0.0
6571,35.0,1.0,120.0,8.0,0.0
6572,63.0,29.0,120.0,7.0,0.0
6573,35.0,0.0,120.0,4.0,0.0
6574,68.0,30.0,30.0,5.0,0.0
6575,47.0,0.0,120.0,3.0,0.0
6576,47.0,0.0,120.0,6.0,0.0
6577,70.0,30.0,30.0,5.0,0.0
6578,71.0,30.0,30.0,5.0,0.0
6579,73.0,0.0,30.0,5.0,0.0
6580,32.0,0.0,60.0,8.0,0.0
6581,75.0,0.0,120.0,0.0,0.0
6582,44.0,0.0,60.0,6.0,0.0
6583,32.0,1.0,60.0,4.0,0.0
6584,44.0,0.0,60.0,3.0,0.0
6585,47.0,29.0,60.0,2.0,0.0
6586,56.0,0.0,60.0,1.0,0.0
6587,54.0,29.0,120.0,7.0,0.0
6588,75.0,30.0,30.0,5.0,0.0
6589,71.0,0.0,30.0,5.0,0.0
6590,49.0,0.0,120.0,6.0,0.0
6591,49.0,0.0,120.0,2.0,0.0
6592,37.0,0.0,120.0,8.0,0.0
6593,68.0,30.0,30.0,5.0,0.0
6594,56.0,0.0,120.0,1.0,0.0
6595,37.0,1.0,120.0,4.0,0.0
6596,49.0,0.0,120.0,3.0,0.0
6597,66.0,1.0,30.0,5.0,0.0
6598,68.0,30.0,30.0,5.0,0.0
6599,52.0,29.0,60.0,7.0,0.0
6600,73.0,0.0,60.0,0.0,0.0
6601,73.0,0.0,30.0,5.0,0.0
6602,47.0,0.0,60.0,6.0,0.0
6603,47.0,0.0,60.0,3.0,0.0
6604,56.0,29.0,60.0,7.0,0.0
6605,35.0,0.0,60.0,8.0,0.0
6606,35.0,1.0,60.0,4.0,0.0
6607,64.0,30.0,30.0,5.0,0.0
6608,68.0,0.0,30.0,5.0,0.0
6609,66.0,30.0,30.0,5.0,0.0
6610,34.0,0.0,120.0,4.0,0.0
6611,46.0,1.0,120.0,3.0,0.0
6612,46.0,0.0,120.0,6.0,0.0
6613,61.0,29.0,120.0,7.0,0.0
6614,34.0,0.0,120.0,8.0,0.0
6615,68.0,30.0,30.0,5.0,0.0
6616,70.0,30.0,30.0,5.0,0.0
6617,71.0,0.0,30.0,5.0,0.0
6618,54.0,0.0,60.0,2.0,0.0
6619,42.0,0.0,60.0,6.0,0.0
6620,73.0,30.0,30.0,5.0,0.0
6621,30.0,0.0,60.0,4.0,0.0
6622,73.0,0.0,120.0,0.0,0.0
6623,58.0,29.0,60.0,1.0,0.0
6624,42.0,0.0,60.0,3.0,0.0
6625,52.0,29.0,120.0,7.0,0.0
6626,42.0,0.0,60.0,8.0,0.0
6627,70.0,1.0,30.0,5.0,0.0
6628,47.0,1.0,120.0,8.0,0.0
6629,66.0,30.0,30.0,5.0,0.0
6630,47.0,0.0,120.0,3.0,0.0
6631,54.0,29.0,120.0,2.0,0.0
6632,47.0,0.0,120.0,6.0,0.0
6633,35.0,0.0,120.0,4.0,0.0
6634,64.0,1.0,30.0,5.0,0.0
6635,71.0,0.0,60.0,0.0,0.0
6636,66.0,30.0,30.0,5.0,0.0
6637,51.0,0.0,60.0,7.0,0.0
6638,71.0,0.0,30.0,5.0,0.0
6639,59.0,0.0,15.0,1.0,0.0
6640,64.0,0.0,60.0,0.0,0.0
6641,54.0,59.0,60.0,7.0,0.0
6642,32.0,0.0,60.0,4.0,0.0
6643,56.0,0.0,60.0,6.0,0.0
6644,64.0,30.0,30.0,5.0,0.0
6645,44.0,0.0,60.0,8.0,0.0
6646,44.0,1.0,60.0,3.0,0.0
6647,47.0,0.0,60.0,2.0,0.0
6648,54.0,0.0,120.0,6.0,0.0
6649,42.0,0.0,120.0,3.0,0.0
6650,30.0,1.0,120.0,4.0,0.0
6651,54.0,0.0,120.0,2.0,0.0
6652,63.0,1.0,60.0,0.0,0.0
6653,63.0,0.0,60.0,5.0,0.0
6654,59.0,0.0,60.0,7.0,0.0
6655,42.0,0.0,120.0,8.0,0.0
6656,61.0,59.0,60.0,1.0,0.0
6657,61.0,0.0,60.0,7.0,0.0
6658,64.0,0.0,60.0,0.0,0.0
6659,64.0,0.0,60.0,5.0,0.0
6660,61.0,0.0,60.0,5.0,0.0
6661,52.0,30.0,60.0,2.0,0.0
6662,42.0,0.0,60.0,8.0,0.0
6663,61.0,0.0,60.0,0.0,0.0
6664,30.0,0.0,60.0,4.0,0.0
6665,58.0,0.0,60.0,1.0,0.0
6666,42.0,1.0,60.0,6.0,0.0
6667,58.0,0.0,60.0,7.0,0.0
6668,42.0,0.0,60.0,3.0,0.0
6669,59.0,1.0,120.0,5.0,0.0
6670,47.0,0.0,120.0,6.0,0.0
6671,59.0,0.0,120.0,1.0,0.0
6672,35.0,0.0,120.0,3.0,0.0
6673,23.0,0.0,120.0,4.0,0.0
6674,59.0,30.0,30.0,7.0,0.0
6675,59.0,0.0,120.0,0.0,0.0
6676,51.0,0.0,120.0,2.0,0.0
6677,35.0,0.0,120.0,8.0,0.0
6678,54.0,30.0,30.0,7.0,0.0
6679,56.0,29.0,30.0,7.0,0.0
6680,52.0,30.0,30.0,7.0,0.0
6681,54.0,29.0,30.0,7.0,0.0
6682,47.0,1.0,60.0,8.0,0.0
6683,35.0,29.0,15.0,6.0,0.0
6684,47.0,0.0,120.0,8.0,0.0
6685,64.0,59.0,30.0,7.0,0.0
6686,56.0,1.0,30.0,5.0,0.0
6687,54.0,1.0,30.0,5.0,0.0
6688,63.0,29.0,30.0,7.0,0.0
6689,47.0,29.0,60.0,6.0,0.0
6690,61.0,29.0,30.0,7.0,0.0
6691,52.0,1.0,30.0,5.0,0.0
6692,35.0,1.0,60.0,8.0,0.0
6693,35.0,0.0,120.0,3.0,0.0
6694,35.0,0.0,120.0,8.0,0.0
6695,47.0,0.0,120.0,6.0,0.0
6696,59.0,29.0,120.0,7.0,0.0
6697,51.0,30.0,30.0,5.0,0.0
6698,23.0,1.0,120.0,4.0,0.0
6699,54.0,30.0,30.0,5.0,0.0
6700,56.0,30.0,30.0,5.0,0.0
6701,52.0,0.0,30.0,5.0,0.0
6702,54.0,30.0,30.0,5.0,0.0
6703,35.0,29.0,60.0,6.0,0.0
6704,47.0,1.0,60.0,8.0,0.0
6705,64.0,1.0,30.0,5.0,0.0
6706,47.0,30.0,120.0,8.0,0.0
6707,35.0,0.0,120.0,6.0,0.0
6708,56.0,59.0,30.0,7.0,0.0
6709,63.0,1.0,30.0,5.0,0.0
6710,54.0,29.0,30.0,7.0,0.0
6711,61.0,1.0,30.0,5.0,0.0
6712,35.0,1.0,60.0,8.0,0.0
6713,52.0,29.0,30.0,7.0,0.0
6714,47.0,59.0,15.0,6.0,0.0
6715,51.0,59.0,120.0,7.0,0.0
6716,35.0,0.0,120.0,8.0,0.0
6717,35.0,0.0,120.0,3.0,0.0
6718,23.0,1.0,120.0,4.0,0.0
6719,59.0,60.0,60.0,5.0,0.0
6720,68.0,60.0,180.0,5.0,0.0
6721,68.0,0.0,60.0,0.0,0.0
6722,59.0,60.0,60.0,2.0,0.0
6723,64.0,0.0,60.0,1.0,0.0
6724,56.0,0.0,120.0,2.0,0.0
6725,47.0,60.0,120.0,8.0,0.0
6726,59.0,0.0,120.0,1.0,0.0
6727,64.0,30.0,210.0,7.0,0.0
6728,64.0,0.0,120.0,0.0,0.0
6729,35.0,0.0,120.0,6.0,0.0
6730,35.0,0.0,120.0,4.0,0.0
6731,47.0,0.0,120.0,3.0,0.0
6732,70.0,0.0,60.0,5.0,0.0
6733,52.0,31.0,60.0,2.0,0.0
6734,59.0,0.0,60.0,0.0,0.0
6735,71.0,0.0,60.0,5.0,0.0
6736,56.0,0.0,60.0,1.0,0.0
6737,47.0,0.0,120.0,6.0,0.0
6738,23.0,0.0,120.0,4.0,0.0
6739,35.0,0.0,120.0,3.0,0.0
6740,35.0,31.0,120.0,8.0,0.0
6741,66.0,60.0,240.0,5.0,0.0
6742,63.0,30.0,30.0,7.0,0.0
6743,70.0,29.0,30.0,7.0,0.0
6744,66.0,60.0,60.0,0.0,0.0
6745,63.0,0.0,60.0,1.0,0.0
6746,71.0,29.0,30.0,7.0,0.0
6747,59.0,0.0,60.0,2.0,0.0
6748,35.0,0.0,120.0,6.0,0.0
6749,47.0,0.0,120.0,8.0,0.0
6750,63.0,30.0,210.0,7.0,0.0
6751,63.0,60.0,120.0,0.0,0.0
6752,47.0,0.0,120.0,3.0,0.0
6753,35.0,0.0,120.0,4.0,0.0
6754,59.0,0.0,120.0,1.0,0.0
6755,54.0,0.0,120.0,2.0,0.0
6756,70.0,0.0,60.0,5.0,0.0
6757,54.0,0.0,60.0,1.0,0.0
6758,51.0,0.0,60.0,2.0,0.0
6759,71.0,0.0,60.0,5.0,0.0
6760,59.0,31.0,60.0,0.0,0.0
6761,35.0,0.0,120.0,3.0,0.0
6762,47.0,0.0,120.0,6.0,0.0
6763,23.0,0.0,120.0,4.0,0.0
6764,64.0,60.0,240.0,5.0,0.0
6765,35.0,31.0,120.0,8.0,0.0
6766,61.0,30.0,30.0,7.0,0.0
6767,70.0,29.0,30.0,7.0,0.0
6768,71.0,29.0,30.0,7.0,0.0
6769,64.0,0.0,60.0,0.0,0.0
6770,59.0,60.0,60.0,1.0,0.0
6771,56.0,0.0,60.0,2.0,0.0
6772,52.0,0.0,120.0,2.0,0.0
6773,35.0,0.0,120.0,4.0,0.0
6774,35.0,0.0,120.0,6.0,0.0
6775,58.0,0.0,120.0,1.0,0.0
6776,47.0,0.0,120.0,3.0,0.0
6777,61.0,29.0,210.0,7.0,0.0
6778,61.0,30.0,120.0,0.0,0.0
6779,47.0,0.0,120.0,8.0,0.0
6780,70.0,15.0,90.0,5.0,0.0
6781,52.0,0.0,60.0,1.0,0.0
6782,58.0,0.0,60.0,0.0,0.0
6783,49.0,31.0,60.0,2.0,0.0
6784,71.0,15.0,15.0,5.0,0.0
6785,73.0,0.0,15.0,5.0,0.0
6786,47.0,29.0,180.0,2.0,0.0
6787,63.0,30.0,210.0,5.0,0.0
6788,47.0,1.0,60.0,6.0,0.0
6789,54.0,0.0,180.0,1.0,0.0
6790,23.0,0.0,60.0,4.0,0.0
6791,63.0,0.0,120.0,0.0,0.0
6792,35.0,0.0,60.0,8.0,0.0
6793,35.0,0.0,60.0,3.0,0.0
6794,59.0,30.0,30.0,7.0,0.0
6795,37.0,0.0,60.0,3.0,0.0
6796,37.0,0.0,60.0,8.0,0.0
6797,70.0,29.0,30.0,7.0,0.0
6798,49.0,0.0,60.0,6.0,0.0
6799,25.0,31.0,60.0,4.0,0.0
6800,27.0,0.0,60.0,4.0,0.0
6801,39.0,0.0,60.0,3.0,0.0
6802,51.0,1.0,60.0,6.0,0.0
6803,39.0,0.0,60.0,8.0,0.0
6804,71.0,29.0,30.0,7.0,0.0
6805,59.0,29.0,240.0,7.0,0.0
6806,32.0,0.0,120.0,8.0,0.0
6807,32.0,0.0,120.0,3.0,0.0
6808,20.0,10.0,120.0,4.0,0.0
6809,44.0,0.0,120.0,6.0,0.0
6810,65.0,10.0,30.0,5.0,0.0
6811,66.0,10.0,15.0,5.0,0.0
6812,65.0,10.0,15.0,5.0,0.0
6813,66.0,10.0,15.0,5.0,0.0
6814,65.0,10.0,15.0,5.0,0.0
6815,66.0,10.0,15.0,5.0,0.0
6816,65.0,0.0,15.0,5.0,0.0
6817,66.0,10.0,15.0,5.0,0.0
6818,37.0,30.0,60.0,3.0,0.0
6819,25.0,0.0,60.0,4.0,0.0
6820,49.0,0.0,60.0,6.0,0.0
6821,37.0,0.0,60.0,8.0,0.0
6822,65.0,10.0,15.0,5.0,0.0
6823,66.0,10.0,15.0,5.0,0.0
6824,65.0,10.0,15.0,5.0,0.0
6825,63.0,10.0,15.0,5.0,0.0
6826,65.0,0.0,15.0,5.0,0.0
6827,42.0,1.0,120.0,6.0,0.0
6828,42.0,0.0,120.0,8.0,0.0
6829,30.0,0.0,120.0,4.0,0.0
6830,66.0,30.0,30.0,5.0,0.0
6831,42.0,0.0,120.0,3.0,0.0
6832,65.0,1.0,30.0,5.0,0.0
6833,58.0,29.0,60.0,7.0,0.0
6834,66.0,30.0,30.0,5.0,0.0
6835,70.0,0.0,30.0,5.0,0.0
6836,44.0,30.0,60.0,8.0,0.0
6837,32.0,0.0,60.0,4.0,0.0
6838,65.0,30.0,30.0,5.0,0.0
6839,44.0,0.0,60.0,3.0,0.0
6840,44.0,0.0,60.0,6.0,0.0
6841,68.0,0.0,30.0,5.0,0.0
6842,66.0,30.0,30.0,5.0,0.0
6843,34.0,0.0,120.0,4.0,0.0
6844,46.0,1.0,120.0,8.0,0.0
6845,46.0,0.0,120.0,3.0,0.0
6846,73.0,29.0,120.0,7.0,0.0
6847,46.0,0.0,120.0,6.0,0.0
6848,68.0,30.0,30.0,5.0,0.0
6849,70.0,30.0,30.0,5.0,0.0
6850,71.0,0.0,30.0,5.0,0.0
6851,42.0,0.0,60.0,3.0,0.0
6852,58.0,0.0,60.0,2.0,0.0
6853,30.0,1.0,60.0,4.0,0.0
6854,42.0,0.0,60.0,6.0,0.0
6855,73.0,0.0,120.0,0.0,0.0
6856,64.0,29.0,120.0,7.0,0.0
6857,73.0,30.0,30.0,5.0,0.0
6858,42.0,0.0,60.0,8.0,0.0
6859,70.0,0.0,30.0,5.0,0.0
6860,66.0,30.0,30.0,5.0,0.0
6861,35.0,1.0,120.0,4.0,0.0
6862,66.0,29.0,15.0,1.0,0.0
6863,59.0,0.0,120.0,2.0,0.0
6864,47.0,0.0,120.0,3.0,0.0
6865,47.0,0.0,120.0,6.0,0.0
6866,47.0,0.0,120.0,8.0,0.0
6867,64.0,1.0,30.0,5.0,0.0
6868,63.0,0.0,60.0,7.0,0.0
6869,71.0,0.0,60.0,0.0,0.0
6870,66.0,30.0,30.0,5.0,0.0
6871,71.0,0.0,30.0,5.0,0.0
6872,66.0,29.0,60.0,7.0,0.0
6873,63.0,30.0,30.0,5.0,0.0
6874,46.0,0.0,60.0,3.0,0.0
6875,46.0,0.0,60.0,6.0,0.0
6876,34.0,0.0,60.0,4.0,0.0
6877,46.0,0.0,60.0,8.0,0.0
6878,66.0,1.0,30.0,5.0,0.0
6879,32.0,0.0,120.0,4.0,0.0
6880,44.0,0.0,120.0,8.0,0.0
6881,71.0,29.0,120.0,7.0,0.0
6882,44.0,0.0,120.0,6.0,0.0
6883,44.0,0.0,120.0,3.0,0.0
6884,65.0,30.0,30.0,5.0,0.0
6885,66.0,30.0,30.0,5.0,0.0
6886,68.0,30.0,30.0,5.0,0.0
6887,70.0,1.0,30.0,5.0,0.0
6888,63.0,29.0,120.0,7.0,0.0
6889,41.0,0.0,60.0,3.0,0.0
6890,71.0,30.0,30.0,5.0,0.0
6891,56.0,29.0,60.0,2.0,0.0
6892,71.0,1.0,120.0,0.0,0.0
6893,29.0,0.0,60.0,4.0,0.0
6894,41.0,0.0,60.0,6.0,0.0
6895,41.0,0.0,60.0,8.0,0.0
6896,68.0,1.0,30.0,5.0,0.0
6897,65.0,30.0,30.0,5.0,0.0
6898,46.0,0.0,120.0,8.0,0.0
6899,46.0,0.0,120.0,3.0,0.0
6900,58.0,0.0,120.0,2.0,0.0
6901,65.0,0.0,15.0,1.0,0.0
6902,34.0,0.0,120.0,4.0,0.0
6903,46.0,0.0,120.0,6.0,0.0
6904,63.0,0.0,30.0,5.0,0.0
6905,70.0,1.0,60.0,0.0,0.0
6906,61.0,0.0,60.0,7.0,0.0
6907,65.0,30.0,30.0,5.0,0.0
6908,70.0,0.0,30.0,5.0,0.0
6909,61.0,30.0,30.0,5.0,0.0
6910,65.0,29.0,60.0,7.0,0.0
6911,44.0,1.0,60.0,3.0,0.0
6912,32.0,0.0,60.0,4.0,0.0
6913,44.0,0.0,60.0,8.0,0.0
6914,44.0,0.0,60.0,6.0,0.0
6915,65.0,0.0,30.0,5.0,0.0
6916,63.0,30.0,30.0,5.0,0.0
6917,42.0,0.0,120.0,6.0,0.0
6918,30.0,0.0,120.0,4.0,0.0
6919,70.0,29.0,120.0,7.0,0.0
6920,42.0,0.0,120.0,8.0,0.0
6921,42.0,0.0,120.0,3.0,0.0
6922,65.0,30.0,30.0,5.0,0.0
6923,66.0,30.0,30.0,5.0,0.0
6924,68.0,1.0,30.0,5.0,0.0
6925,70.0,1.0,120.0,0.0,0.0
6926,39.0,0.0,60.0,3.0,0.0
6927,70.0,30.0,30.0,5.0,0.0
6928,54.0,0.0,60.0,2.0,0.0
6929,27.0,30.0,60.0,4.0,0.0
6930,39.0,0.0,60.0,6.0,0.0
6931,63.0,0.0,60.0,1.0,0.0
6932,61.0,29.0,120.0,7.0,0.0
6933,39.0,0.0,60.0,8.0,0.0
6934,66.0,0.0,30.0,5.0,0.0
6935,32.0,0.0,120.0,4.0,0.0
6936,56.0,0.0,120.0,2.0,0.0
6937,44.0,0.0,120.0,6.0,0.0
6938,44.0,1.0,120.0,8.0,0.0
6939,63.0,29.0,120.0,1.0,0.0
6940,63.0,30.0,30.0,5.0,0.0
6941,44.0,0.0,120.0,3.0,0.0
6942,61.0,0.0,30.0,5.0,0.0
6943,59.0,0.0,60.0,7.0,0.0
6944,68.0,0.0,60.0,0.0,0.0
6945,63.0,30.0,30.0,5.0,0.0
6946,68.0,0.0,30.0,5.0,0.0
6947,42.0,0.0,60.0,3.0,0.0
6948,59.0,30.0,30.0,5.0,0.0
6949,42.0,0.0,60.0,6.0,0.0
6950,63.0,29.0,60.0,7.0,0.0
6951,30.0,1.0,60.0,4.0,0.0
6952,42.0,0.0,60.0,8.0,0.0
6953,63.0,0.0,30.0,5.0,0.0
6954,61.0,30.0,30.0,5.0,0.0
6955,41.0,1.0,120.0,3.0,0.0
6956,41.0,0.0,120.0,6.0,0.0
6957,41.0,0.0,120.0,8.0,0.0
6958,68.0,29.0,120.0,7.0,0.0
6959,29.0,0.0,120.0,4.0,0.0
6960,63.0,30.0,30.0,5.0,0.0
6961,65.0,30.0,30.0,5.0,0.0
6962,66.0,0.0,30.0,5.0,0.0
6963,59.0,29.0,120.0,7.0,0.0
6964,68.0,30.0,30.0,5.0,0.0
6965,65.0,0.0,60.0,1.0,0.0
6966,37.0,0.0,60.0,6.0,0.0
6967,61.0,0.0,60.0,2.0,0.0
6968,68.0,30.0,60.0,0.0,0.0
6969,37.0,0.0,60.0,3.0,0.0
6970,37.0,0.0,60.0,8.0,0.0
6971,25.0,0.0,60.0,4.0,0.0
6972,65.0,0.0,30.0,5.0,0.0
6973,54.0,0.0,120.0,8.0,0.0
6974,42.0,0.0,120.0,3.0,0.0
6975,42.0,0.0,120.0,6.0,0.0
6976,66.0,0.0,120.0,0.0,0.0
6977,30.0,0.0,120.0,4.0,0.0
6978,61.0,0.0,120.0,1.0,0.0
6979,66.0,30.0,30.0,5.0,0.0
6980,49.0,0.0,120.0,2.0,0.0
6981,61.0,1.0,30.0,5.0,0.0
6982,63.0,30.0,30.0,5.0,0.0
6983,58.0,29.0,60.0,7.0,0.0
6984,59.0,1.0,30.0,5.0,0.0
6985,61.0,31.0,30.0,5.0,0.0
6986,54.0,0.0,15.0,6.0,0.0
6987,63.0,0.0,30.0,7.0,0.0
6988,42.0,29.0,15.0,8.0,0.0
6989,71.0,60.0,30.0,5.0,0.0
6990,61.0,30.0,30.0,7.0,0.0
6991,70.0,0.0,30.0,5.0,0.0
6992,59.0,0.0,30.0,7.0,0.0
6993,54.0,0.0,60.0,8.0,0.0
6994,68.0,31.0,30.0,5.0,0.0
6995,30.0,0.0,120.0,4.0,0.0
6996,54.0,0.0,120.0,8.0,0.0
6997,42.0,29.0,15.0,6.0,0.0
6998,42.0,0.0,120.0,3.0,0.0
6999,58.0,30.0,30.0,7.0,0.0
7000,66.0,30.0,120.0,5.0,0.0
7001,61.0,30.0,30.0,7.0,0.0
7002,63.0,30.0,30.0,7.0,0.0
7003,59.0,0.0,30.0,7.0,0.0
7004,54.0,29.0,60.0,6.0,0.0
7005,61.0,31.0,30.0,7.0,0.0
7006,71.0,0.0,30.0,7.0,0.0
7007,42.0,0.0,15.0,8.0,0.0
7008,54.0,0.0,120.0,6.0,0.0
7009,63.0,60.0,30.0,5.0,0.0
7010,70.0,0.0,30.0,7.0,0.0
7011,61.0,30.0,30.0,5.0,0.0
7012,68.0,31.0,30.0,7.0,0.0
7013,42.0,0.0,60.0,6.0,0.0
7014,59.0,0.0,30.0,5.0,0.0
7015,42.0,0.0,120.0,3.0,0.0
7016,30.0,0.0,120.0,4.0,0.0
7017,58.0,0.0,120.0,5.0,0.0
7018,42.0,60.0,120.0,6.0,0.0
7019,54.0,60.0,15.0,8.0,0.0
7020,66.0,59.0,60.0,7.0,0.0
7021,75.0,60.0,180.0,7.0,0.0
7022,71.0,0.0,60.0,1.0,0.0
7023,75.0,0.0,60.0,0.0,0.0
7024,66.0,60.0,60.0,2.0,0.0
7025,54.0,0.0,120.0,6.0,0.0
7026,63.0,0.0,120.0,2.0,0.0
7027,42.0,60.0,120.0,8.0,0.0
7028,54.0,0.0,120.0,3.0,0.0
7029,71.0,0.0,120.0,0.0,0.0
7030,66.0,0.0,120.0,1.0,0.0
7031,42.0,0.0,120.0,4.0,0.0
7032,71.0,29.0,210.0,5.0,0.0
7033,77.0,0.0,60.0,7.0,0.0
7034,66.0,0.0,60.0,0.0,0.0
7035,59.0,0.0,60.0,2.0,0.0
7036,78.0,31.0,60.0,7.0,0.0
7037,63.0,0.0,60.0,1.0,0.0
7038,73.0,60.0,240.0,7.0,0.0
7039,30.0,30.0,120.0,4.0,0.0
7040,54.0,0.0,120.0,8.0,0.0
7041,42.0,0.0,120.0,3.0,0.0
7042,42.0,0.0,120.0,6.0,0.0
7043,70.0,30.0,30.0,5.0,0.0
7044,77.0,30.0,30.0,5.0,0.0
7045,73.0,0.0,60.0,0.0,0.0
7046,78.0,30.0,30.0,5.0,0.0
7047,70.0,60.0,60.0,1.0,0.0
7048,66.0,0.0,60.0,2.0,0.0
7049,54.0,0.0,120.0,3.0,0.0
7050,42.0,0.0,120.0,8.0,0.0
7051,70.0,0.0,120.0,0.0,0.0
7052,42.0,0.0,120.0,4.0,0.0
7053,70.0,29.0,210.0,5.0,0.0
7054,54.0,0.0,120.0,6.0,0.0
7055,61.0,60.0,120.0,2.0,0.0
7056,66.0,0.0,120.0,1.0,0.0
7057,77.0,0.0,60.0,7.0,0.0
7058,61.0,0.0,60.0,1.0,0.0
7059,58.0,0.0,60.0,2.0,0.0
7060,78.0,31.0,60.0,7.0,0.0
7061,66.0,0.0,60.0,0.0,0.0
7062,71.0,60.0,240.0,7.0,0.0
7063,42.0,0.0,120.0,3.0,0.0
7064,42.0,0.0,120.0,6.0,0.0
7065,30.0,30.0,120.0,4.0,0.0
7066,54.0,0.0,120.0,8.0,0.0
7067,68.0,30.0,30.0,5.0,0.0
7068,77.0,30.0,30.0,5.0,0.0
7069,63.0,60.0,60.0,2.0,0.0
7070,66.0,0.0,60.0,1.0,0.0
7071,71.0,0.0,60.0,0.0,0.0
7072,78.0,30.0,30.0,5.0,0.0
7073,59.0,0.0,120.0,2.0,0.0
7074,68.0,0.0,120.0,0.0,0.0
7075,54.0,0.0,120.0,6.0,0.0
7076,65.0,0.0,120.0,1.0,0.0
7077,54.0,0.0,120.0,3.0,0.0
7078,68.0,29.0,210.0,5.0,0.0
7079,42.0,30.0,120.0,4.0,0.0
7080,42.0,0.0,120.0,8.0,0.0
7081,77.0,15.0,90.0,7.0,0.0
7082,59.0,0.0,60.0,1.0,0.0
7083,65.0,31.0,60.0,0.0,0.0
7084,56.0,0.0,60.0,2.0,0.0
7085,78.0,15.0,15.0,7.0,0.0
7086,80.0,0.0,15.0,7.0,0.0
7087,30.0,0.0,60.0,4.0,0.0
7088,42.0,0.0,60.0,6.0,0.0
7089,54.0,0.0,60.0,8.0,0.0
7090,70.0,9.0,210.0,7.0,0.0
7091,54.0,0.0,120.0,2.0,0.0
7092,42.0,30.0,60.0,3.0,0.0
7093,61.0,0.0,120.0,1.0,0.0
7094,70.0,0.0,120.0,0.0,0.0
7095,66.0,0.0,30.0,5.0,0.0
7096,44.0,0.0,60.0,6.0,0.0
7097,56.0,30.0,60.0,8.0,0.0
7098,77.0,30.0,30.0,5.0,0.0
7099,44.0,0.0,60.0,3.0,0.0
7100,32.0,0.0,60.0,4.0,0.0
7101,46.0,10.0,60.0,3.0,0.0
7102,58.0,0.0,60.0,8.0,0.0
7103,34.0,0.0,60.0,4.0,0.0
7104,78.0,30.0,30.0,5.0,0.0
7105,46.0,0.0,60.0,6.0,0.0
7106,27.0,0.0,120.0,4.0,0.0
7107,51.0,10.0,120.0,8.0,0.0
7108,39.0,0.0,120.0,3.0,0.0
7109,39.0,0.0,120.0,6.0,0.0
7110,68.0,10.0,15.0,5.0,0.0
7111,66.0,10.0,15.0,5.0,0.0
7112,68.0,1.0,15.0,5.0,0.0
7113,72.0,10.0,30.0,7.0,0.0
7114,66.0,10.0,15.0,5.0,0.0
7115,68.0,10.0,15.0,5.0,0.0
7116,66.0,0.0,15.0,5.0,0.0
7117,68.0,10.0,15.0,5.0,0.0
7118,73.0,0.0,15.0,7.0,0.0
7119,66.0,0.0,15.0,5.0,0.0
7120,72.0,10.0,15.0,7.0,0.0
7121,68.0,0.0,15.0,5.0,0.0
7122,73.0,10.0,15.0,7.0,0.0
7123,66.0,10.0,15.0,5.0,0.0
7124,72.0,0.0,15.0,7.0,0.0
7125,73.0,10.0,15.0,7.0,0.0
7126,68.0,0.0,15.0,5.0,0.0
7127,66.0,0.0,15.0,5.0,0.0
7128,72.0,0.0,15.0,7.0,0.0
7129,56.0,0.0,60.0,8.0,0.0
7130,32.0,0.0,60.0,4.0,0.0
7131,44.0,30.0,60.0,3.0,0.0
7132,68.0,10.0,15.0,5.0,0.0
7133,73.0,0.0,15.0,7.0,0.0
7134,44.0,0.0,60.0,6.0,0.0
7135,66.0,10.0,15.0,5.0,0.0
7136,72.0,0.0,15.0,7.0,0.0
7137,68.0,0.0,15.0,5.0,0.0
7138,73.0,10.0,15.0,7.0,0.0
7139,66.0,0.0,15.0,5.0,0.0
7140,72.0,10.0,15.0,7.0,0.0
7141,65.0,0.0,15.0,5.0,0.0
7142,70.0,10.0,15.0,7.0,0.0
7143,72.0,0.0,15.0,7.0,0.0
7144,66.0,0.0,15.0,5.0,0.0
7145,73.0,0.0,120.0,7.0,0.0
7146,25.0,0.0,60.0,4.0,0.0
7147,37.0,0.0,60.0,3.0,0.0
7148,65.0,30.0,30.0,5.0,0.0
7149,49.0,0.0,60.0,8.0,0.0
7150,37.0,30.0,60.0,6.0,0.0
7151,63.0,0.0,30.0,5.0,0.0
7152,37.0,0.0,60.0,4.0,0.0
7153,49.0,0.0,60.0,3.0,0.0
7154,65.0,30.0,30.0,5.0,0.0
7155,49.0,30.0,60.0,6.0,0.0
7156,56.0,0.0,60.0,8.0,0.0
7157,61.0,0.0,30.0,5.0,0.0
7158,35.0,30.0,60.0,4.0,0.0
7159,56.0,30.0,30.0,5.0,0.0
7160,47.0,0.0,60.0,3.0,0.0
7161,47.0,0.0,60.0,6.0,0.0
7162,59.0,0.0,60.0,8.0,0.0
7163,61.0,0.0,60.0,7.0,0.0
7164,61.0,0.0,30.0,5.0,0.0
7165,66.0,30.0,30.0,5.0,0.0
7166,46.0,0.0,60.0,6.0,0.0
7167,58.0,29.0,60.0,2.0,0.0
7168,58.0,0.0,60.0,8.0,0.0
7169,73.0,0.0,60.0,0.0,0.0
7170,46.0,0.0,120.0,3.0,0.0
7171,61.0,0.0,120.0,7.0,0.0
7172,66.0,0.0,60.0,1.0,0.0
7173,34.0,0.0,120.0,4.0,0.0
7174,65.0,1.0,30.0,5.0,0.0
7175,54.0,30.0,60.0,8.0,0.0
7176,49.0,0.0,60.0,6.0,0.0
7177,66.0,30.0,30.0,5.0,0.0
7178,61.0,0.0,30.0,5.0,0.0
7179,58.0,30.0,30.0,5.0,0.0
7180,49.0,0.0,60.0,8.0,0.0
7181,54.0,0.0,60.0,3.0,0.0
7182,42.0,0.0,60.0,4.0,0.0
7183,54.0,0.0,60.0,6.0,0.0
7184,73.0,30.0,60.0,7.0,0.0
7185,61.0,0.0,30.0,5.0,0.0
7186,44.0,0.0,120.0,3.0,0.0
7187,44.0,0.0,60.0,6.0,0.0
7188,71.0,1.0,60.0,0.0,0.0
7189,68.0,30.0,30.0,5.0,0.0
7190,32.0,30.0,120.0,4.0,0.0
7191,59.0,29.0,60.0,2.0,0.0
7192,65.0,0.0,60.0,1.0,0.0
7193,53.0,0.0,60.0,8.0,0.0
7194,71.0,0.0,120.0,7.0,0.0
7195,66.0,0.0,30.0,5.0,0.0
7196,68.0,30.0,30.0,5.0,0.0
7197,49.0,0.0,60.0,8.0,0.0
7198,47.0,0.0,60.0,6.0,0.0
7199,65.0,0.0,30.0,5.0,0.0
7200,41.0,0.0,60.0,4.0,0.0
7201,61.0,0.0,60.0,7.0,0.0
7202,53.0,0.0,60.0,6.0,0.0
7203,44.0,0.0,60.0,8.0,0.0
7204,61.0,30.0,30.0,5.0,0.0
7205,53.0,30.0,60.0,3.0,0.0
7206,65.0,0.0,30.0,5.0,0.0
7207,70.0,30.0,30.0,5.0,0.0
7208,54.0,1.0,60.0,8.0,0.0
7209,61.0,0.0,120.0,7.0,0.0
7210,61.0,0.0,60.0,2.0,0.0
7211,30.0,0.0,120.0,4.0,0.0
7212,66.0,29.0,60.0,1.0,0.0
7213,42.0,0.0,60.0,6.0,0.0
7214,70.0,0.0,60.0,0.0,0.0
7215,42.0,0.0,120.0,3.0,0.0
7216,68.0,0.0,30.0,5.0,0.0
7217,70.0,30.0,30.0,5.0,0.0
7218,49.0,30.0,60.0,8.0,0.0
7219,49.0,0.0,60.0,6.0,0.0
7220,66.0,0.0,30.0,5.0,0.0
7221,54.0,0.0,60.0,6.0,0.0
7222,54.0,30.0,60.0,3.0,0.0
7223,61.0,30.0,30.0,5.0,0.0
7224,70.0,0.0,60.0,7.0,0.0
7225,42.0,0.0,60.0,8.0,0.0
7226,42.0,0.0,60.0,4.0,0.0
7227,66.0,0.0,30.0,5.0,0.0
7228,61.0,0.0,120.0,2.0,0.0
7229,49.0,0.0,120.0,8.0,0.0
7230,37.0,0.0,120.0,4.0,0.0
7231,49.0,0.0,120.0,3.0,0.0
7232,65.0,0.0,120.0,1.0,0.0
7233,68.0,30.0,30.0,7.0,0.0
7234,49.0,30.0,60.0,6.0,0.0
7235,68.0,0.0,120.0,0.0,0.0
7236,65.0,0.0,120.0,5.0,0.0
7237,60.0,0.0,30.0,7.0,0.0
7238,53.0,30.0,60.0,6.0,0.0
7239,61.0,30.0,30.0,7.0,0.0
7240,63.0,0.0,30.0,7.0,0.0
7241,25.0,0.0,60.0,4.0,0.0
7242,37.0,0.0,60.0,3.0,0.0
7243,56.0,30.0,60.0,6.0,0.0
7244,65.0,30.0,30.0,7.0,0.0
7245,66.0,0.0,30.0,7.0,0.0
7246,26.0,0.0,120.0,4.0,0.0
7247,38.0,30.0,120.0,3.0,0.0
7248,50.0,0.0,120.0,6.0,0.0
7249,68.0,30.0,30.0,7.0,0.0
7250,71.0,30.0,30.0,7.0,0.0
7251,70.0,30.0,30.0,7.0,0.0
7252,65.0,29.0,150.0,5.0,0.0
7253,68.0,0.0,30.0,7.0,0.0
7254,50.0,0.0,60.0,8.0,0.0
7255,34.0,0.0,60.0,3.0,0.0
7256,62.0,0.0,60.0,1.0,0.0
7257,58.0,0.0,60.0,2.0,0.0
7258,58.0,31.0,60.0,6.0,0.0
7259,70.0,0.0,60.0,0.0,0.0
7260,22.0,0.0,60.0,4.0,0.0
7261,66.0,30.0,30.0,7.0,0.0
7262,65.0,0.0,30.0,7.0,0.0
7263,51.0,0.0,60.0,8.0,0.0
7264,39.0,0.0,120.0,3.0,0.0
7265,66.0,0.0,180.0,7.0,0.0
7266,27.0,0.0,120.0,4.0,0.0
7267,58.0,0.0,120.0,1.0,0.0
7268,51.0,0.0,120.0,6.0,0.0
7269,58.0,0.0,120.0,2.0,0.0
7270,66.0,0.0,120.0,0.0,0.0
7271,62.0,30.0,30.0,5.0,0.0
7272,63.0,30.0,30.0,5.0,0.0
7273,54.0,30.0,60.0,8.0,0.0
7274,65.0,0.0,30.0,5.0,0.0
7275,66.0,30.0,30.0,5.0,0.0
7276,35.0,0.0,60.0,4.0,0.0
7277,47.0,0.0,60.0,3.0,0.0
7278,58.0,0.0,60.0,8.0,0.0
7279,68.0,30.0,30.0,5.0,0.0
7280,39.0,0.0,120.0,3.0,0.0
7281,51.0,30.0,120.0,8.0,0.0
7282,70.0,30.0,30.0,5.0,0.0
7283,27.0,0.0,120.0,4.0,0.0
7284,73.0,30.0,30.0,5.0,0.0
7285,66.0,29.0,150.0,7.0,0.0
7286,71.0,30.0,30.0,5.0,0.0
7287,70.0,0.0,30.0,5.0,0.0
7288,68.0,30.0,30.0,5.0,0.0
7289,51.0,0.0,60.0,6.0,0.0
7290,23.0,0.0,60.0,4.0,0.0
7291,71.0,0.0,60.0,0.0,0.0
7292,63.0,0.0,60.0,1.0,0.0
7293,35.0,31.0,60.0,3.0,0.0
7294,59.0,0.0,60.0,8.0,0.0
7295,59.0,0.0,60.0,2.0,0.0
7296,66.0,0.0,30.0,5.0,0.0
7297,61.0,0.0,120.0,2.0,0.0
7298,53.0,0.0,60.0,6.0,0.0
7299,68.0,0.0,120.0,0.0,0.0
7300,29.0,0.0,120.0,4.0,0.0
7301,68.0,30.0,180.0,5.0,0.0
7302,61.0,0.0,120.0,1.0,0.0
7303,53.0,0.0,120.0,8.0,0.0
7304,41.0,0.0,120.0,3.0,0.0
7305,63.0,30.0,30.0,7.0,0.0
7306,56.0,0.0,60.0,6.0,0.0
7307,65.0,30.0,30.0,7.0,0.0
7308,66.0,30.0,30.0,7.0,0.0
7309,59.0,0.0,60.0,6.0,0.0
7310,68.0,30.0,30.0,7.0,0.0
7311,49.0,0.0,60.0,3.0,0.0
7312,37.0,0.0,60.0,4.0,0.0
7313,70.0,0.0,30.0,7.0,0.0
7314,29.0,0.0,120.0,4.0,0.0
7315,71.0,30.0,30.0,7.0,0.0
7316,41.0,30.0,120.0,3.0,0.0
7317,53.0,0.0,120.0,6.0,0.0
7318,75.0,30.0,30.0,7.0,0.0
7319,73.0,30.0,30.0,7.0,0.0
7320,71.0,0.0,30.0,7.0,0.0
7321,77.0,0.0,60.0,5.0,0.0
7322,25.0,0.0,60.0,4.0,0.0
7323,49.0,0.0,60.0,8.0,0.0
7324,70.0,30.0,30.0,7.0,0.0
7325,37.0,0.0,60.0,3.0,0.0
7326,65.0,0.0,60.0,1.0,0.0
7327,61.0,0.0,60.0,6.0,0.0
7328,73.0,0.0,60.0,0.0,0.0
7329,61.0,0.0,60.0,2.0,0.0
7330,68.0,30.0,30.0,7.0,0.0
7331,70.0,0.0,60.0,0.0,0.0
7332,54.0,0.0,60.0,6.0,0.0
7333,61.0,30.0,60.0,1.0,0.0
7334,30.0,0.0,60.0,4.0,0.0
7335,70.0,30.0,30.0,7.0,0.0
7336,42.0,0.0,60.0,8.0,0.0
7337,78.0,0.0,120.0,5.0,0.0
7338,42.0,0.0,60.0,3.0,0.0
7339,61.0,0.0,60.0,2.0,0.0
7340,68.0,0.0,30.0,7.0,0.0
7341,54.0,0.0,60.0,3.0,0.0
7342,61.0,30.0,60.0,6.0,0.0
7343,70.0,30.0,30.0,7.0,0.0
7344,42.0,0.0,60.0,4.0,0.0
7345,54.0,0.0,60.0,8.0,0.0
7346,66.0,0.0,30.0,7.0,0.0
7347,61.0,30.0,30.0,7.0,0.0
7348,66.0,30.0,60.0,5.0,0.0
7349,40.0,0.0,60.0,4.0,0.0
7350,64.0,0.0,60.0,6.0,0.0
7351,52.0,0.0,60.0,3.0,0.0
7352,52.0,0.0,60.0,8.0,0.0
7353,66.0,0.0,30.0,7.0,0.0
7354,63.0,0.0,60.0,1.0,0.0
7355,66.0,0.0,120.0,5.0,0.0
7356,39.0,0.0,120.0,4.0,0.0
7357,63.0,0.0,60.0,6.0,0.0
7358,71.0,30.0,30.0,7.0,0.0
7359,78.0,30.0,60.0,0.0,0.0
7360,59.0,0.0,60.0,2.0,0.0
7361,51.0,0.0,60.0,8.0,0.0
7362,51.0,0.0,120.0,3.0,0.0
7363,70.0,0.0,30.0,7.0,0.0
7364,59.0,30.0,60.0,6.0,0.0
7365,54.0,0.0,60.0,8.0,0.0
7366,71.0,30.0,30.0,7.0,0.0
7367,66.0,0.0,30.0,7.0,0.0
7368,59.0,0.0,60.0,3.0,0.0
7369,59.0,0.0,60.0,8.0,0.0
7370,59.0,0.0,60.0,6.0,0.0
7371,78.0,30.0,60.0,5.0,0.0
7372,63.0,30.0,30.0,7.0,0.0
7373,47.0,0.0,60.0,4.0,0.0
7374,66.0,0.0,30.0,7.0,0.0
7375,64.0,0.0,60.0,1.0,0.0
7376,76.0,0.0,120.0,5.0,0.0
7377,58.0,0.0,60.0,2.0,0.0
7378,76.0,30.0,60.0,0.0,0.0
7379,37.0,30.0,120.0,4.0,0.0
7380,49.0,0.0,120.0,3.0,0.0
7381,49.0,0.0,60.0,8.0,0.0
7382,58.0,0.0,60.0,6.0,0.0
7383,73.0,30.0,30.0,7.0,0.0
7384,71.0,0.0,30.0,7.0,0.0
7385,54.0,0.0,60.0,6.0,0.0
7386,52.0,0.0,60.0,8.0,0.0
7387,73.0,30.0,30.0,7.0,0.0
7388,70.0,0.0,30.0,7.0,0.0
7389,46.0,0.0,60.0,4.0,0.0
7390,58.0,0.0,60.0,3.0,0.0
7391,66.0,30.0,30.0,7.0,0.0
7392,49.0,30.0,60.0,6.0,0.0
7393,66.0,0.0,60.0,5.0,0.0
7394,58.0,0.0,60.0,8.0,0.0
7395,70.0,0.0,30.0,7.0,0.0
7396,59.0,30.0,60.0,6.0,0.0
7397,75.0,0.0,60.0,0.0,0.0
7398,47.0,0.0,120.0,3.0,0.0
7399,47.0,0.0,60.0,8.0,0.0
7400,35.0,0.0,120.0,4.0,0.0
7401,75.0,30.0,30.0,7.0,0.0
7402,59.0,0.0,60.0,2.0,0.0
7403,66.0,0.0,60.0,1.0,0.0
7404,66.0,0.0,120.0,5.0,0.0
7405,73.0,0.0,30.0,7.0,0.0
7406,54.0,0.0,60.0,8.0,0.0
7407,75.0,30.0,30.0,7.0,0.0
7408,54.0,30.0,60.0,6.0,0.0
7409,71.0,0.0,30.0,7.0,0.0
7410,59.0,0.0,60.0,3.0,0.0
7411,66.0,30.0,30.0,7.0,0.0
7412,75.0,0.0,60.0,5.0,0.0
7413,59.0,0.0,60.0,8.0,0.0
7414,47.0,0.0,60.0,4.0,0.0
7415,47.0,0.0,60.0,6.0,0.0
7416,71.0,30.0,30.0,7.0,0.0
7417,70.0,0.0,120.0,1.0,0.0
7418,61.0,0.0,120.0,2.0,0.0
7419,54.0,30.0,120.0,3.0,0.0
7420,70.0,0.0,120.0,7.0,0.0
7421,54.0,0.0,120.0,6.0,0.0
7422,42.0,0.0,120.0,4.0,0.0
7423,73.0,30.0,30.0,5.0,0.0
7424,73.0,0.0,120.0,0.0,0.0
7425,54.0,30.0,60.0,8.0,0.0
7426,65.0,0.0,30.0,5.0,0.0
7427,58.0,0.0,60.0,8.0,0.0
7428,66.0,30.0,30.0,5.0,0.0
7429,68.0,0.0,30.0,5.0,0.0
7430,61.0,0.0,60.0,8.0,0.0
7431,30.0,0.0,60.0,4.0,0.0
7432,42.0,30.0,60.0,3.0,0.0
7433,70.0,30.0,30.0,5.0,0.0
7434,71.0,0.0,30.0,5.0,0.0
7435,55.0,30.0,120.0,8.0,0.0
7436,31.0,0.0,120.0,4.0,0.0
7437,43.0,0.0,120.0,3.0,0.0
7438,73.0,30.0,30.0,5.0,0.0
7439,76.0,30.0,30.0,5.0,0.0
7440,75.0,30.0,30.0,5.0,0.0
7441,70.0,29.0,150.0,7.0,0.0
7442,73.0,0.0,30.0,5.0,0.0
7443,39.0,0.0,60.0,3.0,0.0
7444,55.0,0.0,60.0,6.0,0.0
7445,71.0,30.0,30.0,5.0,0.0
7446,75.0,0.0,60.0,0.0,0.0
7447,63.0,0.0,60.0,8.0,0.0
7448,63.0,0.0,60.0,2.0,0.0
7449,27.0,31.0,60.0,4.0,0.0
7450,67.0,0.0,60.0,1.0,0.0
7451,70.0,0.0,30.0,5.0,0.0
7452,71.0,0.0,180.0,5.0,0.0
7453,56.0,29.0,180.0,8.0,0.0
7454,56.0,30.0,60.0,6.0,0.0
7455,32.0,0.0,120.0,4.0,0.0
7456,44.0,0.0,120.0,3.0,0.0
7457,63.0,0.0,120.0,2.0,0.0
7458,71.0,0.0,120.0,0.0,0.0
7459,63.0,0.0,120.0,1.0,0.0
7460,67.0,0.0,30.0,7.0,0.0
7461,59.0,30.0,60.0,6.0,0.0
7462,68.0,30.0,30.0,7.0,0.0
7463,70.0,0.0,30.0,7.0,0.0
7464,71.0,30.0,30.0,7.0,0.0
7465,52.0,0.0,60.0,3.0,0.0
7466,40.0,0.0,60.0,4.0,0.0
7467,63.0,1.0,60.0,6.0,0.0
7468,73.0,0.0,30.0,7.0,0.0
7469,75.0,30.0,30.0,7.0,0.0
7470,56.0,30.0,120.0,6.0,0.0
7471,44.0,0.0,120.0,3.0,0.0
7472,32.0,0.0,120.0,4.0,0.0
7473,78.0,30.0,30.0,7.0,0.0
7474,76.0,30.0,30.0,7.0,0.0
7475,71.0,29.0,150.0,5.0,0.0
7476,75.0,0.0,30.0,7.0,0.0
7477,73.0,30.0,30.0,7.0,0.0
7478,64.0,0.0,60.0,2.0,0.0
7479,68.0,0.0,60.0,1.0,0.0
7480,56.0,0.0,60.0,8.0,0.0
7481,40.0,31.0,60.0,3.0,0.0
7482,28.0,0.0,60.0,4.0,0.0
7483,76.0,0.0,60.0,0.0,0.0
7484,64.0,0.0,60.0,6.0,0.0
7485,71.0,0.0,30.0,7.0,0.0
7486,73.0,0.0,120.0,0.0,0.0
7487,58.0,30.0,60.0,8.0,0.0
7488,73.0,0.0,180.0,7.0,0.0
7489,66.0,0.0,120.0,1.0,0.0
7490,58.0,0.0,120.0,6.0,0.0
7491,46.0,0.0,120.0,3.0,0.0
7492,66.0,30.0,120.0,2.0,0.0
7493,34.0,0.0,120.0,4.0,0.0
7494,68.0,0.0,30.0,5.0,0.0
7495,70.0,30.0,30.0,5.0,0.0
7496,61.0,0.0,60.0,8.0,0.0
7497,71.0,0.0,30.0,5.0,0.0
7498,64.0,0.0,60.0,8.0,0.0
7499,54.0,0.0,60.0,3.0,0.0
7500,73.0,30.0,30.0,5.0,0.0
7501,42.0,30.0,60.0,4.0,0.0
7502,75.0,0.0,30.0,5.0,0.0
7503,58.0,0.0,120.0,8.0,0.0
7504,76.0,30.0,30.0,5.0,0.0
7505,46.0,0.0,120.0,3.0,0.0
7506,34.0,30.0,120.0,4.0,0.0
7507,80.0,30.0,30.0,5.0,0.0
7508,78.0,30.0,30.0,5.0,0.0
7509,76.0,0.0,30.0,5.0,0.0
7510,42.0,0.0,60.0,3.0,0.0
7511,70.0,0.0,60.0,7.0,0.0
7512,54.0,0.0,60.0,6.0,0.0
7513,30.0,30.0,60.0,4.0,0.0
7514,54.0,0.0,60.0,8.0,0.0
7515,70.0,0.0,60.0,1.0,0.0
7516,78.0,0.0,60.0,0.0,0.0
7517,75.0,30.0,30.0,5.0,0.0
7518,54.0,0.0,60.0,2.0,0.0
7519,73.0,0.0,30.0,5.0,0.0
7520,66.0,29.0,180.0,1.0,0.0
7521,75.0,0.0,720.0,0.0,0.0
7522,47.0,30.0,60.0,3.0,0.0
7523,59.0,29.0,120.0,6.0,0.0
7524,47.0,0.0,60.0,8.0,0.0
7525,35.0,0.0,60.0,4.0,0.0
7526,54.0,29.0,360.0,2.0,0.0
7527,71.0,0.0,60.0,7.0,0.0
7528,75.0,30.0,30.0,5.0,0.0
7529,73.0,0.0,30.0,5.0,0.0
7530,66.0,0.0,60.0,7.0,0.0
7531,47.0,0.0,60.0,3.0,0.0
7532,51.0,1.0,60.0,8.0,0.0
7533,35.0,0.0,60.0,4.0,0.0
7534,75.0,30.0,30.0,5.0,0.0
7535,71.0,0.0,30.0,5.0,0.0
7536,66.0,30.0,30.0,5.0,0.0
7537,47.0,1.0,60.0,6.0,0.0
7538,47.0,0.0,60.0,3.0,0.0
7539,63.0,0.0,60.0,7.0,0.0
7540,35.0,0.0,60.0,4.0,0.0
7541,54.0,0.0,60.0,8.0,0.0
7542,71.0,0.0,30.0,5.0,0.0
7543,33.0,0.0,60.0,4.0,0.0
7544,51.0,30.0,60.0,8.0,0.0
7545,45.0,29.0,120.0,6.0,0.0
7546,71.0,0.0,180.0,1.0,0.0
7547,45.0,0.0,60.0,3.0,0.0
7548,75.0,30.0,30.0,5.0,0.0
7549,66.0,0.0,60.0,7.0,0.0
7550,73.0,0.0,30.0,5.0,0.0
7551,45.0,1.0,60.0,3.0,0.0
7552,71.0,0.0,60.0,7.0,0.0
7553,33.0,0.0,60.0,4.0,0.0
7554,75.0,30.0,30.0,5.0,0.0
7555,47.0,0.0,60.0,8.0,0.0
7556,71.0,0.0,30.0,5.0,0.0
7557,66.0,30.0,30.0,5.0,0.0
7558,33.0,0.0,60.0,4.0,0.0
7559,45.0,1.0,60.0,8.0,0.0
7560,57.0,0.0,60.0,6.0,0.0
7561,75.0,0.0,60.0,7.0,0.0
7562,45.0,0.0,60.0,3.0,0.0
7563,71.0,0.0,30.0,5.0,0.0
7564,44.0,0.0,60.0,8.0,0.0
7565,56.0,0.0,120.0,6.0,0.0
7566,72.0,0.0,60.0,7.0,0.0
7567,44.0,0.0,120.0,3.0,0.0
7568,75.0,30.0,30.0,5.0,0.0
7569,56.0,29.0,720.0,2.0,0.0
7570,72.0,29.0,360.0,1.0,0.0
7571,32.0,0.0,120.0,4.0,0.0
7572,73.0,30.0,30.0,5.0,0.0
7573,48.0,30.0,60.0,8.0,0.0
7574,66.0,0.0,60.0,7.0,0.0
7575,75.0,30.0,30.0,5.0,0.0
7576,72.0,0.0,30.0,5.0,0.0
7577,20.0,0.0,60.0,4.0,0.0
7578,63.0,0.0,60.0,7.0,0.0
7579,51.0,0.0,60.0,8.0,0.0
7580,44.0,0.0,60.0,6.0,0.0
7581,66.0,30.0,30.0,5.0,0.0
7582,32.0,30.0,60.0,3.0,0.0
7583,72.0,0.0,30.0,5.0,0.0
7584,32.0,0.0,120.0,3.0,0.0
7585,75.0,30.0,30.0,5.0,0.0
7586,66.0,0.0,60.0,7.0,0.0
7587,44.0,30.0,120.0,6.0,0.0
7588,48.0,0.0,60.0,8.0,0.0
7589,20.0,0.0,120.0,4.0,0.0
7590,73.0,30.0,30.0,5.0,0.0
7591,72.0,0.0,60.0,7.0,0.0
7592,75.0,30.0,30.0,5.0,0.0
7593,44.0,0.0,60.0,8.0,0.0
7594,72.0,0.0,30.0,5.0,0.0
7595,75.0,0.0,60.0,7.0,0.0
7596,66.0,30.0,30.0,5.0,0.0
7597,32.0,1.0,60.0,4.0,0.0
7598,56.0,0.0,60.0,6.0,0.0
7599,56.0,0.0,60.0,8.0,0.0
7600,44.0,0.0,60.0,3.0,0.0
7601,72.0,0.0,30.0,5.0,0.0
7602,49.0,0.0,60.0,6.0,0.0
7603,49.0,30.0,60.0,3.0,0.0
7604,73.0,0.0,360.0,1.0,0.0
7605,73.0,0.0,60.0,5.0,0.0
7606,37.0,0.0,60.0,4.0,0.0
7607,61.0,0.0,120.0,8.0,0.0
7608,76.0,1.0,360.0,0.0,0.0
7609,76.0,30.0,30.0,7.0,0.0
7610,75.0,0.0,30.0,7.0,0.0
7611,68.0,30.0,60.0,5.0,0.0
7612,49.0,0.0,60.0,3.0,0.0
7613,37.0,0.0,60.0,4.0,0.0
7614,76.0,30.0,30.0,7.0,0.0
7615,52.0,0.0,60.0,6.0,0.0
7616,73.0,0.0,30.0,7.0,0.0
7617,49.0,0.0,60.0,8.0,0.0
7618,64.0,0.0,60.0,5.0,0.0
7619,68.0,30.0,30.0,7.0,0.0
7620,49.0,0.0,60.0,3.0,0.0
7621,37.0,30.0,60.0,4.0,0.0
7622,56.0,0.0,60.0,6.0,0.0
7623,73.0,0.0,30.0,7.0,0.0
7624,68.0,0.0,60.0,5.0,0.0
7625,47.0,0.0,60.0,3.0,0.0
7626,52.0,30.0,60.0,6.0,0.0
7627,47.0,0.0,120.0,8.0,0.0
7628,35.0,0.0,60.0,4.0,0.0
7629,76.0,30.0,30.0,7.0,0.0
7630,75.0,0.0,30.0,7.0,0.0
7631,73.0,0.0,60.0,5.0,0.0
7632,47.0,0.0,60.0,3.0,0.0
7633,35.0,30.0,60.0,4.0,0.0
7634,76.0,30.0,30.0,7.0,0.0
7635,49.0,0.0,60.0,6.0,0.0
7636,73.0,0.0,30.0,7.0,0.0
7637,47.0,0.0,60.0,6.0,0.0
7638,59.0,0.0,60.0,8.0,0.0
7639,68.0,30.0,30.0,7.0,0.0
7640,76.0,0.0,60.0,5.0,0.0
7641,35.0,0.0,60.0,4.0,0.0
7642,47.0,0.0,60.0,3.0,0.0
7643,73.0,0.0,30.0,7.0,0.0
7644,74.0,0.0,60.0,5.0,0.0
7645,77.0,30.0,30.0,7.0,0.0
7646,58.0,0.0,360.0,2.0,0.0
7647,46.0,0.0,60.0,6.0,0.0
7648,74.0,0.0,360.0,1.0,0.0
7649,77.0,0.0,360.0,0.0,0.0
7650,46.0,0.0,120.0,3.0,0.0
7651,58.0,0.0,120.0,8.0,0.0
7652,34.0,0.0,120.0,4.0,0.0
7653,75.0,30.0,30.0,7.0,0.0
7654,50.0,0.0,60.0,6.0,0.0
7655,68.0,0.0,60.0,5.0,0.0
7656,77.0,30.0,30.0,7.0,0.0
7657,74.0,30.0,30.0,7.0,0.0
7658,34.0,0.0,60.0,3.0,0.0
7659,22.0,0.0,60.0,4.0,0.0
7660,46.0,30.0,60.0,8.0,0.0
7661,65.0,0.0,60.0,5.0,0.0
7662,53.0,0.0,60.0,6.0,0.0
7663,68.0,30.0,30.0,7.0,0.0
7664,74.0,0.0,30.0,7.0,0.0
7665,34.0,0.0,120.0,3.0,0.0
7666,46.0,0.0,120.0,8.0,0.0
7667,22.0,30.0,120.0,4.0,0.0
7668,77.0,30.0,30.0,7.0,0.0
7669,68.0,0.0,60.0,5.0,0.0
7670,50.0,30.0,60.0,6.0,0.0
7671,75.0,0.0,30.0,7.0,0.0
7672,46.0,0.0,60.0,6.0,0.0
7673,74.0,0.0,60.0,5.0,0.0
7674,77.0,30.0,30.0,7.0,0.0
7675,74.0,0.0,30.0,7.0,0.0
7676,58.0,30.0,60.0,6.0,0.0
7677,68.0,30.0,30.0,7.0,0.0
7678,77.0,0.0,60.0,5.0,0.0
7679,58.0,0.0,60.0,8.0,0.0
7680,46.0,0.0,60.0,3.0,0.0
7681,34.0,0.0,60.0,4.0,0.0
7682,74.0,0.0,30.0,7.0,0.0
7683,51.0,0.0,120.0,8.0,0.0
7684,58.0,29.0,30.0,6.0,0.0
7685,78.0,0.0,120.0,0.0,0.0
7686,58.0,0.0,120.0,2.0,0.0
7687,75.0,60.0,240.0,7.0,0.0
7688,78.0,1.0,30.0,5.0,0.0
7689,75.0,59.0,120.0,1.0,0.0
7690,39.0,0.0,120.0,4.0,0.0
7691,51.0,0.0,120.0,3.0,0.0
7692,77.0,1.0,30.0,5.0,0.0
7693,56.0,29.0,30.0,6.0,0.0
7694,54.0,29.0,30.0,6.0,0.0
7695,75.0,1.0,30.0,5.0,0.0
7696,74.0,1.0,30.0,5.0,0.0
7697,53.0,0.0,30.0,6.0,0.0
7698,27.0,60.0,60.0,4.0,0.0
7699,39.0,0.0,60.0,3.0,0.0
7700,39.0,0.0,60.0,8.0,0.0
7701,54.0,0.0,60.0,6.0,0.0
7702,75.0,0.0,60.0,5.0,0.0
7703,71.0,59.0,120.0,1.0,0.0
7704,53.0,0.0,120.0,2.0,0.0
7705,29.0,0.0,120.0,4.0,0.0
7706,41.0,0.0,120.0,8.0,0.0
7707,41.0,1.0,120.0,3.0,0.0
7708,68.0,0.0,120.0,0.0,0.0
7709,73.0,0.0,60.0,7.0,0.0
7710,71.0,0.0,60.0,7.0,0.0
7711,53.0,0.0,60.0,8.0,0.0
7712,41.0,0.0,60.0,4.0,0.0
7713,53.0,120.0,60.0,3.0,0.0
7714,54.0,0.0,120.0,8.0,0.0
7715,75.0,0.0,120.0,0.0,0.0
7716,70.0,60.0,240.0,7.0,0.0
7717,54.0,0.0,120.0,3.0,0.0
7718,42.0,1.0,120.0,4.0,0.0
7719,58.0,59.0,120.0,2.0,0.0
7720,70.0,0.0,120.0,1.0,0.0
7721,42.0,0.0,60.0,8.0,0.0
7722,42.0,0.0,60.0,3.0,0.0
7723,30.0,60.0,60.0,4.0,0.0
7724,44.0,0.0,120.0,3.0,0.0
7725,71.0,0.0,120.0,0.0,0.0
7726,32.0,0.0,120.0,4.0,0.0
7727,59.0,59.0,120.0,2.0,0.0
7728,63.0,0.0,120.0,1.0,0.0
7729,44.0,0.0,120.0,8.0,0.0
7730,68.0,1.0,60.0,7.0,0.0
7731,44.0,0.0,60.0,4.0,0.0
7732,66.0,0.0,60.0,7.0,0.0
7733,56.0,60.0,60.0,8.0,0.0
7734,56.0,0.0,60.0,3.0,0.0
7735,65.0,59.0,120.0,1.0,0.0
7736,56.0,0.0,120.0,8.0,0.0
7737,56.0,0.0,120.0,3.0,0.0
7738,53.0,0.0,120.0,2.0,0.0
7739,62.0,60.0,60.0,0.0,0.0
7740,65.0,0.0,60.0,7.0,0.0
7741,44.0,0.0,120.0,4.0,0.0
7742,62.0,0.0,60.0,7.0,0.0
7743,70.0,1.0,60.0,0.0,0.0
7744,54.0,0.0,60.0,8.0,0.0
7745,54.0,0.0,60.0,3.0,0.0
7746,63.0,60.0,60.0,7.0,0.0
7747,42.0,0.0,60.0,4.0,0.0
7748,54.0,0.0,60.0,2.0,0.0
7749,63.0,0.0,60.0,1.0,0.0
7750,75.0,60.0,120.0,0.0,0.0
7751,41.0,0.0,120.0,4.0,0.0
7752,56.0,59.0,120.0,2.0,0.0
7753,53.0,0.0,120.0,3.0,0.0
7754,53.0,1.0,120.0,8.0,0.0
7755,65.0,0.0,120.0,1.0,0.0
7756,68.0,60.0,240.0,7.0,0.0
7757,72.0,0.0,60.0,0.0,0.0
7758,65.0,0.0,60.0,1.0,0.0
7759,34.0,0.0,60.0,4.0,0.0
7760,58.0,60.0,60.0,2.0,0.0
7761,46.0,0.0,60.0,3.0,0.0
7762,74.0,0.0,60.0,0.0,0.0
7763,46.0,0.0,60.0,8.0,0.0
7764,51.0,0.0,120.0,8.0,0.0
7765,63.0,0.0,120.0,1.0,0.0
7766,51.0,0.0,120.0,3.0,0.0
7767,58.0,59.0,120.0,2.0,0.0
7768,39.0,1.0,120.0,4.0,0.0
7769,75.0,0.0,120.0,0.0,0.0
7770,67.0,0.0,60.0,7.0,0.0
7771,63.0,60.0,60.0,1.0,0.0
7772,47.0,0.0,60.0,8.0,0.0
7773,35.0,0.0,60.0,4.0,0.0
7774,59.0,0.0,60.0,2.0,0.0
7775,47.0,0.0,60.0,3.0,0.0
7776,68.0,0.0,60.0,0.0,0.0
7777,68.0,0.0,60.0,7.0,0.0
7778,73.0,30.0,60.0,7.0,0.0
7779,46.0,0.0,120.0,3.0,0.0
7780,34.0,0.0,120.0,4.0,0.0
7781,46.0,0.0,120.0,8.0,0.0
7782,68.0,1.0,120.0,0.0,0.0
7783,64.0,0.0,120.0,1.0,0.0
7784,61.0,29.0,120.0,2.0,0.0
7785,75.0,30.0,30.0,7.0,0.0
7786,73.0,0.0,30.0,7.0,0.0
7787,39.0,0.0,60.0,8.0,0.0
7788,39.0,0.0,60.0,3.0,0.0
7789,63.0,0.0,60.0,2.0,0.0
7790,63.0,0.0,60.0,1.0,0.0
7791,67.0,30.0,60.0,0.0,0.0
7792,71.0,30.0,30.0,7.0,0.0
7793,27.0,0.0,60.0,4.0,0.0
7794,70.0,0.0,30.0,7.0,0.0
7795,63.0,0.0,120.0,1.0,0.0
7796,68.0,0.0,120.0,0.0,0.0
7797,80.0,30.0,240.0,5.0,0.0
7798,56.0,0.0,120.0,6.0,0.0
7799,71.0,30.0,30.0,7.0,0.0
7800,44.0,0.0,120.0,8.0,0.0
7801,32.0,30.0,120.0,4.0,0.0
7802,44.0,0.0,120.0,3.0,0.0
7803,59.0,0.0,120.0,2.0,0.0
7804,70.0,30.0,30.0,7.0,0.0
7805,71.0,30.0,30.0,7.0,0.0
7806,68.0,0.0,30.0,7.0,0.0
7807,44.0,30.0,60.0,6.0,0.0
7808,32.0,0.0,60.0,3.0,0.0
7809,63.0,30.0,30.0,7.0,0.0
7810,20.0,0.0,60.0,4.0,0.0
7811,56.0,0.0,60.0,8.0,0.0
7812,68.0,0.0,30.0,7.0,0.0
7813,34.0,0.0,120.0,3.0,0.0
7814,58.0,0.0,120.0,2.0,0.0
7815,46.0,0.0,120.0,6.0,0.0
7816,61.0,0.0,120.0,1.0,0.0
7817,58.0,0.0,120.0,8.0,0.0
7818,73.0,0.0,120.0,0.0,0.0
7819,73.0,30.0,30.0,7.0,0.0
7820,22.0,30.0,120.0,4.0,0.0
7821,71.0,0.0,30.0,7.0,0.0
7822,73.0,30.0,30.0,7.0,0.0
7823,78.0,0.0,60.0,5.0,0.0
7824,70.0,0.0,30.0,7.0,0.0
7825,66.0,30.0,30.0,7.0,0.0
7826,46.0,0.0,60.0,3.0,0.0
7827,34.0,0.0,60.0,4.0,0.0
7828,76.0,0.0,60.0,5.0,0.0
7829,58.0,0.0,60.0,6.0,0.0
7830,46.0,0.0,60.0,8.0,0.0
7831,70.0,30.0,30.0,7.0,0.0
7832,51.0,0.0,120.0,2.0,0.0
7833,59.0,0.0,120.0,6.0,0.0
7834,68.0,30.0,120.0,1.0,0.0
7835,47.0,0.0,120.0,8.0,0.0
7836,75.0,30.0,30.0,7.0,0.0
7837,75.0,0.0,240.0,5.0,0.0
7838,47.0,0.0,120.0,3.0,0.0
7839,35.0,0.0,120.0,4.0,0.0
7840,71.0,0.0,120.0,0.0,0.0
7841,73.0,30.0,30.0,7.0,0.0
7842,75.0,30.0,30.0,7.0,0.0
7843,71.0,0.0,30.0,7.0,0.0
7844,68.0,30.0,30.0,7.0,0.0
7845,47.0,0.0,60.0,6.0,0.0
7846,35.0,0.0,60.0,8.0,0.0
7847,23.0,0.0,60.0,4.0,0.0
7848,35.0,0.0,60.0,3.0,0.0
7849,71.0,30.0,30.0,7.0,0.0
7850,56.0,0.0,120.0,2.0,0.0
7851,25.0,0.0,120.0,4.0,0.0
7852,37.0,0.0,120.0,6.0,0.0
7853,68.0,30.0,120.0,0.0,0.0
7854,37.0,0.0,120.0,8.0,0.0
7855,76.0,30.0,30.0,7.0,0.0
7856,37.0,0.0,120.0,3.0,0.0
7857,64.0,0.0,120.0,1.0,0.0
7858,75.0,30.0,30.0,7.0,0.0
7859,73.0,0.0,60.0,5.0,0.0
7860,76.0,30.0,30.0,7.0,0.0
7861,73.0,0.0,30.0,7.0,0.0
7862,71.0,60.0,60.0,5.0,0.0
7863,49.0,0.0,60.0,8.0,0.0
7864,37.0,0.0,60.0,4.0,0.0
7865,49.0,0.0,60.0,3.0,0.0
7866,49.0,0.0,60.0,6.0,0.0
7867,75.0,30.0,30.0,7.0,0.0
7868,76.0,0.0,30.0,7.0,0.0
7869,37.0,0.0,120.0,4.0,0.0
7870,51.0,0.0,120.0,2.0,0.0
7871,67.0,0.0,60.0,7.0,0.0
7872,70.0,60.0,60.0,5.0,0.0
7873,58.0,0.0,120.0,1.0,0.0
7874,49.0,0.0,120.0,8.0,0.0
7875,49.0,60.0,120.0,6.0,0.0
7876,49.0,0.0,120.0,3.0,0.0
7877,75.0,0.0,120.0,0.0,0.0
7878,75.0,0.0,60.0,7.0,0.0
7879,67.0,0.0,60.0,5.0,0.0
7880,75.0,0.0,60.0,0.0,0.0
7881,51.0,59.0,60.0,2.0,0.0
7882,47.0,0.0,60.0,8.0,0.0
7883,59.0,0.0,60.0,1.0,0.0
7884,47.0,1.0,60.0,6.0,0.0
7885,68.0,30.0,120.0,7.0,0.0
7886,35.0,0.0,60.0,4.0,0.0
7887,68.0,0.0,60.0,5.0,0.0
7888,47.0,0.0,60.0,3.0,0.0
7889,46.0,0.0,120.0,3.0,0.0
7890,46.0,0.0,120.0,8.0,0.0
7891,46.0,0.0,120.0,6.0,0.0
7892,64.0,60.0,120.0,1.0,0.0
7893,58.0,0.0,120.0,2.0,0.0
7894,73.0,0.0,120.0,0.0,0.0
7895,34.0,0.0,120.0,4.0,0.0
7896,73.0,30.0,240.0,5.0,0.0
7897,67.0,30.0,30.0,7.0,0.0
7898,65.0,0.0,30.0,7.0,0.0
7899,67.0,0.0,60.0,7.0,0.0
7900,63.0,0.0,60.0,1.0,0.0
7901,70.0,29.0,60.0,0.0,0.0
7902,55.0,0.0,60.0,2.0,0.0
7903,39.0,0.0,60.0,3.0,0.0
7904,39.0,0.0,60.0,6.0,0.0
7905,39.0,0.0,60.0,8.0,0.0
7906,27.0,1.0,60.0,4.0,0.0
7907,44.0,30.0,120.0,3.0,0.0
7908,63.0,0.0,120.0,1.0,0.0
7909,68.0,0.0,120.0,0.0,0.0
7910,44.0,0.0,120.0,6.0,0.0
7911,32.0,0.0,120.0,4.0,0.0
7912,68.0,30.0,30.0,7.0,0.0
7913,32.0,0.0,120.0,8.0,0.0
7914,51.0,0.0,120.0,2.0,0.0
7915,63.0,0.0,30.0,7.0,0.0
7916,71.0,0.0,60.0,5.0,0.0
7917,64.0,30.0,30.0,7.0,0.0
7918,61.0,0.0,30.0,7.0,0.0
7919,20.0,0.0,60.0,4.0,0.0
7920,63.0,30.0,30.0,7.0,0.0
7921,32.0,0.0,60.0,3.0,0.0
7922,44.0,0.0,60.0,8.0,0.0
7923,32.0,30.0,60.0,6.0,0.0
7924,73.0,60.0,30.0,7.0,0.0
7925,44.0,30.0,120.0,8.0,0.0
7926,64.0,0.0,30.0,5.0,0.0
7927,20.0,0.0,120.0,4.0,0.0
7928,32.0,0.0,120.0,3.0,0.0
7929,32.0,0.0,120.0,6.0,0.0
7930,63.0,0.0,30.0,5.0,0.0
7931,71.0,30.0,30.0,7.0,0.0
7932,44.0,0.0,60.0,3.0,0.0
7933,44.0,30.0,60.0,6.0,0.0
7934,32.0,0.0,60.0,8.0,0.0
7935,61.0,0.0,30.0,5.0,0.0
7936,70.0,30.0,30.0,7.0,0.0
7937,32.0,0.0,60.0,4.0,0.0
7938,44.0,0.0,120.0,3.0,0.0
7939,32.0,0.0,120.0,4.0,0.0
7940,59.0,30.0,30.0,5.0,0.0
7941,32.0,0.0,120.0,8.0,0.0
7942,68.0,30.0,120.0,7.0,0.0
7943,44.0,0.0,120.0,6.0,0.0
7944,63.0,30.0,30.0,5.0,0.0
7945,64.0,30.0,30.0,5.0,0.0
7946,61.0,0.0,30.0,5.0,0.0
7947,32.0,0.0,60.0,6.0,0.0
7948,32.0,0.0,60.0,3.0,0.0
7949,20.0,0.0,60.0,4.0,0.0
7950,44.0,30.0,60.0,8.0,0.0
7951,63.0,30.0,30.0,5.0,0.0
7952,32.0,0.0,120.0,3.0,0.0
7953,64.0,60.0,30.0,7.0,0.0
7954,44.0,0.0,120.0,8.0,0.0
7955,73.0,0.0,30.0,5.0,0.0
7956,32.0,0.0,120.0,6.0,0.0
7957,20.0,30.0,120.0,4.0,0.0
7958,71.0,30.0,30.0,5.0,0.0
7959,63.0,0.0,30.0,7.0,0.0
7960,70.0,30.0,30.0,5.0,0.0
7961,44.0,30.0,60.0,3.0,0.0
7962,32.0,0.0,60.0,4.0,0.0
7963,61.0,0.0,30.0,7.0,0.0
7964,32.0,0.0,60.0,8.0,0.0
7965,44.0,0.0,60.0,6.0,0.0
7966,44.0,0.0,120.0,3.0,0.0
7967,44.0,0.0,60.0,6.0,0.0
7968,32.0,0.0,120.0,8.0,0.0
7969,59.0,30.0,30.0,7.0,0.0
7970,32.0,0.0,120.0,4.0,0.0
7971,68.0,0.0,120.0,5.0,0.0
7972,58.0,30.0,30.0,7.0,0.0
7973,59.0,30.0,30.0,7.0,0.0
7974,51.0,30.0,60.0,6.0,0.0
7975,61.0,0.0,30.0,7.0,0.0
7976,56.0,0.0,60.0,3.0,0.0
7977,44.0,30.0,60.0,4.0,0.0
7978,56.0,0.0,60.0,6.0,0.0
7979,63.0,30.0,30.0,7.0,0.0
7980,64.0,0.0,30.0,7.0,0.0
7981,66.0,30.0,30.0,7.0,0.0
7982,36.0,30.0,120.0,4.0,0.0
7983,48.0,0.0,120.0,3.0,0.0
7984,48.0,0.0,120.0,6.0,0.0
7985,69.0,30.0,30.0,7.0,0.0
7986,63.0,29.0,150.0,5.0,0.0
7987,68.0,30.0,30.0,7.0,0.0
7988,66.0,0.0,30.0,7.0,0.0
7989,64.0,30.0,30.0,7.0,0.0
7990,56.0,30.0,60.0,2.0,0.0
7991,56.0,0.0,60.0,6.0,0.0
7992,44.0,0.0,60.0,3.0,0.0
7993,32.0,0.0,60.0,4.0,0.0
7994,60.0,0.0,60.0,1.0,0.0
7995,68.0,0.0,60.0,0.0,0.0
7996,48.0,0.0,60.0,8.0,0.0
7997,63.0,1.0,30.0,7.0,0.0
7998,49.0,0.0,60.0,8.0,0.0
7999,49.0,0.0,120.0,6.0,0.0
8000,56.0,29.0,120.0,1.0,0.0
8001,64.0,0.0,120.0,0.0,0.0
8002,49.0,0.0,120.0,3.0,0.0
8003,37.0,0.0,120.0,4.0,0.0
8004,56.0,0.0,120.0,2.0,0.0
8005,64.0,0.0,120.0,7.0,0.0
8006,60.0,30.0,30.0,5.0,0.0
8007,52.0,0.0,60.0,8.0,0.0
8008,61.0,30.0,30.0,5.0,0.0
8009,63.0,1.0,30.0,5.0,0.0
8010,64.0,30.0,30.0,5.0,0.0
8011,56.0,30.0,60.0,8.0,0.0
8012,45.0,0.0,60.0,4.0,0.0
8013,57.0,0.0,60.0,3.0,0.0
8014,66.0,0.0,30.0,5.0,0.0
8015,68.0,30.0,30.0,5.0,0.0
8016,49.0,30.0,120.0,3.0,0.0
8017,49.0,0.0,120.0,8.0,0.0
8018,37.0,0.0,120.0,4.0,0.0
8019,71.0,30.0,30.0,5.0,0.0
8020,64.0,29.0,150.0,7.0,0.0
8021,69.0,30.0,30.0,5.0,0.0
8022,68.0,0.0,30.0,5.0,0.0
8023,45.0,0.0,60.0,3.0,0.0
8024,49.0,0.0,60.0,2.0,0.0
8025,49.0,1.0,60.0,6.0,0.0
8026,66.0,30.0,30.0,5.0,0.0
8027,33.0,0.0,60.0,4.0,0.0
8028,57.0,0.0,60.0,8.0,0.0
8029,64.0,0.0,60.0,1.0,0.0
8030,69.0,30.0,60.0,0.0,0.0
8031,64.0,0.0,30.0,5.0,0.0
8032,59.0,29.0,120.0,1.0,0.0
8033,66.0,0.0,120.0,5.0,0.0
8034,51.0,0.0,120.0,8.0,0.0
8035,66.0,0.0,120.0,0.0,0.0
8036,39.0,0.0,120.0,4.0,0.0
8037,51.0,0.0,120.0,3.0,0.0
8038,51.0,0.0,120.0,2.0,0.0
8039,51.0,0.0,60.0,6.0,0.0
8040,61.0,30.0,30.0,7.0,0.0
8041,63.0,30.0,30.0,7.0,0.0
8042,54.0,1.0,60.0,6.0,0.0
8043,64.0,0.0,30.0,7.0,0.0
8044,57.0,30.0,60.0,6.0,0.0
8045,66.0,30.0,30.0,7.0,0.0
8046,47.0,0.0,60.0,4.0,0.0
8047,59.0,0.0,60.0,3.0,0.0
8048,68.0,0.0,30.0,7.0,0.0
8049,51.0,0.0,120.0,3.0,0.0
8050,51.0,0.0,120.0,6.0,0.0
8051,39.0,30.0,120.0,4.0,0.0
8052,69.0,30.0,30.0,7.0,0.0
8053,73.0,30.0,30.0,7.0,0.0
8054,71.0,30.0,30.0,7.0,0.0
8055,66.0,0.0,180.0,5.0,0.0
8056,69.0,0.0,30.0,7.0,0.0
8057,35.0,1.0,60.0,4.0,0.0
8058,51.0,0.0,60.0,2.0,0.0
8059,51.0,0.0,60.0,8.0,0.0
8060,63.0,59.0,60.0,1.0,0.0
8061,68.0,30.0,30.0,7.0,0.0
8062,59.0,0.0,60.0,6.0,0.0
8063,71.0,0.0,60.0,0.0,0.0
8064,47.0,0.0,60.0,3.0,0.0
8065,66.0,0.0,30.0,7.0,0.0
8066,68.0,0.0,120.0,0.0,0.0
8067,52.0,0.0,120.0,2.0,0.0
8068,59.0,29.0,120.0,1.0,0.0
8069,52.0,0.0,120.0,3.0,0.0
8070,52.0,0.0,120.0,6.0,0.0
8071,40.0,1.0,120.0,4.0,0.0
8072,68.0,30.0,60.0,7.0,0.0
8073,40.0,0.0,120.0,8.0,0.0
8074,73.0,60.0,180.0,7.0,0.0
8075,64.0,30.0,30.0,5.0,0.0
8076,62.0,0.0,30.0,5.0,0.0
8077,64.0,0.0,60.0,0.0,0.0
8078,52.0,0.0,60.0,2.0,0.0
8079,56.0,59.0,60.0,1.0,0.0
8080,61.0,30.0,30.0,5.0,0.0
8081,59.0,1.0,30.0,5.0,0.0
8082,61.0,0.0,120.0,2.0,0.0
8083,40.0,0.0,120.0,3.0,0.0
8084,57.0,29.0,210.0,5.0,0.0
8085,28.0,1.0,120.0,4.0,0.0
8086,64.0,59.0,120.0,1.0,0.0
8087,69.0,0.0,120.0,0.0,0.0
8088,40.0,0.0,120.0,6.0,0.0
8089,52.0,0.0,120.0,8.0,0.0
8090,75.0,0.0,60.0,7.0,0.0
8091,76.0,1.0,60.0,7.0,0.0
8092,57.0,0.0,60.0,2.0,0.0
8093,64.0,30.0,60.0,0.0,0.0
8094,61.0,0.0,60.0,1.0,0.0
8095,40.0,0.0,120.0,8.0,0.0
8096,40.0,0.0,120.0,4.0,0.0
8097,52.0,30.0,120.0,3.0,0.0
8098,71.0,60.0,240.0,7.0,0.0
8099,52.0,0.0,120.0,6.0,0.0
8100,56.0,30.0,30.0,5.0,0.0
8101,63.0,30.0,30.0,5.0,0.0
8102,64.0,0.0,60.0,2.0,0.0
8103,71.0,59.0,60.0,0.0,0.0
8104,68.0,0.0,60.0,1.0,0.0
8105,64.0,31.0,30.0,5.0,0.0
8106,56.0,29.0,210.0,5.0,0.0
8107,64.0,0.0,120.0,1.0,0.0
8108,28.0,1.0,120.0,4.0,0.0
8109,40.0,0.0,120.0,3.0,0.0
8110,59.0,0.0,120.0,2.0,0.0
8111,40.0,0.0,120.0,6.0,0.0
8112,68.0,59.0,120.0,0.0,0.0
8113,52.0,0.0,120.0,8.0,0.0
8114,75.0,0.0,60.0,7.0,0.0
8115,56.0,0.0,60.0,2.0,0.0
8116,59.0,30.0,60.0,1.0,0.0
8117,76.0,1.0,60.0,7.0,0.0
8118,64.0,0.0,60.0,0.0,0.0
8119,40.0,30.0,120.0,4.0,0.0
8120,52.0,0.0,120.0,6.0,0.0
8121,52.0,0.0,120.0,3.0,0.0
8122,40.0,0.0,120.0,8.0,0.0
8123,69.0,60.0,240.0,7.0,0.0
8124,54.0,30.0,30.0,5.0,0.0
8125,63.0,30.0,30.0,5.0,0.0
8126,69.0,0.0,60.0,0.0,0.0
8127,64.0,31.0,30.0,5.0,0.0
8128,64.0,0.0,60.0,1.0,0.0
8129,61.0,59.0,60.0,2.0,0.0
8130,66.0,0.0,120.0,0.0,0.0
8131,28.0,0.0,120.0,4.0,0.0
8132,54.0,0.0,240.0,5.0,0.0
8133,40.0,1.0,120.0,3.0,0.0
8134,52.0,0.0,120.0,8.0,0.0
8135,57.0,29.0,120.0,2.0,0.0
8136,63.0,0.0,120.0,1.0,0.0
8137,47.0,0.0,60.0,6.0,0.0
8138,75.0,15.0,90.0,7.0,0.0
8139,63.0,0.0,60.0,0.0,0.0
8140,51.0,0.0,60.0,6.0,0.0
8141,57.0,0.0,60.0,1.0,0.0
8142,54.0,29.0,60.0,2.0,0.0
8143,76.0,15.0,15.0,7.0,0.0
8144,78.0,1.0,15.0,7.0,0.0
8145,40.0,0.0,120.0,8.0,0.0
8146,59.0,29.0,180.0,1.0,0.0
8147,47.0,30.0,60.0,6.0,0.0
8148,52.0,0.0,60.0,3.0,0.0
8149,40.0,0.0,60.0,4.0,0.0
8150,59.0,0.0,360.0,2.0,0.0
8151,68.0,29.0,720.0,0.0,0.0
8152,68.0,30.0,30.0,7.0,0.0
8153,66.0,0.0,30.0,7.0,0.0
8154,52.0,0.0,60.0,5.0,0.0
8155,40.0,0.0,60.0,4.0,0.0
8156,68.0,30.0,30.0,7.0,0.0
8157,52.0,0.0,60.0,3.0,0.0
8158,44.0,0.0,60.0,6.0,0.0
8159,64.0,30.0,30.0,7.0,0.0
8160,40.0,0.0,60.0,4.0,0.0
8161,47.0,0.0,60.0,6.0,0.0
8162,56.0,0.0,60.0,5.0,0.0
8163,52.0,0.0,60.0,3.0,0.0
8164,59.0,30.0,30.0,7.0,0.0
8165,52.0,0.0,60.0,8.0,0.0
8166,64.0,1.0,30.0,7.0,0.0
8167,50.0,30.0,60.0,3.0,0.0
8168,59.0,0.0,60.0,5.0,0.0
8169,38.0,0.0,60.0,4.0,0.0
8170,64.0,29.0,180.0,1.0,0.0
8171,52.0,0.0,60.0,6.0,0.0
8172,50.0,0.0,120.0,8.0,0.0
8173,68.0,30.0,30.0,7.0,0.0
8174,66.0,0.0,30.0,7.0,0.0
8175,38.0,0.0,60.0,4.0,0.0
8176,64.0,0.0,60.0,5.0,0.0
8177,50.0,30.0,60.0,3.0,0.0
8178,47.0,0.0,60.0,6.0,0.0
8179,68.0,30.0,30.0,7.0,0.0
8180,64.0,0.0,30.0,7.0,0.0
8181,44.0,0.0,60.0,6.0,0.0
8182,38.0,0.0,60.0,4.0,0.0
8183,38.0,0.0,60.0,8.0,0.0
8184,50.0,0.0,60.0,3.0,0.0
8185,68.0,1.0,60.0,5.0,0.0
8186,59.0,30.0,30.0,7.0,0.0
8187,64.0,0.0,30.0,7.0,0.0
8188,37.0,30.0,120.0,4.0,0.0
8189,49.0,0.0,120.0,3.0,0.0
8190,68.0,30.0,30.0,7.0,0.0
8191,37.0,0.0,120.0,8.0,0.0
8192,65.0,0.0,360.0,1.0,0.0
8193,61.0,0.0,720.0,2.0,0.0
8194,49.0,0.0,60.0,6.0,0.0
8195,65.0,0.0,60.0,5.0,0.0
8196,66.0,30.0,30.0,7.0,0.0
8197,59.0,0.0,60.0,5.0,0.0
8198,44.0,0.0,60.0,6.0,0.0
8199,68.0,30.0,30.0,7.0,0.0
8200,65.0,0.0,30.0,7.0,0.0
8201,59.0,30.0,30.0,7.0,0.0
8202,41.0,30.0,60.0,6.0,0.0
8203,25.0,0.0,60.0,4.0,0.0
8204,37.0,0.0,60.0,3.0,0.0
8205,56.0,0.0,60.0,5.0,0.0
8206,49.0,0.0,60.0,8.0,0.0
8207,65.0,0.0,30.0,7.0,0.0
8208,37.0,0.0,120.0,3.0,0.0
8209,61.0,0.0,60.0,5.0,0.0
8210,25.0,0.0,120.0,4.0,0.0
8211,49.0,0.0,120.0,8.0,0.0
8212,68.0,30.0,30.0,7.0,0.0
8213,37.0,30.0,60.0,6.0,0.0
8214,66.0,0.0,30.0,7.0,0.0
8215,44.0,0.0,60.0,6.0,0.0
8216,68.0,30.0,30.0,7.0,0.0
8217,65.0,30.0,60.0,5.0,0.0
8218,65.0,0.0,30.0,7.0,0.0
8219,49.0,0.0,60.0,6.0,0.0
8220,37.0,0.0,60.0,8.0,0.0
8221,68.0,0.0,60.0,5.0,0.0
8222,59.0,30.0,30.0,7.0,0.0
8223,37.0,0.0,60.0,4.0,0.0
8224,49.0,0.0,60.0,3.0,0.0
8225,65.0,1.0,30.0,7.0,0.0
8226,54.0,0.0,60.0,3.0,0.0
8227,66.0,0.0,60.0,7.0,0.0
8228,69.0,30.0,30.0,5.0,0.0
8229,69.0,29.0,360.0,0.0,0.0
8230,42.0,30.0,60.0,4.0,0.0
8231,42.0,0.0,60.0,8.0,0.0
8232,42.0,29.0,120.0,6.0,0.0
8233,66.0,0.0,360.0,1.0,0.0
8234,68.0,0.0,30.0,5.0,0.0
8235,69.0,30.0,30.0,5.0,0.0
8236,61.0,0.0,60.0,7.0,0.0
8237,54.0,0.0,60.0,3.0,0.0
8238,45.0,0.0,60.0,8.0,0.0
8239,42.0,1.0,60.0,4.0,0.0
8240,66.0,0.0,30.0,5.0,0.0
8241,54.0,0.0,60.0,6.0,0.0
8242,54.0,30.0,60.0,3.0,0.0
8243,42.0,0.0,60.0,4.0,0.0
8244,49.0,0.0,60.0,8.0,0.0
8245,61.0,30.0,30.0,5.0,0.0
8246,57.0,0.0,60.0,7.0,0.0
8247,66.0,0.0,30.0,5.0,0.0
8248,69.0,30.0,30.0,5.0,0.0
8249,45.0,0.0,60.0,8.0,0.0
8250,52.0,0.0,120.0,6.0,0.0
8251,40.0,0.0,60.0,4.0,0.0
8252,61.0,0.0,60.0,7.0,0.0
8253,52.0,30.0,60.0,3.0,0.0
8254,68.0,0.0,30.0,5.0,0.0
8255,52.0,30.0,60.0,3.0,0.0
8256,42.0,0.0,60.0,8.0,0.0
8257,40.0,0.0,60.0,4.0,0.0
8258,66.0,0.0,60.0,7.0,0.0
8259,69.0,30.0,30.0,5.0,0.0
8260,66.0,0.0,30.0,5.0,0.0
8261,69.0,0.0,60.0,7.0,0.0
8262,52.0,0.0,60.0,3.0,0.0
8263,40.0,0.0,60.0,4.0,0.0
8264,40.0,1.0,60.0,6.0,0.0
8265,40.0,0.0,60.0,8.0,0.0
8266,61.0,30.0,30.0,5.0,0.0
8267,66.0,0.0,30.0,5.0,0.0
8268,39.0,0.0,120.0,4.0,0.0
8269,67.0,0.0,60.0,7.0,0.0
8270,39.0,30.0,120.0,6.0,0.0
8271,51.0,0.0,120.0,3.0,0.0
8272,70.0,29.0,360.0,0.0,0.0
8273,67.0,0.0,360.0,1.0,0.0
8274,70.0,30.0,30.0,5.0,0.0
8275,39.0,0.0,60.0,8.0,0.0
8276,63.0,59.0,480.0,2.0,0.0
8277,68.0,30.0,30.0,5.0,0.0
8278,43.0,0.0,60.0,8.0,0.0
8279,70.0,30.0,30.0,5.0,0.0
8280,61.0,0.0,60.0,7.0,0.0
8281,67.0,0.0,30.0,5.0,0.0
8282,58.0,0.0,60.0,7.0,0.0
8283,61.0,30.0,30.0,5.0,0.0
8284,39.0,30.0,60.0,3.0,0.0
8285,27.0,0.0,60.0,4.0,0.0
8286,51.0,0.0,60.0,6.0,0.0
8287,46.0,0.0,60.0,8.0,0.0
8288,67.0,0.0,30.0,5.0,0.0
8289,39.0,0.0,120.0,3.0,0.0
8290,51.0,0.0,120.0,6.0,0.0
8291,43.0,0.0,60.0,8.0,0.0
8292,27.0,0.0,120.0,4.0,0.0
8293,61.0,30.0,60.0,7.0,0.0
8294,70.0,30.0,30.0,5.0,0.0
8295,68.0,0.0,30.0,5.0,0.0
8296,39.0,0.0,60.0,8.0,0.0
8297,70.0,30.0,30.0,5.0,0.0
8298,67.0,30.0,60.0,7.0,0.0
8299,67.0,0.0,30.0,5.0,0.0
8300,39.0,0.0,60.0,4.0,0.0
8301,51.0,0.0,60.0,8.0,0.0
8302,70.0,0.0,60.0,7.0,0.0
8303,51.0,1.0,60.0,3.0,0.0
8304,39.0,0.0,60.0,6.0,0.0
8305,61.0,30.0,30.0,5.0,0.0
8306,67.0,0.0,30.0,5.0,0.0
8307,44.0,0.0,120.0,4.0,0.0
8308,68.0,0.0,120.0,1.0,0.0
8309,71.0,1.0,30.0,7.0,0.0
8310,44.0,1.0,120.0,6.0,0.0
8311,51.0,29.0,30.0,8.0,0.0
8312,56.0,0.0,120.0,3.0,0.0
8313,71.0,0.0,120.0,0.0,0.0
8314,68.0,0.0,60.0,5.0,0.0
8315,70.0,1.0,30.0,7.0,0.0
8316,49.0,29.0,30.0,8.0,0.0
8317,47.0,29.0,30.0,8.0,0.0
8318,68.0,1.0,30.0,7.0,0.0
8319,71.0,0.0,60.0,5.0,0.0
8320,67.0,0.0,30.0,7.0,0.0
8321,46.0,0.0,30.0,8.0,0.0
8322,76.0,30.0,90.0,5.0,0.0
8323,68.0,0.0,60.0,7.0,0.0
8324,32.0,0.0,60.0,4.0,0.0
8325,56.0,0.0,60.0,6.0,0.0
8326,64.0,0.0,60.0,2.0,0.0
8327,44.0,0.0,60.0,3.0,0.0
8328,71.0,29.0,60.0,0.0,0.0
8329,47.0,1.0,60.0,8.0,0.0
8330,68.0,0.0,60.0,1.0,0.0
8331,61.0,29.0,120.0,2.0,0.0
8332,73.0,0.0,120.0,0.0,0.0
8333,34.0,0.0,120.0,4.0,0.0
8334,66.0,0.0,120.0,1.0,0.0
8335,58.0,0.0,120.0,6.0,0.0
8336,46.0,0.0,120.0,3.0,0.0
8337,80.0,30.0,30.0,5.0,0.0
8338,78.0,30.0,30.0,5.0,0.0
8339,76.0,1.0,30.0,5.0,0.0
8340,42.0,0.0,60.0,3.0,0.0
8341,75.0,30.0,30.0,5.0,0.0
8342,30.0,0.0,60.0,4.0,0.0
8343,70.0,0.0,60.0,1.0,0.0
8344,66.0,29.0,60.0,2.0,0.0
8345,54.0,0.0,60.0,6.0,0.0
8346,64.0,0.0,60.0,0.0,0.0
8347,73.0,1.0,30.0,5.0,0.0
8348,71.0,0.0,120.0,1.0,0.0
8349,35.0,0.0,120.0,4.0,0.0
8350,54.0,29.0,30.0,6.0,0.0
8351,63.0,59.0,120.0,0.0,0.0
8352,47.0,1.0,120.0,8.0,0.0
8353,47.0,0.0,120.0,3.0,0.0
8354,75.0,1.0,30.0,5.0,0.0
8355,54.0,0.0,120.0,2.0,0.0
8356,71.0,60.0,240.0,7.0,0.0
8357,73.0,1.0,30.0,5.0,0.0
8358,52.0,29.0,30.0,6.0,0.0
8359,71.0,1.0,30.0,5.0,0.0
8360,51.0,29.0,30.0,6.0,0.0
8361,49.0,0.0,30.0,6.0,0.0
8362,70.0,0.0,30.0,5.0,0.0
8363,35.0,0.0,60.0,3.0,0.0
8364,23.0,0.0,60.0,4.0,0.0
8365,51.0,60.0,60.0,6.0,0.0
8366,71.0,0.0,60.0,5.0,0.0
8367,35.0,0.0,60.0,8.0,0.0
8368,37.0,0.0,120.0,8.0,0.0
8369,64.0,0.0,120.0,0.0,0.0
8370,37.0,0.0,120.0,3.0,0.0
8371,25.0,0.0,120.0,4.0,0.0
8372,61.0,59.0,120.0,2.0,0.0
8373,68.0,0.0,120.0,1.0,0.0
8374,70.0,1.0,60.0,7.0,0.0
8375,49.0,0.0,60.0,8.0,0.0
8376,37.0,120.0,60.0,4.0,0.0
8377,49.0,0.0,60.0,3.0,0.0
8378,68.0,0.0,60.0,7.0,0.0
8379,66.0,0.0,120.0,0.0,0.0
8380,39.0,1.0,120.0,4.0,0.0
8381,54.0,59.0,120.0,2.0,0.0
8382,66.0,60.0,240.0,7.0,0.0
8383,51.0,0.0,120.0,8.0,0.0
8384,63.0,0.0,120.0,1.0,0.0
8385,51.0,0.0,120.0,3.0,0.0
8386,39.0,0.0,60.0,8.0,0.0
8387,27.0,60.0,60.0,4.0,0.0
8388,39.0,0.0,60.0,3.0,0.0
8389,28.0,0.0,120.0,4.0,0.0
8390,47.0,0.0,120.0,2.0,0.0
8391,40.0,0.0,120.0,3.0,0.0
8392,68.0,59.0,120.0,0.0,0.0
8393,40.0,0.0,120.0,8.0,0.0
8394,59.0,0.0,120.0,1.0,0.0
8395,64.0,1.0,60.0,7.0,0.0
8396,63.0,0.0,60.0,7.0,0.0
8397,52.0,0.0,60.0,8.0,0.0
8398,52.0,0.0,60.0,3.0,0.0
8399,40.0,60.0,60.0,4.0,0.0
8400,52.0,0.0,120.0,8.0,0.0
8401,54.0,0.0,120.0,2.0,0.0
8402,52.0,0.0,120.0,3.0,0.0
8403,40.0,0.0,120.0,4.0,0.0
8404,54.0,59.0,120.0,1.0,0.0
8405,61.0,1.0,60.0,7.0,0.0
8406,70.0,59.0,60.0,0.0,0.0
8407,66.0,0.0,60.0,0.0,0.0
8408,58.0,1.0,60.0,7.0,0.0
8409,71.0,59.0,120.0,0.0,0.0
8410,39.0,1.0,60.0,4.0,0.0
8411,51.0,0.0,60.0,8.0,0.0
8412,54.0,60.0,60.0,2.0,0.0
8413,66.0,0.0,60.0,1.0,0.0
8414,51.0,0.0,60.0,3.0,0.0
8415,59.0,0.0,60.0,7.0,0.0
8416,49.0,1.0,120.0,3.0,0.0
8417,68.0,0.0,120.0,1.0,0.0
8418,64.0,60.0,240.0,7.0,0.0
8419,61.0,59.0,120.0,2.0,0.0
8420,37.0,0.0,120.0,4.0,0.0
8421,49.0,0.0,120.0,8.0,0.0
8422,68.0,0.0,60.0,0.0,0.0
8423,54.0,0.0,60.0,3.0,0.0
8424,54.0,0.0,60.0,8.0,0.0
8425,70.0,0.0,60.0,0.0,0.0
8426,61.0,59.0,60.0,2.0,0.0
8427,42.0,1.0,60.0,4.0,0.0
8428,35.0,0.0,120.0,4.0,0.0
8429,66.0,0.0,15.0,1.0,0.0
8430,47.0,0.0,120.0,3.0,0.0
8431,47.0,1.0,120.0,8.0,0.0
8432,71.0,59.0,120.0,0.0,0.0
8433,63.0,0.0,60.0,7.0,0.0
8434,59.0,0.0,15.0,2.0,0.0
8435,66.0,0.0,60.0,7.0,0.0
8436,39.0,0.0,60.0,4.0,0.0
8437,66.0,0.0,60.0,0.0,0.0
8438,51.0,0.0,60.0,3.0,0.0
8439,51.0,1.0,60.0,8.0,0.0
8440,44.0,1.0,120.0,3.0,0.0
8441,66.0,0.0,120.0,0.0,0.0
8442,32.0,0.0,120.0,4.0,0.0
8443,63.0,59.0,15.0,1.0,0.0
8444,59.0,29.0,120.0,2.0,0.0
8445,44.0,0.0,120.0,8.0,0.0
8446,71.0,30.0,60.0,7.0,0.0
8447,73.0,30.0,30.0,7.0,0.0
8448,71.0,0.0,30.0,7.0,0.0
8449,70.0,30.0,30.0,7.0,0.0
8450,61.0,0.0,60.0,2.0,0.0
8451,61.0,29.0,60.0,1.0,0.0
8452,49.0,0.0,60.0,8.0,0.0
8453,37.0,0.0,60.0,4.0,0.0
8454,49.0,0.0,60.0,3.0,0.0
8455,65.0,0.0,60.0,0.0,0.0
8456,68.0,1.0,30.0,7.0,0.0
8457,70.0,30.0,30.0,7.0,0.0
8458,42.0,1.0,120.0,3.0,0.0
8459,42.0,0.0,120.0,8.0,0.0
8460,30.0,0.0,120.0,4.0,0.0
8461,66.0,0.0,120.0,0.0,0.0
8462,58.0,0.0,120.0,2.0,0.0
8463,61.0,29.0,120.0,1.0,0.0
8464,54.0,0.0,120.0,6.0,0.0
8465,78.0,30.0,240.0,5.0,0.0
8466,68.0,30.0,30.0,7.0,0.0
8467,70.0,30.0,30.0,7.0,0.0
8468,66.0,0.0,30.0,7.0,0.0
8469,61.0,30.0,30.0,7.0,0.0
8470,54.0,0.0,60.0,8.0,0.0
8471,42.0,0.0,60.0,6.0,0.0
8472,54.0,0.0,60.0,3.0,0.0
8473,42.0,0.0,60.0,4.0,0.0
8474,66.0,30.0,30.0,7.0,0.0
8475,44.0,0.0,120.0,4.0,0.0
8476,56.0,0.0,120.0,2.0,0.0
8477,71.0,30.0,30.0,7.0,0.0
8478,56.0,1.0,120.0,8.0,0.0
8479,59.0,0.0,120.0,1.0,0.0
8480,44.0,0.0,120.0,6.0,0.0
8481,71.0,29.0,120.0,0.0,0.0
8482,56.0,0.0,120.0,3.0,0.0
8483,70.0,0.0,30.0,7.0,0.0
8484,77.0,0.0,60.0,5.0,0.0
8485,71.0,30.0,30.0,7.0,0.0
8486,68.0,0.0,30.0,7.0,0.0
8487,56.0,0.0,60.0,6.0,0.0
8488,44.0,30.0,60.0,8.0,0.0
8489,65.0,30.0,30.0,7.0,0.0
8490,75.0,0.0,60.0,5.0,0.0
8491,44.0,0.0,60.0,3.0,0.0
8492,32.0,0.0,60.0,4.0,0.0
8493,68.0,0.0,30.0,7.0,0.0
8494,46.0,1.0,120.0,8.0,0.0
8495,34.0,0.0,120.0,4.0,0.0
8496,73.0,30.0,240.0,5.0,0.0
8497,49.0,29.0,120.0,2.0,0.0
8498,70.0,0.0,120.0,0.0,0.0
8499,66.0,0.0,120.0,1.0,0.0
8500,73.0,30.0,30.0,7.0,0.0
8501,46.0,0.0,120.0,3.0,0.0
8502,58.0,0.0,120.0,6.0,0.0
8503,71.0,30.0,30.0,7.0,0.0
8504,73.0,30.0,30.0,7.0,0.0
8505,70.0,0.0,30.0,7.0,0.0
8506,66.0,30.0,30.0,7.0,0.0
8507,22.0,0.0,60.0,4.0,0.0
8508,58.0,0.0,60.0,8.0,0.0
8509,46.0,0.0,60.0,6.0,0.0
8510,34.0,0.0,60.0,3.0,0.0
8511,70.0,30.0,30.0,7.0,0.0
8512,63.0,0.0,120.0,1.0,0.0
8513,75.0,30.0,30.0,7.0,0.0
8514,54.0,29.0,120.0,2.0,0.0
8515,59.0,0.0,120.0,8.0,0.0
8516,47.0,1.0,120.0,6.0,0.0
8517,66.0,0.0,120.0,0.0,0.0
8518,35.0,0.0,120.0,3.0,0.0
8519,23.0,0.0,120.0,4.0,0.0
8520,73.0,0.0,30.0,7.0,0.0
8521,75.0,30.0,30.0,7.0,0.0
8522,71.0,0.0,60.0,5.0,0.0
8523,71.0,0.0,30.0,7.0,0.0
8524,70.0,0.0,60.0,5.0,0.0
8525,59.0,60.0,60.0,6.0,0.0
8526,47.0,0.0,60.0,8.0,0.0
8527,47.0,0.0,60.0,3.0,0.0
8528,73.0,30.0,30.0,7.0,0.0
8529,35.0,0.0,60.0,4.0,0.0
8530,75.0,0.0,30.0,7.0,0.0
8531,47.0,1.0,120.0,3.0,0.0
8532,68.0,0.0,60.0,5.0,0.0
8533,47.0,0.0,120.0,8.0,0.0
8534,73.0,59.0,120.0,0.0,0.0
8535,68.0,0.0,120.0,1.0,0.0
8536,65.0,60.0,60.0,7.0,0.0
8537,59.0,0.0,120.0,6.0,0.0
8538,49.0,0.0,120.0,2.0,0.0
8539,35.0,0.0,120.0,4.0,0.0
8540,65.0,0.0,60.0,5.0,0.0
8541,73.0,0.0,60.0,7.0,0.0
8542,46.0,0.0,60.0,8.0,0.0
8543,66.0,1.0,60.0,5.0,0.0
8544,66.0,30.0,120.0,7.0,0.0
8545,49.0,59.0,60.0,2.0,0.0
8546,34.0,0.0,60.0,4.0,0.0
8547,73.0,0.0,60.0,0.0,0.0
8548,46.0,0.0,60.0,3.0,0.0
8549,58.0,0.0,60.0,6.0,0.0
8550,70.0,0.0,60.0,1.0,0.0
8551,71.0,0.0,240.0,5.0,0.0
8552,32.0,0.0,120.0,4.0,0.0
8553,44.0,1.0,120.0,3.0,0.0
8554,71.0,59.0,120.0,0.0,0.0
8555,56.0,0.0,120.0,6.0,0.0
8556,44.0,0.0,120.0,8.0,0.0
8557,63.0,0.0,120.0,1.0,0.0
8558,56.0,0.0,120.0,2.0,0.0
8559,65.0,30.0,30.0,7.0,0.0
8560,63.0,0.0,30.0,7.0,0.0
8561,37.0,1.0,60.0,4.0,0.0
8562,49.0,0.0,60.0,6.0,0.0
8563,49.0,0.0,60.0,3.0,0.0
8564,65.0,0.0,60.0,7.0,0.0
8565,49.0,0.0,60.0,8.0,0.0
8566,68.0,0.0,60.0,0.0,0.0
8567,53.0,0.0,60.0,2.0,0.0
8568,42.0,0.0,120.0,3.0,0.0
8569,66.0,29.0,120.0,0.0,0.0
8570,61.0,29.0,15.0,1.0,0.0
8571,42.0,0.0,120.0,8.0,0.0
8572,54.0,0.0,120.0,6.0,0.0
8573,66.0,30.0,30.0,7.0,0.0
8574,49.0,0.0,120.0,2.0,0.0
8575,30.0,0.0,120.0,4.0,0.0
8576,65.0,30.0,30.0,7.0,0.0
8577,70.0,0.0,60.0,5.0,0.0
8578,66.0,30.0,30.0,7.0,0.0
8579,61.0,1.0,30.0,7.0,0.0
8580,40.0,0.0,60.0,8.0,0.0
8581,40.0,0.0,60.0,3.0,0.0
8582,58.0,30.0,30.0,7.0,0.0
8583,28.0,0.0,60.0,4.0,0.0
8584,73.0,0.0,60.0,5.0,0.0
8585,52.0,30.0,60.0,6.0,0.0
8586,61.0,0.0,30.0,7.0,0.0
8587,59.0,30.0,30.0,7.0,0.0
8588,51.0,0.0,120.0,6.0,0.0
8589,39.0,0.0,120.0,8.0,0.0
8590,39.0,30.0,120.0,3.0,0.0
8591,78.0,0.0,120.0,5.0,0.0
8592,27.0,0.0,120.0,4.0,0.0
8593,61.0,30.0,30.0,7.0,0.0
8594,63.0,30.0,30.0,7.0,0.0
8595,64.0,0.0,30.0,7.0,0.0
8596,23.0,0.0,60.0,4.0,0.0
8597,47.0,0.0,60.0,6.0,0.0
8598,35.0,0.0,60.0,8.0,0.0
8599,66.0,29.0,120.0,0.0,0.0
8600,66.0,30.0,30.0,7.0,0.0
8601,59.0,29.0,60.0,1.0,0.0
8602,51.0,0.0,60.0,2.0,0.0
8603,35.0,1.0,60.0,3.0,0.0
8604,69.0,1.0,120.0,5.0,0.0
8605,63.0,0.0,30.0,7.0,0.0
8606,40.0,0.0,120.0,3.0,0.0
8607,40.0,0.0,120.0,8.0,0.0
8608,28.0,0.0,120.0,4.0,0.0
8609,52.0,29.0,120.0,2.0,0.0
8610,59.0,0.0,120.0,1.0,0.0
8611,52.0,0.0,120.0,6.0,0.0
8612,59.0,30.0,30.0,7.0,0.0
8613,57.0,0.0,30.0,7.0,0.0
8614,59.0,30.0,30.0,7.0,0.0
8615,68.0,1.0,60.0,5.0,0.0
8616,64.0,0.0,60.0,0.0,0.0
8617,64.0,0.0,30.0,7.0,0.0
8618,39.0,0.0,60.0,3.0,0.0
8619,27.0,0.0,60.0,4.0,0.0
8620,56.0,30.0,30.0,7.0,0.0
8621,39.0,0.0,60.0,8.0,0.0
8622,51.0,0.0,60.0,6.0,0.0
8623,71.0,0.0,60.0,5.0,0.0
8624,59.0,30.0,30.0,7.0,0.0
8625,37.0,0.0,120.0,8.0,0.0
8626,58.0,30.0,30.0,7.0,0.0
8627,25.0,0.0,120.0,4.0,0.0
8628,37.0,0.0,120.0,3.0,0.0
8629,76.0,0.0,120.0,5.0,0.0
8630,49.0,0.0,120.0,6.0,0.0
8631,59.0,30.0,30.0,7.0,0.0
8632,61.0,30.0,30.0,7.0,0.0
8633,63.0,30.0,30.0,7.0,0.0
8634,64.0,30.0,30.0,7.0,0.0
8635,22.0,0.0,60.0,4.0,0.0
8636,46.0,0.0,60.0,6.0,0.0
8637,34.0,1.0,60.0,3.0,0.0
8638,49.0,0.0,60.0,2.0,0.0
8639,64.0,29.0,120.0,0.0,0.0
8640,34.0,0.0,60.0,8.0,0.0
8641,68.0,1.0,120.0,5.0,0.0
8642,61.0,0.0,30.0,7.0,0.0
8643,58.0,30.0,30.0,7.0,0.0
8644,39.0,0.0,120.0,8.0,0.0
8645,27.0,0.0,120.0,4.0,0.0
8646,51.0,0.0,120.0,6.0,0.0
8647,39.0,0.0,120.0,3.0,0.0
8648,51.0,0.0,120.0,2.0,0.0
8649,58.0,29.0,15.0,1.0,0.0
8650,56.0,0.0,30.0,7.0,0.0
8651,58.0,30.0,30.0,7.0,0.0
8652,66.0,0.0,60.0,5.0,0.0
8653,63.0,0.0,60.0,0.0,0.0
8654,63.0,1.0,30.0,7.0,0.0
8655,25.0,0.0,60.0,4.0,0.0
8656,54.0,30.0,30.0,7.0,0.0
8657,37.0,0.0,60.0,8.0,0.0
8658,70.0,0.0,60.0,5.0,0.0
8659,49.0,30.0,60.0,6.0,0.0
8660,37.0,0.0,60.0,3.0,0.0
8661,58.0,0.0,30.0,7.0,0.0
8662,75.0,0.0,120.0,5.0,0.0
8663,47.0,0.0,120.0,6.0,0.0
8664,23.0,30.0,120.0,4.0,0.0
8665,35.0,0.0,120.0,3.0,0.0
8666,56.0,30.0,30.0,7.0,0.0
8667,35.0,0.0,120.0,8.0,0.0
8668,58.0,30.0,30.0,7.0,0.0
8669,59.0,30.0,30.0,7.0,0.0
8670,61.0,0.0,30.0,7.0,0.0
8671,44.0,0.0,60.0,6.0,0.0
8672,66.0,1.0,120.0,5.0,0.0
8673,47.0,0.0,60.0,2.0,0.0
8674,63.0,30.0,30.0,7.0,0.0
8675,20.0,0.0,60.0,4.0,0.0
8676,63.0,29.0,120.0,0.0,0.0
8677,32.0,1.0,60.0,8.0,0.0
8678,32.0,0.0,60.0,3.0,0.0
8679,59.0,0.0,30.0,7.0,0.0
8680,37.0,0.0,120.0,8.0,0.0
8681,49.0,29.0,120.0,2.0,0.0
8682,37.0,0.0,120.0,3.0,0.0
8683,56.0,29.0,15.0,1.0,0.0
8684,56.0,30.0,30.0,7.0,0.0
8685,25.0,0.0,120.0,4.0,0.0
8686,49.0,0.0,120.0,6.0,0.0
8687,54.0,0.0,30.0,7.0,0.0
8688,61.0,0.0,60.0,0.0,0.0
8689,56.0,30.0,30.0,7.0,0.0
8690,64.0,0.0,60.0,5.0,0.0
8691,61.0,1.0,30.0,7.0,0.0
8692,47.0,0.0,60.0,6.0,0.0
8693,35.0,0.0,60.0,3.0,0.0
8694,23.0,0.0,60.0,4.0,0.0
8695,52.0,30.0,30.0,7.0,0.0
8696,35.0,30.0,60.0,8.0,0.0
8697,68.0,0.0,60.0,5.0,0.0
8698,56.0,0.0,30.0,7.0,0.0
8699,34.0,0.0,120.0,8.0,0.0
8700,54.0,30.0,30.0,7.0,0.0
8701,22.0,0.0,120.0,4.0,0.0
8702,73.0,0.0,120.0,5.0,0.0
8703,34.0,30.0,120.0,3.0,0.0
8704,46.0,0.0,120.0,6.0,0.0
8705,56.0,30.0,30.0,7.0,0.0
8706,58.0,30.0,30.0,7.0,0.0
8707,59.0,0.0,30.0,7.0,0.0
8708,61.0,30.0,60.0,0.0,0.0
8709,30.0,0.0,60.0,4.0,0.0
8710,61.0,30.0,30.0,7.0,0.0
8711,42.0,0.0,60.0,3.0,0.0
8712,54.0,0.0,60.0,2.0,0.0
8713,58.0,0.0,60.0,1.0,0.0
8714,64.0,0.0,120.0,5.0,0.0
8715,42.0,0.0,60.0,8.0,0.0
8716,42.0,0.0,60.0,6.0,0.0
8717,58.0,0.0,30.0,7.0,0.0
8718,54.0,0.0,120.0,2.0,0.0
8719,35.0,0.0,120.0,3.0,0.0
8720,59.0,30.0,30.0,7.0,0.0
8721,23.0,0.0,120.0,4.0,0.0
8722,54.0,29.0,120.0,1.0,0.0
8723,35.0,0.0,120.0,8.0,0.0
8724,47.0,0.0,120.0,6.0,0.0
8725,59.0,1.0,120.0,0.0,0.0
8726,54.0,30.0,30.0,7.0,0.0
8727,63.0,0.0,60.0,5.0,0.0
8728,56.0,30.0,30.0,7.0,0.0
8729,52.0,0.0,30.0,7.0,0.0
8730,54.0,30.0,30.0,7.0,0.0
8731,35.0,0.0,60.0,6.0,0.0
8732,47.0,30.0,60.0,8.0,0.0
8733,47.0,30.0,120.0,8.0,0.0
8734,35.0,0.0,120.0,6.0,0.0
8735,64.0,60.0,30.0,7.0,0.0
8736,56.0,0.0,30.0,5.0,0.0
8737,54.0,0.0,30.0,5.0,0.0
8738,63.0,30.0,30.0,7.0,0.0
8739,61.0,30.0,30.0,7.0,0.0
8740,52.0,0.0,30.0,5.0,0.0
8741,47.0,0.0,60.0,6.0,0.0
8742,35.0,30.0,60.0,8.0,0.0
8743,35.0,30.0,120.0,3.0,0.0
8744,35.0,0.0,120.0,8.0,0.0
8745,51.0,30.0,30.0,5.0,0.0
8746,47.0,0.0,120.0,6.0,0.0
8747,23.0,0.0,120.0,4.0,0.0
8748,59.0,0.0,120.0,7.0,0.0
8749,54.0,30.0,30.0,5.0,0.0
8750,56.0,30.0,30.0,5.0,0.0
8751,52.0,0.0,30.0,5.0,0.0
8752,47.0,30.0,60.0,8.0,0.0
8753,35.0,0.0,60.0,6.0,0.0
8754,54.0,30.0,30.0,5.0,0.0
8755,64.0,60.0,30.0,5.0,0.0
8756,56.0,0.0,30.0,7.0,0.0
8757,47.0,30.0,120.0,8.0,0.0
8758,35.0,0.0,120.0,6.0,0.0
8759,63.0,30.0,30.0,5.0,0.0
8760,54.0,0.0,30.0,7.0,0.0
8761,61.0,0.0,30.0,5.0,0.0
8762,47.0,0.0,60.0,6.0,0.0
8763,35.0,30.0,60.0,8.0,0.0
8764,52.0,30.0,30.0,7.0,0.0
8765,35.0,0.0,120.0,8.0,0.0
8766,35.0,0.0,120.0,3.0,0.0
8767,59.0,0.0,60.0,5.0,0.0
8768,51.0,30.0,30.0,7.0,0.0
8769,47.0,0.0,60.0,6.0,0.0
8770,23.0,0.0,120.0,4.0,0.0
8771,54.0,30.0,30.0,7.0,0.0
8772,78.0,29.0,150.0,5.0,0.0
8773,51.0,0.0,60.0,6.0,0.0
8774,59.0,30.0,30.0,7.0,0.0
8775,61.0,30.0,30.0,7.0,0.0
8776,47.0,31.0,60.0,3.0,0.0
8777,63.0,30.0,30.0,7.0,0.0
8778,47.0,0.0,60.0,8.0,0.0
8779,35.0,0.0,60.0,4.0,0.0
8780,54.0,0.0,60.0,6.0,0.0
8781,64.0,0.0,30.0,7.0,0.0
8782,51.0,0.0,120.0,3.0,0.0
8783,39.0,30.0,120.0,8.0,0.0
8784,39.0,0.0,120.0,4.0,0.0
8785,51.0,30.0,60.0,6.0,0.0
8786,66.0,0.0,120.0,7.0,0.0
8787,76.0,0.0,30.0,5.0,0.0
8788,47.0,0.0,60.0,6.0,0.0
8789,75.0,30.0,30.0,5.0,0.0
8790,76.0,0.0,30.0,5.0,0.0
8791,51.0,0.0,60.0,6.0,0.0
8792,78.0,30.0,30.0,5.0,0.0
8793,47.0,0.0,60.0,3.0,0.0
8794,59.0,29.0,60.0,1.0,0.0
8795,57.0,0.0,120.0,7.0,0.0
8796,35.0,0.0,60.0,8.0,0.0
8797,78.0,0.0,120.0,0.0,0.0
8798,51.0,0.0,60.0,2.0,0.0
8799,35.0,1.0,60.0,4.0,0.0
8800,75.0,0.0,30.0,5.0,0.0
8801,40.0,0.0,120.0,4.0,0.0
8802,52.0,30.0,120.0,6.0,0.0
8803,52.0,0.0,120.0,3.0,0.0
8804,52.0,0.0,120.0,2.0,0.0
8805,40.0,0.0,120.0,8.0,0.0
8806,71.0,30.0,30.0,5.0,0.0
8807,59.0,0.0,120.0,1.0,0.0
8808,69.0,30.0,30.0,5.0,0.0
8809,76.0,0.0,60.0,0.0,0.0
8810,56.0,0.0,60.0,7.0,0.0
8811,71.0,30.0,30.0,5.0,0.0
8812,76.0,0.0,30.0,5.0,0.0
8813,68.0,30.0,30.0,5.0,0.0
8814,51.0,0.0,60.0,6.0,0.0
8815,51.0,0.0,60.0,3.0,0.0
8816,59.0,0.0,60.0,7.0,0.0
8817,39.0,30.0,60.0,8.0,0.0
8818,39.0,0.0,60.0,4.0,0.0
8819,71.0,0.0,30.0,5.0,0.0
8820,37.0,0.0,120.0,8.0,0.0
8821,70.0,30.0,30.0,5.0,0.0
8822,49.0,0.0,120.0,3.0,0.0
8823,37.0,0.0,120.0,4.0,0.0
8824,49.0,30.0,120.0,6.0,0.0
8825,64.0,0.0,120.0,7.0,0.0
8826,71.0,30.0,30.0,5.0,0.0
8827,73.0,30.0,30.0,5.0,0.0
8828,75.0,0.0,30.0,5.0,0.0
8829,34.0,0.0,60.0,4.0,0.0
8830,76.0,30.0,30.0,5.0,0.0
8831,46.0,0.0,60.0,6.0,0.0
8832,46.0,30.0,60.0,3.0,0.0
8833,34.0,0.0,60.0,8.0,0.0
8834,56.0,0.0,120.0,7.0,0.0
8835,76.0,1.0,120.0,0.0,0.0
8836,73.0,0.0,30.0,5.0,0.0
8837,70.0,30.0,30.0,5.0,0.0
8838,39.0,0.0,120.0,8.0,0.0
8839,51.0,0.0,120.0,6.0,0.0
8840,58.0,29.0,60.0,1.0,0.0
8841,49.0,0.0,60.0,2.0,0.0
8842,39.0,0.0,120.0,4.0,0.0
8843,51.0,0.0,120.0,3.0,0.0
8844,68.0,0.0,30.0,5.0,0.0
8845,51.0,0.0,120.0,2.0,0.0
8846,54.0,0.0,60.0,7.0,0.0
8847,70.0,30.0,30.0,5.0,0.0
8848,58.0,30.0,120.0,1.0,0.0
8849,75.0,0.0,60.0,0.0,0.0
8850,75.0,30.0,30.0,5.0,0.0
8851,66.0,30.0,30.0,5.0,0.0
8852,37.0,0.0,60.0,4.0,0.0
8853,49.0,0.0,60.0,6.0,0.0
8854,49.0,0.0,60.0,3.0,0.0
8855,37.0,0.0,60.0,8.0,0.0
8856,58.0,0.0,60.0,7.0,0.0
8857,70.0,0.0,30.0,5.0,0.0
8858,63.0,0.0,120.0,7.0,0.0
8859,35.0,0.0,120.0,8.0,0.0
8860,47.0,0.0,120.0,6.0,0.0
8861,35.0,30.0,120.0,4.0,0.0
8862,68.0,30.0,30.0,5.0,0.0
8863,47.0,0.0,120.0,3.0,0.0
8864,70.0,30.0,30.0,5.0,0.0
8865,71.0,30.0,30.0,5.0,0.0
8866,73.0,0.0,30.0,5.0,0.0
8867,44.0,0.0,60.0,3.0,0.0
8868,32.0,1.0,60.0,8.0,0.0
8869,47.0,0.0,60.0,2.0,0.0
8870,54.0,30.0,120.0,7.0,0.0
8871,75.0,0.0,120.0,0.0,0.0
8872,56.0,29.0,60.0,1.0,0.0
8873,75.0,30.0,30.0,5.0,0.0
8874,32.0,0.0,60.0,4.0,0.0
8875,44.0,0.0,60.0,6.0,0.0
8876,71.0,0.0,30.0,5.0,0.0
8877,37.0,0.0,120.0,8.0,0.0
8878,49.0,0.0,120.0,3.0,0.0
8879,49.0,0.0,120.0,6.0,0.0
8880,49.0,30.0,120.0,2.0,0.0
8881,56.0,0.0,120.0,1.0,0.0
8882,37.0,0.0,120.0,4.0,0.0
8883,68.0,30.0,30.0,5.0,0.0
8884,66.0,0.0,30.0,5.0,0.0
8885,68.0,30.0,30.0,5.0,0.0
8886,73.0,0.0,60.0,0.0,0.0
8887,52.0,0.0,60.0,7.0,0.0
8888,73.0,0.0,30.0,5.0,0.0
8889,35.0,0.0,60.0,4.0,0.0
8890,35.0,30.0,60.0,8.0,0.0
8891,47.0,0.0,60.0,3.0,0.0
8892,64.0,30.0,30.0,5.0,0.0
8893,56.0,0.0,60.0,7.0,0.0
8894,47.0,0.0,60.0,6.0,0.0
8895,68.0,0.0,30.0,5.0,0.0
8896,34.0,0.0,120.0,8.0,0.0
8897,46.0,0.0,120.0,3.0,0.0
8898,61.0,0.0,120.0,7.0,0.0
8899,34.0,0.0,120.0,4.0,0.0
8900,66.0,30.0,30.0,5.0,0.0
8901,46.0,30.0,120.0,6.0,0.0
8902,68.0,30.0,30.0,5.0,0.0
8903,70.0,30.0,30.0,5.0,0.0
8904,71.0,0.0,30.0,5.0,0.0
8905,52.0,0.0,120.0,7.0,0.0
8906,30.0,1.0,60.0,4.0,0.0
8907,42.0,0.0,60.0,3.0,0.0
8908,58.0,0.0,60.0,1.0,0.0
8909,73.0,30.0,30.0,5.0,0.0
8910,42.0,0.0,60.0,8.0,0.0
8911,42.0,0.0,60.0,6.0,0.0
8912,73.0,0.0,120.0,0.0,0.0
8913,70.0,0.0,30.0,5.0,0.0
8914,47.0,0.0,120.0,6.0,0.0
8915,47.0,0.0,120.0,8.0,0.0
8916,66.0,30.0,30.0,5.0,0.0
8917,35.0,0.0,120.0,4.0,0.0
8918,54.0,29.0,15.0,2.0,0.0
8919,47.0,1.0,120.0,3.0,0.0
8920,64.0,30.0,30.0,5.0,0.0
8921,71.0,0.0,60.0,0.0,0.0
8922,66.0,30.0,30.0,5.0,0.0
8923,51.0,0.0,60.0,7.0,0.0
8924,71.0,0.0,30.0,5.0,0.0
8925,44.0,0.0,60.0,3.0,0.0
8926,44.0,60.0,60.0,8.0,0.0
8927,64.0,30.0,30.0,5.0,0.0
8928,59.0,29.0,15.0,1.0,0.0
8929,32.0,0.0,60.0,4.0,0.0
8930,47.0,0.0,60.0,2.0,0.0
8931,64.0,0.0,60.0,0.0,0.0
8932,59.0,0.0,120.0,7.0,0.0
8933,56.0,0.0,60.0,6.0,0.0
8934,54.0,1.0,120.0,6.0,0.0
8935,63.0,1.0,60.0,0.0,0.0
8936,42.0,0.0,120.0,3.0,0.0
8937,42.0,0.0,120.0,8.0,0.0
8938,54.0,59.0,120.0,2.0,0.0
8939,30.0,0.0,120.0,4.0,0.0
8940,63.0,0.0,60.0,5.0,0.0
8941,64.0,0.0,60.0,5.0,0.0
8942,61.0,0.0,60.0,1.0,0.0
8943,64.0,0.0,60.0,0.0,0.0
8944,61.0,0.0,60.0,7.0,0.0
8945,52.0,0.0,60.0,2.0,0.0
8946,42.0,0.0,60.0,8.0,0.0
8947,58.0,0.0,60.0,1.0,0.0
8948,42.0,0.0,60.0,3.0,0.0
8949,42.0,0.0,60.0,6.0,0.0
8950,30.0,180.0,60.0,4.0,0.0
8951,58.0,0.0,60.0,7.0,0.0
8952,61.0,0.0,60.0,0.0,0.0
8953,61.0,0.0,60.0,5.0,0.0
8954,23.0,0.0,180.0,4.0,0.0
8955,54.0,0.0,180.0,7.0,0.0
8956,51.0,0.0,180.0,7.0,0.0
8957,51.0,0.0,180.0,2.0,0.0
8958,51.0,0.0,180.0,5.0,0.0
8959,54.0,0.0,180.0,5.0,0.0
8960,59.0,0.0,180.0,5.0,0.0
8961,35.0,0.0,180.0,8.0,0.0
8962,59.0,1289.0,180.0,1.0,0.0
8963,35.0,0.0,180.0,3.0,0.0
8964,47.0,0.0,180.0,6.0,0.0
8965,59.0,0.0,180.0,0.0,0.0
8966,59.0,1.0,180.0,7.0,0.0
8967,68.0,0.0,30.0,5.0,0.0
8968,63.0,0.0,30.0,1.0,0.0
8969,59.0,30.0,30.0,2.0,0.0
8970,68.0,0.0,30.0,0.0,0.0
8971,58.0,0.0,30.0,2.0,0.0
8972,67.0,0.0,30.0,0.0,0.0
8973,61.0,0.0,30.0,1.0,0.0
8974,67.0,30.0,30.0,5.0,0.0
8975,68.0,30.0,30.0,5.0,0.0
8976,68.0,0.0,60.0,0.0,0.0
8977,63.0,0.0,60.0,1.0,0.0
8978,59.0,29.0,60.0,2.0,0.0
8979,63.0,1.0,30.0,5.0,0.0
8980,44.0,0.0,30.0,3.0,0.0
8981,44.0,0.0,30.0,8.0,0.0
8982,44.0,0.0,30.0,6.0,0.0
8983,68.0,0.0,30.0,7.0,0.0
8984,64.0,0.0,30.0,5.0,0.0
8985,32.0,30.0,30.0,4.0,0.0
8986,46.0,0.0,30.0,8.0,0.0
8987,46.0,0.0,30.0,6.0,0.0
8988,46.0,0.0,30.0,3.0,0.0
8989,61.0,0.0,30.0,5.0,0.0
8990,34.0,0.0,30.0,4.0,0.0
8991,67.0,30.0,30.0,7.0,0.0
8992,35.0,0.0,60.0,4.0,0.0
8993,63.0,30.0,30.0,5.0,0.0
8994,47.0,0.0,60.0,8.0,0.0
8995,68.0,0.0,30.0,7.0,0.0
8996,47.0,29.0,60.0,3.0,0.0
8997,47.0,0.0,60.0,6.0,0.0
8998,63.0,0.0,30.0,7.0,0.0
8999,59.0,1.0,30.0,5.0,0.0
9000,64.0,0.0,30.0,1.0,0.0
9001,64.0,0.0,30.0,7.0,0.0
9002,61.0,0.0,30.0,2.0,0.0
9003,68.0,30.0,30.0,0.0,0.0
9004,61.0,0.0,30.0,5.0,0.0
9005,61.0,0.0,30.0,7.0,0.0
9006,58.0,0.0,30.0,5.0,0.0
9007,61.0,30.0,30.0,1.0,0.0
9008,58.0,0.0,30.0,2.0,0.0
9009,67.0,0.0,30.0,0.0,0.0
9010,63.0,0.0,30.0,7.0,0.0
9011,63.0,0.0,60.0,1.0,0.0
9012,59.0,30.0,30.0,5.0,0.0
9013,68.0,29.0,60.0,0.0,0.0
9014,59.0,0.0,60.0,2.0,0.0
9015,56.0,0.0,30.0,5.0,0.0
9016,59.0,1.0,30.0,7.0,0.0
9017,61.0,0.0,30.0,7.0,0.0
9018,51.0,0.0,60.0,6.0,0.0
9019,51.0,0.0,60.0,3.0,0.0
9020,39.0,29.0,60.0,4.0,0.0
9021,58.0,30.0,30.0,5.0,0.0
9022,51.0,0.0,60.0,8.0,0.0
9023,58.0,0.0,30.0,7.0,0.0
9024,55.0,1.0,30.0,5.0,0.0
9025,44.0,29.0,60.0,3.0,0.0
9026,44.0,0.0,60.0,8.0,0.0
9027,44.0,0.0,60.0,6.0,0.0
9028,56.0,1.0,60.0,5.0,0.0
9029,59.0,30.0,30.0,7.0,0.0
9030,32.0,0.0,60.0,4.0,0.0
9031,56.0,0.0,30.0,7.0,0.0
9032,61.0,0.0,30.0,1.0,0.0
9033,58.0,0.0,30.0,7.0,0.0
9034,64.0,0.0,30.0,0.0,0.0
9035,58.0,30.0,30.0,2.0,0.0
9036,64.0,0.0,60.0,5.0,0.0
9037,63.0,0.0,30.0,0.0,0.0
9038,58.0,0.0,30.0,1.0,0.0
9039,55.0,16.0,30.0,7.0,0.0
9040,55.0,0.0,30.0,2.0,0.0
9041,59.0,29.0,60.0,1.0,0.0
9042,64.0,0.0,60.0,0.0,0.0
9043,64.0,14.0,15.0,5.0,0.0
9044,56.0,0.0,60.0,2.0,0.0
9045,56.0,1.0,30.0,7.0,0.0
9046,66.0,29.0,15.0,5.0,0.0
9047,64.0,0.0,30.0,5.0,0.0
9048,59.0,1.0,30.0,7.0,0.0
9049,63.0,30.0,90.0,5.0,0.0
9050,43.0,0.0,60.0,6.0,0.0
9051,43.0,0.0,60.0,8.0,0.0
9052,58.0,30.0,30.0,7.0,0.0
9053,43.0,0.0,60.0,3.0,0.0
9054,31.0,29.0,60.0,4.0,0.0
9055,61.0,1.0,30.0,7.0,0.0
9056,44.0,15.0,60.0,6.0,0.0
9057,44.0,0.0,60.0,3.0,0.0
9058,44.0,0.0,60.0,8.0,0.0
9059,59.0,1.0,60.0,7.0,0.0
9060,32.0,0.0,60.0,4.0,0.0
9061,65.0,0.0,30.0,5.0,0.0
9062,67.0,1.0,30.0,5.0,0.0
9063,46.0,0.0,60.0,8.0,0.0
9064,46.0,29.0,60.0,3.0,0.0
9065,34.0,0.0,60.0,4.0,0.0
9066,67.0,0.0,30.0,0.0,0.0
9067,61.0,0.0,30.0,1.0,0.0
9068,46.0,0.0,60.0,6.0,0.0
9069,63.0,14.0,15.0,7.0,0.0
9070,58.0,0.0,30.0,2.0,0.0
9071,61.0,15.0,15.0,7.0,0.0
9072,63.0,0.0,30.0,0.0,0.0
9073,63.0,0.0,30.0,5.0,0.0
9074,58.0,0.0,30.0,1.0,0.0
9075,59.0,14.0,15.0,7.0,0.0
9076,55.0,1.0,30.0,2.0,0.0
9077,61.0,0.0,15.0,7.0,0.0
9078,47.0,0.0,60.0,8.0,0.0
9079,68.0,30.0,30.0,5.0,0.0
9080,68.0,0.0,60.0,0.0,0.0
9081,63.0,0.0,60.0,7.0,0.0
9082,47.0,0.0,60.0,3.0,0.0
9083,51.0,0.0,60.0,2.0,0.0
9084,47.0,0.0,60.0,6.0,0.0
9085,63.0,29.0,60.0,1.0,0.0
9086,67.0,1.0,30.0,5.0,0.0
9087,65.0,1.0,30.0,7.0,0.0
9088,68.0,0.0,90.0,5.0,0.0
9089,47.0,0.0,30.0,3.0,0.0
9090,35.0,0.0,15.0,4.0,0.0
9091,47.0,0.0,30.0,8.0,0.0
9092,47.0,0.0,30.0,6.0,0.0
9093,34.0,0.0,30.0,4.0,0.0
9094,46.0,0.0,30.0,6.0,0.0
9095,46.0,0.0,30.0,3.0,0.0
9096,67.0,1.0,30.0,7.0,0.0
9097,46.0,29.0,30.0,8.0,0.0
9098,47.0,0.0,60.0,3.0,0.0
9099,35.0,0.0,60.0,4.0,0.0
9100,47.0,0.0,60.0,6.0,0.0
9101,47.0,29.0,60.0,8.0,0.0
9102,68.0,30.0,30.0,7.0,0.0
9103,70.0,1.0,30.0,5.0,0.0
9104,67.0,0.0,30.0,7.0,0.0
9105,68.0,30.0,30.0,7.0,0.0
9106,44.0,0.0,60.0,6.0,0.0
9107,68.0,0.0,30.0,1.0,0.0
9108,71.0,0.0,30.0,5.0,0.0
9109,32.0,0.0,60.0,4.0,0.0
9110,71.0,0.0,30.0,0.0,0.0
9111,44.0,29.0,60.0,3.0,0.0
9112,63.0,0.0,30.0,2.0,0.0
9113,44.0,0.0,60.0,8.0,0.0
9114,70.0,0.0,30.0,5.0,0.0
9115,67.0,0.0,30.0,1.0,0.0
9116,67.0,1.0,30.0,7.0,0.0
9117,64.0,0.0,30.0,2.0,0.0
9118,70.0,0.0,30.0,0.0,0.0
9119,52.0,29.0,60.0,6.0,0.0
9120,52.0,0.0,60.0,8.0,0.0
9121,68.0,0.0,60.0,1.0,0.0
9122,61.0,0.0,60.0,2.0,0.0
9123,52.0,0.0,60.0,3.0,0.0
9124,73.0,0.0,60.0,0.0,0.0
9125,40.0,0.0,60.0,4.0,0.0
9126,68.0,1.0,60.0,7.0,0.0
9127,73.0,30.0,30.0,5.0,0.0
9128,71.0,0.0,30.0,5.0,0.0
9129,40.0,0.0,60.0,6.0,0.0
9130,68.0,0.0,60.0,7.0,0.0
9131,40.0,15.0,60.0,3.0,0.0
9132,70.0,30.0,30.0,5.0,0.0
9133,28.0,0.0,60.0,4.0,0.0
9134,40.0,0.0,60.0,8.0,0.0
9135,68.0,1.0,30.0,5.0,0.0
9136,74.0,1.0,30.0,5.0,0.0
9137,68.0,14.0,15.0,7.0,0.0
9138,70.0,29.0,15.0,7.0,0.0
9139,75.0,1.0,30.0,5.0,0.0
9140,68.0,29.0,30.0,7.0,0.0
9141,39.0,29.0,30.0,3.0,0.0
9142,63.0,0.0,60.0,5.0,0.0
9143,27.0,0.0,30.0,4.0,0.0
9144,70.0,0.0,30.0,1.0,0.0
9145,39.0,0.0,30.0,6.0,0.0
9146,67.0,0.0,60.0,7.0,0.0
9147,39.0,0.0,30.0,8.0,0.0
9148,67.0,1.0,30.0,2.0,0.0
9149,75.0,0.0,30.0,0.0,0.0
9150,74.0,0.0,30.0,0.0,0.0
9151,41.0,0.0,30.0,8.0,0.0
9152,41.0,0.0,30.0,6.0,0.0
9153,41.0,0.0,30.0,3.0,0.0
9154,65.0,1.0,30.0,2.0,0.0
9155,68.0,0.0,30.0,1.0,0.0
9156,29.0,29.0,30.0,4.0,0.0
9157,70.0,30.0,30.0,1.0,0.0
9158,43.0,0.0,60.0,6.0,0.0
9159,75.0,0.0,30.0,0.0,0.0
9160,43.0,0.0,60.0,3.0,0.0
9161,31.0,0.0,60.0,4.0,0.0
9162,63.0,0.0,30.0,2.0,0.0
9163,43.0,30.0,60.0,8.0,0.0
9164,70.0,0.0,30.0,0.0,0.0
9165,61.0,0.0,30.0,2.0,0.0
9166,67.0,0.0,30.0,1.0,0.0
9167,46.0,0.0,60.0,3.0,0.0
9168,58.0,30.0,30.0,2.0,0.0
9169,67.0,0.0,30.0,0.0,0.0
9170,46.0,0.0,60.0,8.0,0.0
9171,63.0,0.0,30.0,1.0,0.0
9172,46.0,60.0,60.0,6.0,0.0
9173,34.0,0.0,60.0,4.0,0.0
9174,70.0,0.0,30.0,0.0,0.0
9175,67.0,0.0,30.0,1.0,0.0
9176,61.0,0.0,30.0,2.0,0.0
9177,55.0,0.0,60.0,2.0,0.0
9178,51.0,0.0,60.0,8.0,0.0
9179,51.0,30.0,60.0,6.0,0.0
9180,51.0,0.0,60.0,3.0,0.0
9181,58.0,0.0,60.0,1.0,0.0
9182,39.0,0.0,60.0,4.0,0.0
9183,63.0,0.0,60.0,0.0,0.0
9184,49.0,60.0,60.0,3.0,0.0
9185,63.0,30.0,30.0,5.0,0.0
9186,49.0,0.0,60.0,8.0,0.0
9187,49.0,0.0,60.0,6.0,0.0
9188,37.0,0.0,60.0,4.0,0.0
9189,64.0,0.0,30.0,5.0,0.0
9190,66.0,0.0,60.0,5.0,0.0
9191,36.0,0.0,60.0,4.0,0.0
9192,48.0,30.0,60.0,8.0,0.0
9193,48.0,0.0,60.0,3.0,0.0
9194,48.0,0.0,60.0,6.0,0.0
9195,36.0,0.0,60.0,4.0,0.0
9196,69.0,0.0,120.0,5.0,0.0
9197,48.0,0.0,60.0,8.0,0.0
9198,48.0,0.0,60.0,3.0,0.0
9199,48.0,60.0,60.0,6.0,0.0
9200,63.0,30.0,30.0,7.0,0.0
9201,64.0,0.0,30.0,7.0,0.0
9202,66.0,0.0,60.0,7.0,0.0
9203,48.0,60.0,60.0,8.0,0.0
9204,36.0,0.0,60.0,4.0,0.0
9205,48.0,0.0,60.0,6.0,0.0
9206,48.0,0.0,60.0,3.0,0.0
9207,68.0,0.0,60.0,5.0,0.0
9208,49.0,0.0,60.0,3.0,0.0
9209,64.0,60.0,60.0,7.0,0.0
9210,49.0,0.0,60.0,6.0,0.0
9211,37.0,0.0,60.0,4.0,0.0
9212,49.0,0.0,60.0,8.0,0.0
9213,60.0,60.0,60.0,5.0,0.0
9214,54.0,0.0,60.0,8.0,0.0
9215,30.0,0.0,60.0,4.0,0.0
9216,54.0,0.0,60.0,6.0,0.0
9217,54.0,0.0,60.0,3.0,0.0
9218,69.0,0.0,60.0,7.0,0.0
9219,61.0,0.0,60.0,5.0,0.0
9220,68.0,0.0,60.0,7.0,0.0
9221,52.0,0.0,60.0,3.0,0.0
9222,28.0,0.0,60.0,4.0,0.0
9223,52.0,30.0,60.0,8.0,0.0
9224,52.0,0.0,60.0,6.0,0.0
9225,51.0,0.0,60.0,8.0,0.0
9226,51.0,0.0,60.0,6.0,0.0
9227,51.0,0.0,60.0,3.0,0.0
9228,66.0,30.0,30.0,5.0,0.0
9229,60.0,0.0,60.0,7.0,0.0
9230,27.0,0.0,60.0,4.0,0.0
9231,63.0,60.0,30.0,5.0,0.0
9232,25.0,0.0,60.0,4.0,0.0
9233,64.0,0.0,60.0,5.0,0.0
9234,49.0,0.0,60.0,3.0,0.0
9235,61.0,0.0,60.0,7.0,0.0
9236,49.0,0.0,60.0,6.0,0.0
9237,49.0,30.0,60.0,8.0,0.0
9238,48.0,0.0,60.0,8.0,0.0
9239,48.0,0.0,60.0,3.0,0.0
9240,24.0,0.0,60.0,4.0,0.0
9241,66.0,30.0,30.0,7.0,0.0
9242,48.0,0.0,60.0,6.0,0.0
9243,63.0,30.0,30.0,7.0,0.0
9244,56.0,30.0,30.0,2.0,0.0
9245,49.0,0.0,60.0,8.0,0.0
9246,25.0,0.0,60.0,4.0,0.0
9247,49.0,0.0,60.0,6.0,0.0
9248,49.0,60.0,60.0,3.0,0.0
9249,61.0,0.0,30.0,1.0,0.0
9250,64.0,0.0,30.0,0.0,0.0
9251,64.0,0.0,60.0,7.0,0.0
9252,60.0,0.0,30.0,1.0,0.0
9253,63.0,0.0,30.0,0.0,0.0
9254,54.0,0.0,30.0,2.0,0.0
9255,37.0,0.0,60.0,6.0,0.0
9256,64.0,30.0,60.0,0.0,0.0
9257,61.0,0.0,60.0,1.0,0.0
9258,56.0,0.0,60.0,2.0,0.0
9259,37.0,0.0,60.0,8.0,0.0
9260,37.0,0.0,60.0,3.0,0.0
9261,37.0,0.0,60.0,4.0,0.0
9262,35.0,60.0,60.0,4.0,0.0
9263,49.0,0.0,60.0,3.0,0.0
9264,49.0,0.0,60.0,6.0,0.0
9265,49.0,0.0,60.0,8.0,0.0
9266,65.0,30.0,30.0,5.0,0.0
9267,66.0,0.0,30.0,5.0,0.0
9268,50.0,0.0,60.0,6.0,0.0
9269,34.0,0.0,60.0,4.0,0.0
9270,68.0,30.0,60.0,5.0,0.0
9271,50.0,0.0,60.0,3.0,0.0
9272,50.0,0.0,60.0,8.0,0.0
9273,50.0,0.0,60.0,3.0,0.0
9274,50.0,60.0,60.0,6.0,0.0
9275,65.0,30.0,30.0,7.0,0.0
9276,71.0,0.0,120.0,5.0,0.0
9277,50.0,0.0,60.0,8.0,0.0
9278,26.0,0.0,60.0,4.0,0.0
9279,66.0,0.0,30.0,7.0,0.0
9280,26.0,60.0,60.0,4.0,0.0
9281,50.0,0.0,60.0,6.0,0.0
9282,50.0,0.0,60.0,8.0,0.0
9283,68.0,0.0,60.0,7.0,0.0
9284,50.0,0.0,60.0,3.0,0.0
9285,51.0,0.0,60.0,3.0,0.0
9286,27.0,0.0,60.0,4.0,0.0
9287,66.0,0.0,60.0,7.0,0.0
9288,70.0,0.0,60.0,5.0,0.0
9289,51.0,0.0,60.0,6.0,0.0
9290,51.0,60.0,60.0,8.0,0.0
9291,62.0,0.0,60.0,5.0,0.0
9292,56.0,60.0,60.0,8.0,0.0
9293,32.0,0.0,60.0,4.0,0.0
9294,56.0,0.0,60.0,3.0,0.0
9295,56.0,0.0,60.0,6.0,0.0
9296,71.0,0.0,60.0,7.0,0.0
9297,54.0,0.0,60.0,3.0,0.0
9298,70.0,0.0,60.0,7.0,0.0
9299,54.0,0.0,60.0,6.0,0.0
9300,54.0,30.0,60.0,8.0,0.0
9301,63.0,0.0,60.0,5.0,0.0
9302,30.0,0.0,60.0,4.0,0.0
9303,62.0,60.0,60.0,7.0,0.0
9304,29.0,0.0,60.0,4.0,0.0
9305,53.0,0.0,60.0,8.0,0.0
9306,68.0,30.0,30.0,5.0,0.0
9307,53.0,0.0,60.0,6.0,0.0
9308,53.0,0.0,60.0,3.0,0.0
9309,65.0,0.0,30.0,5.0,0.0
9310,51.0,0.0,60.0,8.0,0.0
9311,51.0,0.0,60.0,3.0,0.0
9312,67.0,0.0,60.0,5.0,0.0
9313,63.0,0.0,60.0,7.0,0.0
9314,27.0,30.0,60.0,4.0,0.0
9315,51.0,0.0,60.0,6.0,0.0
9316,50.0,0.0,60.0,8.0,0.0
9317,26.0,0.0,60.0,4.0,0.0
9318,68.0,30.0,30.0,7.0,0.0
9319,50.0,31.0,60.0,6.0,0.0
9320,50.0,0.0,60.0,3.0,0.0
9321,65.0,0.0,30.0,7.0,0.0
9322,63.0,29.0,30.0,1.0,0.0
9323,51.0,0.0,60.0,6.0,0.0
9324,67.0,0.0,30.0,0.0,0.0
9325,51.0,1.0,60.0,3.0,0.0
9326,67.0,0.0,60.0,7.0,0.0
9327,27.0,0.0,60.0,4.0,0.0
9328,58.0,0.0,30.0,2.0,0.0
9329,51.0,0.0,60.0,8.0,0.0
9330,65.0,0.0,30.0,0.0,0.0
9331,62.0,0.0,30.0,1.0,0.0
9332,56.0,59.0,30.0,2.0,0.0
9333,63.0,0.0,60.0,1.0,0.0
9334,58.0,0.0,60.0,2.0,0.0
9335,39.0,0.0,60.0,3.0,0.0
9336,39.0,0.0,60.0,8.0,0.0
9337,39.0,30.0,60.0,4.0,0.0
9338,39.0,0.0,60.0,6.0,0.0
9339,67.0,0.0,60.0,0.0,0.0
9340,51.0,1.0,60.0,8.0,0.0
9341,70.0,0.0,60.0,1.0,0.0
9342,75.0,1.0,30.0,5.0,0.0
9343,55.0,0.0,60.0,2.0,0.0
9344,37.0,0.0,60.0,4.0,0.0
9345,51.0,0.0,60.0,6.0,0.0
9346,51.0,0.0,60.0,3.0,0.0
9347,75.0,29.0,30.0,0.0,0.0
9348,74.0,0.0,30.0,5.0,0.0
9349,74.0,29.0,30.0,0.0,0.0
9350,75.0,0.0,60.0,0.0,0.0
9351,35.0,30.0,60.0,4.0,0.0
9352,68.0,0.0,60.0,1.0,0.0
9353,75.0,30.0,30.0,5.0,0.0
9354,47.0,0.0,60.0,6.0,0.0
9355,47.0,0.0,60.0,8.0,0.0
9356,47.0,0.0,60.0,3.0,0.0
9357,51.0,0.0,60.0,2.0,0.0
9358,70.0,0.0,30.0,5.0,0.0
9359,44.0,0.0,60.0,8.0,0.0
9360,44.0,0.0,60.0,6.0,0.0
9361,71.0,0.0,30.0,5.0,0.0
9362,44.0,30.0,60.0,3.0,0.0
9363,75.0,30.0,30.0,7.0,0.0
9364,32.0,0.0,60.0,4.0,0.0
9365,68.0,0.0,30.0,5.0,0.0
9366,74.0,0.0,30.0,7.0,0.0
9367,70.0,0.0,30.0,5.0,0.0
9368,75.0,30.0,30.0,7.0,0.0
9369,67.0,0.0,30.0,5.0,0.0
9370,70.0,30.0,30.0,7.0,0.0
9371,68.0,0.0,30.0,2.0,0.0
9372,71.0,30.0,30.0,7.0,0.0
9373,71.0,0.0,30.0,1.0,0.0
9374,75.0,0.0,30.0,0.0,0.0
9375,51.0,0.0,60.0,3.0,0.0
9376,68.0,0.0,30.0,5.0,0.0
9377,51.0,0.0,60.0,6.0,0.0
9378,32.0,30.0,60.0,4.0,0.0
9379,51.0,0.0,60.0,8.0,0.0
9380,65.0,0.0,30.0,2.0,0.0
9381,74.0,0.0,30.0,0.0,0.0
9382,68.0,0.0,30.0,1.0,0.0
9383,68.0,0.0,30.0,7.0,0.0
9384,65.0,0.0,30.0,5.0,0.0
9385,37.0,0.0,60.0,4.0,0.0
9386,67.0,0.0,30.0,5.0,0.0
9387,70.0,0.0,60.0,1.0,0.0
9388,49.0,0.0,60.0,8.0,0.0
9389,49.0,0.0,60.0,3.0,0.0
9390,70.0,30.0,30.0,7.0,0.0
9391,49.0,30.0,60.0,6.0,0.0
9392,67.0,0.0,60.0,2.0,0.0
9393,75.0,0.0,60.0,0.0,0.0
9394,63.0,0.0,30.0,5.0,0.0
9395,67.0,0.0,30.0,7.0,0.0
9396,63.0,29.0,60.0,7.0,0.0
9397,47.0,0.0,60.0,6.0,0.0
9398,47.0,0.0,60.0,8.0,0.0
9399,35.0,0.0,60.0,4.0,0.0
9400,67.0,30.0,30.0,5.0,0.0
9401,47.0,0.0,60.0,3.0,0.0
9402,70.0,0.0,30.0,5.0,0.0
9403,73.0,30.0,30.0,5.0,0.0
9404,46.0,0.0,60.0,3.0,0.0
9405,34.0,0.0,60.0,4.0,0.0
9406,46.0,29.0,60.0,6.0,0.0
9407,46.0,0.0,60.0,8.0,0.0
9408,70.0,1.0,30.0,5.0,0.0
9409,71.0,1.0,30.0,5.0,0.0
9410,44.0,29.0,60.0,8.0,0.0
9411,44.0,0.0,60.0,6.0,0.0
9412,32.0,0.0,60.0,4.0,0.0
9413,44.0,0.0,60.0,3.0,0.0
9414,75.0,0.0,30.0,7.0,0.0
9415,75.0,0.0,30.0,0.0,0.0
9416,68.0,0.0,60.0,2.0,0.0
9417,71.0,29.0,30.0,1.0,0.0
9418,68.0,1.0,30.0,5.0,0.0
9419,71.0,0.0,30.0,7.0,0.0
9420,68.0,0.0,30.0,1.0,0.0
9421,74.0,0.0,30.0,0.0,0.0
9422,70.0,1.0,30.0,5.0,0.0
9423,75.0,29.0,60.0,0.0,0.0
9424,43.0,0.0,60.0,3.0,0.0
9425,43.0,0.0,60.0,6.0,0.0
9426,31.0,0.0,60.0,4.0,0.0
9427,43.0,0.0,60.0,8.0,0.0
9428,70.0,0.0,60.0,1.0,0.0
9429,73.0,29.0,30.0,7.0,0.0
9430,63.0,0.0,60.0,2.0,0.0
9431,67.0,1.0,30.0,5.0,0.0
9432,70.0,0.0,30.0,7.0,0.0
9433,68.0,1.0,30.0,5.0,0.0
9434,39.0,0.0,60.0,6.0,0.0
9435,27.0,0.0,60.0,4.0,0.0
9436,71.0,29.0,30.0,7.0,0.0
9437,39.0,0.0,60.0,8.0,0.0
9438,39.0,0.0,60.0,3.0,0.0
9439,65.0,1.0,30.0,5.0,0.0
9440,68.0,29.0,30.0,7.0,0.0
9441,67.0,1.0,30.0,5.0,0.0
9442,51.0,0.0,60.0,3.0,0.0
9443,39.0,0.0,60.0,4.0,0.0
9444,51.0,0.0,60.0,8.0,0.0
9445,51.0,29.0,60.0,6.0,0.0
9446,70.0,29.0,30.0,7.0,0.0
9447,63.0,1.0,30.0,5.0,0.0
9448,67.0,0.0,30.0,7.0,0.0
9449,67.0,2.0,30.0,5.0,0.0
9450,67.0,0.0,30.0,1.0,0.0
9451,39.0,0.0,60.0,6.0,0.0
9452,39.0,19.0,60.0,8.0,0.0
9453,73.0,28.0,30.0,0.0,0.0
9454,63.0,0.0,30.0,2.0,0.0
9455,63.0,0.0,60.0,7.0,0.0
9456,27.0,0.0,60.0,4.0,0.0
9457,39.0,0.0,60.0,3.0,0.0
9458,70.0,1.0,30.0,5.0,0.0
9459,71.0,12.0,20.0,5.0,0.0
9460,44.0,0.0,60.0,3.0,0.0
9461,68.0,0.0,30.0,1.0,0.0
9462,44.0,20.0,60.0,8.0,0.0
9463,63.0,8.0,30.0,2.0,0.0
9464,71.0,0.0,30.0,0.0,0.0
9465,44.0,0.0,60.0,6.0,0.0
9466,32.0,0.0,60.0,4.0,0.0
9467,69.0,20.0,20.0,5.0,0.0
9468,68.0,1.0,20.0,5.0,0.0
9469,69.0,20.0,90.0,5.0,0.0
9470,61.0,9.0,30.0,2.0,0.0
9471,64.0,11.0,20.0,7.0,0.0
9472,49.0,0.0,60.0,8.0,0.0
9473,49.0,19.0,60.0,3.0,0.0
9474,49.0,0.0,60.0,6.0,0.0
9475,64.0,0.0,30.0,1.0,0.0
9476,37.0,0.0,60.0,4.0,0.0
9477,69.0,0.0,30.0,0.0,0.0
9478,63.0,20.0,20.0,7.0,0.0
9479,61.0,0.0,20.0,7.0,0.0
9480,47.0,0.0,60.0,6.0,0.0
9481,63.0,10.0,90.0,7.0,0.0
9482,35.0,0.0,60.0,4.0,0.0
9483,47.0,21.0,60.0,3.0,0.0
9484,47.0,0.0,60.0,8.0,0.0
9485,68.0,20.0,20.0,5.0,0.0
9486,67.0,1.0,20.0,5.0,0.0
9487,68.0,1.0,90.0,5.0,0.0
9488,35.0,0.0,60.0,8.0,0.0
9489,68.0,9.0,30.0,0.0,0.0
9490,23.0,0.0,60.0,4.0,0.0
9491,35.0,0.0,60.0,3.0,0.0
9492,56.0,0.0,30.0,2.0,0.0
9493,63.0,0.0,30.0,1.0,0.0
9494,59.0,29.0,60.0,6.0,0.0
9495,61.0,20.0,20.0,7.0,0.0
9496,59.0,0.0,20.0,7.0,0.0
9497,61.0,29.0,30.0,7.0,0.0
9498,34.0,0.0,60.0,8.0,0.0
9499,22.0,0.0,60.0,4.0,0.0
9500,34.0,0.0,60.0,3.0,0.0
9501,58.0,29.0,60.0,6.0,0.0
9502,76.0,1.0,30.0,5.0,0.0
9503,59.0,0.0,30.0,7.0,0.0
9504,67.0,1.0,30.0,5.0,0.0
9505,58.0,0.0,30.0,2.0,0.0
9506,34.0,0.0,60.0,4.0,0.0
9507,76.0,0.0,30.0,0.0,0.0
9508,46.0,0.0,60.0,3.0,0.0
9509,61.0,28.0,30.0,1.0,0.0
9510,46.0,0.0,60.0,6.0,0.0
9511,61.0,1.0,30.0,7.0,0.0
9512,46.0,0.0,60.0,8.0,0.0
9513,68.0,1.0,30.0,5.0,0.0
9514,59.0,29.0,30.0,7.0,0.0
9515,67.0,1.0,30.0,5.0,0.0
9516,58.0,1.0,60.0,2.0,0.0
9517,61.0,0.0,60.0,1.0,0.0
9518,39.0,28.0,30.0,8.0,0.0
9519,67.0,0.0,60.0,0.0,0.0
9520,61.0,0.0,60.0,7.0,0.0
9521,51.0,1.0,30.0,6.0,0.0
9522,27.0,0.0,60.0,4.0,0.0
9523,51.0,0.0,60.0,3.0,0.0
9524,63.0,1.0,30.0,5.0,0.0
9525,39.0,0.0,30.0,6.0,0.0
9526,43.0,28.0,30.0,8.0,0.0
9527,58.0,1.0,30.0,5.0,0.0
9528,46.0,28.0,30.0,8.0,0.0
9529,43.0,1.0,30.0,6.0,0.0
9530,55.0,1.0,30.0,5.0,0.0
9531,51.0,59.0,30.0,8.0,0.0
9532,46.0,1.0,30.0,6.0,0.0
9533,51.0,19.0,60.0,5.0,0.0
9534,39.0,1.0,60.0,8.0,0.0
9535,67.0,20.0,20.0,7.0,0.0
9536,58.0,0.0,20.0,5.0,0.0
9537,59.0,0.0,20.0,5.0,0.0
9538,68.0,20.0,20.0,7.0,0.0
9539,61.0,0.0,20.0,5.0,0.0
9540,70.0,20.0,20.0,7.0,0.0
9541,61.0,0.0,20.0,5.0,0.0
9542,70.0,20.0,20.0,7.0,0.0
9543,71.0,0.0,20.0,7.0,0.0
9544,63.0,20.0,20.0,5.0,0.0
9545,65.0,20.0,20.0,5.0,0.0
9546,73.0,0.0,20.0,7.0,0.0
9547,65.0,0.0,20.0,5.0,0.0
9548,73.0,20.0,20.0,7.0,0.0
9549,71.0,0.0,20.0,7.0,0.0
9550,67.0,20.0,20.0,5.0,0.0
9551,70.0,30.0,20.0,7.0,0.0
9552,68.0,0.0,20.0,5.0,0.0
9553,63.0,0.0,60.0,2.0,0.0
9554,68.0,0.0,60.0,0.0,0.0
9555,71.0,1.0,60.0,7.0,0.0
9556,59.0,0.0,60.0,1.0,0.0
9557,68.0,1.0,30.0,5.0,0.0
9558,39.0,0.0,60.0,3.0,0.0
9559,39.0,29.0,30.0,8.0,0.0
9560,27.0,0.0,60.0,4.0,0.0
9561,63.0,0.0,30.0,5.0,0.0
9562,39.0,0.0,30.0,6.0,0.0
9563,44.0,29.0,30.0,8.0,0.0
9564,47.0,29.0,30.0,8.0,0.0
9565,44.0,0.0,30.0,6.0,0.0
9566,59.0,1.0,30.0,5.0,0.0
9567,51.0,59.0,30.0,8.0,0.0
9568,56.0,1.0,30.0,5.0,0.0
9569,47.0,0.0,30.0,6.0,0.0
9570,39.0,0.0,60.0,8.0,0.0
9571,51.0,20.0,60.0,5.0,0.0
9572,59.0,20.0,20.0,5.0,0.0
9573,68.0,0.0,20.0,7.0,0.0
9574,61.0,0.0,20.0,5.0,0.0
9575,70.0,20.0,20.0,7.0,0.0
9576,71.0,20.0,20.0,7.0,0.0
9577,63.0,0.0,20.0,5.0,0.0
9578,63.0,20.0,20.0,5.0,0.0
9579,71.0,0.0,20.0,7.0,0.0
9580,73.0,20.0,20.0,7.0,0.0
9581,65.0,0.0,20.0,5.0,0.0
9582,75.0,0.0,20.0,7.0,0.0
9583,67.0,20.0,20.0,5.0,0.0
9584,75.0,0.0,20.0,7.0,0.0
9585,67.0,20.0,20.0,5.0,0.0
9586,73.0,0.0,20.0,7.0,0.0
9587,68.0,20.0,20.0,5.0,0.0
9588,71.0,0.0,20.0,7.0,0.0
9589,70.0,30.0,20.0,5.0,0.0
9590,51.0,0.0,60.0,3.0,0.0
9591,67.0,0.0,60.0,1.0,0.0
9592,39.0,29.0,30.0,8.0,0.0
9593,63.0,0.0,60.0,2.0,0.0
9594,70.0,0.0,60.0,0.0,0.0
9595,70.0,1.0,30.0,5.0,0.0
9596,73.0,0.0,60.0,7.0,0.0
9597,27.0,0.0,60.0,4.0,0.0
9598,67.0,0.0,30.0,5.0,0.0
9599,43.0,29.0,30.0,8.0,0.0
9600,39.0,1.0,30.0,6.0,0.0
9601,43.0,0.0,30.0,6.0,0.0
9602,46.0,29.0,30.0,8.0,0.0
9603,61.0,1.0,30.0,5.0,0.0
9604,46.0,1.0,30.0,6.0,0.0
9605,58.0,0.0,30.0,5.0,0.0
9606,51.0,59.0,30.0,8.0,0.0
9607,39.0,20.0,60.0,8.0,0.0
9608,51.0,0.0,60.0,5.0,0.0
9609,63.0,20.0,20.0,5.0,0.0
9610,55.0,0.0,20.0,7.0,0.0
9611,65.0,0.0,20.0,5.0,0.0
9612,56.0,20.0,20.0,7.0,0.0
9613,58.0,0.0,20.0,7.0,0.0
9614,67.0,20.0,20.0,5.0,0.0
9615,58.0,0.0,20.0,7.0,0.0
9616,67.0,20.0,20.0,5.0,0.0
9617,59.0,0.0,20.0,7.0,0.0
9618,68.0,20.0,20.0,5.0,0.0
9619,61.0,0.0,20.0,7.0,0.0
9620,70.0,20.0,20.0,5.0,0.0
9621,70.0,20.0,20.0,5.0,0.0
9622,61.0,0.0,20.0,7.0,0.0
9623,59.0,0.0,20.0,7.0,0.0
9624,71.0,20.0,20.0,5.0,0.0
9625,58.0,30.0,20.0,7.0,0.0
9626,73.0,0.0,20.0,5.0,0.0
9627,44.0,29.0,120.0,3.0,0.0
9628,71.0,30.0,30.0,0.0,0.0
9629,71.0,0.0,30.0,5.0,0.0
9630,44.0,0.0,120.0,6.0,0.0
9631,63.0,0.0,120.0,2.0,0.0
9632,32.0,0.0,120.0,4.0,0.0
9633,68.0,0.0,120.0,1.0,0.0
9634,56.0,0.0,30.0,7.0,0.0
9635,44.0,0.0,120.0,8.0,0.0
9636,59.0,30.0,30.0,7.0,0.0
9637,68.0,0.0,30.0,5.0,0.0
9638,63.0,0.0,30.0,0.0,0.0
9639,61.0,0.0,30.0,0.0,0.0
9640,58.0,30.0,30.0,7.0,0.0
9641,67.0,0.0,30.0,5.0,0.0
9642,68.0,0.0,30.0,5.0,0.0
9643,59.0,1.0,30.0,7.0,0.0
9644,63.0,0.0,30.0,0.0,0.0
9645,64.0,0.0,30.0,0.0,0.0
9646,61.0,30.0,30.0,7.0,0.0
9647,69.0,0.0,30.0,5.0,0.0
9648,68.0,30.0,30.0,5.0,0.0
9649,63.0,0.0,30.0,0.0,0.0
9650,59.0,0.0,30.0,7.0,0.0
9651,61.0,0.0,30.0,0.0,0.0
9652,44.0,19.0,60.0,6.0,0.0
9653,56.0,0.0,60.0,1.0,0.0
9654,32.0,0.0,60.0,4.0,0.0
9655,58.0,0.0,30.0,7.0,0.0
9656,44.0,0.0,60.0,3.0,0.0
9657,67.0,30.0,30.0,5.0,0.0
9658,44.0,0.0,60.0,8.0,0.0
9659,59.0,1.0,30.0,7.0,0.0
9660,63.0,0.0,30.0,0.0,0.0
9661,68.0,0.0,30.0,5.0,0.0
9662,64.0,0.0,30.0,7.0,0.0
9663,64.0,10.0,30.0,0.0,0.0
9664,37.0,0.0,60.0,4.0,0.0
9665,49.0,0.0,60.0,3.0,0.0
9666,56.0,0.0,15.0,2.0,0.0
9667,49.0,19.0,60.0,8.0,0.0
9668,64.0,10.0,20.0,5.0,0.0
9669,49.0,0.0,60.0,6.0,0.0
9670,67.0,20.0,20.0,5.0,0.0
9671,68.0,1.0,20.0,5.0,0.0
9672,34.0,0.0,60.0,4.0,0.0
9673,56.0,0.0,15.0,1.0,0.0
9674,61.0,0.0,30.0,7.0,0.0
9675,46.0,29.0,60.0,3.0,0.0
9676,46.0,0.0,60.0,6.0,0.0
9677,46.0,0.0,60.0,8.0,0.0
9678,61.0,10.0,30.0,0.0,0.0
9679,61.0,10.0,20.0,5.0,0.0
9680,67.0,20.0,20.0,5.0,0.0
9681,68.0,1.0,20.0,5.0,0.0
9682,47.0,0.0,120.0,6.0,0.0
9683,47.0,0.0,120.0,8.0,0.0
9684,68.0,0.0,30.0,0.0,0.0
9685,35.0,0.0,120.0,4.0,0.0
9686,56.0,0.0,15.0,2.0,0.0
9687,63.0,0.0,30.0,7.0,0.0
9688,63.0,30.0,30.0,5.0,0.0
9689,47.0,29.0,120.0,3.0,0.0
9690,56.0,0.0,120.0,1.0,0.0
9691,63.0,0.0,30.0,0.0,0.0
9692,68.0,30.0,30.0,5.0,0.0
9693,59.0,0.0,30.0,7.0,0.0
9694,67.0,0.0,30.0,5.0,0.0
9695,61.0,30.0,30.0,0.0,0.0
9696,58.0,0.0,30.0,7.0,0.0
9697,68.0,0.0,30.0,5.0,0.0
9698,63.0,0.0,30.0,0.0,0.0
9699,59.0,1.0,30.0,7.0,0.0
9700,71.0,0.0,30.0,5.0,0.0
9701,56.0,0.0,30.0,7.0,0.0
9702,59.0,30.0,30.0,0.0,0.0
9703,59.0,0.0,30.0,7.0,0.0
9704,68.0,30.0,30.0,5.0,0.0
9705,63.0,0.0,30.0,0.0,0.0
9706,44.0,0.0,60.0,8.0,0.0
9707,44.0,0.0,60.0,6.0,0.0
9708,32.0,0.0,60.0,4.0,0.0
9709,61.0,0.0,30.0,0.0,0.0
9710,58.0,30.0,30.0,7.0,0.0
9711,67.0,0.0,30.0,5.0,0.0
9712,44.0,0.0,60.0,3.0,0.0
9713,68.0,0.0,30.0,5.0,0.0
9714,59.0,1.0,30.0,7.0,0.0
9715,63.0,0.0,30.0,0.0,0.0
9716,56.0,0.0,15.0,2.0,0.0
9717,56.0,19.0,15.0,1.0,0.0
9718,63.0,10.0,20.0,5.0,0.0
9719,47.0,0.0,60.0,8.0,0.0
9720,47.0,0.0,60.0,3.0,0.0
9721,35.0,19.0,60.0,4.0,0.0
9722,63.0,0.0,30.0,0.0,0.0
9723,47.0,0.0,60.0,6.0,0.0
9724,63.0,10.0,30.0,7.0,0.0
9725,66.0,20.0,20.0,5.0,0.0
9726,68.0,1.0,20.0,5.0,0.0
9727,59.0,10.0,30.0,7.0,0.0
9728,56.0,0.0,15.0,1.0,0.0
9729,59.0,0.0,30.0,0.0,0.0
9730,44.0,0.0,60.0,8.0,0.0
9731,59.0,10.0,20.0,5.0,0.0
9732,44.0,0.0,60.0,3.0,0.0
9733,44.0,0.0,60.0,6.0,0.0
9734,32.0,29.0,60.0,4.0,0.0
9735,67.0,20.0,20.0,5.0,0.0
9736,68.0,1.0,20.0,5.0,0.0
9737,61.0,0.0,30.0,0.0,0.0
9738,61.0,0.0,30.0,7.0,0.0
9739,46.0,0.0,120.0,3.0,0.0
9740,46.0,0.0,120.0,8.0,0.0
9741,56.0,0.0,120.0,1.0,0.0
9742,46.0,0.0,120.0,6.0,0.0
9743,56.0,0.0,15.0,2.0,0.0
9744,34.0,0.0,120.0,4.0,0.0
9745,61.0,30.0,30.0,5.0,0.0
9746,59.0,0.0,30.0,0.0,0.0
9747,68.0,30.0,30.0,5.0,0.0
9748,64.0,0.0,30.0,7.0,0.0
9749,63.0,0.0,30.0,7.0,0.0
9750,67.0,30.0,30.0,5.0,0.0
9751,58.0,0.0,30.0,0.0,0.0
9752,64.0,1.0,30.0,7.0,0.0
9753,59.0,0.0,30.0,0.0,0.0
9754,68.0,0.0,30.0,5.0,0.0
9755,61.0,0.0,30.0,7.0,0.0
9756,76.0,30.0,30.0,5.0,0.0
9757,61.0,0.0,30.0,0.0,0.0
9758,64.0,30.0,30.0,7.0,0.0
9759,59.0,0.0,30.0,0.0,0.0
9760,68.0,0.0,30.0,5.0,0.0
9761,49.0,0.0,60.0,6.0,0.0
9762,67.0,0.0,30.0,5.0,0.0
9763,49.0,0.0,60.0,3.0,0.0
9764,58.0,0.0,60.0,1.0,0.0
9765,37.0,0.0,60.0,4.0,0.0
9766,63.0,0.0,30.0,7.0,0.0
9767,49.0,19.0,60.0,8.0,0.0
9768,58.0,30.0,30.0,0.0,0.0
9769,52.0,0.0,60.0,2.0,0.0
9770,64.0,1.0,30.0,7.0,0.0
9771,68.0,0.0,30.0,5.0,0.0
9772,59.0,0.0,30.0,0.0,0.0
9773,46.0,0.0,60.0,2.0,0.0
9774,61.0,10.0,20.0,5.0,0.0
9775,39.0,0.0,60.0,6.0,0.0
9776,39.0,0.0,60.0,8.0,0.0
9777,55.0,0.0,60.0,1.0,0.0
9778,61.0,10.0,30.0,0.0,0.0
9779,61.0,0.0,30.0,7.0,0.0
9780,39.0,0.0,60.0,3.0,0.0
9781,27.0,19.0,60.0,4.0,0.0
9782,67.0,20.0,20.0,5.0,0.0
9783,68.0,1.0,20.0,5.0,0.0
9784,58.0,10.0,20.0,5.0,0.0
9785,43.0,0.0,60.0,3.0,0.0
9786,58.0,10.0,30.0,7.0,0.0
9787,51.0,0.0,60.0,2.0,0.0
9788,43.0,0.0,60.0,6.0,0.0
9789,58.0,0.0,30.0,0.0,0.0
9790,43.0,30.0,60.0,8.0,0.0
9791,58.0,0.0,60.0,1.0,0.0
9792,31.0,0.0,60.0,4.0,0.0
9793,67.0,20.0,20.0,5.0,0.0
9794,68.0,1.0,20.0,5.0,0.0
9795,59.0,0.0,60.0,0.0,0.0
9796,44.0,0.0,30.0,6.0,0.0
9797,32.0,0.0,30.0,4.0,0.0
9798,56.0,0.0,60.0,1.0,0.0
9799,59.0,0.0,60.0,5.0,0.0
9800,44.0,29.0,30.0,3.0,0.0
9801,51.0,30.0,60.0,2.0,0.0
9802,59.0,1.0,60.0,7.0,0.0
9803,44.0,0.0,30.0,8.0,0.0
9804,56.0,0.0,30.0,8.0,0.0
9805,56.0,0.0,30.0,6.0,0.0
9806,44.0,0.0,30.0,4.0,0.0
9807,56.0,0.0,30.0,3.0,0.0
9808,63.0,0.0,60.0,0.0,0.0
9809,54.0,0.0,30.0,6.0,0.0
9810,54.0,0.0,30.0,8.0,0.0
9811,63.0,0.0,60.0,5.0,0.0
9812,63.0,1.0,60.0,7.0,0.0
9813,56.0,0.0,60.0,2.0,0.0
9814,54.0,0.0,30.0,3.0,0.0
9815,42.0,29.0,30.0,4.0,0.0
9816,59.0,30.0,60.0,1.0,0.0
9817,40.0,0.0,30.0,4.0,0.0
9818,52.0,0.0,30.0,6.0,0.0
9819,52.0,0.0,30.0,3.0,0.0
9820,52.0,0.0,30.0,8.0,0.0
9821,51.0,29.0,30.0,6.0,0.0
9822,51.0,0.0,30.0,8.0,0.0
9823,63.0,30.0,60.0,1.0,0.0
9824,68.0,0.0,60.0,0.0,0.0
9825,68.0,0.0,60.0,5.0,0.0
9826,68.0,1.0,60.0,7.0,0.0
9827,59.0,0.0,60.0,2.0,0.0
9828,51.0,0.0,30.0,3.0,0.0
9829,39.0,0.0,30.0,4.0,0.0
9830,49.0,0.0,30.0,8.0,0.0
9831,49.0,0.0,30.0,3.0,0.0
9832,49.0,0.0,30.0,6.0,0.0
9833,37.0,0.0,30.0,4.0,0.0
9834,47.0,0.0,30.0,8.0,0.0
9835,47.0,0.0,30.0,3.0,0.0
9836,71.0,0.0,60.0,7.0,0.0
9837,35.0,30.0,30.0,4.0,0.0
9838,47.0,0.0,30.0,6.0,0.0
9839,71.0,15.0,60.0,0.0,0.0
9840,71.0,0.0,60.0,5.0,0.0
9841,68.0,0.0,60.0,1.0,0.0
9842,63.0,0.0,60.0,2.0,0.0
9843,46.0,0.0,30.0,6.0,0.0
9844,46.0,0.0,30.0,8.0,0.0
9845,34.0,0.0,30.0,4.0,0.0
9846,46.0,0.0,30.0,3.0,0.0
9847,32.0,0.0,30.0,4.0,0.0
9848,75.0,0.0,15.0,5.0,0.0
9849,44.0,0.0,30.0,3.0,0.0
9850,44.0,15.0,30.0,6.0,0.0
9851,70.0,0.0,60.0,1.0,0.0
9852,75.0,15.0,15.0,7.0,0.0
9853,44.0,0.0,30.0,8.0,0.0
9854,65.0,0.0,60.0,2.0,0.0
9855,75.0,0.0,15.0,0.0,0.0
9856,74.0,0.0,15.0,0.0,0.0
9857,74.0,0.0,15.0,5.0,0.0
9858,74.0,0.0,15.0,7.0,0.0
9859,47.0,15.0,30.0,3.0,0.0
9860,75.0,15.0,15.0,0.0,0.0
9861,47.0,0.0,30.0,6.0,0.0
9862,75.0,0.0,15.0,7.0,0.0
9863,35.0,0.0,30.0,4.0,0.0
9864,75.0,0.0,15.0,5.0,0.0
9865,47.0,0.0,30.0,8.0,0.0
9866,74.0,0.0,15.0,5.0,0.0
9867,74.0,0.0,15.0,7.0,0.0
9868,74.0,0.0,15.0,0.0,0.0
9869,46.0,0.0,30.0,6.0,0.0
9870,65.0,30.0,60.0,1.0,0.0
9871,75.0,0.0,15.0,0.0,0.0
9872,58.0,0.0,60.0,2.0,0.0
9873,46.0,0.0,30.0,8.0,0.0
9874,34.0,0.0,30.0,4.0,0.0
9875,75.0,0.0,15.0,7.0,0.0
9876,75.0,15.0,15.0,5.0,0.0
9877,46.0,0.0,30.0,3.0,0.0
9878,74.0,0.0,15.0,7.0,0.0
9879,74.0,0.0,15.0,0.0,0.0
9880,74.0,15.0,15.0,5.0,0.0
9881,72.0,0.0,15.0,7.0,0.0
9882,72.0,15.0,15.0,0.0,0.0
9883,32.0,0.0,30.0,4.0,0.0
9884,44.0,0.0,30.0,8.0,0.0
9885,44.0,0.0,30.0,6.0,0.0
9886,44.0,0.0,30.0,3.0,0.0
9887,72.0,0.0,15.0,5.0,0.0
9888,74.0,0.0,15.0,5.0,0.0
9889,74.0,0.0,15.0,0.0,0.0
9890,74.0,0.0,15.0,7.0,0.0
9891,58.0,0.0,60.0,2.0,0.0
9892,43.0,0.0,30.0,6.0,0.0
9893,75.0,30.0,60.0,7.0,0.0
9894,43.0,30.0,30.0,3.0,0.0
9895,70.0,0.0,60.0,1.0,0.0
9896,31.0,0.0,30.0,4.0,0.0
9897,75.0,0.0,60.0,5.0,0.0
9898,43.0,0.0,30.0,8.0,0.0
9899,75.0,0.0,60.0,0.0,0.0
9900,27.0,0.0,30.0,4.0,0.0
9901,39.0,0.0,30.0,8.0,0.0
9902,39.0,0.0,30.0,6.0,0.0
9903,39.0,0.0,30.0,3.0,0.0
9904,63.0,0.0,60.0,2.0,0.0
9905,41.0,0.0,30.0,6.0,0.0
9906,41.0,0.0,30.0,8.0,0.0
9907,70.0,0.0,60.0,0.0,0.0
9908,70.0,0.0,60.0,5.0,0.0
9909,29.0,0.0,30.0,4.0,0.0
9910,67.0,0.0,60.0,1.0,0.0
9911,41.0,30.0,30.0,3.0,0.0
9912,70.0,0.0,60.0,7.0,0.0
9913,43.0,0.0,30.0,3.0,0.0
9914,43.0,0.0,30.0,6.0,0.0
9915,43.0,0.0,30.0,8.0,0.0
9916,31.0,30.0,30.0,4.0,0.0
9917,71.0,0.0,60.0,0.0,0.0
9918,71.0,30.0,60.0,7.0,0.0
9919,44.0,0.0,30.0,8.0,0.0
9920,56.0,0.0,60.0,2.0,0.0
9921,44.0,0.0,30.0,6.0,0.0
9922,71.0,0.0,60.0,5.0,0.0
9923,32.0,0.0,30.0,4.0,0.0
9924,63.0,0.0,60.0,1.0,0.0
9925,44.0,30.0,30.0,3.0,0.0
9926,34.0,0.0,30.0,4.0,0.0
9927,46.0,0.0,30.0,8.0,0.0
9928,46.0,0.0,30.0,3.0,0.0
9929,46.0,0.0,30.0,6.0,0.0
9930,47.0,0.0,30.0,3.0,0.0
9931,68.0,0.0,60.0,5.0,0.0
9932,47.0,30.0,30.0,6.0,0.0
9933,68.0,0.0,60.0,0.0,0.0
9934,47.0,0.0,30.0,8.0,0.0
9935,68.0,0.0,60.0,7.0,0.0
9936,63.0,60.0,60.0,1.0,0.0
9937,56.0,0.0,60.0,2.0,0.0
9938,35.0,0.0,30.0,4.0,0.0
9939,37.0,0.0,30.0,4.0,0.0
9940,49.0,0.0,30.0,8.0,0.0
9941,49.0,0.0,30.0,6.0,0.0
9942,49.0,0.0,30.0,3.0,0.0
9943,51.0,0.0,60.0,8.0,0.0
9944,63.0,0.0,60.0,7.0,0.0
9945,63.0,0.0,60.0,0.0,0.0
9946,39.0,0.0,60.0,4.0,0.0
9947,51.0,60.0,60.0,3.0,0.0
9948,56.0,0.0,60.0,2.0,0.0
9949,51.0,0.0,60.0,6.0,0.0
9950,63.0,0.0,60.0,5.0,0.0
9951,59.0,0.0,60.0,1.0,0.0
9952,51.0,0.0,60.0,2.0,0.0
9953,39.0,0.0,60.0,8.0,0.0
9954,39.0,0.0,60.0,3.0,0.0
9955,67.0,30.0,60.0,5.0,0.0
9956,39.0,0.0,60.0,6.0,0.0
9957,67.0,0.0,60.0,7.0,0.0
9958,27.0,0.0,60.0,4.0,0.0
9959,58.0,0.0,60.0,1.0,0.0
9960,67.0,0.0,60.0,0.0,0.0
9961,32.0,0.0,60.0,4.0,0.0
9962,44.0,30.0,60.0,3.0,0.0
9963,68.0,0.0,30.0,5.0,0.0
9964,44.0,0.0,60.0,8.0,0.0
9965,51.0,0.0,120.0,2.0,0.0
9966,68.0,0.0,30.0,7.0,0.0
9967,44.0,0.0,60.0,6.0,0.0
9968,59.0,0.0,60.0,1.0,0.0
9969,68.0,30.0,30.0,0.0,0.0
9970,63.0,0.0,30.0,5.0,0.0
9971,63.0,0.0,30.0,0.0,0.0
9972,63.0,0.0,30.0,7.0,0.0
9973,61.0,0.0,30.0,1.0,0.0
9974,64.0,30.0,30.0,5.0,0.0
9975,64.0,0.0,30.0,0.0,0.0
9976,64.0,0.0,30.0,7.0,0.0
9977,32.0,0.0,60.0,8.0,0.0
9978,20.0,0.0,60.0,4.0,0.0
9979,32.0,0.0,60.0,3.0,0.0
9980,61.0,0.0,30.0,7.0,0.0
9981,61.0,0.0,30.0,0.0,0.0
9982,58.0,0.0,30.0,1.0,0.0
9983,61.0,30.0,30.0,5.0,0.0
9984,63.0,0.0,30.0,0.0,0.0
9985,63.0,30.0,30.0,7.0,0.0
9986,63.0,0.0,30.0,5.0,0.0
9987,59.0,0.0,30.0,1.0,0.0
9988,32.0,0.0,15.0,6.0,0.0
9989,59.0,0.0,30.0,0.0,0.0
9990,56.0,0.0,30.0,1.0,0.0
9991,51.0,30.0,30.0,2.0,0.0
9992,59.0,0.0,30.0,5.0,0.0
9993,59.0,0.0,30.0,7.0,0.0
9994,58.0,0.0,30.0,1.0,0.0
9995,20.0,0.0,15.0,4.0,0.0
9996,32.0,0.0,15.0,8.0,0.0
9997,61.0,0.0,30.0,5.0,0.0
9998,61.0,0.0,30.0,0.0,0.0
9999,32.0,0.0,15.0,3.0,0.0
10000,52.0,30.0,30.0,2.0,0.0
10001,61.0,0.0,30.0,7.0,0.0
10002,55.0,0.0,30.0,1.0,0.0
10003,58.0,0.0,30.0,7.0,0.0
10004,49.0,0.0,30.0,2.0,0.0
10005,58.0,0.0,30.0,0.0,0.0
10006,58.0,30.0,30.0,5.0,0.0
10007,56.0,0.0,30.0,1.0,0.0
10008,32.0,0.0,15.0,6.0,0.0
10009,59.0,0.0,30.0,7.0,0.0
10010,32.0,30.0,60.0,8.0,0.0
10011,59.0,30.0,30.0,0.0,0.0
10012,59.0,0.0,30.0,5.0,0.0
10013,51.0,0.0,30.0,2.0,0.0
10014,47.0,0.0,30.0,2.0,0.0
10015,56.0,0.0,30.0,0.0,0.0
10016,51.0,0.0,30.0,1.0,0.0
10017,56.0,0.0,30.0,5.0,0.0
10018,56.0,0.0,30.0,7.0,0.0
10019,32.0,0.0,15.0,3.0,0.0
10020,58.0,30.0,30.0,0.0,0.0
10021,58.0,0.0,30.0,7.0,0.0
10022,20.0,0.0,15.0,4.0,0.0
10023,58.0,0.0,30.0,5.0,0.0
10024,52.0,0.0,60.0,1.0,0.0
10025,49.0,0.0,30.0,2.0,0.0
10026,46.0,60.0,30.0,2.0,0.0
10027,55.0,0.0,30.0,7.0,0.0
10028,55.0,0.0,30.0,5.0,0.0
10029,55.0,0.0,30.0,0.0,0.0
10030,56.0,0.0,120.0,0.0,0.0
10031,32.0,0.0,15.0,6.0,0.0
10032,56.0,0.0,120.0,7.0,0.0
10033,32.0,0.0,15.0,8.0,0.0
10034,56.0,30.0,60.0,5.0,0.0
10035,20.0,0.0,120.0,4.0,0.0
10036,32.0,0.0,120.0,3.0,0.0
10037,51.0,60.0,120.0,1.0,0.0
10038,47.0,0.0,120.0,2.0,0.0
10039,63.0,30.0,30.0,5.0,0.0
10040,61.0,0.0,30.0,5.0,0.0
10041,63.0,60.0,60.0,5.0,0.0
10042,71.0,0.0,60.0,5.0,0.0
10043,44.0,60.0,60.0,6.0,0.0
10044,32.0,0.0,60.0,4.0,0.0
10045,44.0,0.0,60.0,3.0,0.0
10046,67.0,0.0,60.0,5.0,0.0
10047,34.0,0.0,60.0,4.0,0.0
10048,46.0,0.0,60.0,6.0,0.0
10049,46.0,60.0,60.0,3.0,0.0
10050,35.0,0.0,60.0,4.0,0.0
10051,68.0,0.0,60.0,5.0,0.0
10052,47.0,30.0,60.0,6.0,0.0
10053,47.0,0.0,60.0,3.0,0.0
10054,37.0,30.0,30.0,4.0,0.0
10055,49.0,0.0,30.0,3.0,0.0
10056,49.0,0.0,30.0,6.0,0.0
10057,51.0,30.0,30.0,3.0,0.0
10058,51.0,0.0,30.0,6.0,0.0
10059,39.0,0.0,30.0,4.0,0.0
10060,61.0,30.0,30.0,5.0,0.0
10061,52.0,0.0,60.0,6.0,0.0
10062,52.0,0.0,60.0,3.0,0.0
10063,40.0,0.0,60.0,4.0,0.0
10064,59.0,60.0,30.0,5.0,0.0
10065,61.0,59.0,60.0,5.0,0.0
10066,37.0,0.0,60.0,4.0,0.0
10067,49.0,0.0,60.0,3.0,0.0
10068,70.0,29.0,90.0,5.0,0.0
10069,49.0,31.0,60.0,6.0,0.0
10070,39.0,1.0,60.0,4.0,0.0
10071,51.0,0.0,60.0,6.0,0.0
10072,51.0,0.0,60.0,3.0,0.0
10073,68.0,30.0,30.0,5.0,0.0
10074,52.0,0.0,60.0,3.0,0.0
10075,52.0,1.0,60.0,6.0,0.0
10076,40.0,0.0,60.0,4.0,0.0
10077,67.0,29.0,30.0,5.0,0.0
10078,68.0,29.0,30.0,5.0,0.0
10079,43.0,1.0,30.0,3.0,0.0
10080,70.0,29.0,30.0,5.0,0.0
10081,43.0,0.0,30.0,6.0,0.0
10082,31.0,0.0,30.0,4.0,0.0
10083,68.0,30.0,30.0,5.0,0.0
10084,44.0,1.0,30.0,3.0,0.0
10085,32.0,0.0,30.0,4.0,0.0
10086,44.0,0.0,30.0,6.0,0.0
10087,46.0,1.0,60.0,6.0,0.0
10088,46.0,0.0,60.0,3.0,0.0
10089,67.0,29.0,30.0,5.0,0.0
10090,34.0,0.0,60.0,4.0,0.0
10091,65.0,30.0,30.0,5.0,0.0
10092,63.0,30.0,30.0,5.0,0.0
10093,61.0,59.0,30.0,5.0,0.0
10094,31.0,0.0,60.0,4.0,0.0
10095,43.0,0.0,60.0,3.0,0.0
10096,64.0,59.0,120.0,5.0,0.0
10097,43.0,60.0,60.0,6.0,0.0
10098,32.0,0.0,60.0,4.0,0.0
10099,44.0,0.0,60.0,6.0,0.0
10100,44.0,1.0,60.0,3.0,0.0
10101,34.0,30.0,60.0,4.0,0.0
10102,63.0,0.0,90.0,5.0,0.0
10103,46.0,0.0,60.0,6.0,0.0
10104,46.0,0.0,60.0,3.0,0.0
10105,47.0,0.0,30.0,6.0,0.0
10106,35.0,30.0,30.0,4.0,0.0
10107,47.0,0.0,30.0,3.0,0.0
10108,49.0,30.0,30.0,6.0,0.0
10109,61.0,0.0,30.0,5.0,0.0
10110,49.0,0.0,30.0,3.0,0.0
10111,37.0,0.0,30.0,4.0,0.0
10112,39.0,0.0,60.0,4.0,0.0
10113,63.0,0.0,30.0,1.0,0.0
10114,59.0,1.0,30.0,5.0,0.0
10115,51.0,0.0,60.0,6.0,0.0
10116,68.0,0.0,30.0,0.0,0.0
10117,59.0,29.0,30.0,2.0,0.0
10118,51.0,1.0,60.0,3.0,0.0
10119,58.0,0.0,30.0,5.0,0.0
10120,70.0,0.0,30.0,0.0,0.0
10121,64.0,0.0,30.0,1.0,0.0
10122,61.0,29.0,30.0,2.0,0.0
10123,68.0,0.0,60.0,0.0,0.0
10124,59.0,30.0,30.0,5.0,0.0
10125,63.0,29.0,60.0,1.0,0.0
10126,59.0,0.0,60.0,2.0,0.0
10127,56.0,1.0,30.0,5.0,0.0
10128,39.0,0.0,60.0,6.0,0.0
10129,27.0,30.0,60.0,4.0,0.0
10130,39.0,0.0,60.0,3.0,0.0
10131,58.0,30.0,30.0,5.0,0.0
10132,55.0,0.0,30.0,5.0,0.0
10133,35.0,0.0,60.0,6.0,0.0
10134,35.0,30.0,60.0,3.0,0.0
10135,56.0,30.0,30.0,5.0,0.0
10136,23.0,0.0,60.0,4.0,0.0
10137,51.0,0.0,30.0,5.0,0.0
10138,71.0,29.0,30.0,0.0,0.0
10139,63.0,0.0,30.0,2.0,0.0
10140,39.0,0.0,60.0,6.0,0.0
10141,68.0,0.0,30.0,1.0,0.0
10142,39.0,1.0,60.0,3.0,0.0
10143,56.0,1.0,30.0,5.0,0.0
10144,27.0,0.0,60.0,4.0,0.0
10145,55.0,0.0,30.0,5.0,0.0
10146,73.0,0.0,30.0,0.0,0.0
10147,70.0,29.0,30.0,1.0,0.0
10148,64.0,0.0,30.0,2.0,0.0
10149,44.0,1.0,60.0,8.0,0.0
10150,63.0,0.0,60.0,2.0,0.0
10151,56.0,30.0,30.0,5.0,0.0
10152,32.0,0.0,120.0,3.0,0.0
10153,68.0,29.0,60.0,1.0,0.0
10154,20.0,30.0,120.0,4.0,0.0
10155,71.0,0.0,60.0,0.0,0.0
10156,32.0,0.0,120.0,6.0,0.0
10157,51.0,0.0,30.0,5.0,0.0
10158,63.0,0.0,30.0,7.0,0.0
10159,56.0,0.0,60.0,8.0,0.0
10160,59.0,30.0,30.0,5.0,0.0
10161,61.0,0.0,30.0,7.0,0.0
10162,58.0,0.0,30.0,5.0,0.0
10163,63.0,0.0,60.0,7.0,0.0
10164,59.0,30.0,30.0,5.0,0.0
10165,58.0,30.0,30.0,5.0,0.0
10166,56.0,0.0,60.0,8.0,0.0
10167,47.0,0.0,60.0,6.0,0.0
10168,20.0,30.0,60.0,4.0,0.0
10169,71.0,0.0,60.0,7.0,0.0
10170,32.0,0.0,60.0,3.0,0.0
10171,63.0,30.0,30.0,5.0,0.0
10172,59.0,0.0,30.0,5.0,0.0
10173,61.0,30.0,30.0,5.0,0.0
10174,67.0,0.0,60.0,7.0,0.0
10175,27.0,0.0,60.0,4.0,0.0
10176,58.0,0.0,60.0,8.0,0.0
10177,46.0,0.0,60.0,6.0,0.0
10178,39.0,0.0,60.0,3.0,0.0
10179,58.0,30.0,30.0,5.0,0.0
10180,59.0,30.0,30.0,5.0,0.0
10181,59.0,0.0,60.0,8.0,0.0
10182,44.0,0.0,60.0,6.0,0.0
10183,32.0,30.0,60.0,4.0,0.0
10184,68.0,0.0,60.0,7.0,0.0
10185,44.0,0.0,60.0,3.0,0.0
10186,56.0,0.0,30.0,5.0,0.0
10187,51.0,0.0,60.0,6.0,0.0
10188,39.0,29.0,120.0,3.0,0.0
10189,27.0,0.0,120.0,4.0,0.0
10190,55.0,0.0,30.0,5.0,0.0
10191,58.0,30.0,30.0,8.0,0.0
10192,63.0,0.0,30.0,5.0,0.0
10193,56.0,30.0,30.0,8.0,0.0
10194,55.0,0.0,60.0,8.0,0.0
10195,70.0,0.0,30.0,5.0,0.0
10196,61.0,30.0,30.0,7.0,0.0
10197,39.0,0.0,60.0,6.0,0.0
10198,68.0,0.0,30.0,5.0,0.0
10199,59.0,1.0,30.0,7.0,0.0
10200,70.0,30.0,30.0,5.0,0.0
10201,61.0,30.0,60.0,7.0,0.0
10202,63.0,0.0,30.0,5.0,0.0
10203,55.0,0.0,60.0,8.0,0.0
10204,58.0,30.0,60.0,6.0,0.0
10205,39.0,0.0,60.0,3.0,0.0
10206,27.0,0.0,60.0,4.0,0.0
10207,73.0,30.0,30.0,5.0,0.0
10208,70.0,30.0,90.0,7.0,0.0
10209,71.0,0.0,30.0,5.0,0.0
10210,55.0,0.0,60.0,6.0,0.0
10211,51.0,0.0,60.0,8.0,0.0
10212,43.0,0.0,60.0,3.0,0.0
10213,31.0,0.0,60.0,4.0,0.0
10214,73.0,0.0,30.0,5.0,0.0
10215,68.0,30.0,30.0,7.0,0.0
10216,70.0,0.0,30.0,5.0,0.0
10217,67.0,0.0,30.0,7.0,0.0
10218,51.0,0.0,60.0,6.0,0.0
10219,75.0,30.0,30.0,5.0,0.0
10220,46.0,30.0,60.0,3.0,0.0
10221,46.0,0.0,60.0,8.0,0.0
10222,34.0,0.0,60.0,4.0,0.0
10223,68.0,0.0,30.0,7.0,0.0
10224,71.0,0.0,30.0,5.0,0.0
10225,51.0,0.0,120.0,3.0,0.0
10226,46.0,0.0,60.0,6.0,0.0
10227,73.0,0.0,60.0,5.0,0.0
10228,70.0,30.0,30.0,7.0,0.0
10229,43.0,30.0,60.0,8.0,0.0
10230,39.0,0.0,120.0,4.0,0.0
10231,68.0,0.0,30.0,7.0,0.0
10232,67.0,30.0,30.0,7.0,0.0
10233,46.0,0.0,60.0,8.0,0.0
10234,63.0,0.0,90.0,5.0,0.0
10235,51.0,0.0,60.0,6.0,0.0
10236,65.0,30.0,30.0,7.0,0.0
10237,55.0,0.0,60.0,6.0,0.0
10238,51.0,0.0,60.0,8.0,0.0
10239,63.0,30.0,30.0,7.0,0.0
10240,61.0,0.0,30.0,7.0,0.0
10241,65.0,30.0,30.0,5.0,0.0
10242,64.0,0.0,120.0,7.0,0.0
10243,67.0,30.0,30.0,5.0,0.0
10244,46.0,0.0,60.0,3.0,0.0
10245,46.0,0.0,60.0,8.0,0.0
10246,34.0,30.0,60.0,4.0,0.0
10247,58.0,0.0,60.0,6.0,0.0
10248,68.0,0.0,30.0,5.0,0.0
10249,43.0,0.0,60.0,3.0,0.0
10250,55.0,0.0,60.0,6.0,0.0
10251,31.0,30.0,60.0,4.0,0.0
10252,43.0,0.0,60.0,8.0,0.0
10253,70.0,30.0,30.0,5.0,0.0
10254,71.0,0.0,30.0,5.0,0.0
10255,27.0,0.0,60.0,4.0,0.0
10256,39.0,0.0,60.0,8.0,0.0
10257,51.0,0.0,60.0,6.0,0.0
10258,73.0,30.0,30.0,5.0,0.0
10259,63.0,30.0,90.0,7.0,0.0
10260,39.0,30.0,60.0,3.0,0.0
10261,70.0,0.0,30.0,5.0,0.0
10262,32.0,0.0,120.0,4.0,0.0
10263,71.0,0.0,30.0,5.0,0.0
10264,44.0,30.0,60.0,8.0,0.0
10265,56.0,0.0,60.0,6.0,0.0
10266,44.0,0.0,120.0,3.0,0.0
10267,61.0,0.0,30.0,7.0,0.0
10268,76.0,0.0,30.0,5.0,0.0
10269,75.0,1.0,30.0,5.0,0.0
10270,59.0,0.0,30.0,7.0,0.0
10271,63.0,0.0,30.0,0.0,0.0
10272,59.0,29.0,30.0,1.0,0.0
10273,44.0,0.0,60.0,6.0,0.0
10274,68.0,0.0,30.0,2.0,0.0
10275,56.0,0.0,60.0,8.0,0.0
10276,67.0,0.0,30.0,2.0,0.0
10277,73.0,1.0,30.0,5.0,0.0
10278,61.0,29.0,30.0,1.0,0.0
10279,64.0,0.0,30.0,0.0,0.0
10280,58.0,0.0,30.0,7.0,0.0
10281,59.0,30.0,30.0,7.0,0.0
10282,75.0,0.0,30.0,5.0,0.0
10283,68.0,0.0,60.0,2.0,0.0
10284,59.0,29.0,60.0,1.0,0.0
10285,63.0,0.0,60.0,0.0,0.0
10286,71.0,1.0,30.0,5.0,0.0
10287,56.0,0.0,30.0,7.0,0.0
10288,27.0,0.0,60.0,4.0,0.0
10289,58.0,30.0,30.0,7.0,0.0
10290,51.0,0.0,60.0,8.0,0.0
10291,39.0,0.0,60.0,3.0,0.0
10292,39.0,30.0,60.0,6.0,0.0
10293,73.0,0.0,30.0,5.0,0.0
10294,70.0,0.0,30.0,5.0,0.0
10295,55.0,0.0,30.0,7.0,0.0
10296,71.0,0.0,30.0,5.0,0.0
10297,44.0,0.0,60.0,6.0,0.0
10298,47.0,0.0,60.0,8.0,0.0
10299,35.0,0.0,60.0,3.0,0.0
10300,56.0,30.0,30.0,7.0,0.0
10301,23.0,30.0,60.0,4.0,0.0
10302,75.0,0.0,30.0,5.0,0.0
10303,51.0,0.0,30.0,7.0,0.0
10304,56.0,1.0,30.0,7.0,0.0
10305,59.0,29.0,30.0,2.0,0.0
10306,71.0,0.0,30.0,5.0,0.0
10307,51.0,0.0,60.0,6.0,0.0
10308,63.0,0.0,30.0,1.0,0.0
10309,51.0,1.0,60.0,8.0,0.0
10310,27.0,0.0,60.0,4.0,0.0
10311,39.0,0.0,60.0,3.0,0.0
10312,68.0,0.0,30.0,0.0,0.0
10313,70.0,0.0,30.0,5.0,0.0
10314,55.0,0.0,30.0,7.0,0.0
10315,64.0,29.0,30.0,1.0,0.0
10316,61.0,0.0,30.0,2.0,0.0
10317,70.0,0.0,30.0,0.0,0.0
10318,44.0,1.0,60.0,8.0,0.0
10319,32.0,0.0,120.0,3.0,0.0
10320,20.0,30.0,120.0,4.0,0.0
10321,56.0,0.0,120.0,6.0,0.0
10322,71.0,0.0,30.0,5.0,0.0
10323,63.0,29.0,60.0,1.0,0.0
10324,68.0,0.0,60.0,0.0,0.0
10325,59.0,0.0,60.0,2.0,0.0
10326,56.0,30.0,30.0,7.0,0.0
10327,75.0,0.0,30.0,5.0,0.0
10328,51.0,0.0,30.0,7.0,0.0
10329,68.0,0.0,30.0,5.0,0.0
10330,59.0,30.0,30.0,7.0,0.0
10331,51.0,0.0,30.0,8.0,0.0
10332,58.0,0.0,30.0,7.0,0.0
10333,49.0,0.0,30.0,8.0,0.0
10334,67.0,0.0,30.0,5.0,0.0
10335,51.0,0.0,60.0,8.0,0.0
10336,60.0,0.0,30.0,7.0,0.0
10337,68.0,0.0,60.0,1.0,0.0
10338,60.0,29.0,60.0,2.0,0.0
10339,68.0,30.0,30.0,5.0,0.0
10340,75.0,0.0,60.0,0.0,0.0
10341,75.0,1.0,30.0,5.0,0.0
10342,56.0,0.0,30.0,7.0,0.0
10343,48.0,0.0,60.0,8.0,0.0
10344,32.0,0.0,60.0,4.0,0.0
10345,66.0,30.0,30.0,5.0,0.0
10346,44.0,0.0,60.0,3.0,0.0
10347,56.0,0.0,60.0,6.0,0.0
10348,63.0,0.0,30.0,7.0,0.0
10349,61.0,30.0,30.0,7.0,0.0
10350,64.0,0.0,30.0,5.0,0.0
10351,36.0,0.0,60.0,4.0,0.0
10352,66.0,30.0,30.0,5.0,0.0
10353,44.0,0.0,60.0,8.0,0.0
10354,51.0,30.0,60.0,6.0,0.0
10355,48.0,0.0,60.0,3.0,0.0
10356,63.0,0.0,30.0,7.0,0.0
10357,75.0,0.0,30.0,5.0,0.0
10358,56.0,0.0,30.0,7.0,0.0
10359,56.0,0.0,60.0,6.0,0.0
10360,64.0,30.0,30.0,5.0,0.0
10361,44.0,0.0,60.0,3.0,0.0
10362,32.0,0.0,60.0,4.0,0.0
10363,61.0,0.0,30.0,7.0,0.0
10364,32.0,30.0,60.0,8.0,0.0
10365,63.0,0.0,30.0,5.0,0.0
10366,63.0,0.0,30.0,7.0,0.0
10367,64.0,0.0,30.0,7.0,0.0
10368,64.0,0.0,60.0,1.0,0.0
10369,37.0,0.0,120.0,8.0,0.0
10370,52.0,0.0,60.0,6.0,0.0
10371,56.0,0.0,60.0,2.0,0.0
10372,61.0,30.0,30.0,5.0,0.0
10373,73.0,29.0,60.0,0.0,0.0
10374,37.0,0.0,120.0,4.0,0.0
10375,49.0,0.0,120.0,3.0,0.0
10376,56.0,0.0,30.0,5.0,0.0
10377,68.0,1.0,30.0,7.0,0.0
10378,56.0,30.0,30.0,6.0,0.0
10379,61.0,0.0,30.0,7.0,0.0
10380,64.0,0.0,30.0,5.0,0.0
10381,54.0,30.0,30.0,6.0,0.0
10382,60.0,0.0,30.0,7.0,0.0
10383,63.0,0.0,30.0,5.0,0.0
10384,65.0,30.0,30.0,5.0,0.0
10385,65.0,0.0,60.0,2.0,0.0
10386,68.0,0.0,60.0,1.0,0.0
10387,71.0,29.0,60.0,0.0,0.0
10388,61.0,0.0,30.0,7.0,0.0
10389,56.0,0.0,60.0,6.0,0.0
10390,68.0,1.0,30.0,7.0,0.0
10391,61.0,0.0,30.0,5.0,0.0
10392,59.0,30.0,30.0,7.0,0.0
10393,68.0,0.0,30.0,5.0,0.0
10394,53.0,0.0,60.0,6.0,0.0
10395,49.0,30.0,60.0,3.0,0.0
10396,49.0,0.0,60.0,8.0,0.0
10397,37.0,0.0,60.0,4.0,0.0
10398,66.0,0.0,30.0,5.0,0.0
10399,58.0,0.0,30.0,7.0,0.0
10400,29.0,0.0,60.0,4.0,0.0
10401,68.0,30.0,30.0,5.0,0.0
10402,49.0,30.0,60.0,6.0,0.0
10403,59.0,0.0,30.0,7.0,0.0
10404,41.0,0.0,60.0,3.0,0.0
10405,44.0,0.0,60.0,8.0,0.0
10406,61.0,0.0,30.0,5.0,0.0
10407,68.0,0.0,30.0,7.0,0.0
10408,58.0,30.0,30.0,7.0,0.0
10409,49.0,0.0,60.0,8.0,0.0
10410,37.0,0.0,60.0,3.0,0.0
10411,37.0,0.0,60.0,6.0,0.0
10412,66.0,0.0,30.0,5.0,0.0
10413,25.0,30.0,60.0,4.0,0.0
10414,68.0,0.0,30.0,5.0,0.0
10415,56.0,0.0,30.0,7.0,0.0
10416,54.0,30.0,30.0,7.0,0.0
10417,42.0,0.0,120.0,3.0,0.0
10418,66.0,0.0,60.0,1.0,0.0
10419,42.0,0.0,120.0,6.0,0.0
10420,46.0,0.0,60.0,8.0,0.0
10421,61.0,0.0,60.0,2.0,0.0
10422,70.0,0.0,30.0,5.0,0.0
10423,30.0,30.0,120.0,4.0,0.0
10424,70.0,29.0,60.0,0.0,0.0
10425,73.0,1.0,30.0,5.0,0.0
10426,49.0,0.0,30.0,7.0,0.0
10427,58.0,0.0,30.0,7.0,0.0
10428,49.0,0.0,30.0,8.0,0.0
10429,66.0,30.0,30.0,5.0,0.0
10430,65.0,0.0,30.0,5.0,0.0
10431,47.0,0.0,30.0,8.0,0.0
10432,56.0,0.0,30.0,7.0,0.0
10433,58.0,0.0,30.0,7.0,0.0
10434,66.0,30.0,30.0,5.0,0.0
10435,64.0,0.0,60.0,1.0,0.0
10436,49.0,0.0,60.0,8.0,0.0
10437,73.0,0.0,60.0,0.0,0.0
10438,58.0,29.0,60.0,2.0,0.0
10439,73.0,1.0,30.0,5.0,0.0
10440,54.0,0.0,30.0,7.0,0.0
10441,64.0,30.0,30.0,5.0,0.0
10442,30.0,30.0,60.0,4.0,0.0
10443,46.0,0.0,60.0,8.0,0.0
10444,61.0,0.0,30.0,7.0,0.0
10445,54.0,0.0,60.0,6.0,0.0
10446,42.0,0.0,60.0,3.0,0.0
10447,59.0,0.0,30.0,7.0,0.0
10448,63.0,0.0,30.0,5.0,0.0
10449,42.0,0.0,60.0,8.0,0.0
10450,46.0,0.0,60.0,3.0,0.0
10451,64.0,30.0,30.0,5.0,0.0
10452,49.0,0.0,60.0,6.0,0.0
10453,34.0,30.0,60.0,4.0,0.0
10454,61.0,0.0,30.0,7.0,0.0
10455,73.0,0.0,30.0,5.0,0.0
10456,54.0,0.0,30.0,7.0,0.0
10457,63.0,0.0,30.0,5.0,0.0
10458,42.0,0.0,60.0,3.0,0.0
10459,42.0,0.0,60.0,8.0,0.0
10460,54.0,0.0,60.0,6.0,0.0
10461,59.0,30.0,30.0,7.0,0.0
10462,30.0,0.0,60.0,4.0,0.0
10463,61.0,0.0,30.0,5.0,0.0
10464,61.0,30.0,30.0,7.0,0.0
10465,51.0,1.0,60.0,6.0,0.0
10466,63.0,29.0,60.0,1.0,0.0
10467,47.0,0.0,120.0,3.0,0.0
10468,54.0,0.0,60.0,2.0,0.0
10469,35.0,0.0,120.0,4.0,0.0
10470,35.0,0.0,120.0,8.0,0.0
10471,59.0,0.0,30.0,5.0,0.0
10472,71.0,0.0,60.0,0.0,0.0
10473,63.0,30.0,30.0,7.0,0.0
10474,54.0,0.0,30.0,5.0,0.0
10475,66.0,0.0,30.0,7.0,0.0
10476,59.0,0.0,30.0,7.0,0.0
10477,54.0,30.0,30.0,6.0,0.0
10478,63.0,0.0,30.0,5.0,0.0
10479,58.0,0.0,30.0,7.0,0.0
10480,52.0,30.0,30.0,6.0,0.0
10481,61.0,0.0,30.0,5.0,0.0
10482,59.0,0.0,30.0,7.0,0.0
10483,63.0,30.0,30.0,5.0,0.0
10484,63.0,29.0,60.0,2.0,0.0
10485,66.0,0.0,60.0,1.0,0.0
10486,69.0,0.0,60.0,0.0,0.0
10487,54.0,0.0,60.0,6.0,0.0
10488,66.0,1.0,30.0,7.0,0.0
10489,59.0,0.0,30.0,5.0,0.0
10490,57.0,0.0,30.0,7.0,0.0
10491,51.0,0.0,60.0,6.0,0.0
10492,35.0,0.0,60.0,4.0,0.0
10493,47.0,0.0,60.0,3.0,0.0
10494,47.0,30.0,60.0,8.0,0.0
10495,66.0,30.0,30.0,5.0,0.0
10496,56.0,0.0,30.0,7.0,0.0
10497,64.0,0.0,30.0,5.0,0.0
10498,66.0,30.0,30.0,5.0,0.0
10499,27.0,0.0,60.0,4.0,0.0
10500,42.0,0.0,60.0,8.0,0.0
10501,39.0,0.0,60.0,3.0,0.0
10502,57.0,0.0,30.0,7.0,0.0
10503,47.0,0.0,60.0,6.0,0.0
10504,66.0,0.0,30.0,7.0,0.0
10505,59.0,30.0,30.0,5.0,0.0
10506,35.0,0.0,60.0,6.0,0.0
10507,64.0,0.0,30.0,5.0,0.0
10508,23.0,0.0,60.0,4.0,0.0
10509,35.0,0.0,60.0,3.0,0.0
10510,47.0,0.0,60.0,8.0,0.0
10511,56.0,30.0,30.0,7.0,0.0
10512,66.0,30.0,30.0,5.0,0.0
10513,54.0,0.0,30.0,7.0,0.0
10514,40.0,0.0,60.0,6.0,0.0
10515,68.0,0.0,30.0,5.0,0.0
10516,28.0,0.0,120.0,4.0,0.0
10517,68.0,29.0,60.0,0.0,0.0
10518,40.0,30.0,120.0,3.0,0.0
10519,59.0,0.0,60.0,2.0,0.0
10520,52.0,30.0,30.0,8.0,0.0
10521,52.0,0.0,30.0,7.0,0.0
10522,64.0,0.0,60.0,1.0,0.0
10523,59.0,1.0,30.0,5.0,0.0
10524,56.0,0.0,30.0,7.0,0.0
10525,39.0,0.0,30.0,8.0,0.0
10526,52.0,0.0,60.0,6.0,0.0
10527,59.0,30.0,30.0,7.0,0.0
10528,64.0,0.0,30.0,5.0,0.0
10529,44.0,0.0,30.0,8.0,0.0
10530,68.0,0.0,30.0,5.0,0.0
10531,47.0,0.0,30.0,8.0,0.0
10532,64.0,0.0,30.0,7.0,0.0
10533,52.0,0.0,60.0,8.0,0.0
10534,64.0,0.0,60.0,2.0,0.0
10535,68.0,0.0,60.0,1.0,0.0
10536,73.0,29.0,60.0,0.0,0.0
10537,61.0,1.0,60.0,5.0,0.0
10538,68.0,30.0,30.0,7.0,0.0
10539,44.0,0.0,30.0,6.0,0.0
10540,64.0,0.0,30.0,7.0,0.0
10541,73.0,30.0,90.0,5.0,0.0
10542,66.0,0.0,30.0,7.0,0.0
10543,46.0,30.0,30.0,6.0,0.0
10544,32.0,0.0,60.0,4.0,0.0
10545,44.0,0.0,60.0,3.0,0.0
10546,63.0,30.0,30.0,7.0,0.0
10547,47.0,0.0,30.0,6.0,0.0
10548,49.0,0.0,60.0,6.0,0.0
10549,25.0,0.0,60.0,4.0,0.0
10550,37.0,0.0,60.0,3.0,0.0
10551,64.0,30.0,60.0,7.0,0.0
10552,49.0,0.0,30.0,8.0,0.0
10553,70.0,0.0,30.0,5.0,0.0
10554,71.0,30.0,30.0,5.0,0.0
10555,28.0,0.0,60.0,4.0,0.0
10556,68.0,0.0,90.0,7.0,0.0
10557,40.0,0.0,60.0,3.0,0.0
10558,37.0,30.0,60.0,6.0,0.0
10559,51.0,0.0,30.0,8.0,0.0
10560,52.0,0.0,30.0,8.0,0.0
10561,68.0,0.0,30.0,5.0,0.0
10562,30.0,0.0,120.0,4.0,0.0
10563,54.0,0.0,30.0,8.0,0.0
10564,42.0,0.0,60.0,6.0,0.0
10565,70.0,30.0,30.0,5.0,0.0
10566,42.0,0.0,120.0,3.0,0.0
10567,66.0,29.0,60.0,1.0,0.0
10568,61.0,0.0,60.0,2.0,0.0
10569,70.0,0.0,60.0,0.0,0.0
10570,42.0,0.0,30.0,8.0,0.0
10571,58.0,0.0,30.0,7.0,0.0
10572,61.0,1.0,30.0,5.0,0.0
10573,66.0,0.0,30.0,5.0,0.0
10574,61.0,0.0,30.0,7.0,0.0
10575,46.0,30.0,30.0,8.0,0.0
10576,54.0,0.0,60.0,6.0,0.0
10577,66.0,0.0,30.0,7.0,0.0
10578,49.0,0.0,30.0,8.0,0.0
10579,70.0,30.0,30.0,5.0,0.0
10580,66.0,0.0,60.0,2.0,0.0
10581,63.0,1.0,60.0,5.0,0.0
10582,75.0,29.0,60.0,0.0,0.0
10583,70.0,0.0,60.0,1.0,0.0
10584,54.0,0.0,60.0,8.0,0.0
10585,70.0,30.0,30.0,7.0,0.0
10586,66.0,0.0,30.0,7.0,0.0
10587,46.0,0.0,30.0,6.0,0.0
10588,47.0,0.0,30.0,6.0,0.0
10589,34.0,30.0,60.0,4.0,0.0
10590,68.0,30.0,30.0,7.0,0.0
10591,75.0,30.0,90.0,5.0,0.0
10592,46.0,0.0,60.0,3.0,0.0
10593,49.0,0.0,30.0,6.0,0.0
10594,64.0,0.0,30.0,7.0,0.0
10595,27.0,0.0,60.0,4.0,0.0
10596,39.0,0.0,60.0,3.0,0.0
10597,66.0,0.0,60.0,7.0,0.0
10598,51.0,30.0,60.0,6.0,0.0
10599,51.0,0.0,30.0,8.0,0.0
10600,71.0,0.0,30.0,5.0,0.0
10601,73.0,0.0,30.0,5.0,0.0
10602,30.0,0.0,60.0,4.0,0.0
10603,70.0,30.0,90.0,7.0,0.0
10604,42.0,30.0,60.0,3.0,0.0
10605,39.0,0.0,60.0,6.0,0.0
10606,52.0,30.0,30.0,8.0,0.0
10607,70.0,0.0,30.0,5.0,0.0
10608,54.0,0.0,30.0,8.0,0.0
10609,56.0,0.0,30.0,8.0,0.0
10610,63.0,0.0,60.0,2.0,0.0
10611,68.0,0.0,60.0,1.0,0.0
10612,44.0,0.0,60.0,6.0,0.0
10613,71.0,0.0,30.0,5.0,0.0
10614,44.0,30.0,120.0,3.0,0.0
10615,71.0,29.0,60.0,0.0,0.0
10616,32.0,0.0,120.0,4.0,0.0
10617,59.0,1.0,30.0,7.0,0.0
10618,44.0,0.0,30.0,8.0,0.0
10619,63.0,0.0,30.0,5.0,0.0
10620,68.0,0.0,30.0,5.0,0.0
10621,47.0,0.0,30.0,8.0,0.0
10622,56.0,0.0,60.0,6.0,0.0
10623,63.0,30.0,30.0,7.0,0.0
10624,52.0,0.0,30.0,8.0,0.0
10625,71.0,0.0,30.0,5.0,0.0
10626,68.0,0.0,30.0,7.0,0.0
10627,71.0,29.0,60.0,1.0,0.0
10628,68.0,0.0,60.0,2.0,0.0
10629,71.0,30.0,30.0,7.0,0.0
10630,64.0,0.0,60.0,5.0,0.0
10631,56.0,0.0,60.0,8.0,0.0
10632,76.0,0.0,60.0,0.0,0.0
10633,47.0,0.0,30.0,6.0,0.0
10634,68.0,1.0,30.0,7.0,0.0
10635,47.0,0.0,60.0,3.0,0.0
10636,69.0,0.0,30.0,7.0,0.0
10637,35.0,30.0,60.0,4.0,0.0
10638,76.0,30.0,90.0,5.0,0.0
10639,49.0,30.0,30.0,6.0,0.0
10640,66.0,0.0,30.0,7.0,0.0
10641,51.0,0.0,30.0,6.0,0.0
10642,40.0,0.0,60.0,3.0,0.0
10643,52.0,0.0,60.0,6.0,0.0
10644,28.0,30.0,60.0,4.0,0.0
10645,68.0,0.0,60.0,7.0,0.0
10646,73.0,0.0,30.0,5.0,0.0
10647,52.0,0.0,30.0,8.0,0.0
10648,32.0,30.0,60.0,4.0,0.0
10649,71.0,0.0,90.0,7.0,0.0
10650,40.0,0.0,60.0,6.0,0.0
10651,44.0,0.0,60.0,3.0,0.0
10652,54.0,30.0,30.0,8.0,0.0
10653,75.0,0.0,30.0,5.0,0.0
10654,71.0,0.0,30.0,5.0,0.0
10655,56.0,0.0,30.0,8.0,0.0
10656,58.0,30.0,30.0,8.0,0.0
10657,73.0,0.0,30.0,5.0,0.0
10658,46.0,1.0,60.0,6.0,0.0
10659,46.0,0.0,120.0,3.0,0.0
10660,61.0,0.0,60.0,2.0,0.0
10661,66.0,29.0,60.0,1.0,0.0
10662,34.0,0.0,120.0,4.0,0.0
10663,73.0,0.0,60.0,0.0,0.0
10664,61.0,0.0,30.0,7.0,0.0
10665,46.0,0.0,30.0,8.0,0.0
10666,66.0,0.0,30.0,5.0,0.0
10667,58.0,0.0,60.0,6.0,0.0
10668,49.0,30.0,30.0,8.0,0.0
10669,70.0,0.0,30.0,5.0,0.0
10670,66.0,0.0,30.0,7.0,0.0
10671,70.0,0.0,30.0,7.0,0.0
10672,73.0,0.0,30.0,5.0,0.0
10673,54.0,30.0,30.0,8.0,0.0
10674,78.0,0.0,60.0,0.0,0.0
10675,73.0,30.0,30.0,7.0,0.0
10676,70.0,0.0,60.0,1.0,0.0
10677,66.0,1.0,60.0,5.0,0.0
10678,61.0,29.0,60.0,2.0,0.0
10679,58.0,0.0,60.0,8.0,0.0
10680,70.0,0.0,30.0,7.0,0.0
10681,49.0,0.0,30.0,6.0,0.0
10682,37.0,0.0,60.0,4.0,0.0
10683,71.0,30.0,30.0,7.0,0.0
10684,78.0,30.0,90.0,5.0,0.0
10685,49.0,30.0,60.0,3.0,0.0
10686,51.0,0.0,30.0,6.0,0.0
10687,52.0,0.0,30.0,6.0,0.0
10688,68.0,0.0,30.0,7.0,0.0
10689,54.0,0.0,60.0,6.0,0.0
10690,70.0,0.0,60.0,7.0,0.0
10691,42.0,0.0,60.0,4.0,0.0
10692,54.0,30.0,60.0,3.0,0.0
10693,75.0,0.0,30.0,5.0,0.0
10694,54.0,0.0,30.0,8.0,0.0
10695,52.0,1.0,30.0,8.0,0.0
10696,76.0,0.0,30.0,5.0,0.0
10697,42.0,0.0,60.0,6.0,0.0
10698,42.0,0.0,60.0,3.0,0.0
10699,61.0,0.0,60.0,2.0,0.0
10700,71.0,29.0,30.0,0.0,0.0
10701,30.0,0.0,60.0,4.0,0.0
10702,66.0,0.0,30.0,1.0,0.0
10703,64.0,0.0,30.0,1.0,0.0
10704,54.0,1.0,30.0,8.0,0.0
10705,70.0,29.0,30.0,0.0,0.0
10706,73.0,0.0,30.0,5.0,0.0
10707,35.0,0.0,60.0,4.0,0.0
10708,63.0,29.0,60.0,1.0,0.0
10709,59.0,0.0,60.0,2.0,0.0
10710,47.0,0.0,60.0,8.0,0.0
10711,75.0,30.0,30.0,5.0,0.0
10712,47.0,1.0,60.0,3.0,0.0
10713,47.0,0.0,60.0,6.0,0.0
10714,71.0,0.0,60.0,0.0,0.0
10715,66.0,0.0,30.0,5.0,0.0
10716,35.0,0.0,30.0,6.0,0.0
10717,35.0,0.0,30.0,3.0,0.0
10718,23.0,0.0,30.0,4.0,0.0
10719,68.0,0.0,30.0,5.0,0.0
10720,35.0,30.0,30.0,8.0,0.0
10721,71.0,0.0,30.0,7.0,0.0
10722,70.0,30.0,30.0,7.0,0.0
10723,37.0,0.0,30.0,8.0,0.0
10724,37.0,0.0,30.0,6.0,0.0
10725,37.0,0.0,30.0,3.0,0.0
10726,64.0,0.0,30.0,5.0,0.0
10727,25.0,0.0,30.0,4.0,0.0
10728,66.0,30.0,30.0,5.0,0.0
10729,39.0,30.0,60.0,6.0,0.0
10730,71.0,0.0,30.0,7.0,0.0
10731,39.0,0.0,60.0,3.0,0.0
10732,39.0,0.0,60.0,8.0,0.0
10733,27.0,0.0,60.0,4.0,0.0
10734,63.0,0.0,30.0,5.0,0.0
10735,66.0,0.0,30.0,7.0,0.0
10736,68.0,29.0,30.0,1.0,0.0
10737,68.0,0.0,30.0,7.0,0.0
10738,71.0,0.0,30.0,0.0,0.0
10739,64.0,0.0,30.0,2.0,0.0
10740,64.0,1.0,30.0,5.0,0.0
10741,64.0,0.0,30.0,1.0,0.0
10742,70.0,0.0,30.0,0.0,0.0
10743,61.0,29.0,30.0,2.0,0.0
10744,64.0,0.0,30.0,7.0,0.0
10745,61.0,1.0,30.0,5.0,0.0
10746,71.0,0.0,60.0,0.0,0.0
10747,63.0,30.0,30.0,5.0,0.0
10748,68.0,0.0,60.0,1.0,0.0
10749,63.0,29.0,60.0,2.0,0.0
10750,66.0,0.0,30.0,7.0,0.0
10751,59.0,0.0,30.0,5.0,0.0
10752,63.0,1.0,30.0,7.0,0.0
10753,64.0,30.0,30.0,7.0,0.0
10754,42.0,0.0,60.0,6.0,0.0
10755,61.0,0.0,30.0,5.0,0.0
10756,42.0,0.0,60.0,3.0,0.0
10757,42.0,0.0,60.0,8.0,0.0
10758,30.0,0.0,60.0,4.0,0.0
10759,58.0,30.0,30.0,5.0,0.0
10760,61.0,0.0,30.0,7.0,0.0
10761,59.0,0.0,60.0,5.0,0.0
10762,35.0,0.0,60.0,3.0,0.0
10763,23.0,30.0,60.0,4.0,0.0
10764,63.0,30.0,30.0,7.0,0.0
10765,35.0,0.0,60.0,8.0,0.0
10766,35.0,0.0,60.0,6.0,0.0
10767,59.0,0.0,30.0,7.0,0.0
10768,61.0,1.0,30.0,7.0,0.0
10769,68.0,0.0,30.0,0.0,0.0
10770,64.0,0.0,30.0,1.0,0.0
10771,61.0,29.0,30.0,2.0,0.0
10772,68.0,0.0,60.0,5.0,0.0
10773,61.0,0.0,30.0,1.0,0.0
10774,66.0,0.0,30.0,0.0,0.0
10775,58.0,29.0,30.0,2.0,0.0
10776,58.0,1.0,30.0,7.0,0.0
10777,59.0,30.0,30.0,7.0,0.0
10778,63.0,29.0,60.0,1.0,0.0
10779,68.0,0.0,60.0,0.0,0.0
10780,68.0,1.0,60.0,5.0,0.0
10781,59.0,0.0,60.0,2.0,0.0
10782,63.0,0.0,30.0,7.0,0.0
10783,66.0,30.0,90.0,5.0,0.0
10784,61.0,30.0,30.0,7.0,0.0
10785,46.0,0.0,60.0,8.0,0.0
10786,34.0,0.0,60.0,4.0,0.0
10787,46.0,30.0,60.0,6.0,0.0
10788,46.0,0.0,60.0,3.0,0.0
10789,64.0,0.0,30.0,7.0,0.0
10790,35.0,0.0,60.0,4.0,0.0
10791,47.0,16.0,60.0,8.0,0.0
10792,47.0,0.0,60.0,6.0,0.0
10793,47.0,0.0,60.0,3.0,0.0
10794,63.0,0.0,60.0,7.0,0.0
10795,68.0,0.0,30.0,5.0,0.0
10796,49.0,0.0,60.0,3.0,0.0
10797,61.0,29.0,30.0,2.0,0.0
10798,49.0,0.0,60.0,6.0,0.0
10799,70.0,0.0,30.0,0.0,0.0
10800,49.0,1.0,60.0,8.0,0.0
10801,70.0,1.0,30.0,5.0,0.0
10802,64.0,0.0,30.0,1.0,0.0
10803,37.0,0.0,60.0,4.0,0.0
10804,64.0,14.0,15.0,7.0,0.0
10805,66.0,0.0,15.0,7.0,0.0
10806,61.0,0.0,30.0,1.0,0.0
10807,66.0,0.0,30.0,0.0,0.0
10808,66.0,0.0,30.0,5.0,0.0
10809,58.0,0.0,30.0,2.0,0.0
10810,64.0,29.0,30.0,7.0,0.0
10811,66.0,29.0,60.0,1.0,0.0
10812,54.0,0.0,60.0,2.0,0.0
10813,71.0,30.0,30.0,5.0,0.0
10814,71.0,0.0,60.0,0.0,0.0
10815,51.0,0.0,60.0,6.0,0.0
10816,51.0,1.0,60.0,3.0,0.0
10817,66.0,0.0,60.0,7.0,0.0
10818,51.0,0.0,60.0,8.0,0.0
10819,39.0,0.0,60.0,4.0,0.0
10820,70.0,0.0,30.0,5.0,0.0
10821,51.0,29.0,30.0,3.0,0.0
10822,51.0,0.0,30.0,8.0,0.0
10823,71.0,30.0,90.0,5.0,0.0
10824,68.0,1.0,30.0,7.0,0.0
10825,51.0,0.0,30.0,6.0,0.0
10826,37.0,0.0,60.0,4.0,0.0
10827,49.0,0.0,30.0,8.0,0.0
10828,49.0,29.0,30.0,6.0,0.0
10829,49.0,0.0,30.0,3.0,0.0
10830,70.0,1.0,30.0,7.0,0.0
10831,71.0,0.0,30.0,7.0,0.0
10832,51.0,0.0,60.0,3.0,0.0
10833,51.0,0.0,60.0,8.0,0.0
10834,51.0,0.0,60.0,6.0,0.0
10835,39.0,0.0,60.0,4.0,0.0
10836,73.0,0.0,30.0,5.0,0.0
10837,70.0,30.0,30.0,7.0,0.0
10838,71.0,0.0,30.0,1.0,0.0
10839,47.0,0.0,60.0,8.0,0.0
10840,71.0,0.0,30.0,7.0,0.0
10841,47.0,1.0,60.0,3.0,0.0
10842,75.0,29.0,30.0,0.0,0.0
10843,75.0,1.0,30.0,5.0,0.0
10844,66.0,0.0,30.0,2.0,0.0
10845,47.0,0.0,60.0,6.0,0.0
10846,35.0,0.0,60.0,4.0,0.0
10847,70.0,0.0,30.0,7.0,0.0
10848,73.0,0.0,30.0,5.0,0.0
10849,68.0,29.0,30.0,2.0,0.0
10850,70.0,0.0,30.0,1.0,0.0
10851,73.0,0.0,30.0,0.0,0.0
10852,71.0,0.0,60.0,1.0,0.0
10853,76.0,30.0,30.0,5.0,0.0
10854,76.0,0.0,60.0,0.0,0.0
10855,56.0,1.0,60.0,6.0,0.0
10856,64.0,29.0,60.0,2.0,0.0
10857,56.0,0.0,60.0,3.0,0.0
10858,71.0,0.0,60.0,7.0,0.0
10859,32.0,0.0,60.0,4.0,0.0
10860,56.0,0.0,60.0,8.0,0.0
10861,75.0,0.0,30.0,5.0,0.0
10862,44.0,0.0,60.0,8.0,0.0
10863,73.0,30.0,30.0,5.0,0.0
10864,32.0,16.0,60.0,4.0,0.0
10865,44.0,0.0,60.0,6.0,0.0
10866,44.0,0.0,60.0,3.0,0.0
10867,71.0,0.0,60.0,7.0,0.0
10868,71.0,0.0,30.0,5.0,0.0
10869,77.0,1.0,30.0,5.0,0.0
10870,71.0,14.0,15.0,7.0,0.0
10871,73.0,29.0,15.0,7.0,0.0
10872,71.0,31.0,30.0,7.0,0.0
10873,78.0,0.0,30.0,5.0,0.0
10874,42.0,0.0,60.0,3.0,0.0
10875,78.0,0.0,30.0,0.0,0.0
10876,30.0,0.0,60.0,4.0,0.0
10877,71.0,0.0,60.0,7.0,0.0
10878,73.0,29.0,30.0,1.0,0.0
10879,66.0,1.0,60.0,5.0,0.0
10880,42.0,0.0,60.0,6.0,0.0
10881,42.0,0.0,60.0,8.0,0.0
10882,70.0,0.0,30.0,2.0,0.0
10883,77.0,30.0,30.0,0.0,0.0
10884,68.0,0.0,30.0,2.0,0.0
10885,71.0,0.0,30.0,1.0,0.0
10886,34.0,0.0,60.0,4.0,0.0
10887,73.0,29.0,30.0,1.0,0.0
10888,78.0,0.0,30.0,0.0,0.0
10889,46.0,1.0,60.0,3.0,0.0
10890,70.0,0.0,30.0,2.0,0.0
10891,46.0,0.0,60.0,6.0,0.0
10892,46.0,0.0,60.0,8.0,0.0
10893,70.0,0.0,30.0,1.0,0.0
10894,73.0,0.0,30.0,0.0,0.0
10895,66.0,30.0,30.0,2.0,0.0
10896,49.0,0.0,60.0,3.0,0.0
10897,70.0,29.0,30.0,0.0,0.0
10898,49.0,0.0,60.0,8.0,0.0
10899,49.0,0.0,60.0,6.0,0.0
10900,66.0,0.0,30.0,1.0,0.0
10901,37.0,1.0,60.0,4.0,0.0
10902,61.0,0.0,30.0,2.0,0.0
10903,66.0,0.0,30.0,2.0,0.0
10904,70.0,0.0,30.0,1.0,0.0
10905,73.0,29.0,30.0,0.0,0.0
10906,54.0,0.0,30.0,6.0,0.0
10907,42.0,0.0,30.0,4.0,0.0
10908,58.0,0.0,60.0,2.0,0.0
10909,61.0,0.0,60.0,1.0,0.0
10910,54.0,30.0,30.0,8.0,0.0
10911,66.0,29.0,60.0,0.0,0.0
10912,54.0,0.0,30.0,3.0,0.0
10913,42.0,0.0,30.0,6.0,0.0
10914,30.0,0.0,30.0,4.0,0.0
10915,42.0,1.0,30.0,3.0,0.0
10916,42.0,0.0,30.0,8.0,0.0
10917,40.0,0.0,30.0,6.0,0.0
10918,40.0,30.0,30.0,3.0,0.0
10919,40.0,0.0,30.0,8.0,0.0
10920,28.0,0.0,30.0,4.0,0.0
10921,42.0,0.0,30.0,6.0,0.0
10922,30.0,0.0,30.0,4.0,0.0
10923,42.0,60.0,30.0,3.0,0.0
10924,42.0,0.0,30.0,8.0,0.0
10925,70.0,31.0,60.0,5.0,0.0
10926,79.0,0.0,60.0,5.0,0.0
10927,39.0,0.0,60.0,6.0,0.0
10928,39.0,0.0,60.0,8.0,0.0
10929,27.0,0.0,60.0,4.0,0.0
10930,73.0,0.0,60.0,7.0,0.0
10931,63.0,0.0,60.0,7.0,0.0
10932,39.0,0.0,60.0,3.0,0.0
10933,63.0,0.0,60.0,7.0,0.0
10934,73.0,0.0,60.0,7.0,0.0
10935,70.0,1.0,60.0,5.0,0.0
10936,51.0,0.0,60.0,6.0,0.0
10937,63.0,0.0,30.0,2.0,0.0
10938,63.0,0.0,30.0,0.0,0.0
10939,79.0,0.0,60.0,5.0,0.0
10940,63.0,29.0,30.0,1.0,0.0
10941,61.0,30.0,30.0,1.0,0.0
10942,61.0,0.0,30.0,0.0,0.0
10943,61.0,0.0,30.0,2.0,0.0
10944,70.0,0.0,60.0,5.0,0.0
10945,79.0,0.0,60.0,5.0,0.0
10946,51.0,0.0,60.0,8.0,0.0
10947,63.0,0.0,30.0,1.0,0.0
10948,73.0,0.0,60.0,7.0,0.0
10949,63.0,0.0,30.0,0.0,0.0
10950,63.0,0.0,60.0,7.0,0.0
10951,63.0,29.0,30.0,2.0,0.0
10952,55.0,1.0,60.0,6.0,0.0
10953,58.0,0.0,30.0,1.0,0.0
10954,58.0,0.0,30.0,2.0,0.0
10955,58.0,30.0,30.0,0.0,0.0
10956,55.0,0.0,60.0,8.0,0.0
10957,70.0,1.0,60.0,5.0,0.0
10958,55.0,29.0,30.0,0.0,0.0
10959,55.0,0.0,30.0,2.0,0.0
10960,58.0,0.0,60.0,6.0,0.0
10961,63.0,0.0,60.0,7.0,0.0
10962,73.0,0.0,60.0,7.0,0.0
10963,79.0,0.0,60.0,5.0,0.0
10964,55.0,0.0,30.0,1.0,0.0
10965,58.0,0.0,30.0,1.0,0.0
10966,58.0,29.0,30.0,0.0,0.0
10967,58.0,0.0,30.0,2.0,0.0
10968,51.0,0.0,60.0,1.0,0.0
10969,73.0,1.0,60.0,7.0,0.0
10970,79.0,0.0,60.0,5.0,0.0
10971,63.0,0.0,60.0,7.0,0.0
10972,51.0,29.0,60.0,2.0,0.0
10973,55.0,30.0,30.0,6.0,0.0
10974,51.0,0.0,60.0,0.0,0.0
10975,58.0,0.0,60.0,8.0,0.0
10976,70.0,0.0,60.0,5.0,0.0
10977,51.0,0.0,30.0,3.0,0.0
10978,51.0,0.0,30.0,6.0,0.0
10979,39.0,0.0,30.0,4.0,0.0
10980,63.0,0.0,60.0,7.0,0.0
10981,73.0,0.0,60.0,7.0,0.0
10982,55.0,59.0,60.0,8.0,0.0
10983,79.0,0.0,60.0,5.0,0.0
10984,37.0,30.0,30.0,4.0,0.0
10985,49.0,0.0,30.0,3.0,0.0
10986,70.0,0.0,60.0,5.0,0.0
10987,49.0,0.0,30.0,6.0,0.0
10988,51.0,0.0,30.0,3.0,0.0
10989,39.0,1.0,30.0,4.0,0.0
10990,51.0,0.0,30.0,6.0,0.0
10991,32.0,0.0,60.0,4.0,0.0
10992,71.0,0.0,60.0,7.0,0.0
10993,44.0,0.0,60.0,3.0,0.0
10994,56.0,0.0,60.0,8.0,0.0
10995,80.0,1.0,60.0,5.0,0.0
10996,68.0,0.0,60.0,5.0,0.0
10997,44.0,30.0,60.0,6.0,0.0
10998,63.0,0.0,60.0,7.0,0.0
10999,80.0,1.0,60.0,5.0,0.0
11000,63.0,0.0,60.0,7.0,0.0
11001,68.0,0.0,60.0,5.0,0.0
11002,68.0,0.0,30.0,1.0,0.0
11003,68.0,29.0,30.0,0.0,0.0
11004,44.0,0.0,60.0,8.0,0.0
11005,71.0,0.0,60.0,7.0,0.0
11006,67.0,30.0,30.0,0.0,0.0
11007,67.0,0.0,30.0,1.0,0.0
11008,68.0,29.0,30.0,1.0,0.0
11009,56.0,30.0,60.0,6.0,0.0
11010,47.0,0.0,60.0,8.0,0.0
11011,80.0,1.0,60.0,5.0,0.0
11012,68.0,0.0,30.0,0.0,0.0
11013,63.0,0.0,60.0,7.0,0.0
11014,71.0,0.0,60.0,7.0,0.0
11015,68.0,0.0,60.0,5.0,0.0
11016,63.0,0.0,30.0,0.0,0.0
11017,63.0,0.0,30.0,1.0,0.0
11018,59.0,0.0,30.0,1.0,0.0
11019,61.0,29.0,30.0,0.0,0.0
11020,51.0,0.0,60.0,8.0,0.0
11021,80.0,0.0,60.0,5.0,0.0
11022,68.0,0.0,60.0,5.0,0.0
11023,63.0,0.0,60.0,7.0,0.0
11024,71.0,1.0,60.0,7.0,0.0
11025,59.0,0.0,60.0,6.0,0.0
11026,63.0,29.0,30.0,1.0,0.0
11027,63.0,0.0,30.0,0.0,0.0
11028,68.0,0.0,60.0,5.0,0.0
11029,80.0,1.0,60.0,5.0,0.0
11030,56.0,0.0,60.0,0.0,0.0
11031,63.0,29.0,60.0,6.0,0.0
11032,56.0,30.0,30.0,8.0,0.0
11033,71.0,0.0,60.0,7.0,0.0
11034,63.0,0.0,60.0,7.0,0.0
11035,56.0,0.0,60.0,1.0,0.0
11036,32.0,0.0,30.0,4.0,0.0
11037,44.0,0.0,30.0,3.0,0.0
11038,44.0,0.0,30.0,8.0,0.0
11039,46.0,0.0,30.0,8.0,0.0
11040,34.0,0.0,30.0,4.0,0.0
11041,68.0,0.0,60.0,5.0,0.0
11042,80.0,0.0,60.0,5.0,0.0
11043,71.0,0.0,60.0,7.0,0.0
11044,63.0,1.0,60.0,7.0,0.0
11045,59.0,59.0,60.0,6.0,0.0
11046,46.0,30.0,30.0,3.0,0.0
11047,35.0,0.0,30.0,4.0,0.0
11048,47.0,0.0,30.0,8.0,0.0
11049,47.0,0.0,30.0,3.0,0.0
11050,58.0,0.0,60.0,6.0,0.0
11051,34.0,0.0,60.0,4.0,0.0
11052,70.0,0.0,60.0,5.0,0.0
11053,80.0,0.0,60.0,5.0,0.0
11054,65.0,31.0,60.0,7.0,0.0
11055,62.0,0.0,60.0,7.0,0.0
11056,46.0,0.0,60.0,3.0,0.0
11057,46.0,0.0,60.0,8.0,0.0
11058,70.0,0.0,60.0,5.0,0.0
11059,62.0,0.0,60.0,7.0,0.0
11060,65.0,0.0,60.0,7.0,0.0
11061,46.0,1.0,60.0,6.0,0.0
11062,80.0,0.0,60.0,5.0,0.0
11063,70.0,0.0,30.0,0.0,0.0
11064,70.0,29.0,30.0,1.0,0.0
11065,68.0,30.0,30.0,0.0,0.0
11066,68.0,0.0,30.0,1.0,0.0
11067,50.0,0.0,60.0,6.0,0.0
11068,70.0,0.0,30.0,1.0,0.0
11069,46.0,0.0,60.0,8.0,0.0
11070,70.0,0.0,60.0,5.0,0.0
11071,70.0,29.0,30.0,0.0,0.0
11072,74.0,0.0,60.0,7.0,0.0
11073,65.0,1.0,60.0,7.0,0.0
11074,80.0,0.0,60.0,5.0,0.0
11075,65.0,30.0,30.0,1.0,0.0
11076,65.0,0.0,30.0,0.0,0.0
11077,74.0,0.0,60.0,7.0,0.0
11078,53.0,0.0,60.0,6.0,0.0
11079,62.0,0.0,30.0,0.0,0.0
11080,62.0,29.0,30.0,1.0,0.0
11081,65.0,0.0,60.0,7.0,0.0
11082,70.0,0.0,60.0,5.0,0.0
11083,80.0,0.0,60.0,5.0,0.0
11084,50.0,1.0,60.0,8.0,0.0
11085,65.0,0.0,30.0,1.0,0.0
11086,65.0,29.0,30.0,0.0,0.0
11087,53.0,0.0,60.0,8.0,0.0
11088,74.0,0.0,60.0,7.0,0.0
11089,65.0,0.0,60.0,7.0,0.0
11090,80.0,1.0,60.0,5.0,0.0
11091,58.0,29.0,60.0,1.0,0.0
11092,70.0,0.0,60.0,5.0,0.0
11093,58.0,0.0,60.0,0.0,0.0
11094,50.0,30.0,30.0,6.0,0.0
11095,46.0,0.0,30.0,6.0,0.0
11096,46.0,0.0,30.0,3.0,0.0
11097,34.0,0.0,30.0,4.0,0.0
11098,80.0,0.0,60.0,5.0,0.0
11099,65.0,0.0,60.0,7.0,0.0
11100,44.0,0.0,30.0,3.0,0.0
11101,70.0,60.0,60.0,5.0,0.0
11102,58.0,0.0,60.0,8.0,0.0
11103,74.0,0.0,60.0,7.0,0.0
11104,44.0,30.0,30.0,6.0,0.0
11105,32.0,0.0,30.0,4.0,0.0
11106,34.0,0.0,30.0,4.0,0.0
11107,46.0,0.0,30.0,3.0,0.0
11108,46.0,0.0,30.0,6.0,0.0
11109,78.0,0.0,60.0,5.0,0.0
11110,70.0,0.0,60.0,5.0,0.0
11111,27.0,0.0,60.0,4.0,0.0
11112,51.0,0.0,60.0,8.0,0.0
11113,75.0,31.0,60.0,7.0,0.0
11114,39.0,0.0,60.0,3.0,0.0
11115,63.0,0.0,60.0,7.0,0.0
11116,39.0,0.0,60.0,6.0,0.0
11117,63.0,0.0,60.0,7.0,0.0
11118,75.0,0.0,60.0,7.0,0.0
11119,63.0,29.0,30.0,1.0,0.0
11120,63.0,0.0,30.0,2.0,0.0
11121,63.0,0.0,30.0,0.0,0.0
11122,70.0,1.0,60.0,5.0,0.0
11123,78.0,0.0,60.0,5.0,0.0
11124,39.0,0.0,60.0,8.0,0.0
11125,62.0,0.0,30.0,0.0,0.0
11126,62.0,30.0,30.0,2.0,0.0
11127,62.0,0.0,30.0,1.0,0.0
11128,63.0,0.0,30.0,0.0,0.0
11129,51.0,0.0,60.0,6.0,0.0
11130,42.0,0.0,60.0,8.0,0.0
11131,63.0,0.0,30.0,1.0,0.0
11132,63.0,0.0,60.0,7.0,0.0
11133,70.0,0.0,60.0,5.0,0.0
11134,78.0,1.0,60.0,5.0,0.0
11135,63.0,29.0,30.0,2.0,0.0
11136,75.0,0.0,60.0,7.0,0.0
11137,58.0,0.0,30.0,2.0,0.0
11138,58.0,30.0,30.0,1.0,0.0
11139,58.0,0.0,30.0,0.0,0.0
11140,75.0,0.0,60.0,7.0,0.0
11141,54.0,0.0,30.0,2.0,0.0
11142,54.0,29.0,30.0,1.0,0.0
11143,54.0,0.0,60.0,6.0,0.0
11144,46.0,0.0,60.0,8.0,0.0
11145,78.0,0.0,60.0,5.0,0.0
11146,70.0,0.0,60.0,5.0,0.0
11147,63.0,1.0,60.0,7.0,0.0
11148,54.0,0.0,30.0,0.0,0.0
11149,58.0,0.0,30.0,1.0,0.0
11150,58.0,0.0,30.0,0.0,0.0
11151,58.0,29.0,30.0,2.0,0.0
11152,51.0,29.0,60.0,0.0,0.0
11153,42.0,30.0,30.0,8.0,0.0
11154,78.0,0.0,60.0,5.0,0.0
11155,70.0,0.0,60.0,5.0,0.0
11156,75.0,0.0,60.0,7.0,0.0
11157,63.0,0.0,60.0,7.0,0.0
11158,51.0,0.0,60.0,2.0,0.0
11159,58.0,0.0,60.0,6.0,0.0
11160,51.0,0.0,60.0,1.0,0.0
11161,39.0,0.0,30.0,8.0,0.0
11162,39.0,1.0,30.0,3.0,0.0
11163,27.0,0.0,30.0,4.0,0.0
11164,26.0,0.0,30.0,4.0,0.0
11165,54.0,30.0,60.0,6.0,0.0
11166,78.0,0.0,60.0,5.0,0.0
11167,70.0,1.0,60.0,5.0,0.0
11168,38.0,30.0,30.0,8.0,0.0
11169,75.0,0.0,60.0,7.0,0.0
11170,38.0,0.0,30.0,3.0,0.0
11171,63.0,0.0,60.0,7.0,0.0
11172,27.0,0.0,30.0,4.0,0.0
11173,39.0,0.0,30.0,8.0,0.0
11174,39.0,0.0,30.0,3.0,0.0
11175,32.0,0.0,120.0,8.0,0.0
11176,32.0,0.0,120.0,3.0,0.0
11177,71.0,0.0,60.0,7.0,0.0
11178,63.0,0.0,60.0,7.0,0.0
11179,56.0,29.0,30.0,6.0,0.0
11180,78.0,1.0,60.0,5.0,0.0
11181,20.0,0.0,120.0,4.0,0.0
11182,68.0,0.0,60.0,5.0,0.0
11183,56.0,30.0,30.0,0.0,0.0
11184,59.0,0.0,30.0,6.0,0.0
11185,68.0,0.0,60.0,5.0,0.0
11186,78.0,0.0,60.0,5.0,0.0
11187,58.0,0.0,30.0,6.0,0.0
11188,71.0,1.0,60.0,7.0,0.0
11189,61.0,29.0,30.0,0.0,0.0
11190,63.0,0.0,60.0,7.0,0.0
11191,59.0,30.0,30.0,6.0,0.0
11192,59.0,0.0,30.0,0.0,0.0
11193,61.0,29.0,30.0,0.0,0.0
11194,49.0,1.0,60.0,6.0,0.0
11195,68.0,0.0,60.0,5.0,0.0
11196,71.0,0.0,60.0,7.0,0.0
11197,61.0,0.0,60.0,7.0,0.0
11198,77.0,0.0,60.0,5.0,0.0
11199,56.0,30.0,30.0,0.0,0.0
11200,56.0,0.0,30.0,1.0,0.0
11201,56.0,0.0,30.0,8.0,0.0
11202,44.0,1.0,60.0,3.0,0.0
11203,61.0,29.0,30.0,1.0,0.0
11204,32.0,0.0,60.0,4.0,0.0
11205,71.0,0.0,60.0,7.0,0.0
11206,61.0,0.0,60.0,7.0,0.0
11207,54.0,0.0,30.0,8.0,0.0
11208,68.0,0.0,60.0,5.0,0.0
11209,77.0,0.0,60.0,5.0,0.0
11210,65.0,0.0,30.0,0.0,0.0
11211,63.0,0.0,30.0,0.0,0.0
11212,56.0,0.0,30.0,8.0,0.0
11213,59.0,30.0,30.0,1.0,0.0
11214,77.0,0.0,60.0,5.0,0.0
11215,71.0,1.0,60.0,7.0,0.0
11216,68.0,0.0,60.0,5.0,0.0
11217,61.0,0.0,60.0,7.0,0.0
11218,41.0,0.0,60.0,3.0,0.0
11219,49.0,0.0,60.0,8.0,0.0
11220,65.0,0.0,30.0,0.0,0.0
11221,29.0,0.0,60.0,4.0,0.0
11222,61.0,29.0,30.0,1.0,0.0
11223,56.0,30.0,30.0,1.0,0.0
11224,61.0,0.0,30.0,0.0,0.0
11225,53.0,0.0,30.0,2.0,0.0
11226,37.0,1.0,60.0,3.0,0.0
11227,61.0,0.0,30.0,1.0,0.0
11228,56.0,0.0,30.0,2.0,0.0
11229,61.0,0.0,60.0,6.0,0.0
11230,37.0,29.0,60.0,8.0,0.0
11231,25.0,0.0,60.0,4.0,0.0
11232,65.0,29.0,30.0,0.0,0.0
11233,61.0,0.0,60.0,7.0,0.0
11234,71.0,0.0,60.0,7.0,0.0
11235,68.0,0.0,60.0,5.0,0.0
11236,77.0,0.0,60.0,5.0,0.0
11237,65.0,0.0,30.0,1.0,0.0
11238,68.0,0.0,30.0,0.0,0.0
11239,66.0,0.0,60.0,5.0,0.0
11240,54.0,29.0,30.0,6.0,0.0
11241,61.0,0.0,15.0,2.0,0.0
11242,30.0,0.0,120.0,4.0,0.0
11243,61.0,0.0,60.0,7.0,0.0
11244,70.0,1.0,60.0,7.0,0.0
11245,70.0,1.0,30.0,0.0,0.0
11246,66.0,29.0,60.0,1.0,0.0
11247,42.0,0.0,120.0,3.0,0.0
11248,77.0,0.0,60.0,5.0,0.0
11249,42.0,0.0,120.0,8.0,0.0
11250,58.0,0.0,30.0,6.0,0.0
11251,54.0,0.0,30.0,0.0,0.0
11252,77.0,0.0,60.0,5.0,0.0
11253,66.0,0.0,60.0,5.0,0.0
11254,70.0,1.0,60.0,7.0,0.0
11255,61.0,0.0,60.0,7.0,0.0
11256,59.0,1.0,30.0,0.0,0.0
11257,56.0,29.0,30.0,6.0,0.0
11258,58.0,0.0,30.0,0.0,0.0
11259,58.0,29.0,30.0,6.0,0.0
11260,70.0,0.0,60.0,7.0,0.0
11261,59.0,0.0,60.0,7.0,0.0
11262,75.0,0.0,60.0,5.0,0.0
11263,47.0,0.0,60.0,6.0,0.0
11264,66.0,0.0,60.0,5.0,0.0
11265,59.0,30.0,30.0,0.0,0.0
11266,54.0,29.0,30.0,8.0,0.0
11267,54.0,1.0,30.0,0.0,0.0
11268,54.0,0.0,30.0,1.0,0.0
11269,70.0,0.0,60.0,7.0,0.0
11270,59.0,0.0,60.0,7.0,0.0
11271,63.0,0.0,30.0,0.0,0.0
11272,66.0,0.0,60.0,5.0,0.0
11273,75.0,0.0,60.0,5.0,0.0
11274,53.0,29.0,30.0,8.0,0.0
11275,59.0,1.0,30.0,1.0,0.0
11276,30.0,0.0,60.0,4.0,0.0
11277,42.0,0.0,60.0,3.0,0.0
11278,61.0,0.0,30.0,0.0,0.0
11279,58.0,1.0,30.0,1.0,0.0
11280,54.0,29.0,30.0,8.0,0.0
11281,59.0,1.0,60.0,7.0,0.0
11282,70.0,0.0,60.0,7.0,0.0
11283,63.0,30.0,30.0,0.0,0.0
11284,39.0,0.0,60.0,3.0,0.0
11285,66.0,0.0,60.0,5.0,0.0
11286,47.0,29.0,60.0,8.0,0.0
11287,59.0,0.0,30.0,1.0,0.0
11288,27.0,0.0,60.0,4.0,0.0
11289,75.0,0.0,60.0,5.0,0.0
11290,59.0,0.0,30.0,0.0,0.0
11291,54.0,0.0,30.0,1.0,0.0
11292,51.0,0.0,30.0,2.0,0.0
11293,59.0,0.0,60.0,6.0,0.0
11294,75.0,0.0,60.0,5.0,0.0
11295,23.0,0.0,60.0,4.0,0.0
11296,54.0,0.0,30.0,2.0,0.0
11297,59.0,30.0,30.0,1.0,0.0
11298,35.0,29.0,60.0,8.0,0.0
11299,63.0,0.0,30.0,0.0,0.0
11300,70.0,0.0,60.0,7.0,0.0
11301,59.0,0.0,60.0,7.0,0.0
11302,66.0,0.0,60.0,5.0,0.0
11303,35.0,0.0,60.0,3.0,0.0
11304,63.0,0.0,30.0,1.0,0.0
11305,66.0,0.0,30.0,0.0,0.0
11306,59.0,1.0,30.0,2.0,0.0
11307,65.0,0.0,60.0,1.0,0.0
11308,68.0,0.0,60.0,7.0,0.0
11309,59.0,29.0,60.0,2.0,0.0
11310,29.0,0.0,120.0,4.0,0.0
11311,68.0,1.0,30.0,0.0,0.0
11312,59.0,0.0,60.0,7.0,0.0
11313,53.0,29.0,30.0,6.0,0.0
11314,75.0,0.0,60.0,5.0,0.0
11315,41.0,0.0,120.0,3.0,0.0
11316,65.0,0.0,60.0,5.0,0.0
11317,41.0,0.0,120.0,8.0,0.0
11318,53.0,1.0,30.0,0.0,0.0
11319,56.0,0.0,30.0,6.0,0.0
11320,68.0,0.0,60.0,7.0,0.0
11321,59.0,0.0,60.0,7.0,0.0
11322,75.0,0.0,60.0,5.0,0.0
11323,65.0,1.0,60.0,5.0,0.0
11324,54.0,29.0,30.0,6.0,0.0
11325,58.0,1.0,30.0,0.0,0.0
11326,56.0,29.0,30.0,6.0,0.0
11327,56.0,0.0,30.0,0.0,0.0
11328,46.0,0.0,60.0,6.0,0.0
11329,74.0,0.0,60.0,5.0,0.0
11330,58.0,30.0,30.0,0.0,0.0
11331,65.0,0.0,60.0,5.0,0.0
11332,58.0,0.0,60.0,7.0,0.0
11333,68.0,0.0,60.0,7.0,0.0
11334,53.0,0.0,30.0,1.0,0.0
11335,53.0,29.0,30.0,8.0,0.0
11336,53.0,1.0,30.0,0.0,0.0
11337,41.0,0.0,60.0,3.0,0.0
11338,62.0,0.0,30.0,0.0,0.0
11339,58.0,0.0,60.0,7.0,0.0
11340,68.0,0.0,60.0,7.0,0.0
11341,51.0,29.0,30.0,8.0,0.0
11342,74.0,1.0,60.0,5.0,0.0
11343,65.0,0.0,60.0,5.0,0.0
11344,29.0,0.0,60.0,4.0,0.0
11345,58.0,1.0,30.0,1.0,0.0
11346,53.0,29.0,30.0,8.0,0.0
11347,60.0,0.0,30.0,0.0,0.0
11348,56.0,0.0,30.0,1.0,0.0
11349,65.0,0.0,60.0,5.0,0.0
11350,46.0,0.0,60.0,3.0,0.0
11351,58.0,0.0,60.0,7.0,0.0
11352,68.0,1.0,60.0,7.0,0.0
11353,46.0,29.0,60.0,8.0,0.0
11354,74.0,0.0,60.0,5.0,0.0
11355,34.0,0.0,60.0,4.0,0.0
11356,62.0,0.0,30.0,0.0,0.0
11357,58.0,30.0,30.0,1.0,0.0
11358,50.0,0.0,30.0,2.0,0.0
11359,53.0,0.0,30.0,1.0,0.0
11360,58.0,0.0,30.0,0.0,0.0
11361,34.0,0.0,60.0,3.0,0.0
11362,65.0,0.0,60.0,5.0,0.0
11363,34.0,59.0,60.0,8.0,0.0
11364,74.0,0.0,60.0,5.0,0.0
11365,68.0,1.0,60.0,7.0,0.0
11366,58.0,0.0,60.0,7.0,0.0
11367,53.0,0.0,30.0,2.0,0.0
11368,58.0,0.0,60.0,6.0,0.0
11369,22.0,0.0,60.0,4.0,0.0
11370,62.0,30.0,30.0,0.0,0.0
11371,58.0,0.0,30.0,1.0,0.0
11372,58.0,0.0,30.0,2.0,0.0
11373,62.0,0.0,30.0,1.0,0.0
11374,65.0,0.0,30.0,0.0,0.0
11375,27.0,60.0,120.0,4.0,0.0
11376,58.0,0.0,60.0,2.0,0.0
11377,39.0,0.0,60.0,8.0,0.0
11378,63.0,29.0,60.0,1.0,0.0
11379,66.0,1.0,60.0,0.0,0.0
11380,63.0,0.0,60.0,5.0,0.0
11381,75.0,0.0,60.0,5.0,0.0
11382,39.0,0.0,120.0,3.0,0.0
11383,51.0,0.0,60.0,6.0,0.0
11384,58.0,0.0,60.0,7.0,0.0
11385,66.0,0.0,60.0,7.0,0.0
11386,70.0,30.0,30.0,5.0,0.0
11387,68.0,0.0,30.0,5.0,0.0
11388,70.0,60.0,60.0,5.0,0.0
11389,78.0,0.0,60.0,5.0,0.0
11390,51.0,0.0,60.0,3.0,0.0
11391,39.0,0.0,60.0,4.0,0.0
11392,51.0,60.0,60.0,6.0,0.0
11393,74.0,0.0,60.0,5.0,0.0
11394,53.0,0.0,60.0,3.0,0.0
11395,41.0,60.0,60.0,4.0,0.0
11396,53.0,0.0,60.0,6.0,0.0
11397,54.0,0.0,60.0,6.0,0.0
11398,75.0,0.0,60.0,5.0,0.0
11399,42.0,0.0,60.0,4.0,0.0
11400,54.0,30.0,60.0,3.0,0.0
11401,56.0,0.0,30.0,3.0,0.0
11402,44.0,0.0,30.0,4.0,0.0
11403,56.0,30.0,30.0,6.0,0.0
11404,58.0,0.0,30.0,3.0,0.0
11405,58.0,30.0,30.0,6.0,0.0
11406,46.0,0.0,30.0,4.0,0.0
11407,68.0,30.0,30.0,5.0,0.0
11408,47.0,0.0,60.0,4.0,0.0
11409,59.0,0.0,60.0,3.0,0.0
11410,59.0,61.0,60.0,6.0,0.0
11411,66.0,0.0,30.0,5.0,0.0
11412,68.0,59.0,60.0,5.0,0.0
11413,44.0,0.0,60.0,4.0,0.0
11414,56.0,0.0,60.0,6.0,0.0
11415,77.0,30.0,90.0,5.0,0.0
11416,56.0,30.0,60.0,3.0,0.0
11417,58.0,30.0,60.0,6.0,0.0
11418,46.0,0.0,60.0,4.0,0.0
11419,58.0,0.0,60.0,3.0,0.0
11420,75.0,0.0,30.0,5.0,0.0
11421,59.0,0.0,60.0,3.0,0.0
11422,59.0,0.0,60.0,6.0,0.0
11423,74.0,30.0,30.0,5.0,0.0
11424,47.0,30.0,60.0,4.0,0.0
11425,75.0,0.0,30.0,5.0,0.0
11426,77.0,30.0,30.0,5.0,0.0
11427,50.0,0.0,30.0,6.0,0.0
11428,50.0,0.0,30.0,3.0,0.0
11429,38.0,0.0,30.0,4.0,0.0
11430,39.0,0.0,30.0,4.0,0.0
11431,75.0,0.0,30.0,5.0,0.0
11432,51.0,30.0,30.0,6.0,0.0
11433,51.0,0.0,30.0,3.0,0.0
11434,74.0,30.0,30.0,5.0,0.0
11435,53.0,0.0,60.0,6.0,0.0
11436,53.0,30.0,60.0,3.0,0.0
11437,41.0,0.0,60.0,4.0,0.0
11438,72.0,0.0,30.0,5.0,0.0
11439,70.0,30.0,30.0,5.0,0.0
11440,68.0,60.0,30.0,5.0,0.0
11441,38.0,0.0,60.0,4.0,0.0
11442,50.0,60.0,60.0,3.0,0.0
11443,50.0,0.0,60.0,6.0,0.0
11444,71.0,0.0,120.0,5.0,0.0
11445,51.0,60.0,60.0,6.0,0.0
11446,39.0,0.0,60.0,4.0,0.0
11447,51.0,0.0,60.0,3.0,0.0
11448,41.0,0.0,60.0,4.0,0.0
11449,53.0,30.0,60.0,6.0,0.0
11450,53.0,0.0,60.0,3.0,0.0
11451,70.0,30.0,90.0,5.0,0.0
11452,54.0,0.0,30.0,6.0,0.0
11453,54.0,0.0,30.0,3.0,0.0
11454,42.0,0.0,30.0,4.0,0.0
11455,68.0,0.0,30.0,5.0,0.0
11456,56.0,30.0,30.0,3.0,0.0
11457,56.0,0.0,30.0,6.0,0.0
11458,44.0,0.0,30.0,4.0,0.0
11459,46.0,1.0,60.0,4.0,0.0
11460,63.0,29.0,30.0,0.0,0.0
11461,58.0,0.0,60.0,6.0,0.0
11462,58.0,0.0,60.0,3.0,0.0
11463,66.0,1.0,30.0,5.0,0.0
11464,58.0,0.0,30.0,1.0,0.0
11465,54.0,0.0,30.0,2.0,0.0
11466,65.0,29.0,30.0,0.0,0.0
11467,65.0,0.0,30.0,5.0,0.0
11468,56.0,0.0,30.0,2.0,0.0
11469,59.0,0.0,30.0,1.0,0.0
11470,54.0,0.0,60.0,2.0,0.0
11471,66.0,30.0,30.0,5.0,0.0
11472,58.0,0.0,60.0,1.0,0.0
11473,63.0,29.0,60.0,0.0,0.0
11474,63.0,1.0,30.0,5.0,0.0
11475,65.0,30.0,30.0,5.0,0.0
11476,34.0,30.0,60.0,4.0,0.0
11477,46.0,0.0,60.0,3.0,0.0
11478,46.0,0.0,60.0,6.0,0.0
11479,62.0,0.0,30.0,5.0,0.0
11480,30.0,0.0,60.0,4.0,0.0
11481,42.0,0.0,60.0,6.0,0.0
11482,42.0,0.0,60.0,3.0,0.0
11483,63.0,30.0,30.0,5.0,0.0
11484,58.0,30.0,30.0,5.0,0.0
11485,58.0,29.0,30.0,2.0,0.0
11486,46.0,1.0,60.0,6.0,0.0
11487,34.0,0.0,60.0,4.0,0.0
11488,63.0,1.0,30.0,5.0,0.0
11489,63.0,0.0,30.0,1.0,0.0
11490,66.0,0.0,30.0,0.0,0.0
11491,46.0,0.0,60.0,3.0,0.0
11492,68.0,0.0,30.0,0.0,0.0
11493,65.0,29.0,30.0,1.0,0.0
11494,59.0,0.0,30.0,2.0,0.0
11495,61.0,0.0,30.0,5.0,0.0
11496,39.0,0.0,120.0,3.0,0.0
11497,63.0,30.0,30.0,5.0,0.0
11498,58.0,29.0,60.0,2.0,0.0
11499,51.0,0.0,60.0,8.0,0.0
11500,66.0,0.0,60.0,0.0,0.0
11501,39.0,0.0,120.0,6.0,0.0
11502,63.0,0.0,60.0,1.0,0.0
11503,27.0,0.0,120.0,4.0,0.0
11504,58.0,1.0,30.0,5.0,0.0
11505,63.0,29.0,60.0,8.0,0.0
11506,70.0,0.0,30.0,7.0,0.0
11507,66.0,30.0,30.0,5.0,0.0
11508,65.0,1.0,30.0,5.0,0.0
11509,68.0,0.0,30.0,7.0,0.0
11510,66.0,30.0,30.0,5.0,0.0
11511,70.0,30.0,60.0,7.0,0.0
11512,63.0,0.0,30.0,5.0,0.0
11513,63.0,0.0,60.0,8.0,0.0
11514,39.0,0.0,60.0,3.0,0.0
11515,54.0,30.0,60.0,6.0,0.0
11516,70.0,30.0,30.0,5.0,0.0
11517,39.0,0.0,60.0,4.0,0.0
11518,78.0,0.0,60.0,7.0,0.0
11519,66.0,0.0,30.0,5.0,0.0
11520,53.0,0.0,60.0,6.0,0.0
11521,34.0,0.0,60.0,4.0,0.0
11522,68.0,30.0,30.0,5.0,0.0
11523,46.0,0.0,60.0,3.0,0.0
11524,65.0,0.0,60.0,8.0,0.0
11525,74.0,30.0,60.0,7.0,0.0
11526,65.0,0.0,30.0,5.0,0.0
11527,66.0,0.0,60.0,8.0,0.0
11528,51.0,0.0,60.0,6.0,0.0
11529,75.0,0.0,60.0,7.0,0.0
11530,66.0,30.0,30.0,5.0,0.0
11531,27.0,0.0,60.0,4.0,0.0
11532,51.0,0.0,60.0,3.0,0.0
11533,63.0,30.0,30.0,5.0,0.0
11534,62.0,0.0,30.0,5.0,0.0
11535,65.0,30.0,30.0,8.0,0.0
11536,58.0,0.0,60.0,6.0,0.0
11537,34.0,0.0,120.0,4.0,0.0
11538,46.0,0.0,120.0,3.0,0.0
11539,70.0,30.0,30.0,5.0,0.0
11540,63.0,0.0,30.0,8.0,0.0
11541,68.0,30.0,30.0,7.0,0.0
11542,46.0,0.0,60.0,6.0,0.0
11543,77.0,0.0,30.0,5.0,0.0
11544,62.0,30.0,60.0,8.0,0.0
11545,75.0,0.0,30.0,5.0,0.0
11546,66.0,0.0,30.0,7.0,0.0
11547,68.0,0.0,60.0,7.0,0.0
11548,77.0,30.0,30.0,5.0,0.0
11549,70.0,30.0,30.0,5.0,0.0
11550,46.0,0.0,60.0,3.0,0.0
11551,34.0,0.0,60.0,4.0,0.0
11552,62.0,0.0,60.0,8.0,0.0
11553,77.0,30.0,90.0,7.0,0.0
11554,80.0,30.0,30.0,5.0,0.0
11555,65.0,0.0,60.0,6.0,0.0
11556,78.0,30.0,30.0,5.0,0.0
11557,80.0,0.0,30.0,5.0,0.0
11558,62.0,0.0,60.0,6.0,0.0
11559,58.0,0.0,60.0,8.0,0.0
11560,50.0,30.0,60.0,3.0,0.0
11561,38.0,0.0,60.0,4.0,0.0
11562,77.0,0.0,30.0,5.0,0.0
11563,75.0,0.0,30.0,7.0,0.0
11564,58.0,0.0,60.0,6.0,0.0
11565,41.0,0.0,60.0,4.0,0.0
11566,74.0,0.0,30.0,7.0,0.0
11567,53.0,0.0,60.0,8.0,0.0
11568,82.0,30.0,30.0,5.0,0.0
11569,53.0,30.0,60.0,3.0,0.0
11570,75.0,0.0,30.0,7.0,0.0
11571,80.0,0.0,30.0,5.0,0.0
11572,58.0,0.0,120.0,3.0,0.0
11573,50.0,0.0,60.0,8.0,0.0
11574,53.0,0.0,60.0,6.0,0.0
11575,82.0,30.0,60.0,5.0,0.0
11576,46.0,0.0,120.0,4.0,0.0
11577,77.0,30.0,30.0,7.0,0.0
11578,75.0,0.0,30.0,7.0,0.0
11579,74.0,30.0,30.0,7.0,0.0
11580,70.0,0.0,90.0,5.0,0.0
11581,58.0,0.0,60.0,6.0,0.0
11582,53.0,30.0,60.0,8.0,0.0
11583,72.0,0.0,30.0,7.0,0.0
11584,58.0,0.0,60.0,8.0,0.0
11585,62.0,0.0,60.0,6.0,0.0
11586,70.0,30.0,30.0,7.0,0.0
11587,68.0,30.0,30.0,7.0,0.0
11588,72.0,0.0,30.0,5.0,0.0
11589,41.0,0.0,60.0,4.0,0.0
11590,53.0,0.0,60.0,3.0,0.0
11591,71.0,0.0,120.0,7.0,0.0
11592,74.0,30.0,30.0,5.0,0.0
11593,53.0,30.0,60.0,8.0,0.0
11594,67.0,0.0,60.0,6.0,0.0
11595,75.0,0.0,30.0,5.0,0.0
11596,38.0,0.0,60.0,4.0,0.0
11597,50.0,0.0,60.0,8.0,0.0
11598,77.0,30.0,30.0,5.0,0.0
11599,50.0,0.0,60.0,3.0,0.0
11600,62.0,30.0,60.0,6.0,0.0
11601,78.0,0.0,30.0,5.0,0.0
11602,80.0,30.0,30.0,5.0,0.0
11603,34.0,0.0,60.0,4.0,0.0
11604,46.0,30.0,60.0,8.0,0.0
11605,46.0,0.0,60.0,3.0,0.0
11606,70.0,0.0,90.0,7.0,0.0
11607,58.0,0.0,60.0,6.0,0.0
11608,77.0,0.0,30.0,5.0,0.0
11609,78.0,30.0,30.0,5.0,0.0
11610,51.0,0.0,120.0,3.0,0.0
11611,63.0,0.0,60.0,6.0,0.0
11612,39.0,1.0,120.0,4.0,0.0
11613,51.0,30.0,60.0,8.0,0.0
11614,68.0,0.0,30.0,7.0,0.0
11615,71.0,0.0,30.0,5.0,0.0
11616,70.0,0.0,30.0,5.0,0.0
11617,58.0,29.0,30.0,0.0,0.0
11618,51.0,0.0,60.0,6.0,0.0
11619,66.0,1.0,30.0,7.0,0.0
11620,63.0,0.0,30.0,2.0,0.0
11621,63.0,0.0,60.0,8.0,0.0
11622,54.0,0.0,30.0,1.0,0.0
11623,65.0,0.0,30.0,7.0,0.0
11624,62.0,0.0,30.0,2.0,0.0
11625,56.0,29.0,30.0,1.0,0.0
11626,68.0,0.0,30.0,5.0,0.0
11627,59.0,0.0,30.0,0.0,0.0
11628,54.0,0.0,60.0,1.0,0.0
11629,66.0,0.0,30.0,7.0,0.0
11630,58.0,0.0,60.0,0.0,0.0
11631,70.0,30.0,30.0,5.0,0.0
11632,63.0,29.0,60.0,2.0,0.0
11633,63.0,1.0,30.0,7.0,0.0
11634,66.0,0.0,30.0,5.0,0.0
11635,58.0,0.0,60.0,8.0,0.0
11636,46.0,30.0,60.0,3.0,0.0
11637,34.0,0.0,60.0,6.0,0.0
11638,34.0,0.0,60.0,4.0,0.0
11639,65.0,30.0,30.0,7.0,0.0
11640,68.0,0.0,30.0,5.0,0.0
11641,65.0,0.0,30.0,5.0,0.0
11642,62.0,0.0,30.0,7.0,0.0
11643,66.0,30.0,30.0,5.0,0.0
11644,54.0,0.0,60.0,8.0,0.0
11645,63.0,0.0,30.0,7.0,0.0
11646,42.0,0.0,60.0,6.0,0.0
11647,42.0,30.0,60.0,3.0,0.0
11648,30.0,0.0,60.0,4.0,0.0
11649,58.0,0.0,30.0,7.0,0.0
11650,70.0,0.0,30.0,5.0,0.0
11651,46.0,0.0,60.0,6.0,0.0
11652,63.0,0.0,30.0,7.0,0.0
11653,54.0,29.0,30.0,2.0,0.0
11654,63.0,0.0,30.0,0.0,0.0
11655,34.0,0.0,60.0,4.0,0.0
11656,58.0,0.0,30.0,1.0,0.0
11657,66.0,1.0,30.0,5.0,0.0
11658,58.0,0.0,60.0,8.0,0.0
11659,46.0,0.0,60.0,3.0,0.0
11660,59.0,0.0,30.0,1.0,0.0
11661,65.0,29.0,30.0,0.0,0.0
11662,56.0,0.0,30.0,2.0,0.0
11663,65.0,1.0,30.0,5.0,0.0
11664,62.0,0.0,30.0,7.0,0.0
11665,51.0,0.0,60.0,8.0,0.0
11666,54.0,0.0,60.0,2.0,0.0
11667,39.0,0.0,120.0,3.0,0.0
11668,51.0,30.0,120.0,6.0,0.0
11669,58.0,0.0,60.0,1.0,0.0
11670,27.0,0.0,120.0,4.0,0.0
11671,63.0,29.0,60.0,0.0,0.0
11672,63.0,30.0,30.0,7.0,0.0
11673,66.0,0.0,30.0,5.0,0.0
11674,70.0,1.0,30.0,5.0,0.0
11675,58.0,0.0,30.0,7.0,0.0
11676,63.0,0.0,30.0,5.0,0.0
11677,58.0,30.0,30.0,8.0,0.0
11678,66.0,0.0,30.0,7.0,0.0
11679,62.0,0.0,30.0,5.0,0.0
11680,56.0,0.0,30.0,8.0,0.0
11681,65.0,0.0,30.0,7.0,0.0
11682,70.0,0.0,60.0,0.0,0.0
11683,63.0,30.0,30.0,5.0,0.0
11684,67.0,0.0,30.0,7.0,0.0
11685,58.0,0.0,60.0,8.0,0.0
11686,61.0,29.0,60.0,1.0,0.0
11687,55.0,0.0,60.0,2.0,0.0
11688,70.0,1.0,30.0,5.0,0.0
11689,63.0,0.0,30.0,7.0,0.0
11690,55.0,0.0,60.0,8.0,0.0
11691,51.0,0.0,60.0,3.0,0.0
11692,61.0,30.0,30.0,5.0,0.0
11693,70.0,0.0,30.0,7.0,0.0
11694,39.0,0.0,60.0,4.0,0.0
11695,51.0,30.0,60.0,6.0,0.0
11696,59.0,0.0,30.0,5.0,0.0
11697,68.0,0.0,30.0,7.0,0.0
11698,61.0,0.0,30.0,5.0,0.0
11699,70.0,30.0,30.0,7.0,0.0
11700,51.0,0.0,60.0,8.0,0.0
11701,46.0,30.0,60.0,6.0,0.0
11702,43.0,0.0,60.0,4.0,0.0
11703,55.0,0.0,60.0,3.0,0.0
11704,63.0,0.0,30.0,7.0,0.0
11705,70.0,0.0,30.0,5.0,0.0
11706,68.0,30.0,30.0,7.0,0.0
11707,39.0,0.0,60.0,8.0,0.0
11708,51.0,0.0,60.0,3.0,0.0
11709,39.0,0.0,60.0,4.0,0.0
11710,59.0,0.0,30.0,5.0,0.0
11711,51.0,30.0,60.0,6.0,0.0
11712,70.0,0.0,30.0,7.0,0.0
11713,58.0,0.0,30.0,5.0,0.0
11714,56.0,0.0,120.0,3.0,0.0
11715,59.0,0.0,60.0,1.0,0.0
11716,68.0,29.0,60.0,0.0,0.0
11717,56.0,0.0,120.0,8.0,0.0
11718,44.0,0.0,120.0,4.0,0.0
11719,56.0,0.0,30.0,5.0,0.0
11720,51.0,0.0,60.0,2.0,0.0
11721,47.0,0.0,60.0,6.0,0.0
11722,71.0,30.0,30.0,7.0,0.0
11723,51.0,0.0,30.0,5.0,0.0
11724,75.0,1.0,30.0,7.0,0.0
11725,68.0,0.0,30.0,7.0,0.0
11726,51.0,0.0,30.0,6.0,0.0
11727,59.0,30.0,30.0,5.0,0.0
11728,67.0,0.0,30.0,7.0,0.0
11729,49.0,0.0,30.0,6.0,0.0
11730,58.0,30.0,30.0,5.0,0.0
11731,51.0,0.0,60.0,6.0,0.0
11732,68.0,0.0,30.0,7.0,0.0
11733,63.0,29.0,60.0,1.0,0.0
11734,66.0,0.0,60.0,0.0,0.0
11735,60.0,0.0,60.0,2.0,0.0
11736,60.0,30.0,30.0,5.0,0.0
11737,56.0,0.0,30.0,5.0,0.0
11738,75.0,1.0,30.0,7.0,0.0
11739,44.0,0.0,60.0,4.0,0.0
11740,56.0,30.0,60.0,3.0,0.0
11741,63.0,0.0,30.0,5.0,0.0
11742,48.0,0.0,60.0,6.0,0.0
11743,56.0,0.0,60.0,8.0,0.0
11744,66.0,30.0,30.0,7.0,0.0
11745,61.0,0.0,30.0,5.0,0.0
11746,65.0,0.0,30.0,7.0,0.0
11747,51.0,0.0,60.0,8.0,0.0
11748,63.0,30.0,30.0,5.0,0.0
11749,44.0,30.0,60.0,6.0,0.0
11750,48.0,0.0,60.0,3.0,0.0
11751,36.0,0.0,60.0,4.0,0.0
11752,66.0,0.0,30.0,7.0,0.0
11753,75.0,0.0,30.0,7.0,0.0
11754,56.0,0.0,30.0,5.0,0.0
11755,65.0,30.0,30.0,7.0,0.0
11756,44.0,0.0,60.0,3.0,0.0
11757,32.0,30.0,60.0,6.0,0.0
11758,32.0,0.0,60.0,4.0,0.0
11759,56.0,0.0,60.0,8.0,0.0
11760,61.0,0.0,30.0,5.0,0.0
11761,63.0,0.0,30.0,7.0,0.0
11762,63.0,0.0,30.0,5.0,0.0
11763,65.0,29.0,60.0,0.0,0.0
11764,49.0,0.0,120.0,3.0,0.0
11765,61.0,0.0,60.0,1.0,0.0
11766,37.0,0.0,120.0,6.0,0.0
11767,61.0,0.0,30.0,7.0,0.0
11768,56.0,0.0,60.0,2.0,0.0
11769,37.0,30.0,120.0,4.0,0.0
11770,65.0,30.0,30.0,5.0,0.0
11771,53.0,1.0,60.0,8.0,0.0
11772,68.0,0.0,30.0,5.0,0.0
11773,56.0,0.0,30.0,7.0,0.0
11774,61.0,0.0,30.0,5.0,0.0
11775,56.0,0.0,30.0,8.0,0.0
11776,65.0,30.0,30.0,7.0,0.0
11777,54.0,0.0,30.0,8.0,0.0
11778,63.0,0.0,30.0,7.0,0.0
11779,60.0,0.0,30.0,5.0,0.0
11780,53.0,29.0,60.0,2.0,0.0
11781,65.0,30.0,30.0,7.0,0.0
11782,56.0,1.0,60.0,8.0,0.0
11783,61.0,0.0,30.0,5.0,0.0
11784,59.0,0.0,60.0,1.0,0.0
11785,68.0,0.0,60.0,0.0,0.0
11786,61.0,0.0,30.0,7.0,0.0
11787,68.0,0.0,30.0,5.0,0.0
11788,49.0,0.0,60.0,6.0,0.0
11789,49.0,0.0,60.0,3.0,0.0
11790,53.0,0.0,60.0,8.0,0.0
11791,59.0,0.0,30.0,5.0,0.0
11792,37.0,0.0,60.0,4.0,0.0
11793,68.0,30.0,30.0,7.0,0.0
11794,58.0,30.0,30.0,5.0,0.0
11795,66.0,0.0,30.0,7.0,0.0
11796,59.0,0.0,30.0,5.0,0.0
11797,49.0,30.0,60.0,8.0,0.0
11798,44.0,0.0,60.0,6.0,0.0
11799,41.0,0.0,60.0,4.0,0.0
11800,68.0,30.0,30.0,7.0,0.0
11801,53.0,0.0,60.0,3.0,0.0
11802,68.0,0.0,30.0,5.0,0.0
11803,61.0,0.0,30.0,7.0,0.0
11804,49.0,0.0,60.0,6.0,0.0
11805,37.0,0.0,60.0,4.0,0.0
11806,58.0,30.0,30.0,5.0,0.0
11807,49.0,0.0,60.0,3.0,0.0
11808,66.0,0.0,30.0,7.0,0.0
11809,37.0,0.0,60.0,8.0,0.0
11810,68.0,0.0,30.0,7.0,0.0
11811,56.0,30.0,30.0,5.0,0.0
11812,54.0,30.0,30.0,5.0,0.0
11813,49.0,29.0,60.0,2.0,0.0
11814,42.0,0.0,120.0,8.0,0.0
11815,66.0,0.0,60.0,0.0,0.0
11816,70.0,0.0,30.0,7.0,0.0
11817,54.0,0.0,120.0,3.0,0.0
11818,42.0,0.0,120.0,4.0,0.0
11819,46.0,0.0,60.0,6.0,0.0
11820,58.0,0.0,60.0,1.0,0.0
11821,73.0,0.0,30.0,7.0,0.0
11822,49.0,1.0,30.0,5.0,0.0
11823,66.0,0.0,30.0,7.0,0.0
11824,58.0,0.0,30.0,5.0,0.0
11825,49.0,30.0,30.0,6.0,0.0
11826,47.0,0.0,30.0,6.0,0.0
11827,56.0,30.0,30.0,5.0,0.0
11828,65.0,0.0,30.0,7.0,0.0
11829,64.0,0.0,60.0,0.0,0.0
11830,61.0,0.0,60.0,1.0,0.0
11831,58.0,0.0,30.0,5.0,0.0
11832,49.0,0.0,60.0,6.0,0.0
11833,58.0,29.0,60.0,2.0,0.0
11834,66.0,30.0,30.0,7.0,0.0
11835,73.0,0.0,30.0,7.0,0.0
11836,54.0,1.0,30.0,5.0,0.0
11837,46.0,0.0,60.0,6.0,0.0
11838,42.0,0.0,60.0,4.0,0.0
11839,54.0,30.0,60.0,3.0,0.0
11840,64.0,0.0,30.0,7.0,0.0
11841,61.0,30.0,30.0,5.0,0.0
11842,54.0,0.0,60.0,8.0,0.0
11843,59.0,0.0,30.0,5.0,0.0
11844,63.0,0.0,30.0,7.0,0.0
11845,64.0,30.0,30.0,7.0,0.0
11846,49.0,0.0,60.0,8.0,0.0
11847,34.0,30.0,60.0,4.0,0.0
11848,61.0,0.0,30.0,5.0,0.0
11849,42.0,0.0,60.0,6.0,0.0
11850,46.0,0.0,60.0,3.0,0.0
11851,54.0,0.0,30.0,5.0,0.0
11852,73.0,0.0,30.0,7.0,0.0
11853,63.0,0.0,30.0,7.0,0.0
11854,42.0,0.0,60.0,6.0,0.0
11855,42.0,0.0,60.0,3.0,0.0
11856,59.0,30.0,30.0,5.0,0.0
11857,30.0,30.0,60.0,4.0,0.0
11858,54.0,0.0,60.0,8.0,0.0
11859,61.0,0.0,30.0,7.0,0.0
11860,61.0,0.0,30.0,5.0,0.0
11861,54.0,29.0,60.0,2.0,0.0
11862,63.0,0.0,60.0,0.0,0.0
11863,51.0,0.0,60.0,8.0,0.0
11864,63.0,30.0,30.0,5.0,0.0
11865,59.0,0.0,60.0,1.0,0.0
11866,47.0,0.0,120.0,3.0,0.0
11867,35.0,30.0,120.0,4.0,0.0
11868,59.0,30.0,90.0,7.0,0.0
11869,35.0,0.0,60.0,6.0,0.0
11870,54.0,1.0,30.0,5.0,0.0
11871,47.0,0.0,60.0,8.0,0.0
11872,47.0,0.0,60.0,6.0,0.0
11873,56.0,0.0,30.0,5.0,0.0
11874,54.0,0.0,30.0,7.0,0.0
11875,58.0,0.0,30.0,5.0,0.0
11876,56.0,0.0,30.0,7.0,0.0
11877,59.0,30.0,30.0,5.0,0.0
11878,61.0,0.0,30.0,5.0,0.0
11879,58.0,30.0,30.0,7.0,0.0
11880,35.0,0.0,60.0,4.0,0.0
11881,63.0,30.0,30.0,5.0,0.0
11882,47.0,0.0,60.0,3.0,0.0
11883,47.0,0.0,60.0,6.0,0.0
11884,47.0,30.0,60.0,8.0,0.0
11885,59.0,0.0,30.0,7.0,0.0
11886,64.0,0.0,30.0,5.0,0.0
11887,61.0,0.0,30.0,7.0,0.0
11888,34.0,0.0,60.0,4.0,0.0
11889,46.0,0.0,60.0,3.0,0.0
11890,46.0,0.0,60.0,6.0,0.0
11891,66.0,0.0,30.0,5.0,0.0
11892,46.0,0.0,60.0,8.0,0.0
11893,63.0,30.0,30.0,7.0,0.0
11894,68.0,30.0,30.0,5.0,0.0
11895,65.0,0.0,30.0,7.0,0.0
11896,44.0,0.0,60.0,8.0,0.0
11897,44.0,30.0,60.0,3.0,0.0
11898,44.0,0.0,60.0,6.0,0.0
11899,67.0,0.0,30.0,7.0,0.0
11900,32.0,0.0,60.0,4.0,0.0
11901,70.0,30.0,30.0,5.0,0.0
11902,71.0,0.0,30.0,5.0,0.0
11903,68.0,0.0,30.0,7.0,0.0
11904,73.0,0.0,60.0,5.0,0.0
11905,70.0,30.0,30.0,7.0,0.0
11906,31.0,0.0,60.0,4.0,0.0
11907,43.0,0.0,60.0,8.0,0.0
11908,43.0,30.0,60.0,6.0,0.0
11909,43.0,0.0,60.0,3.0,0.0
11910,68.0,0.0,30.0,7.0,0.0
11911,43.0,0.0,60.0,8.0,0.0
11912,43.0,60.0,60.0,3.0,0.0
11913,31.0,0.0,60.0,4.0,0.0
11914,70.0,30.0,30.0,7.0,0.0
11915,43.0,0.0,60.0,6.0,0.0
11916,76.0,60.0,120.0,5.0,0.0
11917,71.0,0.0,30.0,7.0,0.0
11918,43.0,0.0,60.0,6.0,0.0
11919,43.0,0.0,60.0,8.0,0.0
11920,31.0,0.0,60.0,4.0,0.0
11921,43.0,0.0,60.0,3.0,0.0
11922,73.0,0.0,60.0,7.0,0.0
11923,32.0,0.0,60.0,4.0,0.0
11924,75.0,0.0,60.0,5.0,0.0
11925,44.0,60.0,60.0,8.0,0.0
11926,44.0,0.0,60.0,6.0,0.0
11927,44.0,0.0,60.0,3.0,0.0
11928,71.0,0.0,60.0,7.0,0.0
11929,76.0,0.0,60.0,7.0,0.0
11930,49.0,60.0,60.0,6.0,0.0
11931,49.0,0.0,60.0,3.0,0.0
11932,49.0,0.0,60.0,8.0,0.0
11933,67.0,0.0,60.0,5.0,0.0
11934,37.0,0.0,60.0,4.0,0.0
11935,75.0,0.0,60.0,7.0,0.0
11936,47.0,0.0,60.0,3.0,0.0
11937,47.0,0.0,60.0,8.0,0.0
11938,35.0,0.0,60.0,4.0,0.0
11939,68.0,30.0,60.0,5.0,0.0
11940,47.0,0.0,60.0,6.0,0.0
11941,46.0,0.0,60.0,8.0,0.0
11942,67.0,0.0,60.0,7.0,0.0
11943,46.0,60.0,60.0,6.0,0.0
11944,73.0,30.0,30.0,5.0,0.0
11945,46.0,0.0,60.0,3.0,0.0
11946,34.0,0.0,60.0,4.0,0.0
11947,70.0,0.0,30.0,5.0,0.0
11948,71.0,30.0,60.0,5.0,0.0
11949,44.0,0.0,60.0,8.0,0.0
11950,44.0,0.0,60.0,3.0,0.0
11951,68.0,0.0,60.0,7.0,0.0
11952,44.0,0.0,60.0,6.0,0.0
11953,32.0,0.0,60.0,4.0,0.0
11954,73.0,30.0,30.0,7.0,0.0
11955,43.0,0.0,60.0,8.0,0.0
11956,43.0,0.0,60.0,6.0,0.0
11957,31.0,0.0,60.0,4.0,0.0
11958,43.0,0.0,60.0,3.0,0.0
11959,70.0,31.0,30.0,7.0,0.0
11960,44.0,0.0,60.0,8.0,0.0
11961,32.0,0.0,60.0,4.0,0.0
11962,71.0,29.0,30.0,0.0,0.0
11963,44.0,1.0,60.0,3.0,0.0
11964,44.0,0.0,60.0,6.0,0.0
11965,71.0,0.0,60.0,7.0,0.0
11966,63.0,0.0,30.0,2.0,0.0
11967,68.0,0.0,30.0,1.0,0.0
11968,61.0,59.0,30.0,2.0,0.0
11969,70.0,0.0,30.0,0.0,0.0
11970,67.0,0.0,30.0,1.0,0.0
11971,32.0,1.0,60.0,3.0,0.0
11972,32.0,0.0,60.0,8.0,0.0
11973,44.0,0.0,60.0,4.0,0.0
11974,63.0,0.0,60.0,2.0,0.0
11975,71.0,29.0,60.0,0.0,0.0
11976,32.0,0.0,60.0,6.0,0.0
11977,68.0,0.0,60.0,1.0,0.0
11978,44.0,0.0,60.0,6.0,0.0
11979,42.0,0.0,60.0,4.0,0.0
11980,44.0,0.0,60.0,3.0,0.0
11981,44.0,0.0,60.0,8.0,0.0
11982,72.0,30.0,30.0,5.0,0.0
11983,73.0,60.0,30.0,5.0,0.0
11984,45.0,30.0,60.0,3.0,0.0
11985,45.0,0.0,60.0,8.0,0.0
11986,45.0,0.0,60.0,6.0,0.0
11987,41.0,0.0,60.0,4.0,0.0
11988,75.0,0.0,60.0,5.0,0.0
11989,72.0,30.0,30.0,7.0,0.0
11990,45.0,0.0,60.0,6.0,0.0
11991,45.0,0.0,60.0,3.0,0.0
11992,78.0,0.0,120.0,5.0,0.0
11993,45.0,0.0,60.0,8.0,0.0
11994,33.0,60.0,60.0,4.0,0.0
11995,73.0,0.0,30.0,7.0,0.0
11996,45.0,0.0,60.0,6.0,0.0
11997,33.0,60.0,60.0,4.0,0.0
11998,45.0,0.0,60.0,8.0,0.0
11999,45.0,0.0,60.0,3.0,0.0
12000,75.0,0.0,60.0,7.0,0.0
12001,77.0,0.0,60.0,5.0,0.0
12002,73.0,0.0,60.0,7.0,0.0
12003,46.0,0.0,60.0,3.0,0.0
12004,46.0,60.0,60.0,8.0,0.0
12005,46.0,0.0,60.0,6.0,0.0
12006,34.0,0.0,60.0,4.0,0.0
12007,51.0,0.0,60.0,3.0,0.0
12008,39.0,60.0,60.0,4.0,0.0
12009,69.0,0.0,60.0,5.0,0.0
12010,51.0,0.0,60.0,8.0,0.0
12011,78.0,0.0,60.0,7.0,0.0
12012,51.0,0.0,60.0,6.0,0.0
12013,49.0,0.0,60.0,6.0,0.0
12014,49.0,0.0,60.0,3.0,0.0
12015,37.0,30.0,60.0,4.0,0.0
12016,49.0,0.0,60.0,8.0,0.0
12017,77.0,0.0,60.0,7.0,0.0
12018,70.0,0.0,60.0,5.0,0.0
12019,48.0,0.0,60.0,8.0,0.0
12020,75.0,30.0,30.0,5.0,0.0
12021,67.0,0.0,60.0,7.0,0.0
12022,36.0,0.0,60.0,4.0,0.0
12023,48.0,60.0,60.0,3.0,0.0
12024,48.0,0.0,60.0,6.0,0.0
12025,72.0,0.0,30.0,5.0,0.0
12026,34.0,0.0,60.0,4.0,0.0
12027,74.0,30.0,60.0,5.0,0.0
12028,46.0,0.0,60.0,6.0,0.0
12029,68.0,0.0,60.0,7.0,0.0
12030,46.0,0.0,60.0,8.0,0.0
12031,46.0,0.0,60.0,3.0,0.0
12032,75.0,30.0,30.0,7.0,0.0
12033,45.0,0.0,60.0,6.0,0.0
12034,45.0,0.0,60.0,3.0,0.0
12035,33.0,0.0,60.0,4.0,0.0
12036,45.0,0.0,60.0,8.0,0.0
12037,72.0,20.0,30.0,7.0,0.0
12038,62.0,0.0,30.0,1.0,0.0
12039,46.0,0.0,60.0,8.0,0.0
12040,46.0,0.0,60.0,3.0,0.0
12041,46.0,1.0,60.0,6.0,0.0
12042,65.0,0.0,20.0,5.0,0.0
12043,34.0,0.0,60.0,4.0,0.0
12044,56.0,9.0,30.0,2.0,0.0
12045,65.0,0.0,30.0,0.0,0.0
12046,74.0,11.0,20.0,7.0,0.0
12047,75.0,0.0,20.0,7.0,0.0
12048,66.0,20.0,20.0,5.0,0.0
12049,63.0,0.0,30.0,0.0,0.0
12050,60.0,19.0,30.0,1.0,0.0
12051,54.0,0.0,30.0,2.0,0.0
12052,77.0,0.0,20.0,7.0,0.0
12053,68.0,0.0,20.0,5.0,0.0
12054,38.0,1.0,60.0,8.0,0.0
12055,34.0,0.0,60.0,6.0,0.0
12056,26.0,0.0,60.0,4.0,0.0
12057,38.0,0.0,60.0,3.0,0.0
12058,53.0,0.0,60.0,2.0,0.0
12059,65.0,19.0,60.0,0.0,0.0
12060,68.0,0.0,20.0,5.0,0.0
12061,58.0,0.0,60.0,1.0,0.0
12062,65.0,20.0,20.0,7.0,0.0
12063,66.0,20.0,20.0,7.0,0.0
12064,70.0,0.0,20.0,5.0,0.0
12065,68.0,0.0,20.0,7.0,0.0
12066,72.0,0.0,20.0,5.0,0.0
12067,41.0,0.0,60.0,3.0,0.0
12068,72.0,20.0,20.0,5.0,0.0
12069,29.0,30.0,60.0,4.0,0.0
12070,68.0,0.0,20.0,7.0,0.0
12071,74.0,0.0,20.0,5.0,0.0
12072,66.0,20.0,20.0,7.0,0.0
12073,75.0,0.0,20.0,5.0,0.0
12074,65.0,0.0,20.0,7.0,0.0
12075,34.0,29.0,30.0,8.0,0.0
12076,54.0,29.0,60.0,1.0,0.0
12077,66.0,0.0,60.0,7.0,0.0
12078,75.0,1.0,30.0,5.0,0.0
12079,34.0,1.0,60.0,3.0,0.0
12080,63.0,0.0,60.0,0.0,0.0
12081,22.0,0.0,60.0,4.0,0.0
12082,58.0,0.0,60.0,2.0,0.0
12083,39.0,0.0,30.0,8.0,0.0
12084,70.0,0.0,30.0,5.0,0.0
12085,46.0,0.0,30.0,6.0,0.0
12086,42.0,29.0,30.0,8.0,0.0
12087,66.0,0.0,30.0,5.0,0.0
12088,51.0,1.0,30.0,6.0,0.0
12089,46.0,59.0,30.0,8.0,0.0
12090,54.0,0.0,30.0,6.0,0.0
12091,63.0,1.0,30.0,5.0,0.0
12092,34.0,1.0,60.0,8.0,0.0
12093,58.0,19.0,60.0,5.0,0.0
12094,75.0,20.0,20.0,7.0,0.0
12095,66.0,0.0,20.0,5.0,0.0
12096,68.0,20.0,20.0,5.0,0.0
12097,77.0,0.0,20.0,7.0,0.0
12098,70.0,20.0,20.0,5.0,0.0
12099,78.0,0.0,20.0,7.0,0.0
12100,70.0,20.0,20.0,5.0,0.0
12101,66.0,0.0,20.0,7.0,0.0
12102,68.0,0.0,20.0,7.0,0.0
12103,72.0,20.0,20.0,5.0,0.0
12104,74.0,20.0,20.0,5.0,0.0
12105,70.0,0.0,20.0,7.0,0.0
12106,70.0,0.0,20.0,7.0,0.0
12107,74.0,20.0,20.0,5.0,0.0
12108,68.0,20.0,20.0,7.0,0.0
12109,75.0,0.0,20.0,5.0,0.0
12110,66.0,0.0,20.0,7.0,0.0
12111,77.0,30.0,20.0,5.0,0.0
12112,22.0,0.0,60.0,4.0,0.0
12113,34.0,29.0,30.0,8.0,0.0
12114,34.0,0.0,60.0,3.0,0.0
12115,58.0,0.0,60.0,2.0,0.0
12116,77.0,1.0,30.0,5.0,0.0
12117,68.0,0.0,60.0,7.0,0.0
12118,62.0,29.0,60.0,1.0,0.0
12119,65.0,0.0,60.0,0.0,0.0
12120,74.0,1.0,30.0,5.0,0.0
12121,46.0,0.0,30.0,6.0,0.0
12122,38.0,0.0,30.0,8.0,0.0
12123,41.0,29.0,30.0,8.0,0.0
12124,68.0,1.0,30.0,5.0,0.0
12125,50.0,0.0,30.0,6.0,0.0
12126,46.0,59.0,30.0,8.0,0.0
12127,53.0,0.0,30.0,6.0,0.0
12128,65.0,1.0,30.0,5.0,0.0
12129,34.0,1.0,60.0,8.0,0.0
12130,58.0,19.0,60.0,5.0,0.0
12131,70.0,20.0,20.0,5.0,0.0
12132,62.0,0.0,20.0,7.0,0.0
12133,63.0,20.0,20.0,7.0,0.0
12134,72.0,0.0,20.0,5.0,0.0
12135,65.0,20.0,20.0,7.0,0.0
12136,74.0,0.0,20.0,5.0,0.0
12137,53.0,0.0,20.0,7.0,0.0
12138,74.0,20.0,20.0,5.0,0.0
12139,54.0,20.0,20.0,7.0,0.0
12140,75.0,0.0,20.0,5.0,0.0
12141,56.0,0.0,20.0,7.0,0.0
12142,77.0,20.0,20.0,5.0,0.0
12143,77.0,0.0,20.0,5.0,0.0
12144,56.0,20.0,20.0,7.0,0.0
12145,78.0,0.0,20.0,5.0,0.0
12146,54.0,20.0,20.0,7.0,0.0
12147,80.0,0.0,20.0,5.0,0.0
12148,53.0,30.0,20.0,7.0,0.0
12149,27.0,0.0,120.0,4.0,0.0
12150,39.0,0.0,120.0,6.0,0.0
12151,39.0,0.0,120.0,8.0,0.0
12152,51.0,30.0,30.0,7.0,0.0
12153,66.0,0.0,30.0,0.0,0.0
12154,58.0,0.0,120.0,2.0,0.0
12155,39.0,1.0,120.0,3.0,0.0
12156,78.0,0.0,30.0,5.0,0.0
12157,63.0,29.0,120.0,1.0,0.0
12158,75.0,0.0,30.0,5.0,0.0
12159,58.0,30.0,30.0,0.0,0.0
12160,66.0,0.0,30.0,7.0,0.0
12161,74.0,0.0,30.0,5.0,0.0
12162,65.0,30.0,30.0,7.0,0.0
12163,56.0,0.0,30.0,0.0,0.0
12164,58.0,0.0,30.0,0.0,0.0
12165,75.0,0.0,30.0,5.0,0.0
12166,66.0,0.0,30.0,7.0,0.0
12167,59.0,30.0,30.0,0.0,0.0
12168,76.0,0.0,30.0,5.0,0.0
12169,68.0,0.0,30.0,7.0,0.0
12170,58.0,30.0,30.0,0.0,0.0
12171,75.0,0.0,30.0,5.0,0.0
12172,66.0,0.0,30.0,7.0,0.0
12173,56.0,0.0,30.0,0.0,0.0
12174,27.0,0.0,60.0,4.0,0.0
12175,39.0,0.0,60.0,3.0,0.0
12176,39.0,0.0,60.0,8.0,0.0
12177,74.0,30.0,30.0,5.0,0.0
12178,51.0,19.0,60.0,2.0,0.0
12179,51.0,0.0,60.0,1.0,0.0
12180,39.0,0.0,60.0,6.0,0.0
12181,65.0,0.0,30.0,7.0,0.0
12182,58.0,1.0,30.0,0.0,0.0
12183,75.0,0.0,30.0,5.0,0.0
12184,66.0,0.0,30.0,7.0,0.0
12185,71.0,10.0,30.0,0.0,0.0
12186,44.0,0.0,60.0,3.0,0.0
12187,71.0,0.0,30.0,7.0,0.0
12188,44.0,0.0,60.0,8.0,0.0
12189,71.0,10.0,20.0,5.0,0.0
12190,51.0,0.0,60.0,1.0,0.0
12191,44.0,0.0,60.0,6.0,0.0
12192,32.0,0.0,60.0,4.0,0.0
12193,51.0,19.0,60.0,2.0,0.0
12194,74.0,20.0,20.0,5.0,0.0
12195,75.0,1.0,20.0,5.0,0.0
12196,41.0,0.0,60.0,3.0,0.0
12197,68.0,0.0,30.0,0.0,0.0
12198,68.0,10.0,20.0,5.0,0.0
12199,51.0,0.0,60.0,1.0,0.0
12200,41.0,0.0,60.0,8.0,0.0
12201,41.0,1.0,60.0,6.0,0.0
12202,29.0,0.0,60.0,4.0,0.0
12203,68.0,10.0,30.0,7.0,0.0
12204,74.0,20.0,20.0,5.0,0.0
12205,75.0,0.0,20.0,5.0,0.0
12206,30.0,1.0,120.0,4.0,0.0
12207,42.0,0.0,120.0,6.0,0.0
12208,70.0,30.0,30.0,7.0,0.0
12209,75.0,0.0,30.0,0.0,0.0
12210,51.0,29.0,120.0,1.0,0.0
12211,70.0,0.0,30.0,5.0,0.0
12212,42.0,0.0,120.0,8.0,0.0
12213,51.0,29.0,15.0,2.0,0.0
12214,42.0,0.0,120.0,3.0,0.0
12215,66.0,30.0,30.0,7.0,0.0
12216,75.0,0.0,30.0,5.0,0.0
12217,58.0,0.0,30.0,0.0,0.0
12218,65.0,0.0,30.0,7.0,0.0
12219,74.0,0.0,30.0,5.0,0.0
12220,56.0,30.0,30.0,0.0,0.0
12221,75.0,0.0,30.0,5.0,0.0
12222,58.0,0.0,30.0,0.0,0.0
12223,66.0,0.0,30.0,7.0,0.0
12224,54.0,0.0,30.0,0.0,0.0
12225,63.0,30.0,30.0,7.0,0.0
12226,78.0,0.0,30.0,5.0,0.0
12227,58.0,0.0,30.0,0.0,0.0
12228,75.0,0.0,30.0,5.0,0.0
12229,66.0,30.0,30.0,7.0,0.0
12230,65.0,0.0,30.0,7.0,0.0
12231,74.0,0.0,30.0,5.0,0.0
12232,51.0,19.0,60.0,2.0,0.0
12233,39.0,0.0,60.0,8.0,0.0
12234,39.0,0.0,60.0,6.0,0.0
12235,51.0,0.0,60.0,1.0,0.0
12236,56.0,30.0,30.0,0.0,0.0
12237,39.0,0.0,60.0,3.0,0.0
12238,27.0,0.0,60.0,4.0,0.0
12239,66.0,1.0,30.0,7.0,0.0
12240,75.0,0.0,30.0,5.0,0.0
12241,58.0,0.0,30.0,0.0,0.0
12242,70.0,10.0,20.0,5.0,0.0
12243,42.0,1.0,60.0,8.0,0.0
12244,70.0,10.0,30.0,0.0,0.0
12245,42.0,0.0,60.0,3.0,0.0
12246,30.0,0.0,60.0,4.0,0.0
12247,70.0,0.0,30.0,7.0,0.0
12248,42.0,0.0,60.0,6.0,0.0
12249,51.0,19.0,60.0,2.0,0.0
12250,51.0,0.0,60.0,1.0,0.0
12251,74.0,20.0,20.0,5.0,0.0
12252,75.0,0.0,20.0,5.0,0.0
12253,66.0,0.0,30.0,7.0,0.0
12254,39.0,0.0,60.0,6.0,0.0
12255,27.0,1.0,60.0,4.0,0.0
12256,66.0,10.0,20.0,5.0,0.0
12257,66.0,10.0,30.0,0.0,0.0
12258,51.0,0.0,60.0,2.0,0.0
12259,39.0,0.0,60.0,8.0,0.0
12260,39.0,0.0,60.0,3.0,0.0
12261,74.0,20.0,20.0,5.0,0.0
12262,75.0,0.0,20.0,5.0,0.0
12263,68.0,30.0,30.0,0.0,0.0
12264,68.0,0.0,30.0,5.0,0.0
12265,51.0,29.0,15.0,1.0,0.0
12266,41.0,0.0,120.0,6.0,0.0
12267,29.0,0.0,120.0,4.0,0.0
12268,41.0,1.0,120.0,3.0,0.0
12269,41.0,0.0,120.0,8.0,0.0
12270,68.0,0.0,30.0,7.0,0.0
12271,51.0,29.0,120.0,2.0,0.0
12272,54.0,0.0,30.0,0.0,0.0
12273,75.0,30.0,30.0,5.0,0.0
12274,71.0,0.0,30.0,7.0,0.0
12275,70.0,30.0,30.0,7.0,0.0
12276,74.0,0.0,30.0,5.0,0.0
12277,53.0,0.0,30.0,0.0,0.0
12278,75.0,0.0,30.0,5.0,0.0
12279,54.0,0.0,30.0,0.0,0.0
12280,71.0,0.0,30.0,7.0,0.0
12281,56.0,30.0,30.0,0.0,0.0
12282,71.0,0.0,30.0,5.0,0.0
12283,68.0,0.0,30.0,7.0,0.0
12284,71.0,0.0,30.0,7.0,0.0
12285,75.0,0.0,30.0,5.0,0.0
12286,54.0,30.0,30.0,0.0,0.0
12287,65.0,19.0,60.0,1.0,0.0
12288,59.0,0.0,60.0,2.0,0.0
12289,32.0,0.0,60.0,4.0,0.0
12290,44.0,0.0,60.0,8.0,0.0
12291,70.0,0.0,30.0,7.0,0.0
12292,44.0,0.0,60.0,3.0,0.0
12293,44.0,1.0,60.0,6.0,0.0
12294,74.0,30.0,30.0,5.0,0.0
12295,53.0,0.0,30.0,0.0,0.0
12296,71.0,0.0,30.0,7.0,0.0
12297,54.0,0.0,30.0,0.0,0.0
12298,75.0,0.0,30.0,5.0,0.0
12299,68.0,10.0,30.0,7.0,0.0
12300,68.0,10.0,20.0,5.0,0.0
12301,34.0,0.0,60.0,3.0,0.0
12302,68.0,0.0,30.0,0.0,0.0
12303,22.0,1.0,60.0,4.0,0.0
12304,34.0,0.0,60.0,6.0,0.0
12305,34.0,0.0,60.0,8.0,0.0
12306,53.0,0.0,60.0,2.0,0.0
12307,62.0,19.0,60.0,1.0,0.0
12308,74.0,20.0,20.0,5.0,0.0
12309,75.0,0.0,20.0,5.0,0.0
12310,65.0,0.0,60.0,1.0,0.0
12311,38.0,1.0,60.0,3.0,0.0
12312,26.0,0.0,60.0,4.0,0.0
12313,38.0,0.0,60.0,8.0,0.0
12314,38.0,0.0,60.0,6.0,0.0
12315,58.0,29.0,60.0,2.0,0.0
12316,65.0,10.0,30.0,7.0,0.0
12317,65.0,0.0,30.0,0.0,0.0
12318,65.0,10.0,20.0,5.0,0.0
12319,74.0,20.0,20.0,5.0,0.0
12320,75.0,0.0,20.0,5.0,0.0
12321,66.0,0.0,60.0,5.0,0.0
12322,58.0,0.0,60.0,1.0,0.0
12323,39.0,0.0,30.0,8.0,0.0
12324,66.0,0.0,60.0,7.0,0.0
12325,27.0,0.0,30.0,4.0,0.0
12326,39.0,30.0,30.0,6.0,0.0
12327,58.0,29.0,60.0,2.0,0.0
12328,66.0,0.0,60.0,0.0,0.0
12329,39.0,0.0,30.0,3.0,0.0
12330,39.0,1.0,30.0,4.0,0.0
12331,51.0,0.0,30.0,6.0,0.0
12332,51.0,0.0,30.0,8.0,0.0
12333,51.0,0.0,30.0,3.0,0.0
12334,54.0,29.0,60.0,2.0,0.0
12335,49.0,0.0,30.0,3.0,0.0
12336,70.0,0.0,60.0,0.0,0.0
12337,63.0,0.0,60.0,1.0,0.0
12338,49.0,30.0,30.0,6.0,0.0
12339,49.0,0.0,30.0,8.0,0.0
12340,37.0,0.0,30.0,4.0,0.0
12341,70.0,0.0,60.0,7.0,0.0
12342,70.0,1.0,60.0,5.0,0.0
12343,47.0,0.0,30.0,8.0,0.0
12344,47.0,0.0,30.0,3.0,0.0
12345,47.0,0.0,30.0,6.0,0.0
12346,35.0,0.0,30.0,4.0,0.0
12347,66.0,0.0,60.0,1.0,0.0
12348,58.0,29.0,60.0,2.0,0.0
12349,46.0,0.0,30.0,6.0,0.0
12350,75.0,0.0,60.0,7.0,0.0
12351,75.0,1.0,60.0,5.0,0.0
12352,34.0,0.0,30.0,4.0,0.0
12353,46.0,0.0,30.0,3.0,0.0
12354,46.0,30.0,30.0,8.0,0.0
12355,75.0,0.0,60.0,0.0,0.0
12356,44.0,0.0,30.0,8.0,0.0
12357,32.0,0.0,30.0,4.0,0.0
12358,44.0,0.0,30.0,3.0,0.0
12359,44.0,0.0,30.0,6.0,0.0
12360,78.0,0.0,60.0,7.0,0.0
12361,30.0,0.0,30.0,4.0,0.0
12362,70.0,0.0,60.0,1.0,0.0
12363,78.0,0.0,60.0,5.0,0.0
12364,42.0,0.0,30.0,3.0,0.0
12365,78.0,0.0,60.0,0.0,0.0
12366,42.0,0.0,30.0,6.0,0.0
12367,63.0,9.0,60.0,2.0,0.0
12368,42.0,30.0,30.0,8.0,0.0
12369,41.0,0.0,30.0,6.0,0.0
12370,41.0,0.0,30.0,8.0,0.0
12371,41.0,0.0,30.0,3.0,0.0
12372,29.0,1.0,30.0,4.0,0.0
12373,69.0,0.0,15.0,5.0,0.0
12374,66.0,9.0,60.0,2.0,0.0
12375,69.0,6.0,15.0,0.0,0.0
12376,72.0,0.0,60.0,1.0,0.0
12377,39.0,0.0,30.0,3.0,0.0
12378,69.0,4.0,15.0,7.0,0.0
12379,39.0,0.0,30.0,8.0,0.0
12380,27.0,0.0,30.0,4.0,0.0
12381,39.0,0.0,30.0,6.0,0.0
12382,70.0,10.0,15.0,0.0,0.0
12383,70.0,9.0,15.0,5.0,0.0
12384,70.0,0.0,15.0,7.0,0.0
12385,69.0,1.0,15.0,0.0,0.0
12386,69.0,4.0,15.0,7.0,0.0
12387,70.0,6.0,15.0,0.0,0.0
12388,42.0,0.0,30.0,8.0,0.0
12389,69.0,0.0,15.0,5.0,0.0
12390,30.0,1.0,30.0,4.0,0.0
12391,42.0,0.0,30.0,3.0,0.0
12392,42.0,0.0,30.0,6.0,0.0
12393,69.0,10.0,15.0,0.0,0.0
12394,70.0,0.0,15.0,5.0,0.0
12395,70.0,0.0,15.0,7.0,0.0
12396,70.0,0.0,15.0,0.0,0.0
12397,69.0,0.0,15.0,7.0,0.0
12398,69.0,4.0,15.0,5.0,0.0
12399,65.0,0.0,60.0,1.0,0.0
12400,41.0,1.0,30.0,3.0,0.0
12401,41.0,0.0,30.0,8.0,0.0
12402,60.0,0.0,60.0,2.0,0.0
12403,29.0,0.0,30.0,4.0,0.0
12404,41.0,0.0,30.0,6.0,0.0
12405,69.0,6.0,15.0,0.0,0.0
12406,70.0,10.0,15.0,0.0,0.0
12407,70.0,0.0,15.0,5.0,0.0
12408,70.0,15.0,15.0,7.0,0.0
12409,69.0,0.0,15.0,0.0,0.0
12410,39.0,0.0,30.0,6.0,0.0
12411,39.0,0.0,30.0,8.0,0.0
12412,27.0,1.0,30.0,4.0,0.0
12413,39.0,0.0,30.0,3.0,0.0
12414,67.0,14.0,15.0,5.0,0.0
12415,67.0,0.0,15.0,0.0,0.0
12416,67.0,0.0,15.0,7.0,0.0
12417,69.0,29.0,15.0,7.0,0.0
12418,69.0,0.0,15.0,0.0,0.0
12419,69.0,0.0,15.0,5.0,0.0
12420,26.0,0.0,30.0,4.0,0.0
12421,70.0,0.0,60.0,5.0,0.0
12422,70.0,0.0,60.0,7.0,0.0
12423,70.0,0.0,60.0,0.0,0.0
12424,65.0,0.0,60.0,1.0,0.0
12425,38.0,0.0,30.0,6.0,0.0
12426,38.0,30.0,30.0,8.0,0.0
12427,38.0,0.0,30.0,3.0,0.0
12428,34.0,0.0,30.0,3.0,0.0
12429,34.0,0.0,30.0,8.0,0.0
12430,22.0,0.0,30.0,4.0,0.0
12431,34.0,1.0,30.0,6.0,0.0
12432,24.0,0.0,30.0,4.0,0.0
12433,62.0,0.0,60.0,1.0,0.0
12434,58.0,29.0,15.0,2.0,0.0
12435,65.0,0.0,60.0,0.0,0.0
12436,36.0,0.0,30.0,8.0,0.0
12437,36.0,0.0,30.0,6.0,0.0
12438,65.0,0.0,60.0,5.0,0.0
12439,65.0,1.0,60.0,7.0,0.0
12440,36.0,30.0,30.0,3.0,0.0
12441,26.0,0.0,30.0,4.0,0.0
12442,38.0,0.0,30.0,8.0,0.0
12443,38.0,0.0,30.0,6.0,0.0
12444,38.0,0.0,30.0,3.0,0.0
12445,66.0,0.0,60.0,5.0,0.0
12446,66.0,0.0,60.0,7.0,0.0
12447,39.0,30.0,30.0,8.0,0.0
12448,63.0,0.0,60.0,1.0,0.0
12449,27.0,0.0,30.0,4.0,0.0
12450,58.0,29.0,15.0,2.0,0.0
12451,39.0,0.0,30.0,6.0,0.0
12452,39.0,0.0,30.0,3.0,0.0
12453,66.0,0.0,60.0,0.0,0.0
12454,41.0,0.0,30.0,3.0,0.0
12455,29.0,1.0,30.0,4.0,0.0
12456,41.0,0.0,30.0,6.0,0.0
12457,41.0,0.0,30.0,8.0,0.0
12458,42.0,0.0,30.0,8.0,0.0
12459,42.0,0.0,30.0,6.0,0.0
12460,63.0,0.0,60.0,7.0,0.0
12461,42.0,30.0,30.0,3.0,0.0
12462,30.0,0.0,30.0,4.0,0.0
12463,58.0,59.0,60.0,1.0,0.0
12464,63.0,0.0,60.0,5.0,0.0
12465,58.0,29.0,15.0,2.0,0.0
12466,63.0,0.0,60.0,0.0,0.0
12467,44.0,1.0,30.0,8.0,0.0
12468,32.0,0.0,30.0,4.0,0.0
12469,44.0,0.0,30.0,3.0,0.0
12470,44.0,0.0,30.0,6.0,0.0
12471,46.0,0.0,60.0,3.0,0.0
12472,58.0,0.0,60.0,0.0,0.0
12473,34.0,0.0,60.0,4.0,0.0
12474,46.0,0.0,60.0,8.0,0.0
12475,58.0,0.0,60.0,2.0,0.0
12476,54.0,59.0,60.0,1.0,0.0
12477,58.0,0.0,60.0,5.0,0.0
12478,58.0,0.0,60.0,7.0,0.0
12479,46.0,1.0,60.0,6.0,0.0
12480,62.0,0.0,60.0,0.0,0.0
12481,22.0,0.0,60.0,4.0,0.0
12482,34.0,1.0,60.0,8.0,0.0
12483,53.0,29.0,60.0,1.0,0.0
12484,62.0,0.0,60.0,5.0,0.0
12485,62.0,0.0,60.0,7.0,0.0
12486,58.0,0.0,60.0,2.0,0.0
12487,34.0,0.0,60.0,3.0,0.0
12488,34.0,0.0,60.0,6.0,0.0
12489,63.0,0.0,60.0,0.0,0.0
12490,63.0,0.0,60.0,7.0,0.0
12491,39.0,0.0,60.0,6.0,0.0
12492,39.0,1.0,120.0,3.0,0.0
12493,63.0,30.0,30.0,5.0,0.0
12494,58.0,0.0,60.0,2.0,0.0
12495,39.0,1.0,60.0,8.0,0.0
12496,54.0,29.0,60.0,1.0,0.0
12497,27.0,0.0,120.0,4.0,0.0
12498,70.0,0.0,30.0,5.0,0.0
12499,42.0,0.0,30.0,6.0,0.0
12500,58.0,0.0,60.0,7.0,0.0
12501,75.0,1.0,30.0,5.0,0.0
12502,75.0,29.0,30.0,0.0,0.0
12503,73.0,29.0,30.0,0.0,0.0
12504,77.0,0.0,30.0,5.0,0.0
12505,46.0,0.0,30.0,6.0,0.0
12506,51.0,0.0,60.0,6.0,0.0
12507,78.0,30.0,30.0,5.0,0.0
12508,75.0,29.0,60.0,0.0,0.0
12509,54.0,1.0,60.0,7.0,0.0
12510,75.0,0.0,30.0,5.0,0.0
12511,70.0,29.0,30.0,1.0,0.0
12512,70.0,1.0,30.0,5.0,0.0
12513,51.0,1.0,60.0,8.0,0.0
12514,68.0,29.0,30.0,1.0,0.0
12515,75.0,0.0,30.0,5.0,0.0
12516,66.0,30.0,30.0,5.0,0.0
12517,70.0,29.0,60.0,1.0,0.0
12518,49.0,1.0,60.0,8.0,0.0
12519,70.0,0.0,30.0,5.0,0.0
12520,51.0,0.0,30.0,6.0,0.0
12521,51.0,1.0,60.0,8.0,0.0
12522,63.0,0.0,30.0,5.0,0.0
12523,54.0,1.0,30.0,6.0,0.0
12524,66.0,29.0,30.0,2.0,0.0
12525,58.0,0.0,30.0,6.0,0.0
12526,70.0,0.0,30.0,5.0,0.0
12527,65.0,29.0,30.0,2.0,0.0
12528,61.0,0.0,60.0,6.0,0.0
12529,39.0,0.0,120.0,3.0,0.0
12530,67.0,29.0,60.0,2.0,0.0
12531,27.0,1.0,120.0,4.0,0.0
12532,39.0,0.0,120.0,8.0,0.0
12533,61.0,30.0,30.0,5.0,0.0
12534,70.0,1.0,30.0,5.0,0.0
12535,67.0,0.0,60.0,7.0,0.0
12536,61.0,29.0,60.0,6.0,0.0
12537,75.0,30.0,30.0,5.0,0.0
12538,77.0,0.0,30.0,5.0,0.0
12539,79.0,30.0,30.0,5.0,0.0
12540,70.0,0.0,60.0,7.0,0.0
12541,75.0,1.0,30.0,5.0,0.0
12542,61.0,29.0,15.0,6.0,0.0
12543,73.0,0.0,60.0,7.0,0.0
12544,70.0,30.0,30.0,5.0,0.0
12545,75.0,1.0,30.0,5.0,0.0
12546,61.0,29.0,15.0,6.0,0.0
12547,67.0,30.0,30.0,5.0,0.0
12548,76.0,1.0,60.0,7.0,0.0
12549,70.0,0.0,30.0,5.0,0.0
12550,75.0,0.0,60.0,7.0,0.0
12551,61.0,30.0,30.0,5.0,0.0
12552,61.0,29.0,60.0,6.0,0.0
12553,70.0,1.0,30.0,5.0,0.0
12554,59.0,29.0,60.0,6.0,0.0
12555,68.0,0.0,420.0,7.0,0.0
12556,59.0,30.0,30.0,5.0,0.0
12557,28.0,0.0,120.0,4.0,0.0
12558,40.0,0.0,120.0,3.0,0.0
12559,40.0,1.0,60.0,8.0,0.0
12560,68.0,0.0,30.0,5.0,0.0
12561,44.0,0.0,60.0,8.0,0.0
12562,56.0,29.0,60.0,6.0,0.0
12563,71.0,1.0,30.0,5.0,0.0
12564,71.0,29.0,30.0,0.0,0.0
12565,70.0,0.0,30.0,0.0,0.0
12566,75.0,1.0,30.0,5.0,0.0
12567,64.0,29.0,60.0,6.0,0.0
12568,80.0,30.0,30.0,5.0,0.0
12569,47.0,1.0,60.0,8.0,0.0
12570,68.0,0.0,60.0,0.0,0.0
12571,76.0,0.0,30.0,5.0,0.0
12572,73.0,1.0,30.0,5.0,0.0
12573,52.0,1.0,60.0,8.0,0.0
12574,64.0,29.0,30.0,1.0,0.0
12575,76.0,0.0,30.0,5.0,0.0
12576,63.0,29.0,30.0,1.0,0.0
12577,56.0,30.0,30.0,6.0,0.0
12578,68.0,0.0,30.0,5.0,0.0
12579,61.0,29.0,60.0,1.0,0.0
12580,56.0,0.0,60.0,8.0,0.0
12581,73.0,0.0,30.0,5.0,0.0
12582,61.0,1.0,30.0,6.0,0.0
12583,64.0,1.0,30.0,5.0,0.0
12584,57.0,29.0,30.0,2.0,0.0
12585,49.0,0.0,60.0,8.0,0.0
12586,64.0,0.0,30.0,6.0,0.0
12587,56.0,29.0,30.0,2.0,0.0
12588,68.0,1.0,30.0,5.0,0.0
12589,51.0,1.0,120.0,8.0,0.0
12590,39.0,0.0,120.0,3.0,0.0
12591,27.0,0.0,120.0,4.0,0.0
12592,54.0,0.0,60.0,2.0,0.0
12593,60.0,30.0,30.0,5.0,0.0
12594,68.0,1.0,30.0,5.0,0.0
12595,60.0,29.0,15.0,6.0,0.0
12596,66.0,0.0,60.0,7.0,0.0
12597,75.0,30.0,30.0,5.0,0.0
12598,76.0,0.0,30.0,5.0,0.0
12599,60.0,29.0,60.0,6.0,0.0
12600,60.0,0.0,60.0,7.0,0.0
12601,78.0,30.0,30.0,5.0,0.0
12602,75.0,1.0,30.0,5.0,0.0
12603,72.0,30.0,30.0,5.0,0.0
12604,63.0,0.0,60.0,7.0,0.0
12605,75.0,1.0,30.0,5.0,0.0
12606,57.0,0.0,60.0,7.0,0.0
12607,60.0,29.0,15.0,6.0,0.0
12608,66.0,30.0,30.0,5.0,0.0
12609,72.0,1.0,30.0,5.0,0.0
12610,63.0,30.0,30.0,5.0,0.0
12611,56.0,30.0,90.0,7.0,0.0
12612,60.0,29.0,15.0,6.0,0.0
12613,66.0,1.0,30.0,5.0,0.0
12614,25.0,0.0,120.0,4.0,0.0
12615,37.0,0.0,120.0,3.0,0.0
12616,64.0,0.0,120.0,5.0,0.0
12617,61.0,29.0,60.0,6.0,0.0
12618,37.0,0.0,60.0,8.0,0.0
12619,68.0,1.0,30.0,7.0,0.0
12620,73.0,0.0,30.0,7.0,0.0
12621,56.0,29.0,60.0,6.0,0.0
12622,40.0,1.0,30.0,8.0,0.0
12623,73.0,29.0,30.0,0.0,0.0
12624,75.0,0.0,30.0,7.0,0.0
12625,72.0,0.0,30.0,0.0,0.0
12626,44.0,1.0,30.0,8.0,0.0
12627,73.0,29.0,60.0,0.0,0.0
12628,49.0,0.0,60.0,8.0,0.0
12629,76.0,30.0,30.0,7.0,0.0
12630,52.0,0.0,60.0,6.0,0.0
12631,73.0,1.0,30.0,7.0,0.0
12632,49.0,29.0,60.0,6.0,0.0
12633,68.0,29.0,30.0,1.0,0.0
12634,68.0,1.0,30.0,7.0,0.0
12635,73.0,1.0,30.0,7.0,0.0
12636,66.0,0.0,30.0,1.0,0.0
12637,68.0,29.0,60.0,1.0,0.0
12638,64.0,30.0,30.0,7.0,0.0
12639,44.0,0.0,60.0,6.0,0.0
12640,68.0,1.0,30.0,7.0,0.0
12641,49.0,0.0,30.0,8.0,0.0
12642,61.0,1.0,30.0,7.0,0.0
12643,49.0,29.0,60.0,6.0,0.0
12644,64.0,29.0,30.0,2.0,0.0
12645,52.0,0.0,30.0,8.0,0.0
12646,56.0,0.0,30.0,8.0,0.0
12647,63.0,0.0,30.0,2.0,0.0
12648,68.0,1.0,30.0,7.0,0.0
12649,37.0,1.0,120.0,6.0,0.0
12650,65.0,0.0,60.0,2.0,0.0
12651,25.0,0.0,120.0,4.0,0.0
12652,59.0,29.0,60.0,8.0,0.0
12653,37.0,0.0,120.0,3.0,0.0
12654,59.0,30.0,30.0,7.0,0.0
12655,68.0,1.0,30.0,7.0,0.0
12656,65.0,0.0,60.0,5.0,0.0
12657,73.0,30.0,30.0,7.0,0.0
12658,59.0,29.0,60.0,8.0,0.0
12659,75.0,0.0,30.0,7.0,0.0
12660,59.0,29.0,60.0,8.0,0.0
12661,77.0,30.0,30.0,7.0,0.0
12662,68.0,1.0,60.0,5.0,0.0
12663,73.0,0.0,30.0,7.0,0.0
12664,71.0,0.0,60.0,5.0,0.0
12665,59.0,29.0,60.0,8.0,0.0
12666,68.0,30.0,30.0,7.0,0.0
12667,73.0,1.0,30.0,7.0,0.0
12668,65.0,30.0,30.0,7.0,0.0
12669,74.0,0.0,60.0,5.0,0.0
12670,68.0,1.0,30.0,7.0,0.0
12671,59.0,29.0,15.0,8.0,0.0
12672,73.0,0.0,60.0,5.0,0.0
12673,59.0,30.0,30.0,7.0,0.0
12674,68.0,1.0,30.0,7.0,0.0
12675,39.0,0.0,120.0,3.0,0.0
12676,39.0,0.0,60.0,6.0,0.0
12677,58.0,29.0,60.0,8.0,0.0
12678,27.0,0.0,120.0,4.0,0.0
12679,66.0,29.0,420.0,5.0,0.0
12680,58.0,30.0,30.0,7.0,0.0
12681,66.0,1.0,30.0,7.0,0.0
12682,54.0,29.0,60.0,8.0,0.0
12683,73.0,1.0,30.0,7.0,0.0
12684,42.0,0.0,60.0,6.0,0.0
12685,70.0,29.0,30.0,0.0,0.0
12686,77.0,1.0,30.0,7.0,0.0
12687,68.0,0.0,30.0,0.0,0.0
12688,46.0,0.0,60.0,6.0,0.0
12689,63.0,0.0,60.0,8.0,0.0
12690,66.0,29.0,60.0,0.0,0.0
12691,78.0,30.0,30.0,7.0,0.0
12692,75.0,1.0,30.0,7.0,0.0
12693,63.0,29.0,30.0,1.0,0.0
12694,51.0,1.0,60.0,6.0,0.0
12695,71.0,1.0,30.0,7.0,0.0
12696,75.0,0.0,30.0,7.0,0.0
12697,61.0,29.0,30.0,1.0,0.0
12698,66.0,30.0,30.0,7.0,0.0
12699,54.0,1.0,60.0,6.0,0.0
12700,59.0,29.0,60.0,1.0,0.0
12701,71.0,0.0,30.0,7.0,0.0
12702,54.0,0.0,30.0,8.0,0.0
12703,47.0,1.0,60.0,6.0,0.0
12704,56.0,0.0,30.0,2.0,0.0
12705,59.0,29.0,30.0,8.0,0.0
12706,63.0,1.0,30.0,7.0,0.0
12707,66.0,0.0,30.0,7.0,0.0
12708,61.0,29.0,30.0,8.0,0.0
12709,54.0,0.0,30.0,2.0,0.0
12710,25.0,0.0,120.0,4.0,0.0
12711,37.0,0.0,120.0,3.0,0.0
12712,52.0,0.0,60.0,2.0,0.0
12713,49.0,0.0,120.0,6.0,0.0
12714,58.0,30.0,30.0,7.0,0.0
12715,58.0,0.0,60.0,8.0,0.0
12716,66.0,1.0,30.0,7.0,0.0
12717,64.0,1.0,60.0,5.0,0.0
12718,73.0,30.0,30.0,7.0,0.0
12719,75.0,0.0,30.0,7.0,0.0
12720,58.0,29.0,15.0,8.0,0.0
12721,58.0,1.0,60.0,5.0,0.0
12722,76.0,30.0,30.0,7.0,0.0
12723,73.0,0.0,30.0,7.0,0.0
12724,70.0,30.0,30.0,7.0,0.0
12725,58.0,29.0,60.0,8.0,0.0
12726,61.0,1.0,60.0,5.0,0.0
12727,73.0,0.0,30.0,7.0,0.0
12728,64.0,30.0,30.0,7.0,0.0
12729,55.0,1.0,60.0,5.0,0.0
12730,70.0,0.0,30.0,7.0,0.0
12731,61.0,30.0,30.0,7.0,0.0
12732,58.0,29.0,15.0,8.0,0.0
12733,54.0,0.0,120.0,5.0,0.0
12734,71.0,0.0,30.0,0.0,0.0
12735,70.0,0.0,30.0,0.0,0.0
12736,64.0,1.0,30.0,7.0,0.0
12737,23.0,1.0,120.0,4.0,0.0
12738,59.0,0.0,120.0,8.0,0.0
12739,63.0,0.0,60.0,7.0,0.0
12740,35.0,0.0,120.0,3.0,0.0
12741,35.0,0.0,120.0,6.0,0.0
12742,71.0,30.0,30.0,0.0,0.0
12743,66.0,30.0,30.0,0.0,0.0
12744,59.0,29.0,60.0,2.0,0.0
12745,64.0,0.0,60.0,7.0,0.0
12746,73.0,0.0,60.0,5.0,0.0
12747,68.0,30.0,30.0,0.0,0.0
12748,59.0,0.0,60.0,1.0,0.0
12749,64.0,0.0,30.0,0.0,0.0
12750,71.0,0.0,60.0,5.0,0.0
12751,63.0,1.0,60.0,7.0,0.0
12752,66.0,30.0,30.0,0.0,0.0
12753,59.0,0.0,60.0,1.0,0.0
12754,63.0,0.0,30.0,0.0,0.0
12755,64.0,30.0,30.0,0.0,0.0
12756,70.0,0.0,60.0,5.0,0.0
12757,59.0,29.0,15.0,2.0,0.0
12758,61.0,0.0,60.0,7.0,0.0
12759,61.0,1.0,30.0,0.0,0.0
12760,63.0,30.0,30.0,0.0,0.0
12761,59.0,0.0,15.0,1.0,0.0
12762,59.0,0.0,60.0,7.0,0.0
12763,68.0,30.0,180.0,5.0,0.0
12764,51.0,1.0,30.0,8.0,0.0
12765,47.0,0.0,30.0,6.0,0.0
12766,68.0,0.0,30.0,0.0,0.0
12767,49.0,0.0,30.0,8.0,0.0
12768,59.0,0.0,15.0,2.0,0.0
12769,61.0,0.0,30.0,7.0,0.0
12770,59.0,0.0,60.0,1.0,0.0
12771,70.0,1.0,30.0,0.0,0.0
12772,46.0,29.0,30.0,6.0,0.0
12773,44.0,29.0,30.0,6.0,0.0
12774,47.0,0.0,30.0,8.0,0.0
12775,71.0,1.0,30.0,0.0,0.0
12776,63.0,0.0,30.0,7.0,0.0
12777,22.0,0.0,120.0,4.0,0.0
12778,64.0,1.0,180.0,7.0,0.0
12779,46.0,0.0,120.0,6.0,0.0
12780,34.0,0.0,120.0,3.0,0.0
12781,46.0,0.0,120.0,8.0,0.0
12782,73.0,30.0,30.0,0.0,0.0
12783,71.0,0.0,30.0,0.0,0.0
12784,76.0,0.0,60.0,5.0,0.0
12785,73.0,30.0,30.0,0.0,0.0
12786,58.0,0.0,60.0,2.0,0.0
12787,70.0,1.0,30.0,0.0,0.0
12788,71.0,30.0,30.0,0.0,0.0
12789,67.0,0.0,60.0,5.0,0.0
12790,58.0,0.0,60.0,2.0,0.0
12791,58.0,29.0,15.0,1.0,0.0
12792,67.0,0.0,30.0,0.0,0.0
12793,46.0,0.0,60.0,8.0,0.0
12794,68.0,30.0,30.0,0.0,0.0
12795,58.0,0.0,60.0,2.0,0.0
12796,49.0,0.0,60.0,6.0,0.0
12797,58.0,29.0,15.0,1.0,0.0
12798,61.0,0.0,60.0,7.0,0.0
12799,70.0,1.0,60.0,5.0,0.0
12800,65.0,0.0,30.0,0.0,0.0
12801,67.0,1.0,30.0,0.0,0.0
12802,27.0,1.0,120.0,4.0,0.0
12803,73.0,1.0,60.0,5.0,0.0
12804,39.0,0.0,120.0,3.0,0.0
12805,51.0,0.0,60.0,8.0,0.0
12806,59.0,14.0,15.0,7.0,0.0
12807,51.0,0.0,60.0,6.0,0.0
12808,58.0,0.0,60.0,2.0,0.0
12809,58.0,15.0,15.0,1.0,0.0
12810,58.0,15.0,15.0,7.0,0.0
12811,59.0,14.0,15.0,7.0,0.0
12812,63.0,0.0,30.0,0.0,0.0
12813,58.0,15.0,15.0,7.0,0.0
12814,39.0,0.0,60.0,6.0,0.0
12815,58.0,0.0,15.0,1.0,0.0
12816,39.0,0.0,60.0,8.0,0.0
12817,58.0,0.0,60.0,2.0,0.0
12818,59.0,14.0,15.0,7.0,0.0
12819,68.0,1.0,30.0,0.0,0.0
12820,71.0,0.0,30.0,5.0,0.0
12821,58.0,15.0,15.0,7.0,0.0
12822,59.0,14.0,15.0,7.0,0.0
12823,67.0,0.0,30.0,0.0,0.0
12824,70.0,0.0,30.0,5.0,0.0
12825,58.0,0.0,15.0,7.0,0.0
12826,68.0,30.0,30.0,0.0,0.0
12827,71.0,0.0,60.0,5.0,0.0
12828,44.0,0.0,120.0,3.0,0.0
12829,44.0,0.0,120.0,6.0,0.0
12830,44.0,1.0,120.0,8.0,0.0
12831,56.0,30.0,60.0,7.0,0.0
12832,32.0,0.0,120.0,4.0,0.0
12833,63.0,0.0,30.0,0.0,0.0
12834,73.0,0.0,60.0,5.0,0.0
12835,68.0,0.0,120.0,7.0,0.0
12836,64.0,30.0,30.0,0.0,0.0
12837,61.0,0.0,30.0,0.0,0.0
12838,56.0,0.0,15.0,1.0,0.0
12839,63.0,30.0,30.0,0.0,0.0
12840,56.0,29.0,15.0,2.0,0.0
12841,71.0,0.0,60.0,5.0,0.0
12842,59.0,1.0,30.0,0.0,0.0
12843,70.0,0.0,60.0,5.0,0.0
12844,61.0,30.0,30.0,0.0,0.0
12845,66.0,0.0,60.0,7.0,0.0
12846,56.0,29.0,15.0,2.0,0.0
12847,58.0,1.0,30.0,0.0,0.0
12848,68.0,1.0,60.0,5.0,0.0
12849,56.0,0.0,15.0,2.0,0.0
12850,56.0,29.0,15.0,1.0,0.0
12851,59.0,30.0,30.0,0.0,0.0
12852,64.0,0.0,180.0,7.0,0.0
12853,47.0,29.0,30.0,6.0,0.0
12854,64.0,0.0,30.0,0.0,0.0
12855,44.0,0.0,30.0,8.0,0.0
12856,56.0,0.0,60.0,2.0,0.0
12857,69.0,1.0,30.0,5.0,0.0
12858,66.0,0.0,30.0,0.0,0.0
12859,45.0,0.0,30.0,6.0,0.0
12860,42.0,29.0,30.0,8.0,0.0
12861,56.0,0.0,60.0,1.0,0.0
12862,40.0,0.0,30.0,8.0,0.0
12863,68.0,0.0,30.0,0.0,0.0
12864,44.0,29.0,30.0,6.0,0.0
12865,71.0,1.0,30.0,5.0,0.0
12866,42.0,0.0,120.0,3.0,0.0
12867,73.0,1.0,180.0,5.0,0.0
12868,42.0,1.0,120.0,8.0,0.0
12869,69.0,30.0,30.0,0.0,0.0
12870,30.0,0.0,120.0,4.0,0.0
12871,42.0,0.0,120.0,6.0,0.0
12872,66.0,30.0,30.0,0.0,0.0
12873,73.0,0.0,60.0,7.0,0.0
12874,68.0,30.0,30.0,0.0,0.0
12875,54.0,0.0,60.0,2.0,0.0
12876,54.0,29.0,60.0,1.0,0.0
12877,64.0,0.0,30.0,0.0,0.0
12878,66.0,30.0,30.0,0.0,0.0
12879,54.0,29.0,60.0,1.0,0.0
12880,63.0,0.0,60.0,7.0,0.0
12881,63.0,0.0,30.0,0.0,0.0
12882,54.0,0.0,15.0,2.0,0.0
12883,45.0,1.0,60.0,8.0,0.0
12884,42.0,0.0,60.0,6.0,0.0
12885,69.0,0.0,60.0,5.0,0.0
12886,66.0,0.0,60.0,7.0,0.0
12887,64.0,30.0,30.0,0.0,0.0
12888,61.0,0.0,30.0,0.0,0.0
12889,47.0,0.0,60.0,6.0,0.0
12890,54.0,0.0,15.0,2.0,0.0
12891,47.0,0.0,120.0,3.0,0.0
12892,47.0,1.0,60.0,8.0,0.0
12893,68.0,14.0,15.0,5.0,0.0
12894,54.0,15.0,15.0,1.0,0.0
12895,63.0,1.0,30.0,0.0,0.0
12896,35.0,1.0,120.0,4.0,0.0
12897,69.0,0.0,60.0,7.0,0.0
12898,66.0,15.0,15.0,5.0,0.0
12899,68.0,14.0,15.0,5.0,0.0
12900,59.0,0.0,30.0,0.0,0.0
12901,66.0,0.0,15.0,5.0,0.0
12902,54.0,15.0,15.0,1.0,0.0
12903,54.0,0.0,15.0,2.0,0.0
12904,35.0,0.0,60.0,6.0,0.0
12905,64.0,1.0,30.0,0.0,0.0
12906,68.0,14.0,15.0,5.0,0.0
12907,68.0,0.0,30.0,7.0,0.0
12908,35.0,0.0,60.0,8.0,0.0
12909,66.0,15.0,15.0,5.0,0.0
12910,66.0,0.0,30.0,7.0,0.0
12911,63.0,0.0,30.0,0.0,0.0
12912,68.0,14.0,15.0,5.0,0.0
12913,66.0,0.0,15.0,5.0,0.0
12914,68.0,0.0,60.0,7.0,0.0
12915,28.0,0.0,120.0,4.0,0.0
12916,40.0,0.0,120.0,3.0,0.0
12917,64.0,30.0,60.0,5.0,0.0
12918,40.0,0.0,120.0,6.0,0.0
12919,40.0,1.0,120.0,8.0,0.0
12920,64.0,30.0,30.0,0.0,0.0
12921,59.0,0.0,30.0,0.0,0.0
12922,52.0,29.0,60.0,1.0,0.0
12923,78.0,0.0,60.0,5.0,0.0
12924,52.0,0.0,60.0,2.0,0.0
12925,69.0,0.0,60.0,7.0,0.0
12926,61.0,30.0,30.0,0.0,0.0
12927,57.0,0.0,30.0,0.0,0.0
12928,76.0,1.0,60.0,5.0,0.0
12929,68.0,0.0,60.0,7.0,0.0
12930,59.0,30.0,30.0,0.0,0.0
12931,56.0,0.0,30.0,0.0,0.0
12932,66.0,1.0,60.0,7.0,0.0
12933,75.0,0.0,60.0,5.0,0.0
12934,57.0,30.0,30.0,0.0,0.0
12935,52.0,0.0,15.0,2.0,0.0
12936,52.0,29.0,15.0,1.0,0.0
12937,54.0,0.0,30.0,0.0,0.0
12938,52.0,0.0,60.0,2.0,0.0
12939,64.0,1.0,60.0,7.0,0.0
12940,56.0,30.0,30.0,0.0,0.0
12941,73.0,0.0,180.0,5.0,0.0
12942,56.0,0.0,30.0,8.0,0.0
12943,52.0,0.0,30.0,6.0,0.0
12944,61.0,0.0,30.0,0.0,0.0
12945,63.0,0.0,30.0,0.0,0.0
12946,54.0,29.0,30.0,8.0,0.0
12947,51.0,0.0,30.0,6.0,0.0
12948,52.0,29.0,15.0,1.0,0.0
12949,66.0,1.0,30.0,7.0,0.0
12950,52.0,0.0,60.0,2.0,0.0
12951,52.0,29.0,30.0,8.0,0.0
12952,68.0,0.0,30.0,7.0,0.0
12953,64.0,1.0,30.0,0.0,0.0
12954,49.0,0.0,30.0,6.0,0.0
12955,51.0,0.0,120.0,8.0,0.0
12956,51.0,0.0,120.0,6.0,0.0
12957,39.0,1.0,120.0,3.0,0.0
12958,27.0,0.0,120.0,4.0,0.0
12959,69.0,0.0,180.0,7.0,0.0
12960,66.0,30.0,30.0,0.0,0.0
12961,63.0,30.0,30.0,0.0,0.0
12962,51.0,29.0,60.0,1.0,0.0
12963,51.0,0.0,60.0,2.0,0.0
12964,81.0,0.0,60.0,5.0,0.0
12965,64.0,30.0,30.0,0.0,0.0
12966,61.0,0.0,30.0,0.0,0.0
12967,63.0,30.0,30.0,0.0,0.0
12968,72.0,1.0,60.0,5.0,0.0
12969,51.0,0.0,60.0,2.0,0.0
12970,60.0,0.0,30.0,0.0,0.0
12971,54.0,0.0,60.0,8.0,0.0
12972,75.0,0.0,60.0,5.0,0.0
12973,51.0,29.0,15.0,1.0,0.0
12974,66.0,0.0,60.0,7.0,0.0
12975,54.0,1.0,60.0,6.0,0.0
12976,61.0,30.0,30.0,0.0,0.0
12977,58.0,0.0,30.0,0.0,0.0
12978,51.0,15.0,15.0,2.0,0.0
12979,78.0,0.0,60.0,5.0,0.0
12980,32.0,0.0,120.0,4.0,0.0
12981,56.0,0.0,60.0,8.0,0.0
12982,64.0,14.0,15.0,7.0,0.0
12983,51.0,0.0,60.0,1.0,0.0
12984,60.0,1.0,30.0,0.0,0.0
12985,56.0,1.0,60.0,6.0,0.0
12986,44.0,1.0,120.0,3.0,0.0
12987,63.0,15.0,15.0,7.0,0.0
12988,56.0,0.0,30.0,0.0,0.0
12989,64.0,14.0,15.0,7.0,0.0
12990,63.0,15.0,15.0,7.0,0.0
12991,44.0,0.0,60.0,8.0,0.0
12992,76.0,1.0,30.0,5.0,0.0
12993,73.0,0.0,30.0,0.0,0.0
12994,44.0,0.0,60.0,6.0,0.0
12995,68.0,15.0,30.0,1.0,0.0
12996,52.0,0.0,30.0,2.0,0.0
12997,64.0,14.0,15.0,7.0,0.0
12998,63.0,0.0,15.0,7.0,0.0
12999,54.0,29.0,30.0,2.0,0.0
13000,72.0,0.0,30.0,0.0,0.0
13001,64.0,14.0,15.0,7.0,0.0
13002,66.0,0.0,30.0,1.0,0.0
13003,75.0,0.0,30.0,5.0,0.0
13004,63.0,0.0,15.0,7.0,0.0
13005,61.0,0.0,60.0,7.0,0.0
13006,64.0,29.0,60.0,1.0,0.0
13007,73.0,0.0,60.0,0.0,0.0
13008,49.0,0.0,30.0,3.0,0.0
13009,56.0,0.0,60.0,2.0,0.0
13010,76.0,30.0,30.0,5.0,0.0
13011,37.0,0.0,30.0,4.0,0.0
13012,49.0,0.0,30.0,6.0,0.0
13013,49.0,0.0,30.0,8.0,0.0
13014,48.0,0.0,30.0,8.0,0.0
13015,48.0,0.0,30.0,3.0,0.0
13016,68.0,1.0,30.0,5.0,0.0
13017,36.0,0.0,30.0,4.0,0.0
13018,48.0,0.0,30.0,6.0,0.0
13019,73.0,0.0,30.0,7.0,0.0
13020,49.0,30.0,30.0,6.0,0.0
13021,37.0,0.0,30.0,4.0,0.0
13022,69.0,0.0,30.0,5.0,0.0
13023,49.0,0.0,30.0,3.0,0.0
13024,49.0,0.0,30.0,8.0,0.0
13025,51.0,0.0,30.0,6.0,0.0
13026,51.0,0.0,30.0,8.0,0.0
13027,51.0,0.0,30.0,3.0,0.0
13028,66.0,30.0,30.0,5.0,0.0
13029,39.0,0.0,30.0,4.0,0.0
13030,72.0,0.0,30.0,7.0,0.0
13031,52.0,0.0,60.0,8.0,0.0
13032,73.0,0.0,30.0,7.0,0.0
13033,68.0,30.0,30.0,5.0,0.0
13034,52.0,0.0,60.0,6.0,0.0
13035,52.0,0.0,60.0,3.0,0.0
13036,40.0,30.0,60.0,4.0,0.0
13037,68.0,0.0,30.0,7.0,0.0
13038,64.0,0.0,30.0,5.0,0.0
13039,69.0,0.0,30.0,7.0,0.0
13040,69.0,0.0,30.0,1.0,0.0
13041,66.0,0.0,30.0,5.0,0.0
13042,73.0,30.0,30.0,0.0,0.0
13043,66.0,0.0,30.0,2.0,0.0
13044,72.0,0.0,30.0,0.0,0.0
13045,66.0,30.0,30.0,1.0,0.0
13046,66.0,0.0,30.0,7.0,0.0
13047,63.0,0.0,30.0,2.0,0.0
13048,63.0,0.0,30.0,5.0,0.0
13049,68.0,0.0,30.0,7.0,0.0
13050,64.0,0.0,60.0,2.0,0.0
13051,68.0,29.0,60.0,1.0,0.0
13052,73.0,0.0,60.0,0.0,0.0
13053,64.0,30.0,30.0,5.0,0.0
13054,64.0,1.0,30.0,7.0,0.0
13055,61.0,0.0,30.0,5.0,0.0
13056,63.0,0.0,30.0,5.0,0.0
13057,66.0,30.0,30.0,7.0,0.0
13058,56.0,0.0,60.0,3.0,0.0
13059,56.0,0.0,60.0,6.0,0.0
13060,44.0,30.0,60.0,4.0,0.0
13061,56.0,0.0,60.0,8.0,0.0
13062,60.0,0.0,30.0,5.0,0.0
13063,63.0,0.0,30.0,7.0,0.0
13064,37.0,0.0,60.0,4.0,0.0
13065,64.0,30.0,30.0,7.0,0.0
13066,49.0,0.0,60.0,6.0,0.0
13067,49.0,0.0,60.0,3.0,0.0
13068,49.0,0.0,60.0,8.0,0.0
13069,61.0,0.0,60.0,5.0,0.0
13070,61.0,30.0,30.0,7.0,0.0
13071,66.0,30.0,30.0,1.0,0.0
13072,63.0,0.0,30.0,2.0,0.0
13073,69.0,0.0,60.0,5.0,0.0
13074,63.0,0.0,30.0,7.0,0.0
13075,69.0,0.0,30.0,0.0,0.0
13076,63.0,16.0,30.0,1.0,0.0
13077,60.0,0.0,30.0,2.0,0.0
13078,60.0,0.0,30.0,7.0,0.0
13079,68.0,0.0,30.0,0.0,0.0
13080,61.0,29.0,60.0,2.0,0.0
13081,64.0,0.0,60.0,1.0,0.0
13082,61.0,1.0,30.0,7.0,0.0
13083,69.0,14.0,15.0,5.0,0.0
13084,69.0,1.0,60.0,0.0,0.0
13085,70.0,29.0,15.0,5.0,0.0
13086,69.0,0.0,30.0,5.0,0.0
13087,64.0,0.0,30.0,7.0,0.0
13088,36.0,30.0,60.0,4.0,0.0
13089,63.0,30.0,30.0,7.0,0.0
13090,68.0,30.0,90.0,5.0,0.0
13091,48.0,0.0,60.0,3.0,0.0
13092,48.0,0.0,60.0,8.0,0.0
13093,48.0,0.0,60.0,6.0,0.0
13094,66.0,0.0,30.0,7.0,0.0
13095,49.0,0.0,60.0,6.0,0.0
13096,49.0,0.0,60.0,3.0,0.0
13097,37.0,30.0,60.0,4.0,0.0
13098,64.0,0.0,60.0,7.0,0.0
13099,49.0,0.0,60.0,8.0,0.0
13100,70.0,0.0,30.0,5.0,0.0
13101,66.0,0.0,30.0,1.0,0.0
13102,63.0,30.0,30.0,2.0,0.0
13103,51.0,0.0,60.0,3.0,0.0
13104,51.0,0.0,60.0,8.0,0.0
13105,39.0,0.0,60.0,4.0,0.0
13106,72.0,0.0,30.0,0.0,0.0
13107,51.0,30.0,60.0,6.0,0.0
13108,66.0,0.0,60.0,7.0,0.0
13109,72.0,0.0,30.0,5.0,0.0
13110,68.0,0.0,30.0,5.0,0.0
13111,63.0,0.0,30.0,1.0,0.0
13112,59.0,0.0,30.0,2.0,0.0
13113,68.0,0.0,30.0,0.0,0.0
13114,40.0,0.0,60.0,4.0,0.0
13115,68.0,0.0,60.0,7.0,0.0
13116,56.0,30.0,60.0,2.0,0.0
13117,52.0,0.0,60.0,6.0,0.0
13118,68.0,0.0,60.0,1.0,0.0
13119,52.0,0.0,60.0,8.0,0.0
13120,73.0,30.0,30.0,5.0,0.0
13121,73.0,0.0,60.0,0.0,0.0
13122,52.0,0.0,60.0,3.0,0.0
13123,72.0,0.0,30.0,5.0,0.0
13124,39.0,30.0,60.0,4.0,0.0
13125,70.0,0.0,30.0,7.0,0.0
13126,52.0,0.0,30.0,3.0,0.0
13127,73.0,30.0,90.0,5.0,0.0
13128,52.0,0.0,30.0,8.0,0.0
13129,52.0,30.0,30.0,6.0,0.0
13130,51.0,0.0,30.0,8.0,0.0
13131,51.0,0.0,30.0,6.0,0.0
13132,51.0,0.0,30.0,3.0,0.0
13133,72.0,0.0,30.0,7.0,0.0
13134,52.0,0.0,60.0,6.0,0.0
13135,73.0,0.0,30.0,7.0,0.0
13136,52.0,30.0,60.0,8.0,0.0
13137,52.0,0.0,60.0,3.0,0.0
13138,40.0,0.0,60.0,4.0,0.0
13139,72.0,0.0,30.0,7.0,0.0
13140,75.0,0.0,30.0,5.0,0.0
13141,76.0,0.0,30.0,5.0,0.0
13142,73.0,0.0,30.0,7.0,0.0
13143,49.0,0.0,60.0,3.0,0.0
13144,37.0,0.0,60.0,4.0,0.0
13145,68.0,30.0,30.0,2.0,0.0
13146,49.0,30.0,60.0,8.0,0.0
13147,49.0,0.0,60.0,6.0,0.0
13148,76.0,0.0,30.0,0.0,0.0
13149,73.0,0.0,30.0,1.0,0.0
13150,75.0,0.0,30.0,5.0,0.0
13151,72.0,0.0,30.0,7.0,0.0
13152,69.0,0.0,30.0,2.0,0.0
13153,72.0,0.0,30.0,1.0,0.0
13154,75.0,0.0,30.0,0.0,0.0
13155,78.0,30.0,30.0,5.0,0.0
13156,57.0,30.0,60.0,6.0,0.0
13157,57.0,0.0,60.0,8.0,0.0
13158,66.0,0.0,60.0,2.0,0.0
13159,78.0,0.0,60.0,0.0,0.0
13160,73.0,0.0,60.0,7.0,0.0
13161,45.0,0.0,60.0,4.0,0.0
13162,73.0,0.0,60.0,1.0,0.0
13163,57.0,0.0,60.0,3.0,0.0
13164,76.0,0.0,30.0,5.0,0.0
13165,45.0,0.0,60.0,6.0,0.0
13166,75.0,30.0,30.0,5.0,0.0
13167,45.0,0.0,60.0,3.0,0.0
13168,33.0,16.0,60.0,4.0,0.0
13169,45.0,0.0,60.0,8.0,0.0
13170,73.0,0.0,60.0,7.0,0.0
13171,73.0,0.0,30.0,5.0,0.0
13172,73.0,14.0,15.0,7.0,0.0
13173,79.0,1.0,30.0,5.0,0.0
13174,75.0,29.0,15.0,7.0,0.0
13175,80.0,0.0,30.0,5.0,0.0
13176,73.0,30.0,30.0,7.0,0.0
13177,44.0,0.0,60.0,8.0,0.0
13178,75.0,0.0,30.0,1.0,0.0
13179,44.0,0.0,60.0,6.0,0.0
13180,44.0,0.0,60.0,3.0,0.0
13181,60.0,30.0,30.0,2.0,0.0
13182,72.0,0.0,60.0,7.0,0.0
13183,32.0,0.0,60.0,4.0,0.0
13184,68.0,0.0,60.0,5.0,0.0
13185,80.0,0.0,30.0,0.0,0.0
13186,58.0,0.0,30.0,2.0,0.0
13187,73.0,30.0,30.0,1.0,0.0
13188,79.0,0.0,30.0,0.0,0.0
13189,60.0,0.0,30.0,2.0,0.0
13190,75.0,30.0,30.0,1.0,0.0
13191,36.0,0.0,60.0,4.0,0.0
13192,48.0,0.0,60.0,6.0,0.0
13193,48.0,0.0,60.0,3.0,0.0
13194,80.0,0.0,30.0,0.0,0.0
13195,48.0,0.0,60.0,8.0,0.0
13196,56.0,30.0,30.0,2.0,0.0
13197,72.0,0.0,30.0,1.0,0.0
13198,75.0,0.0,30.0,0.0,0.0
13199,39.0,0.0,60.0,4.0,0.0
13200,51.0,0.0,60.0,6.0,0.0
13201,51.0,0.0,60.0,3.0,0.0
13202,68.0,30.0,30.0,1.0,0.0
13203,51.0,0.0,60.0,8.0,0.0
13204,72.0,0.0,30.0,0.0,0.0
13205,51.0,0.0,30.0,2.0,0.0
13206,56.0,0.0,30.0,2.0,0.0
13207,75.0,0.0,30.0,0.0,0.0
13208,72.0,60.0,30.0,1.0,0.0
13209,63.0,0.0,60.0,1.0,0.0
13210,56.0,30.0,60.0,8.0,0.0
13211,56.0,0.0,60.0,6.0,0.0
13212,60.0,0.0,60.0,2.0,0.0
13213,68.0,0.0,60.0,0.0,0.0
13214,56.0,0.0,60.0,3.0,0.0
13215,44.0,0.0,60.0,4.0,0.0
13216,42.0,0.0,60.0,3.0,0.0
13217,68.0,30.0,30.0,5.0,0.0
13218,30.0,60.0,60.0,4.0,0.0
13219,42.0,0.0,60.0,6.0,0.0
13220,42.0,0.0,60.0,8.0,0.0
13221,69.0,0.0,30.0,5.0,0.0
13222,41.0,0.0,60.0,6.0,0.0
13223,29.0,0.0,60.0,4.0,0.0
13224,41.0,0.0,60.0,3.0,0.0
13225,71.0,30.0,60.0,5.0,0.0
13226,41.0,0.0,60.0,8.0,0.0
13227,68.0,30.0,30.0,7.0,0.0
13228,29.0,0.0,60.0,4.0,0.0
13229,41.0,0.0,60.0,6.0,0.0
13230,41.0,0.0,60.0,3.0,0.0
13231,74.0,0.0,120.0,5.0,0.0
13232,41.0,60.0,60.0,8.0,0.0
13233,69.0,0.0,30.0,7.0,0.0
13234,41.0,0.0,60.0,6.0,0.0
13235,41.0,60.0,60.0,3.0,0.0
13236,71.0,0.0,60.0,7.0,0.0
13237,41.0,0.0,60.0,8.0,0.0
13238,29.0,0.0,60.0,4.0,0.0
13239,42.0,60.0,60.0,6.0,0.0
13240,42.0,0.0,60.0,8.0,0.0
13241,30.0,0.0,60.0,4.0,0.0
13242,69.0,0.0,60.0,7.0,0.0
13243,73.0,0.0,60.0,5.0,0.0
13244,42.0,0.0,60.0,3.0,0.0
13245,35.0,0.0,60.0,4.0,0.0
13246,47.0,0.0,60.0,3.0,0.0
13247,74.0,60.0,60.0,7.0,0.0
13248,47.0,0.0,60.0,6.0,0.0
13249,65.0,0.0,60.0,5.0,0.0
13250,47.0,0.0,60.0,8.0,0.0
13251,33.0,0.0,60.0,4.0,0.0
13252,45.0,0.0,60.0,8.0,0.0
13253,45.0,0.0,60.0,3.0,0.0
13254,73.0,0.0,60.0,7.0,0.0
13255,45.0,0.0,60.0,6.0,0.0
13256,66.0,30.0,60.0,5.0,0.0
13257,44.0,0.0,60.0,3.0,0.0
13258,65.0,60.0,60.0,7.0,0.0
13259,32.0,0.0,60.0,4.0,0.0
13260,44.0,0.0,60.0,6.0,0.0
13261,44.0,0.0,60.0,8.0,0.0
13262,71.0,30.0,30.0,5.0,0.0
13263,68.0,0.0,30.0,5.0,0.0
13264,42.0,30.0,60.0,8.0,0.0
13265,30.0,0.0,60.0,4.0,0.0
13266,42.0,0.0,60.0,3.0,0.0
13267,42.0,0.0,60.0,6.0,0.0
13268,69.0,0.0,60.0,5.0,0.0
13269,66.0,0.0,60.0,7.0,0.0
13270,71.0,30.0,30.0,7.0,0.0
13271,41.0,0.0,60.0,3.0,0.0
13272,41.0,31.0,60.0,8.0,0.0
13273,29.0,0.0,60.0,4.0,0.0
13274,41.0,0.0,60.0,6.0,0.0
13275,68.0,0.0,30.0,7.0,0.0
13276,30.0,1.0,60.0,4.0,0.0
13277,61.0,29.0,30.0,2.0,0.0
13278,69.0,0.0,60.0,7.0,0.0
13279,42.0,0.0,60.0,3.0,0.0
13280,66.0,0.0,30.0,1.0,0.0
13281,69.0,0.0,30.0,0.0,0.0
13282,42.0,0.0,60.0,6.0,0.0
13283,42.0,0.0,60.0,8.0,0.0
13284,59.0,59.0,30.0,2.0,0.0
13285,68.0,0.0,30.0,0.0,0.0
13286,65.0,0.0,30.0,1.0,0.0
13287,54.0,0.0,60.0,6.0,0.0
13288,54.0,0.0,60.0,8.0,0.0
13289,66.0,0.0,60.0,1.0,0.0
13290,61.0,0.0,60.0,2.0,0.0
13291,42.0,0.0,60.0,4.0,0.0
13292,54.0,0.0,60.0,3.0,0.0
13293,69.0,30.0,60.0,0.0,0.0
13294,40.0,0.0,60.0,4.0,0.0
13295,70.0,30.0,30.0,5.0,0.0
13296,42.0,0.0,60.0,8.0,0.0
13297,42.0,60.0,60.0,3.0,0.0
13298,42.0,0.0,60.0,6.0,0.0
13299,71.0,0.0,30.0,5.0,0.0
13300,43.0,0.0,60.0,6.0,0.0
13301,39.0,0.0,60.0,4.0,0.0
13302,43.0,30.0,60.0,8.0,0.0
13303,73.0,0.0,60.0,5.0,0.0
13304,43.0,0.0,60.0,3.0,0.0
13305,43.0,60.0,60.0,8.0,0.0
13306,43.0,0.0,60.0,6.0,0.0
13307,70.0,30.0,30.0,7.0,0.0
13308,31.0,0.0,60.0,4.0,0.0
13309,43.0,0.0,60.0,3.0,0.0
13310,76.0,0.0,120.0,5.0,0.0
13311,71.0,0.0,30.0,7.0,0.0
13312,43.0,0.0,60.0,6.0,0.0
13313,31.0,60.0,60.0,4.0,0.0
13314,73.0,0.0,60.0,7.0,0.0
13315,43.0,0.0,60.0,3.0,0.0
13316,43.0,0.0,60.0,8.0,0.0
13317,71.0,0.0,60.0,7.0,0.0
13318,44.0,0.0,60.0,3.0,0.0
13319,32.0,60.0,60.0,4.0,0.0
13320,75.0,0.0,60.0,5.0,0.0
13321,44.0,0.0,60.0,8.0,0.0
13322,44.0,0.0,60.0,6.0,0.0
13323,49.0,60.0,60.0,6.0,0.0
13324,37.0,0.0,60.0,4.0,0.0
13325,49.0,0.0,60.0,8.0,0.0
13326,76.0,0.0,60.0,7.0,0.0
13327,49.0,0.0,60.0,3.0,0.0
13328,67.0,0.0,60.0,5.0,0.0
13329,47.0,0.0,60.0,8.0,0.0
13330,47.0,30.0,60.0,3.0,0.0
13331,47.0,0.0,60.0,6.0,0.0
13332,75.0,0.0,60.0,7.0,0.0
13333,35.0,0.0,60.0,4.0,0.0
13334,68.0,0.0,60.0,5.0,0.0
13335,46.0,0.0,60.0,8.0,0.0
13336,67.0,60.0,60.0,7.0,0.0
13337,46.0,0.0,60.0,6.0,0.0
13338,73.0,30.0,30.0,5.0,0.0
13339,34.0,0.0,60.0,4.0,0.0
13340,46.0,0.0,60.0,3.0,0.0
13341,70.0,0.0,30.0,5.0,0.0
13342,44.0,30.0,60.0,6.0,0.0
13343,32.0,0.0,60.0,4.0,0.0
13344,44.0,0.0,60.0,8.0,0.0
13345,68.0,0.0,60.0,7.0,0.0
13346,72.0,0.0,60.0,5.0,0.0
13347,44.0,0.0,60.0,3.0,0.0
13348,31.0,0.0,60.0,4.0,0.0
13349,43.0,31.0,60.0,6.0,0.0
13350,43.0,0.0,60.0,3.0,0.0
13351,73.0,30.0,30.0,7.0,0.0
13352,43.0,0.0,60.0,8.0,0.0
13353,70.0,0.0,30.0,7.0,0.0
13354,44.0,1.0,60.0,6.0,0.0
13355,72.0,0.0,60.0,7.0,0.0
13356,68.0,0.0,30.0,1.0,0.0
13357,32.0,0.0,60.0,4.0,0.0
13358,44.0,0.0,60.0,8.0,0.0
13359,44.0,0.0,60.0,3.0,0.0
13360,63.0,29.0,30.0,2.0,0.0
13361,72.0,0.0,30.0,0.0,0.0
13362,70.0,0.0,30.0,0.0,0.0
13363,67.0,0.0,30.0,1.0,0.0
13364,61.0,59.0,30.0,2.0,0.0
13365,68.0,0.0,60.0,1.0,0.0
13366,56.0,1.0,60.0,8.0,0.0
13367,56.0,0.0,60.0,6.0,0.0
13368,72.0,29.0,60.0,0.0,0.0
13369,56.0,0.0,60.0,3.0,0.0
13370,44.0,0.0,60.0,4.0,0.0
13371,63.0,0.0,60.0,2.0,0.0
13372,54.0,0.0,60.0,3.0,0.0
13373,75.0,29.0,60.0,1.0,0.0
13374,54.0,0.0,60.0,6.0,0.0
13375,80.0,29.0,30.0,0.0,0.0
13376,80.0,1.0,30.0,5.0,0.0
13377,60.0,0.0,60.0,2.0,0.0
13378,42.0,0.0,60.0,4.0,0.0
13379,54.0,0.0,60.0,8.0,0.0
13380,79.0,0.0,30.0,0.0,0.0
13381,79.0,1.0,30.0,5.0,0.0
13382,52.0,0.0,60.0,6.0,0.0
13383,52.0,0.0,60.0,3.0,0.0
13384,56.0,0.0,60.0,2.0,0.0
13385,52.0,1.0,60.0,8.0,0.0
13386,73.0,0.0,60.0,1.0,0.0
13387,80.0,30.0,30.0,5.0,0.0
13388,40.0,0.0,60.0,4.0,0.0
13389,80.0,29.0,60.0,0.0,0.0
13390,75.0,0.0,30.0,5.0,0.0
13391,49.0,0.0,60.0,3.0,0.0
13392,49.0,30.0,60.0,6.0,0.0
13393,80.0,30.0,30.0,7.0,0.0
13394,37.0,0.0,60.0,4.0,0.0
13395,76.0,0.0,30.0,5.0,0.0
13396,49.0,0.0,60.0,8.0,0.0
13397,79.0,0.0,30.0,7.0,0.0
13398,73.0,0.0,30.0,5.0,0.0
13399,80.0,0.0,30.0,7.0,0.0
13400,75.0,30.0,30.0,5.0,0.0
13401,75.0,30.0,30.0,7.0,0.0
13402,72.0,0.0,30.0,5.0,0.0
13403,37.0,0.0,60.0,4.0,0.0
13404,73.0,0.0,30.0,5.0,0.0
13405,76.0,0.0,30.0,1.0,0.0
13406,61.0,0.0,60.0,2.0,0.0
13407,49.0,0.0,60.0,8.0,0.0
13408,76.0,1.0,30.0,7.0,0.0
13409,49.0,0.0,60.0,6.0,0.0
13410,49.0,1.0,60.0,3.0,0.0
13411,80.0,29.0,30.0,0.0,0.0
13412,70.0,0.0,30.0,5.0,0.0
13413,79.0,0.0,30.0,0.0,0.0
13414,73.0,29.0,30.0,1.0,0.0
13415,73.0,0.0,30.0,7.0,0.0
13416,42.0,0.0,60.0,4.0,0.0
13417,54.0,1.0,60.0,6.0,0.0
13418,54.0,0.0,60.0,3.0,0.0
13419,56.0,0.0,60.0,2.0,0.0
13420,80.0,29.0,60.0,0.0,0.0
13421,75.0,0.0,30.0,7.0,0.0
13422,54.0,0.0,60.0,8.0,0.0
13423,75.0,0.0,60.0,1.0,0.0
13424,72.0,30.0,30.0,5.0,0.0
13425,72.0,0.0,30.0,7.0,0.0
13426,68.0,0.0,30.0,5.0,0.0
13427,72.0,30.0,30.0,5.0,0.0
13428,52.0,0.0,60.0,3.0,0.0
13429,68.0,0.0,60.0,7.0,0.0
13430,40.0,0.0,60.0,4.0,0.0
13431,52.0,0.0,60.0,6.0,0.0
13432,52.0,30.0,60.0,8.0,0.0
13433,75.0,0.0,30.0,5.0,0.0
13434,78.0,30.0,30.0,5.0,0.0
13435,51.0,30.0,60.0,3.0,0.0
13436,51.0,0.0,60.0,8.0,0.0
13437,39.0,0.0,60.0,4.0,0.0
13438,51.0,0.0,60.0,6.0,0.0
13439,75.0,0.0,30.0,5.0,0.0
13440,49.0,0.0,60.0,8.0,0.0
13441,80.0,0.0,30.0,7.0,0.0
13442,76.0,1.0,30.0,5.0,0.0
13443,61.0,0.0,60.0,2.0,0.0
13444,68.0,0.0,30.0,0.0,0.0
13445,49.0,0.0,60.0,6.0,0.0
13446,37.0,1.0,60.0,4.0,0.0
13447,49.0,0.0,60.0,3.0,0.0
13448,68.0,29.0,30.0,1.0,0.0
13449,73.0,0.0,30.0,5.0,0.0
13450,76.0,0.0,30.0,7.0,0.0
13451,70.0,0.0,30.0,1.0,0.0
13452,67.0,29.0,30.0,0.0,0.0
13453,72.0,29.0,60.0,1.0,0.0
13454,78.0,0.0,30.0,7.0,0.0
13455,56.0,0.0,60.0,2.0,0.0
13456,68.0,0.0,60.0,0.0,0.0
13457,75.0,30.0,30.0,5.0,0.0
13458,75.0,1.0,30.0,7.0,0.0
13459,72.0,0.0,30.0,5.0,0.0
13460,73.0,30.0,30.0,5.0,0.0
13461,76.0,0.0,30.0,7.0,0.0
13462,44.0,30.0,60.0,6.0,0.0
13463,44.0,0.0,60.0,8.0,0.0
13464,32.0,0.0,60.0,4.0,0.0
13465,44.0,0.0,60.0,3.0,0.0
13466,70.0,0.0,30.0,5.0,0.0
13467,73.0,0.0,30.0,7.0,0.0
13468,56.0,0.0,30.0,6.0,0.0
13469,56.0,0.0,30.0,8.0,0.0
13470,75.0,0.0,30.0,7.0,0.0
13471,56.0,30.0,30.0,3.0,0.0
13472,44.0,0.0,30.0,4.0,0.0
13473,72.0,0.0,30.0,5.0,0.0
13474,54.0,0.0,30.0,6.0,0.0
13475,68.0,0.0,30.0,5.0,0.0
13476,54.0,0.0,30.0,8.0,0.0
13477,54.0,0.0,30.0,3.0,0.0
13478,72.0,30.0,30.0,7.0,0.0
13479,42.0,0.0,30.0,4.0,0.0
13480,52.0,0.0,30.0,6.0,0.0
13481,52.0,0.0,30.0,3.0,0.0
13482,40.0,0.0,30.0,4.0,0.0
13483,68.0,0.0,60.0,7.0,0.0
13484,52.0,30.0,30.0,8.0,0.0
13485,56.0,0.0,60.0,2.0,0.0
13486,66.0,59.0,60.0,0.0,0.0
13487,71.0,0.0,60.0,1.0,0.0
13488,72.0,0.0,30.0,5.0,0.0
13489,75.0,0.0,30.0,5.0,0.0
13490,51.0,0.0,30.0,6.0,0.0
13491,51.0,1.0,30.0,8.0,0.0
13492,39.0,0.0,30.0,4.0,0.0
13493,51.0,0.0,30.0,3.0,0.0
13494,56.0,0.0,60.0,2.0,0.0
13495,37.0,0.0,120.0,4.0,0.0
13496,73.0,29.0,60.0,1.0,0.0
13497,49.0,60.0,120.0,6.0,0.0
13498,64.0,0.0,60.0,0.0,0.0
13499,49.0,0.0,120.0,3.0,0.0
13500,76.0,1.0,60.0,5.0,0.0
13501,49.0,0.0,120.0,8.0,0.0
13502,68.0,30.0,30.0,7.0,0.0
13503,66.0,0.0,30.0,7.0,0.0
13504,68.0,60.0,60.0,7.0,0.0
13505,49.0,0.0,60.0,8.0,0.0
13506,76.0,60.0,60.0,7.0,0.0
13507,37.0,0.0,60.0,3.0,0.0
13508,25.0,0.0,60.0,4.0,0.0
13509,39.0,60.0,60.0,3.0,0.0
13510,72.0,0.0,60.0,7.0,0.0
13511,51.0,0.0,60.0,8.0,0.0
13512,27.0,0.0,60.0,4.0,0.0
13513,52.0,30.0,60.0,8.0,0.0
13514,73.0,0.0,60.0,7.0,0.0
13515,28.0,0.0,60.0,4.0,0.0
13516,40.0,0.0,60.0,3.0,0.0
13517,42.0,0.0,30.0,3.0,0.0
13518,54.0,30.0,30.0,8.0,0.0
13519,30.0,0.0,30.0,4.0,0.0
13520,32.0,0.0,30.0,4.0,0.0
13521,56.0,30.0,30.0,8.0,0.0
13522,44.0,0.0,30.0,3.0,0.0
13523,66.0,30.0,30.0,7.0,0.0
13524,45.0,0.0,60.0,3.0,0.0
13525,57.0,0.0,60.0,8.0,0.0
13526,33.0,60.0,60.0,4.0,0.0
13527,64.0,0.0,30.0,7.0,0.0
13528,66.0,60.0,60.0,7.0,0.0
13529,42.0,30.0,60.0,3.0,0.0
13530,30.0,0.0,60.0,4.0,0.0
13531,54.0,0.0,60.0,8.0,0.0
13532,75.0,30.0,90.0,7.0,0.0
13533,44.0,30.0,60.0,3.0,0.0
13534,32.0,0.0,60.0,4.0,0.0
13535,56.0,0.0,60.0,8.0,0.0
13536,73.0,0.0,30.0,7.0,0.0
13537,72.0,30.0,30.0,7.0,0.0
13538,57.0,0.0,60.0,8.0,0.0
13539,45.0,0.0,60.0,3.0,0.0
13540,33.0,30.0,60.0,4.0,0.0
13541,73.0,0.0,30.0,7.0,0.0
13542,75.0,30.0,30.0,7.0,0.0
13543,48.0,0.0,30.0,8.0,0.0
13544,36.0,0.0,30.0,3.0,0.0
13545,24.0,0.0,30.0,4.0,0.0
13546,25.0,0.0,30.0,4.0,0.0
13547,49.0,0.0,30.0,8.0,0.0
13548,73.0,30.0,30.0,7.0,0.0
13549,37.0,0.0,30.0,3.0,0.0
13550,72.0,30.0,30.0,7.0,0.0
13551,39.0,0.0,60.0,3.0,0.0
13552,51.0,30.0,60.0,8.0,0.0
13553,27.0,0.0,60.0,4.0,0.0
13554,70.0,0.0,30.0,7.0,0.0
13555,68.0,30.0,30.0,7.0,0.0
13556,66.0,60.0,30.0,7.0,0.0
13557,48.0,0.0,60.0,3.0,0.0
13558,36.0,60.0,60.0,4.0,0.0
13559,48.0,0.0,60.0,8.0,0.0
13560,69.0,60.0,120.0,7.0,0.0
13561,49.0,0.0,60.0,8.0,0.0
13562,37.0,0.0,60.0,4.0,0.0
13563,49.0,0.0,60.0,3.0,0.0
13564,68.0,30.0,90.0,7.0,0.0
13565,39.0,0.0,60.0,4.0,0.0
13566,51.0,0.0,60.0,3.0,0.0
13567,51.0,30.0,60.0,8.0,0.0
13568,40.0,0.0,30.0,4.0,0.0
13569,52.0,0.0,30.0,8.0,0.0
13570,52.0,0.0,30.0,3.0,0.0
13571,54.0,0.0,30.0,3.0,0.0
13572,66.0,0.0,30.0,7.0,0.0
13573,54.0,0.0,30.0,8.0,0.0
13574,42.0,30.0,30.0,4.0,0.0
13575,52.0,0.0,30.0,2.0,0.0
13576,61.0,29.0,30.0,0.0,0.0
13577,56.0,0.0,60.0,8.0,0.0
13578,44.0,1.0,60.0,4.0,0.0
13579,56.0,0.0,30.0,1.0,0.0
13580,56.0,0.0,60.0,3.0,0.0
13581,64.0,1.0,30.0,7.0,0.0
13582,63.0,0.0,30.0,0.0,0.0
13583,57.0,29.0,30.0,1.0,0.0
13584,54.0,0.0,30.0,2.0,0.0
13585,63.0,0.0,30.0,7.0,0.0
13586,52.0,0.0,60.0,2.0,0.0
13587,61.0,29.0,60.0,0.0,0.0
13588,56.0,0.0,60.0,1.0,0.0
13589,64.0,30.0,30.0,7.0,0.0
13590,61.0,1.0,30.0,7.0,0.0
13591,63.0,30.0,30.0,7.0,0.0
13592,32.0,0.0,60.0,4.0,0.0
13593,44.0,30.0,60.0,3.0,0.0
13594,44.0,0.0,60.0,8.0,0.0
13595,60.0,0.0,30.0,7.0,0.0
13596,61.0,30.0,30.0,7.0,0.0
13597,28.0,30.0,60.0,4.0,0.0
13598,40.0,0.0,60.0,8.0,0.0
13599,40.0,0.0,60.0,3.0,0.0
13600,56.0,0.0,30.0,7.0,0.0
13601,61.0,0.0,30.0,1.0,0.0
13602,44.0,0.0,60.0,8.0,0.0
13603,56.0,0.0,30.0,2.0,0.0
13604,32.0,1.0,60.0,4.0,0.0
13605,44.0,0.0,60.0,3.0,0.0
13606,61.0,1.0,30.0,7.0,0.0
13607,64.0,29.0,30.0,0.0,0.0
13608,60.0,0.0,30.0,7.0,0.0
13609,63.0,0.0,30.0,1.0,0.0
13610,66.0,0.0,30.0,0.0,0.0
13611,57.0,29.0,30.0,2.0,0.0
13612,61.0,30.0,30.0,7.0,0.0
13613,64.0,0.0,60.0,0.0,0.0
13614,61.0,29.0,60.0,1.0,0.0
13615,37.0,1.0,120.0,3.0,0.0
13616,25.0,0.0,120.0,4.0,0.0
13617,56.0,0.0,60.0,2.0,0.0
13618,37.0,0.0,120.0,8.0,0.0
13619,37.0,0.0,60.0,6.0,0.0
13620,56.0,1.0,30.0,7.0,0.0
13621,49.0,29.0,60.0,6.0,0.0
13622,64.0,30.0,30.0,7.0,0.0
13623,68.0,0.0,30.0,5.0,0.0
13624,63.0,0.0,30.0,7.0,0.0
13625,66.0,0.0,30.0,5.0,0.0
13626,64.0,30.0,30.0,7.0,0.0
13627,68.0,0.0,60.0,5.0,0.0
13628,61.0,30.0,30.0,7.0,0.0
13629,52.0,0.0,60.0,8.0,0.0
13630,76.0,0.0,60.0,5.0,0.0
13631,25.0,0.0,60.0,4.0,0.0
13632,49.0,0.0,60.0,6.0,0.0
13633,68.0,30.0,30.0,7.0,0.0
13634,37.0,30.0,60.0,3.0,0.0
13635,64.0,0.0,30.0,7.0,0.0
13636,51.0,0.0,60.0,6.0,0.0
13637,51.0,30.0,60.0,8.0,0.0
13638,32.0,0.0,60.0,4.0,0.0
13639,72.0,0.0,60.0,5.0,0.0
13640,66.0,30.0,30.0,7.0,0.0
13641,44.0,0.0,60.0,3.0,0.0
13642,63.0,0.0,30.0,7.0,0.0
13643,52.0,0.0,60.0,6.0,0.0
13644,37.0,0.0,60.0,4.0,0.0
13645,64.0,30.0,30.0,7.0,0.0
13646,49.0,0.0,60.0,3.0,0.0
13647,73.0,0.0,60.0,5.0,0.0
13648,49.0,30.0,60.0,8.0,0.0
13649,61.0,0.0,30.0,7.0,0.0
13650,56.0,0.0,60.0,8.0,0.0
13651,44.0,0.0,120.0,3.0,0.0
13652,51.0,0.0,30.0,6.0,0.0
13653,32.0,0.0,120.0,4.0,0.0
13654,60.0,30.0,30.0,7.0,0.0
13655,49.0,30.0,30.0,6.0,0.0
13656,68.0,0.0,30.0,7.0,0.0
13657,75.0,30.0,30.0,7.0,0.0
13658,48.0,0.0,60.0,6.0,0.0
13659,66.0,0.0,30.0,5.0,0.0
13660,44.0,0.0,60.0,8.0,0.0
13661,73.0,0.0,30.0,7.0,0.0
13662,64.0,30.0,30.0,5.0,0.0
13663,66.0,29.0,60.0,5.0,0.0
13664,75.0,30.0,30.0,7.0,0.0
13665,68.0,1.0,30.0,7.0,0.0
13666,51.0,0.0,60.0,8.0,0.0
13667,75.0,30.0,90.0,5.0,0.0
13668,78.0,30.0,30.0,7.0,0.0
13669,32.0,0.0,60.0,4.0,0.0
13670,44.0,30.0,60.0,3.0,0.0
13671,60.0,0.0,60.0,6.0,0.0
13672,77.0,0.0,30.0,7.0,0.0
13673,56.0,0.0,60.0,6.0,0.0
13674,36.0,0.0,60.0,4.0,0.0
13675,78.0,0.0,30.0,7.0,0.0
13676,48.0,30.0,60.0,3.0,0.0
13677,48.0,0.0,60.0,8.0,0.0
13678,75.0,0.0,30.0,7.0,0.0
13679,73.0,0.0,30.0,5.0,0.0
13680,44.0,0.0,60.0,8.0,0.0
13681,51.0,0.0,60.0,3.0,0.0
13682,80.0,30.0,30.0,7.0,0.0
13683,51.0,0.0,60.0,6.0,0.0
13684,39.0,0.0,60.0,4.0,0.0
13685,72.0,0.0,30.0,5.0,0.0
13686,73.0,0.0,30.0,5.0,0.0
13687,76.0,30.0,30.0,7.0,0.0
13688,48.0,0.0,60.0,6.0,0.0
13689,56.0,0.0,120.0,3.0,0.0
13690,75.0,30.0,30.0,5.0,0.0
13691,44.0,0.0,120.0,4.0,0.0
13692,56.0,30.0,60.0,8.0,0.0
13693,78.0,0.0,60.0,7.0,0.0
13694,73.0,0.0,30.0,5.0,0.0
13695,72.0,30.0,30.0,5.0,0.0
13696,51.0,0.0,60.0,6.0,0.0
13697,56.0,0.0,90.0,7.0,0.0
13698,44.0,0.0,60.0,8.0,0.0
13699,70.0,30.0,30.0,5.0,0.0
13700,68.0,30.0,30.0,5.0,0.0
13701,48.0,30.0,60.0,8.0,0.0
13702,56.0,0.0,60.0,6.0,0.0
13703,66.0,0.0,30.0,5.0,0.0
13704,58.0,0.0,30.0,7.0,0.0
13705,51.0,0.0,60.0,6.0,0.0
13706,51.0,0.0,60.0,3.0,0.0
13707,51.0,0.0,60.0,8.0,0.0
13708,39.0,0.0,60.0,4.0,0.0
13709,60.0,30.0,30.0,7.0,0.0
13710,69.0,0.0,120.0,5.0,0.0
13711,61.0,30.0,30.0,7.0,0.0
13712,48.0,30.0,60.0,8.0,0.0
13713,36.0,0.0,60.0,4.0,0.0
13714,48.0,0.0,60.0,6.0,0.0
13715,48.0,0.0,60.0,3.0,0.0
13716,63.0,30.0,30.0,7.0,0.0
13717,64.0,0.0,30.0,7.0,0.0
13718,66.0,30.0,30.0,7.0,0.0
13719,68.0,30.0,90.0,5.0,0.0
13720,44.0,0.0,60.0,6.0,0.0
13721,44.0,0.0,60.0,8.0,0.0
13722,32.0,30.0,60.0,4.0,0.0
13723,44.0,0.0,60.0,3.0,0.0
13724,63.0,0.0,30.0,7.0,0.0
13725,49.0,0.0,60.0,6.0,0.0
13726,49.0,0.0,120.0,3.0,0.0
13727,64.0,0.0,30.0,7.0,0.0
13728,37.0,0.0,120.0,4.0,0.0
13729,37.0,0.0,60.0,8.0,0.0
13730,69.0,0.0,30.0,7.0,0.0
13731,66.0,30.0,30.0,5.0,0.0
13732,68.0,29.0,30.0,0.0,0.0
13733,37.0,0.0,60.0,6.0,0.0
13734,61.0,0.0,60.0,2.0,0.0
13735,64.0,0.0,30.0,1.0,0.0
13736,49.0,1.0,60.0,8.0,0.0
13737,68.0,1.0,30.0,7.0,0.0
13738,64.0,0.0,30.0,5.0,0.0
13739,66.0,0.0,30.0,1.0,0.0
13740,66.0,0.0,30.0,7.0,0.0
13741,69.0,29.0,30.0,0.0,0.0
13742,63.0,0.0,30.0,5.0,0.0
13743,68.0,0.0,60.0,0.0,0.0
13744,64.0,30.0,30.0,5.0,0.0
13745,61.0,29.0,60.0,2.0,0.0
13746,68.0,0.0,30.0,7.0,0.0
13747,64.0,0.0,60.0,1.0,0.0
13748,64.0,0.0,30.0,7.0,0.0
13749,61.0,1.0,30.0,5.0,0.0
13750,44.0,0.0,60.0,8.0,0.0
13751,32.0,0.0,60.0,6.0,0.0
13752,66.0,0.0,30.0,7.0,0.0
13753,32.0,0.0,60.0,4.0,0.0
13754,63.0,30.0,30.0,5.0,0.0
13755,44.0,30.0,60.0,3.0,0.0
13756,63.0,0.0,30.0,7.0,0.0
13757,60.0,0.0,30.0,5.0,0.0
13758,40.0,0.0,60.0,3.0,0.0
13759,40.0,0.0,60.0,6.0,0.0
13760,28.0,0.0,60.0,4.0,0.0
13761,61.0,30.0,30.0,5.0,0.0
13762,40.0,30.0,60.0,8.0,0.0
13763,64.0,0.0,30.0,7.0,0.0
13764,68.0,0.0,30.0,7.0,0.0
13765,56.0,0.0,30.0,5.0,0.0
13766,44.0,0.0,60.0,8.0,0.0
13767,64.0,0.0,30.0,7.0,0.0
13768,32.0,0.0,60.0,4.0,0.0
13769,61.0,1.0,30.0,5.0,0.0
13770,44.0,1.0,60.0,6.0,0.0
13771,44.0,0.0,60.0,3.0,0.0
13772,64.0,0.0,30.0,2.0,0.0
13773,68.0,29.0,30.0,1.0,0.0
13774,73.0,0.0,30.0,0.0,0.0
13775,66.0,0.0,30.0,2.0,0.0
13776,63.0,0.0,30.0,7.0,0.0
13777,75.0,0.0,30.0,0.0,0.0
13778,60.0,0.0,30.0,5.0,0.0
13779,69.0,29.0,30.0,1.0,0.0
13780,25.0,30.0,120.0,4.0,0.0
13781,37.0,0.0,120.0,8.0,0.0
13782,37.0,0.0,120.0,3.0,0.0
13783,73.0,0.0,60.0,0.0,0.0
13784,64.0,0.0,30.0,7.0,0.0
13785,64.0,0.0,60.0,2.0,0.0
13786,68.0,29.0,60.0,1.0,0.0
13787,49.0,0.0,60.0,6.0,0.0
13788,61.0,30.0,30.0,5.0,0.0
13789,56.0,0.0,30.0,5.0,0.0
13790,68.0,1.0,30.0,7.0,0.0
13791,64.0,0.0,30.0,5.0,0.0
13792,61.0,0.0,30.0,7.0,0.0
13793,56.0,30.0,30.0,6.0,0.0
13794,60.0,0.0,30.0,7.0,0.0
13795,54.0,0.0,30.0,6.0,0.0
13796,63.0,0.0,30.0,5.0,0.0
13797,71.0,0.0,60.0,1.0,0.0
13798,65.0,29.0,60.0,2.0,0.0
13799,80.0,0.0,60.0,0.0,0.0
13800,65.0,30.0,30.0,5.0,0.0
13801,61.0,0.0,30.0,7.0,0.0
13802,56.0,0.0,60.0,6.0,0.0
13803,68.0,0.0,30.0,7.0,0.0
13804,61.0,1.0,30.0,5.0,0.0
13805,37.0,0.0,60.0,4.0,0.0
13806,68.0,30.0,30.0,5.0,0.0
13807,49.0,0.0,60.0,8.0,0.0
13808,53.0,0.0,60.0,6.0,0.0
13809,49.0,0.0,60.0,3.0,0.0
13810,59.0,0.0,30.0,7.0,0.0
13811,57.0,0.0,30.0,7.0,0.0
13812,66.0,30.0,30.0,5.0,0.0
13813,68.0,30.0,30.0,5.0,0.0
13814,44.0,0.0,60.0,8.0,0.0
13815,59.0,0.0,30.0,7.0,0.0
13816,53.0,0.0,60.0,3.0,0.0
13817,49.0,30.0,60.0,6.0,0.0
13818,41.0,0.0,60.0,4.0,0.0
13819,68.0,0.0,30.0,7.0,0.0
13820,61.0,0.0,30.0,5.0,0.0
13821,66.0,0.0,30.0,5.0,0.0
13822,49.0,0.0,60.0,3.0,0.0
13823,37.0,0.0,60.0,4.0,0.0
13824,57.0,30.0,30.0,7.0,0.0
13825,49.0,0.0,60.0,8.0,0.0
13826,37.0,30.0,60.0,6.0,0.0
13827,68.0,0.0,30.0,5.0,0.0
13828,56.0,0.0,30.0,7.0,0.0
13829,45.0,1.0,60.0,8.0,0.0
13830,54.0,30.0,30.0,7.0,0.0
13831,61.0,29.0,60.0,2.0,0.0
13832,54.0,0.0,120.0,6.0,0.0
13833,78.0,0.0,60.0,0.0,0.0
13834,69.0,0.0,60.0,1.0,0.0
13835,42.0,0.0,120.0,4.0,0.0
13836,54.0,0.0,120.0,3.0,0.0
13837,69.0,0.0,30.0,5.0,0.0
13838,73.0,0.0,30.0,5.0,0.0
13839,49.0,0.0,30.0,7.0,0.0
13840,49.0,29.0,30.0,8.0,0.0
13841,66.0,1.0,30.0,5.0,0.0
13842,57.0,0.0,30.0,7.0,0.0
13843,65.0,0.0,30.0,5.0,0.0
13844,56.0,1.0,30.0,7.0,0.0
13845,47.0,29.0,30.0,8.0,0.0
13846,73.0,29.0,60.0,1.0,0.0
13847,76.0,0.0,60.0,0.0,0.0
13848,49.0,1.0,60.0,8.0,0.0
13849,66.0,30.0,30.0,5.0,0.0
13850,58.0,0.0,30.0,7.0,0.0
13851,70.0,0.0,60.0,2.0,0.0
13852,54.0,0.0,30.0,7.0,0.0
13853,73.0,0.0,30.0,5.0,0.0
13854,54.0,0.0,60.0,6.0,0.0
13855,64.0,30.0,30.0,5.0,0.0
13856,42.0,0.0,60.0,3.0,0.0
13857,30.0,0.0,60.0,4.0,0.0
13858,46.0,0.0,60.0,8.0,0.0
13859,61.0,0.0,30.0,7.0,0.0
13860,59.0,0.0,30.0,7.0,0.0
13861,63.0,30.0,30.0,5.0,0.0
13862,49.0,0.0,60.0,6.0,0.0
13863,64.0,0.0,30.0,5.0,0.0
13864,46.0,0.0,60.0,3.0,0.0
13865,42.0,30.0,60.0,8.0,0.0
13866,34.0,0.0,60.0,4.0,0.0
13867,61.0,30.0,30.0,7.0,0.0
13868,73.0,0.0,30.0,5.0,0.0
13869,58.0,0.0,30.0,7.0,0.0
13870,42.0,0.0,60.0,3.0,0.0
13871,30.0,0.0,60.0,4.0,0.0
13872,54.0,0.0,60.0,6.0,0.0
13873,63.0,30.0,30.0,5.0,0.0
13874,63.0,0.0,30.0,7.0,0.0
13875,54.0,30.0,60.0,8.0,0.0
13876,61.0,0.0,30.0,5.0,0.0
13877,65.0,0.0,30.0,7.0,0.0
13878,67.0,0.0,60.0,1.0,0.0
13879,75.0,0.0,60.0,0.0,0.0
13880,63.0,30.0,30.0,5.0,0.0
13881,67.0,0.0,30.0,7.0,0.0
13882,58.0,29.0,60.0,2.0,0.0
13883,39.0,30.0,120.0,3.0,0.0
13884,55.0,0.0,60.0,6.0,0.0
13885,27.0,0.0,120.0,4.0,0.0
13886,51.0,0.0,120.0,8.0,0.0
13887,58.0,0.0,30.0,5.0,0.0
13888,70.0,1.0,30.0,7.0,0.0
13889,67.0,0.0,30.0,5.0,0.0
13890,63.0,0.0,30.0,7.0,0.0
13891,58.0,30.0,30.0,6.0,0.0
13892,65.0,0.0,30.0,5.0,0.0
13893,62.0,0.0,30.0,7.0,0.0
13894,56.0,0.0,30.0,6.0,0.0
13895,58.0,1.0,60.0,6.0,0.0
13896,70.0,0.0,60.0,1.0,0.0
13897,63.0,29.0,60.0,2.0,0.0
13898,63.0,30.0,30.0,7.0,0.0
13899,73.0,0.0,60.0,0.0,0.0
13900,67.0,0.0,30.0,5.0,0.0
13901,63.0,0.0,30.0,5.0,0.0
13902,70.0,0.0,30.0,7.0,0.0
13903,61.0,30.0,30.0,7.0,0.0
13904,39.0,30.0,60.0,4.0,0.0
13905,55.0,0.0,60.0,6.0,0.0
13906,70.0,0.0,30.0,5.0,0.0
13907,51.0,0.0,60.0,8.0,0.0
13908,51.0,0.0,60.0,3.0,0.0
13909,68.0,0.0,30.0,5.0,0.0
13910,59.0,0.0,30.0,7.0,0.0
13911,51.0,0.0,60.0,6.0,0.0
13912,70.0,0.0,30.0,5.0,0.0
13913,43.0,0.0,60.0,4.0,0.0
13914,55.0,30.0,60.0,3.0,0.0
13915,46.0,0.0,60.0,8.0,0.0
13916,61.0,30.0,30.0,7.0,0.0
13917,70.0,0.0,30.0,7.0,0.0
13918,63.0,0.0,30.0,5.0,0.0
13919,59.0,30.0,30.0,7.0,0.0
13920,51.0,0.0,60.0,8.0,0.0
13921,68.0,0.0,30.0,5.0,0.0
13922,39.0,0.0,60.0,4.0,0.0
13923,39.0,30.0,60.0,6.0,0.0
13924,51.0,0.0,60.0,3.0,0.0
13925,58.0,0.0,30.0,7.0,0.0
13926,70.0,0.0,30.0,5.0,0.0
13927,71.0,1.0,30.0,5.0,0.0
13928,44.0,29.0,30.0,8.0,0.0
13929,56.0,0.0,30.0,7.0,0.0
13930,68.0,0.0,60.0,1.0,0.0
13931,44.0,0.0,120.0,4.0,0.0
13932,56.0,1.0,120.0,3.0,0.0
13933,71.0,0.0,60.0,0.0,0.0
13934,44.0,0.0,60.0,6.0,0.0
13935,63.0,29.0,60.0,2.0,0.0
13936,75.0,1.0,30.0,5.0,0.0
13937,43.0,0.0,30.0,8.0,0.0
13938,51.0,0.0,30.0,7.0,0.0
13939,68.0,0.0,30.0,5.0,0.0
13940,51.0,0.0,60.0,6.0,0.0
13941,59.0,1.0,30.0,7.0,0.0
13942,44.0,29.0,30.0,8.0,0.0
13943,67.0,0.0,30.0,5.0,0.0
13944,46.0,29.0,30.0,8.0,0.0
13945,58.0,0.0,30.0,7.0,0.0
13946,68.0,0.0,30.0,5.0,0.0
13947,59.0,30.0,30.0,7.0,0.0
13948,56.0,0.0,60.0,6.0,0.0
13949,62.0,29.0,60.0,1.0,0.0
13950,65.0,0.0,60.0,2.0,0.0
13951,68.0,0.0,60.0,0.0,0.0
13952,44.0,1.0,60.0,8.0,0.0
13953,56.0,0.0,30.0,7.0,0.0
13954,77.0,0.0,30.0,5.0,0.0
13955,41.0,30.0,60.0,8.0,0.0
13956,65.0,30.0,30.0,7.0,0.0
13957,41.0,0.0,60.0,4.0,0.0
13958,68.0,0.0,30.0,5.0,0.0
13959,53.0,0.0,60.0,3.0,0.0
13960,59.0,0.0,60.0,6.0,0.0
13961,63.0,0.0,30.0,7.0,0.0
13962,67.0,0.0,30.0,5.0,0.0
13963,65.0,0.0,30.0,7.0,0.0
13964,38.0,0.0,60.0,4.0,0.0
13965,50.0,0.0,60.0,3.0,0.0
13966,68.0,30.0,30.0,5.0,0.0
13967,53.0,0.0,60.0,6.0,0.0
13968,38.0,0.0,60.0,8.0,0.0
13969,77.0,0.0,30.0,5.0,0.0
13970,58.0,30.0,30.0,7.0,0.0
13971,46.0,0.0,60.0,3.0,0.0
13972,63.0,30.0,30.0,7.0,0.0
13973,50.0,0.0,60.0,6.0,0.0
13974,66.0,0.0,30.0,5.0,0.0
13975,34.0,30.0,60.0,8.0,0.0
13976,34.0,0.0,60.0,4.0,0.0
13977,65.0,0.0,30.0,5.0,0.0
13978,65.0,0.0,30.0,7.0,0.0
13979,58.0,0.0,60.0,1.0,0.0
13980,39.0,0.0,120.0,3.0,0.0
13981,27.0,0.0,120.0,4.0,0.0
13982,51.0,29.0,30.0,6.0,0.0
13983,39.0,0.0,60.0,8.0,0.0
13984,63.0,0.0,30.0,5.0,0.0
13985,66.0,0.0,60.0,0.0,0.0
13986,63.0,0.0,60.0,2.0,0.0
13987,66.0,1.0,30.0,7.0,0.0
13988,66.0,0.0,30.0,5.0,0.0
13989,39.0,29.0,30.0,6.0,0.0
13990,58.0,1.0,30.0,7.0,0.0
13991,70.0,1.0,30.0,5.0,0.0
13992,63.0,0.0,30.0,7.0,0.0
13993,42.0,29.0,30.0,6.0,0.0
13994,51.0,0.0,60.0,8.0,0.0
13995,75.0,1.0,30.0,5.0,0.0
13996,46.0,29.0,30.0,6.0,0.0
13997,66.0,0.0,30.0,7.0,0.0
13998,66.0,29.0,60.0,1.0,0.0
13999,51.0,1.0,60.0,6.0,0.0
14000,71.0,0.0,60.0,0.0,0.0
14001,78.0,30.0,30.0,5.0,0.0
14002,63.0,0.0,60.0,2.0,0.0
14003,59.0,0.0,60.0,7.0,0.0
14004,42.0,0.0,30.0,8.0,0.0
14005,75.0,0.0,30.0,5.0,0.0
14006,44.0,0.0,30.0,8.0,0.0
14007,71.0,30.0,90.0,7.0,0.0
14008,30.0,0.0,60.0,4.0,0.0
14009,42.0,0.0,60.0,3.0,0.0
14010,76.0,30.0,30.0,5.0,0.0
14011,46.0,30.0,30.0,8.0,0.0
14012,73.0,0.0,30.0,5.0,0.0
14013,23.0,0.0,60.0,4.0,0.0
14014,75.0,0.0,60.0,5.0,0.0
14015,35.0,0.0,60.0,3.0,0.0
14016,47.0,0.0,60.0,8.0,0.0
14017,68.0,1.0,30.0,7.0,0.0
14018,47.0,29.0,30.0,6.0,0.0
14019,39.0,1.0,60.0,3.0,0.0
14020,78.0,0.0,90.0,5.0,0.0
14021,27.0,0.0,60.0,4.0,0.0
14022,35.0,0.0,60.0,8.0,0.0
14023,70.0,1.0,30.0,7.0,0.0
14024,49.0,29.0,30.0,6.0,0.0
14025,51.0,29.0,30.0,6.0,0.0
14026,67.0,0.0,30.0,7.0,0.0
14027,68.0,1.0,30.0,7.0,0.0
14028,40.0,0.0,60.0,8.0,0.0
14029,64.0,0.0,60.0,1.0,0.0
14030,28.0,0.0,120.0,4.0,0.0
14031,40.0,0.0,120.0,3.0,0.0
14032,59.0,29.0,60.0,2.0,0.0
14033,52.0,29.0,30.0,6.0,0.0
14034,68.0,0.0,60.0,0.0,0.0
14035,59.0,1.0,30.0,7.0,0.0
14036,40.0,0.0,30.0,6.0,0.0
14037,68.0,0.0,30.0,5.0,0.0
14038,52.0,0.0,60.0,8.0,0.0
14039,71.0,0.0,30.0,5.0,0.0
14040,44.0,29.0,30.0,6.0,0.0
14041,64.0,1.0,30.0,7.0,0.0
14042,76.0,0.0,30.0,5.0,0.0
14043,68.0,1.0,30.0,7.0,0.0
14044,47.0,29.0,30.0,6.0,0.0
14045,61.0,1.0,60.0,7.0,0.0
14046,52.0,0.0,60.0,6.0,0.0
14047,68.0,0.0,60.0,1.0,0.0
14048,64.0,29.0,60.0,2.0,0.0
14049,80.0,30.0,30.0,5.0,0.0
14050,73.0,0.0,60.0,0.0,0.0
14051,44.0,0.0,30.0,8.0,0.0
14052,76.0,0.0,30.0,5.0,0.0
14053,44.0,30.0,60.0,3.0,0.0
14054,32.0,0.0,60.0,4.0,0.0
14055,78.0,30.0,30.0,5.0,0.0
14056,46.0,0.0,30.0,8.0,0.0
14057,73.0,30.0,90.0,7.0,0.0
14058,47.0,0.0,30.0,8.0,0.0
14059,75.0,0.0,30.0,5.0,0.0
14060,77.0,0.0,60.0,5.0,0.0
14061,49.0,0.0,60.0,8.0,0.0
14062,25.0,1.0,60.0,4.0,0.0
14063,37.0,0.0,60.0,3.0,0.0
14064,70.0,0.0,30.0,7.0,0.0
14065,49.0,29.0,30.0,6.0,0.0
14066,37.0,0.0,60.0,8.0,0.0
14067,41.0,0.0,60.0,3.0,0.0
14068,80.0,0.0,90.0,5.0,0.0
14069,29.0,1.0,60.0,4.0,0.0
14070,71.0,1.0,30.0,7.0,0.0
14071,51.0,29.0,30.0,6.0,0.0
14072,68.0,0.0,30.0,7.0,0.0
14073,53.0,29.0,30.0,6.0,0.0
14074,30.0,0.0,120.0,4.0,0.0
14075,42.0,0.0,60.0,8.0,0.0
14076,61.0,0.0,60.0,2.0,0.0
14077,54.0,29.0,30.0,6.0,0.0
14078,70.0,1.0,30.0,7.0,0.0
14079,70.0,0.0,60.0,0.0,0.0
14080,42.0,0.0,120.0,3.0,0.0
14081,66.0,0.0,60.0,1.0,0.0
14082,61.0,1.0,30.0,7.0,0.0
14083,42.0,29.0,30.0,6.0,0.0
14084,70.0,0.0,30.0,5.0,0.0
14085,73.0,0.0,30.0,5.0,0.0
14086,46.0,29.0,30.0,6.0,0.0
14087,66.0,1.0,30.0,7.0,0.0
14088,54.0,0.0,60.0,8.0,0.0
14089,49.0,29.0,30.0,6.0,0.0
14090,78.0,1.0,30.0,5.0,0.0
14091,70.0,0.0,30.0,7.0,0.0
14092,63.0,0.0,60.0,7.0,0.0
14093,75.0,0.0,60.0,0.0,0.0
14094,82.0,30.0,30.0,5.0,0.0
14095,70.0,29.0,60.0,1.0,0.0
14096,55.0,0.0,60.0,2.0,0.0
14097,55.0,0.0,60.0,6.0,0.0
14098,46.0,1.0,30.0,8.0,0.0
14099,79.0,0.0,30.0,5.0,0.0
14100,75.0,30.0,90.0,7.0,0.0
14101,46.0,30.0,60.0,3.0,0.0
14102,34.0,0.0,60.0,4.0,0.0
14103,80.0,30.0,30.0,5.0,0.0
14104,47.0,0.0,30.0,8.0,0.0
14105,49.0,0.0,30.0,8.0,0.0
14106,77.0,0.0,30.0,5.0,0.0
14107,39.0,0.0,60.0,3.0,0.0
14108,27.0,0.0,60.0,4.0,0.0
14109,51.0,0.0,60.0,8.0,0.0
14110,79.0,30.0,60.0,5.0,0.0
14111,71.0,0.0,30.0,7.0,0.0
14112,51.0,0.0,30.0,6.0,0.0
14113,53.0,0.0,30.0,6.0,0.0
14114,82.0,30.0,90.0,5.0,0.0
14115,73.0,30.0,30.0,7.0,0.0
14116,43.0,0.0,60.0,3.0,0.0
14117,39.0,0.0,60.0,8.0,0.0
14118,31.0,0.0,60.0,4.0,0.0
14119,70.0,30.0,30.0,7.0,0.0
14120,55.0,0.0,30.0,6.0,0.0
14121,56.0,0.0,60.0,6.0,0.0
14122,71.0,0.0,60.0,0.0,0.0
14123,44.0,0.0,120.0,8.0,0.0
14124,68.0,29.0,60.0,1.0,0.0
14125,71.0,1.0,60.0,7.0,0.0
14126,32.0,0.0,120.0,4.0,0.0
14127,44.0,1.0,120.0,3.0,0.0
14128,63.0,0.0,60.0,2.0,0.0
14129,63.0,0.0,30.0,5.0,0.0
14130,68.0,1.0,30.0,5.0,0.0
14131,68.0,29.0,30.0,0.0,0.0
14132,63.0,0.0,60.0,7.0,0.0
14133,47.0,0.0,30.0,6.0,0.0
14134,67.0,29.0,30.0,0.0,0.0
14135,51.0,0.0,30.0,6.0,0.0
14136,70.0,0.0,30.0,5.0,0.0
14137,59.0,0.0,60.0,7.0,0.0
14138,71.0,30.0,30.0,5.0,0.0
14139,44.0,1.0,60.0,6.0,0.0
14140,68.0,29.0,60.0,0.0,0.0
14141,68.0,0.0,30.0,5.0,0.0
14142,63.0,29.0,30.0,1.0,0.0
14143,56.0,1.0,60.0,8.0,0.0
14144,63.0,1.0,30.0,5.0,0.0
14145,68.0,0.0,30.0,5.0,0.0
14146,61.0,29.0,30.0,1.0,0.0
14147,63.0,29.0,60.0,1.0,0.0
14148,51.0,0.0,60.0,8.0,0.0
14149,59.0,30.0,30.0,5.0,0.0
14150,44.0,0.0,30.0,6.0,0.0
14151,63.0,1.0,30.0,5.0,0.0
14152,56.0,1.0,60.0,8.0,0.0
14153,47.0,0.0,30.0,6.0,0.0
14154,56.0,1.0,30.0,5.0,0.0
14155,59.0,29.0,30.0,2.0,0.0
14156,51.0,0.0,30.0,6.0,0.0
14157,63.0,0.0,30.0,5.0,0.0
14158,58.0,29.0,30.0,2.0,0.0
14159,54.0,30.0,30.0,5.0,0.0
14160,60.0,0.0,60.0,2.0,0.0
14161,54.0,29.0,60.0,6.0,0.0
14162,32.0,1.0,120.0,4.0,0.0
14163,44.0,0.0,120.0,3.0,0.0
14164,44.0,0.0,120.0,8.0,0.0
14165,63.0,1.0,30.0,5.0,0.0
14166,72.0,0.0,60.0,7.0,0.0
14167,54.0,29.0,60.0,6.0,0.0
14168,68.0,30.0,30.0,5.0,0.0
14169,70.0,0.0,30.0,5.0,0.0
14170,75.0,1.0,60.0,7.0,0.0
14171,54.0,29.0,60.0,6.0,0.0
14172,72.0,30.0,30.0,5.0,0.0
14173,68.0,0.0,30.0,5.0,0.0
14174,78.0,0.0,60.0,7.0,0.0
14175,63.0,30.0,30.0,5.0,0.0
14176,68.0,1.0,30.0,5.0,0.0
14177,54.0,29.0,15.0,6.0,0.0
14178,60.0,30.0,30.0,5.0,0.0
14179,81.0,1.0,60.0,7.0,0.0
14180,63.0,0.0,30.0,5.0,0.0
14181,54.0,30.0,30.0,5.0,0.0
14182,80.0,1.0,60.0,7.0,0.0
14183,54.0,29.0,60.0,6.0,0.0
14184,63.0,0.0,30.0,5.0,0.0
14185,73.0,29.0,420.0,7.0,0.0
14186,52.0,30.0,30.0,5.0,0.0
14187,45.0,0.0,60.0,8.0,0.0
14188,33.0,0.0,120.0,4.0,0.0
14189,52.0,29.0,60.0,6.0,0.0
14190,45.0,0.0,120.0,3.0,0.0
14191,61.0,1.0,30.0,5.0,0.0
14192,49.0,0.0,60.0,8.0,0.0
14193,64.0,29.0,30.0,0.0,0.0
14194,68.0,1.0,30.0,5.0,0.0
14195,49.0,29.0,60.0,6.0,0.0
14196,63.0,0.0,30.0,0.0,0.0
14197,72.0,1.0,30.0,5.0,0.0
14198,61.0,29.0,60.0,0.0,0.0
14199,57.0,0.0,60.0,6.0,0.0
14200,73.0,30.0,30.0,5.0,0.0
14201,52.0,0.0,60.0,8.0,0.0
14202,69.0,1.0,30.0,5.0,0.0
14203,57.0,29.0,30.0,1.0,0.0
14204,66.0,1.0,30.0,5.0,0.0
14205,57.0,1.0,60.0,8.0,0.0
14206,69.0,0.0,30.0,5.0,0.0
14207,56.0,29.0,30.0,1.0,0.0
14208,61.0,0.0,60.0,8.0,0.0
14209,61.0,30.0,30.0,5.0,0.0
14210,54.0,29.0,60.0,1.0,0.0
14211,49.0,0.0,30.0,6.0,0.0
14212,66.0,1.0,30.0,5.0,0.0
14213,54.0,1.0,30.0,6.0,0.0
14214,57.0,0.0,30.0,5.0,0.0
14215,50.0,29.0,30.0,2.0,0.0
14216,54.0,0.0,60.0,8.0,0.0
14217,57.0,1.0,30.0,6.0,0.0
14218,61.0,0.0,30.0,5.0,0.0
14219,49.0,29.0,30.0,2.0,0.0
14220,53.0,30.0,30.0,5.0,0.0
14221,56.0,1.0,120.0,8.0,0.0
14222,47.0,0.0,60.0,2.0,0.0
14223,32.0,0.0,120.0,4.0,0.0
14224,44.0,0.0,120.0,3.0,0.0
14225,61.0,1.0,30.0,5.0,0.0
14226,53.0,0.0,15.0,6.0,0.0
14227,71.0,0.0,60.0,7.0,0.0
14228,68.0,30.0,30.0,5.0,0.0
14229,69.0,0.0,30.0,5.0,0.0
14230,71.0,30.0,30.0,5.0,0.0
14231,65.0,1.0,60.0,7.0,0.0
14232,53.0,29.0,60.0,6.0,0.0
14233,68.0,0.0,30.0,5.0,0.0
14234,65.0,30.0,30.0,5.0,0.0
14235,68.0,1.0,60.0,7.0,0.0
14236,53.0,29.0,60.0,6.0,0.0
14237,68.0,0.0,30.0,5.0,0.0
14238,62.0,0.0,60.0,7.0,0.0
14239,59.0,30.0,30.0,5.0,0.0
14240,53.0,29.0,60.0,6.0,0.0
14241,65.0,1.0,30.0,5.0,0.0
14242,56.0,30.0,30.0,5.0,0.0
14243,61.0,30.0,90.0,7.0,0.0
14244,53.0,29.0,60.0,6.0,0.0
14245,59.0,1.0,30.0,5.0,0.0
14246,30.0,0.0,120.0,4.0,0.0
14247,42.0,0.0,120.0,3.0,0.0
14248,54.0,0.0,60.0,8.0,0.0
14249,54.0,29.0,60.0,6.0,0.0
14250,57.0,0.0,120.0,5.0,0.0
14251,61.0,1.0,30.0,7.0,0.0
14252,49.0,29.0,60.0,6.0,0.0
14253,66.0,29.0,30.0,0.0,0.0
14254,45.0,0.0,30.0,8.0,0.0
14255,66.0,1.0,30.0,7.0,0.0
14256,49.0,1.0,30.0,8.0,0.0
14257,68.0,0.0,30.0,7.0,0.0
14258,65.0,0.0,30.0,0.0,0.0
14259,42.0,0.0,60.0,8.0,0.0
14260,66.0,0.0,60.0,0.0,0.0
14261,45.0,29.0,60.0,6.0,0.0
14262,69.0,30.0,30.0,7.0,0.0
14263,66.0,1.0,30.0,7.0,0.0
14264,61.0,1.0,30.0,7.0,0.0
14265,42.0,0.0,60.0,6.0,0.0
14266,61.0,29.0,30.0,1.0,0.0
14267,59.0,29.0,30.0,1.0,0.0
14268,66.0,1.0,30.0,7.0,0.0
14269,61.0,29.0,60.0,1.0,0.0
14270,49.0,0.0,60.0,6.0,0.0
14271,57.0,30.0,30.0,7.0,0.0
14272,61.0,0.0,30.0,7.0,0.0
14273,42.0,1.0,30.0,8.0,0.0
14274,54.0,29.0,60.0,6.0,0.0
14275,57.0,29.0,30.0,2.0,0.0
14276,54.0,0.0,30.0,7.0,0.0
14277,45.0,1.0,30.0,8.0,0.0
14278,56.0,0.0,30.0,2.0,0.0
14279,61.0,0.0,30.0,7.0,0.0
14280,49.0,1.0,30.0,8.0,0.0
14281,52.0,0.0,60.0,8.0,0.0
14282,58.0,29.0,60.0,2.0,0.0
14283,42.0,0.0,120.0,3.0,0.0
14284,42.0,1.0,120.0,6.0,0.0
14285,30.0,0.0,120.0,4.0,0.0
14286,52.0,30.0,30.0,7.0,0.0
14287,61.0,1.0,30.0,7.0,0.0
14288,70.0,0.0,60.0,5.0,0.0
14289,52.0,29.0,60.0,8.0,0.0
14290,68.0,30.0,30.0,7.0,0.0
14291,70.0,0.0,30.0,7.0,0.0
14292,71.0,30.0,30.0,7.0,0.0
14293,52.0,29.0,60.0,8.0,0.0
14294,73.0,0.0,60.0,5.0,0.0
14295,66.0,1.0,30.0,7.0,0.0
14296,76.0,0.0,60.0,5.0,0.0
14297,61.0,30.0,30.0,7.0,0.0
14298,66.0,1.0,30.0,7.0,0.0
14299,52.0,29.0,15.0,8.0,0.0
14300,79.0,1.0,60.0,5.0,0.0
14301,58.0,30.0,30.0,7.0,0.0
14302,61.0,0.0,30.0,7.0,0.0
14303,52.0,29.0,60.0,8.0,0.0
14304,52.0,30.0,30.0,7.0,0.0
14305,78.0,1.0,60.0,5.0,0.0
14306,61.0,0.0,30.0,7.0,0.0
14307,51.0,30.0,30.0,7.0,0.0
14308,44.0,0.0,120.0,3.0,0.0
14309,32.0,0.0,120.0,4.0,0.0
14310,51.0,29.0,60.0,8.0,0.0
14311,71.0,29.0,420.0,5.0,0.0
14312,44.0,0.0,60.0,6.0,0.0
14313,59.0,1.0,30.0,7.0,0.0
14314,47.0,1.0,60.0,6.0,0.0
14315,66.0,1.0,30.0,7.0,0.0
14316,63.0,29.0,30.0,0.0,0.0
14317,47.0,29.0,60.0,8.0,0.0
14318,61.0,0.0,30.0,0.0,0.0
14319,70.0,0.0,30.0,7.0,0.0
14320,59.0,0.0,60.0,0.0,0.0
14321,71.0,30.0,30.0,7.0,0.0
14322,56.0,29.0,60.0,8.0,0.0
14323,51.0,0.0,60.0,6.0,0.0
14324,68.0,1.0,30.0,7.0,0.0
14325,56.0,0.0,60.0,6.0,0.0
14326,56.0,29.0,30.0,1.0,0.0
14327,64.0,1.0,30.0,7.0,0.0
14328,54.0,29.0,30.0,1.0,0.0
14329,68.0,1.0,30.0,7.0,0.0
14330,52.0,0.0,60.0,1.0,0.0
14331,59.0,0.0,60.0,6.0,0.0
14332,59.0,30.0,30.0,7.0,0.0
14333,47.0,29.0,30.0,8.0,0.0
14334,64.0,1.0,30.0,7.0,0.0
14335,49.0,0.0,30.0,2.0,0.0
14336,56.0,1.0,30.0,7.0,0.0
14337,52.0,29.0,30.0,8.0,0.0
14338,52.0,1.0,60.0,6.0,0.0
14339,56.0,29.0,30.0,8.0,0.0
14340,59.0,0.0,30.0,7.0,0.0
14341,47.0,0.0,30.0,2.0,0.0
14342,54.0,0.0,120.0,6.0,0.0
14343,45.0,0.0,60.0,2.0,0.0
14344,30.0,0.0,120.0,4.0,0.0
14345,51.0,30.0,30.0,7.0,0.0
14346,42.0,0.0,120.0,3.0,0.0
14347,59.0,1.0,30.0,7.0,0.0
14348,69.0,0.0,60.0,5.0,0.0
14349,66.0,30.0,30.0,7.0,0.0
14350,51.0,0.0,15.0,8.0,0.0
14351,68.0,1.0,30.0,7.0,0.0
14352,69.0,30.0,30.0,7.0,0.0
14353,63.0,0.0,60.0,5.0,0.0
14354,66.0,1.0,30.0,7.0,0.0
14355,51.0,29.0,15.0,8.0,0.0
14356,63.0,30.0,30.0,7.0,0.0
14357,66.0,0.0,60.0,5.0,0.0
14358,66.0,1.0,30.0,7.0,0.0
14359,57.0,30.0,30.0,7.0,0.0
14360,60.0,1.0,60.0,5.0,0.0
14361,51.0,29.0,15.0,8.0,0.0
14362,63.0,0.0,30.0,7.0,0.0
14363,59.0,0.0,120.0,5.0,0.0
14364,64.0,30.0,30.0,0.0,0.0
14365,51.0,29.0,60.0,8.0,0.0
14366,54.0,0.0,30.0,7.0,0.0
14367,57.0,1.0,30.0,7.0,0.0
14368,63.0,0.0,30.0,0.0,0.0
14369,28.0,0.0,120.0,4.0,0.0
14370,64.0,30.0,30.0,0.0,0.0
14371,52.0,0.0,120.0,8.0,0.0
14372,40.0,0.0,120.0,3.0,0.0
14373,56.0,30.0,60.0,7.0,0.0
14374,40.0,0.0,120.0,6.0,0.0
14375,59.0,0.0,30.0,0.0,0.0
14376,66.0,0.0,60.0,5.0,0.0
14377,61.0,30.0,30.0,0.0,0.0
14378,69.0,1.0,60.0,7.0,0.0
14379,57.0,0.0,30.0,0.0,0.0
14380,68.0,1.0,60.0,7.0,0.0
14381,52.0,0.0,15.0,2.0,0.0
14382,52.0,29.0,15.0,1.0,0.0
14383,64.0,0.0,60.0,5.0,0.0
14384,59.0,30.0,30.0,0.0,0.0
14385,56.0,0.0,30.0,0.0,0.0
14386,57.0,30.0,30.0,0.0,0.0
14387,66.0,0.0,60.0,7.0,0.0
14388,63.0,1.0,60.0,5.0,0.0
14389,52.0,0.0,60.0,1.0,0.0
14390,54.0,0.0,30.0,0.0,0.0
14391,61.0,30.0,180.0,5.0,0.0
14392,56.0,30.0,30.0,0.0,0.0
14393,52.0,0.0,60.0,1.0,0.0
14394,52.0,29.0,15.0,2.0,0.0
14395,64.0,0.0,60.0,7.0,0.0
14396,52.0,0.0,30.0,6.0,0.0
14397,61.0,1.0,30.0,0.0,0.0
14398,56.0,29.0,30.0,8.0,0.0
14399,51.0,29.0,30.0,6.0,0.0
14400,63.0,0.0,30.0,0.0,0.0
14401,66.0,1.0,30.0,7.0,0.0
14402,52.0,29.0,60.0,1.0,0.0
14403,52.0,0.0,60.0,2.0,0.0
14404,54.0,0.0,30.0,8.0,0.0
14405,68.0,1.0,30.0,7.0,0.0
14406,52.0,0.0,30.0,8.0,0.0
14407,64.0,0.0,30.0,0.0,0.0
14408,49.0,0.0,30.0,6.0,0.0
14409,39.0,1.0,120.0,3.0,0.0
14410,51.0,0.0,120.0,8.0,0.0
14411,66.0,30.0,30.0,0.0,0.0
14412,69.0,0.0,180.0,7.0,0.0
14413,27.0,0.0,120.0,4.0,0.0
14414,51.0,0.0,120.0,6.0,0.0
14415,63.0,0.0,30.0,0.0,0.0
14416,64.0,30.0,30.0,0.0,0.0
14417,69.0,0.0,60.0,5.0,0.0
14418,51.0,0.0,60.0,1.0,0.0
14419,61.0,0.0,30.0,0.0,0.0
14420,51.0,29.0,15.0,2.0,0.0
14421,60.0,1.0,60.0,5.0,0.0
14422,63.0,30.0,30.0,0.0,0.0
14423,60.0,0.0,30.0,0.0,0.0
14424,51.0,29.0,15.0,1.0,0.0
14425,51.0,0.0,15.0,2.0,0.0
14426,66.0,0.0,60.0,7.0,0.0
14427,51.0,0.0,60.0,8.0,0.0
14428,54.0,0.0,60.0,6.0,0.0
14429,63.0,0.0,60.0,5.0,0.0
14430,61.0,30.0,30.0,0.0,0.0
14431,58.0,1.0,30.0,0.0,0.0
14432,51.0,15.0,15.0,2.0,0.0
14433,64.0,14.0,15.0,7.0,0.0
14434,56.0,0.0,60.0,8.0,0.0
14435,44.0,0.0,120.0,3.0,0.0
14436,66.0,0.0,60.0,5.0,0.0
14437,32.0,0.0,120.0,4.0,0.0
14438,59.0,1.0,30.0,0.0,0.0
14439,56.0,15.0,60.0,6.0,0.0
14440,51.0,0.0,60.0,1.0,0.0
14441,63.0,15.0,15.0,7.0,0.0
14442,56.0,1.0,30.0,0.0,0.0
14443,64.0,14.0,15.0,7.0,0.0
14444,63.0,0.0,15.0,7.0,0.0
14445,64.0,14.0,15.0,7.0,0.0
14446,51.0,0.0,15.0,2.0,0.0
14447,44.0,29.0,60.0,6.0,0.0
14448,44.0,0.0,60.0,8.0,0.0
14449,61.0,0.0,30.0,0.0,0.0
14450,64.0,1.0,30.0,5.0,0.0
14451,56.0,0.0,60.0,1.0,0.0
14452,63.0,15.0,15.0,7.0,0.0
14453,59.0,0.0,30.0,0.0,0.0
14454,63.0,1.0,30.0,5.0,0.0
14455,64.0,14.0,15.0,7.0,0.0
14456,63.0,0.0,15.0,7.0,0.0
14457,61.0,30.0,30.0,0.0,0.0
14458,49.0,0.0,120.0,6.0,0.0
14459,25.0,0.0,120.0,4.0,0.0
14460,37.0,0.0,120.0,3.0,0.0
14461,49.0,0.0,120.0,2.0,0.0
14462,61.0,0.0,60.0,7.0,0.0
14463,56.0,29.0,120.0,1.0,0.0
14464,64.0,30.0,60.0,5.0,0.0
14465,49.0,0.0,120.0,8.0,0.0
14466,56.0,0.0,30.0,0.0,0.0
14467,73.0,0.0,60.0,7.0,0.0
14468,76.0,1.0,60.0,5.0,0.0
14469,61.0,30.0,30.0,0.0,0.0
14470,63.0,0.0,30.0,0.0,0.0
14471,71.0,0.0,60.0,7.0,0.0
14472,75.0,30.0,60.0,5.0,0.0
14473,65.0,30.0,30.0,0.0,0.0
14474,68.0,0.0,30.0,0.0,0.0
14475,27.0,0.0,60.0,4.0,0.0
14476,70.0,0.0,60.0,7.0,0.0
14477,73.0,30.0,60.0,5.0,0.0
14478,39.0,0.0,60.0,3.0,0.0
14479,67.0,30.0,30.0,0.0,0.0
14480,70.0,0.0,30.0,0.0,0.0
14481,28.0,0.0,60.0,4.0,0.0
14482,68.0,0.0,180.0,7.0,0.0
14483,68.0,30.0,30.0,0.0,0.0
14484,40.0,0.0,60.0,3.0,0.0
14485,71.0,0.0,60.0,5.0,0.0
14486,47.0,29.0,30.0,8.0,0.0
14487,51.0,0.0,30.0,6.0,0.0
14488,56.0,1.0,30.0,0.0,0.0
14489,49.0,29.0,30.0,6.0,0.0
14490,46.0,0.0,30.0,8.0,0.0
14491,25.0,0.0,60.0,4.0,0.0
14492,73.0,1.0,30.0,5.0,0.0
14493,58.0,0.0,30.0,0.0,0.0
14494,37.0,1.0,60.0,3.0,0.0
14495,75.0,0.0,30.0,5.0,0.0
14496,44.0,0.0,30.0,8.0,0.0
14497,59.0,0.0,30.0,0.0,0.0
14498,47.0,29.0,30.0,6.0,0.0
14499,22.0,0.0,120.0,4.0,0.0
14500,34.0,0.0,120.0,3.0,0.0
14501,46.0,0.0,120.0,6.0,0.0
14502,46.0,30.0,120.0,8.0,0.0
14503,76.0,0.0,180.0,5.0,0.0
14504,61.0,30.0,30.0,0.0,0.0
14505,58.0,30.0,30.0,0.0,0.0
14506,77.0,0.0,60.0,7.0,0.0
14507,59.0,30.0,30.0,0.0,0.0
14508,56.0,0.0,30.0,0.0,0.0
14509,58.0,30.0,30.0,0.0,0.0
14510,67.0,0.0,60.0,7.0,0.0
14511,55.0,30.0,30.0,0.0,0.0
14512,49.0,0.0,60.0,8.0,0.0
14513,68.0,30.0,60.0,7.0,0.0
14514,73.0,0.0,60.0,5.0,0.0
14515,56.0,30.0,30.0,0.0,0.0
14516,49.0,0.0,60.0,6.0,0.0
14517,53.0,0.0,30.0,0.0,0.0
14518,27.0,1.0,120.0,4.0,0.0
14519,70.0,30.0,60.0,5.0,0.0
14520,51.0,0.0,60.0,6.0,0.0
14521,51.0,0.0,60.0,8.0,0.0
14522,73.0,0.0,60.0,7.0,0.0
14523,55.0,30.0,30.0,0.0,0.0
14524,39.0,0.0,120.0,3.0,0.0
14525,51.0,0.0,30.0,0.0,0.0
14526,39.0,0.0,60.0,8.0,0.0
14527,71.0,0.0,30.0,7.0,0.0
14528,68.0,0.0,30.0,5.0,0.0
14529,63.0,0.0,30.0,1.0,0.0
14530,39.0,0.0,60.0,6.0,0.0
14531,59.0,29.0,30.0,2.0,0.0
14532,68.0,1.0,30.0,0.0,0.0
14533,67.0,0.0,30.0,0.0,0.0
14534,67.0,0.0,30.0,5.0,0.0
14535,61.0,0.0,30.0,2.0,0.0
14536,61.0,29.0,30.0,1.0,0.0
14537,70.0,0.0,30.0,7.0,0.0
14538,32.0,30.0,60.0,8.0,0.0
14539,20.0,0.0,60.0,4.0,0.0
14540,71.0,0.0,30.0,7.0,0.0
14541,59.0,0.0,60.0,2.0,0.0
14542,68.0,0.0,60.0,0.0,0.0
14543,68.0,0.0,30.0,5.0,0.0
14544,44.0,30.0,30.0,6.0,0.0
14545,63.0,0.0,60.0,1.0,0.0
14546,32.0,0.0,60.0,3.0,0.0
14547,70.0,0.0,30.0,7.0,0.0
14548,63.0,0.0,30.0,5.0,0.0
14549,43.0,0.0,30.0,6.0,0.0
14550,44.0,30.0,30.0,6.0,0.0
14551,64.0,0.0,30.0,5.0,0.0
14552,32.0,0.0,30.0,4.0,0.0
14553,44.0,0.0,30.0,8.0,0.0
14554,68.0,0.0,30.0,7.0,0.0
14555,44.0,0.0,30.0,3.0,0.0
14556,46.0,30.0,30.0,6.0,0.0
14557,67.0,0.0,30.0,7.0,0.0
14558,46.0,0.0,30.0,3.0,0.0
14559,46.0,0.0,30.0,8.0,0.0
14560,34.0,0.0,30.0,4.0,0.0
14561,61.0,0.0,30.0,5.0,0.0
14562,63.0,0.0,30.0,5.0,0.0
14563,47.0,0.0,60.0,3.0,0.0
14564,68.0,30.0,30.0,7.0,0.0
14565,47.0,30.0,60.0,6.0,0.0
14566,35.0,0.0,60.0,4.0,0.0
14567,47.0,0.0,60.0,8.0,0.0
14568,59.0,0.0,30.0,5.0,0.0
14569,63.0,0.0,30.0,7.0,0.0
14570,64.0,0.0,30.0,7.0,0.0
14571,61.0,0.0,30.0,5.0,0.0
14572,64.0,0.0,30.0,1.0,0.0
14573,61.0,30.0,30.0,2.0,0.0
14574,68.0,0.0,30.0,0.0,0.0
14575,61.0,0.0,30.0,1.0,0.0
14576,58.0,0.0,30.0,2.0,0.0
14577,61.0,0.0,30.0,7.0,0.0
14578,58.0,30.0,30.0,5.0,0.0
14579,67.0,0.0,30.0,0.0,0.0
14580,59.0,0.0,30.0,5.0,0.0
14581,68.0,0.0,60.0,0.0,0.0
14582,63.0,30.0,60.0,1.0,0.0
14583,63.0,30.0,30.0,7.0,0.0
14584,59.0,0.0,60.0,2.0,0.0
14585,59.0,0.0,30.0,7.0,0.0
14586,56.0,0.0,30.0,5.0,0.0
14587,58.0,0.0,30.0,5.0,0.0
14588,51.0,0.0,60.0,6.0,0.0
14589,61.0,30.0,30.0,7.0,0.0
14590,39.0,30.0,60.0,4.0,0.0
14591,51.0,0.0,60.0,3.0,0.0
14592,51.0,0.0,60.0,8.0,0.0
14593,55.0,0.0,30.0,5.0,0.0
14594,58.0,0.0,30.0,7.0,0.0
14595,59.0,30.0,30.0,7.0,0.0
14596,44.0,0.0,60.0,8.0,0.0
14597,44.0,30.0,60.0,3.0,0.0
14598,44.0,0.0,60.0,6.0,0.0
14599,56.0,0.0,60.0,5.0,0.0
14600,32.0,0.0,60.0,4.0,0.0
14601,56.0,0.0,30.0,7.0,0.0
14602,58.0,0.0,30.0,2.0,0.0
14603,64.0,0.0,30.0,0.0,0.0
14604,64.0,0.0,60.0,5.0,0.0
14605,58.0,0.0,30.0,7.0,0.0
14606,61.0,30.0,30.0,1.0,0.0
14607,55.0,0.0,30.0,7.0,0.0
14608,63.0,0.0,30.0,0.0,0.0
14609,58.0,30.0,30.0,1.0,0.0
14610,55.0,0.0,30.0,2.0,0.0
14611,59.0,0.0,60.0,1.0,0.0
14612,56.0,30.0,30.0,7.0,0.0
14613,64.0,0.0,60.0,0.0,0.0
14614,56.0,30.0,60.0,2.0,0.0
14615,64.0,0.0,60.0,5.0,0.0
14616,59.0,0.0,30.0,7.0,0.0
14617,58.0,30.0,30.0,7.0,0.0
14618,31.0,0.0,60.0,4.0,0.0
14619,43.0,0.0,60.0,6.0,0.0
14620,43.0,0.0,60.0,3.0,0.0
14621,63.0,30.0,90.0,5.0,0.0
14622,43.0,0.0,60.0,8.0,0.0
14623,61.0,30.0,30.0,7.0,0.0
14624,44.0,0.0,60.0,6.0,0.0
14625,44.0,0.0,60.0,3.0,0.0
14626,59.0,0.0,60.0,7.0,0.0
14627,32.0,0.0,60.0,4.0,0.0
14628,44.0,16.0,60.0,8.0,0.0
14629,65.0,0.0,30.0,5.0,0.0
14630,59.0,14.0,15.0,7.0,0.0
14631,67.0,1.0,30.0,0.0,0.0
14632,46.0,0.0,60.0,6.0,0.0
14633,46.0,0.0,60.0,3.0,0.0
14634,46.0,0.0,60.0,8.0,0.0
14635,61.0,0.0,30.0,1.0,0.0
14636,34.0,0.0,60.0,4.0,0.0
14637,67.0,0.0,30.0,5.0,0.0
14638,58.0,0.0,30.0,2.0,0.0
14639,61.0,29.0,15.0,7.0,0.0
14640,58.0,1.0,30.0,1.0,0.0
14641,55.0,0.0,30.0,2.0,0.0
14642,63.0,0.0,30.0,5.0,0.0
14643,63.0,0.0,30.0,0.0,0.0
14644,59.0,29.0,30.0,7.0,0.0
14645,47.0,0.0,60.0,3.0,0.0
14646,68.0,30.0,30.0,5.0,0.0
14647,51.0,0.0,60.0,2.0,0.0
14648,68.0,0.0,60.0,0.0,0.0
14649,35.0,0.0,60.0,4.0,0.0
14650,63.0,0.0,60.0,7.0,0.0
14651,47.0,0.0,60.0,6.0,0.0
14652,47.0,0.0,60.0,8.0,0.0
14653,63.0,30.0,60.0,1.0,0.0
14654,67.0,0.0,30.0,5.0,0.0
14655,68.0,30.0,90.0,5.0,0.0
14656,47.0,0.0,30.0,3.0,0.0
14657,47.0,30.0,30.0,6.0,0.0
14658,47.0,0.0,30.0,8.0,0.0
14659,65.0,0.0,30.0,7.0,0.0
14660,34.0,0.0,60.0,4.0,0.0
14661,46.0,30.0,30.0,8.0,0.0
14662,67.0,0.0,30.0,7.0,0.0
14663,46.0,0.0,30.0,3.0,0.0
14664,46.0,0.0,30.0,6.0,0.0
14665,68.0,0.0,30.0,7.0,0.0
14666,47.0,0.0,60.0,6.0,0.0
14667,47.0,0.0,60.0,3.0,0.0
14668,35.0,0.0,60.0,4.0,0.0
14669,47.0,30.0,60.0,8.0,0.0
14670,70.0,0.0,30.0,5.0,0.0
14671,67.0,0.0,30.0,7.0,0.0
14672,63.0,30.0,30.0,2.0,0.0
14673,44.0,0.0,60.0,8.0,0.0
14674,68.0,0.0,30.0,7.0,0.0
14675,32.0,0.0,60.0,4.0,0.0
14676,44.0,30.0,60.0,6.0,0.0
14677,71.0,0.0,30.0,5.0,0.0
14678,68.0,0.0,30.0,1.0,0.0
14679,44.0,0.0,60.0,3.0,0.0
14680,71.0,0.0,30.0,0.0,0.0
14681,70.0,0.0,30.0,0.0,0.0
14682,67.0,0.0,30.0,1.0,0.0
14683,70.0,0.0,30.0,5.0,0.0
14684,67.0,0.0,30.0,7.0,0.0
14685,64.0,0.0,30.0,2.0,0.0
14686,68.0,0.0,60.0,7.0,0.0
14687,73.0,0.0,60.0,0.0,0.0
14688,52.0,30.0,60.0,6.0,0.0
14689,61.0,0.0,60.0,2.0,0.0
14690,52.0,0.0,60.0,3.0,0.0
14691,28.0,0.0,60.0,4.0,0.0
14692,68.0,0.0,60.0,1.0,0.0
14693,52.0,0.0,60.0,8.0,0.0
14694,73.0,30.0,30.0,5.0,0.0
14695,71.0,0.0,30.0,5.0,0.0
14696,40.0,0.0,60.0,6.0,0.0
14697,40.0,16.0,60.0,8.0,0.0
14698,68.0,0.0,60.0,7.0,0.0
14699,40.0,0.0,60.0,4.0,0.0
14700,40.0,0.0,60.0,3.0,0.0
14701,70.0,30.0,30.0,5.0,0.0
14702,68.0,0.0,30.0,5.0,0.0
14703,74.0,1.0,30.0,5.0,0.0
14704,68.0,14.0,15.0,7.0,0.0
14705,70.0,29.0,15.0,7.0,0.0
14706,68.0,30.0,30.0,7.0,0.0
14707,75.0,0.0,30.0,5.0,0.0
14708,75.0,0.0,30.0,0.0,0.0
14709,39.0,0.0,60.0,3.0,0.0
14710,67.0,30.0,30.0,2.0,0.0
14711,70.0,0.0,30.0,1.0,0.0
14712,27.0,0.0,60.0,4.0,0.0
14713,67.0,0.0,60.0,7.0,0.0
14714,63.0,0.0,60.0,5.0,0.0
14715,39.0,0.0,60.0,6.0,0.0
14716,39.0,0.0,60.0,8.0,0.0
14717,74.0,0.0,30.0,0.0,0.0
14718,68.0,30.0,30.0,1.0,0.0
14719,65.0,0.0,30.0,2.0,0.0
14720,75.0,0.0,30.0,0.0,0.0
14721,43.0,0.0,60.0,6.0,0.0
14722,31.0,0.0,60.0,4.0,0.0
14723,43.0,30.0,60.0,8.0,0.0
14724,70.0,0.0,30.0,1.0,0.0
14725,43.0,0.0,60.0,3.0,0.0
14726,67.0,30.0,30.0,2.0,0.0
14727,70.0,0.0,30.0,0.0,0.0
14728,67.0,0.0,30.0,1.0,0.0
14729,63.0,0.0,30.0,2.0,0.0
14730,67.0,0.0,30.0,0.0,0.0
14731,46.0,0.0,60.0,3.0,0.0
14732,58.0,0.0,30.0,2.0,0.0
14733,46.0,0.0,60.0,8.0,0.0
14734,34.0,0.0,60.0,4.0,0.0
14735,63.0,30.0,30.0,1.0,0.0
14736,46.0,0.0,60.0,6.0,0.0
14737,70.0,0.0,30.0,0.0,0.0
14738,63.0,0.0,30.0,2.0,0.0
14739,67.0,30.0,30.0,1.0,0.0
14740,51.0,0.0,30.0,3.0,0.0
14741,51.0,0.0,30.0,6.0,0.0
14742,55.0,0.0,60.0,2.0,0.0
14743,51.0,0.0,30.0,8.0,0.0
14744,63.0,30.0,60.0,0.0,0.0
14745,39.0,30.0,30.0,4.0,0.0
14746,58.0,0.0,60.0,1.0,0.0
14747,52.0,0.0,30.0,3.0,0.0
14748,52.0,0.0,30.0,8.0,0.0
14749,40.0,0.0,30.0,4.0,0.0
14750,52.0,0.0,30.0,6.0,0.0
14751,75.0,0.0,30.0,5.0,0.0
14752,51.0,30.0,30.0,3.0,0.0
14753,51.0,0.0,30.0,8.0,0.0
14754,39.0,0.0,30.0,4.0,0.0
14755,51.0,0.0,30.0,6.0,0.0
14756,76.0,0.0,30.0,5.0,0.0
14757,49.0,0.0,30.0,8.0,0.0
14758,49.0,0.0,30.0,6.0,0.0
14759,37.0,60.0,30.0,4.0,0.0
14760,49.0,0.0,30.0,3.0,0.0
14761,48.0,0.0,60.0,8.0,0.0
14762,48.0,0.0,60.0,6.0,0.0
14763,36.0,0.0,60.0,4.0,0.0
14764,78.0,30.0,60.0,5.0,0.0
14765,48.0,0.0,60.0,3.0,0.0
14766,68.0,30.0,30.0,0.0,0.0
14767,32.0,30.0,60.0,4.0,0.0
14768,63.0,0.0,60.0,7.0,0.0
14769,78.0,0.0,60.0,5.0,0.0
14770,68.0,0.0,60.0,5.0,0.0
14771,68.0,0.0,30.0,1.0,0.0
14772,72.0,0.0,60.0,7.0,0.0
14773,44.0,0.0,60.0,8.0,0.0
14774,44.0,0.0,60.0,3.0,0.0
14775,66.0,0.0,30.0,1.0,0.0
14776,66.0,0.0,30.0,0.0,0.0
14777,68.0,30.0,30.0,1.0,0.0
14778,56.0,0.0,60.0,6.0,0.0
14779,63.0,0.0,60.0,7.0,0.0
14780,68.0,0.0,60.0,5.0,0.0
14781,48.0,0.0,60.0,8.0,0.0
14782,68.0,0.0,30.0,0.0,0.0
14783,72.0,0.0,60.0,7.0,0.0
14784,78.0,30.0,60.0,5.0,0.0
14785,63.0,0.0,30.0,0.0,0.0
14786,63.0,0.0,30.0,1.0,0.0
14787,63.0,0.0,60.0,7.0,0.0
14788,68.0,0.0,60.0,5.0,0.0
14789,78.0,0.0,60.0,5.0,0.0
14790,72.0,30.0,60.0,7.0,0.0
14791,60.0,0.0,60.0,6.0,0.0
14792,51.0,0.0,60.0,8.0,0.0
14793,60.0,0.0,30.0,0.0,0.0
14794,60.0,30.0,30.0,1.0,0.0
14795,63.0,0.0,30.0,1.0,0.0
14796,63.0,0.0,30.0,0.0,0.0
14797,78.0,0.0,60.0,5.0,0.0
14798,56.0,0.0,60.0,1.0,0.0
14799,48.0,30.0,30.0,8.0,0.0
14800,68.0,0.0,60.0,5.0,0.0
14801,63.0,0.0,60.0,6.0,0.0
14802,63.0,0.0,60.0,7.0,0.0
14803,56.0,0.0,60.0,0.0,0.0
14804,72.0,0.0,60.0,7.0,0.0
14805,44.0,0.0,30.0,8.0,0.0
14806,32.0,30.0,30.0,4.0,0.0
14807,44.0,0.0,30.0,3.0,0.0
14808,42.0,30.0,30.0,3.0,0.0
14809,42.0,0.0,30.0,8.0,0.0
14810,68.0,0.0,60.0,5.0,0.0
14811,30.0,0.0,30.0,4.0,0.0
14812,60.0,0.0,60.0,6.0,0.0
14813,78.0,60.0,60.0,5.0,0.0
14814,72.0,0.0,60.0,7.0,0.0
14815,63.0,0.0,60.0,7.0,0.0
14816,32.0,0.0,30.0,4.0,0.0
14817,44.0,0.0,30.0,3.0,0.0
14818,44.0,0.0,30.0,8.0,0.0
14819,25.0,0.0,60.0,4.0,0.0
14820,37.0,30.0,60.0,3.0,0.0
14821,61.0,0.0,60.0,6.0,0.0
14822,68.0,0.0,60.0,5.0,0.0
14823,76.0,0.0,60.0,5.0,0.0
14824,37.0,0.0,60.0,8.0,0.0
14825,73.0,0.0,60.0,7.0,0.0
14826,61.0,0.0,60.0,7.0,0.0
14827,61.0,0.0,30.0,1.0,0.0
14828,73.0,0.0,60.0,7.0,0.0
14829,49.0,0.0,60.0,6.0,0.0
14830,49.0,0.0,60.0,3.0,0.0
14831,61.0,30.0,60.0,7.0,0.0
14832,37.0,0.0,60.0,4.0,0.0
14833,76.0,0.0,60.0,5.0,0.0
14834,68.0,0.0,60.0,5.0,0.0
14835,61.0,30.0,30.0,0.0,0.0
14836,60.0,0.0,30.0,1.0,0.0
14837,60.0,0.0,30.0,0.0,0.0
14838,61.0,0.0,30.0,1.0,0.0
14839,52.0,0.0,60.0,6.0,0.0
14840,49.0,0.0,60.0,8.0,0.0
14841,73.0,30.0,60.0,7.0,0.0
14842,68.0,0.0,60.0,5.0,0.0
14843,61.0,0.0,60.0,7.0,0.0
14844,76.0,0.0,60.0,5.0,0.0
14845,61.0,30.0,30.0,0.0,0.0
14846,56.0,0.0,30.0,1.0,0.0
14847,56.0,0.0,30.0,0.0,0.0
14848,52.0,0.0,60.0,8.0,0.0
14849,73.0,0.0,60.0,7.0,0.0
14850,61.0,0.0,60.0,7.0,0.0
14851,56.0,0.0,60.0,6.0,0.0
14852,52.0,30.0,30.0,0.0,0.0
14853,52.0,0.0,30.0,1.0,0.0
14854,68.0,0.0,60.0,5.0,0.0
14855,76.0,30.0,60.0,5.0,0.0
14856,56.0,0.0,30.0,0.0,0.0
14857,56.0,0.0,30.0,1.0,0.0
14858,73.0,0.0,60.0,7.0,0.0
14859,56.0,0.0,60.0,8.0,0.0
14860,61.0,0.0,60.0,0.0,0.0
14861,76.0,0.0,60.0,5.0,0.0
14862,49.0,0.0,60.0,2.0,0.0
14863,61.0,30.0,30.0,6.0,0.0
14864,61.0,0.0,60.0,7.0,0.0
14865,68.0,0.0,60.0,5.0,0.0
14866,61.0,0.0,60.0,1.0,0.0
14867,49.0,30.0,30.0,6.0,0.0
14868,49.0,0.0,30.0,3.0,0.0
14869,37.0,0.0,30.0,4.0,0.0
14870,73.0,0.0,60.0,7.0,0.0
14871,39.0,0.0,30.0,4.0,0.0
14872,52.0,0.0,60.0,8.0,0.0
14873,51.0,0.0,30.0,6.0,0.0
14874,76.0,0.0,60.0,5.0,0.0
14875,68.0,0.0,60.0,5.0,0.0
14876,51.0,30.0,30.0,3.0,0.0
14877,61.0,0.0,60.0,7.0,0.0
14878,40.0,0.0,30.0,4.0,0.0
14879,52.0,0.0,30.0,6.0,0.0
14880,52.0,60.0,30.0,3.0,0.0
14881,39.0,0.0,60.0,4.0,0.0
14882,63.0,0.0,60.0,7.0,0.0
14883,73.0,0.0,60.0,7.0,0.0
14884,51.0,0.0,60.0,3.0,0.0
14885,70.0,0.0,60.0,5.0,0.0
14886,67.0,0.0,60.0,5.0,0.0
14887,51.0,0.0,60.0,6.0,0.0
14888,51.0,30.0,60.0,8.0,0.0
14889,67.0,0.0,60.0,5.0,0.0
14890,70.0,0.0,60.0,5.0,0.0
14891,63.0,30.0,60.0,7.0,0.0
14892,27.0,0.0,60.0,4.0,0.0
14893,63.0,0.0,30.0,0.0,0.0
14894,39.0,0.0,60.0,3.0,0.0
14895,39.0,0.0,60.0,8.0,0.0
14896,63.0,30.0,30.0,2.0,0.0
14897,73.0,0.0,60.0,7.0,0.0
14898,63.0,0.0,30.0,1.0,0.0
14899,61.0,0.0,30.0,0.0,0.0
14900,61.0,0.0,30.0,1.0,0.0
14901,61.0,0.0,30.0,2.0,0.0
14902,70.0,0.0,60.0,5.0,0.0
14903,79.0,0.0,60.0,5.0,0.0
14904,51.0,0.0,60.0,6.0,0.0
14905,63.0,0.0,30.0,2.0,0.0
14906,73.0,0.0,60.0,7.0,0.0
14907,43.0,0.0,60.0,8.0,0.0
14908,63.0,30.0,30.0,1.0,0.0
14909,63.0,0.0,30.0,0.0,0.0
14910,63.0,0.0,60.0,7.0,0.0
14911,58.0,0.0,30.0,0.0,0.0
14912,58.0,0.0,30.0,1.0,0.0
14913,58.0,30.0,30.0,2.0,0.0
14914,79.0,0.0,60.0,5.0,0.0
14915,46.0,0.0,60.0,8.0,0.0
14916,73.0,0.0,60.0,7.0,0.0
14917,63.0,30.0,60.0,7.0,0.0
14918,55.0,30.0,30.0,1.0,0.0
14919,55.0,0.0,30.0,2.0,0.0
14920,55.0,0.0,60.0,6.0,0.0
14921,55.0,0.0,30.0,0.0,0.0
14922,70.0,0.0,60.0,5.0,0.0
14923,58.0,0.0,30.0,2.0,0.0
14924,58.0,0.0,30.0,0.0,0.0
14925,58.0,0.0,30.0,1.0,0.0
14926,63.0,0.0,60.0,7.0,0.0
14927,73.0,0.0,60.0,7.0,0.0
14928,51.0,0.0,60.0,0.0,0.0
14929,70.0,0.0,60.0,5.0,0.0
14930,58.0,0.0,60.0,6.0,0.0
14931,51.0,0.0,60.0,2.0,0.0
14932,79.0,0.0,60.0,5.0,0.0
14933,51.0,0.0,60.0,1.0,0.0
14934,43.0,30.0,30.0,8.0,0.0
14935,27.0,30.0,30.0,4.0,0.0
14936,39.0,0.0,30.0,8.0,0.0
14937,39.0,0.0,30.0,3.0,0.0
14938,79.0,0.0,60.0,5.0,0.0
14939,63.0,0.0,60.0,6.0,0.0
14940,73.0,0.0,60.0,7.0,0.0
14941,63.0,0.0,60.0,7.0,0.0
14942,25.0,0.0,30.0,4.0,0.0
14943,37.0,30.0,30.0,8.0,0.0
14944,37.0,0.0,30.0,3.0,0.0
14945,70.0,0.0,60.0,5.0,0.0
14946,39.0,0.0,30.0,3.0,0.0
14947,27.0,0.0,30.0,4.0,0.0
14948,39.0,60.0,30.0,8.0,0.0
14949,32.0,30.0,60.0,8.0,0.0
14950,20.0,0.0,60.0,4.0,0.0
14951,68.0,0.0,60.0,5.0,0.0
14952,80.0,0.0,60.0,5.0,0.0
14953,56.0,0.0,60.0,6.0,0.0
14954,63.0,0.0,60.0,7.0,0.0
14955,71.0,0.0,60.0,7.0,0.0
14956,32.0,0.0,60.0,3.0,0.0
14957,68.0,30.0,30.0,1.0,0.0
14958,80.0,0.0,60.0,5.0,0.0
14959,68.0,0.0,60.0,5.0,0.0
14960,71.0,0.0,60.0,7.0,0.0
14961,63.0,0.0,60.0,7.0,0.0
14962,32.0,0.0,60.0,4.0,0.0
14963,68.0,0.0,30.0,0.0,0.0
14964,44.0,0.0,60.0,6.0,0.0
14965,44.0,0.0,60.0,3.0,0.0
14966,67.0,0.0,30.0,0.0,0.0
14967,67.0,30.0,30.0,1.0,0.0
14968,68.0,30.0,30.0,0.0,0.0
14969,47.0,0.0,60.0,6.0,0.0
14970,80.0,0.0,60.0,5.0,0.0
14971,44.0,0.0,60.0,8.0,0.0
14972,63.0,0.0,60.0,7.0,0.0
14973,71.0,0.0,60.0,7.0,0.0
14974,68.0,0.0,60.0,5.0,0.0
14975,68.0,0.0,30.0,1.0,0.0
14976,63.0,0.0,30.0,1.0,0.0
14977,63.0,30.0,30.0,0.0,0.0
14978,80.0,0.0,60.0,5.0,0.0
14979,68.0,30.0,60.0,5.0,0.0
14980,47.0,0.0,60.0,8.0,0.0
14981,51.0,0.0,60.0,6.0,0.0
14982,59.0,30.0,30.0,0.0,0.0
14983,59.0,0.0,30.0,1.0,0.0
14984,63.0,0.0,60.0,7.0,0.0
14985,71.0,0.0,60.0,7.0,0.0
14986,63.0,0.0,30.0,1.0,0.0
14987,63.0,0.0,30.0,0.0,0.0
14988,51.0,0.0,60.0,8.0,0.0
14989,71.0,0.0,60.0,7.0,0.0
14990,56.0,0.0,60.0,1.0,0.0
14991,63.0,0.0,60.0,7.0,0.0
14992,68.0,0.0,60.0,5.0,0.0
14993,56.0,0.0,60.0,0.0,0.0
14994,80.0,0.0,60.0,5.0,0.0
14995,47.0,30.0,30.0,6.0,0.0
14996,44.0,30.0,30.0,6.0,0.0
14997,44.0,0.0,30.0,3.0,0.0
14998,32.0,0.0,30.0,4.0,0.0
14999,80.0,0.0,60.0,5.0,0.0
15000,68.0,0.0,60.0,5.0,0.0
15001,71.0,0.0,60.0,7.0,0.0
15002,63.0,0.0,60.0,7.0,0.0
15003,43.0,30.0,30.0,6.0,0.0
15004,31.0,0.0,30.0,4.0,0.0
15005,43.0,0.0,30.0,3.0,0.0
15006,47.0,0.0,60.0,8.0,0.0
15007,44.0,0.0,30.0,3.0,0.0
15008,44.0,0.0,30.0,6.0,0.0
15009,32.0,30.0,30.0,4.0,0.0
15010,37.0,0.0,120.0,6.0,0.0
15011,71.0,0.0,60.0,7.0,0.0
15012,49.0,30.0,30.0,8.0,0.0
15013,61.0,30.0,60.0,7.0,0.0
15014,76.0,0.0,60.0,5.0,0.0
15015,68.0,0.0,60.0,5.0,0.0
15016,37.0,0.0,120.0,3.0,0.0
15017,25.0,30.0,120.0,4.0,0.0
15018,61.0,0.0,30.0,0.0,0.0
15019,52.0,0.0,30.0,8.0,0.0
15020,71.0,0.0,60.0,7.0,0.0
15021,68.0,0.0,60.0,5.0,0.0
15022,76.0,0.0,60.0,5.0,0.0
15023,66.0,0.0,30.0,0.0,0.0
15024,51.0,30.0,30.0,8.0,0.0
15025,61.0,0.0,60.0,7.0,0.0
15026,52.0,0.0,30.0,8.0,0.0
15027,64.0,0.0,30.0,0.0,0.0
15028,66.0,30.0,30.0,0.0,0.0
15029,61.0,0.0,60.0,7.0,0.0
15030,70.0,30.0,60.0,7.0,0.0
15031,42.0,0.0,60.0,8.0,0.0
15032,66.0,0.0,60.0,5.0,0.0
15033,76.0,0.0,60.0,5.0,0.0
15034,61.0,0.0,30.0,1.0,0.0
15035,61.0,0.0,30.0,6.0,0.0
15036,61.0,0.0,30.0,0.0,0.0
15037,59.0,0.0,30.0,6.0,0.0
15038,61.0,30.0,60.0,7.0,0.0
15039,70.0,0.0,60.0,7.0,0.0
15040,49.0,0.0,60.0,3.0,0.0
15041,66.0,0.0,60.0,5.0,0.0
15042,76.0,0.0,60.0,5.0,0.0
15043,70.0,0.0,30.0,0.0,0.0
15044,66.0,30.0,30.0,1.0,0.0
15045,37.0,0.0,60.0,4.0,0.0
15046,61.0,0.0,30.0,6.0,0.0
15047,64.0,0.0,30.0,1.0,0.0
15048,68.0,0.0,30.0,0.0,0.0
15049,34.0,30.0,60.0,4.0,0.0
15050,66.0,30.0,30.0,1.0,0.0
15051,54.0,0.0,60.0,6.0,0.0
15052,46.0,0.0,60.0,3.0,0.0
15053,76.0,0.0,60.0,5.0,0.0
15054,66.0,0.0,60.0,5.0,0.0
15055,70.0,0.0,30.0,0.0,0.0
15056,70.0,0.0,60.0,7.0,0.0
15057,61.0,0.0,60.0,7.0,0.0
15058,66.0,0.0,30.0,0.0,0.0
15059,61.0,0.0,30.0,1.0,0.0
15060,58.0,0.0,30.0,2.0,0.0
15061,61.0,30.0,30.0,2.0,0.0
15062,42.0,0.0,60.0,6.0,0.0
15063,61.0,0.0,60.0,7.0,0.0
15064,70.0,0.0,60.0,7.0,0.0
15065,66.0,30.0,60.0,5.0,0.0
15066,76.0,0.0,60.0,5.0,0.0
15067,70.0,0.0,30.0,0.0,0.0
15068,66.0,0.0,30.0,1.0,0.0
15069,42.0,0.0,60.0,3.0,0.0
15070,30.0,0.0,60.0,4.0,0.0
15071,54.0,0.0,60.0,8.0,0.0
15072,73.0,0.0,30.0,0.0,0.0
15073,70.0,0.0,30.0,1.0,0.0
15074,66.0,0.0,30.0,2.0,0.0
15075,75.0,0.0,30.0,0.0,0.0
15076,35.0,0.0,120.0,4.0,0.0
15077,70.0,0.0,60.0,7.0,0.0
15078,47.0,30.0,120.0,6.0,0.0
15079,75.0,0.0,60.0,5.0,0.0
15080,66.0,0.0,60.0,5.0,0.0
15081,71.0,0.0,60.0,1.0,0.0
15082,47.0,0.0,120.0,3.0,0.0
15083,66.0,29.0,60.0,2.0,0.0
15084,59.0,0.0,60.0,7.0,0.0
15085,47.0,30.0,30.0,8.0,0.0
15086,51.0,0.0,30.0,8.0,0.0
15087,59.0,1.0,30.0,0.0,0.0
15088,66.0,0.0,60.0,5.0,0.0
15089,49.0,0.0,30.0,8.0,0.0
15090,70.0,0.0,60.0,7.0,0.0
15091,59.0,0.0,60.0,7.0,0.0
15092,64.0,30.0,30.0,0.0,0.0
15093,75.0,0.0,60.0,5.0,0.0
15094,51.0,0.0,30.0,8.0,0.0
15095,63.0,0.0,30.0,0.0,0.0
15096,64.0,0.0,60.0,5.0,0.0
15097,40.0,0.0,60.0,8.0,0.0
15098,68.0,0.0,60.0,7.0,0.0
15099,64.0,30.0,30.0,0.0,0.0
15100,59.0,1.0,60.0,7.0,0.0
15101,75.0,0.0,60.0,5.0,0.0
15102,59.0,0.0,30.0,0.0,0.0
15103,59.0,0.0,30.0,1.0,0.0
15104,59.0,29.0,30.0,6.0,0.0
15105,58.0,29.0,30.0,6.0,0.0
15106,35.0,0.0,60.0,4.0,0.0
15107,47.0,0.0,60.0,3.0,0.0
15108,75.0,0.0,60.0,5.0,0.0
15109,64.0,0.0,60.0,5.0,0.0
15110,64.0,1.0,30.0,1.0,0.0
15111,68.0,0.0,30.0,0.0,0.0
15112,68.0,0.0,60.0,7.0,0.0
15113,59.0,0.0,60.0,7.0,0.0
15114,59.0,29.0,30.0,6.0,0.0
15115,63.0,1.0,30.0,1.0,0.0
15116,66.0,0.0,30.0,0.0,0.0
15117,52.0,30.0,60.0,6.0,0.0
15118,68.0,0.0,60.0,7.0,0.0
15119,44.0,0.0,60.0,3.0,0.0
15120,64.0,30.0,30.0,1.0,0.0
15121,68.0,0.0,30.0,0.0,0.0
15122,32.0,0.0,60.0,4.0,0.0
15123,75.0,0.0,60.0,5.0,0.0
15124,64.0,0.0,60.0,5.0,0.0
15125,59.0,0.0,60.0,7.0,0.0
15126,64.0,0.0,30.0,0.0,0.0
15127,56.0,0.0,30.0,2.0,0.0
15128,59.0,0.0,30.0,1.0,0.0
15129,40.0,0.0,60.0,6.0,0.0
15130,59.0,0.0,30.0,2.0,0.0
15131,52.0,0.0,60.0,8.0,0.0
15132,75.0,0.0,60.0,5.0,0.0
15133,64.0,30.0,60.0,5.0,0.0
15134,68.0,0.0,30.0,0.0,0.0
15135,28.0,0.0,60.0,4.0,0.0
15136,64.0,30.0,30.0,1.0,0.0
15137,40.0,0.0,60.0,3.0,0.0
15138,68.0,0.0,60.0,7.0,0.0
15139,59.0,0.0,60.0,7.0,0.0
15140,71.0,0.0,30.0,0.0,0.0
15141,68.0,0.0,30.0,1.0,0.0
15142,64.0,0.0,30.0,2.0,0.0
15143,70.0,0.0,60.0,1.0,0.0
15144,46.0,0.0,120.0,3.0,0.0
15145,58.0,1.0,60.0,7.0,0.0
15146,46.0,0.0,30.0,8.0,0.0
15147,64.0,29.0,60.0,2.0,0.0
15148,64.0,0.0,60.0,5.0,0.0
15149,46.0,0.0,120.0,6.0,0.0
15150,73.0,0.0,60.0,5.0,0.0
15151,73.0,30.0,30.0,0.0,0.0
15152,34.0,0.0,120.0,4.0,0.0
15153,68.0,0.0,60.0,7.0,0.0
15154,49.0,0.0,30.0,8.0,0.0
15155,58.0,0.0,30.0,0.0,0.0
15156,58.0,0.0,60.0,7.0,0.0
15157,63.0,30.0,30.0,0.0,0.0
15158,47.0,0.0,30.0,8.0,0.0
15159,64.0,30.0,60.0,5.0,0.0
15160,73.0,0.0,60.0,5.0,0.0
15161,68.0,0.0,60.0,7.0,0.0
15162,61.0,0.0,30.0,0.0,0.0
15163,49.0,0.0,30.0,8.0,0.0
15164,63.0,0.0,60.0,5.0,0.0
15165,63.0,30.0,30.0,0.0,0.0
15166,67.0,0.0,60.0,7.0,0.0
15167,39.0,0.0,60.0,8.0,0.0
15168,58.0,0.0,60.0,7.0,0.0
15169,73.0,1.0,60.0,5.0,0.0
15170,58.0,0.0,30.0,0.0,0.0
15171,58.0,29.0,30.0,6.0,0.0
15172,58.0,0.0,30.0,1.0,0.0
15173,63.0,0.0,60.0,5.0,0.0
15174,73.0,1.0,60.0,5.0,0.0
15175,67.0,0.0,30.0,0.0,0.0
15176,58.0,0.0,60.0,7.0,0.0
15177,34.0,0.0,60.0,4.0,0.0
15178,63.0,1.0,30.0,1.0,0.0
15179,56.0,29.0,30.0,6.0,0.0
15180,46.0,0.0,60.0,3.0,0.0
15181,67.0,0.0,60.0,7.0,0.0
15182,65.0,0.0,30.0,0.0,0.0
15183,61.0,0.0,30.0,1.0,0.0
15184,58.0,29.0,30.0,6.0,0.0
15185,39.0,0.0,60.0,4.0,0.0
15186,67.0,30.0,30.0,0.0,0.0
15187,63.0,0.0,30.0,1.0,0.0
15188,51.0,0.0,60.0,6.0,0.0
15189,51.0,0.0,60.0,3.0,0.0
15190,73.0,0.0,60.0,5.0,0.0
15191,67.0,0.0,60.0,7.0,0.0
15192,58.0,0.0,60.0,7.0,0.0
15193,63.0,0.0,60.0,5.0,0.0
15194,58.0,0.0,30.0,1.0,0.0
15195,63.0,30.0,30.0,0.0,0.0
15196,61.0,0.0,30.0,2.0,0.0
15197,27.0,0.0,60.0,4.0,0.0
15198,59.0,0.0,30.0,2.0,0.0
15199,39.0,0.0,60.0,6.0,0.0
15200,63.0,1.0,30.0,1.0,0.0
15201,68.0,29.0,30.0,7.0,0.0
15202,68.0,0.0,30.0,0.0,0.0
15203,63.0,1.0,60.0,7.0,0.0
15204,39.0,0.0,60.0,3.0,0.0
15205,68.0,0.0,30.0,5.0,0.0
15206,73.0,0.0,60.0,5.0,0.0
15207,39.0,0.0,60.0,8.0,0.0
15208,67.0,0.0,30.0,0.0,0.0
15209,61.0,0.0,30.0,1.0,0.0
15210,58.0,0.0,30.0,2.0,0.0
15211,70.0,29.0,30.0,7.0,0.0
15212,67.0,0.0,30.0,5.0,0.0
15213,68.0,0.0,60.0,7.0,0.0
15214,32.0,30.0,30.0,4.0,0.0
15215,59.0,29.0,60.0,1.0,0.0
15216,63.0,0.0,60.0,7.0,0.0
15217,68.0,0.0,60.0,0.0,0.0
15218,68.0,0.0,30.0,5.0,0.0
15219,32.0,0.0,60.0,8.0,0.0
15220,71.0,0.0,30.0,5.0,0.0
15221,56.0,0.0,60.0,2.0,0.0
15222,44.0,0.0,30.0,6.0,0.0
15223,44.0,0.0,30.0,3.0,0.0
15224,71.0,0.0,60.0,7.0,0.0
15225,43.0,0.0,30.0,6.0,0.0
15226,31.0,1.0,30.0,4.0,0.0
15227,63.0,0.0,30.0,5.0,0.0
15228,43.0,0.0,30.0,3.0,0.0
15229,64.0,0.0,30.0,5.0,0.0
15230,44.0,0.0,30.0,6.0,0.0
15231,44.0,0.0,30.0,3.0,0.0
15232,44.0,0.0,30.0,8.0,0.0
15233,32.0,0.0,30.0,4.0,0.0
15234,68.0,30.0,30.0,7.0,0.0
15235,67.0,0.0,30.0,7.0,0.0
15236,46.0,0.0,30.0,3.0,0.0
15237,46.0,0.0,30.0,6.0,0.0
15238,34.0,0.0,30.0,4.0,0.0
15239,61.0,30.0,30.0,5.0,0.0
15240,46.0,0.0,30.0,8.0,0.0
15241,35.0,0.0,60.0,4.0,0.0
15242,47.0,0.0,60.0,3.0,0.0
15243,47.0,0.0,60.0,8.0,0.0
15244,63.0,0.0,30.0,5.0,0.0
15245,68.0,30.0,30.0,7.0,0.0
15246,47.0,0.0,60.0,6.0,0.0
15247,63.0,0.0,30.0,7.0,0.0
15248,59.0,30.0,30.0,5.0,0.0
15249,64.0,0.0,30.0,7.0,0.0
15250,68.0,0.0,30.0,0.0,0.0
15251,64.0,0.0,30.0,1.0,0.0
15252,61.0,0.0,30.0,5.0,0.0
15253,61.0,30.0,30.0,2.0,0.0
15254,61.0,0.0,30.0,1.0,0.0
15255,58.0,0.0,30.0,5.0,0.0
15256,67.0,30.0,30.0,0.0,0.0
15257,61.0,0.0,30.0,7.0,0.0
15258,58.0,0.0,30.0,2.0,0.0
15259,59.0,0.0,60.0,2.0,0.0
15260,59.0,0.0,30.0,5.0,0.0
15261,68.0,1.0,60.0,0.0,0.0
15262,63.0,30.0,30.0,7.0,0.0
15263,63.0,29.0,60.0,1.0,0.0
15264,56.0,0.0,30.0,5.0,0.0
15265,59.0,0.0,30.0,7.0,0.0
15266,51.0,0.0,60.0,3.0,0.0
15267,61.0,30.0,30.0,7.0,0.0
15268,39.0,0.0,60.0,4.0,0.0
15269,51.0,30.0,60.0,6.0,0.0
15270,51.0,0.0,60.0,8.0,0.0
15271,58.0,0.0,30.0,5.0,0.0
15272,58.0,0.0,30.0,7.0,0.0
15273,55.0,0.0,30.0,5.0,0.0
15274,56.0,1.0,60.0,5.0,0.0
15275,44.0,0.0,60.0,3.0,0.0
15276,32.0,0.0,60.0,4.0,0.0
15277,59.0,30.0,30.0,7.0,0.0
15278,44.0,29.0,60.0,8.0,0.0
15279,44.0,0.0,60.0,6.0,0.0
15280,56.0,0.0,30.0,7.0,0.0
15281,61.0,30.0,30.0,1.0,0.0
15282,58.0,0.0,30.0,7.0,0.0
15283,64.0,0.0,60.0,5.0,0.0
15284,58.0,0.0,30.0,2.0,0.0
15285,64.0,0.0,30.0,0.0,0.0
15286,58.0,0.0,30.0,1.0,0.0
15287,55.0,0.0,30.0,7.0,0.0
15288,55.0,0.0,30.0,2.0,0.0
15289,63.0,30.0,30.0,0.0,0.0
15290,64.0,0.0,60.0,0.0,0.0
15291,56.0,0.0,60.0,2.0,0.0
15292,59.0,29.0,60.0,1.0,0.0
15293,56.0,30.0,30.0,7.0,0.0
15294,64.0,0.0,60.0,5.0,0.0
15295,59.0,1.0,30.0,7.0,0.0
15296,63.0,30.0,90.0,5.0,0.0
15297,43.0,0.0,60.0,8.0,0.0
15298,31.0,0.0,60.0,4.0,0.0
15299,43.0,29.0,60.0,6.0,0.0
15300,43.0,0.0,60.0,3.0,0.0
15301,58.0,30.0,30.0,7.0,0.0
15302,61.0,1.0,30.0,7.0,0.0
15303,32.0,0.0,60.0,4.0,0.0
15304,44.0,0.0,60.0,3.0,0.0
15305,44.0,15.0,60.0,8.0,0.0
15306,44.0,0.0,60.0,6.0,0.0
15307,59.0,1.0,60.0,7.0,0.0
15308,65.0,0.0,30.0,5.0,0.0
15309,61.0,0.0,30.0,1.0,0.0
15310,46.0,0.0,60.0,6.0,0.0
15311,34.0,29.0,60.0,4.0,0.0
15312,46.0,0.0,60.0,3.0,0.0
15313,58.0,1.0,30.0,2.0,0.0
15314,46.0,0.0,60.0,8.0,0.0
15315,63.0,14.0,15.0,7.0,0.0
15316,67.0,0.0,30.0,0.0,0.0
15317,67.0,0.0,30.0,5.0,0.0
15318,61.0,15.0,15.0,7.0,0.0
15319,59.0,14.0,15.0,7.0,0.0
15320,63.0,1.0,30.0,5.0,0.0
15321,63.0,0.0,30.0,0.0,0.0
15322,55.0,0.0,30.0,2.0,0.0
15323,58.0,0.0,30.0,1.0,0.0
15324,61.0,0.0,15.0,7.0,0.0
15325,47.0,0.0,60.0,6.0,0.0
15326,35.0,0.0,60.0,4.0,0.0
15327,51.0,0.0,60.0,2.0,0.0
15328,63.0,1.0,60.0,7.0,0.0
15329,68.0,0.0,60.0,0.0,0.0
15330,63.0,0.0,60.0,1.0,0.0
15331,47.0,29.0,60.0,8.0,0.0
15332,47.0,0.0,60.0,3.0,0.0
15333,68.0,30.0,30.0,5.0,0.0
15334,67.0,0.0,30.0,5.0,0.0
15335,65.0,30.0,30.0,7.0,0.0
15336,47.0,0.0,30.0,3.0,0.0
15337,34.0,29.0,60.0,4.0,0.0
15338,68.0,30.0,90.0,5.0,0.0
15339,47.0,0.0,30.0,6.0,0.0
15340,47.0,0.0,30.0,8.0,0.0
15341,46.0,0.0,30.0,6.0,0.0
15342,46.0,1.0,30.0,3.0,0.0
15343,67.0,0.0,30.0,7.0,0.0
15344,46.0,0.0,30.0,8.0,0.0
15345,35.0,0.0,60.0,4.0,0.0
15346,47.0,0.0,60.0,8.0,0.0
15347,47.0,29.0,60.0,6.0,0.0
15348,68.0,0.0,30.0,7.0,0.0
15349,47.0,0.0,60.0,3.0,0.0
15350,67.0,0.0,30.0,7.0,0.0
15351,70.0,1.0,30.0,5.0,0.0
15352,63.0,0.0,30.0,2.0,0.0
15353,68.0,30.0,30.0,1.0,0.0
15354,68.0,0.0,30.0,7.0,0.0
15355,44.0,0.0,60.0,8.0,0.0
15356,32.0,0.0,60.0,4.0,0.0
15357,44.0,29.0,60.0,6.0,0.0
15358,71.0,0.0,30.0,0.0,0.0
15359,44.0,0.0,60.0,3.0,0.0
15360,71.0,0.0,30.0,5.0,0.0
15361,70.0,0.0,30.0,5.0,0.0
15362,67.0,0.0,30.0,7.0,0.0
15363,70.0,0.0,30.0,0.0,0.0
15364,64.0,0.0,30.0,2.0,0.0
15365,67.0,1.0,30.0,1.0,0.0
15366,68.0,1.0,60.0,7.0,0.0
15367,52.0,0.0,60.0,3.0,0.0
15368,61.0,0.0,60.0,2.0,0.0
15369,52.0,29.0,60.0,8.0,0.0
15370,28.0,0.0,60.0,4.0,0.0
15371,68.0,0.0,60.0,1.0,0.0
15372,73.0,30.0,30.0,5.0,0.0
15373,73.0,0.0,60.0,0.0,0.0
15374,52.0,0.0,60.0,6.0,0.0
15375,71.0,0.0,30.0,5.0,0.0
15376,70.0,30.0,30.0,5.0,0.0
15377,68.0,1.0,60.0,7.0,0.0
15378,40.0,0.0,60.0,3.0,0.0
15379,40.0,15.0,60.0,8.0,0.0
15380,40.0,0.0,60.0,6.0,0.0
15381,40.0,0.0,60.0,4.0,0.0
15382,68.0,0.0,30.0,5.0,0.0
15383,74.0,1.0,30.0,5.0,0.0
15384,68.0,14.0,15.0,7.0,0.0
15385,70.0,29.0,15.0,7.0,0.0
15386,68.0,29.0,30.0,7.0,0.0
15387,75.0,1.0,30.0,5.0,0.0
15388,67.0,0.0,60.0,7.0,0.0
15389,70.0,0.0,30.0,1.0,0.0
15390,39.0,0.0,30.0,6.0,0.0
15391,67.0,0.0,30.0,2.0,0.0
15392,39.0,30.0,30.0,8.0,0.0
15393,63.0,0.0,60.0,5.0,0.0
15394,39.0,0.0,30.0,3.0,0.0
15395,75.0,0.0,30.0,0.0,0.0
15396,27.0,0.0,60.0,4.0,0.0
15397,65.0,0.0,30.0,2.0,0.0
15398,41.0,0.0,30.0,6.0,0.0
15399,41.0,0.0,30.0,8.0,0.0
15400,68.0,0.0,30.0,1.0,0.0
15401,74.0,30.0,30.0,0.0,0.0
15402,41.0,0.0,30.0,3.0,0.0
15403,75.0,0.0,30.0,0.0,0.0
15404,43.0,0.0,60.0,3.0,0.0
15405,43.0,0.0,60.0,6.0,0.0
15406,63.0,30.0,30.0,2.0,0.0
15407,70.0,0.0,30.0,1.0,0.0
15408,43.0,0.0,60.0,8.0,0.0
15409,31.0,30.0,60.0,4.0,0.0
15410,67.0,0.0,30.0,1.0,0.0
15411,61.0,0.0,30.0,2.0,0.0
15412,70.0,0.0,30.0,0.0,0.0
15413,63.0,0.0,30.0,1.0,0.0
15414,67.0,30.0,30.0,0.0,0.0
15415,34.0,0.0,60.0,4.0,0.0
15416,46.0,0.0,60.0,8.0,0.0
15417,58.0,0.0,30.0,2.0,0.0
15418,46.0,0.0,60.0,6.0,0.0
15419,46.0,60.0,60.0,3.0,0.0
15420,61.0,0.0,30.0,2.0,0.0
15421,70.0,0.0,30.0,0.0,0.0
15422,67.0,0.0,30.0,1.0,0.0
15423,55.0,0.0,60.0,2.0,0.0
15424,63.0,0.0,60.0,0.0,0.0
15425,51.0,0.0,60.0,8.0,0.0
15426,58.0,30.0,60.0,1.0,0.0
15427,51.0,0.0,60.0,3.0,0.0
15428,39.0,0.0,60.0,4.0,0.0
15429,51.0,0.0,60.0,6.0,0.0
15430,49.0,60.0,60.0,8.0,0.0
15431,63.0,30.0,30.0,5.0,0.0
15432,49.0,0.0,60.0,6.0,0.0
15433,37.0,0.0,60.0,4.0,0.0
15434,49.0,0.0,60.0,3.0,0.0
15435,64.0,0.0,30.0,5.0,0.0
15436,66.0,30.0,60.0,5.0,0.0
15437,48.0,0.0,60.0,8.0,0.0
15438,48.0,0.0,60.0,3.0,0.0
15439,36.0,0.0,60.0,4.0,0.0
15440,48.0,0.0,60.0,6.0,0.0
15441,48.0,0.0,60.0,8.0,0.0
15442,69.0,0.0,120.0,5.0,0.0
15443,48.0,0.0,60.0,3.0,0.0
15444,48.0,60.0,60.0,6.0,0.0
15445,36.0,0.0,60.0,4.0,0.0
15446,63.0,30.0,30.0,7.0,0.0
15447,64.0,0.0,30.0,7.0,0.0
15448,48.0,0.0,60.0,3.0,0.0
15449,36.0,0.0,60.0,4.0,0.0
15450,66.0,0.0,60.0,7.0,0.0
15451,48.0,60.0,60.0,8.0,0.0
15452,48.0,0.0,60.0,6.0,0.0
15453,64.0,0.0,60.0,7.0,0.0
15454,37.0,0.0,60.0,4.0,0.0
15455,68.0,0.0,60.0,5.0,0.0
15456,49.0,60.0,60.0,3.0,0.0
15457,49.0,0.0,60.0,6.0,0.0
15458,49.0,0.0,60.0,8.0,0.0
15459,54.0,0.0,60.0,6.0,0.0
15460,60.0,0.0,60.0,5.0,0.0
15461,54.0,0.0,60.0,8.0,0.0
15462,54.0,0.0,60.0,3.0,0.0
15463,69.0,0.0,60.0,7.0,0.0
15464,30.0,60.0,60.0,4.0,0.0
15465,52.0,0.0,60.0,8.0,0.0
15466,68.0,0.0,60.0,7.0,0.0
15467,61.0,0.0,60.0,5.0,0.0
15468,52.0,0.0,60.0,3.0,0.0
15469,52.0,30.0,60.0,6.0,0.0
15470,28.0,0.0,60.0,4.0,0.0
15471,60.0,0.0,60.0,7.0,0.0
15472,66.0,30.0,30.0,5.0,0.0
15473,51.0,60.0,60.0,6.0,0.0
15474,51.0,0.0,60.0,8.0,0.0
15475,51.0,0.0,60.0,3.0,0.0
15476,27.0,0.0,60.0,4.0,0.0
15477,63.0,0.0,30.0,5.0,0.0
15478,64.0,0.0,60.0,5.0,0.0
15479,25.0,0.0,60.0,4.0,0.0
15480,61.0,0.0,60.0,7.0,0.0
15481,49.0,0.0,60.0,3.0,0.0
15482,49.0,0.0,60.0,8.0,0.0
15483,49.0,30.0,60.0,6.0,0.0
15484,66.0,30.0,30.0,7.0,0.0
15485,48.0,0.0,60.0,3.0,0.0
15486,24.0,0.0,60.0,4.0,0.0
15487,48.0,30.0,60.0,6.0,0.0
15488,48.0,0.0,60.0,8.0,0.0
15489,63.0,0.0,30.0,7.0,0.0
15490,49.0,60.0,60.0,3.0,0.0
15491,64.0,0.0,60.0,7.0,0.0
15492,61.0,0.0,30.0,1.0,0.0
15493,64.0,0.0,30.0,0.0,0.0
15494,25.0,0.0,60.0,4.0,0.0
15495,56.0,30.0,30.0,2.0,0.0
15496,49.0,0.0,60.0,8.0,0.0
15497,49.0,0.0,60.0,6.0,0.0
15498,63.0,0.0,30.0,0.0,0.0
15499,54.0,0.0,30.0,2.0,0.0
15500,60.0,0.0,30.0,1.0,0.0
15501,37.0,0.0,60.0,3.0,0.0
15502,56.0,0.0,60.0,2.0,0.0
15503,37.0,30.0,60.0,8.0,0.0
15504,64.0,0.0,60.0,0.0,0.0
15505,37.0,0.0,60.0,6.0,0.0
15506,61.0,0.0,60.0,1.0,0.0
15507,37.0,0.0,60.0,4.0,0.0
15508,35.0,0.0,60.0,4.0,0.0
15509,65.0,30.0,30.0,5.0,0.0
15510,49.0,60.0,60.0,6.0,0.0
15511,49.0,0.0,60.0,3.0,0.0
15512,49.0,0.0,60.0,8.0,0.0
15513,66.0,0.0,30.0,5.0,0.0
15514,50.0,0.0,60.0,8.0,0.0
15515,50.0,0.0,60.0,6.0,0.0
15516,68.0,30.0,60.0,5.0,0.0
15517,34.0,0.0,60.0,4.0,0.0
15518,50.0,0.0,60.0,3.0,0.0
15519,50.0,0.0,60.0,6.0,0.0
15520,26.0,0.0,60.0,4.0,0.0
15521,65.0,30.0,30.0,7.0,0.0
15522,50.0,60.0,60.0,3.0,0.0
15523,50.0,0.0,60.0,8.0,0.0
15524,71.0,0.0,120.0,5.0,0.0
15525,66.0,0.0,30.0,7.0,0.0
15526,50.0,0.0,60.0,3.0,0.0
15527,26.0,60.0,60.0,4.0,0.0
15528,50.0,0.0,60.0,8.0,0.0
15529,50.0,0.0,60.0,6.0,0.0
15530,68.0,0.0,60.0,7.0,0.0
15531,51.0,0.0,60.0,6.0,0.0
15532,27.0,0.0,60.0,4.0,0.0
15533,66.0,0.0,60.0,7.0,0.0
15534,70.0,60.0,60.0,5.0,0.0
15535,51.0,0.0,60.0,8.0,0.0
15536,51.0,0.0,60.0,3.0,0.0
15537,56.0,0.0,60.0,6.0,0.0
15538,62.0,0.0,60.0,5.0,0.0
15539,32.0,0.0,60.0,4.0,0.0
15540,56.0,60.0,60.0,3.0,0.0
15541,71.0,0.0,60.0,7.0,0.0
15542,56.0,0.0,60.0,8.0,0.0
15543,70.0,0.0,60.0,7.0,0.0
15544,54.0,0.0,60.0,3.0,0.0
15545,54.0,0.0,60.0,8.0,0.0
15546,30.0,0.0,60.0,4.0,0.0
15547,63.0,0.0,60.0,5.0,0.0
15548,54.0,30.0,60.0,6.0,0.0
15549,52.0,60.0,60.0,8.0,0.0
15550,62.0,0.0,60.0,7.0,0.0
15551,29.0,0.0,60.0,4.0,0.0
15552,68.0,30.0,30.0,5.0,0.0
15553,53.0,0.0,60.0,3.0,0.0
15554,53.0,0.0,60.0,6.0,0.0
15555,65.0,0.0,30.0,5.0,0.0
15556,51.0,0.0,60.0,8.0,0.0
15557,51.0,0.0,60.0,3.0,0.0
15558,27.0,0.0,60.0,4.0,0.0
15559,67.0,0.0,60.0,5.0,0.0
15560,63.0,0.0,60.0,7.0,0.0
15561,51.0,30.0,60.0,6.0,0.0
15562,50.0,0.0,60.0,6.0,0.0
15563,50.0,0.0,60.0,3.0,0.0
15564,68.0,30.0,30.0,7.0,0.0
15565,26.0,0.0,60.0,4.0,0.0
15566,50.0,31.0,60.0,8.0,0.0
15567,65.0,0.0,30.0,7.0,0.0
15568,67.0,0.0,30.0,0.0,0.0
15569,51.0,0.0,60.0,6.0,0.0
15570,63.0,29.0,30.0,1.0,0.0
15571,51.0,0.0,60.0,3.0,0.0
15572,27.0,0.0,60.0,4.0,0.0
15573,51.0,0.0,60.0,8.0,0.0
15574,67.0,1.0,60.0,7.0,0.0
15575,58.0,0.0,30.0,2.0,0.0
15576,56.0,59.0,30.0,2.0,0.0
15577,65.0,0.0,30.0,0.0,0.0
15578,62.0,0.0,30.0,1.0,0.0
15579,63.0,30.0,60.0,1.0,0.0
15580,39.0,0.0,60.0,8.0,0.0
15581,67.0,0.0,60.0,0.0,0.0
15582,39.0,0.0,60.0,3.0,0.0
15583,39.0,0.0,60.0,6.0,0.0
15584,39.0,0.0,60.0,4.0,0.0
15585,58.0,0.0,60.0,2.0,0.0
15586,75.0,1.0,30.0,5.0,0.0
15587,51.0,0.0,60.0,8.0,0.0
15588,51.0,0.0,60.0,3.0,0.0
15589,37.0,0.0,60.0,4.0,0.0
15590,51.0,0.0,60.0,6.0,0.0
15591,75.0,29.0,30.0,0.0,0.0
15592,70.0,0.0,60.0,1.0,0.0
15593,55.0,0.0,60.0,2.0,0.0
15594,74.0,29.0,30.0,0.0,0.0
15595,74.0,1.0,30.0,5.0,0.0
15596,47.0,0.0,60.0,6.0,0.0
15597,47.0,0.0,60.0,8.0,0.0
15598,51.0,0.0,60.0,2.0,0.0
15599,75.0,30.0,30.0,5.0,0.0
15600,47.0,0.0,60.0,3.0,0.0
15601,35.0,0.0,60.0,4.0,0.0
15602,68.0,0.0,60.0,1.0,0.0
15603,75.0,0.0,60.0,0.0,0.0
15604,70.0,30.0,30.0,5.0,0.0
15605,44.0,0.0,60.0,8.0,0.0
15606,75.0,30.0,30.0,7.0,0.0
15607,32.0,0.0,60.0,4.0,0.0
15608,44.0,0.0,60.0,3.0,0.0
15609,71.0,0.0,30.0,5.0,0.0
15610,44.0,30.0,60.0,6.0,0.0
15611,74.0,0.0,30.0,7.0,0.0
15612,68.0,0.0,30.0,5.0,0.0
15613,75.0,0.0,30.0,7.0,0.0
15614,70.0,30.0,30.0,5.0,0.0
15615,67.0,0.0,30.0,5.0,0.0
15616,70.0,30.0,30.0,7.0,0.0
15617,44.0,0.0,60.0,8.0,0.0
15618,68.0,0.0,30.0,2.0,0.0
15619,44.0,0.0,60.0,3.0,0.0
15620,71.0,0.0,30.0,1.0,0.0
15621,32.0,0.0,60.0,4.0,0.0
15622,71.0,0.0,30.0,7.0,0.0
15623,68.0,0.0,30.0,5.0,0.0
15624,75.0,30.0,30.0,0.0,0.0
15625,44.0,30.0,60.0,6.0,0.0
15626,74.0,0.0,30.0,0.0,0.0
15627,65.0,0.0,30.0,5.0,0.0
15628,68.0,0.0,30.0,7.0,0.0
15629,68.0,0.0,30.0,1.0,0.0
15630,65.0,0.0,30.0,2.0,0.0
15631,67.0,0.0,60.0,2.0,0.0
15632,49.0,0.0,60.0,8.0,0.0
15633,70.0,30.0,30.0,7.0,0.0
15634,67.0,0.0,30.0,5.0,0.0
15635,75.0,0.0,60.0,0.0,0.0
15636,70.0,0.0,60.0,1.0,0.0
15637,49.0,0.0,60.0,6.0,0.0
15638,49.0,0.0,60.0,3.0,0.0
15639,37.0,30.0,60.0,4.0,0.0
15640,67.0,0.0,30.0,7.0,0.0
15641,63.0,0.0,30.0,5.0,0.0
15642,47.0,29.0,60.0,8.0,0.0
15643,35.0,0.0,60.0,4.0,0.0
15644,47.0,0.0,60.0,6.0,0.0
15645,47.0,0.0,60.0,3.0,0.0
15646,63.0,0.0,60.0,7.0,0.0
15647,67.0,30.0,30.0,5.0,0.0
15648,70.0,0.0,30.0,5.0,0.0
15649,73.0,30.0,30.0,5.0,0.0
15650,34.0,0.0,60.0,4.0,0.0
15651,46.0,0.0,60.0,3.0,0.0
15652,46.0,29.0,60.0,6.0,0.0
15653,46.0,0.0,60.0,8.0,0.0
15654,70.0,1.0,30.0,5.0,0.0
15655,71.0,1.0,30.0,5.0,0.0
15656,32.0,0.0,60.0,4.0,0.0
15657,44.0,29.0,60.0,3.0,0.0
15658,44.0,0.0,60.0,8.0,0.0
15659,44.0,0.0,60.0,6.0,0.0
15660,75.0,29.0,30.0,0.0,0.0
15661,68.0,0.0,60.0,2.0,0.0
15662,75.0,0.0,30.0,7.0,0.0
15663,71.0,0.0,30.0,1.0,0.0
15664,68.0,1.0,30.0,5.0,0.0
15665,71.0,0.0,30.0,7.0,0.0
15666,68.0,0.0,30.0,1.0,0.0
15667,74.0,0.0,30.0,0.0,0.0
15668,70.0,1.0,30.0,5.0,0.0
15669,63.0,0.0,60.0,2.0,0.0
15670,43.0,29.0,60.0,6.0,0.0
15671,43.0,0.0,60.0,3.0,0.0
15672,43.0,0.0,60.0,8.0,0.0
15673,31.0,0.0,60.0,4.0,0.0
15674,70.0,0.0,60.0,1.0,0.0
15675,75.0,0.0,60.0,0.0,0.0
15676,73.0,29.0,30.0,7.0,0.0
15677,67.0,1.0,30.0,5.0,0.0
15678,70.0,0.0,30.0,7.0,0.0
15679,68.0,1.0,30.0,5.0,0.0
15680,27.0,0.0,60.0,4.0,0.0
15681,39.0,0.0,60.0,3.0,0.0
15682,39.0,0.0,60.0,6.0,0.0
15683,39.0,29.0,60.0,8.0,0.0
15684,71.0,29.0,30.0,7.0,0.0
15685,65.0,1.0,30.0,5.0,0.0
15686,68.0,0.0,30.0,7.0,0.0
15687,67.0,1.0,30.0,5.0,0.0
15688,51.0,0.0,60.0,3.0,0.0
15689,70.0,29.0,30.0,7.0,0.0
15690,51.0,29.0,60.0,6.0,0.0
15691,51.0,0.0,60.0,8.0,0.0
15692,39.0,0.0,60.0,4.0,0.0
15693,63.0,1.0,30.0,5.0,0.0
15694,67.0,0.0,30.0,7.0,0.0
15695,67.0,2.0,30.0,5.0,0.0
15696,63.0,0.0,60.0,7.0,0.0
15697,67.0,0.0,30.0,1.0,0.0
15698,39.0,0.0,60.0,3.0,0.0
15699,73.0,28.0,30.0,0.0,0.0
15700,39.0,0.0,60.0,6.0,0.0
15701,63.0,0.0,30.0,2.0,0.0
15702,39.0,19.0,60.0,8.0,0.0
15703,27.0,0.0,60.0,4.0,0.0
15704,70.0,1.0,30.0,5.0,0.0
15705,71.0,12.0,20.0,5.0,0.0
15706,44.0,0.0,60.0,8.0,0.0
15707,71.0,8.0,30.0,0.0,0.0
15708,68.0,0.0,30.0,1.0,0.0
15709,44.0,20.0,60.0,3.0,0.0
15710,44.0,0.0,60.0,6.0,0.0
15711,63.0,0.0,30.0,2.0,0.0
15712,32.0,0.0,60.0,4.0,0.0
15713,69.0,20.0,20.0,5.0,0.0
15714,68.0,1.0,20.0,5.0,0.0
15715,69.0,20.0,90.0,5.0,0.0
15716,64.0,0.0,30.0,1.0,0.0
15717,49.0,0.0,60.0,3.0,0.0
15718,64.0,11.0,20.0,7.0,0.0
15719,37.0,0.0,60.0,4.0,0.0
15720,69.0,0.0,30.0,0.0,0.0
15721,49.0,0.0,60.0,8.0,0.0
15722,49.0,0.0,60.0,6.0,0.0
15723,61.0,9.0,30.0,2.0,0.0
15724,63.0,20.0,20.0,7.0,0.0
15725,61.0,19.0,20.0,7.0,0.0
15726,47.0,0.0,60.0,3.0,0.0
15727,47.0,21.0,60.0,6.0,0.0
15728,47.0,0.0,60.0,8.0,0.0
15729,35.0,0.0,60.0,4.0,0.0
15730,63.0,10.0,90.0,7.0,0.0
15731,68.0,20.0,20.0,5.0,0.0
15732,67.0,1.0,20.0,5.0,0.0
15733,68.0,1.0,90.0,5.0,0.0
15734,35.0,0.0,60.0,8.0,0.0
15735,23.0,0.0,60.0,4.0,0.0
15736,35.0,0.0,60.0,3.0,0.0
15737,68.0,9.0,30.0,0.0,0.0
15738,63.0,0.0,30.0,1.0,0.0
15739,56.0,0.0,30.0,2.0,0.0
15740,59.0,29.0,60.0,6.0,0.0
15741,61.0,20.0,20.0,7.0,0.0
15742,59.0,0.0,20.0,7.0,0.0
15743,22.0,29.0,60.0,4.0,0.0
15744,34.0,0.0,60.0,8.0,0.0
15745,34.0,0.0,60.0,3.0,0.0
15746,58.0,0.0,60.0,6.0,0.0
15747,61.0,29.0,30.0,7.0,0.0
15748,76.0,1.0,30.0,5.0,0.0
15749,59.0,0.0,30.0,7.0,0.0
15750,67.0,1.0,30.0,5.0,0.0
15751,61.0,0.0,30.0,1.0,0.0
15752,76.0,0.0,30.0,0.0,0.0
15753,46.0,0.0,60.0,6.0,0.0
15754,46.0,0.0,60.0,8.0,0.0
15755,46.0,0.0,60.0,3.0,0.0
15756,61.0,1.0,30.0,7.0,0.0
15757,34.0,0.0,60.0,4.0,0.0
15758,58.0,28.0,30.0,2.0,0.0
15759,68.0,1.0,30.0,5.0,0.0
15760,59.0,29.0,30.0,7.0,0.0
15761,67.0,1.0,30.0,5.0,0.0
15762,61.0,0.0,60.0,7.0,0.0
15763,39.0,29.0,30.0,8.0,0.0
15764,61.0,0.0,60.0,1.0,0.0
15765,27.0,0.0,60.0,4.0,0.0
15766,67.0,0.0,60.0,0.0,0.0
15767,39.0,0.0,60.0,3.0,0.0
15768,51.0,0.0,30.0,6.0,0.0
15769,58.0,29.0,60.0,2.0,0.0
15770,63.0,1.0,30.0,5.0,0.0
15771,39.0,0.0,30.0,6.0,0.0
15772,43.0,0.0,30.0,8.0,0.0
15773,58.0,1.0,30.0,5.0,0.0
15774,43.0,29.0,30.0,6.0,0.0
15775,46.0,0.0,30.0,8.0,0.0
15776,55.0,1.0,30.0,5.0,0.0
15777,51.0,0.0,30.0,8.0,0.0
15778,46.0,60.0,30.0,6.0,0.0
15779,51.0,19.0,60.0,5.0,0.0
15780,39.0,1.0,60.0,8.0,0.0
15781,67.0,0.0,20.0,7.0,0.0
15782,58.0,20.0,20.0,5.0,0.0
15783,59.0,0.0,20.0,5.0,0.0
15784,68.0,20.0,20.0,7.0,0.0
15785,70.0,20.0,20.0,7.0,0.0
15786,61.0,0.0,20.0,5.0,0.0
15787,70.0,0.0,20.0,7.0,0.0
15788,61.0,20.0,20.0,5.0,0.0
15789,63.0,0.0,20.0,5.0,0.0
15790,71.0,20.0,20.0,7.0,0.0
15791,65.0,0.0,20.0,5.0,0.0
15792,73.0,20.0,20.0,7.0,0.0
15793,65.0,0.0,20.0,5.0,0.0
15794,73.0,20.0,20.0,7.0,0.0
15795,67.0,0.0,20.0,5.0,0.0
15796,71.0,20.0,20.0,7.0,0.0
15797,68.0,0.0,20.0,5.0,0.0
15798,70.0,30.0,20.0,7.0,0.0
15799,39.0,29.0,30.0,8.0,0.0
15800,39.0,0.0,60.0,3.0,0.0
15801,59.0,0.0,60.0,1.0,0.0
15802,68.0,1.0,30.0,5.0,0.0
15803,71.0,1.0,60.0,7.0,0.0
15804,27.0,0.0,60.0,4.0,0.0
15805,63.0,0.0,60.0,2.0,0.0
15806,68.0,0.0,60.0,0.0,0.0
15807,39.0,0.0,30.0,6.0,0.0
15808,63.0,0.0,30.0,5.0,0.0
15809,44.0,29.0,30.0,8.0,0.0
15810,47.0,29.0,30.0,8.0,0.0
15811,44.0,1.0,30.0,6.0,0.0
15812,59.0,0.0,30.0,5.0,0.0
15813,56.0,0.0,30.0,5.0,0.0
15814,51.0,59.0,30.0,8.0,0.0
15815,47.0,1.0,30.0,6.0,0.0
15816,51.0,20.0,60.0,5.0,0.0
15817,39.0,0.0,60.0,8.0,0.0
15818,59.0,0.0,20.0,5.0,0.0
15819,68.0,20.0,20.0,7.0,0.0
15820,61.0,0.0,20.0,5.0,0.0
15821,70.0,20.0,20.0,7.0,0.0
15822,63.0,20.0,20.0,5.0,0.0
15823,71.0,0.0,20.0,7.0,0.0
15824,63.0,20.0,20.0,5.0,0.0
15825,71.0,0.0,20.0,7.0,0.0
15826,73.0,0.0,20.0,7.0,0.0
15827,65.0,20.0,20.0,5.0,0.0
15828,75.0,20.0,20.0,7.0,0.0
15829,67.0,0.0,20.0,5.0,0.0
15830,75.0,0.0,20.0,7.0,0.0
15831,67.0,20.0,20.0,5.0,0.0
15832,73.0,20.0,20.0,7.0,0.0
15833,68.0,0.0,20.0,5.0,0.0
15834,70.0,0.0,20.0,5.0,0.0
15835,71.0,30.0,20.0,7.0,0.0
15836,39.0,0.0,60.0,3.0,0.0
15837,70.0,0.0,60.0,0.0,0.0
15838,63.0,0.0,60.0,2.0,0.0
15839,70.0,1.0,30.0,5.0,0.0
15840,39.0,29.0,30.0,8.0,0.0
15841,73.0,0.0,60.0,7.0,0.0
15842,67.0,0.0,60.0,1.0,0.0
15843,27.0,0.0,60.0,4.0,0.0
15844,39.0,1.0,30.0,6.0,0.0
15845,67.0,0.0,30.0,5.0,0.0
15846,43.0,29.0,30.0,8.0,0.0
15847,43.0,0.0,30.0,6.0,0.0
15848,46.0,29.0,30.0,8.0,0.0
15849,61.0,1.0,30.0,5.0,0.0
15850,58.0,1.0,30.0,5.0,0.0
15851,51.0,59.0,30.0,8.0,0.0
15852,46.0,0.0,30.0,6.0,0.0
15853,39.0,0.0,60.0,8.0,0.0
15854,51.0,20.0,60.0,5.0,0.0
15855,55.0,0.0,20.0,7.0,0.0
15856,63.0,20.0,20.0,5.0,0.0
15857,56.0,20.0,20.0,7.0,0.0
15858,65.0,0.0,20.0,5.0,0.0
15859,58.0,20.0,20.0,7.0,0.0
15860,67.0,0.0,20.0,5.0,0.0
15861,67.0,0.0,20.0,5.0,0.0
15862,58.0,20.0,20.0,7.0,0.0
15863,68.0,0.0,20.0,5.0,0.0
15864,59.0,20.0,20.0,7.0,0.0
15865,61.0,20.0,20.0,7.0,0.0
15866,70.0,0.0,20.0,5.0,0.0
15867,70.0,0.0,20.0,5.0,0.0
15868,61.0,20.0,20.0,7.0,0.0
15869,59.0,20.0,20.0,7.0,0.0
15870,71.0,0.0,20.0,5.0,0.0
15871,73.0,0.0,20.0,5.0,0.0
15872,58.0,30.0,20.0,7.0,0.0
15873,56.0,0.0,30.0,7.0,0.0
15874,71.0,30.0,30.0,0.0,0.0
15875,44.0,0.0,120.0,8.0,0.0
15876,63.0,0.0,120.0,2.0,0.0
15877,71.0,0.0,30.0,5.0,0.0
15878,68.0,0.0,120.0,1.0,0.0
15879,32.0,0.0,120.0,4.0,0.0
15880,44.0,29.0,120.0,6.0,0.0
15881,44.0,0.0,120.0,3.0,0.0
15882,68.0,0.0,30.0,5.0,0.0
15883,63.0,0.0,30.0,0.0,0.0
15884,59.0,30.0,30.0,7.0,0.0
15885,58.0,0.0,30.0,7.0,0.0
15886,61.0,30.0,30.0,0.0,0.0
15887,67.0,0.0,30.0,5.0,0.0
15888,59.0,0.0,30.0,7.0,0.0
15889,63.0,1.0,30.0,0.0,0.0
15890,68.0,0.0,30.0,5.0,0.0
15891,64.0,30.0,30.0,0.0,0.0
15892,61.0,0.0,30.0,7.0,0.0
15893,69.0,0.0,30.0,5.0,0.0
15894,59.0,0.0,30.0,7.0,0.0
15895,68.0,0.0,30.0,5.0,0.0
15896,63.0,30.0,30.0,0.0,0.0
15897,58.0,0.0,30.0,7.0,0.0
15898,44.0,0.0,60.0,3.0,0.0
15899,32.0,0.0,60.0,4.0,0.0
15900,67.0,30.0,30.0,5.0,0.0
15901,44.0,0.0,60.0,6.0,0.0
15902,56.0,0.0,60.0,1.0,0.0
15903,44.0,0.0,60.0,8.0,0.0
15904,61.0,0.0,30.0,0.0,0.0
15905,63.0,1.0,30.0,0.0,0.0
15906,59.0,0.0,30.0,7.0,0.0
15907,68.0,0.0,30.0,5.0,0.0
15908,37.0,0.0,60.0,4.0,0.0
15909,56.0,0.0,60.0,1.0,0.0
15910,64.0,10.0,20.0,5.0,0.0
15911,49.0,0.0,60.0,6.0,0.0
15912,49.0,0.0,60.0,3.0,0.0
15913,64.0,0.0,30.0,7.0,0.0
15914,64.0,10.0,30.0,0.0,0.0
15915,49.0,19.0,60.0,8.0,0.0
15916,56.0,19.0,15.0,2.0,0.0
15917,67.0,20.0,20.0,5.0,0.0
15918,68.0,1.0,20.0,5.0,0.0
15919,61.0,10.0,20.0,5.0,0.0
15920,61.0,0.0,30.0,7.0,0.0
15921,46.0,0.0,60.0,6.0,0.0
15922,34.0,0.0,60.0,4.0,0.0
15923,61.0,10.0,30.0,0.0,0.0
15924,46.0,0.0,60.0,8.0,0.0
15925,56.0,0.0,15.0,2.0,0.0
15926,46.0,0.0,60.0,3.0,0.0
15927,67.0,20.0,20.0,5.0,0.0
15928,68.0,1.0,20.0,5.0,0.0
15929,68.0,0.0,30.0,0.0,0.0
15930,47.0,0.0,120.0,3.0,0.0
15931,56.0,0.0,120.0,2.0,0.0
15932,47.0,0.0,120.0,8.0,0.0
15933,35.0,0.0,120.0,4.0,0.0
15934,56.0,29.0,15.0,1.0,0.0
15935,63.0,30.0,30.0,5.0,0.0
15936,63.0,0.0,30.0,7.0,0.0
15937,47.0,0.0,120.0,6.0,0.0
15938,63.0,0.0,30.0,0.0,0.0
15939,59.0,0.0,30.0,7.0,0.0
15940,68.0,30.0,30.0,5.0,0.0
15941,67.0,0.0,30.0,5.0,0.0
15942,61.0,30.0,30.0,0.0,0.0
15943,58.0,0.0,30.0,7.0,0.0
15944,68.0,0.0,30.0,5.0,0.0
15945,63.0,1.0,30.0,0.0,0.0
15946,59.0,0.0,30.0,7.0,0.0
15947,71.0,30.0,30.0,5.0,0.0
15948,59.0,0.0,30.0,0.0,0.0
15949,56.0,0.0,30.0,7.0,0.0
15950,63.0,0.0,30.0,0.0,0.0
15951,68.0,30.0,30.0,5.0,0.0
15952,59.0,0.0,30.0,7.0,0.0
15953,32.0,0.0,60.0,4.0,0.0
15954,56.0,0.0,60.0,2.0,0.0
15955,44.0,0.0,60.0,8.0,0.0
15956,56.0,0.0,60.0,1.0,0.0
15957,44.0,0.0,60.0,3.0,0.0
15958,58.0,0.0,30.0,7.0,0.0
15959,67.0,0.0,30.0,5.0,0.0
15960,61.0,30.0,30.0,0.0,0.0
15961,44.0,19.0,60.0,6.0,0.0
15962,59.0,1.0,30.0,7.0,0.0
15963,63.0,0.0,30.0,0.0,0.0
15964,68.0,0.0,30.0,5.0,0.0
15965,47.0,19.0,60.0,8.0,0.0
15966,63.0,10.0,30.0,0.0,0.0
15967,35.0,0.0,60.0,4.0,0.0
15968,47.0,0.0,60.0,6.0,0.0
15969,47.0,0.0,60.0,3.0,0.0
15970,63.0,10.0,20.0,5.0,0.0
15971,63.0,0.0,30.0,7.0,0.0
15972,66.0,20.0,20.0,5.0,0.0
15973,68.0,1.0,20.0,5.0,0.0
15974,56.0,0.0,15.0,1.0,0.0
15975,59.0,0.0,30.0,7.0,0.0
15976,56.0,0.0,15.0,2.0,0.0
15977,59.0,10.0,20.0,5.0,0.0
15978,32.0,0.0,60.0,4.0,0.0
15979,44.0,0.0,60.0,3.0,0.0
15980,59.0,10.0,30.0,0.0,0.0
15981,44.0,0.0,60.0,8.0,0.0
15982,44.0,0.0,60.0,6.0,0.0
15983,67.0,20.0,20.0,5.0,0.0
15984,68.0,1.0,20.0,5.0,0.0
15985,61.0,30.0,30.0,5.0,0.0
15986,61.0,0.0,30.0,7.0,0.0
15987,56.0,0.0,120.0,1.0,0.0
15988,61.0,0.0,30.0,0.0,0.0
15989,56.0,29.0,15.0,2.0,0.0
15990,46.0,0.0,120.0,8.0,0.0
15991,46.0,0.0,120.0,3.0,0.0
15992,34.0,0.0,120.0,4.0,0.0
15993,46.0,0.0,120.0,6.0,0.0
15994,64.0,0.0,30.0,7.0,0.0
15995,68.0,0.0,30.0,5.0,0.0
15996,59.0,30.0,30.0,0.0,0.0
15997,58.0,0.0,30.0,0.0,0.0
15998,67.0,0.0,30.0,5.0,0.0
15999,63.0,30.0,30.0,7.0,0.0
16000,59.0,0.0,30.0,0.0,0.0
16001,68.0,1.0,30.0,5.0,0.0
16002,64.0,0.0,30.0,7.0,0.0
16003,61.0,0.0,30.0,7.0,0.0
16004,76.0,0.0,30.0,5.0,0.0
16005,61.0,30.0,30.0,0.0,0.0
16006,68.0,30.0,30.0,5.0,0.0
16007,64.0,0.0,30.0,7.0,0.0
16008,59.0,0.0,30.0,0.0,0.0
16009,37.0,0.0,60.0,4.0,0.0
16010,58.0,0.0,30.0,0.0,0.0
16011,63.0,0.0,30.0,7.0,0.0
16012,49.0,0.0,60.0,6.0,0.0
16013,67.0,30.0,30.0,5.0,0.0
16014,49.0,0.0,60.0,8.0,0.0
16015,58.0,0.0,60.0,1.0,0.0
16016,49.0,0.0,60.0,3.0,0.0
16017,52.0,19.0,60.0,2.0,0.0
16018,64.0,0.0,30.0,7.0,0.0
16019,59.0,1.0,30.0,0.0,0.0
16020,68.0,0.0,30.0,5.0,0.0
16021,61.0,10.0,20.0,5.0,0.0
16022,61.0,0.0,30.0,0.0,0.0
16023,39.0,0.0,60.0,3.0,0.0
16024,27.0,0.0,60.0,4.0,0.0
16025,39.0,0.0,60.0,6.0,0.0
16026,55.0,19.0,60.0,1.0,0.0
16027,46.0,0.0,60.0,2.0,0.0
16028,61.0,10.0,30.0,7.0,0.0
16029,39.0,0.0,60.0,8.0,0.0
16030,67.0,20.0,20.0,5.0,0.0
16031,68.0,1.0,20.0,5.0,0.0
16032,31.0,0.0,60.0,4.0,0.0
16033,43.0,0.0,60.0,3.0,0.0
16034,58.0,0.0,30.0,0.0,0.0
16035,58.0,10.0,30.0,7.0,0.0
16036,58.0,30.0,60.0,1.0,0.0
16037,43.0,0.0,60.0,6.0,0.0
16038,58.0,10.0,20.0,5.0,0.0
16039,43.0,0.0,60.0,8.0,0.0
16040,67.0,20.0,20.0,5.0,0.0
16041,68.0,1.0,20.0,5.0,0.0
16042,44.0,0.0,30.0,8.0,0.0
16043,51.0,0.0,15.0,2.0,0.0
16044,59.0,1.0,60.0,7.0,0.0
16045,56.0,0.0,60.0,1.0,0.0
16046,44.0,29.0,30.0,6.0,0.0
16047,32.0,0.0,30.0,4.0,0.0
16048,59.0,0.0,60.0,5.0,0.0
16049,59.0,0.0,60.0,0.0,0.0
16050,44.0,0.0,30.0,3.0,0.0
16051,44.0,0.0,30.0,4.0,0.0
16052,56.0,0.0,30.0,3.0,0.0
16053,56.0,0.0,30.0,8.0,0.0
16054,56.0,0.0,30.0,6.0,0.0
16055,63.0,0.0,60.0,5.0,0.0
16056,54.0,0.0,30.0,8.0,0.0
16057,63.0,0.0,60.0,0.0,0.0
16058,54.0,0.0,30.0,6.0,0.0
16059,59.0,30.0,60.0,1.0,0.0
16060,56.0,0.0,60.0,2.0,0.0
16061,63.0,1.0,60.0,7.0,0.0
16062,54.0,0.0,30.0,3.0,0.0
16063,42.0,29.0,30.0,4.0,0.0
16064,52.0,0.0,30.0,6.0,0.0
16065,52.0,0.0,30.0,8.0,0.0
16066,40.0,0.0,30.0,4.0,0.0
16067,52.0,0.0,30.0,3.0,0.0
16068,51.0,0.0,30.0,6.0,0.0
16069,51.0,29.0,30.0,3.0,0.0
16070,68.0,1.0,60.0,7.0,0.0
16071,68.0,0.0,60.0,0.0,0.0
16072,51.0,0.0,30.0,8.0,0.0
16073,68.0,0.0,60.0,5.0,0.0
16074,59.0,0.0,60.0,2.0,0.0
16075,63.0,30.0,60.0,1.0,0.0
16076,39.0,0.0,30.0,4.0,0.0
16077,37.0,0.0,30.0,4.0,0.0
16078,49.0,0.0,30.0,3.0,0.0
16079,49.0,0.0,30.0,8.0,0.0
16080,49.0,0.0,30.0,6.0,0.0
16081,47.0,30.0,30.0,3.0,0.0
16082,47.0,0.0,30.0,8.0,0.0
16083,63.0,0.0,60.0,2.0,0.0
16084,71.0,0.0,60.0,7.0,0.0
16085,71.0,0.0,60.0,0.0,0.0
16086,47.0,0.0,30.0,6.0,0.0
16087,68.0,0.0,60.0,1.0,0.0
16088,35.0,0.0,30.0,4.0,0.0
16089,71.0,0.0,60.0,5.0,0.0
16090,46.0,0.0,30.0,8.0,0.0
16091,46.0,0.0,30.0,3.0,0.0
16092,46.0,15.0,30.0,6.0,0.0
16093,34.0,0.0,30.0,4.0,0.0
16094,75.0,0.0,15.0,0.0,0.0
16095,44.0,0.0,30.0,3.0,0.0
16096,75.0,15.0,15.0,5.0,0.0
16097,75.0,0.0,15.0,7.0,0.0
16098,44.0,0.0,30.0,6.0,0.0
16099,65.0,0.0,60.0,2.0,0.0
16100,70.0,0.0,60.0,1.0,0.0
16101,44.0,15.0,30.0,8.0,0.0
16102,32.0,0.0,30.0,4.0,0.0
16103,74.0,0.0,15.0,7.0,0.0
16104,74.0,0.0,15.0,0.0,0.0
16105,74.0,0.0,15.0,5.0,0.0
16106,75.0,0.0,15.0,7.0,0.0
16107,75.0,0.0,15.0,0.0,0.0
16108,35.0,0.0,30.0,4.0,0.0
16109,75.0,15.0,15.0,5.0,0.0
16110,47.0,0.0,30.0,8.0,0.0
16111,47.0,0.0,30.0,3.0,0.0
16112,47.0,0.0,30.0,6.0,0.0
16113,74.0,0.0,15.0,0.0,0.0
16114,74.0,15.0,15.0,7.0,0.0
16115,74.0,0.0,15.0,5.0,0.0
16116,34.0,0.0,30.0,4.0,0.0
16117,75.0,0.0,15.0,5.0,0.0
16118,46.0,0.0,30.0,3.0,0.0
16119,58.0,0.0,60.0,2.0,0.0
16120,75.0,15.0,15.0,0.0,0.0
16121,75.0,0.0,15.0,7.0,0.0
16122,65.0,0.0,60.0,1.0,0.0
16123,46.0,15.0,30.0,8.0,0.0
16124,46.0,0.0,30.0,6.0,0.0
16125,74.0,0.0,15.0,5.0,0.0
16126,74.0,0.0,15.0,7.0,0.0
16127,74.0,0.0,15.0,0.0,0.0
16128,44.0,0.0,30.0,6.0,0.0
16129,72.0,15.0,15.0,5.0,0.0
16130,72.0,0.0,15.0,0.0,0.0
16131,72.0,0.0,15.0,7.0,0.0
16132,44.0,0.0,30.0,8.0,0.0
16133,32.0,30.0,30.0,4.0,0.0
16134,44.0,0.0,30.0,3.0,0.0
16135,74.0,0.0,15.0,0.0,0.0
16136,74.0,0.0,15.0,7.0,0.0
16137,74.0,0.0,15.0,5.0,0.0
16138,75.0,0.0,60.0,5.0,0.0
16139,70.0,30.0,60.0,1.0,0.0
16140,43.0,0.0,30.0,6.0,0.0
16141,75.0,0.0,60.0,7.0,0.0
16142,43.0,0.0,30.0,8.0,0.0
16143,75.0,0.0,60.0,0.0,0.0
16144,58.0,0.0,60.0,2.0,0.0
16145,43.0,0.0,30.0,3.0,0.0
16146,31.0,30.0,30.0,4.0,0.0
16147,39.0,0.0,30.0,6.0,0.0
16148,39.0,0.0,30.0,8.0,0.0
16149,39.0,0.0,30.0,3.0,0.0
16150,27.0,0.0,30.0,4.0,0.0
16151,29.0,0.0,30.0,4.0,0.0
16152,41.0,30.0,30.0,6.0,0.0
16153,70.0,0.0,60.0,5.0,0.0
16154,70.0,0.0,60.0,7.0,0.0
16155,41.0,0.0,30.0,8.0,0.0
16156,67.0,0.0,60.0,1.0,0.0
16157,63.0,0.0,60.0,2.0,0.0
16158,70.0,0.0,60.0,0.0,0.0
16159,41.0,0.0,30.0,3.0,0.0
16160,31.0,30.0,30.0,4.0,0.0
16161,43.0,0.0,30.0,3.0,0.0
16162,43.0,0.0,30.0,8.0,0.0
16163,43.0,0.0,30.0,6.0,0.0
16164,44.0,0.0,30.0,3.0,0.0
16165,71.0,0.0,60.0,7.0,0.0
16166,71.0,30.0,60.0,0.0,0.0
16167,44.0,0.0,30.0,6.0,0.0
16168,71.0,0.0,60.0,5.0,0.0
16169,44.0,0.0,30.0,8.0,0.0
16170,32.0,30.0,30.0,4.0,0.0
16171,46.0,0.0,30.0,8.0,0.0
16172,46.0,0.0,30.0,6.0,0.0
16173,34.0,0.0,30.0,4.0,0.0
16174,46.0,0.0,30.0,3.0,0.0
16175,47.0,0.0,30.0,8.0,0.0
16176,47.0,0.0,30.0,6.0,0.0
16177,56.0,0.0,15.0,2.0,0.0
16178,63.0,0.0,15.0,1.0,0.0
16179,68.0,0.0,60.0,5.0,0.0
16180,68.0,0.0,60.0,0.0,0.0
16181,35.0,0.0,30.0,4.0,0.0
16182,68.0,0.0,60.0,7.0,0.0
16183,47.0,30.0,30.0,3.0,0.0
16184,49.0,0.0,30.0,6.0,0.0
16185,49.0,0.0,30.0,8.0,0.0
16186,37.0,0.0,30.0,4.0,0.0
16187,49.0,0.0,30.0,3.0,0.0
16188,51.0,0.0,60.0,6.0,0.0
16189,63.0,0.0,60.0,0.0,0.0
16190,39.0,0.0,60.0,4.0,0.0
16191,51.0,0.0,60.0,3.0,0.0
16192,59.0,0.0,60.0,1.0,0.0
16193,51.0,0.0,60.0,8.0,0.0
16194,63.0,0.0,60.0,7.0,0.0
16195,56.0,60.0,15.0,2.0,0.0
16196,63.0,0.0,60.0,5.0,0.0
16197,39.0,30.0,60.0,8.0,0.0
16198,67.0,0.0,60.0,7.0,0.0
16199,39.0,0.0,60.0,3.0,0.0
16200,58.0,0.0,60.0,1.0,0.0
16201,39.0,0.0,60.0,6.0,0.0
16202,67.0,0.0,60.0,0.0,0.0
16203,27.0,0.0,60.0,4.0,0.0
16204,67.0,0.0,60.0,5.0,0.0
16205,32.0,0.0,60.0,4.0,0.0
16206,68.0,0.0,30.0,0.0,0.0
16207,44.0,0.0,60.0,3.0,0.0
16208,51.0,0.0,15.0,2.0,0.0
16209,68.0,0.0,30.0,7.0,0.0
16210,68.0,30.0,30.0,5.0,0.0
16211,59.0,0.0,60.0,1.0,0.0
16212,44.0,0.0,60.0,6.0,0.0
16213,44.0,30.0,60.0,8.0,0.0
16214,63.0,0.0,30.0,7.0,0.0
16215,63.0,0.0,30.0,5.0,0.0
16216,63.0,0.0,30.0,0.0,0.0
16217,20.0,0.0,60.0,4.0,0.0
16218,32.0,0.0,60.0,8.0,0.0
16219,61.0,0.0,30.0,1.0,0.0
16220,64.0,0.0,30.0,7.0,0.0
16221,64.0,30.0,30.0,5.0,0.0
16222,64.0,0.0,30.0,0.0,0.0
16223,32.0,0.0,60.0,6.0,0.0
16224,61.0,30.0,30.0,7.0,0.0
16225,58.0,0.0,30.0,1.0,0.0
16226,61.0,0.0,30.0,0.0,0.0
16227,61.0,0.0,30.0,5.0,0.0
16228,32.0,0.0,15.0,3.0,0.0
16229,63.0,0.0,30.0,5.0,0.0
16230,63.0,0.0,30.0,7.0,0.0
16231,63.0,0.0,30.0,0.0,0.0
16232,59.0,30.0,30.0,1.0,0.0
16233,20.0,0.0,60.0,4.0,0.0
16234,59.0,0.0,30.0,5.0,0.0
16235,56.0,0.0,30.0,1.0,0.0
16236,51.0,0.0,30.0,2.0,0.0
16237,59.0,0.0,30.0,0.0,0.0
16238,59.0,0.0,30.0,7.0,0.0
16239,61.0,0.0,30.0,7.0,0.0
16240,61.0,0.0,30.0,0.0,0.0
16241,58.0,30.0,30.0,1.0,0.0
16242,61.0,0.0,30.0,5.0,0.0
16243,32.0,0.0,15.0,6.0,0.0
16244,52.0,0.0,30.0,2.0,0.0
16245,32.0,30.0,15.0,8.0,0.0
16246,58.0,0.0,30.0,5.0,0.0
16247,58.0,0.0,30.0,7.0,0.0
16248,49.0,0.0,30.0,2.0,0.0
16249,58.0,30.0,30.0,0.0,0.0
16250,55.0,0.0,30.0,1.0,0.0
16251,59.0,30.0,30.0,5.0,0.0
16252,20.0,0.0,15.0,4.0,0.0
16253,32.0,0.0,15.0,3.0,0.0
16254,51.0,0.0,30.0,2.0,0.0
16255,32.0,0.0,15.0,8.0,0.0
16256,59.0,0.0,30.0,7.0,0.0
16257,56.0,0.0,30.0,1.0,0.0
16258,59.0,0.0,30.0,0.0,0.0
16259,56.0,0.0,30.0,0.0,0.0
16260,47.0,0.0,30.0,2.0,0.0
16261,56.0,0.0,30.0,5.0,0.0
16262,51.0,0.0,30.0,1.0,0.0
16263,56.0,0.0,30.0,7.0,0.0
16264,58.0,30.0,30.0,7.0,0.0
16265,32.0,0.0,15.0,6.0,0.0
16266,32.0,0.0,60.0,8.0,0.0
16267,58.0,0.0,30.0,0.0,0.0
16268,49.0,0.0,30.0,2.0,0.0
16269,58.0,0.0,30.0,5.0,0.0
16270,20.0,120.0,60.0,4.0,0.0
16271,52.0,0.0,60.0,1.0,0.0
16272,55.0,0.0,30.0,0.0,0.0
16273,55.0,0.0,30.0,5.0,0.0
16274,55.0,0.0,30.0,7.0,0.0
16275,46.0,0.0,30.0,2.0,0.0
16276,47.0,0.0,120.0,2.0,0.0
16277,32.0,0.0,120.0,8.0,0.0
16278,56.0,0.0,120.0,7.0,0.0
16279,51.0,0.0,120.0,1.0,0.0
16280,32.0,0.0,15.0,3.0,0.0
16281,32.0,0.0,15.0,6.0,0.0
16282,56.0,0.0,120.0,0.0,0.0
16283,56.0,0.0,120.0,5.0,0.0
16284,20.0,0.0,120.0,4.0,0.0
