,note,step,duration,channel,velocity
0,65.0,0.0,1020.0,0.0,0.0
1,57.0,0.0,1020.0,2.0,0.0
2,60.0,512.0,1020.0,1.0,0.0
3,53.0,0.0,1020.0,3.0,0.0
4,67.0,0.0,1020.0,0.0,0.0
5,55.0,0.0,510.0,2.0,0.0
6,52.0,512.0,510.0,3.0,0.0
7,53.0,0.0,510.0,2.0,0.0
8,50.0,0.0,510.0,3.0,0.0
9,60.0,512.0,15.0,1.0,0.0
10,52.0,0.0,1020.0,2.0,0.0
11,48.0,512.0,510.0,3.0,0.0
12,67.0,0.0,1020.0,0.0,0.0
13,46.0,512.0,510.0,3.0,0.0
14,53.0,512.0,1020.0,2.0,0.0
15,65.0,0.0,1020.0,0.0,0.0
16,60.0,0.0,1020.0,1.0,0.0
17,45.0,512.0,510.0,3.0,0.0
18,41.0,0.0,510.0,3.0,0.0
19,58.0,0.0,510.0,1.0,0.0
20,64.0,0.0,510.0,0.0,0.0
21,46.0,512.0,1530.0,3.0,0.0
22,55.0,512.0,510.0,2.0,0.0
23,57.0,0.0,510.0,1.0,0.0
24,53.0,0.0,510.0,2.0,0.0
25,62.0,512.0,510.0,0.0,0.0
26,52.0,0.0,510.0,2.0,0.0
27,60.0,0.0,1020.0,0.0,0.0
28,55.0,0.0,510.0,1.0,0.0
29,57.0,512.0,510.0,1.0,0.0
30,53.0,0.0,510.0,2.0,0.0
31,45.0,0.0,510.0,3.0,0.0
32,53.0,0.0,510.0,1.0,0.0
33,46.0,0.0,510.0,3.0,0.0
34,62.0,512.0,510.0,0.0,0.0
35,50.0,0.0,510.0,2.0,0.0
36,58.0,0.0,510.0,1.0,0.0
37,43.0,0.0,510.0,3.0,0.0
38,55.0,0.0,510.0,2.0,0.0
39,64.0,512.0,510.0,0.0,0.0
40,48.0,512.0,510.0,2.0,0.0
41,57.0,0.0,1020.0,1.0,0.0
42,65.0,0.0,1020.0,0.0,0.0
43,45.0,0.0,510.0,3.0,0.0
44,53.0,512.0,1020.0,2.0,0.0
45,50.0,512.0,510.0,3.0,0.0
46,46.0,0.0,510.0,3.0,0.0
47,62.0,0.0,510.0,1.0,0.0
48,67.0,0.0,1020.0,0.0,0.0
49,48.0,3072.0,510.0,3.0,0.0
50,52.0,0.0,510.0,2.0,0.0
51,60.0,0.0,15.0,1.0,0.0
52,57.0,512.0,3060.0,2.0,0.0
53,65.0,0.0,3060.0,0.0,0.0
54,41.0,0.0,3060.0,3.0,0.0
55,53.0,0.0,1020.0,3.0,0.0
56,69.0,512.0,510.0,0.0,0.0
57,65.0,512.0,1020.0,1.0,0.0
58,60.0,0.0,1020.0,2.0,0.0
59,70.0,0.0,510.0,0.0,0.0
60,53.0,0.0,510.0,3.0,0.0
61,72.0,0.0,1020.0,0.0,0.0
62,67.0,512.0,510.0,1.0,0.0
63,60.0,512.0,1020.0,2.0,0.0
64,69.0,0.0,510.0,1.0,0.0
65,52.0,0.0,510.0,3.0,0.0
66,70.0,512.0,510.0,1.0,0.0
67,74.0,0.0,1020.0,0.0,0.0
68,50.0,512.0,1020.0,3.0,0.0
69,53.0,0.0,1020.0,2.0,0.0
70,69.0,0.0,510.0,1.0,0.0
71,67.0,0.0,510.0,1.0,0.0
72,55.0,512.0,510.0,2.0,0.0
73,52.0,0.0,510.0,3.0,0.0
74,72.0,512.0,1530.0,0.0,0.0
75,53.0,512.0,510.0,3.0,0.0
76,57.0,0.0,510.0,2.0,0.0
77,65.0,0.0,510.0,1.0,0.0
78,58.0,512.0,1020.0,2.0,0.0
79,55.0,0.0,1020.0,3.0,0.0
80,64.0,0.0,510.0,1.0,0.0
81,62.0,0.0,510.0,1.0,0.0
82,70.0,0.0,510.0,0.0,0.0
83,49.0,0.0,510.0,3.0,0.0
84,69.0,512.0,510.0,0.0,0.0
85,64.0,0.0,510.0,1.0,0.0
86,52.0,0.0,1020.0,2.0,0.0
87,61.0,0.0,510.0,1.0,0.0
88,45.0,512.0,510.0,3.0,0.0
89,67.0,0.0,510.0,0.0,0.0
90,50.0,512.0,510.0,3.0,0.0
91,53.0,0.0,1020.0,2.0,0.0
92,57.0,0.0,1020.0,1.0,0.0
93,65.0,0.0,510.0,0.0,0.0
94,48.0,0.0,510.0,3.0,0.0
95,64.0,512.0,510.0,0.0,0.0
96,46.0,512.0,510.0,3.0,0.0
97,58.0,1024.0,1020.0,1.0,0.0
98,62.0,0.0,1020.0,0.0,0.0
99,53.0,0.0,1020.0,2.0,0.0
100,45.0,0.0,510.0,3.0,0.0
101,55.0,0.0,1020.0,2.0,0.0
102,64.0,0.0,1020.0,0.0,0.0
103,43.0,0.0,1020.0,3.0,0.0
104,58.0,2048.0,1020.0,1.0,0.0
105,48.0,0.0,2040.0,2.0,0.0
106,57.0,0.0,2040.0,1.0,0.0
107,65.0,0.0,2040.0,0.0,0.0
108,41.0,512.0,15.0,3.0,0.0
109,60.0,0.0,1020.0,1.0,0.0
110,43.0,0.0,510.0,3.0,0.0
111,69.0,0.0,15.0,0.0,0.0
112,45.0,512.0,510.0,3.0,0.0
113,53.0,512.0,15.0,2.0,0.0
114,46.0,0.0,510.0,3.0,0.0
115,52.0,512.0,510.0,2.0,0.0
116,48.0,0.0,1530.0,3.0,0.0
117,69.0,0.0,15.0,0.0,0.0
118,60.0,512.0,15.0,1.0,0.0
119,62.0,512.0,510.0,1.0,0.0
120,53.0,0.0,510.0,2.0,0.0
121,67.0,512.0,1020.0,0.0,0.0
122,64.0,512.0,510.0,1.0,0.0
123,62.0,0.0,510.0,1.0,0.0
124,46.0,0.0,510.0,3.0,0.0
125,55.0,0.0,15.0,2.0,0.0
126,45.0,0.0,2040.0,3.0,0.0
127,61.0,512.0,510.0,1.0,0.0
128,69.0,0.0,2040.0,0.0,0.0
129,62.0,512.0,1020.0,1.0,0.0
130,53.0,512.0,510.0,2.0,0.0
131,52.0,0.0,510.0,2.0,0.0
132,57.0,0.0,510.0,2.0,0.0
133,61.0,1024.0,510.0,1.0,0.0
134,62.0,0.0,1020.0,1.0,0.0
135,50.0,0.0,15.0,3.0,0.0
136,62.0,512.0,1020.0,1.0,0.0
137,57.0,0.0,15.0,2.0,0.0
138,65.0,512.0,15.0,0.0,0.0
139,48.0,0.0,510.0,3.0,0.0
140,46.0,0.0,510.0,3.0,0.0
141,55.0,0.0,510.0,2.0,0.0
142,67.0,0.0,510.0,0.0,0.0
143,64.0,512.0,510.0,1.0,0.0
144,69.0,0.0,510.0,0.0,0.0
145,53.0,0.0,1020.0,2.0,0.0
146,65.0,0.0,510.0,1.0,0.0
147,45.0,512.0,510.0,3.0,0.0
148,43.0,256.0,510.0,3.0,0.0
149,70.0,0.0,1020.0,0.0,0.0
150,52.0,256.0,270.0,2.0,0.0
151,48.0,0.0,510.0,3.0,0.0
152,50.0,0.0,270.0,2.0,0.0
153,48.0,512.0,1020.0,2.0,0.0
154,41.0,512.0,510.0,3.0,0.0
155,67.0,512.0,15.0,1.0,0.0
156,69.0,0.0,1530.0,0.0,0.0
157,43.0,0.0,510.0,3.0,0.0
158,65.0,512.0,510.0,1.0,0.0
159,53.0,0.0,1020.0,2.0,0.0
160,45.0,0.0,1020.0,3.0,0.0
161,67.0,0.0,510.0,0.0,0.0
162,63.0,2048.0,510.0,1.0,0.0
163,46.0,0.0,2040.0,3.0,0.0
164,53.0,0.0,2040.0,2.0,0.0
165,62.0,512.0,2040.0,1.0,0.0
166,65.0,0.0,2040.0,0.0,0.0
167,46.0,0.0,510.0,3.0,0.0
168,67.0,512.0,510.0,0.0,0.0
169,58.0,0.0,510.0,2.0,0.0
170,62.0,0.0,510.0,1.0,0.0
171,48.0,0.0,510.0,3.0,0.0
172,69.0,512.0,510.0,0.0,0.0
173,64.0,0.0,510.0,1.0,0.0
174,57.0,0.0,1020.0,2.0,0.0
175,65.0,0.0,510.0,1.0,0.0
176,70.0,0.0,1020.0,0.0,0.0
177,50.0,512.0,510.0,3.0,0.0
178,55.0,0.0,510.0,2.0,0.0
179,67.0,512.0,510.0,1.0,0.0
180,52.0,0.0,510.0,3.0,0.0
181,57.0,0.0,510.0,2.0,0.0
182,69.0,0.0,510.0,0.0,0.0
183,53.0,512.0,510.0,3.0,0.0
184,65.0,0.0,510.0,1.0,0.0
185,64.0,0.0,510.0,1.0,0.0
186,67.0,0.0,510.0,0.0,0.0
187,59.0,0.0,510.0,2.0,0.0
188,55.0,512.0,510.0,3.0,0.0
189,57.0,512.0,510.0,3.0,0.0
190,60.0,0.0,1020.0,2.0,0.0
191,62.0,0.0,510.0,1.0,0.0
192,65.0,0.0,510.0,0.0,0.0
193,64.0,512.0,510.0,0.0,0.0
194,53.0,0.0,510.0,3.0,0.0
195,60.0,0.0,510.0,1.0,0.0
196,62.0,0.0,1020.0,0.0,0.0
197,59.0,0.0,1020.0,1.0,0.0
198,55.0,512.0,510.0,3.0,0.0
199,53.0,512.0,510.0,3.0,0.0
200,52.0,0.0,510.0,3.0,0.0
201,60.0,0.0,510.0,1.0,0.0
202,55.0,0.0,15.0,2.0,0.0
203,64.0,512.0,510.0,0.0,0.0
204,50.0,0.0,510.0,3.0,0.0
205,62.0,0.0,510.0,1.0,0.0
206,65.0,512.0,510.0,0.0,0.0
207,48.0,0.0,510.0,3.0,0.0
208,55.0,256.0,510.0,2.0,0.0
209,67.0,512.0,1530.0,0.0,0.0
210,64.0,0.0,1530.0,1.0,0.0
211,47.0,512.0,510.0,3.0,0.0
212,57.0,256.0,270.0,2.0,0.0
213,59.0,0.0,270.0,2.0,0.0
214,60.0,0.0,510.0,2.0,0.0
215,45.0,0.0,510.0,3.0,0.0
216,55.0,0.0,510.0,2.0,0.0
217,47.0,0.0,510.0,3.0,0.0
218,65.0,512.0,510.0,0.0,0.0
219,62.0,512.0,1020.0,1.0,0.0
220,55.0,512.0,1530.0,2.0,0.0
221,48.0,0.0,510.0,3.0,0.0
222,64.0,512.0,1020.0,0.0,0.0
223,60.0,0.0,1020.0,1.0,0.0
224,52.0,0.0,510.0,3.0,0.0
225,55.0,0.0,510.0,3.0,0.0
226,62.0,0.0,1020.0,0.0,0.0
227,59.0,0.0,510.0,1.0,0.0
228,43.0,2048.0,510.0,3.0,0.0
229,53.0,0.0,510.0,2.0,0.0
230,60.0,0.0,2040.0,0.0,0.0
231,52.0,0.0,2040.0,2.0,0.0
232,55.0,0.0,2040.0,1.0,0.0
233,48.0,512.0,2040.0,3.0,0.0
234,46.0,512.0,510.0,3.0,0.0
235,62.0,0.0,1020.0,0.0,0.0
236,53.0,0.0,1020.0,2.0,0.0
237,58.0,512.0,1020.0,1.0,0.0
238,45.0,0.0,510.0,3.0,0.0
239,46.0,512.0,510.0,3.0,0.0
240,64.0,0.0,1020.0,0.0,0.0
241,55.0,0.0,510.0,2.0,0.0
242,60.0,0.0,1020.0,1.0,0.0
243,58.0,0.0,510.0,2.0,0.0
244,43.0,512.0,510.0,3.0,0.0
245,65.0,0.0,3060.0,0.0,0.0
246,57.0,0.0,1020.0,2.0,0.0
247,60.0,0.0,510.0,1.0,0.0
248,45.0,512.0,510.0,3.0,0.0
249,50.0,0.0,510.0,3.0,0.0
250,57.0,512.0,510.0,1.0,0.0
251,48.0,512.0,510.0,3.0,0.0
252,62.0,512.0,1020.0,1.0,0.0
253,56.0,0.0,1020.0,2.0,0.0
254,47.0,0.0,510.0,3.0,0.0
255,48.0,512.0,1020.0,3.0,0.0
256,55.0,512.0,510.0,2.0,0.0
257,53.0,0.0,510.0,2.0,0.0
258,55.0,512.0,510.0,2.0,0.0
259,64.0,0.0,1020.0,0.0,0.0
260,36.0,0.0,1020.0,3.0,0.0
261,58.0,0.0,510.0,2.0,0.0
262,60.0,2048.0,15.0,1.0,0.0
263,65.0,0.0,2040.0,0.0,0.0
264,57.0,0.0,2040.0,2.0,0.0
265,41.0,1.0,2040.0,3.0,0.0
