,note,step,duration,channel,velocity
0,46.0,30.0,30.0,5.0,0.0
1,48.0,30.0,30.0,5.0,0.0
2,50.0,30.0,30.0,5.0,0.0
3,51.0,30.0,30.0,5.0,0.0
4,53.0,30.0,30.0,5.0,0.0
5,55.0,30.0,30.0,5.0,0.0
6,57.0,60.0,30.0,5.0,0.0
7,58.0,52.0,120.0,5.0,0.0
8,65.0,56.0,30.0,1.0,0.0
9,74.0,4.0,60.0,0.0,0.0
10,70.0,0.0,60.0,1.0,0.0
11,62.0,4.0,30.0,2.0,0.0
12,70.0,0.0,60.0,1.0,0.0
13,74.0,4.0,60.0,0.0,0.0
14,65.0,0.0,60.0,2.0,0.0
15,58.0,56.0,30.0,3.0,0.0
16,74.0,0.0,60.0,0.0,0.0
17,62.0,4.0,60.0,3.0,0.0
18,70.0,0.0,60.0,1.0,0.0
19,65.0,0.0,60.0,2.0,0.0
20,53.0,60.0,30.0,4.0,0.0
21,65.0,0.0,120.0,2.0,0.0
22,62.0,0.0,120.0,3.0,0.0
23,70.0,0.0,120.0,1.0,0.0
24,58.0,26.0,120.0,4.0,0.0
25,74.0,0.0,120.0,0.0,0.0
26,46.0,30.0,30.0,5.0,0.0
27,48.0,30.0,30.0,5.0,0.0
28,50.0,4.0,30.0,5.0,0.0
29,51.0,30.0,30.0,5.0,0.0
30,53.0,30.0,30.0,5.0,0.0
31,55.0,30.0,30.0,5.0,0.0
32,57.0,60.0,30.0,5.0,0.0
33,58.0,26.0,120.0,5.0,0.0
34,58.0,30.0,30.0,1.0,0.0
35,60.0,30.0,30.0,1.0,0.0
36,62.0,4.0,30.0,1.0,0.0
37,63.0,30.0,30.0,1.0,0.0
38,65.0,30.0,30.0,1.0,0.0
39,67.0,30.0,30.0,1.0,0.0
40,69.0,60.0,30.0,1.0,0.0
41,70.0,26.0,90.0,1.0,0.0
42,53.0,30.0,30.0,5.0,0.0
43,58.0,4.0,30.0,5.0,0.0
44,50.0,30.0,30.0,5.0,0.0
45,53.0,30.0,30.0,5.0,0.0
46,46.0,30.0,30.0,5.0,0.0
47,50.0,30.0,30.0,5.0,0.0
48,41.0,60.0,30.0,5.0,0.0
49,46.0,52.0,120.0,5.0,0.0
50,53.0,56.0,30.0,1.0,0.0
51,62.0,4.0,60.0,0.0,0.0
52,58.0,0.0,60.0,1.0,0.0
53,70.0,4.0,30.0,2.0,0.0
54,58.0,0.0,60.0,1.0,0.0
55,74.0,4.0,60.0,2.0,0.0
56,62.0,0.0,60.0,0.0,0.0
57,46.0,56.0,30.0,3.0,0.0
58,58.0,0.0,60.0,1.0,0.0
59,50.0,4.0,60.0,3.0,0.0
60,74.0,0.0,60.0,2.0,0.0
61,62.0,0.0,60.0,0.0,0.0
62,41.0,60.0,30.0,4.0,0.0
63,58.0,0.0,120.0,1.0,0.0
64,50.0,0.0,120.0,3.0,0.0
65,53.0,0.0,120.0,2.0,0.0
66,46.0,0.0,120.0,4.0,0.0
67,62.0,26.0,120.0,0.0,0.0
68,46.0,30.0,30.0,5.0,0.0
69,48.0,30.0,30.0,5.0,0.0
70,50.0,4.0,30.0,5.0,0.0
71,51.0,30.0,30.0,5.0,0.0
72,53.0,30.0,30.0,5.0,0.0
73,55.0,30.0,30.0,5.0,0.0
74,57.0,60.0,30.0,5.0,0.0
75,58.0,52.0,120.0,5.0,0.0
76,65.0,56.0,30.0,1.0,0.0
77,70.0,0.0,60.0,1.0,0.0
78,74.0,4.0,60.0,0.0,0.0
79,62.0,4.0,30.0,2.0,0.0
80,65.0,4.0,60.0,2.0,0.0
81,70.0,0.0,60.0,1.0,0.0
82,74.0,0.0,60.0,0.0,0.0
83,58.0,56.0,30.0,3.0,0.0
84,74.0,0.0,60.0,0.0,0.0
85,65.0,4.0,60.0,2.0,0.0
86,62.0,0.0,60.0,3.0,0.0
87,70.0,0.0,60.0,1.0,0.0
88,53.0,60.0,30.0,4.0,0.0
89,62.0,11.0,120.0,3.0,0.0
90,58.0,0.0,120.0,4.0,0.0
91,70.0,0.0,120.0,1.0,0.0
92,65.0,0.0,120.0,2.0,0.0
93,74.0,26.0,120.0,0.0,0.0
94,50.0,30.0,30.0,5.0,0.0
95,53.0,19.0,30.0,5.0,0.0
96,46.0,4.0,30.0,5.0,0.0
97,50.0,30.0,30.0,5.0,0.0
98,41.0,30.0,30.0,5.0,0.0
99,46.0,30.0,30.0,5.0,0.0
100,38.0,60.0,30.0,5.0,0.0
101,41.0,0.0,1920.0,5.0,0.0
102,69.0,0.0,30.0,2.0,0.0
103,72.0,30.0,30.0,0.0,0.0
104,74.0,30.0,30.0,0.0,0.0
105,70.0,0.0,30.0,2.0,0.0
106,76.0,0.0,30.0,0.0,0.0
107,67.0,30.0,30.0,2.0,0.0
108,77.0,30.0,30.0,0.0,0.0
109,69.0,0.0,30.0,2.0,0.0
110,67.0,0.0,30.0,2.0,0.0
111,70.0,30.0,30.0,0.0,0.0
112,69.0,30.0,30.0,0.0,0.0
113,65.0,0.0,30.0,2.0,0.0
114,67.0,30.0,30.0,0.0,0.0
115,64.0,0.0,30.0,2.0,0.0
116,69.0,26.0,90.0,0.0,0.0
117,65.0,30.0,30.0,2.0,0.0
118,60.0,30.0,30.0,2.0,0.0
119,70.0,0.0,30.0,1.0,0.0
120,62.0,4.0,30.0,2.0,0.0
121,64.0,30.0,30.0,2.0,0.0
122,67.0,0.0,30.0,1.0,0.0
123,65.0,30.0,30.0,2.0,0.0
124,69.0,0.0,30.0,1.0,0.0
125,58.0,0.0,30.0,2.0,0.0
126,67.0,30.0,30.0,1.0,0.0
127,65.0,0.0,30.0,1.0,0.0
128,57.0,30.0,30.0,2.0,0.0
129,64.0,30.0,30.0,1.0,0.0
130,55.0,0.0,30.0,2.0,0.0
131,65.0,26.0,30.0,1.0,0.0
132,57.0,4.0,60.0,2.0,0.0
133,60.0,30.0,30.0,1.0,0.0
134,58.0,0.0,30.0,3.0,0.0
135,62.0,30.0,30.0,1.0,0.0
136,55.0,0.0,30.0,3.0,0.0
137,64.0,30.0,30.0,1.0,0.0
138,57.0,30.0,30.0,3.0,0.0
139,65.0,0.0,30.0,1.0,0.0
140,55.0,0.0,30.0,3.0,0.0
141,58.0,30.0,30.0,1.0,0.0
142,53.0,30.0,30.0,3.0,0.0
143,57.0,0.0,30.0,1.0,0.0
144,52.0,0.0,30.0,3.0,0.0
145,55.0,30.0,30.0,1.0,0.0
146,53.0,30.0,30.0,3.0,0.0
147,57.0,26.0,180.0,1.0,0.0
148,48.0,30.0,30.0,3.0,0.0
149,50.0,30.0,30.0,3.0,0.0
150,58.0,0.0,30.0,2.0,0.0
151,55.0,30.0,30.0,2.0,0.0
152,52.0,0.0,30.0,3.0,0.0
153,53.0,30.0,30.0,3.0,0.0
154,57.0,0.0,30.0,2.0,0.0
155,60.0,0.0,30.0,2.0,0.0
156,46.0,4.0,30.0,3.0,0.0
157,45.0,0.0,30.0,3.0,0.0
158,62.0,30.0,30.0,2.0,0.0
159,64.0,30.0,30.0,2.0,0.0
160,43.0,0.0,30.0,3.0,0.0
161,65.0,30.0,30.0,2.0,0.0
162,45.0,0.0,30.0,3.0,0.0
163,58.0,0.0,30.0,2.0,0.0
164,48.0,30.0,30.0,3.0,0.0
165,57.0,0.0,30.0,2.0,0.0
166,50.0,30.0,30.0,3.0,0.0
167,55.0,0.0,30.0,2.0,0.0
168,52.0,30.0,30.0,3.0,0.0
169,57.0,30.0,30.0,2.0,0.0
170,53.0,0.0,30.0,3.0,0.0
171,60.0,0.0,30.0,2.0,0.0
172,45.0,30.0,30.0,3.0,0.0
173,62.0,0.0,30.0,2.0,0.0
174,46.0,30.0,30.0,3.0,0.0
175,43.0,0.0,30.0,3.0,0.0
176,64.0,30.0,30.0,2.0,0.0
177,65.0,0.0,30.0,2.0,0.0
178,45.0,30.0,30.0,3.0,0.0
179,48.0,0.0,30.0,3.0,0.0
180,64.0,30.0,30.0,2.0,0.0
181,50.0,30.0,30.0,3.0,0.0
182,65.0,0.0,30.0,2.0,0.0
183,67.0,0.0,30.0,2.0,0.0
184,52.0,30.0,30.0,3.0,0.0
185,69.0,30.0,30.0,2.0,0.0
186,53.0,0.0,30.0,3.0,0.0
187,58.0,30.0,30.0,3.0,0.0
188,67.0,0.0,30.0,2.0,0.0
189,65.0,30.0,30.0,2.0,0.0
190,57.0,0.0,30.0,3.0,0.0
191,55.0,0.0,30.0,3.0,0.0
192,64.0,30.0,30.0,2.0,0.0
193,57.0,4.0,60.0,3.0,0.0
194,65.0,26.0,30.0,2.0,0.0
195,60.0,30.0,30.0,2.0,0.0
196,58.0,0.0,30.0,4.0,0.0
197,62.0,30.0,30.0,2.0,0.0
198,58.0,30.0,30.0,2.0,0.0
199,55.0,0.0,30.0,4.0,0.0
200,60.0,0.0,30.0,2.0,0.0
201,57.0,30.0,30.0,4.0,0.0
202,65.0,0.0,30.0,2.0,0.0
203,53.0,30.0,30.0,4.0,0.0
204,58.0,0.0,30.0,2.0,0.0
205,55.0,30.0,30.0,4.0,0.0
206,48.0,0.0,30.0,4.0,0.0
207,64.0,30.0,30.0,2.0,0.0
208,57.0,0.0,240.0,2.0,0.0
209,53.0,0.0,240.0,3.0,0.0
210,60.0,0.0,240.0,1.0,0.0
211,53.0,30.0,30.0,4.0,0.0
212,65.0,356.0,240.0,0.0,0.0
213,48.0,184.0,30.0,4.0,0.0
214,41.0,0.0,180.0,4.0,0.0
215,38.0,0.0,2520.0,5.0,0.0
216,50.0,13.0,1830.0,6.0,0.0
217,72.0,82.0,30.0,2.0,0.0
218,66.0,38.0,90.0,2.0,0.0
219,69.0,82.0,30.0,2.0,0.0
220,60.0,38.0,90.0,2.0,0.0
221,63.0,82.0,30.0,2.0,0.0
222,54.0,38.0,90.0,2.0,0.0
223,60.0,120.0,30.0,2.0,0.0
224,58.0,0.0,330.0,2.0,0.0
225,79.0,82.0,30.0,1.0,0.0
226,70.0,38.0,90.0,1.0,0.0
227,74.0,82.0,30.0,1.0,0.0
228,67.0,38.0,90.0,1.0,0.0
229,57.0,0.0,30.0,2.0,0.0
230,70.0,82.0,30.0,1.0,0.0
231,55.0,0.0,90.0,2.0,0.0
232,64.0,38.0,90.0,1.0,0.0
233,67.0,0.0,30.0,1.0,0.0
234,53.0,120.0,30.0,2.0,0.0
235,61.0,2.0,750.0,1.0,0.0
236,52.0,11.0,240.0,2.0,0.0
237,70.0,82.0,30.0,0.0,0.0
238,67.0,27.0,90.0,0.0,0.0
239,70.0,17.0,30.0,0.0,0.0
240,64.0,15.0,15.0,0.0,0.0
241,67.0,15.0,15.0,0.0,0.0
242,64.0,15.0,15.0,0.0,0.0
243,67.0,15.0,15.0,0.0,0.0
244,64.0,15.0,15.0,0.0,0.0
245,67.0,15.0,15.0,0.0,0.0
246,58.0,2.0,30.0,3.0,0.0
247,64.0,13.0,15.0,0.0,0.0
248,67.0,15.0,15.0,0.0,0.0
249,64.0,15.0,15.0,0.0,0.0
250,55.0,10.0,90.0,3.0,0.0
251,67.0,15.0,15.0,0.0,0.0
252,64.0,15.0,15.0,0.0,0.0
253,67.0,15.0,15.0,0.0,0.0
254,64.0,5.0,15.0,0.0,0.0
255,67.0,15.0,15.0,0.0,0.0
256,64.0,13.0,15.0,0.0,0.0
257,58.0,2.0,30.0,3.0,0.0
258,67.0,15.0,15.0,0.0,0.0
259,52.0,10.0,90.0,3.0,0.0
260,64.0,15.0,15.0,0.0,0.0
261,67.0,15.0,15.0,0.0,0.0
262,64.0,15.0,15.0,0.0,0.0
263,67.0,15.0,15.0,0.0,0.0
264,64.0,5.0,15.0,0.0,0.0
265,67.0,15.0,15.0,0.0,0.0
266,58.0,2.0,30.0,3.0,0.0
267,64.0,13.0,15.0,0.0,0.0
268,67.0,15.0,15.0,0.0,0.0
269,55.0,10.0,90.0,3.0,0.0
270,64.0,15.0,15.0,0.0,0.0
271,67.0,15.0,15.0,0.0,0.0
272,64.0,15.0,15.0,0.0,0.0
273,67.0,15.0,15.0,0.0,0.0
274,64.0,5.0,15.0,0.0,0.0
275,67.0,15.0,15.0,0.0,0.0
276,64.0,13.0,15.0,0.0,0.0
277,58.0,2.0,30.0,3.0,0.0
278,67.0,15.0,15.0,0.0,0.0
279,49.0,13.0,15.0,3.0,0.0
280,64.0,0.0,15.0,0.0,0.0
281,67.0,15.0,15.0,0.0,0.0
282,45.0,0.0,15.0,3.0,0.0
283,49.0,0.0,15.0,3.0,0.0
284,64.0,13.0,15.0,0.0,0.0
285,61.0,2.0,30.0,1.0,0.0
286,45.0,0.0,15.0,3.0,0.0
287,67.0,15.0,15.0,0.0,0.0
288,49.0,13.0,15.0,3.0,0.0
289,61.0,2.0,30.0,1.0,0.0
290,64.0,0.0,15.0,0.0,0.0
291,67.0,0.0,15.0,0.0,0.0
292,45.0,15.0,15.0,3.0,0.0
293,61.0,2.0,30.0,1.0,0.0
294,64.0,13.0,15.0,0.0,0.0
295,49.0,0.0,15.0,3.0,0.0
296,67.0,0.0,15.0,0.0,0.0
297,45.0,15.0,15.0,3.0,0.0
298,64.0,13.0,15.0,0.0,0.0
299,49.0,0.0,15.0,3.0,0.0
300,61.0,2.0,30.0,1.0,0.0
301,67.0,2.0,15.0,0.0,0.0
302,45.0,0.0,15.0,3.0,0.0
303,64.0,0.0,15.0,0.0,0.0
304,61.0,2.0,30.0,1.0,0.0
305,49.0,13.0,15.0,3.0,0.0
306,45.0,0.0,15.0,3.0,0.0
307,67.0,15.0,15.0,0.0,0.0
308,61.0,2.0,30.0,1.0,0.0
309,49.0,0.0,15.0,3.0,0.0
310,64.0,13.0,15.0,0.0,0.0
311,67.0,15.0,15.0,0.0,0.0
312,45.0,0.0,15.0,3.0,0.0
313,49.0,0.0,15.0,3.0,0.0
314,61.0,2.0,30.0,1.0,0.0
315,64.0,13.0,15.0,0.0,0.0
316,45.0,0.0,15.0,3.0,0.0
317,67.0,15.0,15.0,0.0,0.0
318,50.0,0.0,600.0,3.0,0.0
319,61.0,8.0,90.0,1.0,0.0
320,64.0,15.0,15.0,0.0,0.0
321,67.0,15.0,15.0,0.0,0.0
322,64.0,15.0,15.0,0.0,0.0
323,67.0,20.0,15.0,0.0,0.0
324,64.0,30.0,30.0,0.0,0.0
325,58.0,0.0,30.0,2.0,0.0
326,64.0,0.0,30.0,1.0,0.0
327,67.0,82.0,30.0,0.0,0.0
328,62.0,0.0,90.0,1.0,0.0
329,57.0,0.0,90.0,2.0,0.0
330,66.0,38.0,90.0,0.0,0.0
331,55.0,82.0,30.0,2.0,0.0
332,61.0,0.0,30.0,1.0,0.0
333,64.0,0.0,30.0,0.0,0.0
334,66.0,0.0,90.0,0.0,0.0
335,57.0,0.0,90.0,2.0,0.0
336,62.0,38.0,90.0,1.0,0.0
337,58.0,0.0,30.0,1.0,0.0
338,55.0,0.0,30.0,2.0,0.0
339,64.0,82.0,30.0,0.0,0.0
340,57.0,0.0,90.0,1.0,0.0
341,62.0,0.0,90.0,0.0,0.0
342,54.0,38.0,90.0,2.0,0.0
343,61.0,124.0,30.0,0.0,0.0
344,55.0,0.0,30.0,1.0,0.0
345,52.0,0.0,30.0,2.0,0.0
346,62.0,0.0,120.0,0.0,0.0
347,54.0,0.0,120.0,2.0,0.0
348,57.0,133.0,120.0,1.0,0.0
349,46.0,15.0,15.0,0.0,0.0
350,48.0,15.0,15.0,0.0,0.0
351,50.0,15.0,15.0,0.0,0.0
352,51.0,15.0,15.0,0.0,0.0
353,53.0,15.0,15.0,0.0,0.0
354,55.0,15.0,15.0,0.0,0.0
355,57.0,15.0,15.0,0.0,0.0
356,58.0,15.0,15.0,0.0,0.0
357,60.0,15.0,15.0,0.0,0.0
358,62.0,15.0,15.0,0.0,0.0
359,63.0,15.0,15.0,0.0,0.0
360,65.0,15.0,15.0,0.0,0.0
361,67.0,15.0,15.0,0.0,0.0
362,69.0,15.0,15.0,0.0,0.0
363,70.0,15.0,15.0,0.0,0.0
364,72.0,227.0,15.0,0.0,0.0
365,65.0,0.0,360.0,1.0,0.0
366,74.0,0.0,360.0,0.0,0.0
367,70.0,0.0,360.0,0.0,0.0
368,58.0,235.0,360.0,2.0,0.0
369,34.0,0.0,360.0,5.0,0.0
370,62.0,0.0,360.0,1.0,0.0
371,53.0,135.0,240.0,3.0,0.0
372,46.0,0.0,360.0,4.0,0.0
373,58.0,0.0,120.0,6.0,0.0
374,65.0,0.0,120.0,4.0,0.0
375,62.0,0.0,180.0,1.0,0.0
376,65.0,0.0,120.0,0.0,0.0
377,58.0,0.0,120.0,2.0,0.0
378,46.0,67.0,120.0,3.0,0.0
379,46.0,0.0,120.0,7.0,0.0
380,62.0,60.0,180.0,5.0,0.0
381,51.0,53.0,300.0,3.0,0.0
382,67.0,0.0,240.0,4.0,0.0
383,58.0,0.0,180.0,2.0,0.0
384,67.0,7.0,240.0,0.0,0.0
385,58.0,60.0,180.0,6.0,0.0
386,51.0,0.0,300.0,7.0,0.0
387,62.0,53.0,60.0,1.0,0.0
388,62.0,0.0,60.0,5.0,0.0
389,60.0,0.0,240.0,1.0,0.0
390,60.0,0.0,240.0,5.0,0.0
391,58.0,60.0,60.0,6.0,0.0
392,58.0,0.0,60.0,2.0,0.0
393,65.0,60.0,180.0,4.0,0.0
394,57.0,7.0,120.0,6.0,0.0
395,57.0,0.0,120.0,2.0,0.0
396,65.0,0.0,180.0,0.0,0.0
397,51.0,53.0,60.0,7.0,0.0
398,51.0,0.0,60.0,3.0,0.0
399,50.0,0.0,120.0,7.0,0.0
400,62.0,0.0,120.0,5.0,0.0
401,62.0,0.0,120.0,1.0,0.0
402,58.0,0.0,240.0,2.0,0.0
403,58.0,0.0,240.0,6.0,0.0
404,50.0,7.0,120.0,3.0,0.0
405,70.0,60.0,60.0,4.0,0.0
406,70.0,0.0,60.0,0.0,0.0
407,48.0,7.0,120.0,7.0,0.0
408,63.0,0.0,120.0,5.0,0.0
409,63.0,0.0,120.0,1.0,0.0
410,48.0,0.0,120.0,3.0,0.0
411,72.0,53.0,60.0,0.0,0.0
412,72.0,0.0,60.0,4.0,0.0
413,74.0,60.0,60.0,0.0,0.0
414,74.0,0.0,60.0,4.0,0.0
415,65.0,60.0,180.0,1.0,0.0
416,41.0,7.0,120.0,3.0,0.0
417,65.0,0.0,180.0,5.0,0.0
418,75.0,0.0,60.0,4.0,0.0
419,57.0,0.0,120.0,6.0,0.0
420,57.0,0.0,120.0,2.0,0.0
421,75.0,53.0,60.0,0.0,0.0
422,41.0,0.0,120.0,7.0,0.0
423,77.0,0.0,60.0,4.0,0.0
424,77.0,53.0,60.0,0.0,0.0
425,58.0,0.0,120.0,2.0,0.0
426,58.0,7.0,120.0,6.0,0.0
427,74.0,0.0,240.0,0.0,0.0
428,46.0,0.0,120.0,7.0,0.0
429,46.0,0.0,120.0,3.0,0.0
430,74.0,7.0,240.0,4.0,0.0
431,69.0,0.0,60.0,5.0,0.0
432,69.0,60.0,60.0,1.0,0.0
433,62.0,0.0,120.0,6.0,0.0
434,58.0,0.0,240.0,3.0,0.0
435,67.0,53.0,60.0,1.0,0.0
436,67.0,0.0,60.0,5.0,0.0
437,62.0,0.0,120.0,2.0,0.0
438,58.0,0.0,240.0,7.0,0.0
439,65.0,60.0,60.0,1.0,0.0
440,65.0,0.0,60.0,5.0,0.0
441,67.0,0.0,120.0,4.0,0.0
442,67.0,7.0,120.0,0.0,0.0
443,64.0,0.0,60.0,5.0,0.0
444,60.0,0.0,180.0,2.0,0.0
445,64.0,53.0,60.0,1.0,0.0
446,60.0,60.0,180.0,6.0,0.0
447,60.0,0.0,60.0,5.0,0.0
448,60.0,53.0,60.0,1.0,0.0
449,65.0,7.0,240.0,1.0,0.0
450,57.0,7.0,120.0,3.0,0.0
451,57.0,0.0,120.0,7.0,0.0
452,65.0,0.0,240.0,5.0,0.0
453,69.0,0.0,60.0,0.0,0.0
454,69.0,60.0,60.0,4.0,0.0
455,60.0,0.0,60.0,6.0,0.0
456,60.0,0.0,60.0,2.0,0.0
457,62.0,0.0,120.0,2.0,0.0
458,70.0,53.0,60.0,4.0,0.0
459,55.0,0.0,240.0,3.0,0.0
460,62.0,0.0,120.0,6.0,0.0
461,55.0,0.0,240.0,7.0,0.0
462,70.0,0.0,60.0,0.0,0.0
463,74.0,60.0,60.0,0.0,0.0
464,74.0,0.0,60.0,4.0,0.0
465,58.0,0.0,120.0,6.0,0.0
466,64.0,7.0,120.0,5.0,0.0
467,72.0,53.0,60.0,4.0,0.0
468,72.0,0.0,60.0,0.0,0.0
469,58.0,0.0,120.0,2.0,0.0
470,64.0,0.0,120.0,1.0,0.0
471,70.0,0.0,60.0,0.0,0.0
472,70.0,60.0,60.0,4.0,0.0
473,65.0,0.0,120.0,5.0,0.0
474,69.0,53.0,60.0,4.0,0.0
475,53.0,0.0,120.0,7.0,0.0
476,53.0,0.0,120.0,3.0,0.0
477,60.0,0.0,120.0,6.0,0.0
478,69.0,0.0,60.0,0.0,0.0
479,65.0,7.0,120.0,1.0,0.0
480,60.0,0.0,120.0,2.0,0.0
481,65.0,0.0,60.0,0.0,0.0
482,65.0,113.0,60.0,4.0,0.0
483,65.0,7.0,120.0,5.0,0.0
484,58.0,7.0,240.0,6.0,0.0
485,65.0,0.0,120.0,1.0,0.0
486,50.0,0.0,120.0,3.0,0.0
487,58.0,0.0,240.0,2.0,0.0
488,50.0,0.0,120.0,7.0,0.0
489,65.0,0.0,60.0,0.0,0.0
490,65.0,60.0,60.0,4.0,0.0
491,51.0,0.0,240.0,7.0,0.0
492,67.0,0.0,60.0,0.0,0.0
493,51.0,7.0,240.0,3.0,0.0
494,63.0,0.0,120.0,1.0,0.0
495,63.0,0.0,120.0,5.0,0.0
496,67.0,53.0,60.0,4.0,0.0
497,70.0,0.0,60.0,0.0,0.0
498,70.0,60.0,60.0,4.0,0.0
499,60.0,7.0,240.0,5.0,0.0
500,55.0,0.0,120.0,6.0,0.0
501,55.0,0.0,120.0,2.0,0.0
502,63.0,53.0,60.0,0.0,0.0
503,63.0,0.0,60.0,4.0,0.0
504,60.0,0.0,240.0,1.0,0.0
505,67.0,0.0,60.0,4.0,0.0
506,67.0,60.0,60.0,0.0,0.0
507,50.0,0.0,240.0,3.0,0.0
508,65.0,0.0,60.0,4.0,0.0
509,65.0,53.0,60.0,0.0,0.0
510,57.0,0.0,120.0,6.0,0.0
511,57.0,0.0,120.0,2.0,0.0
512,50.0,7.0,240.0,7.0,0.0
513,69.0,60.0,60.0,4.0,0.0
514,69.0,0.0,60.0,0.0,0.0
515,53.0,0.0,120.0,2.0,0.0
516,62.0,53.0,60.0,4.0,0.0
517,62.0,0.0,60.0,0.0,0.0
518,53.0,0.0,120.0,6.0,0.0
519,58.0,0.0,240.0,5.0,0.0
520,58.0,0.0,240.0,1.0,0.0
521,65.0,0.0,60.0,0.0,0.0
522,65.0,60.0,60.0,4.0,0.0
523,63.0,53.0,60.0,4.0,0.0
524,55.0,0.0,120.0,2.0,0.0
525,48.0,7.0,240.0,3.0,0.0
526,63.0,0.0,60.0,0.0,0.0
527,48.0,0.0,240.0,7.0,0.0
528,55.0,7.0,120.0,6.0,0.0
529,67.0,0.0,60.0,0.0,0.0
530,67.0,60.0,60.0,4.0,0.0
531,51.0,0.0,120.0,2.0,0.0
532,57.0,0.0,120.0,1.0,0.0
533,51.0,0.0,120.0,6.0,0.0
534,57.0,0.0,120.0,5.0,0.0
535,60.0,0.0,60.0,4.0,0.0
536,60.0,53.0,60.0,0.0,0.0
537,63.0,60.0,60.0,0.0,0.0
538,63.0,0.0,60.0,4.0,0.0
539,46.0,0.0,120.0,7.0,0.0
540,58.0,7.0,120.0,1.0,0.0
541,46.0,0.0,120.0,3.0,0.0
542,53.0,0.0,120.0,6.0,0.0
543,53.0,0.0,120.0,2.0,0.0
544,62.0,0.0,60.0,4.0,0.0
545,62.0,53.0,60.0,0.0,0.0
546,58.0,0.0,120.0,5.0,0.0
547,58.0,113.0,60.0,4.0,0.0
548,58.0,0.0,60.0,0.0,0.0
549,45.0,7.0,120.0,3.0,0.0
550,45.0,0.0,120.0,7.0,0.0
551,60.0,0.0,120.0,5.0,0.0
552,60.0,0.0,120.0,1.0,0.0
553,53.0,0.0,240.0,2.0,0.0
554,53.0,0.0,240.0,6.0,0.0
555,65.0,0.0,60.0,0.0,0.0
556,65.0,60.0,60.0,4.0,0.0
557,70.0,53.0,60.0,4.0,0.0
558,70.0,0.0,60.0,0.0,0.0
559,62.0,0.0,120.0,5.0,0.0
560,62.0,0.0,120.0,1.0,0.0
561,43.0,7.0,120.0,7.0,0.0
562,43.0,0.0,120.0,3.0,0.0
563,74.0,60.0,60.0,0.0,0.0
564,74.0,0.0,60.0,4.0,0.0
565,48.0,7.0,120.0,7.0,0.0
566,60.0,0.0,120.0,1.0,0.0
567,52.0,0.0,120.0,6.0,0.0
568,52.0,0.0,120.0,2.0,0.0
569,48.0,0.0,120.0,3.0,0.0
570,67.0,0.0,60.0,0.0,0.0
571,60.0,0.0,120.0,5.0,0.0
572,67.0,53.0,60.0,4.0,0.0
573,70.0,0.0,60.0,0.0,0.0
574,70.0,60.0,60.0,4.0,0.0
575,41.0,0.0,120.0,7.0,0.0
576,53.0,7.0,120.0,6.0,0.0
577,41.0,0.0,120.0,3.0,0.0
578,53.0,0.0,120.0,2.0,0.0
579,69.0,0.0,60.0,0.0,0.0
580,69.0,53.0,60.0,4.0,0.0
581,60.0,0.0,120.0,1.0,0.0
582,60.0,0.0,120.0,5.0,0.0
583,65.0,113.0,60.0,0.0,0.0
584,65.0,0.0,60.0,4.0,0.0
585,62.0,0.0,120.0,6.0,0.0
586,62.0,0.0,120.0,2.0,0.0
587,70.0,0.0,240.0,0.0,0.0
588,70.0,0.0,240.0,4.0,0.0
589,65.0,0.0,120.0,1.0,0.0
590,65.0,7.0,120.0,5.0,0.0
591,50.0,60.0,60.0,3.0,0.0
592,50.0,0.0,60.0,7.0,0.0
593,51.0,53.0,60.0,3.0,0.0
594,60.0,0.0,240.0,6.0,0.0
595,60.0,0.0,240.0,2.0,0.0
596,67.0,7.0,120.0,1.0,0.0
597,51.0,0.0,60.0,7.0,0.0
598,67.0,0.0,120.0,5.0,0.0
599,55.0,60.0,60.0,7.0,0.0
600,55.0,0.0,60.0,3.0,0.0
601,69.0,0.0,240.0,0.0,0.0
602,63.0,7.0,120.0,1.0,0.0
603,48.0,0.0,60.0,7.0,0.0
604,69.0,0.0,240.0,4.0,0.0
605,63.0,0.0,120.0,5.0,0.0
606,48.0,53.0,60.0,3.0,0.0
607,51.0,0.0,60.0,7.0,0.0
608,51.0,60.0,60.0,3.0,0.0
609,65.0,0.0,120.0,1.0,0.0
610,50.0,0.0,60.0,7.0,0.0
611,58.0,0.0,240.0,6.0,0.0
612,50.0,53.0,60.0,3.0,0.0
613,65.0,7.0,120.0,5.0,0.0
614,58.0,0.0,240.0,2.0,0.0
615,53.0,0.0,60.0,3.0,0.0
616,53.0,60.0,60.0,7.0,0.0
617,67.0,0.0,240.0,4.0,0.0
618,67.0,0.0,240.0,0.0,0.0
619,46.0,53.0,60.0,7.0,0.0
620,46.0,0.0,60.0,3.0,0.0
621,62.0,7.0,120.0,1.0,0.0
622,62.0,0.0,120.0,5.0,0.0
623,50.0,0.0,60.0,3.0,0.0
624,50.0,60.0,60.0,7.0,0.0
625,57.0,0.0,240.0,6.0,0.0
626,48.0,0.0,60.0,7.0,0.0
627,57.0,0.0,240.0,2.0,0.0
628,63.0,7.0,120.0,1.0,0.0
629,48.0,53.0,60.0,3.0,0.0
630,63.0,0.0,120.0,5.0,0.0
631,51.0,60.0,60.0,7.0,0.0
632,51.0,0.0,60.0,3.0,0.0
633,60.0,0.0,120.0,5.0,0.0
634,66.0,0.0,120.0,0.0,0.0
635,66.0,7.0,120.0,4.0,0.0
636,60.0,0.0,120.0,1.0,0.0
637,45.0,53.0,60.0,3.0,0.0
638,45.0,0.0,60.0,7.0,0.0
639,48.0,0.0,60.0,7.0,0.0
640,48.0,60.0,60.0,3.0,0.0
641,67.0,0.0,120.0,4.0,0.0
642,46.0,0.0,60.0,3.0,0.0
643,62.0,7.0,120.0,5.0,0.0
644,46.0,53.0,60.0,7.0,0.0
645,67.0,0.0,120.0,0.0,0.0
646,58.0,0.0,120.0,6.0,0.0
647,62.0,0.0,120.0,1.0,0.0
648,58.0,0.0,120.0,2.0,0.0
649,43.0,113.0,60.0,7.0,0.0
650,43.0,0.0,60.0,3.0,0.0
651,55.0,0.0,240.0,3.0,0.0
652,58.0,0.0,120.0,6.0,0.0
653,58.0,0.0,120.0,2.0,0.0
654,55.0,0.0,240.0,7.0,0.0
655,62.0,7.0,120.0,5.0,0.0
656,62.0,0.0,120.0,1.0,0.0
657,70.0,60.0,60.0,0.0,0.0
658,70.0,0.0,60.0,4.0,0.0
659,57.0,0.0,240.0,2.0,0.0
660,57.0,0.0,240.0,6.0,0.0
661,63.0,0.0,120.0,5.0,0.0
662,72.0,0.0,60.0,4.0,0.0
663,63.0,7.0,120.0,1.0,0.0
664,72.0,53.0,60.0,0.0,0.0
665,75.0,0.0,60.0,4.0,0.0
666,75.0,60.0,60.0,0.0,0.0
667,62.0,7.0,120.0,5.0,0.0
668,54.0,0.0,120.0,7.0,0.0
669,69.0,53.0,60.0,0.0,0.0
670,62.0,0.0,120.0,1.0,0.0
671,54.0,0.0,120.0,3.0,0.0
672,69.0,0.0,60.0,4.0,0.0
673,72.0,60.0,60.0,4.0,0.0
674,72.0,0.0,60.0,0.0,0.0
675,62.0,0.0,120.0,1.0,0.0
676,55.0,0.0,120.0,2.0,0.0
677,62.0,7.0,120.0,5.0,0.0
678,55.0,0.0,120.0,3.0,0.0
679,70.0,0.0,60.0,4.0,0.0
680,55.0,0.0,120.0,6.0,0.0
681,70.0,53.0,60.0,0.0,0.0
682,55.0,0.0,120.0,7.0,0.0
683,67.0,113.0,60.0,4.0,0.0
684,67.0,0.0,60.0,0.0,0.0
685,57.0,0.0,120.0,2.0,0.0
686,74.0,0.0,240.0,0.0,0.0
687,65.0,0.0,120.0,1.0,0.0
688,65.0,7.0,120.0,5.0,0.0
689,57.0,0.0,120.0,6.0,0.0
690,74.0,0.0,240.0,4.0,0.0
691,53.0,0.0,60.0,7.0,0.0
692,53.0,60.0,60.0,3.0,0.0
693,55.0,0.0,60.0,3.0,0.0
694,64.0,0.0,240.0,1.0,0.0
695,58.0,7.0,120.0,2.0,0.0
696,58.0,0.0,120.0,6.0,0.0
697,55.0,53.0,60.0,7.0,0.0
698,64.0,0.0,240.0,5.0,0.0
699,57.0,60.0,60.0,3.0,0.0
700,57.0,0.0,60.0,7.0,0.0
701,52.0,0.0,60.0,7.0,0.0
702,73.0,0.0,120.0,0.0,0.0
703,73.0,0.0,120.0,4.0,0.0
704,55.0,7.0,120.0,6.0,0.0
705,52.0,53.0,60.0,3.0,0.0
706,55.0,0.0,120.0,2.0,0.0
707,55.0,60.0,60.0,3.0,0.0
708,55.0,0.0,60.0,7.0,0.0
709,65.0,0.0,120.0,5.0,0.0
710,57.0,7.0,120.0,2.0,0.0
711,53.0,53.0,60.0,7.0,0.0
712,74.0,0.0,120.0,4.0,0.0
713,57.0,0.0,120.0,6.0,0.0
714,53.0,0.0,60.0,3.0,0.0
715,74.0,0.0,120.0,0.0,0.0
716,65.0,0.0,120.0,1.0,0.0
717,57.0,0.0,60.0,3.0,0.0
718,57.0,60.0,60.0,7.0,0.0
719,74.0,0.0,120.0,4.0,0.0
720,65.0,0.0,120.0,1.0,0.0
721,58.0,7.0,240.0,6.0,0.0
722,74.0,7.0,120.0,0.0,0.0
723,50.0,0.0,60.0,3.0,0.0
724,65.0,0.0,120.0,5.0,0.0
725,58.0,0.0,240.0,2.0,0.0
726,50.0,53.0,60.0,7.0,0.0
727,53.0,0.0,60.0,3.0,0.0
728,53.0,60.0,60.0,7.0,0.0
729,51.0,0.0,60.0,7.0,0.0
730,51.0,53.0,60.0,3.0,0.0
731,67.0,0.0,120.0,1.0,0.0
732,67.0,0.0,120.0,5.0,0.0
733,72.0,0.0,240.0,0.0,0.0
734,72.0,0.0,240.0,4.0,0.0
735,55.0,0.0,60.0,7.0,0.0
736,55.0,60.0,60.0,3.0,0.0
737,48.0,53.0,60.0,7.0,0.0
738,63.0,0.0,120.0,1.0,0.0
739,48.0,0.0,60.0,3.0,0.0
740,57.0,0.0,240.0,2.0,0.0
741,57.0,0.0,240.0,6.0,0.0
742,63.0,7.0,120.0,5.0,0.0
743,51.0,60.0,60.0,7.0,0.0
744,51.0,0.0,60.0,3.0,0.0
745,65.0,0.0,120.0,5.0,0.0
746,50.0,0.0,60.0,3.0,0.0
747,50.0,53.0,60.0,7.0,0.0
748,70.0,0.0,240.0,4.0,0.0
749,70.0,0.0,240.0,0.0,0.0
750,65.0,7.0,120.0,1.0,0.0
751,53.0,0.0,60.0,3.0,0.0
752,53.0,60.0,60.0,7.0,0.0
753,62.0,7.0,120.0,1.0,0.0
754,46.0,0.0,60.0,3.0,0.0
755,55.0,0.0,240.0,6.0,0.0
756,55.0,0.0,240.0,2.0,0.0
757,46.0,53.0,60.0,7.0,0.0
758,62.0,0.0,120.0,5.0,0.0
759,50.0,60.0,60.0,3.0,0.0
760,50.0,0.0,60.0,7.0,0.0
761,48.0,0.0,60.0,7.0,0.0
762,69.0,0.0,240.0,0.0,0.0
763,63.0,0.0,120.0,1.0,0.0
764,48.0,53.0,60.0,3.0,0.0
765,63.0,7.0,120.0,5.0,0.0
766,69.0,7.0,240.0,4.0,0.0
767,51.0,0.0,60.0,7.0,0.0
768,51.0,60.0,60.0,3.0,0.0
769,45.0,0.0,60.0,3.0,0.0
770,45.0,53.0,60.0,7.0,0.0
771,60.0,0.0,120.0,5.0,0.0
772,60.0,0.0,120.0,1.0,0.0
773,53.0,0.0,240.0,6.0,0.0
774,53.0,7.0,240.0,2.0,0.0
775,48.0,0.0,60.0,7.0,0.0
776,48.0,60.0,60.0,3.0,0.0
777,62.0,0.0,120.0,1.0,0.0
778,46.0,53.0,60.0,3.0,0.0
779,46.0,0.0,60.0,7.0,0.0
780,62.0,0.0,120.0,5.0,0.0
781,67.0,0.0,240.0,4.0,0.0
782,67.0,0.0,240.0,0.0,0.0
783,50.0,0.0,60.0,7.0,0.0
784,50.0,60.0,60.0,3.0,0.0
785,51.0,0.0,240.0,6.0,0.0
786,51.0,0.0,240.0,2.0,0.0
787,43.0,53.0,60.0,3.0,0.0
788,58.0,7.0,120.0,5.0,0.0
789,58.0,0.0,120.0,1.0,0.0
790,43.0,0.0,60.0,7.0,0.0
791,46.0,0.0,60.0,3.0,0.0
792,46.0,60.0,60.0,7.0,0.0
793,45.0,53.0,60.0,3.0,0.0
794,65.0,0.0,240.0,4.0,0.0
795,45.0,0.0,60.0,7.0,0.0
796,60.0,7.0,120.0,1.0,0.0
797,60.0,0.0,120.0,5.0,0.0
798,65.0,7.0,240.0,0.0,0.0
799,48.0,60.0,60.0,7.0,0.0
800,48.0,0.0,60.0,3.0,0.0
801,41.0,0.0,60.0,7.0,0.0
802,50.0,7.0,240.0,6.0,0.0
803,57.0,0.0,120.0,1.0,0.0
804,50.0,0.0,240.0,2.0,0.0
805,57.0,0.0,120.0,5.0,0.0
806,41.0,53.0,60.0,3.0,0.0
807,45.0,0.0,60.0,7.0,0.0
808,45.0,60.0,60.0,3.0,0.0
809,63.0,7.0,240.0,0.0,0.0
810,58.0,0.0,120.0,1.0,0.0
811,43.0,53.0,60.0,3.0,0.0
812,63.0,0.0,240.0,4.0,0.0
813,58.0,0.0,120.0,5.0,0.0
814,43.0,0.0,60.0,7.0,0.0
815,46.0,0.0,60.0,7.0,0.0
816,46.0,60.0,60.0,3.0,0.0
817,60.0,7.0,240.0,1.0,0.0
818,45.0,0.0,60.0,3.0,0.0
819,45.0,53.0,60.0,7.0,0.0
820,48.0,0.0,120.0,2.0,0.0
821,48.0,0.0,120.0,6.0,0.0
822,60.0,0.0,240.0,5.0,0.0
823,48.0,60.0,60.0,3.0,0.0
824,48.0,0.0,60.0,7.0,0.0
825,53.0,0.0,240.0,2.0,0.0
826,53.0,0.0,240.0,6.0,0.0
827,62.0,7.0,240.0,0.0,0.0
828,62.0,0.0,240.0,4.0,0.0
829,46.0,53.0,60.0,3.0,0.0
830,46.0,0.0,60.0,7.0,0.0
831,48.0,0.0,60.0,7.0,0.0
832,48.0,60.0,60.0,3.0,0.0
833,50.0,53.0,60.0,7.0,0.0
834,58.0,0.0,240.0,1.0,0.0
835,50.0,0.0,60.0,3.0,0.0
836,58.0,7.0,240.0,5.0,0.0
837,46.0,0.0,60.0,3.0,0.0
838,46.0,60.0,60.0,7.0,0.0
839,51.0,0.0,60.0,3.0,0.0
840,60.0,0.0,240.0,0.0,0.0
841,51.0,53.0,60.0,7.0,0.0
842,60.0,7.0,240.0,4.0,0.0
843,55.0,0.0,120.0,2.0,0.0
844,55.0,0.0,120.0,6.0,0.0
845,48.0,0.0,60.0,7.0,0.0
846,48.0,60.0,60.0,3.0,0.0
847,53.0,0.0,60.0,7.0,0.0
848,57.0,0.0,120.0,5.0,0.0
849,53.0,53.0,60.0,3.0,0.0
850,53.0,0.0,60.0,2.0,0.0
851,57.0,0.0,120.0,1.0,0.0
852,53.0,0.0,60.0,6.0,0.0
853,41.0,60.0,60.0,3.0,0.0
854,51.0,0.0,60.0,2.0,0.0
855,41.0,0.0,60.0,7.0,0.0
856,51.0,0.0,60.0,6.0,0.0
857,53.0,0.0,120.0,5.0,0.0
858,58.0,7.0,120.0,4.0,0.0
859,50.0,0.0,120.0,2.0,0.0
860,53.0,0.0,120.0,1.0,0.0
861,58.0,0.0,120.0,0.0,0.0
862,46.0,53.0,60.0,7.0,0.0
863,50.0,0.0,120.0,6.0,0.0
864,46.0,0.0,60.0,3.0,0.0
865,34.0,113.0,60.0,7.0,0.0
866,34.0,0.0,60.0,3.0,0.0
867,62.0,0.0,120.0,6.0,0.0
868,74.0,67.0,120.0,4.0,0.0
869,70.0,0.0,240.0,1.0,0.0
870,62.0,0.0,120.0,2.0,0.0
871,70.0,7.0,240.0,5.0,0.0
872,74.0,0.0,120.0,0.0,0.0
873,72.0,7.0,240.0,0.0,0.0
874,63.0,53.0,60.0,2.0,0.0
875,63.0,0.0,60.0,6.0,0.0
876,72.0,0.0,240.0,4.0,0.0
877,67.0,0.0,60.0,6.0,0.0
878,67.0,60.0,60.0,2.0,0.0
879,69.0,7.0,240.0,5.0,0.0
880,60.0,53.0,60.0,2.0,0.0
881,60.0,0.0,60.0,6.0,0.0
882,69.0,0.0,240.0,1.0,0.0
883,63.0,60.0,60.0,6.0,0.0
884,63.0,0.0,60.0,2.0,0.0
885,62.0,0.0,60.0,2.0,0.0
886,62.0,53.0,60.0,6.0,0.0
887,70.0,0.0,240.0,0.0,0.0
888,70.0,7.0,240.0,4.0,0.0
889,65.0,60.0,60.0,2.0,0.0
890,65.0,0.0,60.0,6.0,0.0
891,67.0,7.0,240.0,5.0,0.0
892,67.0,0.0,240.0,1.0,0.0
893,58.0,0.0,60.0,2.0,0.0
894,58.0,53.0,60.0,6.0,0.0
895,62.0,0.0,60.0,2.0,0.0
896,62.0,60.0,60.0,6.0,0.0
897,69.0,0.0,240.0,0.0,0.0
898,69.0,0.0,240.0,4.0,0.0
899,60.0,53.0,60.0,2.0,0.0
900,60.0,0.0,60.0,6.0,0.0
901,63.0,60.0,60.0,2.0,0.0
902,63.0,0.0,60.0,6.0,0.0
903,66.0,7.0,120.0,5.0,0.0
904,57.0,53.0,60.0,6.0,0.0
905,57.0,0.0,60.0,2.0,0.0
906,66.0,0.0,120.0,1.0,0.0
907,60.0,60.0,60.0,6.0,0.0
908,60.0,0.0,60.0,2.0,0.0
909,58.0,0.0,60.0,2.0,0.0
910,67.0,0.0,120.0,1.0,0.0
911,58.0,53.0,60.0,6.0,0.0
912,67.0,7.0,120.0,0.0,0.0
913,67.0,0.0,120.0,4.0,0.0
914,67.0,0.0,120.0,5.0,0.0
915,55.0,113.0,60.0,2.0,0.0
916,55.0,0.0,60.0,6.0,0.0
917,77.0,7.0,240.0,4.0,0.0
918,69.0,0.0,120.0,1.0,0.0
919,77.0,0.0,240.0,0.0,0.0
920,69.0,7.0,120.0,5.0,0.0
921,62.0,0.0,60.0,6.0,0.0
922,62.0,60.0,60.0,2.0,0.0
923,67.0,7.0,240.0,1.0,0.0
924,67.0,0.0,240.0,5.0,0.0
925,64.0,0.0,60.0,6.0,0.0
926,64.0,53.0,60.0,2.0,0.0
927,67.0,0.0,60.0,6.0,0.0
928,67.0,60.0,60.0,2.0,0.0
929,61.0,0.0,60.0,6.0,0.0
930,61.0,53.0,60.0,2.0,0.0
931,76.0,7.0,240.0,4.0,0.0
932,76.0,0.0,240.0,0.0,0.0
933,64.0,60.0,60.0,2.0,0.0
934,64.0,0.0,60.0,6.0,0.0
935,65.0,0.0,240.0,1.0,0.0
936,65.0,7.0,240.0,5.0,0.0
937,62.0,0.0,60.0,6.0,0.0
938,62.0,53.0,60.0,2.0,0.0
939,65.0,0.0,60.0,2.0,0.0
940,65.0,60.0,60.0,6.0,0.0
941,74.0,7.0,240.0,0.0,0.0
942,74.0,0.0,240.0,4.0,0.0
943,58.0,53.0,60.0,2.0,0.0
944,58.0,0.0,60.0,6.0,0.0
945,62.0,60.0,60.0,2.0,0.0
946,62.0,0.0,60.0,6.0,0.0
947,64.0,0.0,240.0,1.0,0.0
948,55.0,0.0,60.0,2.0,0.0
949,55.0,53.0,60.0,6.0,0.0
950,64.0,7.0,240.0,5.0,0.0
951,58.0,60.0,60.0,2.0,0.0
952,58.0,0.0,60.0,6.0,0.0
953,52.0,53.0,60.0,6.0,0.0
954,73.0,0.0,120.0,4.0,0.0
955,73.0,0.0,120.0,0.0,0.0
956,52.0,0.0,60.0,2.0,0.0
957,55.0,0.0,60.0,2.0,0.0
958,55.0,60.0,60.0,6.0,0.0
959,74.0,0.0,120.0,4.0,0.0
960,53.0,53.0,60.0,2.0,0.0
961,53.0,0.0,60.0,6.0,0.0
962,62.0,0.0,120.0,5.0,0.0
963,62.0,0.0,120.0,1.0,0.0
964,74.0,7.0,120.0,0.0,0.0
965,50.0,113.0,60.0,2.0,0.0
966,50.0,0.0,60.0,6.0,0.0
967,70.0,0.0,240.0,0.0,0.0
968,55.0,7.0,120.0,2.0,0.0
969,55.0,0.0,120.0,6.0,0.0
970,70.0,0.0,240.0,4.0,0.0
971,62.0,0.0,60.0,1.0,0.0
972,62.0,60.0,60.0,5.0,0.0
973,48.0,0.0,120.0,6.0,0.0
974,63.0,53.0,60.0,5.0,0.0
975,63.0,0.0,60.0,1.0,0.0
976,48.0,7.0,120.0,2.0,0.0
977,67.0,60.0,60.0,5.0,0.0
978,67.0,0.0,60.0,1.0,0.0
979,53.0,0.0,120.0,2.0,0.0
980,69.0,7.0,240.0,4.0,0.0
981,60.0,0.0,60.0,1.0,0.0
982,53.0,7.0,120.0,6.0,0.0
983,69.0,0.0,240.0,0.0,0.0
984,60.0,53.0,60.0,5.0,0.0
985,63.0,60.0,60.0,1.0,0.0
986,63.0,0.0,60.0,5.0,0.0
987,46.0,0.0,120.0,6.0,0.0
988,62.0,0.0,60.0,1.0,0.0
989,62.0,53.0,60.0,5.0,0.0
990,46.0,0.0,120.0,2.0,0.0
991,65.0,60.0,60.0,1.0,0.0
992,65.0,0.0,60.0,5.0,0.0
993,51.0,7.0,120.0,6.0,0.0
994,67.0,0.0,240.0,0.0,0.0
995,67.0,0.0,240.0,4.0,0.0
996,58.0,53.0,60.0,5.0,0.0
997,58.0,0.0,60.0,1.0,0.0
998,51.0,0.0,120.0,2.0,0.0
999,62.0,60.0,60.0,1.0,0.0
1000,62.0,0.0,60.0,5.0,0.0
1001,60.0,0.0,60.0,1.0,0.0
1002,45.0,7.0,120.0,6.0,0.0
1003,60.0,53.0,60.0,5.0,0.0
1004,45.0,0.0,120.0,2.0,0.0
1005,63.0,0.0,60.0,1.0,0.0
1006,63.0,60.0,60.0,5.0,0.0
1007,50.0,0.0,120.0,2.0,0.0
1008,57.0,53.0,60.0,1.0,0.0
1009,57.0,0.0,60.0,5.0,0.0
1010,66.0,0.0,120.0,0.0,0.0
1011,66.0,7.0,120.0,4.0,0.0
1012,50.0,0.0,120.0,6.0,0.0
1013,60.0,60.0,60.0,1.0,0.0
1014,60.0,0.0,60.0,5.0,0.0
1015,58.0,0.0,120.0,5.0,0.0
1016,67.0,53.0,60.0,4.0,0.0
1017,43.0,7.0,120.0,6.0,0.0
1018,58.0,0.0,120.0,1.0,0.0
1019,43.0,0.0,120.0,2.0,0.0
1020,67.0,0.0,60.0,0.0,0.0
1021,70.0,0.0,60.0,0.0,0.0
1022,70.0,60.0,60.0,4.0,0.0
1023,57.0,0.0,120.0,5.0,0.0
1024,66.0,0.0,60.0,4.0,0.0
1025,50.0,7.0,120.0,6.0,0.0
1026,57.0,0.0,120.0,1.0,0.0
1027,50.0,0.0,120.0,2.0,0.0
1028,66.0,53.0,60.0,0.0,0.0
1029,69.0,0.0,60.0,4.0,0.0
1030,69.0,60.0,60.0,0.0,0.0
1031,67.0,0.0,60.0,0.0,0.0
1032,55.0,0.0,120.0,2.0,0.0
1033,58.0,7.0,120.0,1.0,0.0
1034,67.0,53.0,60.0,4.0,0.0
1035,58.0,0.0,120.0,5.0,0.0
1036,55.0,0.0,120.0,6.0,0.0
1037,70.0,0.0,60.0,4.0,0.0
1038,70.0,60.0,60.0,0.0,0.0
1039,57.0,0.0,120.0,2.0,0.0
1040,66.0,0.0,60.0,0.0,0.0
1041,60.0,0.0,120.0,1.0,0.0
1042,57.0,0.0,120.0,6.0,0.0
1043,60.0,7.0,120.0,5.0,0.0
1044,66.0,53.0,60.0,4.0,0.0
1045,69.0,0.0,60.0,0.0,0.0
1046,69.0,60.0,60.0,4.0,0.0
1047,58.0,0.0,120.0,2.0,0.0
1048,67.0,53.0,60.0,4.0,0.0
1049,67.0,0.0,60.0,0.0,0.0
1050,62.0,0.0,120.0,1.0,0.0
1051,58.0,7.0,120.0,6.0,0.0
1052,62.0,0.0,120.0,5.0,0.0
1053,70.0,0.0,60.0,0.0,0.0
1054,70.0,60.0,60.0,4.0,0.0
1055,60.0,0.0,120.0,5.0,0.0
1056,66.0,53.0,60.0,4.0,0.0
1057,60.0,0.0,120.0,1.0,0.0
1058,38.0,0.0,120.0,7.0,0.0
1059,38.0,0.0,120.0,3.0,0.0
1060,57.0,7.0,120.0,6.0,0.0
1061,66.0,0.0,60.0,0.0,0.0
1062,57.0,0.0,120.0,2.0,0.0
1063,69.0,0.0,60.0,4.0,0.0
1064,69.0,60.0,60.0,0.0,0.0
1065,58.0,0.0,120.0,2.0,0.0
1066,67.0,53.0,60.0,0.0,0.0
1067,43.0,0.0,120.0,3.0,0.0
1068,43.0,0.0,120.0,7.0,0.0
1069,62.0,0.0,120.0,1.0,0.0
1070,62.0,0.0,120.0,5.0,0.0
1071,67.0,0.0,60.0,4.0,0.0
1072,58.0,7.0,120.0,6.0,0.0
1073,70.0,0.0,60.0,0.0,0.0
1074,70.0,60.0,60.0,4.0,0.0
1075,45.0,0.0,120.0,7.0,0.0
1076,60.0,0.0,120.0,5.0,0.0
1077,57.0,0.0,120.0,6.0,0.0
1078,66.0,0.0,60.0,4.0,0.0
1079,66.0,53.0,60.0,0.0,0.0
1080,60.0,0.0,120.0,1.0,0.0
1081,57.0,0.0,120.0,2.0,0.0
1082,45.0,7.0,120.0,3.0,0.0
1083,69.0,0.0,60.0,0.0,0.0
1084,69.0,60.0,60.0,4.0,0.0
1085,50.0,7.0,120.0,6.0,0.0
1086,67.0,0.0,60.0,4.0,0.0
1087,62.0,0.0,120.0,1.0,0.0
1088,46.0,0.0,120.0,3.0,0.0
1089,46.0,0.0,120.0,7.0,0.0
1090,50.0,0.0,120.0,2.0,0.0
1091,67.0,53.0,60.0,0.0,0.0
1092,62.0,0.0,120.0,5.0,0.0
1093,70.0,0.0,60.0,0.0,0.0
1094,70.0,60.0,60.0,4.0,0.0
1095,57.0,0.0,120.0,5.0,0.0
1096,50.0,0.0,120.0,2.0,0.0
1097,66.0,0.0,60.0,4.0,0.0
1098,66.0,53.0,60.0,0.0,0.0
1099,57.0,7.0,120.0,1.0,0.0
1100,50.0,0.0,120.0,6.0,0.0
1101,69.0,0.0,60.0,4.0,0.0
1102,69.0,60.0,60.0,0.0,0.0
1103,58.0,0.0,120.0,1.0,0.0
1104,67.0,53.0,60.0,4.0,0.0
1105,55.0,7.0,120.0,6.0,0.0
1106,58.0,0.0,120.0,5.0,0.0
1107,67.0,0.0,60.0,0.0,0.0
1108,55.0,0.0,120.0,2.0,0.0
1109,70.0,0.0,60.0,0.0,0.0
1110,70.0,60.0,60.0,4.0,0.0
1111,66.0,53.0,60.0,0.0,0.0
1112,60.0,7.0,120.0,1.0,0.0
1113,60.0,0.0,120.0,5.0,0.0
1114,57.0,0.0,120.0,2.0,0.0
1115,57.0,0.0,120.0,6.0,0.0
1116,66.0,0.0,60.0,4.0,0.0
1117,69.0,0.0,60.0,4.0,0.0
1118,69.0,60.0,60.0,0.0,0.0
1119,58.0,11.0,120.0,2.0,0.0
1120,58.0,0.0,120.0,6.0,0.0
1121,62.0,0.0,180.0,5.0,0.0
1122,67.0,34.0,60.0,4.0,0.0
1123,62.0,53.0,180.0,1.0,0.0
1124,67.0,0.0,60.0,0.0,0.0
1125,65.0,0.0,30.0,0.0,0.0
1126,65.0,19.0,30.0,4.0,0.0
1127,67.0,56.0,30.0,0.0,0.0
1128,67.0,0.0,30.0,4.0,0.0
1129,45.0,0.0,120.0,7.0,0.0
1130,45.0,0.0,120.0,3.0,0.0
1131,52.0,0.0,120.0,2.0,0.0
1132,69.0,0.0,120.0,4.0,0.0
1133,52.0,0.0,120.0,6.0,0.0
1134,69.0,7.0,120.0,0.0,0.0
1135,61.0,0.0,60.0,5.0,0.0
1136,61.0,60.0,60.0,1.0,0.0
1137,50.0,0.0,120.0,7.0,0.0
1138,50.0,0.0,120.0,3.0,0.0
1139,69.0,0.0,120.0,4.0,0.0
1140,53.0,0.0,120.0,2.0,0.0
1141,62.0,53.0,60.0,5.0,0.0
1142,53.0,0.0,120.0,6.0,0.0
1143,69.0,7.0,120.0,0.0,0.0
1144,62.0,0.0,60.0,1.0,0.0
1145,65.0,60.0,60.0,5.0,0.0
1146,65.0,0.0,60.0,1.0,0.0
1147,55.0,0.0,120.0,2.0,0.0
1148,61.0,53.0,60.0,5.0,0.0
1149,52.0,0.0,120.0,7.0,0.0
1150,52.0,0.0,120.0,3.0,0.0
1151,55.0,0.0,120.0,6.0,0.0
1152,61.0,0.0,60.0,1.0,0.0
1153,69.0,0.0,120.0,0.0,0.0
1154,69.0,7.0,120.0,4.0,0.0
1155,64.0,60.0,60.0,1.0,0.0
1156,64.0,0.0,60.0,5.0,0.0
1157,53.0,0.0,120.0,7.0,0.0
1158,53.0,0.0,120.0,3.0,0.0
1159,62.0,53.0,60.0,5.0,0.0
1160,57.0,0.0,120.0,2.0,0.0
1161,62.0,0.0,60.0,1.0,0.0
1162,57.0,0.0,120.0,6.0,0.0
1163,69.0,0.0,120.0,4.0,0.0
1164,69.0,7.0,120.0,0.0,0.0
1165,65.0,60.0,60.0,1.0,0.0
1166,65.0,0.0,60.0,5.0,0.0
1167,69.0,0.0,120.0,4.0,0.0
1168,61.0,53.0,60.0,1.0,0.0
1169,69.0,7.0,120.0,0.0,0.0
1170,45.0,0.0,120.0,6.0,0.0
1171,45.0,0.0,120.0,2.0,0.0
1172,61.0,0.0,60.0,5.0,0.0
1173,64.0,0.0,60.0,5.0,0.0
1174,64.0,60.0,60.0,1.0,0.0
1175,62.0,53.0,60.0,1.0,0.0
1176,69.0,0.0,120.0,4.0,0.0
1177,69.0,0.0,120.0,0.0,0.0
1178,62.0,0.0,60.0,5.0,0.0
1179,50.0,0.0,120.0,6.0,0.0
1180,50.0,7.0,120.0,2.0,0.0
1181,65.0,60.0,60.0,5.0,0.0
1182,65.0,0.0,60.0,1.0,0.0
1183,52.0,0.0,120.0,2.0,0.0
1184,69.0,7.0,120.0,4.0,0.0
1185,61.0,53.0,60.0,1.0,0.0
1186,61.0,0.0,60.0,5.0,0.0
1187,52.0,0.0,120.0,6.0,0.0
1188,69.0,0.0,120.0,0.0,0.0
1189,64.0,60.0,60.0,1.0,0.0
1190,64.0,0.0,60.0,5.0,0.0
1191,53.0,0.0,120.0,6.0,0.0
1192,69.0,0.0,120.0,0.0,0.0
1193,53.0,7.0,120.0,2.0,0.0
1194,62.0,0.0,60.0,1.0,0.0
1195,62.0,53.0,60.0,5.0,0.0
1196,69.0,0.0,120.0,4.0,0.0
1197,65.0,0.0,60.0,5.0,0.0
1198,65.0,60.0,60.0,1.0,0.0
1199,61.0,53.0,60.0,1.0,0.0
1200,45.0,0.0,120.0,7.0,0.0
1201,45.0,0.0,120.0,3.0,0.0
1202,52.0,0.0,120.0,2.0,0.0
1203,52.0,0.0,120.0,6.0,0.0
1204,61.0,0.0,60.0,5.0,0.0
1205,69.0,7.0,120.0,4.0,0.0
1206,69.0,0.0,120.0,0.0,0.0
1207,64.0,60.0,60.0,5.0,0.0
1208,64.0,0.0,60.0,1.0,0.0
1209,62.0,0.0,60.0,1.0,0.0
1210,53.0,7.0,120.0,2.0,0.0
1211,62.0,53.0,60.0,5.0,0.0
1212,53.0,0.0,120.0,6.0,0.0
1213,69.0,0.0,120.0,4.0,0.0
1214,50.0,0.0,120.0,3.0,0.0
1215,50.0,0.0,120.0,7.0,0.0
1216,69.0,0.0,120.0,0.0,0.0
1217,65.0,0.0,60.0,1.0,0.0
1218,65.0,60.0,60.0,5.0,0.0
1219,69.0,7.0,120.0,0.0,0.0
1220,61.0,0.0,60.0,1.0,0.0
1221,55.0,0.0,120.0,2.0,0.0
1222,61.0,53.0,60.0,5.0,0.0
1223,69.0,0.0,120.0,4.0,0.0
1224,52.0,0.0,120.0,7.0,0.0
1225,55.0,0.0,120.0,6.0,0.0
1226,52.0,0.0,120.0,3.0,0.0
1227,64.0,60.0,60.0,5.0,0.0
1228,64.0,0.0,60.0,1.0,0.0
1229,53.0,0.0,120.0,7.0,0.0
1230,57.0,0.0,120.0,6.0,0.0
1231,62.0,0.0,60.0,5.0,0.0
1232,53.0,0.0,120.0,3.0,0.0
1233,69.0,7.0,120.0,0.0,0.0
1234,62.0,53.0,60.0,1.0,0.0
1235,57.0,0.0,120.0,2.0,0.0
1236,69.0,0.0,120.0,4.0,0.0
1237,65.0,0.0,60.0,1.0,0.0
1238,65.0,60.0,60.0,5.0,0.0
1239,55.0,0.0,120.0,3.0,0.0
1240,61.0,0.0,60.0,5.0,0.0
1241,58.0,0.0,120.0,2.0,0.0
1242,69.0,0.0,120.0,4.0,0.0
1243,61.0,53.0,60.0,1.0,0.0
1244,69.0,0.0,120.0,0.0,0.0
1245,58.0,0.0,120.0,6.0,0.0
1246,55.0,7.0,120.0,7.0,0.0
1247,64.0,0.0,60.0,1.0,0.0
1248,64.0,60.0,60.0,5.0,0.0
1249,53.0,0.0,120.0,7.0,0.0
1250,62.0,0.0,60.0,1.0,0.0
1251,57.0,7.0,120.0,2.0,0.0
1252,57.0,0.0,120.0,6.0,0.0
1253,69.0,0.0,120.0,4.0,0.0
1254,62.0,53.0,60.0,5.0,0.0
1255,69.0,0.0,120.0,0.0,0.0
1256,53.0,0.0,120.0,3.0,0.0
1257,65.0,60.0,60.0,1.0,0.0
1258,65.0,0.0,60.0,5.0,0.0
1259,70.0,0.0,120.0,4.0,0.0
1260,64.0,53.0,60.0,1.0,0.0
1261,70.0,0.0,120.0,0.0,0.0
1262,64.0,0.0,60.0,5.0,0.0
1263,55.0,7.0,120.0,3.0,0.0
1264,55.0,0.0,120.0,7.0,0.0
1265,62.0,0.0,60.0,5.0,0.0
1266,62.0,60.0,60.0,1.0,0.0
1267,57.0,0.0,120.0,3.0,0.0
1268,57.0,0.0,120.0,7.0,0.0
1269,61.0,0.0,60.0,5.0,0.0
1270,64.0,7.0,120.0,0.0,0.0
1271,61.0,53.0,60.0,1.0,0.0
1272,64.0,0.0,120.0,4.0,0.0
1273,57.0,113.0,60.0,1.0,0.0
1274,57.0,0.0,60.0,5.0,0.0
1275,64.0,7.0,120.0,1.0,0.0
1276,64.0,0.0,120.0,5.0,0.0
1277,49.0,0.0,60.0,3.0,0.0
1278,69.0,0.0,60.0,0.0,0.0
1279,49.0,60.0,60.0,7.0,0.0
1280,69.0,0.0,60.0,4.0,0.0
1281,65.0,0.0,120.0,5.0,0.0
1282,70.0,7.0,120.0,0.0,0.0
1283,65.0,0.0,120.0,1.0,0.0
1284,70.0,0.0,120.0,4.0,0.0
1285,50.0,53.0,60.0,3.0,0.0
1286,50.0,0.0,60.0,7.0,0.0
1287,53.0,60.0,60.0,3.0,0.0
1288,53.0,0.0,60.0,7.0,0.0
1289,64.0,7.0,120.0,1.0,0.0
1290,49.0,0.0,60.0,3.0,0.0
1291,49.0,53.0,60.0,7.0,0.0
1292,64.0,0.0,120.0,5.0,0.0
1293,69.0,0.0,120.0,4.0,0.0
1294,69.0,0.0,120.0,0.0,0.0
1295,52.0,0.0,60.0,3.0,0.0
1296,52.0,60.0,60.0,7.0,0.0
1297,65.0,0.0,120.0,5.0,0.0
1298,65.0,0.0,120.0,1.0,0.0
1299,50.0,53.0,60.0,3.0,0.0
1300,70.0,7.0,120.0,4.0,0.0
1301,50.0,0.0,60.0,7.0,0.0
1302,70.0,0.0,120.0,0.0,0.0
1303,53.0,0.0,60.0,3.0,0.0
1304,53.0,60.0,60.0,7.0,0.0
1305,49.0,53.0,60.0,7.0,0.0
1306,49.0,0.0,60.0,3.0,0.0
1307,69.0,0.0,120.0,0.0,0.0
1308,69.0,7.0,120.0,4.0,0.0
1309,64.0,0.0,120.0,1.0,0.0
1310,64.0,0.0,120.0,5.0,0.0
1311,52.0,60.0,60.0,3.0,0.0
1312,52.0,0.0,60.0,7.0,0.0
1313,65.0,0.0,120.0,5.0,0.0
1314,50.0,0.0,60.0,7.0,0.0
1315,70.0,0.0,120.0,0.0,0.0
1316,65.0,0.0,120.0,1.0,0.0
1317,70.0,7.0,120.0,4.0,0.0
1318,50.0,53.0,60.0,3.0,0.0
1319,53.0,60.0,60.0,3.0,0.0
1320,53.0,0.0,60.0,7.0,0.0
1321,69.0,0.0,120.0,0.0,0.0
1322,64.0,0.0,120.0,5.0,0.0
1323,48.0,53.0,60.0,7.0,0.0
1324,64.0,7.0,120.0,1.0,0.0
1325,48.0,0.0,60.0,3.0,0.0
1326,69.0,0.0,120.0,4.0,0.0
1327,52.0,60.0,60.0,3.0,0.0
1328,52.0,0.0,60.0,7.0,0.0
1329,62.0,7.0,120.0,1.0,0.0
1330,67.0,0.0,120.0,0.0,0.0
1331,67.0,0.0,120.0,4.0,0.0
1332,46.0,0.0,60.0,7.0,0.0
1333,62.0,0.0,120.0,5.0,0.0
1334,46.0,53.0,60.0,3.0,0.0
1335,50.0,0.0,60.0,3.0,0.0
1336,50.0,60.0,60.0,7.0,0.0
1337,65.0,7.0,120.0,0.0,0.0
1338,45.0,53.0,60.0,3.0,0.0
1339,45.0,0.0,60.0,7.0,0.0
1340,60.0,0.0,120.0,1.0,0.0
1341,65.0,0.0,120.0,4.0,0.0
1342,60.0,0.0,120.0,5.0,0.0
1343,50.0,0.0,60.0,7.0,0.0
1344,50.0,60.0,60.0,3.0,0.0
1345,64.0,0.0,120.0,0.0,0.0
1346,43.0,0.0,60.0,7.0,0.0
1347,64.0,0.0,120.0,4.0,0.0
1348,58.0,0.0,120.0,5.0,0.0
1349,43.0,53.0,60.0,3.0,0.0
1350,58.0,7.0,120.0,1.0,0.0
1351,50.0,60.0,60.0,7.0,0.0
1352,50.0,0.0,60.0,3.0,0.0
1353,57.0,53.0,60.0,1.0,0.0
1354,64.0,0.0,120.0,0.0,0.0
1355,45.0,0.0,60.0,3.0,0.0
1356,45.0,0.0,60.0,7.0,0.0
1357,64.0,7.0,120.0,4.0,0.0
1358,57.0,0.0,60.0,5.0,0.0
1359,49.0,0.0,60.0,3.0,0.0
1360,55.0,0.0,60.0,1.0,0.0
1361,55.0,0.0,60.0,5.0,0.0
1362,49.0,60.0,60.0,7.0,0.0
1363,38.0,0.0,120.0,3.0,0.0
1364,53.0,53.0,60.0,5.0,0.0
1365,53.0,0.0,60.0,1.0,0.0
1366,62.0,0.0,120.0,0.0,0.0
1367,62.0,7.0,120.0,4.0,0.0
1368,38.0,0.0,120.0,7.0,0.0
1369,55.0,113.0,60.0,5.0,0.0
1370,55.0,0.0,60.0,1.0,0.0
1371,50.0,7.0,240.0,2.0,0.0
1372,50.0,0.0,240.0,6.0,0.0
1373,57.0,7.0,120.0,1.0,0.0
1374,57.0,0.0,120.0,5.0,0.0
1375,65.0,60.0,60.0,0.0,0.0
1376,65.0,0.0,60.0,4.0,0.0
1377,55.0,0.0,120.0,1.0,0.0
1378,64.0,53.0,60.0,4.0,0.0
1379,55.0,0.0,120.0,5.0,0.0
1380,64.0,0.0,60.0,0.0,0.0
1381,67.0,0.0,60.0,0.0,0.0
1382,67.0,60.0,60.0,4.0,0.0
1383,57.0,0.0,240.0,5.0,0.0
1384,57.0,7.0,240.0,1.0,0.0
1385,49.0,0.0,120.0,6.0,0.0
1386,64.0,53.0,60.0,0.0,0.0
1387,49.0,7.0,120.0,2.0,0.0
1388,64.0,0.0,60.0,4.0,0.0
1389,67.0,60.0,60.0,0.0,0.0
1390,67.0,0.0,60.0,4.0,0.0
1391,65.0,53.0,60.0,0.0,0.0
1392,50.0,7.0,240.0,2.0,0.0
1393,65.0,0.0,60.0,4.0,0.0
1394,50.0,0.0,240.0,6.0,0.0
1395,69.0,60.0,60.0,4.0,0.0
1396,69.0,0.0,60.0,0.0,0.0
1397,58.0,0.0,240.0,5.0,0.0
1398,58.0,7.0,240.0,1.0,0.0
1399,62.0,53.0,60.0,0.0,0.0
1400,62.0,0.0,60.0,4.0,0.0
1401,65.0,0.0,60.0,4.0,0.0
1402,65.0,60.0,60.0,0.0,0.0
1403,63.0,53.0,60.0,4.0,0.0
1404,63.0,0.0,60.0,0.0,0.0
1405,48.0,7.0,240.0,6.0,0.0
1406,48.0,0.0,240.0,2.0,0.0
1407,67.0,60.0,60.0,4.0,0.0
1408,67.0,0.0,60.0,0.0,0.0
1409,60.0,0.0,60.0,0.0,0.0
1410,60.0,53.0,60.0,4.0,0.0
1411,57.0,0.0,120.0,1.0,0.0
1412,57.0,0.0,120.0,5.0,0.0
1413,63.0,60.0,60.0,4.0,0.0
1414,63.0,0.0,60.0,0.0,0.0
1415,62.0,53.0,60.0,4.0,0.0
1416,58.0,0.0,120.0,1.0,0.0
1417,58.0,7.0,120.0,5.0,0.0
1418,62.0,0.0,60.0,0.0,0.0
1419,46.0,0.0,120.0,2.0,0.0
1420,46.0,0.0,120.0,6.0,0.0
1421,58.0,0.0,60.0,4.0,0.0
1422,58.0,113.0,60.0,0.0,0.0
1423,65.0,0.0,240.0,4.0,0.0
1424,50.0,0.0,120.0,6.0,0.0
1425,50.0,7.0,120.0,2.0,0.0
1426,65.0,0.0,240.0,0.0,0.0
1427,57.0,60.0,60.0,5.0,0.0
1428,57.0,0.0,60.0,1.0,0.0
1429,43.0,7.0,120.0,2.0,0.0
1430,58.0,0.0,60.0,5.0,0.0
1431,58.0,53.0,60.0,1.0,0.0
1432,43.0,0.0,120.0,6.0,0.0
1433,62.0,0.0,60.0,1.0,0.0
1434,62.0,60.0,60.0,5.0,0.0
1435,63.0,0.0,240.0,0.0,0.0
1436,48.0,7.0,120.0,2.0,0.0
1437,63.0,7.0,240.0,4.0,0.0
1438,55.0,0.0,60.0,5.0,0.0
1439,55.0,53.0,60.0,1.0,0.0
1440,48.0,0.0,120.0,6.0,0.0
1441,58.0,0.0,60.0,1.0,0.0
1442,58.0,60.0,60.0,5.0,0.0
1443,57.0,0.0,60.0,1.0,0.0
1444,41.0,0.0,120.0,6.0,0.0
1445,41.0,0.0,120.0,2.0,0.0
1446,57.0,53.0,60.0,5.0,0.0
1447,53.0,113.0,60.0,5.0,0.0
1448,53.0,0.0,60.0,1.0,0.0
1449,62.0,7.0,120.0,0.0,0.0
1450,58.0,53.0,180.0,1.0,0.0
1451,62.0,0.0,120.0,4.0,0.0
1452,58.0,0.0,180.0,5.0,0.0
1453,43.0,60.0,60.0,2.0,0.0
1454,43.0,0.0,60.0,6.0,0.0
1455,60.0,7.0,120.0,0.0,0.0
1456,39.0,0.0,120.0,6.0,0.0
1457,60.0,0.0,120.0,4.0,0.0
1458,39.0,0.0,120.0,2.0,0.0
1459,58.0,113.0,60.0,1.0,0.0
1460,58.0,0.0,60.0,5.0,0.0
1461,41.0,0.0,120.0,2.0,0.0
1462,57.0,0.0,120.0,5.0,0.0
1463,41.0,0.0,120.0,6.0,0.0
1464,57.0,7.0,120.0,1.0,0.0
1465,65.0,60.0,60.0,4.0,0.0
1466,65.0,0.0,60.0,0.0,0.0
1467,34.0,0.0,120.0,2.0,0.0
1468,62.0,0.0,60.0,4.0,0.0
1469,58.0,0.0,120.0,5.0,0.0
1470,34.0,0.0,120.0,6.0,0.0
1471,62.0,53.0,60.0,0.0,0.0
1472,58.0,7.0,120.0,1.0,0.0
1473,65.0,0.0,60.0,4.0,0.0
1474,65.0,60.0,60.0,0.0,0.0
1475,41.0,0.0,120.0,2.0,0.0
1476,60.0,53.0,60.0,4.0,0.0
1477,57.0,0.0,120.0,5.0,0.0
1478,57.0,0.0,120.0,1.0,0.0
1479,60.0,0.0,60.0,0.0,0.0
1480,41.0,7.0,120.0,6.0,0.0
1481,65.0,0.0,60.0,0.0,0.0
1482,65.0,60.0,60.0,4.0,0.0
1483,53.0,7.0,120.0,1.0,0.0
1484,62.0,53.0,60.0,4.0,0.0
1485,46.0,0.0,120.0,2.0,0.0
1486,46.0,0.0,120.0,6.0,0.0
1487,53.0,0.0,120.0,5.0,0.0
1488,62.0,0.0,60.0,0.0,0.0
1489,65.0,0.0,60.0,0.0,0.0
1490,65.0,60.0,60.0,4.0,0.0
1491,53.0,7.0,120.0,1.0,0.0
1492,53.0,0.0,120.0,5.0,0.0
1493,45.0,0.0,120.0,6.0,0.0
1494,60.0,53.0,60.0,0.0,0.0
1495,45.0,0.0,120.0,2.0,0.0
1496,60.0,0.0,60.0,4.0,0.0
1497,65.0,0.0,60.0,0.0,0.0
1498,65.0,60.0,60.0,4.0,0.0
1499,53.0,0.0,120.0,5.0,0.0
1500,62.0,53.0,60.0,0.0,0.0
1501,62.0,0.0,60.0,4.0,0.0
1502,46.0,7.0,120.0,2.0,0.0
1503,46.0,0.0,120.0,6.0,0.0
1504,53.0,0.0,120.0,1.0,0.0
1505,65.0,0.0,60.0,0.0,0.0
1506,65.0,60.0,60.0,4.0,0.0
1507,57.0,7.0,120.0,5.0,0.0
1508,41.0,0.0,120.0,7.0,0.0
1509,60.0,53.0,60.0,4.0,0.0
1510,57.0,0.0,120.0,1.0,0.0
1511,60.0,0.0,60.0,0.0,0.0
1512,53.0,0.0,120.0,2.0,0.0
1513,53.0,0.0,120.0,6.0,0.0
1514,41.0,0.0,120.0,3.0,0.0
1515,65.0,0.0,60.0,0.0,0.0
1516,65.0,60.0,60.0,4.0,0.0
1517,62.0,0.0,60.0,0.0,0.0
1518,53.0,7.0,120.0,6.0,0.0
1519,58.0,0.0,120.0,5.0,0.0
1520,46.0,0.0,120.0,7.0,0.0
1521,62.0,53.0,60.0,4.0,0.0
1522,46.0,0.0,120.0,3.0,0.0
1523,53.0,0.0,120.0,2.0,0.0
1524,58.0,0.0,120.0,1.0,0.0
1525,65.0,60.0,60.0,4.0,0.0
1526,65.0,0.0,60.0,0.0,0.0
1527,60.0,53.0,60.0,4.0,0.0
1528,53.0,7.0,120.0,6.0,0.0
1529,45.0,0.0,120.0,7.0,0.0
1530,60.0,0.0,60.0,0.0,0.0
1531,60.0,0.0,120.0,1.0,0.0
1532,53.0,0.0,120.0,2.0,0.0
1533,45.0,0.0,120.0,3.0,0.0
1534,60.0,0.0,120.0,5.0,0.0
1535,65.0,0.0,60.0,0.0,0.0
1536,65.0,60.0,60.0,4.0,0.0
1537,62.0,53.0,60.0,0.0,0.0
1538,46.0,0.0,120.0,3.0,0.0
1539,58.0,7.0,120.0,5.0,0.0
1540,58.0,0.0,120.0,1.0,0.0
1541,53.0,0.0,120.0,6.0,0.0
1542,46.0,0.0,120.0,7.0,0.0
1543,62.0,0.0,60.0,4.0,0.0
1544,53.0,0.0,120.0,2.0,0.0
1545,70.0,0.0,60.0,4.0,0.0
1546,70.0,60.0,60.0,0.0,0.0
1547,46.0,0.0,120.0,2.0,0.0
1548,62.0,0.0,120.0,5.0,0.0
1549,46.0,0.0,120.0,6.0,0.0
1550,65.0,53.0,60.0,4.0,0.0
1551,65.0,0.0,60.0,0.0,0.0
1552,62.0,7.0,120.0,1.0,0.0
1553,70.0,60.0,60.0,4.0,0.0
1554,70.0,0.0,60.0,0.0,0.0
1555,51.0,7.0,120.0,6.0,0.0
1556,67.0,53.0,60.0,4.0,0.0
1557,67.0,0.0,60.0,0.0,0.0
1558,58.0,0.0,120.0,5.0,0.0
1559,58.0,0.0,120.0,1.0,0.0
1560,51.0,0.0,120.0,2.0,0.0
1561,70.0,0.0,60.0,0.0,0.0
1562,70.0,60.0,60.0,4.0,0.0
1563,65.0,0.0,60.0,4.0,0.0
1564,65.0,53.0,60.0,0.0,0.0
1565,58.0,0.0,120.0,5.0,0.0
1566,58.0,0.0,120.0,1.0,0.0
1567,50.0,7.0,120.0,2.0,0.0
1568,50.0,0.0,120.0,6.0,0.0
1569,70.0,60.0,60.0,0.0,0.0
1570,70.0,0.0,60.0,4.0,0.0
1571,67.0,0.0,60.0,0.0,0.0
1572,67.0,53.0,60.0,4.0,0.0
1573,51.0,0.0,120.0,6.0,0.0
1574,58.0,0.0,120.0,1.0,0.0
1575,58.0,7.0,120.0,5.0,0.0
1576,51.0,0.0,120.0,2.0,0.0
1577,70.0,0.0,60.0,4.0,0.0
1578,70.0,60.0,60.0,0.0,0.0
1579,46.0,7.0,120.0,3.0,0.0
1580,62.0,0.0,120.0,1.0,0.0
1581,58.0,0.0,120.0,6.0,0.0
1582,46.0,0.0,120.0,7.0,0.0
1583,58.0,0.0,120.0,2.0,0.0
1584,65.0,53.0,60.0,0.0,0.0
1585,65.0,0.0,60.0,4.0,0.0
1586,62.0,0.0,120.0,5.0,0.0
1587,70.0,60.0,60.0,4.0,0.0
1588,70.0,0.0,60.0,0.0,0.0
1589,58.0,7.0,120.0,6.0,0.0
1590,63.0,0.0,120.0,1.0,0.0
1591,58.0,0.0,120.0,2.0,0.0
1592,51.0,0.0,120.0,3.0,0.0
1593,63.0,0.0,120.0,5.0,0.0
1594,51.0,0.0,120.0,7.0,0.0
1595,67.0,53.0,60.0,0.0,0.0
1596,67.0,0.0,60.0,4.0,0.0
1597,70.0,60.0,60.0,0.0,0.0
1598,70.0,0.0,60.0,4.0,0.0
1599,58.0,0.0,120.0,6.0,0.0
1600,50.0,0.0,120.0,7.0,0.0
1601,65.0,0.0,120.0,5.0,0.0
1602,65.0,53.0,60.0,4.0,0.0
1603,65.0,0.0,60.0,0.0,0.0
1604,50.0,0.0,120.0,3.0,0.0
1605,58.0,7.0,120.0,2.0,0.0
1606,65.0,0.0,120.0,1.0,0.0
1607,70.0,0.0,60.0,0.0,0.0
1608,70.0,60.0,60.0,4.0,0.0
1609,63.0,0.0,120.0,5.0,0.0
1610,67.0,53.0,60.0,4.0,0.0
1611,51.0,0.0,120.0,7.0,0.0
1612,58.0,0.0,120.0,6.0,0.0
1613,67.0,0.0,60.0,0.0,0.0
1614,51.0,0.0,120.0,3.0,0.0
1615,63.0,7.0,120.0,1.0,0.0
1616,58.0,0.0,120.0,2.0,0.0
1617,72.0,60.0,60.0,0.0,0.0
1618,72.0,0.0,60.0,4.0,0.0
1619,48.0,0.0,120.0,2.0,0.0
1620,48.0,0.0,120.0,6.0,0.0
1621,67.0,53.0,60.0,0.0,0.0
1622,64.0,0.0,120.0,5.0,0.0
1623,67.0,0.0,60.0,4.0,0.0
1624,64.0,7.0,120.0,1.0,0.0
1625,72.0,0.0,60.0,4.0,0.0
1626,72.0,60.0,60.0,0.0,0.0
1627,53.0,7.0,120.0,6.0,0.0
1628,69.0,0.0,60.0,4.0,0.0
1629,60.0,0.0,120.0,5.0,0.0
1630,69.0,53.0,60.0,0.0,0.0
1631,53.0,0.0,120.0,2.0,0.0
1632,60.0,0.0,120.0,1.0,0.0
1633,72.0,0.0,60.0,4.0,0.0
1634,72.0,60.0,60.0,0.0,0.0
1635,52.0,0.0,120.0,2.0,0.0
1636,67.0,53.0,60.0,4.0,0.0
1637,60.0,0.0,120.0,1.0,0.0
1638,60.0,7.0,120.0,5.0,0.0
1639,52.0,0.0,120.0,6.0,0.0
1640,67.0,0.0,60.0,0.0,0.0
1641,72.0,60.0,60.0,0.0,0.0
1642,72.0,0.0,60.0,4.0,0.0
1643,60.0,0.0,120.0,1.0,0.0
1644,69.0,53.0,60.0,4.0,0.0
1645,53.0,7.0,120.0,2.0,0.0
1646,69.0,0.0,60.0,0.0,0.0
1647,53.0,0.0,120.0,6.0,0.0
1648,60.0,0.0,120.0,5.0,0.0
1649,72.0,0.0,60.0,4.0,0.0
1650,72.0,60.0,60.0,0.0,0.0
1651,60.0,7.0,120.0,2.0,0.0
1652,48.0,0.0,120.0,7.0,0.0
1653,67.0,53.0,60.0,4.0,0.0
1654,64.0,0.0,120.0,5.0,0.0
1655,64.0,0.0,120.0,1.0,0.0
1656,60.0,0.0,120.0,6.0,0.0
1657,48.0,0.0,120.0,3.0,0.0
1658,67.0,0.0,60.0,0.0,0.0
1659,72.0,60.0,60.0,4.0,0.0
1660,72.0,0.0,60.0,0.0,0.0
1661,65.0,0.0,120.0,1.0,0.0
1662,53.0,0.0,120.0,7.0,0.0
1663,60.0,0.0,120.0,6.0,0.0
1664,65.0,7.0,120.0,5.0,0.0
1665,60.0,0.0,120.0,2.0,0.0
1666,69.0,0.0,60.0,0.0,0.0
1667,69.0,53.0,60.0,4.0,0.0
1668,53.0,0.0,120.0,3.0,0.0
1669,72.0,60.0,60.0,4.0,0.0
1670,72.0,0.0,60.0,0.0,0.0
1671,60.0,7.0,120.0,6.0,0.0
1672,67.0,53.0,60.0,4.0,0.0
1673,52.0,0.0,120.0,7.0,0.0
1674,67.0,0.0,60.0,0.0,0.0
1675,52.0,0.0,120.0,3.0,0.0
1676,60.0,0.0,120.0,2.0,0.0
1677,67.0,0.0,120.0,5.0,0.0
1678,67.0,0.0,120.0,1.0,0.0
1679,72.0,0.0,60.0,0.0,0.0
1680,72.0,60.0,60.0,4.0,0.0
1681,60.0,7.0,120.0,6.0,0.0
1682,69.0,0.0,60.0,0.0,0.0
1683,69.0,53.0,60.0,4.0,0.0
1684,65.0,0.0,120.0,1.0,0.0
1685,53.0,0.0,120.0,7.0,0.0
1686,65.0,0.0,120.0,5.0,0.0
1687,60.0,0.0,120.0,2.0,0.0
1688,53.0,0.0,120.0,3.0,0.0
1689,77.0,0.0,60.0,4.0,0.0
1690,77.0,60.0,60.0,0.0,0.0
1691,69.0,0.0,120.0,5.0,0.0
1692,53.0,7.0,120.0,2.0,0.0
1693,69.0,0.0,120.0,1.0,0.0
1694,72.0,53.0,60.0,4.0,0.0
1695,72.0,0.0,60.0,0.0,0.0
1696,53.0,0.0,120.0,6.0,0.0
1697,77.0,0.0,60.0,4.0,0.0
1698,77.0,60.0,60.0,0.0,0.0
1699,74.0,0.0,60.0,4.0,0.0
1700,58.0,0.0,120.0,6.0,0.0
1701,65.0,0.0,120.0,5.0,0.0
1702,74.0,53.0,60.0,0.0,0.0
1703,58.0,7.0,120.0,2.0,0.0
1704,65.0,0.0,120.0,1.0,0.0
1705,77.0,60.0,60.0,4.0,0.0
1706,77.0,0.0,60.0,0.0,0.0
1707,65.0,0.0,120.0,5.0,0.0
1708,57.0,0.0,120.0,6.0,0.0
1709,72.0,0.0,60.0,0.0,0.0
1710,72.0,53.0,60.0,4.0,0.0
1711,65.0,7.0,120.0,1.0,0.0
1712,57.0,0.0,120.0,2.0,0.0
1713,77.0,60.0,60.0,4.0,0.0
1714,77.0,0.0,60.0,0.0,0.0
1715,74.0,0.0,60.0,0.0,0.0
1716,74.0,53.0,60.0,4.0,0.0
1717,65.0,0.0,120.0,5.0,0.0
1718,58.0,0.0,120.0,6.0,0.0
1719,58.0,0.0,120.0,2.0,0.0
1720,65.0,7.0,120.0,1.0,0.0
1721,77.0,0.0,60.0,4.0,0.0
1722,77.0,60.0,60.0,0.0,0.0
1723,72.0,53.0,60.0,4.0,0.0
1724,53.0,0.0,120.0,7.0,0.0
1725,65.0,0.0,120.0,2.0,0.0
1726,69.0,0.0,120.0,1.0,0.0
1727,53.0,0.0,120.0,3.0,0.0
1728,72.0,0.0,60.0,0.0,0.0
1729,69.0,0.0,120.0,5.0,0.0
1730,65.0,7.0,120.0,6.0,0.0
1731,77.0,0.0,60.0,0.0,0.0
1732,77.0,60.0,60.0,4.0,0.0
1733,65.0,0.0,120.0,2.0,0.0
1734,74.0,53.0,60.0,0.0,0.0
1735,58.0,0.0,120.0,3.0,0.0
1736,65.0,0.0,120.0,6.0,0.0
1737,70.0,0.0,120.0,5.0,0.0
1738,58.0,0.0,120.0,7.0,0.0
1739,74.0,0.0,60.0,4.0,0.0
1740,70.0,7.0,120.0,1.0,0.0
1741,77.0,0.0,60.0,4.0,0.0
1742,77.0,60.0,60.0,0.0,0.0
1743,65.0,0.0,120.0,6.0,0.0
1744,57.0,0.0,120.0,3.0,0.0
1745,65.0,0.0,120.0,2.0,0.0
1746,72.0,7.0,120.0,1.0,0.0
1747,72.0,0.0,120.0,5.0,0.0
1748,57.0,0.0,120.0,7.0,0.0
1749,72.0,53.0,60.0,4.0,0.0
1750,72.0,0.0,60.0,0.0,0.0
1751,77.0,0.0,60.0,0.0,0.0
1752,77.0,60.0,60.0,4.0,0.0
1753,58.0,0.0,120.0,7.0,0.0
1754,65.0,7.0,120.0,6.0,0.0
1755,70.0,0.0,120.0,5.0,0.0
1756,70.0,0.0,120.0,1.0,0.0
1757,58.0,0.0,120.0,3.0,0.0
1758,65.0,0.0,120.0,2.0,0.0
1759,74.0,0.0,60.0,4.0,0.0
1760,74.0,53.0,60.0,0.0,0.0
1761,70.0,0.0,60.0,4.0,0.0
1762,70.0,113.0,60.0,0.0,0.0
1763,70.0,7.0,240.0,5.0,0.0
1764,70.0,0.0,240.0,1.0,0.0
1765,74.0,0.0,120.0,4.0,0.0
1766,74.0,7.0,120.0,0.0,0.0
1767,62.0,60.0,60.0,6.0,0.0
1768,62.0,0.0,60.0,2.0,0.0
1769,72.0,0.0,240.0,4.0,0.0
1770,72.0,7.0,240.0,0.0,0.0
1771,63.0,53.0,60.0,2.0,0.0
1772,63.0,0.0,60.0,6.0,0.0
1773,67.0,0.0,60.0,2.0,0.0
1774,67.0,60.0,60.0,6.0,0.0
1775,69.0,0.0,240.0,1.0,0.0
1776,60.0,0.0,60.0,6.0,0.0
1777,60.0,53.0,60.0,2.0,0.0
1778,69.0,7.0,240.0,5.0,0.0
1779,63.0,0.0,60.0,2.0,0.0
1780,63.0,60.0,60.0,6.0,0.0
1781,70.0,7.0,240.0,4.0,0.0
1782,70.0,0.0,240.0,0.0,0.0
1783,62.0,0.0,60.0,6.0,0.0
1784,62.0,53.0,60.0,2.0,0.0
1785,65.0,60.0,60.0,6.0,0.0
1786,65.0,0.0,60.0,2.0,0.0
1787,58.0,53.0,60.0,2.0,0.0
1788,67.0,7.0,240.0,5.0,0.0
1789,58.0,0.0,60.0,6.0,0.0
1790,67.0,0.0,240.0,1.0,0.0
1791,62.0,60.0,60.0,2.0,0.0
1792,62.0,0.0,60.0,6.0,0.0
1793,60.0,0.0,60.0,2.0,0.0
1794,69.0,7.0,240.0,0.0,0.0
1795,69.0,0.0,240.0,4.0,0.0
1796,60.0,53.0,60.0,6.0,0.0
1797,63.0,0.0,60.0,6.0,0.0
1798,63.0,60.0,60.0,2.0,0.0
1799,57.0,53.0,60.0,2.0,0.0
1800,57.0,0.0,60.0,6.0,0.0
1801,65.0,0.0,240.0,5.0,0.0
1802,65.0,7.0,240.0,1.0,0.0
1803,60.0,0.0,60.0,6.0,0.0
1804,60.0,60.0,60.0,2.0,0.0
1805,67.0,0.0,240.0,0.0,0.0
1806,67.0,0.0,240.0,4.0,0.0
1807,58.0,53.0,60.0,6.0,0.0
1808,58.0,0.0,60.0,2.0,0.0
1809,62.0,60.0,60.0,6.0,0.0
1810,62.0,0.0,60.0,2.0,0.0
1811,64.0,7.0,120.0,5.0,0.0
1812,64.0,0.0,120.0,1.0,0.0
1813,55.0,53.0,60.0,2.0,0.0
1814,55.0,0.0,60.0,6.0,0.0
1815,58.0,0.0,60.0,2.0,0.0
1816,58.0,60.0,60.0,6.0,0.0
1817,65.0,0.0,120.0,5.0,0.0
1818,65.0,0.0,120.0,0.0,0.0
1819,65.0,0.0,120.0,1.0,0.0
1820,65.0,7.0,120.0,4.0,0.0
1821,57.0,0.0,60.0,2.0,0.0
1822,57.0,53.0,60.0,6.0,0.0
1823,60.0,60.0,60.0,2.0,0.0
1824,60.0,0.0,60.0,6.0,0.0
1825,65.0,0.0,120.0,5.0,0.0
1826,53.0,0.0,60.0,6.0,0.0
1827,53.0,53.0,60.0,2.0,0.0
1828,65.0,7.0,120.0,1.0,0.0
1829,57.0,0.0,60.0,6.0,0.0
1830,57.0,60.0,60.0,2.0,0.0
1831,65.0,0.0,120.0,5.0,0.0
1832,58.0,0.0,60.0,6.0,0.0
1833,65.0,7.0,120.0,1.0,0.0
1834,58.0,53.0,60.0,2.0,0.0
1835,62.0,0.0,60.0,6.0,0.0
1836,62.0,60.0,60.0,2.0,0.0
1837,55.0,0.0,60.0,6.0,0.0
1838,65.0,0.0,120.0,4.0,0.0
1839,55.0,53.0,60.0,2.0,0.0
1840,65.0,7.0,120.0,0.0,0.0
1841,58.0,60.0,60.0,2.0,0.0
1842,58.0,0.0,60.0,6.0,0.0
1843,65.0,0.0,120.0,0.0,0.0
1844,65.0,7.0,120.0,4.0,0.0
1845,57.0,53.0,60.0,6.0,0.0
1846,57.0,0.0,60.0,2.0,0.0
1847,60.0,0.0,60.0,6.0,0.0
1848,60.0,60.0,60.0,2.0,0.0
1849,65.0,0.0,120.0,1.0,0.0
1850,65.0,7.0,120.0,5.0,0.0
1851,53.0,0.0,60.0,2.0,0.0
1852,53.0,53.0,60.0,6.0,0.0
1853,57.0,0.0,60.0,2.0,0.0
1854,57.0,60.0,60.0,6.0,0.0
1855,58.0,0.0,60.0,6.0,0.0
1856,65.0,7.0,120.0,5.0,0.0
1857,65.0,0.0,120.0,1.0,0.0
1858,58.0,53.0,60.0,2.0,0.0
1859,62.0,0.0,60.0,6.0,0.0
1860,62.0,60.0,60.0,2.0,0.0
1861,65.0,0.0,120.0,4.0,0.0
1862,65.0,7.0,120.0,0.0,0.0
1863,55.0,53.0,60.0,6.0,0.0
1864,55.0,0.0,60.0,2.0,0.0
1865,58.0,0.0,60.0,2.0,0.0
1866,58.0,60.0,60.0,6.0,0.0
1867,65.0,7.0,120.0,4.0,0.0
1868,57.0,0.0,60.0,2.0,0.0
1869,65.0,0.0,120.0,0.0,0.0
1870,57.0,53.0,60.0,6.0,0.0
1871,53.0,113.0,60.0,2.0,0.0
1872,53.0,0.0,60.0,6.0,0.0
1873,57.0,7.0,120.0,6.0,0.0
1874,57.0,0.0,120.0,2.0,0.0
1875,60.0,0.0,120.0,1.0,0.0
1876,65.0,7.0,240.0,4.0,0.0
1877,65.0,0.0,240.0,0.0,0.0
1878,60.0,0.0,120.0,5.0,0.0
1879,45.0,0.0,60.0,7.0,0.0
1880,45.0,60.0,60.0,3.0,0.0
1881,46.0,0.0,60.0,3.0,0.0
1882,55.0,0.0,120.0,2.0,0.0
1883,62.0,0.0,120.0,5.0,0.0
1884,55.0,0.0,120.0,6.0,0.0
1885,62.0,0.0,120.0,1.0,0.0
1886,46.0,53.0,60.0,7.0,0.0
1887,43.0,0.0,60.0,7.0,0.0
1888,43.0,60.0,60.0,3.0,0.0
1889,48.0,0.0,60.0,3.0,0.0
1890,55.0,0.0,120.0,2.0,0.0
1891,60.0,53.0,60.0,5.0,0.0
1892,48.0,0.0,60.0,7.0,0.0
1893,64.0,7.0,120.0,0.0,0.0
1894,60.0,0.0,60.0,1.0,0.0
1895,64.0,0.0,120.0,4.0,0.0
1896,55.0,0.0,120.0,6.0,0.0
1897,36.0,0.0,60.0,3.0,0.0
1898,58.0,60.0,60.0,5.0,0.0
1899,36.0,0.0,60.0,7.0,0.0
1900,58.0,0.0,60.0,1.0,0.0
1901,53.0,0.0,120.0,6.0,0.0
1902,65.0,0.0,120.0,4.0,0.0
1903,53.0,7.0,120.0,2.0,0.0
1904,41.0,0.0,120.0,7.0,0.0
1905,57.0,53.0,60.0,5.0,0.0
1906,41.0,0.0,120.0,3.0,0.0
1907,65.0,0.0,120.0,0.0,0.0
1908,57.0,0.0,60.0,1.0,0.0
1909,53.0,0.0,60.0,1.0,0.0
1910,53.0,113.0,60.0,5.0,0.0
1911,53.0,0.0,240.0,3.0,0.0
1912,69.0,7.0,120.0,5.0,0.0
1913,69.0,0.0,120.0,1.0,0.0
1914,53.0,7.0,240.0,7.0,0.0
1915,57.0,60.0,60.0,6.0,0.0
1916,57.0,0.0,60.0,2.0,0.0
1917,58.0,53.0,60.0,2.0,0.0
1918,67.0,0.0,240.0,5.0,0.0
1919,67.0,7.0,240.0,1.0,0.0
1920,58.0,0.0,60.0,6.0,0.0
1921,62.0,0.0,60.0,6.0,0.0
1922,62.0,60.0,60.0,2.0,0.0
1923,55.0,53.0,60.0,2.0,0.0
1924,51.0,7.0,240.0,3.0,0.0
1925,55.0,0.0,60.0,6.0,0.0
1926,51.0,0.0,240.0,7.0,0.0
1927,58.0,0.0,60.0,2.0,0.0
1928,58.0,60.0,60.0,6.0,0.0
1929,57.0,0.0,60.0,6.0,0.0
1930,65.0,0.0,240.0,5.0,0.0
1931,57.0,53.0,60.0,2.0,0.0
1932,65.0,7.0,240.0,1.0,0.0
1933,60.0,0.0,60.0,6.0,0.0
1934,60.0,60.0,60.0,2.0,0.0
1935,53.0,0.0,60.0,2.0,0.0
1936,50.0,7.0,240.0,7.0,0.0
1937,50.0,0.0,240.0,3.0,0.0
1938,53.0,53.0,60.0,6.0,0.0
1939,57.0,60.0,60.0,6.0,0.0
1940,57.0,0.0,60.0,2.0,0.0
1941,63.0,7.0,240.0,5.0,0.0
1942,55.0,0.0,60.0,6.0,0.0
1943,63.0,0.0,240.0,1.0,0.0
1944,55.0,53.0,60.0,2.0,0.0
1945,58.0,60.0,60.0,6.0,0.0
1946,58.0,0.0,60.0,2.0,0.0
1947,51.0,53.0,60.0,6.0,0.0
1948,48.0,0.0,240.0,7.0,0.0
1949,48.0,7.0,240.0,3.0,0.0
1950,51.0,0.0,60.0,2.0,0.0
1951,55.0,60.0,60.0,6.0,0.0
1952,55.0,0.0,60.0,2.0,0.0
1953,62.0,0.0,240.0,1.0,0.0
1954,53.0,53.0,60.0,6.0,0.0
1955,62.0,7.0,240.0,5.0,0.0
1956,53.0,0.0,60.0,2.0,0.0
1957,57.0,60.0,60.0,2.0,0.0
1958,57.0,0.0,60.0,6.0,0.0
1959,50.0,0.0,60.0,2.0,0.0
1960,50.0,53.0,60.0,6.0,0.0
1961,46.0,7.0,240.0,3.0,0.0
1962,46.0,0.0,240.0,7.0,0.0
1963,53.0,60.0,60.0,6.0,0.0
1964,53.0,0.0,60.0,2.0,0.0
1965,51.0,53.0,60.0,2.0,0.0
1966,51.0,0.0,60.0,6.0,0.0
1967,60.0,7.0,360.0,5.0,0.0
1968,60.0,0.0,360.0,1.0,0.0
1969,55.0,0.0,60.0,6.0,0.0
1970,55.0,60.0,60.0,2.0,0.0
1971,45.0,0.0,120.0,7.0,0.0
1972,48.0,0.0,60.0,6.0,0.0
1973,48.0,53.0,60.0,2.0,0.0
1974,45.0,7.0,120.0,3.0,0.0
1975,51.0,0.0,60.0,2.0,0.0
1976,51.0,60.0,60.0,6.0,0.0
1977,46.0,0.0,120.0,7.0,0.0
1978,50.0,53.0,60.0,6.0,0.0
1979,46.0,0.0,120.0,3.0,0.0
1980,50.0,0.0,60.0,2.0,0.0
1981,53.0,0.0,60.0,6.0,0.0
1982,53.0,60.0,60.0,2.0,0.0
1983,58.0,0.0,240.0,5.0,0.0
1984,58.0,7.0,240.0,1.0,0.0
1985,43.0,0.0,120.0,3.0,0.0
1986,46.0,0.0,60.0,6.0,0.0
1987,43.0,7.0,120.0,7.0,0.0
1988,46.0,53.0,60.0,2.0,0.0
1989,50.0,60.0,60.0,2.0,0.0
1990,50.0,0.0,60.0,6.0,0.0
1991,48.0,53.0,60.0,2.0,0.0
1992,48.0,0.0,60.0,6.0,0.0
1993,39.0,0.0,120.0,3.0,0.0
1994,39.0,0.0,120.0,7.0,0.0
1995,51.0,0.0,60.0,6.0,0.0
1996,51.0,60.0,60.0,2.0,0.0
1997,48.0,0.0,60.0,2.0,0.0
1998,41.0,0.0,120.0,3.0,0.0
1999,41.0,7.0,120.0,7.0,0.0
2000,57.0,0.0,120.0,1.0,0.0
2001,48.0,53.0,60.0,6.0,0.0
2002,57.0,0.0,120.0,5.0,0.0
2003,51.0,60.0,60.0,6.0,0.0
2004,51.0,0.0,60.0,2.0,0.0
2005,34.0,0.0,120.0,3.0,0.0
2006,34.0,7.0,120.0,7.0,0.0
2007,50.0,53.0,60.0,2.0,0.0
2008,58.0,0.0,60.0,1.0,0.0
2009,58.0,0.0,60.0,5.0,0.0
2010,50.0,0.0,60.0,6.0,0.0
2011,60.0,0.0,60.0,1.0,0.0
2012,51.0,0.0,60.0,2.0,0.0
2013,60.0,0.0,60.0,5.0,0.0
2014,51.0,113.0,60.0,6.0,0.0
2015,62.0,0.0,120.0,5.0,0.0
2016,53.0,0.0,120.0,6.0,0.0
2017,70.0,0.0,240.0,4.0,0.0
2018,62.0,0.0,120.0,1.0,0.0
2019,53.0,7.0,120.0,2.0,0.0
2020,70.0,0.0,240.0,0.0,0.0
2021,50.0,0.0,60.0,3.0,0.0
2022,50.0,60.0,60.0,7.0,0.0
2023,60.0,0.0,240.0,5.0,0.0
2024,55.0,0.0,120.0,6.0,0.0
2025,55.0,7.0,120.0,2.0,0.0
2026,51.0,53.0,60.0,3.0,0.0
2027,60.0,7.0,240.0,1.0,0.0
2028,51.0,0.0,60.0,7.0,0.0
2029,55.0,0.0,60.0,3.0,0.0
2030,55.0,60.0,60.0,7.0,0.0
2031,51.0,0.0,120.0,6.0,0.0
2032,48.0,0.0,60.0,3.0,0.0
2033,51.0,0.0,120.0,2.0,0.0
2034,48.0,53.0,60.0,7.0,0.0
2035,68.0,7.0,240.0,4.0,0.0
2036,68.0,0.0,240.0,0.0,0.0
2037,51.0,0.0,60.0,7.0,0.0
2038,51.0,60.0,60.0,3.0,0.0
2039,53.0,0.0,120.0,2.0,0.0
2040,58.0,0.0,240.0,1.0,0.0
2041,50.0,0.0,60.0,3.0,0.0
2042,50.0,53.0,60.0,7.0,0.0
2043,53.0,0.0,120.0,6.0,0.0
2044,58.0,7.0,240.0,5.0,0.0
2045,46.0,0.0,60.0,3.0,0.0
2046,46.0,60.0,60.0,7.0,0.0
2047,67.0,0.0,120.0,4.0,0.0
2048,67.0,0.0,120.0,0.0,0.0
2049,51.0,53.0,60.0,7.0,0.0
2050,51.0,0.0,240.0,6.0,0.0
2051,51.0,7.0,240.0,2.0,0.0
2052,51.0,0.0,60.0,3.0,0.0
2053,43.0,60.0,60.0,7.0,0.0
2054,43.0,0.0,60.0,3.0,0.0
2055,60.0,0.0,120.0,1.0,0.0
2056,65.0,0.0,240.0,0.0,0.0
2057,44.0,0.0,60.0,3.0,0.0
2058,44.0,53.0,60.0,7.0,0.0
2059,65.0,0.0,240.0,4.0,0.0
2060,60.0,0.0,120.0,5.0,0.0
2061,41.0,0.0,60.0,3.0,0.0
2062,41.0,60.0,60.0,7.0,0.0
2063,58.0,0.0,60.0,5.0,0.0
2064,46.0,0.0,60.0,3.0,0.0
2065,50.0,0.0,120.0,2.0,0.0
2066,46.0,53.0,60.0,7.0,0.0
2067,58.0,0.0,60.0,1.0,0.0
2068,50.0,7.0,120.0,6.0,0.0
2069,34.0,0.0,60.0,3.0,0.0
2070,56.0,0.0,60.0,5.0,0.0
2071,34.0,60.0,60.0,7.0,0.0
2072,56.0,0.0,60.0,1.0,0.0
2073,51.0,0.0,120.0,6.0,0.0
2074,39.0,0.0,120.0,3.0,0.0
2075,63.0,0.0,60.0,4.0,0.0
2076,55.0,0.0,120.0,1.0,0.0
2077,63.0,53.0,60.0,0.0,0.0
2078,51.0,0.0,120.0,2.0,0.0
2079,39.0,7.0,120.0,7.0,0.0
2080,55.0,0.0,120.0,5.0,0.0
2081,58.0,0.0,60.0,0.0,0.0
2082,58.0,120.0,60.0,4.0,0.0
2083,63.0,53.0,900.0,0.0,0.0
2084,63.0,0.0,900.0,4.0,0.0
2085,58.0,0.0,60.0,5.0,0.0
2086,51.0,0.0,60.0,6.0,0.0
2087,51.0,60.0,60.0,2.0,0.0
2088,58.0,0.0,60.0,1.0,0.0
2089,60.0,0.0,60.0,5.0,0.0
2090,56.0,7.0,120.0,2.0,0.0
2091,56.0,0.0,120.0,6.0,0.0
2092,60.0,53.0,60.0,1.0,0.0
2093,61.0,60.0,60.0,5.0,0.0
2094,61.0,0.0,60.0,1.0,0.0
2095,55.0,7.0,120.0,6.0,0.0
2096,58.0,0.0,60.0,5.0,0.0
2097,58.0,53.0,60.0,1.0,0.0
2098,55.0,0.0,120.0,2.0,0.0
2099,61.0,60.0,60.0,5.0,0.0
2100,61.0,0.0,60.0,1.0,0.0
2101,60.0,53.0,60.0,1.0,0.0
2102,56.0,0.0,120.0,2.0,0.0
2103,56.0,7.0,120.0,6.0,0.0
2104,60.0,0.0,60.0,5.0,0.0
2105,61.0,0.0,60.0,5.0,0.0
2106,61.0,60.0,60.0,1.0,0.0
2107,55.0,0.0,120.0,6.0,0.0
2108,55.0,7.0,120.0,2.0,0.0
2109,58.0,0.0,60.0,5.0,0.0
2110,58.0,53.0,60.0,1.0,0.0
2111,61.0,0.0,60.0,1.0,0.0
2112,39.0,60.0,60.0,7.0,0.0
2113,39.0,0.0,60.0,3.0,0.0
2114,61.0,0.0,60.0,5.0,0.0
2115,60.0,0.0,60.0,1.0,0.0
2116,56.0,0.0,120.0,6.0,0.0
2117,44.0,0.0,120.0,7.0,0.0
2118,44.0,0.0,120.0,3.0,0.0
2119,60.0,53.0,60.0,5.0,0.0
2120,56.0,7.0,120.0,2.0,0.0
2121,61.0,60.0,60.0,5.0,0.0
2122,61.0,0.0,60.0,1.0,0.0
2123,51.0,0.0,120.0,6.0,0.0
2124,58.0,0.0,60.0,1.0,0.0
2125,43.0,7.0,120.0,3.0,0.0
2126,43.0,0.0,120.0,7.0,0.0
2127,58.0,53.0,60.0,5.0,0.0
2128,51.0,0.0,120.0,2.0,0.0
2129,61.0,60.0,60.0,5.0,0.0
2130,61.0,0.0,60.0,1.0,0.0
2131,56.0,0.0,120.0,6.0,0.0
2132,60.0,0.0,120.0,1.0,0.0
2133,60.0,0.0,120.0,5.0,0.0
2134,44.0,0.0,120.0,7.0,0.0
2135,56.0,7.0,120.0,2.0,0.0
2136,44.0,0.0,120.0,3.0,0.0
2137,60.0,0.0,60.0,0.0,0.0
2138,60.0,120.0,60.0,4.0,0.0
2139,65.0,53.0,900.0,0.0,0.0
2140,65.0,0.0,900.0,4.0,0.0
2141,60.0,0.0,60.0,1.0,0.0
2142,60.0,0.0,60.0,5.0,0.0
2143,53.0,0.0,60.0,6.0,0.0
2144,53.0,60.0,60.0,2.0,0.0
2145,62.0,53.0,60.0,5.0,0.0
2146,62.0,0.0,60.0,1.0,0.0
2147,58.0,7.0,120.0,2.0,0.0
2148,58.0,0.0,120.0,6.0,0.0
2149,63.0,60.0,60.0,1.0,0.0
2150,63.0,0.0,60.0,5.0,0.0
2151,57.0,0.0,120.0,6.0,0.0
2152,60.0,53.0,60.0,1.0,0.0
2153,60.0,0.0,60.0,5.0,0.0
2154,57.0,7.0,120.0,2.0,0.0
2155,63.0,60.0,60.0,1.0,0.0
2156,63.0,0.0,60.0,5.0,0.0
2157,58.0,7.0,120.0,6.0,0.0
2158,62.0,0.0,60.0,5.0,0.0
2159,58.0,0.0,120.0,2.0,0.0
2160,62.0,53.0,60.0,1.0,0.0
2161,63.0,0.0,60.0,1.0,0.0
2162,63.0,60.0,60.0,5.0,0.0
2163,60.0,0.0,60.0,1.0,0.0
2164,60.0,53.0,60.0,5.0,0.0
2165,57.0,0.0,120.0,2.0,0.0
2166,57.0,7.0,120.0,6.0,0.0
2167,63.0,0.0,60.0,5.0,0.0
2168,41.0,0.0,60.0,7.0,0.0
2169,63.0,0.0,60.0,1.0,0.0
2170,41.0,60.0,60.0,3.0,0.0
2171,58.0,0.0,120.0,6.0,0.0
2172,58.0,0.0,120.0,2.0,0.0
2173,62.0,0.0,60.0,1.0,0.0
2174,46.0,0.0,120.0,3.0,0.0
2175,46.0,7.0,120.0,7.0,0.0
2176,62.0,53.0,60.0,5.0,0.0
2177,63.0,0.0,60.0,1.0,0.0
2178,63.0,60.0,60.0,5.0,0.0
2179,45.0,7.0,120.0,7.0,0.0
2180,60.0,53.0,60.0,1.0,0.0
2181,60.0,0.0,60.0,5.0,0.0
2182,53.0,0.0,120.0,2.0,0.0
2183,45.0,0.0,120.0,3.0,0.0
2184,53.0,0.0,120.0,6.0,0.0
2185,63.0,0.0,60.0,1.0,0.0
2186,63.0,60.0,60.0,5.0,0.0
2187,58.0,0.0,120.0,2.0,0.0
2188,62.0,0.0,120.0,1.0,0.0
2189,62.0,7.0,120.0,5.0,0.0
2190,58.0,0.0,120.0,6.0,0.0
2191,46.0,0.0,120.0,7.0,0.0
2192,46.0,0.0,120.0,3.0,0.0
2193,65.0,0.0,60.0,0.0,0.0
2194,65.0,120.0,60.0,4.0,0.0
2195,70.0,0.0,900.0,4.0,0.0
2196,70.0,53.0,900.0,0.0,0.0
2197,58.0,0.0,60.0,6.0,0.0
2198,65.0,60.0,60.0,5.0,0.0
2199,65.0,0.0,60.0,1.0,0.0
2200,58.0,0.0,60.0,2.0,0.0
2201,67.0,0.0,60.0,1.0,0.0
2202,63.0,0.0,120.0,2.0,0.0
2203,67.0,53.0,60.0,5.0,0.0
2204,63.0,7.0,120.0,6.0,0.0
2205,68.0,60.0,60.0,1.0,0.0
2206,68.0,0.0,60.0,5.0,0.0
2207,62.0,0.0,120.0,6.0,0.0
2208,65.0,0.0,60.0,1.0,0.0
2209,62.0,7.0,120.0,2.0,0.0
2210,65.0,53.0,60.0,5.0,0.0
2211,68.0,60.0,60.0,5.0,0.0
2212,68.0,0.0,60.0,1.0,0.0
2213,63.0,0.0,120.0,6.0,0.0
2214,63.0,7.0,120.0,2.0,0.0
2215,67.0,53.0,60.0,5.0,0.0
2216,67.0,0.0,60.0,1.0,0.0
2217,68.0,60.0,60.0,5.0,0.0
2218,68.0,0.0,60.0,1.0,0.0
2219,65.0,0.0,60.0,5.0,0.0
2220,62.0,0.0,120.0,2.0,0.0
2221,62.0,7.0,120.0,6.0,0.0
2222,65.0,53.0,60.0,1.0,0.0
2223,68.0,0.0,60.0,5.0,0.0
2224,68.0,0.0,60.0,1.0,0.0
2225,46.0,60.0,60.0,3.0,0.0
2226,46.0,0.0,60.0,7.0,0.0
2227,51.0,7.0,120.0,7.0,0.0
2228,67.0,0.0,60.0,1.0,0.0
2229,63.0,0.0,120.0,2.0,0.0
2230,67.0,53.0,60.0,5.0,0.0
2231,51.0,0.0,120.0,3.0,0.0
2232,63.0,0.0,120.0,6.0,0.0
2233,68.0,60.0,60.0,1.0,0.0
2234,68.0,0.0,60.0,5.0,0.0
2235,50.0,0.0,120.0,7.0,0.0
2236,50.0,0.0,120.0,3.0,0.0
2237,65.0,0.0,60.0,5.0,0.0
2238,58.0,7.0,120.0,6.0,0.0
2239,65.0,53.0,60.0,1.0,0.0
2240,58.0,0.0,120.0,2.0,0.0
2241,68.0,60.0,60.0,5.0,0.0
2242,68.0,0.0,60.0,1.0,0.0
2243,63.0,0.0,120.0,6.0,0.0
2244,67.0,0.0,120.0,1.0,0.0
2245,51.0,0.0,120.0,3.0,0.0
2246,67.0,0.0,120.0,5.0,0.0
2247,51.0,7.0,120.0,7.0,0.0
2248,63.0,0.0,120.0,2.0,0.0
2249,70.0,0.0,60.0,4.0,0.0
2250,70.0,120.0,60.0,0.0,0.0
2251,75.0,53.0,780.0,4.0,0.0
2252,75.0,0.0,780.0,0.0,0.0
2253,70.0,0.0,60.0,5.0,0.0
2254,63.0,0.0,60.0,2.0,0.0
2255,63.0,60.0,60.0,6.0,0.0
2256,70.0,0.0,60.0,1.0,0.0
2257,68.0,0.0,120.0,2.0,0.0
2258,72.0,53.0,60.0,1.0,0.0
2259,68.0,7.0,120.0,6.0,0.0
2260,72.0,0.0,60.0,5.0,0.0
2261,73.0,0.0,60.0,5.0,0.0
2262,73.0,60.0,60.0,1.0,0.0
2263,67.0,0.0,120.0,6.0,0.0
2264,70.0,53.0,60.0,1.0,0.0
2265,70.0,0.0,60.0,5.0,0.0
2266,67.0,7.0,120.0,2.0,0.0
2267,73.0,60.0,60.0,5.0,0.0
2268,73.0,0.0,60.0,1.0,0.0
2269,68.0,7.0,120.0,2.0,0.0
2270,68.0,0.0,120.0,6.0,0.0
2271,72.0,0.0,60.0,1.0,0.0
2272,72.0,53.0,60.0,5.0,0.0
2273,73.0,60.0,60.0,1.0,0.0
2274,73.0,0.0,60.0,5.0,0.0
2275,70.0,0.0,60.0,5.0,0.0
2276,67.0,7.0,120.0,6.0,0.0
2277,67.0,0.0,120.0,2.0,0.0
2278,70.0,53.0,60.0,1.0,0.0
2279,51.0,0.0,60.0,3.0,0.0
2280,73.0,0.0,60.0,5.0,0.0
2281,51.0,0.0,60.0,7.0,0.0
2282,73.0,60.0,60.0,1.0,0.0
2283,56.0,0.0,120.0,7.0,0.0
2284,68.0,0.0,120.0,2.0,0.0
2285,72.0,0.0,60.0,5.0,0.0
2286,68.0,0.0,120.0,6.0,0.0
2287,72.0,53.0,60.0,1.0,0.0
2288,56.0,7.0,120.0,3.0,0.0
2289,73.0,60.0,60.0,5.0,0.0
2290,73.0,0.0,60.0,1.0,0.0
2291,55.0,7.0,120.0,3.0,0.0
2292,70.0,0.0,120.0,1.0,0.0
2293,70.0,0.0,120.0,5.0,0.0
2294,63.0,0.0,120.0,6.0,0.0
2295,55.0,0.0,120.0,7.0,0.0
2296,63.0,0.0,120.0,2.0,0.0
2297,73.0,0.0,60.0,4.0,0.0
2298,73.0,60.0,60.0,0.0,0.0
2299,56.0,0.0,120.0,7.0,0.0
2300,72.0,0.0,60.0,0.0,0.0
2301,68.0,7.0,120.0,1.0,0.0
2302,72.0,53.0,60.0,4.0,0.0
2303,63.0,0.0,120.0,6.0,0.0
2304,63.0,0.0,120.0,2.0,0.0
2305,56.0,0.0,120.0,3.0,0.0
2306,68.0,0.0,120.0,5.0,0.0
2307,75.0,60.0,60.0,4.0,0.0
2308,75.0,0.0,60.0,0.0,0.0
2309,68.0,60.0,60.0,0.0,0.0
2310,68.0,0.0,60.0,4.0,0.0
2311,72.0,0.0,60.0,4.0,0.0
2312,68.0,60.0,60.0,1.0,0.0
2313,72.0,0.0,60.0,0.0,0.0
2314,68.0,0.0,60.0,5.0,0.0
2315,63.0,0.0,60.0,2.0,0.0
2316,55.0,0.0,60.0,7.0,0.0
2317,63.0,0.0,60.0,6.0,0.0
2318,55.0,0.0,60.0,3.0,0.0
2319,53.0,0.0,240.0,7.0,0.0
2320,68.0,0.0,240.0,5.0,0.0
2321,65.0,7.0,120.0,6.0,0.0
2322,65.0,0.0,120.0,2.0,0.0
2323,73.0,53.0,60.0,4.0,0.0
2324,53.0,0.0,240.0,3.0,0.0
2325,73.0,0.0,60.0,0.0,0.0
2326,68.0,0.0,240.0,1.0,0.0
2327,75.0,0.0,60.0,0.0,0.0
2328,75.0,60.0,60.0,4.0,0.0
2329,72.0,0.0,60.0,0.0,0.0
2330,63.0,7.0,120.0,2.0,0.0
2331,72.0,53.0,60.0,4.0,0.0
2332,63.0,0.0,120.0,6.0,0.0
2333,73.0,60.0,60.0,0.0,0.0
2334,73.0,0.0,60.0,4.0,0.0
2335,62.0,0.0,120.0,6.0,0.0
2336,55.0,0.0,120.0,3.0,0.0
2337,67.0,0.0,120.0,1.0,0.0
2338,71.0,0.0,60.0,4.0,0.0
2339,62.0,0.0,120.0,2.0,0.0
2340,55.0,7.0,120.0,7.0,0.0
2341,67.0,0.0,120.0,5.0,0.0
2342,71.0,53.0,60.0,0.0,0.0
2343,74.0,0.0,60.0,0.0,0.0
2344,74.0,113.0,60.0,4.0,0.0
2345,67.0,7.0,120.0,0.0,0.0
2346,67.0,0.0,120.0,4.0,0.0
2347,62.0,0.0,60.0,1.0,0.0
2348,59.0,60.0,60.0,6.0,0.0
2349,62.0,0.0,60.0,5.0,0.0
2350,59.0,0.0,60.0,2.0,0.0
2351,60.0,0.0,120.0,2.0,0.0
2352,63.0,7.0,120.0,5.0,0.0
2353,63.0,0.0,120.0,1.0,0.0
2354,60.0,0.0,120.0,6.0,0.0
2355,68.0,53.0,60.0,4.0,0.0
2356,68.0,0.0,60.0,0.0,0.0
2357,70.0,60.0,60.0,4.0,0.0
2358,70.0,0.0,60.0,0.0,0.0
2359,62.0,0.0,120.0,5.0,0.0
2360,67.0,53.0,60.0,0.0,0.0
2361,59.0,7.0,120.0,6.0,0.0
2362,67.0,0.0,60.0,4.0,0.0
2363,62.0,0.0,120.0,1.0,0.0
2364,59.0,0.0,120.0,2.0,0.0
2365,70.0,0.0,60.0,0.0,0.0
2366,70.0,60.0,60.0,4.0,0.0
2367,60.0,0.0,120.0,2.0,0.0
2368,63.0,0.0,120.0,5.0,0.0
2369,63.0,7.0,120.0,1.0,0.0
2370,60.0,0.0,120.0,6.0,0.0
2371,68.0,53.0,60.0,4.0,0.0
2372,68.0,0.0,60.0,0.0,0.0
2373,70.0,0.0,60.0,0.0,0.0
2374,70.0,113.0,60.0,4.0,0.0
2375,67.0,0.0,120.0,4.0,0.0
2376,62.0,0.0,120.0,5.0,0.0
2377,59.0,0.0,120.0,2.0,0.0
2378,67.0,0.0,120.0,0.0,0.0
2379,62.0,0.0,120.0,1.0,0.0
2380,59.0,7.0,120.0,6.0,0.0
2381,55.0,0.0,60.0,7.0,0.0
2382,55.0,60.0,60.0,3.0,0.0
2383,60.0,7.0,120.0,5.0,0.0
2384,60.0,0.0,120.0,1.0,0.0
2385,60.0,0.0,120.0,6.0,0.0
2386,65.0,0.0,120.0,0.0,0.0
2387,56.0,0.0,60.0,7.0,0.0
2388,60.0,0.0,120.0,2.0,0.0
2389,65.0,0.0,120.0,4.0,0.0
2390,56.0,53.0,60.0,3.0,0.0
2391,58.0,0.0,60.0,3.0,0.0
2392,58.0,60.0,60.0,7.0,0.0
2393,55.0,0.0,120.0,2.0,0.0
2394,63.0,0.0,120.0,0.0,0.0
2395,55.0,53.0,60.0,3.0,0.0
2396,63.0,0.0,120.0,4.0,0.0
2397,58.0,0.0,120.0,1.0,0.0
2398,55.0,0.0,60.0,7.0,0.0
2399,58.0,0.0,120.0,5.0,0.0
2400,55.0,7.0,120.0,6.0,0.0
2401,58.0,0.0,60.0,3.0,0.0
2402,58.0,60.0,60.0,7.0,0.0
2403,53.0,53.0,60.0,3.0,0.0
2404,56.0,0.0,120.0,2.0,0.0
2405,62.0,0.0,120.0,4.0,0.0
2406,59.0,0.0,120.0,1.0,0.0
2407,53.0,0.0,60.0,7.0,0.0
2408,62.0,0.0,120.0,0.0,0.0
2409,56.0,7.0,120.0,6.0,0.0
2410,59.0,0.0,120.0,5.0,0.0
2411,56.0,60.0,60.0,3.0,0.0
2412,56.0,0.0,60.0,7.0,0.0
2413,51.0,53.0,60.0,3.0,0.0
2414,60.0,0.0,240.0,5.0,0.0
2415,60.0,0.0,240.0,1.0,0.0
2416,55.0,0.0,120.0,6.0,0.0
2417,55.0,0.0,120.0,2.0,0.0
2418,51.0,0.0,60.0,7.0,0.0
2419,63.0,7.0,120.0,0.0,0.0
2420,63.0,0.0,120.0,4.0,0.0
2421,55.0,0.0,60.0,3.0,0.0
2422,55.0,60.0,60.0,7.0,0.0
2423,53.0,53.0,60.0,7.0,0.0
2424,56.0,7.0,120.0,6.0,0.0
2425,62.0,7.0,240.0,4.0,0.0
2426,62.0,0.0,240.0,0.0,0.0
2427,53.0,0.0,60.0,3.0,0.0
2428,56.0,0.0,120.0,2.0,0.0
2429,56.0,60.0,60.0,3.0,0.0
2430,56.0,0.0,60.0,7.0,0.0
2431,43.0,0.0,60.0,7.0,0.0
2432,55.0,0.0,60.0,2.0,0.0
2433,55.0,0.0,60.0,6.0,0.0
2434,43.0,53.0,60.0,3.0,0.0
2435,59.0,0.0,120.0,5.0,0.0
2436,59.0,0.0,120.0,1.0,0.0
2437,53.0,0.0,60.0,6.0,0.0
2438,53.0,60.0,60.0,2.0,0.0
2439,55.0,0.0,60.0,7.0,0.0
2440,55.0,0.0,60.0,3.0,0.0
2441,55.0,0.0,120.0,1.0,0.0
2442,52.0,0.0,60.0,6.0,0.0
2443,55.0,0.0,120.0,5.0,0.0
2444,60.0,0.0,120.0,0.0,0.0
2445,48.0,0.0,120.0,3.0,0.0
2446,48.0,7.0,120.0,7.0,0.0
2447,60.0,0.0,120.0,4.0,0.0
2448,52.0,53.0,60.0,2.0,0.0
2449,55.0,120.0,60.0,6.0,0.0
2450,55.0,0.0,60.0,2.0,0.0
2451,60.0,7.0,960.0,2.0,0.0
2452,60.0,0.0,960.0,6.0,0.0
2453,72.0,0.0,60.0,4.0,0.0
2454,67.0,0.0,60.0,1.0,0.0
2455,52.0,60.0,60.0,3.0,0.0
2456,72.0,0.0,60.0,0.0,0.0
2457,52.0,0.0,60.0,7.0,0.0
2458,67.0,0.0,60.0,5.0,0.0
2459,65.0,0.0,120.0,1.0,0.0
2460,53.0,7.0,120.0,7.0,0.0
2461,65.0,0.0,120.0,5.0,0.0
2462,53.0,0.0,120.0,3.0,0.0
2463,69.0,0.0,60.0,0.0,0.0
2464,69.0,53.0,60.0,4.0,0.0
2465,70.0,60.0,60.0,0.0,0.0
2466,70.0,0.0,60.0,4.0,0.0
2467,67.0,0.0,60.0,0.0,0.0
2468,67.0,0.0,120.0,1.0,0.0
2469,52.0,7.0,120.0,7.0,0.0
2470,52.0,0.0,120.0,3.0,0.0
2471,67.0,0.0,120.0,5.0,0.0
2472,67.0,53.0,60.0,4.0,0.0
2473,70.0,0.0,60.0,4.0,0.0
2474,70.0,60.0,60.0,0.0,0.0
2475,65.0,0.0,120.0,1.0,0.0
2476,65.0,0.0,120.0,5.0,0.0
2477,53.0,7.0,120.0,3.0,0.0
2478,69.0,53.0,60.0,0.0,0.0
2479,53.0,0.0,120.0,7.0,0.0
2480,69.0,0.0,60.0,4.0,0.0
2481,70.0,0.0,60.0,4.0,0.0
2482,70.0,60.0,60.0,0.0,0.0
2483,67.0,0.0,60.0,4.0,0.0
2484,67.0,53.0,60.0,0.0,0.0
2485,64.0,0.0,120.0,5.0,0.0
2486,64.0,7.0,120.0,1.0,0.0
2487,70.0,0.0,60.0,4.0,0.0
2488,70.0,60.0,60.0,0.0,0.0
2489,65.0,7.0,120.0,1.0,0.0
2490,69.0,0.0,60.0,4.0,0.0
2491,69.0,53.0,60.0,0.0,0.0
2492,65.0,0.0,120.0,5.0,0.0
2493,70.0,60.0,60.0,0.0,0.0
2494,70.0,0.0,60.0,4.0,0.0
2495,48.0,0.0,120.0,7.0,0.0
2496,64.0,0.0,120.0,1.0,0.0
2497,64.0,7.0,120.0,5.0,0.0
2498,48.0,0.0,120.0,3.0,0.0
2499,67.0,0.0,60.0,0.0,0.0
2500,67.0,53.0,60.0,4.0,0.0
2501,70.0,0.0,60.0,4.0,0.0
2502,70.0,60.0,60.0,0.0,0.0
2503,65.0,0.0,120.0,1.0,0.0
2504,41.0,0.0,120.0,7.0,0.0
2505,65.0,0.0,120.0,5.0,0.0
2506,41.0,0.0,120.0,3.0,0.0
2507,69.0,0.0,60.0,0.0,0.0
2508,69.0,53.0,60.0,4.0,0.0
2509,65.0,0.0,60.0,0.0,0.0
2510,65.0,60.0,60.0,4.0,0.0
2511,62.0,7.0,240.0,2.0,0.0
2512,62.0,0.0,240.0,6.0,0.0
2513,70.0,0.0,60.0,4.0,0.0
2514,70.0,60.0,60.0,0.0,0.0
2515,65.0,60.0,60.0,0.0,0.0
2516,50.0,0.0,60.0,7.0,0.0
2517,50.0,0.0,60.0,3.0,0.0
2518,65.0,0.0,60.0,4.0,0.0
2519,51.0,0.0,240.0,7.0,0.0
2520,67.0,0.0,60.0,4.0,0.0
2521,67.0,53.0,60.0,0.0,0.0
2522,51.0,7.0,240.0,3.0,0.0
2523,70.0,0.0,60.0,4.0,0.0
2524,70.0,60.0,60.0,0.0,0.0
2525,60.0,0.0,240.0,6.0,0.0
2526,63.0,0.0,60.0,4.0,0.0
2527,63.0,53.0,60.0,0.0,0.0
2528,60.0,7.0,240.0,2.0,0.0
2529,67.0,0.0,60.0,4.0,0.0
2530,67.0,60.0,60.0,0.0,0.0
2531,65.0,0.0,60.0,0.0,0.0
2532,50.0,0.0,240.0,3.0,0.0
2533,65.0,53.0,60.0,4.0,0.0
2534,50.0,7.0,240.0,7.0,0.0
2535,69.0,60.0,60.0,0.0,0.0
2536,69.0,0.0,60.0,4.0,0.0
2537,62.0,0.0,60.0,0.0,0.0
2538,62.0,53.0,60.0,4.0,0.0
2539,58.0,7.0,240.0,6.0,0.0
2540,58.0,0.0,240.0,2.0,0.0
2541,65.0,0.0,60.0,4.0,0.0
2542,65.0,60.0,60.0,0.0,0.0
2543,48.0,0.0,240.0,7.0,0.0
2544,63.0,0.0,60.0,4.0,0.0
2545,48.0,0.0,240.0,3.0,0.0
2546,63.0,53.0,60.0,0.0,0.0
2547,67.0,60.0,60.0,4.0,0.0
2548,67.0,0.0,60.0,0.0,0.0
2549,60.0,53.0,60.0,0.0,0.0
2550,57.0,7.0,120.0,2.0,0.0
2551,60.0,0.0,60.0,4.0,0.0
2552,57.0,0.0,120.0,6.0,0.0
2553,63.0,60.0,60.0,4.0,0.0
2554,63.0,0.0,60.0,0.0,0.0
2555,58.0,7.0,120.0,2.0,0.0
2556,62.0,53.0,60.0,4.0,0.0
2557,46.0,0.0,120.0,3.0,0.0
2558,46.0,0.0,120.0,7.0,0.0
2559,62.0,0.0,60.0,0.0,0.0
2560,58.0,0.0,120.0,6.0,0.0
2561,65.0,0.0,60.0,4.0,0.0
2562,65.0,60.0,60.0,0.0,0.0
2563,58.0,0.0,60.0,0.0,0.0
2564,50.0,0.0,120.0,7.0,0.0
2565,50.0,7.0,120.0,3.0,0.0
2566,58.0,53.0,60.0,4.0,0.0
2567,74.0,0.0,60.0,4.0,0.0
2568,58.0,0.0,60.0,2.0,0.0
2569,58.0,60.0,60.0,6.0,0.0
2570,74.0,0.0,60.0,0.0,0.0
2571,58.0,0.0,60.0,6.0,0.0
2572,51.0,0.0,120.0,3.0,0.0
2573,51.0,7.0,120.0,7.0,0.0
2574,72.0,53.0,60.0,4.0,0.0
2575,72.0,0.0,60.0,0.0,0.0
2576,58.0,0.0,60.0,2.0,0.0
2577,75.0,0.0,60.0,4.0,0.0
2578,75.0,60.0,60.0,0.0,0.0
2579,58.0,0.0,60.0,2.0,0.0
2580,58.0,0.0,60.0,6.0,0.0
2581,53.0,7.0,120.0,3.0,0.0
2582,58.0,0.0,60.0,6.0,0.0
2583,74.0,0.0,60.0,0.0,0.0
2584,74.0,0.0,60.0,4.0,0.0
2585,58.0,53.0,60.0,2.0,0.0
2586,53.0,0.0,120.0,7.0,0.0
2587,58.0,0.0,60.0,2.0,0.0
2588,58.0,0.0,60.0,6.0,0.0
2589,77.0,0.0,60.0,4.0,0.0
2590,77.0,60.0,60.0,0.0,0.0
2591,75.0,0.0,60.0,4.0,0.0
2592,75.0,0.0,60.0,0.0,0.0
2593,58.0,0.0,60.0,6.0,0.0
2594,55.0,7.0,120.0,3.0,0.0
2595,55.0,0.0,120.0,7.0,0.0
2596,58.0,53.0,60.0,2.0,0.0
2597,58.0,0.0,60.0,6.0,0.0
2598,77.0,0.0,60.0,4.0,0.0
2599,77.0,0.0,60.0,0.0,0.0
2600,58.0,60.0,60.0,2.0,0.0
2601,74.0,0.0,60.0,4.0,0.0
2602,51.0,0.0,120.0,3.0,0.0
2603,51.0,7.0,120.0,7.0,0.0
2604,74.0,0.0,60.0,0.0,0.0
2605,58.0,0.0,60.0,2.0,0.0
2606,58.0,53.0,60.0,6.0,0.0
2607,58.0,60.0,60.0,6.0,0.0
2608,72.0,0.0,60.0,4.0,0.0
2609,72.0,0.0,60.0,0.0,0.0
2610,58.0,0.0,60.0,2.0,0.0
2611,74.0,0.0,120.0,4.0,0.0
2612,58.0,53.0,60.0,2.0,0.0
2613,74.0,7.0,120.0,0.0,0.0
2614,53.0,0.0,120.0,3.0,0.0
2615,53.0,0.0,120.0,7.0,0.0
2616,58.0,0.0,60.0,6.0,0.0
2617,58.0,0.0,60.0,6.0,0.0
2618,58.0,60.0,60.0,2.0,0.0
2619,57.0,0.0,60.0,6.0,0.0
2620,57.0,0.0,60.0,2.0,0.0
2621,72.0,0.0,60.0,4.0,0.0
2622,72.0,53.0,60.0,0.0,0.0
2623,41.0,7.0,120.0,7.0,0.0
2624,41.0,0.0,120.0,3.0,0.0
2625,70.0,0.0,60.0,0.0,0.0
2626,58.0,0.0,60.0,2.0,0.0
2627,70.0,60.0,60.0,4.0,0.0
2628,58.0,0.0,60.0,6.0,0.0
2629,58.0,0.0,120.0,6.0,0.0
2630,46.0,7.0,120.0,7.0,0.0
2631,70.0,0.0,60.0,0.0,0.0
2632,58.0,0.0,120.0,2.0,0.0
2633,46.0,0.0,120.0,3.0,0.0
2634,70.0,53.0,60.0,4.0,0.0
2635,65.0,113.0,60.0,0.0,0.0
2636,65.0,0.0,60.0,4.0,0.0
2637,46.0,0.0,240.0,3.0,0.0
2638,46.0,0.0,240.0,7.0,0.0
2639,53.0,7.0,120.0,6.0,0.0
2640,53.0,0.0,120.0,2.0,0.0
2641,74.0,0.0,120.0,0.0,0.0
2642,74.0,0.0,120.0,4.0,0.0
2643,65.0,60.0,60.0,5.0,0.0
2644,65.0,0.0,60.0,1.0,0.0
2645,72.0,0.0,240.0,0.0,0.0
2646,63.0,53.0,60.0,1.0,0.0
2647,63.0,0.0,60.0,5.0,0.0
2648,55.0,0.0,120.0,6.0,0.0
2649,72.0,0.0,240.0,4.0,0.0
2650,55.0,7.0,120.0,2.0,0.0
2651,67.0,60.0,60.0,1.0,0.0
2652,67.0,0.0,60.0,5.0,0.0
2653,60.0,0.0,60.0,5.0,0.0
2654,57.0,7.0,120.0,6.0,0.0
2655,45.0,0.0,240.0,7.0,0.0
2656,57.0,0.0,120.0,2.0,0.0
2657,60.0,53.0,60.0,1.0,0.0
2658,45.0,7.0,240.0,3.0,0.0
2659,63.0,60.0,60.0,5.0,0.0
2660,63.0,0.0,60.0,1.0,0.0
2661,62.0,53.0,60.0,1.0,0.0
2662,53.0,0.0,120.0,6.0,0.0
2663,70.0,0.0,240.0,4.0,0.0
2664,62.0,0.0,60.0,5.0,0.0
2665,53.0,0.0,120.0,2.0,0.0
2666,70.0,7.0,240.0,0.0,0.0
2667,65.0,0.0,60.0,1.0,0.0
2668,65.0,60.0,60.0,5.0,0.0
2669,43.0,0.0,240.0,7.0,0.0
2670,55.0,0.0,120.0,6.0,0.0
2671,55.0,0.0,120.0,2.0,0.0
2672,58.0,53.0,60.0,1.0,0.0
2673,43.0,0.0,240.0,3.0,0.0
2674,58.0,0.0,60.0,5.0,0.0
2675,62.0,60.0,60.0,5.0,0.0
2676,62.0,0.0,60.0,1.0,0.0
2677,60.0,0.0,60.0,5.0,0.0
2678,51.0,7.0,120.0,2.0,0.0
2679,60.0,53.0,60.0,1.0,0.0
2680,69.0,0.0,240.0,0.0,0.0
2681,69.0,0.0,240.0,4.0,0.0
2682,51.0,0.0,120.0,6.0,0.0
2683,63.0,0.0,60.0,5.0,0.0
2684,63.0,60.0,60.0,1.0,0.0
2685,53.0,7.0,120.0,6.0,0.0
2686,41.0,0.0,240.0,7.0,0.0
2687,57.0,0.0,60.0,1.0,0.0
2688,53.0,0.0,120.0,2.0,0.0
2689,41.0,0.0,240.0,3.0,0.0
2690,57.0,53.0,60.0,5.0,0.0
2691,60.0,0.0,60.0,1.0,0.0
2692,60.0,60.0,60.0,5.0,0.0
2693,50.0,0.0,120.0,2.0,0.0
2694,50.0,7.0,120.0,6.0,0.0
2695,58.0,0.0,60.0,5.0,0.0
2696,58.0,53.0,60.0,1.0,0.0
2697,67.0,0.0,240.0,4.0,0.0
2698,67.0,0.0,240.0,0.0,0.0
2699,62.0,0.0,60.0,5.0,0.0
2700,62.0,60.0,60.0,1.0,0.0
2701,51.0,7.0,120.0,6.0,0.0
2702,39.0,0.0,240.0,3.0,0.0
2703,51.0,0.0,120.0,2.0,0.0
2704,39.0,7.0,240.0,7.0,0.0
2705,55.0,53.0,60.0,5.0,0.0
2706,55.0,0.0,60.0,1.0,0.0
2707,58.0,0.0,60.0,1.0,0.0
2708,58.0,60.0,60.0,5.0,0.0
2709,57.0,53.0,60.0,1.0,0.0
2710,48.0,0.0,120.0,2.0,0.0
2711,65.0,0.0,240.0,4.0,0.0
2712,65.0,7.0,240.0,0.0,0.0
2713,48.0,0.0,120.0,6.0,0.0
2714,57.0,0.0,60.0,5.0,0.0
2715,60.0,0.0,60.0,5.0,0.0
2716,60.0,60.0,60.0,1.0,0.0
2717,50.0,0.0,120.0,6.0,0.0
2718,53.0,0.0,60.0,5.0,0.0
2719,50.0,0.0,120.0,2.0,0.0
2720,53.0,53.0,60.0,1.0,0.0
2721,38.0,0.0,240.0,7.0,0.0
2722,38.0,7.0,240.0,3.0,0.0
2723,57.0,0.0,60.0,5.0,0.0
2724,57.0,60.0,60.0,1.0,0.0
2725,46.0,0.0,120.0,6.0,0.0
2726,55.0,53.0,60.0,5.0,0.0
2727,63.0,0.0,360.0,0.0,0.0
2728,46.0,0.0,120.0,2.0,0.0
2729,63.0,7.0,360.0,4.0,0.0
2730,55.0,0.0,60.0,1.0,0.0
2731,58.0,0.0,60.0,1.0,0.0
2732,58.0,60.0,60.0,5.0,0.0
2733,36.0,0.0,120.0,3.0,0.0
2734,48.0,0.0,120.0,6.0,0.0
2735,48.0,7.0,120.0,2.0,0.0
2736,36.0,0.0,120.0,7.0,0.0
2737,51.0,53.0,60.0,1.0,0.0
2738,51.0,0.0,60.0,5.0,0.0
2739,55.0,0.0,60.0,5.0,0.0
2740,55.0,60.0,60.0,1.0,0.0
2741,53.0,0.0,60.0,5.0,0.0
2742,38.0,0.0,240.0,7.0,0.0
2743,53.0,53.0,60.0,1.0,0.0
2744,38.0,7.0,240.0,3.0,0.0
2745,45.0,0.0,120.0,6.0,0.0
2746,45.0,0.0,120.0,2.0,0.0
2747,57.0,0.0,60.0,1.0,0.0
2748,57.0,60.0,60.0,5.0,0.0
2749,50.0,53.0,60.0,1.0,0.0
2750,46.0,0.0,240.0,6.0,0.0
2751,46.0,0.0,240.0,2.0,0.0
2752,62.0,0.0,120.0,0.0,0.0
2753,62.0,0.0,120.0,4.0,0.0
2754,50.0,0.0,60.0,5.0,0.0
2755,53.0,60.0,60.0,1.0,0.0
2756,53.0,0.0,60.0,5.0,0.0
2757,51.0,53.0,60.0,1.0,0.0
2758,51.0,0.0,60.0,5.0,0.0
2759,60.0,0.0,240.0,4.0,0.0
2760,39.0,0.0,120.0,3.0,0.0
2761,39.0,7.0,120.0,7.0,0.0
2762,60.0,0.0,240.0,0.0,0.0
2763,55.0,60.0,60.0,5.0,0.0
2764,55.0,0.0,60.0,1.0,0.0
2765,48.0,0.0,60.0,1.0,0.0
2766,41.0,0.0,120.0,3.0,0.0
2767,45.0,0.0,120.0,2.0,0.0
2768,48.0,53.0,60.0,5.0,0.0
2769,45.0,0.0,120.0,6.0,0.0
2770,41.0,7.0,120.0,7.0,0.0
2771,51.0,0.0,60.0,1.0,0.0
2772,51.0,113.0,60.0,5.0,0.0
2773,50.0,0.0,120.0,1.0,0.0
2774,50.0,60.0,120.0,5.0,0.0
2775,46.0,0.0,120.0,2.0,0.0
2776,46.0,0.0,120.0,6.0,0.0
2777,43.0,0.0,120.0,3.0,0.0
2778,43.0,0.0,120.0,7.0,0.0
2779,58.0,0.0,120.0,4.0,0.0
2780,58.0,60.0,120.0,0.0,0.0
2781,50.0,0.0,120.0,2.0,0.0
2782,50.0,7.0,120.0,6.0,0.0
2783,38.0,0.0,120.0,3.0,0.0
2784,38.0,0.0,120.0,7.0,0.0
2785,53.0,0.0,120.0,1.0,0.0
2786,53.0,0.0,120.0,5.0,0.0
2787,58.0,113.0,60.0,4.0,0.0
2788,58.0,0.0,60.0,0.0,0.0
2789,39.0,0.0,120.0,7.0,0.0
2790,48.0,0.0,120.0,6.0,0.0
2791,48.0,0.0,120.0,2.0,0.0
2792,39.0,0.0,120.0,3.0,0.0
2793,55.0,60.0,120.0,1.0,0.0
2794,55.0,0.0,120.0,5.0,0.0
2795,58.0,0.0,120.0,4.0,0.0
2796,58.0,60.0,120.0,0.0,0.0
2797,53.0,0.0,120.0,5.0,0.0
2798,41.0,7.0,120.0,7.0,0.0
2799,41.0,0.0,120.0,3.0,0.0
2800,48.0,0.0,120.0,2.0,0.0
2801,53.0,0.0,120.0,1.0,0.0
2802,48.0,0.0,120.0,6.0,0.0
2803,57.0,0.0,60.0,4.0,0.0
2804,57.0,60.0,60.0,0.0,0.0
2805,50.0,0.0,120.0,5.0,0.0
2806,43.0,0.0,120.0,7.0,0.0
2807,46.0,0.0,120.0,6.0,0.0
2808,43.0,0.0,120.0,3.0,0.0
2809,46.0,60.0,120.0,2.0,0.0
2810,58.0,0.0,60.0,0.0,0.0
2811,50.0,0.0,120.0,1.0,0.0
2812,58.0,53.0,60.0,4.0,0.0
2813,70.0,60.0,120.0,0.0,0.0
2814,70.0,0.0,120.0,4.0,0.0
2815,62.0,0.0,120.0,1.0,0.0
2816,62.0,0.0,120.0,5.0,0.0
2817,50.0,0.0,120.0,2.0,0.0
2818,50.0,7.0,120.0,6.0,0.0
2819,70.0,0.0,60.0,4.0,0.0
2820,70.0,113.0,60.0,0.0,0.0
2821,60.0,0.0,120.0,5.0,0.0
2822,51.0,60.0,120.0,2.0,0.0
2823,60.0,0.0,120.0,1.0,0.0
2824,51.0,0.0,120.0,6.0,0.0
2825,70.0,60.0,120.0,4.0,0.0
2826,70.0,0.0,120.0,0.0,0.0
2827,60.0,7.0,120.0,1.0,0.0
2828,53.0,0.0,120.0,6.0,0.0
2829,53.0,0.0,120.0,2.0,0.0
2830,60.0,0.0,120.0,5.0,0.0
2831,69.0,0.0,60.0,4.0,0.0
2832,69.0,113.0,60.0,0.0,0.0
2833,55.0,60.0,120.0,6.0,0.0
2834,58.0,0.0,120.0,1.0,0.0
2835,58.0,0.0,120.0,5.0,0.0
2836,55.0,0.0,120.0,2.0,0.0
2837,70.0,60.0,120.0,0.0,0.0
2838,70.0,0.0,120.0,4.0,0.0
2839,53.0,0.0,120.0,2.0,0.0
2840,62.0,0.0,120.0,5.0,0.0
2841,62.0,0.0,120.0,1.0,0.0
2842,38.0,7.0,120.0,3.0,0.0
2843,38.0,0.0,120.0,7.0,0.0
2844,53.0,0.0,120.0,6.0,0.0
2845,70.0,0.0,60.0,4.0,0.0
2846,70.0,113.0,60.0,0.0,0.0
2847,39.0,0.0,120.0,3.0,0.0
2848,55.0,0.0,120.0,2.0,0.0
2849,39.0,60.0,120.0,7.0,0.0
2850,60.0,0.0,120.0,1.0,0.0
2851,60.0,0.0,120.0,5.0,0.0
2852,55.0,0.0,120.0,6.0,0.0
2853,70.0,60.0,120.0,4.0,0.0
2854,70.0,0.0,120.0,0.0,0.0
2855,41.0,0.0,120.0,3.0,0.0
2856,60.0,7.0,120.0,5.0,0.0
2857,53.0,0.0,120.0,6.0,0.0
2858,53.0,0.0,120.0,2.0,0.0
2859,41.0,0.0,120.0,7.0,0.0
2860,60.0,0.0,120.0,1.0,0.0
2861,69.0,0.0,60.0,0.0,0.0
2862,69.0,105.0,60.0,4.0,0.0
2863,68.0,0.0,120.0,3.0,0.0
2864,62.0,0.0,240.0,4.0,0.0
2865,53.0,8.0,120.0,5.0,0.0
2866,35.0,7.0,240.0,7.0,0.0
2867,53.0,0.0,120.0,2.0,0.0
2868,68.0,59.0,120.0,0.0,0.0
2869,62.0,112.0,240.0,1.0,0.0
2870,67.0,0.0,60.0,3.0,0.0
2871,51.0,53.0,60.0,5.0,0.0
2872,65.0,0.0,60.0,3.0,0.0
2873,50.0,1.0,60.0,5.0,0.0
2874,55.0,0.0,120.0,4.0,0.0
2875,48.0,28.0,120.0,5.0,0.0
2876,36.0,0.0,120.0,7.0,0.0
2877,63.0,0.0,120.0,3.0,0.0
2878,60.0,15.0,15.0,3.0,0.0
2879,62.0,15.0,15.0,3.0,0.0
2880,63.0,15.0,15.0,3.0,0.0
2881,65.0,15.0,15.0,3.0,0.0
2882,67.0,15.0,15.0,3.0,0.0
2883,68.0,15.0,15.0,3.0,0.0
2884,70.0,15.0,15.0,3.0,0.0
2885,72.0,107.0,15.0,3.0,0.0
2886,67.0,7.0,360.0,4.0,0.0
2887,52.0,7.0,240.0,7.0,0.0
2888,58.0,0.0,120.0,5.0,0.0
2889,73.0,67.0,120.0,3.0,0.0
2890,72.0,0.0,60.0,3.0,0.0
2891,56.0,53.0,60.0,5.0,0.0
2892,55.0,0.0,60.0,5.0,0.0
2893,70.0,60.0,60.0,3.0,0.0
2894,53.0,0.0,120.0,7.0,0.0
2895,60.0,53.0,60.0,5.0,0.0
2896,68.0,0.0,240.0,3.0,0.0
2897,58.0,60.0,60.0,5.0,0.0
2898,56.0,0.0,60.0,5.0,0.0
2899,65.0,53.0,60.0,4.0,0.0
2900,41.0,7.0,120.0,7.0,0.0
2901,63.0,70.0,60.0,4.0,0.0
2902,60.0,0.0,60.0,5.0,0.0
2903,58.0,0.0,60.0,5.0,0.0
2904,66.0,69.0,60.0,3.0,0.0
2905,61.0,0.0,60.0,4.0,0.0
2906,46.0,0.0,60.0,7.0,0.0
2907,61.0,15.0,15.0,3.0,0.0
2908,63.0,15.0,15.0,3.0,0.0
2909,65.0,15.0,15.0,3.0,0.0
2910,66.0,15.0,15.0,3.0,0.0
2911,68.0,15.0,15.0,3.0,0.0
2912,70.0,15.0,15.0,3.0,0.0
2913,71.0,15.0,15.0,3.0,0.0
2914,73.0,15.0,15.0,3.0,0.0
2915,75.0,15.0,15.0,3.0,0.0
2916,77.0,15.0,15.0,3.0,0.0
2917,78.0,107.0,15.0,3.0,0.0
2918,60.0,67.0,360.0,4.0,0.0
2919,55.0,0.0,120.0,5.0,0.0
2920,46.0,0.0,120.0,6.0,0.0
2921,64.0,67.0,120.0,3.0,0.0
2922,53.0,0.0,240.0,5.0,0.0
2923,44.0,34.0,60.0,6.0,0.0
2924,65.0,0.0,240.0,3.0,0.0
2925,43.0,30.0,30.0,6.0,0.0
2926,41.0,109.0,30.0,6.0,0.0
2927,50.0,0.0,360.0,6.0,0.0
2928,55.0,0.0,480.0,5.0,0.0
2929,43.0,7.0,120.0,7.0,0.0
2930,59.0,67.0,240.0,4.0,0.0
2931,64.0,53.0,60.0,3.0,0.0
2932,62.0,113.0,60.0,3.0,0.0
2933,36.0,0.0,360.0,7.0,0.0
2934,64.0,93.0,360.0,3.0,0.0
2935,60.0,0.0,60.0,4.0,0.0
2936,48.0,60.0,60.0,6.0,0.0
2937,62.0,113.0,60.0,4.0,0.0
2938,47.0,0.0,60.0,6.0,0.0
2939,48.0,0.0,120.0,6.0,0.0
2940,60.0,0.0,120.0,4.0,0.0
2941,49.0,0.0,120.0,6.0,0.0
2942,34.0,0.0,120.0,7.0,0.0
2943,64.0,27.0,90.0,3.0,0.0
2944,55.0,11.0,120.0,5.0,0.0
2945,55.0,0.0,120.0,4.0,0.0
2946,64.0,56.0,30.0,3.0,0.0
2947,32.0,53.0,60.0,7.0,0.0
2948,65.0,53.0,540.0,3.0,0.0
2949,60.0,60.0,840.0,4.0,0.0
2950,56.0,0.0,540.0,5.0,0.0
2951,48.0,7.0,120.0,6.0,0.0
2952,44.0,60.0,60.0,7.0,0.0
2953,43.0,60.0,60.0,7.0,0.0
2954,41.0,120.0,60.0,7.0,0.0
2955,48.0,0.0,600.0,7.0,0.0
2956,56.0,60.0,60.0,6.0,0.0
2957,55.0,60.0,60.0,6.0,0.0
2958,53.0,60.0,60.0,6.0,0.0
2959,52.0,7.0,120.0,6.0,0.0
2960,60.0,60.0,60.0,5.0,0.0
2961,68.0,0.0,60.0,3.0,0.0
2962,67.0,0.0,60.0,3.0,0.0
2963,53.0,7.0,120.0,6.0,0.0
2964,58.0,53.0,60.0,5.0,0.0
2965,65.0,113.0,60.0,3.0,0.0
2966,56.0,0.0,60.0,5.0,0.0
2967,64.0,60.0,180.0,3.0,0.0
2968,55.0,0.0,240.0,5.0,0.0
2969,55.0,0.0,240.0,6.0,0.0
2970,46.0,7.0,120.0,7.0,0.0
2971,62.0,0.0,120.0,4.0,0.0
2972,64.0,113.0,60.0,3.0,0.0
2973,57.0,11.0,360.0,6.0,0.0
2974,66.0,0.0,120.0,3.0,0.0
2975,45.0,0.0,240.0,7.0,0.0
2976,60.0,7.0,240.0,5.0,0.0
2977,63.0,67.0,120.0,4.0,0.0
2978,65.0,53.0,60.0,4.0,0.0
2979,72.0,34.0,120.0,3.0,0.0
2980,63.0,60.0,60.0,4.0,0.0
2981,37.0,11.0,240.0,7.0,0.0
2982,53.0,34.0,300.0,5.0,0.0
2983,61.0,0.0,240.0,4.0,0.0
2984,73.0,19.0,30.0,3.0,0.0
2985,72.0,56.0,30.0,3.0,0.0
2986,58.0,0.0,360.0,6.0,0.0
2987,70.0,34.0,60.0,3.0,0.0
2988,77.0,19.0,30.0,3.0,0.0
2989,65.0,56.0,30.0,3.0,0.0
2990,66.0,11.0,120.0,3.0,0.0
2991,58.0,26.0,180.0,4.0,0.0
2992,39.0,11.0,240.0,7.0,0.0
2993,51.0,19.0,30.0,5.0,0.0
2994,50.0,60.0,30.0,5.0,0.0
2995,51.0,26.0,120.0,5.0,0.0
2996,75.0,4.0,30.0,3.0,0.0
2997,78.0,19.0,30.0,3.0,0.0
2998,75.0,4.0,30.0,3.0,0.0
2999,71.0,30.0,30.0,3.0,0.0
3000,73.0,30.0,30.0,3.0,0.0
3001,75.0,30.0,30.0,3.0,0.0
3002,70.0,30.0,30.0,3.0,0.0
3003,71.0,30.0,30.0,3.0,0.0
3004,66.0,30.0,30.0,3.0,0.0
3005,63.0,30.0,30.0,3.0,0.0
3006,59.0,116.0,30.0,3.0,0.0
3007,41.0,2.0,480.0,7.0,0.0
3008,29.0,4.0,480.0,7.0,0.0
3009,69.0,0.0,60.0,3.0,0.0
3010,61.0,0.0,60.0,5.0,0.0
3011,65.0,60.0,60.0,4.0,0.0
3012,70.0,7.0,240.0,3.0,0.0
3013,63.0,0.0,60.0,4.0,0.0
3014,60.0,60.0,60.0,5.0,0.0
3015,58.0,0.0,60.0,5.0,0.0
3016,61.0,113.0,60.0,4.0,0.0
3017,63.0,0.0,120.0,4.0,0.0
3018,60.0,0.0,240.0,5.0,0.0
3019,54.0,60.0,60.0,6.0,0.0
3020,53.0,51.0,60.0,6.0,0.0
3021,65.0,3.0,120.0,4.0,0.0
3022,69.0,0.0,120.0,3.0,0.0
3023,51.0,60.0,60.0,6.0,0.0
3024,70.0,26.0,180.0,3.0,0.0
3025,34.0,0.0,240.0,7.0,0.0
3026,66.0,30.0,150.0,4.0,0.0
3027,50.0,60.0,60.0,6.0,0.0
3028,58.0,11.0,120.0,5.0,0.0
3029,22.0,10.0,240.0,7.0,0.0
3030,46.0,23.0,60.0,6.0,0.0
3031,51.0,3.0,120.0,6.0,0.0
3032,65.0,4.0,30.0,4.0,0.0
3033,63.0,17.0,30.0,4.0,0.0
3034,65.0,2.0,15.0,4.0,0.0
3035,66.0,107.0,15.0,4.0,0.0
3036,48.0,0.0,180.0,6.0,0.0
3037,51.0,0.0,180.0,5.0,0.0
3038,54.0,60.0,120.0,4.0,0.0
3039,57.0,60.0,180.0,3.0,0.0
3040,53.0,7.0,120.0,4.0,0.0
3041,48.0,118.0,60.0,6.0,0.0
3042,51.0,62.0,180.0,5.0,0.0
3043,57.0,0.0,60.0,3.0,0.0
3044,46.0,0.0,480.0,6.0,0.0
3045,46.0,3.0,480.0,7.0,0.0
3046,53.0,0.0,480.0,4.0,0.0
3047,58.0,0.0,480.0,3.0,0.0
3048,22.0,353.0,480.0,7.0,0.0
3049,50.0,63.0,60.0,5.0,0.0
3050,48.0,230.0,60.0,5.0,0.0
3051,50.0,0.0,240.0,5.0,0.0
3052,58.0,30.0,30.0,7.0,0.0
3053,70.0,0.0,30.0,8.0,0.0
3054,58.0,0.0,30.0,2.0,0.0
3055,72.0,0.0,30.0,8.0,0.0
3056,60.0,0.0,30.0,2.0,0.0
3057,60.0,30.0,30.0,7.0,0.0
3058,62.0,0.0,30.0,7.0,0.0
3059,62.0,0.0,30.0,2.0,0.0
3060,74.0,30.0,30.0,8.0,0.0
3061,72.0,0.0,30.0,8.0,0.0
3062,60.0,30.0,30.0,2.0,0.0
3063,60.0,0.0,30.0,7.0,0.0
3064,70.0,0.0,30.0,8.0,0.0
3065,58.0,0.0,30.0,2.0,0.0
3066,58.0,30.0,30.0,7.0,0.0
3067,60.0,0.0,30.0,7.0,0.0
3068,72.0,0.0,30.0,8.0,0.0
3069,60.0,30.0,30.0,2.0,0.0
3070,62.0,0.0,30.0,2.0,0.0
3071,74.0,30.0,30.0,8.0,0.0
3072,62.0,0.0,30.0,7.0,0.0
3073,72.0,30.0,30.0,8.0,0.0
3074,60.0,0.0,30.0,2.0,0.0
3075,60.0,0.0,30.0,7.0,0.0
3076,58.0,0.0,30.0,7.0,0.0
3077,70.0,30.0,30.0,8.0,0.0
3078,58.0,0.0,30.0,2.0,0.0
3079,60.0,0.0,30.0,7.0,0.0
3080,60.0,0.0,30.0,2.0,0.0
3081,72.0,30.0,30.0,8.0,0.0
3082,74.0,30.0,30.0,8.0,0.0
3083,62.0,0.0,30.0,7.0,0.0
3084,62.0,0.0,30.0,2.0,0.0
3085,72.0,0.0,30.0,8.0,0.0
3086,60.0,0.0,30.0,7.0,0.0
3087,60.0,30.0,30.0,2.0,0.0
3088,70.0,30.0,30.0,8.0,0.0
3089,58.0,0.0,30.0,2.0,0.0
3090,58.0,0.0,30.0,7.0,0.0
3091,72.0,0.0,30.0,8.0,0.0
3092,60.0,30.0,30.0,2.0,0.0
3093,60.0,0.0,30.0,7.0,0.0
3094,74.0,0.0,30.0,8.0,0.0
3095,62.0,30.0,30.0,2.0,0.0
3096,62.0,0.0,30.0,7.0,0.0
3097,60.0,0.0,30.0,7.0,0.0
3098,60.0,56.0,30.0,2.0,0.0
3099,72.0,0.0,30.0,8.0,0.0
3100,58.0,0.0,60.0,2.0,0.0
3101,70.0,0.0,60.0,8.0,0.0
3102,58.0,334.0,60.0,7.0,0.0
3103,67.0,0.0,30.0,2.0,0.0
3104,79.0,30.0,30.0,8.0,0.0
3105,67.0,0.0,30.0,7.0,0.0
3106,65.0,30.0,30.0,7.0,0.0
3107,77.0,0.0,30.0,8.0,0.0
3108,65.0,0.0,30.0,2.0,0.0
3109,67.0,0.0,30.0,7.0,0.0
3110,79.0,0.0,30.0,8.0,0.0
3111,67.0,30.0,30.0,2.0,0.0
3112,62.0,30.0,30.0,7.0,0.0
3113,74.0,0.0,30.0,8.0,0.0
3114,62.0,0.0,30.0,2.0,0.0
3115,75.0,0.0,30.0,8.0,0.0
3116,63.0,30.0,30.0,2.0,0.0
3117,63.0,0.0,30.0,7.0,0.0
3118,62.0,0.0,30.0,2.0,0.0
3119,74.0,0.0,30.0,8.0,0.0
3120,62.0,30.0,30.0,7.0,0.0
3121,63.0,30.0,30.0,7.0,0.0
3122,63.0,0.0,30.0,2.0,0.0
3123,75.0,0.0,30.0,8.0,0.0
3124,72.0,0.0,30.0,8.0,0.0
3125,60.0,0.0,30.0,2.0,0.0
3126,60.0,30.0,30.0,7.0,0.0
3127,65.0,30.0,30.0,2.0,0.0
3128,77.0,0.0,30.0,8.0,0.0
3129,65.0,0.0,30.0,7.0,0.0
3130,63.0,0.0,30.0,7.0,0.0
3131,63.0,0.0,30.0,2.0,0.0
3132,75.0,30.0,30.0,8.0,0.0
3133,77.0,0.0,30.0,8.0,0.0
3134,65.0,0.0,30.0,2.0,0.0
3135,65.0,30.0,30.0,7.0,0.0
3136,60.0,30.0,30.0,2.0,0.0
3137,60.0,0.0,30.0,7.0,0.0
3138,72.0,0.0,30.0,8.0,0.0
3139,74.0,0.0,30.0,8.0,0.0
3140,62.0,0.0,30.0,2.0,0.0
3141,62.0,30.0,30.0,7.0,0.0
3142,72.0,0.0,30.0,8.0,0.0
3143,60.0,0.0,30.0,7.0,0.0
3144,60.0,30.0,30.0,2.0,0.0
3145,62.0,0.0,30.0,7.0,0.0
3146,62.0,30.0,30.0,2.0,0.0
3147,74.0,0.0,30.0,8.0,0.0
3148,58.0,0.0,30.0,2.0,0.0
3149,58.0,0.0,30.0,7.0,0.0
3150,70.0,30.0,30.0,8.0,0.0
3151,63.0,0.0,30.0,7.0,0.0
3152,75.0,30.0,30.0,8.0,0.0
3153,63.0,0.0,30.0,2.0,0.0
3154,62.0,0.0,30.0,2.0,0.0
3155,62.0,0.0,30.0,7.0,0.0
3156,74.0,30.0,30.0,8.0,0.0
3157,63.0,0.0,30.0,7.0,0.0
3158,63.0,30.0,30.0,2.0,0.0
3159,75.0,0.0,30.0,8.0,0.0
3160,70.0,30.0,30.0,8.0,0.0
3161,58.0,0.0,30.0,7.0,0.0
3162,58.0,0.0,30.0,2.0,0.0
3163,72.0,0.0,30.0,8.0,0.0
3164,60.0,30.0,30.0,7.0,0.0
3165,60.0,0.0,30.0,2.0,0.0
3166,70.0,30.0,30.0,8.0,0.0
3167,58.0,0.0,30.0,2.0,0.0
3168,58.0,0.0,30.0,7.0,0.0
3169,60.0,0.0,30.0,2.0,0.0
3170,60.0,0.0,30.0,7.0,0.0
3171,72.0,30.0,30.0,8.0,0.0
3172,69.0,30.0,30.0,8.0,0.0
3173,57.0,0.0,30.0,7.0,0.0
3174,57.0,0.0,30.0,2.0,0.0
3175,62.0,0.0,30.0,2.0,0.0
3176,62.0,30.0,30.0,7.0,0.0
3177,74.0,0.0,30.0,8.0,0.0
3178,72.0,0.0,30.0,8.0,0.0
3179,60.0,30.0,30.0,7.0,0.0
3180,60.0,0.0,30.0,2.0,0.0
3181,74.0,0.0,30.0,8.0,0.0
3182,62.0,0.0,30.0,2.0,0.0
3183,62.0,30.0,30.0,7.0,0.0
3184,57.0,0.0,30.0,2.0,0.0
3185,57.0,0.0,30.0,7.0,0.0
3186,69.0,30.0,30.0,8.0,0.0
3187,58.0,0.0,30.0,2.0,0.0
3188,58.0,0.0,30.0,7.0,0.0
3189,70.0,30.0,30.0,8.0,0.0
3190,69.0,30.0,30.0,8.0,0.0
3191,57.0,0.0,30.0,7.0,0.0
3192,57.0,0.0,30.0,2.0,0.0
3193,58.0,0.0,30.0,2.0,0.0
3194,70.0,0.0,30.0,8.0,0.0
3195,58.0,30.0,30.0,7.0,0.0
3196,67.0,30.0,30.0,8.0,0.0
3197,55.0,0.0,30.0,2.0,0.0
3198,55.0,0.0,30.0,7.0,0.0
3199,60.0,0.0,30.0,7.0,0.0
3200,72.0,0.0,30.0,8.0,0.0
3201,60.0,30.0,30.0,2.0,0.0
3202,70.0,0.0,30.0,8.0,0.0
3203,58.0,0.0,30.0,2.0,0.0
3204,58.0,30.0,30.0,7.0,0.0
3205,72.0,0.0,30.0,8.0,0.0
3206,60.0,0.0,30.0,2.0,0.0
3207,60.0,30.0,30.0,7.0,0.0
3208,67.0,0.0,30.0,8.0,0.0
3209,55.0,30.0,30.0,2.0,0.0
3210,55.0,0.0,30.0,7.0,0.0
3211,57.0,0.0,30.0,7.0,0.0
3212,69.0,0.0,30.0,8.0,0.0
3213,57.0,30.0,30.0,2.0,0.0
3214,55.0,0.0,30.0,7.0,0.0
3215,67.0,0.0,30.0,8.0,0.0
3216,55.0,30.0,30.0,2.0,0.0
3217,57.0,0.0,30.0,2.0,0.0
3218,57.0,0.0,30.0,7.0,0.0
3219,69.0,30.0,30.0,8.0,0.0
3220,53.0,0.0,30.0,2.0,0.0
3221,53.0,150.0,30.0,7.0,0.0
3222,65.0,0.0,30.0,8.0,0.0
3223,70.0,0.0,150.0,8.0,0.0
3224,58.0,0.0,150.0,2.0,0.0
3225,58.0,30.0,150.0,7.0,0.0
3226,60.0,0.0,30.0,2.0,0.0
3227,60.0,30.0,30.0,7.0,0.0
3228,72.0,0.0,30.0,8.0,0.0
3229,70.0,30.0,30.0,8.0,0.0
3230,58.0,0.0,30.0,2.0,0.0
3231,58.0,0.0,30.0,7.0,0.0
3232,60.0,17.0,30.0,2.0,0.0
3233,60.0,0.0,30.0,7.0,0.0
3234,72.0,0.0,30.0,8.0,0.0
3235,57.0,0.0,15.0,2.0,0.0
3236,69.0,0.0,15.0,8.0,0.0
3237,57.0,15.0,15.0,7.0,0.0
3238,55.0,0.0,15.0,7.0,0.0
3239,67.0,53.0,15.0,8.0,0.0
3240,55.0,0.0,15.0,2.0,0.0
3241,57.0,35.0,60.0,2.0,0.0
3242,69.0,0.0,60.0,8.0,0.0
3243,57.0,0.0,60.0,7.0,0.0
3244,58.0,0.0,30.0,7.0,0.0
3245,70.0,0.0,30.0,8.0,0.0
3246,58.0,30.0,30.0,2.0,0.0
3247,70.0,30.0,30.0,8.0,0.0
3248,58.0,0.0,30.0,2.0,0.0
3249,58.0,0.0,30.0,7.0,0.0
3250,62.0,0.0,30.0,7.0,0.0
3251,74.0,0.0,30.0,8.0,0.0
3252,62.0,30.0,30.0,2.0,0.0
3253,58.0,0.0,30.0,7.0,0.0
3254,70.0,0.0,30.0,8.0,0.0
3255,58.0,30.0,30.0,2.0,0.0
3256,53.0,0.0,30.0,7.0,0.0
3257,65.0,0.0,30.0,8.0,0.0
3258,53.0,30.0,30.0,2.0,0.0
3259,62.0,0.0,30.0,8.0,0.0
3260,50.0,0.0,30.0,7.0,0.0
3261,50.0,30.0,30.0,2.0,0.0
3262,53.0,30.0,30.0,2.0,0.0
3263,65.0,0.0,30.0,8.0,0.0
3264,53.0,0.0,30.0,7.0,0.0
3265,62.0,30.0,30.0,8.0,0.0
3266,50.0,0.0,30.0,7.0,0.0
3267,50.0,0.0,30.0,2.0,0.0
3268,46.0,30.0,30.0,2.0,0.0
3269,46.0,0.0,30.0,7.0,0.0
3270,58.0,0.0,30.0,8.0,0.0
3271,53.0,4.0,60.0,2.0,0.0
3272,65.0,26.0,30.0,1.0,0.0
3273,65.0,0.0,30.0,10.0,0.0
3274,65.0,0.0,60.0,8.0,0.0
3275,53.0,0.0,60.0,7.0,0.0
3276,67.0,0.0,30.0,1.0,0.0
3277,67.0,30.0,30.0,10.0,0.0
3278,69.0,0.0,30.0,10.0,0.0
3279,69.0,30.0,30.0,1.0,0.0
3280,67.0,0.0,30.0,10.0,0.0
3281,67.0,30.0,30.0,1.0,0.0
3282,65.0,0.0,30.0,10.0,0.0
3283,65.0,30.0,30.0,1.0,0.0
3284,67.0,30.0,30.0,10.0,0.0
3285,67.0,0.0,30.0,1.0,0.0
3286,69.0,30.0,30.0,1.0,0.0
3287,69.0,0.0,30.0,10.0,0.0
3288,67.0,0.0,30.0,10.0,0.0
3289,67.0,30.0,30.0,1.0,0.0
3290,65.0,0.0,30.0,10.0,0.0
3291,65.0,30.0,30.0,1.0,0.0
3292,67.0,0.0,30.0,10.0,0.0
3293,67.0,30.0,30.0,1.0,0.0
3294,69.0,30.0,30.0,1.0,0.0
3295,69.0,0.0,30.0,10.0,0.0
3296,67.0,0.0,30.0,1.0,0.0
3297,67.0,30.0,30.0,10.0,0.0
3298,65.0,0.0,30.0,1.0,0.0
3299,65.0,30.0,30.0,10.0,0.0
3300,67.0,30.0,30.0,1.0,0.0
3301,67.0,0.0,30.0,10.0,0.0
3302,69.0,30.0,30.0,10.0,0.0
3303,69.0,0.0,30.0,1.0,0.0
3304,67.0,0.0,30.0,10.0,0.0
3305,67.0,56.0,30.0,1.0,0.0
3306,65.0,0.0,60.0,1.0,0.0
3307,65.0,34.0,60.0,10.0,0.0
3308,53.0,30.0,30.0,7.0,0.0
3309,53.0,0.0,30.0,2.0,0.0
3310,52.0,0.0,30.0,7.0,0.0
3311,52.0,30.0,30.0,2.0,0.0
3312,53.0,30.0,30.0,2.0,0.0
3313,53.0,0.0,30.0,7.0,0.0
3314,52.0,30.0,30.0,7.0,0.0
3315,52.0,0.0,30.0,2.0,0.0
3316,53.0,30.0,30.0,2.0,0.0
3317,53.0,0.0,30.0,7.0,0.0
3318,52.0,56.0,30.0,7.0,0.0
3319,52.0,0.0,30.0,2.0,0.0
3320,53.0,60.0,60.0,7.0,0.0
3321,53.0,0.0,60.0,2.0,0.0
3322,41.0,0.0,60.0,2.0,0.0
3323,41.0,34.0,60.0,7.0,0.0
3324,74.0,0.0,30.0,1.0,0.0
3325,74.0,30.0,30.0,10.0,0.0
3326,72.0,30.0,30.0,1.0,0.0
3327,72.0,0.0,30.0,10.0,0.0
3328,65.0,0.0,60.0,7.0,0.0
3329,65.0,4.0,60.0,2.0,0.0
3330,74.0,0.0,30.0,1.0,0.0
3331,74.0,26.0,30.0,10.0,0.0
3332,69.0,0.0,30.0,1.0,0.0
3333,69.0,30.0,30.0,10.0,0.0
3334,70.0,0.0,30.0,10.0,0.0
3335,70.0,30.0,30.0,1.0,0.0
3336,65.0,11.0,120.0,7.0,0.0
3337,65.0,0.0,120.0,2.0,0.0
3338,69.0,30.0,30.0,10.0,0.0
3339,69.0,0.0,30.0,1.0,0.0
3340,70.0,0.0,30.0,1.0,0.0
3341,70.0,19.0,30.0,10.0,0.0
3342,67.0,0.0,30.0,10.0,0.0
3343,67.0,30.0,30.0,1.0,0.0
3344,72.0,0.0,30.0,1.0,0.0
3345,72.0,30.0,30.0,10.0,0.0
3346,70.0,0.0,30.0,1.0,0.0
3347,70.0,30.0,30.0,10.0,0.0
3348,72.0,26.0,30.0,1.0,0.0
3349,64.0,4.0,60.0,7.0,0.0
3350,72.0,0.0,30.0,10.0,0.0
3351,64.0,0.0,60.0,2.0,0.0
3352,67.0,0.0,30.0,10.0,0.0
3353,67.0,30.0,30.0,1.0,0.0
3354,69.0,0.0,30.0,10.0,0.0
3355,64.0,11.0,120.0,7.0,0.0
3356,69.0,30.0,30.0,1.0,0.0
3357,64.0,0.0,120.0,2.0,0.0
3358,67.0,30.0,30.0,1.0,0.0
3359,67.0,0.0,30.0,10.0,0.0
3360,69.0,19.0,30.0,1.0,0.0
3361,69.0,0.0,30.0,10.0,0.0
3362,65.0,0.0,30.0,1.0,0.0
3363,65.0,30.0,30.0,10.0,0.0
3364,70.0,0.0,30.0,10.0,0.0
3365,70.0,30.0,30.0,1.0,0.0
3366,69.0,0.0,30.0,1.0,0.0
3367,69.0,30.0,30.0,10.0,0.0
3368,70.0,26.0,30.0,1.0,0.0
3369,62.0,4.0,60.0,2.0,0.0
3370,62.0,0.0,60.0,7.0,0.0
3371,70.0,0.0,30.0,10.0,0.0
3372,65.0,30.0,30.0,1.0,0.0
3373,65.0,0.0,30.0,10.0,0.0
3374,62.0,0.0,120.0,7.0,0.0
3375,62.0,11.0,120.0,2.0,0.0
3376,67.0,0.0,30.0,10.0,0.0
3377,67.0,30.0,30.0,1.0,0.0
3378,65.0,30.0,30.0,10.0,0.0
3379,65.0,0.0,30.0,1.0,0.0
3380,67.0,19.0,30.0,1.0,0.0
3381,67.0,0.0,30.0,10.0,0.0
3382,64.0,0.0,30.0,10.0,0.0
3383,64.0,30.0,30.0,1.0,0.0
3384,69.0,30.0,30.0,10.0,0.0
3385,69.0,0.0,30.0,1.0,0.0
3386,67.0,30.0,30.0,10.0,0.0
3387,67.0,0.0,30.0,1.0,0.0
3388,60.0,4.0,60.0,2.0,0.0
3389,60.0,0.0,60.0,7.0,0.0
3390,69.0,0.0,30.0,10.0,0.0
3391,69.0,26.0,30.0,1.0,0.0
3392,64.0,30.0,30.0,10.0,0.0
3393,64.0,0.0,30.0,1.0,0.0
3394,65.0,30.0,30.0,1.0,0.0
3395,65.0,0.0,30.0,10.0,0.0
3396,60.0,0.0,120.0,2.0,0.0
3397,60.0,11.0,120.0,7.0,0.0
3398,64.0,0.0,30.0,10.0,0.0
3399,64.0,30.0,30.0,1.0,0.0
3400,65.0,0.0,30.0,10.0,0.0
3401,65.0,19.0,30.0,1.0,0.0
3402,62.0,30.0,30.0,10.0,0.0
3403,62.0,0.0,30.0,1.0,0.0
3404,67.0,0.0,30.0,10.0,0.0
3405,67.0,30.0,30.0,1.0,0.0
3406,65.0,30.0,30.0,10.0,0.0
3407,65.0,0.0,30.0,1.0,0.0
3408,67.0,26.0,30.0,10.0,0.0
3409,67.0,0.0,30.0,1.0,0.0
3410,58.0,4.0,60.0,7.0,0.0
3411,58.0,0.0,60.0,2.0,0.0
3412,62.0,0.0,30.0,10.0,0.0
3413,62.0,30.0,30.0,1.0,0.0
3414,64.0,0.0,30.0,10.0,0.0
3415,64.0,30.0,30.0,1.0,0.0
3416,58.0,0.0,120.0,2.0,0.0
3417,58.0,11.0,120.0,7.0,0.0
3418,62.0,0.0,30.0,1.0,0.0
3419,62.0,30.0,30.0,10.0,0.0
3420,64.0,19.0,30.0,10.0,0.0
3421,64.0,0.0,30.0,1.0,0.0
3422,60.0,60.0,30.0,10.0,0.0
3423,60.0,0.0,30.0,1.0,0.0
3424,65.0,0.0,150.0,10.0,0.0
3425,65.0,26.0,150.0,1.0,0.0
3426,57.0,30.0,30.0,2.0,0.0
3427,57.0,0.0,30.0,7.0,0.0
3428,62.0,0.0,30.0,7.0,0.0
3429,62.0,30.0,30.0,2.0,0.0
3430,57.0,30.0,30.0,2.0,0.0
3431,57.0,0.0,30.0,7.0,0.0
3432,58.0,0.0,60.0,7.0,0.0
3433,58.0,4.0,60.0,2.0,0.0
3434,67.0,0.0,30.0,10.0,0.0
3435,67.0,30.0,30.0,1.0,0.0
3436,65.0,0.0,30.0,10.0,0.0
3437,65.0,26.0,30.0,1.0,0.0
3438,55.0,4.0,60.0,7.0,0.0
3439,55.0,0.0,60.0,2.0,0.0
3440,67.0,17.0,30.0,1.0,0.0
3441,67.0,0.0,30.0,10.0,0.0
3442,64.0,0.0,15.0,10.0,0.0
3443,64.0,15.0,15.0,1.0,0.0
3444,62.0,28.0,15.0,1.0,0.0
3445,62.0,0.0,15.0,10.0,0.0
3446,64.0,0.0,60.0,1.0,0.0
3447,64.0,5.0,60.0,10.0,0.0
3448,55.0,0.0,30.0,7.0,0.0
3449,55.0,25.0,30.0,2.0,0.0
3450,60.0,30.0,30.0,7.0,0.0
3451,60.0,0.0,30.0,2.0,0.0
3452,55.0,0.0,30.0,7.0,0.0
3453,65.0,0.0,30.0,10.0,0.0
3454,55.0,0.0,30.0,2.0,0.0
3455,65.0,30.0,30.0,1.0,0.0
3456,57.0,0.0,60.0,7.0,0.0
3457,65.0,26.0,30.0,1.0,0.0
3458,57.0,4.0,60.0,2.0,0.0
3459,65.0,0.0,30.0,10.0,0.0
3460,69.0,30.0,30.0,1.0,0.0
3461,69.0,0.0,30.0,10.0,0.0
3462,65.0,0.0,30.0,10.0,0.0
3463,65.0,30.0,30.0,1.0,0.0
3464,60.0,0.0,30.0,10.0,0.0
3465,60.0,30.0,30.0,1.0,0.0
3466,57.0,30.0,30.0,2.0,0.0
3467,57.0,0.0,30.0,7.0,0.0
3468,60.0,30.0,30.0,2.0,0.0
3469,60.0,0.0,30.0,7.0,0.0
3470,57.0,0.0,30.0,7.0,0.0
3471,57.0,30.0,30.0,2.0,0.0
3472,53.0,0.0,30.0,7.0,0.0
3473,53.0,30.0,30.0,2.0,0.0
3474,50.0,0.0,60.0,2.0,0.0
3475,70.0,0.0,30.0,1.0,0.0
3476,50.0,4.0,60.0,7.0,0.0
3477,70.0,26.0,30.0,10.0,0.0
3478,74.0,0.0,30.0,10.0,0.0
3479,74.0,30.0,30.0,1.0,0.0
3480,70.0,0.0,30.0,10.0,0.0
3481,70.0,30.0,30.0,1.0,0.0
3482,65.0,0.0,30.0,10.0,0.0
3483,65.0,30.0,30.0,1.0,0.0
3484,62.0,0.0,30.0,7.0,0.0
3485,62.0,30.0,30.0,2.0,0.0
3486,65.0,0.0,30.0,7.0,0.0
3487,65.0,30.0,30.0,2.0,0.0
3488,62.0,30.0,30.0,7.0,0.0
3489,62.0,0.0,30.0,2.0,0.0
3490,58.0,0.0,30.0,7.0,0.0
3491,58.0,30.0,30.0,2.0,0.0
3492,63.0,26.0,30.0,1.0,0.0
3493,55.0,0.0,60.0,7.0,0.0
3494,55.0,4.0,60.0,2.0,0.0
3495,63.0,0.0,30.0,10.0,0.0
3496,67.0,0.0,30.0,1.0,0.0
3497,67.0,30.0,30.0,10.0,0.0
3498,63.0,0.0,30.0,1.0,0.0
3499,63.0,30.0,30.0,10.0,0.0
3500,58.0,30.0,30.0,1.0,0.0
3501,58.0,0.0,30.0,10.0,0.0
3502,60.0,0.0,30.0,2.0,0.0
3503,60.0,30.0,30.0,7.0,0.0
3504,63.0,0.0,30.0,2.0,0.0
3505,63.0,30.0,30.0,7.0,0.0
3506,60.0,0.0,30.0,7.0,0.0
3507,60.0,30.0,30.0,2.0,0.0
3508,55.0,0.0,30.0,2.0,0.0
3509,55.0,56.0,30.0,7.0,0.0
3510,57.0,4.0,60.0,2.0,0.0
3511,57.0,0.0,60.0,7.0,0.0
3512,60.0,0.0,30.0,10.0,0.0
3513,60.0,30.0,30.0,1.0,0.0
3514,65.0,26.0,30.0,1.0,0.0
3515,53.0,4.0,60.0,2.0,0.0
3516,65.0,0.0,30.0,10.0,0.0
3517,53.0,0.0,60.0,7.0,0.0
3518,60.0,0.0,30.0,10.0,0.0
3519,60.0,56.0,30.0,1.0,0.0
3520,62.0,4.0,60.0,10.0,0.0
3521,62.0,0.0,60.0,1.0,0.0
3522,53.0,30.0,30.0,2.0,0.0
3523,53.0,0.0,30.0,7.0,0.0
3524,62.0,4.0,60.0,1.0,0.0
3525,62.0,0.0,60.0,10.0,0.0
3526,58.0,26.0,30.0,7.0,0.0
3527,58.0,0.0,30.0,2.0,0.0
3528,53.0,30.0,30.0,2.0,0.0
3529,53.0,0.0,30.0,7.0,0.0
3530,63.0,0.0,30.0,1.0,0.0
3531,55.0,30.0,30.0,2.0,0.0
3532,55.0,0.0,30.0,7.0,0.0
3533,63.0,0.0,30.0,10.0,0.0
3534,57.0,30.0,30.0,2.0,0.0
3535,65.0,0.0,30.0,10.0,0.0
3536,65.0,0.0,30.0,1.0,0.0
3537,57.0,0.0,30.0,7.0,0.0
3538,58.0,36.0,120.0,2.0,0.0
3539,58.0,0.0,120.0,7.0,0.0
3540,62.0,30.0,30.0,10.0,0.0
3541,62.0,0.0,30.0,1.0,0.0
3542,63.0,0.0,30.0,1.0,0.0
3543,63.0,17.0,30.0,10.0,0.0
3544,60.0,0.0,15.0,1.0,0.0
3545,60.0,15.0,15.0,10.0,0.0
3546,58.0,0.0,15.0,10.0,0.0
3547,58.0,17.0,15.0,1.0,0.0
3548,60.0,0.0,60.0,1.0,0.0
3549,60.0,31.0,60.0,10.0,0.0
3550,57.0,4.0,60.0,7.0,0.0
3551,57.0,0.0,60.0,2.0,0.0
3552,58.0,30.0,30.0,10.0,0.0
3553,58.0,0.0,30.0,1.0,0.0
3554,58.0,0.0,60.0,7.0,0.0
3555,58.0,0.0,60.0,1.0,0.0
3556,58.0,0.0,60.0,10.0,0.0
3557,70.0,26.0,30.0,0.0,0.0
3558,58.0,4.0,60.0,2.0,0.0
3559,72.0,30.0,30.0,0.0,0.0
3560,74.0,26.0,30.0,0.0,0.0
3561,46.0,4.0,60.0,7.0,0.0
3562,46.0,0.0,60.0,2.0,0.0
3563,72.0,30.0,30.0,0.0,0.0
3564,70.0,30.0,30.0,0.0,0.0
3565,72.0,30.0,30.0,0.0,0.0
3566,48.0,0.0,60.0,2.0,0.0
3567,74.0,26.0,30.0,0.0,0.0
3568,48.0,4.0,60.0,7.0,0.0
3569,72.0,30.0,30.0,0.0,0.0
3570,70.0,26.0,30.0,0.0,0.0
3571,50.0,0.0,60.0,7.0,0.0
3572,50.0,4.0,60.0,2.0,0.0
3573,72.0,30.0,30.0,0.0,0.0
3574,51.0,0.0,60.0,2.0,0.0
3575,51.0,4.0,60.0,7.0,0.0
3576,74.0,26.0,30.0,0.0,0.0
3577,72.0,30.0,30.0,0.0,0.0
3578,53.0,4.0,60.0,2.0,0.0
3579,70.0,26.0,30.0,0.0,0.0
3580,53.0,0.0,60.0,7.0,0.0
3581,72.0,30.0,30.0,0.0,0.0
3582,41.0,0.0,60.0,7.0,0.0
3583,74.0,26.0,30.0,0.0,0.0
3584,41.0,4.0,60.0,2.0,0.0
3585,72.0,56.0,30.0,0.0,0.0
3586,70.0,0.0,60.0,0.0,0.0
3587,46.0,0.0,60.0,2.0,0.0
3588,46.0,34.0,60.0,7.0,0.0
3589,58.0,30.0,30.0,10.0,0.0
3590,58.0,0.0,30.0,1.0,0.0
3591,57.0,30.0,30.0,10.0,0.0
3592,57.0,0.0,30.0,1.0,0.0
3593,58.0,0.0,30.0,10.0,0.0
3594,58.0,30.0,30.0,1.0,0.0
3595,57.0,0.0,30.0,1.0,0.0
3596,57.0,30.0,30.0,10.0,0.0
3597,58.0,0.0,30.0,1.0,0.0
3598,58.0,30.0,30.0,10.0,0.0
3599,57.0,56.0,30.0,10.0,0.0
3600,57.0,0.0,30.0,1.0,0.0
3601,58.0,0.0,60.0,1.0,0.0
3602,58.0,60.0,60.0,10.0,0.0
3603,46.0,34.0,60.0,1.0,0.0
3604,46.0,0.0,60.0,10.0,0.0
3605,79.0,30.0,30.0,0.0,0.0
3606,77.0,30.0,30.0,0.0,0.0
3607,79.0,26.0,30.0,0.0,0.0
3608,62.0,0.0,60.0,1.0,0.0
3609,62.0,0.0,60.0,10.0,0.0
3610,58.0,4.0,60.0,2.0,0.0
3611,58.0,0.0,60.0,7.0,0.0
3612,74.0,30.0,30.0,0.0,0.0
3613,60.0,0.0,120.0,10.0,0.0
3614,75.0,30.0,30.0,0.0,0.0
3615,58.0,0.0,120.0,7.0,0.0
3616,60.0,0.0,120.0,1.0,0.0
3617,58.0,11.0,120.0,2.0,0.0
3618,74.0,30.0,30.0,0.0,0.0
3619,75.0,19.0,30.0,0.0,0.0
3620,72.0,30.0,30.0,0.0,0.0
3621,77.0,30.0,30.0,0.0,0.0
3622,75.0,30.0,30.0,0.0,0.0
3623,57.0,0.0,60.0,2.0,0.0
3624,60.0,4.0,60.0,10.0,0.0
3625,57.0,0.0,60.0,7.0,0.0
3626,77.0,26.0,30.0,0.0,0.0
3627,60.0,0.0,60.0,1.0,0.0
3628,72.0,30.0,30.0,0.0,0.0
3629,57.0,0.0,120.0,7.0,0.0
3630,58.0,0.0,120.0,10.0,0.0
3631,57.0,0.0,120.0,2.0,0.0
3632,58.0,11.0,120.0,1.0,0.0
3633,74.0,30.0,30.0,0.0,0.0
3634,72.0,30.0,30.0,0.0,0.0
3635,74.0,19.0,30.0,0.0,0.0
3636,70.0,30.0,30.0,0.0,0.0
3637,75.0,30.0,30.0,0.0,0.0
3638,74.0,30.0,30.0,0.0,0.0
3639,58.0,0.0,60.0,1.0,0.0
3640,55.0,0.0,60.0,7.0,0.0
3641,55.0,4.0,60.0,2.0,0.0
3642,75.0,26.0,30.0,0.0,0.0
3643,58.0,0.0,60.0,10.0,0.0
3644,70.0,30.0,30.0,0.0,0.0
3645,72.0,30.0,30.0,0.0,0.0
3646,57.0,0.0,120.0,10.0,0.0
3647,55.0,11.0,120.0,2.0,0.0
3648,57.0,0.0,120.0,1.0,0.0
3649,55.0,0.0,120.0,7.0,0.0
3650,70.0,30.0,30.0,0.0,0.0
3651,72.0,19.0,30.0,0.0,0.0
3652,69.0,30.0,30.0,0.0,0.0
3653,74.0,30.0,30.0,0.0,0.0
3654,72.0,30.0,30.0,0.0,0.0
3655,53.0,0.0,60.0,7.0,0.0
3656,57.0,0.0,60.0,10.0,0.0
3657,53.0,4.0,60.0,2.0,0.0
3658,57.0,0.0,60.0,1.0,0.0
3659,74.0,26.0,30.0,0.0,0.0
3660,69.0,30.0,30.0,0.0,0.0
3661,70.0,30.0,30.0,0.0,0.0
3662,55.0,0.0,120.0,1.0,0.0
3663,53.0,0.0,120.0,2.0,0.0
3664,53.0,11.0,120.0,7.0,0.0
3665,55.0,0.0,120.0,10.0,0.0
3666,69.0,30.0,30.0,0.0,0.0
3667,70.0,19.0,30.0,0.0,0.0
3668,67.0,30.0,30.0,0.0,0.0
3669,72.0,30.0,30.0,0.0,0.0
3670,70.0,30.0,30.0,0.0,0.0
3671,72.0,26.0,30.0,0.0,0.0
3672,51.0,0.0,60.0,2.0,0.0
3673,55.0,4.0,60.0,10.0,0.0
3674,55.0,0.0,60.0,1.0,0.0
3675,51.0,0.0,60.0,7.0,0.0
3676,67.0,30.0,30.0,0.0,0.0
3677,69.0,30.0,30.0,0.0,0.0
3678,53.0,0.0,120.0,10.0,0.0
3679,53.0,0.0,120.0,1.0,0.0
3680,51.0,0.0,120.0,2.0,0.0
3681,51.0,11.0,120.0,7.0,0.0
3682,67.0,30.0,30.0,0.0,0.0
3683,69.0,19.0,30.0,0.0,0.0
3684,65.0,60.0,30.0,0.0,0.0
3685,70.0,26.0,150.0,0.0,0.0
3686,50.0,11.0,120.0,2.0,0.0
3687,50.0,0.0,120.0,7.0,0.0
3688,53.0,0.0,30.0,10.0,0.0
3689,53.0,30.0,30.0,1.0,0.0
3690,58.0,0.0,30.0,10.0,0.0
3691,58.0,19.0,30.0,1.0,0.0
3692,53.0,0.0,30.0,10.0,0.0
3693,53.0,30.0,30.0,1.0,0.0
3694,55.0,0.0,60.0,10.0,0.0
3695,51.0,0.0,60.0,2.0,0.0
3696,55.0,4.0,60.0,1.0,0.0
3697,51.0,0.0,60.0,7.0,0.0
3698,72.0,30.0,30.0,0.0,0.0
3699,53.0,4.0,60.0,1.0,0.0
3700,50.0,0.0,60.0,2.0,0.0
3701,70.0,26.0,30.0,0.0,0.0
3702,53.0,0.0,60.0,10.0,0.0
3703,50.0,0.0,60.0,7.0,0.0
3704,72.0,17.0,30.0,0.0,0.0
3705,69.0,15.0,15.0,0.0,0.0
3706,51.0,7.0,120.0,10.0,0.0
3707,48.0,29.0,60.0,7.0,0.0
3708,51.0,0.0,120.0,1.0,0.0
3709,48.0,0.0,60.0,2.0,0.0
3710,67.0,24.0,15.0,0.0,0.0
3711,69.0,24.0,60.0,0.0,0.0
3712,41.0,4.0,60.0,7.0,0.0
3713,41.0,0.0,60.0,2.0,0.0
3714,70.0,30.0,30.0,0.0,0.0
3715,46.0,0.0,120.0,7.0,0.0
3716,50.0,0.0,120.0,1.0,0.0
3717,50.0,0.0,120.0,10.0,0.0
3718,46.0,11.0,120.0,2.0,0.0
3719,70.0,30.0,30.0,0.0,0.0
3720,74.0,30.0,30.0,0.0,0.0
3721,70.0,19.0,30.0,0.0,0.0
3722,65.0,30.0,30.0,0.0,0.0
3723,62.0,0.0,30.0,1.0,0.0
3724,62.0,30.0,30.0,10.0,0.0
3725,65.0,0.0,30.0,10.0,0.0
3726,65.0,30.0,30.0,1.0,0.0
3727,62.0,60.0,30.0,1.0,0.0
3728,62.0,0.0,30.0,10.0,0.0
3729,58.0,0.0,120.0,1.0,0.0
3730,58.0,11.0,120.0,10.0,0.0
3731,76.0,30.0,30.0,0.0,0.0
3732,79.0,30.0,30.0,0.0,0.0
3733,76.0,19.0,30.0,0.0,0.0
3734,72.0,60.0,30.0,0.0,0.0
3735,77.0,0.0,240.0,0.0,0.0
3736,72.0,0.0,30.0,10.0,0.0
3737,72.0,30.0,30.0,1.0,0.0
3738,57.0,0.0,60.0,7.0,0.0
3739,69.0,0.0,30.0,10.0,0.0
3740,57.0,4.0,60.0,2.0,0.0
3741,69.0,26.0,30.0,1.0,0.0
3742,65.0,30.0,30.0,10.0,0.0
3743,65.0,0.0,30.0,1.0,0.0
3744,70.0,0.0,120.0,10.0,0.0
3745,55.0,30.0,30.0,2.0,0.0
3746,70.0,11.0,120.0,1.0,0.0
3747,55.0,0.0,30.0,7.0,0.0
3748,62.0,0.0,30.0,7.0,0.0
3749,62.0,30.0,30.0,2.0,0.0
3750,58.0,0.0,30.0,7.0,0.0
3751,58.0,19.0,30.0,2.0,0.0
3752,55.0,30.0,30.0,7.0,0.0
3753,55.0,0.0,30.0,2.0,0.0
3754,60.0,0.0,30.0,2.0,0.0
3755,60.0,30.0,30.0,7.0,0.0
3756,55.0,0.0,30.0,2.0,0.0
3757,55.0,30.0,30.0,7.0,0.0
3758,52.0,26.0,30.0,2.0,0.0
3759,76.0,0.0,60.0,0.0,0.0
3760,70.0,0.0,60.0,10.0,0.0
3761,52.0,0.0,30.0,7.0,0.0
3762,70.0,4.0,60.0,1.0,0.0
3763,48.0,0.0,30.0,7.0,0.0
3764,48.0,30.0,30.0,2.0,0.0
3765,41.0,0.0,30.0,3.0,0.0
3766,41.0,30.0,30.0,11.0,0.0
3767,69.0,0.0,120.0,1.0,0.0
3768,53.0,0.0,120.0,7.0,0.0
3769,69.0,11.0,120.0,10.0,0.0
3770,77.0,0.0,120.0,0.0,0.0
3771,53.0,0.0,120.0,2.0,0.0
3772,43.0,0.0,30.0,11.0,0.0
3773,43.0,30.0,30.0,3.0,0.0
3774,45.0,0.0,30.0,3.0,0.0
3775,45.0,19.0,30.0,11.0,0.0
3776,43.0,30.0,30.0,3.0,0.0
3777,43.0,0.0,30.0,11.0,0.0
3778,41.0,0.0,30.0,3.0,0.0
3779,41.0,30.0,30.0,11.0,0.0
3780,43.0,0.0,30.0,11.0,0.0
3781,43.0,30.0,30.0,3.0,0.0
3782,45.0,30.0,30.0,3.0,0.0
3783,45.0,0.0,30.0,11.0,0.0
3784,43.0,0.0,30.0,11.0,0.0
3785,43.0,30.0,30.0,3.0,0.0
3786,41.0,0.0,30.0,11.0,0.0
3787,41.0,30.0,30.0,3.0,0.0
3788,43.0,0.0,30.0,3.0,0.0
3789,43.0,30.0,30.0,11.0,0.0
3790,45.0,0.0,30.0,3.0,0.0
3791,45.0,30.0,30.0,11.0,0.0
3792,43.0,0.0,30.0,3.0,0.0
3793,43.0,30.0,30.0,11.0,0.0
3794,41.0,30.0,30.0,11.0,0.0
3795,41.0,0.0,30.0,3.0,0.0
3796,43.0,30.0,30.0,11.0,0.0
3797,43.0,0.0,30.0,3.0,0.0
3798,45.0,0.0,30.0,11.0,0.0
3799,45.0,30.0,30.0,3.0,0.0
3800,43.0,0.0,30.0,11.0,0.0
3801,43.0,56.0,30.0,3.0,0.0
3802,41.0,34.0,60.0,3.0,0.0
3803,41.0,0.0,60.0,11.0,0.0
3804,57.0,26.0,30.0,2.0,0.0
3805,60.0,4.0,60.0,1.0,0.0
3806,65.0,0.0,30.0,0.0,0.0
3807,55.0,0.0,30.0,2.0,0.0
3808,64.0,30.0,30.0,0.0,0.0
3809,60.0,4.0,60.0,1.0,0.0
3810,57.0,0.0,30.0,2.0,0.0
3811,65.0,26.0,30.0,0.0,0.0
3812,55.0,0.0,30.0,2.0,0.0
3813,64.0,30.0,30.0,0.0,0.0
3814,57.0,26.0,30.0,2.0,0.0
3815,65.0,0.0,30.0,0.0,0.0
3816,60.0,4.0,60.0,1.0,0.0
3817,55.0,56.0,30.0,2.0,0.0
3818,64.0,0.0,30.0,0.0,0.0
3819,60.0,0.0,120.0,1.0,0.0
3820,57.0,7.0,120.0,2.0,0.0
3821,65.0,53.0,60.0,0.0,0.0
3822,53.0,34.0,60.0,0.0,0.0
3823,50.0,30.0,30.0,3.0,0.0
3824,50.0,0.0,30.0,11.0,0.0
3825,48.0,30.0,30.0,3.0,0.0
3826,48.0,0.0,30.0,11.0,0.0
3827,69.0,0.0,60.0,1.0,0.0
3828,50.0,26.0,30.0,11.0,0.0
3829,77.0,0.0,60.0,0.0,0.0
3830,65.0,4.0,60.0,2.0,0.0
3831,50.0,0.0,30.0,3.0,0.0
3832,45.0,0.0,30.0,11.0,0.0
3833,45.0,30.0,30.0,3.0,0.0
3834,77.0,0.0,120.0,0.0,0.0
3835,46.0,0.0,30.0,11.0,0.0
3836,46.0,30.0,30.0,3.0,0.0
3837,67.0,0.0,120.0,1.0,0.0
3838,62.0,11.0,120.0,2.0,0.0
3839,45.0,0.0,30.0,11.0,0.0
3840,45.0,30.0,30.0,3.0,0.0
3841,46.0,0.0,30.0,3.0,0.0
3842,46.0,19.0,30.0,11.0,0.0
3843,43.0,30.0,30.0,3.0,0.0
3844,43.0,0.0,30.0,11.0,0.0
3845,48.0,0.0,30.0,11.0,0.0
3846,48.0,30.0,30.0,3.0,0.0
3847,46.0,0.0,30.0,3.0,0.0
3848,46.0,30.0,30.0,11.0,0.0
3849,48.0,26.0,30.0,11.0,0.0
3850,67.0,0.0,60.0,1.0,0.0
3851,64.0,0.0,60.0,2.0,0.0
3852,76.0,4.0,60.0,0.0,0.0
3853,48.0,0.0,30.0,3.0,0.0
3854,43.0,0.0,30.0,3.0,0.0
3855,43.0,30.0,30.0,11.0,0.0
3856,45.0,0.0,30.0,11.0,0.0
3857,65.0,0.0,120.0,1.0,0.0
3858,60.0,11.0,120.0,2.0,0.0
3859,45.0,30.0,30.0,3.0,0.0
3860,76.0,0.0,120.0,0.0,0.0
3861,43.0,0.0,30.0,11.0,0.0
3862,43.0,30.0,30.0,3.0,0.0
3863,45.0,0.0,30.0,11.0,0.0
3864,45.0,19.0,30.0,3.0,0.0
3865,41.0,0.0,30.0,11.0,0.0
3866,41.0,30.0,30.0,3.0,0.0
3867,46.0,0.0,30.0,11.0,0.0
3868,46.0,30.0,30.0,3.0,0.0
3869,45.0,0.0,30.0,11.0,0.0
3870,45.0,30.0,30.0,3.0,0.0
3871,74.0,0.0,60.0,0.0,0.0
3872,62.0,4.0,60.0,2.0,0.0
3873,46.0,0.0,30.0,3.0,0.0
3874,46.0,26.0,30.0,11.0,0.0
3875,65.0,0.0,60.0,1.0,0.0
3876,41.0,30.0,30.0,11.0,0.0
3877,41.0,0.0,30.0,3.0,0.0
3878,64.0,0.0,120.0,1.0,0.0
3879,43.0,0.0,30.0,11.0,0.0
3880,74.0,11.0,120.0,0.0,0.0
3881,58.0,0.0,120.0,2.0,0.0
3882,43.0,30.0,30.0,3.0,0.0
3883,41.0,0.0,30.0,11.0,0.0
3884,41.0,30.0,30.0,3.0,0.0
3885,43.0,0.0,30.0,3.0,0.0
3886,43.0,19.0,30.0,11.0,0.0
3887,40.0,30.0,30.0,11.0,0.0
3888,40.0,0.0,30.0,3.0,0.0
3889,45.0,0.0,30.0,3.0,0.0
3890,45.0,30.0,30.0,11.0,0.0
3891,43.0,0.0,30.0,3.0,0.0
3892,43.0,30.0,30.0,11.0,0.0
3893,72.0,4.0,60.0,0.0,0.0
3894,45.0,0.0,30.0,3.0,0.0
3895,60.0,0.0,60.0,2.0,0.0
3896,64.0,0.0,60.0,1.0,0.0
3897,45.0,26.0,30.0,11.0,0.0
3898,40.0,30.0,30.0,11.0,0.0
3899,40.0,0.0,30.0,3.0,0.0
3900,62.0,11.0,120.0,1.0,0.0
3901,57.0,0.0,120.0,2.0,0.0
3902,72.0,0.0,120.0,0.0,0.0
3903,41.0,0.0,30.0,3.0,0.0
3904,41.0,30.0,30.0,11.0,0.0
3905,40.0,30.0,30.0,3.0,0.0
3906,40.0,0.0,30.0,11.0,0.0
3907,41.0,0.0,30.0,11.0,0.0
3908,41.0,19.0,30.0,3.0,0.0
3909,38.0,30.0,30.0,11.0,0.0
3910,38.0,0.0,30.0,3.0,0.0
3911,43.0,0.0,30.0,11.0,0.0
3912,43.0,30.0,30.0,3.0,0.0
3913,41.0,30.0,30.0,11.0,0.0
3914,41.0,0.0,30.0,3.0,0.0
3915,43.0,0.0,30.0,11.0,0.0
3916,62.0,4.0,60.0,1.0,0.0
3917,70.0,0.0,60.0,0.0,0.0
3918,58.0,0.0,60.0,2.0,0.0
3919,43.0,26.0,30.0,3.0,0.0
3920,38.0,30.0,30.0,11.0,0.0
3921,38.0,0.0,30.0,3.0,0.0
3922,40.0,0.0,30.0,11.0,0.0
3923,55.0,0.0,120.0,2.0,0.0
3924,70.0,11.0,120.0,0.0,0.0
3925,60.0,0.0,120.0,1.0,0.0
3926,40.0,30.0,30.0,3.0,0.0
3927,38.0,30.0,30.0,11.0,0.0
3928,38.0,0.0,30.0,3.0,0.0
3929,40.0,0.0,30.0,3.0,0.0
3930,40.0,19.0,30.0,11.0,0.0
3931,36.0,0.0,30.0,3.0,0.0
3932,36.0,60.0,30.0,11.0,0.0
3933,41.0,30.0,150.0,11.0,0.0
3934,69.0,0.0,120.0,0.0,0.0
3935,41.0,0.0,150.0,3.0,0.0
3936,53.0,11.0,120.0,2.0,0.0
3937,57.0,30.0,30.0,1.0,0.0
3938,62.0,19.0,30.0,1.0,0.0
3939,57.0,30.0,30.0,1.0,0.0
3940,50.0,11.0,120.0,2.0,0.0
3941,58.0,0.0,120.0,1.0,0.0
3942,67.0,0.0,120.0,0.0,0.0
3943,43.0,30.0,30.0,3.0,0.0
3944,43.0,0.0,30.0,11.0,0.0
3945,41.0,0.0,30.0,11.0,0.0
3946,41.0,19.0,30.0,3.0,0.0
3947,43.0,0.0,30.0,3.0,0.0
3948,43.0,60.0,30.0,11.0,0.0
3949,48.0,0.0,120.0,2.0,0.0
3950,67.0,30.0,150.0,0.0,0.0
3951,40.0,0.0,120.0,11.0,0.0
3952,40.0,11.0,120.0,3.0,0.0
3953,55.0,30.0,30.0,1.0,0.0
3954,58.0,19.0,30.0,1.0,0.0
3955,55.0,30.0,30.0,1.0,0.0
3956,57.0,0.0,120.0,1.0,0.0
3957,41.0,11.0,120.0,3.0,0.0
3958,41.0,0.0,120.0,11.0,0.0
3959,48.0,0.0,120.0,2.0,0.0
3960,60.0,30.0,30.0,0.0,0.0
3961,64.0,19.0,30.0,0.0,0.0
3962,60.0,60.0,30.0,0.0,0.0
3963,65.0,26.0,150.0,0.0,0.0
3964,41.0,30.0,30.0,11.0,0.0
3965,41.0,0.0,30.0,3.0,0.0
3966,45.0,0.0,30.0,11.0,0.0
3967,57.0,0.0,60.0,2.0,0.0
3968,60.0,4.0,60.0,1.0,0.0
3969,45.0,26.0,30.0,3.0,0.0
3970,41.0,0.0,30.0,11.0,0.0
3971,41.0,30.0,30.0,3.0,0.0
3972,55.0,7.0,120.0,2.0,0.0
3973,46.0,4.0,60.0,11.0,0.0
3974,62.0,0.0,60.0,1.0,0.0
3975,46.0,0.0,60.0,3.0,0.0
3976,67.0,30.0,30.0,0.0,0.0
3977,43.0,4.0,60.0,3.0,0.0
3978,58.0,0.0,60.0,1.0,0.0
3979,65.0,19.0,30.0,0.0,0.0
3980,43.0,0.0,60.0,11.0,0.0
3981,67.0,30.0,30.0,0.0,0.0
3982,55.0,0.0,60.0,2.0,0.0
3983,48.0,0.0,60.0,3.0,0.0
3984,60.0,7.0,120.0,1.0,0.0
3985,64.0,26.0,30.0,0.0,0.0
3986,48.0,4.0,60.0,11.0,0.0
3987,65.0,30.0,30.0,0.0,0.0
3988,58.0,0.0,60.0,2.0,0.0
3989,62.0,19.0,30.0,0.0,0.0
3990,36.0,0.0,60.0,3.0,0.0
3991,36.0,4.0,60.0,11.0,0.0
3992,64.0,30.0,30.0,0.0,0.0
3993,41.0,11.0,120.0,3.0,0.0
3994,57.0,26.0,30.0,2.0,0.0
3995,41.0,0.0,120.0,11.0,0.0
3996,65.0,0.0,30.0,0.0,0.0
3997,60.0,4.0,60.0,1.0,0.0
3998,58.0,30.0,30.0,2.0,0.0
3999,67.0,0.0,30.0,0.0,0.0
4000,69.0,0.0,30.0,0.0,0.0
4001,60.0,19.0,30.0,2.0,0.0
4002,58.0,0.0,30.0,2.0,0.0
4003,67.0,30.0,30.0,0.0,0.0
4004,57.0,30.0,30.0,2.0,0.0
4005,65.0,0.0,30.0,0.0,0.0
4006,58.0,0.0,30.0,2.0,0.0
4007,67.0,30.0,30.0,0.0,0.0
4008,43.0,4.0,60.0,11.0,0.0
4009,43.0,0.0,60.0,3.0,0.0
4010,60.0,0.0,30.0,2.0,0.0
4011,69.0,26.0,30.0,0.0,0.0
4012,58.0,30.0,30.0,2.0,0.0
4013,67.0,0.0,30.0,0.0,0.0
4014,45.0,4.0,60.0,3.0,0.0
4015,65.0,0.0,30.0,0.0,0.0
4016,45.0,0.0,60.0,11.0,0.0
4017,57.0,26.0,30.0,2.0,0.0
4018,67.0,0.0,30.0,0.0,0.0
4019,58.0,30.0,30.0,2.0,0.0
4020,46.0,0.0,60.0,3.0,0.0
4021,69.0,26.0,30.0,0.0,0.0
4022,46.0,4.0,60.0,11.0,0.0
4023,60.0,0.0,30.0,2.0,0.0
4024,58.0,0.0,30.0,2.0,0.0
4025,67.0,30.0,30.0,0.0,0.0
4026,57.0,0.0,30.0,2.0,0.0
4027,48.0,4.0,60.0,11.0,0.0
4028,48.0,0.0,60.0,3.0,0.0
4029,65.0,26.0,30.0,0.0,0.0
4030,67.0,0.0,30.0,0.0,0.0
4031,58.0,30.0,30.0,2.0,0.0
4032,69.0,0.0,30.0,0.0,0.0
4033,36.0,4.0,60.0,11.0,0.0
4034,36.0,0.0,60.0,3.0,0.0
4035,60.0,26.0,30.0,2.0,0.0
4036,58.0,0.0,30.0,2.0,0.0
4037,67.0,30.0,30.0,0.0,0.0
4038,57.0,0.0,120.0,2.0,0.0
4039,41.0,0.0,120.0,3.0,0.0
4040,65.0,30.0,30.0,0.0,0.0
4041,41.0,11.0,120.0,11.0,0.0
4042,69.0,30.0,30.0,0.0,0.0
4043,65.0,19.0,30.0,0.0,0.0
4044,60.0,30.0,30.0,0.0,0.0
4045,57.0,30.0,30.0,2.0,0.0
4046,60.0,30.0,30.0,2.0,0.0
4047,57.0,30.0,30.0,2.0,0.0
4048,53.0,56.0,30.0,2.0,0.0
4049,50.0,4.0,60.0,2.0,0.0
4050,65.0,30.0,30.0,0.0,0.0
4051,62.0,4.0,60.0,2.0,0.0
4052,70.0,26.0,30.0,0.0,0.0
4053,65.0,30.0,30.0,0.0,0.0
4054,67.0,26.0,30.0,0.0,0.0
4055,63.0,4.0,60.0,2.0,0.0
4056,70.0,30.0,30.0,0.0,0.0
4057,60.0,4.0,60.0,2.0,0.0
4058,75.0,26.0,30.0,0.0,0.0
4059,67.0,30.0,30.0,0.0,0.0
4060,65.0,4.0,60.0,2.0,0.0
4061,69.0,26.0,30.0,0.0,0.0
4062,72.0,30.0,30.0,0.0,0.0
4063,62.0,4.0,60.0,2.0,0.0
4064,77.0,26.0,30.0,0.0,0.0
4065,69.0,30.0,30.0,0.0,0.0
4066,70.0,26.0,30.0,0.0,0.0
4067,67.0,4.0,60.0,2.0,0.0
4068,74.0,30.0,30.0,0.0,0.0
4069,55.0,4.0,60.0,2.0,0.0
4070,79.0,26.0,30.0,0.0,0.0
4071,70.0,30.0,30.0,0.0,0.0
4072,57.0,4.0,60.0,2.0,0.0
4073,72.0,26.0,30.0,0.0,0.0
4074,77.0,30.0,30.0,0.0,0.0
4075,53.0,4.0,60.0,2.0,0.0
4076,75.0,26.0,30.0,0.0,0.0
4077,77.0,30.0,30.0,0.0,0.0
4078,74.0,26.0,30.0,0.0,0.0
4079,58.0,4.0,60.0,2.0,0.0
4080,72.0,30.0,30.0,0.0,0.0
4081,74.0,26.0,30.0,0.0,0.0
4082,57.0,4.0,60.0,2.0,0.0
4083,70.0,30.0,30.0,0.0,0.0
4084,75.0,26.0,30.0,0.0,0.0
4085,55.0,4.0,60.0,2.0,0.0
4086,74.0,30.0,30.0,0.0,0.0
4087,75.0,26.0,30.0,0.0,0.0
4088,51.0,4.0,60.0,2.0,0.0
4089,77.0,17.0,30.0,0.0,0.0
4090,53.0,29.0,60.0,2.0,0.0
4091,72.0,15.0,15.0,0.0,0.0
4092,70.0,24.0,15.0,0.0,0.0
4093,72.0,31.0,60.0,0.0,0.0
4094,41.0,4.0,60.0,2.0,0.0
4095,70.0,30.0,30.0,0.0,0.0
4096,70.0,11.0,120.0,0.0,0.0
4097,46.0,4.0,60.0,2.0,0.0
4098,58.0,26.0,30.0,1.0,0.0
4099,60.0,30.0,30.0,1.0,0.0
4100,62.0,19.0,30.0,1.0,0.0
4101,60.0,30.0,30.0,1.0,0.0
4102,58.0,30.0,30.0,1.0,0.0
4103,60.0,30.0,30.0,1.0,0.0
4104,72.0,4.0,60.0,0.0,0.0
4105,62.0,26.0,30.0,1.0,0.0
4106,60.0,30.0,30.0,1.0,0.0
4107,58.0,26.0,30.0,1.0,0.0
4108,74.0,4.0,60.0,0.0,0.0
4109,60.0,30.0,30.0,1.0,0.0
4110,62.0,26.0,30.0,1.0,0.0
4111,75.0,4.0,60.0,0.0,0.0
4112,60.0,30.0,30.0,1.0,0.0
4113,77.0,4.0,60.0,0.0,0.0
4114,58.0,26.0,30.0,1.0,0.0
4115,60.0,30.0,30.0,1.0,0.0
4116,62.0,26.0,30.0,1.0,0.0
4117,65.0,4.0,60.0,0.0,0.0
4118,60.0,56.0,30.0,1.0,0.0
4119,58.0,34.0,60.0,1.0,0.0
4120,70.0,0.0,60.0,0.0,0.0
4121,46.0,0.0,30.0,3.0,0.0
4122,50.0,0.0,30.0,2.0,0.0
4123,46.0,30.0,30.0,11.0,0.0
4124,45.0,0.0,30.0,11.0,0.0
4125,48.0,0.0,30.0,2.0,0.0
4126,45.0,30.0,30.0,3.0,0.0
4127,50.0,0.0,30.0,2.0,0.0
4128,46.0,30.0,30.0,3.0,0.0
4129,46.0,0.0,30.0,11.0,0.0
4130,45.0,0.0,30.0,3.0,0.0
4131,48.0,0.0,30.0,2.0,0.0
4132,45.0,30.0,30.0,11.0,0.0
4133,46.0,0.0,30.0,3.0,0.0
4134,50.0,0.0,30.0,2.0,0.0
4135,46.0,30.0,30.0,11.0,0.0
4136,45.0,56.0,30.0,3.0,0.0
4137,48.0,0.0,30.0,2.0,0.0
4138,45.0,0.0,30.0,11.0,0.0
4139,46.0,0.0,60.0,3.0,0.0
4140,50.0,7.0,120.0,2.0,0.0
4141,46.0,53.0,60.0,11.0,0.0
4142,34.0,0.0,60.0,3.0,0.0
4143,34.0,34.0,60.0,11.0,0.0
4144,67.0,30.0,30.0,1.0,0.0
4145,65.0,30.0,30.0,1.0,0.0
4146,67.0,26.0,30.0,1.0,0.0
4147,58.0,4.0,60.0,3.0,0.0
4148,58.0,0.0,60.0,11.0,0.0
4149,74.0,0.0,60.0,0.0,0.0
4150,62.0,30.0,30.0,1.0,0.0
4151,63.0,30.0,30.0,1.0,0.0
4152,72.0,11.0,120.0,0.0,0.0
4153,58.0,0.0,120.0,11.0,0.0
4154,58.0,0.0,120.0,3.0,0.0
4155,62.0,30.0,30.0,1.0,0.0
4156,63.0,19.0,30.0,1.0,0.0
4157,60.0,30.0,30.0,1.0,0.0
4158,65.0,30.0,30.0,1.0,0.0
4159,63.0,30.0,30.0,1.0,0.0
4160,72.0,0.0,60.0,0.0,0.0
4161,65.0,26.0,30.0,1.0,0.0
4162,57.0,4.0,60.0,3.0,0.0
4163,57.0,0.0,60.0,11.0,0.0
4164,60.0,30.0,30.0,1.0,0.0
4165,62.0,30.0,30.0,1.0,0.0
4166,57.0,0.0,120.0,3.0,0.0
4167,70.0,0.0,120.0,0.0,0.0
4168,57.0,11.0,120.0,11.0,0.0
4169,60.0,30.0,30.0,1.0,0.0
4170,62.0,19.0,30.0,1.0,0.0
4171,58.0,30.0,30.0,1.0,0.0
4172,63.0,30.0,30.0,1.0,0.0
4173,62.0,30.0,30.0,1.0,0.0
4174,63.0,26.0,30.0,1.0,0.0
4175,55.0,0.0,60.0,11.0,0.0
4176,70.0,4.0,60.0,0.0,0.0
4177,55.0,0.0,60.0,3.0,0.0
4178,58.0,30.0,30.0,1.0,0.0
4179,55.0,0.0,120.0,3.0,0.0
4180,60.0,30.0,30.0,1.0,0.0
4181,55.0,11.0,120.0,11.0,0.0
4182,69.0,0.0,120.0,0.0,0.0
4183,58.0,30.0,30.0,1.0,0.0
4184,60.0,19.0,30.0,1.0,0.0
4185,57.0,30.0,30.0,1.0,0.0
4186,62.0,30.0,30.0,1.0,0.0
4187,60.0,30.0,30.0,1.0,0.0
4188,62.0,26.0,30.0,1.0,0.0
4189,53.0,0.0,60.0,3.0,0.0
4190,69.0,4.0,60.0,0.0,0.0
4191,53.0,0.0,60.0,11.0,0.0
4192,57.0,30.0,30.0,1.0,0.0
4193,67.0,0.0,120.0,0.0,0.0
4194,53.0,11.0,120.0,11.0,0.0
4195,53.0,0.0,120.0,3.0,0.0
4196,58.0,30.0,30.0,1.0,0.0
4197,57.0,30.0,30.0,1.0,0.0
4198,58.0,19.0,30.0,1.0,0.0
4199,55.0,30.0,30.0,1.0,0.0
4200,60.0,30.0,30.0,1.0,0.0
4201,58.0,30.0,30.0,1.0,0.0
4202,60.0,26.0,30.0,1.0,0.0
4203,67.0,0.0,60.0,0.0,0.0
4204,51.0,0.0,60.0,3.0,0.0
4205,51.0,4.0,60.0,11.0,0.0
4206,55.0,30.0,30.0,1.0,0.0
4207,65.0,0.0,120.0,0.0,0.0
4208,51.0,0.0,120.0,3.0,0.0
4209,51.0,11.0,120.0,11.0,0.0
4210,57.0,30.0,30.0,1.0,0.0
4211,55.0,30.0,30.0,1.0,0.0
4212,57.0,19.0,30.0,1.0,0.0
4213,53.0,56.0,30.0,1.0,0.0
4214,58.0,26.0,150.0,1.0,0.0
4215,50.0,0.0,60.0,11.0,0.0
4216,50.0,4.0,60.0,3.0,0.0
4217,65.0,30.0,30.0,0.0,0.0
4218,55.0,30.0,30.0,11.0,0.0
4219,55.0,0.0,30.0,3.0,0.0
4220,70.0,0.0,30.0,0.0,0.0
4221,50.0,30.0,30.0,11.0,0.0
4222,65.0,0.0,30.0,0.0,0.0
4223,50.0,0.0,30.0,3.0,0.0
4224,67.0,0.0,60.0,0.0,0.0
4225,51.0,0.0,60.0,11.0,0.0
4226,51.0,4.0,60.0,3.0,0.0
4227,60.0,30.0,30.0,1.0,0.0
4228,48.0,0.0,60.0,3.0,0.0
4229,75.0,4.0,60.0,0.0,0.0
4230,48.0,0.0,60.0,11.0,0.0
4231,58.0,26.0,30.0,1.0,0.0
4232,60.0,17.0,30.0,1.0,0.0
4233,53.0,0.0,60.0,3.0,0.0
4234,53.0,29.0,60.0,11.0,0.0
4235,74.0,15.0,15.0,0.0,0.0
4236,57.0,0.0,15.0,1.0,0.0
4237,72.0,24.0,15.0,0.0,0.0
4238,55.0,0.0,15.0,1.0,0.0
4239,74.0,31.0,60.0,0.0,0.0
4240,57.0,0.0,60.0,1.0,0.0
4241,41.0,4.0,60.0,3.0,0.0
4242,41.0,0.0,60.0,11.0,0.0
4243,72.0,30.0,30.0,0.0,0.0
4244,58.0,0.0,30.0,1.0,0.0
4245,46.0,0.0,120.0,11.0,0.0
4246,70.0,26.0,30.0,0.0,0.0
4247,58.0,4.0,60.0,1.0,0.0
4248,46.0,7.0,120.0,3.0,0.0
4249,72.0,30.0,30.0,0.0,0.0
4250,74.0,19.0,30.0,0.0,0.0
4251,60.0,4.0,60.0,1.0,0.0
4252,72.0,30.0,30.0,0.0,0.0
4253,62.0,4.0,60.0,1.0,0.0
4254,70.0,26.0,30.0,0.0,0.0
4255,74.0,30.0,30.0,0.0,0.0
4256,72.0,26.0,30.0,0.0,0.0
4257,55.0,0.0,60.0,11.0,0.0
4258,64.0,4.0,60.0,1.0,0.0
4259,55.0,0.0,60.0,3.0,0.0
4260,70.0,30.0,30.0,0.0,0.0
4261,65.0,30.0,30.0,1.0,0.0
4262,69.0,0.0,30.0,0.0,0.0
4263,57.0,11.0,120.0,11.0,0.0
4264,57.0,0.0,120.0,3.0,0.0
4265,70.0,0.0,30.0,0.0,0.0
4266,67.0,30.0,30.0,1.0,0.0
4267,69.0,19.0,30.0,1.0,0.0
4268,72.0,0.0,30.0,0.0,0.0
4269,67.0,0.0,30.0,1.0,0.0
4270,70.0,30.0,30.0,0.0,0.0
4271,65.0,30.0,30.0,1.0,0.0
4272,69.0,0.0,30.0,0.0,0.0
4273,69.0,30.0,30.0,1.0,0.0
4274,72.0,0.0,30.0,0.0,0.0
4275,67.0,0.0,30.0,1.0,0.0
4276,70.0,26.0,30.0,0.0,0.0
4277,46.0,0.0,60.0,3.0,0.0
4278,46.0,4.0,60.0,11.0,0.0
4279,69.0,30.0,30.0,0.0,0.0
4280,65.0,0.0,30.0,1.0,0.0
4281,67.0,4.0,60.0,0.0,0.0
4282,64.0,26.0,30.0,1.0,0.0
4283,48.0,7.0,120.0,3.0,0.0
4284,48.0,0.0,120.0,11.0,0.0
4285,62.0,30.0,30.0,1.0,0.0
4286,72.0,4.0,60.0,0.0,0.0
4287,64.0,19.0,30.0,1.0,0.0
4288,60.0,30.0,30.0,1.0,0.0
4289,70.0,26.0,30.0,0.0,0.0
4290,62.0,0.0,60.0,1.0,0.0
4291,43.0,0.0,60.0,3.0,0.0
4292,43.0,4.0,60.0,11.0,0.0
4293,69.0,30.0,30.0,0.0,0.0
4294,64.0,0.0,60.0,1.0,0.0
4295,48.0,4.0,60.0,11.0,0.0
4296,70.0,26.0,30.0,0.0,0.0
4297,48.0,0.0,60.0,3.0,0.0
4298,67.0,30.0,30.0,0.0,0.0
4299,65.0,0.0,60.0,1.0,0.0
4300,41.0,4.0,60.0,11.0,0.0
4301,41.0,0.0,60.0,3.0,0.0
4302,69.0,26.0,30.0,0.0,0.0
4303,67.0,30.0,30.0,0.0,0.0
4304,46.0,4.0,60.0,3.0,0.0
4305,62.0,0.0,60.0,1.0,0.0
4306,65.0,26.0,30.0,0.0,0.0
4307,46.0,0.0,60.0,11.0,0.0
4308,67.0,17.0,30.0,0.0,0.0
4309,48.0,0.0,60.0,3.0,0.0
4310,64.0,15.0,15.0,0.0,0.0
4311,48.0,0.0,60.0,11.0,0.0
4312,55.0,29.0,60.0,1.0,0.0
4313,62.0,24.0,15.0,0.0,0.0
4314,64.0,31.0,60.0,0.0,0.0
4315,36.0,0.0,60.0,11.0,0.0
4316,36.0,4.0,60.0,3.0,0.0
4317,58.0,0.0,60.0,1.0,0.0
4318,65.0,30.0,30.0,0.0,0.0
4319,89.0,26.0,30.0,12.0,0.0
4320,53.0,0.0,30.0,2.0,0.0
4321,65.0,4.0,60.0,0.0,0.0
4322,57.0,0.0,30.0,1.0,0.0
4323,41.0,0.0,120.0,3.0,0.0
4324,41.0,11.0,120.0,11.0,0.0
4325,91.0,30.0,30.0,12.0,0.0
4326,60.0,0.0,30.0,1.0,0.0
4327,55.0,0.0,30.0,2.0,0.0
4328,57.0,0.0,30.0,2.0,0.0
4329,65.0,19.0,30.0,1.0,0.0
4330,93.0,0.0,30.0,12.0,0.0
4331,55.0,30.0,30.0,2.0,0.0
4332,91.0,0.0,30.0,12.0,0.0
4333,60.0,0.0,30.0,1.0,0.0
4334,57.0,0.0,30.0,1.0,0.0
4335,89.0,0.0,30.0,12.0,0.0
4336,53.0,30.0,30.0,2.0,0.0
4337,60.0,0.0,30.0,1.0,0.0
4338,91.0,0.0,30.0,12.0,0.0
4339,55.0,30.0,30.0,2.0,0.0
4340,57.0,0.0,30.0,2.0,0.0
4341,93.0,0.0,30.0,12.0,0.0
4342,65.0,30.0,30.0,1.0,0.0
4343,55.0,0.0,30.0,2.0,0.0
4344,91.0,0.0,30.0,12.0,0.0
4345,60.0,30.0,30.0,1.0,0.0
4346,89.0,0.0,30.0,12.0,0.0
4347,53.0,0.0,30.0,2.0,0.0
4348,57.0,30.0,30.0,1.0,0.0
4349,60.0,30.0,30.0,1.0,0.0
4350,55.0,0.0,30.0,2.0,0.0
4351,91.0,0.0,30.0,12.0,0.0
4352,57.0,0.0,30.0,2.0,0.0
4353,65.0,30.0,30.0,1.0,0.0
4354,93.0,0.0,30.0,12.0,0.0
4355,91.0,0.0,30.0,12.0,0.0
4356,55.0,30.0,30.0,2.0,0.0
4357,60.0,0.0,30.0,1.0,0.0
4358,57.0,0.0,30.0,1.0,0.0
4359,53.0,30.0,30.0,2.0,0.0
4360,89.0,0.0,30.0,12.0,0.0
4361,55.0,0.0,30.0,2.0,0.0
4362,60.0,30.0,30.0,1.0,0.0
4363,91.0,0.0,30.0,12.0,0.0
4364,65.0,30.0,30.0,1.0,0.0
4365,57.0,0.0,30.0,2.0,0.0
4366,93.0,0.0,30.0,12.0,0.0
4367,55.0,0.0,30.0,2.0,0.0
4368,91.0,56.0,30.0,12.0,0.0
4369,60.0,0.0,30.0,1.0,0.0
4370,57.0,0.0,60.0,1.0,0.0
4371,53.0,0.0,60.0,2.0,0.0
4372,89.0,34.0,60.0,12.0,0.0
4373,77.0,0.0,30.0,0.0,0.0
4374,69.0,30.0,30.0,1.0,0.0
4375,76.0,30.0,30.0,0.0,0.0
4376,67.0,0.0,30.0,1.0,0.0
4377,69.0,0.0,30.0,1.0,0.0
4378,77.0,30.0,30.0,0.0,0.0
4379,76.0,0.0,30.0,0.0,0.0
4380,67.0,30.0,30.0,1.0,0.0
4381,69.0,30.0,30.0,1.0,0.0
4382,77.0,0.0,30.0,0.0,0.0
4383,67.0,56.0,30.0,1.0,0.0
4384,76.0,0.0,30.0,0.0,0.0
4385,77.0,0.0,60.0,0.0,0.0
4386,69.0,60.0,60.0,1.0,0.0
4387,65.0,34.0,60.0,0.0,0.0
4388,62.0,30.0,30.0,2.0,0.0
4389,98.0,0.0,30.0,12.0,0.0
4390,96.0,0.0,30.0,12.0,0.0
4391,60.0,30.0,30.0,2.0,0.0
4392,62.0,26.0,30.0,2.0,0.0
4393,69.0,4.0,60.0,0.0,0.0
4394,98.0,0.0,30.0,12.0,0.0
4395,65.0,0.0,60.0,1.0,0.0
4396,93.0,0.0,30.0,12.0,0.0
4397,57.0,30.0,30.0,2.0,0.0
4398,67.0,0.0,120.0,0.0,0.0
4399,65.0,11.0,120.0,1.0,0.0
4400,58.0,30.0,30.0,2.0,0.0
4401,94.0,0.0,30.0,12.0,0.0
4402,57.0,0.0,30.0,2.0,0.0
4403,93.0,30.0,30.0,12.0,0.0
4404,58.0,19.0,30.0,2.0,0.0
4405,94.0,0.0,30.0,12.0,0.0
4406,55.0,0.0,30.0,2.0,0.0
4407,91.0,30.0,30.0,12.0,0.0
4408,60.0,30.0,30.0,2.0,0.0
4409,96.0,0.0,30.0,12.0,0.0
4410,58.0,0.0,30.0,2.0,0.0
4411,94.0,30.0,30.0,12.0,0.0
4412,96.0,0.0,30.0,12.0,0.0
4413,67.0,0.0,60.0,0.0,0.0
4414,64.0,4.0,60.0,1.0,0.0
4415,60.0,26.0,30.0,2.0,0.0
4416,55.0,30.0,30.0,2.0,0.0
4417,91.0,0.0,30.0,12.0,0.0
4418,65.0,11.0,120.0,0.0,0.0
4419,93.0,0.0,30.0,12.0,0.0
4420,64.0,0.0,120.0,1.0,0.0
4421,57.0,30.0,30.0,2.0,0.0
4422,91.0,0.0,30.0,12.0,0.0
4423,55.0,30.0,30.0,2.0,0.0
4424,93.0,0.0,30.0,12.0,0.0
4425,57.0,19.0,30.0,2.0,0.0
4426,89.0,0.0,30.0,12.0,0.0
4427,53.0,30.0,30.0,2.0,0.0
4428,58.0,0.0,30.0,2.0,0.0
4429,94.0,30.0,30.0,12.0,0.0
4430,93.0,30.0,30.0,12.0,0.0
4431,57.0,0.0,30.0,2.0,0.0
4432,65.0,4.0,60.0,0.0,0.0
4433,62.0,0.0,60.0,1.0,0.0
4434,58.0,26.0,30.0,2.0,0.0
4435,94.0,0.0,30.0,12.0,0.0
4436,89.0,0.0,30.0,12.0,0.0
4437,53.0,30.0,30.0,2.0,0.0
4438,91.0,0.0,30.0,12.0,0.0
4439,55.0,30.0,30.0,2.0,0.0
4440,62.0,11.0,120.0,1.0,0.0
4441,64.0,0.0,120.0,0.0,0.0
4442,53.0,0.0,30.0,2.0,0.0
4443,89.0,30.0,30.0,12.0,0.0
4444,91.0,0.0,30.0,12.0,0.0
4445,55.0,19.0,30.0,2.0,0.0
4446,88.0,0.0,30.0,12.0,0.0
4447,52.0,30.0,30.0,2.0,0.0
4448,57.0,0.0,30.0,2.0,0.0
4449,93.0,30.0,30.0,12.0,0.0
4450,91.0,30.0,30.0,12.0,0.0
4451,55.0,0.0,30.0,2.0,0.0
4452,57.0,26.0,30.0,2.0,0.0
4453,93.0,0.0,30.0,12.0,0.0
4454,64.0,4.0,60.0,0.0,0.0
4455,60.0,0.0,60.0,1.0,0.0
4456,88.0,0.0,30.0,12.0,0.0
4457,52.0,30.0,30.0,2.0,0.0
4458,62.0,11.0,120.0,0.0,0.0
4459,89.0,30.0,30.0,12.0,0.0
4460,60.0,0.0,120.0,1.0,0.0
4461,53.0,0.0,30.0,2.0,0.0
4462,52.0,30.0,30.0,2.0,0.0
4463,88.0,0.0,30.0,12.0,0.0
4464,89.0,19.0,30.0,12.0,0.0
4465,53.0,0.0,30.0,2.0,0.0
4466,50.0,0.0,30.0,2.0,0.0
4467,86.0,30.0,30.0,12.0,0.0
4468,55.0,30.0,30.0,2.0,0.0
4469,91.0,0.0,30.0,12.0,0.0
4470,89.0,0.0,30.0,12.0,0.0
4471,53.0,30.0,30.0,2.0,0.0
4472,91.0,0.0,30.0,12.0,0.0
4473,58.0,4.0,60.0,1.0,0.0
4474,55.0,26.0,30.0,2.0,0.0
4475,62.0,0.0,60.0,0.0,0.0
4476,50.0,30.0,30.0,2.0,0.0
4477,86.0,0.0,30.0,12.0,0.0
4478,52.0,0.0,30.0,2.0,0.0
4479,60.0,30.0,150.0,0.0,0.0
4480,88.0,30.0,30.0,12.0,0.0
4481,58.0,11.0,120.0,1.0,0.0
4482,86.0,30.0,30.0,12.0,0.0
4483,50.0,0.0,30.0,2.0,0.0
4484,52.0,19.0,30.0,2.0,0.0
4485,88.0,0.0,30.0,12.0,0.0
4486,84.0,30.0,30.0,12.0,0.0
4487,48.0,0.0,30.0,2.0,0.0
4488,57.0,11.0,120.0,1.0,0.0
4489,89.0,0.0,150.0,12.0,0.0
4490,53.0,30.0,150.0,2.0,0.0
4491,65.0,30.0,30.0,0.0,0.0
4492,60.0,19.0,30.0,0.0,0.0
4493,57.0,30.0,30.0,0.0,0.0
4494,58.0,2.0,150.0,0.0,0.0
4495,55.0,11.0,240.0,1.0,0.0
4496,91.0,0.0,30.0,12.0,0.0
4497,55.0,30.0,30.0,2.0,0.0
4498,53.0,30.0,30.0,2.0,0.0
4499,89.0,0.0,30.0,12.0,0.0
4500,55.0,17.0,30.0,2.0,0.0
4501,91.0,0.0,30.0,12.0,0.0
4502,88.0,0.0,15.0,12.0,0.0
4503,52.0,13.0,15.0,2.0,0.0
4504,86.0,0.0,15.0,12.0,0.0
4505,50.0,28.0,15.0,2.0,0.0
4506,52.0,0.0,60.0,2.0,0.0
4507,60.0,25.0,30.0,0.0,0.0
4508,88.0,5.0,60.0,12.0,0.0
4509,58.0,19.0,30.0,0.0,0.0
4510,89.0,30.0,30.0,12.0,0.0
4511,60.0,0.0,30.0,0.0,0.0
4512,53.0,0.0,30.0,2.0,0.0
4513,53.0,0.0,120.0,2.0,0.0
4514,53.0,11.0,120.0,1.0,0.0
4515,57.0,30.0,30.0,0.0,0.0
4516,89.0,0.0,120.0,12.0,0.0
4517,60.0,30.0,30.0,0.0,0.0
4518,57.0,19.0,30.0,0.0,0.0
4519,53.0,30.0,30.0,0.0,0.0
4520,48.0,30.0,30.0,1.0,0.0
4521,53.0,30.0,30.0,1.0,0.0
4522,48.0,30.0,30.0,1.0,0.0
4523,45.0,30.0,30.0,1.0,0.0
4524,53.0,30.0,30.0,0.0,0.0
4525,57.0,30.0,30.0,0.0,0.0
4526,53.0,30.0,30.0,0.0,0.0
4527,48.0,30.0,30.0,0.0,0.0
4528,45.0,30.0,30.0,2.0,0.0
4529,48.0,30.0,30.0,2.0,0.0
4530,45.0,30.0,30.0,2.0,0.0
4531,41.0,60.0,30.0,2.0,0.0
4532,38.0,11.0,120.0,2.0,0.0
4533,53.0,30.0,30.0,0.0,0.0
4534,58.0,19.0,30.0,0.0,0.0
4535,53.0,60.0,30.0,0.0,0.0
4536,55.0,11.0,120.0,0.0,0.0
4537,39.0,0.0,240.0,2.0,0.0
4538,46.0,30.0,30.0,1.0,0.0
4539,51.0,19.0,30.0,1.0,0.0
4540,46.0,60.0,30.0,1.0,0.0
4541,48.0,11.0,120.0,1.0,0.0
4542,55.0,30.0,30.0,0.0,0.0
4543,58.0,19.0,30.0,0.0,0.0
4544,55.0,60.0,30.0,0.0,0.0
4545,57.0,11.0,120.0,0.0,0.0
4546,41.0,11.0,240.0,2.0,0.0
4547,48.0,30.0,30.0,1.0,0.0
4548,53.0,19.0,30.0,1.0,0.0
4549,48.0,60.0,30.0,1.0,0.0
4550,50.0,11.0,180.0,1.0,0.0
4551,57.0,30.0,30.0,0.0,0.0
4552,65.0,19.0,30.0,0.0,0.0
4553,57.0,30.0,30.0,0.0,0.0
4554,58.0,19.0,30.0,0.0,0.0
4555,43.0,11.0,120.0,2.0,0.0
4556,57.0,30.0,30.0,0.0,0.0
4557,51.0,4.0,120.0,1.0,0.0
4558,67.0,19.0,30.0,0.0,0.0
4559,58.0,30.0,30.0,0.0,0.0
4560,45.0,0.0,60.0,2.0,0.0
4561,60.0,26.0,30.0,0.0,0.0
4562,53.0,30.0,30.0,0.0,0.0
4563,65.0,26.0,30.0,0.0,0.0
4564,50.0,4.0,60.0,1.0,0.0
4565,46.0,7.0,120.0,2.0,0.0
4566,67.0,30.0,30.0,0.0,0.0
4567,65.0,19.0,30.0,0.0,0.0
4568,48.0,4.0,60.0,1.0,0.0
4569,67.0,30.0,30.0,0.0,0.0
4570,65.0,26.0,30.0,0.0,0.0
4571,45.0,0.0,60.0,2.0,0.0
4572,53.0,4.0,60.0,1.0,0.0
4573,63.0,30.0,30.0,0.0,0.0
4574,62.0,26.0,30.0,0.0,0.0
4575,53.0,7.0,120.0,1.0,0.0
4576,46.0,4.0,60.0,2.0,0.0
4577,65.0,30.0,30.0,0.0,0.0
4578,70.0,19.0,30.0,0.0,0.0
4579,50.0,4.0,60.0,2.0,0.0
4580,65.0,30.0,30.0,0.0,0.0
4581,67.0,26.0,30.0,0.0,0.0
4582,51.0,4.0,60.0,1.0,0.0
4583,51.0,11.0,120.0,2.0,0.0
4584,70.0,30.0,30.0,0.0,0.0
4585,75.0,19.0,30.0,0.0,0.0
4586,60.0,26.0,90.0,1.0,0.0
4587,67.0,30.0,30.0,0.0,0.0
4588,53.0,7.0,240.0,2.0,0.0
4589,69.0,4.0,60.0,0.0,0.0
4590,63.0,30.0,30.0,1.0,0.0
4591,70.0,13.0,40.0,0.0,0.0
4592,62.0,17.0,30.0,1.0,0.0
4593,65.0,17.0,30.0,1.0,0.0
4594,60.0,2.0,30.0,1.0,0.0
4595,70.0,13.0,15.0,0.0,0.0
4596,69.0,28.0,15.0,0.0,0.0
4597,70.0,24.0,60.0,0.0,0.0
4598,62.0,25.0,30.0,1.0,0.0
4599,63.0,4.0,60.0,1.0,0.0
4600,69.0,30.0,30.0,0.0,0.0
4601,46.0,0.0,30.0,11.0,0.0
4602,53.0,11.0,120.0,2.0,0.0
4603,46.0,30.0,30.0,3.0,0.0
4604,62.0,0.0,120.0,1.0,0.0
4605,70.0,0.0,120.0,0.0,0.0
4606,48.0,30.0,30.0,3.0,0.0
4607,48.0,0.0,30.0,11.0,0.0
4608,50.0,19.0,30.0,3.0,0.0
4609,50.0,0.0,30.0,11.0,0.0
4610,48.0,0.0,30.0,11.0,0.0
4611,48.0,30.0,30.0,3.0,0.0
4612,46.0,0.0,30.0,11.0,0.0
4613,46.0,30.0,30.0,3.0,0.0
4614,48.0,0.0,30.0,11.0,0.0
4615,48.0,30.0,30.0,3.0,0.0
4616,50.0,0.0,30.0,11.0,0.0
4617,50.0,30.0,30.0,3.0,0.0
4618,48.0,0.0,30.0,11.0,0.0
4619,48.0,30.0,30.0,3.0,0.0
4620,46.0,0.0,30.0,3.0,0.0
4621,46.0,30.0,30.0,11.0,0.0
4622,48.0,30.0,30.0,11.0,0.0
4623,48.0,0.0,30.0,3.0,0.0
4624,50.0,30.0,30.0,11.0,0.0
4625,50.0,0.0,30.0,3.0,0.0
4626,48.0,0.0,30.0,3.0,0.0
4627,48.0,30.0,30.0,11.0,0.0
4628,46.0,30.0,30.0,11.0,0.0
4629,46.0,0.0,30.0,3.0,0.0
4630,48.0,0.0,30.0,3.0,0.0
4631,48.0,30.0,30.0,11.0,0.0
4632,50.0,0.0,30.0,3.0,0.0
4633,50.0,30.0,30.0,11.0,0.0
4634,48.0,0.0,30.0,3.0,0.0
4635,48.0,30.0,30.0,11.0,0.0
4636,74.0,30.0,30.0,0.0,0.0
4637,46.0,11.0,120.0,3.0,0.0
4638,58.0,0.0,30.0,2.0,0.0
4639,46.0,0.0,120.0,11.0,0.0
4640,65.0,0.0,30.0,0.0,0.0
4641,60.0,30.0,30.0,2.0,0.0
4642,62.0,0.0,30.0,2.0,0.0
4643,70.0,19.0,30.0,0.0,0.0
4644,65.0,30.0,30.0,0.0,0.0
4645,60.0,0.0,30.0,2.0,0.0
4646,58.0,0.0,30.0,2.0,0.0
4647,74.0,30.0,30.0,0.0,0.0
4648,60.0,30.0,30.0,2.0,0.0
4649,65.0,0.0,30.0,0.0,0.0
4650,70.0,30.0,30.0,0.0,0.0
4651,62.0,0.0,30.0,2.0,0.0
4652,60.0,0.0,30.0,2.0,0.0
4653,65.0,30.0,30.0,0.0,0.0
4654,58.0,0.0,30.0,2.0,0.0
4655,74.0,30.0,30.0,0.0,0.0
4656,65.0,30.0,30.0,0.0,0.0
4657,60.0,0.0,30.0,2.0,0.0
4658,62.0,0.0,30.0,2.0,0.0
4659,70.0,30.0,30.0,0.0,0.0
4660,60.0,0.0,30.0,2.0,0.0
4661,65.0,30.0,30.0,0.0,0.0
4662,58.0,4.0,60.0,2.0,0.0
4663,74.0,0.0,60.0,0.0,0.0
4664,55.0,0.0,30.0,3.0,0.0
4665,55.0,26.0,30.0,11.0,0.0
4666,53.0,0.0,30.0,3.0,0.0
4667,53.0,30.0,30.0,11.0,0.0
4668,58.0,4.0,60.0,2.0,0.0
4669,55.0,0.0,30.0,3.0,0.0
4670,55.0,26.0,30.0,11.0,0.0
4671,74.0,0.0,60.0,0.0,0.0
4672,70.0,0.0,60.0,1.0,0.0
4673,50.0,30.0,30.0,3.0,0.0
4674,50.0,0.0,30.0,11.0,0.0
4675,58.0,0.0,120.0,2.0,0.0
4676,51.0,0.0,30.0,3.0,0.0
4677,72.0,0.0,120.0,0.0,0.0
4678,67.0,11.0,120.0,1.0,0.0
4679,51.0,30.0,30.0,11.0,0.0
4680,50.0,30.0,30.0,3.0,0.0
4681,50.0,0.0,30.0,11.0,0.0
4682,51.0,19.0,30.0,11.0,0.0
4683,51.0,0.0,30.0,3.0,0.0
4684,48.0,0.0,30.0,11.0,0.0
4685,48.0,30.0,30.0,3.0,0.0
4686,53.0,30.0,30.0,11.0,0.0
4687,53.0,0.0,30.0,3.0,0.0
4688,51.0,0.0,30.0,3.0,0.0
4689,51.0,30.0,30.0,11.0,0.0
4690,72.0,0.0,60.0,0.0,0.0
4691,69.0,0.0,60.0,1.0,0.0
4692,53.0,0.0,30.0,3.0,0.0
4693,57.0,4.0,60.0,2.0,0.0
4694,53.0,26.0,30.0,11.0,0.0
4695,48.0,0.0,30.0,11.0,0.0
4696,48.0,30.0,30.0,3.0,0.0
4697,57.0,0.0,120.0,2.0,0.0
4698,50.0,0.0,30.0,3.0,0.0
4699,65.0,0.0,120.0,1.0,0.0
4700,70.0,11.0,120.0,0.0,0.0
4701,50.0,30.0,30.0,11.0,0.0
4702,48.0,0.0,30.0,3.0,0.0
4703,48.0,30.0,30.0,11.0,0.0
4704,50.0,19.0,30.0,11.0,0.0
4705,50.0,0.0,30.0,3.0,0.0
4706,46.0,0.0,30.0,11.0,0.0
4707,46.0,30.0,30.0,3.0,0.0
4708,51.0,30.0,30.0,3.0,0.0
4709,51.0,0.0,30.0,11.0,0.0
4710,50.0,0.0,30.0,11.0,0.0
4711,50.0,30.0,30.0,3.0,0.0
4712,51.0,0.0,30.0,11.0,0.0
4713,67.0,0.0,60.0,1.0,0.0
4714,55.0,4.0,60.0,2.0,0.0
4715,51.0,26.0,30.0,3.0,0.0
4716,70.0,0.0,60.0,0.0,0.0
4717,46.0,30.0,30.0,11.0,0.0
4718,46.0,0.0,30.0,3.0,0.0
4719,48.0,30.0,30.0,11.0,0.0
4720,63.0,11.0,120.0,1.0,0.0
4721,55.0,0.0,120.0,2.0,0.0
4722,69.0,0.0,120.0,0.0,0.0
4723,48.0,0.0,30.0,3.0,0.0
4724,46.0,0.0,30.0,3.0,0.0
4725,46.0,30.0,30.0,11.0,0.0
4726,48.0,0.0,30.0,11.0,0.0
4727,48.0,19.0,30.0,3.0,0.0
4728,45.0,30.0,30.0,3.0,0.0
4729,45.0,0.0,30.0,11.0,0.0
4730,50.0,30.0,30.0,11.0,0.0
4731,50.0,0.0,30.0,3.0,0.0
4732,48.0,0.0,30.0,3.0,0.0
4733,48.0,30.0,30.0,11.0,0.0
4734,65.0,4.0,60.0,1.0,0.0
4735,50.0,26.0,30.0,3.0,0.0
4736,50.0,0.0,30.0,11.0,0.0
4737,53.0,0.0,60.0,2.0,0.0
4738,69.0,0.0,60.0,0.0,0.0
4739,45.0,30.0,30.0,11.0,0.0
4740,45.0,0.0,30.0,3.0,0.0
4741,46.0,30.0,30.0,3.0,0.0
4742,53.0,11.0,120.0,2.0,0.0
4743,62.0,0.0,120.0,1.0,0.0
4744,67.0,0.0,120.0,0.0,0.0
4745,46.0,0.0,30.0,11.0,0.0
4746,45.0,0.0,30.0,11.0,0.0
4747,45.0,30.0,30.0,3.0,0.0
4748,46.0,0.0,30.0,3.0,0.0
4749,46.0,19.0,30.0,11.0,0.0
4750,43.0,0.0,30.0,3.0,0.0
4751,43.0,30.0,30.0,11.0,0.0
4752,48.0,0.0,30.0,3.0,0.0
4753,48.0,30.0,30.0,11.0,0.0
4754,46.0,0.0,30.0,11.0,0.0
4755,46.0,30.0,30.0,3.0,0.0
4756,67.0,0.0,60.0,0.0,0.0
4757,63.0,4.0,60.0,1.0,0.0
4758,48.0,26.0,30.0,3.0,0.0
4759,51.0,0.0,60.0,2.0,0.0
4760,48.0,0.0,30.0,11.0,0.0
4761,43.0,0.0,30.0,11.0,0.0
4762,43.0,30.0,30.0,3.0,0.0
4763,51.0,11.0,120.0,2.0,0.0
4764,45.0,30.0,30.0,11.0,0.0
4765,60.0,0.0,120.0,1.0,0.0
4766,45.0,0.0,30.0,3.0,0.0
4767,65.0,26.0,150.0,0.0,0.0
4768,43.0,0.0,30.0,3.0,0.0
4769,43.0,30.0,30.0,11.0,0.0
4770,45.0,0.0,30.0,11.0,0.0
4771,45.0,19.0,30.0,3.0,0.0
4772,41.0,0.0,30.0,11.0,0.0
4773,41.0,30.0,30.0,3.0,0.0
4774,46.0,30.0,150.0,3.0,0.0
4775,58.0,0.0,60.0,1.0,0.0
4776,50.0,30.0,60.0,2.0,0.0
4777,46.0,0.0,150.0,11.0,0.0
4778,70.0,30.0,60.0,0.0,0.0
4779,53.0,0.0,60.0,2.0,0.0
4780,62.0,4.0,60.0,1.0,0.0
4781,70.0,30.0,30.0,0.0,0.0
4782,55.0,0.0,120.0,2.0,0.0
4783,63.0,11.0,120.0,1.0,0.0
4784,72.0,2.0,150.0,0.0,0.0
4785,48.0,0.0,30.0,11.0,0.0
4786,48.0,30.0,30.0,3.0,0.0
4787,46.0,0.0,30.0,11.0,0.0
4788,46.0,19.0,30.0,3.0,0.0
4789,48.0,0.0,30.0,11.0,0.0
4790,48.0,17.0,30.0,3.0,0.0
4791,45.0,13.0,15.0,11.0,0.0
4792,53.0,7.0,120.0,2.0,0.0
4793,45.0,0.0,15.0,3.0,0.0
4794,43.0,0.0,15.0,3.0,0.0
4795,43.0,54.0,15.0,11.0,0.0
4796,45.0,2.0,60.0,3.0,0.0
4797,45.0,0.0,60.0,11.0,0.0
4798,72.0,21.0,60.0,0.0,0.0
4799,63.0,34.0,60.0,1.0,0.0
4800,72.0,26.0,60.0,0.0,0.0
4801,62.0,30.0,60.0,1.0,0.0
4802,53.0,0.0,120.0,2.0,0.0
4803,46.0,7.0,120.0,11.0,0.0
4804,46.0,0.0,120.0,3.0,0.0
4805,72.0,23.0,60.0,0.0,0.0
4806,62.0,4.0,60.0,1.0,0.0
4807,72.0,56.0,30.0,0.0,0.0
4808,62.0,30.0,60.0,1.0,0.0
4809,70.0,30.0,60.0,0.0,0.0
4810,50.0,0.0,60.0,3.0,0.0
4811,50.0,0.0,60.0,11.0,0.0
4812,53.0,4.0,60.0,2.0,0.0
4813,62.0,0.0,60.0,1.0,0.0
4814,70.0,56.0,30.0,0.0,0.0
4815,55.0,0.0,120.0,2.0,0.0
4816,52.0,0.0,120.0,3.0,0.0
4817,52.0,7.0,120.0,11.0,0.0
4818,60.0,30.0,60.0,1.0,0.0
4819,70.0,23.0,60.0,0.0,0.0
4820,60.0,4.0,60.0,1.0,0.0
4821,70.0,56.0,30.0,0.0,0.0
4822,60.0,30.0,60.0,1.0,0.0
4823,69.0,30.0,60.0,0.0,0.0
4824,54.0,0.0,60.0,11.0,0.0
4825,54.0,34.0,60.0,3.0,0.0
4826,60.0,0.0,60.0,1.0,0.0
4827,57.0,0.0,60.0,2.0,0.0
4828,69.0,26.0,60.0,0.0,0.0
4829,58.0,0.0,120.0,2.0,0.0
4830,55.0,0.0,120.0,11.0,0.0
4831,58.0,30.0,60.0,1.0,0.0
4832,55.0,7.0,120.0,3.0,0.0
4833,69.0,23.0,60.0,0.0,0.0
4834,58.0,4.0,60.0,1.0,0.0
4835,69.0,56.0,30.0,0.0,0.0
4836,58.0,30.0,60.0,1.0,0.0
4837,67.0,30.0,60.0,0.0,0.0
4838,55.0,0.0,60.0,2.0,0.0
4839,58.0,0.0,60.0,1.0,0.0
4840,51.0,0.0,60.0,3.0,0.0
4841,51.0,4.0,60.0,11.0,0.0
4842,67.0,56.0,30.0,0.0,0.0
4843,57.0,30.0,60.0,1.0,0.0
4844,48.0,0.0,120.0,11.0,0.0
4845,48.0,0.0,120.0,3.0,0.0
4846,51.0,7.0,120.0,2.0,0.0
4847,67.0,23.0,60.0,0.0,0.0
4848,57.0,4.0,60.0,1.0,0.0
4849,67.0,56.0,30.0,0.0,0.0
4850,57.0,30.0,60.0,1.0,0.0
4851,66.0,30.0,60.0,0.0,0.0
4852,50.0,0.0,60.0,11.0,0.0
4853,57.0,4.0,60.0,1.0,0.0
4854,50.0,0.0,60.0,3.0,0.0
4855,50.0,0.0,60.0,2.0,0.0
4856,66.0,30.0,30.0,0.0,0.0
4857,58.0,0.0,120.0,1.0,0.0
4858,50.0,11.0,120.0,2.0,0.0
4859,43.0,30.0,30.0,11.0,0.0
4860,67.0,0.0,120.0,0.0,0.0
4861,43.0,0.0,30.0,3.0,0.0
4862,45.0,0.0,30.0,3.0,0.0
4863,45.0,30.0,30.0,11.0,0.0
4864,46.0,0.0,30.0,11.0,0.0
4865,46.0,19.0,30.0,3.0,0.0
4866,45.0,0.0,30.0,11.0,0.0
4867,45.0,30.0,30.0,3.0,0.0
4868,43.0,30.0,30.0,11.0,0.0
4869,43.0,0.0,30.0,3.0,0.0
4870,45.0,0.0,30.0,3.0,0.0
4871,45.0,30.0,30.0,11.0,0.0
4872,46.0,0.0,30.0,3.0,0.0
4873,46.0,30.0,30.0,11.0,0.0
4874,45.0,0.0,30.0,11.0,0.0
4875,45.0,30.0,30.0,3.0,0.0
4876,43.0,0.0,30.0,11.0,0.0
4877,43.0,30.0,30.0,3.0,0.0
4878,45.0,30.0,30.0,11.0,0.0
4879,45.0,0.0,30.0,3.0,0.0
4880,46.0,0.0,30.0,11.0,0.0
4881,46.0,30.0,30.0,3.0,0.0
4882,45.0,0.0,30.0,11.0,0.0
4883,45.0,30.0,30.0,3.0,0.0
4884,43.0,0.0,30.0,3.0,0.0
4885,43.0,30.0,30.0,11.0,0.0
4886,45.0,30.0,30.0,3.0,0.0
4887,45.0,0.0,30.0,11.0,0.0
4888,46.0,0.0,30.0,11.0,0.0
4889,46.0,30.0,30.0,3.0,0.0
4890,45.0,30.0,30.0,3.0,0.0
4891,45.0,0.0,30.0,11.0,0.0
4892,55.0,30.0,30.0,2.0,0.0
4893,43.0,11.0,120.0,3.0,0.0
4894,43.0,0.0,120.0,11.0,0.0
4895,58.0,0.0,30.0,1.0,0.0
4896,62.0,0.0,30.0,1.0,0.0
4897,57.0,30.0,30.0,2.0,0.0
4898,67.0,0.0,30.0,1.0,0.0
4899,58.0,19.0,30.0,2.0,0.0
4900,62.0,0.0,30.0,1.0,0.0
4901,57.0,30.0,30.0,2.0,0.0
4902,55.0,0.0,30.0,2.0,0.0
4903,58.0,30.0,30.0,1.0,0.0
4904,57.0,0.0,30.0,2.0,0.0
4905,62.0,30.0,30.0,1.0,0.0
4906,67.0,0.0,30.0,1.0,0.0
4907,58.0,30.0,30.0,2.0,0.0
4908,57.0,0.0,30.0,2.0,0.0
4909,62.0,30.0,30.0,1.0,0.0
4910,55.0,30.0,30.0,2.0,0.0
4911,58.0,0.0,30.0,1.0,0.0
4912,62.0,0.0,30.0,1.0,0.0
4913,57.0,30.0,30.0,2.0,0.0
4914,67.0,0.0,30.0,1.0,0.0
4915,58.0,30.0,30.0,2.0,0.0
4916,62.0,30.0,30.0,1.0,0.0
4917,57.0,0.0,30.0,2.0,0.0
4918,55.0,0.0,30.0,2.0,0.0
4919,58.0,30.0,30.0,1.0,0.0
4920,57.0,0.0,30.0,2.0,0.0
4921,62.0,30.0,30.0,1.0,0.0
4922,58.0,30.0,30.0,2.0,0.0
4923,67.0,0.0,30.0,1.0,0.0
4924,57.0,90.0,30.0,2.0,0.0
4925,62.0,0.0,30.0,1.0,0.0
4926,58.0,11.0,120.0,1.0,0.0
4927,55.0,0.0,120.0,2.0,0.0
4928,79.0,19.0,30.0,0.0,0.0
4929,78.0,30.0,30.0,0.0,0.0
4930,79.0,30.0,30.0,0.0,0.0
4931,78.0,30.0,30.0,0.0,0.0
4932,57.0,0.0,60.0,2.0,0.0
4933,79.0,26.0,30.0,0.0,0.0
4934,60.0,4.0,60.0,1.0,0.0
4935,78.0,56.0,30.0,0.0,0.0
4936,79.0,53.0,60.0,0.0,0.0
4937,58.0,0.0,120.0,2.0,0.0
4938,62.0,7.0,120.0,1.0,0.0
4939,67.0,34.0,60.0,0.0,0.0
4940,51.0,0.0,30.0,11.0,0.0
4941,51.0,30.0,30.0,3.0,0.0
4942,50.0,0.0,30.0,11.0,0.0
4943,50.0,30.0,30.0,3.0,0.0
4944,67.0,4.0,60.0,1.0,0.0
4945,51.0,26.0,30.0,11.0,0.0
4946,51.0,0.0,30.0,3.0,0.0
4947,58.0,0.0,60.0,2.0,0.0
4948,46.0,0.0,30.0,3.0,0.0
4949,46.0,30.0,30.0,11.0,0.0
4950,48.0,0.0,30.0,3.0,0.0
4951,67.0,11.0,120.0,1.0,0.0
4952,57.0,0.0,120.0,2.0,0.0
4953,48.0,30.0,30.0,11.0,0.0
4954,46.0,0.0,30.0,3.0,0.0
4955,46.0,30.0,30.0,11.0,0.0
4956,48.0,0.0,30.0,3.0,0.0
4957,48.0,19.0,30.0,11.0,0.0
4958,45.0,30.0,30.0,3.0,0.0
4959,45.0,0.0,30.0,11.0,0.0
4960,50.0,30.0,30.0,11.0,0.0
4961,50.0,0.0,30.0,3.0,0.0
4962,48.0,30.0,30.0,3.0,0.0
4963,48.0,0.0,30.0,11.0,0.0
4964,57.0,0.0,60.0,2.0,0.0
4965,50.0,26.0,30.0,11.0,0.0
4966,65.0,4.0,60.0,1.0,0.0
4967,50.0,0.0,30.0,3.0,0.0
4968,45.0,30.0,30.0,3.0,0.0
4969,45.0,0.0,30.0,11.0,0.0
4970,46.0,30.0,30.0,3.0,0.0
4971,65.0,11.0,120.0,1.0,0.0
4972,55.0,0.0,120.0,2.0,0.0
4973,46.0,0.0,30.0,11.0,0.0
4974,45.0,30.0,30.0,3.0,0.0
4975,45.0,0.0,30.0,11.0,0.0
4976,46.0,0.0,30.0,3.0,0.0
4977,46.0,19.0,30.0,11.0,0.0
4978,43.0,0.0,30.0,3.0,0.0
4979,43.0,30.0,30.0,11.0,0.0
4980,48.0,0.0,30.0,3.0,0.0
4981,48.0,30.0,30.0,11.0,0.0
4982,46.0,0.0,30.0,11.0,0.0
4983,46.0,30.0,30.0,3.0,0.0
4984,48.0,26.0,30.0,11.0,0.0
4985,63.0,0.0,60.0,1.0,0.0
4986,48.0,0.0,30.0,3.0,0.0
4987,55.0,4.0,60.0,2.0,0.0
4988,43.0,0.0,30.0,3.0,0.0
4989,43.0,30.0,30.0,11.0,0.0
4990,45.0,0.0,30.0,3.0,0.0
4991,45.0,30.0,30.0,11.0,0.0
4992,53.0,0.0,120.0,2.0,0.0
4993,63.0,11.0,120.0,1.0,0.0
4994,43.0,0.0,30.0,3.0,0.0
4995,43.0,30.0,30.0,11.0,0.0
4996,45.0,0.0,30.0,3.0,0.0
4997,45.0,19.0,30.0,11.0,0.0
4998,41.0,0.0,30.0,11.0,0.0
4999,41.0,30.0,30.0,3.0,0.0
5000,46.0,0.0,30.0,3.0,0.0
5001,46.0,30.0,30.0,11.0,0.0
5002,45.0,0.0,30.0,3.0,0.0
5003,45.0,30.0,30.0,11.0,0.0
5004,46.0,26.0,30.0,3.0,0.0
5005,53.0,0.0,60.0,2.0,0.0
5006,46.0,0.0,30.0,11.0,0.0
5007,62.0,4.0,60.0,1.0,0.0
5008,41.0,0.0,30.0,11.0,0.0
5009,41.0,30.0,30.0,3.0,0.0
5010,62.0,0.0,120.0,1.0,0.0
5011,43.0,30.0,30.0,11.0,0.0
5012,43.0,0.0,30.0,3.0,0.0
5013,52.0,11.0,120.0,2.0,0.0
5014,41.0,0.0,30.0,11.0,0.0
5015,41.0,30.0,30.0,3.0,0.0
5016,43.0,19.0,30.0,11.0,0.0
5017,43.0,0.0,30.0,3.0,0.0
5018,40.0,0.0,30.0,3.0,0.0
5019,40.0,30.0,30.0,11.0,0.0
5020,45.0,30.0,30.0,3.0,0.0
5021,45.0,0.0,30.0,11.0,0.0
5022,43.0,30.0,30.0,11.0,0.0
5023,43.0,0.0,30.0,3.0,0.0
5024,45.0,26.0,30.0,11.0,0.0
5025,60.0,0.0,60.0,1.0,0.0
5026,52.0,4.0,60.0,2.0,0.0
5027,45.0,0.0,30.0,3.0,0.0
5028,40.0,0.0,30.0,11.0,0.0
5029,40.0,30.0,30.0,3.0,0.0
5030,42.0,0.0,30.0,11.0,0.0
5031,42.0,30.0,30.0,3.0,0.0
5032,60.0,0.0,120.0,1.0,0.0
5033,50.0,11.0,120.0,2.0,0.0
5034,40.0,0.0,30.0,11.0,0.0
5035,40.0,30.0,30.0,3.0,0.0
5036,42.0,0.0,30.0,3.0,0.0
5037,42.0,19.0,30.0,11.0,0.0
5038,38.0,0.0,30.0,11.0,0.0
5039,38.0,30.0,30.0,3.0,0.0
5040,46.0,4.0,60.0,3.0,0.0
5041,46.0,0.0,60.0,11.0,0.0
5042,75.0,26.0,30.0,0.0,0.0
5043,74.0,30.0,30.0,0.0,0.0
5044,46.0,4.0,60.0,11.0,0.0
5045,46.0,0.0,60.0,3.0,0.0
5046,75.0,26.0,30.0,0.0,0.0
5047,58.0,0.0,60.0,1.0,0.0
5048,70.0,30.0,30.0,0.0,0.0
5049,57.0,0.0,120.0,1.0,0.0
5050,46.0,0.0,120.0,11.0,0.0
5051,46.0,11.0,120.0,3.0,0.0
5052,72.0,30.0,30.0,0.0,0.0
5053,70.0,30.0,30.0,0.0,0.0
5054,72.0,19.0,30.0,0.0,0.0
5055,69.0,30.0,30.0,0.0,0.0
5056,74.0,30.0,30.0,0.0,0.0
5057,72.0,30.0,30.0,0.0,0.0
5058,42.0,0.0,60.0,3.0,0.0
5059,42.0,4.0,60.0,11.0,0.0
5060,57.0,0.0,60.0,1.0,0.0
5061,74.0,26.0,30.0,0.0,0.0
5062,69.0,30.0,30.0,0.0,0.0
5063,43.0,11.0,120.0,3.0,0.0
5064,70.0,30.0,30.0,0.0,0.0
5065,55.0,0.0,120.0,1.0,0.0
5066,43.0,0.0,120.0,11.0,0.0
5067,69.0,30.0,30.0,0.0,0.0
5068,70.0,19.0,30.0,0.0,0.0
5069,67.0,30.0,30.0,0.0,0.0
5070,70.0,4.0,60.0,0.0,0.0
5071,63.0,26.0,30.0,2.0,0.0
5072,62.0,30.0,30.0,2.0,0.0
5073,63.0,26.0,30.0,2.0,0.0
5074,70.0,0.0,60.0,0.0,0.0
5075,67.0,4.0,60.0,1.0,0.0
5076,58.0,30.0,30.0,2.0,0.0
5077,69.0,0.0,120.0,0.0,0.0
5078,67.0,11.0,120.0,1.0,0.0
5079,60.0,30.0,30.0,2.0,0.0
5080,58.0,30.0,30.0,2.0,0.0
5081,60.0,19.0,30.0,2.0,0.0
5082,57.0,30.0,30.0,2.0,0.0
5083,62.0,30.0,30.0,2.0,0.0
5084,60.0,30.0,30.0,2.0,0.0
5085,69.0,0.0,60.0,0.0,0.0
5086,62.0,26.0,30.0,2.0,0.0
5087,66.0,4.0,60.0,1.0,0.0
5088,57.0,30.0,30.0,2.0,0.0
5089,67.0,11.0,120.0,1.0,0.0
5090,67.0,30.0,30.0,0.0,0.0
5091,58.0,0.0,120.0,2.0,0.0
5092,79.0,30.0,30.0,0.0,0.0
5093,78.0,19.0,30.0,0.0,0.0
5094,79.0,60.0,30.0,0.0,0.0
5095,70.0,30.0,150.0,0.0,0.0
5096,67.0,30.0,30.0,1.0,0.0
5097,66.0,60.0,30.0,1.0,0.0
5098,67.0,30.0,180.0,1.0,0.0
5099,60.0,11.0,120.0,2.0,0.0
5100,79.0,30.0,30.0,0.0,0.0
5101,78.0,19.0,30.0,0.0,0.0
5102,79.0,30.0,30.0,0.0,0.0
5103,70.0,30.0,150.0,0.0,0.0
5104,67.0,30.0,30.0,1.0,0.0
5105,66.0,60.0,30.0,1.0,0.0
5106,67.0,30.0,180.0,1.0,0.0
5107,62.0,11.0,120.0,2.0,0.0
5108,79.0,30.0,30.0,0.0,0.0
5109,78.0,19.0,30.0,0.0,0.0
5110,79.0,30.0,30.0,0.0,0.0
5111,70.0,30.0,150.0,0.0,0.0
5112,67.0,30.0,30.0,1.0,0.0
5113,66.0,60.0,30.0,1.0,0.0
5114,67.0,30.0,180.0,1.0,0.0
5115,63.0,11.0,120.0,2.0,0.0
5116,79.0,30.0,30.0,0.0,0.0
5117,78.0,19.0,30.0,0.0,0.0
5118,79.0,30.0,30.0,0.0,0.0
5119,70.0,30.0,150.0,0.0,0.0
5120,67.0,30.0,30.0,1.0,0.0
5121,66.0,60.0,30.0,1.0,0.0
5122,67.0,11.0,120.0,1.0,0.0
5123,64.0,30.0,150.0,2.0,0.0
5124,79.0,30.0,30.0,0.0,0.0
5125,78.0,19.0,30.0,0.0,0.0
5126,79.0,30.0,30.0,0.0,0.0
5127,73.0,11.0,120.0,0.0,0.0
5128,69.0,30.0,30.0,2.0,0.0
5129,67.0,19.0,30.0,2.0,0.0
5130,69.0,60.0,30.0,2.0,0.0
5131,65.0,11.0,120.0,2.0,0.0
5132,69.0,30.0,30.0,0.0,0.0
5133,74.0,19.0,30.0,0.0,0.0
5134,69.0,60.0,30.0,0.0,0.0
5135,70.0,11.0,120.0,0.0,0.0
5136,62.0,30.0,30.0,2.0,0.0
5137,67.0,19.0,30.0,2.0,0.0
5138,64.0,60.0,30.0,2.0,0.0
5139,61.0,11.0,120.0,2.0,0.0
5140,64.0,30.0,30.0,0.0,0.0
5141,70.0,19.0,30.0,0.0,0.0
5142,64.0,60.0,30.0,0.0,0.0
5143,65.0,11.0,120.0,0.0,0.0
5144,57.0,30.0,30.0,2.0,0.0
5145,62.0,19.0,30.0,2.0,0.0
5146,58.0,60.0,30.0,2.0,0.0
5147,55.0,11.0,180.0,2.0,0.0
5148,70.0,30.0,30.0,0.0,0.0
5149,75.0,30.0,30.0,0.0,0.0
5150,74.0,30.0,30.0,0.0,0.0
5151,73.0,19.0,30.0,0.0,0.0
5152,69.0,30.0,30.0,0.0,0.0
5153,74.0,26.0,30.0,0.0,0.0
5154,53.0,4.0,60.0,2.0,0.0
5155,69.0,30.0,30.0,0.0,0.0
5156,70.0,26.0,30.0,0.0,0.0
5157,55.0,4.0,60.0,2.0,0.0
5158,74.0,30.0,30.0,0.0,0.0
5159,52.0,4.0,60.0,2.0,0.0
5160,73.0,26.0,30.0,0.0,0.0
5161,74.0,30.0,30.0,0.0,0.0
5162,65.0,26.0,30.0,0.0,0.0
5163,57.0,4.0,60.0,2.0,0.0
5164,74.0,30.0,30.0,0.0,0.0
5165,64.0,26.0,30.0,0.0,0.0
5166,45.0,4.0,60.0,2.0,0.0
5167,73.0,30.0,30.0,0.0,0.0
5168,74.0,4.0,60.0,0.0,0.0
5169,50.0,11.0,120.0,2.0,0.0
5170,62.0,26.0,30.0,1.0,0.0
5171,64.0,30.0,30.0,1.0,0.0
5172,65.0,19.0,30.0,1.0,0.0
5173,64.0,30.0,30.0,1.0,0.0
5174,62.0,30.0,30.0,1.0,0.0
5175,64.0,30.0,30.0,1.0,0.0
5176,65.0,26.0,30.0,1.0,0.0
5177,52.0,4.0,60.0,2.0,0.0
5178,64.0,30.0,30.0,1.0,0.0
5179,53.0,4.0,60.0,2.0,0.0
5180,62.0,26.0,30.0,1.0,0.0
5181,64.0,30.0,30.0,1.0,0.0
5182,65.0,26.0,30.0,1.0,0.0
5183,55.0,4.0,60.0,2.0,0.0
5184,64.0,30.0,30.0,1.0,0.0
5185,62.0,26.0,30.0,1.0,0.0
5186,57.0,4.0,60.0,2.0,0.0
5187,64.0,30.0,30.0,1.0,0.0
5188,65.0,26.0,30.0,1.0,0.0
5189,45.0,4.0,60.0,2.0,0.0
5190,64.0,90.0,30.0,1.0,0.0
5191,62.0,0.0,120.0,1.0,0.0
5192,50.0,11.0,120.0,2.0,0.0
5193,50.0,0.0,30.0,3.0,0.0
5194,50.0,19.0,30.0,11.0,0.0
5195,49.0,30.0,30.0,3.0,0.0
5196,49.0,0.0,30.0,11.0,0.0
5197,50.0,0.0,30.0,3.0,0.0
5198,50.0,30.0,30.0,11.0,0.0
5199,49.0,30.0,30.0,3.0,0.0
5200,49.0,0.0,30.0,11.0,0.0
5201,50.0,0.0,30.0,11.0,0.0
5202,50.0,30.0,30.0,3.0,0.0
5203,49.0,0.0,30.0,11.0,0.0
5204,49.0,56.0,30.0,3.0,0.0
5205,50.0,0.0,60.0,11.0,0.0
5206,50.0,60.0,60.0,3.0,0.0
5207,38.0,34.0,60.0,3.0,0.0
5208,38.0,0.0,60.0,11.0,0.0
5209,70.0,30.0,30.0,1.0,0.0
5210,69.0,30.0,30.0,1.0,0.0
5211,50.0,0.0,60.0,3.0,0.0
5212,53.0,0.0,60.0,2.0,0.0
5213,50.0,4.0,60.0,11.0,0.0
5214,70.0,26.0,30.0,1.0,0.0
5215,65.0,30.0,30.0,1.0,0.0
5216,50.0,11.0,120.0,11.0,0.0
5217,67.0,30.0,30.0,1.0,0.0
5218,52.0,0.0,120.0,2.0,0.0
5219,50.0,0.0,120.0,3.0,0.0
5220,65.0,30.0,30.0,1.0,0.0
5221,67.0,19.0,30.0,1.0,0.0
5222,64.0,30.0,30.0,1.0,0.0
5223,69.0,30.0,30.0,1.0,0.0
5224,67.0,30.0,30.0,1.0,0.0
5225,48.0,0.0,60.0,3.0,0.0
5226,52.0,4.0,60.0,2.0,0.0
5227,69.0,26.0,30.0,1.0,0.0
5228,48.0,0.0,60.0,11.0,0.0
5229,64.0,30.0,30.0,1.0,0.0
5230,48.0,11.0,120.0,11.0,0.0
5231,48.0,0.0,120.0,3.0,0.0
5232,65.0,30.0,30.0,1.0,0.0
5233,50.0,0.0,120.0,2.0,0.0
5234,64.0,30.0,30.0,1.0,0.0
5235,65.0,19.0,30.0,1.0,0.0
5236,62.0,30.0,30.0,1.0,0.0
5237,67.0,30.0,30.0,1.0,0.0
5238,65.0,30.0,30.0,1.0,0.0
5239,46.0,0.0,60.0,3.0,0.0
5240,50.0,0.0,60.0,2.0,0.0
5241,67.0,26.0,30.0,1.0,0.0
5242,46.0,4.0,60.0,11.0,0.0
5243,62.0,30.0,30.0,1.0,0.0
5244,48.0,0.0,120.0,2.0,0.0
5245,46.0,11.0,120.0,11.0,0.0
5246,64.0,30.0,30.0,1.0,0.0
5247,46.0,0.0,120.0,3.0,0.0
5248,62.0,30.0,30.0,1.0,0.0
5249,64.0,19.0,30.0,1.0,0.0
5250,60.0,30.0,30.0,1.0,0.0
5251,65.0,30.0,30.0,1.0,0.0
5252,64.0,30.0,30.0,1.0,0.0
5253,45.0,0.0,60.0,3.0,0.0
5254,45.0,4.0,60.0,11.0,0.0
5255,48.0,0.0,60.0,2.0,0.0
5256,65.0,26.0,30.0,1.0,0.0
5257,60.0,30.0,30.0,1.0,0.0
5258,45.0,0.0,120.0,11.0,0.0
5259,45.0,0.0,120.0,3.0,0.0
5260,47.0,11.0,120.0,2.0,0.0
5261,62.0,30.0,30.0,1.0,0.0
5262,60.0,30.0,30.0,1.0,0.0
5263,62.0,19.0,30.0,1.0,0.0
5264,59.0,30.0,30.0,1.0,0.0
5265,64.0,30.0,30.0,1.0,0.0
5266,62.0,30.0,30.0,1.0,0.0
5267,47.0,0.0,60.0,2.0,0.0
5268,64.0,26.0,30.0,1.0,0.0
5269,43.0,0.0,60.0,3.0,0.0
5270,43.0,4.0,60.0,11.0,0.0
5271,59.0,30.0,30.0,1.0,0.0
5272,61.0,30.0,30.0,1.0,0.0
5273,45.0,26.0,150.0,2.0,0.0
5274,43.0,11.0,120.0,3.0,0.0
5275,43.0,0.0,120.0,11.0,0.0
5276,59.0,30.0,30.0,1.0,0.0
5277,61.0,19.0,30.0,1.0,0.0
5278,57.0,30.0,30.0,1.0,0.0
5279,41.0,0.0,120.0,3.0,0.0
5280,41.0,7.0,120.0,11.0,0.0
5281,62.0,4.0,60.0,1.0,0.0
5282,50.0,30.0,30.0,2.0,0.0
5283,49.0,19.0,30.0,2.0,0.0
5284,69.0,4.0,60.0,1.0,0.0
5285,50.0,30.0,30.0,2.0,0.0
5286,43.0,0.0,120.0,11.0,0.0
5287,43.0,11.0,120.0,3.0,0.0
5288,70.0,30.0,30.0,1.0,0.0
5289,52.0,0.0,30.0,2.0,0.0
5290,61.0,30.0,30.0,1.0,0.0
5291,62.0,0.0,30.0,1.0,0.0
5292,53.0,19.0,30.0,2.0,0.0
5293,64.0,21.0,30.0,1.0,0.0
5294,55.0,0.0,30.0,2.0,0.0
5295,52.0,0.0,15.0,2.0,0.0
5296,45.0,0.0,120.0,3.0,0.0
5297,61.0,20.0,15.0,1.0,0.0
5298,45.0,11.0,120.0,11.0,0.0
5299,50.0,0.0,20.0,2.0,0.0
5300,59.0,49.0,20.0,1.0,0.0
5301,61.0,0.0,40.0,1.0,0.0
5302,52.0,19.0,40.0,2.0,0.0
5303,62.0,0.0,30.0,1.0,0.0
5304,53.0,56.0,30.0,2.0,0.0
5305,38.0,7.0,120.0,3.0,0.0
5306,38.0,0.0,120.0,11.0,0.0
5307,62.0,34.0,60.0,1.0,0.0
5308,53.0,0.0,60.0,2.0,0.0
5309,57.0,4.0,60.0,2.0,0.0
5310,74.0,0.0,30.0,0.0,0.0
5311,65.0,19.0,30.0,1.0,0.0
5312,73.0,0.0,30.0,0.0,0.0
5313,64.0,30.0,30.0,1.0,0.0
5314,65.0,26.0,30.0,1.0,0.0
5315,74.0,0.0,30.0,0.0,0.0
5316,57.0,4.0,60.0,2.0,0.0
5317,64.0,0.0,30.0,1.0,0.0
5318,73.0,30.0,30.0,0.0,0.0
5319,65.0,26.0,30.0,1.0,0.0
5320,74.0,0.0,30.0,0.0,0.0
5321,57.0,4.0,60.0,2.0,0.0
5322,64.0,90.0,30.0,1.0,0.0
5323,73.0,0.0,30.0,0.0,0.0
5324,65.0,0.0,120.0,1.0,0.0
5325,74.0,11.0,120.0,0.0,0.0
5326,57.0,0.0,120.0,2.0,0.0
5327,50.0,19.0,30.0,11.0,0.0
5328,50.0,0.0,30.0,3.0,0.0
5329,49.0,0.0,30.0,3.0,0.0
5330,49.0,30.0,30.0,11.0,0.0
5331,50.0,30.0,30.0,3.0,0.0
5332,50.0,0.0,30.0,11.0,0.0
5333,49.0,0.0,30.0,11.0,0.0
5334,49.0,30.0,30.0,3.0,0.0
5335,50.0,0.0,30.0,3.0,0.0
5336,50.0,30.0,30.0,11.0,0.0
5337,49.0,0.0,30.0,3.0,0.0
5338,49.0,90.0,30.0,11.0,0.0
5339,50.0,0.0,120.0,3.0,0.0
5340,50.0,7.0,120.0,11.0,0.0
5341,62.0,19.0,30.0,1.0,0.0
5342,69.0,4.0,60.0,0.0,0.0
5343,53.0,0.0,30.0,2.0,0.0
5344,61.0,30.0,30.0,1.0,0.0
5345,52.0,0.0,30.0,2.0,0.0
5346,69.0,4.0,60.0,0.0,0.0
5347,62.0,0.0,30.0,1.0,0.0
5348,53.0,26.0,30.0,2.0,0.0
5349,52.0,30.0,30.0,2.0,0.0
5350,61.0,0.0,30.0,1.0,0.0
5351,69.0,4.0,60.0,0.0,0.0
5352,62.0,0.0,30.0,1.0,0.0
5353,53.0,26.0,30.0,2.0,0.0
5354,61.0,0.0,30.0,1.0,0.0
5355,52.0,90.0,30.0,2.0,0.0
5356,69.0,0.0,120.0,0.0,0.0
5357,62.0,11.0,120.0,1.0,0.0
5358,53.0,0.0,120.0,2.0,0.0
5359,38.0,0.0,30.0,3.0,0.0
5360,38.0,19.0,30.0,11.0,0.0
5361,37.0,0.0,30.0,3.0,0.0
5362,37.0,30.0,30.0,11.0,0.0
5363,38.0,0.0,30.0,11.0,0.0
5364,38.0,30.0,30.0,3.0,0.0
5365,37.0,0.0,30.0,11.0,0.0
5366,37.0,30.0,30.0,3.0,0.0
5367,38.0,0.0,30.0,11.0,0.0
5368,38.0,30.0,30.0,3.0,0.0
5369,37.0,0.0,30.0,11.0,0.0
5370,37.0,90.0,30.0,3.0,0.0
5371,38.0,0.0,120.0,11.0,0.0
5372,38.0,7.0,120.0,3.0,0.0
5373,57.0,4.0,60.0,1.0,0.0
5374,50.0,0.0,30.0,2.0,0.0
5375,65.0,19.0,30.0,0.0,0.0
5376,64.0,0.0,30.0,0.0,0.0
5377,49.0,30.0,30.0,2.0,0.0
5378,57.0,4.0,60.0,1.0,0.0
5379,65.0,0.0,30.0,0.0,0.0
5380,50.0,26.0,30.0,2.0,0.0
5381,64.0,30.0,30.0,0.0,0.0
5382,49.0,0.0,30.0,2.0,0.0
5383,57.0,4.0,60.0,1.0,0.0
5384,65.0,26.0,30.0,0.0,0.0
5385,50.0,0.0,30.0,2.0,0.0
5386,49.0,0.0,30.0,2.0,0.0
5387,64.0,56.0,30.0,0.0,0.0
5388,65.0,7.0,120.0,0.0,0.0
5389,57.0,0.0,120.0,1.0,0.0
5390,50.0,53.0,60.0,2.0,0.0
5391,38.0,34.0,60.0,2.0,0.0
5392,58.0,0.0,30.0,3.0,0.0
5393,58.0,30.0,30.0,11.0,0.0
5394,57.0,30.0,30.0,11.0,0.0
5395,57.0,0.0,30.0,3.0,0.0
5396,58.0,0.0,30.0,3.0,0.0
5397,77.0,0.0,60.0,0.0,0.0
5398,58.0,26.0,30.0,11.0,0.0
5399,62.0,4.0,60.0,1.0,0.0
5400,53.0,30.0,30.0,11.0,0.0
5401,53.0,0.0,30.0,3.0,0.0
5402,55.0,0.0,30.0,3.0,0.0
5403,55.0,30.0,30.0,11.0,0.0
5404,62.0,11.0,120.0,1.0,0.0
5405,76.0,0.0,120.0,0.0,0.0
5406,53.0,30.0,30.0,11.0,0.0
5407,53.0,0.0,30.0,3.0,0.0
5408,55.0,0.0,30.0,11.0,0.0
5409,55.0,19.0,30.0,3.0,0.0
5410,52.0,0.0,30.0,11.0,0.0
5411,52.0,30.0,30.0,3.0,0.0
5412,57.0,30.0,30.0,3.0,0.0
5413,57.0,0.0,30.0,11.0,0.0
5414,55.0,30.0,30.0,3.0,0.0
5415,55.0,0.0,30.0,11.0,0.0
5416,76.0,0.0,60.0,0.0,0.0
5417,60.0,4.0,60.0,1.0,0.0
5418,57.0,0.0,30.0,3.0,0.0
5419,57.0,26.0,30.0,11.0,0.0
5420,52.0,30.0,30.0,3.0,0.0
5421,52.0,0.0,30.0,11.0,0.0
5422,74.0,0.0,120.0,0.0,0.0
5423,53.0,0.0,30.0,3.0,0.0
5424,60.0,11.0,120.0,1.0,0.0
5425,53.0,30.0,30.0,11.0,0.0
5426,52.0,0.0,30.0,3.0,0.0
5427,52.0,30.0,30.0,11.0,0.0
5428,53.0,19.0,30.0,3.0,0.0
5429,53.0,0.0,30.0,11.0,0.0
5430,50.0,0.0,30.0,3.0,0.0
5431,50.0,30.0,30.0,11.0,0.0
5432,55.0,0.0,30.0,3.0,0.0
5433,55.0,30.0,30.0,11.0,0.0
5434,53.0,30.0,30.0,11.0,0.0
5435,53.0,0.0,30.0,3.0,0.0
5436,58.0,4.0,60.0,1.0,0.0
5437,55.0,0.0,30.0,3.0,0.0
5438,74.0,0.0,60.0,0.0,0.0
5439,55.0,26.0,30.0,11.0,0.0
5440,50.0,0.0,30.0,3.0,0.0
5441,50.0,30.0,30.0,11.0,0.0
5442,52.0,0.0,30.0,3.0,0.0
5443,58.0,11.0,120.0,1.0,0.0
5444,72.0,0.0,120.0,0.0,0.0
5445,52.0,30.0,30.0,11.0,0.0
5446,50.0,0.0,30.0,11.0,0.0
5447,50.0,30.0,30.0,3.0,0.0
5448,52.0,0.0,30.0,3.0,0.0
5449,52.0,19.0,30.0,11.0,0.0
5450,48.0,30.0,30.0,3.0,0.0
5451,48.0,0.0,30.0,11.0,0.0
5452,53.0,0.0,30.0,3.0,0.0
5453,53.0,30.0,30.0,11.0,0.0
5454,52.0,0.0,30.0,3.0,0.0
5455,52.0,30.0,30.0,11.0,0.0
5456,72.0,0.0,60.0,0.0,0.0
5457,53.0,0.0,30.0,3.0,0.0
5458,53.0,26.0,30.0,11.0,0.0
5459,57.0,4.0,60.0,1.0,0.0
5460,48.0,0.0,30.0,11.0,0.0
5461,48.0,30.0,30.0,3.0,0.0
5462,71.0,11.0,120.0,0.0,0.0
5463,50.0,0.0,30.0,3.0,0.0
5464,57.0,0.0,120.0,1.0,0.0
5465,50.0,30.0,30.0,11.0,0.0
5466,48.0,0.0,30.0,3.0,0.0
5467,48.0,30.0,30.0,11.0,0.0
5468,50.0,19.0,30.0,3.0,0.0
5469,50.0,0.0,30.0,11.0,0.0
5470,47.0,30.0,30.0,11.0,0.0
5471,47.0,0.0,30.0,3.0,0.0
5472,52.0,0.0,30.0,3.0,0.0
5473,52.0,30.0,30.0,11.0,0.0
5474,50.0,0.0,30.0,3.0,0.0
5475,50.0,30.0,30.0,11.0,0.0
5476,52.0,0.0,30.0,11.0,0.0
5477,52.0,26.0,30.0,3.0,0.0
5478,71.0,0.0,60.0,0.0,0.0
5479,55.0,4.0,60.0,1.0,0.0
5480,47.0,0.0,30.0,3.0,0.0
5481,47.0,30.0,30.0,11.0,0.0
5482,55.0,11.0,120.0,1.0,0.0
5483,49.0,0.0,30.0,3.0,0.0
5484,76.0,4.0,60.0,0.0,0.0
5485,49.0,26.0,30.0,11.0,0.0
5486,47.0,30.0,30.0,3.0,0.0
5487,47.0,0.0,30.0,11.0,0.0
5488,49.0,19.0,30.0,11.0,0.0
5489,69.0,0.0,90.0,0.0,0.0
5490,49.0,0.0,30.0,3.0,0.0
5491,47.0,0.0,30.0,11.0,0.0
5492,47.0,30.0,30.0,3.0,0.0
5493,53.0,30.0,30.0,1.0,0.0
5494,50.0,0.0,150.0,11.0,0.0
5495,50.0,30.0,150.0,3.0,0.0
5496,70.0,0.0,30.0,0.0,0.0
5497,55.0,30.0,30.0,1.0,0.0
5498,69.0,30.0,30.0,0.0,0.0
5499,53.0,0.0,30.0,1.0,0.0
5500,70.0,0.0,30.0,0.0,0.0
5501,55.0,30.0,30.0,1.0,0.0
5502,67.0,30.0,150.0,0.0,0.0
5503,52.0,11.0,120.0,1.0,0.0
5504,52.0,30.0,30.0,11.0,0.0
5505,52.0,0.0,30.0,3.0,0.0
5506,50.0,19.0,30.0,11.0,0.0
5507,50.0,0.0,30.0,3.0,0.0
5508,52.0,0.0,30.0,3.0,0.0
5509,52.0,30.0,30.0,11.0,0.0
5510,57.0,30.0,150.0,1.0,0.0
5511,49.0,11.0,120.0,3.0,0.0
5512,49.0,0.0,120.0,11.0,0.0
5513,69.0,30.0,30.0,0.0,0.0
5514,67.0,19.0,30.0,0.0,0.0
5515,69.0,30.0,30.0,0.0,0.0
5516,50.0,11.0,120.0,3.0,0.0
5517,50.0,0.0,120.0,11.0,0.0
5518,65.0,30.0,150.0,0.0,0.0
5519,58.0,30.0,30.0,1.0,0.0
5520,57.0,19.0,30.0,1.0,0.0
5521,58.0,30.0,30.0,1.0,0.0
5522,47.0,0.0,120.0,11.0,0.0
5523,47.0,11.0,120.0,3.0,0.0
5524,55.0,26.0,150.0,1.0,0.0
5525,67.0,30.0,30.0,0.0,0.0
5526,65.0,19.0,30.0,0.0,0.0
5527,67.0,30.0,30.0,0.0,0.0
5528,64.0,0.0,30.0,0.0,0.0
5529,49.0,0.0,60.0,3.0,0.0
5530,49.0,4.0,60.0,11.0,0.0
5531,65.0,30.0,30.0,0.0,0.0
5532,57.0,0.0,30.0,1.0,0.0
5533,53.0,0.0,30.0,1.0,0.0
5534,62.0,26.0,30.0,0.0,0.0
5535,50.0,4.0,60.0,11.0,0.0
5536,50.0,0.0,60.0,3.0,0.0
5537,64.0,0.0,30.0,0.0,0.0
5538,55.0,30.0,30.0,1.0,0.0
5539,62.0,26.0,30.0,0.0,0.0
5540,43.0,4.0,60.0,11.0,0.0
5541,52.0,7.0,120.0,1.0,0.0
5542,43.0,0.0,60.0,3.0,0.0
5543,64.0,30.0,30.0,0.0,0.0
5544,45.0,0.0,60.0,3.0,0.0
5545,45.0,4.0,60.0,11.0,0.0
5546,62.0,19.0,30.0,0.0,0.0
5547,61.0,30.0,30.0,0.0,0.0
5548,62.0,30.0,30.0,0.0,0.0
5549,38.0,11.0,120.0,3.0,0.0
5550,53.0,0.0,120.0,1.0,0.0
5551,38.0,0.0,120.0,11.0,0.0
5552,65.0,30.0,30.0,0.0,0.0
5553,62.0,19.0,30.0,0.0,0.0
5554,57.0,30.0,30.0,0.0,0.0
5555,53.0,30.0,30.0,1.0,0.0
5556,57.0,30.0,30.0,1.0,0.0
5557,53.0,30.0,30.0,1.0,0.0
5558,50.0,30.0,30.0,1.0,0.0
5559,74.0,30.0,30.0,0.0,0.0
5560,77.0,30.0,30.0,0.0,0.0
5561,74.0,30.0,30.0,0.0,0.0
5562,69.0,30.0,30.0,0.0,0.0
5563,65.0,30.0,30.0,1.0,0.0
5564,69.0,30.0,30.0,1.0,0.0
5565,65.0,30.0,30.0,1.0,0.0
5566,62.0,30.0,30.0,1.0,0.0
5567,50.0,30.0,30.0,11.0,0.0
5568,50.0,0.0,30.0,3.0,0.0
5569,52.0,0.0,30.0,3.0,0.0
5570,52.0,30.0,30.0,11.0,0.0
5571,53.0,0.0,30.0,3.0,0.0
5572,53.0,30.0,30.0,11.0,0.0
5573,52.0,0.0,30.0,3.0,0.0
5574,52.0,30.0,30.0,11.0,0.0
5575,50.0,0.0,30.0,11.0,0.0
5576,50.0,30.0,30.0,3.0,0.0
5577,52.0,0.0,30.0,11.0,0.0
5578,52.0,30.0,30.0,3.0,0.0
5579,53.0,0.0,30.0,11.0,0.0
5580,53.0,30.0,30.0,3.0,0.0
5581,52.0,30.0,30.0,3.0,0.0
5582,52.0,0.0,30.0,11.0,0.0
5583,50.0,0.0,30.0,11.0,0.0
5584,50.0,30.0,30.0,3.0,0.0
5585,52.0,30.0,30.0,3.0,0.0
5586,52.0,0.0,30.0,11.0,0.0
5587,53.0,30.0,30.0,3.0,0.0
5588,53.0,0.0,30.0,11.0,0.0
5589,52.0,0.0,30.0,3.0,0.0
5590,52.0,30.0,30.0,11.0,0.0
5591,50.0,30.0,30.0,3.0,0.0
5592,50.0,0.0,30.0,11.0,0.0
5593,52.0,30.0,30.0,11.0,0.0
5594,52.0,0.0,30.0,3.0,0.0
5595,53.0,0.0,30.0,11.0,0.0
5596,53.0,30.0,30.0,3.0,0.0
5597,52.0,0.0,30.0,11.0,0.0
5598,52.0,56.0,30.0,3.0,0.0
5599,50.0,0.0,60.0,11.0,0.0
5600,50.0,34.0,60.0,3.0,0.0
5601,59.0,30.0,30.0,2.0,0.0
5602,74.0,0.0,30.0,0.0,0.0
5603,72.0,0.0,30.0,0.0,0.0
5604,57.0,30.0,30.0,2.0,0.0
5605,59.0,0.0,30.0,2.0,0.0
5606,74.0,30.0,30.0,0.0,0.0
5607,72.0,0.0,30.0,0.0,0.0
5608,57.0,30.0,30.0,2.0,0.0
5609,59.0,30.0,30.0,2.0,0.0
5610,74.0,0.0,30.0,0.0,0.0
5611,57.0,0.0,30.0,2.0,0.0
5612,72.0,56.0,30.0,0.0,0.0
5613,56.0,0.0,60.0,2.0,0.0
5614,52.0,34.0,60.0,3.0,0.0
5615,52.0,0.0,60.0,11.0,0.0
5616,71.0,0.0,60.0,0.0,0.0
5617,64.0,30.0,30.0,1.0,0.0
5618,62.0,30.0,30.0,1.0,0.0
5619,64.0,30.0,30.0,1.0,0.0
5620,62.0,30.0,30.0,1.0,0.0
5621,64.0,30.0,30.0,1.0,0.0
5622,62.0,30.0,30.0,1.0,0.0
5623,45.0,0.0,60.0,11.0,0.0
5624,45.0,0.0,60.0,3.0,0.0
5625,72.0,0.0,30.0,0.0,0.0
5626,60.0,4.0,60.0,1.0,0.0
5627,57.0,26.0,30.0,2.0,0.0
5628,74.0,30.0,30.0,0.0,0.0
5629,59.0,0.0,30.0,2.0,0.0
5630,60.0,0.0,30.0,2.0,0.0
5631,76.0,30.0,30.0,0.0,0.0
5632,74.0,0.0,30.0,0.0,0.0
5633,59.0,30.0,30.0,2.0,0.0
5634,72.0,30.0,30.0,0.0,0.0
5635,57.0,0.0,30.0,2.0,0.0
5636,59.0,30.0,30.0,2.0,0.0
5637,74.0,0.0,30.0,0.0,0.0
5638,76.0,0.0,30.0,0.0,0.0
5639,60.0,30.0,30.0,2.0,0.0
5640,74.0,0.0,30.0,0.0,0.0
5641,59.0,30.0,30.0,2.0,0.0
5642,72.0,0.0,60.0,0.0,0.0
5643,57.0,4.0,60.0,2.0,0.0
5644,45.0,26.0,30.0,3.0,0.0
5645,45.0,0.0,30.0,11.0,0.0
5646,47.0,0.0,30.0,11.0,0.0
5647,47.0,30.0,30.0,3.0,0.0
5648,48.0,30.0,30.0,3.0,0.0
5649,48.0,0.0,30.0,11.0,0.0
5650,47.0,30.0,30.0,11.0,0.0
5651,47.0,0.0,30.0,3.0,0.0
5652,45.0,0.0,30.0,3.0,0.0
5653,45.0,30.0,30.0,11.0,0.0
5654,47.0,0.0,30.0,3.0,0.0
5655,47.0,30.0,30.0,11.0,0.0
5656,48.0,0.0,30.0,3.0,0.0
5657,48.0,30.0,30.0,11.0,0.0
5658,47.0,30.0,30.0,3.0,0.0
5659,47.0,0.0,30.0,11.0,0.0
5660,45.0,30.0,30.0,11.0,0.0
5661,45.0,0.0,30.0,3.0,0.0
5662,47.0,30.0,30.0,11.0,0.0
5663,47.0,0.0,30.0,3.0,0.0
5664,48.0,0.0,30.0,3.0,0.0
5665,48.0,30.0,30.0,11.0,0.0
5666,47.0,30.0,30.0,3.0,0.0
5667,47.0,0.0,30.0,11.0,0.0
5668,45.0,0.0,30.0,3.0,0.0
5669,45.0,30.0,30.0,11.0,0.0
5670,47.0,0.0,30.0,3.0,0.0
5671,47.0,30.0,30.0,11.0,0.0
5672,48.0,0.0,30.0,3.0,0.0
5673,48.0,30.0,30.0,11.0,0.0
5674,47.0,0.0,30.0,3.0,0.0
5675,47.0,56.0,30.0,11.0,0.0
5676,45.0,34.0,60.0,3.0,0.0
5677,45.0,0.0,60.0,11.0,0.0
5678,60.0,0.0,30.0,2.0,0.0
5679,69.0,26.0,30.0,0.0,0.0
5680,64.0,4.0,60.0,1.0,0.0
5681,59.0,0.0,30.0,2.0,0.0
5682,68.0,30.0,30.0,0.0,0.0
5683,64.0,4.0,60.0,1.0,0.0
5684,60.0,0.0,30.0,2.0,0.0
5685,69.0,26.0,30.0,0.0,0.0
5686,59.0,0.0,30.0,2.0,0.0
5687,68.0,30.0,30.0,0.0,0.0
5688,64.0,4.0,60.0,1.0,0.0
5689,69.0,0.0,30.0,0.0,0.0
5690,60.0,26.0,30.0,2.0,0.0
5691,68.0,0.0,30.0,0.0,0.0
5692,59.0,56.0,30.0,2.0,0.0
5693,60.0,7.0,120.0,2.0,0.0
5694,64.0,0.0,120.0,1.0,0.0
5695,69.0,53.0,60.0,0.0,0.0
5696,57.0,34.0,60.0,0.0,0.0
5697,53.0,0.0,30.0,3.0,0.0
5698,53.0,30.0,30.0,11.0,0.0
5699,52.0,30.0,30.0,3.0,0.0
5700,52.0,0.0,30.0,11.0,0.0
5701,69.0,0.0,60.0,0.0,0.0
5702,53.0,0.0,30.0,11.0,0.0
5703,60.0,4.0,60.0,1.0,0.0
5704,57.0,0.0,60.0,2.0,0.0
5705,53.0,26.0,30.0,3.0,0.0
5706,48.0,30.0,30.0,11.0,0.0
5707,48.0,0.0,30.0,3.0,0.0
5708,50.0,30.0,30.0,3.0,0.0
5709,59.0,0.0,120.0,1.0,0.0
5710,50.0,0.0,30.0,11.0,0.0
5711,53.0,11.0,120.0,2.0,0.0
5712,69.0,0.0,120.0,0.0,0.0
5713,48.0,30.0,30.0,11.0,0.0
5714,48.0,0.0,30.0,3.0,0.0
5715,50.0,0.0,30.0,3.0,0.0
5716,50.0,19.0,30.0,11.0,0.0
5717,47.0,0.0,30.0,3.0,0.0
5718,47.0,30.0,30.0,11.0,0.0
5719,52.0,0.0,30.0,3.0,0.0
5720,52.0,30.0,30.0,11.0,0.0
5721,50.0,0.0,30.0,11.0,0.0
5722,50.0,30.0,30.0,3.0,0.0
5723,52.0,0.0,30.0,3.0,0.0
5724,68.0,0.0,60.0,0.0,0.0
5725,52.0,4.0,60.0,2.0,0.0
5726,59.0,0.0,60.0,1.0,0.0
5727,52.0,26.0,30.0,11.0,0.0
5728,47.0,30.0,30.0,3.0,0.0
5729,47.0,0.0,30.0,11.0,0.0
5730,48.0,4.0,60.0,11.0,0.0
5731,48.0,0.0,60.0,3.0,0.0
5732,69.0,26.0,30.0,0.0,0.0
5733,52.0,0.0,120.0,2.0,0.0
5734,57.0,7.0,120.0,1.0,0.0
5735,71.0,30.0,30.0,0.0,0.0
5736,45.0,0.0,60.0,11.0,0.0
5737,72.0,19.0,30.0,0.0,0.0
5738,45.0,4.0,60.0,3.0,0.0
5739,69.0,30.0,30.0,0.0,0.0
5740,77.0,30.0,30.0,0.0,0.0
5741,76.0,30.0,30.0,0.0,0.0
5742,57.0,0.0,60.0,11.0,0.0
5743,57.0,0.0,60.0,3.0,0.0
5744,69.0,4.0,60.0,1.0,0.0
5745,77.0,26.0,30.0,0.0,0.0
5746,60.0,0.0,60.0,2.0,0.0
5747,72.0,30.0,30.0,0.0,0.0
5748,57.0,0.0,120.0,11.0,0.0
5749,74.0,30.0,30.0,0.0,0.0
5750,65.0,11.0,120.0,1.0,0.0
5751,57.0,0.0,120.0,3.0,0.0
5752,59.0,0.0,120.0,2.0,0.0
5753,72.0,30.0,30.0,0.0,0.0
5754,74.0,19.0,30.0,0.0,0.0
5755,71.0,30.0,30.0,0.0,0.0
5756,76.0,30.0,30.0,0.0,0.0
5757,74.0,30.0,30.0,0.0,0.0
5758,56.0,0.0,60.0,3.0,0.0
5759,76.0,26.0,30.0,0.0,0.0
5760,56.0,4.0,60.0,11.0,0.0
5761,59.0,0.0,60.0,2.0,0.0
5762,64.0,0.0,60.0,1.0,0.0
5763,71.0,30.0,30.0,0.0,0.0
5764,72.0,30.0,30.0,0.0,0.0
5765,57.0,11.0,120.0,3.0,0.0
5766,64.0,0.0,120.0,1.0,0.0
5767,57.0,0.0,120.0,11.0,0.0
5768,57.0,0.0,120.0,2.0,0.0
5769,71.0,30.0,30.0,0.0,0.0
5770,72.0,19.0,30.0,0.0,0.0
5771,69.0,30.0,30.0,0.0,0.0
5772,74.0,30.0,30.0,0.0,0.0
5773,72.0,30.0,30.0,0.0,0.0
5774,50.0,0.0,60.0,3.0,0.0
5775,70.0,26.0,30.0,0.0,0.0
5776,65.0,0.0,60.0,1.0,0.0
5777,50.0,4.0,60.0,11.0,0.0
5778,62.0,0.0,60.0,2.0,0.0
5779,69.0,30.0,30.0,0.0,0.0
5780,52.0,0.0,60.0,3.0,0.0
5781,64.0,7.0,180.0,1.0,0.0
5782,68.0,26.0,30.0,0.0,0.0
5783,52.0,4.0,60.0,11.0,0.0
5784,62.0,0.0,60.0,2.0,0.0
5785,71.0,30.0,30.0,0.0,0.0
5786,45.0,4.0,60.0,3.0,0.0
5787,45.0,0.0,60.0,11.0,0.0
5788,69.0,26.0,30.0,0.0,0.0
5789,60.0,0.0,60.0,2.0,0.0
5790,71.0,17.0,30.0,0.0,0.0
5791,52.0,0.0,60.0,3.0,0.0
5792,68.0,15.0,15.0,0.0,0.0
5793,59.0,7.0,120.0,2.0,0.0
5794,52.0,29.0,60.0,11.0,0.0
5795,65.0,17.0,15.0,0.0,0.0
5796,68.0,24.0,60.0,0.0,0.0
5797,40.0,0.0,60.0,11.0,0.0
5798,40.0,0.0,60.0,3.0,0.0
5799,62.0,4.0,60.0,1.0,0.0
5800,69.0,30.0,30.0,0.0,0.0
5801,57.0,11.0,120.0,2.0,0.0
5802,45.0,0.0,120.0,11.0,0.0
5803,45.0,0.0,120.0,3.0,0.0
5804,60.0,0.0,120.0,1.0,0.0
5805,69.0,30.0,30.0,0.0,0.0
5806,72.0,30.0,30.0,0.0,0.0
5807,69.0,19.0,30.0,0.0,0.0
5808,64.0,30.0,30.0,0.0,0.0
5809,60.0,30.0,30.0,1.0,0.0
5810,64.0,30.0,30.0,1.0,0.0
5811,60.0,30.0,30.0,1.0,0.0
5812,57.0,30.0,30.0,1.0,0.0
5813,60.0,30.0,30.0,0.0,0.0
5814,64.0,30.0,30.0,0.0,0.0
5815,60.0,30.0,30.0,0.0,0.0
5816,57.0,30.0,30.0,0.0,0.0
5817,52.0,30.0,30.0,1.0,0.0
5818,57.0,30.0,30.0,1.0,0.0
5819,52.0,30.0,30.0,1.0,0.0
5820,48.0,30.0,30.0,1.0,0.0
5821,57.0,30.0,30.0,0.0,0.0
5822,60.0,30.0,30.0,0.0,0.0
5823,57.0,30.0,30.0,0.0,0.0
5824,52.0,30.0,30.0,0.0,0.0
5825,48.0,30.0,30.0,2.0,0.0
5826,52.0,30.0,30.0,2.0,0.0
5827,48.0,30.0,30.0,2.0,0.0
5828,45.0,60.0,30.0,2.0,0.0
5829,50.0,11.0,120.0,2.0,0.0
5830,66.0,30.0,30.0,0.0,0.0
5831,60.0,19.0,30.0,0.0,0.0
5832,66.0,30.0,30.0,0.0,0.0
5833,59.0,26.0,30.0,0.0,0.0
5834,52.0,4.0,60.0,2.0,0.0
5835,67.0,30.0,30.0,0.0,0.0
5836,54.0,4.0,60.0,2.0,0.0
5837,57.0,26.0,30.0,0.0,0.0
5838,69.0,30.0,30.0,0.0,0.0
5839,55.0,4.0,60.0,2.0,0.0
5840,62.0,26.0,30.0,0.0,0.0
5841,71.0,30.0,30.0,0.0,0.0
5842,64.0,26.0,30.0,0.0,0.0
5843,60.0,4.0,60.0,2.0,0.0
5844,69.0,30.0,30.0,0.0,0.0
5845,62.0,4.0,60.0,2.0,0.0
5846,66.0,26.0,30.0,0.0,0.0
5847,69.0,30.0,30.0,0.0,0.0
5848,60.0,4.0,60.0,2.0,0.0
5849,66.0,26.0,30.0,0.0,0.0
5850,62.0,30.0,30.0,0.0,0.0
5851,59.0,26.0,30.0,2.0,0.0
5852,67.0,4.0,60.0,0.0,0.0
5853,62.0,30.0,30.0,2.0,0.0
5854,59.0,30.0,30.0,2.0,0.0
5855,55.0,30.0,30.0,2.0,0.0
5856,64.0,26.0,30.0,0.0,0.0
5857,60.0,4.0,60.0,2.0,0.0
5858,67.0,30.0,30.0,0.0,0.0
5859,64.0,26.0,30.0,0.0,0.0
5860,59.0,4.0,60.0,2.0,0.0
5861,60.0,30.0,30.0,0.0,0.0
5862,57.0,4.0,60.0,2.0,0.0
5863,65.0,26.0,30.0,0.0,0.0
5864,60.0,30.0,30.0,0.0,0.0
5865,67.0,26.0,30.0,0.0,0.0
5866,52.0,4.0,60.0,2.0,0.0
5867,60.0,30.0,30.0,0.0,0.0
5868,69.0,26.0,30.0,0.0,0.0
5869,53.0,4.0,60.0,2.0,0.0
5870,64.0,30.0,30.0,0.0,0.0
5871,50.0,4.0,60.0,2.0,0.0
5872,62.0,26.0,30.0,0.0,0.0
5873,60.0,30.0,30.0,0.0,0.0
5874,59.0,30.0,30.0,0.0,0.0
5875,55.0,34.0,90.0,2.0,0.0
5876,57.0,22.0,30.0,0.0,0.0
5877,55.0,4.0,60.0,0.0,0.0
5878,53.0,56.0,30.0,2.0,0.0
5879,52.0,4.0,60.0,2.0,0.0
5880,55.0,30.0,30.0,0.0,0.0
5881,60.0,26.0,30.0,0.0,0.0
5882,48.0,4.0,60.0,2.0,0.0
5883,55.0,30.0,30.0,0.0,0.0
5884,57.0,26.0,30.0,0.0,0.0
5885,53.0,4.0,60.0,2.0,0.0
5886,60.0,30.0,30.0,0.0,0.0
5887,65.0,26.0,30.0,0.0,0.0
5888,50.0,4.0,60.0,2.0,0.0
5889,57.0,30.0,30.0,0.0,0.0
5890,55.0,4.0,60.0,2.0,0.0
5891,59.0,26.0,30.0,0.0,0.0
5892,62.0,30.0,30.0,0.0,0.0
5893,52.0,4.0,60.0,2.0,0.0
5894,67.0,26.0,30.0,0.0,0.0
5895,59.0,30.0,30.0,0.0,0.0
5896,57.0,4.0,60.0,2.0,0.0
5897,60.0,26.0,30.0,0.0,0.0
5898,64.0,30.0,30.0,0.0,0.0
5899,45.0,4.0,60.0,2.0,0.0
5900,69.0,26.0,30.0,0.0,0.0
5901,60.0,30.0,30.0,0.0,0.0
5902,47.0,4.0,60.0,2.0,0.0
5903,62.0,26.0,30.0,0.0,0.0
5904,67.0,30.0,30.0,0.0,0.0
5905,43.0,4.0,60.0,2.0,0.0
5906,65.0,26.0,30.0,0.0,0.0
5907,67.0,30.0,30.0,0.0,0.0
5908,48.0,4.0,60.0,2.0,0.0
5909,64.0,26.0,30.0,0.0,0.0
5910,67.0,30.0,30.0,0.0,0.0
5911,72.0,26.0,30.0,0.0,0.0
5912,45.0,4.0,60.0,2.0,0.0
5913,64.0,17.0,30.0,0.0,0.0
5914,62.0,15.0,15.0,0.0,0.0
5915,41.0,29.0,60.0,2.0,0.0
5916,60.0,24.0,15.0,0.0,0.0
5917,62.0,31.0,60.0,0.0,0.0
5918,43.0,4.0,60.0,2.0,0.0
5919,60.0,30.0,30.0,0.0,0.0
5920,48.0,0.0,30.0,2.0,0.0
5921,48.0,26.0,30.0,7.0,0.0
5922,60.0,4.0,60.0,0.0,0.0
5923,50.0,0.0,30.0,7.0,0.0
5924,50.0,30.0,30.0,2.0,0.0
5925,52.0,30.0,30.0,7.0,0.0
5926,52.0,0.0,30.0,2.0,0.0
5927,50.0,0.0,30.0,2.0,0.0
5928,50.0,30.0,30.0,7.0,0.0
5929,48.0,0.0,30.0,7.0,0.0
5930,48.0,30.0,30.0,2.0,0.0
5931,52.0,0.0,30.0,1.0,0.0
5932,55.0,0.0,30.0,1.0,0.0
5933,50.0,30.0,30.0,2.0,0.0
5934,50.0,0.0,30.0,7.0,0.0
5935,60.0,0.0,30.0,1.0,0.0
5936,52.0,0.0,30.0,2.0,0.0
5937,52.0,30.0,30.0,7.0,0.0
5938,50.0,0.0,30.0,2.0,0.0
5939,55.0,0.0,30.0,1.0,0.0
5940,50.0,30.0,30.0,7.0,0.0
5941,48.0,0.0,30.0,7.0,0.0
5942,52.0,30.0,30.0,1.0,0.0
5943,48.0,0.0,30.0,2.0,0.0
5944,55.0,30.0,30.0,1.0,0.0
5945,50.0,0.0,30.0,7.0,0.0
5946,50.0,0.0,30.0,2.0,0.0
5947,60.0,0.0,30.0,1.0,0.0
5948,52.0,0.0,30.0,2.0,0.0
5949,52.0,30.0,30.0,7.0,0.0
5950,50.0,0.0,30.0,2.0,0.0
5951,55.0,0.0,30.0,1.0,0.0
5952,50.0,30.0,30.0,7.0,0.0
5953,52.0,0.0,30.0,1.0,0.0
5954,48.0,0.0,30.0,7.0,0.0
5955,48.0,30.0,30.0,2.0,0.0
5956,50.0,0.0,30.0,7.0,0.0
5957,50.0,0.0,30.0,2.0,0.0
5958,55.0,30.0,30.0,1.0,0.0
5959,52.0,30.0,30.0,7.0,0.0
5960,60.0,0.0,30.0,1.0,0.0
5961,52.0,0.0,30.0,2.0,0.0
5962,55.0,0.0,30.0,1.0,0.0
5963,50.0,30.0,30.0,7.0,0.0
5964,50.0,0.0,30.0,2.0,0.0
5965,48.0,0.0,60.0,2.0,0.0
5966,48.0,0.0,60.0,7.0,0.0
5967,72.0,26.0,30.0,0.0,0.0
5968,52.0,4.0,60.0,1.0,0.0
5969,74.0,30.0,30.0,0.0,0.0
5970,76.0,30.0,30.0,0.0,0.0
5971,74.0,30.0,30.0,0.0,0.0
5972,72.0,30.0,30.0,0.0,0.0
5973,74.0,30.0,30.0,0.0,0.0
5974,50.0,0.0,60.0,7.0,0.0
5975,76.0,26.0,30.0,0.0,0.0
5976,50.0,4.0,60.0,2.0,0.0
5977,74.0,30.0,30.0,0.0,0.0
5978,52.0,4.0,60.0,7.0,0.0
5979,72.0,26.0,30.0,0.0,0.0
5980,52.0,0.0,60.0,2.0,0.0
5981,74.0,30.0,30.0,0.0,0.0
5982,53.0,0.0,60.0,2.0,0.0
5983,76.0,26.0,30.0,0.0,0.0
5984,53.0,4.0,60.0,7.0,0.0
5985,74.0,30.0,30.0,0.0,0.0
5986,72.0,26.0,30.0,0.0,0.0
5987,55.0,0.0,60.0,7.0,0.0
5988,55.0,4.0,60.0,2.0,0.0
5989,74.0,30.0,30.0,0.0,0.0
5990,43.0,4.0,60.0,2.0,0.0
5991,76.0,26.0,30.0,0.0,0.0
5992,43.0,0.0,60.0,7.0,0.0
5993,74.0,56.0,30.0,0.0,0.0
5994,72.0,34.0,60.0,0.0,0.0
5995,48.0,0.0,60.0,2.0,0.0
5996,48.0,0.0,60.0,7.0,0.0
5997,48.0,0.0,30.0,11.0,0.0
5998,48.0,30.0,30.0,3.0,0.0
5999,64.0,0.0,30.0,1.0,0.0
6000,47.0,30.0,30.0,3.0,0.0
6001,47.0,0.0,30.0,11.0,0.0
6002,62.0,0.0,30.0,1.0,0.0
6003,48.0,0.0,30.0,3.0,0.0
6004,48.0,0.0,30.0,11.0,0.0
6005,64.0,30.0,30.0,1.0,0.0
6006,47.0,30.0,30.0,3.0,0.0
6007,47.0,0.0,30.0,11.0,0.0
6008,62.0,0.0,30.0,1.0,0.0
6009,48.0,0.0,30.0,3.0,0.0
6010,48.0,0.0,30.0,11.0,0.0
6011,64.0,30.0,30.0,1.0,0.0
6012,47.0,56.0,30.0,11.0,0.0
6013,62.0,0.0,30.0,1.0,0.0
6014,47.0,0.0,30.0,3.0,0.0
6015,48.0,53.0,60.0,3.0,0.0
6016,48.0,0.0,60.0,11.0,0.0
6017,64.0,7.0,120.0,1.0,0.0
6018,36.0,0.0,60.0,3.0,0.0
6019,36.0,34.0,60.0,11.0,0.0
6020,69.0,30.0,30.0,0.0,0.0
6021,67.0,30.0,30.0,0.0,0.0
6022,64.0,0.0,60.0,1.0,0.0
6023,69.0,26.0,30.0,0.0,0.0
6024,60.0,0.0,60.0,2.0,0.0
6025,48.0,4.0,60.0,3.0,0.0
6026,48.0,0.0,60.0,11.0,0.0
6027,60.0,0.0,60.0,7.0,0.0
6028,64.0,30.0,30.0,0.0,0.0
6029,57.0,0.0,120.0,7.0,0.0
6030,62.0,0.0,120.0,1.0,0.0
6031,48.0,0.0,120.0,3.0,0.0
6032,57.0,11.0,120.0,2.0,0.0
6033,65.0,30.0,30.0,0.0,0.0
6034,48.0,0.0,120.0,11.0,0.0
6035,64.0,30.0,30.0,0.0,0.0
6036,65.0,19.0,30.0,0.0,0.0
6037,62.0,30.0,30.0,0.0,0.0
6038,67.0,30.0,30.0,0.0,0.0
6039,65.0,30.0,30.0,0.0,0.0
6040,47.0,4.0,60.0,11.0,0.0
6041,67.0,26.0,30.0,0.0,0.0
6042,62.0,0.0,60.0,1.0,0.0
6043,55.0,0.0,60.0,2.0,0.0
6044,55.0,0.0,60.0,7.0,0.0
6045,47.0,0.0,60.0,3.0,0.0
6046,62.0,30.0,30.0,0.0,0.0
6047,64.0,30.0,30.0,0.0,0.0
6048,60.0,0.0,120.0,1.0,0.0
6049,48.0,11.0,120.0,11.0,0.0
6050,55.0,0.0,120.0,7.0,0.0
6051,48.0,0.0,120.0,3.0,0.0
6052,55.0,0.0,120.0,2.0,0.0
6053,62.0,30.0,30.0,0.0,0.0
6054,64.0,19.0,30.0,0.0,0.0
6055,60.0,30.0,30.0,0.0,0.0
6056,57.0,26.0,30.0,7.0,0.0
6057,57.0,0.0,30.0,2.0,0.0
6058,72.0,4.0,60.0,0.0,0.0
6059,55.0,30.0,30.0,2.0,0.0
6060,55.0,0.0,30.0,7.0,0.0
6061,64.0,0.0,60.0,1.0,0.0
6062,57.0,0.0,30.0,2.0,0.0
6063,72.0,4.0,60.0,0.0,0.0
6064,57.0,26.0,30.0,7.0,0.0
6065,52.0,30.0,30.0,2.0,0.0
6066,52.0,0.0,30.0,7.0,0.0
6067,53.0,30.0,30.0,2.0,0.0
6068,53.0,0.0,30.0,7.0,0.0
6069,62.0,11.0,120.0,1.0,0.0
6070,72.0,0.0,120.0,0.0,0.0
6071,52.0,0.0,30.0,2.0,0.0
6072,52.0,30.0,30.0,7.0,0.0
6073,53.0,19.0,30.0,2.0,0.0
6074,53.0,0.0,30.0,7.0,0.0
6075,50.0,30.0,30.0,2.0,0.0
6076,50.0,0.0,30.0,7.0,0.0
6077,55.0,0.0,30.0,7.0,0.0
6078,55.0,30.0,30.0,2.0,0.0
6079,53.0,0.0,30.0,7.0,0.0
6080,53.0,30.0,30.0,2.0,0.0
6081,62.0,0.0,60.0,1.0,0.0
6082,55.0,0.0,30.0,2.0,0.0
6083,55.0,26.0,30.0,7.0,0.0
6084,71.0,4.0,60.0,0.0,0.0
6085,50.0,30.0,30.0,2.0,0.0
6086,50.0,0.0,30.0,7.0,0.0
6087,72.0,11.0,120.0,0.0,0.0
6088,60.0,0.0,120.0,1.0,0.0
6089,52.0,30.0,30.0,2.0,0.0
6090,52.0,0.0,30.0,7.0,0.0
6091,50.0,30.0,30.0,7.0,0.0
6092,50.0,0.0,30.0,2.0,0.0
6093,52.0,19.0,30.0,7.0,0.0
6094,52.0,0.0,30.0,2.0,0.0
6095,48.0,30.0,30.0,7.0,0.0
6096,48.0,0.0,30.0,2.0,0.0
6097,53.0,0.0,30.0,7.0,0.0
6098,53.0,30.0,30.0,2.0,0.0
6099,52.0,30.0,30.0,7.0,0.0
6100,52.0,0.0,30.0,2.0,0.0
6101,53.0,0.0,30.0,7.0,0.0
6102,72.0,0.0,60.0,0.0,0.0
6103,62.0,4.0,60.0,1.0,0.0
6104,53.0,26.0,30.0,2.0,0.0
6105,50.0,0.0,30.0,2.0,0.0
6106,50.0,30.0,30.0,7.0,0.0
6107,62.0,0.0,120.0,1.0,0.0
6108,70.0,11.0,120.0,0.0,0.0
6109,55.0,30.0,30.0,7.0,0.0
6110,55.0,0.0,30.0,2.0,0.0
6111,53.0,30.0,30.0,7.0,0.0
6112,53.0,0.0,30.0,2.0,0.0
6113,55.0,0.0,30.0,2.0,0.0
6114,55.0,19.0,30.0,7.0,0.0
6115,50.0,0.0,30.0,7.0,0.0
6116,50.0,30.0,30.0,2.0,0.0
6117,52.0,0.0,30.0,7.0,0.0
6118,52.0,30.0,30.0,2.0,0.0
6119,50.0,0.0,30.0,7.0,0.0
6120,50.0,30.0,30.0,2.0,0.0
6121,52.0,26.0,30.0,2.0,0.0
6122,70.0,0.0,60.0,0.0,0.0
6123,52.0,0.0,30.0,7.0,0.0
6124,60.0,4.0,60.0,1.0,0.0
6125,48.0,30.0,30.0,7.0,0.0
6126,48.0,0.0,30.0,2.0,0.0
6127,53.0,0.0,30.0,2.0,0.0
6128,60.0,11.0,120.0,1.0,0.0
6129,69.0,30.0,150.0,0.0,0.0
6130,53.0,30.0,30.0,7.0,0.0
6131,52.0,0.0,30.0,7.0,0.0
6132,52.0,30.0,30.0,2.0,0.0
6133,53.0,0.0,30.0,7.0,0.0
6134,53.0,19.0,30.0,2.0,0.0
6135,48.0,30.0,30.0,7.0,0.0
6136,48.0,0.0,30.0,2.0,0.0
6137,50.0,11.0,120.0,7.0,0.0
6138,50.0,0.0,120.0,2.0,0.0
6139,58.0,4.0,180.0,1.0,0.0
6140,67.0,30.0,30.0,0.0,0.0
6141,69.0,19.0,30.0,0.0,0.0
6142,65.0,30.0,30.0,0.0,0.0
6143,52.0,0.0,60.0,7.0,0.0
6144,52.0,0.0,60.0,2.0,0.0
6145,67.0,26.0,30.0,0.0,0.0
6146,72.0,30.0,30.0,0.0,0.0
6147,57.0,21.0,60.0,1.0,0.0
6148,53.0,0.0,60.0,7.0,0.0
6149,53.0,0.0,60.0,2.0,0.0
6150,77.0,17.0,30.0,0.0,0.0
6151,65.0,9.0,15.0,0.0,0.0
6152,48.0,7.0,120.0,2.0,0.0
6153,65.0,15.0,15.0,0.0,0.0
6154,55.0,29.0,60.0,1.0,0.0
6155,48.0,0.0,120.0,7.0,0.0
6156,64.0,24.0,15.0,0.0,0.0
6157,65.0,24.0,60.0,0.0,0.0
6158,58.0,4.0,60.0,1.0,0.0
6159,64.0,30.0,30.0,0.0,0.0
6160,41.0,0.0,120.0,3.0,0.0
6161,53.0,11.0,120.0,7.0,0.0
6162,57.0,0.0,30.0,1.0,0.0
6163,41.0,0.0,120.0,11.0,0.0
6164,65.0,30.0,30.0,0.0,0.0
6165,53.0,0.0,120.0,2.0,0.0
6166,58.0,0.0,30.0,1.0,0.0
6167,67.0,30.0,30.0,0.0,0.0
6168,69.0,0.0,30.0,0.0,0.0
6169,60.0,19.0,30.0,1.0,0.0
6170,58.0,0.0,30.0,1.0,0.0
6171,67.0,30.0,30.0,0.0,0.0
6172,65.0,30.0,30.0,0.0,0.0
6173,57.0,0.0,30.0,1.0,0.0
6174,67.0,30.0,30.0,0.0,0.0
6175,58.0,0.0,30.0,1.0,0.0
6176,43.0,0.0,60.0,3.0,0.0
6177,60.0,26.0,30.0,1.0,0.0
6178,69.0,0.0,30.0,0.0,0.0
6179,43.0,4.0,60.0,11.0,0.0
6180,67.0,0.0,30.0,0.0,0.0
6181,58.0,30.0,30.0,1.0,0.0
6182,65.0,26.0,30.0,0.0,0.0
6183,57.0,0.0,30.0,1.0,0.0
6184,45.0,4.0,60.0,3.0,0.0
6185,45.0,0.0,60.0,11.0,0.0
6186,58.0,0.0,30.0,1.0,0.0
6187,67.0,30.0,30.0,0.0,0.0
6188,60.0,26.0,30.0,1.0,0.0
6189,69.0,0.0,30.0,0.0,0.0
6190,46.0,4.0,60.0,11.0,0.0
6191,46.0,0.0,60.0,3.0,0.0
6192,67.0,0.0,30.0,0.0,0.0
6193,58.0,30.0,30.0,1.0,0.0
6194,48.0,0.0,60.0,3.0,0.0
6195,65.0,0.0,30.0,0.0,0.0
6196,57.0,26.0,30.0,1.0,0.0
6197,48.0,4.0,60.0,11.0,0.0
6198,67.0,30.0,30.0,0.0,0.0
6199,58.0,0.0,30.0,1.0,0.0
6200,69.0,0.0,30.0,0.0,0.0
6201,36.0,0.0,60.0,11.0,0.0
6202,36.0,4.0,60.0,3.0,0.0
6203,60.0,26.0,30.0,1.0,0.0
6204,67.0,0.0,30.0,0.0,0.0
6205,58.0,90.0,30.0,1.0,0.0
6206,41.0,0.0,120.0,3.0,0.0
6207,57.0,11.0,120.0,1.0,0.0
6208,41.0,0.0,120.0,11.0,0.0
6209,65.0,0.0,120.0,0.0,0.0
6210,53.0,0.0,30.0,7.0,0.0
6211,53.0,19.0,30.0,2.0,0.0
6212,52.0,0.0,30.0,7.0,0.0
6213,52.0,30.0,30.0,2.0,0.0
6214,53.0,30.0,30.0,7.0,0.0
6215,53.0,0.0,30.0,2.0,0.0
6216,52.0,0.0,30.0,7.0,0.0
6217,52.0,30.0,30.0,2.0,0.0
6218,53.0,0.0,30.0,7.0,0.0
6219,53.0,30.0,30.0,2.0,0.0
6220,52.0,0.0,30.0,2.0,0.0
6221,52.0,56.0,30.0,7.0,0.0
6222,53.0,60.0,60.0,7.0,0.0
6223,53.0,0.0,60.0,2.0,0.0
6224,41.0,0.0,60.0,2.0,0.0
6225,41.0,34.0,60.0,7.0,0.0
6226,74.0,30.0,30.0,0.0,0.0
6227,72.0,30.0,30.0,0.0,0.0
6228,65.0,0.0,60.0,2.0,0.0
6229,69.0,4.0,60.0,1.0,0.0
6230,65.0,0.0,60.0,7.0,0.0
6231,74.0,26.0,30.0,0.0,0.0
6232,69.0,30.0,30.0,0.0,0.0
6233,70.0,30.0,30.0,0.0,0.0
6234,65.0,0.0,120.0,7.0,0.0
6235,67.0,11.0,120.0,1.0,0.0
6236,65.0,0.0,120.0,2.0,0.0
6237,69.0,30.0,30.0,0.0,0.0
6238,70.0,19.0,30.0,0.0,0.0
6239,67.0,30.0,30.0,0.0,0.0
6240,72.0,30.0,30.0,0.0,0.0
6241,70.0,30.0,30.0,0.0,0.0
6242,64.0,0.0,60.0,7.0,0.0
6243,72.0,26.0,30.0,0.0,0.0
6244,64.0,0.0,60.0,2.0,0.0
6245,67.0,4.0,60.0,1.0,0.0
6246,67.0,30.0,30.0,0.0,0.0
6247,65.0,0.0,120.0,1.0,0.0
6248,64.0,0.0,120.0,2.0,0.0
6249,64.0,11.0,120.0,7.0,0.0
6250,69.0,30.0,30.0,0.0,0.0
6251,67.0,30.0,30.0,0.0,0.0
6252,69.0,19.0,30.0,0.0,0.0
6253,65.0,30.0,30.0,0.0,0.0
6254,70.0,30.0,30.0,0.0,0.0
6255,69.0,30.0,30.0,0.0,0.0
6256,65.0,4.0,60.0,1.0,0.0
6257,70.0,26.0,30.0,0.0,0.0
6258,62.0,0.0,60.0,2.0,0.0
6259,62.0,0.0,60.0,7.0,0.0
6260,65.0,30.0,30.0,0.0,0.0
6261,64.0,11.0,120.0,1.0,0.0
6262,67.0,30.0,30.0,0.0,0.0
6263,62.0,0.0,120.0,7.0,0.0
6264,62.0,0.0,120.0,2.0,0.0
6265,65.0,30.0,30.0,0.0,0.0
6266,67.0,19.0,30.0,0.0,0.0
6267,64.0,30.0,30.0,0.0,0.0
6268,69.0,30.0,30.0,0.0,0.0
6269,67.0,30.0,30.0,0.0,0.0
6270,69.0,26.0,30.0,0.0,0.0
6271,64.0,4.0,60.0,1.0,0.0
6272,60.0,0.0,60.0,7.0,0.0
6273,60.0,0.0,60.0,2.0,0.0
6274,64.0,30.0,30.0,0.0,0.0
6275,65.0,30.0,30.0,0.0,0.0
6276,60.0,11.0,120.0,7.0,0.0
6277,62.0,0.0,120.0,1.0,0.0
6278,60.0,0.0,120.0,2.0,0.0
6279,64.0,30.0,30.0,0.0,0.0
6280,65.0,19.0,30.0,0.0,0.0
6281,62.0,30.0,30.0,0.0,0.0
6282,67.0,30.0,30.0,0.0,0.0
6283,65.0,30.0,30.0,0.0,0.0
6284,67.0,26.0,30.0,0.0,0.0
6285,62.0,0.0,60.0,1.0,0.0
6286,58.0,0.0,60.0,2.0,0.0
6287,58.0,4.0,60.0,7.0,0.0
6288,62.0,30.0,30.0,0.0,0.0
6289,58.0,0.0,120.0,7.0,0.0
6290,58.0,11.0,120.0,2.0,0.0
6291,60.0,4.0,180.0,1.0,0.0
6292,64.0,30.0,30.0,0.0,0.0
6293,62.0,30.0,30.0,0.0,0.0
6294,64.0,19.0,30.0,0.0,0.0
6295,60.0,30.0,30.0,0.0,0.0
6296,57.0,26.0,30.0,7.0,0.0
6297,57.0,0.0,30.0,2.0,0.0
6298,65.0,30.0,150.0,0.0,0.0
6299,55.0,0.0,30.0,2.0,0.0
6300,55.0,30.0,30.0,7.0,0.0
6301,60.0,4.0,60.0,1.0,0.0
6302,57.0,0.0,30.0,2.0,0.0
6303,57.0,26.0,30.0,7.0,0.0
6304,53.0,30.0,30.0,7.0,0.0
6305,53.0,0.0,30.0,2.0,0.0
6306,58.0,0.0,150.0,2.0,0.0
6307,62.0,4.0,180.0,1.0,0.0
6308,58.0,26.0,150.0,7.0,0.0
6309,64.0,30.0,30.0,0.0,0.0
6310,65.0,30.0,30.0,0.0,0.0
6311,62.0,30.0,30.0,0.0,0.0
6312,67.0,30.0,150.0,0.0,0.0
6313,57.0,30.0,30.0,7.0,0.0
6314,57.0,0.0,30.0,2.0,0.0
6315,58.0,0.0,30.0,7.0,0.0
6316,62.0,4.0,60.0,1.0,0.0
6317,58.0,26.0,30.0,2.0,0.0
6318,55.0,0.0,30.0,2.0,0.0
6319,55.0,30.0,30.0,7.0,0.0
6320,64.0,4.0,180.0,1.0,0.0
6321,60.0,0.0,150.0,2.0,0.0
6322,60.0,26.0,150.0,7.0,0.0
6323,65.0,30.0,30.0,0.0,0.0
6324,67.0,30.0,30.0,0.0,0.0
6325,64.0,30.0,30.0,0.0,0.0
6326,69.0,30.0,150.0,0.0,0.0
6327,58.0,0.0,30.0,2.0,0.0
6328,58.0,30.0,30.0,7.0,0.0
6329,60.0,0.0,30.0,2.0,0.0
6330,64.0,4.0,60.0,1.0,0.0
6331,60.0,26.0,30.0,7.0,0.0
6332,57.0,30.0,30.0,7.0,0.0
6333,57.0,0.0,30.0,2.0,0.0
6334,62.0,26.0,150.0,2.0,0.0
6335,62.0,0.0,150.0,7.0,0.0
6336,65.0,4.0,180.0,1.0,0.0
6337,67.0,30.0,30.0,0.0,0.0
6338,69.0,30.0,30.0,0.0,0.0
6339,65.0,30.0,30.0,0.0,0.0
6340,70.0,0.0,30.0,0.0,0.0
6341,69.0,30.0,30.0,0.0,0.0
6342,60.0,0.0,30.0,2.0,0.0
6343,60.0,0.0,30.0,7.0,0.0
6344,62.0,0.0,30.0,7.0,0.0
6345,70.0,26.0,30.0,0.0,0.0
6346,62.0,0.0,30.0,2.0,0.0
6347,65.0,4.0,60.0,1.0,0.0
6348,60.0,30.0,30.0,2.0,0.0
6349,60.0,0.0,30.0,7.0,0.0
6350,69.0,0.0,30.0,0.0,0.0
6351,65.0,34.0,180.0,1.0,0.0
6352,62.0,0.0,30.0,2.0,0.0
6353,62.0,0.0,30.0,7.0,0.0
6354,70.0,30.0,30.0,0.0,0.0
6355,60.0,0.0,30.0,7.0,0.0
6356,69.0,0.0,30.0,0.0,0.0
6357,60.0,30.0,30.0,2.0,0.0
6358,67.0,0.0,30.0,0.0,0.0
6359,58.0,30.0,30.0,2.0,0.0
6360,58.0,0.0,30.0,7.0,0.0
6361,70.0,0.0,30.0,0.0,0.0
6362,62.0,0.0,30.0,2.0,0.0
6363,62.0,56.0,30.0,7.0,0.0
6364,60.0,0.0,60.0,7.0,0.0
6365,69.0,0.0,60.0,0.0,0.0
6366,60.0,0.0,60.0,2.0,0.0
6367,64.0,4.0,60.0,1.0,0.0
6368,48.0,0.0,60.0,7.0,0.0
6369,67.0,26.0,30.0,0.0,0.0
6370,48.0,0.0,60.0,2.0,0.0
6371,65.0,30.0,30.0,0.0,0.0
6372,53.0,0.0,30.0,3.0,0.0
6373,53.0,26.0,30.0,11.0,0.0
6374,65.0,4.0,60.0,1.0,0.0
6375,57.0,0.0,60.0,2.0,0.0
6376,65.0,0.0,60.0,0.0,0.0
6377,57.0,0.0,60.0,7.0,0.0
6378,55.0,30.0,30.0,11.0,0.0
6379,55.0,0.0,30.0,3.0,0.0
6380,57.0,0.0,30.0,3.0,0.0
6381,57.0,30.0,30.0,11.0,0.0
6382,55.0,0.0,30.0,11.0,0.0
6383,55.0,30.0,30.0,3.0,0.0
6384,53.0,30.0,30.0,3.0,0.0
6385,53.0,0.0,30.0,11.0,0.0
6386,55.0,30.0,30.0,3.0,0.0
6387,55.0,0.0,30.0,11.0,0.0
6388,57.0,0.0,30.0,11.0,0.0
6389,57.0,30.0,30.0,3.0,0.0
6390,55.0,0.0,30.0,3.0,0.0
6391,55.0,30.0,30.0,11.0,0.0
6392,53.0,0.0,30.0,3.0,0.0
6393,53.0,30.0,30.0,11.0,0.0
6394,55.0,0.0,30.0,3.0,0.0
6395,55.0,30.0,30.0,11.0,0.0
6396,57.0,30.0,30.0,11.0,0.0
6397,57.0,0.0,30.0,3.0,0.0
6398,55.0,0.0,30.0,3.0,0.0
6399,55.0,30.0,30.0,11.0,0.0
6400,53.0,0.0,30.0,3.0,0.0
6401,53.0,30.0,30.0,11.0,0.0
6402,55.0,30.0,30.0,11.0,0.0
6403,55.0,0.0,30.0,3.0,0.0
6404,57.0,30.0,30.0,3.0,0.0
6405,57.0,0.0,30.0,11.0,0.0
6406,55.0,0.0,30.0,11.0,0.0
6407,55.0,30.0,30.0,3.0,0.0
6408,53.0,11.0,120.0,3.0,0.0
6409,57.0,0.0,30.0,2.0,0.0
6410,53.0,0.0,120.0,11.0,0.0
6411,65.0,4.0,60.0,1.0,0.0
6412,72.0,26.0,30.0,0.0,0.0
6413,58.0,30.0,30.0,2.0,0.0
6414,74.0,0.0,30.0,0.0,0.0
6415,60.0,19.0,30.0,2.0,0.0
6416,75.0,0.0,30.0,0.0,0.0
6417,58.0,0.0,30.0,2.0,0.0
6418,74.0,30.0,30.0,0.0,0.0
6419,72.0,26.0,30.0,0.0,0.0
6420,65.0,4.0,60.0,1.0,0.0
6421,57.0,0.0,30.0,2.0,0.0
6422,58.0,0.0,30.0,2.0,0.0
6423,74.0,30.0,30.0,0.0,0.0
6424,75.0,30.0,30.0,0.0,0.0
6425,60.0,0.0,30.0,2.0,0.0
6426,58.0,0.0,30.0,2.0,0.0
6427,74.0,30.0,30.0,0.0,0.0
6428,72.0,0.0,30.0,0.0,0.0
6429,57.0,26.0,30.0,2.0,0.0
6430,65.0,4.0,60.0,1.0,0.0
6431,74.0,0.0,30.0,0.0,0.0
6432,58.0,30.0,30.0,2.0,0.0
6433,75.0,30.0,30.0,0.0,0.0
6434,60.0,0.0,30.0,2.0,0.0
6435,58.0,0.0,30.0,2.0,0.0
6436,74.0,30.0,30.0,0.0,0.0
6437,57.0,0.0,30.0,2.0,0.0
6438,72.0,26.0,30.0,0.0,0.0
6439,65.0,4.0,60.0,1.0,0.0
6440,58.0,0.0,30.0,2.0,0.0
6441,74.0,30.0,30.0,0.0,0.0
6442,60.0,0.0,30.0,2.0,0.0
6443,75.0,30.0,30.0,0.0,0.0
6444,74.0,0.0,30.0,0.0,0.0
6445,58.0,30.0,30.0,2.0,0.0
6446,41.0,30.0,30.0,3.0,0.0
6447,65.0,11.0,120.0,1.0,0.0
6448,41.0,0.0,30.0,11.0,0.0
6449,72.0,0.0,120.0,0.0,0.0
6450,57.0,0.0,120.0,2.0,0.0
6451,43.0,30.0,30.0,3.0,0.0
6452,43.0,0.0,30.0,11.0,0.0
6453,45.0,19.0,30.0,3.0,0.0
6454,45.0,0.0,30.0,11.0,0.0
6455,43.0,30.0,30.0,11.0,0.0
6456,43.0,0.0,30.0,3.0,0.0
6457,41.0,30.0,30.0,11.0,0.0
6458,41.0,0.0,30.0,3.0,0.0
6459,43.0,30.0,30.0,11.0,0.0
6460,43.0,0.0,30.0,3.0,0.0
6461,45.0,0.0,30.0,3.0,0.0
6462,45.0,30.0,30.0,11.0,0.0
6463,43.0,30.0,30.0,11.0,0.0
6464,43.0,0.0,30.0,3.0,0.0
6465,41.0,30.0,30.0,11.0,0.0
6466,41.0,0.0,30.0,3.0,0.0
6467,43.0,30.0,30.0,11.0,0.0
6468,43.0,0.0,30.0,3.0,0.0
6469,45.0,30.0,30.0,11.0,0.0
6470,45.0,0.0,30.0,3.0,0.0
6471,43.0,30.0,30.0,3.0,0.0
6472,43.0,0.0,30.0,11.0,0.0
6473,41.0,0.0,30.0,3.0,0.0
6474,41.0,30.0,30.0,11.0,0.0
6475,43.0,30.0,30.0,11.0,0.0
6476,43.0,0.0,30.0,3.0,0.0
6477,45.0,0.0,30.0,3.0,0.0
6478,45.0,30.0,30.0,11.0,0.0
6479,43.0,0.0,30.0,3.0,0.0
6480,43.0,30.0,30.0,11.0,0.0
6481,41.0,11.0,120.0,11.0,0.0
6482,41.0,0.0,120.0,3.0,0.0
6483,69.0,26.0,30.0,0.0,0.0
6484,60.0,0.0,30.0,2.0,0.0
6485,65.0,4.0,60.0,1.0,0.0
6486,70.0,30.0,30.0,0.0,0.0
6487,62.0,0.0,30.0,2.0,0.0
6488,72.0,0.0,30.0,0.0,0.0
6489,63.0,19.0,30.0,2.0,0.0
6490,70.0,0.0,30.0,0.0,0.0
6491,62.0,30.0,30.0,2.0,0.0
6492,60.0,0.0,30.0,2.0,0.0
6493,65.0,4.0,60.0,1.0,0.0
6494,69.0,26.0,30.0,0.0,0.0
6495,70.0,30.0,30.0,0.0,0.0
6496,62.0,0.0,30.0,2.0,0.0
6497,63.0,0.0,30.0,2.0,0.0
6498,72.0,30.0,30.0,0.0,0.0
6499,62.0,30.0,30.0,2.0,0.0
6500,70.0,0.0,30.0,0.0,0.0
6501,65.0,4.0,60.0,1.0,0.0
6502,69.0,26.0,30.0,0.0,0.0
6503,60.0,0.0,30.0,2.0,0.0
6504,62.0,0.0,30.0,2.0,0.0
6505,70.0,30.0,30.0,0.0,0.0
6506,72.0,0.0,30.0,0.0,0.0
6507,63.0,30.0,30.0,2.0,0.0
6508,70.0,30.0,30.0,0.0,0.0
6509,62.0,0.0,30.0,2.0,0.0
6510,65.0,4.0,60.0,1.0,0.0
6511,60.0,26.0,30.0,2.0,0.0
6512,69.0,0.0,30.0,0.0,0.0
6513,62.0,30.0,30.0,2.0,0.0
6514,70.0,0.0,30.0,0.0,0.0
6515,63.0,0.0,30.0,2.0,0.0
6516,72.0,30.0,30.0,0.0,0.0
6517,62.0,0.0,30.0,2.0,0.0
6518,70.0,30.0,30.0,0.0,0.0
6519,60.0,0.0,30.0,2.0,0.0
6520,69.0,26.0,30.0,0.0,0.0
6521,65.0,4.0,60.0,1.0,0.0
6522,58.0,0.0,30.0,2.0,0.0
6523,67.0,30.0,30.0,0.0,0.0
6524,69.0,0.0,30.0,0.0,0.0
6525,60.0,26.0,30.0,2.0,0.0
6526,53.0,0.0,60.0,11.0,0.0
6527,53.0,4.0,60.0,3.0,0.0
6528,57.0,0.0,30.0,2.0,0.0
6529,65.0,30.0,30.0,0.0,0.0
6530,70.0,0.0,30.0,0.0,0.0
6531,50.0,11.0,120.0,11.0,0.0
6532,50.0,0.0,120.0,3.0,0.0
6533,62.0,30.0,30.0,2.0,0.0
6534,72.0,30.0,30.0,0.0,0.0
6535,63.0,0.0,30.0,2.0,0.0
6536,74.0,0.0,30.0,0.0,0.0
6537,65.0,19.0,30.0,2.0,0.0
6538,72.0,0.0,30.0,0.0,0.0
6539,63.0,30.0,30.0,2.0,0.0
6540,70.0,0.0,30.0,0.0,0.0
6541,62.0,30.0,30.0,2.0,0.0
6542,60.0,30.0,30.0,2.0,0.0
6543,69.0,0.0,30.0,0.0,0.0
6544,70.0,26.0,30.0,0.0,0.0
6545,43.0,4.0,60.0,3.0,0.0
6546,43.0,0.0,60.0,11.0,0.0
6547,62.0,0.0,30.0,2.0,0.0
6548,67.0,0.0,30.0,0.0,0.0
6549,58.0,30.0,30.0,2.0,0.0
6550,72.0,0.0,30.0,0.0,0.0
6551,51.0,0.0,120.0,11.0,0.0
6552,51.0,11.0,120.0,3.0,0.0
6553,63.0,30.0,30.0,2.0,0.0
6554,65.0,0.0,30.0,2.0,0.0
6555,74.0,30.0,30.0,0.0,0.0
6556,75.0,0.0,30.0,0.0,0.0
6557,67.0,19.0,30.0,2.0,0.0
6558,65.0,30.0,30.0,2.0,0.0
6559,74.0,0.0,30.0,0.0,0.0
6560,72.0,0.0,30.0,0.0,0.0
6561,63.0,30.0,30.0,2.0,0.0
6562,70.0,0.0,30.0,0.0,0.0
6563,62.0,30.0,30.0,2.0,0.0
6564,72.0,26.0,30.0,0.0,0.0
6565,53.0,4.0,60.0,11.0,0.0
6566,63.0,0.0,30.0,2.0,0.0
6567,53.0,0.0,60.0,3.0,0.0
6568,69.0,0.0,30.0,0.0,0.0
6569,60.0,30.0,30.0,2.0,0.0
6570,50.0,11.0,120.0,3.0,0.0
6571,50.0,0.0,120.0,11.0,0.0
6572,62.0,30.0,30.0,2.0,0.0
6573,70.0,0.0,30.0,0.0,0.0
6574,63.0,30.0,30.0,2.0,0.0
6575,72.0,0.0,30.0,0.0,0.0
6576,74.0,0.0,30.0,0.0,0.0
6577,65.0,19.0,30.0,2.0,0.0
6578,72.0,30.0,30.0,0.0,0.0
6579,63.0,0.0,30.0,2.0,0.0
6580,62.0,30.0,30.0,2.0,0.0
6581,70.0,0.0,30.0,0.0,0.0
6582,69.0,0.0,30.0,0.0,0.0
6583,60.0,30.0,30.0,2.0,0.0
6584,62.0,26.0,30.0,2.0,0.0
6585,43.0,0.0,60.0,3.0,0.0
6586,43.0,4.0,60.0,11.0,0.0
6587,70.0,0.0,30.0,0.0,0.0
6588,58.0,0.0,30.0,2.0,0.0
6589,67.0,30.0,30.0,0.0,0.0
6590,51.0,0.0,120.0,3.0,0.0
6591,72.0,30.0,30.0,0.0,0.0
6592,51.0,11.0,120.0,11.0,0.0
6593,63.0,0.0,30.0,2.0,0.0
6594,74.0,0.0,30.0,0.0,0.0
6595,65.0,30.0,30.0,2.0,0.0
6596,75.0,0.0,30.0,0.0,0.0
6597,67.0,19.0,30.0,2.0,0.0
6598,65.0,30.0,30.0,2.0,0.0
6599,74.0,0.0,30.0,0.0,0.0
6600,72.0,0.0,30.0,0.0,0.0
6601,63.0,30.0,30.0,2.0,0.0
6602,70.0,0.0,30.0,0.0,0.0
6603,62.0,30.0,30.0,2.0,0.0
6604,72.0,26.0,30.0,0.0,0.0
6605,53.0,4.0,60.0,3.0,0.0
6606,53.0,0.0,60.0,11.0,0.0
6607,63.0,0.0,30.0,2.0,0.0
6608,69.0,30.0,30.0,0.0,0.0
6609,60.0,0.0,30.0,2.0,0.0
6610,58.0,30.0,30.0,2.0,0.0
6611,50.0,11.0,120.0,11.0,0.0
6612,50.0,0.0,120.0,3.0,0.0
6613,74.0,0.0,30.0,0.0,0.0
6614,75.0,0.0,30.0,0.0,0.0
6615,60.0,30.0,30.0,2.0,0.0
6616,77.0,19.0,30.0,0.0,0.0
6617,62.0,0.0,30.0,2.0,0.0
6618,60.0,0.0,30.0,2.0,0.0
6619,75.0,30.0,30.0,0.0,0.0
6620,74.0,30.0,30.0,0.0,0.0
6621,58.0,0.0,30.0,2.0,0.0
6622,72.0,30.0,30.0,0.0,0.0
6623,57.0,0.0,30.0,2.0,0.0
6624,55.0,0.0,60.0,3.0,0.0
6625,74.0,0.0,30.0,0.0,0.0
6626,55.0,4.0,60.0,11.0,0.0
6627,58.0,26.0,30.0,2.0,0.0
6628,70.0,30.0,30.0,0.0,0.0
6629,55.0,0.0,30.0,2.0,0.0
6630,75.0,0.0,30.0,0.0,0.0
6631,60.0,30.0,30.0,2.0,0.0
6632,51.0,0.0,120.0,3.0,0.0
6633,51.0,11.0,120.0,11.0,0.0
6634,77.0,30.0,30.0,0.0,0.0
6635,62.0,0.0,30.0,2.0,0.0
6636,63.0,0.0,30.0,2.0,0.0
6637,79.0,19.0,30.0,0.0,0.0
6638,77.0,0.0,30.0,0.0,0.0
6639,62.0,30.0,30.0,2.0,0.0
6640,60.0,30.0,30.0,2.0,0.0
6641,75.0,0.0,30.0,0.0,0.0
6642,58.0,30.0,30.0,2.0,0.0
6643,74.0,0.0,30.0,0.0,0.0
6644,60.0,0.0,30.0,2.0,0.0
6645,75.0,26.0,30.0,0.0,0.0
6646,53.0,4.0,60.0,11.0,0.0
6647,53.0,0.0,60.0,3.0,0.0
6648,57.0,30.0,30.0,2.0,0.0
6649,72.0,0.0,30.0,0.0,0.0
6650,50.0,11.0,120.0,3.0,0.0
6651,74.0,30.0,30.0,0.0,0.0
6652,58.0,0.0,30.0,2.0,0.0
6653,50.0,0.0,120.0,11.0,0.0
6654,75.0,30.0,30.0,0.0,0.0
6655,60.0,0.0,30.0,2.0,0.0
6656,77.0,19.0,30.0,0.0,0.0
6657,62.0,0.0,30.0,2.0,0.0
6658,60.0,0.0,30.0,2.0,0.0
6659,75.0,30.0,30.0,0.0,0.0
6660,74.0,30.0,30.0,0.0,0.0
6661,58.0,0.0,30.0,2.0,0.0
6662,72.0,0.0,30.0,0.0,0.0
6663,57.0,30.0,30.0,2.0,0.0
6664,74.0,0.0,30.0,0.0,0.0
6665,55.0,4.0,60.0,11.0,0.0
6666,58.0,26.0,30.0,2.0,0.0
6667,55.0,0.0,60.0,3.0,0.0
6668,55.0,30.0,30.0,2.0,0.0
6669,70.0,0.0,30.0,0.0,0.0
6670,60.0,0.0,30.0,2.0,0.0
6671,51.0,0.0,120.0,11.0,0.0
6672,51.0,11.0,120.0,3.0,0.0
6673,75.0,30.0,30.0,0.0,0.0
6674,77.0,0.0,30.0,0.0,0.0
6675,62.0,30.0,30.0,2.0,0.0
6676,79.0,19.0,30.0,0.0,0.0
6677,63.0,0.0,30.0,2.0,0.0
6678,77.0,0.0,30.0,0.0,0.0
6679,62.0,30.0,30.0,2.0,0.0
6680,60.0,0.0,30.0,2.0,0.0
6681,75.0,30.0,30.0,0.0,0.0
6682,74.0,0.0,30.0,0.0,0.0
6683,58.0,30.0,30.0,2.0,0.0
6684,53.0,0.0,60.0,3.0,0.0
6685,53.0,4.0,60.0,11.0,0.0
6686,60.0,26.0,30.0,2.0,0.0
6687,75.0,0.0,30.0,0.0,0.0
6688,72.0,30.0,30.0,0.0,0.0
6689,57.0,0.0,30.0,2.0,0.0
6690,46.0,11.0,120.0,11.0,0.0
6691,74.0,0.0,30.0,0.0,0.0
6692,46.0,0.0,120.0,3.0,0.0
6693,58.0,30.0,30.0,2.0,0.0
6694,72.0,0.0,30.0,0.0,0.0
6695,60.0,30.0,30.0,2.0,0.0
6696,70.0,0.0,30.0,0.0,0.0
6697,62.0,19.0,30.0,2.0,0.0
6698,72.0,60.0,30.0,0.0,0.0
6699,63.0,0.0,30.0,2.0,0.0
6700,60.0,0.0,120.0,2.0,0.0
6701,65.0,11.0,120.0,1.0,0.0
6702,69.0,0.0,120.0,0.0,0.0
6703,52.0,30.0,30.0,3.0,0.0
6704,52.0,0.0,30.0,11.0,0.0
6705,53.0,0.0,30.0,11.0,0.0
6706,53.0,19.0,30.0,3.0,0.0
6707,52.0,0.0,30.0,11.0,0.0
6708,52.0,56.0,30.0,3.0,0.0
6709,53.0,0.0,120.0,3.0,0.0
6710,53.0,7.0,120.0,11.0,0.0
6711,65.0,4.0,60.0,1.0,0.0
6712,60.0,0.0,30.0,2.0,0.0
6713,69.0,30.0,30.0,0.0,0.0
6714,62.0,0.0,30.0,2.0,0.0
6715,65.0,4.0,60.0,1.0,0.0
6716,70.0,19.0,30.0,0.0,0.0
6717,60.0,60.0,30.0,2.0,0.0
6718,69.0,0.0,30.0,0.0,0.0
6719,70.0,11.0,120.0,0.0,0.0
6720,65.0,0.0,120.0,1.0,0.0
6721,62.0,0.0,120.0,2.0,0.0
6722,52.0,0.0,30.0,11.0,0.0
6723,52.0,30.0,30.0,3.0,0.0
6724,53.0,0.0,30.0,3.0,0.0
6725,53.0,19.0,30.0,11.0,0.0
6726,52.0,0.0,30.0,3.0,0.0
6727,52.0,56.0,30.0,11.0,0.0
6728,65.0,4.0,60.0,1.0,0.0
6729,53.0,7.0,120.0,3.0,0.0
6730,53.0,0.0,120.0,11.0,0.0
6731,70.0,30.0,30.0,0.0,0.0
6732,62.0,0.0,30.0,2.0,0.0
6733,65.0,4.0,60.0,1.0,0.0
6734,72.0,0.0,30.0,0.0,0.0
6735,63.0,19.0,30.0,2.0,0.0
6736,62.0,0.0,30.0,2.0,0.0
6737,70.0,60.0,30.0,0.0,0.0
6738,72.0,0.0,120.0,0.0,0.0
6739,63.0,0.0,120.0,2.0,0.0
6740,65.0,11.0,120.0,1.0,0.0
6741,52.0,0.0,30.0,11.0,0.0
6742,52.0,30.0,30.0,3.0,0.0
6743,53.0,19.0,30.0,3.0,0.0
6744,53.0,0.0,30.0,11.0,0.0
6745,52.0,56.0,30.0,11.0,0.0
6746,52.0,0.0,30.0,3.0,0.0
6747,53.0,7.0,120.0,3.0,0.0
6748,65.0,4.0,60.0,1.0,0.0
6749,53.0,0.0,120.0,11.0,0.0
6750,69.0,0.0,30.0,0.0,0.0
6751,60.0,30.0,30.0,2.0,0.0
6752,62.0,0.0,30.0,2.0,0.0
6753,70.0,19.0,30.0,0.0,0.0
6754,65.0,4.0,60.0,1.0,0.0
6755,69.0,0.0,30.0,0.0,0.0
6756,60.0,60.0,30.0,2.0,0.0
6757,65.0,11.0,120.0,1.0,0.0
6758,70.0,0.0,120.0,0.0,0.0
6759,62.0,0.0,120.0,2.0,0.0
6760,52.0,30.0,30.0,3.0,0.0
6761,52.0,0.0,30.0,11.0,0.0
6762,53.0,0.0,30.0,3.0,0.0
6763,53.0,19.0,30.0,11.0,0.0
6764,52.0,0.0,30.0,3.0,0.0
6765,52.0,56.0,30.0,11.0,0.0
6766,53.0,0.0,120.0,3.0,0.0
6767,65.0,4.0,60.0,1.0,0.0
6768,53.0,7.0,120.0,11.0,0.0
6769,70.0,0.0,30.0,0.0,0.0
6770,62.0,30.0,30.0,2.0,0.0
6771,63.0,19.0,30.0,2.0,0.0
6772,65.0,4.0,60.0,1.0,0.0
6773,72.0,0.0,30.0,0.0,0.0
6774,70.0,0.0,30.0,0.0,0.0
6775,62.0,60.0,30.0,2.0,0.0
6776,65.0,0.0,120.0,1.0,0.0
6777,63.0,0.0,120.0,2.0,0.0
6778,72.0,11.0,120.0,0.0,0.0
6779,52.0,0.0,30.0,3.0,0.0
6780,52.0,30.0,30.0,11.0,0.0
6781,53.0,0.0,30.0,11.0,0.0
6782,53.0,19.0,30.0,3.0,0.0
6783,52.0,56.0,30.0,11.0,0.0
6784,52.0,0.0,30.0,3.0,0.0
6785,53.0,0.0,120.0,3.0,0.0
6786,65.0,4.0,60.0,1.0,0.0
6787,53.0,7.0,120.0,11.0,0.0
6788,60.0,0.0,30.0,2.0,0.0
6789,69.0,30.0,30.0,0.0,0.0
6790,65.0,4.0,60.0,1.0,0.0
6791,70.0,0.0,30.0,0.0,0.0
6792,62.0,19.0,30.0,2.0,0.0
6793,69.0,60.0,30.0,0.0,0.0
6794,60.0,0.0,30.0,2.0,0.0
6795,65.0,0.0,120.0,1.0,0.0
6796,62.0,11.0,120.0,2.0,0.0
6797,70.0,0.0,120.0,0.0,0.0
6798,52.0,30.0,30.0,11.0,0.0
6799,52.0,0.0,30.0,3.0,0.0
6800,53.0,19.0,30.0,3.0,0.0
6801,53.0,0.0,30.0,11.0,0.0
6802,52.0,0.0,30.0,3.0,0.0
6803,52.0,56.0,30.0,11.0,0.0
6804,53.0,7.0,120.0,11.0,0.0
6805,53.0,0.0,120.0,3.0,0.0
6806,64.0,4.0,60.0,1.0,0.0
6807,67.0,30.0,30.0,0.0,0.0
6808,58.0,0.0,30.0,2.0,0.0
6809,69.0,0.0,30.0,0.0,0.0
6810,64.0,4.0,60.0,1.0,0.0
6811,60.0,19.0,30.0,2.0,0.0
6812,58.0,30.0,30.0,2.0,0.0
6813,67.0,0.0,30.0,0.0,0.0
6814,69.0,26.0,30.0,0.0,0.0
6815,65.0,4.0,60.0,1.0,0.0
6816,60.0,0.0,30.0,2.0,0.0
6817,62.0,0.0,30.0,2.0,0.0
6818,70.0,30.0,30.0,0.0,0.0
6819,53.0,0.0,60.0,11.0,0.0
6820,72.0,26.0,30.0,0.0,0.0
6821,63.0,0.0,30.0,2.0,0.0
6822,53.0,4.0,60.0,3.0,0.0
6823,62.0,0.0,30.0,2.0,0.0
6824,70.0,30.0,30.0,0.0,0.0
6825,41.0,16.0,120.0,3.0,0.0
6826,41.0,11.0,120.0,11.0,0.0
6827,60.0,0.0,30.0,2.0,0.0
6828,69.0,30.0,30.0,0.0,0.0
6829,62.0,0.0,30.0,2.0,0.0
6830,70.0,30.0,30.0,0.0,0.0
6831,72.0,0.0,30.0,0.0,0.0
6832,63.0,19.0,30.0,2.0,0.0
6833,70.0,14.0,30.0,0.0,0.0
6834,62.0,0.0,30.0,2.0,0.0
6835,60.0,0.0,30.0,2.0,0.0
6836,69.0,30.0,30.0,0.0,0.0
6837,70.0,30.0,30.0,0.0,0.0
6838,62.0,0.0,30.0,2.0,0.0
6839,51.0,4.0,60.0,11.0,0.0
6840,51.0,0.0,60.0,3.0,0.0
6841,72.0,26.0,30.0,0.0,0.0
6842,63.0,0.0,30.0,2.0,0.0
6843,70.0,0.0,30.0,0.0,0.0
6844,62.0,30.0,30.0,2.0,0.0
6845,39.0,11.0,120.0,11.0,0.0
6846,39.0,11.0,120.0,3.0,0.0
6847,60.0,0.0,30.0,2.0,0.0
6848,69.0,30.0,30.0,0.0,0.0
6849,70.0,0.0,30.0,0.0,0.0
6850,62.0,30.0,30.0,2.0,0.0
6851,72.0,0.0,30.0,0.0,0.0
6852,63.0,19.0,30.0,2.0,0.0
6853,62.0,0.0,30.0,2.0,0.0
6854,70.0,19.0,30.0,0.0,0.0
6855,69.0,0.0,30.0,0.0,0.0
6856,60.0,30.0,30.0,2.0,0.0
6857,70.0,30.0,30.0,0.0,0.0
6858,62.0,0.0,30.0,2.0,0.0
6859,63.0,26.0,30.0,2.0,0.0
6860,50.0,0.0,60.0,11.0,0.0
6861,50.0,4.0,60.0,3.0,0.0
6862,72.0,0.0,30.0,0.0,0.0
6863,62.0,0.0,30.0,2.0,0.0
6864,70.0,30.0,30.0,0.0,0.0
6865,69.0,0.0,30.0,0.0,0.0
6866,60.0,30.0,30.0,2.0,0.0
6867,38.0,21.0,120.0,3.0,0.0
6868,38.0,11.0,120.0,11.0,0.0
6869,70.0,30.0,30.0,0.0,0.0
6870,62.0,0.0,30.0,2.0,0.0
6871,72.0,19.0,30.0,0.0,0.0
6872,63.0,0.0,30.0,2.0,0.0
6873,62.0,9.0,30.0,2.0,0.0
6874,70.0,0.0,30.0,0.0,0.0
6875,60.0,30.0,30.0,2.0,0.0
6876,69.0,0.0,30.0,0.0,0.0
6877,70.0,30.0,30.0,0.0,0.0
6878,62.0,0.0,30.0,2.0,0.0
6879,48.0,0.0,60.0,11.0,0.0
6880,72.0,0.0,30.0,0.0,0.0
6881,63.0,26.0,30.0,2.0,0.0
6882,48.0,4.0,60.0,3.0,0.0
6883,70.0,30.0,30.0,0.0,0.0
6884,62.0,0.0,30.0,2.0,0.0
6885,60.0,30.0,30.0,2.0,0.0
6886,36.0,11.0,120.0,11.0,0.0
6887,69.0,0.0,30.0,0.0,0.0
6888,36.0,11.0,120.0,3.0,0.0
6889,62.0,0.0,30.0,2.0,0.0
6890,70.0,30.0,30.0,0.0,0.0
6891,72.0,19.0,30.0,0.0,0.0
6892,63.0,0.0,30.0,2.0,0.0
6893,60.0,19.0,30.0,2.0,0.0
6894,69.0,0.0,30.0,0.0,0.0
6895,62.0,0.0,30.0,2.0,0.0
6896,70.0,30.0,30.0,0.0,0.0
6897,72.0,30.0,30.0,0.0,0.0
6898,63.0,0.0,30.0,2.0,0.0
6899,65.0,0.0,30.0,2.0,0.0
6900,46.0,4.0,60.0,3.0,0.0
6901,74.0,26.0,30.0,0.0,0.0
6902,46.0,0.0,60.0,11.0,0.0
6903,72.0,0.0,30.0,0.0,0.0
6904,63.0,30.0,30.0,2.0,0.0
6905,34.0,11.0,120.0,11.0,0.0
6906,62.0,30.0,30.0,2.0,0.0
6907,70.0,0.0,30.0,0.0,0.0
6908,34.0,21.0,120.0,3.0,0.0
6909,72.0,30.0,30.0,0.0,0.0
6910,63.0,0.0,30.0,2.0,0.0
6911,65.0,0.0,30.0,2.0,0.0
6912,74.0,19.0,30.0,0.0,0.0
6913,63.0,9.0,30.0,2.0,0.0
6914,72.0,0.0,30.0,0.0,0.0
6915,62.0,11.0,120.0,2.0,0.0
6916,70.0,30.0,30.0,0.0,0.0
6917,74.0,30.0,30.0,0.0,0.0
6918,70.0,19.0,30.0,0.0,0.0
6919,65.0,30.0,30.0,0.0,0.0
6920,62.0,30.0,30.0,2.0,0.0
6921,65.0,30.0,30.0,2.0,0.0
6922,62.0,30.0,30.0,2.0,0.0
6923,58.0,30.0,30.0,2.0,0.0
6924,65.0,30.0,30.0,0.0,0.0
6925,69.0,30.0,30.0,0.0,0.0
6926,65.0,30.0,30.0,0.0,0.0
6927,62.0,30.0,30.0,0.0,0.0
6928,58.0,30.0,30.0,2.0,0.0
6929,62.0,30.0,30.0,2.0,0.0
6930,58.0,30.0,30.0,2.0,0.0
6931,53.0,30.0,30.0,2.0,0.0
6932,62.0,30.0,30.0,0.0,0.0
6933,65.0,30.0,30.0,0.0,0.0
6934,62.0,30.0,30.0,0.0,0.0
6935,58.0,30.0,30.0,0.0,0.0
6936,53.0,30.0,30.0,2.0,0.0
6937,58.0,30.0,30.0,2.0,0.0
6938,53.0,30.0,30.0,2.0,0.0
6939,50.0,30.0,30.0,2.0,0.0
6940,58.0,30.0,30.0,0.0,0.0
6941,62.0,30.0,30.0,0.0,0.0
6942,58.0,30.0,30.0,0.0,0.0
6943,53.0,30.0,30.0,0.0,0.0
6944,50.0,30.0,30.0,2.0,0.0
6945,53.0,30.0,30.0,2.0,0.0
6946,50.0,30.0,30.0,2.0,0.0
6947,46.0,30.0,30.0,2.0,0.0
6948,46.0,0.0,30.0,11.0,0.0
6949,46.0,30.0,30.0,3.0,0.0
6950,48.0,30.0,30.0,3.0,0.0
6951,48.0,0.0,30.0,11.0,0.0
6952,50.0,0.0,30.0,11.0,0.0
6953,50.0,30.0,30.0,3.0,0.0
6954,48.0,30.0,30.0,11.0,0.0
6955,48.0,0.0,30.0,3.0,0.0
6956,46.0,0.0,30.0,11.0,0.0
6957,46.0,30.0,30.0,3.0,0.0
6958,48.0,30.0,30.0,11.0,0.0
6959,48.0,0.0,30.0,3.0,0.0
6960,50.0,0.0,30.0,3.0,0.0
6961,50.0,30.0,30.0,11.0,0.0
6962,48.0,30.0,30.0,3.0,0.0
6963,48.0,0.0,30.0,11.0,0.0
6964,46.0,30.0,30.0,11.0,0.0
6965,46.0,0.0,30.0,3.0,0.0
6966,48.0,30.0,30.0,11.0,0.0
6967,48.0,0.0,30.0,3.0,0.0
6968,50.0,0.0,30.0,11.0,0.0
6969,50.0,30.0,30.0,3.0,0.0
6970,48.0,0.0,30.0,3.0,0.0
6971,48.0,30.0,30.0,11.0,0.0
6972,46.0,30.0,30.0,3.0,0.0
6973,46.0,0.0,30.0,11.0,0.0
6974,48.0,30.0,30.0,3.0,0.0
6975,48.0,0.0,30.0,11.0,0.0
6976,50.0,30.0,30.0,3.0,0.0
6977,50.0,0.0,30.0,11.0,0.0
6978,48.0,0.0,30.0,3.0,0.0
6979,48.0,56.0,30.0,11.0,0.0
6980,46.0,0.0,60.0,3.0,0.0
6981,46.0,34.0,60.0,11.0,0.0
6982,77.0,4.0,60.0,0.0,0.0
6983,62.0,0.0,30.0,2.0,0.0
6984,70.0,26.0,30.0,1.0,0.0
6985,60.0,30.0,30.0,2.0,0.0
6986,69.0,0.0,30.0,1.0,0.0
6987,70.0,26.0,30.0,1.0,0.0
6988,77.0,4.0,60.0,0.0,0.0
6989,62.0,0.0,30.0,2.0,0.0
6990,60.0,0.0,30.0,2.0,0.0
6991,69.0,30.0,30.0,1.0,0.0
6992,77.0,4.0,60.0,0.0,0.0
6993,62.0,0.0,30.0,2.0,0.0
6994,70.0,26.0,30.0,1.0,0.0
6995,60.0,0.0,30.0,2.0,0.0
6996,69.0,56.0,30.0,1.0,0.0
6997,62.0,94.0,60.0,2.0,0.0
6998,70.0,0.0,60.0,1.0,0.0
6999,77.0,0.0,60.0,0.0,0.0
7000,55.0,0.0,30.0,11.0,0.0
7001,55.0,30.0,30.0,3.0,0.0
7002,53.0,30.0,30.0,3.0,0.0
7003,53.0,0.0,30.0,11.0,0.0
7004,55.0,0.0,30.0,11.0,0.0
7005,55.0,0.0,60.0,2.0,0.0
7006,67.0,0.0,60.0,1.0,0.0
7007,58.0,0.0,60.0,2.0,0.0
7008,62.0,0.0,60.0,1.0,0.0
7009,55.0,26.0,30.0,3.0,0.0
7010,70.0,0.0,60.0,0.0,0.0
7011,74.0,4.0,60.0,0.0,0.0
7012,50.0,30.0,30.0,3.0,0.0
7013,50.0,0.0,30.0,11.0,0.0
7014,51.0,30.0,30.0,3.0,0.0
7015,51.0,0.0,30.0,11.0,0.0
7016,63.0,0.0,120.0,1.0,0.0
7017,67.0,0.0,120.0,1.0,0.0
7018,70.0,0.0,120.0,0.0,0.0
7019,60.0,11.0,120.0,2.0,0.0
7020,55.0,0.0,120.0,2.0,0.0
7021,72.0,0.0,120.0,0.0,0.0
7022,50.0,0.0,30.0,11.0,0.0
7023,50.0,30.0,30.0,3.0,0.0
7024,51.0,0.0,30.0,11.0,0.0
7025,51.0,19.0,30.0,3.0,0.0
7026,48.0,0.0,30.0,3.0,0.0
7027,48.0,30.0,30.0,11.0,0.0
7028,53.0,0.0,30.0,11.0,0.0
7029,53.0,30.0,30.0,3.0,0.0
7030,51.0,0.0,30.0,3.0,0.0
7031,51.0,30.0,30.0,11.0,0.0
7032,57.0,0.0,60.0,2.0,0.0
7033,65.0,0.0,60.0,1.0,0.0
7034,60.0,0.0,60.0,1.0,0.0
7035,72.0,4.0,60.0,0.0,0.0
7036,69.0,0.0,60.0,0.0,0.0
7037,53.0,0.0,60.0,2.0,0.0
7038,53.0,0.0,30.0,3.0,0.0
7039,53.0,26.0,30.0,11.0,0.0
7040,48.0,0.0,30.0,3.0,0.0
7041,48.0,30.0,30.0,11.0,0.0
7042,53.0,11.0,120.0,2.0,0.0
7043,58.0,0.0,120.0,2.0,0.0
7044,69.0,0.0,120.0,0.0,0.0
7045,70.0,0.0,120.0,0.0,0.0
7046,62.0,0.0,120.0,1.0,0.0
7047,65.0,0.0,120.0,1.0,0.0
7048,50.0,30.0,30.0,3.0,0.0
7049,50.0,0.0,30.0,11.0,0.0
7050,48.0,0.0,30.0,3.0,0.0
7051,48.0,30.0,30.0,11.0,0.0
7052,50.0,19.0,30.0,3.0,0.0
7053,50.0,0.0,30.0,11.0,0.0
7054,46.0,30.0,30.0,3.0,0.0
7055,46.0,0.0,30.0,11.0,0.0
7056,51.0,30.0,30.0,3.0,0.0
7057,51.0,0.0,30.0,11.0,0.0
7058,50.0,0.0,30.0,11.0,0.0
7059,50.0,30.0,30.0,3.0,0.0
7060,67.0,4.0,60.0,0.0,0.0
7061,55.0,0.0,60.0,2.0,0.0
7062,58.0,0.0,60.0,1.0,0.0
7063,63.0,0.0,60.0,1.0,0.0
7064,51.0,0.0,60.0,2.0,0.0
7065,70.0,0.0,60.0,0.0,0.0
7066,51.0,0.0,30.0,3.0,0.0
7067,51.0,26.0,30.0,11.0,0.0
7068,46.0,30.0,30.0,11.0,0.0
7069,46.0,0.0,30.0,3.0,0.0
7070,51.0,11.0,120.0,2.0,0.0
7071,69.0,0.0,120.0,0.0,0.0
7072,57.0,0.0,120.0,2.0,0.0
7073,48.0,30.0,30.0,3.0,0.0
7074,67.0,0.0,120.0,0.0,0.0
7075,60.0,0.0,120.0,1.0,0.0
7076,63.0,0.0,120.0,1.0,0.0
7077,48.0,0.0,30.0,11.0,0.0
7078,46.0,30.0,30.0,11.0,0.0
7079,46.0,0.0,30.0,3.0,0.0
7080,48.0,19.0,30.0,11.0,0.0
7081,48.0,0.0,30.0,3.0,0.0
7082,45.0,30.0,30.0,11.0,0.0
7083,45.0,0.0,30.0,3.0,0.0
7084,50.0,0.0,30.0,3.0,0.0
7085,50.0,30.0,30.0,11.0,0.0
7086,48.0,0.0,30.0,11.0,0.0
7087,48.0,30.0,30.0,3.0,0.0
7088,69.0,0.0,60.0,0.0,0.0
7089,65.0,4.0,60.0,0.0,0.0
7090,50.0,0.0,30.0,11.0,0.0
7091,57.0,0.0,60.0,1.0,0.0
7092,53.0,0.0,60.0,2.0,0.0
7093,50.0,0.0,60.0,2.0,0.0
7094,62.0,0.0,60.0,1.0,0.0
7095,50.0,26.0,30.0,3.0,0.0
7096,45.0,30.0,30.0,11.0,0.0
7097,45.0,0.0,30.0,3.0,0.0
7098,46.0,0.0,30.0,11.0,0.0
7099,62.0,0.0,120.0,1.0,0.0
7100,58.0,0.0,120.0,1.0,0.0
7101,50.0,0.0,120.0,2.0,0.0
7102,55.0,0.0,120.0,2.0,0.0
7103,65.0,0.0,120.0,0.0,0.0
7104,67.0,11.0,120.0,0.0,0.0
7105,46.0,30.0,30.0,3.0,0.0
7106,45.0,0.0,30.0,3.0,0.0
7107,45.0,30.0,30.0,11.0,0.0
7108,46.0,0.0,30.0,3.0,0.0
7109,46.0,19.0,30.0,11.0,0.0
7110,43.0,0.0,30.0,11.0,0.0
7111,43.0,30.0,30.0,3.0,0.0
7112,48.0,0.0,30.0,11.0,0.0
7113,48.0,30.0,30.0,3.0,0.0
7114,46.0,0.0,30.0,3.0,0.0
7115,46.0,30.0,30.0,11.0,0.0
7116,48.0,0.0,30.0,11.0,0.0
7117,63.0,4.0,60.0,0.0,0.0
7118,67.0,0.0,60.0,0.0,0.0
7119,48.0,26.0,30.0,3.0,0.0
7120,55.0,0.0,60.0,1.0,0.0
7121,60.0,0.0,60.0,1.0,0.0
7122,48.0,0.0,60.0,2.0,0.0
7123,51.0,0.0,60.0,2.0,0.0
7124,43.0,30.0,30.0,3.0,0.0
7125,43.0,0.0,30.0,11.0,0.0
7126,53.0,0.0,120.0,2.0,0.0
7127,57.0,0.0,120.0,1.0,0.0
7128,63.0,0.0,120.0,0.0,0.0
7129,65.0,30.0,150.0,0.0,0.0
7130,45.0,0.0,30.0,3.0,0.0
7131,45.0,30.0,30.0,11.0,0.0
7132,60.0,11.0,120.0,1.0,0.0
7133,48.0,0.0,120.0,2.0,0.0
7134,43.0,30.0,30.0,3.0,0.0
7135,43.0,0.0,30.0,11.0,0.0
7136,45.0,19.0,30.0,11.0,0.0
7137,45.0,0.0,30.0,3.0,0.0
7138,41.0,0.0,30.0,11.0,0.0
7139,41.0,30.0,30.0,3.0,0.0
7140,46.0,0.0,150.0,3.0,0.0
7141,50.0,11.0,120.0,2.0,0.0
7142,53.0,0.0,120.0,2.0,0.0
7143,58.0,0.0,120.0,1.0,0.0
7144,62.0,0.0,120.0,1.0,0.0
7145,46.0,30.0,150.0,11.0,0.0
7146,67.0,30.0,30.0,0.0,0.0
7147,65.0,19.0,30.0,0.0,0.0
7148,67.0,30.0,30.0,0.0,0.0
7149,63.0,30.0,150.0,0.0,0.0
7150,51.0,0.0,120.0,2.0,0.0
7151,48.0,0.0,120.0,2.0,0.0
7152,55.0,11.0,120.0,1.0,0.0
7153,60.0,0.0,120.0,1.0,0.0
7154,48.0,30.0,30.0,11.0,0.0
7155,48.0,0.0,30.0,3.0,0.0
7156,46.0,0.0,30.0,11.0,0.0
7157,46.0,19.0,30.0,3.0,0.0
7158,48.0,0.0,30.0,11.0,0.0
7159,48.0,30.0,30.0,3.0,0.0
7160,45.0,11.0,120.0,11.0,0.0
7161,48.0,0.0,120.0,2.0,0.0
7162,45.0,0.0,120.0,3.0,0.0
7163,53.0,0.0,120.0,1.0,0.0
7164,60.0,0.0,120.0,1.0,0.0
7165,65.0,30.0,30.0,0.0,0.0
7166,63.0,19.0,30.0,0.0,0.0
7167,65.0,60.0,30.0,0.0,0.0
7168,58.0,0.0,120.0,1.0,0.0
7169,53.0,0.0,120.0,1.0,0.0
7170,46.0,0.0,120.0,3.0,0.0
7171,46.0,11.0,120.0,11.0,0.0
7172,62.0,0.0,120.0,0.0,0.0
7173,50.0,30.0,30.0,2.0,0.0
7174,51.0,19.0,30.0,2.0,0.0
7175,53.0,30.0,30.0,2.0,0.0
7176,55.0,30.0,30.0,2.0,0.0
7177,53.0,30.0,30.0,2.0,0.0
7178,46.0,0.0,60.0,11.0,0.0
7179,58.0,4.0,60.0,1.0,0.0
7180,46.0,0.0,60.0,3.0,0.0
7181,62.0,0.0,60.0,0.0,0.0
7182,55.0,26.0,30.0,2.0,0.0
7183,50.0,30.0,30.0,2.0,0.0
7184,46.0,0.0,120.0,3.0,0.0
7185,51.0,30.0,30.0,2.0,0.0
7186,60.0,0.0,120.0,0.0,0.0
7187,46.0,11.0,120.0,11.0,0.0
7188,55.0,0.0,120.0,1.0,0.0
7189,50.0,30.0,30.0,2.0,0.0
7190,51.0,19.0,30.0,2.0,0.0
7191,48.0,30.0,30.0,2.0,0.0
7192,53.0,30.0,30.0,2.0,0.0
7193,51.0,30.0,30.0,2.0,0.0
7194,57.0,4.0,60.0,1.0,0.0
7195,45.0,0.0,60.0,3.0,0.0
7196,53.0,26.0,30.0,2.0,0.0
7197,45.0,0.0,60.0,11.0,0.0
7198,60.0,0.0,60.0,0.0,0.0
7199,48.0,30.0,30.0,2.0,0.0
7200,58.0,0.0,120.0,0.0,0.0
7201,50.0,30.0,30.0,2.0,0.0
7202,45.0,11.0,120.0,3.0,0.0
7203,53.0,0.0,120.0,1.0,0.0
7204,45.0,0.0,120.0,11.0,0.0
7205,48.0,30.0,30.0,2.0,0.0
7206,50.0,19.0,30.0,2.0,0.0
7207,46.0,30.0,30.0,2.0,0.0
7208,51.0,30.0,30.0,2.0,0.0
7209,50.0,30.0,30.0,2.0,0.0
7210,43.0,0.0,60.0,11.0,0.0
7211,43.0,4.0,60.0,3.0,0.0
7212,58.0,0.0,60.0,0.0,0.0
7213,55.0,0.0,60.0,1.0,0.0
7214,51.0,26.0,30.0,2.0,0.0
7215,46.0,30.0,30.0,2.0,0.0
7216,57.0,11.0,120.0,0.0,0.0
7217,48.0,30.0,30.0,2.0,0.0
7218,43.0,0.0,120.0,11.0,0.0
7219,51.0,0.0,120.0,1.0,0.0
7220,43.0,0.0,120.0,3.0,0.0
7221,46.0,30.0,30.0,2.0,0.0
7222,48.0,19.0,30.0,2.0,0.0
7223,45.0,30.0,30.0,2.0,0.0
7224,50.0,30.0,30.0,2.0,0.0
7225,48.0,30.0,30.0,2.0,0.0
7226,57.0,4.0,60.0,0.0,0.0
7227,53.0,0.0,60.0,1.0,0.0
7228,41.0,0.0,60.0,11.0,0.0
7229,50.0,26.0,30.0,2.0,0.0
7230,41.0,0.0,60.0,3.0,0.0
7231,45.0,30.0,30.0,2.0,0.0
7232,41.0,0.0,120.0,3.0,0.0
7233,41.0,11.0,120.0,11.0,0.0
7234,46.0,30.0,30.0,2.0,0.0
7235,50.0,0.0,120.0,1.0,0.0
7236,55.0,0.0,120.0,0.0,0.0
7237,45.0,30.0,30.0,2.0,0.0
7238,46.0,19.0,30.0,2.0,0.0
7239,43.0,30.0,30.0,2.0,0.0
7240,48.0,30.0,30.0,2.0,0.0
7241,46.0,30.0,30.0,2.0,0.0
7242,55.0,0.0,60.0,0.0,0.0
7243,48.0,26.0,30.0,2.0,0.0
7244,39.0,4.0,60.0,3.0,0.0
7245,39.0,0.0,60.0,11.0,0.0
7246,51.0,0.0,60.0,1.0,0.0
7247,43.0,30.0,30.0,2.0,0.0
7248,48.0,0.0,120.0,1.0,0.0
7249,45.0,30.0,30.0,2.0,0.0
7250,39.0,0.0,120.0,3.0,0.0
7251,53.0,30.0,150.0,0.0,0.0
7252,39.0,11.0,120.0,11.0,0.0
7253,43.0,30.0,30.0,2.0,0.0
7254,45.0,19.0,30.0,2.0,0.0
7255,41.0,30.0,30.0,2.0,0.0
7256,46.0,0.0,120.0,1.0,0.0
7257,38.0,0.0,120.0,3.0,0.0
7258,38.0,0.0,120.0,11.0,0.0
7259,46.0,11.0,120.0,2.0,0.0
7260,53.0,30.0,30.0,0.0,0.0
7261,58.0,19.0,30.0,0.0,0.0
7262,53.0,30.0,30.0,0.0,0.0
7263,62.0,30.0,30.0,0.0,0.0
7264,58.0,30.0,30.0,0.0,0.0
7265,65.0,30.0,30.0,0.0,0.0
7266,62.0,30.0,30.0,0.0,0.0
7267,70.0,30.0,30.0,0.0,0.0
7268,65.0,30.0,30.0,0.0,0.0
7269,74.0,30.0,30.0,0.0,0.0
7270,70.0,60.0,30.0,0.0,0.0
7271,77.0,1.0,150.0,0.0,0.0
7272,34.0,30.0,30.0,3.0,0.0
7273,34.0,0.0,30.0,11.0,0.0
7274,38.0,0.0,30.0,11.0,0.0
7275,38.0,30.0,30.0,3.0,0.0
7276,34.0,29.0,30.0,3.0,0.0
7277,34.0,0.0,30.0,11.0,0.0
7278,41.0,30.0,30.0,3.0,0.0
7279,41.0,0.0,30.0,11.0,0.0
7280,38.0,30.0,30.0,3.0,0.0
7281,38.0,0.0,30.0,11.0,0.0
7282,46.0,30.0,30.0,3.0,0.0
7283,46.0,0.0,30.0,11.0,0.0
7284,41.0,60.0,30.0,11.0,0.0
7285,41.0,0.0,30.0,3.0,0.0
7286,50.0,11.0,120.0,3.0,0.0
7287,50.0,0.0,120.0,11.0,0.0
7288,77.0,30.0,30.0,0.0,0.0
7289,74.0,19.0,30.0,0.0,0.0
7290,70.0,30.0,30.0,0.0,0.0
7291,65.0,30.0,30.0,0.0,0.0
7292,70.0,30.0,30.0,0.0,0.0
7293,65.0,30.0,30.0,0.0,0.0
7294,62.0,30.0,30.0,0.0,0.0
7295,58.0,30.0,30.0,0.0,0.0
7296,70.0,30.0,30.0,0.0,0.0
7297,65.0,30.0,30.0,0.0,0.0
7298,62.0,30.0,30.0,0.0,0.0
7299,58.0,30.0,30.0,0.0,0.0
7300,65.0,30.0,30.0,0.0,0.0
7301,62.0,30.0,30.0,0.0,0.0
7302,58.0,56.0,30.0,0.0,0.0
7303,53.0,4.0,60.0,0.0,0.0
7304,41.0,30.0,30.0,3.0,0.0
7305,41.0,0.0,30.0,11.0,0.0
7306,46.0,0.0,30.0,3.0,0.0
7307,46.0,30.0,30.0,11.0,0.0
7308,41.0,30.0,30.0,11.0,0.0
7309,41.0,0.0,30.0,3.0,0.0
7310,50.0,0.0,30.0,3.0,0.0
7311,50.0,30.0,30.0,11.0,0.0
7312,46.0,0.0,30.0,11.0,0.0
7313,46.0,30.0,30.0,3.0,0.0
7314,53.0,30.0,30.0,11.0,0.0
7315,53.0,0.0,30.0,3.0,0.0
7316,50.0,0.0,30.0,3.0,0.0
7317,50.0,56.0,30.0,11.0,0.0
7318,58.0,4.0,60.0,11.0,0.0
7319,58.0,0.0,60.0,3.0,0.0
7320,58.0,30.0,30.0,1.0,0.0
7321,53.0,30.0,30.0,1.0,0.0
7322,50.0,30.0,30.0,1.0,0.0
7323,46.0,30.0,30.0,1.0,0.0
7324,53.0,30.0,30.0,1.0,0.0
7325,50.0,30.0,30.0,1.0,0.0
7326,46.0,56.0,30.0,1.0,0.0
7327,41.0,4.0,60.0,1.0,0.0
7328,58.0,0.0,30.0,3.0,0.0
7329,58.0,30.0,30.0,11.0,0.0
7330,53.0,0.0,30.0,3.0,0.0
7331,53.0,30.0,30.0,11.0,0.0
7332,58.0,0.0,30.0,11.0,0.0
7333,58.0,30.0,30.0,3.0,0.0
7334,50.0,30.0,30.0,11.0,0.0
7335,50.0,0.0,30.0,3.0,0.0
7336,53.0,0.0,30.0,11.0,0.0
7337,53.0,30.0,30.0,3.0,0.0
7338,46.0,0.0,30.0,11.0,0.0
7339,46.0,30.0,30.0,3.0,0.0
7340,50.0,0.0,30.0,11.0,0.0
7341,50.0,56.0,30.0,3.0,0.0
7342,41.0,0.0,60.0,11.0,0.0
7343,41.0,4.0,60.0,3.0,0.0
7344,53.0,30.0,30.0,1.0,0.0
7345,50.0,30.0,30.0,1.0,0.0
7346,46.0,30.0,30.0,1.0,0.0
7347,41.0,30.0,30.0,1.0,0.0
7348,46.0,30.0,30.0,1.0,0.0
7349,41.0,30.0,30.0,1.0,0.0
7350,38.0,56.0,30.0,1.0,0.0
7351,34.0,4.0,60.0,1.0,0.0
7352,53.0,30.0,30.0,3.0,0.0
7353,53.0,0.0,30.0,11.0,0.0
7354,50.0,0.0,30.0,11.0,0.0
7355,50.0,30.0,30.0,3.0,0.0
7356,53.0,0.0,30.0,11.0,0.0
7357,53.0,30.0,30.0,3.0,0.0
7358,46.0,30.0,30.0,11.0,0.0
7359,46.0,0.0,30.0,3.0,0.0
7360,50.0,0.0,30.0,3.0,0.0
7361,50.0,30.0,30.0,11.0,0.0
7362,41.0,0.0,30.0,3.0,0.0
7363,41.0,30.0,30.0,11.0,0.0
7364,46.0,30.0,30.0,3.0,0.0
7365,46.0,0.0,30.0,11.0,0.0
7366,38.0,0.0,30.0,11.0,0.0
7367,38.0,30.0,30.0,3.0,0.0
7368,50.0,0.0,30.0,11.0,0.0
7369,50.0,30.0,30.0,3.0,0.0
7370,46.0,0.0,30.0,11.0,0.0
7371,46.0,30.0,30.0,3.0,0.0
7372,50.0,0.0,30.0,11.0,0.0
7373,50.0,30.0,30.0,3.0,0.0
7374,41.0,0.0,30.0,11.0,0.0
7375,41.0,30.0,30.0,3.0,0.0
7376,46.0,30.0,30.0,11.0,0.0
7377,46.0,0.0,30.0,3.0,0.0
7378,38.0,0.0,30.0,3.0,0.0
7379,38.0,30.0,30.0,11.0,0.0
7380,41.0,0.0,30.0,11.0,0.0
7381,41.0,30.0,30.0,3.0,0.0
7382,34.0,0.0,30.0,11.0,0.0
7383,34.0,30.0,30.0,3.0,0.0
7384,36.0,0.0,30.0,11.0,0.0
7385,36.0,30.0,30.0,3.0,0.0
7386,38.0,0.0,30.0,11.0,0.0
7387,38.0,30.0,30.0,3.0,0.0
7388,36.0,0.0,30.0,3.0,0.0
7389,36.0,30.0,30.0,11.0,0.0
7390,34.0,0.0,30.0,3.0,0.0
7391,34.0,30.0,30.0,11.0,0.0
7392,38.0,30.0,30.0,3.0,0.0
7393,38.0,0.0,30.0,11.0,0.0
7394,36.0,0.0,30.0,3.0,0.0
7395,36.0,30.0,30.0,11.0,0.0
7396,39.0,30.0,30.0,3.0,0.0
7397,39.0,0.0,30.0,11.0,0.0
7398,38.0,30.0,30.0,3.0,0.0
7399,38.0,0.0,30.0,11.0,0.0
7400,39.0,0.0,30.0,11.0,0.0
7401,39.0,30.0,30.0,3.0,0.0
7402,41.0,30.0,30.0,11.0,0.0
7403,41.0,0.0,30.0,3.0,0.0
7404,39.0,30.0,30.0,3.0,0.0
7405,39.0,0.0,30.0,11.0,0.0
7406,38.0,0.0,30.0,11.0,0.0
7407,38.0,30.0,30.0,3.0,0.0
7408,41.0,30.0,30.0,11.0,0.0
7409,41.0,0.0,30.0,3.0,0.0
7410,39.0,30.0,30.0,3.0,0.0
7411,39.0,0.0,30.0,11.0,0.0
7412,43.0,30.0,30.0,11.0,0.0
7413,43.0,0.0,30.0,3.0,0.0
7414,41.0,0.0,30.0,11.0,0.0
7415,41.0,30.0,30.0,3.0,0.0
7416,43.0,0.0,30.0,11.0,0.0
7417,43.0,30.0,30.0,3.0,0.0
7418,45.0,0.0,30.0,3.0,0.0
7419,45.0,30.0,30.0,11.0,0.0
7420,43.0,0.0,30.0,11.0,0.0
7421,43.0,30.0,30.0,3.0,0.0
7422,41.0,0.0,30.0,11.0,0.0
7423,41.0,30.0,30.0,3.0,0.0
7424,45.0,0.0,30.0,11.0,0.0
7425,45.0,30.0,30.0,3.0,0.0
7426,43.0,30.0,30.0,11.0,0.0
7427,43.0,0.0,30.0,3.0,0.0
7428,46.0,30.0,30.0,11.0,0.0
7429,46.0,0.0,30.0,3.0,0.0
7430,45.0,30.0,30.0,11.0,0.0
7431,45.0,0.0,30.0,3.0,0.0
7432,46.0,0.0,30.0,11.0,0.0
7433,46.0,30.0,30.0,3.0,0.0
7434,48.0,30.0,30.0,3.0,0.0
7435,48.0,0.0,30.0,11.0,0.0
7436,46.0,30.0,30.0,3.0,0.0
7437,46.0,0.0,30.0,11.0,0.0
7438,45.0,0.0,30.0,3.0,0.0
7439,45.0,30.0,30.0,11.0,0.0
7440,48.0,0.0,30.0,3.0,0.0
7441,48.0,30.0,30.0,11.0,0.0
7442,46.0,0.0,30.0,11.0,0.0
7443,46.0,30.0,30.0,3.0,0.0
7444,50.0,30.0,30.0,3.0,0.0
7445,50.0,0.0,30.0,11.0,0.0
7446,48.0,0.0,30.0,11.0,0.0
7447,48.0,30.0,30.0,3.0,0.0
7448,50.0,0.0,30.0,3.0,0.0
7449,50.0,30.0,30.0,11.0,0.0
7450,51.0,0.0,30.0,11.0,0.0
7451,51.0,30.0,30.0,3.0,0.0
7452,50.0,30.0,30.0,11.0,0.0
7453,50.0,0.0,30.0,3.0,0.0
7454,48.0,0.0,30.0,3.0,0.0
7455,48.0,30.0,30.0,11.0,0.0
7456,51.0,0.0,30.0,3.0,0.0
7457,51.0,30.0,30.0,11.0,0.0
7458,50.0,30.0,30.0,3.0,0.0
7459,50.0,0.0,30.0,11.0,0.0
7460,53.0,30.0,30.0,3.0,0.0
7461,53.0,0.0,30.0,11.0,0.0
7462,51.0,0.0,30.0,11.0,0.0
7463,51.0,30.0,30.0,3.0,0.0
7464,53.0,0.0,30.0,3.0,0.0
7465,53.0,30.0,30.0,11.0,0.0
7466,55.0,30.0,30.0,3.0,0.0
7467,55.0,0.0,30.0,11.0,0.0
7468,53.0,30.0,30.0,11.0,0.0
7469,53.0,0.0,30.0,3.0,0.0
7470,51.0,0.0,30.0,11.0,0.0
7471,51.0,30.0,30.0,3.0,0.0
7472,55.0,0.0,30.0,11.0,0.0
7473,55.0,30.0,30.0,3.0,0.0
7474,53.0,0.0,30.0,11.0,0.0
7475,53.0,30.0,30.0,3.0,0.0
7476,51.0,30.0,30.0,3.0,0.0
7477,51.0,0.0,30.0,11.0,0.0
7478,58.0,0.0,30.0,11.0,0.0
7479,58.0,30.0,30.0,3.0,0.0
7480,57.0,30.0,30.0,11.0,0.0
7481,57.0,0.0,30.0,3.0,0.0
7482,58.0,0.0,30.0,11.0,0.0
7483,58.0,30.0,30.0,3.0,0.0
7484,57.0,0.0,30.0,11.0,0.0
7485,57.0,30.0,30.0,3.0,0.0
7486,58.0,30.0,30.0,11.0,0.0
7487,58.0,0.0,30.0,3.0,0.0
7488,57.0,0.0,30.0,11.0,0.0
7489,57.0,30.0,30.0,3.0,0.0
7490,58.0,0.0,30.0,11.0,0.0
7491,58.0,30.0,30.0,3.0,0.0
7492,57.0,0.0,30.0,3.0,0.0
7493,57.0,30.0,30.0,11.0,0.0
7494,62.0,30.0,30.0,2.0,0.0
7495,70.0,0.0,30.0,0.0,0.0
7496,58.0,10.0,120.0,11.0,0.0
7497,58.0,1.0,120.0,3.0,0.0
7498,63.0,0.0,30.0,2.0,0.0
7499,72.0,30.0,30.0,0.0,0.0
7500,65.0,19.0,30.0,2.0,0.0
7501,74.0,0.0,30.0,0.0,0.0
7502,72.0,30.0,30.0,0.0,0.0
7503,63.0,0.0,30.0,2.0,0.0
7504,62.0,30.0,30.0,2.0,0.0
7505,70.0,0.0,30.0,0.0,0.0
7506,63.0,30.0,30.0,2.0,0.0
7507,72.0,0.0,30.0,0.0,0.0
7508,74.0,0.0,30.0,0.0,0.0
7509,65.0,30.0,30.0,2.0,0.0
7510,63.0,0.0,30.0,2.0,0.0
7511,72.0,30.0,30.0,0.0,0.0
7512,46.0,0.0,30.0,11.0,0.0
7513,46.0,30.0,30.0,3.0,0.0
7514,70.0,5.0,90.0,0.0,0.0
7515,62.0,11.0,120.0,2.0,0.0
7516,48.0,0.0,30.0,3.0,0.0
7517,48.0,30.0,30.0,11.0,0.0
7518,50.0,14.0,30.0,3.0,0.0
7519,50.0,0.0,30.0,11.0,0.0
7520,48.0,30.0,30.0,11.0,0.0
7521,48.0,0.0,30.0,3.0,0.0
7522,46.0,30.0,30.0,11.0,0.0
7523,46.0,0.0,30.0,3.0,0.0
7524,48.0,30.0,30.0,11.0,0.0
7525,48.0,0.0,30.0,3.0,0.0
7526,50.0,0.0,30.0,11.0,0.0
7527,50.0,30.0,30.0,3.0,0.0
7528,48.0,30.0,30.0,11.0,0.0
7529,48.0,0.0,30.0,3.0,0.0
7530,46.0,1.0,120.0,3.0,0.0
7531,46.0,2.0,120.0,11.0,0.0
7532,70.0,26.0,30.0,0.0,0.0
7533,65.0,4.0,60.0,1.0,0.0
7534,62.0,0.0,30.0,2.0,0.0
7535,69.0,30.0,30.0,0.0,0.0
7536,60.0,0.0,30.0,2.0,0.0
7537,70.0,0.0,30.0,0.0,0.0
7538,65.0,3.0,60.0,1.0,0.0
7539,62.0,24.0,30.0,2.0,0.0
7540,69.0,0.0,30.0,0.0,0.0
7541,60.0,30.0,30.0,2.0,0.0
7542,62.0,0.0,30.0,2.0,0.0
7543,70.0,26.0,30.0,0.0,0.0
7544,65.0,4.0,60.0,1.0,0.0
7545,60.0,0.0,30.0,2.0,0.0
7546,69.0,30.0,30.0,0.0,0.0
7547,65.0,4.0,60.0,1.0,0.0
7548,70.0,26.0,30.0,0.0,0.0
7549,62.0,0.0,30.0,2.0,0.0
7550,69.0,56.0,30.0,0.0,0.0
7551,60.0,0.0,30.0,2.0,0.0
7552,62.0,0.0,60.0,2.0,0.0
7553,65.0,0.0,60.0,1.0,0.0
7554,70.0,60.0,60.0,0.0,0.0
7555,58.0,34.0,60.0,3.0,0.0
7556,58.0,0.0,60.0,11.0,0.0
7557,62.0,30.0,30.0,2.0,0.0
7558,70.0,0.0,30.0,0.0,0.0
7559,46.0,11.0,120.0,11.0,0.0
7560,46.0,0.0,120.0,3.0,0.0
7561,72.0,30.0,30.0,0.0,0.0
7562,63.0,0.0,30.0,2.0,0.0
7563,65.0,0.0,30.0,2.0,0.0
7564,74.0,19.0,30.0,0.0,0.0
7565,63.0,0.0,30.0,2.0,0.0
7566,72.0,56.0,30.0,0.0,0.0
7567,70.0,0.0,60.0,0.0,0.0
7568,62.0,0.0,60.0,2.0,0.0
7569,65.0,60.0,60.0,1.0,0.0
7570,46.0,0.0,60.0,11.0,0.0
7571,46.0,113.0,60.0,3.0,0.0
7572,34.0,0.0,120.0,11.0,0.0
7573,34.0,0.0,120.0,3.0,0.0
