,note,step,duration,channel,velocity
0,43.0,0.0,180.0,4.0,0.0
1,55.0,0.0,180.0,3.0,0.0
2,67.0,0.0,180.0,1.0,0.0
3,67.0,0.0,180.0,12.0,0.0
4,43.0,0.0,240.0,13.0,0.0
5,43.0,0.0,240.0,8.0,0.0
6,43.0,0.0,15.0,7.0,0.0
7,82.0,0.0,15.0,10.0,0.0
8,67.0,0.0,15.0,6.0,0.0
9,70.0,0.0,15.0,6.0,0.0
10,62.0,0.0,15.0,2.0,0.0
11,70.0,0.0,15.0,5.0,0.0
12,67.0,0.0,15.0,5.0,0.0
13,43.0,0.0,60.0,4.0,0.0
14,74.0,60.0,15.0,11.0,0.0
15,70.0,0.0,15.0,0.0,0.0
16,67.0,0.0,60.0,12.0,0.0
17,53.0,0.0,60.0,3.0,0.0
18,72.0,0.0,120.0,5.0,0.0
19,81.0,0.0,120.0,10.0,0.0
20,63.0,0.0,120.0,12.0,0.0
21,45.0,0.0,120.0,7.0,0.0
22,67.0,0.0,15.0,5.0,0.0
23,45.0,0.0,120.0,13.0,0.0
24,45.0,60.0,120.0,4.0,0.0
25,60.0,0.0,120.0,2.0,0.0
26,45.0,0.0,120.0,8.0,0.0
27,67.0,0.0,15.0,1.0,0.0
28,72.0,0.0,120.0,0.0,0.0
29,51.0,0.0,120.0,3.0,0.0
30,72.0,0.0,120.0,11.0,0.0
31,67.0,60.0,60.0,6.0,0.0
32,72.0,0.0,120.0,6.0,0.0
33,66.0,0.0,60.0,1.0,0.0
34,66.0,0.0,60.0,6.0,0.0
35,66.0,0.0,60.0,5.0,0.0
36,69.0,60.0,60.0,1.0,0.0
37,72.0,60.0,60.0,1.0,0.0
38,65.0,0.0,60.0,1.0,0.0
39,74.0,0.0,180.0,10.0,0.0
40,74.0,0.0,180.0,0.0,0.0
41,59.0,0.0,180.0,12.0,0.0
42,65.0,60.0,60.0,6.0,0.0
43,47.0,0.0,240.0,8.0,0.0
44,65.0,0.0,60.0,5.0,0.0
45,47.0,0.0,240.0,13.0,0.0
46,65.0,0.0,180.0,11.0,0.0
47,50.0,0.0,60.0,3.0,0.0
48,53.0,0.0,60.0,3.0,0.0
49,68.0,60.0,120.0,5.0,0.0
50,68.0,0.0,120.0,1.0,0.0
51,65.0,60.0,60.0,2.0,0.0
52,68.0,0.0,120.0,6.0,0.0
53,59.0,0.0,60.0,3.0,0.0
54,62.0,0.0,60.0,2.0,0.0
55,74.0,0.0,60.0,11.0,0.0
56,74.0,0.0,15.0,6.0,0.0
57,47.0,0.0,15.0,7.0,0.0
58,67.0,60.0,60.0,5.0,0.0
59,62.0,0.0,60.0,3.0,0.0
60,47.0,0.0,15.0,4.0,0.0
61,55.0,0.0,60.0,12.0,0.0
62,59.0,0.0,60.0,2.0,0.0
63,67.0,0.0,60.0,6.0,0.0
64,67.0,0.0,60.0,1.0,0.0
65,74.0,0.0,15.0,5.0,0.0
66,79.0,0.0,60.0,10.0,0.0
67,63.0,0.0,120.0,1.0,0.0
68,63.0,0.0,120.0,3.0,0.0
69,48.0,0.0,120.0,7.0,0.0
70,74.0,0.0,15.0,5.0,0.0
71,63.0,60.0,120.0,5.0,0.0
72,67.0,60.0,60.0,12.0,0.0
73,48.0,0.0,120.0,8.0,0.0
74,48.0,0.0,120.0,13.0,0.0
75,79.0,0.0,120.0,10.0,0.0
76,75.0,0.0,120.0,11.0,0.0
77,55.0,0.0,120.0,2.0,0.0
78,48.0,0.0,120.0,4.0,0.0
79,74.0,0.0,15.0,0.0,0.0
80,74.0,0.0,15.0,6.0,0.0
81,63.0,0.0,120.0,6.0,0.0
82,72.0,0.0,60.0,6.0,0.0
83,67.0,0.0,60.0,0.0,0.0
84,72.0,0.0,60.0,5.0,0.0
85,72.0,60.0,60.0,0.0,0.0
86,60.0,0.0,60.0,12.0,0.0
87,75.0,0.0,60.0,6.0,0.0
88,69.0,0.0,180.0,6.0,0.0
89,69.0,0.0,180.0,2.0,0.0
90,81.0,0.0,180.0,10.0,0.0
91,54.0,0.0,240.0,8.0,0.0
92,69.0,0.0,60.0,11.0,0.0
93,60.0,60.0,60.0,3.0,0.0
94,75.0,60.0,15.0,0.0,0.0
95,75.0,0.0,60.0,5.0,0.0
96,54.0,0.0,240.0,13.0,0.0
97,74.0,0.0,120.0,6.0,0.0
98,57.0,60.0,120.0,3.0,0.0
99,57.0,0.0,120.0,12.0,0.0
100,62.0,60.0,60.0,1.0,0.0
101,74.0,0.0,120.0,5.0,0.0
102,74.0,0.0,120.0,0.0,0.0
103,66.0,0.0,60.0,1.0,0.0
104,69.0,0.0,15.0,5.0,0.0
105,72.0,0.0,60.0,5.0,0.0
106,54.0,0.0,15.0,4.0,0.0
107,54.0,0.0,15.0,7.0,0.0
108,72.0,0.0,60.0,6.0,0.0
109,69.0,0.0,60.0,1.0,0.0
110,81.0,0.0,60.0,10.0,0.0
111,69.0,0.0,60.0,6.0,0.0
112,72.0,0.0,60.0,0.0,0.0
113,69.0,0.0,60.0,12.0,0.0
114,74.0,0.0,15.0,11.0,0.0
115,54.0,60.0,60.0,3.0,0.0
116,70.0,0.0,60.0,0.0,0.0
117,74.0,0.0,120.0,11.0,0.0
118,55.0,0.0,120.0,13.0,0.0
119,55.0,0.0,120.0,7.0,0.0
120,70.0,30.0,60.0,1.0,0.0
121,62.0,0.0,120.0,12.0,0.0
122,62.0,0.0,15.0,2.0,0.0
123,50.0,60.0,120.0,3.0,0.0
124,55.0,0.0,120.0,8.0,0.0
125,55.0,0.0,120.0,4.0,0.0
126,67.0,0.0,120.0,6.0,0.0
127,70.0,0.0,60.0,6.0,0.0
128,70.0,0.0,60.0,5.0,0.0
129,67.0,0.0,120.0,5.0,0.0
130,82.0,0.0,120.0,10.0,0.0
131,72.0,0.0,60.0,0.0,0.0
132,72.0,0.0,60.0,5.0,0.0
133,63.0,0.0,60.0,2.0,0.0
134,69.0,30.0,30.0,1.0,0.0
135,72.0,0.0,60.0,6.0,0.0
136,67.0,0.0,30.0,1.0,0.0
137,74.0,0.0,180.0,0.0,0.0
138,65.0,0.0,120.0,2.0,0.0
139,74.0,0.0,180.0,6.0,0.0
140,69.0,60.0,60.0,1.0,0.0
141,74.0,30.0,180.0,5.0,0.0
142,69.0,0.0,60.0,6.0,0.0
143,53.0,0.0,60.0,4.0,0.0
144,74.0,30.0,60.0,10.0,0.0
145,53.0,0.0,60.0,7.0,0.0
146,65.0,0.0,60.0,11.0,0.0
147,69.0,0.0,60.0,5.0,0.0
148,53.0,0.0,60.0,8.0,0.0
149,74.0,0.0,60.0,1.0,0.0
150,53.0,0.0,60.0,13.0,0.0
151,62.0,0.0,60.0,12.0,0.0
152,57.0,0.0,60.0,3.0,0.0
153,70.0,0.0,60.0,11.0,0.0
154,51.0,0.0,240.0,8.0,0.0
155,63.0,0.0,30.0,12.0,0.0
156,67.0,0.0,60.0,5.0,0.0
157,51.0,0.0,240.0,4.0,0.0
158,51.0,0.0,240.0,13.0,0.0
159,58.0,0.0,60.0,3.0,0.0
160,51.0,0.0,240.0,7.0,0.0
161,67.0,0.0,180.0,1.0,0.0
162,58.0,0.0,60.0,2.0,0.0
163,79.0,30.0,30.0,10.0,0.0
164,67.0,0.0,60.0,6.0,0.0
165,62.0,0.0,30.0,12.0,0.0
166,77.0,0.0,30.0,10.0,0.0
167,63.0,0.0,60.0,12.0,0.0
168,63.0,0.0,90.0,2.0,0.0
169,72.0,0.0,30.0,5.0,0.0
170,72.0,0.0,30.0,11.0,0.0
171,75.0,0.0,30.0,10.0,0.0
172,66.0,0.0,60.0,5.0,0.0
173,72.0,0.0,30.0,0.0,0.0
174,72.0,30.0,30.0,6.0,0.0
175,57.0,0.0,60.0,3.0,0.0
176,66.0,30.0,60.0,6.0,0.0
177,74.0,0.0,30.0,10.0,0.0
178,70.0,0.0,30.0,5.0,0.0
179,74.0,0.0,30.0,11.0,0.0
180,70.0,0.0,30.0,6.0,0.0
181,70.0,0.0,30.0,0.0,0.0
182,72.0,0.0,120.0,5.0,0.0
183,67.0,30.0,60.0,5.0,0.0
184,55.0,0.0,60.0,12.0,0.0
185,67.0,0.0,60.0,6.0,0.0
186,75.0,0.0,60.0,11.0,0.0
187,72.0,30.0,30.0,10.0,0.0
188,72.0,0.0,120.0,0.0,0.0
189,55.0,0.0,120.0,3.0,0.0
190,72.0,0.0,120.0,6.0,0.0
191,62.0,0.0,30.0,2.0,0.0
192,70.0,0.0,30.0,10.0,0.0
193,69.0,0.0,60.0,1.0,0.0
194,72.0,240.0,60.0,11.0,0.0
195,63.0,0.0,60.0,2.0,0.0
196,69.0,30.0,30.0,10.0,0.0
197,69.0,0.0,60.0,5.0,0.0
198,69.0,0.0,60.0,6.0,0.0
199,63.0,0.0,60.0,12.0,0.0
200,67.0,0.0,30.0,10.0,0.0
201,57.0,0.0,240.0,12.0,0.0
202,74.0,0.0,240.0,0.0,0.0
203,50.0,0.0,240.0,7.0,0.0
204,57.0,0.0,240.0,2.0,0.0
205,50.0,0.0,240.0,8.0,0.0
206,66.0,0.0,240.0,1.0,0.0
207,50.0,0.0,240.0,13.0,0.0
208,62.0,0.0,240.0,3.0,0.0
209,69.0,0.0,240.0,10.0,0.0
210,50.0,0.0,240.0,4.0,0.0
211,74.0,0.0,240.0,6.0,0.0
212,66.0,0.0,240.0,11.0,0.0
213,66.0,0.0,240.0,5.0,0.0
214,74.0,210.0,240.0,5.0,0.0
215,66.0,0.0,240.0,6.0,0.0
216,67.0,0.0,120.0,10.0,0.0
217,43.0,0.0,120.0,13.0,0.0
218,62.0,60.0,240.0,12.0,0.0
219,43.0,35.0,120.0,7.0,0.0
220,70.0,0.0,240.0,11.0,0.0
221,43.0,0.0,120.0,8.0,0.0
222,67.0,30.0,15.0,5.0,0.0
223,67.0,0.0,15.0,6.0,0.0
224,67.0,0.0,15.0,6.0,0.0
225,46.0,0.0,120.0,8.0,0.0
226,79.0,0.0,240.0,10.0,0.0
227,46.0,0.0,120.0,7.0,0.0
228,67.0,0.0,30.0,5.0,0.0
229,46.0,0.0,120.0,13.0,0.0
230,67.0,0.0,60.0,6.0,0.0
231,67.0,0.0,60.0,5.0,0.0
232,48.0,0.0,120.0,7.0,0.0
233,48.0,0.0,120.0,8.0,0.0
234,69.0,0.0,60.0,11.0,0.0
235,69.0,60.0,60.0,6.0,0.0
236,69.0,0.0,60.0,5.0,0.0
237,63.0,35.0,120.0,12.0,0.0
238,48.0,0.0,120.0,13.0,0.0
239,70.0,0.0,60.0,11.0,0.0
240,63.0,0.0,60.0,5.0,0.0
241,63.0,0.0,60.0,6.0,0.0
242,78.0,0.0,120.0,10.0,0.0
243,50.0,0.0,120.0,13.0,0.0
244,72.0,0.0,120.0,11.0,0.0
245,50.0,60.0,120.0,8.0,0.0
246,62.0,25.0,30.0,5.0,0.0
247,50.0,0.0,120.0,7.0,0.0
248,62.0,0.0,30.0,6.0,0.0
249,57.0,60.0,60.0,12.0,0.0
250,69.0,0.0,60.0,5.0,0.0
251,62.0,0.0,120.0,12.0,0.0
252,69.0,0.0,60.0,6.0,0.0
253,43.0,0.0,120.0,7.0,0.0
254,79.0,0.0,360.0,10.0,0.0
255,43.0,35.0,120.0,13.0,0.0
256,70.0,60.0,60.0,6.0,0.0
257,43.0,0.0,120.0,8.0,0.0
258,70.0,0.0,60.0,5.0,0.0
259,70.0,0.0,60.0,11.0,0.0
260,63.0,0.0,60.0,5.0,0.0
261,72.0,0.0,60.0,11.0,0.0
262,63.0,0.0,60.0,6.0,0.0
263,60.0,0.0,60.0,12.0,0.0
264,74.0,0.0,120.0,11.0,0.0
265,53.0,0.0,120.0,8.0,0.0
266,53.0,0.0,120.0,13.0,0.0
267,62.0,85.0,30.0,5.0,0.0
268,53.0,0.0,120.0,7.0,0.0
269,62.0,0.0,30.0,6.0,0.0
270,59.0,0.0,30.0,12.0,0.0
271,71.0,30.0,60.0,6.0,0.0
272,62.0,0.0,60.0,12.0,0.0
273,71.0,0.0,60.0,5.0,0.0
274,51.0,0.0,60.0,8.0,0.0
275,72.0,0.0,60.0,11.0,0.0
276,55.0,0.0,60.0,12.0,0.0
277,51.0,0.0,60.0,7.0,0.0
278,72.0,0.0,30.0,5.0,0.0
279,51.0,60.0,60.0,13.0,0.0
280,72.0,30.0,30.0,6.0,0.0
281,70.0,0.0,30.0,5.0,0.0
282,70.0,0.0,30.0,6.0,0.0
283,63.0,0.0,120.0,11.0,0.0
284,68.0,30.0,90.0,5.0,0.0
285,60.0,0.0,90.0,12.0,0.0
286,48.0,30.0,60.0,13.0,0.0
287,48.0,0.0,60.0,7.0,0.0
288,68.0,0.0,90.0,6.0,0.0
289,48.0,0.0,60.0,8.0,0.0
290,50.0,0.0,60.0,7.0,0.0
291,50.0,0.0,60.0,8.0,0.0
292,50.0,30.0,60.0,13.0,0.0
293,72.0,0.0,150.0,10.0,0.0
294,58.0,0.0,30.0,12.0,0.0
295,67.0,0.0,30.0,6.0,0.0
296,67.0,0.0,30.0,5.0,0.0
297,51.0,0.0,60.0,7.0,0.0
298,57.0,30.0,30.0,12.0,0.0
299,66.0,0.0,30.0,6.0,0.0
300,66.0,0.0,30.0,5.0,0.0
301,51.0,0.0,60.0,8.0,0.0
302,62.0,0.0,30.0,11.0,0.0
303,51.0,0.0,60.0,13.0,0.0
304,55.0,0.0,30.0,12.0,0.0
305,60.0,0.0,30.0,11.0,0.0
306,67.0,0.0,30.0,5.0,0.0
307,67.0,35.0,30.0,6.0,0.0
308,66.0,25.0,30.0,5.0,0.0
309,50.0,60.0,60.0,13.0,0.0
310,62.0,0.0,120.0,12.0,0.0
311,69.0,0.0,30.0,11.0,0.0
312,50.0,0.0,60.0,7.0,0.0
313,50.0,0.0,60.0,8.0,0.0
314,66.0,0.0,30.0,6.0,0.0
315,75.0,0.0,60.0,5.0,0.0
316,75.0,0.0,60.0,6.0,0.0
317,66.0,0.0,60.0,10.0,0.0
318,48.0,0.0,60.0,13.0,0.0
319,48.0,60.0,60.0,7.0,0.0
320,48.0,0.0,60.0,8.0,0.0
321,57.0,0.0,60.0,11.0,0.0
322,67.0,0.0,60.0,10.0,0.0
323,46.0,60.0,60.0,13.0,0.0
324,46.0,0.0,60.0,8.0,0.0
325,74.0,0.0,60.0,5.0,0.0
326,74.0,0.0,60.0,6.0,0.0
327,58.0,0.0,60.0,11.0,0.0
328,46.0,0.0,60.0,7.0,0.0
329,45.0,0.0,60.0,7.0,0.0
330,45.0,0.0,60.0,13.0,0.0
331,45.0,0.0,60.0,8.0,0.0
332,60.0,0.0,60.0,11.0,0.0
333,66.0,60.0,60.0,12.0,0.0
334,72.0,0.0,60.0,6.0,0.0
335,69.0,0.0,60.0,10.0,0.0
336,72.0,0.0,60.0,5.0,0.0
337,43.0,0.0,120.0,8.0,0.0
338,43.0,0.0,120.0,7.0,0.0
339,70.0,0.0,120.0,10.0,0.0
340,67.0,0.0,120.0,12.0,0.0
341,70.0,0.0,60.0,6.0,0.0
342,62.0,0.0,60.0,11.0,0.0
343,62.0,0.0,90.0,5.0,0.0
344,70.0,30.0,60.0,5.0,0.0
345,43.0,0.0,120.0,13.0,0.0
346,64.0,0.0,60.0,11.0,0.0
347,69.0,0.0,30.0,6.0,0.0
348,69.0,0.0,30.0,5.0,0.0
349,62.0,30.0,15.0,6.0,0.0
350,67.0,0.0,30.0,6.0,0.0
351,67.0,0.0,30.0,5.0,0.0
352,74.0,0.0,240.0,6.0,0.0
353,41.0,0.0,120.0,8.0,0.0
354,62.0,0.0,15.0,6.0,0.0
355,41.0,0.0,120.0,13.0,0.0
356,69.0,0.0,120.0,10.0,0.0
357,41.0,0.0,120.0,7.0,0.0
358,74.0,0.0,240.0,5.0,0.0
359,62.0,35.0,15.0,5.0,0.0
360,69.0,60.0,120.0,12.0,0.0
361,65.0,60.0,60.0,11.0,0.0
362,62.0,0.0,60.0,11.0,0.0
363,62.0,0.0,60.0,5.0,0.0
364,62.0,0.0,60.0,6.0,0.0
365,64.0,0.0,60.0,5.0,0.0
366,43.0,0.0,120.0,7.0,0.0
367,64.0,0.0,60.0,6.0,0.0
368,70.0,60.0,60.0,11.0,0.0
369,67.0,0.0,240.0,10.0,0.0
370,64.0,0.0,240.0,12.0,0.0
371,43.0,0.0,120.0,8.0,0.0
372,43.0,35.0,120.0,13.0,0.0
373,58.0,0.0,60.0,6.0,0.0
374,67.0,0.0,60.0,11.0,0.0
375,45.0,35.0,120.0,13.0,0.0
376,64.0,60.0,60.0,11.0,0.0
377,45.0,0.0,120.0,7.0,0.0
378,73.0,0.0,120.0,6.0,0.0
379,73.0,0.0,120.0,5.0,0.0
380,57.0,25.0,30.0,6.0,0.0
381,45.0,0.0,120.0,8.0,0.0
382,64.0,0.0,60.0,6.0,0.0
383,64.0,0.0,60.0,5.0,0.0
384,69.0,0.0,60.0,11.0,0.0
385,74.0,0.0,300.0,6.0,0.0
386,74.0,0.0,300.0,5.0,0.0
387,65.0,25.0,30.0,10.0,0.0
388,38.0,0.0,120.0,13.0,0.0
389,38.0,0.0,120.0,7.0,0.0
390,65.0,60.0,60.0,6.0,0.0
391,69.0,0.0,240.0,11.0,0.0
392,65.0,0.0,60.0,5.0,0.0
393,38.0,0.0,120.0,8.0,0.0
394,62.0,0.0,300.0,12.0,0.0
395,64.0,0.0,60.0,10.0,0.0
396,58.0,35.0,60.0,6.0,0.0
397,57.0,25.0,30.0,6.0,0.0
398,48.0,0.0,120.0,7.0,0.0
399,48.0,30.0,120.0,8.0,0.0
400,66.0,60.0,60.0,10.0,0.0
401,48.0,0.0,120.0,13.0,0.0
402,66.0,0.0,60.0,6.0,0.0
403,69.0,0.0,60.0,10.0,0.0
404,66.0,0.0,60.0,5.0,0.0
405,67.0,0.0,60.0,11.0,0.0
406,46.0,0.0,60.0,13.0,0.0
407,46.0,0.0,60.0,7.0,0.0
408,67.0,30.0,30.0,5.0,0.0
409,46.0,0.0,60.0,8.0,0.0
410,74.0,60.0,60.0,10.0,0.0
411,67.0,0.0,30.0,6.0,0.0
412,65.0,0.0,30.0,6.0,0.0
413,65.0,0.0,30.0,5.0,0.0
414,72.0,0.0,60.0,5.0,0.0
415,63.0,30.0,90.0,5.0,0.0
416,63.0,0.0,90.0,6.0,0.0
417,72.0,30.0,60.0,6.0,0.0
418,69.0,0.0,60.0,11.0,0.0
419,43.0,0.0,60.0,8.0,0.0
420,43.0,0.0,60.0,13.0,0.0
421,43.0,0.0,60.0,7.0,0.0
422,63.0,0.0,120.0,12.0,0.0
423,66.0,0.0,60.0,10.0,0.0
424,70.0,0.0,120.0,11.0,0.0
425,67.0,0.0,120.0,10.0,0.0
426,55.0,0.0,60.0,7.0,0.0
427,55.0,0.0,60.0,13.0,0.0
428,70.0,30.0,60.0,5.0,0.0
429,70.0,0.0,60.0,6.0,0.0
430,55.0,0.0,60.0,8.0,0.0
431,62.0,0.0,30.0,6.0,0.0
432,62.0,0.0,30.0,5.0,0.0
433,57.0,0.0,60.0,7.0,0.0
434,69.0,0.0,60.0,6.0,0.0
435,61.0,30.0,30.0,6.0,0.0
436,57.0,0.0,60.0,8.0,0.0
437,69.0,0.0,60.0,5.0,0.0
438,61.0,0.0,30.0,5.0,0.0
439,57.0,0.0,60.0,13.0,0.0
440,65.0,0.0,60.0,12.0,0.0
441,62.0,35.0,30.0,6.0,0.0
442,62.0,0.0,30.0,5.0,0.0
443,58.0,60.0,120.0,8.0,0.0
444,58.0,0.0,120.0,13.0,0.0
445,58.0,0.0,120.0,7.0,0.0
446,67.0,0.0,120.0,12.0,0.0
447,61.0,25.0,30.0,5.0,0.0
448,67.0,0.0,120.0,5.0,0.0
449,61.0,0.0,30.0,6.0,0.0
450,67.0,0.0,120.0,6.0,0.0
451,67.0,60.0,60.0,10.0,0.0
452,64.0,0.0,240.0,11.0,0.0
453,70.0,0.0,60.0,6.0,0.0
454,65.0,0.0,60.0,10.0,0.0
455,70.0,0.0,60.0,5.0,0.0
456,49.0,0.0,120.0,13.0,0.0
457,69.0,60.0,60.0,6.0,0.0
458,49.0,0.0,120.0,7.0,0.0
459,64.0,0.0,60.0,10.0,0.0
460,76.0,0.0,180.0,6.0,0.0
461,69.0,60.0,120.0,12.0,0.0
462,76.0,0.0,180.0,5.0,0.0
463,69.0,0.0,60.0,5.0,0.0
464,49.0,0.0,120.0,8.0,0.0
465,67.0,0.0,60.0,5.0,0.0
466,69.0,0.0,120.0,10.0,0.0
467,67.0,0.0,60.0,6.0,0.0
468,50.0,0.0,60.0,7.0,0.0
469,50.0,30.0,60.0,13.0,0.0
470,65.0,0.0,60.0,11.0,0.0
471,65.0,0.0,60.0,5.0,0.0
472,50.0,0.0,60.0,8.0,0.0
473,65.0,0.0,60.0,6.0,0.0
474,57.0,0.0,120.0,12.0,0.0
475,67.0,35.0,60.0,10.0,0.0
476,67.0,0.0,60.0,11.0,0.0
477,64.0,30.0,30.0,6.0,0.0
478,52.0,0.0,60.0,7.0,0.0
479,69.0,0.0,60.0,6.0,0.0
480,52.0,0.0,60.0,8.0,0.0
481,52.0,0.0,60.0,13.0,0.0
482,64.0,0.0,30.0,5.0,0.0
483,69.0,0.0,60.0,5.0,0.0
484,62.0,0.0,30.0,5.0,0.0
485,62.0,0.0,30.0,6.0,0.0
486,53.0,0.0,60.0,8.0,0.0
487,74.0,0.0,60.0,5.0,0.0
488,69.0,0.0,180.0,5.0,0.0
489,53.0,60.0,60.0,13.0,0.0
490,65.0,25.0,30.0,10.0,0.0
491,53.0,0.0,60.0,7.0,0.0
492,69.0,0.0,60.0,11.0,0.0
493,69.0,0.0,180.0,6.0,0.0
494,74.0,0.0,60.0,6.0,0.0
495,72.0,0.0,60.0,6.0,0.0
496,50.0,0.0,60.0,7.0,0.0
497,50.0,0.0,60.0,13.0,0.0
498,53.0,0.0,60.0,12.0,0.0
499,65.0,0.0,60.0,11.0,0.0
500,50.0,0.0,60.0,8.0,0.0
501,72.0,0.0,60.0,5.0,0.0
502,69.0,60.0,60.0,10.0,0.0
503,55.0,0.0,60.0,13.0,0.0
504,62.0,0.0,120.0,11.0,0.0
505,55.0,0.0,60.0,8.0,0.0
506,70.0,0.0,300.0,5.0,0.0
507,55.0,60.0,60.0,7.0,0.0
508,70.0,0.0,300.0,6.0,0.0
509,55.0,0.0,120.0,12.0,0.0
510,70.0,0.0,60.0,10.0,0.0
511,69.0,0.0,60.0,10.0,0.0
512,53.0,0.0,60.0,8.0,0.0
513,62.0,0.0,60.0,5.0,0.0
514,53.0,0.0,60.0,13.0,0.0
515,53.0,0.0,60.0,7.0,0.0
516,62.0,60.0,60.0,6.0,0.0
517,52.0,0.0,60.0,13.0,0.0
518,61.0,0.0,60.0,11.0,0.0
519,67.0,60.0,60.0,5.0,0.0
520,67.0,0.0,240.0,10.0,0.0
521,67.0,0.0,60.0,6.0,0.0
522,52.0,0.0,60.0,8.0,0.0
523,52.0,0.0,60.0,7.0,0.0
524,65.0,0.0,60.0,6.0,0.0
525,50.0,0.0,60.0,8.0,0.0
526,65.0,0.0,60.0,5.0,0.0
527,50.0,0.0,60.0,7.0,0.0
528,62.0,0.0,60.0,11.0,0.0
529,50.0,60.0,60.0,13.0,0.0
530,58.0,0.0,60.0,12.0,0.0
531,49.0,60.0,60.0,13.0,0.0
532,49.0,0.0,60.0,7.0,0.0
533,52.0,60.0,120.0,12.0,0.0
534,64.0,0.0,240.0,11.0,0.0
535,49.0,0.0,60.0,8.0,0.0
536,47.0,0.0,60.0,7.0,0.0
537,64.0,0.0,60.0,6.0,0.0
538,64.0,0.0,60.0,5.0,0.0
539,47.0,0.0,60.0,8.0,0.0
540,47.0,0.0,60.0,13.0,0.0
541,69.0,0.0,240.0,10.0,0.0
542,49.0,60.0,60.0,13.0,0.0
543,49.0,0.0,60.0,7.0,0.0
544,49.0,0.0,60.0,8.0,0.0
545,69.0,0.0,60.0,5.0,0.0
546,69.0,0.0,60.0,6.0,0.0
547,67.0,0.0,60.0,5.0,0.0
548,45.0,0.0,60.0,8.0,0.0
549,61.0,60.0,60.0,12.0,0.0
550,67.0,0.0,60.0,6.0,0.0
551,45.0,0.0,60.0,7.0,0.0
552,45.0,0.0,60.0,13.0,0.0
553,57.0,0.0,120.0,12.0,0.0
554,65.0,0.0,60.0,11.0,0.0
555,50.0,60.0,60.0,7.0,0.0
556,65.0,0.0,300.0,5.0,0.0
557,50.0,0.0,60.0,8.0,0.0
558,50.0,0.0,60.0,13.0,0.0
559,65.0,0.0,300.0,6.0,0.0
560,48.0,0.0,60.0,8.0,0.0
561,64.0,0.0,60.0,11.0,0.0
562,57.0,0.0,60.0,6.0,0.0
563,48.0,60.0,60.0,7.0,0.0
564,48.0,0.0,60.0,13.0,0.0
565,46.0,0.0,60.0,13.0,0.0
566,46.0,0.0,60.0,8.0,0.0
567,62.0,0.0,180.0,11.0,0.0
568,67.0,0.0,60.0,10.0,0.0
569,62.0,60.0,60.0,5.0,0.0
570,62.0,0.0,60.0,6.0,0.0
571,46.0,0.0,60.0,7.0,0.0
572,57.0,0.0,60.0,12.0,0.0
573,60.0,0.0,60.0,6.0,0.0
574,45.0,60.0,60.0,7.0,0.0
575,45.0,0.0,60.0,13.0,0.0
576,69.0,0.0,60.0,10.0,0.0
577,60.0,0.0,60.0,5.0,0.0
578,45.0,0.0,60.0,8.0,0.0
579,43.0,0.0,120.0,7.0,0.0
580,58.0,0.0,60.0,5.0,0.0
581,58.0,0.0,120.0,6.0,0.0
582,43.0,0.0,120.0,8.0,0.0
583,43.0,0.0,120.0,13.0,0.0
584,70.0,60.0,60.0,10.0,0.0
585,50.0,35.0,120.0,12.0,0.0
586,55.0,0.0,60.0,11.0,0.0
587,64.0,0.0,60.0,10.0,0.0
588,64.0,0.0,60.0,5.0,0.0
589,73.0,0.0,60.0,5.0,0.0
590,73.0,0.0,60.0,6.0,0.0
591,45.0,0.0,120.0,13.0,0.0
592,45.0,0.0,120.0,8.0,0.0
593,74.0,85.0,30.0,6.0,0.0
594,57.0,0.0,120.0,6.0,0.0
595,65.0,0.0,30.0,10.0,0.0
596,45.0,0.0,120.0,7.0,0.0
597,74.0,0.0,30.0,5.0,0.0
598,65.0,0.0,30.0,5.0,0.0
599,53.0,0.0,30.0,11.0,0.0
600,65.0,0.0,60.0,6.0,0.0
601,74.0,0.0,60.0,10.0,0.0
602,65.0,35.0,60.0,11.0,0.0
603,62.0,0.0,60.0,5.0,0.0
604,65.0,0.0,60.0,5.0,0.0
605,57.0,0.0,60.0,12.0,0.0
606,67.0,0.0,120.0,11.0,0.0
607,73.0,25.0,30.0,10.0,0.0
608,46.0,0.0,120.0,13.0,0.0
609,64.0,0.0,120.0,12.0,0.0
610,46.0,0.0,120.0,8.0,0.0
611,46.0,0.0,120.0,7.0,0.0
612,67.0,0.0,60.0,5.0,0.0
613,55.0,0.0,60.0,6.0,0.0
614,64.0,60.0,60.0,6.0,0.0
615,64.0,0.0,15.0,5.0,0.0
616,73.0,0.0,60.0,5.0,0.0
617,73.0,35.0,60.0,6.0,0.0
618,67.0,0.0,60.0,10.0,0.0
619,64.0,0.0,60.0,6.0,0.0
620,65.0,0.0,30.0,6.0,0.0
621,65.0,0.0,30.0,5.0,0.0
622,65.0,0.0,30.0,10.0,0.0
623,69.0,25.0,30.0,11.0,0.0
624,45.0,0.0,60.0,7.0,0.0
625,74.0,0.0,30.0,5.0,0.0
626,45.0,60.0,60.0,8.0,0.0
627,74.0,0.0,30.0,6.0,0.0
628,45.0,0.0,60.0,13.0,0.0
629,61.0,35.0,60.0,11.0,0.0
630,43.0,0.0,60.0,13.0,0.0
631,76.0,0.0,60.0,5.0,0.0
632,43.0,0.0,60.0,7.0,0.0
633,58.0,0.0,60.0,12.0,0.0
634,67.0,0.0,60.0,5.0,0.0
635,67.0,0.0,60.0,6.0,0.0
636,76.0,0.0,60.0,6.0,0.0
637,43.0,0.0,60.0,8.0,0.0
638,64.0,0.0,60.0,10.0,0.0
639,62.0,25.0,30.0,10.0,0.0
640,41.0,0.0,60.0,7.0,0.0
641,62.0,0.0,120.0,11.0,0.0
642,41.0,0.0,60.0,13.0,0.0
643,41.0,0.0,60.0,8.0,0.0
644,57.0,0.0,120.0,12.0,0.0
645,69.0,0.0,60.0,6.0,0.0
646,69.0,0.0,60.0,5.0,0.0
647,40.0,0.0,60.0,8.0,0.0
648,67.0,0.0,60.0,10.0,0.0
649,70.0,35.0,60.0,5.0,0.0
650,40.0,0.0,60.0,7.0,0.0
651,40.0,0.0,60.0,13.0,0.0
652,61.0,0.0,60.0,6.0,0.0
653,70.0,0.0,60.0,6.0,0.0
654,61.0,0.0,60.0,5.0,0.0
655,41.0,0.0,60.0,13.0,0.0
656,65.0,0.0,60.0,10.0,0.0
657,41.0,60.0,60.0,8.0,0.0
658,41.0,0.0,60.0,7.0,0.0
659,62.0,0.0,30.0,6.0,0.0
660,69.0,0.0,30.0,5.0,0.0
661,62.0,25.0,30.0,5.0,0.0
662,69.0,0.0,30.0,6.0,0.0
663,43.0,0.0,60.0,13.0,0.0
664,70.0,0.0,60.0,6.0,0.0
665,70.0,0.0,60.0,11.0,0.0
666,43.0,60.0,60.0,7.0,0.0
667,62.0,0.0,120.0,6.0,0.0
668,62.0,0.0,120.0,5.0,0.0
669,70.0,0.0,60.0,5.0,0.0
670,43.0,0.0,60.0,8.0,0.0
671,64.0,0.0,60.0,10.0,0.0
672,62.0,0.0,60.0,12.0,0.0
673,45.0,0.0,540.0,7.0,0.0
674,65.0,0.0,60.0,6.0,0.0
675,65.0,0.0,60.0,5.0,0.0
676,45.0,0.0,540.0,13.0,0.0
677,69.0,0.0,60.0,11.0,0.0
678,45.0,0.0,540.0,8.0,0.0
679,65.0,0.0,60.0,10.0,0.0
680,57.0,30.0,60.0,12.0,0.0
681,61.0,0.0,120.0,5.0,0.0
682,64.0,0.0,120.0,5.0,0.0
683,61.0,0.0,120.0,6.0,0.0
684,64.0,0.0,120.0,6.0,0.0
685,67.0,30.0,30.0,10.0,0.0
686,55.0,0.0,30.0,12.0,0.0
687,70.0,0.0,30.0,11.0,0.0
688,53.0,0.0,30.0,12.0,0.0
689,69.0,0.0,30.0,11.0,0.0
690,69.0,60.0,30.0,10.0,0.0
691,67.0,0.0,60.0,11.0,0.0
692,52.0,0.0,60.0,12.0,0.0
693,70.0,60.0,60.0,10.0,0.0
694,62.0,35.0,60.0,5.0,0.0
695,65.0,0.0,60.0,11.0,0.0
696,69.0,0.0,60.0,10.0,0.0
697,62.0,0.0,60.0,6.0,0.0
698,65.0,0.0,60.0,6.0,0.0
699,57.0,0.0,60.0,12.0,0.0
700,65.0,0.0,60.0,5.0,0.0
701,67.0,0.0,30.0,6.0,0.0
702,61.0,0.0,30.0,12.0,0.0
703,64.0,0.0,120.0,11.0,0.0
704,64.0,0.0,30.0,5.0,0.0
705,67.0,85.0,30.0,5.0,0.0
706,64.0,0.0,30.0,6.0,0.0
707,67.0,0.0,30.0,10.0,0.0
708,70.0,0.0,60.0,5.0,0.0
709,67.0,60.0,60.0,5.0,0.0
710,70.0,0.0,60.0,6.0,0.0
711,67.0,0.0,60.0,6.0,0.0
712,73.0,0.0,60.0,10.0,0.0
713,52.0,0.0,60.0,12.0,0.0
714,65.0,0.0,60.0,11.0,0.0
715,65.0,0.0,60.0,6.0,0.0
716,74.0,0.0,60.0,10.0,0.0
717,57.0,0.0,60.0,12.0,0.0
718,69.0,0.0,60.0,6.0,0.0
719,69.0,0.0,60.0,5.0,0.0
720,65.0,60.0,60.0,5.0,0.0
721,67.0,0.0,60.0,11.0,0.0
722,61.0,0.0,60.0,12.0,0.0
723,64.0,60.0,60.0,5.0,0.0
724,67.0,0.0,60.0,5.0,0.0
725,76.0,0.0,60.0,10.0,0.0
726,64.0,0.0,60.0,6.0,0.0
727,67.0,0.0,60.0,6.0,0.0
728,65.0,0.0,120.0,6.0,0.0
729,62.0,0.0,60.0,6.0,0.0
730,62.0,60.0,60.0,5.0,0.0
731,65.0,0.0,60.0,12.0,0.0
732,69.0,0.0,60.0,11.0,0.0
733,69.0,0.0,60.0,10.0,0.0
734,70.0,0.0,60.0,11.0,0.0
735,74.0,0.0,120.0,10.0,0.0
736,70.0,0.0,60.0,6.0,0.0
737,43.0,0.0,60.0,8.0,0.0
738,43.0,0.0,60.0,13.0,0.0
739,43.0,0.0,60.0,7.0,0.0
740,62.0,0.0,60.0,12.0,0.0
741,70.0,15.0,60.0,5.0,0.0
742,64.0,0.0,60.0,11.0,0.0
743,45.0,0.0,60.0,13.0,0.0
744,69.0,0.0,60.0,5.0,0.0
745,65.0,0.0,15.0,5.0,0.0
746,57.0,0.0,240.0,12.0,0.0
747,45.0,0.0,60.0,7.0,0.0
748,45.0,15.0,60.0,8.0,0.0
749,69.0,0.0,60.0,6.0,0.0
750,65.0,0.0,15.0,6.0,0.0
751,64.0,0.0,15.0,6.0,0.0
752,64.0,15.0,15.0,5.0,0.0
753,65.0,15.0,15.0,6.0,0.0
754,65.0,0.0,15.0,5.0,0.0
755,64.0,0.0,15.0,5.0,0.0
756,64.0,0.0,15.0,6.0,0.0
757,67.0,0.0,120.0,6.0,0.0
758,33.0,0.0,60.0,7.0,0.0
759,67.0,0.0,120.0,5.0,0.0
760,65.0,15.0,15.0,5.0,0.0
761,65.0,0.0,15.0,6.0,0.0
762,33.0,0.0,60.0,13.0,0.0
763,73.0,0.0,60.0,10.0,0.0
764,33.0,60.0,60.0,8.0,0.0
765,64.0,15.0,15.0,6.0,0.0
766,64.0,0.0,15.0,5.0,0.0
767,62.0,0.0,15.0,5.0,0.0
768,62.0,15.0,15.0,6.0,0.0
769,64.0,0.0,15.0,6.0,0.0
770,64.0,0.0,15.0,5.0,0.0
771,62.0,0.0,120.0,5.0,0.0
772,74.0,0.0,180.0,10.0,0.0
773,38.0,0.0,60.0,13.0,0.0
774,38.0,0.0,60.0,8.0,0.0
775,38.0,0.0,60.0,7.0,0.0
776,69.0,0.0,15.0,11.0,0.0
777,62.0,0.0,120.0,6.0,0.0
778,65.0,30.0,30.0,6.0,0.0
779,50.0,30.0,120.0,8.0,0.0
780,50.0,0.0,120.0,13.0,0.0
781,50.0,0.0,120.0,7.0,0.0
782,65.0,0.0,30.0,5.0,0.0
783,62.0,0.0,30.0,11.0,0.0
784,63.0,60.0,30.0,11.0,0.0
785,67.0,0.0,30.0,5.0,0.0
786,67.0,0.0,30.0,6.0,0.0
787,68.0,0.0,180.0,5.0,0.0
788,68.0,0.0,180.0,6.0,0.0
789,65.0,0.0,180.0,11.0,0.0
790,51.0,0.0,30.0,13.0,0.0
791,72.0,0.0,60.0,10.0,0.0
792,51.0,0.0,30.0,7.0,0.0
793,51.0,30.0,30.0,8.0,0.0
794,63.0,60.0,60.0,12.0,0.0
795,53.0,0.0,30.0,7.0,0.0
796,53.0,0.0,30.0,13.0,0.0
797,53.0,0.0,30.0,8.0,0.0
798,55.0,0.0,120.0,13.0,0.0
799,55.0,0.0,120.0,7.0,0.0
800,71.0,60.0,60.0,10.0,0.0
801,55.0,0.0,120.0,8.0,0.0
802,62.0,0.0,120.0,12.0,0.0
803,63.0,0.0,60.0,11.0,0.0
804,60.0,0.0,60.0,5.0,0.0
805,60.0,0.0,60.0,6.0,0.0
806,69.0,15.0,60.0,10.0,0.0
807,63.0,15.0,15.0,11.0,0.0
808,43.0,0.0,120.0,13.0,0.0
809,43.0,60.0,120.0,7.0,0.0
810,74.0,0.0,180.0,5.0,0.0
811,74.0,0.0,180.0,6.0,0.0
812,59.0,0.0,30.0,6.0,0.0
813,67.0,0.0,180.0,10.0,0.0
814,43.0,0.0,120.0,8.0,0.0
815,59.0,10.0,30.0,5.0,0.0
816,62.0,5.0,15.0,11.0,0.0
817,63.0,15.0,15.0,11.0,0.0
818,62.0,15.0,15.0,11.0,0.0
819,63.0,15.0,15.0,11.0,0.0
820,65.0,0.0,60.0,5.0,0.0
821,59.0,0.0,60.0,12.0,0.0
822,65.0,0.0,60.0,6.0,0.0
823,62.0,15.0,15.0,11.0,0.0
824,60.0,15.0,15.0,11.0,0.0
825,62.0,0.0,15.0,11.0,0.0
826,63.0,0.0,120.0,5.0,0.0
827,48.0,0.0,180.0,13.0,0.0
828,55.0,60.0,120.0,12.0,0.0
829,63.0,0.0,120.0,6.0,0.0
830,63.0,30.0,60.0,11.0,0.0
831,48.0,0.0,180.0,7.0,0.0
832,48.0,30.0,180.0,8.0,0.0
833,72.0,0.0,30.0,6.0,0.0
834,72.0,0.0,30.0,5.0,0.0
835,69.0,30.0,30.0,10.0,0.0
836,65.0,0.0,60.0,11.0,0.0
837,71.0,0.0,30.0,10.0,0.0
838,74.0,0.0,30.0,5.0,0.0
839,74.0,0.0,30.0,6.0,0.0
840,75.0,30.0,180.0,5.0,0.0
841,67.0,0.0,60.0,11.0,0.0
842,72.0,0.0,180.0,10.0,0.0
843,75.0,0.0,180.0,6.0,0.0
844,72.0,0.0,60.0,11.0,0.0
845,46.0,0.0,30.0,7.0,0.0
846,63.0,0.0,60.0,12.0,0.0
847,46.0,30.0,30.0,8.0,0.0
848,46.0,0.0,30.0,13.0,0.0
849,48.0,0.0,30.0,13.0,0.0
850,48.0,0.0,30.0,7.0,0.0
851,48.0,60.0,30.0,8.0,0.0
852,57.0,0.0,120.0,12.0,0.0
853,66.0,0.0,60.0,11.0,0.0
854,50.0,0.0,120.0,13.0,0.0
855,50.0,0.0,120.0,7.0,0.0
856,50.0,15.0,120.0,8.0,0.0
857,67.0,0.0,60.0,6.0,0.0
858,67.0,30.0,30.0,11.0,0.0
859,67.0,0.0,60.0,5.0,0.0
860,69.0,0.0,30.0,11.0,0.0
861,38.0,60.0,120.0,8.0,0.0
862,38.0,0.0,120.0,7.0,0.0
863,38.0,0.0,120.0,13.0,0.0
864,69.0,0.0,180.0,6.0,0.0
865,70.0,0.0,15.0,10.0,0.0
866,66.0,10.0,30.0,5.0,0.0
867,69.0,30.0,180.0,5.0,0.0
868,66.0,0.0,30.0,6.0,0.0
869,62.0,0.0,180.0,11.0,0.0
870,69.0,5.0,15.0,10.0,0.0
871,70.0,15.0,15.0,10.0,0.0
872,69.0,15.0,15.0,10.0,0.0
873,72.0,0.0,60.0,6.0,0.0
874,54.0,0.0,60.0,12.0,0.0
875,70.0,15.0,15.0,10.0,0.0
876,72.0,0.0,60.0,5.0,0.0
877,69.0,15.0,15.0,10.0,0.0
878,67.0,15.0,15.0,10.0,0.0
879,69.0,0.0,15.0,10.0,0.0
880,70.0,0.0,60.0,10.0,0.0
881,43.0,0.0,180.0,13.0,0.0
882,43.0,0.0,180.0,8.0,0.0
883,70.0,0.0,120.0,5.0,0.0
884,55.0,0.0,120.0,12.0,0.0
885,43.0,30.0,180.0,7.0,0.0
886,72.0,0.0,30.0,10.0,0.0
887,67.0,30.0,30.0,6.0,0.0
888,64.0,0.0,30.0,11.0,0.0
889,67.0,0.0,30.0,5.0,0.0
890,74.0,0.0,30.0,10.0,0.0
891,66.0,0.0,30.0,11.0,0.0
892,69.0,60.0,30.0,5.0,0.0
893,69.0,0.0,30.0,6.0,0.0
894,67.0,0.0,60.0,10.0,0.0
895,67.0,30.0,180.0,11.0,0.0
896,70.0,0.0,15.0,6.0,0.0
897,70.0,0.0,180.0,5.0,0.0
898,41.0,30.0,30.0,7.0,0.0
899,58.0,0.0,60.0,12.0,0.0
900,41.0,0.0,30.0,8.0,0.0
901,79.0,60.0,60.0,10.0,0.0
902,41.0,0.0,30.0,13.0,0.0
903,43.0,0.0,30.0,8.0,0.0
904,43.0,0.0,30.0,13.0,0.0
905,43.0,0.0,30.0,7.0,0.0
906,73.0,0.0,60.0,10.0,0.0
907,45.0,15.0,120.0,8.0,0.0
908,45.0,0.0,120.0,7.0,0.0
909,45.0,0.0,120.0,13.0,0.0
910,52.0,0.0,120.0,12.0,0.0
911,74.0,30.0,30.0,10.0,0.0
912,62.0,0.0,60.0,5.0,0.0
913,62.0,0.0,60.0,6.0,0.0
914,76.0,0.0,30.0,10.0,0.0
915,76.0,0.0,180.0,6.0,0.0
916,61.0,0.0,30.0,6.0,0.0
917,69.0,30.0,150.0,10.0,0.0
918,65.0,0.0,15.0,11.0,0.0
919,76.0,0.0,180.0,5.0,0.0
920,33.0,30.0,120.0,7.0,0.0
921,33.0,0.0,120.0,8.0,0.0
922,33.0,0.0,120.0,13.0,0.0
923,61.0,10.0,30.0,5.0,0.0
924,64.0,5.0,15.0,11.0,0.0
925,65.0,15.0,15.0,11.0,0.0
926,64.0,15.0,15.0,11.0,0.0
927,61.0,0.0,60.0,12.0,0.0
928,67.0,0.0,60.0,6.0,0.0
929,65.0,15.0,15.0,11.0,0.0
930,67.0,0.0,60.0,5.0,0.0
931,64.0,15.0,15.0,11.0,0.0
932,62.0,15.0,15.0,11.0,0.0
933,64.0,0.0,15.0,11.0,0.0
934,38.0,0.0,180.0,13.0,0.0
935,65.0,0.0,120.0,5.0,0.0
936,57.0,0.0,120.0,12.0,0.0
937,65.0,0.0,180.0,11.0,0.0
938,38.0,0.0,180.0,7.0,0.0
939,65.0,0.0,120.0,6.0,0.0
940,38.0,30.0,180.0,8.0,0.0
941,67.0,30.0,30.0,10.0,0.0
942,74.0,0.0,30.0,5.0,0.0
943,65.0,30.0,30.0,10.0,0.0
944,74.0,0.0,30.0,6.0,0.0
945,76.0,0.0,30.0,6.0,0.0
946,64.0,60.0,30.0,10.0,0.0
947,76.0,0.0,30.0,5.0,0.0
948,77.0,0.0,180.0,5.0,0.0
949,77.0,60.0,180.0,6.0,0.0
950,62.0,0.0,180.0,10.0,0.0
951,39.0,0.0,30.0,13.0,0.0
952,39.0,30.0,30.0,7.0,0.0
953,60.0,0.0,60.0,12.0,0.0
954,39.0,0.0,30.0,8.0,0.0
955,67.0,0.0,30.0,11.0,0.0
956,68.0,60.0,30.0,11.0,0.0
957,41.0,0.0,30.0,8.0,0.0
958,41.0,0.0,30.0,13.0,0.0
959,41.0,0.0,30.0,7.0,0.0
960,43.0,0.0,120.0,8.0,0.0
961,43.0,0.0,120.0,7.0,0.0
962,59.0,0.0,60.0,11.0,0.0
963,55.0,0.0,120.0,12.0,0.0
964,43.0,0.0,120.0,13.0,0.0
965,63.0,0.0,60.0,11.0,0.0
966,72.0,0.0,60.0,10.0,0.0
967,68.0,35.0,60.0,5.0,0.0
968,68.0,0.0,60.0,6.0,0.0
969,55.0,0.0,120.0,7.0,0.0
970,55.0,0.0,120.0,13.0,0.0
971,67.0,0.0,30.0,6.0,0.0
972,62.0,0.0,30.0,11.0,0.0
973,71.0,60.0,30.0,10.0,0.0
974,71.0,0.0,120.0,6.0,0.0
975,55.0,60.0,120.0,8.0,0.0
976,71.0,0.0,120.0,5.0,0.0
977,67.0,0.0,30.0,5.0,0.0
978,77.0,0.0,30.0,6.0,0.0
979,59.0,0.0,30.0,12.0,0.0
980,77.0,0.0,30.0,5.0,0.0
981,74.0,0.0,30.0,10.0,0.0
982,67.0,25.0,30.0,11.0,0.0
983,55.0,0.0,60.0,12.0,0.0
984,76.0,0.0,60.0,10.0,0.0
985,76.0,0.0,60.0,6.0,0.0
986,72.0,11.0,60.0,6.0,0.0
987,67.0,0.0,60.0,11.0,0.0
988,48.0,0.0,60.0,7.0,0.0
989,48.0,0.0,60.0,13.0,0.0
990,72.0,0.0,60.0,5.0,0.0
991,48.0,49.0,60.0,8.0,0.0
992,76.0,0.0,60.0,5.0,0.0
993,67.0,0.0,60.0,5.0,0.0
994,70.0,0.0,60.0,6.0,0.0
995,67.0,35.0,60.0,6.0,0.0
996,70.0,0.0,60.0,5.0,0.0
997,69.0,36.0,30.0,6.0,0.0
998,69.0,0.0,30.0,5.0,0.0
999,66.0,0.0,30.0,5.0,0.0
1000,66.0,0.0,30.0,6.0,0.0
1001,78.0,0.0,30.0,6.0,0.0
1002,75.0,0.0,15.0,10.0,0.0
1003,69.0,0.0,15.0,11.0,0.0
1004,69.0,0.0,30.0,6.0,0.0
1005,60.0,0.0,15.0,12.0,0.0
1006,69.0,85.0,30.0,5.0,0.0
1007,78.0,0.0,30.0,5.0,0.0
1008,48.0,24.0,15.0,8.0,0.0
1009,48.0,0.0,15.0,13.0,0.0
1010,48.0,0.0,15.0,7.0,0.0
1011,74.0,0.0,60.0,10.0,0.0
1012,62.0,0.0,60.0,5.0,0.0
1013,79.0,0.0,60.0,6.0,0.0
1014,62.0,0.0,60.0,6.0,0.0
1015,46.0,0.0,60.0,7.0,0.0
1016,79.0,11.0,60.0,5.0,0.0
1017,62.0,0.0,60.0,12.0,0.0
1018,46.0,49.0,60.0,8.0,0.0
1019,46.0,0.0,60.0,13.0,0.0
1020,70.0,0.0,60.0,11.0,0.0
1021,74.0,0.0,60.0,6.0,0.0
1022,67.0,35.0,60.0,6.0,0.0
1023,74.0,0.0,60.0,5.0,0.0
1024,67.0,0.0,60.0,5.0,0.0
1025,73.0,0.0,30.0,6.0,0.0
1026,69.0,0.0,30.0,6.0,0.0
1027,69.0,60.0,30.0,5.0,0.0
1028,73.0,0.0,30.0,5.0,0.0
1029,79.0,0.0,30.0,6.0,0.0
1030,79.0,0.0,30.0,5.0,0.0
1031,45.0,0.0,30.0,7.0,0.0
1032,61.0,0.0,30.0,12.0,0.0
1033,61.0,0.0,30.0,6.0,0.0
1034,45.0,0.0,30.0,13.0,0.0
1035,61.0,0.0,30.0,5.0,0.0
1036,64.0,0.0,30.0,11.0,0.0
1037,45.0,0.0,30.0,8.0,0.0
1038,76.0,85.0,30.0,10.0,0.0
1039,78.0,11.0,60.0,6.0,0.0
1040,62.0,0.0,60.0,6.0,0.0
1041,78.0,49.0,60.0,10.0,0.0
1042,62.0,0.0,60.0,11.0,0.0
1043,50.0,0.0,60.0,7.0,0.0
1044,50.0,0.0,60.0,13.0,0.0
1045,78.0,0.0,60.0,5.0,0.0
1046,62.0,0.0,60.0,5.0,0.0
1047,57.0,0.0,60.0,12.0,0.0
1048,50.0,0.0,60.0,8.0,0.0
1049,66.0,35.0,60.0,6.0,0.0
1050,72.0,0.0,60.0,6.0,0.0
1051,72.0,0.0,60.0,5.0,0.0
1052,66.0,0.0,60.0,5.0,0.0
1053,67.0,60.0,30.0,6.0,0.0
1054,67.0,0.0,30.0,5.0,0.0
1055,71.0,0.0,30.0,6.0,0.0
1056,71.0,0.0,30.0,5.0,0.0
1057,77.0,0.0,30.0,5.0,0.0
1058,67.0,0.0,30.0,11.0,0.0
1059,59.0,0.0,30.0,5.0,0.0
1060,74.0,0.0,30.0,10.0,0.0
1061,59.0,0.0,30.0,12.0,0.0
1062,43.0,0.0,30.0,13.0,0.0
1063,43.0,0.0,30.0,7.0,0.0
1064,59.0,85.0,30.0,6.0,0.0
1065,43.0,0.0,30.0,8.0,0.0
1066,77.0,0.0,30.0,6.0,0.0
1067,76.0,11.0,60.0,5.0,0.0
1068,60.0,0.0,60.0,5.0,0.0
1069,76.0,0.0,60.0,10.0,0.0
1070,48.0,0.0,60.0,7.0,0.0
1071,55.0,49.0,60.0,12.0,0.0
1072,67.0,0.0,60.0,11.0,0.0
1073,60.0,0.0,60.0,6.0,0.0
1074,48.0,0.0,60.0,13.0,0.0
1075,76.0,0.0,60.0,6.0,0.0
1076,48.0,0.0,60.0,8.0,0.0
1077,64.0,35.0,60.0,5.0,0.0
1078,64.0,0.0,60.0,6.0,0.0
1079,70.0,0.0,60.0,6.0,0.0
1080,70.0,0.0,60.0,5.0,0.0
1081,65.0,0.0,30.0,6.0,0.0
1082,69.0,60.0,30.0,6.0,0.0
1083,65.0,0.0,30.0,5.0,0.0
1084,69.0,0.0,30.0,5.0,0.0
1085,60.0,0.0,30.0,6.0,0.0
1086,65.0,0.0,30.0,11.0,0.0
1087,72.0,0.0,30.0,10.0,0.0
1088,57.0,0.0,30.0,12.0,0.0
1089,75.0,0.0,30.0,5.0,0.0
1090,60.0,85.0,30.0,5.0,0.0
1091,41.0,0.0,30.0,8.0,0.0
1092,41.0,0.0,30.0,7.0,0.0
1093,75.0,0.0,30.0,6.0,0.0
1094,41.0,0.0,30.0,13.0,0.0
1095,74.0,0.0,60.0,10.0,0.0
1096,46.0,0.0,60.0,8.0,0.0
1097,65.0,0.0,60.0,11.0,0.0
1098,58.0,0.0,60.0,6.0,0.0
1099,46.0,49.0,60.0,7.0,0.0
1100,46.0,0.0,60.0,13.0,0.0
1101,74.0,0.0,60.0,6.0,0.0
1102,53.0,0.0,60.0,12.0,0.0
1103,58.0,0.0,60.0,5.0,0.0
1104,74.0,11.0,60.0,5.0,0.0
1105,62.0,0.0,60.0,6.0,0.0
1106,66.0,0.0,60.0,6.0,0.0
1107,62.0,35.0,60.0,5.0,0.0
1108,66.0,0.0,60.0,5.0,0.0
1109,67.0,0.0,30.0,6.0,0.0
1110,67.0,60.0,30.0,5.0,0.0
1111,70.0,0.0,30.0,5.0,0.0
1112,67.0,85.0,30.0,11.0,0.0
1113,51.0,0.0,30.0,7.0,0.0
1114,70.0,0.0,30.0,6.0,0.0
1115,74.0,0.0,30.0,10.0,0.0
1116,51.0,0.0,30.0,8.0,0.0
1117,51.0,0.0,30.0,12.0,0.0
1118,51.0,0.0,30.0,13.0,0.0
1119,63.0,49.0,60.0,12.0,0.0
1120,45.0,0.0,60.0,13.0,0.0
1121,45.0,0.0,60.0,8.0,0.0
1122,72.0,0.0,60.0,5.0,0.0
1123,72.0,0.0,60.0,10.0,0.0
1124,72.0,11.0,60.0,6.0,0.0
1125,45.0,0.0,60.0,7.0,0.0
1126,69.0,0.0,60.0,11.0,0.0
1127,63.0,0.0,60.0,5.0,0.0
1128,63.0,0.0,60.0,6.0,0.0
1129,66.0,0.0,30.0,5.0,0.0
1130,62.0,60.0,30.0,5.0,0.0
1131,62.0,0.0,30.0,6.0,0.0
1132,66.0,0.0,30.0,6.0,0.0
1133,72.0,0.0,60.0,5.0,0.0
1134,69.0,0.0,120.0,5.0,0.0
1135,50.0,0.0,30.0,7.0,0.0
1136,66.0,0.0,30.0,11.0,0.0
1137,57.0,0.0,30.0,12.0,0.0
1138,69.0,25.0,30.0,10.0,0.0
1139,50.0,0.0,30.0,8.0,0.0
1140,50.0,0.0,30.0,13.0,0.0
1141,69.0,30.0,120.0,6.0,0.0
1142,72.0,60.0,60.0,6.0,0.0
1143,55.0,0.0,120.0,12.0,0.0
1144,43.0,30.0,90.0,7.0,0.0
1145,70.0,0.0,180.0,5.0,0.0
1146,62.0,30.0,180.0,11.0,0.0
1147,70.0,0.0,240.0,10.0,0.0
1148,70.0,0.0,180.0,6.0,0.0
1149,62.0,0.0,60.0,5.0,0.0
1150,62.0,35.0,60.0,6.0,0.0
1151,43.0,0.0,15.0,13.0,0.0
1152,43.0,0.0,15.0,8.0,0.0
1153,43.0,0.0,15.0,7.0,0.0
1154,67.0,0.0,240.0,6.0,0.0
1155,43.0,0.0,15.0,8.0,0.0
1156,67.0,0.0,240.0,5.0,0.0
1157,43.0,0.0,30.0,13.0,0.0
1158,43.0,0.0,60.0,7.0,0.0
1159,72.0,0.0,30.0,6.0,0.0
1160,72.0,0.0,30.0,5.0,0.0
1161,43.0,60.0,60.0,8.0,0.0
1162,43.0,0.0,60.0,13.0,0.0
1163,60.0,30.0,30.0,11.0,0.0
1164,74.0,0.0,30.0,6.0,0.0
1165,74.0,0.0,30.0,5.0,0.0
1166,58.0,0.0,30.0,11.0,0.0
1167,45.0,0.0,60.0,13.0,0.0
1168,72.0,0.0,180.0,6.0,0.0
1169,63.0,0.0,15.0,12.0,0.0
1170,72.0,30.0,180.0,5.0,0.0
1171,69.0,0.0,240.0,10.0,0.0
1172,60.0,0.0,180.0,11.0,0.0
1173,45.0,60.0,60.0,8.0,0.0
1174,45.0,0.0,60.0,7.0,0.0
1175,39.0,0.0,60.0,7.0,0.0
1176,39.0,0.0,60.0,13.0,0.0
1177,39.0,35.0,60.0,8.0,0.0
1178,38.0,0.0,30.0,7.0,0.0
1179,38.0,25.0,30.0,13.0,0.0
1180,66.0,0.0,120.0,6.0,0.0
1181,66.0,0.0,120.0,5.0,0.0
1182,38.0,0.0,30.0,8.0,0.0
1183,45.0,0.0,60.0,7.0,0.0
1184,45.0,0.0,60.0,8.0,0.0
1185,74.0,30.0,30.0,6.0,0.0
1186,62.0,0.0,30.0,12.0,0.0
1187,45.0,0.0,60.0,13.0,0.0
1188,58.0,0.0,30.0,11.0,0.0
1189,74.0,0.0,30.0,5.0,0.0
1190,75.0,0.0,30.0,5.0,0.0
1191,57.0,60.0,30.0,11.0,0.0
1192,60.0,0.0,30.0,12.0,0.0
1193,75.0,0.0,30.0,6.0,0.0
1194,67.0,0.0,60.0,10.0,0.0
1195,46.0,0.0,60.0,8.0,0.0
1196,62.0,0.0,120.0,11.0,0.0
1197,67.0,0.0,300.0,5.0,0.0
1198,74.0,0.0,180.0,5.0,0.0
1199,67.0,0.0,300.0,6.0,0.0
1200,74.0,0.0,180.0,6.0,0.0
1201,46.0,0.0,60.0,13.0,0.0
1202,58.0,35.0,120.0,12.0,0.0
1203,46.0,60.0,60.0,7.0,0.0
1204,39.0,0.0,60.0,8.0,0.0
1205,39.0,0.0,60.0,13.0,0.0
1206,79.0,0.0,60.0,10.0,0.0
1207,39.0,0.0,60.0,7.0,0.0
1208,38.0,25.0,30.0,8.0,0.0
1209,38.0,0.0,30.0,13.0,0.0
1210,38.0,0.0,30.0,7.0,0.0
1211,77.0,30.0,60.0,10.0,0.0
1212,47.0,0.0,60.0,13.0,0.0
1213,47.0,0.0,60.0,7.0,0.0
1214,67.0,0.0,60.0,11.0,0.0
1215,75.0,0.0,30.0,6.0,0.0
1216,75.0,30.0,30.0,10.0,0.0
1217,75.0,0.0,30.0,5.0,0.0
1218,47.0,0.0,60.0,8.0,0.0
1219,55.0,30.0,60.0,12.0,0.0
1220,77.0,0.0,30.0,6.0,0.0
1221,74.0,0.0,30.0,10.0,0.0
1222,77.0,0.0,30.0,5.0,0.0
1223,75.0,0.0,60.0,10.0,0.0
1224,67.0,0.0,120.0,11.0,0.0
1225,48.0,30.0,30.0,13.0,0.0
1226,60.0,0.0,120.0,12.0,0.0
1227,75.0,0.0,300.0,5.0,0.0
1228,48.0,0.0,30.0,8.0,0.0
1229,48.0,0.0,30.0,7.0,0.0
1230,46.0,60.0,30.0,13.0,0.0
1231,46.0,0.0,30.0,8.0,0.0
1232,46.0,0.0,30.0,7.0,0.0
1233,65.0,0.0,60.0,5.0,0.0
1234,44.0,30.0,90.0,8.0,0.0
1235,65.0,30.0,60.0,6.0,0.0
1236,74.0,0.0,60.0,10.0,0.0
1237,44.0,0.0,90.0,7.0,0.0
1238,44.0,0.0,90.0,13.0,0.0
1239,72.0,30.0,60.0,10.0,0.0
1240,63.0,0.0,60.0,5.0,0.0
1241,63.0,0.0,60.0,6.0,0.0
1242,43.0,0.0,30.0,7.0,0.0
1243,43.0,0.0,30.0,13.0,0.0
1244,43.0,0.0,30.0,8.0,0.0
1245,70.0,0.0,60.0,10.0,0.0
1246,58.0,0.0,60.0,11.0,0.0
1247,42.0,30.0,30.0,13.0,0.0
1248,42.0,0.0,30.0,7.0,0.0
1249,62.0,0.0,60.0,5.0,0.0
1250,67.0,0.0,60.0,12.0,0.0
1251,62.0,0.0,60.0,6.0,0.0
1252,42.0,0.0,30.0,8.0,0.0
1253,43.0,35.0,30.0,7.0,0.0
1254,43.0,0.0,30.0,8.0,0.0
1255,43.0,0.0,30.0,13.0,0.0
1256,60.0,0.0,120.0,6.0,0.0
1257,75.0,0.0,15.0,6.0,0.0
1258,60.0,60.0,120.0,5.0,0.0
1259,69.0,0.0,120.0,12.0,0.0
1260,42.0,25.0,30.0,8.0,0.0
1261,69.0,0.0,180.0,10.0,0.0
1262,60.0,0.0,120.0,11.0,0.0
1263,42.0,60.0,60.0,7.0,0.0
1264,42.0,0.0,30.0,13.0,0.0
1265,40.0,0.0,60.0,7.0,0.0
1266,69.0,0.0,60.0,5.0,0.0
1267,40.0,0.0,60.0,8.0,0.0
1268,40.0,0.0,60.0,13.0,0.0
1269,69.0,0.0,15.0,6.0,0.0
1270,74.0,30.0,60.0,6.0,0.0
1271,42.0,0.0,60.0,13.0,0.0
1272,42.0,0.0,60.0,8.0,0.0
1273,69.0,0.0,180.0,5.0,0.0
1274,74.0,0.0,60.0,5.0,0.0
1275,62.0,0.0,180.0,11.0,0.0
1276,42.0,0.0,60.0,7.0,0.0
1277,67.0,30.0,30.0,10.0,0.0
1278,38.0,0.0,60.0,7.0,0.0
1279,38.0,0.0,60.0,13.0,0.0
1280,72.0,0.0,60.0,5.0,0.0
1281,66.0,0.0,60.0,12.0,0.0
1282,38.0,60.0,60.0,8.0,0.0
1283,72.0,0.0,60.0,6.0,0.0
1284,69.0,0.0,30.0,10.0,0.0
1285,70.0,0.0,60.0,6.0,0.0
1286,43.0,0.0,60.0,7.0,0.0
1287,62.0,0.0,120.0,12.0,0.0
1288,70.0,0.0,60.0,10.0,0.0
1289,43.0,0.0,60.0,13.0,0.0
1290,43.0,0.0,60.0,8.0,0.0
1291,70.0,30.0,60.0,5.0,0.0
1292,45.0,0.0,60.0,7.0,0.0
1293,45.0,0.0,60.0,8.0,0.0
1294,72.0,0.0,60.0,10.0,0.0
1295,62.0,0.0,60.0,6.0,0.0
1296,69.0,0.0,15.0,6.0,0.0
1297,62.0,0.0,60.0,5.0,0.0
1298,60.0,60.0,60.0,11.0,0.0
1299,69.0,30.0,30.0,5.0,0.0
1300,45.0,0.0,60.0,13.0,0.0
1301,67.0,0.0,30.0,6.0,0.0
1302,74.0,0.0,60.0,10.0,0.0
1303,74.0,0.0,180.0,5.0,0.0
1304,67.0,0.0,15.0,5.0,0.0
1305,46.0,0.0,60.0,8.0,0.0
1306,74.0,0.0,180.0,6.0,0.0
1307,46.0,60.0,60.0,13.0,0.0
1308,46.0,0.0,60.0,7.0,0.0
1309,58.0,0.0,60.0,11.0,0.0
1310,67.0,0.0,60.0,6.0,0.0
1311,62.0,0.0,60.0,11.0,0.0
1312,43.0,0.0,60.0,8.0,0.0
1313,43.0,0.0,60.0,7.0,0.0
1314,58.0,0.0,60.0,12.0,0.0
1315,65.0,60.0,60.0,6.0,0.0
1316,65.0,0.0,60.0,5.0,0.0
1317,70.0,0.0,60.0,10.0,0.0
1318,43.0,0.0,60.0,13.0,0.0
1319,60.0,0.0,120.0,12.0,0.0
1320,63.0,0.0,360.0,5.0,0.0
1321,48.0,0.0,60.0,8.0,0.0
1322,48.0,0.0,60.0,7.0,0.0
1323,63.0,0.0,300.0,6.0,0.0
1324,48.0,0.0,60.0,13.0,0.0
1325,67.0,0.0,180.0,10.0,0.0
1326,63.0,60.0,60.0,11.0,0.0
1327,50.0,0.0,60.0,8.0,0.0
1328,50.0,0.0,60.0,13.0,0.0
1329,62.0,0.0,60.0,11.0,0.0
1330,67.0,0.0,60.0,5.0,0.0
1331,50.0,60.0,60.0,7.0,0.0
1332,67.0,0.0,60.0,6.0,0.0
1333,72.0,0.0,60.0,6.0,0.0
1334,51.0,0.0,60.0,8.0,0.0
1335,51.0,0.0,60.0,13.0,0.0
1336,72.0,0.0,60.0,5.0,0.0
1337,60.0,0.0,240.0,11.0,0.0
1338,51.0,30.0,60.0,7.0,0.0
1339,70.0,0.0,60.0,5.0,0.0
1340,48.0,60.0,60.0,13.0,0.0
1341,70.0,0.0,60.0,6.0,0.0
1342,66.0,30.0,30.0,10.0,0.0
1343,48.0,0.0,60.0,7.0,0.0
1344,48.0,0.0,60.0,8.0,0.0
1345,63.0,0.0,60.0,12.0,0.0
1346,67.0,0.0,30.0,10.0,0.0
1347,54.0,0.0,60.0,8.0,0.0
1348,69.0,0.0,300.0,5.0,0.0
1349,57.0,0.0,120.0,12.0,0.0
1350,69.0,0.0,300.0,6.0,0.0
1351,54.0,0.0,60.0,13.0,0.0
1352,54.0,60.0,60.0,7.0,0.0
1353,69.0,0.0,240.0,10.0,0.0
1354,52.0,0.0,60.0,13.0,0.0
1355,52.0,60.0,60.0,8.0,0.0
1356,57.0,0.0,60.0,6.0,0.0
1357,52.0,0.0,60.0,7.0,0.0
1358,54.0,0.0,60.0,7.0,0.0
1359,54.0,0.0,60.0,13.0,0.0
1360,62.0,0.0,60.0,6.0,0.0
1361,62.0,30.0,300.0,11.0,0.0
1362,62.0,0.0,60.0,5.0,0.0
1363,54.0,60.0,60.0,8.0,0.0
1364,54.0,60.0,60.0,12.0,0.0
1365,50.0,0.0,60.0,7.0,0.0
1366,60.0,0.0,60.0,6.0,0.0
1367,50.0,0.0,60.0,13.0,0.0
1368,60.0,0.0,60.0,5.0,0.0
1369,50.0,0.0,60.0,8.0,0.0
1370,58.0,0.0,300.0,6.0,0.0
1371,58.0,0.0,300.0,5.0,0.0
1372,55.0,60.0,60.0,7.0,0.0
1373,50.0,0.0,120.0,12.0,0.0
1374,70.0,0.0,60.0,10.0,0.0
1375,55.0,0.0,60.0,13.0,0.0
1376,55.0,0.0,60.0,8.0,0.0
1377,62.0,0.0,60.0,5.0,0.0
1378,69.0,60.0,60.0,10.0,0.0
1379,62.0,0.0,60.0,6.0,0.0
1380,53.0,0.0,60.0,13.0,0.0
1381,53.0,0.0,60.0,7.0,0.0
1382,53.0,0.0,60.0,8.0,0.0
1383,67.0,0.0,60.0,5.0,0.0
1384,51.0,0.0,60.0,7.0,0.0
1385,67.0,0.0,60.0,6.0,0.0
1386,51.0,0.0,60.0,13.0,0.0
1387,67.0,0.0,180.0,10.0,0.0
1388,51.0,0.0,60.0,8.0,0.0
1389,50.0,0.0,60.0,13.0,0.0
1390,50.0,0.0,60.0,8.0,0.0
1391,65.0,0.0,60.0,5.0,0.0
1392,50.0,60.0,60.0,12.0,0.0
1393,60.0,30.0,30.0,11.0,0.0
1394,50.0,0.0,60.0,7.0,0.0
1395,65.0,0.0,60.0,6.0,0.0
1396,62.0,0.0,30.0,11.0,0.0
1397,48.0,0.0,120.0,7.0,0.0
1398,48.0,0.0,120.0,8.0,0.0
1399,63.0,0.0,120.0,6.0,0.0
1400,63.0,60.0,60.0,11.0,0.0
1401,48.0,0.0,120.0,13.0,0.0
1402,63.0,0.0,120.0,5.0,0.0
1403,55.0,0.0,120.0,12.0,0.0
1404,66.0,35.0,60.0,5.0,0.0
1405,66.0,0.0,60.0,6.0,0.0
1406,57.0,0.0,60.0,10.0,0.0
1407,60.0,0.0,60.0,11.0,0.0
1408,50.0,0.0,120.0,13.0,0.0
1409,62.0,0.0,120.0,6.0,0.0
1410,67.0,60.0,60.0,6.0,0.0
1411,50.0,0.0,120.0,8.0,0.0
1412,58.0,25.0,30.0,10.0,0.0
1413,62.0,0.0,120.0,5.0,0.0
1414,58.0,0.0,120.0,11.0,0.0
1415,67.0,0.0,60.0,5.0,0.0
1416,50.0,35.0,120.0,7.0,0.0
1417,50.0,0.0,60.0,12.0,0.0
1418,67.0,0.0,60.0,10.0,0.0
1419,58.0,0.0,60.0,6.0,0.0
1420,58.0,0.0,60.0,5.0,0.0
1421,57.0,0.0,30.0,6.0,0.0
1422,51.0,0.0,120.0,13.0,0.0
1423,51.0,0.0,120.0,7.0,0.0
1424,60.0,0.0,120.0,11.0,0.0
1425,66.0,0.0,30.0,10.0,0.0
1426,51.0,0.0,120.0,8.0,0.0
1427,60.0,0.0,30.0,5.0,0.0
1428,60.0,0.0,30.0,6.0,0.0
1429,57.0,60.0,120.0,12.0,0.0
1430,69.0,0.0,60.0,6.0,0.0
1431,66.0,0.0,60.0,6.0,0.0
1432,69.0,0.0,60.0,5.0,0.0
1433,72.0,0.0,60.0,10.0,0.0
1434,66.0,0.0,60.0,5.0,0.0
1435,70.0,0.0,60.0,6.0,0.0
1436,67.0,60.0,60.0,6.0,0.0
1437,50.0,0.0,60.0,8.0,0.0
1438,62.0,0.0,60.0,11.0,0.0
1439,70.0,0.0,60.0,10.0,0.0
1440,50.0,0.0,60.0,7.0,0.0
1441,70.0,0.0,60.0,5.0,0.0
1442,50.0,0.0,60.0,13.0,0.0
1443,67.0,0.0,60.0,5.0,0.0
1444,48.0,0.0,60.0,7.0,0.0
1445,69.0,0.0,60.0,10.0,0.0
1446,54.0,0.0,60.0,11.0,0.0
1447,69.0,0.0,60.0,5.0,0.0
1448,51.0,0.0,60.0,12.0,0.0
1449,48.0,60.0,60.0,13.0,0.0
1450,72.0,0.0,60.0,5.0,0.0
1451,48.0,0.0,60.0,8.0,0.0
1452,69.0,0.0,60.0,6.0,0.0
1453,72.0,0.0,60.0,6.0,0.0
1454,46.0,0.0,60.0,7.0,0.0
1455,55.0,60.0,120.0,11.0,0.0
1456,50.0,0.0,120.0,12.0,0.0
1457,46.0,60.0,60.0,8.0,0.0
1458,62.0,0.0,60.0,5.0,0.0
1459,67.0,0.0,60.0,10.0,0.0
1460,74.0,0.0,60.0,5.0,0.0
1461,74.0,0.0,60.0,6.0,0.0
1462,62.0,0.0,60.0,6.0,0.0
1463,46.0,0.0,60.0,13.0,0.0
1464,60.0,0.0,60.0,10.0,0.0
1465,54.0,0.0,60.0,6.0,0.0
1466,75.0,0.0,60.0,6.0,0.0
1467,45.0,0.0,60.0,7.0,0.0
1468,60.0,0.0,60.0,5.0,0.0
1469,45.0,0.0,60.0,13.0,0.0
1470,45.0,0.0,60.0,8.0,0.0
1471,75.0,0.0,60.0,5.0,0.0
1472,46.0,0.0,60.0,8.0,0.0
1473,74.0,60.0,60.0,6.0,0.0
1474,58.0,0.0,60.0,5.0,0.0
1475,58.0,0.0,60.0,10.0,0.0
1476,74.0,0.0,60.0,5.0,0.0
1477,55.0,0.0,60.0,6.0,0.0
1478,46.0,0.0,60.0,7.0,0.0
1479,46.0,0.0,60.0,13.0,0.0
1480,63.0,0.0,60.0,5.0,0.0
1481,48.0,0.0,60.0,13.0,0.0
1482,48.0,0.0,60.0,8.0,0.0
1483,67.0,0.0,120.0,5.0,0.0
1484,55.0,60.0,60.0,12.0,0.0
1485,57.0,0.0,60.0,10.0,0.0
1486,63.0,0.0,60.0,11.0,0.0
1487,48.0,0.0,60.0,7.0,0.0
1488,63.0,0.0,60.0,6.0,0.0
1489,67.0,0.0,120.0,6.0,0.0
1490,62.0,0.0,60.0,5.0,0.0
1491,58.0,0.0,60.0,6.0,0.0
1492,50.0,0.0,540.0,8.0,0.0
1493,58.0,30.0,60.0,10.0,0.0
1494,50.0,0.0,60.0,12.0,0.0
1495,50.0,0.0,540.0,7.0,0.0
1496,50.0,0.0,540.0,13.0,0.0
1497,62.0,0.0,60.0,11.0,0.0
1498,66.0,0.0,120.0,6.0,0.0
1499,57.0,0.0,120.0,6.0,0.0
1500,60.0,30.0,30.0,10.0,0.0
1501,66.0,0.0,120.0,5.0,0.0
1502,48.0,0.0,30.0,12.0,0.0
1503,63.0,0.0,30.0,11.0,0.0
1504,60.0,0.0,120.0,5.0,0.0
1505,46.0,0.0,30.0,12.0,0.0
1506,62.0,0.0,30.0,11.0,0.0
1507,62.0,60.0,30.0,10.0,0.0
1508,63.0,0.0,60.0,10.0,0.0
1509,60.0,60.0,60.0,11.0,0.0
1510,45.0,0.0,60.0,12.0,0.0
1511,62.0,0.0,60.0,10.0,0.0
1512,58.0,35.0,60.0,5.0,0.0
1513,50.0,0.0,60.0,12.0,0.0
1514,67.0,0.0,60.0,6.0,0.0
1515,58.0,0.0,60.0,6.0,0.0
1516,67.0,0.0,60.0,5.0,0.0
1517,58.0,0.0,60.0,11.0,0.0
1518,60.0,85.0,30.0,10.0,0.0
1519,54.0,0.0,30.0,12.0,0.0
1520,57.0,0.0,120.0,11.0,0.0
1521,60.0,0.0,30.0,6.0,0.0
1522,69.0,0.0,30.0,6.0,0.0
1523,60.0,0.0,30.0,5.0,0.0
1524,69.0,0.0,30.0,5.0,0.0
1525,63.0,0.0,60.0,5.0,0.0
1526,45.0,60.0,60.0,12.0,0.0
1527,63.0,0.0,60.0,6.0,0.0
1528,66.0,0.0,60.0,10.0,0.0
1529,72.0,0.0,60.0,6.0,0.0
1530,72.0,0.0,60.0,5.0,0.0
1531,70.0,0.0,60.0,5.0,0.0
1532,50.0,60.0,60.0,12.0,0.0
1533,62.0,0.0,60.0,6.0,0.0
1534,70.0,0.0,60.0,6.0,0.0
1535,58.0,0.0,60.0,11.0,0.0
1536,67.0,0.0,60.0,10.0,0.0
1537,62.0,0.0,60.0,5.0,0.0
1538,60.0,0.0,60.0,5.0,0.0
1539,54.0,60.0,60.0,12.0,0.0
1540,69.0,0.0,60.0,5.0,0.0
1541,60.0,0.0,60.0,6.0,0.0
1542,69.0,0.0,60.0,10.0,0.0
1543,60.0,0.0,60.0,11.0,0.0
1544,69.0,0.0,60.0,6.0,0.0
1545,70.0,30.0,90.0,10.0,0.0
1546,62.0,0.0,60.0,11.0,0.0
1547,67.0,15.0,120.0,5.0,0.0
1548,58.0,0.0,60.0,5.0,0.0
1549,58.0,30.0,60.0,12.0,0.0
1550,58.0,0.0,60.0,6.0,0.0
1551,63.0,0.0,120.0,5.0,0.0
1552,48.0,0.0,60.0,13.0,0.0
1553,48.0,0.0,60.0,8.0,0.0
1554,60.0,0.0,120.0,12.0,0.0
1555,63.0,0.0,60.0,6.0,0.0
1556,48.0,0.0,60.0,7.0,0.0
1557,63.0,0.0,120.0,11.0,0.0
1558,69.0,0.0,30.0,10.0,0.0
1559,50.0,0.0,60.0,8.0,0.0
1560,70.0,0.0,15.0,10.0,0.0
1561,50.0,0.0,60.0,13.0,0.0
1562,57.0,0.0,60.0,6.0,0.0
1563,67.0,0.0,15.0,6.0,0.0
1564,66.0,0.0,120.0,5.0,0.0
1565,50.0,15.0,60.0,7.0,0.0
1566,69.0,15.0,15.0,10.0,0.0
1567,66.0,0.0,15.0,6.0,0.0
1568,67.0,0.0,15.0,6.0,0.0
1569,70.0,15.0,15.0,10.0,0.0
1570,69.0,0.0,15.0,10.0,0.0
1571,66.0,0.0,15.0,6.0,0.0
1572,62.0,0.0,30.0,5.0,0.0
1573,38.0,35.0,60.0,8.0,0.0
1574,38.0,0.0,60.0,7.0,0.0
1575,58.0,15.0,30.0,12.0,0.0
1576,67.0,0.0,15.0,6.0,0.0
1577,62.0,0.0,60.0,6.0,0.0
1578,38.0,0.0,60.0,13.0,0.0
1579,70.0,15.0,15.0,10.0,0.0
1580,62.0,0.0,60.0,11.0,0.0
1581,69.0,0.0,15.0,10.0,0.0
1582,66.0,0.0,15.0,6.0,0.0
1583,60.0,0.0,30.0,5.0,0.0
1584,57.0,0.0,30.0,12.0,0.0
1585,64.0,15.0,15.0,6.0,0.0
1586,66.0,0.0,15.0,6.0,0.0
1587,67.0,0.0,15.0,10.0,0.0
1588,58.0,60.0,60.0,6.0,0.0
1589,67.0,0.0,60.0,6.0,0.0
1590,43.0,35.0,360.0,13.0,0.0
1591,58.0,25.0,30.0,12.0,0.0
1592,43.0,0.0,360.0,8.0,0.0
1593,43.0,0.0,360.0,7.0,0.0
1594,67.0,0.0,60.0,5.0,0.0
1595,58.0,0.0,60.0,5.0,0.0
1596,62.0,0.0,30.0,11.0,0.0
1597,60.0,0.0,60.0,5.0,0.0
1598,63.0,0.0,60.0,5.0,0.0
1599,54.0,0.0,60.0,12.0,0.0
1600,60.0,0.0,60.0,6.0,0.0
1601,69.0,60.0,60.0,10.0,0.0
1602,63.0,0.0,60.0,6.0,0.0
1603,57.0,0.0,60.0,11.0,0.0
1604,62.0,0.0,60.0,6.0,0.0
1605,62.0,60.0,60.0,5.0,0.0
1606,58.0,0.0,60.0,5.0,0.0
1607,58.0,0.0,60.0,11.0,0.0
1608,58.0,0.0,60.0,6.0,0.0
1609,67.0,0.0,60.0,10.0,0.0
1610,55.0,0.0,60.0,12.0,0.0
1611,60.0,0.0,60.0,11.0,0.0
1612,57.0,0.0,60.0,12.0,0.0
1613,60.0,0.0,60.0,5.0,0.0
1614,60.0,90.0,60.0,6.0,0.0
1615,66.0,0.0,60.0,10.0,0.0
1616,57.0,0.0,60.0,6.0,0.0
1617,58.0,0.0,120.0,12.0,0.0
1618,62.0,0.0,120.0,11.0,0.0
1619,58.0,0.0,120.0,5.0,0.0
1620,67.0,0.0,120.0,10.0,0.0
1621,58.0,0.0,120.0,6.0,0.0
1622,55.0,0.0,120.0,6.0,0.0
1623,62.0,0.0,120.0,5.0,0.0
1624,55.0,30.0,15.0,3.0,0.0
1625,55.0,0.0,15.0,3.0,0.0
1626,67.0,0.0,240.0,6.0,0.0
1627,39.0,0.0,120.0,8.0,0.0
1628,58.0,0.0,120.0,6.0,0.0
1629,39.0,60.0,120.0,13.0,0.0
1630,55.0,0.0,60.0,3.0,0.0
1631,36.0,35.0,120.0,13.0,0.0
1632,57.0,60.0,60.0,3.0,0.0
1633,36.0,0.0,120.0,8.0,0.0
1634,63.0,0.0,60.0,6.0,0.0
1635,57.0,60.0,120.0,6.0,0.0
1636,51.0,0.0,60.0,3.0,0.0
1637,38.0,0.0,120.0,8.0,0.0
1638,50.0,25.0,30.0,3.0,0.0
1639,66.0,0.0,120.0,6.0,0.0
1640,38.0,60.0,120.0,13.0,0.0
1641,57.0,0.0,60.0,3.0,0.0
1642,62.0,0.0,120.0,6.0,0.0
1643,58.0,60.0,60.0,3.0,0.0
1644,67.0,30.0,360.0,6.0,0.0
1645,43.0,35.0,120.0,13.0,0.0
1646,43.0,0.0,120.0,8.0,0.0
1647,60.0,0.0,60.0,6.0,0.0
1648,51.0,0.0,60.0,3.0,0.0
1649,50.0,0.0,30.0,3.0,0.0
1650,59.0,85.0,30.0,6.0,0.0
1651,53.0,0.0,120.0,8.0,0.0
1652,53.0,0.0,120.0,13.0,0.0
1653,59.0,30.0,60.0,3.0,0.0
1654,62.0,0.0,60.0,6.0,0.0
1655,51.0,0.0,60.0,13.0,0.0
1656,51.0,0.0,60.0,8.0,0.0
1657,55.0,0.0,60.0,6.0,0.0
1658,60.0,30.0,30.0,3.0,0.0
1659,58.0,60.0,30.0,3.0,0.0
1660,48.0,0.0,60.0,8.0,0.0
1661,48.0,0.0,60.0,13.0,0.0
1662,56.0,5.0,90.0,3.0,0.0
1663,63.0,0.0,60.0,6.0,0.0
1664,72.0,60.0,180.0,6.0,0.0
1665,50.0,0.0,60.0,8.0,0.0
1666,62.0,25.0,30.0,6.0,0.0
1667,50.0,30.0,60.0,13.0,0.0
1668,55.0,0.0,30.0,3.0,0.0
1669,51.0,0.0,60.0,13.0,0.0
1670,51.0,0.0,60.0,8.0,0.0
1671,60.0,0.0,60.0,6.0,0.0
1672,54.0,30.0,30.0,3.0,0.0
1673,55.0,35.0,30.0,3.0,0.0
1674,50.0,0.0,60.0,13.0,0.0
1675,62.0,0.0,60.0,6.0,0.0
1676,54.0,25.0,30.0,3.0,0.0
1677,50.0,0.0,60.0,8.0,0.0
1678,48.0,0.0,60.0,13.0,0.0
1679,63.0,0.0,60.0,3.0,0.0
1680,57.0,0.0,60.0,6.0,0.0
1681,48.0,0.0,60.0,8.0,0.0
1682,66.0,60.0,60.0,6.0,0.0
1683,62.0,60.0,60.0,3.0,0.0
1684,58.0,0.0,60.0,6.0,0.0
1685,67.0,0.0,60.0,6.0,0.0
1686,46.0,0.0,60.0,8.0,0.0
1687,46.0,0.0,60.0,13.0,0.0
1688,45.0,60.0,60.0,8.0,0.0
1689,69.0,0.0,60.0,6.0,0.0
1690,60.0,0.0,60.0,3.0,0.0
1691,45.0,0.0,60.0,13.0,0.0
1692,60.0,0.0,60.0,6.0,0.0
1693,43.0,0.0,120.0,8.0,0.0
1694,62.0,0.0,60.0,6.0,0.0
1695,70.0,0.0,120.0,6.0,0.0
1696,43.0,0.0,120.0,13.0,0.0
1697,58.0,30.0,60.0,3.0,0.0
1698,57.0,30.0,30.0,3.0,0.0
1699,64.0,0.0,60.0,6.0,0.0
1700,62.0,0.0,15.0,2.0,0.0
1701,55.0,35.0,30.0,3.0,0.0
1702,41.0,0.0,120.0,13.0,0.0
1703,69.0,0.0,120.0,6.0,0.0
1704,65.0,0.0,120.0,6.0,0.0
1705,62.0,0.0,15.0,2.0,0.0
1706,62.0,0.0,240.0,3.0,0.0
1707,41.0,0.0,120.0,8.0,0.0
1708,62.0,60.0,60.0,2.0,0.0
1709,67.0,60.0,240.0,6.0,0.0
1710,64.0,0.0,240.0,6.0,0.0
1711,64.0,60.0,60.0,2.0,0.0
1712,43.0,0.0,120.0,8.0,0.0
1713,43.0,35.0,120.0,13.0,0.0
1714,58.0,0.0,60.0,2.0,0.0
1715,61.0,0.0,120.0,3.0,0.0
1716,57.0,85.0,30.0,2.0,0.0
1717,45.0,0.0,120.0,13.0,0.0
1718,45.0,0.0,120.0,8.0,0.0
1719,64.0,0.0,60.0,2.0,0.0
1720,62.0,0.0,120.0,3.0,0.0
1721,38.0,0.0,120.0,8.0,0.0
1722,62.0,0.0,300.0,6.0,0.0
1723,65.0,60.0,60.0,2.0,0.0
1724,65.0,0.0,60.0,6.0,0.0
1725,38.0,0.0,120.0,13.0,0.0
1726,67.0,35.0,60.0,6.0,0.0
1727,58.0,0.0,60.0,2.0,0.0
1728,69.0,0.0,120.0,6.0,0.0
1729,57.0,85.0,30.0,2.0,0.0
1730,50.0,0.0,120.0,13.0,0.0
1731,50.0,30.0,120.0,8.0,0.0
1732,66.0,0.0,60.0,2.0,0.0
1733,60.0,0.0,60.0,3.0,0.0
1734,70.0,60.0,300.0,6.0,0.0
1735,58.0,30.0,30.0,3.0,0.0
1736,43.0,0.0,60.0,8.0,0.0
1737,67.0,0.0,30.0,2.0,0.0
1738,43.0,0.0,60.0,13.0,0.0
1739,57.0,30.0,30.0,3.0,0.0
1740,65.0,0.0,30.0,2.0,0.0
1741,63.0,30.0,90.0,2.0,0.0
1742,58.0,0.0,30.0,3.0,0.0
1743,45.0,0.0,60.0,8.0,0.0
1744,45.0,30.0,60.0,13.0,0.0
1745,67.0,30.0,30.0,6.0,0.0
1746,57.0,0.0,30.0,3.0,0.0
1747,66.0,0.0,30.0,6.0,0.0
1748,46.0,0.0,60.0,8.0,0.0
1749,67.0,0.0,60.0,6.0,0.0
1750,55.0,0.0,240.0,3.0,0.0
1751,46.0,30.0,60.0,13.0,0.0
1752,62.0,0.0,30.0,2.0,0.0
1753,61.0,30.0,30.0,2.0,0.0
1754,43.0,35.0,60.0,8.0,0.0
1755,65.0,0.0,60.0,6.0,0.0
1756,43.0,0.0,60.0,13.0,0.0
1757,62.0,0.0,30.0,2.0,0.0
1758,64.0,0.0,120.0,6.0,0.0
1759,61.0,25.0,30.0,2.0,0.0
1760,45.0,0.0,120.0,13.0,0.0
1761,45.0,0.0,120.0,8.0,0.0
1762,70.0,0.0,60.0,2.0,0.0
1763,61.0,60.0,60.0,6.0,0.0
1764,53.0,0.0,60.0,3.0,0.0
1765,33.0,60.0,120.0,13.0,0.0
1766,62.0,0.0,60.0,6.0,0.0
1767,65.0,60.0,60.0,6.0,0.0
1768,69.0,0.0,60.0,2.0,0.0
1769,33.0,0.0,120.0,8.0,0.0
1770,52.0,0.0,60.0,3.0,0.0
1771,67.0,0.0,60.0,2.0,0.0
1772,61.0,0.0,60.0,6.0,0.0
1773,64.0,0.0,60.0,6.0,0.0
1774,38.0,0.0,180.0,8.0,0.0
1775,65.0,30.0,60.0,2.0,0.0
1776,38.0,0.0,180.0,13.0,0.0
1777,62.0,0.0,300.0,6.0,0.0
1778,65.0,0.0,300.0,6.0,0.0
1779,50.0,0.0,60.0,3.0,0.0
1780,52.0,60.0,60.0,3.0,0.0
1781,64.0,30.0,30.0,2.0,0.0
1782,62.0,0.0,30.0,2.0,0.0
1783,68.0,35.0,180.0,2.0,0.0
1784,53.0,30.0,60.0,3.0,0.0
1785,50.0,60.0,60.0,3.0,0.0
1786,39.0,0.0,30.0,8.0,0.0
1787,39.0,30.0,30.0,13.0,0.0
1788,41.0,0.0,30.0,8.0,0.0
1789,41.0,0.0,30.0,13.0,0.0
1790,59.0,30.0,180.0,3.0,0.0
1791,43.0,0.0,120.0,13.0,0.0
1792,43.0,60.0,120.0,8.0,0.0
1793,63.0,0.0,60.0,6.0,0.0
1794,59.0,0.0,60.0,6.0,0.0
1795,67.0,25.0,30.0,2.0,0.0
1796,55.0,60.0,180.0,6.0,0.0
1797,55.0,0.0,120.0,8.0,0.0
1798,67.0,0.0,60.0,2.0,0.0
1799,55.0,35.0,120.0,13.0,0.0
1800,63.0,0.0,60.0,6.0,0.0
1801,57.0,5.0,30.0,3.0,0.0
1802,62.0,0.0,60.0,6.0,0.0
1803,65.0,25.0,30.0,2.0,0.0
1804,59.0,0.0,30.0,3.0,0.0
1805,63.0,0.0,120.0,6.0,0.0
1806,60.0,25.0,30.0,3.0,0.0
1807,63.0,0.0,120.0,2.0,0.0
1808,48.0,0.0,180.0,13.0,0.0
1809,48.0,30.0,180.0,8.0,0.0
1810,55.0,60.0,60.0,3.0,0.0
1811,60.0,0.0,60.0,6.0,0.0
1812,69.0,0.0,180.0,6.0,0.0
1813,72.0,0.0,180.0,6.0,0.0
1814,63.0,35.0,180.0,3.0,0.0
1815,50.0,0.0,30.0,8.0,0.0
1816,50.0,30.0,30.0,13.0,0.0
1817,57.0,0.0,60.0,2.0,0.0
1818,51.0,60.0,30.0,8.0,0.0
1819,51.0,0.0,30.0,13.0,0.0
1820,45.0,0.0,120.0,13.0,0.0
1821,66.0,0.0,180.0,2.0,0.0
1822,45.0,0.0,120.0,8.0,0.0
1823,62.0,25.0,30.0,3.0,0.0
1824,66.0,60.0,60.0,6.0,0.0
1825,70.0,0.0,15.0,6.0,0.0
1826,50.0,0.0,120.0,13.0,0.0
1827,62.0,0.0,180.0,6.0,0.0
1828,50.0,0.0,120.0,8.0,0.0
1829,62.0,0.0,60.0,3.0,0.0
1830,60.0,25.0,30.0,3.0,0.0
1831,64.0,5.0,30.0,2.0,0.0
1832,69.0,0.0,60.0,6.0,0.0
1833,66.0,60.0,30.0,2.0,0.0
1834,43.0,0.0,120.0,13.0,0.0
1835,67.0,30.0,90.0,0.0,0.0
1836,58.0,0.0,120.0,3.0,0.0
1837,67.0,30.0,60.0,2.0,0.0
1838,70.0,0.0,240.0,6.0,0.0
1839,43.0,0.0,120.0,8.0,0.0
1840,58.0,0.0,60.0,6.0,0.0
1841,62.0,35.0,60.0,2.0,0.0
1842,67.0,0.0,30.0,0.0,0.0
1843,55.0,60.0,60.0,6.0,0.0
1844,67.0,25.0,30.0,0.0,0.0
1845,67.0,0.0,240.0,2.0,0.0
1846,58.0,0.0,60.0,13.0,0.0
1847,58.0,0.0,60.0,8.0,0.0
1848,67.0,0.0,60.0,0.0,0.0
1849,62.0,60.0,60.0,6.0,0.0
1850,58.0,0.0,60.0,3.0,0.0
1851,60.0,0.0,120.0,8.0,0.0
1852,69.0,0.0,60.0,0.0,0.0
1853,60.0,0.0,120.0,3.0,0.0
1854,69.0,0.0,240.0,6.0,0.0
1855,63.0,60.0,60.0,6.0,0.0
1856,60.0,0.0,120.0,13.0,0.0
1857,63.0,0.0,60.0,0.0,0.0
1858,60.0,35.0,60.0,6.0,0.0
1859,62.0,0.0,120.0,8.0,0.0
1860,57.0,60.0,60.0,6.0,0.0
1861,62.0,0.0,120.0,3.0,0.0
1862,62.0,25.0,30.0,0.0,0.0
1863,62.0,60.0,120.0,13.0,0.0
1864,66.0,0.0,120.0,2.0,0.0
1865,69.0,0.0,60.0,0.0,0.0
1866,62.0,0.0,120.0,6.0,0.0
1867,67.0,0.0,300.0,6.0,0.0
1868,67.0,0.0,120.0,2.0,0.0
1869,55.0,35.0,120.0,13.0,0.0
1870,70.0,60.0,60.0,0.0,0.0
1871,55.0,0.0,120.0,8.0,0.0
1872,55.0,0.0,15.0,3.0,0.0
1873,60.0,0.0,60.0,6.0,0.0
1874,63.0,0.0,60.0,0.0,0.0
1875,53.0,25.0,30.0,3.0,0.0
1876,62.0,0.0,30.0,0.0,0.0
1877,59.0,60.0,60.0,6.0,0.0
1878,55.0,0.0,60.0,3.0,0.0
1879,55.0,0.0,60.0,8.0,0.0
1880,65.0,0.0,60.0,2.0,0.0
1881,62.0,30.0,60.0,6.0,0.0
1882,71.0,0.0,60.0,0.0,0.0
1883,55.0,0.0,60.0,13.0,0.0
1884,48.0,0.0,60.0,3.0,0.0
1885,63.0,0.0,30.0,2.0,0.0
1886,48.0,0.0,60.0,8.0,0.0
1887,48.0,30.0,60.0,13.0,0.0
1888,72.0,30.0,30.0,0.0,0.0
1889,63.0,0.0,120.0,6.0,0.0
1890,62.0,0.0,30.0,2.0,0.0
1891,70.0,0.0,30.0,0.0,0.0
1892,65.0,0.0,60.0,6.0,0.0
1893,50.0,0.0,60.0,3.0,0.0
1894,63.0,30.0,30.0,2.0,0.0
1895,50.0,0.0,60.0,8.0,0.0
1896,68.0,30.0,90.0,0.0,0.0
1897,50.0,30.0,60.0,13.0,0.0
1898,62.0,0.0,30.0,2.0,0.0
1899,60.0,60.0,240.0,2.0,0.0
1900,51.0,0.0,60.0,8.0,0.0
1901,51.0,30.0,60.0,13.0,0.0
1902,51.0,0.0,60.0,3.0,0.0
1903,63.0,60.0,180.0,6.0,0.0
1904,67.0,0.0,30.0,0.0,0.0
1905,57.0,35.0,60.0,6.0,0.0
1906,48.0,0.0,60.0,8.0,0.0
1907,66.0,30.0,30.0,0.0,0.0
1908,48.0,0.0,60.0,13.0,0.0
1909,48.0,0.0,60.0,3.0,0.0
1910,67.0,0.0,30.0,0.0,0.0
1911,50.0,0.0,180.0,8.0,0.0
1912,50.0,0.0,180.0,3.0,0.0
1913,66.0,25.0,30.0,0.0,0.0
1914,50.0,0.0,180.0,13.0,0.0
1915,69.0,0.0,120.0,6.0,0.0
1916,66.0,0.0,60.0,6.0,0.0
1917,75.0,0.0,60.0,0.0,0.0
1918,74.0,30.0,60.0,0.0,0.0
1919,67.0,0.0,60.0,6.0,0.0
1920,58.0,0.0,60.0,2.0,0.0
1921,52.0,0.0,30.0,13.0,0.0
1922,57.0,0.0,60.0,2.0,0.0
1923,72.0,0.0,60.0,0.0,0.0
1924,52.0,0.0,30.0,3.0,0.0
1925,69.0,0.0,60.0,6.0,0.0
1926,62.0,60.0,60.0,6.0,0.0
1927,52.0,30.0,30.0,8.0,0.0
1928,54.0,0.0,30.0,3.0,0.0
1929,54.0,0.0,30.0,8.0,0.0
1930,54.0,0.0,30.0,13.0,0.0
1931,70.0,0.0,60.0,0.0,0.0
1932,55.0,0.0,60.0,8.0,0.0
1933,55.0,30.0,60.0,3.0,0.0
1934,62.0,30.0,90.0,1.0,0.0
1935,67.0,0.0,60.0,6.0,0.0
1936,55.0,0.0,60.0,2.0,0.0
1937,55.0,0.0,60.0,13.0,0.0
1938,70.0,0.0,60.0,6.0,0.0
1939,69.0,0.0,30.0,0.0,0.0
1940,57.0,0.0,60.0,8.0,0.0
1941,57.0,35.0,60.0,13.0,0.0
1942,62.0,0.0,60.0,2.0,0.0
1943,57.0,0.0,60.0,3.0,0.0
1944,69.0,0.0,60.0,6.0,0.0
1945,65.0,0.0,60.0,6.0,0.0
1946,67.0,0.0,30.0,0.0,0.0
1947,67.0,0.0,60.0,6.0,0.0
1948,58.0,0.0,60.0,3.0,0.0
1949,64.0,0.0,60.0,6.0,0.0
1950,74.0,0.0,240.0,0.0,0.0
1951,67.0,60.0,60.0,2.0,0.0
1952,62.0,0.0,15.0,1.0,0.0
1953,58.0,0.0,60.0,8.0,0.0
1954,58.0,0.0,60.0,13.0,0.0
1955,62.0,0.0,60.0,1.0,0.0
1956,57.0,0.0,60.0,13.0,0.0
1957,69.0,30.0,60.0,6.0,0.0
1958,65.0,0.0,60.0,2.0,0.0
1959,57.0,0.0,60.0,3.0,0.0
1960,57.0,0.0,60.0,8.0,0.0
1961,65.0,0.0,60.0,6.0,0.0
1962,64.0,0.0,60.0,1.0,0.0
1963,55.0,30.0,60.0,8.0,0.0
1964,67.0,30.0,30.0,6.0,0.0
1965,70.0,0.0,30.0,6.0,0.0
1966,55.0,0.0,60.0,13.0,0.0
1967,55.0,0.0,60.0,3.0,0.0
1968,64.0,0.0,240.0,2.0,0.0
1969,69.0,0.0,30.0,6.0,0.0
1970,58.0,0.0,60.0,1.0,0.0
1971,70.0,0.0,60.0,6.0,0.0
1972,67.0,0.0,120.0,6.0,0.0
1973,53.0,0.0,30.0,13.0,0.0
1974,53.0,0.0,30.0,3.0,0.0
1975,53.0,30.0,30.0,8.0,0.0
1976,55.0,35.0,30.0,3.0,0.0
1977,55.0,0.0,30.0,13.0,0.0
1978,55.0,0.0,30.0,8.0,0.0
1979,73.0,0.0,120.0,0.0,0.0
1980,57.0,0.0,30.0,1.0,0.0
1981,57.0,0.0,120.0,13.0,0.0
1982,57.0,0.0,120.0,8.0,0.0
1983,57.0,25.0,30.0,3.0,0.0
1984,64.0,30.0,60.0,6.0,0.0
1985,61.0,0.0,60.0,6.0,0.0
1986,57.0,0.0,60.0,3.0,0.0
1987,69.0,30.0,30.0,6.0,0.0
1988,64.0,0.0,60.0,1.0,0.0
1989,67.0,60.0,30.0,6.0,0.0
1990,50.0,0.0,60.0,8.0,0.0
1991,62.0,0.0,120.0,2.0,0.0
1992,65.0,60.0,60.0,1.0,0.0
1993,65.0,0.0,60.0,6.0,0.0
1994,50.0,0.0,60.0,3.0,0.0
1995,57.0,0.0,120.0,6.0,0.0
1996,74.0,0.0,120.0,0.0,0.0
1997,50.0,0.0,60.0,13.0,0.0
1998,67.0,0.0,60.0,6.0,0.0
1999,52.0,0.0,60.0,8.0,0.0
2000,58.0,0.0,60.0,1.0,0.0
2001,52.0,35.0,60.0,3.0,0.0
2002,52.0,0.0,60.0,13.0,0.0
2003,54.0,30.0,60.0,13.0,0.0
2004,54.0,25.0,30.0,3.0,0.0
2005,69.0,0.0,60.0,6.0,0.0
2006,57.0,0.0,30.0,1.0,0.0
2007,54.0,0.0,60.0,8.0,0.0
2008,62.0,30.0,120.0,6.0,0.0
2009,50.0,0.0,60.0,8.0,0.0
2010,66.0,0.0,60.0,1.0,0.0
2011,50.0,0.0,60.0,13.0,0.0
2012,72.0,0.0,60.0,0.0,0.0
2013,62.0,0.0,120.0,2.0,0.0
2014,67.0,30.0,30.0,6.0,0.0
2015,50.0,0.0,60.0,3.0,0.0
2016,69.0,30.0,30.0,6.0,0.0
2017,67.0,30.0,30.0,1.0,0.0
2018,70.0,0.0,60.0,6.0,0.0
2019,55.0,0.0,180.0,13.0,0.0
2020,55.0,0.0,180.0,3.0,0.0
2021,55.0,30.0,180.0,8.0,0.0
2022,70.0,0.0,60.0,0.0,0.0
2023,65.0,0.0,30.0,1.0,0.0
2024,63.0,0.0,30.0,6.0,0.0
2025,63.0,30.0,90.0,1.0,0.0
2026,69.0,30.0,60.0,0.0,0.0
2027,72.0,30.0,30.0,6.0,0.0
2028,60.0,0.0,60.0,2.0,0.0
2029,74.0,0.0,30.0,6.0,0.0
2030,65.0,0.0,30.0,6.0,0.0
2031,67.0,0.0,60.0,6.0,0.0
2032,58.0,0.0,60.0,2.0,0.0
2033,75.0,0.0,60.0,6.0,0.0
2034,67.0,60.0,240.0,0.0,0.0
2035,62.0,0.0,30.0,1.0,0.0
2036,61.0,30.0,30.0,1.0,0.0
2037,53.0,0.0,60.0,13.0,0.0
2038,57.0,0.0,30.0,2.0,0.0
2039,77.0,0.0,60.0,6.0,0.0
2040,69.0,0.0,60.0,6.0,0.0
2041,53.0,0.0,60.0,3.0,0.0
2042,53.0,0.0,60.0,8.0,0.0
2043,58.0,0.0,30.0,2.0,0.0
2044,62.0,35.0,30.0,1.0,0.0
2045,79.0,0.0,120.0,6.0,0.0
2046,70.0,60.0,60.0,6.0,0.0
2047,55.0,25.0,30.0,2.0,0.0
2048,52.0,0.0,120.0,3.0,0.0
2049,52.0,0.0,120.0,13.0,0.0
2050,52.0,0.0,120.0,8.0,0.0
2051,61.0,0.0,30.0,1.0,0.0
2052,70.0,0.0,60.0,1.0,0.0
2053,52.0,0.0,60.0,2.0,0.0
2054,67.0,0.0,60.0,6.0,0.0
2055,45.0,0.0,120.0,13.0,0.0
2056,45.0,60.0,120.0,8.0,0.0
2057,61.0,0.0,120.0,2.0,0.0
2058,65.0,0.0,60.0,0.0,0.0
2059,69.0,0.0,60.0,1.0,0.0
2060,67.0,0.0,60.0,1.0,0.0
2061,61.0,0.0,15.0,6.0,0.0
2062,64.0,0.0,60.0,6.0,0.0
2063,45.0,60.0,15.0,3.0,0.0
2064,64.0,0.0,60.0,0.0,0.0
2065,65.0,0.0,180.0,6.0,0.0
2066,57.0,0.0,60.0,6.0,0.0
2067,62.0,30.0,60.0,0.0,0.0
2068,50.0,0.0,180.0,8.0,0.0
2069,50.0,30.0,180.0,3.0,0.0
2070,65.0,0.0,60.0,1.0,0.0
2071,50.0,0.0,180.0,13.0,0.0
2072,62.0,0.0,120.0,2.0,0.0
2073,58.0,0.0,30.0,6.0,0.0
2074,64.0,30.0,30.0,1.0,0.0
2075,64.0,0.0,60.0,0.0,0.0
2076,60.0,0.0,30.0,6.0,0.0
2077,62.0,60.0,30.0,1.0,0.0
2078,68.0,0.0,180.0,1.0,0.0
2079,65.0,0.0,60.0,0.0,0.0
2080,62.0,15.0,180.0,6.0,0.0
2081,51.0,0.0,30.0,13.0,0.0
2082,67.0,30.0,30.0,6.0,0.0
2083,51.0,0.0,30.0,8.0,0.0
2084,51.0,0.0,30.0,3.0,0.0
2085,62.0,0.0,60.0,0.0,0.0
2086,53.0,0.0,30.0,3.0,0.0
2087,53.0,15.0,30.0,8.0,0.0
2088,53.0,0.0,30.0,13.0,0.0
2089,68.0,0.0,30.0,6.0,0.0
2090,55.0,0.0,60.0,3.0,0.0
2091,55.0,0.0,60.0,13.0,0.0
2092,59.0,15.0,30.0,6.0,0.0
2093,71.0,15.0,15.0,0.0,0.0
2094,55.0,0.0,60.0,8.0,0.0
2095,72.0,0.0,15.0,0.0,0.0
2096,71.0,15.0,15.0,0.0,0.0
2097,60.0,0.0,30.0,6.0,0.0
2098,72.0,0.0,15.0,0.0,0.0
2099,67.0,10.0,30.0,1.0,0.0
2100,53.0,0.0,30.0,8.0,0.0
2101,55.0,0.0,60.0,2.0,0.0
2102,71.0,15.0,15.0,0.0,0.0
2103,53.0,5.0,30.0,3.0,0.0
2104,55.0,15.0,60.0,6.0,0.0
2105,62.0,0.0,120.0,6.0,0.0
2106,53.0,0.0,30.0,13.0,0.0
2107,72.0,0.0,15.0,0.0,0.0
2108,51.0,0.0,30.0,8.0,0.0
2109,71.0,15.0,15.0,0.0,0.0
2110,51.0,0.0,30.0,13.0,0.0
2111,51.0,0.0,30.0,3.0,0.0
2112,72.0,0.0,15.0,0.0,0.0
2113,71.0,15.0,15.0,0.0,0.0
2114,67.0,0.0,60.0,1.0,0.0
2115,53.0,11.0,60.0,8.0,0.0
2116,62.0,0.0,60.0,2.0,0.0
2117,53.0,0.0,60.0,3.0,0.0
2118,67.0,0.0,180.0,6.0,0.0
2119,53.0,0.0,60.0,13.0,0.0
2120,72.0,15.0,15.0,0.0,0.0
2121,71.0,15.0,15.0,0.0,0.0
2122,72.0,0.0,15.0,0.0,0.0
2123,55.0,0.0,60.0,8.0,0.0
2124,71.0,13.0,15.0,0.0,0.0
2125,60.0,5.0,30.0,2.0,0.0
2126,55.0,0.0,60.0,3.0,0.0
2127,63.0,0.0,30.0,6.0,0.0
2128,55.0,0.0,60.0,13.0,0.0
2129,65.0,13.0,30.0,1.0,0.0
2130,72.0,6.0,15.0,0.0,0.0
2131,71.0,0.0,15.0,0.0,0.0
2132,62.0,30.0,30.0,2.0,0.0
2133,62.0,0.0,30.0,6.0,0.0
2134,69.0,12.0,15.0,0.0,0.0
2135,71.0,0.0,15.0,0.0,0.0
2136,72.0,0.0,120.0,0.0,0.0
2137,60.0,30.0,30.0,6.0,0.0
2138,48.0,0.0,180.0,8.0,0.0
2139,63.0,0.0,60.0,1.0,0.0
2140,48.0,0.0,180.0,13.0,0.0
2141,48.0,0.0,180.0,3.0,0.0
2142,63.0,30.0,60.0,2.0,0.0
2143,59.0,0.0,30.0,6.0,0.0
2144,60.0,0.0,30.0,6.0,0.0
2145,65.0,0.0,60.0,1.0,0.0
2146,69.0,30.0,30.0,6.0,0.0
2147,70.0,60.0,30.0,6.0,0.0
2148,62.0,0.0,30.0,6.0,0.0
2149,72.0,0.0,180.0,6.0,0.0
2150,63.0,30.0,60.0,6.0,0.0
2151,67.0,0.0,180.0,1.0,0.0
2152,50.0,0.0,30.0,3.0,0.0
2153,50.0,0.0,30.0,8.0,0.0
2154,50.0,30.0,30.0,13.0,0.0
2155,60.0,0.0,60.0,0.0,0.0
2156,65.0,0.0,30.0,6.0,0.0
2157,51.0,0.0,30.0,8.0,0.0
2158,51.0,0.0,30.0,3.0,0.0
2159,67.0,0.0,30.0,6.0,0.0
2160,51.0,30.0,30.0,13.0,0.0
2161,53.0,0.0,60.0,8.0,0.0
2162,53.0,30.0,60.0,3.0,0.0
2163,57.0,30.0,30.0,6.0,0.0
2164,53.0,0.0,60.0,13.0,0.0
2165,69.0,30.0,180.0,0.0,0.0
2166,58.0,0.0,30.0,6.0,0.0
2167,65.0,25.0,30.0,1.0,0.0
2168,51.0,0.0,30.0,8.0,0.0
2169,65.0,0.0,60.0,6.0,0.0
2170,51.0,0.0,30.0,3.0,0.0
2171,60.0,0.0,120.0,6.0,0.0
2172,53.0,0.0,60.0,2.0,0.0
2173,51.0,5.0,30.0,13.0,0.0
2174,50.0,60.0,30.0,3.0,0.0
2175,50.0,0.0,30.0,13.0,0.0
2176,50.0,0.0,30.0,8.0,0.0
2177,51.0,0.0,60.0,8.0,0.0
2178,60.0,0.0,60.0,2.0,0.0
2179,77.0,30.0,150.0,6.0,0.0
2180,51.0,0.0,60.0,3.0,0.0
2181,51.0,0.0,60.0,13.0,0.0
2182,65.0,0.0,60.0,1.0,0.0
2183,67.0,5.0,30.0,0.0,0.0
2184,53.0,0.0,60.0,3.0,0.0
2185,63.0,25.0,30.0,1.0,0.0
2186,53.0,0.0,60.0,8.0,0.0
2187,53.0,30.0,60.0,13.0,0.0
2188,62.0,0.0,30.0,6.0,0.0
2189,58.0,0.0,30.0,2.0,0.0
2190,60.0,0.0,30.0,2.0,0.0
2191,60.0,0.0,30.0,6.0,0.0
2192,69.0,0.0,30.0,0.0,0.0
2193,46.0,0.0,60.0,8.0,0.0
2194,58.0,0.0,60.0,6.0,0.0
2195,46.0,30.0,60.0,13.0,0.0
2196,62.0,0.0,120.0,2.0,0.0
2197,70.0,0.0,60.0,0.0,0.0
2198,46.0,0.0,60.0,3.0,0.0
2199,75.0,0.0,30.0,6.0,0.0
2200,62.0,0.0,15.0,1.0,0.0
2201,62.0,35.0,60.0,6.0,0.0
2202,74.0,30.0,30.0,6.0,0.0
2203,58.0,0.0,120.0,3.0,0.0
2204,58.0,0.0,120.0,13.0,0.0
2205,58.0,60.0,120.0,8.0,0.0
2206,65.0,0.0,60.0,0.0,0.0
2207,62.0,0.0,15.0,1.0,0.0
2208,72.0,0.0,30.0,6.0,0.0
2209,67.0,0.0,60.0,6.0,0.0
2210,62.0,0.0,15.0,1.0,0.0
2211,74.0,0.0,240.0,0.0,0.0
2212,70.0,0.0,180.0,6.0,0.0
2213,65.0,0.0,60.0,2.0,0.0
2214,57.0,60.0,60.0,8.0,0.0
2215,65.0,0.0,60.0,6.0,0.0
2216,62.0,0.0,60.0,1.0,0.0
2217,57.0,0.0,60.0,3.0,0.0
2218,57.0,0.0,60.0,13.0,0.0
2219,63.0,30.0,60.0,1.0,0.0
2220,55.0,0.0,120.0,13.0,0.0
2221,63.0,0.0,180.0,6.0,0.0
2222,67.0,0.0,240.0,2.0,0.0
2223,55.0,0.0,120.0,8.0,0.0
2224,69.0,30.0,30.0,6.0,0.0
2225,55.0,0.0,15.0,3.0,0.0
2226,58.0,0.0,60.0,1.0,0.0
2227,70.0,0.0,30.0,6.0,0.0
2228,57.0,0.0,30.0,1.0,0.0
2229,57.0,30.0,60.0,13.0,0.0
2230,72.0,30.0,150.0,6.0,0.0
2231,57.0,0.0,60.0,8.0,0.0
2232,72.0,0.0,60.0,0.0,0.0
2233,57.0,25.0,30.0,3.0,0.0
2234,64.0,30.0,60.0,1.0,0.0
2235,70.0,0.0,60.0,0.0,0.0
2236,62.0,0.0,30.0,6.0,0.0
2237,58.0,0.0,30.0,3.0,0.0
2238,58.0,0.0,30.0,13.0,0.0
2239,58.0,30.0,30.0,8.0,0.0
2240,60.0,0.0,30.0,3.0,0.0
2241,60.0,0.0,30.0,13.0,0.0
2242,60.0,0.0,30.0,8.0,0.0
2243,60.0,0.0,30.0,6.0,0.0
2244,62.0,0.0,120.0,8.0,0.0
2245,65.0,0.0,60.0,6.0,0.0
2246,62.0,0.0,120.0,13.0,0.0
2247,65.0,0.0,60.0,2.0,0.0
2248,62.0,0.0,120.0,3.0,0.0
2249,69.0,0.0,60.0,0.0,0.0
2250,65.0,30.0,60.0,1.0,0.0
2251,70.0,0.0,30.0,6.0,0.0
2252,67.0,0.0,60.0,2.0,0.0
2253,69.0,30.0,30.0,6.0,0.0
2254,63.0,0.0,60.0,6.0,0.0
2255,58.0,35.0,60.0,1.0,0.0
2256,70.0,0.0,60.0,0.0,0.0
2257,67.0,0.0,30.0,6.0,0.0
2258,50.0,60.0,120.0,13.0,0.0
2259,69.0,0.0,60.0,2.0,0.0
2260,50.0,0.0,120.0,3.0,0.0
2261,50.0,0.0,120.0,8.0,0.0
2262,72.0,30.0,180.0,0.0,0.0
2263,57.0,25.0,30.0,1.0,0.0
2264,66.0,30.0,60.0,6.0,0.0
2265,66.0,0.0,60.0,1.0,0.0
2266,67.0,30.0,30.0,2.0,0.0
2267,62.0,0.0,60.0,6.0,0.0
2268,69.0,0.0,30.0,2.0,0.0
2269,55.0,0.0,120.0,3.0,0.0
2270,62.0,0.0,180.0,2.0,0.0
2271,43.0,0.0,90.0,8.0,0.0
2272,74.0,0.0,90.0,6.0,0.0
2273,43.0,0.0,90.0,7.0,0.0
2274,43.0,0.0,90.0,13.0,0.0
2275,67.0,0.0,60.0,1.0,0.0
2276,62.0,0.0,60.0,1.0,0.0
2277,70.0,30.0,30.0,0.0,0.0
2278,64.0,0.0,30.0,6.0,0.0
2279,66.0,0.0,30.0,6.0,0.0
2280,72.0,0.0,30.0,6.0,0.0
2281,69.0,35.0,30.0,0.0,0.0
2282,43.0,0.0,15.0,4.0,0.0
2283,55.0,0.0,15.0,12.0,0.0
2284,43.0,0.0,30.0,8.0,0.0
2285,43.0,0.0,30.0,7.0,0.0
2286,70.0,0.0,60.0,6.0,0.0
2287,70.0,0.0,60.0,0.0,0.0
2288,55.0,0.0,15.0,12.0,0.0
2289,43.0,0.0,30.0,7.0,0.0
2290,43.0,0.0,15.0,13.0,0.0
2291,67.0,30.0,60.0,6.0,0.0
2292,43.0,0.0,15.0,4.0,0.0
2293,43.0,0.0,30.0,8.0,0.0
2294,43.0,0.0,60.0,4.0,0.0
2295,43.0,0.0,60.0,8.0,0.0
2296,67.0,0.0,15.0,1.0,0.0
2297,60.0,0.0,30.0,2.0,0.0
2298,43.0,0.0,60.0,7.0,0.0
2299,55.0,0.0,60.0,3.0,0.0
2300,43.0,30.0,60.0,13.0,0.0
2301,69.0,0.0,30.0,6.0,0.0
2302,55.0,0.0,60.0,12.0,0.0
2303,72.0,0.0,30.0,0.0,0.0
2304,67.0,0.0,30.0,6.0,0.0
2305,58.0,0.0,30.0,2.0,0.0
2306,74.0,0.0,30.0,0.0,0.0
2307,70.0,0.0,30.0,6.0,0.0
2308,67.0,0.0,120.0,1.0,0.0
2309,69.0,0.0,30.0,6.0,0.0
2310,72.0,30.0,30.0,6.0,0.0
2311,45.0,0.0,60.0,8.0,0.0
2312,45.0,0.0,60.0,4.0,0.0
2313,45.0,0.0,60.0,13.0,0.0
2314,60.0,0.0,180.0,2.0,0.0
2315,57.0,0.0,60.0,12.0,0.0
2316,63.0,0.0,180.0,3.0,0.0
2317,45.0,0.0,60.0,7.0,0.0
2318,72.0,30.0,180.0,0.0,0.0
2319,70.0,0.0,30.0,6.0,0.0
2320,67.0,30.0,30.0,6.0,0.0
2321,39.0,30.0,60.0,13.0,0.0
2322,39.0,0.0,60.0,7.0,0.0
2323,39.0,0.0,60.0,8.0,0.0
2324,39.0,0.0,60.0,4.0,0.0
2325,69.0,0.0,30.0,6.0,0.0
2326,66.0,30.0,30.0,6.0,0.0
2327,51.0,0.0,60.0,12.0,0.0
2328,67.0,0.0,30.0,6.0,0.0
2329,70.0,0.0,30.0,6.0,0.0
2330,50.0,25.0,30.0,12.0,0.0
2331,38.0,0.0,30.0,13.0,0.0
2332,38.0,0.0,30.0,7.0,0.0
2333,38.0,0.0,30.0,8.0,0.0
2334,38.0,0.0,30.0,4.0,0.0
2335,72.0,5.0,30.0,6.0,0.0
2336,66.0,0.0,120.0,1.0,0.0
2337,69.0,0.0,30.0,6.0,0.0
2338,45.0,0.0,60.0,4.0,0.0
2339,62.0,0.0,30.0,3.0,0.0
2340,45.0,60.0,60.0,7.0,0.0
2341,45.0,0.0,60.0,13.0,0.0
2342,74.0,0.0,30.0,0.0,0.0
2343,58.0,0.0,30.0,2.0,0.0
2344,45.0,0.0,60.0,8.0,0.0
2345,67.0,0.0,30.0,6.0,0.0
2346,70.0,30.0,30.0,6.0,0.0
2347,57.0,0.0,60.0,12.0,0.0
2348,57.0,0.0,30.0,2.0,0.0
2349,75.0,0.0,30.0,0.0,0.0
2350,60.0,0.0,30.0,3.0,0.0
2351,66.0,0.0,30.0,6.0,0.0
2352,72.0,0.0,30.0,6.0,0.0
2353,46.0,0.0,60.0,7.0,0.0
2354,58.0,0.0,60.0,12.0,0.0
2355,74.0,0.0,60.0,6.0,0.0
2356,62.0,0.0,60.0,2.0,0.0
2357,46.0,0.0,60.0,13.0,0.0
2358,46.0,30.0,60.0,4.0,0.0
2359,46.0,0.0,60.0,8.0,0.0
2360,58.0,0.0,60.0,3.0,0.0
2361,74.0,0.0,60.0,0.0,0.0
2362,63.0,0.0,60.0,2.0,0.0
2363,72.0,0.0,60.0,0.0,0.0
2364,39.0,0.0,60.0,4.0,0.0
2365,51.0,0.0,60.0,12.0,0.0
2366,67.0,30.0,30.0,6.0,0.0
2367,39.0,0.0,60.0,7.0,0.0
2368,39.0,0.0,60.0,13.0,0.0
2369,39.0,35.0,60.0,8.0,0.0
2370,60.0,0.0,60.0,3.0,0.0
2371,69.0,0.0,30.0,6.0,0.0
2372,62.0,0.0,30.0,3.0,0.0
2373,65.0,25.0,30.0,2.0,0.0
2374,38.0,0.0,30.0,4.0,0.0
2375,71.0,0.0,60.0,0.0,0.0
2376,71.0,0.0,60.0,6.0,0.0
2377,38.0,0.0,30.0,7.0,0.0
2378,38.0,0.0,30.0,13.0,0.0
2379,50.0,0.0,30.0,12.0,0.0
2380,38.0,0.0,30.0,8.0,0.0
2381,67.0,30.0,15.0,1.0,0.0
2382,72.0,0.0,30.0,0.0,0.0
2383,72.0,0.0,30.0,6.0,0.0
2384,47.0,0.0,60.0,13.0,0.0
2385,47.0,0.0,60.0,8.0,0.0
2386,63.0,30.0,30.0,2.0,0.0
2387,47.0,0.0,60.0,7.0,0.0
2388,59.0,0.0,60.0,12.0,0.0
2389,59.0,30.0,60.0,3.0,0.0
2390,47.0,0.0,60.0,4.0,0.0
2391,62.0,0.0,30.0,2.0,0.0
2392,74.0,0.0,30.0,6.0,0.0
2393,74.0,0.0,30.0,0.0,0.0
2394,48.0,0.0,30.0,4.0,0.0
2395,75.0,0.0,60.0,6.0,0.0
2396,48.0,0.0,30.0,7.0,0.0
2397,48.0,0.0,30.0,8.0,0.0
2398,60.0,30.0,30.0,12.0,0.0
2399,48.0,0.0,30.0,13.0,0.0
2400,60.0,30.0,180.0,2.0,0.0
2401,55.0,0.0,60.0,3.0,0.0
2402,75.0,0.0,60.0,0.0,0.0
2403,58.0,0.0,30.0,12.0,0.0
2404,46.0,0.0,30.0,4.0,0.0
2405,46.0,0.0,30.0,13.0,0.0
2406,46.0,0.0,30.0,8.0,0.0
2407,46.0,0.0,30.0,7.0,0.0
2408,56.0,0.0,90.0,12.0,0.0
2409,56.0,30.0,30.0,3.0,0.0
2410,74.0,0.0,60.0,0.0,0.0
2411,44.0,30.0,90.0,8.0,0.0
2412,65.0,0.0,60.0,1.0,0.0
2413,44.0,0.0,90.0,13.0,0.0
2414,44.0,0.0,90.0,7.0,0.0
2415,74.0,0.0,60.0,6.0,0.0
2416,65.0,30.0,60.0,6.0,0.0
2417,44.0,0.0,90.0,4.0,0.0
2418,58.0,0.0,30.0,3.0,0.0
2419,63.0,0.0,60.0,1.0,0.0
2420,63.0,0.0,60.0,6.0,0.0
2421,72.0,0.0,60.0,6.0,0.0
2422,72.0,0.0,60.0,0.0,0.0
2423,60.0,0.0,60.0,3.0,0.0
2424,55.0,0.0,30.0,12.0,0.0
2425,43.0,0.0,30.0,13.0,0.0
2426,43.0,0.0,30.0,4.0,0.0
2427,43.0,0.0,30.0,7.0,0.0
2428,43.0,0.0,30.0,8.0,0.0
2429,42.0,0.0,30.0,8.0,0.0
2430,55.0,0.0,60.0,3.0,0.0
2431,42.0,0.0,30.0,7.0,0.0
2432,70.0,0.0,60.0,0.0,0.0
2433,42.0,30.0,30.0,13.0,0.0
2434,54.0,0.0,30.0,12.0,0.0
2435,62.0,0.0,60.0,1.0,0.0
2436,62.0,0.0,60.0,6.0,0.0
2437,42.0,0.0,30.0,4.0,0.0
2438,70.0,0.0,60.0,6.0,0.0
2439,62.0,0.0,60.0,2.0,0.0
2440,55.0,0.0,30.0,12.0,0.0
2441,43.0,0.0,30.0,8.0,0.0
2442,43.0,35.0,30.0,7.0,0.0
2443,43.0,0.0,30.0,4.0,0.0
2444,43.0,0.0,30.0,13.0,0.0
2445,42.0,25.0,30.0,8.0,0.0
2446,42.0,0.0,30.0,13.0,0.0
2447,57.0,0.0,180.0,3.0,0.0
2448,54.0,0.0,30.0,12.0,0.0
2449,69.0,0.0,60.0,0.0,0.0
2450,60.0,0.0,60.0,6.0,0.0
2451,69.0,0.0,60.0,6.0,0.0
2452,42.0,0.0,30.0,4.0,0.0
2453,42.0,0.0,30.0,7.0,0.0
2454,60.0,30.0,60.0,1.0,0.0
2455,63.0,0.0,60.0,2.0,0.0
2456,63.0,0.0,60.0,12.0,0.0
2457,51.0,0.0,60.0,4.0,0.0
2458,67.0,0.0,60.0,6.0,0.0
2459,62.0,0.0,30.0,2.0,0.0
2460,67.0,60.0,60.0,0.0,0.0
2461,58.0,30.0,30.0,6.0,0.0
2462,51.0,0.0,60.0,7.0,0.0
2463,51.0,0.0,60.0,13.0,0.0
2464,58.0,0.0,30.0,1.0,0.0
2465,51.0,0.0,60.0,8.0,0.0
2466,60.0,0.0,30.0,6.0,0.0
2467,60.0,0.0,30.0,1.0,0.0
2468,60.0,0.0,30.0,2.0,0.0
2469,66.0,0.0,60.0,6.0,0.0
2470,50.0,0.0,60.0,7.0,0.0
2471,62.0,0.0,120.0,1.0,0.0
2472,50.0,0.0,60.0,8.0,0.0
2473,50.0,0.0,60.0,13.0,0.0
2474,62.0,0.0,60.0,12.0,0.0
2475,69.0,0.0,120.0,2.0,0.0
2476,50.0,0.0,60.0,4.0,0.0
2477,66.0,30.0,60.0,0.0,0.0
2478,58.0,0.0,30.0,3.0,0.0
2479,60.0,0.0,60.0,12.0,0.0
2480,48.0,0.0,60.0,8.0,0.0
2481,67.0,30.0,30.0,6.0,0.0
2482,48.0,0.0,60.0,13.0,0.0
2483,48.0,0.0,60.0,7.0,0.0
2484,67.0,0.0,30.0,0.0,0.0
2485,48.0,30.0,60.0,4.0,0.0
2486,60.0,0.0,30.0,3.0,0.0
2487,69.0,0.0,30.0,0.0,0.0
2488,69.0,0.0,30.0,6.0,0.0
2489,58.0,0.0,60.0,12.0,0.0
2490,70.0,30.0,30.0,6.0,0.0
2491,46.0,0.0,60.0,4.0,0.0
2492,62.0,30.0,120.0,2.0,0.0
2493,46.0,30.0,60.0,7.0,0.0
2494,62.0,0.0,60.0,3.0,0.0
2495,55.0,0.0,60.0,1.0,0.0
2496,46.0,0.0,60.0,8.0,0.0
2497,46.0,0.0,60.0,13.0,0.0
2498,70.0,30.0,180.0,0.0,0.0
2499,67.0,0.0,30.0,6.0,0.0
2500,66.0,0.0,30.0,6.0,0.0
2501,62.0,0.0,15.0,6.0,0.0
2502,58.0,0.0,60.0,3.0,0.0
2503,57.0,0.0,30.0,12.0,0.0
2504,45.0,30.0,30.0,7.0,0.0
2505,45.0,0.0,30.0,4.0,0.0
2506,45.0,0.0,30.0,8.0,0.0
2507,45.0,0.0,30.0,13.0,0.0
2508,55.0,0.0,30.0,12.0,0.0
2509,62.0,0.0,15.0,5.0,0.0
2510,43.0,0.0,30.0,7.0,0.0
2511,62.0,0.0,15.0,1.0,0.0
2512,67.0,0.0,30.0,6.0,0.0
2513,62.0,0.0,15.0,11.0,0.0
2514,43.0,0.0,30.0,13.0,0.0
2515,43.0,0.0,30.0,8.0,0.0
2516,62.0,0.0,30.0,6.0,0.0
2517,43.0,0.0,30.0,4.0,0.0
2518,70.0,5.0,30.0,6.0,0.0
2519,62.0,0.0,60.0,6.0,0.0
2520,50.0,0.0,240.0,13.0,0.0
2521,62.0,0.0,30.0,5.0,0.0
2522,62.0,25.0,30.0,1.0,0.0
2523,62.0,0.0,30.0,12.0,0.0
2524,62.0,0.0,15.0,11.0,0.0
2525,50.0,0.0,240.0,7.0,0.0
2526,50.0,0.0,240.0,4.0,0.0
2527,50.0,0.0,240.0,8.0,0.0
2528,67.0,0.0,30.0,6.0,0.0
2529,62.0,0.0,60.0,1.0,0.0
2530,57.0,0.0,60.0,12.0,0.0
2531,57.0,0.0,60.0,3.0,0.0
2532,65.0,0.0,30.0,6.0,0.0
2533,65.0,0.0,60.0,2.0,0.0
2534,62.0,0.0,60.0,6.0,0.0
2535,69.0,30.0,30.0,0.0,0.0
2536,62.0,30.0,60.0,5.0,0.0
2537,62.0,0.0,60.0,11.0,0.0
2538,70.0,0.0,30.0,0.0,0.0
2539,67.0,0.0,30.0,6.0,0.0
2540,58.0,30.0,60.0,3.0,0.0
2541,70.0,30.0,30.0,6.0,0.0
2542,64.0,0.0,60.0,6.0,0.0
2543,64.0,0.0,60.0,11.0,0.0
2544,64.0,0.0,60.0,1.0,0.0
2545,58.0,0.0,60.0,12.0,0.0
2546,64.0,0.0,60.0,2.0,0.0
2547,67.0,0.0,60.0,0.0,0.0
2548,64.0,0.0,60.0,5.0,0.0
2549,67.0,0.0,30.0,6.0,0.0
2550,58.0,0.0,60.0,11.0,0.0
2551,65.0,30.0,30.0,6.0,0.0
2552,65.0,0.0,30.0,0.0,0.0
2553,55.0,0.0,60.0,12.0,0.0
2554,62.0,0.0,60.0,2.0,0.0
2555,58.0,35.0,60.0,6.0,0.0
2556,58.0,0.0,60.0,1.0,0.0
2557,55.0,0.0,60.0,3.0,0.0
2558,67.0,0.0,30.0,0.0,0.0
2559,67.0,0.0,30.0,6.0,0.0
2560,49.0,0.0,120.0,8.0,0.0
2561,49.0,0.0,120.0,13.0,0.0
2562,49.0,0.0,120.0,4.0,0.0
2563,69.0,0.0,120.0,0.0,0.0
2564,52.0,0.0,120.0,12.0,0.0
2565,57.0,0.0,30.0,1.0,0.0
2566,57.0,55.0,30.0,11.0,0.0
2567,49.0,0.0,120.0,7.0,0.0
2568,52.0,0.0,30.0,3.0,0.0
2569,64.0,0.0,30.0,2.0,0.0
2570,57.0,0.0,30.0,6.0,0.0
2571,69.0,0.0,180.0,6.0,0.0
2572,50.0,0.0,30.0,3.0,0.0
2573,64.0,0.0,60.0,11.0,0.0
2574,64.0,0.0,60.0,6.0,0.0
2575,64.0,0.0,60.0,1.0,0.0
2576,64.0,0.0,60.0,5.0,0.0
2577,65.0,30.0,30.0,2.0,0.0
2578,67.0,60.0,30.0,2.0,0.0
2579,49.0,0.0,30.0,3.0,0.0
2580,50.0,0.0,120.0,7.0,0.0
2581,50.0,0.0,120.0,13.0,0.0
2582,50.0,0.0,120.0,8.0,0.0
2583,65.0,0.0,60.0,11.0,0.0
2584,65.0,0.0,60.0,1.0,0.0
2585,57.0,0.0,60.0,3.0,0.0
2586,50.0,0.0,120.0,4.0,0.0
2587,62.0,0.0,120.0,0.0,0.0
2588,50.0,60.0,60.0,12.0,0.0
2589,65.0,0.0,60.0,6.0,0.0
2590,65.0,0.0,60.0,5.0,0.0
2591,65.0,0.0,60.0,2.0,0.0
2592,58.0,0.0,60.0,1.0,0.0
2593,58.0,0.0,60.0,6.0,0.0
2594,73.0,0.0,60.0,6.0,0.0
2595,67.0,0.0,60.0,2.0,0.0
2596,55.0,35.0,60.0,3.0,0.0
2597,58.0,0.0,60.0,11.0,0.0
2598,52.0,0.0,60.0,12.0,0.0
2599,53.0,60.0,60.0,12.0,0.0
2600,69.0,0.0,120.0,2.0,0.0
2601,57.0,0.0,30.0,11.0,0.0
2602,57.0,25.0,30.0,1.0,0.0
2603,74.0,0.0,180.0,6.0,0.0
2604,57.0,0.0,30.0,6.0,0.0
2605,54.0,0.0,30.0,3.0,0.0
2606,48.0,0.0,60.0,7.0,0.0
2607,48.0,0.0,60.0,13.0,0.0
2608,48.0,0.0,60.0,8.0,0.0
2609,66.0,30.0,60.0,5.0,0.0
2610,66.0,0.0,60.0,11.0,0.0
2611,66.0,0.0,60.0,1.0,0.0
2612,66.0,0.0,60.0,6.0,0.0
2613,57.0,0.0,60.0,12.0,0.0
2614,48.0,0.0,60.0,4.0,0.0
2615,67.0,30.0,30.0,1.0,0.0
2616,62.0,0.0,15.0,3.0,0.0
2617,46.0,0.0,60.0,8.0,0.0
2618,67.0,0.0,30.0,6.0,0.0
2619,58.0,0.0,240.0,12.0,0.0
2620,46.0,0.0,60.0,7.0,0.0
2621,46.0,0.0,60.0,13.0,0.0
2622,46.0,0.0,60.0,4.0,0.0
2623,67.0,0.0,30.0,11.0,0.0
2624,67.0,0.0,30.0,5.0,0.0
2625,67.0,0.0,60.0,2.0,0.0
2626,65.0,0.0,30.0,5.0,0.0
2627,65.0,60.0,30.0,11.0,0.0
2628,65.0,0.0,30.0,6.0,0.0
2629,65.0,0.0,30.0,1.0,0.0
2630,63.0,0.0,90.0,6.0,0.0
2631,43.0,0.0,60.0,13.0,0.0
2632,63.0,30.0,90.0,1.0,0.0
2633,43.0,0.0,60.0,8.0,0.0
2634,43.0,0.0,60.0,4.0,0.0
2635,43.0,30.0,60.0,7.0,0.0
2636,63.0,0.0,90.0,5.0,0.0
2637,63.0,0.0,90.0,11.0,0.0
2638,45.0,0.0,60.0,4.0,0.0
2639,58.0,0.0,15.0,2.0,0.0
2640,45.0,0.0,60.0,8.0,0.0
2641,45.0,0.0,60.0,13.0,0.0
2642,45.0,0.0,60.0,7.0,0.0
2643,62.0,0.0,30.0,11.0,0.0
2644,62.0,0.0,30.0,6.0,0.0
2645,62.0,30.0,30.0,1.0,0.0
2646,62.0,0.0,30.0,5.0,0.0
2647,61.0,0.0,30.0,6.0,0.0
2648,46.0,0.0,60.0,7.0,0.0
2649,46.0,0.0,60.0,4.0,0.0
2650,61.0,0.0,30.0,5.0,0.0
2651,57.0,0.0,30.0,2.0,0.0
2652,61.0,30.0,30.0,1.0,0.0
2653,46.0,0.0,60.0,8.0,0.0
2654,46.0,0.0,60.0,13.0,0.0
2655,61.0,0.0,30.0,11.0,0.0
2656,55.0,0.0,15.0,3.0,0.0
2657,55.0,0.0,30.0,2.0,0.0
2658,62.0,0.0,30.0,11.0,0.0
2659,62.0,0.0,30.0,6.0,0.0
2660,62.0,35.0,30.0,5.0,0.0
2661,62.0,0.0,30.0,1.0,0.0
2662,52.0,0.0,120.0,12.0,0.0
2663,45.0,0.0,60.0,13.0,0.0
2664,45.0,60.0,60.0,8.0,0.0
2665,61.0,0.0,30.0,11.0,0.0
2666,55.0,0.0,30.0,3.0,0.0
2667,61.0,0.0,30.0,6.0,0.0
2668,61.0,0.0,30.0,1.0,0.0
2669,61.0,25.0,30.0,5.0,0.0
2670,64.0,0.0,30.0,2.0,0.0
2671,45.0,0.0,60.0,7.0,0.0
2672,45.0,0.0,30.0,4.0,0.0
2673,49.0,0.0,60.0,3.0,0.0
2674,43.0,0.0,60.0,13.0,0.0
2675,70.0,0.0,60.0,5.0,0.0
2676,43.0,0.0,60.0,4.0,0.0
2677,70.0,0.0,60.0,11.0,0.0
2678,43.0,0.0,60.0,7.0,0.0
2679,70.0,0.0,60.0,6.0,0.0
2680,52.0,0.0,60.0,2.0,0.0
2681,70.0,0.0,60.0,1.0,0.0
2682,43.0,60.0,60.0,8.0,0.0
2683,41.0,0.0,60.0,4.0,0.0
2684,69.0,0.0,60.0,5.0,0.0
2685,69.0,0.0,60.0,6.0,0.0
2686,53.0,0.0,60.0,2.0,0.0
2687,50.0,0.0,60.0,3.0,0.0
2688,69.0,60.0,60.0,11.0,0.0
2689,57.0,0.0,180.0,12.0,0.0
2690,69.0,0.0,60.0,1.0,0.0
2691,41.0,0.0,60.0,13.0,0.0
2692,41.0,0.0,60.0,7.0,0.0
2693,41.0,0.0,60.0,8.0,0.0
2694,40.0,0.0,60.0,8.0,0.0
2695,52.0,0.0,60.0,3.0,0.0
2696,40.0,0.0,60.0,7.0,0.0
2697,67.0,35.0,60.0,6.0,0.0
2698,67.0,0.0,60.0,1.0,0.0
2699,67.0,0.0,60.0,5.0,0.0
2700,55.0,0.0,60.0,2.0,0.0
2701,40.0,0.0,60.0,4.0,0.0
2702,67.0,0.0,60.0,11.0,0.0
2703,40.0,0.0,60.0,13.0,0.0
2704,53.0,0.0,120.0,3.0,0.0
2705,38.0,0.0,120.0,7.0,0.0
2706,65.0,30.0,60.0,1.0,0.0
2707,38.0,0.0,120.0,13.0,0.0
2708,38.0,25.0,30.0,4.0,0.0
2709,38.0,0.0,120.0,8.0,0.0
2710,65.0,0.0,60.0,5.0,0.0
2711,65.0,0.0,60.0,11.0,0.0
2712,57.0,0.0,60.0,2.0,0.0
2713,69.0,0.0,90.0,6.0,0.0
2714,65.0,0.0,60.0,6.0,0.0
2715,64.0,30.0,30.0,5.0,0.0
2716,64.0,0.0,30.0,6.0,0.0
2717,59.0,0.0,60.0,2.0,0.0
2718,50.0,0.0,60.0,4.0,0.0
2719,59.0,0.0,60.0,12.0,0.0
2720,64.0,0.0,30.0,1.0,0.0
2721,64.0,0.0,30.0,11.0,0.0
2722,62.0,0.0,30.0,11.0,0.0
2723,69.0,0.0,15.0,10.0,0.0
2724,62.0,0.0,30.0,1.0,0.0
2725,69.0,0.0,15.0,0.0,0.0
2726,62.0,0.0,30.0,5.0,0.0
2727,69.0,0.0,15.0,5.0,0.0
2728,69.0,0.0,30.0,6.0,0.0
2729,62.0,35.0,30.0,6.0,0.0
2730,48.0,0.0,60.0,4.0,0.0
2731,69.0,0.0,15.0,0.0,0.0
2732,60.0,0.0,30.0,2.0,0.0
2733,69.0,0.0,240.0,1.0,0.0
2734,36.0,60.0,120.0,13.0,0.0
2735,36.0,0.0,120.0,7.0,0.0
2736,36.0,0.0,120.0,8.0,0.0
2737,69.0,0.0,15.0,5.0,0.0
2738,52.0,0.0,120.0,3.0,0.0
2739,69.0,25.0,30.0,10.0,0.0
2740,69.0,0.0,30.0,6.0,0.0
2741,60.0,30.0,60.0,12.0,0.0
2742,69.0,0.0,120.0,11.0,0.0
2743,69.0,0.0,60.0,10.0,0.0
2744,69.0,0.0,60.0,0.0,0.0
2745,47.0,0.0,30.0,4.0,0.0
2746,57.0,0.0,60.0,12.0,0.0
2747,62.0,30.0,30.0,2.0,0.0
2748,69.0,0.0,60.0,5.0,0.0
2749,48.0,0.0,30.0,4.0,0.0
2750,64.0,0.0,30.0,2.0,0.0
2751,69.0,0.0,15.0,6.0,0.0
2752,50.0,35.0,120.0,3.0,0.0
2753,50.0,30.0,60.0,4.0,0.0
2754,65.0,0.0,60.0,2.0,0.0
2755,71.0,0.0,60.0,5.0,0.0
2756,71.0,0.0,60.0,0.0,0.0
2757,38.0,0.0,120.0,8.0,0.0
2758,38.0,0.0,120.0,7.0,0.0
2759,71.0,0.0,60.0,10.0,0.0
2760,71.0,0.0,60.0,6.0,0.0
2761,65.0,0.0,60.0,12.0,0.0
2762,69.0,0.0,120.0,11.0,0.0
2763,38.0,0.0,120.0,13.0,0.0
2764,65.0,0.0,60.0,6.0,0.0
2765,62.0,0.0,60.0,2.0,0.0
2766,65.0,0.0,60.0,0.0,0.0
2767,65.0,0.0,60.0,5.0,0.0
2768,48.0,30.0,30.0,4.0,0.0
2769,62.0,0.0,60.0,12.0,0.0
2770,65.0,0.0,60.0,10.0,0.0
2771,50.0,0.0,30.0,4.0,0.0
2772,64.0,25.0,30.0,5.0,0.0
2773,68.0,0.0,120.0,5.0,0.0
2774,52.0,0.0,120.0,4.0,0.0
2775,64.0,0.0,30.0,10.0,0.0
2776,68.0,0.0,120.0,6.0,0.0
2777,64.0,0.0,30.0,6.0,0.0
2778,68.0,0.0,120.0,11.0,0.0
2779,68.0,0.0,120.0,1.0,0.0
2780,40.0,0.0,120.0,13.0,0.0
2781,64.0,0.0,30.0,0.0,0.0
2782,59.0,60.0,60.0,2.0,0.0
2783,40.0,0.0,120.0,8.0,0.0
2784,40.0,0.0,120.0,7.0,0.0
2785,59.0,0.0,30.0,12.0,0.0
2786,50.0,0.0,30.0,3.0,0.0
2787,71.0,0.0,60.0,6.0,0.0
2788,64.0,0.0,120.0,12.0,0.0
2789,50.0,0.0,60.0,3.0,0.0
2790,71.0,0.0,60.0,0.0,0.0
2791,71.0,60.0,60.0,10.0,0.0
2792,71.0,0.0,60.0,5.0,0.0
2793,69.0,0.0,300.0,11.0,0.0
2794,48.0,0.0,60.0,3.0,0.0
2795,33.0,0.0,120.0,8.0,0.0
2796,64.0,0.0,15.0,2.0,0.0
2797,72.0,0.0,60.0,6.0,0.0
2798,69.0,0.0,300.0,6.0,0.0
2799,33.0,0.0,120.0,13.0,0.0
2800,72.0,0.0,60.0,10.0,0.0
2801,72.0,0.0,60.0,5.0,0.0
2802,69.0,0.0,300.0,5.0,0.0
2803,72.0,60.0,60.0,0.0,0.0
2804,45.0,35.0,120.0,4.0,0.0
2805,33.0,0.0,120.0,7.0,0.0
2806,65.0,0.0,60.0,6.0,0.0
2807,65.0,0.0,60.0,10.0,0.0
2808,62.0,0.0,60.0,12.0,0.0
2809,47.0,0.0,60.0,3.0,0.0
2810,65.0,0.0,60.0,0.0,0.0
2811,65.0,0.0,60.0,5.0,0.0
2812,43.0,0.0,120.0,7.0,0.0
2813,49.0,60.0,60.0,3.0,0.0
2814,43.0,0.0,120.0,8.0,0.0
2815,43.0,0.0,120.0,13.0,0.0
2816,64.0,25.0,30.0,0.0,0.0
2817,64.0,0.0,30.0,12.0,0.0
2818,64.0,0.0,30.0,6.0,0.0
2819,69.0,0.0,15.0,1.0,0.0
2820,64.0,0.0,30.0,5.0,0.0
2821,64.0,0.0,30.0,10.0,0.0
2822,73.0,0.0,60.0,5.0,0.0
2823,73.0,0.0,60.0,6.0,0.0
2824,52.0,0.0,60.0,3.0,0.0
2825,64.0,0.0,60.0,2.0,0.0
2826,73.0,0.0,60.0,10.0,0.0
2827,73.0,0.0,60.0,0.0,0.0
2828,74.0,30.0,30.0,5.0,0.0
2829,74.0,0.0,30.0,0.0,0.0
2830,41.0,0.0,60.0,13.0,0.0
2831,57.0,0.0,60.0,3.0,0.0
2832,62.0,0.0,60.0,2.0,0.0
2833,74.0,0.0,30.0,6.0,0.0
2834,74.0,0.0,30.0,10.0,0.0
2835,41.0,0.0,60.0,7.0,0.0
2836,57.0,30.0,15.0,12.0,0.0
2837,41.0,60.0,60.0,8.0,0.0
2838,72.0,0.0,30.0,6.0,0.0
2839,72.0,0.0,30.0,5.0,0.0
2840,72.0,0.0,30.0,10.0,0.0
2841,72.0,0.0,30.0,0.0,0.0
2842,64.0,0.0,60.0,2.0,0.0
2843,67.0,0.0,60.0,1.0,0.0
2844,49.0,0.0,60.0,3.0,0.0
2845,38.0,30.0,60.0,13.0,0.0
2846,70.0,0.0,90.0,10.0,0.0
2847,38.0,0.0,60.0,7.0,0.0
2848,70.0,30.0,90.0,0.0,0.0
2849,50.0,0.0,120.0,4.0,0.0
2850,67.0,0.0,60.0,6.0,0.0
2851,70.0,0.0,90.0,6.0,0.0
2852,67.0,0.0,60.0,11.0,0.0
2853,38.0,0.0,60.0,8.0,0.0
2854,58.0,0.0,120.0,12.0,0.0
2855,67.0,0.0,60.0,5.0,0.0
2856,70.0,0.0,90.0,5.0,0.0
2857,50.0,0.0,60.0,13.0,0.0
2858,50.0,0.0,60.0,8.0,0.0
2859,65.0,0.0,60.0,2.0,0.0
2860,50.0,60.0,180.0,3.0,0.0
2861,65.0,0.0,60.0,5.0,0.0
2862,50.0,0.0,60.0,7.0,0.0
2863,65.0,0.0,60.0,6.0,0.0
2864,65.0,0.0,60.0,11.0,0.0
2865,65.0,30.0,60.0,1.0,0.0
2866,69.0,0.0,30.0,0.0,0.0
2867,69.0,0.0,30.0,10.0,0.0
2868,69.0,0.0,30.0,5.0,0.0
2869,69.0,0.0,30.0,6.0,0.0
2870,59.0,0.0,60.0,2.0,0.0
2871,52.0,0.0,60.0,13.0,0.0
2872,68.0,0.0,30.0,10.0,0.0
2873,52.0,0.0,60.0,4.0,0.0
2874,60.0,0.0,60.0,12.0,0.0
2875,64.0,0.0,60.0,11.0,0.0
2876,68.0,30.0,30.0,0.0,0.0
2877,52.0,35.0,60.0,7.0,0.0
2878,52.0,0.0,60.0,8.0,0.0
2879,68.0,0.0,30.0,5.0,0.0
2880,64.0,0.0,60.0,5.0,0.0
2881,64.0,0.0,60.0,1.0,0.0
2882,64.0,0.0,60.0,6.0,0.0
2883,68.0,0.0,30.0,6.0,0.0
2884,69.0,0.0,30.0,10.0,0.0
2885,69.0,0.0,30.0,5.0,0.0
2886,69.0,0.0,30.0,0.0,0.0
2887,69.0,0.0,30.0,6.0,0.0
2888,62.0,0.0,120.0,11.0,0.0
2889,53.0,0.0,120.0,8.0,0.0
2890,68.0,25.0,30.0,10.0,0.0
2891,53.0,0.0,120.0,4.0,0.0
2892,68.0,0.0,30.0,0.0,0.0
2893,62.0,60.0,120.0,6.0,0.0
2894,53.0,0.0,120.0,13.0,0.0
2895,62.0,0.0,120.0,5.0,0.0
2896,68.0,0.0,30.0,5.0,0.0
2897,68.0,0.0,30.0,6.0,0.0
2898,62.0,0.0,120.0,1.0,0.0
2899,62.0,0.0,120.0,12.0,0.0
2900,53.0,0.0,120.0,7.0,0.0
2901,77.0,0.0,60.0,6.0,0.0
2902,77.0,0.0,60.0,10.0,0.0
2903,77.0,0.0,60.0,0.0,0.0
2904,77.0,0.0,60.0,5.0,0.0
2905,48.0,0.0,60.0,3.0,0.0
2906,44.0,0.0,120.0,4.0,0.0
2907,44.0,0.0,120.0,13.0,0.0
2908,64.0,0.0,120.0,12.0,0.0
2909,71.0,0.0,180.0,5.0,0.0
2910,71.0,0.0,180.0,11.0,0.0
2911,44.0,0.0,120.0,8.0,0.0
2912,47.0,60.0,60.0,3.0,0.0
2913,71.0,0.0,180.0,1.0,0.0
2914,76.0,0.0,60.0,5.0,0.0
2915,76.0,0.0,60.0,10.0,0.0
2916,59.0,0.0,15.0,2.0,0.0
2917,76.0,0.0,60.0,0.0,0.0
2918,44.0,0.0,120.0,7.0,0.0
2919,71.0,0.0,180.0,6.0,0.0
2920,76.0,0.0,60.0,6.0,0.0
2921,59.0,0.0,15.0,2.0,0.0
2922,52.0,0.0,120.0,3.0,0.0
2923,74.0,0.0,60.0,0.0,0.0
2924,74.0,60.0,60.0,6.0,0.0
2925,74.0,0.0,60.0,10.0,0.0
2926,74.0,0.0,60.0,5.0,0.0
2927,45.0,0.0,60.0,7.0,0.0
2928,52.0,0.0,120.0,12.0,0.0
2929,60.0,0.0,60.0,2.0,0.0
2930,45.0,0.0,60.0,4.0,0.0
2931,72.0,30.0,60.0,10.0,0.0
2932,72.0,0.0,60.0,0.0,0.0
2933,45.0,0.0,60.0,8.0,0.0
2934,72.0,0.0,60.0,5.0,0.0
2935,45.0,0.0,60.0,13.0,0.0
2936,72.0,0.0,60.0,6.0,0.0
2937,47.0,0.0,60.0,13.0,0.0
2938,47.0,0.0,60.0,4.0,0.0
2939,62.0,0.0,60.0,2.0,0.0
2940,64.0,0.0,60.0,11.0,0.0
2941,50.0,60.0,60.0,3.0,0.0
2942,71.0,0.0,30.0,6.0,0.0
2943,64.0,0.0,60.0,6.0,0.0
2944,71.0,0.0,30.0,10.0,0.0
2945,64.0,0.0,60.0,1.0,0.0
2946,71.0,30.0,30.0,5.0,0.0
2947,64.0,0.0,60.0,5.0,0.0
2948,47.0,0.0,60.0,8.0,0.0
2949,47.0,0.0,60.0,7.0,0.0
2950,71.0,0.0,30.0,0.0,0.0
2951,69.0,0.0,30.0,6.0,0.0
2952,69.0,0.0,30.0,0.0,0.0
2953,69.0,0.0,30.0,5.0,0.0
2954,69.0,0.0,30.0,10.0,0.0
2955,76.0,60.0,180.0,10.0,0.0
2956,48.0,60.0,60.0,4.0,0.0
2957,69.0,0.0,60.0,1.0,0.0
2958,48.0,0.0,60.0,8.0,0.0
2959,69.0,0.0,60.0,11.0,0.0
2960,48.0,0.0,60.0,13.0,0.0
2961,48.0,0.0,60.0,7.0,0.0
2962,76.0,0.0,180.0,5.0,0.0
2963,69.0,0.0,60.0,5.0,0.0
2964,64.0,0.0,60.0,2.0,0.0
2965,76.0,0.0,180.0,0.0,0.0
2966,76.0,0.0,180.0,6.0,0.0
2967,69.0,0.0,60.0,6.0,0.0
2968,48.0,0.0,60.0,3.0,0.0
2969,45.0,0.0,60.0,7.0,0.0
2970,45.0,0.0,60.0,8.0,0.0
2971,67.0,0.0,60.0,1.0,0.0
2972,52.0,0.0,60.0,3.0,0.0
2973,60.0,0.0,60.0,2.0,0.0
2974,67.0,0.0,60.0,5.0,0.0
2975,67.0,0.0,60.0,6.0,0.0
2976,67.0,0.0,60.0,11.0,0.0
2977,60.0,0.0,60.0,12.0,0.0
2978,45.0,0.0,60.0,4.0,0.0
2979,45.0,60.0,60.0,13.0,0.0
2980,53.0,0.0,60.0,3.0,0.0
2981,50.0,0.0,60.0,4.0,0.0
2982,65.0,0.0,300.0,5.0,0.0
2983,65.0,0.0,300.0,1.0,0.0
2984,50.0,0.0,60.0,7.0,0.0
2985,57.0,0.0,120.0,2.0,0.0
2986,50.0,0.0,60.0,8.0,0.0
2987,65.0,60.0,300.0,6.0,0.0
2988,65.0,0.0,300.0,11.0,0.0
2989,62.0,60.0,120.0,12.0,0.0
2990,50.0,0.0,60.0,13.0,0.0
2991,52.0,0.0,60.0,3.0,0.0
2992,69.0,0.0,60.0,0.0,0.0
2993,69.0,0.0,60.0,6.0,0.0
2994,69.0,0.0,60.0,5.0,0.0
2995,48.0,0.0,60.0,4.0,0.0
2996,48.0,0.0,60.0,13.0,0.0
2997,48.0,0.0,60.0,7.0,0.0
2998,48.0,0.0,60.0,8.0,0.0
2999,69.0,0.0,60.0,10.0,0.0
3000,74.0,0.0,60.0,6.0,0.0
3001,47.0,0.0,60.0,8.0,0.0
3002,47.0,0.0,60.0,7.0,0.0
3003,74.0,0.0,60.0,5.0,0.0
3004,56.0,0.0,60.0,2.0,0.0
3005,47.0,0.0,60.0,13.0,0.0
3006,74.0,60.0,60.0,10.0,0.0
3007,47.0,0.0,60.0,4.0,0.0
3008,74.0,0.0,60.0,0.0,0.0
3009,50.0,0.0,240.0,3.0,0.0
3010,72.0,0.0,60.0,10.0,0.0
3011,45.0,0.0,60.0,4.0,0.0
3012,72.0,0.0,60.0,0.0,0.0
3013,45.0,0.0,60.0,7.0,0.0
3014,45.0,0.0,60.0,8.0,0.0
3015,72.0,0.0,60.0,6.0,0.0
3016,65.0,0.0,60.0,12.0,0.0
3017,45.0,60.0,60.0,13.0,0.0
3018,57.0,0.0,60.0,2.0,0.0
3019,72.0,0.0,60.0,5.0,0.0
3020,71.0,0.0,300.0,5.0,0.0
3021,44.0,0.0,60.0,7.0,0.0
3022,44.0,0.0,60.0,4.0,0.0
3023,59.0,0.0,120.0,2.0,0.0
3024,44.0,0.0,60.0,13.0,0.0
3025,71.0,0.0,300.0,10.0,0.0
3026,71.0,0.0,300.0,6.0,0.0
3027,71.0,0.0,300.0,0.0,0.0
3028,44.0,0.0,60.0,8.0,0.0
3029,59.0,0.0,120.0,12.0,0.0
3030,59.0,0.0,60.0,11.0,0.0
3031,59.0,0.0,60.0,1.0,0.0
3032,42.0,0.0,60.0,4.0,0.0
3033,42.0,60.0,60.0,13.0,0.0
3034,42.0,0.0,60.0,7.0,0.0
3035,59.0,0.0,60.0,5.0,0.0
3036,42.0,0.0,60.0,8.0,0.0
3037,59.0,0.0,60.0,6.0,0.0
3038,44.0,0.0,60.0,4.0,0.0
3039,44.0,0.0,60.0,8.0,0.0
3040,64.0,0.0,60.0,1.0,0.0
3041,64.0,0.0,60.0,11.0,0.0
3042,64.0,0.0,60.0,6.0,0.0
3043,44.0,60.0,60.0,7.0,0.0
3044,44.0,0.0,60.0,13.0,0.0
3045,64.0,0.0,60.0,5.0,0.0
3046,62.0,0.0,60.0,6.0,0.0
3047,62.0,0.0,60.0,5.0,0.0
3048,40.0,15.0,60.0,4.0,0.0
3049,59.0,0.0,15.0,2.0,0.0
3050,62.0,0.0,60.0,11.0,0.0
3051,62.0,0.0,60.0,1.0,0.0
3052,40.0,0.0,60.0,13.0,0.0
3053,56.0,0.0,60.0,12.0,0.0
3054,40.0,0.0,60.0,7.0,0.0
3055,40.0,0.0,60.0,8.0,0.0
3056,60.0,0.0,60.0,2.0,0.0
3057,60.0,60.0,300.0,6.0,0.0
3058,60.0,0.0,300.0,5.0,0.0
3059,60.0,0.0,300.0,11.0,0.0
3060,45.0,15.0,60.0,8.0,0.0
3061,45.0,0.0,60.0,4.0,0.0
3062,45.0,0.0,60.0,13.0,0.0
3063,52.0,0.0,15.0,3.0,0.0
3064,60.0,0.0,120.0,1.0,0.0
3065,52.0,0.0,120.0,12.0,0.0
3066,45.0,0.0,60.0,7.0,0.0
3067,53.0,15.0,15.0,3.0,0.0
3068,52.0,15.0,15.0,3.0,0.0
3069,53.0,0.0,15.0,3.0,0.0
3070,64.0,0.0,60.0,5.0,0.0
3071,64.0,0.0,60.0,6.0,0.0
3072,43.0,0.0,60.0,13.0,0.0
3073,43.0,0.0,60.0,4.0,0.0
3074,43.0,0.0,60.0,7.0,0.0
3075,64.0,0.0,60.0,0.0,0.0
3076,64.0,0.0,60.0,10.0,0.0
3077,59.0,15.0,60.0,2.0,0.0
3078,43.0,0.0,60.0,8.0,0.0
3079,52.0,15.0,15.0,3.0,0.0
3080,53.0,15.0,15.0,3.0,0.0
3081,52.0,15.0,15.0,3.0,0.0
3082,53.0,0.0,15.0,3.0,0.0
3083,69.0,0.0,60.0,10.0,0.0
3084,57.0,0.0,180.0,2.0,0.0
3085,69.0,0.0,60.0,0.0,0.0
3086,52.0,15.0,15.0,3.0,0.0
3087,69.0,0.0,60.0,6.0,0.0
3088,41.0,0.0,60.0,4.0,0.0
3089,41.0,0.0,60.0,7.0,0.0
3090,69.0,0.0,60.0,5.0,0.0
3091,41.0,0.0,60.0,8.0,0.0
3092,41.0,0.0,60.0,13.0,0.0
3093,53.0,15.0,15.0,3.0,0.0
3094,52.0,15.0,15.0,3.0,0.0
3095,53.0,11.0,15.0,3.0,0.0
3096,67.0,60.0,60.0,10.0,0.0
3097,40.0,0.0,60.0,4.0,0.0
3098,40.0,0.0,60.0,7.0,0.0
3099,67.0,0.0,60.0,0.0,0.0
3100,67.0,0.0,60.0,5.0,0.0
3101,40.0,0.0,60.0,8.0,0.0
3102,64.0,0.0,60.0,12.0,0.0
3103,67.0,0.0,60.0,6.0,0.0
3104,40.0,0.0,60.0,13.0,0.0
3105,52.0,13.0,15.0,3.0,0.0
3106,53.0,11.0,15.0,3.0,0.0
3107,52.0,13.0,15.0,3.0,0.0
3108,50.0,12.0,15.0,3.0,0.0
3109,52.0,0.0,15.0,3.0,0.0
3110,38.0,0.0,120.0,4.0,0.0
3111,65.0,0.0,120.0,0.0,0.0
3112,38.0,0.0,120.0,13.0,0.0
3113,38.0,0.0,120.0,8.0,0.0
3114,65.0,0.0,120.0,5.0,0.0
3115,53.0,0.0,60.0,3.0,0.0
3116,38.0,0.0,120.0,7.0,0.0
3117,65.0,35.0,120.0,6.0,0.0
3118,57.0,0.0,120.0,12.0,0.0
3119,65.0,0.0,120.0,10.0,0.0
3120,68.0,0.0,60.0,11.0,0.0
3121,68.0,0.0,60.0,5.0,0.0
3122,47.0,0.0,60.0,3.0,0.0
3123,62.0,0.0,60.0,2.0,0.0
3124,68.0,0.0,60.0,1.0,0.0
3125,68.0,0.0,60.0,6.0,0.0
3126,69.0,0.0,60.0,11.0,0.0
3127,64.0,0.0,120.0,5.0,0.0
3128,60.0,60.0,60.0,2.0,0.0
3129,64.0,0.0,120.0,10.0,0.0
3130,40.0,0.0,120.0,7.0,0.0
3131,69.0,0.0,30.0,1.0,0.0
3132,48.0,25.0,30.0,3.0,0.0
3133,69.0,0.0,30.0,5.0,0.0
3134,40.0,0.0,120.0,13.0,0.0
3135,64.0,35.0,120.0,6.0,0.0
3136,40.0,0.0,120.0,8.0,0.0
3137,69.0,0.0,30.0,6.0,0.0
3138,60.0,0.0,60.0,6.0,0.0
3139,60.0,0.0,60.0,11.0,0.0
3140,64.0,0.0,60.0,12.0,0.0
3141,57.0,0.0,60.0,3.0,0.0
3142,60.0,0.0,60.0,5.0,0.0
3143,72.0,0.0,60.0,0.0,0.0
3144,40.0,0.0,60.0,4.0,0.0
3145,60.0,0.0,60.0,1.0,0.0
3146,59.0,85.0,30.0,6.0,0.0
3147,71.0,0.0,120.0,12.0,0.0
3148,41.0,0.0,120.0,13.0,0.0
3149,41.0,0.0,120.0,8.0,0.0
3150,56.0,0.0,30.0,3.0,0.0
3151,59.0,0.0,30.0,5.0,0.0
3152,59.0,0.0,30.0,1.0,0.0
3153,41.0,0.0,120.0,7.0,0.0
3154,62.0,0.0,30.0,10.0,0.0
3155,62.0,0.0,30.0,6.0,0.0
3156,62.0,0.0,30.0,5.0,0.0
3157,74.0,0.0,120.0,0.0,0.0
3158,59.0,0.0,30.0,11.0,0.0
3159,41.0,0.0,30.0,4.0,0.0
3160,71.0,0.0,60.0,10.0,0.0
3161,59.0,0.0,60.0,2.0,0.0
3162,62.0,60.0,60.0,3.0,0.0
3163,68.0,0.0,60.0,11.0,0.0
3164,53.0,0.0,60.0,4.0,0.0
3165,68.0,0.0,60.0,5.0,0.0
3166,68.0,0.0,60.0,6.0,0.0
3167,71.0,0.0,60.0,6.0,0.0
3168,71.0,0.0,60.0,5.0,0.0
3169,68.0,0.0,60.0,1.0,0.0
3170,72.0,0.0,60.0,5.0,0.0
3171,72.0,0.0,60.0,10.0,0.0
3172,69.0,0.0,60.0,1.0,0.0
3173,40.0,0.0,60.0,8.0,0.0
3174,69.0,0.0,60.0,5.0,0.0
3175,76.0,0.0,60.0,0.0,0.0
3176,60.0,0.0,60.0,2.0,0.0
3177,69.0,0.0,60.0,6.0,0.0
3178,72.0,0.0,60.0,6.0,0.0
3179,69.0,0.0,60.0,11.0,0.0
3180,40.0,0.0,60.0,7.0,0.0
3181,52.0,0.0,60.0,4.0,0.0
3182,40.0,60.0,60.0,13.0,0.0
3183,60.0,0.0,60.0,3.0,0.0
3184,74.0,0.0,60.0,6.0,0.0
3185,74.0,60.0,60.0,5.0,0.0
3186,71.0,0.0,60.0,5.0,0.0
3187,38.0,0.0,60.0,8.0,0.0
3188,71.0,0.0,60.0,6.0,0.0
3189,71.0,0.0,60.0,1.0,0.0
3190,59.0,0.0,60.0,3.0,0.0
3191,71.0,0.0,60.0,11.0,0.0
3192,65.0,0.0,60.0,12.0,0.0
3193,38.0,0.0,60.0,7.0,0.0
3194,50.0,0.0,60.0,4.0,0.0
3195,68.0,0.0,60.0,0.0,0.0
3196,62.0,0.0,60.0,2.0,0.0
3197,38.0,0.0,60.0,13.0,0.0
3198,74.0,0.0,60.0,10.0,0.0
3199,69.0,0.0,120.0,0.0,0.0
3200,64.0,0.0,120.0,12.0,0.0
3201,36.0,0.0,60.0,8.0,0.0
3202,64.0,0.0,60.0,1.0,0.0
3203,64.0,0.0,60.0,11.0,0.0
3204,76.0,0.0,60.0,10.0,0.0
3205,64.0,0.0,60.0,2.0,0.0
3206,48.0,0.0,60.0,4.0,0.0
3207,76.0,0.0,60.0,6.0,0.0
3208,36.0,0.0,60.0,13.0,0.0
3209,57.0,0.0,60.0,3.0,0.0
3210,76.0,60.0,60.0,5.0,0.0
3211,64.0,0.0,60.0,5.0,0.0
3212,36.0,0.0,60.0,7.0,0.0
3213,64.0,0.0,60.0,6.0,0.0
3214,56.0,0.0,60.0,1.0,0.0
3215,50.0,0.0,60.0,3.0,0.0
3216,47.0,0.0,60.0,4.0,0.0
3217,35.0,0.0,60.0,7.0,0.0
3218,65.0,0.0,60.0,2.0,0.0
3219,77.0,60.0,60.0,10.0,0.0
3220,35.0,0.0,60.0,13.0,0.0
3221,77.0,0.0,60.0,5.0,0.0
3222,62.0,0.0,60.0,5.0,0.0
3223,35.0,0.0,60.0,8.0,0.0
3224,56.0,0.0,60.0,6.0,0.0
3225,77.0,0.0,60.0,6.0,0.0
3226,56.0,0.0,60.0,11.0,0.0
3227,64.0,60.0,60.0,2.0,0.0
3228,57.0,0.0,60.0,11.0,0.0
3229,48.0,0.0,60.0,4.0,0.0
3230,76.0,0.0,60.0,5.0,0.0
3231,64.0,0.0,60.0,5.0,0.0
3232,57.0,0.0,60.0,6.0,0.0
3233,76.0,0.0,60.0,6.0,0.0
3234,36.0,0.0,60.0,8.0,0.0
3235,36.0,0.0,60.0,13.0,0.0
3236,36.0,0.0,60.0,7.0,0.0
3237,57.0,0.0,60.0,1.0,0.0
3238,48.0,0.0,60.0,3.0,0.0
3239,76.0,0.0,60.0,10.0,0.0
3240,65.0,0.0,60.0,11.0,0.0
3241,69.0,0.0,120.0,5.0,0.0
3242,38.0,0.0,60.0,8.0,0.0
3243,69.0,0.0,120.0,6.0,0.0
3244,65.0,0.0,60.0,1.0,0.0
3245,65.0,0.0,60.0,6.0,0.0
3246,65.0,0.0,60.0,5.0,0.0
3247,69.0,0.0,120.0,10.0,0.0
3248,69.0,0.0,120.0,0.0,0.0
3249,65.0,0.0,60.0,2.0,0.0
3250,47.0,0.0,60.0,3.0,0.0
3251,69.0,60.0,60.0,12.0,0.0
3252,38.0,0.0,60.0,13.0,0.0
3253,50.0,0.0,60.0,4.0,0.0
3254,38.0,0.0,60.0,7.0,0.0
3255,60.0,0.0,60.0,1.0,0.0
3256,40.0,0.0,540.0,8.0,0.0
3257,60.0,0.0,60.0,6.0,0.0
3258,60.0,0.0,60.0,5.0,0.0
3259,64.0,30.0,60.0,2.0,0.0
3260,48.0,0.0,60.0,3.0,0.0
3261,52.0,0.0,540.0,4.0,0.0
3262,40.0,0.0,540.0,13.0,0.0
3263,40.0,0.0,540.0,7.0,0.0
3264,60.0,0.0,60.0,11.0,0.0
3265,64.0,0.0,60.0,12.0,0.0
3266,59.0,0.0,120.0,11.0,0.0
3267,50.0,0.0,30.0,3.0,0.0
3268,68.0,0.0,120.0,5.0,0.0
3269,59.0,0.0,120.0,6.0,0.0
3270,68.0,0.0,120.0,6.0,0.0
3271,68.0,0.0,60.0,0.0,0.0
3272,59.0,0.0,120.0,1.0,0.0
3273,62.0,30.0,30.0,12.0,0.0
3274,68.0,0.0,120.0,10.0,0.0
3275,59.0,60.0,120.0,5.0,0.0
3276,65.0,0.0,30.0,2.0,0.0
3277,52.0,60.0,30.0,3.0,0.0
3278,60.0,0.0,30.0,12.0,0.0
3279,64.0,0.0,30.0,2.0,0.0
3280,59.0,0.0,60.0,12.0,0.0
3281,53.0,0.0,60.0,3.0,0.0
3282,62.0,0.0,60.0,2.0,0.0
3283,68.0,0.0,60.0,0.0,0.0
3284,60.0,0.0,60.0,11.0,0.0
3285,52.0,0.0,60.0,3.0,0.0
3286,60.0,0.0,60.0,2.0,0.0
3287,52.0,0.0,60.0,12.0,0.0
3288,69.0,0.0,60.0,0.0,0.0
3289,69.0,0.0,60.0,10.0,0.0
3290,60.0,35.0,60.0,1.0,0.0
3291,60.0,0.0,60.0,5.0,0.0
3292,60.0,0.0,60.0,6.0,0.0
3293,69.0,0.0,60.0,5.0,0.0
3294,69.0,0.0,60.0,6.0,0.0
3295,50.0,0.0,60.0,3.0,0.0
3296,71.0,0.0,30.0,10.0,0.0
3297,59.0,0.0,120.0,2.0,0.0
3298,62.0,25.0,30.0,6.0,0.0
3299,71.0,0.0,30.0,6.0,0.0
3300,71.0,0.0,60.0,0.0,0.0
3301,71.0,0.0,30.0,5.0,0.0
3302,62.0,0.0,30.0,5.0,0.0
3303,56.0,0.0,30.0,12.0,0.0
3304,62.0,0.0,30.0,11.0,0.0
3305,62.0,60.0,60.0,1.0,0.0
3306,56.0,0.0,60.0,3.0,0.0
3307,74.0,0.0,60.0,0.0,0.0
3308,65.0,0.0,60.0,5.0,0.0
3309,65.0,0.0,60.0,1.0,0.0
3310,47.0,60.0,60.0,12.0,0.0
3311,74.0,0.0,60.0,10.0,0.0
3312,65.0,0.0,60.0,6.0,0.0
3313,74.0,0.0,60.0,6.0,0.0
3314,65.0,0.0,60.0,11.0,0.0
3315,74.0,0.0,60.0,5.0,0.0
3316,72.0,0.0,60.0,0.0,0.0
3317,64.0,0.0,60.0,1.0,0.0
3318,57.0,0.0,60.0,3.0,0.0
3319,64.0,0.0,60.0,11.0,0.0
3320,60.0,0.0,60.0,2.0,0.0
3321,72.0,0.0,60.0,10.0,0.0
3322,72.0,0.0,60.0,6.0,0.0
3323,64.0,60.0,60.0,6.0,0.0
3324,64.0,0.0,60.0,5.0,0.0
3325,52.0,0.0,60.0,12.0,0.0
3326,72.0,0.0,60.0,5.0,0.0
3327,56.0,0.0,60.0,12.0,0.0
3328,71.0,0.0,60.0,0.0,0.0
3329,62.0,0.0,60.0,5.0,0.0
3330,62.0,0.0,60.0,6.0,0.0
3331,71.0,0.0,60.0,6.0,0.0
3332,71.0,35.0,60.0,10.0,0.0
3333,71.0,0.0,60.0,5.0,0.0
3334,62.0,0.0,60.0,2.0,0.0
3335,62.0,0.0,60.0,11.0,0.0
3336,59.0,0.0,60.0,3.0,0.0
3337,62.0,0.0,60.0,1.0,0.0
3338,52.0,0.0,60.0,3.0,0.0
3339,69.0,0.0,120.0,0.0,0.0
3340,60.0,0.0,120.0,11.0,0.0
3341,60.0,0.0,60.0,12.0,0.0
3342,60.0,0.0,120.0,6.0,0.0
3343,69.0,25.0,30.0,6.0,0.0
3344,64.0,30.0,60.0,2.0,0.0
3345,60.0,0.0,120.0,5.0,0.0
3346,69.0,0.0,30.0,5.0,0.0
3347,69.0,0.0,60.0,10.0,0.0
3348,60.0,0.0,120.0,1.0,0.0
3349,77.0,0.0,60.0,5.0,0.0
3350,38.0,0.0,60.0,7.0,0.0
3351,77.0,0.0,60.0,6.0,0.0
3352,38.0,0.0,60.0,8.0,0.0
3353,57.0,60.0,60.0,12.0,0.0
3354,77.0,0.0,60.0,10.0,0.0
3355,65.0,0.0,60.0,2.0,0.0
3356,57.0,30.0,30.0,3.0,0.0
3357,38.0,0.0,60.0,13.0,0.0
3358,50.0,0.0,60.0,4.0,0.0
3359,59.0,0.0,30.0,3.0,0.0
3360,76.0,0.0,60.0,6.0,0.0
3361,59.0,0.0,120.0,6.0,0.0
3362,68.0,0.0,120.0,0.0,0.0
3363,59.0,0.0,120.0,11.0,0.0
3364,64.0,0.0,60.0,2.0,0.0
3365,40.0,0.0,60.0,13.0,0.0
3366,40.0,0.0,60.0,8.0,0.0
3367,76.0,0.0,60.0,5.0,0.0
3368,59.0,0.0,120.0,1.0,0.0
3369,76.0,0.0,60.0,10.0,0.0
3370,59.0,0.0,120.0,3.0,0.0
3371,52.0,0.0,120.0,4.0,0.0
3372,59.0,60.0,60.0,5.0,0.0
3373,40.0,0.0,15.0,7.0,0.0
3374,74.0,30.0,120.0,10.0,0.0
3375,68.0,60.0,60.0,5.0,0.0
3376,74.0,0.0,120.0,5.0,0.0
3377,40.0,0.0,60.0,13.0,0.0
3378,74.0,0.0,120.0,6.0,0.0
3379,62.0,0.0,60.0,2.0,0.0
3380,40.0,0.0,60.0,8.0,0.0
3381,57.0,0.0,120.0,11.0,0.0
3382,45.0,0.0,180.0,7.0,0.0
3383,45.0,0.0,120.0,4.0,0.0
3384,52.0,0.0,15.0,12.0,0.0
3385,60.0,0.0,60.0,3.0,0.0
3386,45.0,30.0,180.0,8.0,0.0
3387,45.0,0.0,180.0,13.0,0.0
3388,57.0,0.0,120.0,1.0,0.0
3389,57.0,0.0,120.0,6.0,0.0
3390,69.0,0.0,120.0,0.0,0.0
3391,60.0,0.0,120.0,2.0,0.0
3392,69.0,0.0,120.0,5.0,0.0
3393,72.0,0.0,30.0,5.0,0.0
3394,57.0,0.0,30.0,3.0,0.0
3395,72.0,0.0,30.0,10.0,0.0
3396,72.0,30.0,30.0,6.0,0.0
3397,58.0,0.0,30.0,3.0,0.0
3398,74.0,60.0,30.0,5.0,0.0
3399,74.0,0.0,30.0,10.0,0.0
3400,74.0,0.0,30.0,6.0,0.0
3401,60.0,0.0,180.0,3.0,0.0
3402,75.0,0.0,180.0,5.0,0.0
3403,75.0,60.0,180.0,6.0,0.0
3404,75.0,0.0,180.0,10.0,0.0
3405,45.0,0.0,60.0,4.0,0.0
3406,67.0,0.0,60.0,0.0,0.0
3407,46.0,0.0,30.0,13.0,0.0
3408,46.0,0.0,30.0,8.0,0.0
3409,46.0,30.0,30.0,7.0,0.0
3410,60.0,0.0,60.0,12.0,0.0
3411,48.0,0.0,30.0,8.0,0.0
3412,48.0,60.0,30.0,7.0,0.0
3413,48.0,0.0,30.0,13.0,0.0
3414,57.0,0.0,120.0,12.0,0.0
3415,50.0,0.0,120.0,7.0,0.0
3416,50.0,0.0,120.0,4.0,0.0
3417,50.0,0.0,120.0,8.0,0.0
3418,66.0,0.0,60.0,0.0,0.0
3419,50.0,0.0,120.0,13.0,0.0
3420,67.0,35.0,60.0,10.0,0.0
3421,58.0,0.0,60.0,3.0,0.0
3422,67.0,0.0,60.0,5.0,0.0
3423,72.0,30.0,120.0,0.0,0.0
3424,67.0,0.0,60.0,6.0,0.0
3425,66.0,0.0,30.0,5.0,0.0
3426,57.0,0.0,60.0,3.0,0.0
3427,69.0,0.0,180.0,6.0,0.0
3428,38.0,0.0,120.0,7.0,0.0
3429,66.0,25.0,30.0,6.0,0.0
3430,69.0,30.0,180.0,11.0,0.0
3431,38.0,0.0,120.0,4.0,0.0
3432,69.0,0.0,180.0,5.0,0.0
3433,38.0,0.0,120.0,13.0,0.0
3434,38.0,0.0,120.0,8.0,0.0
3435,66.0,0.0,30.0,10.0,0.0
3436,72.0,0.0,60.0,6.0,0.0
3437,55.0,30.0,30.0,3.0,0.0
3438,70.0,0.0,30.0,0.0,0.0
3439,62.0,30.0,60.0,12.0,0.0
3440,72.0,0.0,60.0,10.0,0.0
3441,72.0,0.0,60.0,5.0,0.0
3442,69.0,0.0,30.0,0.0,0.0
3443,54.0,0.0,30.0,3.0,0.0
3444,70.0,0.0,120.0,10.0,0.0
3445,43.0,0.0,180.0,13.0,0.0
3446,55.0,0.0,120.0,3.0,0.0
3447,43.0,0.0,120.0,4.0,0.0
3448,70.0,0.0,120.0,5.0,0.0
3449,43.0,0.0,180.0,7.0,0.0
3450,43.0,30.0,180.0,8.0,0.0
3451,70.0,30.0,30.0,0.0,0.0
3452,62.0,0.0,120.0,12.0,0.0
3453,72.0,0.0,30.0,0.0,0.0
3454,62.0,0.0,60.0,2.0,0.0
3455,67.0,0.0,30.0,11.0,0.0
3456,67.0,0.0,30.0,6.0,0.0
3457,67.0,30.0,30.0,5.0,0.0
3458,74.0,0.0,60.0,0.0,0.0
3459,69.0,0.0,30.0,6.0,0.0
3460,69.0,0.0,30.0,11.0,0.0
3461,69.0,0.0,30.0,5.0,0.0
3462,67.0,0.0,180.0,2.0,0.0
3463,70.0,0.0,180.0,11.0,0.0
3464,50.0,0.0,120.0,3.0,0.0
3465,70.0,0.0,180.0,5.0,0.0
3466,70.0,60.0,15.0,6.0,0.0
3467,67.0,0.0,120.0,0.0,0.0
3468,55.0,0.0,60.0,4.0,0.0
3469,55.0,60.0,60.0,12.0,0.0
3470,41.0,30.0,30.0,13.0,0.0
3471,62.0,0.0,60.0,1.0,0.0
3472,41.0,0.0,30.0,8.0,0.0
3473,41.0,0.0,30.0,7.0,0.0
3474,43.0,0.0,30.0,7.0,0.0
3475,43.0,0.0,30.0,8.0,0.0
3476,43.0,0.0,30.0,13.0,0.0
3477,45.0,0.0,120.0,7.0,0.0
3478,45.0,35.0,120.0,8.0,0.0
3479,45.0,0.0,120.0,13.0,0.0
3480,61.0,60.0,60.0,1.0,0.0
3481,57.0,0.0,120.0,4.0,0.0
3482,52.0,0.0,120.0,12.0,0.0
3483,65.0,0.0,60.0,2.0,0.0
3484,62.0,0.0,60.0,11.0,0.0
3485,67.0,30.0,120.0,1.0,0.0
3486,62.0,0.0,60.0,5.0,0.0
3487,62.0,0.0,60.0,6.0,0.0
3488,33.0,0.0,120.0,13.0,0.0
3489,61.0,0.0,30.0,6.0,0.0
3490,64.0,0.0,60.0,2.0,0.0
3491,76.0,0.0,180.0,10.0,0.0
3492,61.0,25.0,30.0,11.0,0.0
3493,33.0,0.0,120.0,8.0,0.0
3494,76.0,30.0,180.0,5.0,0.0
3495,45.0,0.0,120.0,4.0,0.0
3496,33.0,0.0,120.0,7.0,0.0
3497,76.0,0.0,180.0,6.0,0.0
3498,61.0,0.0,30.0,5.0,0.0
3499,67.0,0.0,60.0,5.0,0.0
3500,67.0,0.0,60.0,6.0,0.0
3501,62.0,0.0,30.0,2.0,0.0
3502,67.0,0.0,60.0,11.0,0.0
3503,57.0,0.0,60.0,12.0,0.0
3504,65.0,30.0,30.0,1.0,0.0
3505,61.0,0.0,30.0,2.0,0.0
3506,64.0,30.0,30.0,1.0,0.0
3507,65.0,60.0,120.0,11.0,0.0
3508,65.0,0.0,120.0,6.0,0.0
3509,57.0,0.0,120.0,12.0,0.0
3510,62.0,0.0,120.0,2.0,0.0
3511,38.0,30.0,180.0,8.0,0.0
3512,50.0,0.0,120.0,4.0,0.0
3513,38.0,0.0,180.0,7.0,0.0
3514,65.0,30.0,30.0,1.0,0.0
3515,65.0,0.0,120.0,5.0,0.0
3516,38.0,0.0,180.0,13.0,0.0
3517,67.0,0.0,30.0,1.0,0.0
3518,57.0,0.0,60.0,3.0,0.0
3519,74.0,0.0,30.0,10.0,0.0
3520,74.0,30.0,30.0,5.0,0.0
3521,74.0,0.0,30.0,6.0,0.0
3522,69.0,0.0,60.0,1.0,0.0
3523,76.0,0.0,30.0,5.0,0.0
3524,76.0,0.0,30.0,10.0,0.0
3525,76.0,0.0,30.0,6.0,0.0
3526,57.0,0.0,120.0,2.0,0.0
3527,62.0,60.0,120.0,1.0,0.0
3528,77.0,0.0,180.0,10.0,0.0
3529,77.0,60.0,180.0,5.0,0.0
3530,62.0,0.0,180.0,3.0,0.0
3531,77.0,0.0,180.0,6.0,0.0
3532,62.0,0.0,60.0,12.0,0.0
3533,69.0,0.0,60.0,0.0,0.0
3534,50.0,0.0,60.0,4.0,0.0
3535,36.0,0.0,30.0,13.0,0.0
3536,36.0,0.0,30.0,8.0,0.0
3537,36.0,30.0,30.0,7.0,0.0
3538,38.0,0.0,30.0,8.0,0.0
3539,38.0,0.0,30.0,7.0,0.0
3540,38.0,0.0,30.0,13.0,0.0
3541,40.0,0.0,120.0,8.0,0.0
3542,68.0,0.0,60.0,0.0,0.0
3543,59.0,0.0,120.0,12.0,0.0
3544,40.0,0.0,120.0,13.0,0.0
3545,40.0,0.0,120.0,7.0,0.0
3546,52.0,0.0,120.0,4.0,0.0
3547,74.0,0.0,120.0,0.0,0.0
3548,69.0,0.0,60.0,5.0,0.0
3549,69.0,0.0,60.0,10.0,0.0
3550,60.0,0.0,60.0,3.0,0.0
3551,69.0,35.0,60.0,6.0,0.0
3552,52.0,0.0,120.0,7.0,0.0
3553,40.0,0.0,120.0,4.0,0.0
3554,71.0,0.0,180.0,5.0,0.0
3555,68.0,0.0,30.0,10.0,0.0
3556,68.0,0.0,30.0,5.0,0.0
3557,59.0,30.0,60.0,3.0,0.0
3558,52.0,0.0,120.0,8.0,0.0
3559,71.0,0.0,180.0,11.0,0.0
3560,52.0,60.0,120.0,13.0,0.0
3561,71.0,30.0,180.0,6.0,0.0
3562,68.0,25.0,30.0,6.0,0.0
3563,74.0,0.0,60.0,6.0,0.0
3564,72.0,30.0,30.0,0.0,0.0
3565,57.0,0.0,30.0,3.0,0.0
3566,74.0,0.0,60.0,5.0,0.0
3567,74.0,0.0,60.0,10.0,0.0
3568,71.0,0.0,30.0,0.0,0.0
3569,56.0,0.0,30.0,3.0,0.0
3570,45.0,0.0,180.0,8.0,0.0
3571,72.0,0.0,300.0,0.0,0.0
3572,64.0,0.0,15.0,12.0,0.0
3573,45.0,0.0,60.0,4.0,0.0
3574,72.0,0.0,120.0,10.0,0.0
3575,72.0,0.0,120.0,5.0,0.0
3576,45.0,0.0,180.0,7.0,0.0
3577,45.0,30.0,180.0,13.0,0.0
3578,57.0,0.0,120.0,3.0,0.0
3579,69.0,30.0,30.0,6.0,0.0
3580,69.0,0.0,30.0,5.0,0.0
3581,69.0,0.0,30.0,11.0,0.0
3582,45.0,0.0,120.0,4.0,0.0
3583,71.0,0.0,30.0,6.0,0.0
3584,71.0,0.0,30.0,5.0,0.0
3585,71.0,0.0,30.0,11.0,0.0
3586,52.0,0.0,60.0,3.0,0.0
3587,72.0,0.0,180.0,11.0,0.0
3588,72.0,0.0,180.0,5.0,0.0
3589,72.0,0.0,15.0,6.0,0.0
3590,55.0,25.0,30.0,12.0,0.0
3591,46.0,0.0,30.0,4.0,0.0
3592,67.0,0.0,60.0,1.0,0.0
3593,63.0,0.0,60.0,2.0,0.0
3594,46.0,0.0,30.0,8.0,0.0
3595,46.0,0.0,30.0,13.0,0.0
3596,60.0,0.0,60.0,3.0,0.0
3597,46.0,5.0,30.0,7.0,0.0
3598,48.0,0.0,30.0,13.0,0.0
3599,48.0,0.0,30.0,7.0,0.0
3600,48.0,0.0,30.0,4.0,0.0
3601,48.0,60.0,30.0,8.0,0.0
3602,50.0,0.0,120.0,13.0,0.0
3603,66.0,0.0,60.0,1.0,0.0
3604,62.0,0.0,60.0,2.0,0.0
3605,50.0,0.0,120.0,4.0,0.0
3606,50.0,0.0,120.0,12.0,0.0
3607,50.0,35.0,120.0,8.0,0.0
3608,50.0,0.0,120.0,7.0,0.0
3609,60.0,30.0,30.0,2.0,0.0
3610,57.0,0.0,15.0,3.0,0.0
3611,63.0,0.0,60.0,11.0,0.0
3612,63.0,0.0,60.0,5.0,0.0
3613,63.0,0.0,60.0,0.0,0.0
3614,63.0,0.0,60.0,6.0,0.0
3615,72.0,0.0,120.0,1.0,0.0
3616,58.0,0.0,30.0,2.0,0.0
3617,57.0,0.0,60.0,2.0,0.0
3618,38.0,0.0,120.0,4.0,0.0
3619,62.0,0.0,30.0,0.0,0.0
3620,78.0,0.0,120.0,6.0,0.0
3621,78.0,0.0,120.0,5.0,0.0
3622,62.0,0.0,30.0,11.0,0.0
3623,54.0,30.0,60.0,3.0,0.0
3624,62.0,25.0,30.0,6.0,0.0
3625,38.0,0.0,120.0,7.0,0.0
3626,78.0,0.0,120.0,10.0,0.0
3627,38.0,0.0,120.0,13.0,0.0
3628,62.0,0.0,30.0,5.0,0.0
3629,38.0,0.0,120.0,8.0,0.0
3630,72.0,0.0,30.0,11.0,0.0
3631,72.0,0.0,30.0,0.0,0.0
3632,54.0,0.0,30.0,12.0,0.0
3633,72.0,0.0,30.0,6.0,0.0
3634,55.0,0.0,30.0,3.0,0.0
3635,72.0,25.0,30.0,5.0,0.0
3636,70.0,5.0,30.0,1.0,0.0
3637,69.0,60.0,30.0,1.0,0.0
3638,57.0,0.0,30.0,3.0,0.0
3639,71.0,0.0,60.0,6.0,0.0
3640,62.0,0.0,15.0,2.0,0.0
3641,71.0,11.0,60.0,5.0,0.0
3642,79.0,0.0,60.0,5.0,0.0
3643,43.0,0.0,60.0,7.0,0.0
3644,71.0,0.0,60.0,11.0,0.0
3645,43.0,0.0,60.0,4.0,0.0
3646,43.0,0.0,60.0,8.0,0.0
3647,79.0,0.0,60.0,10.0,0.0
3648,67.0,0.0,60.0,1.0,0.0
3649,50.0,0.0,60.0,12.0,0.0
3650,55.0,0.0,60.0,3.0,0.0
3651,71.0,0.0,60.0,0.0,0.0
3652,43.0,0.0,60.0,13.0,0.0
3653,79.0,0.0,60.0,6.0,0.0
3654,74.0,0.0,60.0,6.0,0.0
3655,65.0,35.0,60.0,6.0,0.0
3656,65.0,0.0,60.0,11.0,0.0
3657,74.0,0.0,60.0,5.0,0.0
3658,65.0,0.0,60.0,5.0,0.0
3659,74.0,0.0,60.0,10.0,0.0
3660,65.0,0.0,60.0,0.0,0.0
3661,62.0,0.0,60.0,1.0,0.0
3662,73.0,0.0,30.0,10.0,0.0
3663,61.0,0.0,30.0,1.0,0.0
3664,64.0,36.0,30.0,0.0,0.0
3665,64.0,0.0,30.0,5.0,0.0
3666,73.0,0.0,30.0,5.0,0.0
3667,64.0,0.0,30.0,11.0,0.0
3668,73.0,0.0,30.0,6.0,0.0
3669,64.0,0.0,30.0,6.0,0.0
3670,73.0,0.0,30.0,0.0,0.0
3671,73.0,85.0,30.0,11.0,0.0
3672,55.0,0.0,15.0,4.0,0.0
3673,64.0,0.0,30.0,1.0,0.0
3674,76.0,0.0,30.0,6.0,0.0
3675,73.0,0.0,30.0,6.0,0.0
3676,64.0,0.0,15.0,12.0,0.0
3677,43.0,0.0,15.0,8.0,0.0
3678,52.0,0.0,15.0,3.0,0.0
3679,58.0,0.0,15.0,2.0,0.0
3680,43.0,24.0,15.0,13.0,0.0
3681,55.0,0.0,15.0,7.0,0.0
3682,76.0,0.0,30.0,5.0,0.0
3683,73.0,0.0,30.0,5.0,0.0
3684,76.0,0.0,30.0,10.0,0.0
3685,69.0,11.0,60.0,1.0,0.0
3686,74.0,0.0,60.0,11.0,0.0
3687,53.0,49.0,60.0,4.0,0.0
3688,69.0,0.0,60.0,6.0,0.0
3689,53.0,0.0,60.0,7.0,0.0
3690,53.0,0.0,60.0,3.0,0.0
3691,57.0,0.0,60.0,2.0,0.0
3692,69.0,0.0,60.0,10.0,0.0
3693,41.0,0.0,60.0,8.0,0.0
3694,62.0,0.0,60.0,12.0,0.0
3695,74.0,0.0,60.0,0.0,0.0
3696,41.0,0.0,60.0,13.0,0.0
3697,74.0,0.0,60.0,5.0,0.0
3698,69.0,0.0,15.0,5.0,0.0
3699,69.0,0.0,60.0,11.0,0.0
3700,74.0,0.0,60.0,5.0,0.0
3701,74.0,0.0,60.0,10.0,0.0
3702,69.0,0.0,60.0,6.0,0.0
3703,74.0,0.0,15.0,6.0,0.0
3704,69.0,35.0,60.0,0.0,0.0
3705,62.0,0.0,60.0,1.0,0.0
3706,64.0,0.0,30.0,1.0,0.0
3707,76.0,0.0,30.0,10.0,0.0
3708,76.0,0.0,30.0,6.0,0.0
3709,68.0,0.0,30.0,6.0,0.0
3710,68.0,0.0,30.0,11.0,0.0
3711,68.0,0.0,30.0,5.0,0.0
3712,68.0,36.0,30.0,0.0,0.0
3713,76.0,0.0,30.0,5.0,0.0
3714,68.0,0.0,30.0,5.0,0.0
3715,64.0,0.0,15.0,2.0,0.0
3716,40.0,0.0,30.0,8.0,0.0
3717,59.0,0.0,30.0,12.0,0.0
3718,52.0,0.0,15.0,7.0,0.0
3719,68.0,0.0,30.0,6.0,0.0
3720,74.0,0.0,30.0,6.0,0.0
3721,68.0,0.0,30.0,1.0,0.0
3722,74.0,0.0,30.0,0.0,0.0
3723,74.0,0.0,30.0,5.0,0.0
3724,59.0,24.0,15.0,3.0,0.0
3725,74.0,0.0,30.0,11.0,0.0
3726,68.0,85.0,30.0,10.0,0.0
3727,40.0,0.0,30.0,13.0,0.0
3728,52.0,0.0,15.0,4.0,0.0
3729,69.0,0.0,60.0,6.0,0.0
3730,69.0,0.0,60.0,10.0,0.0
3731,57.0,0.0,60.0,3.0,0.0
3732,69.0,0.0,60.0,5.0,0.0
3733,64.0,0.0,60.0,2.0,0.0
3734,61.0,0.0,60.0,12.0,0.0
3735,73.0,0.0,60.0,11.0,0.0
3736,45.0,0.0,60.0,7.0,0.0
3737,45.0,0.0,60.0,13.0,0.0
3738,73.0,11.0,60.0,0.0,0.0
3739,69.0,0.0,60.0,1.0,0.0
3740,45.0,49.0,60.0,4.0,0.0
3741,45.0,0.0,60.0,8.0,0.0
3742,73.0,0.0,15.0,5.0,0.0
3743,67.0,0.0,60.0,11.0,0.0
3744,73.0,35.0,60.0,10.0,0.0
3745,73.0,0.0,60.0,1.0,0.0
3746,67.0,0.0,60.0,5.0,0.0
3747,73.0,0.0,15.0,6.0,0.0
3748,67.0,0.0,60.0,6.0,0.0
3749,67.0,0.0,60.0,0.0,0.0
3750,66.0,0.0,30.0,6.0,0.0
3751,66.0,0.0,30.0,0.0,0.0
3752,74.0,0.0,30.0,1.0,0.0
3753,74.0,0.0,30.0,6.0,0.0
3754,74.0,36.0,30.0,5.0,0.0
3755,66.0,0.0,30.0,11.0,0.0
3756,66.0,0.0,30.0,5.0,0.0
3757,74.0,0.0,30.0,10.0,0.0
3758,50.0,0.0,15.0,7.0,0.0
3759,50.0,0.0,15.0,4.0,0.0
3760,72.0,85.0,30.0,11.0,0.0
3761,66.0,0.0,30.0,1.0,0.0
3762,57.0,0.0,15.0,12.0,0.0
3763,38.0,24.0,15.0,8.0,0.0
3764,72.0,0.0,30.0,5.0,0.0
3765,57.0,0.0,15.0,3.0,0.0
3766,38.0,0.0,15.0,13.0,0.0
3767,72.0,0.0,30.0,6.0,0.0
3768,66.0,0.0,30.0,10.0,0.0
3769,72.0,0.0,30.0,0.0,0.0
3770,66.0,0.0,15.0,2.0,0.0
3771,66.0,0.0,30.0,5.0,0.0
3772,66.0,0.0,30.0,6.0,0.0
3773,67.0,0.0,60.0,10.0,0.0
3774,67.0,0.0,60.0,5.0,0.0
3775,67.0,0.0,60.0,1.0,0.0
3776,43.0,0.0,60.0,13.0,0.0
3777,55.0,0.0,60.0,3.0,0.0
3778,71.0,0.0,60.0,11.0,0.0
3779,67.0,0.0,60.0,6.0,0.0
3780,59.0,0.0,60.0,12.0,0.0
3781,43.0,0.0,60.0,7.0,0.0
3782,62.0,0.0,60.0,2.0,0.0
3783,43.0,0.0,60.0,8.0,0.0
3784,71.0,0.0,60.0,6.0,0.0
3785,43.0,49.0,60.0,4.0,0.0
3786,71.0,0.0,60.0,0.0,0.0
3787,71.0,0.0,60.0,6.0,0.0
3788,65.0,0.0,60.0,6.0,0.0
3789,65.0,0.0,60.0,5.0,0.0
3790,65.0,35.0,60.0,11.0,0.0
3791,71.0,0.0,60.0,1.0,0.0
3792,71.0,11.0,15.0,5.0,0.0
3793,65.0,0.0,60.0,0.0,0.0
3794,71.0,0.0,60.0,10.0,0.0
3795,72.0,0.0,30.0,10.0,0.0
3796,64.0,60.0,30.0,0.0,0.0
3797,72.0,0.0,30.0,1.0,0.0
3798,64.0,0.0,30.0,5.0,0.0
3799,72.0,0.0,30.0,5.0,0.0
3800,64.0,0.0,30.0,11.0,0.0
3801,72.0,0.0,30.0,6.0,0.0
3802,64.0,0.0,30.0,6.0,0.0
3803,64.0,0.0,30.0,1.0,0.0
3804,36.0,0.0,30.0,13.0,0.0
3805,64.0,0.0,30.0,10.0,0.0
3806,70.0,0.0,30.0,11.0,0.0
3807,36.0,0.0,30.0,8.0,0.0
3808,55.0,0.0,30.0,3.0,0.0
3809,70.0,0.0,30.0,0.0,0.0
3810,64.0,55.0,30.0,6.0,0.0
3811,70.0,0.0,30.0,6.0,0.0
3812,48.0,0.0,30.0,4.0,0.0
3813,64.0,0.0,30.0,5.0,0.0
3814,70.0,0.0,30.0,5.0,0.0
3815,55.0,0.0,30.0,12.0,0.0
3816,64.0,0.0,30.0,2.0,0.0
3817,48.0,0.0,30.0,7.0,0.0
3818,41.0,0.0,120.0,13.0,0.0
3819,65.0,0.0,60.0,10.0,0.0
3820,69.0,0.0,30.0,6.0,0.0
3821,41.0,0.0,120.0,4.0,0.0
3822,60.0,30.0,60.0,2.0,0.0
3823,69.0,0.0,30.0,11.0,0.0
3824,57.0,0.0,120.0,12.0,0.0
3825,65.0,25.0,30.0,6.0,0.0
3826,65.0,0.0,30.0,5.0,0.0
3827,41.0,0.0,120.0,7.0,0.0
3828,65.0,0.0,30.0,1.0,0.0
3829,53.0,5.0,30.0,3.0,0.0
3830,41.0,0.0,120.0,8.0,0.0
3831,69.0,0.0,30.0,5.0,0.0
3832,69.0,0.0,60.0,0.0,0.0
3833,52.0,0.0,30.0,3.0,0.0
3834,61.0,0.0,60.0,6.0,0.0
3835,69.0,35.0,60.0,1.0,0.0
3836,69.0,0.0,60.0,10.0,0.0
3837,69.0,0.0,60.0,5.0,0.0
3838,53.0,30.0,30.0,3.0,0.0
3839,61.0,0.0,60.0,5.0,0.0
3840,61.0,0.0,60.0,0.0,0.0
3841,61.0,0.0,60.0,11.0,0.0
3842,69.0,0.0,60.0,6.0,0.0
3843,64.0,0.0,60.0,2.0,0.0
3844,55.0,0.0,30.0,3.0,0.0
3845,62.0,0.0,240.0,1.0,0.0
3846,62.0,0.0,30.0,6.0,0.0
3847,62.0,0.0,30.0,0.0,0.0
3848,74.0,35.0,240.0,10.0,0.0
3849,74.0,0.0,240.0,5.0,0.0
3850,62.0,0.0,30.0,5.0,0.0
3851,74.0,0.0,240.0,6.0,0.0
3852,65.0,0.0,30.0,2.0,0.0
3853,62.0,25.0,30.0,11.0,0.0
3854,57.0,30.0,60.0,3.0,0.0
3855,46.0,0.0,60.0,7.0,0.0
3856,65.0,0.0,30.0,0.0,0.0
3857,62.0,0.0,60.0,2.0,0.0
3858,46.0,0.0,60.0,13.0,0.0
3859,58.0,5.0,30.0,3.0,0.0
3860,46.0,25.0,30.0,4.0,0.0
3861,46.0,0.0,60.0,8.0,0.0
3862,65.0,0.0,60.0,5.0,0.0
3863,65.0,0.0,60.0,11.0,0.0
3864,65.0,35.0,60.0,6.0,0.0
3865,57.0,0.0,30.0,3.0,0.0
3866,67.0,25.0,30.0,11.0,0.0
3867,67.0,60.0,60.0,6.0,0.0
3868,58.0,0.0,15.0,12.0,0.0
3869,55.0,0.0,120.0,3.0,0.0
3870,67.0,0.0,60.0,0.0,0.0
3871,67.0,0.0,60.0,5.0,0.0
3872,40.0,0.0,120.0,13.0,0.0
3873,40.0,0.0,120.0,8.0,0.0
3874,40.0,0.0,120.0,4.0,0.0
3875,40.0,0.0,120.0,7.0,0.0
3876,58.0,0.0,60.0,5.0,0.0
3877,58.0,0.0,60.0,6.0,0.0
3878,58.0,0.0,60.0,11.0,0.0
3879,58.0,0.0,60.0,0.0,0.0
3880,64.0,0.0,15.0,2.0,0.0
3881,73.0,35.0,60.0,5.0,0.0
3882,73.0,0.0,60.0,6.0,0.0
3883,57.0,0.0,30.0,6.0,0.0
3884,73.0,0.0,30.0,10.0,0.0
3885,57.0,0.0,30.0,3.0,0.0
3886,57.0,0.0,30.0,0.0,0.0
3887,61.0,0.0,30.0,1.0,0.0
3888,57.0,25.0,30.0,5.0,0.0
3889,57.0,0.0,30.0,11.0,0.0
3890,64.0,25.0,30.0,1.0,0.0
3891,45.0,0.0,60.0,7.0,0.0
3892,45.0,0.0,30.0,4.0,0.0
3893,61.0,0.0,60.0,2.0,0.0
3894,76.0,0.0,120.0,10.0,0.0
3895,67.0,0.0,60.0,6.0,0.0
3896,76.0,0.0,120.0,6.0,0.0
3897,45.0,0.0,60.0,8.0,0.0
3898,45.0,0.0,60.0,13.0,0.0
3899,52.0,60.0,60.0,3.0,0.0
3900,57.0,0.0,60.0,12.0,0.0
3901,67.0,0.0,30.0,0.0,0.0
3902,67.0,0.0,60.0,5.0,0.0
3903,76.0,30.0,120.0,5.0,0.0
3904,67.0,0.0,60.0,11.0,0.0
3905,38.0,0.0,60.0,4.0,0.0
3906,57.0,30.0,180.0,2.0,0.0
3907,65.0,0.0,180.0,5.0,0.0
3908,64.0,0.0,60.0,1.0,0.0
3909,53.0,0.0,240.0,3.0,0.0
3910,65.0,0.0,180.0,6.0,0.0
3911,65.0,0.0,180.0,11.0,0.0
3912,65.0,0.0,180.0,0.0,0.0
3913,57.0,0.0,120.0,12.0,0.0
3914,50.0,0.0,30.0,4.0,0.0
3915,69.0,0.0,60.0,5.0,0.0
3916,57.0,0.0,60.0,1.0,0.0
3917,69.0,35.0,60.0,10.0,0.0
3918,69.0,0.0,60.0,6.0,0.0
3919,38.0,0.0,15.0,8.0,0.0
3920,50.0,0.0,30.0,4.0,0.0
3921,38.0,30.0,15.0,13.0,0.0
3922,50.0,0.0,15.0,7.0,0.0
3923,50.0,0.0,15.0,7.0,0.0
3924,74.0,0.0,240.0,5.0,0.0
3925,38.0,25.0,30.0,8.0,0.0
3926,74.0,0.0,240.0,6.0,0.0
3927,50.0,0.0,30.0,4.0,0.0
3928,38.0,0.0,30.0,13.0,0.0
3929,62.0,0.0,240.0,1.0,0.0
3930,74.0,0.0,240.0,10.0,0.0
3931,58.0,0.0,60.0,12.0,0.0
3932,67.0,30.0,30.0,0.0,0.0
3933,38.0,0.0,60.0,8.0,0.0
3934,50.0,60.0,60.0,4.0,0.0
3935,67.0,0.0,30.0,11.0,0.0
3936,67.0,0.0,30.0,6.0,0.0
3937,38.0,0.0,60.0,13.0,0.0
3938,50.0,0.0,60.0,7.0,0.0
3939,55.0,0.0,30.0,2.0,0.0
3940,67.0,0.0,30.0,5.0,0.0
3941,69.0,0.0,30.0,6.0,0.0
3942,69.0,0.0,30.0,5.0,0.0
3943,69.0,0.0,30.0,11.0,0.0
3944,69.0,0.0,30.0,0.0,0.0
3945,53.0,0.0,30.0,2.0,0.0
3946,67.0,0.0,180.0,5.0,0.0
3947,52.0,0.0,60.0,7.0,0.0
3948,67.0,0.0,180.0,0.0,0.0
3949,40.0,0.0,60.0,13.0,0.0
3950,58.0,0.0,180.0,12.0,0.0
3951,40.0,60.0,60.0,8.0,0.0
3952,55.0,30.0,180.0,2.0,0.0
3953,52.0,0.0,60.0,3.0,0.0
3954,67.0,0.0,180.0,11.0,0.0
3955,52.0,0.0,60.0,4.0,0.0
3956,67.0,0.0,180.0,6.0,0.0
3957,46.0,0.0,60.0,4.0,0.0
3958,34.0,0.0,60.0,13.0,0.0
3959,46.0,35.0,60.0,7.0,0.0
3960,50.0,0.0,60.0,3.0,0.0
3961,34.0,0.0,60.0,8.0,0.0
3962,73.0,0.0,120.0,10.0,0.0
3963,61.0,0.0,30.0,1.0,0.0
3964,73.0,0.0,120.0,5.0,0.0
3965,45.0,25.0,30.0,4.0,0.0
3966,52.0,0.0,120.0,3.0,0.0
3967,33.0,0.0,30.0,13.0,0.0
3968,45.0,0.0,30.0,7.0,0.0
3969,73.0,60.0,120.0,6.0,0.0
3970,33.0,0.0,30.0,8.0,0.0
3971,52.0,0.0,60.0,4.0,0.0
3972,69.0,30.0,30.0,0.0,0.0
3973,69.0,0.0,30.0,6.0,0.0
3974,40.0,0.0,60.0,13.0,0.0
3975,69.0,0.0,30.0,5.0,0.0
3976,69.0,0.0,30.0,11.0,0.0
3977,57.0,0.0,30.0,12.0,0.0
3978,52.0,0.0,60.0,7.0,0.0
3979,61.0,0.0,60.0,1.0,0.0
3980,40.0,0.0,60.0,8.0,0.0
3981,53.0,0.0,30.0,2.0,0.0
3982,70.0,0.0,30.0,11.0,0.0
3983,52.0,0.0,30.0,2.0,0.0
3984,70.0,0.0,30.0,0.0,0.0
3985,70.0,0.0,30.0,5.0,0.0
3986,70.0,0.0,30.0,6.0,0.0
3987,55.0,0.0,30.0,12.0,0.0
3988,53.0,0.0,60.0,4.0,0.0
3989,41.0,60.0,60.0,8.0,0.0
3990,41.0,0.0,60.0,13.0,0.0
3991,57.0,0.0,120.0,2.0,0.0
3992,53.0,0.0,120.0,12.0,0.0
3993,53.0,0.0,60.0,7.0,0.0
3994,74.0,0.0,300.0,10.0,0.0
3995,62.0,60.0,300.0,1.0,0.0
3996,69.0,0.0,180.0,6.0,0.0
3997,74.0,0.0,300.0,6.0,0.0
3998,74.0,0.0,300.0,5.0,0.0
3999,69.0,0.0,180.0,5.0,0.0
4000,69.0,30.0,180.0,0.0,0.0
4001,50.0,0.0,60.0,3.0,0.0
4002,69.0,0.0,180.0,11.0,0.0
4003,46.0,0.0,60.0,7.0,0.0
4004,34.0,0.0,60.0,13.0,0.0
4005,34.0,0.0,60.0,8.0,0.0
4006,46.0,0.0,60.0,4.0,0.0
4007,62.0,35.0,60.0,3.0,0.0
4008,33.0,25.0,30.0,8.0,0.0
4009,60.0,0.0,30.0,3.0,0.0
4010,33.0,0.0,30.0,13.0,0.0
4011,45.0,0.0,30.0,7.0,0.0
4012,45.0,0.0,30.0,4.0,0.0
4013,58.0,0.0,30.0,3.0,0.0
4014,42.0,0.0,60.0,13.0,0.0
4015,70.0,0.0,30.0,11.0,0.0
4016,54.0,0.0,60.0,4.0,0.0
4017,42.0,0.0,60.0,8.0,0.0
4018,70.0,0.0,30.0,6.0,0.0
4019,50.0,0.0,60.0,12.0,0.0
4020,54.0,0.0,60.0,7.0,0.0
4021,70.0,30.0,30.0,0.0,0.0
4022,62.0,0.0,120.0,2.0,0.0
4023,70.0,0.0,30.0,5.0,0.0
4024,72.0,30.0,30.0,6.0,0.0
4025,72.0,0.0,30.0,5.0,0.0
4026,57.0,0.0,30.0,3.0,0.0
4027,72.0,0.0,30.0,0.0,0.0
4028,72.0,0.0,30.0,11.0,0.0
4029,43.0,0.0,30.0,8.0,0.0
4030,55.0,0.0,30.0,7.0,0.0
4031,55.0,30.0,30.0,4.0,0.0
4032,55.0,0.0,120.0,12.0,0.0
4033,43.0,0.0,30.0,13.0,0.0
4034,70.0,0.0,300.0,11.0,0.0
4035,70.0,0.0,300.0,0.0,0.0
4036,58.0,30.0,120.0,3.0,0.0
4037,41.0,0.0,30.0,8.0,0.0
4038,53.0,0.0,30.0,7.0,0.0
4039,53.0,0.0,30.0,4.0,0.0
4040,41.0,0.0,30.0,13.0,0.0
4041,51.0,30.0,90.0,7.0,0.0
4042,72.0,0.0,60.0,5.0,0.0
4043,51.0,0.0,90.0,4.0,0.0
4044,72.0,0.0,60.0,1.0,0.0
4045,72.0,0.0,60.0,6.0,0.0
4046,39.0,0.0,90.0,13.0,0.0
4047,69.0,0.0,60.0,2.0,0.0
4048,39.0,0.0,90.0,8.0,0.0
4049,72.0,0.0,60.0,10.0,0.0
4050,70.0,0.0,60.0,5.0,0.0
4051,70.0,0.0,60.0,10.0,0.0
4052,67.0,0.0,60.0,2.0,0.0
4053,70.0,0.0,60.0,6.0,0.0
4054,70.0,30.0,60.0,1.0,0.0
4055,38.0,0.0,30.0,13.0,0.0
4056,50.0,0.0,30.0,4.0,0.0
4057,50.0,0.0,30.0,7.0,0.0
4058,38.0,0.0,30.0,8.0,0.0
4059,65.0,0.0,60.0,2.0,0.0
4060,69.0,0.0,60.0,5.0,0.0
4061,53.0,0.0,60.0,3.0,0.0
4062,69.0,0.0,60.0,6.0,0.0
4063,37.0,0.0,30.0,13.0,0.0
4064,37.0,0.0,30.0,8.0,0.0
4065,62.0,0.0,60.0,12.0,0.0
4066,49.0,30.0,30.0,7.0,0.0
4067,49.0,0.0,30.0,4.0,0.0
4068,69.0,35.0,60.0,10.0,0.0
4069,69.0,0.0,60.0,1.0,0.0
4070,38.0,0.0,30.0,13.0,0.0
4071,38.0,0.0,30.0,8.0,0.0
4072,50.0,0.0,30.0,4.0,0.0
4073,50.0,0.0,30.0,7.0,0.0
4074,67.0,0.0,60.0,1.0,0.0
4075,49.0,25.0,30.0,7.0,0.0
4076,37.0,0.0,60.0,8.0,0.0
4077,67.0,0.0,120.0,5.0,0.0
4078,67.0,60.0,120.0,6.0,0.0
4079,37.0,60.0,60.0,13.0,0.0
4080,67.0,0.0,120.0,10.0,0.0
4081,64.0,0.0,180.0,2.0,0.0
4082,49.0,0.0,60.0,4.0,0.0
4083,64.0,0.0,120.0,12.0,0.0
4084,55.0,0.0,120.0,3.0,0.0
4085,47.0,0.0,60.0,7.0,0.0
4086,64.0,0.0,60.0,11.0,0.0
4087,64.0,0.0,60.0,6.0,0.0
4088,35.0,0.0,60.0,8.0,0.0
4089,64.0,0.0,60.0,0.0,0.0
4090,64.0,0.0,60.0,5.0,0.0
4091,70.0,0.0,60.0,1.0,0.0
4092,47.0,0.0,60.0,4.0,0.0
4093,35.0,0.0,60.0,13.0,0.0
4094,69.0,0.0,60.0,5.0,0.0
4095,37.0,0.0,60.0,8.0,0.0
4096,49.0,0.0,60.0,4.0,0.0
4097,76.0,0.0,180.0,5.0,0.0
4098,76.0,0.0,180.0,6.0,0.0
4099,49.0,0.0,60.0,7.0,0.0
4100,37.0,0.0,60.0,13.0,0.0
4101,69.0,0.0,60.0,0.0,0.0
4102,69.0,30.0,60.0,6.0,0.0
4103,69.0,0.0,60.0,11.0,0.0
4104,76.0,0.0,180.0,10.0,0.0
4105,64.0,0.0,180.0,1.0,0.0
4106,57.0,0.0,60.0,3.0,0.0
4107,45.0,60.0,60.0,4.0,0.0
4108,67.0,0.0,60.0,0.0,0.0
4109,33.0,0.0,60.0,13.0,0.0
4110,61.0,0.0,60.0,12.0,0.0
4111,67.0,0.0,60.0,11.0,0.0
4112,62.0,30.0,30.0,2.0,0.0
4113,57.0,0.0,120.0,3.0,0.0
4114,45.0,0.0,60.0,7.0,0.0
4115,67.0,0.0,60.0,6.0,0.0
4116,67.0,0.0,60.0,5.0,0.0
4117,33.0,0.0,60.0,8.0,0.0
4118,64.0,0.0,30.0,2.0,0.0
4119,57.0,0.0,120.0,12.0,0.0
4120,50.0,0.0,60.0,7.0,0.0
4121,38.0,0.0,60.0,8.0,0.0
4122,65.0,0.0,60.0,11.0,0.0
4123,38.0,0.0,60.0,13.0,0.0
4124,65.0,0.0,60.0,2.0,0.0
4125,65.0,0.0,60.0,6.0,0.0
4126,65.0,30.0,60.0,0.0,0.0
4127,65.0,0.0,60.0,5.0,0.0
4128,50.0,0.0,60.0,4.0,0.0
4129,69.0,0.0,60.0,10.0,0.0
4130,69.0,0.0,60.0,5.0,0.0
4131,64.0,0.0,30.0,5.0,0.0
4132,52.0,0.0,60.0,7.0,0.0
4133,40.0,0.0,60.0,8.0,0.0
4134,52.0,0.0,60.0,4.0,0.0
4135,55.0,0.0,60.0,3.0,0.0
4136,40.0,0.0,60.0,13.0,0.0
4137,64.0,30.0,30.0,6.0,0.0
4138,64.0,0.0,30.0,11.0,0.0
4139,69.0,0.0,60.0,1.0,0.0
4140,67.0,0.0,60.0,2.0,0.0
4141,64.0,0.0,30.0,0.0,0.0
4142,62.0,60.0,30.0,6.0,0.0
4143,62.0,0.0,30.0,0.0,0.0
4144,62.0,0.0,30.0,11.0,0.0
4145,62.0,0.0,30.0,5.0,0.0
4146,41.0,0.0,60.0,13.0,0.0
4147,53.0,0.0,60.0,4.0,0.0
4148,53.0,0.0,60.0,7.0,0.0
4149,41.0,0.0,60.0,8.0,0.0
4150,74.0,60.0,60.0,10.0,0.0
4151,53.0,0.0,60.0,3.0,0.0
4152,74.0,0.0,60.0,1.0,0.0
4153,69.0,0.0,180.0,0.0,0.0
4154,69.0,0.0,15.0,6.0,0.0
4155,74.0,0.0,60.0,6.0,0.0
4156,69.0,0.0,180.0,11.0,0.0
4157,69.0,0.0,60.0,2.0,0.0
4158,74.0,0.0,60.0,5.0,0.0
4159,69.0,0.0,180.0,5.0,0.0
4160,72.0,0.0,60.0,5.0,0.0
4161,53.0,0.0,60.0,12.0,0.0
4162,50.0,0.0,60.0,4.0,0.0
4163,57.0,0.0,60.0,3.0,0.0
4164,38.0,60.0,60.0,8.0,0.0
4165,72.0,0.0,60.0,6.0,0.0
4166,72.0,0.0,60.0,10.0,0.0
4167,65.0,0.0,60.0,2.0,0.0
4168,38.0,0.0,60.0,13.0,0.0
4169,72.0,0.0,60.0,1.0,0.0
4170,50.0,0.0,60.0,7.0,0.0
4171,70.0,0.0,300.0,5.0,0.0
4172,58.0,0.0,60.0,3.0,0.0
4173,43.0,0.0,60.0,13.0,0.0
4174,70.0,0.0,300.0,6.0,0.0
4175,70.0,0.0,300.0,1.0,0.0
4176,43.0,0.0,60.0,4.0,0.0
4177,62.0,0.0,180.0,2.0,0.0
4178,43.0,60.0,60.0,7.0,0.0
4179,43.0,0.0,60.0,8.0,0.0
4180,70.0,0.0,300.0,10.0,0.0
4181,55.0,0.0,120.0,12.0,0.0
4182,57.0,0.0,60.0,3.0,0.0
4183,45.0,0.0,60.0,13.0,0.0
4184,45.0,0.0,60.0,8.0,0.0
4185,62.0,0.0,60.0,6.0,0.0
4186,45.0,0.0,60.0,4.0,0.0
4187,62.0,60.0,60.0,0.0,0.0
4188,45.0,0.0,60.0,7.0,0.0
4189,62.0,0.0,60.0,5.0,0.0
4190,62.0,0.0,60.0,11.0,0.0
4191,46.0,0.0,60.0,7.0,0.0
4192,55.0,0.0,240.0,3.0,0.0
4193,67.0,0.0,60.0,5.0,0.0
4194,46.0,0.0,60.0,4.0,0.0
4195,46.0,0.0,60.0,8.0,0.0
4196,46.0,0.0,60.0,13.0,0.0
4197,67.0,0.0,60.0,6.0,0.0
4198,67.0,0.0,60.0,11.0,0.0
4199,67.0,30.0,60.0,0.0,0.0
4200,65.0,0.0,60.0,5.0,0.0
4201,43.0,0.0,60.0,8.0,0.0
4202,43.0,0.0,60.0,7.0,0.0
4203,65.0,0.0,60.0,6.0,0.0
4204,43.0,60.0,60.0,13.0,0.0
4205,58.0,0.0,60.0,12.0,0.0
4206,43.0,0.0,60.0,4.0,0.0
4207,65.0,0.0,60.0,11.0,0.0
4208,61.0,30.0,30.0,2.0,0.0
4209,65.0,0.0,60.0,0.0,0.0
4210,62.0,0.0,30.0,2.0,0.0
4211,49.0,0.0,60.0,8.0,0.0
4212,64.0,0.0,300.0,0.0,0.0
4213,52.0,60.0,120.0,12.0,0.0
4214,64.0,0.0,180.0,2.0,0.0
4215,49.0,60.0,60.0,4.0,0.0
4216,49.0,0.0,60.0,7.0,0.0
4217,64.0,0.0,300.0,11.0,0.0
4218,49.0,0.0,60.0,13.0,0.0
4219,64.0,0.0,60.0,5.0,0.0
4220,64.0,0.0,60.0,6.0,0.0
4221,47.0,0.0,60.0,13.0,0.0
4222,47.0,0.0,60.0,7.0,0.0
4223,47.0,0.0,60.0,8.0,0.0
4224,47.0,0.0,60.0,4.0,0.0
4225,64.0,0.0,60.0,1.0,0.0
4226,64.0,0.0,60.0,10.0,0.0
4227,49.0,0.0,60.0,8.0,0.0
4228,49.0,0.0,60.0,13.0,0.0
4229,69.0,0.0,60.0,10.0,0.0
4230,69.0,0.0,60.0,5.0,0.0
4231,69.0,0.0,60.0,6.0,0.0
4232,49.0,0.0,60.0,7.0,0.0
4233,49.0,0.0,60.0,4.0,0.0
4234,69.0,0.0,60.0,1.0,0.0
4235,45.0,0.0,60.0,4.0,0.0
4236,45.0,0.0,60.0,8.0,0.0
4237,67.0,0.0,60.0,6.0,0.0
4238,67.0,0.0,60.0,5.0,0.0
4239,45.0,0.0,60.0,13.0,0.0
4240,67.0,60.0,60.0,10.0,0.0
4241,45.0,0.0,60.0,7.0,0.0
4242,57.0,30.0,15.0,3.0,0.0
4243,62.0,30.0,30.0,2.0,0.0
4244,67.0,0.0,60.0,1.0,0.0
4245,61.0,0.0,60.0,12.0,0.0
4246,64.0,0.0,30.0,2.0,0.0
4247,50.0,0.0,60.0,4.0,0.0
4248,65.0,0.0,300.0,5.0,0.0
4249,57.0,0.0,15.0,3.0,0.0
4250,57.0,0.0,120.0,12.0,0.0
4251,50.0,60.0,60.0,13.0,0.0
4252,65.0,0.0,300.0,6.0,0.0
4253,50.0,0.0,60.0,7.0,0.0
4254,65.0,60.0,300.0,1.0,0.0
4255,50.0,0.0,60.0,8.0,0.0
4256,65.0,0.0,300.0,10.0,0.0
4257,65.0,0.0,60.0,2.0,0.0
4258,48.0,0.0,60.0,8.0,0.0
4259,57.0,0.0,60.0,11.0,0.0
4260,48.0,0.0,60.0,4.0,0.0
4261,64.0,0.0,60.0,2.0,0.0
4262,57.0,0.0,60.0,0.0,0.0
4263,57.0,60.0,60.0,6.0,0.0
4264,48.0,0.0,60.0,7.0,0.0
4265,48.0,0.0,60.0,13.0,0.0
4266,46.0,30.0,60.0,13.0,0.0
4267,62.0,0.0,60.0,11.0,0.0
4268,62.0,0.0,60.0,0.0,0.0
4269,46.0,0.0,60.0,8.0,0.0
4270,62.0,0.0,60.0,6.0,0.0
4271,46.0,0.0,60.0,7.0,0.0
4272,46.0,0.0,60.0,4.0,0.0
4273,62.0,0.0,60.0,5.0,0.0
4274,62.0,0.0,120.0,2.0,0.0
4275,60.0,0.0,60.0,11.0,0.0
4276,45.0,0.0,60.0,8.0,0.0
4277,55.0,30.0,30.0,3.0,0.0
4278,45.0,0.0,60.0,7.0,0.0
4279,60.0,0.0,60.0,0.0,0.0
4280,45.0,0.0,60.0,13.0,0.0
4281,45.0,0.0,60.0,4.0,0.0
4282,60.0,0.0,60.0,5.0,0.0
4283,57.0,0.0,60.0,12.0,0.0
4284,60.0,0.0,60.0,6.0,0.0
4285,57.0,60.0,30.0,3.0,0.0
4286,62.0,0.0,120.0,12.0,0.0
4287,43.0,0.0,120.0,7.0,0.0
4288,43.0,0.0,120.0,13.0,0.0
4289,58.0,0.0,120.0,0.0,0.0
4290,58.0,0.0,60.0,5.0,0.0
4291,58.0,0.0,120.0,11.0,0.0
4292,43.0,0.0,120.0,8.0,0.0
4293,58.0,0.0,60.0,3.0,0.0
4294,58.0,35.0,120.0,6.0,0.0
4295,43.0,0.0,120.0,4.0,0.0
4296,73.0,0.0,60.0,10.0,0.0
4297,73.0,0.0,60.0,1.0,0.0
4298,55.0,0.0,60.0,3.0,0.0
4299,64.0,0.0,60.0,2.0,0.0
4300,73.0,0.0,60.0,6.0,0.0
4301,64.0,0.0,60.0,5.0,0.0
4302,73.0,0.0,60.0,5.0,0.0
4303,65.0,0.0,30.0,2.0,0.0
4304,74.0,0.0,30.0,10.0,0.0
4305,45.0,0.0,120.0,13.0,0.0
4306,57.0,35.0,120.0,11.0,0.0
4307,57.0,0.0,120.0,0.0,0.0
4308,45.0,0.0,120.0,7.0,0.0
4309,45.0,0.0,120.0,4.0,0.0
4310,53.0,0.0,120.0,3.0,0.0
4311,74.0,0.0,30.0,1.0,0.0
4312,74.0,0.0,30.0,5.0,0.0
4313,65.0,85.0,30.0,5.0,0.0
4314,45.0,0.0,120.0,8.0,0.0
4315,57.0,0.0,120.0,6.0,0.0
4316,74.0,0.0,30.0,6.0,0.0
4317,65.0,0.0,60.0,6.0,0.0
4318,62.0,0.0,60.0,2.0,0.0
4319,62.0,0.0,60.0,5.0,0.0
4320,65.0,0.0,60.0,10.0,0.0
4321,65.0,0.0,60.0,1.0,0.0
4322,65.0,0.0,60.0,5.0,0.0
4323,57.0,0.0,60.0,12.0,0.0
4324,55.0,0.0,30.0,6.0,0.0
4325,61.0,0.0,30.0,2.0,0.0
4326,64.0,0.0,30.0,6.0,0.0
4327,46.0,0.0,120.0,13.0,0.0
4328,46.0,0.0,120.0,8.0,0.0
4329,55.0,85.0,30.0,0.0,0.0
4330,46.0,0.0,120.0,7.0,0.0
4331,61.0,0.0,30.0,5.0,0.0
4332,64.0,0.0,30.0,5.0,0.0
4333,64.0,0.0,120.0,12.0,0.0
4334,64.0,0.0,30.0,1.0,0.0
4335,55.0,0.0,30.0,3.0,0.0
4336,64.0,0.0,30.0,10.0,0.0
4337,46.0,0.0,120.0,4.0,0.0
4338,55.0,0.0,30.0,11.0,0.0
4339,55.0,0.0,60.0,3.0,0.0
4340,61.0,0.0,60.0,1.0,0.0
4341,67.0,0.0,60.0,2.0,0.0
4342,64.0,0.0,60.0,11.0,0.0
4343,64.0,0.0,60.0,5.0,0.0
4344,73.0,60.0,60.0,6.0,0.0
4345,73.0,0.0,60.0,10.0,0.0
4346,64.0,0.0,60.0,6.0,0.0
4347,73.0,0.0,60.0,5.0,0.0
4348,64.0,0.0,60.0,0.0,0.0
4349,45.0,60.0,60.0,13.0,0.0
4350,45.0,0.0,60.0,8.0,0.0
4351,74.0,0.0,60.0,5.0,0.0
4352,65.0,0.0,60.0,5.0,0.0
4353,65.0,0.0,60.0,2.0,0.0
4354,57.0,0.0,60.0,3.0,0.0
4355,65.0,0.0,60.0,11.0,0.0
4356,62.0,0.0,60.0,1.0,0.0
4357,45.0,0.0,60.0,4.0,0.0
4358,74.0,0.0,60.0,10.0,0.0
4359,65.0,0.0,60.0,0.0,0.0
4360,45.0,0.0,60.0,7.0,0.0
4361,65.0,0.0,60.0,6.0,0.0
4362,74.0,0.0,60.0,6.0,0.0
4363,43.0,0.0,60.0,8.0,0.0
4364,67.0,0.0,60.0,11.0,0.0
4365,67.0,0.0,60.0,0.0,0.0
4366,76.0,0.0,60.0,10.0,0.0
4367,43.0,35.0,60.0,4.0,0.0
4368,49.0,0.0,60.0,3.0,0.0
4369,64.0,0.0,60.0,1.0,0.0
4370,76.0,0.0,60.0,6.0,0.0
4371,43.0,0.0,60.0,7.0,0.0
4372,67.0,0.0,60.0,6.0,0.0
4373,58.0,0.0,60.0,12.0,0.0
4374,67.0,0.0,60.0,5.0,0.0
4375,76.0,0.0,60.0,5.0,0.0
4376,43.0,0.0,60.0,13.0,0.0
4377,64.0,0.0,60.0,2.0,0.0
4378,69.0,25.0,30.0,0.0,0.0
4379,65.0,0.0,30.0,1.0,0.0
4380,69.0,0.0,30.0,11.0,0.0
4381,69.0,0.0,30.0,10.0,0.0
4382,41.0,0.0,60.0,7.0,0.0
4383,50.0,0.0,30.0,3.0,0.0
4384,57.0,0.0,120.0,12.0,0.0
4385,41.0,60.0,60.0,8.0,0.0
4386,69.0,0.0,30.0,5.0,0.0
4387,41.0,0.0,60.0,13.0,0.0
4388,69.0,0.0,30.0,6.0,0.0
4389,62.0,0.0,30.0,2.0,0.0
4390,41.0,0.0,60.0,4.0,0.0
4391,70.0,0.0,60.0,6.0,0.0
4392,61.0,0.0,60.0,6.0,0.0
4393,61.0,35.0,60.0,10.0,0.0
4394,40.0,0.0,60.0,7.0,0.0
4395,70.0,0.0,60.0,1.0,0.0
4396,52.0,0.0,60.0,3.0,0.0
4397,40.0,0.0,60.0,4.0,0.0
4398,40.0,0.0,60.0,13.0,0.0
4399,70.0,0.0,60.0,11.0,0.0
4400,61.0,0.0,60.0,0.0,0.0
4401,70.0,0.0,60.0,5.0,0.0
4402,61.0,0.0,60.0,5.0,0.0
4403,40.0,0.0,60.0,8.0,0.0
4404,55.0,0.0,60.0,2.0,0.0
4405,53.0,0.0,30.0,2.0,0.0
4406,41.0,60.0,60.0,13.0,0.0
4407,62.0,0.0,30.0,0.0,0.0
4408,41.0,0.0,60.0,7.0,0.0
4409,69.0,0.0,30.0,1.0,0.0
4410,41.0,0.0,60.0,4.0,0.0
4411,45.0,0.0,30.0,3.0,0.0
4412,62.0,0.0,30.0,5.0,0.0
4413,69.0,0.0,30.0,5.0,0.0
4414,62.0,0.0,30.0,6.0,0.0
4415,62.0,25.0,30.0,10.0,0.0
4416,69.0,0.0,30.0,11.0,0.0
4417,41.0,0.0,60.0,8.0,0.0
4418,69.0,0.0,30.0,6.0,0.0
4419,62.0,0.0,120.0,11.0,0.0
4420,43.0,0.0,60.0,8.0,0.0
4421,43.0,0.0,60.0,4.0,0.0
4422,70.0,0.0,60.0,5.0,0.0
4423,62.0,0.0,120.0,6.0,0.0
4424,70.0,0.0,60.0,6.0,0.0
4425,58.0,0.0,60.0,3.0,0.0
4426,52.0,0.0,60.0,2.0,0.0
4427,62.0,0.0,60.0,12.0,0.0
4428,70.0,60.0,60.0,0.0,0.0
4429,62.0,0.0,120.0,5.0,0.0
4430,70.0,0.0,60.0,10.0,0.0
4431,43.0,0.0,60.0,7.0,0.0
4432,62.0,0.0,60.0,1.0,0.0
4433,43.0,0.0,60.0,13.0,0.0
4434,65.0,0.0,60.0,10.0,0.0
4435,45.0,0.0,540.0,8.0,0.0
4436,57.0,0.0,60.0,3.0,0.0
4437,45.0,0.0,540.0,13.0,0.0
4438,45.0,0.0,540.0,4.0,0.0
4439,57.0,30.0,60.0,12.0,0.0
4440,53.0,0.0,60.0,2.0,0.0
4441,65.0,0.0,60.0,6.0,0.0
4442,45.0,0.0,540.0,7.0,0.0
4443,65.0,0.0,60.0,0.0,0.0
4444,62.0,0.0,60.0,1.0,0.0
4445,65.0,0.0,60.0,5.0,0.0
4446,55.0,0.0,30.0,12.0,0.0
4447,61.0,0.0,120.0,6.0,0.0
4448,64.0,0.0,120.0,6.0,0.0
4449,55.0,0.0,30.0,2.0,0.0
4450,58.0,30.0,30.0,3.0,0.0
4451,64.0,0.0,120.0,10.0,0.0
4452,61.0,0.0,120.0,1.0,0.0
4453,61.0,0.0,120.0,11.0,0.0
4454,64.0,0.0,120.0,0.0,0.0
4455,61.0,0.0,120.0,5.0,0.0
4456,64.0,0.0,120.0,5.0,0.0
4457,57.0,0.0,30.0,3.0,0.0
4458,57.0,0.0,30.0,2.0,0.0
4459,53.0,60.0,30.0,12.0,0.0
4460,52.0,0.0,60.0,12.0,0.0
4461,58.0,0.0,60.0,2.0,0.0
4462,55.0,60.0,60.0,3.0,0.0
4463,65.0,0.0,60.0,10.0,0.0
4464,62.0,0.0,60.0,1.0,0.0
4465,57.0,0.0,60.0,12.0,0.0
4466,57.0,0.0,60.0,2.0,0.0
4467,53.0,0.0,60.0,3.0,0.0
4468,65.0,35.0,60.0,0.0,0.0
4469,62.0,0.0,60.0,6.0,0.0
4470,65.0,0.0,60.0,6.0,0.0
4471,65.0,0.0,60.0,5.0,0.0
4472,62.0,0.0,60.0,5.0,0.0
4473,62.0,0.0,60.0,11.0,0.0
4474,55.0,0.0,30.0,2.0,0.0
4475,67.0,0.0,30.0,10.0,0.0
4476,67.0,0.0,30.0,6.0,0.0
4477,61.0,0.0,30.0,12.0,0.0
4478,64.0,0.0,30.0,5.0,0.0
4479,67.0,0.0,30.0,5.0,0.0
4480,64.0,0.0,30.0,6.0,0.0
4481,52.0,0.0,120.0,3.0,0.0
4482,64.0,0.0,30.0,1.0,0.0
4483,64.0,0.0,30.0,11.0,0.0
4484,67.0,85.0,30.0,0.0,0.0
4485,61.0,0.0,60.0,2.0,0.0
4486,67.0,0.0,60.0,1.0,0.0
4487,52.0,0.0,60.0,12.0,0.0
4488,70.0,0.0,60.0,5.0,0.0
4489,67.0,0.0,60.0,5.0,0.0
4490,70.0,0.0,60.0,0.0,0.0
4491,67.0,0.0,60.0,6.0,0.0
4492,70.0,60.0,60.0,6.0,0.0
4493,70.0,0.0,60.0,10.0,0.0
4494,67.0,0.0,60.0,11.0,0.0
4495,65.0,0.0,60.0,6.0,0.0
4496,53.0,0.0,60.0,3.0,0.0
4497,65.0,0.0,60.0,1.0,0.0
4498,65.0,0.0,60.0,11.0,0.0
4499,69.0,60.0,60.0,0.0,0.0
4500,69.0,0.0,60.0,5.0,0.0
4501,65.0,0.0,60.0,5.0,0.0
4502,57.0,0.0,60.0,12.0,0.0
4503,62.0,0.0,60.0,2.0,0.0
4504,69.0,0.0,60.0,6.0,0.0
4505,69.0,0.0,60.0,10.0,0.0
4506,64.0,0.0,60.0,2.0,0.0
4507,67.0,0.0,60.0,5.0,0.0
4508,64.0,0.0,60.0,5.0,0.0
4509,67.0,0.0,60.0,6.0,0.0
4510,64.0,0.0,60.0,1.0,0.0
4511,55.0,0.0,60.0,3.0,0.0
4512,49.0,0.0,60.0,12.0,0.0
4513,64.0,60.0,60.0,6.0,0.0
4514,64.0,0.0,60.0,11.0,0.0
4515,67.0,0.0,60.0,0.0,0.0
4516,67.0,0.0,60.0,10.0,0.0
4517,65.0,0.0,120.0,6.0,0.0
4518,65.0,0.0,120.0,0.0,0.0
4519,62.0,0.0,120.0,11.0,0.0
4520,62.0,60.0,120.0,6.0,0.0
4521,65.0,0.0,120.0,5.0,0.0
4522,62.0,0.0,120.0,5.0,0.0
4523,57.0,0.0,60.0,3.0,0.0
4524,65.0,60.0,60.0,2.0,0.0
4525,65.0,0.0,120.0,10.0,0.0
4526,53.0,0.0,60.0,12.0,0.0
4527,62.0,0.0,120.0,1.0,0.0
4528,58.0,0.0,60.0,3.0,0.0
4529,43.0,0.0,60.0,4.0,0.0
4530,43.0,0.0,60.0,7.0,0.0
4531,62.0,0.0,60.0,2.0,0.0
4532,55.0,0.0,120.0,12.0,0.0
4533,43.0,0.0,60.0,8.0,0.0
4534,43.0,0.0,60.0,13.0,0.0
4535,45.0,0.0,120.0,13.0,0.0
4536,64.0,0.0,120.0,5.0,0.0
4537,61.0,0.0,120.0,5.0,0.0
4538,45.0,0.0,120.0,7.0,0.0
4539,61.0,0.0,120.0,6.0,0.0
4540,64.0,0.0,120.0,6.0,0.0
4541,45.0,0.0,120.0,4.0,0.0
4542,64.0,0.0,120.0,10.0,0.0
4543,61.0,0.0,120.0,1.0,0.0
4544,45.0,0.0,120.0,8.0,0.0
4545,57.0,0.0,120.0,2.0,0.0
4546,61.0,0.0,120.0,11.0,0.0
4547,52.0,30.0,60.0,3.0,0.0
4548,64.0,60.0,120.0,0.0,0.0
4549,53.0,30.0,30.0,12.0,0.0
4550,57.0,0.0,60.0,3.0,0.0
4551,52.0,0.0,30.0,12.0,0.0
4552,53.0,0.0,120.0,3.0,0.0
4553,38.0,0.0,60.0,7.0,0.0
4554,62.0,0.0,120.0,0.0,0.0
4555,38.0,0.0,60.0,13.0,0.0
4556,57.0,0.0,120.0,2.0,0.0
4557,62.0,0.0,120.0,5.0,0.0
4558,38.0,0.0,60.0,8.0,0.0
4559,38.0,0.0,120.0,4.0,0.0
4560,62.0,30.0,60.0,6.0,0.0
4561,62.0,0.0,120.0,1.0,0.0
4562,53.0,0.0,120.0,12.0,0.0
4563,62.0,0.0,120.0,11.0,0.0
4564,62.0,0.0,120.0,10.0,0.0
4565,41.0,0.0,60.0,13.0,0.0
4566,41.0,0.0,60.0,7.0,0.0
4567,69.0,35.0,60.0,6.0,0.0
4568,41.0,0.0,60.0,8.0,0.0
4569,46.0,60.0,60.0,8.0,0.0
4570,46.0,0.0,60.0,7.0,0.0
4571,46.0,0.0,60.0,13.0,0.0
4572,62.0,0.0,15.0,6.0,0.0
4573,74.0,35.0,240.0,6.0,0.0
4574,45.0,0.0,60.0,13.0,0.0
4575,62.0,0.0,60.0,6.0,0.0
4576,45.0,0.0,60.0,8.0,0.0
4577,45.0,60.0,60.0,7.0,0.0
4578,64.0,0.0,60.0,6.0,0.0
4579,43.0,0.0,60.0,8.0,0.0
4580,43.0,30.0,60.0,7.0,0.0
4581,43.0,0.0,60.0,13.0,0.0
4582,41.0,30.0,30.0,8.0,0.0
4583,58.0,0.0,60.0,6.0,0.0
4584,41.0,0.0,30.0,13.0,0.0
4585,41.0,0.0,30.0,7.0,0.0
4586,43.0,0.0,30.0,8.0,0.0
4587,43.0,0.0,30.0,13.0,0.0
4588,43.0,0.0,30.0,7.0,0.0
4589,45.0,60.0,60.0,13.0,0.0
4590,45.0,0.0,60.0,8.0,0.0
4591,45.0,0.0,60.0,7.0,0.0
4592,57.0,25.0,30.0,6.0,0.0
4593,73.0,0.0,120.0,6.0,0.0
4594,64.0,0.0,60.0,6.0,0.0
4595,33.0,0.0,60.0,7.0,0.0
4596,33.0,60.0,60.0,8.0,0.0
4597,33.0,0.0,60.0,13.0,0.0
4598,38.0,0.0,60.0,8.0,0.0
4599,38.0,60.0,60.0,13.0,0.0
4600,65.0,0.0,60.0,6.0,0.0
4601,38.0,0.0,60.0,7.0,0.0
4602,74.0,0.0,120.0,6.0,0.0
4603,40.0,35.0,60.0,7.0,0.0
4604,40.0,0.0,60.0,13.0,0.0
4605,58.0,0.0,60.0,6.0,0.0
4606,40.0,0.0,60.0,8.0,0.0
4607,72.0,0.0,120.0,6.0,0.0
4608,57.0,25.0,30.0,6.0,0.0
4609,42.0,0.0,60.0,8.0,0.0
4610,42.0,0.0,60.0,7.0,0.0
4611,42.0,60.0,60.0,13.0,0.0
4612,38.0,30.0,60.0,8.0,0.0
4613,66.0,0.0,60.0,6.0,0.0
4614,38.0,0.0,60.0,13.0,0.0
4615,38.0,0.0,60.0,7.0,0.0
4616,43.0,0.0,60.0,13.0,0.0
4617,43.0,0.0,60.0,7.0,0.0
4618,67.0,30.0,30.0,6.0,0.0
4619,70.0,85.0,270.0,6.0,0.0
4620,43.0,60.0,60.0,8.0,0.0
4621,65.0,0.0,30.0,6.0,0.0
4622,55.0,30.0,60.0,7.0,0.0
4623,63.0,30.0,90.0,6.0,0.0
4624,55.0,0.0,60.0,8.0,0.0
4625,55.0,0.0,60.0,13.0,0.0
4626,53.0,0.0,60.0,8.0,0.0
4627,53.0,30.0,60.0,13.0,0.0
4628,53.0,0.0,60.0,7.0,0.0
4629,62.0,0.0,30.0,6.0,0.0
4630,61.0,30.0,30.0,6.0,0.0
4631,52.0,35.0,60.0,8.0,0.0
4632,52.0,0.0,60.0,7.0,0.0
4633,52.0,0.0,60.0,13.0,0.0
4634,62.0,0.0,30.0,6.0,0.0
4635,57.0,0.0,120.0,8.0,0.0
4636,57.0,60.0,120.0,7.0,0.0
4637,61.0,0.0,30.0,6.0,0.0
4638,57.0,0.0,120.0,13.0,0.0
4639,70.0,0.0,60.0,6.0,0.0
4640,61.0,0.0,60.0,6.0,0.0
4641,69.0,35.0,60.0,6.0,0.0
4642,62.0,0.0,60.0,6.0,0.0
4643,73.0,0.0,30.0,5.0,0.0
4644,45.0,0.0,30.0,13.0,0.0
4645,73.0,0.0,30.0,10.0,0.0
4646,45.0,0.0,30.0,8.0,0.0
4647,57.0,0.0,30.0,12.0,0.0
4648,69.0,0.0,30.0,11.0,0.0
4649,45.0,0.0,30.0,7.0,0.0
4650,69.0,60.0,30.0,5.0,0.0
4651,64.0,0.0,30.0,6.0,0.0
4652,67.0,0.0,30.0,6.0,0.0
4653,69.0,0.0,60.0,11.0,0.0
4654,46.0,49.0,60.0,13.0,0.0
4655,62.0,25.0,30.0,6.0,0.0
4656,74.0,0.0,60.0,10.0,0.0
4657,69.0,0.0,60.0,5.0,0.0
4658,46.0,0.0,60.0,7.0,0.0
4659,46.0,0.0,60.0,8.0,0.0
4660,50.0,0.0,120.0,12.0,0.0
4661,69.0,0.0,60.0,10.0,0.0
4662,74.0,0.0,60.0,11.0,0.0
4663,74.0,11.0,15.0,5.0,0.0
4664,69.0,35.0,60.0,5.0,0.0
4665,65.0,0.0,15.0,6.0,0.0
4666,59.0,24.0,60.0,6.0,0.0
4667,68.0,0.0,30.0,10.0,0.0
4668,68.0,36.0,30.0,5.0,0.0
4669,76.0,0.0,30.0,5.0,0.0
4670,76.0,0.0,30.0,11.0,0.0
4671,40.0,0.0,30.0,8.0,0.0
4672,52.0,60.0,60.0,12.0,0.0
4673,68.0,0.0,30.0,5.0,0.0
4674,74.0,0.0,30.0,5.0,0.0
4675,71.0,0.0,30.0,6.0,0.0
4676,40.0,0.0,30.0,7.0,0.0
4677,40.0,25.0,30.0,13.0,0.0
4678,74.0,0.0,30.0,10.0,0.0
4679,68.0,0.0,30.0,11.0,0.0
4680,64.0,35.0,120.0,12.0,0.0
4681,73.0,0.0,60.0,10.0,0.0
4682,45.0,24.0,60.0,13.0,0.0
4683,69.0,0.0,60.0,6.0,0.0
4684,69.0,0.0,60.0,11.0,0.0
4685,69.0,0.0,60.0,5.0,0.0
4686,45.0,0.0,60.0,7.0,0.0
4687,45.0,0.0,60.0,8.0,0.0
4688,67.0,0.0,60.0,10.0,0.0
4689,73.0,0.0,60.0,11.0,0.0
4690,67.0,0.0,60.0,5.0,0.0
4691,58.0,25.0,30.0,6.0,0.0
4692,73.0,11.0,15.0,5.0,0.0
4693,57.0,24.0,60.0,6.0,0.0
4694,66.0,36.0,30.0,5.0,0.0
4695,74.0,0.0,30.0,5.0,0.0
4696,66.0,0.0,30.0,10.0,0.0
4697,74.0,0.0,30.0,11.0,0.0
4698,66.0,0.0,30.0,5.0,0.0
4699,66.0,0.0,30.0,11.0,0.0
4700,38.0,0.0,30.0,8.0,0.0
4701,72.0,0.0,30.0,5.0,0.0
4702,38.0,25.0,30.0,7.0,0.0
4703,69.0,0.0,30.0,6.0,0.0
4704,62.0,60.0,60.0,12.0,0.0
4705,38.0,0.0,30.0,13.0,0.0
4706,72.0,0.0,30.0,10.0,0.0
4707,71.0,0.0,60.0,10.0,0.0
4708,62.0,35.0,120.0,12.0,0.0
4709,43.0,0.0,120.0,7.0,0.0
4710,67.0,11.0,60.0,11.0,0.0
4711,43.0,0.0,120.0,8.0,0.0
4712,67.0,0.0,60.0,5.0,0.0
4713,71.0,0.0,60.0,5.0,0.0
4714,43.0,0.0,120.0,13.0,0.0
4715,67.0,24.0,60.0,6.0,0.0
4716,65.0,0.0,60.0,5.0,0.0
4717,65.0,0.0,60.0,10.0,0.0
4718,56.0,25.0,30.0,6.0,0.0
4719,71.0,0.0,60.0,5.0,0.0
4720,71.0,0.0,60.0,11.0,0.0
4721,64.0,0.0,30.0,5.0,0.0
4722,72.0,0.0,30.0,5.0,0.0
4723,55.0,24.0,60.0,6.0,0.0
4724,64.0,36.0,30.0,10.0,0.0
4725,72.0,0.0,30.0,11.0,0.0
4726,70.0,0.0,60.0,10.0,0.0
4727,70.0,0.0,60.0,5.0,0.0
4728,64.0,0.0,60.0,11.0,0.0
4729,36.0,0.0,60.0,7.0,0.0
4730,67.0,25.0,30.0,6.0,0.0
4731,36.0,0.0,60.0,13.0,0.0
4732,36.0,60.0,60.0,8.0,0.0
4733,64.0,0.0,60.0,5.0,0.0
4734,41.0,0.0,120.0,7.0,0.0
4735,69.0,0.0,60.0,5.0,0.0
4736,41.0,0.0,60.0,8.0,0.0
4737,65.0,19.0,60.0,6.0,0.0
4738,60.0,0.0,15.0,12.0,0.0
4739,69.0,11.0,60.0,10.0,0.0
4740,41.0,0.0,60.0,13.0,0.0
4741,72.0,0.0,60.0,5.0,0.0
4742,45.0,0.0,60.0,13.0,0.0
4743,72.0,0.0,60.0,10.0,0.0
4744,45.0,35.0,60.0,8.0,0.0
4745,65.0,30.0,15.0,11.0,0.0
4746,65.0,0.0,15.0,5.0,0.0
4747,77.0,0.0,240.0,5.0,0.0
4748,65.0,25.0,30.0,5.0,0.0
4749,77.0,35.0,240.0,10.0,0.0
4750,50.0,60.0,60.0,8.0,0.0
4751,50.0,0.0,60.0,13.0,0.0
4752,65.0,0.0,30.0,11.0,0.0
4753,48.0,0.0,60.0,8.0,0.0
4754,48.0,0.0,60.0,13.0,0.0
4755,57.0,60.0,60.0,12.0,0.0
4756,65.0,0.0,60.0,11.0,0.0
4757,65.0,0.0,60.0,5.0,0.0
4758,46.0,0.0,60.0,8.0,0.0
4759,62.0,0.0,60.0,12.0,0.0
4760,46.0,0.0,60.0,13.0,0.0
4761,67.0,0.0,60.0,11.0,0.0
4762,67.0,60.0,60.0,5.0,0.0
4763,58.0,0.0,60.0,12.0,0.0
4764,43.0,0.0,60.0,13.0,0.0
4765,62.0,0.0,60.0,11.0,0.0
4766,43.0,0.0,60.0,8.0,0.0
4767,62.0,0.0,60.0,5.0,0.0
4768,60.0,0.0,30.0,11.0,0.0
4769,48.0,60.0,60.0,13.0,0.0
4770,76.0,0.0,120.0,5.0,0.0
4771,48.0,0.0,60.0,8.0,0.0
4772,76.0,0.0,120.0,10.0,0.0
4773,55.0,25.0,30.0,12.0,0.0
4774,60.0,0.0,30.0,5.0,0.0
4775,67.0,60.0,60.0,11.0,0.0
4776,60.0,0.0,60.0,12.0,0.0
4777,36.0,0.0,60.0,8.0,0.0
4778,36.0,0.0,60.0,13.0,0.0
4779,67.0,0.0,60.0,5.0,0.0
4780,41.0,0.0,60.0,13.0,0.0
4781,41.0,0.0,60.0,8.0,0.0
4782,69.0,60.0,60.0,5.0,0.0
4783,77.0,0.0,120.0,5.0,0.0
4784,77.0,0.0,120.0,10.0,0.0
4785,69.0,0.0,60.0,11.0,0.0
4786,60.0,0.0,60.0,12.0,0.0
4787,43.0,0.0,60.0,8.0,0.0
4788,43.0,0.0,60.0,13.0,0.0
4789,58.0,35.0,60.0,12.0,0.0
4790,62.0,0.0,60.0,11.0,0.0
4791,62.0,0.0,60.0,5.0,0.0
4792,75.0,0.0,120.0,10.0,0.0
4793,60.0,0.0,30.0,11.0,0.0
4794,45.0,60.0,60.0,8.0,0.0
4795,75.0,30.0,120.0,5.0,0.0
4796,60.0,0.0,30.0,5.0,0.0
4797,45.0,0.0,60.0,13.0,0.0
4798,57.0,25.0,30.0,12.0,0.0
4799,69.0,0.0,60.0,11.0,0.0
4800,41.0,0.0,60.0,8.0,0.0
4801,69.0,0.0,60.0,5.0,0.0
4802,41.0,0.0,60.0,13.0,0.0
4803,60.0,0.0,60.0,12.0,0.0
4804,46.0,0.0,60.0,13.0,0.0
4805,70.0,0.0,30.0,11.0,0.0
4806,74.0,0.0,270.0,5.0,0.0
4807,53.0,0.0,60.0,12.0,0.0
4808,46.0,0.0,60.0,8.0,0.0
4809,70.0,30.0,30.0,5.0,0.0
4810,74.0,5.0,270.0,10.0,0.0
4811,69.0,0.0,30.0,11.0,0.0
4812,69.0,60.0,30.0,5.0,0.0
4813,67.0,30.0,90.0,11.0,0.0
4814,50.0,0.0,60.0,12.0,0.0
4815,67.0,0.0,90.0,5.0,0.0
4816,45.0,0.0,60.0,8.0,0.0
4817,45.0,30.0,60.0,13.0,0.0
4818,46.0,0.0,60.0,13.0,0.0
4819,55.0,0.0,60.0,12.0,0.0
4820,46.0,0.0,60.0,8.0,0.0
4821,65.0,0.0,30.0,11.0,0.0
4822,65.0,30.0,30.0,5.0,0.0
4823,58.0,0.0,60.0,12.0,0.0
4824,64.0,30.0,30.0,11.0,0.0
4825,43.0,0.0,60.0,8.0,0.0
4826,43.0,30.0,60.0,13.0,0.0
4827,64.0,0.0,30.0,5.0,0.0
4828,65.0,0.0,30.0,11.0,0.0
4829,65.0,0.0,30.0,5.0,0.0
4830,48.0,0.0,60.0,8.0,0.0
4831,64.0,25.0,30.0,11.0,0.0
4832,48.0,0.0,60.0,13.0,0.0
4833,55.0,0.0,30.0,12.0,0.0
4834,64.0,0.0,30.0,5.0,0.0
4835,72.0,0.0,30.0,10.0,0.0
4836,72.0,60.0,30.0,5.0,0.0
4837,70.0,0.0,90.0,10.0,0.0
4838,50.0,0.0,60.0,8.0,0.0
4839,74.0,0.0,60.0,11.0,0.0
4840,53.0,0.0,60.0,12.0,0.0
4841,50.0,30.0,60.0,13.0,0.0
4842,70.0,30.0,90.0,5.0,0.0
4843,74.0,0.0,60.0,5.0,0.0
4844,52.0,0.0,60.0,13.0,0.0
4845,72.0,30.0,60.0,11.0,0.0
4846,55.0,0.0,60.0,12.0,0.0
4847,52.0,0.0,60.0,8.0,0.0
4848,72.0,0.0,60.0,5.0,0.0
4849,69.0,0.0,30.0,5.0,0.0
4850,69.0,0.0,30.0,10.0,0.0
4851,48.0,35.0,60.0,13.0,0.0
4852,48.0,0.0,60.0,7.0,0.0
4853,70.0,0.0,60.0,5.0,0.0
4854,67.0,25.0,30.0,6.0,0.0
4855,76.0,0.0,30.0,6.0,0.0
4856,52.0,0.0,60.0,12.0,0.0
4857,48.0,0.0,60.0,8.0,0.0
4858,67.0,5.0,30.0,10.0,0.0
4859,67.0,0.0,30.0,5.0,0.0
4860,70.0,0.0,60.0,11.0,0.0
4861,69.0,0.0,30.0,10.0,0.0
4862,69.0,0.0,30.0,5.0,0.0
4863,69.0,24.0,60.0,11.0,0.0
4864,65.0,25.0,30.0,10.0,0.0
4865,48.0,0.0,60.0,12.0,0.0
4866,53.0,0.0,60.0,7.0,0.0
4867,65.0,11.0,60.0,5.0,0.0
4868,53.0,0.0,60.0,13.0,0.0
4869,69.0,0.0,60.0,5.0,0.0
4870,53.0,0.0,60.0,8.0,0.0
4871,65.0,0.0,60.0,6.0,0.0
4872,69.0,0.0,60.0,6.0,0.0
4873,69.0,25.0,30.0,10.0,0.0
4874,64.0,0.0,60.0,6.0,0.0
4875,72.0,0.0,60.0,6.0,0.0
4876,72.0,35.0,60.0,5.0,0.0
4877,64.0,0.0,60.0,5.0,0.0
4878,71.0,0.0,30.0,6.0,0.0
4879,62.0,36.0,30.0,6.0,0.0
4880,67.0,24.0,60.0,10.0,0.0
4881,62.0,0.0,30.0,5.0,0.0
4882,71.0,0.0,30.0,5.0,0.0
4883,77.0,0.0,30.0,5.0,0.0
4884,55.0,0.0,30.0,13.0,0.0
4885,55.0,0.0,30.0,12.0,0.0
4886,55.0,0.0,30.0,7.0,0.0
4887,74.0,0.0,30.0,11.0,0.0
4888,55.0,0.0,30.0,8.0,0.0
4889,77.0,0.0,30.0,6.0,0.0
4890,71.0,0.0,30.0,5.0,0.0
4891,71.0,85.0,30.0,6.0,0.0
4892,48.0,0.0,60.0,13.0,0.0
4893,72.0,0.0,60.0,11.0,0.0
4894,72.0,11.0,60.0,5.0,0.0
4895,48.0,0.0,60.0,8.0,0.0
4896,48.0,0.0,60.0,7.0,0.0
4897,72.0,0.0,60.0,6.0,0.0
4898,76.0,0.0,60.0,6.0,0.0
4899,55.0,24.0,60.0,12.0,0.0
4900,70.0,0.0,60.0,6.0,0.0
4901,76.0,35.0,60.0,6.0,0.0
4902,76.0,0.0,15.0,5.0,0.0
4903,70.0,0.0,60.0,5.0,0.0
4904,67.0,25.0,30.0,10.0,0.0
4905,69.0,0.0,30.0,5.0,0.0
4906,77.0,0.0,30.0,6.0,0.0
4907,69.0,0.0,30.0,6.0,0.0
4908,77.0,36.0,30.0,5.0,0.0
4909,65.0,24.0,60.0,10.0,0.0
4910,53.0,0.0,30.0,7.0,0.0
4911,75.0,0.0,30.0,6.0,0.0
4912,69.0,85.0,30.0,6.0,0.0
4913,72.0,0.0,30.0,11.0,0.0
4914,53.0,0.0,30.0,13.0,0.0
4915,69.0,0.0,30.0,5.0,0.0
4916,75.0,0.0,30.0,5.0,0.0
4917,53.0,0.0,30.0,8.0,0.0
4918,53.0,0.0,30.0,12.0,0.0
4919,70.0,0.0,60.0,5.0,0.0
4920,46.0,0.0,60.0,8.0,0.0
4921,74.0,0.0,60.0,6.0,0.0
4922,53.0,0.0,60.0,12.0,0.0
4923,74.0,24.0,60.0,11.0,0.0
4924,46.0,0.0,60.0,13.0,0.0
4925,70.0,0.0,60.0,6.0,0.0
4926,46.0,0.0,60.0,7.0,0.0
4927,65.0,25.0,30.0,10.0,0.0
4928,74.0,11.0,15.0,5.0,0.0
4929,68.0,0.0,60.0,6.0,0.0
4930,68.0,0.0,60.0,5.0,0.0
4931,74.0,35.0,60.0,6.0,0.0
4932,63.0,24.0,60.0,10.0,0.0
4933,75.0,0.0,30.0,5.0,0.0
4934,67.0,0.0,30.0,5.0,0.0
4935,67.0,36.0,30.0,6.0,0.0
4936,75.0,0.0,30.0,6.0,0.0
4937,74.0,0.0,30.0,5.0,0.0
4938,67.0,0.0,30.0,6.0,0.0
4939,51.0,0.0,30.0,13.0,0.0
4940,74.0,0.0,30.0,6.0,0.0
4941,70.0,0.0,30.0,11.0,0.0
4942,55.0,0.0,30.0,12.0,0.0
4943,51.0,0.0,30.0,7.0,0.0
4944,51.0,0.0,30.0,8.0,0.0
4945,67.0,85.0,30.0,5.0,0.0
4946,45.0,0.0,60.0,8.0,0.0
4947,69.0,11.0,60.0,5.0,0.0
4948,73.0,0.0,60.0,6.0,0.0
4949,69.0,0.0,60.0,6.0,0.0
4950,69.0,0.0,60.0,11.0,0.0
4951,52.0,24.0,60.0,12.0,0.0
4952,45.0,0.0,60.0,13.0,0.0
4953,45.0,0.0,60.0,7.0,0.0
4954,73.0,0.0,60.0,5.0,0.0
4955,67.0,0.0,60.0,6.0,0.0
4956,73.0,0.0,60.0,6.0,0.0
4957,73.0,35.0,60.0,5.0,0.0
4958,70.0,25.0,30.0,10.0,0.0
4959,67.0,0.0,60.0,5.0,0.0
4960,66.0,0.0,30.0,5.0,0.0
4961,74.0,36.0,30.0,6.0,0.0
4962,74.0,0.0,30.0,5.0,0.0
4963,66.0,0.0,30.0,6.0,0.0
4964,69.0,24.0,60.0,10.0,0.0
4965,50.0,0.0,30.0,12.0,0.0
4966,50.0,0.0,30.0,8.0,0.0
4967,50.0,0.0,30.0,13.0,0.0
4968,69.0,0.0,30.0,11.0,0.0
4969,72.0,0.0,30.0,6.0,0.0
4970,66.0,0.0,30.0,6.0,0.0
4971,72.0,0.0,30.0,5.0,0.0
4972,66.0,0.0,30.0,5.0,0.0
4973,50.0,60.0,30.0,7.0,0.0
4974,70.0,55.0,30.0,5.0,0.0
4975,50.0,0.0,120.0,12.0,0.0
4976,70.0,0.0,120.0,11.0,0.0
4977,67.0,0.0,30.0,6.0,0.0
4978,70.0,0.0,30.0,6.0,0.0
4979,43.0,0.0,90.0,4.0,0.0
4980,67.0,0.0,30.0,5.0,0.0
4981,43.0,30.0,90.0,13.0,0.0
4982,43.0,0.0,90.0,8.0,0.0
4983,43.0,0.0,90.0,7.0,0.0
4984,74.0,35.0,60.0,6.0,0.0
4985,70.0,0.0,60.0,6.0,0.0
4986,74.0,0.0,60.0,10.0,0.0
4987,74.0,0.0,60.0,5.0,0.0
4988,70.0,0.0,60.0,5.0,0.0
4989,43.0,0.0,30.0,8.0,0.0
4990,43.0,0.0,15.0,4.0,0.0
4991,79.0,0.0,240.0,5.0,0.0
4992,75.0,60.0,60.0,5.0,0.0
4993,43.0,0.0,15.0,7.0,0.0
4994,72.0,0.0,60.0,10.0,0.0
4995,43.0,25.0,30.0,8.0,0.0
4996,43.0,0.0,15.0,13.0,0.0
4997,79.0,0.0,240.0,6.0,0.0
4998,75.0,0.0,60.0,6.0,0.0
4999,43.0,0.0,60.0,7.0,0.0
5000,58.0,0.0,60.0,12.0,0.0
5001,74.0,0.0,60.0,6.0,0.0
5002,70.0,0.0,60.0,10.0,0.0
5003,43.0,0.0,60.0,13.0,0.0
5004,43.0,60.0,60.0,4.0,0.0
5005,43.0,0.0,60.0,8.0,0.0
5006,74.0,0.0,60.0,5.0,0.0
5007,69.0,0.0,240.0,10.0,0.0
5008,45.0,0.0,60.0,8.0,0.0
5009,45.0,0.0,60.0,7.0,0.0
5010,45.0,0.0,60.0,13.0,0.0
5011,72.0,0.0,60.0,5.0,0.0
5012,45.0,30.0,60.0,4.0,0.0
5013,60.0,0.0,120.0,12.0,0.0
5014,72.0,0.0,60.0,6.0,0.0
5015,39.0,0.0,60.0,13.0,0.0
5016,70.0,30.0,30.0,6.0,0.0
5017,39.0,0.0,60.0,7.0,0.0
5018,70.0,0.0,30.0,5.0,0.0
5019,39.0,0.0,60.0,4.0,0.0
5020,39.0,0.0,60.0,8.0,0.0
5021,63.0,0.0,60.0,11.0,0.0
5022,72.0,35.0,30.0,5.0,0.0
5023,72.0,0.0,30.0,6.0,0.0
5024,38.0,0.0,30.0,13.0,0.0
5025,57.0,60.0,60.0,11.0,0.0
5026,74.0,0.0,180.0,6.0,0.0
5027,38.0,0.0,30.0,7.0,0.0
5028,78.0,0.0,120.0,6.0,0.0
5029,74.0,0.0,180.0,5.0,0.0
5030,78.0,0.0,120.0,5.0,0.0
5031,38.0,25.0,30.0,4.0,0.0
5032,38.0,0.0,30.0,8.0,0.0
5033,45.0,0.0,60.0,8.0,0.0
5034,45.0,0.0,60.0,4.0,0.0
5035,60.0,60.0,60.0,11.0,0.0
5036,57.0,0.0,60.0,12.0,0.0
5037,45.0,0.0,60.0,7.0,0.0
5038,45.0,0.0,60.0,13.0,0.0
5039,79.0,0.0,120.0,6.0,0.0
5040,67.0,0.0,300.0,10.0,0.0
5041,46.0,0.0,60.0,4.0,0.0
5042,58.0,0.0,60.0,11.0,0.0
5043,46.0,0.0,60.0,13.0,0.0
5044,79.0,0.0,120.0,5.0,0.0
5045,50.0,0.0,120.0,12.0,0.0
5046,46.0,0.0,60.0,7.0,0.0
5047,46.0,60.0,60.0,8.0,0.0
5048,60.0,0.0,60.0,11.0,0.0
5049,39.0,0.0,60.0,13.0,0.0
5050,72.0,0.0,60.0,5.0,0.0
5051,72.0,35.0,60.0,6.0,0.0
5052,39.0,0.0,60.0,4.0,0.0
5053,39.0,0.0,60.0,7.0,0.0
5054,39.0,0.0,60.0,8.0,0.0
5055,62.0,0.0,120.0,11.0,0.0
5056,71.0,0.0,30.0,6.0,0.0
5057,77.0,0.0,120.0,5.0,0.0
5058,71.0,0.0,30.0,5.0,0.0
5059,77.0,0.0,120.0,6.0,0.0
5060,38.0,0.0,30.0,4.0,0.0
5061,38.0,0.0,30.0,7.0,0.0
5062,38.0,0.0,30.0,8.0,0.0
5063,38.0,85.0,30.0,13.0,0.0
5064,55.0,0.0,60.0,12.0,0.0
5065,74.0,0.0,60.0,6.0,0.0
5066,47.0,0.0,60.0,13.0,0.0
5067,47.0,0.0,60.0,4.0,0.0
5068,74.0,30.0,60.0,5.0,0.0
5069,47.0,0.0,60.0,7.0,0.0
5070,47.0,0.0,60.0,8.0,0.0
5071,75.0,60.0,300.0,5.0,0.0
5072,67.0,0.0,60.0,5.0,0.0
5073,48.0,30.0,30.0,7.0,0.0
5074,67.0,30.0,60.0,6.0,0.0
5075,75.0,0.0,300.0,6.0,0.0
5076,48.0,0.0,30.0,8.0,0.0
5077,60.0,0.0,120.0,11.0,0.0
5078,48.0,0.0,30.0,13.0,0.0
5079,48.0,0.0,30.0,4.0,0.0
5080,55.0,0.0,120.0,12.0,0.0
5081,46.0,0.0,30.0,8.0,0.0
5082,46.0,0.0,30.0,4.0,0.0
5083,46.0,0.0,30.0,13.0,0.0
5084,46.0,0.0,30.0,7.0,0.0
5085,72.0,0.0,30.0,5.0,0.0
5086,44.0,0.0,90.0,8.0,0.0
5087,44.0,0.0,90.0,4.0,0.0
5088,44.0,0.0,90.0,7.0,0.0
5089,65.0,0.0,60.0,10.0,0.0
5090,44.0,30.0,90.0,13.0,0.0
5091,72.0,30.0,30.0,6.0,0.0
5092,74.0,30.0,30.0,5.0,0.0
5093,74.0,0.0,30.0,6.0,0.0
5094,72.0,0.0,60.0,6.0,0.0
5095,63.0,0.0,60.0,10.0,0.0
5096,72.0,0.0,60.0,5.0,0.0
5097,43.0,0.0,30.0,8.0,0.0
5098,43.0,0.0,30.0,7.0,0.0
5099,43.0,0.0,30.0,4.0,0.0
5100,43.0,30.0,30.0,13.0,0.0
5101,42.0,0.0,30.0,8.0,0.0
5102,42.0,30.0,30.0,4.0,0.0
5103,70.0,0.0,60.0,6.0,0.0
5104,42.0,0.0,30.0,13.0,0.0
5105,70.0,0.0,60.0,5.0,0.0
5106,62.0,0.0,60.0,10.0,0.0
5107,42.0,0.0,30.0,7.0,0.0
5108,43.0,35.0,30.0,8.0,0.0
5109,43.0,0.0,30.0,7.0,0.0
5110,43.0,0.0,30.0,13.0,0.0
5111,43.0,0.0,30.0,4.0,0.0
5112,42.0,25.0,30.0,4.0,0.0
5113,69.0,0.0,60.0,6.0,0.0
5114,42.0,0.0,30.0,13.0,0.0
5115,60.0,0.0,30.0,10.0,0.0
5116,42.0,0.0,30.0,7.0,0.0
5117,69.0,0.0,60.0,5.0,0.0
5118,42.0,0.0,30.0,8.0,0.0
5119,57.0,0.0,60.0,10.0,0.0
5120,51.0,0.0,60.0,7.0,0.0
5121,51.0,0.0,60.0,13.0,0.0
5122,66.0,0.0,60.0,6.0,0.0
5123,66.0,0.0,60.0,5.0,0.0
5124,72.0,0.0,60.0,5.0,0.0
5125,69.0,0.0,60.0,12.0,0.0
5126,51.0,0.0,60.0,4.0,0.0
5127,72.0,0.0,60.0,6.0,0.0
5128,51.0,60.0,60.0,8.0,0.0
5129,60.0,0.0,60.0,11.0,0.0
5130,70.0,0.0,60.0,5.0,0.0
5131,50.0,0.0,60.0,13.0,0.0
5132,67.0,0.0,60.0,5.0,0.0
5133,58.0,0.0,60.0,10.0,0.0
5134,50.0,0.0,60.0,4.0,0.0
5135,67.0,60.0,60.0,12.0,0.0
5136,67.0,0.0,60.0,6.0,0.0
5137,70.0,0.0,60.0,6.0,0.0
5138,50.0,0.0,60.0,7.0,0.0
5139,62.0,0.0,60.0,11.0,0.0
5140,50.0,0.0,60.0,8.0,0.0
5141,63.0,0.0,60.0,11.0,0.0
5142,60.0,0.0,60.0,10.0,0.0
5143,48.0,0.0,60.0,8.0,0.0
5144,48.0,0.0,60.0,7.0,0.0
5145,69.0,0.0,60.0,5.0,0.0
5146,69.0,0.0,60.0,6.0,0.0
5147,48.0,0.0,60.0,13.0,0.0
5148,48.0,0.0,60.0,4.0,0.0
5149,66.0,0.0,60.0,12.0,0.0
5150,62.0,0.0,180.0,10.0,0.0
5151,67.0,30.0,180.0,6.0,0.0
5152,46.0,0.0,60.0,8.0,0.0
5153,62.0,0.0,60.0,11.0,0.0
5154,46.0,0.0,60.0,7.0,0.0
5155,50.0,0.0,90.0,3.0,0.0
5156,46.0,0.0,60.0,13.0,0.0
5157,70.0,0.0,60.0,6.0,0.0
5158,67.0,0.0,60.0,12.0,0.0
5159,46.0,30.0,60.0,4.0,0.0
5160,70.0,0.0,60.0,5.0,0.0
5161,67.0,0.0,180.0,5.0,0.0
5162,62.0,0.0,120.0,12.0,0.0
5163,72.0,0.0,30.0,5.0,0.0
5164,45.0,0.0,30.0,13.0,0.0
5165,67.0,0.0,60.0,11.0,0.0
5166,45.0,0.0,30.0,7.0,0.0
5167,72.0,30.0,30.0,6.0,0.0
5168,45.0,0.0,30.0,4.0,0.0
5169,45.0,0.0,30.0,8.0,0.0
5170,43.0,0.0,30.0,8.0,0.0
5171,50.0,0.0,30.0,3.0,0.0
5172,70.0,0.0,30.0,6.0,0.0
5173,43.0,0.0,30.0,13.0,0.0
5174,70.0,0.0,30.0,5.0,0.0
5175,43.0,0.0,30.0,4.0,0.0
5176,43.0,35.0,30.0,7.0,0.0
5177,69.0,0.0,60.0,11.0,0.0
5178,50.0,0.0,240.0,4.0,0.0
5179,69.0,0.0,60.0,6.0,0.0
5180,50.0,0.0,240.0,8.0,0.0
5181,50.0,25.0,30.0,3.0,0.0
5182,69.0,0.0,60.0,5.0,0.0
5183,50.0,0.0,240.0,13.0,0.0
5184,50.0,0.0,240.0,7.0,0.0
5185,65.0,0.0,60.0,5.0,0.0
5186,70.0,0.0,30.0,6.0,0.0
5187,65.0,0.0,60.0,6.0,0.0
5188,64.0,30.0,30.0,12.0,0.0
5189,61.0,0.0,30.0,10.0,0.0
5190,74.0,0.0,60.0,11.0,0.0
5191,70.0,0.0,30.0,5.0,0.0
5192,50.0,0.0,60.0,3.0,0.0
5193,62.0,0.0,30.0,10.0,0.0
5194,65.0,0.0,30.0,12.0,0.0
5195,69.0,60.0,30.0,6.0,0.0
5196,69.0,0.0,30.0,5.0,0.0
5197,58.0,0.0,120.0,10.0,0.0
5198,64.0,0.0,60.0,6.0,0.0
5199,67.0,0.0,60.0,11.0,0.0
5200,67.0,0.0,60.0,6.0,0.0
5201,52.0,30.0,60.0,3.0,0.0
5202,64.0,0.0,60.0,5.0,0.0
5203,67.0,0.0,60.0,5.0,0.0
5204,67.0,0.0,120.0,12.0,0.0
5205,65.0,0.0,30.0,5.0,0.0
5206,65.0,30.0,30.0,6.0,0.0
5207,46.0,35.0,60.0,3.0,0.0
5208,70.0,0.0,60.0,11.0,0.0
5209,62.0,0.0,60.0,5.0,0.0
5210,62.0,0.0,60.0,6.0,0.0
5211,67.0,0.0,30.0,5.0,0.0
5212,67.0,0.0,30.0,6.0,0.0
5213,69.0,60.0,60.0,6.0,0.0
5214,64.0,0.0,120.0,6.0,0.0
5215,64.0,0.0,60.0,11.0,0.0
5216,64.0,0.0,120.0,5.0,0.0
5217,69.0,0.0,60.0,5.0,0.0
5218,49.0,60.0,120.0,4.0,0.0
5219,45.0,25.0,30.0,3.0,0.0
5220,49.0,0.0,120.0,13.0,0.0
5221,49.0,0.0,120.0,8.0,0.0
5222,49.0,0.0,120.0,7.0,0.0
5223,67.0,0.0,60.0,5.0,0.0
5224,52.0,0.0,60.0,3.0,0.0
5225,64.0,0.0,60.0,12.0,0.0
5226,57.0,0.0,60.0,10.0,0.0
5227,69.0,30.0,120.0,11.0,0.0
5228,67.0,0.0,60.0,6.0,0.0
5229,62.0,0.0,300.0,6.0,0.0
5230,50.0,0.0,120.0,7.0,0.0
5231,50.0,0.0,120.0,8.0,0.0
5232,65.0,0.0,60.0,6.0,0.0
5233,50.0,0.0,120.0,13.0,0.0
5234,53.0,0.0,60.0,3.0,0.0
5235,57.0,35.0,120.0,12.0,0.0
5236,62.0,0.0,300.0,5.0,0.0
5237,62.0,0.0,120.0,10.0,0.0
5238,65.0,0.0,60.0,5.0,0.0
5239,50.0,0.0,120.0,4.0,0.0
5240,74.0,30.0,30.0,5.0,0.0
5241,74.0,0.0,30.0,6.0,0.0
5242,46.0,0.0,60.0,3.0,0.0
5243,67.0,0.0,60.0,11.0,0.0
5244,72.0,0.0,30.0,5.0,0.0
5245,72.0,0.0,30.0,6.0,0.0
5246,74.0,60.0,60.0,5.0,0.0
5247,65.0,0.0,60.0,11.0,0.0
5248,45.0,25.0,30.0,3.0,0.0
5249,74.0,0.0,60.0,6.0,0.0
5250,48.0,30.0,60.0,13.0,0.0
5251,69.0,0.0,60.0,11.0,0.0
5252,54.0,0.0,60.0,3.0,0.0
5253,62.0,0.0,60.0,10.0,0.0
5254,69.0,0.0,60.0,5.0,0.0
5255,48.0,0.0,60.0,4.0,0.0
5256,48.0,0.0,60.0,7.0,0.0
5257,48.0,0.0,60.0,8.0,0.0
5258,54.0,0.0,60.0,12.0,0.0
5259,69.0,0.0,60.0,6.0,0.0
5260,50.0,30.0,120.0,12.0,0.0
5261,74.0,0.0,120.0,10.0,0.0
5262,46.0,30.0,60.0,13.0,0.0
5263,67.0,0.0,120.0,11.0,0.0
5264,46.0,0.0,60.0,7.0,0.0
5265,46.0,0.0,60.0,4.0,0.0
5266,46.0,0.0,60.0,8.0,0.0
5267,55.0,30.0,30.0,3.0,0.0
5268,53.0,0.0,30.0,3.0,0.0
5269,67.0,0.0,30.0,5.0,0.0
5270,45.0,0.0,60.0,7.0,0.0
5271,45.0,0.0,60.0,8.0,0.0
5272,45.0,0.0,60.0,4.0,0.0
5273,67.0,30.0,30.0,6.0,0.0
5274,45.0,0.0,60.0,13.0,0.0
5275,51.0,30.0,90.0,3.0,0.0
5276,66.0,0.0,30.0,5.0,0.0
5277,66.0,0.0,30.0,6.0,0.0
5278,46.0,0.0,60.0,13.0,0.0
5279,67.0,0.0,60.0,6.0,0.0
5280,67.0,0.0,60.0,5.0,0.0
5281,46.0,0.0,60.0,7.0,0.0
5282,46.0,30.0,60.0,8.0,0.0
5283,46.0,0.0,60.0,4.0,0.0
5284,50.0,0.0,30.0,3.0,0.0
5285,45.0,30.0,30.0,4.0,0.0
5286,43.0,0.0,60.0,7.0,0.0
5287,43.0,0.0,60.0,13.0,0.0
5288,70.0,0.0,60.0,6.0,0.0
5289,43.0,0.0,60.0,8.0,0.0
5290,58.0,35.0,60.0,12.0,0.0
5291,70.0,0.0,60.0,5.0,0.0
5292,49.0,0.0,30.0,3.0,0.0
5293,67.0,0.0,120.0,10.0,0.0
5294,43.0,0.0,30.0,4.0,0.0
5295,50.0,0.0,30.0,3.0,0.0
5296,64.0,0.0,15.0,11.0,0.0
5297,64.0,60.0,60.0,5.0,0.0
5298,49.0,60.0,120.0,12.0,0.0
5299,45.0,0.0,120.0,8.0,0.0
5300,45.0,0.0,120.0,7.0,0.0
5301,45.0,0.0,30.0,4.0,0.0
5302,45.0,0.0,120.0,13.0,0.0
5303,49.0,25.0,30.0,3.0,0.0
5304,58.0,0.0,60.0,3.0,0.0
5305,76.0,0.0,60.0,5.0,0.0
5306,61.0,0.0,60.0,10.0,0.0
5307,76.0,0.0,60.0,6.0,0.0
5308,64.0,0.0,15.0,6.0,0.0
5309,64.0,0.0,60.0,5.0,0.0
5310,55.0,0.0,60.0,4.0,0.0
5311,57.0,0.0,60.0,3.0,0.0
5312,33.0,0.0,120.0,7.0,0.0
5313,33.0,0.0,120.0,13.0,0.0
5314,74.0,0.0,60.0,6.0,0.0
5315,65.0,0.0,60.0,6.0,0.0
5316,74.0,0.0,60.0,5.0,0.0
5317,65.0,0.0,60.0,5.0,0.0
5318,53.0,60.0,60.0,4.0,0.0
5319,62.0,0.0,60.0,10.0,0.0
5320,33.0,0.0,120.0,8.0,0.0
5321,67.0,0.0,60.0,6.0,0.0
5322,73.0,0.0,60.0,6.0,0.0
5323,73.0,0.0,60.0,5.0,0.0
5324,61.0,0.0,60.0,11.0,0.0
5325,67.0,0.0,60.0,5.0,0.0
5326,55.0,0.0,60.0,3.0,0.0
5327,64.0,0.0,60.0,10.0,0.0
5328,52.0,60.0,60.0,4.0,0.0
5329,38.0,0.0,120.0,8.0,0.0
5330,38.0,0.0,120.0,7.0,0.0
5331,65.0,0.0,120.0,10.0,0.0
5332,74.0,0.0,60.0,5.0,0.0
5333,50.0,0.0,120.0,4.0,0.0
5334,69.0,0.0,120.0,11.0,0.0
5335,53.0,30.0,60.0,3.0,0.0
5336,69.0,0.0,60.0,6.0,0.0
5337,74.0,0.0,60.0,6.0,0.0
5338,57.0,0.0,15.0,12.0,0.0
5339,38.0,0.0,120.0,13.0,0.0
5340,67.0,30.0,30.0,5.0,0.0
5341,69.0,0.0,15.0,5.0,0.0
5342,52.0,0.0,30.0,3.0,0.0
5343,69.0,0.0,60.0,6.0,0.0
5344,67.0,0.0,30.0,6.0,0.0
5345,65.0,0.0,30.0,5.0,0.0
5346,50.0,0.0,30.0,3.0,0.0
5347,65.0,0.0,30.0,6.0,0.0
5348,58.0,0.0,180.0,3.0,0.0
5349,67.0,0.0,60.0,6.0,0.0
5350,74.0,0.0,60.0,6.0,0.0
5351,74.0,0.0,60.0,5.0,0.0
5352,67.0,30.0,60.0,5.0,0.0
5353,58.0,0.0,60.0,12.0,0.0
5354,65.0,0.0,30.0,6.0,0.0
5355,70.0,0.0,60.0,6.0,0.0
5356,43.0,0.0,60.0,8.0,0.0
5357,65.0,30.0,30.0,5.0,0.0
5358,70.0,0.0,60.0,5.0,0.0
5359,43.0,0.0,60.0,4.0,0.0
5360,43.0,60.0,60.0,13.0,0.0
5361,43.0,0.0,60.0,7.0,0.0
5362,74.0,0.0,60.0,10.0,0.0
5363,67.0,0.0,30.0,6.0,0.0
5364,67.0,0.0,15.0,11.0,0.0
5365,48.0,0.0,120.0,7.0,0.0
5366,64.0,0.0,60.0,5.0,0.0
5367,67.0,0.0,15.0,5.0,0.0
5368,64.0,0.0,60.0,6.0,0.0
5369,60.0,0.0,120.0,12.0,0.0
5370,48.0,0.0,120.0,8.0,0.0
5371,48.0,0.0,180.0,4.0,0.0
5372,67.0,30.0,60.0,6.0,0.0
5373,48.0,0.0,120.0,13.0,0.0
5374,72.0,0.0,120.0,10.0,0.0
5375,53.0,0.0,60.0,3.0,0.0
5376,65.0,0.0,60.0,5.0,0.0
5377,65.0,0.0,60.0,6.0,0.0
5378,69.0,0.0,30.0,6.0,0.0
5379,69.0,30.0,30.0,5.0,0.0
5380,70.0,0.0,30.0,5.0,0.0
5381,70.0,0.0,30.0,6.0,0.0
5382,36.0,0.0,120.0,8.0,0.0
5383,72.0,0.0,60.0,5.0,0.0
5384,36.0,0.0,120.0,13.0,0.0
5385,36.0,30.0,120.0,7.0,0.0
5386,67.0,0.0,60.0,5.0,0.0
5387,72.0,30.0,60.0,6.0,0.0
5388,52.0,25.0,30.0,3.0,0.0
5389,58.0,0.0,60.0,3.0,0.0
5390,64.0,0.0,60.0,6.0,0.0
5391,67.0,0.0,15.0,6.0,0.0
5392,50.0,30.0,30.0,4.0,0.0
5393,64.0,0.0,60.0,5.0,0.0
5394,64.0,0.0,60.0,12.0,0.0
5395,67.0,0.0,60.0,5.0,0.0
5396,67.0,0.0,60.0,11.0,0.0
5397,52.0,0.0,30.0,4.0,0.0
5398,69.0,30.0,30.0,6.0,0.0
5399,53.0,0.0,120.0,4.0,0.0
5400,69.0,0.0,30.0,5.0,0.0
5401,60.0,0.0,60.0,5.0,0.0
5402,72.0,0.0,15.0,10.0,0.0
5403,65.0,0.0,120.0,11.0,0.0
5404,41.0,0.0,120.0,8.0,0.0
5405,60.0,30.0,60.0,6.0,0.0
5406,41.0,0.0,120.0,7.0,0.0
5407,41.0,0.0,120.0,13.0,0.0
5408,57.0,60.0,120.0,12.0,0.0
5409,57.0,0.0,60.0,3.0,0.0
5410,67.0,0.0,30.0,6.0,0.0
5411,67.0,0.0,30.0,5.0,0.0
5412,69.0,30.0,30.0,5.0,0.0
5413,65.0,0.0,120.0,5.0,0.0
5414,65.0,0.0,120.0,6.0,0.0
5415,53.0,0.0,30.0,3.0,0.0
5416,69.0,0.0,30.0,6.0,0.0
5417,70.0,0.0,30.0,5.0,0.0
5418,55.0,0.0,30.0,3.0,0.0
5419,70.0,0.0,30.0,6.0,0.0
5420,72.0,0.0,60.0,6.0,0.0
5421,72.0,30.0,60.0,5.0,0.0
5422,56.0,0.0,180.0,3.0,0.0
5423,41.0,0.0,60.0,4.0,0.0
5424,68.0,0.0,60.0,5.0,0.0
5425,41.0,0.0,60.0,8.0,0.0
5426,68.0,0.0,60.0,6.0,0.0
5427,63.0,0.0,30.0,6.0,0.0
5428,41.0,60.0,60.0,13.0,0.0
5429,63.0,30.0,30.0,5.0,0.0
5430,72.0,0.0,60.0,10.0,0.0
5431,41.0,0.0,60.0,7.0,0.0
5432,60.0,0.0,60.0,12.0,0.0
5433,65.0,0.0,30.0,6.0,0.0
5434,65.0,0.0,30.0,5.0,0.0
5435,65.0,0.0,15.0,11.0,0.0
5436,65.0,30.0,60.0,5.0,0.0
5437,62.0,0.0,60.0,5.0,0.0
5438,65.0,0.0,60.0,6.0,0.0
5439,62.0,0.0,60.0,6.0,0.0
5440,70.0,0.0,120.0,10.0,0.0
5441,46.0,0.0,180.0,4.0,0.0
5442,62.0,0.0,120.0,12.0,0.0
5443,46.0,0.0,120.0,7.0,0.0
5444,46.0,0.0,120.0,13.0,0.0
5445,46.0,0.0,120.0,8.0,0.0
5446,67.0,30.0,30.0,6.0,0.0
5447,51.0,0.0,60.0,3.0,0.0
5448,63.0,0.0,60.0,6.0,0.0
5449,63.0,0.0,60.0,5.0,0.0
5450,67.0,0.0,30.0,5.0,0.0
5451,68.0,0.0,30.0,5.0,0.0
5452,68.0,0.0,30.0,6.0,0.0
5453,70.0,30.0,60.0,6.0,0.0
5454,50.0,25.0,30.0,3.0,0.0
5455,70.0,0.0,60.0,5.0,0.0
5456,65.0,0.0,60.0,5.0,0.0
5457,65.0,0.0,60.0,6.0,0.0
5458,34.0,0.0,60.0,13.0,0.0
5459,65.0,0.0,60.0,11.0,0.0
5460,56.0,0.0,60.0,3.0,0.0
5461,34.0,0.0,60.0,8.0,0.0
5462,65.0,0.0,60.0,5.0,0.0
5463,62.0,0.0,60.0,5.0,0.0
5464,34.0,0.0,60.0,7.0,0.0
5465,65.0,35.0,60.0,6.0,0.0
5466,62.0,0.0,60.0,6.0,0.0
5467,70.0,0.0,60.0,10.0,0.0
5468,62.0,0.0,60.0,12.0,0.0
5469,48.0,30.0,30.0,4.0,0.0
5470,50.0,0.0,30.0,4.0,0.0
5471,39.0,0.0,60.0,7.0,0.0
5472,63.0,35.0,120.0,11.0,0.0
5473,39.0,0.0,60.0,8.0,0.0
5474,51.0,0.0,120.0,4.0,0.0
5475,70.0,0.0,120.0,10.0,0.0
5476,67.0,0.0,60.0,5.0,0.0
5477,55.0,25.0,30.0,3.0,0.0
5478,67.0,30.0,60.0,6.0,0.0
5479,58.0,0.0,120.0,6.0,0.0
5480,39.0,0.0,60.0,13.0,0.0
5481,58.0,0.0,120.0,5.0,0.0
5482,70.0,0.0,60.0,5.0,0.0
5483,38.0,0.0,60.0,8.0,0.0
5484,70.0,0.0,60.0,6.0,0.0
5485,50.0,0.0,60.0,3.0,0.0
5486,38.0,0.0,60.0,13.0,0.0
5487,38.0,0.0,60.0,7.0,0.0
5488,55.0,0.0,15.0,2.0,0.0
5489,55.0,30.0,15.0,12.0,0.0
5490,36.0,0.0,60.0,13.0,0.0
5491,75.0,60.0,60.0,5.0,0.0
5492,75.0,0.0,60.0,6.0,0.0
5493,55.0,0.0,30.0,12.0,0.0
5494,36.0,0.0,60.0,7.0,0.0
5495,36.0,0.0,60.0,8.0,0.0
5496,55.0,25.0,30.0,2.0,0.0
5497,55.0,0.0,240.0,3.0,0.0
5498,46.0,0.0,60.0,4.0,0.0
5499,55.0,0.0,60.0,12.0,0.0
5500,67.0,30.0,60.0,11.0,0.0
5501,34.0,0.0,60.0,8.0,0.0
5502,34.0,0.0,60.0,13.0,0.0
5503,58.0,0.0,60.0,6.0,0.0
5504,74.0,0.0,60.0,6.0,0.0
5505,70.0,0.0,60.0,10.0,0.0
5506,34.0,0.0,60.0,7.0,0.0
5507,58.0,0.0,60.0,5.0,0.0
5508,55.0,0.0,60.0,2.0,0.0
5509,74.0,0.0,60.0,5.0,0.0
5510,63.0,0.0,30.0,6.0,0.0
5511,72.0,30.0,30.0,6.0,0.0
5512,57.0,0.0,60.0,12.0,0.0
5513,63.0,0.0,30.0,5.0,0.0
5514,72.0,0.0,30.0,5.0,0.0
5515,48.0,0.0,120.0,4.0,0.0
5516,36.0,0.0,120.0,13.0,0.0
5517,69.0,0.0,120.0,10.0,0.0
5518,36.0,0.0,120.0,7.0,0.0
5519,57.0,60.0,60.0,2.0,0.0
5520,36.0,35.0,120.0,8.0,0.0
5521,63.0,0.0,120.0,11.0,0.0
5522,70.0,0.0,30.0,5.0,0.0
5523,62.0,0.0,30.0,5.0,0.0
5524,62.0,0.0,30.0,6.0,0.0
5525,70.0,0.0,30.0,6.0,0.0
5526,69.0,0.0,120.0,6.0,0.0
5527,51.0,0.0,60.0,2.0,0.0
5528,60.0,0.0,120.0,5.0,0.0
5529,51.0,0.0,60.0,12.0,0.0
5530,60.0,0.0,120.0,6.0,0.0
5531,69.0,30.0,120.0,5.0,0.0
5532,50.0,0.0,30.0,2.0,0.0
5533,38.0,0.0,120.0,7.0,0.0
5534,38.0,0.0,120.0,13.0,0.0
5535,38.0,30.0,120.0,8.0,0.0
5536,50.0,0.0,120.0,4.0,0.0
5537,50.0,25.0,30.0,12.0,0.0
5538,54.0,0.0,120.0,3.0,0.0
5539,62.0,0.0,60.0,11.0,0.0
5540,57.0,0.0,60.0,2.0,0.0
5541,69.0,0.0,60.0,10.0,0.0
5542,57.0,0.0,60.0,12.0,0.0
5543,74.0,30.0,30.0,5.0,0.0
5544,74.0,0.0,30.0,6.0,0.0
5545,66.0,0.0,60.0,6.0,0.0
5546,66.0,0.0,60.0,5.0,0.0
5547,72.0,0.0,30.0,6.0,0.0
5548,72.0,0.0,30.0,5.0,0.0
5549,43.0,0.0,60.0,4.0,0.0
5550,70.0,0.0,30.0,5.0,0.0
5551,62.0,0.0,60.0,5.0,0.0
5552,67.0,0.0,120.0,10.0,0.0
5553,62.0,30.0,60.0,6.0,0.0
5554,70.0,30.0,30.0,6.0,0.0
5555,62.0,0.0,120.0,11.0,0.0
5556,55.0,0.0,60.0,3.0,0.0
5557,58.0,0.0,60.0,12.0,0.0
5558,58.0,0.0,60.0,2.0,0.0
5559,43.0,0.0,120.0,13.0,0.0
5560,43.0,0.0,120.0,7.0,0.0
5561,43.0,0.0,120.0,8.0,0.0
5562,69.0,0.0,30.0,6.0,0.0
5563,69.0,0.0,30.0,5.0,0.0
5564,50.0,35.0,60.0,4.0,0.0
5565,51.0,0.0,60.0,12.0,0.0
5566,67.0,0.0,30.0,5.0,0.0
5567,51.0,0.0,60.0,2.0,0.0
5568,67.0,30.0,30.0,6.0,0.0
5569,69.0,0.0,30.0,5.0,0.0
5570,69.0,0.0,30.0,6.0,0.0
5571,41.0,0.0,120.0,13.0,0.0
5572,50.0,0.0,30.0,2.0,0.0
5573,41.0,0.0,120.0,7.0,0.0
5574,71.0,0.0,60.0,6.0,0.0
5575,71.0,0.0,60.0,5.0,0.0
5576,41.0,0.0,120.0,8.0,0.0
5577,55.0,60.0,180.0,4.0,0.0
5578,50.0,25.0,30.0,12.0,0.0
5579,74.0,0.0,60.0,5.0,0.0
5580,62.0,0.0,60.0,11.0,0.0
5581,59.0,30.0,60.0,2.0,0.0
5582,59.0,0.0,60.0,12.0,0.0
5583,50.0,0.0,60.0,3.0,0.0
5584,74.0,0.0,60.0,6.0,0.0
5585,55.0,0.0,120.0,11.0,0.0
5586,79.0,0.0,120.0,5.0,0.0
5587,75.0,0.0,120.0,5.0,0.0
5588,60.0,0.0,30.0,12.0,0.0
5589,79.0,0.0,120.0,6.0,0.0
5590,48.0,0.0,60.0,3.0,0.0
5591,39.0,0.0,60.0,7.0,0.0
5592,75.0,0.0,120.0,6.0,0.0
5593,67.0,0.0,15.0,10.0,0.0
5594,60.0,30.0,30.0,2.0,0.0
5595,39.0,0.0,60.0,13.0,0.0
5596,39.0,0.0,60.0,8.0,0.0
5597,58.0,0.0,30.0,2.0,0.0
5598,58.0,0.0,30.0,12.0,0.0
5599,48.0,0.0,60.0,8.0,0.0
5600,51.0,30.0,60.0,3.0,0.0
5601,48.0,0.0,60.0,7.0,0.0
5602,56.0,0.0,90.0,12.0,0.0
5603,48.0,0.0,60.0,13.0,0.0
5604,48.0,0.0,60.0,4.0,0.0
5605,56.0,30.0,90.0,2.0,0.0
5606,46.0,0.0,60.0,13.0,0.0
5607,46.0,0.0,60.0,7.0,0.0
5608,46.0,0.0,60.0,8.0,0.0
5609,50.0,30.0,60.0,3.0,0.0
5610,46.0,0.0,60.0,4.0,0.0
5611,55.0,0.0,30.0,12.0,0.0
5612,55.0,0.0,30.0,2.0,0.0
5613,45.0,0.0,60.0,13.0,0.0
5614,45.0,35.0,60.0,4.0,0.0
5615,45.0,0.0,60.0,7.0,0.0
5616,54.0,30.0,30.0,2.0,0.0
5617,72.0,0.0,120.0,6.0,0.0
5618,75.0,60.0,120.0,6.0,0.0
5619,45.0,0.0,60.0,8.0,0.0
5620,60.0,0.0,60.0,11.0,0.0
5621,75.0,0.0,120.0,5.0,0.0
5622,72.0,0.0,120.0,5.0,0.0
5623,54.0,0.0,30.0,12.0,0.0
5624,48.0,0.0,60.0,3.0,0.0
5625,55.0,0.0,30.0,12.0,0.0
5626,55.0,0.0,30.0,2.0,0.0
5627,54.0,0.0,30.0,2.0,0.0
5628,54.0,25.0,30.0,12.0,0.0
5629,50.0,0.0,30.0,3.0,0.0
5630,57.0,0.0,120.0,11.0,0.0
5631,50.0,0.0,60.0,13.0,0.0
5632,50.0,0.0,60.0,7.0,0.0
5633,50.0,0.0,60.0,4.0,0.0
5634,69.0,0.0,15.0,10.0,0.0
5635,50.0,0.0,60.0,8.0,0.0
5636,48.0,0.0,60.0,7.0,0.0
5637,48.0,0.0,60.0,4.0,0.0
5638,48.0,0.0,60.0,13.0,0.0
5639,69.0,0.0,60.0,5.0,0.0
5640,54.0,0.0,60.0,3.0,0.0
5641,63.0,0.0,60.0,2.0,0.0
5642,63.0,0.0,60.0,12.0,0.0
5643,48.0,0.0,60.0,8.0,0.0
5644,69.0,0.0,60.0,6.0,0.0
5645,62.0,0.0,60.0,12.0,0.0
5646,46.0,0.0,60.0,8.0,0.0
5647,55.0,0.0,60.0,3.0,0.0
5648,46.0,60.0,60.0,7.0,0.0
5649,67.0,0.0,60.0,5.0,0.0
5650,70.0,0.0,60.0,5.0,0.0
5651,46.0,0.0,60.0,13.0,0.0
5652,70.0,0.0,60.0,6.0,0.0
5653,62.0,0.0,60.0,2.0,0.0
5654,67.0,0.0,60.0,6.0,0.0
5655,46.0,0.0,60.0,4.0,0.0
5656,57.0,0.0,60.0,11.0,0.0
5657,45.0,0.0,60.0,4.0,0.0
5658,57.0,0.0,60.0,3.0,0.0
5659,45.0,0.0,60.0,13.0,0.0
5660,66.0,0.0,60.0,6.0,0.0
5661,72.0,0.0,60.0,6.0,0.0
5662,45.0,0.0,60.0,8.0,0.0
5663,60.0,0.0,60.0,2.0,0.0
5664,69.0,0.0,60.0,10.0,0.0
5665,72.0,0.0,60.0,5.0,0.0
5666,66.0,0.0,60.0,5.0,0.0
5667,45.0,0.0,60.0,7.0,0.0
5668,60.0,60.0,60.0,12.0,0.0
5669,58.0,30.0,60.0,12.0,0.0
5670,43.0,0.0,60.0,4.0,0.0
5671,43.0,0.0,60.0,8.0,0.0
5672,67.0,0.0,120.0,5.0,0.0
5673,74.0,0.0,60.0,5.0,0.0
5674,43.0,0.0,60.0,13.0,0.0
5675,43.0,0.0,60.0,7.0,0.0
5676,58.0,0.0,60.0,2.0,0.0
5677,74.0,0.0,60.0,6.0,0.0
5678,58.0,0.0,60.0,3.0,0.0
5679,58.0,0.0,60.0,11.0,0.0
5680,67.0,0.0,120.0,6.0,0.0
5681,45.0,0.0,60.0,4.0,0.0
5682,45.0,0.0,60.0,8.0,0.0
5683,45.0,30.0,60.0,7.0,0.0
5684,57.0,0.0,30.0,12.0,0.0
5685,60.0,0.0,30.0,11.0,0.0
5686,72.0,0.0,60.0,6.0,0.0
5687,72.0,0.0,60.0,5.0,0.0
5688,57.0,0.0,30.0,2.0,0.0
5689,60.0,0.0,30.0,3.0,0.0
5690,45.0,0.0,60.0,13.0,0.0
5691,55.0,0.0,30.0,2.0,0.0
5692,58.0,0.0,30.0,11.0,0.0
5693,62.0,30.0,15.0,0.0,0.0
5694,58.0,0.0,30.0,3.0,0.0
5695,55.0,0.0,30.0,12.0,0.0
5696,62.0,0.0,15.0,10.0,0.0
5697,70.0,0.0,150.0,6.0,0.0
5698,70.0,0.0,150.0,5.0,0.0
5699,57.0,5.0,30.0,3.0,0.0
5700,62.0,0.0,240.0,2.0,0.0
5701,62.0,25.0,30.0,10.0,0.0
5702,62.0,0.0,30.0,0.0,0.0
5703,62.0,0.0,240.0,12.0,0.0
5704,46.0,0.0,60.0,4.0,0.0
5705,46.0,0.0,60.0,13.0,0.0
5706,57.0,0.0,30.0,11.0,0.0
5707,46.0,0.0,60.0,7.0,0.0
5708,46.0,0.0,60.0,8.0,0.0
5709,55.0,30.0,30.0,3.0,0.0
5710,55.0,0.0,30.0,11.0,0.0
5711,53.0,0.0,30.0,11.0,0.0
5712,62.0,0.0,60.0,10.0,0.0
5713,45.0,0.0,60.0,4.0,0.0
5714,45.0,0.0,60.0,8.0,0.0
5715,53.0,30.0,30.0,3.0,0.0
5716,65.0,0.0,60.0,6.0,0.0
5717,45.0,30.0,60.0,13.0,0.0
5718,62.0,0.0,60.0,0.0,0.0
5719,45.0,0.0,60.0,7.0,0.0
5720,65.0,0.0,60.0,5.0,0.0
5721,55.0,0.0,30.0,11.0,0.0
5722,55.0,0.0,30.0,3.0,0.0
5723,43.0,0.0,60.0,8.0,0.0
5724,43.0,0.0,60.0,4.0,0.0
5725,67.0,0.0,30.0,6.0,0.0
5726,64.0,0.0,60.0,0.0,0.0
5727,43.0,0.0,60.0,13.0,0.0
5728,67.0,30.0,30.0,5.0,0.0
5729,52.0,0.0,240.0,11.0,0.0
5730,43.0,0.0,60.0,7.0,0.0
5731,52.0,0.0,240.0,3.0,0.0
5732,64.0,0.0,60.0,10.0,0.0
5733,69.0,0.0,30.0,5.0,0.0
5734,69.0,30.0,30.0,6.0,0.0
5735,65.0,0.0,30.0,6.0,0.0
5736,65.0,0.0,30.0,5.0,0.0
5737,67.0,0.0,120.0,5.0,0.0
5738,64.0,0.0,120.0,5.0,0.0
5739,58.0,0.0,60.0,10.0,0.0
5740,41.0,0.0,30.0,13.0,0.0
5741,41.0,30.0,30.0,8.0,0.0
5742,41.0,0.0,30.0,4.0,0.0
5743,41.0,0.0,30.0,7.0,0.0
5744,58.0,0.0,60.0,0.0,0.0
5745,67.0,30.0,120.0,6.0,0.0
5746,64.0,0.0,120.0,6.0,0.0
5747,43.0,0.0,30.0,7.0,0.0
5748,43.0,0.0,30.0,13.0,0.0
5749,43.0,0.0,30.0,8.0,0.0
5750,43.0,35.0,30.0,4.0,0.0
5751,61.0,0.0,120.0,12.0,0.0
5752,45.0,0.0,120.0,4.0,0.0
5753,57.0,25.0,30.0,10.0,0.0
5754,45.0,0.0,120.0,13.0,0.0
5755,57.0,0.0,30.0,0.0,0.0
5756,61.0,0.0,120.0,2.0,0.0
5757,45.0,0.0,120.0,8.0,0.0
5758,45.0,60.0,120.0,7.0,0.0
5759,69.0,30.0,30.0,6.0,0.0
5760,61.0,0.0,60.0,6.0,0.0
5761,64.0,0.0,60.0,10.0,0.0
5762,61.0,0.0,60.0,5.0,0.0
5763,64.0,0.0,60.0,0.0,0.0
5764,69.0,0.0,30.0,5.0,0.0
5765,67.0,0.0,30.0,5.0,0.0
5766,67.0,0.0,30.0,6.0,0.0
5767,65.0,0.0,60.0,5.0,0.0
5768,38.0,0.0,120.0,13.0,0.0
5769,38.0,0.0,120.0,4.0,0.0
5770,65.0,0.0,60.0,0.0,0.0
5771,62.0,0.0,120.0,12.0,0.0
5772,65.0,30.0,60.0,6.0,0.0
5773,62.0,0.0,120.0,2.0,0.0
5774,38.0,0.0,120.0,8.0,0.0
5775,65.0,0.0,60.0,10.0,0.0
5776,50.0,0.0,60.0,3.0,0.0
5777,38.0,0.0,120.0,7.0,0.0
5778,58.0,0.0,60.0,10.0,0.0
5779,58.0,30.0,60.0,0.0,0.0
5780,62.0,0.0,60.0,3.0,0.0
5781,62.0,0.0,30.0,5.0,0.0
5782,62.0,0.0,60.0,11.0,0.0
5783,62.0,30.0,30.0,6.0,0.0
5784,64.0,0.0,30.0,6.0,0.0
5785,64.0,0.0,30.0,5.0,0.0
5786,57.0,0.0,30.0,10.0,0.0
5787,60.0,25.0,30.0,3.0,0.0
5788,66.0,0.0,30.0,5.0,0.0
5789,60.0,0.0,60.0,11.0,0.0
5790,57.0,0.0,30.0,0.0,0.0
5791,66.0,5.0,30.0,6.0,0.0
5792,67.0,30.0,30.0,6.0,0.0
5793,67.0,0.0,30.0,5.0,0.0
5794,66.0,0.0,60.0,10.0,0.0
5795,57.0,0.0,60.0,11.0,0.0
5796,57.0,0.0,60.0,3.0,0.0
5797,69.0,0.0,30.0,5.0,0.0
5798,69.0,30.0,30.0,6.0,0.0
5799,66.0,30.0,60.0,0.0,0.0
5800,66.0,0.0,30.0,5.0,0.0
5801,66.0,0.0,30.0,6.0,0.0
5802,67.0,30.0,30.0,10.0,0.0
5803,58.0,0.0,300.0,3.0,0.0
5804,58.0,0.0,300.0,11.0,0.0
5805,67.0,0.0,30.0,0.0,0.0
5806,65.0,0.0,30.0,0.0,0.0
5807,65.0,30.0,30.0,10.0,0.0
5808,70.0,0.0,30.0,5.0,0.0
5809,63.0,0.0,90.0,0.0,0.0
5810,55.0,30.0,60.0,4.0,0.0
5811,63.0,0.0,90.0,10.0,0.0
5812,55.0,0.0,60.0,8.0,0.0
5813,55.0,0.0,60.0,13.0,0.0
5814,70.0,30.0,30.0,6.0,0.0
5815,55.0,0.0,60.0,7.0,0.0
5816,69.0,0.0,30.0,5.0,0.0
5817,69.0,0.0,30.0,6.0,0.0
5818,53.0,0.0,60.0,7.0,0.0
5819,53.0,0.0,60.0,13.0,0.0
5820,53.0,0.0,60.0,4.0,0.0
5821,67.0,0.0,30.0,5.0,0.0
5822,53.0,0.0,60.0,8.0,0.0
5823,67.0,30.0,30.0,6.0,0.0
5824,65.0,30.0,30.0,5.0,0.0
5825,65.0,0.0,30.0,6.0,0.0
5826,62.0,0.0,30.0,10.0,0.0
5827,62.0,0.0,30.0,0.0,0.0
5828,50.0,0.0,60.0,8.0,0.0
5829,61.0,0.0,30.0,0.0,0.0
5830,64.0,30.0,30.0,5.0,0.0
5831,50.0,0.0,60.0,13.0,0.0
5832,61.0,0.0,30.0,10.0,0.0
5833,64.0,0.0,30.0,6.0,0.0
5834,50.0,0.0,60.0,4.0,0.0
5835,50.0,0.0,60.0,7.0,0.0
5836,62.0,0.0,30.0,0.0,0.0
5837,65.0,35.0,30.0,6.0,0.0
5838,65.0,0.0,30.0,5.0,0.0
5839,62.0,0.0,30.0,10.0,0.0
5840,52.0,0.0,120.0,8.0,0.0
5841,61.0,0.0,30.0,10.0,0.0
5842,52.0,0.0,120.0,13.0,0.0
5843,52.0,0.0,120.0,4.0,0.0
5844,61.0,25.0,30.0,0.0,0.0
5845,52.0,35.0,120.0,7.0,0.0
5846,67.0,0.0,60.0,6.0,0.0
5847,50.0,0.0,60.0,3.0,0.0
5848,50.0,0.0,60.0,12.0,0.0
5849,70.0,0.0,60.0,10.0,0.0
5850,67.0,0.0,15.0,5.0,0.0
5851,70.0,0.0,60.0,5.0,0.0
5852,67.0,0.0,60.0,2.0,0.0
5853,70.0,0.0,60.0,0.0,0.0
5854,70.0,0.0,60.0,6.0,0.0
5855,67.0,60.0,15.0,6.0,0.0
5856,67.0,0.0,60.0,11.0,0.0
5857,45.0,0.0,120.0,13.0,0.0
5858,64.0,0.0,60.0,6.0,0.0
5859,69.0,0.0,60.0,6.0,0.0
5860,49.0,25.0,30.0,3.0,0.0
5861,45.0,0.0,120.0,4.0,0.0
5862,69.0,0.0,60.0,10.0,0.0
5863,64.0,0.0,60.0,2.0,0.0
5864,64.0,0.0,60.0,11.0,0.0
5865,49.0,60.0,60.0,12.0,0.0
5866,45.0,0.0,120.0,8.0,0.0
5867,64.0,0.0,60.0,5.0,0.0
5868,69.0,0.0,60.0,5.0,0.0
5869,69.0,0.0,60.0,0.0,0.0
5870,45.0,0.0,120.0,7.0,0.0
5871,67.0,0.0,60.0,0.0,0.0
5872,61.0,0.0,60.0,6.0,0.0
5873,67.0,0.0,60.0,6.0,0.0
5874,52.0,0.0,60.0,3.0,0.0
5875,61.0,0.0,60.0,11.0,0.0
5876,52.0,0.0,60.0,12.0,0.0
5877,67.0,0.0,60.0,10.0,0.0
5878,61.0,0.0,60.0,5.0,0.0
5879,61.0,60.0,60.0,2.0,0.0
5880,67.0,0.0,60.0,5.0,0.0
5881,65.0,0.0,60.0,6.0,0.0
5882,65.0,0.0,60.0,5.0,0.0
5883,62.0,0.0,60.0,11.0,0.0
5884,50.0,0.0,120.0,8.0,0.0
5885,50.0,0.0,120.0,13.0,0.0
5886,62.0,30.0,60.0,5.0,0.0
5887,50.0,0.0,120.0,7.0,0.0
5888,62.0,0.0,60.0,6.0,0.0
5889,45.0,60.0,120.0,12.0,0.0
5890,53.0,30.0,180.0,3.0,0.0
5891,65.0,0.0,60.0,0.0,0.0
5892,50.0,0.0,120.0,4.0,0.0
5893,65.0,0.0,60.0,10.0,0.0
5894,62.0,0.0,60.0,2.0,0.0
5895,64.0,0.0,60.0,2.0,0.0
5896,64.0,0.0,30.0,0.0,0.0
5897,64.0,0.0,60.0,11.0,0.0
5898,64.0,0.0,30.0,5.0,0.0
5899,64.0,30.0,30.0,6.0,0.0
5900,64.0,0.0,30.0,10.0,0.0
5901,62.0,0.0,30.0,0.0,0.0
5902,62.0,0.0,30.0,5.0,0.0
5903,62.0,0.0,30.0,6.0,0.0
5904,62.0,0.0,30.0,10.0,0.0
5905,65.0,0.0,60.0,2.0,0.0
5906,70.0,0.0,180.0,0.0,0.0
5907,65.0,0.0,60.0,6.0,0.0
5908,70.0,0.0,180.0,5.0,0.0
5909,49.0,0.0,120.0,8.0,0.0
5910,49.0,0.0,120.0,13.0,0.0
5911,65.0,0.0,60.0,5.0,0.0
5912,70.0,60.0,180.0,6.0,0.0
5913,49.0,60.0,120.0,4.0,0.0
5914,65.0,0.0,60.0,11.0,0.0
5915,70.0,0.0,180.0,10.0,0.0
5916,49.0,0.0,120.0,7.0,0.0
5917,58.0,0.0,60.0,11.0,0.0
5918,58.0,0.0,60.0,2.0,0.0
5919,58.0,0.0,60.0,6.0,0.0
5920,53.0,0.0,60.0,12.0,0.0
5921,52.0,30.0,30.0,3.0,0.0
5922,58.0,0.0,60.0,5.0,0.0
5923,53.0,0.0,30.0,3.0,0.0
5924,64.0,0.0,60.0,2.0,0.0
5925,48.0,0.0,120.0,13.0,0.0
5926,48.0,0.0,120.0,8.0,0.0
5927,64.0,0.0,60.0,6.0,0.0
5928,64.0,0.0,60.0,5.0,0.0
5929,55.0,0.0,60.0,3.0,0.0
5930,55.0,0.0,60.0,12.0,0.0
5931,48.0,0.0,120.0,7.0,0.0
5932,64.0,0.0,60.0,11.0,0.0
5933,65.0,0.0,60.0,0.0,0.0
5934,65.0,0.0,60.0,5.0,0.0
5935,57.0,0.0,60.0,3.0,0.0
5936,65.0,35.0,60.0,10.0,0.0
5937,65.0,0.0,60.0,11.0,0.0
5938,65.0,0.0,60.0,2.0,0.0
5939,57.0,0.0,60.0,12.0,0.0
5940,65.0,0.0,60.0,6.0,0.0
5941,64.0,25.0,30.0,6.0,0.0
5942,67.0,0.0,180.0,6.0,0.0
5943,48.0,0.0,15.0,4.0,0.0
5944,67.0,0.0,180.0,5.0,0.0
5945,64.0,0.0,30.0,5.0,0.0
5946,58.0,60.0,60.0,12.0,0.0
5947,64.0,0.0,30.0,0.0,0.0
5948,67.0,0.0,180.0,2.0,0.0
5949,36.0,60.0,120.0,13.0,0.0
5950,58.0,0.0,30.0,3.0,0.0
5951,36.0,0.0,120.0,8.0,0.0
5952,67.0,0.0,180.0,11.0,0.0
5953,64.0,0.0,60.0,10.0,0.0
5954,36.0,0.0,120.0,7.0,0.0
5955,70.0,0.0,60.0,0.0,0.0
5956,70.0,0.0,60.0,10.0,0.0
5957,70.0,0.0,60.0,5.0,0.0
5958,70.0,0.0,60.0,6.0,0.0
5959,52.0,0.0,60.0,12.0,0.0
5960,52.0,0.0,60.0,3.0,0.0
5961,53.0,0.0,120.0,4.0,0.0
5962,69.0,0.0,60.0,0.0,0.0
5963,69.0,0.0,60.0,10.0,0.0
5964,41.0,0.0,60.0,7.0,0.0
5965,53.0,0.0,60.0,12.0,0.0
5966,69.0,0.0,60.0,5.0,0.0
5967,53.0,0.0,60.0,3.0,0.0
5968,41.0,0.0,60.0,8.0,0.0
5969,69.0,30.0,60.0,6.0,0.0
5970,41.0,0.0,60.0,13.0,0.0
5971,60.0,0.0,60.0,11.0,0.0
5972,67.0,30.0,30.0,0.0,0.0
5973,67.0,0.0,30.0,5.0,0.0
5974,60.0,0.0,60.0,2.0,0.0
5975,53.0,60.0,60.0,8.0,0.0
5976,53.0,0.0,60.0,13.0,0.0
5977,53.0,0.0,60.0,7.0,0.0
5978,60.0,0.0,60.0,5.0,0.0
5979,67.0,0.0,30.0,10.0,0.0
5980,67.0,0.0,30.0,6.0,0.0
5981,57.0,0.0,60.0,12.0,0.0
5982,60.0,0.0,60.0,6.0,0.0
5983,57.0,0.0,60.0,3.0,0.0
5984,65.0,0.0,30.0,0.0,0.0
5985,65.0,0.0,30.0,10.0,0.0
5986,65.0,0.0,30.0,6.0,0.0
5987,65.0,0.0,30.0,5.0,0.0
5988,51.0,0.0,60.0,7.0,0.0
5989,55.0,0.0,60.0,3.0,0.0
5990,72.0,0.0,180.0,5.0,0.0
5991,67.0,0.0,60.0,2.0,0.0
5992,72.0,0.0,180.0,6.0,0.0
5993,55.0,0.0,60.0,12.0,0.0
5994,72.0,0.0,180.0,0.0,0.0
5995,72.0,0.0,180.0,10.0,0.0
5996,67.0,0.0,60.0,11.0,0.0
5997,67.0,0.0,60.0,5.0,0.0
5998,51.0,30.0,60.0,4.0,0.0
5999,51.0,0.0,60.0,8.0,0.0
6000,67.0,0.0,60.0,6.0,0.0
6001,51.0,0.0,60.0,13.0,0.0
6002,60.0,30.0,30.0,12.0,0.0
6003,48.0,0.0,60.0,13.0,0.0
6004,69.0,0.0,30.0,11.0,0.0
6005,69.0,0.0,30.0,5.0,0.0
6006,48.0,0.0,60.0,4.0,0.0
6007,60.0,0.0,30.0,3.0,0.0
6008,48.0,0.0,60.0,8.0,0.0
6009,69.0,0.0,30.0,2.0,0.0
6010,48.0,0.0,60.0,7.0,0.0
6011,69.0,0.0,30.0,6.0,0.0
6012,67.0,0.0,30.0,2.0,0.0
6013,67.0,60.0,30.0,5.0,0.0
6014,67.0,0.0,30.0,11.0,0.0
6015,58.0,0.0,30.0,12.0,0.0
6016,67.0,0.0,30.0,6.0,0.0
6017,58.0,0.0,30.0,3.0,0.0
6018,66.0,0.0,60.0,6.0,0.0
6019,50.0,0.0,120.0,13.0,0.0
6020,57.0,60.0,60.0,12.0,0.0
6021,50.0,0.0,120.0,8.0,0.0
6022,66.0,0.0,60.0,11.0,0.0
6023,50.0,0.0,120.0,4.0,0.0
6024,66.0,0.0,60.0,2.0,0.0
6025,66.0,0.0,60.0,5.0,0.0
6026,50.0,0.0,120.0,7.0,0.0
6027,57.0,0.0,60.0,3.0,0.0
6028,67.0,0.0,60.0,11.0,0.0
6029,67.0,0.0,60.0,2.0,0.0
6030,67.0,0.0,60.0,10.0,0.0
6031,58.0,0.0,60.0,3.0,0.0
6032,67.0,0.0,60.0,6.0,0.0
6033,58.0,0.0,60.0,12.0,0.0
6034,67.0,0.0,60.0,0.0,0.0
6035,67.0,0.0,60.0,5.0,0.0
6036,66.0,60.0,60.0,10.0,0.0
6037,66.0,0.0,30.0,5.0,0.0
6038,69.0,0.0,120.0,5.0,0.0
6039,38.0,0.0,120.0,7.0,0.0
6040,60.0,0.0,30.0,3.0,0.0
6041,60.0,0.0,60.0,12.0,0.0
6042,38.0,60.0,120.0,4.0,0.0
6043,69.0,0.0,120.0,11.0,0.0
6044,38.0,0.0,120.0,13.0,0.0
6045,69.0,0.0,120.0,2.0,0.0
6046,38.0,0.0,120.0,8.0,0.0
6047,66.0,25.0,30.0,0.0,0.0
6048,69.0,0.0,120.0,6.0,0.0
6049,66.0,0.0,30.0,6.0,0.0
6050,54.0,0.0,60.0,12.0,0.0
6051,72.0,0.0,60.0,10.0,0.0
6052,54.0,0.0,60.0,3.0,0.0
6053,72.0,0.0,60.0,5.0,0.0
6054,72.0,0.0,60.0,6.0,0.0
6055,72.0,0.0,60.0,0.0,0.0
6056,67.0,60.0,60.0,11.0,0.0
6057,43.0,0.0,60.0,13.0,0.0
6058,67.0,0.0,60.0,5.0,0.0
6059,70.0,0.0,60.0,10.0,0.0
6060,70.0,0.0,60.0,5.0,0.0
6061,43.0,0.0,60.0,7.0,0.0
6062,55.0,0.0,120.0,12.0,0.0
6063,55.0,60.0,120.0,3.0,0.0
6064,67.0,0.0,60.0,2.0,0.0
6065,43.0,0.0,60.0,8.0,0.0
6066,70.0,0.0,60.0,0.0,0.0
6067,67.0,0.0,60.0,6.0,0.0
6068,70.0,0.0,60.0,6.0,0.0
6069,50.0,0.0,60.0,4.0,0.0
6070,69.0,0.0,60.0,0.0,0.0
6071,69.0,0.0,60.0,10.0,0.0
6072,69.0,0.0,60.0,6.0,0.0
6073,50.0,0.0,60.0,7.0,0.0
6074,50.0,0.0,60.0,13.0,0.0
6075,69.0,0.0,60.0,5.0,0.0
6076,65.0,0.0,60.0,5.0,0.0
6077,65.0,0.0,60.0,6.0,0.0
6078,65.0,0.0,60.0,2.0,0.0
6079,50.0,0.0,60.0,8.0,0.0
6080,65.0,0.0,60.0,11.0,0.0
6081,55.0,0.0,180.0,8.0,0.0
6082,64.0,0.0,60.0,11.0,0.0
6083,67.0,60.0,60.0,0.0,0.0
6084,64.0,0.0,60.0,2.0,0.0
6085,64.0,0.0,60.0,5.0,0.0
6086,67.0,0.0,60.0,10.0,0.0
6087,55.0,0.0,180.0,7.0,0.0
6088,67.0,0.0,60.0,5.0,0.0
6089,55.0,0.0,180.0,13.0,0.0
6090,55.0,0.0,180.0,4.0,0.0
6091,67.0,0.0,60.0,6.0,0.0
6092,64.0,0.0,60.0,6.0,0.0
6093,62.0,0.0,60.0,2.0,0.0
6094,62.0,0.0,60.0,5.0,0.0
6095,62.0,0.0,60.0,11.0,0.0
6096,62.0,0.0,60.0,6.0,0.0
6097,65.0,0.0,60.0,6.0,0.0
6098,65.0,0.0,60.0,10.0,0.0
6099,50.0,60.0,60.0,12.0,0.0
6100,65.0,0.0,60.0,5.0,0.0
6101,65.0,0.0,60.0,0.0,0.0
6102,50.0,0.0,60.0,3.0,0.0
6103,61.0,0.0,60.0,6.0,0.0
6104,64.0,0.0,60.0,6.0,0.0
6105,64.0,0.0,60.0,0.0,0.0
6106,61.0,0.0,60.0,11.0,0.0
6107,64.0,0.0,60.0,5.0,0.0
6108,61.0,0.0,60.0,5.0,0.0
6109,61.0,0.0,60.0,2.0,0.0
6110,64.0,30.0,60.0,10.0,0.0
6111,65.0,0.0,30.0,5.0,0.0
6112,57.0,0.0,15.0,12.0,0.0
6113,50.0,0.0,60.0,4.0,0.0
6114,62.0,0.0,60.0,5.0,0.0
6115,62.0,0.0,60.0,2.0,0.0
6116,50.0,0.0,60.0,8.0,0.0
6117,50.0,0.0,60.0,13.0,0.0
6118,62.0,0.0,60.0,11.0,0.0
6119,65.0,30.0,30.0,0.0,0.0
6120,50.0,0.0,60.0,7.0,0.0
6121,57.0,0.0,15.0,3.0,0.0
6122,65.0,0.0,30.0,6.0,0.0
6123,62.0,0.0,60.0,6.0,0.0
6124,65.0,0.0,30.0,10.0,0.0
6125,67.0,0.0,30.0,5.0,0.0
6126,67.0,0.0,30.0,10.0,0.0
6127,67.0,35.0,30.0,6.0,0.0
6128,67.0,0.0,30.0,0.0,0.0
6129,49.0,0.0,30.0,4.0,0.0
6130,69.0,0.0,180.0,5.0,0.0
6131,64.0,30.0,60.0,5.0,0.0
6132,52.0,0.0,30.0,3.0,0.0
6133,64.0,0.0,60.0,11.0,0.0
6134,69.0,0.0,180.0,10.0,0.0
6135,49.0,0.0,60.0,7.0,0.0
6136,49.0,0.0,60.0,8.0,0.0
6137,64.0,25.0,30.0,2.0,0.0
6138,69.0,0.0,180.0,0.0,0.0
6139,49.0,0.0,60.0,13.0,0.0
6140,64.0,0.0,60.0,6.0,0.0
6141,69.0,30.0,180.0,6.0,0.0
6142,52.0,0.0,60.0,12.0,0.0
6143,55.0,0.0,60.0,13.0,0.0
6144,62.0,0.0,30.0,6.0,0.0
6145,55.0,0.0,60.0,7.0,0.0
6146,53.0,0.0,30.0,3.0,0.0
6147,55.0,0.0,60.0,4.0,0.0
6148,62.0,0.0,30.0,11.0,0.0
6149,55.0,0.0,60.0,8.0,0.0
6150,53.0,0.0,30.0,12.0,0.0
6151,62.0,0.0,30.0,2.0,0.0
6152,62.0,30.0,30.0,5.0,0.0
6153,61.0,0.0,30.0,11.0,0.0
6154,55.0,60.0,30.0,3.0,0.0
6155,55.0,0.0,30.0,12.0,0.0
6156,61.0,0.0,30.0,5.0,0.0
6157,61.0,0.0,30.0,6.0,0.0
6158,61.0,0.0,30.0,2.0,0.0
6159,53.0,0.0,60.0,13.0,0.0
6160,62.0,0.0,60.0,2.0,0.0
6161,53.0,0.0,60.0,4.0,0.0
6162,53.0,0.0,60.0,8.0,0.0
6163,62.0,0.0,60.0,6.0,0.0
6164,57.0,0.0,180.0,12.0,0.0
6165,62.0,0.0,60.0,11.0,0.0
6166,62.0,0.0,60.0,5.0,0.0
6167,57.0,0.0,180.0,3.0,0.0
6168,53.0,0.0,60.0,7.0,0.0
6169,67.0,0.0,60.0,10.0,0.0
6170,52.0,30.0,30.0,7.0,0.0
6171,57.0,0.0,60.0,11.0,0.0
6172,61.0,0.0,60.0,6.0,0.0
6173,67.0,0.0,60.0,0.0,0.0
6174,52.0,0.0,30.0,8.0,0.0
6175,67.0,0.0,60.0,6.0,0.0
6176,61.0,0.0,60.0,5.0,0.0
6177,67.0,0.0,60.0,5.0,0.0
6178,57.0,0.0,60.0,2.0,0.0
6179,52.0,0.0,30.0,13.0,0.0
6180,52.0,0.0,30.0,4.0,0.0
6181,50.0,0.0,30.0,8.0,0.0
6182,50.0,60.0,30.0,4.0,0.0
6183,50.0,0.0,30.0,13.0,0.0
6184,50.0,0.0,30.0,7.0,0.0
6185,53.0,0.0,180.0,8.0,0.0
6186,62.0,0.0,60.0,2.0,0.0
6187,62.0,0.0,60.0,5.0,0.0
6188,53.0,0.0,180.0,7.0,0.0
6189,62.0,0.0,60.0,6.0,0.0
6190,65.0,0.0,60.0,6.0,0.0
6191,65.0,0.0,60.0,10.0,0.0
6192,62.0,30.0,60.0,11.0,0.0
6193,65.0,0.0,60.0,5.0,0.0
6194,65.0,0.0,60.0,0.0,0.0
6195,53.0,0.0,180.0,13.0,0.0
6196,53.0,30.0,180.0,4.0,0.0
6197,60.0,0.0,60.0,5.0,0.0
6198,63.0,0.0,60.0,0.0,0.0
6199,60.0,0.0,60.0,2.0,0.0
6200,63.0,0.0,60.0,5.0,0.0
6201,63.0,0.0,60.0,10.0,0.0
6202,60.0,0.0,60.0,11.0,0.0
6203,55.0,30.0,30.0,3.0,0.0
6204,55.0,0.0,30.0,12.0,0.0
6205,60.0,60.0,60.0,6.0,0.0
6206,63.0,0.0,60.0,6.0,0.0
6207,53.0,0.0,30.0,12.0,0.0
6208,53.0,0.0,30.0,3.0,0.0
6209,62.0,0.0,60.0,5.0,0.0
6210,62.0,0.0,60.0,10.0,0.0
6211,59.0,0.0,60.0,5.0,0.0
6212,55.0,0.0,240.0,3.0,0.0
6213,59.0,0.0,60.0,2.0,0.0
6214,62.0,0.0,60.0,0.0,0.0
6215,55.0,0.0,360.0,12.0,0.0
6216,62.0,0.0,60.0,6.0,0.0
6217,59.0,0.0,60.0,6.0,0.0
6218,59.0,0.0,60.0,11.0,0.0
6219,48.0,0.0,60.0,13.0,0.0
6220,60.0,0.0,60.0,11.0,0.0
6221,48.0,0.0,60.0,8.0,0.0
6222,48.0,0.0,60.0,7.0,0.0
6223,63.0,0.0,30.0,6.0,0.0
6224,60.0,0.0,60.0,6.0,0.0
6225,63.0,30.0,30.0,10.0,0.0
6226,63.0,0.0,30.0,5.0,0.0
6227,60.0,0.0,60.0,5.0,0.0
6228,63.0,0.0,30.0,0.0,0.0
6229,60.0,0.0,60.0,2.0,0.0
6230,48.0,0.0,60.0,4.0,0.0
6231,65.0,0.0,30.0,6.0,0.0
6232,65.0,0.0,30.0,10.0,0.0
6233,65.0,0.0,30.0,0.0,0.0
6234,65.0,35.0,30.0,5.0,0.0
6235,67.0,0.0,180.0,10.0,0.0
6236,62.0,0.0,60.0,11.0,0.0
6237,47.0,0.0,60.0,7.0,0.0
6238,67.0,0.0,180.0,6.0,0.0
6239,62.0,0.0,60.0,6.0,0.0
6240,67.0,0.0,120.0,0.0,0.0
6241,47.0,30.0,60.0,8.0,0.0
6242,62.0,0.0,30.0,2.0,0.0
6243,47.0,0.0,60.0,13.0,0.0
6244,47.0,25.0,30.0,4.0,0.0
6245,62.0,0.0,60.0,5.0,0.0
6246,67.0,30.0,180.0,5.0,0.0
6247,53.0,0.0,60.0,8.0,0.0
6248,60.0,30.0,30.0,6.0,0.0
6249,53.0,0.0,60.0,13.0,0.0
6250,60.0,0.0,30.0,11.0,0.0
6251,53.0,0.0,60.0,7.0,0.0
6252,60.0,0.0,30.0,5.0,0.0
6253,60.0,0.0,30.0,2.0,0.0
6254,53.0,0.0,60.0,4.0,0.0
6255,59.0,30.0,30.0,6.0,0.0
6256,59.0,0.0,30.0,2.0,0.0
6257,59.0,0.0,30.0,5.0,0.0
6258,59.0,0.0,30.0,11.0,0.0
6259,60.0,0.0,90.0,11.0,0.0
6260,60.0,0.0,180.0,2.0,0.0
6261,60.0,0.0,60.0,0.0,0.0
6262,60.0,0.0,90.0,5.0,0.0
6263,51.0,0.0,30.0,7.0,0.0
6264,51.0,0.0,60.0,4.0,0.0
6265,51.0,0.0,30.0,8.0,0.0
6266,60.0,0.0,90.0,1.0,0.0
6267,51.0,30.0,30.0,13.0,0.0
6268,50.0,0.0,30.0,7.0,0.0
6269,50.0,0.0,30.0,8.0,0.0
6270,50.0,0.0,30.0,13.0,0.0
6271,48.0,0.0,30.0,8.0,0.0
6272,55.0,0.0,15.0,3.0,0.0
6273,69.0,0.0,30.0,10.0,0.0
6274,69.0,0.0,30.0,6.0,0.0
6275,48.0,0.0,30.0,7.0,0.0
6276,69.0,0.0,30.0,5.0,0.0
6277,67.0,35.0,60.0,0.0,0.0
6278,48.0,30.0,30.0,13.0,0.0
6279,48.0,0.0,60.0,4.0,0.0
6280,71.0,0.0,30.0,10.0,0.0
6281,46.0,0.0,30.0,8.0,0.0
6282,71.0,0.0,30.0,6.0,0.0
6283,60.0,0.0,30.0,11.0,0.0
6284,60.0,0.0,15.0,6.0,0.0
6285,71.0,0.0,30.0,5.0,0.0
6286,60.0,0.0,30.0,5.0,0.0
6287,46.0,0.0,30.0,7.0,0.0
6288,46.0,0.0,30.0,13.0,0.0
6289,56.0,0.0,60.0,4.0,0.0
6290,72.0,0.0,240.0,10.0,0.0
6291,44.0,30.0,60.0,8.0,0.0
6292,72.0,0.0,240.0,6.0,0.0
6293,53.0,0.0,60.0,12.0,0.0
6294,72.0,0.0,240.0,5.0,0.0
6295,60.0,25.0,30.0,5.0,0.0
6296,53.0,0.0,60.0,3.0,0.0
6297,60.0,0.0,30.0,11.0,0.0
6298,60.0,0.0,15.0,1.0,0.0
6299,60.0,0.0,30.0,6.0,0.0
6300,44.0,0.0,60.0,7.0,0.0
6301,44.0,0.0,60.0,13.0,0.0
6302,72.0,0.0,240.0,0.0,0.0
6303,43.0,0.0,60.0,7.0,0.0
6304,60.0,0.0,60.0,11.0,0.0
6305,43.0,0.0,60.0,13.0,0.0
6306,55.0,60.0,60.0,4.0,0.0
6307,60.0,0.0,60.0,5.0,0.0
6308,51.0,0.0,60.0,12.0,0.0
6309,51.0,0.0,60.0,3.0,0.0
6310,60.0,0.0,60.0,1.0,0.0
6311,60.0,0.0,60.0,6.0,0.0
6312,62.0,30.0,30.0,2.0,0.0
6313,43.0,0.0,60.0,8.0,0.0
6314,63.0,0.0,30.0,2.0,0.0
6315,50.0,0.0,240.0,12.0,0.0
6316,62.0,0.0,60.0,11.0,0.0
6317,41.0,30.0,60.0,8.0,0.0
6318,62.0,0.0,60.0,6.0,0.0
6319,62.0,0.0,60.0,5.0,0.0
6320,62.0,0.0,60.0,1.0,0.0
6321,65.0,0.0,180.0,2.0,0.0
6322,41.0,0.0,60.0,13.0,0.0
6323,53.0,0.0,120.0,4.0,0.0
6324,41.0,0.0,60.0,7.0,0.0
6325,56.0,35.0,60.0,11.0,0.0
6326,39.0,30.0,30.0,8.0,0.0
6327,39.0,0.0,30.0,13.0,0.0
6328,56.0,0.0,60.0,6.0,0.0
6329,39.0,0.0,30.0,7.0,0.0
6330,56.0,0.0,60.0,1.0,0.0
6331,41.0,0.0,30.0,7.0,0.0
6332,41.0,0.0,30.0,13.0,0.0
6333,41.0,0.0,30.0,8.0,0.0
6334,55.0,0.0,30.0,1.0,0.0
6335,71.0,0.0,120.0,0.0,0.0
6336,55.0,0.0,120.0,4.0,0.0
6337,71.0,0.0,120.0,5.0,0.0
6338,71.0,0.0,120.0,6.0,0.0
6339,71.0,0.0,120.0,10.0,0.0
6340,55.0,25.0,30.0,6.0,0.0
6341,43.0,30.0,60.0,13.0,0.0
6342,50.0,0.0,15.0,3.0,0.0
6343,55.0,0.0,30.0,11.0,0.0
6344,43.0,0.0,15.0,8.0,0.0
6345,43.0,0.0,15.0,7.0,0.0
6346,62.0,0.0,60.0,5.0,0.0
6347,67.0,30.0,30.0,2.0,0.0
6348,62.0,60.0,60.0,11.0,0.0
6349,62.0,0.0,60.0,1.0,0.0
6350,43.0,0.0,60.0,13.0,0.0
6351,62.0,0.0,60.0,6.0,0.0
6352,65.0,0.0,30.0,2.0,0.0
6353,63.0,0.0,60.0,1.0,0.0
6354,72.0,0.0,60.0,10.0,0.0
6355,63.0,0.0,60.0,2.0,0.0
6356,36.0,60.0,60.0,13.0,0.0
6357,48.0,0.0,180.0,4.0,0.0
6358,48.0,0.0,60.0,3.0,0.0
6359,72.0,0.0,60.0,0.0,0.0
6360,36.0,0.0,60.0,8.0,0.0
6361,36.0,0.0,60.0,7.0,0.0
6362,63.0,0.0,60.0,6.0,0.0
6363,72.0,0.0,60.0,5.0,0.0
6364,63.0,0.0,60.0,5.0,0.0
6365,48.0,0.0,60.0,12.0,0.0
6366,72.0,0.0,60.0,6.0,0.0
6367,63.0,0.0,60.0,11.0,0.0
6368,65.0,0.0,60.0,0.0,0.0
6369,48.0,60.0,120.0,8.0,0.0
6370,56.0,0.0,60.0,6.0,0.0
6371,65.0,0.0,60.0,6.0,0.0
6372,62.0,0.0,60.0,2.0,0.0
6373,65.0,0.0,60.0,10.0,0.0
6374,47.0,35.0,60.0,3.0,0.0
6375,48.0,0.0,120.0,13.0,0.0
6376,65.0,0.0,60.0,5.0,0.0
6377,56.0,0.0,60.0,11.0,0.0
6378,56.0,0.0,60.0,1.0,0.0
6379,47.0,0.0,60.0,12.0,0.0
6380,48.0,0.0,120.0,7.0,0.0
6381,64.0,0.0,30.0,0.0,0.0
6382,48.0,0.0,30.0,12.0,0.0
6383,64.0,0.0,30.0,10.0,0.0
6384,48.0,0.0,30.0,3.0,0.0
6385,64.0,0.0,30.0,6.0,0.0
6386,55.0,25.0,30.0,6.0,0.0
6387,64.0,0.0,30.0,5.0,0.0
6388,55.0,0.0,30.0,11.0,0.0
6389,60.0,0.0,180.0,2.0,0.0
6390,55.0,0.0,30.0,1.0,0.0
6391,60.0,0.0,60.0,5.0,0.0
6392,60.0,0.0,60.0,10.0,0.0
6393,55.0,0.0,60.0,12.0,0.0
6394,46.0,0.0,60.0,4.0,0.0
6395,64.0,0.0,60.0,11.0,0.0
6396,64.0,0.0,60.0,5.0,0.0
6397,46.0,0.0,60.0,7.0,0.0
6398,46.0,0.0,60.0,13.0,0.0
6399,64.0,0.0,60.0,1.0,0.0
6400,60.0,0.0,60.0,0.0,0.0
6401,64.0,0.0,60.0,6.0,0.0
6402,60.0,30.0,60.0,6.0,0.0
6403,55.0,0.0,60.0,3.0,0.0
6404,46.0,0.0,60.0,8.0,0.0
6405,65.0,0.0,360.0,10.0,0.0
6406,65.0,0.0,30.0,11.0,0.0
6407,65.0,30.0,30.0,1.0,0.0
6408,56.0,0.0,120.0,3.0,0.0
6409,44.0,0.0,60.0,13.0,0.0
6410,44.0,0.0,60.0,4.0,0.0
6411,65.0,0.0,30.0,6.0,0.0
6412,65.0,0.0,360.0,0.0,0.0
6413,60.0,0.0,60.0,12.0,0.0
6414,44.0,60.0,60.0,8.0,0.0
6415,44.0,0.0,60.0,7.0,0.0
6416,65.0,0.0,30.0,5.0,0.0
6417,63.0,0.0,30.0,5.0,0.0
6418,63.0,0.0,30.0,11.0,0.0
6419,63.0,0.0,30.0,6.0,0.0
6420,63.0,0.0,30.0,1.0,0.0
6421,43.0,0.0,60.0,8.0,0.0
6422,58.0,0.0,60.0,2.0,0.0
6423,61.0,30.0,90.0,11.0,0.0
6424,43.0,0.0,60.0,13.0,0.0
6425,43.0,0.0,60.0,7.0,0.0
6426,61.0,0.0,90.0,6.0,0.0
6427,61.0,0.0,90.0,5.0,0.0
6428,58.0,30.0,60.0,12.0,0.0
6429,61.0,0.0,90.0,1.0,0.0
6430,43.0,0.0,60.0,4.0,0.0
6431,44.0,0.0,120.0,4.0,0.0
6432,44.0,0.0,120.0,13.0,0.0
6433,56.0,30.0,60.0,2.0,0.0
6434,53.0,0.0,60.0,3.0,0.0
6435,56.0,0.0,60.0,12.0,0.0
6436,44.0,0.0,120.0,8.0,0.0
6437,44.0,0.0,120.0,7.0,0.0
6438,60.0,0.0,30.0,6.0,0.0
6439,60.0,0.0,30.0,1.0,0.0
6440,60.0,0.0,30.0,5.0,0.0
6441,60.0,0.0,30.0,11.0,0.0
6442,59.0,0.0,30.0,5.0,0.0
6443,53.0,0.0,60.0,12.0,0.0
6444,59.0,30.0,30.0,11.0,0.0
6445,59.0,0.0,30.0,6.0,0.0
6446,56.0,35.0,60.0,3.0,0.0
6447,53.0,0.0,60.0,2.0,0.0
6448,59.0,0.0,30.0,1.0,0.0
6449,60.0,0.0,30.0,6.0,0.0
6450,60.0,0.0,30.0,11.0,0.0
6451,60.0,0.0,30.0,5.0,0.0
6452,60.0,0.0,30.0,1.0,0.0
6453,59.0,0.0,30.0,6.0,0.0
6454,59.0,0.0,30.0,5.0,0.0
6455,62.0,0.0,30.0,12.0,0.0
6456,59.0,0.0,30.0,1.0,0.0
6457,43.0,0.0,120.0,7.0,0.0
6458,43.0,0.0,120.0,4.0,0.0
6459,62.0,0.0,30.0,2.0,0.0
6460,50.0,60.0,120.0,3.0,0.0
6461,59.0,85.0,30.0,11.0,0.0
6462,43.0,0.0,120.0,13.0,0.0
6463,43.0,0.0,120.0,8.0,0.0
6464,59.0,0.0,60.0,12.0,0.0
6465,59.0,0.0,60.0,2.0,0.0
6466,68.0,0.0,60.0,6.0,0.0
6467,68.0,0.0,60.0,1.0,0.0
6468,68.0,0.0,60.0,5.0,0.0
6469,68.0,0.0,60.0,11.0,0.0
6470,45.0,0.0,60.0,7.0,0.0
6471,67.0,0.0,60.0,6.0,0.0
6472,67.0,0.0,60.0,11.0,0.0
6473,60.0,0.0,60.0,12.0,0.0
6474,63.0,0.0,60.0,6.0,0.0
6475,63.0,0.0,60.0,0.0,0.0
6476,63.0,0.0,60.0,5.0,0.0
6477,60.0,0.0,60.0,2.0,0.0
6478,45.0,0.0,60.0,8.0,0.0
6479,45.0,0.0,60.0,4.0,0.0
6480,63.0,0.0,60.0,10.0,0.0
6481,67.0,0.0,60.0,1.0,0.0
6482,45.0,60.0,60.0,13.0,0.0
6483,67.0,0.0,60.0,5.0,0.0
6484,62.0,0.0,60.0,12.0,0.0
6485,62.0,0.0,60.0,0.0,0.0
6486,47.0,0.0,60.0,4.0,0.0
6487,47.0,0.0,60.0,8.0,0.0
6488,62.0,0.0,60.0,5.0,0.0
6489,47.0,0.0,60.0,13.0,0.0
6490,65.0,0.0,60.0,5.0,0.0
6491,47.0,0.0,60.0,7.0,0.0
6492,65.0,0.0,60.0,1.0,0.0
6493,62.0,0.0,60.0,6.0,0.0
6494,62.0,0.0,60.0,10.0,0.0
6495,65.0,0.0,60.0,6.0,0.0
6496,65.0,0.0,60.0,11.0,0.0
6497,62.0,60.0,60.0,2.0,0.0
6498,63.0,0.0,60.0,1.0,0.0
6499,63.0,0.0,60.0,11.0,0.0
6500,60.0,0.0,60.0,0.0,0.0
6501,60.0,30.0,60.0,5.0,0.0
6502,63.0,0.0,60.0,5.0,0.0
6503,63.0,0.0,60.0,12.0,0.0
6504,60.0,0.0,60.0,10.0,0.0
6505,63.0,0.0,60.0,2.0,0.0
6506,60.0,0.0,60.0,6.0,0.0
6507,63.0,0.0,60.0,6.0,0.0
6508,62.0,0.0,30.0,5.0,0.0
6509,62.0,0.0,60.0,10.0,0.0
6510,62.0,30.0,30.0,11.0,0.0
6511,62.0,0.0,60.0,0.0,0.0
6512,65.0,0.0,60.0,12.0,0.0
6513,65.0,0.0,60.0,2.0,0.0
6514,62.0,0.0,30.0,1.0,0.0
6515,62.0,0.0,30.0,6.0,0.0
6516,60.0,0.0,30.0,6.0,0.0
6517,60.0,0.0,30.0,1.0,0.0
6518,60.0,0.0,30.0,11.0,0.0
6519,60.0,0.0,30.0,5.0,0.0
6520,67.0,60.0,60.0,2.0,0.0
6521,70.0,0.0,180.0,11.0,0.0
6522,67.0,0.0,60.0,12.0,0.0
6523,64.0,0.0,60.0,0.0,0.0
6524,48.0,60.0,15.0,4.0,0.0
6525,48.0,0.0,15.0,8.0,0.0
6526,48.0,0.0,15.0,7.0,0.0
6527,64.0,0.0,60.0,5.0,0.0
6528,70.0,0.0,180.0,5.0,0.0
6529,70.0,0.0,180.0,1.0,0.0
6530,64.0,0.0,60.0,6.0,0.0
6531,64.0,0.0,60.0,10.0,0.0
6532,48.0,0.0,15.0,13.0,0.0
6533,70.0,0.0,180.0,6.0,0.0
6534,65.0,0.0,60.0,5.0,0.0
6535,65.0,0.0,60.0,12.0,0.0
6536,50.0,0.0,60.0,13.0,0.0
6537,50.0,60.0,60.0,7.0,0.0
6538,65.0,0.0,60.0,2.0,0.0
6539,50.0,0.0,60.0,4.0,0.0
6540,50.0,0.0,60.0,8.0,0.0
6541,65.0,0.0,60.0,6.0,0.0
6542,65.0,0.0,60.0,0.0,0.0
6543,65.0,0.0,60.0,10.0,0.0
6544,67.0,0.0,60.0,10.0,0.0
6545,52.0,60.0,60.0,13.0,0.0
6546,52.0,0.0,60.0,4.0,0.0
6547,52.0,0.0,60.0,8.0,0.0
6548,67.0,0.0,60.0,0.0,0.0
6549,64.0,0.0,60.0,2.0,0.0
6550,67.0,0.0,60.0,6.0,0.0
6551,67.0,0.0,60.0,5.0,0.0
6552,52.0,0.0,60.0,7.0,0.0
6553,64.0,0.0,60.0,12.0,0.0
6554,53.0,0.0,60.0,7.0,0.0
6555,65.0,0.0,60.0,1.0,0.0
6556,69.0,0.0,60.0,5.0,0.0
6557,53.0,35.0,60.0,4.0,0.0
6558,65.0,0.0,60.0,5.0,0.0
6559,62.0,0.0,60.0,12.0,0.0
6560,53.0,0.0,60.0,8.0,0.0
6561,62.0,0.0,60.0,2.0,0.0
6562,69.0,0.0,60.0,6.0,0.0
6563,65.0,0.0,60.0,6.0,0.0
6564,69.0,0.0,60.0,0.0,0.0
6565,65.0,0.0,60.0,11.0,0.0
6566,53.0,0.0,60.0,13.0,0.0
6567,69.0,0.0,60.0,10.0,0.0
6568,64.0,0.0,60.0,11.0,0.0
6569,60.0,0.0,60.0,12.0,0.0
6570,60.0,0.0,30.0,2.0,0.0
6571,55.0,0.0,60.0,8.0,0.0
6572,55.0,60.0,60.0,4.0,0.0
6573,70.0,0.0,60.0,0.0,0.0
6574,55.0,0.0,60.0,7.0,0.0
6575,70.0,0.0,30.0,5.0,0.0
6576,64.0,0.0,30.0,5.0,0.0
6577,70.0,0.0,30.0,6.0,0.0
6578,64.0,0.0,30.0,6.0,0.0
6579,64.0,25.0,30.0,1.0,0.0
6580,55.0,0.0,60.0,13.0,0.0
6581,70.0,0.0,60.0,10.0,0.0
6582,70.0,0.0,60.0,1.0,0.0
6583,48.0,0.0,60.0,8.0,0.0
6584,64.0,0.0,60.0,10.0,0.0
6585,55.0,0.0,60.0,12.0,0.0
6586,64.0,0.0,60.0,6.0,0.0
6587,70.0,0.0,60.0,5.0,0.0
6588,64.0,0.0,60.0,5.0,0.0
6589,70.0,0.0,60.0,11.0,0.0
6590,70.0,0.0,60.0,6.0,0.0
6591,64.0,60.0,60.0,0.0,0.0
6592,55.0,0.0,60.0,3.0,0.0
6593,48.0,0.0,60.0,7.0,0.0
6594,48.0,0.0,60.0,13.0,0.0
6595,48.0,0.0,60.0,4.0,0.0
6596,69.0,30.0,60.0,5.0,0.0
6597,53.0,0.0,120.0,4.0,0.0
6598,65.0,0.0,120.0,10.0,0.0
6599,53.0,0.0,120.0,13.0,0.0
6600,53.0,0.0,120.0,7.0,0.0
6601,69.0,0.0,60.0,1.0,0.0
6602,53.0,0.0,60.0,12.0,0.0
6603,53.0,0.0,120.0,8.0,0.0
6604,65.0,0.0,120.0,0.0,0.0
6605,53.0,0.0,60.0,3.0,0.0
6606,69.0,0.0,60.0,6.0,0.0
6607,69.0,0.0,60.0,11.0,0.0
6608,67.0,30.0,30.0,6.0,0.0
6609,67.0,0.0,30.0,11.0,0.0
6610,55.0,0.0,60.0,12.0,0.0
6611,60.0,0.0,60.0,2.0,0.0
6612,55.0,0.0,60.0,3.0,0.0
6613,67.0,0.0,30.0,1.0,0.0
6614,67.0,0.0,30.0,5.0,0.0
6615,65.0,0.0,30.0,6.0,0.0
6616,65.0,0.0,30.0,5.0,0.0
6617,65.0,0.0,30.0,1.0,0.0
6618,65.0,60.0,30.0,11.0,0.0
6619,65.0,60.0,60.0,2.0,0.0
6620,57.0,0.0,60.0,3.0,0.0
6621,72.0,0.0,180.0,1.0,0.0
6622,57.0,0.0,60.0,12.0,0.0
6623,72.0,0.0,180.0,5.0,0.0
6624,72.0,0.0,180.0,11.0,0.0
6625,72.0,0.0,180.0,6.0,0.0
6626,52.0,0.0,60.0,8.0,0.0
6627,55.0,0.0,60.0,12.0,0.0
6628,52.0,60.0,60.0,4.0,0.0
6629,52.0,0.0,60.0,7.0,0.0
6630,55.0,0.0,60.0,3.0,0.0
6631,67.0,0.0,60.0,6.0,0.0
6632,67.0,0.0,60.0,5.0,0.0
6633,52.0,0.0,60.0,13.0,0.0
6634,67.0,0.0,60.0,10.0,0.0
6635,67.0,0.0,60.0,0.0,0.0
6636,60.0,0.0,60.0,2.0,0.0
6637,54.0,0.0,60.0,3.0,0.0
6638,69.0,0.0,60.0,5.0,0.0
6639,57.0,0.0,120.0,2.0,0.0
6640,69.0,0.0,60.0,0.0,0.0
6641,54.0,0.0,60.0,7.0,0.0
6642,54.0,0.0,60.0,12.0,0.0
6643,69.0,0.0,60.0,10.0,0.0
6644,54.0,60.0,60.0,4.0,0.0
6645,54.0,0.0,60.0,13.0,0.0
6646,69.0,0.0,60.0,6.0,0.0
6647,54.0,0.0,60.0,8.0,0.0
6648,70.0,0.0,60.0,0.0,0.0
6649,70.0,35.0,60.0,5.0,0.0
6650,52.0,0.0,60.0,12.0,0.0
6651,67.0,0.0,60.0,5.0,0.0
6652,55.0,0.0,60.0,13.0,0.0
6653,55.0,0.0,60.0,8.0,0.0
6654,70.0,0.0,60.0,10.0,0.0
6655,55.0,0.0,60.0,4.0,0.0
6656,70.0,0.0,60.0,6.0,0.0
6657,52.0,0.0,60.0,3.0,0.0
6658,67.0,0.0,60.0,6.0,0.0
6659,67.0,0.0,60.0,1.0,0.0
6660,55.0,0.0,60.0,7.0,0.0
6661,67.0,0.0,60.0,11.0,0.0
6662,62.0,0.0,120.0,2.0,0.0
6663,66.0,0.0,60.0,5.0,0.0
6664,50.0,0.0,30.0,3.0,0.0
6665,57.0,0.0,60.0,7.0,0.0
6666,72.0,0.0,60.0,10.0,0.0
6667,57.0,25.0,30.0,4.0,0.0
6668,66.0,0.0,60.0,11.0,0.0
6669,57.0,0.0,60.0,8.0,0.0
6670,66.0,0.0,30.0,1.0,0.0
6671,57.0,0.0,60.0,13.0,0.0
6672,66.0,0.0,60.0,6.0,0.0
6673,72.0,60.0,60.0,0.0,0.0
6674,50.0,0.0,60.0,12.0,0.0
6675,72.0,0.0,60.0,6.0,0.0
6676,72.0,0.0,15.0,5.0,0.0
6677,66.0,0.0,60.0,10.0,0.0
6678,57.0,0.0,60.0,12.0,0.0
6679,57.0,60.0,60.0,3.0,0.0
6680,66.0,0.0,60.0,5.0,0.0
6681,50.0,0.0,60.0,8.0,0.0
6682,50.0,0.0,60.0,4.0,0.0
6683,66.0,0.0,60.0,6.0,0.0
6684,72.0,0.0,60.0,6.0,0.0
6685,72.0,0.0,60.0,1.0,0.0
6686,72.0,0.0,60.0,11.0,0.0
6687,50.0,0.0,60.0,7.0,0.0
6688,50.0,0.0,60.0,13.0,0.0
6689,66.0,0.0,60.0,0.0,0.0
6690,70.0,0.0,60.0,5.0,0.0
6691,67.0,0.0,120.0,5.0,0.0
6692,67.0,0.0,120.0,0.0,0.0
6693,67.0,30.0,120.0,6.0,0.0
6694,70.0,0.0,60.0,6.0,0.0
6695,70.0,0.0,60.0,1.0,0.0
6696,55.0,0.0,120.0,8.0,0.0
6697,55.0,0.0,120.0,7.0,0.0
6698,70.0,0.0,60.0,11.0,0.0
6699,55.0,0.0,120.0,4.0,0.0
6700,55.0,0.0,60.0,12.0,0.0
6701,62.0,0.0,150.0,2.0,0.0
6702,55.0,60.0,60.0,3.0,0.0
6703,67.0,0.0,120.0,10.0,0.0
6704,55.0,0.0,120.0,13.0,0.0
6705,57.0,0.0,60.0,3.0,0.0
6706,72.0,0.0,60.0,1.0,0.0
6707,72.0,0.0,60.0,5.0,0.0
6708,72.0,0.0,60.0,6.0,0.0
6709,57.0,0.0,60.0,12.0,0.0
6710,72.0,0.0,60.0,11.0,0.0
6711,74.0,0.0,240.0,5.0,0.0
6712,74.0,30.0,240.0,11.0,0.0
6713,58.0,0.0,30.0,12.0,0.0
6714,58.0,30.0,30.0,3.0,0.0
6715,74.0,0.0,240.0,1.0,0.0
6716,74.0,0.0,240.0,6.0,0.0
6717,60.0,0.0,30.0,2.0,0.0
6718,60.0,30.0,30.0,3.0,0.0
6719,60.0,0.0,30.0,12.0,0.0
6720,58.0,30.0,30.0,2.0,0.0
6721,62.0,0.0,60.0,12.0,0.0
6722,53.0,0.0,60.0,13.0,0.0
6723,62.0,0.0,60.0,3.0,0.0
6724,53.0,0.0,60.0,4.0,0.0
6725,53.0,0.0,60.0,7.0,0.0
6726,53.0,60.0,60.0,8.0,0.0
6727,57.0,0.0,30.0,2.0,0.0
6728,55.0,0.0,60.0,3.0,0.0
6729,67.0,0.0,90.0,5.0,0.0
6730,58.0,30.0,60.0,2.0,0.0
6731,51.0,0.0,240.0,13.0,0.0
6732,51.0,0.0,240.0,7.0,0.0
6733,51.0,0.0,240.0,4.0,0.0
6734,67.0,0.0,90.0,0.0,0.0
6735,55.0,0.0,120.0,12.0,0.0
6736,67.0,0.0,90.0,10.0,0.0
6737,51.0,0.0,240.0,8.0,0.0
6738,57.0,30.0,30.0,3.0,0.0
6739,57.0,0.0,30.0,2.0,0.0
6740,55.0,0.0,30.0,2.0,0.0
6741,67.0,0.0,15.0,6.0,0.0
6742,67.0,0.0,30.0,10.0,0.0
6743,67.0,0.0,30.0,5.0,0.0
6744,67.0,0.0,30.0,0.0,0.0
6745,58.0,0.0,30.0,3.0,0.0
6746,72.0,0.0,120.0,1.0,0.0
6747,67.0,0.0,15.0,6.0,0.0
6748,60.0,5.0,30.0,3.0,0.0
6749,67.0,0.0,30.0,5.0,0.0
6750,72.0,0.0,120.0,5.0,0.0
6751,67.0,0.0,30.0,10.0,0.0
6752,67.0,0.0,240.0,12.0,0.0
6753,72.0,60.0,120.0,6.0,0.0
6754,72.0,0.0,120.0,11.0,0.0
6755,67.0,0.0,240.0,2.0,0.0
6756,67.0,25.0,30.0,0.0,0.0
6757,62.0,60.0,30.0,3.0,0.0
6758,67.0,0.0,60.0,0.0,0.0
6759,67.0,0.0,60.0,6.0,0.0
6760,63.0,0.0,60.0,3.0,0.0
6761,67.0,0.0,60.0,10.0,0.0
6762,67.0,0.0,60.0,5.0,0.0
6763,50.0,0.0,120.0,4.0,0.0
6764,57.0,35.0,120.0,3.0,0.0
6765,50.0,0.0,120.0,8.0,0.0
6766,69.0,0.0,60.0,0.0,0.0
6767,74.0,0.0,120.0,5.0,0.0
6768,69.0,60.0,60.0,5.0,0.0
6769,50.0,0.0,120.0,13.0,0.0
6770,69.0,0.0,60.0,10.0,0.0
6771,50.0,0.0,120.0,7.0,0.0
6772,74.0,0.0,120.0,11.0,0.0
6773,74.0,0.0,120.0,1.0,0.0
6774,74.0,0.0,120.0,6.0,0.0
6775,69.0,0.0,60.0,6.0,0.0
6776,63.0,0.0,60.0,5.0,0.0
6777,63.0,0.0,60.0,0.0,0.0
6778,63.0,0.0,60.0,6.0,0.0
6779,63.0,0.0,60.0,10.0,0.0
6780,62.0,85.0,30.0,0.0,0.0
6781,38.0,0.0,120.0,13.0,0.0
6782,66.0,60.0,120.0,12.0,0.0
6783,62.0,0.0,30.0,5.0,0.0
6784,38.0,0.0,120.0,8.0,0.0
6785,66.0,0.0,120.0,2.0,0.0
6786,62.0,0.0,30.0,10.0,0.0
6787,62.0,0.0,30.0,6.0,0.0
6788,69.0,0.0,60.0,10.0,0.0
6789,69.0,0.0,60.0,6.0,0.0
6790,69.0,0.0,60.0,5.0,0.0
6791,69.0,0.0,60.0,0.0,0.0
6792,70.0,0.0,60.0,6.0,0.0
6793,67.0,0.0,60.0,2.0,0.0
6794,70.0,0.0,60.0,0.0,0.0
6795,43.0,0.0,60.0,13.0,0.0
6796,43.0,0.0,60.0,8.0,0.0
6797,70.0,60.0,60.0,10.0,0.0
6798,70.0,0.0,60.0,5.0,0.0
6799,67.0,0.0,60.0,12.0,0.0
6800,63.0,0.0,60.0,10.0,0.0
6801,55.0,0.0,120.0,8.0,0.0
6802,60.0,0.0,60.0,12.0,0.0
6803,55.0,0.0,120.0,13.0,0.0
6804,63.0,35.0,60.0,0.0,0.0
6805,63.0,0.0,60.0,5.0,0.0
6806,55.0,60.0,120.0,4.0,0.0
6807,63.0,0.0,60.0,6.0,0.0
6808,55.0,0.0,120.0,7.0,0.0
6809,60.0,0.0,60.0,2.0,0.0
6810,62.0,0.0,30.0,6.0,0.0
6811,62.0,0.0,30.0,5.0,0.0
6812,62.0,0.0,30.0,0.0,0.0
6813,62.0,0.0,30.0,10.0,0.0
6814,59.0,0.0,30.0,2.0,0.0
6815,59.0,25.0,30.0,12.0,0.0
6816,71.0,0.0,60.0,0.0,0.0
6817,71.0,0.0,60.0,5.0,0.0
6818,71.0,0.0,60.0,10.0,0.0
6819,53.0,30.0,60.0,7.0,0.0
6820,62.0,0.0,60.0,12.0,0.0
6821,53.0,0.0,60.0,8.0,0.0
6822,62.0,0.0,60.0,2.0,0.0
6823,53.0,0.0,60.0,4.0,0.0
6824,71.0,0.0,60.0,6.0,0.0
6825,53.0,0.0,60.0,13.0,0.0
6826,72.0,0.0,30.0,10.0,0.0
6827,51.0,0.0,60.0,8.0,0.0
6828,67.0,0.0,120.0,2.0,0.0
6829,63.0,0.0,240.0,12.0,0.0
6830,72.0,0.0,30.0,6.0,0.0
6831,51.0,60.0,60.0,13.0,0.0
6832,72.0,30.0,30.0,5.0,0.0
6833,72.0,0.0,30.0,0.0,0.0
6834,51.0,0.0,60.0,7.0,0.0
6835,51.0,0.0,60.0,4.0,0.0
6836,70.0,0.0,30.0,5.0,0.0
6837,70.0,0.0,30.0,6.0,0.0
6838,70.0,0.0,30.0,10.0,0.0
6839,70.0,0.0,30.0,0.0,0.0
6840,68.0,0.0,90.0,6.0,0.0
6841,68.0,30.0,90.0,10.0,0.0
6842,48.0,0.0,60.0,4.0,0.0
6843,68.0,0.0,90.0,0.0,0.0
6844,68.0,0.0,90.0,5.0,0.0
6845,48.0,0.0,60.0,7.0,0.0
6846,48.0,0.0,60.0,13.0,0.0
6847,48.0,0.0,60.0,8.0,0.0
6848,50.0,0.0,60.0,13.0,0.0
6849,60.0,0.0,60.0,2.0,0.0
6850,50.0,0.0,60.0,4.0,0.0
6851,50.0,30.0,60.0,7.0,0.0
6852,51.0,30.0,15.0,3.0,0.0
6853,50.0,0.0,60.0,8.0,0.0
6854,67.0,0.0,30.0,10.0,0.0
6855,67.0,0.0,30.0,0.0,0.0
6856,67.0,0.0,30.0,5.0,0.0
6857,67.0,0.0,30.0,6.0,0.0
6858,51.0,0.0,60.0,7.0,0.0
6859,50.0,0.0,30.0,3.0,0.0
6860,66.0,0.0,30.0,0.0,0.0
6861,66.0,0.0,30.0,10.0,0.0
6862,51.0,0.0,60.0,8.0,0.0
6863,51.0,0.0,60.0,4.0,0.0
6864,60.0,0.0,120.0,2.0,0.0
6865,51.0,0.0,60.0,13.0,0.0
6866,66.0,0.0,30.0,6.0,0.0
6867,66.0,30.0,30.0,5.0,0.0
6868,67.0,35.0,30.0,0.0,0.0
6869,67.0,0.0,30.0,6.0,0.0
6870,48.0,0.0,30.0,3.0,0.0
6871,67.0,0.0,30.0,10.0,0.0
6872,67.0,0.0,30.0,5.0,0.0
6873,57.0,0.0,120.0,12.0,0.0
6874,66.0,0.0,30.0,10.0,0.0
6875,50.0,0.0,60.0,7.0,0.0
6876,50.0,60.0,60.0,13.0,0.0
6877,57.0,0.0,60.0,3.0,0.0
6878,66.0,0.0,30.0,6.0,0.0
6879,50.0,0.0,60.0,8.0,0.0
6880,50.0,0.0,60.0,4.0,0.0
6881,66.0,25.0,30.0,0.0,0.0
6882,66.0,0.0,30.0,5.0,0.0
6883,75.0,0.0,60.0,10.0,0.0
6884,75.0,60.0,60.0,5.0,0.0
6885,48.0,0.0,60.0,7.0,0.0
6886,48.0,0.0,60.0,8.0,0.0
6887,45.0,0.0,60.0,3.0,0.0
6888,54.0,0.0,60.0,2.0,0.0
6889,75.0,0.0,60.0,6.0,0.0
6890,75.0,0.0,60.0,0.0,0.0
6891,48.0,0.0,60.0,4.0,0.0
6892,48.0,0.0,60.0,13.0,0.0
6893,74.0,0.0,60.0,6.0,0.0
6894,46.0,0.0,60.0,13.0,0.0
6895,46.0,0.0,60.0,3.0,0.0
6896,74.0,60.0,60.0,5.0,0.0
6897,46.0,0.0,60.0,4.0,0.0
6898,62.0,0.0,180.0,12.0,0.0
6899,46.0,0.0,60.0,7.0,0.0
6900,74.0,0.0,60.0,0.0,0.0
6901,74.0,0.0,60.0,10.0,0.0
6902,55.0,0.0,60.0,2.0,0.0
6903,46.0,0.0,60.0,8.0,0.0
6904,72.0,0.0,60.0,6.0,0.0
6905,45.0,0.0,60.0,4.0,0.0
6906,45.0,0.0,60.0,7.0,0.0
6907,72.0,0.0,60.0,0.0,0.0
6908,57.0,0.0,60.0,2.0,0.0
6909,45.0,0.0,60.0,13.0,0.0
6910,48.0,0.0,60.0,3.0,0.0
6911,72.0,0.0,60.0,10.0,0.0
6912,45.0,0.0,60.0,8.0,0.0
6913,72.0,60.0,60.0,5.0,0.0
6914,43.0,0.0,120.0,8.0,0.0
6915,70.0,0.0,60.0,0.0,0.0
6916,70.0,0.0,60.0,10.0,0.0
6917,62.0,0.0,90.0,11.0,0.0
6918,43.0,0.0,120.0,13.0,0.0
6919,70.0,0.0,60.0,6.0,0.0
6920,58.0,0.0,120.0,2.0,0.0
6921,43.0,0.0,60.0,4.0,0.0
6922,70.0,0.0,60.0,5.0,0.0
6923,50.0,30.0,60.0,3.0,0.0
6924,52.0,0.0,60.0,3.0,0.0
6925,69.0,0.0,30.0,10.0,0.0
6926,55.0,0.0,15.0,7.0,0.0
6927,69.0,0.0,30.0,6.0,0.0
6928,64.0,0.0,60.0,12.0,0.0
6929,69.0,0.0,30.0,0.0,0.0
6930,69.0,0.0,30.0,5.0,0.0
6931,43.0,35.0,60.0,4.0,0.0
6932,62.0,0.0,15.0,6.0,0.0
6933,67.0,0.0,30.0,0.0,0.0
6934,62.0,0.0,15.0,1.0,0.0
6935,67.0,0.0,30.0,10.0,0.0
6936,67.0,0.0,30.0,5.0,0.0
6937,62.0,30.0,15.0,5.0,0.0
6938,67.0,0.0,30.0,6.0,0.0
6939,62.0,0.0,15.0,11.0,0.0
6940,74.0,35.0,240.0,5.0,0.0
6941,57.0,0.0,120.0,2.0,0.0
6942,62.0,0.0,15.0,5.0,0.0
6943,53.0,0.0,60.0,3.0,0.0
6944,74.0,0.0,240.0,6.0,0.0
6945,74.0,0.0,240.0,0.0,0.0
6946,74.0,0.0,240.0,10.0,0.0
6947,53.0,0.0,60.0,7.0,0.0
6948,41.0,0.0,120.0,13.0,0.0
6949,41.0,0.0,120.0,8.0,0.0
6950,65.0,0.0,60.0,12.0,0.0
6951,41.0,30.0,60.0,4.0,0.0
6952,62.0,0.0,30.0,1.0,0.0
6953,62.0,0.0,60.0,12.0,0.0
6954,62.0,60.0,60.0,5.0,0.0
6955,62.0,0.0,60.0,1.0,0.0
6956,62.0,0.0,15.0,6.0,0.0
6957,62.0,0.0,60.0,11.0,0.0
6958,55.0,30.0,30.0,3.0,0.0
6959,52.0,0.0,30.0,7.0,0.0
6960,40.0,0.0,30.0,4.0,0.0
6961,57.0,0.0,30.0,3.0,0.0
6962,41.0,0.0,30.0,4.0,0.0
6963,53.0,0.0,30.0,7.0,0.0
6964,55.0,0.0,60.0,2.0,0.0
6965,55.0,0.0,60.0,7.0,0.0
6966,43.0,0.0,60.0,4.0,0.0
6967,43.0,0.0,120.0,8.0,0.0
6968,64.0,30.0,60.0,5.0,0.0
6969,64.0,0.0,60.0,6.0,0.0
6970,64.0,0.0,60.0,11.0,0.0
6971,70.0,0.0,60.0,12.0,0.0
6972,64.0,0.0,60.0,1.0,0.0
6973,58.0,0.0,60.0,3.0,0.0
6974,43.0,0.0,120.0,13.0,0.0
6975,58.0,0.0,60.0,11.0,0.0
6976,41.0,0.0,30.0,4.0,0.0
6977,55.0,0.0,60.0,3.0,0.0
6978,58.0,0.0,60.0,6.0,0.0
6979,67.0,0.0,60.0,12.0,0.0
6980,58.0,0.0,60.0,1.0,0.0
6981,53.0,30.0,30.0,7.0,0.0
6982,43.0,0.0,30.0,4.0,0.0
6983,55.0,0.0,30.0,7.0,0.0
6984,57.0,25.0,30.0,11.0,0.0
6985,73.0,0.0,120.0,6.0,0.0
6986,57.0,0.0,30.0,6.0,0.0
6987,57.0,0.0,30.0,1.0,0.0
6988,45.0,0.0,120.0,8.0,0.0
6989,64.0,0.0,60.0,12.0,0.0
6990,73.0,0.0,120.0,10.0,0.0
6991,45.0,0.0,120.0,4.0,0.0
6992,73.0,0.0,120.0,0.0,0.0
6993,45.0,0.0,120.0,13.0,0.0
6994,57.0,0.0,120.0,7.0,0.0
6995,52.0,0.0,60.0,3.0,0.0
6996,73.0,0.0,120.0,5.0,0.0
6997,64.0,0.0,60.0,1.0,0.0
6998,69.0,0.0,120.0,12.0,0.0
6999,55.0,60.0,15.0,2.0,0.0
7000,64.0,0.0,60.0,6.0,0.0
7001,64.0,0.0,60.0,5.0,0.0
7002,64.0,60.0,60.0,11.0,0.0
7003,57.0,0.0,60.0,3.0,0.0
7004,38.0,0.0,120.0,13.0,0.0
7005,50.0,35.0,120.0,7.0,0.0
7006,57.0,0.0,120.0,3.0,0.0
7007,65.0,0.0,60.0,1.0,0.0
7008,53.0,0.0,60.0,2.0,0.0
7009,38.0,0.0,120.0,4.0,0.0
7010,38.0,0.0,120.0,8.0,0.0
7011,65.0,0.0,60.0,5.0,0.0
7012,74.0,0.0,300.0,5.0,0.0
7013,65.0,0.0,60.0,11.0,0.0
7014,65.0,60.0,60.0,6.0,0.0
7015,74.0,0.0,300.0,6.0,0.0
7016,74.0,60.0,300.0,10.0,0.0
7017,58.0,0.0,60.0,1.0,0.0
7018,67.0,0.0,60.0,12.0,0.0
7019,58.0,0.0,60.0,11.0,0.0
7020,58.0,0.0,60.0,6.0,0.0
7021,52.0,0.0,60.0,2.0,0.0
7022,57.0,0.0,30.0,1.0,0.0
7023,48.0,0.0,120.0,8.0,0.0
7024,48.0,0.0,120.0,13.0,0.0
7025,69.0,60.0,60.0,12.0,0.0
7026,57.0,25.0,30.0,6.0,0.0
7027,74.0,0.0,15.0,0.0,0.0
7028,57.0,0.0,30.0,11.0,0.0
7029,54.0,0.0,30.0,2.0,0.0
7030,48.0,0.0,120.0,7.0,0.0
7031,66.0,0.0,60.0,5.0,0.0
7032,57.0,30.0,60.0,2.0,0.0
7033,62.0,0.0,120.0,12.0,0.0
7034,66.0,0.0,60.0,1.0,0.0
7035,66.0,0.0,60.0,6.0,0.0
7036,57.0,0.0,60.0,3.0,0.0
7037,66.0,0.0,60.0,11.0,0.0
7038,67.0,0.0,30.0,6.0,0.0
7039,46.0,0.0,60.0,8.0,0.0
7040,46.0,0.0,60.0,7.0,0.0
7041,67.0,0.0,30.0,11.0,0.0
7042,55.0,0.0,60.0,3.0,0.0
7043,67.0,0.0,30.0,5.0,0.0
7044,46.0,0.0,60.0,13.0,0.0
7045,67.0,30.0,30.0,1.0,0.0
7046,62.0,0.0,60.0,2.0,0.0
7047,65.0,0.0,30.0,5.0,0.0
7048,65.0,0.0,30.0,6.0,0.0
7049,65.0,0.0,30.0,11.0,0.0
7050,65.0,0.0,30.0,1.0,0.0
7051,55.0,0.0,120.0,4.0,0.0
7052,57.0,0.0,60.0,3.0,0.0
7053,72.0,0.0,60.0,0.0,0.0
7054,43.0,0.0,120.0,7.0,0.0
7055,43.0,0.0,120.0,13.0,0.0
7056,63.0,0.0,90.0,1.0,0.0
7057,63.0,0.0,120.0,12.0,0.0
7058,63.0,0.0,90.0,11.0,0.0
7059,43.0,0.0,120.0,8.0,0.0
7060,72.0,0.0,60.0,6.0,0.0
7061,54.0,0.0,60.0,2.0,0.0
7062,63.0,0.0,90.0,5.0,0.0
7063,72.0,30.0,60.0,10.0,0.0
7064,63.0,30.0,90.0,6.0,0.0
7065,72.0,0.0,60.0,5.0,0.0
7066,70.0,0.0,60.0,0.0,0.0
7067,55.0,60.0,180.0,2.0,0.0
7068,70.0,0.0,60.0,5.0,0.0
7069,70.0,0.0,60.0,6.0,0.0
7070,58.0,0.0,60.0,3.0,0.0
7071,70.0,0.0,60.0,10.0,0.0
7072,62.0,0.0,30.0,6.0,0.0
7073,62.0,0.0,30.0,1.0,0.0
7074,62.0,0.0,30.0,5.0,0.0
7075,62.0,30.0,30.0,11.0,0.0
7076,69.0,0.0,60.0,10.0,0.0
7077,61.0,30.0,30.0,5.0,0.0
7078,61.0,0.0,30.0,1.0,0.0
7079,45.0,0.0,60.0,13.0,0.0
7080,65.0,0.0,60.0,12.0,0.0
7081,69.0,0.0,60.0,0.0,0.0
7082,69.0,0.0,60.0,5.0,0.0
7083,57.0,0.0,60.0,4.0,0.0
7084,45.0,0.0,60.0,7.0,0.0
7085,61.0,0.0,30.0,6.0,0.0
7086,69.0,35.0,60.0,6.0,0.0
7087,61.0,0.0,30.0,11.0,0.0
7088,45.0,0.0,60.0,8.0,0.0
7089,62.0,0.0,30.0,11.0,0.0
7090,62.0,0.0,30.0,6.0,0.0
7091,62.0,0.0,30.0,1.0,0.0
7092,62.0,0.0,30.0,5.0,0.0
7093,67.0,0.0,120.0,12.0,0.0
7094,67.0,0.0,120.0,10.0,0.0
7095,52.0,0.0,15.0,3.0,0.0
7096,61.0,25.0,30.0,5.0,0.0
7097,67.0,0.0,120.0,5.0,0.0
7098,46.0,0.0,120.0,13.0,0.0
7099,61.0,0.0,30.0,1.0,0.0
7100,61.0,0.0,30.0,11.0,0.0
7101,67.0,0.0,120.0,0.0,0.0
7102,46.0,0.0,120.0,8.0,0.0
7103,58.0,0.0,120.0,4.0,0.0
7104,46.0,0.0,120.0,7.0,0.0
7105,67.0,0.0,120.0,6.0,0.0
7106,61.0,0.0,30.0,6.0,0.0
7107,70.0,0.0,60.0,6.0,0.0
7108,70.0,0.0,60.0,5.0,0.0
7109,70.0,0.0,60.0,11.0,0.0
7110,53.0,60.0,60.0,2.0,0.0
7111,70.0,0.0,60.0,1.0,0.0
7112,52.0,0.0,15.0,3.0,0.0
7113,37.0,0.0,120.0,7.0,0.0
7114,69.0,0.0,60.0,11.0,0.0
7115,37.0,0.0,120.0,13.0,0.0
7116,37.0,0.0,120.0,8.0,0.0
7117,76.0,0.0,180.0,0.0,0.0
7118,69.0,0.0,120.0,12.0,0.0
7119,69.0,0.0,60.0,1.0,0.0
7120,76.0,0.0,180.0,6.0,0.0
7121,69.0,0.0,60.0,6.0,0.0
7122,69.0,0.0,60.0,5.0,0.0
7123,49.0,0.0,120.0,4.0,0.0
7124,76.0,0.0,180.0,5.0,0.0
7125,76.0,0.0,180.0,10.0,0.0
7126,52.0,0.0,60.0,2.0,0.0
7127,67.0,0.0,60.0,5.0,0.0
7128,67.0,0.0,60.0,6.0,0.0
7129,52.0,60.0,15.0,3.0,0.0
7130,57.0,0.0,120.0,2.0,0.0
7131,67.0,0.0,60.0,1.0,0.0
7132,67.0,0.0,60.0,11.0,0.0
7133,65.0,0.0,60.0,6.0,0.0
7134,50.0,0.0,60.0,4.0,0.0
7135,65.0,0.0,60.0,1.0,0.0
7136,57.0,0.0,120.0,12.0,0.0
7137,65.0,30.0,60.0,5.0,0.0
7138,38.0,0.0,60.0,13.0,0.0
7139,53.0,0.0,60.0,3.0,0.0
7140,65.0,0.0,60.0,11.0,0.0
7141,38.0,0.0,60.0,7.0,0.0
7142,38.0,0.0,60.0,8.0,0.0
7143,69.0,0.0,60.0,6.0,0.0
7144,69.0,0.0,60.0,10.0,0.0
7145,64.0,0.0,30.0,6.0,0.0
7146,40.0,0.0,60.0,13.0,0.0
7147,64.0,30.0,30.0,1.0,0.0
7148,55.0,0.0,60.0,2.0,0.0
7149,52.0,0.0,60.0,4.0,0.0
7150,64.0,0.0,30.0,11.0,0.0
7151,40.0,0.0,60.0,7.0,0.0
7152,55.0,0.0,60.0,3.0,0.0
7153,40.0,0.0,60.0,8.0,0.0
7154,69.0,0.0,60.0,0.0,0.0
7155,64.0,0.0,30.0,5.0,0.0
7156,62.0,0.0,30.0,6.0,0.0
7157,62.0,0.0,30.0,5.0,0.0
7158,62.0,0.0,30.0,11.0,0.0
7159,62.0,60.0,30.0,1.0,0.0
7160,57.0,0.0,60.0,3.0,0.0
7161,53.0,0.0,60.0,4.0,0.0
7162,41.0,0.0,60.0,13.0,0.0
7163,74.0,0.0,60.0,10.0,0.0
7164,69.0,0.0,15.0,5.0,0.0
7165,74.0,0.0,60.0,5.0,0.0
7166,69.0,0.0,180.0,11.0,0.0
7167,41.0,0.0,60.0,7.0,0.0
7168,41.0,0.0,60.0,8.0,0.0
7169,74.0,60.0,60.0,0.0,0.0
7170,74.0,0.0,60.0,6.0,0.0
7171,69.0,0.0,180.0,6.0,0.0
7172,69.0,0.0,180.0,1.0,0.0
7173,53.0,0.0,60.0,2.0,0.0
7174,38.0,0.0,60.0,8.0,0.0
7175,38.0,0.0,60.0,13.0,0.0
7176,38.0,0.0,60.0,7.0,0.0
7177,72.0,0.0,60.0,5.0,0.0
7178,65.0,0.0,60.0,12.0,0.0
7179,53.0,0.0,60.0,3.0,0.0
7180,57.0,60.0,60.0,2.0,0.0
7181,50.0,0.0,60.0,4.0,0.0
7182,72.0,0.0,60.0,6.0,0.0
7183,72.0,0.0,60.0,0.0,0.0
7184,72.0,0.0,60.0,10.0,0.0
7185,43.0,0.0,60.0,7.0,0.0
7186,43.0,60.0,60.0,13.0,0.0
7187,70.0,0.0,300.0,0.0,0.0
7188,70.0,0.0,300.0,10.0,0.0
7189,70.0,0.0,300.0,5.0,0.0
7190,43.0,0.0,60.0,8.0,0.0
7191,58.0,0.0,60.0,2.0,0.0
7192,70.0,60.0,300.0,6.0,0.0
7193,67.0,0.0,120.0,12.0,0.0
7194,55.0,0.0,60.0,4.0,0.0
7195,50.0,0.0,120.0,3.0,0.0
7196,57.0,0.0,60.0,2.0,0.0
7197,62.0,0.0,60.0,6.0,0.0
7198,62.0,60.0,60.0,11.0,0.0
7199,41.0,0.0,60.0,7.0,0.0
7200,41.0,0.0,60.0,8.0,0.0
7201,53.0,0.0,60.0,4.0,0.0
7202,62.0,0.0,60.0,1.0,0.0
7203,41.0,0.0,60.0,13.0,0.0
7204,62.0,0.0,60.0,5.0,0.0
7205,67.0,0.0,60.0,1.0,0.0
7206,40.0,0.0,60.0,8.0,0.0
7207,49.0,60.0,60.0,3.0,0.0
7208,55.0,0.0,240.0,2.0,0.0
7209,52.0,0.0,60.0,4.0,0.0
7210,67.0,0.0,60.0,5.0,0.0
7211,40.0,0.0,60.0,7.0,0.0
7212,67.0,0.0,60.0,6.0,0.0
7213,40.0,0.0,60.0,13.0,0.0
7214,67.0,0.0,60.0,11.0,0.0
7215,65.0,0.0,60.0,1.0,0.0
7216,38.0,0.0,60.0,8.0,0.0
7217,65.0,0.0,60.0,11.0,0.0
7218,38.0,0.0,60.0,13.0,0.0
7219,70.0,60.0,60.0,12.0,0.0
7220,38.0,0.0,60.0,7.0,0.0
7221,50.0,0.0,60.0,4.0,0.0
7222,65.0,0.0,60.0,6.0,0.0
7223,65.0,0.0,60.0,5.0,0.0
7224,50.0,0.0,60.0,3.0,0.0
7225,49.0,0.0,60.0,13.0,0.0
7226,49.0,0.0,60.0,4.0,0.0
7227,64.0,0.0,300.0,1.0,0.0
7228,49.0,0.0,60.0,8.0,0.0
7229,49.0,0.0,60.0,7.0,0.0
7230,64.0,0.0,300.0,11.0,0.0
7231,64.0,0.0,120.0,12.0,0.0
7232,64.0,0.0,60.0,0.0,0.0
7233,47.0,0.0,60.0,8.0,0.0
7234,47.0,0.0,60.0,7.0,0.0
7235,47.0,0.0,60.0,4.0,0.0
7236,64.0,0.0,60.0,10.0,0.0
7237,64.0,0.0,60.0,5.0,0.0
7238,47.0,0.0,60.0,13.0,0.0
7239,64.0,0.0,60.0,6.0,0.0
7240,49.0,0.0,60.0,7.0,0.0
7241,69.0,0.0,60.0,6.0,0.0
7242,57.0,0.0,300.0,2.0,0.0
7243,49.0,0.0,60.0,8.0,0.0
7244,49.0,60.0,60.0,4.0,0.0
7245,49.0,0.0,60.0,13.0,0.0
7246,69.0,0.0,60.0,0.0,0.0
7247,69.0,0.0,60.0,10.0,0.0
7248,69.0,0.0,60.0,5.0,0.0
7249,52.0,35.0,15.0,3.0,0.0
7250,61.0,0.0,60.0,12.0,0.0
7251,67.0,0.0,60.0,0.0,0.0
7252,52.0,0.0,60.0,3.0,0.0
7253,45.0,0.0,60.0,4.0,0.0
7254,45.0,0.0,60.0,13.0,0.0
7255,45.0,60.0,60.0,7.0,0.0
7256,67.0,0.0,60.0,6.0,0.0
7257,45.0,0.0,60.0,8.0,0.0
7258,67.0,0.0,60.0,10.0,0.0
7259,67.0,0.0,60.0,5.0,0.0
7260,65.0,0.0,300.0,10.0,0.0
7261,50.0,0.0,60.0,13.0,0.0
7262,65.0,60.0,300.0,6.0,0.0
7263,65.0,0.0,300.0,5.0,0.0
7264,50.0,0.0,60.0,8.0,0.0
7265,50.0,0.0,60.0,4.0,0.0
7266,57.0,0.0,120.0,12.0,0.0
7267,65.0,0.0,120.0,0.0,0.0
7268,53.0,60.0,60.0,3.0,0.0
7269,50.0,0.0,60.0,7.0,0.0
7270,57.0,0.0,60.0,5.0,0.0
7271,48.0,0.0,60.0,4.0,0.0
7272,57.0,0.0,60.0,11.0,0.0
7273,52.0,0.0,60.0,3.0,0.0
7274,48.0,0.0,60.0,8.0,0.0
7275,57.0,60.0,60.0,1.0,0.0
7276,48.0,0.0,60.0,7.0,0.0
7277,48.0,0.0,60.0,13.0,0.0
7278,57.0,0.0,60.0,6.0,0.0
7279,62.0,0.0,60.0,6.0,0.0
7280,62.0,0.0,60.0,11.0,0.0
7281,46.0,0.0,60.0,13.0,0.0
7282,46.0,30.0,60.0,4.0,0.0
7283,50.0,0.0,120.0,3.0,0.0
7284,46.0,0.0,60.0,7.0,0.0
7285,62.0,0.0,60.0,5.0,0.0
7286,46.0,0.0,60.0,8.0,0.0
7287,62.0,0.0,60.0,1.0,0.0
7288,45.0,0.0,60.0,7.0,0.0
7289,55.0,30.0,30.0,2.0,0.0
7290,60.0,0.0,60.0,11.0,0.0
7291,69.0,0.0,60.0,12.0,0.0
7292,45.0,0.0,60.0,13.0,0.0
7293,45.0,60.0,60.0,8.0,0.0
7294,60.0,0.0,60.0,6.0,0.0
7295,60.0,0.0,60.0,5.0,0.0
7296,60.0,0.0,60.0,1.0,0.0
7297,45.0,0.0,60.0,4.0,0.0
7298,57.0,0.0,30.0,2.0,0.0
7299,58.0,0.0,120.0,1.0,0.0
7300,58.0,0.0,60.0,2.0,0.0
7301,43.0,0.0,120.0,7.0,0.0
7302,58.0,35.0,120.0,11.0,0.0
7303,43.0,0.0,120.0,8.0,0.0
7304,62.0,0.0,120.0,12.0,0.0
7305,43.0,0.0,120.0,13.0,0.0
7306,50.0,0.0,60.0,3.0,0.0
7307,58.0,0.0,120.0,6.0,0.0
7308,43.0,0.0,120.0,4.0,0.0
7309,58.0,0.0,120.0,5.0,0.0
7310,73.0,0.0,60.0,5.0,0.0
7311,55.0,0.0,60.0,3.0,0.0
7312,73.0,0.0,60.0,10.0,0.0
7313,73.0,0.0,60.0,0.0,0.0
7314,73.0,0.0,60.0,6.0,0.0
7315,52.0,0.0,60.0,2.0,0.0
7316,53.0,0.0,30.0,3.0,0.0
7317,57.0,0.0,120.0,6.0,0.0
7318,45.0,0.0,120.0,7.0,0.0
7319,45.0,0.0,120.0,13.0,0.0
7320,74.0,0.0,30.0,0.0,0.0
7321,74.0,0.0,30.0,10.0,0.0
7322,57.0,0.0,120.0,5.0,0.0
7323,74.0,0.0,30.0,5.0,0.0
7324,74.0,85.0,30.0,6.0,0.0
7325,57.0,0.0,120.0,11.0,0.0
7326,45.0,0.0,120.0,8.0,0.0
7327,53.0,0.0,30.0,2.0,0.0
7328,65.0,0.0,60.0,1.0,0.0
7329,45.0,0.0,60.0,4.0,0.0
7330,65.0,0.0,60.0,0.0,0.0
7331,65.0,0.0,60.0,5.0,0.0
7332,65.0,0.0,60.0,10.0,0.0
7333,62.0,35.0,60.0,2.0,0.0
7334,65.0,0.0,60.0,6.0,0.0
7335,57.0,0.0,60.0,12.0,0.0
7336,46.0,0.0,120.0,7.0,0.0
7337,55.0,0.0,30.0,5.0,0.0
7338,67.0,0.0,120.0,1.0,0.0
7339,64.0,0.0,30.0,5.0,0.0
7340,64.0,85.0,30.0,10.0,0.0
7341,55.0,0.0,30.0,11.0,0.0
7342,64.0,0.0,30.0,0.0,0.0
7343,64.0,0.0,30.0,6.0,0.0
7344,55.0,0.0,30.0,6.0,0.0
7345,64.0,0.0,120.0,12.0,0.0
7346,46.0,0.0,120.0,13.0,0.0
7347,46.0,0.0,120.0,8.0,0.0
7348,46.0,60.0,120.0,4.0,0.0
7349,61.0,0.0,30.0,2.0,0.0
7350,73.0,0.0,60.0,10.0,0.0
7351,73.0,0.0,60.0,5.0,0.0
7352,64.0,0.0,60.0,5.0,0.0
7353,73.0,0.0,60.0,0.0,0.0
7354,67.0,0.0,60.0,2.0,0.0
7355,52.0,0.0,60.0,3.0,0.0
7356,64.0,0.0,60.0,6.0,0.0
7357,73.0,0.0,60.0,6.0,0.0
7358,64.0,0.0,60.0,11.0,0.0
7359,45.0,0.0,60.0,8.0,0.0
7360,45.0,0.0,60.0,13.0,0.0
7361,74.0,0.0,60.0,0.0,0.0
7362,65.0,0.0,60.0,11.0,0.0
7363,74.0,0.0,60.0,10.0,0.0
7364,53.0,0.0,60.0,3.0,0.0
7365,45.0,0.0,60.0,4.0,0.0
7366,74.0,0.0,60.0,6.0,0.0
7367,69.0,0.0,60.0,1.0,0.0
7368,45.0,60.0,60.0,7.0,0.0
7369,65.0,0.0,60.0,5.0,0.0
7370,65.0,0.0,60.0,2.0,0.0
7371,74.0,0.0,60.0,5.0,0.0
7372,65.0,0.0,60.0,6.0,0.0
7373,76.0,0.0,60.0,6.0,0.0
7374,67.0,0.0,60.0,6.0,0.0
7375,43.0,0.0,60.0,8.0,0.0
7376,76.0,0.0,60.0,10.0,0.0
7377,58.0,0.0,60.0,12.0,0.0
7378,55.0,0.0,60.0,3.0,0.0
7379,43.0,0.0,60.0,4.0,0.0
7380,64.0,0.0,60.0,2.0,0.0
7381,61.0,0.0,60.0,1.0,0.0
7382,76.0,0.0,60.0,5.0,0.0
7383,67.0,0.0,60.0,5.0,0.0
7384,43.0,0.0,60.0,13.0,0.0
7385,67.0,0.0,60.0,11.0,0.0
7386,43.0,0.0,60.0,7.0,0.0
7387,76.0,35.0,60.0,0.0,0.0
7388,69.0,0.0,60.0,10.0,0.0
7389,41.0,0.0,60.0,4.0,0.0
7390,62.0,0.0,120.0,1.0,0.0
7391,69.0,0.0,30.0,6.0,0.0
7392,62.0,0.0,60.0,2.0,0.0
7393,57.0,0.0,60.0,3.0,0.0
7394,57.0,0.0,120.0,12.0,0.0
7395,69.0,0.0,30.0,11.0,0.0
7396,41.0,0.0,60.0,8.0,0.0
7397,69.0,0.0,30.0,0.0,0.0
7398,41.0,0.0,60.0,7.0,0.0
7399,41.0,60.0,60.0,13.0,0.0
7400,69.0,0.0,30.0,5.0,0.0
7401,61.0,0.0,60.0,5.0,0.0
7402,40.0,0.0,60.0,7.0,0.0
7403,70.0,0.0,60.0,5.0,0.0
7404,61.0,0.0,60.0,0.0,0.0
7405,40.0,0.0,60.0,13.0,0.0
7406,70.0,0.0,60.0,11.0,0.0
7407,61.0,0.0,60.0,10.0,0.0
7408,40.0,0.0,60.0,4.0,0.0
7409,58.0,0.0,60.0,3.0,0.0
7410,40.0,0.0,60.0,8.0,0.0
7411,55.0,0.0,60.0,2.0,0.0
7412,70.0,0.0,60.0,6.0,0.0
7413,61.0,35.0,60.0,6.0,0.0
7414,57.0,0.0,30.0,3.0,0.0
7415,41.0,0.0,60.0,7.0,0.0
7416,62.0,0.0,30.0,0.0,0.0
7417,41.0,0.0,60.0,8.0,0.0
7418,53.0,0.0,60.0,2.0,0.0
7419,69.0,0.0,30.0,6.0,0.0
7420,41.0,0.0,60.0,4.0,0.0
7421,69.0,25.0,30.0,11.0,0.0
7422,62.0,0.0,30.0,5.0,0.0
7423,69.0,0.0,30.0,5.0,0.0
7424,62.0,0.0,30.0,6.0,0.0
7425,62.0,0.0,30.0,10.0,0.0
7426,41.0,60.0,60.0,13.0,0.0
7427,43.0,60.0,60.0,13.0,0.0
7428,62.0,0.0,120.0,1.0,0.0
7429,52.0,0.0,60.0,2.0,0.0
7430,70.0,0.0,60.0,10.0,0.0
7431,62.0,0.0,120.0,11.0,0.0
7432,58.0,0.0,60.0,3.0,0.0
7433,70.0,0.0,60.0,5.0,0.0
7434,62.0,0.0,120.0,5.0,0.0
7435,43.0,0.0,60.0,7.0,0.0
7436,43.0,0.0,60.0,8.0,0.0
7437,62.0,0.0,60.0,12.0,0.0
7438,70.0,0.0,60.0,0.0,0.0
7439,70.0,0.0,60.0,6.0,0.0
7440,62.0,30.0,120.0,6.0,0.0
7441,43.0,0.0,60.0,4.0,0.0
7442,53.0,0.0,60.0,2.0,0.0
7443,45.0,0.0,540.0,8.0,0.0
7444,45.0,0.0,540.0,4.0,0.0
7445,57.0,0.0,60.0,3.0,0.0
7446,57.0,0.0,60.0,12.0,0.0
7447,65.0,0.0,60.0,10.0,0.0
7448,45.0,30.0,540.0,13.0,0.0
7449,45.0,0.0,540.0,7.0,0.0
7450,65.0,0.0,60.0,5.0,0.0
7451,65.0,0.0,60.0,0.0,0.0
7452,65.0,0.0,60.0,6.0,0.0
7453,55.0,0.0,30.0,12.0,0.0
7454,64.0,0.0,120.0,5.0,0.0
7455,64.0,0.0,120.0,6.0,0.0
7456,61.0,0.0,120.0,6.0,0.0
7457,58.0,30.0,30.0,3.0,0.0
7458,61.0,0.0,120.0,5.0,0.0
7459,64.0,0.0,120.0,0.0,0.0
7460,64.0,60.0,120.0,10.0,0.0
7461,55.0,0.0,30.0,2.0,0.0
7462,61.0,0.0,60.0,1.0,0.0
7463,61.0,0.0,120.0,11.0,0.0
7464,57.0,0.0,30.0,2.0,0.0
7465,57.0,0.0,30.0,3.0,0.0
7466,53.0,60.0,30.0,12.0,0.0
7467,58.0,0.0,60.0,2.0,0.0
7468,52.0,0.0,60.0,12.0,0.0
7469,61.0,0.0,60.0,1.0,0.0
7470,55.0,0.0,60.0,3.0,0.0
7471,57.0,0.0,60.0,2.0,0.0
7472,62.0,0.0,60.0,5.0,0.0
7473,65.0,0.0,60.0,5.0,0.0
7474,65.0,0.0,60.0,10.0,0.0
7475,53.0,35.0,60.0,3.0,0.0
7476,62.0,0.0,60.0,1.0,0.0
7477,62.0,0.0,60.0,6.0,0.0
7478,65.0,0.0,60.0,0.0,0.0
7479,57.0,0.0,60.0,12.0,0.0
7480,65.0,0.0,60.0,6.0,0.0
7481,62.0,0.0,60.0,11.0,0.0
7482,67.0,60.0,60.0,0.0,0.0
7483,64.0,0.0,60.0,1.0,0.0
7484,64.0,0.0,30.0,11.0,0.0
7485,67.0,25.0,30.0,10.0,0.0
7486,67.0,0.0,30.0,6.0,0.0
7487,64.0,0.0,30.0,6.0,0.0
7488,55.0,0.0,60.0,2.0,0.0
7489,61.0,0.0,30.0,12.0,0.0
7490,52.0,0.0,120.0,3.0,0.0
7491,67.0,0.0,30.0,5.0,0.0
7492,64.0,0.0,30.0,5.0,0.0
7493,52.0,0.0,60.0,12.0,0.0
7494,70.0,0.0,60.0,6.0,0.0
7495,70.0,0.0,60.0,10.0,0.0
7496,61.0,0.0,60.0,2.0,0.0
7497,67.0,0.0,60.0,11.0,0.0
7498,67.0,0.0,60.0,6.0,0.0
7499,67.0,60.0,60.0,1.0,0.0
7500,67.0,0.0,60.0,5.0,0.0
7501,70.0,0.0,60.0,5.0,0.0
7502,70.0,0.0,60.0,0.0,0.0
7503,65.0,0.0,60.0,11.0,0.0
7504,69.0,0.0,60.0,0.0,0.0
7505,62.0,0.0,60.0,2.0,0.0
7506,53.0,0.0,60.0,3.0,0.0
7507,65.0,0.0,60.0,6.0,0.0
7508,69.0,60.0,60.0,6.0,0.0
7509,69.0,0.0,60.0,10.0,0.0
7510,65.0,0.0,60.0,1.0,0.0
7511,57.0,0.0,60.0,12.0,0.0
7512,65.0,0.0,60.0,5.0,0.0
7513,69.0,0.0,60.0,5.0,0.0
7514,55.0,0.0,60.0,3.0,0.0
7515,61.0,35.0,60.0,12.0,0.0
7516,64.0,0.0,60.0,11.0,0.0
7517,64.0,0.0,60.0,1.0,0.0
7518,64.0,0.0,60.0,6.0,0.0
7519,67.0,0.0,60.0,6.0,0.0
7520,67.0,0.0,60.0,5.0,0.0
7521,64.0,0.0,60.0,5.0,0.0
7522,67.0,0.0,60.0,10.0,0.0
7523,67.0,0.0,60.0,0.0,0.0
7524,64.0,0.0,60.0,2.0,0.0
7525,62.0,25.0,30.0,11.0,0.0
7526,57.0,0.0,60.0,3.0,0.0
7527,65.0,0.0,120.0,0.0,0.0
7528,57.0,0.0,60.0,2.0,0.0
7529,65.0,0.0,120.0,5.0,0.0
7530,62.0,0.0,60.0,5.0,0.0
7531,65.0,0.0,120.0,10.0,0.0
7532,65.0,0.0,120.0,6.0,0.0
7533,62.0,0.0,60.0,6.0,0.0
7534,65.0,0.0,60.0,12.0,0.0
7535,62.0,0.0,120.0,1.0,0.0
7536,43.0,0.0,60.0,8.0,0.0
7537,50.0,0.0,60.0,3.0,0.0
7538,43.0,0.0,60.0,7.0,0.0
7539,43.0,60.0,60.0,4.0,0.0
7540,70.0,0.0,60.0,6.0,0.0
7541,62.0,0.0,60.0,12.0,0.0
7542,62.0,30.0,30.0,2.0,0.0
7543,70.0,0.0,60.0,5.0,0.0
7544,70.0,0.0,60.0,11.0,0.0
7545,43.0,0.0,60.0,13.0,0.0
7546,45.0,60.0,120.0,7.0,0.0
7547,69.0,60.0,60.0,11.0,0.0
7548,69.0,0.0,60.0,6.0,0.0
7549,64.0,0.0,120.0,10.0,0.0
7550,64.0,0.0,120.0,6.0,0.0
7551,45.0,0.0,60.0,13.0,0.0
7552,64.0,0.0,120.0,0.0,0.0
7553,57.0,0.0,120.0,3.0,0.0
7554,61.0,0.0,120.0,1.0,0.0
7555,64.0,0.0,15.0,2.0,0.0
7556,64.0,0.0,120.0,5.0,0.0
7557,69.0,0.0,60.0,5.0,0.0
7558,45.0,0.0,60.0,8.0,0.0
7559,45.0,0.0,120.0,4.0,0.0
7560,67.0,0.0,120.0,5.0,0.0
7561,67.0,0.0,120.0,6.0,0.0
7562,67.0,0.0,120.0,11.0,0.0
7563,33.0,0.0,60.0,13.0,0.0
7564,33.0,0.0,60.0,8.0,0.0
7565,62.0,0.0,120.0,0.0,0.0
7566,38.0,0.0,60.0,13.0,0.0
7567,57.0,0.0,120.0,3.0,0.0
7568,62.0,0.0,120.0,1.0,0.0
7569,65.0,30.0,60.0,2.0,0.0
7570,57.0,0.0,15.0,12.0,0.0
7571,62.0,0.0,120.0,5.0,0.0
7572,62.0,60.0,120.0,10.0,0.0
7573,38.0,0.0,60.0,7.0,0.0
7574,62.0,0.0,120.0,6.0,0.0
7575,38.0,0.0,120.0,4.0,0.0
7576,38.0,0.0,60.0,8.0,0.0
7577,65.0,0.0,30.0,6.0,0.0
7578,50.0,30.0,120.0,8.0,0.0
7579,50.0,0.0,120.0,13.0,0.0
7580,65.0,0.0,30.0,11.0,0.0
7581,65.0,0.0,30.0,5.0,0.0
7582,50.0,0.0,120.0,7.0,0.0
7583,62.0,30.0,30.0,2.0,0.0
7584,67.0,0.0,30.0,6.0,0.0
7585,67.0,0.0,30.0,5.0,0.0
7586,63.0,0.0,30.0,2.0,0.0
7587,67.0,0.0,30.0,11.0,0.0
7588,68.0,0.0,180.0,5.0,0.0
7589,68.0,0.0,180.0,11.0,0.0
7590,65.0,60.0,180.0,2.0,0.0
7591,68.0,0.0,180.0,6.0,0.0
7592,51.0,30.0,30.0,7.0,0.0
7593,60.0,0.0,60.0,1.0,0.0
7594,65.0,60.0,60.0,12.0,0.0
7595,51.0,0.0,30.0,13.0,0.0
7596,51.0,0.0,30.0,8.0,0.0
7597,50.0,0.0,60.0,4.0,0.0
7598,53.0,0.0,30.0,13.0,0.0
7599,53.0,0.0,30.0,7.0,0.0
7600,53.0,0.0,30.0,8.0,0.0
7601,62.0,0.0,120.0,12.0,0.0
7602,59.0,0.0,60.0,1.0,0.0
7603,55.0,0.0,120.0,7.0,0.0
7604,55.0,0.0,120.0,8.0,0.0
7605,55.0,0.0,120.0,13.0,0.0
7606,55.0,0.0,120.0,4.0,0.0
7607,65.0,0.0,120.0,1.0,0.0
7608,60.0,0.0,60.0,11.0,0.0
7609,60.0,0.0,60.0,6.0,0.0
7610,63.0,35.0,60.0,2.0,0.0
7611,60.0,0.0,60.0,5.0,0.0
7612,74.0,0.0,180.0,6.0,0.0
7613,59.0,0.0,30.0,5.0,0.0
7614,43.0,0.0,120.0,8.0,0.0
7615,74.0,30.0,180.0,10.0,0.0
7616,59.0,0.0,30.0,6.0,0.0
7617,74.0,0.0,180.0,5.0,0.0
7618,43.0,0.0,120.0,7.0,0.0
7619,43.0,0.0,120.0,13.0,0.0
7620,59.0,25.0,30.0,11.0,0.0
7621,43.0,0.0,120.0,4.0,0.0
7622,62.0,30.0,60.0,2.0,0.0
7623,60.0,0.0,30.0,2.0,0.0
7624,67.0,0.0,60.0,12.0,0.0
7625,65.0,0.0,60.0,6.0,0.0
7626,65.0,30.0,60.0,11.0,0.0
7627,63.0,30.0,30.0,1.0,0.0
7628,65.0,0.0,60.0,5.0,0.0
7629,62.0,0.0,30.0,1.0,0.0
7630,59.0,0.0,30.0,2.0,0.0
7631,48.0,0.0,180.0,13.0,0.0
7632,48.0,0.0,180.0,7.0,0.0
7633,67.0,0.0,120.0,12.0,0.0
7634,63.0,30.0,30.0,1.0,0.0
7635,63.0,0.0,120.0,11.0,0.0
7636,63.0,0.0,120.0,6.0,0.0
7637,48.0,0.0,120.0,4.0,0.0
7638,63.0,0.0,120.0,5.0,0.0
7639,60.0,0.0,120.0,2.0,0.0
7640,48.0,30.0,180.0,8.0,0.0
7641,65.0,0.0,30.0,1.0,0.0
7642,72.0,0.0,30.0,5.0,0.0
7643,72.0,0.0,30.0,10.0,0.0
7644,67.0,0.0,60.0,1.0,0.0
7645,72.0,30.0,30.0,6.0,0.0
7646,55.0,0.0,60.0,3.0,0.0
7647,74.0,60.0,30.0,10.0,0.0
7648,74.0,0.0,30.0,5.0,0.0
7649,74.0,0.0,30.0,6.0,0.0
7650,60.0,60.0,180.0,3.0,0.0
7651,60.0,0.0,120.0,1.0,0.0
7652,75.0,0.0,180.0,5.0,0.0
7653,75.0,0.0,180.0,6.0,0.0
7654,75.0,0.0,180.0,10.0,0.0
7655,55.0,0.0,120.0,2.0,0.0
7656,46.0,0.0,30.0,13.0,0.0
7657,46.0,0.0,30.0,7.0,0.0
7658,46.0,30.0,30.0,8.0,0.0
7659,67.0,0.0,60.0,0.0,0.0
7660,48.0,60.0,60.0,4.0,0.0
7661,60.0,0.0,60.0,12.0,0.0
7662,48.0,0.0,30.0,8.0,0.0
7663,48.0,0.0,30.0,7.0,0.0
7664,48.0,0.0,30.0,13.0,0.0
7665,50.0,0.0,120.0,13.0,0.0
7666,50.0,35.0,120.0,7.0,0.0
7667,57.0,0.0,120.0,12.0,0.0
7668,50.0,0.0,120.0,8.0,0.0
7669,50.0,0.0,120.0,4.0,0.0
7670,66.0,0.0,60.0,0.0,0.0
7671,67.0,0.0,60.0,6.0,0.0
7672,72.0,30.0,120.0,0.0,0.0
7673,67.0,0.0,60.0,5.0,0.0
7674,67.0,0.0,60.0,10.0,0.0
7675,58.0,0.0,60.0,3.0,0.0
7676,38.0,0.0,120.0,8.0,0.0
7677,66.0,0.0,30.0,10.0,0.0
7678,69.0,0.0,180.0,11.0,0.0
7679,38.0,0.0,120.0,4.0,0.0
7680,38.0,0.0,120.0,7.0,0.0
7681,38.0,0.0,120.0,13.0,0.0
7682,57.0,0.0,60.0,3.0,0.0
7683,69.0,0.0,180.0,6.0,0.0
7684,66.0,0.0,30.0,6.0,0.0
7685,69.0,30.0,180.0,5.0,0.0
7686,66.0,25.0,30.0,5.0,0.0
7687,62.0,0.0,60.0,12.0,0.0
7688,70.0,0.0,30.0,0.0,0.0
7689,55.0,30.0,30.0,3.0,0.0
7690,72.0,0.0,60.0,6.0,0.0
7691,72.0,30.0,60.0,10.0,0.0
7692,72.0,0.0,60.0,5.0,0.0
7693,69.0,0.0,30.0,0.0,0.0
7694,54.0,0.0,30.0,3.0,0.0
7695,43.0,0.0,180.0,13.0,0.0
7696,55.0,0.0,120.0,3.0,0.0
7697,43.0,0.0,180.0,8.0,0.0
7698,70.0,0.0,120.0,5.0,0.0
7699,43.0,30.0,180.0,7.0,0.0
7700,70.0,30.0,30.0,0.0,0.0
7701,43.0,0.0,120.0,4.0,0.0
7702,70.0,0.0,120.0,10.0,0.0
7703,62.0,0.0,120.0,12.0,0.0
7704,72.0,0.0,30.0,0.0,0.0
7705,67.0,30.0,30.0,5.0,0.0
7706,74.0,0.0,60.0,0.0,0.0
7707,67.0,0.0,30.0,6.0,0.0
7708,62.0,0.0,60.0,2.0,0.0
7709,67.0,0.0,30.0,11.0,0.0
7710,69.0,60.0,30.0,11.0,0.0
7711,69.0,0.0,30.0,6.0,0.0
7712,69.0,0.0,30.0,5.0,0.0
7713,67.0,0.0,120.0,0.0,0.0
7714,50.0,0.0,120.0,3.0,0.0
7715,67.0,0.0,180.0,2.0,0.0
7716,70.0,0.0,180.0,5.0,0.0
7717,70.0,0.0,15.0,6.0,0.0
7718,70.0,0.0,180.0,11.0,0.0
7719,41.0,0.0,30.0,7.0,0.0
7720,55.0,0.0,60.0,4.0,0.0
7721,41.0,0.0,30.0,13.0,0.0
7722,41.0,30.0,30.0,8.0,0.0
7723,67.0,0.0,60.0,12.0,0.0
7724,62.0,0.0,60.0,1.0,0.0
7725,43.0,60.0,30.0,7.0,0.0
7726,43.0,0.0,30.0,13.0,0.0
7727,43.0,0.0,30.0,8.0,0.0
7728,45.0,0.0,120.0,7.0,0.0
7729,64.0,0.0,120.0,12.0,0.0
7730,45.0,0.0,120.0,13.0,0.0
7731,61.0,0.0,60.0,1.0,0.0
7732,45.0,0.0,120.0,8.0,0.0
7733,57.0,0.0,120.0,4.0,0.0
7734,62.0,0.0,60.0,5.0,0.0
7735,62.0,0.0,60.0,6.0,0.0
7736,62.0,0.0,60.0,11.0,0.0
7737,67.0,30.0,120.0,1.0,0.0
7738,65.0,35.0,60.0,2.0,0.0
7739,45.0,60.0,120.0,4.0,0.0
7740,76.0,0.0,180.0,10.0,0.0
7741,76.0,0.0,180.0,5.0,0.0
7742,33.0,0.0,120.0,8.0,0.0
7743,61.0,0.0,30.0,6.0,0.0
7744,61.0,0.0,30.0,5.0,0.0
7745,33.0,0.0,120.0,13.0,0.0
7746,64.0,0.0,60.0,2.0,0.0
7747,61.0,25.0,30.0,11.0,0.0
7748,33.0,0.0,120.0,7.0,0.0
7749,76.0,0.0,180.0,6.0,0.0
7750,67.0,0.0,60.0,11.0,0.0
7751,69.0,0.0,60.0,12.0,0.0
7752,65.0,30.0,30.0,1.0,0.0
7753,67.0,0.0,60.0,5.0,0.0
7754,62.0,0.0,30.0,2.0,0.0
7755,67.0,0.0,60.0,6.0,0.0
7756,64.0,0.0,30.0,1.0,0.0
7757,61.0,0.0,30.0,2.0,0.0
7758,65.0,0.0,300.0,1.0,0.0
7759,38.0,30.0,60.0,13.0,0.0
7760,62.0,0.0,120.0,2.0,0.0
7761,65.0,0.0,120.0,11.0,0.0
7762,65.0,0.0,120.0,6.0,0.0
7763,38.0,0.0,60.0,8.0,0.0
7764,38.0,0.0,60.0,7.0,0.0
7765,69.0,0.0,120.0,12.0,0.0
7766,65.0,0.0,120.0,5.0,0.0
7767,50.0,0.0,60.0,4.0,0.0
7768,74.0,30.0,30.0,10.0,0.0
7769,50.0,30.0,120.0,13.0,0.0
7770,50.0,0.0,120.0,8.0,0.0
7771,50.0,0.0,120.0,4.0,0.0
7772,50.0,0.0,120.0,7.0,0.0
7773,74.0,0.0,30.0,5.0,0.0
7774,74.0,0.0,30.0,6.0,0.0
7775,76.0,0.0,30.0,10.0,0.0
7776,76.0,60.0,30.0,5.0,0.0
7777,76.0,0.0,30.0,6.0,0.0
7778,77.0,0.0,180.0,10.0,0.0
7779,57.0,0.0,60.0,2.0,0.0
7780,77.0,0.0,180.0,6.0,0.0
7781,77.0,0.0,180.0,5.0,0.0
7782,60.0,0.0,60.0,0.0,0.0
7783,65.0,0.0,60.0,2.0,0.0
7784,51.0,30.0,30.0,8.0,0.0
7785,60.0,0.0,60.0,12.0,0.0
7786,56.0,0.0,60.0,3.0,0.0
7787,51.0,0.0,30.0,4.0,0.0
7788,51.0,0.0,30.0,7.0,0.0
7789,51.0,0.0,30.0,13.0,0.0
7790,53.0,0.0,30.0,7.0,0.0
7791,53.0,60.0,30.0,13.0,0.0
7792,53.0,0.0,30.0,4.0,0.0
7793,53.0,0.0,30.0,8.0,0.0
7794,55.0,0.0,120.0,7.0,0.0
7795,55.0,0.0,120.0,8.0,0.0
7796,62.0,0.0,60.0,2.0,0.0
7797,55.0,0.0,120.0,4.0,0.0
7798,55.0,0.0,60.0,3.0,0.0
7799,55.0,0.0,120.0,12.0,0.0
7800,59.0,30.0,60.0,0.0,0.0
7801,55.0,0.0,120.0,13.0,0.0
7802,53.0,30.0,30.0,3.0,0.0
7803,62.0,0.0,60.0,2.0,0.0
7804,56.0,0.0,60.0,1.0,0.0
7805,68.0,0.0,60.0,10.0,0.0
7806,68.0,35.0,60.0,6.0,0.0
7807,68.0,0.0,60.0,5.0,0.0
7808,65.0,0.0,120.0,0.0,0.0
7809,51.0,0.0,30.0,3.0,0.0
7810,43.0,60.0,120.0,4.0,0.0
7811,71.0,0.0,120.0,5.0,0.0
7812,50.0,25.0,30.0,3.0,0.0
7813,71.0,0.0,120.0,11.0,0.0
7814,43.0,0.0,120.0,8.0,0.0
7815,43.0,0.0,120.0,13.0,0.0
7816,67.0,0.0,30.0,5.0,0.0
7817,43.0,0.0,120.0,7.0,0.0
7818,67.0,0.0,30.0,6.0,0.0
7819,71.0,0.0,120.0,6.0,0.0
7820,67.0,0.0,30.0,10.0,0.0
7821,59.0,30.0,60.0,2.0,0.0
7822,55.0,0.0,30.0,1.0,0.0
7823,59.0,0.0,60.0,12.0,0.0
7824,77.0,0.0,60.0,6.0,0.0
7825,77.0,0.0,60.0,5.0,0.0
7826,60.0,0.0,30.0,2.0,0.0
7827,77.0,0.0,30.0,10.0,0.0
7828,65.0,0.0,30.0,1.0,0.0
7829,55.0,25.0,30.0,3.0,0.0
7830,63.0,5.0,30.0,0.0,0.0
7831,62.0,0.0,30.0,2.0,0.0
7832,62.0,0.0,30.0,0.0,0.0
7833,72.0,0.0,60.0,6.0,0.0
7834,76.0,0.0,60.0,6.0,0.0
7835,64.0,0.0,60.0,1.0,0.0
7836,76.0,0.0,60.0,10.0,0.0
7837,36.0,0.0,60.0,13.0,0.0
7838,36.0,0.0,60.0,8.0,0.0
7839,55.0,0.0,60.0,3.0,0.0
7840,60.0,0.0,60.0,2.0,0.0
7841,72.0,0.0,60.0,5.0,0.0
7842,72.0,0.0,60.0,11.0,0.0
7843,60.0,11.0,60.0,0.0,0.0
7844,76.0,0.0,60.0,5.0,0.0
7845,55.0,0.0,60.0,12.0,0.0
7846,48.0,49.0,60.0,4.0,0.0
7847,36.0,0.0,60.0,7.0,0.0
7848,67.0,0.0,60.0,6.0,0.0
7849,70.0,0.0,60.0,10.0,0.0
7850,70.0,0.0,60.0,6.0,0.0
7851,67.0,0.0,60.0,11.0,0.0
7852,67.0,35.0,60.0,0.0,0.0
7853,58.0,0.0,60.0,1.0,0.0
7854,70.0,0.0,60.0,5.0,0.0
7855,67.0,0.0,60.0,5.0,0.0
7856,66.0,0.0,30.0,11.0,0.0
7857,66.0,0.0,30.0,0.0,0.0
7858,69.0,0.0,30.0,10.0,0.0
7859,69.0,0.0,30.0,6.0,0.0
7860,69.0,60.0,30.0,5.0,0.0
7861,66.0,0.0,30.0,6.0,0.0
7862,57.0,0.0,30.0,1.0,0.0
7863,66.0,0.0,30.0,5.0,0.0
7864,48.0,0.0,30.0,7.0,0.0
7865,57.0,0.0,30.0,2.0,0.0
7866,48.0,0.0,30.0,4.0,0.0
7867,57.0,0.0,30.0,12.0,0.0
7868,48.0,0.0,30.0,8.0,0.0
7869,69.0,0.0,30.0,6.0,0.0
7870,78.0,0.0,30.0,6.0,0.0
7871,78.0,0.0,30.0,10.0,0.0
7872,69.0,0.0,30.0,0.0,0.0
7873,69.0,0.0,30.0,5.0,0.0
7874,78.0,0.0,30.0,5.0,0.0
7875,51.0,85.0,30.0,3.0,0.0
7876,48.0,0.0,30.0,13.0,0.0
7877,66.0,0.0,30.0,1.0,0.0
7878,69.0,0.0,30.0,11.0,0.0
7879,62.0,0.0,60.0,5.0,0.0
7880,67.0,0.0,60.0,1.0,0.0
7881,62.0,0.0,60.0,6.0,0.0
7882,79.0,0.0,60.0,6.0,0.0
7883,46.0,0.0,60.0,7.0,0.0
7884,62.0,0.0,60.0,11.0,0.0
7885,46.0,0.0,60.0,13.0,0.0
7886,50.0,0.0,60.0,3.0,0.0
7887,58.0,0.0,60.0,2.0,0.0
7888,62.0,0.0,60.0,0.0,0.0
7889,46.0,0.0,60.0,4.0,0.0
7890,55.0,0.0,60.0,12.0,0.0
7891,79.0,11.0,60.0,5.0,0.0
7892,79.0,0.0,60.0,10.0,0.0
7893,46.0,49.0,60.0,8.0,0.0
7894,67.0,0.0,60.0,0.0,0.0
7895,74.0,35.0,60.0,10.0,0.0
7896,74.0,0.0,60.0,6.0,0.0
7897,67.0,0.0,60.0,6.0,0.0
7898,62.0,0.0,60.0,1.0,0.0
7899,67.0,0.0,60.0,11.0,0.0
7900,67.0,0.0,60.0,5.0,0.0
7901,74.0,0.0,60.0,5.0,0.0
7902,69.0,0.0,30.0,11.0,0.0
7903,69.0,60.0,30.0,5.0,0.0
7904,73.0,0.0,30.0,6.0,0.0
7905,73.0,0.0,30.0,5.0,0.0
7906,69.0,0.0,30.0,6.0,0.0
7907,69.0,0.0,30.0,0.0,0.0
7908,61.0,0.0,30.0,1.0,0.0
7909,73.0,0.0,30.0,10.0,0.0
7910,45.0,0.0,30.0,7.0,0.0
7911,79.0,0.0,30.0,10.0,0.0
7912,61.0,0.0,30.0,6.0,0.0
7913,45.0,0.0,30.0,4.0,0.0
7914,61.0,0.0,30.0,3.0,0.0
7915,45.0,0.0,30.0,8.0,0.0
7916,61.0,0.0,30.0,0.0,0.0
7917,79.0,0.0,30.0,6.0,0.0
7918,45.0,0.0,30.0,13.0,0.0
7919,61.0,0.0,30.0,5.0,0.0
7920,64.0,0.0,30.0,2.0,0.0
7921,67.0,0.0,30.0,1.0,0.0
7922,52.0,0.0,30.0,12.0,0.0
7923,79.0,0.0,30.0,5.0,0.0
7924,61.0,85.0,30.0,11.0,0.0
7925,62.0,49.0,60.0,2.0,0.0
7926,78.0,0.0,60.0,10.0,0.0
7927,50.0,0.0,60.0,7.0,0.0
7928,66.0,0.0,60.0,1.0,0.0
7929,62.0,0.0,60.0,6.0,0.0
7930,78.0,0.0,60.0,6.0,0.0
7931,62.0,0.0,60.0,11.0,0.0
7932,62.0,0.0,60.0,5.0,0.0
7933,38.0,0.0,60.0,8.0,0.0
7934,38.0,0.0,60.0,13.0,0.0
7935,54.0,0.0,60.0,12.0,0.0
7936,62.0,11.0,60.0,0.0,0.0
7937,50.0,0.0,60.0,4.0,0.0
7938,78.0,0.0,60.0,5.0,0.0
7939,57.0,0.0,60.0,3.0,0.0
7940,66.0,0.0,60.0,0.0,0.0
7941,72.0,0.0,60.0,10.0,0.0
7942,66.0,0.0,60.0,11.0,0.0
7943,72.0,35.0,60.0,6.0,0.0
7944,60.0,0.0,60.0,1.0,0.0
7945,72.0,0.0,60.0,5.0,0.0
7946,66.0,0.0,60.0,6.0,0.0
7947,66.0,0.0,60.0,5.0,0.0
7948,67.0,0.0,30.0,0.0,0.0
7949,71.0,0.0,30.0,5.0,0.0
7950,67.0,0.0,30.0,6.0,0.0
7951,71.0,0.0,30.0,10.0,0.0
7952,67.0,0.0,30.0,5.0,0.0
7953,59.0,60.0,30.0,1.0,0.0
7954,67.0,0.0,30.0,11.0,0.0
7955,71.0,0.0,30.0,6.0,0.0
7956,59.0,0.0,30.0,11.0,0.0
7957,50.0,0.0,30.0,12.0,0.0
7958,77.0,0.0,30.0,5.0,0.0
7959,43.0,0.0,30.0,8.0,0.0
7960,59.0,0.0,30.0,5.0,0.0
7961,77.0,0.0,30.0,10.0,0.0
7962,43.0,85.0,30.0,13.0,0.0
7963,43.0,0.0,30.0,7.0,0.0
7964,59.0,0.0,30.0,6.0,0.0
7965,77.0,0.0,30.0,6.0,0.0
7966,71.0,0.0,30.0,0.0,0.0
7967,43.0,0.0,30.0,4.0,0.0
7968,59.0,0.0,30.0,3.0,0.0
7969,62.0,0.0,30.0,2.0,0.0
7970,65.0,0.0,30.0,1.0,0.0
7971,48.0,0.0,60.0,7.0,0.0
7972,76.0,0.0,60.0,5.0,0.0
7973,60.0,0.0,60.0,5.0,0.0
7974,52.0,0.0,60.0,12.0,0.0
7975,55.0,0.0,60.0,3.0,0.0
7976,76.0,0.0,60.0,10.0,0.0
7977,72.0,0.0,60.0,0.0,0.0
7978,36.0,0.0,60.0,13.0,0.0
7979,76.0,0.0,60.0,6.0,0.0
7980,48.0,0.0,60.0,4.0,0.0
7981,64.0,0.0,60.0,1.0,0.0
7982,36.0,0.0,60.0,8.0,0.0
7983,60.0,11.0,60.0,11.0,0.0
7984,60.0,0.0,60.0,6.0,0.0
7985,60.0,49.0,60.0,2.0,0.0
7986,58.0,0.0,60.0,1.0,0.0
7987,70.0,0.0,60.0,10.0,0.0
7988,70.0,35.0,60.0,6.0,0.0
7989,64.0,0.0,60.0,6.0,0.0
7990,64.0,0.0,60.0,0.0,0.0
7991,64.0,0.0,60.0,11.0,0.0
7992,70.0,0.0,60.0,5.0,0.0
7993,64.0,0.0,60.0,5.0,0.0
7994,69.0,0.0,30.0,6.0,0.0
7995,65.0,0.0,30.0,6.0,0.0
7996,69.0,0.0,30.0,5.0,0.0
7997,65.0,0.0,30.0,5.0,0.0
7998,69.0,60.0,30.0,10.0,0.0
7999,65.0,0.0,30.0,0.0,0.0
8000,57.0,0.0,30.0,1.0,0.0
8001,65.0,0.0,30.0,11.0,0.0
8002,60.0,0.0,30.0,11.0,0.0
8003,41.0,0.0,30.0,4.0,0.0
8004,63.0,0.0,30.0,1.0,0.0
8005,69.0,0.0,30.0,0.0,0.0
8006,48.0,0.0,30.0,12.0,0.0
8007,60.0,0.0,30.0,2.0,0.0
8008,57.0,0.0,30.0,3.0,0.0
8009,41.0,0.0,30.0,13.0,0.0
8010,75.0,0.0,30.0,5.0,0.0
8011,60.0,0.0,30.0,5.0,0.0
8012,60.0,0.0,30.0,6.0,0.0
8013,41.0,0.0,30.0,7.0,0.0
8014,75.0,0.0,30.0,6.0,0.0
8015,75.0,0.0,30.0,10.0,0.0
8016,41.0,55.0,30.0,8.0,0.0
8017,58.0,0.0,60.0,11.0,0.0
8018,34.0,19.0,60.0,8.0,0.0
8019,70.0,0.0,60.0,0.0,0.0
8020,74.0,0.0,60.0,5.0,0.0
8021,53.0,11.0,60.0,3.0,0.0
8022,58.0,30.0,30.0,2.0,0.0
8023,58.0,0.0,60.0,5.0,0.0
8024,62.0,0.0,60.0,1.0,0.0
8025,50.0,0.0,60.0,12.0,0.0
8026,46.0,0.0,60.0,4.0,0.0
8027,34.0,0.0,60.0,13.0,0.0
8028,46.0,0.0,60.0,7.0,0.0
8029,74.0,0.0,60.0,6.0,0.0
8030,58.0,0.0,60.0,6.0,0.0
8031,74.0,0.0,60.0,10.0,0.0
8032,57.0,0.0,30.0,2.0,0.0
8033,66.0,35.0,60.0,10.0,0.0
8034,58.0,30.0,30.0,2.0,0.0
8035,66.0,0.0,60.0,6.0,0.0
8036,66.0,0.0,60.0,1.0,0.0
8037,57.0,0.0,60.0,3.0,0.0
8038,62.0,0.0,60.0,0.0,0.0
8039,66.0,0.0,60.0,5.0,0.0
8040,62.0,0.0,60.0,6.0,0.0
8041,62.0,0.0,60.0,5.0,0.0
8042,62.0,0.0,60.0,11.0,0.0
8043,60.0,0.0,30.0,2.0,0.0
8044,67.0,25.0,30.0,5.0,0.0
8045,67.0,0.0,30.0,6.0,0.0
8046,62.0,30.0,60.0,2.0,0.0
8047,67.0,0.0,30.0,10.0,0.0
8048,67.0,0.0,240.0,0.0,0.0
8049,67.0,0.0,30.0,1.0,0.0
8050,58.0,0.0,30.0,3.0,0.0
8051,67.0,0.0,240.0,11.0,0.0
8052,70.0,0.0,30.0,6.0,0.0
8053,51.0,0.0,30.0,4.0,0.0
8054,39.0,25.0,30.0,13.0,0.0
8055,70.0,0.0,30.0,5.0,0.0
8056,63.0,5.0,30.0,2.0,0.0
8057,70.0,0.0,30.0,10.0,0.0
8058,51.0,0.0,30.0,12.0,0.0
8059,70.0,0.0,30.0,1.0,0.0
8060,39.0,0.0,30.0,8.0,0.0
8061,39.0,0.0,30.0,7.0,0.0
8062,55.0,60.0,60.0,3.0,0.0
8063,62.0,0.0,30.0,2.0,0.0
8064,33.0,0.0,60.0,13.0,0.0
8065,72.0,0.0,60.0,10.0,0.0
8066,45.0,0.0,120.0,4.0,0.0
8067,72.0,0.0,60.0,1.0,0.0
8068,45.0,0.0,60.0,7.0,0.0
8069,51.0,49.0,60.0,12.0,0.0
8070,33.0,0.0,60.0,8.0,0.0
8071,60.0,0.0,120.0,2.0,0.0
8072,72.0,0.0,60.0,5.0,0.0
8073,72.0,11.0,60.0,6.0,0.0
8074,63.0,0.0,60.0,1.0,0.0
8075,63.0,0.0,60.0,5.0,0.0
8076,63.0,0.0,60.0,10.0,0.0
8077,63.0,35.0,60.0,6.0,0.0
8078,66.0,0.0,60.0,0.0,0.0
8079,62.0,0.0,30.0,10.0,0.0
8080,62.0,0.0,30.0,1.0,0.0
8081,66.0,35.0,60.0,11.0,0.0
8082,57.0,0.0,15.0,3.0,0.0
8083,62.0,0.0,30.0,6.0,0.0
8084,66.0,0.0,60.0,6.0,0.0
8085,62.0,25.0,30.0,5.0,0.0
8086,66.0,0.0,60.0,5.0,0.0
8087,62.0,0.0,30.0,2.0,0.0
8088,50.0,0.0,30.0,4.0,0.0
8089,60.0,0.0,30.0,1.0,0.0
8090,38.0,0.0,30.0,13.0,0.0
8091,69.0,0.0,60.0,0.0,0.0
8092,72.0,25.0,30.0,5.0,0.0
8093,69.0,30.0,120.0,5.0,0.0
8094,38.0,0.0,30.0,8.0,0.0
8095,57.0,60.0,60.0,2.0,0.0
8096,72.0,0.0,30.0,10.0,0.0
8097,50.0,0.0,30.0,12.0,0.0
8098,69.0,0.0,120.0,11.0,0.0
8099,54.0,0.0,60.0,3.0,0.0
8100,69.0,0.0,120.0,6.0,0.0
8101,72.0,0.0,30.0,6.0,0.0
8102,38.0,0.0,30.0,7.0,0.0
8103,43.0,0.0,60.0,4.0,0.0
8104,58.0,0.0,180.0,1.0,0.0
8105,43.0,0.0,90.0,8.0,0.0
8106,58.0,0.0,240.0,2.0,0.0
8107,69.0,0.0,60.0,0.0,0.0
8108,50.0,0.0,120.0,12.0,0.0
8109,70.0,0.0,180.0,6.0,0.0
8110,70.0,0.0,180.0,10.0,0.0
8111,50.0,0.0,180.0,3.0,0.0
8112,70.0,0.0,180.0,5.0,0.0
8113,62.0,0.0,60.0,6.0,0.0
8114,62.0,0.0,60.0,0.0,0.0
8115,62.0,0.0,60.0,5.0,0.0
8116,62.0,0.0,60.0,11.0,0.0
8117,43.0,30.0,15.0,7.0,0.0
8118,43.0,0.0,15.0,4.0,0.0
8119,43.0,0.0,30.0,8.0,0.0
8120,43.0,0.0,15.0,13.0,0.0
8121,67.0,0.0,240.0,11.0,0.0
8122,43.0,0.0,30.0,7.0,0.0
8123,67.0,0.0,240.0,5.0,0.0
8124,43.0,25.0,30.0,13.0,0.0
8125,67.0,0.0,240.0,6.0,0.0
8126,67.0,0.0,240.0,0.0,0.0
8127,43.0,0.0,30.0,4.0,0.0
8128,48.0,0.0,30.0,3.0,0.0
8129,72.0,0.0,30.0,10.0,0.0
8130,72.0,5.0,30.0,5.0,0.0
8131,72.0,0.0,30.0,6.0,0.0
8132,60.0,0.0,30.0,1.0,0.0
8133,43.0,0.0,60.0,7.0,0.0
8134,43.0,0.0,60.0,4.0,0.0
8135,43.0,30.0,15.0,8.0,0.0
8136,43.0,0.0,60.0,13.0,0.0
8137,63.0,0.0,60.0,12.0,0.0
8138,74.0,0.0,30.0,6.0,0.0
8139,74.0,0.0,30.0,10.0,0.0
8140,46.0,60.0,30.0,3.0,0.0
8141,62.0,0.0,30.0,1.0,0.0
8142,74.0,0.0,30.0,5.0,0.0
8143,72.0,0.0,180.0,10.0,0.0
8144,63.0,0.0,180.0,12.0,0.0
8145,45.0,0.0,60.0,8.0,0.0
8146,57.0,0.0,60.0,2.0,0.0
8147,45.0,0.0,60.0,4.0,0.0
8148,45.0,60.0,60.0,7.0,0.0
8149,72.0,0.0,180.0,5.0,0.0
8150,72.0,30.0,180.0,6.0,0.0
8151,60.0,0.0,180.0,1.0,0.0
8152,48.0,0.0,180.0,3.0,0.0
8153,45.0,0.0,60.0,13.0,0.0
8154,55.0,35.0,60.0,2.0,0.0
8155,39.0,0.0,60.0,13.0,0.0
8156,39.0,0.0,60.0,4.0,0.0
8157,39.0,0.0,60.0,8.0,0.0
8158,39.0,0.0,60.0,7.0,0.0
8159,66.0,0.0,120.0,6.0,0.0
8160,57.0,0.0,120.0,2.0,0.0
8161,38.0,25.0,30.0,7.0,0.0
8162,66.0,0.0,120.0,5.0,0.0
8163,38.0,0.0,30.0,8.0,0.0
8164,38.0,0.0,30.0,13.0,0.0
8165,66.0,0.0,30.0,0.0,0.0
8166,38.0,0.0,30.0,4.0,0.0
8167,66.0,60.0,120.0,11.0,0.0
8168,74.0,0.0,30.0,10.0,0.0
8169,45.0,0.0,60.0,13.0,0.0
8170,62.0,0.0,30.0,1.0,0.0
8171,66.0,0.0,60.0,0.0,0.0
8172,62.0,0.0,30.0,12.0,0.0
8173,45.0,0.0,60.0,7.0,0.0
8174,45.0,0.0,60.0,8.0,0.0
8175,74.0,30.0,30.0,5.0,0.0
8176,46.0,0.0,30.0,3.0,0.0
8177,74.0,0.0,30.0,6.0,0.0
8178,45.0,0.0,60.0,4.0,0.0
8179,75.0,0.0,30.0,5.0,0.0
8180,45.0,0.0,30.0,3.0,0.0
8181,63.0,0.0,30.0,1.0,0.0
8182,60.0,0.0,30.0,12.0,0.0
8183,75.0,0.0,30.0,6.0,0.0
8184,75.0,0.0,30.0,10.0,0.0
8185,55.0,0.0,60.0,2.0,0.0
8186,74.0,0.0,180.0,5.0,0.0
8187,67.0,0.0,300.0,5.0,0.0
8188,58.0,0.0,120.0,12.0,0.0
8189,46.0,0.0,60.0,13.0,0.0
8190,74.0,0.0,180.0,10.0,0.0
8191,67.0,0.0,300.0,0.0,0.0
8192,67.0,60.0,300.0,11.0,0.0
8193,46.0,0.0,60.0,4.0,0.0
8194,50.0,0.0,120.0,3.0,0.0
8195,46.0,0.0,60.0,8.0,0.0
8196,46.0,60.0,60.0,7.0,0.0
8197,62.0,0.0,180.0,1.0,0.0
8198,74.0,30.0,180.0,6.0,0.0
8199,67.0,0.0,300.0,6.0,0.0
8200,67.0,0.0,60.0,2.0,0.0
8201,39.0,0.0,60.0,13.0,0.0
8202,39.0,35.0,60.0,8.0,0.0
8203,39.0,0.0,60.0,7.0,0.0
8204,39.0,0.0,60.0,4.0,0.0
8205,38.0,0.0,30.0,7.0,0.0
8206,38.0,0.0,30.0,4.0,0.0
8207,65.0,0.0,60.0,2.0,0.0
8208,38.0,0.0,30.0,8.0,0.0
8209,38.0,25.0,30.0,13.0,0.0
8210,47.0,0.0,60.0,7.0,0.0
8211,47.0,0.0,60.0,13.0,0.0
8212,75.0,30.0,30.0,5.0,0.0
8213,55.0,0.0,120.0,3.0,0.0
8214,47.0,0.0,60.0,4.0,0.0
8215,63.0,0.0,30.0,1.0,0.0
8216,75.0,0.0,30.0,10.0,0.0
8217,47.0,0.0,60.0,8.0,0.0
8218,75.0,0.0,30.0,6.0,0.0
8219,55.0,0.0,60.0,12.0,0.0
8220,63.0,0.0,30.0,2.0,0.0
8221,77.0,0.0,30.0,6.0,0.0
8222,62.0,30.0,30.0,2.0,0.0
8223,77.0,0.0,30.0,10.0,0.0
8224,65.0,0.0,30.0,1.0,0.0
8225,77.0,0.0,30.0,5.0,0.0
8226,48.0,0.0,30.0,7.0,0.0
8227,48.0,0.0,30.0,4.0,0.0
8228,48.0,30.0,30.0,13.0,0.0
8229,63.0,0.0,120.0,2.0,0.0
8230,48.0,0.0,30.0,8.0,0.0
8231,60.0,0.0,120.0,12.0,0.0
8232,75.0,0.0,300.0,5.0,0.0
8233,63.0,0.0,300.0,1.0,0.0
8234,75.0,0.0,300.0,10.0,0.0
8235,75.0,0.0,300.0,6.0,0.0
8236,46.0,0.0,30.0,4.0,0.0
8237,46.0,0.0,30.0,8.0,0.0
8238,46.0,0.0,30.0,13.0,0.0
8239,46.0,0.0,30.0,7.0,0.0
8240,65.0,30.0,60.0,6.0,0.0
8241,62.0,0.0,60.0,3.0,0.0
8242,44.0,0.0,90.0,13.0,0.0
8243,44.0,0.0,90.0,7.0,0.0
8244,44.0,0.0,90.0,8.0,0.0
8245,65.0,0.0,60.0,0.0,0.0
8246,44.0,30.0,90.0,4.0,0.0
8247,65.0,0.0,60.0,11.0,0.0
8248,65.0,0.0,60.0,5.0,0.0
8249,60.0,0.0,60.0,3.0,0.0
8250,63.0,0.0,60.0,11.0,0.0
8251,63.0,30.0,60.0,5.0,0.0
8252,63.0,0.0,60.0,6.0,0.0
8253,63.0,0.0,60.0,0.0,0.0
8254,43.0,0.0,30.0,8.0,0.0
8255,43.0,0.0,30.0,4.0,0.0
8256,43.0,0.0,30.0,13.0,0.0
8257,43.0,0.0,30.0,7.0,0.0
8258,62.0,0.0,60.0,0.0,0.0
8259,42.0,30.0,30.0,8.0,0.0
8260,58.0,0.0,60.0,3.0,0.0
8261,42.0,0.0,30.0,13.0,0.0
8262,58.0,35.0,60.0,2.0,0.0
8263,62.0,0.0,60.0,11.0,0.0
8264,42.0,0.0,30.0,7.0,0.0
8265,62.0,0.0,60.0,6.0,0.0
8266,67.0,0.0,60.0,12.0,0.0
8267,42.0,0.0,30.0,4.0,0.0
8268,62.0,0.0,60.0,5.0,0.0
8269,43.0,0.0,30.0,8.0,0.0
8270,43.0,0.0,30.0,13.0,0.0
8271,43.0,0.0,30.0,7.0,0.0
8272,43.0,0.0,30.0,4.0,0.0
8273,42.0,25.0,30.0,4.0,0.0
8274,60.0,0.0,60.0,0.0,0.0
8275,69.0,0.0,120.0,12.0,0.0
8276,42.0,0.0,60.0,7.0,0.0
8277,57.0,0.0,180.0,3.0,0.0
8278,42.0,0.0,60.0,13.0,0.0
8279,60.0,0.0,120.0,6.0,0.0
8280,42.0,60.0,60.0,8.0,0.0
8281,60.0,0.0,120.0,11.0,0.0
8282,60.0,0.0,120.0,5.0,0.0
8283,60.0,0.0,120.0,2.0,0.0
8284,57.0,0.0,60.0,1.0,0.0
8285,69.0,0.0,60.0,10.0,0.0
8286,69.0,0.0,60.0,6.0,0.0
8287,40.0,0.0,60.0,4.0,0.0
8288,40.0,0.0,60.0,7.0,0.0
8289,63.0,0.0,60.0,0.0,0.0
8290,40.0,0.0,60.0,13.0,0.0
8291,40.0,60.0,60.0,8.0,0.0
8292,69.0,0.0,180.0,0.0,0.0
8293,74.0,0.0,60.0,6.0,0.0
8294,69.0,0.0,15.0,5.0,0.0
8295,62.0,0.0,60.0,2.0,0.0
8296,42.0,0.0,60.0,4.0,0.0
8297,62.0,0.0,60.0,1.0,0.0
8298,42.0,30.0,60.0,7.0,0.0
8299,74.0,0.0,60.0,10.0,0.0
8300,74.0,0.0,60.0,5.0,0.0
8301,69.0,0.0,180.0,11.0,0.0
8302,42.0,0.0,60.0,13.0,0.0
8303,42.0,0.0,60.0,8.0,0.0
8304,66.0,0.0,60.0,12.0,0.0
8305,38.0,0.0,60.0,8.0,0.0
8306,72.0,0.0,60.0,5.0,0.0
8307,60.0,0.0,60.0,1.0,0.0
8308,72.0,0.0,60.0,10.0,0.0
8309,62.0,0.0,120.0,2.0,0.0
8310,38.0,0.0,60.0,13.0,0.0
8311,38.0,60.0,60.0,4.0,0.0
8312,55.0,30.0,30.0,3.0,0.0
8313,72.0,0.0,60.0,6.0,0.0
8314,38.0,0.0,60.0,7.0,0.0
8315,57.0,0.0,30.0,3.0,0.0
8316,70.0,0.0,60.0,10.0,0.0
8317,43.0,0.0,60.0,13.0,0.0
8318,58.0,0.0,60.0,3.0,0.0
8319,58.0,0.0,60.0,1.0,0.0
8320,62.0,0.0,120.0,12.0,0.0
8321,43.0,30.0,60.0,7.0,0.0
8322,43.0,0.0,60.0,8.0,0.0
8323,70.0,0.0,60.0,5.0,0.0
8324,43.0,0.0,60.0,4.0,0.0
8325,70.0,0.0,60.0,6.0,0.0
8326,45.0,0.0,60.0,8.0,0.0
8327,60.0,0.0,60.0,2.0,0.0
8328,62.0,0.0,60.0,5.0,0.0
8329,69.0,0.0,15.0,5.0,0.0
8330,45.0,0.0,60.0,4.0,0.0
8331,45.0,0.0,60.0,7.0,0.0
8332,62.0,0.0,60.0,0.0,0.0
8333,62.0,0.0,60.0,6.0,0.0
8334,57.0,0.0,30.0,1.0,0.0
8335,60.0,0.0,60.0,3.0,0.0
8336,45.0,0.0,60.0,13.0,0.0
8337,69.0,0.0,15.0,6.0,0.0
8338,69.0,0.0,30.0,10.0,0.0
8339,62.0,0.0,60.0,11.0,0.0
8340,67.0,0.0,30.0,10.0,0.0
8341,55.0,0.0,30.0,1.0,0.0
8342,46.0,0.0,60.0,13.0,0.0
8343,46.0,0.0,60.0,7.0,0.0
8344,58.0,0.0,60.0,2.0,0.0
8345,67.0,0.0,60.0,0.0,0.0
8346,62.0,60.0,180.0,1.0,0.0
8347,46.0,0.0,60.0,8.0,0.0
8348,67.0,0.0,15.0,6.0,0.0
8349,74.0,0.0,180.0,6.0,0.0
8350,62.0,0.0,60.0,3.0,0.0
8351,67.0,60.0,15.0,5.0,0.0
8352,74.0,0.0,180.0,5.0,0.0
8353,74.0,0.0,180.0,10.0,0.0
8354,67.0,0.0,60.0,11.0,0.0
8355,46.0,60.0,60.0,4.0,0.0
8356,58.0,0.0,60.0,3.0,0.0
8357,43.0,0.0,60.0,7.0,0.0
8358,65.0,60.0,60.0,6.0,0.0
8359,58.0,0.0,60.0,12.0,0.0
8360,65.0,0.0,60.0,11.0,0.0
8361,43.0,0.0,60.0,13.0,0.0
8362,43.0,0.0,60.0,8.0,0.0
8363,65.0,0.0,60.0,5.0,0.0
8364,65.0,0.0,60.0,0.0,0.0
8365,62.0,0.0,60.0,2.0,0.0
8366,43.0,0.0,60.0,4.0,0.0
8367,48.0,0.0,60.0,13.0,0.0
8368,48.0,0.0,60.0,8.0,0.0
8369,63.0,0.0,300.0,11.0,0.0
8370,60.0,0.0,120.0,12.0,0.0
8371,55.0,30.0,180.0,3.0,0.0
8372,63.0,0.0,60.0,2.0,0.0
8373,63.0,60.0,300.0,5.0,0.0
8374,48.0,0.0,60.0,4.0,0.0
8375,48.0,0.0,60.0,7.0,0.0
8376,63.0,0.0,300.0,6.0,0.0
8377,63.0,0.0,300.0,0.0,0.0
8378,67.0,0.0,60.0,6.0,0.0
8379,50.0,0.0,60.0,8.0,0.0
8380,50.0,0.0,60.0,13.0,0.0
8381,67.0,0.0,60.0,10.0,0.0
8382,67.0,0.0,60.0,5.0,0.0
8383,62.0,60.0,60.0,2.0,0.0
8384,50.0,0.0,60.0,4.0,0.0
8385,50.0,0.0,60.0,7.0,0.0
8386,55.0,0.0,60.0,1.0,0.0
8387,51.0,0.0,60.0,13.0,0.0
8388,72.0,0.0,60.0,5.0,0.0
8389,72.0,0.0,60.0,10.0,0.0
8390,60.0,0.0,60.0,1.0,0.0
8391,72.0,0.0,60.0,6.0,0.0
8392,51.0,0.0,60.0,4.0,0.0
8393,51.0,0.0,60.0,8.0,0.0
8394,60.0,0.0,240.0,2.0,0.0
8395,51.0,0.0,60.0,7.0,0.0
8396,48.0,0.0,60.0,7.0,0.0
8397,70.0,0.0,60.0,5.0,0.0
8398,70.0,0.0,60.0,6.0,0.0
8399,48.0,0.0,60.0,4.0,0.0
8400,63.0,0.0,60.0,12.0,0.0
8401,58.0,0.0,60.0,1.0,0.0
8402,48.0,0.0,60.0,8.0,0.0
8403,70.0,0.0,60.0,10.0,0.0
8404,48.0,60.0,60.0,13.0,0.0
8405,54.0,30.0,30.0,3.0,0.0
8406,55.0,0.0,30.0,3.0,0.0
8407,57.0,0.0,180.0,3.0,0.0
8408,54.0,0.0,60.0,7.0,0.0
8409,54.0,0.0,60.0,8.0,0.0
8410,69.0,0.0,300.0,6.0,0.0
8411,54.0,0.0,60.0,13.0,0.0
8412,57.0,0.0,120.0,12.0,0.0
8413,69.0,0.0,300.0,10.0,0.0
8414,54.0,0.0,60.0,4.0,0.0
8415,57.0,60.0,300.0,1.0,0.0
8416,52.0,0.0,60.0,8.0,0.0
8417,57.0,0.0,60.0,11.0,0.0
8418,52.0,0.0,60.0,4.0,0.0
8419,52.0,0.0,60.0,13.0,0.0
8420,52.0,0.0,60.0,7.0,0.0
8421,57.0,0.0,60.0,6.0,0.0
8422,69.0,60.0,60.0,5.0,0.0
8423,57.0,0.0,60.0,0.0,0.0
8424,54.0,0.0,60.0,13.0,0.0
8425,54.0,0.0,60.0,4.0,0.0
8426,54.0,0.0,60.0,8.0,0.0
8427,62.0,0.0,60.0,11.0,0.0
8428,62.0,0.0,60.0,6.0,0.0
8429,62.0,30.0,60.0,0.0,0.0
8430,54.0,0.0,60.0,7.0,0.0
8431,62.0,0.0,60.0,5.0,0.0
8432,60.0,0.0,60.0,5.0,0.0
8433,60.0,0.0,60.0,6.0,0.0
8434,50.0,0.0,60.0,7.0,0.0
8435,50.0,0.0,60.0,13.0,0.0
8436,50.0,0.0,60.0,4.0,0.0
8437,50.0,60.0,60.0,8.0,0.0
8438,55.0,30.0,30.0,3.0,0.0
8439,60.0,0.0,60.0,11.0,0.0
8440,62.0,0.0,15.0,2.0,0.0
8441,66.0,0.0,60.0,12.0,0.0
8442,60.0,0.0,60.0,0.0,0.0
8443,57.0,0.0,30.0,3.0,0.0
8444,58.0,0.0,300.0,5.0,0.0
8445,55.0,0.0,60.0,13.0,0.0
8446,62.0,0.0,120.0,12.0,0.0
8447,58.0,0.0,60.0,3.0,0.0
8448,55.0,0.0,60.0,8.0,0.0
8449,58.0,0.0,300.0,11.0,0.0
8450,58.0,60.0,300.0,0.0,0.0
8451,55.0,0.0,60.0,7.0,0.0
8452,58.0,0.0,300.0,6.0,0.0
8453,55.0,0.0,60.0,4.0,0.0
8454,62.0,0.0,15.0,2.0,0.0
8455,62.0,0.0,60.0,5.0,0.0
8456,53.0,0.0,60.0,4.0,0.0
8457,57.0,0.0,60.0,3.0,0.0
8458,53.0,0.0,60.0,7.0,0.0
8459,62.0,0.0,60.0,1.0,0.0
8460,53.0,0.0,60.0,13.0,0.0
8461,62.0,0.0,60.0,6.0,0.0
8462,53.0,0.0,60.0,8.0,0.0
8463,62.0,60.0,60.0,10.0,0.0
8464,51.0,30.0,60.0,7.0,0.0
8465,67.0,0.0,60.0,5.0,0.0
8466,67.0,0.0,60.0,6.0,0.0
8467,67.0,0.0,60.0,10.0,0.0
8468,55.0,0.0,120.0,3.0,0.0
8469,67.0,0.0,60.0,1.0,0.0
8470,51.0,0.0,60.0,4.0,0.0
8471,51.0,0.0,60.0,8.0,0.0
8472,51.0,0.0,60.0,13.0,0.0
8473,50.0,0.0,60.0,13.0,0.0
8474,65.0,0.0,60.0,1.0,0.0
8475,65.0,0.0,60.0,6.0,0.0
8476,60.0,30.0,30.0,2.0,0.0
8477,50.0,0.0,60.0,4.0,0.0
8478,65.0,0.0,60.0,10.0,0.0
8479,50.0,0.0,60.0,8.0,0.0
8480,50.0,35.0,60.0,7.0,0.0
8481,50.0,0.0,60.0,12.0,0.0
8482,65.0,0.0,60.0,5.0,0.0
8483,62.0,0.0,30.0,2.0,0.0
8484,63.0,0.0,120.0,10.0,0.0
8485,48.0,0.0,120.0,4.0,0.0
8486,63.0,0.0,120.0,6.0,0.0
8487,63.0,0.0,120.0,5.0,0.0
8488,48.0,0.0,120.0,8.0,0.0
8489,63.0,25.0,30.0,2.0,0.0
8490,48.0,0.0,120.0,13.0,0.0
8491,63.0,35.0,120.0,1.0,0.0
8492,48.0,0.0,120.0,7.0,0.0
8493,55.0,0.0,120.0,12.0,0.0
8494,66.0,0.0,60.0,0.0,0.0
8495,57.0,0.0,60.0,3.0,0.0
8496,60.0,0.0,60.0,2.0,0.0
8497,66.0,0.0,60.0,11.0,0.0
8498,66.0,0.0,60.0,5.0,0.0
8499,66.0,0.0,60.0,6.0,0.0
8500,62.0,0.0,120.0,1.0,0.0
8501,62.0,0.0,120.0,6.0,0.0
8502,67.0,0.0,30.0,6.0,0.0
8503,62.0,0.0,120.0,10.0,0.0
8504,58.0,0.0,120.0,2.0,0.0
8505,50.0,0.0,120.0,13.0,0.0
8506,67.0,25.0,30.0,0.0,0.0
8507,50.0,0.0,120.0,4.0,0.0
8508,62.0,0.0,120.0,5.0,0.0
8509,50.0,0.0,120.0,7.0,0.0
8510,50.0,0.0,120.0,8.0,0.0
8511,67.0,0.0,30.0,11.0,0.0
8512,58.0,60.0,60.0,3.0,0.0
8513,67.0,0.0,30.0,5.0,0.0
8514,58.0,0.0,60.0,5.0,0.0
8515,55.0,0.0,60.0,3.0,0.0
8516,50.0,0.0,60.0,12.0,0.0
8517,58.0,0.0,60.0,0.0,0.0
8518,58.0,35.0,60.0,6.0,0.0
8519,58.0,0.0,60.0,11.0,0.0
8520,51.0,0.0,120.0,7.0,0.0
8521,60.0,85.0,30.0,1.0,0.0
8522,54.0,0.0,30.0,3.0,0.0
8523,60.0,0.0,30.0,5.0,0.0
8524,60.0,0.0,30.0,10.0,0.0
8525,51.0,0.0,120.0,8.0,0.0
8526,60.0,0.0,30.0,2.0,0.0
8527,57.0,0.0,120.0,12.0,0.0
8528,57.0,0.0,30.0,0.0,0.0
8529,51.0,0.0,120.0,13.0,0.0
8530,60.0,0.0,30.0,11.0,0.0
8531,60.0,0.0,30.0,6.0,0.0
8532,51.0,0.0,120.0,4.0,0.0
8533,66.0,0.0,60.0,11.0,0.0
8534,69.0,0.0,60.0,0.0,0.0
8535,66.0,0.0,60.0,1.0,0.0
8536,69.0,0.0,60.0,6.0,0.0
8537,60.0,60.0,60.0,2.0,0.0
8538,66.0,0.0,60.0,6.0,0.0
8539,60.0,0.0,60.0,3.0,0.0
8540,69.0,0.0,60.0,5.0,0.0
8541,66.0,0.0,60.0,5.0,0.0
8542,69.0,0.0,60.0,10.0,0.0
8543,70.0,0.0,60.0,0.0,0.0
8544,67.0,0.0,60.0,6.0,0.0
8545,67.0,0.0,60.0,11.0,0.0
8546,50.0,0.0,60.0,8.0,0.0
8547,58.0,0.0,60.0,3.0,0.0
8548,70.0,0.0,60.0,6.0,0.0
8549,70.0,60.0,60.0,5.0,0.0
8550,67.0,0.0,60.0,5.0,0.0
8551,67.0,0.0,60.0,1.0,0.0
8552,70.0,0.0,60.0,10.0,0.0
8553,50.0,0.0,60.0,4.0,0.0
8554,50.0,0.0,60.0,13.0,0.0
8555,62.0,0.0,60.0,2.0,0.0
8556,50.0,0.0,60.0,7.0,0.0
8557,48.0,0.0,60.0,13.0,0.0
8558,69.0,0.0,60.0,1.0,0.0
8559,48.0,0.0,60.0,4.0,0.0
8560,48.0,0.0,60.0,8.0,0.0
8561,69.0,0.0,60.0,6.0,0.0
8562,72.0,0.0,60.0,6.0,0.0
8563,72.0,0.0,60.0,10.0,0.0
8564,69.0,0.0,60.0,5.0,0.0
8565,51.0,35.0,60.0,12.0,0.0
8566,72.0,0.0,60.0,5.0,0.0
8567,48.0,0.0,60.0,7.0,0.0
8568,57.0,0.0,60.0,3.0,0.0
8569,54.0,0.0,60.0,2.0,0.0
8570,72.0,0.0,60.0,0.0,0.0
8571,69.0,0.0,60.0,11.0,0.0
8572,55.0,0.0,30.0,3.0,0.0
8573,46.0,0.0,30.0,4.0,0.0
8574,70.0,0.0,30.0,1.0,0.0
8575,74.0,0.0,30.0,0.0,0.0
8576,55.0,0.0,30.0,2.0,0.0
8577,74.0,0.0,30.0,5.0,0.0
8578,46.0,0.0,60.0,13.0,0.0
8579,62.0,0.0,30.0,5.0,0.0
8580,46.0,0.0,60.0,7.0,0.0
8581,74.0,0.0,30.0,10.0,0.0
8582,46.0,60.0,60.0,8.0,0.0
8583,50.0,0.0,120.0,12.0,0.0
8584,62.0,0.0,30.0,11.0,0.0
8585,74.0,0.0,30.0,6.0,0.0
8586,62.0,25.0,30.0,6.0,0.0
8587,45.0,0.0,60.0,13.0,0.0
8588,66.0,0.0,60.0,6.0,0.0
8589,45.0,0.0,60.0,7.0,0.0
8590,75.0,0.0,60.0,0.0,0.0
8591,45.0,0.0,60.0,4.0,0.0
8592,66.0,0.0,60.0,1.0,0.0
8593,45.0,0.0,60.0,8.0,0.0
8594,57.0,60.0,60.0,2.0,0.0
8595,75.0,0.0,60.0,5.0,0.0
8596,66.0,0.0,60.0,5.0,0.0
8597,75.0,0.0,60.0,10.0,0.0
8598,66.0,0.0,60.0,11.0,0.0
8599,75.0,0.0,60.0,6.0,0.0
8600,48.0,0.0,60.0,3.0,0.0
8601,46.0,0.0,60.0,13.0,0.0
8602,46.0,0.0,60.0,7.0,0.0
8603,46.0,0.0,60.0,3.0,0.0
8604,67.0,0.0,60.0,1.0,0.0
8605,46.0,0.0,60.0,8.0,0.0
8606,46.0,0.0,60.0,4.0,0.0
8607,50.0,60.0,60.0,2.0,0.0
8608,74.0,0.0,60.0,5.0,0.0
8609,74.0,0.0,60.0,10.0,0.0
8610,67.0,0.0,60.0,11.0,0.0
8611,74.0,0.0,60.0,0.0,0.0
8612,74.0,0.0,60.0,6.0,0.0
8613,67.0,0.0,60.0,5.0,0.0
8614,63.0,0.0,60.0,1.0,0.0
8615,45.0,0.0,60.0,3.0,0.0
8616,48.0,60.0,60.0,13.0,0.0
8617,67.0,0.0,15.0,6.0,0.0
8618,63.0,0.0,60.0,6.0,0.0
8619,67.0,0.0,60.0,0.0,0.0
8620,48.0,0.0,60.0,4.0,0.0
8621,63.0,0.0,60.0,5.0,0.0
8622,48.0,0.0,60.0,7.0,0.0
8623,63.0,0.0,60.0,11.0,0.0
8624,67.0,0.0,120.0,10.0,0.0
8625,48.0,0.0,60.0,8.0,0.0
8626,55.0,0.0,60.0,12.0,0.0
8627,67.0,0.0,120.0,5.0,0.0
8628,63.0,0.0,60.0,2.0,0.0
8629,58.0,0.0,60.0,6.0,0.0
8630,58.0,0.0,60.0,1.0,0.0
8631,50.0,0.0,540.0,4.0,0.0
8632,50.0,0.0,540.0,7.0,0.0
8633,38.0,0.0,540.0,8.0,0.0
8634,38.0,0.0,540.0,13.0,0.0
8635,62.0,0.0,60.0,2.0,0.0
8636,62.0,0.0,60.0,5.0,0.0
8637,46.0,0.0,60.0,3.0,0.0
8638,67.0,0.0,60.0,0.0,0.0
8639,58.0,0.0,60.0,11.0,0.0
8640,62.0,0.0,60.0,12.0,0.0
8641,66.0,60.0,120.0,10.0,0.0
8642,60.0,30.0,30.0,12.0,0.0
8643,57.0,0.0,120.0,1.0,0.0
8644,57.0,0.0,120.0,11.0,0.0
8645,48.0,0.0,30.0,3.0,0.0
8646,63.0,0.0,30.0,2.0,0.0
8647,66.0,0.0,120.0,5.0,0.0
8648,66.0,0.0,120.0,0.0,0.0
8649,66.0,0.0,120.0,6.0,0.0
8650,57.0,0.0,120.0,6.0,0.0
8651,63.0,0.0,30.0,5.0,0.0
8652,62.0,0.0,30.0,5.0,0.0
8653,58.0,0.0,30.0,12.0,0.0
8654,50.0,0.0,30.0,3.0,0.0
8655,62.0,60.0,30.0,2.0,0.0
8656,60.0,0.0,60.0,5.0,0.0
8657,51.0,0.0,60.0,3.0,0.0
8658,57.0,0.0,60.0,12.0,0.0
8659,60.0,0.0,60.0,2.0,0.0
8660,58.0,0.0,60.0,11.0,0.0
8661,58.0,0.0,60.0,1.0,0.0
8662,58.0,0.0,60.0,5.0,0.0
8663,67.0,0.0,60.0,6.0,0.0
8664,58.0,0.0,60.0,2.0,0.0
8665,50.0,0.0,60.0,3.0,0.0
8666,67.0,35.0,60.0,5.0,0.0
8667,58.0,0.0,60.0,6.0,0.0
8668,62.0,0.0,60.0,12.0,0.0
8669,67.0,0.0,60.0,10.0,0.0
8670,67.0,0.0,60.0,0.0,0.0
8671,69.0,25.0,30.0,10.0,0.0
8672,57.0,0.0,120.0,2.0,0.0
8673,60.0,0.0,60.0,6.0,0.0
8674,60.0,0.0,30.0,11.0,0.0
8675,48.0,60.0,60.0,3.0,0.0
8676,69.0,0.0,60.0,0.0,0.0
8677,69.0,0.0,60.0,6.0,0.0
8678,66.0,0.0,30.0,12.0,0.0
8679,60.0,0.0,60.0,5.0,0.0
8680,60.0,0.0,60.0,1.0,0.0
8681,69.0,0.0,60.0,5.0,0.0
8682,63.0,0.0,60.0,5.0,0.0
8683,72.0,60.0,60.0,5.0,0.0
8684,72.0,0.0,60.0,0.0,0.0
8685,54.0,0.0,60.0,3.0,0.0
8686,63.0,0.0,60.0,11.0,0.0
8687,63.0,0.0,60.0,1.0,0.0
8688,57.0,0.0,60.0,12.0,0.0
8689,63.0,0.0,60.0,6.0,0.0
8690,72.0,0.0,60.0,10.0,0.0
8691,72.0,0.0,60.0,6.0,0.0
8692,70.0,0.0,60.0,10.0,0.0
8693,70.0,0.0,60.0,5.0,0.0
8694,62.0,0.0,60.0,5.0,0.0
8695,62.0,0.0,60.0,11.0,0.0
8696,70.0,0.0,60.0,0.0,0.0
8697,58.0,0.0,60.0,2.0,0.0
8698,62.0,0.0,60.0,1.0,0.0
8699,62.0,0.0,60.0,12.0,0.0
8700,55.0,0.0,60.0,3.0,0.0
8701,70.0,60.0,60.0,6.0,0.0
8702,62.0,0.0,60.0,6.0,0.0
8703,60.0,0.0,60.0,11.0,0.0
8704,54.0,0.0,60.0,12.0,0.0
8705,60.0,0.0,60.0,1.0,0.0
8706,69.0,0.0,60.0,10.0,0.0
8707,60.0,0.0,60.0,5.0,0.0
8708,57.0,0.0,60.0,3.0,0.0
8709,69.0,0.0,60.0,0.0,0.0
8710,60.0,60.0,60.0,6.0,0.0
8711,69.0,0.0,60.0,5.0,0.0
8712,60.0,0.0,60.0,2.0,0.0
8713,69.0,0.0,60.0,6.0,0.0
8714,62.0,0.0,60.0,2.0,0.0
8715,58.0,0.0,120.0,1.0,0.0
8716,58.0,0.0,60.0,11.0,0.0
8717,67.0,0.0,120.0,0.0,0.0
8718,58.0,0.0,60.0,3.0,0.0
8719,67.0,0.0,120.0,6.0,0.0
8720,58.0,60.0,60.0,12.0,0.0
8721,58.0,0.0,60.0,5.0,0.0
8722,67.0,0.0,120.0,5.0,0.0
8723,67.0,0.0,120.0,10.0,0.0
8724,58.0,0.0,60.0,6.0,0.0
8725,48.0,0.0,60.0,4.0,0.0
8726,63.0,0.0,60.0,5.0,0.0
8727,48.0,0.0,60.0,7.0,0.0
8728,55.0,0.0,60.0,3.0,0.0
8729,36.0,0.0,60.0,13.0,0.0
8730,36.0,0.0,60.0,8.0,0.0
8731,63.0,15.0,60.0,11.0,0.0
8732,63.0,0.0,60.0,2.0,0.0
8733,63.0,0.0,60.0,6.0,0.0
8734,55.0,0.0,60.0,12.0,0.0
8735,38.0,0.0,120.0,13.0,0.0
8736,62.0,15.0,60.0,5.0,0.0
8737,66.0,0.0,120.0,6.0,0.0
8738,67.0,15.0,15.0,5.0,0.0
8739,57.0,0.0,60.0,6.0,0.0
8740,50.0,0.0,120.0,3.0,0.0
8741,50.0,0.0,120.0,12.0,0.0
8742,50.0,0.0,120.0,7.0,0.0
8743,50.0,0.0,120.0,4.0,0.0
8744,38.0,0.0,120.0,8.0,0.0
8745,66.0,0.0,120.0,10.0,0.0
8746,57.0,0.0,120.0,1.0,0.0
8747,62.0,0.0,60.0,2.0,0.0
8748,57.0,0.0,60.0,11.0,0.0
8749,66.0,360.0,120.0,0.0,0.0
8750,66.0,15.0,15.0,5.0,0.0
8751,67.0,15.0,15.0,5.0,0.0
8752,66.0,0.0,15.0,5.0,0.0
8753,62.0,0.0,60.0,6.0,0.0
8754,60.0,0.0,60.0,2.0,0.0
8755,62.0,0.0,60.0,11.0,0.0
8756,60.0,0.0,60.0,5.0,0.0
8757,67.0,15.0,15.0,5.0,0.0
8758,66.0,15.0,15.0,5.0,0.0
8759,67.0,15.0,15.0,5.0,0.0
8760,66.0,0.0,15.0,5.0,0.0
8761,50.0,0.0,360.0,12.0,0.0
8762,43.0,0.0,360.0,8.0,0.0
8763,43.0,0.0,360.0,4.0,0.0
8764,55.0,0.0,360.0,1.0,0.0
8765,59.0,0.0,360.0,2.0,0.0
8766,43.0,0.0,360.0,7.0,0.0
8767,67.0,0.0,360.0,0.0,0.0
8768,67.0,0.0,360.0,5.0,0.0
8769,59.0,0.0,360.0,5.0,0.0
8770,50.0,0.0,360.0,3.0,0.0
8771,59.0,0.0,360.0,11.0,0.0
8772,59.0,0.0,360.0,6.0,0.0
8773,67.0,0.0,360.0,6.0,0.0
8774,43.0,0.0,360.0,13.0,0.0
8775,67.0,0.0,360.0,10.0,0.0
