,note,step,duration,channel,velocity
0,69.0,0.0,390.0,1.0,0.0
1,69.0,640.0,390.0,0.0,0.0
2,69.0,0.0,1020.0,2.0,0.0
3,50.0,0.0,1020.0,5.0,0.0
4,74.0,384.0,510.0,1.0,0.0
5,62.0,384.0,1020.0,4.0,0.0
6,62.0,0.0,1020.0,6.0,0.0
7,74.0,0.0,510.0,0.0,0.0
8,66.0,0.0,1020.0,3.0,0.0
9,73.0,128.0,390.0,1.0,0.0
10,73.0,0.0,390.0,0.0,0.0
11,74.0,0.0,390.0,1.0,0.0
12,74.0,640.0,390.0,0.0,0.0
13,61.0,0.0,1020.0,6.0,0.0
14,69.0,0.0,1020.0,2.0,0.0
15,61.0,0.0,1020.0,4.0,0.0
16,49.0,0.0,1020.0,5.0,0.0
17,66.0,0.0,510.0,1.0,0.0
18,62.0,384.0,1020.0,3.0,0.0
19,66.0,384.0,510.0,0.0,0.0
20,69.0,128.0,390.0,1.0,0.0
21,69.0,0.0,390.0,0.0,0.0
22,74.0,0.0,390.0,0.0,0.0
23,74.0,640.0,390.0,1.0,0.0
24,47.0,0.0,1020.0,5.0,0.0
25,59.0,0.0,1020.0,4.0,0.0
26,59.0,384.0,1020.0,6.0,0.0
27,74.0,0.0,510.0,0.0,0.0
28,71.0,0.0,1020.0,2.0,0.0
29,66.0,0.0,1020.0,3.0,0.0
30,74.0,384.0,510.0,1.0,0.0
31,73.0,0.0,390.0,0.0,0.0
32,73.0,128.0,390.0,1.0,0.0
33,74.0,640.0,390.0,1.0,0.0
34,74.0,0.0,390.0,0.0,0.0
35,74.0,0.0,1020.0,2.0,0.0
36,66.0,0.0,510.0,0.0,0.0
37,69.0,0.0,1020.0,3.0,0.0
38,57.0,384.0,1020.0,6.0,0.0
39,66.0,384.0,510.0,1.0,0.0
40,45.0,0.0,1020.0,5.0,0.0
41,57.0,0.0,1020.0,4.0,0.0
42,69.0,128.0,390.0,0.0,0.0
43,69.0,0.0,390.0,1.0,0.0
44,74.0,0.0,390.0,1.0,0.0
45,74.0,640.0,390.0,0.0,0.0
46,43.0,384.0,1020.0,5.0,0.0
47,76.0,0.0,510.0,0.0,0.0
48,76.0,384.0,510.0,1.0,0.0
49,71.0,0.0,1020.0,3.0,0.0
50,55.0,0.0,1020.0,4.0,0.0
51,55.0,0.0,1020.0,6.0,0.0
52,74.0,0.0,1020.0,2.0,0.0
53,74.0,0.0,390.0,0.0,0.0
54,74.0,128.0,390.0,1.0,0.0
55,76.0,640.0,390.0,0.0,0.0
56,76.0,0.0,390.0,1.0,0.0
57,57.0,0.0,1020.0,4.0,0.0
58,45.0,0.0,1020.0,5.0,0.0
59,69.0,384.0,510.0,1.0,0.0
60,69.0,0.0,510.0,0.0,0.0
61,57.0,0.0,1020.0,6.0,0.0
62,73.0,0.0,1020.0,2.0,0.0
63,69.0,384.0,1020.0,3.0,0.0
64,73.0,128.0,390.0,1.0,0.0
65,73.0,0.0,390.0,0.0,0.0
66,76.0,0.0,390.0,1.0,0.0
67,76.0,640.0,390.0,0.0,0.0
68,38.0,0.0,1020.0,5.0,0.0
69,74.0,0.0,510.0,2.0,0.0
70,78.0,0.0,510.0,0.0,0.0
71,69.0,0.0,510.0,3.0,0.0
72,50.0,384.0,1020.0,6.0,0.0
73,50.0,0.0,1020.0,4.0,0.0
74,78.0,384.0,510.0,1.0,0.0
75,67.0,0.0,390.0,3.0,0.0
76,76.0,0.0,390.0,0.0,0.0
77,73.0,128.0,390.0,2.0,0.0
78,76.0,0.0,390.0,1.0,0.0
79,57.0,0.0,390.0,4.0,0.0
80,69.0,0.0,390.0,3.0,0.0
81,45.0,0.0,390.0,5.0,0.0
82,57.0,640.0,390.0,6.0,0.0
83,78.0,0.0,390.0,0.0,0.0
84,78.0,0.0,390.0,1.0,0.0
85,74.0,0.0,390.0,2.0,0.0
86,62.0,0.0,510.0,4.0,0.0
87,74.0,0.0,1020.0,0.0,0.0
88,66.0,0.0,510.0,3.0,0.0
89,69.0,0.0,1020.0,2.0,0.0
90,74.0,384.0,1020.0,1.0,0.0
91,62.0,0.0,510.0,6.0,0.0
92,50.0,384.0,510.0,5.0,0.0
93,61.0,0.0,390.0,4.0,0.0
94,64.0,0.0,390.0,3.0,0.0
95,61.0,0.0,390.0,6.0,0.0
96,49.0,128.0,390.0,5.0,0.0
97,62.0,0.0,390.0,4.0,0.0
98,50.0,0.0,390.0,5.0,0.0
99,78.0,384.0,1020.0,1.0,0.0
100,78.0,0.0,1020.0,0.0,0.0
101,69.0,0.0,390.0,2.0,0.0
102,62.0,640.0,390.0,6.0,0.0
103,66.0,0.0,390.0,3.0,0.0
104,56.0,0.0,1020.0,6.0,0.0
105,59.0,0.0,1020.0,3.0,0.0
106,71.0,0.0,1020.0,2.0,0.0
107,44.0,1024.0,1020.0,5.0,0.0
108,56.0,0.0,1020.0,4.0,0.0
109,71.0,0.0,390.0,1.0,0.0
110,71.0,128.0,390.0,0.0,0.0
111,74.0,384.0,1020.0,1.0,0.0
112,74.0,0.0,1020.0,0.0,0.0
113,52.0,0.0,1020.0,4.0,0.0
114,40.0,0.0,1020.0,5.0,0.0
115,68.0,1024.0,1020.0,3.0,0.0
116,52.0,0.0,1020.0,6.0,0.0
117,71.0,0.0,1020.0,2.0,0.0
118,68.0,128.0,390.0,0.0,0.0
119,68.0,0.0,390.0,1.0,0.0
120,76.0,384.0,1020.0,0.0,0.0
121,76.0,0.0,1020.0,1.0,0.0
122,54.0,0.0,1020.0,6.0,0.0
123,54.0,0.0,1020.0,4.0,0.0
124,69.0,0.0,1020.0,2.0,0.0
125,61.0,1024.0,1020.0,3.0,0.0
126,42.0,0.0,1020.0,5.0,0.0
127,69.0,128.0,390.0,1.0,0.0
128,69.0,0.0,390.0,0.0,0.0
129,73.0,384.0,1020.0,1.0,0.0
130,73.0,0.0,1020.0,0.0,0.0
131,66.0,0.0,1020.0,3.0,0.0
132,69.0,1024.0,1020.0,2.0,0.0
133,38.0,0.0,1020.0,5.0,0.0
134,50.0,0.0,1020.0,4.0,0.0
135,50.0,0.0,1020.0,6.0,0.0
136,66.0,128.0,390.0,0.0,0.0
137,66.0,0.0,390.0,1.0,0.0
138,74.0,384.0,1020.0,0.0,0.0
139,74.0,0.0,1020.0,1.0,0.0
140,52.0,0.0,1020.0,6.0,0.0
141,52.0,0.0,1020.0,4.0,0.0
142,68.0,384.0,1020.0,2.0,0.0
143,59.0,0.0,1020.0,3.0,0.0
144,40.0,0.0,1020.0,5.0,0.0
145,68.0,0.0,390.0,1.0,0.0
146,68.0,128.0,390.0,0.0,0.0
147,50.0,0.0,390.0,4.0,0.0
148,56.0,0.0,390.0,3.0,0.0
149,71.0,384.0,1020.0,1.0,0.0
150,64.0,640.0,390.0,2.0,0.0
151,50.0,0.0,390.0,6.0,0.0
152,38.0,0.0,390.0,5.0,0.0
153,71.0,0.0,1020.0,0.0,0.0
154,61.0,0.0,1020.0,3.0,0.0
155,49.0,0.0,1020.0,6.0,0.0
156,64.0,0.0,1020.0,2.0,0.0
157,49.0,384.0,1020.0,4.0,0.0
158,37.0,0.0,1020.0,5.0,0.0
159,64.0,0.0,390.0,0.0,0.0
160,64.0,128.0,390.0,1.0,0.0
161,68.0,640.0,390.0,2.0,0.0
162,47.0,0.0,390.0,4.0,0.0
163,47.0,0.0,390.0,6.0,0.0
164,74.0,0.0,390.0,0.0,0.0
165,74.0,0.0,390.0,1.0,0.0
166,35.0,0.0,390.0,5.0,0.0
167,62.0,0.0,390.0,3.0,0.0
168,73.0,0.0,510.0,1.0,0.0
169,45.0,384.0,1020.0,6.0,0.0
170,73.0,0.0,510.0,0.0,0.0
171,69.0,0.0,510.0,2.0,0.0
172,33.0,0.0,1020.0,5.0,0.0
173,45.0,0.0,1020.0,4.0,0.0
174,64.0,384.0,510.0,3.0,0.0
175,62.0,128.0,390.0,3.0,0.0
176,71.0,0.0,390.0,0.0,0.0
177,68.0,0.0,390.0,2.0,0.0
178,71.0,0.0,390.0,1.0,0.0
179,52.0,0.0,390.0,6.0,0.0
180,73.0,0.0,390.0,0.0,0.0
181,40.0,0.0,390.0,5.0,0.0
182,69.0,0.0,390.0,2.0,0.0
183,73.0,0.0,390.0,1.0,0.0
184,64.0,640.0,390.0,3.0,0.0
185,52.0,0.0,390.0,4.0,0.0
186,69.0,0.0,510.0,0.0,0.0
187,69.0,384.0,510.0,1.0,0.0
188,64.0,384.0,1020.0,2.0,0.0
189,57.0,0.0,510.0,6.0,0.0
190,45.0,0.0,510.0,5.0,0.0
191,57.0,0.0,510.0,4.0,0.0
192,61.0,0.0,510.0,3.0,0.0
193,55.0,0.0,390.0,4.0,0.0
194,55.0,0.0,390.0,6.0,0.0
195,59.0,0.0,390.0,3.0,0.0
196,73.0,0.0,390.0,1.0,0.0
197,43.0,0.0,390.0,5.0,0.0
198,73.0,128.0,390.0,0.0,0.0
199,76.0,0.0,390.0,1.0,0.0
200,57.0,512.0,390.0,4.0,0.0
201,45.0,0.0,390.0,5.0,0.0
202,76.0,0.0,390.0,0.0,0.0
203,61.0,0.0,390.0,3.0,0.0
204,69.0,0.0,390.0,2.0,0.0
205,57.0,0.0,390.0,6.0,0.0
206,62.0,0.0,1020.0,3.0,0.0
207,54.0,0.0,1020.0,6.0,0.0
208,81.0,512.0,390.0,1.0,0.0
209,42.0,0.0,1020.0,5.0,0.0
210,54.0,1024.0,1020.0,4.0,0.0
211,81.0,0.0,390.0,0.0,0.0
212,69.0,0.0,1020.0,2.0,0.0
213,74.0,0.0,390.0,0.0,0.0
214,74.0,128.0,390.0,1.0,0.0
215,78.0,0.0,1020.0,1.0,0.0
216,78.0,384.0,1020.0,0.0,0.0
217,59.0,0.0,1020.0,6.0,0.0
218,69.0,0.0,1020.0,2.0,0.0
219,47.0,1024.0,1020.0,5.0,0.0
220,59.0,0.0,1020.0,4.0,0.0
221,62.0,0.0,1020.0,3.0,0.0
222,71.0,0.0,390.0,1.0,0.0
223,71.0,128.0,390.0,0.0,0.0
224,79.0,384.0,1020.0,1.0,0.0
225,79.0,0.0,1020.0,0.0,0.0
226,67.0,0.0,1020.0,2.0,0.0
227,40.0,0.0,1020.0,5.0,0.0
228,52.0,0.0,1020.0,4.0,0.0
229,62.0,0.0,1020.0,3.0,0.0
230,52.0,1024.0,1020.0,6.0,0.0
231,73.0,0.0,390.0,0.0,0.0
232,73.0,128.0,390.0,1.0,0.0
233,76.0,384.0,1020.0,0.0,0.0
234,76.0,0.0,1020.0,1.0,0.0
235,57.0,1024.0,1020.0,6.0,0.0
236,45.0,0.0,1020.0,5.0,0.0
237,69.0,0.0,1020.0,2.0,0.0
238,57.0,0.0,1020.0,4.0,0.0
239,61.0,0.0,1020.0,3.0,0.0
240,69.0,128.0,390.0,1.0,0.0
241,69.0,0.0,390.0,0.0,0.0
242,78.0,384.0,1020.0,1.0,0.0
243,78.0,0.0,1020.0,0.0,0.0
244,38.0,0.0,1020.0,5.0,0.0
245,62.0,384.0,1020.0,3.0,0.0
246,69.0,0.0,510.0,2.0,0.0
247,50.0,0.0,1020.0,4.0,0.0
248,50.0,0.0,1020.0,6.0,0.0
249,69.0,0.0,390.0,0.0,0.0
250,66.0,0.0,390.0,2.0,0.0
251,69.0,128.0,390.0,1.0,0.0
252,74.0,0.0,1020.0,1.0,0.0
253,69.0,0.0,390.0,2.0,0.0
254,66.0,0.0,390.0,3.0,0.0
255,50.0,640.0,390.0,5.0,0.0
256,62.0,0.0,390.0,6.0,0.0
257,74.0,0.0,1020.0,0.0,0.0
258,62.0,0.0,390.0,4.0,0.0
259,66.0,384.0,510.0,2.0,0.0
260,50.0,384.0,1020.0,4.0,0.0
261,50.0,0.0,1020.0,6.0,0.0
262,57.0,0.0,1020.0,3.0,0.0
263,38.0,0.0,1020.0,5.0,0.0
264,66.0,0.0,390.0,0.0,0.0
265,62.0,0.0,390.0,2.0,0.0
266,66.0,128.0,390.0,1.0,0.0
267,66.0,640.0,390.0,2.0,0.0
268,62.0,0.0,390.0,6.0,0.0
269,50.0,0.0,390.0,5.0,0.0
270,62.0,0.0,390.0,3.0,0.0
271,62.0,0.0,390.0,4.0,0.0
272,69.0,384.0,1020.0,0.0,0.0
273,69.0,0.0,1020.0,1.0,0.0
274,50.0,384.0,1020.0,6.0,0.0
275,38.0,0.0,1020.0,5.0,0.0
276,62.0,0.0,510.0,2.0,0.0
277,50.0,0.0,1020.0,4.0,0.0
278,54.0,0.0,510.0,3.0,0.0
279,66.0,128.0,390.0,2.0,0.0
280,57.0,0.0,390.0,3.0,0.0
281,62.0,0.0,390.0,0.0,0.0
282,62.0,0.0,390.0,1.0,0.0
283,62.0,0.0,390.0,3.0,0.0
284,62.0,512.0,390.0,4.0,0.0
285,66.0,0.0,390.0,0.0,0.0
286,50.0,0.0,390.0,5.0,0.0
287,69.0,0.0,390.0,2.0,0.0
288,62.0,0.0,390.0,6.0,0.0
289,66.0,0.0,390.0,1.0,0.0
290,69.0,512.0,390.0,0.0,0.0
291,50.0,0.0,1020.0,6.0,0.0
292,38.0,0.0,1020.0,5.0,0.0
293,74.0,0.0,390.0,2.0,0.0
294,69.0,0.0,390.0,1.0,0.0
295,66.0,0.0,390.0,3.0,0.0
296,50.0,384.0,1020.0,4.0,0.0
297,69.0,0.0,390.0,2.0,0.0
298,66.0,128.0,390.0,1.0,0.0
299,62.0,0.0,390.0,3.0,0.0
300,66.0,0.0,390.0,0.0,0.0
301,69.0,0.0,390.0,1.0,0.0
302,74.0,0.0,390.0,2.0,0.0
303,50.0,0.0,390.0,5.0,0.0
304,62.0,512.0,390.0,4.0,0.0
305,66.0,0.0,390.0,3.0,0.0
306,62.0,0.0,390.0,6.0,0.0
307,69.0,0.0,390.0,0.0,0.0
308,74.0,0.0,390.0,1.0,0.0
309,38.0,0.0,1020.0,5.0,0.0
310,50.0,0.0,1020.0,6.0,0.0
311,69.0,1024.0,1020.0,3.0,0.0
312,66.0,0.0,1020.0,2.0,0.0
313,50.0,0.0,1020.0,4.0,0.0
314,74.0,512.0,390.0,0.0,0.0
315,69.0,0.0,390.0,1.0,0.0
316,69.0,128.0,390.0,0.0,0.0
317,71.0,384.0,1020.0,1.0,0.0
318,71.0,0.0,1020.0,0.0,0.0
319,67.0,0.0,1020.0,2.0,0.0
320,62.0,1024.0,1020.0,3.0,0.0
321,62.0,0.0,1020.0,4.0,0.0
322,50.0,0.0,1020.0,5.0,0.0
323,62.0,0.0,1020.0,6.0,0.0
324,69.0,128.0,390.0,0.0,0.0
325,69.0,0.0,390.0,1.0,0.0
326,74.0,0.0,1020.0,0.0,0.0
327,74.0,384.0,1020.0,1.0,0.0
328,57.0,0.0,1020.0,3.0,0.0
329,50.0,1024.0,1020.0,6.0,0.0
330,38.0,0.0,1020.0,5.0,0.0
331,50.0,0.0,1020.0,4.0,0.0
332,66.0,0.0,1020.0,2.0,0.0
333,69.0,0.0,390.0,1.0,0.0
334,69.0,128.0,390.0,0.0,0.0
335,71.0,384.0,1020.0,1.0,0.0
336,71.0,0.0,1020.0,0.0,0.0
337,62.0,384.0,1020.0,6.0,0.0
338,62.0,0.0,1020.0,4.0,0.0
339,62.0,0.0,1020.0,3.0,0.0
340,50.0,0.0,1020.0,5.0,0.0
341,67.0,0.0,1020.0,2.0,0.0
342,69.0,128.0,390.0,1.0,0.0
343,69.0,0.0,390.0,0.0,0.0
344,57.0,640.0,390.0,3.0,0.0
345,66.0,0.0,390.0,2.0,0.0
346,50.0,0.0,390.0,4.0,0.0
347,38.0,0.0,390.0,5.0,0.0
348,74.0,384.0,1020.0,1.0,0.0
349,74.0,0.0,1020.0,0.0,0.0
350,50.0,0.0,390.0,6.0,0.0
351,59.0,0.0,1020.0,3.0,0.0
352,67.0,0.0,1020.0,2.0,0.0
353,55.0,0.0,1020.0,4.0,0.0
354,55.0,384.0,1020.0,6.0,0.0
355,43.0,0.0,1020.0,5.0,0.0
356,71.0,128.0,390.0,1.0,0.0
357,71.0,0.0,390.0,0.0,0.0
358,79.0,384.0,1020.0,0.0,0.0
359,71.0,640.0,390.0,2.0,0.0
360,52.0,0.0,390.0,6.0,0.0
361,64.0,0.0,390.0,3.0,0.0
362,52.0,0.0,390.0,4.0,0.0
363,79.0,0.0,1020.0,1.0,0.0
364,40.0,0.0,390.0,5.0,0.0
365,61.0,0.0,1020.0,3.0,0.0
366,45.0,0.0,1020.0,5.0,0.0
367,69.0,0.0,1020.0,2.0,0.0
368,57.0,0.0,1020.0,6.0,0.0
369,57.0,384.0,1020.0,4.0,0.0
370,73.0,0.0,390.0,0.0,0.0
371,73.0,128.0,390.0,1.0,0.0
372,49.0,128.0,390.0,4.0,0.0
373,81.0,384.0,510.0,1.0,0.0
374,49.0,0.0,390.0,6.0,0.0
375,57.0,0.0,390.0,3.0,0.0
376,37.0,0.0,390.0,5.0,0.0
377,76.0,0.0,390.0,2.0,0.0
378,81.0,0.0,510.0,0.0,0.0
379,38.0,0.0,390.0,5.0,0.0
380,78.0,0.0,390.0,0.0,0.0
381,69.0,0.0,390.0,3.0,0.0
382,50.0,512.0,390.0,6.0,0.0
383,78.0,0.0,390.0,1.0,0.0
384,74.0,0.0,390.0,2.0,0.0
385,50.0,0.0,390.0,4.0,0.0
386,74.0,512.0,390.0,1.0,0.0
387,66.0,0.0,390.0,3.0,0.0
388,54.0,0.0,390.0,4.0,0.0
389,74.0,0.0,390.0,0.0,0.0
390,54.0,0.0,390.0,6.0,0.0
391,69.0,0.0,390.0,2.0,0.0
392,42.0,0.0,390.0,5.0,0.0
393,57.0,0.0,390.0,6.0,0.0
394,73.0,0.0,390.0,0.0,0.0
395,73.0,0.0,390.0,1.0,0.0
396,64.0,0.0,390.0,3.0,0.0
397,45.0,0.0,390.0,5.0,0.0
398,69.0,0.0,390.0,2.0,0.0
399,57.0,512.0,390.0,4.0,0.0
400,50.0,0.0,390.0,5.0,0.0
401,74.0,0.0,1020.0,1.0,0.0
402,66.0,0.0,1020.0,3.0,0.0
403,74.0,128.0,780.0,0.0,0.0
404,69.0,0.0,1020.0,2.0,0.0
405,62.0,0.0,390.0,4.0,0.0
406,62.0,384.0,390.0,6.0,0.0
407,54.0,0.0,390.0,6.0,0.0
408,42.0,0.0,390.0,5.0,0.0
409,54.0,128.0,390.0,4.0,0.0
410,69.0,256.0,270.0,0.0,0.0
411,57.0,128.0,390.0,4.0,0.0
412,57.0,0.0,390.0,6.0,0.0
413,45.0,0.0,390.0,5.0,0.0
414,71.0,128.0,270.0,0.0,0.0
415,73.0,256.0,270.0,0.0,0.0
416,50.0,384.0,510.0,4.0,0.0
417,50.0,256.0,1020.0,6.0,0.0
418,74.0,256.0,270.0,0.0,0.0
419,38.0,0.0,1020.0,5.0,0.0
420,73.0,0.0,270.0,0.0,0.0
421,74.0,0.0,390.0,0.0,0.0
422,54.0,128.0,390.0,4.0,0.0
423,69.0,0.0,270.0,1.0,0.0
424,71.0,128.0,270.0,1.0,0.0
425,57.0,128.0,390.0,4.0,0.0
426,73.0,256.0,270.0,1.0,0.0
427,74.0,256.0,270.0,1.0,0.0
428,49.0,384.0,510.0,4.0,0.0
429,73.0,0.0,270.0,1.0,0.0
430,74.0,0.0,390.0,1.0,0.0
431,54.0,128.0,390.0,4.0,0.0
432,69.0,256.0,270.0,0.0,0.0
433,71.0,128.0,270.0,0.0,0.0
434,57.0,128.0,390.0,4.0,0.0
435,73.0,256.0,270.0,0.0,0.0
436,47.0,384.0,510.0,4.0,0.0
437,74.0,256.0,270.0,0.0,0.0
438,73.0,0.0,270.0,0.0,0.0
439,74.0,0.0,390.0,0.0,0.0
440,50.0,128.0,390.0,4.0,0.0
441,69.0,256.0,270.0,1.0,0.0
442,71.0,128.0,270.0,1.0,0.0
443,54.0,128.0,390.0,4.0,0.0
444,73.0,256.0,270.0,1.0,0.0
445,45.0,0.0,510.0,4.0,0.0
446,74.0,256.0,270.0,1.0,0.0
447,73.0,384.0,270.0,1.0,0.0
448,50.0,128.0,390.0,4.0,0.0
449,74.0,0.0,390.0,1.0,0.0
450,71.0,256.0,270.0,0.0,0.0
451,73.0,128.0,270.0,0.0,0.0
452,54.0,128.0,390.0,4.0,0.0
453,74.0,256.0,270.0,0.0,0.0
454,43.0,256.0,510.0,4.0,0.0
455,76.0,256.0,270.0,0.0,0.0
456,74.0,0.0,270.0,0.0,0.0
457,76.0,128.0,270.0,0.0,0.0
458,47.0,128.0,390.0,4.0,0.0
459,74.0,0.0,270.0,0.0,0.0
460,71.0,256.0,270.0,1.0,0.0
461,73.0,0.0,270.0,0.0,0.0
462,73.0,128.0,270.0,1.0,0.0
463,52.0,128.0,390.0,4.0,0.0
464,71.0,0.0,270.0,0.0,0.0
465,74.0,256.0,270.0,1.0,0.0
466,76.0,128.0,270.0,1.0,0.0
467,69.0,128.0,390.0,0.0,0.0
468,49.0,256.0,510.0,4.0,0.0
469,74.0,0.0,270.0,1.0,0.0
470,76.0,128.0,270.0,1.0,0.0
471,73.0,0.0,390.0,0.0,0.0
472,52.0,128.0,390.0,4.0,0.0
473,74.0,256.0,270.0,1.0,0.0
474,73.0,128.0,270.0,1.0,0.0
475,76.0,128.0,390.0,0.0,0.0
476,45.0,0.0,390.0,4.0,0.0
477,71.0,256.0,270.0,1.0,0.0
478,78.0,256.0,270.0,0.0,0.0
479,69.0,0.0,270.0,1.0,0.0
480,50.0,0.0,510.0,4.0,0.0
481,67.0,0.0,270.0,1.0,0.0
482,76.0,256.0,270.0,0.0,0.0
483,54.0,128.0,390.0,4.0,0.0
484,69.0,128.0,270.0,1.0,0.0
485,78.0,0.0,270.0,0.0,0.0
486,79.0,0.0,270.0,0.0,0.0
487,71.0,256.0,270.0,1.0,0.0
488,78.0,0.0,270.0,0.0,0.0
489,69.0,128.0,270.0,1.0,0.0
490,57.0,128.0,390.0,4.0,0.0
491,67.0,0.0,270.0,1.0,0.0
492,76.0,256.0,270.0,0.0,0.0
493,66.0,128.0,270.0,1.0,0.0
494,62.0,0.0,510.0,4.0,0.0
495,74.0,128.0,390.0,0.0,0.0
496,64.0,256.0,270.0,1.0,0.0
497,61.0,128.0,390.0,4.0,0.0
498,69.0,0.0,390.0,0.0,0.0
499,66.0,128.0,270.0,1.0,0.0
500,67.0,256.0,270.0,1.0,0.0
501,69.0,128.0,270.0,1.0,0.0
502,78.0,256.0,1020.0,0.0,0.0
503,62.0,128.0,390.0,4.0,0.0
504,66.0,256.0,270.0,1.0,0.0
505,56.0,128.0,390.0,4.0,0.0
506,71.0,128.0,270.0,1.0,0.0
507,73.0,0.0,270.0,1.0,0.0
508,71.0,0.0,390.0,0.0,0.0
509,59.0,128.0,390.0,4.0,0.0
510,74.0,128.0,270.0,1.0,0.0
511,73.0,256.0,270.0,1.0,0.0
512,56.0,128.0,390.0,4.0,0.0
513,71.0,128.0,270.0,1.0,0.0
514,74.0,0.0,1020.0,0.0,0.0
515,69.0,256.0,270.0,1.0,0.0
516,52.0,128.0,390.0,4.0,0.0
517,68.0,128.0,270.0,1.0,0.0
518,66.0,256.0,270.0,1.0,0.0
519,64.0,128.0,270.0,1.0,0.0
520,61.0,128.0,390.0,4.0,0.0
521,68.0,0.0,390.0,0.0,0.0
522,66.0,256.0,270.0,1.0,0.0
523,76.0,256.0,1020.0,0.0,0.0
524,68.0,128.0,270.0,1.0,0.0
525,52.0,128.0,390.0,4.0,0.0
526,64.0,256.0,270.0,1.0,0.0
527,54.0,128.0,390.0,4.0,0.0
528,69.0,128.0,270.0,1.0,0.0
529,71.0,0.0,270.0,1.0,0.0
530,57.0,0.0,390.0,4.0,0.0
531,73.0,128.0,270.0,1.0,0.0
532,69.0,128.0,390.0,0.0,0.0
533,71.0,256.0,270.0,1.0,0.0
534,69.0,128.0,270.0,1.0,0.0
535,54.0,128.0,390.0,4.0,0.0
536,73.0,256.0,1020.0,0.0,0.0
537,68.0,256.0,270.0,1.0,0.0
538,50.0,128.0,390.0,4.0,0.0
539,66.0,128.0,270.0,1.0,0.0
540,64.0,0.0,270.0,1.0,0.0
541,59.0,128.0,390.0,4.0,0.0
542,62.0,128.0,270.0,1.0,0.0
543,66.0,0.0,390.0,0.0,0.0
544,64.0,256.0,270.0,1.0,0.0
545,50.0,128.0,390.0,4.0,0.0
546,66.0,128.0,270.0,1.0,0.0
547,74.0,256.0,1020.0,0.0,0.0
548,62.0,256.0,270.0,1.0,0.0
549,68.0,256.0,270.0,1.0,0.0
550,52.0,0.0,1020.0,4.0,0.0
551,69.0,0.0,270.0,1.0,0.0
552,71.0,128.0,270.0,1.0,0.0
553,68.0,128.0,390.0,0.0,0.0
554,69.0,256.0,270.0,1.0,0.0
555,68.0,256.0,270.0,1.0,0.0
556,50.0,0.0,510.0,4.0,0.0
557,71.0,256.0,1020.0,0.0,0.0
558,66.0,256.0,270.0,1.0,0.0
559,64.0,256.0,270.0,1.0,0.0
560,49.0,256.0,1020.0,4.0,0.0
561,66.0,0.0,270.0,1.0,0.0
562,68.0,128.0,270.0,1.0,0.0
563,64.0,128.0,390.0,0.0,0.0
564,66.0,0.0,270.0,1.0,0.0
565,64.0,128.0,270.0,1.0,0.0
566,47.0,256.0,510.0,4.0,0.0
567,74.0,128.0,390.0,0.0,0.0
568,62.0,0.0,270.0,1.0,0.0
569,73.0,256.0,510.0,0.0,0.0
570,45.0,256.0,1020.0,4.0,0.0
571,64.0,256.0,270.0,1.0,0.0
572,69.0,0.0,270.0,1.0,0.0
573,68.0,128.0,270.0,1.0,0.0
574,71.0,128.0,390.0,0.0,0.0
575,66.0,0.0,270.0,1.0,0.0
576,73.0,128.0,390.0,0.0,0.0
577,64.0,128.0,270.0,1.0,0.0
578,62.0,256.0,270.0,1.0,0.0
579,69.0,0.0,510.0,0.0,0.0
580,61.0,256.0,270.0,1.0,0.0
581,62.0,256.0,270.0,1.0,0.0
582,61.0,128.0,390.0,0.0,0.0
583,64.0,128.0,270.0,1.0,0.0
584,62.0,256.0,270.0,1.0,0.0
585,61.0,128.0,270.0,1.0,0.0
586,64.0,128.0,390.0,0.0,0.0
587,59.0,512.0,270.0,1.0,0.0
588,57.0,0.0,1020.0,4.0,0.0
589,45.0,0.0,1020.0,5.0,0.0
590,64.0,0.0,1020.0,2.0,0.0
591,57.0,0.0,1020.0,1.0,0.0
592,61.0,0.0,1020.0,3.0,0.0
593,57.0,384.0,1020.0,6.0,0.0
594,69.0,384.0,510.0,0.0,0.0
595,68.0,128.0,390.0,0.0,0.0
596,69.0,640.0,390.0,1.0,0.0
597,69.0,0.0,390.0,0.0,0.0
598,44.0,384.0,1020.0,5.0,0.0
599,56.0,0.0,1020.0,4.0,0.0
600,57.0,0.0,1020.0,3.0,0.0
601,56.0,0.0,1020.0,6.0,0.0
602,61.0,0.0,510.0,1.0,0.0
603,64.0,0.0,1020.0,2.0,0.0
604,61.0,384.0,510.0,0.0,0.0
605,64.0,128.0,390.0,1.0,0.0
606,64.0,0.0,390.0,0.0,0.0
607,69.0,0.0,390.0,1.0,0.0
608,69.0,640.0,390.0,0.0,0.0
609,66.0,0.0,1020.0,2.0,0.0
610,69.0,0.0,510.0,1.0,0.0
611,54.0,384.0,1020.0,6.0,0.0
612,69.0,384.0,510.0,0.0,0.0
613,61.0,0.0,1020.0,3.0,0.0
614,42.0,0.0,1020.0,5.0,0.0
615,54.0,0.0,1020.0,4.0,0.0
616,68.0,0.0,390.0,1.0,0.0
617,68.0,128.0,390.0,0.0,0.0
618,69.0,0.0,390.0,0.0,0.0
619,69.0,640.0,390.0,1.0,0.0
620,52.0,0.0,1020.0,6.0,0.0
621,61.0,0.0,510.0,1.0,0.0
622,69.0,0.0,1020.0,2.0,0.0
623,52.0,384.0,1020.0,4.0,0.0
624,40.0,0.0,1020.0,5.0,0.0
625,64.0,0.0,1020.0,3.0,0.0
626,61.0,384.0,510.0,0.0,0.0
627,64.0,128.0,390.0,1.0,0.0
628,64.0,0.0,390.0,0.0,0.0
629,69.0,0.0,390.0,0.0,0.0
630,69.0,640.0,390.0,1.0,0.0
631,71.0,0.0,510.0,1.0,0.0
632,71.0,384.0,510.0,0.0,0.0
633,66.0,0.0,1020.0,3.0,0.0
634,50.0,0.0,1020.0,6.0,0.0
635,38.0,384.0,1020.0,5.0,0.0
636,50.0,0.0,1020.0,4.0,0.0
637,69.0,0.0,1020.0,2.0,0.0
638,69.0,0.0,390.0,1.0,0.0
639,69.0,128.0,390.0,0.0,0.0
640,71.0,640.0,390.0,0.0,0.0
641,71.0,0.0,390.0,1.0,0.0
642,52.0,0.0,1020.0,4.0,0.0
643,64.0,0.0,1020.0,3.0,0.0
644,40.0,0.0,1020.0,5.0,0.0
645,64.0,384.0,510.0,1.0,0.0
646,68.0,384.0,1020.0,2.0,0.0
647,64.0,0.0,510.0,0.0,0.0
648,52.0,0.0,1020.0,6.0,0.0
649,68.0,0.0,390.0,0.0,0.0
650,68.0,128.0,390.0,1.0,0.0
651,71.0,0.0,390.0,1.0,0.0
652,71.0,640.0,390.0,0.0,0.0
653,33.0,0.0,2550.0,5.0,0.0
654,45.0,384.0,1920.0,4.0,0.0
655,73.0,0.0,510.0,1.0,0.0
656,73.0,0.0,510.0,0.0,0.0
657,69.0,0.0,510.0,2.0,0.0
658,64.0,384.0,510.0,3.0,0.0
659,45.0,0.0,2550.0,6.0,0.0
660,71.0,0.0,390.0,0.0,0.0
661,68.0,0.0,390.0,2.0,0.0
662,71.0,0.0,390.0,1.0,0.0
663,62.0,512.0,390.0,3.0,0.0
664,64.0,0.0,390.0,3.0,0.0
665,73.0,512.0,390.0,1.0,0.0
666,69.0,0.0,390.0,2.0,0.0
667,73.0,0.0,390.0,0.0,0.0
668,69.0,128.0,780.0,1.0,0.0
669,69.0,0.0,1020.0,0.0,0.0
670,64.0,0.0,1020.0,2.0,0.0
671,61.0,0.0,1020.0,3.0,0.0
672,49.0,128.0,390.0,4.0,0.0
673,64.0,256.0,270.0,1.0,0.0
674,52.0,128.0,390.0,4.0,0.0
675,66.0,128.0,270.0,1.0,0.0
676,68.0,256.0,270.0,1.0,0.0
677,57.0,0.0,510.0,4.0,0.0
678,69.0,256.0,270.0,1.0,0.0
679,68.0,384.0,270.0,1.0,0.0
680,61.0,0.0,390.0,4.0,0.0
681,69.0,128.0,390.0,1.0,0.0
682,64.0,256.0,270.0,0.0,0.0
683,64.0,128.0,390.0,4.0,0.0
684,66.0,128.0,270.0,0.0,0.0
685,68.0,256.0,270.0,0.0,0.0
686,56.0,384.0,510.0,4.0,0.0
687,69.0,256.0,270.0,0.0,0.0
688,68.0,0.0,270.0,0.0,0.0
689,69.0,0.0,390.0,0.0,0.0
690,61.0,128.0,390.0,4.0,0.0
691,64.0,256.0,270.0,1.0,0.0
692,66.0,128.0,270.0,1.0,0.0
693,64.0,128.0,390.0,4.0,0.0
694,68.0,256.0,270.0,1.0,0.0
695,69.0,256.0,270.0,1.0,0.0
696,54.0,384.0,510.0,4.0,0.0
697,68.0,0.0,270.0,1.0,0.0
698,57.0,0.0,390.0,4.0,0.0
699,69.0,128.0,390.0,1.0,0.0
700,64.0,256.0,270.0,0.0,0.0
701,66.0,128.0,270.0,0.0,0.0
702,61.0,128.0,390.0,4.0,0.0
703,68.0,256.0,270.0,0.0,0.0
704,69.0,256.0,270.0,0.0,0.0
705,52.0,384.0,510.0,4.0,0.0
706,68.0,0.0,270.0,0.0,0.0
707,69.0,128.0,390.0,0.0,0.0
708,57.0,0.0,390.0,4.0,0.0
709,66.0,256.0,270.0,1.0,0.0
710,61.0,128.0,390.0,4.0,0.0
711,68.0,128.0,270.0,1.0,0.0
712,69.0,256.0,270.0,1.0,0.0
713,71.0,256.0,270.0,1.0,0.0
714,50.0,256.0,510.0,4.0,0.0
715,69.0,0.0,270.0,1.0,0.0
716,54.0,128.0,390.0,4.0,0.0
717,71.0,128.0,270.0,1.0,0.0
718,69.0,0.0,270.0,1.0,0.0
719,66.0,256.0,270.0,0.0,0.0
720,68.0,128.0,270.0,1.0,0.0
721,68.0,0.0,270.0,0.0,0.0
722,59.0,128.0,390.0,4.0,0.0
723,69.0,256.0,270.0,0.0,0.0
724,66.0,0.0,270.0,1.0,0.0
725,56.0,0.0,510.0,4.0,0.0
726,64.0,128.0,390.0,1.0,0.0
727,71.0,128.0,270.0,0.0,0.0
728,69.0,256.0,270.0,0.0,0.0
729,59.0,0.0,390.0,4.0,0.0
730,68.0,128.0,390.0,1.0,0.0
731,71.0,128.0,270.0,0.0,0.0
732,69.0,256.0,270.0,0.0,0.0
733,68.0,128.0,270.0,0.0,0.0
734,52.0,128.0,390.0,4.0,0.0
735,71.0,0.0,390.0,1.0,0.0
736,66.0,256.0,270.0,0.0,0.0
737,73.0,0.0,270.0,1.0,0.0
738,64.0,256.0,270.0,0.0,0.0
739,45.0,0.0,510.0,4.0,0.0
740,71.0,256.0,270.0,1.0,0.0
741,62.0,0.0,270.0,0.0,0.0
742,64.0,0.0,270.0,0.0,0.0
743,49.0,128.0,390.0,4.0,0.0
744,73.0,128.0,270.0,1.0,0.0
745,74.0,256.0,270.0,1.0,0.0
746,66.0,0.0,270.0,0.0,0.0
747,52.0,128.0,390.0,4.0,0.0
748,73.0,0.0,270.0,1.0,0.0
749,64.0,128.0,270.0,0.0,0.0
750,71.0,256.0,270.0,1.0,0.0
751,62.0,0.0,270.0,0.0,0.0
752,61.0,128.0,270.0,0.0,0.0
753,69.0,128.0,390.0,1.0,0.0
754,57.0,0.0,510.0,4.0,0.0
755,59.0,256.0,270.0,0.0,0.0
756,56.0,0.0,390.0,4.0,0.0
757,64.0,128.0,390.0,1.0,0.0
758,61.0,128.0,270.0,0.0,0.0
759,62.0,256.0,270.0,0.0,0.0
760,73.0,256.0,1020.0,1.0,0.0
761,57.0,128.0,390.0,4.0,0.0
762,64.0,128.0,270.0,0.0,0.0
763,61.0,256.0,270.0,0.0,0.0
764,66.0,128.0,270.0,0.0,0.0
765,51.0,128.0,390.0,4.0,0.0
766,68.0,0.0,270.0,0.0,0.0
767,69.0,128.0,270.0,0.0,0.0
768,54.0,128.0,390.0,4.0,0.0
769,66.0,0.0,390.0,1.0,0.0
770,68.0,256.0,270.0,0.0,0.0
771,51.0,128.0,390.0,4.0,0.0
772,69.0,256.0,1020.0,1.0,0.0
773,66.0,128.0,270.0,0.0,0.0
774,64.0,256.0,270.0,0.0,0.0
775,47.0,128.0,390.0,4.0,0.0
776,63.0,128.0,270.0,0.0,0.0
777,61.0,0.0,270.0,0.0,0.0
778,59.0,128.0,270.0,0.0,0.0
779,63.0,0.0,390.0,1.0,0.0
780,56.0,128.0,390.0,4.0,0.0
781,61.0,256.0,270.0,0.0,0.0
782,71.0,256.0,1020.0,1.0,0.0
783,63.0,128.0,270.0,0.0,0.0
784,47.0,128.0,390.0,4.0,0.0
785,59.0,256.0,270.0,0.0,0.0
786,49.0,128.0,390.0,4.0,0.0
787,64.0,128.0,270.0,0.0,0.0
788,66.0,0.0,270.0,0.0,0.0
789,64.0,0.0,390.0,1.0,0.0
790,68.0,128.0,270.0,0.0,0.0
791,52.0,128.0,390.0,4.0,0.0
792,66.0,256.0,270.0,0.0,0.0
793,64.0,128.0,270.0,0.0,0.0
794,49.0,128.0,390.0,4.0,0.0
795,68.0,0.0,1020.0,1.0,0.0
796,63.0,256.0,270.0,0.0,0.0
797,61.0,128.0,270.0,0.0,0.0
798,45.0,128.0,390.0,4.0,0.0
799,59.0,256.0,270.0,0.0,0.0
800,61.0,128.0,390.0,1.0,0.0
801,54.0,0.0,390.0,4.0,0.0
802,57.0,128.0,270.0,0.0,0.0
803,59.0,256.0,270.0,0.0,0.0
804,61.0,128.0,270.0,0.0,0.0
805,69.0,0.0,1020.0,1.0,0.0
806,45.0,128.0,390.0,4.0,0.0
807,57.0,256.0,270.0,0.0,0.0
808,63.0,256.0,270.0,0.0,0.0
809,47.0,256.0,1020.0,4.0,0.0
810,64.0,256.0,270.0,0.0,0.0
811,66.0,128.0,270.0,0.0,0.0
812,63.0,128.0,390.0,1.0,0.0
813,64.0,0.0,270.0,0.0,0.0
814,45.0,256.0,510.0,4.0,0.0
815,66.0,256.0,1020.0,1.0,0.0
816,63.0,256.0,270.0,0.0,0.0
817,61.0,0.0,270.0,0.0,0.0
818,59.0,256.0,270.0,0.0,0.0
819,44.0,0.0,1020.0,4.0,0.0
820,61.0,0.0,270.0,0.0,0.0
821,63.0,128.0,270.0,0.0,0.0
822,59.0,128.0,390.0,1.0,0.0
823,61.0,256.0,270.0,0.0,0.0
824,42.0,0.0,510.0,4.0,0.0
825,69.0,128.0,390.0,1.0,0.0
826,59.0,128.0,270.0,0.0,0.0
827,57.0,256.0,270.0,0.0,0.0
828,68.0,256.0,510.0,1.0,0.0
829,40.0,0.0,1020.0,4.0,0.0
830,59.0,256.0,270.0,0.0,0.0
831,64.0,0.0,270.0,0.0,0.0
832,63.0,128.0,270.0,0.0,0.0
833,66.0,128.0,390.0,1.0,0.0
834,61.0,256.0,270.0,0.0,0.0
835,59.0,128.0,270.0,0.0,0.0
836,68.0,128.0,390.0,1.0,0.0
837,57.0,256.0,270.0,0.0,0.0
838,64.0,0.0,510.0,1.0,0.0
839,56.0,256.0,270.0,0.0,0.0
840,57.0,256.0,270.0,0.0,0.0
841,68.0,128.0,390.0,1.0,0.0
842,59.0,128.0,270.0,0.0,0.0
843,57.0,256.0,270.0,0.0,0.0
844,71.0,128.0,390.0,1.0,0.0
845,56.0,128.0,270.0,0.0,0.0
846,54.0,384.0,270.0,0.0,0.0
847,37.0,1024.0,1020.0,5.0,0.0
848,76.0,0.0,390.0,1.0,0.0
849,64.0,0.0,1020.0,3.0,0.0
850,49.0,0.0,1020.0,6.0,0.0
851,69.0,0.0,1020.0,2.0,0.0
852,52.0,512.0,390.0,0.0,0.0
853,49.0,0.0,1020.0,4.0,0.0
854,69.0,0.0,390.0,1.0,0.0
855,64.0,128.0,390.0,0.0,0.0
856,73.0,384.0,1020.0,0.0,0.0
857,73.0,0.0,1020.0,1.0,0.0
858,42.0,0.0,1020.0,5.0,0.0
859,64.0,0.0,1020.0,3.0,0.0
860,54.0,1024.0,1020.0,6.0,0.0
861,54.0,0.0,1020.0,4.0,0.0
862,69.0,0.0,1020.0,2.0,0.0
863,66.0,0.0,390.0,0.0,0.0
864,66.0,128.0,390.0,1.0,0.0
865,74.0,0.0,1020.0,0.0,0.0
866,74.0,384.0,1020.0,1.0,0.0
867,47.0,0.0,1020.0,4.0,0.0
868,62.0,0.0,1020.0,3.0,0.0
869,69.0,1024.0,1020.0,2.0,0.0
870,35.0,0.0,1020.0,5.0,0.0
871,47.0,0.0,1020.0,6.0,0.0
872,68.0,128.0,390.0,1.0,0.0
873,68.0,0.0,390.0,0.0,0.0
874,71.0,0.0,1020.0,1.0,0.0
875,71.0,384.0,1020.0,0.0,0.0
876,64.0,0.0,1020.0,3.0,0.0
877,52.0,0.0,1020.0,4.0,0.0
878,68.0,0.0,1020.0,2.0,0.0
879,52.0,768.0,1020.0,6.0,0.0
880,40.0,0.0,1020.0,5.0,0.0
881,64.0,0.0,390.0,0.0,0.0
882,64.0,128.0,390.0,1.0,0.0
883,73.0,256.0,780.0,1.0,0.0
884,73.0,0.0,1020.0,0.0,0.0
885,45.0,0.0,1020.0,4.0,0.0
886,45.0,0.0,1020.0,6.0,0.0
887,33.0,0.0,1020.0,5.0,0.0
888,64.0,0.0,1020.0,3.0,0.0
889,69.0,0.0,1020.0,2.0,0.0
890,69.0,256.0,270.0,1.0,0.0
891,64.0,128.0,390.0,0.0,0.0
892,68.0,128.0,270.0,1.0,0.0
893,66.0,256.0,270.0,1.0,0.0
894,69.0,256.0,1020.0,0.0,0.0
895,64.0,128.0,270.0,1.0,0.0
896,57.0,128.0,390.0,4.0,0.0
897,62.0,256.0,270.0,1.0,0.0
898,45.0,0.0,1020.0,4.0,0.0
899,61.0,256.0,270.0,1.0,0.0
900,66.0,0.0,270.0,1.0,0.0
901,61.0,128.0,390.0,0.0,0.0
902,64.0,128.0,270.0,1.0,0.0
903,62.0,256.0,270.0,1.0,0.0
904,64.0,0.0,1020.0,0.0,0.0
905,57.0,128.0,390.0,4.0,0.0
906,61.0,128.0,270.0,1.0,0.0
907,59.0,256.0,270.0,1.0,0.0
908,57.0,256.0,270.0,1.0,0.0
909,45.0,0.0,1020.0,4.0,0.0
910,52.0,256.0,270.0,1.0,0.0
911,57.0,128.0,390.0,0.0,0.0
912,54.0,128.0,270.0,1.0,0.0
913,56.0,256.0,270.0,1.0,0.0
914,61.0,0.0,390.0,0.0,0.0
915,57.0,128.0,390.0,4.0,0.0
916,57.0,128.0,270.0,1.0,0.0
917,59.0,256.0,270.0,1.0,0.0
918,45.0,256.0,1020.0,4.0,0.0
919,61.0,128.0,270.0,1.0,0.0
920,64.0,128.0,390.0,0.0,0.0
921,59.0,256.0,270.0,1.0,0.0
922,61.0,128.0,390.0,0.0,0.0
923,57.0,128.0,270.0,1.0,0.0
924,59.0,0.0,270.0,1.0,0.0
925,57.0,128.0,390.0,4.0,0.0
926,61.0,128.0,270.0,1.0,0.0
927,64.0,0.0,390.0,0.0,0.0
928,62.0,384.0,270.0,1.0,0.0
929,69.0,512.0,390.0,0.0,0.0
930,64.0,0.0,390.0,1.0,0.0
931,64.0,0.0,1020.0,3.0,0.0
932,33.0,1024.0,1020.0,5.0,0.0
933,61.0,0.0,1020.0,2.0,0.0
934,45.0,0.0,1020.0,6.0,0.0
935,45.0,0.0,1020.0,4.0,0.0
936,57.0,128.0,390.0,1.0,0.0
937,64.0,0.0,390.0,0.0,0.0
938,66.0,0.0,1020.0,0.0,0.0
939,66.0,256.0,1020.0,1.0,0.0
940,57.0,0.0,1020.0,4.0,0.0
941,62.0,0.0,1020.0,2.0,0.0
942,57.0,0.0,1020.0,6.0,0.0
943,45.0,256.0,1020.0,5.0,0.0
944,57.0,0.0,1020.0,3.0,0.0
945,64.0,128.0,270.0,0.0,0.0
946,64.0,128.0,390.0,1.0,0.0
947,62.0,0.0,270.0,0.0,0.0
948,61.0,256.0,270.0,0.0,0.0
949,69.0,0.0,1020.0,1.0,0.0
950,59.0,256.0,270.0,0.0,0.0
951,45.0,0.0,1020.0,4.0,0.0
952,61.0,256.0,270.0,0.0,0.0
953,62.0,256.0,270.0,0.0,0.0
954,64.0,128.0,270.0,0.0,0.0
955,64.0,128.0,390.0,1.0,0.0
956,62.0,256.0,270.0,0.0,0.0
957,66.0,256.0,1020.0,1.0,0.0
958,61.0,256.0,270.0,0.0,0.0
959,59.0,256.0,270.0,0.0,0.0
960,57.0,0.0,1020.0,4.0,0.0
961,57.0,256.0,270.0,0.0,0.0
962,59.0,0.0,270.0,0.0,0.0
963,61.0,128.0,270.0,0.0,0.0
964,64.0,128.0,390.0,1.0,0.0
965,59.0,256.0,270.0,0.0,0.0
966,45.0,0.0,390.0,6.0,0.0
967,33.0,128.0,390.0,5.0,0.0
968,45.0,0.0,390.0,4.0,0.0
969,69.0,384.0,1020.0,1.0,0.0
970,64.0,512.0,510.0,2.0,0.0
971,61.0,0.0,510.0,3.0,0.0
972,57.0,128.0,270.0,0.0,0.0
973,56.0,0.0,270.0,0.0,0.0
974,54.0,0.0,510.0,0.0,0.0
975,50.0,0.0,1020.0,4.0,0.0
976,38.0,0.0,1020.0,5.0,0.0
977,66.0,0.0,1020.0,2.0,0.0
978,62.0,0.0,1020.0,3.0,0.0
979,50.0,384.0,1020.0,6.0,0.0
980,66.0,128.0,390.0,0.0,0.0
981,66.0,0.0,390.0,1.0,0.0
982,74.0,0.0,1020.0,1.0,0.0
983,47.0,0.0,390.0,4.0,0.0
984,71.0,0.0,390.0,2.0,0.0
985,66.0,640.0,390.0,3.0,0.0
986,74.0,384.0,1020.0,0.0,0.0
987,47.0,0.0,390.0,6.0,0.0
988,35.0,0.0,390.0,5.0,0.0
989,59.0,0.0,1020.0,2.0,0.0
990,52.0,384.0,1020.0,4.0,0.0
991,68.0,0.0,1020.0,3.0,0.0
992,40.0,0.0,1020.0,5.0,0.0
993,52.0,0.0,1020.0,6.0,0.0
994,68.0,0.0,390.0,1.0,0.0
995,68.0,128.0,390.0,0.0,0.0
996,71.0,0.0,390.0,2.0,0.0
997,76.0,384.0,510.0,1.0,0.0
998,56.0,0.0,390.0,6.0,0.0
999,44.0,0.0,390.0,5.0,0.0
1000,76.0,0.0,510.0,0.0,0.0
1001,56.0,0.0,390.0,4.0,0.0
1002,64.0,128.0,390.0,3.0,0.0
1003,73.0,0.0,390.0,0.0,0.0
1004,69.0,0.0,390.0,2.0,0.0
1005,57.0,0.0,390.0,4.0,0.0
1006,57.0,0.0,390.0,6.0,0.0
1007,73.0,0.0,390.0,1.0,0.0
1008,64.0,512.0,390.0,3.0,0.0
1009,45.0,0.0,390.0,5.0,0.0
1010,37.0,0.0,390.0,5.0,0.0
1011,69.0,0.0,390.0,0.0,0.0
1012,61.0,0.0,390.0,4.0,0.0
1013,69.0,0.0,390.0,1.0,0.0
1014,64.0,0.0,390.0,2.0,0.0
1015,49.0,256.0,390.0,6.0,0.0
1016,61.0,0.0,390.0,3.0,0.0
1017,59.0,64.0,390.0,3.0,0.0
1018,68.0,0.0,120.0,0.0,0.0
1019,68.0,128.0,120.0,1.0,0.0
1020,64.0,0.0,390.0,2.0,0.0
1021,40.0,0.0,390.0,5.0,0.0
1022,52.0,0.0,390.0,6.0,0.0
1023,64.0,0.0,390.0,4.0,0.0
1024,69.0,0.0,120.0,0.0,0.0
1025,69.0,128.0,120.0,1.0,0.0
1026,68.0,320.0,180.0,0.0,0.0
1027,68.0,0.0,180.0,1.0,0.0
1028,69.0,0.0,1020.0,1.0,0.0
1029,69.0,0.0,1020.0,0.0,0.0
1030,33.0,0.0,1020.0,5.0,0.0
1031,57.0,256.0,270.0,4.0,0.0
1032,45.0,0.0,1020.0,6.0,0.0
1033,64.0,0.0,1020.0,2.0,0.0
1034,61.0,0.0,1020.0,3.0,0.0
1035,59.0,256.0,270.0,4.0,0.0
1036,61.0,256.0,270.0,4.0,0.0
1037,59.0,256.0,270.0,4.0,0.0
1038,64.0,128.0,390.0,1.0,0.0
1039,57.0,128.0,270.0,4.0,0.0
1040,55.0,256.0,270.0,4.0,0.0
1041,69.0,0.0,2040.0,1.0,0.0
1042,54.0,256.0,270.0,4.0,0.0
1043,55.0,256.0,270.0,4.0,0.0
1044,57.0,256.0,270.0,4.0,0.0
1045,55.0,256.0,270.0,4.0,0.0
1046,73.0,128.0,390.0,0.0,0.0
1047,54.0,128.0,270.0,4.0,0.0
1048,52.0,256.0,270.0,4.0,0.0
1049,51.0,256.0,270.0,4.0,0.0
1050,78.0,256.0,2040.0,0.0,0.0
1051,54.0,256.0,270.0,4.0,0.0
1052,63.0,128.0,390.0,1.0,0.0
1053,59.0,128.0,270.0,4.0,0.0
1054,57.0,256.0,270.0,4.0,0.0
1055,55.0,128.0,270.0,4.0,0.0
1056,66.0,128.0,390.0,1.0,0.0
1057,54.0,256.0,270.0,4.0,0.0
1058,67.0,128.0,270.0,1.0,0.0
1059,52.0,128.0,390.0,4.0,0.0
1060,69.0,0.0,270.0,1.0,0.0
1061,71.0,128.0,270.0,1.0,0.0
1062,71.0,128.0,390.0,0.0,0.0
1063,55.0,0.0,390.0,4.0,0.0
1064,69.0,256.0,270.0,1.0,0.0
1065,47.0,0.0,270.0,6.0,0.0
1066,75.0,0.0,390.0,0.0,0.0
1067,59.0,0.0,390.0,3.0,0.0
1068,71.0,0.0,390.0,2.0,0.0
1069,67.0,0.0,270.0,1.0,0.0
1070,59.0,128.0,390.0,4.0,0.0
1071,35.0,128.0,270.0,5.0,0.0
1072,66.0,256.0,270.0,1.0,0.0
1073,64.0,0.0,390.0,4.0,0.0
1074,67.0,128.0,270.0,1.0,0.0
1075,67.0,0.0,1020.0,2.0,0.0
1076,40.0,256.0,1020.0,5.0,0.0
1077,59.0,0.0,1020.0,3.0,0.0
1078,52.0,0.0,1020.0,6.0,0.0
1079,76.0,128.0,390.0,0.0,0.0
1080,66.0,256.0,270.0,1.0,0.0
1081,55.0,0.0,390.0,4.0,0.0
1082,64.0,128.0,390.0,0.0,0.0
1083,64.0,128.0,270.0,1.0,0.0
1084,67.0,0.0,270.0,1.0,0.0
1085,66.0,128.0,270.0,1.0,0.0
1086,59.0,128.0,390.0,4.0,0.0
1087,69.0,256.0,270.0,1.0,0.0
1088,52.0,256.0,270.0,4.0,0.0
1089,67.0,0.0,2040.0,1.0,0.0
1090,54.0,256.0,270.0,4.0,0.0
1091,55.0,256.0,270.0,4.0,0.0
1092,54.0,256.0,270.0,4.0,0.0
1093,52.0,128.0,270.0,4.0,0.0
1094,71.0,128.0,390.0,0.0,0.0
1095,50.0,256.0,270.0,4.0,0.0
1096,76.0,0.0,2040.0,0.0,0.0
1097,49.0,256.0,270.0,4.0,0.0
1098,52.0,256.0,270.0,4.0,0.0
1099,61.0,128.0,390.0,1.0,0.0
1100,57.0,128.0,270.0,4.0,0.0
1101,55.0,256.0,270.0,4.0,0.0
1102,64.0,128.0,390.0,1.0,0.0
1103,54.0,128.0,270.0,4.0,0.0
1104,52.0,256.0,270.0,4.0,0.0
1105,66.0,128.0,270.0,1.0,0.0
1106,50.0,128.0,390.0,4.0,0.0
1107,67.0,256.0,270.0,1.0,0.0
1108,69.0,0.0,390.0,0.0,0.0
1109,54.0,128.0,390.0,4.0,0.0
1110,69.0,128.0,270.0,1.0,0.0
1111,67.0,256.0,270.0,1.0,0.0
1112,57.0,128.0,390.0,3.0,0.0
1113,73.0,0.0,390.0,0.0,0.0
1114,69.0,0.0,390.0,2.0,0.0
1115,57.0,0.0,390.0,4.0,0.0
1116,45.0,0.0,270.0,6.0,0.0
1117,66.0,128.0,270.0,1.0,0.0
1118,33.0,0.0,270.0,5.0,0.0
1119,64.0,256.0,270.0,1.0,0.0
1120,57.0,0.0,1020.0,3.0,0.0
1121,66.0,0.0,1020.0,2.0,0.0
1122,50.0,0.0,1020.0,6.0,0.0
1123,62.0,128.0,270.0,4.0,0.0
1124,38.0,256.0,1020.0,5.0,0.0
1125,66.0,0.0,390.0,1.0,0.0
1126,74.0,128.0,390.0,0.0,0.0
1127,64.0,256.0,270.0,4.0,0.0
1128,62.0,0.0,390.0,0.0,0.0
1129,62.0,128.0,390.0,1.0,0.0
1130,62.0,128.0,270.0,4.0,0.0
1131,61.0,0.0,270.0,4.0,0.0
1132,66.0,128.0,390.0,1.0,0.0
1133,59.0,128.0,270.0,4.0,0.0
1134,57.0,256.0,270.0,4.0,0.0
1135,55.0,256.0,270.0,4.0,0.0
1136,71.0,0.0,2040.0,1.0,0.0
1137,57.0,256.0,270.0,4.0,0.0
1138,59.0,256.0,270.0,4.0,0.0
1139,57.0,256.0,270.0,4.0,0.0
1140,74.0,128.0,390.0,0.0,0.0
1141,55.0,128.0,270.0,4.0,0.0
1142,54.0,256.0,270.0,4.0,0.0
1143,79.0,0.0,2040.0,0.0,0.0
1144,52.0,256.0,270.0,4.0,0.0
1145,55.0,256.0,270.0,4.0,0.0
1146,64.0,128.0,390.0,1.0,0.0
1147,61.0,128.0,270.0,4.0,0.0
1148,59.0,256.0,270.0,4.0,0.0
1149,40.0,0.0,390.0,5.0,0.0
1150,67.0,0.0,390.0,1.0,0.0
1151,64.0,0.0,390.0,2.0,0.0
1152,61.0,128.0,390.0,3.0,0.0
1153,57.0,128.0,270.0,4.0,0.0
1154,52.0,0.0,390.0,6.0,0.0
1155,55.0,256.0,270.0,4.0,0.0
1156,42.0,0.0,1530.0,5.0,0.0
1157,69.0,256.0,2040.0,1.0,0.0
1158,57.0,0.0,1530.0,3.0,0.0
1159,54.0,256.0,270.0,4.0,0.0
1160,54.0,0.0,1530.0,6.0,0.0
1161,64.0,0.0,1530.0,2.0,0.0
1162,55.0,256.0,270.0,4.0,0.0
1163,73.0,128.0,390.0,0.0,0.0
1164,57.0,128.0,270.0,4.0,0.0
1165,55.0,256.0,270.0,4.0,0.0
1166,54.0,128.0,270.0,4.0,0.0
1167,76.0,128.0,390.0,0.0,0.0
1168,52.0,256.0,270.0,4.0,0.0
1169,50.0,256.0,270.0,4.0,0.0
1170,78.0,0.0,2040.0,0.0,0.0
1171,54.0,0.0,270.0,4.0,0.0
1172,62.0,128.0,390.0,1.0,0.0
1173,59.0,128.0,270.0,4.0,0.0
1174,57.0,256.0,270.0,4.0,0.0
1175,59.0,0.0,390.0,3.0,0.0
1176,62.0,128.0,390.0,2.0,0.0
1177,55.0,128.0,270.0,4.0,0.0
1178,66.0,0.0,390.0,1.0,0.0
1179,38.0,0.0,390.0,5.0,0.0
1180,50.0,0.0,390.0,6.0,0.0
1181,54.0,256.0,270.0,4.0,0.0
1182,40.0,0.0,1530.0,5.0,0.0
1183,52.0,256.0,270.0,4.0,0.0
1184,67.0,0.0,2040.0,1.0,0.0
1185,52.0,0.0,1530.0,6.0,0.0
1186,62.0,0.0,1530.0,2.0,0.0
1187,55.0,0.0,1530.0,3.0,0.0
1188,54.0,256.0,270.0,4.0,0.0
1189,55.0,128.0,270.0,4.0,0.0
1190,71.0,128.0,390.0,0.0,0.0
1191,54.0,256.0,270.0,4.0,0.0
1192,74.0,128.0,390.0,0.0,0.0
1193,52.0,128.0,270.0,4.0,0.0
1194,50.0,256.0,270.0,4.0,0.0
1195,49.0,256.0,270.0,4.0,0.0
1196,76.0,0.0,2040.0,0.0,0.0
1197,52.0,256.0,270.0,4.0,0.0
1198,57.0,128.0,270.0,4.0,0.0
1199,61.0,128.0,390.0,1.0,0.0
1200,55.0,256.0,270.0,4.0,0.0
1201,54.0,128.0,270.0,4.0,0.0
1202,33.0,0.0,390.0,5.0,0.0
1203,57.0,0.0,390.0,3.0,0.0
1204,64.0,0.0,390.0,1.0,0.0
1205,45.0,0.0,390.0,6.0,0.0
1206,61.0,128.0,390.0,2.0,0.0
1207,52.0,256.0,270.0,4.0,0.0
1208,62.0,0.0,1530.0,2.0,0.0
1209,38.0,256.0,1530.0,5.0,0.0
1210,50.0,256.0,270.0,4.0,0.0
1211,50.0,0.0,1530.0,6.0,0.0
1212,66.0,0.0,270.0,1.0,0.0
1213,62.0,0.0,1530.0,3.0,0.0
1214,64.0,256.0,270.0,1.0,0.0
1215,49.0,0.0,270.0,4.0,0.0
1216,50.0,128.0,270.0,4.0,0.0
1217,69.0,128.0,390.0,0.0,0.0
1218,66.0,0.0,270.0,1.0,0.0
1219,52.0,256.0,270.0,4.0,0.0
1220,67.0,0.0,270.0,1.0,0.0
1221,54.0,0.0,270.0,4.0,0.0
1222,74.0,256.0,1020.0,0.0,0.0
1223,69.0,256.0,270.0,1.0,0.0
1224,55.0,0.0,270.0,4.0,0.0
1225,71.0,0.0,270.0,1.0,0.0
1226,57.0,128.0,270.0,4.0,0.0
1227,64.0,128.0,390.0,1.0,0.0
1228,56.0,0.0,270.0,4.0,0.0
1229,57.0,128.0,270.0,4.0,0.0
1230,73.0,0.0,390.0,0.0,0.0
1231,57.0,128.0,390.0,1.0,0.0
1232,52.0,256.0,270.0,4.0,0.0
1233,81.0,384.0,1020.0,1.0,0.0
1234,81.0,0.0,1020.0,0.0,0.0
1235,49.0,256.0,270.0,4.0,0.0
1236,52.0,512.0,270.0,4.0,0.0
1237,45.0,0.0,1020.0,4.0,0.0
1238,33.0,512.0,1020.0,5.0,0.0
1239,73.0,0.0,1020.0,2.0,0.0
1240,69.0,0.0,1020.0,3.0,0.0
1241,45.0,0.0,1020.0,6.0,0.0
1242,76.0,0.0,390.0,0.0,0.0
1243,76.0,128.0,390.0,1.0,0.0
1244,78.0,0.0,510.0,0.0,0.0
1245,78.0,512.0,510.0,1.0,0.0
1246,69.0,0.0,1020.0,3.0,0.0
1247,74.0,0.0,1020.0,2.0,0.0
1248,45.0,1024.0,1020.0,5.0,0.0
1249,57.0,0.0,1020.0,6.0,0.0
1250,78.0,384.0,510.0,1.0,0.0
1251,78.0,0.0,510.0,0.0,0.0
1252,57.0,0.0,1020.0,4.0,0.0
1253,76.0,0.0,390.0,1.0,0.0
1254,76.0,128.0,390.0,0.0,0.0
1255,81.0,384.0,1020.0,1.0,0.0
1256,81.0,0.0,1020.0,0.0,0.0
1257,33.0,0.0,1020.0,5.0,0.0
1258,45.0,768.0,1020.0,4.0,0.0
1259,73.0,0.0,1020.0,2.0,0.0
1260,64.0,0.0,1020.0,3.0,0.0
1261,45.0,0.0,1020.0,6.0,0.0
1262,76.0,0.0,390.0,0.0,0.0
1263,76.0,128.0,390.0,1.0,0.0
1264,78.0,0.0,1020.0,1.0,0.0
1265,78.0,0.0,1020.0,0.0,0.0
1266,57.0,256.0,270.0,4.0,0.0
1267,57.0,0.0,1020.0,6.0,0.0
1268,69.0,0.0,1020.0,2.0,0.0
1269,45.0,0.0,1020.0,5.0,0.0
1270,62.0,0.0,1020.0,3.0,0.0
1271,52.0,256.0,270.0,4.0,0.0
1272,76.0,128.0,390.0,0.0,0.0
1273,76.0,0.0,390.0,1.0,0.0
1274,54.0,128.0,270.0,4.0,0.0
1275,55.0,256.0,270.0,4.0,0.0
1276,79.0,0.0,1020.0,0.0,0.0
1277,69.0,128.0,390.0,2.0,0.0
1278,61.0,0.0,390.0,3.0,0.0
1279,69.0,0.0,390.0,1.0,0.0
1280,57.0,128.0,270.0,4.0,0.0
1281,59.0,256.0,270.0,4.0,0.0
1282,57.0,256.0,1020.0,3.0,0.0
1283,57.0,0.0,1020.0,2.0,0.0
1284,76.0,0.0,270.0,1.0,0.0
1285,61.0,256.0,270.0,4.0,0.0
1286,78.0,0.0,270.0,1.0,0.0
1287,62.0,256.0,270.0,4.0,0.0
1288,73.0,128.0,390.0,0.0,0.0
1289,79.0,0.0,270.0,1.0,0.0
1290,64.0,128.0,270.0,4.0,0.0
1291,78.0,0.0,270.0,1.0,0.0
1292,62.0,0.0,270.0,4.0,0.0
1293,61.0,0.0,270.0,4.0,0.0
1294,76.0,128.0,270.0,1.0,0.0
1295,69.0,128.0,390.0,2.0,0.0
1296,76.0,0.0,1020.0,0.0,0.0
1297,69.0,0.0,390.0,3.0,0.0
1298,59.0,0.0,270.0,4.0,0.0
1299,74.0,256.0,270.0,1.0,0.0
1300,57.0,0.0,1020.0,2.0,0.0
1301,57.0,256.0,1020.0,3.0,0.0
1302,57.0,256.0,270.0,4.0,0.0
1303,73.0,0.0,270.0,1.0,0.0
1304,74.0,256.0,270.0,1.0,0.0
1305,59.0,0.0,270.0,4.0,0.0
1306,61.0,0.0,270.0,4.0,0.0
1307,69.0,128.0,390.0,0.0,0.0
1308,76.0,128.0,270.0,1.0,0.0
1309,59.0,0.0,270.0,4.0,0.0
1310,74.0,0.0,270.0,1.0,0.0
1311,73.0,0.0,270.0,1.0,0.0
1312,69.0,128.0,390.0,2.0,0.0
1313,73.0,0.0,1020.0,0.0,0.0
1314,69.0,0.0,390.0,3.0,0.0
1315,57.0,128.0,270.0,4.0,0.0
1316,71.0,256.0,270.0,1.0,0.0
1317,55.0,0.0,270.0,4.0,0.0
1318,54.0,0.0,270.0,4.0,0.0
1319,57.0,0.0,1020.0,2.0,0.0
1320,57.0,0.0,1020.0,3.0,0.0
1321,69.0,256.0,270.0,1.0,0.0
1322,55.0,0.0,270.0,4.0,0.0
1323,71.0,256.0,270.0,1.0,0.0
1324,76.0,128.0,390.0,0.0,0.0
1325,73.0,0.0,270.0,1.0,0.0
1326,57.0,128.0,270.0,4.0,0.0
1327,55.0,0.0,270.0,4.0,0.0
1328,74.0,256.0,270.0,1.0,0.0
1329,54.0,0.0,270.0,4.0,0.0
1330,33.0,0.0,390.0,5.0,0.0
1331,73.0,128.0,390.0,2.0,0.0
1332,45.0,0.0,390.0,6.0,0.0
1333,79.0,0.0,1020.0,0.0,0.0
1334,69.0,0.0,390.0,3.0,0.0
1335,76.0,128.0,270.0,1.0,0.0
1336,73.0,0.0,270.0,1.0,0.0
1337,52.0,256.0,270.0,4.0,0.0
1338,50.0,0.0,1020.0,6.0,0.0
1339,74.0,128.0,390.0,1.0,0.0
1340,57.0,0.0,1020.0,3.0,0.0
1341,38.0,0.0,1020.0,5.0,0.0
1342,50.0,128.0,270.0,4.0,0.0
1343,57.0,256.0,270.0,4.0,0.0
1344,59.0,128.0,270.0,4.0,0.0
1345,78.0,128.0,390.0,0.0,0.0
1346,62.0,0.0,390.0,1.0,0.0
1347,61.0,0.0,270.0,4.0,0.0
1348,72.0,0.0,1020.0,1.0,0.0
1349,62.0,0.0,390.0,0.0,0.0
1350,66.0,0.0,390.0,3.0,0.0
1351,69.0,256.0,15.0,2.0,0.0
1352,62.0,128.0,270.0,4.0,0.0
1353,64.0,256.0,270.0,4.0,0.0
1354,62.0,256.0,1020.0,3.0,0.0
1355,62.0,0.0,1020.0,2.0,0.0
1356,66.0,256.0,270.0,4.0,0.0
1357,69.0,0.0,270.0,0.0,0.0
1358,67.0,0.0,270.0,4.0,0.0
1359,71.0,256.0,270.0,0.0,0.0
1360,69.0,0.0,270.0,4.0,0.0
1361,66.0,128.0,390.0,1.0,0.0
1362,72.0,128.0,270.0,0.0,0.0
1363,71.0,0.0,270.0,0.0,0.0
1364,67.0,0.0,270.0,4.0,0.0
1365,74.0,0.0,390.0,2.0,0.0
1366,69.0,0.0,270.0,0.0,0.0
1367,69.0,256.0,1020.0,1.0,0.0
1368,74.0,128.0,390.0,3.0,0.0
1369,66.0,128.0,270.0,4.0,0.0
1370,64.0,0.0,270.0,4.0,0.0
1371,67.0,256.0,270.0,0.0,0.0
1372,62.0,0.0,1020.0,3.0,0.0
1373,62.0,256.0,270.0,4.0,0.0
1374,62.0,0.0,1020.0,2.0,0.0
1375,66.0,0.0,270.0,0.0,0.0
1376,64.0,0.0,270.0,4.0,0.0
1377,67.0,0.0,270.0,0.0,0.0
1378,69.0,128.0,270.0,0.0,0.0
1379,66.0,0.0,270.0,4.0,0.0
1380,62.0,128.0,390.0,1.0,0.0
1381,64.0,256.0,270.0,4.0,0.0
1382,67.0,0.0,270.0,0.0,0.0
1383,74.0,128.0,390.0,2.0,0.0
1384,66.0,0.0,270.0,0.0,0.0
1385,74.0,0.0,390.0,3.0,0.0
1386,66.0,0.0,1020.0,1.0,0.0
1387,62.0,128.0,270.0,4.0,0.0
1388,64.0,256.0,270.0,0.0,0.0
1389,60.0,0.0,270.0,4.0,0.0
1390,62.0,256.0,1020.0,2.0,0.0
1391,62.0,0.0,1020.0,3.0,0.0
1392,62.0,256.0,270.0,0.0,0.0
1393,59.0,0.0,270.0,4.0,0.0
1394,60.0,256.0,270.0,4.0,0.0
1395,64.0,0.0,270.0,0.0,0.0
1396,69.0,128.0,390.0,1.0,0.0
1397,66.0,0.0,270.0,0.0,0.0
1398,62.0,128.0,270.0,4.0,0.0
1399,67.0,0.0,270.0,0.0,0.0
1400,60.0,0.0,270.0,4.0,0.0
1401,66.0,0.0,390.0,3.0,0.0
1402,59.0,0.0,270.0,4.0,0.0
1403,50.0,128.0,390.0,6.0,0.0
1404,38.0,0.0,390.0,5.0,0.0
1405,74.0,0.0,390.0,2.0,0.0
1406,72.0,0.0,1020.0,1.0,0.0
1407,69.0,128.0,270.0,0.0,0.0
1408,66.0,0.0,270.0,0.0,0.0
1409,57.0,256.0,270.0,4.0,0.0
1410,62.0,0.0,1020.0,3.0,0.0
1411,43.0,0.0,1020.0,5.0,0.0
1412,55.0,0.0,1020.0,6.0,0.0
1413,62.0,256.0,1020.0,2.0,0.0
1414,67.0,128.0,390.0,0.0,0.0
1415,55.0,128.0,270.0,4.0,0.0
1416,56.0,256.0,270.0,4.0,0.0
1417,59.0,128.0,270.0,4.0,0.0
1418,55.0,0.0,390.0,0.0,0.0
1419,71.0,128.0,390.0,1.0,0.0
1420,56.0,0.0,270.0,4.0,0.0
1421,55.0,256.0,270.0,4.0,0.0
1422,71.0,256.0,1020.0,0.0,0.0
1423,54.0,256.0,270.0,4.0,0.0
1424,59.0,0.0,1020.0,3.0,0.0
1425,64.0,0.0,1020.0,2.0,0.0
1426,44.0,0.0,1020.0,5.0,0.0
1427,52.0,256.0,270.0,4.0,0.0
1428,56.0,0.0,1020.0,6.0,0.0
1429,54.0,0.0,270.0,4.0,0.0
1430,64.0,128.0,390.0,0.0,0.0
1431,56.0,128.0,270.0,4.0,0.0
1432,54.0,256.0,270.0,4.0,0.0
1433,74.0,256.0,1020.0,0.0,0.0
1434,56.0,256.0,270.0,4.0,0.0
1435,52.0,256.0,270.0,4.0,0.0
1436,64.0,0.0,1020.0,2.0,0.0
1437,45.0,0.0,1020.0,5.0,0.0
1438,57.0,0.0,1020.0,3.0,0.0
1439,57.0,256.0,270.0,4.0,0.0
1440,57.0,256.0,1020.0,6.0,0.0
1441,59.0,0.0,270.0,4.0,0.0
1442,61.0,128.0,270.0,4.0,0.0
1443,73.0,128.0,390.0,0.0,0.0
1444,59.0,0.0,270.0,4.0,0.0
1445,57.0,256.0,270.0,4.0,0.0
1446,73.0,0.0,1020.0,1.0,0.0
1447,55.0,256.0,270.0,4.0,0.0
1448,58.0,0.0,1020.0,6.0,0.0
1449,66.0,0.0,1020.0,2.0,0.0
1450,46.0,256.0,1020.0,5.0,0.0
1451,61.0,0.0,1020.0,3.0,0.0
1452,54.0,256.0,270.0,4.0,0.0
1453,56.0,256.0,270.0,4.0,0.0
1454,58.0,128.0,270.0,4.0,0.0
1455,66.0,128.0,390.0,1.0,0.0
1456,56.0,0.0,270.0,4.0,0.0
1457,58.0,256.0,270.0,4.0,0.0
1458,76.0,0.0,1020.0,1.0,0.0
1459,54.0,256.0,270.0,4.0,0.0
1460,66.0,0.0,1020.0,2.0,0.0
1461,59.0,0.0,1020.0,3.0,0.0
1462,59.0,256.0,1020.0,6.0,0.0
1463,47.0,0.0,1020.0,5.0,0.0
1464,59.0,256.0,270.0,4.0,0.0
1465,58.0,256.0,270.0,4.0,0.0
1466,59.0,128.0,270.0,4.0,0.0
1467,74.0,128.0,390.0,1.0,0.0
1468,61.0,0.0,270.0,4.0,0.0
1469,62.0,256.0,270.0,4.0,0.0
1470,78.0,256.0,1020.0,0.0,0.0
1471,59.0,256.0,270.0,4.0,0.0
1472,69.0,256.0,1020.0,2.0,0.0
1473,61.0,0.0,1020.0,6.0,0.0
1474,61.0,256.0,270.0,4.0,0.0
1475,64.0,0.0,1020.0,3.0,0.0
1476,67.0,0.0,1020.0,1.0,0.0
1477,49.0,0.0,1020.0,5.0,0.0
1478,59.0,0.0,270.0,4.0,0.0
1479,76.0,128.0,390.0,0.0,0.0
1480,61.0,128.0,270.0,4.0,0.0
1481,62.0,0.0,270.0,4.0,0.0
1482,64.0,128.0,270.0,4.0,0.0
1483,79.0,256.0,1020.0,0.0,0.0
1484,64.0,128.0,390.0,1.0,0.0
1485,61.0,256.0,270.0,4.0,0.0
1486,62.0,0.0,1020.0,3.0,0.0
1487,69.0,0.0,1020.0,1.0,0.0
1488,62.0,0.0,1020.0,6.0,0.0
1489,50.0,0.0,1020.0,5.0,0.0
1490,62.0,256.0,1020.0,2.0,0.0
1491,62.0,256.0,270.0,4.0,0.0
1492,61.0,0.0,270.0,4.0,0.0
1493,78.0,128.0,390.0,0.0,0.0
1494,62.0,128.0,270.0,4.0,0.0
1495,64.0,0.0,270.0,4.0,0.0
1496,66.0,128.0,270.0,4.0,0.0
1497,81.0,256.0,1020.0,0.0,0.0
1498,66.0,128.0,390.0,1.0,0.0
1499,62.0,256.0,270.0,4.0,0.0
1500,55.0,256.0,1020.0,6.0,0.0
1501,71.0,0.0,780.0,1.0,0.0
1502,62.0,0.0,1020.0,2.0,0.0
1503,43.0,0.0,1020.0,5.0,0.0
1504,59.0,0.0,1020.0,3.0,0.0
1505,55.0,256.0,270.0,4.0,0.0
1506,54.0,0.0,270.0,4.0,0.0
1507,79.0,256.0,270.0,0.0,0.0
1508,55.0,0.0,270.0,4.0,0.0
1509,57.0,0.0,270.0,4.0,0.0
1510,69.0,0.0,270.0,1.0,0.0
1511,78.0,0.0,270.0,0.0,0.0
1512,76.0,256.0,270.0,0.0,0.0
1513,67.0,0.0,270.0,1.0,0.0
1514,59.0,0.0,270.0,4.0,0.0
1515,66.0,0.0,270.0,1.0,0.0
1516,74.0,0.0,270.0,0.0,0.0
1517,55.0,256.0,270.0,4.0,0.0
1518,64.0,128.0,270.0,1.0,0.0
1519,73.0,0.0,270.0,0.0,0.0
1520,64.0,0.0,1020.0,3.0,0.0
1521,57.0,0.0,1020.0,6.0,0.0
1522,69.0,256.0,1020.0,2.0,0.0
1523,45.0,0.0,1020.0,5.0,0.0
1524,57.0,128.0,390.0,4.0,0.0
1525,71.0,256.0,270.0,0.0,0.0
1526,62.0,0.0,270.0,1.0,0.0
1527,69.0,0.0,270.0,0.0,0.0
1528,45.0,128.0,390.0,4.0,0.0
1529,61.0,128.0,270.0,1.0,0.0
1530,67.0,0.0,270.0,0.0,0.0
1531,59.0,0.0,270.0,1.0,0.0
1532,66.0,128.0,270.0,0.0,0.0
1533,57.0,128.0,390.0,4.0,0.0
1534,57.0,0.0,270.0,1.0,0.0
1535,55.0,0.0,270.0,1.0,0.0
1536,64.0,256.0,270.0,0.0,0.0
1537,50.0,0.0,510.0,4.0,0.0
1538,54.0,128.0,390.0,1.0,0.0
1539,62.0,128.0,270.0,0.0,0.0
1540,61.0,384.0,270.0,0.0,0.0
1541,62.0,0.0,390.0,0.0,0.0
1542,54.0,128.0,390.0,4.0,0.0
1543,57.0,256.0,270.0,1.0,0.0
1544,59.0,128.0,270.0,1.0,0.0
1545,57.0,128.0,390.0,4.0,0.0
1546,61.0,256.0,270.0,1.0,0.0
1547,49.0,0.0,510.0,4.0,0.0
1548,62.0,256.0,270.0,1.0,0.0
1549,61.0,384.0,270.0,1.0,0.0
1550,54.0,128.0,390.0,4.0,0.0
1551,62.0,0.0,390.0,1.0,0.0
1552,57.0,256.0,270.0,0.0,0.0
1553,59.0,128.0,270.0,0.0,0.0
1554,57.0,128.0,390.0,4.0,0.0
1555,61.0,256.0,270.0,0.0,0.0
1556,62.0,256.0,270.0,0.0,0.0
1557,47.0,0.0,510.0,4.0,0.0
1558,61.0,384.0,270.0,0.0,0.0
1559,50.0,0.0,390.0,4.0,0.0
1560,62.0,128.0,390.0,0.0,0.0
1561,57.0,256.0,270.0,1.0,0.0
1562,59.0,128.0,270.0,1.0,0.0
1563,54.0,128.0,390.0,4.0,0.0
1564,61.0,256.0,270.0,1.0,0.0
1565,62.0,256.0,270.0,1.0,0.0
1566,45.0,384.0,510.0,4.0,0.0
1567,61.0,0.0,270.0,1.0,0.0
1568,62.0,128.0,390.0,1.0,0.0
1569,50.0,0.0,390.0,4.0,0.0
1570,59.0,256.0,270.0,0.0,0.0
1571,54.0,128.0,390.0,4.0,0.0
1572,61.0,128.0,270.0,0.0,0.0
1573,62.0,256.0,270.0,0.0,0.0
1574,43.0,0.0,510.0,4.0,0.0
1575,64.0,256.0,270.0,0.0,0.0
1576,62.0,256.0,270.0,0.0,0.0
1577,47.0,128.0,390.0,4.0,0.0
1578,64.0,128.0,270.0,0.0,0.0
1579,59.0,0.0,270.0,1.0,0.0
1580,62.0,256.0,270.0,0.0,0.0
1581,61.0,128.0,270.0,1.0,0.0
1582,52.0,128.0,390.0,4.0,0.0
1583,61.0,0.0,270.0,0.0,0.0
1584,62.0,0.0,270.0,1.0,0.0
1585,59.0,256.0,270.0,0.0,0.0
1586,64.0,128.0,270.0,1.0,0.0
1587,49.0,0.0,510.0,4.0,0.0
1588,57.0,128.0,390.0,0.0,0.0
1589,62.0,256.0,270.0,1.0,0.0
1590,52.0,128.0,390.0,4.0,0.0
1591,64.0,128.0,270.0,1.0,0.0
1592,61.0,0.0,390.0,0.0,0.0
1593,62.0,256.0,270.0,1.0,0.0
1594,45.0,0.0,390.0,4.0,0.0
1595,64.0,128.0,390.0,0.0,0.0
1596,61.0,128.0,270.0,1.0,0.0
1597,59.0,256.0,270.0,1.0,0.0
1598,66.0,256.0,270.0,0.0,0.0
1599,50.0,0.0,510.0,4.0,0.0
1600,57.0,0.0,270.0,1.0,0.0
1601,55.0,256.0,270.0,1.0,0.0
1602,64.0,0.0,270.0,0.0,0.0
1603,66.0,0.0,270.0,0.0,0.0
1604,54.0,128.0,390.0,4.0,0.0
1605,57.0,128.0,270.0,1.0,0.0
1606,59.0,256.0,270.0,1.0,0.0
1607,67.0,0.0,270.0,0.0,0.0
1608,57.0,128.0,270.0,1.0,0.0
1609,57.0,128.0,390.0,4.0,0.0
1610,66.0,0.0,270.0,0.0,0.0
1611,64.0,0.0,270.0,0.0,0.0
1612,55.0,256.0,270.0,1.0,0.0
1613,62.0,256.0,270.0,0.0,0.0
1614,62.0,0.0,510.0,4.0,0.0
1615,54.0,256.0,1020.0,1.0,0.0
1616,66.0,256.0,270.0,0.0,0.0
1617,61.0,128.0,390.0,4.0,0.0
1618,69.0,128.0,270.0,0.0,0.0
1619,74.0,0.0,270.0,0.0,0.0
1620,62.0,128.0,390.0,4.0,0.0
1621,78.0,128.0,270.0,0.0,0.0
1622,81.0,0.0,900.0,1.0,0.0
1623,79.0,384.0,270.0,0.0,0.0
1624,81.0,512.0,390.0,0.0,0.0
1625,74.0,0.0,1020.0,2.0,0.0
1626,54.0,0.0,1020.0,4.0,0.0
1627,42.0,0.0,1020.0,5.0,0.0
1628,69.0,1024.0,1020.0,3.0,0.0
1629,54.0,0.0,1020.0,6.0,0.0
1630,74.0,0.0,390.0,1.0,0.0
1631,74.0,128.0,390.0,0.0,0.0
1632,78.0,384.0,1020.0,1.0,0.0
1633,78.0,0.0,1020.0,0.0,0.0
1634,69.0,0.0,1020.0,3.0,0.0
1635,74.0,1024.0,1020.0,2.0,0.0
1636,59.0,0.0,1020.0,6.0,0.0
1637,59.0,0.0,1020.0,4.0,0.0
1638,47.0,0.0,1020.0,5.0,0.0
1639,71.0,128.0,390.0,0.0,0.0
1640,71.0,0.0,390.0,1.0,0.0
1641,79.0,384.0,1020.0,1.0,0.0
1642,79.0,0.0,1020.0,0.0,0.0
1643,40.0,1024.0,1020.0,5.0,0.0
1644,52.0,0.0,1020.0,4.0,0.0
1645,74.0,0.0,1020.0,2.0,0.0
1646,52.0,0.0,1020.0,6.0,0.0
1647,67.0,0.0,1020.0,3.0,0.0
1648,73.0,0.0,390.0,1.0,0.0
1649,73.0,128.0,390.0,0.0,0.0
1650,76.0,384.0,1020.0,0.0,0.0
1651,76.0,0.0,1020.0,1.0,0.0
1652,73.0,0.0,1020.0,2.0,0.0
1653,45.0,0.0,1020.0,5.0,0.0
1654,69.0,768.0,1020.0,3.0,0.0
1655,57.0,0.0,1020.0,4.0,0.0
1656,57.0,0.0,1020.0,6.0,0.0
1657,69.0,0.0,390.0,1.0,0.0
1658,69.0,128.0,390.0,0.0,0.0
1659,78.0,256.0,780.0,0.0,0.0
1660,78.0,256.0,1020.0,1.0,0.0
1661,50.0,0.0,1020.0,4.0,0.0
1662,74.0,256.0,1020.0,2.0,0.0
1663,50.0,0.0,1020.0,6.0,0.0
1664,38.0,0.0,1020.0,5.0,0.0
1665,69.0,0.0,1020.0,3.0,0.0
1666,74.0,0.0,270.0,0.0,0.0
1667,73.0,128.0,270.0,0.0,0.0
1668,69.0,128.0,390.0,1.0,0.0
1669,71.0,0.0,270.0,0.0,0.0
1670,74.0,0.0,1020.0,1.0,0.0
1671,69.0,128.0,270.0,0.0,0.0
1672,62.0,128.0,390.0,4.0,0.0
1673,67.0,256.0,270.0,0.0,0.0
1674,66.0,256.0,270.0,0.0,0.0
1675,50.0,256.0,1020.0,4.0,0.0
1676,71.0,256.0,270.0,0.0,0.0
1677,69.0,128.0,270.0,0.0,0.0
1678,66.0,128.0,390.0,1.0,0.0
1679,67.0,0.0,270.0,0.0,0.0
1680,69.0,0.0,1020.0,1.0,0.0
1681,66.0,128.0,270.0,0.0,0.0
1682,62.0,128.0,390.0,4.0,0.0
1683,64.0,256.0,270.0,0.0,0.0
1684,50.0,0.0,1020.0,4.0,0.0
1685,62.0,256.0,270.0,0.0,0.0
1686,57.0,256.0,270.0,0.0,0.0
1687,62.0,128.0,390.0,1.0,0.0
1688,59.0,128.0,270.0,0.0,0.0
1689,61.0,256.0,270.0,0.0,0.0
1690,66.0,0.0,390.0,1.0,0.0
1691,62.0,128.0,270.0,0.0,0.0
1692,62.0,128.0,390.0,4.0,0.0
1693,64.0,256.0,270.0,0.0,0.0
1694,50.0,256.0,1020.0,4.0,0.0
1695,69.0,128.0,390.0,1.0,0.0
1696,66.0,128.0,270.0,0.0,0.0
1697,64.0,256.0,270.0,0.0,0.0
1698,62.0,128.0,270.0,0.0,0.0
1699,66.0,128.0,390.0,1.0,0.0
1700,64.0,0.0,270.0,0.0,0.0
1701,66.0,128.0,270.0,0.0,0.0
1702,62.0,128.0,390.0,4.0,0.0
1703,69.0,0.0,390.0,1.0,0.0
1704,67.0,384.0,270.0,0.0,0.0
1705,66.0,1024.0,1020.0,2.0,0.0
1706,69.0,512.0,390.0,0.0,0.0
1707,38.0,0.0,1020.0,5.0,0.0
1708,50.0,0.0,1020.0,6.0,0.0
1709,50.0,0.0,1020.0,4.0,0.0
1710,62.0,0.0,1020.0,3.0,0.0
1711,74.0,0.0,390.0,1.0,0.0
1712,69.0,128.0,390.0,1.0,0.0
1713,62.0,0.0,390.0,0.0,0.0
1714,71.0,256.0,1020.0,0.0,0.0
1715,71.0,0.0,1020.0,1.0,0.0
1716,62.0,0.0,1020.0,3.0,0.0
1717,62.0,0.0,1020.0,4.0,0.0
1718,50.0,0.0,1020.0,5.0,0.0
1719,62.0,0.0,1020.0,6.0,0.0
1720,67.0,0.0,1020.0,2.0,0.0
1721,69.0,128.0,390.0,0.0,0.0
1722,69.0,128.0,270.0,1.0,0.0
1723,67.0,256.0,270.0,1.0,0.0
1724,66.0,256.0,270.0,1.0,0.0
1725,74.0,0.0,1020.0,0.0,0.0
1726,64.0,256.0,270.0,1.0,0.0
1727,50.0,256.0,1020.0,4.0,0.0
1728,66.0,256.0,270.0,1.0,0.0
1729,38.0,0.0,1020.0,5.0,0.0
1730,50.0,0.0,1020.0,6.0,0.0
1731,62.0,0.0,1020.0,3.0,0.0
1732,69.0,0.0,1020.0,2.0,0.0
1733,67.0,256.0,270.0,1.0,0.0
1734,69.0,128.0,390.0,0.0,0.0
1735,69.0,128.0,270.0,1.0,0.0
1736,67.0,0.0,270.0,1.0,0.0
1737,66.0,256.0,270.0,1.0,0.0
1738,71.0,256.0,1020.0,0.0,0.0
1739,64.0,256.0,270.0,1.0,0.0
1740,62.0,256.0,270.0,1.0,0.0
1741,62.0,256.0,1020.0,4.0,0.0
1742,62.0,0.0,1020.0,6.0,0.0
1743,50.0,0.0,1020.0,5.0,0.0
1744,64.0,0.0,270.0,1.0,0.0
1745,66.0,128.0,270.0,1.0,0.0
1746,69.0,128.0,390.0,0.0,0.0
1747,64.0,0.0,270.0,1.0,0.0
1748,62.0,128.0,270.0,1.0,0.0
1749,74.0,0.0,1020.0,0.0,0.0
1750,50.0,128.0,390.0,4.0,0.0
1751,61.0,256.0,270.0,1.0,0.0
1752,55.0,256.0,1020.0,4.0,0.0
1753,59.0,256.0,270.0,1.0,0.0
1754,61.0,256.0,270.0,1.0,0.0
1755,71.0,128.0,390.0,0.0,0.0
1756,62.0,128.0,270.0,1.0,0.0
1757,66.0,0.0,270.0,1.0,0.0
1758,64.0,128.0,270.0,1.0,0.0
1759,52.0,128.0,390.0,4.0,0.0
1760,79.0,256.0,1020.0,0.0,0.0
1761,62.0,256.0,270.0,1.0,0.0
1762,61.0,256.0,270.0,1.0,0.0
1763,57.0,256.0,1020.0,4.0,0.0
1764,62.0,0.0,270.0,1.0,0.0
1765,73.0,128.0,390.0,0.0,0.0
1766,64.0,128.0,270.0,1.0,0.0
1767,67.0,0.0,270.0,1.0,0.0
1768,61.0,128.0,390.0,4.0,0.0
1769,66.0,128.0,270.0,1.0,0.0
1770,81.0,0.0,510.0,0.0,0.0
1771,64.0,256.0,270.0,1.0,0.0
1772,78.0,0.0,390.0,0.0,0.0
1773,62.0,128.0,270.0,1.0,0.0
1774,62.0,128.0,390.0,4.0,0.0
1775,61.0,256.0,270.0,1.0,0.0
1776,54.0,128.0,390.0,4.0,0.0
1777,62.0,128.0,270.0,1.0,0.0
1778,74.0,0.0,390.0,0.0,0.0
1779,66.0,256.0,270.0,1.0,0.0
1780,57.0,128.0,390.0,4.0,0.0
1781,73.0,0.0,390.0,0.0,0.0
1782,64.0,128.0,270.0,1.0,0.0
1783,67.0,256.0,270.0,1.0,0.0
1784,50.0,0.0,1020.0,4.0,0.0
1785,66.0,0.0,270.0,1.0,0.0
1786,74.0,256.0,270.0,0.0,0.0
1787,69.0,0.0,270.0,1.0,0.0
1788,69.0,256.0,270.0,0.0,0.0
1789,66.0,0.0,270.0,1.0,0.0
1790,66.0,256.0,270.0,0.0,0.0
1791,62.0,256.0,270.0,1.0,0.0
1792,62.0,0.0,270.0,0.0,0.0
1793,66.0,0.0,270.0,1.0,0.0
1794,66.0,256.0,270.0,0.0,0.0
1795,69.0,0.0,270.0,1.0,0.0
1796,69.0,512.0,270.0,0.0,0.0
1797,66.0,0.0,1020.0,3.0,0.0
1798,62.0,0.0,1020.0,6.0,0.0
1799,74.0,0.0,510.0,1.0,0.0
1800,74.0,384.0,510.0,0.0,0.0
1801,50.0,0.0,1020.0,5.0,0.0
1802,62.0,0.0,1020.0,4.0,0.0
1803,69.0,384.0,1020.0,2.0,0.0
1804,73.0,0.0,390.0,0.0,0.0
1805,73.0,128.0,390.0,1.0,0.0
1806,74.0,0.0,390.0,1.0,0.0
1807,74.0,640.0,390.0,0.0,0.0
1808,61.0,0.0,1020.0,6.0,0.0
1809,62.0,384.0,1020.0,3.0,0.0
1810,61.0,0.0,1020.0,4.0,0.0
1811,66.0,0.0,510.0,1.0,0.0
1812,69.0,0.0,1020.0,2.0,0.0
1813,66.0,384.0,510.0,0.0,0.0
1814,49.0,0.0,1020.0,5.0,0.0
1815,69.0,0.0,390.0,1.0,0.0
1816,69.0,128.0,390.0,0.0,0.0
1817,74.0,0.0,390.0,0.0,0.0
1818,74.0,640.0,390.0,1.0,0.0
1819,74.0,0.0,510.0,1.0,0.0
1820,59.0,0.0,1020.0,4.0,0.0
1821,71.0,0.0,1020.0,2.0,0.0
1822,47.0,0.0,1020.0,5.0,0.0
1823,74.0,384.0,510.0,0.0,0.0
1824,66.0,384.0,1020.0,3.0,0.0
1825,59.0,0.0,1020.0,6.0,0.0
1826,73.0,128.0,390.0,1.0,0.0
1827,73.0,0.0,390.0,0.0,0.0
1828,74.0,0.0,390.0,1.0,0.0
1829,74.0,640.0,390.0,0.0,0.0
1830,57.0,0.0,1020.0,4.0,0.0
1831,74.0,0.0,1020.0,2.0,0.0
1832,57.0,0.0,1020.0,6.0,0.0
1833,66.0,0.0,510.0,0.0,0.0
1834,66.0,384.0,510.0,1.0,0.0
1835,45.0,384.0,1020.0,5.0,0.0
1836,69.0,0.0,1020.0,3.0,0.0
1837,69.0,128.0,390.0,0.0,0.0
1838,69.0,0.0,390.0,1.0,0.0
1839,74.0,640.0,390.0,0.0,0.0
1840,74.0,0.0,390.0,1.0,0.0
1841,71.0,0.0,1020.0,3.0,0.0
1842,55.0,384.0,1020.0,6.0,0.0
1843,43.0,0.0,1020.0,5.0,0.0
1844,76.0,0.0,510.0,0.0,0.0
1845,55.0,0.0,1020.0,4.0,0.0
1846,74.0,0.0,1020.0,2.0,0.0
1847,76.0,384.0,510.0,1.0,0.0
1848,74.0,128.0,390.0,0.0,0.0
1849,74.0,0.0,390.0,1.0,0.0
1850,76.0,0.0,390.0,0.0,0.0
1851,76.0,640.0,390.0,1.0,0.0
1852,45.0,0.0,1020.0,5.0,0.0
1853,69.0,0.0,1020.0,3.0,0.0
1854,73.0,0.0,1020.0,2.0,0.0
1855,69.0,384.0,510.0,0.0,0.0
1856,57.0,0.0,1020.0,4.0,0.0
1857,69.0,0.0,510.0,1.0,0.0
1858,57.0,384.0,1020.0,6.0,0.0
1859,73.0,128.0,390.0,1.0,0.0
1860,73.0,0.0,390.0,0.0,0.0
1861,76.0,640.0,390.0,1.0,0.0
1862,76.0,0.0,390.0,0.0,0.0
1863,69.0,0.0,510.0,3.0,0.0
1864,50.0,384.0,1020.0,6.0,0.0
1865,50.0,0.0,1020.0,4.0,0.0
1866,38.0,0.0,1020.0,5.0,0.0
1867,78.0,0.0,510.0,0.0,0.0
1868,74.0,0.0,510.0,2.0,0.0
1869,78.0,384.0,510.0,1.0,0.0
1870,76.0,0.0,390.0,0.0,0.0
1871,67.0,128.0,390.0,3.0,0.0
1872,76.0,0.0,390.0,1.0,0.0
1873,73.0,0.0,390.0,2.0,0.0
1874,78.0,0.0,390.0,0.0,0.0
1875,74.0,0.0,390.0,2.0,0.0
1876,69.0,0.0,390.0,3.0,0.0
1877,57.0,0.0,390.0,4.0,0.0
1878,78.0,0.0,390.0,1.0,0.0
1879,45.0,0.0,390.0,5.0,0.0
1880,57.0,640.0,390.0,6.0,0.0
1881,62.0,384.0,510.0,6.0,0.0
1882,66.0,0.0,510.0,3.0,0.0
1883,74.0,0.0,1020.0,1.0,0.0
1884,50.0,0.0,510.0,5.0,0.0
1885,62.0,0.0,510.0,4.0,0.0
1886,74.0,384.0,1020.0,0.0,0.0
1887,61.0,0.0,390.0,4.0,0.0
1888,49.0,0.0,390.0,5.0,0.0
1889,61.0,0.0,390.0,6.0,0.0
1890,64.0,128.0,390.0,3.0,0.0
1891,62.0,640.0,390.0,4.0,0.0
1892,69.0,0.0,15.0,2.0,0.0
1893,66.0,0.0,390.0,3.0,0.0
1894,78.0,0.0,1020.0,1.0,0.0
1895,50.0,0.0,390.0,5.0,0.0
1896,62.0,0.0,390.0,6.0,0.0
1897,78.0,384.0,1020.0,0.0,0.0
1898,44.0,1024.0,1020.0,5.0,0.0
1899,56.0,0.0,1020.0,6.0,0.0
1900,71.0,0.0,1020.0,2.0,0.0
1901,56.0,0.0,1020.0,4.0,0.0
1902,59.0,0.0,1020.0,3.0,0.0
1903,71.0,128.0,390.0,1.0,0.0
1904,71.0,0.0,390.0,0.0,0.0
1905,74.0,0.0,1020.0,1.0,0.0
1906,74.0,384.0,1020.0,0.0,0.0
1907,52.0,1024.0,1020.0,6.0,0.0
1908,68.0,0.0,1020.0,3.0,0.0
1909,71.0,0.0,1020.0,2.0,0.0
1910,52.0,0.0,1020.0,4.0,0.0
1911,40.0,0.0,1020.0,5.0,0.0
1912,68.0,0.0,390.0,1.0,0.0
1913,68.0,128.0,390.0,0.0,0.0
1914,76.0,0.0,1020.0,1.0,0.0
1915,76.0,384.0,1020.0,0.0,0.0
1916,54.0,0.0,1020.0,4.0,0.0
1917,69.0,0.0,1020.0,2.0,0.0
1918,42.0,1024.0,1020.0,5.0,0.0
1919,61.0,0.0,1020.0,3.0,0.0
1920,54.0,0.0,1020.0,6.0,0.0
1921,69.0,0.0,390.0,1.0,0.0
1922,69.0,128.0,390.0,0.0,0.0
1923,73.0,384.0,1020.0,1.0,0.0
1924,73.0,0.0,1020.0,0.0,0.0
1925,66.0,0.0,1020.0,3.0,0.0
1926,69.0,1024.0,1020.0,2.0,0.0
1927,50.0,0.0,1020.0,4.0,0.0
1928,50.0,0.0,1020.0,6.0,0.0
1929,38.0,0.0,1020.0,5.0,0.0
1930,66.0,0.0,390.0,0.0,0.0
1931,66.0,128.0,390.0,1.0,0.0
1932,74.0,0.0,1020.0,0.0,0.0
1933,74.0,384.0,1020.0,1.0,0.0
1934,52.0,0.0,1020.0,4.0,0.0
1935,40.0,0.0,1020.0,5.0,0.0
1936,68.0,384.0,1020.0,2.0,0.0
1937,59.0,0.0,1020.0,3.0,0.0
1938,52.0,0.0,1020.0,6.0,0.0
1939,68.0,128.0,390.0,0.0,0.0
1940,68.0,0.0,390.0,1.0,0.0
1941,56.0,640.0,390.0,3.0,0.0
1942,38.0,0.0,390.0,5.0,0.0
1943,71.0,0.0,1020.0,1.0,0.0
1944,50.0,0.0,390.0,6.0,0.0
1945,64.0,0.0,390.0,2.0,0.0
1946,71.0,384.0,1020.0,0.0,0.0
1947,50.0,0.0,390.0,4.0,0.0
1948,49.0,0.0,1020.0,6.0,0.0
1949,37.0,0.0,1020.0,5.0,0.0
1950,61.0,384.0,1020.0,3.0,0.0
1951,64.0,0.0,1020.0,2.0,0.0
1952,49.0,0.0,1020.0,4.0,0.0
1953,64.0,128.0,390.0,1.0,0.0
1954,64.0,0.0,390.0,0.0,0.0
1955,68.0,0.0,390.0,2.0,0.0
1956,35.0,0.0,390.0,5.0,0.0
1957,74.0,0.0,390.0,1.0,0.0
1958,47.0,0.0,390.0,6.0,0.0
1959,47.0,0.0,390.0,4.0,0.0
1960,62.0,0.0,390.0,3.0,0.0
1961,74.0,640.0,390.0,0.0,0.0
1962,64.0,0.0,510.0,3.0,0.0
1963,45.0,0.0,1020.0,6.0,0.0
1964,33.0,384.0,1020.0,5.0,0.0
1965,69.0,0.0,510.0,2.0,0.0
1966,45.0,0.0,1020.0,4.0,0.0
1967,73.0,384.0,510.0,1.0,0.0
1968,73.0,0.0,510.0,0.0,0.0
1969,68.0,0.0,390.0,2.0,0.0
1970,71.0,0.0,390.0,0.0,0.0
1971,71.0,128.0,390.0,1.0,0.0
1972,62.0,0.0,390.0,3.0,0.0
1973,40.0,0.0,390.0,5.0,0.0
1974,52.0,0.0,390.0,6.0,0.0
1975,73.0,0.0,390.0,0.0,0.0
1976,52.0,0.0,390.0,4.0,0.0
1977,73.0,0.0,390.0,1.0,0.0
1978,69.0,640.0,390.0,2.0,0.0
1979,64.0,0.0,390.0,3.0,0.0
1980,64.0,384.0,1020.0,2.0,0.0
1981,45.0,0.0,510.0,5.0,0.0
1982,57.0,0.0,510.0,4.0,0.0
1983,69.0,0.0,510.0,0.0,0.0
1984,57.0,0.0,510.0,6.0,0.0
1985,61.0,0.0,510.0,3.0,0.0
1986,69.0,384.0,510.0,1.0,0.0
1987,55.0,0.0,390.0,4.0,0.0
1988,43.0,128.0,390.0,5.0,0.0
1989,55.0,0.0,390.0,6.0,0.0
1990,73.0,0.0,390.0,0.0,0.0
1991,59.0,0.0,390.0,3.0,0.0
1992,73.0,0.0,390.0,1.0,0.0
1993,57.0,0.0,390.0,6.0,0.0
1994,76.0,512.0,390.0,0.0,0.0
1995,57.0,0.0,390.0,4.0,0.0
1996,61.0,0.0,390.0,3.0,0.0
1997,69.0,0.0,390.0,2.0,0.0
1998,45.0,0.0,390.0,5.0,0.0
1999,76.0,0.0,390.0,1.0,0.0
2000,81.0,0.0,390.0,1.0,0.0
2001,69.0,1024.0,1020.0,2.0,0.0
2002,54.0,0.0,1020.0,4.0,0.0
2003,62.0,0.0,1020.0,3.0,0.0
2004,81.0,512.0,390.0,0.0,0.0
2005,54.0,0.0,1020.0,6.0,0.0
2006,42.0,0.0,1020.0,5.0,0.0
2007,74.0,0.0,390.0,0.0,0.0
2008,74.0,128.0,390.0,1.0,0.0
2009,78.0,0.0,1020.0,1.0,0.0
2010,78.0,384.0,1020.0,0.0,0.0
2011,47.0,1024.0,1020.0,5.0,0.0
2012,69.0,0.0,1020.0,2.0,0.0
2013,62.0,0.0,1020.0,3.0,0.0
2014,59.0,0.0,1020.0,6.0,0.0
2015,59.0,0.0,1020.0,4.0,0.0
2016,71.0,128.0,390.0,1.0,0.0
2017,71.0,0.0,390.0,0.0,0.0
2018,79.0,0.0,1020.0,1.0,0.0
2019,79.0,384.0,1020.0,0.0,0.0
2020,67.0,0.0,1020.0,2.0,0.0
2021,40.0,0.0,1020.0,5.0,0.0
2022,52.0,0.0,1020.0,4.0,0.0
2023,62.0,0.0,1020.0,3.0,0.0
2024,52.0,1024.0,1020.0,6.0,0.0
2025,73.0,0.0,390.0,0.0,0.0
2026,73.0,128.0,390.0,1.0,0.0
2027,76.0,384.0,1020.0,1.0,0.0
2028,76.0,0.0,1020.0,0.0,0.0
2029,61.0,0.0,1020.0,3.0,0.0
2030,69.0,0.0,1020.0,2.0,0.0
2031,45.0,0.0,1020.0,5.0,0.0
2032,57.0,1024.0,1020.0,6.0,0.0
2033,57.0,0.0,1020.0,4.0,0.0
2034,69.0,128.0,390.0,1.0,0.0
2035,69.0,0.0,390.0,0.0,0.0
2036,78.0,0.0,1020.0,0.0,0.0
2037,78.0,0.0,1020.0,1.0,0.0
2038,50.0,0.0,1020.0,6.0,0.0
2039,38.0,0.0,1020.0,5.0,0.0
2040,62.0,0.0,1020.0,3.0,0.0
2041,50.0,384.0,1020.0,4.0,0.0
2042,69.0,384.0,510.0,2.0,0.0
2043,69.0,128.0,390.0,0.0,0.0
2044,66.0,0.0,390.0,2.0,0.0
2045,69.0,0.0,390.0,1.0,0.0
2046,50.0,0.0,390.0,5.0,0.0
2047,66.0,0.0,390.0,3.0,0.0
2048,62.0,640.0,390.0,4.0,0.0
2049,69.0,0.0,390.0,2.0,0.0
2050,74.0,384.0,1020.0,1.0,0.0
2051,62.0,0.0,390.0,6.0,0.0
2052,74.0,0.0,1020.0,0.0,0.0
2053,57.0,0.0,1020.0,3.0,0.0
2054,50.0,0.0,1020.0,4.0,0.0
2055,50.0,0.0,1020.0,6.0,0.0
2056,38.0,384.0,1020.0,5.0,0.0
2057,66.0,0.0,510.0,2.0,0.0
2058,62.0,0.0,390.0,2.0,0.0
2059,66.0,0.0,390.0,0.0,0.0
2060,66.0,128.0,390.0,1.0,0.0
2061,62.0,0.0,390.0,6.0,0.0
2062,66.0,640.0,390.0,2.0,0.0
2063,50.0,0.0,390.0,5.0,0.0
2064,69.0,0.0,1020.0,0.0,0.0
2065,62.0,0.0,390.0,4.0,0.0
2066,69.0,0.0,1020.0,1.0,0.0
2067,62.0,0.0,390.0,3.0,0.0
2068,38.0,384.0,1020.0,5.0,0.0
2069,50.0,0.0,1020.0,6.0,0.0
2070,50.0,0.0,1020.0,4.0,0.0
2071,62.0,0.0,510.0,2.0,0.0
2072,54.0,384.0,510.0,3.0,0.0
2073,62.0,128.0,390.0,1.0,0.0
2074,62.0,0.0,390.0,0.0,0.0
2075,57.0,0.0,390.0,3.0,0.0
2076,66.0,0.0,390.0,2.0,0.0
2077,62.0,512.0,390.0,6.0,0.0
2078,66.0,0.0,390.0,1.0,0.0
2079,50.0,0.0,390.0,5.0,0.0
2080,62.0,0.0,390.0,3.0,0.0
2081,62.0,0.0,390.0,4.0,0.0
2082,66.0,0.0,390.0,0.0,0.0
2083,69.0,0.0,390.0,2.0,0.0
2084,38.0,384.0,1020.0,5.0,0.0
2085,66.0,0.0,390.0,3.0,0.0
2086,74.0,0.0,390.0,2.0,0.0
2087,50.0,0.0,1020.0,4.0,0.0
2088,50.0,0.0,1020.0,6.0,0.0
2089,69.0,0.0,390.0,0.0,0.0
2090,69.0,512.0,390.0,1.0,0.0
2091,62.0,0.0,390.0,3.0,0.0
2092,66.0,0.0,390.0,0.0,0.0
2093,66.0,0.0,390.0,1.0,0.0
2094,69.0,128.0,390.0,2.0,0.0
2095,62.0,0.0,390.0,4.0,0.0
2096,50.0,0.0,390.0,5.0,0.0
2097,66.0,0.0,390.0,3.0,0.0
2098,62.0,512.0,390.0,6.0,0.0
2099,69.0,0.0,390.0,0.0,0.0
2100,69.0,0.0,390.0,1.0,0.0
2101,74.0,0.0,390.0,2.0,0.0
2102,69.0,0.0,1020.0,3.0,0.0
2103,74.0,0.0,390.0,1.0,0.0
2104,50.0,0.0,1020.0,4.0,0.0
2105,74.0,512.0,390.0,0.0,0.0
2106,66.0,0.0,1020.0,2.0,0.0
2107,38.0,1024.0,1020.0,5.0,0.0
2108,50.0,0.0,1020.0,6.0,0.0
2109,69.0,128.0,390.0,1.0,0.0
2110,69.0,0.0,390.0,0.0,0.0
2111,71.0,0.0,1020.0,1.0,0.0
2112,71.0,384.0,1020.0,0.0,0.0
2113,62.0,0.0,1020.0,3.0,0.0
2114,62.0,0.0,1020.0,4.0,0.0
2115,67.0,1024.0,1020.0,2.0,0.0
2116,50.0,0.0,1020.0,5.0,0.0
2117,62.0,0.0,1020.0,6.0,0.0
2118,69.0,128.0,390.0,1.0,0.0
2119,69.0,0.0,390.0,0.0,0.0
2120,74.0,0.0,1020.0,1.0,0.0
2121,74.0,384.0,1020.0,0.0,0.0
2122,57.0,0.0,1020.0,3.0,0.0
2123,50.0,1024.0,1020.0,6.0,0.0
2124,38.0,0.0,1020.0,5.0,0.0
2125,50.0,0.0,1020.0,4.0,0.0
2126,66.0,0.0,1020.0,2.0,0.0
2127,69.0,128.0,390.0,1.0,0.0
2128,69.0,0.0,390.0,0.0,0.0
2129,71.0,384.0,1020.0,1.0,0.0
2130,71.0,0.0,1020.0,0.0,0.0
2131,62.0,0.0,1020.0,4.0,0.0
2132,62.0,0.0,1020.0,3.0,0.0
2133,62.0,0.0,1020.0,6.0,0.0
2134,67.0,0.0,1020.0,2.0,0.0
2135,50.0,384.0,1020.0,5.0,0.0
2136,69.0,0.0,390.0,1.0,0.0
2137,69.0,128.0,390.0,0.0,0.0
2138,66.0,640.0,390.0,2.0,0.0
2139,57.0,0.0,390.0,3.0,0.0
2140,74.0,0.0,1020.0,1.0,0.0
2141,50.0,0.0,390.0,4.0,0.0
2142,50.0,0.0,390.0,6.0,0.0
2143,38.0,0.0,390.0,5.0,0.0
2144,74.0,384.0,1020.0,0.0,0.0
2145,43.0,384.0,1020.0,5.0,0.0
2146,67.0,0.0,1020.0,2.0,0.0
2147,55.0,0.0,1020.0,4.0,0.0
2148,59.0,0.0,1020.0,3.0,0.0
2149,55.0,0.0,1020.0,6.0,0.0
2150,71.0,128.0,390.0,1.0,0.0
2151,71.0,0.0,390.0,0.0,0.0
2152,64.0,640.0,390.0,3.0,0.0
2153,71.0,0.0,390.0,2.0,0.0
2154,52.0,0.0,390.0,6.0,0.0
2155,79.0,384.0,1020.0,0.0,0.0
2156,40.0,0.0,390.0,5.0,0.0
2157,52.0,0.0,390.0,4.0,0.0
2158,79.0,0.0,1020.0,1.0,0.0
2159,61.0,0.0,1020.0,3.0,0.0
2160,45.0,384.0,1020.0,5.0,0.0
2161,57.0,0.0,1020.0,6.0,0.0
2162,57.0,0.0,1020.0,4.0,0.0
2163,69.0,0.0,1020.0,2.0,0.0
2164,73.0,128.0,390.0,1.0,0.0
2165,73.0,0.0,390.0,0.0,0.0
2166,81.0,0.0,510.0,0.0,0.0
2167,57.0,0.0,390.0,3.0,0.0
2168,49.0,0.0,390.0,6.0,0.0
2169,49.0,0.0,390.0,4.0,0.0
2170,37.0,0.0,390.0,5.0,0.0
2171,76.0,128.0,390.0,2.0,0.0
2172,81.0,384.0,510.0,1.0,0.0
2173,38.0,0.0,390.0,5.0,0.0
2174,78.0,0.0,390.0,0.0,0.0
2175,50.0,0.0,390.0,4.0,0.0
2176,69.0,0.0,390.0,3.0,0.0
2177,78.0,0.0,390.0,1.0,0.0
2178,74.0,512.0,390.0,2.0,0.0
2179,50.0,0.0,390.0,6.0,0.0
2180,69.0,0.0,390.0,2.0,0.0
2181,54.0,0.0,390.0,4.0,0.0
2182,74.0,0.0,390.0,1.0,0.0
2183,74.0,0.0,390.0,0.0,0.0
2184,42.0,256.0,390.0,6.0,0.0
2185,66.0,0.0,390.0,3.0,0.0
2186,30.0,0.0,390.0,5.0,0.0
2187,33.0,0.0,390.0,5.0,0.0
2188,64.0,0.0,390.0,3.0,0.0
2189,45.0,0.0,390.0,6.0,0.0
2190,73.0,0.0,120.0,1.0,0.0
2191,73.0,128.0,120.0,0.0,0.0
2192,57.0,64.0,390.0,4.0,0.0
2193,69.0,0.0,390.0,2.0,0.0
2194,71.0,0.0,120.0,1.0,0.0
2195,71.0,128.0,120.0,0.0,0.0
2196,73.0,0.0,180.0,0.0,0.0
2197,73.0,832.0,180.0,1.0,0.0
2198,38.0,0.0,1020.0,6.0,0.0
2199,66.0,0.0,1020.0,3.0,0.0
2200,26.0,0.0,1020.0,5.0,0.0
2201,69.0,0.0,1020.0,2.0,0.0
2202,50.0,0.0,1020.0,4.0,0.0
2203,74.0,0.0,1020.0,1.0,0.0
2204,74.0,256.0,780.0,0.0,0.0
2205,78.0,256.0,270.0,0.0,0.0
2206,76.0,256.0,270.0,0.0,0.0
2207,78.0,256.0,270.0,0.0,0.0
2208,54.0,0.0,1020.0,4.0,0.0
2209,42.0,0.0,1020.0,6.0,0.0
2210,74.0,256.0,270.0,0.0,0.0
2211,30.0,0.0,1020.0,5.0,0.0
2212,78.0,256.0,270.0,0.0,0.0
2213,73.0,256.0,270.0,0.0,0.0
2214,78.0,256.0,270.0,0.0,0.0
2215,71.0,128.0,270.0,0.0,0.0
2216,54.0,0.0,390.0,6.0,0.0
2217,42.0,0.0,390.0,5.0,0.0
2218,66.0,128.0,390.0,4.0,0.0
2219,78.0,256.0,270.0,0.0,0.0
2220,70.0,256.0,270.0,0.0,0.0
2221,42.0,0.0,1020.0,6.0,0.0
2222,54.0,0.0,1020.0,4.0,0.0
2223,30.0,256.0,1020.0,5.0,0.0
2224,78.0,256.0,270.0,0.0,0.0
2225,68.0,256.0,270.0,0.0,0.0
2226,66.0,0.0,270.0,1.0,0.0
2227,78.0,0.0,270.0,0.0,0.0
2228,76.0,0.0,270.0,1.0,0.0
2229,42.0,128.0,390.0,5.0,0.0
2230,70.0,128.0,270.0,0.0,0.0
2231,66.0,0.0,390.0,4.0,0.0
2232,54.0,0.0,390.0,6.0,0.0
2233,78.0,256.0,270.0,0.0,0.0
2234,66.0,0.0,270.0,1.0,0.0
2235,30.0,0.0,1020.0,5.0,0.0
2236,42.0,0.0,1020.0,6.0,0.0
2237,71.0,256.0,270.0,0.0,0.0
2238,74.0,0.0,270.0,1.0,0.0
2239,54.0,0.0,1020.0,4.0,0.0
2240,78.0,0.0,270.0,0.0,0.0
2241,66.0,256.0,270.0,1.0,0.0
2242,70.0,0.0,270.0,0.0,0.0
2243,73.0,256.0,270.0,1.0,0.0
2244,78.0,0.0,270.0,0.0,0.0
2245,66.0,256.0,270.0,1.0,0.0
2246,42.0,0.0,390.0,5.0,0.0
2247,71.0,128.0,270.0,0.0,0.0
2248,54.0,0.0,390.0,6.0,0.0
2249,66.0,128.0,390.0,4.0,0.0
2250,71.0,0.0,270.0,1.0,0.0
2251,66.0,256.0,270.0,1.0,0.0
2252,78.0,0.0,270.0,0.0,0.0
2253,42.0,0.0,1020.0,6.0,0.0
2254,54.0,0.0,1020.0,4.0,0.0
2255,70.0,256.0,270.0,1.0,0.0
2256,73.0,0.0,270.0,0.0,0.0
2257,30.0,256.0,1020.0,5.0,0.0
2258,66.0,0.0,270.0,1.0,0.0
2259,78.0,256.0,270.0,0.0,0.0
2260,68.0,256.0,270.0,1.0,0.0
2261,71.0,0.0,270.0,0.0,0.0
2262,66.0,0.0,270.0,1.0,0.0
2263,78.0,0.0,270.0,0.0,0.0
2264,54.0,0.0,390.0,6.0,0.0
2265,66.0,128.0,390.0,4.0,0.0
2266,42.0,0.0,390.0,5.0,0.0
2267,73.0,0.0,270.0,0.0,0.0
2268,70.0,128.0,270.0,1.0,0.0
2269,78.0,256.0,270.0,0.0,0.0
2270,66.0,0.0,270.0,1.0,0.0
2271,30.0,0.0,1020.0,5.0,0.0
2272,54.0,256.0,1020.0,4.0,0.0
2273,71.0,0.0,270.0,1.0,0.0
2274,74.0,256.0,270.0,0.0,0.0
2275,42.0,0.0,1020.0,6.0,0.0
2276,78.0,256.0,270.0,0.0,0.0
2277,66.0,0.0,270.0,1.0,0.0
2278,70.0,0.0,270.0,1.0,0.0
2279,73.0,256.0,270.0,0.0,0.0
2280,66.0,0.0,270.0,1.0,0.0
2281,78.0,0.0,270.0,0.0,0.0
2282,54.0,0.0,390.0,6.0,0.0
2283,74.0,128.0,270.0,0.0,0.0
2284,66.0,128.0,390.0,4.0,0.0
2285,42.0,0.0,390.0,5.0,0.0
2286,71.0,0.0,270.0,1.0,0.0
2287,66.0,256.0,270.0,1.0,0.0
2288,78.0,0.0,270.0,0.0,0.0
2289,73.0,0.0,270.0,1.0,0.0
2290,42.0,0.0,1020.0,6.0,0.0
2291,76.0,256.0,270.0,0.0,0.0
2292,30.0,0.0,1020.0,5.0,0.0
2293,54.0,0.0,1020.0,4.0,0.0
2294,66.0,0.0,270.0,1.0,0.0
2295,78.0,256.0,270.0,0.0,0.0
2296,71.0,0.0,270.0,1.0,0.0
2297,74.0,256.0,270.0,0.0,0.0
2298,78.0,256.0,270.0,0.0,0.0
2299,66.0,0.0,270.0,1.0,0.0
2300,73.0,0.0,270.0,0.0,0.0
2301,42.0,128.0,390.0,5.0,0.0
2302,54.0,0.0,390.0,6.0,0.0
2303,66.0,0.0,390.0,4.0,0.0
2304,70.0,128.0,270.0,1.0,0.0
2305,78.0,0.0,270.0,0.0,0.0
2306,66.0,256.0,270.0,1.0,0.0
2307,42.0,256.0,1020.0,6.0,0.0
2308,30.0,0.0,1020.0,5.0,0.0
2309,74.0,0.0,270.0,0.0,0.0
2310,71.0,256.0,270.0,1.0,0.0
2311,54.0,0.0,1020.0,4.0,0.0
2312,66.0,256.0,270.0,1.0,0.0
2313,78.0,0.0,270.0,0.0,0.0
2314,73.0,256.0,270.0,0.0,0.0
2315,73.0,0.0,270.0,1.0,0.0
2316,66.0,0.0,270.0,1.0,0.0
2317,78.0,0.0,270.0,0.0,0.0
2318,54.0,0.0,390.0,6.0,0.0
2319,42.0,128.0,390.0,5.0,0.0
2320,66.0,0.0,390.0,4.0,0.0
2321,74.0,128.0,270.0,1.0,0.0
2322,71.0,0.0,270.0,0.0,0.0
2323,66.0,256.0,270.0,1.0,0.0
2324,78.0,0.0,270.0,0.0,0.0
2325,70.0,128.0,270.0,0.0,0.0
2326,30.0,256.0,1020.0,5.0,0.0
2327,42.0,0.0,1020.0,6.0,0.0
2328,54.0,0.0,1020.0,4.0,0.0
2329,73.0,128.0,390.0,1.0,0.0
2330,66.0,256.0,270.0,0.0,0.0
2331,70.0,128.0,270.0,0.0,0.0
2332,66.0,128.0,390.0,1.0,0.0
2333,73.0,0.0,270.0,0.0,0.0
2334,78.0,128.0,270.0,0.0,0.0
2335,52.0,128.0,390.0,4.0,0.0
2336,79.0,512.0,270.0,0.0,0.0
2337,51.0,256.0,1020.0,4.0,0.0
2338,81.0,512.0,1530.0,0.0,0.0
2339,59.0,256.0,270.0,1.0,0.0
2340,63.0,256.0,270.0,1.0,0.0
2341,66.0,0.0,270.0,1.0,0.0
2342,71.0,256.0,270.0,1.0,0.0
2343,75.0,0.0,270.0,1.0,0.0
2344,52.0,0.0,1020.0,4.0,0.0
2345,79.0,512.0,1530.0,1.0,0.0
2346,64.0,256.0,270.0,0.0,0.0
2347,67.0,256.0,270.0,0.0,0.0
2348,71.0,256.0,270.0,0.0,0.0
2349,76.0,256.0,270.0,0.0,0.0
2350,78.0,0.0,270.0,0.0,0.0
2351,79.0,512.0,1530.0,0.0,0.0
2352,49.0,256.0,1020.0,4.0,0.0
2353,57.0,256.0,270.0,1.0,0.0
2354,61.0,256.0,270.0,1.0,0.0
2355,64.0,0.0,270.0,1.0,0.0
2356,69.0,256.0,270.0,1.0,0.0
2357,73.0,0.0,270.0,1.0,0.0
2358,78.0,512.0,1530.0,1.0,0.0
2359,50.0,256.0,1020.0,4.0,0.0
2360,62.0,256.0,270.0,0.0,0.0
2361,66.0,256.0,270.0,0.0,0.0
2362,69.0,0.0,270.0,0.0,0.0
2363,74.0,256.0,270.0,0.0,0.0
2364,76.0,0.0,270.0,0.0,0.0
2365,78.0,512.0,1530.0,0.0,0.0
2366,47.0,0.0,1020.0,4.0,0.0
2367,55.0,256.0,270.0,1.0,0.0
2368,59.0,256.0,270.0,1.0,0.0
2369,62.0,256.0,270.0,1.0,0.0
2370,67.0,256.0,270.0,1.0,0.0
2371,71.0,0.0,270.0,1.0,0.0
2372,49.0,256.0,1020.0,4.0,0.0
2373,76.0,0.0,1530.0,1.0,0.0
2374,61.0,256.0,270.0,0.0,0.0
2375,64.0,256.0,270.0,0.0,0.0
2376,70.0,0.0,270.0,0.0,0.0
2377,73.0,256.0,270.0,0.0,0.0
2378,74.0,512.0,270.0,0.0,0.0
2379,46.0,0.0,1020.0,4.0,0.0
2380,76.0,0.0,1530.0,0.0,0.0
2381,54.0,256.0,270.0,1.0,0.0
2382,58.0,256.0,270.0,1.0,0.0
2383,61.0,256.0,270.0,1.0,0.0
2384,66.0,256.0,270.0,1.0,0.0
2385,70.0,512.0,270.0,1.0,0.0
2386,47.0,256.0,1020.0,4.0,0.0
2387,74.0,256.0,1800.0,1.0,0.0
2388,59.0,256.0,270.0,0.0,0.0
2389,61.0,256.0,270.0,0.0,0.0
2390,62.0,0.0,270.0,0.0,0.0
2391,64.0,256.0,270.0,0.0,0.0
2392,66.0,256.0,270.0,0.0,0.0
2393,67.0,256.0,1800.0,0.0,0.0
2394,52.0,256.0,1020.0,4.0,0.0
2395,73.0,256.0,270.0,1.0,0.0
2396,71.0,256.0,270.0,1.0,0.0
2397,69.0,0.0,270.0,1.0,0.0
2398,67.0,256.0,270.0,1.0,0.0
2399,66.0,256.0,270.0,1.0,0.0
2400,76.0,256.0,1800.0,1.0,0.0
2401,49.0,256.0,1020.0,4.0,0.0
2402,61.0,256.0,270.0,0.0,0.0
2403,62.0,256.0,270.0,0.0,0.0
2404,64.0,0.0,270.0,0.0,0.0
2405,66.0,256.0,270.0,0.0,0.0
2406,68.0,256.0,270.0,0.0,0.0
2407,69.0,256.0,1800.0,0.0,0.0
2408,54.0,0.0,1020.0,4.0,0.0
2409,74.0,256.0,270.0,1.0,0.0
2410,73.0,256.0,270.0,1.0,0.0
2411,71.0,256.0,270.0,1.0,0.0
2412,69.0,256.0,270.0,1.0,0.0
2413,67.0,256.0,270.0,1.0,0.0
2414,50.0,256.0,1020.0,4.0,0.0
2415,78.0,256.0,1800.0,1.0,0.0
2416,62.0,256.0,270.0,0.0,0.0
2417,64.0,256.0,270.0,0.0,0.0
2418,66.0,0.0,270.0,0.0,0.0
2419,68.0,256.0,270.0,0.0,0.0
2420,70.0,256.0,270.0,0.0,0.0
2421,55.0,0.0,1020.0,4.0,0.0
2422,71.0,0.0,780.0,0.0,0.0
2423,76.0,256.0,270.0,1.0,0.0
2424,74.0,256.0,270.0,1.0,0.0
2425,74.0,256.0,270.0,0.0,0.0
2426,73.0,0.0,270.0,1.0,0.0
2427,71.0,256.0,270.0,1.0,0.0
2428,76.0,0.0,270.0,0.0,0.0
2429,78.0,0.0,270.0,0.0,0.0
2430,70.0,256.0,270.0,1.0,0.0
2431,79.0,256.0,270.0,0.0,0.0
2432,52.0,256.0,1020.0,4.0,0.0
2433,71.0,0.0,270.0,1.0,0.0
2434,78.0,0.0,270.0,0.0,0.0
2435,69.0,256.0,270.0,1.0,0.0
2436,76.0,256.0,270.0,0.0,0.0
2437,67.0,0.0,270.0,1.0,0.0
2438,74.0,0.0,270.0,0.0,0.0
2439,66.0,0.0,270.0,1.0,0.0
2440,73.0,0.0,270.0,0.0,0.0
2441,64.0,256.0,270.0,1.0,0.0
2442,71.0,256.0,270.0,0.0,0.0
2443,62.0,0.0,270.0,1.0,0.0
2444,61.0,256.0,270.0,1.0,0.0
2445,54.0,256.0,1020.0,4.0,0.0
2446,70.0,0.0,270.0,0.0,0.0
2447,68.0,0.0,270.0,0.0,0.0
2448,59.0,256.0,270.0,1.0,0.0
2449,70.0,0.0,270.0,0.0,0.0
2450,61.0,256.0,270.0,1.0,0.0
2451,71.0,0.0,270.0,0.0,0.0
2452,62.0,0.0,270.0,1.0,0.0
2453,61.0,0.0,270.0,1.0,0.0
2454,70.0,256.0,270.0,0.0,0.0
2455,62.0,256.0,270.0,1.0,0.0
2456,71.0,0.0,270.0,0.0,0.0
2457,42.0,0.0,1020.0,4.0,0.0
2458,64.0,256.0,270.0,1.0,0.0
2459,73.0,0.0,270.0,0.0,0.0
2460,62.0,0.0,270.0,1.0,0.0
2461,71.0,256.0,270.0,0.0,0.0
2462,64.0,256.0,270.0,1.0,0.0
2463,73.0,0.0,270.0,0.0,0.0
2464,74.0,256.0,270.0,0.0,0.0
2465,66.0,0.0,270.0,1.0,0.0
2466,64.0,256.0,270.0,1.0,0.0
2467,73.0,0.0,270.0,0.0,0.0
2468,66.0,512.0,270.0,1.0,0.0
2469,74.0,0.0,270.0,0.0,0.0
2470,71.0,384.0,510.0,0.0,0.0
2471,47.0,0.0,1020.0,5.0,0.0
2472,66.0,0.0,1020.0,2.0,0.0
2473,59.0,0.0,1020.0,4.0,0.0
2474,62.0,0.0,1020.0,3.0,0.0
2475,62.0,0.0,510.0,1.0,0.0
2476,59.0,384.0,1020.0,6.0,0.0
2477,70.0,0.0,390.0,0.0,0.0
2478,66.0,128.0,390.0,1.0,0.0
2479,71.0,0.0,390.0,1.0,0.0
2480,71.0,640.0,390.0,0.0,0.0
2481,62.0,0.0,510.0,0.0,0.0
2482,62.0,384.0,510.0,1.0,0.0
2483,57.0,384.0,1020.0,6.0,0.0
2484,59.0,0.0,1020.0,3.0,0.0
2485,45.0,0.0,1020.0,5.0,0.0
2486,57.0,0.0,1020.0,4.0,0.0
2487,66.0,0.0,1020.0,2.0,0.0
2488,66.0,128.0,390.0,1.0,0.0
2489,66.0,0.0,390.0,0.0,0.0
2490,71.0,0.0,390.0,0.0,0.0
2491,71.0,640.0,390.0,1.0,0.0
2492,62.0,0.0,1020.0,3.0,0.0
2493,43.0,0.0,1020.0,5.0,0.0
2494,67.0,0.0,1020.0,2.0,0.0
2495,71.0,384.0,510.0,0.0,0.0
2496,55.0,0.0,1020.0,4.0,0.0
2497,71.0,0.0,510.0,1.0,0.0
2498,55.0,384.0,1020.0,6.0,0.0
2499,70.0,128.0,390.0,1.0,0.0
2500,70.0,0.0,390.0,0.0,0.0
2501,71.0,0.0,390.0,0.0,0.0
2502,71.0,640.0,390.0,1.0,0.0
2503,42.0,0.0,1020.0,5.0,0.0
2504,66.0,0.0,1020.0,3.0,0.0
2505,71.0,0.0,1020.0,2.0,0.0
2506,54.0,384.0,1020.0,6.0,0.0
2507,54.0,0.0,1020.0,4.0,0.0
2508,62.0,0.0,510.0,1.0,0.0
2509,62.0,384.0,510.0,0.0,0.0
2510,66.0,0.0,390.0,1.0,0.0
2511,66.0,128.0,390.0,0.0,0.0
2512,71.0,640.0,390.0,1.0,0.0
2513,71.0,0.0,390.0,0.0,0.0
2514,67.0,0.0,1020.0,3.0,0.0
2515,71.0,0.0,1020.0,2.0,0.0
2516,52.0,384.0,1020.0,4.0,0.0
2517,73.0,0.0,510.0,1.0,0.0
2518,52.0,0.0,1020.0,6.0,0.0
2519,73.0,384.0,510.0,0.0,0.0
2520,40.0,0.0,1020.0,5.0,0.0
2521,71.0,128.0,390.0,1.0,0.0
2522,71.0,0.0,390.0,0.0,0.0
2523,73.0,0.0,390.0,1.0,0.0
2524,73.0,640.0,390.0,0.0,0.0
2525,42.0,0.0,1020.0,5.0,0.0
2526,66.0,0.0,1020.0,3.0,0.0
2527,66.0,0.0,510.0,0.0,0.0
2528,66.0,384.0,510.0,1.0,0.0
2529,54.0,0.0,1020.0,6.0,0.0
2530,54.0,0.0,1020.0,4.0,0.0
2531,70.0,384.0,1020.0,2.0,0.0
2532,70.0,128.0,390.0,0.0,0.0
2533,70.0,0.0,390.0,1.0,0.0
2534,73.0,640.0,390.0,1.0,0.0
2535,73.0,0.0,390.0,0.0,0.0
2536,71.0,0.0,510.0,2.0,0.0
2537,35.0,384.0,1020.0,5.0,0.0
2538,74.0,0.0,510.0,0.0,0.0
2539,74.0,384.0,510.0,1.0,0.0
2540,66.0,0.0,510.0,3.0,0.0
2541,47.0,0.0,1020.0,6.0,0.0
2542,47.0,0.0,1020.0,4.0,0.0
2543,70.0,0.0,390.0,2.0,0.0
2544,64.0,0.0,390.0,3.0,0.0
2545,73.0,128.0,390.0,0.0,0.0
2546,73.0,0.0,390.0,1.0,0.0
2547,54.0,0.0,390.0,4.0,0.0
2548,71.0,384.0,390.0,2.0,0.0
2549,66.0,0.0,390.0,3.0,0.0
2550,54.0,0.0,390.0,6.0,0.0
2551,42.0,0.0,390.0,5.0,0.0
2552,74.0,0.0,390.0,0.0,0.0
2553,74.0,0.0,390.0,1.0,0.0
2554,59.0,256.0,270.0,4.0,0.0
2555,59.0,0.0,1020.0,6.0,0.0
2556,71.0,0.0,1020.0,1.0,0.0
2557,71.0,0.0,1020.0,0.0,0.0
2558,47.0,0.0,1020.0,5.0,0.0
2559,66.0,0.0,1020.0,2.0,0.0
2560,62.0,256.0,1020.0,3.0,0.0
2561,61.0,256.0,270.0,4.0,0.0
2562,62.0,256.0,270.0,4.0,0.0
2563,61.0,0.0,270.0,4.0,0.0
2564,78.0,128.0,390.0,0.0,0.0
2565,59.0,128.0,270.0,4.0,0.0
2566,57.0,256.0,270.0,4.0,0.0
2567,56.0,256.0,270.0,4.0,0.0
2568,83.0,256.0,2040.0,0.0,0.0
2569,57.0,256.0,270.0,4.0,0.0
2570,59.0,256.0,270.0,4.0,0.0
2571,57.0,256.0,270.0,4.0,0.0
2572,75.0,128.0,390.0,1.0,0.0
2573,56.0,128.0,270.0,4.0,0.0
2574,54.0,256.0,270.0,4.0,0.0
2575,80.0,256.0,2040.0,1.0,0.0
2576,53.0,256.0,270.0,4.0,0.0
2577,56.0,0.0,270.0,4.0,0.0
2578,77.0,128.0,390.0,0.0,0.0
2579,61.0,128.0,270.0,4.0,0.0
2580,59.0,256.0,270.0,4.0,0.0
2581,80.0,128.0,390.0,0.0,0.0
2582,57.0,128.0,270.0,4.0,0.0
2583,56.0,256.0,270.0,4.0,0.0
2584,54.0,128.0,390.0,4.0,0.0
2585,81.0,128.0,270.0,0.0,0.0
2586,80.0,0.0,270.0,0.0,0.0
2587,78.0,128.0,270.0,0.0,0.0
2588,73.0,0.0,390.0,1.0,0.0
2589,57.0,128.0,390.0,4.0,0.0
2590,81.0,256.0,270.0,0.0,0.0
2591,77.0,0.0,390.0,1.0,0.0
2592,49.0,128.0,270.0,6.0,0.0
2593,61.0,128.0,390.0,4.0,0.0
2594,73.0,0.0,390.0,2.0,0.0
2595,80.0,0.0,270.0,0.0,0.0
2596,37.0,0.0,270.0,5.0,0.0
2597,68.0,0.0,390.0,3.0,0.0
2598,83.0,256.0,270.0,0.0,0.0
2599,54.0,0.0,1020.0,6.0,0.0
2600,42.0,0.0,1020.0,5.0,0.0
2601,66.0,256.0,1020.0,3.0,0.0
2602,81.0,128.0,270.0,0.0,0.0
2603,66.0,0.0,390.0,4.0,0.0
2604,78.0,128.0,390.0,1.0,0.0
2605,73.0,0.0,1020.0,2.0,0.0
2606,73.0,256.0,270.0,0.0,0.0
2607,66.0,128.0,390.0,1.0,0.0
2608,57.0,0.0,390.0,4.0,0.0
2609,78.0,128.0,270.0,0.0,0.0
2610,80.0,0.0,120.0,0.0,0.0
2611,81.0,0.0,120.0,0.0,0.0
2612,80.0,128.0,270.0,0.0,0.0
2613,61.0,0.0,390.0,4.0,0.0
2614,81.0,128.0,120.0,0.0,0.0
2615,83.0,256.0,120.0,0.0,0.0
2616,54.0,256.0,270.0,4.0,0.0
2617,81.0,0.0,2040.0,0.0,0.0
2618,55.0,256.0,270.0,4.0,0.0
2619,57.0,256.0,270.0,4.0,0.0
2620,55.0,256.0,270.0,4.0,0.0
2621,73.0,128.0,390.0,1.0,0.0
2622,54.0,128.0,270.0,4.0,0.0
2623,52.0,256.0,270.0,4.0,0.0
2624,78.0,0.0,2040.0,1.0,0.0
2625,51.0,256.0,270.0,4.0,0.0
2626,54.0,256.0,270.0,4.0,0.0
2627,75.0,128.0,390.0,0.0,0.0
2628,59.0,128.0,270.0,4.0,0.0
2629,57.0,256.0,270.0,4.0,0.0
2630,55.0,128.0,270.0,4.0,0.0
2631,78.0,128.0,390.0,0.0,0.0
2632,54.0,256.0,270.0,4.0,0.0
2633,52.0,128.0,390.0,4.0,0.0
2634,79.0,128.0,270.0,0.0,0.0
2635,78.0,256.0,270.0,0.0,0.0
2636,71.0,128.0,390.0,1.0,0.0
2637,76.0,128.0,270.0,0.0,0.0
2638,55.0,0.0,390.0,4.0,0.0
2639,79.0,256.0,270.0,0.0,0.0
2640,47.0,0.0,270.0,6.0,0.0
2641,66.0,0.0,390.0,3.0,0.0
2642,35.0,128.0,270.0,5.0,0.0
2643,71.0,128.0,390.0,2.0,0.0
2644,59.0,0.0,390.0,4.0,0.0
2645,78.0,0.0,270.0,0.0,0.0
2646,75.0,0.0,390.0,1.0,0.0
2647,81.0,256.0,270.0,0.0,0.0
2648,52.0,0.0,1020.0,6.0,0.0
2649,71.0,256.0,1020.0,2.0,0.0
2650,40.0,0.0,1020.0,5.0,0.0
2651,64.0,0.0,1020.0,3.0,0.0
2652,64.0,128.0,270.0,4.0,0.0
2653,79.0,128.0,390.0,0.0,0.0
2654,76.0,256.0,2040.0,1.0,0.0
2655,66.0,256.0,270.0,4.0,0.0
2656,76.0,128.0,390.0,0.0,0.0
2657,64.0,128.0,270.0,4.0,0.0
2658,62.0,0.0,270.0,4.0,0.0
2659,79.0,128.0,390.0,0.0,0.0
2660,61.0,128.0,270.0,4.0,0.0
2661,59.0,256.0,270.0,4.0,0.0
2662,78.0,256.0,2040.0,0.0,0.0
2663,58.0,256.0,270.0,4.0,0.0
2664,61.0,0.0,270.0,4.0,0.0
2665,66.0,128.0,270.0,4.0,0.0
2666,70.0,128.0,390.0,1.0,0.0
2667,64.0,256.0,270.0,4.0,0.0
2668,62.0,128.0,270.0,4.0,0.0
2669,73.0,128.0,390.0,1.0,0.0
2670,61.0,256.0,270.0,4.0,0.0
2671,59.0,256.0,270.0,4.0,0.0
2672,74.0,256.0,2040.0,1.0,0.0
2673,61.0,0.0,270.0,4.0,0.0
2674,62.0,128.0,270.0,4.0,0.0
2675,71.0,128.0,390.0,0.0,0.0
2676,61.0,256.0,270.0,4.0,0.0
2677,59.0,0.0,390.0,6.0,0.0
2678,74.0,0.0,390.0,0.0,0.0
2679,66.0,128.0,390.0,2.0,0.0
2680,62.0,0.0,390.0,3.0,0.0
2681,59.0,128.0,270.0,4.0,0.0
2682,47.0,0.0,390.0,5.0,0.0
2683,57.0,256.0,270.0,4.0,0.0
2684,56.0,256.0,270.0,4.0,0.0
2685,56.0,0.0,1530.0,6.0,0.0
2686,71.0,256.0,1530.0,2.0,0.0
2687,76.0,0.0,2040.0,0.0,0.0
2688,62.0,0.0,1530.0,3.0,0.0
2689,44.0,0.0,1530.0,5.0,0.0
2690,59.0,0.0,270.0,4.0,0.0
2691,64.0,128.0,270.0,4.0,0.0
2692,68.0,128.0,390.0,1.0,0.0
2693,62.0,256.0,270.0,4.0,0.0
2694,71.0,128.0,390.0,1.0,0.0
2695,61.0,128.0,270.0,4.0,0.0
2696,59.0,0.0,270.0,4.0,0.0
2697,73.0,256.0,2040.0,1.0,0.0
2698,57.0,256.0,270.0,4.0,0.0
2699,59.0,256.0,270.0,4.0,0.0
2700,69.0,128.0,390.0,0.0,0.0
2701,61.0,128.0,270.0,4.0,0.0
2702,59.0,256.0,270.0,4.0,0.0
2703,73.0,0.0,390.0,0.0,0.0
2704,57.0,0.0,390.0,6.0,0.0
2705,61.0,0.0,390.0,3.0,0.0
2706,57.0,128.0,270.0,4.0,0.0
2707,45.0,128.0,390.0,5.0,0.0
2708,64.0,0.0,390.0,2.0,0.0
2709,55.0,256.0,270.0,4.0,0.0
2710,61.0,0.0,1530.0,3.0,0.0
2711,74.0,256.0,2040.0,0.0,0.0
2712,54.0,256.0,270.0,4.0,0.0
2713,54.0,0.0,1530.0,6.0,0.0
2714,69.0,0.0,1530.0,2.0,0.0
2715,42.0,256.0,1530.0,5.0,0.0
2716,57.0,0.0,270.0,4.0,0.0
2717,62.0,128.0,270.0,4.0,0.0
2718,66.0,128.0,390.0,1.0,0.0
2719,61.0,256.0,270.0,4.0,0.0
2720,59.0,128.0,270.0,4.0,0.0
2721,69.0,128.0,390.0,1.0,0.0
2722,57.0,0.0,270.0,4.0,0.0
2723,71.0,256.0,1800.0,1.0,0.0
2724,56.0,256.0,270.0,4.0,0.0
2725,57.0,0.0,270.0,4.0,0.0
2726,59.0,128.0,270.0,4.0,0.0
2727,68.0,128.0,390.0,0.0,0.0
2728,57.0,256.0,270.0,4.0,0.0
2729,71.0,0.0,390.0,0.0,0.0
2730,44.0,256.0,510.0,5.0,0.0
2731,56.0,128.0,270.0,4.0,0.0
2732,56.0,0.0,510.0,6.0,0.0
2733,74.0,128.0,390.0,2.0,0.0
2734,59.0,0.0,390.0,3.0,0.0
2735,54.0,0.0,270.0,4.0,0.0
2736,73.0,0.0,4620.0,0.0,0.0
2737,41.0,0.0,1530.0,5.0,0.0
2738,68.0,0.0,1530.0,2.0,0.0
2739,53.0,256.0,510.0,4.0,0.0
2740,53.0,256.0,1530.0,6.0,0.0
2741,61.0,0.0,1530.0,3.0,0.0
2742,73.0,0.0,270.0,1.0,0.0
2743,54.0,128.0,390.0,4.0,0.0
2744,71.0,128.0,270.0,1.0,0.0
2745,69.0,256.0,270.0,1.0,0.0
2746,68.0,128.0,270.0,1.0,0.0
2747,56.0,128.0,390.0,4.0,0.0
2748,69.0,0.0,270.0,1.0,0.0
2749,49.0,256.0,1020.0,4.0,0.0
2750,71.0,256.0,270.0,1.0,0.0
2751,69.0,256.0,270.0,1.0,0.0
2752,71.0,256.0,270.0,1.0,0.0
2753,73.0,0.0,270.0,1.0,0.0
2754,71.0,128.0,270.0,1.0,0.0
2755,53.0,128.0,390.0,4.0,0.0
2756,73.0,256.0,270.0,1.0,0.0
2757,69.0,256.0,270.0,1.0,0.0
2758,42.0,0.0,1020.0,5.0,0.0
2759,61.0,0.0,1020.0,3.0,0.0
2760,61.0,256.0,1020.0,2.0,0.0
2761,54.0,0.0,1020.0,4.0,0.0
2762,54.0,0.0,1020.0,6.0,0.0
2763,73.0,256.0,270.0,1.0,0.0
2764,68.0,256.0,270.0,1.0,0.0
2765,73.0,0.0,270.0,1.0,0.0
2766,73.0,128.0,390.0,3.0,0.0
2767,73.0,0.0,390.0,2.0,0.0
2768,66.0,128.0,270.0,1.0,0.0
2769,73.0,256.0,270.0,1.0,0.0
2770,37.0,256.0,1020.0,5.0,0.0
2771,61.0,0.0,1020.0,3.0,0.0
2772,49.0,0.0,1020.0,4.0,0.0
2773,65.0,256.0,270.0,1.0,0.0
2774,61.0,0.0,1020.0,2.0,0.0
2775,49.0,0.0,1020.0,6.0,0.0
2776,73.0,256.0,270.0,1.0,0.0
2777,63.0,256.0,270.0,1.0,0.0
2778,73.0,0.0,270.0,1.0,0.0
2779,73.0,0.0,270.0,0.0,0.0
2780,73.0,0.0,390.0,3.0,0.0
2781,83.0,0.0,270.0,0.0,0.0
2782,73.0,128.0,390.0,2.0,0.0
2783,65.0,128.0,270.0,1.0,0.0
2784,73.0,256.0,270.0,0.0,0.0
2785,73.0,0.0,270.0,1.0,0.0
2786,30.0,0.0,1020.0,5.0,0.0
2787,42.0,256.0,1020.0,4.0,0.0
2788,42.0,0.0,1020.0,6.0,0.0
2789,61.0,0.0,1020.0,3.0,0.0
2790,81.0,0.0,270.0,0.0,0.0
2791,61.0,0.0,1020.0,2.0,0.0
2792,66.0,256.0,270.0,1.0,0.0
2793,73.0,256.0,270.0,0.0,0.0
2794,73.0,0.0,270.0,1.0,0.0
2795,65.0,0.0,270.0,1.0,0.0
2796,80.0,256.0,270.0,0.0,0.0
2797,73.0,0.0,270.0,1.0,0.0
2798,73.0,0.0,270.0,0.0,0.0
2799,78.0,0.0,270.0,0.0,0.0
2800,73.0,128.0,390.0,3.0,0.0
2801,66.0,128.0,270.0,1.0,0.0
2802,73.0,0.0,390.0,2.0,0.0
2803,73.0,256.0,270.0,1.0,0.0
2804,73.0,0.0,270.0,0.0,0.0
2805,49.0,256.0,1020.0,4.0,0.0
2806,61.0,0.0,1020.0,2.0,0.0
2807,61.0,0.0,1020.0,3.0,0.0
2808,49.0,0.0,1020.0,6.0,0.0
2809,77.0,256.0,270.0,0.0,0.0
2810,68.0,0.0,270.0,1.0,0.0
2811,37.0,0.0,1020.0,5.0,0.0
2812,73.0,256.0,270.0,1.0,0.0
2813,73.0,0.0,270.0,0.0,0.0
2814,75.0,0.0,270.0,0.0,0.0
2815,66.0,256.0,270.0,1.0,0.0
2816,73.0,0.0,270.0,0.0,0.0
2817,73.0,0.0,270.0,1.0,0.0
2818,68.0,128.0,270.0,1.0,0.0
2819,73.0,0.0,390.0,2.0,0.0
2820,73.0,128.0,390.0,3.0,0.0
2821,77.0,0.0,270.0,0.0,0.0
2822,73.0,256.0,270.0,0.0,0.0
2823,73.0,0.0,270.0,1.0,0.0
2824,61.0,0.0,1020.0,3.0,0.0
2825,42.0,0.0,1020.0,5.0,0.0
2826,78.0,256.0,270.0,0.0,0.0
2827,54.0,0.0,1020.0,4.0,0.0
2828,69.0,0.0,270.0,1.0,0.0
2829,61.0,0.0,1020.0,2.0,0.0
2830,54.0,0.0,1020.0,6.0,0.0
2831,73.0,0.0,270.0,1.0,0.0
2832,73.0,256.0,270.0,0.0,0.0
2833,68.0,256.0,270.0,1.0,0.0
2834,77.0,0.0,270.0,0.0,0.0
2835,73.0,256.0,270.0,1.0,0.0
2836,73.0,0.0,270.0,0.0,0.0
2837,78.0,128.0,270.0,0.0,0.0
2838,69.0,0.0,270.0,1.0,0.0
2839,73.0,128.0,390.0,3.0,0.0
2840,73.0,0.0,390.0,2.0,0.0
2841,73.0,256.0,270.0,0.0,0.0
2842,73.0,0.0,270.0,1.0,0.0
2843,61.0,0.0,1020.0,6.0,0.0
2844,49.0,0.0,1020.0,5.0,0.0
2845,61.0,0.0,1020.0,2.0,0.0
2846,61.0,256.0,1020.0,4.0,0.0
2847,61.0,0.0,1020.0,3.0,0.0
2848,80.0,256.0,270.0,0.0,0.0
2849,71.0,0.0,270.0,1.0,0.0
2850,73.0,0.0,270.0,1.0,0.0
2851,73.0,256.0,270.0,0.0,0.0
2852,78.0,256.0,270.0,0.0,0.0
2853,69.0,0.0,270.0,1.0,0.0
2854,73.0,0.0,270.0,1.0,0.0
2855,73.0,0.0,270.0,0.0,0.0
2856,73.0,128.0,390.0,3.0,0.0
2857,73.0,0.0,390.0,2.0,0.0
2858,77.0,0.0,270.0,0.0,0.0
2859,68.0,128.0,270.0,1.0,0.0
2860,73.0,0.0,270.0,0.0,0.0
2861,73.0,256.0,270.0,1.0,0.0
2862,61.0,0.0,1020.0,3.0,0.0
2863,78.0,256.0,270.0,0.0,0.0
2864,54.0,0.0,1020.0,5.0,0.0
2865,61.0,0.0,1020.0,2.0,0.0
2866,66.0,0.0,1020.0,4.0,0.0
2867,66.0,0.0,1020.0,6.0,0.0
2868,69.0,0.0,270.0,1.0,0.0
2869,73.0,0.0,270.0,1.0,0.0
2870,73.0,256.0,270.0,0.0,0.0
2871,68.0,0.0,270.0,1.0,0.0
2872,80.0,256.0,270.0,0.0,0.0
2873,73.0,256.0,270.0,1.0,0.0
2874,73.0,0.0,270.0,0.0,0.0
2875,81.0,128.0,270.0,0.0,0.0
2876,73.0,128.0,390.0,3.0,0.0
2877,73.0,0.0,390.0,2.0,0.0
2878,66.0,0.0,270.0,1.0,0.0
2879,73.0,0.0,270.0,1.0,0.0
2880,73.0,256.0,270.0,0.0,0.0
2881,80.0,128.0,390.0,0.0,0.0
2882,61.0,0.0,1020.0,6.0,0.0
2883,65.0,128.0,270.0,1.0,0.0
2884,49.0,0.0,1020.0,5.0,0.0
2885,61.0,0.0,1020.0,4.0,0.0
2886,61.0,256.0,1020.0,2.0,0.0
2887,61.0,0.0,1020.0,3.0,0.0
2888,61.0,256.0,270.0,1.0,0.0
2889,65.0,128.0,270.0,1.0,0.0
2890,73.0,128.0,390.0,0.0,0.0
2891,68.0,0.0,270.0,1.0,0.0
2892,73.0,256.0,270.0,1.0,0.0
2893,71.0,512.0,270.0,1.0,0.0
2894,54.0,0.0,1020.0,4.0,0.0
2895,69.0,256.0,1800.0,1.0,0.0
2896,66.0,256.0,270.0,0.0,0.0
2897,69.0,256.0,270.0,0.0,0.0
2898,73.0,256.0,270.0,0.0,0.0
2899,78.0,256.0,270.0,0.0,0.0
2900,76.0,256.0,270.0,0.0,0.0
2901,74.0,256.0,1800.0,0.0,0.0
2902,59.0,0.0,1020.0,4.0,0.0
2903,59.0,256.0,270.0,1.0,0.0
2904,62.0,256.0,270.0,1.0,0.0
2905,66.0,256.0,270.0,1.0,0.0
2906,71.0,256.0,270.0,1.0,0.0
2907,69.0,256.0,270.0,1.0,0.0
2908,68.0,256.0,1800.0,1.0,0.0
2909,52.0,256.0,1020.0,4.0,0.0
2910,64.0,256.0,270.0,0.0,0.0
2911,68.0,256.0,270.0,0.0,0.0
2912,71.0,0.0,270.0,0.0,0.0
2913,76.0,256.0,270.0,0.0,0.0
2914,74.0,256.0,270.0,0.0,0.0
2915,73.0,256.0,1800.0,0.0,0.0
2916,57.0,0.0,1020.0,4.0,0.0
2917,57.0,256.0,270.0,1.0,0.0
2918,61.0,256.0,270.0,1.0,0.0
2919,64.0,256.0,270.0,1.0,0.0
2920,69.0,256.0,270.0,1.0,0.0
2921,68.0,256.0,270.0,1.0,0.0
2922,66.0,256.0,1800.0,1.0,0.0
2923,62.0,256.0,1020.0,4.0,0.0
2924,62.0,256.0,270.0,0.0,0.0
2925,66.0,256.0,270.0,0.0,0.0
2926,69.0,0.0,270.0,0.0,0.0
2927,74.0,256.0,270.0,0.0,0.0
2928,73.0,256.0,270.0,0.0,0.0
2929,71.0,256.0,1800.0,0.0,0.0
2930,56.0,0.0,1020.0,4.0,0.0
2931,56.0,256.0,270.0,1.0,0.0
2932,59.0,256.0,270.0,1.0,0.0
2933,63.0,256.0,270.0,1.0,0.0
2934,68.0,256.0,270.0,1.0,0.0
2935,66.0,256.0,270.0,1.0,0.0
2936,65.0,512.0,1530.0,1.0,0.0
2937,61.0,256.0,1020.0,4.0,0.0
2938,61.0,256.0,270.0,0.0,0.0
2939,65.0,256.0,270.0,0.0,0.0
2940,68.0,0.0,270.0,0.0,0.0
2941,73.0,256.0,270.0,0.0,0.0
2942,71.0,0.0,270.0,0.0,0.0
2943,69.0,256.0,1800.0,0.0,0.0
2944,54.0,256.0,1020.0,4.0,0.0
2945,66.0,256.0,270.0,1.0,0.0
2946,68.0,256.0,270.0,1.0,0.0
2947,69.0,0.0,270.0,1.0,0.0
2948,71.0,256.0,270.0,1.0,0.0
2949,73.0,256.0,270.0,1.0,0.0
2950,59.0,0.0,1020.0,4.0,0.0
2951,74.0,256.0,1800.0,1.0,0.0
2952,68.0,256.0,270.0,0.0,0.0
2953,66.0,256.0,270.0,0.0,0.0
2954,64.0,256.0,270.0,0.0,0.0
2955,62.0,256.0,270.0,0.0,0.0
2956,61.0,256.0,270.0,0.0,0.0
2957,56.0,256.0,1020.0,4.0,0.0
2958,71.0,256.0,1800.0,0.0,0.0
2959,68.0,256.0,270.0,1.0,0.0
2960,69.0,256.0,270.0,1.0,0.0
2961,71.0,0.0,270.0,1.0,0.0
2962,73.0,256.0,270.0,1.0,0.0
2963,75.0,256.0,270.0,1.0,0.0
2964,61.0,0.0,1020.0,4.0,0.0
2965,76.0,256.0,1800.0,1.0,0.0
2966,69.0,256.0,270.0,0.0,0.0
2967,68.0,256.0,270.0,0.0,0.0
2968,66.0,256.0,270.0,0.0,0.0
2969,64.0,256.0,270.0,0.0,0.0
2970,62.0,256.0,270.0,0.0,0.0
2971,73.0,256.0,1800.0,0.0,0.0
2972,57.0,0.0,1020.0,4.0,0.0
2973,69.0,256.0,270.0,1.0,0.0
2974,71.0,256.0,270.0,1.0,0.0
2975,73.0,256.0,270.0,1.0,0.0
2976,75.0,256.0,270.0,1.0,0.0
2977,77.0,256.0,270.0,1.0,0.0
2978,62.0,256.0,1020.0,4.0,0.0
2979,78.0,256.0,780.0,1.0,0.0
2980,71.0,256.0,270.0,0.0,0.0
2981,69.0,0.0,270.0,0.0,0.0
2982,68.0,0.0,270.0,0.0,0.0
2983,69.0,0.0,270.0,1.0,0.0
2984,71.0,0.0,270.0,1.0,0.0
2985,66.0,256.0,270.0,0.0,0.0
2986,73.0,256.0,270.0,1.0,0.0
2987,65.0,0.0,270.0,0.0,0.0
2988,66.0,0.0,270.0,0.0,0.0
2989,59.0,256.0,1020.0,4.0,0.0
2990,74.0,256.0,270.0,1.0,0.0
2991,73.0,0.0,270.0,1.0,0.0
2992,64.0,256.0,270.0,0.0,0.0
2993,71.0,256.0,270.0,1.0,0.0
2994,62.0,0.0,270.0,0.0,0.0
2995,69.0,0.0,270.0,1.0,0.0
2996,61.0,0.0,270.0,0.0,0.0
2997,68.0,0.0,270.0,1.0,0.0
2998,59.0,256.0,270.0,0.0,0.0
2999,66.0,0.0,270.0,1.0,0.0
3000,57.0,256.0,270.0,0.0,0.0
3001,61.0,0.0,1020.0,4.0,0.0
3002,56.0,256.0,270.0,0.0,0.0
3003,65.0,0.0,270.0,1.0,0.0
3004,54.0,256.0,270.0,0.0,0.0
3005,63.0,0.0,270.0,1.0,0.0
3006,56.0,0.0,270.0,0.0,0.0
3007,65.0,256.0,270.0,1.0,0.0
3008,57.0,0.0,270.0,0.0,0.0
3009,66.0,256.0,270.0,1.0,0.0
3010,56.0,0.0,270.0,0.0,0.0
3011,65.0,256.0,270.0,1.0,0.0
3012,66.0,256.0,270.0,1.0,0.0
3013,57.0,0.0,270.0,0.0,0.0
3014,59.0,0.0,270.0,0.0,0.0
3015,49.0,256.0,1020.0,4.0,0.0
3016,68.0,256.0,270.0,1.0,0.0
3017,57.0,0.0,270.0,0.0,0.0
3018,66.0,256.0,270.0,1.0,0.0
3019,59.0,256.0,270.0,0.0,0.0
3020,68.0,0.0,270.0,1.0,0.0
3021,69.0,0.0,270.0,1.0,0.0
3022,61.0,0.0,270.0,0.0,0.0
3023,59.0,256.0,270.0,0.0,0.0
3024,68.0,0.0,270.0,1.0,0.0
3025,61.0,384.0,270.0,0.0,0.0
3026,69.0,0.0,270.0,1.0,0.0
3027,61.0,1024.0,1020.0,2.0,0.0
3028,54.0,0.0,1020.0,4.0,0.0
3029,54.0,0.0,1020.0,6.0,0.0
3030,42.0,0.0,1020.0,5.0,0.0
3031,66.0,0.0,390.0,1.0,0.0
3032,57.0,0.0,1020.0,3.0,0.0
3033,57.0,512.0,390.0,0.0,0.0
3034,61.0,0.0,390.0,1.0,0.0
3035,61.0,128.0,390.0,0.0,0.0
3036,62.0,384.0,1020.0,0.0,0.0
3037,62.0,0.0,1020.0,1.0,0.0
3038,30.0,0.0,1020.0,5.0,0.0
3039,42.0,0.0,1020.0,6.0,0.0
3040,54.0,1024.0,1020.0,3.0,0.0
3041,42.0,0.0,1020.0,4.0,0.0
3042,59.0,0.0,1020.0,2.0,0.0
3043,61.0,0.0,390.0,0.0,0.0
3044,61.0,128.0,390.0,1.0,0.0
3045,66.0,0.0,1020.0,1.0,0.0
3046,66.0,384.0,1020.0,0.0,0.0
3047,42.0,0.0,1020.0,5.0,0.0
3048,57.0,0.0,1020.0,2.0,0.0
3049,54.0,0.0,1020.0,6.0,0.0
3050,61.0,1024.0,1020.0,3.0,0.0
3051,54.0,0.0,1020.0,4.0,0.0
3052,61.0,128.0,390.0,0.0,0.0
3053,61.0,0.0,390.0,1.0,0.0
3054,62.0,0.0,1020.0,0.0,0.0
3055,62.0,384.0,1020.0,1.0,0.0
3056,42.0,0.0,1020.0,6.0,0.0
3057,42.0,0.0,1020.0,4.0,0.0
3058,54.0,0.0,1020.0,2.0,0.0
3059,30.0,0.0,1020.0,5.0,0.0
3060,59.0,384.0,1020.0,3.0,0.0
3061,61.0,0.0,390.0,1.0,0.0
3062,61.0,128.0,390.0,0.0,0.0
3063,54.0,0.0,390.0,4.0,0.0
3064,66.0,0.0,1020.0,0.0,0.0
3065,42.0,640.0,390.0,5.0,0.0
3066,54.0,0.0,390.0,6.0,0.0
3067,57.0,0.0,390.0,3.0,0.0
3068,66.0,384.0,1020.0,1.0,0.0
3069,47.0,0.0,1020.0,5.0,0.0
3070,59.0,0.0,1020.0,4.0,0.0
3071,54.0,0.0,1020.0,3.0,0.0
3072,59.0,384.0,1020.0,6.0,0.0
3073,63.0,0.0,390.0,1.0,0.0
3074,63.0,128.0,390.0,0.0,0.0
3075,56.0,0.0,390.0,4.0,0.0
3076,56.0,640.0,390.0,6.0,0.0
3077,71.0,0.0,1020.0,1.0,0.0
3078,56.0,0.0,390.0,3.0,0.0
3079,63.0,0.0,15.0,2.0,0.0
3080,71.0,384.0,1020.0,0.0,0.0
3081,44.0,0.0,390.0,5.0,0.0
3082,49.0,0.0,1020.0,5.0,0.0
3083,61.0,0.0,1020.0,6.0,0.0
3084,61.0,0.0,1020.0,4.0,0.0
3085,65.0,384.0,1020.0,2.0,0.0
3086,65.0,0.0,390.0,1.0,0.0
3087,65.0,128.0,390.0,0.0,0.0
3088,56.0,0.0,15.0,3.0,0.0
3089,73.0,0.0,390.0,1.0,0.0
3090,41.0,0.0,390.0,5.0,0.0
3091,53.0,0.0,390.0,6.0,0.0
3092,68.0,0.0,390.0,2.0,0.0
3093,73.0,0.0,390.0,0.0,0.0
3094,53.0,0.0,390.0,4.0,0.0
3095,69.0,0.0,390.0,1.0,0.0
3096,54.0,0.0,390.0,4.0,0.0
3097,42.0,512.0,390.0,5.0,0.0
3098,61.0,0.0,390.0,3.0,0.0
3099,54.0,0.0,390.0,6.0,0.0
3100,66.0,0.0,390.0,2.0,0.0
3101,69.0,0.0,390.0,0.0,0.0
3102,33.0,0.0,390.0,5.0,0.0
3103,57.0,0.0,390.0,3.0,0.0
3104,66.0,0.0,390.0,0.0,0.0
3105,61.0,0.0,390.0,2.0,0.0
3106,66.0,256.0,390.0,1.0,0.0
3107,45.0,0.0,390.0,4.0,0.0
3108,45.0,0.0,390.0,6.0,0.0
3109,61.0,0.0,390.0,2.0,0.0
3110,56.0,0.0,390.0,3.0,0.0
3111,49.0,0.0,390.0,4.0,0.0
3112,65.0,128.0,120.0,1.0,0.0
3113,49.0,82.0,390.0,6.0,0.0
3114,37.0,0.0,390.0,5.0,0.0
3115,65.0,0.0,120.0,0.0,0.0
3116,66.0,0.0,120.0,1.0,0.0
3117,66.0,128.0,120.0,0.0,0.0
3118,65.0,1008.0,210.0,1.0,0.0
3119,65.0,0.0,210.0,0.0,0.0
3120,57.0,0.0,960.0,3.0,0.0
3121,42.0,0.0,960.0,4.0,0.0
3122,30.0,1.0,960.0,5.0,0.0
3123,42.0,445.0,960.0,6.0,0.0
3124,61.0,0.0,960.0,2.0,0.0
3125,66.0,0.0,960.0,1.0,0.0
3126,66.0,0.0,960.0,0.0,0.0
3127,69.0,0.0,390.0,0.0,0.0
3128,69.0,640.0,390.0,1.0,0.0
3129,62.0,0.0,1020.0,4.0,0.0
3130,62.0,384.0,1020.0,6.0,0.0
3131,69.0,0.0,1020.0,2.0,0.0
3132,66.0,0.0,1020.0,3.0,0.0
3133,74.0,0.0,510.0,0.0,0.0
3134,50.0,0.0,1020.0,5.0,0.0
3135,74.0,384.0,510.0,1.0,0.0
3136,73.0,0.0,390.0,1.0,0.0
3137,73.0,128.0,390.0,0.0,0.0
3138,74.0,640.0,390.0,1.0,0.0
3139,74.0,0.0,390.0,0.0,0.0
3140,62.0,0.0,1020.0,3.0,0.0
3141,69.0,0.0,1020.0,2.0,0.0
3142,61.0,0.0,1020.0,6.0,0.0
3143,61.0,0.0,1020.0,4.0,0.0
3144,49.0,384.0,1020.0,5.0,0.0
3145,66.0,0.0,510.0,1.0,0.0
3146,66.0,384.0,510.0,0.0,0.0
3147,69.0,0.0,390.0,0.0,0.0
3148,69.0,128.0,390.0,1.0,0.0
3149,74.0,640.0,390.0,1.0,0.0
3150,74.0,0.0,390.0,0.0,0.0
3151,66.0,0.0,1020.0,3.0,0.0
3152,74.0,0.0,510.0,0.0,0.0
3153,71.0,0.0,1020.0,2.0,0.0
3154,59.0,384.0,1020.0,4.0,0.0
3155,47.0,0.0,1020.0,5.0,0.0
3156,59.0,0.0,1020.0,6.0,0.0
3157,74.0,384.0,510.0,1.0,0.0
3158,73.0,128.0,390.0,0.0,0.0
3159,73.0,0.0,390.0,1.0,0.0
3160,74.0,640.0,390.0,0.0,0.0
3161,74.0,0.0,390.0,1.0,0.0
3162,66.0,384.0,510.0,1.0,0.0
3163,57.0,384.0,1020.0,6.0,0.0
3164,74.0,0.0,1020.0,2.0,0.0
3165,57.0,0.0,1020.0,4.0,0.0
3166,69.0,0.0,1020.0,3.0,0.0
3167,66.0,0.0,510.0,0.0,0.0
3168,45.0,0.0,1020.0,5.0,0.0
3169,69.0,0.0,390.0,0.0,0.0
3170,69.0,128.0,390.0,1.0,0.0
3171,74.0,640.0,390.0,1.0,0.0
3172,74.0,0.0,390.0,0.0,0.0
3173,74.0,384.0,1020.0,2.0,0.0
3174,76.0,384.0,510.0,0.0,0.0
3175,55.0,0.0,1020.0,6.0,0.0
3176,55.0,0.0,1020.0,4.0,0.0
3177,43.0,0.0,1020.0,5.0,0.0
3178,71.0,0.0,1020.0,3.0,0.0
3179,76.0,0.0,510.0,1.0,0.0
3180,74.0,0.0,390.0,1.0,0.0
3181,74.0,128.0,390.0,0.0,0.0
3182,76.0,640.0,390.0,1.0,0.0
3183,76.0,0.0,390.0,0.0,0.0
3184,57.0,0.0,1020.0,6.0,0.0
3185,69.0,0.0,510.0,0.0,0.0
3186,57.0,0.0,1020.0,4.0,0.0
3187,73.0,0.0,1020.0,2.0,0.0
3188,69.0,384.0,510.0,1.0,0.0
3189,69.0,0.0,1020.0,3.0,0.0
3190,45.0,384.0,1020.0,5.0,0.0
3191,73.0,128.0,390.0,0.0,0.0
3192,73.0,0.0,390.0,1.0,0.0
3193,76.0,0.0,390.0,0.0,0.0
3194,76.0,640.0,390.0,1.0,0.0
3195,50.0,0.0,1020.0,4.0,0.0
3196,74.0,0.0,510.0,2.0,0.0
3197,38.0,0.0,1020.0,5.0,0.0
3198,78.0,0.0,510.0,0.0,0.0
3199,78.0,384.0,510.0,1.0,0.0
3200,69.0,0.0,510.0,3.0,0.0
3201,50.0,384.0,1020.0,6.0,0.0
3202,67.0,0.0,390.0,3.0,0.0
3203,73.0,0.0,390.0,2.0,0.0
3204,76.0,128.0,390.0,0.0,0.0
3205,76.0,0.0,390.0,1.0,0.0
3206,78.0,0.0,390.0,0.0,0.0
3207,74.0,0.0,390.0,2.0,0.0
3208,57.0,0.0,390.0,6.0,0.0
3209,69.0,0.0,390.0,3.0,0.0
3210,57.0,0.0,390.0,4.0,0.0
3211,45.0,640.0,390.0,5.0,0.0
3212,78.0,0.0,390.0,1.0,0.0
3213,62.0,0.0,510.0,6.0,0.0
3214,74.0,0.0,1020.0,1.0,0.0
3215,66.0,0.0,510.0,3.0,0.0
3216,62.0,0.0,510.0,4.0,0.0
3217,50.0,384.0,510.0,5.0,0.0
3218,74.0,384.0,1020.0,0.0,0.0
3219,49.0,128.0,390.0,5.0,0.0
3220,61.0,0.0,390.0,6.0,0.0
3221,61.0,0.0,390.0,4.0,0.0
3222,64.0,0.0,390.0,3.0,0.0
3223,69.0,0.0,15.0,2.0,0.0
3224,62.0,0.0,390.0,6.0,0.0
3225,50.0,640.0,390.0,5.0,0.0
3226,62.0,0.0,390.0,4.0,0.0
3227,78.0,384.0,1020.0,1.0,0.0
3228,78.0,0.0,1020.0,0.0,0.0
3229,66.0,0.0,390.0,3.0,0.0
3230,59.0,0.0,1020.0,3.0,0.0
3231,56.0,1024.0,1020.0,6.0,0.0
3232,56.0,0.0,1020.0,4.0,0.0
3233,44.0,0.0,1020.0,5.0,0.0
3234,71.0,0.0,1020.0,2.0,0.0
3235,71.0,128.0,390.0,0.0,0.0
3236,71.0,0.0,390.0,1.0,0.0
3237,74.0,0.0,1020.0,1.0,0.0
3238,74.0,384.0,1020.0,0.0,0.0
3239,68.0,0.0,1020.0,3.0,0.0
3240,71.0,0.0,1020.0,2.0,0.0
3241,40.0,0.0,1020.0,5.0,0.0
3242,52.0,1024.0,1020.0,6.0,0.0
3243,52.0,0.0,1020.0,4.0,0.0
3244,68.0,128.0,390.0,0.0,0.0
3245,68.0,0.0,390.0,1.0,0.0
3246,76.0,384.0,1020.0,1.0,0.0
3247,76.0,0.0,1020.0,0.0,0.0
3248,54.0,0.0,1020.0,4.0,0.0
3249,69.0,0.0,1020.0,2.0,0.0
3250,61.0,1024.0,1020.0,3.0,0.0
3251,42.0,0.0,1020.0,5.0,0.0
3252,54.0,0.0,1020.0,6.0,0.0
3253,69.0,0.0,390.0,1.0,0.0
3254,69.0,128.0,390.0,0.0,0.0
3255,73.0,0.0,1020.0,1.0,0.0
3256,73.0,384.0,1020.0,0.0,0.0
3257,50.0,0.0,1020.0,6.0,0.0
3258,69.0,1024.0,1020.0,2.0,0.0
3259,66.0,0.0,1020.0,3.0,0.0
3260,38.0,0.0,1020.0,5.0,0.0
3261,50.0,0.0,1020.0,4.0,0.0
3262,66.0,128.0,390.0,0.0,0.0
3263,66.0,0.0,390.0,1.0,0.0
3264,74.0,0.0,1020.0,0.0,0.0
3265,74.0,384.0,1020.0,1.0,0.0
3266,52.0,0.0,1020.0,6.0,0.0
3267,52.0,384.0,1020.0,4.0,0.0
3268,59.0,0.0,1020.0,3.0,0.0
3269,40.0,0.0,1020.0,5.0,0.0
3270,68.0,0.0,1020.0,2.0,0.0
3271,68.0,0.0,390.0,0.0,0.0
3272,68.0,128.0,390.0,1.0,0.0
3273,50.0,0.0,390.0,4.0,0.0
3274,56.0,640.0,390.0,3.0,0.0
3275,71.0,384.0,1020.0,0.0,0.0
3276,71.0,0.0,1020.0,1.0,0.0
3277,50.0,0.0,390.0,6.0,0.0
3278,38.0,0.0,390.0,5.0,0.0
3279,64.0,0.0,390.0,2.0,0.0
3280,49.0,0.0,1020.0,6.0,0.0
3281,61.0,0.0,1020.0,3.0,0.0
3282,64.0,384.0,1020.0,2.0,0.0
3283,49.0,0.0,1020.0,4.0,0.0
3284,37.0,0.0,1020.0,5.0,0.0
3285,64.0,0.0,390.0,1.0,0.0
3286,64.0,128.0,390.0,0.0,0.0
3287,35.0,0.0,390.0,5.0,0.0
3288,47.0,0.0,390.0,4.0,0.0
3289,68.0,0.0,390.0,2.0,0.0
3290,62.0,0.0,390.0,3.0,0.0
3291,74.0,0.0,390.0,0.0,0.0
3292,74.0,0.0,390.0,1.0,0.0
3293,47.0,640.0,390.0,6.0,0.0
3294,73.0,0.0,510.0,0.0,0.0
3295,73.0,384.0,510.0,1.0,0.0
3296,45.0,384.0,1020.0,6.0,0.0
3297,33.0,0.0,1020.0,5.0,0.0
3298,64.0,0.0,510.0,3.0,0.0
3299,45.0,0.0,1020.0,4.0,0.0
3300,69.0,0.0,510.0,2.0,0.0
3301,62.0,0.0,390.0,3.0,0.0
3302,71.0,0.0,390.0,0.0,0.0
3303,71.0,0.0,390.0,1.0,0.0
3304,68.0,128.0,390.0,2.0,0.0
3305,73.0,0.0,390.0,1.0,0.0
3306,52.0,0.0,390.0,6.0,0.0
3307,40.0,640.0,390.0,5.0,0.0
3308,64.0,0.0,390.0,3.0,0.0
3309,69.0,0.0,390.0,2.0,0.0
3310,73.0,0.0,390.0,0.0,0.0
3311,52.0,0.0,390.0,4.0,0.0
3312,69.0,0.0,510.0,0.0,0.0
3313,57.0,0.0,510.0,6.0,0.0
3314,64.0,384.0,1020.0,2.0,0.0
3315,69.0,0.0,510.0,1.0,0.0
3316,57.0,384.0,510.0,4.0,0.0
3317,61.0,0.0,510.0,3.0,0.0
3318,45.0,0.0,510.0,5.0,0.0
3319,73.0,0.0,390.0,0.0,0.0
3320,59.0,0.0,390.0,3.0,0.0
3321,73.0,0.0,390.0,1.0,0.0
3322,43.0,0.0,390.0,5.0,0.0
3323,55.0,0.0,390.0,4.0,0.0
3324,55.0,128.0,390.0,6.0,0.0
3325,57.0,512.0,390.0,6.0,0.0
3326,76.0,0.0,390.0,1.0,0.0
3327,61.0,0.0,390.0,3.0,0.0
3328,45.0,0.0,390.0,5.0,0.0
3329,69.0,0.0,390.0,2.0,0.0
3330,76.0,0.0,390.0,0.0,0.0
3331,57.0,0.0,390.0,4.0,0.0
3332,81.0,0.0,390.0,1.0,0.0
3333,54.0,0.0,1020.0,6.0,0.0
3334,69.0,0.0,1020.0,2.0,0.0
3335,62.0,1024.0,1020.0,3.0,0.0
3336,54.0,0.0,1020.0,4.0,0.0
3337,81.0,512.0,390.0,0.0,0.0
3338,42.0,0.0,1020.0,5.0,0.0
3339,74.0,128.0,390.0,1.0,0.0
3340,74.0,0.0,390.0,0.0,0.0
3341,78.0,0.0,1020.0,0.0,0.0
3342,78.0,384.0,1020.0,1.0,0.0
3343,69.0,0.0,1020.0,2.0,0.0
3344,62.0,0.0,1020.0,3.0,0.0
3345,59.0,1024.0,1020.0,6.0,0.0
3346,59.0,0.0,1020.0,4.0,0.0
3347,47.0,0.0,1020.0,5.0,0.0
3348,71.0,128.0,390.0,1.0,0.0
3349,71.0,0.0,390.0,0.0,0.0
3350,79.0,0.0,1020.0,0.0,0.0
3351,79.0,384.0,1020.0,1.0,0.0
3352,40.0,0.0,1020.0,5.0,0.0
3353,62.0,0.0,1020.0,3.0,0.0
3354,52.0,1024.0,1020.0,6.0,0.0
3355,52.0,0.0,1020.0,4.0,0.0
3356,67.0,0.0,1020.0,2.0,0.0
3357,73.0,0.0,390.0,1.0,0.0
3358,73.0,128.0,390.0,0.0,0.0
3359,76.0,384.0,1020.0,0.0,0.0
3360,76.0,0.0,1020.0,1.0,0.0
3361,57.0,1024.0,1020.0,6.0,0.0
3362,69.0,0.0,1020.0,2.0,0.0
3363,57.0,0.0,1020.0,4.0,0.0
3364,45.0,0.0,1020.0,5.0,0.0
3365,61.0,0.0,1020.0,3.0,0.0
3366,69.0,0.0,390.0,0.0,0.0
3367,69.0,128.0,390.0,1.0,0.0
3368,78.0,0.0,1020.0,1.0,0.0
3369,78.0,0.0,1020.0,0.0,0.0
3370,69.0,384.0,510.0,2.0,0.0
3371,62.0,0.0,1020.0,3.0,0.0
3372,50.0,0.0,1020.0,4.0,0.0
3373,50.0,384.0,1020.0,6.0,0.0
3374,38.0,0.0,1020.0,5.0,0.0
3375,69.0,128.0,390.0,1.0,0.0
3376,69.0,0.0,390.0,0.0,0.0
3377,66.0,0.0,390.0,2.0,0.0
3378,62.0,0.0,390.0,4.0,0.0
3379,74.0,0.0,1020.0,0.0,0.0
3380,69.0,0.0,390.0,2.0,0.0
3381,50.0,640.0,390.0,5.0,0.0
3382,66.0,0.0,390.0,3.0,0.0
3383,62.0,0.0,390.0,6.0,0.0
3384,74.0,384.0,1020.0,1.0,0.0
3385,50.0,0.0,1020.0,4.0,0.0
3386,66.0,0.0,510.0,2.0,0.0
3387,57.0,384.0,1020.0,3.0,0.0
3388,50.0,0.0,1020.0,6.0,0.0
3389,38.0,0.0,1020.0,5.0,0.0
3390,66.0,0.0,390.0,0.0,0.0
3391,62.0,128.0,390.0,2.0,0.0
3392,66.0,0.0,390.0,1.0,0.0
3393,62.0,0.0,390.0,6.0,0.0
3394,69.0,0.0,1020.0,0.0,0.0
3395,62.0,0.0,390.0,4.0,0.0
3396,69.0,0.0,1020.0,1.0,0.0
3397,50.0,0.0,390.0,5.0,0.0
3398,62.0,640.0,390.0,3.0,0.0
3399,66.0,0.0,390.0,2.0,0.0
3400,50.0,0.0,1020.0,4.0,0.0
3401,38.0,384.0,1020.0,5.0,0.0
3402,50.0,0.0,1020.0,6.0,0.0
3403,62.0,384.0,510.0,2.0,0.0
3404,54.0,0.0,510.0,3.0,0.0
3405,66.0,0.0,390.0,2.0,0.0
3406,62.0,0.0,390.0,1.0,0.0
3407,57.0,0.0,390.0,3.0,0.0
3408,62.0,128.0,390.0,0.0,0.0
3409,62.0,0.0,390.0,3.0,0.0
3410,62.0,0.0,390.0,6.0,0.0
3411,62.0,0.0,390.0,4.0,0.0
3412,66.0,0.0,390.0,0.0,0.0
3413,50.0,512.0,390.0,5.0,0.0
3414,66.0,0.0,390.0,1.0,0.0
3415,69.0,0.0,390.0,2.0,0.0
3416,69.0,0.0,390.0,1.0,0.0
3417,50.0,384.0,1020.0,4.0,0.0
3418,69.0,0.0,390.0,0.0,0.0
3419,66.0,0.0,390.0,3.0,0.0
3420,50.0,0.0,1020.0,6.0,0.0
3421,74.0,512.0,390.0,2.0,0.0
3422,38.0,0.0,1020.0,5.0,0.0
3423,69.0,0.0,390.0,2.0,0.0
3424,62.0,0.0,390.0,3.0,0.0
3425,66.0,128.0,390.0,0.0,0.0
3426,66.0,0.0,390.0,1.0,0.0
3427,74.0,0.0,390.0,2.0,0.0
3428,62.0,0.0,390.0,6.0,0.0
3429,66.0,0.0,390.0,3.0,0.0
3430,62.0,0.0,390.0,4.0,0.0
3431,69.0,0.0,390.0,1.0,0.0
3432,69.0,512.0,390.0,0.0,0.0
3433,50.0,0.0,390.0,5.0,0.0
3434,66.0,0.0,1020.0,2.0,0.0
3435,74.0,0.0,390.0,0.0,0.0
3436,50.0,0.0,1020.0,4.0,0.0
3437,74.0,512.0,390.0,1.0,0.0
3438,69.0,1024.0,1020.0,3.0,0.0
3439,50.0,0.0,1020.0,6.0,0.0
3440,38.0,0.0,1020.0,5.0,0.0
3441,69.0,128.0,390.0,0.0,0.0
3442,69.0,0.0,390.0,1.0,0.0
3443,71.0,384.0,1020.0,1.0,0.0
3444,71.0,0.0,1020.0,0.0,0.0
3445,67.0,0.0,1020.0,2.0,0.0
3446,62.0,0.0,1020.0,4.0,0.0
3447,62.0,0.0,1020.0,3.0,0.0
3448,62.0,0.0,1020.0,6.0,0.0
3449,50.0,1024.0,1020.0,5.0,0.0
3450,69.0,0.0,390.0,0.0,0.0
3451,69.0,128.0,390.0,1.0,0.0
3452,74.0,384.0,1020.0,1.0,0.0
3453,74.0,0.0,1020.0,0.0,0.0
3454,66.0,1024.0,1020.0,2.0,0.0
3455,57.0,0.0,1020.0,3.0,0.0
3456,38.0,0.0,1020.0,5.0,0.0
3457,50.0,0.0,1020.0,4.0,0.0
3458,50.0,0.0,1020.0,6.0,0.0
3459,69.0,0.0,390.0,0.0,0.0
3460,69.0,128.0,390.0,1.0,0.0
3461,71.0,0.0,1020.0,0.0,0.0
3462,71.0,384.0,1020.0,1.0,0.0
3463,62.0,0.0,1020.0,3.0,0.0
3464,50.0,0.0,1020.0,5.0,0.0
3465,62.0,0.0,1020.0,4.0,0.0
3466,62.0,384.0,1020.0,6.0,0.0
3467,67.0,0.0,1020.0,2.0,0.0
3468,69.0,0.0,390.0,0.0,0.0
3469,69.0,128.0,390.0,1.0,0.0
3470,74.0,0.0,1020.0,0.0,0.0
3471,38.0,0.0,390.0,5.0,0.0
3472,74.0,384.0,1020.0,1.0,0.0
3473,50.0,0.0,390.0,6.0,0.0
3474,57.0,0.0,390.0,3.0,0.0
3475,66.0,640.0,390.0,2.0,0.0
3476,50.0,0.0,390.0,4.0,0.0
3477,55.0,0.0,1020.0,4.0,0.0
3478,43.0,0.0,1020.0,5.0,0.0
3479,59.0,0.0,1020.0,3.0,0.0
3480,55.0,384.0,1020.0,6.0,0.0
3481,67.0,0.0,1020.0,2.0,0.0
3482,71.0,0.0,390.0,0.0,0.0
3483,71.0,128.0,390.0,1.0,0.0
3484,71.0,0.0,390.0,2.0,0.0
3485,79.0,384.0,1020.0,0.0,0.0
3486,40.0,640.0,390.0,5.0,0.0
3487,79.0,0.0,1020.0,1.0,0.0
3488,52.0,0.0,390.0,6.0,0.0
3489,64.0,0.0,390.0,3.0,0.0
3490,52.0,0.0,390.0,4.0,0.0
3491,57.0,0.0,1020.0,4.0,0.0
3492,45.0,0.0,1020.0,5.0,0.0
3493,61.0,384.0,1020.0,3.0,0.0
3494,57.0,0.0,1020.0,6.0,0.0
3495,69.0,0.0,1020.0,2.0,0.0
3496,73.0,128.0,390.0,1.0,0.0
3497,73.0,0.0,390.0,0.0,0.0
3498,76.0,128.0,390.0,2.0,0.0
3499,81.0,384.0,510.0,1.0,0.0
3500,57.0,0.0,390.0,3.0,0.0
3501,37.0,0.0,390.0,5.0,0.0
3502,81.0,0.0,510.0,0.0,0.0
3503,49.0,0.0,390.0,4.0,0.0
3504,49.0,0.0,390.0,6.0,0.0
3505,50.0,0.0,390.0,6.0,0.0
3506,38.0,0.0,390.0,5.0,0.0
3507,78.0,0.0,390.0,0.0,0.0
3508,74.0,0.0,390.0,2.0,0.0
3509,69.0,0.0,390.0,3.0,0.0
3510,50.0,512.0,390.0,4.0,0.0
3511,78.0,0.0,390.0,1.0,0.0
3512,74.0,0.0,390.0,0.0,0.0
3513,42.0,512.0,390.0,5.0,0.0
3514,74.0,0.0,390.0,1.0,0.0
3515,54.0,0.0,390.0,6.0,0.0
3516,66.0,0.0,390.0,3.0,0.0
3517,69.0,0.0,390.0,2.0,0.0
3518,54.0,0.0,390.0,4.0,0.0
3519,73.0,512.0,390.0,1.0,0.0
3520,64.0,0.0,390.0,3.0,0.0
3521,57.0,0.0,390.0,6.0,0.0
3522,69.0,0.0,390.0,2.0,0.0
3523,57.0,0.0,390.0,4.0,0.0
3524,73.0,0.0,390.0,0.0,0.0
3525,45.0,0.0,390.0,5.0,0.0
3526,62.0,0.0,390.0,4.0,0.0
3527,69.0,256.0,1020.0,2.0,0.0
3528,74.0,128.0,780.0,0.0,0.0
3529,74.0,0.0,1020.0,1.0,0.0
3530,62.0,0.0,390.0,6.0,0.0
3531,66.0,0.0,1020.0,3.0,0.0
3532,50.0,384.0,390.0,5.0,0.0
3533,54.0,0.0,390.0,4.0,0.0
3534,42.0,128.0,390.0,5.0,0.0
3535,54.0,0.0,390.0,6.0,0.0
3536,69.0,0.0,270.0,0.0,0.0
3537,57.0,0.0,390.0,6.0,0.0
3538,57.0,0.0,390.0,4.0,0.0
3539,45.0,128.0,390.0,5.0,0.0
3540,71.0,128.0,270.0,0.0,0.0
3541,73.0,256.0,270.0,0.0,0.0
3542,38.0,0.0,1020.0,5.0,0.0
3543,50.0,384.0,510.0,4.0,0.0
3544,50.0,256.0,1020.0,6.0,0.0
3545,74.0,256.0,270.0,0.0,0.0
3546,73.0,0.0,270.0,0.0,0.0
3547,74.0,128.0,390.0,0.0,0.0
3548,54.0,0.0,390.0,4.0,0.0
3549,69.0,0.0,270.0,1.0,0.0
3550,57.0,128.0,390.0,4.0,0.0
3551,71.0,128.0,270.0,1.0,0.0
3552,73.0,256.0,270.0,1.0,0.0
3553,74.0,256.0,270.0,1.0,0.0
3554,49.0,0.0,510.0,4.0,0.0
3555,73.0,384.0,270.0,1.0,0.0
3556,54.0,128.0,390.0,4.0,0.0
3557,74.0,0.0,390.0,1.0,0.0
3558,69.0,256.0,270.0,0.0,0.0
3559,57.0,128.0,390.0,4.0,0.0
3560,71.0,128.0,270.0,0.0,0.0
3561,73.0,256.0,270.0,0.0,0.0
3562,74.0,256.0,270.0,0.0,0.0
3563,47.0,384.0,510.0,4.0,0.0
3564,73.0,0.0,270.0,0.0,0.0
3565,74.0,0.0,390.0,0.0,0.0
3566,50.0,128.0,390.0,4.0,0.0
3567,69.0,256.0,270.0,1.0,0.0
3568,71.0,128.0,270.0,1.0,0.0
3569,54.0,128.0,390.0,4.0,0.0
3570,73.0,256.0,270.0,1.0,0.0
3571,45.0,0.0,510.0,4.0,0.0
3572,74.0,256.0,270.0,1.0,0.0
3573,73.0,384.0,270.0,1.0,0.0
3574,50.0,128.0,390.0,4.0,0.0
3575,74.0,0.0,390.0,1.0,0.0
3576,71.0,256.0,270.0,0.0,0.0
3577,54.0,128.0,390.0,4.0,0.0
3578,73.0,128.0,270.0,0.0,0.0
3579,74.0,256.0,270.0,0.0,0.0
3580,43.0,0.0,510.0,4.0,0.0
3581,76.0,256.0,270.0,0.0,0.0
3582,74.0,256.0,270.0,0.0,0.0
3583,47.0,128.0,390.0,4.0,0.0
3584,76.0,128.0,270.0,0.0,0.0
3585,71.0,0.0,270.0,1.0,0.0
3586,74.0,256.0,270.0,0.0,0.0
3587,52.0,128.0,390.0,4.0,0.0
3588,73.0,128.0,270.0,1.0,0.0
3589,73.0,0.0,270.0,0.0,0.0
3590,71.0,0.0,270.0,0.0,0.0
3591,74.0,256.0,270.0,1.0,0.0
3592,69.0,128.0,390.0,0.0,0.0
3593,76.0,128.0,270.0,1.0,0.0
3594,49.0,0.0,510.0,4.0,0.0
3595,74.0,256.0,270.0,1.0,0.0
3596,73.0,0.0,390.0,0.0,0.0
3597,52.0,128.0,390.0,4.0,0.0
3598,76.0,128.0,270.0,1.0,0.0
3599,74.0,256.0,270.0,1.0,0.0
3600,45.0,0.0,390.0,4.0,0.0
3601,76.0,128.0,390.0,0.0,0.0
3602,73.0,128.0,270.0,1.0,0.0
3603,71.0,256.0,270.0,1.0,0.0
3604,78.0,0.0,270.0,0.0,0.0
3605,69.0,256.0,270.0,1.0,0.0
3606,50.0,0.0,510.0,4.0,0.0
3607,76.0,0.0,270.0,0.0,0.0
3608,67.0,256.0,270.0,1.0,0.0
3609,54.0,128.0,390.0,4.0,0.0
3610,78.0,0.0,270.0,0.0,0.0
3611,69.0,128.0,270.0,1.0,0.0
3612,79.0,0.0,270.0,0.0,0.0
3613,71.0,256.0,270.0,1.0,0.0
3614,78.0,0.0,270.0,0.0,0.0
3615,69.0,128.0,270.0,1.0,0.0
3616,57.0,128.0,390.0,4.0,0.0
3617,76.0,256.0,270.0,0.0,0.0
3618,67.0,0.0,270.0,1.0,0.0
3619,74.0,128.0,390.0,0.0,0.0
3620,66.0,128.0,270.0,1.0,0.0
3621,62.0,256.0,510.0,4.0,0.0
3622,64.0,0.0,270.0,1.0,0.0
3623,61.0,128.0,390.0,4.0,0.0
3624,66.0,128.0,270.0,1.0,0.0
3625,69.0,0.0,390.0,0.0,0.0
3626,67.0,256.0,270.0,1.0,0.0
3627,62.0,128.0,390.0,4.0,0.0
3628,78.0,256.0,1020.0,0.0,0.0
3629,69.0,128.0,270.0,1.0,0.0
3630,66.0,256.0,270.0,1.0,0.0
3631,56.0,128.0,390.0,4.0,0.0
3632,71.0,128.0,270.0,1.0,0.0
3633,73.0,0.0,270.0,1.0,0.0
3634,74.0,128.0,270.0,1.0,0.0
3635,71.0,0.0,390.0,0.0,0.0
3636,59.0,128.0,390.0,4.0,0.0
3637,73.0,256.0,270.0,1.0,0.0
3638,71.0,128.0,270.0,1.0,0.0
3639,74.0,0.0,1020.0,0.0,0.0
3640,56.0,128.0,390.0,4.0,0.0
3641,69.0,256.0,270.0,1.0,0.0
3642,68.0,128.0,270.0,1.0,0.0
3643,52.0,128.0,390.0,4.0,0.0
3644,66.0,256.0,270.0,1.0,0.0
3645,68.0,0.0,390.0,0.0,0.0
3646,64.0,128.0,270.0,1.0,0.0
3647,61.0,128.0,390.0,4.0,0.0
3648,66.0,256.0,270.0,1.0,0.0
3649,68.0,128.0,270.0,1.0,0.0
3650,52.0,128.0,390.0,4.0,0.0
3651,76.0,256.0,1020.0,0.0,0.0
3652,64.0,256.0,270.0,1.0,0.0
3653,69.0,128.0,270.0,1.0,0.0
3654,54.0,128.0,390.0,4.0,0.0
3655,71.0,0.0,270.0,1.0,0.0
3656,73.0,128.0,270.0,1.0,0.0
3657,69.0,128.0,390.0,0.0,0.0
3658,57.0,0.0,390.0,4.0,0.0
3659,71.0,256.0,270.0,1.0,0.0
3660,54.0,128.0,390.0,4.0,0.0
3661,69.0,128.0,270.0,1.0,0.0
3662,73.0,0.0,1020.0,0.0,0.0
3663,68.0,256.0,270.0,1.0,0.0
3664,50.0,128.0,390.0,4.0,0.0
3665,66.0,128.0,270.0,1.0,0.0
3666,64.0,256.0,270.0,1.0,0.0
3667,59.0,0.0,390.0,4.0,0.0
3668,66.0,128.0,390.0,0.0,0.0
3669,62.0,128.0,270.0,1.0,0.0
3670,64.0,256.0,270.0,1.0,0.0
3671,66.0,128.0,270.0,1.0,0.0
3672,50.0,128.0,390.0,4.0,0.0
3673,74.0,256.0,1020.0,0.0,0.0
3674,62.0,256.0,270.0,1.0,0.0
3675,68.0,256.0,270.0,1.0,0.0
3676,52.0,256.0,1020.0,4.0,0.0
3677,69.0,0.0,270.0,1.0,0.0
3678,71.0,128.0,270.0,1.0,0.0
3679,68.0,128.0,390.0,0.0,0.0
3680,69.0,0.0,270.0,1.0,0.0
3681,71.0,0.0,1020.0,0.0,0.0
3682,50.0,256.0,510.0,4.0,0.0
3683,68.0,256.0,270.0,1.0,0.0
3684,66.0,0.0,270.0,1.0,0.0
3685,49.0,256.0,1020.0,4.0,0.0
3686,64.0,256.0,270.0,1.0,0.0
3687,66.0,256.0,270.0,1.0,0.0
3688,68.0,128.0,270.0,1.0,0.0
3689,64.0,128.0,390.0,0.0,0.0
3690,66.0,0.0,270.0,1.0,0.0
3691,64.0,128.0,270.0,1.0,0.0
3692,74.0,128.0,390.0,0.0,0.0
3693,47.0,0.0,510.0,4.0,0.0
3694,62.0,256.0,270.0,1.0,0.0
3695,45.0,0.0,1020.0,4.0,0.0
3696,64.0,256.0,270.0,1.0,0.0
3697,73.0,256.0,510.0,0.0,0.0
3698,69.0,0.0,270.0,1.0,0.0
3699,68.0,128.0,270.0,1.0,0.0
3700,71.0,128.0,390.0,0.0,0.0
3701,66.0,256.0,270.0,1.0,0.0
3702,64.0,128.0,270.0,1.0,0.0
3703,73.0,128.0,390.0,0.0,0.0
3704,62.0,256.0,270.0,1.0,0.0
3705,69.0,256.0,510.0,0.0,0.0
3706,61.0,256.0,270.0,1.0,0.0
3707,62.0,0.0,270.0,1.0,0.0
3708,64.0,128.0,270.0,1.0,0.0
3709,61.0,128.0,390.0,0.0,0.0
3710,62.0,256.0,270.0,1.0,0.0
3711,61.0,128.0,270.0,1.0,0.0
3712,64.0,128.0,390.0,0.0,0.0
3713,59.0,512.0,270.0,1.0,0.0
3714,69.0,384.0,510.0,0.0,0.0
3715,57.0,0.0,1020.0,1.0,0.0
3716,57.0,0.0,1020.0,6.0,0.0
3717,57.0,384.0,1020.0,4.0,0.0
3718,61.0,0.0,1020.0,3.0,0.0
3719,64.0,0.0,1020.0,2.0,0.0
3720,45.0,0.0,1020.0,5.0,0.0
3721,68.0,128.0,390.0,0.0,0.0
3722,69.0,640.0,390.0,1.0,0.0
3723,69.0,0.0,390.0,0.0,0.0
3724,61.0,384.0,510.0,0.0,0.0
3725,57.0,0.0,1020.0,3.0,0.0
3726,56.0,0.0,1020.0,6.0,0.0
3727,64.0,0.0,1020.0,2.0,0.0
3728,44.0,384.0,1020.0,5.0,0.0
3729,61.0,0.0,510.0,1.0,0.0
3730,56.0,0.0,1020.0,4.0,0.0
3731,64.0,0.0,390.0,1.0,0.0
3732,64.0,128.0,390.0,0.0,0.0
3733,69.0,640.0,390.0,0.0,0.0
3734,69.0,0.0,390.0,1.0,0.0
3735,42.0,0.0,1020.0,5.0,0.0
3736,66.0,0.0,1020.0,2.0,0.0
3737,69.0,384.0,510.0,0.0,0.0
3738,54.0,0.0,1020.0,4.0,0.0
3739,54.0,384.0,1020.0,6.0,0.0
3740,69.0,0.0,510.0,1.0,0.0
3741,61.0,0.0,1020.0,3.0,0.0
3742,68.0,0.0,390.0,1.0,0.0
3743,68.0,128.0,390.0,0.0,0.0
3744,69.0,640.0,390.0,0.0,0.0
3745,69.0,0.0,390.0,1.0,0.0
3746,69.0,0.0,1020.0,2.0,0.0
3747,52.0,0.0,1020.0,4.0,0.0
3748,64.0,384.0,1020.0,3.0,0.0
3749,52.0,0.0,1020.0,6.0,0.0
3750,40.0,0.0,1020.0,5.0,0.0
3751,61.0,0.0,510.0,0.0,0.0
3752,61.0,384.0,510.0,1.0,0.0
3753,64.0,0.0,390.0,0.0,0.0
3754,64.0,128.0,390.0,1.0,0.0
3755,69.0,640.0,390.0,0.0,0.0
3756,69.0,0.0,390.0,1.0,0.0
3757,69.0,0.0,1020.0,2.0,0.0
3758,50.0,0.0,1020.0,4.0,0.0
3759,50.0,0.0,1020.0,6.0,0.0
3760,38.0,384.0,1020.0,5.0,0.0
3761,71.0,384.0,510.0,0.0,0.0
3762,66.0,0.0,1020.0,3.0,0.0
3763,71.0,0.0,510.0,1.0,0.0
3764,69.0,128.0,390.0,1.0,0.0
3765,69.0,0.0,390.0,0.0,0.0
3766,71.0,0.0,390.0,0.0,0.0
3767,71.0,640.0,390.0,1.0,0.0
3768,52.0,0.0,1020.0,6.0,0.0
3769,40.0,0.0,1020.0,5.0,0.0
3770,64.0,384.0,1020.0,3.0,0.0
3771,64.0,0.0,510.0,0.0,0.0
3772,52.0,0.0,1020.0,4.0,0.0
3773,68.0,0.0,1020.0,2.0,0.0
3774,64.0,384.0,510.0,1.0,0.0
3775,68.0,0.0,390.0,0.0,0.0
3776,68.0,128.0,390.0,1.0,0.0
3777,71.0,0.0,390.0,0.0,0.0
3778,71.0,640.0,390.0,1.0,0.0
3779,64.0,0.0,510.0,3.0,0.0
3780,33.0,0.0,2550.0,5.0,0.0
3781,45.0,384.0,1920.0,4.0,0.0
3782,69.0,0.0,510.0,2.0,0.0
3783,45.0,256.0,2550.0,6.0,0.0
3784,73.0,0.0,510.0,0.0,0.0
3785,73.0,384.0,510.0,1.0,0.0
3786,68.0,512.0,390.0,2.0,0.0
3787,62.0,0.0,390.0,3.0,0.0
3788,71.0,0.0,390.0,0.0,0.0
3789,71.0,0.0,390.0,1.0,0.0
3790,73.0,0.0,390.0,1.0,0.0
3791,73.0,512.0,390.0,0.0,0.0
3792,64.0,0.0,390.0,3.0,0.0
3793,69.0,0.0,390.0,2.0,0.0
3794,64.0,0.0,1020.0,2.0,0.0
3795,69.0,0.0,1020.0,0.0,0.0
3796,69.0,128.0,780.0,1.0,0.0
3797,61.0,0.0,1020.0,3.0,0.0
3798,49.0,128.0,390.0,4.0,0.0
3799,64.0,0.0,270.0,1.0,0.0
3800,52.0,128.0,390.0,4.0,0.0
3801,66.0,128.0,270.0,1.0,0.0
3802,68.0,256.0,270.0,1.0,0.0
3803,69.0,256.0,270.0,1.0,0.0
3804,57.0,384.0,510.0,4.0,0.0
3805,68.0,0.0,270.0,1.0,0.0
3806,61.0,0.0,390.0,4.0,0.0
3807,69.0,128.0,390.0,1.0,0.0
3808,64.0,256.0,270.0,0.0,0.0
3809,64.0,128.0,390.0,4.0,0.0
3810,66.0,128.0,270.0,0.0,0.0
3811,68.0,256.0,270.0,0.0,0.0
3812,69.0,256.0,270.0,0.0,0.0
3813,56.0,384.0,510.0,4.0,0.0
3814,68.0,0.0,270.0,0.0,0.0
3815,69.0,0.0,390.0,0.0,0.0
3816,61.0,128.0,390.0,4.0,0.0
3817,64.0,256.0,270.0,1.0,0.0
3818,66.0,128.0,270.0,1.0,0.0
3819,64.0,128.0,390.0,4.0,0.0
3820,68.0,256.0,270.0,1.0,0.0
3821,69.0,256.0,270.0,1.0,0.0
3822,54.0,384.0,510.0,4.0,0.0
3823,68.0,0.0,270.0,1.0,0.0
3824,69.0,128.0,390.0,1.0,0.0
3825,57.0,0.0,390.0,4.0,0.0
3826,64.0,256.0,270.0,0.0,0.0
3827,61.0,128.0,390.0,4.0,0.0
3828,66.0,128.0,270.0,0.0,0.0
3829,68.0,256.0,270.0,0.0,0.0
3830,69.0,256.0,270.0,0.0,0.0
3831,52.0,384.0,510.0,4.0,0.0
3832,68.0,0.0,270.0,0.0,0.0
3833,57.0,128.0,390.0,4.0,0.0
3834,69.0,0.0,390.0,0.0,0.0
3835,66.0,256.0,270.0,1.0,0.0
3836,61.0,128.0,390.0,4.0,0.0
3837,68.0,128.0,270.0,1.0,0.0
3838,69.0,256.0,270.0,1.0,0.0
3839,71.0,256.0,270.0,1.0,0.0
3840,50.0,256.0,510.0,4.0,0.0
3841,69.0,0.0,270.0,1.0,0.0
3842,71.0,128.0,270.0,1.0,0.0
3843,54.0,128.0,390.0,4.0,0.0
3844,69.0,0.0,270.0,1.0,0.0
3845,66.0,256.0,270.0,0.0,0.0
3846,59.0,128.0,390.0,4.0,0.0
3847,68.0,0.0,270.0,1.0,0.0
3848,68.0,128.0,270.0,0.0,0.0
3849,66.0,256.0,270.0,1.0,0.0
3850,69.0,0.0,270.0,0.0,0.0
3851,56.0,256.0,510.0,4.0,0.0
3852,71.0,128.0,270.0,0.0,0.0
3853,64.0,128.0,390.0,1.0,0.0
3854,69.0,0.0,270.0,0.0,0.0
3855,68.0,128.0,390.0,1.0,0.0
3856,71.0,128.0,270.0,0.0,0.0
3857,59.0,0.0,390.0,4.0,0.0
3858,69.0,256.0,270.0,0.0,0.0
3859,68.0,128.0,270.0,0.0,0.0
3860,71.0,128.0,390.0,1.0,0.0
3861,52.0,0.0,390.0,4.0,0.0
3862,66.0,256.0,270.0,0.0,0.0
3863,73.0,0.0,270.0,1.0,0.0
3864,64.0,256.0,270.0,0.0,0.0
3865,45.0,0.0,510.0,4.0,0.0
3866,62.0,0.0,270.0,0.0,0.0
3867,71.0,256.0,270.0,1.0,0.0
3868,64.0,128.0,270.0,0.0,0.0
3869,73.0,0.0,270.0,1.0,0.0
3870,49.0,128.0,390.0,4.0,0.0
3871,74.0,256.0,270.0,1.0,0.0
3872,66.0,0.0,270.0,0.0,0.0
3873,52.0,128.0,390.0,4.0,0.0
3874,73.0,0.0,270.0,1.0,0.0
3875,64.0,128.0,270.0,0.0,0.0
3876,71.0,256.0,270.0,1.0,0.0
3877,62.0,0.0,270.0,0.0,0.0
3878,61.0,128.0,270.0,0.0,0.0
3879,69.0,128.0,390.0,1.0,0.0
3880,57.0,256.0,510.0,4.0,0.0
3881,59.0,0.0,270.0,0.0,0.0
3882,61.0,128.0,270.0,0.0,0.0
3883,64.0,128.0,390.0,1.0,0.0
3884,56.0,0.0,390.0,4.0,0.0
3885,62.0,256.0,270.0,0.0,0.0
3886,57.0,128.0,390.0,4.0,0.0
3887,64.0,128.0,270.0,0.0,0.0
3888,73.0,256.0,1020.0,1.0,0.0
3889,61.0,256.0,270.0,0.0,0.0
3890,51.0,128.0,390.0,4.0,0.0
3891,66.0,128.0,270.0,0.0,0.0
3892,68.0,0.0,270.0,0.0,0.0
3893,69.0,128.0,270.0,0.0,0.0
3894,54.0,0.0,390.0,4.0,0.0
3895,66.0,128.0,390.0,1.0,0.0
3896,68.0,256.0,270.0,0.0,0.0
3897,69.0,256.0,1020.0,1.0,0.0
3898,66.0,128.0,270.0,0.0,0.0
3899,51.0,128.0,390.0,4.0,0.0
3900,64.0,256.0,270.0,0.0,0.0
3901,63.0,128.0,270.0,0.0,0.0
3902,47.0,128.0,390.0,4.0,0.0
3903,61.0,0.0,270.0,0.0,0.0
3904,63.0,0.0,390.0,1.0,0.0
3905,59.0,128.0,270.0,0.0,0.0
3906,56.0,128.0,390.0,4.0,0.0
3907,61.0,256.0,270.0,0.0,0.0
3908,47.0,128.0,390.0,4.0,0.0
3909,63.0,128.0,270.0,0.0,0.0
3910,71.0,0.0,1020.0,1.0,0.0
3911,59.0,256.0,270.0,0.0,0.0
3912,64.0,128.0,270.0,0.0,0.0
3913,49.0,128.0,390.0,4.0,0.0
3914,66.0,256.0,270.0,0.0,0.0
3915,64.0,0.0,390.0,1.0,0.0
3916,68.0,128.0,270.0,0.0,0.0
3917,52.0,128.0,390.0,4.0,0.0
3918,66.0,256.0,270.0,0.0,0.0
3919,68.0,256.0,1020.0,1.0,0.0
3920,49.0,128.0,390.0,4.0,0.0
3921,64.0,128.0,270.0,0.0,0.0
3922,63.0,256.0,270.0,0.0,0.0
3923,45.0,128.0,390.0,4.0,0.0
3924,61.0,128.0,270.0,0.0,0.0
3925,59.0,0.0,270.0,0.0,0.0
3926,57.0,128.0,270.0,0.0,0.0
3927,54.0,0.0,390.0,4.0,0.0
3928,61.0,128.0,390.0,1.0,0.0
3929,59.0,256.0,270.0,0.0,0.0
3930,45.0,128.0,390.0,4.0,0.0
3931,69.0,0.0,1020.0,1.0,0.0
3932,61.0,128.0,270.0,0.0,0.0
3933,57.0,256.0,270.0,0.0,0.0
3934,47.0,256.0,1020.0,4.0,0.0
3935,63.0,256.0,270.0,0.0,0.0
3936,64.0,256.0,270.0,0.0,0.0
3937,63.0,128.0,390.0,1.0,0.0
3938,66.0,128.0,270.0,0.0,0.0
3939,64.0,0.0,270.0,0.0,0.0
3940,63.0,256.0,270.0,0.0,0.0
3941,66.0,0.0,1020.0,1.0,0.0
3942,45.0,0.0,510.0,4.0,0.0
3943,61.0,256.0,270.0,0.0,0.0
3944,44.0,0.0,1020.0,4.0,0.0
3945,59.0,256.0,270.0,0.0,0.0
3946,61.0,256.0,270.0,0.0,0.0
3947,59.0,128.0,390.0,1.0,0.0
3948,63.0,128.0,270.0,0.0,0.0
3949,61.0,256.0,270.0,0.0,0.0
3950,59.0,128.0,270.0,0.0,0.0
3951,69.0,128.0,390.0,1.0,0.0
3952,42.0,256.0,510.0,4.0,0.0
3953,57.0,0.0,270.0,0.0,0.0
3954,40.0,256.0,1020.0,4.0,0.0
3955,59.0,256.0,270.0,0.0,0.0
3956,68.0,0.0,510.0,1.0,0.0
3957,64.0,256.0,270.0,0.0,0.0
3958,66.0,128.0,390.0,1.0,0.0
3959,63.0,128.0,270.0,0.0,0.0
3960,61.0,0.0,270.0,0.0,0.0
3961,68.0,128.0,390.0,1.0,0.0
3962,59.0,128.0,270.0,0.0,0.0
3963,57.0,256.0,270.0,0.0,0.0
3964,64.0,0.0,510.0,1.0,0.0
3965,56.0,256.0,270.0,0.0,0.0
3966,57.0,256.0,270.0,0.0,0.0
3967,68.0,128.0,390.0,1.0,0.0
3968,59.0,128.0,270.0,0.0,0.0
3969,57.0,256.0,270.0,0.0,0.0
3970,71.0,128.0,390.0,1.0,0.0
3971,56.0,128.0,270.0,0.0,0.0
3972,54.0,384.0,270.0,0.0,0.0
3973,52.0,512.0,390.0,0.0,0.0
3974,49.0,0.0,1020.0,6.0,0.0
3975,69.0,1024.0,1020.0,2.0,0.0
3976,37.0,0.0,1020.0,5.0,0.0
3977,64.0,0.0,1020.0,3.0,0.0
3978,49.0,0.0,1020.0,4.0,0.0
3979,76.0,0.0,390.0,1.0,0.0
3980,69.0,0.0,390.0,1.0,0.0
3981,64.0,128.0,390.0,0.0,0.0
3982,73.0,0.0,1020.0,0.0,0.0
3983,73.0,384.0,1020.0,1.0,0.0
3984,69.0,0.0,1020.0,2.0,0.0
3985,64.0,0.0,1020.0,3.0,0.0
3986,42.0,0.0,1020.0,5.0,0.0
3987,54.0,1024.0,1020.0,6.0,0.0
3988,54.0,0.0,1020.0,4.0,0.0
3989,66.0,128.0,390.0,0.0,0.0
3990,66.0,0.0,390.0,1.0,0.0
3991,74.0,384.0,1020.0,1.0,0.0
3992,74.0,0.0,1020.0,0.0,0.0
3993,47.0,0.0,1020.0,6.0,0.0
3994,47.0,0.0,1020.0,4.0,0.0
3995,69.0,0.0,1020.0,2.0,0.0
3996,62.0,0.0,1020.0,3.0,0.0
3997,35.0,1024.0,1020.0,5.0,0.0
3998,68.0,0.0,390.0,0.0,0.0
3999,68.0,128.0,390.0,1.0,0.0
4000,71.0,0.0,1020.0,0.0,0.0
4001,71.0,384.0,1020.0,1.0,0.0
4002,52.0,0.0,1020.0,6.0,0.0
4003,68.0,0.0,1020.0,2.0,0.0
4004,40.0,0.0,1020.0,5.0,0.0
4005,64.0,0.0,1020.0,3.0,0.0
4006,52.0,768.0,1020.0,4.0,0.0
4007,64.0,128.0,390.0,0.0,0.0
4008,64.0,0.0,390.0,1.0,0.0
4009,73.0,256.0,780.0,1.0,0.0
4010,73.0,0.0,1020.0,0.0,0.0
4011,45.0,0.0,1020.0,4.0,0.0
4012,69.0,0.0,1020.0,2.0,0.0
4013,33.0,0.0,1020.0,5.0,0.0
4014,64.0,0.0,1020.0,3.0,0.0
4015,45.0,0.0,1020.0,6.0,0.0
4016,69.0,256.0,270.0,1.0,0.0
4017,64.0,128.0,390.0,0.0,0.0
4018,68.0,128.0,270.0,1.0,0.0
4019,66.0,256.0,270.0,1.0,0.0
4020,69.0,0.0,1020.0,0.0,0.0
4021,57.0,128.0,390.0,4.0,0.0
4022,64.0,128.0,270.0,1.0,0.0
4023,62.0,256.0,270.0,1.0,0.0
4024,45.0,0.0,1020.0,4.0,0.0
4025,61.0,256.0,270.0,1.0,0.0
4026,66.0,256.0,270.0,1.0,0.0
4027,64.0,128.0,270.0,1.0,0.0
4028,61.0,128.0,390.0,0.0,0.0
4029,62.0,256.0,270.0,1.0,0.0
4030,57.0,128.0,390.0,4.0,0.0
4031,64.0,0.0,1020.0,0.0,0.0
4032,61.0,128.0,270.0,1.0,0.0
4033,59.0,256.0,270.0,1.0,0.0
4034,57.0,256.0,270.0,1.0,0.0
4035,45.0,256.0,1020.0,4.0,0.0
4036,52.0,256.0,270.0,1.0,0.0
4037,54.0,128.0,270.0,1.0,0.0
4038,57.0,128.0,390.0,0.0,0.0
4039,56.0,0.0,270.0,1.0,0.0
4040,57.0,128.0,270.0,1.0,0.0
4041,57.0,128.0,390.0,4.0,0.0
4042,61.0,0.0,390.0,0.0,0.0
4043,59.0,256.0,270.0,1.0,0.0
4044,45.0,256.0,1020.0,4.0,0.0
4045,64.0,128.0,390.0,0.0,0.0
4046,61.0,128.0,270.0,1.0,0.0
4047,59.0,256.0,270.0,1.0,0.0
4048,61.0,128.0,390.0,0.0,0.0
4049,57.0,128.0,270.0,1.0,0.0
4050,59.0,0.0,270.0,1.0,0.0
4051,61.0,128.0,270.0,1.0,0.0
4052,64.0,128.0,390.0,0.0,0.0
4053,57.0,0.0,390.0,4.0,0.0
4054,62.0,384.0,270.0,1.0,0.0
4055,45.0,0.0,1020.0,4.0,0.0
4056,69.0,512.0,390.0,0.0,0.0
4057,45.0,1024.0,1020.0,6.0,0.0
4058,64.0,0.0,390.0,1.0,0.0
4059,64.0,0.0,1020.0,3.0,0.0
4060,33.0,0.0,1020.0,5.0,0.0
4061,61.0,0.0,1020.0,2.0,0.0
4062,57.0,0.0,390.0,1.0,0.0
4063,64.0,128.0,390.0,0.0,0.0
4064,66.0,0.0,1020.0,1.0,0.0
4065,66.0,256.0,1020.0,0.0,0.0
4066,57.0,0.0,1020.0,4.0,0.0
4067,57.0,0.0,1020.0,3.0,0.0
4068,45.0,0.0,1020.0,5.0,0.0
4069,62.0,0.0,1020.0,2.0,0.0
4070,57.0,0.0,1020.0,6.0,0.0
4071,64.0,128.0,390.0,1.0,0.0
4072,64.0,128.0,270.0,0.0,0.0
4073,62.0,256.0,270.0,0.0,0.0
4074,61.0,256.0,270.0,0.0,0.0
4075,69.0,0.0,1020.0,1.0,0.0
4076,59.0,256.0,270.0,0.0,0.0
4077,45.0,256.0,1020.0,4.0,0.0
4078,61.0,256.0,270.0,0.0,0.0
4079,62.0,256.0,270.0,0.0,0.0
4080,64.0,128.0,390.0,1.0,0.0
4081,64.0,128.0,270.0,0.0,0.0
4082,62.0,0.0,270.0,0.0,0.0
4083,61.0,256.0,270.0,0.0,0.0
4084,66.0,256.0,1020.0,1.0,0.0
4085,59.0,256.0,270.0,0.0,0.0
4086,57.0,256.0,270.0,0.0,0.0
4087,57.0,0.0,1020.0,4.0,0.0
4088,59.0,0.0,270.0,0.0,0.0
4089,64.0,128.0,390.0,1.0,0.0
4090,61.0,128.0,270.0,0.0,0.0
4091,59.0,256.0,270.0,0.0,0.0
4092,69.0,0.0,1020.0,1.0,0.0
4093,33.0,0.0,390.0,5.0,0.0
4094,45.0,128.0,390.0,4.0,0.0
4095,57.0,128.0,270.0,0.0,0.0
4096,64.0,0.0,510.0,2.0,0.0
4097,61.0,0.0,510.0,3.0,0.0
4098,45.0,0.0,390.0,6.0,0.0
4099,56.0,512.0,270.0,0.0,0.0
4100,54.0,384.0,510.0,0.0,0.0
4101,62.0,0.0,1020.0,3.0,0.0
4102,38.0,0.0,1020.0,5.0,0.0
4103,50.0,384.0,1020.0,6.0,0.0
4104,66.0,0.0,1020.0,2.0,0.0
4105,50.0,0.0,1020.0,4.0,0.0
4106,66.0,0.0,390.0,1.0,0.0
4107,66.0,128.0,390.0,0.0,0.0
4108,47.0,0.0,390.0,4.0,0.0
4109,47.0,0.0,390.0,6.0,0.0
4110,74.0,384.0,1020.0,1.0,0.0
4111,35.0,0.0,390.0,5.0,0.0
4112,66.0,0.0,390.0,3.0,0.0
4113,71.0,640.0,390.0,2.0,0.0
4114,74.0,0.0,1020.0,0.0,0.0
4115,52.0,0.0,1020.0,4.0,0.0
4116,52.0,384.0,1020.0,6.0,0.0
4117,68.0,0.0,1020.0,3.0,0.0
4118,40.0,0.0,1020.0,5.0,0.0
4119,59.0,0.0,1020.0,2.0,0.0
4120,68.0,0.0,390.0,0.0,0.0
4121,68.0,128.0,390.0,1.0,0.0
4122,76.0,384.0,510.0,1.0,0.0
4123,56.0,0.0,390.0,6.0,0.0
4124,64.0,0.0,390.0,3.0,0.0
4125,76.0,0.0,510.0,0.0,0.0
4126,44.0,128.0,390.0,5.0,0.0
4127,56.0,0.0,390.0,4.0,0.0
4128,71.0,0.0,390.0,2.0,0.0
4129,57.0,0.0,390.0,6.0,0.0
4130,64.0,0.0,390.0,3.0,0.0
4131,69.0,0.0,390.0,2.0,0.0
4132,57.0,0.0,390.0,4.0,0.0
4133,73.0,512.0,390.0,0.0,0.0
4134,73.0,0.0,390.0,1.0,0.0
4135,45.0,0.0,390.0,5.0,0.0
4136,69.0,0.0,390.0,1.0,0.0
4137,49.0,256.0,390.0,6.0,0.0
4138,61.0,0.0,390.0,4.0,0.0
4139,61.0,0.0,390.0,3.0,0.0
4140,37.0,0.0,390.0,5.0,0.0
4141,64.0,0.0,390.0,2.0,0.0
4142,69.0,0.0,390.0,0.0,0.0
4143,64.0,0.0,390.0,2.0,0.0
4144,59.0,0.0,390.0,3.0,0.0
4145,64.0,64.0,390.0,4.0,0.0
4146,52.0,0.0,390.0,6.0,0.0
4147,40.0,0.0,390.0,5.0,0.0
4148,68.0,0.0,120.0,0.0,0.0
4149,68.0,128.0,120.0,1.0,0.0
4150,69.0,128.0,120.0,1.0,0.0
4151,69.0,0.0,120.0,0.0,0.0
4152,68.0,320.0,180.0,1.0,0.0
4153,68.0,0.0,180.0,0.0,0.0
4154,33.0,0.0,1020.0,5.0,0.0
4155,61.0,0.0,1020.0,3.0,0.0
4156,64.0,0.0,1020.0,2.0,0.0
4157,69.0,0.0,1020.0,1.0,0.0
4158,45.0,0.0,1020.0,6.0,0.0
4159,69.0,0.0,1020.0,0.0,0.0
4160,57.0,256.0,270.0,4.0,0.0
4161,59.0,256.0,270.0,4.0,0.0
4162,61.0,256.0,270.0,4.0,0.0
4163,59.0,256.0,270.0,4.0,0.0
4164,64.0,128.0,390.0,1.0,0.0
4165,57.0,128.0,270.0,4.0,0.0
4166,55.0,256.0,270.0,4.0,0.0
4167,69.0,0.0,2040.0,1.0,0.0
4168,54.0,256.0,270.0,4.0,0.0
4169,55.0,256.0,270.0,4.0,0.0
4170,57.0,256.0,270.0,4.0,0.0
4171,55.0,256.0,270.0,4.0,0.0
4172,73.0,128.0,390.0,0.0,0.0
4173,54.0,128.0,270.0,4.0,0.0
4174,52.0,256.0,270.0,4.0,0.0
4175,51.0,256.0,270.0,4.0,0.0
4176,78.0,0.0,2040.0,0.0,0.0
4177,54.0,256.0,270.0,4.0,0.0
4178,63.0,128.0,390.0,1.0,0.0
4179,59.0,128.0,270.0,4.0,0.0
4180,57.0,256.0,270.0,4.0,0.0
4181,55.0,128.0,270.0,4.0,0.0
4182,66.0,128.0,390.0,1.0,0.0
4183,54.0,256.0,270.0,4.0,0.0
4184,67.0,128.0,270.0,1.0,0.0
4185,52.0,128.0,390.0,4.0,0.0
4186,69.0,256.0,270.0,1.0,0.0
4187,55.0,0.0,390.0,4.0,0.0
4188,71.0,128.0,390.0,0.0,0.0
4189,71.0,128.0,270.0,1.0,0.0
4190,69.0,256.0,270.0,1.0,0.0
4191,47.0,128.0,270.0,6.0,0.0
4192,59.0,128.0,390.0,3.0,0.0
4193,35.0,0.0,270.0,5.0,0.0
4194,59.0,0.0,390.0,4.0,0.0
4195,71.0,0.0,390.0,2.0,0.0
4196,75.0,0.0,390.0,0.0,0.0
4197,67.0,0.0,270.0,1.0,0.0
4198,66.0,256.0,270.0,1.0,0.0
4199,67.0,128.0,270.0,1.0,0.0
4200,76.0,0.0,390.0,0.0,0.0
4201,59.0,256.0,1020.0,3.0,0.0
4202,67.0,0.0,1020.0,2.0,0.0
4203,64.0,128.0,390.0,4.0,0.0
4204,52.0,0.0,1020.0,6.0,0.0
4205,40.0,0.0,1020.0,5.0,0.0
4206,66.0,256.0,270.0,1.0,0.0
4207,64.0,128.0,270.0,1.0,0.0
4208,64.0,0.0,390.0,0.0,0.0
4209,55.0,128.0,390.0,4.0,0.0
4210,67.0,0.0,270.0,1.0,0.0
4211,59.0,128.0,390.0,4.0,0.0
4212,66.0,128.0,270.0,1.0,0.0
4213,69.0,256.0,270.0,1.0,0.0
4214,52.0,256.0,270.0,4.0,0.0
4215,67.0,256.0,2040.0,1.0,0.0
4216,54.0,256.0,270.0,4.0,0.0
4217,55.0,256.0,270.0,4.0,0.0
4218,54.0,256.0,270.0,4.0,0.0
4219,71.0,128.0,390.0,0.0,0.0
4220,52.0,128.0,270.0,4.0,0.0
4221,50.0,256.0,270.0,4.0,0.0
4222,49.0,256.0,270.0,4.0,0.0
4223,76.0,0.0,2040.0,0.0,0.0
4224,52.0,0.0,270.0,4.0,0.0
4225,57.0,128.0,270.0,4.0,0.0
4226,61.0,128.0,390.0,1.0,0.0
4227,55.0,256.0,270.0,4.0,0.0
4228,64.0,128.0,390.0,1.0,0.0
4229,54.0,128.0,270.0,4.0,0.0
4230,52.0,256.0,270.0,4.0,0.0
4231,66.0,128.0,270.0,1.0,0.0
4232,50.0,128.0,390.0,4.0,0.0
4233,67.0,256.0,270.0,1.0,0.0
4234,54.0,0.0,390.0,4.0,0.0
4235,69.0,128.0,390.0,0.0,0.0
4236,69.0,128.0,270.0,1.0,0.0
4237,67.0,256.0,270.0,1.0,0.0
4238,69.0,128.0,390.0,2.0,0.0
4239,57.0,0.0,390.0,3.0,0.0
4240,73.0,0.0,390.0,0.0,0.0
4241,57.0,0.0,390.0,4.0,0.0
4242,45.0,0.0,270.0,6.0,0.0
4243,33.0,0.0,270.0,5.0,0.0
4244,66.0,128.0,270.0,1.0,0.0
4245,64.0,256.0,270.0,1.0,0.0
4246,62.0,128.0,270.0,4.0,0.0
4247,66.0,0.0,390.0,1.0,0.0
4248,66.0,0.0,1020.0,2.0,0.0
4249,57.0,0.0,1020.0,3.0,0.0
4250,50.0,0.0,1020.0,6.0,0.0
4251,38.0,256.0,1020.0,5.0,0.0
4252,74.0,128.0,390.0,0.0,0.0
4253,64.0,256.0,270.0,4.0,0.0
4254,62.0,0.0,390.0,1.0,0.0
4255,62.0,128.0,270.0,4.0,0.0
4256,62.0,128.0,390.0,0.0,0.0
4257,61.0,0.0,270.0,4.0,0.0
4258,59.0,128.0,270.0,4.0,0.0
4259,66.0,128.0,390.0,1.0,0.0
4260,57.0,256.0,270.0,4.0,0.0
4261,55.0,256.0,270.0,4.0,0.0
4262,71.0,256.0,2040.0,1.0,0.0
4263,57.0,256.0,270.0,4.0,0.0
4264,59.0,256.0,270.0,4.0,0.0
4265,57.0,256.0,270.0,4.0,0.0
4266,55.0,128.0,270.0,4.0,0.0
4267,74.0,128.0,390.0,0.0,0.0
4268,54.0,256.0,270.0,4.0,0.0
4269,52.0,256.0,270.0,4.0,0.0
4270,79.0,256.0,2040.0,0.0,0.0
4271,55.0,0.0,270.0,4.0,0.0
4272,61.0,128.0,270.0,4.0,0.0
4273,64.0,128.0,390.0,1.0,0.0
4274,59.0,256.0,270.0,4.0,0.0
4275,61.0,0.0,390.0,3.0,0.0
4276,64.0,0.0,390.0,2.0,0.0
4277,40.0,0.0,390.0,5.0,0.0
4278,57.0,128.0,270.0,4.0,0.0
4279,67.0,0.0,390.0,1.0,0.0
4280,52.0,128.0,390.0,6.0,0.0
4281,55.0,256.0,270.0,4.0,0.0
4282,64.0,0.0,1530.0,2.0,0.0
4283,69.0,256.0,2040.0,1.0,0.0
4284,57.0,0.0,1530.0,3.0,0.0
4285,42.0,0.0,1530.0,5.0,0.0
4286,54.0,256.0,270.0,4.0,0.0
4287,54.0,0.0,1530.0,6.0,0.0
4288,55.0,0.0,270.0,4.0,0.0
4289,57.0,128.0,270.0,4.0,0.0
4290,73.0,128.0,390.0,0.0,0.0
4291,55.0,256.0,270.0,4.0,0.0
4292,54.0,128.0,270.0,4.0,0.0
4293,76.0,128.0,390.0,0.0,0.0
4294,52.0,256.0,270.0,4.0,0.0
4295,78.0,0.0,2040.0,0.0,0.0
4296,50.0,256.0,270.0,4.0,0.0
4297,54.0,0.0,270.0,4.0,0.0
4298,59.0,128.0,270.0,4.0,0.0
4299,62.0,128.0,390.0,1.0,0.0
4300,57.0,256.0,270.0,4.0,0.0
4301,62.0,0.0,390.0,2.0,0.0
4302,55.0,128.0,270.0,4.0,0.0
4303,66.0,0.0,390.0,1.0,0.0
4304,50.0,0.0,390.0,6.0,0.0
4305,59.0,128.0,390.0,3.0,0.0
4306,38.0,0.0,390.0,5.0,0.0
4307,54.0,256.0,270.0,4.0,0.0
4308,40.0,0.0,1530.0,5.0,0.0
4309,52.0,256.0,1530.0,6.0,0.0
4310,67.0,256.0,2040.0,1.0,0.0
4311,62.0,0.0,1530.0,2.0,0.0
4312,55.0,0.0,1530.0,3.0,0.0
4313,52.0,256.0,270.0,4.0,0.0
4314,54.0,256.0,270.0,4.0,0.0
4315,71.0,128.0,390.0,0.0,0.0
4316,55.0,128.0,270.0,4.0,0.0
4317,54.0,256.0,270.0,4.0,0.0
4318,74.0,128.0,390.0,0.0,0.0
4319,52.0,128.0,270.0,4.0,0.0
4320,50.0,0.0,270.0,4.0,0.0
4321,49.0,256.0,270.0,4.0,0.0
4322,76.0,0.0,2040.0,0.0,0.0
4323,52.0,0.0,270.0,4.0,0.0
4324,57.0,128.0,270.0,4.0,0.0
4325,61.0,128.0,390.0,1.0,0.0
4326,55.0,256.0,270.0,4.0,0.0
4327,33.0,0.0,390.0,5.0,0.0
4328,64.0,0.0,390.0,1.0,0.0
4329,57.0,128.0,390.0,3.0,0.0
4330,54.0,128.0,270.0,4.0,0.0
4331,45.0,0.0,390.0,6.0,0.0
4332,61.0,0.0,390.0,2.0,0.0
4333,52.0,256.0,270.0,4.0,0.0
4334,50.0,0.0,270.0,4.0,0.0
4335,38.0,0.0,1530.0,5.0,0.0
4336,62.0,0.0,1530.0,2.0,0.0
4337,50.0,0.0,1530.0,6.0,0.0
4338,66.0,256.0,270.0,1.0,0.0
4339,62.0,0.0,1530.0,3.0,0.0
4340,64.0,0.0,270.0,1.0,0.0
4341,49.0,256.0,270.0,4.0,0.0
4342,69.0,128.0,390.0,0.0,0.0
4343,66.0,0.0,270.0,1.0,0.0
4344,50.0,128.0,270.0,4.0,0.0
4345,67.0,0.0,270.0,1.0,0.0
4346,52.0,256.0,270.0,4.0,0.0
4347,69.0,256.0,270.0,1.0,0.0
4348,74.0,0.0,1020.0,0.0,0.0
4349,54.0,0.0,270.0,4.0,0.0
4350,55.0,0.0,270.0,4.0,0.0
4351,71.0,256.0,270.0,1.0,0.0
4352,57.0,128.0,270.0,4.0,0.0
4353,64.0,128.0,390.0,1.0,0.0
4354,56.0,256.0,270.0,4.0,0.0
4355,57.0,0.0,390.0,1.0,0.0
4356,57.0,128.0,270.0,4.0,0.0
4357,73.0,128.0,390.0,0.0,0.0
4358,52.0,256.0,270.0,4.0,0.0
4359,81.0,0.0,1020.0,0.0,0.0
4360,49.0,256.0,270.0,4.0,0.0
4361,81.0,384.0,1020.0,1.0,0.0
4362,52.0,512.0,270.0,4.0,0.0
4363,33.0,0.0,1020.0,5.0,0.0
4364,69.0,0.0,1020.0,3.0,0.0
4365,45.0,512.0,1020.0,4.0,0.0
4366,73.0,0.0,1020.0,2.0,0.0
4367,45.0,0.0,1020.0,6.0,0.0
4368,76.0,0.0,390.0,0.0,0.0
4369,76.0,128.0,390.0,1.0,0.0
4370,78.0,0.0,510.0,1.0,0.0
4371,74.0,0.0,1020.0,2.0,0.0
4372,78.0,512.0,15.0,0.0,0.0
4373,57.0,0.0,1020.0,6.0,0.0
4374,57.0,1024.0,1020.0,4.0,0.0
4375,78.0,0.0,510.0,1.0,0.0
4376,45.0,0.0,1020.0,5.0,0.0
4377,69.0,0.0,1020.0,3.0,0.0
4378,76.0,128.0,390.0,1.0,0.0
4379,76.0,0.0,390.0,0.0,0.0
4380,81.0,384.0,1020.0,0.0,0.0
4381,81.0,0.0,1020.0,1.0,0.0
4382,45.0,768.0,1020.0,6.0,0.0
4383,73.0,0.0,1020.0,2.0,0.0
4384,45.0,0.0,1020.0,4.0,0.0
4385,33.0,0.0,1020.0,5.0,0.0
4386,64.0,0.0,1020.0,3.0,0.0
4387,76.0,128.0,390.0,1.0,0.0
4388,76.0,0.0,390.0,0.0,0.0
4389,78.0,0.0,1020.0,0.0,0.0
4390,78.0,256.0,1020.0,1.0,0.0
4391,57.0,256.0,270.0,4.0,0.0
4392,62.0,0.0,1020.0,3.0,0.0
4393,57.0,256.0,1020.0,6.0,0.0
4394,45.0,0.0,1020.0,5.0,0.0
4395,52.0,0.0,270.0,4.0,0.0
4396,76.0,128.0,390.0,0.0,0.0
4397,54.0,128.0,270.0,4.0,0.0
4398,76.0,0.0,390.0,1.0,0.0
4399,55.0,0.0,270.0,4.0,0.0
4400,79.0,0.0,1020.0,0.0,0.0
4401,69.0,0.0,15.0,2.0,0.0
4402,57.0,128.0,270.0,4.0,0.0
4403,61.0,0.0,390.0,3.0,0.0
4404,69.0,128.0,390.0,1.0,0.0
4405,59.0,256.0,270.0,4.0,0.0
4406,57.0,0.0,1020.0,2.0,0.0
4407,61.0,256.0,270.0,4.0,0.0
4408,76.0,0.0,270.0,1.0,0.0
4409,57.0,0.0,1020.0,3.0,0.0
4410,78.0,0.0,270.0,1.0,0.0
4411,62.0,256.0,270.0,4.0,0.0
4412,73.0,128.0,390.0,0.0,0.0
4413,64.0,128.0,270.0,4.0,0.0
4414,79.0,0.0,270.0,1.0,0.0
4415,62.0,0.0,270.0,4.0,0.0
4416,78.0,256.0,270.0,1.0,0.0
4417,61.0,128.0,270.0,4.0,0.0
4418,76.0,0.0,1020.0,0.0,0.0
4419,69.0,0.0,390.0,2.0,0.0
4420,76.0,0.0,270.0,1.0,0.0
4421,69.0,128.0,390.0,3.0,0.0
4422,74.0,256.0,270.0,1.0,0.0
4423,59.0,0.0,270.0,4.0,0.0
4424,57.0,0.0,270.0,4.0,0.0
4425,57.0,0.0,1020.0,3.0,0.0
4426,73.0,256.0,270.0,1.0,0.0
4427,57.0,0.0,1020.0,2.0,0.0
4428,59.0,256.0,270.0,4.0,0.0
4429,74.0,0.0,270.0,1.0,0.0
4430,76.0,0.0,270.0,1.0,0.0
4431,69.0,128.0,390.0,0.0,0.0
4432,61.0,128.0,270.0,4.0,0.0
4433,74.0,256.0,270.0,1.0,0.0
4434,59.0,0.0,270.0,4.0,0.0
4435,57.0,128.0,270.0,4.0,0.0
4436,73.0,0.0,270.0,1.0,0.0
4437,73.0,0.0,1020.0,0.0,0.0
4438,69.0,0.0,390.0,3.0,0.0
4439,69.0,128.0,390.0,2.0,0.0
4440,55.0,0.0,270.0,4.0,0.0
4441,71.0,256.0,270.0,1.0,0.0
4442,57.0,0.0,1020.0,2.0,0.0
4443,69.0,256.0,270.0,1.0,0.0
4444,54.0,0.0,270.0,4.0,0.0
4445,57.0,256.0,1020.0,3.0,0.0
4446,71.0,0.0,270.0,1.0,0.0
4447,55.0,256.0,270.0,4.0,0.0
4448,76.0,128.0,390.0,0.0,0.0
4449,73.0,0.0,270.0,1.0,0.0
4450,57.0,128.0,270.0,4.0,0.0
4451,74.0,0.0,270.0,1.0,0.0
4452,55.0,0.0,270.0,4.0,0.0
4453,76.0,128.0,270.0,1.0,0.0
4454,33.0,0.0,390.0,5.0,0.0
4455,69.0,128.0,390.0,3.0,0.0
4456,45.0,0.0,390.0,6.0,0.0
4457,54.0,0.0,270.0,4.0,0.0
4458,79.0,256.0,1020.0,0.0,0.0
4459,73.0,0.0,390.0,2.0,0.0
4460,52.0,0.0,270.0,4.0,0.0
4461,73.0,256.0,270.0,1.0,0.0
4462,74.0,128.0,390.0,1.0,0.0
4463,38.0,0.0,1020.0,5.0,0.0
4464,50.0,256.0,1020.0,6.0,0.0
4465,57.0,0.0,1020.0,3.0,0.0
4466,50.0,128.0,270.0,4.0,0.0
4467,69.0,0.0,1020.0,2.0,0.0
4468,57.0,0.0,270.0,4.0,0.0
4469,59.0,128.0,270.0,4.0,0.0
4470,62.0,128.0,390.0,1.0,0.0
4471,78.0,0.0,390.0,0.0,0.0
4472,61.0,0.0,270.0,4.0,0.0
4473,62.0,128.0,270.0,4.0,0.0
4474,62.0,128.0,390.0,0.0,0.0
4475,69.0,0.0,390.0,2.0,0.0
4476,72.0,0.0,1020.0,1.0,0.0
4477,66.0,0.0,390.0,3.0,0.0
4478,64.0,256.0,270.0,4.0,0.0
4479,62.0,0.0,1020.0,3.0,0.0
4480,69.0,256.0,270.0,0.0,0.0
4481,62.0,256.0,1020.0,2.0,0.0
4482,66.0,0.0,270.0,4.0,0.0
4483,71.0,256.0,270.0,0.0,0.0
4484,67.0,0.0,270.0,4.0,0.0
4485,69.0,0.0,270.0,4.0,0.0
4486,72.0,128.0,270.0,0.0,0.0
4487,66.0,128.0,390.0,1.0,0.0
4488,67.0,0.0,270.0,4.0,0.0
4489,71.0,0.0,270.0,0.0,0.0
4490,66.0,0.0,270.0,4.0,0.0
4491,69.0,128.0,270.0,0.0,0.0
4492,74.0,128.0,390.0,2.0,0.0
4493,74.0,0.0,390.0,3.0,0.0
4494,69.0,0.0,1020.0,1.0,0.0
4495,64.0,0.0,270.0,4.0,0.0
4496,67.0,256.0,270.0,0.0,0.0
4497,62.0,0.0,1020.0,3.0,0.0
4498,62.0,0.0,270.0,4.0,0.0
4499,62.0,256.0,1020.0,2.0,0.0
4500,66.0,256.0,270.0,0.0,0.0
4501,67.0,0.0,270.0,0.0,0.0
4502,64.0,256.0,270.0,4.0,0.0
4503,62.0,128.0,390.0,1.0,0.0
4504,66.0,0.0,270.0,4.0,0.0
4505,69.0,128.0,270.0,0.0,0.0
4506,67.0,0.0,270.0,0.0,0.0
4507,64.0,0.0,270.0,4.0,0.0
4508,66.0,0.0,270.0,0.0,0.0
4509,74.0,0.0,390.0,2.0,0.0
4510,62.0,128.0,270.0,4.0,0.0
4511,66.0,256.0,1020.0,1.0,0.0
4512,74.0,128.0,390.0,3.0,0.0
4513,60.0,0.0,270.0,4.0,0.0
4514,64.0,256.0,270.0,0.0,0.0
4515,62.0,256.0,270.0,0.0,0.0
4516,62.0,0.0,1020.0,3.0,0.0
4517,62.0,0.0,1020.0,2.0,0.0
4518,59.0,0.0,270.0,4.0,0.0
4519,60.0,0.0,270.0,4.0,0.0
4520,64.0,0.0,270.0,0.0,0.0
4521,66.0,0.0,270.0,0.0,0.0
4522,62.0,128.0,270.0,4.0,0.0
4523,69.0,128.0,390.0,1.0,0.0
4524,67.0,0.0,270.0,0.0,0.0
4525,60.0,256.0,270.0,4.0,0.0
4526,38.0,0.0,390.0,5.0,0.0
4527,50.0,0.0,390.0,6.0,0.0
4528,59.0,128.0,270.0,4.0,0.0
4529,69.0,0.0,270.0,0.0,0.0
4530,74.0,0.0,390.0,2.0,0.0
4531,66.0,128.0,390.0,3.0,0.0
4532,72.0,0.0,1020.0,1.0,0.0
4533,57.0,0.0,270.0,4.0,0.0
4534,66.0,256.0,270.0,0.0,0.0
4535,55.0,0.0,1020.0,6.0,0.0
4536,67.0,128.0,390.0,0.0,0.0
4537,43.0,0.0,1020.0,5.0,0.0
4538,62.0,0.0,1020.0,2.0,0.0
4539,62.0,256.0,1020.0,3.0,0.0
4540,55.0,128.0,270.0,4.0,0.0
4541,56.0,256.0,270.0,4.0,0.0
4542,59.0,128.0,270.0,4.0,0.0
4543,71.0,0.0,390.0,1.0,0.0
4544,55.0,128.0,390.0,0.0,0.0
4545,56.0,0.0,270.0,4.0,0.0
4546,55.0,256.0,270.0,4.0,0.0
4547,71.0,0.0,1020.0,0.0,0.0
4548,54.0,256.0,270.0,4.0,0.0
4549,52.0,256.0,270.0,4.0,0.0
4550,59.0,0.0,1020.0,3.0,0.0
4551,56.0,0.0,1020.0,6.0,0.0
4552,64.0,256.0,1020.0,2.0,0.0
4553,44.0,0.0,1020.0,5.0,0.0
4554,54.0,256.0,270.0,4.0,0.0
4555,64.0,128.0,390.0,0.0,0.0
4556,56.0,128.0,270.0,4.0,0.0
4557,54.0,0.0,270.0,4.0,0.0
4558,74.0,0.0,1020.0,0.0,0.0
4559,56.0,256.0,270.0,4.0,0.0
4560,52.0,256.0,270.0,4.0,0.0
4561,57.0,256.0,270.0,4.0,0.0
4562,57.0,0.0,1020.0,6.0,0.0
4563,45.0,0.0,1020.0,5.0,0.0
4564,64.0,0.0,1020.0,2.0,0.0
4565,57.0,256.0,1020.0,3.0,0.0
4566,59.0,256.0,270.0,4.0,0.0
4567,73.0,128.0,390.0,0.0,0.0
4568,61.0,128.0,270.0,4.0,0.0
4569,59.0,0.0,270.0,4.0,0.0
4570,57.0,256.0,270.0,4.0,0.0
4571,73.0,256.0,1020.0,1.0,0.0
4572,55.0,256.0,270.0,4.0,0.0
4573,61.0,0.0,1020.0,3.0,0.0
4574,66.0,0.0,1020.0,2.0,0.0
4575,58.0,0.0,1020.0,6.0,0.0
4576,46.0,256.0,1020.0,5.0,0.0
4577,54.0,256.0,270.0,4.0,0.0
4578,56.0,0.0,270.0,4.0,0.0
4579,66.0,128.0,390.0,1.0,0.0
4580,58.0,128.0,270.0,4.0,0.0
4581,56.0,0.0,270.0,4.0,0.0
4582,58.0,256.0,270.0,4.0,0.0
4583,76.0,0.0,1020.0,1.0,0.0
4584,54.0,256.0,270.0,4.0,0.0
4585,47.0,0.0,1020.0,5.0,0.0
4586,66.0,0.0,1020.0,2.0,0.0
4587,59.0,256.0,270.0,4.0,0.0
4588,59.0,0.0,1020.0,3.0,0.0
4589,59.0,256.0,1020.0,6.0,0.0
4590,58.0,256.0,270.0,4.0,0.0
4591,59.0,128.0,270.0,4.0,0.0
4592,74.0,128.0,390.0,1.0,0.0
4593,61.0,0.0,270.0,4.0,0.0
4594,62.0,256.0,270.0,4.0,0.0
4595,78.0,256.0,1020.0,0.0,0.0
4596,59.0,256.0,270.0,4.0,0.0
4597,64.0,0.0,1020.0,3.0,0.0
4598,69.0,0.0,1020.0,2.0,0.0
4599,67.0,0.0,1020.0,1.0,0.0
4600,49.0,0.0,1020.0,5.0,0.0
4601,61.0,256.0,270.0,4.0,0.0
4602,61.0,0.0,1020.0,6.0,0.0
4603,59.0,0.0,270.0,4.0,0.0
4604,76.0,128.0,390.0,0.0,0.0
4605,61.0,128.0,270.0,4.0,0.0
4606,62.0,256.0,270.0,4.0,0.0
4607,64.0,128.0,390.0,1.0,0.0
4608,79.0,0.0,1020.0,0.0,0.0
4609,64.0,128.0,270.0,4.0,0.0
4610,61.0,256.0,270.0,4.0,0.0
4611,62.0,0.0,1020.0,3.0,0.0
4612,50.0,0.0,1020.0,5.0,0.0
4613,69.0,256.0,1020.0,1.0,0.0
4614,62.0,0.0,1020.0,6.0,0.0
4615,62.0,256.0,270.0,4.0,0.0
4616,62.0,0.0,1020.0,2.0,0.0
4617,61.0,256.0,270.0,4.0,0.0
4618,78.0,128.0,390.0,0.0,0.0
4619,62.0,128.0,270.0,4.0,0.0
4620,64.0,0.0,270.0,4.0,0.0
4621,66.0,128.0,270.0,4.0,0.0
4622,66.0,128.0,390.0,1.0,0.0
4623,81.0,0.0,1020.0,0.0,0.0
4624,62.0,256.0,270.0,4.0,0.0
4625,43.0,0.0,1020.0,5.0,0.0
4626,59.0,0.0,1020.0,3.0,0.0
4627,55.0,256.0,270.0,4.0,0.0
4628,62.0,0.0,1020.0,2.0,0.0
4629,55.0,0.0,1020.0,6.0,0.0
4630,71.0,0.0,780.0,1.0,0.0
4631,54.0,256.0,270.0,4.0,0.0
4632,55.0,0.0,270.0,4.0,0.0
4633,79.0,256.0,270.0,0.0,0.0
4634,57.0,0.0,270.0,4.0,0.0
4635,69.0,0.0,270.0,1.0,0.0
4636,78.0,256.0,270.0,0.0,0.0
4637,67.0,256.0,270.0,1.0,0.0
4638,76.0,0.0,270.0,0.0,0.0
4639,59.0,0.0,270.0,4.0,0.0
4640,74.0,256.0,270.0,0.0,0.0
4641,55.0,0.0,270.0,4.0,0.0
4642,66.0,0.0,270.0,1.0,0.0
4643,57.0,128.0,390.0,4.0,0.0
4644,64.0,0.0,270.0,1.0,0.0
4645,69.0,0.0,1020.0,2.0,0.0
4646,57.0,0.0,1020.0,6.0,0.0
4647,73.0,128.0,270.0,0.0,0.0
4648,45.0,256.0,1020.0,5.0,0.0
4649,64.0,0.0,1020.0,3.0,0.0
4650,71.0,256.0,270.0,0.0,0.0
4651,62.0,0.0,270.0,1.0,0.0
4652,45.0,128.0,390.0,4.0,0.0
4653,61.0,0.0,270.0,1.0,0.0
4654,69.0,128.0,270.0,0.0,0.0
4655,67.0,0.0,270.0,0.0,0.0
4656,59.0,0.0,270.0,1.0,0.0
4657,66.0,128.0,270.0,0.0,0.0
4658,57.0,128.0,390.0,4.0,0.0
4659,57.0,0.0,270.0,1.0,0.0
4660,55.0,0.0,270.0,1.0,0.0
4661,64.0,256.0,270.0,0.0,0.0
4662,54.0,128.0,390.0,1.0,0.0
4663,62.0,128.0,270.0,0.0,0.0
4664,50.0,384.0,510.0,4.0,0.0
4665,61.0,0.0,270.0,0.0,0.0
4666,54.0,128.0,390.0,4.0,0.0
4667,62.0,0.0,390.0,0.0,0.0
4668,57.0,256.0,270.0,1.0,0.0
4669,59.0,128.0,270.0,1.0,0.0
4670,57.0,128.0,390.0,4.0,0.0
4671,61.0,256.0,270.0,1.0,0.0
4672,62.0,256.0,270.0,1.0,0.0
4673,49.0,384.0,510.0,4.0,0.0
4674,61.0,0.0,270.0,1.0,0.0
4675,62.0,128.0,390.0,1.0,0.0
4676,54.0,0.0,390.0,4.0,0.0
4677,57.0,256.0,270.0,0.0,0.0
4678,57.0,128.0,390.0,4.0,0.0
4679,59.0,128.0,270.0,0.0,0.0
4680,61.0,256.0,270.0,0.0,0.0
4681,62.0,256.0,270.0,0.0,0.0
4682,47.0,384.0,510.0,4.0,0.0
4683,61.0,0.0,270.0,0.0,0.0
4684,62.0,128.0,390.0,0.0,0.0
4685,50.0,0.0,390.0,4.0,0.0
4686,57.0,256.0,270.0,1.0,0.0
4687,59.0,128.0,270.0,1.0,0.0
4688,54.0,128.0,390.0,4.0,0.0
4689,61.0,256.0,270.0,1.0,0.0
4690,45.0,384.0,510.0,4.0,0.0
4691,62.0,256.0,270.0,1.0,0.0
4692,61.0,0.0,270.0,1.0,0.0
4693,62.0,0.0,390.0,1.0,0.0
4694,50.0,128.0,390.0,4.0,0.0
4695,59.0,256.0,270.0,0.0,0.0
4696,61.0,128.0,270.0,0.0,0.0
4697,54.0,128.0,390.0,4.0,0.0
4698,62.0,256.0,270.0,0.0,0.0
4699,43.0,0.0,510.0,4.0,0.0
4700,64.0,256.0,270.0,0.0,0.0
4701,62.0,256.0,270.0,0.0,0.0
4702,47.0,128.0,390.0,4.0,0.0
4703,64.0,128.0,270.0,0.0,0.0
4704,62.0,256.0,270.0,0.0,0.0
4705,59.0,0.0,270.0,1.0,0.0
4706,61.0,0.0,270.0,1.0,0.0
4707,52.0,128.0,390.0,4.0,0.0
4708,61.0,128.0,270.0,0.0,0.0
4709,62.0,256.0,270.0,1.0,0.0
4710,59.0,0.0,270.0,0.0,0.0
4711,49.0,0.0,510.0,4.0,0.0
4712,64.0,128.0,270.0,1.0,0.0
4713,57.0,128.0,390.0,0.0,0.0
4714,62.0,256.0,270.0,1.0,0.0
4715,61.0,0.0,390.0,0.0,0.0
4716,52.0,128.0,390.0,4.0,0.0
4717,64.0,128.0,270.0,1.0,0.0
4718,62.0,256.0,270.0,1.0,0.0
4719,64.0,128.0,390.0,0.0,0.0
4720,61.0,128.0,270.0,1.0,0.0
4721,45.0,0.0,390.0,4.0,0.0
4722,59.0,256.0,270.0,1.0,0.0
4723,57.0,0.0,270.0,1.0,0.0
4724,50.0,256.0,510.0,4.0,0.0
4725,66.0,256.0,270.0,0.0,0.0
4726,55.0,0.0,270.0,1.0,0.0
4727,64.0,0.0,270.0,0.0,0.0
4728,57.0,128.0,270.0,1.0,0.0
4729,66.0,0.0,270.0,0.0,0.0
4730,54.0,128.0,390.0,4.0,0.0
4731,67.0,256.0,270.0,0.0,0.0
4732,59.0,0.0,270.0,1.0,0.0
4733,57.0,0.0,270.0,1.0,0.0
4734,66.0,128.0,270.0,0.0,0.0
4735,57.0,128.0,390.0,4.0,0.0
4736,55.0,256.0,270.0,1.0,0.0
4737,64.0,0.0,270.0,0.0,0.0
4738,54.0,256.0,1020.0,1.0,0.0
4739,62.0,256.0,270.0,0.0,0.0
4740,62.0,256.0,510.0,4.0,0.0
4741,66.0,0.0,270.0,0.0,0.0
4742,61.0,128.0,390.0,4.0,0.0
4743,69.0,128.0,270.0,0.0,0.0
4744,74.0,0.0,270.0,0.0,0.0
4745,78.0,128.0,270.0,0.0,0.0
4746,62.0,128.0,390.0,4.0,0.0
4747,81.0,0.0,900.0,1.0,0.0
4748,79.0,384.0,270.0,0.0,0.0
4749,69.0,0.0,1020.0,3.0,0.0
4750,74.0,0.0,1020.0,2.0,0.0
4751,81.0,512.0,390.0,0.0,0.0
4752,42.0,0.0,1020.0,5.0,0.0
4753,54.0,0.0,1020.0,4.0,0.0
4754,54.0,1024.0,1020.0,6.0,0.0
4755,74.0,0.0,390.0,1.0,0.0
4756,74.0,128.0,390.0,0.0,0.0
4757,78.0,384.0,1020.0,0.0,0.0
4758,78.0,0.0,1020.0,1.0,0.0
4759,59.0,1024.0,1020.0,6.0,0.0
4760,47.0,0.0,1020.0,5.0,0.0
4761,74.0,0.0,1020.0,2.0,0.0
4762,69.0,0.0,1020.0,3.0,0.0
4763,59.0,0.0,1020.0,4.0,0.0
4764,71.0,0.0,390.0,1.0,0.0
4765,71.0,128.0,390.0,0.0,0.0
4766,79.0,384.0,1020.0,1.0,0.0
4767,79.0,0.0,1020.0,0.0,0.0
4768,74.0,0.0,1020.0,2.0,0.0
4769,52.0,0.0,1020.0,4.0,0.0
4770,67.0,1024.0,1020.0,3.0,0.0
4771,40.0,0.0,1020.0,5.0,0.0
4772,52.0,0.0,1020.0,6.0,0.0
4773,73.0,128.0,390.0,0.0,0.0
4774,73.0,0.0,390.0,1.0,0.0
4775,76.0,0.0,1020.0,0.0,0.0
4776,76.0,384.0,1020.0,1.0,0.0
4777,73.0,0.0,1020.0,2.0,0.0
4778,57.0,0.0,1020.0,6.0,0.0
4779,57.0,0.0,1020.0,4.0,0.0
4780,69.0,768.0,1020.0,3.0,0.0
4781,45.0,0.0,1020.0,5.0,0.0
4782,69.0,128.0,390.0,0.0,0.0
4783,69.0,0.0,390.0,1.0,0.0
4784,78.0,256.0,1020.0,1.0,0.0
4785,78.0,256.0,780.0,0.0,0.0
4786,38.0,0.0,1020.0,5.0,0.0
4787,50.0,0.0,1020.0,6.0,0.0
4788,50.0,0.0,1020.0,4.0,0.0
4789,69.0,0.0,1020.0,3.0,0.0
4790,74.0,256.0,1020.0,2.0,0.0
4791,74.0,0.0,270.0,0.0,0.0
4792,69.0,128.0,390.0,1.0,0.0
4793,73.0,128.0,270.0,0.0,0.0
4794,71.0,0.0,270.0,0.0,0.0
4795,62.0,128.0,390.0,4.0,0.0
4796,74.0,0.0,1020.0,1.0,0.0
4797,69.0,128.0,270.0,0.0,0.0
4798,67.0,256.0,270.0,0.0,0.0
4799,66.0,256.0,270.0,0.0,0.0
4800,50.0,0.0,1020.0,4.0,0.0
4801,71.0,256.0,270.0,0.0,0.0
4802,66.0,128.0,390.0,1.0,0.0
4803,69.0,128.0,270.0,0.0,0.0
4804,67.0,256.0,270.0,0.0,0.0
4805,66.0,128.0,270.0,0.0,0.0
4806,69.0,0.0,1020.0,1.0,0.0
4807,62.0,128.0,390.0,4.0,0.0
4808,64.0,256.0,270.0,0.0,0.0
4809,50.0,256.0,1020.0,4.0,0.0
4810,62.0,256.0,270.0,0.0,0.0
4811,57.0,256.0,270.0,0.0,0.0
4812,62.0,128.0,390.0,1.0,0.0
4813,59.0,128.0,270.0,0.0,0.0
4814,61.0,0.0,270.0,0.0,0.0
4815,62.0,0.0,390.0,4.0,0.0
4816,62.0,128.0,270.0,0.0,0.0
4817,66.0,128.0,390.0,1.0,0.0
4818,64.0,256.0,270.0,0.0,0.0
4819,50.0,256.0,1020.0,4.0,0.0
4820,69.0,128.0,390.0,1.0,0.0
4821,66.0,128.0,270.0,0.0,0.0
4822,64.0,256.0,270.0,0.0,0.0
4823,66.0,128.0,390.0,1.0,0.0
4824,62.0,128.0,270.0,0.0,0.0
4825,64.0,0.0,270.0,0.0,0.0
4826,69.0,0.0,390.0,1.0,0.0
4827,66.0,128.0,270.0,0.0,0.0
4828,62.0,128.0,390.0,4.0,0.0
4829,67.0,384.0,270.0,0.0,0.0
4830,69.0,0.0,390.0,0.0,0.0
4831,38.0,0.0,1020.0,5.0,0.0
4832,62.0,0.0,1020.0,3.0,0.0
4833,50.0,0.0,1020.0,6.0,0.0
4834,66.0,1024.0,1020.0,2.0,0.0
4835,50.0,0.0,1020.0,4.0,0.0
4836,74.0,512.0,390.0,1.0,0.0
4837,62.0,0.0,390.0,0.0,0.0
4838,69.0,128.0,390.0,1.0,0.0
4839,71.0,256.0,1020.0,0.0,0.0
4840,71.0,0.0,1020.0,1.0,0.0
4841,50.0,0.0,1020.0,5.0,0.0
4842,62.0,0.0,1020.0,6.0,0.0
4843,62.0,0.0,1020.0,3.0,0.0
4844,67.0,256.0,1020.0,2.0,0.0
4845,62.0,0.0,1020.0,4.0,0.0
4846,69.0,128.0,270.0,1.0,0.0
4847,69.0,128.0,390.0,0.0,0.0
4848,67.0,0.0,270.0,1.0,0.0
4849,66.0,256.0,270.0,1.0,0.0
4850,74.0,0.0,1020.0,0.0,0.0
4851,64.0,256.0,270.0,1.0,0.0
4852,66.0,256.0,270.0,1.0,0.0
4853,69.0,0.0,1020.0,2.0,0.0
4854,50.0,0.0,1020.0,6.0,0.0
4855,38.0,0.0,1020.0,5.0,0.0
4856,50.0,0.0,1020.0,4.0,0.0
4857,62.0,256.0,1020.0,3.0,0.0
4858,67.0,256.0,270.0,1.0,0.0
4859,69.0,128.0,390.0,0.0,0.0
4860,69.0,128.0,270.0,1.0,0.0
4861,67.0,0.0,270.0,1.0,0.0
4862,71.0,256.0,1020.0,0.0,0.0
4863,66.0,256.0,270.0,1.0,0.0
4864,64.0,256.0,270.0,1.0,0.0
4865,62.0,256.0,270.0,1.0,0.0
4866,62.0,0.0,1020.0,4.0,0.0
4867,62.0,0.0,1020.0,6.0,0.0
4868,50.0,256.0,1020.0,5.0,0.0
4869,64.0,0.0,270.0,1.0,0.0
4870,69.0,128.0,390.0,0.0,0.0
4871,66.0,128.0,270.0,1.0,0.0
4872,64.0,0.0,270.0,1.0,0.0
4873,74.0,256.0,1020.0,0.0,0.0
4874,62.0,128.0,270.0,1.0,0.0
4875,50.0,128.0,390.0,4.0,0.0
4876,61.0,256.0,270.0,1.0,0.0
4877,59.0,256.0,270.0,1.0,0.0
4878,55.0,256.0,1020.0,4.0,0.0
4879,61.0,0.0,270.0,1.0,0.0
4880,62.0,128.0,270.0,1.0,0.0
4881,71.0,128.0,390.0,0.0,0.0
4882,66.0,0.0,270.0,1.0,0.0
4883,79.0,256.0,1020.0,0.0,0.0
4884,64.0,128.0,270.0,1.0,0.0
4885,52.0,128.0,390.0,4.0,0.0
4886,62.0,256.0,270.0,1.0,0.0
4887,57.0,256.0,1020.0,4.0,0.0
4888,61.0,256.0,270.0,1.0,0.0
4889,62.0,0.0,270.0,1.0,0.0
4890,64.0,128.0,270.0,1.0,0.0
4891,73.0,128.0,390.0,0.0,0.0
4892,67.0,0.0,270.0,1.0,0.0
4893,81.0,256.0,510.0,0.0,0.0
4894,61.0,128.0,390.0,4.0,0.0
4895,66.0,128.0,270.0,1.0,0.0
4896,64.0,0.0,270.0,1.0,0.0
4897,62.0,128.0,270.0,1.0,0.0
4898,78.0,128.0,390.0,0.0,0.0
4899,62.0,0.0,390.0,4.0,0.0
4900,61.0,256.0,270.0,1.0,0.0
4901,54.0,128.0,390.0,4.0,0.0
4902,74.0,0.0,390.0,0.0,0.0
4903,62.0,128.0,270.0,1.0,0.0
4904,66.0,256.0,270.0,1.0,0.0
4905,64.0,128.0,270.0,1.0,0.0
4906,73.0,128.0,390.0,0.0,0.0
4907,57.0,0.0,390.0,4.0,0.0
4908,67.0,256.0,270.0,1.0,0.0
4909,74.0,0.0,270.0,0.0,0.0
4910,50.0,256.0,1020.0,4.0,0.0
4911,66.0,256.0,270.0,1.0,0.0
4912,69.0,0.0,270.0,0.0,0.0
4913,69.0,256.0,270.0,1.0,0.0
4914,66.0,0.0,270.0,0.0,0.0
4915,66.0,256.0,270.0,1.0,0.0
4916,62.0,0.0,270.0,1.0,0.0
4917,62.0,0.0,270.0,0.0,0.0
4918,66.0,0.0,270.0,1.0,0.0
4919,66.0,256.0,270.0,0.0,0.0
4920,69.0,0.0,270.0,0.0,0.0
4921,69.0,512.0,270.0,1.0,0.0
4922,62.0,384.0,1020.0,4.0,0.0
4923,74.0,384.0,510.0,0.0,0.0
4924,69.0,0.0,1020.0,2.0,0.0
4925,50.0,0.0,1020.0,5.0,0.0
4926,62.0,0.0,1020.0,6.0,0.0
4927,74.0,0.0,510.0,1.0,0.0
4928,66.0,0.0,1020.0,3.0,0.0
4929,73.0,128.0,390.0,1.0,0.0
4930,73.0,0.0,390.0,0.0,0.0
4931,74.0,0.0,390.0,1.0,0.0
4932,74.0,640.0,390.0,0.0,0.0
4933,62.0,0.0,1020.0,3.0,0.0
4934,69.0,384.0,1020.0,2.0,0.0
4935,49.0,0.0,1020.0,5.0,0.0
4936,66.0,0.0,510.0,1.0,0.0
4937,61.0,0.0,1020.0,6.0,0.0
4938,61.0,0.0,1020.0,4.0,0.0
4939,66.0,384.0,510.0,0.0,0.0
4940,69.0,0.0,390.0,0.0,0.0
4941,69.0,128.0,390.0,1.0,0.0
4942,74.0,640.0,390.0,0.0,0.0
4943,74.0,0.0,390.0,1.0,0.0
4944,59.0,0.0,1020.0,6.0,0.0
4945,66.0,0.0,1020.0,3.0,0.0
4946,71.0,0.0,1020.0,2.0,0.0
4947,47.0,0.0,1020.0,5.0,0.0
4948,74.0,384.0,510.0,0.0,0.0
4949,59.0,384.0,1020.0,4.0,0.0
4950,74.0,0.0,510.0,1.0,0.0
4951,73.0,128.0,390.0,0.0,0.0
4952,73.0,0.0,390.0,1.0,0.0
4953,74.0,0.0,390.0,0.0,0.0
4954,74.0,640.0,390.0,1.0,0.0
4955,69.0,0.0,1020.0,3.0,0.0
4956,45.0,0.0,1020.0,5.0,0.0
4957,66.0,0.0,510.0,1.0,0.0
4958,57.0,0.0,1020.0,4.0,0.0
4959,74.0,384.0,1020.0,2.0,0.0
4960,57.0,0.0,1020.0,6.0,0.0
4961,66.0,384.0,510.0,0.0,0.0
4962,69.0,0.0,390.0,1.0,0.0
4963,69.0,128.0,390.0,0.0,0.0
4964,74.0,640.0,390.0,1.0,0.0
4965,74.0,0.0,390.0,0.0,0.0
4966,71.0,384.0,1020.0,3.0,0.0
4967,76.0,384.0,510.0,1.0,0.0
4968,76.0,0.0,510.0,0.0,0.0
4969,55.0,0.0,1020.0,6.0,0.0
4970,74.0,0.0,1020.0,2.0,0.0
4971,43.0,0.0,1020.0,5.0,0.0
4972,55.0,0.0,1020.0,4.0,0.0
4973,74.0,0.0,390.0,1.0,0.0
4974,74.0,128.0,390.0,0.0,0.0
4975,76.0,0.0,390.0,0.0,0.0
4976,76.0,640.0,390.0,1.0,0.0
4977,45.0,0.0,1020.0,5.0,0.0
4978,69.0,0.0,510.0,0.0,0.0
4979,57.0,0.0,1020.0,6.0,0.0
4980,73.0,384.0,1020.0,2.0,0.0
4981,69.0,0.0,1020.0,3.0,0.0
4982,57.0,0.0,1020.0,4.0,0.0
4983,69.0,384.0,510.0,1.0,0.0
4984,73.0,128.0,390.0,0.0,0.0
4985,73.0,0.0,390.0,1.0,0.0
4986,76.0,640.0,390.0,0.0,0.0
4987,76.0,0.0,390.0,1.0,0.0
4988,50.0,0.0,1020.0,6.0,0.0
4989,38.0,0.0,1020.0,5.0,0.0
4990,50.0,384.0,1020.0,4.0,0.0
4991,74.0,384.0,510.0,2.0,0.0
4992,69.0,0.0,510.0,3.0,0.0
4993,78.0,0.0,510.0,1.0,0.0
4994,78.0,0.0,510.0,0.0,0.0
4995,76.0,0.0,390.0,1.0,0.0
4996,76.0,128.0,390.0,0.0,0.0
4997,67.0,0.0,390.0,3.0,0.0
4998,73.0,0.0,390.0,2.0,0.0
4999,69.0,0.0,390.0,3.0,0.0
5000,45.0,0.0,390.0,5.0,0.0
5001,74.0,640.0,390.0,2.0,0.0
5002,57.0,0.0,390.0,6.0,0.0
5003,78.0,0.0,390.0,1.0,0.0
5004,78.0,0.0,390.0,0.0,0.0
5005,57.0,0.0,390.0,4.0,0.0
5006,74.0,0.0,1020.0,1.0,0.0
5007,66.0,384.0,510.0,3.0,0.0
5008,62.0,0.0,510.0,4.0,0.0
5009,69.0,0.0,1020.0,2.0,0.0
5010,74.0,384.0,1020.0,0.0,0.0
5011,50.0,0.0,510.0,5.0,0.0
5012,62.0,0.0,510.0,6.0,0.0
5013,61.0,0.0,390.0,4.0,0.0
5014,61.0,0.0,390.0,6.0,0.0
5015,49.0,0.0,390.0,5.0,0.0
5016,64.0,128.0,390.0,3.0,0.0
5017,78.0,384.0,1020.0,1.0,0.0
5018,66.0,0.0,390.0,3.0,0.0
5019,50.0,640.0,390.0,5.0,0.0
5020,62.0,0.0,390.0,4.0,0.0
5021,62.0,0.0,390.0,6.0,0.0
5022,78.0,0.0,1020.0,0.0,0.0
5023,69.0,0.0,390.0,2.0,0.0
5024,71.0,0.0,1020.0,2.0,0.0
5025,59.0,0.0,1020.0,3.0,0.0
5026,56.0,1024.0,1020.0,4.0,0.0
5027,44.0,0.0,1020.0,5.0,0.0
5028,56.0,0.0,1020.0,6.0,0.0
5029,71.0,128.0,390.0,1.0,0.0
5030,71.0,0.0,390.0,0.0,0.0
5031,74.0,384.0,1020.0,1.0,0.0
5032,74.0,0.0,1020.0,0.0,0.0
5033,52.0,0.0,1020.0,4.0,0.0
5034,52.0,0.0,1020.0,6.0,0.0
5035,71.0,0.0,1020.0,2.0,0.0
5036,40.0,1024.0,1020.0,5.0,0.0
5037,68.0,0.0,1020.0,3.0,0.0
5038,68.0,128.0,390.0,0.0,0.0
5039,68.0,0.0,390.0,1.0,0.0
5040,76.0,384.0,1020.0,1.0,0.0
5041,76.0,0.0,1020.0,0.0,0.0
5042,69.0,0.0,1020.0,2.0,0.0
5043,54.0,0.0,1020.0,4.0,0.0
5044,54.0,0.0,1020.0,6.0,0.0
5045,61.0,1024.0,1020.0,3.0,0.0
5046,42.0,0.0,1020.0,5.0,0.0
5047,69.0,0.0,390.0,0.0,0.0
5048,69.0,128.0,390.0,1.0,0.0
5049,73.0,0.0,1020.0,0.0,0.0
5050,73.0,384.0,1020.0,1.0,0.0
5051,38.0,0.0,1020.0,5.0,0.0
5052,66.0,0.0,1020.0,3.0,0.0
5053,50.0,0.0,1020.0,6.0,0.0
5054,50.0,0.0,1020.0,4.0,0.0
5055,69.0,1024.0,1020.0,2.0,0.0
5056,66.0,128.0,390.0,0.0,0.0
5057,66.0,0.0,390.0,1.0,0.0
5058,74.0,384.0,1020.0,0.0,0.0
5059,74.0,0.0,1020.0,1.0,0.0
5060,68.0,0.0,1020.0,2.0,0.0
5061,52.0,0.0,1020.0,4.0,0.0
5062,40.0,0.0,1020.0,5.0,0.0
5063,52.0,384.0,1020.0,6.0,0.0
5064,59.0,0.0,1020.0,3.0,0.0
5065,68.0,128.0,390.0,0.0,0.0
5066,68.0,0.0,390.0,1.0,0.0
5067,50.0,640.0,390.0,4.0,0.0
5068,38.0,0.0,390.0,5.0,0.0
5069,64.0,0.0,390.0,2.0,0.0
5070,71.0,0.0,1020.0,0.0,0.0
5071,50.0,0.0,390.0,6.0,0.0
5072,56.0,0.0,390.0,3.0,0.0
5073,71.0,384.0,1020.0,1.0,0.0
5074,61.0,0.0,1020.0,3.0,0.0
5075,49.0,0.0,1020.0,6.0,0.0
5076,37.0,0.0,1020.0,5.0,0.0
5077,64.0,384.0,1020.0,2.0,0.0
5078,49.0,0.0,1020.0,4.0,0.0
5079,64.0,0.0,390.0,0.0,0.0
5080,64.0,128.0,390.0,1.0,0.0
5081,47.0,0.0,390.0,6.0,0.0
5082,74.0,0.0,390.0,0.0,0.0
5083,68.0,0.0,390.0,2.0,0.0
5084,62.0,0.0,390.0,3.0,0.0
5085,47.0,0.0,390.0,4.0,0.0
5086,74.0,0.0,390.0,1.0,0.0
5087,35.0,640.0,390.0,5.0,0.0
5088,45.0,0.0,1020.0,4.0,0.0
5089,45.0,0.0,1020.0,6.0,0.0
5090,33.0,384.0,1020.0,5.0,0.0
5091,73.0,0.0,510.0,1.0,0.0
5092,73.0,384.0,510.0,0.0,0.0
5093,69.0,0.0,510.0,2.0,0.0
5094,64.0,0.0,510.0,3.0,0.0
5095,71.0,0.0,390.0,1.0,0.0
5096,68.0,128.0,390.0,2.0,0.0
5097,71.0,0.0,390.0,0.0,0.0
5098,62.0,0.0,390.0,3.0,0.0
5099,52.0,0.0,390.0,6.0,0.0
5100,73.0,0.0,390.0,1.0,0.0
5101,52.0,0.0,390.0,4.0,0.0
5102,40.0,640.0,390.0,5.0,0.0
5103,69.0,0.0,390.0,2.0,0.0
5104,73.0,0.0,390.0,0.0,0.0
5105,64.0,0.0,390.0,3.0,0.0
5106,57.0,0.0,510.0,4.0,0.0
5107,69.0,384.0,510.0,0.0,0.0
5108,45.0,0.0,510.0,5.0,0.0
5109,57.0,0.0,510.0,6.0,0.0
5110,61.0,0.0,510.0,3.0,0.0
5111,64.0,384.0,1020.0,2.0,0.0
5112,69.0,0.0,510.0,1.0,0.0
5113,73.0,0.0,390.0,0.0,0.0
5114,55.0,0.0,390.0,4.0,0.0
5115,43.0,128.0,390.0,5.0,0.0
5116,59.0,0.0,390.0,3.0,0.0
5117,55.0,0.0,390.0,6.0,0.0
5118,73.0,0.0,390.0,1.0,0.0
5119,45.0,0.0,390.0,5.0,0.0
5120,57.0,0.0,390.0,4.0,0.0
5121,76.0,0.0,390.0,0.0,0.0
5122,69.0,512.0,390.0,2.0,0.0
5123,61.0,0.0,390.0,3.0,0.0
5124,76.0,0.0,390.0,1.0,0.0
5125,57.0,0.0,390.0,6.0,0.0
5126,54.0,0.0,1020.0,4.0,0.0
5127,81.0,0.0,390.0,1.0,0.0
5128,42.0,0.0,1020.0,5.0,0.0
5129,81.0,512.0,390.0,0.0,0.0
5130,54.0,0.0,1020.0,6.0,0.0
5131,62.0,1024.0,1020.0,3.0,0.0
5132,69.0,0.0,1020.0,2.0,0.0
5133,74.0,128.0,390.0,0.0,0.0
5134,74.0,0.0,390.0,1.0,0.0
5135,78.0,384.0,1020.0,1.0,0.0
5136,78.0,0.0,1020.0,0.0,0.0
5137,59.0,0.0,1020.0,4.0,0.0
5138,59.0,0.0,1020.0,6.0,0.0
5139,69.0,0.0,1020.0,2.0,0.0
5140,62.0,0.0,1020.0,3.0,0.0
5141,47.0,1024.0,1020.0,5.0,0.0
5142,71.0,128.0,390.0,0.0,0.0
5143,71.0,0.0,390.0,1.0,0.0
5144,79.0,384.0,1020.0,0.0,0.0
5145,79.0,0.0,1020.0,1.0,0.0
5146,67.0,0.0,1020.0,2.0,0.0
5147,62.0,0.0,1020.0,3.0,0.0
5148,52.0,0.0,1020.0,6.0,0.0
5149,52.0,0.0,1020.0,4.0,0.0
5150,40.0,1024.0,1020.0,5.0,0.0
5151,73.0,0.0,390.0,1.0,0.0
5152,73.0,128.0,390.0,0.0,0.0
5153,76.0,384.0,1020.0,0.0,0.0
5154,76.0,0.0,1020.0,1.0,0.0
5155,69.0,0.0,1020.0,2.0,0.0
5156,45.0,0.0,1020.0,5.0,0.0
5157,57.0,0.0,1020.0,4.0,0.0
5158,57.0,1024.0,1020.0,6.0,0.0
5159,61.0,0.0,1020.0,3.0,0.0
5160,69.0,0.0,390.0,1.0,0.0
5161,69.0,128.0,390.0,0.0,0.0
5162,78.0,0.0,1020.0,0.0,0.0
5163,78.0,0.0,1020.0,1.0,0.0
5164,62.0,384.0,1020.0,3.0,0.0
5165,38.0,0.0,1020.0,5.0,0.0
5166,50.0,0.0,1020.0,6.0,0.0
5167,50.0,0.0,1020.0,4.0,0.0
5168,69.0,384.0,510.0,2.0,0.0
5169,69.0,0.0,390.0,0.0,0.0
5170,69.0,0.0,390.0,1.0,0.0
5171,66.0,128.0,390.0,2.0,0.0
5172,74.0,0.0,1020.0,0.0,0.0
5173,62.0,0.0,390.0,6.0,0.0
5174,62.0,0.0,390.0,4.0,0.0
5175,50.0,640.0,390.0,5.0,0.0
5176,66.0,0.0,390.0,3.0,0.0
5177,74.0,0.0,1020.0,1.0,0.0
5178,69.0,0.0,390.0,2.0,0.0
5179,57.0,0.0,1020.0,3.0,0.0
5180,38.0,384.0,1020.0,5.0,0.0
5181,50.0,0.0,1020.0,4.0,0.0
5182,50.0,0.0,1020.0,6.0,0.0
5183,66.0,384.0,510.0,2.0,0.0
5184,66.0,0.0,390.0,1.0,0.0
5185,66.0,0.0,390.0,0.0,0.0
5186,62.0,128.0,390.0,2.0,0.0
5187,66.0,0.0,390.0,2.0,0.0
5188,69.0,0.0,1020.0,1.0,0.0
5189,69.0,0.0,1020.0,0.0,0.0
5190,62.0,0.0,390.0,3.0,0.0
5191,50.0,0.0,390.0,5.0,0.0
5192,62.0,640.0,390.0,6.0,0.0
5193,62.0,0.0,390.0,4.0,0.0
5194,54.0,0.0,510.0,3.0,0.0
5195,62.0,384.0,510.0,2.0,0.0
5196,50.0,384.0,1020.0,4.0,0.0
5197,50.0,0.0,1020.0,6.0,0.0
5198,38.0,0.0,1020.0,5.0,0.0
5199,62.0,0.0,390.0,0.0,0.0
5200,62.0,0.0,390.0,1.0,0.0
5201,57.0,128.0,390.0,3.0,0.0
5202,66.0,0.0,390.0,2.0,0.0
5203,66.0,0.0,390.0,0.0,0.0
5204,62.0,0.0,390.0,3.0,0.0
5205,50.0,512.0,390.0,5.0,0.0
5206,69.0,0.0,390.0,2.0,0.0
5207,62.0,0.0,390.0,6.0,0.0
5208,66.0,0.0,390.0,1.0,0.0
5209,62.0,0.0,390.0,4.0,0.0
5210,69.0,0.0,390.0,1.0,0.0
5211,69.0,0.0,390.0,0.0,0.0
5212,66.0,0.0,390.0,3.0,0.0
5213,50.0,0.0,1020.0,6.0,0.0
5214,38.0,0.0,1020.0,5.0,0.0
5215,74.0,512.0,390.0,2.0,0.0
5216,50.0,384.0,1020.0,4.0,0.0
5217,62.0,0.0,390.0,3.0,0.0
5218,66.0,128.0,390.0,1.0,0.0
5219,66.0,0.0,390.0,0.0,0.0
5220,69.0,0.0,390.0,2.0,0.0
5221,50.0,0.0,390.0,5.0,0.0
5222,69.0,0.0,390.0,1.0,0.0
5223,69.0,512.0,390.0,0.0,0.0
5224,62.0,0.0,390.0,4.0,0.0
5225,62.0,0.0,390.0,6.0,0.0
5226,74.0,0.0,390.0,2.0,0.0
5227,66.0,0.0,390.0,3.0,0.0
5228,69.0,1024.0,1020.0,3.0,0.0
5229,66.0,0.0,1020.0,2.0,0.0
5230,74.0,0.0,390.0,1.0,0.0
5231,50.0,0.0,1020.0,6.0,0.0
5232,38.0,0.0,1020.0,5.0,0.0
5233,74.0,512.0,390.0,0.0,0.0
5234,50.0,0.0,1020.0,4.0,0.0
5235,69.0,128.0,390.0,1.0,0.0
5236,69.0,0.0,390.0,0.0,0.0
5237,71.0,384.0,1020.0,0.0,0.0
5238,71.0,0.0,1020.0,1.0,0.0
5239,62.0,0.0,1020.0,6.0,0.0
5240,62.0,0.0,1020.0,4.0,0.0
5241,67.0,0.0,1020.0,2.0,0.0
5242,62.0,0.0,1020.0,3.0,0.0
5243,50.0,1024.0,1020.0,5.0,0.0
5244,69.0,128.0,390.0,1.0,0.0
5245,69.0,0.0,390.0,0.0,0.0
5246,74.0,384.0,1020.0,0.0,0.0
5247,74.0,0.0,1020.0,1.0,0.0
5248,50.0,0.0,1020.0,4.0,0.0
5249,57.0,0.0,1020.0,3.0,0.0
5250,38.0,0.0,1020.0,5.0,0.0
5251,66.0,0.0,1020.0,2.0,0.0
5252,50.0,1024.0,1020.0,6.0,0.0
5253,69.0,128.0,390.0,0.0,0.0
5254,69.0,0.0,390.0,1.0,0.0
5255,71.0,384.0,1020.0,1.0,0.0
5256,71.0,0.0,1020.0,0.0,0.0
5257,50.0,0.0,1020.0,5.0,0.0
5258,62.0,0.0,1020.0,4.0,0.0
5259,67.0,384.0,1020.0,2.0,0.0
5260,62.0,0.0,1020.0,3.0,0.0
5261,62.0,0.0,1020.0,6.0,0.0
5262,69.0,128.0,390.0,1.0,0.0
5263,69.0,0.0,390.0,0.0,0.0
5264,74.0,0.0,1020.0,0.0,0.0
5265,38.0,640.0,390.0,5.0,0.0
5266,50.0,0.0,390.0,6.0,0.0
5267,74.0,384.0,1020.0,1.0,0.0
5268,57.0,0.0,390.0,3.0,0.0
5269,50.0,0.0,390.0,4.0,0.0
5270,66.0,0.0,390.0,2.0,0.0
5271,67.0,0.0,1020.0,2.0,0.0
5272,59.0,0.0,1020.0,3.0,0.0
5273,43.0,0.0,1020.0,5.0,0.0
5274,55.0,384.0,1020.0,6.0,0.0
5275,55.0,0.0,1020.0,4.0,0.0
5276,71.0,128.0,390.0,0.0,0.0
5277,71.0,0.0,390.0,1.0,0.0
5278,79.0,384.0,1020.0,0.0,0.0
5279,71.0,0.0,390.0,2.0,0.0
5280,79.0,0.0,1020.0,1.0,0.0
5281,40.0,640.0,390.0,5.0,0.0
5282,52.0,0.0,390.0,4.0,0.0
5283,52.0,0.0,390.0,6.0,0.0
5284,64.0,0.0,390.0,3.0,0.0
5285,57.0,0.0,1020.0,6.0,0.0
5286,69.0,384.0,1020.0,2.0,0.0
5287,61.0,0.0,1020.0,3.0,0.0
5288,45.0,0.0,1020.0,5.0,0.0
5289,57.0,0.0,1020.0,4.0,0.0
5290,73.0,0.0,390.0,0.0,0.0
5291,73.0,128.0,390.0,1.0,0.0
5292,57.0,0.0,390.0,3.0,0.0
5293,49.0,0.0,390.0,4.0,0.0
5294,76.0,0.0,390.0,2.0,0.0
5295,37.0,128.0,390.0,5.0,0.0
5296,49.0,0.0,390.0,6.0,0.0
5297,81.0,384.0,510.0,0.0,0.0
5298,81.0,0.0,510.0,1.0,0.0
5299,69.0,0.0,390.0,3.0,0.0
5300,50.0,0.0,390.0,6.0,0.0
5301,78.0,0.0,390.0,1.0,0.0
5302,38.0,0.0,390.0,5.0,0.0
5303,78.0,0.0,390.0,0.0,0.0
5304,74.0,0.0,390.0,2.0,0.0
5305,50.0,512.0,390.0,4.0,0.0
5306,42.0,0.0,390.0,6.0,0.0
5307,66.0,0.0,390.0,3.0,0.0
5308,54.0,0.0,390.0,4.0,0.0
5309,74.0,0.0,390.0,1.0,0.0
5310,69.0,0.0,390.0,2.0,0.0
5311,74.0,0.0,390.0,0.0,0.0
5312,30.0,256.0,390.0,5.0,0.0
5313,73.0,128.0,120.0,0.0,0.0
5314,64.0,0.0,390.0,3.0,0.0
5315,33.0,0.0,390.0,5.0,0.0
5316,73.0,0.0,120.0,1.0,0.0
5317,69.0,0.0,390.0,2.0,0.0
5318,57.0,0.0,390.0,4.0,0.0
5319,45.0,64.0,390.0,6.0,0.0
5320,71.0,0.0,120.0,1.0,0.0
5321,71.0,128.0,120.0,0.0,0.0
5322,73.0,3136.0,180.0,1.0,0.0
5323,73.0,0.0,180.0,0.0,0.0
5324,69.0,0.0,3060.0,2.0,0.0
5325,50.0,0.0,3060.0,4.0,0.0
5326,74.0,0.0,3060.0,0.0,0.0
5327,26.0,0.0,3060.0,5.0,0.0
5328,38.0,0.0,3060.0,6.0,0.0
5329,66.0,4608.0,3060.0,3.0,0.0
5330,74.0,0.0,3060.0,1.0,0.0
