,note,step,duration,channel,velocity
0,69.0,60.0,60.0,1.0,0.0
1,42.0,7.0,240.0,2.0,0.0
2,68.0,60.0,60.0,1.0,0.0
3,66.0,53.0,60.0,1.0,0.0
4,65.0,113.0,60.0,1.0,0.0
5,54.0,120.0,480.0,2.0,0.0
6,66.0,120.0,120.0,1.0,0.0
7,61.0,120.0,120.0,1.0,0.0
8,62.0,120.0,120.0,1.0,0.0
9,59.0,0.0,120.0,1.0,0.0
10,53.0,67.0,240.0,2.0,0.0
11,56.0,120.0,120.0,1.0,0.0
12,61.0,0.0,120.0,1.0,0.0
13,57.0,7.0,120.0,1.0,0.0
14,54.0,53.0,60.0,2.0,0.0
15,52.0,60.0,60.0,2.0,0.0
16,50.0,53.0,60.0,2.0,0.0
17,54.0,7.0,120.0,1.0,0.0
18,49.0,60.0,60.0,2.0,0.0
19,66.0,7.0,120.0,1.0,0.0
20,78.0,0.0,60.0,0.0,0.0
21,50.0,53.0,60.0,2.0,0.0
22,49.0,0.0,60.0,2.0,0.0
23,76.0,60.0,60.0,0.0,0.0
24,47.0,53.0,60.0,2.0,0.0
25,74.0,0.0,60.0,0.0,0.0
26,66.0,7.0,120.0,1.0,0.0
27,45.0,0.0,60.0,2.0,0.0
28,73.0,60.0,60.0,0.0,0.0
29,47.0,53.0,60.0,2.0,0.0
30,66.0,7.0,120.0,1.0,0.0
31,74.0,0.0,60.0,0.0,0.0
32,73.0,0.0,60.0,0.0,0.0
33,45.0,60.0,60.0,2.0,0.0
34,71.0,60.0,60.0,0.0,0.0
35,44.0,0.0,60.0,2.0,0.0
36,65.0,0.0,60.0,1.0,0.0
37,42.0,0.0,60.0,2.0,0.0
38,66.0,0.0,60.0,1.0,0.0
39,69.0,60.0,60.0,0.0,0.0
40,68.0,7.0,120.0,1.0,0.0
41,41.0,0.0,60.0,2.0,0.0
42,68.0,53.0,60.0,0.0,0.0
43,73.0,0.0,60.0,0.0,0.0
44,37.0,60.0,60.0,2.0,0.0
45,71.0,53.0,60.0,0.0,0.0
46,39.0,0.0,60.0,2.0,0.0
47,68.0,7.0,120.0,1.0,0.0
48,41.0,0.0,60.0,2.0,0.0
49,73.0,60.0,60.0,0.0,0.0
50,42.0,53.0,60.0,2.0,0.0
51,68.0,0.0,120.0,1.0,0.0
52,69.0,7.0,120.0,0.0,0.0
53,44.0,60.0,60.0,2.0,0.0
54,66.0,0.0,60.0,1.0,0.0
55,61.0,7.0,120.0,0.0,0.0
56,45.0,53.0,60.0,2.0,0.0
57,65.0,113.0,60.0,1.0,0.0
58,47.0,0.0,60.0,2.0,0.0
59,45.0,7.0,120.0,2.0,0.0
60,66.0,0.0,300.0,1.0,0.0
61,69.0,60.0,60.0,0.0,0.0
62,68.0,53.0,60.0,0.0,0.0
63,50.0,7.0,120.0,2.0,0.0
64,69.0,60.0,60.0,0.0,0.0
65,44.0,53.0,60.0,2.0,0.0
66,71.0,7.0,120.0,0.0,0.0
67,45.0,0.0,60.0,2.0,0.0
68,64.0,60.0,60.0,1.0,0.0
69,47.0,0.0,60.0,2.0,0.0
70,62.0,53.0,60.0,1.0,0.0
71,66.0,7.0,120.0,0.0,0.0
72,61.0,0.0,60.0,1.0,0.0
73,49.0,60.0,60.0,2.0,0.0
74,62.0,53.0,60.0,1.0,0.0
75,68.0,0.0,240.0,0.0,0.0
76,47.0,7.0,120.0,2.0,0.0
77,59.0,60.0,60.0,1.0,0.0
78,61.0,53.0,60.0,1.0,0.0
79,52.0,67.0,120.0,2.0,0.0
80,62.0,53.0,120.0,1.0,0.0
81,45.0,0.0,120.0,2.0,0.0
82,69.0,7.0,120.0,0.0,0.0
83,61.0,60.0,60.0,1.0,0.0
84,63.0,53.0,60.0,1.0,0.0
85,44.0,7.0,120.0,2.0,0.0
86,65.0,60.0,60.0,1.0,0.0
87,66.0,53.0,60.0,1.0,0.0
88,45.0,7.0,120.0,2.0,0.0
89,68.0,60.0,60.0,1.0,0.0
90,42.0,7.0,120.0,2.0,0.0
91,69.0,53.0,60.0,1.0,0.0
92,66.0,60.0,60.0,1.0,0.0
93,49.0,7.0,120.0,2.0,0.0
94,76.0,53.0,60.0,0.0,0.0
95,68.0,0.0,120.0,1.0,0.0
96,75.0,60.0,60.0,0.0,0.0
97,73.0,53.0,60.0,0.0,0.0
98,56.0,0.0,120.0,1.0,0.0
99,52.0,7.0,120.0,2.0,0.0
100,72.0,60.0,60.0,0.0,0.0
101,61.0,0.0,480.0,1.0,0.0
102,57.0,53.0,60.0,2.0,0.0
103,73.0,7.0,120.0,0.0,0.0
104,56.0,60.0,60.0,2.0,0.0
105,54.0,53.0,60.0,2.0,0.0
106,68.0,7.0,120.0,0.0,0.0
107,52.0,60.0,60.0,2.0,0.0
108,54.0,53.0,60.0,2.0,0.0
109,69.0,7.0,120.0,0.0,0.0
110,51.0,60.0,60.0,2.0,0.0
111,66.0,7.0,120.0,0.0,0.0
112,52.0,53.0,60.0,2.0,0.0
113,54.0,60.0,60.0,2.0,0.0
114,63.0,7.0,120.0,0.0,0.0
115,56.0,53.0,60.0,2.0,0.0
116,60.0,0.0,240.0,1.0,0.0
117,54.0,60.0,60.0,2.0,0.0
118,68.0,7.0,120.0,0.0,0.0
119,52.0,53.0,60.0,2.0,0.0
120,51.0,60.0,60.0,2.0,0.0
121,61.0,53.0,60.0,1.0,0.0
122,49.0,53.0,300.0,2.0,0.0
123,64.0,7.0,120.0,0.0,0.0
124,60.0,60.0,60.0,1.0,0.0
125,61.0,7.0,120.0,0.0,0.0
126,61.0,53.0,60.0,1.0,0.0
127,63.0,60.0,60.0,1.0,0.0
128,64.0,0.0,60.0,1.0,0.0
129,73.0,7.0,120.0,0.0,0.0
130,51.0,0.0,60.0,2.0,0.0
131,66.0,60.0,60.0,1.0,0.0
132,68.0,53.0,60.0,1.0,0.0
133,52.0,0.0,60.0,2.0,0.0
134,73.0,7.0,120.0,0.0,0.0
135,49.0,0.0,60.0,2.0,0.0
136,64.0,60.0,60.0,1.0,0.0
137,66.0,53.0,60.0,1.0,0.0
138,73.0,7.0,120.0,0.0,0.0
139,51.0,0.0,60.0,2.0,0.0
140,52.0,60.0,60.0,2.0,0.0
141,64.0,0.0,60.0,1.0,0.0
142,72.0,0.0,60.0,0.0,0.0
143,54.0,7.0,120.0,2.0,0.0
144,63.0,53.0,60.0,1.0,0.0
145,64.0,0.0,60.0,1.0,0.0
146,73.0,60.0,60.0,0.0,0.0
147,66.0,53.0,60.0,1.0,0.0
148,75.0,0.0,120.0,0.0,0.0
149,48.0,7.0,120.0,2.0,0.0
150,68.0,60.0,60.0,1.0,0.0
151,75.0,7.0,120.0,0.0,0.0
152,69.0,0.0,60.0,1.0,0.0
153,49.0,53.0,60.0,2.0,0.0
154,66.0,0.0,60.0,1.0,0.0
155,51.0,60.0,60.0,2.0,0.0
156,68.0,7.0,240.0,1.0,0.0
157,75.0,7.0,120.0,0.0,0.0
158,52.0,53.0,60.0,2.0,0.0
159,54.0,60.0,60.0,2.0,0.0
160,73.0,0.0,60.0,0.0,0.0
161,52.0,53.0,60.0,2.0,0.0
162,51.0,0.0,60.0,2.0,0.0
163,75.0,60.0,60.0,0.0,0.0
164,49.0,53.0,60.0,2.0,0.0
165,76.0,7.0,120.0,0.0,0.0
166,47.0,60.0,60.0,2.0,0.0
167,76.0,7.0,120.0,0.0,0.0
168,45.0,53.0,60.0,2.0,0.0
169,73.0,0.0,60.0,1.0,0.0
170,49.0,60.0,60.0,2.0,0.0
171,68.0,0.0,60.0,1.0,0.0
172,42.0,0.0,240.0,2.0,0.0
173,76.0,7.0,120.0,0.0,0.0
174,69.0,53.0,60.0,1.0,0.0
175,71.0,60.0,60.0,1.0,0.0
176,73.0,7.0,120.0,0.0,0.0
177,69.0,53.0,60.0,1.0,0.0
178,68.0,60.0,60.0,1.0,0.0
179,66.0,53.0,60.0,1.0,0.0
180,75.0,7.0,120.0,0.0,0.0
181,64.0,60.0,60.0,1.0,0.0
182,63.0,53.0,60.0,1.0,0.0
183,78.0,7.0,120.0,0.0,0.0
184,66.0,113.0,60.0,1.0,0.0
185,60.0,7.0,120.0,1.0,0.0
186,78.0,0.0,120.0,0.0,0.0
187,57.0,60.0,60.0,2.0,0.0
188,72.0,0.0,120.0,0.0,0.0
189,63.0,7.0,120.0,1.0,0.0
190,56.0,53.0,60.0,2.0,0.0
191,54.0,60.0,60.0,2.0,0.0
192,56.0,7.0,120.0,1.0,0.0
193,73.0,0.0,480.0,0.0,0.0
194,52.0,53.0,60.0,2.0,0.0
195,51.0,60.0,60.0,2.0,0.0
196,49.0,53.0,60.0,2.0,0.0
197,68.0,7.0,120.0,1.0,0.0
198,52.0,60.0,60.0,2.0,0.0
199,45.0,7.0,120.0,2.0,0.0
200,66.0,53.0,60.0,1.0,0.0
201,68.0,60.0,60.0,1.0,0.0
202,69.0,53.0,60.0,1.0,0.0
203,42.0,7.0,120.0,2.0,0.0
204,66.0,60.0,60.0,1.0,0.0
205,72.0,0.0,240.0,0.0,0.0
206,44.0,7.0,120.0,2.0,0.0
207,63.0,53.0,60.0,1.0,0.0
208,69.0,60.0,60.0,1.0,0.0
209,68.0,53.0,60.0,1.0,0.0
210,32.0,7.0,120.0,2.0,0.0
211,66.0,60.0,60.0,1.0,0.0
212,64.0,7.0,240.0,1.0,0.0
213,73.0,7.0,120.0,0.0,0.0
214,37.0,53.0,60.0,2.0,0.0
215,44.0,60.0,60.0,2.0,0.0
216,46.0,53.0,60.0,2.0,0.0
217,68.0,0.0,120.0,0.0,0.0
218,48.0,60.0,60.0,2.0,0.0
219,49.0,0.0,60.0,2.0,0.0
220,64.0,60.0,60.0,0.0,0.0
221,71.0,60.0,60.0,0.0,0.0
222,50.0,0.0,60.0,2.0,0.0
223,52.0,0.0,60.0,2.0,0.0
224,55.0,7.0,120.0,1.0,0.0
225,70.0,53.0,60.0,0.0,0.0
226,71.0,60.0,60.0,0.0,0.0
227,49.0,0.0,60.0,2.0,0.0
228,46.0,0.0,240.0,2.0,0.0
229,73.0,7.0,120.0,0.0,0.0
230,54.0,53.0,60.0,1.0,0.0
231,56.0,60.0,60.0,1.0,0.0
232,66.0,7.0,120.0,0.0,0.0
233,58.0,53.0,60.0,1.0,0.0
234,59.0,60.0,60.0,1.0,0.0
235,64.0,7.0,120.0,0.0,0.0
236,61.0,53.0,60.0,1.0,0.0
237,62.0,60.0,60.0,1.0,0.0
238,64.0,53.0,60.0,1.0,0.0
239,73.0,7.0,240.0,0.0,0.0
240,42.0,7.0,120.0,2.0,0.0
241,61.0,60.0,60.0,1.0,0.0
242,62.0,7.0,240.0,1.0,0.0
243,35.0,53.0,60.0,2.0,0.0
244,42.0,60.0,60.0,2.0,0.0
245,71.0,53.0,60.0,0.0,0.0
246,44.0,0.0,60.0,2.0,0.0
247,73.0,60.0,60.0,0.0,0.0
248,46.0,0.0,60.0,2.0,0.0
249,74.0,7.0,120.0,0.0,0.0
250,47.0,53.0,60.0,2.0,0.0
251,49.0,60.0,60.0,2.0,0.0
252,50.0,53.0,60.0,2.0,0.0
253,66.0,7.0,120.0,0.0,0.0
254,62.0,7.0,240.0,1.0,0.0
255,47.0,60.0,60.0,2.0,0.0
256,44.0,0.0,120.0,2.0,0.0
257,64.0,53.0,60.0,0.0,0.0
258,66.0,60.0,60.0,0.0,0.0
259,68.0,53.0,60.0,0.0,0.0
260,53.0,0.0,120.0,1.0,0.0
261,47.0,7.0,120.0,2.0,0.0
262,69.0,60.0,60.0,0.0,0.0
263,71.0,53.0,60.0,0.0,0.0
264,52.0,7.0,120.0,1.0,0.0
265,44.0,0.0,120.0,2.0,0.0
266,73.0,60.0,60.0,0.0,0.0
267,68.0,7.0,120.0,1.0,0.0
268,40.0,0.0,120.0,2.0,0.0
269,74.0,53.0,60.0,0.0,0.0
270,71.0,60.0,60.0,0.0,0.0
271,69.0,7.0,120.0,1.0,0.0
272,73.0,0.0,120.0,0.0,0.0
273,33.0,53.0,60.0,2.0,0.0
274,40.0,60.0,60.0,2.0,0.0
275,42.0,53.0,60.0,2.0,0.0
276,59.0,0.0,120.0,1.0,0.0
277,62.0,7.0,120.0,0.0,0.0
278,44.0,60.0,60.0,2.0,0.0
279,45.0,53.0,60.0,2.0,0.0
280,61.0,0.0,120.0,0.0,0.0
281,57.0,7.0,120.0,1.0,0.0
282,47.0,60.0,60.0,2.0,0.0
283,49.0,53.0,60.0,2.0,0.0
284,69.0,7.0,120.0,0.0,0.0
285,45.0,60.0,60.0,2.0,0.0
286,50.0,60.0,60.0,2.0,0.0
287,66.0,7.0,360.0,0.0,0.0
288,52.0,60.0,60.0,2.0,0.0
289,57.0,7.0,120.0,1.0,0.0
290,50.0,53.0,60.0,2.0,0.0
291,49.0,60.0,60.0,2.0,0.0
292,47.0,53.0,60.0,2.0,0.0
293,62.0,7.0,360.0,1.0,0.0
294,45.0,60.0,60.0,2.0,0.0
295,71.0,60.0,60.0,0.0,0.0
296,44.0,0.0,60.0,2.0,0.0
297,69.0,60.0,60.0,0.0,0.0
298,47.0,0.0,60.0,2.0,0.0
299,68.0,7.0,360.0,0.0,0.0
300,41.0,53.0,60.0,2.0,0.0
301,37.0,60.0,60.0,2.0,0.0
302,61.0,60.0,60.0,1.0,0.0
303,39.0,0.0,60.0,2.0,0.0
304,59.0,60.0,60.0,1.0,0.0
305,41.0,0.0,60.0,2.0,0.0
306,57.0,7.0,240.0,1.0,0.0
307,42.0,53.0,60.0,2.0,0.0
308,44.0,60.0,60.0,2.0,0.0
309,45.0,53.0,60.0,2.0,0.0
310,66.0,53.0,180.0,0.0,0.0
311,42.0,60.0,60.0,2.0,0.0
312,56.0,7.0,240.0,1.0,0.0
313,47.0,7.0,120.0,2.0,0.0
314,68.0,60.0,60.0,0.0,0.0
315,44.0,0.0,120.0,2.0,0.0
316,69.0,53.0,60.0,0.0,0.0
317,71.0,60.0,60.0,0.0,0.0
318,49.0,7.0,120.0,2.0,0.0
319,65.0,53.0,60.0,0.0,0.0
320,74.0,60.0,60.0,0.0,0.0
321,37.0,7.0,120.0,2.0,0.0
322,73.0,53.0,60.0,0.0,0.0
323,71.0,60.0,60.0,0.0,0.0
324,42.0,7.0,120.0,2.0,0.0
325,69.0,53.0,60.0,0.0,0.0
326,54.0,60.0,60.0,1.0,0.0
327,73.0,0.0,60.0,0.0,0.0
328,56.0,60.0,60.0,1.0,0.0
329,71.0,0.0,60.0,0.0,0.0
330,69.0,60.0,60.0,0.0,0.0
331,57.0,0.0,60.0,1.0,0.0
332,59.0,60.0,60.0,1.0,0.0
333,68.0,0.0,60.0,0.0,0.0
334,61.0,0.0,60.0,1.0,0.0
335,66.0,60.0,60.0,0.0,0.0
336,62.0,0.0,60.0,1.0,0.0
337,65.0,53.0,60.0,0.0,0.0
338,56.0,7.0,120.0,2.0,0.0
339,59.0,60.0,60.0,1.0,0.0
340,68.0,0.0,60.0,0.0,0.0
341,57.0,53.0,60.0,2.0,0.0
342,61.0,7.0,120.0,1.0,0.0
343,66.0,0.0,120.0,0.0,0.0
344,56.0,60.0,60.0,2.0,0.0
345,54.0,0.0,60.0,2.0,0.0
346,69.0,60.0,60.0,0.0,0.0
347,53.0,0.0,60.0,2.0,0.0
348,68.0,60.0,60.0,0.0,0.0
349,69.0,7.0,120.0,0.0,0.0
350,54.0,0.0,120.0,2.0,0.0
351,69.0,53.0,60.0,1.0,0.0
352,68.0,60.0,60.0,1.0,0.0
353,66.0,53.0,60.0,1.0,0.0
354,49.0,0.0,120.0,2.0,0.0
355,69.0,7.0,120.0,0.0,0.0
356,65.0,113.0,60.0,1.0,0.0
357,66.0,53.0,300.0,1.0,0.0
358,69.0,0.0,120.0,0.0,0.0
359,50.0,67.0,120.0,2.0,0.0
360,68.0,53.0,60.0,0.0,0.0
361,47.0,7.0,120.0,2.0,0.0
362,69.0,60.0,60.0,0.0,0.0
363,44.0,7.0,120.0,2.0,0.0
364,71.0,0.0,120.0,0.0,0.0
365,65.0,60.0,60.0,1.0,0.0
366,49.0,7.0,120.0,2.0,0.0
367,71.0,0.0,120.0,0.0,0.0
368,63.0,53.0,60.0,1.0,0.0
369,65.0,113.0,60.0,1.0,0.0
370,66.0,67.0,120.0,1.0,0.0
371,71.0,0.0,120.0,0.0,0.0
372,45.0,0.0,120.0,2.0,0.0
373,61.0,7.0,120.0,1.0,0.0
374,42.0,0.0,120.0,2.0,0.0
375,69.0,53.0,60.0,0.0,0.0
376,71.0,60.0,60.0,0.0,0.0
377,54.0,0.0,120.0,2.0,0.0
378,57.0,7.0,120.0,1.0,0.0
379,73.0,53.0,60.0,0.0,0.0
380,76.0,60.0,60.0,0.0,0.0
381,54.0,7.0,120.0,2.0,0.0
382,74.0,53.0,60.0,0.0,0.0
383,59.0,0.0,60.0,1.0,0.0
384,73.0,60.0,60.0,0.0,0.0
385,61.0,0.0,60.0,1.0,0.0
386,54.0,7.0,120.0,2.0,0.0
387,62.0,53.0,300.0,1.0,0.0
388,71.0,53.0,60.0,0.0,0.0
389,69.0,60.0,60.0,0.0,0.0
390,68.0,60.0,60.0,0.0,0.0
391,52.0,0.0,60.0,2.0,0.0
392,54.0,0.0,60.0,2.0,0.0
393,71.0,60.0,60.0,0.0,0.0
394,56.0,7.0,120.0,2.0,0.0
395,64.0,7.0,240.0,0.0,0.0
396,61.0,60.0,60.0,1.0,0.0
397,56.0,0.0,120.0,2.0,0.0
398,59.0,53.0,60.0,1.0,0.0
399,62.0,60.0,60.0,1.0,0.0
400,61.0,53.0,60.0,1.0,0.0
401,69.0,7.0,240.0,0.0,0.0
402,56.0,7.0,120.0,2.0,0.0
403,59.0,60.0,60.0,1.0,0.0
404,54.0,53.0,60.0,2.0,0.0
405,57.0,0.0,60.0,1.0,0.0
406,59.0,60.0,60.0,1.0,0.0
407,56.0,0.0,60.0,2.0,0.0
408,61.0,53.0,60.0,1.0,0.0
409,57.0,7.0,120.0,2.0,0.0
410,62.0,60.0,60.0,1.0,0.0
411,64.0,53.0,60.0,1.0,0.0
412,57.0,7.0,120.0,2.0,0.0
413,61.0,113.0,60.0,1.0,0.0
414,62.0,7.0,240.0,1.0,0.0
415,57.0,7.0,120.0,2.0,0.0
416,66.0,60.0,60.0,0.0,0.0
417,56.0,0.0,60.0,2.0,0.0
418,68.0,53.0,60.0,0.0,0.0
419,54.0,60.0,60.0,2.0,0.0
420,69.0,0.0,60.0,0.0,0.0
421,71.0,53.0,60.0,0.0,0.0
422,56.0,7.0,120.0,2.0,0.0
423,73.0,60.0,60.0,0.0,0.0
424,57.0,7.0,120.0,1.0,0.0
425,74.0,53.0,60.0,0.0,0.0
426,59.0,0.0,120.0,2.0,0.0
427,71.0,60.0,60.0,0.0,0.0
428,52.0,7.0,240.0,2.0,0.0
429,73.0,0.0,60.0,0.0,0.0
430,56.0,60.0,60.0,1.0,0.0
431,62.0,60.0,60.0,1.0,0.0
432,71.0,0.0,60.0,0.0,0.0
433,69.0,53.0,60.0,0.0,0.0
434,61.0,0.0,60.0,1.0,0.0
435,68.0,113.0,60.0,0.0,0.0
436,59.0,0.0,60.0,1.0,0.0
437,61.0,0.0,360.0,1.0,0.0
438,69.0,7.0,120.0,0.0,0.0
439,45.0,60.0,60.0,2.0,0.0
440,47.0,53.0,60.0,2.0,0.0
441,64.0,7.0,120.0,0.0,0.0
442,49.0,60.0,60.0,2.0,0.0
443,50.0,53.0,60.0,2.0,0.0
444,66.0,7.0,120.0,0.0,0.0
445,52.0,60.0,60.0,2.0,0.0
446,62.0,7.0,120.0,0.0,0.0
447,54.0,0.0,60.0,2.0,0.0
448,59.0,53.0,60.0,1.0,0.0
449,50.0,60.0,60.0,2.0,0.0
450,57.0,0.0,60.0,1.0,0.0
451,52.0,7.0,240.0,2.0,0.0
452,56.0,53.0,60.0,1.0,0.0
453,59.0,7.0,120.0,0.0,0.0
454,57.0,60.0,60.0,1.0,0.0
455,64.0,0.0,120.0,0.0,0.0
456,54.0,53.0,60.0,1.0,0.0
457,56.0,60.0,60.0,1.0,0.0
458,61.0,0.0,120.0,0.0,0.0
459,57.0,7.0,120.0,1.0,0.0
460,45.0,53.0,60.0,2.0,0.0
461,49.0,60.0,60.0,2.0,0.0
462,57.0,7.0,120.0,0.0,0.0
463,50.0,53.0,60.0,2.0,0.0
464,52.0,60.0,60.0,2.0,0.0
465,69.0,7.0,120.0,0.0,0.0
466,54.0,0.0,60.0,2.0,0.0
467,66.0,53.0,60.0,1.0,0.0
468,56.0,0.0,60.0,2.0,0.0
469,64.0,60.0,60.0,1.0,0.0
470,69.0,7.0,120.0,0.0,0.0
471,62.0,53.0,60.0,1.0,0.0
472,57.0,0.0,60.0,2.0,0.0
473,61.0,0.0,60.0,1.0,0.0
474,54.0,60.0,60.0,2.0,0.0
475,59.0,53.0,60.0,2.0,0.0
476,62.0,7.0,120.0,1.0,0.0
477,69.0,0.0,120.0,0.0,0.0
478,61.0,60.0,60.0,2.0,0.0
479,59.0,0.0,60.0,2.0,0.0
480,59.0,7.0,120.0,1.0,0.0
481,68.0,53.0,60.0,0.0,0.0
482,57.0,60.0,60.0,2.0,0.0
483,69.0,0.0,60.0,0.0,0.0
484,56.0,7.0,120.0,2.0,0.0
485,71.0,0.0,120.0,0.0,0.0
486,64.0,53.0,60.0,1.0,0.0
487,62.0,60.0,60.0,1.0,0.0
488,61.0,53.0,60.0,1.0,0.0
489,52.0,7.0,120.0,2.0,0.0
490,71.0,0.0,120.0,0.0,0.0
491,59.0,60.0,60.0,1.0,0.0
492,61.0,53.0,60.0,1.0,0.0
493,71.0,7.0,120.0,0.0,0.0
494,57.0,7.0,240.0,2.0,0.0
495,59.0,60.0,60.0,1.0,0.0
496,69.0,53.0,60.0,0.0,0.0
497,61.0,0.0,60.0,1.0,0.0
498,71.0,0.0,60.0,0.0,0.0
499,62.0,60.0,60.0,1.0,0.0
500,64.0,53.0,60.0,1.0,0.0
501,73.0,7.0,120.0,0.0,0.0
502,66.0,60.0,60.0,1.0,0.0
503,68.0,53.0,60.0,1.0,0.0
504,52.0,7.0,120.0,2.0,0.0
505,73.0,0.0,120.0,0.0,0.0
506,64.0,60.0,60.0,1.0,0.0
507,54.0,53.0,60.0,2.0,0.0
508,69.0,7.0,600.0,1.0,0.0
509,73.0,7.0,120.0,0.0,0.0
510,52.0,60.0,60.0,2.0,0.0
511,51.0,60.0,60.0,2.0,0.0
512,71.0,0.0,60.0,0.0,0.0
513,49.0,0.0,60.0,2.0,0.0
514,73.0,60.0,60.0,0.0,0.0
515,47.0,60.0,60.0,2.0,0.0
516,75.0,0.0,60.0,0.0,0.0
517,45.0,60.0,60.0,2.0,0.0
518,76.0,0.0,60.0,0.0,0.0
519,78.0,0.0,60.0,0.0,0.0
520,44.0,60.0,60.0,2.0,0.0
521,42.0,0.0,60.0,2.0,0.0
522,75.0,60.0,60.0,0.0,0.0
523,40.0,53.0,60.0,2.0,0.0
524,76.0,7.0,1080.0,0.0,0.0
525,42.0,60.0,60.0,2.0,0.0
526,71.0,0.0,60.0,1.0,0.0
527,44.0,60.0,60.0,2.0,0.0
528,45.0,60.0,60.0,2.0,0.0
529,69.0,0.0,60.0,1.0,0.0
530,47.0,53.0,60.0,2.0,0.0
531,68.0,7.0,120.0,1.0,0.0
532,49.0,60.0,60.0,2.0,0.0
533,50.0,53.0,60.0,2.0,0.0
534,71.0,7.0,120.0,1.0,0.0
535,47.0,60.0,60.0,2.0,0.0
536,49.0,53.0,60.0,2.0,0.0
537,64.0,7.0,120.0,1.0,0.0
538,47.0,60.0,60.0,2.0,0.0
539,45.0,60.0,60.0,2.0,0.0
540,73.0,0.0,60.0,1.0,0.0
541,47.0,0.0,60.0,2.0,0.0
542,71.0,60.0,60.0,1.0,0.0
543,49.0,53.0,60.0,2.0,0.0
544,69.0,7.0,120.0,1.0,0.0
545,51.0,60.0,60.0,2.0,0.0
546,52.0,53.0,60.0,2.0,0.0
547,68.0,7.0,120.0,1.0,0.0
548,49.0,60.0,60.0,2.0,0.0
549,57.0,53.0,60.0,2.0,0.0
550,66.0,7.0,240.0,1.0,0.0
551,56.0,60.0,60.0,2.0,0.0
552,75.0,53.0,60.0,0.0,0.0
553,54.0,0.0,60.0,2.0,0.0
554,52.0,0.0,60.0,2.0,0.0
555,76.0,60.0,60.0,0.0,0.0
556,51.0,53.0,60.0,2.0,0.0
557,78.0,7.0,120.0,0.0,0.0
558,49.0,60.0,60.0,2.0,0.0
559,47.0,60.0,60.0,2.0,0.0
560,66.0,7.0,240.0,1.0,0.0
561,69.0,0.0,240.0,0.0,0.0
562,51.0,60.0,60.0,2.0,0.0
563,44.0,53.0,60.0,2.0,0.0
564,49.0,60.0,60.0,2.0,0.0
565,68.0,53.0,60.0,0.0,0.0
566,47.0,0.0,60.0,2.0,0.0
567,64.0,7.0,120.0,1.0,0.0
568,45.0,60.0,60.0,2.0,0.0
569,69.0,0.0,60.0,0.0,0.0
570,44.0,53.0,60.0,2.0,0.0
571,71.0,7.0,120.0,0.0,0.0
572,42.0,60.0,60.0,2.0,0.0
573,40.0,60.0,60.0,2.0,0.0
574,62.0,53.0,180.0,0.0,0.0
575,59.0,0.0,240.0,1.0,0.0
576,44.0,60.0,60.0,2.0,0.0
577,33.0,7.0,120.0,2.0,0.0
578,61.0,60.0,60.0,0.0,0.0
579,63.0,0.0,60.0,0.0,0.0
580,49.0,7.0,120.0,2.0,0.0
581,57.0,53.0,60.0,1.0,0.0
582,56.0,60.0,60.0,1.0,0.0
583,64.0,0.0,60.0,0.0,0.0
584,54.0,53.0,60.0,1.0,0.0
585,45.0,7.0,120.0,2.0,0.0
586,66.0,0.0,60.0,0.0,0.0
587,68.0,0.0,60.0,0.0,0.0
588,52.0,60.0,60.0,1.0,0.0
589,69.0,53.0,60.0,0.0,0.0
590,51.0,0.0,60.0,1.0,0.0
591,47.0,7.0,120.0,2.0,0.0
592,66.0,60.0,60.0,0.0,0.0
593,54.0,0.0,60.0,1.0,0.0
594,52.0,60.0,60.0,1.0,0.0
595,68.0,7.0,240.0,0.0,0.0
596,52.0,0.0,60.0,2.0,0.0
597,51.0,0.0,60.0,2.0,0.0
598,59.0,60.0,60.0,1.0,0.0
599,49.0,53.0,60.0,2.0,0.0
600,61.0,0.0,60.0,1.0,0.0
601,63.0,60.0,60.0,1.0,0.0
602,47.0,0.0,60.0,2.0,0.0
603,49.0,7.0,120.0,2.0,0.0
604,64.0,53.0,60.0,1.0,0.0
605,66.0,60.0,60.0,1.0,0.0
606,68.0,53.0,60.0,1.0,0.0
607,44.0,7.0,120.0,2.0,0.0
608,64.0,113.0,60.0,1.0,0.0
609,45.0,7.0,120.0,2.0,0.0
610,73.0,0.0,120.0,1.0,0.0
611,71.0,60.0,60.0,0.0,0.0
612,69.0,53.0,60.0,0.0,0.0
613,42.0,7.0,120.0,2.0,0.0
614,68.0,60.0,60.0,0.0,0.0
615,39.0,7.0,120.0,2.0,0.0
616,66.0,53.0,60.0,0.0,0.0
617,64.0,60.0,60.0,0.0,0.0
618,63.0,53.0,60.0,0.0,0.0
619,47.0,7.0,120.0,2.0,0.0
620,66.0,60.0,60.0,0.0,0.0
621,44.0,60.0,60.0,2.0,0.0
622,59.0,0.0,240.0,0.0,0.0
623,42.0,60.0,60.0,2.0,0.0
624,52.0,7.0,120.0,1.0,0.0
625,40.0,53.0,60.0,2.0,0.0
626,42.0,60.0,60.0,2.0,0.0
627,59.0,7.0,120.0,1.0,0.0
628,44.0,53.0,60.0,2.0,0.0
629,46.0,60.0,60.0,2.0,0.0
630,47.0,53.0,60.0,2.0,0.0
631,62.0,7.0,120.0,0.0,0.0
632,59.0,0.0,120.0,1.0,0.0
633,44.0,60.0,60.0,2.0,0.0
634,46.0,53.0,60.0,2.0,0.0
635,59.0,0.0,120.0,1.0,0.0
636,61.0,7.0,120.0,0.0,0.0
637,44.0,60.0,60.0,2.0,0.0
638,66.0,7.0,120.0,0.0,0.0
639,58.0,53.0,60.0,1.0,0.0
640,42.0,0.0,60.0,2.0,0.0
641,44.0,60.0,60.0,2.0,0.0
642,59.0,0.0,60.0,1.0,0.0
643,46.0,53.0,60.0,2.0,0.0
644,61.0,7.0,120.0,1.0,0.0
645,47.0,60.0,60.0,2.0,0.0
646,64.0,0.0,120.0,0.0,0.0
647,49.0,53.0,60.0,2.0,0.0
648,61.0,7.0,120.0,1.0,0.0
649,46.0,60.0,60.0,2.0,0.0
650,62.0,0.0,120.0,0.0,0.0
651,61.0,7.0,120.0,1.0,0.0
652,47.0,53.0,60.0,2.0,0.0
653,49.0,60.0,60.0,2.0,0.0
654,59.0,53.0,60.0,1.0,0.0
655,67.0,7.0,120.0,0.0,0.0
656,50.0,0.0,60.0,2.0,0.0
657,49.0,60.0,60.0,2.0,0.0
658,61.0,0.0,60.0,1.0,0.0
659,62.0,7.0,120.0,1.0,0.0
660,47.0,53.0,60.0,2.0,0.0
661,45.0,60.0,60.0,2.0,0.0
662,66.0,0.0,120.0,0.0,0.0
663,62.0,7.0,120.0,1.0,0.0
664,43.0,53.0,60.0,2.0,0.0
665,42.0,60.0,60.0,2.0,0.0
666,64.0,0.0,120.0,0.0,0.0
667,62.0,7.0,120.0,1.0,0.0
668,43.0,53.0,60.0,2.0,0.0
669,47.0,60.0,60.0,2.0,0.0
670,61.0,0.0,60.0,1.0,0.0
671,45.0,53.0,60.0,2.0,0.0
672,69.0,7.0,120.0,0.0,0.0
673,62.0,60.0,60.0,1.0,0.0
674,43.0,0.0,60.0,2.0,0.0
675,42.0,53.0,60.0,2.0,0.0
676,64.0,7.0,120.0,1.0,0.0
677,40.0,60.0,60.0,2.0,0.0
678,64.0,53.0,180.0,1.0,0.0
679,67.0,7.0,120.0,0.0,0.0
680,38.0,53.0,60.0,2.0,0.0
681,37.0,60.0,60.0,2.0,0.0
682,38.0,7.0,120.0,2.0,0.0
683,66.0,7.0,240.0,0.0,0.0
684,64.0,60.0,60.0,1.0,0.0
685,40.0,0.0,120.0,2.0,0.0
686,62.0,53.0,60.0,1.0,0.0
687,61.0,60.0,60.0,1.0,0.0
688,62.0,7.0,120.0,1.0,0.0
689,42.0,53.0,60.0,2.0,0.0
690,38.0,60.0,60.0,2.0,0.0
691,57.0,7.0,120.0,1.0,0.0
692,40.0,53.0,60.0,2.0,0.0
693,42.0,60.0,60.0,2.0,0.0
694,59.0,7.0,120.0,1.0,0.0
695,43.0,53.0,60.0,2.0,0.0
696,45.0,60.0,60.0,2.0,0.0
697,55.0,7.0,120.0,1.0,0.0
698,47.0,53.0,60.0,2.0,0.0
699,43.0,60.0,60.0,2.0,0.0
700,45.0,53.0,60.0,2.0,0.0
701,52.0,7.0,120.0,1.0,0.0
702,47.0,60.0,60.0,2.0,0.0
703,57.0,7.0,120.0,1.0,0.0
704,49.0,53.0,60.0,2.0,0.0
705,45.0,60.0,60.0,2.0,0.0
706,50.0,60.0,60.0,2.0,0.0
707,54.0,0.0,240.0,1.0,0.0
708,52.0,60.0,60.0,2.0,0.0
709,50.0,53.0,60.0,2.0,0.0
710,69.0,7.0,120.0,0.0,0.0
711,49.0,60.0,60.0,2.0,0.0
712,47.0,53.0,60.0,2.0,0.0
713,74.0,7.0,120.0,0.0,0.0
714,49.0,60.0,60.0,2.0,0.0
715,74.0,0.0,120.0,0.0,0.0
716,66.0,7.0,120.0,1.0,0.0
717,50.0,53.0,60.0,2.0,0.0
718,47.0,60.0,60.0,2.0,0.0
719,74.0,7.0,120.0,0.0,0.0
720,52.0,53.0,60.0,2.0,0.0
721,67.0,7.0,240.0,1.0,0.0
722,54.0,60.0,60.0,2.0,0.0
723,73.0,0.0,60.0,0.0,0.0
724,52.0,53.0,60.0,2.0,0.0
725,50.0,0.0,60.0,2.0,0.0
726,74.0,60.0,60.0,0.0,0.0
727,76.0,7.0,120.0,0.0,0.0
728,49.0,53.0,60.0,2.0,0.0
729,50.0,60.0,60.0,2.0,0.0
730,52.0,53.0,60.0,2.0,0.0
731,76.0,7.0,120.0,0.0,0.0
732,67.0,0.0,120.0,1.0,0.0
733,49.0,60.0,60.0,2.0,0.0
734,46.0,53.0,60.0,2.0,0.0
735,66.0,7.0,360.0,1.0,0.0
736,76.0,7.0,120.0,0.0,0.0
737,42.0,60.0,60.0,2.0,0.0
738,74.0,0.0,60.0,0.0,0.0
739,44.0,60.0,60.0,2.0,0.0
740,46.0,60.0,60.0,2.0,0.0
741,73.0,0.0,60.0,0.0,0.0
742,74.0,7.0,360.0,0.0,0.0
743,47.0,53.0,60.0,2.0,0.0
744,49.0,60.0,60.0,2.0,0.0
745,50.0,53.0,60.0,2.0,0.0
746,71.0,7.0,120.0,1.0,0.0
747,47.0,60.0,60.0,2.0,0.0
748,64.0,0.0,120.0,1.0,0.0
749,55.0,53.0,60.0,2.0,0.0
750,54.0,60.0,60.0,2.0,0.0
751,79.0,0.0,60.0,0.0,0.0
752,52.0,60.0,60.0,2.0,0.0
753,78.0,0.0,60.0,0.0,0.0
754,54.0,60.0,60.0,2.0,0.0
755,55.0,7.0,240.0,2.0,0.0
756,76.0,60.0,60.0,0.0,0.0
757,74.0,60.0,60.0,0.0,0.0
758,73.0,53.0,60.0,0.0,0.0
759,64.0,0.0,180.0,1.0,0.0
760,76.0,60.0,60.0,0.0,0.0
761,54.0,7.0,480.0,2.0,0.0
762,70.0,60.0,60.0,0.0,0.0
763,68.0,60.0,60.0,0.0,0.0
764,66.0,0.0,60.0,1.0,0.0
765,64.0,0.0,60.0,1.0,0.0
766,70.0,60.0,60.0,0.0,0.0
767,71.0,60.0,60.0,0.0,0.0
768,62.0,0.0,60.0,1.0,0.0
769,61.0,0.0,60.0,1.0,0.0
770,73.0,60.0,60.0,0.0,0.0
771,59.0,60.0,60.0,1.0,0.0
772,74.0,0.0,60.0,0.0,0.0
773,76.0,0.0,60.0,0.0,0.0
774,58.0,53.0,60.0,1.0,0.0
775,73.0,0.0,60.0,0.0,0.0
776,61.0,60.0,60.0,1.0,0.0
777,59.0,7.0,120.0,1.0,0.0
778,74.0,53.0,60.0,0.0,0.0
779,73.0,60.0,60.0,0.0,0.0
780,71.0,0.0,60.0,0.0,0.0
781,47.0,60.0,60.0,2.0,0.0
782,70.0,0.0,60.0,0.0,0.0
783,49.0,60.0,60.0,2.0,0.0
784,71.0,7.0,120.0,0.0,0.0
785,50.0,53.0,60.0,2.0,0.0
786,47.0,60.0,60.0,2.0,0.0
787,50.0,53.0,60.0,2.0,0.0
788,66.0,7.0,120.0,0.0,0.0
789,54.0,60.0,60.0,2.0,0.0
790,67.0,7.0,120.0,0.0,0.0
791,59.0,53.0,60.0,2.0,0.0
792,58.0,113.0,60.0,2.0,0.0
793,64.0,120.0,120.0,0.0,0.0
794,59.0,0.0,240.0,2.0,0.0
795,61.0,120.0,120.0,0.0,0.0
796,66.0,67.0,120.0,0.0,0.0
797,58.0,0.0,120.0,2.0,0.0
798,62.0,7.0,120.0,0.0,0.0
799,59.0,53.0,60.0,2.0,0.0
800,57.0,60.0,60.0,2.0,0.0
801,55.0,53.0,60.0,2.0,0.0
802,59.0,7.0,120.0,0.0,0.0
803,54.0,60.0,60.0,2.0,0.0
804,71.0,0.0,60.0,1.0,0.0
805,71.0,7.0,120.0,0.0,0.0
806,55.0,53.0,60.0,2.0,0.0
807,69.0,0.0,60.0,1.0,0.0
808,54.0,60.0,60.0,2.0,0.0
809,71.0,7.0,120.0,0.0,0.0
810,67.0,53.0,60.0,1.0,0.0
811,52.0,0.0,60.0,2.0,0.0
812,66.0,0.0,60.0,1.0,0.0
813,50.0,60.0,60.0,2.0,0.0
814,67.0,0.0,60.0,1.0,0.0
815,52.0,53.0,60.0,2.0,0.0
816,71.0,7.0,120.0,0.0,0.0
817,66.0,0.0,60.0,1.0,0.0
818,50.0,60.0,60.0,2.0,0.0
819,70.0,60.0,60.0,0.0,0.0
820,49.0,0.0,60.0,2.0,0.0
821,64.0,0.0,60.0,1.0,0.0
822,47.0,0.0,60.0,2.0,0.0
823,62.0,0.0,60.0,1.0,0.0
824,71.0,60.0,60.0,0.0,0.0
825,46.0,53.0,60.0,2.0,0.0
826,73.0,0.0,120.0,0.0,0.0
827,61.0,7.0,120.0,1.0,0.0
828,42.0,60.0,60.0,2.0,0.0
829,73.0,0.0,120.0,0.0,0.0
830,66.0,7.0,120.0,1.0,0.0
831,44.0,53.0,60.0,2.0,0.0
832,46.0,60.0,60.0,2.0,0.0
833,62.0,0.0,120.0,1.0,0.0
834,73.0,7.0,120.0,0.0,0.0
835,47.0,53.0,60.0,2.0,0.0
836,49.0,60.0,60.0,2.0,0.0
837,66.0,7.0,120.0,1.0,0.0
838,71.0,0.0,60.0,0.0,0.0
839,50.0,53.0,60.0,2.0,0.0
840,52.0,0.0,60.0,2.0,0.0
841,70.0,113.0,60.0,0.0,0.0
842,50.0,7.0,120.0,2.0,0.0
843,71.0,53.0,300.0,0.0,0.0
844,62.0,60.0,60.0,1.0,0.0
845,55.0,7.0,120.0,2.0,0.0
846,61.0,53.0,60.0,1.0,0.0
847,62.0,60.0,60.0,1.0,0.0
848,64.0,7.0,120.0,1.0,0.0
849,49.0,0.0,60.0,2.0,0.0
850,50.0,60.0,60.0,2.0,0.0
851,69.0,0.0,60.0,0.0,0.0
852,59.0,7.0,120.0,1.0,0.0
853,67.0,0.0,60.0,0.0,0.0
854,52.0,53.0,60.0,2.0,0.0
855,54.0,0.0,60.0,2.0,0.0
856,66.0,60.0,60.0,0.0,0.0
857,61.0,0.0,240.0,1.0,0.0
858,67.0,53.0,60.0,0.0,0.0
859,52.0,7.0,120.0,2.0,0.0
860,64.0,60.0,60.0,0.0,0.0
861,66.0,53.0,60.0,0.0,0.0
862,57.0,67.0,120.0,2.0,0.0
863,67.0,53.0,120.0,0.0,0.0
864,62.0,0.0,240.0,1.0,0.0
865,50.0,7.0,120.0,2.0,0.0
866,66.0,60.0,60.0,0.0,0.0
867,49.0,7.0,120.0,2.0,0.0
868,68.0,53.0,60.0,0.0,0.0
869,70.0,60.0,60.0,0.0,0.0
870,50.0,7.0,120.0,2.0,0.0
871,71.0,53.0,60.0,0.0,0.0
872,73.0,60.0,60.0,0.0,0.0
873,74.0,53.0,60.0,0.0,0.0
874,47.0,7.0,120.0,2.0,0.0
875,68.0,0.0,120.0,1.0,0.0
876,71.0,60.0,60.0,0.0,0.0
877,69.0,53.0,60.0,1.0,0.0
878,73.0,7.0,120.0,0.0,0.0
879,54.0,0.0,120.0,2.0,0.0
880,68.0,60.0,60.0,1.0,0.0
881,61.0,7.0,120.0,0.0,0.0
882,57.0,0.0,120.0,2.0,0.0
883,66.0,53.0,60.0,1.0,0.0
884,65.0,60.0,60.0,1.0,0.0
885,66.0,7.0,120.0,1.0,0.0
886,66.0,7.0,480.0,0.0,0.0
887,50.0,53.0,60.0,2.0,0.0
888,49.0,60.0,60.0,2.0,0.0
889,61.0,7.0,120.0,1.0,0.0
890,47.0,53.0,60.0,2.0,0.0
891,45.0,60.0,60.0,2.0,0.0
892,47.0,53.0,60.0,2.0,0.0
893,62.0,7.0,120.0,1.0,0.0
894,44.0,60.0,60.0,2.0,0.0
895,59.0,0.0,120.0,1.0,0.0
896,45.0,53.0,60.0,2.0,0.0
897,47.0,60.0,60.0,2.0,0.0
898,65.0,7.0,240.0,0.0,0.0
899,56.0,7.0,120.0,1.0,0.0
900,49.0,53.0,60.0,2.0,0.0
901,47.0,60.0,60.0,2.0,0.0
902,45.0,53.0,60.0,2.0,0.0
903,61.0,0.0,120.0,1.0,0.0
904,44.0,60.0,60.0,2.0,0.0
905,42.0,53.0,300.0,2.0,0.0
906,66.0,53.0,60.0,0.0,0.0
907,57.0,7.0,120.0,1.0,0.0
908,65.0,60.0,60.0,0.0,0.0
909,54.0,7.0,120.0,1.0,0.0
910,66.0,53.0,60.0,0.0,0.0
911,68.0,60.0,60.0,0.0,0.0
912,69.0,0.0,60.0,0.0,0.0
913,66.0,7.0,120.0,1.0,0.0
914,44.0,60.0,60.0,2.0,0.0
915,71.0,0.0,60.0,0.0,0.0
916,73.0,0.0,60.0,0.0,0.0
917,45.0,53.0,60.0,2.0,0.0
918,66.0,7.0,120.0,1.0,0.0
919,42.0,0.0,60.0,2.0,0.0
920,69.0,60.0,60.0,0.0,0.0
921,66.0,7.0,120.0,1.0,0.0
922,44.0,0.0,60.0,2.0,0.0
923,71.0,53.0,60.0,0.0,0.0
924,45.0,0.0,60.0,2.0,0.0
925,69.0,60.0,60.0,0.0,0.0
926,68.0,0.0,60.0,0.0,0.0
927,65.0,53.0,60.0,1.0,0.0
928,47.0,7.0,120.0,2.0,0.0
929,69.0,0.0,60.0,0.0,0.0
930,66.0,60.0,60.0,1.0,0.0
931,71.0,53.0,60.0,0.0,0.0
932,68.0,7.0,120.0,1.0,0.0
933,41.0,0.0,120.0,2.0,0.0
934,73.0,60.0,60.0,0.0,0.0
935,42.0,53.0,60.0,2.0,0.0
936,68.0,7.0,120.0,1.0,0.0
937,74.0,0.0,60.0,0.0,0.0
938,71.0,60.0,60.0,0.0,0.0
939,44.0,0.0,60.0,2.0,0.0
940,45.0,53.0,60.0,2.0,0.0
941,68.0,7.0,120.0,1.0,0.0
942,73.0,7.0,240.0,0.0,0.0
943,47.0,60.0,60.0,2.0,0.0
944,45.0,0.0,60.0,2.0,0.0
945,66.0,53.0,60.0,1.0,0.0
946,44.0,0.0,60.0,2.0,0.0
947,68.0,60.0,60.0,1.0,0.0
948,42.0,53.0,60.0,2.0,0.0
949,69.0,7.0,120.0,1.0,0.0
950,40.0,60.0,60.0,2.0,0.0
951,69.0,7.0,120.0,1.0,0.0
952,38.0,0.0,60.0,2.0,0.0
953,78.0,53.0,60.0,0.0,0.0
954,73.0,60.0,60.0,0.0,0.0
955,42.0,0.0,60.0,2.0,0.0
956,35.0,7.0,120.0,2.0,0.0
957,69.0,0.0,120.0,1.0,0.0
958,74.0,53.0,60.0,0.0,0.0
959,76.0,60.0,60.0,0.0,0.0
960,74.0,53.0,60.0,0.0,0.0
961,54.0,7.0,120.0,1.0,0.0
962,73.0,60.0,60.0,0.0,0.0
963,56.0,7.0,120.0,1.0,0.0
964,71.0,53.0,60.0,0.0,0.0
965,69.0,60.0,60.0,0.0,0.0
966,59.0,7.0,120.0,1.0,0.0
967,68.0,53.0,60.0,0.0,0.0
968,71.0,113.0,60.0,0.0,0.0
969,65.0,7.0,120.0,0.0,0.0
970,59.0,0.0,120.0,1.0,0.0
971,50.0,60.0,60.0,2.0,0.0
972,68.0,0.0,120.0,0.0,0.0
973,49.0,53.0,60.0,2.0,0.0
974,53.0,7.0,120.0,1.0,0.0
975,47.0,60.0,60.0,2.0,0.0
976,73.0,0.0,120.0,0.0,0.0
977,54.0,7.0,120.0,1.0,0.0
978,45.0,53.0,60.0,2.0,0.0
979,44.0,60.0,60.0,2.0,0.0
980,66.0,0.0,120.0,1.0,0.0
981,69.0,7.0,120.0,0.0,0.0
982,42.0,53.0,60.0,2.0,0.0
983,45.0,60.0,60.0,2.0,0.0
984,38.0,7.0,120.0,2.0,0.0
985,71.0,53.0,60.0,0.0,0.0
986,66.0,0.0,240.0,1.0,0.0
987,73.0,60.0,60.0,0.0,0.0
988,74.0,53.0,60.0,0.0,0.0
989,35.0,7.0,120.0,2.0,0.0
990,71.0,60.0,60.0,0.0,0.0
991,65.0,0.0,240.0,1.0,0.0
992,37.0,7.0,120.0,2.0,0.0
993,68.0,53.0,60.0,0.0,0.0
994,74.0,60.0,60.0,0.0,0.0
995,49.0,7.0,120.0,2.0,0.0
996,73.0,53.0,60.0,0.0,0.0
997,71.0,60.0,60.0,0.0,0.0
998,69.0,7.0,240.0,0.0,0.0
999,42.0,0.0,60.0,2.0,0.0
1000,66.0,60.0,60.0,1.0,0.0
1001,44.0,60.0,60.0,2.0,0.0
1002,61.0,0.0,60.0,1.0,0.0
1003,45.0,53.0,60.0,2.0,0.0
1004,66.0,7.0,240.0,1.0,0.0
1005,47.0,60.0,60.0,2.0,0.0
1006,49.0,53.0,60.0,2.0,0.0
1007,68.0,0.0,120.0,0.0,0.0
1008,50.0,60.0,60.0,2.0,0.0
1009,52.0,53.0,60.0,2.0,0.0
1010,73.0,7.0,120.0,0.0,0.0
1011,64.0,0.0,180.0,1.0,0.0
1012,49.0,60.0,60.0,2.0,0.0
1013,50.0,60.0,60.0,2.0,0.0
1014,66.0,7.0,240.0,0.0,0.0
1015,52.0,60.0,60.0,2.0,0.0
1016,57.0,0.0,60.0,1.0,0.0
1017,62.0,7.0,240.0,1.0,0.0
1018,54.0,53.0,60.0,2.0,0.0
1019,56.0,60.0,60.0,2.0,0.0
1020,57.0,53.0,60.0,2.0,0.0
1021,64.0,0.0,120.0,0.0,0.0
1022,59.0,60.0,60.0,2.0,0.0
1023,69.0,7.0,120.0,0.0,0.0
1024,61.0,7.0,240.0,1.0,0.0
1025,57.0,53.0,60.0,2.0,0.0
1026,56.0,60.0,60.0,2.0,0.0
1027,62.0,53.0,540.0,0.0,0.0
1028,54.0,53.0,60.0,2.0,0.0
1029,52.0,60.0,60.0,2.0,0.0
1030,59.0,0.0,60.0,1.0,0.0
1031,50.0,60.0,60.0,2.0,0.0
1032,49.0,0.0,60.0,2.0,0.0
1033,57.0,60.0,60.0,1.0,0.0
1034,47.0,53.0,60.0,2.0,0.0
1035,56.0,7.0,120.0,1.0,0.0
1036,49.0,60.0,60.0,2.0,0.0
1037,50.0,53.0,60.0,2.0,0.0
1038,54.0,7.0,120.0,1.0,0.0
1039,47.0,60.0,60.0,2.0,0.0
1040,49.0,7.0,1200.0,2.0,0.0
1041,53.0,7.0,120.0,1.0,0.0
1042,61.0,60.0,60.0,0.0,0.0
1043,59.0,60.0,60.0,0.0,0.0
1044,54.0,7.0,240.0,1.0,0.0
1045,57.0,60.0,60.0,0.0,0.0
1046,56.0,53.0,60.0,0.0,0.0
1047,57.0,60.0,60.0,0.0,0.0
1048,53.0,7.0,120.0,1.0,0.0
1049,59.0,53.0,60.0,0.0,0.0
1050,56.0,60.0,60.0,0.0,0.0
1051,57.0,60.0,60.0,0.0,0.0
1052,54.0,0.0,60.0,1.0,0.0
1053,59.0,0.0,60.0,0.0,0.0
1054,56.0,60.0,60.0,1.0,0.0
1055,61.0,0.0,60.0,0.0,0.0
1056,57.0,60.0,60.0,1.0,0.0
1057,63.0,60.0,60.0,0.0,0.0
1058,54.0,0.0,60.0,1.0,0.0
1059,65.0,0.0,60.0,0.0,0.0
1060,56.0,60.0,60.0,1.0,0.0
1061,66.0,0.0,60.0,0.0,0.0
1062,57.0,60.0,60.0,1.0,0.0
1063,59.0,60.0,60.0,1.0,0.0
1064,68.0,0.0,60.0,0.0,0.0
1065,56.0,0.0,60.0,1.0,0.0
1066,65.0,60.0,60.0,0.0,0.0
1067,57.0,60.0,60.0,1.0,0.0
1068,66.0,0.0,60.0,0.0,0.0
1069,68.0,0.0,60.0,0.0,0.0
1070,59.0,60.0,60.0,1.0,0.0
1071,69.0,0.0,60.0,0.0,0.0
1072,61.0,53.0,60.0,1.0,0.0
1073,63.0,60.0,60.0,1.0,0.0
1074,66.0,0.0,60.0,0.0,0.0
1075,65.0,60.0,60.0,1.0,0.0
1076,68.0,0.0,60.0,0.0,0.0
1077,61.0,60.0,780.0,2.0,0.0
1078,66.0,0.0,60.0,1.0,0.0
1079,69.0,60.0,60.0,0.0,0.0
1080,68.0,60.0,60.0,1.0,0.0
1081,71.0,0.0,60.0,0.0,0.0
1082,65.0,0.0,60.0,1.0,0.0
1083,68.0,60.0,60.0,0.0,0.0
1084,66.0,0.0,60.0,1.0,0.0
1085,69.0,60.0,60.0,0.0,0.0
1086,71.0,0.0,60.0,0.0,0.0
1087,68.0,60.0,60.0,1.0,0.0
1088,69.0,60.0,60.0,1.0,0.0
1089,73.0,0.0,60.0,0.0,0.0
1090,75.0,60.0,60.0,0.0,0.0
1091,66.0,0.0,60.0,1.0,0.0
1092,68.0,0.0,60.0,1.0,0.0
1093,77.0,60.0,60.0,0.0,0.0
1094,69.0,0.0,60.0,1.0,0.0
1095,78.0,60.0,60.0,0.0,0.0
1096,80.0,0.0,60.0,0.0,0.0
1097,71.0,60.0,60.0,1.0,0.0
1098,77.0,0.0,60.0,0.0,0.0
1099,68.0,60.0,60.0,1.0,0.0
1100,70.0,0.0,60.0,1.0,0.0
1101,78.0,7.0,1560.0,0.0,0.0
1102,62.0,0.0,60.0,2.0,0.0
1103,68.0,60.0,60.0,1.0,0.0
1104,61.0,60.0,60.0,2.0,0.0
1105,70.0,0.0,60.0,1.0,0.0
1106,71.0,60.0,60.0,1.0,0.0
1107,59.0,0.0,60.0,2.0,0.0
1108,58.0,0.0,60.0,2.0,0.0
1109,73.0,60.0,60.0,1.0,0.0
1110,56.0,0.0,60.0,2.0,0.0
1111,74.0,60.0,60.0,1.0,0.0
1112,76.0,0.0,60.0,1.0,0.0
1113,54.0,60.0,60.0,2.0,0.0
1114,58.0,60.0,60.0,2.0,0.0
1115,73.0,0.0,60.0,1.0,0.0
1116,74.0,7.0,120.0,1.0,0.0
1117,47.0,53.0,60.0,2.0,0.0
1118,49.0,60.0,60.0,2.0,0.0
1119,73.0,60.0,60.0,1.0,0.0
1120,50.0,0.0,60.0,2.0,0.0
1121,71.0,60.0,60.0,1.0,0.0
1122,52.0,0.0,60.0,2.0,0.0
1123,70.0,7.0,120.0,1.0,0.0
1124,54.0,53.0,60.0,2.0,0.0
1125,56.0,60.0,60.0,2.0,0.0
1126,73.0,7.0,120.0,1.0,0.0
1127,58.0,53.0,60.0,2.0,0.0
1128,54.0,60.0,60.0,2.0,0.0
1129,62.0,53.0,60.0,2.0,0.0
1130,66.0,7.0,120.0,1.0,0.0
1131,61.0,60.0,60.0,2.0,0.0
1132,59.0,0.0,60.0,2.0,0.0
1133,74.0,60.0,60.0,1.0,0.0
1134,73.0,60.0,60.0,1.0,0.0
1135,61.0,0.0,60.0,2.0,0.0
1136,71.0,7.0,120.0,1.0,0.0
1137,62.0,53.0,60.0,2.0,0.0
1138,64.0,60.0,60.0,2.0,0.0
1139,66.0,53.0,60.0,2.0,0.0
1140,69.0,7.0,120.0,1.0,0.0
1141,62.0,60.0,60.0,2.0,0.0
1142,68.0,7.0,240.0,1.0,0.0
1143,59.0,53.0,60.0,2.0,0.0
1144,57.0,60.0,60.0,2.0,0.0
1145,77.0,0.0,60.0,0.0,0.0
1146,56.0,53.0,60.0,2.0,0.0
1147,78.0,0.0,60.0,0.0,0.0
1148,54.0,60.0,60.0,2.0,0.0
1149,80.0,7.0,120.0,0.0,0.0
1150,53.0,53.0,60.0,2.0,0.0
1151,51.0,60.0,60.0,2.0,0.0
1152,71.0,0.0,240.0,0.0,0.0
1153,68.0,7.0,240.0,1.0,0.0
1154,49.0,60.0,60.0,2.0,0.0
1155,53.0,60.0,60.0,2.0,0.0
1156,45.0,53.0,60.0,2.0,0.0
1157,50.0,60.0,60.0,2.0,0.0
1158,49.0,53.0,60.0,2.0,0.0
1159,66.0,7.0,120.0,1.0,0.0
1160,69.0,0.0,60.0,0.0,0.0
1161,71.0,0.0,60.0,0.0,0.0
1162,47.0,60.0,60.0,2.0,0.0
1163,45.0,34.0,60.0,2.0,0.0
1164,73.0,0.0,60.0,0.0,0.0
1165,71.0,26.0,30.0,0.0,0.0
1166,44.0,4.0,60.0,2.0,0.0
1167,69.0,56.0,30.0,0.0,0.0
1168,42.0,53.0,60.0,2.0,0.0
1169,71.0,0.0,60.0,0.0,0.0
1170,62.0,7.0,120.0,1.0,0.0
1171,65.0,0.0,60.0,0.0,0.0
1172,44.0,60.0,60.0,2.0,0.0
1173,61.0,7.0,180.0,1.0,0.0
1174,66.0,0.0,180.0,0.0,0.0
1175,45.0,60.0,60.0,2.0,0.0
1176,44.0,53.0,60.0,2.0,0.0
1177,45.0,60.0,60.0,2.0,0.0
1178,68.0,0.0,60.0,0.0,0.0
1179,62.0,60.0,60.0,1.0,0.0
1180,47.0,0.0,60.0,2.0,0.0
1181,56.0,7.0,240.0,1.0,0.0
1182,49.0,60.0,60.0,2.0,0.0
1183,65.0,7.0,180.0,0.0,0.0
1184,47.0,53.0,60.0,2.0,0.0
1185,49.0,53.0,60.0,2.0,0.0
1186,37.0,0.0,60.0,2.0,0.0
1187,66.0,473.0,60.0,0.0,0.0
1188,58.0,0.0,480.0,1.0,0.0
1189,42.0,0.0,480.0,2.0,0.0
1190,66.0,0.0,480.0,0.0,0.0
