,note,step,duration,channel,velocity
0,32.0,192.0,15750.0,0.0,64.0
1,63.0,576.0,390.0,0.0,64.0
2,71.0,192.0,570.0,0.0,64.0
3,70.0,384.0,180.0,0.0,64.0
4,71.0,0.0,390.0,0.0,64.0
5,56.0,384.0,390.0,0.0,64.0
6,68.0,192.0,390.0,0.0,64.0
7,64.0,192.0,570.0,0.0,64.0
8,73.0,96.0,960.0,0.0,64.0
9,63.0,384.0,180.0,0.0,64.0
10,64.0,192.0,390.0,0.0,64.0
11,63.0,192.0,390.0,0.0,64.0
12,71.0,96.0,90.0,0.0,64.0
13,70.0,0.0,90.0,0.0,64.0
14,68.0,96.0,960.0,0.0,64.0
15,71.0,192.0,180.0,0.0,64.0
16,76.0,192.0,180.0,0.0,64.0
17,75.0,192.0,180.0,0.0,64.0
18,76.0,192.0,180.0,0.0,64.0
19,70.0,0.0,390.0,0.0,64.0
20,66.0,96.0,90.0,0.0,64.0
21,64.0,192.0,90.0,0.0,64.0
22,75.0,96.0,960.0,0.0,64.0
23,66.0,192.0,180.0,0.0,64.0
24,71.0,192.0,180.0,0.0,64.0
25,70.0,192.0,180.0,0.0,64.0
26,71.0,192.0,180.0,0.0,64.0
27,65.0,192.0,390.0,0.0,64.0
28,73.0,96.0,90.0,0.0,64.0
29,71.0,0.0,90.0,0.0,64.0
30,73.0,192.0,180.0,0.0,64.0
31,70.0,192.0,960.0,0.0,64.0
32,68.0,192.0,180.0,0.0,64.0
33,67.0,192.0,180.0,0.0,64.0
34,51.0,192.0,390.0,0.0,64.0
35,73.0,0.0,390.0,0.0,64.0
36,59.0,192.0,570.0,0.0,64.0
37,68.0,0.0,390.0,0.0,64.0
38,71.0,192.0,180.0,0.0,64.0
39,76.0,96.0,960.0,0.0,64.0
40,58.0,0.0,180.0,0.0,64.0
41,67.0,192.0,180.0,0.0,64.0
42,68.0,192.0,180.0,0.0,64.0
43,59.0,192.0,390.0,0.0,64.0
44,70.0,0.0,180.0,0.0,64.0
45,67.0,192.0,780.0,0.0,64.0
46,58.0,192.0,390.0,0.0,64.0
47,75.0,96.0,90.0,0.0,64.0
48,73.0,0.0,90.0,0.0,64.0
49,71.0,192.0,180.0,0.0,64.0
50,63.0,0.0,960.0,0.0,64.0
51,70.0,0.0,180.0,0.0,64.0
52,66.0,192.0,390.0,0.0,64.0
53,72.0,192.0,180.0,0.0,64.0
54,75.0,0.0,180.0,0.0,64.0
55,69.0,96.0,180.0,0.0,64.0
56,78.0,0.0,390.0,0.0,64.0
57,68.0,192.0,1140.0,0.0,64.0
58,61.0,96.0,90.0,0.0,64.0
59,60.0,192.0,90.0,0.0,64.0
60,61.0,0.0,180.0,0.0,64.0
61,76.0,192.0,180.0,0.0,64.0
62,66.0,0.0,180.0,0.0,64.0
63,75.0,192.0,180.0,0.0,64.0
64,73.0,0.0,390.0,0.0,64.0
65,64.0,192.0,180.0,0.0,64.0
66,66.0,192.0,180.0,0.0,64.0
67,60.0,0.0,390.0,0.0,64.0
68,70.0,192.0,180.0,0.0,64.0
69,72.0,192.0,180.0,0.0,64.0
70,66.0,96.0,960.0,0.0,64.0
71,73.0,192.0,180.0,0.0,64.0
72,75.0,192.0,180.0,0.0,64.0
73,72.0,192.0,180.0,0.0,64.0
74,73.0,0.0,180.0,0.0,64.0
75,68.0,0.0,180.0,0.0,64.0
76,64.0,96.0,90.0,0.0,64.0
77,63.0,192.0,90.0,0.0,64.0
78,73.0,96.0,960.0,0.0,64.0
79,64.0,192.0,180.0,0.0,64.0
80,80.0,0.0,15.0,0.0,64.0
81,59.0,192.0,180.0,0.0,64.0
82,58.0,192.0,180.0,0.0,64.0
83,79.0,0.0,180.0,0.0,64.0
84,64.0,0.0,390.0,0.0,64.0
85,80.0,192.0,180.0,0.0,64.0
86,79.0,0.0,390.0,0.0,64.0
87,71.0,96.0,90.0,0.0,64.0
88,63.0,0.0,90.0,0.0,64.0
89,70.0,0.0,90.0,0.0,64.0
90,61.0,192.0,90.0,0.0,64.0
91,63.0,0.0,180.0,0.0,64.0
92,71.0,96.0,960.0,0.0,64.0
93,80.0,192.0,180.0,0.0,64.0
94,58.0,0.0,180.0,0.0,64.0
95,78.0,192.0,180.0,0.0,64.0
96,56.0,192.0,180.0,0.0,64.0
97,76.0,0.0,180.0,0.0,64.0
98,75.0,192.0,180.0,0.0,64.0
99,63.0,0.0,390.0,0.0,64.0
100,76.0,0.0,1140.0,0.0,64.0
101,70.0,96.0,90.0,0.0,64.0
102,61.0,0.0,90.0,0.0,64.0
103,68.0,0.0,90.0,0.0,64.0
104,59.0,96.0,90.0,0.0,64.0
105,67.0,96.0,90.0,0.0,64.0
106,61.0,0.0,180.0,0.0,64.0
107,68.0,96.0,90.0,0.0,64.0
108,67.0,96.0,90.0,0.0,64.0
109,56.0,192.0,180.0,0.0,64.0
110,68.0,0.0,90.0,0.0,64.0
111,70.0,96.0,570.0,0.0,64.0
112,55.0,192.0,180.0,0.0,64.0
113,61.0,192.0,180.0,0.0,64.0
114,75.0,192.0,570.0,0.0,64.0
115,59.0,0.0,180.0,0.0,64.0
116,58.0,0.0,180.0,0.0,64.0
117,68.0,96.0,90.0,0.0,64.0
118,67.0,192.0,90.0,0.0,64.0
119,68.0,192.0,570.0,0.0,64.0
120,59.0,0.0,180.0,0.0,64.0
121,61.0,0.0,180.0,0.0,64.0
122,70.0,0.0,180.0,0.0,64.0
123,71.0,0.0,960.0,0.0,64.0
124,63.0,192.0,570.0,0.0,64.0
125,44.0,0.0,390.0,0.0,64.0
126,67.0,192.0,180.0,0.0,64.0
127,52.0,96.0,570.0,0.0,64.0
128,68.0,192.0,1350.0,0.0,64.0
129,56.0,192.0,180.0,0.0,64.0
130,61.0,192.0,570.0,0.0,64.0
131,73.0,96.0,90.0,0.0,64.0
132,51.0,96.0,180.0,0.0,64.0
133,71.0,0.0,90.0,0.0,64.0
134,52.0,0.0,390.0,0.0,64.0
135,70.0,96.0,90.0,0.0,64.0
136,71.0,0.0,90.0,0.0,64.0
137,56.0,0.0,180.0,0.0,64.0
138,63.0,192.0,570.0,0.0,64.0
139,58.0,0.0,390.0,0.0,64.0
140,51.0,0.0,390.0,0.0,64.0
141,73.0,192.0,15.0,0.0,64.0
142,67.0,192.0,180.0,0.0,64.0
143,71.0,0.0,780.0,0.0,64.0
144,68.0,192.0,570.0,0.0,64.0
145,56.0,0.0,180.0,0.0,64.0
146,59.0,192.0,180.0,0.0,64.0
147,64.0,0.0,180.0,0.0,64.0
148,63.0,0.0,180.0,0.0,64.0
149,66.0,192.0,180.0,0.0,64.0
150,64.0,96.0,390.0,0.0,64.0
151,70.0,96.0,480.0,0.0,64.0
152,61.0,192.0,180.0,0.0,64.0
153,59.0,0.0,180.0,0.0,64.0
154,58.0,96.0,780.0,0.0,64.0
155,54.0,96.0,1140.0,0.0,64.0
156,63.0,96.0,870.0,0.0,64.0
157,73.0,96.0,90.0,0.0,64.0
158,71.0,96.0,90.0,0.0,64.0
159,70.0,96.0,90.0,0.0,64.0
160,75.0,96.0,90.0,0.0,64.0
161,73.0,96.0,90.0,0.0,64.0
162,71.0,96.0,90.0,0.0,64.0
163,70.0,0.0,90.0,0.0,64.0
164,59.0,96.0,480.0,0.0,64.0
165,68.0,96.0,780.0,0.0,64.0
166,66.0,96.0,90.0,0.0,64.0
167,64.0,96.0,90.0,0.0,64.0
168,63.0,0.0,90.0,0.0,64.0
169,61.0,192.0,780.0,0.0,64.0
170,52.0,0.0,780.0,0.0,64.0
171,59.0,96.0,90.0,0.0,64.0
172,58.0,96.0,90.0,0.0,64.0
173,56.0,0.0,90.0,0.0,64.0
174,55.0,96.0,90.0,0.0,64.0
175,73.0,96.0,570.0,0.0,64.0
176,56.0,96.0,90.0,0.0,64.0
177,55.0,96.0,90.0,0.0,64.0
178,56.0,0.0,90.0,0.0,64.0
179,63.0,0.0,780.0,0.0,64.0
180,55.0,384.0,390.0,0.0,64.0
181,51.0,192.0,2490.0,0.0,64.0
182,71.0,96.0,90.0,0.0,64.0
183,70.0,0.0,90.0,0.0,64.0
184,71.0,192.0,1350.0,0.0,64.0
185,56.0,0.0,1920.0,0.0,64.0
186,67.0,384.0,180.0,0.0,64.0
187,68.0,192.0,780.0,0.0,64.0
188,64.0,192.0,180.0,0.0,64.0
189,63.0,192.0,180.0,0.0,64.0
190,62.0,192.0,960.0,0.0,64.0
191,65.0,0.0,780.0,0.0,64.0
192,68.0,192.0,180.0,0.0,64.0
193,71.0,192.0,180.0,0.0,64.0
194,70.0,0.0,180.0,0.0,64.0
195,63.0,0.0,2310.0,0.0,64.0
196,68.0,0.0,180.0,0.0,64.0
197,58.0,0.0,2310.0,0.0,64.0
198,67.0,0.0,2100.0,0.0,64.0
199,39.0,192.0,180.0,0.0,64.0
200,51.0,192.0,180.0,0.0,64.0
201,49.0,192.0,180.0,0.0,64.0
202,49.0,192.0,180.0,0.0,64.0
203,47.0,192.0,180.0,0.0,64.0
204,49.0,192.0,180.0,0.0,64.0
205,39.0,192.0,180.0,0.0,64.0
206,49.0,192.0,180.0,0.0,64.0
207,47.0,192.0,15.0,0.0,64.0
208,46.0,384.0,180.0,0.0,64.0
209,47.0,0.0,780.0,0.0,64.0
210,63.0,192.0,180.0,0.0,64.0
211,75.0,192.0,180.0,0.0,64.0
212,73.0,192.0,180.0,0.0,64.0
213,52.0,0.0,390.0,0.0,64.0
214,73.0,192.0,180.0,0.0,64.0
215,71.0,192.0,180.0,0.0,64.0
216,46.0,0.0,780.0,0.0,64.0
217,73.0,192.0,180.0,0.0,64.0
218,61.0,192.0,180.0,0.0,64.0
219,73.0,192.0,180.0,0.0,64.0
220,71.0,192.0,15.0,0.0,64.0
221,51.0,0.0,390.0,0.0,64.0
222,70.0,384.0,180.0,0.0,64.0
223,44.0,0.0,780.0,0.0,64.0
224,71.0,0.0,390.0,0.0,64.0
225,56.0,192.0,180.0,0.0,64.0
226,68.0,192.0,180.0,0.0,64.0
227,76.0,0.0,1140.0,0.0,64.0
228,49.0,192.0,390.0,0.0,64.0
229,66.0,192.0,15.0,0.0,64.0
230,64.0,0.0,180.0,0.0,64.0
231,66.0,192.0,180.0,0.0,64.0
232,46.0,192.0,390.0,0.0,64.0
233,54.0,0.0,180.0,0.0,64.0
234,66.0,192.0,180.0,0.0,64.0
235,75.0,192.0,960.0,0.0,64.0
236,48.0,0.0,390.0,0.0,64.0
237,44.0,192.0,390.0,0.0,64.0
238,64.0,192.0,15.0,0.0,64.0
239,63.0,0.0,180.0,0.0,64.0
240,49.0,192.0,390.0,0.0,64.0
241,64.0,0.0,390.0,0.0,64.0
242,73.0,0.0,180.0,0.0,64.0
243,73.0,192.0,180.0,0.0,64.0
244,43.0,192.0,780.0,0.0,64.0
245,58.0,192.0,390.0,0.0,64.0
246,71.0,0.0,180.0,0.0,64.0
247,63.0,192.0,570.0,0.0,64.0
248,71.0,192.0,180.0,0.0,64.0
249,70.0,0.0,180.0,0.0,64.0
250,71.0,192.0,390.0,0.0,64.0
251,44.0,0.0,390.0,0.0,64.0
252,38.0,384.0,780.0,0.0,64.0
253,68.0,0.0,15.0,0.0,64.0
254,65.0,192.0,390.0,0.0,64.0
255,66.0,0.0,180.0,0.0,64.0
256,70.0,0.0,780.0,0.0,64.0
257,66.0,192.0,180.0,0.0,64.0
258,65.0,0.0,180.0,0.0,64.0
259,66.0,0.0,570.0,0.0,64.0
260,39.0,0.0,780.0,0.0,64.0
261,51.0,192.0,180.0,0.0,64.0
262,71.0,0.0,1140.0,0.0,64.0
263,63.0,192.0,180.0,0.0,64.0
264,64.0,192.0,180.0,0.0,64.0
265,61.0,0.0,180.0,0.0,64.0
266,61.0,192.0,180.0,0.0,64.0
267,44.0,0.0,390.0,0.0,64.0
268,64.0,0.0,180.0,0.0,64.0
269,63.0,0.0,180.0,0.0,64.0
270,59.0,192.0,180.0,0.0,64.0
271,37.0,0.0,780.0,0.0,64.0
272,64.0,0.0,570.0,0.0,64.0
273,61.0,192.0,180.0,0.0,64.0
274,49.0,192.0,180.0,0.0,64.0
275,70.0,96.0,870.0,0.0,64.0
276,61.0,192.0,180.0,0.0,64.0
277,63.0,192.0,180.0,0.0,64.0
278,59.0,0.0,15.0,0.0,64.0
279,42.0,0.0,390.0,0.0,64.0
280,63.0,0.0,180.0,0.0,64.0
281,58.0,96.0,180.0,0.0,64.0
282,61.0,0.0,180.0,0.0,64.0
283,35.0,0.0,390.0,0.0,64.0
284,63.0,96.0,480.0,0.0,64.0
285,68.0,96.0,90.0,0.0,64.0
286,67.0,96.0,90.0,0.0,64.0
287,70.0,96.0,90.0,0.0,64.0
288,47.0,0.0,1140.0,0.0,64.0
289,66.0,96.0,90.0,0.0,64.0
290,64.0,96.0,90.0,0.0,64.0
291,63.0,96.0,90.0,0.0,64.0
292,61.0,0.0,180.0,0.0,64.0
293,59.0,96.0,15.0,0.0,64.0
294,63.0,96.0,180.0,0.0,64.0
295,58.0,96.0,90.0,0.0,64.0
296,56.0,0.0,90.0,0.0,64.0
297,64.0,96.0,480.0,0.0,64.0
298,61.0,0.0,390.0,0.0,64.0
299,68.0,96.0,15.0,0.0,64.0
300,70.0,96.0,90.0,0.0,64.0
301,71.0,96.0,90.0,0.0,64.0
302,55.0,0.0,780.0,0.0,64.0
303,46.0,0.0,390.0,0.0,64.0
304,64.0,96.0,90.0,0.0,64.0
305,63.0,96.0,90.0,0.0,64.0
306,61.0,96.0,90.0,0.0,64.0
307,51.0,0.0,390.0,0.0,64.0
308,63.0,0.0,570.0,0.0,64.0
309,73.0,96.0,15.0,0.0,64.0
310,71.0,96.0,90.0,0.0,64.0
311,70.0,192.0,90.0,0.0,64.0
312,56.0,96.0,180.0,0.0,64.0
313,44.0,0.0,1530.0,0.0,64.0
314,71.0,192.0,1350.0,0.0,64.0
315,65.0,96.0,90.0,0.0,64.0
316,51.0,0.0,180.0,0.0,64.0
317,66.0,192.0,90.0,0.0,64.0
318,56.0,192.0,180.0,0.0,64.0
319,65.0,0.0,180.0,0.0,64.0
320,54.0,0.0,15.0,0.0,64.0
321,63.0,192.0,15.0,0.0,64.0
322,53.0,192.0,180.0,0.0,64.0
323,62.0,0.0,15.0,0.0,64.0
324,53.0,192.0,390.0,0.0,64.0
325,70.0,0.0,15.0,0.0,64.0
326,42.0,0.0,1140.0,0.0,64.0
327,63.0,96.0,180.0,0.0,64.0
328,51.0,0.0,90.0,0.0,64.0
329,68.0,96.0,180.0,0.0,64.0
330,50.0,96.0,90.0,0.0,64.0
331,51.0,0.0,90.0,0.0,64.0
332,53.0,96.0,90.0,0.0,64.0
333,66.0,0.0,180.0,0.0,64.0
334,54.0,96.0,90.0,0.0,64.0
335,65.0,192.0,180.0,0.0,64.0
336,56.0,96.0,90.0,0.0,64.0
337,58.0,0.0,90.0,0.0,64.0
338,59.0,96.0,1260.0,0.0,64.0
339,63.0,0.0,390.0,0.0,64.0
340,68.0,192.0,15.0,0.0,64.0
341,62.0,192.0,570.0,0.0,64.0
342,41.0,192.0,390.0,0.0,64.0
343,66.0,0.0,180.0,0.0,64.0
344,39.0,0.0,390.0,0.0,64.0
345,68.0,0.0,570.0,0.0,64.0
346,63.0,96.0,180.0,0.0,64.0
347,38.0,0.0,390.0,0.0,64.0
348,65.0,0.0,390.0,0.0,64.0
349,58.0,96.0,90.0,0.0,64.0
350,56.0,96.0,90.0,0.0,64.0
351,54.0,96.0,90.0,0.0,64.0
352,34.0,0.0,390.0,0.0,64.0
353,71.0,0.0,15.0,0.0,64.0
354,62.0,0.0,390.0,0.0,64.0
355,56.0,96.0,90.0,0.0,64.0
356,54.0,96.0,90.0,0.0,64.0
357,53.0,96.0,90.0,0.0,64.0
358,51.0,0.0,90.0,0.0,64.0
359,38.0,0.0,390.0,0.0,64.0
360,53.0,96.0,780.0,0.0,64.0
361,70.0,192.0,15.0,0.0,64.0
362,68.0,192.0,180.0,0.0,64.0
363,66.0,96.0,480.0,0.0,64.0
364,39.0,0.0,390.0,0.0,64.0
365,58.0,96.0,90.0,0.0,64.0
366,60.0,96.0,90.0,0.0,64.0
367,62.0,0.0,90.0,0.0,64.0
368,47.0,192.0,390.0,0.0,64.0
369,63.0,96.0,780.0,0.0,64.0
370,51.0,0.0,180.0,0.0,64.0
371,65.0,96.0,90.0,0.0,64.0
372,66.0,96.0,90.0,0.0,64.0
373,53.0,0.0,180.0,0.0,64.0
374,68.0,0.0,90.0,0.0,64.0
375,54.0,192.0,180.0,0.0,64.0
376,42.0,0.0,390.0,0.0,64.0
377,70.0,0.0,180.0,0.0,64.0
378,58.0,0.0,180.0,0.0,64.0
379,75.0,96.0,300.0,0.0,64.0
380,44.0,0.0,390.0,0.0,64.0
381,65.0,96.0,480.0,0.0,64.0
382,59.0,96.0,390.0,0.0,64.0
383,73.0,96.0,90.0,0.0,64.0
384,71.0,96.0,90.0,0.0,64.0
385,70.0,0.0,90.0,0.0,64.0
386,46.0,0.0,390.0,0.0,64.0
387,50.0,96.0,390.0,0.0,64.0
388,68.0,96.0,480.0,0.0,64.0
389,66.0,96.0,90.0,0.0,64.0
390,65.0,96.0,90.0,0.0,64.0
391,63.0,0.0,90.0,0.0,64.0
392,58.0,192.0,570.0,0.0,64.0
393,62.0,0.0,390.0,0.0,64.0
394,34.0,192.0,390.0,0.0,64.0
395,68.0,96.0,90.0,0.0,64.0
396,66.0,96.0,90.0,0.0,64.0
397,65.0,0.0,90.0,0.0,64.0
398,63.0,192.0,390.0,0.0,64.0
399,35.0,192.0,780.0,0.0,64.0
400,56.0,0.0,180.0,0.0,64.0
401,56.0,192.0,180.0,0.0,64.0
402,74.0,0.0,390.0,0.0,64.0
403,65.0,0.0,390.0,0.0,64.0
404,54.0,0.0,180.0,0.0,64.0
405,75.0,96.0,660.0,0.0,64.0
406,70.0,0.0,390.0,0.0,64.0
407,34.0,96.0,390.0,0.0,64.0
408,54.0,192.0,180.0,0.0,64.0
409,53.0,48.0,300.0,0.0,64.0
410,32.0,384.0,390.0,0.0,64.0
411,71.0,0.0,390.0,0.0,64.0
412,56.0,48.0,60.0,0.0,64.0
413,54.0,96.0,60.0,0.0,64.0
414,53.0,0.0,90.0,0.0,64.0
415,51.0,0.0,90.0,0.0,64.0
416,80.0,0.0,90.0,0.0,64.0
417,70.0,24.0,390.0,0.0,64.0
418,75.0,0.0,390.0,0.0,64.0
419,54.0,0.0,390.0,0.0,64.0
420,34.0,768.0,780.0,0.0,64.0
421,58.0,384.0,1350.0,0.0,64.0
422,53.0,24.0,20.0,0.0,64.0
423,68.0,0.0,390.0,0.0,64.0
424,74.0,0.0,20.0,0.0,64.0
425,54.0,0.0,20.0,0.0,64.0
426,75.0,144.0,20.0,0.0,64.0
427,53.0,96.0,150.0,0.0,64.0
428,74.0,96.0,240.0,0.0,64.0
429,51.0,0.0,180.0,0.0,64.0
430,75.0,0.0,90.0,0.0,64.0
431,51.0,0.0,780.0,0.0,64.0
432,66.0,0.0,780.0,0.0,64.0
433,75.0,0.0,780.0,0.0,64.0
434,46.0,576.0,390.0,0.0,64.0
435,54.0,192.0,570.0,0.0,64.0
436,53.0,384.0,180.0,0.0,64.0
437,63.0,384.0,390.0,0.0,64.0
438,54.0,0.0,390.0,0.0,64.0
439,51.0,192.0,390.0,0.0,64.0
440,71.0,192.0,570.0,0.0,64.0
441,56.0,96.0,960.0,0.0,64.0
442,70.0,384.0,180.0,0.0,64.0
443,71.0,192.0,390.0,0.0,64.0
444,70.0,0.0,390.0,0.0,64.0
445,54.0,96.0,90.0,0.0,64.0
446,53.0,192.0,90.0,0.0,64.0
447,75.0,96.0,960.0,0.0,64.0
448,54.0,192.0,180.0,0.0,64.0
449,59.0,192.0,180.0,0.0,64.0
450,58.0,192.0,180.0,0.0,64.0
451,59.0,192.0,180.0,0.0,64.0
452,53.0,192.0,390.0,0.0,64.0
453,73.0,96.0,90.0,0.0,64.0
454,71.0,0.0,90.0,0.0,64.0
455,73.0,192.0,180.0,0.0,64.0
456,58.0,96.0,960.0,0.0,64.0
457,78.0,192.0,180.0,0.0,64.0
458,77.0,192.0,180.0,0.0,64.0
459,78.0,192.0,180.0,0.0,64.0
460,72.0,192.0,390.0,0.0,64.0
461,56.0,96.0,90.0,0.0,64.0
462,54.0,0.0,90.0,0.0,64.0
463,56.0,192.0,180.0,0.0,64.0
464,77.0,0.0,960.0,0.0,64.0
465,51.0,192.0,180.0,0.0,64.0
466,50.0,192.0,180.0,0.0,64.0
467,58.0,0.0,390.0,0.0,64.0
468,46.0,192.0,180.0,0.0,64.0
469,51.0,192.0,180.0,0.0,64.0
470,66.0,192.0,570.0,0.0,64.0
471,75.0,0.0,390.0,0.0,64.0
472,54.0,192.0,180.0,0.0,64.0
473,59.0,96.0,960.0,0.0,64.0
474,74.0,192.0,180.0,0.0,64.0
475,65.0,0.0,180.0,0.0,64.0
476,66.0,0.0,390.0,0.0,64.0
477,75.0,192.0,180.0,0.0,64.0
478,77.0,192.0,180.0,0.0,64.0
479,74.0,192.0,780.0,0.0,64.0
480,65.0,192.0,390.0,0.0,64.0
481,58.0,96.0,90.0,0.0,64.0
482,56.0,0.0,90.0,0.0,64.0
483,54.0,192.0,180.0,0.0,64.0
484,70.0,0.0,960.0,0.0,64.0
485,53.0,0.0,180.0,0.0,64.0
486,55.0,192.0,180.0,0.0,64.0
487,73.0,0.0,390.0,0.0,64.0
488,58.0,192.0,180.0,0.0,64.0
489,76.0,96.0,180.0,0.0,64.0
490,61.0,0.0,390.0,0.0,64.0
491,75.0,96.0,1140.0,0.0,64.0
492,68.0,96.0,90.0,0.0,64.0
493,67.0,192.0,90.0,0.0,64.0
494,59.0,0.0,180.0,0.0,64.0
495,68.0,192.0,180.0,0.0,64.0
496,73.0,192.0,180.0,0.0,64.0
497,58.0,0.0,180.0,0.0,64.0
498,71.0,192.0,180.0,0.0,64.0
499,56.0,0.0,390.0,0.0,64.0
500,73.0,192.0,180.0,0.0,64.0
501,67.0,192.0,390.0,0.0,64.0
502,77.0,96.0,90.0,0.0,64.0
503,79.0,0.0,90.0,0.0,64.0
504,73.0,0.0,960.0,0.0,64.0
505,80.0,192.0,180.0,0.0,64.0
506,79.0,192.0,180.0,0.0,64.0
507,77.0,192.0,180.0,0.0,64.0
508,79.0,192.0,180.0,0.0,64.0
509,80.0,96.0,180.0,0.0,64.0
510,75.0,192.0,180.0,0.0,64.0
511,71.0,96.0,90.0,0.0,64.0
512,70.0,0.0,90.0,0.0,64.0
513,80.0,0.0,960.0,0.0,64.0
514,71.0,192.0,180.0,0.0,64.0
515,63.0,0.0,15.0,0.0,64.0
516,66.0,0.0,180.0,0.0,64.0
517,62.0,192.0,180.0,0.0,64.0
518,65.0,0.0,180.0,0.0,64.0
519,63.0,192.0,180.0,0.0,64.0
520,71.0,0.0,390.0,0.0,64.0
521,62.0,96.0,180.0,0.0,64.0
522,70.0,96.0,90.0,0.0,64.0
523,78.0,0.0,90.0,0.0,64.0
524,63.0,0.0,390.0,0.0,64.0
525,77.0,192.0,90.0,0.0,64.0
526,68.0,0.0,90.0,0.0,64.0
527,78.0,0.0,960.0,0.0,64.0
528,70.0,192.0,180.0,0.0,64.0
529,61.0,192.0,180.0,0.0,64.0
530,65.0,0.0,180.0,0.0,64.0
531,63.0,192.0,180.0,0.0,64.0
532,59.0,0.0,180.0,0.0,64.0
533,58.0,192.0,180.0,0.0,64.0
534,70.0,96.0,390.0,0.0,64.0
535,59.0,0.0,1140.0,0.0,64.0
536,77.0,96.0,90.0,0.0,64.0
537,68.0,0.0,90.0,0.0,64.0
538,75.0,96.0,90.0,0.0,64.0
539,66.0,0.0,90.0,0.0,64.0
540,68.0,0.0,180.0,0.0,64.0
541,74.0,96.0,90.0,0.0,64.0
542,75.0,96.0,90.0,0.0,64.0
543,63.0,192.0,180.0,0.0,64.0
544,74.0,96.0,90.0,0.0,64.0
545,75.0,0.0,90.0,0.0,64.0
546,77.0,0.0,570.0,0.0,64.0
547,62.0,192.0,180.0,0.0,64.0
548,68.0,192.0,180.0,0.0,64.0
549,58.0,192.0,570.0,0.0,64.0
550,66.0,96.0,180.0,0.0,64.0
551,65.0,192.0,180.0,0.0,64.0
552,75.0,96.0,90.0,0.0,64.0
553,74.0,0.0,90.0,0.0,64.0
554,75.0,192.0,570.0,0.0,64.0
555,66.0,0.0,180.0,0.0,64.0
556,53.0,192.0,180.0,0.0,64.0
557,68.0,0.0,180.0,0.0,64.0
558,70.0,192.0,570.0,0.0,64.0
559,39.0,0.0,15.0,0.0,64.0
560,54.0,0.0,960.0,0.0,64.0
561,74.0,0.0,180.0,0.0,64.0
562,47.0,96.0,570.0,0.0,64.0
563,75.0,192.0,1350.0,0.0,64.0
564,63.0,192.0,180.0,0.0,64.0
565,68.0,0.0,570.0,0.0,64.0
566,56.0,96.0,90.0,0.0,64.0
567,46.0,96.0,180.0,0.0,64.0
568,54.0,0.0,90.0,0.0,64.0
569,53.0,96.0,90.0,0.0,64.0
570,47.0,0.0,390.0,0.0,64.0
571,54.0,192.0,90.0,0.0,64.0
572,63.0,192.0,180.0,0.0,64.0
573,46.0,384.0,390.0,0.0,64.0
574,65.0,0.0,390.0,0.0,64.0
575,56.0,0.0,15.0,0.0,64.0
576,74.0,0.0,180.0,0.0,64.0
577,75.0,0.0,570.0,0.0,64.0
578,54.0,0.0,780.0,0.0,64.0
579,51.0,0.0,1140.0,0.0,64.0
580,58.0,0.0,180.0,0.0,64.0
581,66.0,192.0,180.0,0.0,64.0
582,63.0,192.0,390.0,0.0,64.0
583,71.0,192.0,180.0,0.0,64.0
584,73.0,0.0,180.0,0.0,64.0
585,70.0,0.0,180.0,0.0,64.0
586,56.0,96.0,480.0,0.0,64.0
587,68.0,192.0,180.0,0.0,64.0
588,65.0,0.0,390.0,0.0,64.0
589,71.0,96.0,390.0,0.0,64.0
590,66.0,0.0,180.0,0.0,64.0
591,49.0,96.0,1140.0,0.0,64.0
592,65.0,0.0,780.0,0.0,64.0
593,70.0,96.0,870.0,0.0,64.0
594,59.0,96.0,90.0,0.0,64.0
595,58.0,96.0,90.0,0.0,64.0
596,56.0,96.0,90.0,0.0,64.0
597,58.0,96.0,90.0,0.0,64.0
598,56.0,96.0,90.0,0.0,64.0
599,54.0,96.0,90.0,0.0,64.0
600,53.0,96.0,90.0,0.0,64.0
601,51.0,0.0,780.0,0.0,64.0
602,73.0,96.0,90.0,0.0,64.0
603,71.0,96.0,90.0,0.0,64.0
604,70.0,0.0,90.0,0.0,64.0
605,47.0,192.0,780.0,0.0,64.0
606,68.0,0.0,780.0,0.0,64.0
607,66.0,96.0,15.0,0.0,64.0
608,65.0,96.0,90.0,0.0,64.0
609,63.0,96.0,90.0,0.0,64.0
610,56.0,96.0,570.0,0.0,64.0
611,62.0,96.0,90.0,0.0,64.0
612,63.0,96.0,90.0,0.0,64.0
613,62.0,96.0,90.0,0.0,64.0
614,63.0,0.0,90.0,0.0,64.0
615,62.0,192.0,390.0,0.0,64.0
616,70.0,96.0,570.0,0.0,64.0
617,54.0,96.0,90.0,0.0,64.0
618,53.0,0.0,90.0,0.0,64.0
619,54.0,192.0,1350.0,0.0,64.0
620,63.0,0.0,1140.0,0.0,64.0
621,72.0,96.0,90.0,0.0,64.0
622,74.0,96.0,90.0,0.0,64.0
623,58.0,192.0,780.0,0.0,64.0
624,75.0,96.0,90.0,0.0,64.0
625,77.0,96.0,90.0,0.0,64.0
626,78.0,96.0,90.0,0.0,64.0
627,77.0,96.0,90.0,0.0,64.0
628,75.0,96.0,90.0,0.0,64.0
629,72.0,96.0,90.0,0.0,64.0
630,73.0,96.0,90.0,0.0,64.0
631,70.0,0.0,90.0,0.0,64.0
632,63.0,0.0,780.0,0.0,64.0
633,69.0,0.0,780.0,0.0,64.0
634,60.0,0.0,780.0,0.0,64.0
635,51.0,192.0,180.0,0.0,64.0
636,54.0,192.0,180.0,0.0,64.0
637,53.0,192.0,180.0,0.0,64.0
638,65.0,0.0,180.0,0.0,64.0
639,50.0,96.0,180.0,0.0,64.0
640,70.0,192.0,780.0,0.0,64.0
641,53.0,0.0,390.0,0.0,64.0
642,46.0,0.0,180.0,0.0,64.0
643,66.0,96.0,90.0,0.0,64.0
644,68.0,0.0,90.0,0.0,64.0
645,66.0,192.0,180.0,0.0,64.0
646,51.0,0.0,1140.0,0.0,64.0
647,58.0,0.0,180.0,0.0,64.0
648,65.0,0.0,180.0,0.0,64.0
649,56.0,0.0,180.0,0.0,64.0
650,56.0,0.0,180.0,0.0,64.0
651,65.0,192.0,180.0,0.0,64.0
652,63.0,0.0,180.0,0.0,64.0
653,54.0,192.0,180.0,0.0,64.0
654,65.0,0.0,1350.0,0.0,64.0
655,56.0,192.0,180.0,0.0,64.0
656,46.0,192.0,180.0,0.0,64.0
657,58.0,192.0,180.0,0.0,64.0
658,50.0,192.0,780.0,0.0,64.0
659,54.0,192.0,15.0,0.0,64.0
660,53.0,0.0,180.0,0.0,64.0
661,51.0,0.0,2490.0,0.0,64.0
662,54.0,192.0,180.0,0.0,64.0
663,75.0,0.0,180.0,0.0,64.0
664,56.0,0.0,180.0,0.0,64.0
665,58.0,0.0,390.0,0.0,64.0
666,55.0,192.0,390.0,0.0,64.0
667,63.0,192.0,15.0,0.0,64.0
668,56.0,192.0,780.0,0.0,64.0
669,65.0,0.0,15.0,0.0,64.0
670,59.0,0.0,780.0,0.0,64.0
671,66.0,192.0,180.0,0.0,64.0
672,65.0,192.0,180.0,0.0,64.0
673,73.0,0.0,180.0,0.0,64.0
674,65.0,192.0,180.0,0.0,64.0
675,61.0,192.0,390.0,0.0,64.0
676,58.0,0.0,390.0,0.0,64.0
677,67.0,0.0,15.0,0.0,64.0
678,59.0,0.0,390.0,0.0,64.0
679,63.0,0.0,390.0,0.0,64.0
680,68.0,96.0,15.0,0.0,64.0
681,58.0,0.0,390.0,0.0,64.0
682,61.0,0.0,390.0,0.0,64.0
683,67.0,96.0,90.0,0.0,64.0
684,65.0,96.0,90.0,0.0,64.0
685,39.0,0.0,180.0,0.0,64.0
686,63.0,192.0,90.0,0.0,64.0
687,56.0,0.0,1140.0,0.0,64.0
688,71.0,192.0,180.0,0.0,64.0
689,51.0,0.0,180.0,0.0,64.0
690,70.0,0.0,15.0,0.0,64.0
691,63.0,192.0,390.0,0.0,64.0
692,49.0,192.0,15.0,0.0,64.0
693,68.0,0.0,180.0,0.0,64.0
694,47.0,0.0,180.0,0.0,64.0
695,64.0,0.0,390.0,0.0,64.0
696,70.0,96.0,180.0,0.0,64.0
697,49.0,0.0,180.0,0.0,64.0
698,39.0,24.0,180.0,0.0,64.0
699,71.0,96.0,90.0,0.0,64.0
700,73.0,0.0,90.0,0.0,64.0
701,49.0,192.0,180.0,0.0,64.0
702,70.0,24.0,20.0,0.0,64.0
703,55.0,192.0,960.0,0.0,64.0
704,63.0,0.0,780.0,0.0,64.0
705,71.0,144.0,20.0,0.0,64.0
706,70.0,0.0,1110.0,0.0,64.0
707,47.0,192.0,15.0,0.0,64.0
708,46.0,192.0,180.0,0.0,64.0
709,47.0,192.0,780.0,0.0,64.0
710,63.0,0.0,390.0,0.0,64.0
711,51.0,192.0,180.0,0.0,64.0
712,63.0,192.0,180.0,0.0,64.0
713,68.0,0.0,1140.0,0.0,64.0
714,56.0,0.0,780.0,0.0,64.0
715,61.0,0.0,180.0,0.0,64.0
716,52.0,0.0,390.0,0.0,64.0
717,61.0,192.0,180.0,0.0,64.0
718,59.0,192.0,180.0,0.0,64.0
719,58.0,192.0,390.0,0.0,64.0
720,46.0,192.0,780.0,0.0,64.0
721,61.0,192.0,180.0,0.0,64.0
722,49.0,0.0,180.0,0.0,64.0
723,67.0,0.0,780.0,0.0,64.0
724,61.0,192.0,180.0,0.0,64.0
725,59.0,0.0,180.0,0.0,64.0
726,51.0,0.0,390.0,0.0,64.0
727,59.0,192.0,180.0,0.0,64.0
728,58.0,384.0,180.0,0.0,64.0
729,68.0,192.0,1350.0,0.0,64.0
730,59.0,0.0,390.0,0.0,64.0
731,44.0,0.0,390.0,0.0,64.0
732,56.0,192.0,180.0,0.0,64.0
733,42.0,0.0,390.0,0.0,64.0
734,60.0,192.0,390.0,0.0,64.0
735,44.0,192.0,180.0,0.0,64.0
736,46.0,0.0,180.0,0.0,64.0
737,46.0,192.0,180.0,0.0,64.0
738,61.0,0.0,570.0,0.0,64.0
739,41.0,0.0,390.0,0.0,64.0
740,47.0,192.0,180.0,0.0,64.0
741,46.0,0.0,180.0,0.0,64.0
742,42.0,0.0,390.0,0.0,64.0
743,58.0,0.0,180.0,0.0,64.0
744,61.0,0.0,180.0,0.0,64.0
745,66.0,0.0,1140.0,0.0,64.0
746,54.0,192.0,15.0,0.0,64.0
747,46.0,192.0,180.0,0.0,64.0
748,40.0,0.0,390.0,0.0,64.0
749,56.0,0.0,180.0,0.0,64.0
750,48.0,192.0,180.0,0.0,64.0
751,56.0,0.0,180.0,0.0,64.0
752,39.0,192.0,390.0,0.0,64.0
753,48.0,192.0,180.0,0.0,64.0
754,49.0,0.0,180.0,0.0,64.0
755,57.0,0.0,180.0,0.0,64.0
756,56.0,0.0,180.0,0.0,64.0
757,48.0,192.0,180.0,0.0,64.0
758,40.0,0.0,1920.0,0.0,64.0
759,44.0,192.0,180.0,0.0,64.0
760,68.0,0.0,180.0,0.0,64.0
761,56.0,0.0,180.0,0.0,64.0
762,64.0,192.0,180.0,0.0,64.0
763,49.0,96.0,870.0,0.0,64.0
764,66.0,192.0,180.0,0.0,64.0
765,58.0,0.0,180.0,0.0,64.0
766,58.0,0.0,180.0,0.0,64.0
767,66.0,192.0,180.0,0.0,64.0
768,68.0,0.0,180.0,0.0,64.0
769,59.0,96.0,180.0,0.0,64.0
770,58.0,96.0,180.0,0.0,64.0
771,61.0,0.0,390.0,0.0,64.0
772,51.0,0.0,90.0,0.0,64.0
773,49.0,96.0,90.0,0.0,64.0
774,66.0,0.0,180.0,0.0,64.0
775,47.0,192.0,90.0,0.0,64.0
776,66.0,192.0,960.0,0.0,64.0
777,58.0,0.0,180.0,0.0,64.0
778,49.0,192.0,180.0,0.0,64.0
779,51.0,0.0,15.0,0.0,64.0
780,60.0,192.0,15.0,0.0,64.0
781,39.0,0.0,390.0,0.0,64.0
782,61.0,192.0,180.0,0.0,64.0
783,44.0,0.0,180.0,0.0,64.0
784,44.0,0.0,180.0,0.0,64.0
785,37.0,192.0,1530.0,0.0,64.0
786,61.0,0.0,570.0,0.0,64.0
787,49.0,0.0,180.0,0.0,64.0
788,56.0,192.0,180.0,0.0,64.0
789,64.0,192.0,15.0,0.0,64.0
790,54.0,192.0,180.0,0.0,64.0
791,60.0,0.0,15.0,0.0,64.0
792,63.0,0.0,15.0,0.0,64.0
793,54.0,0.0,180.0,0.0,64.0
794,61.0,0.0,180.0,0.0,64.0
795,52.0,192.0,180.0,0.0,64.0
796,57.0,0.0,390.0,0.0,64.0
797,63.0,0.0,1530.0,0.0,64.0
798,54.0,192.0,180.0,0.0,64.0
799,42.0,0.0,180.0,0.0,64.0
800,54.0,192.0,180.0,0.0,64.0
801,36.0,192.0,780.0,0.0,64.0
802,52.0,192.0,15.0,0.0,64.0
803,51.0,0.0,180.0,0.0,64.0
804,52.0,0.0,780.0,0.0,64.0
805,37.0,0.0,390.0,0.0,64.0
806,56.0,192.0,15.0,0.0,64.0
807,68.0,192.0,180.0,0.0,64.0
808,61.0,0.0,390.0,0.0,64.0
809,57.0,192.0,390.0,0.0,64.0
810,66.0,192.0,15.0,0.0,64.0
811,73.0,0.0,780.0,0.0,64.0
812,64.0,0.0,180.0,0.0,64.0
813,51.0,192.0,780.0,0.0,64.0
814,66.0,192.0,180.0,0.0,64.0
815,54.0,192.0,180.0,0.0,64.0
816,66.0,192.0,180.0,0.0,64.0
817,72.0,0.0,780.0,0.0,64.0
818,64.0,0.0,180.0,0.0,64.0
819,64.0,192.0,180.0,0.0,64.0
820,56.0,384.0,390.0,0.0,64.0
821,63.0,0.0,180.0,0.0,64.0
822,73.0,192.0,3660.0,0.0,64.0
823,64.0,0.0,390.0,0.0,64.0
824,37.0,192.0,180.0,0.0,64.0
825,49.0,0.0,15.0,0.0,64.0
826,65.0,0.0,390.0,0.0,64.0
827,57.0,192.0,780.0,0.0,64.0
828,47.0,192.0,180.0,0.0,64.0
829,66.0,96.0,570.0,0.0,64.0
830,47.0,192.0,180.0,0.0,64.0
831,45.0,0.0,180.0,0.0,64.0
832,56.0,192.0,1530.0,0.0,64.0
833,47.0,0.0,180.0,0.0,64.0
834,37.0,192.0,180.0,0.0,64.0
835,65.0,96.0,90.0,0.0,64.0
836,63.0,0.0,90.0,0.0,64.0
837,65.0,0.0,180.0,0.0,64.0
838,47.0,192.0,180.0,0.0,64.0
839,66.0,0.0,180.0,0.0,64.0
840,66.0,0.0,180.0,0.0,64.0
841,45.0,192.0,15.0,0.0,64.0
842,44.0,0.0,180.0,0.0,64.0
843,68.0,192.0,180.0,0.0,64.0
844,45.0,192.0,780.0,0.0,64.0
845,61.0,192.0,180.0,0.0,64.0
846,66.0,0.0,15.0,0.0,64.0
847,49.0,0.0,390.0,0.0,64.0
848,64.0,0.0,180.0,0.0,64.0
849,56.0,0.0,390.0,0.0,64.0
850,64.0,192.0,180.0,0.0,64.0
851,44.0,0.0,390.0,0.0,64.0
852,63.0,192.0,180.0,0.0,64.0
853,43.0,0.0,780.0,0.0,64.0
854,64.0,0.0,390.0,0.0,64.0
855,58.0,0.0,780.0,0.0,64.0
856,61.0,192.0,180.0,0.0,64.0
857,63.0,192.0,960.0,0.0,64.0
858,73.0,192.0,180.0,0.0,64.0
859,71.0,192.0,15.0,0.0,64.0
860,55.0,0.0,390.0,0.0,64.0
861,39.0,0.0,390.0,0.0,64.0
862,70.0,192.0,180.0,0.0,64.0
863,71.0,192.0,570.0,0.0,64.0
864,51.0,0.0,390.0,0.0,64.0
865,44.0,0.0,780.0,0.0,64.0
866,56.0,192.0,180.0,0.0,64.0
867,68.0,0.0,180.0,0.0,64.0
868,52.0,0.0,960.0,0.0,64.0
869,69.0,192.0,180.0,0.0,64.0
870,49.0,192.0,390.0,0.0,64.0
871,66.0,0.0,15.0,0.0,64.0
872,69.0,0.0,180.0,0.0,64.0
873,64.0,0.0,180.0,0.0,64.0
874,68.0,0.0,180.0,0.0,64.0
875,69.0,192.0,570.0,0.0,64.0
876,66.0,192.0,180.0,0.0,64.0
877,42.0,192.0,780.0,0.0,64.0
878,54.0,0.0,180.0,0.0,64.0
879,51.0,96.0,870.0,0.0,64.0
880,66.0,0.0,180.0,0.0,64.0
881,68.0,0.0,180.0,0.0,64.0
882,64.0,0.0,180.0,0.0,64.0
883,47.0,0.0,390.0,0.0,64.0
884,68.0,0.0,180.0,0.0,64.0
885,64.0,192.0,180.0,0.0,64.0
886,63.0,0.0,180.0,0.0,64.0
887,66.0,96.0,180.0,0.0,64.0
888,40.0,96.0,1530.0,0.0,64.0
889,64.0,0.0,570.0,0.0,64.0
890,68.0,96.0,480.0,0.0,64.0
891,49.0,96.0,90.0,0.0,64.0
892,48.0,96.0,90.0,0.0,64.0
893,51.0,96.0,90.0,0.0,64.0
894,49.0,96.0,780.0,0.0,64.0
895,71.0,96.0,90.0,0.0,64.0
896,54.0,96.0,180.0,0.0,64.0
897,69.0,96.0,90.0,0.0,64.0
898,68.0,0.0,90.0,0.0,64.0
899,56.0,96.0,180.0,0.0,64.0
900,66.0,96.0,90.0,0.0,64.0
901,64.0,0.0,90.0,0.0,64.0
902,57.0,96.0,390.0,0.0,64.0
903,63.0,96.0,90.0,0.0,64.0
904,61.0,0.0,90.0,0.0,64.0
905,60.0,96.0,90.0,0.0,64.0
906,54.0,0.0,960.0,0.0,64.0
907,61.0,0.0,90.0,0.0,64.0
908,56.0,0.0,180.0,0.0,64.0
909,60.0,96.0,90.0,0.0,64.0
910,61.0,0.0,90.0,0.0,64.0
911,63.0,96.0,90.0,0.0,64.0
912,39.0,0.0,390.0,0.0,64.0
913,64.0,96.0,90.0,0.0,64.0
914,66.0,96.0,90.0,0.0,64.0
915,68.0,96.0,90.0,0.0,64.0
916,69.0,96.0,90.0,0.0,64.0
917,44.0,0.0,390.0,0.0,64.0
918,66.0,192.0,90.0,0.0,64.0
919,68.0,96.0,300.0,0.0,64.0
920,60.0,0.0,15.0,0.0,64.0
921,54.0,96.0,180.0,0.0,64.0
922,37.0,192.0,390.0,0.0,64.0
923,52.0,192.0,1350.0,0.0,64.0
924,61.0,0.0,180.0,0.0,64.0
925,70.0,192.0,90.0,0.0,64.0
926,71.0,0.0,180.0,0.0,64.0
927,63.0,0.0,180.0,0.0,64.0
928,70.0,0.0,180.0,0.0,64.0
929,61.0,192.0,180.0,0.0,64.0
930,49.0,96.0,1140.0,0.0,64.0
931,68.0,0.0,180.0,0.0,64.0
932,59.0,192.0,15.0,0.0,64.0
933,68.0,0.0,180.0,0.0,64.0
934,58.0,192.0,180.0,0.0,64.0
935,67.0,0.0,180.0,0.0,64.0
936,67.0,0.0,390.0,0.0,64.0
937,58.0,0.0,390.0,0.0,64.0
938,51.0,0.0,180.0,0.0,64.0
939,47.0,0.0,1140.0,0.0,64.0
940,68.0,96.0,90.0,0.0,64.0
941,51.0,0.0,570.0,0.0,64.0
942,63.0,96.0,90.0,0.0,64.0
943,65.0,96.0,90.0,0.0,64.0
944,56.0,0.0,180.0,0.0,64.0
945,67.0,96.0,90.0,0.0,64.0
946,59.0,0.0,180.0,0.0,64.0
947,68.0,96.0,90.0,0.0,64.0
948,70.0,96.0,90.0,0.0,64.0
949,63.0,96.0,180.0,0.0,64.0
950,71.0,96.0,90.0,0.0,64.0
951,56.0,0.0,180.0,0.0,64.0
952,68.0,0.0,90.0,0.0,64.0
953,73.0,0.0,1260.0,0.0,64.0
954,64.0,96.0,180.0,0.0,64.0
955,56.0,96.0,90.0,0.0,64.0
956,54.0,0.0,90.0,0.0,64.0
957,61.0,0.0,180.0,0.0,64.0
958,52.0,96.0,90.0,0.0,64.0
959,51.0,96.0,90.0,0.0,64.0
960,46.0,0.0,390.0,0.0,64.0
961,49.0,96.0,90.0,0.0,64.0
962,67.0,192.0,570.0,0.0,64.0
963,47.0,96.0,90.0,0.0,64.0
964,49.0,96.0,90.0,0.0,64.0
965,51.0,192.0,90.0,0.0,64.0
966,44.0,96.0,390.0,0.0,64.0
967,52.0,96.0,480.0,0.0,64.0
968,68.0,0.0,180.0,0.0,64.0
969,43.0,96.0,390.0,0.0,64.0
970,70.0,0.0,390.0,0.0,64.0
971,51.0,0.0,90.0,0.0,64.0
972,75.0,96.0,90.0,0.0,64.0
973,49.0,96.0,90.0,0.0,64.0
974,47.0,0.0,90.0,0.0,64.0
975,76.0,0.0,15.0,0.0,64.0
976,39.0,0.0,390.0,0.0,64.0
977,49.0,96.0,90.0,0.0,64.0
978,67.0,0.0,390.0,0.0,64.0
979,47.0,0.0,90.0,0.0,64.0
980,46.0,96.0,90.0,0.0,64.0
981,75.0,0.0,180.0,0.0,64.0
982,44.0,192.0,90.0,0.0,64.0
983,70.0,96.0,570.0,0.0,64.0
984,75.0,192.0,180.0,0.0,64.0
985,51.0,96.0,480.0,0.0,64.0
986,43.0,0.0,390.0,0.0,64.0
987,73.0,96.0,180.0,0.0,64.0
988,71.0,96.0,1350.0,0.0,64.0
989,44.0,0.0,390.0,0.0,64.0
990,55.0,0.0,90.0,0.0,64.0
991,56.0,96.0,90.0,0.0,64.0
992,63.0,96.0,180.0,0.0,64.0
993,58.0,0.0,90.0,0.0,64.0
994,68.0,0.0,180.0,0.0,64.0
995,59.0,96.0,90.0,0.0,64.0
996,52.0,0.0,390.0,0.0,64.0
997,61.0,96.0,90.0,0.0,64.0
998,63.0,96.0,90.0,0.0,64.0
999,67.0,0.0,180.0,0.0,64.0
1000,64.0,96.0,90.0,0.0,64.0
1001,68.0,0.0,180.0,0.0,64.0
1002,47.0,0.0,390.0,0.0,64.0
1003,63.0,96.0,90.0,0.0,64.0
1004,61.0,96.0,90.0,0.0,64.0
1005,63.0,0.0,180.0,0.0,64.0
1006,59.0,96.0,90.0,0.0,64.0
1007,58.0,96.0,90.0,0.0,64.0
1008,49.0,0.0,390.0,0.0,64.0
1009,64.0,0.0,390.0,0.0,64.0
1010,56.0,96.0,90.0,0.0,64.0
1011,55.0,0.0,90.0,0.0,64.0
1012,56.0,96.0,90.0,0.0,64.0
1013,70.0,0.0,390.0,0.0,64.0
1014,58.0,96.0,90.0,0.0,64.0
1015,51.0,96.0,390.0,0.0,64.0
1016,63.0,192.0,960.0,0.0,64.0
1017,59.0,96.0,90.0,0.0,64.0
1018,58.0,96.0,90.0,0.0,64.0
1019,68.0,0.0,390.0,0.0,64.0
1020,59.0,96.0,90.0,0.0,64.0
1021,61.0,0.0,90.0,0.0,64.0
1022,58.0,96.0,90.0,0.0,64.0
1023,39.0,0.0,390.0,0.0,64.0
1024,56.0,96.0,90.0,0.0,64.0
1025,58.0,96.0,90.0,0.0,64.0
1026,67.0,192.0,180.0,0.0,64.0
1027,59.0,0.0,90.0,0.0,64.0
1028,56.0,96.0,480.0,0.0,64.0
1029,68.0,96.0,1260.0,0.0,64.0
1030,40.0,0.0,780.0,0.0,64.0
1031,61.0,96.0,15.0,0.0,64.0
1032,58.0,96.0,90.0,0.0,64.0
1033,59.0,96.0,180.0,0.0,64.0
1034,56.0,96.0,90.0,0.0,64.0
1035,55.0,0.0,90.0,0.0,64.0
1036,59.0,0.0,180.0,0.0,64.0
1037,39.0,0.0,390.0,0.0,64.0
1038,56.0,96.0,90.0,0.0,64.0
1039,54.0,96.0,90.0,0.0,64.0
1040,53.0,96.0,90.0,0.0,64.0
1041,51.0,96.0,90.0,0.0,64.0
1042,38.0,0.0,390.0,0.0,64.0
1043,53.0,192.0,390.0,0.0,64.0
1044,58.0,0.0,15.0,0.0,64.0
1045,67.0,96.0,90.0,0.0,64.0
1046,68.0,96.0,90.0,0.0,64.0
1047,65.0,0.0,90.0,0.0,64.0
1048,68.0,0.0,180.0,0.0,64.0
1049,39.0,0.0,780.0,0.0,64.0
1050,51.0,0.0,1140.0,0.0,64.0
1051,59.0,192.0,180.0,0.0,64.0
1052,67.0,24.0,20.0,0.0,64.0
1053,68.0,144.0,20.0,0.0,64.0
1054,67.0,192.0,330.0,0.0,64.0
1055,61.0,192.0,570.0,0.0,64.0
1056,68.0,192.0,15.0,0.0,64.0
1057,32.0,0.0,780.0,0.0,64.0
1058,59.0,96.0,180.0,0.0,64.0
1059,67.0,96.0,90.0,0.0,64.0
1060,59.0,96.0,180.0,0.0,64.0
1061,68.0,96.0,90.0,0.0,64.0
1062,70.0,0.0,90.0,0.0,64.0
1063,56.0,96.0,180.0,0.0,64.0
1064,71.0,96.0,90.0,0.0,64.0
1065,44.0,0.0,780.0,0.0,64.0
1066,73.0,0.0,90.0,0.0,64.0
1067,75.0,96.0,90.0,0.0,64.0
1068,59.0,96.0,180.0,0.0,64.0
1069,76.0,0.0,90.0,0.0,64.0
1070,64.0,0.0,15.0,0.0,64.0
1071,61.0,96.0,90.0,0.0,64.0
1072,70.0,96.0,390.0,0.0,64.0
1073,63.0,96.0,90.0,0.0,64.0
1074,61.0,96.0,90.0,0.0,64.0
1075,59.0,0.0,90.0,0.0,64.0
1076,75.0,96.0,870.0,0.0,64.0
1077,58.0,96.0,90.0,0.0,64.0
1078,42.0,96.0,1140.0,0.0,64.0
1079,56.0,96.0,90.0,0.0,64.0
1080,70.0,0.0,180.0,0.0,64.0
1081,54.0,96.0,90.0,0.0,64.0
1082,56.0,96.0,90.0,0.0,64.0
1083,66.0,0.0,390.0,0.0,64.0
1084,58.0,96.0,90.0,0.0,64.0
1085,56.0,96.0,90.0,0.0,64.0
1086,58.0,96.0,90.0,0.0,64.0
1087,54.0,96.0,90.0,0.0,64.0
1088,59.0,96.0,180.0,0.0,64.0
1089,56.0,1152.0,1140.0,0.0,64.0
1090,73.0,0.0,90.0,0.0,64.0
1091,58.0,0.0,180.0,0.0,64.0
1092,71.0,96.0,90.0,0.0,64.0
1093,70.0,0.0,90.0,0.0,64.0
1094,59.0,0.0,180.0,0.0,64.0
1095,68.0,96.0,90.0,0.0,64.0
1096,40.0,0.0,780.0,0.0,64.0
1097,67.0,96.0,90.0,0.0,64.0
1098,68.0,96.0,90.0,0.0,64.0
1099,60.0,0.0,180.0,0.0,64.0
1100,73.0,96.0,90.0,0.0,64.0
1101,71.0,96.0,90.0,0.0,64.0
1102,61.0,96.0,180.0,0.0,64.0
1103,70.0,0.0,90.0,0.0,64.0
1104,71.0,96.0,90.0,0.0,64.0
1105,62.0,0.0,180.0,0.0,64.0
1106,68.0,0.0,90.0,0.0,64.0
1107,67.0,3840.0,1140.0,0.0,64.0
1108,63.0,0.0,1140.0,0.0,64.0
1109,39.0,0.0,1140.0,0.0,64.0
1110,58.0,0.0,1140.0,0.0,64.0
1111,56.0,384.0,390.0,0.0,64.0
1112,63.0,384.0,390.0,0.0,64.0
1113,63.0,384.0,390.0,0.0,64.0
1114,63.0,384.0,390.0,0.0,64.0
1115,63.0,960.0,390.0,0.0,64.0
1116,64.0,192.0,960.0,0.0,64.0
1117,61.0,192.0,180.0,0.0,64.0
1118,58.0,192.0,180.0,0.0,64.0
1119,61.0,384.0,180.0,0.0,64.0
1120,55.0,384.0,390.0,0.0,64.0
1121,64.0,384.0,390.0,0.0,64.0
1122,63.0,384.0,390.0,0.0,64.0
1123,61.0,384.0,390.0,0.0,64.0
1124,59.0,192.0,390.0,0.0,64.0
1125,58.0,192.0,180.0,0.0,64.0
1126,59.0,192.0,180.0,0.0,64.0
1127,56.0,192.0,180.0,0.0,64.0
1128,55.0,192.0,180.0,0.0,64.0
1129,56.0,192.0,180.0,0.0,64.0
1130,63.0,192.0,390.0,0.0,64.0
1131,58.0,0.0,180.0,0.0,64.0
1132,68.0,192.0,390.0,0.0,64.0
1133,59.0,192.0,180.0,0.0,64.0
1134,56.0,0.0,180.0,0.0,64.0
1135,58.0,192.0,180.0,0.0,64.0
1136,59.0,0.0,180.0,0.0,64.0
1137,61.0,192.0,180.0,0.0,64.0
1138,68.0,192.0,15.0,0.0,64.0
1139,63.0,0.0,180.0,0.0,64.0
1140,65.0,192.0,180.0,0.0,64.0
1141,68.0,192.0,390.0,0.0,64.0
1142,67.0,0.0,180.0,0.0,64.0
1143,71.0,192.0,960.0,0.0,64.0
1144,68.0,192.0,180.0,0.0,64.0
1145,63.0,192.0,180.0,0.0,64.0
1146,59.0,192.0,180.0,0.0,64.0
1147,63.0,192.0,180.0,0.0,64.0
1148,56.0,192.0,960.0,0.0,64.0
1149,68.0,192.0,180.0,0.0,64.0
1150,65.0,192.0,180.0,0.0,64.0
1151,68.0,192.0,180.0,0.0,64.0
1152,62.0,192.0,390.0,0.0,64.0
1153,54.0,0.0,180.0,0.0,64.0
1154,53.0,192.0,180.0,0.0,64.0
1155,71.0,0.0,390.0,0.0,64.0
1156,56.0,192.0,180.0,0.0,64.0
1157,70.0,192.0,390.0,0.0,64.0
1158,54.0,192.0,180.0,0.0,64.0
1159,53.0,0.0,180.0,0.0,64.0
1160,68.0,192.0,390.0,0.0,64.0
1161,51.0,192.0,180.0,0.0,64.0
1162,50.0,0.0,180.0,0.0,64.0
1163,51.0,192.0,180.0,0.0,64.0
1164,66.0,192.0,390.0,0.0,64.0
1165,54.0,0.0,180.0,0.0,64.0
1166,56.0,192.0,180.0,0.0,64.0
1167,65.0,0.0,180.0,0.0,64.0
1168,58.0,192.0,180.0,0.0,64.0
1169,66.0,0.0,180.0,0.0,64.0
1170,63.0,192.0,180.0,0.0,64.0
1171,59.0,192.0,960.0,0.0,64.0
1172,75.0,192.0,180.0,0.0,64.0
1173,73.0,192.0,180.0,0.0,64.0
1174,75.0,192.0,180.0,0.0,64.0
1175,64.0,192.0,390.0,0.0,64.0
1176,58.0,0.0,180.0,0.0,64.0
1177,56.0,192.0,180.0,0.0,64.0
1178,75.0,192.0,390.0,0.0,64.0
1179,59.0,0.0,180.0,0.0,64.0
1180,73.0,0.0,390.0,0.0,64.0
1181,58.0,192.0,180.0,0.0,64.0
1182,56.0,192.0,180.0,0.0,64.0
1183,70.0,192.0,390.0,0.0,64.0
1184,55.0,192.0,180.0,0.0,64.0
1185,53.0,0.0,180.0,0.0,64.0
1186,55.0,192.0,180.0,0.0,64.0
1187,63.0,0.0,390.0,0.0,64.0
1188,51.0,192.0,180.0,0.0,64.0
1189,73.0,192.0,390.0,0.0,64.0
1190,53.0,192.0,180.0,0.0,64.0
1191,55.0,0.0,180.0,0.0,64.0
1192,71.0,192.0,390.0,0.0,64.0
1193,56.0,192.0,180.0,0.0,64.0
1194,58.0,0.0,180.0,0.0,64.0
1195,44.0,192.0,390.0,0.0,64.0
1196,68.0,0.0,570.0,0.0,64.0
1197,59.0,192.0,180.0,0.0,64.0
1198,61.0,0.0,180.0,0.0,64.0
1199,59.0,192.0,180.0,0.0,64.0
1200,71.0,0.0,180.0,0.0,64.0
1201,56.0,192.0,180.0,0.0,64.0
1202,58.0,0.0,180.0,0.0,64.0
1203,70.0,192.0,180.0,0.0,64.0
1204,51.0,0.0,15.0,0.0,64.0
1205,68.0,0.0,180.0,0.0,64.0
1206,59.0,0.0,180.0,0.0,64.0
1207,58.0,192.0,180.0,0.0,64.0
1208,51.0,0.0,390.0,0.0,64.0
1209,67.0,0.0,180.0,0.0,64.0
1210,61.0,0.0,180.0,0.0,64.0
1211,65.0,192.0,180.0,0.0,64.0
1212,51.0,192.0,390.0,0.0,64.0
1213,59.0,192.0,180.0,0.0,64.0
1214,63.0,0.0,180.0,0.0,64.0
1215,58.0,0.0,180.0,0.0,64.0
1216,61.0,0.0,180.0,0.0,64.0
1217,52.0,192.0,960.0,0.0,64.0
1218,56.0,192.0,180.0,0.0,64.0
1219,58.0,192.0,180.0,0.0,64.0
1220,68.0,192.0,780.0,0.0,64.0
1221,59.0,0.0,15.0,0.0,64.0
1222,56.0,192.0,180.0,0.0,64.0
1223,61.0,192.0,960.0,0.0,64.0
1224,49.0,0.0,180.0,0.0,64.0
1225,73.0,0.0,390.0,0.0,64.0
1226,46.0,192.0,180.0,0.0,64.0
1227,49.0,192.0,180.0,0.0,64.0
1228,63.0,192.0,390.0,0.0,64.0
1229,43.0,0.0,390.0,0.0,64.0
1230,59.0,0.0,180.0,0.0,64.0
1231,52.0,0.0,390.0,0.0,64.0
1232,58.0,192.0,180.0,0.0,64.0
1233,67.0,0.0,390.0,0.0,64.0
1234,61.0,192.0,180.0,0.0,64.0
1235,51.0,0.0,390.0,0.0,64.0
1236,59.0,192.0,180.0,0.0,64.0
1237,68.0,192.0,390.0,0.0,64.0
1238,61.0,0.0,180.0,0.0,64.0
1239,58.0,192.0,180.0,0.0,64.0
1240,67.0,192.0,390.0,0.0,64.0
1241,49.0,0.0,390.0,0.0,64.0
1242,59.0,0.0,180.0,0.0,64.0
1243,51.0,0.0,390.0,0.0,64.0
1244,68.0,192.0,180.0,0.0,64.0
1245,47.0,0.0,390.0,0.0,64.0
1246,75.0,192.0,180.0,0.0,64.0
1247,46.0,192.0,180.0,0.0,64.0
1248,55.0,0.0,390.0,0.0,64.0
1249,73.0,0.0,180.0,0.0,64.0
1250,47.0,0.0,180.0,0.0,64.0
1251,75.0,192.0,180.0,0.0,64.0
1252,71.0,192.0,180.0,0.0,64.0
1253,56.0,0.0,390.0,0.0,64.0
1254,44.0,192.0,390.0,0.0,64.0
1255,73.0,0.0,180.0,0.0,64.0
1256,63.0,192.0,570.0,0.0,64.0
1257,70.0,192.0,180.0,0.0,64.0
1258,42.0,0.0,390.0,0.0,64.0
1259,51.0,192.0,390.0,0.0,64.0
1260,71.0,0.0,180.0,0.0,64.0
1261,68.0,192.0,1740.0,0.0,64.0
1262,41.0,0.0,1530.0,0.0,64.0
1263,66.0,0.0,180.0,0.0,64.0
1264,56.0,192.0,15.0,0.0,64.0
1265,65.0,192.0,180.0,0.0,64.0
1266,63.0,192.0,180.0,0.0,64.0
1267,56.0,0.0,15.0,0.0,64.0
1268,62.0,192.0,180.0,0.0,64.0
1269,63.0,192.0,180.0,0.0,64.0
1270,56.0,0.0,15.0,0.0,64.0
1271,60.0,192.0,180.0,0.0,64.0
1272,62.0,192.0,180.0,0.0,64.0
1273,39.0,0.0,180.0,0.0,64.0
1274,59.0,192.0,960.0,0.0,64.0
1275,63.0,0.0,1140.0,0.0,64.0
1276,67.0,192.0,180.0,0.0,64.0
1277,51.0,0.0,180.0,0.0,64.0
1278,68.0,192.0,180.0,0.0,64.0
1279,47.0,0.0,180.0,0.0,64.0
1280,51.0,192.0,180.0,0.0,64.0
1281,70.0,0.0,180.0,0.0,64.0
1282,71.0,0.0,1140.0,0.0,64.0
1283,44.0,192.0,960.0,0.0,64.0
1284,56.0,192.0,180.0,0.0,64.0
1285,68.0,192.0,390.0,0.0,64.0
1286,53.0,192.0,180.0,0.0,64.0
1287,56.0,0.0,180.0,0.0,64.0
1288,50.0,0.0,390.0,0.0,64.0
1289,65.0,192.0,960.0,0.0,64.0
1290,56.0,192.0,180.0,0.0,64.0
1291,68.0,192.0,390.0,0.0,64.0
1292,59.0,0.0,390.0,0.0,64.0
1293,53.0,192.0,180.0,0.0,64.0
1294,56.0,0.0,180.0,0.0,64.0
1295,58.0,0.0,390.0,0.0,64.0
1296,50.0,0.0,780.0,0.0,64.0
1297,77.0,192.0,960.0,0.0,64.0
1298,68.0,192.0,180.0,0.0,64.0
1299,56.0,192.0,390.0,0.0,64.0
1300,70.0,192.0,180.0,0.0,64.0
1301,71.0,0.0,180.0,0.0,64.0
1302,70.0,0.0,1140.0,0.0,64.0
1303,54.0,0.0,390.0,0.0,64.0
1304,75.0,192.0,180.0,0.0,64.0
1305,53.0,192.0,180.0,0.0,64.0
1306,74.0,0.0,180.0,0.0,64.0
1307,54.0,0.0,180.0,0.0,64.0
1308,75.0,192.0,180.0,0.0,64.0
1309,78.0,192.0,960.0,0.0,64.0
1310,51.0,192.0,15.0,0.0,64.0
1311,70.0,192.0,390.0,0.0,64.0
1312,61.0,0.0,390.0,0.0,64.0
1313,46.0,192.0,180.0,0.0,64.0
1314,49.0,0.0,180.0,0.0,64.0
1315,68.0,0.0,780.0,0.0,64.0
1316,63.0,0.0,780.0,0.0,64.0
1317,48.0,0.0,390.0,0.0,64.0
1318,73.0,192.0,180.0,0.0,64.0
1319,51.0,192.0,390.0,0.0,64.0
1320,72.0,192.0,180.0,0.0,64.0
1321,70.0,0.0,180.0,0.0,64.0
1322,72.0,192.0,180.0,0.0,64.0
1323,44.0,192.0,390.0,0.0,64.0
1324,75.0,0.0,180.0,0.0,64.0
1325,48.0,192.0,390.0,0.0,64.0
1326,63.0,0.0,390.0,0.0,64.0
1327,68.0,192.0,180.0,0.0,64.0
1328,56.0,192.0,570.0,0.0,64.0
1329,66.0,0.0,180.0,0.0,64.0
1330,64.0,0.0,180.0,0.0,64.0
1331,61.0,192.0,390.0,0.0,64.0
1332,54.0,0.0,180.0,0.0,64.0
1333,68.0,0.0,180.0,0.0,64.0
1334,52.0,192.0,180.0,0.0,64.0
1335,73.0,0.0,180.0,0.0,64.0
1336,51.0,0.0,180.0,0.0,64.0
1337,75.0,192.0,180.0,0.0,64.0
1338,49.0,192.0,180.0,0.0,64.0
1339,76.0,192.0,960.0,0.0,64.0
1340,49.0,0.0,180.0,0.0,64.0
1341,59.0,0.0,390.0,0.0,64.0
1342,44.0,192.0,180.0,0.0,64.0
1343,68.0,192.0,390.0,0.0,64.0
1344,47.0,0.0,180.0,0.0,64.0
1345,61.0,192.0,780.0,0.0,64.0
1346,46.0,0.0,390.0,0.0,64.0
1347,66.0,0.0,780.0,0.0,64.0
1348,71.0,192.0,180.0,0.0,64.0
1349,49.0,0.0,390.0,0.0,64.0
1350,70.0,192.0,180.0,0.0,64.0
1351,68.0,0.0,180.0,0.0,64.0
1352,42.0,192.0,390.0,0.0,64.0
1353,70.0,192.0,180.0,0.0,64.0
1354,73.0,0.0,180.0,0.0,64.0
1355,46.0,192.0,390.0,0.0,64.0
1356,54.0,0.0,570.0,0.0,64.0
1357,66.0,192.0,180.0,0.0,64.0
1358,61.0,0.0,390.0,0.0,64.0
1359,64.0,0.0,180.0,0.0,64.0
1360,63.0,192.0,180.0,0.0,64.0
1361,59.0,0.0,390.0,0.0,64.0
1362,52.0,192.0,180.0,0.0,64.0
1363,66.0,0.0,180.0,0.0,64.0
1364,71.0,0.0,180.0,0.0,64.0
1365,51.0,192.0,180.0,0.0,64.0
1366,73.0,192.0,180.0,0.0,64.0
1367,49.0,0.0,180.0,0.0,64.0
1368,47.0,192.0,180.0,0.0,64.0
1369,75.0,0.0,960.0,0.0,64.0
1370,47.0,0.0,180.0,0.0,64.0
1371,44.0,192.0,180.0,0.0,64.0
1372,59.0,192.0,390.0,0.0,64.0
1373,47.0,0.0,180.0,0.0,64.0
1374,40.0,192.0,960.0,0.0,64.0
1375,56.0,192.0,180.0,0.0,64.0
1376,68.0,192.0,180.0,0.0,64.0
1377,59.0,0.0,180.0,0.0,64.0
1378,61.0,192.0,180.0,0.0,64.0
1379,70.0,0.0,180.0,0.0,64.0
1380,63.0,0.0,180.0,0.0,64.0
1381,71.0,192.0,180.0,0.0,64.0
1382,73.0,192.0,960.0,0.0,64.0
1383,64.0,0.0,390.0,0.0,64.0
1384,52.0,192.0,15.0,0.0,64.0
1385,49.0,192.0,180.0,0.0,64.0
1386,52.0,0.0,180.0,0.0,64.0
1387,51.0,0.0,390.0,0.0,64.0
1388,43.0,0.0,390.0,0.0,64.0
1389,71.0,192.0,180.0,0.0,64.0
1390,55.0,0.0,390.0,0.0,64.0
1391,73.0,192.0,180.0,0.0,64.0
1392,39.0,192.0,390.0,0.0,64.0
1393,75.0,0.0,180.0,0.0,64.0
1394,44.0,0.0,780.0,0.0,64.0
1395,73.0,192.0,180.0,0.0,64.0
1396,71.0,0.0,180.0,0.0,64.0
1397,70.0,192.0,180.0,0.0,64.0
1398,59.0,0.0,390.0,0.0,64.0
1399,56.0,192.0,15.0,0.0,64.0
1400,68.0,192.0,180.0,0.0,64.0
1401,58.0,192.0,180.0,0.0,64.0
1402,63.0,0.0,390.0,0.0,64.0
1403,70.0,192.0,1740.0,0.0,64.0
1404,44.0,0.0,780.0,0.0,64.0
1405,49.0,192.0,180.0,0.0,64.0
1406,51.0,192.0,180.0,0.0,64.0
1407,52.0,0.0,180.0,0.0,64.0
1408,51.0,192.0,180.0,0.0,64.0
1409,63.0,192.0,15.0,0.0,64.0
1410,43.0,0.0,780.0,0.0,64.0
1411,49.0,0.0,180.0,0.0,64.0
1412,47.0,192.0,180.0,0.0,64.0
1413,63.0,192.0,15.0,0.0,64.0
1414,46.0,0.0,180.0,0.0,64.0
1415,44.0,0.0,780.0,0.0,64.0
1416,64.0,192.0,960.0,0.0,64.0
1417,47.0,0.0,780.0,0.0,64.0
1418,68.0,192.0,180.0,0.0,64.0
1419,70.0,192.0,180.0,0.0,64.0
1420,71.0,192.0,180.0,0.0,64.0
1421,49.0,192.0,960.0,0.0,64.0
1422,70.0,0.0,180.0,0.0,64.0
1423,61.0,192.0,180.0,0.0,64.0
1424,68.0,0.0,180.0,0.0,64.0
1425,67.0,0.0,180.0,0.0,64.0
1426,58.0,192.0,180.0,0.0,64.0
1427,61.0,0.0,180.0,0.0,64.0
1428,68.0,192.0,180.0,0.0,64.0
1429,70.0,0.0,390.0,0.0,64.0
1430,55.0,192.0,390.0,0.0,64.0
1431,46.0,0.0,180.0,0.0,64.0
1432,67.0,0.0,390.0,0.0,64.0
1433,64.0,0.0,390.0,0.0,64.0
1434,47.0,192.0,180.0,0.0,64.0
1435,49.0,192.0,180.0,0.0,64.0
1436,68.0,192.0,390.0,0.0,64.0
1437,63.0,0.0,390.0,0.0,64.0
1438,47.0,192.0,180.0,0.0,64.0
1439,46.0,0.0,180.0,0.0,64.0
1440,44.0,192.0,180.0,0.0,64.0
1441,70.0,0.0,390.0,0.0,64.0
1442,61.0,192.0,390.0,0.0,64.0
1443,43.0,0.0,180.0,0.0,64.0
1444,44.0,192.0,180.0,0.0,64.0
1445,63.0,0.0,1140.0,0.0,64.0
1446,59.0,0.0,390.0,0.0,64.0
1447,47.0,192.0,180.0,0.0,64.0
1448,58.0,192.0,180.0,0.0,64.0
1449,49.0,0.0,180.0,0.0,64.0
1450,51.0,0.0,180.0,0.0,64.0
1451,59.0,192.0,180.0,0.0,64.0
1452,56.0,192.0,180.0,0.0,64.0
1453,52.0,192.0,780.0,0.0,64.0
1454,55.0,192.0,180.0,0.0,64.0
1455,56.0,192.0,180.0,0.0,64.0
1456,61.0,0.0,390.0,0.0,64.0
1457,58.0,0.0,180.0,0.0,64.0
1458,66.0,192.0,960.0,0.0,64.0
1459,60.0,192.0,180.0,0.0,64.0
1460,51.0,0.0,390.0,0.0,64.0
1461,58.0,192.0,180.0,0.0,64.0
1462,60.0,192.0,180.0,0.0,64.0
1463,49.0,192.0,390.0,0.0,64.0
1464,61.0,0.0,180.0,0.0,64.0
1465,48.0,192.0,390.0,0.0,64.0
1466,63.0,192.0,1140.0,0.0,64.0
1467,64.0,0.0,180.0,0.0,64.0
1468,66.0,192.0,180.0,0.0,64.0
1469,44.0,192.0,390.0,0.0,64.0
1470,68.0,0.0,180.0,0.0,64.0
1471,64.0,0.0,390.0,0.0,64.0
1472,49.0,192.0,180.0,0.0,64.0
1473,48.0,0.0,180.0,0.0,64.0
1474,49.0,192.0,180.0,0.0,64.0
1475,61.0,192.0,570.0,0.0,64.0
1476,69.0,192.0,390.0,0.0,64.0
1477,51.0,0.0,180.0,0.0,64.0
1478,52.0,192.0,390.0,0.0,64.0
1479,68.0,192.0,960.0,0.0,64.0
1480,60.0,0.0,180.0,0.0,64.0
1481,61.0,192.0,180.0,0.0,64.0
1482,51.0,192.0,390.0,0.0,64.0
1483,63.0,0.0,180.0,0.0,64.0
1484,64.0,192.0,960.0,0.0,64.0
1485,49.0,192.0,390.0,0.0,64.0
1486,68.0,0.0,180.0,0.0,64.0
1487,47.0,192.0,390.0,0.0,64.0
1488,70.0,192.0,180.0,0.0,64.0
1489,71.0,0.0,180.0,0.0,64.0
1490,73.0,0.0,960.0,0.0,64.0
1491,46.0,192.0,390.0,0.0,64.0
1492,63.0,0.0,180.0,0.0,64.0
1493,44.0,0.0,390.0,0.0,64.0
1494,64.0,192.0,180.0,0.0,64.0
1495,61.0,192.0,180.0,0.0,64.0
1496,43.0,192.0,180.0,0.0,64.0
1497,67.0,192.0,180.0,0.0,64.0
1498,51.0,0.0,180.0,0.0,64.0
1499,53.0,0.0,180.0,0.0,64.0
1500,68.0,192.0,180.0,0.0,64.0
1501,55.0,192.0,180.0,0.0,64.0
1502,70.0,0.0,180.0,0.0,64.0
1503,71.0,192.0,960.0,0.0,64.0
1504,56.0,192.0,390.0,0.0,64.0
1505,63.0,192.0,15.0,0.0,64.0
1506,65.0,192.0,180.0,0.0,64.0
1507,54.0,192.0,390.0,0.0,64.0
1508,66.0,0.0,180.0,0.0,64.0
1509,53.0,0.0,390.0,0.0,64.0
1510,70.0,192.0,180.0,0.0,64.0
1511,51.0,192.0,390.0,0.0,64.0
1512,71.0,192.0,180.0,0.0,64.0
1513,68.0,0.0,15.0,0.0,64.0
1514,70.0,192.0,1140.0,0.0,64.0
1515,50.0,192.0,180.0,0.0,64.0
1516,46.0,0.0,180.0,0.0,64.0
1517,68.0,192.0,15.0,0.0,64.0
1518,48.0,192.0,180.0,0.0,64.0
1519,50.0,192.0,180.0,0.0,64.0
1520,51.0,192.0,180.0,0.0,64.0
1521,66.0,192.0,780.0,0.0,64.0
1522,53.0,0.0,180.0,0.0,64.0
1523,54.0,192.0,180.0,0.0,64.0
1524,75.0,192.0,570.0,0.0,64.0
1525,56.0,0.0,180.0,0.0,64.0
1526,58.0,0.0,180.0,0.0,64.0
1527,65.0,192.0,960.0,0.0,64.0
1528,59.0,192.0,180.0,0.0,64.0
1529,74.0,0.0,180.0,0.0,64.0
1530,75.0,192.0,180.0,0.0,64.0
1531,58.0,0.0,180.0,0.0,64.0
1532,56.0,192.0,180.0,0.0,64.0
1533,77.0,0.0,180.0,0.0,64.0
1534,54.0,192.0,1530.0,0.0,64.0
1535,70.0,0.0,1140.0,0.0,64.0
1536,68.0,192.0,180.0,0.0,64.0
1537,66.0,192.0,180.0,0.0,64.0
1538,65.0,192.0,180.0,0.0,64.0
1539,63.0,192.0,180.0,0.0,64.0
1540,61.0,192.0,180.0,0.0,64.0
1541,78.0,192.0,570.0,0.0,64.0
1542,59.0,192.0,180.0,0.0,64.0
1543,58.0,0.0,180.0,0.0,64.0
1544,59.0,192.0,1740.0,0.0,64.0
1545,56.0,0.0,1530.0,0.0,64.0
1546,75.0,192.0,180.0,0.0,64.0
1547,77.0,192.0,180.0,0.0,64.0
1548,78.0,192.0,180.0,0.0,64.0
1549,77.0,192.0,180.0,0.0,64.0
1550,75.0,192.0,180.0,0.0,64.0
1551,74.0,192.0,180.0,0.0,64.0
1552,75.0,192.0,180.0,0.0,64.0
1553,50.0,0.0,780.0,0.0,64.0
1554,77.0,192.0,1140.0,0.0,64.0
1555,71.0,192.0,180.0,0.0,64.0
1556,70.0,192.0,180.0,0.0,64.0
1557,68.0,192.0,180.0,0.0,64.0
1558,66.0,192.0,780.0,0.0,64.0
1559,51.0,192.0,180.0,0.0,64.0
1560,53.0,0.0,180.0,0.0,64.0
1561,54.0,192.0,180.0,0.0,64.0
1562,75.0,192.0,570.0,0.0,64.0
1563,56.0,0.0,180.0,0.0,64.0
1564,58.0,0.0,390.0,0.0,64.0
1565,65.0,192.0,960.0,0.0,64.0
1566,75.0,192.0,180.0,0.0,64.0
1567,73.0,192.0,180.0,0.0,64.0
1568,58.0,0.0,390.0,0.0,64.0
1569,71.0,192.0,180.0,0.0,64.0
1570,73.0,192.0,1530.0,0.0,64.0
1571,71.0,192.0,180.0,0.0,64.0
1572,58.0,0.0,15.0,0.0,64.0
1573,70.0,192.0,180.0,0.0,64.0
1574,68.0,192.0,180.0,0.0,64.0
1575,59.0,192.0,960.0,0.0,64.0
1576,67.0,192.0,180.0,0.0,64.0
1577,70.0,192.0,180.0,0.0,64.0
1578,67.0,192.0,180.0,0.0,64.0
1579,63.0,0.0,180.0,0.0,64.0
1580,68.0,192.0,960.0,0.0,64.0
1581,71.0,0.0,780.0,0.0,64.0
1582,56.0,192.0,180.0,0.0,64.0
1583,53.0,192.0,180.0,0.0,64.0
1584,56.0,192.0,180.0,0.0,64.0
1585,50.0,0.0,390.0,0.0,64.0
1586,70.0,192.0,390.0,0.0,64.0
1587,66.0,192.0,390.0,0.0,64.0
1588,59.0,0.0,390.0,0.0,64.0
1589,68.0,192.0,390.0,0.0,64.0
1590,65.0,192.0,390.0,0.0,64.0
1591,58.0,192.0,390.0,0.0,64.0
1592,66.0,0.0,390.0,0.0,64.0
1593,63.0,192.0,390.0,0.0,64.0
1594,65.0,0.0,390.0,0.0,64.0
1595,56.0,0.0,390.0,0.0,64.0
1596,62.0,384.0,180.0,0.0,64.0
1597,54.0,0.0,390.0,0.0,64.0
1598,63.0,0.0,780.0,0.0,64.0
1599,70.0,192.0,180.0,0.0,64.0
1600,53.0,0.0,180.0,0.0,64.0
1601,68.0,192.0,180.0,0.0,64.0
1602,54.0,192.0,180.0,0.0,64.0
1603,70.0,0.0,180.0,0.0,64.0
1604,66.0,0.0,390.0,0.0,64.0
1605,51.0,192.0,180.0,0.0,64.0
1606,53.0,192.0,180.0,0.0,64.0
1607,75.0,0.0,390.0,0.0,64.0
1608,54.0,192.0,180.0,0.0,64.0
1609,56.0,192.0,180.0,0.0,64.0
1610,58.0,192.0,180.0,0.0,64.0
1611,59.0,192.0,180.0,0.0,64.0
1612,70.0,192.0,390.0,0.0,64.0
1613,61.0,192.0,180.0,0.0,64.0
1614,58.0,0.0,180.0,0.0,64.0
1615,73.0,0.0,15.0,0.0,64.0
1616,67.0,192.0,780.0,0.0,64.0
1617,63.0,192.0,180.0,0.0,64.0
1618,61.0,192.0,180.0,0.0,64.0
1619,76.0,0.0,180.0,0.0,64.0
1620,75.0,0.0,180.0,0.0,64.0
1621,59.0,192.0,180.0,0.0,64.0
1622,58.0,0.0,180.0,0.0,64.0
1623,73.0,0.0,180.0,0.0,64.0
1624,71.0,192.0,960.0,0.0,64.0
1625,56.0,192.0,180.0,0.0,64.0
1626,58.0,0.0,180.0,0.0,64.0
1627,63.0,192.0,180.0,0.0,64.0
1628,68.0,0.0,180.0,0.0,64.0
1629,59.0,192.0,180.0,0.0,64.0
1630,56.0,192.0,180.0,0.0,64.0
1631,66.0,0.0,180.0,0.0,64.0
1632,61.0,0.0,180.0,0.0,64.0
1633,64.0,192.0,960.0,0.0,64.0
1634,68.0,0.0,180.0,0.0,64.0
1635,59.0,192.0,180.0,0.0,64.0
1636,73.0,0.0,180.0,0.0,64.0
1637,58.0,192.0,180.0,0.0,64.0
1638,71.0,0.0,180.0,0.0,64.0
1639,56.0,192.0,180.0,0.0,64.0
1640,70.0,0.0,960.0,0.0,64.0
1641,54.0,0.0,180.0,0.0,64.0
1642,68.0,0.0,180.0,0.0,64.0
1643,56.0,192.0,180.0,0.0,64.0
1644,66.0,192.0,180.0,0.0,64.0
1645,58.0,0.0,180.0,0.0,64.0
1646,64.0,192.0,180.0,0.0,64.0
1647,54.0,0.0,180.0,0.0,64.0
1648,59.0,192.0,180.0,0.0,64.0
1649,63.0,192.0,960.0,0.0,64.0
1650,73.0,192.0,180.0,0.0,64.0
1651,58.0,0.0,180.0,0.0,64.0
1652,56.0,192.0,180.0,0.0,64.0
1653,71.0,0.0,180.0,0.0,64.0
1654,54.0,0.0,180.0,0.0,64.0
1655,70.0,192.0,180.0,0.0,64.0
1656,68.0,192.0,960.0,0.0,64.0
1657,53.0,0.0,780.0,0.0,64.0
1658,56.0,192.0,180.0,0.0,64.0
1659,58.0,192.0,180.0,0.0,64.0
1660,59.0,192.0,180.0,0.0,64.0
1661,61.0,192.0,960.0,0.0,64.0
1662,52.0,192.0,780.0,0.0,64.0
1663,70.0,192.0,180.0,0.0,64.0
1664,71.0,192.0,180.0,0.0,64.0
1665,73.0,0.0,180.0,0.0,64.0
1666,75.0,192.0,390.0,0.0,64.0
1667,51.0,384.0,780.0,0.0,64.0
1668,66.0,0.0,180.0,0.0,64.0
1669,69.0,192.0,180.0,0.0,64.0
1670,66.0,0.0,180.0,0.0,64.0
1671,75.0,0.0,15.0,0.0,64.0
1672,60.0,384.0,780.0,0.0,64.0
1673,56.0,192.0,180.0,0.0,64.0
1674,75.0,0.0,390.0,0.0,64.0
1675,54.0,192.0,180.0,0.0,64.0
1676,56.0,0.0,180.0,0.0,64.0
1677,49.0,0.0,780.0,0.0,64.0
1678,76.0,0.0,960.0,0.0,64.0
1679,56.0,192.0,180.0,0.0,64.0
1680,58.0,192.0,180.0,0.0,64.0
1681,60.0,192.0,180.0,0.0,64.0
1682,61.0,192.0,180.0,0.0,64.0
1683,63.0,0.0,180.0,0.0,64.0
1684,73.0,192.0,180.0,0.0,64.0
1685,61.0,192.0,570.0,0.0,64.0
1686,70.0,192.0,180.0,0.0,64.0
1687,64.0,192.0,390.0,0.0,64.0
1688,73.0,0.0,180.0,0.0,64.0
1689,63.0,0.0,390.0,0.0,64.0
1690,59.0,0.0,180.0,0.0,64.0
1691,58.0,192.0,180.0,0.0,64.0
1692,67.0,192.0,15.0,0.0,64.0
1693,76.0,0.0,390.0,0.0,64.0
1694,61.0,192.0,180.0,0.0,64.0
1695,75.0,192.0,390.0,0.0,64.0
1696,68.0,0.0,390.0,0.0,64.0
1697,59.0,192.0,180.0,0.0,64.0
1698,58.0,0.0,180.0,0.0,64.0
1699,73.0,192.0,390.0,0.0,64.0
1700,56.0,192.0,180.0,0.0,64.0
1701,70.0,0.0,570.0,0.0,64.0
1702,55.0,0.0,180.0,0.0,64.0
1703,56.0,192.0,180.0,0.0,64.0
1704,71.0,0.0,780.0,0.0,64.0
1705,70.0,0.0,180.0,0.0,64.0
1706,51.0,192.0,180.0,0.0,64.0
1707,53.0,192.0,180.0,0.0,64.0
1708,68.0,0.0,180.0,0.0,64.0
1709,70.0,0.0,180.0,0.0,64.0
1710,55.0,192.0,180.0,0.0,64.0
1711,56.0,192.0,180.0,0.0,64.0
1712,71.0,0.0,780.0,0.0,64.0
1713,58.0,0.0,180.0,0.0,64.0
1714,73.0,192.0,180.0,0.0,64.0
1715,44.0,384.0,390.0,0.0,64.0
1716,59.0,0.0,180.0,0.0,64.0
1717,75.0,192.0,180.0,0.0,64.0
1718,61.0,0.0,180.0,0.0,64.0
1719,77.0,0.0,180.0,0.0,64.0
1720,63.0,0.0,390.0,0.0,64.0
1721,51.0,0.0,390.0,0.0,64.0
1722,79.0,192.0,390.0,0.0,64.0
1723,70.0,0.0,180.0,0.0,64.0
1724,71.0,192.0,180.0,0.0,64.0
1725,73.0,0.0,180.0,0.0,64.0
1726,51.0,192.0,15.0,0.0,64.0
1727,71.0,192.0,180.0,0.0,64.0
1728,70.0,0.0,180.0,0.0,64.0
1729,58.0,192.0,180.0,0.0,64.0
1730,75.0,192.0,570.0,0.0,64.0
1731,68.0,192.0,180.0,0.0,64.0
1732,51.0,0.0,15.0,0.0,64.0
1733,59.0,0.0,180.0,0.0,64.0
1734,61.0,0.0,180.0,0.0,64.0
1735,67.0,0.0,180.0,0.0,64.0
1736,59.0,0.0,180.0,0.0,64.0
1737,68.0,0.0,1140.0,0.0,64.0
1738,52.0,192.0,960.0,0.0,64.0
1739,58.0,0.0,180.0,0.0,64.0
1740,78.0,192.0,180.0,0.0,64.0
1741,56.0,0.0,180.0,0.0,64.0
1742,76.0,192.0,180.0,0.0,64.0
1743,55.0,0.0,180.0,0.0,64.0
1744,75.0,192.0,180.0,0.0,64.0
1745,73.0,0.0,1140.0,0.0,64.0
1746,56.0,0.0,390.0,0.0,64.0
1747,49.0,192.0,180.0,0.0,64.0
1748,67.0,0.0,180.0,0.0,64.0
1749,46.0,192.0,180.0,0.0,64.0
1750,64.0,192.0,570.0,0.0,64.0
1751,68.0,0.0,180.0,0.0,64.0
1752,49.0,192.0,180.0,0.0,64.0
1753,70.0,0.0,390.0,0.0,64.0
1754,43.0,192.0,390.0,0.0,64.0
1755,63.0,192.0,390.0,0.0,64.0
1756,67.0,192.0,390.0,0.0,64.0
1757,70.0,0.0,390.0,0.0,64.0
1758,52.0,0.0,390.0,0.0,64.0
1759,61.0,192.0,390.0,0.0,64.0
1760,51.0,192.0,390.0,0.0,64.0
1761,68.0,0.0,390.0,0.0,64.0
1762,75.0,0.0,390.0,0.0,64.0
1763,59.0,192.0,390.0,0.0,64.0
1764,49.0,192.0,390.0,0.0,64.0
1765,76.0,0.0,390.0,0.0,64.0
1766,67.0,192.0,570.0,0.0,64.0
1767,58.0,0.0,180.0,0.0,64.0
1768,75.0,192.0,390.0,0.0,64.0
1769,59.0,0.0,390.0,0.0,64.0
1770,47.0,0.0,390.0,0.0,64.0
1771,68.0,0.0,390.0,0.0,64.0
1772,46.0,192.0,180.0,0.0,64.0
1773,61.0,0.0,390.0,0.0,64.0
1774,73.0,0.0,390.0,0.0,64.0
1775,67.0,0.0,180.0,0.0,64.0
1776,47.0,192.0,180.0,0.0,64.0
1777,44.0,192.0,180.0,0.0,64.0
1778,68.0,0.0,1140.0,0.0,64.0
1779,71.0,192.0,960.0,0.0,64.0
1780,63.0,0.0,180.0,0.0,64.0
1781,47.0,0.0,180.0,0.0,64.0
1782,59.0,192.0,180.0,0.0,64.0
1783,40.0,0.0,180.0,0.0,64.0
1784,56.0,192.0,180.0,0.0,64.0
1785,44.0,192.0,180.0,0.0,64.0
1786,59.0,0.0,180.0,0.0,64.0
1787,37.0,0.0,390.0,0.0,64.0
1788,52.0,192.0,1740.0,0.0,64.0
1789,71.0,192.0,180.0,0.0,64.0
1790,47.0,192.0,390.0,0.0,64.0
1791,73.0,192.0,180.0,0.0,64.0
1792,56.0,0.0,390.0,0.0,64.0
1793,75.0,0.0,180.0,0.0,64.0
1794,61.0,0.0,1530.0,0.0,64.0
1795,73.0,192.0,180.0,0.0,64.0
1796,46.0,192.0,390.0,0.0,64.0
1797,71.0,0.0,180.0,0.0,64.0
1798,70.0,192.0,180.0,0.0,64.0
1799,44.0,0.0,390.0,0.0,64.0
1800,68.0,192.0,180.0,0.0,64.0
1801,43.0,192.0,390.0,0.0,64.0
1802,70.0,0.0,180.0,0.0,64.0
1803,67.0,0.0,180.0,0.0,64.0
1804,51.0,0.0,180.0,0.0,64.0
1805,68.0,192.0,180.0,0.0,64.0
1806,39.0,0.0,390.0,0.0,64.0
1807,53.0,0.0,180.0,0.0,64.0
1808,55.0,0.0,180.0,0.0,64.0
1809,70.0,192.0,180.0,0.0,64.0
1810,71.0,192.0,180.0,0.0,64.0
1811,56.0,192.0,570.0,0.0,64.0
1812,44.0,192.0,390.0,0.0,64.0
1813,58.0,0.0,180.0,0.0,64.0
1814,73.0,0.0,180.0,0.0,64.0
1815,59.0,192.0,780.0,0.0,64.0
1816,35.0,0.0,390.0,0.0,64.0
1817,75.0,192.0,570.0,0.0,64.0
1818,55.0,192.0,180.0,0.0,64.0
1819,56.0,192.0,1530.0,0.0,64.0
1820,40.0,0.0,1530.0,0.0,64.0
1821,73.0,0.0,180.0,0.0,64.0
1822,60.0,192.0,390.0,0.0,64.0
1823,76.0,192.0,180.0,0.0,64.0
1824,75.0,0.0,180.0,0.0,64.0
1825,61.0,192.0,390.0,0.0,64.0
1826,73.0,192.0,180.0,0.0,64.0
1827,71.0,0.0,180.0,0.0,64.0
1828,62.0,0.0,390.0,0.0,64.0
1829,70.0,192.0,180.0,0.0,64.0
1830,68.0,0.0,180.0,0.0,64.0
1831,63.0,192.0,180.0,0.0,64.0
1832,67.0,0.0,780.0,0.0,64.0
1833,39.0,0.0,780.0,0.0,64.0
1834,58.0,0.0,180.0,0.0,64.0
1835,59.0,192.0,180.0,0.0,64.0
1836,61.0,192.0,180.0,0.0,64.0
1837,59.0,192.0,180.0,0.0,64.0
1838,51.0,192.0,780.0,0.0,64.0
1839,58.0,192.0,180.0,0.0,64.0
1840,56.0,192.0,180.0,0.0,64.0
1841,55.0,0.0,180.0,0.0,64.0
1842,52.0,0.0,780.0,0.0,64.0
1843,56.0,192.0,180.0,0.0,64.0
1844,60.0,192.0,180.0,0.0,64.0
1845,61.0,192.0,180.0,0.0,64.0
1846,63.0,192.0,180.0,0.0,64.0
1847,53.0,192.0,780.0,0.0,64.0
1848,61.0,192.0,180.0,0.0,64.0
1849,59.0,192.0,180.0,0.0,64.0
1850,58.0,192.0,180.0,0.0,64.0
1851,56.0,0.0,180.0,0.0,64.0
1852,58.0,192.0,180.0,0.0,64.0
1853,54.0,0.0,780.0,0.0,64.0
1854,62.0,192.0,180.0,0.0,64.0
1855,63.0,192.0,180.0,0.0,64.0
1856,64.0,192.0,180.0,0.0,64.0
1857,55.0,384.0,780.0,0.0,64.0
1858,63.0,192.0,180.0,0.0,64.0
1859,61.0,192.0,180.0,0.0,64.0
1860,59.0,192.0,180.0,0.0,64.0
1861,58.0,0.0,180.0,0.0,64.0
1862,59.0,0.0,780.0,0.0,64.0
1863,56.0,192.0,780.0,0.0,64.0
1864,67.0,192.0,180.0,0.0,64.0
1865,68.0,192.0,180.0,0.0,64.0
1866,70.0,0.0,180.0,0.0,64.0
1867,68.0,192.0,180.0,0.0,64.0
1868,60.0,0.0,780.0,0.0,64.0
1869,66.0,192.0,180.0,0.0,64.0
1870,65.0,192.0,180.0,0.0,64.0
1871,63.0,192.0,180.0,0.0,64.0
1872,61.0,192.0,780.0,0.0,64.0
1873,65.0,192.0,180.0,0.0,64.0
1874,69.0,192.0,180.0,0.0,64.0
1875,70.0,192.0,180.0,0.0,64.0
1876,71.0,0.0,180.0,0.0,64.0
1877,62.0,384.0,780.0,0.0,64.0
1878,70.0,192.0,180.0,0.0,64.0
1879,68.0,192.0,180.0,0.0,64.0
1880,66.0,192.0,180.0,0.0,64.0
1881,65.0,0.0,180.0,0.0,64.0
1882,63.0,0.0,390.0,0.0,64.0
1883,66.0,192.0,390.0,0.0,64.0
1884,59.0,0.0,180.0,0.0,64.0
1885,65.0,0.0,390.0,0.0,64.0
1886,68.0,0.0,390.0,0.0,64.0
1887,58.0,192.0,180.0,0.0,64.0
1888,56.0,192.0,180.0,0.0,64.0
1889,54.0,192.0,180.0,0.0,64.0
1890,66.0,0.0,180.0,0.0,64.0
1891,68.0,0.0,180.0,0.0,64.0
1892,53.0,0.0,180.0,0.0,64.0
1893,70.0,192.0,15.0,0.0,64.0
1894,51.0,192.0,180.0,0.0,64.0
1895,50.0,192.0,180.0,0.0,64.0
1896,51.0,192.0,180.0,0.0,64.0
1897,71.0,192.0,780.0,0.0,64.0
1898,55.0,192.0,180.0,0.0,64.0
1899,63.0,192.0,570.0,0.0,64.0
1900,56.0,192.0,180.0,0.0,64.0
1901,58.0,0.0,180.0,0.0,64.0
1902,56.0,0.0,180.0,0.0,64.0
1903,72.0,192.0,780.0,0.0,64.0
1904,54.0,192.0,180.0,0.0,64.0
1905,70.0,0.0,180.0,0.0,64.0
1906,53.0,0.0,180.0,0.0,64.0
1907,68.0,192.0,180.0,0.0,64.0
1908,66.0,0.0,180.0,0.0,64.0
1909,51.0,0.0,180.0,0.0,64.0
1910,73.0,0.0,780.0,0.0,64.0
1911,53.0,192.0,180.0,0.0,64.0
1912,65.0,192.0,390.0,0.0,64.0
1913,57.0,0.0,180.0,0.0,64.0
1914,58.0,192.0,180.0,0.0,64.0
1915,66.0,0.0,390.0,0.0,64.0
1916,59.0,192.0,180.0,0.0,64.0
1917,68.0,0.0,780.0,0.0,64.0
1918,74.0,0.0,780.0,0.0,64.0
1919,58.0,192.0,180.0,0.0,64.0
1920,56.0,192.0,180.0,0.0,64.0
1921,54.0,192.0,180.0,0.0,64.0
1922,53.0,192.0,180.0,0.0,64.0
1923,75.0,192.0,180.0,0.0,64.0
1924,70.0,192.0,1350.0,0.0,64.0
1925,54.0,0.0,780.0,0.0,64.0
1926,74.0,192.0,180.0,0.0,64.0
1927,75.0,192.0,180.0,0.0,64.0
1928,76.0,192.0,180.0,0.0,64.0
1929,75.0,192.0,180.0,0.0,64.0
1930,55.0,192.0,780.0,0.0,64.0
1931,73.0,192.0,180.0,0.0,64.0
1932,71.0,0.0,180.0,0.0,64.0
1933,70.0,192.0,390.0,0.0,64.0
1934,71.0,192.0,780.0,0.0,64.0
1935,56.0,192.0,1740.0,0.0,64.0
1936,67.0,192.0,180.0,0.0,64.0
1937,68.0,192.0,180.0,0.0,64.0
1938,70.0,0.0,180.0,0.0,64.0
1939,72.0,192.0,780.0,0.0,64.0
1940,68.0,192.0,180.0,0.0,64.0
1941,44.0,0.0,780.0,0.0,64.0
1942,66.0,192.0,180.0,0.0,64.0
1943,64.0,192.0,180.0,0.0,64.0
1944,63.0,0.0,180.0,0.0,64.0
1945,45.0,0.0,780.0,0.0,64.0
1946,73.0,0.0,390.0,0.0,64.0
1947,61.0,0.0,390.0,0.0,64.0
1948,53.0,192.0,180.0,0.0,64.0
1949,54.0,192.0,180.0,0.0,64.0
1950,75.0,192.0,390.0,0.0,64.0
1951,56.0,0.0,180.0,0.0,64.0
1952,54.0,192.0,180.0,0.0,64.0
1953,46.0,0.0,780.0,0.0,64.0
1954,76.0,192.0,780.0,0.0,64.0
1955,52.0,192.0,180.0,0.0,64.0
1956,51.0,192.0,180.0,0.0,64.0
1957,66.0,192.0,570.0,0.0,64.0
1958,49.0,0.0,180.0,0.0,64.0
1959,51.0,192.0,780.0,0.0,64.0
1960,47.0,0.0,780.0,0.0,64.0
1961,75.0,192.0,1740.0,0.0,64.0
1962,67.0,192.0,180.0,0.0,64.0
1963,68.0,192.0,180.0,0.0,64.0
1964,69.0,0.0,180.0,0.0,64.0
1965,68.0,192.0,180.0,0.0,64.0
1966,48.0,0.0,780.0,0.0,64.0
1967,66.0,192.0,180.0,0.0,64.0
1968,64.0,192.0,180.0,0.0,64.0
1969,63.0,192.0,180.0,0.0,64.0
1970,64.0,0.0,780.0,0.0,64.0
1971,49.0,0.0,2310.0,0.0,64.0
1972,72.0,192.0,180.0,0.0,64.0
1973,73.0,192.0,180.0,0.0,64.0
1974,74.0,192.0,180.0,0.0,64.0
1975,73.0,192.0,180.0,0.0,64.0
1976,65.0,384.0,780.0,0.0,64.0
1977,71.0,192.0,180.0,0.0,64.0
1978,69.0,192.0,180.0,0.0,64.0
1979,68.0,0.0,180.0,0.0,64.0
1980,69.0,0.0,780.0,0.0,64.0
1981,66.0,0.0,1740.0,0.0,64.0
1982,61.0,192.0,180.0,0.0,64.0
1983,63.0,192.0,180.0,0.0,64.0
1984,64.0,192.0,180.0,0.0,64.0
1985,48.0,0.0,780.0,0.0,64.0
1986,68.0,384.0,2310.0,0.0,64.0
1987,63.0,192.0,180.0,0.0,64.0
1988,61.0,192.0,180.0,0.0,64.0
1989,60.0,192.0,180.0,0.0,64.0
1990,58.0,192.0,180.0,0.0,64.0
1991,56.0,192.0,180.0,0.0,64.0
1992,52.0,0.0,2310.0,0.0,64.0
1993,60.0,192.0,180.0,0.0,64.0
1994,63.0,0.0,180.0,0.0,64.0
1995,64.0,0.0,180.0,0.0,64.0
1996,61.0,192.0,180.0,0.0,64.0
1997,66.0,0.0,180.0,0.0,64.0
1998,63.0,192.0,180.0,0.0,64.0
1999,64.0,0.0,180.0,0.0,64.0
2000,61.0,192.0,180.0,0.0,64.0
2001,63.0,192.0,180.0,0.0,64.0
2002,59.0,0.0,180.0,0.0,64.0
2003,61.0,0.0,180.0,0.0,64.0
2004,58.0,192.0,180.0,0.0,64.0
2005,59.0,0.0,180.0,0.0,64.0
2006,56.0,0.0,180.0,0.0,64.0
2007,54.0,192.0,1530.0,0.0,64.0
2008,61.0,0.0,780.0,0.0,64.0
2009,70.0,192.0,180.0,0.0,64.0
2010,71.0,192.0,180.0,0.0,64.0
2011,73.0,192.0,180.0,0.0,64.0
2012,51.0,0.0,780.0,0.0,64.0
2013,71.0,192.0,180.0,0.0,64.0
2014,63.0,192.0,960.0,0.0,64.0
2015,70.0,192.0,180.0,0.0,64.0
2016,68.0,192.0,180.0,0.0,64.0
2017,66.0,0.0,180.0,0.0,64.0
2018,64.0,192.0,1740.0,0.0,64.0
2019,44.0,0.0,780.0,0.0,64.0
2020,47.0,192.0,390.0,0.0,64.0
2021,59.0,0.0,180.0,0.0,64.0
2022,61.0,192.0,180.0,0.0,64.0
2023,52.0,0.0,390.0,0.0,64.0
2024,63.0,192.0,180.0,0.0,64.0
2025,46.0,192.0,780.0,0.0,64.0
2026,54.0,0.0,390.0,0.0,64.0
2027,61.0,192.0,180.0,0.0,64.0
2028,59.0,192.0,180.0,0.0,64.0
2029,49.0,0.0,390.0,0.0,64.0
2030,58.0,192.0,180.0,0.0,64.0
2031,56.0,0.0,180.0,0.0,64.0
2032,51.0,192.0,2700.0,0.0,64.0
2033,47.0,0.0,2310.0,0.0,64.0
2034,54.0,192.0,780.0,0.0,64.0
2035,62.0,192.0,180.0,0.0,64.0
2036,63.0,192.0,180.0,0.0,64.0
2037,64.0,0.0,180.0,0.0,64.0
2038,55.0,384.0,780.0,0.0,64.0
2039,63.0,192.0,180.0,0.0,64.0
2040,61.0,192.0,180.0,0.0,64.0
2041,59.0,192.0,180.0,0.0,64.0
2042,58.0,0.0,180.0,0.0,64.0
2043,56.0,192.0,780.0,0.0,64.0
2044,65.0,192.0,180.0,0.0,64.0
2045,66.0,192.0,180.0,0.0,64.0
2046,68.0,0.0,180.0,0.0,64.0
2047,66.0,192.0,180.0,0.0,64.0
2048,57.0,0.0,780.0,0.0,64.0
2049,48.0,0.0,780.0,0.0,64.0
2050,65.0,0.0,180.0,0.0,64.0
2051,53.0,0.0,390.0,0.0,64.0
2052,63.0,192.0,180.0,0.0,64.0
2053,62.0,192.0,180.0,0.0,64.0
2054,54.0,192.0,390.0,0.0,64.0
2055,46.0,0.0,780.0,0.0,64.0
2056,63.0,192.0,180.0,0.0,64.0
2057,58.0,0.0,390.0,0.0,64.0
2058,75.0,0.0,180.0,0.0,64.0
2059,77.0,192.0,180.0,0.0,64.0
2060,51.0,192.0,390.0,0.0,64.0
2061,78.0,0.0,180.0,0.0,64.0
2062,45.0,192.0,780.0,0.0,64.0
2063,77.0,192.0,180.0,0.0,64.0
2064,60.0,0.0,780.0,0.0,64.0
2065,75.0,192.0,180.0,0.0,64.0
2066,74.0,192.0,180.0,0.0,64.0
2067,65.0,192.0,570.0,0.0,64.0
2068,75.0,0.0,180.0,0.0,64.0
2069,66.0,192.0,570.0,0.0,64.0
2070,46.0,0.0,780.0,0.0,64.0
2071,58.0,192.0,1350.0,0.0,64.0
2072,62.0,192.0,180.0,0.0,64.0
2073,63.0,192.0,570.0,0.0,64.0
2074,68.0,192.0,180.0,0.0,64.0
2075,34.0,0.0,780.0,0.0,64.0
2076,65.0,192.0,780.0,0.0,64.0
2077,60.0,192.0,180.0,0.0,64.0
2078,62.0,0.0,390.0,0.0,64.0
2079,63.0,192.0,780.0,0.0,64.0
2080,39.0,0.0,780.0,0.0,64.0
2081,56.0,192.0,15.0,0.0,64.0
2082,55.0,192.0,180.0,0.0,64.0
2083,53.0,0.0,180.0,0.0,64.0
2084,70.0,0.0,780.0,0.0,64.0
2085,51.0,192.0,180.0,0.0,64.0
2086,49.0,192.0,180.0,0.0,64.0
2087,47.0,192.0,180.0,0.0,64.0
2088,46.0,192.0,180.0,0.0,64.0
2089,71.0,0.0,780.0,0.0,64.0
2090,44.0,192.0,180.0,0.0,64.0
2091,55.0,192.0,180.0,0.0,64.0
2092,56.0,192.0,180.0,0.0,64.0
2093,57.0,192.0,180.0,0.0,64.0
2094,56.0,192.0,180.0,0.0,64.0
2095,63.0,0.0,780.0,0.0,64.0
2096,72.0,0.0,780.0,0.0,64.0
2097,54.0,192.0,180.0,0.0,64.0
2098,52.0,192.0,180.0,0.0,64.0
2099,51.0,192.0,180.0,0.0,64.0
2100,73.0,0.0,1740.0,0.0,64.0
2101,64.0,0.0,780.0,0.0,64.0
2102,49.0,192.0,180.0,0.0,64.0
2103,48.0,192.0,180.0,0.0,64.0
2104,49.0,192.0,180.0,0.0,64.0
2105,50.0,192.0,180.0,0.0,64.0
2106,49.0,192.0,180.0,0.0,64.0
2107,65.0,0.0,780.0,0.0,64.0
2108,47.0,192.0,180.0,0.0,64.0
2109,45.0,192.0,180.0,0.0,64.0
2110,44.0,192.0,180.0,0.0,64.0
2111,66.0,192.0,1740.0,0.0,64.0
2112,45.0,192.0,180.0,0.0,64.0
2113,71.0,0.0,180.0,0.0,64.0
2114,44.0,192.0,180.0,0.0,64.0
2115,73.0,0.0,180.0,0.0,64.0
2116,45.0,192.0,180.0,0.0,64.0
2117,74.0,192.0,180.0,0.0,64.0
2118,47.0,0.0,180.0,0.0,64.0
2119,45.0,192.0,180.0,0.0,64.0
2120,73.0,0.0,180.0,0.0,64.0
2121,71.0,192.0,180.0,0.0,64.0
2122,44.0,0.0,180.0,0.0,64.0
2123,42.0,0.0,180.0,0.0,64.0
2124,69.0,192.0,180.0,0.0,64.0
2125,68.0,0.0,180.0,0.0,64.0
2126,41.0,192.0,180.0,0.0,64.0
2127,42.0,0.0,180.0,0.0,64.0
2128,69.0,192.0,780.0,0.0,64.0
2129,44.0,0.0,180.0,0.0,64.0
2130,65.0,192.0,180.0,0.0,64.0
2131,45.0,0.0,180.0,0.0,64.0
2132,66.0,192.0,180.0,0.0,64.0
2133,47.0,0.0,180.0,0.0,64.0
2134,67.0,0.0,180.0,0.0,64.0
2135,49.0,192.0,180.0,0.0,64.0
2136,66.0,0.0,180.0,0.0,64.0
2137,70.0,0.0,780.0,0.0,64.0
2138,64.0,192.0,180.0,0.0,64.0
2139,50.0,0.0,180.0,0.0,64.0
2140,52.0,0.0,180.0,0.0,64.0
2141,62.0,192.0,180.0,0.0,64.0
2142,54.0,192.0,180.0,0.0,64.0
2143,61.0,0.0,180.0,0.0,64.0
2144,71.0,0.0,1740.0,0.0,64.0
2145,62.0,0.0,780.0,0.0,64.0
2146,47.0,192.0,180.0,0.0,64.0
2147,46.0,192.0,180.0,0.0,64.0
2148,47.0,192.0,180.0,0.0,64.0
2149,49.0,192.0,180.0,0.0,64.0
2150,63.0,192.0,780.0,0.0,64.0
2151,47.0,192.0,180.0,0.0,64.0
2152,45.0,192.0,180.0,0.0,64.0
2153,44.0,192.0,180.0,0.0,64.0
2154,42.0,0.0,180.0,0.0,64.0
2155,44.0,192.0,180.0,0.0,64.0
2156,64.0,0.0,1740.0,0.0,64.0
2157,42.0,192.0,180.0,0.0,64.0
2158,69.0,0.0,180.0,0.0,64.0
2159,44.0,192.0,180.0,0.0,64.0
2160,71.0,0.0,180.0,0.0,64.0
2161,45.0,0.0,180.0,0.0,64.0
2162,73.0,192.0,180.0,0.0,64.0
2163,44.0,192.0,180.0,0.0,64.0
2164,71.0,0.0,180.0,0.0,64.0
2165,69.0,0.0,180.0,0.0,64.0
2166,42.0,192.0,180.0,0.0,64.0
2167,68.0,0.0,180.0,0.0,64.0
2168,40.0,192.0,180.0,0.0,64.0
2169,39.0,192.0,180.0,0.0,64.0
2170,67.0,0.0,180.0,0.0,64.0
2171,40.0,192.0,180.0,0.0,64.0
2172,68.0,0.0,1920.0,0.0,64.0
2173,42.0,192.0,180.0,0.0,64.0
2174,63.0,0.0,180.0,0.0,64.0
2175,64.0,0.0,180.0,0.0,64.0
2176,44.0,192.0,180.0,0.0,64.0
2177,66.0,192.0,180.0,0.0,64.0
2178,45.0,0.0,180.0,0.0,64.0
2179,47.0,192.0,180.0,0.0,64.0
2180,64.0,0.0,180.0,0.0,64.0
2181,49.0,192.0,180.0,0.0,64.0
2182,63.0,0.0,180.0,0.0,64.0
2183,61.0,192.0,180.0,0.0,64.0
2184,51.0,0.0,180.0,0.0,64.0
2185,52.0,192.0,180.0,0.0,64.0
2186,60.0,0.0,180.0,0.0,64.0
2187,61.0,0.0,570.0,0.0,64.0
2188,46.0,192.0,180.0,0.0,64.0
2189,44.0,192.0,180.0,0.0,64.0
2190,46.0,192.0,180.0,0.0,64.0
2191,63.0,0.0,180.0,0.0,64.0
2192,47.0,192.0,180.0,0.0,64.0
2193,64.0,0.0,180.0,0.0,64.0
2194,46.0,192.0,180.0,0.0,64.0
2195,71.0,0.0,180.0,0.0,64.0
2196,44.0,192.0,180.0,0.0,64.0
2197,70.0,192.0,180.0,0.0,64.0
2198,43.0,0.0,180.0,0.0,64.0
2199,41.0,192.0,180.0,0.0,64.0
2200,68.0,0.0,180.0,0.0,64.0
2201,39.0,0.0,180.0,0.0,64.0
2202,67.0,0.0,1530.0,0.0,64.0
2203,73.0,192.0,15.0,0.0,64.0
2204,41.0,0.0,180.0,0.0,64.0
2205,75.0,192.0,180.0,0.0,64.0
2206,43.0,0.0,180.0,0.0,64.0
2207,76.0,0.0,180.0,0.0,64.0
2208,44.0,192.0,180.0,0.0,64.0
2209,75.0,192.0,180.0,0.0,64.0
2210,39.0,192.0,780.0,0.0,64.0
2211,46.0,0.0,180.0,0.0,64.0
2212,73.0,0.0,180.0,0.0,64.0
2213,47.0,192.0,180.0,0.0,64.0
2214,49.0,0.0,180.0,0.0,64.0
2215,71.0,192.0,180.0,0.0,64.0
2216,51.0,0.0,180.0,0.0,64.0
2217,70.0,0.0,180.0,0.0,64.0
2218,68.0,0.0,780.0,0.0,64.0
2219,47.0,192.0,180.0,0.0,64.0
2220,40.0,0.0,780.0,0.0,64.0
2221,51.0,0.0,180.0,0.0,64.0
2222,72.0,192.0,180.0,0.0,64.0
2223,73.0,192.0,180.0,0.0,64.0
2224,52.0,0.0,180.0,0.0,64.0
2225,54.0,192.0,180.0,0.0,64.0
2226,75.0,0.0,180.0,0.0,64.0
2227,73.0,192.0,180.0,0.0,64.0
2228,41.0,192.0,780.0,0.0,64.0
2229,56.0,192.0,960.0,0.0,64.0
2230,63.0,192.0,180.0,0.0,64.0
2231,71.0,0.0,180.0,0.0,64.0
2232,61.0,0.0,180.0,0.0,64.0
2233,70.0,192.0,180.0,0.0,64.0
2234,59.0,0.0,180.0,0.0,64.0
2235,68.0,0.0,180.0,0.0,64.0
2236,70.0,0.0,180.0,0.0,64.0
2237,58.0,0.0,780.0,0.0,64.0
2238,42.0,0.0,780.0,0.0,64.0
2239,53.0,0.0,180.0,0.0,64.0
2240,74.0,192.0,180.0,0.0,64.0
2241,75.0,0.0,180.0,0.0,64.0
2242,54.0,192.0,180.0,0.0,64.0
2243,56.0,192.0,180.0,0.0,64.0
2244,76.0,0.0,180.0,0.0,64.0
2245,75.0,192.0,180.0,0.0,64.0
2246,43.0,192.0,780.0,0.0,64.0
2247,58.0,0.0,780.0,0.0,64.0
2248,64.0,0.0,180.0,0.0,64.0
2249,73.0,192.0,180.0,0.0,64.0
2250,71.0,192.0,180.0,0.0,64.0
2251,63.0,0.0,180.0,0.0,64.0
2252,61.0,0.0,180.0,0.0,64.0
2253,70.0,0.0,180.0,0.0,64.0
2254,68.0,192.0,180.0,0.0,64.0
2255,59.0,0.0,780.0,0.0,64.0
2256,44.0,0.0,390.0,0.0,64.0
2257,66.0,192.0,180.0,0.0,64.0
2258,42.0,0.0,390.0,0.0,64.0
2259,68.0,192.0,180.0,0.0,64.0
2260,69.0,0.0,180.0,0.0,64.0
2261,60.0,0.0,780.0,0.0,64.0
2262,40.0,192.0,390.0,0.0,64.0
2263,68.0,192.0,180.0,0.0,64.0
2264,66.0,0.0,180.0,0.0,64.0
2265,64.0,192.0,180.0,0.0,64.0
2266,44.0,192.0,390.0,0.0,64.0
2267,63.0,0.0,180.0,0.0,64.0
2268,61.0,192.0,780.0,0.0,64.0
2269,64.0,192.0,180.0,0.0,64.0
2270,37.0,192.0,390.0,0.0,64.0
2271,68.0,0.0,180.0,0.0,64.0
2272,40.0,0.0,390.0,0.0,64.0
2273,73.0,192.0,180.0,0.0,64.0
2274,75.0,0.0,180.0,0.0,64.0
2275,62.0,0.0,780.0,0.0,64.0
2276,77.0,192.0,180.0,0.0,64.0
2277,34.0,0.0,390.0,0.0,64.0
2278,71.0,192.0,180.0,0.0,64.0
2279,46.0,0.0,390.0,0.0,64.0
2280,70.0,192.0,180.0,0.0,64.0
2281,68.0,192.0,180.0,0.0,64.0
2282,63.0,192.0,180.0,0.0,64.0
2283,67.0,192.0,960.0,0.0,64.0
2284,39.0,0.0,390.0,0.0,64.0
2285,61.0,192.0,180.0,0.0,64.0
2286,46.0,192.0,390.0,0.0,64.0
2287,63.0,192.0,180.0,0.0,64.0
2288,64.0,0.0,180.0,0.0,64.0
2289,63.0,0.0,180.0,0.0,64.0
2290,51.0,0.0,390.0,0.0,64.0
2291,61.0,0.0,180.0,0.0,64.0
2292,76.0,192.0,180.0,0.0,64.0
2293,39.0,0.0,390.0,0.0,64.0
2294,59.0,0.0,180.0,0.0,64.0
2295,75.0,192.0,180.0,0.0,64.0
2296,58.0,0.0,180.0,0.0,64.0
2297,73.0,192.0,180.0,0.0,64.0
2298,56.0,192.0,960.0,0.0,64.0
2299,64.0,192.0,780.0,0.0,64.0
2300,71.0,192.0,180.0,0.0,64.0
2301,44.0,0.0,390.0,0.0,64.0
2302,70.0,192.0,180.0,0.0,64.0
2303,68.0,192.0,180.0,0.0,64.0
2304,47.0,0.0,390.0,0.0,64.0
2305,66.0,0.0,180.0,0.0,64.0
2306,38.0,192.0,390.0,0.0,64.0
2307,65.0,0.0,780.0,0.0,64.0
2308,71.0,0.0,180.0,0.0,64.0
2309,56.0,0.0,180.0,0.0,64.0
2310,70.0,192.0,180.0,0.0,64.0
2311,46.0,192.0,390.0,0.0,64.0
2312,54.0,0.0,180.0,0.0,64.0
2313,53.0,0.0,180.0,0.0,64.0
2314,74.0,0.0,180.0,0.0,64.0
2315,66.0,192.0,780.0,0.0,64.0
2316,75.0,0.0,780.0,0.0,64.0
2317,39.0,0.0,780.0,0.0,64.0
2318,51.0,192.0,180.0,0.0,64.0
2319,50.0,192.0,180.0,0.0,64.0
2320,51.0,192.0,180.0,0.0,64.0
2321,52.0,0.0,180.0,0.0,64.0
2322,51.0,192.0,180.0,0.0,64.0
2323,67.0,0.0,780.0,0.0,64.0
2324,70.0,192.0,780.0,0.0,64.0
2325,49.0,192.0,180.0,0.0,64.0
2326,47.0,192.0,180.0,0.0,64.0
2327,46.0,0.0,180.0,0.0,64.0
2328,44.0,0.0,390.0,0.0,64.0
2329,71.0,0.0,780.0,0.0,64.0
2330,68.0,192.0,180.0,0.0,64.0
2331,67.0,192.0,180.0,0.0,64.0
2332,68.0,192.0,180.0,0.0,64.0
2333,51.0,192.0,390.0,0.0,64.0
2334,69.0,0.0,180.0,0.0,64.0
2335,72.0,0.0,780.0,0.0,64.0
2336,56.0,0.0,390.0,0.0,64.0
2337,68.0,192.0,180.0,0.0,64.0
2338,66.0,192.0,180.0,0.0,64.0
2339,64.0,192.0,180.0,0.0,64.0
2340,44.0,192.0,390.0,0.0,64.0
2341,63.0,0.0,180.0,0.0,64.0
2342,73.0,0.0,780.0,0.0,64.0
2343,64.0,0.0,780.0,0.0,64.0
2344,49.0,192.0,180.0,0.0,64.0
2345,52.0,192.0,180.0,0.0,64.0
2346,56.0,192.0,180.0,0.0,64.0
2347,59.0,192.0,180.0,0.0,64.0
2348,58.0,192.0,180.0,0.0,64.0
2349,65.0,192.0,780.0,0.0,64.0
2350,74.0,0.0,780.0,0.0,64.0
2351,56.0,192.0,180.0,0.0,64.0
2352,54.0,192.0,180.0,0.0,64.0
2353,53.0,0.0,180.0,0.0,64.0
2354,75.0,0.0,180.0,0.0,64.0
2355,67.0,0.0,1530.0,0.0,64.0
2356,51.0,192.0,180.0,0.0,64.0
2357,73.0,192.0,180.0,0.0,64.0
2358,58.0,0.0,180.0,0.0,64.0
2359,59.0,192.0,180.0,0.0,64.0
2360,75.0,0.0,180.0,0.0,64.0
2361,76.0,0.0,180.0,0.0,64.0
2362,61.0,192.0,180.0,0.0,64.0
2363,75.0,192.0,180.0,0.0,64.0
2364,59.0,0.0,180.0,0.0,64.0
2365,39.0,384.0,780.0,0.0,64.0
2366,58.0,0.0,180.0,0.0,64.0
2367,73.0,192.0,180.0,0.0,64.0
2368,63.0,192.0,180.0,0.0,64.0
2369,71.0,0.0,180.0,0.0,64.0
2370,61.0,0.0,180.0,0.0,64.0
2371,70.0,0.0,180.0,0.0,64.0
2372,40.0,192.0,780.0,0.0,64.0
2373,66.0,192.0,180.0,0.0,64.0
2374,64.0,192.0,180.0,0.0,64.0
2375,63.0,0.0,180.0,0.0,64.0
2376,61.0,192.0,960.0,0.0,64.0
2377,41.0,0.0,780.0,0.0,64.0
2378,59.0,0.0,15.0,0.0,64.0
2379,68.0,192.0,15.0,0.0,64.0
2380,58.0,0.0,180.0,0.0,64.0
2381,73.0,192.0,180.0,0.0,64.0
2382,71.0,192.0,180.0,0.0,64.0
2383,56.0,0.0,180.0,0.0,64.0
2384,42.0,192.0,780.0,0.0,64.0
2385,54.0,192.0,390.0,0.0,64.0
2386,61.0,0.0,180.0,0.0,64.0
2387,66.0,192.0,180.0,0.0,64.0
2388,61.0,0.0,570.0,0.0,64.0
2389,64.0,0.0,180.0,0.0,64.0
2390,63.0,0.0,780.0,0.0,64.0
2391,43.0,0.0,780.0,0.0,64.0
2392,70.0,192.0,15.0,0.0,64.0
2393,61.0,192.0,180.0,0.0,64.0
2394,75.0,192.0,180.0,0.0,64.0
2395,59.0,0.0,180.0,0.0,64.0
2396,73.0,0.0,180.0,0.0,64.0
2397,58.0,192.0,180.0,0.0,64.0
2398,71.0,192.0,180.0,0.0,64.0
2399,44.0,96.0,1740.0,0.0,64.0
2400,56.0,0.0,180.0,0.0,64.0
2401,59.0,0.0,180.0,0.0,64.0
2402,75.0,192.0,180.0,0.0,64.0
2403,63.0,0.0,15.0,0.0,64.0
2404,67.0,192.0,180.0,0.0,64.0
2405,58.0,0.0,180.0,0.0,64.0
2406,61.0,0.0,180.0,0.0,64.0
2407,70.0,192.0,180.0,0.0,64.0
2408,59.0,192.0,180.0,0.0,64.0
2409,68.0,0.0,180.0,0.0,64.0
2410,71.0,0.0,180.0,0.0,64.0
2411,70.0,0.0,180.0,0.0,64.0
2412,63.0,0.0,15.0,0.0,64.0
2413,55.0,192.0,180.0,0.0,64.0
2414,58.0,96.0,180.0,0.0,64.0
2415,73.0,0.0,180.0,0.0,64.0
2416,37.0,0.0,90.0,0.0,64.0
2417,73.0,96.0,90.0,0.0,64.0
2418,64.0,0.0,90.0,0.0,64.0
2419,35.0,0.0,90.0,0.0,64.0
2420,71.0,0.0,90.0,0.0,64.0
2421,63.0,0.0,90.0,0.0,64.0
2422,37.0,96.0,90.0,0.0,64.0
2423,73.0,0.0,90.0,0.0,64.0
2424,47.0,0.0,180.0,0.0,64.0
2425,64.0,0.0,90.0,0.0,64.0
2426,63.0,96.0,90.0,0.0,64.0
2427,35.0,0.0,90.0,0.0,64.0
2428,71.0,0.0,90.0,0.0,64.0
2429,37.0,96.0,90.0,0.0,64.0
2430,46.0,0.0,180.0,0.0,64.0
2431,64.0,0.0,90.0,0.0,64.0
2432,73.0,0.0,90.0,0.0,64.0
2433,63.0,0.0,90.0,0.0,64.0
2434,71.0,0.0,90.0,0.0,64.0
2435,35.0,96.0,90.0,0.0,64.0
2436,73.0,0.0,90.0,0.0,64.0
2437,49.0,0.0,180.0,0.0,64.0
2438,64.0,96.0,90.0,0.0,64.0
2439,37.0,0.0,90.0,0.0,64.0
2440,71.0,0.0,90.0,0.0,64.0
2441,63.0,0.0,90.0,0.0,64.0
2442,35.0,96.0,90.0,0.0,64.0
2443,47.0,0.0,180.0,0.0,64.0
2444,64.0,96.0,90.0,0.0,64.0
2445,73.0,0.0,90.0,0.0,64.0
2446,37.0,0.0,90.0,0.0,64.0
2447,35.0,0.0,90.0,0.0,64.0
2448,63.0,96.0,90.0,0.0,64.0
2449,71.0,0.0,90.0,0.0,64.0
2450,64.0,0.0,90.0,0.0,64.0
2451,37.0,0.0,90.0,0.0,64.0
2452,51.0,0.0,180.0,0.0,64.0
2453,73.0,96.0,90.0,0.0,64.0
2454,71.0,96.0,90.0,0.0,64.0
2455,35.0,0.0,90.0,0.0,64.0
2456,63.0,0.0,90.0,0.0,64.0
2457,37.0,0.0,90.0,0.0,64.0
2458,73.0,96.0,90.0,0.0,64.0
2459,64.0,0.0,90.0,0.0,64.0
2460,43.0,0.0,180.0,0.0,64.0
2461,71.0,0.0,90.0,0.0,64.0
2462,63.0,0.0,90.0,0.0,64.0
2463,35.0,96.0,90.0,0.0,64.0
2464,37.0,0.0,90.0,0.0,64.0
2465,73.0,96.0,90.0,0.0,64.0
2466,46.0,96.0,180.0,0.0,64.0
2467,64.0,0.0,90.0,0.0,64.0
2468,35.0,0.0,90.0,0.0,64.0
2469,71.0,0.0,90.0,0.0,64.0
2470,63.0,0.0,90.0,0.0,64.0
2471,73.0,96.0,90.0,0.0,64.0
2472,64.0,0.0,90.0,0.0,64.0
2473,37.0,0.0,90.0,0.0,64.0
2474,44.0,0.0,180.0,0.0,64.0
2475,35.0,0.0,90.0,0.0,64.0
2476,71.0,0.0,90.0,0.0,64.0
2477,63.0,96.0,90.0,0.0,64.0
2478,37.0,96.0,90.0,0.0,64.0
2479,73.0,0.0,90.0,0.0,64.0
2480,64.0,0.0,90.0,0.0,64.0
2481,47.0,0.0,180.0,0.0,64.0
2482,71.0,96.0,90.0,0.0,64.0
2483,63.0,0.0,90.0,0.0,64.0
2484,35.0,0.0,90.0,0.0,64.0
2485,73.0,0.0,90.0,0.0,64.0
2486,43.0,0.0,180.0,0.0,64.0
2487,37.0,96.0,90.0,0.0,64.0
2488,64.0,0.0,90.0,0.0,64.0
2489,63.0,0.0,90.0,0.0,64.0
2490,71.0,96.0,90.0,0.0,64.0
2491,35.0,0.0,90.0,0.0,64.0
2492,64.0,96.0,90.0,0.0,64.0
2493,73.0,0.0,90.0,0.0,64.0
2494,37.0,0.0,90.0,0.0,64.0
2495,46.0,0.0,180.0,0.0,64.0
2496,35.0,0.0,90.0,0.0,64.0
2497,71.0,0.0,90.0,0.0,64.0
2498,63.0,96.0,90.0,0.0,64.0
2499,44.0,0.0,180.0,0.0,64.0
2500,73.0,0.0,90.0,0.0,64.0
2501,37.0,0.0,90.0,0.0,64.0
2502,64.0,96.0,90.0,0.0,64.0
2503,35.0,96.0,90.0,0.0,64.0
2504,71.0,0.0,90.0,0.0,64.0
2505,63.0,0.0,90.0,0.0,64.0
2506,47.0,0.0,180.0,0.0,64.0
2507,37.0,96.0,90.0,0.0,64.0
2508,64.0,0.0,90.0,0.0,64.0
2509,73.0,0.0,90.0,0.0,64.0
2510,71.0,96.0,90.0,0.0,64.0
2511,35.0,0.0,90.0,0.0,64.0
2512,63.0,0.0,90.0,0.0,64.0
2513,39.0,0.0,180.0,0.0,64.0
2514,73.0,96.0,90.0,0.0,64.0
2515,64.0,0.0,90.0,0.0,64.0
2516,37.0,0.0,90.0,0.0,64.0
2517,35.0,0.0,90.0,0.0,64.0
2518,71.0,96.0,90.0,0.0,64.0
2519,63.0,0.0,90.0,0.0,64.0
2520,37.0,96.0,90.0,0.0,64.0
2521,42.0,192.0,180.0,0.0,64.0
2522,73.0,0.0,90.0,0.0,64.0
2523,64.0,0.0,90.0,0.0,64.0
2524,71.0,192.0,300.0,0.0,64.0
2525,63.0,0.0,90.0,0.0,64.0
2526,35.0,0.0,1620.0,0.0,64.0
2527,61.0,0.0,780.0,0.0,64.0
2528,40.0,0.0,1530.0,0.0,64.0
2529,70.0,192.0,180.0,0.0,64.0
2530,73.0,192.0,180.0,0.0,64.0
2531,71.0,192.0,180.0,0.0,64.0
2532,70.0,192.0,180.0,0.0,64.0
2533,62.0,192.0,780.0,0.0,64.0
2534,68.0,192.0,180.0,0.0,64.0
2535,67.0,192.0,180.0,0.0,64.0
2536,58.0,0.0,780.0,0.0,64.0
2537,39.0,192.0,180.0,0.0,64.0
2538,68.0,0.0,15.0,0.0,64.0
2539,63.0,192.0,780.0,0.0,64.0
2540,51.0,0.0,180.0,0.0,64.0
2541,49.0,192.0,180.0,0.0,64.0
2542,67.0,0.0,390.0,0.0,64.0
2543,51.0,0.0,180.0,0.0,64.0
2544,47.0,192.0,180.0,0.0,64.0
2545,49.0,192.0,180.0,0.0,64.0
2546,63.0,0.0,180.0,0.0,64.0
2547,61.0,0.0,180.0,0.0,64.0
2548,46.0,192.0,180.0,0.0,64.0
2549,63.0,0.0,180.0,0.0,64.0
2550,47.0,192.0,180.0,0.0,64.0
2551,44.0,0.0,390.0,0.0,64.0
2552,59.0,192.0,180.0,0.0,64.0
2553,68.0,0.0,390.0,0.0,64.0
2554,56.0,192.0,180.0,0.0,64.0
2555,49.0,192.0,390.0,0.0,64.0
2556,68.0,0.0,390.0,0.0,64.0
2557,58.0,192.0,180.0,0.0,64.0
2558,59.0,0.0,180.0,0.0,64.0
2559,61.0,192.0,180.0,0.0,64.0
2560,47.0,0.0,390.0,0.0,64.0
2561,63.0,192.0,180.0,0.0,64.0
2562,68.0,0.0,15.0,0.0,64.0
2563,46.0,0.0,390.0,0.0,64.0
2564,65.0,192.0,180.0,0.0,64.0
2565,67.0,192.0,180.0,0.0,64.0
2566,70.0,0.0,180.0,0.0,64.0
2567,44.0,0.0,960.0,0.0,64.0
2568,68.0,192.0,180.0,0.0,64.0
2569,71.0,192.0,960.0,0.0,64.0
2570,63.0,192.0,180.0,0.0,64.0
2571,59.0,192.0,180.0,0.0,64.0
2572,63.0,192.0,180.0,0.0,64.0
2573,56.0,192.0,960.0,0.0,64.0
2574,53.0,0.0,180.0,0.0,64.0
2575,68.0,192.0,180.0,0.0,64.0
2576,50.0,192.0,180.0,0.0,64.0
2577,65.0,0.0,180.0,0.0,64.0
2578,53.0,0.0,180.0,0.0,64.0
2579,68.0,192.0,180.0,0.0,64.0
2580,46.0,0.0,390.0,0.0,64.0
2581,62.0,192.0,390.0,0.0,64.0
2582,54.0,0.0,180.0,0.0,64.0
2583,71.0,192.0,390.0,0.0,64.0
2584,53.0,192.0,180.0,0.0,64.0
2585,44.0,0.0,390.0,0.0,64.0
2586,56.0,0.0,180.0,0.0,64.0
2587,46.0,192.0,390.0,0.0,64.0
2588,54.0,192.0,180.0,0.0,64.0
2589,70.0,0.0,390.0,0.0,64.0
2590,53.0,0.0,180.0,0.0,64.0
2591,68.0,192.0,390.0,0.0,64.0
2592,51.0,192.0,180.0,0.0,64.0
2593,34.0,0.0,390.0,0.0,64.0
2594,50.0,0.0,180.0,0.0,64.0
2595,39.0,0.0,780.0,0.0,64.0
2596,66.0,0.0,390.0,0.0,64.0
2597,51.0,192.0,180.0,0.0,64.0
2598,54.0,192.0,180.0,0.0,64.0
2599,65.0,0.0,180.0,0.0,64.0
2600,56.0,192.0,180.0,0.0,64.0
2601,58.0,192.0,180.0,0.0,64.0
2602,66.0,0.0,180.0,0.0,64.0
2603,63.0,192.0,180.0,0.0,64.0
2604,59.0,192.0,960.0,0.0,64.0
2605,75.0,192.0,180.0,0.0,64.0
2606,73.0,192.0,180.0,0.0,64.0
2607,44.0,0.0,390.0,0.0,64.0
2608,75.0,192.0,180.0,0.0,64.0
2609,37.0,0.0,780.0,0.0,64.0
2610,64.0,192.0,390.0,0.0,64.0
2611,58.0,0.0,180.0,0.0,64.0
2612,75.0,0.0,390.0,0.0,64.0
2613,56.0,192.0,180.0,0.0,64.0
2614,59.0,192.0,180.0,0.0,64.0
2615,58.0,192.0,180.0,0.0,64.0
2616,73.0,192.0,390.0,0.0,64.0
2617,56.0,0.0,180.0,0.0,64.0
2618,55.0,192.0,180.0,0.0,64.0
2619,70.0,192.0,390.0,0.0,64.0
2620,37.0,0.0,390.0,0.0,64.0
2621,53.0,0.0,180.0,0.0,64.0
2622,39.0,0.0,780.0,0.0,64.0
2623,55.0,192.0,180.0,0.0,64.0
2624,63.0,0.0,390.0,0.0,64.0
2625,51.0,192.0,180.0,0.0,64.0
2626,73.0,192.0,390.0,0.0,64.0
2627,53.0,192.0,180.0,0.0,64.0
2628,55.0,0.0,180.0,0.0,64.0
2629,71.0,192.0,390.0,0.0,64.0
2630,56.0,192.0,180.0,0.0,64.0
2631,58.0,0.0,180.0,0.0,64.0
2632,68.0,192.0,570.0,0.0,64.0
2633,59.0,192.0,180.0,0.0,64.0
2634,44.0,0.0,390.0,0.0,64.0
2635,61.0,192.0,180.0,0.0,64.0
2636,59.0,0.0,180.0,0.0,64.0
2637,51.0,0.0,390.0,0.0,64.0
2638,71.0,0.0,180.0,0.0,64.0
2639,56.0,192.0,180.0,0.0,64.0
2640,70.0,192.0,180.0,0.0,64.0
2641,58.0,0.0,180.0,0.0,64.0
2642,68.0,0.0,180.0,0.0,64.0
2643,59.0,0.0,180.0,0.0,64.0
2644,67.0,0.0,180.0,0.0,64.0
2645,58.0,192.0,180.0,0.0,64.0
2646,51.0,192.0,15.0,0.0,64.0
2647,65.0,0.0,180.0,0.0,64.0
2648,61.0,0.0,180.0,0.0,64.0
2649,63.0,192.0,180.0,0.0,64.0
2650,59.0,0.0,180.0,0.0,64.0
2651,51.0,192.0,390.0,0.0,64.0
2652,58.0,0.0,180.0,0.0,64.0
2653,61.0,0.0,180.0,0.0,64.0
2654,56.0,192.0,180.0,0.0,64.0
2655,52.0,192.0,960.0,0.0,64.0
2656,58.0,0.0,180.0,0.0,64.0
2657,68.0,0.0,780.0,0.0,64.0
2658,59.0,192.0,15.0,0.0,64.0
2659,56.0,192.0,180.0,0.0,64.0
2660,61.0,192.0,960.0,0.0,64.0
2661,49.0,192.0,180.0,0.0,64.0
2662,73.0,0.0,390.0,0.0,64.0
2663,46.0,192.0,180.0,0.0,64.0
2664,49.0,192.0,180.0,0.0,64.0
2665,43.0,192.0,390.0,0.0,64.0
2666,63.0,0.0,390.0,0.0,64.0
2667,59.0,0.0,180.0,0.0,64.0
2668,67.0,0.0,390.0,0.0,64.0
2669,58.0,192.0,180.0,0.0,64.0
2670,52.0,0.0,390.0,0.0,64.0
2671,61.0,192.0,180.0,0.0,64.0
2672,59.0,192.0,180.0,0.0,64.0
2673,68.0,0.0,390.0,0.0,64.0
2674,51.0,192.0,390.0,0.0,64.0
2675,61.0,0.0,180.0,0.0,64.0
2676,67.0,0.0,390.0,0.0,64.0
2677,58.0,192.0,180.0,0.0,64.0
2678,49.0,192.0,390.0,0.0,64.0
2679,59.0,0.0,180.0,0.0,64.0
2680,51.0,0.0,390.0,0.0,64.0
2681,47.0,0.0,390.0,0.0,64.0
2682,68.0,192.0,180.0,0.0,64.0
2683,75.0,192.0,180.0,0.0,64.0
2684,46.0,0.0,180.0,0.0,64.0
2685,73.0,192.0,180.0,0.0,64.0
2686,55.0,0.0,390.0,0.0,64.0
2687,75.0,0.0,180.0,0.0,64.0
2688,47.0,192.0,180.0,0.0,64.0
2689,56.0,192.0,390.0,0.0,64.0
2690,71.0,192.0,180.0,0.0,64.0
2691,44.0,0.0,180.0,0.0,64.0
2692,46.0,0.0,180.0,0.0,64.0
2693,73.0,0.0,180.0,0.0,64.0
2694,51.0,192.0,390.0,0.0,64.0
2695,42.0,192.0,180.0,0.0,64.0
2696,63.0,192.0,570.0,0.0,64.0
2697,70.0,0.0,180.0,0.0,64.0
2698,71.0,0.0,180.0,0.0,64.0
2699,44.0,0.0,180.0,0.0,64.0
2700,56.0,192.0,390.0,0.0,64.0
2701,41.0,0.0,1530.0,0.0,64.0
2702,68.0,192.0,1740.0,0.0,64.0
2703,66.0,0.0,180.0,0.0,64.0
2704,65.0,192.0,180.0,0.0,64.0
2705,63.0,0.0,180.0,0.0,64.0
2706,62.0,192.0,180.0,0.0,64.0
2707,56.0,192.0,15.0,0.0,64.0
2708,63.0,0.0,180.0,0.0,64.0
2709,56.0,192.0,390.0,0.0,64.0
2710,60.0,192.0,180.0,0.0,64.0
2711,62.0,0.0,180.0,0.0,64.0
2712,59.0,192.0,960.0,0.0,64.0
2713,39.0,0.0,180.0,0.0,64.0
2714,63.0,192.0,1140.0,0.0,64.0
2715,51.0,0.0,180.0,0.0,64.0
2716,67.0,192.0,180.0,0.0,64.0
2717,47.0,0.0,180.0,0.0,64.0
2718,68.0,192.0,180.0,0.0,64.0
2719,51.0,0.0,180.0,0.0,64.0
2720,70.0,192.0,180.0,0.0,64.0
2721,44.0,192.0,960.0,0.0,64.0
2722,71.0,192.0,1140.0,0.0,64.0
2723,56.0,0.0,180.0,0.0,64.0
2724,68.0,0.0,390.0,0.0,64.0
2725,53.0,192.0,180.0,0.0,64.0
2726,56.0,192.0,180.0,0.0,64.0
2727,65.0,192.0,960.0,0.0,64.0
2728,50.0,0.0,390.0,0.0,64.0
2729,56.0,0.0,180.0,0.0,64.0
2730,59.0,0.0,390.0,0.0,64.0
2731,68.0,192.0,390.0,0.0,64.0
2732,53.0,192.0,180.0,0.0,64.0
2733,56.0,0.0,180.0,0.0,64.0
2734,77.0,192.0,960.0,0.0,64.0
2735,50.0,192.0,780.0,0.0,64.0
2736,58.0,0.0,390.0,0.0,64.0
2737,68.0,192.0,180.0,0.0,64.0
2738,56.0,0.0,390.0,0.0,64.0
2739,70.0,192.0,180.0,0.0,64.0
2740,71.0,0.0,180.0,0.0,64.0
2741,54.0,0.0,390.0,0.0,64.0
2742,75.0,192.0,180.0,0.0,64.0
2743,53.0,0.0,180.0,0.0,64.0
2744,74.0,192.0,180.0,0.0,64.0
2745,75.0,192.0,180.0,0.0,64.0
2746,54.0,0.0,180.0,0.0,64.0
2747,78.0,192.0,960.0,0.0,64.0
2748,51.0,192.0,15.0,0.0,64.0
2749,70.0,0.0,15.0,0.0,64.0
2750,61.0,0.0,390.0,0.0,64.0
2751,46.0,192.0,180.0,0.0,64.0
2752,49.0,192.0,180.0,0.0,64.0
2753,68.0,0.0,780.0,0.0,64.0
2754,48.0,192.0,390.0,0.0,64.0
2755,63.0,192.0,780.0,0.0,64.0
2756,73.0,0.0,180.0,0.0,64.0
2757,72.0,192.0,180.0,0.0,64.0
2758,51.0,0.0,390.0,0.0,64.0
2759,70.0,0.0,180.0,0.0,64.0
2760,44.0,192.0,390.0,0.0,64.0
2761,72.0,192.0,180.0,0.0,64.0
2762,75.0,192.0,780.0,0.0,64.0
2763,63.0,192.0,390.0,0.0,64.0
2764,48.0,0.0,390.0,0.0,64.0
2765,68.0,192.0,180.0,0.0,64.0
2766,66.0,0.0,180.0,0.0,64.0
2767,64.0,0.0,390.0,0.0,64.0
2768,56.0,0.0,180.0,0.0,64.0
2769,49.0,192.0,960.0,0.0,64.0
2770,54.0,192.0,180.0,0.0,64.0
2771,68.0,0.0,180.0,0.0,64.0
2772,52.0,192.0,180.0,0.0,64.0
2773,73.0,0.0,180.0,0.0,64.0
2774,56.0,0.0,180.0,0.0,64.0
2775,75.0,192.0,180.0,0.0,64.0
2776,76.0,192.0,960.0,0.0,64.0
2777,51.0,0.0,390.0,0.0,64.0
2778,49.0,192.0,180.0,0.0,64.0
2779,59.0,192.0,390.0,0.0,64.0
2780,44.0,192.0,180.0,0.0,64.0
2781,68.0,0.0,390.0,0.0,64.0
2782,47.0,0.0,180.0,0.0,64.0
2783,46.0,0.0,390.0,0.0,64.0
2784,61.0,192.0,780.0,0.0,64.0
2785,66.0,0.0,780.0,0.0,64.0
2786,71.0,192.0,180.0,0.0,64.0
2787,49.0,0.0,390.0,0.0,64.0
2788,70.0,192.0,180.0,0.0,64.0
2789,68.0,0.0,180.0,0.0,64.0
2790,70.0,192.0,180.0,0.0,64.0
2791,42.0,192.0,390.0,0.0,64.0
2792,73.0,192.0,780.0,0.0,64.0
2793,61.0,0.0,390.0,0.0,64.0
2794,46.0,0.0,390.0,0.0,64.0
2795,66.0,192.0,180.0,0.0,64.0
2796,64.0,192.0,180.0,0.0,64.0
2797,63.0,0.0,390.0,0.0,64.0
2798,54.0,0.0,180.0,0.0,64.0
2799,52.0,0.0,180.0,0.0,64.0
2800,66.0,192.0,180.0,0.0,64.0
2801,71.0,192.0,180.0,0.0,64.0
2802,51.0,0.0,180.0,0.0,64.0
2803,73.0,192.0,180.0,0.0,64.0
2804,54.0,0.0,180.0,0.0,64.0
2805,75.0,0.0,960.0,0.0,64.0
2806,47.0,192.0,15.0,0.0,64.0
2807,59.0,0.0,390.0,0.0,64.0
2808,44.0,192.0,180.0,0.0,64.0
2809,47.0,192.0,180.0,0.0,64.0
2810,56.0,192.0,180.0,0.0,64.0
2811,40.0,0.0,1530.0,0.0,64.0
2812,68.0,0.0,180.0,0.0,64.0
2813,59.0,192.0,180.0,0.0,64.0
2814,70.0,0.0,180.0,0.0,64.0
2815,61.0,192.0,180.0,0.0,64.0
2816,71.0,192.0,180.0,0.0,64.0
2817,63.0,0.0,180.0,0.0,64.0
2818,73.0,192.0,960.0,0.0,64.0
2819,61.0,192.0,180.0,0.0,64.0
2820,59.0,192.0,180.0,0.0,64.0
2821,58.0,192.0,180.0,0.0,64.0
2822,56.0,192.0,180.0,0.0,64.0
2823,39.0,384.0,6150.0,0.0,64.0
2824,55.0,0.0,180.0,0.0,64.0
2825,61.0,192.0,180.0,0.0,64.0
2826,63.0,0.0,180.0,0.0,64.0
2827,65.0,0.0,180.0,0.0,64.0
2828,59.0,192.0,180.0,0.0,64.0
2829,67.0,0.0,180.0,0.0,64.0
2830,58.0,192.0,180.0,0.0,64.0
2831,68.0,192.0,180.0,0.0,64.0
2832,59.0,192.0,390.0,0.0,64.0
2833,70.0,0.0,180.0,0.0,64.0
2834,53.0,192.0,390.0,0.0,64.0
2835,56.0,0.0,390.0,0.0,64.0
2836,71.0,192.0,180.0,0.0,64.0
2837,62.0,0.0,180.0,0.0,64.0
2838,55.0,192.0,180.0,0.0,64.0
2839,61.0,192.0,180.0,0.0,64.0
2840,70.0,0.0,180.0,0.0,64.0
2841,68.0,192.0,180.0,0.0,64.0
2842,63.0,0.0,15.0,0.0,64.0
2843,59.0,0.0,180.0,0.0,64.0
2844,67.0,0.0,180.0,0.0,64.0
2845,58.0,192.0,180.0,0.0,64.0
2846,68.0,0.0,180.0,0.0,64.0
2847,63.0,0.0,390.0,0.0,64.0
2848,59.0,192.0,180.0,0.0,64.0
2849,58.0,0.0,180.0,0.0,64.0
2850,67.0,192.0,180.0,0.0,64.0
2851,63.0,192.0,390.0,0.0,64.0
2852,68.0,192.0,180.0,0.0,64.0
2853,59.0,0.0,180.0,0.0,64.0
2854,56.0,0.0,180.0,0.0,64.0
2855,71.0,192.0,390.0,0.0,64.0
2856,61.0,0.0,780.0,0.0,64.0
2857,64.0,192.0,960.0,0.0,64.0
2858,70.0,192.0,180.0,0.0,64.0
2859,71.0,192.0,180.0,0.0,64.0
2860,68.0,192.0,180.0,0.0,64.0
2861,70.0,192.0,960.0,0.0,64.0
2862,61.0,192.0,180.0,0.0,64.0
2863,58.0,192.0,180.0,0.0,64.0
2864,61.0,192.0,180.0,0.0,64.0
2865,55.0,192.0,390.0,0.0,64.0
2866,64.0,192.0,390.0,0.0,64.0
2867,73.0,192.0,15.0,0.0,64.0
2868,63.0,192.0,390.0,0.0,64.0
2869,71.0,192.0,390.0,0.0,64.0
2870,61.0,0.0,390.0,0.0,64.0
2871,70.0,0.0,180.0,0.0,64.0
2872,59.0,192.0,390.0,0.0,64.0
2873,68.0,0.0,390.0,0.0,64.0
2874,51.0,0.0,390.0,0.0,64.0
2875,56.0,0.0,390.0,0.0,64.0
2876,44.0,0.0,390.0,0.0,64.0
2877,58.0,192.0,180.0,0.0,64.0
2878,49.0,0.0,390.0,0.0,64.0
2879,76.0,0.0,390.0,0.0,64.0
2880,67.0,0.0,390.0,0.0,64.0
2881,46.0,0.0,390.0,0.0,64.0
2882,59.0,192.0,180.0,0.0,64.0
2883,68.0,0.0,390.0,0.0,64.0
2884,47.0,96.0,390.0,0.0,64.0
2885,75.0,0.0,390.0,0.0,64.0
2886,56.0,192.0,180.0,0.0,64.0
2887,51.0,0.0,390.0,0.0,64.0
2888,59.0,0.0,180.0,0.0,64.0
2889,49.0,384.0,390.0,0.0,64.0
2890,58.0,0.0,390.0,0.0,64.0
2891,52.0,0.0,390.0,0.0,64.0
2892,73.0,96.0,90.0,0.0,64.0
2893,71.0,192.0,90.0,0.0,64.0
2894,70.0,0.0,180.0,0.0,64.0
2895,68.0,0.0,15.0,0.0,64.0
2896,51.0,0.0,780.0,0.0,64.0
2897,59.0,384.0,390.0,0.0,64.0
2898,63.0,192.0,390.0,0.0,64.0
2899,71.0,0.0,390.0,0.0,64.0
2900,67.0,0.0,180.0,0.0,64.0
2901,61.0,0.0,180.0,0.0,64.0
2902,39.0,0.0,780.0,0.0,64.0
2903,70.0,192.0,180.0,0.0,64.0
2904,68.0,0.0,180.0,0.0,64.0
2905,65.0,384.0,180.0,0.0,64.0
2906,59.0,0.0,180.0,0.0,64.0
2907,67.0,0.0,390.0,0.0,64.0
2908,63.0,0.0,390.0,0.0,64.0
2909,32.0,384.0,1140.0,0.0,64.0
2910,70.0,0.0,15.0,0.0,64.0
2911,61.0,768.0,15.0,0.0,64.0
2912,51.0,0.0,1140.0,0.0,64.0
2913,67.0,0.0,780.0,0.0,64.0
2914,63.0,0.0,780.0,0.0,64.0
2915,68.0,0.0,390.0,0.0,64.0
2916,59.0,0.0,390.0,0.0,64.0
