,note,step,duration,channel,velocity
0,69.0,240.0,120.0,0.0,64.0
1,73.0,240.0,120.0,0.0,64.0
2,69.0,0.0,120.0,0.0,64.0
3,57.0,240.0,120.0,1.0,64.0
4,76.0,240.0,120.0,0.0,64.0
5,61.0,0.0,120.0,1.0,64.0
6,57.0,240.0,120.0,1.0,64.0
7,69.0,0.0,120.0,0.0,64.0
8,64.0,0.0,120.0,1.0,64.0
9,81.0,240.0,120.0,0.0,64.0
10,80.0,0.0,120.0,0.0,64.0
11,45.0,120.0,120.0,2.0,64.0
12,57.0,0.0,120.0,1.0,64.0
13,78.0,120.0,120.0,0.0,64.0
14,49.0,0.0,120.0,2.0,64.0
15,69.0,120.0,120.0,1.0,64.0
16,76.0,0.0,120.0,0.0,64.0
17,78.0,120.0,120.0,0.0,64.0
18,45.0,120.0,120.0,2.0,64.0
19,76.0,0.0,120.0,0.0,64.0
20,68.0,0.0,120.0,1.0,64.0
21,74.0,0.0,120.0,0.0,64.0
22,66.0,120.0,120.0,1.0,64.0
23,64.0,0.0,120.0,1.0,64.0
24,73.0,120.0,120.0,0.0,64.0
25,52.0,0.0,120.0,2.0,64.0
26,66.0,0.0,120.0,1.0,64.0
27,74.0,120.0,120.0,0.0,64.0
28,45.0,120.0,120.0,2.0,64.0
29,73.0,0.0,120.0,0.0,64.0
30,64.0,0.0,120.0,1.0,64.0
31,71.0,120.0,120.0,0.0,64.0
32,62.0,0.0,120.0,1.0,64.0
33,61.0,120.0,240.0,1.0,64.0
34,57.0,120.0,120.0,2.0,64.0
35,69.0,0.0,240.0,0.0,64.0
36,64.0,120.0,120.0,1.0,64.0
37,56.0,0.0,120.0,2.0,64.0
38,73.0,0.0,120.0,0.0,64.0
39,54.0,120.0,120.0,2.0,64.0
40,76.0,0.0,120.0,0.0,64.0
41,52.0,120.0,120.0,2.0,64.0
42,61.0,0.0,120.0,1.0,64.0
43,54.0,120.0,120.0,2.0,64.0
44,52.0,120.0,120.0,2.0,64.0
45,69.0,0.0,240.0,1.0,64.0
46,73.0,0.0,120.0,0.0,64.0
47,50.0,120.0,120.0,2.0,64.0
48,49.0,0.0,120.0,2.0,64.0
49,81.0,120.0,120.0,0.0,64.0
50,64.0,0.0,120.0,1.0,64.0
51,50.0,120.0,120.0,2.0,64.0
52,76.0,0.0,120.0,0.0,64.0
53,49.0,0.0,120.0,2.0,64.0
54,69.0,120.0,120.0,1.0,64.0
55,68.0,0.0,120.0,1.0,64.0
56,47.0,120.0,120.0,2.0,64.0
57,69.0,120.0,120.0,1.0,64.0
58,85.0,0.0,120.0,0.0,64.0
59,45.0,0.0,120.0,2.0,64.0
60,73.0,120.0,120.0,1.0,64.0
61,88.0,0.0,120.0,0.0,64.0
62,86.0,0.0,120.0,0.0,64.0
63,71.0,0.0,120.0,1.0,64.0
64,49.0,120.0,120.0,2.0,64.0
65,88.0,0.0,120.0,0.0,64.0
66,73.0,120.0,120.0,1.0,64.0
67,85.0,0.0,120.0,0.0,64.0
68,69.0,120.0,120.0,1.0,64.0
69,52.0,0.0,120.0,2.0,64.0
70,88.0,0.0,120.0,0.0,64.0
71,73.0,120.0,120.0,1.0,64.0
72,49.0,120.0,120.0,2.0,64.0
73,86.0,0.0,120.0,0.0,64.0
74,71.0,0.0,120.0,1.0,64.0
75,73.0,120.0,120.0,1.0,64.0
76,88.0,0.0,120.0,0.0,64.0
77,85.0,0.0,120.0,0.0,64.0
78,57.0,0.0,120.0,2.0,64.0
79,69.0,120.0,120.0,1.0,64.0
80,88.0,0.0,120.0,0.0,64.0
81,73.0,120.0,120.0,1.0,64.0
82,86.0,0.0,120.0,0.0,64.0
83,71.0,0.0,120.0,1.0,64.0
84,52.0,120.0,120.0,2.0,64.0
85,73.0,0.0,120.0,1.0,64.0
86,88.0,120.0,120.0,0.0,64.0
87,64.0,0.0,240.0,1.0,64.0
88,61.0,120.0,120.0,2.0,64.0
89,81.0,0.0,120.0,0.0,64.0
90,85.0,0.0,120.0,0.0,64.0
91,64.0,120.0,120.0,2.0,64.0
92,83.0,120.0,120.0,0.0,64.0
93,57.0,0.0,120.0,1.0,64.0
94,62.0,0.0,120.0,2.0,64.0
95,64.0,120.0,120.0,2.0,64.0
96,85.0,0.0,120.0,0.0,64.0
97,81.0,0.0,120.0,0.0,64.0
98,61.0,120.0,120.0,2.0,64.0
99,61.0,0.0,120.0,1.0,64.0
100,64.0,120.0,120.0,2.0,64.0
101,85.0,0.0,120.0,0.0,64.0
102,57.0,0.0,120.0,1.0,64.0
103,83.0,0.0,120.0,0.0,64.0
104,62.0,120.0,120.0,2.0,64.0
105,85.0,120.0,120.0,0.0,64.0
106,64.0,0.0,120.0,2.0,64.0
107,61.0,120.0,120.0,2.0,64.0
108,64.0,0.0,120.0,1.0,64.0
109,81.0,0.0,120.0,0.0,64.0
110,64.0,0.0,120.0,2.0,64.0
111,85.0,120.0,120.0,0.0,64.0
112,62.0,0.0,120.0,2.0,64.0
113,83.0,0.0,120.0,0.0,64.0
114,57.0,120.0,120.0,1.0,64.0
115,85.0,120.0,120.0,0.0,64.0
116,64.0,0.0,120.0,2.0,64.0
117,57.0,120.0,120.0,2.0,64.0
118,69.0,0.0,240.0,1.0,64.0
119,78.0,0.0,120.0,0.0,64.0
120,61.0,120.0,120.0,2.0,64.0
121,81.0,0.0,120.0,0.0,64.0
122,80.0,0.0,120.0,0.0,64.0
123,54.0,120.0,120.0,1.0,64.0
124,59.0,0.0,120.0,2.0,64.0
125,61.0,0.0,120.0,2.0,64.0
126,81.0,120.0,120.0,0.0,64.0
127,78.0,0.0,120.0,0.0,64.0
128,57.0,0.0,120.0,2.0,64.0
129,57.0,120.0,120.0,1.0,64.0
130,81.0,120.0,120.0,0.0,64.0
131,61.0,0.0,120.0,2.0,64.0
132,59.0,0.0,120.0,2.0,64.0
133,54.0,0.0,120.0,1.0,64.0
134,80.0,120.0,120.0,0.0,64.0
135,61.0,0.0,120.0,2.0,64.0
136,81.0,120.0,120.0,0.0,64.0
137,61.0,0.0,120.0,1.0,64.0
138,57.0,120.0,120.0,2.0,64.0
139,78.0,0.0,120.0,0.0,64.0
140,81.0,120.0,120.0,0.0,64.0
141,61.0,0.0,120.0,2.0,64.0
142,54.0,0.0,120.0,1.0,64.0
143,59.0,120.0,120.0,2.0,64.0
144,80.0,0.0,120.0,0.0,64.0
145,61.0,0.0,120.0,2.0,64.0
146,81.0,120.0,120.0,0.0,64.0
147,59.0,0.0,120.0,1.0,64.0
148,54.0,0.0,120.0,2.0,64.0
149,75.0,120.0,120.0,0.0,64.0
150,57.0,120.0,120.0,2.0,64.0
151,56.0,120.0,120.0,2.0,64.0
152,71.0,0.0,120.0,0.0,64.0
153,57.0,120.0,120.0,2.0,64.0
154,78.0,120.0,120.0,0.0,64.0
155,54.0,0.0,120.0,2.0,64.0
156,57.0,120.0,120.0,2.0,64.0
157,56.0,0.0,120.0,2.0,64.0
158,59.0,0.0,120.0,1.0,64.0
159,75.0,120.0,120.0,0.0,64.0
160,57.0,120.0,120.0,2.0,64.0
161,54.0,0.0,120.0,2.0,64.0
162,63.0,0.0,120.0,1.0,64.0
163,81.0,120.0,120.0,0.0,64.0
164,57.0,120.0,120.0,2.0,64.0
165,56.0,0.0,120.0,2.0,64.0
166,75.0,120.0,120.0,0.0,64.0
167,59.0,0.0,120.0,1.0,64.0
168,57.0,120.0,120.0,2.0,64.0
169,51.0,120.0,120.0,2.0,64.0
170,83.0,0.0,120.0,0.0,64.0
171,69.0,0.0,120.0,1.0,64.0
172,85.0,120.0,120.0,0.0,64.0
173,63.0,0.0,120.0,1.0,64.0
174,47.0,0.0,120.0,2.0,64.0
175,83.0,120.0,120.0,0.0,64.0
176,81.0,120.0,120.0,0.0,64.0
177,71.0,0.0,120.0,1.0,64.0
178,52.0,120.0,120.0,2.0,64.0
179,80.0,0.0,120.0,0.0,64.0
180,73.0,0.0,120.0,1.0,64.0
181,81.0,120.0,120.0,0.0,64.0
182,80.0,0.0,120.0,0.0,64.0
183,47.0,0.0,120.0,2.0,64.0
184,71.0,120.0,120.0,1.0,64.0
185,69.0,120.0,120.0,1.0,64.0
186,78.0,0.0,120.0,0.0,64.0
187,76.0,120.0,120.0,0.0,64.0
188,56.0,0.0,120.0,2.0,64.0
189,68.0,0.0,120.0,1.0,64.0
190,69.0,120.0,120.0,1.0,64.0
191,78.0,0.0,120.0,0.0,64.0
192,52.0,0.0,120.0,2.0,64.0
193,76.0,120.0,120.0,0.0,64.0
194,68.0,0.0,120.0,1.0,64.0
195,66.0,0.0,120.0,1.0,64.0
196,74.0,120.0,120.0,0.0,64.0
197,64.0,0.0,120.0,1.0,64.0
198,57.0,0.0,120.0,2.0,64.0
199,73.0,120.0,120.0,0.0,64.0
200,59.0,120.0,120.0,2.0,64.0
201,61.0,0.0,120.0,1.0,64.0
202,78.0,120.0,120.0,0.0,64.0
203,57.0,0.0,120.0,2.0,64.0
204,56.0,120.0,120.0,2.0,64.0
205,76.0,0.0,120.0,0.0,64.0
206,75.0,0.0,120.0,0.0,64.0
207,54.0,0.0,120.0,2.0,64.0
208,69.0,120.0,120.0,1.0,64.0
209,76.0,120.0,120.0,0.0,64.0
210,56.0,0.0,120.0,2.0,64.0
211,57.0,0.0,120.0,1.0,64.0
212,54.0,120.0,120.0,2.0,64.0
213,75.0,0.0,120.0,0.0,64.0
214,73.0,0.0,120.0,0.0,64.0
215,52.0,120.0,120.0,2.0,64.0
216,71.0,0.0,120.0,0.0,64.0
217,66.0,120.0,120.0,1.0,64.0
218,51.0,0.0,120.0,2.0,64.0
219,73.0,120.0,120.0,0.0,64.0
220,52.0,0.0,120.0,2.0,64.0
221,54.0,120.0,120.0,1.0,64.0
222,51.0,0.0,120.0,2.0,64.0
223,71.0,0.0,120.0,0.0,64.0
224,49.0,0.0,120.0,2.0,64.0
225,69.0,120.0,120.0,0.0,64.0
226,59.0,0.0,120.0,1.0,64.0
227,47.0,0.0,120.0,2.0,64.0
228,68.0,120.0,120.0,0.0,64.0
229,69.0,120.0,120.0,0.0,64.0
230,64.0,120.0,120.0,2.0,64.0
231,68.0,0.0,120.0,0.0,64.0
232,59.0,0.0,120.0,1.0,64.0
233,63.0,120.0,120.0,2.0,64.0
234,66.0,0.0,120.0,0.0,64.0
235,64.0,0.0,480.0,1.0,64.0
236,61.0,0.0,120.0,2.0,64.0
237,64.0,120.0,120.0,0.0,64.0
238,63.0,120.0,120.0,2.0,64.0
239,61.0,0.0,120.0,2.0,64.0
240,76.0,120.0,120.0,0.0,64.0
241,59.0,0.0,120.0,2.0,64.0
242,75.0,120.0,120.0,0.0,64.0
243,57.0,120.0,120.0,2.0,64.0
244,76.0,0.0,120.0,0.0,64.0
245,61.0,120.0,360.0,1.0,64.0
246,59.0,120.0,120.0,2.0,64.0
247,68.0,0.0,120.0,0.0,64.0
248,57.0,0.0,120.0,2.0,64.0
249,56.0,0.0,120.0,2.0,64.0
250,59.0,120.0,120.0,1.0,64.0
251,54.0,120.0,120.0,2.0,64.0
252,57.0,120.0,480.0,1.0,64.0
253,69.0,0.0,120.0,0.0,64.0
254,56.0,120.0,120.0,2.0,64.0
255,54.0,0.0,120.0,2.0,64.0
256,76.0,120.0,120.0,0.0,64.0
257,52.0,0.0,120.0,2.0,64.0
258,68.0,120.0,120.0,0.0,64.0
259,59.0,0.0,120.0,2.0,64.0
260,59.0,120.0,480.0,1.0,64.0
261,57.0,120.0,120.0,2.0,64.0
262,56.0,0.0,120.0,2.0,64.0
263,76.0,120.0,120.0,0.0,64.0
264,57.0,0.0,120.0,2.0,64.0
265,66.0,120.0,120.0,0.0,64.0
266,59.0,0.0,120.0,2.0,64.0
267,71.0,120.0,240.0,1.0,64.0
268,69.0,360.0,240.0,1.0,64.0
269,75.0,0.0,120.0,0.0,64.0
270,47.0,120.0,120.0,2.0,64.0
271,76.0,120.0,480.0,0.0,64.0
272,68.0,0.0,480.0,1.0,64.0
273,52.0,120.0,120.0,2.0,64.0
274,56.0,240.0,120.0,2.0,64.0
275,64.0,0.0,120.0,1.0,64.0
276,52.0,240.0,120.0,2.0,64.0
277,68.0,0.0,120.0,1.0,64.0
278,59.0,240.0,120.0,2.0,64.0
279,64.0,0.0,120.0,1.0,64.0
280,52.0,240.0,120.0,2.0,64.0
281,71.0,0.0,120.0,1.0,64.0
282,64.0,240.0,120.0,2.0,64.0
283,64.0,0.0,120.0,1.0,64.0
284,76.0,0.0,120.0,0.0,64.0
285,63.0,120.0,120.0,2.0,64.0
286,61.0,120.0,120.0,2.0,64.0
287,59.0,120.0,120.0,2.0,64.0
288,76.0,0.0,120.0,1.0,64.0
289,80.0,0.0,120.0,0.0,64.0
290,61.0,120.0,120.0,2.0,64.0
291,75.0,0.0,120.0,1.0,64.0
292,59.0,120.0,120.0,2.0,64.0
293,76.0,0.0,120.0,0.0,64.0
294,57.0,0.0,120.0,2.0,64.0
295,73.0,120.0,120.0,1.0,64.0
296,83.0,0.0,120.0,0.0,64.0
297,56.0,0.0,120.0,2.0,64.0
298,71.0,120.0,120.0,1.0,64.0
299,57.0,120.0,120.0,2.0,64.0
300,73.0,0.0,120.0,1.0,64.0
301,56.0,120.0,120.0,2.0,64.0
302,71.0,0.0,120.0,1.0,64.0
303,76.0,0.0,120.0,0.0,64.0
304,69.0,120.0,120.0,1.0,64.0
305,54.0,0.0,120.0,2.0,64.0
306,52.0,0.0,240.0,2.0,64.0
307,88.0,120.0,240.0,0.0,64.0
308,68.0,120.0,120.0,1.0,64.0
309,71.0,0.0,120.0,1.0,64.0
310,44.0,0.0,120.0,2.0,64.0
311,87.0,120.0,120.0,0.0,64.0
312,85.0,60.0,120.0,0.0,64.0
313,83.0,0.0,120.0,0.0,64.0
314,68.0,60.0,60.0,1.0,64.0
315,47.0,120.0,120.0,2.0,64.0
316,85.0,120.0,120.0,0.0,64.0
317,76.0,0.0,120.0,1.0,64.0
318,83.0,0.0,120.0,0.0,64.0
319,44.0,120.0,120.0,2.0,64.0
320,75.0,0.0,120.0,1.0,64.0
321,73.0,0.0,120.0,1.0,64.0
322,81.0,120.0,120.0,0.0,64.0
323,80.0,0.0,120.0,0.0,64.0
324,52.0,0.0,120.0,2.0,64.0
325,71.0,120.0,120.0,1.0,64.0
326,81.0,120.0,120.0,0.0,64.0
327,73.0,0.0,120.0,1.0,64.0
328,47.0,120.0,240.0,2.0,64.0
329,80.0,120.0,120.0,0.0,64.0
330,71.0,0.0,240.0,1.0,64.0
331,78.0,0.0,120.0,0.0,64.0
332,76.0,0.0,120.0,0.0,64.0
333,55.0,0.0,120.0,2.0,64.0
334,70.0,120.0,120.0,1.0,64.0
335,74.0,120.0,120.0,0.0,64.0
336,73.0,0.0,120.0,1.0,64.0
337,76.0,0.0,120.0,0.0,64.0
338,71.0,120.0,120.0,1.0,64.0
339,46.0,0.0,120.0,2.0,64.0
340,85.0,0.0,120.0,0.0,64.0
341,73.0,120.0,120.0,1.0,64.0
342,55.0,120.0,120.0,2.0,64.0
343,76.0,0.0,120.0,0.0,64.0
344,70.0,0.0,120.0,1.0,64.0
345,73.0,120.0,120.0,1.0,64.0
346,85.0,0.0,120.0,0.0,64.0
347,71.0,0.0,120.0,1.0,64.0
348,74.0,120.0,120.0,0.0,64.0
349,46.0,0.0,120.0,2.0,64.0
350,73.0,120.0,120.0,1.0,64.0
351,85.0,0.0,120.0,0.0,64.0
352,55.0,0.0,120.0,2.0,64.0
353,76.0,120.0,120.0,0.0,64.0
354,70.0,0.0,120.0,1.0,64.0
355,85.0,120.0,120.0,0.0,64.0
356,73.0,0.0,120.0,1.0,64.0
357,46.0,120.0,120.0,2.0,64.0
358,66.0,0.0,120.0,1.0,64.0
359,73.0,0.0,120.0,0.0,64.0
360,85.0,0.0,120.0,0.0,64.0
361,67.0,120.0,120.0,1.0,64.0
362,74.0,240.0,120.0,0.0,64.0
363,47.0,0.0,120.0,2.0,64.0
364,66.0,0.0,120.0,1.0,64.0
365,62.0,0.0,120.0,1.0,64.0
366,57.0,0.0,120.0,2.0,64.0
367,71.0,120.0,120.0,0.0,64.0
368,55.0,120.0,120.0,2.0,64.0
369,74.0,0.0,120.0,0.0,64.0
370,54.0,0.0,120.0,2.0,64.0
371,71.0,120.0,120.0,1.0,64.0
372,55.0,120.0,120.0,2.0,64.0
373,71.0,0.0,120.0,0.0,64.0
374,54.0,0.0,120.0,2.0,64.0
375,69.0,120.0,120.0,1.0,64.0
376,52.0,120.0,120.0,2.0,64.0
377,67.0,0.0,120.0,1.0,64.0
378,78.0,120.0,120.0,0.0,64.0
379,66.0,0.0,120.0,1.0,64.0
380,50.0,0.0,120.0,2.0,64.0
381,52.0,0.0,120.0,2.0,64.0
382,67.0,120.0,120.0,1.0,64.0
383,50.0,0.0,120.0,2.0,64.0
384,71.0,120.0,120.0,0.0,64.0
385,66.0,0.0,120.0,1.0,64.0
386,64.0,120.0,120.0,1.0,64.0
387,49.0,0.0,120.0,2.0,64.0
388,83.0,0.0,120.0,0.0,64.0
389,47.0,120.0,120.0,2.0,64.0
390,62.0,120.0,240.0,1.0,64.0
391,74.0,0.0,120.0,1.0,64.0
392,81.0,0.0,120.0,0.0,64.0
393,47.0,120.0,120.0,2.0,64.0
394,79.0,120.0,120.0,0.0,64.0
395,66.0,0.0,120.0,1.0,64.0
396,78.0,120.0,120.0,0.0,64.0
397,50.0,0.0,120.0,2.0,64.0
398,71.0,120.0,120.0,1.0,64.0
399,79.0,0.0,120.0,0.0,64.0
400,69.0,0.0,120.0,1.0,64.0
401,78.0,120.0,120.0,0.0,64.0
402,47.0,0.0,120.0,2.0,64.0
403,67.0,120.0,120.0,1.0,64.0
404,76.0,0.0,120.0,0.0,64.0
405,54.0,120.0,120.0,2.0,64.0
406,74.0,0.0,120.0,0.0,64.0
407,66.0,0.0,120.0,1.0,64.0
408,76.0,120.0,120.0,0.0,64.0
409,67.0,0.0,120.0,1.0,64.0
410,47.0,120.0,120.0,2.0,64.0
411,66.0,0.0,120.0,1.0,64.0
412,74.0,0.0,120.0,0.0,64.0
413,73.0,0.0,120.0,0.0,64.0
414,64.0,120.0,120.0,1.0,64.0
415,62.0,0.0,120.0,1.0,64.0
416,71.0,0.0,120.0,0.0,64.0
417,59.0,240.0,120.0,2.0,64.0
418,74.0,120.0,120.0,0.0,64.0
419,66.0,0.0,240.0,1.0,64.0
420,57.0,0.0,120.0,2.0,64.0
421,55.0,60.0,120.0,2.0,64.0
422,62.0,60.0,60.0,1.0,64.0
423,78.0,120.0,120.0,0.0,64.0
424,54.0,0.0,120.0,2.0,64.0
425,55.0,0.0,120.0,2.0,64.0
426,71.0,120.0,120.0,1.0,64.0
427,54.0,0.0,120.0,2.0,64.0
428,74.0,0.0,120.0,0.0,64.0
429,69.0,120.0,120.0,1.0,64.0
430,67.0,120.0,120.0,1.0,64.0
431,52.0,0.0,120.0,2.0,64.0
432,50.0,0.0,120.0,2.0,64.0
433,83.0,120.0,120.0,0.0,64.0
434,66.0,0.0,120.0,1.0,64.0
435,67.0,0.0,120.0,1.0,64.0
436,52.0,120.0,120.0,2.0,64.0
437,50.0,120.0,120.0,2.0,64.0
438,66.0,0.0,120.0,1.0,64.0
439,78.0,0.0,120.0,0.0,64.0
440,64.0,0.0,120.0,1.0,64.0
441,49.0,120.0,120.0,2.0,64.0
442,62.0,0.0,120.0,1.0,64.0
443,86.0,0.0,120.0,0.0,64.0
444,47.0,120.0,120.0,2.0,64.0
445,61.0,0.0,120.0,1.0,64.0
446,45.0,120.0,120.0,2.0,64.0
447,77.0,0.0,120.0,0.0,64.0
448,47.0,0.0,120.0,2.0,64.0
449,62.0,120.0,120.0,1.0,64.0
450,71.0,0.0,120.0,1.0,64.0
451,56.0,120.0,120.0,2.0,64.0
452,47.0,0.0,120.0,2.0,64.0
453,86.0,0.0,120.0,0.0,64.0
454,62.0,120.0,120.0,1.0,64.0
455,56.0,120.0,120.0,2.0,64.0
456,71.0,0.0,120.0,1.0,64.0
457,61.0,120.0,120.0,1.0,64.0
458,45.0,0.0,120.0,2.0,64.0
459,77.0,0.0,120.0,0.0,64.0
460,56.0,0.0,120.0,2.0,64.0
461,71.0,120.0,120.0,1.0,64.0
462,47.0,120.0,120.0,2.0,64.0
463,62.0,0.0,120.0,1.0,64.0
464,88.0,0.0,120.0,0.0,64.0
465,71.0,120.0,120.0,1.0,64.0
466,56.0,0.0,120.0,2.0,64.0
467,59.0,0.0,120.0,1.0,64.0
468,77.0,120.0,120.0,0.0,64.0
469,44.0,0.0,120.0,2.0,64.0
470,71.0,0.0,120.0,1.0,64.0
471,56.0,120.0,120.0,2.0,64.0
472,45.0,120.0,120.0,2.0,64.0
473,78.0,0.0,120.0,0.0,64.0
474,61.0,0.0,120.0,1.0,64.0
475,59.0,0.0,120.0,1.0,64.0
476,44.0,120.0,120.0,2.0,64.0
477,45.0,0.0,120.0,2.0,64.0
478,73.0,0.0,120.0,0.0,64.0
479,61.0,120.0,120.0,1.0,64.0
480,54.0,0.0,120.0,2.0,64.0
481,69.0,120.0,120.0,1.0,64.0
482,61.0,0.0,120.0,1.0,64.0
483,81.0,120.0,120.0,0.0,64.0
484,45.0,0.0,120.0,2.0,64.0
485,69.0,0.0,120.0,1.0,64.0
486,54.0,120.0,120.0,2.0,64.0
487,78.0,120.0,120.0,0.0,64.0
488,44.0,0.0,120.0,2.0,64.0
489,59.0,0.0,120.0,1.0,64.0
490,54.0,120.0,120.0,2.0,64.0
491,69.0,0.0,120.0,1.0,64.0
492,61.0,0.0,120.0,1.0,64.0
493,85.0,0.0,120.0,0.0,64.0
494,45.0,120.0,120.0,2.0,64.0
495,69.0,0.0,120.0,1.0,64.0
496,54.0,120.0,120.0,2.0,64.0
497,81.0,0.0,120.0,0.0,64.0
498,57.0,0.0,120.0,1.0,64.0
499,42.0,120.0,120.0,2.0,64.0
500,54.0,120.0,120.0,2.0,64.0
501,69.0,0.0,120.0,1.0,64.0
502,83.0,0.0,120.0,0.0,64.0
503,66.0,0.0,120.0,1.0,64.0
504,50.0,120.0,120.0,2.0,64.0
505,81.0,120.0,120.0,0.0,64.0
506,59.0,0.0,120.0,2.0,64.0
507,74.0,0.0,120.0,1.0,64.0
508,83.0,120.0,120.0,0.0,64.0
509,86.0,120.0,120.0,0.0,64.0
510,56.0,0.0,120.0,2.0,64.0
511,76.0,120.0,120.0,0.0,64.0
512,71.0,0.0,120.0,1.0,64.0
513,86.0,120.0,120.0,0.0,64.0
514,59.0,0.0,120.0,2.0,64.0
515,78.0,120.0,120.0,0.0,64.0
516,74.0,0.0,120.0,1.0,64.0
517,86.0,120.0,120.0,0.0,64.0
518,80.0,120.0,120.0,0.0,64.0
519,52.0,0.0,120.0,2.0,64.0
520,68.0,0.0,120.0,1.0,64.0
521,86.0,120.0,120.0,0.0,64.0
522,56.0,120.0,120.0,2.0,64.0
523,71.0,0.0,120.0,1.0,64.0
524,76.0,0.0,120.0,0.0,64.0
525,86.0,120.0,120.0,0.0,64.0
526,64.0,120.0,120.0,1.0,64.0
527,81.0,0.0,120.0,0.0,64.0
528,49.0,0.0,120.0,2.0,64.0
529,80.0,120.0,120.0,0.0,64.0
530,57.0,0.0,120.0,2.0,64.0
531,73.0,0.0,120.0,1.0,64.0
532,81.0,120.0,120.0,0.0,64.0
533,85.0,120.0,120.0,0.0,64.0
534,54.0,0.0,120.0,2.0,64.0
535,75.0,0.0,120.0,0.0,64.0
536,69.0,120.0,120.0,1.0,64.0
537,85.0,120.0,120.0,0.0,64.0
538,73.0,120.0,120.0,1.0,64.0
539,57.0,0.0,120.0,2.0,64.0
540,77.0,0.0,120.0,0.0,64.0
541,85.0,120.0,120.0,0.0,64.0
542,51.0,120.0,120.0,2.0,64.0
543,78.0,0.0,120.0,0.0,64.0
544,66.0,0.0,120.0,1.0,64.0
545,85.0,120.0,120.0,0.0,64.0
546,69.0,120.0,120.0,1.0,64.0
547,54.0,0.0,120.0,2.0,64.0
548,75.0,0.0,120.0,0.0,64.0
549,85.0,120.0,120.0,0.0,64.0
550,80.0,0.0,120.0,0.0,64.0
551,47.0,120.0,120.0,2.0,64.0
552,62.0,0.0,120.0,1.0,64.0
553,78.0,120.0,120.0,0.0,64.0
554,56.0,0.0,120.0,2.0,64.0
555,71.0,0.0,120.0,1.0,64.0
556,80.0,120.0,120.0,0.0,64.0
557,83.0,120.0,120.0,0.0,64.0
558,53.0,0.0,120.0,2.0,64.0
559,68.0,0.0,120.0,1.0,64.0
560,73.0,120.0,120.0,0.0,64.0
561,83.0,120.0,120.0,0.0,64.0
562,56.0,0.0,120.0,2.0,64.0
563,75.0,120.0,120.0,0.0,64.0
564,71.0,0.0,120.0,1.0,64.0
565,83.0,120.0,120.0,0.0,64.0
566,49.0,120.0,120.0,2.0,64.0
567,65.0,0.0,120.0,1.0,64.0
568,77.0,0.0,120.0,0.0,64.0
569,83.0,120.0,120.0,0.0,64.0
570,73.0,0.0,120.0,0.0,64.0
571,68.0,0.0,120.0,1.0,64.0
572,53.0,120.0,120.0,2.0,64.0
573,83.0,120.0,120.0,0.0,64.0
574,45.0,120.0,120.0,2.0,64.0
575,81.0,120.0,240.0,0.0,64.0
576,61.0,0.0,120.0,1.0,64.0
577,54.0,0.0,120.0,2.0,64.0
578,52.0,120.0,120.0,2.0,64.0
579,69.0,0.0,120.0,1.0,64.0
580,78.0,0.0,120.0,0.0,64.0
581,54.0,120.0,120.0,2.0,64.0
582,66.0,120.0,120.0,1.0,64.0
583,47.0,0.0,120.0,2.0,64.0
584,74.0,0.0,120.0,0.0,64.0
585,54.0,120.0,120.0,2.0,64.0
586,78.0,120.0,120.0,0.0,64.0
587,64.0,0.0,120.0,1.0,64.0
588,49.0,0.0,120.0,2.0,64.0
589,54.0,120.0,120.0,2.0,64.0
590,71.0,0.0,120.0,0.0,64.0
591,50.0,120.0,120.0,2.0,64.0
592,66.0,0.0,120.0,1.0,64.0
593,54.0,120.0,120.0,2.0,64.0
594,81.0,0.0,120.0,0.0,64.0
595,62.0,120.0,120.0,1.0,64.0
596,47.0,0.0,120.0,2.0,64.0
597,54.0,120.0,120.0,2.0,64.0
598,40.0,0.0,120.0,2.0,64.0
599,80.0,120.0,120.0,0.0,64.0
600,59.0,0.0,120.0,1.0,64.0
601,52.0,120.0,120.0,2.0,64.0
602,50.0,0.0,120.0,2.0,64.0
603,76.0,0.0,120.0,0.0,64.0
604,68.0,120.0,120.0,1.0,64.0
605,52.0,120.0,120.0,2.0,64.0
606,64.0,0.0,120.0,1.0,64.0
607,45.0,120.0,120.0,2.0,64.0
608,73.0,0.0,120.0,0.0,64.0
609,52.0,120.0,120.0,2.0,64.0
610,62.0,0.0,120.0,1.0,64.0
611,76.0,120.0,120.0,0.0,64.0
612,47.0,0.0,120.0,2.0,64.0
613,52.0,120.0,120.0,2.0,64.0
614,64.0,0.0,120.0,1.0,64.0
615,49.0,0.0,120.0,2.0,64.0
616,69.0,120.0,120.0,0.0,64.0
617,52.0,120.0,120.0,2.0,64.0
618,79.0,0.0,120.0,0.0,64.0
619,45.0,120.0,120.0,2.0,64.0
620,61.0,0.0,120.0,1.0,64.0
621,52.0,120.0,120.0,2.0,64.0
622,69.0,0.0,120.0,1.0,64.0
623,78.0,120.0,120.0,0.0,64.0
624,50.0,0.0,120.0,2.0,64.0
625,81.0,120.0,120.0,0.0,64.0
626,54.0,120.0,120.0,2.0,64.0
627,62.0,0.0,120.0,1.0,64.0
628,79.0,0.0,120.0,0.0,64.0
629,81.0,120.0,120.0,0.0,64.0
630,57.0,120.0,120.0,2.0,64.0
631,78.0,0.0,120.0,0.0,64.0
632,66.0,0.0,120.0,1.0,64.0
633,81.0,120.0,120.0,0.0,64.0
634,79.0,0.0,120.0,0.0,64.0
635,54.0,0.0,120.0,2.0,64.0
636,62.0,120.0,120.0,1.0,64.0
637,81.0,120.0,120.0,0.0,64.0
638,78.0,120.0,120.0,0.0,64.0
639,69.0,0.0,120.0,1.0,64.0
640,62.0,0.0,120.0,2.0,64.0
641,81.0,120.0,120.0,0.0,64.0
642,79.0,0.0,120.0,0.0,64.0
643,61.0,120.0,120.0,1.0,64.0
644,45.0,0.0,120.0,2.0,64.0
645,81.0,120.0,120.0,0.0,64.0
646,74.0,0.0,120.0,0.0,64.0
647,54.0,120.0,120.0,2.0,64.0
648,69.0,0.0,120.0,1.0,64.0
649,78.0,0.0,120.0,0.0,64.0
650,57.0,120.0,120.0,2.0,64.0
651,76.0,0.0,120.0,0.0,64.0
652,55.0,0.0,120.0,2.0,64.0
653,61.0,120.0,120.0,1.0,64.0
654,57.0,120.0,120.0,2.0,64.0
655,78.0,0.0,120.0,0.0,64.0
656,54.0,0.0,120.0,2.0,64.0
657,74.0,120.0,120.0,0.0,64.0
658,69.0,0.0,120.0,1.0,64.0
659,57.0,120.0,120.0,2.0,64.0
660,78.0,0.0,120.0,0.0,64.0
661,76.0,0.0,120.0,0.0,64.0
662,55.0,0.0,120.0,2.0,64.0
663,61.0,120.0,120.0,1.0,64.0
664,57.0,0.0,120.0,2.0,64.0
665,78.0,120.0,120.0,0.0,64.0
666,74.0,0.0,120.0,0.0,64.0
667,54.0,120.0,120.0,2.0,64.0
668,69.0,0.0,120.0,1.0,64.0
669,57.0,120.0,120.0,2.0,64.0
670,78.0,0.0,120.0,0.0,64.0
671,55.0,120.0,120.0,2.0,64.0
672,61.0,0.0,120.0,1.0,64.0
673,76.0,0.0,120.0,0.0,64.0
674,57.0,120.0,120.0,2.0,64.0
675,78.0,0.0,120.0,0.0,64.0
676,71.0,0.0,120.0,0.0,64.0
677,50.0,0.0,120.0,2.0,64.0
678,66.0,120.0,120.0,1.0,64.0
679,54.0,0.0,120.0,2.0,64.0
680,74.0,120.0,120.0,0.0,64.0
681,73.0,0.0,120.0,0.0,64.0
682,52.0,0.0,120.0,2.0,64.0
683,58.0,120.0,120.0,1.0,64.0
684,54.0,120.0,120.0,2.0,64.0
685,74.0,0.0,120.0,0.0,64.0
686,71.0,120.0,120.0,0.0,64.0
687,50.0,0.0,120.0,2.0,64.0
688,66.0,0.0,120.0,1.0,64.0
689,54.0,0.0,120.0,2.0,64.0
690,74.0,120.0,120.0,0.0,64.0
691,73.0,0.0,120.0,0.0,64.0
692,52.0,0.0,120.0,2.0,64.0
693,58.0,120.0,120.0,1.0,64.0
694,54.0,120.0,120.0,2.0,64.0
695,74.0,0.0,120.0,0.0,64.0
696,71.0,120.0,120.0,0.0,64.0
697,66.0,0.0,120.0,1.0,64.0
698,50.0,0.0,120.0,2.0,64.0
699,54.0,120.0,120.0,2.0,64.0
700,74.0,0.0,120.0,0.0,64.0
701,73.0,0.0,120.0,0.0,64.0
702,58.0,120.0,120.0,1.0,64.0
703,52.0,0.0,120.0,2.0,64.0
704,74.0,0.0,120.0,0.0,64.0
705,54.0,120.0,120.0,2.0,64.0
706,62.0,0.0,120.0,1.0,64.0
707,47.0,120.0,120.0,2.0,64.0
708,68.0,0.0,120.0,0.0,64.0
709,50.0,120.0,120.0,2.0,64.0
710,56.0,0.0,120.0,1.0,64.0
711,64.0,120.0,120.0,0.0,64.0
712,49.0,0.0,120.0,2.0,64.0
713,50.0,120.0,120.0,2.0,64.0
714,68.0,0.0,120.0,1.0,64.0
715,71.0,0.0,120.0,0.0,64.0
716,47.0,120.0,120.0,2.0,64.0
717,50.0,120.0,120.0,2.0,64.0
718,68.0,120.0,120.0,0.0,64.0
719,64.0,0.0,120.0,1.0,64.0
720,49.0,0.0,120.0,2.0,64.0
721,50.0,120.0,120.0,2.0,64.0
722,74.0,120.0,120.0,0.0,64.0
723,71.0,0.0,120.0,1.0,64.0
724,47.0,0.0,120.0,2.0,64.0
725,50.0,120.0,120.0,2.0,64.0
726,68.0,0.0,120.0,1.0,64.0
727,71.0,0.0,120.0,0.0,64.0
728,49.0,120.0,120.0,2.0,64.0
729,50.0,120.0,120.0,2.0,64.0
730,71.0,0.0,120.0,1.0,64.0
731,44.0,120.0,120.0,2.0,64.0
732,76.0,0.0,120.0,0.0,64.0
733,78.0,120.0,120.0,0.0,64.0
734,64.0,0.0,120.0,1.0,64.0
735,76.0,120.0,120.0,0.0,64.0
736,52.0,0.0,120.0,2.0,64.0
737,74.0,120.0,120.0,0.0,64.0
738,64.0,120.0,120.0,1.0,64.0
739,73.0,0.0,120.0,0.0,64.0
740,57.0,0.0,120.0,2.0,64.0
741,66.0,120.0,120.0,1.0,64.0
742,74.0,0.0,120.0,0.0,64.0
743,64.0,120.0,120.0,1.0,64.0
744,52.0,0.0,120.0,2.0,64.0
745,73.0,0.0,120.0,0.0,64.0
746,71.0,0.0,120.0,0.0,64.0
747,62.0,120.0,120.0,1.0,64.0
748,69.0,0.0,120.0,0.0,64.0
749,61.0,120.0,120.0,1.0,64.0
750,61.0,0.0,120.0,2.0,64.0
751,62.0,0.0,120.0,1.0,64.0
752,71.0,120.0,120.0,0.0,64.0
753,61.0,0.0,120.0,1.0,64.0
754,57.0,120.0,120.0,2.0,64.0
755,69.0,0.0,120.0,0.0,64.0
756,67.0,120.0,120.0,0.0,64.0
757,59.0,0.0,120.0,1.0,64.0
758,57.0,0.0,120.0,1.0,64.0
759,62.0,120.0,120.0,2.0,64.0
760,66.0,120.0,240.0,0.0,64.0
761,64.0,0.0,120.0,2.0,64.0
762,62.0,0.0,120.0,2.0,64.0
763,71.0,0.0,120.0,0.0,64.0
764,66.0,120.0,120.0,1.0,64.0
765,69.0,0.0,120.0,0.0,64.0
766,61.0,0.0,120.0,2.0,64.0
767,64.0,120.0,120.0,1.0,64.0
768,59.0,0.0,120.0,2.0,64.0
769,68.0,0.0,120.0,0.0,64.0
770,62.0,120.0,120.0,1.0,64.0
771,69.0,0.0,120.0,0.0,64.0
772,61.0,120.0,120.0,2.0,64.0
773,64.0,0.0,120.0,1.0,64.0
774,59.0,0.0,120.0,2.0,64.0
775,68.0,120.0,120.0,0.0,64.0
776,62.0,0.0,120.0,1.0,64.0
777,66.0,0.0,120.0,0.0,64.0
778,57.0,120.0,120.0,2.0,64.0
779,61.0,0.0,120.0,1.0,64.0
780,59.0,0.0,120.0,1.0,64.0
781,64.0,120.0,120.0,0.0,64.0
782,56.0,0.0,120.0,2.0,64.0
783,61.0,120.0,120.0,1.0,64.0
784,57.0,0.0,120.0,2.0,64.0
785,66.0,0.0,120.0,0.0,64.0
786,64.0,120.0,120.0,0.0,64.0
787,56.0,0.0,120.0,2.0,64.0
788,59.0,0.0,120.0,1.0,64.0
789,57.0,120.0,120.0,1.0,64.0
790,54.0,0.0,120.0,2.0,64.0
791,62.0,0.0,120.0,0.0,64.0
792,52.0,0.0,240.0,2.0,64.0
793,69.0,120.0,120.0,1.0,64.0
794,61.0,0.0,120.0,0.0,64.0
795,68.0,0.0,120.0,1.0,64.0
796,62.0,120.0,120.0,0.0,64.0
797,57.0,120.0,120.0,2.0,64.0
798,66.0,0.0,120.0,1.0,64.0
799,61.0,0.0,120.0,0.0,64.0
800,64.0,0.0,120.0,1.0,64.0
801,59.0,0.0,120.0,0.0,64.0
802,56.0,120.0,120.0,2.0,64.0
803,57.0,120.0,120.0,0.0,64.0
804,54.0,0.0,120.0,2.0,64.0
805,62.0,0.0,120.0,1.0,64.0
806,56.0,120.0,120.0,2.0,64.0
807,64.0,0.0,120.0,1.0,64.0
808,62.0,120.0,120.0,1.0,64.0
809,54.0,0.0,120.0,2.0,64.0
810,69.0,0.0,120.0,0.0,64.0
811,52.0,0.0,120.0,2.0,64.0
812,68.0,120.0,120.0,0.0,64.0
813,64.0,0.0,120.0,1.0,64.0
814,66.0,0.0,120.0,1.0,64.0
815,50.0,0.0,120.0,2.0,64.0
816,69.0,120.0,120.0,0.0,64.0
817,52.0,120.0,120.0,2.0,64.0
818,69.0,0.0,120.0,1.0,64.0
819,50.0,120.0,120.0,2.0,64.0
820,61.0,0.0,120.0,0.0,64.0
821,49.0,120.0,120.0,2.0,64.0
822,69.0,120.0,120.0,1.0,64.0
823,62.0,0.0,120.0,0.0,64.0
824,47.0,0.0,120.0,2.0,64.0
825,49.0,120.0,120.0,2.0,64.0
826,69.0,0.0,120.0,0.0,64.0
827,47.0,120.0,120.0,2.0,64.0
828,62.0,0.0,120.0,1.0,64.0
829,45.0,120.0,120.0,2.0,64.0
830,52.0,0.0,120.0,2.0,64.0
831,69.0,0.0,120.0,1.0,64.0
832,61.0,120.0,120.0,0.0,64.0
833,50.0,120.0,120.0,2.0,64.0
834,49.0,0.0,120.0,2.0,64.0
835,64.0,120.0,120.0,1.0,64.0
836,69.0,0.0,120.0,0.0,64.0
837,50.0,120.0,120.0,2.0,64.0
838,59.0,120.0,240.0,0.0,64.0
839,52.0,120.0,120.0,2.0,64.0
840,68.0,0.0,120.0,1.0,64.0
841,68.0,120.0,120.0,0.0,64.0
842,40.0,0.0,120.0,2.0,64.0
843,64.0,0.0,720.0,1.0,64.0
844,59.0,480.0,240.0,1.0,64.0
845,45.0,104.0,480.0,2.0,64.0
846,69.0,0.0,480.0,0.0,64.0
847,61.0,0.0,480.0,1.0,64.0
