,note,step,duration,channel,velocity
0,66.0,0.0,30.0,0.0,0.0
1,66.0,0.0,30.0,1.0,0.0
2,54.0,0.0,30.0,4.0,0.0
3,66.0,0.0,30.0,4.0,0.0
4,66.0,30.0,30.0,2.0,0.0
5,54.0,0.0,30.0,3.0,0.0
6,68.0,0.0,30.0,0.0,0.0
7,56.0,0.0,30.0,3.0,0.0
8,68.0,0.0,30.0,1.0,0.0
9,68.0,0.0,30.0,2.0,0.0
10,68.0,30.0,30.0,4.0,0.0
11,56.0,0.0,30.0,4.0,0.0
12,69.0,0.0,30.0,2.0,0.0
13,69.0,0.0,30.0,1.0,0.0
14,69.0,0.0,30.0,0.0,0.0
15,57.0,75.0,30.0,3.0,0.0
16,57.0,0.0,30.0,4.0,0.0
17,69.0,0.0,30.0,4.0,0.0
18,56.0,0.0,60.0,4.0,0.0
19,68.0,45.0,60.0,4.0,0.0
20,68.0,0.0,40.0,2.0,0.0
21,68.0,0.0,40.0,0.0,0.0
22,68.0,0.0,40.0,1.0,0.0
23,56.0,15.0,40.0,3.0,0.0
24,66.0,0.0,40.0,2.0,0.0
25,66.0,0.0,60.0,4.0,0.0
26,54.0,0.0,40.0,3.0,0.0
27,66.0,15.0,40.0,1.0,0.0
28,54.0,45.0,60.0,4.0,0.0
29,66.0,0.0,40.0,0.0,0.0
30,73.0,0.0,40.0,2.0,0.0
31,61.0,0.0,60.0,4.0,0.0
32,73.0,105.0,60.0,4.0,0.0
33,73.0,0.0,40.0,0.0,0.0
34,61.0,15.0,40.0,3.0,0.0
35,73.0,0.0,40.0,1.0,0.0
36,78.0,0.0,120.0,2.0,0.0
37,78.0,14.0,120.0,1.0,0.0
38,78.0,0.0,120.0,4.0,0.0
39,66.0,45.0,120.0,4.0,0.0
40,78.0,0.0,120.0,0.0,0.0
41,66.0,0.0,120.0,3.0,0.0
42,61.0,15.0,40.0,3.0,0.0
43,61.0,0.0,60.0,4.0,0.0
44,73.0,0.0,40.0,0.0,0.0
45,73.0,46.0,60.0,4.0,0.0
46,73.0,0.0,40.0,2.0,0.0
47,73.0,0.0,40.0,1.0,0.0
48,74.0,0.0,40.0,0.0,0.0
49,74.0,0.0,40.0,2.0,0.0
50,74.0,0.0,60.0,4.0,0.0
51,62.0,30.0,60.0,4.0,0.0
52,74.0,15.0,40.0,1.0,0.0
53,62.0,0.0,40.0,3.0,0.0
54,71.0,0.0,30.0,2.0,0.0
55,59.0,0.0,30.0,3.0,0.0
56,71.0,0.0,30.0,0.0,0.0
57,71.0,0.0,30.0,1.0,0.0
58,59.0,30.0,30.0,4.0,0.0
59,71.0,0.0,30.0,4.0,0.0
60,68.0,0.0,30.0,0.0,0.0
61,56.0,0.0,30.0,3.0,0.0
62,68.0,0.0,30.0,2.0,0.0
63,68.0,45.0,30.0,4.0,0.0
64,68.0,0.0,30.0,1.0,0.0
65,56.0,0.0,30.0,4.0,0.0
66,73.0,0.0,40.0,1.0,0.0
67,61.0,0.0,40.0,3.0,0.0
68,73.0,15.0,40.0,2.0,0.0
69,61.0,0.0,60.0,4.0,0.0
70,73.0,0.0,40.0,0.0,0.0
71,73.0,30.0,60.0,4.0,0.0
72,69.0,0.0,30.0,1.0,0.0
73,69.0,30.0,30.0,4.0,0.0
74,57.0,0.0,30.0,3.0,0.0
75,57.0,0.0,30.0,4.0,0.0
76,69.0,0.0,30.0,0.0,0.0
77,69.0,0.0,30.0,2.0,0.0
78,54.0,0.0,30.0,3.0,0.0
79,66.0,0.0,30.0,1.0,0.0
80,54.0,0.0,30.0,4.0,0.0
81,66.0,0.0,30.0,4.0,0.0
82,66.0,45.0,30.0,2.0,0.0
83,66.0,0.0,30.0,0.0,0.0
84,71.0,0.0,40.0,0.0,0.0
85,59.0,30.0,60.0,4.0,0.0
86,71.0,0.0,60.0,4.0,0.0
87,71.0,15.0,40.0,2.0,0.0
88,59.0,0.0,40.0,3.0,0.0
89,71.0,0.0,40.0,1.0,0.0
90,68.0,30.0,30.0,1.0,0.0
91,68.0,0.0,30.0,2.0,0.0
92,56.0,0.0,30.0,3.0,0.0
93,68.0,0.0,30.0,0.0,0.0
94,56.0,0.0,30.0,4.0,0.0
95,68.0,0.0,30.0,4.0,0.0
96,65.0,0.0,30.0,1.0,0.0
97,53.0,0.0,30.0,4.0,0.0
98,65.0,0.0,30.0,4.0,0.0
99,53.0,0.0,30.0,3.0,0.0
100,65.0,0.0,30.0,0.0,0.0
101,65.0,45.0,30.0,2.0,0.0
102,61.0,0.0,40.0,1.0,0.0
103,61.0,105.0,60.0,4.0,0.0
104,49.0,0.0,40.0,3.0,0.0
105,49.0,0.0,60.0,4.0,0.0
106,61.0,15.0,40.0,0.0,0.0
107,61.0,0.0,40.0,2.0,0.0
108,62.0,31.0,120.0,4.0,0.0
109,74.0,0.0,120.0,2.0,0.0
110,74.0,0.0,120.0,1.0,0.0
111,62.0,0.0,120.0,3.0,0.0
112,74.0,0.0,120.0,4.0,0.0
113,74.0,14.0,120.0,0.0,0.0
114,71.0,0.0,30.0,1.0,0.0
115,71.0,30.0,30.0,0.0,0.0
116,71.0,0.0,30.0,4.0,0.0
117,59.0,0.0,30.0,4.0,0.0
118,71.0,0.0,30.0,2.0,0.0
119,59.0,0.0,30.0,3.0,0.0
120,68.0,0.0,30.0,0.0,0.0
121,68.0,0.0,30.0,1.0,0.0
122,68.0,0.0,30.0,2.0,0.0
123,56.0,0.0,30.0,4.0,0.0
124,56.0,0.0,30.0,3.0,0.0
125,68.0,45.0,30.0,4.0,0.0
126,61.0,0.0,40.0,2.0,0.0
127,49.0,15.0,40.0,3.0,0.0
128,61.0,105.0,60.0,4.0,0.0
129,49.0,0.0,60.0,4.0,0.0
130,61.0,0.0,40.0,0.0,0.0
131,61.0,0.0,40.0,1.0,0.0
132,77.0,31.0,120.0,4.0,0.0
133,65.0,0.0,120.0,4.0,0.0
134,77.0,0.0,120.0,2.0,0.0
135,77.0,0.0,120.0,0.0,0.0
136,65.0,0.0,120.0,3.0,0.0
137,77.0,14.0,120.0,1.0,0.0
138,74.0,30.0,30.0,1.0,0.0
139,74.0,0.0,30.0,0.0,0.0
140,62.0,0.0,30.0,3.0,0.0
141,74.0,0.0,30.0,2.0,0.0
142,74.0,0.0,30.0,4.0,0.0
143,62.0,0.0,30.0,4.0,0.0
144,71.0,0.0,30.0,4.0,0.0
145,59.0,0.0,30.0,4.0,0.0
146,59.0,45.0,30.0,3.0,0.0
147,71.0,0.0,30.0,2.0,0.0
148,71.0,0.0,30.0,0.0,0.0
149,71.0,0.0,30.0,1.0,0.0
150,61.0,0.0,40.0,0.0,0.0
151,61.0,15.0,40.0,2.0,0.0
152,61.0,0.0,40.0,1.0,0.0
153,61.0,105.0,60.0,4.0,0.0
154,49.0,0.0,60.0,4.0,0.0
155,49.0,0.0,40.0,3.0,0.0
156,68.0,0.0,120.0,3.0,0.0
157,80.0,0.0,120.0,2.0,0.0
158,80.0,14.0,120.0,0.0,0.0
159,80.0,0.0,120.0,1.0,0.0
160,80.0,31.0,120.0,4.0,0.0
161,68.0,0.0,120.0,4.0,0.0
162,65.0,0.0,30.0,3.0,0.0
163,77.0,0.0,30.0,0.0,0.0
164,65.0,0.0,30.0,4.0,0.0
165,77.0,0.0,30.0,2.0,0.0
166,77.0,30.0,30.0,4.0,0.0
167,77.0,0.0,30.0,1.0,0.0
168,73.0,0.0,30.0,0.0,0.0
169,73.0,0.0,30.0,2.0,0.0
170,73.0,0.0,30.0,1.0,0.0
171,61.0,0.0,30.0,3.0,0.0
172,73.0,0.0,30.0,4.0,0.0
173,61.0,30.0,30.0,4.0,0.0
174,74.0,30.0,30.0,1.0,0.0
175,74.0,0.0,30.0,4.0,0.0
176,74.0,0.0,30.0,0.0,0.0
177,62.0,0.0,30.0,4.0,0.0
178,62.0,0.0,30.0,3.0,0.0
179,74.0,0.0,30.0,2.0,0.0
180,59.0,0.0,30.0,4.0,0.0
181,71.0,0.0,30.0,1.0,0.0
182,71.0,0.0,30.0,4.0,0.0
183,71.0,30.0,30.0,0.0,0.0
184,71.0,0.0,30.0,2.0,0.0
185,59.0,0.0,30.0,3.0,0.0
186,73.0,0.0,30.0,4.0,0.0
187,61.0,0.0,30.0,4.0,0.0
188,73.0,0.0,30.0,0.0,0.0
189,73.0,0.0,30.0,1.0,0.0
190,73.0,30.0,30.0,2.0,0.0
191,61.0,0.0,30.0,3.0,0.0
192,69.0,30.0,30.0,2.0,0.0
193,57.0,0.0,30.0,4.0,0.0
194,69.0,0.0,30.0,4.0,0.0
195,57.0,0.0,30.0,3.0,0.0
196,69.0,0.0,30.0,1.0,0.0
197,69.0,0.0,30.0,0.0,0.0
198,59.0,0.0,30.0,3.0,0.0
199,71.0,0.0,30.0,4.0,0.0
200,59.0,0.0,30.0,4.0,0.0
201,71.0,0.0,30.0,2.0,0.0
202,71.0,0.0,30.0,1.0,0.0
203,71.0,30.0,30.0,0.0,0.0
204,68.0,0.0,30.0,4.0,0.0
205,68.0,0.0,30.0,0.0,0.0
206,56.0,0.0,30.0,3.0,0.0
207,68.0,0.0,30.0,2.0,0.0
208,56.0,0.0,30.0,4.0,0.0
209,68.0,30.0,30.0,1.0,0.0
210,57.0,0.0,30.0,3.0,0.0
211,69.0,30.0,30.0,2.0,0.0
212,69.0,0.0,30.0,1.0,0.0
213,57.0,0.0,30.0,4.0,0.0
214,69.0,0.0,30.0,4.0,0.0
215,69.0,0.0,30.0,0.0,0.0
216,66.0,0.0,30.0,4.0,0.0
217,54.0,30.0,30.0,4.0,0.0
218,66.0,0.0,30.0,2.0,0.0
219,54.0,0.0,30.0,3.0,0.0
220,66.0,0.0,30.0,1.0,0.0
221,66.0,0.0,30.0,0.0,0.0
222,68.0,0.0,30.0,1.0,0.0
223,68.0,0.0,30.0,0.0,0.0
224,68.0,0.0,30.0,2.0,0.0
225,56.0,30.0,30.0,3.0,0.0
226,68.0,0.0,30.0,4.0,0.0
227,56.0,0.0,30.0,4.0,0.0
228,53.0,0.0,30.0,4.0,0.0
229,65.0,0.0,30.0,2.0,0.0
230,65.0,0.0,30.0,4.0,0.0
231,65.0,0.0,30.0,0.0,0.0
232,65.0,30.0,30.0,1.0,0.0
233,53.0,0.0,30.0,3.0,0.0
234,54.0,0.0,30.0,4.0,0.0
235,54.0,0.0,30.0,3.0,0.0
236,66.0,0.0,30.0,4.0,0.0
237,66.0,30.0,30.0,2.0,0.0
238,66.0,0.0,30.0,1.0,0.0
239,66.0,0.0,30.0,0.0,0.0
240,63.0,0.0,30.0,4.0,0.0
241,51.0,30.0,30.0,4.0,0.0
242,63.0,0.0,30.0,1.0,0.0
243,63.0,0.0,30.0,0.0,0.0
244,51.0,0.0,30.0,3.0,0.0
245,63.0,0.0,30.0,2.0,0.0
246,53.0,0.0,30.0,3.0,0.0
247,65.0,0.0,30.0,1.0,0.0
248,65.0,0.0,30.0,2.0,0.0
249,65.0,30.0,30.0,4.0,0.0
250,53.0,0.0,30.0,4.0,0.0
251,65.0,0.0,30.0,0.0,0.0
252,49.0,0.0,30.0,3.0,0.0
253,61.0,30.0,30.0,2.0,0.0
254,49.0,0.0,30.0,4.0,0.0
255,61.0,0.0,30.0,4.0,0.0
256,61.0,0.0,30.0,0.0,0.0
257,61.0,0.0,30.0,1.0,0.0
258,63.0,0.0,30.0,4.0,0.0
259,51.0,0.0,30.0,3.0,0.0
260,51.0,0.0,30.0,4.0,0.0
261,63.0,0.0,30.0,0.0,0.0
262,63.0,30.0,30.0,2.0,0.0
263,63.0,0.0,30.0,1.0,0.0
264,53.0,30.0,30.0,4.0,0.0
265,65.0,0.0,30.0,4.0,0.0
266,65.0,0.0,30.0,0.0,0.0
267,65.0,0.0,30.0,2.0,0.0
268,53.0,0.0,30.0,3.0,0.0
269,65.0,0.0,30.0,1.0,0.0
270,54.0,30.0,30.0,3.0,0.0
271,66.0,0.0,30.0,0.0,0.0
272,54.0,0.0,30.0,4.0,0.0
273,66.0,0.0,30.0,4.0,0.0
274,66.0,0.0,30.0,1.0,0.0
275,66.0,0.0,30.0,2.0,0.0
276,56.0,0.0,30.0,4.0,0.0
277,68.0,0.0,30.0,1.0,0.0
278,68.0,0.0,30.0,4.0,0.0
279,68.0,30.0,30.0,0.0,0.0
280,56.0,0.0,30.0,3.0,0.0
281,68.0,0.0,30.0,2.0,0.0
282,69.0,0.0,30.0,4.0,0.0
283,57.0,0.0,30.0,4.0,0.0
284,57.0,0.0,30.0,3.0,0.0
285,69.0,0.0,30.0,2.0,0.0
286,69.0,30.0,30.0,1.0,0.0
287,69.0,0.0,30.0,0.0,0.0
288,71.0,0.0,30.0,4.0,0.0
289,71.0,0.0,30.0,0.0,0.0
290,59.0,30.0,30.0,3.0,0.0
291,59.0,0.0,30.0,4.0,0.0
292,71.0,0.0,30.0,1.0,0.0
293,71.0,0.0,30.0,2.0,0.0
294,73.0,30.0,30.0,4.0,0.0
295,61.0,0.0,30.0,4.0,0.0
296,73.0,0.0,30.0,0.0,0.0
297,73.0,0.0,30.0,1.0,0.0
298,61.0,0.0,30.0,3.0,0.0
299,73.0,0.0,30.0,2.0,0.0
300,74.0,0.0,30.0,0.0,0.0
301,62.0,0.0,30.0,3.0,0.0
302,74.0,0.0,30.0,1.0,0.0
303,74.0,0.0,30.0,2.0,0.0
304,74.0,0.0,30.0,4.0,0.0
305,62.0,30.0,30.0,4.0,0.0
306,76.0,0.0,30.0,1.0,0.0
307,64.0,0.0,30.0,3.0,0.0
308,76.0,60.0,30.0,4.0,0.0
309,64.0,0.0,30.0,4.0,0.0
310,76.0,0.0,30.0,0.0,0.0
311,76.0,0.0,30.0,2.0,0.0
312,64.0,0.0,30.0,3.0,0.0
313,76.0,0.0,30.0,2.0,0.0
314,76.0,30.0,30.0,0.0,0.0
315,76.0,0.0,30.0,1.0,0.0
316,76.0,0.0,30.0,4.0,0.0
317,64.0,0.0,30.0,4.0,0.0
318,78.0,0.0,30.0,2.0,0.0
319,78.0,0.0,30.0,4.0,0.0
320,66.0,0.0,30.0,4.0,0.0
321,66.0,30.0,30.0,3.0,0.0
322,78.0,0.0,30.0,1.0,0.0
323,78.0,0.0,30.0,0.0,0.0
324,79.0,0.0,30.0,0.0,0.0
325,79.0,0.0,30.0,1.0,0.0
326,79.0,75.0,30.0,2.0,0.0
327,67.0,0.0,30.0,4.0,0.0
328,79.0,0.0,30.0,4.0,0.0
329,67.0,0.0,30.0,3.0,0.0
330,70.0,0.0,40.0,0.0,0.0
331,70.0,60.0,40.0,1.0,0.0
332,58.0,0.0,40.0,4.0,0.0
333,70.0,0.0,40.0,2.0,0.0
334,58.0,0.0,40.0,3.0,0.0
335,70.0,0.0,40.0,4.0,0.0
336,71.0,15.0,40.0,2.0,0.0
337,59.0,0.0,40.0,4.0,0.0
338,71.0,0.0,40.0,4.0,0.0
339,59.0,0.0,40.0,3.0,0.0
340,71.0,45.0,60.0,0.0,0.0
341,71.0,0.0,60.0,1.0,0.0
342,53.0,0.0,40.0,4.0,0.0
343,65.0,0.0,40.0,4.0,0.0
344,53.0,0.0,40.0,3.0,0.0
345,65.0,60.0,40.0,1.0,0.0
346,65.0,0.0,40.0,0.0,0.0
347,65.0,0.0,40.0,2.0,0.0
348,66.0,0.0,40.0,0.0,0.0
349,66.0,0.0,40.0,1.0,0.0
350,66.0,60.0,40.0,4.0,0.0
351,54.0,0.0,40.0,4.0,0.0
352,54.0,0.0,40.0,3.0,0.0
353,66.0,0.0,40.0,2.0,0.0
354,60.0,0.0,40.0,4.0,0.0
355,48.0,0.0,40.0,4.0,0.0
356,60.0,120.0,40.0,1.0,0.0
357,48.0,0.0,40.0,3.0,0.0
358,60.0,0.0,40.0,2.0,0.0
359,60.0,0.0,40.0,0.0,0.0
360,49.0,0.0,40.0,3.0,0.0
361,61.0,0.0,40.0,2.0,0.0
362,61.0,0.0,40.0,0.0,0.0
363,61.0,0.0,40.0,1.0,0.0
364,61.0,90.0,40.0,4.0,0.0
365,49.0,0.0,40.0,4.0,0.0
366,42.0,30.0,120.0,3.0,0.0
367,66.0,0.0,40.0,2.0,0.0
368,42.0,0.0,120.0,4.0,0.0
369,66.0,15.0,40.0,0.0,0.0
370,54.0,0.0,120.0,4.0,0.0
371,66.0,15.0,15.0,4.0,0.0
372,66.0,0.0,40.0,1.0,0.0
373,68.0,15.0,15.0,4.0,0.0
374,69.0,0.0,15.0,4.0,0.0
375,71.0,30.0,15.0,4.0,0.0
376,73.0,15.0,30.0,4.0,0.0
377,66.0,15.0,40.0,2.0,0.0
378,68.0,0.0,30.0,4.0,0.0
379,78.0,0.0,60.0,0.0,0.0
380,69.0,15.0,30.0,4.0,0.0
381,73.0,30.0,60.0,1.0,0.0
382,66.0,15.0,40.0,2.0,0.0
383,66.0,0.0,30.0,4.0,0.0
384,66.0,15.0,40.0,2.0,0.0
385,68.0,15.0,30.0,4.0,0.0
386,77.0,30.0,60.0,0.0,0.0
387,71.0,0.0,60.0,1.0,0.0
388,65.0,0.0,30.0,4.0,0.0
389,42.0,30.0,120.0,4.0,0.0
390,66.0,15.0,30.0,4.0,0.0
391,54.0,0.0,120.0,4.0,0.0
392,66.0,15.0,40.0,2.0,0.0
393,61.0,30.0,30.0,4.0,0.0
394,66.0,15.0,40.0,2.0,0.0
395,62.0,15.0,30.0,4.0,0.0
396,59.0,0.0,30.0,4.0,0.0
397,66.0,15.0,40.0,2.0,0.0
398,61.0,15.0,30.0,4.0,0.0
399,78.0,0.0,60.0,1.0,0.0
400,81.0,30.0,60.0,0.0,0.0
401,66.0,0.0,30.0,4.0,0.0
402,77.0,0.0,60.0,1.0,0.0
403,68.0,15.0,30.0,4.0,0.0
404,66.0,15.0,40.0,2.0,0.0
405,80.0,30.0,60.0,0.0,0.0
406,65.0,0.0,30.0,4.0,0.0
407,66.0,15.0,40.0,2.0,0.0
408,42.0,30.0,120.0,4.0,0.0
409,54.0,0.0,120.0,4.0,0.0
410,66.0,15.0,30.0,4.0,0.0
411,69.0,30.0,30.0,4.0,0.0
412,66.0,15.0,40.0,2.0,0.0
413,71.0,15.0,30.0,4.0,0.0
414,68.0,0.0,30.0,4.0,0.0
415,69.0,15.0,30.0,4.0,0.0
416,85.0,0.0,60.0,0.0,0.0
417,78.0,30.0,60.0,1.0,0.0
418,66.0,15.0,40.0,2.0,0.0
419,73.0,0.0,30.0,4.0,0.0
420,74.0,15.0,30.0,4.0,0.0
421,66.0,15.0,40.0,2.0,0.0
422,77.0,0.0,60.0,1.0,0.0
423,83.0,0.0,60.0,0.0,0.0
424,71.0,15.0,30.0,4.0,0.0
425,66.0,0.0,40.0,2.0,0.0
426,42.0,30.0,120.0,3.0,0.0
427,54.0,0.0,15.0,4.0,0.0
428,73.0,15.0,15.0,4.0,0.0
429,77.0,0.0,15.0,4.0,0.0
430,56.0,15.0,15.0,4.0,0.0
431,57.0,15.0,15.0,4.0,0.0
432,78.0,0.0,15.0,4.0,0.0
433,59.0,30.0,15.0,4.0,0.0
434,80.0,0.0,15.0,4.0,0.0
435,66.0,15.0,40.0,2.0,0.0
436,61.0,15.0,30.0,4.0,0.0
437,81.0,0.0,30.0,4.0,0.0
438,56.0,0.0,30.0,4.0,0.0
439,77.0,0.0,30.0,4.0,0.0
440,57.0,0.0,30.0,4.0,0.0
441,78.0,15.0,30.0,4.0,0.0
442,78.0,0.0,60.0,1.0,0.0
443,81.0,0.0,60.0,0.0,0.0
444,66.0,15.0,40.0,2.0,0.0
445,54.0,0.0,30.0,4.0,0.0
446,73.0,30.0,30.0,4.0,0.0
447,66.0,15.0,40.0,2.0,0.0
448,77.0,0.0,60.0,1.0,0.0
449,80.0,0.0,60.0,0.0,0.0
450,74.0,15.0,30.0,4.0,0.0
451,59.0,0.0,30.0,4.0,0.0
452,71.0,0.0,30.0,4.0,0.0
453,56.0,30.0,30.0,4.0,0.0
454,57.0,15.0,30.0,4.0,0.0
455,66.0,15.0,40.0,2.0,0.0
456,73.0,0.0,30.0,4.0,0.0
457,69.0,0.0,30.0,4.0,0.0
458,54.0,30.0,30.0,4.0,0.0
459,66.0,15.0,40.0,2.0,0.0
460,56.0,15.0,30.0,4.0,0.0
461,71.0,0.0,30.0,4.0,0.0
462,68.0,0.0,30.0,4.0,0.0
463,53.0,30.0,30.0,4.0,0.0
464,78.0,30.0,60.0,0.0,0.0
465,54.0,15.0,30.0,4.0,0.0
466,73.0,0.0,60.0,1.0,0.0
467,69.0,0.0,30.0,4.0,0.0
468,66.0,15.0,40.0,2.0,0.0
469,73.0,0.0,30.0,4.0,0.0
470,57.0,0.0,30.0,4.0,0.0
471,66.0,15.0,40.0,2.0,0.0
472,71.0,0.0,60.0,1.0,0.0
473,59.0,0.0,30.0,4.0,0.0
474,74.0,15.0,30.0,4.0,0.0
475,77.0,30.0,60.0,0.0,0.0
476,56.0,0.0,30.0,4.0,0.0
477,71.0,0.0,30.0,4.0,0.0
478,66.0,15.0,40.0,2.0,0.0
479,57.0,0.0,30.0,4.0,0.0
480,73.0,15.0,30.0,4.0,0.0
481,78.0,0.0,30.0,4.0,0.0
482,69.0,30.0,30.0,4.0,0.0
483,66.0,15.0,40.0,2.0,0.0
484,71.0,15.0,30.0,4.0,0.0
485,80.0,0.0,30.0,4.0,0.0
486,77.0,0.0,30.0,4.0,0.0
487,68.0,30.0,30.0,4.0,0.0
488,78.0,30.0,60.0,0.0,0.0
489,69.0,0.0,30.0,4.0,0.0
490,78.0,15.0,30.0,4.0,0.0
491,73.0,0.0,60.0,1.0,0.0
492,66.0,15.0,40.0,2.0,0.0
493,81.0,0.0,30.0,4.0,0.0
494,73.0,0.0,30.0,4.0,0.0
495,66.0,15.0,40.0,2.0,0.0
496,74.0,15.0,30.0,4.0,0.0
497,83.0,0.0,30.0,4.0,0.0
498,77.0,15.0,60.0,0.0,0.0
499,71.0,0.0,60.0,1.0,0.0
500,71.0,0.0,30.0,4.0,0.0
501,80.0,0.0,30.0,4.0,0.0
502,66.0,15.0,40.0,2.0,0.0
503,73.0,0.0,15.0,4.0,0.0
504,81.0,15.0,15.0,4.0,0.0
505,42.0,30.0,120.0,3.0,0.0
506,71.0,0.0,15.0,4.0,0.0
507,85.0,15.0,15.0,4.0,0.0
508,69.0,0.0,15.0,4.0,0.0
509,87.0,0.0,15.0,4.0,0.0
510,68.0,0.0,15.0,4.0,0.0
511,89.0,30.0,15.0,4.0,0.0
512,90.0,15.0,30.0,4.0,0.0
513,69.0,0.0,30.0,4.0,0.0
514,66.0,15.0,40.0,2.0,0.0
515,85.0,0.0,30.0,4.0,0.0
516,66.0,0.0,30.0,4.0,0.0
517,86.0,15.0,30.0,4.0,0.0
518,78.0,0.0,60.0,4.0,0.0
519,71.0,0.0,60.0,0.0,0.0
520,66.0,15.0,40.0,2.0,0.0
521,66.0,30.0,60.0,1.0,0.0
522,83.0,0.0,30.0,4.0,0.0
523,85.0,15.0,30.0,4.0,0.0
524,68.0,15.0,60.0,0.0,0.0
525,65.0,0.0,60.0,1.0,0.0
526,66.0,15.0,40.0,2.0,0.0
527,80.0,0.0,30.0,4.0,0.0
528,81.0,15.0,30.0,4.0,0.0
529,61.0,15.0,15.0,4.0,0.0
530,66.0,15.0,40.0,2.0,0.0
531,66.0,0.0,15.0,4.0,0.0
532,68.0,0.0,15.0,4.0,0.0
533,78.0,0.0,30.0,4.0,0.0
534,69.0,30.0,15.0,4.0,0.0
535,71.0,0.0,30.0,4.0,0.0
536,66.0,15.0,40.0,2.0,0.0
537,80.0,15.0,30.0,4.0,0.0
538,77.0,0.0,30.0,4.0,0.0
539,68.0,30.0,30.0,4.0,0.0
540,69.0,0.0,30.0,4.0,0.0
541,78.0,15.0,30.0,4.0,0.0
542,66.0,15.0,40.0,2.0,0.0
543,66.0,0.0,60.0,1.0,0.0
544,69.0,0.0,60.0,0.0,0.0
545,73.0,30.0,30.0,4.0,0.0
546,81.0,0.0,30.0,4.0,0.0
547,66.0,15.0,40.0,2.0,0.0
548,68.0,0.0,60.0,0.0,0.0
549,65.0,0.0,60.0,1.0,0.0
550,74.0,15.0,30.0,4.0,0.0
551,83.0,0.0,30.0,4.0,0.0
552,71.0,0.0,30.0,4.0,0.0
553,80.0,30.0,30.0,4.0,0.0
554,73.0,0.0,30.0,4.0,0.0
555,66.0,15.0,40.0,2.0,0.0
556,81.0,15.0,30.0,4.0,0.0
557,85.0,30.0,30.0,4.0,0.0
558,69.0,0.0,30.0,4.0,0.0
559,66.0,15.0,40.0,2.0,0.0
560,86.0,0.0,30.0,4.0,0.0
561,71.0,15.0,30.0,4.0,0.0
562,83.0,0.0,30.0,4.0,0.0
563,68.0,30.0,30.0,4.0,0.0
564,69.0,15.0,30.0,4.0,0.0
565,85.0,0.0,30.0,4.0,0.0
566,66.0,15.0,40.0,2.0,0.0
567,69.0,30.0,60.0,1.0,0.0
568,66.0,0.0,60.0,0.0,0.0
569,90.0,0.0,30.0,4.0,0.0
570,66.0,0.0,30.0,4.0,0.0
571,71.0,0.0,30.0,4.0,0.0
572,86.0,15.0,30.0,4.0,0.0
573,65.0,15.0,40.0,0.0,0.0
574,66.0,0.0,40.0,2.0,0.0
575,68.0,0.0,40.0,1.0,0.0
576,83.0,30.0,30.0,4.0,0.0
577,68.0,0.0,30.0,4.0,0.0
578,66.0,15.0,40.0,2.0,0.0
579,66.0,0.0,120.0,0.0,0.0
580,85.0,15.0,30.0,4.0,0.0
581,69.0,0.0,30.0,4.0,0.0
582,42.0,0.0,120.0,3.0,0.0
583,69.0,0.0,120.0,1.0,0.0
584,90.0,0.0,30.0,4.0,0.0
585,66.0,30.0,30.0,4.0,0.0
586,62.0,15.0,30.0,4.0,0.0
587,83.0,0.0,30.0,4.0,0.0
588,66.0,15.0,40.0,2.0,0.0
589,59.0,30.0,30.0,4.0,0.0
590,80.0,0.0,30.0,4.0,0.0
591,66.0,15.0,40.0,2.0,0.0
592,81.0,0.0,30.0,4.0,0.0
593,61.0,15.0,30.0,4.0,0.0
594,57.0,30.0,30.0,4.0,0.0
595,90.0,0.0,30.0,4.0,0.0
596,59.0,15.0,30.0,4.0,0.0
597,80.0,0.0,30.0,4.0,0.0
598,66.0,15.0,40.0,2.0,0.0
599,56.0,30.0,30.0,4.0,0.0
600,77.0,0.0,30.0,4.0,0.0
601,66.0,0.0,120.0,2.0,0.0
602,57.0,30.0,30.0,4.0,0.0
603,78.0,0.0,30.0,4.0,0.0
604,42.0,0.0,30.0,4.0,0.0
605,90.0,30.0,30.0,4.0,0.0
606,85.0,30.0,30.0,4.0,0.0
607,45.0,0.0,30.0,4.0,0.0
608,49.0,30.0,30.0,4.0,0.0
609,81.0,0.0,30.0,4.0,0.0
610,78.0,30.0,30.0,4.0,0.0
611,54.0,0.0,30.0,4.0,0.0
612,45.0,0.0,30.0,4.0,0.0
613,85.0,30.0,30.0,4.0,0.0
614,81.0,30.0,30.0,4.0,0.0
615,49.0,0.0,30.0,4.0,0.0
616,78.0,0.0,30.0,4.0,0.0
617,54.0,30.0,30.0,4.0,0.0
618,57.0,0.0,30.0,4.0,0.0
619,73.0,30.0,30.0,4.0,0.0
620,49.0,0.0,30.0,4.0,0.0
621,81.0,30.0,30.0,4.0,0.0
622,54.0,30.0,30.0,4.0,0.0
623,78.0,0.0,30.0,4.0,0.0
624,57.0,30.0,30.0,4.0,0.0
625,73.0,0.0,30.0,4.0,0.0
626,61.0,30.0,30.0,4.0,0.0
627,69.0,0.0,30.0,4.0,0.0
628,54.0,0.0,30.0,4.0,0.0
629,78.0,30.0,30.0,4.0,0.0
630,73.0,30.0,30.0,4.0,0.0
631,57.0,0.0,30.0,4.0,0.0
632,69.0,0.0,30.0,4.0,0.0
633,61.0,30.0,30.0,4.0,0.0
634,66.0,0.0,30.0,1.0,0.0
635,66.0,30.0,30.0,4.0,0.0
636,42.0,45.0,120.0,3.0,0.0
637,66.0,0.0,30.0,0.0,0.0
638,68.0,0.0,30.0,1.0,0.0
639,68.0,0.0,30.0,0.0,0.0
640,68.0,30.0,30.0,4.0,0.0
641,69.0,0.0,30.0,0.0,0.0
642,69.0,30.0,30.0,1.0,0.0
643,69.0,0.0,30.0,4.0,0.0
644,68.0,45.0,60.0,4.0,0.0
645,68.0,0.0,40.0,0.0,0.0
646,68.0,15.0,40.0,1.0,0.0
647,66.0,15.0,40.0,0.0,0.0
648,66.0,0.0,40.0,1.0,0.0
649,66.0,30.0,60.0,4.0,0.0
650,73.0,0.0,40.0,1.0,0.0
651,54.0,15.0,30.0,4.0,0.0
652,73.0,0.0,60.0,4.0,0.0
653,73.0,15.0,40.0,0.0,0.0
654,69.0,0.0,30.0,2.0,0.0
655,54.0,0.0,30.0,3.0,0.0
656,71.0,0.0,30.0,2.0,0.0
657,56.0,30.0,30.0,3.0,0.0
658,56.0,0.0,30.0,4.0,0.0
659,73.0,0.0,30.0,2.0,0.0
660,78.0,0.0,120.0,0.0,0.0
661,78.0,0.0,120.0,1.0,0.0
662,57.0,30.0,30.0,3.0,0.0
663,78.0,1.0,120.0,4.0,0.0
664,57.0,45.0,60.0,4.0,0.0
665,56.0,0.0,40.0,3.0,0.0
666,71.0,14.0,40.0,2.0,0.0
667,56.0,44.0,60.0,4.0,0.0
668,73.0,15.0,40.0,0.0,0.0
669,54.0,0.0,40.0,3.0,0.0
670,73.0,0.0,40.0,1.0,0.0
671,54.0,45.0,60.0,4.0,0.0
672,73.0,1.0,60.0,4.0,0.0
673,69.0,0.0,120.0,2.0,0.0
674,74.0,15.0,40.0,1.0,0.0
675,59.0,30.0,60.0,3.0,0.0
676,59.0,0.0,60.0,4.0,0.0
677,74.0,0.0,60.0,4.0,0.0
678,74.0,0.0,40.0,0.0,0.0
679,71.0,0.0,30.0,0.0,0.0
680,68.0,0.0,120.0,2.0,0.0
681,71.0,0.0,30.0,4.0,0.0
682,71.0,30.0,30.0,1.0,0.0
683,68.0,0.0,15.0,4.0,0.0
684,65.0,45.0,30.0,4.0,0.0
685,68.0,0.0,30.0,0.0,0.0
686,68.0,0.0,30.0,1.0,0.0
687,73.0,0.0,60.0,4.0,0.0
688,73.0,0.0,40.0,0.0,0.0
689,73.0,15.0,40.0,1.0,0.0
690,57.0,30.0,60.0,3.0,0.0
691,57.0,0.0,60.0,4.0,0.0
692,69.0,0.0,30.0,1.0,0.0
693,69.0,0.0,30.0,0.0,0.0
694,69.0,30.0,30.0,4.0,0.0
695,66.0,15.0,120.0,2.0,0.0
696,66.0,30.0,30.0,1.0,0.0
697,66.0,0.0,30.0,0.0,0.0
698,66.0,0.0,15.0,4.0,0.0
699,62.0,0.0,30.0,4.0,0.0
700,56.0,15.0,30.0,4.0,0.0
701,71.0,0.0,40.0,1.0,0.0
702,56.0,30.0,60.0,3.0,0.0
703,71.0,0.0,60.0,4.0,0.0
704,71.0,0.0,40.0,0.0,0.0
705,57.0,0.0,30.0,4.0,0.0
706,68.0,0.0,30.0,4.0,0.0
707,59.0,0.0,30.0,4.0,0.0
708,71.0,0.0,120.0,2.0,0.0
709,68.0,0.0,30.0,1.0,0.0
710,68.0,30.0,30.0,0.0,0.0
711,65.0,0.0,30.0,0.0,0.0
712,65.0,0.0,30.0,1.0,0.0
713,65.0,0.0,30.0,4.0,0.0
714,56.0,30.0,30.0,4.0,0.0
715,54.0,0.0,60.0,3.0,0.0
716,61.0,0.0,40.0,1.0,0.0
717,61.0,15.0,40.0,0.0,0.0
718,61.0,30.0,60.0,4.0,0.0
719,54.0,15.0,30.0,4.0,0.0
720,56.0,0.0,30.0,4.0,0.0
721,68.0,30.0,30.0,2.0,0.0
722,74.0,0.0,120.0,1.0,0.0
723,74.0,0.0,120.0,0.0,0.0
724,59.0,0.0,30.0,4.0,0.0
725,74.0,1.0,120.0,4.0,0.0
726,65.0,0.0,30.0,2.0,0.0
727,56.0,30.0,30.0,4.0,0.0
728,53.0,15.0,30.0,4.0,0.0
729,53.0,0.0,60.0,3.0,0.0
730,59.0,14.0,40.0,2.0,0.0
731,54.0,30.0,30.0,4.0,0.0
732,74.0,0.0,120.0,2.0,0.0
733,71.0,0.0,30.0,1.0,0.0
734,56.0,30.0,30.0,4.0,0.0
735,71.0,0.0,30.0,0.0,0.0
736,71.0,0.0,30.0,4.0,0.0
737,68.0,30.0,30.0,1.0,0.0
738,53.0,0.0,30.0,4.0,0.0
739,68.0,0.0,30.0,4.0,0.0
740,68.0,0.0,30.0,0.0,0.0
741,61.0,0.0,60.0,4.0,0.0
742,54.0,30.0,60.0,3.0,0.0
743,61.0,15.0,40.0,0.0,0.0
744,61.0,0.0,40.0,1.0,0.0
745,54.0,15.0,30.0,4.0,0.0
746,57.0,0.0,30.0,4.0,0.0
747,77.0,1.0,120.0,4.0,0.0
748,56.0,30.0,30.0,4.0,0.0
749,71.0,0.0,30.0,2.0,0.0
750,77.0,0.0,120.0,1.0,0.0
751,77.0,14.0,120.0,0.0,0.0
752,68.0,30.0,30.0,2.0,0.0
753,54.0,0.0,30.0,4.0,0.0
754,56.0,0.0,60.0,3.0,0.0
755,56.0,15.0,30.0,4.0,0.0
756,59.0,0.0,40.0,2.0,0.0
757,57.0,30.0,30.0,4.0,0.0
758,77.0,0.0,120.0,2.0,0.0
759,74.0,30.0,30.0,0.0,0.0
760,74.0,0.0,30.0,1.0,0.0
761,74.0,0.0,30.0,4.0,0.0
762,59.0,0.0,30.0,4.0,0.0
763,71.0,0.0,30.0,0.0,0.0
764,71.0,0.0,30.0,4.0,0.0
765,56.0,30.0,30.0,4.0,0.0
766,71.0,0.0,30.0,1.0,0.0
767,57.0,30.0,60.0,3.0,0.0
768,61.0,0.0,40.0,1.0,0.0
769,61.0,15.0,40.0,0.0,0.0
770,57.0,15.0,30.0,4.0,0.0
771,61.0,0.0,30.0,4.0,0.0
772,80.0,0.0,120.0,0.0,0.0
773,74.0,30.0,30.0,2.0,0.0
774,80.0,14.0,120.0,1.0,0.0
775,80.0,1.0,120.0,4.0,0.0
776,59.0,0.0,30.0,4.0,0.0
777,71.0,0.0,30.0,2.0,0.0
778,57.0,30.0,30.0,4.0,0.0
779,59.0,0.0,40.0,2.0,0.0
780,59.0,0.0,40.0,3.0,0.0
781,59.0,15.0,30.0,4.0,0.0
782,47.0,30.0,30.0,4.0,0.0
783,77.0,0.0,30.0,0.0,0.0
784,80.0,0.0,120.0,2.0,0.0
785,59.0,15.0,40.0,3.0,0.0
786,77.0,0.0,30.0,4.0,0.0
787,59.0,0.0,30.0,4.0,0.0
788,77.0,15.0,30.0,1.0,0.0
789,73.0,30.0,30.0,0.0,0.0
790,73.0,0.0,30.0,1.0,0.0
791,57.0,0.0,30.0,4.0,0.0
792,73.0,0.0,30.0,4.0,0.0
793,59.0,15.0,40.0,3.0,0.0
794,59.0,0.0,60.0,4.0,0.0
795,74.0,15.0,30.0,4.0,0.0
796,74.0,0.0,30.0,1.0,0.0
797,74.0,0.0,30.0,0.0,0.0
798,71.0,30.0,30.0,0.0,0.0
799,71.0,0.0,30.0,1.0,0.0
800,71.0,0.0,30.0,4.0,0.0
801,73.0,0.0,30.0,1.0,0.0
802,77.0,0.0,30.0,2.0,0.0
803,73.0,0.0,30.0,0.0,0.0
804,59.0,15.0,40.0,3.0,0.0
805,73.0,15.0,30.0,4.0,0.0
806,69.0,30.0,30.0,1.0,0.0
807,73.0,0.0,30.0,2.0,0.0
808,69.0,0.0,30.0,4.0,0.0
809,69.0,0.0,30.0,0.0,0.0
810,71.0,15.0,30.0,4.0,0.0
811,59.0,15.0,40.0,3.0,0.0
812,71.0,0.0,30.0,0.0,0.0
813,74.0,0.0,30.0,2.0,0.0
814,71.0,0.0,30.0,1.0,0.0
815,68.0,30.0,30.0,0.0,0.0
816,68.0,0.0,30.0,1.0,0.0
817,68.0,0.0,30.0,4.0,0.0
818,71.0,0.0,30.0,2.0,0.0
819,47.0,0.0,30.0,4.0,0.0
820,59.0,0.0,30.0,4.0,0.0
821,69.0,15.0,30.0,4.0,0.0
822,69.0,0.0,30.0,1.0,0.0
823,59.0,15.0,40.0,3.0,0.0
824,73.0,0.0,30.0,2.0,0.0
825,69.0,0.0,30.0,0.0,0.0
826,57.0,0.0,30.0,4.0,0.0
827,66.0,0.0,30.0,4.0,0.0
828,66.0,30.0,30.0,0.0,0.0
829,69.0,0.0,30.0,2.0,0.0
830,66.0,0.0,30.0,1.0,0.0
831,71.0,0.0,30.0,2.0,0.0
832,68.0,15.0,30.0,4.0,0.0
833,59.0,30.0,60.0,4.0,0.0
834,68.0,0.0,30.0,0.0,0.0
835,59.0,15.0,40.0,3.0,0.0
836,68.0,0.0,30.0,1.0,0.0
837,65.0,0.0,30.0,1.0,0.0
838,68.0,0.0,30.0,2.0,0.0
839,65.0,0.0,30.0,0.0,0.0
840,65.0,0.0,30.0,4.0,0.0
841,69.0,0.0,30.0,2.0,0.0
842,66.0,0.0,30.0,1.0,0.0
843,66.0,0.0,30.0,0.0,0.0
844,66.0,15.0,30.0,4.0,0.0
845,59.0,15.0,40.0,3.0,0.0
846,63.0,0.0,30.0,1.0,0.0
847,63.0,0.0,30.0,4.0,0.0
848,63.0,0.0,30.0,0.0,0.0
849,66.0,30.0,30.0,2.0,0.0
850,65.0,30.0,30.0,0.0,0.0
851,65.0,0.0,30.0,1.0,0.0
852,73.0,15.0,540.0,2.0,0.0
853,56.0,0.0,60.0,4.0,0.0
854,47.0,0.0,90.0,4.0,0.0
855,65.0,0.0,30.0,4.0,0.0
856,59.0,0.0,120.0,3.0,0.0
857,61.0,0.0,30.0,4.0,0.0
858,61.0,0.0,30.0,1.0,0.0
859,61.0,30.0,30.0,0.0,0.0
860,63.0,30.0,30.0,4.0,0.0
861,63.0,0.0,30.0,1.0,0.0
862,63.0,0.0,30.0,0.0,0.0
863,65.0,0.0,30.0,1.0,0.0
864,65.0,30.0,30.0,0.0,0.0
865,49.0,0.0,30.0,4.0,0.0
866,65.0,0.0,30.0,4.0,0.0
867,66.0,0.0,30.0,4.0,0.0
868,66.0,30.0,30.0,1.0,0.0
869,51.0,0.0,30.0,4.0,0.0
870,66.0,0.0,30.0,0.0,0.0
871,68.0,30.0,30.0,0.0,0.0
872,53.0,0.0,30.0,4.0,0.0
873,68.0,0.0,30.0,4.0,0.0
874,68.0,0.0,30.0,1.0,0.0
875,69.0,0.0,30.0,1.0,0.0
876,69.0,0.0,30.0,0.0,0.0
877,54.0,30.0,30.0,4.0,0.0
878,69.0,0.0,30.0,4.0,0.0
879,71.0,0.0,30.0,1.0,0.0
880,71.0,30.0,30.0,0.0,0.0
881,56.0,0.0,30.0,4.0,0.0
882,71.0,0.0,30.0,4.0,0.0
883,58.0,0.0,30.0,4.0,0.0
884,73.0,0.0,30.0,4.0,0.0
885,73.0,30.0,30.0,0.0,0.0
886,58.0,0.0,30.0,3.0,0.0
887,73.0,0.0,30.0,1.0,0.0
888,74.0,30.0,30.0,1.0,0.0
889,59.0,0.0,30.0,3.0,0.0
890,59.0,0.0,30.0,4.0,0.0
891,74.0,0.0,30.0,4.0,0.0
892,74.0,0.0,30.0,0.0,0.0
893,61.0,0.0,30.0,3.0,0.0
894,76.0,60.0,30.0,1.0,0.0
895,76.0,0.0,30.0,0.0,0.0
896,61.0,0.0,30.0,4.0,0.0
897,76.0,0.0,30.0,4.0,0.0
898,61.0,0.0,30.0,4.0,0.0
899,61.0,0.0,30.0,3.0,0.0
900,76.0,0.0,30.0,0.0,0.0
901,76.0,0.0,30.0,4.0,0.0
902,76.0,30.0,30.0,1.0,0.0
903,62.0,0.0,30.0,3.0,0.0
904,78.0,0.0,30.0,0.0,0.0
905,78.0,0.0,30.0,1.0,0.0
906,62.0,0.0,30.0,4.0,0.0
907,78.0,30.0,30.0,4.0,0.0
908,79.0,75.0,30.0,0.0,0.0
909,64.0,0.0,30.0,4.0,0.0
910,79.0,0.0,30.0,4.0,0.0
911,79.0,0.0,30.0,1.0,0.0
912,64.0,0.0,30.0,3.0,0.0
913,64.0,0.0,60.0,4.0,0.0
914,64.0,0.0,60.0,3.0,0.0
915,70.0,0.0,60.0,4.0,0.0
916,68.0,0.0,120.0,4.0,0.0
917,70.0,45.0,60.0,1.0,0.0
918,70.0,0.0,60.0,0.0,0.0
919,71.0,45.0,60.0,0.0,0.0
920,66.0,0.0,40.0,2.0,0.0
921,63.0,15.0,40.0,3.0,0.0
922,71.0,0.0,60.0,1.0,0.0
923,71.0,0.0,60.0,4.0,0.0
924,63.0,0.0,60.0,4.0,0.0
925,62.0,15.0,40.0,4.0,0.0
926,68.0,0.0,60.0,4.0,0.0
927,77.0,0.0,40.0,4.0,0.0
928,62.0,45.0,60.0,3.0,0.0
929,61.0,0.0,40.0,3.0,0.0
930,78.0,15.0,40.0,4.0,0.0
931,61.0,0.0,40.0,4.0,0.0
932,69.0,60.0,60.0,4.0,0.0
933,61.0,0.0,60.0,4.0,0.0
934,61.0,0.0,60.0,3.0,0.0
935,68.0,0.0,60.0,0.0,0.0
936,65.0,0.0,60.0,4.0,0.0
937,68.0,0.0,60.0,4.0,0.0
938,65.0,45.0,60.0,2.0,0.0
939,68.0,0.0,60.0,1.0,0.0
940,60.0,15.0,40.0,3.0,0.0
941,60.0,0.0,60.0,4.0,0.0
942,66.0,0.0,60.0,4.0,0.0
943,66.0,0.0,60.0,2.0,0.0
944,69.0,0.0,60.0,0.0,0.0
945,69.0,0.0,60.0,4.0,0.0
946,69.0,45.0,60.0,1.0,0.0
947,59.0,15.0,40.0,4.0,0.0
948,68.0,45.0,60.0,4.0,0.0
949,77.0,0.0,40.0,4.0,0.0
950,59.0,0.0,60.0,3.0,0.0
951,78.0,0.0,40.0,4.0,0.0
952,69.0,15.0,60.0,4.0,0.0
953,57.0,15.0,40.0,4.0,0.0
954,57.0,0.0,40.0,3.0,0.0
955,48.0,0.0,60.0,4.0,0.0
956,54.0,29.0,60.0,4.0,0.0
957,75.0,0.0,120.0,4.0,0.0
958,81.0,15.0,15.0,4.0,0.0
959,48.0,0.0,60.0,3.0,0.0
960,81.0,30.0,120.0,0.0,0.0
961,78.0,0.0,120.0,1.0,0.0
962,75.0,0.0,120.0,2.0,0.0
963,83.0,30.0,15.0,4.0,0.0
964,81.0,16.0,60.0,4.0,0.0
965,49.0,15.0,40.0,3.0,0.0
966,49.0,0.0,60.0,4.0,0.0
967,80.0,0.0,30.0,4.0,0.0
968,78.0,30.0,30.0,4.0,0.0
969,49.0,0.0,60.0,3.0,0.0
970,57.0,30.0,60.0,4.0,0.0
971,49.0,0.0,60.0,4.0,0.0
972,76.0,0.0,30.0,4.0,0.0
973,51.0,15.0,40.0,3.0,0.0
974,75.0,15.0,30.0,4.0,0.0
975,73.0,15.0,30.0,4.0,0.0
976,51.0,0.0,60.0,3.0,0.0
977,78.0,0.0,120.0,0.0,0.0
978,72.0,0.0,120.0,2.0,0.0
979,51.0,0.0,15.0,4.0,0.0
980,69.0,0.0,120.0,1.0,0.0
981,60.0,29.0,60.0,4.0,0.0
982,78.0,15.0,15.0,4.0,0.0
983,80.0,30.0,15.0,4.0,0.0
984,78.0,16.0,60.0,4.0,0.0
985,52.0,15.0,40.0,3.0,0.0
986,76.0,0.0,30.0,4.0,0.0
987,52.0,0.0,60.0,3.0,0.0
988,52.0,30.0,15.0,4.0,0.0
989,56.0,30.0,60.0,4.0,0.0
990,75.0,30.0,30.0,4.0,0.0
991,73.0,0.0,30.0,4.0,0.0
992,54.0,15.0,40.0,3.0,0.0
993,54.0,30.0,60.0,4.0,0.0
994,72.0,15.0,30.0,4.0,0.0
995,70.0,0.0,30.0,4.0,0.0
996,63.0,15.0,30.0,1.0,0.0
997,54.0,0.0,120.0,4.0,0.0
998,60.0,0.0,120.0,4.0,0.0
999,63.0,0.0,120.0,4.0,0.0
1000,68.0,30.0,60.0,4.0,0.0
1001,68.0,15.0,40.0,0.0,0.0
1002,60.0,0.0,30.0,2.0,0.0
1003,54.0,30.0,120.0,3.0,0.0
1004,68.0,0.0,30.0,1.0,0.0
1005,80.0,0.0,30.0,2.0,0.0
1006,70.0,30.0,30.0,4.0,0.0
1007,78.0,0.0,30.0,2.0,0.0
1008,70.0,0.0,30.0,0.0,0.0
1009,70.0,0.0,30.0,1.0,0.0
1010,72.0,0.0,30.0,1.0,0.0
1011,72.0,0.0,30.0,4.0,0.0
1012,72.0,0.0,30.0,0.0,0.0
1013,76.0,0.0,30.0,2.0,0.0
1014,73.0,30.0,30.0,0.0,0.0
1015,73.0,0.0,30.0,4.0,0.0
1016,73.0,0.0,30.0,1.0,0.0
1017,75.0,0.0,30.0,2.0,0.0
1018,75.0,0.0,30.0,1.0,0.0
1019,75.0,30.0,30.0,0.0,0.0
1020,73.0,0.0,30.0,2.0,0.0
1021,75.0,0.0,30.0,4.0,0.0
1022,72.0,0.0,30.0,2.0,0.0
1023,76.0,30.0,30.0,0.0,0.0
1024,76.0,0.0,30.0,1.0,0.0
1025,76.0,0.0,30.0,4.0,0.0
1026,70.0,0.0,30.0,2.0,0.0
1027,78.0,0.0,30.0,1.0,0.0
1028,78.0,0.0,30.0,4.0,0.0
1029,78.0,30.0,30.0,0.0,0.0
1030,53.0,0.0,30.0,4.0,0.0
1031,61.0,0.0,60.0,4.0,0.0
1032,80.0,0.0,30.0,4.0,0.0
1033,53.0,0.0,30.0,3.0,0.0
1034,68.0,0.0,300.0,2.0,0.0
1035,80.0,0.0,30.0,1.0,0.0
1036,80.0,30.0,30.0,0.0,0.0
1037,81.0,0.0,30.0,0.0,0.0
1038,81.0,0.0,30.0,1.0,0.0
1039,54.0,0.0,30.0,3.0,0.0
1040,54.0,0.0,30.0,4.0,0.0
1041,81.0,0.0,30.0,4.0,0.0
1042,83.0,0.0,30.0,0.0,0.0
1043,56.0,60.0,30.0,3.0,0.0
1044,83.0,0.0,30.0,1.0,0.0
1045,56.0,30.0,15.0,4.0,0.0
1046,83.0,0.0,30.0,4.0,0.0
1047,83.0,0.0,30.0,1.0,0.0
1048,56.0,0.0,30.0,3.0,0.0
1049,56.0,30.0,30.0,4.0,0.0
1050,83.0,0.0,30.0,4.0,0.0
1051,83.0,0.0,30.0,0.0,0.0
1052,85.0,0.0,30.0,1.0,0.0
1053,57.0,0.0,30.0,4.0,0.0
1054,85.0,0.0,30.0,4.0,0.0
1055,85.0,0.0,30.0,0.0,0.0
1056,57.0,30.0,30.0,3.0,0.0
1057,86.0,0.0,30.0,1.0,0.0
1058,59.0,75.0,30.0,4.0,0.0
1059,86.0,0.0,30.0,4.0,0.0
1060,86.0,0.0,30.0,0.0,0.0
1061,59.0,0.0,30.0,3.0,0.0
1062,59.0,0.0,40.0,4.0,0.0
1063,62.0,0.0,60.0,4.0,0.0
1064,77.0,0.0,40.0,1.0,0.0
1065,59.0,45.0,60.0,3.0,0.0
1066,77.0,15.0,40.0,0.0,0.0
1067,68.0,0.0,60.0,4.0,0.0
1068,77.0,0.0,40.0,4.0,0.0
1069,78.0,0.0,40.0,4.0,0.0
1070,57.0,15.0,40.0,4.0,0.0
1071,69.0,0.0,60.0,4.0,0.0
1072,78.0,0.0,40.0,1.0,0.0
1073,69.0,0.0,40.0,2.0,0.0
1074,57.0,0.0,40.0,3.0,0.0
1075,78.0,0.0,40.0,0.0,0.0
1076,61.0,45.0,60.0,4.0,0.0
1077,72.0,0.0,40.0,0.0,0.0
1078,72.0,0.0,40.0,4.0,0.0
1079,66.0,0.0,60.0,4.0,0.0
1080,63.0,45.0,60.0,4.0,0.0
1081,72.0,15.0,40.0,1.0,0.0
1082,57.0,0.0,40.0,4.0,0.0
1083,63.0,0.0,40.0,2.0,0.0
1084,57.0,0.0,60.0,3.0,0.0
1085,56.0,0.0,40.0,3.0,0.0
1086,73.0,0.0,40.0,1.0,0.0
1087,56.0,0.0,40.0,4.0,0.0
1088,68.0,30.0,60.0,4.0,0.0
1089,73.0,0.0,40.0,4.0,0.0
1090,73.0,0.0,40.0,0.0,0.0
1091,64.0,0.0,60.0,4.0,0.0
1092,64.0,15.0,40.0,2.0,0.0
1093,67.0,90.0,60.0,1.0,0.0
1094,55.0,0.0,60.0,2.0,0.0
1095,67.0,0.0,60.0,0.0,0.0
1096,55.0,0.0,30.0,4.0,0.0
1097,67.0,30.0,30.0,4.0,0.0
1098,55.0,0.0,60.0,3.0,0.0
1099,68.0,0.0,30.0,4.0,0.0
1100,56.0,30.0,30.0,4.0,0.0
1101,56.0,0.0,60.0,2.0,0.0
1102,68.0,0.0,60.0,1.0,0.0
1103,68.0,75.0,60.0,0.0,0.0
1104,56.0,0.0,60.0,3.0,0.0
1105,61.0,0.0,60.0,0.0,0.0
1106,61.0,0.0,40.0,2.0,0.0
1107,49.0,0.0,120.0,3.0,0.0
1108,61.0,0.0,60.0,1.0,0.0
1109,49.0,0.0,120.0,4.0,0.0
1110,61.0,15.0,15.0,4.0,0.0
1111,63.0,15.0,15.0,4.0,0.0
1112,64.0,15.0,15.0,4.0,0.0
1113,66.0,30.0,15.0,4.0,0.0
1114,68.0,15.0,30.0,4.0,0.0
1115,61.0,15.0,40.0,2.0,0.0
1116,63.0,30.0,30.0,4.0,0.0
1117,68.0,30.0,60.0,1.0,0.0
1118,73.0,0.0,60.0,0.0,0.0
1119,61.0,15.0,40.0,2.0,0.0
1120,64.0,15.0,30.0,4.0,0.0
1121,61.0,0.0,30.0,4.0,0.0
1122,61.0,15.0,40.0,2.0,0.0
1123,63.0,15.0,30.0,4.0,0.0
1124,72.0,0.0,60.0,0.0,0.0
1125,66.0,30.0,60.0,1.0,0.0
1126,60.0,0.0,30.0,4.0,0.0
1127,37.0,30.0,120.0,4.0,0.0
1128,61.0,15.0,30.0,4.0,0.0
1129,61.0,15.0,40.0,2.0,0.0
1130,49.0,0.0,120.0,4.0,0.0
1131,56.0,30.0,30.0,4.0,0.0
1132,61.0,15.0,40.0,2.0,0.0
1133,57.0,15.0,30.0,4.0,0.0
1134,54.0,0.0,30.0,4.0,0.0
1135,61.0,15.0,40.0,2.0,0.0
1136,73.0,30.0,60.0,1.0,0.0
1137,56.0,15.0,30.0,4.0,0.0
1138,76.0,0.0,60.0,0.0,0.0
1139,61.0,0.0,30.0,4.0,0.0
1140,72.0,0.0,60.0,1.0,0.0
1141,75.0,30.0,60.0,0.0,0.0
1142,61.0,15.0,40.0,2.0,0.0
1143,63.0,15.0,30.0,4.0,0.0
1144,60.0,0.0,30.0,4.0,0.0
1145,61.0,15.0,40.0,2.0,0.0
1146,37.0,0.0,120.0,4.0,0.0
1147,49.0,30.0,120.0,4.0,0.0
1148,61.0,15.0,30.0,4.0,0.0
1149,64.0,30.0,30.0,4.0,0.0
1150,61.0,15.0,40.0,2.0,0.0
1151,66.0,15.0,30.0,4.0,0.0
1152,63.0,0.0,30.0,4.0,0.0
1153,64.0,15.0,30.0,4.0,0.0
1154,61.0,15.0,40.0,2.0,0.0
1155,80.0,0.0,60.0,0.0,0.0
1156,73.0,30.0,60.0,1.0,0.0
1157,68.0,0.0,30.0,4.0,0.0
1158,69.0,15.0,30.0,4.0,0.0
1159,78.0,0.0,60.0,0.0,0.0
1160,72.0,0.0,60.0,1.0,0.0
1161,61.0,15.0,40.0,2.0,0.0
1162,66.0,15.0,30.0,4.0,0.0
1163,61.0,0.0,40.0,2.0,0.0
1164,49.0,30.0,120.0,3.0,0.0
1165,68.0,15.0,15.0,4.0,0.0
1166,49.0,0.0,15.0,4.0,0.0
1167,72.0,0.0,15.0,4.0,0.0
1168,51.0,15.0,15.0,4.0,0.0
1169,52.0,15.0,15.0,4.0,0.0
1170,73.0,0.0,15.0,4.0,0.0
1171,75.0,30.0,15.0,4.0,0.0
1172,54.0,0.0,15.0,4.0,0.0
1173,61.0,15.0,40.0,2.0,0.0
1174,56.0,15.0,30.0,4.0,0.0
1175,76.0,0.0,30.0,4.0,0.0
1176,51.0,0.0,30.0,4.0,0.0
1177,72.0,0.0,30.0,4.0,0.0
1178,52.0,15.0,30.0,4.0,0.0
1179,73.0,0.0,30.0,4.0,0.0
1180,76.0,30.0,60.0,0.0,0.0
1181,73.0,0.0,60.0,1.0,0.0
1182,61.0,15.0,40.0,2.0,0.0
1183,49.0,0.0,30.0,4.0,0.0
1184,68.0,0.0,30.0,4.0,0.0
1185,54.0,0.0,30.0,4.0,0.0
1186,61.0,15.0,40.0,2.0,0.0
1187,69.0,15.0,30.0,4.0,0.0
1188,72.0,0.0,60.0,1.0,0.0
1189,75.0,30.0,60.0,0.0,0.0
1190,51.0,0.0,30.0,4.0,0.0
1191,66.0,0.0,30.0,4.0,0.0
1192,68.0,15.0,30.0,4.0,0.0
1193,52.0,0.0,30.0,4.0,0.0
1194,61.0,15.0,40.0,2.0,0.0
1195,49.0,30.0,30.0,4.0,0.0
1196,64.0,0.0,30.0,4.0,0.0
1197,66.0,0.0,30.0,4.0,0.0
1198,51.0,15.0,30.0,4.0,0.0
1199,61.0,15.0,40.0,2.0,0.0
1200,63.0,0.0,30.0,4.0,0.0
1201,48.0,30.0,30.0,4.0,0.0
1202,61.0,15.0,40.0,2.0,0.0
1203,68.0,0.0,60.0,1.0,0.0
1204,64.0,15.0,30.0,4.0,0.0
1205,49.0,0.0,30.0,4.0,0.0
1206,73.0,30.0,60.0,0.0,0.0
1207,68.0,0.0,30.0,4.0,0.0
1208,52.0,0.0,30.0,4.0,0.0
1209,54.0,0.0,30.0,4.0,0.0
1210,69.0,15.0,30.0,4.0,0.0
1211,72.0,30.0,60.0,0.0,0.0
1212,61.0,15.0,40.0,2.0,0.0
1213,66.0,0.0,60.0,1.0,0.0
1214,66.0,0.0,30.0,4.0,0.0
1215,51.0,0.0,30.0,4.0,0.0
1216,52.0,15.0,30.0,4.0,0.0
1217,68.0,0.0,30.0,4.0,0.0
1218,61.0,15.0,40.0,2.0,0.0
1219,64.0,0.0,30.0,4.0,0.0
1220,73.0,30.0,30.0,4.0,0.0
1221,75.0,0.0,30.0,4.0,0.0
1222,66.0,15.0,30.0,4.0,0.0
1223,61.0,15.0,40.0,2.0,0.0
1224,63.0,30.0,30.0,4.0,0.0
1225,72.0,0.0,30.0,4.0,0.0
1226,61.0,15.0,40.0,2.0,0.0
1227,64.0,15.0,30.0,4.0,0.0
1228,73.0,0.0,30.0,4.0,0.0
1229,73.0,0.0,60.0,0.0,0.0
1230,64.0,30.0,60.0,1.0,0.0
1231,76.0,0.0,30.0,4.0,0.0
1232,68.0,0.0,30.0,4.0,0.0
1233,78.0,15.0,30.0,4.0,0.0
1234,61.0,15.0,40.0,2.0,0.0
1235,69.0,0.0,30.0,4.0,0.0
1236,72.0,0.0,60.0,0.0,0.0
1237,63.0,30.0,60.0,1.0,0.0
1238,75.0,0.0,30.0,4.0,0.0
1239,66.0,0.0,30.0,4.0,0.0
1240,68.0,15.0,30.0,4.0,0.0
1241,76.0,0.0,30.0,4.0,0.0
1242,61.0,15.0,40.0,2.0,0.0
1243,49.0,0.0,120.0,3.0,0.0
1244,72.0,30.0,30.0,4.0,0.0
1245,63.0,0.0,30.0,4.0,0.0
1246,73.0,15.0,30.0,4.0,0.0
1247,64.0,0.0,30.0,4.0,0.0
1248,61.0,15.0,40.0,2.0,0.0
1249,68.0,0.0,30.0,4.0,0.0
1250,60.0,30.0,30.0,4.0,0.0
1251,61.0,0.0,60.0,1.0,0.0
1252,66.0,0.0,60.0,0.0,0.0
1253,61.0,0.0,60.0,4.0,0.0
1254,69.0,15.0,30.0,4.0,0.0
1255,61.0,15.0,40.0,2.0,0.0
1256,66.0,30.0,30.0,4.0,0.0
1257,61.0,15.0,40.0,2.0,0.0
1258,63.0,0.0,60.0,0.0,0.0
1259,54.0,0.0,60.0,4.0,0.0
1260,60.0,0.0,60.0,4.0,0.0
1261,68.0,15.0,30.0,4.0,0.0
1262,60.0,30.0,60.0,1.0,0.0
1263,63.0,0.0,30.0,4.0,0.0
1264,52.0,30.0,60.0,4.0,0.0
1265,49.0,0.0,15.0,4.0,0.0
1266,56.0,0.0,60.0,4.0,0.0
1267,64.0,15.0,30.0,4.0,0.0
1268,61.0,15.0,40.0,2.0,0.0
1269,60.0,0.0,30.0,4.0,0.0
1270,61.0,15.0,40.0,2.0,0.0
1271,61.0,15.0,30.0,4.0,0.0
1272,56.0,30.0,30.0,4.0,0.0
1273,63.0,0.0,60.0,0.0,0.0
1274,66.0,0.0,60.0,1.0,0.0
1275,57.0,15.0,30.0,4.0,0.0
1276,61.0,15.0,40.0,2.0,0.0
1277,54.0,30.0,30.0,4.0,0.0
1278,60.0,0.0,40.0,0.0,0.0
1279,61.0,0.0,40.0,2.0,0.0
1280,56.0,15.0,30.0,4.0,0.0
1281,63.0,15.0,40.0,1.0,0.0
1282,51.0,30.0,30.0,4.0,0.0
1283,61.0,0.0,120.0,0.0,0.0
1284,37.0,30.0,120.0,4.0,0.0
1285,52.0,15.0,30.0,4.0,0.0
1286,68.0,0.0,120.0,1.0,0.0
1287,61.0,15.0,40.0,2.0,0.0
1288,48.0,30.0,30.0,4.0,0.0
1289,49.0,15.0,30.0,4.0,0.0
1290,61.0,15.0,40.0,2.0,0.0
1291,52.0,0.0,30.0,4.0,0.0
1292,56.0,15.0,30.0,4.0,0.0
1293,61.0,15.0,40.0,2.0,0.0
1294,51.0,30.0,30.0,4.0,0.0
1295,52.0,15.0,30.0,4.0,0.0
1296,61.0,15.0,40.0,2.0,0.0
1297,56.0,30.0,30.0,4.0,0.0
1298,49.0,0.0,120.0,3.0,0.0
1299,61.0,15.0,40.0,2.0,0.0
1300,61.0,15.0,30.0,4.0,0.0
1301,55.0,0.0,30.0,4.0,0.0
1302,51.0,30.0,30.0,4.0,0.0
1303,52.0,15.0,30.0,4.0,0.0
1304,56.0,0.0,30.0,4.0,0.0
1305,61.0,15.0,40.0,2.0,0.0
1306,61.0,0.0,30.0,4.0,0.0
1307,56.0,30.0,30.0,4.0,0.0
1308,61.0,15.0,40.0,2.0,0.0
1309,61.0,15.0,30.0,4.0,0.0
1310,64.0,0.0,30.0,4.0,0.0
1311,60.0,30.0,30.0,4.0,0.0
1312,51.0,0.0,30.0,4.0,0.0
1313,61.0,15.0,40.0,2.0,0.0
1314,52.0,15.0,30.0,4.0,0.0
1315,61.0,0.0,30.0,4.0,0.0
1316,56.0,30.0,30.0,4.0,0.0
1317,64.0,0.0,30.0,4.0,0.0
1318,61.0,30.0,90.0,2.0,0.0
1319,68.0,30.0,30.0,4.0,0.0
1320,63.0,30.0,30.0,4.0,0.0
1321,64.0,0.0,30.0,4.0,0.0
1322,68.0,60.0,30.0,4.0,0.0
1323,61.0,0.0,30.0,4.0,0.0
1324,49.0,60.0,30.0,4.0,0.0
1325,76.0,0.0,60.0,4.0,0.0
1326,73.0,0.0,15.0,4.0,0.0
1327,68.0,0.0,60.0,4.0,0.0
1328,61.0,60.0,30.0,4.0,0.0
1329,49.0,0.0,30.0,4.0,0.0
1330,76.0,0.0,60.0,4.0,0.0
1331,73.0,0.0,60.0,4.0,0.0
1332,80.0,0.0,60.0,4.0,0.0
1333,49.0,0.0,30.0,4.0,0.0
1334,61.0,60.0,30.0,4.0,0.0
1335,64.0,60.0,60.0,4.0,0.0
1336,68.0,0.0,60.0,4.0,0.0
1337,61.0,0.0,30.0,4.0,0.0
1338,49.0,0.0,30.0,4.0,0.0
1339,73.0,0.0,15.0,4.0,0.0
1340,68.0,0.0,60.0,4.0,0.0
1341,61.0,0.0,30.0,4.0,0.0
1342,49.0,60.0,30.0,4.0,0.0
1343,76.0,0.0,15.0,4.0,0.0
1344,73.0,0.0,15.0,4.0,0.0
1345,61.0,0.0,30.0,4.0,0.0
1346,49.0,0.0,30.0,4.0,0.0
1347,80.0,0.0,15.0,4.0,0.0
1348,85.0,0.0,30.0,4.0,0.0
1349,76.0,0.0,15.0,4.0,0.0
1350,68.0,0.0,60.0,1.0,0.0
1351,61.0,15.0,40.0,3.0,0.0
1352,73.0,14.0,30.0,0.0,0.0
1353,75.0,30.0,30.0,0.0,0.0
1354,73.0,0.0,30.0,4.0,0.0
1355,76.0,15.0,30.0,0.0,0.0
1356,61.0,0.0,60.0,4.0,0.0
1357,76.0,0.0,30.0,4.0,0.0
1358,61.0,15.0,40.0,3.0,0.0
1359,80.0,30.0,30.0,4.0,0.0
1360,73.0,0.0,120.0,2.0,0.0
1361,80.0,0.0,60.0,1.0,0.0
1362,75.0,0.0,40.0,0.0,0.0
1363,61.0,15.0,40.0,3.0,0.0
1364,61.0,0.0,60.0,4.0,0.0
1365,85.0,15.0,30.0,4.0,0.0
1366,73.0,30.0,30.0,4.0,0.0
1367,49.0,0.0,60.0,4.0,0.0
1368,76.0,15.0,30.0,4.0,0.0
1369,61.0,0.0,40.0,3.0,0.0
1370,73.0,15.0,40.0,0.0,0.0
1371,80.0,30.0,30.0,4.0,0.0
1372,85.0,15.0,30.0,4.0,0.0
1373,47.0,0.0,60.0,4.0,0.0
1374,77.0,0.0,60.0,1.0,0.0
1375,80.0,15.0,40.0,0.0,0.0
1376,59.0,0.0,40.0,3.0,0.0
1377,73.0,30.0,30.0,4.0,0.0
1378,77.0,15.0,30.0,4.0,0.0
1379,85.0,0.0,120.0,0.0,0.0
1380,59.0,15.0,40.0,3.0,0.0
1381,80.0,30.0,30.0,4.0,0.0
1382,59.0,0.0,15.0,4.0,0.0
1383,59.0,15.0,40.0,3.0,0.0
1384,85.0,15.0,30.0,4.0,0.0
1385,71.0,30.0,120.0,2.0,0.0
1386,73.0,0.0,60.0,1.0,0.0
1387,73.0,0.0,30.0,4.0,0.0
1388,59.0,0.0,40.0,3.0,0.0
1389,77.0,15.0,40.0,0.0,0.0
1390,47.0,0.0,60.0,4.0,0.0
1391,77.0,15.0,30.0,4.0,0.0
1392,80.0,0.0,30.0,4.0,0.0
1393,45.0,0.0,60.0,4.0,0.0
1394,66.0,15.0,30.0,1.0,0.0
1395,78.0,0.0,60.0,0.0,0.0
1396,57.0,15.0,40.0,3.0,0.0
1397,85.0,0.0,30.0,4.0,0.0
1398,73.0,0.0,30.0,4.0,0.0
1399,68.0,30.0,30.0,1.0,0.0
1400,78.0,0.0,30.0,4.0,0.0
1401,57.0,15.0,40.0,3.0,0.0
1402,57.0,0.0,60.0,4.0,0.0
1403,69.0,15.0,30.0,1.0,0.0
1404,81.0,30.0,30.0,4.0,0.0
1405,81.0,0.0,60.0,0.0,0.0
1406,57.0,0.0,60.0,4.0,0.0
1407,85.0,15.0,30.0,4.0,0.0
1408,57.0,0.0,40.0,3.0,0.0
1409,69.0,0.0,120.0,2.0,0.0
1410,68.0,15.0,40.0,1.0,0.0
1411,73.0,30.0,30.0,4.0,0.0
1412,57.0,0.0,40.0,3.0,0.0
1413,78.0,15.0,30.0,4.0,0.0
1414,66.0,15.0,40.0,1.0,0.0
1415,45.0,30.0,60.0,4.0,0.0
1416,81.0,0.0,30.0,4.0,0.0
1417,46.0,0.0,60.0,4.0,0.0
1418,85.0,15.0,30.0,4.0,0.0
1419,73.0,0.0,40.0,1.0,0.0
1420,78.0,0.0,60.0,0.0,0.0
1421,58.0,15.0,40.0,3.0,0.0
1422,73.0,30.0,30.0,4.0,0.0
1423,58.0,15.0,40.0,3.0,0.0
1424,78.0,15.0,120.0,1.0,0.0
1425,76.0,15.0,30.0,4.0,0.0
1426,82.0,30.0,30.0,4.0,0.0
1427,70.0,0.0,120.0,2.0,0.0
1428,73.0,0.0,60.0,0.0,0.0
1429,85.0,15.0,30.0,4.0,0.0
1430,58.0,0.0,15.0,4.0,0.0
1431,58.0,0.0,40.0,3.0,0.0
1432,82.0,0.0,30.0,4.0,0.0
1433,58.0,0.0,40.0,3.0,0.0
1434,76.0,15.0,30.0,4.0,0.0
1435,48.0,0.0,60.0,4.0,0.0
1436,73.0,15.0,40.0,1.0,0.0
1437,73.0,30.0,30.0,4.0,0.0
1438,47.0,30.0,60.0,4.0,0.0
1439,66.0,0.0,60.0,1.0,0.0
1440,71.0,0.0,30.0,0.0,0.0
1441,59.0,15.0,40.0,3.0,0.0
1442,74.0,15.0,30.0,4.0,0.0
1443,73.0,0.0,30.0,0.0,0.0
1444,71.0,0.0,30.0,4.0,0.0
1445,59.0,15.0,40.0,3.0,0.0
1446,74.0,0.0,30.0,0.0,0.0
1447,74.0,15.0,30.0,4.0,0.0
1448,78.0,0.0,30.0,4.0,0.0
1449,71.0,0.0,120.0,2.0,0.0
1450,83.0,15.0,30.0,4.0,0.0
1451,59.0,0.0,40.0,3.0,0.0
1452,59.0,30.0,15.0,4.0,0.0
1453,78.0,0.0,60.0,1.0,0.0
1454,73.0,15.0,40.0,0.0,0.0
1455,71.0,30.0,30.0,4.0,0.0
1456,74.0,15.0,30.0,4.0,0.0
1457,59.0,0.0,40.0,3.0,0.0
1458,71.0,15.0,40.0,0.0,0.0
1459,47.0,30.0,60.0,4.0,0.0
1460,78.0,0.0,30.0,4.0,0.0
1461,78.0,0.0,40.0,0.0,0.0
1462,75.0,0.0,60.0,1.0,0.0
1463,57.0,15.0,40.0,3.0,0.0
1464,83.0,15.0,30.0,4.0,0.0
1465,45.0,30.0,60.0,4.0,0.0
1466,71.0,0.0,30.0,4.0,0.0
1467,83.0,15.0,120.0,0.0,0.0
1468,75.0,15.0,30.0,4.0,0.0
1469,57.0,30.0,60.0,4.0,0.0
1470,57.0,15.0,40.0,3.0,0.0
1471,78.0,0.0,30.0,4.0,0.0
1472,69.0,0.0,120.0,2.0,0.0
1473,57.0,0.0,40.0,3.0,0.0
1474,71.0,0.0,60.0,1.0,0.0
1475,57.0,0.0,60.0,4.0,0.0
1476,83.0,15.0,30.0,4.0,0.0
1477,71.0,30.0,30.0,4.0,0.0
1478,75.0,15.0,30.0,4.0,0.0
1479,75.0,0.0,40.0,0.0,0.0
1480,45.0,30.0,60.0,4.0,0.0
1481,57.0,15.0,40.0,3.0,0.0
1482,78.0,0.0,30.0,4.0,0.0
1483,64.0,0.0,30.0,1.0,0.0
1484,76.0,0.0,60.0,0.0,0.0
1485,56.0,15.0,40.0,3.0,0.0
1486,44.0,0.0,60.0,4.0,0.0
1487,83.0,15.0,30.0,4.0,0.0
1488,66.0,0.0,30.0,1.0,0.0
1489,71.0,30.0,30.0,4.0,0.0
1490,68.0,0.0,30.0,1.0,0.0
1491,76.0,15.0,30.0,4.0,0.0
1492,56.0,15.0,40.0,3.0,0.0
1493,80.0,30.0,30.0,4.0,0.0
1494,56.0,0.0,40.0,3.0,0.0
1495,83.0,15.0,30.0,4.0,0.0
1496,56.0,0.0,15.0,4.0,0.0
1497,68.0,0.0,120.0,2.0,0.0
1498,80.0,0.0,60.0,0.0,0.0
1499,66.0,15.0,40.0,1.0,0.0
1500,71.0,30.0,30.0,4.0,0.0
1501,64.0,0.0,40.0,1.0,0.0
1502,76.0,15.0,30.0,4.0,0.0
1503,56.0,15.0,40.0,3.0,0.0
1504,80.0,0.0,30.0,4.0,0.0
1505,71.0,15.0,40.0,1.0,0.0
1506,76.0,0.0,60.0,0.0,0.0
1507,56.0,0.0,40.0,3.0,0.0
1508,83.0,15.0,30.0,4.0,0.0
1509,44.0,30.0,15.0,4.0,0.0
1510,71.0,0.0,30.0,4.0,0.0
1511,56.0,15.0,40.0,3.0,0.0
1512,76.0,0.0,120.0,1.0,0.0
1513,74.0,15.0,30.0,4.0,0.0
1514,80.0,30.0,30.0,4.0,0.0
1515,71.0,0.0,60.0,0.0,0.0
1516,56.0,15.0,40.0,3.0,0.0
1517,83.0,15.0,30.0,4.0,0.0
1518,56.0,0.0,15.0,4.0,0.0
1519,68.0,30.0,120.0,2.0,0.0
1520,80.0,0.0,30.0,4.0,0.0
1521,56.0,15.0,40.0,3.0,0.0
1522,74.0,15.0,30.0,4.0,0.0
1523,44.0,0.0,60.0,4.0,0.0
1524,71.0,0.0,40.0,1.0,0.0
1525,71.0,0.0,30.0,4.0,0.0
1526,64.0,0.0,60.0,1.0,0.0
1527,57.0,15.0,40.0,3.0,0.0
1528,73.0,15.0,30.0,4.0,0.0
1529,45.0,0.0,60.0,4.0,0.0
1530,69.0,0.0,30.0,0.0,0.0
1531,71.0,0.0,30.0,0.0,0.0
1532,69.0,30.0,30.0,4.0,0.0
1533,73.0,0.0,30.0,0.0,0.0
1534,57.0,15.0,40.0,3.0,0.0
1535,73.0,15.0,30.0,4.0,0.0
1536,76.0,0.0,30.0,4.0,0.0
1537,57.0,30.0,15.0,4.0,0.0
1538,76.0,0.0,60.0,1.0,0.0
1539,57.0,15.0,40.0,3.0,0.0
1540,71.0,0.0,40.0,0.0,0.0
1541,69.0,0.0,120.0,2.0,0.0
1542,81.0,15.0,30.0,4.0,0.0
1543,69.0,30.0,30.0,4.0,0.0
1544,45.0,0.0,60.0,4.0,0.0
1545,57.0,15.0,40.0,3.0,0.0
1546,73.0,15.0,30.0,4.0,0.0
1547,69.0,0.0,40.0,0.0,0.0
1548,76.0,30.0,30.0,4.0,0.0
1549,55.0,0.0,40.0,3.0,0.0
1550,73.0,0.0,60.0,1.0,0.0
1551,76.0,15.0,40.0,0.0,0.0
1552,81.0,15.0,30.0,4.0,0.0
1553,43.0,30.0,60.0,4.0,0.0
1554,69.0,0.0,30.0,4.0,0.0
1555,81.0,15.0,120.0,0.0,0.0
1556,55.0,15.0,40.0,3.0,0.0
1557,55.0,0.0,60.0,4.0,0.0
1558,73.0,15.0,30.0,4.0,0.0
1559,76.0,30.0,30.0,4.0,0.0
1560,69.0,0.0,60.0,1.0,0.0
1561,55.0,30.0,60.0,4.0,0.0
1562,55.0,0.0,40.0,3.0,0.0
1563,81.0,15.0,30.0,4.0,0.0
1564,67.0,0.0,120.0,2.0,0.0
1565,69.0,0.0,30.0,4.0,0.0
1566,55.0,0.0,40.0,3.0,0.0
1567,73.0,15.0,30.0,4.0,0.0
1568,43.0,30.0,60.0,4.0,0.0
1569,73.0,15.0,40.0,0.0,0.0
1570,76.0,0.0,30.0,4.0,0.0
1571,62.0,0.0,30.0,1.0,0.0
1572,81.0,15.0,30.0,4.0,0.0
1573,42.0,0.0,60.0,4.0,0.0
1574,54.0,15.0,40.0,3.0,0.0
1575,74.0,0.0,60.0,0.0,0.0
1576,64.0,0.0,30.0,1.0,0.0
1577,69.0,30.0,30.0,4.0,0.0
1578,66.0,15.0,30.0,1.0,0.0
1579,74.0,0.0,30.0,4.0,0.0
1580,54.0,15.0,40.0,3.0,0.0
1581,78.0,0.0,30.0,4.0,0.0
1582,81.0,15.0,30.0,4.0,0.0
1583,64.0,0.0,40.0,1.0,0.0
1584,54.0,30.0,15.0,4.0,0.0
1585,54.0,15.0,40.0,3.0,0.0
1586,78.0,0.0,60.0,0.0,0.0
1587,66.0,0.0,120.0,2.0,0.0
1588,69.0,30.0,30.0,4.0,0.0
1589,62.0,0.0,40.0,1.0,0.0
1590,54.0,15.0,40.0,3.0,0.0
1591,74.0,15.0,30.0,4.0,0.0
1592,78.0,30.0,30.0,4.0,0.0
1593,81.0,15.0,30.0,4.0,0.0
1594,69.0,0.0,40.0,1.0,0.0
1595,54.0,15.0,40.0,3.0,0.0
1596,74.0,30.0,60.0,0.0,0.0
1597,42.0,0.0,15.0,4.0,0.0
1598,69.0,0.0,30.0,4.0,0.0
1599,74.0,15.0,30.0,4.0,0.0
1600,74.0,0.0,120.0,1.0,0.0
1601,54.0,15.0,40.0,3.0,0.0
1602,78.0,0.0,30.0,4.0,0.0
1603,69.0,30.0,60.0,0.0,0.0
1604,54.0,15.0,40.0,3.0,0.0
1605,81.0,15.0,30.0,4.0,0.0
1606,54.0,30.0,15.0,4.0,0.0
1607,66.0,30.0,120.0,2.0,0.0
1608,78.0,0.0,30.0,4.0,0.0
1609,54.0,0.0,40.0,3.0,0.0
1610,42.0,0.0,60.0,4.0,0.0
1611,69.0,15.0,40.0,1.0,0.0
1612,74.0,15.0,30.0,4.0,0.0
1613,78.0,0.0,30.0,4.0,0.0
1614,54.0,0.0,120.0,3.0,0.0
1615,68.0,15.0,40.0,0.0,0.0
1616,68.0,0.0,40.0,2.0,0.0
1617,72.0,0.0,30.0,4.0,0.0
1618,42.0,15.0,30.0,4.0,0.0
1619,63.0,0.0,60.0,1.0,0.0
1620,68.0,0.0,30.0,4.0,0.0
1621,66.0,30.0,30.0,4.0,0.0
1622,63.0,15.0,30.0,4.0,0.0
1623,72.0,0.0,30.0,4.0,0.0
1624,75.0,0.0,120.0,2.0,0.0
1625,68.0,15.0,40.0,0.0,0.0
1626,60.0,0.0,30.0,4.0,0.0
1627,75.0,30.0,30.0,4.0,0.0
1628,56.0,15.0,30.0,4.0,0.0
1629,80.0,0.0,30.0,4.0,0.0
1630,63.0,0.0,60.0,1.0,0.0
1631,72.0,15.0,40.0,0.0,0.0
1632,68.0,0.0,30.0,4.0,0.0
1633,63.0,30.0,30.0,4.0,0.0
1634,72.0,15.0,40.0,0.0,0.0
1635,72.0,15.0,30.0,4.0,0.0
1636,60.0,0.0,30.0,4.0,0.0
1637,68.0,15.0,120.0,2.0,0.0
1638,75.0,0.0,30.0,4.0,0.0
1639,56.0,30.0,30.0,4.0,0.0
1640,52.0,0.0,60.0,4.0,0.0
1641,80.0,15.0,30.0,4.0,0.0
1642,73.0,0.0,40.0,0.0,0.0
1643,64.0,0.0,60.0,1.0,0.0
1644,52.0,0.0,120.0,3.0,0.0
1645,68.0,30.0,30.0,4.0,0.0
1646,73.0,15.0,40.0,0.0,0.0
1647,64.0,0.0,60.0,4.0,0.0
1648,64.0,15.0,120.0,2.0,0.0
1649,72.0,15.0,30.0,4.0,0.0
1650,75.0,30.0,30.0,4.0,0.0
1651,76.0,0.0,40.0,0.0,0.0
1652,68.0,0.0,60.0,1.0,0.0
1653,80.0,15.0,30.0,4.0,0.0
1654,76.0,30.0,30.0,4.0,0.0
1655,76.0,15.0,40.0,0.0,0.0
1656,61.0,0.0,120.0,2.0,0.0
1657,73.0,15.0,30.0,4.0,0.0
1658,76.0,30.0,30.0,4.0,0.0
1659,70.0,0.0,60.0,1.0,0.0
1660,70.0,15.0,30.0,4.0,0.0
1661,52.0,0.0,120.0,3.0,0.0
1662,66.0,15.0,40.0,0.0,0.0
1663,64.0,30.0,30.0,4.0,0.0
1664,66.0,0.0,30.0,4.0,0.0
1665,73.0,15.0,120.0,2.0,0.0
1666,70.0,0.0,30.0,4.0,0.0
1667,61.0,15.0,30.0,4.0,0.0
1668,66.0,15.0,40.0,0.0,0.0
1669,73.0,0.0,30.0,4.0,0.0
1670,58.0,30.0,30.0,4.0,0.0
1671,70.0,0.0,40.0,0.0,0.0
1672,61.0,0.0,60.0,1.0,0.0
1673,54.0,15.0,30.0,4.0,0.0
1674,78.0,0.0,30.0,4.0,0.0
1675,66.0,30.0,30.0,4.0,0.0
1676,61.0,0.0,30.0,4.0,0.0
1677,70.0,15.0,40.0,0.0,0.0
1678,66.0,15.0,120.0,2.0,0.0
1679,58.0,15.0,30.0,4.0,0.0
1680,70.0,0.0,30.0,4.0,0.0
1681,54.0,30.0,30.0,4.0,0.0
1682,73.0,0.0,30.0,4.0,0.0
1683,71.0,0.0,40.0,0.0,0.0
1684,50.0,0.0,60.0,4.0,0.0
1685,78.0,15.0,30.0,4.0,0.0
1686,50.0,30.0,120.0,3.0,0.0
1687,62.0,30.0,60.0,1.0,0.0
1688,66.0,0.0,30.0,4.0,0.0
1689,62.0,0.0,60.0,4.0,0.0
1690,71.0,15.0,40.0,0.0,0.0
1691,71.0,15.0,30.0,4.0,0.0
1692,62.0,15.0,120.0,2.0,0.0
1693,74.0,0.0,30.0,4.0,0.0
1694,66.0,0.0,60.0,1.0,0.0
1695,78.0,15.0,30.0,4.0,0.0
1696,74.0,0.0,40.0,0.0,0.0
1697,74.0,30.0,30.0,4.0,0.0
1698,59.0,0.0,120.0,2.0,0.0
1699,71.0,15.0,30.0,4.0,0.0
1700,74.0,15.0,40.0,0.0,0.0
1701,74.0,30.0,30.0,4.0,0.0
1702,68.0,15.0,30.0,4.0,0.0
1703,68.0,0.0,60.0,1.0,0.0
1704,64.0,15.0,40.0,0.0,0.0
1705,50.0,30.0,120.0,3.0,0.0
1706,64.0,30.0,30.0,4.0,0.0
1707,62.0,0.0,30.0,4.0,0.0
1708,64.0,15.0,40.0,0.0,0.0
1709,59.0,0.0,30.0,4.0,0.0
1710,71.0,0.0,120.0,2.0,0.0
1711,68.0,15.0,30.0,4.0,0.0
1712,71.0,0.0,30.0,4.0,0.0
1713,56.0,0.0,30.0,4.0,0.0
1714,52.0,0.0,30.0,4.0,0.0
1715,76.0,15.0,30.0,4.0,0.0
1716,68.0,15.0,40.0,0.0,0.0
1717,59.0,30.0,60.0,1.0,0.0
1718,64.0,0.0,30.0,4.0,0.0
1719,59.0,0.0,30.0,4.0,0.0
1720,56.0,0.0,30.0,4.0,0.0
1721,68.0,15.0,30.0,4.0,0.0
1722,68.0,15.0,40.0,0.0,0.0
1723,64.0,15.0,120.0,2.0,0.0
1724,71.0,30.0,30.0,4.0,0.0
1725,52.0,0.0,30.0,4.0,0.0
1726,69.0,0.0,40.0,0.0,0.0
1727,76.0,15.0,30.0,4.0,0.0
1728,49.0,0.0,60.0,4.0,0.0
1729,49.0,30.0,120.0,3.0,0.0
1730,61.0,0.0,60.0,1.0,0.0
1731,64.0,30.0,30.0,4.0,0.0
1732,69.0,15.0,40.0,0.0,0.0
1733,61.0,0.0,60.0,4.0,0.0
1734,61.0,0.0,120.0,2.0,0.0
1735,69.0,15.0,30.0,4.0,0.0
1736,73.0,0.0,30.0,4.0,0.0
1737,76.0,15.0,30.0,4.0,0.0
1738,73.0,15.0,40.0,0.0,0.0
1739,61.0,1.0,240.0,3.0,0.0
1740,64.0,0.0,60.0,1.0,0.0
1741,73.0,0.0,30.0,4.0,0.0
1742,61.0,30.0,30.0,4.0,0.0
1743,57.0,0.0,120.0,2.0,0.0
1744,73.0,15.0,40.0,0.0,0.0
1745,64.0,15.0,30.0,4.0,0.0
1746,69.0,0.0,30.0,4.0,0.0
1747,73.0,0.0,30.0,4.0,0.0
1748,61.0,30.0,30.0,4.0,0.0
1749,74.0,30.0,240.0,0.0,0.0
1750,49.0,0.0,30.0,4.0,0.0
1751,66.0,30.0,30.0,4.0,0.0
1752,66.0,30.0,60.0,1.0,0.0
1753,54.0,0.0,30.0,4.0,0.0
1754,62.0,0.0,30.0,4.0,0.0
1755,57.0,29.0,30.0,4.0,0.0
1756,66.0,0.0,30.0,4.0,0.0
1757,74.0,0.0,120.0,2.0,0.0
1758,61.0,30.0,30.0,4.0,0.0
1759,69.0,0.0,30.0,4.0,0.0
1760,74.0,0.0,30.0,4.0,0.0
1761,47.0,30.0,30.0,4.0,0.0
1762,68.0,0.0,60.0,1.0,0.0
1763,59.0,30.0,240.0,3.0,0.0
1764,71.0,30.0,30.0,4.0,0.0
1765,59.0,0.0,30.0,4.0,0.0
1766,62.0,30.0,30.0,4.0,0.0
1767,71.0,0.0,60.0,2.0,0.0
1768,68.0,0.0,30.0,4.0,0.0
1769,71.0,0.0,30.0,4.0,0.0
1770,59.0,0.0,30.0,4.0,0.0
1771,64.0,0.0,30.0,4.0,0.0
1772,47.0,30.0,30.0,4.0,0.0
1773,68.0,0.0,60.0,1.0,0.0
1774,73.0,30.0,240.0,0.0,0.0
1775,68.0,30.0,60.0,2.0,0.0
1776,61.0,0.0,30.0,4.0,0.0
1777,52.0,0.0,30.0,4.0,0.0
1778,73.0,0.0,120.0,2.0,0.0
1779,56.0,30.0,30.0,4.0,0.0
1780,64.0,0.0,30.0,4.0,0.0
1781,68.0,0.0,30.0,4.0,0.0
1782,59.0,0.0,30.0,4.0,0.0
1783,66.0,0.0,60.0,1.0,0.0
1784,73.0,0.0,30.0,4.0,0.0
1785,45.0,30.0,30.0,4.0,0.0
1786,57.0,0.0,240.0,3.0,0.0
1787,57.0,0.0,30.0,4.0,0.0
1788,69.0,30.0,30.0,4.0,0.0
1789,66.0,30.0,30.0,4.0,0.0
1790,69.0,0.0,60.0,2.0,0.0
1791,61.0,0.0,30.0,4.0,0.0
1792,57.0,0.0,30.0,4.0,0.0
1793,69.0,0.0,30.0,4.0,0.0
1794,71.0,0.0,240.0,0.0,0.0
1795,62.0,30.0,30.0,4.0,0.0
1796,45.0,0.0,30.0,4.0,0.0
1797,66.0,30.0,60.0,1.0,0.0
1798,66.0,0.0,60.0,2.0,0.0
1799,59.0,0.0,30.0,4.0,0.0
1800,50.0,0.0,30.0,4.0,0.0
1801,71.0,0.0,120.0,2.0,0.0
1802,62.0,0.0,30.0,4.0,0.0
1803,54.0,30.0,30.0,4.0,0.0
1804,66.0,30.0,30.0,4.0,0.0
1805,57.0,0.0,30.0,4.0,0.0
1806,64.0,30.0,60.0,1.0,0.0
1807,56.0,0.0,120.0,3.0,0.0
1808,71.0,0.0,30.0,4.0,0.0
1809,44.0,30.0,30.0,4.0,0.0
1810,56.0,0.0,30.0,4.0,0.0
1811,68.0,0.0,30.0,4.0,0.0
1812,68.0,0.0,60.0,2.0,0.0
1813,59.0,0.0,30.0,4.0,0.0
1814,64.0,30.0,30.0,4.0,0.0
1815,56.0,0.0,30.0,4.0,0.0
1816,68.0,30.0,30.0,4.0,0.0
1817,64.0,0.0,120.0,2.0,0.0
1818,69.0,0.0,120.0,0.0,0.0
1819,57.0,30.0,120.0,3.0,0.0
1820,69.0,0.0,120.0,1.0,0.0
1821,45.0,30.0,30.0,4.0,0.0
1822,61.0,0.0,30.0,4.0,0.0
1823,69.0,30.0,30.0,4.0,0.0
1824,49.0,0.0,30.0,4.0,0.0
1825,71.0,30.0,30.0,4.0,0.0
1826,50.0,0.0,30.0,4.0,0.0
1827,73.0,0.0,30.0,4.0,0.0
1828,52.0,0.0,30.0,4.0,0.0
1829,54.0,0.0,30.0,4.0,0.0
1830,74.0,30.0,30.0,4.0,0.0
1831,56.0,30.0,30.0,4.0,0.0
1832,76.0,0.0,30.0,4.0,0.0
1833,78.0,15.0,30.0,4.0,0.0
1834,57.0,0.0,30.0,4.0,0.0
1835,76.0,15.0,40.0,1.0,0.0
1836,59.0,0.0,40.0,2.0,0.0
1837,71.0,0.0,40.0,0.0,0.0
1838,56.0,0.0,40.0,3.0,0.0
1839,80.0,0.0,30.0,4.0,0.0
1840,56.0,30.0,30.0,4.0,0.0
1841,54.0,30.0,30.0,4.0,0.0
1842,81.0,0.0,30.0,4.0,0.0
1843,54.0,0.0,120.0,3.0,0.0
1844,66.0,0.0,120.0,2.0,0.0
1845,73.0,0.0,30.0,0.0,0.0
1846,69.0,0.0,30.0,1.0,0.0
1847,76.0,0.0,30.0,1.0,0.0
1848,56.0,30.0,30.0,4.0,0.0
1849,76.0,0.0,30.0,4.0,0.0
1850,76.0,0.0,30.0,0.0,0.0
1851,78.0,30.0,30.0,0.0,0.0
1852,78.0,0.0,30.0,4.0,0.0
1853,57.0,0.0,30.0,4.0,0.0
1854,78.0,0.0,30.0,1.0,0.0
1855,80.0,0.0,30.0,1.0,0.0
1856,80.0,0.0,30.0,4.0,0.0
1857,59.0,0.0,30.0,4.0,0.0
1858,80.0,30.0,30.0,0.0,0.0
1859,81.0,0.0,30.0,4.0,0.0
1860,61.0,30.0,30.0,4.0,0.0
1861,81.0,0.0,30.0,1.0,0.0
1862,81.0,0.0,30.0,0.0,0.0
1863,68.0,30.0,30.0,2.0,0.0
1864,83.0,0.0,30.0,1.0,0.0
1865,83.0,0.0,30.0,4.0,0.0
1866,62.0,0.0,30.0,4.0,0.0
1867,83.0,0.0,30.0,0.0,0.0
1868,85.0,30.0,30.0,0.0,0.0
1869,85.0,0.0,30.0,1.0,0.0
1870,69.0,0.0,30.0,2.0,0.0
1871,52.0,0.0,30.0,3.0,0.0
1872,64.0,0.0,30.0,4.0,0.0
1873,85.0,0.0,30.0,4.0,0.0
1874,50.0,45.0,30.0,3.0,0.0
1875,86.0,0.0,30.0,0.0,0.0
1876,86.0,0.0,30.0,1.0,0.0
1877,62.0,0.0,30.0,4.0,0.0
1878,86.0,0.0,30.0,4.0,0.0
1879,71.0,0.0,30.0,2.0,0.0
1880,88.0,0.0,40.0,1.0,0.0
1881,88.0,0.0,60.0,4.0,0.0
1882,88.0,0.0,40.0,0.0,0.0
1883,61.0,10.0,60.0,4.0,0.0
1884,49.0,0.0,40.0,3.0,0.0
1885,73.0,15.0,40.0,2.0,0.0
1886,81.0,0.0,40.0,1.0,0.0
1887,50.0,0.0,40.0,3.0,0.0
1888,64.0,10.0,15.0,4.0,0.0
1889,81.0,15.0,40.0,0.0,0.0
1890,78.0,0.0,40.0,2.0,0.0
1891,81.0,45.0,60.0,4.0,0.0
1892,62.0,10.0,15.0,4.0,0.0
1893,61.0,15.0,15.0,4.0,0.0
1894,62.0,0.0,30.0,4.0,0.0
1895,71.0,0.0,40.0,1.0,0.0
1896,76.0,0.0,40.0,2.0,0.0
1897,71.0,0.0,60.0,4.0,0.0
1898,64.0,45.0,60.0,4.0,0.0
1899,71.0,0.0,40.0,0.0,0.0
1900,52.0,15.0,40.0,3.0,0.0
1901,74.0,15.0,40.0,2.0,0.0
1902,52.0,30.0,60.0,4.0,0.0
1903,80.0,0.0,60.0,4.0,0.0
1904,80.0,0.0,40.0,1.0,0.0
1905,80.0,0.0,40.0,0.0,0.0
1906,40.0,0.0,40.0,3.0,0.0
1907,81.0,0.0,480.0,0.0,0.0
1908,45.0,15.0,40.0,3.0,0.0
1909,45.0,45.0,120.0,4.0,0.0
1910,57.0,0.0,120.0,4.0,0.0
1911,69.0,15.0,30.0,4.0,0.0
1912,73.0,30.0,480.0,2.0,0.0
1913,76.0,0.0,480.0,1.0,0.0
1914,71.0,45.0,30.0,4.0,0.0
1915,45.0,15.0,40.0,3.0,0.0
1916,73.0,0.0,60.0,4.0,0.0
1917,45.0,15.0,40.0,3.0,0.0
1918,71.0,45.0,60.0,4.0,0.0
1919,69.0,30.0,60.0,4.0,0.0
1920,45.0,15.0,40.0,3.0,0.0
1921,61.0,15.0,30.0,4.0,0.0
1922,76.0,0.0,60.0,4.0,0.0
1923,45.0,15.0,40.0,3.0,0.0
1924,62.0,30.0,30.0,4.0,0.0
1925,45.0,15.0,40.0,3.0,0.0
1926,85.0,30.0,120.0,4.0,0.0
1927,64.0,15.0,30.0,4.0,0.0
1928,62.0,30.0,30.0,4.0,0.0
1929,45.0,15.0,40.0,3.0,0.0
1930,66.0,15.0,30.0,4.0,0.0
1931,64.0,0.0,30.0,4.0,0.0
1932,45.0,15.0,40.0,3.0,0.0
1933,62.0,15.0,30.0,4.0,0.0
1934,76.0,0.0,60.0,4.0,0.0
1935,61.0,0.0,30.0,4.0,0.0
1936,83.0,0.0,240.0,0.0,0.0
1937,59.0,15.0,30.0,4.0,0.0
1938,68.0,0.0,30.0,4.0,0.0
1939,68.0,30.0,240.0,2.0,0.0
1940,74.0,30.0,480.0,1.0,0.0
1941,45.0,15.0,40.0,3.0,0.0
1942,61.0,30.0,30.0,4.0,0.0
1943,69.0,0.0,30.0,4.0,0.0
1944,45.0,15.0,40.0,3.0,0.0
1945,62.0,15.0,30.0,4.0,0.0
1946,71.0,30.0,60.0,4.0,0.0
1947,61.0,0.0,30.0,4.0,0.0
1948,62.0,15.0,30.0,4.0,0.0
1949,69.0,30.0,60.0,4.0,0.0
1950,45.0,15.0,40.0,3.0,0.0
1951,61.0,0.0,30.0,4.0,0.0
1952,45.0,15.0,40.0,3.0,0.0
1953,59.0,15.0,30.0,4.0,0.0
1954,68.0,0.0,60.0,4.0,0.0
1955,57.0,0.0,30.0,4.0,0.0
1956,56.0,15.0,30.0,4.0,0.0
1957,45.0,15.0,40.0,3.0,0.0
1958,74.0,0.0,60.0,4.0,0.0
1959,80.0,0.0,240.0,0.0,0.0
1960,71.0,0.0,240.0,2.0,0.0
1961,57.0,30.0,30.0,4.0,0.0
1962,45.0,15.0,40.0,3.0,0.0
1963,83.0,30.0,120.0,4.0,0.0
1964,56.0,15.0,30.0,4.0,0.0
1965,54.0,30.0,30.0,4.0,0.0
1966,52.0,15.0,30.0,4.0,0.0
1967,45.0,15.0,40.0,3.0,0.0
1968,50.0,0.0,30.0,4.0,0.0
1969,45.0,15.0,40.0,3.0,0.0
1970,49.0,15.0,30.0,4.0,0.0
1971,74.0,0.0,60.0,4.0,0.0
1972,47.0,0.0,30.0,4.0,0.0
1973,81.0,15.0,40.0,0.0,0.0
1974,73.0,15.0,30.0,4.0,0.0
1975,45.0,0.0,120.0,4.0,0.0
1976,52.0,0.0,120.0,4.0,0.0
1977,57.0,0.0,120.0,4.0,0.0
1978,73.0,0.0,120.0,2.0,0.0
1979,76.0,30.0,120.0,1.0,0.0
1980,45.0,0.0,120.0,3.0,0.0
1981,74.0,45.0,30.0,4.0,0.0
1982,69.0,15.0,40.0,0.0,0.0
1983,76.0,0.0,60.0,4.0,0.0
1984,73.0,15.0,40.0,0.0,0.0
1985,76.0,15.0,30.0,4.0,0.0
1986,78.0,45.0,30.0,4.0,0.0
1987,79.0,45.0,60.0,4.0,0.0
1988,76.0,15.0,40.0,0.0,0.0
1989,70.0,30.0,60.0,4.0,0.0
1990,66.0,15.0,40.0,0.0,0.0
1991,70.0,0.0,40.0,1.0,0.0
1992,54.0,0.0,60.0,4.0,0.0
1993,64.0,30.0,60.0,4.0,0.0
1994,64.0,15.0,40.0,2.0,0.0
1995,85.0,15.0,30.0,0.0,0.0
1996,54.0,0.0,40.0,3.0,0.0
1997,85.0,0.0,30.0,4.0,0.0
1998,83.0,0.0,30.0,0.0,0.0
1999,83.0,0.0,30.0,4.0,0.0
2000,82.0,15.0,30.0,0.0,0.0
2001,56.0,0.0,40.0,3.0,0.0
2002,56.0,30.0,60.0,4.0,0.0
2003,62.0,15.0,40.0,2.0,0.0
2004,82.0,0.0,30.0,4.0,0.0
2005,62.0,0.0,60.0,4.0,0.0
2006,71.0,0.0,40.0,1.0,0.0
2007,80.0,0.0,30.0,4.0,0.0
2008,80.0,0.0,30.0,0.0,0.0
2009,61.0,0.0,60.0,4.0,0.0
2010,58.0,0.0,40.0,3.0,0.0
2011,78.0,0.0,30.0,0.0,0.0
2012,78.0,15.0,30.0,4.0,0.0
2013,58.0,0.0,60.0,4.0,0.0
2014,73.0,0.0,40.0,1.0,0.0
2015,61.0,15.0,40.0,2.0,0.0
2016,76.0,30.0,30.0,0.0,0.0
2017,76.0,0.0,30.0,4.0,0.0
2018,47.0,0.0,120.0,4.0,0.0
2019,59.0,0.0,120.0,4.0,0.0
2020,54.0,0.0,120.0,4.0,0.0
2021,74.0,15.0,30.0,4.0,0.0
2022,74.0,15.0,40.0,0.0,0.0
2023,59.0,30.0,120.0,3.0,0.0
2024,59.0,0.0,120.0,2.0,0.0
2025,66.0,0.0,120.0,1.0,0.0
2026,76.0,45.0,30.0,4.0,0.0
2027,78.0,0.0,60.0,4.0,0.0
2028,71.0,15.0,40.0,0.0,0.0
2029,74.0,15.0,40.0,0.0,0.0
2030,78.0,15.0,30.0,4.0,0.0
2031,80.0,45.0,30.0,4.0,0.0
2032,81.0,45.0,60.0,4.0,0.0
2033,78.0,15.0,40.0,0.0,0.0
2034,68.0,15.0,40.0,0.0,0.0
2035,72.0,30.0,60.0,4.0,0.0
2036,66.0,0.0,40.0,2.0,0.0
2037,72.0,0.0,40.0,1.0,0.0
2038,87.0,15.0,30.0,4.0,0.0
2039,56.0,15.0,40.0,3.0,0.0
2040,66.0,0.0,60.0,4.0,0.0
2041,87.0,0.0,30.0,0.0,0.0
2042,56.0,0.0,60.0,4.0,0.0
2043,85.0,30.0,30.0,0.0,0.0
2044,85.0,0.0,30.0,4.0,0.0
2045,64.0,0.0,60.0,4.0,0.0
2046,58.0,0.0,60.0,4.0,0.0
2047,84.0,15.0,30.0,4.0,0.0
2048,73.0,0.0,40.0,1.0,0.0
2049,84.0,0.0,30.0,0.0,0.0
2050,58.0,0.0,40.0,3.0,0.0
2051,64.0,15.0,40.0,2.0,0.0
2052,82.0,30.0,30.0,0.0,0.0
2053,82.0,0.0,30.0,4.0,0.0
2054,75.0,0.0,40.0,1.0,0.0
2055,63.0,0.0,60.0,4.0,0.0
2056,60.0,0.0,40.0,3.0,0.0
2057,80.0,0.0,30.0,0.0,0.0
2058,63.0,15.0,40.0,2.0,0.0
2059,80.0,15.0,30.0,4.0,0.0
2060,60.0,30.0,60.0,4.0,0.0
2061,78.0,0.0,30.0,0.0,0.0
2062,78.0,0.0,30.0,4.0,0.0
2063,61.0,0.0,120.0,2.0,0.0
2064,56.0,0.0,120.0,4.0,0.0
2065,49.0,30.0,120.0,4.0,0.0
2066,77.0,15.0,40.0,0.0,0.0
2067,68.0,0.0,120.0,1.0,0.0
2068,61.0,0.0,120.0,3.0,0.0
2069,61.0,0.0,120.0,4.0,0.0
2070,77.0,15.0,30.0,4.0,0.0
2071,78.0,30.0,30.0,4.0,0.0
2072,77.0,15.0,40.0,0.0,0.0
2073,80.0,15.0,30.0,4.0,0.0
2074,81.0,0.0,30.0,4.0,0.0
2075,80.0,15.0,40.0,0.0,0.0
2076,83.0,15.0,30.0,4.0,0.0
2077,85.0,30.0,30.0,4.0,0.0
2078,87.0,15.0,30.0,4.0,0.0
2079,83.0,15.0,40.0,0.0,0.0
2080,83.0,45.0,30.0,4.0,0.0
2081,77.0,30.0,60.0,4.0,0.0
2082,73.0,15.0,40.0,0.0,0.0
2083,49.0,0.0,40.0,3.0,0.0
2084,77.0,15.0,40.0,1.0,0.0
2085,71.0,0.0,60.0,4.0,0.0
2086,61.0,0.0,60.0,4.0,0.0
2087,80.0,0.0,30.0,4.0,0.0
2088,71.0,0.0,40.0,2.0,0.0
2089,80.0,15.0,30.0,0.0,0.0
2090,78.0,30.0,30.0,4.0,0.0
2091,78.0,0.0,30.0,0.0,0.0
2092,77.0,0.0,30.0,0.0,0.0
2093,51.0,0.0,40.0,3.0,0.0
2094,69.0,0.0,60.0,4.0,0.0
2095,77.0,15.0,30.0,4.0,0.0
2096,69.0,0.0,40.0,2.0,0.0
2097,63.0,0.0,60.0,4.0,0.0
2098,78.0,15.0,40.0,1.0,0.0
2099,75.0,30.0,30.0,0.0,0.0
2100,75.0,0.0,30.0,4.0,0.0
2101,68.0,0.0,60.0,4.0,0.0
2102,73.0,0.0,30.0,4.0,0.0
2103,53.0,0.0,40.0,3.0,0.0
2104,68.0,0.0,40.0,2.0,0.0
2105,65.0,0.0,60.0,4.0,0.0
2106,80.0,15.0,40.0,1.0,0.0
2107,73.0,15.0,30.0,0.0,0.0
2108,71.0,0.0,30.0,0.0,0.0
2109,71.0,30.0,30.0,4.0,0.0
2110,54.0,15.0,40.0,3.0,0.0
2111,69.0,0.0,30.0,4.0,0.0
2112,69.0,15.0,30.0,0.0,0.0
2113,66.0,0.0,60.0,4.0,0.0
2114,66.0,0.0,40.0,2.0,0.0
2115,73.0,15.0,90.0,1.0,0.0
2116,71.0,0.0,30.0,4.0,0.0
2117,71.0,30.0,30.0,0.0,0.0
2118,68.0,0.0,40.0,2.0,0.0
2119,53.0,15.0,40.0,3.0,0.0
2120,73.0,0.0,30.0,4.0,0.0
2121,73.0,0.0,30.0,0.0,0.0
2122,53.0,0.0,60.0,4.0,0.0
2123,71.0,0.0,30.0,4.0,0.0
2124,71.0,30.0,30.0,0.0,0.0
2125,74.0,0.0,30.0,1.0,0.0
2126,69.0,15.0,40.0,2.0,0.0
2127,69.0,15.0,30.0,0.0,0.0
2128,73.0,0.0,30.0,1.0,0.0
2129,54.0,0.0,40.0,3.0,0.0
2130,69.0,0.0,30.0,4.0,0.0
2131,54.0,0.0,60.0,4.0,0.0
2132,71.0,0.0,30.0,1.0,0.0
2133,68.0,0.0,30.0,4.0,0.0
2134,68.0,30.0,30.0,0.0,0.0
2135,66.0,0.0,30.0,4.0,0.0
2136,56.0,0.0,60.0,4.0,0.0
2137,69.0,15.0,30.0,1.0,0.0
2138,71.0,15.0,40.0,2.0,0.0
2139,56.0,0.0,40.0,3.0,0.0
2140,66.0,0.0,30.0,0.0,0.0
2141,65.0,0.0,30.0,0.0,0.0
2142,65.0,0.0,30.0,4.0,0.0
2143,68.0,30.0,30.0,1.0,0.0
2144,66.0,30.0,120.0,0.0,0.0
2145,57.0,30.0,60.0,4.0,0.0
2146,66.0,15.0,30.0,4.0,0.0
2147,73.0,15.0,40.0,2.0,0.0
2148,66.0,0.0,120.0,1.0,0.0
2149,57.0,0.0,40.0,3.0,0.0
2150,69.0,0.0,30.0,4.0,0.0
2151,56.0,0.0,40.0,3.0,0.0
2152,56.0,0.0,60.0,4.0,0.0
2153,73.0,15.0,30.0,4.0,0.0
2154,71.0,15.0,40.0,2.0,0.0
2155,77.0,0.0,30.0,4.0,0.0
2156,73.0,0.0,40.0,2.0,0.0
2157,57.0,30.0,60.0,4.0,0.0
2158,78.0,15.0,30.0,4.0,0.0
2159,57.0,15.0,40.0,3.0,0.0
2160,73.0,0.0,30.0,4.0,0.0
2161,56.0,45.0,60.0,4.0,0.0
2162,75.0,0.0,40.0,2.0,0.0
2163,78.0,15.0,120.0,0.0,0.0
2164,69.0,15.0,30.0,4.0,0.0
2165,54.0,15.0,40.0,3.0,0.0
2166,66.0,0.0,30.0,4.0,0.0
2167,56.0,0.0,120.0,3.0,0.0
2168,63.0,15.0,120.0,2.0,0.0
2169,60.0,0.0,120.0,4.0,0.0
2170,56.0,0.0,120.0,4.0,0.0
2171,69.0,30.0,30.0,4.0,0.0
2172,75.0,0.0,30.0,4.0,0.0
2173,69.0,15.0,30.0,0.0,0.0
2174,78.0,0.0,120.0,1.0,0.0
2175,66.0,0.0,30.0,0.0,0.0
2176,73.0,30.0,30.0,4.0,0.0
2177,60.0,15.0,40.0,0.0,0.0
2178,68.0,15.0,120.0,2.0,0.0
2179,75.0,15.0,30.0,4.0,0.0
2180,69.0,30.0,30.0,4.0,0.0
2181,75.0,0.0,30.0,1.0,0.0
2182,78.0,15.0,120.0,0.0,0.0
2183,68.0,15.0,30.0,4.0,0.0
2184,72.0,0.0,30.0,1.0,0.0
2185,66.0,45.0,30.0,4.0,0.0
2186,56.0,0.0,120.0,4.0,0.0
2187,60.0,0.0,120.0,4.0,0.0
2188,56.0,30.0,120.0,3.0,0.0
2189,63.0,0.0,40.0,1.0,0.0
2190,69.0,30.0,30.0,4.0,0.0
2191,69.0,0.0,30.0,0.0,0.0
2192,75.0,30.0,30.0,4.0,0.0
2193,78.0,15.0,120.0,1.0,0.0
2194,66.0,0.0,30.0,0.0,0.0
2195,73.0,0.0,30.0,4.0,0.0
2196,60.0,0.0,40.0,0.0,0.0
2197,68.0,0.0,120.0,2.0,0.0
2198,75.0,15.0,30.0,4.0,0.0
2199,69.0,30.0,30.0,4.0,0.0
2200,72.0,15.0,40.0,0.0,0.0
2201,75.0,0.0,30.0,1.0,0.0
2202,68.0,15.0,30.0,4.0,0.0
2203,72.0,0.0,30.0,1.0,0.0
2204,66.0,30.0,30.0,4.0,0.0
2205,68.0,15.0,40.0,1.0,0.0
2206,49.0,0.0,120.0,4.0,0.0
2207,56.0,0.0,120.0,4.0,0.0
2208,61.0,30.0,120.0,4.0,0.0
2209,64.0,15.0,30.0,4.0,0.0
2210,49.0,0.0,120.0,3.0,0.0
2211,73.0,0.0,40.0,0.0,0.0
2212,69.0,30.0,30.0,4.0,0.0
2213,73.0,15.0,30.0,4.0,0.0
2214,68.0,15.0,40.0,0.0,0.0
2215,64.0,0.0,40.0,1.0,0.0
2216,72.0,0.0,30.0,4.0,0.0
2217,64.0,15.0,40.0,0.0,0.0
2218,61.0,0.0,40.0,1.0,0.0
2219,61.0,30.0,120.0,2.0,0.0
2220,73.0,15.0,30.0,4.0,0.0
2221,69.0,30.0,30.0,4.0,0.0
2222,68.0,15.0,30.0,4.0,0.0
2223,64.0,15.0,40.0,1.0,0.0
2224,68.0,0.0,40.0,0.0,0.0
2225,66.0,0.0,30.0,4.0,0.0
2226,68.0,0.0,40.0,1.0,0.0
2227,73.0,15.0,40.0,0.0,0.0
2228,64.0,15.0,30.0,4.0,0.0
2229,61.0,0.0,120.0,4.0,0.0
2230,56.0,0.0,120.0,4.0,0.0
2231,49.0,0.0,120.0,4.0,0.0
2232,49.0,0.0,120.0,3.0,0.0
2233,68.0,30.0,30.0,4.0,0.0
2234,64.0,15.0,40.0,1.0,0.0
2235,68.0,0.0,40.0,0.0,0.0
2236,73.0,15.0,30.0,4.0,0.0
2237,72.0,30.0,30.0,4.0,0.0
2238,64.0,0.0,40.0,0.0,0.0
2239,61.0,45.0,120.0,2.0,0.0
2240,73.0,15.0,30.0,4.0,0.0
2241,61.0,15.0,40.0,1.0,0.0
2242,69.0,30.0,30.0,4.0,0.0
2243,65.0,15.0,40.0,1.0,0.0
2244,83.0,0.0,120.0,0.0,0.0
2245,68.0,15.0,30.0,4.0,0.0
2246,66.0,0.0,30.0,4.0,0.0
2247,65.0,0.0,120.0,4.0,0.0
2248,61.0,30.0,120.0,4.0,0.0
2249,61.0,0.0,120.0,3.0,0.0
2250,68.0,15.0,40.0,1.0,0.0
2251,74.0,30.0,30.0,4.0,0.0
2252,80.0,0.0,30.0,4.0,0.0
2253,83.0,0.0,120.0,1.0,0.0
2254,74.0,30.0,30.0,0.0,0.0
2255,71.0,0.0,30.0,0.0,0.0
2256,78.0,0.0,30.0,4.0,0.0
2257,80.0,15.0,30.0,4.0,0.0
2258,73.0,0.0,120.0,2.0,0.0
2259,65.0,15.0,40.0,0.0,0.0
2260,74.0,30.0,30.0,4.0,0.0
2261,73.0,0.0,30.0,4.0,0.0
2262,83.0,0.0,120.0,0.0,0.0
2263,80.0,30.0,30.0,1.0,0.0
2264,71.0,0.0,30.0,4.0,0.0
2265,77.0,45.0,30.0,1.0,0.0
2266,61.0,0.0,120.0,4.0,0.0
2267,68.0,15.0,40.0,1.0,0.0
2268,65.0,0.0,120.0,4.0,0.0
2269,61.0,30.0,120.0,3.0,0.0
2270,74.0,30.0,30.0,4.0,0.0
2271,83.0,15.0,120.0,1.0,0.0
2272,74.0,30.0,30.0,0.0,0.0
2273,80.0,0.0,30.0,4.0,0.0
2274,78.0,0.0,30.0,4.0,0.0
2275,71.0,0.0,30.0,0.0,0.0
2276,80.0,15.0,30.0,4.0,0.0
2277,65.0,0.0,40.0,0.0,0.0
2278,73.0,30.0,120.0,2.0,0.0
2279,74.0,30.0,30.0,4.0,0.0
2280,77.0,15.0,40.0,0.0,0.0
2281,80.0,0.0,30.0,1.0,0.0
2282,73.0,15.0,30.0,4.0,0.0
2283,77.0,0.0,30.0,1.0,0.0
2284,71.0,0.0,30.0,4.0,0.0
2285,54.0,0.0,120.0,4.0,0.0
2286,66.0,0.0,120.0,4.0,0.0
2287,73.0,0.0,40.0,1.0,0.0
2288,61.0,0.0,120.0,4.0,0.0
2289,78.0,15.0,40.0,0.0,0.0
2290,54.0,0.0,120.0,3.0,0.0
2291,69.0,15.0,30.0,4.0,0.0
2292,73.0,30.0,30.0,4.0,0.0
2293,69.0,0.0,40.0,1.0,0.0
2294,78.0,15.0,30.0,4.0,0.0
2295,73.0,15.0,40.0,0.0,0.0
2296,77.0,30.0,30.0,4.0,0.0
2297,66.0,30.0,120.0,2.0,0.0
2298,66.0,15.0,40.0,1.0,0.0
2299,69.0,0.0,40.0,0.0,0.0
2300,78.0,15.0,30.0,4.0,0.0
2301,74.0,30.0,30.0,4.0,0.0
2302,73.0,15.0,30.0,4.0,0.0
2303,73.0,15.0,40.0,0.0,0.0
2304,69.0,0.0,40.0,1.0,0.0
2305,71.0,0.0,30.0,4.0,0.0
2306,66.0,0.0,120.0,4.0,0.0
2307,61.0,0.0,120.0,4.0,0.0
2308,54.0,0.0,120.0,4.0,0.0
2309,69.0,15.0,30.0,4.0,0.0
2310,73.0,0.0,40.0,1.0,0.0
2311,78.0,15.0,40.0,0.0,0.0
2312,54.0,30.0,120.0,3.0,0.0
2313,73.0,30.0,30.0,4.0,0.0
2314,78.0,15.0,30.0,4.0,0.0
2315,69.0,15.0,40.0,1.0,0.0
2316,73.0,0.0,40.0,0.0,0.0
2317,77.0,0.0,30.0,4.0,0.0
2318,78.0,15.0,30.0,4.0,0.0
2319,66.0,0.0,120.0,2.0,0.0
2320,66.0,15.0,40.0,1.0,0.0
2321,69.0,0.0,40.0,0.0,0.0
2322,71.0,30.0,30.0,4.0,0.0
2323,85.0,0.0,120.0,0.0,0.0
2324,69.0,15.0,40.0,1.0,0.0
2325,69.0,15.0,30.0,4.0,0.0
2326,68.0,45.0,30.0,4.0,0.0
2327,75.0,15.0,40.0,1.0,0.0
2328,63.0,0.0,120.0,3.0,0.0
2329,63.0,0.0,120.0,4.0,0.0
2330,67.0,30.0,120.0,4.0,0.0
2331,76.0,30.0,30.0,4.0,0.0
2332,76.0,0.0,30.0,0.0,0.0
2333,85.0,0.0,120.0,1.0,0.0
2334,82.0,30.0,30.0,4.0,0.0
2335,73.0,0.0,30.0,0.0,0.0
2336,80.0,0.0,30.0,4.0,0.0
2337,75.0,0.0,120.0,2.0,0.0
2338,82.0,15.0,30.0,4.0,0.0
2339,67.0,15.0,40.0,0.0,0.0
2340,76.0,30.0,30.0,4.0,0.0
2341,82.0,0.0,30.0,1.0,0.0
2342,75.0,30.0,30.0,4.0,0.0
2343,85.0,0.0,120.0,0.0,0.0
2344,73.0,0.0,30.0,4.0,0.0
2345,79.0,45.0,30.0,1.0,0.0
2346,63.0,0.0,120.0,3.0,0.0
2347,67.0,0.0,120.0,4.0,0.0
2348,63.0,30.0,120.0,4.0,0.0
2349,70.0,15.0,40.0,1.0,0.0
2350,76.0,30.0,30.0,4.0,0.0
2351,85.0,15.0,120.0,1.0,0.0
2352,76.0,0.0,30.0,0.0,0.0
2353,82.0,30.0,30.0,4.0,0.0
2354,73.0,0.0,30.0,0.0,0.0
2355,80.0,0.0,30.0,4.0,0.0
2356,82.0,15.0,30.0,4.0,0.0
2357,75.0,0.0,120.0,2.0,0.0
2358,67.0,0.0,40.0,0.0,0.0
2359,76.0,30.0,30.0,4.0,0.0
2360,75.0,30.0,30.0,4.0,0.0
2361,82.0,0.0,30.0,1.0,0.0
2362,75.0,15.0,120.0,0.0,0.0
2363,79.0,45.0,30.0,1.0,0.0
2364,73.0,0.0,30.0,4.0,0.0
2365,72.0,0.0,120.0,4.0,0.0
2366,68.0,0.0,120.0,4.0,0.0
2367,56.0,0.0,120.0,3.0,0.0
2368,80.0,0.0,40.0,1.0,0.0
2369,81.0,30.0,30.0,4.0,0.0
2370,75.0,0.0,120.0,1.0,0.0
2371,69.0,30.0,30.0,0.0,0.0
2372,87.0,0.0,30.0,4.0,0.0
2373,85.0,0.0,30.0,4.0,0.0
2374,66.0,30.0,30.0,0.0,0.0
2375,87.0,15.0,30.0,4.0,0.0
2376,60.0,15.0,40.0,0.0,0.0
2377,68.0,45.0,120.0,2.0,0.0
2378,81.0,30.0,30.0,4.0,0.0
2379,75.0,15.0,120.0,0.0,0.0
2380,75.0,0.0,30.0,1.0,0.0
2381,80.0,30.0,30.0,4.0,0.0
2382,72.0,0.0,30.0,1.0,0.0
2383,78.0,0.0,30.0,4.0,0.0
2384,72.0,0.0,120.0,4.0,0.0
2385,68.0,0.0,40.0,1.0,0.0
2386,68.0,0.0,120.0,4.0,0.0
2387,56.0,30.0,120.0,3.0,0.0
2388,81.0,30.0,30.0,4.0,0.0
2389,69.0,30.0,30.0,0.0,0.0
2390,78.0,0.0,120.0,1.0,0.0
2391,87.0,0.0,30.0,4.0,0.0
2392,85.0,0.0,30.0,4.0,0.0
2393,66.0,0.0,30.0,0.0,0.0
2394,87.0,15.0,30.0,4.0,0.0
2395,60.0,15.0,40.0,0.0,0.0
2396,68.0,0.0,120.0,2.0,0.0
2397,81.0,30.0,30.0,4.0,0.0
2398,80.0,0.0,30.0,4.0,0.0
2399,75.0,15.0,30.0,1.0,0.0
2400,80.0,15.0,40.0,0.0,0.0
2401,78.0,30.0,30.0,4.0,0.0
2402,71.0,0.0,30.0,1.0,0.0
2403,73.0,0.0,40.0,1.0,0.0
2404,61.0,0.0,120.0,3.0,0.0
2405,73.0,0.0,120.0,4.0,0.0
2406,80.0,15.0,40.0,0.0,0.0
2407,76.0,15.0,30.0,4.0,0.0
2408,61.0,30.0,120.0,4.0,0.0
2409,80.0,30.0,30.0,4.0,0.0
2410,85.0,15.0,30.0,4.0,0.0
2411,76.0,0.0,40.0,0.0,0.0
2412,68.0,15.0,40.0,1.0,0.0
2413,84.0,0.0,30.0,4.0,0.0
2414,85.0,15.0,30.0,4.0,0.0
2415,64.0,0.0,40.0,1.0,0.0
2416,73.0,30.0,120.0,2.0,0.0
2417,73.0,15.0,40.0,0.0,0.0
2418,78.0,30.0,30.0,4.0,0.0
2419,76.0,15.0,30.0,4.0,0.0
2420,76.0,0.0,40.0,0.0,0.0
2421,68.0,15.0,40.0,1.0,0.0
2422,75.0,0.0,30.0,4.0,0.0
2423,56.0,0.0,120.0,3.0,0.0
2424,59.0,30.0,120.0,4.0,0.0
2425,73.0,0.0,40.0,1.0,0.0
2426,80.0,15.0,40.0,0.0,0.0
2427,68.0,0.0,120.0,4.0,0.0
2428,73.0,15.0,30.0,4.0,0.0
2429,76.0,30.0,30.0,4.0,0.0
2430,68.0,0.0,40.0,1.0,0.0
2431,76.0,15.0,40.0,0.0,0.0
2432,85.0,15.0,30.0,4.0,0.0
2433,84.0,0.0,30.0,4.0,0.0
2434,73.0,0.0,40.0,0.0,0.0
2435,85.0,15.0,30.0,4.0,0.0
2436,73.0,0.0,120.0,2.0,0.0
2437,64.0,15.0,40.0,1.0,0.0
2438,74.0,30.0,30.0,4.0,0.0
2439,76.0,15.0,40.0,0.0,0.0
2440,68.0,0.0,40.0,1.0,0.0
2441,73.0,15.0,30.0,4.0,0.0
2442,71.0,45.0,30.0,4.0,0.0
2443,81.0,0.0,40.0,0.0,0.0
2444,73.0,15.0,40.0,1.0,0.0
2445,57.0,30.0,120.0,3.0,0.0
2446,69.0,0.0,120.0,4.0,0.0
2447,54.0,0.0,120.0,4.0,0.0
2448,76.0,30.0,30.0,4.0,0.0
2449,76.0,0.0,40.0,0.0,0.0
2450,85.0,15.0,30.0,4.0,0.0
2451,69.0,15.0,40.0,1.0,0.0
2452,84.0,0.0,30.0,4.0,0.0
2453,69.0,0.0,120.0,2.0,0.0
2454,73.0,15.0,40.0,0.0,0.0
2455,64.0,0.0,40.0,1.0,0.0
2456,85.0,15.0,30.0,4.0,0.0
2457,69.0,30.0,30.0,4.0,0.0
2458,73.0,0.0,40.0,1.0,0.0
2459,68.0,15.0,30.0,4.0,0.0
2460,76.0,15.0,40.0,0.0,0.0
2461,66.0,45.0,30.0,4.0,0.0
2462,80.0,15.0,40.0,0.0,0.0
2463,73.0,0.0,40.0,1.0,0.0
2464,56.0,30.0,120.0,3.0,0.0
2465,64.0,0.0,120.0,4.0,0.0
2466,56.0,0.0,120.0,4.0,0.0
2467,80.0,30.0,30.0,4.0,0.0
2468,85.0,15.0,30.0,4.0,0.0
2469,76.0,0.0,40.0,0.0,0.0
2470,68.0,15.0,40.0,1.0,0.0
2471,84.0,0.0,30.0,4.0,0.0
2472,64.0,0.0,40.0,1.0,0.0
2473,69.0,0.0,120.0,2.0,0.0
2474,85.0,15.0,30.0,4.0,0.0
2475,73.0,15.0,40.0,0.0,0.0
2476,80.0,30.0,30.0,4.0,0.0
2477,78.0,15.0,30.0,4.0,0.0
2478,68.0,0.0,40.0,1.0,0.0
2479,76.0,15.0,40.0,0.0,0.0
2480,76.0,30.0,30.0,4.0,0.0
2481,73.0,0.0,60.0,1.0,0.0
2482,54.0,0.0,120.0,3.0,0.0
2483,81.0,30.0,60.0,0.0,0.0
2484,66.0,30.0,120.0,4.0,0.0
2485,54.0,0.0,120.0,4.0,0.0
2486,81.0,30.0,30.0,4.0,0.0
2487,78.0,0.0,30.0,4.0,0.0
2488,71.0,15.0,40.0,1.0,0.0
2489,80.0,0.0,40.0,0.0,0.0
2490,76.0,15.0,30.0,4.0,0.0
2491,75.0,0.0,30.0,4.0,0.0
2492,66.0,0.0,120.0,2.0,0.0
2493,78.0,30.0,30.0,4.0,0.0
2494,78.0,0.0,60.0,0.0,0.0
2495,69.0,0.0,60.0,1.0,0.0
2496,75.0,30.0,30.0,4.0,0.0
2497,68.0,0.0,40.0,1.0,0.0
2498,73.0,15.0,30.0,4.0,0.0
2499,76.0,15.0,40.0,0.0,0.0
2500,72.0,30.0,30.0,4.0,0.0
2501,56.0,0.0,120.0,4.0,0.0
2502,48.0,0.0,120.0,4.0,0.0
2503,75.0,30.0,30.0,4.0,0.0
2504,75.0,0.0,60.0,0.0,0.0
2505,66.0,30.0,60.0,1.0,0.0
2506,48.0,0.0,120.0,3.0,0.0
2507,72.0,0.0,30.0,4.0,0.0
2508,70.0,15.0,30.0,4.0,0.0
2509,64.0,15.0,40.0,1.0,0.0
2510,73.0,0.0,40.0,0.0,0.0
2511,68.0,30.0,30.0,4.0,0.0
2512,69.0,30.0,30.0,4.0,0.0
2513,60.0,30.0,120.0,2.0,0.0
2514,72.0,30.0,60.0,0.0,0.0
2515,63.0,0.0,60.0,1.0,0.0
2516,66.0,0.0,30.0,4.0,0.0
2517,70.0,15.0,40.0,0.0,0.0
2518,66.0,0.0,40.0,1.0,0.0
2519,64.0,15.0,30.0,4.0,0.0
2520,63.0,0.0,30.0,4.0,0.0
2521,61.0,0.0,60.0,2.0,0.0
2522,68.0,0.0,60.0,0.0,0.0
2523,64.0,30.0,30.0,4.0,0.0
2524,49.0,0.0,120.0,4.0,0.0
2525,56.0,30.0,120.0,4.0,0.0
2526,64.0,0.0,60.0,1.0,0.0
2527,49.0,0.0,120.0,3.0,0.0
2528,68.0,30.0,30.0,4.0,0.0
2529,73.0,30.0,30.0,4.0,0.0
2530,72.0,0.0,30.0,4.0,0.0
2531,73.0,30.0,30.0,4.0,0.0
2532,68.0,30.0,30.0,4.0,0.0
2533,49.0,30.0,30.0,3.0,0.0
2534,49.0,0.0,30.0,4.0,0.0
2535,76.0,0.0,30.0,4.0,0.0
2536,51.0,0.0,30.0,3.0,0.0
2537,51.0,45.0,30.0,4.0,0.0
2538,73.0,0.0,30.0,4.0,0.0
2539,52.0,15.0,40.0,3.0,0.0
2540,52.0,0.0,60.0,4.0,0.0
2541,80.0,10.0,60.0,4.0,0.0
2542,73.0,0.0,60.0,4.0,0.0
2543,54.0,15.0,40.0,3.0,0.0
2544,56.0,10.0,15.0,4.0,0.0
2545,54.0,10.0,15.0,4.0,0.0
2546,52.0,15.0,15.0,4.0,0.0
2547,54.0,45.0,30.0,4.0,0.0
2548,56.0,15.0,40.0,3.0,0.0
2549,56.0,0.0,60.0,4.0,0.0
2550,68.0,45.0,60.0,4.0,0.0
2551,44.0,30.0,60.0,4.0,0.0
2552,72.0,0.0,60.0,4.0,0.0
2553,44.0,15.0,40.0,3.0,0.0
2554,73.0,15.0,30.0,0.0,0.0
2555,61.0,0.0,120.0,4.0,0.0
2556,56.0,0.0,120.0,4.0,0.0
2557,52.0,0.0,120.0,4.0,0.0
2558,49.0,45.0,120.0,4.0,0.0
2559,73.0,0.0,30.0,4.0,0.0
2560,49.0,15.0,40.0,3.0,0.0
2561,75.0,0.0,30.0,0.0,0.0
2562,75.0,30.0,30.0,4.0,0.0
2563,76.0,0.0,60.0,4.0,0.0
2564,49.0,15.0,40.0,3.0,0.0
2565,76.0,15.0,30.0,0.0,0.0
2566,75.0,0.0,40.0,0.0,0.0
2567,75.0,45.0,60.0,4.0,0.0
2568,49.0,15.0,40.0,3.0,0.0
2569,73.0,0.0,40.0,0.0,0.0
2570,49.0,15.0,40.0,3.0,0.0
2571,73.0,30.0,60.0,4.0,0.0
2572,61.0,0.0,30.0,2.0,0.0
2573,80.0,0.0,40.0,0.0,0.0
2574,76.0,15.0,30.0,1.0,0.0
2575,49.0,15.0,40.0,3.0,0.0
2576,80.0,0.0,60.0,4.0,0.0
2577,61.0,0.0,30.0,4.0,0.0
2578,63.0,0.0,30.0,2.0,0.0
2579,63.0,0.0,30.0,4.0,0.0
2580,78.0,30.0,30.0,1.0,0.0
2581,85.0,5.0,120.0,4.0,0.0
2582,85.0,5.0,120.0,0.0,0.0
2583,49.0,15.0,40.0,3.0,0.0
2584,64.0,15.0,30.0,2.0,0.0
2585,64.0,40.0,60.0,4.0,0.0
2586,80.0,0.0,30.0,1.0,0.0
2587,63.0,45.0,60.0,4.0,0.0
2588,78.0,0.0,40.0,1.0,0.0
2589,49.0,0.0,40.0,3.0,0.0
2590,63.0,10.0,40.0,2.0,0.0
2591,61.0,0.0,40.0,2.0,0.0
2592,49.0,15.0,40.0,3.0,0.0
2593,76.0,15.0,120.0,1.0,0.0
2594,80.0,0.0,40.0,0.0,0.0
2595,61.0,45.0,60.0,4.0,0.0
2596,80.0,0.0,60.0,4.0,0.0
2597,66.0,30.0,60.0,4.0,0.0
2598,66.0,0.0,60.0,2.0,0.0
2599,49.0,0.0,40.0,3.0,0.0
2600,81.0,0.0,40.0,0.0,0.0
2601,81.0,0.0,60.0,4.0,0.0
2602,49.0,15.0,40.0,3.0,0.0
2603,75.0,0.0,30.0,4.0,0.0
2604,78.0,0.0,30.0,4.0,0.0
2605,78.0,15.0,30.0,0.0,0.0
2606,75.0,0.0,120.0,1.0,0.0
2607,72.0,45.0,30.0,4.0,0.0
2608,75.0,0.0,30.0,0.0,0.0
2609,75.0,0.0,30.0,4.0,0.0
2610,80.0,0.0,40.0,0.0,0.0
2611,64.0,0.0,60.0,4.0,0.0
2612,80.0,0.0,60.0,4.0,0.0
2613,64.0,30.0,60.0,2.0,0.0
2614,49.0,15.0,40.0,3.0,0.0
2615,73.0,15.0,30.0,4.0,0.0
2616,73.0,0.0,120.0,1.0,0.0
2617,76.0,0.0,30.0,4.0,0.0
2618,49.0,15.0,40.0,3.0,0.0
2619,76.0,0.0,30.0,0.0,0.0
2620,73.0,0.0,30.0,0.0,0.0
2621,69.0,30.0,30.0,4.0,0.0
2622,73.0,0.0,30.0,4.0,0.0
2623,63.0,30.0,60.0,2.0,0.0
2624,78.0,0.0,60.0,4.0,0.0
2625,63.0,15.0,30.0,4.0,0.0
2626,49.0,15.0,40.0,3.0,0.0
2627,78.0,0.0,40.0,0.0,0.0
2628,64.0,0.0,30.0,4.0,0.0
2629,75.0,0.0,30.0,0.0,0.0
2630,49.0,15.0,40.0,3.0,0.0
2631,75.0,15.0,30.0,4.0,0.0
2632,78.0,0.0,120.0,1.0,0.0
2633,66.0,0.0,30.0,4.0,0.0
2634,72.0,30.0,30.0,0.0,0.0
2635,72.0,0.0,30.0,4.0,0.0
2636,63.0,0.0,30.0,4.0,0.0
2637,49.0,0.0,40.0,3.0,0.0
2638,68.0,30.0,60.0,4.0,0.0
2639,61.0,15.0,30.0,4.0,0.0
2640,61.0,0.0,60.0,2.0,0.0
2641,68.0,15.0,40.0,0.0,0.0
2642,63.0,0.0,30.0,4.0,0.0
2643,75.0,0.0,30.0,1.0,0.0
2644,66.0,15.0,30.0,4.0,0.0
2645,49.0,15.0,40.0,3.0,0.0
2646,81.0,30.0,120.0,4.0,0.0
2647,81.0,15.0,120.0,0.0,0.0
2648,72.0,0.0,30.0,1.0,0.0
2649,63.0,30.0,30.0,4.0,0.0
2650,49.0,0.0,40.0,3.0,0.0
2651,60.0,0.0,60.0,2.0,0.0
2652,60.0,15.0,30.0,4.0,0.0
2653,66.0,0.0,40.0,1.0,0.0
2654,61.0,0.0,30.0,4.0,0.0
2655,49.0,15.0,40.0,3.0,0.0
2656,78.0,15.0,30.0,0.0,0.0
2657,78.0,0.0,30.0,4.0,0.0
2658,63.0,0.0,30.0,4.0,0.0
2659,81.0,15.0,120.0,1.0,0.0
2660,75.0,0.0,30.0,4.0,0.0
2661,60.0,30.0,30.0,4.0,0.0
2662,75.0,0.0,30.0,0.0,0.0
2663,61.0,0.0,60.0,2.0,0.0
2664,68.0,0.0,40.0,0.0,0.0
2665,68.0,0.0,60.0,4.0,0.0
2666,61.0,15.0,30.0,4.0,0.0
2667,49.0,0.0,40.0,3.0,0.0
2668,64.0,30.0,30.0,4.0,0.0
2669,49.0,15.0,40.0,3.0,0.0
2670,63.0,15.0,30.0,4.0,0.0
2671,84.0,0.0,120.0,0.0,0.0
2672,78.0,0.0,30.0,1.0,0.0
2673,84.0,30.0,120.0,4.0,0.0
2674,61.0,30.0,30.0,4.0,0.0
2675,75.0,0.0,30.0,1.0,0.0
2676,66.0,15.0,40.0,1.0,0.0
2677,49.0,0.0,40.0,3.0,0.0
2678,63.0,0.0,60.0,2.0,0.0
2679,63.0,15.0,30.0,4.0,0.0
2680,64.0,0.0,30.0,4.0,0.0
2681,66.0,0.0,30.0,4.0,0.0
2682,81.0,15.0,30.0,4.0,0.0
2683,84.0,0.0,120.0,1.0,0.0
2684,49.0,15.0,40.0,3.0,0.0
2685,81.0,0.0,30.0,0.0,0.0
2686,78.0,0.0,30.0,0.0,0.0
2687,63.0,30.0,30.0,4.0,0.0
2688,78.0,0.0,30.0,4.0,0.0
2689,68.0,15.0,40.0,0.0,0.0
2690,64.0,0.0,60.0,2.0,0.0
2691,49.0,0.0,40.0,3.0,0.0
2692,64.0,15.0,30.0,4.0,0.0
2693,68.0,0.0,30.0,4.0,0.0
2694,81.0,0.0,30.0,1.0,0.0
2695,87.0,30.0,120.0,4.0,0.0
2696,49.0,15.0,40.0,3.0,0.0
2697,87.0,0.0,120.0,0.0,0.0
2698,66.0,15.0,30.0,4.0,0.0
2699,64.0,0.0,30.0,4.0,0.0
2700,78.0,30.0,30.0,1.0,0.0
2701,66.0,15.0,30.0,4.0,0.0
2702,66.0,15.0,40.0,1.0,0.0
2703,49.0,30.0,120.0,3.0,0.0
2704,66.0,0.0,40.0,2.0,0.0
2705,54.0,0.0,30.0,4.0,0.0
2706,66.0,15.0,40.0,2.0,0.0
2707,84.0,15.0,30.0,4.0,0.0
2708,84.0,0.0,30.0,0.0,0.0
2709,66.0,0.0,30.0,4.0,0.0
2710,87.0,0.0,120.0,1.0,0.0
2711,64.0,0.0,30.0,4.0,0.0
2712,80.0,0.0,30.0,4.0,0.0
2713,80.0,0.0,30.0,0.0,0.0
2714,66.0,15.0,40.0,2.0,0.0
2715,66.0,0.0,60.0,4.0,0.0
2716,81.0,0.0,30.0,4.0,0.0
2717,81.0,15.0,30.0,0.0,0.0
2718,78.0,30.0,30.0,4.0,0.0
2719,78.0,0.0,30.0,0.0,0.0
2720,84.0,0.0,30.0,1.0,0.0
2721,80.0,0.0,30.0,0.0,0.0
2722,66.0,15.0,40.0,2.0,0.0
2723,80.0,15.0,30.0,4.0,0.0
2724,76.0,0.0,30.0,4.0,0.0
2725,80.0,30.0,30.0,1.0,0.0
2726,76.0,0.0,30.0,0.0,0.0
2727,81.0,0.0,30.0,1.0,0.0
2728,78.0,0.0,30.0,0.0,0.0
2729,66.0,15.0,40.0,2.0,0.0
2730,78.0,15.0,30.0,4.0,0.0
2731,78.0,30.0,30.0,1.0,0.0
2732,75.0,0.0,30.0,0.0,0.0
2733,54.0,0.0,30.0,4.0,0.0
2734,75.0,0.0,30.0,4.0,0.0
2735,66.0,0.0,30.0,4.0,0.0
2736,80.0,0.0,30.0,1.0,0.0
2737,76.0,15.0,30.0,0.0,0.0
2738,76.0,0.0,30.0,4.0,0.0
2739,66.0,15.0,40.0,2.0,0.0
2740,76.0,30.0,30.0,1.0,0.0
2741,73.0,0.0,30.0,4.0,0.0
2742,73.0,0.0,30.0,0.0,0.0
2743,64.0,0.0,30.0,4.0,0.0
2744,78.0,0.0,30.0,1.0,0.0
2745,66.0,15.0,40.0,2.0,0.0
2746,66.0,0.0,60.0,4.0,0.0
2747,75.0,15.0,30.0,4.0,0.0
2748,75.0,0.0,30.0,0.0,0.0
2749,75.0,30.0,30.0,1.0,0.0
2750,72.0,0.0,30.0,0.0,0.0
2751,72.0,0.0,30.0,4.0,0.0
2752,73.0,0.0,30.0,0.0,0.0
2753,76.0,15.0,30.0,1.0,0.0
2754,73.0,0.0,30.0,4.0,0.0
2755,66.0,15.0,40.0,2.0,0.0
2756,70.0,30.0,30.0,0.0,0.0
2757,73.0,0.0,30.0,1.0,0.0
2758,70.0,0.0,30.0,4.0,0.0
2759,56.0,0.0,30.0,4.0,0.0
2760,63.0,30.0,60.0,4.0,0.0
2761,72.0,30.0,30.0,4.0,0.0
2762,66.0,30.0,120.0,2.0,0.0
2763,72.0,0.0,30.0,0.0,0.0
2764,54.0,30.0,90.0,4.0,0.0
2765,80.0,0.0,540.0,1.0,0.0
2766,68.0,0.0,30.0,0.0,0.0
2767,68.0,0.0,30.0,4.0,0.0
2768,70.0,0.0,30.0,4.0,0.0
2769,70.0,0.0,30.0,0.0,0.0
2770,72.0,0.0,30.0,0.0,0.0
2771,56.0,0.0,30.0,4.0,0.0
2772,71.0,0.0,30.0,4.0,0.0
2773,73.0,0.0,30.0,0.0,0.0
2774,73.0,30.0,30.0,4.0,0.0
2775,58.0,0.0,30.0,4.0,0.0
2776,75.0,30.0,30.0,0.0,0.0
2777,60.0,0.0,30.0,4.0,0.0
2778,75.0,0.0,30.0,4.0,0.0
2779,61.0,0.0,30.0,4.0,0.0
2780,76.0,30.0,30.0,0.0,0.0
2781,76.0,0.0,30.0,4.0,0.0
2782,63.0,0.0,30.0,4.0,0.0
2783,78.0,30.0,30.0,4.0,0.0
2784,78.0,0.0,30.0,0.0,0.0
2785,80.0,0.0,30.0,0.0,0.0
2786,80.0,30.0,30.0,4.0,0.0
2787,65.0,0.0,30.0,4.0,0.0
2788,53.0,0.0,30.0,3.0,0.0
2789,54.0,0.0,30.0,3.0,0.0
2790,81.0,0.0,30.0,0.0,0.0
2791,81.0,45.0,30.0,4.0,0.0
2792,66.0,0.0,30.0,4.0,0.0
2793,56.0,15.0,40.0,3.0,0.0
2794,68.0,0.0,60.0,4.0,0.0
2795,68.0,30.0,30.0,4.0,0.0
2796,83.0,0.0,15.0,4.0,0.0
2797,56.0,0.0,30.0,3.0,0.0
2798,83.0,30.0,15.0,0.0,0.0
2799,85.0,0.0,30.0,0.0,0.0
2800,57.0,0.0,30.0,3.0,0.0
2801,69.0,45.0,30.0,4.0,0.0
2802,85.0,0.0,30.0,4.0,0.0
2803,86.0,0.0,60.0,0.0,0.0
2804,71.0,45.0,60.0,4.0,0.0
2805,59.0,15.0,40.0,3.0,0.0
2806,86.0,0.0,60.0,4.0,0.0
2807,77.0,0.0,40.0,0.0,0.0
2808,59.0,0.0,40.0,3.0,0.0
2809,68.0,0.0,60.0,4.0,0.0
2810,62.0,0.0,60.0,4.0,0.0
2811,59.0,0.0,60.0,4.0,0.0
2812,62.0,15.0,40.0,2.0,0.0
2813,77.0,45.0,60.0,4.0,0.0
2814,61.0,0.0,60.0,4.0,0.0
2815,57.0,0.0,60.0,4.0,0.0
2816,69.0,45.0,60.0,4.0,0.0
2817,81.0,0.0,40.0,1.0,0.0
2818,78.0,0.0,60.0,4.0,0.0
2819,57.0,15.0,40.0,3.0,0.0
2820,78.0,0.0,40.0,0.0,0.0
2821,61.0,0.0,40.0,2.0,0.0
2822,72.0,15.0,40.0,0.0,0.0
2823,66.0,0.0,40.0,2.0,0.0
2824,57.0,0.0,40.0,3.0,0.0
2825,57.0,0.0,60.0,4.0,0.0
2826,75.0,0.0,40.0,1.0,0.0
2827,72.0,0.0,60.0,4.0,0.0
2828,66.0,45.0,60.0,4.0,0.0
2829,63.0,0.0,60.0,4.0,0.0
2830,68.0,45.0,60.0,4.0,0.0
2831,64.0,0.0,60.0,4.0,0.0
2832,56.0,0.0,60.0,4.0,0.0
2833,76.0,0.0,40.0,1.0,0.0
2834,68.0,15.0,40.0,2.0,0.0
2835,56.0,0.0,40.0,3.0,0.0
2836,73.0,0.0,60.0,4.0,0.0
2837,73.0,0.0,40.0,0.0,0.0
2838,67.0,0.0,40.0,1.0,0.0
2839,55.0,105.0,60.0,4.0,0.0
2840,67.0,0.0,60.0,4.0,0.0
2841,67.0,0.0,40.0,0.0,0.0
2842,67.0,0.0,40.0,2.0,0.0
2843,55.0,15.0,40.0,3.0,0.0
2844,68.0,0.0,40.0,1.0,0.0
2845,68.0,0.0,40.0,2.0,0.0
2846,68.0,15.0,40.0,0.0,0.0
2847,68.0,0.0,60.0,4.0,0.0
2848,56.0,90.0,60.0,4.0,0.0
2849,56.0,0.0,40.0,3.0,0.0
2850,61.0,0.0,60.0,1.0,0.0
2851,61.0,15.0,30.0,4.0,0.0
2852,61.0,15.0,40.0,0.0,0.0
2853,49.0,0.0,120.0,3.0,0.0
2854,61.0,30.0,60.0,2.0,0.0
2855,73.0,0.0,30.0,4.0,0.0
2856,61.0,15.0,40.0,0.0,0.0
2857,73.0,15.0,30.0,4.0,0.0
2858,73.0,30.0,30.0,4.0,0.0
2859,63.0,15.0,40.0,0.0,0.0
2860,72.0,15.0,30.0,4.0,0.0
2861,73.0,30.0,30.0,4.0,0.0
2862,64.0,15.0,40.0,0.0,0.0
2863,73.0,15.0,30.0,4.0,0.0
2864,73.0,30.0,30.0,4.0,0.0
2865,74.0,15.0,30.0,4.0,0.0
2866,66.0,15.0,40.0,0.0,0.0
2867,68.0,15.0,40.0,0.0,0.0
2868,73.0,30.0,15.0,4.0,0.0
2869,73.0,30.0,30.0,4.0,0.0
2870,69.0,15.0,40.0,0.0,0.0
2871,72.0,15.0,30.0,4.0,0.0
2872,73.0,30.0,30.0,4.0,0.0
2873,68.0,15.0,40.0,0.0,0.0
2874,73.0,15.0,30.0,4.0,0.0
2875,73.0,30.0,30.0,4.0,0.0
2876,64.0,15.0,40.0,0.0,0.0
2877,49.0,0.0,120.0,3.0,0.0
2878,68.0,0.0,30.0,4.0,0.0
2879,61.0,15.0,30.0,4.0,0.0
2880,73.0,30.0,30.0,4.0,0.0
2881,73.0,15.0,30.0,4.0,0.0
2882,61.0,15.0,40.0,0.0,0.0
2883,73.0,30.0,30.0,4.0,0.0
2884,72.0,15.0,30.0,4.0,0.0
2885,63.0,15.0,40.0,0.0,0.0
2886,73.0,30.0,30.0,4.0,0.0
2887,64.0,15.0,40.0,0.0,0.0
2888,73.0,15.0,30.0,4.0,0.0
2889,73.0,30.0,30.0,4.0,0.0
2890,74.0,15.0,30.0,4.0,0.0
2891,66.0,15.0,40.0,0.0,0.0
2892,73.0,30.0,15.0,4.0,0.0
2893,69.0,15.0,40.0,0.0,0.0
2894,73.0,30.0,30.0,4.0,0.0
2895,72.0,15.0,30.0,4.0,0.0
2896,68.0,15.0,40.0,0.0,0.0
2897,73.0,30.0,30.0,4.0,0.0
2898,66.0,15.0,40.0,0.0,0.0
2899,73.0,15.0,30.0,4.0,0.0
2900,73.0,30.0,30.0,4.0,0.0
2901,49.0,30.0,120.0,3.0,0.0
2902,61.0,15.0,30.0,4.0,0.0
2903,68.0,0.0,30.0,4.0,0.0
2904,64.0,15.0,40.0,0.0,0.0
2905,73.0,30.0,30.0,4.0,0.0
2906,68.0,15.0,30.0,4.0,0.0
2907,76.0,0.0,30.0,4.0,0.0
2908,73.0,15.0,40.0,0.0,0.0
2909,73.0,0.0,30.0,4.0,0.0
2910,72.0,15.0,40.0,0.0,0.0
2911,75.0,15.0,30.0,4.0,0.0
2912,66.0,0.0,30.0,4.0,0.0
2913,73.0,30.0,30.0,4.0,0.0
2914,68.0,15.0,30.0,4.0,0.0
2915,76.0,0.0,30.0,4.0,0.0
2916,73.0,15.0,40.0,0.0,0.0
2917,73.0,30.0,30.0,4.0,0.0
2918,69.0,0.0,30.0,4.0,0.0
2919,75.0,15.0,40.0,0.0,0.0
2920,78.0,15.0,30.0,4.0,0.0
2921,73.0,30.0,30.0,4.0,0.0
2922,73.0,15.0,40.0,0.0,0.0
2923,68.0,15.0,30.0,4.0,0.0
2924,76.0,0.0,30.0,4.0,0.0
2925,73.0,30.0,30.0,4.0,0.0
2926,78.0,0.0,30.0,4.0,0.0
2927,75.0,15.0,40.0,0.0,0.0
2928,69.0,15.0,30.0,4.0,0.0
2929,73.0,30.0,30.0,4.0,0.0
2930,72.0,15.0,40.0,0.0,0.0
2931,66.0,15.0,30.0,4.0,0.0
2932,75.0,0.0,30.0,4.0,0.0
2933,73.0,30.0,30.0,4.0,0.0
2934,68.0,0.0,30.0,4.0,0.0
2935,73.0,15.0,40.0,0.0,0.0
2936,49.0,0.0,120.0,3.0,0.0
2937,76.0,15.0,30.0,4.0,0.0
2938,73.0,30.0,30.0,4.0,0.0
2939,76.0,0.0,30.0,4.0,0.0
2940,73.0,15.0,40.0,0.0,0.0
2941,68.0,15.0,30.0,4.0,0.0
2942,73.0,30.0,30.0,4.0,0.0
2943,72.0,15.0,40.0,0.0,0.0
2944,66.0,15.0,30.0,4.0,0.0
2945,75.0,0.0,30.0,4.0,0.0
2946,73.0,30.0,30.0,4.0,0.0
2947,68.0,0.0,30.0,4.0,0.0
2948,76.0,15.0,30.0,4.0,0.0
2949,73.0,15.0,40.0,0.0,0.0
2950,73.0,30.0,30.0,4.0,0.0
2951,69.0,15.0,30.0,4.0,0.0
2952,75.0,15.0,40.0,0.0,0.0
2953,78.0,0.0,30.0,4.0,0.0
2954,73.0,30.0,30.0,4.0,0.0
2955,68.0,15.0,30.0,4.0,0.0
2956,76.0,0.0,30.0,4.0,0.0
2957,73.0,15.0,40.0,0.0,0.0
2958,73.0,30.0,30.0,4.0,0.0
2959,75.0,15.0,40.0,0.0,0.0
2960,78.0,15.0,30.0,4.0,0.0
2961,69.0,0.0,30.0,4.0,0.0
2962,73.0,30.0,30.0,4.0,0.0
2963,75.0,15.0,30.0,4.0,0.0
2964,66.0,0.0,30.0,4.0,0.0
2965,72.0,15.0,40.0,0.0,0.0
2966,73.0,30.0,30.0,4.0,0.0
2967,73.0,15.0,40.0,0.0,0.0
2968,76.0,15.0,30.0,4.0,0.0
2969,68.0,0.0,30.0,4.0,0.0
2970,49.0,30.0,120.0,3.0,0.0
2971,68.0,15.0,40.0,0.0,0.0
2972,73.0,30.0,15.0,4.0,0.0
2973,64.0,15.0,30.0,4.0,0.0
2974,73.0,0.0,30.0,4.0,0.0
2975,69.0,15.0,40.0,0.0,0.0
2976,74.0,15.0,30.0,4.0,0.0
2977,66.0,0.0,30.0,4.0,0.0
2978,73.0,30.0,30.0,4.0,0.0
2979,63.0,0.0,30.0,4.0,0.0
2980,72.0,15.0,30.0,4.0,0.0
2981,66.0,15.0,40.0,0.0,0.0
2982,73.0,30.0,30.0,4.0,0.0
2983,68.0,15.0,40.0,0.0,0.0
2984,73.0,15.0,30.0,4.0,0.0
2985,64.0,0.0,30.0,4.0,0.0
2986,73.0,30.0,30.0,4.0,0.0
2987,68.0,0.0,30.0,4.0,0.0
2988,76.0,15.0,30.0,4.0,0.0
2989,73.0,15.0,40.0,0.0,0.0
2990,73.0,30.0,30.0,4.0,0.0
2991,66.0,15.0,30.0,4.0,0.0
2992,74.0,0.0,30.0,4.0,0.0
2993,69.0,15.0,40.0,0.0,0.0
2994,73.0,30.0,30.0,4.0,0.0
2995,66.0,15.0,40.0,0.0,0.0
2996,63.0,15.0,30.0,4.0,0.0
2997,72.0,0.0,30.0,4.0,0.0
2998,73.0,30.0,30.0,4.0,0.0
2999,64.0,15.0,30.0,4.0,0.0
3000,73.0,0.0,30.0,4.0,0.0
3001,49.0,30.0,120.0,3.0,0.0
3002,68.0,15.0,40.0,0.0,0.0
3003,73.0,30.0,30.0,4.0,0.0
3004,64.0,30.0,30.0,4.0,0.0
3005,68.0,0.0,30.0,4.0,0.0
3006,68.0,15.0,120.0,0.0,0.0
3007,73.0,0.0,30.0,4.0,0.0
3008,66.0,15.0,30.0,4.0,0.0
3009,70.0,0.0,30.0,4.0,0.0
3010,73.0,30.0,30.0,4.0,0.0
3011,66.0,15.0,40.0,0.0,0.0
3012,63.0,0.0,30.0,4.0,0.0
3013,72.0,15.0,30.0,4.0,0.0
3014,73.0,30.0,30.0,4.0,0.0
3015,64.0,15.0,40.0,0.0,0.0
3016,73.0,15.0,30.0,4.0,0.0
3017,64.0,0.0,30.0,4.0,0.0
3018,73.0,30.0,30.0,4.0,0.0
3019,68.0,30.0,30.0,4.0,0.0
3020,64.0,0.0,30.0,4.0,0.0
3021,64.0,15.0,120.0,0.0,0.0
3022,73.0,30.0,30.0,4.0,0.0
3023,70.0,15.0,30.0,4.0,0.0
3024,66.0,0.0,30.0,4.0,0.0
3025,73.0,30.0,30.0,4.0,0.0
3026,63.0,15.0,40.0,0.0,0.0
3027,72.0,0.0,30.0,4.0,0.0
3028,63.0,15.0,30.0,4.0,0.0
3029,73.0,30.0,30.0,4.0,0.0
3030,64.0,0.0,30.0,4.0,0.0
3031,61.0,0.0,120.0,0.0,0.0
3032,73.0,30.0,15.0,4.0,0.0
3033,64.0,30.0,30.0,4.0,0.0
3034,68.0,0.0,30.0,4.0,0.0
3035,73.0,30.0,30.0,4.0,0.0
3036,70.0,0.0,30.0,4.0,0.0
3037,66.0,30.0,30.0,4.0,0.0
3038,73.0,30.0,30.0,4.0,0.0
3039,68.0,30.0,30.0,4.0,0.0
3040,72.0,0.0,30.0,4.0,0.0
3041,73.0,30.0,30.0,4.0,0.0
3042,70.0,0.0,30.0,4.0,0.0
3043,73.0,30.0,30.0,4.0,0.0
3044,73.0,30.0,30.0,4.0,0.0
3045,75.0,30.0,30.0,4.0,0.0
3046,72.0,0.0,30.0,4.0,0.0
3047,73.0,30.0,15.0,4.0,0.0
3048,76.0,0.0,30.0,4.0,0.0
3049,73.0,30.0,15.0,4.0,0.0
3050,78.0,0.0,30.0,4.0,0.0
3051,75.0,30.0,30.0,4.0,0.0
3052,73.0,30.0,30.0,4.0,0.0
3053,76.0,30.0,30.0,4.0,0.0
3054,80.0,0.0,30.0,4.0,0.0
3055,73.0,30.0,30.0,4.0,0.0
3056,73.0,15.0,30.0,2.0,0.0
3057,80.0,0.0,40.0,1.0,0.0
3058,80.0,15.0,40.0,0.0,0.0
3059,76.0,0.0,30.0,4.0,0.0
3060,61.0,15.0,120.0,3.0,0.0
3061,61.0,0.0,30.0,4.0,0.0
3062,80.0,0.0,30.0,4.0,0.0
3063,63.0,30.0,30.0,4.0,0.0
3064,79.0,0.0,40.0,1.0,0.0
3065,61.0,0.0,60.0,4.0,0.0
3066,85.0,15.0,30.0,4.0,0.0
3067,71.0,0.0,15.0,2.0,0.0
3068,82.0,0.0,40.0,0.0,0.0
3069,83.0,30.0,30.0,4.0,0.0
3070,59.0,30.0,60.0,4.0,0.0
3071,82.0,15.0,30.0,4.0,0.0
3072,80.0,0.0,40.0,1.0,0.0
3073,59.0,0.0,40.0,3.0,0.0
3074,75.0,0.0,40.0,2.0,0.0
3075,83.0,15.0,40.0,0.0,0.0
3076,80.0,0.0,30.0,4.0,0.0
3077,58.0,0.0,40.0,3.0,0.0
3078,85.0,15.0,40.0,0.0,0.0
3079,82.0,0.0,40.0,1.0,0.0
3080,58.0,30.0,60.0,4.0,0.0
3081,79.0,15.0,30.0,4.0,0.0
3082,76.0,0.0,40.0,2.0,0.0
3083,82.0,0.0,30.0,4.0,0.0
3084,63.0,30.0,30.0,4.0,0.0
3085,85.0,0.0,30.0,4.0,0.0
3086,63.0,15.0,120.0,3.0,0.0
3087,88.0,30.0,30.0,4.0,0.0
3088,61.0,0.0,30.0,4.0,0.0
3089,75.0,0.0,60.0,2.0,0.0
3090,79.0,0.0,60.0,1.0,0.0
3091,87.0,15.0,30.0,4.0,0.0
3092,82.0,30.0,60.0,0.0,0.0
3093,63.0,0.0,60.0,4.0,0.0
3094,85.0,0.0,30.0,4.0,0.0
3095,83.0,15.0,30.0,4.0,0.0
3096,51.0,15.0,40.0,3.0,0.0
3097,51.0,30.0,60.0,4.0,0.0
3098,82.0,0.0,30.0,4.0,0.0
3099,75.0,30.0,60.0,2.0,0.0
3100,83.0,0.0,30.0,4.0,0.0
3101,56.0,15.0,30.0,4.0,0.0
3102,75.0,0.0,60.0,1.0,0.0
3103,80.0,15.0,40.0,0.0,0.0
3104,56.0,30.0,120.0,3.0,0.0
3105,68.0,0.0,30.0,4.0,0.0
3106,68.0,15.0,40.0,0.0,0.0
3107,80.0,15.0,15.0,4.0,0.0
3108,79.0,15.0,30.0,4.0,0.0
3109,70.0,15.0,40.0,0.0,0.0
3110,80.0,30.0,30.0,4.0,0.0
3111,71.0,15.0,40.0,0.0,0.0
3112,80.0,15.0,30.0,4.0,0.0
3113,80.0,30.0,30.0,4.0,0.0
3114,73.0,15.0,40.0,0.0,0.0
3115,81.0,15.0,30.0,4.0,0.0
3116,76.0,15.0,40.0,0.0,0.0
3117,80.0,30.0,15.0,4.0,0.0
3118,80.0,30.0,30.0,4.0,0.0
3119,75.0,15.0,40.0,0.0,0.0
3120,79.0,15.0,30.0,4.0,0.0
3121,80.0,30.0,30.0,4.0,0.0
3122,80.0,15.0,30.0,4.0,0.0
3123,73.0,15.0,40.0,0.0,0.0
3124,80.0,30.0,30.0,4.0,0.0
3125,68.0,0.0,30.0,4.0,0.0
3126,75.0,15.0,30.0,4.0,0.0
3127,56.0,30.0,120.0,3.0,0.0
3128,71.0,15.0,40.0,0.0,0.0
3129,80.0,30.0,30.0,4.0,0.0
3130,68.0,15.0,40.0,0.0,0.0
3131,80.0,15.0,30.0,4.0,0.0
3132,80.0,0.0,30.0,4.0,0.0
3133,70.0,15.0,40.0,0.0,0.0
3134,79.0,15.0,30.0,4.0,0.0
3135,80.0,30.0,30.0,4.0,0.0
3136,71.0,15.0,40.0,0.0,0.0
3137,80.0,15.0,15.0,4.0,0.0
3138,73.0,15.0,40.0,0.0,0.0
3139,81.0,15.0,30.0,4.0,0.0
3140,80.0,30.0,15.0,4.0,0.0
3141,76.0,15.0,40.0,0.0,0.0
3142,80.0,30.0,30.0,4.0,0.0
3143,79.0,15.0,30.0,4.0,0.0
3144,75.0,15.0,40.0,0.0,0.0
3145,73.0,15.0,40.0,0.0,0.0
3146,80.0,30.0,15.0,4.0,0.0
3147,80.0,15.0,15.0,4.0,0.0
3148,71.0,15.0,40.0,0.0,0.0
3149,75.0,0.0,30.0,4.0,0.0
3150,68.0,15.0,30.0,4.0,0.0
3151,56.0,30.0,120.0,3.0,0.0
3152,80.0,30.0,30.0,4.0,0.0
3153,75.0,15.0,30.0,4.0,0.0
3154,80.0,15.0,40.0,0.0,0.0
3155,83.0,0.0,30.0,4.0,0.0
3156,80.0,0.0,30.0,4.0,0.0
3157,73.0,15.0,30.0,4.0,0.0
3158,82.0,0.0,30.0,4.0,0.0
3159,79.0,15.0,40.0,0.0,0.0
3160,80.0,30.0,30.0,4.0,0.0
3161,75.0,15.0,30.0,4.0,0.0
3162,80.0,15.0,40.0,0.0,0.0
3163,83.0,0.0,30.0,4.0,0.0
3164,80.0,30.0,30.0,4.0,0.0
3165,76.0,15.0,30.0,4.0,0.0
3166,85.0,0.0,30.0,4.0,0.0
3167,82.0,15.0,40.0,0.0,0.0
3168,80.0,30.0,30.0,4.0,0.0
3169,80.0,15.0,40.0,0.0,0.0
3170,75.0,15.0,30.0,4.0,0.0
3171,83.0,0.0,30.0,4.0,0.0
3172,80.0,30.0,30.0,4.0,0.0
3173,76.0,0.0,30.0,4.0,0.0
3174,85.0,15.0,30.0,4.0,0.0
3175,82.0,15.0,40.0,0.0,0.0
3176,80.0,30.0,30.0,4.0,0.0
3177,73.0,0.0,30.0,4.0,0.0
3178,79.0,15.0,40.0,0.0,0.0
3179,82.0,15.0,30.0,4.0,0.0
3180,80.0,30.0,30.0,4.0,0.0
3181,80.0,15.0,40.0,0.0,0.0
3182,83.0,15.0,30.0,4.0,0.0
3183,75.0,0.0,30.0,4.0,0.0
3184,56.0,0.0,120.0,3.0,0.0
3185,80.0,30.0,30.0,4.0,0.0
3186,80.0,15.0,40.0,0.0,0.0
3187,75.0,15.0,30.0,4.0,0.0
3188,83.0,0.0,30.0,4.0,0.0
3189,80.0,30.0,30.0,4.0,0.0
3190,73.0,0.0,30.0,4.0,0.0
3191,79.0,15.0,40.0,0.0,0.0
3192,82.0,15.0,30.0,4.0,0.0
3193,80.0,30.0,30.0,4.0,0.0
3194,83.0,0.0,30.0,4.0,0.0
3195,75.0,15.0,30.0,4.0,0.0
3196,80.0,15.0,40.0,0.0,0.0
3197,80.0,30.0,30.0,4.0,0.0
3198,85.0,15.0,30.0,4.0,0.0
3199,82.0,15.0,40.0,0.0,0.0
3200,76.0,0.0,30.0,4.0,0.0
3201,80.0,30.0,30.0,4.0,0.0
3202,80.0,15.0,40.0,0.0,0.0
3203,83.0,0.0,30.0,4.0,0.0
3204,75.0,15.0,30.0,4.0,0.0
3205,80.0,30.0,30.0,4.0,0.0
3206,85.0,15.0,30.0,4.0,0.0
3207,76.0,0.0,30.0,4.0,0.0
3208,82.0,15.0,40.0,0.0,0.0
3209,80.0,30.0,30.0,4.0,0.0
3210,82.0,15.0,30.0,4.0,0.0
3211,73.0,0.0,30.0,4.0,0.0
3212,79.0,15.0,40.0,0.0,0.0
3213,80.0,30.0,30.0,4.0,0.0
3214,83.0,15.0,30.0,4.0,0.0
3215,75.0,0.0,30.0,4.0,0.0
3216,56.0,30.0,120.0,3.0,0.0
3217,80.0,15.0,40.0,0.0,0.0
3218,80.0,30.0,15.0,4.0,0.0
3219,71.0,15.0,30.0,4.0,0.0
3220,75.0,15.0,40.0,0.0,0.0
3221,80.0,0.0,15.0,4.0,0.0
3222,73.0,15.0,30.0,4.0,0.0
3223,76.0,15.0,40.0,0.0,0.0
3224,81.0,0.0,30.0,4.0,0.0
3225,80.0,30.0,30.0,4.0,0.0
3226,79.0,15.0,30.0,4.0,0.0
3227,70.0,0.0,30.0,4.0,0.0
3228,73.0,15.0,40.0,0.0,0.0
3229,80.0,30.0,30.0,4.0,0.0
3230,71.0,15.0,30.0,4.0,0.0
3231,80.0,0.0,30.0,4.0,0.0
3232,75.0,15.0,40.0,0.0,0.0
3233,80.0,30.0,30.0,4.0,0.0
3234,83.0,0.0,30.0,4.0,0.0
3235,75.0,15.0,30.0,4.0,0.0
3236,80.0,15.0,40.0,0.0,0.0
3237,80.0,30.0,30.0,4.0,0.0
3238,76.0,15.0,40.0,0.0,0.0
3239,73.0,15.0,30.0,4.0,0.0
3240,81.0,0.0,30.0,4.0,0.0
3241,80.0,30.0,30.0,4.0,0.0
3242,73.0,15.0,40.0,0.0,0.0
3243,70.0,15.0,30.0,4.0,0.0
3244,79.0,0.0,30.0,4.0,0.0
3245,75.0,15.0,40.0,0.0,0.0
3246,71.0,0.0,30.0,4.0,0.0
3247,56.0,0.0,120.0,3.0,0.0
3248,80.0,30.0,15.0,4.0,0.0
3249,80.0,15.0,15.0,4.0,0.0
3250,75.0,15.0,120.0,0.0,0.0
3251,75.0,30.0,30.0,4.0,0.0
3252,71.0,0.0,30.0,4.0,0.0
3253,80.0,30.0,30.0,4.0,0.0
3254,77.0,15.0,30.0,4.0,0.0
3255,73.0,0.0,30.0,4.0,0.0
3256,80.0,30.0,30.0,4.0,0.0
3257,73.0,15.0,40.0,0.0,0.0
3258,70.0,0.0,30.0,4.0,0.0
3259,79.0,15.0,30.0,4.0,0.0
3260,80.0,30.0,30.0,4.0,0.0
3261,71.0,15.0,30.0,4.0,0.0
3262,71.0,15.0,40.0,0.0,0.0
3263,80.0,0.0,30.0,4.0,0.0
3264,80.0,30.0,30.0,4.0,0.0
3265,75.0,30.0,30.0,4.0,0.0
3266,71.0,15.0,120.0,0.0,0.0
3267,71.0,0.0,30.0,4.0,0.0
3268,80.0,30.0,30.0,4.0,0.0
3269,73.0,0.0,30.0,4.0,0.0
3270,77.0,15.0,30.0,4.0,0.0
3271,80.0,30.0,30.0,4.0,0.0
3272,70.0,0.0,30.0,4.0,0.0
3273,79.0,15.0,30.0,4.0,0.0
3274,70.0,15.0,40.0,0.0,0.0
3275,80.0,30.0,30.0,4.0,0.0
3276,71.0,30.0,30.0,4.0,0.0
3277,80.0,0.0,30.0,4.0,0.0
3278,68.0,30.0,60.0,0.0,0.0
3279,80.0,0.0,30.0,4.0,0.0
3280,71.0,30.0,30.0,4.0,0.0
3281,75.0,0.0,30.0,4.0,0.0
3282,80.0,30.0,30.0,4.0,0.0
3283,77.0,30.0,30.0,4.0,0.0
3284,73.0,0.0,30.0,4.0,0.0
3285,80.0,30.0,30.0,4.0,0.0
3286,75.0,30.0,30.0,4.0,0.0
3287,79.0,0.0,30.0,4.0,0.0
3288,80.0,30.0,30.0,4.0,0.0
3289,77.0,30.0,30.0,4.0,0.0
3290,80.0,0.0,15.0,4.0,0.0
3291,79.0,30.0,30.0,4.0,0.0
3292,82.0,0.0,30.0,4.0,0.0
3293,80.0,30.0,15.0,4.0,0.0
3294,83.0,0.0,30.0,4.0,0.0
3295,80.0,30.0,15.0,4.0,0.0
3296,82.0,30.0,30.0,4.0,0.0
3297,85.0,0.0,30.0,4.0,0.0
3298,80.0,30.0,30.0,4.0,0.0
3299,83.0,30.0,30.0,4.0,0.0
3300,87.0,0.0,30.0,4.0,0.0
3301,80.0,30.0,30.0,4.0,0.0
3302,80.0,15.0,120.0,0.0,0.0
3303,83.0,0.0,30.0,4.0,0.0
3304,87.0,30.0,30.0,4.0,0.0
3305,80.0,30.0,30.0,4.0,0.0
3306,88.0,0.0,30.0,4.0,0.0
3307,85.0,15.0,30.0,4.0,0.0
3308,80.0,30.0,30.0,4.0,0.0
3309,80.0,0.0,120.0,1.0,0.0
3310,83.0,0.0,30.0,4.0,0.0
3311,87.0,30.0,30.0,4.0,0.0
3312,75.0,0.0,30.0,0.0,0.0
3313,80.0,30.0,30.0,4.0,0.0
3314,71.0,0.0,30.0,0.0,0.0
3315,68.0,15.0,40.0,0.0,0.0
3316,88.0,0.0,30.0,4.0,0.0
3317,85.0,15.0,30.0,4.0,0.0
3318,80.0,30.0,30.0,4.0,0.0
3319,80.0,0.0,120.0,0.0,0.0
3320,82.0,30.0,30.0,4.0,0.0
3321,85.0,0.0,30.0,4.0,0.0
3322,76.0,0.0,30.0,1.0,0.0
3323,73.0,0.0,30.0,1.0,0.0
3324,80.0,30.0,30.0,4.0,0.0
3325,68.0,15.0,40.0,1.0,0.0
3326,87.0,0.0,30.0,4.0,0.0
3327,83.0,15.0,30.0,4.0,0.0
3328,80.0,30.0,30.0,4.0,0.0
3329,85.0,30.0,30.0,4.0,0.0
3330,76.0,0.0,30.0,0.0,0.0
3331,82.0,0.0,30.0,4.0,0.0
3332,80.0,15.0,120.0,1.0,0.0
3333,80.0,0.0,30.0,4.0,0.0
3334,73.0,30.0,30.0,0.0,0.0
3335,87.0,0.0,30.0,4.0,0.0
3336,68.0,0.0,40.0,0.0,0.0
3337,83.0,15.0,30.0,4.0,0.0
3338,80.0,30.0,30.0,4.0,0.0
3339,75.0,30.0,30.0,1.0,0.0
3340,83.0,0.0,30.0,4.0,0.0
3341,80.0,15.0,120.0,0.0,0.0
3342,80.0,0.0,15.0,4.0,0.0
3343,71.0,30.0,30.0,1.0,0.0
3344,68.0,0.0,40.0,1.0,0.0
3345,85.0,15.0,30.0,4.0,0.0
3346,82.0,0.0,30.0,4.0,0.0
3347,80.0,30.0,30.0,4.0,0.0
3348,80.0,15.0,120.0,1.0,0.0
3349,75.0,0.0,30.0,0.0,0.0
3350,83.0,0.0,30.0,4.0,0.0
3351,71.0,0.0,30.0,0.0,0.0
3352,80.0,30.0,15.0,4.0,0.0
3353,68.0,0.0,40.0,0.0,0.0
3354,82.0,15.0,30.0,4.0,0.0
3355,85.0,0.0,30.0,4.0,0.0
3356,80.0,30.0,30.0,4.0,0.0
3357,79.0,0.0,30.0,4.0,0.0
3358,80.0,15.0,120.0,0.0,0.0
3359,82.0,0.0,30.0,4.0,0.0
3360,76.0,30.0,30.0,1.0,0.0
3361,80.0,0.0,30.0,4.0,0.0
3362,73.0,30.0,30.0,1.0,0.0
3363,83.0,0.0,30.0,4.0,0.0
3364,68.0,0.0,40.0,1.0,0.0
3365,80.0,15.0,15.0,4.0,0.0
3366,76.0,0.0,30.0,0.0,0.0
3367,80.0,0.0,120.0,1.0,0.0
3368,82.0,0.0,30.0,4.0,0.0
3369,79.0,30.0,30.0,4.0,0.0
3370,73.0,0.0,30.0,0.0,0.0
3371,80.0,30.0,30.0,4.0,0.0
3372,68.0,0.0,60.0,0.0,0.0
3373,83.0,0.0,30.0,4.0,0.0
3374,80.0,30.0,15.0,4.0,0.0
3375,84.0,0.0,30.0,4.0,0.0
3376,68.0,15.0,40.0,2.0,0.0
3377,78.0,15.0,30.0,4.0,0.0
3378,80.0,30.0,30.0,4.0,0.0
3379,67.0,15.0,40.0,2.0,0.0
3380,85.0,15.0,30.0,4.0,0.0
3381,76.0,0.0,30.0,4.0,0.0
3382,80.0,30.0,30.0,4.0,0.0
3383,83.0,0.0,30.0,4.0,0.0
3384,75.0,15.0,30.0,4.0,0.0
3385,68.0,15.0,40.0,2.0,0.0
3386,80.0,30.0,30.0,4.0,0.0
3387,73.0,0.0,30.0,4.0,0.0
3388,64.0,15.0,40.0,2.0,0.0
3389,82.0,15.0,30.0,4.0,0.0
3390,80.0,30.0,15.0,4.0,0.0
3391,61.0,15.0,40.0,2.0,0.0
3392,71.0,0.0,30.0,4.0,0.0
3393,80.0,15.0,15.0,4.0,0.0
3394,70.0,0.0,30.0,4.0,0.0
3395,63.0,15.0,40.0,2.0,0.0
3396,80.0,15.0,15.0,4.0,0.0
3397,70.0,0.0,30.0,4.0,0.0
3398,75.0,0.0,60.0,2.0,0.0
3399,78.0,30.0,30.0,4.0,0.0
3400,80.0,30.0,30.0,4.0,0.0
3401,72.0,15.0,30.0,4.0,0.0
3402,78.0,0.0,30.0,4.0,0.0
3403,68.0,15.0,40.0,2.0,0.0
3404,80.0,30.0,30.0,4.0,0.0
3405,69.0,15.0,40.0,2.0,0.0
3406,73.0,15.0,30.0,4.0,0.0
3407,76.0,0.0,30.0,4.0,0.0
3408,80.0,30.0,30.0,4.0,0.0
3409,66.0,15.0,40.0,2.0,0.0
3410,73.0,15.0,30.0,4.0,0.0
3411,75.0,0.0,30.0,4.0,0.0
3412,80.0,30.0,30.0,4.0,0.0
3413,71.0,15.0,30.0,4.0,0.0
3414,80.0,0.0,30.0,4.0,0.0
3415,68.0,15.0,40.0,2.0,0.0
3416,69.0,0.0,30.0,4.0,0.0
3417,80.0,30.0,15.0,4.0,0.0
3418,61.0,15.0,40.0,2.0,0.0
3419,80.0,15.0,15.0,4.0,0.0
3420,78.0,15.0,30.0,4.0,0.0
3421,69.0,0.0,30.0,4.0,0.0
3422,63.0,15.0,40.0,2.0,0.0
3423,80.0,30.0,30.0,4.0,0.0
3424,68.0,15.0,30.0,4.0,0.0
3425,64.0,15.0,40.0,2.0,0.0
3426,78.0,0.0,30.0,4.0,0.0
3427,80.0,30.0,30.0,4.0,0.0
3428,68.0,0.0,30.0,4.0,0.0
3429,76.0,15.0,30.0,4.0,0.0
3430,61.0,15.0,40.0,2.0,0.0
3431,80.0,30.0,30.0,4.0,0.0
3432,57.0,15.0,40.0,2.0,0.0
3433,76.0,15.0,30.0,4.0,0.0
3434,66.0,0.0,30.0,4.0,0.0
3435,81.0,30.0,30.0,4.0,0.0
3436,66.0,15.0,40.0,2.0,0.0
3437,73.0,0.0,30.0,4.0,0.0
3438,66.0,15.0,30.0,4.0,0.0
3439,81.0,30.0,30.0,4.0,0.0
3440,75.0,0.0,30.0,4.0,0.0
3441,63.0,15.0,40.0,2.0,0.0
3442,66.0,15.0,30.0,4.0,0.0
3443,81.0,30.0,30.0,4.0,0.0
3444,59.0,15.0,40.0,2.0,0.0
3445,75.0,15.0,30.0,4.0,0.0
3446,71.0,0.0,30.0,4.0,0.0
3447,81.0,30.0,30.0,4.0,0.0
3448,64.0,15.0,40.0,2.0,0.0
3449,71.0,0.0,30.0,4.0,0.0
3450,76.0,15.0,30.0,4.0,0.0
3451,80.0,30.0,30.0,4.0,0.0
3452,74.0,15.0,30.0,4.0,0.0
3453,76.0,0.0,30.0,4.0,0.0
3454,52.0,15.0,40.0,2.0,0.0
3455,80.0,30.0,30.0,4.0,0.0
3456,76.0,15.0,30.0,4.0,0.0
3457,73.0,0.0,30.0,4.0,0.0
3458,54.0,15.0,40.0,2.0,0.0
3459,80.0,30.0,30.0,4.0,0.0
3460,56.0,15.0,40.0,2.0,0.0
3461,71.0,15.0,30.0,4.0,0.0
3462,74.0,0.0,30.0,4.0,0.0
3463,80.0,30.0,30.0,4.0,0.0
3464,73.0,15.0,30.0,4.0,0.0
3465,57.0,15.0,40.0,2.0,0.0
3466,69.0,0.0,30.0,4.0,0.0
3467,75.0,30.0,30.0,4.0,0.0
3468,76.0,15.0,30.0,4.0,0.0
3469,56.0,15.0,40.0,2.0,0.0
3470,80.0,30.0,30.0,4.0,0.0
3471,57.0,15.0,40.0,2.0,0.0
3472,85.0,15.0,30.0,4.0,0.0
3473,80.0,30.0,30.0,4.0,0.0
3474,59.0,15.0,40.0,2.0,0.0
3475,81.0,15.0,30.0,4.0,0.0
3476,78.0,30.0,30.0,4.0,0.0
3477,73.0,15.0,30.0,4.0,0.0
3478,69.0,0.0,30.0,4.0,0.0
3479,61.0,15.0,40.0,2.0,0.0
3480,75.0,30.0,30.0,4.0,0.0
3481,59.0,15.0,40.0,2.0,0.0
3482,76.0,15.0,30.0,4.0,0.0
3483,80.0,30.0,30.0,4.0,0.0
3484,85.0,15.0,30.0,4.0,0.0
3485,57.0,15.0,40.0,2.0,0.0
3486,80.0,30.0,30.0,4.0,0.0
3487,81.0,15.0,30.0,4.0,0.0
3488,54.0,15.0,40.0,2.0,0.0
3489,78.0,30.0,30.0,4.0,0.0
3490,75.0,20.0,30.0,4.0,0.0
3491,69.0,0.0,30.0,4.0,0.0
3492,59.0,10.0,60.0,2.0,0.0
3493,76.0,30.0,30.0,4.0,0.0
3494,59.0,10.0,60.0,2.0,0.0
3495,78.0,20.0,30.0,4.0,0.0
3496,81.0,30.0,30.0,4.0,0.0
3497,59.0,10.0,60.0,2.0,0.0
3498,83.0,20.0,30.0,4.0,0.0
3499,78.0,30.0,30.0,4.0,0.0
3500,80.0,20.0,30.0,4.0,0.0
3501,59.0,10.0,60.0,2.0,0.0
3502,76.0,30.0,30.0,4.0,0.0
3503,59.0,10.0,60.0,2.0,0.0
3504,69.0,20.0,30.0,4.0,0.0
3505,75.0,0.0,30.0,4.0,0.0
3506,76.0,30.0,30.0,4.0,0.0
3507,78.0,20.0,30.0,4.0,0.0
3508,59.0,10.0,60.0,2.0,0.0
3509,81.0,30.0,30.0,4.0,0.0
3510,59.0,10.0,60.0,2.0,0.0
3511,83.0,20.0,30.0,4.0,0.0
3512,78.0,30.0,30.0,4.0,0.0
3513,59.0,10.0,60.0,2.0,0.0
3514,80.0,20.0,30.0,4.0,0.0
3515,75.0,30.0,30.0,4.0,0.0
3516,58.0,10.0,60.0,2.0,0.0
3517,67.0,20.0,30.0,4.0,0.0
3518,73.0,0.0,30.0,4.0,0.0
3519,75.0,30.0,30.0,4.0,0.0
3520,76.0,20.0,30.0,4.0,0.0
3521,58.0,10.0,60.0,2.0,0.0
3522,79.0,30.0,30.0,4.0,0.0
3523,85.0,20.0,30.0,4.0,0.0
3524,58.0,10.0,60.0,2.0,0.0
3525,76.0,30.0,30.0,4.0,0.0
3526,58.0,10.0,60.0,2.0,0.0
3527,85.0,20.0,30.0,4.0,0.0
3528,76.0,30.0,30.0,4.0,0.0
3529,67.0,0.0,30.0,4.0,0.0
3530,73.0,20.0,30.0,4.0,0.0
3531,58.0,10.0,60.0,2.0,0.0
3532,75.0,30.0,30.0,4.0,0.0
3533,58.0,10.0,60.0,2.0,0.0
3534,76.0,20.0,30.0,4.0,0.0
3535,79.0,30.0,30.0,4.0,0.0
3536,58.0,10.0,60.0,2.0,0.0
3537,85.0,20.0,30.0,4.0,0.0
3538,76.0,30.0,30.0,4.0,0.0
3539,58.0,10.0,60.0,2.0,0.0
3540,85.0,20.0,30.0,4.0,0.0
3541,76.0,30.0,30.0,4.0,0.0
3542,75.0,20.0,30.0,4.0,0.0
3543,66.0,0.0,30.0,4.0,0.0
3544,59.0,10.0,60.0,2.0,0.0
3545,76.0,30.0,30.0,4.0,0.0
3546,78.0,20.0,30.0,4.0,0.0
3547,59.0,10.0,60.0,2.0,0.0
3548,81.0,30.0,30.0,4.0,0.0
3549,59.0,10.0,60.0,2.0,0.0
3550,84.0,20.0,30.0,4.0,0.0
3551,75.0,30.0,30.0,4.0,0.0
3552,84.0,20.0,30.0,4.0,0.0
3553,59.0,10.0,60.0,2.0,0.0
3554,66.0,0.0,30.0,4.0,0.0
3555,59.0,10.0,60.0,2.0,0.0
3556,75.0,30.0,15.0,4.0,0.0
3557,76.0,30.0,30.0,4.0,0.0
3558,78.0,20.0,30.0,4.0,0.0
3559,59.0,10.0,60.0,2.0,0.0
3560,81.0,30.0,30.0,4.0,0.0
3561,84.0,20.0,30.0,4.0,0.0
3562,59.0,10.0,60.0,2.0,0.0
3563,75.0,30.0,30.0,4.0,0.0
3564,59.0,10.0,60.0,2.0,0.0
3565,84.0,20.0,30.0,4.0,0.0
3566,75.0,30.0,30.0,4.0,0.0
3567,61.0,0.0,30.0,4.0,0.0
3568,59.0,10.0,60.0,2.0,0.0
3569,70.0,20.0,30.0,4.0,0.0
3570,71.0,30.0,30.0,4.0,0.0
3571,73.0,20.0,30.0,4.0,0.0
3572,59.0,10.0,60.0,2.0,0.0
3573,76.0,30.0,30.0,4.0,0.0
3574,79.0,20.0,30.0,4.0,0.0
3575,59.0,10.0,60.0,2.0,0.0
3576,70.0,30.0,30.0,4.0,0.0
3577,79.0,20.0,30.0,4.0,0.0
3578,59.0,10.0,60.0,2.0,0.0
3579,61.0,0.0,30.0,4.0,0.0
3580,70.0,30.0,15.0,4.0,0.0
3581,59.0,10.0,60.0,2.0,0.0
3582,71.0,30.0,30.0,4.0,0.0
3583,73.0,20.0,30.0,4.0,0.0
3584,59.0,10.0,60.0,2.0,0.0
3585,76.0,30.0,30.0,4.0,0.0
3586,59.0,10.0,60.0,2.0,0.0
3587,79.0,20.0,30.0,4.0,0.0
3588,70.0,30.0,30.0,4.0,0.0
3589,59.0,10.0,60.0,2.0,0.0
3590,79.0,20.0,30.0,4.0,0.0
3591,70.0,30.0,30.0,4.0,0.0
3592,59.0,10.0,60.0,2.0,0.0
3593,59.0,20.0,30.0,4.0,0.0
3594,69.0,0.0,30.0,4.0,0.0
3595,71.0,30.0,30.0,4.0,0.0
3596,72.0,20.0,30.0,4.0,0.0
3597,59.0,10.0,60.0,2.0,0.0
3598,75.0,30.0,30.0,4.0,0.0
3599,59.0,10.0,60.0,2.0,0.0
3600,78.0,20.0,30.0,4.0,0.0
3601,69.0,30.0,30.0,4.0,0.0
3602,59.0,10.0,60.0,2.0,0.0
3603,78.0,20.0,30.0,4.0,0.0
3604,69.0,30.0,30.0,4.0,0.0
3605,59.0,20.0,30.0,4.0,0.0
3606,69.0,0.0,30.0,4.0,0.0
3607,59.0,10.0,60.0,2.0,0.0
3608,71.0,30.0,30.0,4.0,0.0
3609,72.0,20.0,30.0,4.0,0.0
3610,59.0,10.0,60.0,2.0,0.0
3611,75.0,30.0,30.0,4.0,0.0
3612,78.0,20.0,30.0,4.0,0.0
3613,59.0,10.0,60.0,2.0,0.0
3614,69.0,30.0,30.0,4.0,0.0
3615,59.0,10.0,60.0,2.0,0.0
3616,78.0,20.0,30.0,4.0,0.0
3617,69.0,30.0,30.0,4.0,0.0
3618,59.0,10.0,60.0,2.0,0.0
3619,67.0,0.0,30.0,4.0,0.0
3620,59.0,20.0,30.0,4.0,0.0
3621,69.0,30.0,30.0,4.0,0.0
3622,71.0,20.0,30.0,4.0,0.0
3623,59.0,10.0,60.0,2.0,0.0
3624,75.0,30.0,30.0,4.0,0.0
3625,76.0,20.0,30.0,4.0,0.0
3626,59.0,10.0,60.0,2.0,0.0
3627,67.0,30.0,30.0,4.0,0.0
3628,59.0,10.0,60.0,2.0,0.0
3629,76.0,20.0,30.0,4.0,0.0
3630,67.0,30.0,15.0,4.0,0.0
3631,59.0,0.0,30.0,4.0,0.0
3632,59.0,10.0,60.0,2.0,0.0
3633,69.0,30.0,30.0,4.0,0.0
3634,71.0,20.0,30.0,4.0,0.0
3635,59.0,10.0,60.0,2.0,0.0
3636,75.0,30.0,30.0,4.0,0.0
3637,76.0,20.0,30.0,4.0,0.0
3638,59.0,10.0,60.0,2.0,0.0
3639,67.0,30.0,30.0,4.0,0.0
3640,59.0,10.0,60.0,2.0,0.0
3641,76.0,20.0,30.0,4.0,0.0
3642,67.0,30.0,30.0,4.0,0.0
3643,66.0,20.0,30.0,4.0,0.0
3644,59.0,0.0,30.0,4.0,0.0
3645,59.0,10.0,60.0,2.0,0.0
3646,67.0,30.0,30.0,4.0,0.0
3647,69.0,20.0,30.0,4.0,0.0
3648,59.0,10.0,60.0,2.0,0.0
3649,75.0,30.0,30.0,4.0,0.0
3650,59.0,10.0,60.0,2.0,0.0
3651,76.0,20.0,30.0,4.0,0.0
3652,66.0,30.0,30.0,4.0,0.0
3653,59.0,10.0,60.0,2.0,0.0
3654,76.0,20.0,30.0,4.0,0.0
3655,59.0,10.0,60.0,2.0,0.0
3656,66.0,30.0,15.0,4.0,0.0
3657,59.0,20.0,30.0,4.0,0.0
3658,67.0,30.0,30.0,4.0,0.0
3659,69.0,20.0,30.0,4.0,0.0
3660,59.0,10.0,60.0,2.0,0.0
3661,75.0,30.0,30.0,4.0,0.0
3662,76.0,20.0,30.0,4.0,0.0
3663,59.0,10.0,60.0,2.0,0.0
3664,66.0,30.0,30.0,4.0,0.0
3665,76.0,20.0,30.0,4.0,0.0
3666,59.0,10.0,60.0,2.0,0.0
3667,66.0,30.0,15.0,4.0,0.0
3668,59.0,10.0,60.0,2.0,0.0
3669,59.0,0.0,30.0,4.0,0.0
3670,67.0,30.0,30.0,4.0,0.0
3671,59.0,10.0,60.0,2.0,0.0
3672,69.0,20.0,30.0,4.0,0.0
3673,72.0,30.0,30.0,4.0,0.0
3674,59.0,10.0,60.0,2.0,0.0
3675,75.0,20.0,30.0,4.0,0.0
3676,66.0,30.0,30.0,4.0,0.0
3677,75.0,20.0,30.0,4.0,0.0
3678,59.0,10.0,60.0,2.0,0.0
3679,66.0,30.0,30.0,4.0,0.0
3680,59.0,20.0,30.0,4.0,0.0
3681,66.0,0.0,30.0,4.0,0.0
3682,59.0,10.0,60.0,2.0,0.0
3683,67.0,30.0,30.0,4.0,0.0
3684,59.0,10.0,60.0,2.0,0.0
3685,69.0,20.0,30.0,4.0,0.0
3686,72.0,30.0,30.0,4.0,0.0
3687,75.0,20.0,30.0,4.0,0.0
3688,59.0,10.0,60.0,2.0,0.0
3689,66.0,30.0,30.0,4.0,0.0
3690,75.0,20.0,30.0,4.0,0.0
3691,59.0,10.0,60.0,2.0,0.0
3692,66.0,30.0,30.0,4.0,0.0
3693,68.0,0.0,480.0,2.0,0.0
3694,71.0,0.0,480.0,1.0,0.0
3695,52.0,45.0,60.0,4.0,0.0
3696,40.0,15.0,40.0,3.0,0.0
3697,64.0,15.0,30.0,4.0,0.0
3698,76.0,0.0,480.0,0.0,0.0
3699,66.0,0.0,30.0,4.0,0.0
3700,68.0,45.0,60.0,4.0,0.0
3701,40.0,15.0,40.0,3.0,0.0
3702,40.0,15.0,40.0,3.0,0.0
3703,66.0,45.0,60.0,4.0,0.0
3704,40.0,15.0,40.0,3.0,0.0
3705,64.0,30.0,60.0,4.0,0.0
3706,56.0,15.0,30.0,4.0,0.0
3707,71.0,30.0,60.0,4.0,0.0
3708,40.0,15.0,40.0,3.0,0.0
3709,57.0,0.0,30.0,4.0,0.0
3710,40.0,15.0,40.0,3.0,0.0
3711,59.0,15.0,30.0,4.0,0.0
3712,80.0,0.0,120.0,4.0,0.0
3713,57.0,30.0,30.0,4.0,0.0
3714,40.0,15.0,40.0,3.0,0.0
3715,61.0,15.0,30.0,4.0,0.0
3716,59.0,30.0,30.0,4.0,0.0
3717,40.0,15.0,40.0,3.0,0.0
3718,57.0,15.0,30.0,4.0,0.0
3719,71.0,0.0,60.0,4.0,0.0
3720,56.0,30.0,30.0,4.0,0.0
3721,40.0,15.0,40.0,3.0,0.0
3722,54.0,0.0,30.0,4.0,0.0
3723,63.0,15.0,30.0,4.0,0.0
3724,63.0,0.0,240.0,2.0,0.0
3725,69.0,0.0,480.0,1.0,0.0
3726,78.0,0.0,240.0,0.0,0.0
3727,64.0,0.0,30.0,4.0,0.0
3728,56.0,30.0,30.0,4.0,0.0
3729,40.0,15.0,40.0,3.0,0.0
3730,66.0,30.0,60.0,4.0,0.0
3731,57.0,15.0,30.0,4.0,0.0
3732,56.0,0.0,30.0,4.0,0.0
3733,40.0,15.0,40.0,3.0,0.0
3734,57.0,15.0,30.0,4.0,0.0
3735,64.0,0.0,60.0,4.0,0.0
3736,56.0,30.0,30.0,4.0,0.0
3737,40.0,15.0,40.0,3.0,0.0
3738,63.0,0.0,60.0,4.0,0.0
3739,54.0,15.0,30.0,4.0,0.0
3740,52.0,30.0,30.0,4.0,0.0
3741,75.0,0.0,240.0,0.0,0.0
3742,40.0,15.0,40.0,3.0,0.0
3743,66.0,0.0,240.0,2.0,0.0
3744,51.0,15.0,30.0,4.0,0.0
3745,69.0,30.0,60.0,4.0,0.0
3746,52.0,0.0,30.0,4.0,0.0
3747,51.0,15.0,30.0,4.0,0.0
3748,78.0,0.0,120.0,4.0,0.0
3749,40.0,15.0,40.0,3.0,0.0
3750,49.0,30.0,30.0,4.0,0.0
3751,40.0,15.0,40.0,3.0,0.0
3752,47.0,15.0,30.0,4.0,0.0
3753,45.0,30.0,30.0,4.0,0.0
3754,44.0,15.0,30.0,4.0,0.0
3755,69.0,0.0,60.0,4.0,0.0
3756,40.0,15.0,40.0,3.0,0.0
3757,42.0,30.0,30.0,4.0,0.0
3758,76.0,15.0,40.0,0.0,0.0
3759,68.0,15.0,30.0,4.0,0.0
3760,40.0,0.0,60.0,4.0,0.0
3761,68.0,0.0,120.0,2.0,0.0
3762,40.0,30.0,120.0,3.0,0.0
3763,71.0,0.0,120.0,1.0,0.0
3764,69.0,45.0,30.0,4.0,0.0
3765,64.0,15.0,40.0,0.0,0.0
3766,71.0,0.0,60.0,4.0,0.0
3767,71.0,15.0,30.0,4.0,0.0
3768,68.0,15.0,40.0,0.0,0.0
3769,73.0,45.0,30.0,4.0,0.0
3770,74.0,45.0,60.0,4.0,0.0
3771,71.0,15.0,40.0,0.0,0.0
3772,65.0,30.0,60.0,4.0,0.0
3773,61.0,15.0,40.0,0.0,0.0
3774,65.0,0.0,40.0,2.0,0.0
3775,80.0,15.0,30.0,0.0,0.0
3776,49.0,15.0,40.0,3.0,0.0
3777,71.0,0.0,40.0,1.0,0.0
3778,61.0,0.0,60.0,4.0,0.0
3779,65.0,0.0,60.0,4.0,0.0
3780,80.0,0.0,30.0,4.0,0.0
3781,78.0,0.0,30.0,0.0,0.0
3782,78.0,30.0,30.0,4.0,0.0
3783,77.0,15.0,30.0,0.0,0.0
3784,77.0,0.0,30.0,4.0,0.0
3785,63.0,30.0,60.0,4.0,0.0
3786,66.0,15.0,40.0,2.0,0.0
3787,51.0,0.0,40.0,3.0,0.0
3788,69.0,0.0,40.0,1.0,0.0
3789,66.0,0.0,60.0,4.0,0.0
3790,75.0,0.0,30.0,4.0,0.0
3791,75.0,0.0,30.0,0.0,0.0
3792,73.0,0.0,30.0,0.0,0.0
3793,68.0,0.0,60.0,4.0,0.0
3794,53.0,0.0,40.0,3.0,0.0
3795,68.0,0.0,40.0,1.0,0.0
3796,65.0,30.0,60.0,4.0,0.0
3797,73.0,15.0,30.0,4.0,0.0
3798,68.0,15.0,40.0,2.0,0.0
3799,71.0,0.0,30.0,4.0,0.0
3800,71.0,0.0,30.0,0.0,0.0
3801,66.0,0.0,120.0,1.0,0.0
3802,61.0,0.0,120.0,2.0,0.0
3803,69.0,15.0,40.0,0.0,0.0
3804,54.0,30.0,120.0,3.0,0.0
3805,69.0,15.0,30.0,4.0,0.0
3806,66.0,0.0,30.0,4.0,0.0
3807,69.0,15.0,30.0,4.0,0.0
3808,66.0,15.0,40.0,0.0,0.0
3809,73.0,0.0,30.0,4.0,0.0
3810,70.0,15.0,40.0,0.0,0.0
3811,76.0,15.0,30.0,4.0,0.0
3812,73.0,30.0,30.0,4.0,0.0
3813,76.0,15.0,30.0,4.0,0.0
3814,73.0,15.0,40.0,0.0,0.0
3815,79.0,45.0,30.0,4.0,0.0
3816,76.0,15.0,40.0,0.0,0.0
3817,54.0,0.0,40.0,3.0,0.0
3818,70.0,15.0,40.0,2.0,0.0
3819,85.0,0.0,30.0,4.0,0.0
3820,70.0,30.0,15.0,4.0,0.0
3821,85.0,15.0,30.0,0.0,0.0
3822,66.0,30.0,60.0,4.0,0.0
3823,76.0,0.0,40.0,1.0,0.0
3824,83.0,0.0,30.0,0.0,0.0
3825,83.0,0.0,30.0,4.0,0.0
3826,71.0,15.0,40.0,2.0,0.0
3827,56.0,0.0,40.0,3.0,0.0
3828,71.0,0.0,60.0,4.0,0.0
3829,82.0,0.0,30.0,0.0,0.0
3830,74.0,0.0,40.0,1.0,0.0
3831,82.0,15.0,30.0,4.0,0.0
3832,68.0,0.0,60.0,4.0,0.0
3833,80.0,30.0,30.0,4.0,0.0
3834,80.0,0.0,30.0,0.0,0.0
3835,73.0,0.0,40.0,2.0,0.0
3836,58.0,15.0,40.0,3.0,0.0
3837,78.0,0.0,30.0,0.0,0.0
3838,70.0,30.0,60.0,4.0,0.0
3839,78.0,15.0,30.0,4.0,0.0
3840,73.0,0.0,40.0,1.0,0.0
3841,73.0,0.0,60.0,4.0,0.0
3842,76.0,0.0,30.0,0.0,0.0
3843,76.0,0.0,30.0,4.0,0.0
3844,59.0,15.0,40.0,3.0,0.0
3845,74.0,0.0,120.0,0.0,0.0
3846,71.0,15.0,30.0,4.0,0.0
3847,74.0,0.0,60.0,4.0,0.0
3848,71.0,0.0,120.0,1.0,0.0
3849,59.0,0.0,60.0,4.0,0.0
3850,66.0,30.0,120.0,2.0,0.0
3851,70.0,30.0,30.0,4.0,0.0
3852,71.0,15.0,30.0,4.0,0.0
3853,58.0,15.0,40.0,3.0,0.0
3854,73.0,0.0,30.0,4.0,0.0
3855,74.0,15.0,30.0,4.0,0.0
3856,59.0,15.0,40.0,3.0,0.0
3857,78.0,30.0,30.0,4.0,0.0
3858,82.0,15.0,30.0,4.0,0.0
3859,61.0,15.0,40.0,3.0,0.0
3860,83.0,30.0,30.0,4.0,0.0
3861,71.0,15.0,30.0,4.0,0.0
3862,74.0,0.0,60.0,4.0,0.0
3863,62.0,0.0,60.0,4.0,0.0
3864,62.0,15.0,40.0,3.0,0.0
3865,70.0,30.0,30.0,4.0,0.0
3866,66.0,0.0,40.0,3.0,0.0
3867,71.0,15.0,30.0,4.0,0.0
3868,74.0,0.0,40.0,1.0,0.0
3869,74.0,15.0,40.0,2.0,0.0
3870,78.0,0.0,40.0,0.0,0.0
3871,73.0,30.0,30.0,4.0,0.0
3872,74.0,15.0,30.0,4.0,0.0
3873,62.0,15.0,40.0,3.0,0.0
3874,83.0,0.0,40.0,0.0,0.0
3875,71.0,0.0,40.0,2.0,0.0
3876,78.0,0.0,40.0,1.0,0.0
3877,78.0,30.0,30.0,4.0,0.0
3878,82.0,15.0,30.0,4.0,0.0
3879,74.0,15.0,40.0,1.0,0.0
3880,66.0,0.0,40.0,2.0,0.0
3881,86.0,0.0,40.0,0.0,0.0
3882,59.0,0.0,40.0,3.0,0.0
3883,83.0,30.0,30.0,4.0,0.0
3884,73.0,0.0,120.0,2.0,0.0
3885,76.0,15.0,30.0,4.0,0.0
3886,71.0,0.0,60.0,4.0,0.0
3887,67.0,0.0,120.0,1.0,0.0
3888,76.0,0.0,120.0,0.0,0.0
3889,61.0,15.0,40.0,3.0,0.0
3890,61.0,30.0,60.0,4.0,0.0
3891,74.0,0.0,30.0,4.0,0.0
3892,59.0,15.0,40.0,3.0,0.0
3893,76.0,15.0,30.0,4.0,0.0
3894,78.0,30.0,30.0,4.0,0.0
3895,61.0,15.0,40.0,3.0,0.0
3896,79.0,15.0,30.0,4.0,0.0
3897,82.0,30.0,30.0,4.0,0.0
3898,83.0,15.0,30.0,4.0,0.0
3899,62.0,15.0,40.0,3.0,0.0
3900,85.0,30.0,30.0,4.0,0.0
3901,64.0,15.0,40.0,3.0,0.0
3902,71.0,30.0,60.0,4.0,0.0
3903,76.0,15.0,30.0,4.0,0.0
3904,64.0,0.0,60.0,4.0,0.0
3905,74.0,0.0,30.0,4.0,0.0
3906,79.0,15.0,40.0,0.0,0.0
3907,67.0,0.0,40.0,3.0,0.0
3908,76.0,0.0,40.0,1.0,0.0
3909,76.0,0.0,40.0,2.0,0.0
3910,76.0,15.0,30.0,4.0,0.0
3911,78.0,30.0,30.0,4.0,0.0
3912,64.0,0.0,40.0,3.0,0.0
3913,73.0,0.0,40.0,2.0,0.0
3914,85.0,15.0,40.0,0.0,0.0
3915,79.0,0.0,40.0,1.0,0.0
3916,79.0,15.0,30.0,4.0,0.0
3917,82.0,30.0,30.0,4.0,0.0
3918,76.0,15.0,40.0,1.0,0.0
3919,83.0,15.0,30.0,4.0,0.0
3920,64.0,0.0,40.0,2.0,0.0
3921,88.0,0.0,40.0,0.0,0.0
3922,61.0,0.0,40.0,3.0,0.0
3923,85.0,30.0,30.0,4.0,0.0
3924,74.0,0.0,120.0,1.0,0.0
3925,71.0,0.0,60.0,4.0,0.0
3926,78.0,15.0,30.0,4.0,0.0
3927,78.0,30.0,120.0,0.0,0.0
3928,62.0,30.0,60.0,4.0,0.0
3929,62.0,15.0,40.0,3.0,0.0
3930,71.0,0.0,120.0,2.0,0.0
3931,76.0,0.0,30.0,4.0,0.0
3932,78.0,15.0,30.0,4.0,0.0
3933,64.0,15.0,40.0,3.0,0.0
3934,82.0,0.0,30.0,4.0,0.0
3935,62.0,15.0,40.0,3.0,0.0
3936,83.0,15.0,30.0,4.0,0.0
3937,85.0,30.0,30.0,4.0,0.0
3938,61.0,15.0,40.0,3.0,0.0
3939,86.0,15.0,30.0,4.0,0.0
3940,83.0,30.0,30.0,4.0,0.0
3941,78.0,15.0,30.0,4.0,0.0
3942,71.0,0.0,60.0,4.0,0.0
3943,59.0,15.0,40.0,3.0,0.0
3944,62.0,30.0,60.0,4.0,0.0
3945,76.0,0.0,30.0,4.0,0.0
3946,78.0,0.0,40.0,0.0,0.0
3947,71.0,15.0,40.0,1.0,0.0
3948,78.0,15.0,30.0,4.0,0.0
3949,62.0,0.0,40.0,3.0,0.0
3950,62.0,0.0,40.0,2.0,0.0
3951,82.0,30.0,30.0,4.0,0.0
3952,83.0,15.0,30.0,4.0,0.0
3953,66.0,0.0,40.0,1.0,0.0
3954,74.0,0.0,40.0,0.0,0.0
3955,66.0,0.0,40.0,2.0,0.0
3956,59.0,15.0,40.0,3.0,0.0
3957,85.0,30.0,30.0,4.0,0.0
3958,86.0,15.0,30.0,4.0,0.0
3959,74.0,0.0,40.0,1.0,0.0
3960,71.0,0.0,40.0,2.0,0.0
3961,71.0,15.0,40.0,0.0,0.0
3962,55.0,0.0,40.0,3.0,0.0
3963,83.0,30.0,30.0,4.0,0.0
3964,76.0,0.0,120.0,1.0,0.0
3965,52.0,15.0,40.0,3.0,0.0
3966,71.0,0.0,120.0,2.0,0.0
3967,71.0,15.0,30.0,4.0,0.0
3968,79.0,30.0,60.0,4.0,0.0
3969,64.0,0.0,30.0,4.0,0.0
3970,79.0,0.0,120.0,0.0,0.0
3971,70.0,0.0,30.0,4.0,0.0
3972,59.0,15.0,40.0,3.0,0.0
3973,71.0,15.0,30.0,4.0,0.0
3974,73.0,30.0,30.0,4.0,0.0
3975,74.0,15.0,30.0,4.0,0.0
3976,55.0,15.0,40.0,3.0,0.0
3977,76.0,30.0,30.0,4.0,0.0
3978,78.0,15.0,30.0,4.0,0.0
3979,54.0,15.0,40.0,3.0,0.0
3980,79.0,30.0,30.0,4.0,0.0
3981,52.0,15.0,40.0,3.0,0.0
3982,64.0,0.0,30.0,4.0,0.0
3983,71.0,15.0,30.0,4.0,0.0
3984,79.0,0.0,60.0,4.0,0.0
3985,70.0,30.0,30.0,4.0,0.0
3986,67.0,0.0,40.0,2.0,0.0
3987,76.0,15.0,40.0,1.0,0.0
3988,79.0,0.0,40.0,0.0,0.0
3989,71.0,15.0,30.0,4.0,0.0
3990,47.0,0.0,40.0,3.0,0.0
3991,73.0,30.0,30.0,4.0,0.0
3992,43.0,0.0,40.0,3.0,0.0
3993,71.0,15.0,40.0,1.0,0.0
3994,76.0,0.0,40.0,0.0,0.0
3995,71.0,0.0,40.0,2.0,0.0
3996,74.0,15.0,30.0,4.0,0.0
3997,76.0,30.0,30.0,4.0,0.0
3998,73.0,0.0,40.0,0.0,0.0
3999,78.0,15.0,30.0,4.0,0.0
4000,67.0,15.0,40.0,1.0,0.0
4001,40.0,0.0,40.0,3.0,0.0
4002,76.0,0.0,40.0,2.0,0.0
4003,79.0,30.0,30.0,4.0,0.0
4004,78.0,0.0,120.0,2.0,0.0
4005,61.0,15.0,40.0,1.0,0.0
4006,78.0,30.0,60.0,4.0,0.0
4007,64.0,15.0,30.0,4.0,0.0
4008,52.0,0.0,120.0,3.0,0.0
4009,70.0,0.0,30.0,4.0,0.0
4010,70.0,30.0,120.0,0.0,0.0
4011,68.0,0.0,30.0,4.0,0.0
4012,70.0,15.0,30.0,4.0,0.0
4013,66.0,15.0,40.0,1.0,0.0
4014,73.0,0.0,30.0,4.0,0.0
4015,76.0,15.0,30.0,4.0,0.0
4016,70.0,15.0,40.0,1.0,0.0
4017,73.0,30.0,30.0,4.0,0.0
4018,73.0,15.0,40.0,1.0,0.0
4019,70.0,15.0,30.0,4.0,0.0
4020,66.0,30.0,30.0,4.0,0.0
4021,64.0,0.0,30.0,4.0,0.0
4022,78.0,0.0,120.0,1.0,0.0
4023,52.0,30.0,120.0,3.0,0.0
4024,78.0,30.0,60.0,4.0,0.0
4025,73.0,0.0,120.0,2.0,0.0
4026,70.0,30.0,30.0,4.0,0.0
4027,68.0,0.0,30.0,4.0,0.0
4028,66.0,15.0,40.0,0.0,0.0
4029,70.0,15.0,30.0,4.0,0.0
4030,73.0,0.0,30.0,4.0,0.0
4031,70.0,15.0,40.0,0.0,0.0
4032,76.0,15.0,30.0,4.0,0.0
4033,73.0,30.0,30.0,4.0,0.0
4034,73.0,15.0,40.0,0.0,0.0
4035,70.0,15.0,30.0,4.0,0.0
4036,66.0,30.0,30.0,4.0,0.0
4037,80.0,0.0,120.0,0.0,0.0
4038,71.0,30.0,120.0,2.0,0.0
4039,74.0,0.0,30.0,4.0,0.0
4040,65.0,30.0,30.0,4.0,0.0
4041,53.0,0.0,120.0,3.0,0.0
4042,71.0,0.0,30.0,4.0,0.0
4043,70.0,0.0,30.0,4.0,0.0
4044,73.0,30.0,30.0,4.0,0.0
4045,74.0,15.0,40.0,1.0,0.0
4046,74.0,0.0,30.0,4.0,0.0
4047,71.0,15.0,30.0,4.0,0.0
4048,65.0,0.0,30.0,4.0,0.0
4049,71.0,15.0,40.0,1.0,0.0
4050,68.0,15.0,30.0,4.0,0.0
4051,71.0,30.0,30.0,4.0,0.0
4052,74.0,15.0,30.0,4.0,0.0
4053,68.0,15.0,40.0,1.0,0.0
4054,70.0,0.0,30.0,4.0,0.0
4055,73.0,30.0,30.0,4.0,0.0
4056,53.0,0.0,120.0,3.0,0.0
4057,74.0,0.0,30.0,4.0,0.0
4058,71.0,0.0,30.0,4.0,0.0
4059,65.0,15.0,40.0,1.0,0.0
4060,68.0,0.0,120.0,2.0,0.0
4061,65.0,15.0,30.0,4.0,0.0
4062,73.0,0.0,30.0,4.0,0.0
4063,70.0,30.0,30.0,4.0,0.0
4064,74.0,15.0,30.0,4.0,0.0
4065,71.0,0.0,30.0,4.0,0.0
4066,74.0,15.0,40.0,0.0,0.0
4067,65.0,30.0,30.0,4.0,0.0
4068,68.0,15.0,30.0,4.0,0.0
4069,71.0,15.0,40.0,0.0,0.0
4070,71.0,15.0,30.0,4.0,0.0
4071,68.0,15.0,40.0,0.0,0.0
4072,74.0,15.0,15.0,4.0,0.0
4073,73.0,15.0,15.0,4.0,0.0
4074,71.0,30.0,30.0,4.0,0.0
4075,64.0,0.0,120.0,2.0,0.0
4076,55.0,30.0,120.0,3.0,0.0
4077,67.0,15.0,30.0,4.0,0.0
4078,70.0,0.0,30.0,4.0,0.0
4079,76.0,0.0,30.0,4.0,0.0
4080,61.0,15.0,40.0,0.0,0.0
4081,74.0,30.0,30.0,4.0,0.0
4082,73.0,15.0,40.0,1.0,0.0
4083,76.0,15.0,30.0,4.0,0.0
4084,61.0,0.0,30.0,4.0,0.0
4085,64.0,15.0,30.0,4.0,0.0
4086,70.0,15.0,40.0,1.0,0.0
4087,67.0,30.0,30.0,4.0,0.0
4088,64.0,15.0,40.0,1.0,0.0
4089,70.0,15.0,30.0,4.0,0.0
4090,73.0,30.0,30.0,4.0,0.0
4091,76.0,0.0,30.0,4.0,0.0
4092,70.0,15.0,30.0,4.0,0.0
4093,67.0,0.0,30.0,4.0,0.0
4094,61.0,15.0,40.0,1.0,0.0
4095,55.0,30.0,120.0,3.0,0.0
4096,67.0,0.0,120.0,2.0,0.0
4097,74.0,30.0,30.0,4.0,0.0
4098,76.0,15.0,40.0,0.0,0.0
4099,76.0,15.0,30.0,4.0,0.0
4100,61.0,0.0,30.0,4.0,0.0
4101,73.0,15.0,40.0,0.0,0.0
4102,64.0,15.0,30.0,4.0,0.0
4103,70.0,30.0,30.0,4.0,0.0
4104,70.0,15.0,40.0,0.0,0.0
4105,73.0,15.0,30.0,4.0,0.0
4106,76.0,30.0,30.0,4.0,0.0
4107,66.0,0.0,30.0,4.0,0.0
4108,54.0,0.0,120.0,3.0,0.0
4109,66.0,15.0,40.0,0.0,0.0
4110,61.0,0.0,120.0,2.0,0.0
4111,76.0,0.0,30.0,4.0,0.0
4112,82.0,15.0,30.0,4.0,0.0
4113,80.0,30.0,30.0,4.0,0.0
4114,82.0,15.0,40.0,1.0,0.0
4115,82.0,15.0,30.0,4.0,0.0
4116,66.0,30.0,30.0,4.0,0.0
4117,70.0,15.0,30.0,4.0,0.0
4118,76.0,15.0,40.0,1.0,0.0
4119,73.0,30.0,30.0,4.0,0.0
4120,76.0,15.0,30.0,4.0,0.0
4121,73.0,15.0,40.0,1.0,0.0
4122,82.0,30.0,30.0,4.0,0.0
4123,70.0,30.0,120.0,2.0,0.0
4124,66.0,0.0,60.0,4.0,0.0
4125,66.0,0.0,120.0,1.0,0.0
4126,76.0,0.0,30.0,4.0,0.0
4127,54.0,0.0,120.0,3.0,0.0
4128,85.0,30.0,30.0,4.0,0.0
4129,83.0,30.0,30.0,4.0,0.0
4130,85.0,15.0,30.0,4.0,0.0
4131,85.0,15.0,40.0,0.0,0.0
4132,66.0,15.0,60.0,4.0,0.0
4133,82.0,15.0,40.0,0.0,0.0
4134,73.0,0.0,30.0,4.0,0.0
4135,76.0,30.0,30.0,4.0,0.0
4136,82.0,15.0,30.0,4.0,0.0
4137,76.0,15.0,40.0,0.0,0.0
4138,85.0,30.0,30.0,4.0,0.0
4139,88.0,15.0,30.0,4.0,0.0
4140,70.0,15.0,40.0,0.0,0.0
4141,85.0,30.0,30.0,4.0,0.0
4142,78.0,15.0,30.0,4.0,0.0
4143,66.0,15.0,40.0,3.0,0.0
4144,88.0,0.0,30.0,4.0,0.0
4145,73.0,30.0,30.0,4.0,0.0
4146,82.0,0.0,30.0,4.0,0.0
4147,62.0,15.0,40.0,3.0,0.0
4148,83.0,0.0,30.0,4.0,0.0
4149,74.0,15.0,30.0,4.0,0.0
4150,70.0,30.0,30.0,4.0,0.0
4151,78.0,0.0,30.0,4.0,0.0
4152,59.0,15.0,40.0,3.0,0.0
4153,79.0,0.0,30.0,4.0,0.0
4154,71.0,15.0,30.0,4.0,0.0
4155,66.0,30.0,30.0,4.0,0.0
4156,75.0,0.0,30.0,4.0,0.0
4157,55.0,15.0,40.0,3.0,0.0
4158,67.0,0.0,30.0,4.0,0.0
4159,76.0,15.0,30.0,4.0,0.0
4160,66.0,0.0,30.0,4.0,0.0
4161,85.0,30.0,30.0,4.0,0.0
4162,52.0,15.0,40.0,3.0,0.0
4163,82.0,0.0,30.0,4.0,0.0
4164,67.0,15.0,30.0,4.0,0.0
4165,64.0,0.0,30.0,4.0,0.0
4166,83.0,30.0,30.0,4.0,0.0
4167,66.0,30.0,60.0,4.0,0.0
4168,74.0,15.0,30.0,4.0,0.0
4169,54.0,15.0,40.0,3.0,0.0
4170,83.0,0.0,30.0,4.0,0.0
4171,42.0,15.0,40.0,3.0,0.0
4172,73.0,15.0,30.0,4.0,0.0
4173,54.0,0.0,60.0,4.0,0.0
4174,82.0,30.0,30.0,4.0,0.0
4175,62.0,30.0,30.0,2.0,0.0
4176,47.0,45.0,120.0,3.0,0.0
4177,59.0,0.0,120.0,4.0,0.0
4178,83.0,0.0,120.0,4.0,0.0
4179,71.0,0.0,30.0,1.0,0.0
4180,71.0,0.0,30.0,0.0,0.0
4181,64.0,0.0,30.0,2.0,0.0
4182,73.0,0.0,30.0,1.0,0.0
4183,73.0,30.0,30.0,0.0,0.0
4184,74.0,30.0,30.0,0.0,0.0
4185,66.0,0.0,30.0,2.0,0.0
4186,74.0,0.0,30.0,1.0,0.0
4187,73.0,0.0,40.0,1.0,0.0
4188,64.0,0.0,40.0,2.0,0.0
4189,73.0,60.0,40.0,0.0,0.0
4190,62.0,0.0,40.0,2.0,0.0
4191,71.0,45.0,40.0,1.0,0.0
4192,71.0,0.0,40.0,0.0,0.0
4193,86.0,15.0,30.0,4.0,0.0
4194,59.0,0.0,30.0,3.0,0.0
4195,78.0,15.0,40.0,1.0,0.0
4196,59.0,0.0,30.0,4.0,0.0
4197,71.0,0.0,30.0,2.0,0.0
4198,78.0,0.0,40.0,0.0,0.0
4199,61.0,30.0,30.0,3.0,0.0
4200,70.0,0.0,30.0,2.0,0.0
4201,61.0,0.0,30.0,4.0,0.0
4202,88.0,0.0,30.0,4.0,0.0
4203,71.0,0.0,30.0,2.0,0.0
4204,83.0,0.0,120.0,0.0,0.0
4205,62.0,0.0,30.0,3.0,0.0
4206,83.0,15.0,120.0,1.0,0.0
4207,62.0,75.0,30.0,4.0,0.0
4208,90.0,0.0,30.0,4.0,0.0
4209,88.0,0.0,60.0,4.0,0.0
4210,61.0,45.0,60.0,4.0,0.0
4211,73.0,0.0,40.0,2.0,0.0
4212,61.0,0.0,40.0,3.0,0.0
4213,59.0,0.0,40.0,3.0,0.0
4214,78.0,15.0,40.0,0.0,0.0
4215,86.0,0.0,120.0,4.0,0.0
4216,59.0,30.0,60.0,4.0,0.0
4217,78.0,0.0,40.0,1.0,0.0
4218,74.0,0.0,40.0,2.0,0.0
4219,71.0,15.0,40.0,2.0,0.0
4220,79.0,0.0,40.0,0.0,0.0
4221,64.0,0.0,60.0,3.0,0.0
4222,52.0,15.0,30.0,4.0,0.0
4223,79.0,0.0,40.0,1.0,0.0
4224,64.0,30.0,30.0,4.0,0.0
4225,76.0,0.0,30.0,0.0,0.0
4226,76.0,0.0,30.0,1.0,0.0
4227,67.0,15.0,40.0,2.0,0.0
4228,67.0,15.0,30.0,4.0,0.0
4229,85.0,0.0,120.0,4.0,0.0
4230,64.0,0.0,30.0,4.0,0.0
4231,73.0,30.0,30.0,0.0,0.0
4232,73.0,0.0,30.0,1.0,0.0
4233,50.0,15.0,30.0,4.0,0.0
4234,78.0,0.0,40.0,1.0,0.0
4235,66.0,0.0,60.0,2.0,0.0
4236,62.0,30.0,60.0,3.0,0.0
4237,78.0,15.0,40.0,0.0,0.0
4238,62.0,0.0,30.0,4.0,0.0
4239,74.0,0.0,30.0,0.0,0.0
4240,74.0,0.0,30.0,1.0,0.0
4241,66.0,30.0,30.0,4.0,0.0
4242,83.0,0.0,120.0,4.0,0.0
4243,62.0,0.0,30.0,4.0,0.0
4244,71.0,0.0,30.0,1.0,0.0
4245,71.0,30.0,30.0,0.0,0.0
4246,49.0,15.0,30.0,4.0,0.0
4247,67.0,30.0,60.0,2.0,0.0
4248,61.0,0.0,60.0,3.0,0.0
4249,76.0,15.0,40.0,1.0,0.0
4250,76.0,0.0,40.0,0.0,0.0
4251,61.0,0.0,30.0,4.0,0.0
4252,76.0,0.0,120.0,4.0,0.0
4253,73.0,0.0,30.0,0.0,0.0
4254,73.0,0.0,30.0,1.0,0.0
4255,64.0,30.0,30.0,4.0,0.0
4256,70.0,30.0,30.0,0.0,0.0
4257,67.0,0.0,30.0,4.0,0.0
4258,70.0,0.0,30.0,1.0,0.0
4259,47.0,15.0,30.0,4.0,0.0
4260,71.0,0.0,60.0,2.0,0.0
4261,66.0,0.0,40.0,1.0,0.0
4262,59.0,30.0,60.0,3.0,0.0
4263,66.0,15.0,40.0,0.0,0.0
4264,62.0,0.0,30.0,4.0,0.0
4265,73.0,30.0,30.0,4.0,0.0
4266,64.0,0.0,30.0,4.0,0.0
4267,79.0,15.0,120.0,1.0,0.0
4268,79.0,0.0,120.0,0.0,0.0
4269,67.0,30.0,30.0,4.0,0.0
4270,70.0,0.0,30.0,4.0,0.0
4271,58.0,0.0,60.0,3.0,0.0
4272,73.0,0.0,60.0,2.0,0.0
4273,46.0,15.0,30.0,4.0,0.0
4274,64.0,0.0,60.0,4.0,0.0
4275,61.0,30.0,30.0,4.0,0.0
4276,76.0,0.0,30.0,1.0,0.0
4277,76.0,0.0,30.0,0.0,0.0
4278,79.0,0.0,120.0,4.0,0.0
4279,59.0,30.0,30.0,4.0,0.0
4280,73.0,30.0,30.0,0.0,0.0
4281,73.0,0.0,30.0,1.0,0.0
4282,58.0,0.0,30.0,4.0,0.0
4283,59.0,30.0,60.0,3.0,0.0
4284,47.0,15.0,30.0,4.0,0.0
4285,66.0,0.0,40.0,1.0,0.0
4286,66.0,15.0,40.0,0.0,0.0
4287,74.0,0.0,60.0,2.0,0.0
4288,62.0,0.0,30.0,4.0,0.0
4289,82.0,0.0,120.0,1.0,0.0
4290,76.0,30.0,30.0,4.0,0.0
4291,61.0,0.0,30.0,4.0,0.0
4292,82.0,15.0,120.0,0.0,0.0
4293,73.0,30.0,30.0,4.0,0.0
4294,59.0,0.0,30.0,4.0,0.0
4295,76.0,30.0,60.0,2.0,0.0
4296,49.0,15.0,30.0,4.0,0.0
4297,61.0,0.0,60.0,3.0,0.0
4298,64.0,0.0,30.0,4.0,0.0
4299,62.0,0.0,30.0,4.0,0.0
4300,82.0,0.0,120.0,4.0,0.0
4301,79.0,30.0,30.0,1.0,0.0
4302,79.0,0.0,30.0,0.0,0.0
4303,61.0,0.0,30.0,4.0,0.0
4304,76.0,30.0,30.0,0.0,0.0
4305,76.0,0.0,30.0,1.0,0.0
4306,74.0,0.0,60.0,2.0,0.0
4307,66.0,15.0,40.0,1.0,0.0
4308,62.0,0.0,60.0,3.0,0.0
4309,50.0,15.0,30.0,4.0,0.0
4310,66.0,0.0,40.0,0.0,0.0
4311,66.0,30.0,30.0,4.0,0.0
4312,85.0,15.0,120.0,0.0,0.0
4313,85.0,0.0,120.0,1.0,0.0
4314,64.0,0.0,30.0,4.0,0.0
4315,79.0,30.0,30.0,4.0,0.0
4316,62.0,30.0,30.0,4.0,0.0
4317,76.0,0.0,30.0,4.0,0.0
4318,66.0,30.0,60.0,4.0,0.0
4319,73.0,0.0,40.0,2.0,0.0
4320,64.0,0.0,40.0,3.0,0.0
4321,64.0,15.0,30.0,4.0,0.0
4322,52.0,0.0,30.0,4.0,0.0
4323,82.0,0.0,30.0,1.0,0.0
4324,73.0,0.0,40.0,2.0,0.0
4325,64.0,15.0,30.0,4.0,0.0
4326,82.0,0.0,30.0,0.0,0.0
4327,64.0,15.0,40.0,3.0,0.0
4328,85.0,0.0,120.0,4.0,0.0
4329,78.0,0.0,30.0,1.0,0.0
4330,62.0,30.0,30.0,4.0,0.0
4331,78.0,0.0,30.0,0.0,0.0
4332,79.0,0.0,30.0,1.0,0.0
4333,79.0,15.0,30.0,0.0,0.0
4334,64.0,0.0,40.0,3.0,0.0
4335,64.0,0.0,60.0,4.0,0.0
4336,73.0,15.0,40.0,2.0,0.0
4337,76.0,30.0,30.0,0.0,0.0
4338,76.0,0.0,30.0,1.0,0.0
4339,78.0,0.0,30.0,0.0,0.0
4340,78.0,0.0,30.0,1.0,0.0
4341,82.0,15.0,30.0,4.0,0.0
4342,73.0,15.0,40.0,2.0,0.0
4343,64.0,0.0,40.0,3.0,0.0
4344,74.0,30.0,30.0,0.0,0.0
4345,78.0,0.0,30.0,4.0,0.0
4346,74.0,0.0,30.0,1.0,0.0
4347,73.0,30.0,60.0,2.0,0.0
4348,79.0,15.0,30.0,4.0,0.0
4349,76.0,0.0,30.0,0.0,0.0
4350,76.0,0.0,30.0,1.0,0.0
4351,64.0,15.0,40.0,3.0,0.0
4352,73.0,0.0,30.0,1.0,0.0
4353,73.0,0.0,30.0,0.0,0.0
4354,55.0,0.0,30.0,4.0,0.0
4355,76.0,0.0,30.0,4.0,0.0
4356,74.0,0.0,30.0,0.0,0.0
4357,64.0,15.0,40.0,3.0,0.0
4358,74.0,0.0,30.0,1.0,0.0
4359,67.0,15.0,30.0,4.0,0.0
4360,78.0,0.0,30.0,4.0,0.0
4361,71.0,0.0,30.0,0.0,0.0
4362,71.0,30.0,30.0,1.0,0.0
4363,66.0,0.0,30.0,4.0,0.0
4364,74.0,0.0,30.0,4.0,0.0
4365,73.0,0.0,30.0,0.0,0.0
4366,67.0,0.0,60.0,4.0,0.0
4367,73.0,0.0,60.0,2.0,0.0
4368,64.0,15.0,40.0,3.0,0.0
4369,73.0,0.0,30.0,1.0,0.0
4370,76.0,15.0,30.0,4.0,0.0
4371,70.0,0.0,30.0,0.0,0.0
4372,70.0,30.0,30.0,1.0,0.0
4373,73.0,0.0,30.0,4.0,0.0
4374,74.0,15.0,30.0,4.0,0.0
4375,71.0,0.0,30.0,0.0,0.0
4376,64.0,15.0,40.0,3.0,0.0
4377,71.0,0.0,30.0,1.0,0.0
4378,68.0,0.0,30.0,1.0,0.0
4379,71.0,15.0,30.0,4.0,0.0
4380,68.0,0.0,30.0,0.0,0.0
4381,73.0,0.0,120.0,2.0,0.0
4382,78.0,15.0,15.0,4.0,0.0
4383,70.0,0.0,30.0,0.0,0.0
4384,64.0,0.0,120.0,3.0,0.0
4385,70.0,15.0,30.0,1.0,0.0
4386,80.0,0.0,15.0,4.0,0.0
4387,66.0,15.0,30.0,0.0,0.0
4388,62.0,0.0,30.0,4.0,0.0
4389,78.0,15.0,15.0,4.0,0.0
4390,66.0,0.0,30.0,1.0,0.0
4391,80.0,0.0,15.0,4.0,0.0
4392,61.0,0.0,30.0,4.0,0.0
4393,78.0,15.0,15.0,4.0,0.0
4394,68.0,15.0,30.0,1.0,0.0
4395,68.0,0.0,30.0,0.0,0.0
4396,80.0,0.0,15.0,4.0,0.0
4397,78.0,15.0,15.0,4.0,0.0
4398,59.0,0.0,30.0,4.0,0.0
4399,70.0,15.0,30.0,0.0,0.0
4400,70.0,0.0,30.0,1.0,0.0
4401,80.0,0.0,15.0,4.0,0.0
4402,78.0,15.0,15.0,4.0,0.0
4403,71.0,15.0,30.0,0.0,0.0
4404,58.0,0.0,30.0,4.0,0.0
4405,71.0,0.0,30.0,1.0,0.0
4406,80.0,0.0,15.0,4.0,0.0
4407,73.0,0.0,30.0,1.0,0.0
4408,55.0,0.0,30.0,4.0,0.0
4409,78.0,15.0,15.0,4.0,0.0
4410,73.0,15.0,30.0,0.0,0.0
4411,80.0,0.0,15.0,4.0,0.0
4412,54.0,15.0,30.0,4.0,0.0
4413,74.0,0.0,30.0,1.0,0.0
4414,78.0,15.0,15.0,4.0,0.0
4415,74.0,0.0,30.0,0.0,0.0
4416,80.0,0.0,15.0,4.0,0.0
4417,78.0,15.0,15.0,4.0,0.0
4418,76.0,0.0,30.0,0.0,0.0
4419,52.0,15.0,30.0,4.0,0.0
4420,76.0,0.0,30.0,1.0,0.0
4421,80.0,0.0,15.0,4.0,0.0
4422,51.0,0.0,30.0,3.0,0.0
4423,71.0,0.0,60.0,2.0,0.0
4424,78.0,0.0,30.0,1.0,0.0
4425,51.0,0.0,30.0,4.0,0.0
4426,78.0,15.0,15.0,4.0,0.0
4427,78.0,15.0,30.0,0.0,0.0
4428,80.0,0.0,15.0,4.0,0.0
4429,52.0,0.0,30.0,4.0,0.0
4430,78.0,15.0,15.0,4.0,0.0
4431,52.0,0.0,30.0,3.0,0.0
4432,79.0,15.0,30.0,1.0,0.0
4433,79.0,0.0,30.0,0.0,0.0
4434,80.0,0.0,15.0,4.0,0.0
4435,81.0,0.0,40.0,0.0,0.0
4436,54.0,0.0,40.0,3.0,0.0
4437,81.0,15.0,40.0,1.0,0.0
4438,54.0,0.0,30.0,4.0,0.0
4439,78.0,15.0,15.0,4.0,0.0
4440,80.0,15.0,15.0,4.0,0.0
4441,78.0,0.0,15.0,4.0,0.0
4442,55.0,15.0,30.0,4.0,0.0
4443,80.0,0.0,15.0,4.0,0.0
4444,78.0,15.0,15.0,4.0,0.0
4445,81.0,0.0,30.0,1.0,0.0
4446,54.0,0.0,30.0,4.0,0.0
4447,54.0,0.0,30.0,3.0,0.0
4448,66.0,15.0,60.0,2.0,0.0
4449,81.0,15.0,30.0,0.0,0.0
4450,80.0,0.0,15.0,4.0,0.0
4451,83.0,0.0,30.0,1.0,0.0
4452,55.0,0.0,30.0,4.0,0.0
4453,78.0,15.0,15.0,4.0,0.0
4454,55.0,0.0,30.0,3.0,0.0
4455,83.0,0.0,30.0,0.0,0.0
4456,80.0,0.0,15.0,4.0,0.0
4457,78.0,15.0,15.0,4.0,0.0
4458,57.0,0.0,30.0,4.0,0.0
4459,84.0,0.0,40.0,1.0,0.0
4460,84.0,0.0,40.0,0.0,0.0
4461,57.0,0.0,40.0,3.0,0.0
4462,80.0,15.0,15.0,4.0,0.0
4463,59.0,15.0,30.0,4.0,0.0
4464,78.0,15.0,15.0,4.0,0.0
4465,80.0,0.0,15.0,4.0,0.0
4466,57.0,0.0,30.0,4.0,0.0
4467,78.0,15.0,15.0,4.0,0.0
4468,75.0,0.0,40.0,0.0,0.0
4469,66.0,15.0,40.0,2.0,0.0
4470,57.0,0.0,40.0,3.0,0.0
4471,75.0,0.0,40.0,1.0,0.0
4472,80.0,15.0,15.0,4.0,0.0
4473,66.0,0.0,30.0,4.0,0.0
4474,78.0,0.0,15.0,4.0,0.0
4475,80.0,30.0,15.0,4.0,0.0
4476,55.0,15.0,30.0,4.0,0.0
4477,76.0,15.0,40.0,0.0,0.0
4478,55.0,0.0,40.0,3.0,0.0
4479,71.0,0.0,40.0,2.0,0.0
4480,76.0,0.0,40.0,1.0,0.0
4481,54.0,30.0,30.0,4.0,0.0
4482,55.0,0.0,40.0,3.0,0.0
4483,73.0,0.0,40.0,2.0,0.0
4484,55.0,15.0,30.0,4.0,0.0
4485,70.0,0.0,40.0,0.0,0.0
4486,70.0,15.0,40.0,1.0,0.0
4487,64.0,30.0,30.0,4.0,0.0
4488,71.0,0.0,40.0,1.0,0.0
4489,71.0,15.0,40.0,0.0,0.0
4490,54.0,15.0,30.0,4.0,0.0
4491,54.0,0.0,40.0,3.0,0.0
4492,74.0,0.0,40.0,2.0,0.0
4493,62.0,45.0,30.0,4.0,0.0
4494,65.0,0.0,40.0,1.0,0.0
4495,65.0,30.0,40.0,0.0,0.0
4496,53.0,0.0,120.0,4.0,0.0
4497,56.0,0.0,120.0,4.0,0.0
4498,59.0,15.0,120.0,4.0,0.0
4499,86.0,15.0,60.0,4.0,0.0
4500,53.0,0.0,40.0,3.0,0.0
4501,65.0,0.0,40.0,2.0,0.0
4502,88.0,15.0,15.0,4.0,0.0
4503,86.0,15.0,15.0,4.0,0.0
4504,85.0,0.0,15.0,4.0,0.0
4505,83.0,15.0,15.0,4.0,0.0
4506,85.0,15.0,15.0,4.0,0.0
4507,86.0,15.0,15.0,4.0,0.0
4508,85.0,15.0,15.0,4.0,0.0
4509,83.0,15.0,15.0,4.0,0.0
4510,81.0,15.0,15.0,4.0,0.0
4511,80.0,15.0,15.0,4.0,0.0
4512,81.0,15.0,15.0,4.0,0.0
4513,83.0,15.0,15.0,4.0,0.0
4514,81.0,15.0,15.0,4.0,0.0
4515,80.0,15.0,15.0,4.0,0.0
4516,78.0,15.0,15.0,4.0,0.0
4517,77.0,15.0,15.0,4.0,0.0
4518,78.0,15.0,15.0,4.0,0.0
4519,80.0,15.0,15.0,4.0,0.0
4520,78.0,15.0,15.0,4.0,0.0
4521,77.0,15.0,15.0,4.0,0.0
4522,75.0,15.0,15.0,4.0,0.0
4523,73.0,15.0,15.0,4.0,0.0
4524,75.0,15.0,15.0,4.0,0.0
4525,77.0,15.0,15.0,4.0,0.0
4526,75.0,15.0,15.0,4.0,0.0
4527,73.0,15.0,15.0,4.0,0.0
4528,71.0,15.0,15.0,4.0,0.0
4529,74.0,15.0,15.0,4.0,0.0
4530,73.0,15.0,15.0,4.0,0.0
4531,71.0,15.0,15.0,4.0,0.0
4532,69.0,15.0,15.0,4.0,0.0
4533,68.0,15.0,15.0,4.0,0.0
4534,69.0,15.0,15.0,4.0,0.0
4535,71.0,15.0,15.0,4.0,0.0
4536,69.0,15.0,15.0,4.0,0.0
4537,68.0,15.0,15.0,4.0,0.0
4538,66.0,15.0,15.0,4.0,0.0
4539,65.0,15.0,15.0,4.0,0.0
4540,66.0,15.0,15.0,4.0,0.0
4541,68.0,15.0,15.0,4.0,0.0
4542,66.0,15.0,15.0,4.0,0.0
4543,65.0,15.0,15.0,4.0,0.0
4544,63.0,15.0,15.0,4.0,0.0
4545,61.0,15.0,15.0,4.0,0.0
4546,63.0,15.0,15.0,4.0,0.0
4547,61.0,15.0,15.0,4.0,0.0
4548,63.0,15.0,15.0,4.0,0.0
4549,61.0,15.0,15.0,4.0,0.0
4550,63.0,15.0,15.0,4.0,0.0
4551,65.0,15.0,15.0,4.0,0.0
4552,66.0,15.0,15.0,4.0,0.0
4553,68.0,15.0,15.0,4.0,0.0
4554,69.0,15.0,15.0,4.0,0.0
4555,71.0,15.0,15.0,4.0,0.0
4556,68.0,15.0,15.0,4.0,0.0
4557,65.0,15.0,15.0,4.0,0.0
4558,66.0,15.0,15.0,4.0,0.0
4559,68.0,15.0,15.0,4.0,0.0
4560,69.0,15.0,15.0,4.0,0.0
4561,71.0,15.0,15.0,4.0,0.0
4562,73.0,15.0,15.0,4.0,0.0
4563,74.0,15.0,15.0,4.0,0.0
4564,71.0,15.0,15.0,4.0,0.0
4565,68.0,15.0,15.0,4.0,0.0
4566,69.0,15.0,15.0,4.0,0.0
4567,71.0,15.0,15.0,4.0,0.0
4568,73.0,15.0,15.0,4.0,0.0
4569,74.0,15.0,15.0,4.0,0.0
4570,77.0,15.0,15.0,4.0,0.0
4571,78.0,15.0,15.0,4.0,0.0
4572,80.0,15.0,15.0,4.0,0.0
4573,78.0,15.0,15.0,4.0,0.0
4574,77.0,15.0,15.0,4.0,0.0
4575,75.0,15.0,15.0,4.0,0.0
4576,73.0,15.0,15.0,4.0,0.0
4577,71.0,15.0,15.0,4.0,0.0
4578,73.0,15.0,15.0,4.0,0.0
4579,75.0,15.0,15.0,4.0,0.0
4580,77.0,15.0,15.0,4.0,0.0
4581,78.0,15.0,15.0,4.0,0.0
4582,80.0,15.0,15.0,4.0,0.0
4583,81.0,15.0,15.0,4.0,0.0
4584,83.0,15.0,15.0,4.0,0.0
4585,85.0,15.0,15.0,4.0,0.0
4586,86.0,15.0,15.0,4.0,0.0
4587,85.0,15.0,15.0,4.0,0.0
4588,83.0,15.0,15.0,4.0,0.0
4589,81.0,15.0,15.0,4.0,0.0
4590,80.0,15.0,15.0,4.0,0.0
4591,78.0,15.0,15.0,4.0,0.0
4592,77.0,60.0,15.0,4.0,0.0
4593,78.0,30.0,60.0,4.0,0.0
4594,83.0,0.0,60.0,4.0,0.0
4595,79.0,30.0,60.0,4.0,0.0
4596,55.0,30.0,30.0,3.0,0.0
4597,55.0,0.0,60.0,4.0,0.0
4598,74.0,0.0,60.0,4.0,0.0
4599,74.0,0.0,30.0,1.0,0.0
4600,71.0,0.0,30.0,2.0,0.0
4601,83.0,0.0,30.0,0.0,0.0
4602,76.0,0.0,30.0,2.0,0.0
4603,85.0,0.0,30.0,0.0,0.0
4604,52.0,0.0,30.0,3.0,0.0
4605,85.0,30.0,60.0,4.0,0.0
4606,76.0,0.0,60.0,4.0,0.0
4607,52.0,0.0,60.0,4.0,0.0
4608,79.0,30.0,30.0,1.0,0.0
4609,79.0,0.0,60.0,4.0,0.0
4610,73.0,30.0,30.0,2.0,0.0
4611,82.0,0.0,30.0,0.0,0.0
4612,54.0,0.0,30.0,3.0,0.0
4613,78.0,0.0,30.0,1.0,0.0
4614,54.0,0.0,60.0,4.0,0.0
4615,73.0,0.0,60.0,4.0,0.0
4616,82.0,30.0,60.0,4.0,0.0
4617,78.0,30.0,30.0,1.0,0.0
4618,83.0,15.0,120.0,0.0,0.0
4619,74.0,0.0,120.0,2.0,0.0
4620,47.0,0.0,30.0,3.0,0.0
4621,78.0,0.0,15.0,4.0,0.0
4622,74.0,30.0,60.0,4.0,0.0
4623,59.0,0.0,30.0,4.0,0.0
4624,83.0,0.0,60.0,4.0,0.0
4625,49.0,0.0,30.0,3.0,0.0
4626,76.0,0.0,30.0,1.0,0.0
4627,61.0,0.0,30.0,4.0,0.0
4628,50.0,0.0,30.0,3.0,0.0
4629,74.0,30.0,30.0,1.0,0.0
4630,62.0,0.0,60.0,4.0,0.0
4631,73.0,0.0,30.0,1.0,0.0
4632,61.0,15.0,60.0,4.0,0.0
4633,71.0,0.0,30.0,1.0,0.0
4634,86.0,15.0,15.0,4.0,0.0
4635,49.0,15.0,40.0,3.0,0.0
4636,85.0,15.0,15.0,4.0,0.0
4637,86.0,0.0,15.0,4.0,0.0
4638,69.0,0.0,30.0,1.0,0.0
4639,88.0,0.0,15.0,4.0,0.0
4640,67.0,0.0,30.0,1.0,0.0
4641,59.0,15.0,60.0,4.0,0.0
4642,86.0,15.0,15.0,4.0,0.0
4643,47.0,15.0,40.0,3.0,0.0
4644,88.0,15.0,15.0,4.0,0.0
4645,86.0,0.0,15.0,4.0,0.0
4646,66.0,0.0,30.0,1.0,0.0
4647,88.0,0.0,15.0,4.0,0.0
4648,64.0,15.0,30.0,2.0,0.0
4649,64.0,0.0,40.0,1.0,0.0
4650,83.0,0.0,30.0,0.0,0.0
4651,86.0,15.0,15.0,4.0,0.0
4652,64.0,0.0,30.0,4.0,0.0
4653,52.0,15.0,40.0,3.0,0.0
4654,88.0,0.0,15.0,4.0,0.0
4655,81.0,0.0,30.0,0.0,0.0
4656,86.0,0.0,15.0,4.0,0.0
4657,66.0,15.0,30.0,4.0,0.0
4658,66.0,0.0,30.0,2.0,0.0
4659,88.0,0.0,15.0,4.0,0.0
4660,80.0,0.0,30.0,0.0,0.0
4661,59.0,0.0,120.0,3.0,0.0
4662,76.0,15.0,40.0,1.0,0.0
4663,67.0,0.0,30.0,2.0,0.0
4664,68.0,0.0,60.0,4.0,0.0
4665,86.0,15.0,15.0,4.0,0.0
4666,88.0,15.0,15.0,4.0,0.0
4667,78.0,0.0,30.0,0.0,0.0
4668,86.0,0.0,15.0,4.0,0.0
4669,88.0,15.0,15.0,4.0,0.0
4670,66.0,0.0,40.0,2.0,0.0
4671,86.0,15.0,15.0,4.0,0.0
4672,76.0,0.0,30.0,0.0,0.0
4673,66.0,0.0,60.0,4.0,0.0
4674,88.0,15.0,15.0,4.0,0.0
4675,74.0,15.0,30.0,0.0,0.0
4676,86.0,15.0,15.0,4.0,0.0
4677,88.0,0.0,15.0,4.0,0.0
4678,52.0,15.0,40.0,3.0,0.0
4679,73.0,0.0,30.0,0.0,0.0
4680,64.0,0.0,60.0,4.0,0.0
4681,86.0,15.0,15.0,4.0,0.0
4682,64.0,0.0,40.0,2.0,0.0
4683,88.0,15.0,15.0,4.0,0.0
4684,86.0,0.0,15.0,4.0,0.0
4685,71.0,0.0,30.0,0.0,0.0
4686,88.0,15.0,15.0,4.0,0.0
4687,69.0,0.0,40.0,2.0,0.0
4688,69.0,15.0,40.0,0.0,0.0
4689,76.0,15.0,30.0,1.0,0.0
4690,57.0,0.0,30.0,4.0,0.0
4691,45.0,0.0,30.0,3.0,0.0
4692,85.0,15.0,15.0,4.0,0.0
4693,86.0,0.0,15.0,4.0,0.0
4694,47.0,0.0,30.0,3.0,0.0
4695,59.0,15.0,30.0,4.0,0.0
4696,85.0,0.0,15.0,4.0,0.0
4697,74.0,0.0,30.0,1.0,0.0
4698,86.0,0.0,15.0,4.0,0.0
4699,49.0,15.0,30.0,3.0,0.0
4700,61.0,15.0,60.0,4.0,0.0
4701,81.0,0.0,40.0,0.0,0.0
4702,73.0,0.0,30.0,1.0,0.0
4703,76.0,0.0,120.0,2.0,0.0
4704,85.0,15.0,15.0,4.0,0.0
4705,86.0,0.0,15.0,4.0,0.0
4706,85.0,15.0,15.0,4.0,0.0
4707,71.0,0.0,30.0,1.0,0.0
4708,86.0,0.0,15.0,4.0,0.0
4709,85.0,15.0,15.0,4.0,0.0
4710,47.0,0.0,40.0,3.0,0.0
4711,69.0,0.0,30.0,1.0,0.0
4712,59.0,0.0,60.0,4.0,0.0
4713,86.0,15.0,15.0,4.0,0.0
4714,67.0,15.0,30.0,1.0,0.0
4715,85.0,15.0,15.0,4.0,0.0
4716,86.0,0.0,15.0,4.0,0.0
4717,69.0,15.0,40.0,2.0,0.0
4718,57.0,0.0,60.0,4.0,0.0
4719,85.0,15.0,15.0,4.0,0.0
4720,66.0,15.0,30.0,1.0,0.0
4721,45.0,0.0,40.0,3.0,0.0
4722,86.0,0.0,15.0,4.0,0.0
4723,85.0,0.0,15.0,4.0,0.0
4724,64.0,15.0,30.0,1.0,0.0
4725,86.0,0.0,15.0,4.0,0.0
4726,62.0,0.0,30.0,4.0,0.0
4727,85.0,15.0,15.0,4.0,0.0
4728,62.0,0.0,30.0,2.0,0.0
4729,81.0,15.0,30.0,0.0,0.0
4730,50.0,15.0,40.0,3.0,0.0
4731,62.0,0.0,40.0,1.0,0.0
4732,86.0,0.0,15.0,4.0,0.0
4733,64.0,0.0,30.0,2.0,0.0
4734,64.0,0.0,30.0,4.0,0.0
4735,85.0,0.0,15.0,4.0,0.0
4736,80.0,0.0,30.0,0.0,0.0
4737,86.0,15.0,15.0,4.0,0.0
4738,66.0,15.0,60.0,4.0,0.0
4739,78.0,0.0,30.0,0.0,0.0
4740,57.0,0.0,120.0,3.0,0.0
4741,74.0,15.0,40.0,1.0,0.0
4742,85.0,15.0,15.0,4.0,0.0
4743,66.0,15.0,30.0,2.0,0.0
4744,86.0,0.0,15.0,4.0,0.0
4745,76.0,0.0,30.0,0.0,0.0
4746,85.0,0.0,15.0,4.0,0.0
4747,86.0,0.0,15.0,4.0,0.0
4748,64.0,15.0,40.0,2.0,0.0
4749,64.0,0.0,60.0,4.0,0.0
4750,85.0,15.0,15.0,4.0,0.0
4751,74.0,0.0,30.0,0.0,0.0
4752,86.0,15.0,15.0,4.0,0.0
4753,73.0,15.0,30.0,0.0,0.0
4754,85.0,0.0,15.0,4.0,0.0
4755,86.0,0.0,15.0,4.0,0.0
4756,71.0,15.0,30.0,0.0,0.0
4757,85.0,15.0,15.0,4.0,0.0
4758,62.0,0.0,40.0,2.0,0.0
4759,62.0,0.0,60.0,4.0,0.0
4760,50.0,15.0,40.0,3.0,0.0
4761,86.0,0.0,15.0,4.0,0.0
4762,85.0,0.0,15.0,4.0,0.0
4763,69.0,15.0,30.0,0.0,0.0
4764,86.0,0.0,15.0,4.0,0.0
4765,68.0,15.0,40.0,2.0,0.0
4766,56.0,0.0,30.0,4.0,0.0
4767,68.0,0.0,40.0,0.0,0.0
4768,44.0,15.0,30.0,3.0,0.0
4769,83.0,15.0,15.0,4.0,0.0
4770,74.0,0.0,30.0,1.0,0.0
4771,85.0,0.0,15.0,4.0,0.0
4772,57.0,15.0,30.0,4.0,0.0
4773,83.0,0.0,15.0,4.0,0.0
4774,73.0,0.0,30.0,1.0,0.0
4775,45.0,0.0,30.0,3.0,0.0
4776,85.0,0.0,15.0,4.0,0.0
4777,71.0,0.0,30.0,1.0,0.0
4778,74.0,0.0,120.0,2.0,0.0
4779,80.0,0.0,40.0,0.0,0.0
4780,83.0,15.0,15.0,4.0,0.0
4781,59.0,0.0,60.0,4.0,0.0
4782,47.0,0.0,30.0,3.0,0.0
4783,85.0,15.0,15.0,4.0,0.0
4784,69.0,0.0,30.0,1.0,0.0
4785,83.0,15.0,15.0,4.0,0.0
4786,85.0,15.0,15.0,4.0,0.0
4787,83.0,15.0,15.0,4.0,0.0
4788,68.0,0.0,30.0,1.0,0.0
4789,57.0,0.0,60.0,4.0,0.0
4790,45.0,0.0,40.0,3.0,0.0
4791,85.0,15.0,15.0,4.0,0.0
4792,66.0,15.0,30.0,1.0,0.0
4793,83.0,15.0,15.0,4.0,0.0
4794,85.0,0.0,15.0,4.0,0.0
4795,68.0,0.0,40.0,2.0,0.0
4796,44.0,0.0,40.0,3.0,0.0
4797,56.0,15.0,60.0,4.0,0.0
4798,83.0,15.0,15.0,4.0,0.0
4799,65.0,15.0,30.0,1.0,0.0
4800,85.0,0.0,15.0,4.0,0.0
4801,63.0,0.0,30.0,1.0,0.0
4802,83.0,15.0,15.0,4.0,0.0
4803,85.0,0.0,15.0,4.0,0.0
4804,49.0,15.0,40.0,3.0,0.0
4805,83.0,15.0,15.0,4.0,0.0
4806,61.0,15.0,30.0,2.0,0.0
4807,80.0,0.0,30.0,0.0,0.0
4808,61.0,0.0,40.0,1.0,0.0
4809,61.0,0.0,30.0,4.0,0.0
4810,85.0,0.0,15.0,4.0,0.0
4811,63.0,0.0,30.0,4.0,0.0
4812,83.0,0.0,15.0,4.0,0.0
4813,78.0,0.0,30.0,0.0,0.0
4814,63.0,15.0,30.0,2.0,0.0
4815,85.0,0.0,15.0,4.0,0.0
4816,65.0,0.0,60.0,4.0,0.0
4817,83.0,15.0,15.0,4.0,0.0
4818,65.0,0.0,30.0,2.0,0.0
4819,73.0,0.0,40.0,1.0,0.0
4820,56.0,0.0,120.0,3.0,0.0
4821,77.0,15.0,30.0,0.0,0.0
4822,85.0,0.0,15.0,4.0,0.0
4823,83.0,15.0,15.0,4.0,0.0
4824,75.0,0.0,30.0,0.0,0.0
4825,85.0,15.0,15.0,4.0,0.0
4826,73.0,15.0,30.0,0.0,0.0
4827,63.0,0.0,60.0,4.0,0.0
4828,63.0,15.0,40.0,2.0,0.0
4829,83.0,15.0,15.0,4.0,0.0
4830,85.0,0.0,15.0,4.0,0.0
4831,71.0,0.0,30.0,0.0,0.0
4832,83.0,0.0,15.0,4.0,0.0
4833,85.0,15.0,15.0,4.0,0.0
4834,69.0,0.0,30.0,0.0,0.0
4835,49.0,15.0,40.0,3.0,0.0
4836,61.0,0.0,40.0,2.0,0.0
4837,83.0,15.0,15.0,4.0,0.0
4838,61.0,30.0,60.0,4.0,0.0
4839,85.0,15.0,15.0,4.0,0.0
4840,68.0,0.0,30.0,0.0,0.0
4841,83.0,0.0,15.0,4.0,0.0
4842,85.0,0.0,15.0,4.0,0.0
4843,42.0,0.0,30.0,3.0,0.0
4844,66.0,15.0,40.0,0.0,0.0
4845,81.0,15.0,30.0,4.0,0.0
4846,54.0,0.0,30.0,4.0,0.0
4847,66.0,0.0,40.0,2.0,0.0
4848,56.0,0.0,30.0,4.0,0.0
4849,85.0,0.0,30.0,4.0,0.0
4850,44.0,30.0,30.0,3.0,0.0
4851,73.0,0.0,120.0,2.0,0.0
4852,69.0,0.0,40.0,1.0,0.0
4853,45.0,15.0,30.0,3.0,0.0
4854,57.0,0.0,60.0,4.0,0.0
4855,78.0,15.0,40.0,0.0,0.0
4856,85.0,0.0,15.0,4.0,0.0
4857,73.0,0.0,40.0,1.0,0.0
4858,44.0,15.0,40.0,3.0,0.0
4859,56.0,30.0,60.0,4.0,0.0
4860,83.0,15.0,30.0,4.0,0.0
4861,85.0,0.0,30.0,4.0,0.0
4862,42.0,0.0,40.0,3.0,0.0
4863,78.0,0.0,40.0,1.0,0.0
4864,81.0,15.0,30.0,4.0,0.0
4865,54.0,30.0,60.0,4.0,0.0
4866,78.0,15.0,40.0,0.0,0.0
4867,66.0,0.0,40.0,2.0,0.0
4868,85.0,0.0,30.0,4.0,0.0
4869,49.0,15.0,30.0,3.0,0.0
4870,65.0,15.0,40.0,2.0,0.0
4871,80.0,0.0,40.0,0.0,0.0
4872,80.0,0.0,30.0,4.0,0.0
4873,61.0,30.0,60.0,4.0,0.0
4874,51.0,0.0,30.0,3.0,0.0
4875,85.0,0.0,30.0,4.0,0.0
4876,73.0,0.0,120.0,2.0,0.0
4877,53.0,0.0,40.0,3.0,0.0
4878,49.0,0.0,60.0,4.0,0.0
4879,83.0,15.0,30.0,4.0,0.0
4880,73.0,0.0,40.0,1.0,0.0
4881,83.0,15.0,40.0,0.0,0.0
4882,81.0,30.0,30.0,4.0,0.0
4883,80.0,15.0,30.0,4.0,0.0
4884,80.0,15.0,40.0,1.0,0.0
4885,51.0,0.0,40.0,3.0,0.0
4886,78.0,30.0,30.0,4.0,0.0
4887,65.0,0.0,60.0,2.0,0.0
4888,77.0,15.0,30.0,4.0,0.0
4889,80.0,0.0,40.0,0.0,0.0
4890,83.0,0.0,40.0,1.0,0.0
4891,49.0,15.0,40.0,3.0,0.0
4892,75.0,30.0,30.0,4.0,0.0
4893,54.0,0.0,30.0,3.0,0.0
4894,81.0,0.0,40.0,0.0,0.0
4895,66.0,15.0,40.0,2.0,0.0
4896,42.0,0.0,30.0,4.0,0.0
4897,56.0,0.0,30.0,3.0,0.0
4898,73.0,15.0,15.0,4.0,0.0
4899,44.0,0.0,30.0,4.0,0.0
4900,81.0,0.0,40.0,1.0,0.0
4901,85.0,0.0,40.0,0.0,0.0
4902,73.0,30.0,15.0,4.0,0.0
4903,45.0,30.0,60.0,4.0,0.0
4904,73.0,0.0,120.0,2.0,0.0
4905,57.0,15.0,40.0,3.0,0.0
4906,73.0,15.0,15.0,4.0,0.0
4907,56.0,15.0,40.0,3.0,0.0
4908,71.0,15.0,30.0,4.0,0.0
4909,85.0,0.0,40.0,1.0,0.0
4910,44.0,0.0,60.0,4.0,0.0
4911,73.0,30.0,30.0,4.0,0.0
4912,54.0,0.0,40.0,3.0,0.0
4913,42.0,30.0,60.0,4.0,0.0
4914,90.0,0.0,40.0,1.0,0.0
4915,66.0,15.0,40.0,2.0,0.0
4916,81.0,0.0,40.0,0.0,0.0
4917,69.0,15.0,30.0,4.0,0.0
4918,73.0,0.0,30.0,4.0,0.0
4919,80.0,0.0,40.0,0.0,0.0
4920,61.0,0.0,30.0,3.0,0.0
4921,68.0,15.0,30.0,4.0,0.0
4922,49.0,0.0,60.0,4.0,0.0
4923,65.0,15.0,40.0,2.0,0.0
4924,63.0,0.0,30.0,3.0,0.0
4925,73.0,30.0,30.0,4.0,0.0
4926,37.0,30.0,60.0,4.0,0.0
4927,71.0,15.0,30.0,4.0,0.0
4928,73.0,0.0,40.0,1.0,0.0
4929,73.0,0.0,120.0,2.0,0.0
4930,65.0,15.0,40.0,3.0,0.0
4931,83.0,0.0,40.0,0.0,0.0
4932,69.0,0.0,30.0,4.0,0.0
4933,80.0,0.0,40.0,1.0,0.0
4934,63.0,15.0,40.0,3.0,0.0
4935,68.0,15.0,30.0,4.0,0.0
4936,66.0,30.0,30.0,4.0,0.0
4937,65.0,15.0,30.0,4.0,0.0
4938,80.0,15.0,40.0,0.0,0.0
4939,61.0,0.0,40.0,3.0,0.0
4940,83.0,0.0,40.0,1.0,0.0
4941,65.0,0.0,40.0,2.0,0.0
4942,63.0,30.0,30.0,4.0,0.0
4943,66.0,0.0,40.0,2.0,0.0
4944,66.0,0.0,120.0,3.0,0.0
4945,81.0,15.0,40.0,0.0,0.0
4946,61.0,15.0,30.0,4.0,0.0
4947,54.0,30.0,30.0,4.0,0.0
4948,66.0,0.0,30.0,4.0,0.0
4949,68.0,15.0,30.0,4.0,0.0
4950,53.0,0.0,30.0,4.0,0.0
4951,85.0,0.0,120.0,1.0,0.0
4952,85.0,0.0,30.0,0.0,0.0
4953,66.0,15.0,40.0,2.0,0.0
4954,81.0,0.0,30.0,0.0,0.0
4955,69.0,0.0,30.0,4.0,0.0
4956,54.0,30.0,30.0,4.0,0.0
4957,78.0,0.0,40.0,0.0,0.0
4958,42.0,30.0,60.0,4.0,0.0
4959,71.0,15.0,30.0,4.0,0.0
4960,66.0,15.0,40.0,2.0,0.0
4961,68.0,0.0,30.0,4.0,0.0
4962,69.0,0.0,30.0,4.0,0.0
4963,85.0,0.0,120.0,0.0,0.0
4964,66.0,15.0,40.0,2.0,0.0
4965,85.0,15.0,30.0,1.0,0.0
4966,66.0,30.0,30.0,4.0,0.0
4967,81.0,0.0,30.0,1.0,0.0
4968,78.0,0.0,40.0,1.0,0.0
4969,61.0,15.0,30.0,4.0,0.0
4970,66.0,15.0,40.0,2.0,0.0
4971,66.0,0.0,30.0,4.0,0.0
4972,54.0,30.0,30.0,4.0,0.0
4973,85.0,15.0,30.0,0.0,0.0
4974,68.0,0.0,30.0,4.0,0.0
4975,66.0,0.0,40.0,2.0,0.0
4976,86.0,15.0,120.0,1.0,0.0
4977,66.0,15.0,40.0,3.0,0.0
4978,52.0,0.0,30.0,4.0,0.0
4979,54.0,0.0,30.0,4.0,0.0
4980,69.0,30.0,30.0,4.0,0.0
4981,81.0,0.0,30.0,0.0,0.0
4982,66.0,0.0,40.0,2.0,0.0
4983,78.0,0.0,40.0,0.0,0.0
4984,62.0,0.0,40.0,3.0,0.0
4985,50.0,15.0,30.0,4.0,0.0
4986,71.0,0.0,30.0,4.0,0.0
4987,68.0,0.0,30.0,4.0,0.0
4988,47.0,30.0,30.0,4.0,0.0
4989,66.0,15.0,40.0,2.0,0.0
4990,59.0,0.0,40.0,3.0,0.0
4991,86.0,15.0,120.0,0.0,0.0
4992,49.0,0.0,30.0,4.0,0.0
4993,69.0,15.0,30.0,4.0,0.0
4994,78.0,0.0,30.0,1.0,0.0
4995,74.0,30.0,30.0,1.0,0.0
4996,66.0,0.0,30.0,4.0,0.0
4997,50.0,0.0,30.0,4.0,0.0
4998,64.0,0.0,120.0,3.0,0.0
4999,52.0,15.0,30.0,4.0,0.0
5000,68.0,0.0,40.0,1.0,0.0
5001,68.0,0.0,30.0,4.0,0.0
5002,64.0,0.0,40.0,2.0,0.0
5003,61.0,0.0,30.0,4.0,0.0
5004,73.0,30.0,30.0,4.0,0.0
5005,85.0,0.0,120.0,1.0,0.0
5006,80.0,15.0,30.0,0.0,0.0
5007,60.0,0.0,30.0,4.0,0.0
5008,75.0,0.0,30.0,4.0,0.0
5009,64.0,15.0,40.0,2.0,0.0
5010,61.0,30.0,30.0,4.0,0.0
5011,76.0,0.0,30.0,4.0,0.0
5012,76.0,0.0,30.0,0.0,0.0
5013,49.0,30.0,60.0,4.0,0.0
5014,78.0,15.0,30.0,4.0,0.0
5015,64.0,0.0,40.0,2.0,0.0
5016,73.0,15.0,40.0,0.0,0.0
5017,75.0,0.0,30.0,4.0,0.0
5018,85.0,15.0,120.0,0.0,0.0
5019,80.0,0.0,30.0,1.0,0.0
5020,76.0,15.0,30.0,4.0,0.0
5021,64.0,15.0,40.0,2.0,0.0
5022,76.0,0.0,30.0,1.0,0.0
5023,73.0,30.0,30.0,4.0,0.0
5024,68.0,15.0,30.0,4.0,0.0
5025,73.0,0.0,40.0,1.0,0.0
5026,64.0,0.0,40.0,2.0,0.0
5027,73.0,0.0,30.0,4.0,0.0
5028,61.0,30.0,30.0,4.0,0.0
5029,75.0,15.0,30.0,4.0,0.0
5030,52.0,15.0,40.0,3.0,0.0
5031,80.0,0.0,30.0,0.0,0.0
5032,60.0,0.0,30.0,4.0,0.0
5033,64.0,0.0,40.0,2.0,0.0
5034,85.0,15.0,120.0,1.0,0.0
5035,61.0,0.0,30.0,4.0,0.0
5036,76.0,0.0,30.0,4.0,0.0
5037,76.0,30.0,30.0,0.0,0.0
5038,78.0,15.0,30.0,4.0,0.0
5039,57.0,0.0,30.0,4.0,0.0
5040,73.0,0.0,40.0,0.0,0.0
5041,57.0,0.0,40.0,3.0,0.0
5042,64.0,0.0,40.0,2.0,0.0
5043,75.0,0.0,30.0,4.0,0.0
5044,54.0,30.0,30.0,4.0,0.0
5045,61.0,15.0,40.0,3.0,0.0
5046,76.0,0.0,30.0,4.0,0.0
5047,56.0,15.0,30.0,4.0,0.0
5048,85.0,0.0,120.0,0.0,0.0
5049,80.0,0.0,30.0,1.0,0.0
5050,64.0,0.0,40.0,2.0,0.0
5051,76.0,0.0,30.0,1.0,0.0
5052,57.0,30.0,30.0,4.0,0.0
5053,73.0,0.0,30.0,4.0,0.0
5054,50.0,0.0,120.0,3.0,0.0
5055,62.0,15.0,40.0,2.0,0.0
5056,69.0,0.0,40.0,1.0,0.0
5057,50.0,0.0,30.0,4.0,0.0
5058,66.0,15.0,15.0,4.0,0.0
5059,78.0,0.0,30.0,4.0,0.0
5060,62.0,15.0,40.0,2.0,0.0
5061,85.0,0.0,30.0,0.0,0.0
5062,85.0,0.0,120.0,1.0,0.0
5063,65.0,15.0,30.0,4.0,0.0
5064,80.0,0.0,30.0,4.0,0.0
5065,81.0,0.0,30.0,0.0,0.0
5066,66.0,0.0,30.0,4.0,0.0
5067,81.0,30.0,30.0,4.0,0.0
5068,78.0,15.0,40.0,0.0,0.0
5069,50.0,30.0,60.0,4.0,0.0
5070,83.0,15.0,30.0,4.0,0.0
5071,62.0,0.0,40.0,2.0,0.0
5072,80.0,0.0,30.0,4.0,0.0
5073,85.0,0.0,30.0,1.0,0.0
5074,85.0,15.0,120.0,0.0,0.0
5075,81.0,15.0,30.0,4.0,0.0
5076,62.0,15.0,40.0,2.0,0.0
5077,81.0,30.0,30.0,1.0,0.0
5078,78.0,0.0,30.0,4.0,0.0
5079,66.0,15.0,30.0,4.0,0.0
5080,78.0,0.0,40.0,1.0,0.0
5081,62.0,0.0,40.0,2.0,0.0
5082,66.0,0.0,30.0,4.0,0.0
5083,78.0,30.0,30.0,4.0,0.0
5084,50.0,0.0,40.0,3.0,0.0
5085,65.0,0.0,30.0,4.0,0.0
5086,80.0,0.0,30.0,4.0,0.0
5087,62.0,15.0,40.0,2.0,0.0
5088,85.0,15.0,30.0,0.0,0.0
5089,86.0,0.0,120.0,1.0,0.0
5090,66.0,30.0,30.0,4.0,0.0
5091,81.0,0.0,30.0,4.0,0.0
5092,81.0,0.0,30.0,0.0,0.0
5093,56.0,0.0,40.0,3.0,0.0
5094,62.0,0.0,40.0,2.0,0.0
5095,78.0,15.0,40.0,0.0,0.0
5096,62.0,0.0,30.0,4.0,0.0
5097,83.0,15.0,30.0,4.0,0.0
5098,80.0,30.0,30.0,4.0,0.0
5099,59.0,0.0,30.0,4.0,0.0
5100,81.0,0.0,30.0,4.0,0.0
5101,86.0,15.0,30.0,1.0,0.0
5102,59.0,15.0,40.0,3.0,0.0
5103,62.0,0.0,40.0,2.0,0.0
5104,86.0,0.0,120.0,0.0,0.0
5105,61.0,0.0,30.0,4.0,0.0
5106,62.0,30.0,30.0,4.0,0.0
5107,78.0,0.0,30.0,4.0,0.0
5108,83.0,0.0,30.0,1.0,0.0
5109,49.0,0.0,30.0,4.0,0.0
5110,61.0,0.0,40.0,2.0,0.0
5111,80.0,15.0,40.0,1.0,0.0
5112,77.0,15.0,30.0,4.0,0.0
5113,49.0,0.0,120.0,3.0,0.0
5114,80.0,0.0,30.0,4.0,0.0
5115,68.0,30.0,30.0,4.0,0.0
5116,77.0,15.0,120.0,1.0,0.0
5117,61.0,15.0,40.0,2.0,0.0
5118,81.0,0.0,30.0,4.0,0.0
5119,66.0,0.0,30.0,4.0,0.0
5120,86.0,15.0,30.0,0.0,0.0
5121,68.0,0.0,30.0,4.0,0.0
5122,83.0,30.0,30.0,4.0,0.0
5123,83.0,0.0,30.0,0.0,0.0
5124,85.0,15.0,30.0,4.0,0.0
5125,65.0,30.0,60.0,4.0,0.0
5126,80.0,0.0,40.0,0.0,0.0
5127,61.0,0.0,40.0,2.0,0.0
5128,81.0,0.0,30.0,4.0,0.0
5129,80.0,15.0,30.0,1.0,0.0
5130,83.0,15.0,120.0,0.0,0.0
5131,61.0,15.0,40.0,2.0,0.0
5132,83.0,0.0,30.0,4.0,0.0
5133,80.0,30.0,30.0,4.0,0.0
5134,77.0,0.0,30.0,1.0,0.0
5135,77.0,15.0,30.0,4.0,0.0
5136,73.0,0.0,40.0,1.0,0.0
5137,61.0,0.0,40.0,2.0,0.0
5138,80.0,0.0,30.0,4.0,0.0
5139,68.0,30.0,30.0,4.0,0.0
5140,80.0,0.0,30.0,0.0,0.0
5141,73.0,0.0,120.0,1.0,0.0
5142,56.0,15.0,40.0,3.0,0.0
5143,81.0,15.0,30.0,4.0,0.0
5144,66.0,0.0,30.0,4.0,0.0
5145,61.0,0.0,40.0,2.0,0.0
5146,83.0,30.0,30.0,4.0,0.0
5147,68.0,0.0,30.0,4.0,0.0
5148,77.0,0.0,30.0,0.0,0.0
5149,53.0,0.0,40.0,3.0,0.0
5150,61.0,0.0,40.0,2.0,0.0
5151,85.0,0.0,30.0,4.0,0.0
5152,65.0,15.0,30.0,4.0,0.0
5153,73.0,15.0,40.0,0.0,0.0
5154,81.0,0.0,30.0,4.0,0.0
5155,66.0,30.0,30.0,4.0,0.0
5156,77.0,0.0,40.0,0.0,0.0
5157,68.0,0.0,30.0,1.0,0.0
5158,68.0,15.0,30.0,4.0,0.0
5159,83.0,0.0,30.0,4.0,0.0
5160,49.0,0.0,40.0,3.0,0.0
5161,61.0,15.0,40.0,2.0,0.0
5162,61.0,0.0,30.0,4.0,0.0
5163,65.0,0.0,30.0,1.0,0.0
5164,80.0,30.0,30.0,4.0,0.0
5165,66.0,0.0,30.0,1.0,0.0
5166,81.0,0.0,60.0,0.0,0.0
5167,54.0,15.0,40.0,3.0,0.0
5168,61.0,15.0,120.0,2.0,0.0
5169,66.0,0.0,60.0,4.0,0.0
5170,81.0,15.0,30.0,4.0,0.0
5171,78.0,30.0,30.0,4.0,0.0
5172,68.0,0.0,30.0,1.0,0.0
5173,69.0,0.0,30.0,1.0,0.0
5174,54.0,0.0,40.0,3.0,0.0
5175,81.0,15.0,30.0,4.0,0.0
5176,85.0,0.0,30.0,4.0,0.0
5177,90.0,15.0,30.0,4.0,0.0
5178,54.0,30.0,15.0,4.0,0.0
5179,54.0,0.0,40.0,3.0,0.0
5180,85.0,0.0,60.0,0.0,0.0
5181,66.0,15.0,120.0,2.0,0.0
5182,68.0,15.0,40.0,1.0,0.0
5183,78.0,30.0,30.0,4.0,0.0
5184,81.0,15.0,30.0,4.0,0.0
5185,66.0,0.0,60.0,4.0,0.0
5186,66.0,0.0,40.0,1.0,0.0
5187,54.0,0.0,40.0,3.0,0.0
5188,85.0,30.0,30.0,4.0,0.0
5189,90.0,15.0,30.0,4.0,0.0
5190,73.0,0.0,40.0,1.0,0.0
5191,64.0,0.0,60.0,4.0,0.0
5192,82.0,0.0,60.0,0.0,0.0
5193,52.0,15.0,40.0,3.0,0.0
5194,78.0,30.0,30.0,4.0,0.0
5195,52.0,15.0,40.0,3.0,0.0
5196,52.0,30.0,60.0,4.0,0.0
5197,78.0,15.0,120.0,1.0,0.0
5198,82.0,15.0,30.0,4.0,0.0
5199,85.0,0.0,30.0,4.0,0.0
5200,52.0,0.0,40.0,3.0,0.0
5201,64.0,0.0,120.0,2.0,0.0
5202,78.0,30.0,60.0,0.0,0.0
5203,90.0,15.0,30.0,4.0,0.0
5204,52.0,0.0,60.0,4.0,0.0
5205,78.0,0.0,30.0,4.0,0.0
5206,82.0,15.0,30.0,4.0,0.0
5207,52.0,15.0,40.0,3.0,0.0
5208,70.0,0.0,40.0,1.0,0.0
5209,64.0,0.0,60.0,4.0,0.0
5210,85.0,30.0,30.0,4.0,0.0
5211,50.0,15.0,40.0,3.0,0.0
5212,71.0,0.0,60.0,1.0,0.0
5213,90.0,15.0,30.0,4.0,0.0
5214,62.0,0.0,60.0,4.0,0.0
5215,71.0,0.0,30.0,0.0,0.0
5216,73.0,30.0,30.0,0.0,0.0
5217,78.0,0.0,30.0,4.0,0.0
5218,74.0,0.0,30.0,0.0,0.0
5219,50.0,30.0,60.0,4.0,0.0
5220,83.0,15.0,30.0,4.0,0.0
5221,50.0,15.0,40.0,3.0,0.0
5222,86.0,0.0,30.0,4.0,0.0
5223,62.0,30.0,120.0,2.0,0.0
5224,74.0,0.0,60.0,1.0,0.0
5225,90.0,15.0,30.0,4.0,0.0
5226,50.0,0.0,40.0,3.0,0.0
5227,50.0,0.0,60.0,4.0,0.0
5228,73.0,15.0,40.0,0.0,0.0
5229,78.0,30.0,30.0,4.0,0.0
5230,71.0,15.0,40.0,0.0,0.0
5231,50.0,0.0,40.0,3.0,0.0
5232,83.0,15.0,30.0,4.0,0.0
5233,62.0,0.0,60.0,4.0,0.0
5234,86.0,0.0,30.0,4.0,0.0
5235,71.0,30.0,60.0,1.0,0.0
5236,51.0,15.0,40.0,3.0,0.0
5237,63.0,0.0,60.0,4.0,0.0
5238,90.0,15.0,30.0,4.0,0.0
5239,78.0,0.0,40.0,0.0,0.0
5240,78.0,0.0,30.0,4.0,0.0
5241,81.0,15.0,30.0,4.0,0.0
5242,51.0,15.0,40.0,3.0,0.0
5243,83.0,15.0,120.0,0.0,0.0
5244,87.0,0.0,30.0,4.0,0.0
5245,51.0,30.0,15.0,4.0,0.0
5246,63.0,0.0,120.0,2.0,0.0
5247,90.0,15.0,30.0,4.0,0.0
5248,51.0,0.0,40.0,3.0,0.0
5249,66.0,0.0,60.0,1.0,0.0
5250,87.0,0.0,30.0,4.0,0.0
5251,78.0,15.0,40.0,0.0,0.0
5252,81.0,15.0,30.0,4.0,0.0
5253,63.0,30.0,60.0,4.0,0.0
5254,51.0,0.0,40.0,3.0,0.0
5255,78.0,0.0,30.0,4.0,0.0
5256,52.0,15.0,40.0,3.0,0.0
5257,71.0,30.0,60.0,0.0,0.0
5258,64.0,0.0,60.0,4.0,0.0
5259,79.0,0.0,30.0,4.0,0.0
5260,64.0,15.0,30.0,1.0,0.0
5261,76.0,0.0,30.0,4.0,0.0
5262,66.0,0.0,30.0,1.0,0.0
5263,79.0,15.0,30.0,4.0,0.0
5264,52.0,30.0,60.0,4.0,0.0
5265,52.0,15.0,40.0,3.0,0.0
5266,67.0,0.0,30.0,1.0,0.0
5267,83.0,0.0,30.0,4.0,0.0
5268,66.0,0.0,40.0,1.0,0.0
5269,64.0,0.0,120.0,2.0,0.0
5270,88.0,15.0,30.0,4.0,0.0
5271,83.0,30.0,60.0,0.0,0.0
5272,52.0,15.0,40.0,3.0,0.0
5273,52.0,0.0,60.0,4.0,0.0
5274,76.0,0.0,30.0,4.0,0.0
5275,64.0,0.0,60.0,4.0,0.0
5276,52.0,0.0,40.0,3.0,0.0
5277,64.0,15.0,40.0,1.0,0.0
5278,79.0,15.0,30.0,4.0,0.0
5279,83.0,30.0,30.0,4.0,0.0
5280,80.0,0.0,60.0,0.0,0.0
5281,50.0,15.0,40.0,3.0,0.0
5282,62.0,0.0,60.0,4.0,0.0
5283,88.0,15.0,30.0,4.0,0.0
5284,71.0,0.0,40.0,1.0,0.0
5285,76.0,30.0,30.0,4.0,0.0
5286,76.0,0.0,120.0,1.0,0.0
5287,80.0,15.0,30.0,4.0,0.0
5288,50.0,30.0,60.0,4.0,0.0
5289,50.0,15.0,40.0,3.0,0.0
5290,83.0,0.0,30.0,4.0,0.0
5291,76.0,0.0,60.0,0.0,0.0
5292,50.0,15.0,40.0,3.0,0.0
5293,50.0,0.0,60.0,4.0,0.0
5294,88.0,15.0,30.0,4.0,0.0
5295,62.0,0.0,120.0,2.0,0.0
5296,76.0,30.0,30.0,4.0,0.0
5297,62.0,0.0,60.0,4.0,0.0
5298,80.0,15.0,30.0,4.0,0.0
5299,68.0,0.0,40.0,1.0,0.0
5300,50.0,15.0,40.0,3.0,0.0
5301,83.0,30.0,30.0,4.0,0.0
5302,61.0,0.0,60.0,4.0,0.0
5303,49.0,15.0,40.0,3.0,0.0
5304,88.0,0.0,30.0,4.0,0.0
5305,69.0,15.0,30.0,0.0,0.0
5306,69.0,0.0,60.0,1.0,0.0
5307,76.0,0.0,30.0,4.0,0.0
5308,71.0,30.0,30.0,0.0,0.0
5309,73.0,0.0,30.0,0.0,0.0
5310,49.0,15.0,40.0,3.0,0.0
5311,49.0,0.0,60.0,4.0,0.0
5312,81.0,15.0,30.0,4.0,0.0
5313,85.0,30.0,30.0,4.0,0.0
5314,49.0,15.0,40.0,3.0,0.0
5315,88.0,15.0,30.0,4.0,0.0
5316,61.0,0.0,120.0,2.0,0.0
5317,73.0,30.0,60.0,1.0,0.0
5318,71.0,0.0,40.0,0.0,0.0
5319,49.0,0.0,60.0,4.0,0.0
5320,76.0,0.0,30.0,4.0,0.0
5321,69.0,0.0,40.0,0.0,0.0
5322,81.0,15.0,30.0,4.0,0.0
5323,49.0,15.0,40.0,3.0,0.0
5324,61.0,30.0,60.0,4.0,0.0
5325,85.0,0.0,30.0,4.0,0.0
5326,76.0,0.0,40.0,0.0,0.0
5327,49.0,15.0,40.0,3.0,0.0
5328,88.0,15.0,30.0,4.0,0.0
5329,69.0,30.0,60.0,1.0,0.0
5330,61.0,0.0,60.0,4.0,0.0
5331,76.0,0.0,30.0,4.0,0.0
5332,79.0,15.0,30.0,4.0,0.0
5333,81.0,15.0,120.0,0.0,0.0
5334,49.0,15.0,40.0,3.0,0.0
5335,85.0,30.0,30.0,4.0,0.0
5336,88.0,15.0,30.0,4.0,0.0
5337,61.0,30.0,120.0,2.0,0.0
5338,64.0,30.0,60.0,1.0,0.0
5339,49.0,0.0,40.0,3.0,0.0
5340,49.0,0.0,15.0,4.0,0.0
5341,85.0,0.0,30.0,4.0,0.0
5342,76.0,0.0,40.0,0.0,0.0
5343,61.0,0.0,60.0,4.0,0.0
5344,79.0,15.0,30.0,4.0,0.0
5345,49.0,15.0,40.0,3.0,0.0
5346,76.0,0.0,30.0,4.0,0.0
5347,62.0,30.0,60.0,4.0,0.0
5348,78.0,15.0,30.0,4.0,0.0
5349,62.0,0.0,30.0,1.0,0.0
5350,69.0,0.0,60.0,0.0,0.0
5351,50.0,15.0,40.0,3.0,0.0
5352,64.0,0.0,30.0,1.0,0.0
5353,74.0,0.0,30.0,4.0,0.0
5354,66.0,15.0,30.0,1.0,0.0
5355,50.0,15.0,40.0,3.0,0.0
5356,78.0,0.0,30.0,4.0,0.0
5357,81.0,0.0,30.0,4.0,0.0
5358,81.0,0.0,60.0,0.0,0.0
5359,62.0,0.0,120.0,2.0,0.0
5360,50.0,0.0,40.0,3.0,0.0
5361,50.0,30.0,15.0,4.0,0.0
5362,64.0,15.0,40.0,1.0,0.0
5363,86.0,15.0,30.0,4.0,0.0
5364,74.0,30.0,30.0,4.0,0.0
5365,78.0,15.0,30.0,4.0,0.0
5366,50.0,15.0,40.0,3.0,0.0
5367,62.0,0.0,40.0,1.0,0.0
5368,62.0,0.0,60.0,4.0,0.0
5369,81.0,30.0,30.0,4.0,0.0
5370,78.0,0.0,60.0,0.0,0.0
5371,48.0,0.0,40.0,3.0,0.0
5372,60.0,0.0,60.0,4.0,0.0
5373,86.0,15.0,30.0,4.0,0.0
5374,69.0,15.0,40.0,1.0,0.0
5375,74.0,30.0,30.0,4.0,0.0
5376,78.0,15.0,30.0,4.0,0.0
5377,48.0,15.0,40.0,3.0,0.0
5378,74.0,15.0,120.0,1.0,0.0
5379,81.0,30.0,30.0,4.0,0.0
5380,60.0,0.0,120.0,2.0,0.0
5381,74.0,0.0,60.0,0.0,0.0
5382,86.0,15.0,30.0,4.0,0.0
5383,48.0,0.0,15.0,4.0,0.0
5384,48.0,0.0,40.0,3.0,0.0
5385,74.0,0.0,30.0,4.0,0.0
5386,48.0,0.0,40.0,3.0,0.0
5387,66.0,15.0,40.0,1.0,0.0
5388,60.0,30.0,60.0,4.0,0.0
5389,78.0,15.0,30.0,4.0,0.0
5390,81.0,0.0,30.0,4.0,0.0
5391,47.0,15.0,40.0,3.0,0.0
5392,67.0,0.0,60.0,1.0,0.0
5393,59.0,30.0,60.0,4.0,0.0
5394,67.0,0.0,30.0,0.0,0.0
5395,86.0,15.0,30.0,4.0,0.0
5396,69.0,0.0,30.0,0.0,0.0
5397,74.0,0.0,30.0,4.0,0.0
5398,47.0,15.0,40.0,3.0,0.0
5399,47.0,0.0,60.0,4.0,0.0
5400,79.0,15.0,30.0,4.0,0.0
5401,71.0,0.0,30.0,0.0,0.0
5402,83.0,30.0,30.0,4.0,0.0
5403,47.0,0.0,60.0,4.0,0.0
5404,86.0,15.0,30.0,4.0,0.0
5405,47.0,0.0,40.0,3.0,0.0
5406,69.0,15.0,40.0,0.0,0.0
5407,59.0,0.0,120.0,2.0,0.0
5408,71.0,0.0,60.0,1.0,0.0
5409,74.0,30.0,30.0,4.0,0.0
5410,47.0,15.0,40.0,3.0,0.0
5411,67.0,0.0,40.0,0.0,0.0
5412,79.0,15.0,30.0,4.0,0.0
5413,83.0,0.0,30.0,4.0,0.0
5414,74.0,15.0,40.0,0.0,0.0
5415,47.0,0.0,40.0,3.0,0.0
5416,67.0,0.0,60.0,1.0,0.0
5417,59.0,30.0,15.0,4.0,0.0
5418,86.0,15.0,30.0,4.0,0.0
5419,74.0,0.0,30.0,4.0,0.0
5420,79.0,15.0,30.0,4.0,0.0
5421,79.0,0.0,120.0,0.0,0.0
5422,47.0,15.0,40.0,3.0,0.0
5423,83.0,0.0,30.0,4.0,0.0
5424,86.0,15.0,30.0,4.0,0.0
5425,71.0,0.0,60.0,1.0,0.0
5426,47.0,15.0,40.0,3.0,0.0
5427,59.0,30.0,120.0,2.0,0.0
5428,47.0,30.0,15.0,4.0,0.0
5429,83.0,0.0,30.0,4.0,0.0
5430,59.0,0.0,60.0,4.0,0.0
5431,47.0,15.0,40.0,3.0,0.0
5432,79.0,15.0,30.0,4.0,0.0
5433,74.0,0.0,40.0,0.0,0.0
5434,83.0,0.0,30.0,4.0,0.0
5435,59.0,15.0,30.0,4.0,0.0
5436,77.0,0.0,30.0,4.0,0.0
5437,73.0,0.0,40.0,0.0,0.0
5438,47.0,0.0,120.0,3.0,0.0
5439,68.0,0.0,60.0,1.0,0.0
5440,61.0,15.0,40.0,2.0,0.0
5441,71.0,30.0,30.0,4.0,0.0
5442,73.0,0.0,30.0,4.0,0.0
5443,68.0,0.0,30.0,4.0,0.0
5444,73.0,15.0,40.0,0.0,0.0
5445,80.0,0.0,120.0,2.0,0.0
5446,77.0,15.0,30.0,4.0,0.0
5447,65.0,30.0,30.0,4.0,0.0
5448,80.0,0.0,30.0,4.0,0.0
5449,77.0,15.0,40.0,0.0,0.0
5450,61.0,15.0,30.0,4.0,0.0
5451,85.0,0.0,30.0,4.0,0.0
5452,68.0,0.0,60.0,1.0,0.0
5453,68.0,30.0,30.0,4.0,0.0
5454,73.0,0.0,30.0,4.0,0.0
5455,77.0,15.0,40.0,0.0,0.0
5456,65.0,0.0,30.0,4.0,0.0
5457,77.0,15.0,30.0,4.0,0.0
5458,73.0,15.0,120.0,2.0,0.0
5459,61.0,0.0,30.0,4.0,0.0
5460,80.0,30.0,30.0,4.0,0.0
5461,69.0,0.0,60.0,1.0,0.0
5462,57.0,0.0,60.0,4.0,0.0
5463,85.0,15.0,30.0,4.0,0.0
5464,78.0,0.0,40.0,0.0,0.0
5465,45.0,30.0,120.0,3.0,0.0
5466,73.0,30.0,30.0,4.0,0.0
5467,69.0,15.0,120.0,2.0,0.0
5468,78.0,15.0,30.0,4.0,0.0
5469,78.0,15.0,40.0,0.0,0.0
5470,66.0,0.0,60.0,4.0,0.0
5471,81.0,0.0,30.0,4.0,0.0
5472,81.0,0.0,40.0,0.0,0.0
5473,73.0,30.0,60.0,1.0,0.0
5474,85.0,15.0,30.0,4.0,0.0
5475,81.0,0.0,30.0,4.0,0.0
5476,78.0,15.0,30.0,4.0,0.0
5477,66.0,0.0,120.0,2.0,0.0
5478,81.0,15.0,40.0,0.0,0.0
5479,81.0,30.0,30.0,4.0,0.0
5480,71.0,15.0,40.0,0.0,0.0
5481,75.0,15.0,30.0,4.0,0.0
5482,75.0,0.0,60.0,1.0,0.0
5483,45.0,0.0,120.0,3.0,0.0
5484,69.0,30.0,30.0,4.0,0.0
5485,71.0,0.0,30.0,4.0,0.0
5486,75.0,15.0,30.0,4.0,0.0
5487,66.0,0.0,30.0,4.0,0.0
5488,78.0,0.0,120.0,2.0,0.0
5489,71.0,15.0,40.0,0.0,0.0
5490,78.0,0.0,30.0,4.0,0.0
5491,63.0,30.0,30.0,4.0,0.0
5492,75.0,15.0,40.0,0.0,0.0
5493,66.0,0.0,60.0,1.0,0.0
5494,59.0,0.0,30.0,4.0,0.0
5495,83.0,15.0,30.0,4.0,0.0
5496,71.0,30.0,30.0,4.0,0.0
5497,66.0,0.0,30.0,4.0,0.0
5498,63.0,0.0,30.0,4.0,0.0
5499,75.0,15.0,30.0,4.0,0.0
5500,75.0,15.0,40.0,0.0,0.0
5501,71.0,0.0,120.0,2.0,0.0
5502,59.0,30.0,30.0,4.0,0.0
5503,78.0,0.0,30.0,4.0,0.0
5504,67.0,30.0,60.0,1.0,0.0
5505,43.0,30.0,120.0,3.0,0.0
5506,76.0,15.0,40.0,0.0,0.0
5507,55.0,0.0,60.0,4.0,0.0
5508,83.0,15.0,30.0,4.0,0.0
5509,71.0,0.0,30.0,4.0,0.0
5510,76.0,15.0,40.0,0.0,0.0
5511,67.0,15.0,120.0,2.0,0.0
5512,76.0,15.0,30.0,4.0,0.0
5513,67.0,0.0,60.0,4.0,0.0
5514,79.0,0.0,30.0,4.0,0.0
5515,83.0,15.0,30.0,4.0,0.0
5516,71.0,0.0,60.0,1.0,0.0
5517,79.0,0.0,40.0,0.0,0.0
5518,79.0,30.0,30.0,4.0,0.0
5519,79.0,15.0,40.0,0.0,0.0
5520,64.0,0.0,120.0,2.0,0.0
5521,76.0,15.0,30.0,4.0,0.0
5522,79.0,30.0,30.0,4.0,0.0
5523,69.0,15.0,40.0,0.0,0.0
5524,73.0,30.0,60.0,1.0,0.0
5525,73.0,15.0,30.0,4.0,0.0
5526,43.0,30.0,120.0,3.0,0.0
5527,69.0,0.0,30.0,4.0,0.0
5528,67.0,0.0,30.0,4.0,0.0
5529,64.0,15.0,30.0,4.0,0.0
5530,69.0,15.0,40.0,0.0,0.0
5531,73.0,0.0,30.0,4.0,0.0
5532,76.0,0.0,120.0,2.0,0.0
5533,76.0,0.0,30.0,4.0,0.0
5534,61.0,0.0,30.0,4.0,0.0
5535,57.0,15.0,30.0,4.0,0.0
5536,81.0,0.0,30.0,4.0,0.0
5537,64.0,0.0,60.0,1.0,0.0
5538,73.0,15.0,40.0,0.0,0.0
5539,69.0,0.0,30.0,4.0,0.0
5540,64.0,30.0,30.0,4.0,0.0
5541,73.0,0.0,30.0,4.0,0.0
5542,73.0,15.0,40.0,0.0,0.0
5543,69.0,0.0,120.0,2.0,0.0
5544,61.0,15.0,30.0,4.0,0.0
5545,57.0,30.0,30.0,4.0,0.0
5546,76.0,0.0,30.0,4.0,0.0
5547,81.0,15.0,30.0,4.0,0.0
5548,74.0,15.0,40.0,0.0,0.0
5549,66.0,0.0,60.0,1.0,0.0
5550,54.0,30.0,60.0,4.0,0.0
5551,42.0,30.0,120.0,3.0,0.0
5552,69.0,0.0,30.0,4.0,0.0
5553,74.0,15.0,40.0,0.0,0.0
5554,66.0,0.0,120.0,2.0,0.0
5555,66.0,0.0,60.0,4.0,0.0
5556,74.0,15.0,30.0,4.0,0.0
5557,78.0,0.0,30.0,4.0,0.0
5558,54.0,30.0,240.0,3.0,0.0
5559,69.0,30.0,60.0,1.0,0.0
5560,78.0,15.0,40.0,0.0,0.0
5561,81.0,15.0,30.0,4.0,0.0
5562,66.0,0.0,30.0,4.0,0.0
5563,78.0,0.0,30.0,4.0,0.0
5564,69.0,15.0,30.0,4.0,0.0
5565,74.0,0.0,30.0,4.0,0.0
5566,78.0,15.0,40.0,0.0,0.0
5567,62.0,15.0,120.0,2.0,0.0
5568,66.0,0.0,30.0,4.0,0.0
5569,78.0,30.0,30.0,4.0,0.0
5570,71.0,0.0,60.0,1.0,0.0
5571,71.0,15.0,30.0,4.0,0.0
5572,79.0,0.0,240.0,0.0,0.0
5573,54.0,0.0,30.0,4.0,0.0
5574,59.0,30.0,30.0,4.0,0.0
5575,67.0,0.0,30.0,4.0,0.0
5576,67.0,15.0,120.0,2.0,0.0
5577,71.0,0.0,30.0,4.0,0.0
5578,62.0,30.0,30.0,4.0,0.0
5579,66.0,0.0,30.0,4.0,0.0
5580,74.0,0.0,30.0,4.0,0.0
5581,52.0,15.0,30.0,4.0,0.0
5582,79.0,0.0,30.0,4.0,0.0
5583,73.0,0.0,60.0,1.0,0.0
5584,52.0,30.0,240.0,3.0,0.0
5585,64.0,30.0,30.0,4.0,0.0
5586,76.0,0.0,30.0,4.0,0.0
5587,67.0,15.0,30.0,4.0,0.0
5588,73.0,0.0,30.0,4.0,0.0
5589,64.0,15.0,40.0,2.0,0.0
5590,64.0,30.0,30.0,4.0,0.0
5591,76.0,0.0,30.0,4.0,0.0
5592,73.0,30.0,60.0,1.0,0.0
5593,52.0,0.0,30.0,4.0,0.0
5594,69.0,15.0,30.0,4.0,0.0
5595,78.0,30.0,240.0,0.0,0.0
5596,61.0,15.0,40.0,2.0,0.0
5597,57.0,0.0,30.0,4.0,0.0
5598,66.0,0.0,30.0,4.0,0.0
5599,61.0,30.0,30.0,4.0,0.0
5600,69.0,0.0,30.0,4.0,0.0
5601,66.0,15.0,120.0,2.0,0.0
5602,64.0,0.0,30.0,4.0,0.0
5603,73.0,0.0,30.0,4.0,0.0
5604,50.0,0.0,30.0,4.0,0.0
5605,78.0,15.0,30.0,4.0,0.0
5606,50.0,0.0,240.0,3.0,0.0
5607,71.0,0.0,60.0,1.0,0.0
5608,74.0,0.0,30.0,4.0,0.0
5609,62.0,30.0,30.0,4.0,0.0
5610,62.0,15.0,40.0,2.0,0.0
5611,66.0,0.0,30.0,4.0,0.0
5612,71.0,15.0,30.0,4.0,0.0
5613,74.0,0.0,30.0,4.0,0.0
5614,62.0,0.0,30.0,4.0,0.0
5615,76.0,0.0,240.0,0.0,0.0
5616,67.0,0.0,30.0,4.0,0.0
5617,71.0,0.0,60.0,1.0,0.0
5618,59.0,15.0,40.0,2.0,0.0
5619,50.0,15.0,30.0,4.0,0.0
5620,55.0,30.0,30.0,4.0,0.0
5621,64.0,0.0,30.0,4.0,0.0
5622,59.0,0.0,30.0,4.0,0.0
5623,64.0,15.0,120.0,2.0,0.0
5624,67.0,30.0,30.0,4.0,0.0
5625,62.0,30.0,30.0,4.0,0.0
5626,71.0,0.0,30.0,4.0,0.0
5627,49.0,0.0,30.0,4.0,0.0
5628,49.0,0.0,120.0,3.0,0.0
5629,76.0,15.0,30.0,4.0,0.0
5630,69.0,30.0,60.0,1.0,0.0
5631,73.0,0.0,30.0,4.0,0.0
5632,61.0,0.0,30.0,4.0,0.0
5633,61.0,15.0,40.0,2.0,0.0
5634,69.0,15.0,30.0,4.0,0.0
5635,64.0,0.0,30.0,4.0,0.0
5636,73.0,0.0,30.0,4.0,0.0
5637,61.0,30.0,30.0,4.0,0.0
5638,74.0,0.0,120.0,1.0,0.0
5639,74.0,0.0,120.0,0.0,0.0
5640,57.0,15.0,120.0,2.0,0.0
5641,66.0,0.0,30.0,4.0,0.0
5642,50.0,0.0,120.0,3.0,0.0
5643,50.0,30.0,30.0,4.0,0.0
5644,62.0,0.0,30.0,4.0,0.0
5645,54.0,30.0,30.0,4.0,0.0
5646,55.0,0.0,30.0,4.0,0.0
5647,64.0,15.0,30.0,4.0,0.0
5648,57.0,30.0,30.0,4.0,0.0
5649,66.0,0.0,30.0,4.0,0.0
5650,59.0,30.0,30.0,4.0,0.0
5651,67.0,0.0,30.0,4.0,0.0
5652,61.0,30.0,30.0,4.0,0.0
5653,69.0,0.0,30.0,4.0,0.0
5654,49.0,15.0,40.0,3.0,0.0
5655,76.0,0.0,40.0,1.0,0.0
5656,76.0,0.0,40.0,0.0,0.0
5657,71.0,0.0,30.0,4.0,0.0
5658,62.0,15.0,30.0,4.0,0.0
5659,64.0,0.0,40.0,2.0,0.0
5660,61.0,30.0,30.0,4.0,0.0
5661,73.0,0.0,30.0,4.0,0.0
5662,71.0,0.0,120.0,2.0,0.0
5663,59.0,30.0,30.0,4.0,0.0
5664,78.0,0.0,30.0,0.0,0.0
5665,74.0,0.0,30.0,4.0,0.0
5666,66.0,0.0,30.0,1.0,0.0
5667,47.0,0.0,120.0,3.0,0.0
5668,69.0,30.0,30.0,0.0,0.0
5669,69.0,0.0,30.0,1.0,0.0
5670,61.0,0.0,30.0,4.0,0.0
5671,69.0,0.0,30.0,4.0,0.0
5672,71.0,30.0,30.0,0.0,0.0
5673,62.0,0.0,30.0,4.0,0.0
5674,71.0,0.0,30.0,4.0,0.0
5675,71.0,0.0,30.0,1.0,0.0
5676,73.0,0.0,30.0,0.0,0.0
5677,64.0,0.0,30.0,4.0,0.0
5678,73.0,0.0,30.0,4.0,0.0
5679,73.0,30.0,30.0,1.0,0.0
5680,74.0,0.0,30.0,1.0,0.0
5681,66.0,0.0,30.0,4.0,0.0
5682,74.0,0.0,30.0,4.0,0.0
5683,74.0,30.0,30.0,0.0,0.0
5684,67.0,0.0,30.0,4.0,0.0
5685,76.0,0.0,30.0,1.0,0.0
5686,76.0,30.0,30.0,0.0,0.0
5687,76.0,0.0,30.0,4.0,0.0
5688,62.0,0.0,30.0,2.0,0.0
5689,78.0,0.0,30.0,1.0,0.0
5690,78.0,0.0,30.0,4.0,0.0
5691,69.0,0.0,30.0,4.0,0.0
5692,78.0,0.0,30.0,0.0,0.0
5693,45.0,30.0,30.0,3.0,0.0
5694,67.0,0.0,30.0,4.0,0.0
5695,79.0,0.0,30.0,4.0,0.0
5696,79.0,0.0,30.0,0.0,0.0
5697,64.0,0.0,30.0,2.0,0.0
5698,79.0,0.0,30.0,1.0,0.0
5699,43.0,45.0,30.0,3.0,0.0
5700,81.0,0.0,40.0,1.0,0.0
5701,81.0,0.0,60.0,4.0,0.0
5702,66.0,15.0,40.0,2.0,0.0
5703,81.0,0.0,40.0,0.0,0.0
5704,42.0,0.0,40.0,3.0,0.0
5705,71.0,0.0,40.0,2.0,0.0
5706,74.0,15.0,40.0,1.0,0.0
5707,43.0,0.0,40.0,3.0,0.0
5708,59.0,0.0,60.0,4.0,0.0
5709,55.0,0.0,60.0,4.0,0.0
5710,74.0,0.0,40.0,0.0,0.0
5711,74.0,45.0,60.0,4.0,0.0
5712,66.0,45.0,15.0,4.0,0.0
5713,69.0,0.0,40.0,2.0,0.0
5714,57.0,0.0,60.0,4.0,0.0
5715,69.0,45.0,60.0,4.0,0.0
5716,61.0,0.0,60.0,4.0,0.0
5717,64.0,0.0,60.0,4.0,0.0
5718,69.0,0.0,40.0,0.0,0.0
5719,45.0,0.0,40.0,3.0,0.0
5720,69.0,15.0,40.0,1.0,0.0
5721,45.0,15.0,40.0,3.0,0.0
5722,73.0,0.0,60.0,4.0,0.0
5723,45.0,30.0,60.0,4.0,0.0
5724,67.0,0.0,40.0,2.0,0.0
5725,73.0,0.0,40.0,0.0,0.0
5726,73.0,0.0,40.0,1.0,0.0
5727,74.0,0.0,120.0,0.0,0.0
5728,74.0,0.0,120.0,1.0,0.0
5729,50.0,0.0,30.0,3.0,0.0
5730,66.0,30.0,30.0,2.0,0.0
5731,50.0,0.0,30.0,4.0,0.0
5732,66.0,0.0,120.0,4.0,0.0
5733,52.0,30.0,30.0,3.0,0.0
5734,67.0,0.0,30.0,2.0,0.0
5735,52.0,0.0,30.0,4.0,0.0
5736,54.0,45.0,60.0,4.0,0.0
5737,69.0,30.0,30.0,2.0,0.0
5738,54.0,0.0,30.0,3.0,0.0
5739,52.0,15.0,40.0,3.0,0.0
5740,52.0,45.0,60.0,4.0,0.0
5741,67.0,0.0,40.0,2.0,0.0
5742,50.0,0.0,40.0,3.0,0.0
5743,66.0,0.0,40.0,1.0,0.0
5744,69.0,45.0,60.0,4.0,0.0
5745,66.0,0.0,60.0,4.0,0.0
5746,50.0,0.0,60.0,4.0,0.0
5747,66.0,15.0,40.0,2.0,0.0
5748,69.0,0.0,40.0,0.0,0.0
5749,67.0,0.0,60.0,1.0,0.0
5750,74.0,15.0,40.0,2.0,0.0
5751,55.0,0.0,60.0,3.0,0.0
5752,67.0,0.0,60.0,4.0,0.0
5753,55.0,0.0,60.0,4.0,0.0
5754,71.0,0.0,60.0,0.0,0.0
5755,71.0,45.0,60.0,4.0,0.0
5756,62.0,0.0,40.0,2.0,0.0
5757,69.0,0.0,40.0,0.0,0.0
5758,66.0,0.0,60.0,4.0,0.0
5759,62.0,45.0,120.0,4.0,0.0
5760,62.0,0.0,120.0,3.0,0.0
5761,66.0,15.0,40.0,1.0,0.0
5762,66.0,15.0,40.0,2.0,0.0
5763,69.0,45.0,15.0,4.0,0.0
5764,72.0,0.0,60.0,4.0,0.0
5765,72.0,0.0,60.0,0.0,0.0
5766,69.0,0.0,60.0,1.0,0.0
5767,67.0,0.0,40.0,2.0,0.0
5768,67.0,0.0,40.0,1.0,0.0
5769,55.0,0.0,60.0,4.0,0.0
5770,67.0,30.0,60.0,4.0,0.0
5771,71.0,0.0,60.0,4.0,0.0
5772,71.0,0.0,40.0,0.0,0.0
5773,55.0,15.0,40.0,3.0,0.0
5774,69.0,0.0,120.0,4.0,0.0
5775,66.0,0.0,30.0,1.0,0.0
5776,50.0,30.0,30.0,3.0,0.0
5777,69.0,0.0,120.0,2.0,0.0
5778,69.0,0.0,120.0,0.0,0.0
5779,66.0,0.0,120.0,4.0,0.0
5780,50.0,0.0,30.0,4.0,0.0
5781,67.0,0.0,30.0,1.0,0.0
5782,52.0,0.0,30.0,4.0,0.0
5783,52.0,30.0,30.0,3.0,0.0
5784,69.0,30.0,30.0,1.0,0.0
5785,54.0,45.0,60.0,4.0,0.0
5786,54.0,0.0,30.0,3.0,0.0
5787,52.0,15.0,40.0,3.0,0.0
5788,67.0,0.0,40.0,1.0,0.0
5789,52.0,45.0,60.0,4.0,0.0
5790,66.0,0.0,40.0,1.0,0.0
5791,66.0,0.0,60.0,4.0,0.0
5792,57.0,45.0,60.0,4.0,0.0
5793,50.0,0.0,60.0,4.0,0.0
5794,50.0,15.0,40.0,3.0,0.0
5795,57.0,0.0,40.0,2.0,0.0
5796,66.0,0.0,40.0,0.0,0.0
5797,55.0,45.0,60.0,4.0,0.0
5798,59.0,0.0,60.0,4.0,0.0
5799,67.0,0.0,60.0,4.0,0.0
5800,55.0,0.0,40.0,3.0,0.0
5801,59.0,0.0,60.0,2.0,0.0
5802,74.0,15.0,40.0,1.0,0.0
5803,67.0,0.0,60.0,0.0,0.0
5804,62.0,0.0,40.0,1.0,0.0
5805,62.0,15.0,120.0,3.0,0.0
5806,66.0,45.0,60.0,4.0,0.0
5807,57.0,0.0,40.0,2.0,0.0
5808,57.0,0.0,60.0,4.0,0.0
5809,66.0,15.0,40.0,0.0,0.0
5810,50.0,0.0,120.0,4.0,0.0
5811,60.0,0.0,60.0,2.0,0.0
5812,69.0,0.0,60.0,0.0,0.0
5813,69.0,45.0,60.0,4.0,0.0
5814,60.0,0.0,60.0,4.0,0.0
5815,66.0,0.0,40.0,1.0,0.0
5816,59.0,0.0,40.0,2.0,0.0
5817,55.0,0.0,40.0,3.0,0.0
5818,59.0,0.0,60.0,4.0,0.0
5819,67.0,0.0,60.0,4.0,0.0
5820,67.0,15.0,40.0,0.0,0.0
5821,69.0,0.0,40.0,1.0,0.0
5822,43.0,30.0,60.0,4.0,0.0
5823,69.0,0.0,120.0,1.0,0.0
5824,50.0,0.0,120.0,3.0,0.0
5825,62.0,30.0,30.0,4.0,0.0
5826,66.0,0.0,30.0,4.0,0.0
5827,66.0,30.0,120.0,0.0,0.0
5828,57.0,30.0,60.0,4.0,0.0
5829,57.0,0.0,120.0,2.0,0.0
5830,49.0,0.0,30.0,4.0,0.0
5831,50.0,0.0,15.0,4.0,0.0
5832,52.0,0.0,30.0,4.0,0.0
5833,54.0,30.0,30.0,4.0,0.0
5834,55.0,30.0,30.0,4.0,0.0
5835,57.0,30.0,30.0,4.0,0.0
5836,59.0,30.0,30.0,4.0,0.0
5837,60.0,30.0,30.0,4.0,0.0
5838,63.0,30.0,30.0,4.0,0.0
5839,71.0,0.0,40.0,1.0,0.0
5840,47.0,0.0,40.0,3.0,0.0
5841,47.0,0.0,60.0,4.0,0.0
5842,75.0,0.0,40.0,0.0,0.0
5843,64.0,15.0,30.0,4.0,0.0
5844,66.0,15.0,40.0,2.0,0.0
5845,66.0,0.0,30.0,4.0,0.0
5846,35.0,30.0,15.0,4.0,0.0
5847,71.0,15.0,40.0,1.0,0.0
5848,75.0,0.0,40.0,0.0,0.0
5849,64.0,15.0,30.0,4.0,0.0
5850,47.0,0.0,60.0,4.0,0.0
5851,47.0,0.0,40.0,3.0,0.0
5852,66.0,0.0,40.0,2.0,0.0
5853,63.0,30.0,30.0,4.0,0.0
5854,66.0,0.0,40.0,2.0,0.0
5855,71.0,0.0,40.0,1.0,0.0
5856,35.0,0.0,60.0,4.0,0.0
5857,75.0,0.0,40.0,0.0,0.0
5858,47.0,15.0,40.0,3.0,0.0
5859,47.0,0.0,60.0,4.0,0.0
5860,61.0,15.0,30.0,4.0,0.0
5861,59.0,30.0,30.0,4.0,0.0
5862,64.0,0.0,120.0,2.0,0.0
5863,67.0,30.0,30.0,4.0,0.0
5864,52.0,0.0,120.0,4.0,0.0
5865,40.0,0.0,120.0,4.0,0.0
5866,76.0,30.0,120.0,0.0,0.0
5867,52.0,0.0,120.0,3.0,0.0
5868,71.0,0.0,120.0,1.0,0.0
5869,64.0,30.0,30.0,4.0,0.0
5870,63.0,30.0,30.0,4.0,0.0
5871,64.0,0.0,30.0,4.0,0.0
5872,59.0,30.0,30.0,4.0,0.0
5873,64.0,30.0,30.0,4.0,0.0
5874,55.0,30.0,30.0,4.0,0.0
5875,59.0,30.0,30.0,4.0,0.0
5876,52.0,30.0,30.0,4.0,0.0
5877,51.0,30.0,30.0,4.0,0.0
5878,52.0,30.0,30.0,4.0,0.0
5879,54.0,30.0,30.0,4.0,0.0
5880,55.0,30.0,30.0,4.0,0.0
5881,57.0,30.0,30.0,4.0,0.0
5882,59.0,30.0,30.0,4.0,0.0
5883,61.0,30.0,30.0,4.0,0.0
5884,62.0,30.0,30.0,4.0,0.0
5885,65.0,30.0,30.0,4.0,0.0
5886,49.0,0.0,40.0,3.0,0.0
5887,66.0,15.0,30.0,4.0,0.0
5888,68.0,15.0,40.0,2.0,0.0
5889,77.0,0.0,40.0,0.0,0.0
5890,37.0,0.0,60.0,4.0,0.0
5891,73.0,0.0,40.0,1.0,0.0
5892,68.0,0.0,30.0,4.0,0.0
5893,37.0,0.0,60.0,4.0,0.0
5894,49.0,30.0,15.0,4.0,0.0
5895,66.0,15.0,30.0,4.0,0.0
5896,68.0,15.0,40.0,2.0,0.0
5897,73.0,0.0,40.0,1.0,0.0
5898,49.0,0.0,40.0,3.0,0.0
5899,77.0,0.0,40.0,0.0,0.0
5900,65.0,30.0,30.0,4.0,0.0
5901,77.0,0.0,40.0,0.0,0.0
5902,68.0,0.0,40.0,2.0,0.0
5903,63.0,15.0,30.0,4.0,0.0
5904,49.0,0.0,15.0,4.0,0.0
5905,37.0,0.0,60.0,4.0,0.0
5906,73.0,15.0,40.0,1.0,0.0
5907,49.0,0.0,40.0,3.0,0.0
5908,61.0,0.0,30.0,4.0,0.0
5909,78.0,0.0,120.0,0.0,0.0
5910,54.0,30.0,120.0,3.0,0.0
5911,73.0,0.0,120.0,1.0,0.0
5912,66.0,0.0,120.0,2.0,0.0
5913,42.0,0.0,120.0,4.0,0.0
5914,54.0,0.0,120.0,4.0,0.0
5915,69.0,30.0,30.0,4.0,0.0
5916,66.0,30.0,30.0,4.0,0.0
5917,65.0,30.0,30.0,4.0,0.0
5918,66.0,0.0,30.0,4.0,0.0
5919,61.0,30.0,30.0,4.0,0.0
5920,66.0,30.0,30.0,4.0,0.0
5921,57.0,30.0,30.0,4.0,0.0
5922,61.0,30.0,30.0,4.0,0.0
5923,54.0,30.0,30.0,4.0,0.0
5924,56.0,30.0,30.0,4.0,0.0
5925,57.0,30.0,30.0,4.0,0.0
5926,59.0,30.0,30.0,4.0,0.0
5927,61.0,30.0,30.0,4.0,0.0
5928,62.0,30.0,30.0,4.0,0.0
5929,64.0,30.0,30.0,4.0,0.0
5930,66.0,30.0,30.0,4.0,0.0
5931,67.0,30.0,30.0,4.0,0.0
5932,70.0,30.0,30.0,4.0,0.0
5933,73.0,0.0,40.0,2.0,0.0
5934,82.0,0.0,40.0,0.0,0.0
5935,54.0,15.0,40.0,3.0,0.0
5936,78.0,0.0,40.0,1.0,0.0
5937,71.0,15.0,30.0,4.0,0.0
5938,73.0,0.0,30.0,4.0,0.0
5939,71.0,15.0,30.0,4.0,0.0
5940,54.0,30.0,15.0,4.0,0.0
5941,42.0,0.0,15.0,4.0,0.0
5942,54.0,0.0,40.0,3.0,0.0
5943,78.0,0.0,40.0,1.0,0.0
5944,73.0,0.0,40.0,2.0,0.0
5945,82.0,15.0,40.0,0.0,0.0
5946,70.0,30.0,30.0,4.0,0.0
5947,68.0,15.0,30.0,4.0,0.0
5948,54.0,0.0,15.0,4.0,0.0
5949,42.0,0.0,15.0,4.0,0.0
5950,73.0,0.0,40.0,2.0,0.0
5951,54.0,0.0,40.0,3.0,0.0
5952,78.0,15.0,40.0,1.0,0.0
5953,82.0,0.0,40.0,0.0,0.0
5954,66.0,0.0,30.0,4.0,0.0
5955,83.0,0.0,120.0,0.0,0.0
5956,59.0,15.0,30.0,4.0,0.0
5957,59.0,30.0,120.0,3.0,0.0
5958,74.0,0.0,30.0,4.0,0.0
5959,47.0,0.0,30.0,4.0,0.0
5960,78.0,15.0,40.0,1.0,0.0
5961,71.0,0.0,120.0,2.0,0.0
5962,71.0,30.0,30.0,4.0,0.0
5963,62.0,0.0,30.0,4.0,0.0
5964,73.0,0.0,30.0,4.0,0.0
5965,64.0,15.0,30.0,4.0,0.0
5966,74.0,15.0,40.0,1.0,0.0
5967,66.0,0.0,30.0,4.0,0.0
5968,74.0,0.0,30.0,4.0,0.0
5969,64.0,30.0,30.0,4.0,0.0
5970,73.0,0.0,30.0,4.0,0.0
5971,79.0,15.0,180.0,1.0,0.0
5972,62.0,30.0,30.0,4.0,0.0
5973,71.0,0.0,30.0,4.0,0.0
5974,59.0,15.0,40.0,3.0,0.0
5975,86.0,0.0,40.0,0.0,0.0
5976,74.0,0.0,40.0,2.0,0.0
5977,61.0,0.0,30.0,4.0,0.0
5978,70.0,15.0,30.0,4.0,0.0
5979,68.0,0.0,30.0,4.0,0.0
5980,59.0,30.0,30.0,4.0,0.0
5981,70.0,0.0,120.0,2.0,0.0
5982,61.0,0.0,120.0,3.0,0.0
5983,88.0,0.0,120.0,0.0,0.0
5984,61.0,15.0,30.0,4.0,0.0
5985,76.0,0.0,30.0,4.0,0.0
5986,73.0,0.0,30.0,4.0,0.0
5987,64.0,30.0,30.0,4.0,0.0
5988,66.0,0.0,30.0,4.0,0.0
5989,74.0,15.0,30.0,4.0,0.0
5990,76.0,15.0,40.0,1.0,0.0
5991,76.0,0.0,30.0,4.0,0.0
5992,67.0,30.0,30.0,4.0,0.0
5993,82.0,15.0,180.0,1.0,0.0
5994,74.0,0.0,30.0,4.0,0.0
5995,66.0,30.0,30.0,4.0,0.0
5996,64.0,30.0,30.0,4.0,0.0
5997,73.0,0.0,30.0,4.0,0.0
5998,62.0,0.0,30.0,4.0,0.0
5999,71.0,15.0,30.0,4.0,0.0
6000,61.0,0.0,40.0,3.0,0.0
6001,73.0,0.0,40.0,2.0,0.0
6002,88.0,15.0,40.0,0.0,0.0
6003,61.0,30.0,30.0,4.0,0.0
6004,70.0,0.0,30.0,4.0,0.0
6005,62.0,15.0,30.0,4.0,0.0
6006,66.0,0.0,120.0,2.0,0.0
6007,90.0,0.0,120.0,0.0,0.0
6008,62.0,30.0,120.0,3.0,0.0
6009,78.0,0.0,30.0,4.0,0.0
6010,59.0,0.0,30.0,4.0,0.0
6011,74.0,30.0,30.0,4.0,0.0
6012,78.0,15.0,40.0,1.0,0.0
6013,76.0,0.0,30.0,4.0,0.0
6014,61.0,15.0,30.0,4.0,0.0
6015,62.0,0.0,30.0,4.0,0.0
6016,78.0,0.0,30.0,4.0,0.0
6017,76.0,30.0,30.0,4.0,0.0
6018,61.0,0.0,30.0,4.0,0.0
6019,83.0,15.0,180.0,1.0,0.0
6020,59.0,0.0,30.0,4.0,0.0
6021,74.0,30.0,30.0,4.0,0.0
6022,73.0,0.0,30.0,4.0,0.0
6023,78.0,0.0,40.0,0.0,0.0
6024,66.0,15.0,40.0,2.0,0.0
6025,62.0,0.0,40.0,3.0,0.0
6026,58.0,15.0,30.0,4.0,0.0
6027,59.0,0.0,30.0,4.0,0.0
6028,71.0,30.0,30.0,4.0,0.0
6029,85.0,0.0,40.0,0.0,0.0
6030,53.0,15.0,30.0,4.0,0.0
6031,80.0,0.0,30.0,4.0,0.0
6032,68.0,0.0,120.0,2.0,0.0
6033,53.0,30.0,120.0,3.0,0.0
6034,56.0,30.0,30.0,4.0,0.0
6035,77.0,0.0,30.0,4.0,0.0
6036,57.0,15.0,30.0,4.0,0.0
6037,83.0,0.0,40.0,0.0,0.0
6038,80.0,15.0,40.0,1.0,0.0
6039,78.0,0.0,30.0,4.0,0.0
6040,80.0,0.0,30.0,4.0,0.0
6041,59.0,0.0,30.0,4.0,0.0
6042,85.0,0.0,180.0,1.0,0.0
6043,81.0,15.0,40.0,0.0,0.0
6044,78.0,15.0,30.0,4.0,0.0
6045,49.0,30.0,60.0,4.0,0.0
6046,77.0,0.0,30.0,4.0,0.0
6047,53.0,0.0,60.0,4.0,0.0
6048,75.0,15.0,30.0,4.0,0.0
6049,53.0,0.0,40.0,3.0,0.0
6050,80.0,0.0,40.0,0.0,0.0
6051,68.0,15.0,40.0,2.0,0.0
6052,73.0,30.0,30.0,4.0,0.0
6053,54.0,0.0,60.0,4.0,0.0
6054,61.0,30.0,120.0,2.0,0.0
6055,78.0,15.0,40.0,0.0,0.0
6056,81.0,15.0,30.0,4.0,0.0
6057,54.0,0.0,120.0,3.0,0.0
6058,78.0,30.0,30.0,4.0,0.0
6059,76.0,15.0,30.0,4.0,0.0
6060,79.0,15.0,40.0,0.0,0.0
6061,58.0,0.0,60.0,4.0,0.0
6062,85.0,0.0,40.0,1.0,0.0
6063,78.0,0.0,30.0,4.0,0.0
6064,59.0,0.0,60.0,4.0,0.0
6065,74.0,15.0,30.0,4.0,0.0
6066,78.0,15.0,40.0,0.0,0.0
6067,83.0,0.0,40.0,1.0,0.0
6068,78.0,30.0,30.0,4.0,0.0
6069,76.0,0.0,40.0,0.0,0.0
6070,61.0,30.0,60.0,4.0,0.0
6071,82.0,15.0,40.0,1.0,0.0
6072,73.0,15.0,30.0,4.0,0.0
6073,78.0,0.0,30.0,4.0,0.0
6074,71.0,15.0,30.0,4.0,0.0
6075,62.0,30.0,60.0,4.0,0.0
6076,83.0,0.0,40.0,1.0,0.0
6077,74.0,15.0,40.0,0.0,0.0
6078,78.0,0.0,30.0,4.0,0.0
6079,59.0,0.0,40.0,3.0,0.0
6080,75.0,15.0,40.0,1.0,0.0
6081,78.0,0.0,40.0,0.0,0.0
6082,71.0,0.0,40.0,2.0,0.0
6083,80.0,15.0,30.0,4.0,0.0
6084,59.0,30.0,60.0,4.0,0.0
6085,81.0,0.0,30.0,4.0,0.0
6086,83.0,15.0,180.0,0.0,0.0
6087,61.0,0.0,60.0,4.0,0.0
6088,80.0,15.0,30.0,4.0,0.0
6089,64.0,0.0,40.0,2.0,0.0
6090,61.0,15.0,40.0,3.0,0.0
6091,76.0,0.0,40.0,1.0,0.0
6092,78.0,30.0,30.0,4.0,0.0
6093,59.0,15.0,40.0,2.0,0.0
6094,63.0,0.0,40.0,3.0,0.0
6095,78.0,0.0,40.0,1.0,0.0
6096,63.0,0.0,60.0,4.0,0.0
6097,76.0,15.0,30.0,4.0,0.0
6098,75.0,30.0,30.0,4.0,0.0
6099,80.0,15.0,30.0,4.0,0.0
6100,76.0,0.0,40.0,1.0,0.0
6101,64.0,0.0,120.0,2.0,0.0
6102,64.0,0.0,120.0,3.0,0.0
6103,52.0,30.0,60.0,4.0,0.0
6104,76.0,0.0,30.0,4.0,0.0
6105,78.0,15.0,40.0,1.0,0.0
6106,83.0,0.0,40.0,0.0,0.0
6107,56.0,0.0,60.0,4.0,0.0
6108,74.0,15.0,30.0,4.0,0.0
6109,76.0,30.0,30.0,4.0,0.0
6110,81.0,0.0,40.0,0.0,0.0
6111,76.0,15.0,40.0,1.0,0.0
6112,57.0,30.0,60.0,4.0,0.0
6113,73.0,15.0,30.0,4.0,0.0
6114,76.0,0.0,30.0,4.0,0.0
6115,71.0,15.0,30.0,4.0,0.0
6116,59.0,30.0,60.0,4.0,0.0
6117,80.0,0.0,40.0,0.0,0.0
6118,74.0,15.0,40.0,1.0,0.0
6119,76.0,0.0,30.0,4.0,0.0
6120,69.0,15.0,30.0,4.0,0.0
6121,73.0,0.0,40.0,1.0,0.0
6122,81.0,15.0,40.0,0.0,0.0
6123,61.0,0.0,60.0,4.0,0.0
6124,76.0,30.0,30.0,4.0,0.0
6125,69.0,15.0,40.0,2.0,0.0
6126,76.0,0.0,40.0,1.0,0.0
6127,57.0,0.0,40.0,3.0,0.0
6128,78.0,15.0,30.0,4.0,0.0
6129,57.0,0.0,60.0,4.0,0.0
6130,73.0,0.0,40.0,0.0,0.0
6131,79.0,30.0,30.0,4.0,0.0
6132,74.0,15.0,40.0,0.0,0.0
6133,78.0,15.0,30.0,4.0,0.0
6134,62.0,0.0,40.0,2.0,0.0
6135,81.0,0.0,180.0,1.0,0.0
6136,59.0,0.0,40.0,3.0,0.0
6137,59.0,0.0,60.0,4.0,0.0
6138,76.0,30.0,30.0,4.0,0.0
6139,57.0,0.0,40.0,2.0,0.0
6140,74.0,15.0,30.0,4.0,0.0
6141,61.0,30.0,60.0,4.0,0.0
6142,61.0,0.0,40.0,3.0,0.0
6143,76.0,15.0,40.0,0.0,0.0
6144,73.0,0.0,30.0,4.0,0.0
6145,50.0,0.0,60.0,4.0,0.0
6146,62.0,0.0,40.0,3.0,0.0
6147,62.0,15.0,40.0,2.0,0.0
6148,74.0,30.0,120.0,0.0,0.0
6149,78.0,15.0,30.0,4.0,0.0
6150,74.0,30.0,30.0,4.0,0.0
6151,66.0,0.0,40.0,2.0,0.0
6152,64.0,0.0,60.0,4.0,0.0
6153,73.0,15.0,30.0,4.0,0.0
6154,81.0,15.0,40.0,1.0,0.0
6155,64.0,0.0,40.0,3.0,0.0
6156,74.0,0.0,30.0,4.0,0.0
6157,80.0,15.0,40.0,1.0,0.0
6158,71.0,15.0,30.0,4.0,0.0
6159,71.0,0.0,40.0,2.0,0.0
6160,62.0,30.0,60.0,4.0,0.0
6161,62.0,0.0,40.0,3.0,0.0
6162,74.0,0.0,30.0,4.0,0.0
6163,61.0,0.0,60.0,4.0,0.0
6164,78.0,0.0,40.0,0.0,0.0
6165,61.0,15.0,40.0,3.0,0.0
6166,73.0,0.0,40.0,2.0,0.0
6167,69.0,15.0,30.0,4.0,0.0
6168,78.0,0.0,40.0,1.0,0.0
6169,74.0,30.0,30.0,4.0,0.0
6170,74.0,0.0,40.0,2.0,0.0
6171,59.0,15.0,40.0,3.0,0.0
6172,80.0,30.0,120.0,0.0,0.0
6173,59.0,0.0,60.0,4.0,0.0
6174,77.0,0.0,40.0,1.0,0.0
6175,68.0,15.0,30.0,4.0,0.0
6176,71.0,30.0,30.0,4.0,0.0
6177,78.0,15.0,40.0,1.0,0.0
6178,69.0,15.0,30.0,4.0,0.0
6179,61.0,0.0,40.0,3.0,0.0
6180,73.0,0.0,40.0,2.0,0.0
6181,61.0,0.0,60.0,4.0,0.0
6182,71.0,0.0,30.0,4.0,0.0
6183,77.0,0.0,40.0,1.0,0.0
6184,59.0,30.0,60.0,4.0,0.0
6185,74.0,15.0,40.0,2.0,0.0
6186,59.0,0.0,40.0,3.0,0.0
6187,68.0,15.0,30.0,4.0,0.0
6188,71.0,0.0,30.0,4.0,0.0
6189,57.0,30.0,60.0,4.0,0.0
6190,66.0,15.0,30.0,4.0,0.0
6191,81.0,0.0,40.0,0.0,0.0
6192,78.0,15.0,40.0,1.0,0.0
6193,66.0,0.0,40.0,2.0,0.0
6194,57.0,0.0,40.0,3.0,0.0
6195,71.0,0.0,30.0,4.0,0.0
6196,83.0,0.0,120.0,0.0,0.0
6197,68.0,0.0,40.0,2.0,0.0
6198,71.0,0.0,40.0,1.0,0.0
6199,56.0,15.0,40.0,3.0,0.0
6200,56.0,30.0,60.0,4.0,0.0
6201,65.0,15.0,30.0,4.0,0.0
6202,71.0,0.0,30.0,4.0,0.0
6203,66.0,15.0,30.0,4.0,0.0
6204,57.0,0.0,40.0,3.0,0.0
6205,66.0,15.0,40.0,2.0,0.0
6206,57.0,30.0,60.0,4.0,0.0
6207,73.0,0.0,40.0,1.0,0.0
6208,71.0,0.0,30.0,4.0,0.0
6209,71.0,0.0,40.0,1.0,0.0
6210,68.0,0.0,40.0,2.0,0.0
6211,56.0,30.0,60.0,4.0,0.0
6212,65.0,15.0,30.0,4.0,0.0
6213,56.0,15.0,40.0,3.0,0.0
6214,71.0,0.0,30.0,4.0,0.0
6215,78.0,0.0,40.0,0.0,0.0
6216,69.0,0.0,40.0,2.0,0.0
6217,63.0,15.0,30.0,4.0,0.0
6218,54.0,30.0,60.0,4.0,0.0
6219,54.0,15.0,40.0,3.0,0.0
6220,69.0,0.0,40.0,1.0,0.0
6221,71.0,0.0,30.0,4.0,0.0
6222,61.0,15.0,30.0,4.0,0.0
6223,68.0,0.0,120.0,1.0,0.0
6224,53.0,30.0,60.0,4.0,0.0
6225,53.0,0.0,40.0,3.0,0.0
6226,71.0,15.0,40.0,2.0,0.0
6227,80.0,30.0,120.0,0.0,0.0
6228,71.0,0.0,30.0,4.0,0.0
6229,68.0,0.0,40.0,2.0,0.0
6230,51.0,15.0,40.0,3.0,0.0
6231,65.0,15.0,30.0,4.0,0.0
6232,56.0,0.0,60.0,4.0,0.0
6233,71.0,0.0,30.0,4.0,0.0
6234,65.0,0.0,40.0,2.0,0.0
6235,68.0,15.0,30.0,4.0,0.0
6236,49.0,15.0,40.0,3.0,0.0
6237,61.0,30.0,60.0,4.0,0.0
6238,71.0,0.0,30.0,4.0,0.0
6239,61.0,15.0,40.0,2.0,0.0
6240,59.0,0.0,60.0,4.0,0.0
6241,65.0,15.0,30.0,4.0,0.0
6242,47.0,0.0,40.0,3.0,0.0
6243,80.0,0.0,40.0,0.0,0.0
6244,68.0,0.0,40.0,1.0,0.0
6245,68.0,30.0,30.0,4.0,0.0
6246,66.0,15.0,30.0,4.0,0.0
6247,57.0,0.0,30.0,4.0,0.0
6248,73.0,0.0,30.0,4.0,0.0
6249,45.0,0.0,60.0,3.0,0.0
6250,66.0,0.0,60.0,2.0,0.0
6251,81.0,30.0,60.0,0.0,0.0
6252,66.0,15.0,40.0,1.0,0.0
6253,45.0,0.0,30.0,4.0,0.0
6254,66.0,15.0,40.0,1.0,0.0
6255,66.0,15.0,30.0,4.0,0.0
6256,69.0,0.0,30.0,4.0,0.0
6257,54.0,30.0,30.0,4.0,0.0
6258,65.0,0.0,30.0,4.0,0.0
6259,68.0,0.0,30.0,4.0,0.0
6260,50.0,15.0,30.0,4.0,0.0
6261,68.0,15.0,40.0,1.0,0.0
6262,50.0,0.0,60.0,3.0,0.0
6263,54.0,30.0,30.0,4.0,0.0
6264,69.0,0.0,40.0,1.0,0.0
6265,66.0,15.0,40.0,2.0,0.0
6266,49.0,0.0,30.0,4.0,0.0
6267,69.0,0.0,30.0,4.0,0.0
6268,66.0,15.0,30.0,4.0,0.0
6269,81.0,0.0,40.0,0.0,0.0
6270,54.0,30.0,30.0,4.0,0.0
6271,71.0,0.0,30.0,4.0,0.0
6272,47.0,15.0,30.0,4.0,0.0
6273,67.0,0.0,30.0,4.0,0.0
6274,71.0,15.0,40.0,1.0,0.0
6275,79.0,0.0,60.0,0.0,0.0
6276,47.0,0.0,60.0,3.0,0.0
6277,74.0,0.0,60.0,2.0,0.0
6278,54.0,30.0,30.0,4.0,0.0
6279,74.0,15.0,40.0,1.0,0.0
6280,44.0,15.0,30.0,4.0,0.0
6281,66.0,0.0,30.0,4.0,0.0
6282,74.0,0.0,30.0,4.0,0.0
6283,54.0,30.0,30.0,4.0,0.0
6284,73.0,15.0,40.0,1.0,0.0
6285,77.0,0.0,60.0,0.0,0.0
6286,49.0,0.0,60.0,3.0,0.0
6287,68.0,0.0,60.0,2.0,0.0
6288,49.0,15.0,30.0,4.0,0.0
6289,65.0,0.0,30.0,4.0,0.0
6290,73.0,0.0,30.0,4.0,0.0
6291,53.0,30.0,30.0,4.0,0.0
6292,71.0,15.0,40.0,1.0,0.0
6293,71.0,0.0,30.0,4.0,0.0
6294,68.0,15.0,30.0,4.0,0.0
6295,49.0,0.0,30.0,4.0,0.0
6296,53.0,30.0,30.0,4.0,0.0
6297,78.0,0.0,60.0,0.0,0.0
6298,69.0,15.0,40.0,1.0,0.0
6299,50.0,0.0,60.0,3.0,0.0
6300,66.0,30.0,60.0,2.0,0.0
6301,50.0,15.0,30.0,4.0,0.0
6302,66.0,0.0,30.0,4.0,0.0
6303,69.0,0.0,30.0,4.0,0.0
6304,54.0,0.0,30.0,4.0,0.0
6305,66.0,0.0,30.0,4.0,0.0
6306,50.0,0.0,30.0,4.0,0.0
6307,71.0,15.0,30.0,4.0,0.0
6308,71.0,15.0,40.0,1.0,0.0
6309,54.0,30.0,30.0,4.0,0.0
6310,73.0,15.0,40.0,1.0,0.0
6311,45.0,15.0,30.0,4.0,0.0
6312,65.0,0.0,30.0,4.0,0.0
6313,73.0,0.0,30.0,4.0,0.0
6314,45.0,30.0,60.0,3.0,0.0
6315,54.0,0.0,30.0,4.0,0.0
6316,66.0,0.0,40.0,2.0,0.0
6317,45.0,15.0,30.0,4.0,0.0
6318,66.0,0.0,30.0,4.0,0.0
6319,69.0,0.0,40.0,1.0,0.0
6320,73.0,15.0,40.0,0.0,0.0
6321,69.0,0.0,30.0,4.0,0.0
6322,54.0,30.0,30.0,4.0,0.0
6323,71.0,0.0,60.0,0.0,0.0
6324,47.0,0.0,60.0,3.0,0.0
6325,47.0,15.0,30.0,4.0,0.0
6326,62.0,0.0,60.0,2.0,0.0
6327,74.0,15.0,40.0,1.0,0.0
6328,67.0,0.0,30.0,4.0,0.0
6329,74.0,0.0,30.0,4.0,0.0
6330,54.0,30.0,30.0,4.0,0.0
6331,47.0,15.0,30.0,4.0,0.0
6332,66.0,0.0,30.0,4.0,0.0
6333,71.0,0.0,30.0,4.0,0.0
6334,71.0,15.0,40.0,1.0,0.0
6335,54.0,30.0,30.0,4.0,0.0
6336,65.0,15.0,40.0,1.0,0.0
6337,68.0,0.0,60.0,0.0,0.0
6338,61.0,0.0,60.0,2.0,0.0
6339,68.0,0.0,30.0,4.0,0.0
6340,49.0,0.0,60.0,3.0,0.0
6341,49.0,15.0,30.0,4.0,0.0
6342,65.0,0.0,30.0,4.0,0.0
6343,53.0,30.0,30.0,4.0,0.0
6344,73.0,15.0,40.0,1.0,0.0
6345,73.0,0.0,30.0,4.0,0.0
6346,65.0,15.0,30.0,4.0,0.0
6347,49.0,0.0,30.0,4.0,0.0
6348,53.0,30.0,30.0,4.0,0.0
6349,73.0,0.0,120.0,1.0,0.0
6350,69.0,0.0,40.0,0.0,0.0
6351,66.0,0.0,30.0,4.0,0.0
6352,69.0,0.0,30.0,4.0,0.0
6353,42.0,15.0,30.0,4.0,0.0
6354,42.0,30.0,120.0,3.0,0.0
6355,61.0,15.0,40.0,2.0,0.0
6356,54.0,30.0,30.0,4.0,0.0
6357,69.0,0.0,30.0,4.0,0.0
6358,66.0,15.0,30.0,4.0,0.0
6359,66.0,0.0,40.0,2.0,0.0
6360,73.0,15.0,40.0,0.0,0.0
6361,42.0,0.0,30.0,4.0,0.0
6362,54.0,0.0,30.0,4.0,0.0
6363,65.0,15.0,30.0,4.0,0.0
6364,68.0,0.0,30.0,4.0,0.0
6365,66.0,0.0,40.0,2.0,0.0
6366,71.0,15.0,40.0,0.0,0.0
6367,42.0,30.0,30.0,4.0,0.0
6368,54.0,0.0,30.0,4.0,0.0
6369,73.0,0.0,40.0,0.0,0.0
6370,66.0,15.0,30.0,4.0,0.0
6371,66.0,15.0,40.0,2.0,0.0
6372,69.0,0.0,30.0,4.0,0.0
6373,42.0,30.0,30.0,4.0,0.0
6374,54.0,0.0,30.0,4.0,0.0
6375,66.0,15.0,40.0,2.0,0.0
6376,68.0,0.0,30.0,4.0,0.0
6377,71.0,15.0,30.0,4.0,0.0
6378,77.0,0.0,120.0,1.0,0.0
6379,74.0,0.0,40.0,0.0,0.0
6380,54.0,30.0,30.0,4.0,0.0
6381,42.0,0.0,30.0,4.0,0.0
6382,73.0,15.0,40.0,0.0,0.0
6383,66.0,0.0,40.0,2.0,0.0
6384,66.0,15.0,30.0,4.0,0.0
6385,69.0,0.0,30.0,4.0,0.0
6386,54.0,30.0,30.0,4.0,0.0
6387,42.0,0.0,30.0,4.0,0.0
6388,66.0,0.0,40.0,2.0,0.0
6389,68.0,0.0,30.0,4.0,0.0
6390,71.0,15.0,30.0,4.0,0.0
6391,74.0,15.0,40.0,0.0,0.0
6392,54.0,0.0,30.0,4.0,0.0
6393,42.0,30.0,30.0,4.0,0.0
6394,66.0,15.0,40.0,2.0,0.0
6395,71.0,0.0,40.0,0.0,0.0
6396,65.0,0.0,30.0,4.0,0.0
6397,68.0,15.0,30.0,4.0,0.0
6398,54.0,0.0,30.0,4.0,0.0
6399,42.0,30.0,30.0,4.0,0.0
6400,78.0,0.0,120.0,1.0,0.0
6401,42.0,0.0,120.0,3.0,0.0
6402,66.0,15.0,40.0,2.0,0.0
6403,66.0,15.0,30.0,4.0,0.0
6404,69.0,0.0,30.0,4.0,0.0
6405,73.0,0.0,40.0,0.0,0.0
6406,54.0,0.0,30.0,4.0,0.0
6407,42.0,30.0,30.0,4.0,0.0
6408,66.0,15.0,30.0,4.0,0.0
6409,66.0,0.0,40.0,0.0,0.0
6410,66.0,15.0,40.0,2.0,0.0
6411,69.0,0.0,30.0,4.0,0.0
6412,42.0,30.0,30.0,4.0,0.0
6413,54.0,0.0,30.0,4.0,0.0
6414,68.0,15.0,30.0,4.0,0.0
6415,71.0,0.0,40.0,0.0,0.0
6416,65.0,0.0,30.0,4.0,0.0
6417,66.0,15.0,40.0,2.0,0.0
6418,42.0,30.0,30.0,4.0,0.0
6419,54.0,0.0,30.0,4.0,0.0
6420,66.0,15.0,40.0,2.0,0.0
6421,66.0,0.0,30.0,4.0,0.0
6422,69.0,15.0,30.0,4.0,0.0
6423,73.0,0.0,40.0,0.0,0.0
6424,54.0,30.0,30.0,4.0,0.0
6425,42.0,0.0,30.0,4.0,0.0
6426,74.0,15.0,40.0,0.0,0.0
6427,66.0,0.0,40.0,2.0,0.0
6428,77.0,30.0,120.0,1.0,0.0
6429,68.0,15.0,30.0,4.0,0.0
6430,71.0,0.0,30.0,4.0,0.0
6431,42.0,30.0,30.0,4.0,0.0
6432,54.0,0.0,30.0,4.0,0.0
6433,69.0,15.0,30.0,4.0,0.0
6434,73.0,15.0,40.0,0.0,0.0
6435,66.0,0.0,40.0,2.0,0.0
6436,66.0,0.0,30.0,4.0,0.0
6437,54.0,0.0,30.0,4.0,0.0
6438,42.0,0.0,30.0,4.0,0.0
6439,66.0,0.0,40.0,2.0,0.0
6440,74.0,15.0,40.0,0.0,0.0
6441,68.0,15.0,30.0,4.0,0.0
6442,71.0,0.0,30.0,4.0,0.0
6443,54.0,0.0,30.0,4.0,0.0
6444,42.0,30.0,30.0,4.0,0.0
6445,65.0,15.0,30.0,4.0,0.0
6446,68.0,0.0,30.0,4.0,0.0
6447,71.0,15.0,40.0,0.0,0.0
6448,66.0,0.0,40.0,2.0,0.0
6449,42.0,0.0,30.0,4.0,0.0
6450,54.0,30.0,30.0,4.0,0.0
6451,69.0,0.0,30.0,4.0,0.0
6452,66.0,15.0,30.0,4.0,0.0
6453,66.0,0.0,40.0,2.0,0.0
6454,78.0,30.0,120.0,1.0,0.0
6455,42.0,0.0,120.0,3.0,0.0
6456,73.0,15.0,40.0,0.0,0.0
6457,42.0,0.0,30.0,4.0,0.0
6458,54.0,30.0,30.0,4.0,0.0
6459,73.0,15.0,30.0,4.0,0.0
6460,69.0,0.0,30.0,4.0,0.0
6461,78.0,0.0,120.0,0.0,0.0
6462,66.0,15.0,40.0,2.0,0.0
6463,42.0,0.0,30.0,4.0,0.0
6464,54.0,0.0,30.0,4.0,0.0
6465,71.0,0.0,30.0,4.0,0.0
6466,74.0,15.0,30.0,4.0,0.0
6467,66.0,15.0,40.0,2.0,0.0
6468,42.0,0.0,30.0,4.0,0.0
6469,54.0,30.0,30.0,4.0,0.0
6470,77.0,0.0,40.0,0.0,0.0
6471,66.0,15.0,40.0,2.0,0.0
6472,71.0,15.0,30.0,4.0,0.0
6473,68.0,0.0,30.0,4.0,0.0
6474,42.0,0.0,30.0,4.0,0.0
6475,54.0,30.0,30.0,4.0,0.0
6476,73.0,0.0,30.0,4.0,0.0
6477,66.0,15.0,40.0,2.0,0.0
6478,69.0,15.0,30.0,4.0,0.0
6479,78.0,0.0,40.0,0.0,0.0
6480,42.0,30.0,30.0,4.0,0.0
6481,54.0,0.0,30.0,4.0,0.0
6482,78.0,0.0,40.0,1.0,0.0
6483,66.0,0.0,40.0,2.0,0.0
6484,73.0,15.0,40.0,0.0,0.0
6485,69.0,15.0,30.0,4.0,0.0
6486,66.0,0.0,30.0,4.0,0.0
6487,42.0,0.0,30.0,4.0,0.0
6488,54.0,30.0,30.0,4.0,0.0
6489,77.0,0.0,40.0,1.0,0.0
6490,68.0,0.0,30.0,4.0,0.0
6491,74.0,0.0,40.0,0.0,0.0
6492,66.0,15.0,40.0,2.0,0.0
6493,71.0,15.0,30.0,4.0,0.0
6494,42.0,0.0,30.0,4.0,0.0
6495,54.0,30.0,30.0,4.0,0.0
6496,80.0,0.0,40.0,1.0,0.0
6497,68.0,15.0,30.0,4.0,0.0
6498,65.0,0.0,30.0,4.0,0.0
6499,66.0,15.0,40.0,2.0,0.0
6500,71.0,0.0,40.0,0.0,0.0
6501,42.0,0.0,30.0,4.0,0.0
6502,54.0,30.0,30.0,4.0,0.0
6503,66.0,0.0,30.0,4.0,0.0
6504,78.0,30.0,120.0,1.0,0.0
6505,42.0,0.0,120.0,3.0,0.0
6506,69.0,15.0,30.0,4.0,0.0
6507,66.0,15.0,40.0,2.0,0.0
6508,73.0,0.0,40.0,0.0,0.0
6509,54.0,30.0,30.0,4.0,0.0
6510,42.0,0.0,30.0,4.0,0.0
6511,69.0,0.0,30.0,4.0,0.0
6512,66.0,15.0,40.0,2.0,0.0
6513,73.0,15.0,30.0,4.0,0.0
6514,69.0,0.0,40.0,0.0,0.0
6515,42.0,0.0,30.0,4.0,0.0
6516,54.0,0.0,30.0,4.0,0.0
6517,71.0,0.0,30.0,4.0,0.0
6518,75.0,15.0,30.0,4.0,0.0
6519,66.0,15.0,40.0,2.0,0.0
6520,68.0,0.0,40.0,0.0,0.0
6521,54.0,30.0,30.0,4.0,0.0
6522,42.0,0.0,30.0,4.0,0.0
6523,68.0,0.0,40.0,0.0,0.0
6524,68.0,0.0,30.0,4.0,0.0
6525,77.0,15.0,30.0,4.0,0.0
6526,66.0,15.0,40.0,2.0,0.0
6527,42.0,0.0,30.0,4.0,0.0
6528,54.0,30.0,30.0,4.0,0.0
6529,69.0,15.0,30.0,4.0,0.0
6530,78.0,0.0,30.0,4.0,0.0
6531,66.0,0.0,40.0,2.0,0.0
6532,66.0,15.0,40.0,0.0,0.0
6533,42.0,0.0,30.0,4.0,0.0
6534,54.0,30.0,30.0,4.0,0.0
6535,69.0,0.0,40.0,1.0,0.0
6536,66.0,0.0,40.0,2.0,0.0
6537,78.0,15.0,40.0,0.0,0.0
6538,69.0,15.0,30.0,4.0,0.0
6539,73.0,0.0,30.0,4.0,0.0
6540,42.0,0.0,30.0,4.0,0.0
6541,54.0,30.0,30.0,4.0,0.0
6542,68.0,0.0,40.0,1.0,0.0
6543,80.0,0.0,40.0,0.0,0.0
6544,71.0,15.0,30.0,4.0,0.0
6545,75.0,0.0,30.0,4.0,0.0
6546,66.0,15.0,40.0,2.0,0.0
6547,54.0,30.0,30.0,4.0,0.0
6548,42.0,0.0,30.0,4.0,0.0
6549,68.0,0.0,30.0,4.0,0.0
6550,65.0,15.0,30.0,4.0,0.0
6551,80.0,0.0,40.0,0.0,0.0
6552,66.0,0.0,40.0,2.0,0.0
6553,68.0,15.0,40.0,1.0,0.0
6554,42.0,29.0,30.0,4.0,0.0
6555,54.0,0.0,30.0,4.0,0.0
6556,69.0,30.0,30.0,4.0,0.0
6557,66.0,0.0,30.0,4.0,0.0
6558,42.0,0.0,120.0,3.0,0.0
6559,66.0,0.0,120.0,1.0,0.0
6560,73.0,0.0,120.0,0.0,0.0
6561,66.0,30.0,120.0,2.0,0.0
6562,54.0,30.0,30.0,4.0,0.0
6563,42.0,0.0,30.0,4.0,0.0
6564,69.0,0.0,30.0,4.0,0.0
6565,66.0,30.0,30.0,4.0,0.0
6566,42.0,1.0,30.0,4.0,0.0
6567,54.0,0.0,30.0,4.0,0.0
6568,68.0,29.0,30.0,4.0,0.0
6569,71.0,0.0,30.0,4.0,0.0
6570,42.0,0.0,30.0,4.0,0.0
6571,54.0,31.0,30.0,4.0,0.0
6572,73.0,0.0,30.0,4.0,0.0
6573,69.0,29.0,30.0,4.0,0.0
6574,42.0,0.0,30.0,4.0,0.0
6575,54.0,31.0,30.0,4.0,0.0
6576,71.0,29.0,30.0,4.0,0.0
6577,75.0,0.0,30.0,4.0,0.0
6578,42.0,31.0,30.0,4.0,0.0
6579,54.0,0.0,30.0,4.0,0.0
6580,73.0,0.0,30.0,4.0,0.0
6581,77.0,29.0,30.0,4.0,0.0
6582,42.0,0.0,30.0,4.0,0.0
6583,54.0,31.0,30.0,4.0,0.0
6584,75.0,29.0,30.0,4.0,0.0
6585,78.0,0.0,30.0,4.0,0.0
6586,42.0,0.0,30.0,4.0,0.0
6587,54.0,31.0,30.0,4.0,0.0
6588,77.0,0.0,30.0,4.0,0.0
6589,80.0,29.0,30.0,4.0,0.0
6590,42.0,31.0,30.0,4.0,0.0
6591,54.0,0.0,30.0,4.0,0.0
6592,66.0,0.0,120.0,2.0,0.0
6593,69.0,30.0,120.0,1.0,0.0
6594,78.0,29.0,30.0,4.0,0.0
6595,81.0,0.0,30.0,4.0,0.0
6596,73.0,0.0,120.0,0.0,0.0
6597,42.0,0.0,120.0,3.0,0.0
6598,42.0,0.0,30.0,4.0,0.0
6599,54.0,31.0,30.0,4.0,0.0
6600,81.0,0.0,30.0,4.0,0.0
6601,78.0,29.0,30.0,4.0,0.0
6602,42.0,0.0,30.0,4.0,0.0
6603,54.0,1.0,30.0,4.0,0.0
6604,85.0,0.0,30.0,4.0,0.0
6605,76.0,29.0,30.0,4.0,0.0
6606,42.0,0.0,30.0,4.0,0.0
6607,54.0,31.0,30.0,4.0,0.0
6608,76.0,0.0,30.0,4.0,0.0
6609,85.0,29.0,30.0,4.0,0.0
6610,42.0,0.0,30.0,4.0,0.0
6611,54.0,31.0,30.0,4.0,0.0
6612,75.0,29.0,30.0,4.0,0.0
6613,85.0,0.0,30.0,4.0,0.0
6614,42.0,0.0,30.0,4.0,0.0
6615,54.0,31.0,30.0,4.0,0.0
6616,75.0,29.0,30.0,4.0,0.0
6617,85.0,0.0,30.0,4.0,0.0
6618,42.0,0.0,30.0,4.0,0.0
6619,54.0,31.0,30.0,4.0,0.0
6620,74.0,29.0,30.0,4.0,0.0
6621,83.0,0.0,30.0,4.0,0.0
6622,42.0,0.0,30.0,4.0,0.0
6623,54.0,31.0,30.0,4.0,0.0
6624,74.0,29.0,30.0,4.0,0.0
6625,83.0,0.0,30.0,4.0,0.0
6626,54.0,31.0,30.0,4.0,0.0
6627,42.0,0.0,30.0,4.0,0.0
6628,73.0,30.0,30.0,4.0,0.0
6629,83.0,0.0,30.0,4.0,0.0
6630,54.0,30.0,30.0,4.0,0.0
6631,42.0,0.0,30.0,4.0,0.0
6632,73.0,30.0,30.0,4.0,0.0
6633,83.0,0.0,30.0,4.0,0.0
6634,54.0,30.0,30.0,4.0,0.0
6635,42.0,0.0,30.0,4.0,0.0
6636,73.0,30.0,30.0,4.0,0.0
6637,81.0,0.0,30.0,4.0,0.0
6638,54.0,30.0,30.0,4.0,0.0
6639,42.0,0.0,30.0,4.0,0.0
6640,73.0,30.0,30.0,4.0,0.0
6641,81.0,0.0,30.0,4.0,0.0
6642,42.0,0.0,30.0,4.0,0.0
6643,54.0,30.0,30.0,4.0,0.0
6644,72.0,30.0,30.0,4.0,0.0
6645,81.0,0.0,30.0,4.0,0.0
6646,54.0,0.0,30.0,4.0,0.0
6647,42.0,30.0,30.0,4.0,0.0
6648,81.0,0.0,30.0,4.0,0.0
6649,72.0,30.0,30.0,4.0,0.0
6650,42.0,0.0,30.0,4.0,0.0
6651,54.0,30.0,30.0,4.0,0.0
6652,71.0,30.0,30.0,4.0,0.0
6653,80.0,0.0,30.0,4.0,0.0
6654,54.0,0.0,30.0,4.0,0.0
6655,42.0,30.0,30.0,4.0,0.0
6656,80.0,30.0,30.0,4.0,0.0
6657,71.0,0.0,30.0,4.0,0.0
6658,54.0,30.0,30.0,4.0,0.0
6659,42.0,0.0,30.0,4.0,0.0
6660,80.0,30.0,30.0,4.0,0.0
6661,70.0,0.0,30.0,4.0,0.0
6662,54.0,30.0,30.0,4.0,0.0
6663,42.0,0.0,30.0,4.0,0.0
6664,70.0,0.0,30.0,4.0,0.0
6665,80.0,30.0,30.0,4.0,0.0
6666,54.0,30.0,30.0,4.0,0.0
6667,42.0,0.0,30.0,4.0,0.0
6668,69.0,30.0,30.0,4.0,0.0
6669,78.0,0.0,30.0,4.0,0.0
6670,54.0,0.0,30.0,4.0,0.0
6671,42.0,30.0,30.0,4.0,0.0
6672,69.0,30.0,30.0,4.0,0.0
6673,78.0,0.0,30.0,4.0,0.0
6674,54.0,30.0,30.0,4.0,0.0
6675,42.0,0.0,30.0,4.0,0.0
6676,78.0,30.0,30.0,4.0,0.0
6677,68.0,0.0,30.0,4.0,0.0
6678,54.0,30.0,30.0,4.0,0.0
6679,42.0,0.0,30.0,4.0,0.0
6680,68.0,0.0,30.0,4.0,0.0
6681,78.0,30.0,30.0,4.0,0.0
6682,54.0,30.0,30.0,4.0,0.0
6683,42.0,0.0,30.0,4.0,0.0
6684,76.0,30.0,30.0,4.0,0.0
6685,67.0,0.0,30.0,4.0,0.0
6686,42.0,30.0,30.0,4.0,0.0
6687,54.0,0.0,30.0,4.0,0.0
6688,76.0,30.0,30.0,4.0,0.0
6689,67.0,0.0,30.0,4.0,0.0
6690,54.0,30.0,30.0,4.0,0.0
6691,42.0,0.0,30.0,4.0,0.0
6692,66.0,30.0,30.0,4.0,0.0
6693,76.0,0.0,30.0,4.0,0.0
6694,42.0,0.0,30.0,4.0,0.0
6695,54.0,30.0,30.0,4.0,0.0
6696,66.0,30.0,30.0,4.0,0.0
6697,76.0,0.0,30.0,4.0,0.0
6698,54.0,0.0,30.0,4.0,0.0
6699,42.0,30.0,30.0,4.0,0.0
6700,74.0,0.0,30.0,4.0,0.0
6701,71.0,29.0,30.0,4.0,0.0
6702,42.0,0.0,30.0,4.0,0.0
6703,54.0,31.0,30.0,4.0,0.0
6704,71.0,0.0,30.0,4.0,0.0
6705,74.0,29.0,30.0,4.0,0.0
6706,54.0,31.0,30.0,4.0,0.0
6707,42.0,0.0,30.0,4.0,0.0
6708,71.0,29.0,30.0,4.0,0.0
6709,73.0,0.0,30.0,4.0,0.0
6710,42.0,0.0,30.0,4.0,0.0
6711,54.0,31.0,30.0,4.0,0.0
6712,71.0,29.0,30.0,4.0,0.0
6713,73.0,0.0,30.0,4.0,0.0
6714,54.0,31.0,30.0,4.0,0.0
6715,42.0,0.0,30.0,4.0,0.0
6716,69.0,29.0,30.0,4.0,0.0
6717,78.0,0.0,30.0,4.0,0.0
6718,42.0,0.0,30.0,4.0,0.0
6719,54.0,31.0,30.0,4.0,0.0
6720,69.0,29.0,30.0,4.0,0.0
6721,78.0,0.0,30.0,4.0,0.0
6722,54.0,31.0,30.0,4.0,0.0
6723,42.0,0.0,30.0,4.0,0.0
6724,68.0,29.0,30.0,4.0,0.0
6725,78.0,0.0,30.0,4.0,0.0
6726,42.0,0.0,30.0,4.0,0.0
6727,54.0,31.0,30.0,4.0,0.0
6728,68.0,0.0,30.0,4.0,0.0
6729,78.0,29.0,30.0,4.0,0.0
6730,42.0,0.0,30.0,4.0,0.0
6731,54.0,31.0,30.0,4.0,0.0
6732,73.0,29.0,30.0,4.0,0.0
6733,76.0,0.0,30.0,4.0,0.0
6734,42.0,0.0,30.0,4.0,0.0
6735,54.0,31.0,30.0,4.0,0.0
6736,76.0,29.0,30.0,4.0,0.0
6737,73.0,0.0,30.0,4.0,0.0
6738,42.0,0.0,30.0,4.0,0.0
6739,54.0,31.0,30.0,4.0,0.0
6740,74.0,29.0,30.0,4.0,0.0
6741,73.0,0.0,30.0,4.0,0.0
6742,42.0,0.0,30.0,4.0,0.0
6743,54.0,31.0,30.0,4.0,0.0
6744,73.0,0.0,30.0,4.0,0.0
6745,74.0,29.0,30.0,4.0,0.0
6746,42.0,0.0,30.0,4.0,0.0
6747,54.0,31.0,30.0,4.0,0.0
6748,74.0,29.0,30.0,4.0,0.0
6749,71.0,0.0,30.0,4.0,0.0
6750,42.0,0.0,30.0,4.0,0.0
6751,54.0,31.0,30.0,4.0,0.0
6752,74.0,29.0,30.0,4.0,0.0
6753,71.0,0.0,30.0,4.0,0.0
6754,54.0,31.0,30.0,4.0,0.0
6755,42.0,0.0,30.0,4.0,0.0
6756,71.0,29.0,30.0,4.0,0.0
6757,73.0,0.0,30.0,4.0,0.0
6758,42.0,31.0,30.0,4.0,0.0
6759,54.0,0.0,30.0,4.0,0.0
6760,73.0,0.0,30.0,4.0,0.0
6761,71.0,29.0,30.0,4.0,0.0
6762,42.0,0.0,30.0,4.0,0.0
6763,54.0,31.0,30.0,4.0,0.0
6764,73.0,29.0,30.0,4.0,0.0
6765,69.0,0.0,30.0,4.0,0.0
6766,42.0,0.0,30.0,4.0,0.0
6767,54.0,31.0,30.0,4.0,0.0
6768,69.0,29.0,30.0,4.0,0.0
6769,73.0,0.0,30.0,4.0,0.0
6770,42.0,0.0,30.0,4.0,0.0
6771,54.0,31.0,30.0,4.0,0.0
6772,69.0,29.0,30.0,4.0,0.0
6773,71.0,0.0,30.0,4.0,0.0
6774,42.0,0.0,30.0,4.0,0.0
6775,54.0,31.0,30.0,4.0,0.0
6776,69.0,29.0,30.0,4.0,0.0
6777,71.0,0.0,30.0,4.0,0.0
6778,42.0,0.0,30.0,4.0,0.0
6779,54.0,31.0,30.0,4.0,0.0
6780,71.0,0.0,30.0,4.0,0.0
6781,68.0,29.0,30.0,4.0,0.0
6782,42.0,31.0,30.0,4.0,0.0
6783,54.0,0.0,30.0,4.0,0.0
6784,71.0,29.0,30.0,4.0,0.0
6785,68.0,0.0,30.0,4.0,0.0
6786,42.0,0.0,30.0,4.0,0.0
6787,54.0,31.0,30.0,4.0,0.0
6788,68.0,29.0,30.0,4.0,0.0
6789,69.0,0.0,30.0,4.0,0.0
6790,42.0,31.0,30.0,4.0,0.0
6791,54.0,0.0,30.0,4.0,0.0
6792,68.0,29.0,30.0,4.0,0.0
6793,69.0,0.0,30.0,4.0,0.0
6794,42.0,0.0,30.0,4.0,0.0
6795,54.0,31.0,30.0,4.0,0.0
6796,69.0,0.0,30.0,4.0,0.0
6797,66.0,29.0,30.0,4.0,0.0
6798,42.0,31.0,30.0,4.0,0.0
6799,54.0,0.0,30.0,4.0,0.0
6800,66.0,0.0,30.0,4.0,0.0
6801,69.0,29.0,30.0,4.0,0.0
6802,42.0,0.0,30.0,4.0,0.0
6803,54.0,31.0,30.0,4.0,0.0
6804,66.0,29.0,30.0,4.0,0.0
6805,68.0,0.0,30.0,4.0,0.0
6806,42.0,31.0,30.0,4.0,0.0
6807,54.0,0.0,30.0,4.0,0.0
6808,66.0,29.0,30.0,4.0,0.0
6809,68.0,0.0,30.0,4.0,0.0
6810,42.0,31.0,30.0,4.0,0.0
6811,54.0,0.0,30.0,4.0,0.0
6812,68.0,29.0,30.0,4.0,0.0
6813,65.0,0.0,30.0,4.0,0.0
6814,42.0,0.0,30.0,4.0,0.0
6815,54.0,31.0,30.0,4.0,0.0
6816,65.0,29.0,30.0,4.0,0.0
6817,68.0,0.0,30.0,4.0,0.0
6818,42.0,0.0,30.0,4.0,0.0
6819,54.0,31.0,30.0,4.0,0.0
6820,64.0,29.0,30.0,4.0,0.0
6821,70.0,0.0,30.0,4.0,0.0
6822,42.0,0.0,30.0,4.0,0.0
6823,54.0,31.0,30.0,4.0,0.0
6824,64.0,29.0,30.0,4.0,0.0
6825,70.0,0.0,30.0,4.0,0.0
6826,42.0,31.0,30.0,4.0,0.0
6827,54.0,0.0,30.0,4.0,0.0
6828,63.0,29.0,30.0,4.0,0.0
6829,71.0,0.0,30.0,4.0,0.0
6830,54.0,1.0,30.0,4.0,0.0
6831,42.0,30.0,30.0,4.0,0.0
6832,71.0,0.0,30.0,4.0,0.0
6833,63.0,29.0,30.0,4.0,0.0
6834,54.0,1.0,30.0,4.0,0.0
6835,42.0,30.0,30.0,4.0,0.0
6836,62.0,30.0,30.0,4.0,0.0
6837,68.0,0.0,30.0,4.0,0.0
6838,42.0,30.0,30.0,4.0,0.0
6839,54.0,0.0,30.0,4.0,0.0
6840,68.0,0.0,30.0,4.0,0.0
6841,62.0,30.0,30.0,4.0,0.0
6842,54.0,30.0,30.0,4.0,0.0
6843,42.0,0.0,30.0,4.0,0.0
6844,61.0,0.0,30.0,4.0,0.0
6845,69.0,30.0,30.0,4.0,0.0
6846,42.0,0.0,30.0,4.0,0.0
6847,54.0,30.0,30.0,4.0,0.0
6848,61.0,29.0,30.0,4.0,0.0
6849,69.0,0.0,30.0,4.0,0.0
6850,42.0,1.0,30.0,4.0,0.0
6851,54.0,30.0,30.0,4.0,0.0
6852,60.0,29.0,30.0,4.0,0.0
6853,66.0,0.0,30.0,4.0,0.0
6854,42.0,31.0,30.0,4.0,0.0
6855,54.0,0.0,30.0,4.0,0.0
6856,60.0,29.0,30.0,4.0,0.0
6857,66.0,0.0,30.0,4.0,0.0
6858,54.0,31.0,30.0,4.0,0.0
6859,42.0,0.0,30.0,4.0,0.0
6860,59.0,0.0,30.0,4.0,0.0
6861,67.0,29.0,30.0,4.0,0.0
6862,42.0,0.0,30.0,4.0,0.0
6863,54.0,31.0,30.0,4.0,0.0
6864,67.0,29.0,30.0,4.0,0.0
6865,59.0,0.0,30.0,4.0,0.0
6866,42.0,31.0,30.0,4.0,0.0
6867,54.0,0.0,30.0,4.0,0.0
6868,65.0,0.0,30.0,4.0,0.0
6869,59.0,29.0,30.0,4.0,0.0
6870,54.0,0.0,30.0,4.0,0.0
6871,42.0,31.0,30.0,4.0,0.0
6872,59.0,29.0,30.0,4.0,0.0
6873,65.0,0.0,30.0,4.0,0.0
6874,42.0,31.0,30.0,4.0,0.0
6875,54.0,0.0,30.0,4.0,0.0
6876,57.0,29.0,30.0,4.0,0.0
6877,66.0,0.0,30.0,4.0,0.0
6878,42.0,0.0,30.0,4.0,0.0
6879,54.0,31.0,30.0,4.0,0.0
6880,57.0,29.0,30.0,4.0,0.0
6881,66.0,0.0,30.0,4.0,0.0
6882,42.0,31.0,30.0,4.0,0.0
6883,54.0,0.0,30.0,4.0,0.0
6884,54.0,30.0,30.0,4.0,0.0
6885,48.0,0.0,30.0,4.0,0.0
6886,56.0,30.0,30.0,4.0,0.0
6887,57.0,15.0,30.0,4.0,0.0
6888,48.0,15.0,40.0,3.0,0.0
6889,63.0,30.0,30.0,4.0,0.0
6890,66.0,30.0,30.0,4.0,0.0
6891,48.0,30.0,120.0,3.0,0.0
6892,61.0,30.0,30.0,4.0,0.0
6893,63.0,0.0,40.0,2.0,0.0
6894,78.0,0.0,40.0,0.0,0.0
6895,69.0,15.0,40.0,1.0,0.0
6896,63.0,15.0,30.0,4.0,0.0
6897,60.0,0.0,30.0,4.0,0.0
6898,54.0,0.0,30.0,4.0,0.0
6899,63.0,0.0,120.0,2.0,0.0
6900,78.0,0.0,120.0,0.0,0.0
6901,69.0,30.0,120.0,1.0,0.0
6902,48.0,30.0,30.0,4.0,0.0
6903,56.0,30.0,30.0,4.0,0.0
6904,57.0,15.0,30.0,4.0,0.0
6905,48.0,15.0,40.0,3.0,0.0
6906,63.0,0.0,30.0,4.0,0.0
6907,66.0,30.0,30.0,4.0,0.0
6908,48.0,30.0,120.0,3.0,0.0
6909,63.0,30.0,30.0,4.0,0.0
6910,68.0,0.0,40.0,1.0,0.0
6911,60.0,15.0,30.0,4.0,0.0
6912,63.0,0.0,40.0,2.0,0.0
6913,78.0,15.0,40.0,0.0,0.0
6914,56.0,0.0,30.0,4.0,0.0
6915,78.0,0.0,120.0,0.0,0.0
6916,49.0,30.0,30.0,4.0,0.0
6917,57.0,0.0,30.0,4.0,0.0
6918,69.0,0.0,120.0,2.0,0.0
6919,61.0,0.0,120.0,1.0,0.0
6920,59.0,30.0,30.0,4.0,0.0
6921,49.0,15.0,40.0,3.0,0.0
6922,61.0,15.0,30.0,4.0,0.0
6923,65.0,30.0,30.0,4.0,0.0
6924,49.0,30.0,120.0,3.0,0.0
6925,66.0,30.0,30.0,4.0,0.0
6926,61.0,30.0,30.0,4.0,0.0
6927,69.0,0.0,40.0,1.0,0.0
6928,66.0,15.0,40.0,2.0,0.0
6929,78.0,0.0,40.0,0.0,0.0
6930,62.0,15.0,30.0,4.0,0.0
6931,59.0,0.0,30.0,4.0,0.0
6932,57.0,30.0,30.0,4.0,0.0
6933,49.0,0.0,30.0,4.0,0.0
6934,69.0,0.0,120.0,1.0,0.0
6935,66.0,30.0,120.0,2.0,0.0
6936,78.0,0.0,120.0,0.0,0.0
6937,59.0,30.0,30.0,4.0,0.0
6938,61.0,15.0,30.0,4.0,0.0
6939,49.0,15.0,40.0,3.0,0.0
6940,65.0,0.0,30.0,4.0,0.0
6941,66.0,30.0,30.0,4.0,0.0
6942,49.0,0.0,120.0,3.0,0.0
6943,61.0,30.0,30.0,4.0,0.0
6944,57.0,15.0,30.0,4.0,0.0
6945,61.0,15.0,40.0,2.0,0.0
6946,69.0,0.0,40.0,1.0,0.0
6947,78.0,0.0,40.0,0.0,0.0
6948,54.0,30.0,30.0,4.0,0.0
6949,68.0,0.0,120.0,2.0,0.0
6950,78.0,30.0,120.0,0.0,0.0
6951,50.0,30.0,30.0,4.0,0.0
6952,56.0,0.0,30.0,4.0,0.0
6953,71.0,0.0,120.0,1.0,0.0
6954,57.0,30.0,30.0,4.0,0.0
6955,50.0,15.0,40.0,3.0,0.0
6956,59.0,15.0,30.0,4.0,0.0
6957,65.0,0.0,30.0,4.0,0.0
6958,66.0,30.0,30.0,4.0,0.0
6959,50.0,0.0,120.0,3.0,0.0
6960,61.0,30.0,30.0,4.0,0.0
6961,59.0,0.0,40.0,2.0,0.0
6962,62.0,15.0,30.0,4.0,0.0
6963,68.0,15.0,40.0,1.0,0.0
6964,78.0,0.0,40.0,0.0,0.0
6965,59.0,30.0,30.0,4.0,0.0
6966,50.0,0.0,30.0,4.0,0.0
6967,56.0,30.0,30.0,4.0,0.0
6968,78.0,0.0,120.0,0.0,0.0
6969,59.0,0.0,120.0,2.0,0.0
6970,68.0,0.0,120.0,1.0,0.0
6971,57.0,30.0,30.0,4.0,0.0
6972,50.0,15.0,40.0,3.0,0.0
6973,59.0,15.0,30.0,4.0,0.0
6974,65.0,30.0,30.0,4.0,0.0
6975,50.0,0.0,120.0,3.0,0.0
6976,66.0,30.0,30.0,4.0,0.0
6977,62.0,30.0,30.0,4.0,0.0
6978,56.0,30.0,30.0,2.0,0.0
6979,71.0,0.0,30.0,1.0,0.0
6980,78.0,0.0,30.0,0.0,0.0
6981,59.0,0.0,30.0,4.0,0.0
6982,56.0,30.0,30.0,4.0,0.0
6983,78.0,0.0,120.0,0.0,0.0
6984,73.0,30.0,120.0,1.0,0.0
6985,57.0,0.0,120.0,2.0,0.0
6986,57.0,30.0,30.0,4.0,0.0
6987,49.0,0.0,30.0,4.0,0.0
6988,56.0,30.0,30.0,4.0,0.0
6989,57.0,15.0,30.0,4.0,0.0
6990,49.0,15.0,40.0,3.0,0.0
6991,61.0,0.0,30.0,4.0,0.0
6992,49.0,0.0,120.0,3.0,0.0
6993,66.0,30.0,30.0,4.0,0.0
6994,61.0,30.0,30.0,4.0,0.0
6995,68.0,0.0,30.0,2.0,0.0
6996,78.0,30.0,30.0,0.0,0.0
6997,71.0,0.0,30.0,1.0,0.0
6998,62.0,0.0,30.0,4.0,0.0
6999,59.0,30.0,30.0,4.0,0.0
7000,78.0,30.0,120.0,0.0,0.0
7001,73.0,0.0,120.0,1.0,0.0
7002,57.0,30.0,30.0,4.0,0.0
7003,49.0,0.0,30.0,4.0,0.0
7004,69.0,0.0,120.0,2.0,0.0
7005,56.0,30.0,30.0,4.0,0.0
7006,49.0,15.0,40.0,3.0,0.0
7007,57.0,15.0,30.0,4.0,0.0
7008,61.0,0.0,30.0,4.0,0.0
7009,49.0,0.0,120.0,3.0,0.0
7010,66.0,30.0,30.0,4.0,0.0
7011,61.0,30.0,30.0,4.0,0.0
7012,73.0,0.0,40.0,1.0,0.0
7013,69.0,15.0,30.0,4.0,0.0
7014,78.0,15.0,40.0,0.0,0.0
7015,69.0,0.0,40.0,2.0,0.0
7016,66.0,15.0,30.0,4.0,0.0
7017,69.0,0.0,240.0,2.0,0.0
7018,60.0,15.0,15.0,4.0,0.0
7019,48.0,0.0,480.0,3.0,0.0
7020,75.0,0.0,480.0,1.0,0.0
7021,78.0,15.0,480.0,0.0,0.0
7022,66.0,15.0,15.0,4.0,0.0
7023,68.0,15.0,15.0,4.0,0.0
7024,69.0,15.0,15.0,4.0,0.0
7025,75.0,15.0,15.0,4.0,0.0
7026,69.0,15.0,15.0,4.0,0.0
7027,68.0,15.0,15.0,4.0,0.0
7028,66.0,15.0,15.0,4.0,0.0
7029,60.0,15.0,15.0,4.0,0.0
7030,66.0,15.0,15.0,4.0,0.0
7031,68.0,15.0,15.0,4.0,0.0
7032,69.0,15.0,15.0,4.0,0.0
7033,75.0,15.0,15.0,4.0,0.0
7034,69.0,15.0,15.0,4.0,0.0
7035,68.0,15.0,15.0,4.0,0.0
7036,66.0,15.0,15.0,4.0,0.0
7037,68.0,0.0,720.0,2.0,0.0
7038,60.0,15.0,15.0,4.0,0.0
7039,66.0,15.0,15.0,4.0,0.0
7040,63.0,15.0,15.0,4.0,0.0
7041,68.0,15.0,15.0,4.0,0.0
7042,75.0,15.0,15.0,4.0,0.0
7043,68.0,15.0,15.0,4.0,0.0
7044,63.0,15.0,15.0,4.0,0.0
7045,66.0,15.0,15.0,4.0,0.0
7046,60.0,15.0,15.0,4.0,0.0
7047,66.0,15.0,15.0,4.0,0.0
7048,63.0,15.0,15.0,4.0,0.0
7049,68.0,15.0,15.0,4.0,0.0
7050,75.0,15.0,15.0,4.0,0.0
7051,68.0,15.0,15.0,4.0,0.0
7052,63.0,15.0,15.0,4.0,0.0
7053,66.0,0.0,15.0,4.0,0.0
7054,49.0,0.0,2400.0,3.0,0.0
7055,59.0,15.0,15.0,4.0,0.0
7056,74.0,0.0,240.0,1.0,0.0
7057,77.0,0.0,480.0,0.0,0.0
7058,65.0,15.0,15.0,4.0,0.0
7059,66.0,15.0,15.0,4.0,0.0
7060,68.0,15.0,15.0,4.0,0.0
7061,74.0,15.0,15.0,4.0,0.0
7062,68.0,15.0,15.0,4.0,0.0
7063,66.0,15.0,15.0,4.0,0.0
7064,65.0,15.0,15.0,4.0,0.0
7065,59.0,15.0,15.0,4.0,0.0
7066,65.0,15.0,15.0,4.0,0.0
7067,66.0,15.0,15.0,4.0,0.0
7068,68.0,15.0,15.0,4.0,0.0
7069,74.0,15.0,15.0,4.0,0.0
7070,68.0,15.0,15.0,4.0,0.0
7071,66.0,15.0,15.0,4.0,0.0
7072,65.0,15.0,15.0,4.0,0.0
7073,59.0,15.0,15.0,4.0,0.0
7074,65.0,15.0,15.0,4.0,0.0
7075,61.0,15.0,15.0,4.0,0.0
7076,68.0,15.0,15.0,4.0,0.0
7077,73.0,15.0,15.0,4.0,0.0
7078,68.0,15.0,15.0,4.0,0.0
7079,61.0,15.0,15.0,4.0,0.0
7080,65.0,15.0,15.0,4.0,0.0
7081,59.0,15.0,15.0,4.0,0.0
7082,65.0,15.0,15.0,4.0,0.0
7083,61.0,15.0,15.0,4.0,0.0
7084,68.0,15.0,15.0,4.0,0.0
7085,73.0,15.0,15.0,4.0,0.0
7086,68.0,15.0,15.0,4.0,0.0
7087,61.0,15.0,15.0,4.0,0.0
7088,65.0,15.0,15.0,4.0,0.0
7089,73.0,0.0,15.0,1.0,0.0
7090,66.0,0.0,480.0,2.0,0.0
7091,78.0,0.0,480.0,0.0,0.0
7092,58.0,15.0,15.0,4.0,0.0
7093,64.0,15.0,15.0,4.0,0.0
7094,61.0,15.0,15.0,4.0,0.0
7095,66.0,15.0,15.0,4.0,0.0
7096,73.0,15.0,15.0,4.0,0.0
7097,66.0,15.0,15.0,4.0,0.0
7098,61.0,15.0,15.0,4.0,0.0
7099,64.0,15.0,15.0,4.0,0.0
7100,58.0,15.0,15.0,4.0,0.0
7101,64.0,15.0,15.0,4.0,0.0
7102,61.0,15.0,15.0,4.0,0.0
7103,66.0,15.0,15.0,4.0,0.0
7104,73.0,15.0,15.0,4.0,0.0
7105,66.0,15.0,15.0,4.0,0.0
7106,61.0,15.0,15.0,4.0,0.0
7107,64.0,0.0,15.0,4.0,0.0
7108,57.0,15.0,15.0,4.0,0.0
7109,75.0,0.0,240.0,1.0,0.0
7110,66.0,15.0,15.0,4.0,0.0
7111,65.0,15.0,15.0,4.0,0.0
7112,73.0,15.0,15.0,4.0,0.0
7113,75.0,15.0,15.0,4.0,0.0
7114,73.0,15.0,15.0,4.0,0.0
7115,65.0,15.0,15.0,4.0,0.0
7116,66.0,15.0,15.0,4.0,0.0
7117,57.0,15.0,15.0,4.0,0.0
7118,66.0,15.0,15.0,4.0,0.0
7119,65.0,15.0,15.0,4.0,0.0
7120,73.0,15.0,15.0,4.0,0.0
7121,75.0,15.0,15.0,4.0,0.0
7122,73.0,15.0,15.0,4.0,0.0
7123,65.0,15.0,15.0,4.0,0.0
7124,66.0,15.0,15.0,4.0,0.0
7125,77.0,0.0,240.0,1.0,0.0
7126,71.0,0.0,240.0,2.0,0.0
7127,80.0,15.0,240.0,0.0,0.0
7128,62.0,15.0,15.0,4.0,0.0
7129,68.0,15.0,15.0,4.0,0.0
7130,69.0,15.0,15.0,4.0,0.0
7131,71.0,15.0,15.0,4.0,0.0
7132,77.0,15.0,15.0,4.0,0.0
7133,71.0,15.0,15.0,4.0,0.0
7134,69.0,15.0,15.0,4.0,0.0
7135,68.0,15.0,15.0,4.0,0.0
7136,62.0,15.0,15.0,4.0,0.0
7137,68.0,15.0,15.0,4.0,0.0
7138,69.0,15.0,15.0,4.0,0.0
7139,71.0,15.0,15.0,4.0,0.0
7140,77.0,15.0,15.0,4.0,0.0
7141,71.0,15.0,15.0,4.0,0.0
7142,69.0,15.0,15.0,4.0,0.0
7143,68.0,0.0,15.0,4.0,0.0
7144,66.0,0.0,240.0,2.0,0.0
7145,78.0,0.0,960.0,1.0,0.0
7146,81.0,0.0,480.0,0.0,0.0
7147,61.0,15.0,15.0,4.0,0.0
7148,69.0,15.0,15.0,4.0,0.0
7149,73.0,15.0,15.0,4.0,0.0
7150,77.0,15.0,15.0,4.0,0.0
7151,78.0,15.0,15.0,4.0,0.0
7152,77.0,15.0,15.0,4.0,0.0
7153,73.0,15.0,15.0,4.0,0.0
7154,69.0,15.0,15.0,4.0,0.0
7155,61.0,15.0,15.0,4.0,0.0
7156,69.0,15.0,15.0,4.0,0.0
7157,73.0,15.0,15.0,4.0,0.0
7158,77.0,15.0,15.0,4.0,0.0
7159,78.0,15.0,15.0,4.0,0.0
7160,77.0,15.0,15.0,4.0,0.0
7161,73.0,15.0,15.0,4.0,0.0
7162,69.0,15.0,15.0,4.0,0.0
7163,63.0,15.0,240.0,2.0,0.0
7164,60.0,15.0,15.0,4.0,0.0
7165,69.0,15.0,15.0,4.0,0.0
7166,75.0,15.0,15.0,4.0,0.0
7167,77.0,15.0,15.0,4.0,0.0
7168,78.0,15.0,15.0,4.0,0.0
7169,77.0,15.0,15.0,4.0,0.0
7170,75.0,15.0,15.0,4.0,0.0
7171,69.0,15.0,15.0,4.0,0.0
7172,60.0,15.0,15.0,4.0,0.0
7173,69.0,15.0,15.0,4.0,0.0
7174,75.0,15.0,15.0,4.0,0.0
7175,77.0,15.0,15.0,4.0,0.0
7176,78.0,15.0,15.0,4.0,0.0
7177,77.0,15.0,15.0,4.0,0.0
7178,75.0,15.0,15.0,4.0,0.0
7179,69.0,0.0,15.0,4.0,0.0
7180,80.0,0.0,720.0,0.0,0.0
7181,60.0,15.0,15.0,4.0,0.0
7182,75.0,0.0,240.0,2.0,0.0
7183,68.0,15.0,15.0,4.0,0.0
7184,75.0,15.0,15.0,4.0,0.0
7185,77.0,15.0,15.0,4.0,0.0
7186,78.0,15.0,15.0,4.0,0.0
7187,77.0,15.0,15.0,4.0,0.0
7188,75.0,15.0,15.0,4.0,0.0
7189,68.0,15.0,15.0,4.0,0.0
7190,60.0,15.0,15.0,4.0,0.0
7191,68.0,15.0,15.0,4.0,0.0
7192,75.0,15.0,15.0,4.0,0.0
7193,77.0,15.0,15.0,4.0,0.0
7194,78.0,15.0,15.0,4.0,0.0
7195,77.0,15.0,15.0,4.0,0.0
7196,75.0,15.0,15.0,4.0,0.0
7197,68.0,15.0,15.0,4.0,0.0
7198,68.0,15.0,240.0,2.0,0.0
7199,61.0,15.0,15.0,4.0,0.0
7200,71.0,15.0,15.0,4.0,0.0
7201,68.0,15.0,15.0,4.0,0.0
7202,74.0,15.0,15.0,4.0,0.0
7203,78.0,15.0,15.0,4.0,0.0
7204,74.0,15.0,15.0,4.0,0.0
7205,68.0,15.0,15.0,4.0,0.0
7206,71.0,15.0,15.0,4.0,0.0
7207,61.0,15.0,15.0,4.0,0.0
7208,71.0,15.0,15.0,4.0,0.0
7209,68.0,15.0,15.0,4.0,0.0
7210,74.0,15.0,15.0,4.0,0.0
7211,78.0,15.0,15.0,4.0,0.0
7212,74.0,15.0,15.0,4.0,0.0
7213,68.0,15.0,15.0,4.0,0.0
7214,71.0,0.0,15.0,4.0,0.0
7215,61.0,15.0,15.0,4.0,0.0
7216,71.0,0.0,240.0,2.0,0.0
7217,77.0,30.0,240.0,1.0,0.0
7218,71.0,15.0,15.0,4.0,0.0
7219,68.0,15.0,15.0,4.0,0.0
7220,73.0,15.0,15.0,4.0,0.0
7221,77.0,15.0,15.0,4.0,0.0
7222,73.0,15.0,15.0,4.0,0.0
7223,68.0,15.0,15.0,4.0,0.0
7224,71.0,15.0,15.0,4.0,0.0
7225,61.0,15.0,15.0,4.0,0.0
7226,71.0,15.0,15.0,4.0,0.0
7227,68.0,15.0,15.0,4.0,0.0
7228,73.0,15.0,15.0,4.0,0.0
7229,77.0,15.0,15.0,4.0,0.0
7230,73.0,15.0,15.0,4.0,0.0
7231,68.0,15.0,15.0,4.0,0.0
7232,61.0,0.0,15.0,4.0,0.0
7233,54.0,0.0,30.0,3.0,0.0
7234,69.0,30.0,30.0,2.0,0.0
7235,54.0,0.0,30.0,4.0,0.0
7236,66.0,0.0,30.0,4.0,0.0
7237,66.0,0.0,30.0,1.0,0.0
7238,66.0,0.0,30.0,0.0,0.0
7239,68.0,0.0,30.0,2.0,0.0
7240,68.0,30.0,30.0,4.0,0.0
7241,56.0,0.0,30.0,4.0,0.0
7242,68.0,0.0,30.0,1.0,0.0
7243,56.0,0.0,30.0,3.0,0.0
7244,68.0,0.0,30.0,0.0,0.0
7245,69.0,0.0,30.0,4.0,0.0
7246,57.0,0.0,30.0,4.0,0.0
7247,69.0,0.0,30.0,0.0,0.0
7248,57.0,75.0,30.0,3.0,0.0
7249,69.0,0.0,30.0,2.0,0.0
7250,69.0,0.0,30.0,1.0,0.0
7251,56.0,0.0,60.0,4.0,0.0
7252,68.0,15.0,40.0,1.0,0.0
7253,68.0,0.0,40.0,2.0,0.0
7254,68.0,0.0,40.0,0.0,0.0
7255,56.0,0.0,40.0,3.0,0.0
7256,68.0,45.0,60.0,4.0,0.0
7257,66.0,0.0,40.0,2.0,0.0
7258,66.0,15.0,40.0,1.0,0.0
7259,54.0,0.0,40.0,3.0,0.0
7260,54.0,45.0,60.0,4.0,0.0
7261,66.0,0.0,60.0,4.0,0.0
7262,66.0,0.0,40.0,0.0,0.0
7263,73.0,15.0,40.0,2.0,0.0
7264,61.0,0.0,40.0,3.0,0.0
7265,73.0,105.0,60.0,4.0,0.0
7266,61.0,0.0,60.0,4.0,0.0
7267,73.0,0.0,40.0,1.0,0.0
7268,73.0,0.0,40.0,0.0,0.0
7269,66.0,0.0,120.0,3.0,0.0
7270,78.0,45.0,120.0,4.0,0.0
7271,66.0,0.0,120.0,4.0,0.0
7272,78.0,15.0,120.0,0.0,0.0
7273,78.0,0.0,120.0,1.0,0.0
7274,78.0,0.0,120.0,2.0,0.0
7275,61.0,0.0,40.0,3.0,0.0
7276,73.0,0.0,40.0,2.0,0.0
7277,73.0,15.0,40.0,0.0,0.0
7278,73.0,0.0,40.0,1.0,0.0
7279,73.0,0.0,60.0,4.0,0.0
7280,61.0,45.0,60.0,4.0,0.0
7281,62.0,30.0,60.0,4.0,0.0
7282,74.0,0.0,40.0,2.0,0.0
7283,74.0,0.0,40.0,1.0,0.0
7284,74.0,0.0,40.0,0.0,0.0
7285,62.0,15.0,40.0,3.0,0.0
7286,74.0,0.0,60.0,4.0,0.0
7287,71.0,0.0,30.0,1.0,0.0
7288,71.0,0.0,30.0,0.0,0.0
7289,71.0,0.0,30.0,2.0,0.0
7290,59.0,0.0,30.0,3.0,0.0
7291,59.0,30.0,30.0,4.0,0.0
7292,71.0,0.0,30.0,4.0,0.0
7293,68.0,45.0,30.0,2.0,0.0
7294,68.0,0.0,30.0,0.0,0.0
7295,68.0,0.0,30.0,1.0,0.0
7296,56.0,0.0,30.0,3.0,0.0
7297,68.0,0.0,30.0,4.0,0.0
7298,56.0,0.0,30.0,4.0,0.0
7299,73.0,30.0,60.0,4.0,0.0
7300,61.0,15.0,40.0,3.0,0.0
7301,73.0,0.0,40.0,0.0,0.0
7302,61.0,0.0,60.0,4.0,0.0
7303,73.0,0.0,40.0,2.0,0.0
7304,73.0,0.0,40.0,1.0,0.0
7305,69.0,0.0,30.0,0.0,0.0
7306,69.0,30.0,30.0,1.0,0.0
7307,57.0,0.0,30.0,4.0,0.0
7308,69.0,0.0,30.0,4.0,0.0
7309,69.0,0.0,30.0,2.0,0.0
7310,57.0,0.0,30.0,3.0,0.0
7311,66.0,0.0,30.0,1.0,0.0
7312,54.0,0.0,30.0,4.0,0.0
7313,66.0,0.0,30.0,0.0,0.0
7314,66.0,0.0,30.0,4.0,0.0
7315,66.0,0.0,30.0,2.0,0.0
7316,54.0,45.0,30.0,3.0,0.0
7317,71.0,0.0,40.0,1.0,0.0
7318,71.0,15.0,40.0,0.0,0.0
7319,59.0,0.0,40.0,3.0,0.0
7320,71.0,0.0,60.0,4.0,0.0
7321,59.0,30.0,60.0,4.0,0.0
7322,71.0,0.0,40.0,2.0,0.0
7323,68.0,0.0,30.0,1.0,0.0
7324,68.0,0.0,30.0,2.0,0.0
7325,56.0,0.0,30.0,3.0,0.0
7326,68.0,0.0,30.0,0.0,0.0
7327,56.0,0.0,30.0,4.0,0.0
7328,68.0,30.0,30.0,4.0,0.0
7329,65.0,0.0,30.0,1.0,0.0
7330,65.0,0.0,30.0,2.0,0.0
7331,65.0,0.0,30.0,4.0,0.0
7332,53.0,0.0,30.0,4.0,0.0
7333,53.0,0.0,30.0,3.0,0.0
7334,65.0,30.0,30.0,0.0,0.0
7335,49.0,0.0,40.0,3.0,0.0
7336,61.0,0.0,40.0,1.0,0.0
7337,61.0,15.0,40.0,2.0,0.0
7338,61.0,0.0,40.0,0.0,0.0
7339,61.0,0.0,60.0,4.0,0.0
7340,49.0,15.0,30.0,4.0,0.0
7341,57.0,30.0,30.0,4.0,0.0
7342,80.0,0.0,120.0,0.0,0.0
7343,74.0,0.0,120.0,1.0,0.0
7344,74.0,30.0,60.0,4.0,0.0
7345,56.0,15.0,30.0,4.0,0.0
7346,71.0,0.0,40.0,2.0,0.0
7347,53.0,15.0,40.0,3.0,0.0
7348,54.0,0.0,30.0,4.0,0.0
7349,56.0,0.0,40.0,3.0,0.0
7350,71.0,15.0,40.0,2.0,0.0
7351,53.0,15.0,30.0,4.0,0.0
7352,62.0,30.0,30.0,4.0,0.0
7353,74.0,15.0,30.0,0.0,0.0
7354,83.0,15.0,120.0,1.0,0.0
7355,59.0,0.0,40.0,3.0,0.0
7356,68.0,0.0,30.0,4.0,0.0
7357,71.0,15.0,40.0,2.0,0.0
7358,71.0,30.0,30.0,0.0,0.0
7359,66.0,0.0,30.0,4.0,0.0
7360,65.0,0.0,40.0,0.0,0.0
7361,68.0,15.0,30.0,4.0,0.0
7362,62.0,0.0,40.0,3.0,0.0
7363,71.0,0.0,40.0,2.0,0.0
7364,62.0,30.0,30.0,4.0,0.0
7365,61.0,0.0,30.0,4.0,0.0
7366,71.0,0.0,40.0,2.0,0.0
7367,59.0,15.0,40.0,3.0,0.0
7368,80.0,15.0,30.0,1.0,0.0
7369,80.0,0.0,120.0,0.0,0.0
7370,59.0,0.0,30.0,4.0,0.0
7371,77.0,30.0,30.0,1.0,0.0
7372,68.0,0.0,40.0,1.0,0.0
7373,71.0,15.0,40.0,2.0,0.0
7374,56.0,0.0,40.0,3.0,0.0
7375,53.0,15.0,30.0,4.0,0.0
7376,61.0,30.0,30.0,4.0,0.0
7377,83.0,0.0,120.0,1.0,0.0
7378,71.0,15.0,40.0,2.0,0.0
7379,74.0,15.0,30.0,0.0,0.0
7380,68.0,0.0,30.0,4.0,0.0
7381,53.0,0.0,40.0,3.0,0.0
7382,66.0,30.0,30.0,4.0,0.0
7383,71.0,0.0,30.0,0.0,0.0
7384,65.0,0.0,40.0,0.0,0.0
7385,49.0,15.0,40.0,3.0,0.0
7386,73.0,0.0,40.0,2.0,0.0
7387,68.0,15.0,30.0,4.0,0.0
7388,62.0,30.0,30.0,4.0,0.0
7389,61.0,15.0,40.0,3.0,0.0
7390,80.0,15.0,30.0,1.0,0.0
7391,73.0,0.0,40.0,2.0,0.0
7392,61.0,0.0,30.0,4.0,0.0
7393,77.0,0.0,60.0,0.0,0.0
7394,77.0,0.0,30.0,1.0,0.0
7395,59.0,30.0,30.0,4.0,0.0
7396,78.0,15.0,40.0,0.0,0.0
7397,73.0,0.0,120.0,2.0,0.0
7398,54.0,0.0,120.0,3.0,0.0
7399,54.0,15.0,30.0,4.0,0.0
7400,73.0,0.0,40.0,1.0,0.0
7401,57.0,0.0,30.0,4.0,0.0
7402,61.0,30.0,30.0,4.0,0.0
7403,73.0,15.0,40.0,0.0,0.0
7404,66.0,15.0,30.0,4.0,0.0
7405,69.0,0.0,40.0,1.0,0.0
7406,65.0,30.0,30.0,4.0,0.0
7407,66.0,0.0,120.0,2.0,0.0
7408,66.0,15.0,40.0,1.0,0.0
7409,69.0,0.0,40.0,0.0,0.0
7410,66.0,15.0,30.0,4.0,0.0
7411,62.0,30.0,30.0,4.0,0.0
7412,69.0,15.0,40.0,1.0,0.0
7413,73.0,0.0,40.0,0.0,0.0
7414,61.0,15.0,30.0,4.0,0.0
7415,59.0,30.0,30.0,4.0,0.0
7416,54.0,0.0,30.0,4.0,0.0
7417,78.0,0.0,40.0,0.0,0.0
7418,73.0,15.0,40.0,1.0,0.0
7419,54.0,30.0,120.0,3.0,0.0
7420,57.0,15.0,30.0,4.0,0.0
7421,61.0,30.0,30.0,4.0,0.0
7422,69.0,0.0,40.0,1.0,0.0
7423,73.0,15.0,40.0,0.0,0.0
7424,66.0,15.0,30.0,4.0,0.0
7425,65.0,0.0,30.0,4.0,0.0
7426,66.0,0.0,120.0,2.0,0.0
7427,69.0,15.0,40.0,0.0,0.0
7428,66.0,15.0,30.0,4.0,0.0
7429,66.0,0.0,40.0,1.0,0.0
7430,62.0,30.0,30.0,4.0,0.0
7431,70.0,15.0,40.0,1.0,0.0
7432,61.0,15.0,30.0,4.0,0.0
7433,88.0,0.0,120.0,0.0,0.0
7434,59.0,30.0,30.0,4.0,0.0
7435,64.0,0.0,40.0,2.0,0.0
7436,49.0,15.0,40.0,3.0,0.0
7437,79.0,0.0,40.0,1.0,0.0
7438,58.0,15.0,30.0,4.0,0.0
7439,67.0,30.0,30.0,4.0,0.0
7440,88.0,0.0,120.0,1.0,0.0
7441,79.0,0.0,30.0,0.0,0.0
7442,73.0,15.0,30.0,4.0,0.0
7443,64.0,0.0,40.0,2.0,0.0
7444,52.0,15.0,40.0,3.0,0.0
7445,71.0,0.0,30.0,4.0,0.0
7446,76.0,30.0,30.0,0.0,0.0
7447,55.0,15.0,40.0,3.0,0.0
7448,73.0,15.0,30.0,4.0,0.0
7449,64.0,0.0,40.0,2.0,0.0
7450,70.0,0.0,40.0,0.0,0.0
7451,67.0,30.0,30.0,4.0,0.0
7452,64.0,15.0,40.0,2.0,0.0
7453,52.0,0.0,40.0,3.0,0.0
7454,66.0,0.0,30.0,4.0,0.0
7455,85.0,15.0,30.0,1.0,0.0
7456,88.0,0.0,120.0,0.0,0.0
7457,64.0,0.0,30.0,4.0,0.0
7458,82.0,30.0,30.0,1.0,0.0
7459,73.0,0.0,40.0,1.0,0.0
7460,64.0,15.0,40.0,2.0,0.0
7461,49.0,0.0,40.0,3.0,0.0
7462,58.0,15.0,30.0,4.0,0.0
7463,67.0,30.0,30.0,4.0,0.0
7464,46.0,15.0,40.0,3.0,0.0
7465,79.0,15.0,30.0,0.0,0.0
7466,64.0,0.0,40.0,2.0,0.0
7467,88.0,0.0,120.0,1.0,0.0
7468,73.0,0.0,30.0,4.0,0.0
7469,71.0,30.0,30.0,4.0,0.0
7470,76.0,0.0,30.0,0.0,0.0
7471,66.0,15.0,40.0,2.0,0.0
7472,42.0,0.0,40.0,3.0,0.0
7473,70.0,0.0,40.0,0.0,0.0
7474,73.0,15.0,30.0,4.0,0.0
7475,67.0,30.0,30.0,4.0,0.0
7476,54.0,0.0,40.0,3.0,0.0
7477,82.0,0.0,40.0,0.0,0.0
7478,66.0,15.0,30.0,4.0,0.0
7479,85.0,0.0,30.0,1.0,0.0
7480,66.0,15.0,40.0,2.0,0.0
7481,82.0,0.0,30.0,1.0,0.0
7482,64.0,30.0,30.0,4.0,0.0
7483,62.0,0.0,30.0,4.0,0.0
7484,59.0,15.0,30.0,4.0,0.0
7485,83.0,0.0,40.0,0.0,0.0
7486,78.0,15.0,40.0,1.0,0.0
7487,47.0,0.0,120.0,3.0,0.0
7488,66.0,0.0,120.0,2.0,0.0
7489,66.0,30.0,30.0,4.0,0.0
7490,78.0,15.0,40.0,0.0,0.0
7491,71.0,15.0,30.0,4.0,0.0
7492,74.0,0.0,40.0,1.0,0.0
7493,70.0,30.0,30.0,4.0,0.0
7494,71.0,15.0,40.0,1.0,0.0
7495,74.0,0.0,40.0,0.0,0.0
7496,71.0,15.0,30.0,4.0,0.0
7497,59.0,0.0,120.0,2.0,0.0
7498,67.0,30.0,30.0,4.0,0.0
7499,66.0,15.0,30.0,4.0,0.0
7500,74.0,0.0,40.0,1.0,0.0
7501,78.0,15.0,40.0,0.0,0.0
7502,64.0,30.0,30.0,4.0,0.0
7503,78.0,15.0,40.0,1.0,0.0
7504,83.0,0.0,40.0,0.0,0.0
7505,47.0,30.0,120.0,3.0,0.0
7506,62.0,15.0,30.0,4.0,0.0
7507,59.0,0.0,30.0,4.0,0.0
7508,66.0,30.0,30.0,4.0,0.0
7509,74.0,15.0,40.0,1.0,0.0
7510,78.0,0.0,40.0,0.0,0.0
7511,71.0,15.0,30.0,4.0,0.0
7512,70.0,0.0,30.0,4.0,0.0
7513,59.0,30.0,120.0,2.0,0.0
7514,74.0,0.0,40.0,0.0,0.0
7515,71.0,15.0,30.0,4.0,0.0
7516,71.0,15.0,40.0,1.0,0.0
7517,64.0,30.0,30.0,4.0,0.0
7518,78.0,0.0,120.0,0.0,0.0
7519,74.0,15.0,40.0,1.0,0.0
7520,62.0,15.0,30.0,4.0,0.0
7521,61.0,0.0,30.0,4.0,0.0
7522,60.0,15.0,30.0,4.0,0.0
7523,51.0,15.0,40.0,3.0,0.0
7524,81.0,0.0,40.0,1.0,0.0
7525,66.0,0.0,40.0,2.0,0.0
7526,69.0,30.0,30.0,4.0,0.0
7527,54.0,15.0,40.0,3.0,0.0
7528,66.0,0.0,40.0,2.0,0.0
7529,75.0,0.0,30.0,4.0,0.0
7530,69.0,15.0,30.0,0.0,0.0
7531,78.0,0.0,120.0,1.0,0.0
7532,73.0,30.0,30.0,4.0,0.0
7533,66.0,0.0,30.0,0.0,0.0
7534,60.0,0.0,40.0,0.0,0.0
7535,75.0,15.0,30.0,4.0,0.0
7536,66.0,15.0,40.0,2.0,0.0
7537,57.0,0.0,40.0,3.0,0.0
7538,69.0,30.0,30.0,4.0,0.0
7539,54.0,0.0,40.0,3.0,0.0
7540,75.0,15.0,30.0,1.0,0.0
7541,78.0,0.0,120.0,0.0,0.0
7542,66.0,15.0,40.0,2.0,0.0
7543,68.0,0.0,30.0,4.0,0.0
7544,66.0,30.0,30.0,4.0,0.0
7545,72.0,0.0,30.0,1.0,0.0
7546,51.0,15.0,40.0,3.0,0.0
7547,60.0,15.0,30.0,4.0,0.0
7548,60.0,0.0,40.0,1.0,0.0
7549,66.0,0.0,40.0,2.0,0.0
7550,69.0,30.0,30.0,4.0,0.0
7551,75.0,15.0,30.0,4.0,0.0
7552,66.0,15.0,40.0,2.0,0.0
7553,69.0,0.0,30.0,0.0,0.0
7554,78.0,0.0,120.0,1.0,0.0
7555,48.0,0.0,40.0,3.0,0.0
7556,66.0,30.0,30.0,0.0,0.0
7557,73.0,0.0,30.0,4.0,0.0
7558,44.0,15.0,40.0,3.0,0.0
7559,75.0,15.0,30.0,4.0,0.0
7560,60.0,0.0,40.0,0.0,0.0
7561,68.0,0.0,40.0,2.0,0.0
7562,69.0,30.0,30.0,4.0,0.0
7563,75.0,0.0,30.0,1.0,0.0
7564,68.0,15.0,30.0,4.0,0.0
7565,80.0,0.0,120.0,0.0,0.0
7566,56.0,0.0,40.0,3.0,0.0
7567,68.0,15.0,40.0,2.0,0.0
7568,72.0,30.0,30.0,1.0,0.0
7569,66.0,0.0,30.0,4.0,0.0
7570,65.0,15.0,30.0,4.0,0.0
7571,68.0,0.0,40.0,2.0,0.0
7572,61.0,0.0,30.0,4.0,0.0
7573,73.0,0.0,40.0,1.0,0.0
7574,49.0,15.0,40.0,3.0,0.0
7575,74.0,30.0,30.0,4.0,0.0
7576,74.0,15.0,30.0,0.0,0.0
7577,80.0,0.0,30.0,4.0,0.0
7578,68.0,15.0,40.0,2.0,0.0
7579,59.0,0.0,40.0,3.0,0.0
7580,71.0,15.0,120.0,1.0,0.0
7581,71.0,30.0,30.0,0.0,0.0
7582,78.0,0.0,30.0,4.0,0.0
7583,80.0,15.0,30.0,4.0,0.0
7584,71.0,0.0,40.0,2.0,0.0
7585,62.0,0.0,40.0,3.0,0.0
7586,65.0,0.0,40.0,0.0,0.0
7587,74.0,30.0,30.0,4.0,0.0
7588,68.0,15.0,30.0,1.0,0.0
7589,73.0,0.0,30.0,4.0,0.0
7590,80.0,0.0,120.0,0.0,0.0
7591,59.0,0.0,40.0,3.0,0.0
7592,71.0,15.0,40.0,2.0,0.0
7593,71.0,0.0,30.0,4.0,0.0
7594,65.0,30.0,30.0,1.0,0.0
7595,65.0,0.0,30.0,4.0,0.0
7596,61.0,15.0,30.0,4.0,0.0
7597,61.0,15.0,40.0,1.0,0.0
7598,71.0,0.0,40.0,2.0,0.0
7599,56.0,0.0,40.0,3.0,0.0
7600,74.0,30.0,30.0,4.0,0.0
7601,53.0,0.0,40.0,3.0,0.0
7602,74.0,0.0,30.0,0.0,0.0
7603,71.0,15.0,40.0,2.0,0.0
7604,80.0,15.0,30.0,4.0,0.0
7605,71.0,0.0,120.0,1.0,0.0
7606,71.0,30.0,30.0,0.0,0.0
7607,78.0,0.0,30.0,4.0,0.0
7608,80.0,15.0,30.0,4.0,0.0
7609,49.0,0.0,40.0,3.0,0.0
7610,65.0,15.0,40.0,0.0,0.0
7611,73.0,0.0,40.0,2.0,0.0
7612,74.0,30.0,30.0,4.0,0.0
7613,85.0,0.0,40.0,0.0,0.0
7614,73.0,0.0,30.0,4.0,0.0
7615,61.0,15.0,40.0,3.0,0.0
7616,73.0,0.0,40.0,2.0,0.0
7617,68.0,15.0,30.0,1.0,0.0
7618,65.0,30.0,30.0,1.0,0.0
7619,71.0,0.0,30.0,4.0,0.0
7620,85.0,15.0,40.0,0.0,0.0
7621,73.0,0.0,120.0,2.0,0.0
7622,69.0,0.0,30.0,4.0,0.0
7623,66.0,15.0,30.0,4.0,0.0
7624,54.0,30.0,120.0,3.0,0.0
7625,78.0,0.0,40.0,1.0,0.0
7626,73.0,30.0,30.0,4.0,0.0
7627,81.0,0.0,40.0,0.0,0.0
7628,73.0,15.0,40.0,1.0,0.0
7629,78.0,15.0,30.0,4.0,0.0
7630,77.0,0.0,30.0,4.0,0.0
7631,78.0,15.0,40.0,0.0,0.0
7632,69.0,0.0,40.0,1.0,0.0
7633,66.0,30.0,120.0,2.0,0.0
7634,78.0,15.0,30.0,4.0,0.0
7635,71.0,30.0,30.0,4.0,0.0
7636,69.0,15.0,30.0,4.0,0.0
7637,73.0,0.0,40.0,1.0,0.0
7638,81.0,15.0,40.0,0.0,0.0
7639,68.0,0.0,30.0,4.0,0.0
7640,66.0,0.0,30.0,4.0,0.0
7641,52.0,30.0,120.0,3.0,0.0
7642,78.0,0.0,40.0,1.0,0.0
7643,57.0,15.0,30.0,4.0,0.0
7644,85.0,15.0,40.0,0.0,0.0
7645,73.0,30.0,30.0,4.0,0.0
7646,73.0,15.0,40.0,1.0,0.0
7647,81.0,0.0,40.0,0.0,0.0
7648,78.0,15.0,30.0,4.0,0.0
7649,77.0,0.0,30.0,4.0,0.0
7650,64.0,0.0,120.0,2.0,0.0
7651,78.0,15.0,30.0,4.0,0.0
7652,69.0,0.0,40.0,1.0,0.0
7653,78.0,15.0,40.0,0.0,0.0
7654,68.0,30.0,30.0,4.0,0.0
7655,81.0,15.0,40.0,0.0,0.0
7656,66.0,15.0,30.0,4.0,0.0
7657,73.0,0.0,40.0,1.0,0.0
7658,64.0,30.0,30.0,4.0,0.0
7659,86.0,0.0,40.0,0.0,0.0
7660,50.0,30.0,120.0,3.0,0.0
7661,62.0,15.0,30.0,4.0,0.0
7662,50.0,0.0,30.0,4.0,0.0
7663,78.0,15.0,40.0,1.0,0.0
7664,69.0,30.0,30.0,4.0,0.0
7665,78.0,15.0,30.0,4.0,0.0
7666,81.0,15.0,40.0,0.0,0.0
7667,74.0,0.0,40.0,1.0,0.0
7668,77.0,0.0,30.0,4.0,0.0
7669,78.0,15.0,30.0,4.0,0.0
7670,69.0,0.0,40.0,1.0,0.0
7671,78.0,15.0,40.0,0.0,0.0
7672,62.0,30.0,120.0,2.0,0.0
7673,62.0,30.0,30.0,4.0,0.0
7674,78.0,0.0,40.0,1.0,0.0
7675,81.0,15.0,40.0,0.0,0.0
7676,61.0,15.0,30.0,4.0,0.0
7677,59.0,0.0,30.0,4.0,0.0
7678,78.0,15.0,40.0,1.0,0.0
7679,57.0,0.0,30.0,4.0,0.0
7680,49.0,30.0,120.0,3.0,0.0
7681,49.0,15.0,30.0,4.0,0.0
7682,85.0,0.0,40.0,0.0,0.0
7683,73.0,30.0,30.0,4.0,0.0
7684,78.0,15.0,30.0,4.0,0.0
7685,73.0,15.0,40.0,1.0,0.0
7686,81.0,0.0,40.0,0.0,0.0
7687,77.0,0.0,30.0,4.0,0.0
7688,78.0,0.0,40.0,0.0,0.0
7689,61.0,30.0,120.0,2.0,0.0
7690,69.0,15.0,40.0,1.0,0.0
7691,78.0,15.0,30.0,4.0,0.0
7692,73.0,30.0,30.0,4.0,0.0
7693,71.0,15.0,30.0,4.0,0.0
7694,73.0,15.0,40.0,1.0,0.0
7695,81.0,0.0,40.0,0.0,0.0
7696,69.0,0.0,30.0,4.0,0.0
7697,80.0,30.0,60.0,0.0,0.0
7698,59.0,0.0,60.0,4.0,0.0
7699,74.0,30.0,30.0,4.0,0.0
7700,47.0,0.0,120.0,3.0,0.0
7701,62.0,0.0,60.0,1.0,0.0
7702,47.0,0.0,60.0,4.0,0.0
7703,71.0,0.0,30.0,4.0,0.0
7704,69.0,15.0,30.0,4.0,0.0
7705,66.0,0.0,40.0,1.0,0.0
7706,78.0,15.0,40.0,0.0,0.0
7707,68.0,30.0,30.0,4.0,0.0
7708,68.0,0.0,60.0,1.0,0.0
7709,77.0,0.0,60.0,0.0,0.0
7710,59.0,0.0,120.0,2.0,0.0
7711,71.0,30.0,30.0,4.0,0.0
7712,68.0,30.0,30.0,4.0,0.0
7713,69.0,0.0,40.0,1.0,0.0
7714,66.0,15.0,30.0,4.0,0.0
7715,78.0,15.0,40.0,0.0,0.0
7716,65.0,30.0,30.0,4.0,0.0
7717,74.0,0.0,60.0,0.0,0.0
7718,41.0,0.0,120.0,3.0,0.0
7719,68.0,0.0,60.0,1.0,0.0
7720,53.0,0.0,60.0,4.0,0.0
7721,59.0,0.0,60.0,4.0,0.0
7722,68.0,30.0,30.0,4.0,0.0
7723,65.0,30.0,30.0,4.0,0.0
7724,71.0,0.0,40.0,1.0,0.0
7725,80.0,15.0,40.0,0.0,0.0
7726,63.0,15.0,30.0,4.0,0.0
7727,61.0,30.0,30.0,4.0,0.0
7728,65.0,0.0,60.0,1.0,0.0
7729,83.0,0.0,60.0,0.0,0.0
7730,62.0,15.0,30.0,4.0,0.0
7731,56.0,15.0,40.0,2.0,0.0
7732,59.0,30.0,30.0,4.0,0.0
7733,71.0,15.0,40.0,1.0,0.0
7734,74.0,0.0,40.0,0.0,0.0
7735,64.0,0.0,40.0,2.0,0.0
7736,57.0,15.0,30.0,4.0,0.0
7737,56.0,30.0,30.0,4.0,0.0
7738,66.0,30.0,60.0,2.0,0.0
7739,54.0,0.0,120.0,4.0,0.0
7740,69.0,0.0,60.0,1.0,0.0
7741,57.0,30.0,30.0,4.0,0.0
7742,42.0,30.0,120.0,3.0,0.0
7743,73.0,0.0,60.0,0.0,0.0
7744,61.0,0.0,30.0,4.0,0.0
7745,66.0,30.0,30.0,4.0,0.0
7746,65.0,0.0,30.0,4.0,0.0
7747,66.0,30.0,30.0,4.0,0.0
7748,61.0,30.0,30.0,4.0,0.0
7749,42.0,0.0,30.0,4.0,0.0
7750,69.0,30.0,30.0,4.0,0.0
7751,54.0,0.0,30.0,3.0,0.0
7752,56.0,0.0,30.0,3.0,0.0
7753,44.0,0.0,30.0,4.0,0.0
7754,66.0,45.0,30.0,4.0,0.0
7755,73.0,10.0,60.0,4.0,0.0
7756,45.0,0.0,60.0,4.0,0.0
7757,57.0,15.0,40.0,3.0,0.0
7758,59.0,15.0,40.0,3.0,0.0
7759,49.0,10.0,15.0,4.0,0.0
7760,66.0,45.0,60.0,4.0,0.0
7761,47.0,10.0,15.0,4.0,0.0
7762,45.0,15.0,15.0,4.0,0.0
7763,47.0,0.0,30.0,4.0,0.0
7764,61.0,15.0,40.0,3.0,0.0
7765,49.0,45.0,60.0,4.0,0.0
7766,61.0,0.0,60.0,4.0,0.0
7767,65.0,30.0,60.0,4.0,0.0
7768,37.0,0.0,60.0,4.0,0.0
7769,49.0,15.0,40.0,3.0,0.0
7770,66.0,0.0,30.0,4.0,0.0
7771,54.0,0.0,30.0,3.0,0.0
7772,66.0,0.0,30.0,2.0,0.0
7773,54.0,30.0,30.0,4.0,0.0
7774,66.0,0.0,30.0,0.0,0.0
7775,66.0,0.0,30.0,1.0,0.0
7776,68.0,0.0,30.0,1.0,0.0
7777,56.0,0.0,30.0,3.0,0.0
7778,68.0,0.0,30.0,4.0,0.0
7779,56.0,0.0,30.0,4.0,0.0
7780,68.0,0.0,30.0,0.0,0.0
7781,68.0,30.0,30.0,2.0,0.0
7782,69.0,0.0,30.0,4.0,0.0
7783,57.0,0.0,30.0,3.0,0.0
7784,69.0,75.0,30.0,2.0,0.0
7785,69.0,0.0,30.0,1.0,0.0
7786,69.0,0.0,30.0,0.0,0.0
7787,57.0,0.0,30.0,4.0,0.0
7788,56.0,0.0,40.0,3.0,0.0
7789,68.0,0.0,40.0,2.0,0.0
7790,68.0,15.0,40.0,0.0,0.0
7791,56.0,0.0,60.0,4.0,0.0
7792,68.0,45.0,60.0,4.0,0.0
7793,68.0,0.0,40.0,1.0,0.0
7794,66.0,15.0,40.0,2.0,0.0
7795,66.0,0.0,60.0,4.0,0.0
7796,66.0,0.0,40.0,0.0,0.0
7797,66.0,0.0,40.0,1.0,0.0
7798,54.0,45.0,60.0,4.0,0.0
7799,54.0,0.0,40.0,3.0,0.0
7800,61.0,15.0,40.0,3.0,0.0
7801,73.0,105.0,60.0,4.0,0.0
7802,73.0,0.0,40.0,1.0,0.0
7803,73.0,0.0,40.0,0.0,0.0
7804,61.0,0.0,60.0,4.0,0.0
7805,73.0,0.0,40.0,2.0,0.0
7806,78.0,0.0,120.0,2.0,0.0
7807,78.0,14.0,120.0,1.0,0.0
7808,78.0,0.0,120.0,0.0,0.0
7809,78.0,46.0,120.0,4.0,0.0
7810,66.0,0.0,120.0,4.0,0.0
7811,66.0,0.0,120.0,3.0,0.0
7812,73.0,0.0,40.0,0.0,0.0
7813,61.0,46.0,60.0,4.0,0.0
7814,73.0,0.0,40.0,2.0,0.0
7815,73.0,14.0,40.0,1.0,0.0
7816,73.0,0.0,60.0,4.0,0.0
7817,61.0,0.0,40.0,3.0,0.0
7818,74.0,0.0,40.0,0.0,0.0
7819,74.0,0.0,60.0,4.0,0.0
7820,74.0,0.0,40.0,1.0,0.0
7821,74.0,0.0,40.0,2.0,0.0
7822,62.0,30.0,60.0,4.0,0.0
7823,62.0,15.0,40.0,3.0,0.0
7824,71.0,0.0,30.0,1.0,0.0
7825,59.0,0.0,30.0,3.0,0.0
7826,71.0,0.0,30.0,2.0,0.0
7827,59.0,30.0,30.0,4.0,0.0
7828,71.0,0.0,30.0,0.0,0.0
7829,71.0,0.0,30.0,4.0,0.0
7830,68.0,45.0,30.0,0.0,0.0
7831,68.0,0.0,30.0,1.0,0.0
7832,56.0,0.0,30.0,3.0,0.0
7833,68.0,0.0,30.0,2.0,0.0
7834,56.0,0.0,30.0,4.0,0.0
7835,68.0,0.0,30.0,4.0,0.0
7836,73.0,0.0,40.0,2.0,0.0
7837,73.0,0.0,40.0,1.0,0.0
7838,61.0,15.0,40.0,3.0,0.0
7839,73.0,0.0,40.0,0.0,0.0
7840,73.0,0.0,60.0,4.0,0.0
7841,61.0,30.0,60.0,4.0,0.0
7842,57.0,0.0,30.0,4.0,0.0
7843,69.0,0.0,30.0,1.0,0.0
7844,57.0,30.0,30.0,3.0,0.0
7845,69.0,0.0,30.0,2.0,0.0
7846,69.0,0.0,30.0,0.0,0.0
7847,69.0,0.0,30.0,4.0,0.0
7848,66.0,45.0,30.0,2.0,0.0
7849,54.0,0.0,30.0,3.0,0.0
7850,66.0,0.0,30.0,1.0,0.0
7851,54.0,0.0,30.0,4.0,0.0
7852,66.0,0.0,30.0,0.0,0.0
7853,66.0,0.0,30.0,4.0,0.0
7854,71.0,0.0,40.0,0.0,0.0
7855,71.0,0.0,40.0,2.0,0.0
7856,71.0,0.0,40.0,1.0,0.0
7857,59.0,0.0,60.0,4.0,0.0
7858,71.0,30.0,60.0,4.0,0.0
7859,59.0,15.0,40.0,3.0,0.0
7860,68.0,0.0,30.0,2.0,0.0
7861,56.0,0.0,30.0,3.0,0.0
7862,68.0,0.0,30.0,0.0,0.0
7863,68.0,30.0,30.0,4.0,0.0
7864,68.0,0.0,30.0,1.0,0.0
7865,56.0,0.0,30.0,4.0,0.0
7866,65.0,0.0,30.0,2.0,0.0
7867,65.0,0.0,30.0,4.0,0.0
7868,53.0,0.0,30.0,3.0,0.0
7869,65.0,0.0,30.0,0.0,0.0
7870,65.0,0.0,30.0,1.0,0.0
7871,53.0,45.0,30.0,4.0,0.0
7872,49.0,0.0,40.0,3.0,0.0
7873,49.0,0.0,60.0,4.0,0.0
7874,61.0,105.0,60.0,4.0,0.0
7875,61.0,0.0,40.0,0.0,0.0
7876,61.0,15.0,40.0,1.0,0.0
7877,61.0,0.0,40.0,2.0,0.0
7878,74.0,0.0,120.0,0.0,0.0
7879,62.0,0.0,120.0,3.0,0.0
7880,74.0,31.0,120.0,4.0,0.0
7881,62.0,0.0,120.0,4.0,0.0
7882,74.0,14.0,120.0,2.0,0.0
7883,74.0,0.0,120.0,1.0,0.0
7884,71.0,0.0,30.0,2.0,0.0
7885,59.0,0.0,30.0,4.0,0.0
7886,71.0,0.0,30.0,4.0,0.0
7887,59.0,0.0,30.0,3.0,0.0
7888,71.0,0.0,30.0,1.0,0.0
7889,71.0,30.0,30.0,0.0,0.0
7890,68.0,45.0,30.0,2.0,0.0
7891,56.0,0.0,30.0,4.0,0.0
7892,68.0,0.0,30.0,1.0,0.0
7893,56.0,0.0,30.0,3.0,0.0
7894,68.0,0.0,30.0,0.0,0.0
7895,68.0,0.0,30.0,4.0,0.0
7896,61.0,0.0,60.0,4.0,0.0
7897,49.0,119.0,60.0,4.0,0.0
7898,61.0,0.0,40.0,2.0,0.0
7899,61.0,0.0,40.0,1.0,0.0
7900,61.0,0.0,40.0,0.0,0.0
7901,49.0,15.0,40.0,3.0,0.0
7902,77.0,31.0,120.0,1.0,0.0
7903,65.0,0.0,120.0,3.0,0.0
7904,77.0,0.0,120.0,4.0,0.0
7905,65.0,0.0,120.0,4.0,0.0
7906,77.0,0.0,120.0,0.0,0.0
7907,77.0,0.0,120.0,2.0,0.0
7908,62.0,0.0,30.0,3.0,0.0
7909,74.0,30.0,30.0,1.0,0.0
7910,74.0,0.0,30.0,4.0,0.0
7911,62.0,0.0,30.0,4.0,0.0
7912,74.0,0.0,30.0,0.0,0.0
7913,74.0,0.0,30.0,2.0,0.0
7914,71.0,0.0,30.0,2.0,0.0
7915,71.0,0.0,30.0,0.0,0.0
7916,71.0,0.0,30.0,4.0,0.0
7917,59.0,45.0,30.0,4.0,0.0
7918,59.0,0.0,30.0,3.0,0.0
7919,71.0,0.0,30.0,1.0,0.0
7920,61.0,0.0,40.0,1.0,0.0
7921,61.0,0.0,40.0,0.0,0.0
7922,61.0,15.0,40.0,2.0,0.0
7923,49.0,105.0,60.0,4.0,0.0
7924,61.0,0.0,60.0,4.0,0.0
7925,49.0,0.0,40.0,3.0,0.0
7926,68.0,31.0,120.0,4.0,0.0
7927,80.0,0.0,120.0,4.0,0.0
7928,80.0,0.0,120.0,0.0,0.0
7929,68.0,0.0,120.0,3.0,0.0
7930,80.0,14.0,120.0,1.0,0.0
7931,80.0,0.0,120.0,2.0,0.0
7932,77.0,30.0,30.0,0.0,0.0
7933,77.0,0.0,30.0,2.0,0.0
7934,77.0,0.0,30.0,4.0,0.0
7935,77.0,0.0,30.0,1.0,0.0
7936,65.0,0.0,30.0,4.0,0.0
7937,65.0,0.0,30.0,3.0,0.0
7938,61.0,0.0,30.0,3.0,0.0
7939,73.0,30.0,30.0,0.0,0.0
7940,73.0,0.0,30.0,4.0,0.0
7941,61.0,0.0,30.0,4.0,0.0
7942,73.0,0.0,30.0,1.0,0.0
7943,73.0,0.0,30.0,2.0,0.0
7944,62.0,30.0,30.0,3.0,0.0
7945,62.0,0.0,30.0,4.0,0.0
7946,74.0,0.0,30.0,2.0,0.0
7947,74.0,0.0,30.0,1.0,0.0
7948,74.0,0.0,30.0,0.0,0.0
7949,74.0,0.0,30.0,4.0,0.0
7950,71.0,30.0,30.0,4.0,0.0
7951,59.0,0.0,30.0,4.0,0.0
7952,71.0,0.0,30.0,0.0,0.0
7953,71.0,0.0,30.0,2.0,0.0
7954,71.0,0.0,30.0,1.0,0.0
7955,59.0,0.0,30.0,3.0,0.0
7956,61.0,30.0,30.0,4.0,0.0
7957,73.0,0.0,30.0,2.0,0.0
7958,61.0,0.0,30.0,3.0,0.0
7959,73.0,0.0,30.0,1.0,0.0
7960,73.0,0.0,30.0,0.0,0.0
7961,73.0,0.0,30.0,4.0,0.0
7962,57.0,0.0,30.0,3.0,0.0
7963,69.0,30.0,30.0,2.0,0.0
7964,69.0,0.0,30.0,1.0,0.0
7965,69.0,0.0,30.0,0.0,0.0
7966,57.0,0.0,30.0,4.0,0.0
7967,69.0,0.0,30.0,4.0,0.0
7968,71.0,0.0,30.0,4.0,0.0
7969,59.0,30.0,30.0,4.0,0.0
7970,71.0,0.0,30.0,1.0,0.0
7971,71.0,0.0,30.0,0.0,0.0
7972,71.0,0.0,30.0,2.0,0.0
7973,59.0,0.0,30.0,3.0,0.0
7974,68.0,0.0,30.0,2.0,0.0
7975,68.0,0.0,30.0,0.0,0.0
7976,68.0,0.0,30.0,1.0,0.0
7977,68.0,30.0,30.0,4.0,0.0
7978,56.0,0.0,30.0,3.0,0.0
7979,56.0,0.0,30.0,4.0,0.0
7980,69.0,0.0,30.0,1.0,0.0
7981,57.0,0.0,30.0,4.0,0.0
7982,57.0,0.0,30.0,3.0,0.0
7983,69.0,30.0,30.0,2.0,0.0
7984,69.0,0.0,30.0,0.0,0.0
7985,69.0,0.0,30.0,4.0,0.0
7986,54.0,0.0,30.0,3.0,0.0
7987,66.0,0.0,30.0,0.0,0.0
7988,54.0,0.0,30.0,4.0,0.0
7989,66.0,0.0,30.0,1.0,0.0
7990,66.0,30.0,30.0,4.0,0.0
7991,66.0,0.0,30.0,2.0,0.0
7992,68.0,0.0,30.0,0.0,0.0
7993,68.0,30.0,30.0,1.0,0.0
7994,56.0,0.0,30.0,3.0,0.0
7995,68.0,0.0,30.0,2.0,0.0
7996,68.0,0.0,30.0,4.0,0.0
7997,56.0,0.0,30.0,4.0,0.0
7998,65.0,0.0,30.0,0.0,0.0
7999,65.0,0.0,30.0,2.0,0.0
8000,65.0,0.0,30.0,4.0,0.0
8001,53.0,0.0,30.0,3.0,0.0
8002,53.0,0.0,30.0,4.0,0.0
8003,65.0,30.0,30.0,1.0,0.0
8004,54.0,0.0,30.0,3.0,0.0
8005,66.0,0.0,30.0,2.0,0.0
8006,54.0,0.0,30.0,4.0,0.0
8007,66.0,0.0,30.0,0.0,0.0
8008,66.0,0.0,30.0,4.0,0.0
8009,66.0,30.0,30.0,1.0,0.0
8010,63.0,0.0,30.0,2.0,0.0
8011,51.0,30.0,30.0,3.0,0.0
8012,63.0,0.0,30.0,4.0,0.0
8013,63.0,0.0,30.0,0.0,0.0
8014,51.0,0.0,30.0,4.0,0.0
8015,63.0,0.0,30.0,1.0,0.0
8016,65.0,0.0,30.0,1.0,0.0
8017,65.0,0.0,30.0,4.0,0.0
8018,65.0,30.0,30.0,0.0,0.0
8019,65.0,0.0,30.0,2.0,0.0
8020,53.0,0.0,30.0,4.0,0.0
8021,53.0,0.0,30.0,3.0,0.0
8022,49.0,30.0,30.0,4.0,0.0
8023,61.0,0.0,30.0,2.0,0.0
8024,49.0,0.0,30.0,3.0,0.0
8025,61.0,0.0,30.0,1.0,0.0
8026,61.0,0.0,30.0,4.0,0.0
8027,61.0,0.0,30.0,0.0,0.0
8028,63.0,30.0,30.0,1.0,0.0
8029,63.0,0.0,30.0,2.0,0.0
8030,63.0,0.0,30.0,0.0,0.0
8031,51.0,0.0,30.0,3.0,0.0
8032,51.0,0.0,30.0,4.0,0.0
8033,63.0,0.0,30.0,4.0,0.0
8034,65.0,0.0,30.0,4.0,0.0
8035,65.0,0.0,30.0,1.0,0.0
8036,65.0,30.0,30.0,0.0,0.0
8037,65.0,0.0,30.0,2.0,0.0
8038,53.0,0.0,30.0,4.0,0.0
8039,53.0,0.0,30.0,3.0,0.0
8040,54.0,0.0,30.0,4.0,0.0
8041,66.0,30.0,30.0,4.0,0.0
8042,66.0,0.0,30.0,1.0,0.0
8043,66.0,0.0,30.0,2.0,0.0
8044,54.0,0.0,30.0,3.0,0.0
8045,66.0,0.0,30.0,0.0,0.0
8046,68.0,0.0,30.0,1.0,0.0
8047,68.0,30.0,30.0,0.0,0.0
8048,68.0,0.0,30.0,4.0,0.0
8049,56.0,0.0,30.0,4.0,0.0
8050,68.0,0.0,30.0,2.0,0.0
8051,56.0,0.0,30.0,3.0,0.0
8052,69.0,0.0,30.0,1.0,0.0
8053,69.0,0.0,30.0,0.0,0.0
8054,57.0,0.0,30.0,3.0,0.0
8055,69.0,0.0,30.0,2.0,0.0
8056,57.0,30.0,30.0,4.0,0.0
8057,69.0,0.0,30.0,4.0,0.0
8058,71.0,0.0,30.0,1.0,0.0
8059,71.0,0.0,30.0,0.0,0.0
8060,71.0,0.0,30.0,4.0,0.0
8061,59.0,0.0,30.0,4.0,0.0
8062,71.0,0.0,30.0,2.0,0.0
8063,59.0,30.0,30.0,3.0,0.0
8064,73.0,30.0,30.0,0.0,0.0
8065,61.0,0.0,30.0,3.0,0.0
8066,73.0,0.0,30.0,1.0,0.0
8067,73.0,0.0,30.0,2.0,0.0
8068,73.0,0.0,30.0,4.0,0.0
8069,61.0,0.0,30.0,4.0,0.0
8070,62.0,30.0,30.0,3.0,0.0
8071,74.0,0.0,30.0,2.0,0.0
8072,74.0,0.0,30.0,4.0,0.0
8073,62.0,0.0,30.0,4.0,0.0
8074,74.0,0.0,30.0,0.0,0.0
8075,74.0,0.0,30.0,1.0,0.0
8076,64.0,0.0,30.0,4.0,0.0
8077,76.0,0.0,30.0,4.0,0.0
8078,76.0,0.0,30.0,2.0,0.0
8079,76.0,0.0,30.0,0.0,0.0
8080,76.0,0.0,30.0,1.0,0.0
8081,64.0,60.0,30.0,3.0,0.0
8082,64.0,0.0,30.0,4.0,0.0
8083,76.0,0.0,30.0,4.0,0.0
8084,76.0,0.0,30.0,1.0,0.0
8085,64.0,0.0,30.0,3.0,0.0
8086,76.0,0.0,30.0,2.0,0.0
8087,76.0,30.0,30.0,0.0,0.0
8088,78.0,0.0,30.0,4.0,0.0
8089,78.0,0.0,30.0,2.0,0.0
8090,66.0,0.0,30.0,3.0,0.0
8091,78.0,30.0,30.0,1.0,0.0
8092,66.0,0.0,30.0,4.0,0.0
8093,78.0,0.0,30.0,0.0,0.0
8094,79.0,75.0,30.0,4.0,0.0
8095,67.0,0.0,30.0,4.0,0.0
8096,79.0,0.0,30.0,2.0,0.0
8097,67.0,0.0,30.0,3.0,0.0
8098,79.0,0.0,30.0,0.0,0.0
8099,79.0,0.0,30.0,1.0,0.0
8100,70.0,0.0,40.0,0.0,0.0
8101,58.0,0.0,40.0,4.0,0.0
8102,70.0,0.0,40.0,1.0,0.0
8103,70.0,0.0,40.0,4.0,0.0
8104,58.0,60.0,40.0,3.0,0.0
8105,70.0,0.0,40.0,2.0,0.0
8106,59.0,15.0,40.0,4.0,0.0
8107,71.0,0.0,40.0,4.0,0.0
8108,59.0,0.0,40.0,3.0,0.0
8109,71.0,0.0,40.0,2.0,0.0
8110,71.0,0.0,60.0,0.0,0.0
8111,71.0,45.0,60.0,1.0,0.0
8112,65.0,0.0,40.0,4.0,0.0
8113,65.0,0.0,40.0,0.0,0.0
8114,53.0,0.0,40.0,4.0,0.0
8115,65.0,0.0,40.0,1.0,0.0
8116,65.0,60.0,40.0,2.0,0.0
8117,53.0,0.0,40.0,3.0,0.0
8118,66.0,0.0,40.0,2.0,0.0
8119,66.0,0.0,40.0,1.0,0.0
8120,54.0,60.0,40.0,4.0,0.0
8121,66.0,0.0,40.0,4.0,0.0
8122,66.0,0.0,40.0,0.0,0.0
8123,54.0,0.0,40.0,3.0,0.0
8124,60.0,120.0,40.0,1.0,0.0
8125,48.0,0.0,40.0,4.0,0.0
8126,60.0,0.0,40.0,4.0,0.0
8127,60.0,0.0,40.0,0.0,0.0
8128,60.0,0.0,40.0,2.0,0.0
8129,48.0,0.0,40.0,3.0,0.0
8130,71.0,0.0,40.0,4.0,0.0
8131,61.0,0.0,40.0,4.0,0.0
8132,61.0,195.0,40.0,0.0,0.0
8133,68.0,0.0,40.0,4.0,0.0
8134,61.0,0.0,40.0,1.0,0.0
8135,49.0,0.0,40.0,3.0,0.0
8136,73.0,0.0,40.0,4.0,0.0
8137,77.0,0.0,40.0,4.0,0.0
8138,49.0,0.0,40.0,4.0,0.0
8139,61.0,0.0,40.0,2.0,0.0
8140,42.0,0.0,120.0,3.0,0.0
8141,69.0,0.0,120.0,4.0,0.0
8142,66.0,0.0,120.0,0.0,0.0
8143,78.0,0.0,120.0,4.0,0.0
8144,42.0,0.0,120.0,4.0,0.0
8145,54.0,0.0,120.0,4.0,0.0
8146,73.0,0.0,120.0,4.0,0.0
8147,54.0,0.0,120.0,2.0,0.0
8148,66.0,0.0,120.0,4.0,0.0
8149,66.0,1018.0,120.0,1.0,0.0
8150,59.0,2.0,60.0,4.0,0.0
8151,71.0,0.0,15.0,0.0,0.0
8152,59.0,51.0,15.0,3.0,0.0
8153,59.0,0.0,60.0,4.0,0.0
8154,71.0,0.0,15.0,1.0,0.0
8155,71.0,0.0,15.0,2.0,0.0
8156,62.0,2.0,60.0,4.0,0.0
8157,62.0,0.0,60.0,3.0,0.0
8158,74.0,51.0,60.0,2.0,0.0
8159,74.0,0.0,60.0,1.0,0.0
8160,74.0,0.0,15.0,0.0,0.0
8161,74.0,67.0,60.0,1.0,0.0
8162,62.0,0.0,60.0,4.0,0.0
8163,62.0,0.0,60.0,3.0,0.0
8164,74.0,0.0,60.0,2.0,0.0
8165,66.0,2.0,60.0,4.0,0.0
8166,78.0,0.0,60.0,2.0,0.0
8167,78.0,0.0,15.0,0.0,0.0
8168,66.0,0.0,15.0,3.0,0.0
8169,78.0,51.0,15.0,1.0,0.0
8170,78.0,67.0,60.0,2.0,0.0
8171,66.0,0.0,60.0,4.0,0.0
8172,55.0,0.0,60.0,3.0,0.0
8173,55.0,2.0,60.0,4.0,0.0
8174,67.0,58.0,60.0,2.0,0.0
8175,67.0,0.0,60.0,0.0,0.0
8176,67.0,0.0,60.0,1.0,0.0
8177,54.0,2.0,60.0,4.0,0.0
8178,54.0,0.0,15.0,3.0,0.0
8179,54.0,2.0,60.0,4.0,0.0
8180,66.0,0.0,15.0,1.0,0.0
8181,66.0,0.0,15.0,2.0,0.0
8182,66.0,58.0,15.0,0.0,0.0
8183,55.0,0.0,60.0,3.0,0.0
8184,67.0,180.0,60.0,1.0,0.0
8185,67.0,0.0,60.0,0.0,0.0
8186,67.0,0.0,60.0,2.0,0.0
8187,55.0,0.0,60.0,4.0,0.0
8188,73.0,0.0,60.0,1.0,0.0
8189,73.0,0.0,60.0,2.0,0.0
8190,73.0,0.0,60.0,0.0,0.0
8191,61.0,53.0,60.0,3.0,0.0
8192,61.0,0.0,60.0,4.0,0.0
8193,73.0,0.0,60.0,0.0,0.0
8194,73.0,0.0,60.0,1.0,0.0
8195,61.0,67.0,60.0,4.0,0.0
8196,61.0,0.0,60.0,3.0,0.0
8197,73.0,0.0,60.0,2.0,0.0
8198,64.0,0.0,60.0,3.0,0.0
8199,76.0,53.0,60.0,2.0,0.0
8200,64.0,0.0,60.0,4.0,0.0
8201,76.0,0.0,60.0,0.0,0.0
8202,76.0,0.0,60.0,1.0,0.0
8203,64.0,0.0,60.0,4.0,0.0
8204,76.0,0.0,60.0,1.0,0.0
8205,64.0,0.0,60.0,3.0,0.0
8206,76.0,67.0,60.0,0.0,0.0
8207,76.0,0.0,60.0,2.0,0.0
8208,79.0,53.0,60.0,0.0,0.0
8209,79.0,0.0,60.0,1.0,0.0
8210,79.0,0.0,60.0,2.0,0.0
8211,67.0,0.0,60.0,4.0,0.0
8212,67.0,0.0,60.0,3.0,0.0
8213,67.0,0.0,60.0,3.0,0.0
8214,79.0,0.0,60.0,1.0,0.0
8215,79.0,0.0,60.0,0.0,0.0
8216,67.0,67.0,60.0,4.0,0.0
8217,79.0,0.0,60.0,2.0,0.0
8218,70.0,0.0,60.0,0.0,0.0
8219,58.0,0.0,60.0,4.0,0.0
8220,70.0,0.0,60.0,2.0,0.0
8221,70.0,0.0,60.0,1.0,0.0
8222,58.0,53.0,60.0,3.0,0.0
8223,58.0,0.0,60.0,3.0,0.0
8224,70.0,0.0,60.0,1.0,0.0
8225,70.0,0.0,60.0,0.0,0.0
8226,70.0,0.0,60.0,2.0,0.0
8227,58.0,67.0,60.0,4.0,0.0
8228,61.0,0.0,60.0,3.0,0.0
8229,73.0,53.0,60.0,2.0,0.0
8230,73.0,0.0,60.0,0.0,0.0
8231,61.0,0.0,60.0,4.0,0.0
8232,73.0,0.0,60.0,1.0,0.0
8233,61.0,0.0,60.0,3.0,0.0
8234,73.0,67.0,60.0,1.0,0.0
8235,61.0,0.0,60.0,4.0,0.0
8236,73.0,0.0,60.0,0.0,0.0
8237,73.0,0.0,60.0,2.0,0.0
8238,64.0,0.0,60.0,4.0,0.0
8239,64.0,53.0,60.0,3.0,0.0
8240,76.0,0.0,60.0,1.0,0.0
8241,76.0,0.0,60.0,2.0,0.0
8242,76.0,0.0,60.0,0.0,0.0
8243,76.0,0.0,60.0,2.0,0.0
8244,64.0,0.0,60.0,4.0,0.0
8245,64.0,67.0,60.0,3.0,0.0
8246,76.0,0.0,60.0,1.0,0.0
8247,76.0,0.0,60.0,0.0,0.0
8248,66.0,0.0,60.0,0.0,0.0
8249,66.0,0.0,60.0,2.0,0.0
8250,54.0,0.0,60.0,4.0,0.0
8251,54.0,53.0,60.0,3.0,0.0
8252,66.0,0.0,60.0,1.0,0.0
8253,54.0,0.0,60.0,4.0,0.0
8254,66.0,0.0,60.0,1.0,0.0
8255,54.0,67.0,60.0,3.0,0.0
8256,66.0,0.0,60.0,2.0,0.0
8257,66.0,0.0,60.0,0.0,0.0
8258,70.0,0.0,60.0,2.0,0.0
8259,70.0,0.0,60.0,0.0,0.0
8260,58.0,53.0,60.0,4.0,0.0
8261,70.0,0.0,60.0,1.0,0.0
8262,58.0,0.0,60.0,3.0,0.0
8263,58.0,0.0,60.0,4.0,0.0
8264,70.0,0.0,60.0,2.0,0.0
8265,70.0,0.0,60.0,1.0,0.0
8266,70.0,67.0,60.0,0.0,0.0
8267,58.0,0.0,60.0,3.0,0.0
8268,73.0,0.0,60.0,2.0,0.0
8269,61.0,53.0,60.0,3.0,0.0
8270,73.0,0.0,60.0,0.0,0.0
8271,61.0,0.0,60.0,4.0,0.0
8272,73.0,0.0,60.0,1.0,0.0
8273,61.0,0.0,60.0,4.0,0.0
8274,73.0,0.0,60.0,0.0,0.0
8275,73.0,67.0,60.0,2.0,0.0
8276,73.0,0.0,60.0,1.0,0.0
8277,61.0,0.0,60.0,3.0,0.0
8278,50.0,0.0,60.0,4.0,0.0
8279,62.0,58.0,60.0,0.0,0.0
8280,50.0,0.0,60.0,3.0,0.0
8281,62.0,2.0,60.0,2.0,0.0
8282,62.0,0.0,60.0,1.0,0.0
8283,61.0,2.0,60.0,2.0,0.0
8284,61.0,0.0,60.0,1.0,0.0
8285,49.0,0.0,60.0,4.0,0.0
8286,61.0,51.0,60.0,0.0,0.0
8287,49.0,0.0,60.0,3.0,0.0
8288,50.0,0.0,60.0,4.0,0.0
8289,50.0,0.0,60.0,3.0,0.0
8290,62.0,52.0,60.0,1.0,0.0
8291,62.0,0.0,60.0,2.0,0.0
8292,62.0,0.0,60.0,0.0,0.0
8293,74.0,60.0,60.0,1.0,0.0
8294,74.0,0.0,60.0,2.0,0.0
8295,74.0,0.0,60.0,0.0,0.0
8296,62.0,0.0,60.0,3.0,0.0
8297,62.0,15.0,40.0,4.0,0.0
8298,70.0,53.0,60.0,0.0,0.0
8299,70.0,0.0,60.0,1.0,0.0
8300,58.0,0.0,60.0,3.0,0.0
8301,58.0,0.0,60.0,4.0,0.0
8302,70.0,0.0,60.0,2.0,0.0
8303,71.0,0.0,60.0,2.0,0.0
8304,59.0,0.0,60.0,3.0,0.0
8305,71.0,0.0,60.0,0.0,0.0
8306,71.0,0.0,60.0,1.0,0.0
8307,59.0,67.0,60.0,4.0,0.0
8308,64.0,0.0,60.0,1.0,0.0
8309,52.0,60.0,60.0,3.0,0.0
8310,64.0,0.0,60.0,2.0,0.0
8311,64.0,0.0,60.0,0.0,0.0
8312,52.0,0.0,60.0,4.0,0.0
8313,62.0,53.0,60.0,0.0,0.0
8314,50.0,0.0,60.0,3.0,0.0
8315,50.0,0.0,60.0,4.0,0.0
8316,62.0,0.0,60.0,1.0,0.0
8317,62.0,0.0,60.0,2.0,0.0
8318,52.0,52.0,60.0,3.0,0.0
8319,52.0,0.0,60.0,4.0,0.0
8320,64.0,0.0,60.0,0.0,0.0
8321,64.0,0.0,60.0,1.0,0.0
8322,64.0,0.0,60.0,2.0,0.0
8323,74.0,60.0,60.0,0.0,0.0
8324,62.0,15.0,40.0,4.0,0.0
8325,74.0,0.0,60.0,1.0,0.0
8326,74.0,0.0,60.0,2.0,0.0
8327,62.0,0.0,60.0,3.0,0.0
8328,58.0,53.0,60.0,4.0,0.0
8329,70.0,0.0,60.0,0.0,0.0
8330,70.0,0.0,60.0,1.0,0.0
8331,58.0,0.0,60.0,3.0,0.0
8332,70.0,0.0,60.0,2.0,0.0
8333,59.0,0.0,60.0,4.0,0.0
8334,71.0,0.0,60.0,2.0,0.0
8335,71.0,7.0,60.0,0.0,0.0
8336,71.0,0.0,60.0,1.0,0.0
8337,59.0,60.0,60.0,3.0,0.0
8338,66.0,0.0,60.0,2.0,0.0
8339,66.0,0.0,60.0,0.0,0.0
8340,54.0,0.0,60.0,4.0,0.0
8341,66.0,0.0,60.0,1.0,0.0
8342,54.0,60.0,60.0,3.0,0.0
8343,64.0,0.0,60.0,2.0,0.0
8344,64.0,0.0,60.0,1.0,0.0
8345,52.0,0.0,60.0,4.0,0.0
8346,52.0,0.0,60.0,3.0,0.0
8347,64.0,53.0,60.0,0.0,0.0
8348,66.0,7.0,60.0,0.0,0.0
8349,54.0,0.0,60.0,3.0,0.0
8350,54.0,60.0,60.0,4.0,0.0
8351,66.0,0.0,60.0,1.0,0.0
8352,66.0,0.0,60.0,2.0,0.0
8353,74.0,0.0,60.0,2.0,0.0
8354,62.0,0.0,60.0,4.0,0.0
8355,74.0,0.0,60.0,1.0,0.0
8356,62.0,60.0,60.0,3.0,0.0
8357,74.0,0.0,60.0,0.0,0.0
8358,58.0,60.0,60.0,4.0,0.0
8359,70.0,0.0,60.0,1.0,0.0
8360,58.0,0.0,60.0,3.0,0.0
8361,70.0,0.0,60.0,0.0,0.0
8362,70.0,0.0,60.0,2.0,0.0
8363,59.0,120.0,60.0,3.0,0.0
8364,71.0,0.0,60.0,0.0,0.0
8365,59.0,0.0,60.0,4.0,0.0
8366,71.0,0.0,60.0,2.0,0.0
8367,71.0,0.0,60.0,1.0,0.0
8368,67.0,0.0,120.0,0.0,0.0
8369,55.0,120.0,120.0,4.0,0.0
8370,67.0,0.0,120.0,2.0,0.0
8371,67.0,0.0,120.0,1.0,0.0
8372,55.0,0.0,120.0,3.0,0.0
8373,59.0,0.0,60.0,3.0,0.0
8374,59.0,0.0,60.0,4.0,0.0
8375,71.0,0.0,60.0,2.0,0.0
8376,71.0,0.0,60.0,0.0,0.0
8377,71.0,60.0,60.0,1.0,0.0
8378,72.0,0.0,60.0,2.0,0.0
8379,72.0,0.0,60.0,0.0,0.0
8380,72.0,0.0,60.0,1.0,0.0
8381,60.0,60.0,60.0,4.0,0.0
8382,60.0,0.0,60.0,3.0,0.0
8383,57.0,0.0,60.0,4.0,0.0
8384,69.0,0.0,60.0,2.0,0.0
8385,69.0,0.0,60.0,0.0,0.0
8386,57.0,0.0,60.0,3.0,0.0
8387,69.0,60.0,60.0,1.0,0.0
8388,63.0,0.0,60.0,2.0,0.0
8389,51.0,0.0,60.0,4.0,0.0
8390,63.0,0.0,60.0,0.0,0.0
8391,51.0,53.0,60.0,3.0,0.0
8392,63.0,0.0,60.0,1.0,0.0
8393,63.0,0.0,60.0,2.0,0.0
8394,63.0,0.0,60.0,1.0,0.0
8395,63.0,0.0,60.0,0.0,0.0
8396,51.0,7.0,60.0,3.0,0.0
8397,51.0,60.0,60.0,4.0,0.0
8398,66.0,0.0,60.0,0.0,0.0
8399,66.0,0.0,60.0,2.0,0.0
8400,54.0,53.0,60.0,3.0,0.0
8401,54.0,0.0,60.0,4.0,0.0
8402,66.0,0.0,60.0,1.0,0.0
8403,66.0,7.0,60.0,1.0,0.0
8404,54.0,0.0,60.0,3.0,0.0
8405,66.0,0.0,60.0,2.0,0.0
8406,54.0,60.0,60.0,4.0,0.0
8407,66.0,0.0,60.0,0.0,0.0
8408,69.0,53.0,60.0,0.0,0.0
8409,69.0,0.0,60.0,2.0,0.0
8410,57.0,0.0,60.0,3.0,0.0
8411,57.0,0.0,60.0,4.0,0.0
8412,69.0,0.0,60.0,1.0,0.0
8413,69.0,0.0,60.0,1.0,0.0
8414,69.0,0.0,60.0,2.0,0.0
8415,57.0,120.0,60.0,4.0,0.0
8416,69.0,0.0,60.0,0.0,0.0
8417,57.0,7.0,60.0,3.0,0.0
8418,60.0,0.0,120.0,2.0,0.0
8419,60.0,0.0,120.0,0.0,0.0
8420,48.0,120.0,120.0,4.0,0.0
8421,60.0,0.0,120.0,1.0,0.0
8422,48.0,0.0,120.0,3.0,0.0
8423,54.0,0.0,60.0,4.0,0.0
8424,54.0,60.0,60.0,3.0,0.0
8425,66.0,0.0,60.0,1.0,0.0
8426,66.0,0.0,60.0,0.0,0.0
8427,66.0,0.0,60.0,2.0,0.0
8428,67.0,0.0,60.0,1.0,0.0
8429,67.0,0.0,60.0,0.0,0.0
8430,55.0,0.0,60.0,3.0,0.0
8431,55.0,60.0,60.0,4.0,0.0
8432,67.0,0.0,60.0,2.0,0.0
8433,52.0,0.0,60.0,4.0,0.0
8434,64.0,60.0,60.0,1.0,0.0
8435,64.0,0.0,60.0,0.0,0.0
8436,64.0,0.0,60.0,2.0,0.0
8437,52.0,0.0,60.0,3.0,0.0
8438,58.0,0.0,60.0,3.0,0.0
8439,70.0,60.0,60.0,0.0,0.0
8440,58.0,0.0,60.0,4.0,0.0
8441,70.0,0.0,60.0,1.0,0.0
8442,70.0,0.0,60.0,2.0,0.0
8443,71.0,0.0,60.0,2.0,0.0
8444,71.0,0.0,60.0,1.0,0.0
8445,59.0,0.0,60.0,4.0,0.0
8446,59.0,0.0,60.0,3.0,0.0
8447,71.0,120.0,60.0,0.0,0.0
8448,54.0,0.0,120.0,4.0,0.0
8449,66.0,0.0,120.0,1.0,0.0
8450,66.0,0.0,120.0,0.0,0.0
8451,66.0,0.0,120.0,2.0,0.0
8452,54.0,120.0,120.0,3.0,0.0
8453,42.0,0.0,120.0,3.0,0.0
8454,42.0,0.0,120.0,4.0,0.0
8455,66.0,120.0,120.0,1.0,0.0
8456,66.0,0.0,120.0,0.0,0.0
8457,54.0,0.0,120.0,2.0,0.0
8458,59.0,0.0,120.0,2.0,0.0
8459,47.0,0.0,120.0,4.0,0.0
8460,78.0,30.0,120.0,4.0,0.0
8461,47.0,5.0,120.0,3.0,0.0
8462,59.0,0.0,120.0,0.0,0.0
8463,59.0,0.0,120.0,1.0,0.0
8464,76.0,13.0,30.0,4.0,0.0
8465,74.0,7.0,15.0,4.0,0.0
8466,76.0,62.0,15.0,4.0,0.0
8467,74.0,31.0,60.0,4.0,0.0
8468,73.0,30.0,30.0,4.0,0.0
8469,71.0,55.0,30.0,4.0,0.0
8470,70.0,60.0,60.0,4.0,0.0
8471,71.0,49.0,60.0,4.0,0.0
8472,71.0,0.0,120.0,2.0,0.0
8473,74.0,0.0,120.0,1.0,0.0
8474,59.0,0.0,60.0,3.0,0.0
8475,59.0,4.0,60.0,4.0,0.0
8476,78.0,60.0,120.0,0.0,0.0
8477,70.0,0.0,60.0,4.0,0.0
8478,59.0,7.0,60.0,4.0,0.0
8479,59.0,0.0,60.0,3.0,0.0
8480,71.0,0.0,120.0,1.0,0.0
8481,74.0,60.0,120.0,0.0,0.0
8482,66.0,0.0,120.0,2.0,0.0
8483,70.0,49.0,60.0,4.0,0.0
8484,62.0,0.0,60.0,4.0,0.0
8485,62.0,4.0,60.0,3.0,0.0
8486,62.0,7.0,60.0,3.0,0.0
8487,71.0,0.0,60.0,4.0,0.0
8488,62.0,0.0,60.0,4.0,0.0
8489,66.0,0.0,60.0,4.0,0.0
8490,66.0,0.0,60.0,1.0,0.0
8491,62.0,0.0,60.0,2.0,0.0
8492,70.0,35.0,120.0,0.0,0.0
8493,66.0,53.0,60.0,3.0,0.0
8494,66.0,7.0,60.0,3.0,0.0
8495,64.0,0.0,60.0,1.0,0.0
8496,61.0,0.0,60.0,2.0,0.0
8497,66.0,0.0,60.0,4.0,0.0
8498,83.0,8.0,30.0,4.0,0.0
8499,55.0,0.0,60.0,4.0,0.0
8500,59.0,0.0,120.0,2.0,0.0
8501,55.0,3.0,60.0,3.0,0.0
8502,71.0,0.0,60.0,0.0,0.0
8503,62.0,4.0,120.0,1.0,0.0
8504,81.0,10.0,15.0,4.0,0.0
8505,83.0,7.0,15.0,4.0,0.0
8506,84.0,50.0,15.0,4.0,0.0
8507,54.0,7.0,60.0,4.0,0.0
8508,83.0,56.0,60.0,4.0,0.0
8509,70.0,0.0,60.0,0.0,0.0
8510,54.0,0.0,60.0,3.0,0.0
8511,54.0,0.0,60.0,3.0,0.0
8512,54.0,39.0,60.0,4.0,0.0
8513,70.0,0.0,60.0,0.0,0.0
8514,81.0,14.0,90.0,4.0,0.0
8515,71.0,0.0,60.0,0.0,0.0
8516,55.0,0.0,60.0,3.0,0.0
8517,55.0,12.0,60.0,4.0,0.0
8518,79.0,28.0,30.0,4.0,0.0
8519,78.0,30.0,30.0,4.0,0.0
8520,76.0,57.0,30.0,4.0,0.0
8521,75.0,60.0,60.0,4.0,0.0
8522,76.0,0.0,120.0,0.0,0.0
8523,64.0,0.0,120.0,2.0,0.0
8524,61.0,0.0,60.0,4.0,0.0
8525,70.0,0.0,120.0,1.0,0.0
8526,61.0,53.0,60.0,3.0,0.0
8527,76.0,0.0,60.0,4.0,0.0
8528,61.0,0.0,60.0,3.0,0.0
8529,75.0,60.0,60.0,4.0,0.0
8530,61.0,7.0,60.0,4.0,0.0
8531,73.0,60.0,120.0,0.0,0.0
8532,67.0,0.0,120.0,2.0,0.0
8533,70.0,53.0,60.0,1.0,0.0
8534,64.0,0.0,60.0,3.0,0.0
8535,75.0,0.0,60.0,4.0,0.0
8536,64.0,0.0,60.0,4.0,0.0
8537,64.0,7.0,60.0,4.0,0.0
8538,76.0,56.0,300.0,4.0,0.0
8539,64.0,0.0,60.0,3.0,0.0
8540,73.0,0.0,60.0,1.0,0.0
8541,67.0,53.0,60.0,4.0,0.0
8542,61.0,0.0,120.0,2.0,0.0
8543,67.0,0.0,60.0,3.0,0.0
8544,64.0,0.0,60.0,1.0,0.0
8545,70.0,0.0,120.0,0.0,0.0
8546,67.0,60.0,60.0,1.0,0.0
8547,67.0,7.0,60.0,3.0,0.0
8548,67.0,0.0,60.0,4.0,0.0
8549,58.0,0.0,60.0,3.0,0.0
8550,66.0,0.0,60.0,0.0,0.0
8551,61.0,0.0,120.0,1.0,0.0
8552,58.0,53.0,60.0,4.0,0.0
8553,66.0,4.0,120.0,2.0,0.0
8554,64.0,0.0,60.0,0.0,0.0
8555,58.0,0.0,60.0,3.0,0.0
8556,58.0,7.0,60.0,4.0,0.0
8557,61.0,4.0,60.0,3.0,0.0
8558,61.0,0.0,60.0,4.0,0.0
8559,74.0,49.0,60.0,4.0,0.0
8560,66.0,4.0,120.0,0.0,0.0
8561,61.0,0.0,60.0,4.0,0.0
8562,61.0,7.0,60.0,3.0,0.0
8563,73.0,56.0,60.0,4.0,0.0
8564,71.0,49.0,60.0,4.0,0.0
8565,64.0,4.0,60.0,3.0,0.0
8566,64.0,0.0,60.0,4.0,0.0
8567,70.0,56.0,60.0,4.0,0.0
8568,64.0,0.0,60.0,4.0,0.0
8569,64.0,9.0,60.0,3.0,0.0
8570,73.0,1.0,40.0,4.0,0.0
8571,76.0,1.0,30.0,4.0,0.0
8572,79.0,0.0,15.0,4.0,0.0
8573,54.0,0.0,60.0,3.0,0.0
8574,70.0,0.0,120.0,1.0,0.0
8575,54.0,0.0,60.0,4.0,0.0
8576,64.0,0.0,120.0,2.0,0.0
8577,73.0,53.0,60.0,0.0,0.0
8578,54.0,7.0,60.0,4.0,0.0
8579,71.0,0.0,60.0,0.0,0.0
8580,54.0,0.0,60.0,3.0,0.0
8581,78.0,0.0,15.0,4.0,0.0
8582,79.0,4.0,15.0,4.0,0.0
8583,58.0,4.0,60.0,3.0,0.0
8584,73.0,60.0,120.0,0.0,0.0
8585,58.0,0.0,60.0,4.0,0.0
8586,78.0,49.0,60.0,4.0,0.0
8587,76.0,4.0,180.0,4.0,0.0
8588,58.0,7.0,60.0,4.0,0.0
8589,58.0,0.0,60.0,3.0,0.0
8590,61.0,0.0,60.0,3.0,0.0
8591,61.0,48.0,60.0,4.0,0.0
8592,61.0,0.0,60.0,3.0,0.0
8593,61.0,10.0,60.0,4.0,0.0
8594,74.0,5.0,15.0,4.0,0.0
8595,73.0,2.0,15.0,4.0,0.0
8596,62.0,0.0,120.0,2.0,0.0
8597,71.0,0.0,120.0,0.0,0.0
8598,50.0,0.0,60.0,4.0,0.0
8599,71.0,7.0,15.0,4.0,0.0
8600,66.0,3.0,120.0,1.0,0.0
8601,50.0,48.0,60.0,3.0,0.0
8602,73.0,44.0,15.0,4.0,0.0
8603,71.0,11.0,90.0,4.0,0.0
8604,49.0,0.0,60.0,4.0,0.0
8605,49.0,0.0,60.0,3.0,0.0
8606,73.0,1.0,15.0,4.0,0.0
8607,70.0,50.0,15.0,4.0,0.0
8608,50.0,52.0,60.0,4.0,0.0
8609,74.0,0.0,120.0,0.0,0.0
8610,71.0,60.0,120.0,4.0,0.0
8611,50.0,0.0,60.0,3.0,0.0
8612,71.0,0.0,120.0,1.0,0.0
8613,66.0,0.0,120.0,2.0,0.0
8614,62.0,0.0,60.0,3.0,0.0
8615,62.0,15.0,40.0,4.0,0.0
8616,74.0,35.0,120.0,1.0,0.0
8617,58.0,0.0,60.0,3.0,0.0
8618,71.0,0.0,120.0,2.0,0.0
8619,78.0,0.0,120.0,0.0,0.0
8620,58.0,53.0,60.0,4.0,0.0
8621,59.0,0.0,60.0,3.0,0.0
8622,59.0,7.0,60.0,4.0,0.0
8623,73.0,0.0,480.0,1.0,0.0
8624,79.0,18.0,30.0,4.0,0.0
8625,71.0,0.0,360.0,2.0,0.0
8626,79.0,53.0,120.0,0.0,0.0
8627,52.0,0.0,60.0,3.0,0.0
8628,52.0,35.0,60.0,4.0,0.0
8629,78.0,7.0,20.0,4.0,0.0
8630,50.0,0.0,60.0,3.0,0.0
8631,50.0,0.0,60.0,4.0,0.0
8632,81.0,18.0,30.0,4.0,0.0
8633,79.0,7.0,20.0,4.0,0.0
8634,52.0,0.0,60.0,3.0,0.0
8635,52.0,52.0,60.0,4.0,0.0
8636,83.0,0.0,120.0,0.0,0.0
8637,79.0,60.0,120.0,4.0,0.0
8638,62.0,0.0,60.0,3.0,0.0
8639,62.0,15.0,40.0,4.0,0.0
8640,58.0,0.0,60.0,3.0,0.0
8641,79.0,60.0,120.0,0.0,0.0
8642,58.0,53.0,60.0,4.0,0.0
8643,59.0,0.0,60.0,3.0,0.0
8644,59.0,7.0,60.0,4.0,0.0
8645,54.0,0.0,60.0,3.0,0.0
8646,54.0,0.0,60.0,4.0,0.0
8647,82.0,15.0,60.0,4.0,0.0
8648,70.0,8.0,120.0,2.0,0.0
8649,76.0,0.0,120.0,0.0,0.0
8650,52.0,0.0,60.0,3.0,0.0
8651,83.0,15.0,15.0,4.0,0.0
8652,52.0,0.0,60.0,4.0,0.0
8653,82.0,15.0,15.0,4.0,0.0
8654,80.0,15.0,15.0,4.0,0.0
8655,82.0,0.0,15.0,4.0,0.0
8656,76.0,0.0,120.0,1.0,0.0
8657,54.0,0.0,60.0,4.0,0.0
8658,83.0,7.0,15.0,4.0,0.0
8659,79.0,0.0,120.0,0.0,0.0
8660,54.0,7.0,60.0,3.0,0.0
8661,61.0,8.0,120.0,2.0,0.0
8662,82.0,8.0,15.0,4.0,0.0
8663,83.0,7.0,15.0,4.0,0.0
8664,82.0,8.0,15.0,4.0,0.0
8665,83.0,7.0,15.0,4.0,0.0
8666,82.0,8.0,15.0,4.0,0.0
8667,83.0,0.0,15.0,4.0,0.0
8668,82.0,8.0,15.0,4.0,0.0
8669,83.0,7.0,15.0,4.0,0.0
8670,62.0,8.0,40.0,4.0,0.0
8671,62.0,0.0,60.0,3.0,0.0
8672,82.0,8.0,15.0,4.0,0.0
8673,83.0,7.0,15.0,4.0,0.0
8674,82.0,8.0,15.0,4.0,0.0
8675,83.0,7.0,15.0,4.0,0.0
8676,82.0,0.0,15.0,4.0,0.0
8677,83.0,7.0,15.0,4.0,0.0
8678,82.0,0.0,15.0,4.0,0.0
8679,78.0,0.0,60.0,0.0,0.0
8680,73.0,0.0,120.0,1.0,0.0
8681,58.0,0.0,60.0,3.0,0.0
8682,58.0,30.0,60.0,4.0,0.0
8683,83.0,7.0,15.0,4.0,0.0
8684,66.0,0.0,120.0,2.0,0.0
8685,82.0,8.0,15.0,4.0,0.0
8686,83.0,7.0,15.0,4.0,0.0
8687,82.0,8.0,15.0,4.0,0.0
8688,83.0,7.0,15.0,4.0,0.0
8689,82.0,8.0,15.0,4.0,0.0
8690,83.0,7.0,15.0,4.0,0.0
8691,82.0,0.0,15.0,4.0,0.0
8692,59.0,0.0,60.0,4.0,0.0
8693,80.0,30.0,30.0,4.0,0.0
8694,76.0,0.0,60.0,0.0,0.0
8695,59.0,0.0,60.0,3.0,0.0
8696,82.0,60.0,30.0,4.0,0.0
8697,55.0,0.0,120.0,3.0,0.0
8698,74.0,5.0,60.0,0.0,0.0
8699,71.0,0.0,120.0,1.0,0.0
8700,71.0,60.0,120.0,2.0,0.0
8701,83.0,43.0,60.0,4.0,0.0
8702,55.0,0.0,120.0,4.0,0.0
8703,70.0,0.0,60.0,0.0,0.0
8704,78.0,12.0,40.0,4.0,0.0
8705,70.0,5.0,60.0,0.0,0.0
8706,79.0,43.0,60.0,4.0,0.0
8707,59.0,60.0,60.0,4.0,0.0
8708,75.0,5.0,40.0,4.0,0.0
8709,59.0,0.0,60.0,3.0,0.0
8710,71.0,7.0,60.0,0.0,0.0
8711,60.0,0.0,60.0,4.0,0.0
8712,76.0,43.0,60.0,4.0,0.0
8713,60.0,5.0,60.0,3.0,0.0
8714,57.0,42.0,60.0,3.0,0.0
8715,72.0,5.0,40.0,4.0,0.0
8716,57.0,0.0,60.0,4.0,0.0
8717,66.0,0.0,120.0,2.0,0.0
8718,71.0,25.0,30.0,4.0,0.0
8719,51.0,5.0,60.0,4.0,0.0
8720,72.0,0.0,120.0,0.0,0.0
8721,51.0,0.0,60.0,3.0,0.0
8722,69.0,60.0,120.0,1.0,0.0
8723,51.0,7.0,60.0,4.0,0.0
8724,51.0,0.0,60.0,3.0,0.0
8725,69.0,4.0,15.0,4.0,0.0
8726,71.0,37.0,15.0,4.0,0.0
8727,69.0,57.0,360.0,4.0,0.0
8728,66.0,0.0,120.0,1.0,0.0
8729,69.0,0.0,120.0,0.0,0.0
8730,54.0,0.0,60.0,4.0,0.0
8731,54.0,53.0,60.0,3.0,0.0
8732,63.0,60.0,120.0,2.0,0.0
8733,54.0,7.0,60.0,3.0,0.0
8734,54.0,0.0,60.0,4.0,0.0
8735,66.0,63.0,120.0,0.0,0.0
8736,57.0,53.0,60.0,3.0,0.0
8737,63.0,0.0,120.0,1.0,0.0
8738,60.0,0.0,120.0,2.0,0.0
8739,57.0,0.0,60.0,4.0,0.0
8740,57.0,0.0,60.0,3.0,0.0
8741,57.0,7.0,60.0,4.0,0.0
8742,48.0,60.0,120.0,4.0,0.0
8743,66.0,0.0,120.0,2.0,0.0
8744,48.0,0.0,120.0,3.0,0.0
8745,69.0,0.0,120.0,1.0,0.0
8746,63.0,0.0,120.0,0.0,0.0
8747,66.0,0.0,60.0,4.0,0.0
8748,67.0,30.0,60.0,4.0,0.0
8749,69.0,0.0,60.0,2.0,0.0
8750,54.0,0.0,60.0,3.0,0.0
8751,54.0,0.0,60.0,4.0,0.0
8752,71.0,30.0,30.0,4.0,0.0
8753,66.0,0.0,60.0,1.0,0.0
8754,75.0,60.0,60.0,0.0,0.0
8755,69.0,0.0,30.0,4.0,0.0
8756,71.0,0.0,60.0,4.0,0.0
8757,55.0,0.0,60.0,3.0,0.0
8758,67.0,30.0,60.0,2.0,0.0
8759,55.0,0.0,60.0,4.0,0.0
8760,71.0,0.0,60.0,1.0,0.0
8761,76.0,0.0,60.0,0.0,0.0
8762,52.0,0.0,60.0,4.0,0.0
8763,71.0,0.0,60.0,1.0,0.0
8764,79.0,60.0,60.0,0.0,0.0
8765,75.0,30.0,30.0,4.0,0.0
8766,52.0,0.0,60.0,3.0,0.0
8767,67.0,0.0,60.0,2.0,0.0
8768,73.0,0.0,30.0,4.0,0.0
8769,72.0,0.0,60.0,1.0,0.0
8770,75.0,0.0,60.0,4.0,0.0
8771,60.0,0.0,60.0,4.0,0.0
8772,60.0,60.0,60.0,3.0,0.0
8773,69.0,0.0,60.0,2.0,0.0
8774,78.0,0.0,60.0,0.0,0.0
8775,76.0,0.0,60.0,0.0,0.0
8776,57.0,0.0,60.0,3.0,0.0
8777,64.0,0.0,60.0,2.0,0.0
8778,76.0,0.0,60.0,4.0,0.0
8779,72.0,60.0,60.0,1.0,0.0
8780,57.0,0.0,60.0,4.0,0.0
8781,76.0,0.0,120.0,0.0,0.0
8782,79.0,0.0,120.0,4.0,0.0
8783,59.0,17.0,120.0,4.0,0.0
8784,59.0,0.0,120.0,3.0,0.0
8785,71.0,60.0,60.0,2.0,0.0
8786,71.0,0.0,240.0,1.0,0.0
8787,67.0,0.0,60.0,2.0,0.0
8788,75.0,0.0,120.0,0.0,0.0
8789,47.0,0.0,120.0,4.0,0.0
8790,78.0,15.0,15.0,4.0,0.0
8791,69.0,2.0,60.0,2.0,0.0
8792,47.0,0.0,120.0,3.0,0.0
8793,79.0,15.0,15.0,4.0,0.0
8794,78.0,13.0,15.0,4.0,0.0
8795,76.0,7.0,15.0,4.0,0.0
8796,78.0,7.0,15.0,4.0,0.0
8797,66.0,1.0,60.0,2.0,0.0
8798,79.0,33.0,15.0,4.0,0.0
8799,78.0,5.0,30.0,4.0,0.0
8800,76.0,6.0,15.0,4.0,0.0
8801,78.0,119.0,15.0,4.0,0.0
8802,71.0,0.0,120.0,1.0,0.0
8803,67.0,0.0,120.0,2.0,0.0
8804,52.0,0.0,120.0,3.0,0.0
8805,52.0,120.0,120.0,4.0,0.0
8806,76.0,0.0,120.0,0.0,0.0
8807,76.0,0.0,120.0,4.0,0.0
8808,71.0,60.0,120.0,4.0,0.0
8809,69.0,60.0,60.0,4.0,0.0
8810,67.0,30.0,60.0,4.0,0.0
8811,76.0,0.0,120.0,0.0,0.0
8812,71.0,0.0,120.0,1.0,0.0
8813,66.0,30.0,30.0,4.0,0.0
8814,67.0,15.0,120.0,2.0,0.0
8815,64.0,2.0,30.0,4.0,0.0
8816,52.0,0.0,15.0,3.0,0.0
8817,52.0,51.0,15.0,4.0,0.0
8818,63.0,0.0,60.0,4.0,0.0
8819,64.0,0.0,120.0,2.0,0.0
8820,55.0,51.0,60.0,4.0,0.0
8821,63.0,15.0,15.0,4.0,0.0
8822,67.0,0.0,120.0,1.0,0.0
8823,71.0,62.0,120.0,0.0,0.0
8824,55.0,0.0,60.0,3.0,0.0
8825,64.0,10.0,15.0,4.0,0.0
8826,66.0,10.0,15.0,4.0,0.0
8827,64.0,10.0,15.0,4.0,0.0
8828,63.0,2.0,15.0,4.0,0.0
8829,55.0,7.0,60.0,3.0,0.0
8830,64.0,0.0,60.0,4.0,0.0
8831,55.0,0.0,60.0,4.0,0.0
8832,59.0,0.0,60.0,3.0,0.0
8833,59.0,0.0,120.0,2.0,0.0
8834,59.0,51.0,60.0,4.0,0.0
8835,67.0,62.0,120.0,0.0,0.0
8836,64.0,0.0,120.0,1.0,0.0
8837,59.0,0.0,60.0,3.0,0.0
8838,59.0,7.0,60.0,4.0,0.0
8839,77.0,0.0,120.0,1.0,0.0
8840,86.0,14.0,90.0,4.0,0.0
8841,49.0,0.0,60.0,4.0,0.0
8842,68.0,3.0,120.0,2.0,0.0
8843,80.0,0.0,120.0,0.0,0.0
8844,49.0,0.0,60.0,4.0,0.0
8845,49.0,17.0,15.0,3.0,0.0
8846,85.0,15.0,15.0,4.0,0.0
8847,83.0,5.0,15.0,4.0,0.0
8848,81.0,30.0,15.0,4.0,0.0
8849,80.0,29.0,30.0,4.0,0.0
8850,77.0,3.0,120.0,0.0,0.0
8851,73.0,0.0,120.0,1.0,0.0
8852,68.0,0.0,120.0,2.0,0.0
8853,83.0,30.0,30.0,4.0,0.0
8854,53.0,0.0,15.0,3.0,0.0
8855,81.0,20.0,30.0,4.0,0.0
8856,53.0,1.0,15.0,4.0,0.0
8857,80.0,30.0,30.0,4.0,0.0
8858,73.0,3.0,120.0,0.0,0.0
8859,56.0,1.0,60.0,3.0,0.0
8860,68.0,2.0,60.0,2.0,0.0
8861,71.0,0.0,120.0,1.0,0.0
8862,78.0,27.0,30.0,4.0,0.0
8863,56.0,0.0,60.0,4.0,0.0
8864,77.0,30.0,30.0,4.0,0.0
8865,65.0,0.0,60.0,2.0,0.0
8866,75.0,20.0,30.0,4.0,0.0
8867,56.0,7.0,60.0,3.0,0.0
8868,56.0,0.0,60.0,4.0,0.0
8869,73.0,15.0,30.0,4.0,0.0
8870,81.0,15.0,15.0,4.0,0.0
8871,73.0,0.0,120.0,0.0,0.0
8872,69.0,33.0,120.0,1.0,0.0
8873,42.0,0.0,120.0,3.0,0.0
8874,42.0,0.0,120.0,4.0,0.0
8875,66.0,0.0,120.0,2.0,0.0
8876,86.0,87.0,15.0,4.0,0.0
8877,85.0,61.0,120.0,4.0,0.0
8878,83.0,1.0,30.0,4.0,0.0
8879,81.0,28.0,60.0,4.0,0.0
8880,80.0,30.0,30.0,4.0,0.0
8881,78.0,30.0,30.0,4.0,0.0
8882,80.0,62.0,30.0,4.0,0.0
8883,77.0,57.0,60.0,4.0,0.0
8884,78.0,2.0,120.0,2.0,0.0
8885,81.0,0.0,120.0,1.0,0.0
8886,78.0,12.0,90.0,4.0,0.0
8887,85.0,0.0,120.0,0.0,0.0
8888,54.0,0.0,15.0,4.0,0.0
8889,54.0,18.0,15.0,3.0,0.0
8890,80.0,15.0,15.0,4.0,0.0
8891,78.0,6.0,15.0,4.0,0.0
8892,77.0,60.0,15.0,4.0,0.0
8893,78.0,0.0,120.0,1.0,0.0
8894,73.0,0.0,120.0,2.0,0.0
8895,81.0,60.0,120.0,0.0,0.0
8896,57.0,51.0,60.0,4.0,0.0
8897,78.0,0.0,120.0,4.0,0.0
8898,57.0,0.0,60.0,3.0,0.0
8899,57.0,7.0,60.0,4.0,0.0
8900,57.0,0.0,60.0,3.0,0.0
8901,73.0,0.0,60.0,1.0,0.0
8902,77.0,60.0,120.0,0.0,0.0
8903,69.0,2.0,60.0,2.0,0.0
8904,61.0,51.0,60.0,3.0,0.0
8905,61.0,0.0,60.0,4.0,0.0
8906,68.0,0.0,60.0,2.0,0.0
8907,71.0,0.0,60.0,1.0,0.0
8908,61.0,0.0,60.0,4.0,0.0
8909,61.0,7.0,60.0,3.0,0.0
8910,50.0,0.0,60.0,4.0,0.0
8911,78.0,60.0,60.0,0.0,0.0
8912,50.0,0.0,60.0,3.0,0.0
8913,90.0,60.0,120.0,4.0,0.0
8914,49.0,0.0,60.0,3.0,0.0
8915,77.0,0.0,60.0,0.0,0.0
8916,49.0,0.0,60.0,4.0,0.0
8917,77.0,0.0,60.0,0.0,0.0
8918,49.0,0.0,60.0,4.0,0.0
8919,49.0,0.0,60.0,3.0,0.0
8920,88.0,60.0,60.0,4.0,0.0
8921,78.0,30.0,60.0,0.0,0.0
8922,50.0,0.0,60.0,4.0,0.0
8923,50.0,0.0,60.0,3.0,0.0
8924,86.0,0.0,60.0,4.0,0.0
8925,85.0,30.0,30.0,4.0,0.0
8926,83.0,60.0,30.0,4.0,0.0
8927,82.0,30.0,60.0,4.0,0.0
8928,83.0,23.0,30.0,4.0,0.0
8929,83.0,0.0,120.0,0.0,0.0
8930,77.0,0.0,120.0,1.0,0.0
8931,71.0,15.0,120.0,2.0,0.0
8932,82.0,9.0,20.0,4.0,0.0
8933,56.0,0.0,15.0,4.0,0.0
8934,56.0,28.0,15.0,3.0,0.0
8935,85.0,23.0,30.0,4.0,0.0
8936,83.0,0.0,20.0,4.0,0.0
8937,59.0,0.0,60.0,3.0,0.0
8938,77.0,0.0,60.0,1.0,0.0
8939,80.0,0.0,120.0,0.0,0.0
8940,74.0,0.0,120.0,2.0,0.0
8941,82.0,15.0,15.0,4.0,0.0
8942,83.0,8.0,15.0,4.0,0.0
8943,85.0,7.0,15.0,4.0,0.0
8944,83.0,8.0,15.0,4.0,0.0
8945,85.0,7.0,15.0,4.0,0.0
8946,83.0,2.0,15.0,4.0,0.0
8947,80.0,60.0,60.0,1.0,0.0
8948,82.0,38.0,15.0,4.0,0.0
8949,59.0,7.0,60.0,3.0,0.0
8950,59.0,13.0,15.0,4.0,0.0
8951,83.0,15.0,480.0,4.0,0.0
8952,68.0,0.0,120.0,2.0,0.0
8953,71.0,2.0,60.0,1.0,0.0
8954,77.0,0.0,120.0,0.0,0.0
8955,62.0,0.0,60.0,3.0,0.0
8956,62.0,51.0,15.0,4.0,0.0
8957,62.0,7.0,60.0,3.0,0.0
8958,74.0,60.0,60.0,1.0,0.0
8959,73.0,2.0,60.0,0.0,0.0
8960,53.0,51.0,60.0,3.0,0.0
8961,73.0,0.0,120.0,2.0,0.0
8962,68.0,60.0,120.0,1.0,0.0
8963,53.0,0.0,15.0,4.0,0.0
8964,71.0,0.0,60.0,0.0,0.0
8965,53.0,0.0,60.0,3.0,0.0
8966,56.0,0.0,60.0,4.0,0.0
8967,56.0,51.0,60.0,3.0,0.0
8968,73.0,30.0,120.0,0.0,0.0
8969,81.0,2.0,30.0,4.0,0.0
8970,56.0,7.0,60.0,4.0,0.0
8971,56.0,0.0,60.0,3.0,0.0
8972,80.0,30.0,90.0,4.0,0.0
8973,59.0,0.0,60.0,3.0,0.0
8974,59.0,13.0,60.0,4.0,0.0
8975,78.0,2.0,30.0,4.0,0.0
8976,77.0,23.0,30.0,4.0,0.0
8977,59.0,0.0,60.0,3.0,0.0
8978,59.0,22.0,60.0,4.0,0.0
8979,86.0,15.0,40.0,4.0,0.0
8980,80.0,0.0,60.0,0.0,0.0
8981,49.0,28.0,60.0,4.0,0.0
8982,49.0,0.0,60.0,3.0,0.0
8983,71.0,0.0,120.0,2.0,0.0
8984,77.0,0.0,120.0,1.0,0.0
8985,85.0,15.0,15.0,4.0,0.0
8986,83.0,15.0,15.0,4.0,0.0
8987,81.0,2.0,15.0,4.0,0.0
8988,83.0,23.0,30.0,4.0,0.0
8989,49.0,7.0,60.0,4.0,0.0
8990,49.0,0.0,60.0,3.0,0.0
8991,78.0,15.0,60.0,0.0,0.0
8992,86.0,15.0,40.0,4.0,0.0
8993,53.0,0.0,60.0,3.0,0.0
8994,80.0,15.0,120.0,0.0,0.0
8995,85.0,15.0,15.0,4.0,0.0
8996,83.0,15.0,15.0,4.0,0.0
8997,81.0,2.0,15.0,4.0,0.0
8998,80.0,23.0,30.0,4.0,0.0
8999,53.0,28.0,15.0,4.0,0.0
9000,53.0,0.0,60.0,3.0,0.0
9001,83.0,15.0,40.0,4.0,0.0
9002,56.0,0.0,60.0,4.0,0.0
9003,81.0,15.0,15.0,4.0,0.0
9004,80.0,15.0,15.0,4.0,0.0
9005,78.0,2.0,15.0,4.0,0.0
9006,80.0,23.0,30.0,4.0,0.0
9007,56.0,28.0,15.0,3.0,0.0
9008,56.0,0.0,60.0,4.0,0.0
9009,77.0,60.0,30.0,4.0,0.0
9010,73.0,0.0,120.0,1.0,0.0
9011,66.0,0.0,120.0,0.0,0.0
9012,78.0,15.0,90.0,4.0,0.0
9013,45.0,30.0,60.0,4.0,0.0
9014,69.0,0.0,120.0,2.0,0.0
9015,45.0,0.0,60.0,3.0,0.0
9016,44.0,0.0,60.0,4.0,0.0
9017,44.0,0.0,60.0,3.0,0.0
9018,80.0,15.0,15.0,4.0,0.0
9019,81.0,30.0,15.0,4.0,0.0
9020,80.0,23.0,30.0,4.0,0.0
9021,45.0,60.0,60.0,4.0,0.0
9022,45.0,7.0,60.0,3.0,0.0
9023,69.0,60.0,120.0,0.0,0.0
9024,66.0,0.0,120.0,1.0,0.0
9025,61.0,0.0,120.0,2.0,0.0
9026,78.0,0.0,90.0,4.0,0.0
9027,57.0,0.0,60.0,4.0,0.0
9028,57.0,0.0,60.0,3.0,0.0
9029,53.0,60.0,60.0,4.0,0.0
9030,66.0,0.0,120.0,2.0,0.0
9031,69.0,0.0,120.0,1.0,0.0
9032,53.0,0.0,60.0,3.0,0.0
9033,73.0,0.0,120.0,0.0,0.0
9034,54.0,33.0,60.0,4.0,0.0
9035,54.0,0.0,60.0,3.0,0.0
9036,68.0,0.0,480.0,1.0,0.0
9037,66.0,0.0,360.0,2.0,0.0
9038,86.0,20.0,30.0,4.0,0.0
9039,47.0,0.0,60.0,4.0,0.0
9040,74.0,0.0,120.0,0.0,0.0
9041,47.0,33.0,60.0,3.0,0.0
9042,85.0,7.0,20.0,4.0,0.0
9043,88.0,20.0,30.0,4.0,0.0
9044,45.0,53.0,60.0,3.0,0.0
9045,45.0,0.0,60.0,4.0,0.0
9046,86.0,7.0,20.0,4.0,0.0
9047,78.0,0.0,120.0,0.0,0.0
9048,86.0,0.0,180.0,4.0,0.0
9049,47.0,60.0,60.0,4.0,0.0
9050,47.0,7.0,60.0,3.0,0.0
9051,57.0,60.0,60.0,3.0,0.0
9052,57.0,0.0,60.0,4.0,0.0
9053,74.0,0.0,120.0,0.0,0.0
9054,53.0,0.0,60.0,4.0,0.0
9055,53.0,15.0,60.0,3.0,0.0
9056,85.0,0.0,30.0,4.0,0.0
9057,83.0,15.0,15.0,4.0,0.0
9058,54.0,0.0,60.0,4.0,0.0
9059,54.0,60.0,60.0,3.0,0.0
9060,82.0,15.0,15.0,4.0,0.0
9061,83.0,15.0,15.0,4.0,0.0
9062,86.0,0.0,15.0,4.0,0.0
9063,71.0,0.0,120.0,0.0,0.0
9064,49.0,0.0,60.0,3.0,0.0
9065,65.0,0.0,120.0,2.0,0.0
9066,89.0,15.0,60.0,4.0,0.0
9067,49.0,0.0,60.0,4.0,0.0
9068,47.0,0.0,60.0,4.0,0.0
9069,47.0,8.0,60.0,3.0,0.0
9070,90.0,15.0,15.0,4.0,0.0
9071,89.0,15.0,15.0,4.0,0.0
9072,87.0,15.0,15.0,4.0,0.0
9073,89.0,0.0,15.0,4.0,0.0
9074,49.0,8.0,60.0,4.0,0.0
9075,71.0,0.0,120.0,1.0,0.0
9076,90.0,7.0,15.0,4.0,0.0
9077,74.0,0.0,120.0,0.0,0.0
9078,68.0,8.0,120.0,2.0,0.0
9079,49.0,0.0,60.0,3.0,0.0
9080,89.0,8.0,15.0,4.0,0.0
9081,90.0,7.0,15.0,4.0,0.0
9082,89.0,8.0,15.0,4.0,0.0
9083,90.0,7.0,15.0,4.0,0.0
9084,89.0,8.0,15.0,4.0,0.0
9085,90.0,7.0,15.0,4.0,0.0
9086,89.0,0.0,15.0,4.0,0.0
9087,57.0,0.0,60.0,4.0,0.0
9088,90.0,7.0,15.0,4.0,0.0
9089,57.0,0.0,60.0,3.0,0.0
9090,89.0,8.0,15.0,4.0,0.0
9091,90.0,7.0,15.0,4.0,0.0
9092,89.0,8.0,15.0,4.0,0.0
9093,90.0,7.0,15.0,4.0,0.0
9094,89.0,8.0,15.0,4.0,0.0
9095,90.0,7.0,15.0,4.0,0.0
9096,89.0,0.0,15.0,4.0,0.0
9097,53.0,0.0,60.0,3.0,0.0
9098,53.0,30.0,60.0,4.0,0.0
9099,61.0,0.0,120.0,2.0,0.0
9100,90.0,7.0,15.0,4.0,0.0
9101,68.0,60.0,120.0,1.0,0.0
9102,73.0,0.0,60.0,0.0,0.0
9103,89.0,8.0,15.0,4.0,0.0
9104,90.0,7.0,15.0,4.0,0.0
9105,89.0,8.0,15.0,4.0,0.0
9106,90.0,7.0,15.0,4.0,0.0
9107,89.0,8.0,15.0,4.0,0.0
9108,90.0,7.0,15.0,4.0,0.0
9109,89.0,0.0,15.0,4.0,0.0
9110,71.0,0.0,60.0,0.0,0.0
9111,54.0,0.0,60.0,3.0,0.0
9112,54.0,0.0,60.0,4.0,0.0
9113,87.0,30.0,30.0,4.0,0.0
9114,89.0,0.0,30.0,4.0,0.0
9115,50.0,0.0,120.0,4.0,0.0
9116,90.0,49.0,60.0,4.0,0.0
9117,66.0,0.0,120.0,1.0,0.0
9118,50.0,60.0,120.0,3.0,0.0
9119,69.0,0.0,60.0,0.0,0.0
9120,66.0,0.0,120.0,2.0,0.0
9121,65.0,0.0,60.0,0.0,0.0
9122,85.0,11.0,40.0,4.0,0.0
9123,66.0,0.0,120.0,0.0,0.0
9124,86.0,48.0,60.0,4.0,0.0
9125,54.0,60.0,60.0,3.0,0.0
9126,82.0,12.0,40.0,4.0,0.0
9127,54.0,0.0,60.0,4.0,0.0
9128,55.0,0.0,60.0,4.0,0.0
9129,55.0,0.0,60.0,3.0,0.0
9130,83.0,15.0,60.0,4.0,0.0
9131,52.0,8.0,60.0,3.0,0.0
9132,81.0,45.0,15.0,4.0,0.0
9133,52.0,0.0,60.0,4.0,0.0
9134,79.0,0.0,40.0,4.0,0.0
9135,73.0,0.0,120.0,2.0,0.0
9136,78.0,7.0,15.0,4.0,0.0
9137,46.0,6.0,60.0,4.0,0.0
9138,79.0,0.0,120.0,0.0,0.0
9139,76.0,8.0,120.0,1.0,0.0
9140,46.0,0.0,60.0,3.0,0.0
9141,76.0,8.0,15.0,4.0,0.0
9142,78.0,7.0,15.0,4.0,0.0
9143,76.0,8.0,15.0,4.0,0.0
9144,78.0,7.0,15.0,4.0,0.0
9145,76.0,8.0,15.0,4.0,0.0
9146,78.0,7.0,15.0,4.0,0.0
9147,76.0,2.0,15.0,4.0,0.0
9148,46.0,0.0,60.0,3.0,0.0
9149,46.0,7.0,60.0,4.0,0.0
9150,78.0,7.0,15.0,4.0,0.0
9151,76.0,8.0,15.0,4.0,0.0
9152,78.0,7.0,15.0,4.0,0.0
9153,76.0,8.0,15.0,4.0,0.0
9154,78.0,7.0,15.0,4.0,0.0
9155,76.0,8.0,15.0,4.0,0.0
9156,78.0,0.0,15.0,4.0,0.0
9157,76.0,0.0,15.0,4.0,0.0
9158,49.0,6.0,60.0,3.0,0.0
9159,76.0,0.0,120.0,0.0,0.0
9160,78.0,7.0,15.0,4.0,0.0
9161,49.0,0.0,60.0,4.0,0.0
9162,73.0,0.0,120.0,1.0,0.0
9163,70.0,8.0,120.0,2.0,0.0
9164,76.0,8.0,15.0,4.0,0.0
9165,78.0,7.0,15.0,4.0,0.0
9166,76.0,8.0,15.0,4.0,0.0
9167,78.0,7.0,15.0,4.0,0.0
9168,76.0,8.0,15.0,4.0,0.0
9169,78.0,7.0,15.0,4.0,0.0
9170,76.0,2.0,15.0,4.0,0.0
9171,78.0,7.0,15.0,4.0,0.0
9172,49.0,7.0,60.0,4.0,0.0
9173,49.0,0.0,60.0,3.0,0.0
9174,76.0,8.0,15.0,4.0,0.0
9175,78.0,7.0,15.0,4.0,0.0
9176,76.0,8.0,15.0,4.0,0.0
9177,78.0,7.0,15.0,4.0,0.0
9178,76.0,8.0,15.0,4.0,0.0
9179,78.0,0.0,15.0,4.0,0.0
9180,76.0,0.0,15.0,4.0,0.0
9181,52.0,0.0,60.0,4.0,0.0
9182,78.0,7.0,15.0,4.0,0.0
9183,67.0,90.0,120.0,2.0,0.0
9184,52.0,10.0,60.0,3.0,0.0
9185,70.0,0.0,120.0,1.0,0.0
9186,73.0,0.0,120.0,0.0,0.0
9187,76.0,8.0,15.0,4.0,0.0
9188,78.0,7.0,15.0,4.0,0.0
9189,76.0,8.0,15.0,4.0,0.0
9190,78.0,7.0,15.0,4.0,0.0
9191,76.0,8.0,15.0,4.0,0.0
9192,78.0,7.0,15.0,4.0,0.0
9193,76.0,2.0,15.0,4.0,0.0
9194,78.0,15.0,15.0,4.0,0.0
9195,52.0,0.0,60.0,4.0,0.0
9196,52.0,4.0,60.0,3.0,0.0
9197,76.0,15.0,15.0,4.0,0.0
9198,78.0,11.0,15.0,4.0,0.0
9199,74.0,3.0,15.0,4.0,0.0
9200,43.0,0.0,120.0,4.0,0.0
9201,76.0,30.0,90.0,4.0,0.0
9202,43.0,0.0,120.0,3.0,0.0
9203,69.0,0.0,120.0,0.0,0.0
9204,61.0,0.0,120.0,2.0,0.0
9205,64.0,15.0,120.0,1.0,0.0
9206,73.0,0.0,60.0,4.0,0.0
9207,74.0,15.0,15.0,4.0,0.0
9208,76.0,15.0,15.0,4.0,0.0
9209,74.0,15.0,15.0,4.0,0.0
9210,73.0,30.0,15.0,4.0,0.0
9211,49.0,0.0,60.0,3.0,0.0
9212,76.0,0.0,60.0,1.0,0.0
9213,71.0,0.0,60.0,2.0,0.0
9214,79.0,0.0,60.0,0.0,0.0
9215,49.0,15.0,60.0,4.0,0.0
9216,74.0,30.0,30.0,4.0,0.0
9217,76.0,0.0,30.0,4.0,0.0
9218,78.0,0.0,60.0,0.0,0.0
9219,50.0,0.0,60.0,3.0,0.0
9220,50.0,0.0,60.0,4.0,0.0
9221,69.0,30.0,60.0,2.0,0.0
9222,74.0,0.0,60.0,1.0,0.0
9223,78.0,15.0,15.0,4.0,0.0
9224,79.0,15.0,15.0,4.0,0.0
9225,78.0,15.0,15.0,4.0,0.0
9226,76.0,0.0,15.0,4.0,0.0
9227,76.0,15.0,60.0,0.0,0.0
9228,73.0,0.0,60.0,1.0,0.0
9229,52.0,0.0,60.0,4.0,0.0
9230,78.0,30.0,30.0,4.0,0.0
9231,67.0,0.0,60.0,2.0,0.0
9232,52.0,0.0,60.0,3.0,0.0
9233,79.0,0.0,30.0,4.0,0.0
9234,74.0,60.0,180.0,0.0,0.0
9235,54.0,30.0,60.0,3.0,0.0
9236,81.0,15.0,15.0,4.0,0.0
9237,74.0,0.0,120.0,1.0,0.0
9238,66.0,0.0,60.0,2.0,0.0
9239,54.0,0.0,60.0,4.0,0.0
9240,81.0,15.0,15.0,4.0,0.0
9241,83.0,15.0,15.0,4.0,0.0
9242,84.0,0.0,15.0,4.0,0.0
9243,55.0,0.0,60.0,4.0,0.0
9244,83.0,30.0,30.0,4.0,0.0
9245,55.0,0.0,60.0,3.0,0.0
9246,64.0,30.0,60.0,2.0,0.0
9247,81.0,0.0,30.0,4.0,0.0
9248,79.0,30.0,30.0,4.0,0.0
9249,57.0,0.0,120.0,3.0,0.0
9250,69.0,15.0,120.0,1.0,0.0
9251,57.0,0.0,120.0,4.0,0.0
9252,66.0,0.0,60.0,2.0,0.0
9253,78.0,0.0,90.0,4.0,0.0
9254,76.0,0.0,60.0,0.0,0.0
9255,67.0,0.0,60.0,2.0,0.0
9256,45.0,0.0,120.0,4.0,0.0
9257,76.0,0.0,15.0,4.0,0.0
9258,45.0,0.0,120.0,3.0,0.0
9259,69.0,23.0,120.0,1.0,0.0
9260,69.0,0.0,60.0,2.0,0.0
9261,74.0,15.0,15.0,0.0,0.0
9262,78.0,15.0,15.0,4.0,0.0
9263,73.0,0.0,15.0,0.0,0.0
9264,74.0,15.0,15.0,0.0,0.0
9265,76.0,0.0,15.0,4.0,0.0
9266,73.0,15.0,15.0,0.0,0.0
9267,74.0,0.0,15.0,4.0,0.0
9268,76.0,0.0,60.0,4.0,0.0
9269,74.0,15.0,15.0,0.0,0.0
9270,66.0,0.0,60.0,2.0,0.0
9271,73.0,15.0,15.0,0.0,0.0
9272,71.0,15.0,15.0,0.0,0.0
9273,73.0,0.0,15.0,0.0,0.0
9274,50.0,0.0,120.0,3.0,0.0
9275,74.0,0.0,120.0,0.0,0.0
9276,69.0,0.0,120.0,1.0,0.0
9277,74.0,40.0,20.0,4.0,0.0
9278,50.0,0.0,120.0,4.0,0.0
9279,66.0,3.0,120.0,2.0,0.0
9280,69.0,27.0,30.0,4.0,0.0
9281,71.0,30.0,30.0,4.0,0.0
9282,66.0,27.0,30.0,4.0,0.0
9283,67.0,33.0,30.0,4.0,0.0
9284,64.0,27.0,30.0,4.0,0.0
9285,66.0,30.0,30.0,4.0,0.0
9286,62.0,30.0,30.0,4.0,0.0
9287,60.0,30.0,30.0,4.0,0.0
9288,59.0,30.0,30.0,4.0,0.0
9289,60.0,30.0,30.0,4.0,0.0
9290,69.0,60.0,30.0,4.0,0.0
9291,81.0,15.0,90.0,0.0,0.0
9292,78.0,0.0,120.0,1.0,0.0
9293,71.0,0.0,120.0,2.0,0.0
9294,51.0,28.0,60.0,4.0,0.0
9295,69.0,30.0,390.0,4.0,0.0
9296,60.0,2.0,60.0,4.0,0.0
9297,51.0,0.0,15.0,3.0,0.0
9298,59.0,0.0,330.0,4.0,0.0
9299,51.0,7.0,60.0,4.0,0.0
9300,83.0,8.0,15.0,0.0,0.0
9301,84.0,60.0,15.0,0.0,0.0
9302,83.0,2.0,60.0,0.0,0.0
9303,54.0,51.0,60.0,3.0,0.0
9304,75.0,0.0,120.0,1.0,0.0
9305,54.0,0.0,60.0,4.0,0.0
9306,66.0,0.0,120.0,2.0,0.0
9307,54.0,7.0,60.0,4.0,0.0
9308,81.0,60.0,60.0,0.0,0.0
9309,54.0,0.0,60.0,3.0,0.0
9310,79.0,2.0,60.0,0.0,0.0
9311,63.0,30.0,120.0,2.0,0.0
9312,71.0,0.0,120.0,1.0,0.0
9313,57.0,51.0,15.0,3.0,0.0
9314,57.0,0.0,15.0,4.0,0.0
9315,78.0,0.0,60.0,0.0,0.0
9316,76.0,2.0,60.0,0.0,0.0
9317,66.0,0.0,120.0,2.0,0.0
9318,47.0,0.0,60.0,4.0,0.0
9319,47.0,28.0,60.0,3.0,0.0
9320,71.0,0.0,120.0,1.0,0.0
9321,63.0,0.0,30.0,4.0,0.0
9322,45.0,0.0,60.0,4.0,0.0
9323,66.0,30.0,30.0,4.0,0.0
9324,75.0,2.0,60.0,0.0,0.0
9325,69.0,0.0,30.0,4.0,0.0
9326,45.0,28.0,15.0,3.0,0.0
9327,72.0,30.0,30.0,4.0,0.0
9328,45.0,2.0,60.0,4.0,0.0
9329,75.0,0.0,30.0,4.0,0.0
9330,78.0,23.0,30.0,4.0,0.0
9331,47.0,7.0,60.0,3.0,0.0
9332,47.0,30.0,60.0,4.0,0.0
9333,81.0,0.0,30.0,4.0,0.0
9334,84.0,30.0,30.0,4.0,0.0
9335,83.0,15.0,30.0,4.0,0.0
9336,81.0,15.0,15.0,4.0,0.0
9337,79.0,15.0,15.0,4.0,0.0
9338,81.0,15.0,15.0,4.0,0.0
9339,78.0,15.0,15.0,4.0,0.0
9340,52.0,6.0,60.0,4.0,0.0
9341,78.0,15.0,15.0,4.0,0.0
9342,83.0,0.0,120.0,0.0,0.0
9343,76.0,0.0,120.0,2.0,0.0
9344,79.0,62.0,120.0,1.0,0.0
9345,79.0,8.0,15.0,4.0,0.0
9346,81.0,7.0,15.0,4.0,0.0
9347,79.0,8.0,15.0,4.0,0.0
9348,81.0,7.0,15.0,4.0,0.0
9349,79.0,2.0,15.0,4.0,0.0
9350,52.0,0.0,15.0,3.0,0.0
9351,52.0,7.0,60.0,4.0,0.0
9352,81.0,7.0,15.0,4.0,0.0
9353,79.0,8.0,15.0,4.0,0.0
9354,81.0,7.0,15.0,4.0,0.0
9355,79.0,15.0,15.0,4.0,0.0
9356,81.0,8.0,15.0,4.0,0.0
9357,78.0,0.0,15.0,4.0,0.0
9358,71.0,0.0,120.0,2.0,0.0
9359,76.0,0.0,120.0,1.0,0.0
9360,79.0,60.0,120.0,0.0,0.0
9361,79.0,30.0,270.0,4.0,0.0
9362,55.0,0.0,60.0,3.0,0.0
9363,55.0,51.0,15.0,4.0,0.0
9364,55.0,7.0,60.0,3.0,0.0
9365,59.0,0.0,60.0,4.0,0.0
9366,71.0,2.0,60.0,1.0,0.0
9367,75.0,0.0,120.0,0.0,0.0
9368,67.0,0.0,60.0,2.0,0.0
9369,59.0,51.0,60.0,3.0,0.0
9370,69.0,30.0,60.0,1.0,0.0
9371,59.0,7.0,60.0,3.0,0.0
9372,66.0,0.0,60.0,2.0,0.0
9373,59.0,0.0,60.0,4.0,0.0
9374,48.0,30.0,60.0,3.0,0.0
9375,76.0,0.0,60.0,0.0,0.0
9376,64.0,0.0,120.0,2.0,0.0
9377,48.0,0.0,60.0,4.0,0.0
9378,67.0,15.0,120.0,1.0,0.0
9379,76.0,15.0,60.0,4.0,0.0
9380,75.0,0.0,60.0,0.0,0.0
9381,47.0,0.0,60.0,3.0,0.0
9382,47.0,0.0,60.0,4.0,0.0
9383,77.0,15.0,15.0,4.0,0.0
9384,75.0,0.0,15.0,4.0,0.0
9385,76.0,15.0,15.0,4.0,0.0
9386,47.0,30.0,60.0,4.0,0.0
9387,47.0,0.0,60.0,3.0,0.0
9388,76.0,0.0,120.0,0.0,0.0
9389,74.0,15.0,15.0,4.0,0.0
9390,72.0,15.0,15.0,4.0,0.0
9391,71.0,0.0,15.0,4.0,0.0
9392,48.0,7.0,60.0,3.0,0.0
9393,72.0,23.0,30.0,4.0,0.0
9394,48.0,0.0,60.0,4.0,0.0
9395,68.0,30.0,30.0,4.0,0.0
9396,69.0,30.0,30.0,4.0,0.0
9397,77.0,30.0,30.0,4.0,0.0
9398,76.0,30.0,30.0,4.0,0.0
9399,75.0,62.0,30.0,4.0,0.0
9400,75.0,0.0,390.0,4.0,0.0
9401,54.0,51.0,60.0,4.0,0.0
9402,69.0,60.0,120.0,2.0,0.0
9403,81.0,0.0,120.0,0.0,0.0
9404,75.0,0.0,120.0,1.0,0.0
9405,81.0,30.0,390.0,4.0,0.0
9406,54.0,0.0,15.0,3.0,0.0
9407,54.0,0.0,60.0,4.0,0.0
9408,75.0,2.0,60.0,1.0,0.0
9409,57.0,0.0,60.0,4.0,0.0
9410,72.0,0.0,120.0,2.0,0.0
9411,78.0,0.0,120.0,0.0,0.0
9412,57.0,51.0,15.0,3.0,0.0
9413,57.0,7.0,60.0,4.0,0.0
9414,78.0,60.0,60.0,1.0,0.0
9415,69.0,2.0,60.0,1.0,0.0
9416,66.0,0.0,120.0,2.0,0.0
9417,75.0,30.0,120.0,0.0,0.0
9418,60.0,0.0,15.0,4.0,0.0
9419,60.0,51.0,15.0,3.0,0.0
9420,72.0,0.0,60.0,1.0,0.0
9421,66.0,30.0,120.0,1.0,0.0
9422,71.0,0.0,120.0,2.0,0.0
9423,51.0,0.0,60.0,4.0,0.0
9424,71.0,2.0,60.0,0.0,0.0
9425,80.0,0.0,30.0,4.0,0.0
9426,69.0,0.0,60.0,0.0,0.0
9427,81.0,23.0,30.0,4.0,0.0
9428,51.0,28.0,15.0,3.0,0.0
9429,51.0,0.0,60.0,4.0,0.0
9430,84.0,0.0,30.0,4.0,0.0
9431,71.0,0.0,120.0,0.0,0.0
9432,54.0,0.0,60.0,3.0,0.0
9433,81.0,30.0,30.0,4.0,0.0
9434,80.0,2.0,30.0,4.0,0.0
9435,54.0,0.0,60.0,3.0,0.0
9436,54.0,28.0,15.0,4.0,0.0
9437,81.0,15.0,30.0,4.0,0.0
9438,84.0,8.0,15.0,4.0,0.0
9439,83.0,15.0,15.0,4.0,0.0
9440,81.0,15.0,15.0,4.0,0.0
9441,57.0,43.0,60.0,4.0,0.0
9442,80.0,30.0,15.0,4.0,0.0
9443,81.0,2.0,30.0,4.0,0.0
9444,57.0,0.0,15.0,3.0,0.0
9445,57.0,0.0,60.0,4.0,0.0
9446,89.0,8.0,40.0,4.0,0.0
9447,88.0,15.0,15.0,4.0,0.0
9448,87.0,15.0,15.0,4.0,0.0
9449,72.0,0.0,120.0,1.0,0.0
9450,66.0,62.0,120.0,2.0,0.0
9451,69.0,0.0,120.0,0.0,0.0
9452,88.0,15.0,15.0,4.0,0.0
9453,87.0,15.0,15.0,4.0,0.0
9454,88.0,2.0,15.0,4.0,0.0
9455,88.0,5.0,15.0,4.0,0.0
9456,47.0,0.0,15.0,3.0,0.0
9457,47.0,5.0,15.0,4.0,0.0
9458,90.0,5.0,15.0,4.0,0.0
9459,88.0,15.0,15.0,4.0,0.0
9460,87.0,21.0,15.0,4.0,0.0
9461,88.0,0.0,30.0,4.0,0.0
9462,66.0,0.0,120.0,0.0,0.0
9463,63.0,62.0,120.0,2.0,0.0
9464,90.0,30.0,270.0,4.0,0.0
9465,69.0,0.0,120.0,1.0,0.0
9466,51.0,51.0,15.0,4.0,0.0
9467,51.0,0.0,15.0,3.0,0.0
9468,59.0,0.0,120.0,2.0,0.0
9469,54.0,0.0,60.0,3.0,0.0
9470,66.0,0.0,120.0,1.0,0.0
9471,63.0,30.0,120.0,0.0,0.0
9472,54.0,0.0,60.0,3.0,0.0
9473,54.0,51.0,15.0,4.0,0.0
9474,55.0,0.0,120.0,2.0,0.0
9475,55.0,0.0,60.0,3.0,0.0
9476,59.0,30.0,120.0,0.0,0.0
9477,71.0,0.0,120.0,1.0,0.0
9478,43.0,30.0,60.0,4.0,0.0
9479,88.0,0.0,30.0,4.0,0.0
9480,42.0,0.0,60.0,4.0,0.0
9481,87.0,30.0,30.0,4.0,0.0
9482,54.0,0.0,60.0,3.0,0.0
9483,88.0,0.0,30.0,4.0,0.0
9484,64.0,0.0,120.0,0.0,0.0
9485,55.0,7.0,60.0,3.0,0.0
9486,88.0,23.0,30.0,4.0,0.0
9487,43.0,30.0,60.0,4.0,0.0
9488,86.0,0.0,30.0,4.0,0.0
9489,55.0,0.0,60.0,4.0,0.0
9490,67.0,0.0,60.0,3.0,0.0
9491,84.0,15.0,30.0,4.0,0.0
9492,83.0,15.0,15.0,4.0,0.0
9493,86.0,30.0,15.0,4.0,0.0
9494,51.0,30.0,60.0,4.0,0.0
9495,86.0,30.0,30.0,4.0,0.0
9496,66.0,0.0,60.0,0.0,0.0
9497,63.0,0.0,60.0,3.0,0.0
9498,84.0,0.0,150.0,4.0,0.0
9499,64.0,60.0,60.0,3.0,0.0
9500,52.0,0.0,60.0,4.0,0.0
9501,69.0,30.0,30.0,0.0,0.0
9502,68.0,0.0,30.0,0.0,0.0
9503,64.0,15.0,120.0,2.0,0.0
9504,45.0,30.0,60.0,4.0,0.0
9505,57.0,0.0,60.0,3.0,0.0
9506,69.0,0.0,120.0,1.0,0.0
9507,69.0,0.0,60.0,0.0,0.0
9508,55.0,0.0,60.0,3.0,0.0
9509,43.0,0.0,60.0,4.0,0.0
9510,76.0,0.0,60.0,4.0,0.0
9511,72.0,30.0,30.0,0.0,0.0
9512,71.0,0.0,30.0,0.0,0.0
9513,57.0,7.0,60.0,3.0,0.0
9514,79.0,15.0,15.0,4.0,0.0
9515,45.0,30.0,60.0,4.0,0.0
9516,72.0,0.0,120.0,0.0,0.0
9517,77.0,23.0,15.0,4.0,0.0
9518,76.0,0.0,30.0,4.0,0.0
9519,77.0,30.0,30.0,4.0,0.0
9520,55.0,0.0,60.0,4.0,0.0
9521,67.0,0.0,60.0,3.0,0.0
9522,84.0,30.0,30.0,4.0,0.0
9523,83.0,30.0,30.0,4.0,0.0
9524,51.0,0.0,60.0,4.0,0.0
9525,63.0,30.0,60.0,3.0,0.0
9526,78.0,0.0,60.0,0.0,0.0
9527,81.0,0.0,30.0,4.0,0.0
9528,52.0,0.0,60.0,4.0,0.0
9529,80.0,30.0,30.0,4.0,0.0
9530,64.0,30.0,60.0,3.0,0.0
9531,76.0,0.0,60.0,0.0,0.0
9532,81.0,0.0,30.0,4.0,0.0
9533,78.0,30.0,360.0,1.0,0.0
9534,59.0,0.0,60.0,3.0,0.0
9535,75.0,0.0,120.0,0.0,0.0
9536,71.0,15.0,30.0,4.0,0.0
9537,47.0,60.0,60.0,4.0,0.0
9538,69.0,0.0,360.0,2.0,0.0
9539,75.0,15.0,15.0,4.0,0.0
9540,78.0,0.0,15.0,4.0,0.0
9541,57.0,0.0,60.0,3.0,0.0
9542,45.0,53.0,60.0,4.0,0.0
9543,81.0,0.0,60.0,4.0,0.0
9544,59.0,7.0,60.0,3.0,0.0
9545,78.0,0.0,120.0,0.0,0.0
9546,47.0,60.0,60.0,4.0,0.0
9547,55.0,60.0,60.0,4.0,0.0
9548,67.0,0.0,60.0,3.0,0.0
9549,71.0,0.0,60.0,4.0,0.0
9550,63.0,0.0,60.0,3.0,0.0
9551,51.0,60.0,60.0,4.0,0.0
9552,72.0,0.0,60.0,4.0,0.0
9553,81.0,0.0,120.0,0.0,0.0
9554,64.0,0.0,60.0,3.0,0.0
9555,71.0,0.0,60.0,4.0,0.0
9556,52.0,0.0,60.0,4.0,0.0
9557,76.0,0.0,120.0,1.0,0.0
9558,71.0,15.0,30.0,4.0,0.0
9559,60.0,0.0,120.0,3.0,0.0
9560,48.0,0.0,120.0,4.0,0.0
9561,64.0,0.0,120.0,2.0,0.0
9562,79.0,30.0,120.0,0.0,0.0
9563,79.0,15.0,15.0,4.0,0.0
9564,78.0,30.0,15.0,4.0,0.0
9565,76.0,30.0,30.0,4.0,0.0
9566,72.0,0.0,30.0,4.0,0.0
9567,71.0,30.0,30.0,4.0,0.0
9568,69.0,30.0,30.0,4.0,0.0
9569,64.0,0.0,60.0,3.0,0.0
9570,68.0,30.0,30.0,4.0,0.0
9571,52.0,30.0,60.0,4.0,0.0
9572,69.0,0.0,30.0,4.0,0.0
9573,53.0,0.0,60.0,4.0,0.0
9574,65.0,30.0,60.0,3.0,0.0
9575,69.0,30.0,30.0,4.0,0.0
9576,65.0,0.0,30.0,4.0,0.0
9577,61.0,30.0,30.0,4.0,0.0
9578,50.0,0.0,60.0,4.0,0.0
9579,62.0,8.0,60.0,3.0,0.0
9580,62.0,0.0,30.0,4.0,0.0
9581,77.0,8.0,120.0,0.0,0.0
9582,56.0,0.0,60.0,3.0,0.0
9583,71.0,0.0,120.0,2.0,0.0
9584,74.0,0.0,120.0,1.0,0.0
9585,44.0,6.0,60.0,4.0,0.0
9586,62.0,7.0,15.0,4.0,0.0
9587,64.0,8.0,15.0,4.0,0.0
9588,62.0,7.0,15.0,4.0,0.0
9589,64.0,8.0,15.0,4.0,0.0
9590,62.0,7.0,15.0,4.0,0.0
9591,64.0,8.0,15.0,4.0,0.0
9592,62.0,7.0,15.0,4.0,0.0
9593,64.0,2.0,15.0,4.0,0.0
9594,56.0,7.0,60.0,3.0,0.0
9595,62.0,7.0,15.0,4.0,0.0
9596,44.0,0.0,60.0,4.0,0.0
9597,64.0,8.0,15.0,4.0,0.0
9598,62.0,7.0,15.0,4.0,0.0
9599,64.0,8.0,15.0,4.0,0.0
9600,62.0,7.0,15.0,4.0,0.0
9601,64.0,8.0,15.0,4.0,0.0
9602,62.0,0.0,15.0,4.0,0.0
9603,64.0,0.0,15.0,4.0,0.0
9604,62.0,7.0,15.0,4.0,0.0
9605,71.0,0.0,120.0,1.0,0.0
9606,59.0,6.0,60.0,3.0,0.0
9607,68.0,0.0,120.0,2.0,0.0
9608,74.0,0.0,120.0,0.0,0.0
9609,64.0,8.0,15.0,4.0,0.0
9610,62.0,7.0,15.0,4.0,0.0
9611,64.0,8.0,15.0,4.0,0.0
9612,62.0,7.0,15.0,4.0,0.0
9613,64.0,8.0,15.0,4.0,0.0
9614,62.0,7.0,15.0,4.0,0.0
9615,64.0,2.0,15.0,4.0,0.0
9616,47.0,0.0,15.0,4.0,0.0
9617,62.0,7.0,15.0,4.0,0.0
9618,59.0,0.0,60.0,3.0,0.0
9619,64.0,8.0,15.0,4.0,0.0
9620,62.0,7.0,15.0,4.0,0.0
9621,64.0,8.0,15.0,4.0,0.0
9622,62.0,7.0,15.0,4.0,0.0
9623,64.0,8.0,15.0,4.0,0.0
9624,62.0,7.0,15.0,4.0,0.0
9625,64.0,8.0,15.0,4.0,0.0
9626,65.0,60.0,120.0,2.0,0.0
9627,68.0,0.0,120.0,1.0,0.0
9628,71.0,0.0,120.0,0.0,0.0
9629,62.0,7.0,15.0,4.0,0.0
9630,64.0,8.0,15.0,4.0,0.0
9631,62.0,7.0,15.0,4.0,0.0
9632,64.0,8.0,15.0,4.0,0.0
9633,62.0,7.0,15.0,4.0,0.0
9634,64.0,8.0,15.0,4.0,0.0
9635,62.0,7.0,15.0,4.0,0.0
9636,64.0,2.0,15.0,4.0,0.0
9637,62.0,0.0,15.0,3.0,0.0
9638,50.0,6.0,15.0,4.0,0.0
9639,62.0,7.0,15.0,4.0,0.0
9640,64.0,8.0,15.0,4.0,0.0
9641,62.0,7.0,15.0,4.0,0.0
9642,64.0,8.0,15.0,4.0,0.0
9643,62.0,7.0,15.0,4.0,0.0
9644,64.0,8.0,15.0,4.0,0.0
9645,62.0,7.0,15.0,4.0,0.0
9646,64.0,0.0,15.0,4.0,0.0
9647,53.0,0.0,120.0,3.0,0.0
9648,62.0,8.0,60.0,4.0,0.0
9649,41.0,30.0,120.0,4.0,0.0
9650,71.0,0.0,120.0,2.0,0.0
9651,68.0,0.0,120.0,0.0,0.0
9652,74.0,0.0,120.0,1.0,0.0
9653,59.0,7.0,15.0,4.0,0.0
9654,60.0,8.0,15.0,4.0,0.0
9655,59.0,7.0,15.0,4.0,0.0
9656,57.0,30.0,15.0,4.0,0.0
9657,59.0,0.0,30.0,4.0,0.0
9658,60.0,60.0,30.0,4.0,0.0
9659,65.0,30.0,60.0,4.0,0.0
9660,71.0,0.0,60.0,1.0,0.0
9661,80.0,30.0,60.0,0.0,0.0
9662,74.0,0.0,60.0,2.0,0.0
9663,59.0,0.0,60.0,4.0,0.0
9664,59.0,0.0,60.0,3.0,0.0
9665,64.0,0.0,30.0,4.0,0.0
9666,72.0,60.0,60.0,2.0,0.0
9667,60.0,0.0,60.0,4.0,0.0
9668,81.0,0.0,60.0,0.0,0.0
9669,69.0,0.0,60.0,1.0,0.0
9670,64.0,30.0,30.0,4.0,0.0
9671,60.0,0.0,60.0,3.0,0.0
9672,69.0,30.0,120.0,4.0,0.0
9673,57.0,30.0,60.0,4.0,0.0
9674,72.0,0.0,60.0,2.0,0.0
9675,57.0,0.0,60.0,3.0,0.0
9676,69.0,0.0,60.0,1.0,0.0
9677,79.0,0.0,60.0,0.0,0.0
9678,66.0,0.0,60.0,2.0,0.0
9679,63.0,0.0,60.0,3.0,0.0
9680,69.0,0.0,60.0,1.0,0.0
9681,63.0,30.0,60.0,4.0,0.0
9682,78.0,0.0,60.0,0.0,0.0
9683,72.0,0.0,30.0,4.0,0.0
9684,67.0,0.0,60.0,1.0,0.0
9685,70.0,30.0,30.0,4.0,0.0
9686,64.0,0.0,60.0,4.0,0.0
9687,67.0,0.0,60.0,2.0,0.0
9688,76.0,30.0,60.0,0.0,0.0
9689,64.0,0.0,60.0,3.0,0.0
9690,71.0,0.0,30.0,4.0,0.0
9691,63.0,30.0,60.0,2.0,0.0
9692,59.0,30.0,120.0,3.0,0.0
9693,71.0,0.0,120.0,1.0,0.0
9694,79.0,0.0,120.0,0.0,0.0
9695,71.0,30.0,30.0,4.0,0.0
9696,59.0,0.0,120.0,4.0,0.0
9697,79.0,30.0,60.0,4.0,0.0
9698,64.0,0.0,60.0,2.0,0.0
9699,78.0,0.0,30.0,4.0,0.0
9700,71.0,0.0,120.0,1.0,0.0
9701,66.0,60.0,60.0,2.0,0.0
9702,76.0,30.0,30.0,4.0,0.0
9703,47.0,0.0,120.0,4.0,0.0
9704,47.0,0.0,120.0,3.0,0.0
9705,81.0,0.0,60.0,0.0,0.0
9706,75.0,0.0,30.0,4.0,0.0
9707,78.0,0.0,60.0,0.0,0.0
9708,76.0,0.0,60.0,4.0,0.0
9709,69.0,60.0,60.0,2.0,0.0
9710,76.0,30.0,60.0,4.0,0.0
9711,67.0,0.0,120.0,2.0,0.0
9712,52.0,0.0,120.0,3.0,0.0
9713,71.0,0.0,120.0,1.0,0.0
9714,76.0,15.0,120.0,0.0,0.0
9715,52.0,0.0,120.0,4.0,0.0
9716,71.0,15.0,15.0,4.0,0.0
9717,73.0,15.0,15.0,4.0,0.0
9718,75.0,0.0,15.0,4.0,0.0
9719,76.0,15.0,15.0,4.0,0.0
9720,78.0,15.0,15.0,4.0,0.0
9721,79.0,15.0,15.0,4.0,0.0
9722,78.0,15.0,15.0,4.0,0.0
9723,76.0,15.0,15.0,4.0,0.0
9724,74.0,15.0,15.0,4.0,0.0
9725,73.0,15.0,15.0,4.0,0.0
9726,74.0,15.0,15.0,4.0,0.0
9727,76.0,15.0,15.0,4.0,0.0
9728,70.0,15.0,15.0,4.0,0.0
9729,71.0,15.0,15.0,4.0,0.0
9730,73.0,15.0,15.0,4.0,0.0
9731,71.0,15.0,15.0,4.0,0.0
9732,70.0,15.0,15.0,4.0,0.0
9733,68.0,15.0,15.0,4.0,0.0
9734,66.0,62.0,15.0,4.0,0.0
9735,82.0,15.0,120.0,4.0,0.0
9736,49.0,0.0,60.0,4.0,0.0
9737,79.0,0.0,120.0,0.0,0.0
9738,76.0,0.0,120.0,1.0,0.0
9739,61.0,15.0,120.0,2.0,0.0
9740,49.0,0.0,60.0,4.0,0.0
9741,49.0,51.0,15.0,3.0,0.0
9742,52.0,28.0,60.0,3.0,0.0
9743,73.0,0.0,120.0,1.0,0.0
9744,76.0,15.0,120.0,0.0,0.0
9745,67.0,0.0,120.0,2.0,0.0
9746,83.0,15.0,15.0,4.0,0.0
9747,82.0,15.0,15.0,4.0,0.0
9748,80.0,2.0,15.0,4.0,0.0
9749,82.0,23.0,30.0,4.0,0.0
9750,52.0,0.0,15.0,4.0,0.0
9751,52.0,7.0,60.0,3.0,0.0
9752,83.0,0.0,30.0,4.0,0.0
9753,55.0,13.0,60.0,4.0,0.0
9754,85.0,15.0,15.0,4.0,0.0
9755,55.0,0.0,60.0,3.0,0.0
9756,62.0,0.0,120.0,2.0,0.0
9757,71.0,30.0,120.0,1.0,0.0
9758,73.0,0.0,120.0,0.0,0.0
9759,83.0,8.0,15.0,4.0,0.0
9760,85.0,7.0,15.0,4.0,0.0
9761,83.0,8.0,15.0,4.0,0.0
9762,85.0,7.0,15.0,4.0,0.0
9763,83.0,2.0,15.0,4.0,0.0
9764,54.0,7.0,60.0,4.0,0.0
9765,85.0,15.0,15.0,4.0,0.0
9766,55.0,0.0,60.0,3.0,0.0
9767,83.0,15.0,15.0,4.0,0.0
9768,82.0,8.0,15.0,4.0,0.0
9769,83.0,0.0,15.0,4.0,0.0
9770,85.0,30.0,30.0,4.0,0.0
9771,46.0,28.0,60.0,3.0,0.0
9772,67.0,0.0,120.0,1.0,0.0
9773,76.0,30.0,120.0,0.0,0.0
9774,61.0,0.0,120.0,2.0,0.0
9775,46.0,0.0,60.0,4.0,0.0
9776,79.0,2.0,30.0,4.0,0.0
9777,76.0,23.0,30.0,4.0,0.0
9778,46.0,0.0,60.0,4.0,0.0
9779,46.0,7.0,60.0,3.0,0.0
9780,75.0,0.0,30.0,4.0,0.0
9781,49.0,2.0,60.0,4.0,0.0
9782,76.0,30.0,30.0,4.0,0.0
9783,64.0,15.0,120.0,1.0,0.0
9784,58.0,0.0,120.0,2.0,0.0
9785,73.0,0.0,120.0,0.0,0.0
9786,49.0,28.0,60.0,3.0,0.0
9787,79.0,0.0,30.0,4.0,0.0
9788,49.0,0.0,60.0,4.0,0.0
9789,82.0,23.0,30.0,4.0,0.0
9790,49.0,7.0,60.0,3.0,0.0
9791,83.0,0.0,30.0,4.0,0.0
9792,52.0,0.0,60.0,4.0,0.0
9793,85.0,15.0,15.0,4.0,0.0
9794,61.0,0.0,120.0,1.0,0.0
9795,54.0,15.0,120.0,2.0,0.0
9796,70.0,0.0,120.0,0.0,0.0
9797,86.0,15.0,15.0,4.0,0.0
9798,85.0,15.0,15.0,4.0,0.0
9799,83.0,2.0,15.0,4.0,0.0
9800,85.0,23.0,30.0,4.0,0.0
9801,52.0,0.0,60.0,4.0,0.0
9802,52.0,28.0,15.0,3.0,0.0
9803,86.0,0.0,30.0,4.0,0.0
9804,66.0,0.0,120.0,0.0,0.0
9805,88.0,15.0,15.0,4.0,0.0
9806,42.0,0.0,120.0,3.0,0.0
9807,42.0,30.0,120.0,4.0,0.0
9808,70.0,0.0,120.0,2.0,0.0
9809,61.0,0.0,120.0,1.0,0.0
9810,86.0,15.0,15.0,4.0,0.0
9811,85.0,15.0,15.0,4.0,0.0
9812,83.0,15.0,15.0,4.0,0.0
9813,82.0,15.0,15.0,4.0,0.0
9814,83.0,30.0,15.0,4.0,0.0
9815,85.0,0.0,30.0,4.0,0.0
9816,79.0,60.0,30.0,4.0,0.0
9817,77.0,30.0,60.0,4.0,0.0
9818,78.0,15.0,30.0,4.0,0.0
9819,78.0,30.0,15.0,4.0,0.0
9820,88.0,8.0,30.0,4.0,0.0
9821,86.0,7.0,15.0,4.0,0.0
9822,85.0,30.0,15.0,4.0,0.0
9823,83.0,30.0,30.0,4.0,0.0
9824,82.0,62.0,30.0,4.0,0.0
9825,78.0,0.0,120.0,0.0,0.0
9826,71.0,0.0,120.0,2.0,0.0
9827,59.0,28.0,60.0,4.0,0.0
9828,83.0,8.0,90.0,4.0,0.0
9829,74.0,0.0,120.0,1.0,0.0
9830,59.0,0.0,60.0,3.0,0.0
9831,59.0,0.0,60.0,4.0,0.0
9832,59.0,7.0,60.0,3.0,0.0
9833,84.0,7.0,15.0,4.0,0.0
9834,83.0,8.0,15.0,4.0,0.0
9835,82.0,30.0,15.0,4.0,0.0
9836,82.0,32.0,30.0,4.0,0.0
9837,62.0,0.0,60.0,3.0,0.0
9838,71.0,0.0,120.0,1.0,0.0
9839,74.0,60.0,120.0,0.0,0.0
9840,66.0,0.0,120.0,2.0,0.0
9841,83.0,30.0,240.0,4.0,0.0
9842,62.0,51.0,15.0,4.0,0.0
9843,62.0,7.0,60.0,3.0,0.0
9844,66.0,2.0,60.0,1.0,0.0
9845,62.0,0.0,60.0,2.0,0.0
9846,66.0,0.0,60.0,3.0,0.0
9847,70.0,0.0,120.0,0.0,0.0
9848,61.0,30.0,60.0,2.0,0.0
9849,66.0,51.0,15.0,4.0,0.0
9850,64.0,0.0,60.0,1.0,0.0
9851,66.0,0.0,60.0,3.0,0.0
9852,55.0,30.0,60.0,3.0,0.0
9853,55.0,0.0,60.0,4.0,0.0
9854,71.0,0.0,60.0,0.0,0.0
9855,62.0,15.0,120.0,1.0,0.0
9856,59.0,0.0,120.0,2.0,0.0
9857,71.0,0.0,30.0,4.0,0.0
9858,73.0,15.0,30.0,4.0,0.0
9859,54.0,0.0,60.0,4.0,0.0
9860,54.0,0.0,60.0,3.0,0.0
9861,70.0,0.0,60.0,0.0,0.0
9862,76.0,15.0,15.0,4.0,0.0
9863,75.0,0.0,15.0,4.0,0.0
9864,54.0,0.0,60.0,4.0,0.0
9865,76.0,15.0,15.0,4.0,0.0
9866,54.0,0.0,60.0,3.0,0.0
9867,71.0,0.0,120.0,0.0,0.0
9868,71.0,15.0,15.0,4.0,0.0
9869,73.0,15.0,15.0,4.0,0.0
9870,75.0,30.0,15.0,4.0,0.0
9871,55.0,45.0,60.0,3.0,0.0
9872,76.0,15.0,30.0,4.0,0.0
9873,55.0,0.0,60.0,4.0,0.0
9874,79.0,15.0,15.0,4.0,0.0
9875,78.0,0.0,15.0,4.0,0.0
9876,79.0,5.0,40.0,4.0,0.0
9877,78.0,6.0,15.0,4.0,0.0
9878,76.0,4.0,15.0,4.0,0.0
9879,75.0,30.0,15.0,4.0,0.0
9880,76.0,15.0,30.0,4.0,0.0
9881,79.0,15.0,15.0,4.0,0.0
9882,83.0,62.0,15.0,4.0,0.0
9883,61.0,0.0,60.0,4.0,0.0
9884,88.0,15.0,480.0,4.0,0.0
9885,70.0,60.0,120.0,1.0,0.0
9886,76.0,0.0,120.0,0.0,0.0
9887,64.0,0.0,120.0,2.0,0.0
9888,61.0,0.0,60.0,4.0,0.0
9889,61.0,51.0,15.0,3.0,0.0
9890,73.0,60.0,120.0,0.0,0.0
9891,67.0,0.0,120.0,2.0,0.0
9892,70.0,2.0,60.0,1.0,0.0
9893,73.0,0.0,60.0,1.0,0.0
9894,64.0,0.0,15.0,3.0,0.0
9895,64.0,51.0,15.0,4.0,0.0
9896,67.0,51.0,60.0,3.0,0.0
9897,67.0,0.0,60.0,4.0,0.0
9898,61.0,0.0,120.0,2.0,0.0
9899,70.0,0.0,120.0,0.0,0.0
9900,64.0,2.0,60.0,1.0,0.0
9901,67.0,60.0,60.0,1.0,0.0
9902,67.0,0.0,60.0,4.0,0.0
9903,67.0,7.0,60.0,3.0,0.0
9904,66.0,0.0,120.0,2.0,0.0
9905,66.0,2.0,60.0,0.0,0.0
9906,61.0,0.0,120.0,1.0,0.0
9907,58.0,51.0,60.0,4.0,0.0
9908,64.0,15.0,60.0,0.0,0.0
9909,58.0,0.0,15.0,3.0,0.0
9910,58.0,0.0,60.0,4.0,0.0
9911,61.0,0.0,60.0,3.0,0.0
9912,66.0,30.0,120.0,0.0,0.0
9913,86.0,15.0,15.0,4.0,0.0
9914,88.0,15.0,15.0,4.0,0.0
9915,90.0,2.0,15.0,4.0,0.0
9916,88.0,15.0,15.0,4.0,0.0
9917,61.0,13.0,15.0,4.0,0.0
9918,61.0,0.0,60.0,3.0,0.0
9919,86.0,15.0,15.0,4.0,0.0
9920,85.0,8.0,15.0,4.0,0.0
9921,83.0,0.0,15.0,4.0,0.0
9922,64.0,51.0,60.0,3.0,0.0
9923,64.0,0.0,60.0,4.0,0.0
9924,83.0,32.0,30.0,4.0,0.0
9925,82.0,13.0,120.0,4.0,0.0
9926,64.0,0.0,60.0,4.0,0.0
9927,64.0,24.0,60.0,3.0,0.0
9928,73.0,2.0,60.0,0.0,0.0
9929,66.0,0.0,120.0,1.0,0.0
9930,54.0,0.0,60.0,4.0,0.0
9931,70.0,60.0,120.0,2.0,0.0
9932,80.0,15.0,15.0,4.0,0.0
9933,82.0,15.0,15.0,4.0,0.0
9934,86.0,0.0,15.0,4.0,0.0
9935,71.0,0.0,60.0,0.0,0.0
9936,54.0,13.0,15.0,3.0,0.0
9937,85.0,15.0,15.0,4.0,0.0
9938,54.0,7.0,60.0,4.0,0.0
9939,83.0,15.0,15.0,4.0,0.0
9940,82.0,8.0,15.0,4.0,0.0
9941,80.0,0.0,15.0,4.0,0.0
9942,79.0,2.0,60.0,4.0,0.0
9943,73.0,0.0,120.0,0.0,0.0
9944,58.0,0.0,15.0,3.0,0.0
9945,58.0,28.0,15.0,4.0,0.0
9946,78.0,15.0,15.0,4.0,0.0
9947,79.0,8.0,15.0,4.0,0.0
9948,81.0,15.0,15.0,4.0,0.0
9949,79.0,15.0,15.0,4.0,0.0
9950,82.0,30.0,15.0,4.0,0.0
9951,83.0,2.0,30.0,4.0,0.0
9952,61.0,13.0,15.0,3.0,0.0
9953,61.0,0.0,15.0,4.0,0.0
9954,82.0,15.0,15.0,4.0,0.0
9955,83.0,15.0,15.0,4.0,0.0
9956,82.0,8.0,15.0,4.0,0.0
9957,82.0,0.0,15.0,4.0,0.0
9958,80.0,0.0,15.0,4.0,0.0
9959,50.0,0.0,60.0,3.0,0.0
9960,83.0,23.0,150.0,4.0,0.0
9961,50.0,0.0,60.0,4.0,0.0
9962,66.0,30.0,120.0,1.0,0.0
9963,62.0,60.0,60.0,2.0,0.0
9964,71.0,0.0,120.0,0.0,0.0
9965,64.0,0.0,60.0,2.0,0.0
9966,49.0,0.0,60.0,4.0,0.0
9967,49.0,0.0,60.0,3.0,0.0
9968,66.0,30.0,60.0,2.0,0.0
9969,74.0,0.0,60.0,0.0,0.0
9970,50.0,7.0,60.0,3.0,0.0
9971,50.0,0.0,60.0,4.0,0.0
9972,71.0,0.0,120.0,1.0,0.0
9973,85.0,0.0,30.0,4.0,0.0
9974,83.0,15.0,30.0,4.0,0.0
9975,78.0,0.0,60.0,0.0,0.0
9976,62.0,0.0,60.0,3.0,0.0
9977,62.0,0.0,60.0,4.0,0.0
9978,74.0,15.0,60.0,2.0,0.0
9979,81.0,15.0,30.0,4.0,0.0
9980,58.0,0.0,60.0,3.0,0.0
9981,73.0,0.0,60.0,1.0,0.0
9982,73.0,0.0,60.0,2.0,0.0
9983,76.0,0.0,60.0,0.0,0.0
9984,79.0,45.0,15.0,4.0,0.0
9985,58.0,0.0,60.0,4.0,0.0
9986,78.0,15.0,40.0,4.0,0.0
9987,59.0,0.0,60.0,4.0,0.0
9988,81.0,45.0,15.0,4.0,0.0
9989,71.0,0.0,60.0,2.0,0.0
9990,59.0,0.0,60.0,3.0,0.0
9991,74.0,0.0,60.0,0.0,0.0
9992,74.0,60.0,60.0,1.0,0.0
9993,79.0,0.0,40.0,4.0,0.0
9994,73.0,0.0,480.0,1.0,0.0
9995,79.0,0.0,120.0,0.0,0.0
9996,52.0,0.0,60.0,4.0,0.0
9997,79.0,23.0,150.0,4.0,0.0
9998,52.0,60.0,60.0,3.0,0.0
9999,71.0,0.0,360.0,2.0,0.0
10000,50.0,30.0,60.0,4.0,0.0
10001,50.0,0.0,60.0,3.0,0.0
10002,52.0,7.0,60.0,3.0,0.0
10003,83.0,0.0,120.0,0.0,0.0
10004,52.0,30.0,60.0,4.0,0.0
10005,81.0,0.0,30.0,4.0,0.0
10006,79.0,30.0,30.0,4.0,0.0
10007,62.0,0.0,60.0,4.0,0.0
10008,62.0,15.0,60.0,3.0,0.0
10009,78.0,0.0,30.0,4.0,0.0
10010,76.0,45.0,15.0,4.0,0.0
10011,79.0,0.0,120.0,0.0,0.0
10012,58.0,15.0,60.0,3.0,0.0
10013,58.0,0.0,60.0,4.0,0.0
10014,75.0,0.0,40.0,4.0,0.0
10015,78.0,45.0,15.0,4.0,0.0
10016,59.0,60.0,60.0,4.0,0.0
10017,59.0,0.0,60.0,3.0,0.0
10018,76.0,0.0,40.0,4.0,0.0
10019,70.0,0.0,120.0,2.0,0.0
10020,76.0,0.0,120.0,0.0,0.0
10021,54.0,60.0,60.0,3.0,0.0
10022,76.0,23.0,150.0,4.0,0.0
10023,54.0,0.0,60.0,4.0,0.0
10024,52.0,0.0,60.0,3.0,0.0
10025,52.0,30.0,60.0,4.0,0.0
10026,54.0,7.0,60.0,3.0,0.0
10027,79.0,0.0,120.0,0.0,0.0
10028,73.0,0.0,120.0,2.0,0.0
10029,54.0,0.0,60.0,4.0,0.0
10030,76.0,0.0,120.0,1.0,0.0
10031,83.0,30.0,30.0,4.0,0.0
10032,62.0,30.0,60.0,4.0,0.0
10033,62.0,0.0,60.0,3.0,0.0
10034,82.0,15.0,30.0,4.0,0.0
10035,83.0,15.0,15.0,4.0,0.0
10036,85.0,0.0,15.0,4.0,0.0
10037,79.0,0.0,30.0,4.0,0.0
10038,66.0,30.0,120.0,2.0,0.0
10039,58.0,0.0,60.0,4.0,0.0
10040,73.0,0.0,120.0,1.0,0.0
10041,58.0,8.0,60.0,3.0,0.0
10042,78.0,30.0,30.0,0.0,0.0
10043,79.0,0.0,30.0,0.0,0.0
10044,76.0,0.0,30.0,4.0,0.0
10045,59.0,0.0,60.0,3.0,0.0
10046,76.0,0.0,60.0,0.0,0.0
10047,59.0,0.0,60.0,4.0,0.0
10048,74.0,7.0,15.0,4.0,0.0
10049,76.0,15.0,15.0,4.0,0.0
10050,74.0,30.0,15.0,4.0,0.0
10051,73.0,0.0,30.0,4.0,0.0
10052,55.0,0.0,120.0,3.0,0.0
10053,55.0,0.0,120.0,4.0,0.0
10054,71.0,0.0,120.0,2.0,0.0
10055,71.0,30.0,120.0,1.0,0.0
10056,74.0,30.0,30.0,0.0,0.0
10057,71.0,0.0,30.0,4.0,0.0
10058,76.0,0.0,30.0,0.0,0.0
10059,70.0,8.0,30.0,4.0,0.0
10060,73.0,0.0,60.0,0.0,0.0
10061,71.0,7.0,15.0,4.0,0.0
10062,73.0,15.0,15.0,4.0,0.0
10063,71.0,30.0,15.0,4.0,0.0
10064,74.0,0.0,30.0,4.0,0.0
10065,67.0,30.0,30.0,4.0,0.0
10066,71.0,30.0,120.0,0.0,0.0
10067,66.0,8.0,30.0,4.0,0.0
10068,59.0,0.0,60.0,3.0,0.0
10069,67.0,7.0,15.0,4.0,0.0
10070,59.0,0.0,60.0,4.0,0.0
10071,69.0,15.0,15.0,4.0,0.0
10072,67.0,30.0,15.0,4.0,0.0
10073,71.0,0.0,30.0,4.0,0.0
10074,60.0,0.0,60.0,3.0,0.0
10075,60.0,0.0,60.0,4.0,0.0
10076,64.0,30.0,30.0,4.0,0.0
10077,63.0,8.0,30.0,4.0,0.0
10078,57.0,0.0,60.0,3.0,0.0
10079,57.0,30.0,60.0,4.0,0.0
10080,64.0,7.0,15.0,4.0,0.0
10081,66.0,15.0,15.0,4.0,0.0
10082,64.0,30.0,15.0,4.0,0.0
10083,67.0,0.0,30.0,4.0,0.0
10084,51.0,28.0,60.0,3.0,0.0
10085,60.0,30.0,30.0,4.0,0.0
10086,51.0,2.0,60.0,4.0,0.0
10087,63.0,30.0,120.0,2.0,0.0
10088,81.0,0.0,480.0,0.0,0.0
10089,78.0,30.0,480.0,1.0,0.0
10090,59.0,0.0,30.0,4.0,0.0
10091,60.0,23.0,30.0,4.0,0.0
10092,51.0,0.0,60.0,4.0,0.0
10093,51.0,7.0,60.0,3.0,0.0
10094,66.0,0.0,30.0,4.0,0.0
10095,54.0,2.0,60.0,4.0,0.0
10096,69.0,30.0,30.0,4.0,0.0
10097,54.0,28.0,60.0,3.0,0.0
10098,72.0,30.0,120.0,2.0,0.0
10099,67.0,0.0,30.0,4.0,0.0
10100,69.0,23.0,30.0,4.0,0.0
10101,54.0,7.0,60.0,3.0,0.0
10102,54.0,0.0,60.0,4.0,0.0
10103,72.0,0.0,30.0,4.0,0.0
10104,57.0,0.0,60.0,4.0,0.0
10105,66.0,30.0,30.0,4.0,0.0
10106,69.0,30.0,120.0,2.0,0.0
10107,57.0,28.0,60.0,3.0,0.0
10108,64.0,2.0,30.0,4.0,0.0
10109,57.0,0.0,60.0,4.0,0.0
10110,57.0,7.0,60.0,3.0,0.0
10111,66.0,23.0,30.0,4.0,0.0
10112,69.0,0.0,30.0,4.0,0.0
10113,66.0,0.0,120.0,2.0,0.0
10114,48.0,0.0,120.0,3.0,0.0
10115,63.0,30.0,30.0,4.0,0.0
10116,48.0,0.0,120.0,4.0,0.0
10117,66.0,30.0,30.0,4.0,0.0
10118,69.0,30.0,30.0,4.0,0.0
10119,72.0,0.0,30.0,4.0,0.0
10120,71.0,30.0,30.0,4.0,0.0
10121,69.0,8.0,30.0,4.0,0.0
10122,81.0,30.0,60.0,1.0,0.0
10123,54.0,0.0,60.0,4.0,0.0
10124,54.0,0.0,60.0,3.0,0.0
10125,84.0,0.0,60.0,0.0,0.0
10126,75.0,0.0,60.0,2.0,0.0
10127,67.0,7.0,15.0,4.0,0.0
10128,69.0,15.0,15.0,4.0,0.0
10129,67.0,30.0,15.0,4.0,0.0
10130,66.0,0.0,30.0,4.0,0.0
10131,55.0,0.0,60.0,3.0,0.0
10132,83.0,0.0,60.0,0.0,0.0
10133,76.0,0.0,60.0,2.0,0.0
10134,79.0,0.0,60.0,1.0,0.0
10135,64.0,30.0,30.0,4.0,0.0
10136,55.0,0.0,60.0,4.0,0.0
10137,67.0,30.0,30.0,4.0,0.0
10138,81.0,0.0,60.0,0.0,0.0
10139,52.0,0.0,60.0,4.0,0.0
10140,71.0,30.0,30.0,4.0,0.0
10141,52.0,0.0,60.0,3.0,0.0
10142,78.0,0.0,60.0,1.0,0.0
10143,71.0,30.0,60.0,2.0,0.0
10144,75.0,0.0,30.0,4.0,0.0
10145,76.0,0.0,60.0,1.0,0.0
10146,58.0,0.0,60.0,3.0,0.0
10147,79.0,0.0,60.0,0.0,0.0
10148,73.0,30.0,60.0,2.0,0.0
10149,58.0,0.0,60.0,4.0,0.0
10150,76.0,30.0,30.0,4.0,0.0
10151,79.0,0.0,30.0,4.0,0.0
10152,71.0,0.0,60.0,1.0,0.0
10153,59.0,30.0,60.0,3.0,0.0
10154,77.0,30.0,30.0,4.0,0.0
10155,59.0,0.0,60.0,4.0,0.0
10156,75.0,0.0,60.0,0.0,0.0
10157,71.0,0.0,60.0,2.0,0.0
10158,75.0,0.0,30.0,4.0,0.0
10159,71.0,30.0,120.0,1.0,0.0
10160,76.0,0.0,120.0,0.0,0.0
10161,64.0,0.0,120.0,2.0,0.0
10162,55.0,0.0,120.0,3.0,0.0
10163,76.0,30.0,30.0,4.0,0.0
10164,55.0,0.0,120.0,4.0,0.0
10165,79.0,30.0,30.0,4.0,0.0
10166,84.0,30.0,30.0,4.0,0.0
10167,82.0,0.0,30.0,4.0,0.0
10168,83.0,30.0,30.0,4.0,0.0
10169,79.0,30.0,30.0,4.0,0.0
10170,77.0,30.0,30.0,4.0,0.0
10171,78.0,30.0,30.0,4.0,0.0
10172,80.0,0.0,120.0,1.0,0.0
10173,65.0,0.0,120.0,2.0,0.0
10174,86.0,30.0,30.0,4.0,0.0
10175,53.0,60.0,120.0,4.0,0.0
10176,83.0,0.0,60.0,0.0,0.0
10177,53.0,0.0,120.0,3.0,0.0
10178,84.0,30.0,30.0,4.0,0.0
10179,82.0,0.0,30.0,4.0,0.0
10180,85.0,30.0,30.0,0.0,0.0
10181,86.0,0.0,30.0,0.0,0.0
10182,83.0,0.0,30.0,4.0,0.0
10183,88.0,15.0,150.0,4.0,0.0
10184,54.0,45.0,120.0,4.0,0.0
10185,83.0,0.0,120.0,0.0,0.0
10186,61.0,60.0,60.0,2.0,0.0
10187,78.0,0.0,120.0,1.0,0.0
10188,54.0,0.0,120.0,3.0,0.0
10189,62.0,0.0,60.0,2.0,0.0
10190,64.0,0.0,60.0,2.0,0.0
10191,42.0,0.0,120.0,3.0,0.0
10192,82.0,0.0,90.0,0.0,0.0
10193,42.0,0.0,120.0,4.0,0.0
10194,78.0,0.0,120.0,1.0,0.0
10195,86.0,15.0,15.0,4.0,0.0
10196,66.0,0.0,60.0,2.0,0.0
10197,85.0,15.0,15.0,4.0,0.0
10198,83.0,30.0,15.0,4.0,0.0
10199,85.0,0.0,30.0,4.0,0.0
10200,83.0,75.0,30.0,0.0,0.0
10201,83.0,0.0,120.0,0.0,0.0
10202,62.0,0.0,120.0,2.0,0.0
10203,47.0,0.0,120.0,4.0,0.0
10204,78.0,0.0,120.0,1.0,0.0
10205,83.0,15.0,60.0,4.0,0.0
10206,47.0,15.0,120.0,3.0,0.0
10207,86.0,15.0,15.0,4.0,0.0
10208,85.0,15.0,15.0,4.0,0.0
10209,83.0,0.0,15.0,4.0,0.0
10210,81.0,15.0,15.0,4.0,0.0
10211,79.0,15.0,15.0,4.0,0.0
10212,78.0,15.0,15.0,4.0,0.0
10213,76.0,15.0,15.0,4.0,0.0
10214,74.0,15.0,15.0,4.0,0.0
10215,76.0,8.0,15.0,4.0,0.0
10216,76.0,7.0,15.0,4.0,0.0
10217,78.0,8.0,15.0,4.0,0.0
10218,74.0,7.0,15.0,4.0,0.0
10219,76.0,8.0,15.0,4.0,0.0
10220,78.0,7.0,15.0,4.0,0.0
10221,74.0,8.0,15.0,4.0,0.0
10222,71.0,7.0,15.0,4.0,0.0
10223,69.0,8.0,15.0,4.0,0.0
10224,71.0,7.0,15.0,4.0,0.0
10225,66.0,8.0,15.0,4.0,0.0
10226,62.0,7.0,15.0,4.0,0.0
10227,64.0,8.0,15.0,4.0,0.0
10228,66.0,7.0,15.0,4.0,0.0
10229,64.0,8.0,15.0,4.0,0.0
10230,62.0,7.0,15.0,4.0,0.0
10231,64.0,15.0,15.0,4.0,0.0
10232,66.0,15.0,15.0,4.0,0.0
10233,62.0,60.0,15.0,4.0,0.0
10234,59.0,2.0,60.0,4.0,0.0
10235,71.0,0.0,60.0,1.0,0.0
10236,71.0,0.0,60.0,2.0,0.0
10237,59.0,0.0,60.0,3.0,0.0
10238,62.0,6.0,90.0,4.0,0.0
10239,66.0,5.0,90.0,4.0,0.0
10240,71.0,2.0,60.0,4.0,0.0
10241,59.0,5.0,40.0,4.0,0.0
10242,74.0,3.0,60.0,4.0,0.0
10243,59.0,0.0,60.0,3.0,0.0
10244,71.0,2.0,60.0,2.0,0.0
10245,71.0,0.0,60.0,1.0,0.0
10246,71.0,35.0,15.0,0.0,0.0
10247,78.0,58.0,40.0,4.0,0.0
10248,83.0,2.0,30.0,4.0,0.0
10249,62.0,0.0,60.0,3.0,0.0
10250,62.0,2.0,60.0,4.0,0.0
10251,74.0,0.0,60.0,0.0,0.0
10252,62.0,0.0,60.0,4.0,0.0
10253,74.0,51.0,15.0,2.0,0.0
10254,74.0,0.0,15.0,1.0,0.0
10255,74.0,0.0,60.0,0.0,0.0
10256,62.0,67.0,60.0,3.0,0.0
10257,66.0,0.0,60.0,3.0,0.0
10258,78.0,51.0,60.0,0.0,0.0
10259,66.0,2.0,60.0,4.0,0.0
10260,78.0,0.0,60.0,2.0,0.0
10261,66.0,0.0,60.0,3.0,0.0
10262,78.0,0.0,15.0,1.0,0.0
10263,78.0,0.0,60.0,0.0,0.0
10264,78.0,0.0,60.0,2.0,0.0
10265,66.0,67.0,60.0,4.0,0.0
10266,67.0,0.0,60.0,1.0,0.0
10267,55.0,51.0,60.0,3.0,0.0
10268,67.0,0.0,60.0,2.0,0.0
10269,55.0,2.0,60.0,4.0,0.0
10270,67.0,0.0,60.0,0.0,0.0
10271,66.0,0.0,60.0,1.0,0.0
10272,54.0,66.0,60.0,4.0,0.0
10273,66.0,1.0,60.0,0.0,0.0
10274,66.0,0.0,60.0,2.0,0.0
10275,54.0,0.0,60.0,3.0,0.0
10276,66.0,0.0,60.0,2.0,0.0
10277,54.0,2.0,60.0,4.0,0.0
10278,66.0,0.0,60.0,1.0,0.0
10279,66.0,58.0,60.0,0.0,0.0
10280,54.0,0.0,60.0,3.0,0.0
10281,55.0,0.0,60.0,4.0,0.0
10282,67.0,0.0,60.0,1.0,0.0
10283,55.0,180.0,60.0,3.0,0.0
10284,67.0,0.0,60.0,0.0,0.0
10285,67.0,0.0,60.0,2.0,0.0
10286,73.0,0.0,60.0,1.0,0.0
10287,61.0,0.0,60.0,4.0,0.0
10288,61.0,0.0,60.0,3.0,0.0
10289,73.0,0.0,60.0,2.0,0.0
10290,73.0,53.0,60.0,0.0,0.0
10291,73.0,67.0,60.0,2.0,0.0
10292,73.0,0.0,60.0,0.0,0.0
10293,73.0,0.0,60.0,1.0,0.0
10294,61.0,0.0,60.0,4.0,0.0
10295,61.0,0.0,60.0,3.0,0.0
10296,64.0,0.0,60.0,3.0,0.0
10297,76.0,0.0,60.0,1.0,0.0
10298,76.0,0.0,60.0,0.0,0.0
10299,76.0,53.0,60.0,2.0,0.0
10300,64.0,0.0,60.0,4.0,0.0
10301,76.0,67.0,60.0,0.0,0.0
10302,64.0,0.0,60.0,3.0,0.0
10303,76.0,0.0,60.0,1.0,0.0
10304,64.0,0.0,60.0,4.0,0.0
10305,76.0,0.0,60.0,2.0,0.0
10306,67.0,0.0,60.0,4.0,0.0
10307,79.0,0.0,60.0,1.0,0.0
10308,79.0,0.0,60.0,2.0,0.0
10309,79.0,53.0,60.0,0.0,0.0
10310,67.0,0.0,60.0,3.0,0.0
10311,79.0,0.0,60.0,1.0,0.0
10312,67.0,0.0,60.0,3.0,0.0
10313,67.0,67.0,60.0,4.0,0.0
10314,79.0,0.0,60.0,0.0,0.0
10315,79.0,0.0,60.0,2.0,0.0
10316,58.0,0.0,60.0,3.0,0.0
10317,70.0,0.0,60.0,1.0,0.0
10318,70.0,0.0,60.0,2.0,0.0
10319,70.0,0.0,60.0,0.0,0.0
10320,58.0,53.0,60.0,4.0,0.0
10321,58.0,67.0,60.0,4.0,0.0
10322,70.0,0.0,60.0,2.0,0.0
10323,70.0,0.0,60.0,0.0,0.0
10324,58.0,0.0,60.0,3.0,0.0
10325,70.0,0.0,60.0,1.0,0.0
10326,73.0,0.0,60.0,1.0,0.0
10327,61.0,0.0,60.0,4.0,0.0
10328,73.0,0.0,60.0,0.0,0.0
10329,61.0,53.0,60.0,3.0,0.0
10330,73.0,0.0,60.0,2.0,0.0
10331,73.0,0.0,60.0,2.0,0.0
10332,73.0,0.0,60.0,1.0,0.0
10333,61.0,0.0,60.0,3.0,0.0
10334,61.0,67.0,60.0,4.0,0.0
10335,73.0,0.0,60.0,0.0,0.0
10336,76.0,0.0,60.0,2.0,0.0
10337,64.0,0.0,60.0,4.0,0.0
10338,76.0,0.0,60.0,1.0,0.0
10339,64.0,0.0,60.0,3.0,0.0
10340,76.0,53.0,60.0,0.0,0.0
10341,76.0,0.0,60.0,1.0,0.0
10342,64.0,0.0,60.0,4.0,0.0
10343,64.0,0.0,60.0,3.0,0.0
10344,76.0,0.0,60.0,2.0,0.0
10345,76.0,67.0,60.0,0.0,0.0
10346,54.0,0.0,60.0,4.0,0.0
10347,66.0,53.0,60.0,1.0,0.0
10348,54.0,0.0,60.0,3.0,0.0
10349,66.0,0.0,60.0,2.0,0.0
10350,66.0,0.0,60.0,0.0,0.0
10351,66.0,0.0,60.0,2.0,0.0
10352,66.0,67.0,60.0,1.0,0.0
10353,54.0,0.0,60.0,4.0,0.0
10354,54.0,0.0,60.0,3.0,0.0
10355,66.0,0.0,60.0,0.0,0.0
10356,70.0,53.0,60.0,2.0,0.0
10357,58.0,0.0,60.0,3.0,0.0
10358,58.0,0.0,60.0,4.0,0.0
10359,70.0,0.0,60.0,0.0,0.0
10360,70.0,0.0,60.0,1.0,0.0
10361,70.0,67.0,60.0,0.0,0.0
10362,58.0,0.0,60.0,4.0,0.0
10363,70.0,0.0,60.0,2.0,0.0
10364,70.0,0.0,60.0,1.0,0.0
10365,58.0,0.0,60.0,3.0,0.0
10366,73.0,0.0,60.0,1.0,0.0
10367,61.0,53.0,60.0,4.0,0.0
10368,73.0,0.0,60.0,2.0,0.0
10369,73.0,0.0,60.0,0.0,0.0
10370,61.0,0.0,60.0,3.0,0.0
10371,61.0,0.0,60.0,3.0,0.0
10372,73.0,67.0,60.0,0.0,0.0
10373,73.0,0.0,60.0,2.0,0.0
10374,61.0,0.0,60.0,4.0,0.0
10375,73.0,0.0,60.0,1.0,0.0
10376,62.0,0.0,60.0,2.0,0.0
10377,62.0,60.0,60.0,0.0,0.0
10378,50.0,0.0,60.0,4.0,0.0
10379,50.0,0.0,60.0,3.0,0.0
10380,62.0,0.0,60.0,1.0,0.0
10381,61.0,0.0,60.0,0.0,0.0
10382,61.0,0.0,60.0,1.0,0.0
10383,49.0,0.0,60.0,3.0,0.0
10384,61.0,0.0,60.0,2.0,0.0
10385,49.0,53.0,60.0,4.0,0.0
10386,62.0,52.0,60.0,0.0,0.0
10387,50.0,0.0,60.0,3.0,0.0
10388,62.0,0.0,60.0,2.0,0.0
10389,62.0,0.0,60.0,1.0,0.0
10390,50.0,0.0,60.0,4.0,0.0
10391,74.0,0.0,40.0,1.0,0.0
10392,74.0,0.0,40.0,0.0,0.0
10393,62.0,75.0,40.0,4.0,0.0
10394,74.0,0.0,40.0,2.0,0.0
10395,62.0,0.0,40.0,3.0,0.0
10396,70.0,0.0,60.0,2.0,0.0
10397,70.0,0.0,60.0,1.0,0.0
10398,58.0,0.0,60.0,4.0,0.0
10399,58.0,0.0,60.0,3.0,0.0
10400,70.0,53.0,60.0,0.0,0.0
10401,71.0,67.0,60.0,2.0,0.0
10402,59.0,0.0,60.0,4.0,0.0
10403,71.0,0.0,60.0,0.0,0.0
10404,71.0,0.0,60.0,1.0,0.0
10405,59.0,0.0,60.0,3.0,0.0
10406,52.0,0.0,60.0,3.0,0.0
10407,64.0,0.0,60.0,2.0,0.0
10408,52.0,0.0,60.0,4.0,0.0
10409,64.0,0.0,60.0,0.0,0.0
10410,64.0,60.0,60.0,1.0,0.0
10411,62.0,0.0,60.0,0.0,0.0
10412,50.0,0.0,60.0,3.0,0.0
10413,62.0,0.0,60.0,2.0,0.0
10414,50.0,0.0,60.0,4.0,0.0
10415,62.0,53.0,60.0,1.0,0.0
10416,52.0,0.0,60.0,4.0,0.0
10417,52.0,0.0,60.0,3.0,0.0
10418,64.0,52.0,60.0,1.0,0.0
10419,64.0,0.0,60.0,2.0,0.0
10420,64.0,0.0,60.0,0.0,0.0
10421,62.0,0.0,40.0,4.0,0.0
10422,62.0,75.0,40.0,3.0,0.0
10423,74.0,0.0,40.0,2.0,0.0
10424,74.0,0.0,40.0,0.0,0.0
10425,74.0,0.0,40.0,1.0,0.0
10426,70.0,0.0,60.0,1.0,0.0
10427,58.0,0.0,60.0,3.0,0.0
10428,70.0,0.0,60.0,2.0,0.0
10429,70.0,0.0,60.0,0.0,0.0
10430,58.0,53.0,60.0,4.0,0.0
10431,71.0,60.0,60.0,2.0,0.0
10432,59.0,0.0,60.0,3.0,0.0
10433,59.0,0.0,60.0,4.0,0.0
10434,71.0,0.0,60.0,1.0,0.0
10435,71.0,7.0,60.0,0.0,0.0
10436,66.0,0.0,60.0,1.0,0.0
10437,54.0,0.0,60.0,4.0,0.0
10438,66.0,60.0,60.0,2.0,0.0
10439,54.0,0.0,60.0,3.0,0.0
10440,66.0,0.0,60.0,0.0,0.0
10441,52.0,0.0,60.0,3.0,0.0
10442,52.0,0.0,60.0,4.0,0.0
10443,64.0,53.0,60.0,1.0,0.0
10444,64.0,0.0,60.0,0.0,0.0
10445,64.0,0.0,60.0,2.0,0.0
10446,54.0,0.0,60.0,3.0,0.0
10447,66.0,0.0,60.0,1.0,0.0
10448,66.0,7.0,60.0,0.0,0.0
10449,66.0,0.0,60.0,2.0,0.0
10450,54.0,45.0,60.0,4.0,0.0
10451,74.0,60.0,60.0,2.0,0.0
10452,74.0,15.0,40.0,0.0,0.0
10453,62.0,0.0,60.0,3.0,0.0
10454,74.0,0.0,60.0,1.0,0.0
10455,62.0,0.0,60.0,4.0,0.0
10456,70.0,0.0,60.0,0.0,0.0
10457,70.0,0.0,60.0,1.0,0.0
10458,58.0,0.0,60.0,4.0,0.0
10459,58.0,0.0,60.0,3.0,0.0
10460,70.0,60.0,60.0,2.0,0.0
10461,71.0,0.0,60.0,0.0,0.0
10462,59.0,0.0,60.0,3.0,0.0
10463,71.0,120.0,60.0,1.0,0.0
10464,59.0,0.0,60.0,4.0,0.0
10465,71.0,0.0,60.0,2.0,0.0
10466,67.0,0.0,120.0,2.0,0.0
10467,67.0,120.0,120.0,1.0,0.0
10468,55.0,0.0,120.0,4.0,0.0
10469,55.0,0.0,120.0,3.0,0.0
10470,67.0,0.0,120.0,0.0,0.0
10471,59.0,0.0,60.0,4.0,0.0
10472,71.0,0.0,60.0,1.0,0.0
10473,59.0,0.0,60.0,3.0,0.0
10474,71.0,60.0,60.0,2.0,0.0
10475,71.0,0.0,60.0,0.0,0.0
10476,72.0,0.0,60.0,1.0,0.0
10477,60.0,0.0,60.0,3.0,0.0
10478,72.0,0.0,60.0,2.0,0.0
10479,72.0,0.0,60.0,0.0,0.0
10480,60.0,60.0,60.0,4.0,0.0
10481,69.0,0.0,60.0,0.0,0.0
10482,69.0,0.0,60.0,2.0,0.0
10483,69.0,0.0,60.0,1.0,0.0
10484,57.0,0.0,60.0,3.0,0.0
10485,57.0,60.0,60.0,4.0,0.0
10486,51.0,0.0,60.0,4.0,0.0
10487,51.0,0.0,60.0,3.0,0.0
10488,63.0,0.0,60.0,1.0,0.0
10489,63.0,53.0,60.0,2.0,0.0
10490,63.0,0.0,60.0,0.0,0.0
10491,51.0,60.0,60.0,4.0,0.0
10492,63.0,0.0,60.0,2.0,0.0
10493,51.0,0.0,60.0,3.0,0.0
10494,63.0,0.0,60.0,0.0,0.0
10495,63.0,7.0,60.0,1.0,0.0
10496,66.0,0.0,60.0,2.0,0.0
10497,54.0,0.0,60.0,4.0,0.0
10498,66.0,0.0,60.0,0.0,0.0
10499,54.0,0.0,60.0,3.0,0.0
10500,66.0,53.0,60.0,1.0,0.0
10501,54.0,60.0,60.0,4.0,0.0
10502,66.0,0.0,60.0,0.0,0.0
10503,66.0,7.0,60.0,2.0,0.0
10504,54.0,0.0,60.0,3.0,0.0
10505,66.0,0.0,60.0,1.0,0.0
10506,57.0,0.0,60.0,4.0,0.0
10507,57.0,0.0,60.0,3.0,0.0
10508,69.0,53.0,60.0,0.0,0.0
10509,69.0,0.0,60.0,1.0,0.0
10510,69.0,0.0,60.0,2.0,0.0
10511,57.0,0.0,60.0,3.0,0.0
10512,69.0,0.0,60.0,0.0,0.0
10513,69.0,7.0,60.0,1.0,0.0
10514,57.0,120.0,60.0,4.0,0.0
10515,69.0,0.0,60.0,2.0,0.0
10516,60.0,0.0,120.0,2.0,0.0
10517,60.0,0.0,120.0,1.0,0.0
10518,48.0,0.0,120.0,3.0,0.0
10519,60.0,120.0,120.0,0.0,0.0
10520,48.0,0.0,120.0,4.0,0.0
10521,54.0,0.0,60.0,4.0,0.0
10522,66.0,60.0,60.0,2.0,0.0
10523,66.0,0.0,60.0,1.0,0.0
10524,66.0,0.0,60.0,0.0,0.0
10525,54.0,0.0,60.0,3.0,0.0
10526,67.0,0.0,60.0,2.0,0.0
10527,55.0,0.0,60.0,3.0,0.0
10528,67.0,60.0,60.0,0.0,0.0
10529,55.0,0.0,60.0,4.0,0.0
10530,67.0,0.0,60.0,1.0,0.0
10531,52.0,60.0,60.0,4.0,0.0
10532,64.0,0.0,60.0,0.0,0.0
10533,52.0,0.0,60.0,3.0,0.0
10534,64.0,0.0,60.0,1.0,0.0
10535,64.0,0.0,60.0,2.0,0.0
10536,70.0,0.0,60.0,1.0,0.0
10537,58.0,0.0,60.0,3.0,0.0
10538,70.0,0.0,60.0,0.0,0.0
10539,70.0,0.0,60.0,2.0,0.0
10540,58.0,60.0,60.0,4.0,0.0
10541,71.0,0.0,60.0,1.0,0.0
10542,59.0,0.0,60.0,3.0,0.0
10543,71.0,0.0,60.0,2.0,0.0
10544,71.0,0.0,60.0,0.0,0.0
10545,59.0,120.0,60.0,4.0,0.0
10546,66.0,0.0,120.0,2.0,0.0
10547,66.0,0.0,120.0,0.0,0.0
10548,54.0,0.0,120.0,4.0,0.0
10549,54.0,120.0,120.0,3.0,0.0
10550,66.0,0.0,120.0,1.0,0.0
10551,66.0,0.0,120.0,0.0,0.0
10552,54.0,0.0,120.0,2.0,0.0
10553,42.0,0.0,120.0,3.0,0.0
10554,66.0,0.0,120.0,1.0,0.0
10555,42.0,0.0,120.0,4.0,0.0
10556,59.0,0.0,360.0,2.0,0.0
10557,47.0,0.0,360.0,4.0,0.0
10558,59.0,0.0,360.0,1.0,0.0
10559,47.0,1007.0,360.0,3.0,0.0
10560,59.0,0.0,360.0,0.0,0.0
10561,78.0,30.0,60.0,4.0,0.0
10562,78.0,15.0,40.0,0.0,0.0
10563,78.0,0.0,40.0,1.0,0.0
10564,76.0,30.0,30.0,0.0,0.0
10565,76.0,0.0,30.0,4.0,0.0
10566,76.0,0.0,30.0,1.0,0.0
10567,74.0,0.0,30.0,4.0,0.0
10568,74.0,0.0,30.0,1.0,0.0
10569,74.0,45.0,30.0,0.0,0.0
10570,73.0,15.0,40.0,1.0,0.0
10571,73.0,45.0,60.0,4.0,0.0
10572,73.0,0.0,40.0,0.0,0.0
10573,71.0,0.0,40.0,0.0,0.0
10574,71.0,15.0,40.0,1.0,0.0
10575,71.0,45.0,60.0,4.0,0.0
10576,69.0,15.0,40.0,0.0,0.0
10577,69.0,0.0,40.0,1.0,0.0
10578,69.0,45.0,60.0,4.0,0.0
10579,68.0,45.0,60.0,4.0,0.0
10580,68.0,15.0,40.0,0.0,0.0
10581,68.0,0.0,40.0,1.0,0.0
10582,69.0,28.0,60.0,4.0,0.0
10583,69.0,0.0,40.0,1.0,0.0
10584,69.0,15.0,40.0,0.0,0.0
10585,54.0,2.0,30.0,3.0,0.0
10586,66.0,0.0,60.0,4.0,0.0
10587,54.0,0.0,30.0,4.0,0.0
10588,69.0,15.0,30.0,2.0,0.0
10589,66.0,13.0,40.0,0.0,0.0
10590,66.0,0.0,40.0,1.0,0.0
10591,56.0,2.0,30.0,3.0,0.0
10592,71.0,43.0,30.0,2.0,0.0
10593,56.0,0.0,30.0,4.0,0.0
10594,57.0,2.0,40.0,3.0,0.0
10595,78.0,0.0,40.0,0.0,0.0
10596,78.0,15.0,40.0,1.0,0.0
10597,57.0,0.0,60.0,4.0,0.0
10598,73.0,0.0,40.0,2.0,0.0
10599,56.0,2.0,30.0,3.0,0.0
10600,78.0,13.0,40.0,0.0,0.0
10601,78.0,28.0,15.0,4.0,0.0
10602,56.0,15.0,30.0,4.0,0.0
10603,71.0,0.0,30.0,2.0,0.0
10604,78.0,0.0,40.0,1.0,0.0
10605,57.0,2.0,30.0,3.0,0.0
10606,73.0,0.0,30.0,2.0,0.0
10607,57.0,43.0,30.0,4.0,0.0
10608,59.0,2.0,40.0,3.0,0.0
10609,78.0,0.0,40.0,0.0,0.0
10610,74.0,0.0,40.0,2.0,0.0
10611,78.0,0.0,15.0,4.0,0.0
10612,59.0,0.0,60.0,4.0,0.0
10613,78.0,15.0,40.0,1.0,0.0
10614,57.0,2.0,30.0,3.0,0.0
10615,57.0,0.0,30.0,4.0,0.0
10616,73.0,15.0,30.0,2.0,0.0
10617,78.0,13.0,40.0,1.0,0.0
10618,78.0,30.0,60.0,4.0,0.0
10619,78.0,0.0,40.0,0.0,0.0
10620,59.0,2.0,30.0,3.0,0.0
10621,59.0,0.0,30.0,4.0,0.0
10622,74.0,0.0,30.0,2.0,0.0
10623,61.0,2.0,40.0,3.0,0.0
10624,78.0,13.0,30.0,1.0,0.0
10625,78.0,0.0,30.0,0.0,0.0
10626,61.0,0.0,60.0,4.0,0.0
10627,68.0,15.0,40.0,2.0,0.0
10628,78.0,0.0,30.0,4.0,0.0
10629,76.0,0.0,30.0,0.0,0.0
10630,76.0,28.0,30.0,4.0,0.0
10631,76.0,0.0,30.0,1.0,0.0
10632,57.0,2.0,30.0,3.0,0.0
10633,78.0,0.0,30.0,0.0,0.0
10634,78.0,0.0,30.0,1.0,0.0
10635,57.0,0.0,30.0,4.0,0.0
10636,73.0,28.0,30.0,2.0,0.0
10637,78.0,0.0,30.0,4.0,0.0
10638,59.0,2.0,30.0,3.0,0.0
10639,74.0,0.0,30.0,2.0,0.0
10640,80.0,0.0,30.0,4.0,0.0
10641,59.0,0.0,30.0,4.0,0.0
10642,80.0,43.0,30.0,0.0,0.0
10643,80.0,0.0,30.0,1.0,0.0
10644,61.0,2.0,40.0,3.0,0.0
10645,81.0,15.0,40.0,1.0,0.0
10646,81.0,0.0,40.0,0.0,0.0
10647,76.0,0.0,40.0,2.0,0.0
10648,81.0,0.0,60.0,4.0,0.0
10649,61.0,28.0,60.0,4.0,0.0
10650,59.0,2.0,30.0,3.0,0.0
10651,81.0,0.0,40.0,1.0,0.0
10652,74.0,0.0,30.0,2.0,0.0
10653,59.0,15.0,30.0,4.0,0.0
10654,81.0,43.0,60.0,4.0,0.0
10655,81.0,13.0,40.0,0.0,0.0
10656,61.0,2.0,30.0,3.0,0.0
10657,61.0,0.0,30.0,4.0,0.0
10658,76.0,0.0,30.0,2.0,0.0
10659,62.0,2.0,40.0,3.0,0.0
10660,81.0,0.0,40.0,1.0,0.0
10661,81.0,0.0,60.0,4.0,0.0
10662,81.0,15.0,40.0,0.0,0.0
10663,78.0,0.0,40.0,2.0,0.0
10664,62.0,28.0,60.0,4.0,0.0
10665,61.0,2.0,30.0,3.0,0.0
10666,81.0,0.0,40.0,0.0,0.0
10667,76.0,0.0,30.0,2.0,0.0
10668,61.0,15.0,30.0,4.0,0.0
10669,81.0,13.0,40.0,1.0,0.0
10670,62.0,2.0,30.0,3.0,0.0
10671,62.0,30.0,30.0,4.0,0.0
10672,78.0,0.0,30.0,2.0,0.0
10673,64.0,2.0,40.0,3.0,0.0
10674,81.0,0.0,15.0,4.0,0.0
10675,64.0,0.0,60.0,4.0,0.0
10676,81.0,0.0,30.0,1.0,0.0
10677,71.0,15.0,40.0,2.0,0.0
10678,81.0,0.0,30.0,0.0,0.0
10679,80.0,0.0,30.0,1.0,0.0
10680,80.0,0.0,30.0,0.0,0.0
10681,80.0,28.0,30.0,4.0,0.0
10682,61.0,2.0,30.0,3.0,0.0
10683,64.0,0.0,30.0,2.0,0.0
10684,81.0,0.0,30.0,0.0,0.0
10685,81.0,28.0,30.0,1.0,0.0
10686,81.0,0.0,30.0,4.0,0.0
10687,61.0,0.0,30.0,4.0,0.0
10688,63.0,2.0,30.0,3.0,0.0
10689,63.0,0.0,30.0,4.0,0.0
10690,83.0,0.0,30.0,4.0,0.0
10691,83.0,0.0,30.0,1.0,0.0
10692,83.0,0.0,30.0,0.0,0.0
10693,66.0,43.0,30.0,2.0,0.0
10694,64.0,2.0,40.0,3.0,0.0
10695,64.0,28.0,60.0,4.0,0.0
10696,85.0,0.0,40.0,0.0,0.0
10697,85.0,15.0,40.0,1.0,0.0
10698,68.0,0.0,40.0,2.0,0.0
10699,63.0,2.0,30.0,3.0,0.0
10700,85.0,0.0,15.0,4.0,0.0
10701,63.0,15.0,30.0,4.0,0.0
10702,85.0,0.0,40.0,0.0,0.0
10703,85.0,13.0,40.0,1.0,0.0
10704,66.0,0.0,30.0,2.0,0.0
10705,64.0,2.0,30.0,3.0,0.0
10706,64.0,0.0,30.0,4.0,0.0
10707,68.0,43.0,30.0,2.0,0.0
10708,66.0,2.0,40.0,3.0,0.0
10709,85.0,0.0,15.0,4.0,0.0
10710,66.0,0.0,60.0,4.0,0.0
10711,69.0,0.0,40.0,2.0,0.0
10712,85.0,15.0,40.0,1.0,0.0
10713,85.0,0.0,40.0,0.0,0.0
10714,64.0,2.0,30.0,3.0,0.0
10715,85.0,28.0,15.0,4.0,0.0
10716,85.0,13.0,40.0,1.0,0.0
10717,68.0,0.0,30.0,2.0,0.0
10718,85.0,0.0,40.0,0.0,0.0
10719,64.0,15.0,30.0,4.0,0.0
10720,66.0,2.0,30.0,3.0,0.0
10721,66.0,0.0,30.0,4.0,0.0
10722,69.0,43.0,30.0,2.0,0.0
10723,68.0,2.0,40.0,3.0,0.0
10724,63.0,0.0,120.0,2.0,0.0
10725,85.0,0.0,15.0,4.0,0.0
10726,85.0,0.0,40.0,0.0,0.0
10727,68.0,30.0,60.0,4.0,0.0
10728,85.0,15.0,40.0,1.0,0.0
10729,56.0,17.0,40.0,3.0,0.0
10730,83.0,13.0,30.0,1.0,0.0
10731,56.0,0.0,60.0,4.0,0.0
10732,83.0,0.0,30.0,4.0,0.0
10733,83.0,0.0,30.0,0.0,0.0
10734,81.0,0.0,30.0,0.0,0.0
10735,81.0,0.0,30.0,4.0,0.0
10736,81.0,43.0,30.0,1.0,0.0
10737,68.0,2.0,40.0,3.0,0.0
10738,68.0,30.0,60.0,4.0,0.0
10739,83.0,0.0,40.0,1.0,0.0
10740,83.0,0.0,60.0,4.0,0.0
10741,83.0,15.0,40.0,0.0,0.0
10742,63.0,0.0,30.0,2.0,0.0
10743,66.0,17.0,40.0,3.0,0.0
10744,65.0,0.0,30.0,2.0,0.0
10745,80.0,0.0,30.0,1.0,0.0
10746,66.0,0.0,60.0,4.0,0.0
10747,80.0,0.0,30.0,4.0,0.0
10748,80.0,13.0,30.0,0.0,0.0
10749,81.0,0.0,30.0,1.0,0.0
10750,81.0,30.0,30.0,4.0,0.0
10751,66.0,0.0,30.0,2.0,0.0
10752,81.0,0.0,30.0,0.0,0.0
10753,65.0,2.0,40.0,3.0,0.0
10754,83.0,0.0,40.0,1.0,0.0
10755,68.0,13.0,30.0,2.0,0.0
10756,83.0,15.0,40.0,0.0,0.0
10757,65.0,0.0,60.0,4.0,0.0
10758,66.0,30.0,30.0,2.0,0.0
10759,61.0,2.0,40.0,3.0,0.0
10760,61.0,0.0,60.0,4.0,0.0
10761,83.0,0.0,15.0,4.0,0.0
10762,83.0,15.0,40.0,1.0,0.0
10763,83.0,0.0,40.0,0.0,0.0
10764,65.0,13.0,30.0,2.0,0.0
10765,63.0,43.0,30.0,2.0,0.0
10766,66.0,2.0,40.0,3.0,0.0
10767,83.0,0.0,15.0,4.0,0.0
10768,83.0,0.0,40.0,1.0,0.0
10769,66.0,0.0,60.0,4.0,0.0
10770,83.0,15.0,40.0,0.0,0.0
10771,61.0,0.0,120.0,2.0,0.0
10772,54.0,17.0,40.0,3.0,0.0
10773,81.0,13.0,30.0,4.0,0.0
10774,54.0,0.0,60.0,4.0,0.0
10775,81.0,0.0,30.0,1.0,0.0
10776,81.0,0.0,30.0,0.0,0.0
10777,80.0,0.0,30.0,0.0,0.0
10778,80.0,0.0,30.0,1.0,0.0
10779,80.0,43.0,30.0,4.0,0.0
10780,66.0,2.0,40.0,3.0,0.0
10781,81.0,15.0,40.0,1.0,0.0
10782,66.0,0.0,60.0,4.0,0.0
10783,81.0,0.0,40.0,0.0,0.0
10784,81.0,30.0,60.0,4.0,0.0
10785,64.0,17.0,40.0,3.0,0.0
10786,64.0,0.0,60.0,4.0,0.0
10787,69.0,13.0,30.0,2.0,0.0
10788,78.0,0.0,30.0,0.0,0.0
10789,78.0,0.0,30.0,4.0,0.0
10790,78.0,0.0,30.0,1.0,0.0
10791,80.0,0.0,30.0,1.0,0.0
10792,71.0,43.0,30.0,2.0,0.0
10793,80.0,0.0,30.0,4.0,0.0
10794,80.0,0.0,30.0,0.0,0.0
10795,62.0,2.0,40.0,3.0,0.0
10796,81.0,0.0,40.0,0.0,0.0
10797,73.0,15.0,40.0,2.0,0.0
10798,62.0,0.0,60.0,4.0,0.0
10799,81.0,30.0,60.0,4.0,0.0
10800,81.0,0.0,40.0,1.0,0.0
10801,61.0,2.0,40.0,3.0,0.0
10802,83.0,0.0,30.0,4.0,0.0
10803,83.0,13.0,30.0,1.0,0.0
10804,61.0,0.0,60.0,4.0,0.0
10805,83.0,0.0,30.0,0.0,0.0
10806,66.0,15.0,40.0,2.0,0.0
10807,85.0,0.0,30.0,4.0,0.0
10808,85.0,43.0,30.0,0.0,0.0
10809,85.0,0.0,30.0,1.0,0.0
10810,59.0,2.0,40.0,3.0,0.0
10811,86.0,0.0,40.0,1.0,0.0
10812,78.0,0.0,40.0,2.0,0.0
10813,86.0,0.0,60.0,4.0,0.0
10814,59.0,28.0,60.0,4.0,0.0
10815,86.0,15.0,40.0,0.0,0.0
10816,61.0,2.0,30.0,3.0,0.0
10817,74.0,0.0,30.0,2.0,0.0
10818,83.0,0.0,30.0,1.0,0.0
10819,83.0,0.0,30.0,4.0,0.0
10820,83.0,28.0,30.0,0.0,0.0
10821,61.0,0.0,30.0,4.0,0.0
10822,62.0,2.0,30.0,3.0,0.0
10823,81.0,0.0,30.0,1.0,0.0
10824,81.0,0.0,30.0,4.0,0.0
10825,62.0,0.0,30.0,4.0,0.0
10826,73.0,43.0,30.0,2.0,0.0
10827,81.0,0.0,30.0,0.0,0.0
10828,64.0,2.0,40.0,3.0,0.0
10829,80.0,15.0,40.0,1.0,0.0
10830,71.0,0.0,40.0,2.0,0.0
10831,80.0,0.0,40.0,0.0,0.0
10832,64.0,30.0,60.0,4.0,0.0
10833,80.0,0.0,60.0,4.0,0.0
10834,62.0,17.0,40.0,3.0,0.0
10835,62.0,0.0,60.0,4.0,0.0
10836,76.0,13.0,30.0,4.0,0.0
10837,76.0,0.0,30.0,0.0,0.0
10838,68.0,0.0,30.0,2.0,0.0
10839,76.0,0.0,30.0,1.0,0.0
10840,69.0,0.0,30.0,2.0,0.0
10841,78.0,0.0,30.0,1.0,0.0
10842,78.0,0.0,30.0,0.0,0.0
10843,78.0,43.0,30.0,4.0,0.0
10844,61.0,2.0,40.0,3.0,0.0
10845,71.0,0.0,40.0,2.0,0.0
10846,80.0,30.0,60.0,4.0,0.0
10847,61.0,0.0,60.0,4.0,0.0
10848,80.0,15.0,40.0,1.0,0.0
10849,80.0,0.0,40.0,0.0,0.0
10850,59.0,2.0,40.0,3.0,0.0
10851,81.0,0.0,30.0,0.0,0.0
10852,81.0,0.0,30.0,1.0,0.0
10853,64.0,15.0,40.0,2.0,0.0
10854,81.0,13.0,30.0,4.0,0.0
10855,59.0,43.0,60.0,4.0,0.0
10856,83.0,0.0,30.0,0.0,0.0
10857,83.0,0.0,30.0,1.0,0.0
10858,83.0,0.0,30.0,4.0,0.0
10859,57.0,2.0,40.0,3.0,0.0
10860,85.0,28.0,60.0,4.0,0.0
10861,85.0,0.0,40.0,0.0,0.0
10862,57.0,0.0,60.0,4.0,0.0
10863,85.0,0.0,40.0,1.0,0.0
10864,76.0,15.0,40.0,2.0,0.0
10865,59.0,2.0,30.0,3.0,0.0
10866,59.0,0.0,30.0,4.0,0.0
10867,73.0,28.0,30.0,2.0,0.0
10868,81.0,0.0,30.0,4.0,0.0
10869,81.0,0.0,30.0,0.0,0.0
10870,81.0,0.0,30.0,1.0,0.0
10871,61.0,2.0,30.0,3.0,0.0
10872,80.0,0.0,30.0,4.0,0.0
10873,80.0,0.0,30.0,1.0,0.0
10874,61.0,0.0,30.0,4.0,0.0
10875,71.0,43.0,30.0,2.0,0.0
10876,80.0,0.0,30.0,0.0,0.0
10877,62.0,2.0,40.0,3.0,0.0
10878,69.0,0.0,40.0,2.0,0.0
10879,78.0,0.0,60.0,4.0,0.0
10880,78.0,0.0,40.0,1.0,0.0
10881,78.0,15.0,40.0,0.0,0.0
10882,62.0,30.0,60.0,4.0,0.0
10883,61.0,2.0,40.0,3.0,0.0
10884,90.0,0.0,30.0,4.0,0.0
10885,90.0,13.0,30.0,0.0,0.0
10886,69.0,15.0,40.0,2.0,0.0
10887,61.0,43.0,60.0,4.0,0.0
10888,90.0,0.0,30.0,1.0,0.0
10889,89.0,0.0,30.0,0.0,0.0
10890,89.0,0.0,30.0,1.0,0.0
10891,89.0,0.0,30.0,4.0,0.0
10892,59.0,2.0,40.0,3.0,0.0
10893,74.0,0.0,40.0,2.0,0.0
10894,90.0,15.0,40.0,0.0,0.0
10895,90.0,0.0,40.0,1.0,0.0
10896,90.0,43.0,60.0,4.0,0.0
10897,59.0,0.0,60.0,4.0,0.0
10898,57.0,2.0,40.0,3.0,0.0
10899,86.0,15.0,40.0,1.0,0.0
10900,86.0,0.0,40.0,0.0,0.0
10901,78.0,0.0,40.0,2.0,0.0
10902,86.0,58.0,60.0,4.0,0.0
10903,57.0,0.0,60.0,4.0,0.0
10904,56.0,2.0,60.0,3.0,0.0
10905,56.0,0.0,60.0,4.0,0.0
10906,83.0,0.0,60.0,1.0,0.0
10907,83.0,0.0,60.0,4.0,0.0
10908,74.0,0.0,120.0,2.0,0.0
10909,83.0,58.0,60.0,0.0,0.0
10910,54.0,2.0,60.0,3.0,0.0
10911,54.0,43.0,60.0,4.0,0.0
10912,82.0,0.0,60.0,4.0,0.0
10913,82.0,0.0,60.0,1.0,0.0
10914,82.0,0.0,60.0,0.0,0.0
10915,53.0,2.0,40.0,3.0,0.0
10916,83.0,15.0,40.0,1.0,0.0
10917,83.0,30.0,60.0,4.0,0.0
10918,53.0,0.0,60.0,4.0,0.0
10919,83.0,0.0,40.0,0.0,0.0
10920,54.0,17.0,40.0,3.0,0.0
10921,71.0,0.0,30.0,2.0,0.0
10922,86.0,0.0,30.0,4.0,0.0
10923,54.0,43.0,60.0,4.0,0.0
10924,86.0,0.0,30.0,0.0,0.0
10925,86.0,13.0,30.0,1.0,0.0
10926,85.0,0.0,30.0,4.0,0.0
10927,69.0,0.0,30.0,2.0,0.0
10928,85.0,0.0,30.0,0.0,0.0
10929,85.0,0.0,30.0,1.0,0.0
10930,56.0,2.0,40.0,3.0,0.0
10931,86.0,0.0,40.0,0.0,0.0
10932,71.0,0.0,40.0,2.0,0.0
10933,56.0,30.0,60.0,4.0,0.0
10934,86.0,0.0,60.0,4.0,0.0
10935,86.0,15.0,40.0,1.0,0.0
10936,57.0,2.0,40.0,3.0,0.0
10937,83.0,0.0,40.0,0.0,0.0
10938,83.0,45.0,60.0,4.0,0.0
10939,74.0,13.0,30.0,2.0,0.0
10940,83.0,15.0,40.0,1.0,0.0
10941,57.0,0.0,60.0,4.0,0.0
10942,73.0,0.0,30.0,2.0,0.0
10943,59.0,2.0,60.0,3.0,0.0
10944,79.0,45.0,60.0,0.0,0.0
10945,74.0,13.0,40.0,2.0,0.0
10946,59.0,0.0,60.0,4.0,0.0
10947,79.0,0.0,60.0,4.0,0.0
10948,79.0,0.0,60.0,1.0,0.0
10949,57.0,2.0,60.0,3.0,0.0
10950,78.0,43.0,60.0,1.0,0.0
10951,73.0,13.0,40.0,2.0,0.0
10952,78.0,0.0,60.0,0.0,0.0
10953,57.0,0.0,60.0,4.0,0.0
10954,78.0,0.0,60.0,4.0,0.0
10955,59.0,2.0,40.0,3.0,0.0
10956,79.0,0.0,60.0,4.0,0.0
10957,59.0,30.0,60.0,4.0,0.0
10958,74.0,15.0,40.0,2.0,0.0
10959,79.0,0.0,40.0,1.0,0.0
10960,79.0,0.0,40.0,0.0,0.0
10961,61.0,2.0,40.0,3.0,0.0
10962,76.0,15.0,40.0,2.0,0.0
10963,83.0,0.0,30.0,4.0,0.0
10964,61.0,43.0,60.0,4.0,0.0
10965,83.0,0.0,30.0,1.0,0.0
10966,83.0,13.0,30.0,0.0,0.0
10967,82.0,0.0,30.0,4.0,0.0
10968,82.0,0.0,30.0,1.0,0.0
10969,82.0,0.0,30.0,0.0,0.0
10970,62.0,2.0,40.0,3.0,0.0
10971,83.0,15.0,40.0,1.0,0.0
10972,62.0,43.0,60.0,4.0,0.0
10973,83.0,0.0,60.0,4.0,0.0
10974,83.0,0.0,40.0,0.0,0.0
10975,78.0,0.0,40.0,2.0,0.0
10976,59.0,2.0,40.0,3.0,0.0
10977,79.0,0.0,40.0,1.0,0.0
10978,79.0,0.0,60.0,4.0,0.0
10979,59.0,45.0,60.0,4.0,0.0
10980,79.0,0.0,40.0,0.0,0.0
10981,74.0,15.0,40.0,2.0,0.0
10982,61.0,2.0,120.0,3.0,0.0
10983,77.0,0.0,40.0,0.0,0.0
10984,77.0,15.0,40.0,1.0,0.0
10985,61.0,0.0,120.0,4.0,0.0
10986,77.0,30.0,60.0,4.0,0.0
10987,68.0,0.0,40.0,2.0,0.0
10988,86.0,0.0,30.0,4.0,0.0
10989,86.0,15.0,30.0,0.0,0.0
10990,77.0,13.0,40.0,2.0,0.0
10991,86.0,0.0,30.0,1.0,0.0
10992,85.0,0.0,30.0,4.0,0.0
10993,85.0,45.0,30.0,1.0,0.0
10994,85.0,0.0,30.0,0.0,0.0
10995,86.0,0.0,40.0,0.0,0.0
10996,86.0,30.0,60.0,4.0,0.0
10997,86.0,15.0,40.0,1.0,0.0
10998,77.0,0.0,40.0,2.0,0.0
10999,83.0,0.0,30.0,0.0,0.0
11000,83.0,15.0,30.0,4.0,0.0
11001,77.0,15.0,40.0,2.0,0.0
11002,83.0,0.0,30.0,1.0,0.0
11003,82.0,45.0,30.0,4.0,0.0
11004,82.0,0.0,30.0,1.0,0.0
11005,82.0,0.0,30.0,0.0,0.0
11006,83.0,0.0,40.0,1.0,0.0
11007,83.0,43.0,60.0,4.0,0.0
11008,83.0,15.0,40.0,0.0,0.0
11009,77.0,0.0,40.0,2.0,0.0
11010,59.0,2.0,40.0,3.0,0.0
11011,59.0,0.0,60.0,4.0,0.0
11012,77.0,43.0,60.0,4.0,0.0
11013,77.0,0.0,40.0,1.0,0.0
11014,77.0,0.0,40.0,0.0,0.0
11015,68.0,15.0,40.0,2.0,0.0
11016,57.0,2.0,40.0,3.0,0.0
11017,78.0,0.0,40.0,1.0,0.0
11018,78.0,28.0,60.0,4.0,0.0
11019,57.0,0.0,60.0,4.0,0.0
11020,73.0,0.0,40.0,2.0,0.0
11021,78.0,15.0,40.0,0.0,0.0
11022,56.0,2.0,30.0,3.0,0.0
11023,69.0,0.0,60.0,4.0,0.0
11024,56.0,15.0,30.0,4.0,0.0
11025,69.0,13.0,40.0,1.0,0.0
11026,69.0,0.0,40.0,0.0,0.0
11027,69.0,0.0,40.0,2.0,0.0
11028,54.0,2.0,30.0,3.0,0.0
11029,54.0,43.0,30.0,4.0,0.0
11030,62.0,2.0,40.0,3.0,0.0
11031,71.0,0.0,40.0,1.0,0.0
11032,62.0,0.0,60.0,4.0,0.0
11033,71.0,28.0,60.0,4.0,0.0
11034,66.0,15.0,40.0,2.0,0.0
11035,71.0,0.0,40.0,0.0,0.0
11036,61.0,2.0,30.0,3.0,0.0
11037,61.0,15.0,30.0,4.0,0.0
11038,71.0,0.0,40.0,2.0,0.0
11039,78.0,0.0,40.0,1.0,0.0
11040,78.0,0.0,60.0,4.0,0.0
11041,78.0,13.0,40.0,0.0,0.0
11042,59.0,2.0,30.0,3.0,0.0
11043,59.0,43.0,30.0,4.0,0.0
11044,61.0,2.0,40.0,3.0,0.0
11045,73.0,0.0,40.0,0.0,0.0
11046,68.0,0.0,40.0,2.0,0.0
11047,61.0,43.0,60.0,4.0,0.0
11048,73.0,0.0,60.0,4.0,0.0
11049,73.0,15.0,40.0,1.0,0.0
11050,49.0,2.0,40.0,3.0,0.0
11051,49.0,0.0,60.0,4.0,0.0
11052,77.0,58.0,60.0,4.0,0.0
11053,77.0,0.0,40.0,0.0,0.0
11054,77.0,0.0,40.0,1.0,0.0
11055,73.0,15.0,40.0,2.0,0.0
11056,54.0,2.0,60.0,3.0,0.0
11057,54.0,0.0,60.0,4.0,0.0
11058,78.0,0.0,60.0,0.0,0.0
11059,69.0,0.0,60.0,2.0,0.0
11060,78.0,30.0,60.0,1.0,0.0
11061,78.0,0.0,60.0,4.0,0.0
11062,85.0,60.0,60.0,4.0,0.0
11063,90.0,0.0,30.0,4.0,0.0
11064,81.0,30.0,30.0,4.0,0.0
11065,89.0,0.0,30.0,4.0,0.0
11066,80.0,0.0,30.0,4.0,0.0
11067,85.0,0.0,60.0,4.0,0.0
11068,90.0,0.0,60.0,4.0,0.0
11069,78.0,0.0,60.0,4.0,0.0
11070,81.0,30.0,15.0,4.0,0.0
11071,85.0,0.0,30.0,4.0,0.0
11072,80.0,0.0,30.0,4.0,0.0
11073,83.0,60.0,30.0,4.0,0.0
11074,81.0,0.0,60.0,4.0,0.0
11075,85.0,0.0,60.0,4.0,0.0
11076,78.0,30.0,60.0,4.0,0.0
11077,73.0,30.0,30.0,4.0,0.0
11078,78.0,0.0,30.0,4.0,0.0
11079,81.0,0.0,30.0,4.0,0.0
11080,77.0,0.0,30.0,4.0,0.0
11081,80.0,60.0,30.0,4.0,0.0
11082,71.0,0.0,30.0,4.0,0.0
11083,81.0,30.0,60.0,4.0,0.0
11084,78.0,0.0,60.0,4.0,0.0
11085,73.0,0.0,60.0,4.0,0.0
11086,66.0,15.0,40.0,0.0,0.0
11087,54.0,15.0,30.0,3.0,0.0
11088,78.0,0.0,30.0,4.0,0.0
11089,54.0,0.0,30.0,4.0,0.0
11090,69.0,0.0,30.0,2.0,0.0
11091,66.0,0.0,40.0,1.0,0.0
11092,77.0,0.0,30.0,4.0,0.0
11093,71.0,0.0,30.0,2.0,0.0
11094,56.0,0.0,30.0,4.0,0.0
11095,56.0,45.0,30.0,3.0,0.0
11096,73.0,0.0,40.0,2.0,0.0
11097,78.0,0.0,40.0,1.0,0.0
11098,78.0,0.0,40.0,0.0,0.0
11099,78.0,30.0,60.0,4.0,0.0
11100,57.0,0.0,60.0,4.0,0.0
11101,57.0,15.0,40.0,3.0,0.0
11102,56.0,15.0,30.0,3.0,0.0
11103,78.0,0.0,40.0,1.0,0.0
11104,56.0,0.0,30.0,4.0,0.0
11105,78.0,15.0,40.0,0.0,0.0
11106,71.0,0.0,30.0,2.0,0.0
11107,57.0,45.0,30.0,4.0,0.0
11108,73.0,0.0,30.0,2.0,0.0
11109,57.0,0.0,30.0,3.0,0.0
11110,78.0,0.0,40.0,0.0,0.0
11111,74.0,0.0,40.0,2.0,0.0
11112,59.0,30.0,60.0,4.0,0.0
11113,78.0,0.0,40.0,1.0,0.0
11114,59.0,15.0,40.0,3.0,0.0
11115,57.0,15.0,30.0,3.0,0.0
11116,57.0,0.0,30.0,4.0,0.0
11117,78.0,15.0,40.0,1.0,0.0
11118,78.0,0.0,40.0,0.0,0.0
11119,73.0,0.0,30.0,2.0,0.0
11120,59.0,0.0,30.0,3.0,0.0
11121,74.0,45.0,30.0,2.0,0.0
11122,59.0,0.0,30.0,4.0,0.0
11123,57.0,0.0,120.0,3.0,0.0
11124,61.0,30.0,60.0,4.0,0.0
11125,73.0,60.0,120.0,2.0,0.0
11126,78.0,0.0,40.0,0.0,0.0
11127,78.0,15.0,40.0,1.0,0.0
11128,76.0,30.0,30.0,4.0,0.0
11129,85.0,0.0,30.0,4.0,0.0
11130,76.0,0.0,30.0,0.0,0.0
11131,76.0,0.0,30.0,1.0,0.0
11132,75.0,0.0,30.0,0.0,0.0
11133,75.0,0.0,30.0,1.0,0.0
11134,84.0,0.0,30.0,4.0,0.0
11135,75.0,0.0,30.0,4.0,0.0
11136,76.0,30.0,60.0,1.0,0.0
11137,76.0,0.0,60.0,4.0,0.0
11138,80.0,0.0,60.0,4.0,0.0
11139,85.0,0.0,60.0,4.0,0.0
11140,76.0,0.0,60.0,0.0,0.0
11141,73.0,0.0,60.0,4.0,0.0
11142,76.0,30.0,30.0,4.0,0.0
11143,80.0,0.0,30.0,4.0,0.0
11144,78.0,60.0,30.0,4.0,0.0
11145,75.0,0.0,30.0,4.0,0.0
11146,80.0,0.0,60.0,4.0,0.0
11147,73.0,30.0,60.0,4.0,0.0
11148,76.0,0.0,60.0,4.0,0.0
11149,68.0,30.0,30.0,4.0,0.0
11150,73.0,0.0,30.0,4.0,0.0
11151,76.0,0.0,30.0,4.0,0.0
11152,75.0,0.0,30.0,4.0,0.0
11153,66.0,60.0,30.0,4.0,0.0
11154,72.0,0.0,30.0,4.0,0.0
11155,68.0,0.0,60.0,4.0,0.0
11156,76.0,0.0,60.0,4.0,0.0
11157,61.0,15.0,30.0,3.0,0.0
11158,73.0,0.0,40.0,0.0,0.0
11159,73.0,15.0,40.0,1.0,0.0
11160,73.0,30.0,15.0,4.0,0.0
11161,61.0,0.0,30.0,4.0,0.0
11162,64.0,0.0,30.0,2.0,0.0
11163,63.0,0.0,30.0,4.0,0.0
11164,66.0,45.0,30.0,2.0,0.0
11165,72.0,0.0,30.0,4.0,0.0
11166,63.0,0.0,30.0,3.0,0.0
11167,73.0,30.0,60.0,4.0,0.0
11168,64.0,0.0,60.0,4.0,0.0
11169,64.0,0.0,40.0,3.0,0.0
11170,85.0,15.0,40.0,0.0,0.0
11171,68.0,0.0,40.0,2.0,0.0
11172,85.0,0.0,40.0,1.0,0.0
11173,85.0,0.0,40.0,0.0,0.0
11174,66.0,0.0,30.0,2.0,0.0
11175,63.0,0.0,30.0,3.0,0.0
11176,63.0,15.0,30.0,4.0,0.0
11177,85.0,15.0,40.0,1.0,0.0
11178,64.0,45.0,30.0,3.0,0.0
11179,68.0,0.0,30.0,2.0,0.0
11180,64.0,0.0,30.0,4.0,0.0
11181,66.0,30.0,60.0,4.0,0.0
11182,69.0,0.0,40.0,2.0,0.0
11183,85.0,0.0,40.0,1.0,0.0
11184,85.0,15.0,40.0,0.0,0.0
11185,66.0,0.0,40.0,3.0,0.0
11186,85.0,0.0,40.0,1.0,0.0
11187,85.0,15.0,40.0,0.0,0.0
11188,68.0,0.0,30.0,2.0,0.0
11189,64.0,0.0,30.0,4.0,0.0
11190,64.0,15.0,30.0,3.0,0.0
11191,69.0,0.0,30.0,2.0,0.0
11192,66.0,45.0,30.0,4.0,0.0
11193,66.0,0.0,30.0,3.0,0.0
11194,68.0,0.0,40.0,3.0,0.0
11195,85.0,0.0,40.0,0.0,0.0
11196,68.0,30.0,60.0,4.0,0.0
11197,85.0,0.0,40.0,1.0,0.0
11198,63.0,15.0,40.0,2.0,0.0
11199,65.0,0.0,30.0,2.0,0.0
11200,56.0,0.0,60.0,4.0,0.0
11201,83.0,0.0,30.0,0.0,0.0
11202,56.0,15.0,40.0,3.0,0.0
11203,83.0,15.0,30.0,1.0,0.0
11204,81.0,30.0,30.0,1.0,0.0
11205,66.0,0.0,30.0,2.0,0.0
11206,81.0,0.0,30.0,0.0,0.0
11207,83.0,0.0,40.0,1.0,0.0
11208,68.0,15.0,40.0,3.0,0.0
11209,68.0,15.0,30.0,2.0,0.0
11210,68.0,0.0,60.0,4.0,0.0
11211,83.0,0.0,40.0,0.0,0.0
11212,66.0,30.0,30.0,2.0,0.0
11213,66.0,15.0,40.0,3.0,0.0
11214,66.0,30.0,60.0,4.0,0.0
11215,65.0,0.0,30.0,2.0,0.0
11216,80.0,15.0,30.0,1.0,0.0
11217,80.0,0.0,30.0,0.0,0.0
11218,66.0,0.0,30.0,2.0,0.0
11219,81.0,0.0,30.0,1.0,0.0
11220,81.0,0.0,30.0,0.0,0.0
11221,83.0,15.0,40.0,0.0,0.0
11222,83.0,0.0,40.0,1.0,0.0
11223,65.0,0.0,40.0,3.0,0.0
11224,68.0,15.0,30.0,2.0,0.0
11225,65.0,0.0,60.0,4.0,0.0
11226,66.0,30.0,30.0,2.0,0.0
11227,83.0,15.0,40.0,1.0,0.0
11228,83.0,0.0,40.0,0.0,0.0
11229,65.0,15.0,30.0,2.0,0.0
11230,61.0,0.0,40.0,3.0,0.0
11231,61.0,45.0,60.0,4.0,0.0
11232,63.0,0.0,30.0,2.0,0.0
11233,83.0,15.0,40.0,0.0,0.0
11234,66.0,30.0,60.0,3.0,0.0
11235,61.0,0.0,120.0,2.0,0.0
11236,83.0,0.0,40.0,1.0,0.0
11237,66.0,0.0,60.0,4.0,0.0
11238,81.0,0.0,30.0,0.0,0.0
11239,81.0,0.0,30.0,1.0,0.0
11240,78.0,30.0,30.0,4.0,0.0
11241,69.0,0.0,30.0,4.0,0.0
11242,68.0,0.0,30.0,4.0,0.0
11243,77.0,60.0,30.0,4.0,0.0
11244,80.0,0.0,30.0,1.0,0.0
11245,80.0,0.0,30.0,0.0,0.0
11246,81.0,30.0,60.0,0.0,0.0
11247,81.0,0.0,60.0,1.0,0.0
11248,78.0,0.0,60.0,4.0,0.0
11249,73.0,0.0,15.0,4.0,0.0
11250,69.0,0.0,60.0,4.0,0.0
11251,73.0,0.0,15.0,4.0,0.0
11252,66.0,0.0,60.0,4.0,0.0
11253,69.0,30.0,30.0,4.0,0.0
11254,68.0,0.0,30.0,4.0,0.0
11255,71.0,60.0,30.0,4.0,0.0
11256,73.0,0.0,60.0,4.0,0.0
11257,69.0,0.0,60.0,4.0,0.0
11258,66.0,30.0,60.0,4.0,0.0
11259,61.0,0.0,30.0,4.0,0.0
11260,69.0,30.0,30.0,4.0,0.0
11261,66.0,0.0,30.0,4.0,0.0
11262,59.0,0.0,30.0,4.0,0.0
11263,68.0,60.0,30.0,4.0,0.0
11264,65.0,0.0,30.0,4.0,0.0
11265,69.0,0.0,60.0,4.0,0.0
11266,66.0,0.0,15.0,4.0,0.0
11267,61.0,30.0,15.0,4.0,0.0
11268,57.0,0.0,30.0,4.0,0.0
11269,65.0,0.0,30.0,4.0,0.0
11270,59.0,60.0,30.0,4.0,0.0
11271,56.0,0.0,30.0,4.0,0.0
11272,57.0,0.0,60.0,4.0,0.0
11273,66.0,0.0,60.0,4.0,0.0
11274,69.0,15.0,30.0,4.0,0.0
11275,66.0,15.0,40.0,3.0,0.0
11276,61.0,30.0,15.0,4.0,0.0
11277,54.0,0.0,60.0,4.0,0.0
11278,68.0,45.0,30.0,4.0,0.0
11279,50.0,0.0,60.0,4.0,0.0
11280,54.0,0.0,60.0,4.0,0.0
11281,69.0,30.0,60.0,4.0,0.0
11282,62.0,15.0,40.0,3.0,0.0
11283,59.0,15.0,40.0,3.0,0.0
11284,74.0,15.0,30.0,4.0,0.0
11285,59.0,0.0,60.0,4.0,0.0
11286,47.0,60.0,60.0,4.0,0.0
11287,73.0,0.0,30.0,4.0,0.0
11288,64.0,0.0,120.0,3.0,0.0
11289,52.0,30.0,60.0,4.0,0.0
11290,56.0,0.0,60.0,4.0,0.0
11291,74.0,0.0,60.0,4.0,0.0
11292,59.0,0.0,60.0,4.0,0.0
11293,56.0,0.0,30.0,4.0,0.0
11294,64.0,30.0,30.0,4.0,0.0
11295,62.0,60.0,30.0,4.0,0.0
11296,54.0,0.0,30.0,4.0,0.0
11297,56.0,30.0,60.0,4.0,0.0
11298,64.0,0.0,60.0,4.0,0.0
11299,52.0,45.0,60.0,4.0,0.0
11300,64.0,15.0,40.0,3.0,0.0
11301,59.0,0.0,15.0,4.0,0.0
11302,68.0,15.0,30.0,4.0,0.0
11303,66.0,0.0,30.0,4.0,0.0
11304,49.0,30.0,60.0,4.0,0.0
11305,52.0,0.0,60.0,4.0,0.0
11306,61.0,15.0,40.0,3.0,0.0
11307,68.0,0.0,60.0,4.0,0.0
11308,73.0,15.0,30.0,4.0,0.0
11309,45.0,0.0,60.0,4.0,0.0
11310,57.0,15.0,40.0,3.0,0.0
11311,71.0,60.0,30.0,4.0,0.0
11312,62.0,60.0,120.0,3.0,0.0
11313,57.0,0.0,15.0,4.0,0.0
11314,50.0,30.0,60.0,4.0,0.0
11315,73.0,0.0,60.0,4.0,0.0
11316,54.0,30.0,30.0,4.0,0.0
11317,62.0,0.0,30.0,4.0,0.0
11318,57.0,0.0,60.0,4.0,0.0
11319,61.0,0.0,30.0,4.0,0.0
11320,53.0,0.0,30.0,4.0,0.0
11321,62.0,30.0,60.0,4.0,0.0
11322,54.0,0.0,60.0,4.0,0.0
11323,57.0,0.0,60.0,4.0,0.0
11324,62.0,15.0,40.0,3.0,0.0
11325,66.0,15.0,30.0,4.0,0.0
11326,57.0,0.0,60.0,4.0,0.0
11327,65.0,0.0,30.0,4.0,0.0
11328,66.0,0.0,60.0,4.0,0.0
11329,47.0,0.0,60.0,4.0,0.0
11330,50.0,45.0,15.0,4.0,0.0
11331,59.0,15.0,40.0,3.0,0.0
11332,44.0,0.0,60.0,4.0,0.0
11333,71.0,15.0,30.0,4.0,0.0
11334,54.0,45.0,60.0,4.0,0.0
11335,56.0,15.0,40.0,3.0,0.0
11336,69.0,0.0,30.0,4.0,0.0
11337,49.0,45.0,120.0,4.0,0.0
11338,53.0,0.0,120.0,4.0,0.0
11339,71.0,30.0,60.0,4.0,0.0
11340,61.0,15.0,40.0,0.0,0.0
11341,65.0,0.0,120.0,2.0,0.0
11342,61.0,0.0,120.0,3.0,0.0
11343,61.0,0.0,60.0,4.0,0.0
11344,65.0,30.0,30.0,0.0,0.0
11345,63.0,0.0,30.0,0.0,0.0
11346,61.0,0.0,40.0,1.0,0.0
11347,61.0,30.0,60.0,4.0,0.0
11348,65.0,15.0,40.0,0.0,0.0
11349,68.0,30.0,30.0,0.0,0.0
11350,65.0,0.0,30.0,1.0,0.0
11351,63.0,0.0,30.0,1.0,0.0
11352,66.0,0.0,30.0,0.0,0.0
11353,71.0,30.0,15.0,4.0,0.0
11354,65.0,15.0,40.0,1.0,0.0
11355,68.0,30.0,60.0,0.0,0.0
11356,73.0,0.0,30.0,4.0,0.0
11357,74.0,30.0,30.0,4.0,0.0
11358,68.0,0.0,30.0,1.0,0.0
11359,71.0,45.0,30.0,4.0,0.0
11360,66.0,0.0,30.0,1.0,0.0
11361,68.0,15.0,40.0,1.0,0.0
11362,77.0,30.0,60.0,4.0,0.0
11363,59.0,0.0,120.0,3.0,0.0
11364,56.0,0.0,120.0,4.0,0.0
11365,61.0,0.0,40.0,0.0,0.0
11366,61.0,0.0,120.0,2.0,0.0
11367,47.0,0.0,120.0,4.0,0.0
11368,68.0,0.0,30.0,1.0,0.0
11369,65.0,30.0,30.0,0.0,0.0
11370,61.0,0.0,60.0,4.0,0.0
11371,63.0,0.0,30.0,0.0,0.0
11372,66.0,45.0,30.0,1.0,0.0
11373,65.0,15.0,40.0,0.0,0.0
11374,61.0,30.0,60.0,4.0,0.0
11375,68.0,0.0,40.0,1.0,0.0
11376,77.0,0.0,60.0,4.0,0.0
11377,68.0,30.0,30.0,0.0,0.0
11378,73.0,0.0,30.0,1.0,0.0
11379,71.0,30.0,30.0,1.0,0.0
11380,66.0,0.0,30.0,0.0,0.0
11381,68.0,0.0,60.0,0.0,0.0
11382,77.0,30.0,30.0,4.0,0.0
11383,73.0,30.0,60.0,1.0,0.0
11384,78.0,0.0,30.0,4.0,0.0
11385,80.0,30.0,30.0,4.0,0.0
11386,77.0,60.0,30.0,4.0,0.0
11387,58.0,0.0,120.0,3.0,0.0
11388,85.0,30.0,60.0,4.0,0.0
11389,46.0,60.0,120.0,4.0,0.0
11390,55.0,0.0,120.0,4.0,0.0
11391,79.0,30.0,30.0,4.0,0.0
11392,78.0,0.0,30.0,4.0,0.0
11393,79.0,30.0,60.0,4.0,0.0
11394,76.0,0.0,30.0,4.0,0.0
11395,67.0,30.0,30.0,4.0,0.0
11396,75.0,0.0,30.0,4.0,0.0
11397,66.0,60.0,30.0,4.0,0.0
11398,67.0,30.0,60.0,4.0,0.0
11399,76.0,0.0,60.0,4.0,0.0
11400,83.0,30.0,30.0,4.0,0.0
11401,82.0,60.0,30.0,4.0,0.0
11402,57.0,60.0,120.0,3.0,0.0
11403,66.0,0.0,120.0,4.0,0.0
11404,83.0,30.0,60.0,4.0,0.0
11405,63.0,0.0,120.0,4.0,0.0
11406,57.0,0.0,120.0,4.0,0.0
11407,78.0,30.0,30.0,4.0,0.0
11408,76.0,0.0,30.0,4.0,0.0
11409,78.0,30.0,60.0,4.0,0.0
11410,75.0,0.0,30.0,4.0,0.0
11411,66.0,30.0,30.0,4.0,0.0
11412,64.0,0.0,30.0,4.0,0.0
11413,73.0,60.0,30.0,4.0,0.0
11414,75.0,0.0,60.0,4.0,0.0
11415,66.0,30.0,60.0,4.0,0.0
11416,86.0,30.0,30.0,4.0,0.0
11417,85.0,60.0,30.0,4.0,0.0
11418,56.0,0.0,120.0,3.0,0.0
11419,86.0,30.0,60.0,4.0,0.0
11420,56.0,0.0,120.0,4.0,0.0
11421,59.0,0.0,120.0,4.0,0.0
11422,65.0,0.0,120.0,4.0,0.0
11423,83.0,30.0,30.0,4.0,0.0
11424,81.0,60.0,30.0,4.0,0.0
11425,83.0,30.0,60.0,4.0,0.0
11426,80.0,0.0,30.0,4.0,0.0
11427,71.0,30.0,30.0,4.0,0.0
11428,69.0,60.0,30.0,4.0,0.0
11429,78.0,0.0,30.0,4.0,0.0
11430,71.0,30.0,60.0,4.0,0.0
11431,80.0,0.0,60.0,4.0,0.0
11432,68.0,0.0,30.0,4.0,0.0
11433,77.0,30.0,30.0,4.0,0.0
11434,75.0,0.0,30.0,4.0,0.0
11435,66.0,60.0,30.0,4.0,0.0
11436,59.0,0.0,120.0,3.0,0.0
11437,77.0,30.0,60.0,4.0,0.0
11438,38.0,0.0,120.0,4.0,0.0
11439,68.0,0.0,60.0,4.0,0.0
11440,65.0,30.0,30.0,4.0,0.0
11441,73.0,0.0,30.0,4.0,0.0
11442,71.0,0.0,30.0,4.0,0.0
11443,63.0,60.0,30.0,4.0,0.0
11444,65.0,45.0,60.0,4.0,0.0
11445,73.0,0.0,60.0,4.0,0.0
11446,68.0,30.0,60.0,4.0,0.0
11447,56.0,15.0,40.0,3.0,0.0
11448,61.0,30.0,60.0,4.0,0.0
11449,83.0,0.0,15.0,4.0,0.0
11450,53.0,15.0,40.0,3.0,0.0
11451,81.0,0.0,30.0,4.0,0.0
11452,65.0,30.0,60.0,4.0,0.0
11453,83.0,15.0,30.0,4.0,0.0
11454,49.0,15.0,40.0,3.0,0.0
11455,80.0,0.0,30.0,4.0,0.0
11456,54.0,15.0,40.0,3.0,0.0
11457,81.0,15.0,30.0,4.0,0.0
11458,66.0,0.0,60.0,4.0,0.0
11459,83.0,30.0,30.0,4.0,0.0
11460,64.0,15.0,60.0,4.0,0.0
11461,81.0,15.0,30.0,4.0,0.0
11462,52.0,15.0,40.0,3.0,0.0
11463,83.0,0.0,15.0,4.0,0.0
11464,62.0,15.0,60.0,4.0,0.0
11465,50.0,0.0,120.0,3.0,0.0
11466,85.0,15.0,15.0,4.0,0.0
11467,83.0,15.0,15.0,4.0,0.0
11468,85.0,0.0,15.0,4.0,0.0
11469,83.0,15.0,15.0,4.0,0.0
11470,61.0,0.0,60.0,4.0,0.0
11471,85.0,15.0,15.0,4.0,0.0
11472,83.0,15.0,15.0,4.0,0.0
11473,85.0,15.0,15.0,4.0,0.0
11474,62.0,0.0,120.0,3.0,0.0
11475,83.0,15.0,15.0,4.0,0.0
11476,62.0,0.0,120.0,4.0,0.0
11477,85.0,15.0,15.0,4.0,0.0
11478,83.0,15.0,15.0,4.0,0.0
11479,85.0,15.0,15.0,4.0,0.0
11480,83.0,15.0,15.0,4.0,0.0
11481,85.0,15.0,15.0,4.0,0.0
11482,81.0,15.0,15.0,4.0,0.0
11483,83.0,45.0,15.0,4.0,0.0
11484,61.0,30.0,180.0,4.0,0.0
11485,85.0,30.0,60.0,4.0,0.0
11486,73.0,0.0,40.0,1.0,0.0
11487,61.0,0.0,120.0,3.0,0.0
11488,73.0,15.0,40.0,0.0,0.0
11489,71.0,0.0,30.0,1.0,0.0
11490,80.0,0.0,30.0,4.0,0.0
11491,71.0,30.0,30.0,0.0,0.0
11492,69.0,0.0,30.0,0.0,0.0
11493,69.0,45.0,30.0,1.0,0.0
11494,76.0,0.0,30.0,4.0,0.0
11495,68.0,15.0,40.0,0.0,0.0
11496,73.0,0.0,60.0,4.0,0.0
11497,68.0,0.0,40.0,1.0,0.0
11498,63.0,15.0,30.0,4.0,0.0
11499,66.0,15.0,40.0,1.0,0.0
11500,66.0,0.0,40.0,0.0,0.0
11501,64.0,30.0,30.0,4.0,0.0
11502,64.0,0.0,40.0,0.0,0.0
11503,64.0,15.0,40.0,1.0,0.0
11504,66.0,15.0,30.0,4.0,0.0
11505,68.0,30.0,30.0,4.0,0.0
11506,63.0,0.0,40.0,1.0,0.0
11507,70.0,15.0,30.0,4.0,0.0
11508,63.0,15.0,40.0,0.0,0.0
11509,72.0,45.0,30.0,4.0,0.0
11510,73.0,30.0,60.0,4.0,0.0
11511,64.0,0.0,40.0,1.0,0.0
11512,64.0,15.0,40.0,0.0,0.0
11513,68.0,0.0,30.0,2.0,0.0
11514,76.0,15.0,30.0,4.0,0.0
11515,49.0,0.0,30.0,3.0,0.0
11516,61.0,0.0,40.0,1.0,0.0
11517,61.0,15.0,40.0,0.0,0.0
11518,49.0,0.0,30.0,4.0,0.0
11519,78.0,0.0,30.0,4.0,0.0
11520,51.0,0.0,30.0,4.0,0.0
11521,66.0,0.0,30.0,2.0,0.0
11522,51.0,45.0,30.0,3.0,0.0
11523,52.0,0.0,60.0,4.0,0.0
11524,80.0,30.0,60.0,4.0,0.0
11525,64.0,15.0,40.0,2.0,0.0
11526,73.0,0.0,40.0,1.0,0.0
11527,52.0,0.0,40.0,3.0,0.0
11528,73.0,0.0,40.0,0.0,0.0
11529,51.0,15.0,30.0,4.0,0.0
11530,51.0,0.0,30.0,3.0,0.0
11531,73.0,0.0,40.0,0.0,0.0
11532,68.0,0.0,40.0,2.0,0.0
11533,73.0,15.0,40.0,1.0,0.0
11534,78.0,0.0,30.0,4.0,0.0
11535,52.0,0.0,30.0,3.0,0.0
11536,52.0,0.0,30.0,4.0,0.0
11537,80.0,45.0,30.0,4.0,0.0
11538,73.0,0.0,40.0,1.0,0.0
11539,54.0,0.0,40.0,3.0,0.0
11540,54.0,0.0,60.0,4.0,0.0
11541,64.0,0.0,40.0,2.0,0.0
11542,81.0,30.0,60.0,4.0,0.0
11543,73.0,15.0,40.0,0.0,0.0
11544,73.0,0.0,40.0,0.0,0.0
11545,52.0,15.0,30.0,3.0,0.0
11546,73.0,15.0,40.0,1.0,0.0
11547,61.0,0.0,40.0,2.0,0.0
11548,52.0,0.0,30.0,4.0,0.0
11549,80.0,0.0,30.0,4.0,0.0
11550,54.0,30.0,30.0,3.0,0.0
11551,54.0,0.0,30.0,4.0,0.0
11552,81.0,0.0,30.0,4.0,0.0
11553,75.0,0.0,60.0,4.0,0.0
11554,68.0,15.0,40.0,2.0,0.0
11555,56.0,0.0,60.0,4.0,0.0
11556,56.0,0.0,40.0,3.0,0.0
11557,73.0,0.0,30.0,1.0,0.0
11558,73.0,15.0,30.0,0.0,0.0
11559,71.0,0.0,30.0,1.0,0.0
11560,71.0,30.0,30.0,0.0,0.0
11561,71.0,0.0,30.0,2.0,0.0
11562,52.0,30.0,30.0,3.0,0.0
11563,73.0,0.0,30.0,1.0,0.0
11564,52.0,0.0,30.0,4.0,0.0
11565,73.0,0.0,30.0,0.0,0.0
11566,54.0,0.0,30.0,4.0,0.0
11567,75.0,0.0,30.0,0.0,0.0
11568,69.0,0.0,30.0,2.0,0.0
11569,75.0,45.0,30.0,1.0,0.0
11570,54.0,0.0,30.0,3.0,0.0
11571,56.0,0.0,40.0,3.0,0.0
11572,56.0,0.0,60.0,4.0,0.0
11573,76.0,0.0,40.0,0.0,0.0
11574,68.0,0.0,40.0,2.0,0.0
11575,83.0,30.0,60.0,4.0,0.0
11576,76.0,15.0,40.0,1.0,0.0
11577,76.0,0.0,40.0,0.0,0.0
11578,76.0,15.0,40.0,1.0,0.0
11579,81.0,0.0,30.0,4.0,0.0
11580,54.0,15.0,30.0,4.0,0.0
11581,71.0,0.0,40.0,2.0,0.0
11582,54.0,0.0,30.0,3.0,0.0
11583,56.0,45.0,30.0,4.0,0.0
11584,83.0,0.0,30.0,4.0,0.0
11585,56.0,0.0,30.0,3.0,0.0
11586,76.0,0.0,40.0,1.0,0.0
11587,57.0,15.0,40.0,3.0,0.0
11588,76.0,0.0,40.0,0.0,0.0
11589,68.0,0.0,40.0,2.0,0.0
11590,57.0,0.0,60.0,4.0,0.0
11591,85.0,30.0,60.0,4.0,0.0
11592,76.0,0.0,40.0,1.0,0.0
11593,76.0,15.0,40.0,0.0,0.0
11594,56.0,0.0,30.0,3.0,0.0
11595,64.0,0.0,40.0,2.0,0.0
11596,56.0,0.0,30.0,4.0,0.0
11597,83.0,15.0,30.0,4.0,0.0
11598,57.0,0.0,30.0,3.0,0.0
11599,85.0,30.0,30.0,4.0,0.0
11600,57.0,0.0,30.0,4.0,0.0
11601,76.0,0.0,30.0,1.0,0.0
11602,71.0,15.0,40.0,2.0,0.0
11603,78.0,0.0,60.0,4.0,0.0
11604,59.0,0.0,40.0,3.0,0.0
11605,76.0,15.0,30.0,0.0,0.0
11606,59.0,30.0,60.0,4.0,0.0
11607,75.0,0.0,30.0,1.0,0.0
11608,75.0,0.0,30.0,0.0,0.0
11609,75.0,0.0,30.0,2.0,0.0
11610,76.0,0.0,30.0,1.0,0.0
11611,56.0,0.0,30.0,3.0,0.0
11612,76.0,30.0,30.0,0.0,0.0
11613,56.0,0.0,30.0,4.0,0.0
11614,58.0,45.0,30.0,4.0,0.0
11615,73.0,0.0,30.0,2.0,0.0
11616,58.0,0.0,30.0,3.0,0.0
11617,78.0,0.0,30.0,0.0,0.0
11618,78.0,0.0,30.0,1.0,0.0
11619,71.0,0.0,40.0,2.0,0.0
11620,80.0,0.0,40.0,1.0,0.0
11621,59.0,15.0,40.0,3.0,0.0
11622,80.0,0.0,40.0,0.0,0.0
11623,59.0,0.0,60.0,4.0,0.0
11624,87.0,30.0,60.0,4.0,0.0
11625,80.0,0.0,40.0,0.0,0.0
11626,58.0,0.0,30.0,3.0,0.0
11627,57.0,15.0,30.0,4.0,0.0
11628,85.0,0.0,30.0,4.0,0.0
11629,80.0,15.0,40.0,1.0,0.0
11630,75.0,0.0,40.0,2.0,0.0
11631,59.0,0.0,30.0,3.0,0.0
11632,87.0,45.0,30.0,4.0,0.0
11633,59.0,0.0,30.0,4.0,0.0
11634,88.0,0.0,60.0,4.0,0.0
11635,61.0,0.0,40.0,3.0,0.0
11636,80.0,15.0,40.0,0.0,0.0
11637,61.0,30.0,60.0,4.0,0.0
11638,80.0,0.0,40.0,1.0,0.0
11639,71.0,0.0,40.0,2.0,0.0
11640,80.0,0.0,40.0,1.0,0.0
11641,59.0,15.0,30.0,3.0,0.0
11642,80.0,15.0,40.0,0.0,0.0
11643,68.0,0.0,40.0,2.0,0.0
11644,59.0,0.0,30.0,4.0,0.0
11645,87.0,0.0,30.0,4.0,0.0
11646,61.0,0.0,30.0,4.0,0.0
11647,61.0,30.0,30.0,3.0,0.0
11648,88.0,0.0,30.0,4.0,0.0
11649,82.0,30.0,60.0,4.0,0.0
11650,63.0,15.0,30.0,4.0,0.0
11651,75.0,0.0,120.0,2.0,0.0
11652,80.0,0.0,40.0,1.0,0.0
11653,80.0,15.0,40.0,0.0,0.0
11654,63.0,0.0,40.0,3.0,0.0
11655,64.0,0.0,30.0,4.0,0.0
11656,84.0,0.0,30.0,4.0,0.0
11657,78.0,15.0,30.0,0.0,0.0
11658,51.0,15.0,40.0,3.0,0.0
11659,78.0,0.0,30.0,1.0,0.0
11660,63.0,0.0,30.0,4.0,0.0
11661,61.0,0.0,30.0,4.0,0.0
11662,85.0,30.0,30.0,4.0,0.0
11663,76.0,0.0,30.0,0.0,0.0
11664,76.0,0.0,30.0,1.0,0.0
11665,78.0,0.0,40.0,1.0,0.0
11666,63.0,0.0,40.0,3.0,0.0
11667,87.0,0.0,30.0,4.0,0.0
11668,60.0,15.0,30.0,4.0,0.0
11669,78.0,15.0,40.0,0.0,0.0
11670,85.0,30.0,30.0,4.0,0.0
11671,61.0,0.0,30.0,4.0,0.0
11672,75.0,0.0,30.0,0.0,0.0
11673,63.0,0.0,30.0,4.0,0.0
11674,75.0,0.0,40.0,2.0,0.0
11675,61.0,15.0,40.0,3.0,0.0
11676,75.0,0.0,30.0,1.0,0.0
11677,84.0,15.0,30.0,4.0,0.0
11678,76.0,0.0,30.0,0.0,0.0
11679,61.0,0.0,30.0,4.0,0.0
11680,76.0,30.0,30.0,1.0,0.0
11681,85.0,0.0,30.0,4.0,0.0
11682,87.0,15.0,30.0,4.0,0.0
11683,60.0,0.0,60.0,4.0,0.0
11684,78.0,15.0,40.0,1.0,0.0
11685,60.0,0.0,40.0,3.0,0.0
11686,68.0,0.0,40.0,2.0,0.0
11687,78.0,0.0,40.0,0.0,0.0
11688,85.0,30.0,30.0,4.0,0.0
11689,56.0,0.0,40.0,3.0,0.0
11690,84.0,15.0,30.0,4.0,0.0
11691,56.0,30.0,60.0,4.0,0.0
11692,72.0,0.0,40.0,2.0,0.0
11693,78.0,0.0,40.0,0.0,0.0
11694,78.0,15.0,40.0,1.0,0.0
11695,82.0,0.0,30.0,4.0,0.0
11696,78.0,0.0,40.0,1.0,0.0
11697,61.0,0.0,40.0,3.0,0.0
11698,78.0,15.0,40.0,0.0,0.0
11699,73.0,0.0,120.0,2.0,0.0
11700,80.0,15.0,30.0,4.0,0.0
11701,61.0,30.0,60.0,4.0,0.0
11702,85.0,0.0,30.0,4.0,0.0
11703,49.0,15.0,40.0,3.0,0.0
11704,84.0,0.0,30.0,4.0,0.0
11705,76.0,15.0,30.0,0.0,0.0
11706,76.0,0.0,30.0,1.0,0.0
11707,49.0,30.0,60.0,4.0,0.0
11708,75.0,0.0,30.0,0.0,0.0
11709,82.0,0.0,30.0,4.0,0.0
11710,75.0,0.0,30.0,1.0,0.0
11711,61.0,30.0,60.0,4.0,0.0
11712,80.0,15.0,30.0,4.0,0.0
11713,76.0,0.0,40.0,1.0,0.0
11714,61.0,15.0,40.0,3.0,0.0
11715,76.0,0.0,40.0,0.0,0.0
11716,78.0,0.0,30.0,4.0,0.0
11717,59.0,15.0,40.0,3.0,0.0
11718,59.0,0.0,60.0,4.0,0.0
11719,73.0,0.0,30.0,0.0,0.0
11720,73.0,0.0,30.0,1.0,0.0
11721,68.0,0.0,40.0,2.0,0.0
11722,76.0,15.0,30.0,4.0,0.0
11723,78.0,15.0,30.0,4.0,0.0
11724,75.0,0.0,30.0,1.0,0.0
11725,75.0,0.0,30.0,0.0,0.0
11726,73.0,15.0,40.0,2.0,0.0
11727,76.0,0.0,40.0,0.0,0.0
11728,57.0,0.0,40.0,3.0,0.0
11729,80.0,15.0,15.0,4.0,0.0
11730,57.0,30.0,60.0,4.0,0.0
11731,76.0,0.0,40.0,1.0,0.0
11732,78.0,15.0,15.0,4.0,0.0
11733,80.0,15.0,120.0,4.0,0.0
11734,78.0,15.0,30.0,1.0,0.0
11735,56.0,15.0,40.0,3.0,0.0
11736,56.0,0.0,60.0,4.0,0.0
11737,71.0,0.0,40.0,2.0,0.0
11738,78.0,0.0,30.0,0.0,0.0
11739,80.0,30.0,30.0,1.0,0.0
11740,80.0,0.0,30.0,0.0,0.0
11741,54.0,15.0,40.0,3.0,0.0
11742,54.0,30.0,60.0,4.0,0.0
11743,81.0,0.0,40.0,0.0,0.0
11744,73.0,0.0,120.0,2.0,0.0
11745,81.0,0.0,40.0,1.0,0.0
11746,83.0,0.0,30.0,4.0,0.0
11747,78.0,0.0,30.0,1.0,0.0
11748,56.0,30.0,30.0,3.0,0.0
11749,56.0,0.0,30.0,4.0,0.0
11750,81.0,0.0,30.0,4.0,0.0
11751,78.0,0.0,30.0,0.0,0.0
11752,76.0,0.0,30.0,1.0,0.0
11753,76.0,0.0,30.0,0.0,0.0
11754,57.0,30.0,30.0,3.0,0.0
11755,57.0,0.0,30.0,4.0,0.0
11756,80.0,0.0,30.0,4.0,0.0
11757,78.0,15.0,30.0,4.0,0.0
11758,75.0,15.0,40.0,0.0,0.0
11759,75.0,0.0,40.0,1.0,0.0
11760,59.0,0.0,40.0,3.0,0.0
11761,59.0,0.0,60.0,4.0,0.0
11762,76.0,30.0,30.0,4.0,0.0
11763,66.0,15.0,40.0,2.0,0.0
11764,75.0,15.0,30.0,4.0,0.0
11765,57.0,0.0,60.0,4.0,0.0
11766,71.0,0.0,30.0,1.0,0.0
11767,57.0,0.0,40.0,3.0,0.0
11768,71.0,0.0,30.0,0.0,0.0
11769,73.0,15.0,30.0,0.0,0.0
11770,76.0,0.0,30.0,4.0,0.0
11771,73.0,0.0,30.0,1.0,0.0
11772,75.0,0.0,40.0,1.0,0.0
11773,56.0,0.0,40.0,3.0,0.0
11774,75.0,15.0,40.0,0.0,0.0
11775,78.0,15.0,15.0,4.0,0.0
11776,56.0,30.0,60.0,4.0,0.0
11777,71.0,0.0,40.0,2.0,0.0
11778,76.0,15.0,15.0,4.0,0.0
11779,78.0,15.0,120.0,4.0,0.0
11780,76.0,0.0,30.0,1.0,0.0
11781,54.0,0.0,40.0,3.0,0.0
11782,54.0,30.0,60.0,4.0,0.0
11783,76.0,15.0,30.0,0.0,0.0
11784,69.0,15.0,40.0,2.0,0.0
11785,78.0,0.0,30.0,0.0,0.0
11786,78.0,0.0,30.0,1.0,0.0
11787,80.0,0.0,40.0,0.0,0.0
11788,52.0,0.0,40.0,3.0,0.0
11789,71.0,0.0,120.0,2.0,0.0
11790,80.0,15.0,40.0,1.0,0.0
11791,52.0,0.0,60.0,4.0,0.0
11792,81.0,30.0,30.0,4.0,0.0
11793,80.0,0.0,30.0,4.0,0.0
11794,54.0,30.0,30.0,4.0,0.0
11795,54.0,0.0,30.0,3.0,0.0
11796,76.0,0.0,30.0,0.0,0.0
11797,76.0,0.0,30.0,1.0,0.0
11798,56.0,0.0,30.0,3.0,0.0
11799,75.0,0.0,30.0,0.0,0.0
11800,75.0,0.0,30.0,1.0,0.0
11801,78.0,0.0,30.0,4.0,0.0
11802,56.0,30.0,30.0,4.0,0.0
11803,73.0,0.0,40.0,0.0,0.0
11804,73.0,15.0,40.0,1.0,0.0
11805,57.0,0.0,40.0,3.0,0.0
11806,76.0,15.0,30.0,4.0,0.0
11807,57.0,30.0,60.0,4.0,0.0
11808,73.0,0.0,30.0,4.0,0.0
11809,85.0,0.0,30.0,1.0,0.0
11810,64.0,0.0,40.0,2.0,0.0
11811,76.0,15.0,30.0,4.0,0.0
11812,85.0,0.0,30.0,0.0,0.0
11813,56.0,15.0,40.0,3.0,0.0
11814,56.0,0.0,60.0,4.0,0.0
11815,84.0,0.0,30.0,1.0,0.0
11816,80.0,0.0,30.0,4.0,0.0
11817,84.0,45.0,30.0,0.0,0.0
11818,85.0,0.0,40.0,0.0,0.0
11819,69.0,0.0,40.0,2.0,0.0
11820,54.0,0.0,40.0,3.0,0.0
11821,54.0,45.0,60.0,4.0,0.0
11822,85.0,15.0,40.0,1.0,0.0
11823,85.0,15.0,150.0,4.0,0.0
11824,52.0,30.0,60.0,4.0,0.0
11825,52.0,15.0,40.0,3.0,0.0
11826,73.0,0.0,40.0,2.0,0.0
11827,81.0,0.0,40.0,1.0,0.0
11828,81.0,0.0,40.0,0.0,0.0
11829,69.0,0.0,120.0,2.0,0.0
11830,78.0,0.0,60.0,0.0,0.0
11831,78.0,0.0,60.0,1.0,0.0
11832,51.0,30.0,60.0,4.0,0.0
11833,51.0,15.0,40.0,3.0,0.0
11834,78.0,0.0,30.0,4.0,0.0
11835,77.0,0.0,60.0,1.0,0.0
11836,77.0,0.0,60.0,0.0,0.0
11837,49.0,15.0,40.0,3.0,0.0
11838,49.0,45.0,60.0,4.0,0.0
11839,81.0,15.0,30.0,4.0,0.0
11840,85.0,0.0,30.0,4.0,0.0
11841,78.0,0.0,40.0,0.0,0.0
11842,48.0,15.0,40.0,3.0,0.0
11843,78.0,0.0,40.0,1.0,0.0
11844,90.0,30.0,60.0,4.0,0.0
11845,48.0,0.0,60.0,4.0,0.0
11846,81.0,0.0,30.0,1.0,0.0
11847,49.0,15.0,40.0,3.0,0.0
11848,81.0,0.0,30.0,0.0,0.0
11849,90.0,0.0,60.0,4.0,0.0
11850,66.0,15.0,30.0,2.0,0.0
11851,49.0,45.0,60.0,4.0,0.0
11852,64.0,0.0,30.0,2.0,0.0
11853,80.0,0.0,30.0,1.0,0.0
11854,80.0,0.0,30.0,0.0,0.0
11855,66.0,0.0,40.0,2.0,0.0
11856,81.0,0.0,40.0,1.0,0.0
11857,51.0,0.0,60.0,4.0,0.0
11858,81.0,0.0,40.0,0.0,0.0
11859,51.0,15.0,40.0,3.0,0.0
11860,90.0,30.0,15.0,4.0,0.0
11861,52.0,45.0,60.0,4.0,0.0
11862,78.0,0.0,40.0,0.0,0.0
11863,52.0,15.0,40.0,3.0,0.0
11864,69.0,15.0,30.0,2.0,0.0
11865,78.0,0.0,40.0,1.0,0.0
11866,68.0,0.0,30.0,2.0,0.0
11867,54.0,15.0,40.0,3.0,0.0
11868,69.0,0.0,40.0,2.0,0.0
11869,74.0,0.0,60.0,0.0,0.0
11870,74.0,0.0,60.0,1.0,0.0
11871,54.0,45.0,60.0,4.0,0.0
11872,90.0,0.0,60.0,4.0,0.0
11873,73.0,0.0,60.0,1.0,0.0
11874,73.0,0.0,60.0,0.0,0.0
11875,68.0,0.0,40.0,2.0,0.0
11876,52.0,45.0,60.0,4.0,0.0
11877,90.0,0.0,60.0,4.0,0.0
11878,52.0,15.0,40.0,3.0,0.0
11879,74.0,15.0,40.0,0.0,0.0
11880,74.0,0.0,40.0,1.0,0.0
11881,54.0,30.0,60.0,4.0,0.0
11882,90.0,0.0,60.0,4.0,0.0
11883,54.0,0.0,40.0,3.0,0.0
11884,69.0,0.0,40.0,2.0,0.0
11885,56.0,0.0,60.0,4.0,0.0
11886,90.0,0.0,60.0,4.0,0.0
11887,78.0,0.0,30.0,0.0,0.0
11888,78.0,15.0,30.0,1.0,0.0
11889,56.0,15.0,40.0,3.0,0.0
11890,71.0,0.0,40.0,2.0,0.0
11891,77.0,45.0,30.0,0.0,0.0
11892,77.0,0.0,30.0,1.0,0.0
11893,57.0,0.0,60.0,4.0,0.0
11894,73.0,15.0,40.0,2.0,0.0
11895,57.0,0.0,40.0,3.0,0.0
11896,78.0,0.0,40.0,0.0,0.0
11897,78.0,0.0,40.0,1.0,0.0
11898,90.0,45.0,15.0,4.0,0.0
11899,74.0,15.0,40.0,1.0,0.0
11900,74.0,0.0,40.0,0.0,0.0
11901,69.0,0.0,40.0,2.0,0.0
11902,54.0,0.0,40.0,3.0,0.0
11903,56.0,45.0,15.0,4.0,0.0
11904,90.0,15.0,60.0,4.0,0.0
11905,72.0,0.0,40.0,1.0,0.0
11906,63.0,0.0,40.0,2.0,0.0
11907,56.0,0.0,120.0,3.0,0.0
11908,72.0,15.0,40.0,0.0,0.0
11909,88.0,15.0,15.0,4.0,0.0
11910,81.0,0.0,30.0,0.0,0.0
11911,81.0,15.0,30.0,1.0,0.0
11912,72.0,15.0,40.0,2.0,0.0
11913,87.0,0.0,15.0,4.0,0.0
11914,85.0,0.0,30.0,4.0,0.0
11915,80.0,0.0,30.0,0.0,0.0
11916,80.0,0.0,30.0,1.0,0.0
11917,72.0,0.0,40.0,2.0,0.0
11918,81.0,0.0,40.0,1.0,0.0
11919,81.0,0.0,40.0,0.0,0.0
11920,44.0,0.0,120.0,4.0,0.0
11921,87.0,15.0,30.0,4.0,0.0
11922,84.0,15.0,15.0,4.0,0.0
11923,85.0,15.0,15.0,4.0,0.0
11924,72.0,15.0,40.0,2.0,0.0
11925,78.0,0.0,30.0,0.0,0.0
11926,78.0,15.0,30.0,1.0,0.0
11927,87.0,15.0,15.0,4.0,0.0
11928,88.0,0.0,15.0,4.0,0.0
11929,90.0,0.0,30.0,4.0,0.0
11930,77.0,0.0,30.0,0.0,0.0
11931,77.0,30.0,30.0,1.0,0.0
11932,72.0,0.0,40.0,2.0,0.0
11933,78.0,15.0,40.0,1.0,0.0
11934,81.0,15.0,30.0,4.0,0.0
11935,78.0,0.0,40.0,0.0,0.0
11936,80.0,0.0,15.0,4.0,0.0
11937,78.0,45.0,15.0,4.0,0.0
11938,54.0,0.0,60.0,4.0,0.0
11939,80.0,0.0,40.0,4.0,0.0
11940,72.0,0.0,40.0,0.0,0.0
11941,75.0,0.0,40.0,2.0,0.0
11942,72.0,0.0,40.0,1.0,0.0
11943,54.0,15.0,40.0,3.0,0.0
11944,81.0,45.0,15.0,4.0,0.0
11945,52.0,30.0,60.0,4.0,0.0
11946,80.0,0.0,60.0,4.0,0.0
11947,68.0,0.0,40.0,2.0,0.0
11948,52.0,0.0,40.0,3.0,0.0
11949,73.0,0.0,40.0,0.0,0.0
11950,73.0,15.0,40.0,1.0,0.0
11951,88.0,0.0,60.0,4.0,0.0
11952,51.0,15.0,30.0,4.0,0.0
11953,51.0,0.0,30.0,3.0,0.0
11954,64.0,0.0,40.0,0.0,0.0
11955,68.0,15.0,40.0,2.0,0.0
11956,64.0,0.0,40.0,1.0,0.0
11957,49.0,0.0,30.0,4.0,0.0
11958,49.0,15.0,30.0,3.0,0.0
11959,57.0,0.0,40.0,3.0,0.0
11960,73.0,0.0,40.0,2.0,0.0
11961,66.0,0.0,40.0,1.0,0.0
11962,66.0,15.0,40.0,0.0,0.0
11963,57.0,30.0,60.0,4.0,0.0
11964,87.0,30.0,15.0,4.0,0.0
11965,85.0,0.0,60.0,4.0,0.0
11966,73.0,0.0,40.0,1.0,0.0
11967,56.0,15.0,30.0,3.0,0.0
11968,69.0,0.0,40.0,2.0,0.0
11969,73.0,15.0,40.0,0.0,0.0
11970,56.0,0.0,30.0,4.0,0.0
11971,54.0,0.0,30.0,4.0,0.0
11972,87.0,0.0,30.0,4.0,0.0
11973,54.0,15.0,30.0,3.0,0.0
11974,56.0,30.0,60.0,4.0,0.0
11975,68.0,0.0,40.0,1.0,0.0
11976,87.0,15.0,15.0,4.0,0.0
11977,68.0,0.0,40.0,0.0,0.0
11978,56.0,0.0,40.0,3.0,0.0
11979,63.0,15.0,40.0,2.0,0.0
11980,88.0,15.0,15.0,4.0,0.0
11981,87.0,15.0,60.0,4.0,0.0
11982,68.0,0.0,40.0,2.0,0.0
11983,44.0,0.0,40.0,3.0,0.0
11984,72.0,0.0,40.0,1.0,0.0
11985,44.0,60.0,60.0,4.0,0.0
11986,72.0,15.0,40.0,0.0,0.0
11987,85.0,0.0,30.0,4.0,0.0
11988,64.0,0.0,120.0,2.0,0.0
11989,73.0,0.0,120.0,1.0,0.0
11990,73.0,60.0,120.0,0.0,0.0
11991,49.0,0.0,120.0,3.0,0.0
11992,49.0,30.0,60.0,4.0,0.0
11993,85.0,0.0,60.0,4.0,0.0
11994,56.0,0.0,60.0,4.0,0.0
11995,61.0,30.0,30.0,4.0,0.0
11996,52.0,0.0,30.0,4.0,0.0
11997,51.0,0.0,30.0,4.0,0.0
11998,60.0,0.0,30.0,4.0,0.0
11999,52.0,30.0,60.0,4.0,0.0
12000,61.0,0.0,60.0,4.0,0.0
12001,56.0,0.0,15.0,4.0,0.0
12002,61.0,30.0,30.0,4.0,0.0
12003,64.0,0.0,30.0,4.0,0.0
12004,54.0,0.0,30.0,4.0,0.0
12005,63.0,60.0,30.0,4.0,0.0
12006,60.0,0.0,30.0,4.0,0.0
12007,64.0,0.0,60.0,4.0,0.0
12008,56.0,0.0,60.0,4.0,0.0
12009,61.0,30.0,60.0,4.0,0.0
12010,61.0,0.0,60.0,4.0,0.0
12011,64.0,30.0,30.0,4.0,0.0
12012,68.0,0.0,30.0,4.0,0.0
12013,66.0,60.0,30.0,4.0,0.0
12014,63.0,0.0,30.0,4.0,0.0
12015,61.0,30.0,60.0,4.0,0.0
12016,61.0,0.0,30.0,3.0,0.0
12017,73.0,15.0,40.0,0.0,0.0
12018,64.0,0.0,15.0,4.0,0.0
12019,73.0,0.0,30.0,4.0,0.0
12020,68.0,0.0,15.0,4.0,0.0
12021,73.0,0.0,40.0,1.0,0.0
12022,64.0,0.0,30.0,2.0,0.0
12023,66.0,45.0,30.0,2.0,0.0
12024,63.0,0.0,30.0,3.0,0.0
12025,63.0,0.0,30.0,4.0,0.0
12026,72.0,0.0,30.0,4.0,0.0
12027,64.0,0.0,60.0,4.0,0.0
12028,85.0,0.0,40.0,0.0,0.0
12029,64.0,0.0,40.0,3.0,0.0
12030,68.0,15.0,40.0,2.0,0.0
12031,85.0,0.0,40.0,1.0,0.0
12032,73.0,30.0,60.0,4.0,0.0
12033,68.0,0.0,60.0,4.0,0.0
12034,63.0,0.0,30.0,3.0,0.0
12035,85.0,15.0,40.0,1.0,0.0
12036,63.0,0.0,30.0,4.0,0.0
12037,85.0,0.0,40.0,0.0,0.0
12038,66.0,15.0,30.0,2.0,0.0
12039,68.0,0.0,30.0,2.0,0.0
12040,64.0,45.0,30.0,3.0,0.0
12041,64.0,0.0,30.0,4.0,0.0
12042,69.0,0.0,40.0,2.0,0.0
12043,85.0,0.0,40.0,0.0,0.0
12044,85.0,15.0,40.0,1.0,0.0
12045,66.0,0.0,40.0,3.0,0.0
12046,66.0,30.0,60.0,4.0,0.0
12047,64.0,15.0,30.0,3.0,0.0
12048,64.0,0.0,30.0,4.0,0.0
12049,85.0,15.0,40.0,1.0,0.0
12050,85.0,0.0,40.0,0.0,0.0
12051,68.0,0.0,30.0,2.0,0.0
12052,66.0,0.0,30.0,4.0,0.0
12053,69.0,0.0,30.0,2.0,0.0
12054,66.0,45.0,30.0,3.0,0.0
12055,85.0,15.0,40.0,0.0,0.0
12056,85.0,0.0,40.0,1.0,0.0
12057,63.0,0.0,120.0,2.0,0.0
12058,68.0,60.0,120.0,3.0,0.0
12059,83.0,0.0,30.0,1.0,0.0
12060,56.0,0.0,60.0,4.0,0.0
12061,65.0,0.0,30.0,4.0,0.0
12062,68.0,30.0,15.0,4.0,0.0
12063,83.0,30.0,30.0,0.0,0.0
12064,69.0,0.0,30.0,4.0,0.0
12065,66.0,0.0,30.0,4.0,0.0
12066,81.0,0.0,30.0,1.0,0.0
12067,81.0,0.0,30.0,0.0,0.0
12068,83.0,0.0,60.0,0.0,0.0
12069,83.0,30.0,60.0,1.0,0.0
12070,65.0,0.0,15.0,4.0,0.0
12071,62.0,30.0,30.0,4.0,0.0
12072,68.0,0.0,15.0,4.0,0.0
12073,71.0,0.0,30.0,4.0,0.0
12074,61.0,60.0,30.0,4.0,0.0
12075,69.0,0.0,30.0,4.0,0.0
12076,71.0,30.0,60.0,4.0,0.0
12077,62.0,0.0,60.0,4.0,0.0
12078,59.0,0.0,30.0,4.0,0.0
12079,74.0,30.0,30.0,4.0,0.0
12080,57.0,0.0,30.0,4.0,0.0
12081,73.0,0.0,30.0,4.0,0.0
12082,74.0,0.0,60.0,4.0,0.0
12083,68.0,0.0,15.0,4.0,0.0
12084,65.0,60.0,15.0,4.0,0.0
12085,59.0,0.0,60.0,4.0,0.0
12086,65.0,0.0,30.0,2.0,0.0
12087,56.0,0.0,60.0,4.0,0.0
12088,71.0,0.0,60.0,4.0,0.0
12089,77.0,0.0,30.0,4.0,0.0
12090,80.0,0.0,30.0,0.0,0.0
12091,80.0,15.0,30.0,1.0,0.0
12092,56.0,15.0,40.0,3.0,0.0
12093,75.0,0.0,30.0,4.0,0.0
12094,81.0,0.0,30.0,0.0,0.0
12095,81.0,0.0,30.0,1.0,0.0
12096,66.0,30.0,30.0,2.0,0.0
12097,68.0,0.0,60.0,4.0,0.0
12098,83.0,0.0,40.0,0.0,0.0
12099,77.0,0.0,60.0,4.0,0.0
12100,68.0,0.0,40.0,3.0,0.0
12101,83.0,15.0,40.0,1.0,0.0
12102,68.0,15.0,30.0,2.0,0.0
12103,66.0,30.0,30.0,2.0,0.0
12104,66.0,15.0,40.0,3.0,0.0
12105,80.0,0.0,30.0,0.0,0.0
12106,80.0,15.0,30.0,1.0,0.0
12107,65.0,0.0,30.0,2.0,0.0
12108,66.0,0.0,60.0,4.0,0.0
12109,81.0,0.0,30.0,0.0,0.0
12110,81.0,0.0,30.0,1.0,0.0
12111,66.0,30.0,30.0,2.0,0.0
12112,68.0,15.0,30.0,2.0,0.0
12113,65.0,0.0,60.0,4.0,0.0
12114,83.0,15.0,40.0,0.0,0.0
12115,65.0,0.0,40.0,3.0,0.0
12116,83.0,0.0,40.0,1.0,0.0
12117,66.0,30.0,30.0,2.0,0.0
12118,65.0,15.0,30.0,2.0,0.0
12119,61.0,45.0,60.0,4.0,0.0
12120,61.0,0.0,40.0,3.0,0.0
12121,83.0,15.0,40.0,1.0,0.0
12122,83.0,0.0,40.0,0.0,0.0
12123,63.0,0.0,30.0,2.0,0.0
12124,66.0,0.0,40.0,3.0,0.0
12125,61.0,0.0,120.0,2.0,0.0
12126,66.0,30.0,60.0,4.0,0.0
12127,83.0,0.0,40.0,1.0,0.0
12128,83.0,15.0,40.0,0.0,0.0
12129,54.0,0.0,60.0,4.0,0.0
12130,81.0,0.0,30.0,1.0,0.0
12131,78.0,15.0,30.0,4.0,0.0
12132,81.0,0.0,30.0,0.0,0.0
12133,54.0,15.0,40.0,3.0,0.0
12134,80.0,0.0,30.0,1.0,0.0
12135,80.0,45.0,30.0,0.0,0.0
12136,80.0,0.0,30.0,4.0,0.0
12137,81.0,15.0,40.0,1.0,0.0
12138,66.0,0.0,40.0,3.0,0.0
12139,81.0,0.0,40.0,0.0,0.0
12140,81.0,0.0,60.0,4.0,0.0
12141,66.0,30.0,60.0,4.0,0.0
12142,78.0,0.0,30.0,4.0,0.0
12143,64.0,0.0,60.0,4.0,0.0
12144,73.0,15.0,40.0,2.0,0.0
12145,64.0,0.0,40.0,3.0,0.0
12146,78.0,0.0,30.0,0.0,0.0
12147,78.0,15.0,30.0,1.0,0.0
12148,80.0,0.0,30.0,0.0,0.0
12149,80.0,45.0,30.0,1.0,0.0
12150,80.0,0.0,30.0,4.0,0.0
12151,81.0,30.0,60.0,4.0,0.0
12152,62.0,15.0,40.0,3.0,0.0
12153,66.0,0.0,40.0,2.0,0.0
12154,62.0,0.0,60.0,4.0,0.0
12155,81.0,0.0,40.0,1.0,0.0
12156,81.0,0.0,40.0,0.0,0.0
12157,83.0,0.0,30.0,4.0,0.0
12158,61.0,0.0,60.0,4.0,0.0
12159,64.0,0.0,60.0,4.0,0.0
12160,83.0,15.0,30.0,1.0,0.0
12161,83.0,0.0,30.0,0.0,0.0
12162,68.0,0.0,30.0,2.0,0.0
12163,61.0,15.0,40.0,3.0,0.0
12164,85.0,0.0,30.0,0.0,0.0
12165,69.0,0.0,30.0,2.0,0.0
12166,85.0,60.0,30.0,1.0,0.0
12167,85.0,0.0,30.0,4.0,0.0
12168,59.0,0.0,60.0,3.0,0.0
12169,71.0,30.0,60.0,2.0,0.0
12170,59.0,0.0,60.0,4.0,0.0
12171,66.0,0.0,60.0,4.0,0.0
12172,86.0,0.0,60.0,0.0,0.0
12173,86.0,0.0,60.0,4.0,0.0
12174,86.0,0.0,60.0,1.0,0.0
12175,71.0,0.0,30.0,4.0,0.0
12176,62.0,30.0,30.0,4.0,0.0
12177,73.0,30.0,30.0,4.0,0.0
12178,64.0,0.0,30.0,4.0,0.0
12179,66.0,30.0,60.0,4.0,0.0
12180,74.0,30.0,30.0,4.0,0.0
12181,76.0,0.0,30.0,4.0,0.0
12182,78.0,30.0,30.0,4.0,0.0
12183,62.0,30.0,60.0,4.0,0.0
12184,73.0,0.0,30.0,4.0,0.0
12185,59.0,30.0,60.0,4.0,0.0
12186,74.0,30.0,30.0,4.0,0.0
12187,71.0,0.0,30.0,4.0,0.0
12188,62.0,60.0,60.0,4.0,0.0
12189,78.0,30.0,30.0,4.0,0.0
12190,74.0,0.0,30.0,4.0,0.0
12191,64.0,0.0,60.0,4.0,0.0
12192,80.0,30.0,60.0,4.0,0.0
12193,80.0,15.0,30.0,1.0,0.0
12194,80.0,0.0,30.0,0.0,0.0
12195,76.0,0.0,30.0,4.0,0.0
12196,52.0,15.0,40.0,3.0,0.0
12197,52.0,45.0,60.0,4.0,0.0
12198,78.0,0.0,30.0,0.0,0.0
12199,78.0,0.0,30.0,4.0,0.0
12200,78.0,0.0,30.0,1.0,0.0
12201,80.0,15.0,40.0,1.0,0.0
12202,64.0,0.0,40.0,3.0,0.0
12203,80.0,30.0,60.0,4.0,0.0
12204,80.0,0.0,40.0,0.0,0.0
12205,64.0,0.0,60.0,4.0,0.0
12206,62.0,15.0,40.0,3.0,0.0
12207,71.0,0.0,40.0,2.0,0.0
12208,76.0,0.0,30.0,1.0,0.0
12209,62.0,0.0,60.0,4.0,0.0
12210,76.0,15.0,30.0,0.0,0.0
12211,76.0,0.0,30.0,4.0,0.0
12212,78.0,45.0,30.0,0.0,0.0
12213,78.0,0.0,30.0,4.0,0.0
12214,78.0,0.0,30.0,1.0,0.0
12215,64.0,15.0,40.0,2.0,0.0
12216,80.0,0.0,60.0,4.0,0.0
12217,61.0,0.0,60.0,4.0,0.0
12218,80.0,0.0,40.0,0.0,0.0
12219,80.0,0.0,40.0,1.0,0.0
12220,61.0,0.0,40.0,3.0,0.0
12221,59.0,0.0,60.0,4.0,0.0
12222,62.0,0.0,60.0,4.0,0.0
12223,81.0,0.0,30.0,0.0,0.0
12224,81.0,0.0,30.0,4.0,0.0
12225,81.0,15.0,30.0,1.0,0.0
12226,59.0,15.0,40.0,3.0,0.0
12227,66.0,0.0,30.0,2.0,0.0
12228,83.0,0.0,30.0,0.0,0.0
12229,83.0,60.0,30.0,1.0,0.0
12230,68.0,0.0,30.0,2.0,0.0
12231,83.0,0.0,30.0,4.0,0.0
12232,85.0,0.0,60.0,4.0,0.0
12233,57.0,0.0,60.0,4.0,0.0
12234,64.0,0.0,60.0,4.0,0.0
12235,85.0,0.0,60.0,1.0,0.0
12236,69.0,0.0,60.0,2.0,0.0
12237,57.0,30.0,60.0,3.0,0.0
12238,85.0,0.0,60.0,0.0,0.0
12239,61.0,30.0,30.0,4.0,0.0
12240,69.0,0.0,30.0,4.0,0.0
12241,62.0,30.0,30.0,4.0,0.0
12242,71.0,0.0,30.0,4.0,0.0
12243,64.0,0.0,60.0,4.0,0.0
12244,73.0,30.0,30.0,4.0,0.0
12245,74.0,30.0,30.0,4.0,0.0
12246,76.0,30.0,30.0,4.0,0.0
12247,61.0,30.0,60.0,4.0,0.0
12248,71.0,0.0,30.0,4.0,0.0
12249,73.0,30.0,30.0,4.0,0.0
12250,57.0,0.0,60.0,4.0,0.0
12251,69.0,30.0,30.0,4.0,0.0
12252,61.0,0.0,60.0,4.0,0.0
12253,76.0,30.0,30.0,4.0,0.0
12254,73.0,60.0,30.0,4.0,0.0
12255,78.0,30.0,60.0,4.0,0.0
12256,62.0,0.0,60.0,4.0,0.0
12257,50.0,0.0,60.0,4.0,0.0
12258,74.0,0.0,30.0,4.0,0.0
12259,78.0,0.0,30.0,0.0,0.0
12260,50.0,15.0,40.0,3.0,0.0
12261,78.0,15.0,30.0,1.0,0.0
12262,76.0,0.0,30.0,0.0,0.0
12263,76.0,0.0,30.0,4.0,0.0
12264,76.0,45.0,30.0,1.0,0.0
12265,78.0,0.0,40.0,0.0,0.0
12266,62.0,0.0,60.0,4.0,0.0
12267,62.0,0.0,40.0,3.0,0.0
12268,78.0,30.0,60.0,4.0,0.0
12269,78.0,15.0,40.0,1.0,0.0
12270,61.0,15.0,40.0,3.0,0.0
12271,74.0,0.0,30.0,4.0,0.0
12272,61.0,0.0,60.0,4.0,0.0
12273,69.0,0.0,40.0,2.0,0.0
12274,74.0,0.0,30.0,0.0,0.0
12275,74.0,15.0,30.0,1.0,0.0
12276,76.0,0.0,30.0,0.0,0.0
12277,76.0,0.0,30.0,1.0,0.0
12278,76.0,45.0,30.0,4.0,0.0
12279,62.0,0.0,40.0,2.0,0.0
12280,59.0,0.0,40.0,3.0,0.0
12281,78.0,0.0,40.0,1.0,0.0
12282,78.0,15.0,40.0,0.0,0.0
12283,59.0,30.0,60.0,4.0,0.0
12284,78.0,0.0,60.0,4.0,0.0
12285,61.0,0.0,60.0,4.0,0.0
12286,80.0,0.0,30.0,1.0,0.0
12287,57.0,0.0,60.0,4.0,0.0
12288,80.0,0.0,30.0,4.0,0.0
12289,57.0,15.0,40.0,3.0,0.0
12290,80.0,0.0,30.0,0.0,0.0
12291,64.0,15.0,30.0,2.0,0.0
12292,81.0,0.0,30.0,1.0,0.0
12293,81.0,0.0,30.0,4.0,0.0
12294,66.0,0.0,30.0,2.0,0.0
12295,81.0,54.0,30.0,0.0,0.0
12296,59.0,30.0,60.0,4.0,0.0
12297,64.0,0.0,15.0,4.0,0.0
12298,83.0,0.0,60.0,4.0,0.0
12299,56.0,0.0,60.0,4.0,0.0
12300,64.0,0.0,1320.0,2.0,0.0
12301,83.0,0.0,1320.0,0.0,0.0
12302,74.0,0.0,1320.0,1.0,0.0
12303,56.0,6.0,60.0,3.0,0.0
12304,56.0,6.0,60.0,3.0,0.0
12305,64.0,24.0,30.0,4.0,0.0
12306,62.0,30.0,60.0,4.0,0.0
12307,66.0,0.0,30.0,4.0,0.0
12308,56.0,6.0,60.0,3.0,0.0
12309,59.0,30.0,60.0,4.0,0.0
12310,68.0,24.0,30.0,4.0,0.0
12311,69.0,0.0,30.0,4.0,0.0
12312,71.0,24.0,30.0,4.0,0.0
12313,56.0,30.0,60.0,4.0,0.0
12314,56.0,6.0,60.0,3.0,0.0
12315,66.0,0.0,30.0,4.0,0.0
12316,68.0,24.0,30.0,4.0,0.0
12317,52.0,30.0,60.0,4.0,0.0
12318,56.0,6.0,60.0,3.0,0.0
12319,64.0,0.0,30.0,4.0,0.0
12320,56.0,0.0,60.0,4.0,0.0
12321,56.0,6.0,60.0,3.0,0.0
12322,71.0,24.0,30.0,4.0,0.0
12323,68.0,30.0,30.0,4.0,0.0
12324,74.0,24.0,30.0,4.0,0.0
12325,56.0,6.0,60.0,3.0,0.0
12326,59.0,0.0,60.0,4.0,0.0
12327,73.0,30.0,30.0,4.0,0.0
12328,56.0,6.0,60.0,3.0,0.0
12329,71.0,24.0,30.0,4.0,0.0
12330,62.0,0.0,60.0,4.0,0.0
12331,69.0,30.0,30.0,4.0,0.0
12332,56.0,30.0,60.0,4.0,0.0
12333,56.0,6.0,60.0,3.0,0.0
12334,71.0,24.0,30.0,4.0,0.0
12335,73.0,0.0,30.0,4.0,0.0
12336,59.0,0.0,60.0,4.0,0.0
12337,74.0,24.0,30.0,4.0,0.0
12338,56.0,6.0,60.0,3.0,0.0
12339,69.0,30.0,30.0,4.0,0.0
12340,56.0,6.0,60.0,3.0,0.0
12341,71.0,24.0,30.0,4.0,0.0
12342,62.0,30.0,60.0,4.0,0.0
12343,68.0,0.0,30.0,4.0,0.0
12344,59.0,30.0,60.0,4.0,0.0
12345,74.0,24.0,30.0,4.0,0.0
12346,56.0,6.0,60.0,3.0,0.0
12347,71.0,0.0,30.0,4.0,0.0
12348,56.0,6.0,60.0,3.0,0.0
12349,80.0,24.0,30.0,4.0,0.0
12350,64.0,0.0,60.0,4.0,0.0
12351,78.0,30.0,30.0,4.0,0.0
12352,76.0,24.0,30.0,4.0,0.0
12353,59.0,0.0,60.0,4.0,0.0
12354,56.0,6.0,60.0,3.0,0.0
12355,78.0,30.0,30.0,4.0,0.0
12356,80.0,24.0,30.0,4.0,0.0
12357,64.0,30.0,60.0,4.0,0.0
12358,56.0,6.0,60.0,3.0,0.0
12359,81.0,0.0,30.0,4.0,0.0
12360,68.0,30.0,60.0,4.0,0.0
12361,83.0,24.0,30.0,4.0,0.0
12362,56.0,6.0,60.0,3.0,0.0
12363,78.0,0.0,30.0,4.0,0.0
12364,56.0,6.0,60.0,3.0,0.0
12365,80.0,24.0,30.0,4.0,0.0
12366,71.0,0.0,60.0,4.0,0.0
12367,76.0,30.0,30.0,4.0,0.0
12368,68.0,30.0,60.0,4.0,0.0
12369,56.0,6.0,60.0,3.0,0.0
12370,83.0,24.0,30.0,4.0,0.0
12371,80.0,0.0,30.0,4.0,0.0
12372,86.0,0.0,30.0,4.0,0.0
12373,56.0,30.0,240.0,3.0,0.0
12374,64.0,30.0,30.0,4.0,0.0
12375,66.0,30.0,30.0,4.0,0.0
12376,85.0,0.0,30.0,4.0,0.0
12377,68.0,0.0,30.0,4.0,0.0
12378,83.0,30.0,30.0,4.0,0.0
12379,85.0,0.0,30.0,4.0,0.0
12380,69.0,30.0,30.0,4.0,0.0
12381,86.0,30.0,30.0,4.0,0.0
12382,71.0,0.0,30.0,4.0,0.0
12383,73.0,30.0,30.0,4.0,0.0
12384,88.0,0.0,30.0,4.0,0.0
12385,74.0,30.0,30.0,4.0,0.0
12386,90.0,0.0,30.0,4.0,0.0
12387,85.0,0.0,30.0,4.0,0.0
12388,76.0,0.0,30.0,4.0,0.0
12389,78.0,0.0,30.0,4.0,0.0
12390,86.0,30.0,30.0,4.0,0.0
12391,81.0,30.0,30.0,4.0,0.0
12392,83.0,0.0,30.0,4.0,0.0
12393,64.0,0.0,40.0,2.0,0.0
12394,80.0,15.0,40.0,1.0,0.0
12395,80.0,0.0,40.0,0.0,0.0
12396,52.0,0.0,40.0,3.0,0.0
12397,80.0,15.0,30.0,4.0,0.0
12398,88.0,0.0,30.0,4.0,0.0
12399,76.0,30.0,30.0,4.0,0.0
12400,83.0,0.0,30.0,4.0,0.0
12401,57.0,0.0,40.0,3.0,0.0
12402,64.0,15.0,40.0,2.0,0.0
12403,81.0,0.0,40.0,0.0,0.0
12404,81.0,0.0,40.0,1.0,0.0
12405,85.0,15.0,30.0,4.0,0.0
12406,81.0,30.0,60.0,4.0,0.0
12407,80.0,0.0,30.0,4.0,0.0
12408,73.0,0.0,40.0,0.0,0.0
12409,73.0,0.0,40.0,1.0,0.0
12410,64.0,15.0,40.0,2.0,0.0
12411,73.0,30.0,60.0,4.0,0.0
12412,81.0,15.0,30.0,4.0,0.0
12413,56.0,0.0,40.0,3.0,0.0
12414,76.0,0.0,30.0,4.0,0.0
12415,74.0,0.0,40.0,0.0,0.0
12416,54.0,0.0,40.0,3.0,0.0
12417,74.0,0.0,40.0,1.0,0.0
12418,78.0,15.0,30.0,4.0,0.0
12419,74.0,0.0,60.0,4.0,0.0
12420,69.0,15.0,40.0,2.0,0.0
12421,81.0,30.0,30.0,4.0,0.0
12422,81.0,0.0,40.0,0.0,0.0
12423,81.0,0.0,40.0,1.0,0.0
12424,66.0,15.0,40.0,2.0,0.0
12425,71.0,0.0,60.0,4.0,0.0
12426,52.0,0.0,30.0,3.0,0.0
12427,86.0,15.0,30.0,4.0,0.0
12428,50.0,0.0,30.0,3.0,0.0
12429,83.0,30.0,30.0,4.0,0.0
12430,52.0,0.0,40.0,3.0,0.0
12431,76.0,15.0,40.0,0.0,0.0
12432,76.0,0.0,40.0,1.0,0.0
12433,85.0,15.0,30.0,4.0,0.0
12434,64.0,0.0,40.0,2.0,0.0
12435,81.0,0.0,30.0,4.0,0.0
12436,71.0,0.0,40.0,2.0,0.0
12437,80.0,0.0,40.0,1.0,0.0
12438,40.0,0.0,40.0,3.0,0.0
12439,80.0,15.0,40.0,0.0,0.0
12440,74.0,0.0,60.0,4.0,0.0
12441,64.0,0.0,60.0,4.0,0.0
12442,76.0,30.0,15.0,4.0,0.0
12443,80.0,45.0,30.0,4.0,0.0
12444,81.0,30.0,60.0,4.0,0.0
12445,69.0,0.0,120.0,4.0,0.0
12446,45.0,45.0,120.0,3.0,0.0
12447,81.0,15.0,40.0,0.0,0.0
12448,81.0,0.0,120.0,1.0,0.0
12449,73.0,0.0,120.0,2.0,0.0
12450,73.0,0.0,120.0,4.0,0.0
12451,80.0,0.0,30.0,4.0,0.0
12452,80.0,30.0,30.0,0.0,0.0
12453,78.0,0.0,30.0,4.0,0.0
12454,78.0,0.0,30.0,0.0,0.0
12455,76.0,0.0,60.0,4.0,0.0
12456,76.0,15.0,40.0,0.0,0.0
12457,73.0,45.0,30.0,4.0,0.0
12458,74.0,0.0,60.0,4.0,0.0
12459,74.0,15.0,40.0,0.0,0.0
12460,71.0,45.0,30.0,4.0,0.0
12461,73.0,45.0,60.0,4.0,0.0
12462,73.0,15.0,40.0,0.0,0.0
12463,69.0,0.0,30.0,4.0,0.0
12464,71.0,0.0,60.0,4.0,0.0
12465,71.0,15.0,40.0,0.0,0.0
12466,68.0,45.0,30.0,4.0,0.0
12467,73.0,15.0,40.0,0.0,0.0
12468,73.0,30.0,60.0,4.0,0.0
12469,61.0,0.0,30.0,2.0,0.0
12470,69.0,0.0,15.0,4.0,0.0
12471,69.0,15.0,40.0,0.0,0.0
12472,57.0,0.0,30.0,3.0,0.0
12473,57.0,15.0,30.0,4.0,0.0
12474,76.0,0.0,30.0,1.0,0.0
12475,62.0,0.0,30.0,2.0,0.0
12476,59.0,0.0,30.0,4.0,0.0
12477,59.0,45.0,30.0,3.0,0.0
12478,74.0,0.0,30.0,1.0,0.0
12479,73.0,0.0,40.0,1.0,0.0
12480,61.0,0.0,60.0,4.0,0.0
12481,81.0,15.0,40.0,0.0,0.0
12482,61.0,0.0,40.0,3.0,0.0
12483,64.0,0.0,40.0,2.0,0.0
12484,59.0,15.0,30.0,3.0,0.0
12485,81.0,30.0,15.0,4.0,0.0
12486,76.0,15.0,40.0,1.0,0.0
12487,59.0,0.0,30.0,4.0,0.0
12488,81.0,0.0,40.0,0.0,0.0
12489,62.0,0.0,30.0,2.0,0.0
12490,64.0,45.0,30.0,2.0,0.0
12491,61.0,0.0,30.0,4.0,0.0
12492,61.0,0.0,30.0,3.0,0.0
12493,81.0,0.0,40.0,0.0,0.0
12494,63.0,0.0,60.0,4.0,0.0
12495,66.0,0.0,40.0,2.0,0.0
12496,73.0,15.0,40.0,1.0,0.0
12497,63.0,0.0,40.0,3.0,0.0
12498,81.0,15.0,40.0,0.0,0.0
12499,64.0,0.0,30.0,2.0,0.0
12500,69.0,0.0,40.0,1.0,0.0
12501,61.0,15.0,30.0,3.0,0.0
12502,81.0,30.0,15.0,4.0,0.0
12503,61.0,0.0,30.0,4.0,0.0
12504,63.0,0.0,30.0,4.0,0.0
12505,66.0,0.0,30.0,2.0,0.0
12506,63.0,30.0,30.0,3.0,0.0
12507,76.0,0.0,40.0,1.0,0.0
12508,76.0,15.0,40.0,0.0,0.0
12509,64.0,0.0,120.0,3.0,0.0
12510,81.0,0.0,15.0,4.0,0.0
12511,64.0,0.0,120.0,4.0,0.0
12512,59.0,45.0,120.0,2.0,0.0
12513,85.0,30.0,30.0,4.0,0.0
12514,83.0,0.0,30.0,4.0,0.0
12515,74.0,30.0,30.0,0.0,0.0
12516,74.0,0.0,30.0,1.0,0.0
12517,73.0,0.0,30.0,1.0,0.0
12518,73.0,0.0,30.0,0.0,0.0
12519,81.0,0.0,30.0,4.0,0.0
12520,71.0,0.0,40.0,1.0,0.0
12521,80.0,45.0,60.0,4.0,0.0
12522,71.0,15.0,40.0,0.0,0.0
12523,71.0,0.0,30.0,4.0,0.0
12524,69.0,0.0,40.0,1.0,0.0
12525,69.0,15.0,40.0,0.0,0.0
12526,78.0,0.0,60.0,4.0,0.0
12527,69.0,45.0,30.0,4.0,0.0
12528,68.0,0.0,40.0,0.0,0.0
12529,76.0,45.0,60.0,4.0,0.0
12530,68.0,15.0,40.0,1.0,0.0
12531,68.0,0.0,30.0,4.0,0.0
12532,66.0,15.0,40.0,0.0,0.0
12533,75.0,0.0,60.0,4.0,0.0
12534,66.0,0.0,40.0,1.0,0.0
12535,66.0,30.0,30.0,4.0,0.0
12536,68.0,15.0,40.0,0.0,0.0
12537,68.0,0.0,40.0,1.0,0.0
12538,76.0,15.0,30.0,4.0,0.0
12539,68.0,0.0,60.0,4.0,0.0
12540,78.0,30.0,30.0,4.0,0.0
12541,64.0,15.0,40.0,1.0,0.0
12542,64.0,0.0,40.0,0.0,0.0
12543,80.0,0.0,30.0,4.0,0.0
12544,52.0,0.0,30.0,4.0,0.0
12545,52.0,0.0,30.0,3.0,0.0
12546,71.0,15.0,30.0,2.0,0.0
12547,54.0,45.0,30.0,3.0,0.0
12548,54.0,0.0,30.0,4.0,0.0
12549,69.0,0.0,30.0,2.0,0.0
12550,81.0,0.0,30.0,4.0,0.0
12551,56.0,0.0,40.0,3.0,0.0
12552,68.0,0.0,40.0,2.0,0.0
12553,56.0,0.0,60.0,4.0,0.0
12554,76.0,0.0,40.0,1.0,0.0
12555,76.0,15.0,40.0,0.0,0.0
12556,83.0,30.0,60.0,4.0,0.0
12557,76.0,0.0,40.0,0.0,0.0
12558,54.0,15.0,30.0,3.0,0.0
12559,54.0,0.0,30.0,4.0,0.0
12560,82.0,0.0,30.0,4.0,0.0
12561,71.0,0.0,40.0,2.0,0.0
12562,76.0,15.0,40.0,1.0,0.0
12563,83.0,0.0,30.0,4.0,0.0
12564,56.0,45.0,30.0,4.0,0.0
12565,56.0,0.0,30.0,3.0,0.0
12566,58.0,15.0,40.0,3.0,0.0
12567,67.0,0.0,40.0,2.0,0.0
12568,76.0,0.0,40.0,0.0,0.0
12569,58.0,30.0,60.0,4.0,0.0
12570,85.0,0.0,60.0,4.0,0.0
12571,76.0,0.0,40.0,1.0,0.0
12572,76.0,0.0,40.0,0.0,0.0
12573,83.0,0.0,30.0,4.0,0.0
12574,56.0,0.0,30.0,4.0,0.0
12575,56.0,15.0,30.0,3.0,0.0
12576,76.0,0.0,40.0,1.0,0.0
12577,64.0,15.0,40.0,2.0,0.0
12578,58.0,0.0,30.0,3.0,0.0
12579,85.0,0.0,30.0,4.0,0.0
12580,58.0,30.0,30.0,4.0,0.0
12581,78.0,15.0,30.0,4.0,0.0
12582,76.0,0.0,30.0,0.0,0.0
12583,59.0,0.0,120.0,3.0,0.0
12584,71.0,15.0,40.0,1.0,0.0
12585,71.0,0.0,40.0,2.0,0.0
12586,59.0,0.0,30.0,4.0,0.0
12587,79.0,30.0,30.0,0.0,0.0
12588,79.0,0.0,30.0,4.0,0.0
12589,71.0,0.0,30.0,4.0,0.0
12590,69.0,0.0,30.0,4.0,0.0
12591,78.0,0.0,30.0,4.0,0.0
12592,69.0,0.0,30.0,2.0,0.0
12593,78.0,30.0,30.0,0.0,0.0
12594,69.0,0.0,30.0,1.0,0.0
12595,67.0,30.0,30.0,2.0,0.0
12596,67.0,0.0,30.0,1.0,0.0
12597,76.0,0.0,30.0,4.0,0.0
12598,76.0,0.0,30.0,0.0,0.0
12599,67.0,0.0,30.0,4.0,0.0
12600,66.0,0.0,60.0,4.0,0.0
12601,74.0,15.0,30.0,4.0,0.0
12602,74.0,0.0,120.0,0.0,0.0
12603,66.0,0.0,40.0,2.0,0.0
12604,66.0,15.0,40.0,1.0,0.0
12605,71.0,30.0,30.0,4.0,0.0
12606,79.0,15.0,30.0,4.0,0.0
12607,64.0,0.0,40.0,1.0,0.0
12608,64.0,30.0,60.0,4.0,0.0
12609,64.0,15.0,40.0,2.0,0.0
12610,71.0,0.0,30.0,4.0,0.0
12611,78.0,15.0,30.0,4.0,0.0
12612,62.0,30.0,60.0,4.0,0.0
12613,62.0,0.0,40.0,2.0,0.0
12614,62.0,15.0,40.0,1.0,0.0
12615,71.0,0.0,30.0,4.0,0.0
12616,76.0,15.0,30.0,4.0,0.0
12617,61.0,0.0,40.0,2.0,0.0
12618,61.0,15.0,40.0,1.0,0.0
12619,61.0,0.0,60.0,4.0,0.0
12620,70.0,30.0,30.0,4.0,0.0
12621,62.0,0.0,40.0,1.0,0.0
12622,74.0,15.0,30.0,4.0,0.0
12623,59.0,0.0,60.0,4.0,0.0
12624,62.0,15.0,40.0,2.0,0.0
12625,71.0,30.0,30.0,4.0,0.0
12626,47.0,15.0,30.0,4.0,0.0
12627,74.0,0.0,30.0,0.0,0.0
12628,59.0,0.0,40.0,2.0,0.0
12629,83.0,0.0,60.0,4.0,0.0
12630,47.0,0.0,30.0,3.0,0.0
12631,59.0,15.0,40.0,1.0,0.0
12632,49.0,0.0,30.0,3.0,0.0
12633,49.0,30.0,30.0,4.0,0.0
12634,76.0,0.0,30.0,0.0,0.0
12635,51.0,0.0,60.0,4.0,0.0
12636,71.0,0.0,40.0,2.0,0.0
12637,51.0,0.0,40.0,3.0,0.0
12638,81.0,15.0,30.0,4.0,0.0
12639,78.0,0.0,40.0,0.0,0.0
12640,71.0,15.0,40.0,1.0,0.0
12641,78.0,30.0,60.0,4.0,0.0
12642,85.0,0.0,30.0,4.0,0.0
12643,49.0,15.0,30.0,3.0,0.0
12644,49.0,0.0,30.0,4.0,0.0
12645,83.0,0.0,30.0,4.0,0.0
12646,77.0,0.0,30.0,0.0,0.0
12647,71.0,15.0,40.0,2.0,0.0
12648,71.0,0.0,40.0,1.0,0.0
12649,78.0,0.0,30.0,0.0,0.0
12650,51.0,0.0,30.0,4.0,0.0
12651,51.0,30.0,30.0,3.0,0.0
12652,81.0,0.0,30.0,4.0,0.0
12653,73.0,0.0,60.0,4.0,0.0
12654,80.0,15.0,30.0,4.0,0.0
12655,80.0,0.0,40.0,0.0,0.0
12656,53.0,0.0,60.0,4.0,0.0
12657,71.0,15.0,40.0,1.0,0.0
12658,71.0,0.0,40.0,2.0,0.0
12659,53.0,0.0,40.0,3.0,0.0
12660,83.0,30.0,30.0,4.0,0.0
12661,71.0,15.0,40.0,2.0,0.0
12662,81.0,0.0,30.0,4.0,0.0
12663,51.0,0.0,30.0,4.0,0.0
12664,78.0,15.0,30.0,0.0,0.0
12665,51.0,0.0,30.0,3.0,0.0
12666,71.0,0.0,40.0,1.0,0.0
12667,53.0,30.0,30.0,3.0,0.0
12668,80.0,0.0,30.0,4.0,0.0
12669,53.0,0.0,30.0,4.0,0.0
12670,80.0,0.0,30.0,0.0,0.0
12671,71.0,0.0,30.0,1.0,0.0
12672,71.0,15.0,30.0,2.0,0.0
12673,78.0,0.0,60.0,4.0,0.0
12674,69.0,0.0,60.0,4.0,0.0
12675,73.0,0.0,120.0,0.0,0.0
12676,54.0,0.0,60.0,4.0,0.0
12677,54.0,15.0,40.0,3.0,0.0
12678,74.0,30.0,30.0,2.0,0.0
12679,74.0,0.0,30.0,1.0,0.0
12680,52.0,0.0,30.0,4.0,0.0
12681,66.0,0.0,60.0,4.0,0.0
12682,73.0,0.0,30.0,1.0,0.0
12683,73.0,30.0,30.0,2.0,0.0
12684,52.0,0.0,30.0,3.0,0.0
12685,50.0,0.0,30.0,4.0,0.0
12686,50.0,0.0,30.0,3.0,0.0
12687,71.0,30.0,30.0,1.0,0.0
12688,71.0,0.0,30.0,2.0,0.0
12689,49.0,15.0,30.0,4.0,0.0
12690,49.0,15.0,40.0,3.0,0.0
12691,69.0,0.0,120.0,1.0,0.0
12692,69.0,30.0,60.0,4.0,0.0
12693,69.0,0.0,120.0,2.0,0.0
12694,61.0,0.0,30.0,4.0,0.0
12695,68.0,0.0,60.0,4.0,0.0
12696,47.0,15.0,40.0,3.0,0.0
12697,73.0,0.0,60.0,4.0,0.0
12698,65.0,0.0,60.0,4.0,0.0
12699,47.0,15.0,30.0,4.0,0.0
12700,59.0,30.0,30.0,4.0,0.0
12701,66.0,0.0,60.0,4.0,0.0
12702,78.0,0.0,60.0,4.0,0.0
12703,45.0,15.0,30.0,4.0,0.0
12704,73.0,0.0,60.0,4.0,0.0
12705,45.0,15.0,40.0,3.0,0.0
12706,57.0,30.0,30.0,4.0,0.0
12707,44.0,15.0,30.0,4.0,0.0
12708,68.0,45.0,60.0,4.0,0.0
12709,77.0,0.0,60.0,4.0,0.0
12710,71.0,0.0,60.0,4.0,0.0
12711,44.0,15.0,40.0,3.0,0.0
12712,56.0,0.0,30.0,4.0,0.0
12713,45.0,30.0,60.0,4.0,0.0
12714,73.0,0.0,60.0,4.0,0.0
12715,78.0,0.0,60.0,4.0,0.0
12716,45.0,15.0,40.0,3.0,0.0
12717,42.0,15.0,40.0,3.0,0.0
12718,69.0,15.0,30.0,2.0,0.0
12719,66.0,0.0,30.0,0.0,0.0
12720,42.0,0.0,60.0,4.0,0.0
12721,66.0,0.0,15.0,4.0,0.0
12722,66.0,0.0,30.0,1.0,0.0
12723,68.0,0.0,30.0,4.0,0.0
12724,71.0,0.0,30.0,2.0,0.0
12725,68.0,45.0,30.0,1.0,0.0
12726,68.0,0.0,30.0,0.0,0.0
12727,69.0,0.0,40.0,0.0,0.0
12728,54.0,0.0,60.0,4.0,0.0
12729,73.0,0.0,40.0,2.0,0.0
12730,54.0,0.0,40.0,3.0,0.0
12731,69.0,15.0,40.0,1.0,0.0
12732,69.0,30.0,60.0,4.0,0.0
12733,68.0,0.0,30.0,0.0,0.0
12734,68.0,0.0,30.0,4.0,0.0
12735,68.0,0.0,30.0,1.0,0.0
12736,54.0,15.0,40.0,3.0,0.0
12737,71.0,15.0,30.0,2.0,0.0
12738,69.0,45.0,30.0,0.0,0.0
12739,69.0,0.0,30.0,4.0,0.0
12740,69.0,0.0,30.0,1.0,0.0
12741,73.0,0.0,30.0,2.0,0.0
12742,71.0,0.0,60.0,4.0,0.0
12743,54.0,0.0,15.0,4.0,0.0
12744,71.0,0.0,40.0,1.0,0.0
12745,54.0,0.0,40.0,3.0,0.0
12746,74.0,15.0,40.0,2.0,0.0
12747,71.0,0.0,40.0,0.0,0.0
12748,69.0,0.0,30.0,0.0,0.0
12749,54.0,15.0,40.0,3.0,0.0
12750,54.0,0.0,60.0,4.0,0.0
12751,73.0,0.0,30.0,2.0,0.0
12752,69.0,0.0,30.0,4.0,0.0
12753,69.0,15.0,30.0,1.0,0.0
12754,74.0,0.0,30.0,2.0,0.0
12755,71.0,0.0,30.0,1.0,0.0
12756,71.0,0.0,30.0,0.0,0.0
12757,71.0,30.0,30.0,4.0,0.0
12758,54.0,0.0,30.0,3.0,0.0
12759,73.0,0.0,40.0,1.0,0.0
12760,54.0,15.0,30.0,4.0,0.0
12761,68.0,0.0,60.0,4.0,0.0
12762,73.0,0.0,60.0,4.0,0.0
12763,73.0,0.0,40.0,0.0,0.0
12764,68.0,15.0,40.0,2.0,0.0
12765,52.0,30.0,30.0,4.0,0.0
12766,52.0,0.0,30.0,3.0,0.0
12767,69.0,0.0,30.0,4.0,0.0
12768,54.0,15.0,30.0,3.0,0.0
12769,54.0,0.0,30.0,4.0,0.0
12770,69.0,0.0,30.0,1.0,0.0
12771,69.0,0.0,30.0,0.0,0.0
12772,69.0,15.0,40.0,2.0,0.0
12773,71.0,0.0,30.0,4.0,0.0
12774,56.0,0.0,30.0,4.0,0.0
12775,56.0,45.0,30.0,3.0,0.0
12776,71.0,0.0,30.0,1.0,0.0
12777,71.0,0.0,30.0,0.0,0.0
12778,73.0,0.0,60.0,4.0,0.0
12779,73.0,0.0,40.0,0.0,0.0
12780,64.0,0.0,40.0,2.0,0.0
12781,73.0,15.0,40.0,1.0,0.0
12782,57.0,0.0,40.0,3.0,0.0
12783,71.0,0.0,30.0,1.0,0.0
12784,62.0,15.0,30.0,2.0,0.0
12785,57.0,15.0,40.0,3.0,0.0
12786,71.0,0.0,30.0,0.0,0.0
12787,71.0,0.0,30.0,4.0,0.0
12788,57.0,30.0,15.0,4.0,0.0
12789,64.0,0.0,30.0,2.0,0.0
12790,73.0,0.0,30.0,0.0,0.0
12791,73.0,0.0,30.0,4.0,0.0
12792,73.0,0.0,30.0,1.0,0.0
12793,66.0,0.0,40.0,2.0,0.0
12794,75.0,0.0,40.0,1.0,0.0
12795,57.0,15.0,40.0,3.0,0.0
12796,75.0,0.0,60.0,4.0,0.0
12797,75.0,0.0,40.0,0.0,0.0
12798,57.0,45.0,15.0,4.0,0.0
12799,64.0,0.0,30.0,2.0,0.0
12800,57.0,15.0,40.0,3.0,0.0
12801,73.0,15.0,30.0,1.0,0.0
12802,73.0,0.0,30.0,0.0,0.0
12803,57.0,30.0,60.0,4.0,0.0
12804,73.0,0.0,30.0,4.0,0.0
12805,66.0,0.0,30.0,2.0,0.0
12806,75.0,0.0,30.0,1.0,0.0
12807,75.0,0.0,30.0,4.0,0.0
12808,75.0,0.0,30.0,0.0,0.0
12809,59.0,15.0,40.0,2.0,0.0
12810,76.0,0.0,40.0,1.0,0.0
12811,76.0,0.0,60.0,4.0,0.0
12812,57.0,0.0,30.0,3.0,0.0
12813,76.0,0.0,40.0,0.0,0.0
12814,57.0,15.0,30.0,4.0,0.0
12815,71.0,30.0,60.0,4.0,0.0
12816,56.0,0.0,30.0,3.0,0.0
12817,56.0,0.0,30.0,4.0,0.0
12818,73.0,15.0,40.0,2.0,0.0
12819,73.0,0.0,30.0,0.0,0.0
12820,73.0,0.0,30.0,1.0,0.0
12821,57.0,0.0,30.0,3.0,0.0
12822,73.0,0.0,30.0,4.0,0.0
12823,57.0,15.0,30.0,4.0,0.0
12824,75.0,0.0,30.0,1.0,0.0
12825,59.0,45.0,30.0,4.0,0.0
12826,59.0,0.0,30.0,3.0,0.0
12827,75.0,0.0,30.0,0.0,0.0
12828,75.0,0.0,30.0,4.0,0.0
12829,61.0,15.0,40.0,3.0,0.0
12830,68.0,0.0,40.0,2.0,0.0
12831,76.0,0.0,40.0,1.0,0.0
12832,61.0,0.0,60.0,4.0,0.0
12833,76.0,0.0,40.0,0.0,0.0
12834,76.0,30.0,60.0,4.0,0.0
12835,75.0,0.0,30.0,1.0,0.0
12836,75.0,0.0,30.0,4.0,0.0
12837,61.0,15.0,40.0,3.0,0.0
12838,66.0,15.0,30.0,2.0,0.0
12839,75.0,0.0,30.0,0.0,0.0
12840,76.0,45.0,30.0,1.0,0.0
12841,76.0,0.0,30.0,4.0,0.0
12842,68.0,0.0,30.0,2.0,0.0
12843,76.0,0.0,30.0,0.0,0.0
12844,61.0,0.0,15.0,4.0,0.0
12845,78.0,30.0,60.0,4.0,0.0
12846,69.0,0.0,40.0,2.0,0.0
12847,61.0,15.0,40.0,3.0,0.0
12848,78.0,0.0,40.0,0.0,0.0
12849,78.0,0.0,40.0,1.0,0.0
12850,61.0,0.0,15.0,4.0,0.0
12851,76.0,0.0,30.0,0.0,0.0
12852,76.0,0.0,30.0,4.0,0.0
12853,76.0,0.0,30.0,1.0,0.0
12854,68.0,15.0,30.0,2.0,0.0
12855,61.0,15.0,40.0,3.0,0.0
12856,78.0,0.0,30.0,1.0,0.0
12857,78.0,0.0,30.0,0.0,0.0
12858,78.0,45.0,30.0,4.0,0.0
12859,69.0,0.0,30.0,2.0,0.0
12860,80.0,0.0,40.0,1.0,0.0
12861,63.0,0.0,120.0,2.0,0.0
12862,80.0,0.0,60.0,4.0,0.0
12863,61.0,0.0,15.0,4.0,0.0
12864,80.0,0.0,40.0,0.0,0.0
12865,61.0,15.0,40.0,3.0,0.0
12866,68.0,15.0,40.0,1.0,0.0
12867,68.0,45.0,60.0,4.0,0.0
12868,59.0,0.0,30.0,4.0,0.0
12869,68.0,0.0,40.0,0.0,0.0
12870,59.0,15.0,30.0,3.0,0.0
12871,57.0,0.0,30.0,4.0,0.0
12872,57.0,0.0,30.0,3.0,0.0
12873,80.0,0.0,40.0,1.0,0.0
12874,59.0,0.0,40.0,3.0,0.0
12875,59.0,0.0,60.0,4.0,0.0
12876,80.0,30.0,60.0,4.0,0.0
12877,80.0,15.0,40.0,0.0,0.0
12878,78.0,15.0,40.0,1.0,0.0
12879,78.0,0.0,60.0,4.0,0.0
12880,56.0,0.0,30.0,4.0,0.0
12881,78.0,0.0,40.0,0.0,0.0
12882,56.0,0.0,30.0,3.0,0.0
12883,71.0,15.0,30.0,2.0,0.0
12884,57.0,0.0,30.0,3.0,0.0
12885,69.0,30.0,30.0,2.0,0.0
12886,57.0,0.0,30.0,4.0,0.0
12887,68.0,15.0,30.0,2.0,0.0
12888,77.0,15.0,40.0,0.0,0.0
12889,59.0,30.0,60.0,4.0,0.0
12890,77.0,0.0,60.0,4.0,0.0
12891,77.0,0.0,40.0,1.0,0.0
12892,59.0,0.0,40.0,3.0,0.0
12893,66.0,0.0,30.0,2.0,0.0
12894,65.0,15.0,30.0,2.0,0.0
12895,73.0,0.0,120.0,4.0,0.0
12896,73.0,15.0,40.0,0.0,0.0
12897,59.0,0.0,40.0,3.0,0.0
12898,73.0,0.0,40.0,1.0,0.0
12899,63.0,45.0,30.0,2.0,0.0
12900,78.0,30.0,60.0,4.0,0.0
12901,59.0,0.0,40.0,3.0,0.0
12902,59.0,0.0,15.0,4.0,0.0
12903,78.0,15.0,40.0,0.0,0.0
12904,78.0,0.0,40.0,1.0,0.0
12905,61.0,0.0,40.0,2.0,0.0
12906,63.0,0.0,30.0,2.0,0.0
12907,66.0,0.0,40.0,0.0,0.0
12908,57.0,0.0,30.0,3.0,0.0
12909,66.0,0.0,60.0,4.0,0.0
12910,57.0,15.0,30.0,4.0,0.0
12911,66.0,15.0,40.0,1.0,0.0
12912,65.0,0.0,30.0,2.0,0.0
12913,56.0,0.0,30.0,3.0,0.0
12914,56.0,0.0,30.0,4.0,0.0
12915,78.0,15.0,40.0,0.0,0.0
12916,57.0,0.0,40.0,3.0,0.0
12917,66.0,15.0,30.0,2.0,0.0
12918,78.0,0.0,40.0,1.0,0.0
12919,78.0,0.0,60.0,4.0,0.0
12920,57.0,0.0,60.0,4.0,0.0
12921,68.0,30.0,30.0,2.0,0.0
12922,78.0,0.0,30.0,0.0,0.0
12923,78.0,15.0,30.0,4.0,0.0
12924,66.0,45.0,60.0,4.0,0.0
12925,66.0,15.0,40.0,3.0,0.0
12926,78.0,0.0,30.0,1.0,0.0
12927,69.0,0.0,30.0,2.0,0.0
12928,80.0,0.0,30.0,4.0,0.0
12929,80.0,0.0,30.0,0.0,0.0
12930,80.0,0.0,30.0,1.0,0.0
12931,71.0,0.0,30.0,2.0,0.0
12932,73.0,15.0,40.0,2.0,0.0
12933,54.0,0.0,40.0,3.0,0.0
12934,81.0,0.0,40.0,1.0,0.0
12935,81.0,0.0,40.0,0.0,0.0
12936,54.0,0.0,60.0,4.0,0.0
12937,81.0,30.0,60.0,4.0,0.0
12938,83.0,0.0,30.0,4.0,0.0
12939,66.0,15.0,40.0,2.0,0.0
12940,56.0,0.0,30.0,4.0,0.0
12941,56.0,0.0,30.0,3.0,0.0
12942,83.0,15.0,30.0,0.0,0.0
12943,83.0,0.0,30.0,1.0,0.0
12944,57.0,0.0,30.0,3.0,0.0
12945,57.0,0.0,30.0,4.0,0.0
12946,85.0,0.0,30.0,1.0,0.0
12947,85.0,0.0,30.0,0.0,0.0
12948,85.0,45.0,30.0,4.0,0.0
12949,86.0,0.0,40.0,0.0,0.0
12950,78.0,0.0,40.0,2.0,0.0
12951,86.0,30.0,60.0,4.0,0.0
12952,59.0,0.0,60.0,4.0,0.0
12953,86.0,0.0,40.0,1.0,0.0
12954,59.0,15.0,40.0,3.0,0.0
12955,83.0,0.0,30.0,4.0,0.0
12956,61.0,0.0,30.0,4.0,0.0
12957,74.0,0.0,30.0,2.0,0.0
12958,61.0,30.0,30.0,3.0,0.0
12959,83.0,0.0,30.0,1.0,0.0
12960,83.0,0.0,30.0,0.0,0.0
12961,73.0,0.0,30.0,2.0,0.0
12962,81.0,0.0,30.0,1.0,0.0
12963,81.0,0.0,30.0,4.0,0.0
12964,81.0,45.0,30.0,0.0,0.0
12965,62.0,0.0,30.0,4.0,0.0
12966,62.0,0.0,30.0,3.0,0.0
12967,71.0,15.0,40.0,2.0,0.0
12968,80.0,30.0,60.0,4.0,0.0
12969,80.0,0.0,40.0,1.0,0.0
12970,80.0,0.0,40.0,0.0,0.0
12971,64.0,0.0,40.0,3.0,0.0
12972,64.0,0.0,60.0,4.0,0.0
12973,62.0,15.0,40.0,3.0,0.0
12974,76.0,0.0,30.0,1.0,0.0
12975,76.0,15.0,30.0,4.0,0.0
12976,68.0,0.0,30.0,2.0,0.0
12977,76.0,0.0,30.0,0.0,0.0
12978,62.0,0.0,60.0,4.0,0.0
12979,78.0,45.0,30.0,0.0,0.0
12980,69.0,0.0,30.0,2.0,0.0
12981,78.0,0.0,30.0,4.0,0.0
12982,78.0,0.0,30.0,1.0,0.0
12983,80.0,30.0,60.0,4.0,0.0
12984,61.0,0.0,60.0,4.0,0.0
12985,80.0,0.0,40.0,1.0,0.0
12986,61.0,0.0,40.0,3.0,0.0
12987,71.0,0.0,40.0,2.0,0.0
12988,80.0,15.0,40.0,0.0,0.0
12989,81.0,15.0,30.0,4.0,0.0
12990,59.0,45.0,60.0,4.0,0.0
12991,59.0,0.0,40.0,3.0,0.0
12992,64.0,15.0,40.0,2.0,0.0
12993,81.0,0.0,30.0,1.0,0.0
12994,81.0,0.0,30.0,0.0,0.0
12995,83.0,0.0,30.0,1.0,0.0
12996,83.0,0.0,30.0,4.0,0.0
12997,83.0,0.0,30.0,0.0,0.0
12998,85.0,0.0,40.0,1.0,0.0
12999,57.0,0.0,40.0,3.0,0.0
13000,57.0,0.0,60.0,4.0,0.0
13001,85.0,30.0,60.0,4.0,0.0
13002,76.0,15.0,40.0,2.0,0.0
13003,85.0,0.0,40.0,0.0,0.0
13004,81.0,0.0,30.0,4.0,0.0
13005,59.0,0.0,30.0,4.0,0.0
13006,73.0,0.0,30.0,2.0,0.0
13007,81.0,0.0,30.0,0.0,0.0
13008,59.0,0.0,30.0,3.0,0.0
13009,81.0,30.0,30.0,1.0,0.0
13010,61.0,0.0,30.0,3.0,0.0
13011,61.0,0.0,30.0,4.0,0.0
13012,80.0,0.0,30.0,0.0,0.0
13013,80.0,0.0,30.0,4.0,0.0
13014,80.0,0.0,30.0,1.0,0.0
13015,71.0,45.0,30.0,2.0,0.0
13016,78.0,0.0,60.0,4.0,0.0
13017,62.0,30.0,60.0,4.0,0.0
13018,62.0,0.0,40.0,3.0,0.0
13019,78.0,0.0,40.0,0.0,0.0
13020,78.0,15.0,40.0,1.0,0.0
13021,69.0,0.0,40.0,2.0,0.0
13022,90.0,0.0,30.0,0.0,0.0
13023,69.0,0.0,40.0,2.0,0.0
13024,90.0,15.0,30.0,4.0,0.0
13025,61.0,0.0,60.0,4.0,0.0
13026,61.0,15.0,40.0,3.0,0.0
13027,90.0,0.0,30.0,1.0,0.0
13028,89.0,0.0,30.0,4.0,0.0
13029,89.0,45.0,30.0,0.0,0.0
13030,89.0,0.0,30.0,1.0,0.0
13031,90.0,0.0,60.0,4.0,0.0
13032,59.0,45.0,60.0,4.0,0.0
13033,90.0,15.0,40.0,0.0,0.0
13034,74.0,0.0,40.0,2.0,0.0
13035,90.0,0.0,40.0,1.0,0.0
13036,59.0,0.0,40.0,3.0,0.0
13037,78.0,0.0,40.0,2.0,0.0
13038,57.0,0.0,40.0,3.0,0.0
13039,86.0,0.0,60.0,4.0,0.0
13040,57.0,45.0,60.0,4.0,0.0
13041,86.0,0.0,40.0,0.0,0.0
13042,86.0,15.0,40.0,1.0,0.0
13043,83.0,0.0,60.0,1.0,0.0
13044,83.0,0.0,60.0,0.0,0.0
13045,56.0,0.0,60.0,4.0,0.0
13046,74.0,0.0,120.0,2.0,0.0
13047,83.0,45.0,60.0,4.0,0.0
13048,56.0,15.0,40.0,3.0,0.0
13049,82.0,0.0,60.0,4.0,0.0
13050,82.0,45.0,60.0,1.0,0.0
13051,54.0,15.0,40.0,3.0,0.0
13052,82.0,0.0,60.0,0.0,0.0
13053,54.0,0.0,60.0,4.0,0.0
13054,83.0,30.0,60.0,4.0,0.0
13055,83.0,0.0,40.0,0.0,0.0
13056,53.0,0.0,60.0,4.0,0.0
13057,53.0,0.0,40.0,3.0,0.0
13058,83.0,15.0,40.0,1.0,0.0
13059,86.0,15.0,30.0,0.0,0.0
13060,54.0,45.0,60.0,4.0,0.0
13061,86.0,0.0,30.0,4.0,0.0
13062,71.0,0.0,30.0,2.0,0.0
13063,86.0,0.0,30.0,1.0,0.0
13064,54.0,15.0,40.0,3.0,0.0
13065,69.0,0.0,30.0,2.0,0.0
13066,85.0,0.0,30.0,4.0,0.0
13067,85.0,0.0,30.0,0.0,0.0
13068,85.0,0.0,30.0,1.0,0.0
13069,86.0,0.0,40.0,1.0,0.0
13070,71.0,0.0,40.0,2.0,0.0
13071,86.0,15.0,40.0,0.0,0.0
13072,56.0,0.0,40.0,3.0,0.0
13073,86.0,30.0,60.0,4.0,0.0
13074,56.0,0.0,60.0,4.0,0.0
13075,74.0,15.0,30.0,2.0,0.0
13076,83.0,0.0,60.0,4.0,0.0
13077,83.0,15.0,40.0,1.0,0.0
13078,57.0,0.0,40.0,3.0,0.0
13079,57.0,0.0,60.0,4.0,0.0
13080,83.0,0.0,40.0,0.0,0.0
13081,73.0,45.0,30.0,2.0,0.0
13082,74.0,15.0,40.0,2.0,0.0
13083,79.0,45.0,60.0,4.0,0.0
13084,79.0,0.0,60.0,1.0,0.0
13085,79.0,0.0,60.0,0.0,0.0
13086,59.0,0.0,60.0,4.0,0.0
13087,59.0,0.0,40.0,3.0,0.0
13088,78.0,45.0,60.0,1.0,0.0
13089,57.0,15.0,40.0,3.0,0.0
13090,78.0,0.0,60.0,0.0,0.0
13091,73.0,0.0,40.0,2.0,0.0
13092,78.0,0.0,60.0,4.0,0.0
13093,57.0,0.0,60.0,4.0,0.0
13094,59.0,0.0,60.0,4.0,0.0
13095,79.0,0.0,40.0,0.0,0.0
13096,79.0,0.0,40.0,1.0,0.0
13097,79.0,30.0,60.0,4.0,0.0
13098,74.0,15.0,40.0,2.0,0.0
13099,59.0,0.0,40.0,3.0,0.0
13100,61.0,0.0,60.0,4.0,0.0
13101,83.0,0.0,30.0,4.0,0.0
13102,83.0,0.0,30.0,1.0,0.0
13103,83.0,15.0,30.0,0.0,0.0
13104,76.0,15.0,40.0,2.0,0.0
13105,61.0,0.0,40.0,3.0,0.0
13106,82.0,45.0,30.0,1.0,0.0
13107,82.0,0.0,30.0,4.0,0.0
13108,82.0,0.0,30.0,0.0,0.0
13109,83.0,0.0,60.0,4.0,0.0
13110,62.0,0.0,40.0,3.0,0.0
13111,62.0,45.0,60.0,4.0,0.0
13112,83.0,0.0,40.0,0.0,0.0
13113,83.0,0.0,40.0,1.0,0.0
13114,78.0,15.0,40.0,2.0,0.0
13115,79.0,60.0,60.0,4.0,0.0
13116,79.0,0.0,40.0,0.0,0.0
13117,59.0,0.0,60.0,4.0,0.0
13118,74.0,0.0,40.0,2.0,0.0
13119,79.0,15.0,40.0,1.0,0.0
13120,59.0,0.0,40.0,3.0,0.0
13121,77.0,60.0,120.0,1.0,0.0
13122,77.0,0.0,60.0,4.0,0.0
13123,61.0,30.0,60.0,4.0,0.0
13124,61.0,0.0,120.0,3.0,0.0
13125,68.0,0.0,120.0,2.0,0.0
13126,77.0,0.0,120.0,0.0,0.0
13127,71.0,30.0,30.0,4.0,0.0
13128,86.0,0.0,30.0,4.0,0.0
13129,69.0,0.0,30.0,4.0,0.0
13130,85.0,0.0,30.0,4.0,0.0
13131,86.0,0.0,60.0,4.0,0.0
13132,71.0,30.0,60.0,4.0,0.0
13133,83.0,0.0,30.0,4.0,0.0
13134,86.0,0.0,30.0,1.0,0.0
13135,68.0,30.0,30.0,4.0,0.0
13136,86.0,0.0,30.0,0.0,0.0
13137,85.0,0.0,30.0,0.0,0.0
13138,81.0,0.0,30.0,4.0,0.0
13139,66.0,0.0,30.0,4.0,0.0
13140,85.0,45.0,30.0,1.0,0.0
13141,86.0,0.0,40.0,0.0,0.0
13142,83.0,0.0,60.0,4.0,0.0
13143,68.0,45.0,60.0,4.0,0.0
13144,86.0,15.0,40.0,1.0,0.0
13145,77.0,0.0,40.0,1.0,0.0
13146,59.0,0.0,40.0,3.0,0.0
13147,77.0,0.0,40.0,0.0,0.0
13148,59.0,45.0,60.0,4.0,0.0
13149,77.0,0.0,60.0,4.0,0.0
13150,68.0,15.0,40.0,2.0,0.0
13151,78.0,0.0,60.0,4.0,0.0
13152,73.0,0.0,40.0,2.0,0.0
13153,57.0,30.0,60.0,4.0,0.0
13154,78.0,0.0,40.0,0.0,0.0
13155,57.0,15.0,40.0,3.0,0.0
13156,78.0,0.0,40.0,1.0,0.0
13157,56.0,0.0,30.0,3.0,0.0
13158,69.0,0.0,40.0,2.0,0.0
13159,69.0,0.0,60.0,4.0,0.0
13160,56.0,15.0,30.0,4.0,0.0
13161,69.0,15.0,40.0,0.0,0.0
13162,69.0,0.0,40.0,1.0,0.0
13163,54.0,45.0,30.0,4.0,0.0
13164,54.0,0.0,30.0,3.0,0.0
13165,71.0,0.0,40.0,0.0,0.0
13166,66.0,15.0,40.0,2.0,0.0
13167,62.0,0.0,40.0,3.0,0.0
13168,71.0,30.0,60.0,4.0,0.0
13169,62.0,0.0,60.0,4.0,0.0
13170,71.0,0.0,40.0,1.0,0.0
13171,71.0,0.0,40.0,2.0,0.0
13172,61.0,0.0,30.0,4.0,0.0
13173,61.0,15.0,30.0,3.0,0.0
13174,78.0,15.0,40.0,1.0,0.0
13175,78.0,0.0,40.0,0.0,0.0
13176,78.0,45.0,60.0,4.0,0.0
13177,59.0,0.0,30.0,4.0,0.0
13178,59.0,0.0,30.0,3.0,0.0
13179,68.0,0.0,40.0,2.0,0.0
13180,61.0,0.0,40.0,3.0,0.0
13181,73.0,0.0,40.0,1.0,0.0
13182,73.0,0.0,60.0,4.0,0.0
13183,73.0,15.0,40.0,0.0,0.0
13184,61.0,45.0,60.0,4.0,0.0
13185,77.0,0.0,40.0,1.0,0.0
13186,73.0,15.0,40.0,2.0,0.0
13187,49.0,0.0,60.0,4.0,0.0
13188,77.0,0.0,40.0,0.0,0.0
13189,49.0,0.0,40.0,3.0,0.0
13190,77.0,45.0,60.0,4.0,0.0
13191,50.0,30.0,120.0,3.0,0.0
13192,66.0,15.0,40.0,2.0,0.0
13193,66.0,30.0,1620.0,1.0,0.0
13194,66.0,30.0,60.0,4.0,0.0
13195,66.0,0.0,1620.0,0.0,0.0
13196,50.0,0.0,120.0,4.0,0.0
13197,64.0,0.0,30.0,2.0,0.0
13198,64.0,30.0,30.0,4.0,0.0
13199,62.0,0.0,30.0,4.0,0.0
13200,62.0,0.0,30.0,2.0,0.0
13201,61.0,15.0,40.0,2.0,0.0
13202,61.0,15.0,30.0,4.0,0.0
13203,66.0,30.0,30.0,4.0,0.0
13204,50.0,15.0,40.0,3.0,0.0
13205,59.0,15.0,30.0,4.0,0.0
13206,59.0,0.0,40.0,2.0,0.0
13207,50.0,30.0,60.0,4.0,0.0
13208,66.0,0.0,30.0,4.0,0.0
13209,57.0,0.0,40.0,2.0,0.0
13210,49.0,15.0,40.0,3.0,0.0
13211,57.0,15.0,30.0,4.0,0.0
13212,49.0,30.0,60.0,4.0,0.0
13213,66.0,0.0,30.0,4.0,0.0
13214,47.0,15.0,40.0,3.0,0.0
13215,56.0,0.0,40.0,2.0,0.0
13216,47.0,0.0,60.0,4.0,0.0
13217,56.0,15.0,30.0,4.0,0.0
13218,66.0,30.0,30.0,4.0,0.0
13219,45.0,30.0,120.0,3.0,0.0
13220,45.0,0.0,120.0,4.0,0.0
13221,54.0,15.0,30.0,4.0,0.0
13222,61.0,15.0,40.0,2.0,0.0
13223,57.0,30.0,30.0,4.0,0.0
13224,61.0,15.0,30.0,4.0,0.0
13225,54.0,15.0,40.0,2.0,0.0
13226,65.0,0.0,30.0,4.0,0.0
13227,66.0,15.0,40.0,2.0,0.0
13228,66.0,15.0,30.0,4.0,0.0
13229,62.0,30.0,30.0,4.0,0.0
13230,66.0,15.0,40.0,2.0,0.0
13231,42.0,0.0,30.0,4.0,0.0
13232,61.0,15.0,30.0,4.0,0.0
13233,42.0,0.0,30.0,3.0,0.0
13234,59.0,0.0,30.0,4.0,0.0
13235,44.0,30.0,30.0,4.0,0.0
13236,44.0,0.0,30.0,3.0,0.0
13237,45.0,15.0,40.0,3.0,0.0
13238,66.0,15.0,30.0,4.0,0.0
13239,66.0,0.0,40.0,2.0,0.0
13240,61.0,30.0,30.0,4.0,0.0
13241,59.0,0.0,30.0,4.0,0.0
13242,45.0,0.0,15.0,4.0,0.0
13243,66.0,15.0,40.0,2.0,0.0
13244,45.0,15.0,30.0,3.0,0.0
13245,47.0,30.0,30.0,4.0,0.0
13246,47.0,0.0,30.0,3.0,0.0
13247,57.0,0.0,30.0,4.0,0.0
13248,49.0,30.0,120.0,3.0,0.0
13249,49.0,0.0,120.0,4.0,0.0
13250,56.0,15.0,30.0,4.0,0.0
13251,66.0,15.0,40.0,2.0,0.0
13252,66.0,30.0,30.0,4.0,0.0
13253,64.0,0.0,30.0,4.0,0.0
13254,64.0,30.0,30.0,2.0,0.0
13255,62.0,0.0,30.0,2.0,0.0
13256,62.0,0.0,30.0,4.0,0.0
13257,64.0,15.0,40.0,2.0,0.0
13258,64.0,15.0,30.0,4.0,0.0
13259,58.0,30.0,30.0,4.0,0.0
13260,49.0,0.0,30.0,4.0,0.0
13261,61.0,0.0,30.0,4.0,0.0
13262,49.0,0.0,30.0,3.0,0.0
13263,61.0,30.0,30.0,2.0,0.0
13264,47.0,0.0,30.0,3.0,0.0
13265,62.0,30.0,30.0,2.0,0.0
13266,62.0,0.0,30.0,4.0,0.0
13267,47.0,0.0,30.0,4.0,0.0
13268,46.0,30.0,60.0,4.0,0.0
13269,64.0,15.0,30.0,4.0,0.0
13270,46.0,0.0,40.0,3.0,0.0
13271,64.0,15.0,40.0,2.0,0.0
13272,61.0,0.0,30.0,4.0,0.0
13273,64.0,15.0,40.0,2.0,0.0
13274,59.0,0.0,30.0,4.0,0.0
13275,44.0,0.0,30.0,3.0,0.0
13276,44.0,15.0,30.0,4.0,0.0
13277,42.0,0.0,30.0,3.0,0.0
13278,42.0,0.0,30.0,4.0,0.0
13279,58.0,30.0,30.0,4.0,0.0
13280,59.0,15.0,30.0,4.0,0.0
13281,47.0,0.0,40.0,3.0,0.0
13282,64.0,15.0,40.0,2.0,0.0
13283,47.0,0.0,60.0,4.0,0.0
13284,64.0,30.0,30.0,4.0,0.0
13285,62.0,0.0,30.0,2.0,0.0
13286,54.0,15.0,40.0,3.0,0.0
13287,54.0,0.0,60.0,4.0,0.0
13288,62.0,15.0,30.0,4.0,0.0
13289,61.0,0.0,30.0,2.0,0.0
13290,61.0,30.0,30.0,4.0,0.0
13291,59.0,0.0,60.0,4.0,0.0
13292,62.0,15.0,30.0,4.0,0.0
13293,62.0,0.0,40.0,2.0,0.0
13294,59.0,15.0,40.0,3.0,0.0
13295,66.0,30.0,30.0,4.0,0.0
13296,62.0,0.0,30.0,4.0,0.0
13297,59.0,15.0,40.0,3.0,0.0
13298,59.0,15.0,30.0,2.0,0.0
13299,61.0,30.0,30.0,4.0,0.0
13300,61.0,0.0,30.0,2.0,0.0
13301,62.0,15.0,40.0,2.0,0.0
13302,62.0,15.0,30.0,4.0,0.0
13303,59.0,0.0,40.0,3.0,0.0
13304,59.0,0.0,15.0,4.0,0.0
13305,66.0,0.0,30.0,4.0,0.0
13306,62.0,15.0,40.0,2.0,0.0
13307,57.0,0.0,30.0,4.0,0.0
13308,71.0,0.0,30.0,4.0,0.0
13309,57.0,15.0,30.0,3.0,0.0
13310,56.0,0.0,30.0,4.0,0.0
13311,65.0,0.0,30.0,4.0,0.0
13312,56.0,30.0,30.0,3.0,0.0
13313,66.0,15.0,30.0,4.0,0.0
13314,62.0,0.0,40.0,2.0,0.0
13315,57.0,15.0,40.0,3.0,0.0
13316,62.0,0.0,30.0,4.0,0.0
13317,57.0,30.0,30.0,3.0,0.0
13318,61.0,0.0,30.0,2.0,0.0
13319,61.0,0.0,30.0,4.0,0.0
13320,57.0,30.0,15.0,4.0,0.0
13321,56.0,0.0,30.0,3.0,0.0
13322,59.0,0.0,30.0,2.0,0.0
13323,59.0,0.0,30.0,4.0,0.0
13324,56.0,45.0,30.0,4.0,0.0
13325,61.0,0.0,40.0,2.0,0.0
13326,57.0,0.0,60.0,4.0,0.0
13327,61.0,0.0,60.0,4.0,0.0
13328,57.0,15.0,40.0,3.0,0.0
13329,78.0,0.0,30.0,4.0,0.0
13330,78.0,0.0,30.0,1.0,0.0
13331,78.0,0.0,30.0,0.0,0.0
13332,54.0,0.0,30.0,4.0,0.0
13333,69.0,30.0,30.0,2.0,0.0
13334,54.0,0.0,30.0,3.0,0.0
13335,80.0,0.0,30.0,1.0,0.0
13336,53.0,0.0,30.0,3.0,0.0
13337,80.0,0.0,30.0,0.0,0.0
13338,68.0,0.0,30.0,2.0,0.0
13339,53.0,0.0,30.0,4.0,0.0
13340,80.0,30.0,30.0,4.0,0.0
13341,66.0,15.0,30.0,2.0,0.0
13342,54.0,30.0,60.0,4.0,0.0
13343,81.0,0.0,30.0,4.0,0.0
13344,54.0,0.0,40.0,3.0,0.0
13345,81.0,15.0,40.0,1.0,0.0
13346,81.0,0.0,40.0,0.0,0.0
13347,78.0,0.0,30.0,4.0,0.0
13348,64.0,0.0,30.0,2.0,0.0
13349,56.0,0.0,30.0,3.0,0.0
13350,62.0,0.0,30.0,2.0,0.0
13351,56.0,0.0,30.0,4.0,0.0
13352,83.0,0.0,30.0,4.0,0.0
13353,83.0,0.0,30.0,1.0,0.0
13354,83.0,30.0,30.0,0.0,0.0
13355,57.0,0.0,30.0,4.0,0.0
13356,61.0,0.0,30.0,2.0,0.0
13357,85.0,30.0,30.0,4.0,0.0
13358,57.0,0.0,30.0,3.0,0.0
13359,85.0,0.0,30.0,1.0,0.0
13360,85.0,0.0,30.0,0.0,0.0
13361,86.0,15.0,40.0,1.0,0.0
13362,59.0,0.0,40.0,2.0,0.0
13363,86.0,0.0,40.0,0.0,0.0
13364,59.0,0.0,40.0,3.0,0.0
13365,86.0,15.0,30.0,4.0,0.0
13366,59.0,0.0,60.0,4.0,0.0
13367,85.0,30.0,30.0,4.0,0.0
13368,83.0,0.0,30.0,4.0,0.0
13369,83.0,0.0,30.0,1.0,0.0
13370,61.0,0.0,30.0,4.0,0.0
13371,61.0,0.0,30.0,3.0,0.0
13372,74.0,30.0,30.0,2.0,0.0
13373,83.0,0.0,30.0,0.0,0.0
13374,81.0,0.0,30.0,1.0,0.0
13375,73.0,0.0,30.0,2.0,0.0
13376,62.0,0.0,30.0,4.0,0.0
13377,81.0,30.0,30.0,0.0,0.0
13378,62.0,0.0,30.0,3.0,0.0
13379,81.0,0.0,30.0,4.0,0.0
13380,64.0,30.0,60.0,4.0,0.0
13381,80.0,0.0,30.0,4.0,0.0
13382,80.0,15.0,40.0,1.0,0.0
13383,64.0,0.0,40.0,3.0,0.0
13384,71.0,15.0,30.0,2.0,0.0
13385,80.0,0.0,40.0,0.0,0.0
13386,78.0,0.0,30.0,4.0,0.0
13387,69.0,0.0,30.0,2.0,0.0
13388,76.0,0.0,30.0,0.0,0.0
13389,68.0,15.0,30.0,2.0,0.0
13390,76.0,0.0,30.0,1.0,0.0
13391,62.0,15.0,40.0,3.0,0.0
13392,76.0,0.0,30.0,4.0,0.0
13393,62.0,0.0,60.0,4.0,0.0
13394,78.0,0.0,30.0,1.0,0.0
13395,66.0,0.0,30.0,2.0,0.0
13396,78.0,30.0,30.0,0.0,0.0
13397,78.0,0.0,30.0,4.0,0.0
13398,64.0,15.0,40.0,2.0,0.0
13399,61.0,0.0,40.0,3.0,0.0
13400,80.0,0.0,40.0,1.0,0.0
13401,61.0,30.0,60.0,4.0,0.0
13402,80.0,15.0,30.0,4.0,0.0
13403,80.0,0.0,40.0,0.0,0.0
13404,76.0,0.0,30.0,4.0,0.0
13405,81.0,0.0,30.0,0.0,0.0
13406,62.0,15.0,40.0,2.0,0.0
13407,81.0,0.0,30.0,1.0,0.0
13408,59.0,0.0,40.0,3.0,0.0
13409,59.0,0.0,60.0,4.0,0.0
13410,81.0,15.0,30.0,4.0,0.0
13411,83.0,30.0,30.0,1.0,0.0
13412,83.0,0.0,30.0,0.0,0.0
13413,83.0,0.0,30.0,4.0,0.0
13414,57.0,15.0,40.0,3.0,0.0
13415,85.0,0.0,40.0,0.0,0.0
13416,57.0,30.0,60.0,4.0,0.0
13417,85.0,15.0,30.0,4.0,0.0
13418,85.0,0.0,40.0,1.0,0.0
13419,61.0,0.0,40.0,2.0,0.0
13420,83.0,0.0,30.0,4.0,0.0
13421,81.0,30.0,30.0,1.0,0.0
13422,63.0,0.0,30.0,2.0,0.0
13423,59.0,0.0,30.0,3.0,0.0
13424,59.0,0.0,30.0,4.0,0.0
13425,81.0,0.0,30.0,4.0,0.0
13426,81.0,0.0,30.0,0.0,0.0
13427,61.0,0.0,30.0,3.0,0.0
13428,80.0,30.0,30.0,0.0,0.0
13429,65.0,0.0,30.0,2.0,0.0
13430,61.0,0.0,30.0,4.0,0.0
13431,80.0,0.0,30.0,4.0,0.0
13432,80.0,0.0,30.0,1.0,0.0
13433,62.0,15.0,40.0,3.0,0.0
13434,78.0,0.0,60.0,1.0,0.0
13435,62.0,0.0,60.0,4.0,0.0
13436,78.0,0.0,60.0,0.0,0.0
13437,66.0,30.0,60.0,2.0,0.0
13438,78.0,15.0,30.0,4.0,0.0
13439,76.0,0.0,30.0,4.0,0.0
13440,66.0,30.0,30.0,3.0,0.0
13441,66.0,0.0,30.0,4.0,0.0
13442,74.0,0.0,30.0,4.0,0.0
13443,65.0,0.0,30.0,3.0,0.0
13444,65.0,0.0,30.0,4.0,0.0
13445,73.0,30.0,30.0,4.0,0.0
13446,66.0,15.0,40.0,3.0,0.0
13447,74.0,15.0,30.0,4.0,0.0
13448,66.0,30.0,60.0,4.0,0.0
13449,78.0,0.0,30.0,4.0,0.0
13450,71.0,15.0,30.0,4.0,0.0
13451,62.0,0.0,60.0,4.0,0.0
13452,62.0,15.0,40.0,3.0,0.0
13453,74.0,30.0,30.0,4.0,0.0
13454,74.0,0.0,120.0,1.0,0.0
13455,67.0,30.0,30.0,4.0,0.0
13456,59.0,0.0,60.0,4.0,0.0
13457,74.0,0.0,120.0,0.0,0.0
13458,71.0,0.0,120.0,2.0,0.0
13459,59.0,30.0,60.0,3.0,0.0
13460,79.0,0.0,30.0,4.0,0.0
13461,58.0,0.0,60.0,3.0,0.0
13462,58.0,0.0,60.0,4.0,0.0
13463,78.0,30.0,30.0,4.0,0.0
13464,79.0,30.0,30.0,4.0,0.0
13465,74.0,15.0,30.0,4.0,0.0
13466,59.0,0.0,60.0,4.0,0.0
13467,59.0,15.0,40.0,3.0,0.0
13468,79.0,30.0,30.0,4.0,0.0
13469,78.0,0.0,30.0,4.0,0.0
13470,62.0,0.0,30.0,4.0,0.0
13471,62.0,30.0,30.0,3.0,0.0
13472,61.0,0.0,30.0,4.0,0.0
13473,79.0,0.0,30.0,4.0,0.0
13474,61.0,30.0,30.0,3.0,0.0
13475,62.0,15.0,40.0,3.0,0.0
13476,62.0,30.0,60.0,4.0,0.0
13477,71.0,15.0,30.0,4.0,0.0
13478,74.0,0.0,30.0,4.0,0.0
13479,59.0,0.0,60.0,4.0,0.0
13480,59.0,15.0,40.0,3.0,0.0
13481,79.0,15.0,30.0,4.0,0.0
13482,74.0,30.0,30.0,4.0,0.0
13483,79.0,0.0,120.0,0.0,0.0
13484,83.0,30.0,30.0,4.0,0.0
13485,55.0,30.0,60.0,3.0,0.0
13486,55.0,0.0,60.0,4.0,0.0
13487,62.0,0.0,120.0,2.0,0.0
13488,74.0,0.0,120.0,1.0,0.0
13489,74.0,0.0,30.0,4.0,0.0
13490,82.0,30.0,30.0,4.0,0.0
13491,54.0,0.0,60.0,4.0,0.0
13492,54.0,30.0,60.0,3.0,0.0
13493,74.0,0.0,30.0,4.0,0.0
13494,55.0,0.0,60.0,4.0,0.0
13495,83.0,15.0,30.0,4.0,0.0
13496,55.0,15.0,40.0,3.0,0.0
13497,79.0,30.0,30.0,4.0,0.0
13498,74.0,0.0,30.0,4.0,0.0
13499,59.0,30.0,30.0,4.0,0.0
13500,59.0,0.0,30.0,3.0,0.0
13501,58.0,0.0,30.0,4.0,0.0
13502,73.0,0.0,30.0,4.0,0.0
13503,58.0,30.0,30.0,3.0,0.0
13504,59.0,0.0,60.0,4.0,0.0
13505,74.0,15.0,30.0,4.0,0.0
13506,59.0,15.0,40.0,3.0,0.0
13507,79.0,30.0,30.0,4.0,0.0
13508,55.0,15.0,40.0,3.0,0.0
13509,83.0,15.0,30.0,4.0,0.0
13510,55.0,0.0,60.0,4.0,0.0
13511,79.0,45.0,30.0,4.0,0.0
13512,53.0,0.0,60.0,4.0,0.0
13513,53.0,15.0,40.0,3.0,0.0
13514,86.0,30.0,15.0,4.0,0.0
13515,86.0,0.0,30.0,0.0,0.0
13516,74.0,0.0,30.0,2.0,0.0
13517,86.0,0.0,30.0,1.0,0.0
13518,62.0,30.0,30.0,3.0,0.0
13519,62.0,0.0,30.0,4.0,0.0
13520,61.0,0.0,30.0,4.0,0.0
13521,85.0,0.0,30.0,1.0,0.0
13522,61.0,0.0,30.0,3.0,0.0
13523,85.0,0.0,30.0,0.0,0.0
13524,73.0,0.0,30.0,2.0,0.0
13525,85.0,45.0,30.0,4.0,0.0
13526,86.0,15.0,40.0,1.0,0.0
13527,62.0,0.0,40.0,3.0,0.0
13528,86.0,30.0,60.0,4.0,0.0
13529,62.0,0.0,60.0,4.0,0.0
13530,86.0,0.0,40.0,0.0,0.0
13531,74.0,0.0,40.0,2.0,0.0
13532,71.0,0.0,30.0,2.0,0.0
13533,83.0,0.0,30.0,0.0,0.0
13534,83.0,0.0,30.0,1.0,0.0
13535,59.0,0.0,30.0,3.0,0.0
13536,59.0,30.0,30.0,4.0,0.0
13537,83.0,0.0,30.0,4.0,0.0
13538,82.0,0.0,30.0,1.0,0.0
13539,70.0,0.0,30.0,2.0,0.0
13540,82.0,0.0,30.0,0.0,0.0
13541,82.0,0.0,30.0,4.0,0.0
13542,58.0,0.0,30.0,4.0,0.0
13543,58.0,45.0,30.0,3.0,0.0
13544,59.0,45.0,60.0,4.0,0.0
13545,83.0,0.0,40.0,1.0,0.0
13546,83.0,15.0,40.0,0.0,0.0
13547,83.0,0.0,60.0,4.0,0.0
13548,71.0,0.0,40.0,2.0,0.0
13549,59.0,0.0,40.0,3.0,0.0
13550,68.0,0.0,40.0,2.0,0.0
13551,77.0,0.0,40.0,0.0,0.0
13552,77.0,45.0,60.0,4.0,0.0
13553,47.0,0.0,40.0,3.0,0.0
13554,77.0,15.0,40.0,1.0,0.0
13555,47.0,0.0,60.0,4.0,0.0
13556,78.0,0.0,40.0,1.0,0.0
13557,78.0,0.0,60.0,4.0,0.0
13558,45.0,0.0,40.0,3.0,0.0
13559,45.0,30.0,60.0,4.0,0.0
13560,73.0,0.0,40.0,2.0,0.0
13561,78.0,15.0,40.0,0.0,0.0
13562,69.0,0.0,40.0,1.0,0.0
13563,69.0,0.0,40.0,2.0,0.0
13564,69.0,15.0,40.0,0.0,0.0
13565,44.0,0.0,30.0,4.0,0.0
13566,69.0,0.0,60.0,4.0,0.0
13567,44.0,15.0,30.0,3.0,0.0
13568,42.0,0.0,30.0,4.0,0.0
13569,42.0,45.0,30.0,3.0,0.0
13570,50.0,30.0,60.0,4.0,0.0
13571,71.0,0.0,60.0,4.0,0.0
13572,71.0,0.0,40.0,1.0,0.0
13573,50.0,15.0,40.0,3.0,0.0
13574,71.0,0.0,40.0,0.0,0.0
13575,66.0,0.0,40.0,2.0,0.0
13576,49.0,0.0,30.0,4.0,0.0
13577,78.0,15.0,40.0,0.0,0.0
13578,78.0,0.0,40.0,1.0,0.0
13579,49.0,15.0,30.0,3.0,0.0
13580,71.0,0.0,40.0,2.0,0.0
13581,78.0,45.0,60.0,4.0,0.0
13582,47.0,0.0,30.0,4.0,0.0
13583,47.0,0.0,30.0,3.0,0.0
13584,73.0,15.0,40.0,1.0,0.0
13585,49.0,0.0,40.0,3.0,0.0
13586,73.0,45.0,60.0,4.0,0.0
13587,68.0,0.0,40.0,2.0,0.0
13588,49.0,0.0,60.0,4.0,0.0
13589,73.0,0.0,40.0,0.0,0.0
13590,77.0,0.0,40.0,0.0,0.0
13591,77.0,0.0,60.0,4.0,0.0
13592,49.0,0.0,40.0,3.0,0.0
13593,37.0,30.0,60.0,4.0,0.0
13594,77.0,0.0,40.0,1.0,0.0
13595,73.0,15.0,40.0,2.0,0.0
13596,42.0,0.0,120.0,3.0,0.0
13597,69.0,0.0,120.0,2.0,0.0
13598,78.0,0.0,120.0,1.0,0.0
13599,78.0,0.0,120.0,0.0,0.0
13600,66.0,30.0,30.0,4.0,0.0
13601,42.0,30.0,120.0,4.0,0.0
13602,68.0,30.0,30.0,4.0,0.0
13603,69.0,30.0,30.0,4.0,0.0
13604,71.0,0.0,30.0,4.0,0.0
13605,73.0,30.0,30.0,4.0,0.0
13606,75.0,30.0,30.0,4.0,0.0
13607,77.0,30.0,30.0,4.0,0.0
13608,78.0,30.0,30.0,4.0,0.0
13609,73.0,30.0,30.0,4.0,0.0
13610,78.0,30.0,30.0,4.0,0.0
13611,69.0,30.0,30.0,4.0,0.0
13612,73.0,60.0,30.0,4.0,0.0
13613,66.0,0.0,120.0,4.0,0.0
13614,54.0,0.0,120.0,4.0,0.0
13615,42.0,30.0,120.0,3.0,0.0
13616,90.0,30.0,30.0,4.0,0.0
13617,85.0,30.0,30.0,4.0,0.0
13618,90.0,0.0,30.0,4.0,0.0
13619,81.0,30.0,30.0,4.0,0.0
13620,85.0,30.0,30.0,4.0,0.0
13621,78.0,30.0,30.0,4.0,0.0
13622,81.0,30.0,30.0,4.0,0.0
13623,73.0,30.0,30.0,4.0,0.0
13624,78.0,30.0,30.0,4.0,0.0
13625,69.0,30.0,30.0,4.0,0.0
13626,73.0,30.0,30.0,4.0,0.0
13627,42.0,30.0,120.0,3.0,0.0
13628,66.0,30.0,30.0,4.0,0.0
13629,66.0,30.0,30.0,4.0,0.0
13630,73.0,30.0,30.0,4.0,0.0
13631,66.0,0.0,30.0,4.0,0.0
13632,68.0,30.0,30.0,4.0,0.0
13633,66.0,30.0,30.0,4.0,0.0
13634,73.0,30.0,30.0,4.0,0.0
13635,66.0,30.0,30.0,4.0,0.0
13636,69.0,30.0,30.0,4.0,0.0
13637,66.0,30.0,30.0,4.0,0.0
13638,73.0,30.0,30.0,4.0,0.0
13639,66.0,30.0,30.0,4.0,0.0
13640,71.0,30.0,30.0,4.0,0.0
13641,66.0,30.0,30.0,4.0,0.0
13642,73.0,30.0,30.0,4.0,0.0
13643,66.0,30.0,30.0,4.0,0.0
13644,69.0,30.0,30.0,4.0,0.0
13645,66.0,30.0,30.0,4.0,0.0
13646,73.0,30.0,30.0,4.0,0.0
13647,66.0,30.0,30.0,4.0,0.0
13648,68.0,30.0,30.0,4.0,0.0
13649,66.0,30.0,30.0,4.0,0.0
13650,73.0,30.0,30.0,4.0,0.0
13651,66.0,30.0,15.0,4.0,0.0
13652,42.0,0.0,120.0,3.0,0.0
13653,66.0,30.0,30.0,4.0,0.0
13654,73.0,30.0,30.0,4.0,0.0
13655,66.0,30.0,30.0,4.0,0.0
13656,68.0,30.0,30.0,4.0,0.0
13657,66.0,30.0,30.0,4.0,0.0
13658,73.0,30.0,30.0,4.0,0.0
13659,66.0,30.0,30.0,4.0,0.0
13660,69.0,30.0,30.0,4.0,0.0
13661,66.0,30.0,30.0,4.0,0.0
13662,73.0,30.0,30.0,4.0,0.0
13663,66.0,30.0,30.0,4.0,0.0
13664,71.0,30.0,30.0,4.0,0.0
13665,66.0,30.0,30.0,4.0,0.0
13666,73.0,30.0,30.0,4.0,0.0
13667,66.0,30.0,30.0,4.0,0.0
13668,69.0,30.0,30.0,4.0,0.0
13669,66.0,30.0,30.0,4.0,0.0
13670,73.0,30.0,30.0,4.0,0.0
13671,66.0,30.0,30.0,4.0,0.0
13672,68.0,30.0,30.0,4.0,0.0
13673,66.0,30.0,30.0,4.0,0.0
13674,73.0,30.0,30.0,4.0,0.0
13675,66.0,60.0,30.0,4.0,0.0
13676,66.0,0.0,60.0,4.0,0.0
13677,42.0,30.0,120.0,3.0,0.0
13678,78.0,30.0,30.0,4.0,0.0
13679,78.0,15.0,40.0,2.0,0.0
13680,69.0,0.0,60.0,4.0,0.0
13681,73.0,15.0,30.0,4.0,0.0
13682,78.0,0.0,30.0,4.0,0.0
13683,77.0,15.0,40.0,2.0,0.0
13684,68.0,0.0,60.0,4.0,0.0
13685,71.0,15.0,30.0,4.0,0.0
13686,77.0,30.0,30.0,4.0,0.0
13687,73.0,15.0,30.0,4.0,0.0
13688,69.0,0.0,60.0,4.0,0.0
13689,78.0,15.0,40.0,2.0,0.0
13690,78.0,30.0,30.0,4.0,0.0
13691,74.0,15.0,30.0,4.0,0.0
13692,71.0,30.0,60.0,4.0,0.0
13693,80.0,15.0,40.0,2.0,0.0
13694,80.0,0.0,30.0,4.0,0.0
13695,68.0,0.0,60.0,4.0,0.0
13696,77.0,15.0,40.0,2.0,0.0
13697,71.0,15.0,30.0,4.0,0.0
13698,77.0,30.0,30.0,4.0,0.0
13699,78.0,15.0,40.0,2.0,0.0
13700,73.0,15.0,30.0,4.0,0.0
13701,78.0,45.0,15.0,4.0,0.0
13702,69.0,0.0,15.0,4.0,0.0
13703,66.0,0.0,60.0,4.0,0.0
13704,78.0,0.0,40.0,1.0,0.0
13705,69.0,15.0,40.0,2.0,0.0
13706,81.0,0.0,30.0,4.0,0.0
13707,68.0,0.0,60.0,4.0,0.0
13708,71.0,0.0,60.0,4.0,0.0
13709,71.0,0.0,40.0,2.0,0.0
13710,73.0,45.0,15.0,4.0,0.0
13711,77.0,0.0,60.0,4.0,0.0
13712,77.0,15.0,40.0,1.0,0.0
13713,80.0,45.0,30.0,4.0,0.0
13714,78.0,0.0,60.0,4.0,0.0
13715,69.0,15.0,40.0,2.0,0.0
13716,78.0,0.0,40.0,1.0,0.0
13717,66.0,0.0,60.0,4.0,0.0
13718,69.0,0.0,60.0,4.0,0.0
13719,73.0,0.0,60.0,4.0,0.0
13720,81.0,45.0,30.0,4.0,0.0
13721,65.0,45.0,60.0,4.0,0.0
13722,73.0,0.0,60.0,4.0,0.0
13723,80.0,0.0,60.0,4.0,0.0
13724,68.0,15.0,40.0,2.0,0.0
13725,68.0,0.0,60.0,4.0,0.0
13726,80.0,0.0,40.0,1.0,0.0
13727,83.0,0.0,30.0,4.0,0.0
13728,71.0,0.0,40.0,2.0,0.0
13729,77.0,15.0,40.0,1.0,0.0
13730,68.0,0.0,60.0,4.0,0.0
13731,77.0,0.0,60.0,4.0,0.0
13732,71.0,0.0,60.0,4.0,0.0
13733,80.0,30.0,30.0,4.0,0.0
13734,73.0,0.0,15.0,4.0,0.0
13735,69.0,15.0,40.0,2.0,0.0
13736,81.0,0.0,30.0,4.0,0.0
13737,78.0,15.0,30.0,4.0,0.0
13738,61.0,0.0,30.0,4.0,0.0
13739,54.0,0.0,30.0,4.0,0.0
13740,78.0,0.0,40.0,1.0,0.0
13741,66.0,30.0,30.0,4.0,0.0
13742,54.0,30.0,30.0,3.0,0.0
13743,69.0,0.0,30.0,4.0,0.0
13744,56.0,30.0,30.0,3.0,0.0
13745,73.0,0.0,30.0,4.0,0.0
13746,78.0,15.0,30.0,4.0,0.0
13747,57.0,15.0,40.0,3.0,0.0
13748,73.0,30.0,30.0,4.0,0.0
13749,56.0,15.0,40.0,3.0,0.0
13750,78.0,15.0,30.0,4.0,0.0
13751,81.0,30.0,30.0,4.0,0.0
13752,85.0,15.0,30.0,4.0,0.0
13753,54.0,15.0,40.0,3.0,0.0
13754,83.0,30.0,30.0,4.0,0.0
13755,52.0,15.0,40.0,3.0,0.0
13756,81.0,15.0,30.0,4.0,0.0
13757,80.0,30.0,30.0,4.0,0.0
13758,78.0,30.0,30.0,4.0,0.0
13759,51.0,15.0,120.0,3.0,0.0
13760,51.0,0.0,30.0,4.0,0.0
13761,76.0,30.0,30.0,4.0,0.0
13762,75.0,15.0,30.0,4.0,0.0
13763,52.0,0.0,30.0,4.0,0.0
13764,54.0,0.0,30.0,4.0,0.0
13765,73.0,30.0,30.0,4.0,0.0
13766,72.0,30.0,30.0,4.0,0.0
13767,60.0,0.0,120.0,3.0,0.0
13768,56.0,0.0,60.0,4.0,0.0
13769,70.0,30.0,30.0,4.0,0.0
13770,68.0,30.0,30.0,4.0,0.0
13771,51.0,30.0,60.0,4.0,0.0
13772,66.0,0.0,30.0,4.0,0.0
13773,64.0,30.0,30.0,4.0,0.0
13774,44.0,0.0,120.0,4.0,0.0
13775,63.0,30.0,30.0,4.0,0.0
13776,54.0,0.0,60.0,4.0,0.0
13777,61.0,30.0,30.0,4.0,0.0
13778,60.0,30.0,30.0,4.0,0.0
13779,49.0,0.0,120.0,3.0,0.0
13780,61.0,30.0,30.0,4.0,0.0
13781,52.0,0.0,120.0,4.0,0.0
13782,49.0,30.0,120.0,4.0,0.0
13783,63.0,30.0,30.0,4.0,0.0
13784,64.0,30.0,30.0,4.0,0.0
13785,66.0,0.0,30.0,4.0,0.0
13786,68.0,30.0,30.0,4.0,0.0
13787,70.0,30.0,30.0,4.0,0.0
13788,72.0,30.0,30.0,4.0,0.0
13789,73.0,30.0,30.0,4.0,0.0
13790,68.0,30.0,30.0,4.0,0.0
13791,73.0,30.0,30.0,4.0,0.0
13792,64.0,30.0,30.0,4.0,0.0
13793,68.0,60.0,30.0,4.0,0.0
13794,37.0,30.0,120.0,4.0,0.0
13795,49.0,0.0,120.0,4.0,0.0
13796,49.0,0.0,120.0,3.0,0.0
13797,85.0,30.0,30.0,4.0,0.0
13798,80.0,30.0,30.0,4.0,0.0
13799,85.0,0.0,30.0,4.0,0.0
13800,76.0,30.0,30.0,4.0,0.0
13801,80.0,30.0,30.0,4.0,0.0
13802,73.0,30.0,30.0,4.0,0.0
13803,76.0,30.0,30.0,4.0,0.0
13804,68.0,30.0,30.0,4.0,0.0
13805,73.0,30.0,30.0,4.0,0.0
13806,64.0,30.0,30.0,4.0,0.0
13807,68.0,30.0,30.0,4.0,0.0
13808,61.0,30.0,30.0,4.0,0.0
13809,49.0,30.0,120.0,3.0,0.0
13810,61.0,30.0,30.0,4.0,0.0
13811,68.0,30.0,30.0,4.0,0.0
13812,61.0,0.0,30.0,4.0,0.0
13813,63.0,30.0,30.0,4.0,0.0
13814,61.0,30.0,30.0,4.0,0.0
13815,68.0,30.0,30.0,4.0,0.0
13816,61.0,30.0,30.0,4.0,0.0
13817,64.0,30.0,30.0,4.0,0.0
13818,61.0,30.0,30.0,4.0,0.0
13819,68.0,30.0,30.0,4.0,0.0
13820,61.0,30.0,30.0,4.0,0.0
13821,66.0,30.0,30.0,4.0,0.0
13822,61.0,30.0,30.0,4.0,0.0
13823,68.0,30.0,30.0,4.0,0.0
13824,61.0,30.0,30.0,4.0,0.0
13825,64.0,30.0,30.0,4.0,0.0
13826,61.0,30.0,30.0,4.0,0.0
13827,68.0,30.0,30.0,4.0,0.0
13828,61.0,30.0,30.0,4.0,0.0
13829,63.0,30.0,30.0,4.0,0.0
13830,61.0,30.0,30.0,4.0,0.0
13831,68.0,30.0,30.0,4.0,0.0
13832,61.0,30.0,30.0,4.0,0.0
13833,49.0,0.0,120.0,3.0,0.0
13834,61.0,30.0,15.0,4.0,0.0
13835,68.0,30.0,30.0,4.0,0.0
13836,61.0,30.0,30.0,4.0,0.0
13837,63.0,30.0,30.0,4.0,0.0
13838,61.0,30.0,30.0,4.0,0.0
13839,68.0,30.0,30.0,4.0,0.0
13840,61.0,30.0,30.0,4.0,0.0
13841,64.0,30.0,30.0,4.0,0.0
13842,61.0,30.0,30.0,4.0,0.0
13843,68.0,30.0,30.0,4.0,0.0
13844,61.0,30.0,30.0,4.0,0.0
13845,66.0,30.0,30.0,4.0,0.0
13846,61.0,30.0,30.0,4.0,0.0
13847,68.0,30.0,30.0,4.0,0.0
13848,61.0,30.0,30.0,4.0,0.0
13849,64.0,30.0,30.0,4.0,0.0
13850,61.0,30.0,30.0,4.0,0.0
13851,68.0,30.0,30.0,4.0,0.0
13852,61.0,30.0,30.0,4.0,0.0
13853,63.0,30.0,30.0,4.0,0.0
13854,61.0,30.0,30.0,4.0,0.0
13855,68.0,30.0,30.0,4.0,0.0
13856,61.0,60.0,30.0,4.0,0.0
13857,49.0,30.0,120.0,3.0,0.0
13858,61.0,30.0,60.0,4.0,0.0
13859,85.0,0.0,30.0,4.0,0.0
13860,80.0,15.0,30.0,4.0,0.0
13861,76.0,0.0,60.0,4.0,0.0
13862,85.0,15.0,40.0,0.0,0.0
13863,85.0,0.0,30.0,4.0,0.0
13864,78.0,15.0,30.0,4.0,0.0
13865,84.0,15.0,40.0,0.0,0.0
13866,75.0,30.0,60.0,4.0,0.0
13867,84.0,0.0,30.0,4.0,0.0
13868,76.0,30.0,60.0,4.0,0.0
13869,80.0,15.0,30.0,4.0,0.0
13870,85.0,15.0,40.0,0.0,0.0
13871,85.0,0.0,30.0,4.0,0.0
13872,78.0,0.0,60.0,4.0,0.0
13873,81.0,15.0,30.0,4.0,0.0
13874,87.0,15.0,40.0,0.0,0.0
13875,87.0,30.0,30.0,4.0,0.0
13876,75.0,30.0,60.0,4.0,0.0
13877,78.0,15.0,30.0,4.0,0.0
13878,84.0,15.0,40.0,0.0,0.0
13879,84.0,0.0,30.0,4.0,0.0
13880,85.0,15.0,40.0,0.0,0.0
13881,80.0,15.0,30.0,4.0,0.0
13882,76.0,45.0,60.0,4.0,0.0
13883,85.0,0.0,30.0,4.0,0.0
13884,76.0,15.0,40.0,0.0,0.0
13885,73.0,0.0,40.0,1.0,0.0
13886,73.0,0.0,60.0,4.0,0.0
13887,76.0,0.0,60.0,4.0,0.0
13888,85.0,0.0,60.0,4.0,0.0
13889,88.0,0.0,30.0,4.0,0.0
13890,75.0,45.0,60.0,4.0,0.0
13891,78.0,0.0,60.0,4.0,0.0
13892,80.0,45.0,15.0,4.0,0.0
13893,84.0,0.0,60.0,4.0,0.0
13894,78.0,0.0,40.0,0.0,0.0
13895,72.0,15.0,40.0,1.0,0.0
13896,87.0,0.0,30.0,4.0,0.0
13897,76.0,15.0,40.0,0.0,0.0
13898,73.0,0.0,40.0,1.0,0.0
13899,76.0,0.0,60.0,4.0,0.0
13900,80.0,0.0,15.0,4.0,0.0
13901,73.0,0.0,60.0,4.0,0.0
13902,85.0,45.0,60.0,4.0,0.0
13903,88.0,0.0,30.0,4.0,0.0
13904,75.0,15.0,40.0,1.0,0.0
13905,75.0,0.0,40.0,0.0,0.0
13906,72.0,45.0,60.0,4.0,0.0
13907,87.0,0.0,60.0,4.0,0.0
13908,75.0,0.0,60.0,4.0,0.0
13909,90.0,0.0,30.0,4.0,0.0
13910,72.0,0.0,40.0,1.0,0.0
13911,84.0,30.0,60.0,4.0,0.0
13912,78.0,0.0,60.0,4.0,0.0
13913,75.0,0.0,60.0,4.0,0.0
13914,78.0,15.0,40.0,0.0,0.0
13915,80.0,0.0,60.0,4.0,0.0
13916,87.0,0.0,30.0,4.0,0.0
13917,73.0,0.0,120.0,1.0,0.0
13918,88.0,0.0,30.0,4.0,0.0
13919,76.0,30.0,120.0,0.0,0.0
13920,85.0,0.0,30.0,4.0,0.0
13921,73.0,0.0,30.0,4.0,0.0
13922,76.0,30.0,30.0,4.0,0.0
13923,80.0,0.0,30.0,4.0,0.0
13924,61.0,30.0,30.0,4.0,0.0
13925,61.0,30.0,30.0,3.0,0.0
13926,64.0,0.0,30.0,4.0,0.0
13927,68.0,0.0,30.0,4.0,0.0
13928,63.0,0.0,30.0,3.0,0.0
13929,64.0,15.0,40.0,3.0,0.0
13930,73.0,15.0,30.0,4.0,0.0
13931,68.0,30.0,30.0,4.0,0.0
13932,73.0,15.0,30.0,4.0,0.0
13933,63.0,15.0,40.0,3.0,0.0
13934,76.0,30.0,30.0,4.0,0.0
13935,80.0,15.0,30.0,4.0,0.0
13936,61.0,15.0,40.0,3.0,0.0
13937,78.0,30.0,30.0,4.0,0.0
13938,59.0,15.0,40.0,3.0,0.0
13939,76.0,15.0,30.0,4.0,0.0
13940,75.0,30.0,30.0,4.0,0.0
13941,73.0,30.0,30.0,4.0,0.0
13942,58.0,15.0,120.0,3.0,0.0
13943,46.0,30.0,30.0,4.0,0.0
13944,71.0,0.0,30.0,4.0,0.0
13945,47.0,15.0,30.0,4.0,0.0
13946,70.0,0.0,30.0,4.0,0.0
13947,49.0,30.0,30.0,4.0,0.0
13948,68.0,0.0,30.0,4.0,0.0
13949,51.0,0.0,60.0,4.0,0.0
13950,67.0,30.0,30.0,4.0,0.0
13951,67.0,30.0,120.0,3.0,0.0
13952,65.0,30.0,30.0,4.0,0.0
13953,46.0,0.0,60.0,4.0,0.0
13954,63.0,30.0,30.0,4.0,0.0
13955,61.0,0.0,30.0,4.0,0.0
13956,39.0,30.0,120.0,4.0,0.0
13957,59.0,30.0,30.0,4.0,0.0
13958,58.0,30.0,30.0,4.0,0.0
13959,49.0,0.0,60.0,4.0,0.0
13960,56.0,30.0,30.0,4.0,0.0
13961,55.0,0.0,30.0,4.0,0.0
13962,56.0,30.0,30.0,4.0,0.0
13963,51.0,0.0,120.0,4.0,0.0
13964,47.0,0.0,120.0,4.0,0.0
13965,44.0,0.0,120.0,4.0,0.0
13966,56.0,30.0,120.0,3.0,0.0
13967,58.0,30.0,30.0,4.0,0.0
13968,59.0,30.0,30.0,4.0,0.0
13969,61.0,0.0,30.0,4.0,0.0
13970,63.0,30.0,30.0,4.0,0.0
13971,65.0,30.0,30.0,4.0,0.0
13972,67.0,30.0,30.0,4.0,0.0
13973,68.0,30.0,30.0,4.0,0.0
13974,63.0,30.0,30.0,4.0,0.0
13975,68.0,30.0,30.0,4.0,0.0
13976,59.0,30.0,30.0,4.0,0.0
13977,63.0,60.0,30.0,4.0,0.0
13978,56.0,0.0,120.0,4.0,0.0
13979,51.0,0.0,120.0,4.0,0.0
13980,44.0,30.0,120.0,4.0,0.0
13981,47.0,0.0,120.0,4.0,0.0
13982,80.0,30.0,30.0,4.0,0.0
13983,75.0,30.0,30.0,4.0,0.0
13984,80.0,0.0,30.0,4.0,0.0
13985,71.0,30.0,30.0,4.0,0.0
13986,75.0,30.0,30.0,4.0,0.0
13987,68.0,30.0,30.0,4.0,0.0
13988,71.0,30.0,30.0,4.0,0.0
13989,63.0,30.0,30.0,4.0,0.0
13990,68.0,30.0,30.0,4.0,0.0
13991,59.0,30.0,30.0,4.0,0.0
13992,63.0,30.0,30.0,4.0,0.0
13993,56.0,30.0,30.0,4.0,0.0
13994,68.0,30.0,30.0,4.0,0.0
13995,71.0,30.0,30.0,4.0,0.0
13996,56.0,0.0,30.0,3.0,0.0
13997,57.0,30.0,30.0,3.0,0.0
13998,75.0,0.0,30.0,4.0,0.0
13999,80.0,15.0,30.0,4.0,0.0
14000,59.0,15.0,40.0,3.0,0.0
14001,75.0,30.0,30.0,4.0,0.0
14002,80.0,15.0,30.0,4.0,0.0
14003,57.0,15.0,40.0,3.0,0.0
14004,83.0,30.0,30.0,4.0,0.0
14005,86.0,15.0,30.0,4.0,0.0
14006,56.0,15.0,40.0,3.0,0.0
14007,85.0,30.0,30.0,4.0,0.0
14008,83.0,15.0,30.0,4.0,0.0
14009,54.0,15.0,40.0,3.0,0.0
14010,81.0,30.0,30.0,4.0,0.0
14011,53.0,15.0,120.0,3.0,0.0
14012,80.0,30.0,30.0,4.0,0.0
14013,81.0,30.0,30.0,4.0,0.0
14014,83.0,15.0,30.0,4.0,0.0
14015,56.0,30.0,60.0,4.0,0.0
14016,81.0,0.0,30.0,4.0,0.0
14017,61.0,30.0,120.0,3.0,0.0
14018,61.0,30.0,60.0,4.0,0.0
14019,80.0,30.0,30.0,4.0,0.0
14020,78.0,0.0,30.0,4.0,0.0
14021,56.0,0.0,60.0,4.0,0.0
14022,77.0,30.0,30.0,4.0,0.0
14023,75.0,0.0,30.0,4.0,0.0
14024,73.0,30.0,30.0,4.0,0.0
14025,71.0,30.0,30.0,4.0,0.0
14026,53.0,0.0,15.0,4.0,0.0
14027,49.0,0.0,60.0,4.0,0.0
14028,69.0,30.0,30.0,4.0,0.0
14029,59.0,30.0,60.0,4.0,0.0
14030,68.0,0.0,30.0,4.0,0.0
14031,54.0,0.0,120.0,3.0,0.0
14032,66.0,30.0,30.0,4.0,0.0
14033,54.0,30.0,120.0,4.0,0.0
14034,57.0,0.0,120.0,4.0,0.0
14035,68.0,30.0,30.0,4.0,0.0
14036,69.0,30.0,30.0,4.0,0.0
14037,71.0,0.0,30.0,4.0,0.0
14038,73.0,30.0,30.0,4.0,0.0
14039,75.0,30.0,30.0,4.0,0.0
14040,77.0,30.0,30.0,4.0,0.0
14041,78.0,30.0,30.0,4.0,0.0
14042,73.0,30.0,30.0,4.0,0.0
14043,78.0,30.0,30.0,4.0,0.0
14044,69.0,30.0,30.0,4.0,0.0
14045,73.0,60.0,30.0,4.0,0.0
14046,66.0,0.0,120.0,4.0,0.0
14047,61.0,0.0,120.0,4.0,0.0
14048,57.0,0.0,120.0,4.0,0.0
14049,54.0,30.0,120.0,4.0,0.0
14050,90.0,30.0,30.0,4.0,0.0
14051,85.0,0.0,30.0,4.0,0.0
14052,54.0,30.0,30.0,3.0,0.0
14053,56.0,0.0,30.0,3.0,0.0
14054,90.0,0.0,30.0,4.0,0.0
14055,57.0,15.0,40.0,3.0,0.0
14056,81.0,15.0,30.0,4.0,0.0
14057,85.0,30.0,30.0,4.0,0.0
14058,78.0,15.0,30.0,4.0,0.0
14059,56.0,15.0,40.0,3.0,0.0
14060,81.0,30.0,30.0,4.0,0.0
14061,54.0,15.0,40.0,3.0,0.0
14062,73.0,15.0,30.0,4.0,0.0
14063,78.0,30.0,30.0,4.0,0.0
14064,52.0,15.0,40.0,3.0,0.0
14065,69.0,15.0,30.0,4.0,0.0
14066,73.0,60.0,30.0,4.0,0.0
14067,54.0,0.0,120.0,4.0,0.0
14068,57.0,0.0,120.0,4.0,0.0
14069,62.0,30.0,120.0,4.0,0.0
14070,64.0,30.0,30.0,4.0,0.0
14071,66.0,0.0,30.0,4.0,0.0
14072,50.0,30.0,30.0,3.0,0.0
14073,67.0,0.0,30.0,4.0,0.0
14074,52.0,0.0,30.0,3.0,0.0
14075,54.0,15.0,40.0,3.0,0.0
14076,69.0,15.0,30.0,4.0,0.0
14077,71.0,30.0,30.0,4.0,0.0
14078,52.0,15.0,40.0,3.0,0.0
14079,73.0,15.0,30.0,4.0,0.0
14080,74.0,30.0,30.0,4.0,0.0
14081,69.0,15.0,30.0,4.0,0.0
14082,50.0,15.0,40.0,3.0,0.0
14083,74.0,30.0,30.0,4.0,0.0
14084,66.0,15.0,30.0,4.0,0.0
14085,49.0,15.0,40.0,3.0,0.0
14086,69.0,60.0,30.0,4.0,0.0
14087,59.0,30.0,120.0,4.0,0.0
14088,54.0,0.0,120.0,4.0,0.0
14089,50.0,0.0,120.0,4.0,0.0
14090,61.0,30.0,30.0,4.0,0.0
14091,47.0,0.0,30.0,3.0,0.0
14092,62.0,30.0,30.0,4.0,0.0
14093,49.0,0.0,30.0,3.0,0.0
14094,64.0,0.0,30.0,4.0,0.0
14095,66.0,15.0,30.0,4.0,0.0
14096,50.0,15.0,40.0,3.0,0.0
14097,68.0,30.0,30.0,4.0,0.0
14098,49.0,15.0,40.0,3.0,0.0
14099,69.0,15.0,30.0,4.0,0.0
14100,71.0,30.0,30.0,4.0,0.0
14101,73.0,15.0,30.0,4.0,0.0
14102,47.0,15.0,40.0,3.0,0.0
14103,74.0,30.0,30.0,4.0,0.0
14104,45.0,15.0,40.0,3.0,0.0
14105,76.0,15.0,30.0,4.0,0.0
14106,78.0,30.0,30.0,4.0,0.0
14107,80.0,30.0,30.0,4.0,0.0
14108,59.0,0.0,120.0,4.0,0.0
14109,52.0,30.0,120.0,4.0,0.0
14110,50.0,0.0,120.0,4.0,0.0
14111,52.0,0.0,120.0,3.0,0.0
14112,81.0,30.0,30.0,4.0,0.0
14113,83.0,30.0,30.0,4.0,0.0
14114,85.0,0.0,30.0,4.0,0.0
14115,86.0,30.0,30.0,4.0,0.0
14116,85.0,30.0,30.0,4.0,0.0
14117,83.0,30.0,30.0,4.0,0.0
14118,81.0,30.0,30.0,4.0,0.0
14119,80.0,30.0,30.0,4.0,0.0
14120,78.0,30.0,30.0,4.0,0.0
14121,76.0,30.0,30.0,4.0,0.0
14122,74.0,30.0,30.0,4.0,0.0
14123,57.0,15.0,40.0,3.0,0.0
14124,73.0,15.0,30.0,4.0,0.0
14125,71.0,30.0,30.0,4.0,0.0
14126,49.0,15.0,40.0,3.0,0.0
14127,49.0,30.0,60.0,4.0,0.0
14128,69.0,15.0,30.0,4.0,0.0
14129,68.0,0.0,30.0,4.0,0.0
14130,50.0,0.0,60.0,4.0,0.0
14131,66.0,15.0,30.0,4.0,0.0
14132,50.0,15.0,40.0,3.0,0.0
14133,64.0,30.0,30.0,4.0,0.0
14134,47.0,30.0,60.0,4.0,0.0
14135,62.0,15.0,30.0,4.0,0.0
14136,57.0,15.0,40.0,3.0,0.0
14137,61.0,0.0,30.0,4.0,0.0
14138,52.0,15.0,40.0,3.0,0.0
14139,52.0,0.0,60.0,4.0,0.0
14140,59.0,15.0,30.0,4.0,0.0
14141,69.0,30.0,30.0,4.0,0.0
14142,56.0,15.0,40.0,3.0,0.0
14143,59.0,15.0,30.0,4.0,0.0
14144,40.0,30.0,60.0,4.0,0.0
14145,68.0,0.0,30.0,4.0,0.0
14146,69.0,15.0,40.0,0.0,0.0
14147,45.0,0.0,120.0,3.0,0.0
14148,69.0,0.0,40.0,1.0,0.0
14149,52.0,0.0,120.0,4.0,0.0
14150,49.0,0.0,120.0,4.0,0.0
14151,45.0,0.0,120.0,4.0,0.0
14152,57.0,15.0,30.0,4.0,0.0
14153,69.0,30.0,30.0,4.0,0.0
14154,68.0,0.0,30.0,4.0,0.0
14155,68.0,0.0,30.0,1.0,0.0
14156,68.0,30.0,30.0,0.0,0.0
14157,66.0,0.0,30.0,4.0,0.0
14158,66.0,0.0,30.0,1.0,0.0
14159,66.0,45.0,30.0,0.0,0.0
14160,64.0,0.0,60.0,4.0,0.0
14161,64.0,0.0,40.0,1.0,0.0
14162,64.0,15.0,40.0,0.0,0.0
14163,61.0,45.0,30.0,4.0,0.0
14164,62.0,0.0,40.0,0.0,0.0
14165,62.0,15.0,40.0,1.0,0.0
14166,62.0,0.0,60.0,4.0,0.0
14167,59.0,45.0,30.0,4.0,0.0
14168,61.0,15.0,40.0,1.0,0.0
14169,61.0,45.0,60.0,4.0,0.0
14170,61.0,0.0,40.0,0.0,0.0
14171,57.0,0.0,30.0,4.0,0.0
14172,59.0,0.0,60.0,4.0,0.0
14173,59.0,15.0,40.0,0.0,0.0
14174,59.0,0.0,40.0,1.0,0.0
14175,56.0,45.0,30.0,4.0,0.0
14176,61.0,0.0,60.0,4.0,0.0
14177,57.0,30.0,60.0,4.0,0.0
14178,61.0,0.0,40.0,0.0,0.0
14179,61.0,15.0,40.0,1.0,0.0
14180,45.0,0.0,30.0,3.0,0.0
14181,64.0,0.0,40.0,1.0,0.0
14182,61.0,0.0,30.0,2.0,0.0
14183,45.0,15.0,30.0,4.0,0.0
14184,64.0,15.0,40.0,0.0,0.0
14185,47.0,45.0,30.0,3.0,0.0
14186,62.0,0.0,30.0,2.0,0.0
14187,47.0,0.0,30.0,4.0,0.0
14188,49.0,15.0,40.0,3.0,0.0
14189,69.0,0.0,60.0,4.0,0.0
14190,64.0,0.0,40.0,2.0,0.0
14191,64.0,0.0,15.0,4.0,0.0
14192,61.0,0.0,15.0,4.0,0.0
14193,69.0,0.0,40.0,1.0,0.0
14194,49.0,0.0,60.0,4.0,0.0
14195,69.0,0.0,40.0,0.0,0.0
14196,47.0,0.0,30.0,4.0,0.0
14197,69.0,15.0,40.0,0.0,0.0
14198,47.0,15.0,30.0,3.0,0.0
14199,69.0,0.0,60.0,4.0,0.0
14200,69.0,0.0,40.0,1.0,0.0
14201,64.0,45.0,60.0,4.0,0.0
14202,62.0,0.0,30.0,2.0,0.0
14203,49.0,0.0,30.0,4.0,0.0
14204,49.0,0.0,30.0,3.0,0.0
14205,64.0,0.0,30.0,2.0,0.0
14206,66.0,30.0,60.0,4.0,0.0
14207,66.0,0.0,40.0,2.0,0.0
14208,61.0,0.0,15.0,4.0,0.0
14209,51.0,0.0,60.0,4.0,0.0
14210,69.0,0.0,40.0,0.0,0.0
14211,69.0,0.0,40.0,1.0,0.0
14212,69.0,0.0,60.0,4.0,0.0
14213,51.0,15.0,40.0,3.0,0.0
14214,69.0,15.0,40.0,0.0,0.0
14215,61.0,60.0,60.0,4.0,0.0
14216,66.0,0.0,60.0,4.0,0.0
14217,69.0,0.0,60.0,4.0,0.0
14218,49.0,0.0,30.0,4.0,0.0
14219,64.0,15.0,30.0,2.0,0.0
14220,69.0,0.0,40.0,1.0,0.0
14221,49.0,0.0,30.0,3.0,0.0
14222,51.0,0.0,30.0,4.0,0.0
14223,51.0,0.0,30.0,3.0,0.0
14224,66.0,0.0,30.0,2.0,0.0
14225,59.0,0.0,60.0,2.0,0.0
14226,68.0,0.0,60.0,4.0,0.0
14227,52.0,0.0,120.0,3.0,0.0
14228,52.0,30.0,60.0,4.0,0.0
14229,59.0,0.0,60.0,4.0,0.0
14230,68.0,0.0,60.0,1.0,0.0
14231,68.0,0.0,60.0,0.0,0.0
14232,56.0,30.0,60.0,4.0,0.0
14233,64.0,0.0,15.0,4.0,0.0
14234,66.0,0.0,30.0,4.0,0.0
14235,68.0,30.0,30.0,4.0,0.0
14236,59.0,30.0,60.0,4.0,0.0
14237,69.0,0.0,30.0,4.0,0.0
14238,71.0,30.0,30.0,4.0,0.0
14239,64.0,30.0,60.0,4.0,0.0
14240,66.0,0.0,30.0,4.0,0.0
14241,68.0,30.0,30.0,4.0,0.0
14242,59.0,30.0,60.0,4.0,0.0
14243,64.0,0.0,30.0,4.0,0.0
14244,71.0,30.0,30.0,4.0,0.0
14245,63.0,0.0,60.0,4.0,0.0
14246,66.0,60.0,30.0,4.0,0.0
14247,64.0,0.0,60.0,4.0,0.0
14248,68.0,30.0,15.0,4.0,0.0
14249,68.0,15.0,30.0,2.0,0.0
14250,71.0,15.0,40.0,0.0,0.0
14251,52.0,0.0,30.0,3.0,0.0
14252,52.0,0.0,30.0,4.0,0.0
14253,71.0,0.0,40.0,1.0,0.0
14254,54.0,45.0,30.0,3.0,0.0
14255,69.0,0.0,30.0,2.0,0.0
14256,54.0,0.0,30.0,4.0,0.0
14257,76.0,0.0,40.0,0.0,0.0
14258,71.0,0.0,40.0,2.0,0.0
14259,56.0,0.0,60.0,4.0,0.0
14260,68.0,0.0,15.0,4.0,0.0
14261,71.0,0.0,15.0,4.0,0.0
14262,76.0,0.0,40.0,1.0,0.0
14263,56.0,15.0,40.0,3.0,0.0
14264,76.0,15.0,40.0,0.0,0.0
14265,76.0,0.0,40.0,1.0,0.0
14266,68.0,30.0,15.0,4.0,0.0
14267,70.0,15.0,30.0,2.0,0.0
14268,71.0,0.0,15.0,4.0,0.0
14269,76.0,0.0,15.0,4.0,0.0
14270,54.0,0.0,30.0,4.0,0.0
14271,54.0,0.0,30.0,3.0,0.0
14272,56.0,0.0,30.0,4.0,0.0
14273,56.0,45.0,30.0,3.0,0.0
14274,71.0,0.0,30.0,2.0,0.0
14275,76.0,0.0,40.0,1.0,0.0
14276,76.0,0.0,40.0,0.0,0.0
14277,58.0,0.0,60.0,4.0,0.0
14278,58.0,15.0,40.0,3.0,0.0
14279,73.0,0.0,40.0,2.0,0.0
14280,71.0,0.0,30.0,2.0,0.0
14281,56.0,0.0,30.0,3.0,0.0
14282,76.0,15.0,40.0,1.0,0.0
14283,56.0,15.0,30.0,4.0,0.0
14284,76.0,30.0,15.0,4.0,0.0
14285,73.0,0.0,15.0,4.0,0.0
14286,66.0,0.0,15.0,4.0,0.0
14287,76.0,0.0,40.0,0.0,0.0
14288,73.0,0.0,30.0,2.0,0.0
14289,58.0,0.0,30.0,3.0,0.0
14290,58.0,0.0,30.0,4.0,0.0
14291,59.0,0.0,60.0,4.0,0.0
14292,59.0,0.0,120.0,3.0,0.0
14293,66.0,60.0,15.0,4.0,0.0
14294,71.0,0.0,60.0,4.0,0.0
14295,74.0,30.0,60.0,0.0,0.0
14296,74.0,0.0,60.0,4.0,0.0
14297,74.0,0.0,60.0,1.0,0.0
14298,66.0,0.0,60.0,2.0,0.0
14299,59.0,30.0,30.0,4.0,0.0
14300,50.0,30.0,60.0,4.0,0.0
14301,61.0,0.0,30.0,4.0,0.0
14302,62.0,30.0,30.0,4.0,0.0
14303,54.0,30.0,60.0,4.0,0.0
14304,64.0,0.0,30.0,4.0,0.0
14305,66.0,30.0,30.0,4.0,0.0
14306,59.0,30.0,60.0,4.0,0.0
14307,62.0,0.0,30.0,4.0,0.0
14308,59.0,30.0,30.0,4.0,0.0
14309,54.0,0.0,60.0,4.0,0.0
14310,66.0,60.0,30.0,4.0,0.0
14311,58.0,0.0,60.0,4.0,0.0
14312,61.0,60.0,30.0,4.0,0.0
14313,59.0,0.0,60.0,4.0,0.0
14314,62.0,0.0,30.0,2.0,0.0
14315,62.0,30.0,15.0,4.0,0.0
14316,66.0,26.0,30.0,1.0,0.0
14317,66.0,0.0,60.0,4.0,0.0
14318,47.0,0.0,30.0,4.0,0.0
14319,47.0,4.0,30.0,3.0,0.0
14320,66.0,0.0,30.0,0.0,0.0
14321,64.0,34.0,30.0,2.0,0.0
14322,49.0,0.0,30.0,4.0,0.0
14323,49.0,0.0,30.0,3.0,0.0
14324,50.0,0.0,60.0,4.0,0.0
14325,66.0,0.0,30.0,2.0,0.0
14326,50.0,0.0,30.0,3.0,0.0
14327,71.0,0.0,30.0,1.0,0.0
14328,71.0,26.0,30.0,0.0,0.0
14329,49.0,0.0,30.0,3.0,0.0
14330,66.0,0.0,15.0,4.0,0.0
14331,62.0,30.0,15.0,4.0,0.0
14332,71.0,0.0,15.0,4.0,0.0
14333,49.0,0.0,30.0,4.0,0.0
14334,71.0,26.0,30.0,0.0,0.0
14335,71.0,0.0,30.0,1.0,0.0
14336,64.0,4.0,30.0,2.0,0.0
14337,50.0,0.0,30.0,3.0,0.0
14338,66.0,0.0,30.0,2.0,0.0
14339,50.0,0.0,30.0,4.0,0.0
14340,52.0,0.0,30.0,3.0,0.0
14341,71.0,26.0,30.0,1.0,0.0
14342,71.0,0.0,30.0,0.0,0.0
14343,52.0,0.0,60.0,4.0,0.0
14344,67.0,0.0,30.0,2.0,0.0
14345,61.0,0.0,15.0,4.0,0.0
14346,71.0,26.0,30.0,0.0,0.0
14347,67.0,0.0,15.0,4.0,0.0
14348,50.0,4.0,30.0,3.0,0.0
14349,71.0,30.0,15.0,4.0,0.0
14350,66.0,0.0,30.0,2.0,0.0
14351,50.0,0.0,30.0,4.0,0.0
14352,71.0,0.0,30.0,1.0,0.0
14353,67.0,0.0,30.0,2.0,0.0
14354,52.0,30.0,30.0,4.0,0.0
14355,52.0,0.0,30.0,3.0,0.0
14356,71.0,15.0,30.0,0.0,0.0
14357,71.0,0.0,30.0,1.0,0.0
14358,61.0,15.0,40.0,2.0,0.0
14359,61.0,0.0,15.0,4.0,0.0
14360,54.0,0.0,60.0,4.0,0.0
14361,71.0,0.0,30.0,4.0,0.0
14362,54.0,0.0,40.0,3.0,0.0
14363,69.0,0.0,30.0,4.0,0.0
14364,69.0,30.0,30.0,0.0,0.0
14365,69.0,0.0,30.0,1.0,0.0
14366,71.0,0.0,30.0,1.0,0.0
14367,71.0,0.0,30.0,4.0,0.0
14368,50.0,0.0,30.0,4.0,0.0
14369,66.0,0.0,30.0,2.0,0.0
14370,50.0,30.0,30.0,3.0,0.0
14371,71.0,0.0,30.0,0.0,0.0
14372,52.0,45.0,30.0,4.0,0.0
14373,73.0,0.0,30.0,4.0,0.0
14374,73.0,0.0,30.0,0.0,0.0
14375,73.0,0.0,30.0,1.0,0.0
14376,68.0,0.0,30.0,2.0,0.0
14377,52.0,0.0,30.0,3.0,0.0
14378,69.0,0.0,40.0,2.0,0.0
14379,74.0,0.0,40.0,0.0,0.0
14380,74.0,15.0,40.0,1.0,0.0
14381,54.0,30.0,60.0,4.0,0.0
14382,54.0,0.0,40.0,3.0,0.0
14383,74.0,0.0,60.0,4.0,0.0
14384,74.0,15.0,40.0,1.0,0.0
14385,74.0,0.0,40.0,0.0,0.0
14386,52.0,15.0,30.0,4.0,0.0
14387,66.0,0.0,60.0,4.0,0.0
14388,68.0,0.0,30.0,2.0,0.0
14389,52.0,0.0,30.0,3.0,0.0
14390,69.0,0.0,60.0,4.0,0.0
14391,54.0,45.0,30.0,3.0,0.0
14392,69.0,0.0,30.0,2.0,0.0
14393,54.0,0.0,30.0,4.0,0.0
14394,56.0,0.0,60.0,4.0,0.0
14395,71.0,0.0,40.0,2.0,0.0
14396,74.0,0.0,15.0,4.0,0.0
14397,74.0,0.0,40.0,1.0,0.0
14398,56.0,0.0,40.0,3.0,0.0
14399,74.0,15.0,40.0,0.0,0.0
14400,74.0,30.0,15.0,4.0,0.0
14401,71.0,0.0,15.0,4.0,0.0
14402,64.0,0.0,15.0,4.0,0.0
14403,54.0,0.0,30.0,4.0,0.0
14404,54.0,15.0,30.0,3.0,0.0
14405,69.0,0.0,30.0,2.0,0.0
14406,74.0,0.0,40.0,0.0,0.0
14407,74.0,15.0,40.0,1.0,0.0
14408,56.0,0.0,30.0,4.0,0.0
14409,56.0,0.0,30.0,3.0,0.0
14410,71.0,30.0,30.0,2.0,0.0
14411,57.0,0.0,40.0,3.0,0.0
14412,74.0,0.0,15.0,4.0,0.0
14413,57.0,0.0,60.0,4.0,0.0
14414,64.0,0.0,15.0,4.0,0.0
14415,74.0,15.0,30.0,0.0,0.0
14416,64.0,15.0,40.0,2.0,0.0
14417,74.0,0.0,30.0,1.0,0.0
14418,73.0,0.0,30.0,1.0,0.0
14419,73.0,0.0,30.0,4.0,0.0
14420,73.0,30.0,30.0,0.0,0.0
14421,54.0,30.0,30.0,3.0,0.0
14422,69.0,0.0,30.0,2.0,0.0
14423,74.0,0.0,30.0,1.0,0.0
14424,54.0,0.0,30.0,4.0,0.0
14425,74.0,0.0,30.0,4.0,0.0
14426,74.0,0.0,30.0,0.0,0.0
14427,76.0,0.0,30.0,4.0,0.0
14428,71.0,0.0,30.0,2.0,0.0
14429,76.0,0.0,30.0,0.0,0.0
14430,56.0,45.0,30.0,4.0,0.0
14431,56.0,0.0,30.0,3.0,0.0
14432,76.0,0.0,30.0,1.0,0.0
14433,73.0,0.0,40.0,2.0,0.0
14434,78.0,0.0,40.0,1.0,0.0
14435,57.0,0.0,40.0,3.0,0.0
14436,78.0,15.0,40.0,0.0,0.0
14437,57.0,0.0,60.0,4.0,0.0
14438,78.0,15.0,40.0,1.0,0.0
14439,78.0,30.0,15.0,4.0,0.0
14440,73.0,0.0,60.0,4.0,0.0
14441,56.0,0.0,30.0,4.0,0.0
14442,69.0,0.0,60.0,4.0,0.0
14443,78.0,0.0,40.0,0.0,0.0
14444,56.0,0.0,30.0,3.0,0.0
14445,71.0,15.0,30.0,2.0,0.0
14446,57.0,45.0,30.0,4.0,0.0
14447,73.0,0.0,30.0,2.0,0.0
14448,57.0,0.0,30.0,3.0,0.0
14449,59.0,30.0,60.0,4.0,0.0
14450,78.0,15.0,40.0,0.0,0.0
14451,68.0,0.0,60.0,4.0,0.0
14452,78.0,0.0,40.0,1.0,0.0
14453,74.0,0.0,40.0,2.0,0.0
14454,59.0,0.0,40.0,3.0,0.0
14455,78.0,15.0,40.0,0.0,0.0
14456,78.0,0.0,40.0,1.0,0.0
14457,74.0,0.0,15.0,4.0,0.0
14458,57.0,15.0,30.0,4.0,0.0
14459,78.0,0.0,15.0,4.0,0.0
14460,57.0,0.0,30.0,3.0,0.0
14461,73.0,0.0,30.0,2.0,0.0
14462,59.0,0.0,30.0,3.0,0.0
14463,59.0,0.0,30.0,4.0,0.0
14464,74.0,45.0,30.0,2.0,0.0
14465,68.0,0.0,15.0,4.0,0.0
14466,78.0,0.0,40.0,0.0,0.0
14467,61.0,0.0,60.0,4.0,0.0
14468,61.0,15.0,40.0,3.0,0.0
14469,78.0,30.0,60.0,4.0,0.0
14470,68.0,0.0,120.0,2.0,0.0
14471,78.0,0.0,40.0,1.0,0.0
14472,76.0,0.0,30.0,4.0,0.0
14473,49.0,45.0,60.0,4.0,0.0
14474,76.0,0.0,30.0,1.0,0.0
14475,49.0,15.0,40.0,3.0,0.0
14476,76.0,15.0,30.0,0.0,0.0
14477,74.0,0.0,30.0,0.0,0.0
14478,74.0,0.0,30.0,1.0,0.0
14479,74.0,0.0,30.0,4.0,0.0
14480,76.0,0.0,60.0,4.0,0.0
14481,76.0,0.0,40.0,0.0,0.0
14482,61.0,30.0,60.0,4.0,0.0
14483,76.0,15.0,40.0,1.0,0.0
14484,61.0,0.0,40.0,3.0,0.0
14485,68.0,0.0,30.0,2.0,0.0
14486,59.0,0.0,60.0,4.0,0.0
14487,73.0,0.0,30.0,4.0,0.0
14488,73.0,0.0,30.0,1.0,0.0
14489,70.0,0.0,30.0,2.0,0.0
14490,59.0,15.0,40.0,3.0,0.0
14491,73.0,15.0,30.0,0.0,0.0
14492,71.0,0.0,30.0,2.0,0.0
14493,74.0,30.0,30.0,0.0,0.0
14494,74.0,0.0,30.0,4.0,0.0
14495,74.0,0.0,30.0,1.0,0.0
14496,76.0,15.0,40.0,1.0,0.0
14497,58.0,30.0,60.0,4.0,0.0
14498,73.0,15.0,30.0,2.0,0.0
14499,58.0,0.0,40.0,3.0,0.0
14500,76.0,0.0,40.0,0.0,0.0
14501,71.0,0.0,30.0,2.0,0.0
14502,76.0,0.0,15.0,4.0,0.0
14503,54.0,0.0,60.0,4.0,0.0
14504,70.0,15.0,30.0,2.0,0.0
14505,76.0,0.0,40.0,0.0,0.0
14506,54.0,15.0,40.0,3.0,0.0
14507,76.0,0.0,40.0,1.0,0.0
14508,68.0,45.0,30.0,2.0,0.0
14509,76.0,0.0,40.0,1.0,0.0
14510,76.0,0.0,60.0,4.0,0.0
14511,59.0,30.0,60.0,4.0,0.0
14512,66.0,0.0,120.0,2.0,0.0
14513,59.0,0.0,40.0,3.0,0.0
14514,76.0,15.0,40.0,0.0,0.0
14515,74.0,0.0,30.0,1.0,0.0
14516,47.0,0.0,60.0,4.0,0.0
14517,74.0,0.0,30.0,4.0,0.0
14518,47.0,15.0,40.0,3.0,0.0
14519,74.0,15.0,30.0,0.0,0.0
14520,73.0,0.0,30.0,1.0,0.0
14521,73.0,0.0,30.0,4.0,0.0
14522,73.0,45.0,30.0,0.0,0.0
14523,59.0,30.0,60.0,4.0,0.0
14524,74.0,0.0,60.0,4.0,0.0
14525,74.0,0.0,40.0,0.0,0.0
14526,74.0,0.0,40.0,1.0,0.0
14527,59.0,15.0,40.0,3.0,0.0
14528,71.0,15.0,30.0,1.0,0.0
14529,57.0,30.0,60.0,4.0,0.0
14530,71.0,0.0,30.0,4.0,0.0
14531,57.0,15.0,40.0,3.0,0.0
14532,71.0,0.0,30.0,0.0,0.0
14533,62.0,0.0,30.0,2.0,0.0
14534,73.0,0.0,30.0,0.0,0.0
14535,64.0,0.0,30.0,2.0,0.0
14536,73.0,0.0,30.0,4.0,0.0
14537,73.0,0.0,30.0,1.0,0.0
14538,74.0,15.0,30.0,4.0,0.0
14539,66.0,15.0,40.0,2.0,0.0
14540,74.0,0.0,40.0,0.0,0.0
14541,55.0,30.0,60.0,4.0,0.0
14542,55.0,0.0,40.0,3.0,0.0
14543,74.0,0.0,40.0,1.0,0.0
14544,71.0,0.0,30.0,4.0,0.0
14545,76.0,15.0,30.0,1.0,0.0
14546,54.0,15.0,40.0,3.0,0.0
14547,54.0,0.0,60.0,4.0,0.0
14548,76.0,0.0,30.0,0.0,0.0
14549,59.0,0.0,40.0,2.0,0.0
14550,76.0,0.0,30.0,4.0,0.0
14551,78.0,30.0,30.0,4.0,0.0
14552,78.0,0.0,30.0,0.0,0.0
14553,78.0,0.0,30.0,1.0,0.0
14554,79.0,15.0,30.0,4.0,0.0
14555,52.0,0.0,60.0,4.0,0.0
14556,79.0,0.0,40.0,0.0,0.0
14557,52.0,0.0,40.0,3.0,0.0
14558,71.0,15.0,40.0,2.0,0.0
14559,79.0,0.0,40.0,1.0,0.0
14560,78.0,30.0,30.0,4.0,0.0
14561,76.0,0.0,30.0,1.0,0.0
14562,54.0,0.0,30.0,4.0,0.0
14563,76.0,0.0,30.0,4.0,0.0
14564,67.0,0.0,30.0,2.0,0.0
14565,76.0,0.0,30.0,0.0,0.0
14566,54.0,30.0,30.0,3.0,0.0
14567,74.0,30.0,30.0,1.0,0.0
14568,74.0,0.0,30.0,4.0,0.0
14569,55.0,0.0,30.0,4.0,0.0
14570,74.0,0.0,30.0,0.0,0.0
14571,66.0,0.0,30.0,2.0,0.0
14572,55.0,0.0,30.0,3.0,0.0
14573,73.0,0.0,40.0,1.0,0.0
14574,64.0,0.0,40.0,2.0,0.0
14575,57.0,0.0,40.0,3.0,0.0
14576,73.0,15.0,40.0,0.0,0.0
14577,73.0,15.0,30.0,4.0,0.0
14578,57.0,0.0,60.0,4.0,0.0
14579,71.0,30.0,30.0,4.0,0.0
14580,69.0,0.0,30.0,0.0,0.0
14581,69.0,15.0,30.0,4.0,0.0
14582,55.0,15.0,40.0,3.0,0.0
14583,55.0,0.0,60.0,4.0,0.0
14584,69.0,0.0,30.0,1.0,0.0
14585,61.0,0.0,30.0,2.0,0.0
14586,62.0,0.0,30.0,2.0,0.0
14587,71.0,0.0,30.0,1.0,0.0
14588,71.0,0.0,30.0,0.0,0.0
14589,71.0,30.0,30.0,4.0,0.0
14590,73.0,15.0,30.0,4.0,0.0
14591,54.0,0.0,60.0,4.0,0.0
14592,64.0,0.0,40.0,2.0,0.0
14593,54.0,0.0,40.0,3.0,0.0
14594,73.0,15.0,40.0,0.0,0.0
14595,73.0,0.0,40.0,1.0,0.0
14596,69.0,30.0,30.0,4.0,0.0
14597,74.0,0.0,30.0,4.0,0.0
14598,52.0,0.0,60.0,4.0,0.0
14599,74.0,0.0,30.0,1.0,0.0
14600,52.0,0.0,40.0,3.0,0.0
14601,57.0,15.0,40.0,2.0,0.0
14602,74.0,15.0,30.0,0.0,0.0
14603,76.0,0.0,30.0,0.0,0.0
14604,76.0,0.0,30.0,1.0,0.0
14605,76.0,30.0,30.0,4.0,0.0
14606,50.0,15.0,40.0,3.0,0.0
14607,78.0,0.0,40.0,0.0,0.0
14608,69.0,0.0,40.0,2.0,0.0
14609,78.0,15.0,30.0,4.0,0.0
14610,50.0,30.0,60.0,4.0,0.0
14611,78.0,0.0,40.0,1.0,0.0
14612,76.0,0.0,30.0,4.0,0.0
14613,66.0,0.0,30.0,2.0,0.0
14614,74.0,0.0,30.0,0.0,0.0
14615,74.0,0.0,30.0,1.0,0.0
14616,52.0,30.0,30.0,3.0,0.0
14617,74.0,0.0,30.0,4.0,0.0
14618,52.0,0.0,30.0,4.0,0.0
14619,64.0,0.0,30.0,2.0,0.0
14620,73.0,0.0,30.0,0.0,0.0
14621,73.0,45.0,30.0,1.0,0.0
14622,73.0,0.0,30.0,4.0,0.0
14623,54.0,0.0,30.0,4.0,0.0
14624,54.0,0.0,30.0,3.0,0.0
14625,71.0,0.0,60.0,4.0,0.0
14626,55.0,30.0,60.0,4.0,0.0
14627,71.0,0.0,40.0,0.0,0.0
14628,62.0,0.0,40.0,2.0,0.0
14629,55.0,0.0,40.0,3.0,0.0
14630,71.0,15.0,40.0,1.0,0.0
14631,83.0,0.0,30.0,0.0,0.0
14632,62.0,15.0,40.0,2.0,0.0
14633,83.0,15.0,30.0,1.0,0.0
14634,54.0,0.0,40.0,3.0,0.0
14635,54.0,0.0,60.0,4.0,0.0
14636,83.0,0.0,30.0,4.0,0.0
14637,82.0,45.0,30.0,4.0,0.0
14638,82.0,0.0,30.0,0.0,0.0
14639,82.0,0.0,30.0,1.0,0.0
14640,83.0,45.0,60.0,4.0,0.0
14641,52.0,0.0,60.0,4.0,0.0
14642,83.0,0.0,40.0,0.0,0.0
14643,67.0,0.0,40.0,2.0,0.0
14644,83.0,15.0,40.0,1.0,0.0
14645,52.0,0.0,40.0,3.0,0.0
14646,79.0,0.0,40.0,0.0,0.0
14647,50.0,0.0,40.0,3.0,0.0
14648,79.0,0.0,60.0,4.0,0.0
14649,50.0,15.0,60.0,4.0,0.0
14650,79.0,15.0,40.0,1.0,0.0
14651,71.0,0.0,40.0,2.0,0.0
14652,49.0,0.0,60.0,4.0,0.0
14653,76.0,15.0,15.0,4.0,0.0
14654,67.0,45.0,120.0,2.0,0.0
14655,76.0,45.0,60.0,0.0,0.0
14656,76.0,0.0,60.0,1.0,0.0
14657,49.0,15.0,40.0,3.0,0.0
14658,78.0,15.0,15.0,4.0,0.0
14659,76.0,0.0,30.0,4.0,0.0
14660,75.0,0.0,60.0,4.0,0.0
14661,47.0,0.0,60.0,4.0,0.0
14662,47.0,15.0,40.0,3.0,0.0
14663,75.0,0.0,60.0,1.0,0.0
14664,75.0,0.0,60.0,0.0,0.0
14665,76.0,0.0,40.0,0.0,0.0
14666,46.0,15.0,40.0,3.0,0.0
14667,76.0,0.0,40.0,1.0,0.0
14668,46.0,30.0,60.0,4.0,0.0
14669,76.0,0.0,60.0,4.0,0.0
14670,47.0,0.0,60.0,4.0,0.0
14671,79.0,0.0,30.0,4.0,0.0
14672,64.0,0.0,30.0,2.0,0.0
14673,47.0,15.0,40.0,3.0,0.0
14674,79.0,15.0,30.0,0.0,0.0
14675,79.0,0.0,30.0,1.0,0.0
14676,78.0,45.0,30.0,0.0,0.0
14677,78.0,0.0,30.0,4.0,0.0
14678,78.0,0.0,30.0,1.0,0.0
14679,63.0,0.0,30.0,2.0,0.0
14680,79.0,0.0,40.0,1.0,0.0
14681,79.0,30.0,60.0,4.0,0.0
14682,64.0,0.0,40.0,2.0,0.0
14683,79.0,0.0,40.0,0.0,0.0
14684,49.0,0.0,60.0,4.0,0.0
14685,49.0,15.0,40.0,3.0,0.0
14686,76.0,15.0,40.0,0.0,0.0
14687,50.0,0.0,60.0,4.0,0.0
14688,50.0,0.0,40.0,3.0,0.0
14689,76.0,0.0,60.0,4.0,0.0
14690,76.0,0.0,40.0,1.0,0.0
14691,67.0,15.0,30.0,2.0,0.0
14692,66.0,45.0,30.0,2.0,0.0
14693,72.0,45.0,60.0,4.0,0.0
14694,52.0,0.0,60.0,4.0,0.0
14695,67.0,0.0,40.0,2.0,0.0
14696,52.0,15.0,40.0,3.0,0.0
14697,72.0,0.0,60.0,0.0,0.0
14698,72.0,0.0,60.0,1.0,0.0
14699,71.0,45.0,60.0,0.0,0.0
14700,66.0,0.0,40.0,2.0,0.0
14701,71.0,0.0,60.0,1.0,0.0
14702,50.0,15.0,40.0,3.0,0.0
14703,50.0,0.0,60.0,4.0,0.0
14704,71.0,0.0,60.0,4.0,0.0
14705,67.0,0.0,40.0,2.0,0.0
14706,52.0,0.0,60.0,4.0,0.0
14707,72.0,30.0,60.0,4.0,0.0
14708,72.0,0.0,40.0,1.0,0.0
14709,72.0,15.0,40.0,0.0,0.0
14710,52.0,0.0,40.0,3.0,0.0
14711,54.0,0.0,60.0,4.0,0.0
14712,76.0,15.0,30.0,4.0,0.0
14713,69.0,0.0,40.0,2.0,0.0
14714,76.0,0.0,30.0,0.0,0.0
14715,54.0,15.0,40.0,3.0,0.0
14716,76.0,0.0,30.0,1.0,0.0
14717,75.0,0.0,30.0,1.0,0.0
14718,75.0,45.0,30.0,4.0,0.0
14719,75.0,0.0,30.0,0.0,0.0
14720,71.0,0.0,40.0,2.0,0.0
14721,76.0,0.0,60.0,4.0,0.0
14722,55.0,0.0,40.0,3.0,0.0
14723,55.0,45.0,60.0,4.0,0.0
14724,76.0,15.0,40.0,0.0,0.0
14725,76.0,0.0,40.0,1.0,0.0
14726,67.0,0.0,40.0,2.0,0.0
14727,52.0,0.0,40.0,3.0,0.0
14728,52.0,45.0,60.0,4.0,0.0
14729,72.0,0.0,60.0,4.0,0.0
14730,72.0,0.0,40.0,1.0,0.0
14731,72.0,15.0,40.0,0.0,0.0
14732,70.0,0.0,40.0,1.0,0.0
14733,61.0,0.0,40.0,2.0,0.0
14734,70.0,30.0,60.0,4.0,0.0
14735,70.0,15.0,40.0,0.0,0.0
14736,54.0,0.0,60.0,4.0,0.0
14737,54.0,0.0,120.0,3.0,0.0
14738,64.0,15.0,30.0,4.0,0.0
14739,79.0,0.0,30.0,4.0,0.0
14740,70.0,15.0,40.0,2.0,0.0
14741,79.0,0.0,30.0,0.0,0.0
14742,79.0,0.0,30.0,1.0,0.0
14743,78.0,0.0,30.0,1.0,0.0
14744,62.0,0.0,30.0,4.0,0.0
14745,78.0,45.0,30.0,4.0,0.0
14746,78.0,0.0,30.0,0.0,0.0
14747,64.0,0.0,60.0,4.0,0.0
14748,79.0,30.0,60.0,4.0,0.0
14749,79.0,0.0,40.0,1.0,0.0
14750,79.0,0.0,40.0,0.0,0.0
14751,70.0,15.0,40.0,2.0,0.0
14752,70.0,15.0,40.0,2.0,0.0
14753,76.0,0.0,30.0,1.0,0.0
14754,76.0,0.0,30.0,4.0,0.0
14755,61.0,0.0,30.0,4.0,0.0
14756,76.0,15.0,30.0,0.0,0.0
14757,59.0,0.0,30.0,4.0,0.0
14758,74.0,0.0,30.0,4.0,0.0
14759,74.0,45.0,30.0,1.0,0.0
14760,74.0,0.0,30.0,0.0,0.0
14761,76.0,0.0,40.0,1.0,0.0
14762,70.0,0.0,40.0,2.0,0.0
14763,76.0,0.0,60.0,4.0,0.0
14764,61.0,45.0,60.0,4.0,0.0
14765,76.0,15.0,40.0,0.0,0.0
14766,52.0,0.0,60.0,3.0,0.0
14767,70.0,0.0,60.0,4.0,0.0
14768,52.0,45.0,60.0,4.0,0.0
14769,70.0,0.0,40.0,0.0,0.0
14770,70.0,15.0,40.0,1.0,0.0
14771,61.0,0.0,40.0,2.0,0.0
14772,71.0,0.0,40.0,1.0,0.0
14773,50.0,0.0,40.0,3.0,0.0
14774,66.0,15.0,40.0,2.0,0.0
14775,71.0,0.0,40.0,0.0,0.0
14776,71.0,30.0,60.0,4.0,0.0
14777,50.0,0.0,60.0,4.0,0.0
14778,62.0,0.0,60.0,4.0,0.0
14779,49.0,15.0,30.0,4.0,0.0
14780,62.0,0.0,40.0,1.0,0.0
14781,62.0,15.0,40.0,2.0,0.0
14782,62.0,0.0,40.0,0.0,0.0
14783,49.0,0.0,30.0,3.0,0.0
14784,47.0,45.0,30.0,3.0,0.0
14785,47.0,0.0,30.0,4.0,0.0
14786,59.0,15.0,40.0,2.0,0.0
14787,64.0,0.0,40.0,1.0,0.0
14788,64.0,30.0,60.0,4.0,0.0
14789,64.0,0.0,40.0,0.0,0.0
14790,55.0,0.0,60.0,4.0,0.0
14791,55.0,0.0,40.0,3.0,0.0
14792,71.0,0.0,40.0,1.0,0.0
14793,71.0,0.0,60.0,4.0,0.0
14794,64.0,0.0,40.0,2.0,0.0
14795,54.0,15.0,30.0,3.0,0.0
14796,54.0,0.0,30.0,4.0,0.0
14797,71.0,15.0,40.0,0.0,0.0
14798,52.0,45.0,30.0,4.0,0.0
14799,52.0,0.0,30.0,3.0,0.0
14800,54.0,15.0,40.0,3.0,0.0
14801,66.0,0.0,40.0,0.0,0.0
14802,66.0,0.0,60.0,4.0,0.0
14803,66.0,0.0,40.0,1.0,0.0
14804,54.0,45.0,60.0,4.0,0.0
14805,61.0,0.0,40.0,2.0,0.0
14806,70.0,0.0,40.0,1.0,0.0
14807,42.0,0.0,40.0,3.0,0.0
14808,42.0,45.0,60.0,4.0,0.0
14809,70.0,0.0,60.0,4.0,0.0
14810,66.0,0.0,40.0,2.0,0.0
14811,70.0,15.0,40.0,0.0,0.0
14812,47.0,15.0,120.0,3.0,0.0
14813,71.0,0.0,40.0,0.0,0.0
14814,62.0,0.0,40.0,2.0,0.0
14815,47.0,0.0,120.0,4.0,0.0
14816,59.0,0.0,120.0,4.0,0.0
14817,71.0,15.0,40.0,1.0,0.0
14818,71.0,30.0,30.0,4.0,0.0
14819,62.0,0.0,30.0,2.0,0.0
14820,70.0,0.0,30.0,4.0,0.0
14821,62.0,15.0,30.0,1.0,0.0
14822,62.0,0.0,30.0,0.0,0.0
14823,71.0,0.0,30.0,4.0,0.0
14824,64.0,0.0,30.0,0.0,0.0
14825,64.0,30.0,30.0,1.0,0.0
14826,64.0,0.0,30.0,2.0,0.0
14827,74.0,15.0,30.0,4.0,0.0
14828,66.0,15.0,40.0,2.0,0.0
14829,59.0,30.0,120.0,3.0,0.0
14830,66.0,0.0,40.0,0.0,0.0
14831,66.0,0.0,40.0,1.0,0.0
14832,71.0,30.0,30.0,4.0,0.0
14833,64.0,15.0,40.0,0.0,0.0
14834,64.0,0.0,40.0,2.0,0.0
14835,70.0,15.0,30.0,4.0,0.0
14836,64.0,0.0,40.0,1.0,0.0
14837,71.0,0.0,30.0,4.0,0.0
14838,62.0,15.0,40.0,0.0,0.0
14839,66.0,15.0,30.0,4.0,0.0
14840,62.0,0.0,40.0,1.0,0.0
14841,62.0,0.0,40.0,2.0,0.0
14842,71.0,30.0,30.0,4.0,0.0
14843,61.0,0.0,40.0,1.0,0.0
14844,61.0,15.0,40.0,0.0,0.0
14845,70.0,15.0,30.0,4.0,0.0
14846,61.0,0.0,40.0,2.0,0.0
14847,71.0,30.0,30.0,4.0,0.0
14848,59.0,11.0,90.0,0.0,0.0
14849,59.0,0.0,120.0,1.0,0.0
14850,59.0,15.0,120.0,2.0,0.0
14851,59.0,30.0,30.0,4.0,0.0
14852,71.0,19.0,30.0,4.0,0.0
14853,70.0,0.0,30.0,4.0,0.0
14854,59.0,15.0,30.0,3.0,0.0
14855,71.0,30.0,30.0,4.0,0.0
14856,57.0,0.0,30.0,3.0,0.0
14857,71.0,30.0,120.0,1.0,0.0
14858,55.0,15.0,40.0,3.0,0.0
14859,74.0,15.0,30.0,4.0,0.0
14860,71.0,0.0,120.0,0.0,0.0
14861,71.0,0.0,120.0,2.0,0.0
14862,71.0,30.0,30.0,4.0,0.0
14863,70.0,15.0,30.0,4.0,0.0
14864,54.0,15.0,40.0,3.0,0.0
14865,71.0,0.0,30.0,4.0,0.0
14866,52.0,15.0,40.0,3.0,0.0
14867,66.0,15.0,30.0,4.0,0.0
14868,71.0,30.0,30.0,4.0,0.0
14869,50.0,15.0,40.0,3.0,0.0
14870,70.0,15.0,30.0,4.0,0.0
14871,71.0,30.0,30.0,4.0,0.0
14872,61.0,30.0,30.0,4.0,0.0
14873,49.0,15.0,120.0,3.0,0.0
14874,71.0,30.0,30.0,4.0,0.0
14875,64.0,0.0,30.0,1.0,0.0
14876,70.0,15.0,30.0,4.0,0.0
14877,64.0,0.0,30.0,2.0,0.0
14878,64.0,0.0,30.0,0.0,0.0
14879,66.0,0.0,30.0,1.0,0.0
14880,66.0,0.0,30.0,2.0,0.0
14881,66.0,0.0,30.0,0.0,0.0
14882,71.0,30.0,30.0,4.0,0.0
14883,67.0,0.0,40.0,1.0,0.0
14884,67.0,0.0,40.0,0.0,0.0
14885,61.0,30.0,120.0,3.0,0.0
14886,76.0,15.0,30.0,4.0,0.0
14887,67.0,15.0,40.0,2.0,0.0
14888,71.0,30.0,30.0,4.0,0.0
14889,66.0,0.0,40.0,2.0,0.0
14890,66.0,0.0,40.0,0.0,0.0
14891,66.0,15.0,40.0,1.0,0.0
14892,70.0,15.0,30.0,4.0,0.0
14893,71.0,0.0,30.0,4.0,0.0
14894,64.0,0.0,40.0,1.0,0.0
14895,64.0,15.0,40.0,2.0,0.0
14896,64.0,0.0,40.0,0.0,0.0
14897,66.0,15.0,30.0,4.0,0.0
14898,71.0,30.0,30.0,4.0,0.0
14899,62.0,0.0,40.0,1.0,0.0
14900,62.0,15.0,40.0,0.0,0.0
14901,70.0,15.0,30.0,4.0,0.0
14902,62.0,0.0,40.0,2.0,0.0
14903,71.0,30.0,30.0,4.0,0.0
14904,61.0,15.0,120.0,1.0,0.0
14905,61.0,30.0,30.0,4.0,0.0
14906,61.0,0.0,120.0,2.0,0.0
14907,61.0,0.0,120.0,0.0,0.0
14908,71.0,30.0,30.0,4.0,0.0
14909,70.0,0.0,30.0,4.0,0.0
14910,61.0,15.0,30.0,3.0,0.0
14911,59.0,30.0,30.0,3.0,0.0
14912,71.0,0.0,30.0,4.0,0.0
14913,73.0,0.0,120.0,1.0,0.0
14914,58.0,15.0,40.0,3.0,0.0
14915,73.0,0.0,120.0,0.0,0.0
14916,73.0,30.0,120.0,2.0,0.0
14917,76.0,15.0,30.0,4.0,0.0
14918,71.0,30.0,30.0,4.0,0.0
14919,70.0,15.0,30.0,4.0,0.0
14920,56.0,15.0,40.0,3.0,0.0
14921,71.0,0.0,30.0,4.0,0.0
14922,54.0,15.0,40.0,3.0,0.0
14923,66.0,15.0,30.0,4.0,0.0
14924,71.0,30.0,30.0,4.0,0.0
14925,52.0,15.0,40.0,3.0,0.0
14926,70.0,15.0,30.0,4.0,0.0
14927,71.0,30.0,30.0,4.0,0.0
14928,62.0,30.0,30.0,4.0,0.0
14929,50.0,15.0,120.0,3.0,0.0
14930,71.0,30.0,30.0,4.0,0.0
14931,74.0,0.0,30.0,0.0,0.0
14932,74.0,0.0,30.0,1.0,0.0
14933,70.0,15.0,30.0,4.0,0.0
14934,76.0,0.0,30.0,0.0,0.0
14935,76.0,0.0,30.0,1.0,0.0
14936,71.0,30.0,30.0,4.0,0.0
14937,78.0,15.0,30.0,4.0,0.0
14938,62.0,0.0,120.0,3.0,0.0
14939,78.0,0.0,40.0,0.0,0.0
14940,78.0,15.0,40.0,1.0,0.0
14941,71.0,30.0,30.0,4.0,0.0
14942,76.0,15.0,40.0,0.0,0.0
14943,76.0,0.0,40.0,1.0,0.0
14944,70.0,15.0,30.0,4.0,0.0
14945,71.0,30.0,30.0,4.0,0.0
14946,74.0,15.0,40.0,1.0,0.0
14947,74.0,0.0,40.0,0.0,0.0
14948,66.0,15.0,30.0,4.0,0.0
14949,71.0,30.0,30.0,4.0,0.0
14950,73.0,0.0,40.0,1.0,0.0
14951,70.0,15.0,30.0,4.0,0.0
14952,73.0,15.0,40.0,0.0,0.0
14953,71.0,30.0,30.0,4.0,0.0
14954,71.0,0.0,40.0,1.0,0.0
14955,62.0,15.0,30.0,4.0,0.0
14956,71.0,15.0,40.0,0.0,0.0
14957,71.0,30.0,30.0,4.0,0.0
14958,66.0,0.0,30.0,0.0,0.0
14959,62.0,0.0,30.0,3.0,0.0
14960,70.0,0.0,30.0,4.0,0.0
14961,66.0,30.0,30.0,1.0,0.0
14962,66.0,0.0,30.0,2.0,0.0
14963,61.0,30.0,30.0,3.0,0.0
14964,64.0,0.0,30.0,2.0,0.0
14965,71.0,0.0,30.0,4.0,0.0
14966,64.0,0.0,30.0,0.0,0.0
14967,64.0,0.0,30.0,1.0,0.0
14968,62.0,0.0,40.0,1.0,0.0
14969,62.0,15.0,40.0,2.0,0.0
14970,62.0,0.0,40.0,0.0,0.0
14971,59.0,0.0,40.0,3.0,0.0
14972,78.0,15.0,30.0,4.0,0.0
14973,71.0,30.0,30.0,4.0,0.0
14974,61.0,0.0,40.0,2.0,0.0
14975,57.0,15.0,40.0,3.0,0.0
14976,61.0,0.0,40.0,1.0,0.0
14977,70.0,15.0,30.0,4.0,0.0
14978,61.0,0.0,40.0,0.0,0.0
14979,71.0,30.0,30.0,4.0,0.0
14980,66.0,15.0,30.0,4.0,0.0
14981,59.0,0.0,40.0,1.0,0.0
14982,59.0,15.0,40.0,0.0,0.0
14983,59.0,0.0,40.0,2.0,0.0
14984,55.0,0.0,40.0,3.0,0.0
14985,71.0,30.0,30.0,4.0,0.0
14986,78.0,0.0,40.0,1.0,0.0
14987,70.0,15.0,30.0,4.0,0.0
14988,54.0,15.0,40.0,3.0,0.0
14989,78.0,0.0,40.0,0.0,0.0
14990,63.0,0.0,40.0,2.0,0.0
14991,71.0,30.0,30.0,4.0,0.0
14992,64.0,0.0,120.0,2.0,0.0
14993,79.0,0.0,40.0,1.0,0.0
14994,64.0,15.0,30.0,4.0,0.0
14995,79.0,15.0,40.0,0.0,0.0
14996,52.0,15.0,120.0,3.0,0.0
14997,71.0,30.0,30.0,4.0,0.0
14998,76.0,15.0,30.0,0.0,0.0
14999,76.0,0.0,30.0,1.0,0.0
15000,70.0,0.0,30.0,4.0,0.0
15001,71.0,0.0,30.0,4.0,0.0
15002,78.0,0.0,30.0,1.0,0.0
15003,78.0,30.0,30.0,0.0,0.0
15004,64.0,0.0,120.0,3.0,0.0
15005,79.0,15.0,30.0,4.0,0.0
15006,79.0,15.0,40.0,0.0,0.0
15007,79.0,0.0,40.0,1.0,0.0
15008,71.0,30.0,30.0,4.0,0.0
15009,70.0,15.0,30.0,4.0,0.0
15010,78.0,0.0,40.0,1.0,0.0
15011,78.0,15.0,40.0,0.0,0.0
15012,71.0,30.0,30.0,4.0,0.0
15013,76.0,15.0,40.0,0.0,0.0
15014,76.0,0.0,40.0,1.0,0.0
15015,79.0,15.0,30.0,4.0,0.0
15016,71.0,30.0,30.0,4.0,0.0
15017,70.0,15.0,30.0,4.0,0.0
15018,74.0,0.0,40.0,1.0,0.0
15019,74.0,15.0,40.0,0.0,0.0
15020,71.0,30.0,30.0,4.0,0.0
15021,64.0,15.0,30.0,4.0,0.0
15022,73.0,0.0,40.0,0.0,0.0
15023,73.0,15.0,40.0,1.0,0.0
15024,71.0,30.0,30.0,4.0,0.0
15025,67.0,0.0,30.0,2.0,0.0
15026,67.0,0.0,30.0,0.0,0.0
15027,70.0,0.0,30.0,4.0,0.0
15028,67.0,0.0,30.0,1.0,0.0
15029,64.0,30.0,30.0,3.0,0.0
15030,66.0,30.0,30.0,0.0,0.0
15031,66.0,0.0,30.0,1.0,0.0
15032,71.0,0.0,30.0,4.0,0.0
15033,66.0,0.0,30.0,2.0,0.0
15034,62.0,0.0,30.0,3.0,0.0
15035,61.0,0.0,40.0,3.0,0.0
15036,64.0,0.0,40.0,0.0,0.0
15037,64.0,15.0,40.0,2.0,0.0
15038,79.0,15.0,30.0,4.0,0.0
15039,64.0,0.0,40.0,1.0,0.0
15040,71.0,30.0,30.0,4.0,0.0
15041,62.0,15.0,40.0,1.0,0.0
15042,70.0,15.0,30.0,4.0,0.0
15043,62.0,0.0,40.0,2.0,0.0
15044,62.0,0.0,40.0,0.0,0.0
15045,59.0,0.0,40.0,3.0,0.0
15046,71.0,30.0,30.0,4.0,0.0
15047,61.0,0.0,40.0,2.0,0.0
15048,58.0,0.0,40.0,3.0,0.0
15049,79.0,15.0,30.0,4.0,0.0
15050,61.0,15.0,40.0,1.0,0.0
15051,61.0,0.0,40.0,0.0,0.0
15052,71.0,30.0,30.0,4.0,0.0
15053,83.0,0.0,40.0,1.0,0.0
15054,83.0,15.0,40.0,0.0,0.0
15055,64.0,0.0,40.0,2.0,0.0
15056,70.0,15.0,30.0,4.0,0.0
15057,56.0,0.0,40.0,3.0,0.0
15058,71.0,30.0,30.0,4.0,0.0
15059,82.0,0.0,40.0,0.0,0.0
15060,66.0,0.0,120.0,2.0,0.0
15061,82.0,15.0,40.0,1.0,0.0
15062,54.0,30.0,120.0,3.0,0.0
15063,64.0,15.0,30.0,4.0,0.0
15064,73.0,30.0,30.0,4.0,0.0
15065,82.0,30.0,30.0,4.0,0.0
15066,73.0,0.0,30.0,1.0,0.0
15067,76.0,0.0,30.0,0.0,0.0
15068,83.0,0.0,30.0,4.0,0.0
15069,74.0,0.0,30.0,0.0,0.0
15070,71.0,0.0,30.0,1.0,0.0
15071,82.0,15.0,30.0,4.0,0.0
15072,76.0,0.0,40.0,0.0,0.0
15073,73.0,15.0,40.0,1.0,0.0
15074,73.0,30.0,30.0,4.0,0.0
15075,73.0,30.0,30.0,0.0,0.0
15076,64.0,0.0,30.0,4.0,0.0
15077,70.0,0.0,30.0,1.0,0.0
15078,66.0,0.0,30.0,4.0,0.0
15079,68.0,0.0,30.0,1.0,0.0
15080,71.0,30.0,30.0,0.0,0.0
15081,70.0,0.0,40.0,1.0,0.0
15082,64.0,15.0,30.0,4.0,0.0
15083,73.0,15.0,40.0,0.0,0.0
15084,73.0,30.0,30.0,4.0,0.0
15085,76.0,0.0,40.0,1.0,0.0
15086,82.0,15.0,30.0,4.0,0.0
15087,73.0,0.0,40.0,2.0,0.0
15088,82.0,15.0,40.0,0.0,0.0
15089,73.0,30.0,30.0,4.0,0.0
15090,71.0,0.0,120.0,2.0,0.0
15091,83.0,0.0,40.0,0.0,0.0
15092,74.0,15.0,40.0,1.0,0.0
15093,65.0,15.0,30.0,4.0,0.0
15094,54.0,0.0,120.0,3.0,0.0
15095,74.0,30.0,30.0,4.0,0.0
15096,83.0,0.0,30.0,4.0,0.0
15097,74.0,0.0,30.0,0.0,0.0
15098,71.0,30.0,30.0,1.0,0.0
15099,85.0,0.0,30.0,4.0,0.0
15100,73.0,30.0,30.0,0.0,0.0
15101,70.0,0.0,30.0,1.0,0.0
15102,74.0,15.0,40.0,0.0,0.0
15103,83.0,15.0,30.0,4.0,0.0
15104,71.0,0.0,40.0,1.0,0.0
15105,74.0,30.0,30.0,4.0,0.0
15106,71.0,0.0,30.0,0.0,0.0
15107,68.0,30.0,30.0,1.0,0.0
15108,65.0,0.0,30.0,4.0,0.0
15109,70.0,0.0,30.0,0.0,0.0
15110,66.0,30.0,30.0,1.0,0.0
15111,66.0,0.0,30.0,4.0,0.0
15112,71.0,0.0,40.0,0.0,0.0
15113,65.0,15.0,30.0,4.0,0.0
15114,68.0,15.0,40.0,1.0,0.0
15115,74.0,30.0,30.0,4.0,0.0
15116,68.0,0.0,40.0,2.0,0.0
15117,74.0,0.0,40.0,1.0,0.0
15118,83.0,15.0,40.0,0.0,0.0
15119,83.0,15.0,30.0,4.0,0.0
15120,74.0,30.0,30.0,4.0,0.0
15121,66.0,15.0,30.0,4.0,0.0
15122,70.0,30.0,120.0,2.0,0.0
15123,54.0,0.0,120.0,3.0,0.0
15124,73.0,15.0,40.0,1.0,0.0
15125,76.0,0.0,40.0,0.0,0.0
15126,82.0,30.0,30.0,4.0,0.0
15127,73.0,30.0,30.0,0.0,0.0
15128,70.0,0.0,30.0,1.0,0.0
15129,88.0,0.0,30.0,4.0,0.0
15130,68.0,0.0,30.0,1.0,0.0
15131,90.0,0.0,30.0,4.0,0.0
15132,71.0,0.0,30.0,0.0,0.0
15133,70.0,0.0,40.0,1.0,0.0
15134,73.0,15.0,40.0,0.0,0.0
15135,88.0,15.0,30.0,4.0,0.0
15136,82.0,30.0,30.0,4.0,0.0
15137,73.0,0.0,30.0,4.0,0.0
15138,70.0,0.0,30.0,0.0,0.0
15139,66.0,30.0,30.0,1.0,0.0
15140,74.0,30.0,30.0,4.0,0.0
15141,64.0,0.0,30.0,1.0,0.0
15142,68.0,0.0,30.0,0.0,0.0
15143,66.0,0.0,40.0,1.0,0.0
15144,73.0,15.0,30.0,4.0,0.0
15145,70.0,15.0,40.0,0.0,0.0
15146,82.0,30.0,30.0,4.0,0.0
15147,76.0,0.0,40.0,0.0,0.0
15148,70.0,15.0,40.0,2.0,0.0
15149,73.0,0.0,40.0,1.0,0.0
15150,88.0,15.0,30.0,4.0,0.0
15151,82.0,30.0,30.0,4.0,0.0
15152,71.0,15.0,40.0,1.0,0.0
15153,71.0,15.0,30.0,4.0,0.0
15154,54.0,0.0,120.0,3.0,0.0
15155,66.0,0.0,120.0,2.0,0.0
15156,74.0,0.0,40.0,0.0,0.0
15157,78.0,30.0,30.0,4.0,0.0
15158,68.0,0.0,30.0,1.0,0.0
15159,71.0,0.0,30.0,0.0,0.0
15160,86.0,30.0,30.0,4.0,0.0
15161,88.0,30.0,30.0,4.0,0.0
15162,66.0,0.0,30.0,1.0,0.0
15163,70.0,0.0,30.0,0.0,0.0
15164,71.0,15.0,40.0,0.0,0.0
15165,68.0,0.0,40.0,1.0,0.0
15166,86.0,15.0,30.0,4.0,0.0
15167,77.0,30.0,30.0,4.0,0.0
15168,68.0,0.0,30.0,0.0,0.0
15169,71.0,30.0,30.0,4.0,0.0
15170,65.0,0.0,30.0,1.0,0.0
15171,66.0,30.0,30.0,0.0,0.0
15172,63.0,0.0,30.0,1.0,0.0
15173,73.0,0.0,30.0,4.0,0.0
15174,71.0,15.0,30.0,4.0,0.0
15175,65.0,15.0,40.0,1.0,0.0
15176,68.0,0.0,40.0,0.0,0.0
15177,77.0,30.0,30.0,4.0,0.0
15178,86.0,15.0,30.0,4.0,0.0
15179,71.0,0.0,40.0,1.0,0.0
15180,74.0,0.0,40.0,0.0,0.0
15181,66.0,15.0,40.0,2.0,0.0
15182,77.0,30.0,30.0,4.0,0.0
15183,66.0,0.0,40.0,2.0,0.0
15184,70.0,15.0,30.0,4.0,0.0
15185,54.0,0.0,120.0,3.0,0.0
15186,70.0,0.0,40.0,1.0,0.0
15187,76.0,15.0,40.0,0.0,0.0
15188,76.0,30.0,30.0,4.0,0.0
15189,70.0,0.0,30.0,0.0,0.0
15190,85.0,0.0,30.0,4.0,0.0
15191,66.0,30.0,30.0,1.0,0.0
15192,61.0,0.0,30.0,2.0,0.0
15193,86.0,0.0,30.0,4.0,0.0
15194,59.0,0.0,30.0,2.0,0.0
15195,64.0,0.0,30.0,1.0,0.0
15196,68.0,30.0,30.0,0.0,0.0
15197,61.0,0.0,40.0,2.0,0.0
15198,85.0,15.0,30.0,4.0,0.0
15199,66.0,0.0,40.0,1.0,0.0
15200,70.0,15.0,40.0,0.0,0.0
15201,76.0,30.0,30.0,4.0,0.0
15202,66.0,0.0,30.0,0.0,0.0
15203,61.0,0.0,30.0,1.0,0.0
15204,58.0,0.0,30.0,2.0,0.0
15205,70.0,30.0,30.0,4.0,0.0
15206,56.0,0.0,30.0,2.0,0.0
15207,59.0,0.0,30.0,1.0,0.0
15208,64.0,30.0,30.0,0.0,0.0
15209,71.0,0.0,30.0,4.0,0.0
15210,66.0,30.0,60.0,0.0,0.0
15211,61.0,0.0,60.0,1.0,0.0
15212,58.0,0.0,60.0,2.0,0.0
15213,70.0,30.0,30.0,4.0,0.0
15214,76.0,0.0,30.0,4.0,0.0
15215,54.0,15.0,40.0,3.0,0.0
15216,85.0,15.0,30.0,4.0,0.0
15217,76.0,30.0,30.0,4.0,0.0
15218,71.0,15.0,30.0,4.0,0.0
15219,59.0,15.0,40.0,3.0,0.0
15220,74.0,30.0,30.0,4.0,0.0
15221,78.0,15.0,30.0,4.0,0.0
15222,58.0,15.0,40.0,3.0,0.0
15223,83.0,30.0,30.0,4.0,0.0
15224,86.0,15.0,30.0,4.0,0.0
15225,59.0,15.0,40.0,3.0,0.0
15226,83.0,30.0,30.0,4.0,0.0
15227,78.0,15.0,30.0,4.0,0.0
15228,61.0,15.0,40.0,3.0,0.0
15229,74.0,15.0,30.0,4.0,0.0
15230,71.0,15.0,15.0,4.0,0.0
15231,62.0,15.0,40.0,3.0,0.0
15232,73.0,15.0,15.0,4.0,0.0
15233,74.0,0.0,15.0,4.0,0.0
15234,76.0,15.0,15.0,4.0,0.0
15235,64.0,15.0,40.0,3.0,0.0
15236,78.0,15.0,15.0,4.0,0.0
15237,80.0,15.0,15.0,4.0,0.0
15238,82.0,0.0,15.0,4.0,0.0
15239,83.0,30.0,15.0,4.0,0.0
15240,66.0,15.0,120.0,3.0,0.0
15241,66.0,30.0,30.0,4.0,0.0
15242,73.0,30.0,30.0,4.0,0.0
15243,73.0,0.0,30.0,1.0,0.0
15244,73.0,0.0,30.0,0.0,0.0
15245,78.0,15.0,30.0,4.0,0.0
15246,73.0,0.0,30.0,2.0,0.0
15247,74.0,0.0,30.0,0.0,0.0
15248,74.0,0.0,30.0,2.0,0.0
15249,74.0,0.0,30.0,1.0,0.0
15250,83.0,30.0,30.0,4.0,0.0
15251,85.0,15.0,30.0,4.0,0.0
15252,76.0,0.0,40.0,1.0,0.0
15253,76.0,0.0,40.0,2.0,0.0
15254,76.0,15.0,40.0,0.0,0.0
15255,54.0,0.0,120.0,3.0,0.0
15256,83.0,30.0,30.0,4.0,0.0
15257,74.0,0.0,40.0,1.0,0.0
15258,78.0,15.0,30.0,4.0,0.0
15259,74.0,0.0,40.0,2.0,0.0
15260,74.0,15.0,40.0,0.0,0.0
15261,83.0,30.0,30.0,4.0,0.0
15262,73.0,0.0,40.0,2.0,0.0
15263,90.0,15.0,30.0,4.0,0.0
15264,73.0,15.0,40.0,1.0,0.0
15265,73.0,0.0,40.0,0.0,0.0
15266,83.0,30.0,30.0,4.0,0.0
15267,71.0,15.0,40.0,2.0,0.0
15268,71.0,0.0,40.0,0.0,0.0
15269,71.0,0.0,40.0,1.0,0.0
15270,78.0,15.0,30.0,4.0,0.0
15271,83.0,30.0,30.0,4.0,0.0
15272,69.0,11.0,90.0,0.0,0.0
15273,69.0,0.0,120.0,2.0,0.0
15274,69.0,15.0,120.0,1.0,0.0
15275,66.0,30.0,30.0,4.0,0.0
15276,73.0,19.0,30.0,4.0,0.0
15277,78.0,0.0,30.0,4.0,0.0
15278,61.0,15.0,30.0,3.0,0.0
15279,59.0,30.0,30.0,3.0,0.0
15280,81.0,0.0,30.0,4.0,0.0
15281,78.0,0.0,120.0,2.0,0.0
15282,85.0,15.0,30.0,4.0,0.0
15283,57.0,15.0,40.0,3.0,0.0
15284,78.0,0.0,120.0,1.0,0.0
15285,78.0,15.0,120.0,0.0,0.0
15286,81.0,30.0,30.0,4.0,0.0
15287,55.0,15.0,40.0,3.0,0.0
15288,78.0,15.0,30.0,4.0,0.0
15289,73.0,0.0,30.0,4.0,0.0
15290,54.0,15.0,40.0,3.0,0.0
15291,66.0,15.0,15.0,4.0,0.0
15292,68.0,15.0,15.0,4.0,0.0
15293,69.0,0.0,15.0,4.0,0.0
15294,71.0,15.0,15.0,4.0,0.0
15295,52.0,15.0,40.0,3.0,0.0
15296,73.0,15.0,15.0,4.0,0.0
15297,75.0,15.0,15.0,4.0,0.0
15298,76.0,0.0,15.0,4.0,0.0
15299,78.0,30.0,15.0,4.0,0.0
15300,51.0,15.0,120.0,3.0,0.0
15301,63.0,30.0,30.0,4.0,0.0
15302,71.0,30.0,30.0,4.0,0.0
15303,71.0,0.0,30.0,0.0,0.0
15304,78.0,0.0,30.0,4.0,0.0
15305,71.0,15.0,30.0,2.0,0.0
15306,71.0,0.0,30.0,1.0,0.0
15307,73.0,30.0,30.0,1.0,0.0
15308,81.0,0.0,30.0,4.0,0.0
15309,73.0,0.0,30.0,0.0,0.0
15310,73.0,0.0,30.0,2.0,0.0
15311,75.0,15.0,40.0,0.0,0.0
15312,83.0,15.0,30.0,4.0,0.0
15313,75.0,0.0,40.0,2.0,0.0
15314,59.0,30.0,120.0,3.0,0.0
15315,75.0,0.0,40.0,1.0,0.0
15316,81.0,30.0,30.0,4.0,0.0
15317,73.0,15.0,40.0,1.0,0.0
15318,78.0,15.0,30.0,4.0,0.0
15319,73.0,0.0,40.0,0.0,0.0
15320,73.0,0.0,40.0,2.0,0.0
15321,81.0,0.0,30.0,4.0,0.0
15322,90.0,15.0,30.0,4.0,0.0
15323,71.0,15.0,40.0,0.0,0.0
15324,71.0,0.0,40.0,2.0,0.0
15325,71.0,0.0,40.0,1.0,0.0
15326,81.0,30.0,30.0,4.0,0.0
15327,78.0,15.0,30.0,4.0,0.0
15328,69.0,0.0,40.0,2.0,0.0
15329,69.0,0.0,40.0,1.0,0.0
15330,69.0,15.0,40.0,0.0,0.0
15331,81.0,30.0,30.0,4.0,0.0
15332,67.0,0.0,120.0,2.0,0.0
15333,67.0,0.0,120.0,1.0,0.0
15334,64.0,30.0,30.0,4.0,0.0
15335,67.0,15.0,120.0,0.0,0.0
15336,71.0,30.0,30.0,4.0,0.0
15337,59.0,15.0,30.0,3.0,0.0
15338,76.0,0.0,30.0,4.0,0.0
15339,79.0,0.0,30.0,4.0,0.0
15340,57.0,30.0,30.0,3.0,0.0
15341,83.0,15.0,30.0,4.0,0.0
15342,76.0,0.0,120.0,1.0,0.0
15343,55.0,15.0,40.0,3.0,0.0
15344,76.0,15.0,120.0,2.0,0.0
15345,76.0,0.0,120.0,0.0,0.0
15346,79.0,30.0,30.0,4.0,0.0
15347,76.0,15.0,30.0,4.0,0.0
15348,54.0,15.0,40.0,3.0,0.0
15349,71.0,0.0,30.0,4.0,0.0
15350,64.0,15.0,15.0,4.0,0.0
15351,52.0,0.0,40.0,3.0,0.0
15352,66.0,15.0,15.0,4.0,0.0
15353,67.0,15.0,15.0,4.0,0.0
15354,69.0,15.0,15.0,4.0,0.0
15355,50.0,15.0,40.0,3.0,0.0
15356,71.0,15.0,15.0,4.0,0.0
15357,73.0,15.0,15.0,4.0,0.0
15358,74.0,0.0,15.0,4.0,0.0
15359,76.0,30.0,15.0,4.0,0.0
15360,61.0,30.0,30.0,4.0,0.0
15361,49.0,15.0,120.0,3.0,0.0
15362,69.0,30.0,30.0,4.0,0.0
15363,69.0,0.0,30.0,2.0,0.0
15364,76.0,0.0,30.0,4.0,0.0
15365,69.0,0.0,30.0,0.0,0.0
15366,69.0,15.0,30.0,1.0,0.0
15367,79.0,0.0,30.0,4.0,0.0
15368,71.0,0.0,30.0,2.0,0.0
15369,71.0,30.0,30.0,1.0,0.0
15370,71.0,0.0,30.0,0.0,0.0
15371,73.0,15.0,40.0,2.0,0.0
15372,73.0,0.0,40.0,0.0,0.0
15373,81.0,15.0,30.0,4.0,0.0
15374,73.0,0.0,40.0,1.0,0.0
15375,57.0,30.0,120.0,3.0,0.0
15376,79.0,30.0,30.0,4.0,0.0
15377,71.0,0.0,40.0,0.0,0.0
15378,71.0,0.0,40.0,1.0,0.0
15379,71.0,15.0,40.0,2.0,0.0
15380,76.0,15.0,30.0,4.0,0.0
15381,79.0,0.0,30.0,4.0,0.0
15382,69.0,0.0,40.0,2.0,0.0
15383,88.0,15.0,30.0,4.0,0.0
15384,69.0,0.0,40.0,0.0,0.0
15385,69.0,15.0,40.0,1.0,0.0
15386,79.0,30.0,30.0,4.0,0.0
15387,67.0,15.0,40.0,0.0,0.0
15388,67.0,0.0,40.0,1.0,0.0
15389,67.0,0.0,40.0,2.0,0.0
15390,76.0,15.0,30.0,4.0,0.0
15391,79.0,30.0,30.0,4.0,0.0
15392,66.0,0.0,120.0,1.0,0.0
15393,66.0,15.0,120.0,0.0,0.0
15394,62.0,30.0,30.0,4.0,0.0
15395,66.0,0.0,120.0,2.0,0.0
15396,69.0,30.0,30.0,4.0,0.0
15397,57.0,15.0,30.0,3.0,0.0
15398,74.0,0.0,30.0,4.0,0.0
15399,55.0,30.0,30.0,3.0,0.0
15400,78.0,0.0,30.0,4.0,0.0
15401,74.0,0.0,120.0,0.0,0.0
15402,54.0,15.0,40.0,3.0,0.0
15403,81.0,15.0,30.0,4.0,0.0
15404,74.0,0.0,120.0,2.0,0.0
15405,74.0,15.0,120.0,1.0,0.0
15406,78.0,30.0,30.0,4.0,0.0
15407,74.0,15.0,30.0,4.0,0.0
15408,52.0,15.0,40.0,3.0,0.0
15409,69.0,0.0,30.0,4.0,0.0
15410,50.0,15.0,40.0,3.0,0.0
15411,62.0,15.0,15.0,4.0,0.0
15412,64.0,15.0,15.0,4.0,0.0
15413,66.0,0.0,15.0,4.0,0.0
15414,67.0,15.0,15.0,4.0,0.0
15415,49.0,0.0,40.0,3.0,0.0
15416,69.0,15.0,15.0,4.0,0.0
15417,71.0,15.0,15.0,4.0,0.0
15418,73.0,15.0,15.0,4.0,0.0
15419,74.0,30.0,15.0,4.0,0.0
15420,47.0,15.0,120.0,3.0,0.0
15421,62.0,30.0,30.0,4.0,0.0
15422,71.0,0.0,30.0,4.0,0.0
15423,81.0,30.0,30.0,4.0,0.0
15424,72.0,15.0,30.0,4.0,0.0
15425,81.0,30.0,30.0,4.0,0.0
15426,71.0,30.0,30.0,4.0,0.0
15427,52.0,30.0,120.0,3.0,0.0
15428,79.0,30.0,30.0,4.0,0.0
15429,76.0,30.0,30.0,4.0,0.0
15430,79.0,0.0,30.0,4.0,0.0
15431,64.0,0.0,30.0,4.0,0.0
15432,71.0,30.0,30.0,4.0,0.0
15433,74.0,0.0,30.0,4.0,0.0
15434,79.0,30.0,30.0,4.0,0.0
15435,76.0,30.0,30.0,4.0,0.0
15436,79.0,30.0,30.0,4.0,0.0
15437,61.0,0.0,30.0,4.0,0.0
15438,69.0,30.0,30.0,4.0,0.0
15439,49.0,15.0,120.0,3.0,0.0
15440,79.0,30.0,30.0,4.0,0.0
15441,71.0,15.0,30.0,4.0,0.0
15442,79.0,30.0,30.0,4.0,0.0
15443,69.0,30.0,30.0,4.0,0.0
15444,50.0,0.0,120.0,3.0,0.0
15445,78.0,30.0,30.0,4.0,0.0
15446,74.0,30.0,30.0,4.0,0.0
15447,78.0,30.0,30.0,4.0,0.0
15448,72.0,0.0,30.0,4.0,0.0
15449,69.0,0.0,30.0,4.0,0.0
15450,62.0,30.0,30.0,4.0,0.0
15451,78.0,30.0,30.0,4.0,0.0
15452,74.0,30.0,30.0,4.0,0.0
15453,78.0,30.0,30.0,4.0,0.0
15454,67.0,0.0,30.0,4.0,0.0
15455,47.0,15.0,120.0,3.0,0.0
15456,59.0,30.0,30.0,4.0,0.0
15457,78.0,30.0,30.0,4.0,0.0
15458,69.0,15.0,30.0,4.0,0.0
15459,78.0,30.0,30.0,4.0,0.0
15460,49.0,30.0,120.0,3.0,0.0
15461,61.0,30.0,60.0,4.0,0.0
15462,67.0,30.0,30.0,4.0,0.0
15463,76.0,0.0,30.0,4.0,0.0
15464,73.0,30.0,30.0,4.0,0.0
15465,64.0,0.0,60.0,4.0,0.0
15466,76.0,0.0,30.0,4.0,0.0
15467,62.0,0.0,60.0,4.0,0.0
15468,71.0,30.0,30.0,4.0,0.0
15469,76.0,30.0,30.0,4.0,0.0
15470,73.0,30.0,30.0,4.0,0.0
15471,64.0,30.0,60.0,4.0,0.0
15472,76.0,0.0,30.0,4.0,0.0
15473,66.0,30.0,30.0,4.0,0.0
15474,57.0,0.0,30.0,4.0,0.0
15475,45.0,15.0,120.0,3.0,0.0
15476,76.0,30.0,30.0,4.0,0.0
15477,67.0,15.0,30.0,4.0,0.0
15478,76.0,30.0,30.0,4.0,0.0
15479,47.0,0.0,120.0,3.0,0.0
15480,59.0,30.0,60.0,4.0,0.0
15481,66.0,30.0,30.0,4.0,0.0
15482,74.0,0.0,30.0,4.0,0.0
15483,62.0,30.0,60.0,4.0,0.0
15484,71.0,30.0,30.0,4.0,0.0
15485,74.0,0.0,30.0,4.0,0.0
15486,61.0,0.0,60.0,4.0,0.0
15487,69.0,30.0,30.0,4.0,0.0
15488,74.0,30.0,30.0,4.0,0.0
15489,71.0,30.0,30.0,4.0,0.0
15490,62.0,30.0,60.0,4.0,0.0
15491,74.0,0.0,30.0,4.0,0.0
15492,52.0,30.0,60.0,4.0,0.0
15493,67.0,15.0,30.0,4.0,0.0
15494,52.0,15.0,40.0,3.0,0.0
15495,74.0,0.0,30.0,4.0,0.0
15496,54.0,15.0,40.0,3.0,0.0
15497,69.0,15.0,30.0,4.0,0.0
15498,54.0,30.0,60.0,4.0,0.0
15499,74.0,0.0,30.0,4.0,0.0
15500,55.0,15.0,40.0,3.0,0.0
15501,55.0,30.0,60.0,4.0,0.0
15502,71.0,15.0,30.0,4.0,0.0
15503,74.0,0.0,30.0,4.0,0.0
15504,57.0,30.0,60.0,4.0,0.0
15505,57.0,15.0,40.0,3.0,0.0
15506,69.0,15.0,30.0,4.0,0.0
15507,74.0,0.0,30.0,4.0,0.0
15508,59.0,15.0,40.0,3.0,0.0
15509,59.0,30.0,60.0,4.0,0.0
15510,67.0,15.0,30.0,4.0,0.0
15511,74.0,0.0,30.0,4.0,0.0
15512,55.0,15.0,40.0,3.0,0.0
15513,55.0,30.0,60.0,4.0,0.0
15514,66.0,15.0,30.0,4.0,0.0
15515,74.0,0.0,30.0,4.0,0.0
15516,64.0,30.0,30.0,4.0,0.0
15517,57.0,30.0,60.0,4.0,0.0
15518,57.0,15.0,120.0,3.0,0.0
15519,73.0,0.0,30.0,4.0,0.0
15520,59.0,30.0,60.0,4.0,0.0
15521,71.0,15.0,30.0,4.0,0.0
15522,73.0,0.0,30.0,4.0,0.0
15523,45.0,15.0,120.0,3.0,0.0
15524,69.0,30.0,30.0,4.0,0.0
15525,61.0,30.0,60.0,4.0,0.0
15526,73.0,0.0,30.0,4.0,0.0
15527,64.0,30.0,60.0,4.0,0.0
15528,67.0,15.0,30.0,4.0,0.0
15529,73.0,0.0,30.0,4.0,0.0
15530,66.0,30.0,30.0,4.0,0.0
15531,57.0,30.0,60.0,4.0,0.0
15532,57.0,15.0,120.0,3.0,0.0
15533,73.0,0.0,30.0,4.0,0.0
15534,61.0,30.0,60.0,4.0,0.0
15535,64.0,15.0,30.0,4.0,0.0
15536,73.0,0.0,30.0,4.0,0.0
15537,66.0,30.0,30.0,4.0,0.0
15538,50.0,30.0,120.0,4.0,0.0
15539,50.0,0.0,120.0,3.0,0.0
15540,74.0,30.0,30.0,4.0,0.0
15541,67.0,30.0,30.0,4.0,0.0
15542,76.0,0.0,30.0,4.0,0.0
15543,69.0,30.0,30.0,4.0,0.0
15544,78.0,30.0,30.0,4.0,0.0
15545,62.0,15.0,40.0,3.0,0.0
15546,71.0,15.0,30.0,4.0,0.0
15547,62.0,30.0,60.0,4.0,0.0
15548,79.0,0.0,30.0,4.0,0.0
15549,61.0,0.0,60.0,4.0,0.0
15550,73.0,15.0,30.0,4.0,0.0
15551,61.0,15.0,40.0,3.0,0.0
15552,81.0,30.0,30.0,4.0,0.0
15553,74.0,15.0,30.0,4.0,0.0
15554,59.0,0.0,60.0,4.0,0.0
15555,59.0,15.0,40.0,3.0,0.0
15556,83.0,30.0,30.0,4.0,0.0
15557,76.0,15.0,30.0,4.0,0.0
15558,57.0,30.0,60.0,4.0,0.0
15559,57.0,15.0,40.0,3.0,0.0
15560,85.0,0.0,30.0,4.0,0.0
15561,79.0,0.0,30.0,4.0,0.0
15562,52.0,0.0,30.0,4.0,0.0
15563,52.0,30.0,30.0,3.0,0.0
15564,50.0,0.0,30.0,3.0,0.0
15565,78.0,0.0,30.0,4.0,0.0
15566,50.0,30.0,30.0,4.0,0.0
15567,79.0,15.0,30.0,4.0,0.0
15568,52.0,0.0,60.0,4.0,0.0
15569,52.0,15.0,40.0,3.0,0.0
15570,85.0,30.0,30.0,4.0,0.0
15571,76.0,30.0,30.0,4.0,0.0
15572,49.0,0.0,30.0,4.0,0.0
15573,49.0,0.0,30.0,3.0,0.0
15574,47.0,0.0,30.0,4.0,0.0
15575,47.0,0.0,30.0,3.0,0.0
15576,85.0,30.0,30.0,4.0,0.0
15577,49.0,15.0,40.0,3.0,0.0
15578,49.0,0.0,60.0,4.0,0.0
15579,81.0,15.0,30.0,4.0,0.0
15580,85.0,30.0,30.0,4.0,0.0
15581,45.0,15.0,40.0,3.0,0.0
15582,45.0,0.0,60.0,4.0,0.0
15583,79.0,15.0,30.0,4.0,0.0
15584,85.0,30.0,30.0,4.0,0.0
15585,78.0,15.0,30.0,4.0,0.0
15586,50.0,15.0,40.0,3.0,0.0
15587,50.0,30.0,60.0,4.0,0.0
15588,86.0,0.0,30.0,4.0,0.0
15589,59.0,15.0,40.0,3.0,0.0
15590,59.0,30.0,60.0,4.0,0.0
15591,74.0,15.0,30.0,4.0,0.0
15592,86.0,0.0,30.0,4.0,0.0
15593,55.0,15.0,40.0,3.0,0.0
15594,55.0,30.0,60.0,4.0,0.0
15595,76.0,15.0,30.0,4.0,0.0
15596,86.0,0.0,30.0,4.0,0.0
15597,52.0,15.0,40.0,3.0,0.0
15598,52.0,30.0,60.0,4.0,0.0
15599,79.0,15.0,30.0,4.0,0.0
15600,78.0,0.0,30.0,4.0,0.0
15601,57.0,15.0,40.0,3.0,0.0
15602,79.0,15.0,30.0,4.0,0.0
15603,57.0,30.0,60.0,4.0,0.0
15604,85.0,0.0,30.0,4.0,0.0
15605,79.0,15.0,30.0,4.0,0.0
15606,45.0,45.0,60.0,4.0,0.0
15607,45.0,15.0,40.0,3.0,0.0
15608,85.0,0.0,30.0,4.0,0.0
15609,86.0,15.0,40.0,1.0,0.0
15610,86.0,0.0,40.0,0.0,0.0
15611,86.0,30.0,60.0,4.0,0.0
15612,50.0,0.0,120.0,4.0,0.0
15613,50.0,0.0,120.0,3.0,0.0
15614,85.0,0.0,30.0,4.0,0.0
15615,85.0,0.0,30.0,1.0,0.0
15616,85.0,30.0,30.0,0.0,0.0
15617,83.0,0.0,30.0,4.0,0.0
15618,83.0,0.0,30.0,1.0,0.0
15619,83.0,30.0,30.0,0.0,0.0
15620,81.0,0.0,40.0,0.0,0.0
15621,81.0,15.0,40.0,1.0,0.0
15622,81.0,15.0,30.0,4.0,0.0
15623,90.0,30.0,30.0,4.0,0.0
15624,79.0,15.0,30.0,4.0,0.0
15625,79.0,0.0,40.0,0.0,0.0
15626,79.0,15.0,40.0,1.0,0.0
15627,88.0,30.0,30.0,4.0,0.0
15628,78.0,15.0,40.0,1.0,0.0
15629,78.0,0.0,40.0,0.0,0.0
15630,78.0,15.0,30.0,4.0,0.0
15631,86.0,30.0,30.0,4.0,0.0
15632,76.0,15.0,30.0,4.0,0.0
15633,76.0,0.0,40.0,0.0,0.0
15634,76.0,15.0,40.0,1.0,0.0
15635,85.0,45.0,30.0,4.0,0.0
15636,78.0,0.0,40.0,1.0,0.0
15637,86.0,30.0,60.0,4.0,0.0
15638,78.0,0.0,60.0,4.0,0.0
15639,78.0,15.0,40.0,0.0,0.0
15640,50.0,0.0,30.0,4.0,0.0
15641,74.0,0.0,60.0,4.0,0.0
15642,50.0,0.0,30.0,3.0,0.0
15643,74.0,15.0,40.0,0.0,0.0
15644,81.0,15.0,30.0,1.0,0.0
15645,66.0,0.0,30.0,2.0,0.0
15646,67.0,0.0,30.0,2.0,0.0
15647,52.0,45.0,30.0,4.0,0.0
15648,52.0,0.0,30.0,3.0,0.0
15649,79.0,0.0,30.0,1.0,0.0
15650,54.0,0.0,40.0,3.0,0.0
15651,86.0,30.0,60.0,4.0,0.0
15652,78.0,0.0,40.0,1.0,0.0
15653,86.0,15.0,40.0,0.0,0.0
15654,69.0,0.0,40.0,2.0,0.0
15655,54.0,0.0,60.0,4.0,0.0
15656,81.0,15.0,40.0,1.0,0.0
15657,52.0,15.0,30.0,3.0,0.0
15658,52.0,0.0,30.0,4.0,0.0
15659,86.0,0.0,40.0,0.0,0.0
15660,67.0,0.0,30.0,2.0,0.0
15661,54.0,0.0,30.0,3.0,0.0
15662,54.0,0.0,30.0,4.0,0.0
15663,69.0,45.0,30.0,2.0,0.0
15664,86.0,0.0,15.0,4.0,0.0
15665,56.0,0.0,60.0,4.0,0.0
15666,56.0,0.0,40.0,3.0,0.0
15667,71.0,0.0,40.0,2.0,0.0
15668,78.0,0.0,40.0,1.0,0.0
15669,86.0,15.0,40.0,0.0,0.0
15670,74.0,0.0,40.0,1.0,0.0
15671,54.0,15.0,30.0,3.0,0.0
15672,86.0,15.0,40.0,0.0,0.0
15673,69.0,0.0,30.0,2.0,0.0
15674,86.0,30.0,15.0,4.0,0.0
15675,54.0,0.0,30.0,4.0,0.0
15676,56.0,0.0,30.0,3.0,0.0
15677,71.0,0.0,30.0,2.0,0.0
15678,56.0,30.0,30.0,4.0,0.0
15679,57.0,0.0,120.0,3.0,0.0
15680,81.0,0.0,40.0,1.0,0.0
15681,64.0,0.0,120.0,2.0,0.0
15682,57.0,30.0,60.0,4.0,0.0
15683,86.0,15.0,30.0,4.0,0.0
15684,81.0,15.0,40.0,0.0,0.0
15685,90.0,0.0,30.0,4.0,0.0
15686,88.0,0.0,30.0,4.0,0.0
15687,80.0,0.0,30.0,1.0,0.0
15688,80.0,30.0,30.0,0.0,0.0
15689,45.0,0.0,60.0,4.0,0.0
15690,78.0,0.0,30.0,1.0,0.0
15691,78.0,0.0,30.0,0.0,0.0
15692,86.0,30.0,30.0,4.0,0.0
15693,76.0,0.0,40.0,1.0,0.0
15694,76.0,15.0,40.0,0.0,0.0
15695,85.0,15.0,30.0,4.0,0.0
15696,57.0,30.0,60.0,4.0,0.0
15697,86.0,0.0,30.0,4.0,0.0
15698,66.0,15.0,60.0,4.0,0.0
15699,74.0,15.0,40.0,0.0,0.0
15700,85.0,15.0,30.0,4.0,0.0
15701,74.0,0.0,40.0,1.0,0.0
15702,86.0,0.0,30.0,4.0,0.0
15703,73.0,0.0,40.0,0.0,0.0
15704,64.0,15.0,60.0,4.0,0.0
15705,86.0,15.0,15.0,4.0,0.0
15706,73.0,15.0,40.0,1.0,0.0
15707,88.0,15.0,15.0,4.0,0.0
15708,86.0,0.0,15.0,4.0,0.0
15709,88.0,0.0,15.0,4.0,0.0
15710,71.0,15.0,40.0,1.0,0.0
15711,71.0,0.0,40.0,0.0,0.0
15712,86.0,15.0,15.0,4.0,0.0
15713,62.0,45.0,60.0,4.0,0.0
15714,88.0,15.0,15.0,4.0,0.0
15715,85.0,0.0,15.0,4.0,0.0
15716,86.0,0.0,15.0,4.0,0.0
15717,61.0,0.0,60.0,4.0,0.0
15718,88.0,30.0,60.0,4.0,0.0
15719,73.0,0.0,40.0,1.0,0.0
15720,73.0,15.0,40.0,0.0,0.0
15721,69.0,0.0,40.0,1.0,0.0
15722,76.0,0.0,30.0,2.0,0.0
15723,57.0,15.0,30.0,3.0,0.0
15724,57.0,0.0,30.0,4.0,0.0
15725,85.0,0.0,30.0,4.0,0.0
15726,69.0,15.0,40.0,0.0,0.0
15727,74.0,0.0,30.0,2.0,0.0
15728,59.0,45.0,30.0,3.0,0.0
15729,59.0,0.0,30.0,4.0,0.0
15730,86.0,0.0,30.0,4.0,0.0
15731,88.0,0.0,60.0,4.0,0.0
15732,61.0,30.0,60.0,4.0,0.0
15733,61.0,15.0,40.0,3.0,0.0
15734,81.0,0.0,40.0,0.0,0.0
15735,73.0,0.0,40.0,2.0,0.0
15736,81.0,0.0,40.0,1.0,0.0
15737,59.0,0.0,30.0,4.0,0.0
15738,87.0,15.0,30.0,4.0,0.0
15739,76.0,15.0,40.0,2.0,0.0
15740,59.0,0.0,30.0,3.0,0.0
15741,81.0,0.0,40.0,1.0,0.0
15742,81.0,0.0,40.0,0.0,0.0
15743,61.0,0.0,30.0,3.0,0.0
15744,88.0,0.0,30.0,4.0,0.0
15745,61.0,45.0,30.0,4.0,0.0
15746,90.0,30.0,60.0,4.0,0.0
15747,81.0,0.0,40.0,1.0,0.0
15748,72.0,15.0,40.0,2.0,0.0
15749,63.0,0.0,40.0,3.0,0.0
15750,81.0,0.0,40.0,0.0,0.0
15751,63.0,0.0,60.0,4.0,0.0
15752,61.0,0.0,30.0,4.0,0.0
15753,61.0,0.0,30.0,3.0,0.0
15754,88.0,15.0,30.0,4.0,0.0
15755,69.0,15.0,40.0,2.0,0.0
15756,81.0,0.0,40.0,1.0,0.0
15757,81.0,0.0,40.0,0.0,0.0
15758,63.0,0.0,30.0,3.0,0.0
15759,63.0,30.0,30.0,4.0,0.0
15760,90.0,0.0,30.0,4.0,0.0
15761,81.0,15.0,30.0,0.0,0.0
15762,76.0,0.0,40.0,2.0,0.0
15763,64.0,0.0,30.0,4.0,0.0
15764,64.0,30.0,120.0,3.0,0.0
15765,76.0,15.0,40.0,1.0,0.0
15766,83.0,30.0,60.0,4.0,0.0
15767,63.0,0.0,30.0,4.0,0.0
15768,84.0,0.0,30.0,0.0,0.0
15769,83.0,0.0,30.0,0.0,0.0
15770,64.0,30.0,30.0,4.0,0.0
15771,76.0,0.0,60.0,4.0,0.0
15772,74.0,0.0,30.0,2.0,0.0
15773,74.0,0.0,30.0,1.0,0.0
15774,72.0,0.0,30.0,2.0,0.0
15775,66.0,0.0,30.0,4.0,0.0
15776,81.0,0.0,30.0,0.0,0.0
15777,72.0,0.0,30.0,1.0,0.0
15778,71.0,15.0,40.0,1.0,0.0
15779,67.0,15.0,30.0,4.0,0.0
15780,88.0,0.0,60.0,4.0,0.0
15781,71.0,0.0,40.0,2.0,0.0
15782,79.0,0.0,30.0,0.0,0.0
15783,81.0,30.0,30.0,0.0,0.0
15784,64.0,0.0,30.0,4.0,0.0
15785,69.0,0.0,40.0,2.0,0.0
15786,72.0,0.0,60.0,4.0,0.0
15787,79.0,15.0,30.0,0.0,0.0
15788,69.0,15.0,40.0,1.0,0.0
15789,88.0,11.0,90.0,4.0,0.0
15790,67.0,11.0,40.0,2.0,0.0
15791,71.0,11.0,60.0,4.0,0.0
15792,67.0,0.0,40.0,1.0,0.0
15793,81.0,11.0,15.0,0.0,0.0
15794,83.0,4.0,15.0,0.0,0.0
15795,87.0,0.0,30.0,4.0,0.0
15796,81.0,4.0,15.0,0.0,0.0
15797,83.0,4.0,15.0,0.0,0.0
15798,81.0,15.0,15.0,0.0,0.0
15799,66.0,0.0,40.0,1.0,0.0
15800,66.0,11.0,40.0,2.0,0.0
15801,69.0,30.0,60.0,4.0,0.0
15802,88.0,11.0,30.0,4.0,0.0
15803,83.0,4.0,15.0,0.0,0.0
15804,79.0,4.0,15.0,0.0,0.0
15805,87.0,0.0,30.0,4.0,0.0
15806,81.0,4.0,15.0,0.0,0.0
15807,88.0,15.0,30.0,4.0,0.0
15808,83.0,15.0,40.0,0.0,0.0
15809,67.0,0.0,40.0,1.0,0.0
15810,67.0,30.0,60.0,4.0,0.0
15811,67.0,0.0,40.0,2.0,0.0
15812,83.0,0.0,30.0,4.0,0.0
15813,79.0,15.0,30.0,0.0,0.0
15814,88.0,15.0,90.0,4.0,0.0
15815,52.0,0.0,30.0,4.0,0.0
15816,52.0,0.0,30.0,3.0,0.0
15817,64.0,15.0,40.0,1.0,0.0
15818,64.0,0.0,40.0,2.0,0.0
15819,54.0,0.0,30.0,4.0,0.0
15820,81.0,30.0,30.0,0.0,0.0
15821,54.0,0.0,30.0,3.0,0.0
15822,56.0,0.0,60.0,4.0,0.0
15823,83.0,0.0,40.0,0.0,0.0
15824,76.0,15.0,40.0,1.0,0.0
15825,56.0,0.0,40.0,3.0,0.0
15826,76.0,0.0,40.0,2.0,0.0
15827,90.0,30.0,30.0,4.0,0.0
15828,76.0,0.0,40.0,1.0,0.0
15829,54.0,0.0,30.0,3.0,0.0
15830,76.0,15.0,40.0,2.0,0.0
15831,82.0,0.0,30.0,0.0,0.0
15832,54.0,0.0,30.0,4.0,0.0
15833,88.0,15.0,30.0,4.0,0.0
15834,56.0,0.0,30.0,3.0,0.0
15835,86.0,0.0,30.0,4.0,0.0
15836,56.0,30.0,30.0,4.0,0.0
15837,83.0,0.0,30.0,0.0,0.0
15838,58.0,30.0,60.0,4.0,0.0
15839,58.0,15.0,40.0,3.0,0.0
15840,85.0,0.0,40.0,0.0,0.0
15841,76.0,0.0,40.0,1.0,0.0
15842,85.0,15.0,30.0,4.0,0.0
15843,76.0,0.0,40.0,2.0,0.0
15844,88.0,0.0,30.0,4.0,0.0
15845,76.0,0.0,40.0,2.0,0.0
15846,76.0,15.0,40.0,1.0,0.0
15847,86.0,0.0,30.0,4.0,0.0
15848,56.0,15.0,30.0,4.0,0.0
15849,56.0,0.0,30.0,3.0,0.0
15850,83.0,0.0,30.0,0.0,0.0
15851,58.0,0.0,30.0,3.0,0.0
15852,85.0,30.0,30.0,0.0,0.0
15853,85.0,0.0,30.0,4.0,0.0
15854,58.0,0.0,30.0,4.0,0.0
15855,59.0,30.0,60.0,4.0,0.0
15856,76.0,15.0,30.0,2.0,0.0
15857,59.0,15.0,40.0,3.0,0.0
15858,78.0,0.0,120.0,0.0,0.0
15859,83.0,0.0,60.0,4.0,0.0
15860,76.0,0.0,30.0,1.0,0.0
15861,79.0,0.0,30.0,1.0,0.0
15862,79.0,0.0,30.0,2.0,0.0
15863,78.0,0.0,30.0,1.0,0.0
15864,78.0,0.0,30.0,2.0,0.0
15865,57.0,0.0,30.0,3.0,0.0
15866,57.0,30.0,30.0,4.0,0.0
15867,71.0,0.0,30.0,4.0,0.0
15868,76.0,30.0,30.0,1.0,0.0
15869,55.0,0.0,30.0,4.0,0.0
15870,76.0,0.0,30.0,2.0,0.0
15871,55.0,0.0,30.0,3.0,0.0
15872,73.0,0.0,30.0,4.0,0.0
15873,74.0,15.0,30.0,4.0,0.0
15874,74.0,0.0,30.0,1.0,0.0
15875,54.0,15.0,40.0,3.0,0.0
15876,54.0,30.0,60.0,4.0,0.0
15877,74.0,0.0,30.0,2.0,0.0
15878,71.0,0.0,30.0,4.0,0.0
15879,76.0,0.0,30.0,1.0,0.0
15880,76.0,0.0,30.0,2.0,0.0
15881,74.0,0.0,30.0,1.0,0.0
15882,74.0,15.0,30.0,2.0,0.0
15883,52.0,0.0,60.0,4.0,0.0
15884,74.0,0.0,30.0,4.0,0.0
15885,52.0,15.0,40.0,3.0,0.0
15886,76.0,0.0,30.0,1.0,0.0
15887,78.0,0.0,30.0,4.0,0.0
15888,76.0,11.0,30.0,2.0,0.0
15889,50.0,11.0,60.0,4.0,0.0
15890,50.0,11.0,40.0,3.0,0.0
15891,83.0,11.0,30.0,4.0,0.0
15892,76.0,0.0,15.0,1.0,0.0
15893,76.0,15.0,15.0,2.0,0.0
15894,78.0,0.0,15.0,1.0,0.0
15895,78.0,4.0,15.0,2.0,0.0
15896,82.0,0.0,30.0,4.0,0.0
15897,76.0,4.0,15.0,1.0,0.0
15898,76.0,0.0,15.0,2.0,0.0
15899,78.0,0.0,15.0,2.0,0.0
15900,78.0,4.0,15.0,1.0,0.0
15901,49.0,45.0,60.0,4.0,0.0
15902,83.0,11.0,30.0,4.0,0.0
15903,76.0,0.0,15.0,2.0,0.0
15904,49.0,11.0,40.0,3.0,0.0
15905,76.0,15.0,15.0,1.0,0.0
15906,78.0,0.0,15.0,1.0,0.0
15907,78.0,4.0,15.0,2.0,0.0
15908,82.0,0.0,30.0,4.0,0.0
15909,74.0,0.0,15.0,1.0,0.0
15910,74.0,4.0,15.0,2.0,0.0
15911,76.0,4.0,15.0,2.0,0.0
15912,76.0,0.0,15.0,1.0,0.0
15913,83.0,0.0,60.0,4.0,0.0
15914,50.0,30.0,60.0,4.0,0.0
15915,78.0,0.0,40.0,1.0,0.0
15916,50.0,15.0,40.0,3.0,0.0
15917,78.0,0.0,40.0,2.0,0.0
15918,71.0,0.0,30.0,0.0,0.0
15919,71.0,0.0,30.0,4.0,0.0
15920,62.0,15.0,30.0,2.0,0.0
15921,71.0,0.0,30.0,1.0,0.0
15922,47.0,45.0,60.0,4.0,0.0
15923,47.0,15.0,40.0,3.0,0.0
15924,73.0,0.0,30.0,1.0,0.0
15925,73.0,0.0,30.0,0.0,0.0
15926,73.0,0.0,30.0,4.0,0.0
15927,64.0,0.0,30.0,2.0,0.0
15928,66.0,0.0,40.0,2.0,0.0
15929,59.0,30.0,60.0,4.0,0.0
15930,74.0,0.0,60.0,4.0,0.0
15931,74.0,0.0,40.0,0.0,0.0
15932,59.0,15.0,40.0,3.0,0.0
15933,74.0,0.0,40.0,1.0,0.0
15934,73.0,15.0,30.0,1.0,0.0
15935,59.0,15.0,40.0,3.0,0.0
15936,64.0,0.0,30.0,2.0,0.0
15937,59.0,45.0,60.0,4.0,0.0
15938,73.0,0.0,30.0,4.0,0.0
15939,73.0,0.0,30.0,0.0,0.0
15940,74.0,0.0,30.0,4.0,0.0
15941,66.0,0.0,30.0,2.0,0.0
15942,74.0,0.0,30.0,0.0,0.0
15943,74.0,0.0,30.0,1.0,0.0
15944,67.0,15.0,40.0,2.0,0.0
15945,59.0,0.0,40.0,3.0,0.0
15946,76.0,0.0,40.0,1.0,0.0
15947,76.0,0.0,40.0,0.0,0.0
15948,59.0,0.0,60.0,4.0,0.0
15949,76.0,30.0,60.0,4.0,0.0
15950,74.0,0.0,30.0,1.0,0.0
15951,59.0,15.0,40.0,3.0,0.0
15952,74.0,0.0,30.0,0.0,0.0
15953,66.0,0.0,30.0,2.0,0.0
15954,74.0,15.0,30.0,4.0,0.0
15955,59.0,0.0,60.0,4.0,0.0
15956,67.0,0.0,30.0,2.0,0.0
15957,76.0,0.0,30.0,0.0,0.0
15958,76.0,0.0,30.0,4.0,0.0
15959,76.0,30.0,30.0,1.0,0.0
15960,59.0,15.0,30.0,4.0,0.0
15961,78.0,30.0,60.0,4.0,0.0
15962,78.0,0.0,40.0,1.0,0.0
15963,59.0,0.0,30.0,3.0,0.0
15964,61.0,0.0,40.0,2.0,0.0
15965,78.0,15.0,40.0,0.0,0.0
15966,57.0,0.0,30.0,3.0,0.0
15967,57.0,0.0,30.0,4.0,0.0
15968,59.0,0.0,30.0,3.0,0.0
15969,74.0,15.0,40.0,2.0,0.0
15970,59.0,0.0,30.0,4.0,0.0
15971,74.0,0.0,30.0,0.0,0.0
15972,74.0,0.0,30.0,1.0,0.0
15973,74.0,15.0,30.0,4.0,0.0
15974,76.0,0.0,30.0,1.0,0.0
15975,61.0,0.0,30.0,4.0,0.0
15976,76.0,0.0,30.0,4.0,0.0
15977,76.0,0.0,30.0,0.0,0.0
15978,61.0,45.0,30.0,3.0,0.0
15979,69.0,0.0,40.0,2.0,0.0
15980,78.0,15.0,40.0,0.0,0.0
15981,62.0,0.0,40.0,3.0,0.0
15982,78.0,0.0,60.0,4.0,0.0
15983,78.0,0.0,40.0,1.0,0.0
15984,62.0,30.0,15.0,4.0,0.0
15985,76.0,0.0,30.0,0.0,0.0
15986,76.0,0.0,30.0,4.0,0.0
15987,76.0,15.0,30.0,1.0,0.0
15988,68.0,0.0,30.0,2.0,0.0
15989,62.0,15.0,40.0,3.0,0.0
15990,78.0,45.0,30.0,0.0,0.0
15991,78.0,0.0,30.0,1.0,0.0
15992,69.0,0.0,30.0,2.0,0.0
15993,78.0,0.0,30.0,4.0,0.0
15994,62.0,0.0,15.0,4.0,0.0
15995,71.0,0.0,40.0,2.0,0.0
15996,62.0,15.0,40.0,3.0,0.0
15997,80.0,0.0,40.0,1.0,0.0
15998,80.0,0.0,60.0,4.0,0.0
15999,80.0,0.0,40.0,0.0,0.0
16000,69.0,0.0,30.0,2.0,0.0
16001,78.0,0.0,30.0,0.0,0.0
16002,62.0,15.0,40.0,3.0,0.0
16003,78.0,0.0,30.0,1.0,0.0
16004,78.0,15.0,30.0,4.0,0.0
16005,62.0,0.0,60.0,4.0,0.0
16006,71.0,30.0,30.0,2.0,0.0
16007,80.0,0.0,30.0,4.0,0.0
16008,80.0,0.0,30.0,0.0,0.0
16009,80.0,0.0,30.0,1.0,0.0
16010,81.0,15.0,40.0,0.0,0.0
16011,81.0,0.0,40.0,1.0,0.0
16012,81.0,30.0,60.0,4.0,0.0
16013,62.0,0.0,30.0,4.0,0.0
16014,64.0,0.0,40.0,2.0,0.0
16015,62.0,15.0,30.0,3.0,0.0
16016,61.0,0.0,30.0,4.0,0.0
16017,61.0,0.0,30.0,3.0,0.0
16018,62.0,0.0,30.0,3.0,0.0
16019,78.0,0.0,30.0,1.0,0.0
16020,78.0,15.0,30.0,0.0,0.0
16021,62.0,0.0,30.0,4.0,0.0
16022,78.0,0.0,30.0,4.0,0.0
16023,78.0,15.0,40.0,2.0,0.0
16024,80.0,0.0,30.0,4.0,0.0
16025,64.0,0.0,30.0,4.0,0.0
16026,80.0,0.0,30.0,1.0,0.0
16027,64.0,0.0,30.0,3.0,0.0
16028,80.0,45.0,30.0,0.0,0.0
16029,66.0,0.0,40.0,3.0,0.0
16030,81.0,0.0,40.0,1.0,0.0
16031,81.0,0.0,40.0,0.0,0.0
16032,81.0,30.0,60.0,4.0,0.0
16033,66.0,0.0,60.0,4.0,0.0
16034,73.0,15.0,40.0,2.0,0.0
16035,80.0,0.0,30.0,4.0,0.0
16036,80.0,15.0,30.0,1.0,0.0
16037,80.0,0.0,30.0,0.0,0.0
16038,71.0,0.0,30.0,2.0,0.0
16039,66.0,15.0,40.0,3.0,0.0
16040,81.0,0.0,30.0,0.0,0.0
16041,73.0,0.0,30.0,2.0,0.0
16042,81.0,45.0,30.0,1.0,0.0
16043,81.0,0.0,30.0,4.0,0.0
16044,83.0,0.0,40.0,1.0,0.0
16045,66.0,15.0,40.0,3.0,0.0
16046,83.0,0.0,40.0,0.0,0.0
16047,66.0,0.0,15.0,4.0,0.0
16048,74.0,0.0,40.0,2.0,0.0
16049,83.0,30.0,60.0,4.0,0.0
16050,66.0,0.0,15.0,4.0,0.0
16051,81.0,0.0,30.0,0.0,0.0
16052,81.0,0.0,30.0,4.0,0.0
16053,81.0,0.0,30.0,1.0,0.0
16054,73.0,15.0,30.0,2.0,0.0
16055,66.0,15.0,40.0,3.0,0.0
16056,83.0,0.0,30.0,0.0,0.0
16057,83.0,0.0,30.0,4.0,0.0
16058,74.0,0.0,30.0,2.0,0.0
16059,83.0,0.0,30.0,1.0,0.0
16060,85.0,0.0,40.0,0.0,0.0
16061,68.0,45.0,120.0,2.0,0.0
16062,85.0,30.0,60.0,4.0,0.0
16063,66.0,45.0,15.0,4.0,0.0
16064,85.0,0.0,40.0,1.0,0.0
16065,66.0,15.0,40.0,3.0,0.0
16066,73.0,15.0,40.0,1.0,0.0
16067,64.0,15.0,30.0,3.0,0.0
16068,73.0,0.0,40.0,0.0,0.0
16069,64.0,0.0,30.0,4.0,0.0
16070,73.0,0.0,60.0,4.0,0.0
16071,62.0,0.0,30.0,4.0,0.0
16072,62.0,0.0,30.0,3.0,0.0
16073,85.0,0.0,60.0,4.0,0.0
16074,64.0,30.0,60.0,4.0,0.0
16075,85.0,0.0,40.0,1.0,0.0
16076,85.0,15.0,40.0,0.0,0.0
16077,64.0,0.0,40.0,3.0,0.0
16078,61.0,0.0,30.0,3.0,0.0
16079,83.0,0.0,60.0,4.0,0.0
16080,61.0,15.0,30.0,4.0,0.0
16081,83.0,15.0,40.0,0.0,0.0
16082,76.0,0.0,30.0,2.0,0.0
16083,83.0,0.0,40.0,1.0,0.0
16084,74.0,30.0,30.0,2.0,0.0
16085,62.0,0.0,30.0,3.0,0.0
16086,62.0,0.0,30.0,4.0,0.0
16087,64.0,0.0,60.0,4.0,0.0
16088,82.0,0.0,60.0,4.0,0.0
16089,82.0,0.0,40.0,1.0,0.0
16090,73.0,15.0,30.0,2.0,0.0
16091,82.0,15.0,40.0,0.0,0.0
16092,64.0,0.0,40.0,3.0,0.0
16093,71.0,30.0,30.0,2.0,0.0
16094,70.0,15.0,30.0,2.0,0.0
16095,78.0,0.0,40.0,0.0,0.0
16096,64.0,15.0,40.0,3.0,0.0
16097,78.0,0.0,60.0,4.0,0.0
16098,78.0,0.0,40.0,1.0,0.0
16099,64.0,0.0,60.0,4.0,0.0
16100,68.0,45.0,30.0,2.0,0.0
16101,83.0,30.0,60.0,4.0,0.0
16102,64.0,0.0,40.0,3.0,0.0
16103,83.0,0.0,40.0,0.0,0.0
16104,83.0,0.0,40.0,1.0,0.0
16105,64.0,0.0,60.0,4.0,0.0
16106,66.0,15.0,40.0,2.0,0.0
16107,71.0,30.0,30.0,0.0,0.0
16108,62.0,0.0,30.0,4.0,0.0
16109,71.0,0.0,30.0,4.0,0.0
16110,71.0,0.0,30.0,1.0,0.0
16111,68.0,0.0,30.0,2.0,0.0
16112,62.0,0.0,30.0,3.0,0.0
16113,70.0,0.0,30.0,1.0,0.0
16114,61.0,30.0,30.0,4.0,0.0
16115,70.0,0.0,30.0,4.0,0.0
16116,70.0,0.0,30.0,0.0,0.0
16117,70.0,0.0,30.0,2.0,0.0
16118,61.0,0.0,30.0,3.0,0.0
16119,71.0,0.0,40.0,1.0,0.0
16120,71.0,0.0,40.0,0.0,0.0
16121,62.0,15.0,40.0,3.0,0.0
16122,62.0,0.0,60.0,4.0,0.0
16123,71.0,0.0,60.0,4.0,0.0
16124,71.0,15.0,30.0,2.0,0.0
16125,73.0,30.0,30.0,2.0,0.0
16126,71.0,0.0,30.0,1.0,0.0
16127,47.0,0.0,60.0,4.0,0.0
16128,71.0,0.0,30.0,4.0,0.0
16129,47.0,15.0,40.0,3.0,0.0
16130,74.0,0.0,30.0,2.0,0.0
16131,71.0,15.0,30.0,0.0,0.0
16132,73.0,45.0,30.0,1.0,0.0
16133,76.0,0.0,30.0,2.0,0.0
16134,73.0,0.0,30.0,0.0,0.0
16135,73.0,0.0,30.0,4.0,0.0
16136,47.0,0.0,40.0,3.0,0.0
16137,78.0,0.0,60.0,2.0,0.0
16138,74.0,0.0,40.0,0.0,0.0
16139,47.0,0.0,60.0,4.0,0.0
16140,74.0,30.0,60.0,4.0,0.0
16141,74.0,15.0,40.0,1.0,0.0
16142,49.0,0.0,30.0,4.0,0.0
16143,76.0,0.0,30.0,4.0,0.0
16144,71.0,15.0,40.0,2.0,0.0
16145,76.0,15.0,30.0,1.0,0.0
16146,49.0,0.0,30.0,3.0,0.0
16147,76.0,0.0,30.0,0.0,0.0
16148,78.0,45.0,30.0,0.0,0.0
16149,50.0,0.0,30.0,4.0,0.0
16150,78.0,0.0,30.0,1.0,0.0
16151,78.0,0.0,30.0,4.0,0.0
16152,50.0,0.0,30.0,3.0,0.0
16153,52.0,30.0,60.0,4.0,0.0
16154,79.0,0.0,60.0,4.0,0.0
16155,79.0,0.0,40.0,0.0,0.0
16156,52.0,0.0,40.0,3.0,0.0
16157,71.0,15.0,40.0,2.0,0.0
16158,79.0,0.0,40.0,1.0,0.0
16159,67.0,0.0,30.0,2.0,0.0
16160,76.0,30.0,30.0,1.0,0.0
16161,54.0,0.0,30.0,3.0,0.0
16162,54.0,0.0,30.0,4.0,0.0
16163,76.0,0.0,30.0,4.0,0.0
16164,76.0,0.0,30.0,0.0,0.0
16165,55.0,0.0,30.0,4.0,0.0
16166,74.0,0.0,30.0,4.0,0.0
16167,66.0,0.0,30.0,2.0,0.0
16168,74.0,0.0,30.0,0.0,0.0
16169,55.0,45.0,30.0,3.0,0.0
16170,74.0,0.0,30.0,1.0,0.0
16171,73.0,0.0,40.0,0.0,0.0
16172,73.0,0.0,40.0,1.0,0.0
16173,57.0,0.0,60.0,4.0,0.0
16174,57.0,15.0,40.0,3.0,0.0
16175,73.0,30.0,60.0,4.0,0.0
16176,64.0,0.0,40.0,2.0,0.0
16177,69.0,0.0,30.0,4.0,0.0
16178,55.0,0.0,60.0,4.0,0.0
16179,69.0,0.0,30.0,0.0,0.0
16180,69.0,0.0,30.0,1.0,0.0
16181,55.0,15.0,40.0,3.0,0.0
16182,61.0,15.0,30.0,2.0,0.0
16183,62.0,0.0,30.0,2.0,0.0
16184,71.0,0.0,30.0,1.0,0.0
16185,71.0,45.0,30.0,0.0,0.0
16186,71.0,0.0,30.0,4.0,0.0
16187,64.0,15.0,40.0,2.0,0.0
16188,73.0,0.0,40.0,0.0,0.0
16189,73.0,0.0,60.0,4.0,0.0
16190,54.0,30.0,60.0,4.0,0.0
16191,73.0,0.0,40.0,1.0,0.0
16192,54.0,0.0,40.0,3.0,0.0
16193,74.0,0.0,30.0,4.0,0.0
16194,52.0,0.0,40.0,3.0,0.0
16195,74.0,15.0,30.0,1.0,0.0
16196,74.0,0.0,30.0,0.0,0.0
16197,57.0,15.0,40.0,2.0,0.0
16198,52.0,0.0,60.0,4.0,0.0
16199,76.0,45.0,30.0,0.0,0.0
16200,76.0,0.0,30.0,1.0,0.0
16201,76.0,0.0,30.0,4.0,0.0
16202,78.0,30.0,60.0,4.0,0.0
16203,50.0,0.0,60.0,4.0,0.0
16204,78.0,15.0,40.0,0.0,0.0
16205,78.0,0.0,40.0,1.0,0.0
16206,69.0,0.0,40.0,2.0,0.0
16207,50.0,0.0,40.0,3.0,0.0
16208,74.0,0.0,30.0,1.0,0.0
16209,66.0,0.0,30.0,2.0,0.0
16210,74.0,0.0,30.0,4.0,0.0
16211,52.0,30.0,30.0,4.0,0.0
16212,52.0,0.0,30.0,3.0,0.0
16213,74.0,0.0,30.0,0.0,0.0
16214,73.0,0.0,30.0,1.0,0.0
16215,54.0,45.0,30.0,3.0,0.0
16216,73.0,0.0,30.0,4.0,0.0
16217,73.0,0.0,30.0,0.0,0.0
16218,64.0,0.0,30.0,2.0,0.0
16219,54.0,0.0,30.0,4.0,0.0
16220,71.0,30.0,60.0,1.0,0.0
16221,62.0,15.0,40.0,2.0,0.0
16222,71.0,0.0,40.0,0.0,0.0
16223,55.0,0.0,60.0,4.0,0.0
16224,71.0,0.0,60.0,4.0,0.0
16225,55.0,0.0,40.0,3.0,0.0
16226,83.0,0.0,30.0,0.0,0.0
16227,83.0,0.0,30.0,4.0,0.0
16228,54.0,0.0,60.0,4.0,0.0
16229,54.0,0.0,40.0,3.0,0.0
16230,62.0,15.0,40.0,2.0,0.0
16231,83.0,15.0,30.0,1.0,0.0
16232,82.0,0.0,30.0,4.0,0.0
16233,82.0,0.0,30.0,0.0,0.0
16234,82.0,45.0,30.0,1.0,0.0
16235,83.0,0.0,60.0,4.0,0.0
16236,52.0,45.0,60.0,4.0,0.0
16237,83.0,0.0,40.0,1.0,0.0
16238,52.0,15.0,40.0,3.0,0.0
16239,83.0,0.0,40.0,0.0,0.0
16240,67.0,0.0,40.0,2.0,0.0
16241,79.0,45.0,60.0,4.0,0.0
16242,50.0,0.0,60.0,4.0,0.0
16243,79.0,0.0,40.0,0.0,0.0
16244,50.0,0.0,40.0,3.0,0.0
16245,71.0,0.0,40.0,2.0,0.0
16246,79.0,15.0,40.0,1.0,0.0
16247,49.0,15.0,40.0,3.0,0.0
16248,76.0,0.0,60.0,0.0,0.0
16249,76.0,0.0,60.0,4.0,0.0
16250,49.0,0.0,60.0,4.0,0.0
16251,67.0,0.0,120.0,2.0,0.0
16252,76.0,45.0,60.0,1.0,0.0
16253,75.0,45.0,60.0,1.0,0.0
16254,75.0,0.0,60.0,4.0,0.0
16255,47.0,0.0,60.0,4.0,0.0
16256,47.0,15.0,40.0,3.0,0.0
16257,75.0,0.0,60.0,0.0,0.0
16258,46.0,0.0,40.0,3.0,0.0
16259,76.0,0.0,40.0,0.0,0.0
16260,46.0,30.0,60.0,4.0,0.0
16261,76.0,0.0,60.0,4.0,0.0
16262,76.0,15.0,40.0,1.0,0.0
16263,64.0,0.0,30.0,2.0,0.0
16264,47.0,45.0,60.0,4.0,0.0
16265,79.0,0.0,30.0,4.0,0.0
16266,79.0,0.0,30.0,1.0,0.0
16267,47.0,15.0,40.0,3.0,0.0
16268,79.0,15.0,30.0,0.0,0.0
16269,62.0,0.0,30.0,2.0,0.0
16270,78.0,0.0,30.0,1.0,0.0
16271,78.0,0.0,30.0,4.0,0.0
16272,78.0,0.0,30.0,0.0,0.0
16273,79.0,0.0,40.0,0.0,0.0
16274,64.0,0.0,40.0,2.0,0.0
16275,49.0,15.0,40.0,3.0,0.0
16276,79.0,0.0,40.0,1.0,0.0
16277,49.0,0.0,60.0,4.0,0.0
16278,79.0,30.0,60.0,4.0,0.0
16279,50.0,0.0,60.0,4.0,0.0
16280,76.0,0.0,40.0,0.0,0.0
16281,76.0,0.0,60.0,4.0,0.0
16282,67.0,15.0,30.0,2.0,0.0
16283,76.0,15.0,40.0,1.0,0.0
16284,50.0,0.0,40.0,3.0,0.0
16285,66.0,45.0,30.0,2.0,0.0
16286,67.0,0.0,40.0,2.0,0.0
16287,52.0,0.0,60.0,4.0,0.0
16288,72.0,0.0,60.0,4.0,0.0
16289,72.0,45.0,60.0,1.0,0.0
16290,52.0,15.0,40.0,3.0,0.0
16291,72.0,0.0,60.0,0.0,0.0
16292,50.0,15.0,40.0,3.0,0.0
16293,71.0,0.0,60.0,4.0,0.0
16294,50.0,45.0,60.0,4.0,0.0
16295,66.0,0.0,40.0,2.0,0.0
16296,71.0,0.0,60.0,0.0,0.0
16297,71.0,0.0,60.0,1.0,0.0
16298,67.0,0.0,40.0,2.0,0.0
16299,72.0,0.0,40.0,1.0,0.0
16300,72.0,30.0,60.0,4.0,0.0
16301,52.0,0.0,60.0,4.0,0.0
16302,72.0,15.0,40.0,0.0,0.0
16303,52.0,0.0,40.0,3.0,0.0
16304,76.0,0.0,30.0,0.0,0.0
16305,69.0,15.0,40.0,2.0,0.0
16306,54.0,0.0,40.0,3.0,0.0
16307,76.0,0.0,30.0,4.0,0.0
16308,54.0,45.0,60.0,4.0,0.0
16309,76.0,15.0,30.0,1.0,0.0
16310,75.0,0.0,30.0,1.0,0.0
16311,75.0,0.0,30.0,4.0,0.0
16312,75.0,0.0,30.0,0.0,0.0
16313,76.0,0.0,40.0,1.0,0.0
16314,76.0,0.0,40.0,0.0,0.0
16315,55.0,0.0,60.0,4.0,0.0
16316,55.0,0.0,40.0,3.0,0.0
16317,76.0,45.0,60.0,4.0,0.0
16318,71.0,15.0,40.0,2.0,0.0
16319,67.0,0.0,40.0,2.0,0.0
16320,72.0,0.0,40.0,0.0,0.0
16321,72.0,0.0,40.0,1.0,0.0
16322,52.0,15.0,40.0,3.0,0.0
16323,52.0,0.0,60.0,4.0,0.0
16324,72.0,45.0,60.0,4.0,0.0
16325,70.0,0.0,40.0,1.0,0.0
16326,61.0,0.0,120.0,2.0,0.0
16327,70.0,30.0,60.0,4.0,0.0
16328,54.0,0.0,60.0,4.0,0.0
16329,70.0,15.0,40.0,0.0,0.0
16330,54.0,0.0,120.0,3.0,0.0
16331,67.0,0.0,30.0,1.0,0.0
16332,67.0,0.0,30.0,4.0,0.0
16333,67.0,0.0,30.0,0.0,0.0
16334,64.0,30.0,30.0,4.0,0.0
16335,66.0,0.0,30.0,4.0,0.0
16336,66.0,0.0,30.0,0.0,0.0
16337,66.0,45.0,30.0,1.0,0.0
16338,62.0,0.0,30.0,4.0,0.0
16339,67.0,0.0,40.0,0.0,0.0
16340,67.0,0.0,60.0,4.0,0.0
16341,67.0,15.0,40.0,1.0,0.0
16342,64.0,30.0,30.0,0.0,0.0
16343,64.0,0.0,30.0,1.0,0.0
16344,64.0,30.0,15.0,4.0,0.0
16345,61.0,0.0,30.0,4.0,0.0
16346,62.0,0.0,30.0,4.0,0.0
16347,62.0,45.0,30.0,1.0,0.0
16348,59.0,0.0,30.0,4.0,0.0
16349,62.0,0.0,30.0,0.0,0.0
16350,61.0,0.0,60.0,4.0,0.0
16351,64.0,45.0,60.0,4.0,0.0
16352,64.0,0.0,40.0,1.0,0.0
16353,64.0,15.0,40.0,0.0,0.0
16354,52.0,0.0,40.0,3.0,0.0
16355,70.0,0.0,40.0,1.0,0.0
16356,61.0,0.0,40.0,2.0,0.0
16357,70.0,45.0,60.0,4.0,0.0
16358,70.0,15.0,40.0,0.0,0.0
16359,52.0,0.0,60.0,4.0,0.0
16360,50.0,0.0,40.0,3.0,0.0
16361,71.0,0.0,40.0,1.0,0.0
16362,66.0,15.0,40.0,2.0,0.0
16363,50.0,0.0,60.0,4.0,0.0
16364,71.0,0.0,40.0,0.0,0.0
16365,71.0,30.0,60.0,4.0,0.0
16366,62.0,0.0,40.0,1.0,0.0
16367,49.0,0.0,30.0,3.0,0.0
16368,62.0,15.0,40.0,2.0,0.0
16369,62.0,0.0,40.0,0.0,0.0
16370,49.0,15.0,30.0,4.0,0.0
16371,62.0,0.0,60.0,4.0,0.0
16372,47.0,45.0,30.0,3.0,0.0
16373,47.0,0.0,30.0,4.0,0.0
16374,55.0,0.0,60.0,4.0,0.0
16375,64.0,0.0,40.0,0.0,0.0
16376,59.0,0.0,40.0,2.0,0.0
16377,64.0,0.0,40.0,1.0,0.0
16378,55.0,15.0,40.0,3.0,0.0
16379,64.0,30.0,60.0,4.0,0.0
16380,71.0,15.0,40.0,1.0,0.0
16381,71.0,0.0,40.0,0.0,0.0
16382,71.0,0.0,60.0,4.0,0.0
16383,54.0,15.0,30.0,4.0,0.0
16384,64.0,0.0,40.0,2.0,0.0
16385,54.0,0.0,30.0,3.0,0.0
16386,52.0,30.0,30.0,3.0,0.0
16387,52.0,0.0,30.0,4.0,0.0
16388,66.0,0.0,40.0,0.0,0.0
16389,61.0,15.0,40.0,2.0,0.0
16390,66.0,0.0,40.0,1.0,0.0
16391,54.0,0.0,40.0,3.0,0.0
16392,54.0,15.0,30.0,4.0,0.0
16393,66.0,0.0,60.0,4.0,0.0
16394,55.0,30.0,30.0,4.0,0.0
16395,52.0,0.0,40.0,3.0,0.0
16396,70.0,0.0,40.0,1.0,0.0
16397,70.0,45.0,60.0,4.0,0.0
16398,64.0,0.0,40.0,2.0,0.0
16399,70.0,15.0,40.0,0.0,0.0
16400,52.0,15.0,30.0,4.0,0.0
16401,54.0,0.0,30.0,4.0,0.0
16402,59.0,0.0,1260.0,1.0,0.0
16403,71.0,15.0,40.0,2.0,0.0
16404,59.0,30.0,1260.0,0.0,0.0
16405,51.0,30.0,120.0,3.0,0.0
16406,71.0,30.0,60.0,4.0,0.0
16407,51.0,0.0,120.0,4.0,0.0
16408,69.0,0.0,30.0,4.0,0.0
16409,69.0,30.0,30.0,2.0,0.0
16410,67.0,0.0,30.0,4.0,0.0
16411,67.0,0.0,30.0,2.0,0.0
16412,66.0,15.0,30.0,4.0,0.0
16413,66.0,15.0,40.0,2.0,0.0
16414,71.0,30.0,30.0,4.0,0.0
16415,54.0,15.0,40.0,3.0,0.0
16416,54.0,0.0,60.0,4.0,0.0
16417,64.0,15.0,30.0,4.0,0.0
16418,64.0,0.0,40.0,2.0,0.0
16419,71.0,30.0,30.0,4.0,0.0
16420,59.0,0.0,40.0,3.0,0.0
16421,59.0,0.0,60.0,4.0,0.0
16422,63.0,15.0,30.0,4.0,0.0
16423,63.0,15.0,40.0,2.0,0.0
16424,71.0,30.0,30.0,4.0,0.0
16425,61.0,15.0,30.0,4.0,0.0
16426,57.0,15.0,40.0,3.0,0.0
16427,61.0,0.0,40.0,2.0,0.0
16428,57.0,0.0,60.0,4.0,0.0
16429,71.0,30.0,30.0,4.0,0.0
16430,55.0,15.0,40.0,3.0,0.0
16431,55.0,0.0,60.0,4.0,0.0
16432,59.0,15.0,30.0,2.0,0.0
16433,59.0,0.0,30.0,4.0,0.0
16434,64.0,0.0,30.0,4.0,0.0
16435,64.0,30.0,30.0,2.0,0.0
16436,66.0,30.0,30.0,2.0,0.0
16437,54.0,0.0,30.0,4.0,0.0
16438,54.0,0.0,30.0,3.0,0.0
16439,66.0,0.0,30.0,4.0,0.0
16440,67.0,30.0,30.0,4.0,0.0
16441,67.0,0.0,30.0,2.0,0.0
16442,52.0,0.0,30.0,3.0,0.0
16443,52.0,0.0,30.0,4.0,0.0
16444,69.0,15.0,40.0,2.0,0.0
16445,51.0,0.0,40.0,3.0,0.0
16446,51.0,30.0,60.0,4.0,0.0
16447,69.0,15.0,30.0,4.0,0.0
16448,67.0,0.0,30.0,4.0,0.0
16449,54.0,15.0,40.0,3.0,0.0
16450,69.0,0.0,40.0,2.0,0.0
16451,54.0,30.0,60.0,4.0,0.0
16452,66.0,15.0,30.0,4.0,0.0
16453,64.0,0.0,30.0,4.0,0.0
16454,51.0,0.0,40.0,3.0,0.0
16455,69.0,15.0,40.0,2.0,0.0
16456,69.0,15.0,30.0,4.0,0.0
16457,51.0,30.0,60.0,4.0,0.0
16458,66.0,0.0,30.0,4.0,0.0
16459,69.0,0.0,40.0,2.0,0.0
16460,47.0,15.0,40.0,3.0,0.0
16461,47.0,0.0,60.0,4.0,0.0
16462,64.0,15.0,30.0,4.0,0.0
16463,63.0,30.0,30.0,4.0,0.0
16464,52.0,15.0,40.0,3.0,0.0
16465,52.0,0.0,60.0,4.0,0.0
16466,64.0,15.0,30.0,4.0,0.0
16467,69.0,0.0,40.0,2.0,0.0
16468,69.0,30.0,30.0,4.0,0.0
16469,67.0,15.0,30.0,2.0,0.0
16470,55.0,0.0,60.0,4.0,0.0
16471,67.0,0.0,30.0,4.0,0.0
16472,59.0,15.0,40.0,3.0,0.0
16473,66.0,30.0,30.0,4.0,0.0
16474,66.0,0.0,30.0,2.0,0.0
16475,67.0,15.0,30.0,4.0,0.0
16476,64.0,0.0,60.0,4.0,0.0
16477,67.0,15.0,40.0,2.0,0.0
16478,64.0,0.0,40.0,3.0,0.0
16479,71.0,30.0,30.0,4.0,0.0
16480,67.0,15.0,30.0,4.0,0.0
16481,64.0,0.0,60.0,4.0,0.0
16482,64.0,15.0,40.0,3.0,0.0
16483,64.0,0.0,30.0,2.0,0.0
16484,66.0,30.0,30.0,2.0,0.0
16485,66.0,0.0,30.0,4.0,0.0
16486,67.0,0.0,40.0,2.0,0.0
16487,64.0,15.0,40.0,3.0,0.0
16488,67.0,15.0,30.0,4.0,0.0
16489,64.0,30.0,60.0,4.0,0.0
16490,71.0,0.0,30.0,4.0,0.0
16491,62.0,15.0,30.0,4.0,0.0
16492,67.0,15.0,40.0,2.0,0.0
16493,62.0,0.0,30.0,3.0,0.0
16494,76.0,0.0,30.0,4.0,0.0
16495,61.0,0.0,30.0,3.0,0.0
16496,61.0,0.0,30.0,4.0,0.0
16497,70.0,30.0,30.0,4.0,0.0
16498,62.0,15.0,40.0,3.0,0.0
16499,67.0,0.0,40.0,2.0,0.0
16500,71.0,15.0,30.0,4.0,0.0
16501,62.0,0.0,60.0,4.0,0.0
16502,67.0,30.0,30.0,4.0,0.0
16503,62.0,0.0,30.0,3.0,0.0
16504,66.0,0.0,30.0,2.0,0.0
16505,66.0,30.0,30.0,4.0,0.0
16506,62.0,0.0,30.0,4.0,0.0
16507,61.0,0.0,30.0,3.0,0.0
16508,64.0,0.0,30.0,2.0,0.0
16509,64.0,0.0,30.0,4.0,0.0
16510,61.0,45.0,30.0,4.0,0.0
16511,66.0,0.0,40.0,2.0,0.0
16512,62.0,0.0,60.0,4.0,0.0
16513,66.0,0.0,60.0,4.0,0.0
16514,62.0,15.0,40.0,3.0,0.0
16515,74.0,0.0,30.0,2.0,0.0
16516,71.0,30.0,30.0,0.0,0.0
16517,71.0,0.0,30.0,1.0,0.0
16518,47.0,0.0,30.0,3.0,0.0
16519,71.0,0.0,30.0,4.0,0.0
16520,47.0,0.0,30.0,4.0,0.0
16521,73.0,0.0,30.0,4.0,0.0
16522,46.0,0.0,30.0,4.0,0.0
16523,46.0,30.0,30.0,3.0,0.0
16524,73.0,0.0,30.0,0.0,0.0
16525,73.0,0.0,30.0,1.0,0.0
16526,73.0,0.0,30.0,2.0,0.0
16527,74.0,0.0,40.0,0.0,0.0
16528,74.0,15.0,30.0,4.0,0.0
16529,47.0,0.0,60.0,4.0,0.0
16530,71.0,0.0,30.0,2.0,0.0
16531,74.0,0.0,40.0,1.0,0.0
16532,47.0,15.0,40.0,3.0,0.0
16533,71.0,30.0,30.0,4.0,0.0
16534,69.0,0.0,30.0,2.0,0.0
16535,67.0,0.0,30.0,2.0,0.0
16536,76.0,0.0,30.0,1.0,0.0
16537,49.0,0.0,30.0,3.0,0.0
16538,76.0,30.0,30.0,4.0,0.0
16539,49.0,0.0,30.0,4.0,0.0
16540,76.0,0.0,30.0,0.0,0.0
16541,78.0,0.0,30.0,0.0,0.0
16542,78.0,30.0,30.0,1.0,0.0
16543,50.0,0.0,30.0,3.0,0.0
16544,50.0,0.0,30.0,4.0,0.0
16545,78.0,0.0,30.0,4.0,0.0
16546,66.0,0.0,30.0,2.0,0.0
16547,79.0,0.0,40.0,0.0,0.0
16548,52.0,15.0,40.0,3.0,0.0
16549,79.0,0.0,40.0,1.0,0.0
16550,64.0,0.0,40.0,2.0,0.0
16551,52.0,0.0,60.0,4.0,0.0
16552,79.0,15.0,30.0,4.0,0.0
16553,78.0,30.0,30.0,4.0,0.0
16554,79.0,0.0,30.0,2.0,0.0
16555,76.0,0.0,30.0,1.0,0.0
16556,54.0,0.0,30.0,4.0,0.0
16557,76.0,30.0,30.0,4.0,0.0
16558,54.0,0.0,30.0,3.0,0.0
16559,76.0,0.0,30.0,0.0,0.0
16560,74.0,0.0,30.0,1.0,0.0
16561,55.0,0.0,30.0,3.0,0.0
16562,78.0,0.0,30.0,2.0,0.0
16563,74.0,0.0,30.0,0.0,0.0
16564,74.0,0.0,30.0,4.0,0.0
16565,55.0,30.0,30.0,4.0,0.0
16566,73.0,15.0,40.0,1.0,0.0
16567,73.0,0.0,40.0,0.0,0.0
16568,57.0,0.0,60.0,4.0,0.0
16569,76.0,0.0,30.0,2.0,0.0
16570,73.0,15.0,30.0,4.0,0.0
16571,57.0,0.0,40.0,3.0,0.0
16572,74.0,30.0,30.0,2.0,0.0
16573,71.0,0.0,30.0,4.0,0.0
16574,55.0,15.0,40.0,3.0,0.0
16575,55.0,0.0,60.0,4.0,0.0
16576,69.0,15.0,30.0,4.0,0.0
16577,73.0,0.0,30.0,2.0,0.0
16578,69.0,0.0,30.0,1.0,0.0
16579,69.0,0.0,30.0,0.0,0.0
16580,71.0,30.0,30.0,1.0,0.0
16581,71.0,0.0,30.0,2.0,0.0
16582,71.0,0.0,30.0,4.0,0.0
16583,71.0,0.0,30.0,0.0,0.0
16584,69.0,15.0,40.0,2.0,0.0
16585,73.0,0.0,40.0,0.0,0.0
16586,54.0,0.0,60.0,4.0,0.0
16587,73.0,30.0,60.0,1.0,0.0
16588,73.0,15.0,30.0,4.0,0.0
16589,54.0,0.0,40.0,3.0,0.0
16590,69.0,0.0,30.0,4.0,0.0
16591,67.0,15.0,40.0,2.0,0.0
16592,52.0,0.0,60.0,4.0,0.0
16593,74.0,15.0,30.0,4.0,0.0
16594,74.0,0.0,30.0,1.0,0.0
16595,74.0,0.0,30.0,0.0,0.0
16596,52.0,0.0,40.0,3.0,0.0
16597,76.0,0.0,30.0,1.0,0.0
16598,76.0,0.0,30.0,0.0,0.0
16599,76.0,45.0,30.0,4.0,0.0
16600,78.0,15.0,40.0,0.0,0.0
16601,78.0,0.0,40.0,1.0,0.0
16602,50.0,30.0,60.0,4.0,0.0
16603,66.0,0.0,40.0,2.0,0.0
16604,78.0,0.0,60.0,4.0,0.0
16605,50.0,0.0,40.0,3.0,0.0
16606,74.0,0.0,30.0,1.0,0.0
16607,74.0,0.0,30.0,0.0,0.0
16608,74.0,0.0,30.0,4.0,0.0
16609,52.0,0.0,30.0,3.0,0.0
16610,68.0,30.0,30.0,2.0,0.0
16611,52.0,0.0,30.0,4.0,0.0
16612,54.0,0.0,30.0,4.0,0.0
16613,73.0,0.0,30.0,4.0,0.0
16614,54.0,0.0,30.0,3.0,0.0
16615,73.0,45.0,30.0,1.0,0.0
16616,70.0,0.0,30.0,2.0,0.0
16617,73.0,0.0,30.0,0.0,0.0
16618,55.0,0.0,60.0,4.0,0.0
16619,55.0,30.0,60.0,3.0,0.0
16620,71.0,15.0,40.0,2.0,0.0
16621,71.0,0.0,60.0,0.0,0.0
16622,71.0,0.0,60.0,1.0,0.0
16623,71.0,0.0,30.0,4.0,0.0
16624,70.0,0.0,30.0,4.0,0.0
16625,71.0,30.0,30.0,2.0,0.0
16626,70.0,45.0,30.0,2.0,0.0
16627,71.0,30.0,60.0,4.0,0.0
16628,71.0,15.0,40.0,2.0,0.0
16629,74.0,0.0,30.0,4.0,0.0
16630,67.0,30.0,60.0,4.0,0.0
16631,67.0,15.0,40.0,2.0,0.0
16632,83.0,15.0,30.0,4.0,0.0
16633,74.0,0.0,30.0,4.0,0.0
16634,64.0,0.0,60.0,2.0,0.0
16635,57.0,0.0,60.0,4.0,0.0
16636,74.0,30.0,30.0,4.0,0.0
16637,69.0,0.0,120.0,0.0,0.0
16638,64.0,0.0,120.0,1.0,0.0
16639,64.0,0.0,60.0,4.0,0.0
16640,57.0,0.0,120.0,3.0,0.0
16641,83.0,30.0,30.0,4.0,0.0
16642,63.0,30.0,60.0,2.0,0.0
16643,72.0,30.0,30.0,4.0,0.0
16644,63.0,0.0,60.0,4.0,0.0
16645,71.0,0.0,30.0,4.0,0.0
16646,72.0,15.0,30.0,4.0,0.0
16647,64.0,30.0,60.0,4.0,0.0
16648,64.0,15.0,40.0,2.0,0.0
16649,81.0,0.0,30.0,4.0,0.0
16650,67.0,30.0,30.0,4.0,0.0
16651,67.0,0.0,30.0,2.0,0.0
16652,71.0,0.0,30.0,4.0,0.0
16653,66.0,0.0,30.0,2.0,0.0
16654,69.0,30.0,30.0,4.0,0.0
16655,66.0,0.0,30.0,4.0,0.0
16656,67.0,15.0,40.0,2.0,0.0
16657,67.0,30.0,60.0,4.0,0.0
16658,71.0,15.0,30.0,4.0,0.0
16659,79.0,0.0,30.0,4.0,0.0
16660,69.0,15.0,30.0,4.0,0.0
16661,64.0,0.0,60.0,4.0,0.0
16662,64.0,15.0,40.0,2.0,0.0
16663,67.0,30.0,30.0,4.0,0.0
16664,60.0,0.0,60.0,4.0,0.0
16665,60.0,30.0,60.0,2.0,0.0
16666,64.0,0.0,120.0,1.0,0.0
16667,55.0,30.0,120.0,3.0,0.0
16668,55.0,0.0,60.0,4.0,0.0
16669,69.0,30.0,30.0,4.0,0.0
16670,69.0,0.0,120.0,0.0,0.0
16671,78.0,0.0,30.0,4.0,0.0
16672,59.0,0.0,60.0,4.0,0.0
16673,76.0,30.0,30.0,4.0,0.0
16674,59.0,0.0,60.0,2.0,0.0
16675,75.0,0.0,30.0,4.0,0.0
16676,60.0,15.0,40.0,2.0,0.0
16677,76.0,15.0,30.0,4.0,0.0
16678,60.0,30.0,60.0,4.0,0.0
16679,79.0,0.0,30.0,4.0,0.0
16680,72.0,30.0,30.0,4.0,0.0
16681,64.0,0.0,30.0,2.0,0.0
16682,64.0,0.0,30.0,4.0,0.0
16683,71.0,30.0,30.0,4.0,0.0
16684,63.0,0.0,30.0,4.0,0.0
16685,63.0,0.0,30.0,2.0,0.0
16686,64.0,30.0,60.0,4.0,0.0
16687,64.0,15.0,40.0,2.0,0.0
16688,72.0,15.0,30.0,4.0,0.0
16689,76.0,0.0,30.0,4.0,0.0
16690,60.0,0.0,60.0,4.0,0.0
16691,79.0,15.0,30.0,4.0,0.0
16692,60.0,15.0,40.0,2.0,0.0
16693,76.0,45.0,30.0,4.0,0.0
16694,85.0,30.0,60.0,4.0,0.0
16695,58.0,0.0,60.0,4.0,0.0
16696,58.0,15.0,40.0,2.0,0.0
16697,79.0,0.0,30.0,4.0,0.0
16698,79.0,0.0,30.0,1.0,0.0
16699,79.0,0.0,30.0,0.0,0.0
16700,67.0,0.0,30.0,4.0,0.0
16701,67.0,0.0,30.0,2.0,0.0
16702,67.0,30.0,30.0,3.0,0.0
16703,78.0,0.0,30.0,0.0,0.0
16704,78.0,0.0,30.0,4.0,0.0
16705,66.0,0.0,30.0,4.0,0.0
16706,66.0,0.0,30.0,2.0,0.0
16707,78.0,45.0,30.0,1.0,0.0
16708,66.0,0.0,30.0,3.0,0.0
16709,79.0,0.0,40.0,0.0,0.0
16710,79.0,30.0,60.0,4.0,0.0
16711,67.0,0.0,60.0,4.0,0.0
16712,67.0,0.0,40.0,3.0,0.0
16713,79.0,0.0,40.0,1.0,0.0
16714,67.0,15.0,40.0,2.0,0.0
16715,76.0,0.0,30.0,1.0,0.0
16716,64.0,30.0,30.0,2.0,0.0
16717,64.0,0.0,30.0,4.0,0.0
16718,64.0,0.0,30.0,3.0,0.0
16719,76.0,0.0,30.0,0.0,0.0
16720,76.0,0.0,30.0,4.0,0.0
16721,63.0,0.0,30.0,4.0,0.0
16722,75.0,0.0,30.0,4.0,0.0
16723,63.0,45.0,30.0,3.0,0.0
16724,63.0,0.0,30.0,2.0,0.0
16725,75.0,0.0,30.0,1.0,0.0
16726,75.0,0.0,30.0,0.0,0.0
16727,64.0,0.0,60.0,4.0,0.0
16728,76.0,0.0,40.0,0.0,0.0
16729,64.0,0.0,40.0,3.0,0.0
16730,64.0,15.0,40.0,2.0,0.0
16731,76.0,45.0,60.0,4.0,0.0
16732,76.0,0.0,40.0,1.0,0.0
16733,61.0,0.0,40.0,2.0,0.0
16734,82.0,0.0,40.0,0.0,0.0
16735,52.0,0.0,40.0,3.0,0.0
16736,82.0,0.0,60.0,4.0,0.0
16737,52.0,20.0,60.0,4.0,0.0
16738,82.0,15.0,40.0,1.0,0.0
16739,83.0,0.0,40.0,0.0,0.0
16740,83.0,15.0,40.0,1.0,0.0
16741,50.0,0.0,40.0,3.0,0.0
16742,85.0,20.0,20.0,4.0,0.0
16743,50.0,0.0,60.0,4.0,0.0
16744,66.0,0.0,40.0,2.0,0.0
16745,83.0,5.0,20.0,4.0,0.0
16746,82.0,30.0,20.0,4.0,0.0
16747,83.0,15.0,30.0,4.0,0.0
16748,47.0,15.0,60.0,4.0,0.0
16749,71.0,0.0,30.0,2.0,0.0
16750,47.0,0.0,40.0,3.0,0.0
16751,74.0,15.0,40.0,1.0,0.0
16752,74.0,0.0,40.0,0.0,0.0
16753,85.0,0.0,30.0,4.0,0.0
16754,69.0,0.0,30.0,2.0,0.0
16755,52.0,15.0,40.0,3.0,0.0
16756,52.0,0.0,60.0,4.0,0.0
16757,76.0,0.0,40.0,1.0,0.0
16758,67.0,0.0,40.0,2.0,0.0
16759,76.0,0.0,40.0,0.0,0.0
16760,85.0,15.0,15.0,4.0,0.0
16761,86.0,15.0,15.0,4.0,0.0
16762,85.0,0.0,15.0,4.0,0.0
16763,86.0,15.0,15.0,4.0,0.0
16764,83.0,0.0,40.0,1.0,0.0
16765,64.0,0.0,40.0,2.0,0.0
16766,49.0,0.0,40.0,3.0,0.0
16767,83.0,15.0,40.0,0.0,0.0
16768,49.0,0.0,60.0,4.0,0.0
16769,85.0,15.0,15.0,4.0,0.0
16770,86.0,15.0,15.0,4.0,0.0
16771,85.0,0.0,15.0,4.0,0.0
16772,86.0,15.0,15.0,4.0,0.0
16773,73.0,0.0,40.0,1.0,0.0
16774,54.0,0.0,60.0,4.0,0.0
16775,85.0,15.0,15.0,4.0,0.0
16776,54.0,0.0,40.0,3.0,0.0
16777,73.0,0.0,40.0,0.0,0.0
16778,61.0,15.0,40.0,2.0,0.0
16779,86.0,15.0,15.0,4.0,0.0
16780,85.0,0.0,15.0,4.0,0.0
16781,86.0,45.0,15.0,4.0,0.0
16782,66.0,0.0,40.0,2.0,0.0
16783,82.0,15.0,40.0,1.0,0.0
16784,82.0,0.0,40.0,0.0,0.0
16785,42.0,0.0,40.0,3.0,0.0
16786,42.0,45.0,60.0,4.0,0.0
16787,83.0,0.0,15.0,4.0,0.0
16788,47.0,15.0,40.0,3.0,0.0
16789,47.0,0.0,120.0,4.0,0.0
16790,83.0,0.0,120.0,0.0,0.0
16791,83.0,45.0,720.0,1.0,0.0
16792,62.0,15.0,120.0,2.0,0.0
16793,86.0,0.0,30.0,4.0,0.0
16794,54.0,15.0,30.0,3.0,0.0
16795,85.0,0.0,30.0,4.0,0.0
16796,52.0,30.0,30.0,3.0,0.0
16797,86.0,0.0,600.0,0.0,0.0
16798,86.0,15.0,30.0,4.0,0.0
16799,66.0,0.0,240.0,2.0,0.0
16800,54.0,15.0,40.0,3.0,0.0
16801,88.0,30.0,30.0,4.0,0.0
16802,86.0,0.0,30.0,4.0,0.0
16803,59.0,0.0,30.0,4.0,0.0
16804,59.0,30.0,30.0,3.0,0.0
16805,61.0,30.0,30.0,4.0,0.0
16806,85.0,0.0,30.0,4.0,0.0
16807,58.0,0.0,30.0,3.0,0.0
16808,59.0,15.0,40.0,3.0,0.0
16809,62.0,0.0,60.0,4.0,0.0
16810,83.0,15.0,30.0,4.0,0.0
16811,85.0,30.0,30.0,4.0,0.0
16812,86.0,15.0,30.0,4.0,0.0
16813,59.0,30.0,60.0,4.0,0.0
16814,47.0,15.0,40.0,3.0,0.0
16815,83.0,0.0,30.0,4.0,0.0
16816,68.0,0.0,360.0,2.0,0.0
16817,52.0,15.0,40.0,3.0,0.0
16818,64.0,30.0,60.0,4.0,0.0
16819,80.0,15.0,30.0,4.0,0.0
16820,78.0,0.0,30.0,4.0,0.0
16821,59.0,30.0,60.0,4.0,0.0
16822,76.0,15.0,30.0,4.0,0.0
16823,54.0,15.0,40.0,3.0,0.0
16824,74.0,0.0,30.0,4.0,0.0
16825,56.0,15.0,40.0,3.0,0.0
16826,56.0,30.0,60.0,4.0,0.0
16827,76.0,15.0,30.0,4.0,0.0
16828,78.0,0.0,30.0,4.0,0.0
16829,52.0,15.0,40.0,3.0,0.0
16830,76.0,15.0,30.0,4.0,0.0
16831,52.0,30.0,60.0,4.0,0.0
16832,74.0,0.0,30.0,4.0,0.0
16833,54.0,15.0,40.0,3.0,0.0
16834,54.0,30.0,60.0,4.0,0.0
16835,73.0,15.0,30.0,4.0,0.0
16836,74.0,0.0,30.0,4.0,0.0
16837,56.0,0.0,60.0,4.0,0.0
16838,76.0,15.0,30.0,4.0,0.0
16839,56.0,15.0,40.0,3.0,0.0
16840,73.0,0.0,30.0,4.0,0.0
16841,45.0,15.0,40.0,3.0,0.0
16842,64.0,15.0,120.0,2.0,0.0
16843,57.0,0.0,60.0,4.0,0.0
16844,69.0,30.0,60.0,4.0,0.0
16845,85.0,45.0,720.0,0.0,0.0
16846,81.0,0.0,720.0,1.0,0.0
16847,85.0,0.0,30.0,4.0,0.0
16848,52.0,15.0,30.0,3.0,0.0
16849,45.0,0.0,60.0,4.0,0.0
16850,83.0,0.0,30.0,4.0,0.0
16851,50.0,30.0,30.0,3.0,0.0
16852,85.0,15.0,30.0,4.0,0.0
16853,69.0,0.0,600.0,2.0,0.0
16854,52.0,15.0,40.0,3.0,0.0
16855,86.0,30.0,30.0,4.0,0.0
16856,57.0,30.0,30.0,3.0,0.0
16857,85.0,0.0,30.0,4.0,0.0
16858,57.0,0.0,30.0,4.0,0.0
16859,59.0,30.0,30.0,4.0,0.0
16860,83.0,0.0,30.0,4.0,0.0
16861,56.0,0.0,30.0,3.0,0.0
16862,57.0,15.0,40.0,3.0,0.0
16863,61.0,30.0,60.0,4.0,0.0
16864,81.0,15.0,30.0,4.0,0.0
16865,83.0,0.0,30.0,4.0,0.0
16866,45.0,15.0,40.0,3.0,0.0
16867,57.0,30.0,60.0,4.0,0.0
16868,85.0,15.0,30.0,4.0,0.0
16869,81.0,0.0,30.0,4.0,0.0
16870,78.0,15.0,30.0,4.0,0.0
16871,62.0,30.0,60.0,4.0,0.0
16872,50.0,15.0,40.0,3.0,0.0
16873,76.0,0.0,30.0,4.0,0.0
16874,57.0,30.0,60.0,4.0,0.0
16875,74.0,15.0,30.0,4.0,0.0
16876,52.0,15.0,40.0,3.0,0.0
16877,73.0,0.0,30.0,4.0,0.0
16878,54.0,15.0,40.0,3.0,0.0
16879,54.0,30.0,60.0,4.0,0.0
16880,74.0,15.0,30.0,4.0,0.0
16881,76.0,0.0,30.0,4.0,0.0
16882,50.0,15.0,40.0,3.0,0.0
16883,50.0,0.0,60.0,4.0,0.0
16884,74.0,15.0,30.0,4.0,0.0
16885,73.0,30.0,30.0,4.0,0.0
16886,71.0,15.0,30.0,4.0,0.0
16887,52.0,30.0,60.0,4.0,0.0
16888,52.0,15.0,40.0,3.0,0.0
16889,73.0,0.0,30.0,4.0,0.0
16890,54.0,15.0,40.0,3.0,0.0
16891,54.0,0.0,60.0,4.0,0.0
16892,74.0,15.0,30.0,4.0,0.0
16893,71.0,0.0,30.0,4.0,0.0
16894,56.0,30.0,60.0,4.0,0.0
16895,68.0,0.0,60.0,4.0,0.0
16896,80.0,0.0,720.0,1.0,0.0
16897,71.0,30.0,360.0,2.0,0.0
16898,83.0,30.0,720.0,0.0,0.0
16899,44.0,15.0,40.0,3.0,0.0
16900,83.0,30.0,30.0,4.0,0.0
16901,51.0,0.0,30.0,3.0,0.0
16902,44.0,0.0,60.0,4.0,0.0
16903,49.0,30.0,30.0,3.0,0.0
16904,81.0,0.0,30.0,4.0,0.0
16905,83.0,15.0,30.0,4.0,0.0
16906,51.0,15.0,40.0,3.0,0.0
16907,85.0,30.0,30.0,4.0,0.0
16908,56.0,30.0,30.0,3.0,0.0
16909,83.0,0.0,30.0,4.0,0.0
16910,56.0,0.0,30.0,4.0,0.0
16911,57.0,0.0,30.0,4.0,0.0
16912,54.0,30.0,30.0,3.0,0.0
16913,81.0,0.0,30.0,4.0,0.0
16914,80.0,15.0,30.0,4.0,0.0
16915,59.0,0.0,60.0,4.0,0.0
16916,56.0,15.0,40.0,3.0,0.0
16917,81.0,30.0,30.0,4.0,0.0
16918,83.0,15.0,30.0,4.0,0.0
16919,44.0,15.0,40.0,3.0,0.0
16920,56.0,0.0,60.0,4.0,0.0
16921,80.0,0.0,30.0,4.0,0.0
16922,61.0,30.0,60.0,4.0,0.0
16923,77.0,15.0,30.0,4.0,0.0
16924,49.0,15.0,40.0,3.0,0.0
16925,75.0,0.0,30.0,4.0,0.0
16926,73.0,15.0,30.0,4.0,0.0
16927,56.0,30.0,60.0,4.0,0.0
16928,51.0,15.0,40.0,3.0,0.0
16929,72.0,0.0,30.0,4.0,0.0
16930,53.0,15.0,40.0,3.0,0.0
16931,73.0,15.0,30.0,4.0,0.0
16932,65.0,30.0,60.0,4.0,0.0
16933,74.0,0.0,30.0,4.0,0.0
16934,61.0,30.0,60.0,4.0,0.0
16935,49.0,15.0,40.0,3.0,0.0
16936,73.0,15.0,30.0,4.0,0.0
16937,71.0,0.0,30.0,4.0,0.0
16938,63.0,0.0,60.0,4.0,0.0
16939,69.0,15.0,30.0,4.0,0.0
16940,51.0,15.0,40.0,3.0,0.0
16941,71.0,30.0,30.0,4.0,0.0
16942,53.0,15.0,40.0,3.0,0.0
16943,65.0,0.0,60.0,4.0,0.0
16944,73.0,15.0,30.0,4.0,0.0
16945,69.0,0.0,30.0,4.0,0.0
16946,73.0,0.0,15.0,2.0,0.0
16947,81.0,0.0,120.0,4.0,0.0
16948,78.0,0.0,120.0,4.0,0.0
16949,78.0,0.0,120.0,1.0,0.0
16950,73.0,0.0,120.0,4.0,0.0
16951,66.0,30.0,30.0,4.0,0.0
16952,42.0,30.0,120.0,3.0,0.0
16953,81.0,0.0,120.0,0.0,0.0
16954,68.0,30.0,30.0,4.0,0.0
16955,69.0,30.0,30.0,4.0,0.0
16956,71.0,0.0,30.0,4.0,0.0
16957,73.0,30.0,30.0,4.0,0.0
16958,75.0,30.0,30.0,4.0,0.0
16959,77.0,30.0,30.0,4.0,0.0
16960,78.0,30.0,30.0,4.0,0.0
16961,77.0,30.0,30.0,4.0,0.0
16962,78.0,30.0,30.0,4.0,0.0
16963,77.0,30.0,30.0,4.0,0.0
16964,78.0,60.0,30.0,4.0,0.0
16965,68.0,0.0,120.0,2.0,0.0
16966,77.0,0.0,120.0,4.0,0.0
16967,68.0,30.0,60.0,4.0,0.0
16968,83.0,0.0,120.0,0.0,0.0
16969,77.0,30.0,120.0,1.0,0.0
16970,83.0,0.0,90.0,4.0,0.0
16971,69.0,30.0,30.0,4.0,0.0
16972,71.0,0.0,30.0,4.0,0.0
16973,73.0,30.0,30.0,4.0,0.0
16974,75.0,30.0,30.0,4.0,0.0
16975,77.0,30.0,30.0,4.0,0.0
16976,78.0,30.0,30.0,4.0,0.0
16977,77.0,30.0,30.0,4.0,0.0
16978,78.0,30.0,30.0,4.0,0.0
16979,77.0,30.0,30.0,4.0,0.0
16980,78.0,30.0,30.0,4.0,0.0
16981,85.0,0.0,120.0,0.0,0.0
16982,69.0,0.0,120.0,2.0,0.0
16983,78.0,0.0,120.0,1.0,0.0
16984,69.0,30.0,30.0,4.0,0.0
16985,85.0,0.0,120.0,4.0,0.0
16986,78.0,30.0,90.0,4.0,0.0
16987,68.0,30.0,30.0,4.0,0.0
16988,69.0,30.0,30.0,4.0,0.0
16989,71.0,0.0,30.0,4.0,0.0
16990,73.0,30.0,30.0,4.0,0.0
16991,75.0,30.0,30.0,4.0,0.0
16992,77.0,30.0,30.0,4.0,0.0
16993,78.0,30.0,30.0,4.0,0.0
16994,77.0,30.0,30.0,4.0,0.0
16995,78.0,30.0,30.0,4.0,0.0
16996,77.0,60.0,30.0,4.0,0.0
16997,78.0,0.0,150.0,4.0,0.0
16998,71.0,30.0,30.0,4.0,0.0
16999,83.0,0.0,120.0,4.0,0.0
17000,86.0,0.0,120.0,4.0,0.0
17001,86.0,30.0,120.0,0.0,0.0
17002,71.0,0.0,120.0,2.0,0.0
17003,78.0,0.0,120.0,1.0,0.0
17004,70.0,30.0,30.0,4.0,0.0
17005,71.0,30.0,30.0,4.0,0.0
17006,73.0,0.0,30.0,4.0,0.0
17007,74.0,30.0,30.0,4.0,0.0
17008,76.0,30.0,30.0,4.0,0.0
17009,78.0,30.0,30.0,4.0,0.0
17010,80.0,30.0,30.0,4.0,0.0
17011,82.0,30.0,30.0,4.0,0.0
17012,83.0,30.0,30.0,4.0,0.0
17013,82.0,30.0,30.0,4.0,0.0
17014,83.0,60.0,30.0,4.0,0.0
17015,82.0,0.0,120.0,0.0,0.0
17016,73.0,0.0,120.0,2.0,0.0
17017,76.0,30.0,120.0,1.0,0.0
17018,73.0,30.0,60.0,4.0,0.0
17019,82.0,0.0,120.0,4.0,0.0
17020,88.0,0.0,90.0,4.0,0.0
17021,74.0,30.0,30.0,4.0,0.0
17022,76.0,0.0,30.0,4.0,0.0
17023,78.0,30.0,30.0,4.0,0.0
17024,80.0,30.0,30.0,4.0,0.0
17025,82.0,30.0,30.0,4.0,0.0
17026,83.0,30.0,30.0,4.0,0.0
17027,82.0,30.0,30.0,4.0,0.0
17028,83.0,30.0,30.0,4.0,0.0
17029,82.0,30.0,30.0,4.0,0.0
17030,83.0,30.0,30.0,4.0,0.0
17031,74.0,30.0,30.0,4.0,0.0
17032,90.0,0.0,120.0,4.0,0.0
17033,78.0,0.0,120.0,1.0,0.0
17034,83.0,0.0,120.0,0.0,0.0
17035,74.0,0.0,120.0,2.0,0.0
17036,73.0,30.0,30.0,4.0,0.0
17037,83.0,0.0,90.0,4.0,0.0
17038,74.0,30.0,30.0,4.0,0.0
17039,76.0,30.0,30.0,4.0,0.0
17040,78.0,30.0,30.0,4.0,0.0
17041,80.0,30.0,30.0,4.0,0.0
17042,82.0,30.0,30.0,4.0,0.0
17043,83.0,30.0,30.0,4.0,0.0
17044,82.0,30.0,30.0,4.0,0.0
17045,83.0,30.0,30.0,4.0,0.0
17046,82.0,30.0,30.0,4.0,0.0
17047,83.0,30.0,30.0,4.0,0.0
17048,78.0,0.0,120.0,1.0,0.0
17049,84.0,0.0,120.0,0.0,0.0
17050,75.0,30.0,30.0,4.0,0.0
17051,90.0,0.0,120.0,4.0,0.0
17052,75.0,0.0,120.0,2.0,0.0
17053,73.0,30.0,30.0,4.0,0.0
17054,84.0,30.0,90.0,4.0,0.0
17055,75.0,30.0,30.0,4.0,0.0
17056,76.0,0.0,30.0,4.0,0.0
17057,78.0,30.0,30.0,4.0,0.0
17058,80.0,30.0,30.0,4.0,0.0
17059,81.0,30.0,30.0,4.0,0.0
17060,85.0,30.0,30.0,4.0,0.0
17061,84.0,30.0,30.0,4.0,0.0
17062,85.0,30.0,30.0,4.0,0.0
17063,84.0,60.0,30.0,4.0,0.0
17064,85.0,0.0,150.0,4.0,0.0
17065,80.0,0.0,120.0,1.0,0.0
17066,85.0,0.0,120.0,0.0,0.0
17067,76.0,30.0,30.0,4.0,0.0
17068,76.0,0.0,120.0,2.0,0.0
17069,75.0,30.0,30.0,4.0,0.0
17070,76.0,30.0,30.0,4.0,0.0
17071,78.0,30.0,30.0,4.0,0.0
17072,80.0,0.0,15.0,4.0,0.0
17073,81.0,30.0,30.0,4.0,0.0
17074,83.0,30.0,30.0,4.0,0.0
17075,85.0,15.0,30.0,4.0,0.0
17076,86.0,15.0,15.0,4.0,0.0
17077,85.0,15.0,15.0,4.0,0.0
17078,83.0,15.0,15.0,4.0,0.0
17079,81.0,15.0,15.0,4.0,0.0
17080,80.0,15.0,15.0,4.0,0.0
17081,78.0,15.0,15.0,4.0,0.0
17082,77.0,15.0,15.0,4.0,0.0
17083,75.0,30.0,15.0,4.0,0.0
17084,86.0,0.0,40.0,0.0,0.0
17085,80.0,15.0,40.0,1.0,0.0
17086,77.0,15.0,30.0,4.0,0.0
17087,77.0,0.0,40.0,2.0,0.0
17088,78.0,30.0,30.0,4.0,0.0
17089,86.0,15.0,40.0,0.0,0.0
17090,80.0,15.0,30.0,4.0,0.0
17091,80.0,0.0,40.0,1.0,0.0
17092,77.0,0.0,40.0,2.0,0.0
17093,83.0,30.0,30.0,4.0,0.0
17094,80.0,15.0,30.0,4.0,0.0
17095,86.0,15.0,40.0,0.0,0.0
17096,77.0,0.0,40.0,2.0,0.0
17097,83.0,0.0,40.0,1.0,0.0
17098,81.0,30.0,30.0,4.0,0.0
17099,86.0,15.0,40.0,0.0,0.0
17100,77.0,0.0,40.0,2.0,0.0
17101,83.0,0.0,40.0,1.0,0.0
17102,83.0,15.0,30.0,4.0,0.0
17103,86.0,30.0,30.0,4.0,0.0
17104,83.0,15.0,30.0,4.0,0.0
17105,77.0,0.0,40.0,2.0,0.0
17106,80.0,15.0,40.0,1.0,0.0
17107,86.0,0.0,40.0,0.0,0.0
17108,85.0,30.0,30.0,4.0,0.0
17109,77.0,15.0,40.0,2.0,0.0
17110,86.0,15.0,30.0,4.0,0.0
17111,86.0,0.0,40.0,0.0,0.0
17112,80.0,0.0,40.0,1.0,0.0
17113,89.0,30.0,30.0,4.0,0.0
17114,85.0,0.0,40.0,0.0,0.0
17115,82.0,15.0,30.0,4.0,0.0
17116,76.0,0.0,40.0,2.0,0.0
17117,82.0,15.0,40.0,1.0,0.0
17118,83.0,30.0,30.0,4.0,0.0
17119,76.0,0.0,40.0,2.0,0.0
17120,85.0,15.0,30.0,4.0,0.0
17121,82.0,15.0,40.0,1.0,0.0
17122,85.0,0.0,40.0,0.0,0.0
17123,90.0,30.0,30.0,4.0,0.0
17124,76.0,0.0,40.0,2.0,0.0
17125,82.0,15.0,40.0,1.0,0.0
17126,78.0,15.0,30.0,4.0,0.0
17127,85.0,0.0,40.0,0.0,0.0
17128,80.0,30.0,30.0,4.0,0.0
17129,85.0,0.0,40.0,0.0,0.0
17130,82.0,15.0,30.0,4.0,0.0
17131,76.0,15.0,40.0,2.0,0.0
17132,82.0,0.0,40.0,1.0,0.0
17133,85.0,30.0,30.0,4.0,0.0
17134,82.0,0.0,40.0,1.0,0.0
17135,76.0,0.0,40.0,2.0,0.0
17136,85.0,15.0,40.0,0.0,0.0
17137,76.0,15.0,30.0,4.0,0.0
17138,78.0,30.0,30.0,4.0,0.0
17139,79.0,15.0,30.0,4.0,0.0
17140,76.0,15.0,40.0,2.0,0.0
17141,82.0,0.0,40.0,1.0,0.0
17142,85.0,0.0,40.0,0.0,0.0
17143,82.0,30.0,30.0,4.0,0.0
17144,75.0,15.0,40.0,2.0,0.0
17145,75.0,15.0,30.0,4.0,0.0
17146,81.0,0.0,40.0,1.0,0.0
17147,84.0,0.0,40.0,0.0,0.0
17148,76.0,30.0,30.0,4.0,0.0
17149,75.0,0.0,40.0,2.0,0.0
17150,78.0,15.0,30.0,4.0,0.0
17151,84.0,0.0,40.0,0.0,0.0
17152,81.0,15.0,40.0,1.0,0.0
17153,81.0,30.0,30.0,4.0,0.0
17154,75.0,0.0,40.0,2.0,0.0
17155,78.0,15.0,30.0,4.0,0.0
17156,84.0,0.0,40.0,0.0,0.0
17157,81.0,15.0,40.0,1.0,0.0
17158,80.0,30.0,30.0,4.0,0.0
17159,75.0,0.0,40.0,2.0,0.0
17160,81.0,0.0,40.0,1.0,0.0
17161,84.0,15.0,40.0,0.0,0.0
17162,81.0,15.0,30.0,4.0,0.0
17163,84.0,30.0,30.0,4.0,0.0
17164,75.0,0.0,40.0,2.0,0.0
17165,84.0,15.0,40.0,0.0,0.0
17166,81.0,15.0,30.0,4.0,0.0
17167,78.0,0.0,40.0,1.0,0.0
17168,83.0,30.0,30.0,4.0,0.0
17169,84.0,15.0,30.0,4.0,0.0
17170,78.0,0.0,40.0,1.0,0.0
17171,84.0,15.0,40.0,0.0,0.0
17172,75.0,0.0,40.0,2.0,0.0
17173,87.0,30.0,30.0,4.0,0.0
17174,74.0,0.0,40.0,2.0,0.0
17175,80.0,15.0,30.0,4.0,0.0
17176,83.0,15.0,40.0,0.0,0.0
17177,80.0,0.0,40.0,1.0,0.0
17178,81.0,30.0,30.0,4.0,0.0
17179,83.0,15.0,30.0,4.0,0.0
17180,83.0,15.0,40.0,0.0,0.0
17181,80.0,0.0,40.0,1.0,0.0
17182,74.0,0.0,40.0,2.0,0.0
17183,88.0,30.0,30.0,4.0,0.0
17184,76.0,15.0,30.0,4.0,0.0
17185,74.0,0.0,40.0,2.0,0.0
17186,80.0,0.0,40.0,1.0,0.0
17187,83.0,15.0,40.0,0.0,0.0
17188,78.0,30.0,30.0,4.0,0.0
17189,74.0,15.0,40.0,2.0,0.0
17190,80.0,0.0,40.0,1.0,0.0
17191,83.0,0.0,40.0,0.0,0.0
17192,80.0,15.0,30.0,4.0,0.0
17193,83.0,30.0,30.0,4.0,0.0
17194,74.0,15.0,30.0,4.0,0.0
17195,83.0,0.0,40.0,0.0,0.0
17196,80.0,15.0,40.0,1.0,0.0
17197,74.0,0.0,40.0,2.0,0.0
17198,76.0,30.0,30.0,4.0,0.0
17199,80.0,0.0,40.0,1.0,0.0
17200,83.0,0.0,40.0,0.0,0.0
17201,77.0,15.0,30.0,4.0,0.0
17202,74.0,15.0,40.0,2.0,0.0
17203,80.0,30.0,30.0,4.0,0.0
17204,73.0,0.0,40.0,2.0,0.0
17205,79.0,15.0,40.0,1.0,0.0
17206,82.0,0.0,40.0,0.0,0.0
17207,73.0,15.0,30.0,4.0,0.0
17208,74.0,30.0,30.0,4.0,0.0
17209,82.0,0.0,40.0,0.0,0.0
17210,73.0,15.0,40.0,2.0,0.0
17211,76.0,15.0,30.0,4.0,0.0
17212,79.0,0.0,40.0,1.0,0.0
17213,79.0,30.0,30.0,4.0,0.0
17214,73.0,15.0,40.0,2.0,0.0
17215,82.0,0.0,40.0,0.0,0.0
17216,76.0,15.0,30.0,4.0,0.0
17217,79.0,0.0,40.0,1.0,0.0
17218,78.0,30.0,30.0,4.0,0.0
17219,82.0,15.0,40.0,0.0,0.0
17220,73.0,0.0,40.0,2.0,0.0
17221,79.0,0.0,40.0,1.0,0.0
17222,79.0,15.0,30.0,4.0,0.0
17223,82.0,30.0,30.0,4.0,0.0
17224,79.0,15.0,30.0,4.0,0.0
17225,76.0,15.0,40.0,1.0,0.0
17226,73.0,0.0,40.0,2.0,0.0
17227,82.0,0.0,40.0,0.0,0.0
17228,81.0,30.0,30.0,4.0,0.0
17229,73.0,15.0,40.0,2.0,0.0
17230,82.0,0.0,40.0,0.0,0.0
17231,76.0,0.0,40.0,1.0,0.0
17232,82.0,15.0,30.0,4.0,0.0
17233,85.0,30.0,30.0,4.0,0.0
17234,72.0,0.0,40.0,2.0,0.0
17235,81.0,0.0,40.0,0.0,0.0
17236,78.0,15.0,40.0,1.0,0.0
17237,78.0,15.0,30.0,4.0,0.0
17238,79.0,30.0,30.0,4.0,0.0
17239,72.0,0.0,40.0,2.0,0.0
17240,78.0,15.0,40.0,1.0,0.0
17241,81.0,0.0,40.0,0.0,0.0
17242,81.0,15.0,30.0,4.0,0.0
17243,86.0,30.0,30.0,4.0,0.0
17244,81.0,0.0,40.0,0.0,0.0
17245,78.0,15.0,40.0,1.0,0.0
17246,74.0,15.0,30.0,4.0,0.0
17247,72.0,0.0,40.0,2.0,0.0
17248,76.0,30.0,30.0,4.0,0.0
17249,78.0,15.0,30.0,4.0,0.0
17250,72.0,0.0,40.0,2.0,0.0
17251,78.0,0.0,40.0,1.0,0.0
17252,81.0,15.0,40.0,0.0,0.0
17253,81.0,30.0,30.0,4.0,0.0
17254,69.0,15.0,30.0,4.0,0.0
17255,81.0,15.0,40.0,0.0,0.0
17256,78.0,0.0,40.0,1.0,0.0
17257,72.0,0.0,40.0,2.0,0.0
17258,71.0,30.0,30.0,4.0,0.0
17259,72.0,15.0,30.0,4.0,0.0
17260,81.0,15.0,40.0,0.0,0.0
17261,72.0,0.0,40.0,2.0,0.0
17262,78.0,0.0,40.0,1.0,0.0
17263,78.0,30.0,30.0,4.0,0.0
17264,71.0,15.0,30.0,4.0,0.0
17265,71.0,15.0,40.0,2.0,0.0
17266,74.0,0.0,40.0,1.0,0.0
17267,79.0,0.0,40.0,0.0,0.0
17268,72.0,30.0,30.0,4.0,0.0
17269,79.0,0.0,40.0,0.0,0.0
17270,74.0,15.0,30.0,4.0,0.0
17271,71.0,0.0,40.0,2.0,0.0
17272,74.0,15.0,40.0,1.0,0.0
17273,79.0,30.0,30.0,4.0,0.0
17274,71.0,0.0,40.0,2.0,0.0
17275,79.0,0.0,40.0,0.0,0.0
17276,74.0,15.0,40.0,1.0,0.0
17277,67.0,15.0,30.0,4.0,0.0
17278,69.0,30.0,30.0,4.0,0.0
17279,71.0,15.0,40.0,2.0,0.0
17280,71.0,15.0,30.0,4.0,0.0
17281,74.0,0.0,40.0,1.0,0.0
17282,79.0,0.0,40.0,0.0,0.0
17283,74.0,30.0,30.0,4.0,0.0
17284,79.0,15.0,30.0,4.0,0.0
17285,79.0,0.0,40.0,0.0,0.0
17286,71.0,0.0,40.0,2.0,0.0
17287,74.0,15.0,40.0,1.0,0.0
17288,81.0,30.0,30.0,4.0,0.0
17289,71.0,0.0,40.0,2.0,0.0
17290,83.0,15.0,30.0,4.0,0.0
17291,74.0,0.0,40.0,1.0,0.0
17292,79.0,15.0,40.0,0.0,0.0
17293,86.0,30.0,30.0,4.0,0.0
17294,70.0,0.0,40.0,2.0,0.0
17295,76.0,15.0,40.0,1.0,0.0
17296,79.0,0.0,40.0,0.0,0.0
17297,76.0,15.0,30.0,4.0,0.0
17298,77.0,30.0,30.0,4.0,0.0
17299,79.0,15.0,30.0,4.0,0.0
17300,76.0,0.0,40.0,1.0,0.0
17301,79.0,0.0,40.0,0.0,0.0
17302,70.0,15.0,40.0,2.0,0.0
17303,82.0,30.0,30.0,4.0,0.0
17304,79.0,15.0,40.0,0.0,0.0
17305,70.0,0.0,40.0,2.0,0.0
17306,76.0,0.0,40.0,1.0,0.0
17307,73.0,15.0,30.0,4.0,0.0
17308,74.0,30.0,30.0,4.0,0.0
17309,76.0,0.0,40.0,1.0,0.0
17310,79.0,0.0,40.0,0.0,0.0
17311,70.0,15.0,40.0,2.0,0.0
17312,76.0,15.0,30.0,4.0,0.0
17313,79.0,30.0,30.0,4.0,0.0
17314,70.0,15.0,40.0,2.0,0.0
17315,67.0,15.0,30.0,4.0,0.0
17316,79.0,0.0,40.0,0.0,0.0
17317,74.0,0.0,40.0,1.0,0.0
17318,69.0,30.0,30.0,4.0,0.0
17319,74.0,0.0,40.0,1.0,0.0
17320,70.0,15.0,30.0,4.0,0.0
17321,79.0,0.0,40.0,0.0,0.0
17322,70.0,15.0,40.0,2.0,0.0
17323,76.0,45.0,30.0,4.0,0.0
17324,49.0,15.0,40.0,3.0,0.0
17325,76.0,0.0,1080.0,1.0,0.0
17326,61.0,30.0,60.0,4.0,0.0
17327,69.0,0.0,720.0,2.0,0.0
17328,79.0,45.0,1080.0,0.0,0.0
17329,49.0,15.0,40.0,3.0,0.0
17330,69.0,15.0,30.0,4.0,0.0
17331,67.0,30.0,60.0,4.0,0.0
17332,71.0,0.0,30.0,4.0,0.0
17333,49.0,15.0,40.0,3.0,0.0
17334,64.0,0.0,60.0,4.0,0.0
17335,73.0,15.0,30.0,4.0,0.0
17336,74.0,30.0,30.0,4.0,0.0
17337,76.0,15.0,30.0,4.0,0.0
17338,61.0,30.0,60.0,4.0,0.0
17339,49.0,15.0,40.0,3.0,0.0
17340,71.0,0.0,30.0,4.0,0.0
17341,73.0,15.0,30.0,4.0,0.0
17342,49.0,15.0,40.0,3.0,0.0
17343,57.0,0.0,60.0,4.0,0.0
17344,69.0,30.0,30.0,4.0,0.0
17345,76.0,15.0,30.0,4.0,0.0
17346,49.0,15.0,40.0,3.0,0.0
17347,61.0,0.0,60.0,4.0,0.0
17348,73.0,30.0,30.0,4.0,0.0
17349,79.0,15.0,30.0,4.0,0.0
17350,62.0,0.0,60.0,4.0,0.0
17351,49.0,15.0,40.0,3.0,0.0
17352,78.0,30.0,30.0,4.0,0.0
17353,76.0,15.0,30.0,4.0,0.0
17354,67.0,30.0,60.0,4.0,0.0
17355,49.0,15.0,40.0,3.0,0.0
17356,74.0,0.0,30.0,4.0,0.0
17357,76.0,15.0,30.0,4.0,0.0
17358,61.0,30.0,60.0,4.0,0.0
17359,49.0,15.0,40.0,3.0,0.0
17360,78.0,0.0,30.0,4.0,0.0
17361,79.0,15.0,30.0,4.0,0.0
17362,64.0,30.0,60.0,4.0,0.0
17363,49.0,15.0,40.0,3.0,0.0
17364,74.0,0.0,30.0,4.0,0.0
17365,49.0,15.0,40.0,3.0,0.0
17366,67.0,30.0,60.0,4.0,0.0
17367,76.0,15.0,30.0,4.0,0.0
17368,73.0,0.0,30.0,4.0,0.0
17369,49.0,15.0,40.0,3.0,0.0
17370,79.0,15.0,30.0,4.0,0.0
17371,64.0,0.0,60.0,4.0,0.0
17372,76.0,30.0,30.0,4.0,0.0
17373,49.0,15.0,40.0,3.0,0.0
17374,64.0,0.0,360.0,2.0,0.0
17375,67.0,0.0,60.0,4.0,0.0
17376,82.0,15.0,30.0,4.0,0.0
17377,81.0,30.0,30.0,4.0,0.0
17378,70.0,0.0,60.0,4.0,0.0
17379,49.0,15.0,40.0,3.0,0.0
17380,79.0,15.0,30.0,4.0,0.0
17381,78.0,30.0,30.0,4.0,0.0
17382,49.0,15.0,40.0,3.0,0.0
17383,64.0,0.0,60.0,4.0,0.0
17384,79.0,15.0,30.0,4.0,0.0
17385,81.0,30.0,30.0,4.0,0.0
17386,49.0,15.0,40.0,3.0,0.0
17387,67.0,0.0,60.0,4.0,0.0
17388,82.0,15.0,30.0,4.0,0.0
17389,79.0,30.0,30.0,4.0,0.0
17390,57.0,0.0,60.0,4.0,0.0
17391,85.0,15.0,30.0,4.0,0.0
17392,49.0,15.0,40.0,3.0,0.0
17393,81.0,30.0,30.0,4.0,0.0
17394,88.0,15.0,30.0,4.0,0.0
17395,61.0,0.0,60.0,4.0,0.0
17396,49.0,15.0,40.0,3.0,0.0
17397,79.0,0.0,30.0,4.0,0.0
17398,78.0,0.0,40.0,0.0,0.0
17399,74.0,0.0,40.0,1.0,0.0
17400,69.0,0.0,40.0,2.0,0.0
17401,50.0,15.0,40.0,3.0,0.0
17402,78.0,0.0,60.0,4.0,0.0
17403,62.0,45.0,60.0,4.0,0.0
17404,54.0,15.0,40.0,3.0,0.0
17405,74.0,0.0,40.0,0.0,0.0
17406,54.0,0.0,60.0,4.0,0.0
17407,74.0,45.0,60.0,4.0,0.0
17408,69.0,0.0,40.0,2.0,0.0
17409,74.0,0.0,40.0,1.0,0.0
17410,67.0,15.0,40.0,0.0,0.0
17411,55.0,45.0,60.0,4.0,0.0
17412,71.0,0.0,60.0,4.0,0.0
17413,55.0,0.0,40.0,3.0,0.0
17414,67.0,0.0,40.0,1.0,0.0
17415,71.0,0.0,40.0,2.0,0.0
17416,74.0,0.0,40.0,0.0,0.0
17417,52.0,0.0,40.0,3.0,0.0
17418,52.0,0.0,60.0,4.0,0.0
17419,74.0,0.0,40.0,1.0,0.0
17420,67.0,15.0,40.0,2.0,0.0
17421,67.0,45.0,60.0,4.0,0.0
17422,64.0,45.0,60.0,4.0,0.0
17423,57.0,0.0,60.0,4.0,0.0
17424,57.0,0.0,40.0,3.0,0.0
17425,64.0,15.0,40.0,2.0,0.0
17426,69.0,0.0,40.0,1.0,0.0
17427,69.0,0.0,40.0,0.0,0.0
17428,45.0,0.0,40.0,3.0,0.0
17429,69.0,0.0,40.0,2.0,0.0
17430,73.0,0.0,40.0,1.0,0.0
17431,45.0,60.0,60.0,4.0,0.0
17432,73.0,0.0,60.0,4.0,0.0
17433,73.0,15.0,40.0,0.0,0.0
17434,74.0,0.0,60.0,0.0,0.0
17435,74.0,0.0,60.0,1.0,0.0
17436,50.0,0.0,60.0,3.0,0.0
17437,66.0,0.0,60.0,2.0,0.0
17438,50.0,0.0,60.0,4.0,0.0
17439,62.0,30.0,60.0,4.0,0.0
17440,78.0,0.0,30.0,4.0,0.0
17441,86.0,30.0,30.0,4.0,0.0
17442,76.0,60.0,30.0,4.0,0.0
17443,85.0,0.0,30.0,4.0,0.0
17444,81.0,0.0,15.0,4.0,0.0
17445,86.0,0.0,60.0,4.0,0.0
17446,78.0,0.0,15.0,4.0,0.0
17447,81.0,30.0,15.0,4.0,0.0
17448,76.0,0.0,30.0,4.0,0.0
17449,79.0,60.0,30.0,4.0,0.0
17450,81.0,30.0,60.0,4.0,0.0
17451,78.0,0.0,60.0,4.0,0.0
17452,74.0,0.0,15.0,4.0,0.0
17453,69.0,30.0,30.0,4.0,0.0
17454,74.0,0.0,30.0,4.0,0.0
17455,78.0,0.0,30.0,4.0,0.0
17456,67.0,0.0,30.0,4.0,0.0
17457,73.0,0.0,30.0,4.0,0.0
17458,76.0,60.0,30.0,4.0,0.0
17459,78.0,30.0,60.0,4.0,0.0
17460,69.0,0.0,120.0,4.0,0.0
17461,74.0,0.0,60.0,4.0,0.0
17462,81.0,15.0,40.0,0.0,0.0
17463,50.0,0.0,30.0,4.0,0.0
17464,74.0,0.0,30.0,4.0,0.0
17465,66.0,0.0,30.0,2.0,0.0
17466,81.0,0.0,40.0,1.0,0.0
17467,50.0,15.0,30.0,3.0,0.0
17468,67.0,0.0,30.0,2.0,0.0
17469,73.0,0.0,30.0,4.0,0.0
17470,52.0,0.0,30.0,4.0,0.0
17471,52.0,45.0,30.0,3.0,0.0
17472,86.0,0.0,40.0,0.0,0.0
17473,86.0,0.0,40.0,1.0,0.0
17474,74.0,0.0,60.0,4.0,0.0
17475,69.0,0.0,40.0,2.0,0.0
17476,54.0,30.0,60.0,4.0,0.0
17477,54.0,15.0,40.0,3.0,0.0
17478,86.0,15.0,40.0,0.0,0.0
17479,68.0,0.0,30.0,2.0,0.0
17480,52.0,15.0,30.0,3.0,0.0
17481,86.0,0.0,40.0,1.0,0.0
17482,52.0,0.0,30.0,4.0,0.0
17483,69.0,0.0,30.0,2.0,0.0
17484,54.0,45.0,30.0,3.0,0.0
17485,54.0,0.0,30.0,4.0,0.0
17486,56.0,30.0,60.0,4.0,0.0
17487,86.0,0.0,40.0,1.0,0.0
17488,56.0,0.0,40.0,3.0,0.0
17489,86.0,0.0,40.0,0.0,0.0
17490,71.0,15.0,40.0,2.0,0.0
17491,54.0,15.0,30.0,4.0,0.0
17492,69.0,0.0,30.0,2.0,0.0
17493,86.0,15.0,40.0,1.0,0.0
17494,54.0,0.0,30.0,3.0,0.0
17495,86.0,0.0,40.0,0.0,0.0
17496,71.0,0.0,30.0,2.0,0.0
17497,56.0,0.0,30.0,3.0,0.0
17498,56.0,45.0,30.0,4.0,0.0
17499,57.0,0.0,60.0,3.0,0.0
17500,86.0,15.0,40.0,0.0,0.0
17501,64.0,0.0,60.0,2.0,0.0
17502,57.0,30.0,60.0,4.0,0.0
17503,86.0,0.0,40.0,1.0,0.0
17504,61.0,0.0,30.0,4.0,0.0
17505,69.0,0.0,30.0,4.0,0.0
17506,85.0,0.0,30.0,0.0,0.0
17507,85.0,30.0,30.0,1.0,0.0
17508,64.0,0.0,30.0,4.0,0.0
17509,83.0,60.0,30.0,1.0,0.0
17510,83.0,0.0,30.0,0.0,0.0
17511,68.0,0.0,30.0,4.0,0.0
17512,62.0,0.0,30.0,4.0,0.0
17513,59.0,0.0,30.0,4.0,0.0
17514,85.0,30.0,60.0,0.0,0.0
17515,64.0,0.0,60.0,4.0,0.0
17516,85.0,0.0,60.0,1.0,0.0
17517,61.0,0.0,60.0,4.0,0.0
17518,73.0,0.0,30.0,4.0,0.0
17519,64.0,30.0,30.0,4.0,0.0
17520,69.0,0.0,15.0,4.0,0.0
17521,62.0,0.0,30.0,4.0,0.0
17522,71.0,60.0,30.0,4.0,0.0
17523,68.0,0.0,30.0,4.0,0.0
17524,69.0,0.0,60.0,4.0,0.0
17525,64.0,30.0,60.0,4.0,0.0
17526,67.0,0.0,30.0,4.0,0.0
17527,73.0,0.0,15.0,4.0,0.0
17528,76.0,30.0,30.0,4.0,0.0
17529,74.0,60.0,30.0,4.0,0.0
17530,66.0,0.0,30.0,4.0,0.0
17531,71.0,0.0,30.0,4.0,0.0
17532,67.0,0.0,60.0,4.0,0.0
17533,73.0,30.0,60.0,4.0,0.0
17534,76.0,0.0,60.0,4.0,0.0
17535,85.0,15.0,30.0,1.0,0.0
17536,49.0,30.0,60.0,4.0,0.0
17537,79.0,0.0,30.0,4.0,0.0
17538,49.0,15.0,40.0,3.0,0.0
17539,70.0,0.0,30.0,2.0,0.0
17540,85.0,0.0,30.0,0.0,0.0
17541,78.0,0.0,30.0,4.0,0.0
17542,86.0,0.0,30.0,1.0,0.0
17543,71.0,0.0,30.0,2.0,0.0
17544,86.0,0.0,30.0,0.0,0.0
17545,88.0,0.0,40.0,0.0,0.0
17546,61.0,0.0,60.0,4.0,0.0
17547,73.0,15.0,30.0,2.0,0.0
17548,88.0,15.0,40.0,1.0,0.0
17549,61.0,0.0,40.0,3.0,0.0
17550,79.0,30.0,60.0,4.0,0.0
17551,71.0,0.0,30.0,2.0,0.0
17552,85.0,0.0,30.0,1.0,0.0
17553,70.0,0.0,30.0,2.0,0.0
17554,59.0,0.0,60.0,4.0,0.0
17555,85.0,15.0,30.0,0.0,0.0
17556,59.0,15.0,40.0,3.0,0.0
17557,86.0,0.0,30.0,0.0,0.0
17558,71.0,30.0,30.0,2.0,0.0
17559,86.0,0.0,30.0,1.0,0.0
17560,88.0,15.0,40.0,1.0,0.0
17561,88.0,0.0,40.0,0.0,0.0
17562,58.0,0.0,60.0,4.0,0.0
17563,73.0,15.0,30.0,2.0,0.0
17564,58.0,0.0,40.0,3.0,0.0
17565,71.0,30.0,30.0,2.0,0.0
17566,54.0,45.0,60.0,4.0,0.0
17567,88.0,0.0,40.0,1.0,0.0
17568,70.0,15.0,30.0,2.0,0.0
17569,88.0,15.0,40.0,0.0,0.0
17570,54.0,0.0,40.0,3.0,0.0
17571,68.0,0.0,30.0,2.0,0.0
17572,88.0,15.0,40.0,0.0,0.0
17573,59.0,0.0,60.0,4.0,0.0
17574,59.0,0.0,60.0,3.0,0.0
17575,88.0,0.0,40.0,1.0,0.0
17576,66.0,30.0,60.0,2.0,0.0
17577,86.0,0.0,30.0,0.0,0.0
17578,74.0,30.0,30.0,4.0,0.0
17579,78.0,0.0,30.0,4.0,0.0
17580,83.0,0.0,30.0,4.0,0.0
17581,86.0,0.0,30.0,1.0,0.0
17582,85.0,0.0,30.0,0.0,0.0
17583,85.0,0.0,30.0,1.0,0.0
17584,82.0,0.0,30.0,4.0,0.0
17585,73.0,0.0,30.0,4.0,0.0
17586,76.0,60.0,30.0,4.0,0.0
17587,86.0,0.0,60.0,1.0,0.0
17588,86.0,0.0,60.0,0.0,0.0
17589,83.0,0.0,60.0,4.0,0.0
17590,78.0,30.0,60.0,4.0,0.0
17591,74.0,0.0,60.0,4.0,0.0
17592,71.0,0.0,60.0,4.0,0.0
17593,78.0,30.0,30.0,4.0,0.0
17594,74.0,0.0,30.0,4.0,0.0
17595,76.0,0.0,30.0,4.0,0.0
17596,73.0,60.0,30.0,4.0,0.0
17597,71.0,0.0,60.0,4.0,0.0
17598,78.0,30.0,60.0,4.0,0.0
17599,74.0,0.0,15.0,4.0,0.0
17600,71.0,30.0,30.0,4.0,0.0
17601,66.0,0.0,30.0,4.0,0.0
17602,73.0,0.0,30.0,4.0,0.0
17603,70.0,0.0,30.0,4.0,0.0
17604,64.0,60.0,30.0,4.0,0.0
17605,66.0,0.0,60.0,4.0,0.0
17606,74.0,0.0,60.0,4.0,0.0
17607,71.0,30.0,60.0,4.0,0.0
17608,74.0,0.0,30.0,0.0,0.0
17609,71.0,15.0,40.0,2.0,0.0
17610,66.0,0.0,30.0,1.0,0.0
17611,47.0,0.0,40.0,3.0,0.0
17612,47.0,45.0,60.0,4.0,0.0
17613,71.0,15.0,30.0,4.0,0.0
17614,73.0,0.0,30.0,0.0,0.0
17615,64.0,0.0,30.0,1.0,0.0
17616,70.0,0.0,30.0,4.0,0.0
17617,66.0,0.0,40.0,1.0,0.0
17618,71.0,0.0,40.0,2.0,0.0
17619,71.0,30.0,60.0,4.0,0.0
17620,59.0,0.0,60.0,4.0,0.0
17621,74.0,0.0,40.0,0.0,0.0
17622,59.0,15.0,40.0,3.0,0.0
17623,71.0,15.0,40.0,2.0,0.0
17624,78.0,0.0,30.0,0.0,0.0
17625,74.0,15.0,30.0,4.0,0.0
17626,57.0,0.0,60.0,4.0,0.0
17627,71.0,0.0,30.0,1.0,0.0
17628,57.0,0.0,40.0,3.0,0.0
17629,76.0,0.0,30.0,0.0,0.0
17630,73.0,45.0,30.0,4.0,0.0
17631,70.0,0.0,30.0,1.0,0.0
17632,71.0,15.0,40.0,2.0,0.0
17633,78.0,0.0,40.0,0.0,0.0
17634,71.0,0.0,40.0,1.0,0.0
17635,56.0,30.0,60.0,4.0,0.0
17636,74.0,0.0,60.0,4.0,0.0
17637,56.0,0.0,40.0,3.0,0.0
17638,74.0,0.0,30.0,1.0,0.0
17639,54.0,15.0,40.0,3.0,0.0
17640,83.0,15.0,30.0,0.0,0.0
17641,80.0,0.0,30.0,4.0,0.0
17642,71.0,0.0,40.0,2.0,0.0
17643,54.0,60.0,60.0,4.0,0.0
17644,82.0,0.0,30.0,0.0,0.0
17645,78.0,0.0,30.0,4.0,0.0
17646,73.0,0.0,30.0,1.0,0.0
17647,83.0,0.0,60.0,0.0,0.0
17648,80.0,0.0,60.0,4.0,0.0
17649,74.0,0.0,60.0,1.0,0.0
17650,53.0,0.0,60.0,4.0,0.0
17651,71.0,30.0,60.0,2.0,0.0
17652,53.0,0.0,60.0,3.0,0.0
17653,77.0,0.0,30.0,4.0,0.0
17654,71.0,0.0,60.0,4.0,0.0
17655,68.0,30.0,30.0,4.0,0.0
17656,66.0,0.0,30.0,4.0,0.0
17657,75.0,60.0,30.0,4.0,0.0
17658,71.0,0.0,60.0,4.0,0.0
17659,77.0,30.0,60.0,4.0,0.0
17660,68.0,0.0,15.0,4.0,0.0
17661,73.0,30.0,30.0,4.0,0.0
17662,65.0,0.0,30.0,4.0,0.0
17663,71.0,0.0,30.0,4.0,0.0
17664,63.0,60.0,30.0,4.0,0.0
17665,73.0,30.0,60.0,4.0,0.0
17666,65.0,0.0,60.0,4.0,0.0
17667,68.0,0.0,60.0,4.0,0.0
17668,61.0,0.0,30.0,4.0,0.0
17669,66.0,0.0,30.0,4.0,0.0
17670,69.0,30.0,30.0,4.0,0.0
17671,65.0,0.0,30.0,4.0,0.0
17672,59.0,0.0,30.0,4.0,0.0
17673,68.0,60.0,30.0,4.0,0.0
17674,69.0,0.0,60.0,4.0,0.0
17675,61.0,0.0,60.0,4.0,0.0
17676,69.0,15.0,40.0,2.0,0.0
17677,61.0,0.0,30.0,1.0,0.0
17678,42.0,0.0,60.0,4.0,0.0
17679,69.0,0.0,30.0,0.0,0.0
17680,42.0,0.0,40.0,3.0,0.0
17681,66.0,30.0,15.0,4.0,0.0
17682,68.0,45.0,30.0,0.0,0.0
17683,65.0,0.0,30.0,4.0,0.0
17684,59.0,0.0,30.0,1.0,0.0
17685,61.0,15.0,40.0,1.0,0.0
17686,54.0,0.0,40.0,3.0,0.0
17687,69.0,0.0,40.0,2.0,0.0
17688,54.0,0.0,60.0,4.0,0.0
17689,66.0,30.0,60.0,4.0,0.0
17690,69.0,0.0,40.0,0.0,0.0
17691,69.0,0.0,30.0,4.0,0.0
17692,52.0,0.0,60.0,4.0,0.0
17693,73.0,0.0,30.0,0.0,0.0
17694,52.0,15.0,40.0,3.0,0.0
17695,69.0,0.0,40.0,2.0,0.0
17696,66.0,15.0,30.0,1.0,0.0
17697,65.0,0.0,30.0,1.0,0.0
17698,68.0,0.0,30.0,4.0,0.0
17699,71.0,45.0,30.0,0.0,0.0
17700,51.0,0.0,40.0,3.0,0.0
17701,69.0,15.0,40.0,2.0,0.0
17702,51.0,30.0,60.0,4.0,0.0
17703,66.0,0.0,40.0,1.0,0.0
17704,73.0,0.0,40.0,0.0,0.0
17705,69.0,0.0,60.0,4.0,0.0
17706,69.0,0.0,30.0,1.0,0.0
17707,78.0,0.0,30.0,0.0,0.0
17708,49.0,15.0,40.0,3.0,0.0
17709,69.0,0.0,40.0,2.0,0.0
17710,75.0,15.0,30.0,4.0,0.0
17711,49.0,0.0,60.0,4.0,0.0
17712,68.0,60.0,30.0,1.0,0.0
17713,73.0,0.0,30.0,4.0,0.0
17714,77.0,0.0,30.0,0.0,0.0
17715,78.0,0.0,60.0,0.0,0.0
17716,48.0,0.0,60.0,3.0,0.0
17717,69.0,0.0,60.0,1.0,0.0
17718,75.0,30.0,60.0,4.0,0.0
17719,48.0,0.0,60.0,4.0,0.0
17720,66.0,0.0,60.0,2.0,0.0
17721,63.0,0.0,30.0,4.0,0.0
17722,66.0,30.0,30.0,4.0,0.0
17723,72.0,0.0,30.0,4.0,0.0
17724,64.0,0.0,30.0,4.0,0.0
17725,70.0,60.0,30.0,4.0,0.0
17726,61.0,0.0,30.0,4.0,0.0
17727,72.0,0.0,60.0,4.0,0.0
17728,66.0,0.0,60.0,4.0,0.0
17729,63.0,30.0,60.0,4.0,0.0
17730,60.0,0.0,30.0,4.0,0.0
17731,68.0,30.0,30.0,4.0,0.0
17732,63.0,0.0,30.0,4.0,0.0
17733,66.0,0.0,30.0,4.0,0.0
17734,61.0,60.0,30.0,4.0,0.0
17735,58.0,0.0,30.0,4.0,0.0
17736,60.0,0.0,60.0,4.0,0.0
17737,63.0,0.0,60.0,4.0,0.0
17738,68.0,30.0,60.0,4.0,0.0
17739,56.0,0.0,30.0,4.0,0.0
17740,65.0,30.0,30.0,4.0,0.0
17741,61.0,0.0,30.0,4.0,0.0
17742,54.0,60.0,30.0,4.0,0.0
17743,63.0,0.0,30.0,4.0,0.0
17744,60.0,0.0,30.0,4.0,0.0
17745,56.0,0.0,60.0,4.0,0.0
17746,49.0,0.0,60.0,4.0,0.0
17747,65.0,0.0,60.0,4.0,0.0
17748,49.0,0.0,60.0,3.0,0.0
17749,61.0,0.0,60.0,4.0,0.0
17750,68.0,0.0,60.0,1.0,0.0
17751,73.0,30.0,60.0,0.0,0.0
17752,65.0,0.0,60.0,2.0,0.0
17753,61.0,30.0,30.0,4.0,0.0
17754,59.0,60.0,30.0,4.0,0.0
17755,61.0,30.0,60.0,4.0,0.0
17756,65.0,0.0,30.0,4.0,0.0
17757,56.0,30.0,30.0,4.0,0.0
17758,54.0,60.0,30.0,4.0,0.0
17759,63.0,0.0,30.0,4.0,0.0
17760,56.0,0.0,60.0,4.0,0.0
17761,61.0,0.0,15.0,4.0,0.0
17762,68.0,0.0,30.0,4.0,0.0
17763,65.0,0.0,15.0,4.0,0.0
17764,59.0,30.0,30.0,4.0,0.0
17765,57.0,0.0,30.0,4.0,0.0
17766,66.0,60.0,30.0,4.0,0.0
17767,65.0,0.0,15.0,4.0,0.0
17768,68.0,0.0,60.0,4.0,0.0
17769,59.0,30.0,60.0,4.0,0.0
17770,71.0,30.0,30.0,4.0,0.0
17771,69.0,0.0,30.0,4.0,0.0
17772,53.0,0.0,15.0,4.0,0.0
17773,49.0,0.0,15.0,4.0,0.0
17774,71.0,30.0,60.0,4.0,0.0
17775,56.0,60.0,15.0,4.0,0.0
17776,74.0,30.0,30.0,4.0,0.0
17777,47.0,0.0,60.0,4.0,0.0
17778,56.0,0.0,60.0,4.0,0.0
17779,73.0,0.0,30.0,4.0,0.0
17780,74.0,0.0,60.0,4.0,0.0
17781,47.0,30.0,60.0,4.0,0.0
17782,53.0,60.0,15.0,4.0,0.0
17783,56.0,0.0,60.0,4.0,0.0
17784,78.0,30.0,30.0,4.0,0.0
17785,45.0,0.0,60.0,4.0,0.0
17786,49.0,0.0,60.0,4.0,0.0
17787,77.0,0.0,30.0,4.0,0.0
17788,57.0,45.0,15.0,4.0,0.0
17789,78.0,15.0,40.0,0.0,0.0
17790,78.0,0.0,60.0,4.0,0.0
17791,78.0,0.0,40.0,1.0,0.0
17792,45.0,0.0,60.0,4.0,0.0
17793,76.0,0.0,30.0,1.0,0.0
17794,76.0,0.0,30.0,4.0,0.0
17795,47.0,0.0,60.0,4.0,0.0
17796,56.0,0.0,60.0,4.0,0.0
17797,76.0,30.0,30.0,0.0,0.0
17798,74.0,0.0,30.0,4.0,0.0
17799,74.0,0.0,30.0,1.0,0.0
17800,74.0,30.0,30.0,0.0,0.0
17801,73.0,0.0,40.0,1.0,0.0
17802,49.0,0.0,15.0,4.0,0.0
17803,57.0,0.0,60.0,4.0,0.0
17804,73.0,15.0,30.0,4.0,0.0
17805,73.0,15.0,40.0,0.0,0.0
17806,81.0,0.0,30.0,4.0,0.0
17807,50.0,0.0,60.0,4.0,0.0
17808,59.0,0.0,60.0,4.0,0.0
17809,71.0,15.0,30.0,4.0,0.0
17810,71.0,0.0,40.0,1.0,0.0
17811,71.0,15.0,40.0,0.0,0.0
17812,80.0,30.0,30.0,4.0,0.0
17813,69.0,15.0,30.0,4.0,0.0
17814,49.0,0.0,120.0,4.0,0.0
17815,61.0,30.0,60.0,4.0,0.0
17816,69.0,0.0,40.0,0.0,0.0
17817,69.0,15.0,40.0,1.0,0.0
17818,78.0,0.0,30.0,4.0,0.0
17819,68.0,0.0,40.0,1.0,0.0
17820,68.0,15.0,40.0,0.0,0.0
17821,68.0,15.0,30.0,4.0,0.0
17822,59.0,0.0,60.0,4.0,0.0
17823,77.0,45.0,30.0,4.0,0.0
17824,54.0,0.0,60.0,4.0,0.0
17825,57.0,0.0,60.0,4.0,0.0
17826,69.0,30.0,60.0,4.0,0.0
17827,78.0,0.0,60.0,4.0,0.0
17828,69.0,15.0,40.0,1.0,0.0
17829,69.0,0.0,40.0,0.0,0.0
17830,69.0,0.0,30.0,2.0,0.0
17831,66.0,15.0,40.0,1.0,0.0
17832,54.0,15.0,30.0,3.0,0.0
17833,54.0,0.0,30.0,4.0,0.0
17834,66.0,0.0,40.0,0.0,0.0
17835,66.0,0.0,60.0,4.0,0.0
17836,56.0,0.0,30.0,4.0,0.0
17837,56.0,45.0,30.0,3.0,0.0
17838,71.0,0.0,30.0,2.0,0.0
17839,57.0,30.0,60.0,4.0,0.0
17840,78.0,0.0,60.0,4.0,0.0
17841,78.0,0.0,40.0,1.0,0.0
17842,57.0,0.0,40.0,3.0,0.0
17843,73.0,15.0,40.0,2.0,0.0
17844,78.0,0.0,40.0,0.0,0.0
17845,71.0,0.0,30.0,2.0,0.0
17846,56.0,0.0,30.0,3.0,0.0
17847,78.0,0.0,40.0,1.0,0.0
17848,56.0,15.0,30.0,4.0,0.0
17849,78.0,15.0,40.0,0.0,0.0
17850,73.0,0.0,30.0,2.0,0.0
17851,57.0,45.0,30.0,3.0,0.0
17852,57.0,0.0,30.0,4.0,0.0
17853,59.0,0.0,40.0,3.0,0.0
17854,78.0,0.0,40.0,0.0,0.0
17855,78.0,0.0,40.0,1.0,0.0
17856,78.0,0.0,15.0,4.0,0.0
17857,74.0,15.0,40.0,2.0,0.0
17858,59.0,30.0,60.0,4.0,0.0
17859,57.0,0.0,30.0,4.0,0.0
17860,78.0,15.0,40.0,1.0,0.0
17861,78.0,0.0,40.0,0.0,0.0
17862,57.0,0.0,30.0,3.0,0.0
17863,73.0,15.0,30.0,2.0,0.0
17864,59.0,30.0,30.0,3.0,0.0
17865,59.0,0.0,30.0,4.0,0.0
17866,74.0,0.0,30.0,2.0,0.0
17867,78.0,0.0,30.0,0.0,0.0
17868,78.0,0.0,15.0,4.0,0.0
17869,61.0,0.0,60.0,4.0,0.0
17870,68.0,15.0,40.0,2.0,0.0
17871,78.0,0.0,30.0,1.0,0.0
17872,61.0,0.0,40.0,3.0,0.0
17873,76.0,0.0,30.0,0.0,0.0
17874,76.0,30.0,30.0,1.0,0.0
17875,76.0,0.0,30.0,4.0,0.0
17876,78.0,0.0,30.0,0.0,0.0
17877,78.0,0.0,30.0,4.0,0.0
17878,57.0,0.0,30.0,4.0,0.0
17879,57.0,0.0,30.0,3.0,0.0
17880,73.0,0.0,30.0,2.0,0.0
17881,78.0,30.0,30.0,1.0,0.0
17882,80.0,0.0,30.0,0.0,0.0
17883,59.0,0.0,30.0,3.0,0.0
17884,80.0,0.0,30.0,4.0,0.0
17885,59.0,45.0,30.0,4.0,0.0
17886,74.0,0.0,30.0,2.0,0.0
17887,80.0,0.0,30.0,1.0,0.0
17888,81.0,0.0,40.0,0.0,0.0
17889,76.0,0.0,40.0,2.0,0.0
17890,61.0,15.0,40.0,3.0,0.0
17891,81.0,0.0,40.0,1.0,0.0
17892,61.0,30.0,60.0,4.0,0.0
17893,59.0,0.0,30.0,4.0,0.0
17894,81.0,0.0,15.0,4.0,0.0
17895,74.0,0.0,30.0,2.0,0.0
17896,81.0,15.0,40.0,0.0,0.0
17897,81.0,0.0,40.0,1.0,0.0
17898,59.0,15.0,30.0,3.0,0.0
17899,76.0,0.0,30.0,2.0,0.0
17900,61.0,45.0,30.0,4.0,0.0
17901,61.0,0.0,30.0,3.0,0.0
17902,63.0,15.0,40.0,3.0,0.0
17903,63.0,30.0,60.0,4.0,0.0
17904,81.0,0.0,15.0,4.0,0.0
17905,81.0,0.0,40.0,0.0,0.0
17906,78.0,0.0,40.0,2.0,0.0
17907,81.0,0.0,40.0,1.0,0.0
17908,81.0,0.0,40.0,0.0,0.0
17909,61.0,15.0,30.0,3.0,0.0
17910,76.0,0.0,30.0,2.0,0.0
17911,81.0,0.0,15.0,4.0,0.0
17912,81.0,15.0,40.0,1.0,0.0
17913,61.0,0.0,30.0,4.0,0.0
17914,78.0,0.0,30.0,2.0,0.0
17915,63.0,0.0,30.0,3.0,0.0
17916,63.0,0.0,30.0,4.0,0.0
17917,81.0,15.0,30.0,0.0,0.0
17918,71.0,15.0,40.0,2.0,0.0
17919,81.0,0.0,30.0,1.0,0.0
17920,64.0,0.0,40.0,3.0,0.0
17921,81.0,30.0,15.0,4.0,0.0
17922,64.0,30.0,60.0,4.0,0.0
17923,80.0,0.0,30.0,4.0,0.0
17924,80.0,0.0,30.0,1.0,0.0
17925,80.0,0.0,30.0,0.0,0.0
17926,64.0,30.0,30.0,2.0,0.0
17927,81.0,0.0,30.0,1.0,0.0
17928,81.0,0.0,30.0,0.0,0.0
17929,81.0,0.0,30.0,4.0,0.0
17930,61.0,0.0,30.0,4.0,0.0
17931,61.0,0.0,30.0,3.0,0.0
17932,83.0,0.0,30.0,0.0,0.0
17933,63.0,0.0,30.0,3.0,0.0
17934,83.0,0.0,30.0,1.0,0.0
17935,66.0,0.0,30.0,2.0,0.0
17936,63.0,0.0,30.0,4.0,0.0
17937,83.0,45.0,30.0,4.0,0.0
17938,64.0,0.0,60.0,4.0,0.0
17939,85.0,30.0,60.0,4.0,0.0
17940,68.0,15.0,40.0,2.0,0.0
17941,85.0,0.0,40.0,1.0,0.0
17942,85.0,0.0,40.0,0.0,0.0
17943,64.0,0.0,40.0,3.0,0.0
17944,85.0,15.0,40.0,1.0,0.0
17945,85.0,0.0,40.0,0.0,0.0
17946,63.0,0.0,30.0,4.0,0.0
17947,85.0,0.0,60.0,4.0,0.0
17948,63.0,15.0,30.0,3.0,0.0
17949,66.0,0.0,30.0,2.0,0.0
17950,64.0,45.0,30.0,3.0,0.0
17951,64.0,0.0,30.0,4.0,0.0
17952,68.0,0.0,30.0,2.0,0.0
17953,85.0,0.0,40.0,0.0,0.0
17954,85.0,15.0,40.0,1.0,0.0
17955,66.0,30.0,60.0,4.0,0.0
17956,69.0,0.0,40.0,2.0,0.0
17957,66.0,0.0,40.0,3.0,0.0
17958,85.0,0.0,60.0,4.0,0.0
17959,68.0,0.0,30.0,2.0,0.0
17960,64.0,15.0,30.0,4.0,0.0
17961,85.0,0.0,60.0,4.0,0.0
17962,85.0,15.0,40.0,1.0,0.0
17963,64.0,0.0,30.0,3.0,0.0
17964,85.0,0.0,40.0,0.0,0.0
17965,66.0,45.0,30.0,4.0,0.0
17966,66.0,0.0,30.0,3.0,0.0
17967,69.0,0.0,30.0,2.0,0.0
17968,68.0,30.0,60.0,4.0,0.0
17969,85.0,0.0,60.0,4.0,0.0
17970,63.0,0.0,120.0,2.0,0.0
17971,68.0,0.0,40.0,3.0,0.0
17972,85.0,15.0,40.0,0.0,0.0
17973,85.0,0.0,40.0,1.0,0.0
17974,83.0,15.0,30.0,1.0,0.0
17975,56.0,45.0,60.0,4.0,0.0
17976,83.0,0.0,30.0,4.0,0.0
17977,56.0,15.0,40.0,3.0,0.0
17978,83.0,0.0,30.0,0.0,0.0
17979,81.0,0.0,30.0,0.0,0.0
17980,81.0,0.0,30.0,4.0,0.0
17981,81.0,0.0,30.0,1.0,0.0
17982,83.0,0.0,40.0,1.0,0.0
17983,68.0,0.0,40.0,3.0,0.0
17984,68.0,0.0,60.0,4.0,0.0
17985,83.0,30.0,60.0,4.0,0.0
17986,83.0,15.0,40.0,0.0,0.0
17987,80.0,0.0,30.0,1.0,0.0
17988,65.0,0.0,30.0,2.0,0.0
17989,80.0,0.0,30.0,0.0,0.0
17990,66.0,15.0,40.0,3.0,0.0
17991,66.0,0.0,60.0,4.0,0.0
17992,80.0,15.0,30.0,4.0,0.0
17993,81.0,30.0,30.0,1.0,0.0
17994,81.0,0.0,30.0,0.0,0.0
17995,66.0,0.0,30.0,2.0,0.0
17996,81.0,0.0,30.0,4.0,0.0
17997,83.0,0.0,40.0,1.0,0.0
17998,68.0,15.0,30.0,2.0,0.0
17999,65.0,0.0,60.0,4.0,0.0
18000,83.0,15.0,40.0,0.0,0.0
18001,65.0,0.0,40.0,3.0,0.0
18002,66.0,0.0,30.0,2.0,0.0
18003,65.0,15.0,30.0,2.0,0.0
18004,61.0,0.0,60.0,4.0,0.0
18005,83.0,30.0,15.0,4.0,0.0
18006,61.0,15.0,40.0,3.0,0.0
18007,83.0,0.0,40.0,1.0,0.0
18008,83.0,0.0,40.0,0.0,0.0
18009,63.0,45.0,30.0,2.0,0.0
18010,66.0,0.0,60.0,3.0,0.0
18011,66.0,0.0,60.0,4.0,0.0
18012,83.0,0.0,40.0,1.0,0.0
18013,83.0,30.0,60.0,4.0,0.0
18014,61.0,0.0,60.0,2.0,0.0
18015,83.0,15.0,40.0,0.0,0.0
18016,81.0,0.0,30.0,1.0,0.0
18017,90.0,0.0,30.0,4.0,0.0
18018,81.0,30.0,30.0,4.0,0.0
18019,81.0,0.0,30.0,0.0,0.0
18020,80.0,0.0,30.0,0.0,0.0
18021,80.0,0.0,30.0,4.0,0.0
18022,89.0,0.0,30.0,4.0,0.0
18023,80.0,0.0,30.0,1.0,0.0
18024,81.0,0.0,60.0,0.0,0.0
18025,85.0,60.0,15.0,4.0,0.0
18026,81.0,30.0,60.0,1.0,0.0
18027,90.0,0.0,60.0,4.0,0.0
18028,81.0,0.0,15.0,4.0,0.0
18029,78.0,60.0,60.0,4.0,0.0
18030,85.0,30.0,30.0,4.0,0.0
18031,83.0,0.0,30.0,4.0,0.0
18032,80.0,0.0,30.0,4.0,0.0
18033,85.0,0.0,60.0,4.0,0.0
18034,73.0,0.0,30.0,4.0,0.0
18035,78.0,0.0,15.0,4.0,0.0
18036,81.0,30.0,15.0,4.0,0.0
18037,71.0,60.0,30.0,4.0,0.0
18038,77.0,0.0,30.0,4.0,0.0
18039,80.0,0.0,30.0,4.0,0.0
18040,78.0,0.0,60.0,4.0,0.0
18041,73.0,30.0,60.0,4.0,0.0
18042,81.0,0.0,60.0,4.0,0.0
18043,69.0,0.0,30.0,4.0,0.0
18044,73.0,0.0,30.0,4.0,0.0
18045,78.0,0.0,30.0,4.0,0.0
18046,81.0,30.0,30.0,0.0,0.0
18047,77.0,0.0,30.0,4.0,0.0
18048,68.0,0.0,30.0,4.0,0.0
18049,71.0,0.0,30.0,4.0,0.0
18050,80.0,60.0,30.0,0.0,0.0
18051,78.0,30.0,60.0,4.0,0.0
18052,69.0,0.0,60.0,4.0,0.0
18053,81.0,0.0,60.0,0.0,0.0
18054,73.0,0.0,60.0,4.0,0.0
18055,78.0,0.0,30.0,1.0,0.0
18056,66.0,0.0,60.0,4.0,0.0
18057,81.0,15.0,30.0,4.0,0.0
18058,66.0,15.0,40.0,3.0,0.0
18059,77.0,45.0,30.0,1.0,0.0
18060,80.0,0.0,30.0,4.0,0.0
18061,62.0,15.0,40.0,3.0,0.0
18062,78.0,30.0,60.0,1.0,0.0
18063,81.0,0.0,60.0,4.0,0.0
18064,62.0,0.0,60.0,4.0,0.0
18065,86.0,15.0,30.0,4.0,0.0
18066,59.0,15.0,40.0,3.0,0.0
18067,59.0,60.0,60.0,4.0,0.0
18068,71.0,0.0,30.0,2.0,0.0
18069,69.0,0.0,30.0,2.0,0.0
18070,85.0,0.0,30.0,4.0,0.0
18071,86.0,0.0,60.0,4.0,0.0
18072,64.0,0.0,60.0,4.0,0.0
18073,64.0,0.0,120.0,3.0,0.0
18074,68.0,30.0,60.0,2.0,0.0
18075,80.0,30.0,30.0,0.0,0.0
18076,76.0,0.0,30.0,4.0,0.0
18077,59.0,0.0,60.0,4.0,0.0
18078,78.0,0.0,30.0,0.0,0.0
18079,75.0,60.0,30.0,4.0,0.0
18080,52.0,0.0,60.0,4.0,0.0
18081,76.0,0.0,60.0,4.0,0.0
18082,80.0,30.0,60.0,0.0,0.0
18083,64.0,15.0,40.0,3.0,0.0
18084,80.0,15.0,30.0,4.0,0.0
18085,76.0,0.0,30.0,1.0,0.0
18086,64.0,0.0,60.0,4.0,0.0
18087,75.0,0.0,30.0,1.0,0.0
18088,78.0,45.0,30.0,4.0,0.0
18089,61.0,15.0,40.0,3.0,0.0
18090,76.0,0.0,60.0,1.0,0.0
18091,61.0,30.0,60.0,4.0,0.0
18092,80.0,0.0,60.0,4.0,0.0
18093,69.0,0.0,30.0,2.0,0.0
18094,57.0,0.0,60.0,4.0,0.0
18095,85.0,15.0,30.0,4.0,0.0
18096,57.0,15.0,40.0,3.0,0.0
18097,83.0,0.0,30.0,4.0,0.0
18098,68.0,60.0,30.0,2.0,0.0
18099,85.0,0.0,60.0,4.0,0.0
18100,62.0,0.0,60.0,4.0,0.0
18101,66.0,30.0,60.0,2.0,0.0
18102,62.0,60.0,120.0,3.0,0.0
18103,78.0,30.0,30.0,0.0,0.0
18104,57.0,0.0,60.0,4.0,0.0
18105,74.0,0.0,30.0,4.0,0.0
18106,77.0,0.0,30.0,0.0,0.0
18107,73.0,0.0,30.0,4.0,0.0
18108,74.0,0.0,60.0,4.0,0.0
18109,50.0,0.0,60.0,4.0,0.0
18110,78.0,30.0,60.0,0.0,0.0
18111,74.0,15.0,30.0,1.0,0.0
18112,62.0,0.0,60.0,4.0,0.0
18113,78.0,0.0,30.0,4.0,0.0
18114,62.0,15.0,40.0,3.0,0.0
18115,73.0,45.0,30.0,1.0,0.0
18116,77.0,0.0,30.0,4.0,0.0
18117,59.0,15.0,40.0,3.0,0.0
18118,59.0,0.0,60.0,4.0,0.0
18119,78.0,0.0,60.0,4.0,0.0
18120,74.0,30.0,60.0,1.0,0.0
18121,83.0,0.0,30.0,4.0,0.0
18122,56.0,0.0,60.0,4.0,0.0
18123,56.0,15.0,40.0,3.0,0.0
18124,68.0,15.0,30.0,2.0,0.0
18125,66.0,0.0,30.0,2.0,0.0
18126,81.0,45.0,30.0,4.0,0.0
18127,65.0,0.0,60.0,2.0,0.0
18128,61.0,45.0,120.0,3.0,0.0
18129,61.0,0.0,120.0,4.0,0.0
18130,65.0,0.0,120.0,4.0,0.0
18131,83.0,30.0,60.0,4.0,0.0
18132,61.0,15.0,40.0,0.0,0.0
18133,73.0,0.0,60.0,4.0,0.0
18134,65.0,30.0,30.0,0.0,0.0
18135,63.0,0.0,30.0,0.0,0.0
18136,73.0,30.0,60.0,4.0,0.0
18137,65.0,15.0,40.0,0.0,0.0
18138,61.0,0.0,40.0,1.0,0.0
18139,68.0,30.0,30.0,0.0,0.0
18140,65.0,0.0,30.0,1.0,0.0
18141,63.0,30.0,30.0,1.0,0.0
18142,66.0,0.0,30.0,0.0,0.0
18143,68.0,0.0,60.0,0.0,0.0
18144,83.0,0.0,15.0,4.0,0.0
18145,65.0,30.0,60.0,1.0,0.0
18146,85.0,0.0,30.0,4.0,0.0
18147,86.0,30.0,30.0,4.0,0.0
18148,83.0,45.0,30.0,4.0,0.0
18149,73.0,15.0,40.0,0.0,0.0
18150,89.0,30.0,60.0,4.0,0.0
18151,59.0,0.0,120.0,4.0,0.0
18152,61.0,0.0,120.0,4.0,0.0
18153,68.0,0.0,120.0,4.0,0.0
18154,59.0,0.0,120.0,3.0,0.0
18155,68.0,45.0,120.0,2.0,0.0
18156,77.0,30.0,30.0,0.0,0.0
18157,73.0,0.0,60.0,4.0,0.0
18158,75.0,0.0,30.0,0.0,0.0
18159,73.0,15.0,40.0,1.0,0.0
18160,77.0,0.0,40.0,0.0,0.0
18161,73.0,30.0,60.0,4.0,0.0
18162,80.0,30.0,30.0,0.0,0.0
18163,77.0,0.0,30.0,1.0,0.0
18164,75.0,0.0,30.0,1.0,0.0
18165,78.0,0.0,30.0,0.0,0.0
18166,77.0,0.0,60.0,1.0,0.0
18167,80.0,0.0,60.0,0.0,0.0
18168,77.0,30.0,15.0,4.0,0.0
18169,78.0,30.0,30.0,4.0,0.0
18170,80.0,30.0,30.0,4.0,0.0
18171,77.0,30.0,30.0,4.0,0.0
18172,80.0,0.0,120.0,0.0,0.0
18173,71.0,30.0,120.0,1.0,0.0
18174,73.0,15.0,40.0,2.0,0.0
18175,53.0,15.0,30.0,4.0,0.0
18176,71.0,0.0,30.0,4.0,0.0
18177,56.0,0.0,30.0,4.0,0.0
18178,77.0,30.0,30.0,4.0,0.0
18179,73.0,0.0,40.0,2.0,0.0
18180,78.0,0.0,30.0,4.0,0.0
18181,57.0,15.0,30.0,4.0,0.0
18182,59.0,15.0,40.0,3.0,0.0
18183,80.0,0.0,30.0,4.0,0.0
18184,59.0,0.0,30.0,4.0,0.0
18185,73.0,15.0,40.0,2.0,0.0
18186,56.0,0.0,40.0,3.0,0.0
18187,71.0,15.0,30.0,4.0,0.0
18188,49.0,0.0,30.0,4.0,0.0
18189,56.0,30.0,30.0,4.0,0.0
18190,77.0,0.0,30.0,4.0,0.0
18191,53.0,15.0,40.0,3.0,0.0
18192,73.0,0.0,40.0,2.0,0.0
18193,57.0,15.0,30.0,4.0,0.0
18194,78.0,0.0,30.0,4.0,0.0
18195,80.0,0.0,30.0,4.0,0.0
18196,59.0,30.0,30.0,4.0,0.0
18197,49.0,15.0,40.0,3.0,0.0
18198,73.0,0.0,40.0,2.0,0.0
18199,53.0,0.0,30.0,4.0,0.0
18200,71.0,15.0,30.0,4.0,0.0
18201,77.0,0.0,30.0,4.0,0.0
18202,56.0,30.0,30.0,4.0,0.0
18203,73.0,0.0,40.0,2.0,0.0
18204,57.0,15.0,30.0,4.0,0.0
18205,78.0,0.0,30.0,4.0,0.0
18206,53.0,15.0,40.0,3.0,0.0
18207,59.0,0.0,30.0,4.0,0.0
18208,80.0,30.0,30.0,4.0,0.0
18209,54.0,0.0,120.0,3.0,0.0
18210,54.0,30.0,60.0,4.0,0.0
18211,73.0,15.0,40.0,2.0,0.0
18212,70.0,15.0,30.0,4.0,0.0
18213,76.0,0.0,30.0,4.0,0.0
18214,73.0,0.0,40.0,2.0,0.0
18215,78.0,15.0,30.0,4.0,0.0
18216,76.0,0.0,40.0,0.0,0.0
18217,76.0,15.0,40.0,1.0,0.0
18218,79.0,30.0,30.0,4.0,0.0
18219,73.0,0.0,40.0,1.0,0.0
18220,66.0,0.0,60.0,4.0,0.0
18221,70.0,15.0,30.0,4.0,0.0
18222,73.0,0.0,40.0,0.0,0.0
18223,73.0,15.0,40.0,2.0,0.0
18224,76.0,30.0,30.0,4.0,0.0
18225,70.0,15.0,40.0,0.0,0.0
18226,70.0,0.0,40.0,1.0,0.0
18227,78.0,15.0,30.0,4.0,0.0
18228,73.0,0.0,40.0,2.0,0.0
18229,79.0,30.0,30.0,4.0,0.0
18230,73.0,15.0,40.0,2.0,0.0
18231,70.0,15.0,30.0,4.0,0.0
18232,52.0,30.0,60.0,4.0,0.0
18233,66.0,0.0,40.0,0.0,0.0
18234,66.0,0.0,40.0,1.0,0.0
18235,76.0,0.0,30.0,4.0,0.0
18236,73.0,0.0,40.0,2.0,0.0
18237,70.0,0.0,40.0,0.0,0.0
18238,78.0,15.0,30.0,4.0,0.0
18239,70.0,15.0,40.0,1.0,0.0
18240,79.0,30.0,30.0,4.0,0.0
18241,71.0,15.0,40.0,2.0,0.0
18242,51.0,0.0,30.0,4.0,0.0
18243,69.0,0.0,120.0,1.0,0.0
18244,69.0,15.0,30.0,4.0,0.0
18245,78.0,30.0,120.0,0.0,0.0
18246,75.0,30.0,30.0,4.0,0.0
18247,54.0,0.0,30.0,4.0,0.0
18248,71.0,15.0,40.0,2.0,0.0
18249,76.0,15.0,30.0,4.0,0.0
18250,57.0,0.0,40.0,3.0,0.0
18251,56.0,0.0,30.0,4.0,0.0
18252,78.0,0.0,30.0,4.0,0.0
18253,57.0,0.0,30.0,4.0,0.0
18254,71.0,0.0,40.0,2.0,0.0
18255,54.0,15.0,40.0,3.0,0.0
18256,47.0,15.0,30.0,4.0,0.0
18257,69.0,0.0,30.0,4.0,0.0
18258,54.0,30.0,30.0,4.0,0.0
18259,75.0,0.0,30.0,4.0,0.0
18260,71.0,0.0,40.0,2.0,0.0
18261,51.0,15.0,40.0,3.0,0.0
18262,56.0,0.0,30.0,4.0,0.0
18263,76.0,15.0,30.0,4.0,0.0
18264,57.0,30.0,30.0,4.0,0.0
18265,78.0,0.0,30.0,4.0,0.0
18266,71.0,15.0,40.0,2.0,0.0
18267,47.0,0.0,40.0,3.0,0.0
18268,51.0,15.0,30.0,4.0,0.0
18269,69.0,0.0,30.0,4.0,0.0
18270,54.0,30.0,30.0,4.0,0.0
18271,75.0,0.0,30.0,4.0,0.0
18272,56.0,15.0,30.0,4.0,0.0
18273,76.0,0.0,30.0,4.0,0.0
18274,51.0,15.0,40.0,3.0,0.0
18275,71.0,0.0,40.0,2.0,0.0
18276,78.0,0.0,30.0,4.0,0.0
18277,57.0,30.0,30.0,4.0,0.0
18278,68.0,15.0,30.0,4.0,0.0
18279,52.0,0.0,60.0,4.0,0.0
18280,71.0,15.0,40.0,2.0,0.0
18281,52.0,0.0,120.0,3.0,0.0
18282,74.0,30.0,30.0,4.0,0.0
18283,74.0,0.0,40.0,1.0,0.0
18284,71.0,0.0,40.0,2.0,0.0
18285,74.0,15.0,40.0,0.0,0.0
18286,76.0,15.0,30.0,4.0,0.0
18287,77.0,30.0,30.0,4.0,0.0
18288,71.0,15.0,40.0,1.0,0.0
18289,71.0,0.0,40.0,2.0,0.0
18290,71.0,0.0,40.0,0.0,0.0
18291,64.0,0.0,60.0,4.0,0.0
18292,68.0,15.0,30.0,4.0,0.0
18293,74.0,30.0,30.0,4.0,0.0
18294,68.0,15.0,40.0,0.0,0.0
18295,71.0,0.0,40.0,2.0,0.0
18296,76.0,15.0,30.0,4.0,0.0
18297,68.0,0.0,40.0,1.0,0.0
18298,77.0,30.0,30.0,4.0,0.0
18299,64.0,15.0,40.0,0.0,0.0
18300,50.0,0.0,60.0,4.0,0.0
18301,68.0,15.0,30.0,4.0,0.0
18302,64.0,0.0,40.0,1.0,0.0
18303,71.0,0.0,40.0,2.0,0.0
18304,74.0,30.0,30.0,4.0,0.0
18305,76.0,15.0,30.0,4.0,0.0
18306,68.0,0.0,40.0,1.0,0.0
18307,71.0,0.0,40.0,2.0,0.0
18308,68.0,15.0,40.0,0.0,0.0
18309,77.0,30.0,30.0,4.0,0.0
18310,76.0,0.0,120.0,0.0,0.0
18311,67.0,0.0,120.0,1.0,0.0
18312,69.0,15.0,40.0,2.0,0.0
18313,49.0,0.0,30.0,4.0,0.0
18314,67.0,15.0,30.0,4.0,0.0
18315,73.0,30.0,30.0,4.0,0.0
18316,52.0,0.0,30.0,4.0,0.0
18317,54.0,15.0,30.0,4.0,0.0
18318,74.0,0.0,30.0,4.0,0.0
18319,69.0,0.0,40.0,2.0,0.0
18320,55.0,15.0,40.0,3.0,0.0
18321,55.0,0.0,30.0,4.0,0.0
18322,76.0,30.0,30.0,4.0,0.0
18323,69.0,15.0,40.0,2.0,0.0
18324,67.0,15.0,30.0,4.0,0.0
18325,52.0,0.0,40.0,3.0,0.0
18326,45.0,0.0,30.0,4.0,0.0
18327,52.0,30.0,30.0,4.0,0.0
18328,73.0,0.0,30.0,4.0,0.0
18329,49.0,15.0,40.0,3.0,0.0
18330,74.0,15.0,30.0,4.0,0.0
18331,54.0,0.0,30.0,4.0,0.0
18332,69.0,0.0,40.0,2.0,0.0
18333,55.0,0.0,30.0,4.0,0.0
18334,76.0,30.0,30.0,4.0,0.0
18335,45.0,0.0,40.0,3.0,0.0
18336,67.0,0.0,30.0,4.0,0.0
18337,69.0,15.0,40.0,2.0,0.0
18338,49.0,15.0,30.0,4.0,0.0
18339,52.0,0.0,30.0,4.0,0.0
18340,73.0,30.0,30.0,4.0,0.0
18341,74.0,0.0,30.0,4.0,0.0
18342,54.0,15.0,30.0,4.0,0.0
18343,49.0,15.0,40.0,3.0,0.0
18344,69.0,0.0,40.0,2.0,0.0
18345,76.0,30.0,30.0,4.0,0.0
18346,55.0,0.0,30.0,4.0,0.0
18347,69.0,0.0,40.0,2.0,0.0
18348,50.0,15.0,40.0,3.0,0.0
18349,66.0,15.0,30.0,4.0,0.0
18350,50.0,30.0,60.0,4.0,0.0
18351,74.0,0.0,30.0,4.0,0.0
18352,74.0,0.0,40.0,1.0,0.0
18353,66.0,15.0,40.0,2.0,0.0
18354,54.0,0.0,40.0,3.0,0.0
18355,70.0,15.0,30.0,4.0,0.0
18356,54.0,30.0,60.0,4.0,0.0
18357,78.0,0.0,40.0,0.0,0.0
18358,71.0,0.0,30.0,4.0,0.0
18359,67.0,15.0,30.0,4.0,0.0
18360,59.0,30.0,60.0,4.0,0.0
18361,47.0,0.0,40.0,3.0,0.0
18362,79.0,0.0,40.0,0.0,0.0
18363,74.0,15.0,40.0,1.0,0.0
18364,62.0,0.0,40.0,2.0,0.0
18365,74.0,0.0,30.0,4.0,0.0
18366,66.0,15.0,40.0,2.0,0.0
18367,78.0,0.0,40.0,0.0,0.0
18368,47.0,0.0,40.0,3.0,0.0
18369,70.0,15.0,30.0,4.0,0.0
18370,74.0,0.0,40.0,1.0,0.0
18371,47.0,0.0,60.0,4.0,0.0
18372,71.0,30.0,30.0,4.0,0.0
18373,66.0,15.0,30.0,4.0,0.0
18374,71.0,0.0,40.0,2.0,0.0
18375,78.0,0.0,40.0,0.0,0.0
18376,47.0,15.0,40.0,3.0,0.0
18377,74.0,0.0,40.0,1.0,0.0
18378,74.0,30.0,30.0,4.0,0.0
18379,47.0,0.0,15.0,4.0,0.0
18380,70.0,15.0,30.0,4.0,0.0
18381,47.0,0.0,40.0,3.0,0.0
18382,74.0,15.0,40.0,1.0,0.0
18383,77.0,0.0,40.0,0.0,0.0
18384,74.0,0.0,40.0,2.0,0.0
18385,71.0,30.0,30.0,4.0,0.0
18386,77.0,0.0,120.0,0.0,0.0
18387,68.0,0.0,120.0,2.0,0.0
18388,47.0,0.0,15.0,4.0,0.0
18389,49.0,0.0,120.0,4.0,0.0
18390,56.0,30.0,120.0,4.0,0.0
18391,65.0,30.0,30.0,4.0,0.0
18392,47.0,0.0,120.0,3.0,0.0
18393,73.0,0.0,120.0,1.0,0.0
18394,63.0,30.0,30.0,4.0,0.0
18395,61.0,30.0,30.0,4.0,0.0
18396,63.0,0.0,30.0,4.0,0.0
18397,65.0,30.0,30.0,4.0,0.0
18398,66.0,30.0,30.0,4.0,0.0
18399,68.0,30.0,30.0,4.0,0.0
18400,69.0,30.0,30.0,4.0,0.0
18401,71.0,30.0,30.0,4.0,0.0
18402,73.0,30.0,30.0,4.0,0.0
18403,74.0,30.0,30.0,4.0,0.0
18404,71.0,30.0,30.0,4.0,0.0
18405,68.0,30.0,30.0,4.0,0.0
18406,66.0,30.0,30.0,4.0,0.0
18407,49.0,30.0,30.0,4.0,0.0
18408,65.0,0.0,30.0,4.0,0.0
18409,51.0,30.0,30.0,4.0,0.0
18410,66.0,0.0,30.0,4.0,0.0
18411,53.0,0.0,30.0,4.0,0.0
18412,68.0,30.0,30.0,4.0,0.0
18413,69.0,0.0,30.0,4.0,0.0
18414,54.0,30.0,30.0,4.0,0.0
18415,71.0,0.0,30.0,4.0,0.0
18416,56.0,30.0,30.0,4.0,0.0
18417,57.0,30.0,30.0,4.0,0.0
18418,73.0,0.0,30.0,4.0,0.0
18419,59.0,0.0,180.0,4.0,0.0
18420,74.0,30.0,30.0,4.0,0.0
18421,71.0,30.0,30.0,4.0,0.0
18422,69.0,30.0,30.0,4.0,0.0
18423,68.0,30.0,30.0,4.0,0.0
18424,77.0,30.0,30.0,4.0,0.0
18425,75.0,30.0,30.0,4.0,0.0
18426,73.0,30.0,30.0,4.0,0.0
18427,71.0,0.0,30.0,4.0,0.0
18428,75.0,30.0,30.0,4.0,0.0
18429,69.0,0.0,30.0,4.0,0.0
18430,77.0,0.0,30.0,4.0,0.0
18431,68.0,30.0,30.0,4.0,0.0
18432,78.0,0.0,30.0,4.0,0.0
18433,66.0,30.0,30.0,4.0,0.0
18434,65.0,0.0,30.0,4.0,0.0
18435,80.0,30.0,30.0,4.0,0.0
18436,81.0,30.0,30.0,4.0,0.0
18437,63.0,0.0,30.0,4.0,0.0
18438,61.0,30.0,30.0,4.0,0.0
18439,83.0,0.0,30.0,4.0,0.0
18440,62.0,0.0,30.0,4.0,0.0
18441,81.0,30.0,30.0,4.0,0.0
18442,83.0,0.0,30.0,4.0,0.0
18443,61.0,30.0,30.0,4.0,0.0
18444,80.0,0.0,30.0,4.0,0.0
18445,59.0,30.0,30.0,4.0,0.0
18446,57.0,0.0,60.0,4.0,0.0
18447,85.0,30.0,30.0,4.0,0.0
18448,45.0,0.0,120.0,3.0,0.0
18449,78.0,0.0,120.0,0.0,0.0
18450,69.0,0.0,120.0,2.0,0.0
18451,73.0,30.0,120.0,1.0,0.0
18452,81.0,30.0,30.0,4.0,0.0
18453,61.0,0.0,60.0,4.0,0.0
18454,78.0,30.0,30.0,4.0,0.0
18455,73.0,0.0,30.0,4.0,0.0
18456,85.0,30.0,30.0,4.0,0.0
18457,66.0,30.0,60.0,4.0,0.0
18458,80.0,0.0,30.0,4.0,0.0
18459,81.0,30.0,30.0,4.0,0.0
18460,61.0,30.0,60.0,4.0,0.0
18461,78.0,0.0,30.0,4.0,0.0
18462,57.0,0.0,60.0,4.0,0.0
18463,73.0,30.0,30.0,4.0,0.0
18464,78.0,30.0,30.0,4.0,0.0
18465,81.0,30.0,30.0,4.0,0.0
18466,54.0,30.0,60.0,4.0,0.0
18467,85.0,0.0,30.0,4.0,0.0
18468,83.0,30.0,30.0,4.0,0.0
18469,80.0,30.0,120.0,0.0,0.0
18470,53.0,0.0,120.0,3.0,0.0
18471,53.0,0.0,60.0,4.0,0.0
18472,68.0,0.0,120.0,2.0,0.0
18473,73.0,0.0,120.0,1.0,0.0
18474,80.0,30.0,30.0,4.0,0.0
18475,77.0,30.0,30.0,4.0,0.0
18476,56.0,0.0,60.0,4.0,0.0
18477,73.0,0.0,30.0,4.0,0.0
18478,83.0,30.0,30.0,4.0,0.0
18479,61.0,0.0,60.0,4.0,0.0
18480,78.0,30.0,30.0,4.0,0.0
18481,80.0,30.0,30.0,4.0,0.0
18482,56.0,30.0,60.0,4.0,0.0
18483,77.0,0.0,30.0,4.0,0.0
18484,53.0,30.0,60.0,4.0,0.0
18485,73.0,30.0,30.0,4.0,0.0
18486,77.0,0.0,30.0,4.0,0.0
18487,49.0,0.0,60.0,4.0,0.0
18488,80.0,30.0,30.0,4.0,0.0
18489,83.0,30.0,30.0,4.0,0.0
18490,81.0,0.0,120.0,0.0,0.0
18491,81.0,30.0,30.0,4.0,0.0
18492,54.0,0.0,120.0,3.0,0.0
18493,66.0,30.0,120.0,2.0,0.0
18494,54.0,0.0,60.0,4.0,0.0
18495,73.0,0.0,120.0,1.0,0.0
18496,78.0,30.0,30.0,4.0,0.0
18497,74.0,30.0,30.0,4.0,0.0
18498,57.0,0.0,60.0,4.0,0.0
18499,73.0,0.0,30.0,4.0,0.0
18500,61.0,0.0,60.0,4.0,0.0
18501,81.0,30.0,30.0,4.0,0.0
18502,77.0,30.0,30.0,4.0,0.0
18503,78.0,30.0,30.0,4.0,0.0
18504,57.0,30.0,60.0,4.0,0.0
18505,74.0,0.0,30.0,4.0,0.0
18506,54.0,30.0,60.0,4.0,0.0
18507,73.0,30.0,30.0,4.0,0.0
18508,77.0,0.0,30.0,4.0,0.0
18509,49.0,0.0,60.0,4.0,0.0
18510,78.0,30.0,30.0,4.0,0.0
18511,81.0,30.0,30.0,4.0,0.0
18512,80.0,30.0,30.0,4.0,0.0
18513,53.0,30.0,60.0,4.0,0.0
18514,73.0,0.0,120.0,1.0,0.0
18515,80.0,0.0,120.0,0.0,0.0
18516,49.0,0.0,120.0,3.0,0.0
18517,65.0,30.0,120.0,2.0,0.0
18518,77.0,0.0,30.0,4.0,0.0
18519,74.0,30.0,30.0,4.0,0.0
18520,56.0,0.0,60.0,4.0,0.0
18521,73.0,0.0,30.0,4.0,0.0
18522,61.0,30.0,60.0,4.0,0.0
18523,80.0,30.0,30.0,4.0,0.0
18524,77.0,0.0,30.0,4.0,0.0
18525,56.0,30.0,60.0,4.0,0.0
18526,78.0,30.0,30.0,4.0,0.0
18527,74.0,0.0,30.0,4.0,0.0
18528,73.0,30.0,30.0,4.0,0.0
18529,53.0,30.0,60.0,4.0,0.0
18530,74.0,0.0,30.0,4.0,0.0
18531,49.0,0.0,60.0,4.0,0.0
18532,77.0,30.0,30.0,4.0,0.0
18533,80.0,30.0,30.0,4.0,0.0
18534,49.0,30.0,120.0,3.0,0.0
18535,66.0,0.0,120.0,2.0,0.0
18536,73.0,0.0,120.0,1.0,0.0
18537,78.0,0.0,120.0,0.0,0.0
18538,81.0,30.0,30.0,4.0,0.0
18539,54.0,30.0,60.0,4.0,0.0
18540,78.0,0.0,30.0,4.0,0.0
18541,74.0,30.0,30.0,4.0,0.0
18542,57.0,0.0,60.0,4.0,0.0
18543,73.0,0.0,30.0,4.0,0.0
18544,61.0,0.0,60.0,4.0,0.0
18545,81.0,30.0,30.0,4.0,0.0
18546,77.0,30.0,30.0,4.0,0.0
18547,78.0,30.0,30.0,4.0,0.0
18548,57.0,30.0,60.0,4.0,0.0
18549,74.0,0.0,30.0,4.0,0.0
18550,73.0,30.0,30.0,4.0,0.0
18551,54.0,30.0,60.0,4.0,0.0
18552,77.0,0.0,30.0,4.0,0.0
18553,49.0,30.0,60.0,4.0,0.0
18554,78.0,30.0,30.0,4.0,0.0
18555,81.0,0.0,30.0,4.0,0.0
18556,84.0,30.0,30.0,4.0,0.0
18557,78.0,0.0,120.0,0.0,0.0
18558,49.0,0.0,120.0,3.0,0.0
18559,54.0,0.0,60.0,4.0,0.0
18560,69.0,0.0,120.0,2.0,0.0
18561,75.0,0.0,120.0,1.0,0.0
18562,81.0,30.0,30.0,4.0,0.0
18563,78.0,30.0,30.0,4.0,0.0
18564,60.0,30.0,60.0,4.0,0.0
18565,75.0,0.0,30.0,4.0,0.0
18566,84.0,30.0,30.0,4.0,0.0
18567,63.0,30.0,60.0,4.0,0.0
18568,80.0,0.0,30.0,4.0,0.0
18569,60.0,30.0,60.0,4.0,0.0
18570,81.0,30.0,30.0,4.0,0.0
18571,78.0,0.0,30.0,4.0,0.0
18572,75.0,30.0,30.0,4.0,0.0
18573,54.0,30.0,60.0,4.0,0.0
18574,78.0,0.0,30.0,4.0,0.0
18575,49.0,30.0,60.0,4.0,0.0
18576,81.0,30.0,30.0,4.0,0.0
18577,84.0,0.0,30.0,4.0,0.0
18578,68.0,0.0,120.0,2.0,0.0
18579,61.0,30.0,30.0,4.0,0.0
18580,77.0,0.0,120.0,0.0,0.0
18581,73.0,0.0,120.0,1.0,0.0
18582,49.0,0.0,120.0,3.0,0.0
18583,85.0,0.0,30.0,4.0,0.0
18584,80.0,0.0,30.0,4.0,0.0
18585,71.0,30.0,30.0,4.0,0.0
18586,73.0,30.0,30.0,4.0,0.0
18587,81.0,0.0,30.0,4.0,0.0
18588,85.0,0.0,30.0,4.0,0.0
18589,69.0,30.0,30.0,4.0,0.0
18590,71.0,30.0,30.0,4.0,0.0
18591,85.0,0.0,30.0,4.0,0.0
18592,69.0,30.0,30.0,4.0,0.0
18593,78.0,0.0,30.0,4.0,0.0
18594,71.0,30.0,30.0,4.0,0.0
18595,80.0,0.0,30.0,4.0,0.0
18596,85.0,0.0,30.0,4.0,0.0
18597,68.0,30.0,30.0,4.0,0.0
18598,69.0,30.0,30.0,4.0,0.0
18599,85.0,0.0,30.0,4.0,0.0
18600,68.0,30.0,30.0,4.0,0.0
18601,77.0,0.0,30.0,4.0,0.0
18602,69.0,0.0,30.0,4.0,0.0
18603,78.0,30.0,30.0,4.0,0.0
18604,66.0,0.0,30.0,4.0,0.0
18605,85.0,30.0,15.0,4.0,0.0
18606,68.0,30.0,30.0,4.0,0.0
18607,75.0,30.0,30.0,4.0,0.0
18608,66.0,0.0,30.0,4.0,0.0
18609,68.0,30.0,30.0,4.0,0.0
18610,77.0,0.0,30.0,4.0,0.0
18611,65.0,30.0,30.0,4.0,0.0
18612,80.0,0.0,30.0,4.0,0.0
18613,85.0,30.0,30.0,4.0,0.0
18614,61.0,30.0,60.0,4.0,0.0
18615,80.0,0.0,30.0,4.0,0.0
18616,77.0,30.0,30.0,4.0,0.0
18617,49.0,0.0,60.0,4.0,0.0
18618,53.0,0.0,60.0,4.0,0.0
18619,56.0,0.0,60.0,4.0,0.0
18620,73.0,0.0,30.0,4.0,0.0
18621,71.0,30.0,30.0,4.0,0.0
18622,61.0,30.0,15.0,4.0,0.0
18623,73.0,0.0,30.0,4.0,0.0
18624,61.0,0.0,15.0,4.0,0.0
18625,56.0,30.0,15.0,4.0,0.0
18626,53.0,0.0,15.0,4.0,0.0
18627,49.0,0.0,15.0,4.0,0.0
18628,74.0,30.0,30.0,4.0,0.0
18629,77.0,30.0,30.0,4.0,0.0
18630,78.0,30.0,30.0,4.0,0.0
18631,61.0,0.0,15.0,4.0,0.0
18632,57.0,30.0,60.0,4.0,0.0
18633,54.0,0.0,60.0,4.0,0.0
18634,69.0,0.0,30.0,4.0,0.0
18635,73.0,0.0,30.0,4.0,0.0
18636,74.0,30.0,30.0,4.0,0.0
18637,71.0,0.0,30.0,4.0,0.0
18638,78.0,30.0,30.0,4.0,0.0
18639,68.0,0.0,30.0,4.0,0.0
18640,69.0,0.0,30.0,4.0,0.0
18641,78.0,30.0,30.0,4.0,0.0
18642,71.0,30.0,30.0,4.0,0.0
18643,68.0,0.0,30.0,4.0,0.0
18644,73.0,30.0,30.0,4.0,0.0
18645,69.0,0.0,30.0,4.0,0.0
18646,78.0,30.0,30.0,4.0,0.0
18647,66.0,0.0,30.0,4.0,0.0
18648,68.0,0.0,30.0,4.0,0.0
18649,78.0,30.0,30.0,4.0,0.0
18650,69.0,30.0,30.0,4.0,0.0
18651,66.0,0.0,30.0,4.0,0.0
18652,71.0,30.0,30.0,4.0,0.0
18653,68.0,0.0,30.0,4.0,0.0
18654,61.0,0.0,30.0,4.0,0.0
18655,78.0,30.0,15.0,4.0,0.0
18656,66.0,30.0,30.0,4.0,0.0
18657,68.0,0.0,30.0,4.0,0.0
18658,65.0,30.0,30.0,4.0,0.0
18659,66.0,30.0,30.0,4.0,0.0
18660,69.0,0.0,30.0,4.0,0.0
18661,61.0,30.0,30.0,4.0,0.0
18662,73.0,0.0,30.0,4.0,0.0
18663,78.0,30.0,30.0,4.0,0.0
18664,73.0,0.0,30.0,4.0,0.0
18665,69.0,30.0,30.0,4.0,0.0
18666,61.0,30.0,60.0,4.0,0.0
18667,57.0,30.0,15.0,4.0,0.0
18668,54.0,0.0,60.0,4.0,0.0
18669,73.0,0.0,30.0,4.0,0.0
18670,66.0,0.0,15.0,4.0,0.0
18671,54.0,0.0,60.0,4.0,0.0
18672,58.0,0.0,60.0,4.0,0.0
18673,61.0,30.0,60.0,4.0,0.0
18674,76.0,30.0,30.0,4.0,0.0
18675,78.0,0.0,30.0,4.0,0.0
18676,79.0,30.0,30.0,4.0,0.0
18677,66.0,0.0,60.0,4.0,0.0
18678,61.0,30.0,60.0,4.0,0.0
18679,54.0,0.0,60.0,4.0,0.0
18680,58.0,0.0,60.0,4.0,0.0
18681,82.0,0.0,30.0,4.0,0.0
18682,83.0,30.0,30.0,4.0,0.0
18683,66.0,0.0,60.0,4.0,0.0
18684,62.0,0.0,60.0,4.0,0.0
18685,59.0,0.0,60.0,4.0,0.0
18686,78.0,30.0,30.0,4.0,0.0
18687,70.0,0.0,30.0,4.0,0.0
18688,79.0,30.0,30.0,4.0,0.0
18689,71.0,0.0,30.0,4.0,0.0
18690,67.0,0.0,30.0,4.0,0.0
18691,83.0,30.0,15.0,4.0,0.0
18692,69.0,30.0,30.0,4.0,0.0
18693,76.0,30.0,30.0,4.0,0.0
18694,67.0,0.0,30.0,4.0,0.0
18695,69.0,30.0,30.0,4.0,0.0
18696,78.0,0.0,30.0,4.0,0.0
18697,66.0,0.0,30.0,4.0,0.0
18698,83.0,30.0,15.0,4.0,0.0
18699,67.0,0.0,30.0,4.0,0.0
18700,74.0,30.0,30.0,4.0,0.0
18701,66.0,0.0,30.0,4.0,0.0
18702,67.0,30.0,30.0,4.0,0.0
18703,76.0,0.0,30.0,4.0,0.0
18704,64.0,30.0,30.0,4.0,0.0
18705,83.0,0.0,30.0,4.0,0.0
18706,66.0,30.0,30.0,4.0,0.0
18707,83.0,0.0,30.0,4.0,0.0
18708,64.0,30.0,30.0,4.0,0.0
18709,73.0,0.0,30.0,4.0,0.0
18710,74.0,0.0,30.0,4.0,0.0
18711,66.0,30.0,30.0,4.0,0.0
18712,62.0,30.0,30.0,4.0,0.0
18713,78.0,0.0,30.0,4.0,0.0
18714,83.0,30.0,30.0,4.0,0.0
18715,78.0,30.0,30.0,4.0,0.0
18716,74.0,30.0,30.0,4.0,0.0
18717,59.0,0.0,15.0,4.0,0.0
18718,50.0,0.0,60.0,4.0,0.0
18719,71.0,0.0,30.0,4.0,0.0
18720,51.0,0.0,60.0,4.0,0.0
18721,59.0,30.0,15.0,4.0,0.0
18722,54.0,0.0,15.0,4.0,0.0
18723,47.0,0.0,15.0,4.0,0.0
18724,69.0,30.0,30.0,4.0,0.0
18725,71.0,0.0,30.0,4.0,0.0
18726,72.0,30.0,30.0,4.0,0.0
18727,47.0,30.0,15.0,4.0,0.0
18728,51.0,0.0,60.0,4.0,0.0
18729,54.0,30.0,60.0,4.0,0.0
18730,59.0,0.0,60.0,4.0,0.0
18731,75.0,0.0,30.0,4.0,0.0
18732,52.0,0.0,60.0,4.0,0.0
18733,56.0,30.0,60.0,4.0,0.0
18734,59.0,0.0,60.0,4.0,0.0
18735,76.0,30.0,30.0,4.0,0.0
18736,68.0,0.0,30.0,4.0,0.0
18737,71.0,0.0,30.0,4.0,0.0
18738,69.0,0.0,30.0,4.0,0.0
18739,73.0,30.0,30.0,4.0,0.0
18740,66.0,0.0,30.0,4.0,0.0
18741,68.0,30.0,30.0,4.0,0.0
18742,76.0,30.0,15.0,4.0,0.0
18743,66.0,30.0,30.0,4.0,0.0
18744,69.0,0.0,30.0,4.0,0.0
18745,68.0,0.0,30.0,4.0,0.0
18746,71.0,30.0,30.0,4.0,0.0
18747,64.0,30.0,30.0,4.0,0.0
18748,76.0,0.0,30.0,4.0,0.0
18749,66.0,0.0,30.0,4.0,0.0
18750,76.0,30.0,30.0,4.0,0.0
18751,64.0,30.0,30.0,4.0,0.0
18752,68.0,0.0,30.0,4.0,0.0
18753,66.0,30.0,30.0,4.0,0.0
18754,69.0,0.0,30.0,4.0,0.0
18755,59.0,30.0,30.0,4.0,0.0
18756,76.0,0.0,30.0,4.0,0.0
18757,64.0,0.0,30.0,4.0,0.0
18758,76.0,30.0,30.0,4.0,0.0
18759,63.0,30.0,30.0,4.0,0.0
18760,66.0,0.0,30.0,4.0,0.0
18761,64.0,30.0,30.0,4.0,0.0
18762,68.0,0.0,30.0,4.0,0.0
18763,59.0,30.0,30.0,4.0,0.0
18764,71.0,0.0,30.0,4.0,0.0
18765,56.0,0.0,60.0,4.0,0.0
18766,76.0,30.0,30.0,4.0,0.0
18767,71.0,30.0,30.0,4.0,0.0
18768,64.0,0.0,60.0,4.0,0.0
18769,68.0,30.0,30.0,4.0,0.0
18770,59.0,30.0,60.0,4.0,0.0
18771,52.0,0.0,60.0,4.0,0.0
18772,71.0,0.0,30.0,4.0,0.0
18773,56.0,0.0,15.0,4.0,0.0
18774,52.0,0.0,60.0,4.0,0.0
18775,74.0,30.0,30.0,4.0,0.0
18776,76.0,0.0,30.0,4.0,0.0
18777,59.0,0.0,15.0,4.0,0.0
18778,77.0,30.0,30.0,4.0,0.0
18779,64.0,30.0,15.0,4.0,0.0
18780,56.0,0.0,15.0,4.0,0.0
18781,52.0,0.0,60.0,4.0,0.0
18782,80.0,0.0,30.0,4.0,0.0
18783,64.0,0.0,15.0,4.0,0.0
18784,57.0,0.0,60.0,4.0,0.0
18785,81.0,30.0,30.0,4.0,0.0
18786,61.0,30.0,60.0,4.0,0.0
18787,68.0,0.0,30.0,4.0,0.0
18788,76.0,0.0,30.0,4.0,0.0
18789,78.0,0.0,30.0,4.0,0.0
18790,69.0,30.0,30.0,4.0,0.0
18791,66.0,30.0,30.0,4.0,0.0
18792,67.0,30.0,30.0,4.0,0.0
18793,81.0,0.0,15.0,4.0,0.0
18794,66.0,30.0,30.0,4.0,0.0
18795,74.0,0.0,30.0,4.0,0.0
18796,67.0,0.0,30.0,4.0,0.0
18797,76.0,30.0,30.0,4.0,0.0
18798,81.0,0.0,30.0,4.0,0.0
18799,64.0,30.0,30.0,4.0,0.0
18800,66.0,30.0,30.0,4.0,0.0
18801,81.0,0.0,30.0,4.0,0.0
18802,73.0,0.0,30.0,4.0,0.0
18803,64.0,30.0,30.0,4.0,0.0
18804,66.0,30.0,30.0,4.0,0.0
18805,74.0,0.0,30.0,4.0,0.0
18806,62.0,30.0,30.0,4.0,0.0
18807,81.0,0.0,30.0,4.0,0.0
18808,64.0,30.0,30.0,4.0,0.0
18809,81.0,0.0,30.0,4.0,0.0
18810,62.0,30.0,30.0,4.0,0.0
18811,71.0,0.0,30.0,4.0,0.0
18812,73.0,0.0,30.0,4.0,0.0
18813,64.0,30.0,30.0,4.0,0.0
18814,61.0,30.0,30.0,4.0,0.0
18815,76.0,0.0,30.0,4.0,0.0
18816,57.0,30.0,60.0,4.0,0.0
18817,81.0,30.0,30.0,4.0,0.0
18818,76.0,0.0,30.0,4.0,0.0
18819,73.0,30.0,30.0,4.0,0.0
18820,69.0,0.0,30.0,4.0,0.0
18821,67.0,30.0,30.0,4.0,0.0
18822,57.0,0.0,15.0,4.0,0.0
18823,52.0,30.0,15.0,4.0,0.0
18824,45.0,0.0,15.0,4.0,0.0
18825,49.0,0.0,15.0,4.0,0.0
18826,69.0,0.0,30.0,4.0,0.0
18827,49.0,0.0,15.0,4.0,0.0
18828,70.0,30.0,30.0,4.0,0.0
18829,57.0,0.0,15.0,4.0,0.0
18830,52.0,30.0,15.0,4.0,0.0
18831,45.0,0.0,15.0,4.0,0.0
18832,73.0,0.0,30.0,4.0,0.0
18833,54.0,30.0,60.0,4.0,0.0
18834,74.0,30.0,30.0,4.0,0.0
18835,57.0,0.0,15.0,4.0,0.0
18836,50.0,0.0,60.0,4.0,0.0
18837,66.0,0.0,30.0,4.0,0.0
18838,69.0,0.0,30.0,4.0,0.0
18839,67.0,30.0,30.0,4.0,0.0
18840,71.0,0.0,30.0,4.0,0.0
18841,64.0,30.0,30.0,4.0,0.0
18842,74.0,0.0,15.0,4.0,0.0
18843,66.0,30.0,30.0,4.0,0.0
18844,64.0,30.0,30.0,4.0,0.0
18845,67.0,0.0,30.0,4.0,0.0
18846,66.0,30.0,30.0,4.0,0.0
18847,69.0,0.0,30.0,4.0,0.0
18848,62.0,30.0,30.0,4.0,0.0
18849,74.0,0.0,15.0,4.0,0.0
18850,64.0,30.0,30.0,4.0,0.0
18851,62.0,30.0,30.0,4.0,0.0
18852,66.0,0.0,30.0,4.0,0.0
18853,67.0,30.0,30.0,4.0,0.0
18854,64.0,0.0,30.0,4.0,0.0
18855,57.0,30.0,30.0,4.0,0.0
18856,74.0,0.0,30.0,4.0,0.0
18857,62.0,30.0,30.0,4.0,0.0
18858,74.0,0.0,30.0,4.0,0.0
18859,61.0,30.0,30.0,4.0,0.0
18860,64.0,0.0,30.0,4.0,0.0
18861,62.0,30.0,30.0,4.0,0.0
18862,66.0,0.0,30.0,4.0,0.0
18863,69.0,0.0,30.0,4.0,0.0
18864,57.0,30.0,30.0,4.0,0.0
18865,54.0,0.0,60.0,4.0,0.0
18866,74.0,30.0,30.0,4.0,0.0
18867,69.0,30.0,30.0,4.0,0.0
18868,50.0,0.0,60.0,4.0,0.0
18869,66.0,30.0,30.0,4.0,0.0
18870,69.0,0.0,30.0,4.0,0.0
18871,72.0,30.0,30.0,4.0,0.0
18872,62.0,30.0,15.0,4.0,0.0
18873,57.0,0.0,15.0,4.0,0.0
18874,54.0,0.0,15.0,4.0,0.0
18875,74.0,0.0,30.0,4.0,0.0
18876,62.0,0.0,15.0,4.0,0.0
18877,57.0,30.0,15.0,4.0,0.0
18878,54.0,0.0,15.0,4.0,0.0
18879,75.0,30.0,30.0,4.0,0.0
18880,50.0,0.0,15.0,4.0,0.0
18881,78.0,0.0,30.0,4.0,0.0
18882,79.0,30.0,30.0,4.0,0.0
18883,62.0,0.0,15.0,4.0,0.0
18884,59.0,0.0,60.0,4.0,0.0
18885,55.0,0.0,60.0,4.0,0.0
18886,66.0,0.0,30.0,4.0,0.0
18887,74.0,0.0,30.0,4.0,0.0
18888,76.0,30.0,30.0,4.0,0.0
18889,67.0,0.0,30.0,4.0,0.0
18890,64.0,0.0,30.0,4.0,0.0
18891,79.0,30.0,15.0,4.0,0.0
18892,65.0,30.0,30.0,4.0,0.0
18893,64.0,30.0,30.0,4.0,0.0
18894,72.0,0.0,30.0,4.0,0.0
18895,74.0,30.0,30.0,4.0,0.0
18896,65.0,0.0,30.0,4.0,0.0
18897,79.0,0.0,30.0,4.0,0.0
18898,62.0,30.0,30.0,4.0,0.0
18899,64.0,30.0,30.0,4.0,0.0
18900,79.0,0.0,30.0,4.0,0.0
18901,62.0,0.0,30.0,4.0,0.0
18902,71.0,30.0,30.0,4.0,0.0
18903,72.0,0.0,30.0,4.0,0.0
18904,64.0,30.0,30.0,4.0,0.0
18905,60.0,30.0,30.0,4.0,0.0
18906,79.0,0.0,30.0,4.0,0.0
18907,62.0,30.0,30.0,4.0,0.0
18908,79.0,0.0,30.0,4.0,0.0
18909,60.0,30.0,30.0,4.0,0.0
18910,69.0,0.0,30.0,4.0,0.0
18911,62.0,30.0,30.0,4.0,0.0
18912,71.0,0.0,30.0,4.0,0.0
18913,74.0,30.0,30.0,4.0,0.0
18914,57.0,0.0,30.0,4.0,0.0
18915,79.0,0.0,30.0,4.0,0.0
18916,59.0,30.0,30.0,4.0,0.0
18917,55.0,30.0,30.0,4.0,0.0
18918,74.0,0.0,30.0,4.0,0.0
18919,59.0,30.0,30.0,4.0,0.0
18920,71.0,0.0,30.0,4.0,0.0
18921,62.0,0.0,30.0,4.0,0.0
18922,71.0,0.0,30.0,4.0,0.0
18923,67.0,30.0,15.0,4.0,0.0
18924,74.0,0.0,30.0,4.0,0.0
18925,55.0,30.0,30.0,4.0,0.0
18926,59.0,30.0,30.0,4.0,0.0
18927,79.0,0.0,30.0,4.0,0.0
18928,74.0,30.0,30.0,4.0,0.0
18929,62.0,0.0,30.0,4.0,0.0
18930,83.0,30.0,30.0,4.0,0.0
18931,67.0,0.0,60.0,4.0,0.0
18932,79.0,30.0,30.0,4.0,0.0
18933,47.0,15.0,40.0,3.0,0.0
18934,86.0,15.0,30.0,4.0,0.0
18935,59.0,0.0,60.0,4.0,0.0
18936,47.0,0.0,60.0,4.0,0.0
18937,83.0,30.0,30.0,4.0,0.0
18938,47.0,15.0,40.0,3.0,0.0
18939,79.0,15.0,30.0,4.0,0.0
18940,59.0,0.0,60.0,4.0,0.0
18941,83.0,30.0,30.0,4.0,0.0
18942,47.0,15.0,40.0,3.0,0.0
18943,74.0,15.0,30.0,4.0,0.0
18944,59.0,0.0,60.0,4.0,0.0
18945,47.0,0.0,15.0,4.0,0.0
18946,79.0,0.0,30.0,4.0,0.0
18947,71.0,15.0,30.0,4.0,0.0
18948,47.0,15.0,40.0,3.0,0.0
18949,47.0,0.0,60.0,4.0,0.0
18950,74.0,30.0,30.0,4.0,0.0
18951,67.0,15.0,30.0,4.0,0.0
18952,59.0,0.0,15.0,4.0,0.0
18953,47.0,0.0,60.0,4.0,0.0
18954,67.0,15.0,40.0,2.0,0.0
18955,83.0,0.0,40.0,1.0,0.0
18956,47.0,0.0,40.0,3.0,0.0
18957,86.0,0.0,40.0,0.0,0.0
18958,71.0,30.0,30.0,4.0,0.0
18959,83.0,0.0,60.0,1.0,0.0
18960,65.0,15.0,30.0,4.0,0.0
18961,49.0,0.0,780.0,3.0,0.0
18962,65.0,15.0,60.0,2.0,0.0
18963,56.0,0.0,120.0,4.0,0.0
18964,49.0,0.0,120.0,4.0,0.0
18965,86.0,0.0,60.0,0.0,0.0
18966,59.0,0.0,120.0,4.0,0.0
18967,71.0,15.0,15.0,4.0,0.0
18968,69.0,0.0,15.0,4.0,0.0
18969,68.0,15.0,15.0,4.0,0.0
18970,77.0,0.0,60.0,1.0,0.0
18971,71.0,0.0,60.0,2.0,0.0
18972,85.0,30.0,60.0,0.0,0.0
18973,69.0,30.0,15.0,4.0,0.0
18974,71.0,0.0,30.0,4.0,0.0
18975,61.0,30.0,30.0,4.0,0.0
18976,65.0,30.0,30.0,4.0,0.0
18977,49.0,0.0,60.0,4.0,0.0
18978,56.0,0.0,60.0,4.0,0.0
18979,59.0,0.0,60.0,4.0,0.0
18980,68.0,30.0,30.0,4.0,0.0
18981,71.0,30.0,30.0,4.0,0.0
18982,56.0,30.0,60.0,4.0,0.0
18983,59.0,0.0,60.0,4.0,0.0
18984,77.0,30.0,30.0,4.0,0.0
18985,71.0,0.0,30.0,4.0,0.0
18986,77.0,15.0,40.0,1.0,0.0
18987,71.0,0.0,40.0,2.0,0.0
18988,80.0,15.0,30.0,4.0,0.0
18989,85.0,0.0,40.0,0.0,0.0
18990,53.0,0.0,60.0,4.0,0.0
18991,49.0,0.0,15.0,4.0,0.0
18992,56.0,30.0,60.0,4.0,0.0
18993,71.0,0.0,30.0,4.0,0.0
18994,69.0,15.0,60.0,2.0,0.0
18995,85.0,0.0,60.0,0.0,0.0
18996,49.0,0.0,15.0,4.0,0.0
18997,54.0,30.0,120.0,4.0,0.0
18998,57.0,0.0,120.0,4.0,0.0
18999,69.0,15.0,30.0,4.0,0.0
19000,78.0,0.0,60.0,1.0,0.0
19001,78.0,15.0,15.0,4.0,0.0
19002,77.0,0.0,15.0,4.0,0.0
19003,66.0,0.0,60.0,2.0,0.0
19004,75.0,0.0,60.0,1.0,0.0
19005,84.0,0.0,60.0,0.0,0.0
19006,75.0,15.0,15.0,4.0,0.0
19007,77.0,30.0,15.0,4.0,0.0
19008,78.0,0.0,30.0,4.0,0.0
19009,72.0,30.0,30.0,4.0,0.0
19010,75.0,30.0,30.0,4.0,0.0
19011,54.0,0.0,60.0,4.0,0.0
19012,60.0,0.0,60.0,4.0,0.0
19013,78.0,30.0,30.0,4.0,0.0
19014,81.0,0.0,30.0,4.0,0.0
19015,49.0,0.0,15.0,4.0,0.0
19016,51.0,30.0,15.0,4.0,0.0
19017,84.0,30.0,30.0,4.0,0.0
19018,54.0,0.0,60.0,4.0,0.0
19019,78.0,0.0,30.0,4.0,0.0
19020,75.0,15.0,40.0,1.0,0.0
19021,66.0,0.0,40.0,2.0,0.0
19022,84.0,0.0,40.0,0.0,0.0
19023,49.0,0.0,15.0,4.0,0.0
19024,51.0,0.0,60.0,4.0,0.0
19025,54.0,0.0,60.0,4.0,0.0
19026,60.0,30.0,15.0,4.0,0.0
19027,87.0,15.0,30.0,4.0,0.0
19028,78.0,0.0,30.0,4.0,0.0
19029,61.0,0.0,60.0,4.0,0.0
19030,77.0,15.0,15.0,4.0,0.0
19031,49.0,0.0,15.0,4.0,0.0
19032,56.0,0.0,60.0,4.0,0.0
19033,85.0,0.0,120.0,0.0,0.0
19034,68.0,0.0,120.0,2.0,0.0
19035,77.0,0.0,120.0,1.0,0.0
19036,73.0,15.0,15.0,4.0,0.0
19037,68.0,15.0,15.0,4.0,0.0
19038,65.0,0.0,15.0,4.0,0.0
19039,49.0,15.0,40.0,3.0,0.0
19040,61.0,15.0,15.0,4.0,0.0
19041,59.0,15.0,15.0,4.0,0.0
19042,56.0,0.0,15.0,4.0,0.0
19043,53.0,30.0,15.0,4.0,0.0
19044,49.0,20.0,40.0,3.0,0.0
19045,49.0,10.0,30.0,4.0,0.0
19046,86.0,5.0,20.0,4.0,0.0
19047,83.0,15.0,20.0,4.0,0.0
19048,49.0,15.0,40.0,3.0,0.0
19049,80.0,20.0,20.0,4.0,0.0
19050,83.0,5.0,20.0,4.0,0.0
19051,80.0,20.0,20.0,4.0,0.0
19052,77.0,20.0,20.0,4.0,0.0
19053,49.0,15.0,40.0,3.0,0.0
19054,80.0,5.0,20.0,4.0,0.0
19055,77.0,20.0,20.0,4.0,0.0
19056,49.0,15.0,40.0,3.0,0.0
19057,73.0,20.0,20.0,4.0,0.0
19058,77.0,5.0,20.0,4.0,0.0
19059,73.0,15.0,20.0,4.0,0.0
19060,69.0,0.0,360.0,1.0,0.0
19061,61.0,15.0,60.0,4.0,0.0
19062,66.0,0.0,360.0,2.0,0.0
19063,54.0,0.0,60.0,4.0,0.0
19064,49.0,0.0,60.0,4.0,0.0
19065,69.0,15.0,15.0,4.0,0.0
19066,73.0,15.0,360.0,0.0,0.0
19067,71.0,15.0,15.0,4.0,0.0
19068,73.0,15.0,15.0,4.0,0.0
19069,69.0,0.0,15.0,4.0,0.0
19070,66.0,15.0,15.0,4.0,0.0
19071,49.0,15.0,40.0,3.0,0.0
19072,61.0,15.0,15.0,4.0,0.0
19073,57.0,0.0,15.0,4.0,0.0
19074,54.0,30.0,15.0,4.0,0.0
19075,49.0,15.0,40.0,3.0,0.0
19076,49.0,10.0,30.0,4.0,0.0
19077,85.0,5.0,20.0,4.0,0.0
19078,81.0,20.0,20.0,4.0,0.0
19079,49.0,15.0,40.0,3.0,0.0
19080,78.0,20.0,20.0,4.0,0.0
19081,81.0,5.0,20.0,4.0,0.0
19082,78.0,20.0,20.0,4.0,0.0
19083,49.0,15.0,40.0,3.0,0.0
19084,74.0,20.0,20.0,4.0,0.0
19085,78.0,5.0,20.0,4.0,0.0
19086,74.0,20.0,20.0,4.0,0.0
19087,71.0,20.0,20.0,4.0,0.0
19088,49.0,15.0,40.0,3.0,0.0
19089,74.0,5.0,20.0,4.0,0.0
19090,71.0,0.0,20.0,4.0,0.0
19091,56.0,0.0,60.0,4.0,0.0
19092,65.0,0.0,360.0,1.0,0.0
19093,53.0,0.0,60.0,4.0,0.0
19094,68.0,0.0,360.0,2.0,0.0
19095,61.0,15.0,60.0,4.0,0.0
19096,71.0,0.0,360.0,0.0,0.0
19097,68.0,15.0,15.0,4.0,0.0
19098,49.0,0.0,60.0,4.0,0.0
19099,69.0,15.0,15.0,4.0,0.0
19100,71.0,15.0,15.0,4.0,0.0
19101,68.0,0.0,15.0,4.0,0.0
19102,65.0,15.0,15.0,4.0,0.0
19103,49.0,15.0,40.0,3.0,0.0
19104,61.0,15.0,15.0,4.0,0.0
19105,56.0,0.0,15.0,4.0,0.0
19106,53.0,30.0,15.0,4.0,0.0
19107,49.0,20.0,40.0,3.0,0.0
19108,49.0,10.0,30.0,4.0,0.0
19109,83.0,5.0,20.0,4.0,0.0
19110,80.0,15.0,20.0,4.0,0.0
19111,49.0,15.0,40.0,3.0,0.0
19112,77.0,20.0,20.0,4.0,0.0
19113,80.0,5.0,20.0,4.0,0.0
19114,77.0,20.0,20.0,4.0,0.0
19115,73.0,20.0,20.0,4.0,0.0
19116,49.0,15.0,40.0,3.0,0.0
19117,77.0,5.0,20.0,4.0,0.0
19118,73.0,20.0,20.0,4.0,0.0
19119,69.0,20.0,20.0,4.0,0.0
19120,49.0,15.0,40.0,3.0,0.0
19121,73.0,5.0,20.0,4.0,0.0
19122,69.0,15.0,20.0,4.0,0.0
19123,66.0,0.0,360.0,1.0,0.0
19124,69.0,0.0,360.0,0.0,0.0
19125,60.0,0.0,360.0,2.0,0.0
19126,60.0,0.0,60.0,4.0,0.0
19127,51.0,15.0,60.0,4.0,0.0
19128,49.0,0.0,60.0,4.0,0.0
19129,66.0,15.0,15.0,4.0,0.0
19130,68.0,15.0,15.0,4.0,0.0
19131,69.0,15.0,15.0,4.0,0.0
19132,66.0,0.0,15.0,4.0,0.0
19133,63.0,15.0,15.0,4.0,0.0
19134,49.0,0.0,40.0,3.0,0.0
19135,60.0,15.0,15.0,4.0,0.0
19136,57.0,15.0,15.0,4.0,0.0
19137,54.0,30.0,15.0,4.0,0.0
19138,49.0,10.0,30.0,4.0,0.0
19139,49.0,20.0,40.0,3.0,0.0
19140,81.0,5.0,20.0,4.0,0.0
19141,78.0,15.0,20.0,4.0,0.0
19142,49.0,15.0,40.0,3.0,0.0
19143,75.0,20.0,20.0,4.0,0.0
19144,78.0,5.0,20.0,4.0,0.0
19145,75.0,20.0,20.0,4.0,0.0
19146,49.0,15.0,40.0,3.0,0.0
19147,72.0,20.0,20.0,4.0,0.0
19148,75.0,5.0,20.0,4.0,0.0
19149,72.0,20.0,20.0,4.0,0.0
19150,68.0,20.0,20.0,4.0,0.0
19151,49.0,15.0,40.0,3.0,0.0
19152,72.0,5.0,20.0,4.0,0.0
19153,68.0,15.0,20.0,4.0,0.0
19154,49.0,0.0,120.0,3.0,0.0
19155,68.0,0.0,120.0,0.0,0.0
19156,65.0,0.0,120.0,1.0,0.0
19157,61.0,0.0,120.0,2.0,0.0
19158,65.0,15.0,15.0,4.0,0.0
19159,49.0,0.0,60.0,4.0,0.0
19160,56.0,0.0,60.0,4.0,0.0
19161,61.0,0.0,60.0,4.0,0.0
19162,68.0,15.0,15.0,4.0,0.0
19163,73.0,15.0,15.0,4.0,0.0
19164,68.0,15.0,15.0,4.0,0.0
19165,65.0,15.0,15.0,4.0,0.0
19166,61.0,15.0,15.0,4.0,0.0
19167,56.0,15.0,15.0,4.0,0.0
19168,53.0,30.0,15.0,4.0,0.0
19169,49.0,30.0,30.0,4.0,0.0
19170,75.0,30.0,30.0,4.0,0.0
19171,47.0,0.0,30.0,4.0,0.0
19172,77.0,0.0,30.0,4.0,0.0
19173,45.0,30.0,30.0,4.0,0.0
19174,44.0,0.0,30.0,4.0,0.0
19175,78.0,30.0,30.0,4.0,0.0
19176,42.0,0.0,30.0,4.0,0.0
19177,80.0,30.0,30.0,4.0,0.0
19178,81.0,0.0,30.0,4.0,0.0
19179,40.0,30.0,30.0,4.0,0.0
19180,38.0,0.0,30.0,4.0,0.0
19181,83.0,30.0,30.0,4.0,0.0
19182,85.0,30.0,30.0,4.0,0.0
19183,37.0,0.0,30.0,4.0,0.0
19184,86.0,30.0,30.0,4.0,0.0
19185,35.0,0.0,30.0,4.0,0.0
19186,83.0,30.0,30.0,4.0,0.0
19187,37.0,0.0,30.0,4.0,0.0
19188,41.0,0.0,30.0,4.0,0.0
19189,80.0,30.0,30.0,4.0,0.0
19190,77.0,0.0,30.0,4.0,0.0
19191,44.0,15.0,30.0,4.0,0.0
19192,47.0,45.0,180.0,4.0,0.0
19193,74.0,15.0,15.0,4.0,0.0
19194,73.0,15.0,15.0,4.0,0.0
19195,74.0,15.0,15.0,4.0,0.0
19196,73.0,15.0,15.0,4.0,0.0
19197,74.0,15.0,15.0,4.0,0.0
19198,73.0,15.0,15.0,4.0,0.0
19199,74.0,15.0,15.0,4.0,0.0
19200,73.0,15.0,15.0,4.0,0.0
19201,74.0,15.0,15.0,4.0,0.0
19202,73.0,15.0,15.0,4.0,0.0
19203,74.0,15.0,15.0,4.0,0.0
19204,73.0,375.0,60.0,4.0,0.0
19205,73.0,0.0,60.0,4.0,0.0
19206,68.0,0.0,60.0,4.0,0.0
19207,77.0,30.0,60.0,4.0,0.0
19208,59.0,0.0,60.0,4.0,0.0
19209,57.0,30.0,30.0,4.0,0.0
19210,78.0,0.0,90.0,4.0,0.0
19211,73.0,30.0,90.0,4.0,0.0
19212,66.0,3.0,180.0,4.0,0.0
19213,56.0,30.0,30.0,4.0,0.0
19214,57.0,0.0,30.0,4.0,0.0
19215,59.0,7.0,30.0,4.0,0.0
19216,74.0,0.0,30.0,4.0,0.0
19217,80.0,0.0,30.0,4.0,0.0
19218,73.0,0.0,120.0,4.0,0.0
19219,61.0,0.0,240.0,4.0,0.0
19220,81.0,7.0,15.0,4.0,0.0
19221,80.0,7.0,15.0,4.0,0.0
19222,81.0,7.0,15.0,4.0,0.0
19223,80.0,7.0,15.0,4.0,0.0
19224,81.0,7.0,15.0,4.0,0.0
19225,80.0,7.0,15.0,4.0,0.0
19226,81.0,7.0,15.0,4.0,0.0
19227,80.0,4.0,15.0,4.0,0.0
19228,81.0,7.0,15.0,4.0,0.0
19229,65.0,1.0,30.0,4.0,0.0
19230,80.0,7.0,15.0,4.0,0.0
19231,81.0,7.0,15.0,4.0,0.0
19232,80.0,6.0,15.0,4.0,0.0
19233,81.0,7.0,15.0,4.0,0.0
19234,63.0,6.0,30.0,4.0,0.0
19235,80.0,7.0,15.0,4.0,0.0
19236,81.0,7.0,15.0,4.0,0.0
19237,80.0,7.0,15.0,4.0,0.0
19238,81.0,1.0,15.0,4.0,0.0
19239,80.0,7.0,15.0,4.0,0.0
19240,65.0,0.0,120.0,4.0,0.0
19241,71.0,0.0,120.0,4.0,0.0
19242,81.0,7.0,15.0,4.0,0.0
19243,80.0,7.0,15.0,4.0,0.0
19244,81.0,7.0,15.0,4.0,0.0
19245,80.0,7.0,15.0,4.0,0.0
19246,81.0,8.0,15.0,4.0,0.0
19247,80.0,71.0,15.0,4.0,0.0
19248,78.0,45.0,60.0,4.0,0.0
19249,78.0,15.0,40.0,1.0,0.0
19250,54.0,0.0,120.0,4.0,0.0
19251,61.0,0.0,60.0,4.0,0.0
19252,66.0,30.0,60.0,4.0,0.0
19253,69.0,0.0,60.0,4.0,0.0
19254,78.0,0.0,60.0,4.0,0.0
19255,78.0,0.0,40.0,0.0,0.0
19256,76.0,30.0,30.0,1.0,0.0
19257,76.0,0.0,30.0,0.0,0.0
19258,76.0,0.0,30.0,4.0,0.0
19259,74.0,0.0,30.0,0.0,0.0
19260,74.0,0.0,30.0,1.0,0.0
19261,74.0,45.0,30.0,4.0,0.0
19262,73.0,15.0,40.0,1.0,0.0
19263,73.0,0.0,40.0,0.0,0.0
19264,73.0,45.0,60.0,4.0,0.0
19265,71.0,45.0,60.0,4.0,0.0
19266,71.0,15.0,40.0,1.0,0.0
19267,71.0,0.0,40.0,0.0,0.0
19268,69.0,0.0,40.0,0.0,0.0
19269,69.0,15.0,40.0,1.0,0.0
19270,69.0,45.0,60.0,4.0,0.0
19271,68.0,15.0,40.0,0.0,0.0
19272,68.0,0.0,40.0,1.0,0.0
19273,68.0,45.0,60.0,4.0,0.0
19274,69.0,28.0,60.0,4.0,0.0
19275,69.0,0.0,40.0,0.0,0.0
19276,69.0,15.0,40.0,1.0,0.0
19277,54.0,2.0,30.0,3.0,0.0
19278,66.0,13.0,40.0,0.0,0.0
19279,69.0,15.0,30.0,2.0,0.0
19280,66.0,0.0,60.0,4.0,0.0
19281,54.0,0.0,30.0,4.0,0.0
19282,66.0,0.0,40.0,1.0,0.0
19283,56.0,2.0,30.0,3.0,0.0
19284,56.0,0.0,30.0,4.0,0.0
19285,71.0,43.0,30.0,2.0,0.0
19286,57.0,2.0,40.0,3.0,0.0
19287,57.0,28.0,60.0,4.0,0.0
19288,73.0,15.0,40.0,2.0,0.0
19289,78.0,0.0,40.0,1.0,0.0
19290,78.0,0.0,40.0,0.0,0.0
19291,56.0,2.0,30.0,3.0,0.0
19292,71.0,0.0,30.0,2.0,0.0
19293,78.0,13.0,40.0,0.0,0.0
19294,78.0,0.0,40.0,1.0,0.0
19295,78.0,0.0,15.0,4.0,0.0
19296,56.0,15.0,30.0,4.0,0.0
19297,57.0,2.0,30.0,3.0,0.0
19298,57.0,0.0,30.0,4.0,0.0
19299,73.0,43.0,30.0,2.0,0.0
19300,59.0,2.0,40.0,3.0,0.0
19301,59.0,0.0,60.0,4.0,0.0
19302,78.0,0.0,40.0,1.0,0.0
19303,78.0,0.0,15.0,4.0,0.0
19304,78.0,0.0,40.0,0.0,0.0
19305,74.0,15.0,40.0,2.0,0.0
19306,57.0,2.0,30.0,3.0,0.0
19307,78.0,13.0,40.0,0.0,0.0
19308,73.0,15.0,30.0,2.0,0.0
19309,78.0,0.0,40.0,1.0,0.0
19310,57.0,0.0,30.0,4.0,0.0
19311,78.0,0.0,60.0,4.0,0.0
19312,59.0,2.0,30.0,3.0,0.0
19313,59.0,0.0,30.0,4.0,0.0
19314,74.0,32.0,30.0,2.0,0.0
19315,61.0,2.0,40.0,3.0,0.0
19316,78.0,13.0,30.0,4.0,0.0
19317,61.0,28.0,60.0,4.0,0.0
19318,68.0,15.0,40.0,2.0,0.0
19319,78.0,0.0,30.0,0.0,0.0
19320,78.0,0.0,30.0,1.0,0.0
19321,76.0,0.0,30.0,1.0,0.0
19322,76.0,0.0,30.0,0.0,0.0
19323,76.0,0.0,30.0,4.0,0.0
19324,57.0,2.0,30.0,3.0,0.0
19325,78.0,0.0,30.0,4.0,0.0
19326,78.0,28.0,30.0,1.0,0.0
19327,73.0,0.0,30.0,2.0,0.0
19328,78.0,0.0,30.0,0.0,0.0
19329,57.0,0.0,30.0,4.0,0.0
19330,59.0,2.0,30.0,3.0,0.0
19331,80.0,0.0,30.0,4.0,0.0
19332,80.0,0.0,30.0,1.0,0.0
19333,80.0,43.0,30.0,0.0,0.0
19334,59.0,0.0,30.0,4.0,0.0
19335,74.0,0.0,30.0,2.0,0.0
19336,61.0,2.0,40.0,3.0,0.0
19337,76.0,0.0,40.0,2.0,0.0
19338,61.0,28.0,60.0,4.0,0.0
19339,81.0,0.0,60.0,4.0,0.0
19340,81.0,0.0,40.0,1.0,0.0
19341,81.0,15.0,40.0,0.0,0.0
19342,59.0,2.0,30.0,3.0,0.0
19343,81.0,0.0,40.0,0.0,0.0
19344,59.0,0.0,30.0,4.0,0.0
19345,74.0,15.0,30.0,2.0,0.0
19346,81.0,13.0,40.0,1.0,0.0
19347,61.0,2.0,30.0,3.0,0.0
19348,61.0,0.0,30.0,4.0,0.0
19349,76.0,0.0,30.0,2.0,0.0
19350,62.0,2.0,40.0,3.0,0.0
19351,81.0,15.0,40.0,1.0,0.0
19352,81.0,0.0,40.0,0.0,0.0
19353,78.0,0.0,40.0,2.0,0.0
19354,81.0,43.0,15.0,4.0,0.0
19355,62.0,0.0,60.0,4.0,0.0
19356,61.0,2.0,30.0,3.0,0.0
19357,61.0,0.0,30.0,4.0,0.0
19358,81.0,13.0,40.0,1.0,0.0
19359,76.0,15.0,30.0,2.0,0.0
19360,81.0,0.0,40.0,0.0,0.0
19361,62.0,2.0,30.0,3.0,0.0
19362,62.0,0.0,30.0,4.0,0.0
19363,78.0,0.0,30.0,2.0,0.0
19364,64.0,2.0,40.0,3.0,0.0
19365,64.0,0.0,60.0,4.0,0.0
19366,81.0,30.0,15.0,4.0,0.0
19367,71.0,15.0,40.0,2.0,0.0
19368,81.0,0.0,30.0,0.0,0.0
19369,81.0,13.0,30.0,1.0,0.0
19370,80.0,28.0,30.0,4.0,0.0
19371,80.0,0.0,30.0,0.0,0.0
19372,80.0,0.0,30.0,1.0,0.0
19373,61.0,2.0,30.0,3.0,0.0
19374,64.0,0.0,30.0,2.0,0.0
19375,81.0,0.0,30.0,0.0,0.0
19376,81.0,0.0,30.0,1.0,0.0
19377,81.0,28.0,30.0,4.0,0.0
19378,61.0,0.0,30.0,4.0,0.0
19379,63.0,2.0,30.0,3.0,0.0
19380,83.0,0.0,30.0,1.0,0.0
19381,66.0,0.0,30.0,2.0,0.0
19382,83.0,43.0,30.0,0.0,0.0
19383,63.0,0.0,30.0,4.0,0.0
19384,83.0,0.0,30.0,4.0,0.0
19385,64.0,2.0,40.0,3.0,0.0
19386,68.0,15.0,40.0,2.0,0.0
19387,64.0,28.0,60.0,4.0,0.0
19388,85.0,0.0,60.0,4.0,0.0
19389,85.0,0.0,40.0,0.0,0.0
19390,85.0,0.0,40.0,1.0,0.0
19391,63.0,2.0,30.0,3.0,0.0
19392,85.0,13.0,40.0,1.0,0.0
19393,85.0,0.0,40.0,0.0,0.0
19394,63.0,15.0,30.0,4.0,0.0
19395,85.0,0.0,60.0,4.0,0.0
19396,66.0,0.0,30.0,2.0,0.0
19397,64.0,2.0,30.0,3.0,0.0
19398,68.0,43.0,30.0,2.0,0.0
19399,64.0,0.0,30.0,4.0,0.0
19400,66.0,2.0,40.0,3.0,0.0
19401,66.0,0.0,60.0,4.0,0.0
19402,85.0,15.0,40.0,1.0,0.0
19403,69.0,0.0,40.0,2.0,0.0
19404,85.0,0.0,40.0,0.0,0.0
19405,64.0,2.0,30.0,3.0,0.0
19406,85.0,28.0,15.0,4.0,0.0
19407,64.0,0.0,30.0,4.0,0.0
19408,85.0,13.0,40.0,0.0,0.0
19409,68.0,15.0,30.0,2.0,0.0
19410,85.0,0.0,40.0,1.0,0.0
19411,66.0,2.0,30.0,3.0,0.0
19412,66.0,0.0,30.0,4.0,0.0
19413,69.0,43.0,30.0,2.0,0.0
19414,68.0,2.0,40.0,3.0,0.0
19415,68.0,30.0,60.0,4.0,0.0
19416,85.0,0.0,60.0,4.0,0.0
19417,85.0,15.0,40.0,1.0,0.0
19418,63.0,0.0,120.0,2.0,0.0
19419,85.0,0.0,40.0,0.0,0.0
19420,56.0,17.0,40.0,3.0,0.0
19421,56.0,0.0,60.0,4.0,0.0
19422,83.0,0.0,30.0,1.0,0.0
19423,83.0,13.0,30.0,0.0,0.0
19424,83.0,0.0,30.0,4.0,0.0
19425,81.0,43.0,30.0,1.0,0.0
19426,81.0,0.0,30.0,4.0,0.0
19427,81.0,0.0,30.0,0.0,0.0
19428,68.0,2.0,40.0,3.0,0.0
19429,83.0,15.0,40.0,0.0,0.0
19430,83.0,0.0,40.0,1.0,0.0
19431,68.0,0.0,60.0,4.0,0.0
19432,83.0,30.0,60.0,4.0,0.0
19433,63.0,0.0,30.0,2.0,0.0
19434,66.0,17.0,40.0,3.0,0.0
19435,80.0,13.0,30.0,1.0,0.0
19436,66.0,30.0,60.0,4.0,0.0
19437,65.0,0.0,30.0,2.0,0.0
19438,80.0,0.0,30.0,0.0,0.0
19439,80.0,0.0,30.0,4.0,0.0
19440,66.0,0.0,30.0,2.0,0.0
19441,81.0,0.0,30.0,0.0,0.0
19442,81.0,0.0,30.0,1.0,0.0
19443,81.0,0.0,30.0,4.0,0.0
19444,65.0,2.0,40.0,3.0,0.0
19445,68.0,13.0,30.0,2.0,0.0
19446,83.0,0.0,40.0,1.0,0.0
19447,83.0,15.0,40.0,0.0,0.0
19448,83.0,0.0,60.0,4.0,0.0
19449,65.0,0.0,60.0,4.0,0.0
19450,66.0,30.0,30.0,2.0,0.0
19451,61.0,2.0,40.0,3.0,0.0
19452,83.0,0.0,40.0,0.0,0.0
19453,83.0,15.0,40.0,1.0,0.0
19454,61.0,0.0,60.0,4.0,0.0
19455,65.0,13.0,30.0,2.0,0.0
19456,63.0,0.0,30.0,2.0,0.0
19457,66.0,2.0,40.0,3.0,0.0
19458,83.0,43.0,15.0,4.0,0.0
19459,61.0,0.0,120.0,2.0,0.0
19460,66.0,30.0,60.0,4.0,0.0
19461,83.0,15.0,40.0,1.0,0.0
19462,83.0,0.0,40.0,0.0,0.0
19463,54.0,17.0,40.0,3.0,0.0
19464,81.0,0.0,30.0,0.0,0.0
19465,54.0,43.0,60.0,4.0,0.0
19466,81.0,0.0,30.0,4.0,0.0
19467,81.0,13.0,30.0,1.0,0.0
19468,80.0,0.0,30.0,4.0,0.0
19469,80.0,0.0,30.0,0.0,0.0
19470,80.0,0.0,30.0,1.0,0.0
19471,66.0,2.0,40.0,3.0,0.0
19472,81.0,0.0,40.0,1.0,0.0
19473,81.0,15.0,40.0,0.0,0.0
19474,81.0,0.0,60.0,4.0,0.0
19475,66.0,30.0,60.0,4.0,0.0
19476,64.0,17.0,40.0,3.0,0.0
19477,78.0,0.0,30.0,1.0,0.0
19478,69.0,0.0,30.0,2.0,0.0
19479,78.0,13.0,30.0,0.0,0.0
19480,78.0,0.0,30.0,4.0,0.0
19481,64.0,0.0,60.0,4.0,0.0
19482,80.0,0.0,30.0,1.0,0.0
19483,80.0,43.0,30.0,4.0,0.0
19484,80.0,0.0,30.0,0.0,0.0
19485,71.0,0.0,30.0,2.0,0.0
19486,62.0,2.0,40.0,3.0,0.0
19487,81.0,30.0,60.0,4.0,0.0
19488,81.0,15.0,40.0,1.0,0.0
19489,73.0,0.0,40.0,2.0,0.0
19490,62.0,0.0,60.0,4.0,0.0
19491,81.0,0.0,40.0,0.0,0.0
19492,61.0,2.0,40.0,3.0,0.0
19493,83.0,0.0,30.0,4.0,0.0
19494,61.0,0.0,60.0,4.0,0.0
19495,83.0,13.0,30.0,0.0,0.0
19496,66.0,15.0,40.0,2.0,0.0
19497,83.0,0.0,30.0,1.0,0.0
19498,85.0,43.0,30.0,4.0,0.0
19499,85.0,0.0,30.0,0.0,0.0
19500,85.0,0.0,30.0,1.0,0.0
19501,59.0,2.0,40.0,3.0,0.0
19502,86.0,0.0,40.0,0.0,0.0
19503,86.0,0.0,60.0,4.0,0.0
19504,59.0,28.0,60.0,4.0,0.0
19505,86.0,0.0,40.0,1.0,0.0
19506,78.0,15.0,40.0,2.0,0.0
19507,61.0,2.0,30.0,3.0,0.0
19508,61.0,0.0,30.0,4.0,0.0
19509,74.0,28.0,30.0,2.0,0.0
19510,83.0,0.0,30.0,4.0,0.0
19511,83.0,0.0,30.0,1.0,0.0
19512,83.0,0.0,30.0,0.0,0.0
19513,62.0,2.0,30.0,3.0,0.0
19514,81.0,0.0,30.0,1.0,0.0
19515,81.0,0.0,30.0,0.0,0.0
19516,62.0,0.0,30.0,4.0,0.0
19517,81.0,0.0,30.0,4.0,0.0
19518,73.0,43.0,30.0,2.0,0.0
19519,64.0,2.0,40.0,3.0,0.0
19520,64.0,0.0,60.0,4.0,0.0
19521,80.0,30.0,60.0,4.0,0.0
19522,80.0,0.0,40.0,1.0,0.0
19523,80.0,0.0,40.0,0.0,0.0
19524,71.0,15.0,40.0,2.0,0.0
19525,62.0,17.0,40.0,3.0,0.0
19526,76.0,0.0,30.0,4.0,0.0
19527,62.0,43.0,60.0,4.0,0.0
19528,76.0,13.0,30.0,0.0,0.0
19529,76.0,0.0,30.0,1.0,0.0
19530,68.0,0.0,30.0,2.0,0.0
19531,69.0,0.0,30.0,2.0,0.0
19532,78.0,0.0,30.0,1.0,0.0
19533,78.0,0.0,30.0,0.0,0.0
19534,78.0,0.0,30.0,4.0,0.0
19535,61.0,2.0,40.0,3.0,0.0
19536,80.0,0.0,40.0,1.0,0.0
19537,71.0,0.0,40.0,2.0,0.0
19538,61.0,0.0,60.0,4.0,0.0
19539,80.0,15.0,40.0,0.0,0.0
19540,80.0,30.0,60.0,4.0,0.0
19541,59.0,2.0,40.0,3.0,0.0
19542,64.0,15.0,40.0,2.0,0.0
19543,59.0,0.0,60.0,4.0,0.0
19544,81.0,13.0,30.0,0.0,0.0
19545,81.0,0.0,30.0,1.0,0.0
19546,81.0,0.0,30.0,4.0,0.0
19547,83.0,0.0,30.0,4.0,0.0
19548,83.0,0.0,30.0,0.0,0.0
19549,83.0,43.0,30.0,1.0,0.0
19550,57.0,2.0,40.0,3.0,0.0
19551,76.0,15.0,40.0,2.0,0.0
19552,57.0,0.0,60.0,4.0,0.0
19553,85.0,0.0,40.0,0.0,0.0
19554,85.0,0.0,40.0,1.0,0.0
19555,85.0,28.0,60.0,4.0,0.0
19556,59.0,2.0,30.0,3.0,0.0
19557,81.0,28.0,30.0,4.0,0.0
19558,81.0,0.0,30.0,0.0,0.0
19559,59.0,0.0,30.0,4.0,0.0
19560,81.0,0.0,30.0,1.0,0.0
19561,73.0,0.0,30.0,2.0,0.0
19562,61.0,2.0,30.0,3.0,0.0
19563,80.0,0.0,30.0,1.0,0.0
19564,80.0,43.0,30.0,0.0,0.0
19565,71.0,0.0,30.0,2.0,0.0
19566,80.0,0.0,30.0,4.0,0.0
19567,61.0,0.0,30.0,4.0,0.0
19568,62.0,2.0,40.0,3.0,0.0
19569,69.0,0.0,40.0,2.0,0.0
19570,78.0,0.0,40.0,1.0,0.0
19571,78.0,30.0,60.0,4.0,0.0
19572,62.0,0.0,60.0,4.0,0.0
19573,78.0,15.0,40.0,0.0,0.0
19574,61.0,2.0,40.0,3.0,0.0
19575,90.0,0.0,30.0,1.0,0.0
19576,90.0,0.0,30.0,4.0,0.0
19577,61.0,0.0,60.0,4.0,0.0
19578,69.0,15.0,40.0,2.0,0.0
19579,90.0,13.0,30.0,0.0,0.0
19580,89.0,0.0,30.0,1.0,0.0
19581,89.0,0.0,30.0,4.0,0.0
19582,89.0,43.0,30.0,0.0,0.0
19583,59.0,2.0,40.0,3.0,0.0
19584,74.0,0.0,40.0,2.0,0.0
19585,90.0,0.0,40.0,1.0,0.0
19586,59.0,0.0,60.0,4.0,0.0
19587,90.0,43.0,60.0,4.0,0.0
19588,90.0,15.0,40.0,0.0,0.0
19589,57.0,2.0,40.0,3.0,0.0
19590,86.0,0.0,40.0,0.0,0.0
19591,78.0,15.0,40.0,2.0,0.0
19592,86.0,0.0,40.0,1.0,0.0
19593,86.0,0.0,60.0,4.0,0.0
19594,57.0,58.0,60.0,4.0,0.0
19595,56.0,2.0,60.0,3.0,0.0
19596,74.0,0.0,120.0,2.0,0.0
19597,83.0,0.0,60.0,0.0,0.0
19598,56.0,0.0,60.0,4.0,0.0
19599,83.0,0.0,60.0,4.0,0.0
19600,83.0,58.0,60.0,1.0,0.0
19601,54.0,2.0,60.0,3.0,0.0
19602,82.0,0.0,60.0,0.0,0.0
19603,82.0,0.0,60.0,1.0,0.0
19604,54.0,43.0,60.0,4.0,0.0
19605,82.0,0.0,60.0,4.0,0.0
19606,53.0,2.0,40.0,3.0,0.0
19607,83.0,30.0,60.0,4.0,0.0
19608,83.0,0.0,40.0,1.0,0.0
19609,83.0,15.0,40.0,0.0,0.0
19610,53.0,0.0,60.0,4.0,0.0
19611,54.0,17.0,40.0,3.0,0.0
19612,86.0,0.0,30.0,1.0,0.0
19613,71.0,0.0,30.0,2.0,0.0
19614,86.0,13.0,30.0,4.0,0.0
19615,54.0,0.0,60.0,4.0,0.0
19616,86.0,0.0,30.0,0.0,0.0
19617,85.0,43.0,30.0,0.0,0.0
19618,69.0,0.0,30.0,2.0,0.0
19619,85.0,0.0,30.0,1.0,0.0
19620,85.0,0.0,30.0,4.0,0.0
19621,56.0,2.0,40.0,3.0,0.0
19622,86.0,0.0,40.0,1.0,0.0
19623,86.0,15.0,40.0,0.0,0.0
19624,86.0,0.0,60.0,4.0,0.0
19625,56.0,30.0,60.0,4.0,0.0
19626,71.0,0.0,40.0,2.0,0.0
19627,57.0,2.0,40.0,3.0,0.0
19628,83.0,15.0,40.0,1.0,0.0
19629,83.0,0.0,60.0,4.0,0.0
19630,74.0,13.0,30.0,2.0,0.0
19631,83.0,0.0,40.0,0.0,0.0
19632,57.0,0.0,60.0,4.0,0.0
19633,73.0,45.0,30.0,2.0,0.0
19634,59.0,2.0,60.0,3.0,0.0
19635,79.0,0.0,60.0,0.0,0.0
19636,59.0,0.0,60.0,4.0,0.0
19637,79.0,0.0,60.0,4.0,0.0
19638,74.0,13.0,40.0,2.0,0.0
19639,79.0,45.0,60.0,1.0,0.0
19640,57.0,2.0,60.0,3.0,0.0
19641,73.0,13.0,40.0,2.0,0.0
19642,78.0,0.0,60.0,0.0,0.0
19643,57.0,0.0,60.0,4.0,0.0
19644,78.0,43.0,60.0,1.0,0.0
19645,78.0,0.0,60.0,4.0,0.0
19646,59.0,2.0,40.0,3.0,0.0
19647,79.0,0.0,60.0,4.0,0.0
19648,59.0,30.0,60.0,4.0,0.0
19649,79.0,0.0,40.0,0.0,0.0
19650,74.0,15.0,40.0,2.0,0.0
19651,79.0,0.0,40.0,1.0,0.0
19652,61.0,2.0,40.0,3.0,0.0
19653,83.0,0.0,30.0,1.0,0.0
19654,61.0,0.0,60.0,4.0,0.0
19655,83.0,0.0,30.0,4.0,0.0
19656,76.0,15.0,40.0,2.0,0.0
19657,83.0,13.0,30.0,0.0,0.0
19658,82.0,0.0,30.0,1.0,0.0
19659,82.0,0.0,30.0,4.0,0.0
19660,82.0,43.0,30.0,0.0,0.0
19661,62.0,2.0,40.0,3.0,0.0
19662,78.0,15.0,40.0,2.0,0.0
19663,62.0,43.0,60.0,4.0,0.0
19664,83.0,0.0,60.0,4.0,0.0
19665,83.0,0.0,40.0,0.0,0.0
19666,83.0,0.0,40.0,1.0,0.0
19667,59.0,2.0,40.0,3.0,0.0
19668,79.0,15.0,40.0,0.0,0.0
19669,79.0,0.0,60.0,4.0,0.0
19670,74.0,0.0,40.0,2.0,0.0
19671,59.0,45.0,60.0,4.0,0.0
19672,79.0,0.0,40.0,1.0,0.0
19673,61.0,2.0,120.0,3.0,0.0
19674,77.0,0.0,40.0,0.0,0.0
19675,61.0,0.0,120.0,4.0,0.0
19676,77.0,30.0,60.0,4.0,0.0
19677,68.0,0.0,40.0,2.0,0.0
19678,77.0,15.0,40.0,1.0,0.0
19679,86.0,0.0,30.0,1.0,0.0
19680,86.0,15.0,30.0,4.0,0.0
19681,77.0,13.0,40.0,2.0,0.0
19682,86.0,0.0,30.0,0.0,0.0
19683,85.0,0.0,30.0,1.0,0.0
19684,85.0,45.0,30.0,0.0,0.0
19685,85.0,0.0,30.0,4.0,0.0
19686,86.0,15.0,40.0,0.0,0.0
19687,86.0,0.0,40.0,1.0,0.0
19688,77.0,0.0,40.0,2.0,0.0
19689,86.0,30.0,60.0,4.0,0.0
19690,77.0,15.0,40.0,2.0,0.0
19691,83.0,0.0,30.0,0.0,0.0
19692,83.0,0.0,30.0,4.0,0.0
19693,83.0,15.0,30.0,1.0,0.0
19694,82.0,0.0,30.0,4.0,0.0
19695,82.0,45.0,30.0,1.0,0.0
19696,82.0,0.0,30.0,0.0,0.0
19697,83.0,15.0,40.0,1.0,0.0
19698,83.0,43.0,60.0,4.0,0.0
19699,77.0,0.0,40.0,2.0,0.0
19700,83.0,0.0,40.0,0.0,0.0
19701,59.0,2.0,40.0,3.0,0.0
19702,77.0,15.0,40.0,1.0,0.0
19703,59.0,0.0,60.0,4.0,0.0
19704,77.0,43.0,60.0,4.0,0.0
19705,68.0,0.0,40.0,2.0,0.0
19706,77.0,0.0,40.0,0.0,0.0
19707,57.0,2.0,40.0,3.0,0.0
19708,78.0,0.0,40.0,1.0,0.0
19709,73.0,15.0,40.0,2.0,0.0
19710,57.0,0.0,60.0,4.0,0.0
19711,78.0,0.0,40.0,0.0,0.0
19712,78.0,28.0,60.0,4.0,0.0
19713,56.0,2.0,30.0,3.0,0.0
19714,69.0,0.0,40.0,1.0,0.0
19715,69.0,13.0,40.0,2.0,0.0
19716,69.0,43.0,60.0,4.0,0.0
19717,69.0,0.0,40.0,0.0,0.0
19718,56.0,15.0,30.0,4.0,0.0
19719,54.0,2.0,30.0,3.0,0.0
19720,54.0,0.0,30.0,4.0,0.0
19721,62.0,2.0,40.0,3.0,0.0
19722,71.0,0.0,40.0,1.0,0.0
19723,66.0,15.0,40.0,2.0,0.0
19724,71.0,0.0,40.0,0.0,0.0
19725,62.0,0.0,60.0,4.0,0.0
19726,71.0,28.0,60.0,4.0,0.0
19727,61.0,2.0,30.0,3.0,0.0
19728,71.0,0.0,40.0,2.0,0.0
19729,61.0,15.0,30.0,4.0,0.0
19730,78.0,0.0,40.0,1.0,0.0
19731,78.0,13.0,40.0,0.0,0.0
19732,78.0,0.0,60.0,4.0,0.0
19733,59.0,2.0,30.0,3.0,0.0
19734,59.0,43.0,30.0,4.0,0.0
19735,61.0,2.0,40.0,3.0,0.0
19736,73.0,0.0,40.0,1.0,0.0
19737,61.0,43.0,60.0,4.0,0.0
19738,73.0,0.0,40.0,0.0,0.0
19739,73.0,0.0,60.0,4.0,0.0
19740,68.0,15.0,40.0,2.0,0.0
19741,49.0,2.0,40.0,3.0,0.0
19742,77.0,118.0,60.0,4.0,0.0
19743,77.0,0.0,40.0,1.0,0.0
19744,77.0,0.0,40.0,0.0,0.0
19745,73.0,15.0,40.0,2.0,0.0
19746,54.0,0.0,120.0,3.0,0.0
19747,49.0,0.0,15.0,4.0,0.0
19748,73.0,0.0,120.0,4.0,0.0
19749,42.0,0.0,120.0,4.0,0.0
19750,54.0,0.0,120.0,4.0,0.0
19751,66.0,0.0,120.0,4.0,0.0
19752,69.0,0.0,120.0,4.0,0.0
19753,78.0,0.0,120.0,4.0,0.0
19754,78.0,361.0,120.0,1.0,0.0
19755,69.0,0.0,120.0,2.0,0.0
19756,78.0,0.0,120.0,0.0,0.0
