,note,step,duration,channel,velocity
0,80.0,0.0,30.0,0.0,0.0
1,77.0,0.0,30.0,1.0,0.0
2,72.0,6.0,30.0,2.0,0.0
3,68.0,12.0,15.0,5.0,0.0
4,53.0,3.0,30.0,6.0,0.0
5,72.0,12.0,15.0,5.0,0.0
6,53.0,0.0,20.0,3.0,0.0
7,41.0,1.0,20.0,4.0,0.0
8,77.0,2.0,15.0,5.0,0.0
9,79.0,0.0,15.0,0.0,0.0
10,70.0,0.0,15.0,2.0,0.0
11,76.0,12.0,15.0,5.0,0.0
12,77.0,0.0,20.0,0.0,0.0
13,72.0,0.0,20.0,1.0,0.0
14,68.0,0.0,20.0,2.0,0.0
15,65.0,0.0,20.0,3.0,0.0
16,53.0,1.0,20.0,4.0,0.0
17,77.0,11.0,15.0,5.0,0.0
18,72.0,12.0,15.0,5.0,0.0
19,77.0,0.0,30.0,0.0,0.0
20,72.0,0.0,30.0,1.0,0.0
21,68.0,6.0,30.0,2.0,0.0
22,68.0,12.0,15.0,5.0,0.0
23,53.0,3.0,30.0,6.0,0.0
24,72.0,12.0,15.0,5.0,0.0
25,53.0,0.0,20.0,3.0,0.0
26,41.0,1.0,20.0,4.0,0.0
27,77.0,2.0,15.0,5.0,0.0
28,79.0,0.0,15.0,0.0,0.0
29,70.0,0.0,15.0,2.0,0.0
30,76.0,12.0,15.0,5.0,0.0
31,80.0,0.0,20.0,0.0,0.0
32,65.0,0.0,20.0,1.0,0.0
33,72.0,0.0,20.0,2.0,0.0
34,65.0,0.0,20.0,3.0,0.0
35,53.0,1.0,20.0,4.0,0.0
36,77.0,11.0,15.0,5.0,0.0
37,72.0,12.0,15.0,5.0,0.0
38,73.0,6.0,60.0,0.0,0.0
39,67.0,0.0,30.0,1.0,0.0
40,70.0,6.0,30.0,2.0,0.0
41,70.0,12.0,15.0,5.0,0.0
42,53.0,3.0,30.0,6.0,0.0
43,73.0,12.0,15.0,5.0,0.0
44,53.0,0.0,20.0,3.0,0.0
45,41.0,1.0,20.0,4.0,0.0
46,79.0,2.0,15.0,5.0,0.0
47,68.0,0.0,15.0,1.0,0.0
48,72.0,0.0,15.0,2.0,0.0
49,77.0,12.0,15.0,5.0,0.0
50,70.0,0.0,20.0,1.0,0.0
51,73.0,0.0,20.0,2.0,0.0
52,65.0,0.0,20.0,3.0,0.0
53,53.0,1.0,20.0,4.0,0.0
54,79.0,5.0,15.0,5.0,0.0
55,73.0,12.0,15.0,5.0,0.0
56,82.0,10.0,90.0,0.0,0.0
57,70.0,0.0,30.0,1.0,0.0
58,67.0,6.0,30.0,2.0,0.0
59,70.0,12.0,15.0,5.0,0.0
60,53.0,3.0,30.0,6.0,0.0
61,73.0,12.0,15.0,5.0,0.0
62,53.0,0.0,20.0,3.0,0.0
63,41.0,1.0,20.0,4.0,0.0
64,79.0,2.0,15.0,5.0,0.0
65,72.0,0.0,15.0,1.0,0.0
66,68.0,0.0,15.0,2.0,0.0
67,77.0,12.0,15.0,5.0,0.0
68,73.0,0.0,20.0,1.0,0.0
69,70.0,0.0,20.0,2.0,0.0
70,65.0,0.0,20.0,3.0,0.0
71,53.0,1.0,20.0,4.0,0.0
72,76.0,11.0,15.0,5.0,0.0
73,77.0,12.0,15.0,5.0,0.0
74,73.0,0.0,30.0,1.0,0.0
75,64.0,6.0,30.0,2.0,0.0
76,76.0,12.0,15.0,5.0,0.0
77,53.0,3.0,30.0,6.0,0.0
78,79.0,2.0,15.0,5.0,0.0
79,53.0,0.0,20.0,3.0,0.0
80,41.0,1.0,20.0,4.0,0.0
81,82.0,2.0,15.0,5.0,0.0
82,84.0,0.0,15.0,0.0,0.0
83,72.0,0.0,15.0,1.0,0.0
84,65.0,0.0,15.0,2.0,0.0
85,80.0,12.0,15.0,5.0,0.0
86,85.0,0.0,20.0,0.0,0.0
87,70.0,0.0,20.0,1.0,0.0
88,67.0,0.0,20.0,2.0,0.0
89,65.0,0.0,20.0,3.0,0.0
90,53.0,1.0,20.0,4.0,0.0
91,82.0,11.0,15.0,5.0,0.0
92,79.0,12.0,15.0,5.0,0.0
93,85.0,0.0,30.0,0.0,0.0
94,76.0,0.0,30.0,1.0,0.0
95,67.0,6.0,30.0,2.0,0.0
96,76.0,12.0,15.0,5.0,0.0
97,53.0,3.0,30.0,6.0,0.0
98,79.0,12.0,15.0,5.0,0.0
99,53.0,0.0,20.0,3.0,0.0
100,41.0,1.0,20.0,4.0,0.0
101,82.0,2.0,15.0,5.0,0.0
102,84.0,0.0,15.0,0.0,0.0
103,77.0,0.0,15.0,1.0,0.0
104,65.0,0.0,15.0,2.0,0.0
105,80.0,12.0,15.0,5.0,0.0
106,82.0,0.0,20.0,0.0,0.0
107,79.0,0.0,20.0,1.0,0.0
108,64.0,0.0,20.0,2.0,0.0
109,65.0,0.0,20.0,3.0,0.0
110,53.0,1.0,20.0,4.0,0.0
111,82.0,11.0,15.0,5.0,0.0
112,79.0,12.0,15.0,5.0,0.0
113,82.0,10.0,20.0,0.0,0.0
114,77.0,0.0,30.0,1.0,0.0
115,72.0,0.0,30.0,2.0,0.0
116,72.0,12.0,15.0,5.0,0.0
117,53.0,3.0,30.0,6.0,0.0
118,77.0,2.0,15.0,5.0,0.0
119,80.0,0.0,20.0,0.0,0.0
120,53.0,0.0,20.0,3.0,0.0
121,41.0,1.0,20.0,4.0,0.0
122,80.0,8.0,15.0,5.0,0.0
123,77.0,12.0,15.0,5.0,0.0
124,79.0,0.0,20.0,0.0,0.0
125,76.0,0.0,20.0,1.0,0.0
126,70.0,0.0,20.0,2.0,0.0
127,65.0,0.0,20.0,3.0,0.0
128,53.0,1.0,20.0,4.0,0.0
129,79.0,11.0,15.0,5.0,0.0
130,76.0,12.0,15.0,5.0,0.0
131,77.0,10.0,90.0,0.0,0.0
132,72.0,0.0,30.0,1.0,0.0
133,68.0,6.0,30.0,2.0,0.0
134,77.0,12.0,15.0,5.0,0.0
135,53.0,3.0,30.0,6.0,0.0
136,80.0,12.0,15.0,5.0,0.0
137,53.0,0.0,20.0,3.0,0.0
138,41.0,1.0,20.0,4.0,0.0
139,77.0,2.0,15.0,5.0,0.0
140,68.0,0.0,15.0,1.0,0.0
141,65.0,0.0,15.0,2.0,0.0
142,72.0,12.0,15.0,5.0,0.0
143,70.0,0.0,20.0,1.0,0.0
144,67.0,0.0,20.0,2.0,0.0
145,65.0,0.0,20.0,3.0,0.0
146,53.0,1.0,20.0,4.0,0.0
147,70.0,11.0,15.0,5.0,0.0
148,72.0,12.0,15.0,5.0,0.0
149,72.0,0.0,30.0,1.0,0.0
150,69.0,6.0,30.0,2.0,0.0
151,69.0,12.0,15.0,5.0,0.0
152,51.0,3.0,30.0,6.0,0.0
153,72.0,2.0,15.0,5.0,0.0
154,51.0,0.0,20.0,3.0,0.0
155,39.0,1.0,20.0,4.0,0.0
156,77.0,2.0,15.0,5.0,0.0
157,78.0,0.0,15.0,0.0,0.0
158,73.0,0.0,15.0,1.0,0.0
159,70.0,0.0,15.0,2.0,0.0
160,73.0,12.0,15.0,5.0,0.0
161,77.0,0.0,20.0,0.0,0.0
162,72.0,0.0,20.0,1.0,0.0
163,69.0,0.0,20.0,2.0,0.0
164,63.0,0.0,20.0,3.0,0.0
165,51.0,1.0,20.0,4.0,0.0
166,75.0,11.0,15.0,5.0,0.0
167,72.0,12.0,15.0,5.0,0.0
168,77.0,0.0,30.0,0.0,0.0
169,72.0,0.0,30.0,1.0,0.0
170,69.0,6.0,30.0,2.0,0.0
171,69.0,12.0,15.0,5.0,0.0
172,51.0,3.0,30.0,6.0,0.0
173,72.0,12.0,15.0,5.0,0.0
174,51.0,0.0,20.0,3.0,0.0
175,39.0,1.0,20.0,4.0,0.0
176,77.0,2.0,15.0,5.0,0.0
177,79.0,0.0,15.0,0.0,0.0
178,70.0,0.0,15.0,2.0,0.0
179,73.0,12.0,15.0,5.0,0.0
180,81.0,0.0,20.0,0.0,0.0
181,77.0,0.0,20.0,1.0,0.0
182,72.0,0.0,20.0,2.0,0.0
183,63.0,0.0,20.0,3.0,0.0
184,51.0,1.0,20.0,4.0,0.0
185,75.0,11.0,15.0,5.0,0.0
186,72.0,12.0,15.0,5.0,0.0
187,81.0,10.0,20.0,0.0,0.0
188,77.0,0.0,30.0,1.0,0.0
189,73.0,0.0,30.0,2.0,0.0
190,70.0,12.0,15.0,5.0,0.0
191,49.0,3.0,30.0,6.0,0.0
192,73.0,2.0,15.0,5.0,0.0
193,82.0,0.0,20.0,0.0,0.0
194,49.0,0.0,20.0,3.0,0.0
195,37.0,1.0,20.0,4.0,0.0
196,77.0,8.0,15.0,5.0,0.0
197,76.0,12.0,15.0,5.0,0.0
198,80.0,0.0,20.0,0.0,0.0
199,77.0,0.0,20.0,1.0,0.0
200,72.0,0.0,20.0,2.0,0.0
201,61.0,0.0,20.0,3.0,0.0
202,49.0,1.0,20.0,4.0,0.0
203,77.0,11.0,15.0,5.0,0.0
204,80.0,12.0,15.0,5.0,0.0
205,80.0,7.0,20.0,0.0,0.0
206,74.0,0.0,30.0,1.0,0.0
207,71.0,3.0,30.0,2.0,0.0
208,71.0,12.0,15.0,5.0,0.0
209,53.0,3.0,30.0,6.0,0.0
210,74.0,2.0,15.0,5.0,0.0
211,79.0,9.0,60.0,0.0,0.0
212,53.0,0.0,20.0,3.0,0.0
213,41.0,1.0,20.0,4.0,0.0
214,79.0,8.0,15.0,5.0,0.0
215,72.0,0.0,15.0,1.0,0.0
216,72.0,0.0,15.0,2.0,0.0
217,75.0,12.0,15.0,5.0,0.0
218,71.0,0.0,20.0,1.0,0.0
219,74.0,0.0,20.0,2.0,0.0
220,65.0,0.0,20.0,3.0,0.0
221,53.0,1.0,20.0,4.0,0.0
222,77.0,11.0,15.0,5.0,0.0
223,74.0,12.0,15.0,5.0,0.0
224,72.0,0.0,30.0,1.0,0.0
225,67.0,0.0,30.0,2.0,0.0
226,72.0,12.0,15.0,5.0,0.0
227,52.0,3.0,30.0,6.0,0.0
228,76.0,3.0,15.0,5.0,0.0
229,52.0,0.0,20.0,3.0,0.0
230,40.0,1.0,20.0,4.0,0.0
231,79.0,8.0,15.0,5.0,0.0
232,80.0,0.0,15.0,0.0,0.0
233,77.0,12.0,15.0,5.0,0.0
234,79.0,0.0,20.0,0.0,0.0
235,79.0,0.0,20.0,1.0,0.0
236,72.0,0.0,20.0,2.0,0.0
237,64.0,0.0,20.0,3.0,0.0
238,52.0,1.0,20.0,4.0,0.0
239,79.0,11.0,15.0,5.0,0.0
240,72.0,12.0,15.0,5.0,0.0
241,79.0,6.0,30.0,0.0,0.0
242,77.0,0.0,30.0,1.0,0.0
243,71.0,0.0,30.0,2.0,0.0
244,71.0,12.0,15.0,5.0,0.0
245,50.0,3.0,30.0,6.0,0.0
246,77.0,12.0,15.0,5.0,0.0
247,50.0,0.0,20.0,3.0,0.0
248,38.0,1.0,20.0,4.0,0.0
249,79.0,2.0,15.0,5.0,0.0
250,81.0,0.0,15.0,0.0,0.0
251,75.0,12.0,15.0,5.0,0.0
252,83.0,0.0,20.0,0.0,0.0
253,80.0,0.0,20.0,1.0,0.0
254,77.0,0.0,20.0,2.0,0.0
255,62.0,0.0,20.0,3.0,0.0
256,50.0,1.0,20.0,4.0,0.0
257,77.0,11.0,15.0,5.0,0.0
258,74.0,12.0,15.0,5.0,0.0
259,83.0,10.0,20.0,0.0,0.0
260,78.0,0.0,30.0,1.0,0.0
261,75.0,0.0,30.0,2.0,0.0
262,72.0,12.0,15.0,5.0,0.0
263,51.0,3.0,30.0,6.0,0.0
264,75.0,2.0,15.0,5.0,0.0
265,84.0,0.0,20.0,0.0,0.0
266,51.0,0.0,20.0,3.0,0.0
267,39.0,1.0,20.0,4.0,0.0
268,78.0,8.0,15.0,5.0,0.0
269,77.0,12.0,15.0,5.0,0.0
270,82.0,0.0,20.0,0.0,0.0
271,78.0,0.0,20.0,1.0,0.0
272,73.0,0.0,20.0,2.0,0.0
273,63.0,0.0,20.0,3.0,0.0
274,51.0,1.0,20.0,4.0,0.0
275,78.0,11.0,15.0,5.0,0.0
276,75.0,12.0,15.0,5.0,0.0
277,82.0,10.0,20.0,0.0,0.0
278,75.0,0.0,30.0,1.0,0.0
279,72.0,6.0,30.0,2.0,0.0
280,72.0,12.0,15.0,5.0,0.0
281,54.0,3.0,30.0,6.0,0.0
282,75.0,2.0,15.0,5.0,0.0
283,81.0,6.0,60.0,0.0,0.0
284,54.0,0.0,20.0,3.0,0.0
285,42.0,1.0,20.0,4.0,0.0
286,81.0,2.0,15.0,5.0,0.0
287,73.0,0.0,15.0,1.0,0.0
288,73.0,0.0,15.0,2.0,0.0
289,79.0,12.0,15.0,5.0,0.0
290,72.0,0.0,20.0,1.0,0.0
291,75.0,0.0,20.0,2.0,0.0
292,66.0,0.0,20.0,3.0,0.0
293,54.0,1.0,20.0,4.0,0.0
294,81.0,11.0,15.0,5.0,0.0
295,75.0,12.0,15.0,5.0,0.0
296,72.0,0.0,30.0,1.0,0.0
297,75.0,3.0,30.0,2.0,0.0
298,72.0,12.0,15.0,5.0,0.0
299,53.0,3.0,30.0,6.0,0.0
300,75.0,3.0,15.0,5.0,0.0
301,53.0,0.0,20.0,3.0,0.0
302,41.0,1.0,20.0,4.0,0.0
303,81.0,8.0,15.0,5.0,0.0
304,82.0,0.0,15.0,0.0,0.0
305,73.0,0.0,15.0,1.0,0.0
306,73.0,0.0,15.0,2.0,0.0
307,79.0,12.0,15.0,5.0,0.0
308,81.0,0.0,20.0,0.0,0.0
309,75.0,0.0,20.0,1.0,0.0
310,72.0,0.0,20.0,2.0,0.0
311,65.0,0.0,20.0,3.0,0.0
312,53.0,1.0,20.0,4.0,0.0
313,81.0,11.0,15.0,5.0,0.0
314,75.0,12.0,15.0,5.0,0.0
315,81.0,0.0,30.0,0.0,0.0
316,77.0,0.0,30.0,1.0,0.0
317,72.0,3.0,30.0,2.0,0.0
318,72.0,12.0,15.0,5.0,0.0
319,53.0,3.0,30.0,6.0,0.0
320,75.0,9.0,15.0,5.0,0.0
321,53.0,0.0,20.0,3.0,0.0
322,41.0,1.0,20.0,4.0,0.0
323,81.0,8.0,15.0,5.0,0.0
324,82.0,0.0,15.0,0.0,0.0
325,79.0,0.0,15.0,1.0,0.0
326,73.0,0.0,15.0,2.0,0.0
327,79.0,12.0,15.0,5.0,0.0
328,84.0,0.0,20.0,0.0,0.0
329,81.0,0.0,20.0,1.0,0.0
330,75.0,0.0,20.0,2.0,0.0
331,65.0,0.0,20.0,3.0,0.0
332,53.0,1.0,20.0,4.0,0.0
333,81.0,11.0,15.0,5.0,0.0
334,75.0,12.0,15.0,5.0,0.0
335,84.0,10.0,20.0,0.0,0.0
336,82.0,0.0,30.0,1.0,0.0
337,77.0,0.0,30.0,2.0,0.0
338,73.0,12.0,15.0,5.0,0.0
339,46.0,3.0,30.0,6.0,0.0
340,77.0,2.0,15.0,5.0,0.0
341,85.0,0.0,20.0,0.0,0.0
342,46.0,0.0,20.0,3.0,0.0
343,34.0,1.0,20.0,4.0,0.0
344,82.0,8.0,15.0,5.0,0.0
345,77.0,12.0,15.0,5.0,0.0
346,84.0,0.0,20.0,0.0,0.0
347,81.0,0.0,20.0,1.0,0.0
348,75.0,0.0,20.0,2.0,0.0
349,58.0,0.0,20.0,3.0,0.0
350,46.0,1.0,20.0,4.0,0.0
351,78.0,11.0,15.0,5.0,0.0
352,75.0,12.0,15.0,5.0,0.0
353,84.0,10.0,20.0,0.0,0.0
354,77.0,0.0,30.0,1.0,0.0
355,73.0,0.0,30.0,2.0,0.0
356,77.0,12.0,15.0,5.0,0.0
357,46.0,3.0,30.0,6.0,0.0
358,82.0,2.0,15.0,5.0,0.0
359,82.0,0.0,20.0,0.0,0.0
360,46.0,0.0,20.0,3.0,0.0
361,34.0,1.0,20.0,4.0,0.0
362,85.0,8.0,15.0,5.0,0.0
363,82.0,12.0,15.0,5.0,0.0
364,80.0,0.0,20.0,0.0,0.0
365,75.0,0.0,20.0,1.0,0.0
366,72.0,0.0,20.0,2.0,0.0
367,58.0,0.0,20.0,3.0,0.0
368,46.0,1.0,20.0,4.0,0.0
369,77.0,11.0,15.0,5.0,0.0
370,80.0,12.0,15.0,5.0,0.0
371,78.0,0.0,30.0,0.0,0.0
372,73.0,3.0,30.0,1.0,0.0
373,70.0,6.0,30.0,2.0,0.0
374,73.0,12.0,15.0,5.0,0.0
375,46.0,3.0,30.0,6.0,0.0
376,78.0,9.0,15.0,5.0,0.0
377,58.0,0.0,20.0,3.0,0.0
378,46.0,1.0,20.0,4.0,0.0
379,82.0,2.0,15.0,5.0,0.0
380,76.0,0.0,15.0,0.0,0.0
381,61.0,0.0,15.0,1.0,0.0
382,67.0,0.0,15.0,2.0,0.0
383,79.0,12.0,15.0,5.0,0.0
384,77.0,0.0,20.0,0.0,0.0
385,60.0,0.0,20.0,1.0,0.0
386,65.0,0.0,20.0,2.0,0.0
387,56.0,0.0,20.0,3.0,0.0
388,44.0,1.0,20.0,4.0,0.0
389,80.0,11.0,15.0,5.0,0.0
390,77.0,12.0,15.0,5.0,0.0
391,73.0,0.0,30.0,0.0,0.0
392,67.0,0.0,30.0,1.0,0.0
393,64.0,6.0,30.0,2.0,0.0
394,70.0,12.0,15.0,5.0,0.0
395,58.0,3.0,30.0,6.0,0.0
396,73.0,12.0,15.0,5.0,0.0
397,55.0,0.0,20.0,3.0,0.0
398,43.0,1.0,20.0,4.0,0.0
399,79.0,2.0,15.0,5.0,0.0
400,70.0,0.0,15.0,0.0,0.0
401,70.0,0.0,15.0,1.0,0.0
402,67.0,0.0,15.0,2.0,0.0
403,76.0,12.0,15.0,5.0,0.0
404,72.0,0.0,20.0,0.0,0.0
405,68.0,0.0,20.0,1.0,0.0
406,65.0,0.0,20.0,2.0,0.0
407,56.0,0.0,20.0,3.0,0.0
408,44.0,1.0,20.0,4.0,0.0
409,77.0,11.0,15.0,5.0,0.0
410,73.0,12.0,15.0,5.0,0.0
411,77.0,10.0,20.0,0.0,0.0
412,73.0,0.0,30.0,1.0,0.0
413,67.0,0.0,30.0,2.0,0.0
414,67.0,12.0,15.0,5.0,0.0
415,58.0,3.0,30.0,6.0,0.0
416,70.0,2.0,15.0,5.0,0.0
417,76.0,0.0,20.0,0.0,0.0
418,60.0,0.0,20.0,3.0,0.0
419,48.0,1.0,20.0,4.0,0.0
420,76.0,8.0,15.0,5.0,0.0
421,70.0,12.0,15.0,5.0,0.0
422,77.0,0.0,20.0,0.0,0.0
423,70.0,0.0,20.0,1.0,0.0
424,65.0,0.0,20.0,2.0,0.0
425,61.0,0.0,20.0,3.0,0.0
426,49.0,0.0,20.0,4.0,0.0
427,67.0,11.0,15.0,5.0,0.0
428,61.0,1.0,20.0,6.0,0.0
429,70.0,12.0,15.0,5.0,0.0
430,80.0,0.0,30.0,0.0,0.0
431,72.0,0.0,30.0,1.0,0.0
432,65.0,3.0,30.0,2.0,0.0
433,68.0,12.0,15.0,5.0,0.0
434,60.0,3.0,30.0,6.0,0.0
435,72.0,9.0,15.0,5.0,0.0
436,60.0,0.0,20.0,3.0,0.0
437,48.0,1.0,20.0,4.0,0.0
438,77.0,8.0,15.0,5.0,0.0
439,79.0,0.0,15.0,0.0,0.0
440,70.0,0.0,15.0,1.0,0.0
441,64.0,0.0,15.0,2.0,0.0
442,73.0,12.0,15.0,5.0,0.0
443,77.0,0.0,20.0,0.0,0.0
444,68.0,0.0,20.0,1.0,0.0
445,65.0,0.0,20.0,2.0,0.0
446,48.0,0.0,20.0,3.0,0.0
447,36.0,0.0,20.0,4.0,0.0
448,72.0,11.0,15.0,5.0,0.0
449,48.0,1.0,20.0,6.0,0.0
450,70.0,23.0,15.0,5.0,0.0
451,77.0,0.0,20.0,0.0,0.0
452,68.0,0.0,20.0,1.0,0.0
453,65.0,0.0,20.0,2.0,0.0
454,53.0,0.0,20.0,3.0,0.0
455,41.0,0.0,20.0,4.0,0.0
456,72.0,14.0,30.0,5.0,0.0
457,68.0,10.0,20.0,6.0,0.0
458,53.0,1.0,20.0,6.0,0.0
459,73.0,23.0,15.0,5.0,0.0
460,72.0,0.0,20.0,5.0,0.0
461,65.0,24.0,20.0,6.0,0.0
462,72.0,0.0,20.0,0.0,0.0
463,67.0,0.0,20.0,1.0,0.0
464,63.0,10.0,20.0,2.0,0.0
465,72.0,14.0,30.0,5.0,0.0
466,51.0,1.0,20.0,6.0,0.0
467,80.0,23.0,15.0,5.0,0.0
468,79.0,0.0,20.0,5.0,0.0
469,63.0,24.0,20.0,6.0,0.0
470,77.0,0.0,20.0,0.0,0.0
471,68.0,0.0,20.0,1.0,0.0
472,61.0,10.0,20.0,2.0,0.0
473,77.0,14.0,30.0,5.0,0.0
474,49.0,1.0,20.0,6.0,0.0
475,76.0,23.0,15.0,5.0,0.0
476,77.0,0.0,20.0,5.0,0.0
477,61.0,24.0,20.0,6.0,0.0
478,77.0,0.0,20.0,0.0,0.0
479,72.0,0.0,20.0,1.0,0.0
480,56.0,24.0,20.0,2.0,0.0
481,77.0,12.0,60.0,5.0,0.0
482,44.0,2.0,20.0,6.0,0.0
483,56.0,2.0,20.0,6.0,0.0
484,79.0,6.0,15.0,5.0,0.0
485,77.0,4.0,15.0,5.0,0.0
486,76.0,17.0,15.0,5.0,0.0
487,77.0,0.0,20.0,0.0,0.0
488,73.0,0.0,20.0,1.0,0.0
489,58.0,3.0,20.0,2.0,0.0
490,77.0,5.0,15.0,5.0,0.0
491,85.0,16.0,15.0,5.0,0.0
492,84.0,5.0,15.0,5.0,0.0
493,46.0,2.0,20.0,6.0,0.0
494,79.0,17.0,15.0,5.0,0.0
495,80.0,5.0,15.0,5.0,0.0
496,58.0,2.0,20.0,6.0,0.0
497,77.0,22.0,15.0,5.0,0.0
498,76.0,0.0,20.0,0.0,0.0
499,72.0,0.0,20.0,1.0,0.0
500,60.0,10.0,20.0,2.0,0.0
501,70.0,10.0,30.0,5.0,0.0
502,48.0,2.0,20.0,6.0,0.0
503,72.0,4.0,15.0,5.0,0.0
504,73.0,22.0,15.0,5.0,0.0
505,72.0,0.0,20.0,5.0,0.0
506,60.0,6.0,20.0,6.0,0.0
507,77.0,0.0,20.0,0.0,0.0
508,72.0,0.0,20.0,1.0,0.0
509,65.0,0.0,20.0,2.0,0.0
510,70.0,3.0,15.0,5.0,0.0
511,68.0,3.0,15.0,5.0,0.0
512,70.0,3.0,15.0,5.0,0.0
513,68.0,3.0,15.0,5.0,0.0
514,70.0,3.0,15.0,5.0,0.0
515,68.0,3.0,15.0,5.0,0.0
516,70.0,3.0,15.0,5.0,0.0
517,68.0,3.0,15.0,5.0,0.0
518,70.0,8.0,15.0,5.0,0.0
519,41.0,1.0,20.0,6.0,0.0
520,68.0,10.0,15.0,5.0,0.0
521,67.0,23.0,15.0,5.0,0.0
522,65.0,0.0,20.0,5.0,0.0
523,53.0,24.0,20.0,6.0,0.0
524,75.0,0.0,20.0,0.0,0.0
525,72.0,0.0,20.0,1.0,0.0
526,60.0,10.0,20.0,2.0,0.0
527,80.0,11.0,30.0,5.0,0.0
528,48.0,3.0,20.0,6.0,0.0
529,75.0,3.0,15.0,5.0,0.0
530,73.0,6.0,15.0,5.0,0.0
531,72.0,6.0,15.0,5.0,0.0
532,60.0,1.0,20.0,6.0,0.0
533,73.0,9.0,15.0,5.0,0.0
534,75.0,7.0,15.0,5.0,0.0
535,77.0,0.0,20.0,0.0,0.0
536,70.0,0.0,20.0,1.0,0.0
537,61.0,12.0,20.0,2.0,0.0
538,77.0,6.0,15.0,5.0,0.0
539,79.0,10.0,15.0,5.0,0.0
540,80.0,12.0,20.0,5.0,0.0
541,49.0,1.0,20.0,6.0,0.0
542,79.0,23.0,15.0,5.0,0.0
543,77.0,0.0,20.0,5.0,0.0
544,61.0,15.0,20.0,6.0,0.0
545,79.0,0.0,20.0,0.0,0.0
546,70.0,0.0,20.0,1.0,0.0
547,63.0,12.0,20.0,2.0,0.0
548,77.0,9.0,15.0,5.0,0.0
549,75.0,12.0,20.0,5.0,0.0
550,51.0,1.0,20.0,6.0,0.0
551,77.0,14.0,15.0,5.0,0.0
552,73.0,3.0,15.0,5.0,0.0
553,63.0,3.0,20.0,6.0,0.0
554,80.0,3.0,15.0,5.0,0.0
555,82.0,3.0,15.0,5.0,0.0
556,80.0,0.0,15.0,5.0,0.0
557,82.0,21.0,15.0,5.0,0.0
558,80.0,0.0,20.0,0.0,0.0
559,68.0,0.0,20.0,1.0,0.0
560,64.0,10.0,20.0,2.0,0.0
561,83.0,14.0,30.0,5.0,0.0
562,52.0,1.0,20.0,6.0,0.0
563,82.0,23.0,15.0,5.0,0.0
564,80.0,0.0,20.0,5.0,0.0
565,64.0,15.0,20.0,6.0,0.0
566,76.0,0.0,20.0,0.0,0.0
567,73.0,0.0,20.0,1.0,0.0
568,61.0,12.0,20.0,2.0,0.0
569,80.0,9.0,15.0,5.0,0.0
570,81.0,12.0,20.0,5.0,0.0
571,49.0,1.0,20.0,6.0,0.0
572,79.0,23.0,15.0,5.0,0.0
573,80.0,0.0,20.0,5.0,0.0
574,61.0,13.0,20.0,6.0,0.0
575,77.0,0.0,20.0,0.0,0.0
576,80.0,0.0,20.0,1.0,0.0
577,62.0,1.0,20.0,2.0,0.0
578,70.0,11.0,15.0,5.0,0.0
579,74.0,12.0,15.0,5.0,0.0
580,77.0,11.0,15.0,5.0,0.0
581,50.0,1.0,20.0,6.0,0.0
582,79.0,12.0,15.0,5.0,0.0
583,80.0,11.0,15.0,5.0,0.0
584,62.0,1.0,20.0,6.0,0.0
585,85.0,23.0,15.0,5.0,0.0
586,79.0,0.0,20.0,0.0,0.0
587,75.0,0.0,20.0,1.0,0.0
588,63.0,10.0,20.0,2.0,0.0
589,84.0,14.0,30.0,5.0,0.0
590,51.0,1.0,20.0,6.0,0.0
591,80.0,23.0,15.0,5.0,0.0
592,79.0,0.0,20.0,5.0,0.0
593,63.0,24.0,20.0,6.0,0.0
594,80.0,0.0,20.0,0.0,0.0
595,72.0,0.0,20.0,1.0,0.0
596,68.0,24.0,20.0,2.0,0.0
597,80.0,12.0,60.0,5.0,0.0
598,56.0,2.0,20.0,6.0,0.0
599,68.0,2.0,20.0,6.0,0.0
600,82.0,6.0,15.0,5.0,0.0
601,80.0,4.0,15.0,5.0,0.0
602,79.0,6.0,15.0,5.0,0.0
603,72.0,0.0,20.0,0.0,0.0
604,75.0,0.0,20.0,1.0,0.0
605,67.0,7.0,20.0,2.0,0.0
606,80.0,6.0,15.0,5.0,0.0
607,75.0,10.0,15.0,5.0,0.0
608,68.0,8.0,15.0,5.0,0.0
609,55.0,3.0,20.0,6.0,0.0
610,70.0,6.0,15.0,5.0,0.0
611,72.0,3.0,15.0,5.0,0.0
612,73.0,6.0,15.0,5.0,0.0
613,72.0,6.0,15.0,5.0,0.0
614,67.0,2.0,20.0,6.0,0.0
615,70.0,6.0,15.0,5.0,0.0
616,72.0,3.0,15.0,5.0,0.0
617,75.0,22.0,15.0,5.0,0.0
618,72.0,0.0,20.0,0.0,0.0
619,77.0,0.0,20.0,1.0,0.0
620,65.0,10.0,20.0,2.0,0.0
621,80.0,14.0,30.0,5.0,0.0
622,53.0,1.0,20.0,6.0,0.0
623,79.0,23.0,15.0,5.0,0.0
624,77.0,0.0,20.0,5.0,0.0
625,65.0,6.0,20.0,6.0,0.0
626,80.0,0.0,20.0,0.0,0.0
627,72.0,0.0,20.0,1.0,0.0
628,63.0,11.0,20.0,2.0,0.0
629,77.0,3.0,15.0,5.0,0.0
630,75.0,15.0,15.0,5.0,0.0
631,77.0,13.0,30.0,5.0,0.0
632,51.0,1.0,20.0,6.0,0.0
633,79.0,23.0,15.0,5.0,0.0
634,80.0,0.0,20.0,5.0,0.0
635,63.0,24.0,20.0,6.0,0.0
636,80.0,0.0,20.0,0.0,0.0
637,77.0,0.0,20.0,1.0,0.0
638,62.0,10.0,20.0,2.0,0.0
639,70.0,14.0,30.0,5.0,0.0
640,50.0,1.0,20.0,6.0,0.0
641,77.0,23.0,15.0,5.0,0.0
642,80.0,0.0,20.0,5.0,0.0
643,62.0,15.0,20.0,6.0,0.0
644,74.0,0.0,20.0,0.0,0.0
645,71.0,0.0,20.0,1.0,0.0
646,65.0,12.0,20.0,2.0,0.0
647,80.0,9.0,15.0,5.0,0.0
648,79.0,9.0,20.0,5.0,0.0
649,53.0,3.0,20.0,6.0,0.0
650,77.0,3.0,15.0,5.0,0.0
651,79.0,6.0,15.0,5.0,0.0
652,80.0,6.0,15.0,5.0,0.0
653,65.0,1.0,20.0,6.0,0.0
654,79.0,9.0,15.0,5.0,0.0
655,77.0,23.0,15.0,5.0,0.0
656,72.0,0.0,20.0,0.0,0.0
657,72.0,0.0,20.0,1.0,0.0
658,63.0,10.0,20.0,2.0,0.0
659,79.0,14.0,30.0,5.0,0.0
660,51.0,1.0,20.0,6.0,0.0
661,89.0,23.0,15.0,5.0,0.0
662,87.0,0.0,20.0,5.0,0.0
663,63.0,24.0,20.0,6.0,0.0
664,80.0,0.0,20.0,0.0,0.0
665,77.0,0.0,20.0,1.0,0.0
666,65.0,10.0,20.0,2.0,0.0
667,85.0,14.0,30.0,5.0,0.0
668,53.0,1.0,20.0,6.0,0.0
669,83.0,23.0,15.0,5.0,0.0
670,84.0,0.0,20.0,5.0,0.0
671,65.0,24.0,20.0,6.0,0.0
672,79.0,0.0,20.0,0.0,0.0
673,74.0,0.0,20.0,1.0,0.0
674,67.0,10.0,20.0,2.0,0.0
675,83.0,14.0,30.0,5.0,0.0
676,55.0,1.0,20.0,6.0,0.0
677,79.0,23.0,15.0,5.0,0.0
678,80.0,0.0,20.0,5.0,0.0
679,67.0,24.0,20.0,6.0,0.0
680,74.0,0.0,20.0,0.0,0.0
681,71.0,0.0,20.0,1.0,0.0
682,65.0,10.0,20.0,2.0,0.0
683,79.0,14.0,30.0,5.0,0.0
684,53.0,3.0,20.0,6.0,0.0
685,71.0,3.0,15.0,5.0,0.0
686,72.0,3.0,15.0,5.0,0.0
687,65.0,1.0,20.0,6.0,0.0
688,71.0,6.0,15.0,5.0,0.0
689,69.0,9.0,15.0,5.0,0.0
690,71.0,12.0,15.0,5.0,0.0
691,79.0,0.0,20.0,0.0,0.0
692,72.0,0.0,20.0,1.0,0.0
693,64.0,1.0,20.0,2.0,0.0
694,72.0,11.0,15.0,5.0,0.0
695,76.0,12.0,15.0,5.0,0.0
696,79.0,11.0,15.0,5.0,0.0
697,52.0,1.0,20.0,6.0,0.0
698,82.0,12.0,15.0,5.0,0.0
699,85.0,11.0,15.0,5.0,0.0
700,64.0,1.0,20.0,6.0,0.0
701,84.0,12.0,15.0,5.0,0.0
702,76.0,0.0,20.0,0.0,0.0
703,67.0,0.0,20.0,1.0,0.0
704,60.0,1.0,20.0,2.0,0.0
705,85.0,11.0,15.0,5.0,0.0
706,77.0,12.0,15.0,5.0,0.0
707,76.0,11.0,15.0,5.0,0.0
708,48.0,1.0,20.0,6.0,0.0
709,79.0,12.0,15.0,5.0,0.0
710,82.0,11.0,15.0,5.0,0.0
711,60.0,1.0,20.0,6.0,0.0
712,80.0,12.0,15.0,5.0,0.0
713,72.0,0.0,20.0,0.0,0.0
714,65.0,0.0,20.0,1.0,0.0
715,65.0,1.0,20.0,2.0,0.0
716,82.0,11.0,15.0,5.0,0.0
717,80.0,12.0,15.0,5.0,0.0
718,79.0,11.0,15.0,5.0,0.0
719,53.0,1.0,20.0,6.0,0.0
720,77.0,12.0,15.0,5.0,0.0
721,76.0,11.0,15.0,5.0,0.0
722,65.0,1.0,20.0,6.0,0.0
723,82.0,12.0,15.0,5.0,0.0
724,77.0,0.0,20.0,0.0,0.0
725,74.0,0.0,20.0,1.0,0.0
726,59.0,1.0,20.0,2.0,0.0
727,80.0,11.0,15.0,5.0,0.0
728,79.0,12.0,15.0,5.0,0.0
729,77.0,11.0,15.0,5.0,0.0
730,47.0,1.0,20.0,6.0,0.0
731,75.0,12.0,15.0,5.0,0.0
732,74.0,11.0,15.0,5.0,0.0
733,59.0,1.0,20.0,6.0,0.0
734,80.0,7.0,15.0,5.0,0.0
735,75.0,0.0,20.0,0.0,0.0
736,79.0,0.0,20.0,1.0,0.0
737,60.0,2.0,20.0,2.0,0.0
738,79.0,6.0,15.0,5.0,0.0
739,77.0,6.0,15.0,5.0,0.0
740,75.0,4.0,15.0,5.0,0.0
741,74.0,11.0,15.0,5.0,0.0
742,75.0,11.0,15.0,5.0,0.0
743,48.0,1.0,20.0,6.0,0.0
744,80.0,12.0,15.0,5.0,0.0
745,79.0,11.0,15.0,5.0,0.0
746,60.0,1.0,20.0,6.0,0.0
747,84.0,12.0,15.0,5.0,0.0
748,74.0,0.0,20.0,0.0,0.0
749,77.0,0.0,20.0,1.0,0.0
750,55.0,1.0,20.0,2.0,0.0
751,83.0,11.0,15.0,5.0,0.0
752,87.0,12.0,15.0,5.0,0.0
753,86.0,11.0,15.0,5.0,0.0
754,43.0,1.0,20.0,6.0,0.0
755,89.0,12.0,15.0,5.0,0.0
756,87.0,11.0,15.0,5.0,0.0
757,55.0,1.0,20.0,6.0,0.0
758,86.0,12.0,15.0,5.0,0.0
759,72.0,0.0,20.0,0.0,0.0
760,75.0,0.0,20.0,1.0,0.0
761,60.0,1.0,20.0,2.0,0.0
762,87.0,11.0,15.0,5.0,0.0
763,84.0,12.0,15.0,5.0,0.0
764,83.0,11.0,15.0,5.0,0.0
765,48.0,1.0,20.0,6.0,0.0
766,84.0,12.0,15.0,5.0,0.0
767,86.0,11.0,15.0,5.0,0.0
768,60.0,1.0,20.0,6.0,0.0
769,77.0,12.0,15.0,5.0,0.0
770,79.0,0.0,20.0,0.0,0.0
771,75.0,0.0,20.0,1.0,0.0
772,72.0,1.0,20.0,2.0,0.0
773,75.0,11.0,15.0,5.0,0.0
774,79.0,12.0,15.0,5.0,0.0
775,83.0,11.0,15.0,5.0,0.0
776,55.0,1.0,20.0,6.0,0.0
777,86.0,23.0,15.0,5.0,0.0
778,84.0,0.0,20.0,5.0,0.0
779,51.0,24.0,20.0,6.0,0.0
780,80.0,0.0,20.0,0.0,0.0
781,75.0,0.0,20.0,1.0,0.0
782,60.0,10.0,20.0,2.0,0.0
783,78.0,10.0,30.0,5.0,0.0
784,48.0,2.0,20.0,6.0,0.0
785,77.0,4.0,15.0,5.0,0.0
786,78.0,6.0,15.0,5.0,0.0
787,80.0,6.0,15.0,5.0,0.0
788,60.0,2.0,20.0,6.0,0.0
789,78.0,6.0,15.0,5.0,0.0
790,77.0,4.0,15.0,5.0,0.0
791,78.0,6.0,15.0,5.0,0.0
792,87.0,0.0,20.0,0.0,0.0
793,72.0,0.0,20.0,1.0,0.0
794,56.0,2.0,20.0,2.0,0.0
795,72.0,6.0,15.0,5.0,0.0
796,73.0,6.0,15.0,5.0,0.0
797,75.0,4.0,15.0,5.0,0.0
798,77.0,6.0,15.0,5.0,0.0
799,78.0,6.0,15.0,5.0,0.0
800,44.0,2.0,20.0,6.0,0.0
801,80.0,6.0,15.0,5.0,0.0
802,82.0,4.0,15.0,5.0,0.0
803,80.0,22.0,15.0,5.0,0.0
804,78.0,0.0,20.0,5.0,0.0
805,56.0,24.0,20.0,6.0,0.0
806,85.0,0.0,20.0,0.0,0.0
807,68.0,0.0,20.0,1.0,0.0
808,61.0,10.0,20.0,2.0,0.0
809,78.0,14.0,30.0,5.0,0.0
810,49.0,1.0,20.0,6.0,0.0
811,76.0,23.0,15.0,5.0,0.0
812,77.0,0.0,20.0,5.0,0.0
813,61.0,24.0,20.0,6.0,0.0
814,80.0,0.0,20.0,0.0,0.0
815,73.0,0.0,20.0,1.0,0.0
816,61.0,24.0,20.0,2.0,0.0
817,77.0,6.0,60.0,5.0,0.0
818,56.0,18.0,20.0,6.0,0.0
819,53.0,6.0,20.0,6.0,0.0
820,78.0,0.0,20.0,0.0,0.0
821,75.0,0.0,20.0,1.0,0.0
822,60.0,11.0,20.0,2.0,0.0
823,81.0,3.0,15.0,5.0,0.0
824,79.0,15.0,15.0,5.0,0.0
825,81.0,7.0,30.0,5.0,0.0
826,48.0,2.0,20.0,6.0,0.0
827,77.0,3.0,15.0,5.0,0.0
828,75.0,3.0,15.0,5.0,0.0
829,74.0,11.0,15.0,5.0,0.0
830,75.0,11.0,15.0,5.0,0.0
831,60.0,1.0,20.0,6.0,0.0
832,78.0,23.0,15.0,5.0,0.0
833,78.0,0.0,20.0,0.0,0.0
834,74.0,0.0,20.0,1.0,0.0
835,60.0,10.0,20.0,2.0,0.0
836,81.0,10.0,30.0,5.0,0.0
837,48.0,2.0,20.0,6.0,0.0
838,82.0,4.0,15.0,5.0,0.0
839,84.0,22.0,15.0,5.0,0.0
840,82.0,0.0,20.0,5.0,0.0
841,60.0,15.0,20.0,6.0,0.0
842,78.0,0.0,20.0,0.0,0.0
843,74.0,0.0,20.0,1.0,0.0
844,58.0,12.0,20.0,2.0,0.0
845,82.0,9.0,15.0,5.0,0.0
846,81.0,8.0,20.0,5.0,0.0
847,46.0,2.0,20.0,6.0,0.0
848,79.0,4.0,15.0,5.0,0.0
849,78.0,22.0,15.0,5.0,0.0
850,79.0,0.0,20.0,5.0,0.0
851,58.0,24.0,20.0,6.0,0.0
852,79.0,0.0,20.0,0.0,0.0
853,76.0,0.0,20.0,1.0,0.0
854,58.0,5.0,20.0,2.0,0.0
855,85.0,9.0,30.0,5.0,0.0
856,46.0,2.0,20.0,6.0,0.0
857,84.0,6.0,15.0,5.0,0.0
858,82.0,4.0,15.0,5.0,0.0
859,80.0,6.0,15.0,5.0,0.0
860,79.0,6.0,15.0,5.0,0.0
861,58.0,2.0,20.0,6.0,0.0
862,77.0,6.0,15.0,5.0,0.0
863,76.0,4.0,15.0,5.0,0.0
864,79.0,4.0,15.0,5.0,0.0
865,79.0,0.0,20.0,0.0,0.0
866,70.0,0.0,20.0,1.0,0.0
867,64.0,2.0,20.0,2.0,0.0
868,84.0,3.0,15.0,5.0,0.0
869,82.0,3.0,15.0,5.0,0.0
870,84.0,3.0,15.0,5.0,0.0
871,82.0,3.0,15.0,5.0,0.0
872,84.0,3.0,15.0,5.0,0.0
873,82.0,3.0,15.0,5.0,0.0
874,84.0,11.0,15.0,5.0,0.0
875,85.0,11.0,15.0,5.0,0.0
876,52.0,1.0,20.0,6.0,0.0
877,84.0,23.0,15.0,5.0,0.0
878,82.0,0.0,20.0,5.0,0.0
879,64.0,15.0,20.0,6.0,0.0
880,76.0,0.0,20.0,0.0,0.0
881,72.0,0.0,20.0,1.0,0.0
882,60.0,12.0,20.0,2.0,0.0
883,82.0,9.0,15.0,5.0,0.0
884,80.0,12.0,20.0,5.0,0.0
885,48.0,1.0,20.0,6.0,0.0
886,82.0,23.0,15.0,5.0,0.0
887,79.0,0.0,20.0,5.0,0.0
888,60.0,24.0,20.0,6.0,0.0
889,77.0,0.0,20.0,0.0,0.0
890,72.0,0.0,20.0,1.0,0.0
891,65.0,10.0,20.0,2.0,0.0
892,80.0,14.0,30.0,5.0,0.0
893,53.0,1.0,20.0,6.0,0.0
894,84.0,23.0,15.0,5.0,0.0
895,82.0,0.0,20.0,5.0,0.0
896,65.0,24.0,20.0,6.0,0.0
897,79.0,0.0,20.0,0.0,0.0
898,72.0,0.0,20.0,1.0,0.0
899,63.0,21.0,20.0,2.0,0.0
900,84.0,3.0,30.0,5.0,0.0
901,51.0,24.0,20.0,6.0,0.0
902,72.0,0.0,20.0,5.0,0.0
903,63.0,24.0,20.0,6.0,0.0
904,80.0,0.0,20.0,0.0,0.0
905,72.0,0.0,20.0,1.0,0.0
906,62.0,10.0,20.0,2.0,0.0
907,77.0,14.0,30.0,5.0,0.0
908,50.0,1.0,20.0,6.0,0.0
909,76.0,12.0,15.0,5.0,0.0
910,77.0,11.0,15.0,5.0,0.0
911,62.0,1.0,20.0,6.0,0.0
912,76.0,12.0,15.0,5.0,0.0
913,82.0,0.0,20.0,0.0,0.0
914,65.0,0.0,20.0,1.0,0.0
915,61.0,1.0,20.0,2.0,0.0
916,77.0,11.0,15.0,5.0,0.0
917,82.0,12.0,15.0,5.0,0.0
918,84.0,11.0,15.0,5.0,0.0
919,49.0,1.0,20.0,6.0,0.0
920,85.0,12.0,15.0,5.0,0.0
921,79.0,11.0,15.0,5.0,0.0
922,61.0,1.0,20.0,6.0,0.0
923,80.0,23.0,15.0,5.0,0.0
924,84.0,0.0,20.0,0.0,0.0
925,67.0,0.0,20.0,1.0,0.0
926,60.0,1.0,20.0,2.0,0.0
927,77.0,10.0,20.0,5.0,0.0
928,48.0,2.0,15.0,6.0,0.0
929,76.0,10.0,90.0,5.0,0.0
930,52.0,12.0,15.0,6.0,0.0
931,55.0,12.0,15.0,6.0,0.0
932,60.0,12.0,15.0,6.0,0.0
933,59.0,23.0,15.0,6.0,0.0
934,82.0,0.0,20.0,0.0,0.0
935,76.0,0.0,20.0,1.0,0.0
936,72.0,0.0,20.0,2.0,0.0
937,60.0,13.0,20.0,6.0,0.0
938,55.0,2.0,15.0,6.0,0.0
939,52.0,23.0,15.0,6.0,0.0
940,48.0,24.0,20.0,6.0,0.0
941,80.0,0.0,20.0,0.0,0.0
942,77.0,0.0,20.0,1.0,0.0
943,65.0,10.0,20.0,2.0,0.0
944,72.0,14.0,30.0,5.0,0.0
945,53.0,1.0,20.0,6.0,0.0
946,73.0,23.0,15.0,5.0,0.0
947,72.0,0.0,20.0,5.0,0.0
948,65.0,24.0,20.0,6.0,0.0
949,84.0,0.0,20.0,0.0,0.0
950,79.0,0.0,20.0,1.0,0.0
951,63.0,10.0,20.0,2.0,0.0
952,72.0,14.0,30.0,5.0,0.0
953,51.0,1.0,20.0,6.0,0.0
954,80.0,23.0,15.0,5.0,0.0
955,79.0,0.0,20.0,5.0,0.0
956,63.0,24.0,20.0,6.0,0.0
957,82.0,0.0,20.0,0.0,0.0
958,70.0,0.0,20.0,1.0,0.0
959,61.0,10.0,20.0,2.0,0.0
960,77.0,14.0,30.0,5.0,0.0
961,49.0,1.0,20.0,6.0,0.0
962,76.0,23.0,15.0,5.0,0.0
963,77.0,0.0,20.0,5.0,0.0
964,61.0,24.0,20.0,6.0,0.0
965,80.0,0.0,20.0,0.0,0.0
966,72.0,0.0,20.0,1.0,0.0
967,60.0,24.0,20.0,2.0,0.0
968,77.0,12.0,60.0,5.0,0.0
969,48.0,2.0,20.0,6.0,0.0
970,60.0,2.0,20.0,6.0,0.0
971,79.0,6.0,15.0,5.0,0.0
972,77.0,4.0,15.0,5.0,0.0
973,76.0,17.0,15.0,5.0,0.0
974,79.0,0.0,20.0,0.0,0.0
975,73.0,0.0,20.0,1.0,0.0
976,58.0,3.0,20.0,2.0,0.0
977,77.0,5.0,15.0,5.0,0.0
978,85.0,16.0,15.0,5.0,0.0
979,84.0,5.0,15.0,5.0,0.0
980,46.0,3.0,20.0,6.0,0.0
981,79.0,16.0,15.0,5.0,0.0
982,80.0,5.0,15.0,5.0,0.0
983,58.0,2.0,20.0,6.0,0.0
984,77.0,22.0,15.0,5.0,0.0
985,76.0,0.0,20.0,0.0,0.0
986,72.0,0.0,20.0,1.0,0.0
987,60.0,10.0,20.0,2.0,0.0
988,70.0,14.0,30.0,5.0,0.0
989,48.0,1.0,20.0,6.0,0.0
990,73.0,23.0,15.0,5.0,0.0
991,72.0,0.0,20.0,5.0,0.0
992,60.0,24.0,20.0,6.0,0.0
993,77.0,0.0,20.0,0.0,0.0
994,72.0,0.0,20.0,1.0,0.0
995,53.0,10.0,20.0,2.0,0.0
996,68.0,14.0,30.0,5.0,0.0
997,41.0,1.0,20.0,6.0,0.0
998,67.0,23.0,15.0,5.0,0.0
999,65.0,0.0,20.0,5.0,0.0
1000,53.0,24.0,20.0,6.0,0.0
1001,76.0,0.0,20.0,0.0,0.0
1002,70.0,0.0,20.0,1.0,0.0
1003,55.0,10.0,20.0,2.0,0.0
1004,72.0,14.0,30.0,5.0,0.0
1005,43.0,1.0,20.0,6.0,0.0
1006,65.0,12.0,15.0,5.0,0.0
1007,64.0,11.0,15.0,5.0,0.0
1008,55.0,1.0,20.0,6.0,0.0
1009,67.0,14.0,15.0,5.0,0.0
1010,77.0,0.0,20.0,0.0,0.0
1011,68.0,0.0,20.0,1.0,0.0
1012,56.0,12.0,20.0,2.0,0.0
1013,67.0,9.0,15.0,5.0,0.0
1014,72.0,12.0,20.0,5.0,0.0
1015,44.0,1.0,20.0,6.0,0.0
1016,73.0,23.0,15.0,5.0,0.0
1017,72.0,0.0,20.0,5.0,0.0
1018,56.0,24.0,20.0,6.0,0.0
1019,76.0,0.0,20.0,0.0,0.0
1020,70.0,0.0,20.0,1.0,0.0
1021,55.0,10.0,20.0,2.0,0.0
1022,72.0,14.0,30.0,5.0,0.0
1023,43.0,1.0,20.0,6.0,0.0
1024,74.0,23.0,15.0,5.0,0.0
1025,76.0,0.0,20.0,5.0,0.0
1026,55.0,24.0,20.0,6.0,0.0
1027,84.0,0.0,20.0,0.0,0.0
1028,65.0,0.0,20.0,1.0,0.0
1029,56.0,10.0,20.0,2.0,0.0
1030,77.0,10.0,30.0,5.0,0.0
1031,44.0,2.0,20.0,6.0,0.0
1032,75.0,4.0,15.0,5.0,0.0
1033,74.0,6.0,15.0,5.0,0.0
1034,75.0,6.0,15.0,5.0,0.0
1035,56.0,1.0,20.0,6.0,0.0
1036,74.0,10.0,15.0,5.0,0.0
1037,72.0,23.0,15.0,5.0,0.0
1038,78.0,0.0,20.0,0.0,0.0
1039,69.0,0.0,20.0,1.0,0.0
1040,60.0,10.0,20.0,2.0,0.0
1041,74.0,14.0,30.0,5.0,0.0
1042,48.0,1.0,20.0,6.0,0.0
1043,67.0,12.0,15.0,5.0,0.0
1044,66.0,11.0,15.0,5.0,0.0
1045,60.0,1.0,20.0,6.0,0.0
1046,69.0,14.0,15.0,5.0,0.0
1047,79.0,0.0,20.0,0.0,0.0
1048,74.0,0.0,20.0,1.0,0.0
1049,59.0,12.0,20.0,2.0,0.0
1050,69.0,9.0,15.0,5.0,0.0
1051,74.0,12.0,20.0,5.0,0.0
1052,47.0,1.0,20.0,6.0,0.0
1053,75.0,23.0,15.0,5.0,0.0
1054,74.0,0.0,20.0,5.0,0.0
1055,59.0,24.0,20.0,6.0,0.0
1056,78.0,0.0,20.0,0.0,0.0
1057,72.0,0.0,20.0,1.0,0.0
1058,57.0,10.0,20.0,2.0,0.0
1059,74.0,14.0,30.0,5.0,0.0
1060,45.0,1.0,20.0,6.0,0.0
1061,76.0,23.0,15.0,5.0,0.0
1062,78.0,0.0,20.0,5.0,0.0
1063,57.0,24.0,20.0,6.0,0.0
1064,85.0,0.0,20.0,0.0,0.0
1065,70.0,0.0,20.0,1.0,0.0
1066,58.0,10.0,20.0,2.0,0.0
1067,79.0,10.0,30.0,5.0,0.0
1068,46.0,2.0,20.0,6.0,0.0
1069,77.0,4.0,15.0,5.0,0.0
1070,76.0,6.0,15.0,5.0,0.0
1071,77.0,6.0,15.0,5.0,0.0
1072,58.0,1.0,20.0,6.0,0.0
1073,76.0,10.0,15.0,5.0,0.0
1074,74.0,23.0,15.0,5.0,0.0
1075,82.0,0.0,20.0,0.0,0.0
1076,79.0,0.0,20.0,1.0,0.0
1077,61.0,10.0,20.0,2.0,0.0
1078,76.0,14.0,30.0,5.0,0.0
1079,49.0,1.0,20.0,6.0,0.0
1080,68.0,12.0,15.0,5.0,0.0
1081,67.0,11.0,15.0,5.0,0.0
1082,61.0,1.0,20.0,6.0,0.0
1083,70.0,23.0,15.0,5.0,0.0
1084,84.0,0.0,20.0,0.0,0.0
1085,79.0,0.0,20.0,1.0,0.0
1086,60.0,10.0,20.0,2.0,0.0
1087,76.0,14.0,30.0,5.0,0.0
1088,48.0,1.0,20.0,6.0,0.0
1089,77.0,23.0,15.0,5.0,0.0
1090,76.0,0.0,20.0,5.0,0.0
1091,60.0,24.0,20.0,6.0,0.0
1092,82.0,0.0,20.0,0.0,0.0
1093,79.0,0.0,20.0,1.0,0.0
1094,60.0,10.0,20.0,2.0,0.0
1095,76.0,14.0,30.0,5.0,0.0
1096,55.0,1.0,20.0,6.0,0.0
1097,77.0,23.0,15.0,5.0,0.0
1098,79.0,0.0,20.0,5.0,0.0
1099,48.0,24.0,20.0,6.0,0.0
1100,80.0,0.0,20.0,0.0,0.0
1101,72.0,0.0,20.0,1.0,0.0
1102,65.0,3.0,20.0,2.0,0.0
1103,79.0,21.0,20.0,5.0,0.0
1104,80.0,0.0,20.0,5.0,0.0
1105,53.0,24.0,20.0,6.0,0.0
1106,79.0,0.0,20.0,5.0,0.0
1107,55.0,24.0,20.0,6.0,0.0
1108,80.0,0.0,20.0,0.0,0.0
1109,73.0,0.0,20.0,1.0,0.0
1110,65.0,3.0,20.0,2.0,0.0
1111,79.0,21.0,20.0,5.0,0.0
1112,77.0,0.0,20.0,5.0,0.0
1113,56.0,24.0,20.0,6.0,0.0
1114,75.0,0.0,20.0,5.0,0.0
1115,55.0,15.0,20.0,6.0,0.0
1116,80.0,0.0,20.0,0.0,0.0
1117,77.0,0.0,20.0,1.0,0.0
1118,65.0,12.0,20.0,2.0,0.0
1119,75.0,9.0,15.0,5.0,0.0
1120,74.0,12.0,20.0,5.0,0.0
1121,53.0,1.0,20.0,6.0,0.0
1122,71.0,23.0,15.0,5.0,0.0
1123,72.0,0.0,20.0,5.0,0.0
1124,65.0,24.0,20.0,6.0,0.0
1125,77.0,0.0,20.0,0.0,0.0
1126,74.0,0.0,20.0,1.0,0.0
1127,65.0,10.0,20.0,2.0,0.0
1128,80.0,14.0,30.0,5.0,0.0
1129,59.0,1.0,20.0,6.0,0.0
1130,77.0,23.0,15.0,5.0,0.0
1131,79.0,0.0,20.0,5.0,0.0
1132,62.0,24.0,20.0,6.0,0.0
1133,74.0,0.0,20.0,0.0,0.0
1134,67.0,0.0,20.0,1.0,0.0
1135,65.0,3.0,20.0,2.0,0.0
1136,84.0,21.0,20.0,5.0,0.0
1137,83.0,0.0,20.0,5.0,0.0
1138,53.0,24.0,20.0,6.0,0.0
1139,84.0,0.0,20.0,5.0,0.0
1140,56.0,6.0,20.0,6.0,0.0
1141,83.0,0.0,20.0,0.0,0.0
1142,79.0,0.0,20.0,1.0,0.0
1143,67.0,0.0,20.0,2.0,0.0
1144,77.0,3.0,15.0,5.0,0.0
1145,75.0,3.0,15.0,5.0,0.0
1146,77.0,3.0,15.0,5.0,0.0
1147,75.0,3.0,15.0,5.0,0.0
1148,77.0,3.0,15.0,5.0,0.0
1149,75.0,3.0,15.0,5.0,0.0
1150,77.0,3.0,15.0,5.0,0.0
1151,75.0,3.0,15.0,5.0,0.0
1152,77.0,8.0,15.0,5.0,0.0
1153,55.0,1.0,20.0,6.0,0.0
1154,75.0,10.0,15.0,5.0,0.0
1155,74.0,23.0,15.0,5.0,0.0
1156,72.0,0.0,20.0,5.0,0.0
1157,67.0,9.0,20.0,6.0,0.0
1158,82.0,0.0,20.0,0.0,0.0
1159,67.0,0.0,20.0,1.0,0.0
1160,64.0,12.0,20.0,2.0,0.0
1161,72.0,6.0,15.0,5.0,0.0
1162,75.0,9.0,15.0,5.0,0.0
1163,73.0,12.0,20.0,5.0,0.0
1164,52.0,1.0,20.0,6.0,0.0
1165,72.0,23.0,15.0,5.0,0.0
1166,73.0,0.0,20.0,5.0,0.0
1167,64.0,24.0,20.0,6.0,0.0
1168,76.0,0.0,20.0,0.0,0.0
1169,72.0,0.0,20.0,1.0,0.0
1170,60.0,5.0,20.0,2.0,0.0
1171,82.0,9.0,30.0,5.0,0.0
1172,48.0,2.0,20.0,6.0,0.0
1173,77.0,6.0,15.0,5.0,0.0
1174,76.0,4.0,15.0,5.0,0.0
1175,74.0,11.0,15.0,5.0,0.0
1176,76.0,11.0,15.0,5.0,0.0
1177,60.0,1.0,20.0,6.0,0.0
1178,79.0,12.0,15.0,5.0,0.0
1179,77.0,0.0,20.0,0.0,0.0
1180,72.0,0.0,20.0,1.0,0.0
1181,65.0,1.0,20.0,2.0,0.0
1182,82.0,11.0,15.0,5.0,0.0
1183,73.0,12.0,15.0,5.0,0.0
1184,72.0,11.0,15.0,5.0,0.0
1185,53.0,1.0,20.0,6.0,0.0
1186,70.0,12.0,15.0,5.0,0.0
1187,72.0,11.0,15.0,5.0,0.0
1188,65.0,1.0,20.0,6.0,0.0
1189,77.0,23.0,15.0,5.0,0.0
1190,77.0,0.0,20.0,0.0,0.0
1191,70.0,0.0,20.0,1.0,0.0
1192,62.0,10.0,20.0,2.0,0.0
1193,80.0,14.0,30.0,5.0,0.0
1194,50.0,7.0,20.0,6.0,0.0
1195,80.0,7.0,15.0,5.0,0.0
1196,62.0,2.0,20.0,6.0,0.0
1197,82.0,6.0,15.0,5.0,0.0
1198,80.0,4.0,15.0,5.0,0.0
1199,79.0,11.0,15.0,5.0,0.0
1200,75.0,0.0,20.0,0.0,0.0
1201,70.0,0.0,20.0,1.0,0.0
1202,63.0,1.0,20.0,2.0,0.0
1203,80.0,11.0,15.0,5.0,0.0
1204,68.0,12.0,15.0,5.0,0.0
1205,70.0,11.0,15.0,5.0,0.0
1206,51.0,1.0,20.0,6.0,0.0
1207,75.0,12.0,15.0,5.0,0.0
1208,78.0,11.0,15.0,5.0,0.0
1209,63.0,1.0,20.0,6.0,0.0
1210,77.0,23.0,15.0,5.0,0.0
1211,75.0,0.0,20.0,0.0,0.0
1212,68.0,0.0,20.0,1.0,0.0
1213,60.0,10.0,20.0,2.0,0.0
1214,78.0,14.0,30.0,5.0,0.0
1215,48.0,7.0,20.0,6.0,0.0
1216,78.0,7.0,15.0,5.0,0.0
1217,60.0,2.0,20.0,6.0,0.0
1218,80.0,6.0,15.0,5.0,0.0
1219,78.0,4.0,15.0,5.0,0.0
1220,77.0,13.0,15.0,5.0,0.0
1221,73.0,0.0,20.0,0.0,0.0
1222,68.0,0.0,20.0,1.0,0.0
1223,61.0,1.0,20.0,2.0,0.0
1224,78.0,9.0,15.0,5.0,0.0
1225,76.0,14.0,15.0,5.0,0.0
1226,76.0,9.0,15.0,5.0,0.0
1227,49.0,1.0,20.0,6.0,0.0
1228,77.0,14.0,15.0,5.0,0.0
1229,77.0,9.0,15.0,5.0,0.0
1230,61.0,1.0,20.0,6.0,0.0
1231,86.0,23.0,15.0,5.0,0.0
1232,77.0,0.0,20.0,0.0,0.0
1233,71.0,0.0,20.0,1.0,0.0
1234,55.0,5.0,20.0,2.0,0.0
1235,86.0,9.0,30.0,5.0,0.0
1236,43.0,2.0,20.0,6.0,0.0
1237,84.0,6.0,15.0,5.0,0.0
1238,83.0,4.0,15.0,5.0,0.0
1239,81.0,6.0,15.0,5.0,0.0
1240,83.0,6.0,15.0,5.0,0.0
1241,55.0,2.0,20.0,6.0,0.0
1242,80.0,6.0,15.0,5.0,0.0
1243,77.0,4.0,15.0,5.0,0.0
1244,74.0,22.0,15.0,5.0,0.0
1245,76.0,0.0,20.0,0.0,0.0
1246,72.0,0.0,20.0,1.0,0.0
1247,60.0,10.0,20.0,2.0,0.0
1248,70.0,10.0,30.0,5.0,0.0
1249,48.0,2.0,20.0,6.0,0.0
1250,72.0,4.0,15.0,5.0,0.0
1251,73.0,22.0,15.0,5.0,0.0
1252,72.0,0.0,20.0,5.0,0.0
1253,60.0,15.0,20.0,6.0,0.0
1254,84.0,0.0,20.0,0.0,0.0
1255,76.0,0.0,20.0,1.0,0.0
1256,60.0,1.0,20.0,2.0,0.0
1257,82.0,9.0,15.0,5.0,0.0
1258,80.0,14.0,15.0,5.0,0.0
1259,79.0,9.0,15.0,5.0,0.0
1260,58.0,3.0,20.0,6.0,0.0
1261,77.0,12.0,15.0,5.0,0.0
1262,76.0,9.0,15.0,5.0,0.0
1263,60.0,1.0,20.0,6.0,0.0
1264,77.0,23.0,15.0,5.0,0.0
1265,84.0,0.0,20.0,0.0,0.0
1266,77.0,0.0,20.0,1.0,0.0
1267,61.0,5.0,20.0,2.0,0.0
1268,77.0,9.0,30.0,5.0,0.0
1269,49.0,2.0,20.0,6.0,0.0
1270,80.0,6.0,15.0,5.0,0.0
1271,79.0,4.0,15.0,5.0,0.0
1272,77.0,11.0,15.0,5.0,0.0
1273,79.0,11.0,15.0,5.0,0.0
1274,61.0,1.0,20.0,6.0,0.0
1275,76.0,20.0,15.0,5.0,0.0
1276,82.0,0.0,20.0,0.0,0.0
1277,73.0,0.0,20.0,1.0,0.0
1278,61.0,3.0,20.0,2.0,0.0
1279,77.0,3.0,20.0,5.0,0.0
1280,73.0,18.0,15.0,5.0,0.0
1281,75.0,3.0,20.0,5.0,0.0
1282,60.0,3.0,20.0,6.0,0.0
1283,72.0,18.0,15.0,5.0,0.0
1284,69.0,3.0,20.0,5.0,0.0
1285,61.0,2.0,20.0,6.0,0.0
1286,70.0,13.0,15.0,5.0,0.0
1287,82.0,0.0,20.0,0.0,0.0
1288,78.0,0.0,20.0,1.0,0.0
1289,60.0,12.0,20.0,2.0,0.0
1290,70.0,9.0,15.0,5.0,0.0
1291,75.0,12.0,20.0,5.0,0.0
1292,48.0,1.0,20.0,6.0,0.0
1293,77.0,23.0,15.0,5.0,0.0
1294,78.0,0.0,20.0,5.0,0.0
1295,60.0,15.0,20.0,6.0,0.0
1296,81.0,0.0,20.0,0.0,0.0
1297,72.0,0.0,20.0,1.0,0.0
1298,65.0,12.0,20.0,2.0,0.0
1299,80.0,9.0,15.0,5.0,0.0
1300,78.0,12.0,20.0,5.0,0.0
1301,53.0,1.0,20.0,6.0,0.0
1302,77.0,23.0,15.0,5.0,0.0
1303,75.0,0.0,20.0,5.0,0.0
1304,65.0,15.0,20.0,6.0,0.0
1305,82.0,0.0,20.0,0.0,0.0
1306,73.0,0.0,20.0,1.0,0.0
1307,58.0,9.0,20.0,2.0,0.0
1308,75.0,9.0,15.0,5.0,0.0
1309,73.0,6.0,20.0,5.0,0.0
1310,46.0,3.0,20.0,6.0,0.0
1311,72.0,6.0,15.0,5.0,0.0
1312,73.0,3.0,15.0,5.0,0.0
1313,75.0,12.0,15.0,5.0,0.0
1314,73.0,9.0,15.0,5.0,0.0
1315,48.0,3.0,20.0,6.0,0.0
1316,72.0,21.0,15.0,5.0,0.0
1317,79.0,0.0,20.0,0.0,0.0
1318,77.0,0.0,20.0,1.0,0.0
1319,61.0,15.0,20.0,2.0,0.0
1320,70.0,9.0,30.0,5.0,0.0
1321,49.0,3.0,20.0,6.0,0.0
1322,65.0,18.0,15.0,5.0,0.0
1323,64.0,3.0,20.0,5.0,0.0
1324,46.0,3.0,20.0,6.0,0.0
1325,67.0,12.0,15.0,5.0,0.0
1326,79.0,0.0,20.0,0.0,0.0
1327,76.0,0.0,20.0,1.0,0.0
1328,60.0,3.0,20.0,2.0,0.0
1329,70.0,9.0,15.0,5.0,0.0
1330,67.0,12.0,15.0,5.0,0.0
1331,68.0,9.0,15.0,5.0,0.0
1332,48.0,3.0,20.0,6.0,0.0
1333,73.0,12.0,15.0,5.0,0.0
1334,72.0,9.0,15.0,5.0,0.0
1335,60.0,1.0,20.0,6.0,0.0
1336,77.0,14.0,15.0,5.0,0.0
1337,82.0,0.0,20.0,0.0,0.0
1338,79.0,0.0,20.0,1.0,0.0
1339,60.0,3.0,20.0,2.0,0.0
1340,76.0,9.0,15.0,5.0,0.0
1341,79.0,12.0,15.0,5.0,0.0
1342,82.0,9.0,15.0,5.0,0.0
1343,52.0,3.0,20.0,6.0,0.0
1344,85.0,12.0,15.0,5.0,0.0
1345,84.0,9.0,15.0,5.0,0.0
1346,55.0,1.0,20.0,6.0,0.0
1347,82.0,8.0,15.0,5.0,0.0
1348,80.0,0.0,20.0,0.0,0.0
1349,77.0,0.0,20.0,1.0,0.0
1350,60.0,3.0,20.0,2.0,0.0
1351,80.0,6.0,15.0,5.0,0.0
1352,79.0,9.0,15.0,5.0,0.0
1353,77.0,12.0,15.0,5.0,0.0
1354,76.0,9.0,15.0,5.0,0.0
1355,48.0,3.0,20.0,6.0,0.0
1356,77.0,12.0,15.0,5.0,0.0
1357,79.0,9.0,15.0,5.0,0.0
1358,60.0,1.0,20.0,6.0,0.0
1359,70.0,14.0,15.0,5.0,0.0
1360,77.0,0.0,20.0,0.0,0.0
1361,72.0,0.0,20.0,1.0,0.0
1362,60.0,3.0,20.0,2.0,0.0
1363,68.0,9.0,15.0,5.0,0.0
1364,72.0,12.0,15.0,5.0,0.0
1365,76.0,9.0,15.0,5.0,0.0
1366,56.0,3.0,20.0,6.0,0.0
1367,77.0,12.0,15.0,5.0,0.0
1368,73.0,9.0,15.0,5.0,0.0
1369,53.0,1.0,20.0,6.0,0.0
1370,72.0,14.0,15.0,5.0,0.0
1371,77.0,0.0,20.0,0.0,0.0
1372,68.0,0.0,20.0,1.0,0.0
1373,62.0,3.0,20.0,2.0,0.0
1374,71.0,9.0,15.0,5.0,0.0
1375,80.0,12.0,15.0,5.0,0.0
1376,79.0,9.0,15.0,5.0,0.0
1377,50.0,3.0,20.0,6.0,0.0
1378,77.0,12.0,15.0,5.0,0.0
1379,76.0,9.0,15.0,5.0,0.0
1380,62.0,1.0,20.0,6.0,0.0
1381,77.0,14.0,15.0,5.0,0.0
1382,77.0,0.0,20.0,0.0,0.0
1383,67.0,0.0,20.0,1.0,0.0
1384,55.0,3.0,20.0,2.0,0.0
1385,85.0,9.0,15.0,5.0,0.0
1386,84.0,12.0,15.0,5.0,0.0
1387,83.0,9.0,15.0,5.0,0.0
1388,55.0,3.0,20.0,6.0,0.0
1389,84.0,12.0,15.0,5.0,0.0
1390,81.0,9.0,15.0,5.0,0.0
1391,61.0,1.0,20.0,6.0,0.0
1392,82.0,14.0,15.0,5.0,0.0
1393,76.0,0.0,20.0,0.0,0.0
1394,67.0,0.0,20.0,1.0,0.0
1395,60.0,3.0,20.0,2.0,0.0
1396,79.0,9.0,15.0,5.0,0.0
1397,80.0,12.0,15.0,5.0,0.0
1398,77.0,9.0,15.0,5.0,0.0
1399,60.0,3.0,20.0,6.0,0.0
1400,78.0,12.0,15.0,5.0,0.0
1401,76.0,9.0,15.0,5.0,0.0
1402,59.0,1.0,20.0,6.0,0.0
1403,77.0,12.0,15.0,5.0,0.0
1404,79.0,0.0,20.0,0.0,0.0
1405,76.0,0.0,20.0,1.0,0.0
1406,60.0,1.0,20.0,2.0,0.0
1407,71.0,11.0,15.0,5.0,0.0
1408,72.0,12.0,15.0,5.0,0.0
1409,80.0,11.0,15.0,5.0,0.0
1410,60.0,1.0,20.0,6.0,0.0
1411,79.0,12.0,15.0,5.0,0.0
1412,77.0,11.0,15.0,5.0,0.0
1413,48.0,1.0,20.0,6.0,0.0
1414,76.0,14.0,15.0,5.0,0.0
1415,80.0,0.0,30.0,0.0,0.0
1416,77.0,0.0,30.0,1.0,0.0
1417,72.0,0.0,30.0,2.0,0.0
1418,77.0,12.0,15.0,5.0,0.0
1419,53.0,3.0,30.0,6.0,0.0
1420,80.0,12.0,15.0,5.0,0.0
1421,53.0,0.0,20.0,3.0,0.0
1422,41.0,1.0,20.0,4.0,0.0
1423,77.0,6.0,15.0,5.0,0.0
1424,79.0,0.0,15.0,0.0,0.0
1425,70.0,2.0,15.0,2.0,0.0
1426,76.0,12.0,15.0,5.0,0.0
1427,77.0,0.0,20.0,0.0,0.0
1428,72.0,0.0,20.0,1.0,0.0
1429,68.0,0.0,20.0,2.0,0.0
1430,65.0,0.0,20.0,3.0,0.0
1431,53.0,1.0,20.0,4.0,0.0
1432,77.0,9.0,15.0,5.0,0.0
1433,72.0,12.0,15.0,5.0,0.0
1434,77.0,0.0,30.0,0.0,0.0
1435,72.0,0.0,30.0,1.0,0.0
1436,68.0,6.0,30.0,2.0,0.0
1437,68.0,12.0,15.0,5.0,0.0
1438,53.0,3.0,30.0,6.0,0.0
1439,72.0,12.0,15.0,5.0,0.0
1440,53.0,0.0,20.0,3.0,0.0
1441,41.0,1.0,20.0,4.0,0.0
1442,77.0,2.0,15.0,5.0,0.0
1443,79.0,0.0,15.0,0.0,0.0
1444,70.0,0.0,15.0,2.0,0.0
1445,76.0,12.0,15.0,5.0,0.0
1446,80.0,0.0,20.0,0.0,0.0
1447,65.0,0.0,20.0,1.0,0.0
1448,72.0,0.0,20.0,2.0,0.0
1449,65.0,0.0,20.0,3.0,0.0
1450,53.0,1.0,20.0,4.0,0.0
1451,77.0,11.0,15.0,5.0,0.0
1452,72.0,12.0,15.0,5.0,0.0
1453,73.0,6.0,60.0,0.0,0.0
1454,67.0,0.0,30.0,1.0,0.0
1455,70.0,6.0,30.0,2.0,0.0
1456,70.0,12.0,15.0,5.0,0.0
1457,53.0,3.0,30.0,6.0,0.0
1458,73.0,12.0,15.0,5.0,0.0
1459,53.0,0.0,20.0,3.0,0.0
1460,41.0,1.0,20.0,4.0,0.0
1461,79.0,2.0,15.0,5.0,0.0
1462,68.0,0.0,15.0,1.0,0.0
1463,72.0,0.0,15.0,2.0,0.0
1464,77.0,12.0,15.0,5.0,0.0
1465,70.0,0.0,20.0,1.0,0.0
1466,73.0,0.0,20.0,2.0,0.0
1467,65.0,0.0,20.0,3.0,0.0
1468,53.0,1.0,20.0,4.0,0.0
1469,79.0,5.0,15.0,5.0,0.0
1470,73.0,12.0,15.0,5.0,0.0
1471,82.0,10.0,90.0,0.0,0.0
1472,70.0,0.0,30.0,1.0,0.0
1473,67.0,6.0,30.0,2.0,0.0
1474,70.0,12.0,15.0,5.0,0.0
1475,53.0,3.0,30.0,6.0,0.0
1476,73.0,12.0,15.0,5.0,0.0
1477,53.0,0.0,20.0,3.0,0.0
1478,41.0,1.0,20.0,4.0,0.0
1479,79.0,2.0,15.0,5.0,0.0
1480,72.0,0.0,15.0,1.0,0.0
1481,68.0,0.0,15.0,2.0,0.0
1482,77.0,12.0,15.0,5.0,0.0
1483,73.0,0.0,20.0,1.0,0.0
1484,70.0,0.0,20.0,2.0,0.0
1485,65.0,0.0,20.0,3.0,0.0
1486,53.0,1.0,20.0,4.0,0.0
1487,76.0,11.0,15.0,5.0,0.0
1488,77.0,12.0,15.0,5.0,0.0
1489,73.0,0.0,30.0,1.0,0.0
1490,64.0,6.0,30.0,2.0,0.0
1491,76.0,12.0,15.0,5.0,0.0
1492,53.0,3.0,30.0,6.0,0.0
1493,79.0,2.0,15.0,5.0,0.0
1494,53.0,0.0,20.0,3.0,0.0
1495,41.0,1.0,20.0,4.0,0.0
1496,82.0,2.0,15.0,5.0,0.0
1497,84.0,0.0,15.0,0.0,0.0
1498,72.0,0.0,15.0,1.0,0.0
1499,65.0,0.0,15.0,2.0,0.0
1500,80.0,12.0,15.0,5.0,0.0
1501,85.0,0.0,20.0,0.0,0.0
1502,70.0,0.0,20.0,1.0,0.0
1503,67.0,0.0,20.0,2.0,0.0
1504,65.0,0.0,20.0,3.0,0.0
1505,53.0,1.0,20.0,4.0,0.0
1506,82.0,11.0,15.0,5.0,0.0
1507,79.0,12.0,15.0,5.0,0.0
1508,85.0,0.0,30.0,0.0,0.0
1509,76.0,0.0,30.0,1.0,0.0
1510,67.0,6.0,30.0,2.0,0.0
1511,76.0,12.0,15.0,5.0,0.0
1512,53.0,3.0,30.0,6.0,0.0
1513,79.0,12.0,15.0,5.0,0.0
1514,53.0,0.0,20.0,3.0,0.0
1515,41.0,1.0,20.0,4.0,0.0
1516,82.0,2.0,15.0,5.0,0.0
1517,84.0,0.0,15.0,0.0,0.0
1518,77.0,0.0,15.0,1.0,0.0
1519,65.0,0.0,15.0,2.0,0.0
1520,80.0,12.0,15.0,5.0,0.0
1521,82.0,0.0,20.0,0.0,0.0
1522,79.0,0.0,20.0,1.0,0.0
1523,64.0,0.0,20.0,2.0,0.0
1524,65.0,0.0,20.0,3.0,0.0
1525,53.0,1.0,20.0,4.0,0.0
1526,82.0,11.0,15.0,5.0,0.0
1527,79.0,12.0,15.0,5.0,0.0
1528,82.0,10.0,20.0,0.0,0.0
1529,77.0,0.0,30.0,1.0,0.0
1530,72.0,0.0,30.0,2.0,0.0
1531,72.0,12.0,15.0,5.0,0.0
1532,53.0,3.0,30.0,6.0,0.0
1533,77.0,2.0,15.0,5.0,0.0
1534,80.0,0.0,20.0,0.0,0.0
1535,53.0,0.0,20.0,3.0,0.0
1536,41.0,1.0,20.0,4.0,0.0
1537,80.0,8.0,15.0,5.0,0.0
1538,77.0,12.0,15.0,5.0,0.0
1539,79.0,0.0,20.0,0.0,0.0
1540,76.0,0.0,20.0,1.0,0.0
1541,70.0,0.0,20.0,2.0,0.0
1542,65.0,0.0,20.0,3.0,0.0
1543,53.0,1.0,20.0,4.0,0.0
1544,79.0,11.0,15.0,5.0,0.0
1545,76.0,12.0,15.0,5.0,0.0
1546,77.0,10.0,90.0,0.0,0.0
1547,72.0,0.0,30.0,1.0,0.0
1548,68.0,6.0,30.0,2.0,0.0
1549,77.0,12.0,15.0,5.0,0.0
1550,53.0,3.0,30.0,6.0,0.0
1551,80.0,12.0,15.0,5.0,0.0
1552,53.0,0.0,20.0,3.0,0.0
1553,41.0,1.0,20.0,4.0,0.0
1554,77.0,2.0,15.0,5.0,0.0
1555,68.0,0.0,15.0,1.0,0.0
1556,65.0,0.0,15.0,2.0,0.0
1557,72.0,12.0,15.0,5.0,0.0
1558,70.0,0.0,20.0,1.0,0.0
1559,67.0,0.0,20.0,2.0,0.0
1560,65.0,0.0,20.0,3.0,0.0
1561,53.0,1.0,20.0,4.0,0.0
1562,70.0,11.0,15.0,5.0,0.0
1563,72.0,12.0,15.0,5.0,0.0
1564,72.0,0.0,30.0,1.0,0.0
1565,69.0,6.0,30.0,2.0,0.0
1566,69.0,12.0,15.0,5.0,0.0
1567,51.0,3.0,30.0,6.0,0.0
1568,72.0,2.0,15.0,5.0,0.0
1569,51.0,0.0,20.0,3.0,0.0
1570,39.0,1.0,20.0,4.0,0.0
1571,77.0,2.0,15.0,5.0,0.0
1572,78.0,0.0,15.0,0.0,0.0
1573,73.0,0.0,15.0,1.0,0.0
1574,70.0,0.0,15.0,2.0,0.0
1575,73.0,12.0,15.0,5.0,0.0
1576,77.0,0.0,20.0,0.0,0.0
1577,72.0,0.0,20.0,1.0,0.0
1578,69.0,0.0,20.0,2.0,0.0
1579,63.0,0.0,20.0,3.0,0.0
1580,51.0,1.0,20.0,4.0,0.0
1581,75.0,11.0,15.0,5.0,0.0
1582,72.0,12.0,15.0,5.0,0.0
1583,77.0,0.0,30.0,0.0,0.0
1584,72.0,0.0,30.0,1.0,0.0
1585,69.0,6.0,30.0,2.0,0.0
1586,69.0,12.0,15.0,5.0,0.0
1587,51.0,3.0,30.0,6.0,0.0
1588,72.0,12.0,15.0,5.0,0.0
1589,51.0,0.0,20.0,3.0,0.0
1590,39.0,1.0,20.0,4.0,0.0
1591,77.0,2.0,15.0,5.0,0.0
1592,79.0,0.0,15.0,0.0,0.0
1593,70.0,0.0,15.0,2.0,0.0
1594,73.0,12.0,15.0,5.0,0.0
1595,81.0,0.0,20.0,0.0,0.0
1596,77.0,0.0,20.0,1.0,0.0
1597,72.0,0.0,20.0,2.0,0.0
1598,63.0,0.0,20.0,3.0,0.0
1599,51.0,1.0,20.0,4.0,0.0
1600,75.0,11.0,15.0,5.0,0.0
1601,72.0,12.0,15.0,5.0,0.0
1602,81.0,10.0,20.0,0.0,0.0
1603,77.0,0.0,30.0,1.0,0.0
1604,73.0,0.0,30.0,2.0,0.0
1605,70.0,12.0,15.0,5.0,0.0
1606,49.0,3.0,30.0,6.0,0.0
1607,73.0,2.0,15.0,5.0,0.0
1608,82.0,0.0,20.0,0.0,0.0
1609,49.0,0.0,20.0,3.0,0.0
1610,37.0,1.0,20.0,4.0,0.0
1611,77.0,8.0,15.0,5.0,0.0
1612,76.0,12.0,15.0,5.0,0.0
1613,80.0,0.0,20.0,0.0,0.0
1614,77.0,0.0,20.0,1.0,0.0
1615,72.0,0.0,20.0,2.0,0.0
1616,61.0,0.0,20.0,3.0,0.0
1617,49.0,1.0,20.0,4.0,0.0
1618,77.0,11.0,15.0,5.0,0.0
1619,80.0,12.0,15.0,5.0,0.0
1620,80.0,7.0,20.0,0.0,0.0
1621,74.0,0.0,30.0,1.0,0.0
1622,71.0,3.0,30.0,2.0,0.0
1623,71.0,12.0,15.0,5.0,0.0
1624,53.0,3.0,30.0,6.0,0.0
1625,74.0,2.0,15.0,5.0,0.0
1626,79.0,9.0,60.0,0.0,0.0
1627,53.0,0.0,20.0,3.0,0.0
1628,41.0,1.0,20.0,4.0,0.0
1629,79.0,8.0,15.0,5.0,0.0
1630,72.0,0.0,15.0,1.0,0.0
1631,72.0,0.0,15.0,2.0,0.0
1632,75.0,12.0,15.0,5.0,0.0
1633,71.0,0.0,20.0,1.0,0.0
1634,74.0,0.0,20.0,2.0,0.0
1635,65.0,0.0,20.0,3.0,0.0
1636,53.0,1.0,20.0,4.0,0.0
1637,77.0,11.0,15.0,5.0,0.0
1638,74.0,12.0,15.0,5.0,0.0
1639,72.0,0.0,30.0,1.0,0.0
1640,67.0,0.0,30.0,2.0,0.0
1641,72.0,12.0,15.0,5.0,0.0
1642,52.0,3.0,30.0,6.0,0.0
1643,76.0,3.0,15.0,5.0,0.0
1644,52.0,0.0,20.0,3.0,0.0
1645,40.0,1.0,20.0,4.0,0.0
1646,79.0,8.0,15.0,5.0,0.0
1647,80.0,0.0,15.0,0.0,0.0
1648,77.0,12.0,15.0,5.0,0.0
1649,79.0,0.0,20.0,0.0,0.0
1650,79.0,0.0,20.0,1.0,0.0
1651,72.0,0.0,20.0,2.0,0.0
1652,64.0,0.0,20.0,3.0,0.0
1653,52.0,1.0,20.0,4.0,0.0
1654,79.0,11.0,15.0,5.0,0.0
1655,72.0,12.0,15.0,5.0,0.0
1656,79.0,6.0,30.0,0.0,0.0
1657,77.0,0.0,30.0,1.0,0.0
1658,71.0,0.0,30.0,2.0,0.0
1659,71.0,12.0,15.0,5.0,0.0
1660,50.0,3.0,30.0,6.0,0.0
1661,77.0,12.0,15.0,5.0,0.0
1662,50.0,0.0,20.0,3.0,0.0
1663,38.0,1.0,20.0,4.0,0.0
1664,79.0,2.0,15.0,5.0,0.0
1665,81.0,0.0,15.0,0.0,0.0
1666,75.0,12.0,15.0,5.0,0.0
1667,83.0,0.0,20.0,0.0,0.0
1668,80.0,0.0,20.0,1.0,0.0
1669,77.0,0.0,20.0,2.0,0.0
1670,62.0,0.0,20.0,3.0,0.0
1671,50.0,1.0,20.0,4.0,0.0
1672,77.0,11.0,15.0,5.0,0.0
1673,74.0,12.0,15.0,5.0,0.0
1674,83.0,10.0,20.0,0.0,0.0
1675,78.0,0.0,30.0,1.0,0.0
1676,75.0,0.0,30.0,2.0,0.0
1677,72.0,12.0,15.0,5.0,0.0
1678,51.0,3.0,30.0,6.0,0.0
1679,75.0,2.0,15.0,5.0,0.0
1680,84.0,0.0,20.0,0.0,0.0
1681,51.0,0.0,20.0,3.0,0.0
1682,39.0,1.0,20.0,4.0,0.0
1683,78.0,8.0,15.0,5.0,0.0
1684,77.0,12.0,15.0,5.0,0.0
1685,82.0,0.0,20.0,0.0,0.0
1686,78.0,0.0,20.0,1.0,0.0
1687,73.0,0.0,20.0,2.0,0.0
1688,63.0,0.0,20.0,3.0,0.0
1689,51.0,1.0,20.0,4.0,0.0
1690,78.0,11.0,15.0,5.0,0.0
1691,75.0,12.0,15.0,5.0,0.0
1692,82.0,10.0,20.0,0.0,0.0
1693,75.0,0.0,30.0,1.0,0.0
1694,72.0,6.0,30.0,2.0,0.0
1695,72.0,12.0,15.0,5.0,0.0
1696,54.0,3.0,30.0,6.0,0.0
1697,75.0,2.0,15.0,5.0,0.0
1698,81.0,6.0,60.0,0.0,0.0
1699,54.0,0.0,20.0,3.0,0.0
1700,42.0,1.0,20.0,4.0,0.0
1701,81.0,2.0,15.0,5.0,0.0
1702,73.0,0.0,15.0,1.0,0.0
1703,73.0,0.0,15.0,2.0,0.0
1704,79.0,12.0,15.0,5.0,0.0
1705,72.0,0.0,20.0,1.0,0.0
1706,75.0,0.0,20.0,2.0,0.0
1707,66.0,0.0,20.0,3.0,0.0
1708,54.0,1.0,20.0,4.0,0.0
1709,81.0,11.0,15.0,5.0,0.0
1710,75.0,12.0,15.0,5.0,0.0
1711,72.0,0.0,30.0,1.0,0.0
1712,75.0,3.0,30.0,2.0,0.0
1713,72.0,12.0,15.0,5.0,0.0
1714,53.0,3.0,30.0,6.0,0.0
1715,75.0,3.0,15.0,5.0,0.0
1716,53.0,0.0,20.0,3.0,0.0
1717,41.0,1.0,20.0,4.0,0.0
1718,81.0,8.0,15.0,5.0,0.0
1719,82.0,0.0,15.0,0.0,0.0
1720,73.0,0.0,15.0,1.0,0.0
1721,73.0,0.0,15.0,2.0,0.0
1722,79.0,12.0,15.0,5.0,0.0
1723,81.0,0.0,20.0,0.0,0.0
1724,75.0,0.0,20.0,1.0,0.0
1725,72.0,0.0,20.0,2.0,0.0
1726,65.0,0.0,20.0,3.0,0.0
1727,53.0,1.0,20.0,4.0,0.0
1728,81.0,11.0,15.0,5.0,0.0
1729,75.0,12.0,15.0,5.0,0.0
1730,81.0,0.0,30.0,0.0,0.0
1731,77.0,0.0,30.0,1.0,0.0
1732,72.0,3.0,30.0,2.0,0.0
1733,72.0,12.0,15.0,5.0,0.0
1734,53.0,3.0,30.0,6.0,0.0
1735,75.0,9.0,15.0,5.0,0.0
1736,53.0,0.0,20.0,3.0,0.0
1737,41.0,1.0,20.0,4.0,0.0
1738,81.0,8.0,15.0,5.0,0.0
1739,82.0,0.0,15.0,0.0,0.0
1740,79.0,0.0,15.0,1.0,0.0
1741,73.0,0.0,15.0,2.0,0.0
1742,79.0,12.0,15.0,5.0,0.0
1743,84.0,0.0,20.0,0.0,0.0
1744,81.0,0.0,20.0,1.0,0.0
1745,75.0,0.0,20.0,2.0,0.0
1746,65.0,0.0,20.0,3.0,0.0
1747,53.0,1.0,20.0,4.0,0.0
1748,81.0,11.0,15.0,5.0,0.0
1749,75.0,12.0,15.0,5.0,0.0
1750,84.0,10.0,20.0,0.0,0.0
1751,82.0,0.0,30.0,1.0,0.0
1752,77.0,0.0,30.0,2.0,0.0
1753,73.0,12.0,15.0,5.0,0.0
1754,46.0,3.0,30.0,6.0,0.0
1755,77.0,2.0,15.0,5.0,0.0
1756,85.0,0.0,20.0,0.0,0.0
1757,46.0,0.0,20.0,3.0,0.0
1758,34.0,1.0,20.0,4.0,0.0
1759,82.0,8.0,15.0,5.0,0.0
1760,77.0,12.0,15.0,5.0,0.0
1761,84.0,0.0,20.0,0.0,0.0
1762,81.0,0.0,20.0,1.0,0.0
1763,75.0,0.0,20.0,2.0,0.0
1764,58.0,0.0,20.0,3.0,0.0
1765,46.0,1.0,20.0,4.0,0.0
1766,78.0,11.0,15.0,5.0,0.0
1767,75.0,12.0,15.0,5.0,0.0
1768,84.0,10.0,20.0,0.0,0.0
1769,77.0,0.0,30.0,1.0,0.0
1770,73.0,0.0,30.0,2.0,0.0
1771,77.0,12.0,15.0,5.0,0.0
1772,46.0,3.0,30.0,6.0,0.0
1773,82.0,2.0,15.0,5.0,0.0
1774,82.0,0.0,20.0,0.0,0.0
1775,46.0,0.0,20.0,3.0,0.0
1776,34.0,1.0,20.0,4.0,0.0
1777,85.0,8.0,15.0,5.0,0.0
1778,82.0,12.0,15.0,5.0,0.0
1779,80.0,0.0,20.0,0.0,0.0
1780,75.0,0.0,20.0,1.0,0.0
1781,72.0,0.0,20.0,2.0,0.0
1782,58.0,0.0,20.0,3.0,0.0
1783,46.0,1.0,20.0,4.0,0.0
1784,77.0,11.0,15.0,5.0,0.0
1785,80.0,12.0,15.0,5.0,0.0
1786,78.0,0.0,30.0,0.0,0.0
1787,73.0,3.0,30.0,1.0,0.0
1788,70.0,6.0,30.0,2.0,0.0
1789,73.0,12.0,15.0,5.0,0.0
1790,46.0,3.0,30.0,6.0,0.0
1791,78.0,9.0,15.0,5.0,0.0
1792,58.0,0.0,20.0,3.0,0.0
1793,46.0,1.0,20.0,4.0,0.0
1794,82.0,2.0,15.0,5.0,0.0
1795,76.0,0.0,15.0,0.0,0.0
1796,61.0,0.0,15.0,1.0,0.0
1797,67.0,0.0,15.0,2.0,0.0
1798,79.0,12.0,15.0,5.0,0.0
1799,77.0,0.0,20.0,0.0,0.0
1800,60.0,0.0,20.0,1.0,0.0
1801,65.0,0.0,20.0,2.0,0.0
1802,56.0,0.0,20.0,3.0,0.0
1803,44.0,1.0,20.0,4.0,0.0
1804,80.0,11.0,15.0,5.0,0.0
1805,77.0,12.0,15.0,5.0,0.0
1806,73.0,0.0,30.0,0.0,0.0
1807,67.0,0.0,30.0,1.0,0.0
1808,64.0,6.0,30.0,2.0,0.0
1809,70.0,12.0,15.0,5.0,0.0
1810,58.0,3.0,30.0,6.0,0.0
1811,73.0,12.0,15.0,5.0,0.0
1812,55.0,0.0,20.0,3.0,0.0
1813,43.0,1.0,20.0,4.0,0.0
1814,79.0,2.0,15.0,5.0,0.0
1815,70.0,0.0,15.0,0.0,0.0
1816,70.0,0.0,15.0,1.0,0.0
1817,67.0,0.0,15.0,2.0,0.0
1818,76.0,12.0,15.0,5.0,0.0
1819,72.0,0.0,20.0,0.0,0.0
1820,68.0,0.0,20.0,1.0,0.0
1821,65.0,0.0,20.0,2.0,0.0
1822,56.0,0.0,20.0,3.0,0.0
1823,44.0,1.0,20.0,4.0,0.0
1824,77.0,11.0,15.0,5.0,0.0
1825,73.0,12.0,15.0,5.0,0.0
1826,77.0,10.0,20.0,0.0,0.0
1827,73.0,0.0,30.0,1.0,0.0
1828,67.0,0.0,30.0,2.0,0.0
1829,67.0,12.0,15.0,5.0,0.0
1830,58.0,3.0,30.0,6.0,0.0
1831,70.0,2.0,15.0,5.0,0.0
1832,76.0,0.0,20.0,0.0,0.0
1833,60.0,0.0,20.0,3.0,0.0
1834,48.0,1.0,20.0,4.0,0.0
1835,76.0,8.0,15.0,5.0,0.0
1836,70.0,12.0,15.0,5.0,0.0
1837,77.0,0.0,20.0,0.0,0.0
1838,70.0,0.0,20.0,1.0,0.0
1839,65.0,0.0,20.0,2.0,0.0
1840,61.0,0.0,20.0,3.0,0.0
1841,49.0,0.0,20.0,4.0,0.0
1842,67.0,11.0,15.0,5.0,0.0
1843,61.0,1.0,20.0,6.0,0.0
1844,70.0,12.0,15.0,5.0,0.0
1845,80.0,0.0,30.0,0.0,0.0
1846,72.0,0.0,30.0,1.0,0.0
1847,65.0,3.0,30.0,2.0,0.0
1848,68.0,12.0,15.0,5.0,0.0
1849,60.0,3.0,30.0,6.0,0.0
1850,72.0,9.0,15.0,5.0,0.0
1851,60.0,0.0,20.0,3.0,0.0
1852,48.0,1.0,20.0,4.0,0.0
1853,77.0,8.0,15.0,5.0,0.0
1854,79.0,0.0,15.0,0.0,0.0
1855,70.0,0.0,15.0,1.0,0.0
1856,64.0,0.0,15.0,2.0,0.0
1857,73.0,12.0,15.0,5.0,0.0
1858,77.0,0.0,20.0,0.0,0.0
1859,68.0,0.0,20.0,1.0,0.0
1860,65.0,0.0,20.0,2.0,0.0
1861,48.0,0.0,20.0,3.0,0.0
1862,36.0,0.0,20.0,4.0,0.0
1863,72.0,11.0,15.0,5.0,0.0
1864,48.0,1.0,20.0,6.0,0.0
1865,70.0,74.0,15.0,5.0,0.0
1866,77.0,0.0,60.0,0.0,0.0
1867,68.0,0.0,60.0,1.0,0.0
1868,65.0,0.0,60.0,2.0,0.0
1869,53.0,0.0,60.0,3.0,0.0
1870,41.0,0.0,60.0,4.0,0.0
1871,72.0,0.0,60.0,5.0,0.0
1872,68.0,0.0,60.0,5.0,0.0
1873,53.0,216.0,60.0,6.0,0.0
