,note,step,duration,channel,velocity
0,46.0,192.0,180.0,0.0,0.0
1,53.0,192.0,180.0,0.0,0.0
2,49.0,192.0,180.0,0.0,0.0
3,46.0,192.0,180.0,0.0,0.0
4,45.0,96.0,180.0,0.0,0.0
5,46.0,96.0,90.0,0.0,0.0
6,48.0,192.0,90.0,0.0,0.0
7,49.0,72.0,15.0,0.0,0.0
8,51.0,72.0,20.0,0.0,0.0
9,49.0,24.0,60.0,0.0,0.0
10,48.0,72.0,20.0,0.0,0.0
11,53.0,72.0,180.0,0.0,0.0
12,46.0,24.0,60.0,0.0,0.0
13,48.0,72.0,20.0,0.0,0.0
14,46.0,24.0,60.0,0.0,0.0
15,44.0,24.0,90.0,0.0,0.0
16,58.0,0.0,180.0,0.0,0.0
17,46.0,72.0,20.0,0.0,0.0
18,44.0,24.0,60.0,0.0,0.0
19,43.0,72.0,20.0,0.0,0.0
20,56.0,72.0,180.0,0.0,0.0
21,43.0,24.0,60.0,0.0,0.0
22,41.0,72.0,20.0,0.0,0.0
23,43.0,24.0,60.0,0.0,0.0
24,44.0,0.0,20.0,0.0,0.0
25,46.0,24.0,60.0,0.0,0.0
26,53.0,72.0,180.0,0.0,0.0
27,48.0,72.0,20.0,0.0,0.0
28,49.0,24.0,60.0,0.0,0.0
29,46.0,0.0,20.0,0.0,0.0
30,52.0,72.0,180.0,0.0,0.0
31,48.0,24.0,60.0,0.0,0.0
32,49.0,72.0,20.0,0.0,0.0
33,48.0,24.0,60.0,0.0,0.0
34,46.0,0.0,20.0,0.0,0.0
35,53.0,72.0,90.0,0.0,0.0
36,44.0,24.0,60.0,0.0,0.0
37,43.0,0.0,20.0,0.0,0.0
38,41.0,24.0,60.0,0.0,0.0
39,55.0,72.0,90.0,0.0,0.0
40,40.0,0.0,20.0,0.0,0.0
41,41.0,24.0,60.0,0.0,0.0
42,53.0,72.0,20.0,0.0,0.0
43,52.0,24.0,60.0,0.0,0.0
44,53.0,0.0,20.0,0.0,0.0
45,46.0,0.0,90.0,0.0,0.0
46,56.0,72.0,15.0,0.0,0.0
47,58.0,72.0,20.0,0.0,0.0
48,56.0,24.0,60.0,0.0,0.0
49,54.0,0.0,20.0,0.0,0.0
50,58.0,0.0,180.0,0.0,0.0
51,51.0,72.0,15.0,0.0,0.0
52,49.0,72.0,20.0,0.0,0.0
53,48.0,24.0,60.0,0.0,0.0
54,46.0,72.0,20.0,0.0,0.0
55,53.0,0.0,15.0,0.0,0.0
56,65.0,0.0,180.0,0.0,0.0
57,45.0,0.0,180.0,0.0,0.0
58,63.0,72.0,20.0,0.0,0.0
59,61.0,24.0,60.0,0.0,0.0
60,60.0,72.0,20.0,0.0,0.0
61,46.0,0.0,90.0,0.0,0.0
62,58.0,24.0,60.0,0.0,0.0
63,61.0,0.0,180.0,0.0,0.0
64,56.0,72.0,20.0,0.0,0.0
65,34.0,0.0,90.0,0.0,0.0
66,54.0,24.0,60.0,0.0,0.0
67,53.0,72.0,20.0,0.0,0.0
68,39.0,24.0,60.0,0.0,0.0
69,54.0,0.0,60.0,0.0,0.0
70,58.0,0.0,180.0,0.0,0.0
71,53.0,0.0,20.0,0.0,0.0
72,41.0,72.0,20.0,0.0,0.0
73,51.0,24.0,60.0,0.0,0.0
74,42.0,0.0,90.0,0.0,0.0
75,49.0,72.0,20.0,0.0,0.0
76,48.0,0.0,180.0,0.0,0.0
77,57.0,0.0,180.0,0.0,0.0
78,42.0,24.0,15.0,0.0,0.0
79,41.0,24.0,60.0,0.0,0.0
80,39.0,96.0,20.0,0.0,0.0
81,58.0,72.0,90.0,0.0,0.0
82,37.0,0.0,90.0,0.0,0.0
83,53.0,0.0,20.0,0.0,0.0
84,36.0,72.0,90.0,0.0,0.0
85,55.0,24.0,60.0,0.0,0.0
86,60.0,0.0,90.0,0.0,0.0
87,57.0,0.0,20.0,0.0,0.0
88,58.0,0.0,300.0,0.0,0.0
89,61.0,72.0,180.0,0.0,0.0
90,34.0,24.0,60.0,0.0,0.0
91,46.0,72.0,20.0,0.0,0.0
92,48.0,24.0,60.0,0.0,0.0
93,49.0,0.0,20.0,0.0,0.0
94,51.0,0.0,60.0,0.0,0.0
95,61.0,24.0,60.0,0.0,0.0
96,54.0,72.0,20.0,0.0,0.0
97,63.0,0.0,20.0,0.0,0.0
98,57.0,0.0,90.0,0.0,0.0
99,61.0,24.0,60.0,0.0,0.0
100,53.0,0.0,60.0,0.0,0.0
101,60.0,72.0,20.0,0.0,0.0
102,51.0,0.0,20.0,0.0,0.0
103,49.0,24.0,60.0,0.0,0.0
104,65.0,0.0,180.0,0.0,0.0
105,58.0,0.0,60.0,0.0,0.0
106,60.0,48.0,20.0,0.0,0.0
107,51.0,0.0,20.0,0.0,0.0
108,61.0,24.0,60.0,0.0,0.0
109,49.0,0.0,60.0,0.0,0.0
110,60.0,72.0,20.0,0.0,0.0
111,63.0,0.0,20.0,0.0,0.0
112,48.0,0.0,20.0,0.0,0.0
113,46.0,24.0,60.0,0.0,0.0
114,65.0,0.0,180.0,0.0,0.0
115,61.0,72.0,180.0,0.0,0.0
116,70.0,0.0,180.0,0.0,0.0
117,48.0,72.0,20.0,0.0,0.0
118,49.0,24.0,60.0,0.0,0.0
119,51.0,0.0,20.0,0.0,0.0
120,68.0,72.0,180.0,0.0,0.0
121,53.0,0.0,180.0,0.0,0.0
122,65.0,24.0,60.0,0.0,0.0
123,60.0,0.0,90.0,0.0,0.0
124,63.0,72.0,20.0,0.0,0.0
125,56.0,0.0,180.0,0.0,0.0
126,61.0,24.0,60.0,0.0,0.0
127,60.0,24.0,90.0,0.0,0.0
128,49.0,0.0,180.0,0.0,0.0
129,65.0,0.0,180.0,0.0,0.0
130,61.0,72.0,20.0,0.0,0.0
131,53.0,0.0,90.0,0.0,0.0
132,60.0,24.0,60.0,0.0,0.0
133,55.0,0.0,180.0,0.0,0.0
134,64.0,0.0,180.0,0.0,0.0
135,58.0,72.0,15.0,0.0,0.0
136,58.0,0.0,15.0,0.0,0.0
137,49.0,24.0,15.0,0.0,0.0
138,60.0,24.0,60.0,0.0,0.0
139,48.0,0.0,60.0,0.0,0.0
140,61.0,0.0,20.0,0.0,0.0
141,46.0,96.0,20.0,0.0,0.0
142,65.0,0.0,90.0,0.0,0.0
143,60.0,0.0,90.0,0.0,0.0
144,44.0,0.0,90.0,0.0,0.0
145,48.0,72.0,20.0,0.0,0.0
146,43.0,0.0,90.0,0.0,0.0
147,58.0,0.0,90.0,0.0,0.0
148,67.0,96.0,90.0,0.0,0.0
149,50.0,24.0,60.0,0.0,0.0
150,52.0,0.0,20.0,0.0,0.0
151,53.0,0.0,300.0,0.0,0.0
152,56.0,72.0,90.0,0.0,0.0
153,41.0,0.0,20.0,0.0,0.0
154,60.0,72.0,90.0,0.0,0.0
155,43.0,24.0,60.0,0.0,0.0
156,44.0,0.0,20.0,0.0,0.0
157,68.0,0.0,15.0,0.0,0.0
158,46.0,0.0,90.0,0.0,0.0
159,61.0,0.0,90.0,0.0,0.0
160,70.0,72.0,20.0,0.0,0.0
161,48.0,0.0,90.0,0.0,0.0
162,52.0,0.0,90.0,0.0,0.0
163,68.0,24.0,60.0,0.0,0.0
164,67.0,72.0,20.0,0.0,0.0
165,49.0,0.0,180.0,0.0,0.0
166,60.0,0.0,15.0,0.0,0.0
167,53.0,72.0,90.0,0.0,0.0
168,57.0,0.0,20.0,0.0,0.0
169,55.0,24.0,60.0,0.0,0.0
170,58.0,0.0,60.0,0.0,0.0
171,60.0,72.0,20.0,0.0,0.0
172,57.0,0.0,20.0,0.0,0.0
173,58.0,72.0,90.0,0.0,0.0
174,61.0,0.0,90.0,0.0,0.0
175,49.0,24.0,60.0,0.0,0.0
176,48.0,0.0,20.0,0.0,0.0
177,46.0,24.0,60.0,0.0,0.0
178,45.0,0.0,20.0,0.0,0.0
179,51.0,72.0,15.0,0.0,0.0
180,60.0,0.0,15.0,0.0,0.0
181,65.0,0.0,15.0,0.0,0.0
182,51.0,72.0,20.0,0.0,0.0
183,60.0,24.0,15.0,0.0,0.0
184,58.0,0.0,60.0,0.0,0.0
185,49.0,24.0,60.0,0.0,0.0
186,57.0,72.0,20.0,0.0,0.0
187,48.0,0.0,20.0,0.0,0.0
188,46.0,0.0,15.0,0.0,0.0
189,49.0,72.0,90.0,0.0,0.0
190,58.0,0.0,90.0,0.0,0.0
191,44.0,0.0,20.0,0.0,0.0
192,42.0,24.0,60.0,0.0,0.0
193,56.0,0.0,90.0,0.0,0.0
194,41.0,0.0,20.0,0.0,0.0
195,50.0,0.0,15.0,0.0,0.0
196,56.0,0.0,90.0,0.0,0.0
197,58.0,0.0,390.0,0.0,0.0
198,42.0,0.0,180.0,0.0,0.0
199,46.0,72.0,20.0,0.0,0.0
200,48.0,0.0,60.0,0.0,0.0
201,54.0,24.0,60.0,0.0,0.0
202,50.0,0.0,20.0,0.0,0.0
203,53.0,72.0,20.0,0.0,0.0
204,51.0,0.0,90.0,0.0,0.0
205,54.0,0.0,90.0,0.0,0.0
206,42.0,24.0,60.0,0.0,0.0
207,41.0,72.0,20.0,0.0,0.0
208,44.0,72.0,90.0,0.0,0.0
209,39.0,24.0,60.0,0.0,0.0
210,38.0,0.0,20.0,0.0,0.0
211,53.0,0.0,15.0,0.0,0.0
212,44.0,24.0,60.0,0.0,0.0
213,41.0,72.0,20.0,0.0,0.0
214,50.0,0.0,20.0,0.0,0.0
215,51.0,24.0,60.0,0.0,0.0
216,42.0,0.0,60.0,0.0,0.0
217,44.0,72.0,20.0,0.0,0.0
218,53.0,0.0,20.0,0.0,0.0
219,54.0,72.0,90.0,0.0,0.0
220,46.0,24.0,60.0,0.0,0.0
221,45.0,0.0,20.0,0.0,0.0
222,53.0,72.0,90.0,0.0,0.0
223,39.0,0.0,15.0,0.0,0.0
224,46.0,0.0,90.0,0.0,0.0
225,37.0,0.0,20.0,0.0,0.0
226,48.0,0.0,90.0,0.0,0.0
227,36.0,0.0,390.0,0.0,0.0
228,58.0,0.0,15.0,0.0,0.0
229,52.0,72.0,90.0,0.0,0.0
230,57.0,0.0,20.0,0.0,0.0
231,58.0,24.0,60.0,0.0,0.0
232,61.0,72.0,20.0,0.0,0.0
233,60.0,24.0,60.0,0.0,0.0
234,58.0,72.0,20.0,0.0,0.0
235,64.0,24.0,60.0,0.0,0.0
236,65.0,72.0,20.0,0.0,0.0
237,67.0,24.0,60.0,0.0,0.0
238,36.0,48.0,180.0,0.0,0.0
239,68.0,72.0,20.0,0.0,0.0
240,70.0,24.0,60.0,0.0,0.0
241,55.0,72.0,180.0,0.0,0.0
242,52.0,0.0,180.0,0.0,0.0
243,61.0,16.0,15.0,0.0,0.0
244,60.0,16.0,15.0,0.0,0.0
245,58.0,72.0,15.0,0.0,0.0
246,57.0,24.0,60.0,0.0,0.0
247,58.0,0.0,20.0,0.0,0.0
248,48.0,0.0,15.0,0.0,0.0
249,57.0,0.0,180.0,0.0,0.0
250,41.0,96.0,180.0,0.0,0.0
251,53.0,24.0,60.0,0.0,0.0
252,60.0,72.0,20.0,0.0,0.0
253,61.0,24.0,60.0,0.0,0.0
254,63.0,0.0,20.0,0.0,0.0
255,65.0,96.0,180.0,0.0,0.0
256,53.0,72.0,20.0,0.0,0.0
257,55.0,24.0,60.0,0.0,0.0
258,57.0,0.0,20.0,0.0,0.0
259,58.0,0.0,90.0,0.0,0.0
260,61.0,0.0,180.0,0.0,0.0
261,46.0,72.0,20.0,0.0,0.0
262,56.0,72.0,180.0,0.0,0.0
263,48.0,24.0,60.0,0.0,0.0
264,49.0,72.0,20.0,0.0,0.0
265,58.0,72.0,180.0,0.0,0.0
266,51.0,24.0,60.0,0.0,0.0
267,53.0,0.0,20.0,0.0,0.0
268,51.0,24.0,60.0,0.0,0.0
269,54.0,0.0,90.0,0.0,0.0
270,49.0,0.0,20.0,0.0,0.0
271,48.0,24.0,60.0,0.0,0.0
272,57.0,0.0,180.0,0.0,0.0
273,54.0,0.0,60.0,0.0,0.0
274,54.0,0.0,20.0,0.0,0.0
275,51.0,72.0,20.0,0.0,0.0
276,53.0,24.0,60.0,0.0,0.0
277,49.0,0.0,60.0,0.0,0.0
278,48.0,0.0,20.0,0.0,0.0
279,51.0,72.0,20.0,0.0,0.0
280,58.0,72.0,90.0,0.0,0.0
281,49.0,24.0,60.0,0.0,0.0
282,48.0,0.0,20.0,0.0,0.0
283,60.0,72.0,90.0,0.0,0.0
284,46.0,24.0,60.0,0.0,0.0
285,45.0,0.0,20.0,0.0,0.0
286,53.0,0.0,15.0,0.0,0.0
287,46.0,0.0,90.0,0.0,0.0
288,65.0,0.0,180.0,0.0,0.0
289,58.0,72.0,20.0,0.0,0.0
290,57.0,24.0,60.0,0.0,0.0
291,49.0,0.0,90.0,0.0,0.0
292,58.0,0.0,20.0,0.0,0.0
293,43.0,0.0,90.0,0.0,0.0
294,61.0,72.0,15.0,0.0,0.0
295,70.0,72.0,180.0,0.0,0.0
296,52.0,72.0,90.0,0.0,0.0
297,65.0,0.0,20.0,0.0,0.0
298,55.0,0.0,90.0,0.0,0.0
299,64.0,24.0,60.0,0.0,0.0
300,48.0,0.0,90.0,0.0,0.0
301,62.0,0.0,20.0,0.0,0.0
302,68.0,0.0,180.0,0.0,0.0
303,55.0,24.0,60.0,0.0,0.0
304,41.0,0.0,180.0,0.0,0.0
305,48.0,72.0,20.0,0.0,0.0
306,53.0,24.0,60.0,0.0,0.0
307,51.0,0.0,20.0,0.0,0.0
308,65.0,72.0,180.0,0.0,0.0
309,60.0,72.0,15.0,0.0,0.0
310,53.0,72.0,20.0,0.0,0.0
311,58.0,24.0,60.0,0.0,0.0
312,56.0,0.0,20.0,0.0,0.0
313,55.0,0.0,180.0,0.0,0.0
314,46.0,0.0,15.0,0.0,0.0
315,49.0,0.0,15.0,0.0,0.0
316,64.0,0.0,180.0,0.0,0.0
317,43.0,0.0,20.0,0.0,0.0
318,48.0,24.0,60.0,0.0,0.0
319,46.0,96.0,20.0,0.0,0.0
320,44.0,72.0,90.0,0.0,0.0
321,65.0,0.0,90.0,0.0,0.0
322,60.0,0.0,20.0,0.0,0.0
323,67.0,0.0,90.0,0.0,0.0
324,43.0,96.0,90.0,0.0,0.0
325,62.0,24.0,60.0,0.0,0.0
326,64.0,0.0,20.0,0.0,0.0
327,65.0,0.0,300.0,0.0,0.0
328,41.0,72.0,180.0,0.0,0.0
329,63.0,72.0,20.0,0.0,0.0
330,61.0,24.0,60.0,0.0,0.0
331,60.0,0.0,20.0,0.0,0.0
332,59.0,0.0,90.0,0.0,0.0
333,68.0,0.0,15.0,0.0,0.0
334,70.0,72.0,20.0,0.0,0.0
335,68.0,24.0,60.0,0.0,0.0
336,60.0,72.0,90.0,0.0,0.0
337,64.0,0.0,90.0,0.0,0.0
338,67.0,0.0,20.0,0.0,0.0
339,65.0,24.0,60.0,0.0,0.0
340,68.0,72.0,90.0,0.0,0.0
341,53.0,0.0,180.0,0.0,0.0
342,63.0,0.0,20.0,0.0,0.0
343,61.0,24.0,60.0,0.0,0.0
344,77.0,24.0,150.0,0.0,0.0
345,60.0,48.0,20.0,0.0,0.0
346,55.0,72.0,90.0,0.0,0.0
347,58.0,0.0,90.0,0.0,0.0
348,77.0,24.0,20.0,0.0,0.0
349,75.0,0.0,20.0,0.0,0.0
350,73.0,24.0,60.0,0.0,0.0
351,57.0,0.0,90.0,0.0,0.0
352,63.0,72.0,90.0,0.0,0.0
353,72.0,0.0,15.0,0.0,0.0
354,46.0,0.0,180.0,0.0,0.0
355,58.0,72.0,180.0,0.0,0.0
356,61.0,0.0,180.0,0.0,0.0
357,73.0,72.0,20.0,0.0,0.0
358,72.0,24.0,60.0,0.0,0.0
359,70.0,24.0,90.0,0.0,0.0
360,53.0,96.0,180.0,0.0,0.0
361,60.0,0.0,180.0,0.0,0.0
362,72.0,72.0,20.0,0.0,0.0
363,70.0,24.0,60.0,0.0,0.0
364,69.0,0.0,20.0,0.0,0.0
365,70.0,0.0,180.0,0.0,0.0
366,49.0,0.0,180.0,0.0,0.0
367,53.0,72.0,20.0,0.0,0.0
368,55.0,24.0,60.0,0.0,0.0
369,57.0,0.0,20.0,0.0,0.0
370,58.0,72.0,15.0,0.0,0.0
371,46.0,0.0,180.0,0.0,0.0
372,60.0,72.0,20.0,0.0,0.0
373,61.0,24.0,60.0,0.0,0.0
374,58.0,96.0,20.0,0.0,0.0
375,45.0,0.0,180.0,0.0,0.0
376,60.0,0.0,90.0,0.0,0.0
377,66.0,72.0,20.0,0.0,0.0
378,48.0,72.0,90.0,0.0,0.0
379,65.0,24.0,60.0,0.0,0.0
380,63.0,0.0,20.0,0.0,0.0
381,61.0,24.0,60.0,0.0,0.0
382,46.0,0.0,90.0,0.0,0.0
383,49.0,0.0,90.0,0.0,0.0
384,60.0,72.0,20.0,0.0,0.0
385,58.0,24.0,60.0,0.0,0.0
386,48.0,96.0,90.0,0.0,0.0
387,51.0,0.0,90.0,0.0,0.0
388,57.0,0.0,20.0,0.0,0.0
389,53.0,72.0,90.0,0.0,0.0
390,58.0,0.0,90.0,0.0,0.0
391,77.0,0.0,20.0,0.0,0.0
392,76.0,24.0,60.0,0.0,0.0
393,77.0,0.0,20.0,0.0,0.0
394,70.0,72.0,15.0,0.0,0.0
395,49.0,0.0,15.0,0.0,0.0
396,67.0,72.0,90.0,0.0,0.0
397,51.0,0.0,20.0,0.0,0.0
398,75.0,72.0,90.0,0.0,0.0
399,49.0,24.0,60.0,0.0,0.0
400,69.0,0.0,90.0,0.0,0.0
401,48.0,0.0,20.0,0.0,0.0
402,70.0,0.0,90.0,0.0,0.0
403,46.0,0.0,90.0,0.0,0.0
404,75.0,24.0,60.0,0.0,0.0
405,73.0,72.0,20.0,0.0,0.0
406,72.0,24.0,60.0,0.0,0.0
407,70.0,48.0,20.0,0.0,0.0
408,72.0,72.0,90.0,0.0,0.0
409,58.0,24.0,15.0,0.0,0.0
410,56.0,0.0,20.0,0.0,0.0
411,54.0,24.0,60.0,0.0,0.0
412,77.0,0.0,90.0,0.0,0.0
413,53.0,0.0,20.0,0.0,0.0
414,70.0,0.0,90.0,0.0,0.0
415,54.0,72.0,90.0,0.0,0.0
416,68.0,72.0,15.0,0.0,0.0
417,66.0,0.0,20.0,0.0,0.0
418,65.0,24.0,60.0,0.0,0.0
419,72.0,48.0,90.0,0.0,0.0
420,55.0,0.0,90.0,0.0,0.0
421,63.0,0.0,20.0,0.0,0.0
422,65.0,72.0,180.0,0.0,0.0
423,57.0,0.0,90.0,0.0,0.0
424,60.0,0.0,90.0,0.0,0.0
425,51.0,24.0,15.0,0.0,0.0
426,49.0,72.0,20.0,0.0,0.0
427,61.0,0.0,90.0,0.0,0.0
428,48.0,24.0,60.0,0.0,0.0
429,46.0,0.0,20.0,0.0,0.0
430,58.0,0.0,15.0,0.0,0.0
431,48.0,0.0,180.0,0.0,0.0
432,64.0,0.0,90.0,0.0,0.0
433,60.0,0.0,90.0,0.0,0.0
434,56.0,72.0,20.0,0.0,0.0
435,68.0,48.0,90.0,0.0,0.0
436,55.0,24.0,60.0,0.0,0.0
437,53.0,0.0,20.0,0.0,0.0
438,55.0,72.0,90.0,0.0,0.0
439,62.0,0.0,90.0,0.0,0.0
440,72.0,24.0,15.0,0.0,0.0
441,70.0,0.0,20.0,0.0,0.0
442,68.0,24.0,60.0,0.0,0.0
443,64.0,0.0,90.0,0.0,0.0
444,60.0,0.0,90.0,0.0,0.0
445,67.0,72.0,20.0,0.0,0.0
446,65.0,24.0,60.0,0.0,0.0
447,53.0,48.0,180.0,0.0,0.0
448,68.0,0.0,60.0,0.0,0.0
449,70.0,72.0,20.0,0.0,0.0
450,66.0,0.0,20.0,0.0,0.0
451,65.0,24.0,60.0,0.0,0.0
452,72.0,24.0,150.0,0.0,0.0
453,63.0,0.0,20.0,0.0,0.0
454,58.0,72.0,180.0,0.0,0.0
455,61.0,0.0,60.0,0.0,0.0
456,72.0,24.0,20.0,0.0,0.0
457,65.0,72.0,20.0,0.0,0.0
458,73.0,0.0,20.0,0.0,0.0
459,63.0,24.0,60.0,0.0,0.0
460,72.0,0.0,60.0,0.0,0.0
461,70.0,0.0,20.0,0.0,0.0
462,61.0,0.0,20.0,0.0,0.0
463,61.0,24.0,60.0,0.0,0.0
464,56.0,0.0,180.0,0.0,0.0
465,77.0,0.0,180.0,0.0,0.0
466,60.0,72.0,20.0,0.0,0.0
467,62.0,24.0,60.0,0.0,0.0
468,64.0,72.0,20.0,0.0,0.0
469,53.0,96.0,180.0,0.0,0.0
470,65.0,24.0,60.0,0.0,0.0
471,67.0,72.0,20.0,0.0,0.0
472,68.0,24.0,60.0,0.0,0.0
473,65.0,0.0,20.0,0.0,0.0
474,52.0,0.0,180.0,0.0,0.0
475,49.0,72.0,20.0,0.0,0.0
476,48.0,24.0,60.0,0.0,0.0
477,46.0,0.0,20.0,0.0,0.0
478,67.0,72.0,15.0,0.0,0.0
479,53.0,0.0,90.0,0.0,0.0
480,44.0,72.0,90.0,0.0,0.0
481,65.0,0.0,20.0,0.0,0.0
482,64.0,24.0,60.0,0.0,0.0
483,49.0,0.0,90.0,0.0,0.0
484,55.0,0.0,90.0,0.0,0.0
485,65.0,72.0,20.0,0.0,0.0
486,59.0,24.0,60.0,0.0,0.0
487,49.0,0.0,90.0,0.0,0.0
488,72.0,0.0,20.0,0.0,0.0
489,53.0,72.0,20.0,0.0,0.0
490,50.0,0.0,180.0,0.0,0.0
491,71.0,24.0,60.0,0.0,0.0
492,72.0,0.0,20.0,0.0,0.0
493,56.0,72.0,15.0,0.0,0.0
494,65.0,0.0,90.0,0.0,0.0
495,58.0,0.0,20.0,0.0,0.0
496,56.0,24.0,60.0,0.0,0.0
497,52.0,0.0,90.0,0.0,0.0
498,55.0,0.0,20.0,0.0,0.0
499,70.0,0.0,15.0,0.0,0.0
500,53.0,0.0,180.0,0.0,0.0
501,60.0,72.0,15.0,0.0,0.0
502,68.0,72.0,20.0,0.0,0.0
503,61.0,0.0,90.0,0.0,0.0
504,66.0,24.0,60.0,0.0,0.0
505,65.0,0.0,20.0,0.0,0.0
506,58.0,72.0,90.0,0.0,0.0
507,66.0,0.0,180.0,0.0,0.0
508,53.0,72.0,15.0,0.0,0.0
509,51.0,0.0,20.0,0.0,0.0
510,49.0,24.0,60.0,0.0,0.0
511,63.0,0.0,90.0,0.0,0.0
512,48.0,72.0,20.0,0.0,0.0
513,66.0,0.0,60.0,0.0,0.0
514,56.0,24.0,60.0,0.0,0.0
515,49.0,72.0,90.0,0.0,0.0
516,65.0,0.0,20.0,0.0,0.0
517,61.0,0.0,20.0,0.0,0.0
518,63.0,24.0,60.0,0.0,0.0
519,54.0,72.0,90.0,0.0,0.0
520,60.0,0.0,60.0,0.0,0.0
521,58.0,24.0,90.0,0.0,0.0
522,61.0,0.0,20.0,0.0,0.0
523,48.0,0.0,90.0,0.0,0.0
524,63.0,0.0,180.0,0.0,0.0
525,60.0,72.0,20.0,0.0,0.0
526,58.0,24.0,60.0,0.0,0.0
527,53.0,0.0,90.0,0.0,0.0
528,57.0,72.0,20.0,0.0,0.0
529,58.0,0.0,300.0,0.0,0.0
530,63.0,24.0,60.0,0.0,0.0
531,46.0,72.0,90.0,0.0,0.0
532,61.0,0.0,20.0,0.0,0.0
533,48.0,0.0,60.0,0.0,0.0
534,63.0,24.0,60.0,0.0,0.0
535,49.0,0.0,20.0,0.0,0.0
536,65.0,72.0,20.0,0.0,0.0
537,51.0,24.0,60.0,0.0,0.0
538,66.0,0.0,60.0,0.0,0.0
539,68.0,72.0,20.0,0.0,0.0
540,53.0,0.0,20.0,0.0,0.0
541,63.0,72.0,90.0,0.0,0.0
542,54.0,0.0,90.0,0.0,0.0
543,70.0,24.0,60.0,0.0,0.0
544,72.0,0.0,20.0,0.0,0.0
545,54.0,24.0,60.0,0.0,0.0
546,56.0,0.0,180.0,0.0,0.0
547,73.0,72.0,180.0,0.0,0.0
548,53.0,72.0,20.0,0.0,0.0
549,51.0,24.0,60.0,0.0,0.0
550,49.0,0.0,20.0,0.0,0.0
551,48.0,0.0,180.0,0.0,0.0
552,80.0,0.0,180.0,0.0,0.0
553,56.0,24.0,60.0,0.0,0.0
554,54.0,72.0,20.0,0.0,0.0
555,53.0,24.0,60.0,0.0,0.0
556,51.0,72.0,20.0,0.0,0.0
557,77.0,72.0,180.0,0.0,0.0
558,49.0,24.0,60.0,0.0,0.0
559,61.0,72.0,20.0,0.0,0.0
560,63.0,24.0,60.0,0.0,0.0
561,65.0,0.0,20.0,0.0,0.0
562,66.0,24.0,60.0,0.0,0.0
563,73.0,0.0,180.0,0.0,0.0
564,68.0,72.0,20.0,0.0,0.0
565,70.0,24.0,60.0,0.0,0.0
566,66.0,0.0,20.0,0.0,0.0
567,72.0,0.0,180.0,0.0,0.0
568,54.0,72.0,15.0,0.0,0.0
569,68.0,72.0,90.0,0.0,0.0
570,58.0,0.0,20.0,0.0,0.0
571,56.0,24.0,60.0,0.0,0.0
572,63.0,0.0,90.0,0.0,0.0
573,54.0,72.0,20.0,0.0,0.0
574,53.0,24.0,60.0,0.0,0.0
575,73.0,72.0,90.0,0.0,0.0
576,51.0,0.0,20.0,0.0,0.0
577,75.0,0.0,90.0,0.0,0.0
578,49.0,24.0,60.0,0.0,0.0
579,48.0,0.0,20.0,0.0,0.0
580,49.0,24.0,60.0,0.0,0.0
581,77.0,72.0,180.0,0.0,0.0
582,68.0,72.0,15.0,0.0,0.0
583,61.0,72.0,20.0,0.0,0.0
584,60.0,24.0,60.0,0.0,0.0
585,61.0,0.0,20.0,0.0,0.0
586,77.0,24.0,60.0,0.0,0.0
587,54.0,0.0,90.0,0.0,0.0
588,70.0,72.0,90.0,0.0,0.0
589,78.0,0.0,20.0,0.0,0.0
590,77.0,24.0,60.0,0.0,0.0
591,68.0,0.0,60.0,0.0,0.0
592,66.0,0.0,20.0,0.0,0.0
593,75.0,0.0,20.0,0.0,0.0
594,74.0,72.0,180.0,0.0,0.0
595,59.0,72.0,15.0,0.0,0.0
596,65.0,0.0,180.0,0.0,0.0
597,59.0,24.0,15.0,0.0,0.0
598,58.0,24.0,60.0,0.0,0.0
599,56.0,0.0,20.0,0.0,0.0
600,54.0,24.0,60.0,0.0,0.0
601,75.0,72.0,90.0,0.0,0.0
602,70.0,0.0,180.0,0.0,0.0
603,53.0,0.0,20.0,0.0,0.0
604,51.0,24.0,60.0,0.0,0.0
605,50.0,72.0,20.0,0.0,0.0
606,77.0,0.0,15.0,0.0,0.0
607,51.0,24.0,60.0,0.0,0.0
608,66.0,72.0,180.0,0.0,0.0
609,53.0,72.0,20.0,0.0,0.0
610,70.0,0.0,20.0,0.0,0.0
611,54.0,0.0,180.0,0.0,0.0
612,75.0,24.0,60.0,0.0,0.0
613,73.0,0.0,20.0,0.0,0.0
614,71.0,24.0,60.0,0.0,0.0
615,63.0,0.0,180.0,0.0,0.0
616,70.0,72.0,20.0,0.0,0.0
617,53.0,24.0,60.0,0.0,0.0
618,68.0,0.0,60.0,0.0,0.0
619,66.0,0.0,20.0,0.0,0.0
620,54.0,96.0,20.0,0.0,0.0
621,65.0,0.0,180.0,0.0,0.0
622,56.0,72.0,90.0,0.0,0.0
623,62.0,0.0,180.0,0.0,0.0
624,47.0,0.0,20.0,0.0,0.0
625,59.0,72.0,90.0,0.0,0.0
626,46.0,24.0,60.0,0.0,0.0
627,44.0,0.0,20.0,0.0,0.0
628,42.0,24.0,60.0,0.0,0.0
629,63.0,72.0,90.0,0.0,0.0
630,58.0,0.0,180.0,0.0,0.0
631,41.0,0.0,20.0,0.0,0.0
632,39.0,24.0,60.0,0.0,0.0
633,65.0,0.0,90.0,0.0,0.0
634,38.0,72.0,20.0,0.0,0.0
635,58.0,0.0,90.0,0.0,0.0
636,66.0,0.0,180.0,0.0,0.0
637,39.0,24.0,60.0,0.0,0.0
638,51.0,72.0,20.0,0.0,0.0
639,58.0,72.0,90.0,0.0,0.0
640,50.0,24.0,60.0,0.0,0.0
641,51.0,0.0,20.0,0.0,0.0
642,44.0,72.0,180.0,0.0,0.0
643,66.0,24.0,60.0,0.0,0.0
644,60.0,0.0,90.0,0.0,0.0
645,68.0,72.0,20.0,0.0,0.0
646,61.0,0.0,90.0,0.0,0.0
647,66.0,24.0,60.0,0.0,0.0
648,65.0,0.0,20.0,0.0,0.0
649,63.0,72.0,90.0,0.0,0.0
650,44.0,0.0,180.0,0.0,0.0
651,61.0,24.0,60.0,0.0,0.0
652,61.0,0.0,20.0,0.0,0.0
653,59.0,24.0,60.0,0.0,0.0
654,66.0,0.0,90.0,0.0,0.0
655,58.0,72.0,20.0,0.0,0.0
656,65.0,72.0,90.0,0.0,0.0
657,56.0,24.0,60.0,0.0,0.0
658,49.0,0.0,180.0,0.0,0.0
659,54.0,0.0,20.0,0.0,0.0
660,53.0,24.0,60.0,0.0,0.0
661,51.0,72.0,20.0,0.0,0.0
662,68.0,0.0,15.0,0.0,0.0
663,46.0,72.0,180.0,0.0,0.0
664,49.0,0.0,90.0,0.0,0.0
665,61.0,72.0,20.0,0.0,0.0
666,63.0,24.0,60.0,0.0,0.0
667,65.0,0.0,20.0,0.0,0.0
668,66.0,24.0,60.0,0.0,0.0
669,42.0,0.0,180.0,0.0,0.0
670,68.0,72.0,20.0,0.0,0.0
671,70.0,24.0,60.0,0.0,0.0
672,66.0,96.0,20.0,0.0,0.0
673,41.0,0.0,180.0,0.0,0.0
674,68.0,0.0,180.0,0.0,0.0
675,75.0,72.0,20.0,0.0,0.0
676,73.0,24.0,60.0,0.0,0.0
677,44.0,0.0,90.0,0.0,0.0
678,71.0,72.0,20.0,0.0,0.0
679,46.0,72.0,90.0,0.0,0.0
680,42.0,0.0,90.0,0.0,0.0
681,61.0,0.0,180.0,0.0,0.0
682,70.0,24.0,60.0,0.0,0.0
683,68.0,0.0,20.0,0.0,0.0
684,66.0,24.0,60.0,0.0,0.0
685,47.0,0.0,90.0,0.0,0.0
686,44.0,0.0,90.0,0.0,0.0
687,65.0,72.0,20.0,0.0,0.0
688,49.0,72.0,90.0,0.0,0.0
689,61.0,24.0,60.0,0.0,0.0
690,66.0,72.0,180.0,0.0,0.0
691,64.0,0.0,20.0,0.0,0.0
692,54.0,72.0,180.0,0.0,0.0
693,63.0,24.0,60.0,0.0,0.0
694,61.0,0.0,20.0,0.0,0.0
695,46.0,0.0,15.0,0.0,0.0
696,71.0,72.0,180.0,0.0,0.0
697,63.0,0.0,90.0,0.0,0.0
698,47.0,0.0,20.0,0.0,0.0
699,46.0,24.0,60.0,0.0,0.0
700,65.0,0.0,90.0,0.0,0.0
701,59.0,0.0,90.0,0.0,0.0
702,44.0,0.0,20.0,0.0,0.0
703,66.0,96.0,180.0,0.0,0.0
704,42.0,0.0,60.0,0.0,0.0
705,61.0,0.0,180.0,0.0,0.0
706,71.0,24.0,60.0,0.0,0.0
707,54.0,72.0,20.0,0.0,0.0
708,70.0,0.0,20.0,0.0,0.0
709,69.0,0.0,60.0,0.0,0.0
710,53.0,24.0,60.0,0.0,0.0
711,54.0,0.0,20.0,0.0,0.0
712,70.0,0.0,20.0,0.0,0.0
713,63.0,0.0,90.0,0.0,0.0
714,48.0,72.0,90.0,0.0,0.0
715,56.0,0.0,20.0,0.0,0.0
716,54.0,24.0,60.0,0.0,0.0
717,50.0,96.0,90.0,0.0,0.0
718,53.0,0.0,20.0,0.0,0.0
719,68.0,0.0,15.0,0.0,0.0
720,51.0,0.0,90.0,0.0,0.0
721,63.0,0.0,20.0,0.0,0.0
722,59.0,0.0,90.0,0.0,0.0
723,62.0,24.0,60.0,0.0,0.0
724,66.0,72.0,90.0,0.0,0.0
725,63.0,0.0,20.0,0.0,0.0
726,51.0,0.0,15.0,0.0,0.0
727,60.0,0.0,90.0,0.0,0.0
728,65.0,48.0,180.0,0.0,0.0
729,57.0,72.0,90.0,0.0,0.0
730,49.0,0.0,20.0,0.0,0.0
731,48.0,24.0,60.0,0.0,0.0
732,61.0,0.0,90.0,0.0,0.0
733,58.0,0.0,90.0,0.0,0.0
734,46.0,0.0,20.0,0.0,0.0
735,61.0,24.0,60.0,0.0,0.0
736,65.0,0.0,60.0,0.0,0.0
737,58.0,24.0,40.0,0.0,0.0
738,54.0,0.0,390.0,0.0,0.0
739,73.0,0.0,20.0,0.0,0.0
740,58.0,72.0,20.0,0.0,0.0
741,57.0,24.0,60.0,0.0,0.0
742,75.0,0.0,60.0,0.0,0.0
743,58.0,0.0,20.0,0.0,0.0
744,73.0,72.0,20.0,0.0,0.0
745,72.0,24.0,60.0,0.0,0.0
746,70.0,72.0,20.0,0.0,0.0
747,69.0,24.0,60.0,0.0,0.0
748,70.0,72.0,20.0,0.0,0.0
749,53.0,72.0,90.0,0.0,0.0
750,69.0,24.0,60.0,0.0,0.0
751,63.0,0.0,15.0,0.0,0.0
752,77.0,0.0,20.0,0.0,0.0
753,78.0,24.0,60.0,0.0,0.0
754,58.0,72.0,180.0,0.0,0.0
755,61.0,0.0,90.0,0.0,0.0
756,77.0,72.0,20.0,0.0,0.0
757,60.0,0.0,90.0,0.0,0.0
758,75.0,24.0,60.0,0.0,0.0
759,73.0,0.0,20.0,0.0,0.0
760,72.0,24.0,60.0,0.0,0.0
761,57.0,0.0,90.0,0.0,0.0
762,65.0,0.0,90.0,0.0,0.0
763,73.0,72.0,20.0,0.0,0.0
764,58.0,0.0,180.0,0.0,0.0
765,75.0,24.0,60.0,0.0,0.0
766,46.0,72.0,180.0,0.0,0.0
767,65.0,72.0,90.0,0.0,0.0
768,73.0,0.0,20.0,0.0,0.0
769,72.0,24.0,60.0,0.0,0.0
770,70.0,24.0,90.0,0.0,0.0
771,60.0,0.0,180.0,0.0,0.0
772,72.0,72.0,20.0,0.0,0.0
773,70.0,24.0,60.0,0.0,0.0
774,69.0,96.0,20.0,0.0,0.0
775,53.0,0.0,15.0,0.0,0.0
776,70.0,0.0,90.0,0.0,0.0
777,49.0,72.0,180.0,0.0,0.0
778,66.0,0.0,20.0,0.0,0.0
779,55.0,0.0,60.0,0.0,0.0
780,65.0,24.0,60.0,0.0,0.0
781,57.0,0.0,20.0,0.0,0.0
782,63.0,24.0,90.0,0.0,0.0
783,58.0,0.0,90.0,0.0,0.0
784,46.0,0.0,180.0,0.0,0.0
785,65.0,72.0,20.0,0.0,0.0
786,66.0,0.0,90.0,0.0,0.0
787,63.0,24.0,60.0,0.0,0.0
788,61.0,72.0,20.0,0.0,0.0
789,45.0,72.0,180.0,0.0,0.0
790,66.0,24.0,60.0,0.0,0.0
791,60.0,72.0,90.0,0.0,0.0
792,66.0,0.0,20.0,0.0,0.0
793,65.0,24.0,60.0,0.0,0.0
794,53.0,0.0,90.0,0.0,0.0
795,48.0,0.0,90.0,0.0,0.0
796,63.0,0.0,20.0,0.0,0.0
797,61.0,24.0,60.0,0.0,0.0
798,46.0,72.0,90.0,0.0,0.0
799,49.0,0.0,90.0,0.0,0.0
800,54.0,72.0,180.0,0.0,0.0
801,60.0,0.0,20.0,0.0,0.0
802,58.0,24.0,60.0,0.0,0.0
803,51.0,0.0,90.0,0.0,0.0
804,48.0,0.0,90.0,0.0,0.0
805,57.0,0.0,20.0,0.0,0.0
806,53.0,0.0,90.0,0.0,0.0
807,58.0,24.0,60.0,0.0,0.0
808,70.0,72.0,20.0,0.0,0.0
809,65.0,0.0,90.0,0.0,0.0
810,72.0,24.0,60.0,0.0,0.0
811,73.0,0.0,20.0,0.0,0.0
812,49.0,72.0,15.0,0.0,0.0
813,66.0,72.0,90.0,0.0,0.0
814,51.0,0.0,20.0,0.0,0.0
815,69.0,0.0,90.0,0.0,0.0
816,49.0,24.0,60.0,0.0,0.0
817,48.0,0.0,20.0,0.0,0.0
818,70.0,0.0,90.0,0.0,0.0
819,75.0,96.0,15.0,0.0,0.0
820,53.0,0.0,20.0,0.0,0.0
821,55.0,0.0,60.0,0.0,0.0
822,73.0,24.0,60.0,0.0,0.0
823,72.0,0.0,20.0,0.0,0.0
824,57.0,72.0,20.0,0.0,0.0
825,46.0,0.0,15.0,0.0,0.0
826,73.0,0.0,90.0,0.0,0.0
827,58.0,0.0,90.0,0.0,0.0
828,47.0,72.0,20.0,0.0,0.0
829,77.0,96.0,90.0,0.0,0.0
830,50.0,0.0,90.0,0.0,0.0
831,46.0,24.0,60.0,0.0,0.0
832,44.0,0.0,20.0,0.0,0.0
833,51.0,72.0,90.0,0.0,0.0
834,42.0,72.0,180.0,0.0,0.0
835,70.0,0.0,180.0,0.0,0.0
836,63.0,0.0,20.0,0.0,0.0
837,65.0,24.0,60.0,0.0,0.0
838,66.0,0.0,20.0,0.0,0.0
839,72.0,72.0,90.0,0.0,0.0
840,68.0,0.0,180.0,0.0,0.0
841,42.0,24.0,60.0,0.0,0.0
842,44.0,0.0,20.0,0.0,0.0
843,42.0,24.0,60.0,0.0,0.0
844,74.0,72.0,90.0,0.0,0.0
845,41.0,0.0,20.0,0.0,0.0
846,39.0,24.0,60.0,0.0,0.0
847,75.0,0.0,300.0,0.0,0.0
848,68.0,0.0,90.0,0.0,0.0
849,46.0,72.0,20.0,0.0,0.0
850,66.0,0.0,60.0,0.0,0.0
851,48.0,24.0,60.0,0.0,0.0
852,65.0,0.0,20.0,0.0,0.0
853,50.0,72.0,20.0,0.0,0.0
854,66.0,0.0,90.0,0.0,0.0
855,51.0,24.0,60.0,0.0,0.0
856,53.0,72.0,20.0,0.0,0.0
857,70.0,0.0,90.0,0.0,0.0
858,51.0,24.0,60.0,0.0,0.0
859,65.0,0.0,90.0,0.0,0.0
860,49.0,72.0,20.0,0.0,0.0
861,48.0,0.0,90.0,0.0,0.0
862,70.0,24.0,60.0,0.0,0.0
863,63.0,0.0,180.0,0.0,0.0
864,72.0,72.0,20.0,0.0,0.0
865,70.0,24.0,60.0,0.0,0.0
866,53.0,72.0,90.0,0.0,0.0
867,68.0,24.0,90.0,0.0,0.0
868,61.0,72.0,180.0,0.0,0.0
869,46.0,72.0,90.0,0.0,0.0
870,70.0,0.0,20.0,0.0,0.0
871,68.0,24.0,60.0,0.0,0.0
872,51.0,0.0,90.0,0.0,0.0
873,66.0,0.0,20.0,0.0,0.0
874,45.0,72.0,180.0,0.0,0.0
875,60.0,0.0,180.0,0.0,0.0
876,66.0,24.0,15.0,0.0,0.0
877,53.0,0.0,180.0,0.0,0.0
878,65.0,24.0,60.0,0.0,0.0
879,63.0,0.0,20.0,0.0,0.0
880,61.0,24.0,60.0,0.0,0.0
881,46.0,72.0,180.0,0.0,0.0
882,68.0,0.0,20.0,0.0,0.0
883,58.0,72.0,15.0,0.0,0.0
884,66.0,24.0,60.0,0.0,0.0
885,61.0,0.0,90.0,0.0,0.0
886,65.0,0.0,20.0,0.0,0.0
887,64.0,48.0,150.0,0.0,0.0
888,58.0,0.0,90.0,0.0,0.0
889,48.0,0.0,180.0,0.0,0.0
890,61.0,24.0,15.0,0.0,0.0
891,56.0,0.0,180.0,0.0,0.0
892,64.0,48.0,20.0,0.0,0.0
893,49.0,0.0,180.0,0.0,0.0
894,65.0,48.0,150.0,0.0,0.0
895,60.0,24.0,15.0,0.0,0.0
896,60.0,24.0,15.0,0.0,0.0
897,58.0,0.0,90.0,0.0,0.0
898,65.0,0.0,20.0,0.0,0.0
899,70.0,24.0,60.0,0.0,0.0
900,53.0,72.0,15.0,0.0,0.0
901,43.0,72.0,180.0,0.0,0.0
902,72.0,0.0,20.0,0.0,0.0
903,73.0,0.0,90.0,0.0,0.0
904,52.0,0.0,90.0,0.0,0.0
905,70.0,0.0,20.0,0.0,0.0
906,53.0,72.0,90.0,0.0,0.0
907,68.0,24.0,60.0,0.0,0.0
908,67.0,0.0,20.0,0.0,0.0
909,55.0,72.0,90.0,0.0,0.0
910,65.0,24.0,60.0,0.0,0.0
911,64.0,0.0,20.0,0.0,0.0
912,44.0,0.0,15.0,0.0,0.0
913,72.0,0.0,15.0,0.0,0.0
914,65.0,0.0,180.0,0.0,0.0
915,77.0,72.0,20.0,0.0,0.0
916,46.0,0.0,90.0,0.0,0.0
917,76.0,24.0,60.0,0.0,0.0
918,77.0,72.0,20.0,0.0,0.0
919,56.0,0.0,15.0,0.0,0.0
920,48.0,0.0,180.0,0.0,0.0
921,72.0,0.0,60.0,0.0,0.0
922,74.0,72.0,20.0,0.0,0.0
923,58.0,0.0,20.0,0.0,0.0
924,75.0,0.0,90.0,0.0,0.0
925,72.0,0.0,90.0,0.0,0.0
926,57.0,24.0,60.0,0.0,0.0
927,55.0,72.0,20.0,0.0,0.0
928,53.0,72.0,180.0,0.0,0.0
929,49.0,0.0,90.0,0.0,0.0
930,75.0,72.0,90.0,0.0,0.0
931,72.0,24.0,60.0,0.0,0.0
932,65.0,0.0,20.0,0.0,0.0
933,46.0,0.0,90.0,0.0,0.0
934,73.0,72.0,180.0,0.0,0.0
935,70.0,24.0,60.0,0.0,0.0
936,68.0,0.0,20.0,0.0,0.0
937,66.0,24.0,60.0,0.0,0.0
938,54.0,0.0,180.0,0.0,0.0
939,65.0,0.0,20.0,0.0,0.0
940,72.0,24.0,60.0,0.0,0.0
941,63.0,0.0,60.0,0.0,0.0
942,70.0,0.0,20.0,0.0,0.0
943,61.0,0.0,20.0,0.0,0.0
944,51.0,72.0,15.0,0.0,0.0
945,69.0,72.0,90.0,0.0,0.0
946,54.0,24.0,60.0,0.0,0.0
947,54.0,0.0,20.0,0.0,0.0
948,53.0,24.0,60.0,0.0,0.0
949,45.0,72.0,90.0,0.0,0.0
950,72.0,0.0,90.0,0.0,0.0
951,51.0,0.0,20.0,0.0,0.0
952,49.0,0.0,60.0,0.0,0.0
953,60.0,0.0,15.0,0.0,0.0
954,46.0,0.0,90.0,0.0,0.0
955,63.0,0.0,20.0,0.0,0.0
956,48.0,72.0,20.0,0.0,0.0
957,61.0,0.0,60.0,0.0,0.0
958,41.0,0.0,90.0,0.0,0.0
959,46.0,24.0,60.0,0.0,0.0
960,60.0,72.0,20.0,0.0,0.0
961,45.0,0.0,20.0,0.0,0.0
962,65.0,0.0,15.0,0.0,0.0
963,42.0,0.0,300.0,0.0,0.0
964,46.0,0.0,90.0,0.0,0.0
965,58.0,24.0,60.0,0.0,0.0
966,56.0,0.0,20.0,0.0,0.0
967,48.0,0.0,60.0,0.0,0.0
968,54.0,24.0,60.0,0.0,0.0
969,58.0,72.0,180.0,0.0,0.0
970,50.0,0.0,20.0,0.0,0.0
971,53.0,72.0,20.0,0.0,0.0
972,51.0,24.0,60.0,0.0,0.0
973,54.0,0.0,180.0,0.0,0.0
974,49.0,0.0,20.0,0.0,0.0
975,48.0,24.0,60.0,0.0,0.0
976,39.0,0.0,90.0,0.0,0.0
977,46.0,72.0,20.0,0.0,0.0
978,53.0,72.0,300.0,0.0,0.0
979,63.0,0.0,15.0,0.0,0.0
980,45.0,72.0,180.0,0.0,0.0
981,66.0,72.0,20.0,0.0,0.0
982,65.0,24.0,60.0,0.0,0.0
983,63.0,24.0,90.0,0.0,0.0
984,46.0,72.0,180.0,0.0,0.0
985,65.0,0.0,20.0,0.0,0.0
986,63.0,24.0,60.0,0.0,0.0
987,55.0,0.0,90.0,0.0,0.0
988,48.0,72.0,180.0,0.0,0.0
989,41.0,0.0,15.0,0.0,0.0
990,57.0,0.0,180.0,0.0,0.0
991,61.0,0.0,15.0,0.0,0.0
992,63.0,72.0,20.0,0.0,0.0
993,61.0,24.0,60.0,0.0,0.0
994,60.0,24.0,90.0,0.0,0.0
995,52.0,0.0,180.0,0.0,0.0
996,49.0,0.0,180.0,0.0,0.0
997,61.0,72.0,20.0,0.0,0.0
998,60.0,24.0,60.0,0.0,0.0
999,48.0,0.0,180.0,0.0,0.0
1000,53.0,0.0,180.0,0.0,0.0
1001,58.0,72.0,15.0,0.0,0.0
1002,55.0,72.0,20.0,0.0,0.0
1003,57.0,24.0,60.0,0.0,0.0
1004,60.0,72.0,20.0,0.0,0.0
1005,41.0,0.0,15.0,0.0,0.0
1006,53.0,24.0,60.0,0.0,0.0
1007,42.0,0.0,20.0,0.0,0.0
1008,63.0,72.0,20.0,0.0,0.0
1009,57.0,0.0,90.0,0.0,0.0
1010,41.0,0.0,60.0,0.0,0.0
1011,61.0,24.0,60.0,0.0,0.0
1012,60.0,0.0,20.0,0.0,0.0
1013,53.0,0.0,15.0,0.0,0.0
1014,39.0,72.0,15.0,0.0,0.0
1015,58.0,0.0,60.0,0.0,0.0
1016,61.0,0.0,20.0,0.0,0.0
1017,41.0,72.0,20.0,0.0,0.0
1018,60.0,0.0,60.0,0.0,0.0
1019,39.0,24.0,60.0,0.0,0.0
1020,37.0,0.0,90.0,0.0,0.0
1021,58.0,0.0,20.0,0.0,0.0
1022,65.0,96.0,180.0,0.0,0.0
1023,57.0,24.0,60.0,0.0,0.0
1024,39.0,72.0,20.0,0.0,0.0
1025,53.0,0.0,20.0,0.0,0.0
1026,37.0,0.0,60.0,0.0,0.0
1027,55.0,24.0,60.0,0.0,0.0
1028,57.0,0.0,20.0,0.0,0.0
1029,36.0,0.0,20.0,0.0,0.0
1030,34.0,0.0,180.0,0.0,0.0
1031,61.0,72.0,180.0,0.0,0.0
1032,58.0,0.0,90.0,0.0,0.0
1033,46.0,72.0,20.0,0.0,0.0
1034,48.0,24.0,60.0,0.0,0.0
1035,56.0,72.0,180.0,0.0,0.0
1036,49.0,0.0,20.0,0.0,0.0
1037,58.0,72.0,180.0,0.0,0.0
1038,51.0,24.0,60.0,0.0,0.0
1039,53.0,0.0,20.0,0.0,0.0
1040,36.0,0.0,20.0,0.0,0.0
1041,54.0,0.0,90.0,0.0,0.0
1042,37.0,24.0,60.0,0.0,0.0
1043,51.0,0.0,60.0,0.0,0.0
1044,39.0,0.0,20.0,0.0,0.0
1045,49.0,0.0,20.0,0.0,0.0
1046,41.0,96.0,180.0,0.0,0.0
1047,48.0,24.0,60.0,0.0,0.0
1048,57.0,0.0,180.0,0.0,0.0
1049,54.0,0.0,60.0,0.0,0.0
1050,54.0,72.0,20.0,0.0,0.0
1051,51.0,0.0,20.0,0.0,0.0
1052,53.0,24.0,60.0,0.0,0.0
1053,49.0,0.0,60.0,0.0,0.0
1054,51.0,0.0,20.0,0.0,0.0
1055,48.0,0.0,20.0,0.0,0.0
1056,58.0,0.0,90.0,0.0,0.0
1057,49.0,0.0,90.0,0.0,0.0
1058,46.0,72.0,180.0,0.0,0.0
1059,42.0,72.0,20.0,0.0,0.0
1060,54.0,0.0,90.0,0.0,0.0
1061,60.0,0.0,90.0,0.0,0.0
1062,41.0,24.0,60.0,0.0,0.0
1063,39.0,0.0,20.0,0.0,0.0
1064,41.0,24.0,60.0,0.0,0.0
1065,53.0,0.0,180.0,0.0,0.0
1066,45.0,72.0,90.0,0.0,0.0
1067,37.0,0.0,20.0,0.0,0.0
1068,46.0,0.0,180.0,0.0,0.0
1069,36.0,24.0,60.0,0.0,0.0
1070,34.0,0.0,20.0,0.0,0.0
1071,61.0,72.0,15.0,0.0,0.0
1072,39.0,72.0,90.0,0.0,0.0
1073,54.0,0.0,90.0,0.0,0.0
1074,63.0,0.0,20.0,0.0,0.0
1075,45.0,72.0,90.0,0.0,0.0
1076,53.0,0.0,90.0,0.0,0.0
1077,61.0,24.0,60.0,0.0,0.0
1078,41.0,0.0,90.0,0.0,0.0
1079,60.0,0.0,20.0,0.0,0.0
1080,46.0,72.0,90.0,0.0,0.0
1081,53.0,24.0,60.0,0.0,0.0
1082,42.0,0.0,60.0,0.0,0.0
1083,58.0,0.0,390.0,0.0,0.0
1084,50.0,0.0,20.0,0.0,0.0
1085,44.0,0.0,20.0,0.0,0.0
1086,48.0,0.0,60.0,0.0,0.0
1087,51.0,24.0,60.0,0.0,0.0
1088,42.0,0.0,60.0,0.0,0.0
1089,41.0,72.0,20.0,0.0,0.0
1090,50.0,0.0,20.0,0.0,0.0
1091,53.0,0.0,20.0,0.0,0.0
1092,51.0,72.0,180.0,0.0,0.0
1093,39.0,24.0,60.0,0.0,0.0
1094,41.0,72.0,20.0,0.0,0.0
1095,42.0,24.0,60.0,0.0,0.0
1096,39.0,0.0,20.0,0.0,0.0
1097,46.0,0.0,180.0,0.0,0.0
1098,54.0,0.0,15.0,0.0,0.0
1099,58.0,0.0,60.0,0.0,0.0
1100,51.0,24.0,60.0,0.0,0.0
1101,58.0,0.0,90.0,0.0,0.0
1102,53.0,0.0,20.0,0.0,0.0
1103,50.0,72.0,20.0,0.0,0.0
1104,54.0,24.0,60.0,0.0,0.0
1105,51.0,0.0,60.0,0.0,0.0
1106,48.0,168.0,20.0,0.0,0.0
1107,51.0,0.0,20.0,0.0,0.0
1108,53.0,0.0,180.0,0.0,0.0
1109,50.0,0.0,180.0,0.0,0.0
1110,34.0,0.0,180.0,0.0,0.0
1111,58.0,24.0,15.0,0.0,0.0
