,note,step,duration,channel,velocity
0,74.0,60.0,60.0,0.0,0.0
1,71.0,60.0,60.0,0.0,0.0
2,69.0,60.0,60.0,0.0,0.0
3,71.0,60.0,60.0,0.0,0.0
4,67.0,60.0,60.0,0.0,0.0
5,72.0,60.0,60.0,0.0,0.0
6,71.0,60.0,60.0,0.0,0.0
7,72.0,120.0,60.0,0.0,0.0
8,76.0,120.0,120.0,0.0,0.0
9,74.0,171.0,120.0,0.0,0.0
10,73.0,69.0,60.0,0.0,0.0
11,69.0,120.0,60.0,0.0,0.0
12,79.0,115.0,120.0,0.0,0.0
13,78.0,27.0,120.0,0.0,0.0
14,78.0,20.0,20.0,0.0,0.0
15,76.0,20.0,20.0,0.0,0.0
16,78.0,20.0,20.0,0.0,0.0
17,76.0,20.0,20.0,0.0,0.0
18,78.0,20.0,20.0,0.0,0.0
19,76.0,20.0,20.0,0.0,0.0
20,78.0,20.0,20.0,0.0,0.0
21,76.0,20.0,20.0,0.0,0.0
22,78.0,20.0,20.0,0.0,0.0
23,76.0,20.0,20.0,0.0,0.0
24,78.0,18.0,20.0,0.0,0.0
25,76.0,60.0,20.0,0.0,0.0
26,74.0,60.0,60.0,0.0,0.0
27,81.0,60.0,60.0,0.0,0.0
28,78.0,60.0,60.0,0.0,0.0
29,74.0,60.0,60.0,0.0,0.0
30,72.0,60.0,60.0,0.0,0.0
31,81.0,60.0,60.0,0.0,0.0
32,78.0,60.0,60.0,0.0,0.0
33,72.0,60.0,60.0,0.0,0.0
34,71.0,0.0,120.0,0.0,0.0
35,67.0,60.0,60.0,1.0,0.0
36,66.0,60.0,60.0,1.0,0.0
37,84.0,60.0,120.0,0.0,0.0
38,64.0,60.0,60.0,1.0,0.0
39,66.0,0.0,60.0,1.0,0.0
40,62.0,60.0,60.0,1.0,0.0
41,83.0,60.0,120.0,0.0,0.0
42,67.0,0.0,60.0,1.0,0.0
43,81.0,0.0,120.0,0.0,0.0
44,66.0,60.0,60.0,1.0,0.0
45,67.0,60.0,60.0,1.0,0.0
46,71.0,0.0,120.0,1.0,0.0
47,79.0,60.0,60.0,0.0,0.0
48,76.0,60.0,60.0,0.0,0.0
49,69.0,0.0,120.0,1.0,0.0
50,78.0,60.0,60.0,0.0,0.0
51,79.0,180.0,60.0,0.0,0.0
52,81.0,60.0,300.0,0.0,0.0
53,66.0,60.0,60.0,1.0,0.0
54,62.0,60.0,60.0,1.0,0.0
55,72.0,60.0,120.0,1.0,0.0
56,79.0,0.0,60.0,0.0,0.0
57,71.0,5.0,120.0,1.0,0.0
58,81.0,55.0,60.0,0.0,0.0
59,83.0,20.0,60.0,0.0,0.0
60,84.0,2.0,60.0,0.0,0.0
61,71.0,22.0,20.0,1.0,0.0
62,69.0,18.0,20.0,1.0,0.0
63,71.0,20.0,20.0,1.0,0.0
64,69.0,20.0,20.0,1.0,0.0
65,81.0,2.0,60.0,0.0,0.0
66,71.0,18.0,20.0,1.0,0.0
67,69.0,20.0,20.0,1.0,0.0
68,71.0,20.0,20.0,1.0,0.0
69,74.0,2.0,60.0,0.0,0.0
70,69.0,18.0,20.0,1.0,0.0
71,71.0,20.0,20.0,1.0,0.0
72,69.0,20.0,20.0,1.0,0.0
73,84.0,2.0,60.0,0.0,0.0
74,71.0,18.0,20.0,1.0,0.0
75,69.0,58.0,20.0,1.0,0.0
76,67.0,59.0,60.0,1.0,0.0
77,83.0,1.0,120.0,0.0,0.0
78,74.0,60.0,60.0,1.0,0.0
79,71.0,60.0,60.0,1.0,0.0
80,79.0,0.0,60.0,0.0,0.0
81,83.0,0.0,60.0,0.0,0.0
82,69.0,60.0,60.0,1.0,0.0
83,88.0,0.0,360.0,0.0,0.0
84,67.0,60.0,60.0,1.0,0.0
85,76.0,60.0,60.0,1.0,0.0
86,73.0,60.0,60.0,1.0,0.0
87,69.0,60.0,60.0,1.0,0.0
88,66.0,60.0,60.0,1.0,0.0
89,73.0,60.0,60.0,1.0,0.0
90,78.0,0.0,60.0,0.0,0.0
91,69.0,60.0,60.0,1.0,0.0
92,67.0,60.0,60.0,1.0,0.0
93,81.0,0.0,60.0,0.0,0.0
94,65.0,60.0,60.0,1.0,0.0
95,86.0,60.0,360.0,0.0,0.0
96,74.0,60.0,60.0,1.0,0.0
97,71.0,60.0,60.0,1.0,0.0
98,67.0,60.0,60.0,1.0,0.0
99,64.0,60.0,60.0,1.0,0.0
100,71.0,0.0,60.0,1.0,0.0
101,67.0,0.0,60.0,1.0,0.0
102,76.0,60.0,60.0,0.0,0.0
103,64.0,60.0,60.0,1.0,0.0
104,79.0,0.0,60.0,0.0,0.0
105,66.0,60.0,60.0,1.0,0.0
106,84.0,0.0,120.0,0.0,0.0
107,74.0,60.0,60.0,1.0,0.0
108,67.0,60.0,60.0,1.0,0.0
109,83.0,0.0,120.0,0.0,0.0
110,76.0,60.0,60.0,1.0,0.0
111,62.0,60.0,60.0,2.0,0.0
112,81.0,60.0,240.0,0.0,0.0
113,78.0,60.0,120.0,1.0,0.0
114,59.0,0.0,60.0,2.0,0.0
115,77.0,0.0,120.0,1.0,0.0
116,57.0,60.0,60.0,2.0,0.0
117,59.0,0.0,60.0,2.0,0.0
118,76.0,0.0,120.0,1.0,0.0
119,55.0,60.0,60.0,2.0,0.0
120,83.0,60.0,120.0,0.0,0.0
121,60.0,0.0,60.0,2.0,0.0
122,59.0,60.0,60.0,2.0,0.0
123,74.0,0.0,120.0,1.0,0.0
124,78.0,0.0,120.0,0.0,0.0
125,60.0,60.0,60.0,2.0,0.0
126,64.0,0.0,120.0,2.0,0.0
127,79.0,60.0,360.0,0.0,0.0
128,72.0,60.0,60.0,1.0,0.0
129,71.0,60.0,60.0,1.0,0.0
130,62.0,120.0,120.0,2.0,0.0
131,72.0,60.0,60.0,1.0,0.0
132,74.0,0.0,60.0,1.0,0.0
133,76.0,60.0,300.0,1.0,0.0
134,61.0,60.0,60.0,2.0,0.0
135,81.0,0.0,120.0,0.0,0.0
136,57.0,60.0,60.0,2.0,0.0
137,67.0,60.0,120.0,2.0,0.0
138,83.0,0.0,360.0,0.0,0.0
139,74.0,0.0,60.0,1.0,0.0
140,66.0,5.0,120.0,2.0,0.0
141,76.0,55.0,60.0,1.0,0.0
142,78.0,20.0,60.0,1.0,0.0
143,66.0,22.0,20.0,2.0,0.0
144,79.0,2.0,60.0,1.0,0.0
145,64.0,18.0,20.0,2.0,0.0
146,66.0,20.0,20.0,2.0,0.0
147,64.0,20.0,20.0,2.0,0.0
148,76.0,2.0,60.0,1.0,0.0
149,66.0,18.0,20.0,2.0,0.0
150,64.0,20.0,20.0,2.0,0.0
151,66.0,20.0,20.0,2.0,0.0
152,85.0,0.0,120.0,0.0,0.0
153,69.0,2.0,60.0,1.0,0.0
154,64.0,18.0,20.0,2.0,0.0
155,66.0,20.0,20.0,2.0,0.0
156,64.0,20.0,20.0,2.0,0.0
157,79.0,0.0,60.0,1.0,0.0
158,66.0,18.0,20.0,2.0,0.0
159,64.0,60.0,20.0,2.0,0.0
160,78.0,0.0,120.0,1.0,0.0
161,62.0,60.0,60.0,2.0,0.0
162,86.0,70.0,540.0,0.0,0.0
163,69.0,60.0,60.0,2.0,0.0
164,66.0,60.0,60.0,2.0,0.0
165,81.0,60.0,120.0,1.0,0.0
166,62.0,0.0,60.0,2.0,0.0
167,60.0,60.0,60.0,2.0,0.0
168,78.0,0.0,120.0,1.0,0.0
169,69.0,60.0,60.0,2.0,0.0
170,66.0,60.0,60.0,2.0,0.0
171,74.0,0.0,120.0,1.0,0.0
172,60.0,50.0,60.0,2.0,0.0
173,79.0,60.0,120.0,1.0,0.0
174,59.0,0.0,120.0,2.0,0.0
175,86.0,0.0,60.0,0.0,0.0
176,83.0,60.0,60.0,0.0,0.0
177,67.0,60.0,120.0,2.0,0.0
178,79.0,0.0,60.0,0.0,0.0
179,77.0,60.0,60.0,0.0,0.0
180,86.0,60.0,60.0,0.0,0.0
181,83.0,60.0,60.0,0.0,0.0
182,55.0,60.0,120.0,2.0,0.0
183,77.0,0.0,60.0,0.0,0.0
184,60.0,60.0,60.0,2.0,0.0
185,76.0,0.0,120.0,0.0,0.0
186,67.0,60.0,60.0,2.0,0.0
187,79.0,0.0,120.0,0.0,0.0
188,64.0,60.0,60.0,2.0,0.0
189,60.0,60.0,60.0,2.0,0.0
190,76.0,60.0,120.0,1.0,0.0
191,84.0,70.0,300.0,0.0,0.0
192,59.0,60.0,60.0,2.0,0.0
193,67.0,0.0,60.0,2.0,0.0
194,64.0,60.0,60.0,2.0,0.0
195,72.0,0.0,120.0,1.0,0.0
196,59.0,50.0,60.0,2.0,0.0
197,78.0,0.0,120.0,1.0,0.0
198,57.0,0.0,120.0,2.0,0.0
199,84.0,60.0,60.0,0.0,0.0
200,66.0,0.0,120.0,2.0,0.0
201,81.0,60.0,60.0,0.0,0.0
202,78.0,60.0,60.0,0.0,0.0
203,76.0,60.0,60.0,0.0,0.0
204,84.0,60.0,60.0,0.0,0.0
205,81.0,60.0,60.0,0.0,0.0
206,54.0,0.0,120.0,2.0,0.0
207,76.0,60.0,60.0,0.0,0.0
208,59.0,60.0,60.0,2.0,0.0
209,74.0,0.0,120.0,0.0,0.0
210,66.0,60.0,60.0,2.0,0.0
211,78.0,60.0,120.0,0.0,0.0
212,62.0,60.0,60.0,2.0,0.0
213,59.0,0.0,60.0,2.0,0.0
214,83.0,0.0,540.0,0.0,0.0
215,57.0,60.0,60.0,2.0,0.0
216,74.0,60.0,120.0,1.0,0.0
217,65.0,0.0,60.0,2.0,0.0
218,71.0,60.0,120.0,1.0,0.0
219,62.0,60.0,60.0,2.0,0.0
220,59.0,0.0,60.0,2.0,0.0
221,56.0,60.0,60.0,2.0,0.0
222,76.0,0.0,120.0,1.0,0.0
223,64.0,60.0,60.0,2.0,0.0
224,74.0,60.0,120.0,1.0,0.0
225,59.0,60.0,60.0,2.0,0.0
226,56.0,0.0,60.0,2.0,0.0
227,57.0,60.0,60.0,2.0,0.0
228,72.0,60.0,300.0,1.0,0.0
229,76.0,0.0,60.0,0.0,0.0
230,64.0,60.0,60.0,2.0,0.0
231,78.0,60.0,60.0,0.0,0.0
232,60.0,0.0,60.0,2.0,0.0
233,57.0,0.0,60.0,2.0,0.0
234,79.0,60.0,60.0,0.0,0.0
235,81.0,0.0,360.0,0.0,0.0
236,54.0,0.0,60.0,2.0,0.0
237,76.0,0.0,60.0,1.0,0.0
238,62.0,60.0,60.0,2.0,0.0
239,74.0,60.0,60.0,1.0,0.0
240,57.0,0.0,60.0,2.0,0.0
241,54.0,0.0,60.0,2.0,0.0
242,72.0,60.0,60.0,1.0,0.0
243,55.0,60.0,60.0,2.0,0.0
244,71.0,0.0,240.0,1.0,0.0
245,62.0,60.0,60.0,2.0,0.0
246,59.0,60.0,60.0,2.0,0.0
247,79.0,60.0,180.0,0.0,0.0
248,55.0,60.0,60.0,2.0,0.0
249,69.0,0.0,240.0,1.0,0.0
250,52.0,0.0,120.0,2.0,0.0
251,78.0,60.0,60.0,0.0,0.0
252,60.0,120.0,120.0,2.0,0.0
253,76.0,60.0,60.0,0.0,0.0
254,78.0,0.0,60.0,0.0,0.0
255,74.0,60.0,360.0,1.0,0.0
256,59.0,0.0,120.0,2.0,0.0
257,79.0,60.0,60.0,0.0,0.0
258,57.0,60.0,120.0,2.0,0.0
259,78.0,60.0,60.0,0.0,0.0
260,79.0,0.0,60.0,0.0,0.0
261,83.0,0.0,120.0,0.0,0.0
262,55.0,60.0,60.0,2.0,0.0
263,52.0,0.0,60.0,2.0,0.0
264,54.0,0.0,60.0,2.0,0.0
265,72.0,60.0,60.0,1.0,0.0
266,81.0,0.0,120.0,0.0,0.0
267,55.0,0.0,60.0,2.0,0.0
268,71.0,120.0,60.0,1.0,0.0
269,57.0,60.0,300.0,2.0,0.0
270,72.0,60.0,120.0,1.0,0.0
271,78.0,60.0,60.0,0.0,0.0
272,69.0,60.0,120.0,1.0,0.0
273,74.0,0.0,60.0,0.0,0.0
274,84.0,0.0,120.0,0.0,0.0
275,66.0,0.0,120.0,1.0,0.0
276,55.0,60.0,60.0,2.0,0.0
277,79.0,54.0,240.0,1.0,0.0
278,83.0,0.0,120.0,0.0,0.0
279,57.0,60.0,60.0,2.0,0.0
280,59.0,60.0,60.0,2.0,0.0
281,81.0,1.0,240.0,0.0,0.0
282,60.0,60.0,60.0,2.0,0.0
283,57.0,6.0,60.0,2.0,0.0
284,50.0,59.0,60.0,2.0,0.0
285,78.0,120.0,120.0,1.0,0.0
286,60.0,0.0,60.0,2.0,0.0
287,59.0,0.0,120.0,2.0,0.0
288,79.0,60.0,120.0,1.0,0.0
289,86.0,0.0,60.0,0.0,0.0
290,83.0,60.0,60.0,0.0,0.0
291,62.0,0.0,120.0,2.0,0.0
292,79.0,60.0,60.0,0.0,0.0
293,77.0,60.0,60.0,0.0,0.0
294,67.0,82.0,270.0,1.0,0.0
295,59.0,60.0,120.0,2.0,0.0
296,86.0,0.0,60.0,0.0,0.0
297,83.0,60.0,60.0,0.0,0.0
298,55.0,38.0,120.0,2.0,0.0
299,77.0,0.0,60.0,0.0,0.0
300,60.0,0.0,120.0,2.0,0.0
301,76.0,60.0,120.0,0.0,0.0
302,67.0,0.0,60.0,1.0,0.0
303,84.0,60.0,120.0,0.0,0.0
304,64.0,60.0,60.0,1.0,0.0
305,60.0,0.0,60.0,1.0,0.0
306,59.0,60.0,60.0,1.0,0.0
307,67.0,60.0,60.0,1.0,0.0
308,64.0,60.0,60.0,1.0,0.0
309,72.0,60.0,120.0,0.0,0.0
310,59.0,0.0,60.0,1.0,0.0
311,57.0,60.0,120.0,1.0,0.0
312,78.0,60.0,60.0,0.0,0.0
313,84.0,0.0,60.0,0.0,0.0
314,81.0,60.0,60.0,0.0,0.0
315,60.0,60.0,120.0,1.0,0.0
316,78.0,0.0,60.0,0.0,0.0
317,66.0,70.0,300.0,1.0,0.0
318,76.0,60.0,60.0,0.0,0.0
319,57.0,0.0,120.0,2.0,0.0
320,84.0,60.0,60.0,0.0,0.0
321,54.0,0.0,120.0,2.0,0.0
322,81.0,60.0,60.0,0.0,0.0
323,76.0,50.0,60.0,0.0,0.0
324,59.0,0.0,120.0,2.0,0.0
325,75.0,0.0,120.0,0.0,0.0
326,66.0,60.0,60.0,1.0,0.0
327,63.0,60.0,60.0,1.0,0.0
328,83.0,60.0,120.0,0.0,0.0
329,59.0,0.0,60.0,1.0,0.0
330,57.0,60.0,60.0,1.0,0.0
331,66.0,60.0,60.0,1.0,0.0
332,63.0,60.0,60.0,1.0,0.0
333,71.0,0.0,120.0,0.0,0.0
334,57.0,60.0,60.0,1.0,0.0
335,56.0,60.0,120.0,1.0,0.0
336,76.0,60.0,60.0,0.0,0.0
337,83.0,0.0,60.0,0.0,0.0
338,80.0,60.0,60.0,0.0,0.0
339,59.0,0.0,120.0,1.0,0.0
340,76.0,60.0,60.0,0.0,0.0
341,56.0,60.0,120.0,2.0,0.0
342,64.0,54.0,480.0,1.0,0.0
343,74.0,60.0,60.0,0.0,0.0
344,83.0,0.0,60.0,0.0,0.0
345,52.0,60.0,120.0,2.0,0.0
346,80.0,60.0,60.0,0.0,0.0
347,74.0,0.0,60.0,0.0,0.0
348,73.0,60.0,60.0,0.0,0.0
349,57.0,60.0,120.0,2.0,0.0
350,83.0,0.0,60.0,0.0,0.0
351,76.0,60.0,60.0,0.0,0.0
352,55.0,0.0,120.0,2.0,0.0
353,71.0,6.0,60.0,0.0,0.0
354,54.0,60.0,120.0,2.0,0.0
355,72.0,60.0,60.0,0.0,0.0
356,63.0,0.0,120.0,1.0,0.0
357,81.0,0.0,60.0,0.0,0.0
358,78.0,60.0,60.0,0.0,0.0
359,64.0,0.0,120.0,1.0,0.0
360,52.0,0.0,120.0,2.0,0.0
361,72.0,60.0,60.0,0.0,0.0
362,51.0,60.0,120.0,2.0,0.0
363,66.0,0.0,120.0,1.0,0.0
364,71.0,60.0,60.0,0.0,0.0
365,81.0,0.0,60.0,0.0,0.0
366,78.0,60.0,60.0,0.0,0.0
367,47.0,60.0,120.0,2.0,0.0
368,75.0,0.0,60.0,0.0,0.0
369,52.0,0.0,120.0,2.0,0.0
370,71.0,60.0,60.0,0.0,0.0
371,79.0,60.0,60.0,0.0,0.0
372,76.0,60.0,60.0,0.0,0.0
373,50.0,0.0,120.0,2.0,0.0
374,71.0,60.0,60.0,0.0,0.0
375,49.0,0.0,120.0,2.0,0.0
376,70.0,60.0,60.0,0.0,0.0
377,79.0,60.0,60.0,0.0,0.0
378,61.0,0.0,120.0,2.0,0.0
379,76.0,60.0,60.0,0.0,0.0
380,73.0,60.0,60.0,0.0,0.0
381,63.0,0.0,120.0,2.0,0.0
382,69.0,60.0,60.0,0.0,0.0
383,78.0,60.0,60.0,0.0,0.0
384,59.0,60.0,120.0,2.0,0.0
385,75.0,60.0,60.0,0.0,0.0
386,69.0,0.0,60.0,0.0,0.0
387,68.0,60.0,60.0,0.0,0.0
388,64.0,60.0,120.0,2.0,0.0
389,78.0,0.0,60.0,0.0,0.0
390,75.0,60.0,60.0,0.0,0.0
391,59.0,0.0,120.0,2.0,0.0
392,71.0,60.0,60.0,0.0,0.0
393,67.0,60.0,60.0,0.0,0.0
394,60.0,0.0,120.0,2.0,0.0
395,76.0,60.0,60.0,0.0,0.0
396,55.0,0.0,120.0,2.0,0.0
397,71.0,60.0,60.0,0.0,0.0
398,67.0,60.0,60.0,0.0,0.0
399,66.0,60.0,60.0,0.0,0.0
400,57.0,60.0,120.0,2.0,0.0
401,76.0,0.0,60.0,0.0,0.0
402,72.0,60.0,60.0,0.0,0.0
403,55.0,0.0,60.0,2.0,0.0
404,69.0,60.0,60.0,0.0,0.0
405,57.0,0.0,60.0,2.0,0.0
406,66.0,60.0,60.0,0.0,0.0
407,59.0,0.0,120.0,2.0,0.0
408,75.0,60.0,60.0,0.0,0.0
409,47.0,0.0,120.0,2.0,0.0
410,73.0,60.0,60.0,0.0,0.0
411,75.0,60.0,60.0,0.0,0.0
412,64.0,60.0,60.0,1.0,0.0
413,76.0,60.0,120.0,0.0,0.0
414,52.0,0.0,120.0,2.0,0.0
415,62.0,0.0,60.0,1.0,0.0
416,60.0,60.0,60.0,1.0,0.0
417,81.0,60.0,120.0,0.0,0.0
418,62.0,0.0,60.0,1.0,0.0
419,59.0,60.0,60.0,1.0,0.0
420,79.0,60.0,120.0,0.0,0.0
421,64.0,0.0,60.0,1.0,0.0
422,78.0,60.0,120.0,0.0,0.0
423,63.0,60.0,60.0,1.0,0.0
424,64.0,0.0,60.0,1.0,0.0
425,67.0,0.0,120.0,1.0,0.0
426,76.0,60.0,60.0,0.0,0.0
427,73.0,60.0,60.0,0.0,0.0
428,66.0,180.0,120.0,1.0,0.0
429,75.0,60.0,60.0,0.0,0.0
430,76.0,0.0,60.0,0.0,0.0
431,78.0,60.0,300.0,0.0,0.0
432,63.0,60.0,60.0,1.0,0.0
433,59.0,60.0,60.0,1.0,0.0
434,69.0,60.0,120.0,1.0,0.0
435,76.0,0.0,60.0,0.0,0.0
436,67.0,5.0,120.0,1.0,0.0
437,78.0,55.0,60.0,0.0,0.0
438,79.0,22.0,60.0,0.0,0.0
439,67.0,20.0,20.0,1.0,0.0
440,81.0,2.0,60.0,0.0,0.0
441,66.0,18.0,20.0,1.0,0.0
442,67.0,20.0,20.0,1.0,0.0
443,78.0,2.0,60.0,0.0,0.0
444,66.0,20.0,20.0,1.0,0.0
445,67.0,18.0,20.0,1.0,0.0
446,66.0,20.0,20.0,1.0,0.0
447,71.0,2.0,60.0,0.0,0.0
448,67.0,20.0,20.0,1.0,0.0
449,66.0,18.0,20.0,1.0,0.0
450,67.0,20.0,20.0,1.0,0.0
451,81.0,2.0,60.0,0.0,0.0
452,66.0,20.0,20.0,1.0,0.0
453,67.0,18.0,20.0,1.0,0.0
454,66.0,58.0,20.0,1.0,0.0
455,64.0,60.0,60.0,1.0,0.0
456,79.0,0.0,60.0,0.0,0.0
457,83.0,0.0,60.0,0.0,0.0
458,63.0,60.0,60.0,1.0,0.0
459,79.0,60.0,60.0,0.0,0.0
460,64.0,0.0,60.0,1.0,0.0
461,78.0,60.0,60.0,0.0,0.0
462,67.0,0.0,60.0,1.0,0.0
463,76.0,60.0,60.0,0.0,0.0
464,72.0,0.0,360.0,1.0,0.0
465,88.0,60.0,60.0,0.0,0.0
466,84.0,60.0,60.0,0.0,0.0
467,81.0,60.0,60.0,0.0,0.0
468,78.0,60.0,60.0,0.0,0.0
469,81.0,60.0,60.0,0.0,0.0
470,62.0,0.0,60.0,1.0,0.0
471,78.0,60.0,60.0,0.0,0.0
472,66.0,0.0,60.0,1.0,0.0
473,76.0,60.0,60.0,0.0,0.0
474,74.0,60.0,60.0,0.0,0.0
475,71.0,0.0,360.0,1.0,0.0
476,86.0,60.0,60.0,0.0,0.0
477,83.0,60.0,60.0,0.0,0.0
478,79.0,60.0,60.0,0.0,0.0
479,76.0,60.0,60.0,0.0,0.0
480,79.0,60.0,60.0,0.0,0.0
481,76.0,60.0,60.0,0.0,0.0
482,60.0,0.0,60.0,1.0,0.0
483,64.0,0.0,60.0,1.0,0.0
484,74.0,60.0,60.0,0.0,0.0
485,72.0,60.0,60.0,0.0,0.0
486,69.0,0.0,300.0,1.0,0.0
487,84.0,60.0,60.0,0.0,0.0
488,81.0,60.0,60.0,0.0,0.0
489,78.0,60.0,60.0,0.0,0.0
490,59.0,60.0,60.0,2.0,0.0
491,75.0,0.0,240.0,0.0,0.0
492,71.0,60.0,60.0,1.0,0.0
493,55.0,0.0,60.0,2.0,0.0
494,54.0,60.0,60.0,2.0,0.0
495,72.0,60.0,240.0,1.0,0.0
496,55.0,60.0,60.0,2.0,0.0
497,52.0,60.0,60.0,2.0,0.0
498,76.0,60.0,360.0,0.0,0.0
499,57.0,0.0,60.0,2.0,0.0
500,55.0,60.0,60.0,2.0,0.0
501,71.0,0.0,120.0,1.0,0.0
502,57.0,60.0,60.0,2.0,0.0
503,60.0,0.0,120.0,2.0,0.0
504,69.0,60.0,60.0,1.0,0.0
505,67.0,0.0,60.0,1.0,0.0
506,59.0,0.0,120.0,2.0,0.0
507,75.0,60.0,120.0,0.0,0.0
508,69.0,60.0,60.0,1.0,0.0
509,71.0,0.0,60.0,1.0,0.0
510,73.0,60.0,300.0,1.0,0.0
511,76.0,60.0,60.0,0.0,0.0
512,75.0,60.0,60.0,0.0,0.0
513,76.0,0.0,60.0,0.0,0.0
514,58.0,60.0,60.0,2.0,0.0
515,78.0,0.0,60.0,0.0,0.0
516,54.0,60.0,60.0,2.0,0.0
517,79.0,0.0,120.0,0.0,0.0
518,64.0,60.0,120.0,2.0,0.0
519,71.0,0.0,60.0,1.0,0.0
520,78.0,0.0,120.0,0.0,0.0
521,73.0,50.0,60.0,1.0,0.0
522,62.0,10.0,120.0,2.0,0.0
523,74.0,22.0,60.0,1.0,0.0
524,62.0,20.0,20.0,2.0,0.0
525,80.0,2.0,120.0,0.0,0.0
526,76.0,2.0,60.0,1.0,0.0
527,61.0,18.0,20.0,2.0,0.0
528,62.0,20.0,20.0,2.0,0.0
529,73.0,0.0,60.0,1.0,0.0
530,61.0,20.0,20.0,2.0,0.0
531,62.0,18.0,20.0,2.0,0.0
532,61.0,20.0,20.0,2.0,0.0
533,82.0,0.0,120.0,0.0,0.0
534,66.0,2.0,60.0,1.0,0.0
535,62.0,20.0,20.0,2.0,0.0
536,61.0,18.0,20.0,2.0,0.0
537,62.0,20.0,20.0,2.0,0.0
538,61.0,20.0,20.0,2.0,0.0
539,76.0,0.0,60.0,1.0,0.0
540,62.0,18.0,20.0,2.0,0.0
541,61.0,60.0,20.0,2.0,0.0
542,59.0,0.0,60.0,2.0,0.0
543,83.0,60.0,60.0,0.0,0.0
544,74.0,10.0,240.0,1.0,0.0
545,62.0,60.0,60.0,2.0,0.0
546,78.0,0.0,60.0,0.0,0.0
547,76.0,0.0,60.0,0.0,0.0
548,60.0,50.0,60.0,2.0,0.0
549,78.0,0.0,60.0,0.0,0.0
550,62.0,60.0,60.0,2.0,0.0
551,59.0,60.0,60.0,2.0,0.0
552,74.0,0.0,300.0,1.0,0.0
553,60.0,0.0,60.0,2.0,0.0
554,80.0,60.0,60.0,0.0,0.0
555,57.0,0.0,60.0,2.0,0.0
556,78.0,60.0,60.0,0.0,0.0
557,80.0,60.0,60.0,0.0,0.0
558,59.0,0.0,60.0,2.0,0.0
559,83.0,0.0,120.0,0.0,0.0
560,56.0,60.0,60.0,2.0,0.0
561,77.0,60.0,60.0,1.0,0.0
562,64.0,0.0,60.0,2.0,0.0
563,81.0,60.0,120.0,0.0,0.0
564,60.0,60.0,60.0,2.0,0.0
565,76.0,0.0,60.0,1.0,0.0
566,74.0,0.0,60.0,1.0,0.0
567,57.0,0.0,60.0,2.0,0.0
568,52.0,60.0,60.0,2.0,0.0
569,72.0,0.0,60.0,1.0,0.0
570,71.0,60.0,60.0,1.0,0.0
571,57.0,0.0,60.0,2.0,0.0
572,52.0,0.0,60.0,2.0,0.0
573,69.0,60.0,60.0,1.0,0.0
574,48.0,0.0,60.0,2.0,0.0
575,71.0,60.0,60.0,1.0,0.0
576,45.0,60.0,60.0,2.0,0.0
577,81.0,0.0,60.0,0.0,0.0
578,72.0,10.0,240.0,1.0,0.0
579,76.0,0.0,60.0,0.0,0.0
580,60.0,60.0,60.0,2.0,0.0
581,74.0,50.0,60.0,0.0,0.0
582,59.0,0.0,60.0,2.0,0.0
583,60.0,60.0,60.0,2.0,0.0
584,76.0,0.0,60.0,0.0,0.0
585,57.0,60.0,60.0,2.0,0.0
586,72.0,60.0,300.0,1.0,0.0
587,78.0,60.0,60.0,0.0,0.0
588,59.0,0.0,60.0,2.0,0.0
589,55.0,0.0,60.0,2.0,0.0
590,76.0,60.0,60.0,0.0,0.0
591,57.0,5.0,60.0,2.0,0.0
592,78.0,55.0,60.0,0.0,0.0
593,54.0,0.0,60.0,2.0,0.0
594,81.0,60.0,120.0,0.0,0.0
595,76.0,0.0,60.0,1.0,0.0
596,62.0,0.0,60.0,2.0,0.0
597,59.0,60.0,60.0,2.0,0.0
598,74.0,0.0,60.0,1.0,0.0
599,79.0,0.0,120.0,0.0,0.0
600,72.0,0.0,60.0,1.0,0.0
601,55.0,60.0,60.0,2.0,0.0
602,71.0,0.0,60.0,1.0,0.0
603,50.0,60.0,60.0,2.0,0.0
604,69.0,0.0,60.0,1.0,0.0
605,55.0,60.0,60.0,2.0,0.0
606,50.0,0.0,60.0,2.0,0.0
607,67.0,60.0,60.0,1.0,0.0
608,47.0,120.0,60.0,2.0,0.0
609,69.0,0.0,60.0,1.0,0.0
610,71.0,120.0,240.0,1.0,0.0
611,43.0,60.0,120.0,2.0,0.0
612,74.0,0.0,60.0,0.0,0.0
613,79.0,60.0,60.0,0.0,0.0
614,55.0,0.0,120.0,2.0,0.0
615,76.0,0.0,60.0,0.0,0.0
616,57.0,0.0,120.0,2.0,0.0
617,77.0,120.0,240.0,0.0,0.0
618,74.0,60.0,60.0,1.0,0.0
619,59.0,0.0,120.0,2.0,0.0
620,71.0,60.0,60.0,1.0,0.0
621,67.0,0.0,60.0,1.0,0.0
622,60.0,60.0,120.0,2.0,0.0
623,76.0,0.0,60.0,0.0,0.0
624,57.0,0.0,120.0,2.0,0.0
625,81.0,60.0,60.0,0.0,0.0
626,78.0,120.0,60.0,0.0,0.0
627,59.0,60.0,120.0,2.0,0.0
628,79.0,120.0,240.0,0.0,0.0
629,76.0,0.0,60.0,1.0,0.0
630,61.0,0.0,120.0,2.0,0.0
631,73.0,60.0,60.0,1.0,0.0
632,69.0,0.0,60.0,1.0,0.0
633,62.0,60.0,120.0,2.0,0.0
634,78.0,0.0,60.0,0.0,0.0
635,83.0,60.0,60.0,0.0,0.0
636,59.0,0.0,120.0,2.0,0.0
637,79.0,120.0,60.0,0.0,0.0
638,81.0,0.0,240.0,0.0,0.0
639,61.0,0.0,120.0,2.0,0.0
640,78.0,60.0,60.0,1.0,0.0
641,75.0,60.0,60.0,1.0,0.0
642,63.0,0.0,120.0,2.0,0.0
643,71.0,120.0,60.0,1.0,0.0
644,64.0,60.0,120.0,2.0,0.0
645,79.0,0.0,60.0,0.0,0.0
646,83.0,60.0,60.0,0.0,0.0
647,52.0,60.0,120.0,2.0,0.0
648,86.0,0.0,60.0,0.0,0.0
649,84.0,60.0,60.0,0.0,0.0
650,54.0,0.0,120.0,2.0,0.0
651,81.0,60.0,60.0,0.0,0.0
652,55.0,60.0,180.0,2.0,0.0
653,77.0,60.0,60.0,0.0,0.0
654,83.0,60.0,60.0,0.0,0.0
655,81.0,60.0,120.0,0.0,0.0
656,54.0,0.0,60.0,2.0,0.0
657,52.0,60.0,60.0,2.0,0.0
658,81.0,0.0,120.0,1.0,0.0
659,84.0,60.0,120.0,0.0,0.0
660,54.0,0.0,60.0,2.0,0.0
661,50.0,60.0,60.0,2.0,0.0
662,79.0,0.0,120.0,1.0,0.0
663,83.0,0.0,120.0,0.0,0.0
664,55.0,60.0,60.0,2.0,0.0
665,54.0,60.0,60.0,2.0,0.0
666,81.0,0.0,120.0,0.0,0.0
667,72.0,60.0,120.0,1.0,0.0
668,55.0,0.0,60.0,2.0,0.0
669,74.0,60.0,120.0,1.0,0.0
670,59.0,0.0,120.0,2.0,0.0
671,79.0,60.0,60.0,0.0,0.0
672,76.0,0.0,60.0,0.0,0.0
673,78.0,0.0,60.0,0.0,0.0
674,72.0,60.0,60.0,1.0,0.0
675,57.0,60.0,120.0,2.0,0.0
676,79.0,0.0,60.0,0.0,0.0
677,71.0,0.0,60.0,1.0,0.0
678,72.0,60.0,60.0,1.0,0.0
679,81.0,60.0,300.0,0.0,0.0
680,78.0,60.0,60.0,1.0,0.0
681,54.0,0.0,60.0,2.0,0.0
682,74.0,60.0,60.0,1.0,0.0
683,50.0,60.0,60.0,2.0,0.0
684,69.0,0.0,60.0,1.0,0.0
685,60.0,0.0,120.0,2.0,0.0
686,66.0,0.0,120.0,1.0,0.0
687,79.0,60.0,60.0,0.0,0.0
688,59.0,60.0,120.0,2.0,0.0
689,67.0,60.0,240.0,1.0,0.0
690,81.0,60.0,60.0,0.0,0.0
691,83.0,0.0,60.0,0.0,0.0
692,84.0,60.0,60.0,0.0,0.0
693,57.0,0.0,240.0,2.0,0.0
694,81.0,0.0,60.0,0.0,0.0
695,66.0,60.0,120.0,1.0,0.0
696,74.0,60.0,60.0,0.0,0.0
697,84.0,0.0,60.0,0.0,0.0
698,83.0,60.0,60.0,0.0,0.0
699,55.0,60.0,120.0,2.0,0.0
700,67.0,0.0,120.0,1.0,0.0
701,86.0,0.0,60.0,0.0,0.0
702,83.0,60.0,60.0,0.0,0.0
703,43.0,120.0,120.0,2.0,0.0
704,79.0,0.0,60.0,0.0,0.0
705,77.0,60.0,240.0,0.0,0.0
706,45.0,0.0,120.0,2.0,0.0
707,74.0,60.0,60.0,1.0,0.0
708,71.0,60.0,60.0,1.0,0.0
709,47.0,0.0,120.0,2.0,0.0
710,67.0,0.0,60.0,1.0,0.0
711,76.0,60.0,60.0,0.0,0.0
712,60.0,60.0,120.0,1.0,0.0
713,48.0,0.0,120.0,2.0,0.0
714,88.0,0.0,60.0,0.0,0.0
715,45.0,0.0,120.0,2.0,0.0
716,84.0,60.0,60.0,0.0,0.0
717,81.0,120.0,60.0,0.0,0.0
718,79.0,27.0,210.0,0.0,0.0
719,47.0,60.0,120.0,2.0,0.0
720,76.0,0.0,60.0,1.0,0.0
721,73.0,33.0,60.0,1.0,0.0
722,49.0,60.0,120.0,2.0,0.0
723,69.0,0.0,60.0,1.0,0.0
724,78.0,55.0,60.0,0.0,0.0
725,50.0,5.0,120.0,2.0,0.0
726,62.0,60.0,120.0,1.0,0.0
727,81.0,0.0,60.0,0.0,0.0
728,50.0,120.0,120.0,2.0,0.0
729,78.0,60.0,60.0,0.0,0.0
730,74.0,0.0,60.0,0.0,0.0
731,72.0,60.0,300.0,0.0,0.0
732,52.0,4.0,120.0,2.0,0.0
733,69.0,57.0,60.0,1.0,0.0
734,66.0,59.0,60.0,1.0,0.0
735,54.0,0.0,120.0,2.0,0.0
736,62.0,60.0,60.0,1.0,0.0
737,55.0,60.0,780.0,2.0,0.0
738,71.0,60.0,60.0,0.0,0.0
739,69.0,60.0,60.0,0.0,0.0
740,65.0,0.0,120.0,1.0,0.0
741,71.0,60.0,60.0,0.0,0.0
742,67.0,60.0,60.0,0.0,0.0
743,64.0,60.0,120.0,1.0,0.0
744,72.0,0.0,60.0,0.0,0.0
745,71.0,60.0,60.0,0.0,0.0
746,62.0,0.0,120.0,1.0,0.0
747,72.0,60.0,60.0,0.0,0.0
748,60.0,60.0,60.0,1.0,0.0
749,76.0,60.0,120.0,0.0,0.0
750,59.0,0.0,60.0,1.0,0.0
751,60.0,60.0,60.0,1.0,0.0
752,74.0,60.0,120.0,0.0,0.0
753,62.0,0.0,60.0,1.0,0.0
754,64.0,54.0,300.0,1.0,0.0
755,54.0,60.0,60.0,2.0,0.0
756,55.0,0.0,60.0,2.0,0.0
757,73.0,60.0,60.0,0.0,0.0
758,57.0,0.0,60.0,2.0,0.0
759,69.0,66.0,60.0,0.0,0.0
760,79.0,0.0,120.0,0.0,0.0
761,59.0,0.0,180.0,2.0,0.0
762,62.0,60.0,60.0,1.0,0.0
763,78.0,5.0,120.0,0.0,0.0
764,64.0,55.0,60.0,1.0,0.0
765,66.0,20.0,60.0,1.0,0.0
766,57.0,0.0,60.0,2.0,0.0
767,67.0,20.0,60.0,1.0,0.0
768,78.0,20.0,20.0,0.0,0.0
769,55.0,20.0,120.0,2.0,0.0
770,76.0,20.0,20.0,0.0,0.0
771,78.0,0.0,20.0,0.0,0.0
772,76.0,20.0,20.0,0.0,0.0
773,64.0,0.0,60.0,1.0,0.0
774,78.0,20.0,20.0,0.0,0.0
775,76.0,0.0,20.0,0.0,0.0
776,78.0,20.0,20.0,0.0,0.0
777,57.0,60.0,120.0,2.0,0.0
778,76.0,20.0,20.0,0.0,0.0
779,78.0,20.0,20.0,0.0,0.0
780,67.0,0.0,60.0,1.0,0.0
781,76.0,20.0,20.0,0.0,0.0
782,78.0,20.0,20.0,0.0,0.0
783,76.0,0.0,20.0,0.0,0.0
784,66.0,0.0,120.0,1.0,0.0
785,74.0,60.0,120.0,0.0,0.0
786,50.0,60.0,60.0,2.0,0.0
787,57.0,0.0,60.0,2.0,0.0
788,81.0,0.0,120.0,0.0,0.0
789,54.0,60.0,60.0,2.0,0.0
790,50.0,60.0,60.0,2.0,0.0
791,78.0,60.0,120.0,0.0,0.0
792,48.0,60.0,60.0,2.0,0.0
793,57.0,0.0,60.0,2.0,0.0
794,54.0,60.0,60.0,2.0,0.0
795,74.0,0.0,120.0,0.0,0.0
796,48.0,120.0,60.0,2.0,0.0
797,86.0,60.0,600.0,0.0,0.0
798,47.0,0.0,120.0,2.0,0.0
799,74.0,60.0,60.0,1.0,0.0
800,59.0,60.0,120.0,2.0,0.0
801,79.0,60.0,60.0,1.0,0.0
802,83.0,0.0,60.0,1.0,0.0
803,77.0,60.0,60.0,1.0,0.0
804,74.0,60.0,60.0,1.0,0.0
805,77.0,60.0,60.0,1.0,0.0
806,43.0,0.0,120.0,2.0,0.0
807,83.0,60.0,60.0,1.0,0.0
808,48.0,60.0,60.0,2.0,0.0
809,76.0,0.0,120.0,1.0,0.0
810,55.0,0.0,60.0,2.0,0.0
811,79.0,0.0,120.0,0.0,0.0
812,52.0,60.0,60.0,2.0,0.0
813,48.0,60.0,60.0,2.0,0.0
814,76.0,60.0,120.0,0.0,0.0
815,47.0,60.0,60.0,2.0,0.0
816,55.0,0.0,60.0,2.0,0.0
817,52.0,60.0,60.0,2.0,0.0
818,72.0,0.0,120.0,0.0,0.0
819,47.0,120.0,60.0,2.0,0.0
820,84.0,60.0,600.0,0.0,0.0
821,45.0,58.0,120.0,2.0,0.0
822,72.0,2.0,60.0,1.0,0.0
823,57.0,58.0,120.0,2.0,0.0
824,78.0,60.0,60.0,1.0,0.0
825,81.0,2.0,60.0,1.0,0.0
826,76.0,60.0,60.0,1.0,0.0
827,72.0,60.0,60.0,1.0,0.0
828,76.0,60.0,60.0,1.0,0.0
829,42.0,60.0,120.0,2.0,0.0
830,81.0,0.0,60.0,1.0,0.0
831,74.0,0.0,120.0,1.0,0.0
832,47.0,60.0,60.0,2.0,0.0
833,54.0,0.0,60.0,2.0,0.0
834,78.0,0.0,120.0,0.0,0.0
835,50.0,60.0,60.0,2.0,0.0
836,47.0,60.0,60.0,2.0,0.0
837,74.0,0.0,120.0,0.0,0.0
838,45.0,60.0,60.0,2.0,0.0
839,54.0,60.0,60.0,2.0,0.0
840,71.0,60.0,120.0,0.0,0.0
841,50.0,60.0,60.0,2.0,0.0
842,45.0,0.0,60.0,2.0,0.0
843,83.0,60.0,300.0,0.0,0.0
844,44.0,60.0,60.0,2.0,0.0
845,52.0,60.0,60.0,2.0,0.0
846,74.0,0.0,120.0,1.0,0.0
847,47.0,60.0,60.0,2.0,0.0
848,44.0,60.0,60.0,2.0,0.0
849,72.0,60.0,480.0,1.0,0.0
850,45.0,0.0,60.0,2.0,0.0
851,52.0,0.0,60.0,2.0,0.0
852,76.0,60.0,60.0,0.0,0.0
853,78.0,60.0,60.0,0.0,0.0
854,48.0,0.0,60.0,2.0,0.0
855,79.0,0.0,60.0,0.0,0.0
856,45.0,60.0,60.0,2.0,0.0
857,42.0,0.0,60.0,2.0,0.0
858,81.0,60.0,60.0,0.0,0.0
859,79.0,0.0,60.0,0.0,0.0
860,50.0,60.0,60.0,2.0,0.0
861,45.0,0.0,60.0,2.0,0.0
862,78.0,60.0,60.0,0.0,0.0
863,42.0,0.0,60.0,2.0,0.0
864,76.0,0.0,60.0,0.0,0.0
865,43.0,60.0,60.0,2.0,0.0
866,74.0,0.0,60.0,0.0,0.0
867,71.0,60.0,120.0,1.0,0.0
868,72.0,0.0,60.0,0.0,0.0
869,50.0,0.0,60.0,2.0,0.0
870,74.0,60.0,60.0,0.0,0.0
871,47.0,0.0,60.0,2.0,0.0
872,67.0,60.0,180.0,1.0,0.0
873,43.0,60.0,60.0,2.0,0.0
874,76.0,0.0,60.0,0.0,0.0
875,69.0,0.0,240.0,0.0,0.0
876,50.0,0.0,120.0,2.0,0.0
877,66.0,60.0,60.0,1.0,0.0
878,57.0,0.0,120.0,2.0,0.0
879,64.0,60.0,60.0,1.0,0.0
880,66.0,60.0,60.0,1.0,0.0
881,54.0,0.0,120.0,2.0,0.0
882,62.0,60.0,60.0,1.0,0.0
883,67.0,60.0,60.0,1.0,0.0
884,69.0,0.0,120.0,0.0,0.0
885,50.0,120.0,120.0,2.0,0.0
886,66.0,60.0,60.0,1.0,0.0
887,67.0,0.0,60.0,1.0,0.0
888,70.0,0.0,120.0,1.0,0.0
889,61.0,0.0,120.0,2.0,0.0
890,79.0,120.0,120.0,0.0,0.0
891,60.0,120.0,120.0,2.0,0.0
892,78.0,0.0,120.0,0.0,0.0
893,69.0,0.0,120.0,1.0,0.0
894,60.0,60.0,60.0,2.0,0.0
895,57.0,60.0,60.0,2.0,0.0
896,66.0,0.0,60.0,1.0,0.0
897,54.0,0.0,60.0,2.0,0.0
898,62.0,120.0,60.0,1.0,0.0
899,50.0,0.0,120.0,2.0,0.0
900,72.0,115.0,120.0,1.0,0.0
901,81.0,0.0,120.0,0.0,0.0
902,79.0,0.0,240.0,0.0,0.0
903,55.0,20.0,120.0,2.0,0.0
904,71.0,5.0,120.0,1.0,0.0
905,71.0,20.0,20.0,1.0,0.0
906,62.0,120.0,120.0,2.0,0.0
907,69.0,20.0,20.0,1.0,0.0
908,71.0,20.0,20.0,1.0,0.0
909,69.0,20.0,20.0,1.0,0.0
910,71.0,20.0,20.0,1.0,0.0
911,69.0,0.0,150.0,1.0,0.0
912,78.0,60.0,120.0,0.0,0.0
913,63.0,0.0,120.0,2.0,0.0
914,64.0,70.0,300.0,2.0,0.0
915,79.0,60.0,60.0,0.0,0.0
916,67.0,48.0,240.0,1.0,0.0
917,83.0,60.0,60.0,0.0,0.0
918,79.0,48.0,60.0,0.0,0.0
919,76.0,14.0,60.0,0.0,0.0
920,72.0,60.0,300.0,0.0,0.0
921,64.0,60.0,60.0,2.0,0.0
922,60.0,60.0,60.0,2.0,0.0
923,69.0,0.0,120.0,1.0,0.0
924,57.0,60.0,60.0,2.0,0.0
925,62.0,60.0,360.0,1.0,0.0
926,54.0,60.0,120.0,2.0,0.0
927,81.0,0.0,60.0,0.0,0.0
928,50.0,120.0,120.0,2.0,0.0
929,78.0,60.0,60.0,0.0,0.0
930,74.0,0.0,60.0,0.0,0.0
931,71.0,0.0,120.0,0.0,0.0
932,55.0,0.0,60.0,2.0,0.0
933,69.0,60.0,180.0,1.0,0.0
934,79.0,0.0,120.0,0.0,0.0
935,52.0,60.0,60.0,2.0,0.0
936,48.0,60.0,60.0,2.0,0.0
937,71.0,60.0,240.0,0.0,0.0
938,50.0,0.0,480.0,2.0,0.0
939,66.0,60.0,60.0,1.0,0.0
940,67.0,60.0,60.0,1.0,0.0
941,62.0,60.0,120.0,1.0,0.0
942,69.0,60.0,240.0,0.0,0.0
943,64.0,60.0,60.0,1.0,0.0
944,66.0,60.0,60.0,1.0,0.0
945,60.0,120.0,120.0,1.0,0.0
946,43.0,0.0,960.0,2.0,0.0
947,67.0,0.0,960.0,0.0,0.0
948,65.0,60.0,180.0,0.0,0.0
949,62.0,60.0,60.0,1.0,0.0
950,59.0,60.0,120.0,1.0,0.0
951,64.0,60.0,180.0,0.0,0.0
952,60.0,60.0,60.0,1.0,0.0
953,57.0,480.0,120.0,1.0,0.0
954,63.0,0.0,60.0,0.0,0.0
955,62.0,0.0,480.0,0.0,0.0
956,59.0,0.0,480.0,1.0,0.0
