,note,step,duration,channel,velocity
0,58.0,11.0,360.0,2.0,64.0
1,43.0,1.0,1080.0,3.0,64.0
2,62.0,5.0,240.0,1.0,64.0
3,67.0,19.0,40.0,4.0,64.0
4,67.0,14.0,40.0,0.0,64.0
5,69.0,2.0,40.0,4.0,64.0
6,69.0,10.0,30.0,0.0,64.0
7,70.0,16.0,40.0,4.0,64.0
8,70.0,1.0,40.0,0.0,64.0
9,69.0,18.0,20.0,4.0,64.0
10,69.0,8.0,30.0,0.0,64.0
11,70.0,14.0,30.0,4.0,64.0
12,70.0,19.0,30.0,0.0,64.0
13,69.0,1.0,20.0,4.0,64.0
14,69.0,2.0,20.0,0.0,64.0
15,70.0,4.0,20.0,4.0,64.0
16,69.0,4.0,20.0,4.0,64.0
17,70.0,20.0,20.0,0.0,64.0
18,70.0,1.0,30.0,4.0,64.0
19,69.0,16.0,30.0,0.0,64.0
20,69.0,7.0,20.0,4.0,64.0
21,70.0,16.0,30.0,0.0,64.0
22,70.0,3.0,30.0,4.0,64.0
23,69.0,11.0,30.0,0.0,64.0
24,60.0,3.0,30.0,2.0,64.0
25,66.0,2.0,30.0,1.0,64.0
26,69.0,22.0,30.0,4.0,64.0
27,67.0,12.0,40.0,0.0,64.0
28,67.0,3.0,40.0,4.0,64.0
29,69.0,4.0,30.0,0.0,64.0
30,69.0,84.0,20.0,4.0,64.0
31,66.0,7.0,150.0,1.0,64.0
32,60.0,80.0,150.0,2.0,64.0
33,70.0,33.0,90.0,0.0,64.0
34,70.0,5.0,120.0,4.0,64.0
35,67.0,29.0,180.0,1.0,64.0
36,62.0,102.0,240.0,2.0,64.0
37,69.0,16.0,40.0,0.0,64.0
38,69.0,6.0,40.0,4.0,64.0
39,67.0,15.0,40.0,0.0,64.0
40,67.0,46.0,40.0,4.0,64.0
41,75.0,11.0,90.0,0.0,64.0
42,75.0,9.0,90.0,4.0,64.0
43,66.0,4.0,30.0,2.0,64.0
44,69.0,12.0,30.0,1.0,64.0
45,75.0,4.0,30.0,4.0,64.0
46,75.0,142.0,20.0,0.0,64.0
47,67.0,1.0,150.0,2.0,64.0
48,70.0,8.0,120.0,1.0,64.0
49,75.0,0.0,120.0,4.0,64.0
50,75.0,81.0,120.0,0.0,64.0
51,74.0,8.0,240.0,4.0,64.0
52,74.0,30.0,240.0,0.0,64.0
53,58.0,6.0,40.0,2.0,64.0
54,43.0,18.0,40.0,3.0,64.0
55,69.0,1.0,40.0,1.0,64.0
56,67.0,30.0,40.0,1.0,64.0
57,60.0,1.0,40.0,2.0,64.0
58,45.0,4.0,40.0,3.0,64.0
59,46.0,20.0,40.0,3.0,64.0
60,66.0,5.0,90.0,1.0,64.0
61,62.0,0.0,40.0,2.0,64.0
62,45.0,27.0,20.0,3.0,64.0
63,60.0,0.0,20.0,2.0,64.0
64,46.0,11.0,30.0,3.0,64.0
65,62.0,1.0,30.0,2.0,64.0
66,60.0,7.0,30.0,2.0,64.0
67,45.0,5.0,20.0,3.0,64.0
68,46.0,9.0,30.0,3.0,64.0
69,62.0,8.0,15.0,2.0,64.0
70,60.0,0.0,15.0,2.0,64.0
71,45.0,3.0,15.0,3.0,64.0
72,62.0,3.0,30.0,2.0,64.0
73,46.0,13.0,30.0,3.0,64.0
74,60.0,4.0,30.0,2.0,64.0
75,45.0,33.0,30.0,3.0,64.0
76,58.0,4.0,40.0,2.0,64.0
77,66.0,7.0,40.0,1.0,64.0
78,74.0,0.0,30.0,4.0,64.0
79,43.0,0.0,40.0,3.0,64.0
80,74.0,11.0,40.0,0.0,64.0
81,60.0,3.0,40.0,2.0,64.0
82,45.0,93.0,40.0,3.0,64.0
83,67.0,9.0,90.0,1.0,64.0
84,67.0,32.0,180.0,4.0,64.0
85,62.0,41.0,120.0,2.0,64.0
86,46.0,12.0,90.0,3.0,64.0
87,67.0,18.0,150.0,0.0,64.0
88,45.0,9.0,40.0,3.0,64.0
89,60.0,6.0,40.0,2.0,64.0
90,70.0,24.0,40.0,1.0,64.0
91,58.0,76.0,40.0,2.0,64.0
92,43.0,1.0,40.0,3.0,64.0
93,69.0,16.0,90.0,1.0,64.0
94,51.0,94.0,120.0,3.0,64.0
95,72.0,14.0,390.0,4.0,64.0
96,60.0,5.0,90.0,2.0,64.0
97,72.0,2.0,360.0,0.0,64.0
98,67.0,9.0,30.0,1.0,64.0
99,51.0,11.0,30.0,3.0,64.0
100,63.0,100.0,40.0,2.0,64.0
101,67.0,31.0,90.0,1.0,64.0
102,57.0,5.0,360.0,2.0,64.0
103,51.0,17.0,120.0,3.0,64.0
104,66.0,14.0,40.0,1.0,64.0
105,67.0,7.0,40.0,1.0,64.0
106,50.0,1.0,960.0,3.0,64.0
107,66.0,22.0,20.0,1.0,64.0
108,67.0,15.0,20.0,1.0,64.0
109,74.0,3.0,30.0,0.0,64.0
110,74.0,16.0,30.0,4.0,64.0
111,66.0,7.0,20.0,1.0,64.0
112,75.0,8.0,30.0,0.0,64.0
113,67.0,5.0,30.0,1.0,64.0
114,75.0,94.0,30.0,4.0,64.0
115,66.0,7.0,120.0,1.0,64.0
116,74.0,85.0,120.0,4.0,64.0
117,74.0,1.0,90.0,0.0,64.0
118,75.0,11.0,40.0,4.0,64.0
119,75.0,1.0,40.0,0.0,64.0
120,66.0,5.0,30.0,1.0,64.0
121,72.0,1.0,30.0,4.0,64.0
122,57.0,12.0,30.0,2.0,64.0
123,72.0,66.0,20.0,0.0,64.0
124,69.0,18.0,60.0,1.0,64.0
125,72.0,8.0,90.0,4.0,64.0
126,50.0,6.0,120.0,2.0,64.0
127,72.0,19.0,60.0,0.0,64.0
128,67.0,6.0,40.0,1.0,64.0
129,70.0,2.0,40.0,4.0,64.0
130,70.0,15.0,40.0,0.0,64.0
131,69.0,4.0,30.0,1.0,64.0
132,72.0,2.0,40.0,4.0,64.0
133,67.0,7.0,20.0,1.0,64.0
134,72.0,9.0,30.0,0.0,64.0
135,69.0,10.0,20.0,1.0,64.0
136,70.0,0.0,30.0,4.0,64.0
137,70.0,10.0,20.0,0.0,64.0
138,67.0,11.0,20.0,1.0,64.0
139,72.0,3.0,20.0,4.0,64.0
140,72.0,12.0,20.0,0.0,64.0
141,69.0,5.0,20.0,1.0,64.0
142,58.0,4.0,40.0,2.0,64.0
143,70.0,4.0,20.0,4.0,64.0
144,70.0,10.0,20.0,0.0,64.0
145,67.0,6.0,30.0,1.0,64.0
146,72.0,13.0,20.0,0.0,64.0
147,72.0,0.0,20.0,4.0,64.0
148,60.0,1.0,40.0,2.0,64.0
149,69.0,7.0,30.0,1.0,64.0
150,70.0,6.0,20.0,4.0,64.0
151,70.0,12.0,120.0,0.0,64.0
152,72.0,14.0,30.0,4.0,64.0
153,62.0,19.0,40.0,2.0,64.0
154,67.0,16.0,120.0,1.0,64.0
155,72.0,11.0,15.0,0.0,64.0
156,70.0,13.0,150.0,4.0,64.0
157,60.0,24.0,30.0,2.0,64.0
158,62.0,22.0,20.0,2.0,64.0
159,60.0,7.0,30.0,2.0,64.0
160,62.0,17.0,60.0,2.0,64.0
161,60.0,17.0,15.0,2.0,64.0
162,60.0,18.0,30.0,2.0,64.0
163,66.0,11.0,30.0,1.0,64.0
164,58.0,1.0,40.0,2.0,64.0
165,69.0,6.0,30.0,0.0,64.0
166,69.0,17.0,40.0,4.0,64.0
167,60.0,119.0,40.0,2.0,64.0
168,66.0,59.0,120.0,1.0,64.0
169,69.0,5.0,360.0,0.0,64.0
170,62.0,10.0,120.0,2.0,64.0
171,69.0,10.0,330.0,4.0,64.0
172,67.0,37.0,40.0,1.0,64.0
173,66.0,5.0,40.0,1.0,64.0
174,50.0,1.0,40.0,3.0,64.0
175,62.0,16.0,40.0,2.0,64.0
176,67.0,4.0,40.0,1.0,64.0
177,52.0,18.0,40.0,3.0,64.0
178,69.0,1.0,40.0,1.0,64.0
179,54.0,24.0,40.0,3.0,64.0
180,60.0,4.0,90.0,2.0,64.0
181,62.0,13.0,15.0,2.0,64.0
182,52.0,0.0,30.0,3.0,64.0
183,67.0,22.0,30.0,1.0,64.0
184,54.0,0.0,30.0,3.0,64.0
185,69.0,7.0,30.0,1.0,64.0
186,52.0,2.0,30.0,3.0,64.0
187,67.0,28.0,30.0,1.0,64.0
188,69.0,12.0,60.0,1.0,64.0
189,54.0,12.0,40.0,3.0,64.0
190,67.0,7.0,20.0,1.0,64.0
191,52.0,11.0,40.0,3.0,64.0
192,67.0,28.0,30.0,1.0,64.0
193,50.0,5.0,40.0,3.0,64.0
194,66.0,8.0,40.0,1.0,64.0
195,58.0,10.0,40.0,2.0,64.0
196,69.0,1.0,40.0,4.0,64.0
197,69.0,2.0,30.0,0.0,64.0
198,52.0,11.0,40.0,3.0,64.0
199,67.0,83.0,40.0,1.0,64.0
200,54.0,13.0,120.0,3.0,64.0
201,57.0,13.0,90.0,2.0,64.0
202,74.0,101.0,360.0,4.0,64.0
203,69.0,92.0,120.0,1.0,64.0
204,74.0,0.0,330.0,0.0,64.0
205,52.0,18.0,40.0,3.0,64.0
206,67.0,0.0,30.0,1.0,64.0
207,57.0,89.0,40.0,2.0,64.0
208,50.0,1.0,40.0,3.0,64.0
209,66.0,6.0,30.0,1.0,64.0
210,55.0,6.0,120.0,3.0,64.0
211,67.0,10.0,90.0,1.0,64.0
212,59.0,10.0,90.0,2.0,64.0
213,75.0,2.0,40.0,4.0,64.0
214,75.0,0.0,30.0,0.0,64.0
215,67.0,22.0,30.0,1.0,64.0
216,60.0,1.0,40.0,2.0,64.0
217,55.0,104.0,40.0,3.0,64.0
218,72.0,14.0,120.0,4.0,64.0
219,67.0,4.0,300.0,1.0,64.0
220,72.0,107.0,120.0,0.0,64.0
221,55.0,13.0,90.0,3.0,64.0
222,62.0,8.0,300.0,2.0,64.0
223,71.0,99.0,240.0,4.0,64.0
224,71.0,25.0,210.0,0.0,64.0
225,56.0,74.0,40.0,3.0,64.0
226,55.0,19.0,60.0,3.0,64.0
227,67.0,6.0,40.0,1.0,64.0
228,62.0,3.0,40.0,2.0,64.0
229,71.0,77.0,40.0,4.0,64.0
230,53.0,3.0,40.0,3.0,64.0
231,71.0,1.0,40.0,0.0,64.0
232,72.0,3.0,60.0,4.0,64.0
233,72.0,5.0,90.0,0.0,64.0
234,51.0,140.0,90.0,3.0,64.0
235,55.0,3.0,90.0,1.0,64.0
236,63.0,2.0,60.0,2.0,64.0
237,67.0,3.0,40.0,1.0,64.0
238,62.0,0.0,40.0,2.0,64.0
239,71.0,85.0,40.0,4.0,64.0
240,53.0,3.0,40.0,3.0,64.0
241,71.0,3.0,40.0,0.0,64.0
242,72.0,2.0,90.0,4.0,64.0
243,69.0,130.0,90.0,1.0,64.0
244,63.0,1.0,90.0,2.0,64.0
245,51.0,1.0,90.0,3.0,64.0
246,72.0,2.0,90.0,0.0,64.0
247,74.0,5.0,30.0,0.0,64.0
248,74.0,2.0,40.0,4.0,64.0
249,71.0,7.0,40.0,1.0,64.0
250,50.0,114.0,40.0,3.0,64.0
251,65.0,3.0,40.0,2.0,64.0
252,48.0,31.0,90.0,3.0,64.0
253,67.0,105.0,570.0,2.0,64.0
254,72.0,2.0,540.0,1.0,64.0
255,74.0,0.0,120.0,0.0,64.0
256,74.0,86.0,120.0,4.0,64.0
257,75.0,6.0,210.0,4.0,64.0
258,75.0,20.0,240.0,0.0,64.0
259,36.0,8.0,40.0,3.0,64.0
260,38.0,0.0,30.0,3.0,64.0
261,37.0,48.0,15.0,3.0,64.0
262,39.0,21.0,40.0,3.0,64.0
263,38.0,26.0,30.0,3.0,64.0
264,39.0,11.0,30.0,3.0,64.0
265,38.0,18.0,20.0,3.0,64.0
266,39.0,24.0,30.0,3.0,64.0
267,38.0,39.0,40.0,3.0,64.0
268,36.0,15.0,40.0,3.0,64.0
269,38.0,14.0,30.0,3.0,64.0
270,79.0,78.0,40.0,4.0,64.0
271,79.0,1.0,40.0,0.0,64.0
272,39.0,3.0,90.0,3.0,64.0
273,72.0,9.0,60.0,0.0,64.0
274,72.0,2.0,90.0,4.0,64.0
275,38.0,34.0,40.0,3.0,64.0
276,72.0,1.0,40.0,0.0,64.0
277,36.0,6.0,40.0,3.0,64.0
278,70.0,1.0,40.0,1.0,64.0
279,72.0,0.0,40.0,4.0,64.0
280,67.0,80.0,40.0,2.0,64.0
281,74.0,1.0,90.0,0.0,64.0
282,74.0,2.0,90.0,4.0,64.0
283,41.0,116.0,90.0,3.0,64.0
284,69.0,16.0,90.0,1.0,64.0
285,65.0,1.0,60.0,2.0,64.0
286,67.0,4.0,30.0,1.0,64.0
287,58.0,1.0,40.0,2.0,64.0
288,75.0,2.0,40.0,0.0,64.0
289,75.0,2.0,30.0,4.0,64.0
290,41.0,116.0,30.0,3.0,64.0
291,65.0,101.0,360.0,1.0,64.0
292,60.0,10.0,330.0,2.0,64.0
293,41.0,27.0,90.0,3.0,64.0
294,70.0,19.0,120.0,4.0,64.0
295,70.0,88.0,150.0,0.0,64.0
296,69.0,5.0,240.0,4.0,64.0
297,69.0,15.0,210.0,0.0,64.0
298,48.0,87.0,40.0,3.0,64.0
299,53.0,16.0,90.0,3.0,64.0
300,69.0,3.0,40.0,0.0,64.0
301,60.0,7.0,40.0,2.0,64.0
302,51.0,10.0,40.0,3.0,64.0
303,65.0,1.0,40.0,1.0,64.0
304,69.0,65.0,60.0,4.0,64.0
305,70.0,4.0,90.0,0.0,64.0
306,70.0,7.0,60.0,4.0,64.0
307,62.0,2.0,90.0,2.0,64.0
308,50.0,126.0,90.0,3.0,64.0
309,53.0,11.0,60.0,1.0,64.0
310,60.0,4.0,40.0,2.0,64.0
311,65.0,1.0,40.0,1.0,64.0
312,69.0,8.0,40.0,0.0,64.0
313,51.0,3.0,40.0,3.0,64.0
314,69.0,81.0,40.0,4.0,64.0
315,62.0,1.0,90.0,2.0,64.0
316,67.0,18.0,90.0,1.0,64.0
317,70.0,1.0,90.0,0.0,64.0
318,50.0,4.0,90.0,3.0,64.0
319,70.0,114.0,90.0,4.0,64.0
320,69.0,5.0,40.0,1.0,64.0
321,63.0,1.0,40.0,2.0,64.0
322,72.0,1.0,40.0,0.0,64.0
323,48.0,3.0,40.0,3.0,64.0
324,72.0,114.0,40.0,4.0,64.0
325,65.0,2.0,600.0,2.0,64.0
326,74.0,6.0,120.0,0.0,64.0
327,46.0,13.0,90.0,3.0,64.0
328,70.0,86.0,600.0,1.0,64.0
329,74.0,69.0,120.0,4.0,64.0
330,48.0,3.0,40.0,3.0,64.0
331,75.0,3.0,30.0,0.0,64.0
332,75.0,29.0,30.0,4.0,64.0
333,46.0,9.0,40.0,3.0,64.0
334,74.0,1.0,40.0,0.0,64.0
335,74.0,14.0,40.0,4.0,64.0
336,48.0,6.0,40.0,3.0,64.0
337,75.0,1.0,30.0,0.0,64.0
338,75.0,19.0,40.0,4.0,64.0
339,77.0,6.0,40.0,0.0,64.0
340,77.0,14.0,40.0,4.0,64.0
341,50.0,6.0,30.0,3.0,64.0
342,75.0,4.0,30.0,0.0,64.0
343,48.0,6.0,30.0,3.0,64.0
344,75.0,14.0,30.0,4.0,64.0
345,77.0,2.0,30.0,0.0,64.0
346,50.0,8.0,30.0,3.0,64.0
347,77.0,11.0,30.0,4.0,64.0
348,48.0,10.0,30.0,3.0,64.0
349,75.0,1.0,20.0,0.0,64.0
350,75.0,16.0,20.0,4.0,64.0
351,77.0,19.0,60.0,0.0,64.0
352,50.0,9.0,40.0,3.0,64.0
353,77.0,6.0,20.0,4.0,64.0
354,75.0,4.0,15.0,0.0,64.0
355,48.0,1.0,30.0,3.0,64.0
356,75.0,7.0,15.0,4.0,64.0
357,77.0,0.0,30.0,4.0,64.0
358,75.0,18.0,30.0,0.0,64.0
359,46.0,0.0,40.0,3.0,64.0
360,75.0,9.0,30.0,4.0,64.0
361,74.0,9.0,30.0,0.0,64.0
362,48.0,13.0,40.0,3.0,64.0
363,74.0,10.0,30.0,4.0,64.0
364,75.0,17.0,40.0,0.0,64.0
365,75.0,72.0,40.0,4.0,64.0
366,50.0,15.0,120.0,3.0,64.0
367,77.0,15.0,120.0,0.0,64.0
368,77.0,10.0,120.0,4.0,64.0
369,48.0,4.0,40.0,3.0,64.0
370,75.0,1.0,30.0,0.0,64.0
371,75.0,2.0,30.0,4.0,64.0
372,65.0,8.0,40.0,2.0,64.0
373,70.0,4.0,30.0,1.0,64.0
374,74.0,16.0,30.0,0.0,64.0
375,46.0,72.0,40.0,3.0,64.0
376,74.0,1.0,30.0,4.0,64.0
377,51.0,0.0,90.0,3.0,64.0
378,63.0,2.0,90.0,2.0,64.0
379,79.0,8.0,90.0,0.0,64.0
380,70.0,130.0,90.0,1.0,64.0
381,79.0,2.0,90.0,4.0,64.0
382,72.0,0.0,40.0,0.0,64.0
383,67.0,10.0,40.0,2.0,64.0
384,72.0,2.0,40.0,4.0,64.0
385,51.0,1.0,30.0,3.0,64.0
386,72.0,98.0,40.0,1.0,64.0
387,77.0,17.0,300.0,0.0,64.0
388,69.0,34.0,90.0,1.0,64.0
389,77.0,109.0,330.0,4.0,64.0
390,51.0,23.0,120.0,3.0,64.0
391,60.0,65.0,150.0,2.0,64.0
392,50.0,19.0,30.0,3.0,64.0
393,65.0,17.0,40.0,1.0,64.0
394,62.0,0.0,40.0,2.0,64.0
395,48.0,54.0,40.0,3.0,64.0
396,63.0,5.0,30.0,2.0,64.0
397,50.0,14.0,90.0,3.0,64.0
398,65.0,0.0,90.0,2.0,64.0
399,70.0,1.0,60.0,1.0,64.0
400,70.0,5.0,30.0,0.0,64.0
401,70.0,8.0,30.0,4.0,64.0
402,62.0,6.0,40.0,2.0,64.0
403,58.0,96.0,40.0,1.0,64.0
404,55.0,3.0,40.0,3.0,64.0
405,60.0,25.0,90.0,2.0,64.0
406,48.0,89.0,120.0,3.0,64.0
407,70.0,9.0,120.0,4.0,64.0
408,63.0,8.0,90.0,1.0,64.0
409,70.0,0.0,120.0,0.0,64.0
410,69.0,92.0,240.0,4.0,64.0
411,69.0,1.0,210.0,0.0,64.0
412,50.0,7.0,40.0,3.0,64.0
413,62.0,28.0,40.0,1.0,64.0
414,58.0,1.0,40.0,2.0,64.0
415,51.0,61.0,40.0,3.0,64.0
416,57.0,4.0,60.0,2.0,64.0
417,60.0,15.0,60.0,1.0,64.0
418,53.0,21.0,90.0,3.0,64.0
419,75.0,8.0,30.0,0.0,64.0
420,72.0,41.0,60.0,1.0,64.0
421,75.0,4.0,30.0,4.0,64.0
422,53.0,6.0,40.0,2.0,64.0
423,45.0,9.0,40.0,3.0,64.0
424,46.0,24.0,150.0,3.0,64.0
425,65.0,39.0,180.0,2.0,64.0
426,70.0,2.0,180.0,1.0,64.0
427,75.0,22.0,30.0,0.0,64.0
428,75.0,0.0,30.0,4.0,64.0
429,74.0,28.0,30.0,4.0,64.0
430,74.0,2.0,30.0,0.0,64.0
431,75.0,1.0,30.0,0.0,64.0
432,75.0,44.0,40.0,4.0,64.0
433,74.0,7.0,60.0,0.0,64.0
434,74.0,5.0,60.0,4.0,64.0
435,72.0,4.0,40.0,4.0,64.0
436,72.0,26.0,30.0,0.0,64.0
437,70.0,6.0,40.0,4.0,64.0
438,70.0,87.0,40.0,0.0,64.0
439,67.0,15.0,150.0,1.0,64.0
440,72.0,40.0,90.0,4.0,64.0
441,63.0,58.0,150.0,2.0,64.0
442,72.0,2.0,90.0,0.0,64.0
443,39.0,0.0,120.0,3.0,64.0
444,67.0,6.0,40.0,0.0,64.0
445,67.0,104.0,40.0,4.0,64.0
446,70.0,9.0,90.0,0.0,64.0
447,70.0,20.0,90.0,4.0,64.0
448,65.0,4.0,330.0,1.0,64.0
449,62.0,1.0,90.0,2.0,64.0
450,41.0,71.0,390.0,3.0,64.0
451,69.0,8.0,40.0,0.0,64.0
452,60.0,6.0,40.0,2.0,64.0
453,69.0,18.0,40.0,4.0,64.0
454,70.0,8.0,40.0,0.0,64.0
455,70.0,1.0,40.0,4.0,64.0
456,62.0,7.0,30.0,2.0,64.0
457,69.0,13.0,20.0,0.0,64.0
458,60.0,4.0,30.0,2.0,64.0
459,69.0,8.0,20.0,4.0,64.0
460,70.0,12.0,30.0,0.0,64.0
461,62.0,3.0,20.0,2.0,64.0
462,70.0,3.0,30.0,4.0,64.0
463,69.0,15.0,20.0,0.0,64.0
464,60.0,10.0,20.0,2.0,64.0
465,69.0,1.0,20.0,4.0,64.0
466,70.0,16.0,30.0,0.0,64.0
467,70.0,4.0,30.0,4.0,64.0
468,62.0,102.0,30.0,2.0,64.0
469,69.0,11.0,120.0,0.0,64.0
470,69.0,20.0,120.0,4.0,64.0
471,60.0,0.0,120.0,2.0,64.0
472,70.0,2.0,30.0,0.0,64.0
473,62.0,2.0,30.0,2.0,64.0
474,65.0,140.0,30.0,1.0,64.0
475,70.0,0.0,30.0,4.0,64.0
476,70.0,17.0,120.0,0.0,64.0
477,62.0,4.0,240.0,2.0,64.0
478,70.0,77.0,120.0,4.0,64.0
479,46.0,60.0,1110.0,3.0,64.0
480,65.0,4.0,300.0,1.0,64.0
481,58.0,9.0,40.0,4.0,64.0
482,58.0,8.0,40.0,0.0,64.0
483,60.0,11.0,30.0,4.0,64.0
484,60.0,14.0,30.0,0.0,64.0
485,62.0,8.0,40.0,4.0,64.0
486,62.0,16.0,30.0,0.0,64.0
487,60.0,8.0,30.0,4.0,64.0
488,60.0,8.0,30.0,0.0,64.0
489,62.0,7.0,20.0,4.0,64.0
490,62.0,15.0,20.0,0.0,64.0
491,60.0,0.0,20.0,4.0,64.0
492,60.0,16.0,15.0,0.0,64.0
493,62.0,21.0,20.0,4.0,64.0
494,62.0,14.0,60.0,0.0,64.0
495,60.0,20.0,20.0,4.0,64.0
496,60.0,0.0,20.0,0.0,64.0
497,62.0,10.0,40.0,4.0,64.0
498,60.0,2.0,30.0,0.0,64.0
499,60.0,38.0,30.0,4.0,64.0
500,58.0,3.0,40.0,4.0,64.0
501,58.0,6.0,40.0,0.0,64.0
502,57.0,6.0,40.0,1.0,64.0
503,51.0,9.0,40.0,2.0,64.0
504,60.0,5.0,40.0,0.0,64.0
505,60.0,125.0,40.0,4.0,64.0
506,62.0,0.0,150.0,0.0,64.0
507,62.0,85.0,150.0,4.0,64.0
508,58.0,5.0,330.0,1.0,64.0
509,53.0,57.0,270.0,2.0,64.0
510,60.0,8.0,40.0,0.0,64.0
511,60.0,20.0,40.0,4.0,64.0
512,58.0,6.0,40.0,0.0,64.0
513,58.0,31.0,30.0,4.0,64.0
514,67.0,1.0,90.0,0.0,64.0
515,67.0,121.0,90.0,4.0,64.0
516,53.0,1.0,40.0,2.0,64.0
517,69.0,3.0,40.0,0.0,64.0
518,69.0,1.0,40.0,4.0,64.0
519,62.0,147.0,30.0,1.0,64.0
520,65.0,16.0,120.0,4.0,64.0
521,55.0,4.0,330.0,2.0,64.0
522,65.0,0.0,120.0,0.0,64.0
523,62.0,17.0,150.0,1.0,64.0
524,64.0,116.0,240.0,0.0,64.0
525,64.0,2.0,210.0,4.0,64.0
526,60.0,5.0,210.0,1.0,64.0
527,45.0,46.0,30.0,3.0,64.0
528,43.0,71.0,40.0,3.0,64.0
529,45.0,5.0,90.0,3.0,64.0
530,65.0,11.0,40.0,4.0,64.0
531,57.0,0.0,40.0,1.0,64.0
532,50.0,2.0,40.0,3.0,64.0
533,53.0,2.0,30.0,2.0,64.0
534,65.0,83.0,40.0,0.0,64.0
535,67.0,7.0,90.0,4.0,64.0
536,43.0,28.0,150.0,3.0,64.0
537,62.0,25.0,120.0,1.0,64.0
538,67.0,21.0,90.0,0.0,64.0
539,53.0,71.0,150.0,2.0,64.0
540,69.0,4.0,40.0,0.0,64.0
541,69.0,29.0,40.0,4.0,64.0
542,60.0,22.0,90.0,1.0,64.0
543,53.0,24.0,30.0,2.0,64.0
544,70.0,4.0,90.0,0.0,64.0
545,48.0,37.0,120.0,3.0,64.0
546,70.0,1.0,90.0,4.0,64.0
547,52.0,32.0,30.0,2.0,64.0
548,53.0,1.0,40.0,2.0,64.0
549,52.0,90.0,90.0,2.0,64.0
550,67.0,1.0,40.0,4.0,64.0
551,67.0,110.0,40.0,0.0,64.0
552,41.0,11.0,600.0,3.0,64.0
553,60.0,9.0,120.0,1.0,64.0
554,69.0,87.0,120.0,4.0,64.0
555,69.0,4.0,120.0,0.0,64.0
556,53.0,3.0,120.0,2.0,64.0
557,69.0,0.0,30.0,4.0,64.0
558,69.0,11.0,30.0,0.0,64.0
559,65.0,12.0,40.0,1.0,64.0
560,60.0,1.0,40.0,2.0,64.0
561,70.0,2.0,30.0,4.0,64.0
562,70.0,6.0,40.0,0.0,64.0
563,67.0,78.0,30.0,1.0,64.0
564,72.0,14.0,90.0,4.0,64.0
565,72.0,6.0,90.0,0.0,64.0
566,69.0,100.0,90.0,1.0,64.0
567,65.0,1.0,90.0,2.0,64.0
568,74.0,8.0,30.0,0.0,64.0
569,70.0,2.0,30.0,1.0,64.0
570,74.0,8.0,30.0,4.0,64.0
571,58.0,1.0,30.0,2.0,64.0
572,75.0,12.0,30.0,0.0,64.0
573,67.0,96.0,40.0,1.0,64.0
574,75.0,10.0,30.0,4.0,64.0
575,77.0,99.0,360.0,0.0,64.0
576,69.0,7.0,90.0,1.0,64.0
577,77.0,1.0,330.0,4.0,64.0
578,60.0,92.0,120.0,2.0,64.0
579,53.0,9.0,40.0,3.0,64.0
580,69.0,2.0,40.0,1.0,64.0
581,62.0,5.0,30.0,2.0,64.0
582,51.0,15.0,30.0,3.0,64.0
583,63.0,72.0,30.0,2.0,64.0
584,50.0,18.0,90.0,3.0,64.0
585,71.0,13.0,90.0,1.0,64.0
586,65.0,0.0,90.0,2.0,64.0
587,51.0,8.0,40.0,3.0,64.0
588,67.0,1.0,30.0,2.0,64.0
589,72.0,3.0,30.0,1.0,64.0
590,77.0,10.0,30.0,0.0,64.0
591,53.0,124.0,40.0,3.0,64.0
592,77.0,2.0,30.0,4.0,64.0
593,68.0,4.0,30.0,2.0,64.0
594,47.0,6.0,570.0,3.0,64.0
595,77.0,12.0,120.0,0.0,64.0
596,72.0,82.0,150.0,1.0,64.0
597,67.0,102.0,600.0,2.0,64.0
598,77.0,6.0,120.0,4.0,64.0
599,74.0,18.0,420.0,1.0,64.0
600,74.0,2.0,30.0,4.0,64.0
601,74.0,21.0,30.0,0.0,64.0
602,75.0,91.0,40.0,4.0,64.0
603,75.0,7.0,30.0,0.0,64.0
604,77.0,109.0,90.0,0.0,64.0
605,77.0,11.0,90.0,4.0,64.0
606,75.0,6.0,40.0,0.0,64.0
607,75.0,11.0,40.0,4.0,64.0
608,74.0,5.0,30.0,0.0,64.0
609,74.0,68.0,30.0,4.0,64.0
610,79.0,1.0,90.0,4.0,64.0
611,79.0,19.0,90.0,0.0,64.0
612,77.0,9.0,40.0,0.0,64.0
613,71.0,0.0,40.0,1.0,64.0
614,77.0,6.0,40.0,4.0,64.0
615,67.0,23.0,40.0,2.0,64.0
616,43.0,53.0,60.0,3.0,64.0
617,75.0,2.0,90.0,0.0,64.0
618,72.0,8.0,60.0,1.0,64.0
619,75.0,124.0,90.0,4.0,64.0
620,60.0,4.0,90.0,2.0,64.0
621,45.0,8.0,90.0,3.0,64.0
622,74.0,14.0,40.0,1.0,64.0
623,55.0,2.0,40.0,2.0,64.0
624,74.0,2.0,30.0,0.0,64.0
625,74.0,0.0,30.0,4.0,64.0
626,47.0,97.0,40.0,3.0,64.0
627,60.0,105.0,600.0,2.0,64.0
628,74.0,74.0,150.0,0.0,64.0
629,48.0,19.0,90.0,3.0,64.0
630,74.0,4.0,120.0,4.0,64.0
631,67.0,26.0,90.0,1.0,64.0
632,75.0,8.0,450.0,4.0,64.0
633,75.0,2.0,450.0,0.0,64.0
634,60.0,20.0,40.0,1.0,64.0
635,46.0,105.0,60.0,3.0,64.0
636,62.0,1.0,30.0,1.0,64.0
637,45.0,120.0,90.0,3.0,64.0
638,63.0,0.0,90.0,1.0,64.0
639,65.0,18.0,40.0,1.0,64.0
640,43.0,97.0,40.0,3.0,64.0
641,67.0,0.0,30.0,1.0,64.0
642,41.0,1.0,90.0,3.0,64.0
643,69.0,26.0,570.0,1.0,64.0
644,57.0,3.0,40.0,2.0,64.0
645,65.0,4.0,40.0,0.0,64.0
646,65.0,9.0,40.0,4.0,64.0
647,51.0,85.0,40.0,3.0,64.0
648,67.0,3.0,30.0,0.0,64.0
649,58.0,7.0,30.0,2.0,64.0
650,67.0,6.0,30.0,4.0,64.0
651,60.0,1.0,90.0,2.0,64.0
652,69.0,3.0,90.0,0.0,64.0
653,69.0,17.0,90.0,4.0,64.0
654,50.0,104.0,90.0,3.0,64.0
655,70.0,1.0,40.0,0.0,64.0
656,62.0,10.0,40.0,2.0,64.0
657,70.0,4.0,30.0,4.0,64.0
658,48.0,3.0,40.0,3.0,64.0
659,63.0,86.0,40.0,2.0,64.0
660,72.0,4.0,30.0,0.0,64.0
661,72.0,7.0,30.0,4.0,64.0
662,46.0,28.0,120.0,3.0,64.0
663,74.0,111.0,570.0,0.0,64.0
664,74.0,61.0,510.0,4.0,64.0
665,65.0,69.0,120.0,2.0,64.0
666,74.0,9.0,40.0,1.0,64.0
667,45.0,18.0,40.0,3.0,64.0
668,66.0,84.0,40.0,2.0,64.0
669,72.0,3.0,40.0,1.0,64.0
670,43.0,5.0,90.0,3.0,64.0
671,70.0,116.0,90.0,1.0,64.0
672,67.0,6.0,90.0,2.0,64.0
673,72.0,13.0,40.0,1.0,64.0
674,41.0,3.0,30.0,3.0,64.0
675,62.0,10.0,40.0,2.0,64.0
676,74.0,34.0,30.0,1.0,64.0
677,67.0,17.0,570.0,1.0,64.0
678,63.0,10.0,540.0,2.0,64.0
679,39.0,98.0,570.0,3.0,64.0
680,67.0,9.0,40.0,4.0,64.0
681,67.0,7.0,30.0,0.0,64.0
682,69.0,13.0,30.0,4.0,64.0
683,69.0,78.0,30.0,0.0,64.0
684,70.0,17.0,90.0,4.0,64.0
685,70.0,116.0,90.0,0.0,64.0
686,69.0,19.0,40.0,4.0,64.0
687,69.0,0.0,40.0,0.0,64.0
688,67.0,7.0,30.0,4.0,64.0
689,67.0,90.0,40.0,0.0,64.0
690,72.0,87.0,600.0,4.0,64.0
691,72.0,14.0,600.0,0.0,64.0
692,60.0,8.0,40.0,1.0,64.0
693,51.0,6.0,40.0,3.0,64.0
694,62.0,16.0,30.0,1.0,64.0
695,55.0,2.0,40.0,2.0,64.0
696,50.0,81.0,40.0,3.0,64.0
697,63.0,8.0,90.0,1.0,64.0
698,48.0,102.0,90.0,3.0,64.0
699,57.0,16.0,60.0,2.0,64.0
700,62.0,10.0,40.0,1.0,64.0
701,50.0,20.0,30.0,3.0,64.0
702,58.0,3.0,60.0,2.0,64.0
703,60.0,6.0,40.0,1.0,64.0
704,51.0,58.0,40.0,3.0,64.0
705,66.0,23.0,90.0,1.0,64.0
706,60.0,19.0,60.0,2.0,64.0
707,45.0,6.0,90.0,3.0,64.0
708,57.0,6.0,40.0,2.0,64.0
709,62.0,6.0,60.0,1.0,64.0
710,74.0,4.0,30.0,0.0,64.0
711,74.0,5.0,40.0,4.0,64.0
712,46.0,2.0,40.0,3.0,64.0
713,75.0,4.0,30.0,0.0,64.0
714,75.0,3.0,30.0,4.0,64.0
715,48.0,67.0,30.0,3.0,64.0
716,72.0,19.0,90.0,1.0,64.0
717,63.0,5.0,60.0,2.0,64.0
718,69.0,7.0,90.0,4.0,64.0
719,69.0,8.0,90.0,0.0,64.0
720,42.0,93.0,90.0,3.0,64.0
721,70.0,5.0,30.0,4.0,64.0
722,70.0,14.0,30.0,0.0,64.0
723,55.0,3.0,40.0,2.0,64.0
724,43.0,3.0,40.0,3.0,64.0
725,72.0,6.0,30.0,4.0,64.0
726,72.0,1.0,30.0,1.0,64.0
727,72.0,13.0,30.0,0.0,64.0
728,45.0,65.0,30.0,3.0,64.0
729,66.0,12.0,90.0,4.0,64.0
730,66.0,106.0,120.0,0.0,64.0
731,57.0,25.0,60.0,2.0,64.0
732,72.0,5.0,570.0,1.0,64.0
733,38.0,40.0,2100.0,3.0,64.0
734,72.0,10.0,40.0,0.0,64.0
735,55.0,2.0,40.0,2.0,64.0
736,72.0,8.0,40.0,4.0,64.0
737,74.0,6.0,30.0,0.0,64.0
738,74.0,75.0,30.0,4.0,64.0
739,75.0,122.0,90.0,0.0,64.0
740,54.0,3.0,60.0,2.0,64.0
741,75.0,4.0,60.0,4.0,64.0
742,74.0,17.0,30.0,0.0,64.0
743,57.0,6.0,40.0,2.0,64.0
744,74.0,4.0,40.0,4.0,64.0
745,72.0,16.0,30.0,0.0,64.0
746,72.0,81.0,40.0,4.0,64.0
747,81.0,13.0,90.0,0.0,64.0
748,50.0,114.0,90.0,2.0,64.0
749,81.0,2.0,90.0,4.0,64.0
750,62.0,9.0,40.0,2.0,64.0
751,69.0,3.0,40.0,1.0,64.0
752,72.0,9.0,30.0,0.0,64.0
753,72.0,3.0,40.0,4.0,64.0
754,60.0,83.0,40.0,2.0,64.0
755,74.0,2.0,90.0,0.0,64.0
756,70.0,1.0,90.0,1.0,64.0
757,58.0,114.0,90.0,2.0,64.0
758,74.0,10.0,90.0,4.0,64.0
759,60.0,0.0,40.0,2.0,64.0
760,69.0,18.0,30.0,4.0,64.0
761,69.0,1.0,30.0,0.0,64.0
762,66.0,9.0,40.0,1.0,64.0
763,62.0,121.0,40.0,2.0,64.0
764,69.0,5.0,120.0,0.0,64.0
765,69.0,2.0,120.0,4.0,64.0
766,67.0,34.0,120.0,1.0,64.0
767,55.0,58.0,150.0,2.0,64.0
768,70.0,5.0,210.0,0.0,64.0
769,70.0,4.0,210.0,4.0,64.0
770,62.0,9.0,40.0,1.0,64.0
771,58.0,12.0,30.0,2.0,64.0
772,64.0,84.0,40.0,1.0,64.0
773,66.0,79.0,120.0,1.0,64.0
774,62.0,16.0,90.0,2.0,64.0
775,72.0,2.0,40.0,4.0,64.0
776,72.0,21.0,40.0,0.0,64.0
777,69.0,13.0,60.0,4.0,64.0
778,64.0,10.0,40.0,1.0,64.0
779,69.0,1.0,40.0,0.0,64.0
780,66.0,1.0,40.0,2.0,64.0
781,62.0,15.0,40.0,1.0,64.0
782,70.0,47.0,40.0,4.0,64.0
783,70.0,2.0,40.0,0.0,64.0
784,62.0,1.0,120.0,2.0,64.0
785,67.0,3.0,120.0,1.0,64.0
786,72.0,10.0,60.0,4.0,64.0
787,72.0,23.0,60.0,0.0,64.0
788,70.0,3.0,40.0,4.0,64.0
789,70.0,23.0,40.0,0.0,64.0
790,72.0,2.0,30.0,4.0,64.0
791,72.0,18.0,30.0,0.0,64.0
792,70.0,22.0,30.0,4.0,64.0
793,70.0,1.0,20.0,0.0,64.0
794,72.0,3.0,20.0,4.0,64.0
795,72.0,17.0,20.0,0.0,64.0
796,70.0,3.0,20.0,4.0,64.0
797,70.0,18.0,20.0,0.0,64.0
798,55.0,11.0,40.0,2.0,64.0
799,72.0,2.0,20.0,4.0,64.0
800,72.0,3.0,20.0,0.0,64.0
801,62.0,4.0,40.0,1.0,64.0
802,70.0,2.0,20.0,4.0,64.0
803,57.0,13.0,30.0,2.0,64.0
804,70.0,8.0,20.0,0.0,64.0
805,72.0,4.0,30.0,0.0,64.0
806,72.0,28.0,30.0,4.0,64.0
807,70.0,1.0,150.0,0.0,64.0
808,58.0,16.0,90.0,2.0,64.0
809,70.0,41.0,150.0,4.0,64.0
810,69.0,22.0,40.0,1.0,64.0
811,67.0,16.0,30.0,1.0,64.0
812,69.0,43.0,40.0,1.0,64.0
813,67.0,35.0,90.0,1.0,64.0
814,62.0,3.0,40.0,2.0,64.0
815,69.0,7.0,30.0,0.0,64.0
816,69.0,9.0,30.0,4.0,64.0
817,69.0,179.0,30.0,1.0,64.0
818,61.0,2.0,30.0,2.0,64.0
819,69.0,6.0,480.0,0.0,64.0
820,62.0,104.0,480.0,2.0,64.0
821,69.0,0.0,480.0,4.0,64.0
822,66.0,5.0,480.0,1.0,64.0
823,50.0,28.0,40.0,3.0,64.0
824,52.0,42.0,40.0,3.0,64.0
825,54.0,20.0,40.0,3.0,64.0
826,52.0,29.0,30.0,3.0,64.0
827,54.0,23.0,30.0,3.0,64.0
828,52.0,33.0,30.0,3.0,64.0
829,54.0,30.0,30.0,3.0,64.0
830,52.0,38.0,40.0,3.0,64.0
831,50.0,19.0,40.0,3.0,64.0
832,52.0,4.0,40.0,3.0,64.0
833,54.0,87.0,120.0,3.0,64.0
834,52.0,27.0,40.0,3.0,64.0
835,50.0,101.0,40.0,3.0,64.0
836,55.0,126.0,90.0,3.0,64.0
837,55.0,249.0,30.0,3.0,64.0
838,43.0,3.0,1080.0,3.0,64.0
839,58.0,15.0,330.0,2.0,64.0
840,62.0,15.0,270.0,1.0,64.0
841,67.0,7.0,40.0,0.0,64.0
842,67.0,14.0,40.0,4.0,64.0
843,69.0,4.0,40.0,0.0,64.0
844,69.0,31.0,40.0,4.0,64.0
845,70.0,0.0,40.0,0.0,64.0
846,70.0,6.0,40.0,4.0,64.0
847,69.0,26.0,30.0,0.0,64.0
848,69.0,1.0,20.0,4.0,64.0
849,70.0,0.0,30.0,4.0,64.0
850,70.0,0.0,30.0,0.0,64.0
851,69.0,20.0,20.0,0.0,64.0
852,69.0,3.0,20.0,4.0,64.0
853,70.0,2.0,20.0,4.0,64.0
854,70.0,14.0,20.0,0.0,64.0
855,69.0,28.0,20.0,4.0,64.0
856,69.0,0.0,15.0,0.0,64.0
857,70.0,3.0,30.0,4.0,64.0
858,70.0,18.0,30.0,0.0,64.0
859,69.0,1.0,30.0,4.0,64.0
860,69.0,1.0,30.0,0.0,64.0
861,66.0,25.0,30.0,1.0,64.0
862,60.0,9.0,20.0,2.0,64.0
863,67.0,3.0,40.0,0.0,64.0
864,67.0,15.0,40.0,4.0,64.0
865,69.0,0.0,30.0,0.0,64.0
866,69.0,102.0,30.0,4.0,64.0
867,60.0,2.0,120.0,2.0,64.0
868,66.0,76.0,120.0,1.0,64.0
869,70.0,11.0,120.0,0.0,64.0
870,70.0,8.0,120.0,4.0,64.0
871,62.0,98.0,240.0,2.0,64.0
872,67.0,5.0,210.0,1.0,64.0
873,69.0,20.0,40.0,4.0,64.0
874,69.0,3.0,30.0,0.0,64.0
875,67.0,5.0,30.0,0.0,64.0
876,67.0,97.0,30.0,4.0,64.0
877,75.0,7.0,90.0,0.0,64.0
878,75.0,2.0,90.0,4.0,64.0
879,75.0,11.0,30.0,0.0,64.0
880,66.0,4.0,40.0,2.0,64.0
881,75.0,8.0,30.0,4.0,64.0
882,69.0,122.0,30.0,1.0,64.0
883,75.0,1.0,150.0,0.0,64.0
884,67.0,15.0,120.0,2.0,64.0
885,75.0,8.0,120.0,4.0,64.0
886,70.0,80.0,120.0,1.0,64.0
887,74.0,15.0,240.0,0.0,64.0
888,74.0,10.0,270.0,4.0,64.0
889,58.0,16.0,40.0,2.0,64.0
890,69.0,7.0,30.0,1.0,64.0
891,43.0,6.0,60.0,3.0,64.0
892,67.0,3.0,40.0,1.0,64.0
893,60.0,1.0,40.0,2.0,64.0
894,45.0,29.0,40.0,3.0,64.0
895,62.0,8.0,40.0,2.0,64.0
896,46.0,11.0,40.0,3.0,64.0
897,66.0,5.0,90.0,1.0,64.0
898,60.0,7.0,20.0,2.0,64.0
899,45.0,22.0,30.0,3.0,64.0
900,62.0,8.0,30.0,2.0,64.0
901,46.0,14.0,30.0,3.0,64.0
902,60.0,1.0,30.0,2.0,64.0
903,45.0,2.0,20.0,3.0,64.0
904,62.0,4.0,30.0,2.0,64.0
905,46.0,6.0,20.0,3.0,64.0
906,45.0,18.0,20.0,3.0,64.0
907,62.0,14.0,30.0,2.0,64.0
908,46.0,13.0,30.0,3.0,64.0
909,60.0,6.0,40.0,2.0,64.0
910,45.0,23.0,30.0,3.0,64.0
911,74.0,5.0,40.0,0.0,64.0
912,58.0,7.0,40.0,2.0,64.0
913,66.0,1.0,40.0,1.0,64.0
914,43.0,9.0,40.0,3.0,64.0
915,74.0,4.0,30.0,4.0,64.0
916,60.0,87.0,30.0,2.0,64.0
917,45.0,2.0,30.0,3.0,64.0
918,67.0,16.0,120.0,1.0,64.0
919,67.0,13.0,90.0,0.0,64.0
920,62.0,2.0,120.0,2.0,64.0
921,67.0,1.0,120.0,4.0,64.0
922,46.0,78.0,120.0,3.0,64.0
923,45.0,5.0,40.0,3.0,64.0
924,60.0,6.0,40.0,2.0,64.0
925,67.0,10.0,40.0,0.0,64.0
926,70.0,5.0,30.0,1.0,64.0
927,67.0,10.0,40.0,4.0,64.0
928,58.0,11.0,60.0,2.0,64.0
929,43.0,12.0,40.0,3.0,64.0
930,72.0,3.0,390.0,0.0,64.0
931,70.0,22.0,30.0,1.0,64.0
932,60.0,5.0,90.0,2.0,64.0
933,51.0,16.0,90.0,3.0,64.0
934,72.0,9.0,360.0,4.0,64.0
935,69.0,34.0,30.0,1.0,64.0
936,70.0,17.0,40.0,1.0,64.0
937,69.0,86.0,60.0,1.0,64.0
938,63.0,2.0,40.0,2.0,64.0
939,67.0,3.0,30.0,1.0,64.0
940,51.0,77.0,30.0,3.0,64.0
941,57.0,30.0,330.0,2.0,64.0
942,67.0,25.0,60.0,1.0,64.0
943,51.0,2.0,120.0,3.0,64.0
944,66.0,30.0,30.0,1.0,64.0
945,67.0,18.0,30.0,1.0,64.0
946,66.0,13.0,30.0,1.0,64.0
947,50.0,54.0,990.0,3.0,64.0
948,67.0,17.0,30.0,1.0,64.0
949,66.0,25.0,20.0,1.0,64.0
950,67.0,16.0,30.0,1.0,64.0
951,74.0,11.0,30.0,0.0,64.0
952,66.0,1.0,20.0,1.0,64.0
953,74.0,14.0,30.0,4.0,64.0
954,67.0,5.0,30.0,1.0,64.0
955,75.0,10.0,30.0,0.0,64.0
956,75.0,62.0,30.0,4.0,64.0
957,66.0,6.0,120.0,1.0,64.0
958,74.0,13.0,120.0,0.0,64.0
959,74.0,82.0,120.0,4.0,64.0
960,75.0,3.0,40.0,4.0,64.0
961,75.0,0.0,40.0,0.0,64.0
962,57.0,3.0,30.0,2.0,64.0
963,66.0,14.0,30.0,1.0,64.0
964,72.0,0.0,30.0,4.0,64.0
965,72.0,73.0,30.0,0.0,64.0
966,69.0,27.0,60.0,1.0,64.0
967,50.0,1.0,120.0,2.0,64.0
968,72.0,7.0,90.0,4.0,64.0
969,72.0,20.0,90.0,0.0,64.0
970,67.0,2.0,40.0,1.0,64.0
971,70.0,12.0,40.0,4.0,64.0
972,70.0,6.0,40.0,0.0,64.0
973,69.0,0.0,30.0,1.0,64.0
974,67.0,16.0,30.0,1.0,64.0
975,72.0,7.0,30.0,4.0,64.0
976,72.0,10.0,30.0,0.0,64.0
977,69.0,1.0,20.0,1.0,64.0
978,70.0,9.0,20.0,4.0,64.0
979,67.0,1.0,20.0,1.0,64.0
980,70.0,15.0,20.0,0.0,64.0
981,72.0,8.0,20.0,4.0,64.0
982,69.0,1.0,20.0,1.0,64.0
983,72.0,8.0,20.0,0.0,64.0
984,58.0,19.0,40.0,2.0,64.0
985,70.0,10.0,20.0,4.0,64.0
986,67.0,0.0,20.0,1.0,64.0
987,70.0,2.0,20.0,0.0,64.0
988,72.0,5.0,30.0,4.0,64.0
989,60.0,2.0,30.0,2.0,64.0
990,72.0,8.0,30.0,0.0,64.0
991,69.0,29.0,30.0,1.0,64.0
992,70.0,5.0,120.0,4.0,64.0
993,67.0,1.0,120.0,1.0,64.0
994,70.0,2.0,120.0,0.0,64.0
995,62.0,15.0,40.0,2.0,64.0
996,60.0,27.0,20.0,2.0,64.0
997,62.0,22.0,30.0,2.0,64.0
998,60.0,13.0,30.0,2.0,64.0
999,62.0,19.0,20.0,2.0,64.0
1000,60.0,33.0,20.0,2.0,64.0
1001,62.0,20.0,40.0,2.0,64.0
1002,60.0,13.0,30.0,2.0,64.0
1003,69.0,6.0,40.0,4.0,64.0
1004,69.0,13.0,30.0,0.0,64.0
1005,66.0,1.0,30.0,1.0,64.0
1006,58.0,15.0,40.0,2.0,64.0
1007,60.0,123.0,30.0,2.0,64.0
1008,69.0,24.0,390.0,4.0,64.0
1009,69.0,4.0,360.0,0.0,64.0
1010,66.0,9.0,120.0,1.0,64.0
1011,62.0,3.0,120.0,2.0,64.0
1012,67.0,24.0,30.0,1.0,64.0
1013,66.0,20.0,40.0,1.0,64.0
1014,62.0,5.0,30.0,2.0,64.0
1015,50.0,2.0,40.0,3.0,64.0
1016,52.0,1.0,40.0,3.0,64.0
1017,67.0,27.0,30.0,1.0,64.0
1018,60.0,4.0,90.0,2.0,64.0
1019,69.0,8.0,40.0,1.0,64.0
1020,54.0,18.0,40.0,3.0,64.0
1021,67.0,3.0,30.0,1.0,64.0
1022,52.0,21.0,30.0,3.0,64.0
1023,69.0,6.0,30.0,1.0,64.0
1024,54.0,11.0,30.0,3.0,64.0
1025,67.0,16.0,20.0,1.0,64.0
1026,52.0,4.0,40.0,3.0,64.0
1027,69.0,0.0,40.0,1.0,64.0
1028,54.0,25.0,40.0,3.0,64.0
1029,67.0,5.0,60.0,1.0,64.0
1030,52.0,39.0,40.0,3.0,64.0
1031,66.0,3.0,40.0,1.0,64.0
1032,50.0,1.0,40.0,3.0,64.0
1033,58.0,4.0,40.0,2.0,64.0
1034,69.0,4.0,40.0,4.0,64.0
1035,69.0,4.0,40.0,0.0,64.0
1036,67.0,11.0,40.0,1.0,64.0
1037,52.0,87.0,40.0,3.0,64.0
1038,69.0,79.0,120.0,1.0,64.0
1039,57.0,22.0,90.0,2.0,64.0
1040,54.0,9.0,120.0,3.0,64.0
1041,74.0,18.0,330.0,0.0,64.0
1042,74.0,89.0,360.0,4.0,64.0
1043,52.0,12.0,40.0,3.0,64.0
1044,67.0,18.0,40.0,1.0,64.0
1045,57.0,1.0,40.0,2.0,64.0
1046,50.0,4.0,40.0,3.0,64.0
1047,66.0,91.0,30.0,1.0,64.0
1048,55.0,5.0,90.0,3.0,64.0
1049,59.0,2.0,90.0,2.0,64.0
1050,67.0,7.0,90.0,1.0,64.0
1051,55.0,8.0,30.0,3.0,64.0
1052,67.0,0.0,30.0,1.0,64.0
1053,75.0,130.0,40.0,0.0,64.0
1054,60.0,2.0,40.0,2.0,64.0
1055,75.0,0.0,40.0,4.0,64.0
1056,55.0,6.0,120.0,3.0,64.0
1057,62.0,4.0,330.0,2.0,64.0
1058,72.0,5.0,120.0,4.0,64.0
1059,67.0,3.0,330.0,1.0,64.0
1060,72.0,100.0,120.0,0.0,64.0
1061,71.0,13.0,210.0,4.0,64.0
1062,71.0,111.0,240.0,0.0,64.0
1063,56.0,94.0,40.0,3.0,64.0
1064,55.0,12.0,90.0,3.0,64.0
1065,62.0,8.0,40.0,2.0,64.0
1066,53.0,1.0,40.0,3.0,64.0
1067,67.0,3.0,40.0,1.0,64.0
1068,71.0,0.0,40.0,4.0,64.0
1069,71.0,32.0,40.0,0.0,64.0
1070,74.0,10.0,30.0,4.0,64.0
1071,51.0,15.0,120.0,3.0,64.0
1072,63.0,3.0,90.0,2.0,64.0
1073,55.0,12.0,90.0,1.0,64.0
1074,74.0,14.0,30.0,0.0,64.0
1075,72.0,22.0,30.0,4.0,64.0
1076,72.0,77.0,90.0,0.0,64.0
1077,74.0,10.0,30.0,4.0,64.0
1078,74.0,1.0,30.0,0.0,64.0
1079,72.0,10.0,40.0,4.0,64.0
1080,53.0,11.0,30.0,3.0,64.0
1081,67.0,4.0,40.0,1.0,64.0
1082,71.0,6.0,40.0,4.0,64.0
1083,62.0,2.0,40.0,2.0,64.0
1084,71.0,36.0,40.0,0.0,64.0
1085,69.0,30.0,90.0,1.0,64.0
1086,72.0,4.0,30.0,4.0,64.0
1087,53.0,6.0,30.0,3.0,64.0
1088,72.0,2.0,30.0,0.0,64.0
1089,63.0,13.0,30.0,2.0,64.0
1090,51.0,8.0,30.0,3.0,64.0
1091,71.0,6.0,30.0,4.0,64.0
1092,71.0,10.0,30.0,0.0,64.0
1093,62.0,1.0,40.0,2.0,64.0
1094,72.0,20.0,90.0,4.0,64.0
1095,53.0,10.0,30.0,3.0,64.0
1096,72.0,71.0,90.0,0.0,64.0
1097,63.0,3.0,60.0,2.0,64.0
1098,51.0,2.0,40.0,3.0,64.0
1099,71.0,5.0,30.0,1.0,64.0
1100,65.0,4.0,30.0,2.0,64.0
1101,50.0,11.0,30.0,3.0,64.0
1102,74.0,1.0,30.0,4.0,64.0
1103,74.0,133.0,30.0,0.0,64.0
1104,74.0,8.0,120.0,4.0,64.0
1105,65.0,2.0,120.0,2.0,64.0
1106,71.0,11.0,120.0,1.0,64.0
1107,48.0,3.0,120.0,3.0,64.0
1108,74.0,82.0,150.0,0.0,64.0
1109,75.0,5.0,240.0,4.0,64.0
1110,67.0,21.0,420.0,2.0,64.0
1111,72.0,1.0,450.0,1.0,64.0
1112,75.0,32.0,240.0,0.0,64.0
1113,36.0,16.0,40.0,3.0,64.0
1114,38.0,40.0,40.0,3.0,64.0
1115,39.0,19.0,40.0,3.0,64.0
1116,38.0,29.0,30.0,3.0,64.0
1117,39.0,20.0,30.0,3.0,64.0
1118,38.0,0.0,30.0,3.0,64.0
1119,39.0,24.0,40.0,3.0,64.0
1120,38.0,44.0,40.0,3.0,64.0
1121,36.0,10.0,60.0,3.0,64.0
1122,79.0,5.0,40.0,4.0,64.0
1123,79.0,60.0,40.0,0.0,64.0
1124,38.0,8.0,30.0,3.0,64.0
1125,72.0,15.0,90.0,4.0,64.0
1126,39.0,105.0,90.0,3.0,64.0
1127,72.0,3.0,90.0,0.0,64.0
1128,38.0,6.0,40.0,3.0,64.0
1129,72.0,12.0,40.0,4.0,64.0
1130,67.0,2.0,40.0,2.0,64.0
1131,70.0,1.0,40.0,1.0,64.0
1132,72.0,7.0,40.0,0.0,64.0
1133,36.0,25.0,40.0,3.0,64.0
1134,74.0,14.0,30.0,4.0,64.0
1135,65.0,3.0,90.0,2.0,64.0
1136,69.0,8.0,90.0,1.0,64.0
1137,41.0,7.0,90.0,3.0,64.0
1138,74.0,15.0,30.0,0.0,64.0
1139,72.0,12.0,40.0,4.0,64.0
1140,72.0,23.0,40.0,0.0,64.0
1141,74.0,13.0,60.0,4.0,64.0
1142,74.0,89.0,60.0,0.0,64.0
1143,67.0,10.0,30.0,1.0,64.0
1144,58.0,3.0,30.0,2.0,64.0
1145,41.0,8.0,40.0,3.0,64.0
1146,75.0,95.0,30.0,4.0,64.0
1147,75.0,0.0,30.0,0.0,64.0
1148,67.0,2.0,120.0,1.0,64.0
1149,41.0,17.0,120.0,3.0,64.0
1150,70.0,6.0,120.0,4.0,64.0
1151,58.0,3.0,120.0,2.0,64.0
1152,70.0,26.0,60.0,0.0,64.0
1153,69.0,4.0,30.0,0.0,64.0
1154,70.0,86.0,30.0,0.0,64.0
1155,65.0,5.0,240.0,1.0,64.0
1156,69.0,2.0,240.0,4.0,64.0
1157,60.0,91.0,240.0,2.0,64.0
1158,69.0,3.0,240.0,0.0,64.0
1159,48.0,104.0,40.0,3.0,64.0
1160,53.0,28.0,90.0,3.0,64.0
1161,69.0,5.0,40.0,0.0,64.0
1162,60.0,7.0,40.0,2.0,64.0
1163,65.0,4.0,40.0,1.0,64.0
1164,51.0,1.0,30.0,3.0,64.0
1165,69.0,36.0,40.0,4.0,64.0
1166,53.0,29.0,90.0,1.0,64.0
1167,72.0,9.0,30.0,0.0,64.0
1168,51.0,18.0,30.0,3.0,64.0
1169,63.0,0.0,30.0,2.0,64.0
1170,72.0,2.0,30.0,4.0,64.0
1171,70.0,0.0,40.0,0.0,64.0
1172,70.0,6.0,30.0,4.0,64.0
1173,50.0,2.0,30.0,3.0,64.0
1174,62.0,11.0,30.0,2.0,64.0
1175,72.0,8.0,30.0,0.0,64.0
1176,51.0,4.0,30.0,3.0,64.0
1177,72.0,3.0,30.0,4.0,64.0
1178,63.0,8.0,30.0,2.0,64.0
1179,70.0,0.0,60.0,0.0,64.0
1180,50.0,89.0,60.0,3.0,64.0
1181,62.0,5.0,60.0,2.0,64.0
1182,70.0,2.0,60.0,4.0,64.0
1183,65.0,0.0,40.0,1.0,64.0
1184,60.0,4.0,40.0,2.0,64.0
1185,69.0,3.0,40.0,4.0,64.0
1186,69.0,0.0,40.0,0.0,64.0
1187,51.0,37.0,40.0,3.0,64.0
1188,70.0,1.0,30.0,4.0,64.0
1189,62.0,9.0,30.0,2.0,64.0
1190,67.0,2.0,90.0,1.0,64.0
1191,70.0,21.0,30.0,0.0,64.0
1192,50.0,23.0,90.0,3.0,64.0
1193,60.0,9.0,40.0,2.0,64.0
1194,69.0,3.0,30.0,4.0,64.0
1195,69.0,34.0,40.0,0.0,64.0
1196,70.0,3.0,90.0,4.0,64.0
1197,62.0,7.0,90.0,2.0,64.0
1198,70.0,66.0,90.0,0.0,64.0
1199,72.0,16.0,30.0,4.0,64.0
1200,69.0,2.0,40.0,1.0,64.0
1201,48.0,57.0,40.0,3.0,64.0
1202,63.0,1.0,40.0,2.0,64.0
1203,72.0,0.0,20.0,0.0,64.0
1204,72.0,8.0,40.0,4.0,64.0
1205,46.0,5.0,120.0,3.0,64.0
1206,65.0,6.0,570.0,2.0,64.0
1207,72.0,34.0,40.0,0.0,64.0
1208,69.0,51.0,60.0,1.0,64.0
1209,74.0,51.0,120.0,4.0,64.0
1210,74.0,0.0,90.0,0.0,64.0
1211,70.0,1.0,510.0,1.0,64.0
1212,75.0,6.0,30.0,4.0,64.0
1213,75.0,14.0,30.0,0.0,64.0
1214,48.0,12.0,30.0,3.0,64.0
1215,74.0,6.0,40.0,4.0,64.0
1216,74.0,17.0,40.0,0.0,64.0
1217,46.0,4.0,40.0,3.0,64.0
1218,75.0,11.0,40.0,4.0,64.0
1219,75.0,13.0,40.0,0.0,64.0
1220,48.0,5.0,30.0,3.0,64.0
1221,77.0,21.0,40.0,4.0,64.0
1222,77.0,13.0,60.0,0.0,64.0
1223,50.0,2.0,40.0,3.0,64.0
1224,75.0,0.0,20.0,4.0,64.0
1225,48.0,10.0,30.0,3.0,64.0
1226,75.0,18.0,30.0,0.0,64.0
1227,77.0,0.0,30.0,4.0,64.0
1228,50.0,3.0,30.0,3.0,64.0
1229,77.0,9.0,30.0,0.0,64.0
1230,75.0,7.0,20.0,4.0,64.0
1231,48.0,3.0,20.0,3.0,64.0
1232,77.0,4.0,20.0,4.0,64.0
1233,75.0,6.0,20.0,0.0,64.0
1234,50.0,18.0,40.0,3.0,64.0
1235,75.0,24.0,15.0,4.0,64.0
1236,77.0,14.0,60.0,0.0,64.0
1237,77.0,1.0,20.0,4.0,64.0
1238,48.0,3.0,40.0,3.0,64.0
1239,75.0,12.0,40.0,0.0,64.0
1240,75.0,1.0,30.0,4.0,64.0
1241,46.0,20.0,40.0,3.0,64.0
1242,74.0,5.0,30.0,4.0,64.0
1243,74.0,5.0,30.0,0.0,64.0
1244,75.0,13.0,40.0,4.0,64.0
1245,48.0,1.0,30.0,3.0,64.0
1246,75.0,94.0,40.0,0.0,64.0
1247,50.0,2.0,120.0,3.0,64.0
1248,77.0,61.0,150.0,4.0,64.0
1249,77.0,26.0,120.0,0.0,64.0
1250,48.0,16.0,40.0,3.0,64.0
1251,75.0,3.0,30.0,0.0,64.0
1252,75.0,8.0,30.0,4.0,64.0
1253,65.0,3.0,40.0,2.0,64.0
1254,46.0,9.0,40.0,3.0,64.0
1255,70.0,0.0,30.0,1.0,64.0
1256,74.0,1.0,30.0,0.0,64.0
1257,74.0,87.0,30.0,4.0,64.0
1258,51.0,118.0,120.0,3.0,64.0
1259,79.0,5.0,90.0,0.0,64.0
1260,63.0,1.0,90.0,2.0,64.0
1261,70.0,0.0,90.0,1.0,64.0
1262,79.0,9.0,90.0,4.0,64.0
1263,72.0,3.0,40.0,0.0,64.0
1264,67.0,0.0,40.0,2.0,64.0
1265,72.0,7.0,30.0,4.0,64.0
1266,72.0,3.0,40.0,1.0,64.0
1267,51.0,119.0,40.0,3.0,64.0
1268,77.0,5.0,330.0,0.0,64.0
1269,77.0,2.0,330.0,4.0,64.0
1270,69.0,35.0,120.0,1.0,64.0
1271,60.0,12.0,150.0,2.0,64.0
1272,51.0,57.0,150.0,3.0,64.0
1273,62.0,13.0,40.0,2.0,64.0
1274,50.0,4.0,30.0,3.0,64.0
1275,65.0,3.0,40.0,1.0,64.0
1276,63.0,18.0,30.0,2.0,64.0
1277,48.0,67.0,40.0,3.0,64.0
1278,65.0,103.0,90.0,2.0,64.0
1279,50.0,3.0,90.0,3.0,64.0
1280,70.0,4.0,60.0,1.0,64.0
1281,70.0,10.0,30.0,0.0,64.0
1282,70.0,11.0,30.0,4.0,64.0
1283,62.0,7.0,30.0,2.0,64.0
1284,55.0,10.0,40.0,3.0,64.0
1285,58.0,103.0,40.0,1.0,64.0
1286,70.0,6.0,120.0,0.0,64.0
1287,70.0,15.0,150.0,4.0,64.0
1288,60.0,18.0,120.0,2.0,64.0
1289,48.0,72.0,150.0,3.0,64.0
1290,63.0,9.0,90.0,1.0,64.0
1291,69.0,6.0,240.0,0.0,64.0
1292,69.0,91.0,240.0,4.0,64.0
1293,50.0,3.0,40.0,3.0,64.0
1294,58.0,16.0,40.0,2.0,64.0
1295,62.0,11.0,40.0,1.0,64.0
1296,51.0,86.0,40.0,3.0,64.0
1297,57.0,7.0,90.0,2.0,64.0
1298,53.0,1.0,90.0,3.0,64.0
1299,60.0,9.0,90.0,1.0,64.0
1300,75.0,11.0,40.0,4.0,64.0
1301,53.0,10.0,40.0,2.0,64.0
1302,45.0,6.0,40.0,3.0,64.0
1303,75.0,4.0,30.0,0.0,64.0
1304,72.0,36.0,40.0,1.0,64.0
1305,46.0,12.0,150.0,3.0,64.0
1306,65.0,70.0,150.0,2.0,64.0
1307,75.0,4.0,30.0,4.0,64.0
1308,75.0,21.0,30.0,0.0,64.0
1309,70.0,2.0,120.0,1.0,64.0
1310,74.0,0.0,30.0,0.0,64.0
1311,74.0,31.0,30.0,4.0,64.0
1312,75.0,2.0,40.0,0.0,64.0
1313,75.0,34.0,40.0,4.0,64.0
1314,74.0,4.0,60.0,0.0,64.0
1315,74.0,0.0,60.0,4.0,64.0
1316,72.0,1.0,30.0,4.0,64.0
1317,72.0,26.0,30.0,0.0,64.0
1318,70.0,3.0,40.0,4.0,64.0
1319,70.0,84.0,40.0,0.0,64.0
1320,72.0,6.0,90.0,0.0,64.0
1321,72.0,17.0,90.0,4.0,64.0
1322,63.0,10.0,120.0,2.0,64.0
1323,67.0,20.0,120.0,1.0,64.0
1324,39.0,68.0,120.0,3.0,64.0
1325,67.0,3.0,40.0,0.0,64.0
1326,67.0,97.0,40.0,4.0,64.0
1327,70.0,0.0,90.0,0.0,64.0
1328,67.0,12.0,60.0,1.0,64.0
1329,70.0,14.0,90.0,4.0,64.0
1330,62.0,0.0,90.0,2.0,64.0
1331,41.0,54.0,390.0,3.0,64.0
1332,69.0,14.0,40.0,0.0,64.0
1333,65.0,3.0,40.0,1.0,64.0
1334,60.0,10.0,40.0,2.0,64.0
1335,69.0,4.0,40.0,4.0,64.0
1336,67.0,1.0,30.0,1.0,64.0
1337,70.0,17.0,30.0,0.0,64.0
1338,70.0,3.0,40.0,4.0,64.0
1339,62.0,15.0,40.0,2.0,64.0
1340,65.0,1.0,20.0,1.0,64.0
1341,69.0,0.0,15.0,0.0,64.0
1342,69.0,4.0,20.0,4.0,64.0
1343,70.0,6.0,20.0,0.0,64.0
1344,60.0,14.0,30.0,2.0,64.0
1345,67.0,0.0,20.0,1.0,64.0
1346,70.0,2.0,30.0,4.0,64.0
1347,69.0,6.0,20.0,0.0,64.0
1348,65.0,9.0,30.0,1.0,64.0
1349,62.0,2.0,30.0,2.0,64.0
1350,70.0,7.0,30.0,0.0,64.0
1351,69.0,6.0,20.0,4.0,64.0
1352,60.0,13.0,30.0,2.0,64.0
1353,67.0,0.0,20.0,1.0,64.0
1354,70.0,6.0,30.0,4.0,64.0
1355,69.0,2.0,150.0,0.0,64.0
1356,65.0,9.0,20.0,1.0,64.0
1357,62.0,11.0,30.0,2.0,64.0
1358,69.0,1.0,120.0,4.0,64.0
1359,67.0,100.0,30.0,1.0,64.0
1360,60.0,24.0,150.0,2.0,64.0
1361,65.0,13.0,120.0,1.0,64.0
1362,70.0,5.0,40.0,0.0,64.0
1363,62.0,5.0,30.0,2.0,64.0
1364,70.0,1.0,30.0,4.0,64.0
1365,65.0,165.0,40.0,1.0,64.0
1366,70.0,63.0,180.0,0.0,64.0
1367,46.0,73.0,1110.0,3.0,64.0
1368,70.0,15.0,150.0,4.0,64.0
1369,62.0,10.0,240.0,2.0,64.0
1370,65.0,2.0,240.0,1.0,64.0
1371,58.0,3.0,40.0,4.0,64.0
1372,58.0,16.0,40.0,0.0,64.0
1373,60.0,13.0,30.0,0.0,64.0
1374,60.0,3.0,30.0,4.0,64.0
1375,62.0,21.0,30.0,0.0,64.0
1376,62.0,3.0,30.0,4.0,64.0
1377,60.0,21.0,30.0,0.0,64.0
1378,60.0,0.0,30.0,4.0,64.0
1379,62.0,0.0,30.0,0.0,64.0
1380,62.0,23.0,20.0,4.0,64.0
1381,60.0,2.0,20.0,0.0,64.0
1382,60.0,14.0,30.0,4.0,64.0
1383,62.0,0.0,20.0,0.0,64.0
1384,62.0,14.0,20.0,4.0,64.0
1385,60.0,5.0,15.0,0.0,64.0
1386,60.0,24.0,15.0,4.0,64.0
1387,62.0,7.0,30.0,0.0,64.0
1388,62.0,9.0,30.0,4.0,64.0
1389,60.0,5.0,30.0,0.0,64.0
1390,60.0,30.0,30.0,4.0,64.0
1391,58.0,7.0,40.0,0.0,64.0
1392,58.0,3.0,40.0,4.0,64.0
1393,51.0,1.0,40.0,2.0,64.0
1394,57.0,22.0,40.0,1.0,64.0
1395,60.0,118.0,40.0,0.0,64.0
1396,60.0,0.0,40.0,4.0,64.0
1397,62.0,68.0,150.0,0.0,64.0
1398,62.0,10.0,120.0,4.0,64.0
1399,53.0,11.0,270.0,2.0,64.0
1400,58.0,44.0,300.0,1.0,64.0
1401,60.0,9.0,40.0,4.0,64.0
1402,60.0,23.0,40.0,0.0,64.0
1403,58.0,3.0,40.0,4.0,64.0
1404,58.0,43.0,30.0,0.0,64.0
1405,67.0,5.0,90.0,4.0,64.0
1406,67.0,113.0,90.0,0.0,64.0
1407,53.0,5.0,40.0,2.0,64.0
1408,62.0,2.0,30.0,1.0,64.0
1409,69.0,8.0,40.0,4.0,64.0
1410,69.0,134.0,30.0,0.0,64.0
1411,55.0,15.0,330.0,2.0,64.0
1412,65.0,4.0,120.0,4.0,64.0
1413,65.0,5.0,120.0,0.0,64.0
1414,62.0,24.0,120.0,1.0,64.0
1415,64.0,7.0,210.0,4.0,64.0
1416,64.0,106.0,240.0,0.0,64.0
1417,60.0,2.0,240.0,1.0,64.0
1418,45.0,37.0,40.0,3.0,64.0
1419,43.0,65.0,40.0,3.0,64.0
1420,45.0,3.0,90.0,3.0,64.0
1421,53.0,12.0,30.0,2.0,64.0
1422,65.0,1.0,40.0,4.0,64.0
1423,65.0,1.0,40.0,0.0,64.0
1424,50.0,107.0,40.0,3.0,64.0
1425,57.0,0.0,30.0,1.0,64.0
1426,67.0,24.0,120.0,4.0,64.0
1427,43.0,20.0,150.0,3.0,64.0
1428,67.0,2.0,90.0,0.0,64.0
1429,53.0,79.0,150.0,2.0,64.0
1430,62.0,9.0,120.0,1.0,64.0
1431,69.0,3.0,40.0,4.0,64.0
1432,69.0,44.0,40.0,0.0,64.0
1433,53.0,25.0,40.0,2.0,64.0
1434,70.0,23.0,90.0,4.0,64.0
1435,60.0,3.0,120.0,1.0,64.0
1436,48.0,38.0,120.0,3.0,64.0
1437,70.0,1.0,90.0,0.0,64.0
1438,52.0,30.0,40.0,2.0,64.0
1439,53.0,3.0,40.0,2.0,64.0
1440,52.0,58.0,90.0,2.0,64.0
1441,69.0,4.0,30.0,4.0,64.0
1442,69.0,31.0,30.0,0.0,64.0
1443,67.0,3.0,40.0,4.0,64.0
1444,67.0,101.0,40.0,0.0,64.0
1445,60.0,4.0,120.0,1.0,64.0
1446,41.0,1.0,570.0,3.0,64.0
1447,69.0,13.0,120.0,0.0,64.0
1448,69.0,7.0,120.0,4.0,64.0
1449,53.0,67.0,120.0,2.0,64.0
1450,69.0,6.0,30.0,0.0,64.0
1451,69.0,4.0,30.0,4.0,64.0
1452,65.0,14.0,30.0,1.0,64.0
1453,60.0,5.0,40.0,2.0,64.0
1454,70.0,3.0,40.0,0.0,64.0
1455,70.0,73.0,40.0,4.0,64.0
1456,67.0,5.0,30.0,1.0,64.0
1457,72.0,17.0,90.0,0.0,64.0
1458,72.0,3.0,90.0,4.0,64.0
1459,69.0,96.0,120.0,1.0,64.0
1460,65.0,12.0,90.0,2.0,64.0
1461,74.0,0.0,30.0,4.0,64.0
1462,58.0,5.0,30.0,2.0,64.0
1463,70.0,1.0,30.0,1.0,64.0
1464,74.0,19.0,30.0,0.0,64.0
1465,75.0,6.0,40.0,4.0,64.0
1466,67.0,98.0,40.0,1.0,64.0
1467,75.0,9.0,40.0,0.0,64.0
1468,69.0,17.0,120.0,1.0,64.0
1469,77.0,82.0,360.0,4.0,64.0
1470,77.0,2.0,360.0,0.0,64.0
1471,60.0,81.0,120.0,2.0,64.0
1472,53.0,9.0,40.0,3.0,64.0
1473,62.0,9.0,30.0,2.0,64.0
1474,69.0,5.0,40.0,1.0,64.0
1475,51.0,7.0,40.0,3.0,64.0
1476,63.0,82.0,30.0,2.0,64.0
1477,71.0,29.0,90.0,1.0,64.0
1478,50.0,14.0,120.0,3.0,64.0
1479,65.0,1.0,60.0,2.0,64.0
1480,51.0,7.0,40.0,3.0,64.0
1481,67.0,2.0,30.0,2.0,64.0
1482,72.0,3.0,30.0,1.0,64.0
1483,77.0,4.0,30.0,4.0,64.0
1484,77.0,11.0,30.0,0.0,64.0
1485,68.0,5.0,30.0,2.0,64.0
1486,53.0,123.0,40.0,3.0,64.0
1487,72.0,11.0,120.0,1.0,64.0
1488,77.0,77.0,150.0,0.0,64.0
1489,77.0,8.0,120.0,4.0,64.0
1490,47.0,34.0,540.0,3.0,64.0
1491,67.0,1.0,570.0,2.0,64.0
1492,74.0,38.0,390.0,1.0,64.0
1493,74.0,7.0,30.0,0.0,64.0
1494,74.0,20.0,30.0,4.0,64.0
1495,75.0,15.0,30.0,4.0,64.0
1496,75.0,100.0,40.0,0.0,64.0
1497,77.0,99.0,120.0,0.0,64.0
1498,77.0,1.0,120.0,4.0,64.0
1499,75.0,17.0,40.0,4.0,64.0
1500,75.0,0.0,30.0,0.0,64.0
1501,74.0,26.0,30.0,4.0,64.0
1502,74.0,5.0,30.0,0.0,64.0
1503,79.0,5.0,90.0,0.0,64.0
1504,79.0,95.0,90.0,4.0,64.0
1505,77.0,1.0,30.0,0.0,64.0
1506,77.0,20.0,30.0,4.0,64.0
1507,43.0,20.0,60.0,3.0,64.0
1508,67.0,16.0,40.0,2.0,64.0
1509,71.0,1.0,40.0,1.0,64.0
1510,45.0,28.0,90.0,3.0,64.0
1511,77.0,12.0,30.0,0.0,64.0
1512,77.0,0.0,30.0,4.0,64.0
1513,60.0,0.0,90.0,2.0,64.0
1514,72.0,12.0,30.0,1.0,64.0
1515,75.0,3.0,30.0,4.0,64.0
1516,75.0,8.0,30.0,0.0,64.0
1517,71.0,9.0,30.0,1.0,64.0
1518,77.0,6.0,30.0,0.0,64.0
1519,77.0,19.0,30.0,4.0,64.0
1520,72.0,1.0,60.0,1.0,64.0
1521,75.0,1.0,60.0,0.0,64.0
1522,75.0,95.0,60.0,4.0,64.0
1523,55.0,9.0,40.0,2.0,64.0
1524,74.0,0.0,30.0,1.0,64.0
1525,74.0,0.0,30.0,0.0,64.0
1526,47.0,110.0,40.0,3.0,64.0
1527,74.0,2.0,30.0,4.0,64.0
1528,60.0,17.0,600.0,2.0,64.0
1529,67.0,1.0,120.0,1.0,64.0
1530,74.0,14.0,120.0,0.0,64.0
1531,48.0,32.0,90.0,3.0,64.0
1532,74.0,72.0,120.0,4.0,64.0
1533,75.0,88.0,480.0,0.0,64.0
1534,75.0,1.0,480.0,4.0,64.0
1535,60.0,12.0,40.0,1.0,64.0
1536,46.0,6.0,40.0,3.0,64.0
1537,62.0,105.0,30.0,1.0,64.0
1538,45.0,6.0,90.0,3.0,64.0
1539,63.0,114.0,90.0,1.0,64.0
1540,65.0,6.0,40.0,1.0,64.0
1541,43.0,10.0,40.0,3.0,64.0
1542,67.0,109.0,30.0,1.0,64.0
1543,41.0,4.0,120.0,3.0,64.0
1544,69.0,27.0,540.0,1.0,64.0
1545,57.0,4.0,40.0,2.0,64.0
1546,65.0,2.0,40.0,0.0,64.0
1547,51.0,1.0,30.0,3.0,64.0
1548,65.0,12.0,40.0,4.0,64.0
1549,58.0,97.0,40.0,2.0,64.0
1550,67.0,2.0,30.0,0.0,64.0
1551,67.0,1.0,30.0,4.0,64.0
1552,50.0,13.0,120.0,3.0,64.0
1553,60.0,4.0,90.0,2.0,64.0
1554,69.0,101.0,120.0,0.0,64.0
1555,69.0,3.0,90.0,4.0,64.0
1556,62.0,5.0,40.0,2.0,64.0
1557,70.0,3.0,40.0,4.0,64.0
1558,48.0,11.0,40.0,3.0,64.0
1559,70.0,0.0,40.0,0.0,64.0
1560,72.0,11.0,30.0,4.0,64.0
1561,63.0,2.0,40.0,2.0,64.0
1562,72.0,66.0,40.0,0.0,64.0
1563,46.0,30.0,90.0,3.0,64.0
1564,65.0,81.0,120.0,2.0,64.0
1565,74.0,5.0,600.0,4.0,64.0
1566,74.0,107.0,600.0,0.0,64.0
1567,74.0,8.0,40.0,1.0,64.0
1568,45.0,9.0,40.0,3.0,64.0
1569,66.0,10.0,40.0,2.0,64.0
1570,72.0,95.0,40.0,1.0,64.0
1571,43.0,3.0,120.0,3.0,64.0
1572,67.0,4.0,90.0,2.0,64.0
1573,70.0,104.0,90.0,1.0,64.0
1574,72.0,17.0,40.0,1.0,64.0
1575,41.0,10.0,40.0,3.0,64.0
1576,62.0,3.0,40.0,2.0,64.0
1577,74.0,113.0,40.0,1.0,64.0
1578,39.0,90.0,600.0,3.0,64.0
1579,67.0,30.0,540.0,1.0,64.0
1580,63.0,10.0,570.0,2.0,64.0
1581,67.0,4.0,40.0,0.0,64.0
1582,67.0,12.0,40.0,4.0,64.0
1583,69.0,2.0,30.0,0.0,64.0
1584,69.0,106.0,30.0,4.0,64.0
1585,70.0,103.0,120.0,0.0,64.0
1586,70.0,6.0,90.0,4.0,64.0
1587,69.0,3.0,40.0,0.0,64.0
1588,69.0,21.0,40.0,4.0,64.0
1589,67.0,8.0,40.0,0.0,64.0
1590,67.0,29.0,40.0,4.0,64.0
1591,72.0,3.0,30.0,0.0,64.0
1592,72.0,25.0,30.0,4.0,64.0
1593,70.0,7.0,40.0,0.0,64.0
1594,70.0,8.0,40.0,4.0,64.0
1595,72.0,87.0,540.0,0.0,64.0
1596,72.0,0.0,540.0,4.0,64.0
1597,60.0,4.0,40.0,1.0,64.0
1598,51.0,13.0,40.0,3.0,64.0
1599,55.0,3.0,40.0,2.0,64.0
1600,62.0,5.0,40.0,1.0,64.0
1601,50.0,95.0,30.0,3.0,64.0
1602,63.0,13.0,120.0,1.0,64.0
1603,48.0,97.0,120.0,3.0,64.0
1604,57.0,10.0,90.0,2.0,64.0
1605,62.0,3.0,40.0,1.0,64.0
1606,50.0,12.0,40.0,3.0,64.0
1607,58.0,21.0,40.0,2.0,64.0
1608,60.0,6.0,40.0,1.0,64.0
1609,51.0,74.0,40.0,3.0,64.0
1610,60.0,5.0,90.0,2.0,64.0
1611,45.0,16.0,90.0,3.0,64.0
1612,66.0,17.0,90.0,1.0,64.0
1613,74.0,10.0,40.0,0.0,64.0
1614,74.0,2.0,30.0,4.0,64.0
1615,57.0,4.0,40.0,2.0,64.0
1616,46.0,6.0,40.0,3.0,64.0
1617,62.0,5.0,40.0,1.0,64.0
1618,75.0,4.0,40.0,4.0,64.0
1619,75.0,4.0,40.0,0.0,64.0
1620,48.0,78.0,40.0,3.0,64.0
1621,69.0,6.0,90.0,4.0,64.0
1622,72.0,7.0,90.0,1.0,64.0
1623,63.0,8.0,90.0,2.0,64.0
1624,69.0,3.0,90.0,0.0,64.0
1625,42.0,99.0,90.0,3.0,64.0
1626,70.0,7.0,30.0,4.0,64.0
1627,70.0,4.0,30.0,0.0,64.0
1628,43.0,9.0,40.0,3.0,64.0
1629,55.0,0.0,40.0,2.0,64.0
1630,72.0,11.0,30.0,1.0,64.0
1631,72.0,2.0,40.0,4.0,64.0
1632,72.0,8.0,30.0,0.0,64.0
1633,45.0,96.0,40.0,3.0,64.0
1634,66.0,22.0,120.0,4.0,64.0
1635,57.0,3.0,90.0,2.0,64.0
1636,66.0,86.0,120.0,0.0,64.0
1637,72.0,85.0,600.0,1.0,64.0
1638,38.0,146.0,2640.0,3.0,64.0
1639,72.0,3.0,40.0,4.0,64.0
1640,72.0,22.0,30.0,0.0,64.0
1641,55.0,0.0,40.0,2.0,64.0
1642,74.0,84.0,40.0,4.0,64.0
1643,74.0,0.0,40.0,0.0,64.0
1644,75.0,14.0,90.0,4.0,64.0
1645,75.0,102.0,90.0,0.0,64.0
1646,54.0,5.0,90.0,2.0,64.0
1647,74.0,7.0,30.0,4.0,64.0
1648,74.0,18.0,30.0,0.0,64.0
1649,57.0,6.0,40.0,2.0,64.0
1650,72.0,6.0,40.0,4.0,64.0
1651,72.0,88.0,40.0,0.0,64.0
1652,81.0,12.0,90.0,4.0,64.0
1653,50.0,2.0,90.0,2.0,64.0
1654,81.0,20.0,90.0,0.0,64.0
1655,62.0,21.0,40.0,2.0,64.0
1656,60.0,0.0,40.0,2.0,64.0
1657,69.0,98.0,40.0,1.0,64.0
1658,72.0,3.0,30.0,4.0,64.0
1659,72.0,5.0,40.0,0.0,64.0
1660,58.0,2.0,90.0,2.0,64.0
1661,74.0,108.0,120.0,0.0,64.0
1662,74.0,7.0,90.0,4.0,64.0
1663,70.0,1.0,90.0,1.0,64.0
1664,60.0,6.0,40.0,2.0,64.0
1665,69.0,1.0,30.0,0.0,64.0
1666,69.0,14.0,30.0,4.0,64.0
1667,66.0,114.0,40.0,1.0,64.0
1668,62.0,0.0,30.0,2.0,64.0
1669,55.0,18.0,120.0,2.0,64.0
1670,69.0,14.0,120.0,0.0,64.0
1671,69.0,6.0,120.0,4.0,64.0
1672,67.0,66.0,150.0,1.0,64.0
1673,70.0,1.0,270.0,4.0,64.0
1674,70.0,13.0,270.0,0.0,64.0
1675,62.0,14.0,40.0,1.0,64.0
1676,58.0,14.0,40.0,2.0,64.0
1677,64.0,26.0,40.0,1.0,64.0
1678,66.0,58.0,40.0,1.0,64.0
1679,62.0,9.0,90.0,2.0,64.0
1680,67.0,9.0,60.0,1.0,64.0
1681,66.0,31.0,20.0,1.0,64.0
1682,67.0,4.0,30.0,1.0,64.0
1683,66.0,24.0,30.0,1.0,64.0
1684,67.0,16.0,30.0,1.0,64.0
1685,72.0,3.0,40.0,0.0,64.0
1686,66.0,14.0,30.0,1.0,64.0
1687,72.0,15.0,40.0,4.0,64.0
1688,69.0,15.0,40.0,0.0,64.0
1689,64.0,2.0,20.0,1.0,64.0
1690,66.0,2.0,40.0,2.0,64.0
1691,69.0,10.0,40.0,4.0,64.0
1692,70.0,4.0,40.0,0.0,64.0
1693,62.0,12.0,40.0,1.0,64.0
1694,70.0,3.0,40.0,4.0,64.0
1695,62.0,3.0,90.0,2.0,64.0
1696,72.0,14.0,60.0,0.0,64.0
1697,66.0,31.0,20.0,1.0,64.0
1698,72.0,18.0,60.0,4.0,64.0
1699,67.0,0.0,90.0,1.0,64.0
1700,70.0,8.0,40.0,0.0,64.0
1701,70.0,21.0,40.0,4.0,64.0
1702,72.0,10.0,40.0,0.0,64.0
1703,72.0,6.0,30.0,4.0,64.0
1704,70.0,14.0,20.0,0.0,64.0
1705,70.0,10.0,20.0,4.0,64.0
1706,72.0,15.0,20.0,0.0,64.0
1707,72.0,4.0,20.0,4.0,64.0
1708,70.0,18.0,20.0,0.0,64.0
1709,70.0,3.0,30.0,4.0,64.0
1710,72.0,20.0,20.0,0.0,64.0
1711,55.0,3.0,40.0,2.0,64.0
1712,62.0,4.0,40.0,1.0,64.0
1713,72.0,1.0,20.0,4.0,64.0
1714,70.0,8.0,20.0,0.0,64.0
1715,70.0,15.0,20.0,4.0,64.0
1716,72.0,2.0,40.0,0.0,64.0
1717,57.0,8.0,30.0,2.0,64.0
1718,72.0,78.0,30.0,4.0,64.0
1719,70.0,11.0,120.0,0.0,64.0
1720,67.0,23.0,120.0,1.0,64.0
1721,70.0,70.0,120.0,4.0,64.0
1722,58.0,8.0,90.0,2.0,64.0
1723,62.0,6.0,40.0,2.0,64.0
1724,69.0,10.0,40.0,1.0,64.0
1725,69.0,6.0,30.0,0.0,64.0
1726,69.0,0.0,40.0,4.0,64.0
1727,61.0,724.0,30.0,2.0,64.0
1728,66.0,3.0,750.0,1.0,64.0
1729,62.0,10.0,720.0,2.0,64.0
1730,69.0,1.0,720.0,0.0,64.0
1731,69.0,9.0,720.0,4.0,64.0
1732,74.0,5.0,40.0,4.0,64.0
1733,74.0,150.0,40.0,0.0,64.0
1734,75.0,16.0,90.0,4.0,64.0
1735,75.0,494.0,90.0,0.0,64.0
1736,74.0,77.0,360.0,0.0,64.0
1737,74.0,186.0,420.0,4.0,64.0
1738,72.0,42.0,150.0,0.0,64.0
1739,72.0,162.0,150.0,4.0,64.0
1740,74.0,24.0,120.0,0.0,64.0
1741,74.0,66.0,120.0,4.0,64.0
1742,72.0,29.0,90.0,0.0,64.0
1743,72.0,124.0,120.0,4.0,64.0
1744,70.0,19.0,150.0,0.0,64.0
1745,70.0,59.0,150.0,4.0,64.0
1746,72.0,33.0,90.0,0.0,64.0
1747,72.0,86.0,120.0,4.0,64.0
1748,74.0,44.0,90.0,0.0,64.0
1749,74.0,200.0,90.0,4.0,64.0
1750,67.0,20.0,90.0,0.0,64.0
1751,67.0,217.0,90.0,4.0,64.0
1752,72.0,17.0,90.0,0.0,64.0
1753,72.0,516.0,90.0,4.0,64.0
1754,70.0,67.0,360.0,0.0,64.0
1755,70.0,208.0,420.0,4.0,64.0
1756,69.0,8.0,150.0,0.0,64.0
1757,69.0,204.0,150.0,4.0,64.0
1758,70.0,9.0,120.0,0.0,64.0
1759,70.0,66.0,120.0,4.0,64.0
1760,72.0,45.0,90.0,0.0,64.0
1761,72.0,82.0,120.0,4.0,64.0
1762,70.0,19.0,90.0,0.0,64.0
1763,70.0,101.0,120.0,4.0,64.0
1764,69.0,12.0,90.0,0.0,64.0
1765,69.0,117.0,120.0,4.0,64.0
1766,67.0,9.0,90.0,4.0,64.0
1767,67.0,100.0,120.0,0.0,64.0
1768,69.0,16.0,90.0,4.0,64.0
1769,69.0,114.0,120.0,0.0,64.0
1770,70.0,95.0,120.0,4.0,64.0
1771,70.0,9.0,120.0,0.0,64.0
1772,67.0,7.0,90.0,1.0,64.0
1773,72.0,110.0,120.0,4.0,64.0
1774,72.0,14.0,90.0,0.0,64.0
1775,74.0,10.0,120.0,0.0,64.0
1776,74.0,65.0,120.0,4.0,64.0
1777,70.0,23.0,90.0,1.0,64.0
1778,76.0,136.0,90.0,0.0,64.0
1779,76.0,8.0,60.0,4.0,64.0
1780,77.0,62.0,150.0,4.0,64.0
1781,77.0,26.0,120.0,0.0,64.0
1782,69.0,49.0,390.0,1.0,64.0
1783,74.0,146.0,90.0,0.0,64.0
1784,74.0,11.0,90.0,4.0,64.0
1785,76.0,7.0,120.0,4.0,64.0
1786,76.0,39.0,120.0,0.0,64.0
1787,77.0,137.0,90.0,4.0,64.0
1788,77.0,5.0,90.0,0.0,64.0
1789,79.0,76.0,120.0,4.0,64.0
1790,79.0,0.0,120.0,0.0,64.0
1791,67.0,1.0,180.0,1.0,64.0
1792,76.0,6.0,90.0,4.0,64.0
1793,76.0,175.0,90.0,0.0,64.0
1794,77.0,34.0,540.0,0.0,64.0
1795,77.0,17.0,570.0,4.0,64.0
1796,69.0,106.0,90.0,1.0,64.0
1797,67.0,103.0,120.0,1.0,64.0
1798,65.0,113.0,90.0,1.0,64.0
1799,67.0,97.0,90.0,1.0,64.0
1800,69.0,100.0,120.0,1.0,64.0
1801,76.0,20.0,90.0,0.0,64.0
1802,76.0,91.0,90.0,4.0,64.0
1803,77.0,13.0,90.0,0.0,64.0
1804,62.0,4.0,90.0,1.0,64.0
1805,77.0,87.0,90.0,4.0,64.0
1806,79.0,17.0,90.0,0.0,64.0
1807,79.0,115.0,90.0,4.0,64.0
1808,77.0,109.0,120.0,4.0,64.0
1809,77.0,4.0,120.0,0.0,64.0
1810,67.0,32.0,90.0,1.0,64.0
1811,76.0,84.0,120.0,4.0,64.0
1812,76.0,6.0,120.0,0.0,64.0
1813,74.0,34.0,90.0,4.0,64.0
1814,74.0,78.0,120.0,0.0,64.0
1815,65.0,16.0,330.0,1.0,64.0
1816,77.0,5.0,90.0,4.0,64.0
1817,77.0,155.0,90.0,0.0,64.0
1818,76.0,73.0,150.0,4.0,64.0
1819,76.0,11.0,120.0,0.0,64.0
1820,74.0,89.0,120.0,4.0,64.0
1821,74.0,13.0,90.0,0.0,64.0
1822,73.0,3.0,90.0,4.0,64.0
1823,73.0,74.0,90.0,0.0,64.0
1824,64.0,40.0,150.0,1.0,64.0
1825,76.0,137.0,90.0,0.0,64.0
1826,76.0,5.0,90.0,4.0,64.0
1827,74.0,4.0,90.0,4.0,64.0
1828,74.0,32.0,90.0,0.0,64.0
1829,65.0,94.0,120.0,1.0,64.0
1830,67.0,87.0,90.0,1.0,64.0
1831,69.0,35.0,90.0,4.0,64.0
1832,65.0,103.0,120.0,1.0,64.0
1833,69.0,15.0,60.0,0.0,64.0
1834,64.0,101.0,120.0,1.0,64.0
1835,62.0,97.0,120.0,1.0,64.0
1836,74.0,11.0,90.0,0.0,64.0
1837,74.0,29.0,90.0,4.0,64.0
1838,64.0,113.0,90.0,1.0,64.0
1839,65.0,71.0,120.0,1.0,64.0
1840,62.0,9.0,90.0,4.0,64.0
1841,62.0,24.0,90.0,0.0,64.0
1842,67.0,120.0,60.0,1.0,64.0
1843,72.0,18.0,90.0,4.0,64.0
1844,69.0,76.0,150.0,1.0,64.0
1845,72.0,47.0,90.0,0.0,64.0
1846,70.0,83.0,90.0,1.0,64.0
1847,66.0,9.0,60.0,0.0,64.0
1848,66.0,37.0,60.0,4.0,64.0
1849,69.0,104.0,90.0,1.0,64.0
1850,67.0,119.0,90.0,1.0,64.0
1851,66.0,106.0,120.0,1.0,64.0
1852,72.0,25.0,90.0,0.0,64.0
1853,72.0,0.0,120.0,4.0,64.0
1854,67.0,91.0,120.0,1.0,64.0
1855,62.0,17.0,60.0,0.0,64.0
1856,69.0,82.0,120.0,1.0,64.0
1857,62.0,17.0,90.0,4.0,64.0
1858,62.0,7.0,60.0,2.0,64.0
1859,66.0,133.0,90.0,1.0,64.0
1860,67.0,93.0,120.0,1.0,64.0
1861,70.0,18.0,90.0,4.0,64.0
1862,63.0,0.0,90.0,2.0,64.0
1863,70.0,31.0,90.0,0.0,64.0
1864,69.0,100.0,90.0,1.0,64.0
1865,70.0,4.0,90.0,1.0,64.0
1866,79.0,81.0,90.0,4.0,64.0
1867,79.0,10.0,90.0,0.0,64.0
1868,62.0,43.0,390.0,2.0,64.0
1869,67.0,158.0,90.0,1.0,64.0
1870,69.0,35.0,150.0,1.0,64.0
1871,78.0,19.0,90.0,0.0,64.0
1872,78.0,7.0,90.0,4.0,64.0
1873,70.0,17.0,120.0,1.0,64.0
1874,79.0,3.0,90.0,0.0,64.0
1875,79.0,96.0,90.0,4.0,64.0
1876,72.0,31.0,90.0,1.0,64.0
1877,60.0,79.0,120.0,2.0,64.0
1878,81.0,0.0,330.0,0.0,64.0
1879,81.0,10.0,330.0,4.0,64.0
1880,69.0,154.0,90.0,1.0,64.0
1881,70.0,12.0,570.0,1.0,64.0
1882,62.0,98.0,120.0,2.0,64.0
1883,60.0,106.0,90.0,2.0,64.0
1884,58.0,14.0,90.0,2.0,64.0
1885,74.0,18.0,90.0,0.0,64.0
1886,74.0,72.0,90.0,4.0,64.0
1887,60.0,144.0,60.0,2.0,64.0
1888,62.0,117.0,90.0,2.0,64.0
1889,79.0,30.0,540.0,0.0,64.0
1890,79.0,44.0,540.0,4.0,64.0
1891,69.0,119.0,90.0,1.0,64.0
1892,70.0,92.0,120.0,1.0,64.0
1893,55.0,6.0,90.0,2.0,64.0
1894,72.0,102.0,90.0,1.0,64.0
1895,70.0,84.0,120.0,1.0,64.0
1896,60.0,1.0,60.0,2.0,64.0
1897,69.0,11.0,90.0,1.0,64.0
1898,77.0,7.0,90.0,0.0,64.0
1899,77.0,93.0,90.0,4.0,64.0
1900,75.0,6.0,90.0,0.0,64.0
1901,67.0,5.0,90.0,1.0,64.0
1902,58.0,45.0,360.0,2.0,64.0
1903,75.0,92.0,90.0,4.0,64.0
1904,74.0,31.0,90.0,0.0,64.0
1905,70.0,1.0,60.0,1.0,64.0
1906,74.0,126.0,90.0,4.0,64.0
1907,72.0,13.0,150.0,0.0,64.0
1908,69.0,11.0,120.0,1.0,64.0
1909,72.0,2.0,90.0,4.0,64.0
1910,74.0,22.0,90.0,0.0,64.0
1911,67.0,9.0,90.0,1.0,64.0
1912,74.0,112.0,90.0,4.0,64.0
1913,75.0,56.0,390.0,0.0,64.0
1914,66.0,45.0,90.0,1.0,64.0
1915,57.0,51.0,120.0,2.0,64.0
1916,75.0,8.0,420.0,4.0,64.0
1917,69.0,135.0,90.0,1.0,64.0
1918,67.0,40.0,90.0,1.0,64.0
1919,58.0,24.0,90.0,2.0,64.0
1920,60.0,115.0,90.0,2.0,64.0
1921,62.0,14.0,90.0,1.0,64.0
1922,58.0,16.0,90.0,2.0,64.0
1923,74.0,33.0,120.0,0.0,64.0
1924,74.0,70.0,120.0,4.0,64.0
1925,57.0,1.0,120.0,2.0,64.0
1926,72.0,20.0,120.0,0.0,64.0
1927,72.0,90.0,120.0,4.0,64.0
1928,70.0,12.0,120.0,0.0,64.0
1929,55.0,100.0,120.0,2.0,64.0
1930,70.0,9.0,90.0,4.0,64.0
1931,67.0,5.0,90.0,1.0,64.0
1932,69.0,13.0,120.0,0.0,64.0
1933,57.0,1.0,120.0,2.0,64.0
1934,69.0,106.0,120.0,4.0,64.0
1935,67.0,0.0,120.0,0.0,64.0
1936,58.0,9.0,90.0,2.0,64.0
1937,67.0,66.0,120.0,4.0,64.0
1938,55.0,31.0,90.0,1.0,64.0
1939,55.0,2.0,90.0,3.0,64.0
1940,66.0,23.0,90.0,0.0,64.0
1941,60.0,0.0,90.0,2.0,64.0
1942,66.0,99.0,90.0,4.0,64.0
1943,67.0,29.0,150.0,0.0,64.0
1944,62.0,25.0,120.0,2.0,64.0
1945,67.0,7.0,90.0,1.0,64.0
1946,58.0,19.0,90.0,3.0,64.0
1947,67.0,37.0,150.0,4.0,64.0
1948,64.0,135.0,90.0,2.0,64.0
1949,65.0,2.0,90.0,2.0,64.0
1950,74.0,14.0,90.0,1.0,64.0
1951,69.0,20.0,90.0,0.0,64.0
1952,57.0,45.0,390.0,3.0,64.0
1953,69.0,64.0,90.0,4.0,64.0
1954,65.0,13.0,90.0,0.0,64.0
1955,62.0,18.0,90.0,2.0,64.0
1956,65.0,124.0,90.0,4.0,64.0
1957,64.0,14.0,120.0,2.0,64.0
1958,70.0,15.0,90.0,0.0,64.0
1959,73.0,3.0,90.0,1.0,64.0
1960,70.0,15.0,90.0,4.0,64.0
1961,74.0,21.0,90.0,1.0,64.0
1962,65.0,123.0,90.0,2.0,64.0
1963,76.0,27.0,420.0,1.0,64.0
1964,67.0,41.0,90.0,2.0,64.0
1965,61.0,19.0,420.0,0.0,64.0
1966,55.0,69.0,120.0,3.0,64.0
1967,61.0,8.0,420.0,4.0,64.0
1968,64.0,151.0,90.0,2.0,64.0
1969,65.0,15.0,570.0,2.0,64.0
1970,57.0,52.0,90.0,3.0,64.0
1971,55.0,127.0,90.0,3.0,64.0
1972,53.0,25.0,120.0,3.0,64.0
1973,69.0,6.0,120.0,1.0,64.0
1974,62.0,61.0,120.0,4.0,64.0
1975,62.0,0.0,120.0,0.0,64.0
1976,55.0,15.0,90.0,3.0,64.0
1977,64.0,11.0,90.0,4.0,64.0
1978,64.0,102.0,90.0,0.0,64.0
1979,57.0,24.0,90.0,3.0,64.0
1980,65.0,1.0,120.0,0.0,64.0
1981,65.0,93.0,120.0,4.0,64.0
1982,74.0,21.0,540.0,1.0,64.0
1983,67.0,6.0,120.0,0.0,64.0
1984,67.0,14.0,90.0,4.0,64.0
1985,64.0,89.0,90.0,2.0,64.0
1986,69.0,16.0,120.0,0.0,64.0
1987,50.0,19.0,90.0,3.0,64.0
1988,65.0,2.0,90.0,2.0,64.0
1989,69.0,74.0,90.0,4.0,64.0
1990,67.0,122.0,90.0,2.0,64.0
1991,58.0,5.0,120.0,0.0,64.0
1992,65.0,75.0,120.0,2.0,64.0
1993,58.0,8.0,120.0,4.0,64.0
1994,55.0,17.0,90.0,3.0,64.0
1995,64.0,27.0,90.0,2.0,64.0
1996,72.0,88.0,90.0,1.0,64.0
1997,62.0,23.0,90.0,2.0,64.0
1998,67.0,6.0,90.0,0.0,64.0
1999,67.0,0.0,90.0,4.0,64.0
2000,70.0,93.0,120.0,1.0,64.0
2001,53.0,86.0,360.0,3.0,64.0
2002,65.0,7.0,90.0,2.0,64.0
2003,69.0,109.0,90.0,1.0,64.0
2004,67.0,29.0,120.0,1.0,64.0
2005,64.0,9.0,90.0,2.0,64.0
2006,70.0,9.0,60.0,0.0,64.0
2007,70.0,17.0,60.0,4.0,64.0
2008,62.0,8.0,120.0,2.0,64.0
2009,69.0,65.0,120.0,1.0,64.0
2010,70.0,60.0,60.0,1.0,64.0
2011,61.0,14.0,120.0,2.0,64.0
2012,52.0,74.0,120.0,3.0,64.0
2013,79.0,13.0,300.0,0.0,64.0
2014,79.0,32.0,300.0,4.0,64.0
2015,67.0,94.0,120.0,1.0,64.0
2016,64.0,4.0,90.0,2.0,64.0
2017,62.0,53.0,120.0,2.0,64.0
2018,53.0,1.0,120.0,3.0,64.0
2019,69.0,68.0,150.0,1.0,64.0
2020,55.0,89.0,120.0,3.0,64.0
2021,53.0,87.0,120.0,3.0,64.0
2022,69.0,14.0,120.0,4.0,64.0
2023,69.0,7.0,90.0,0.0,64.0
2024,74.0,5.0,90.0,1.0,64.0
2025,65.0,2.0,90.0,2.0,64.0
2026,52.0,73.0,120.0,3.0,64.0
2027,73.0,30.0,90.0,1.0,64.0
2028,50.0,69.0,150.0,3.0,64.0
2029,77.0,17.0,90.0,4.0,64.0
2030,77.0,11.0,60.0,0.0,64.0
2031,74.0,13.0,90.0,1.0,64.0
2032,69.0,21.0,90.0,2.0,64.0
2033,52.0,141.0,90.0,3.0,64.0
2034,53.0,60.0,120.0,3.0,64.0
2035,74.0,4.0,330.0,0.0,64.0
2036,74.0,18.0,360.0,4.0,64.0
2037,69.0,22.0,330.0,1.0,64.0
2038,65.0,18.0,90.0,2.0,64.0
2039,55.0,157.0,60.0,3.0,64.0
2040,57.0,81.0,150.0,3.0,64.0
2041,64.0,3.0,210.0,2.0,64.0
2042,67.0,115.0,90.0,1.0,64.0
2043,58.0,4.0,90.0,3.0,64.0
2044,66.0,64.0,150.0,1.0,64.0
2045,57.0,12.0,90.0,3.0,64.0
2046,72.0,0.0,90.0,0.0,64.0
2047,72.0,3.0,90.0,4.0,64.0
2048,66.0,5.0,90.0,2.0,64.0
2049,64.0,15.0,90.0,1.0,64.0
2050,55.0,5.0,90.0,3.0,64.0
2051,67.0,131.0,90.0,2.0,64.0
2052,62.0,3.0,120.0,1.0,64.0
2053,54.0,100.0,120.0,3.0,64.0
2054,69.0,6.0,90.0,2.0,64.0
2055,81.0,13.0,90.0,4.0,64.0
2056,81.0,7.0,90.0,0.0,64.0
2057,55.0,105.0,120.0,3.0,64.0
2058,66.0,52.0,90.0,2.0,64.0
2059,69.0,3.0,360.0,1.0,64.0
2060,72.0,7.0,360.0,0.0,64.0
2061,57.0,49.0,120.0,3.0,64.0
2062,72.0,6.0,330.0,4.0,64.0
2063,54.0,149.0,90.0,3.0,64.0
2064,55.0,132.0,120.0,3.0,64.0
2065,62.0,8.0,90.0,2.0,64.0
2066,57.0,66.0,150.0,3.0,64.0
2067,55.0,2.0,120.0,3.0,64.0
2068,62.0,11.0,90.0,1.0,64.0
2069,70.0,7.0,90.0,0.0,64.0
2070,70.0,127.0,90.0,4.0,64.0
2071,67.0,7.0,90.0,2.0,64.0
2072,53.0,83.0,120.0,3.0,64.0
2073,51.0,10.0,120.0,3.0,64.0
2074,67.0,27.0,90.0,1.0,64.0
2075,75.0,48.0,540.0,0.0,64.0
2076,75.0,4.0,570.0,4.0,64.0
2077,70.0,110.0,90.0,2.0,64.0
2078,53.0,94.0,120.0,3.0,64.0
2079,55.0,17.0,90.0,3.0,64.0
2080,58.0,12.0,90.0,1.0,64.0
2081,63.0,118.0,90.0,2.0,64.0
2082,57.0,87.0,120.0,3.0,64.0
2083,65.0,2.0,60.0,1.0,64.0
2084,58.0,77.0,150.0,3.0,64.0
2085,58.0,32.0,120.0,2.0,64.0
2086,60.0,83.0,90.0,3.0,64.0
2087,58.0,11.0,120.0,3.0,64.0
2088,74.0,1.0,90.0,0.0,64.0
2089,65.0,8.0,90.0,2.0,64.0
2090,58.0,30.0,60.0,1.0,64.0
2091,74.0,62.0,120.0,4.0,64.0
2092,72.0,20.0,90.0,0.0,64.0
2093,72.0,16.0,90.0,4.0,64.0
2094,57.0,105.0,90.0,3.0,64.0
2095,74.0,9.0,90.0,4.0,64.0
2096,74.0,6.0,90.0,0.0,64.0
2097,55.0,104.0,120.0,3.0,64.0
2098,58.0,14.0,90.0,2.0,64.0
2099,70.0,0.0,90.0,1.0,64.0
2100,57.0,93.0,120.0,3.0,64.0
2101,58.0,13.0,90.0,3.0,64.0
2102,67.0,7.0,90.0,1.0,64.0
2103,76.0,7.0,90.0,0.0,64.0
2104,76.0,4.0,90.0,4.0,64.0
2105,60.0,82.0,90.0,2.0,64.0
2106,55.0,130.0,90.0,3.0,64.0
2107,77.0,9.0,90.0,0.0,64.0
2108,57.0,84.0,120.0,3.0,64.0
2109,72.0,20.0,60.0,1.0,64.0
2110,77.0,2.0,90.0,4.0,64.0
2111,53.0,16.0,90.0,2.0,64.0
2112,58.0,108.0,90.0,3.0,64.0
2113,57.0,3.0,90.0,3.0,64.0
2114,65.0,12.0,90.0,1.0,64.0
2115,72.0,9.0,90.0,0.0,64.0
2116,72.0,116.0,90.0,4.0,64.0
2117,57.0,1.0,90.0,2.0,64.0
2118,55.0,114.0,120.0,3.0,64.0
2119,69.0,0.0,120.0,0.0,64.0
2120,53.0,127.0,120.0,3.0,64.0
2121,72.0,18.0,90.0,1.0,64.0
2122,69.0,14.0,90.0,4.0,64.0
2123,60.0,27.0,570.0,2.0,64.0
2124,55.0,88.0,120.0,3.0,64.0
2125,69.0,19.0,90.0,1.0,64.0
2126,77.0,81.0,390.0,0.0,64.0
2127,57.0,106.0,120.0,3.0,64.0
2128,77.0,16.0,360.0,4.0,64.0
2129,58.0,99.0,90.0,3.0,64.0
2130,67.0,27.0,90.0,1.0,64.0
2131,60.0,1.0,120.0,3.0,64.0
2132,62.0,89.0,90.0,3.0,64.0
2133,60.0,13.0,120.0,3.0,64.0
2134,60.0,14.0,60.0,1.0,64.0
2135,67.0,2.0,90.0,2.0,64.0
2136,76.0,71.0,120.0,4.0,64.0
2137,76.0,16.0,90.0,0.0,64.0
2138,74.0,4.0,90.0,0.0,64.0
2139,74.0,30.0,90.0,4.0,64.0
2140,58.0,101.0,120.0,3.0,64.0
2141,76.0,8.0,90.0,4.0,64.0
2142,76.0,1.0,90.0,0.0,64.0
2143,57.0,106.0,120.0,3.0,64.0
2144,60.0,4.0,90.0,2.0,64.0
2145,72.0,19.0,90.0,1.0,64.0
2146,58.0,99.0,120.0,3.0,64.0
2147,60.0,59.0,150.0,3.0,64.0
2148,62.0,2.0,90.0,2.0,64.0
2149,78.0,2.0,90.0,0.0,64.0
2150,69.0,39.0,90.0,1.0,64.0
2151,78.0,2.0,90.0,4.0,64.0
2152,57.0,146.0,90.0,3.0,64.0
2153,58.0,1.0,150.0,3.0,64.0
2154,79.0,95.0,120.0,0.0,64.0
2155,74.0,15.0,90.0,1.0,64.0
2156,55.0,6.0,90.0,2.0,64.0
2157,79.0,5.0,120.0,4.0,64.0
2158,60.0,90.0,120.0,3.0,64.0
2159,58.0,91.0,120.0,3.0,64.0
2160,67.0,9.0,120.0,0.0,64.0
2161,67.0,0.0,90.0,4.0,64.0
2162,58.0,5.0,120.0,2.0,64.0
2163,62.0,31.0,60.0,1.0,64.0
2164,57.0,81.0,150.0,3.0,64.0
2165,69.0,34.0,120.0,4.0,64.0
2166,69.0,6.0,90.0,0.0,64.0
2167,55.0,9.0,120.0,3.0,64.0
2168,70.0,8.0,120.0,0.0,64.0
2169,70.0,68.0,120.0,4.0,64.0
2170,62.0,0.0,90.0,2.0,64.0
2171,67.0,10.0,90.0,1.0,64.0
2172,72.0,20.0,90.0,0.0,64.0
2173,53.0,93.0,120.0,3.0,64.0
2174,72.0,25.0,90.0,4.0,64.0
2175,51.0,17.0,120.0,3.0,64.0
2176,74.0,7.0,120.0,0.0,64.0
2177,74.0,65.0,120.0,4.0,64.0
2178,67.0,11.0,90.0,2.0,64.0
2179,70.0,3.0,330.0,1.0,64.0
2180,50.0,132.0,90.0,3.0,64.0
2181,75.0,14.0,90.0,0.0,64.0
2182,48.0,21.0,210.0,3.0,64.0
2183,63.0,118.0,90.0,2.0,64.0
2184,75.0,3.0,90.0,4.0,64.0
2185,69.0,91.0,90.0,1.0,64.0
2186,74.0,19.0,360.0,0.0,64.0
2187,65.0,4.0,90.0,2.0,64.0
2188,50.0,86.0,90.0,3.0,64.0
2189,70.0,12.0,90.0,1.0,64.0
2190,74.0,60.0,390.0,4.0,64.0
2191,67.0,41.0,90.0,1.0,64.0
2192,51.0,107.0,120.0,3.0,64.0
2193,69.0,7.0,150.0,1.0,64.0
2194,53.0,8.0,120.0,3.0,64.0
2195,53.0,21.0,90.0,2.0,64.0
2196,70.0,10.0,90.0,1.0,64.0
2197,55.0,105.0,90.0,3.0,64.0
2198,72.0,6.0,90.0,1.0,64.0
2199,57.0,39.0,90.0,3.0,64.0
2200,72.0,22.0,120.0,0.0,64.0
2201,65.0,27.0,330.0,2.0,64.0
2202,72.0,40.0,120.0,4.0,64.0
2203,53.0,8.0,90.0,3.0,64.0
2204,69.0,124.0,90.0,1.0,64.0
2205,58.0,87.0,120.0,3.0,64.0
2206,74.0,5.0,120.0,0.0,64.0
2207,74.0,5.0,120.0,4.0,64.0
2208,70.0,22.0,540.0,1.0,64.0
2209,72.0,5.0,120.0,0.0,64.0
2210,72.0,116.0,90.0,4.0,64.0
2211,63.0,5.0,90.0,2.0,64.0
2212,70.0,2.0,120.0,0.0,64.0
2213,70.0,64.0,120.0,4.0,64.0
2214,57.0,15.0,120.0,3.0,64.0
2215,62.0,10.0,90.0,2.0,64.0
2216,60.0,25.0,90.0,2.0,64.0
2217,72.0,0.0,90.0,0.0,64.0
2218,72.0,95.0,90.0,4.0,64.0
2219,58.0,3.0,120.0,2.0,64.0
2220,55.0,13.0,90.0,3.0,64.0
2221,74.0,88.0,120.0,0.0,64.0
2222,74.0,2.0,120.0,4.0,64.0
2223,69.0,120.0,90.0,1.0,64.0
2224,67.0,5.0,90.0,0.0,64.0
2225,70.0,4.0,90.0,1.0,64.0
2226,62.0,6.0,90.0,2.0,64.0
2227,67.0,1.0,90.0,4.0,64.0
2228,58.0,77.0,90.0,3.0,64.0
2229,72.0,153.0,60.0,1.0,64.0
2230,70.0,98.0,120.0,1.0,64.0
2231,51.0,5.0,120.0,3.0,64.0
2232,55.0,2.0,120.0,2.0,64.0
2233,72.0,11.0,90.0,0.0,64.0
2234,72.0,11.0,90.0,4.0,64.0
2235,69.0,123.0,90.0,1.0,64.0
2236,67.0,10.0,120.0,1.0,64.0
2237,70.0,24.0,360.0,0.0,64.0
2238,58.0,11.0,90.0,2.0,64.0
2239,70.0,35.0,390.0,4.0,64.0
2240,50.0,81.0,120.0,3.0,64.0
2241,70.0,147.0,90.0,1.0,64.0
2242,69.0,6.0,120.0,1.0,64.0
2243,48.0,11.0,120.0,3.0,64.0
2244,63.0,17.0,90.0,2.0,64.0
2245,67.0,138.0,90.0,1.0,64.0
2246,57.0,10.0,90.0,2.0,64.0
2247,66.0,54.0,120.0,1.0,64.0
2248,50.0,7.0,90.0,3.0,64.0
2249,69.0,31.0,150.0,0.0,64.0
2250,69.0,13.0,180.0,4.0,64.0
2251,69.0,140.0,90.0,1.0,64.0
2252,67.0,7.0,120.0,1.0,64.0
2253,55.0,1.0,90.0,3.0,64.0
2254,50.0,34.0,90.0,2.0,64.0
2255,70.0,4.0,120.0,0.0,64.0
2256,70.0,90.0,120.0,4.0,64.0
2257,57.0,5.0,120.0,2.0,64.0
2258,72.0,8.0,120.0,0.0,64.0
2259,72.0,85.0,120.0,4.0,64.0
2260,43.0,75.0,120.0,3.0,64.0
2261,62.0,11.0,90.0,1.0,64.0
2262,58.0,1.0,120.0,2.0,64.0
2263,70.0,13.0,120.0,0.0,64.0
2264,70.0,2.0,120.0,4.0,64.0
2265,69.0,20.0,90.0,0.0,64.0
2266,60.0,18.0,60.0,2.0,64.0
2267,69.0,92.0,120.0,4.0,64.0
2268,67.0,15.0,120.0,0.0,64.0
2269,67.0,85.0,630.0,1.0,64.0
2270,62.0,4.0,90.0,2.0,64.0
2271,46.0,8.0,90.0,3.0,64.0
2272,67.0,80.0,120.0,4.0,64.0
2273,69.0,0.0,90.0,0.0,64.0
2274,63.0,31.0,90.0,2.0,64.0
2275,69.0,91.0,120.0,4.0,64.0
2276,70.0,31.0,120.0,0.0,64.0
2277,62.0,14.0,90.0,2.0,64.0
2278,70.0,57.0,120.0,4.0,64.0
2279,50.0,1.0,90.0,3.0,64.0
2280,72.0,5.0,90.0,0.0,64.0
2281,60.0,5.0,90.0,2.0,64.0
2282,72.0,138.0,60.0,4.0,64.0
2283,74.0,9.0,120.0,0.0,64.0
2284,53.0,26.0,90.0,3.0,64.0
2285,74.0,1.0,120.0,4.0,64.0
2286,59.0,11.0,120.0,2.0,64.0
2287,75.0,18.0,120.0,0.0,64.0
2288,75.0,86.0,120.0,4.0,64.0
2289,74.0,7.0,120.0,0.0,64.0
2290,59.0,8.0,120.0,1.0,64.0
2291,74.0,107.0,120.0,4.0,64.0
2292,43.0,8.0,120.0,3.0,64.0
2293,62.0,1.0,90.0,2.0,64.0
2294,72.0,89.0,120.0,0.0,64.0
2295,72.0,4.0,120.0,4.0,64.0
2296,71.0,7.0,120.0,0.0,64.0
2297,71.0,95.0,120.0,4.0,64.0
2298,62.0,41.0,90.0,1.0,64.0
2299,67.0,5.0,90.0,2.0,64.0
2300,53.0,70.0,630.0,3.0,64.0
2301,72.0,4.0,120.0,0.0,64.0
2302,72.0,108.0,120.0,4.0,64.0
2303,74.0,73.0,120.0,0.0,64.0
2304,74.0,4.0,120.0,4.0,64.0
2305,67.0,33.0,360.0,1.0,64.0
2306,62.0,12.0,90.0,2.0,64.0
2307,71.0,164.0,90.0,0.0,64.0
2308,71.0,0.0,90.0,4.0,64.0
2309,72.0,13.0,120.0,0.0,64.0
2310,72.0,9.0,120.0,4.0,64.0
2311,55.0,5.0,150.0,2.0,64.0
2312,74.0,25.0,150.0,0.0,64.0
2313,74.0,63.0,150.0,4.0,64.0
2314,72.0,2.0,120.0,0.0,64.0
2315,69.0,6.0,90.0,1.0,64.0
2316,72.0,0.0,90.0,4.0,64.0
2317,51.0,22.0,90.0,3.0,64.0
2318,60.0,80.0,120.0,2.0,64.0
2319,70.0,12.0,120.0,0.0,64.0
2320,70.0,90.0,120.0,4.0,64.0
2321,70.0,13.0,90.0,1.0,64.0
2322,50.0,3.0,90.0,3.0,64.0
2323,62.0,3.0,90.0,2.0,64.0
2324,69.0,6.0,120.0,0.0,64.0
2325,69.0,2.0,120.0,4.0,64.0
2326,72.0,12.0,90.0,1.0,64.0
2327,48.0,110.0,120.0,3.0,64.0
2328,63.0,7.0,90.0,2.0,64.0
2329,70.0,7.0,120.0,0.0,64.0
2330,70.0,88.0,120.0,4.0,64.0
2331,65.0,3.0,120.0,2.0,64.0
2332,72.0,15.0,120.0,0.0,64.0
2333,72.0,65.0,120.0,4.0,64.0
2334,63.0,26.0,90.0,2.0,64.0
2335,46.0,2.0,120.0,3.0,64.0
2336,67.0,4.0,90.0,1.0,64.0
2337,74.0,14.0,90.0,0.0,64.0
2338,62.0,5.0,90.0,2.0,64.0
2339,74.0,119.0,90.0,4.0,64.0
2340,75.0,23.0,120.0,0.0,64.0
2341,60.0,53.0,420.0,2.0,64.0
2342,75.0,90.0,120.0,4.0,64.0
2343,45.0,6.0,120.0,3.0,64.0
2344,72.0,18.0,90.0,1.0,64.0
2345,77.0,20.0,120.0,0.0,64.0
2346,77.0,80.0,120.0,4.0,64.0
2347,75.0,10.0,90.0,0.0,64.0
2348,43.0,22.0,90.0,3.0,64.0
2349,70.0,10.0,90.0,1.0,64.0
2350,75.0,31.0,120.0,4.0,64.0
2351,74.0,11.0,90.0,0.0,64.0
2352,74.0,108.0,90.0,4.0,64.0
2353,72.0,84.0,150.0,0.0,64.0
2354,72.0,4.0,150.0,4.0,64.0
2355,72.0,41.0,90.0,1.0,64.0
2356,45.0,11.0,120.0,3.0,64.0
2357,65.0,40.0,660.0,2.0,64.0
2358,74.0,14.0,120.0,4.0,64.0
2359,74.0,85.0,120.0,0.0,64.0
2360,75.0,5.0,120.0,4.0,64.0
2361,69.0,25.0,90.0,1.0,64.0
2362,41.0,6.0,120.0,3.0,64.0
2363,75.0,75.0,120.0,0.0,64.0
2364,72.0,119.0,90.0,4.0,64.0
2365,72.0,20.0,60.0,0.0,64.0
2366,74.0,39.0,150.0,0.0,64.0
2367,46.0,17.0,120.0,3.0,64.0
2368,70.0,21.0,90.0,1.0,64.0
2369,74.0,3.0,120.0,4.0,64.0
2370,75.0,20.0,90.0,0.0,64.0
2371,75.0,95.0,120.0,4.0,64.0
2372,74.0,17.0,120.0,0.0,64.0
2373,74.0,5.0,120.0,4.0,64.0
2374,69.0,12.0,90.0,1.0,64.0
2375,63.0,11.0,120.0,2.0,64.0
2376,48.0,80.0,120.0,3.0,64.0
2377,72.0,26.0,120.0,0.0,64.0
2378,72.0,92.0,120.0,4.0,64.0
2379,70.0,20.0,120.0,0.0,64.0
2380,65.0,13.0,90.0,2.0,64.0
2381,70.0,10.0,90.0,1.0,64.0
2382,70.0,89.0,120.0,4.0,64.0
2383,50.0,11.0,120.0,3.0,64.0
2384,72.0,26.0,120.0,0.0,64.0
2385,72.0,64.0,120.0,4.0,64.0
2386,74.0,6.0,90.0,0.0,64.0
2387,68.0,7.0,90.0,2.0,64.0
2388,48.0,1.0,90.0,3.0,64.0
2389,65.0,11.0,90.0,1.0,64.0
2390,74.0,86.0,90.0,4.0,64.0
2391,75.0,136.0,90.0,4.0,64.0
2392,75.0,16.0,90.0,0.0,64.0
2393,77.0,7.0,120.0,4.0,64.0
2394,77.0,3.0,150.0,0.0,64.0
2395,47.0,96.0,120.0,3.0,64.0
2396,67.0,0.0,90.0,2.0,64.0
2397,62.0,14.0,90.0,1.0,64.0
2398,79.0,86.0,120.0,0.0,64.0
2399,79.0,12.0,120.0,4.0,64.0
2400,45.0,11.0,120.0,3.0,64.0
2401,77.0,104.0,120.0,4.0,64.0
2402,77.0,0.0,120.0,0.0,64.0
2403,72.0,22.0,90.0,1.0,64.0
2404,60.0,2.0,90.0,2.0,64.0
2405,75.0,99.0,120.0,0.0,64.0
2406,75.0,16.0,90.0,4.0,64.0
2407,47.0,4.0,120.0,3.0,64.0
2408,74.0,100.0,120.0,4.0,64.0
2409,74.0,2.0,120.0,0.0,64.0
2410,74.0,16.0,90.0,1.0,64.0
2411,67.0,4.0,570.0,2.0,64.0
2412,75.0,5.0,120.0,4.0,64.0
2413,75.0,105.0,120.0,0.0,64.0
2414,77.0,15.0,120.0,0.0,64.0
2415,71.0,19.0,90.0,1.0,64.0
2416,43.0,4.0,120.0,3.0,64.0
2417,77.0,51.0,120.0,4.0,64.0
2418,74.0,23.0,90.0,0.0,64.0
2419,74.0,141.0,90.0,4.0,64.0
2420,75.0,18.0,150.0,0.0,64.0
2421,75.0,111.0,150.0,4.0,64.0
2422,72.0,1.0,90.0,1.0,64.0
2423,48.0,17.0,90.0,3.0,64.0
2424,77.0,17.0,150.0,0.0,64.0
2425,77.0,62.0,150.0,4.0,64.0
2426,60.0,7.0,90.0,2.0,64.0
2427,67.0,21.0,90.0,1.0,64.0
2428,75.0,54.0,120.0,4.0,64.0
2429,75.0,7.0,120.0,0.0,64.0
2430,36.0,8.0,120.0,3.0,64.0
2431,62.0,52.0,90.0,2.0,64.0
2432,74.0,11.0,120.0,0.0,64.0
2433,74.0,86.0,120.0,4.0,64.0
2434,63.0,22.0,120.0,2.0,64.0
2435,72.0,66.0,120.0,0.0,64.0
2436,69.0,0.0,90.0,1.0,64.0
2437,72.0,2.0,120.0,4.0,64.0
2438,48.0,188.0,480.0,3.0,64.0
2439,62.0,28.0,90.0,2.0,64.0
2440,70.0,44.0,120.0,0.0,64.0
2441,70.0,64.0,150.0,4.0,64.0
2442,69.0,6.0,120.0,0.0,64.0
2443,69.0,47.0,120.0,4.0,64.0
2444,63.0,11.0,90.0,2.0,64.0
2445,66.0,18.0,90.0,1.0,64.0
2446,67.0,105.0,60.0,0.0,64.0
2447,67.0,4.0,60.0,4.0,64.0
2448,74.0,19.0,240.0,0.0,64.0
2449,74.0,38.0,270.0,4.0,64.0
2450,67.0,0.0,270.0,1.0,64.0
2451,62.0,5.0,240.0,2.0,64.0
2452,45.0,11.0,90.0,3.0,64.0
2453,46.0,103.0,90.0,3.0,64.0
2454,48.0,99.0,90.0,3.0,64.0
2455,66.0,5.0,60.0,1.0,64.0
2456,75.0,6.0,60.0,0.0,64.0
2457,60.0,3.0,60.0,2.0,64.0
2458,75.0,7.0,60.0,4.0,64.0
2459,50.0,8.0,120.0,3.0,64.0
2460,67.0,1.0,60.0,1.0,64.0
2461,70.0,10.0,60.0,0.0,64.0
2462,62.0,11.0,60.0,2.0,64.0
2463,70.0,26.0,60.0,4.0,64.0
2464,66.0,8.0,60.0,1.0,64.0
2465,69.0,11.0,240.0,0.0,64.0
2466,60.0,29.0,60.0,2.0,64.0
2467,69.0,22.0,60.0,4.0,64.0
2468,70.0,15.0,90.0,0.0,64.0
2469,67.0,2.0,90.0,1.0,64.0
2470,62.0,7.0,60.0,2.0,64.0
2471,70.0,66.0,60.0,4.0,64.0
2472,60.0,11.0,90.0,2.0,64.0
2473,66.0,17.0,120.0,1.0,64.0
2474,69.0,58.0,120.0,4.0,64.0
2475,38.0,60.0,120.0,3.0,64.0
2476,62.0,12.0,60.0,1.0,64.0
2477,67.0,157.0,90.0,4.0,64.0
2478,58.0,0.0,60.0,2.0,64.0
2479,67.0,2.0,60.0,0.0,64.0
2480,62.0,8.0,510.0,1.0,64.0
2481,43.0,59.0,510.0,3.0,64.0
2482,58.0,4.0,510.0,2.0,64.0
2483,67.0,124.0,90.0,4.0,64.0
2484,67.0,30.0,450.0,0.0,64.0
2485,69.0,116.0,90.0,4.0,64.0
2486,70.0,117.0,90.0,4.0,64.0
2487,72.0,18.0,90.0,4.0,64.0
2488,74.0,118.0,90.0,4.0,64.0
2489,75.0,77.0,90.0,4.0,64.0
2490,67.0,51.0,60.0,0.0,64.0
2491,77.0,86.0,90.0,4.0,64.0
2492,74.0,130.0,90.0,4.0,64.0
2493,75.0,121.0,120.0,4.0,64.0
2494,60.0,39.0,60.0,0.0,64.0
2495,70.0,71.0,120.0,4.0,64.0
2496,63.0,55.0,60.0,0.0,64.0
2497,69.0,105.0,120.0,4.0,64.0
2498,67.0,68.0,90.0,4.0,64.0
2499,65.0,40.0,60.0,0.0,64.0
2500,69.0,135.0,90.0,4.0,64.0
2501,75.0,86.0,120.0,4.0,64.0
2502,74.0,62.0,120.0,4.0,64.0
2503,69.0,47.0,90.0,0.0,64.0
2504,72.0,133.0,60.0,4.0,64.0
2505,58.0,44.0,90.0,0.0,64.0
2506,74.0,97.0,120.0,4.0,64.0
2507,72.0,93.0,120.0,4.0,64.0
2508,62.0,29.0,90.0,0.0,64.0
2509,70.0,146.0,90.0,4.0,64.0
2510,72.0,55.0,120.0,4.0,64.0
2511,67.0,43.0,60.0,0.0,64.0
2512,74.0,139.0,90.0,4.0,64.0
2513,79.0,69.0,120.0,4.0,64.0
2514,78.0,100.0,120.0,4.0,64.0
2515,70.0,42.0,90.0,0.0,64.0
2516,79.0,101.0,90.0,4.0,64.0
2517,60.0,33.0,90.0,0.0,64.0
2518,81.0,135.0,120.0,4.0,64.0
2519,79.0,65.0,120.0,4.0,64.0
2520,78.0,119.0,120.0,4.0,64.0
2521,69.0,45.0,60.0,0.0,64.0
2522,76.0,83.0,120.0,4.0,64.0
2523,62.0,32.0,90.0,0.0,64.0
2524,74.0,108.0,120.0,4.0,64.0
2525,72.0,95.0,120.0,4.0,64.0
2526,70.0,98.0,120.0,4.0,64.0
2527,66.0,31.0,60.0,0.0,64.0
2528,69.0,95.0,90.0,4.0,64.0
2529,70.0,102.0,120.0,4.0,64.0
2530,67.0,64.0,60.0,0.0,64.0
2531,72.0,97.0,120.0,4.0,64.0
2532,62.0,29.0,90.0,0.0,64.0
2533,70.0,104.0,120.0,4.0,64.0
2534,69.0,115.0,90.0,4.0,64.0
2535,58.0,51.0,90.0,0.0,64.0
2536,67.0,91.0,150.0,4.0,64.0
2537,69.0,97.0,120.0,4.0,64.0
2538,55.0,22.0,210.0,1.0,64.0
2539,67.0,14.0,90.0,0.0,64.0
2540,55.0,56.0,150.0,2.0,64.0
2541,70.0,45.0,90.0,4.0,64.0
2542,67.0,107.0,90.0,4.0,64.0
2543,66.0,49.0,90.0,0.0,64.0
2544,62.0,14.0,3390.0,1.0,64.0
2545,69.0,88.0,120.0,4.0,64.0
2546,62.0,22.0,3360.0,2.0,64.0
2547,74.0,102.0,90.0,4.0,64.0
2548,72.0,89.0,120.0,4.0,64.0
2549,69.0,35.0,60.0,0.0,64.0
2550,74.0,133.0,90.0,4.0,64.0
2551,71.0,97.0,90.0,4.0,64.0
2552,62.0,15.0,90.0,0.0,64.0
2553,74.0,113.0,90.0,4.0,64.0
2554,70.0,99.0,120.0,4.0,64.0
2555,67.0,34.0,60.0,0.0,64.0
2556,74.0,126.0,90.0,4.0,64.0
2557,66.0,22.0,90.0,0.0,64.0
2558,69.0,105.0,90.0,4.0,64.0
2559,74.0,106.0,90.0,4.0,64.0
2560,69.0,37.0,90.0,0.0,64.0
2561,72.0,89.0,120.0,4.0,64.0
2562,74.0,117.0,90.0,4.0,64.0
2563,70.0,116.0,90.0,4.0,64.0
2564,62.0,13.0,90.0,0.0,64.0
2565,74.0,101.0,90.0,4.0,64.0
2566,69.0,101.0,120.0,4.0,64.0
2567,72.0,27.0,90.0,0.0,64.0
2568,74.0,120.0,90.0,4.0,64.0
2569,67.0,115.0,90.0,4.0,64.0
2570,70.0,5.0,90.0,0.0,64.0
2571,74.0,109.0,90.0,4.0,64.0
2572,70.0,133.0,90.0,4.0,64.0
2573,79.0,19.0,60.0,0.0,64.0
2574,74.0,108.0,120.0,4.0,64.0
2575,69.0,108.0,90.0,4.0,64.0
2576,78.0,5.0,90.0,0.0,64.0
2577,74.0,116.0,90.0,4.0,64.0
2578,67.0,73.0,150.0,4.0,64.0
2579,79.0,44.0,60.0,0.0,64.0
2580,74.0,130.0,120.0,4.0,64.0
2581,66.0,129.0,120.0,4.0,64.0
2582,81.0,7.0,60.0,0.0,64.0
2583,67.0,103.0,120.0,4.0,64.0
2584,66.0,122.0,90.0,4.0,64.0
2585,74.0,146.0,300.0,0.0,64.0
2586,64.0,46.0,120.0,4.0,64.0
2587,62.0,31.0,210.0,4.0,64.0
2588,72.0,66.0,120.0,0.0,64.0
2589,50.0,29.0,90.0,3.0,64.0
2590,62.0,7.0,60.0,2.0,64.0
2591,70.0,97.0,120.0,0.0,64.0
2592,66.0,11.0,90.0,1.0,64.0
2593,69.0,104.0,120.0,0.0,64.0
2594,70.0,24.0,60.0,0.0,64.0
2595,55.0,7.0,90.0,3.0,64.0
2596,67.0,186.0,90.0,1.0,64.0
2597,62.0,7.0,90.0,2.0,64.0
2598,67.0,269.0,60.0,0.0,64.0
2599,53.0,127.0,390.0,3.0,64.0
2600,70.0,2.0,600.0,4.0,64.0
2601,70.0,25.0,90.0,0.0,64.0
2602,62.0,20.0,90.0,2.0,64.0
2603,67.0,44.0,120.0,1.0,64.0
2604,62.0,55.0,60.0,0.0,64.0
2605,55.0,110.0,90.0,3.0,64.0
2606,53.0,85.0,90.0,3.0,64.0
2607,67.0,107.0,120.0,1.0,64.0
2608,60.0,20.0,90.0,2.0,64.0
2609,70.0,37.0,60.0,0.0,64.0
2610,52.0,0.0,120.0,3.0,64.0
2611,76.0,60.0,120.0,4.0,64.0
2612,64.0,57.0,60.0,0.0,64.0
2613,79.0,89.0,90.0,4.0,64.0
2614,48.0,57.0,300.0,3.0,64.0
2615,76.0,104.0,90.0,4.0,64.0
2616,70.0,20.0,60.0,0.0,64.0
2617,70.0,82.0,150.0,4.0,64.0
2618,76.0,81.0,120.0,4.0,64.0
2619,60.0,14.0,90.0,0.0,64.0
2620,79.0,59.0,120.0,4.0,64.0
2621,67.0,16.0,120.0,1.0,64.0
2622,60.0,13.0,60.0,2.0,64.0
2623,52.0,18.0,60.0,3.0,64.0
2624,76.0,115.0,90.0,4.0,64.0
2625,69.0,9.0,90.0,4.0,64.0
2626,69.0,31.0,60.0,0.0,64.0
2627,65.0,116.0,120.0,1.0,64.0
2628,60.0,5.0,90.0,2.0,64.0
2629,53.0,18.0,90.0,3.0,64.0
2630,70.0,45.0,150.0,4.0,64.0
2631,69.0,71.0,120.0,4.0,64.0
2632,65.0,42.0,60.0,0.0,64.0
2633,52.0,114.0,390.0,3.0,64.0
2634,67.0,148.0,90.0,4.0,64.0
2635,65.0,10.0,120.0,4.0,64.0
2636,65.0,6.0,120.0,1.0,64.0
2637,69.0,34.0,60.0,0.0,64.0
2638,60.0,32.0,90.0,2.0,64.0
2639,67.0,45.0,60.0,4.0,64.0
2640,69.0,61.0,270.0,4.0,64.0
2641,60.0,24.0,90.0,0.0,64.0
2642,53.0,100.0,90.0,3.0,64.0
2643,52.0,74.0,90.0,3.0,64.0
2644,50.0,4.0,120.0,3.0,64.0
2645,69.0,32.0,90.0,0.0,64.0
2646,65.0,93.0,120.0,1.0,64.0
2647,58.0,2.0,120.0,2.0,64.0
2648,74.0,80.0,90.0,4.0,64.0
2649,62.0,38.0,60.0,0.0,64.0
2650,77.0,101.0,120.0,4.0,64.0
2651,46.0,10.0,300.0,3.0,64.0
2652,74.0,106.0,90.0,4.0,64.0
2653,69.0,35.0,90.0,0.0,64.0
2654,69.0,115.0,120.0,4.0,64.0
2655,74.0,80.0,120.0,4.0,64.0
2656,58.0,8.0,90.0,0.0,64.0
2657,65.0,18.0,90.0,1.0,64.0
2658,58.0,7.0,90.0,2.0,64.0
2659,77.0,6.0,120.0,4.0,64.0
2660,50.0,65.0,90.0,3.0,64.0
2661,74.0,128.0,90.0,4.0,64.0
2662,67.0,110.0,120.0,4.0,64.0
2663,67.0,35.0,60.0,0.0,64.0
2664,58.0,1.0,90.0,2.0,64.0
2665,61.0,16.0,120.0,1.0,64.0
2666,52.0,8.0,90.0,3.0,64.0
2667,69.0,52.0,120.0,4.0,64.0
2668,67.0,113.0,120.0,4.0,64.0
2669,64.0,41.0,60.0,0.0,64.0
2670,50.0,11.0,390.0,3.0,64.0
2671,65.0,102.0,120.0,4.0,64.0
2672,64.0,21.0,90.0,4.0,64.0
2673,67.0,13.0,60.0,0.0,64.0
2674,58.0,17.0,90.0,2.0,64.0
2675,64.0,53.0,120.0,1.0,64.0
2676,65.0,129.0,90.0,4.0,64.0
2677,58.0,33.0,90.0,0.0,64.0
2678,67.0,36.0,300.0,4.0,64.0
2679,52.0,93.0,90.0,3.0,64.0
2680,50.0,108.0,90.0,3.0,64.0
2681,64.0,6.0,120.0,1.0,64.0
2682,49.0,3.0,120.0,3.0,64.0
2683,67.0,6.0,60.0,0.0,64.0
2684,57.0,124.0,120.0,2.0,64.0
2685,73.0,58.0,120.0,4.0,64.0
2686,61.0,84.0,60.0,0.0,64.0
2687,45.0,55.0,330.0,3.0,64.0
2688,76.0,77.0,120.0,4.0,64.0
2689,73.0,98.0,90.0,4.0,64.0
2690,67.0,4.0,90.0,0.0,64.0
2691,67.0,100.0,120.0,4.0,64.0
2692,73.0,67.0,120.0,4.0,64.0
2693,57.0,11.0,90.0,0.0,64.0
2694,64.0,48.0,120.0,1.0,64.0
2695,57.0,19.0,60.0,2.0,64.0
2696,49.0,31.0,90.0,3.0,64.0
2697,76.0,1.0,150.0,4.0,64.0
2698,45.0,51.0,90.0,3.0,64.0
2699,73.0,98.0,90.0,4.0,64.0
2700,50.0,35.0,90.0,3.0,64.0
2701,65.0,4.0,120.0,0.0,64.0
2702,65.0,3.0,90.0,4.0,64.0
2703,62.0,73.0,150.0,1.0,64.0
2704,57.0,39.0,90.0,2.0,64.0
2705,67.0,89.0,150.0,0.0,64.0
2706,64.0,1.0,120.0,4.0,64.0
2707,58.0,6.0,90.0,2.0,64.0
2708,64.0,9.0,120.0,1.0,64.0
2709,45.0,10.0,120.0,3.0,64.0
2710,65.0,9.0,120.0,0.0,64.0
2711,62.0,76.0,150.0,4.0,64.0
2712,57.0,9.0,120.0,2.0,64.0
2713,65.0,11.0,120.0,1.0,64.0
2714,64.0,2.0,120.0,0.0,64.0
2715,67.0,75.0,120.0,1.0,64.0
2716,55.0,2.0,90.0,2.0,64.0
2717,64.0,20.0,90.0,4.0,64.0
2718,62.0,60.0,60.0,0.0,64.0
2719,69.0,2.0,150.0,1.0,64.0
2720,53.0,18.0,120.0,2.0,64.0
2721,65.0,7.0,120.0,4.0,64.0
2722,38.0,77.0,150.0,3.0,64.0
2723,67.0,82.0,120.0,4.0,64.0
2724,65.0,26.0,60.0,0.0,64.0
2725,69.0,91.0,90.0,4.0,64.0
2726,65.0,142.0,90.0,4.0,64.0
2727,70.0,102.0,120.0,4.0,64.0
2728,55.0,26.0,90.0,0.0,64.0
2729,65.0,87.0,120.0,4.0,64.0
2730,58.0,48.0,60.0,0.0,64.0
2731,64.0,113.0,90.0,4.0,64.0
2732,62.0,84.0,120.0,4.0,64.0
2733,60.0,23.0,60.0,0.0,64.0
2734,64.0,132.0,90.0,4.0,64.0
2735,70.0,115.0,120.0,4.0,64.0
2736,69.0,65.0,120.0,4.0,64.0
2737,64.0,9.0,90.0,0.0,64.0
2738,67.0,155.0,90.0,4.0,64.0
2739,69.0,88.0,120.0,4.0,64.0
2740,53.0,33.0,90.0,0.0,64.0
2741,67.0,104.0,120.0,4.0,64.0
2742,65.0,164.0,90.0,4.0,64.0
2743,57.0,13.0,90.0,0.0,64.0
2744,67.0,71.0,150.0,4.0,64.0
2745,62.0,35.0,90.0,0.0,64.0
2746,69.0,113.0,120.0,4.0,64.0
2747,74.0,94.0,120.0,4.0,64.0
2748,73.0,95.0,120.0,4.0,64.0
2749,65.0,17.0,90.0,0.0,64.0
2750,74.0,137.0,90.0,4.0,64.0
2751,76.0,80.0,150.0,4.0,64.0
2752,55.0,49.0,90.0,0.0,64.0
2753,74.0,104.0,120.0,4.0,64.0
2754,73.0,119.0,120.0,4.0,64.0
2755,64.0,15.0,90.0,0.0,64.0
2756,71.0,98.0,120.0,4.0,64.0
2757,57.0,5.0,90.0,0.0,64.0
2758,69.0,141.0,90.0,4.0,64.0
2759,67.0,93.0,120.0,4.0,64.0
2760,65.0,83.0,120.0,4.0,64.0
2761,61.0,26.0,90.0,0.0,64.0
2762,64.0,155.0,90.0,4.0,64.0
2763,65.0,122.0,120.0,4.0,64.0
2764,62.0,40.0,540.0,0.0,64.0
2765,67.0,93.0,120.0,4.0,64.0
2766,65.0,102.0,120.0,4.0,64.0
2767,50.0,30.0,90.0,3.0,64.0
2768,64.0,93.0,120.0,4.0,64.0
2769,62.0,86.0,120.0,4.0,64.0
2770,41.0,5.0,90.0,3.0,64.0
2771,64.0,133.0,90.0,4.0,64.0
2772,65.0,55.0,150.0,4.0,64.0
2773,45.0,38.0,90.0,3.0,64.0
2774,67.0,170.0,60.0,4.0,64.0
2775,38.0,62.0,150.0,3.0,64.0
2776,69.0,20.0,120.0,4.0,64.0
2777,65.0,122.0,90.0,4.0,64.0
2778,62.0,11.0,90.0,2.0,64.0
2779,74.0,24.0,90.0,1.0,64.0
2780,70.0,94.0,120.0,4.0,64.0
2781,77.0,2.0,60.0,0.0,64.0
2782,65.0,108.0,90.0,4.0,64.0
2783,57.0,11.0,90.0,2.0,64.0
2784,72.0,110.0,90.0,1.0,64.0
2785,72.0,0.0,90.0,4.0,64.0
2786,75.0,7.0,60.0,0.0,64.0
2787,65.0,120.0,90.0,4.0,64.0
2788,74.0,18.0,90.0,4.0,64.0
2789,67.0,0.0,90.0,1.0,64.0
2790,59.0,67.0,90.0,2.0,64.0
2791,74.0,4.0,90.0,0.0,64.0
2792,65.0,156.0,60.0,4.0,64.0
2793,63.0,97.0,150.0,4.0,64.0
2794,67.0,20.0,90.0,1.0,64.0
2795,72.0,11.0,90.0,0.0,64.0
2796,60.0,7.0,90.0,2.0,64.0
2797,65.0,113.0,90.0,4.0,64.0
2798,63.0,110.0,120.0,4.0,64.0
2799,48.0,27.0,90.0,3.0,64.0
2800,62.0,131.0,120.0,4.0,64.0
2801,39.0,5.0,120.0,3.0,64.0
2802,60.0,101.0,120.0,4.0,64.0
2803,62.0,109.0,90.0,4.0,64.0
2804,43.0,33.0,90.0,3.0,64.0
2805,63.0,53.0,120.0,4.0,64.0
2806,65.0,169.0,60.0,4.0,64.0
2807,67.0,48.0,90.0,4.0,64.0
2808,36.0,58.0,150.0,3.0,64.0
2809,63.0,108.0,90.0,4.0,64.0
2810,72.0,16.0,90.0,1.0,64.0
2811,60.0,4.0,90.0,2.0,64.0
2812,75.0,5.0,90.0,0.0,64.0
2813,69.0,110.0,90.0,4.0,64.0
2814,63.0,102.0,120.0,4.0,64.0
2815,70.0,4.0,90.0,1.0,64.0
2816,70.0,113.0,120.0,4.0,64.0
2817,74.0,7.0,60.0,0.0,64.0
2818,55.0,22.0,90.0,2.0,64.0
2819,63.0,84.0,120.0,4.0,64.0
2820,72.0,99.0,90.0,4.0,64.0
2821,57.0,11.0,60.0,2.0,64.0
2822,65.0,1.0,60.0,1.0,64.0
2823,72.0,11.0,60.0,0.0,64.0
2824,63.0,151.0,90.0,4.0,64.0
2825,62.0,11.0,120.0,4.0,64.0
2826,58.0,22.0,120.0,2.0,64.0
2827,65.0,71.0,150.0,1.0,64.0
2828,70.0,9.0,90.0,0.0,64.0
2829,60.0,93.0,120.0,2.0,64.0
2830,63.0,15.0,120.0,4.0,64.0
2831,62.0,5.0,90.0,4.0,64.0
2832,62.0,85.0,90.0,2.0,64.0
2833,46.0,10.0,90.0,3.0,64.0
2834,48.0,20.0,90.0,3.0,64.0
2835,63.0,13.0,90.0,2.0,64.0
2836,60.0,106.0,120.0,4.0,64.0
2837,50.0,31.0,90.0,3.0,64.0
2838,65.0,5.0,120.0,2.0,64.0
2839,58.0,68.0,90.0,4.0,64.0
2840,48.0,9.0,90.0,3.0,64.0
2841,63.0,122.0,90.0,2.0,64.0
2842,65.0,5.0,120.0,2.0,64.0
2843,50.0,9.0,90.0,3.0,64.0
2844,70.0,27.0,390.0,1.0,64.0
2845,77.0,12.0,60.0,4.0,64.0
2846,77.0,76.0,60.0,0.0,64.0
2847,46.0,6.0,90.0,3.0,64.0
2848,62.0,155.0,90.0,2.0,64.0
2849,51.0,51.0,150.0,3.0,64.0
2850,63.0,0.0,120.0,2.0,64.0
2851,79.0,9.0,90.0,4.0,64.0
2852,79.0,13.0,90.0,0.0,64.0
2853,50.0,117.0,90.0,3.0,64.0
2854,51.0,5.0,120.0,3.0,64.0
2855,58.0,24.0,90.0,2.0,64.0
2856,77.0,66.0,390.0,4.0,64.0
2857,77.0,2.0,360.0,0.0,64.0
2858,67.0,82.0,90.0,1.0,64.0
2859,53.0,173.0,90.0,3.0,64.0
2860,51.0,22.0,120.0,3.0,64.0
2861,55.0,2.0,90.0,2.0,64.0
2862,72.0,13.0,570.0,1.0,64.0
2863,50.0,127.0,90.0,3.0,64.0
2864,48.0,17.0,120.0,3.0,64.0
2865,75.0,64.0,120.0,4.0,64.0
2866,75.0,13.0,120.0,0.0,64.0
2867,67.0,7.0,90.0,2.0,64.0
2868,51.0,140.0,90.0,3.0,64.0
2869,50.0,80.0,120.0,3.0,64.0
2870,77.0,11.0,120.0,4.0,64.0
2871,77.0,11.0,120.0,0.0,64.0
2872,65.0,42.0,510.0,2.0,64.0
2873,75.0,67.0,120.0,4.0,64.0
2874,48.0,26.0,90.0,3.0,64.0
2875,75.0,0.0,120.0,0.0,64.0
2876,74.0,2.0,90.0,4.0,64.0
2877,74.0,19.0,90.0,0.0,64.0
2878,46.0,83.0,120.0,3.0,64.0
2879,65.0,22.0,60.0,1.0,64.0
2880,75.0,7.0,90.0,4.0,64.0
2881,75.0,15.0,90.0,0.0,64.0
2882,48.0,71.0,90.0,3.0,64.0
2883,77.0,2.0,90.0,4.0,64.0
2884,77.0,31.0,90.0,0.0,64.0
2885,70.0,56.0,510.0,1.0,64.0
2886,50.0,127.0,120.0,3.0,64.0
2887,53.0,72.0,120.0,3.0,64.0
2888,70.0,10.0,90.0,4.0,64.0
2889,70.0,13.0,90.0,0.0,64.0
2890,51.0,96.0,120.0,3.0,64.0
2891,67.0,6.0,90.0,2.0,64.0
2892,50.0,59.0,120.0,3.0,64.0
2893,65.0,0.0,90.0,2.0,64.0
2894,75.0,8.0,90.0,4.0,64.0
2895,63.0,4.0,90.0,2.0,64.0
2896,48.0,89.0,90.0,3.0,64.0
2897,75.0,5.0,90.0,0.0,64.0
2898,69.0,78.0,120.0,1.0,64.0
2899,65.0,33.0,90.0,2.0,64.0
2900,70.0,6.0,90.0,1.0,64.0
2901,67.0,49.0,90.0,2.0,64.0
2902,74.0,22.0,390.0,4.0,64.0
2903,43.0,58.0,120.0,3.0,64.0
2904,74.0,11.0,390.0,0.0,64.0
2905,74.0,146.0,90.0,1.0,64.0
2906,72.0,4.0,120.0,1.0,64.0
2907,55.0,13.0,90.0,2.0,64.0
2908,39.0,51.0,90.0,3.0,64.0
2909,70.0,100.0,90.0,1.0,64.0
2910,69.0,11.0,90.0,1.0,64.0
2911,57.0,24.0,90.0,2.0,64.0
2912,41.0,37.0,90.0,3.0,64.0
2913,39.0,20.0,40.0,3.0,64.0
2914,72.0,192.0,150.0,4.0,64.0
2915,72.0,16.0,120.0,0.0,64.0
2916,72.0,3.0,60.0,1.0,64.0
2917,70.0,63.0,180.0,1.0,64.0
2918,46.0,14.0,120.0,3.0,64.0
2919,53.0,20.0,90.0,2.0,64.0
2920,74.0,12.0,120.0,4.0,64.0
2921,74.0,11.0,120.0,0.0,64.0
2922,45.0,2.0,120.0,3.0,64.0
2923,75.0,11.0,90.0,0.0,64.0
2924,75.0,80.0,120.0,4.0,64.0
2925,74.0,4.0,120.0,4.0,64.0
2926,46.0,67.0,120.0,3.0,64.0
2927,74.0,2.0,120.0,0.0,64.0
2928,58.0,29.0,60.0,2.0,64.0
2929,65.0,2.0,120.0,1.0,64.0
2930,48.0,27.0,90.0,3.0,64.0
2931,72.0,1.0,90.0,0.0,64.0
2932,63.0,106.0,120.0,1.0,64.0
2933,72.0,14.0,90.0,4.0,64.0
2934,62.0,20.0,120.0,1.0,64.0
2935,50.0,72.0,120.0,3.0,64.0
2936,70.0,23.0,390.0,4.0,64.0
2937,70.0,46.0,330.0,0.0,64.0
2938,65.0,5.0,90.0,2.0,64.0
2939,60.0,1.0,90.0,1.0,64.0
2940,51.0,121.0,90.0,3.0,64.0
2941,58.0,4.0,120.0,1.0,64.0
2942,53.0,14.0,90.0,3.0,64.0
2943,62.0,11.0,90.0,2.0,64.0
2944,57.0,26.0,90.0,1.0,64.0
2945,50.0,122.0,90.0,3.0,64.0
2946,58.0,33.0,120.0,1.0,64.0
2947,72.0,2.0,90.0,4.0,64.0
2948,55.0,9.0,90.0,3.0,64.0
2949,63.0,15.0,90.0,2.0,64.0
2950,72.0,7.0,90.0,0.0,64.0
2951,70.0,54.0,60.0,0.0,64.0
2952,70.0,0.0,60.0,4.0,64.0
2953,60.0,43.0,120.0,1.0,64.0
2954,72.0,2.0,60.0,0.0,64.0
2955,72.0,6.0,60.0,4.0,64.0
2956,70.0,6.0,60.0,0.0,64.0
2957,70.0,46.0,60.0,4.0,64.0
2958,62.0,3.0,120.0,1.0,64.0
2959,65.0,3.0,90.0,2.0,64.0
2960,53.0,18.0,420.0,3.0,64.0
2961,72.0,16.0,60.0,0.0,64.0
2962,72.0,15.0,60.0,4.0,64.0
2963,70.0,16.0,40.0,0.0,64.0
2964,70.0,40.0,40.0,4.0,64.0
2965,72.0,18.0,60.0,0.0,64.0
2966,58.0,2.0,60.0,1.0,64.0
2967,72.0,18.0,60.0,4.0,64.0
2968,70.0,16.0,40.0,0.0,64.0
2969,70.0,33.0,40.0,4.0,64.0
2970,72.0,26.0,40.0,0.0,64.0
2971,60.0,13.0,150.0,1.0,64.0
2972,72.0,18.0,60.0,4.0,64.0
2973,70.0,22.0,60.0,0.0,64.0
2974,55.0,8.0,90.0,2.0,64.0
2975,70.0,25.0,40.0,4.0,64.0
2976,72.0,14.0,60.0,0.0,64.0
2977,72.0,15.0,60.0,4.0,64.0
2978,62.0,28.0,120.0,1.0,64.0
2979,70.0,25.0,60.0,0.0,64.0
2980,70.0,15.0,40.0,4.0,64.0
2981,72.0,5.0,60.0,0.0,64.0
2982,72.0,0.0,60.0,4.0,64.0
2983,70.0,36.0,40.0,0.0,64.0
2984,63.0,14.0,90.0,1.0,64.0
2985,70.0,24.0,40.0,4.0,64.0
2986,67.0,4.0,90.0,2.0,64.0
2987,72.0,22.0,60.0,0.0,64.0
2988,51.0,13.0,120.0,3.0,64.0
2989,72.0,37.0,60.0,4.0,64.0
2990,70.0,0.0,60.0,0.0,64.0
2991,70.0,5.0,40.0,4.0,64.0
2992,60.0,11.0,90.0,1.0,64.0
2993,72.0,25.0,60.0,0.0,64.0
2994,70.0,9.0,40.0,0.0,64.0
2995,72.0,37.0,60.0,4.0,64.0
2996,70.0,7.0,40.0,4.0,64.0
2997,72.0,38.0,40.0,0.0,64.0
2998,62.0,6.0,150.0,1.0,64.0
2999,70.0,15.0,60.0,0.0,64.0
3000,72.0,35.0,60.0,4.0,64.0
3001,65.0,6.0,90.0,2.0,64.0
3002,53.0,14.0,120.0,3.0,64.0
3003,72.0,18.0,60.0,0.0,64.0
3004,70.0,3.0,40.0,4.0,64.0
3005,70.0,20.0,60.0,0.0,64.0
3006,72.0,33.0,60.0,4.0,64.0
3007,60.0,17.0,90.0,1.0,64.0
3008,51.0,9.0,90.0,3.0,64.0
3009,72.0,7.0,60.0,0.0,64.0
3010,70.0,9.0,40.0,4.0,64.0
3011,70.0,17.0,40.0,0.0,64.0
3012,72.0,36.0,60.0,4.0,64.0
3013,50.0,7.0,90.0,3.0,64.0
3014,72.0,26.0,60.0,0.0,64.0
3015,70.0,5.0,40.0,4.0,64.0
3016,58.0,18.0,90.0,1.0,64.0
3017,53.0,16.0,300.0,2.0,64.0
3018,70.0,4.0,60.0,0.0,64.0
3019,72.0,37.0,60.0,4.0,64.0
3020,72.0,33.0,60.0,0.0,64.0
3021,51.0,11.0,90.0,3.0,64.0
3022,70.0,3.0,40.0,4.0,64.0
3023,60.0,7.0,90.0,1.0,64.0
3024,70.0,4.0,60.0,0.0,64.0
3025,72.0,31.0,40.0,4.0,64.0
3026,72.0,42.0,60.0,0.0,64.0
3027,70.0,5.0,40.0,4.0,64.0
3028,70.0,15.0,60.0,0.0,64.0
3029,53.0,20.0,120.0,3.0,64.0
3030,62.0,5.0,120.0,1.0,64.0
3031,72.0,22.0,60.0,4.0,64.0
3032,72.0,0.0,60.0,0.0,64.0
3033,70.0,15.0,40.0,4.0,64.0
3034,70.0,24.0,60.0,0.0,64.0
3035,72.0,33.0,60.0,4.0,64.0
3036,63.0,31.0,90.0,1.0,64.0
3037,53.0,35.0,120.0,2.0,64.0
3038,72.0,9.0,60.0,0.0,64.0
3039,70.0,2.0,40.0,4.0,64.0
3040,70.0,16.0,60.0,0.0,64.0
3041,72.0,0.0,40.0,4.0,64.0
3042,65.0,7.0,90.0,1.0,64.0
3043,72.0,28.0,60.0,0.0,64.0
3044,46.0,4.0,90.0,3.0,64.0
3045,70.0,5.0,40.0,4.0,64.0
3046,55.0,29.0,90.0,2.0,64.0
3047,70.0,17.0,60.0,0.0,64.0
3048,72.0,8.0,40.0,4.0,64.0
3049,72.0,38.0,60.0,0.0,64.0
3050,70.0,6.0,40.0,4.0,64.0
3051,62.0,9.0,90.0,1.0,64.0
3052,56.0,31.0,90.0,2.0,64.0
3053,70.0,9.0,60.0,0.0,64.0
3054,72.0,8.0,60.0,4.0,64.0
3055,72.0,33.0,60.0,0.0,64.0
3056,70.0,5.0,40.0,4.0,64.0
3057,70.0,24.0,60.0,0.0,64.0
3058,67.0,5.0,90.0,1.0,64.0
3059,51.0,20.0,90.0,3.0,64.0
3060,55.0,17.0,120.0,2.0,64.0
3061,72.0,9.0,40.0,4.0,64.0
3062,72.0,16.0,40.0,0.0,64.0
3063,70.0,6.0,40.0,4.0,64.0
3064,70.0,31.0,60.0,0.0,64.0
3065,57.0,29.0,120.0,2.0,64.0
3066,72.0,27.0,60.0,4.0,64.0
3067,72.0,2.0,60.0,0.0,64.0
3068,70.0,36.0,40.0,4.0,64.0
3069,70.0,4.0,40.0,0.0,64.0
3070,72.0,29.0,60.0,4.0,64.0
3071,65.0,6.0,390.0,1.0,64.0
3072,50.0,29.0,360.0,3.0,64.0
3073,72.0,4.0,60.0,0.0,64.0
3074,58.0,28.0,90.0,2.0,64.0
3075,70.0,31.0,40.0,4.0,64.0
3076,70.0,9.0,40.0,0.0,64.0
3077,72.0,25.0,60.0,4.0,64.0
3078,72.0,7.0,40.0,0.0,64.0
3079,70.0,31.0,40.0,4.0,64.0
3080,60.0,36.0,90.0,2.0,64.0
3081,70.0,20.0,60.0,0.0,64.0
3082,72.0,8.0,40.0,4.0,64.0
3083,72.0,2.0,60.0,0.0,64.0
3084,70.0,33.0,40.0,4.0,64.0
3085,62.0,29.0,90.0,2.0,64.0
3086,70.0,16.0,40.0,0.0,64.0
3087,72.0,11.0,40.0,4.0,64.0
3088,72.0,6.0,60.0,0.0,64.0
3089,70.0,15.0,40.0,4.0,64.0
3090,70.0,3.0,60.0,0.0,64.0
3091,63.0,14.0,120.0,2.0,64.0
3092,72.0,36.0,60.0,4.0,64.0
3093,70.0,8.0,40.0,4.0,64.0
3094,72.0,31.0,60.0,0.0,64.0
3095,72.0,2.0,60.0,4.0,64.0
3096,70.0,42.0,40.0,0.0,64.0
3097,65.0,18.0,90.0,2.0,64.0
3098,48.0,7.0,90.0,3.0,64.0
3099,63.0,29.0,120.0,1.0,64.0
3100,70.0,15.0,40.0,4.0,64.0
3101,72.0,9.0,60.0,0.0,64.0
3102,72.0,18.0,40.0,4.0,64.0
3103,70.0,6.0,60.0,0.0,64.0
3104,67.0,17.0,90.0,2.0,64.0
3105,70.0,24.0,60.0,4.0,64.0
3106,72.0,11.0,60.0,0.0,64.0
3107,72.0,19.0,60.0,4.0,64.0
3108,70.0,73.0,60.0,0.0,64.0
3109,70.0,0.0,240.0,4.0,64.0
3110,72.0,21.0,90.0,0.0,64.0
3111,65.0,38.0,90.0,2.0,64.0
3112,50.0,56.0,120.0,3.0,64.0
3113,65.0,18.0,120.0,1.0,64.0
3114,70.0,7.0,180.0,0.0,64.0
3115,51.0,110.0,120.0,3.0,64.0
3116,67.0,11.0,90.0,1.0,64.0
3117,65.0,7.0,90.0,1.0,64.0
3118,53.0,28.0,90.0,2.0,64.0
3119,50.0,33.0,120.0,3.0,64.0
3120,58.0,11.0,120.0,0.0,64.0
3121,58.0,29.0,120.0,4.0,64.0
3122,63.0,3.0,90.0,1.0,64.0
3123,48.0,28.0,90.0,3.0,64.0
3124,60.0,64.0,150.0,4.0,64.0
3125,60.0,43.0,90.0,0.0,64.0
3126,62.0,26.0,90.0,1.0,64.0
3127,62.0,14.0,120.0,0.0,64.0
3128,46.0,88.0,120.0,3.0,64.0
3129,53.0,3.0,90.0,2.0,64.0
3130,62.0,1.0,90.0,4.0,64.0
3131,63.0,19.0,120.0,0.0,64.0
3132,48.0,1.0,90.0,3.0,64.0
3133,63.0,82.0,90.0,4.0,64.0
3134,58.0,20.0,90.0,1.0,64.0
3135,65.0,7.0,90.0,0.0,64.0
3136,50.0,0.0,90.0,3.0,64.0
3137,65.0,46.0,120.0,4.0,64.0
3138,53.0,17.0,90.0,2.0,64.0
3139,67.0,21.0,90.0,0.0,64.0
3140,46.0,4.0,90.0,3.0,64.0
3141,67.0,133.0,90.0,4.0,64.0
3142,68.0,20.0,150.0,0.0,64.0
3143,48.0,24.0,90.0,3.0,64.0
3144,63.0,5.0,90.0,1.0,64.0
3145,68.0,62.0,120.0,4.0,64.0
3146,60.0,0.0,90.0,2.0,64.0
3147,70.0,38.0,90.0,0.0,64.0
3148,70.0,77.0,120.0,4.0,64.0
3149,68.0,22.0,120.0,0.0,64.0
3150,60.0,18.0,90.0,1.0,64.0
3151,56.0,0.0,90.0,2.0,64.0
3152,53.0,2.0,90.0,3.0,64.0
3153,68.0,77.0,120.0,4.0,64.0
3154,67.0,36.0,90.0,0.0,64.0
3155,67.0,88.0,120.0,4.0,64.0
3156,65.0,2.0,120.0,0.0,64.0
3157,65.0,0.0,90.0,1.0,64.0
3158,50.0,9.0,90.0,3.0,64.0
3159,65.0,93.0,90.0,4.0,64.0
3160,58.0,20.0,60.0,2.0,64.0
3161,70.0,38.0,120.0,0.0,64.0
3162,70.0,78.0,120.0,4.0,64.0
3163,68.0,5.0,150.0,0.0,64.0
3164,62.0,42.0,90.0,1.0,64.0
3165,46.0,4.0,90.0,3.0,64.0
3166,58.0,2.0,90.0,2.0,64.0
3167,68.0,42.0,120.0,4.0,64.0
3168,70.0,35.0,90.0,0.0,64.0
3169,70.0,111.0,90.0,4.0,64.0
3170,67.0,99.0,120.0,0.0,64.0
3171,51.0,59.0,510.0,3.0,64.0
3172,63.0,17.0,90.0,1.0,64.0
3173,67.0,7.0,90.0,4.0,64.0
3174,58.0,7.0,90.0,2.0,64.0
3175,68.0,20.0,120.0,0.0,64.0
3176,68.0,89.0,120.0,4.0,64.0
3177,67.0,9.0,120.0,0.0,64.0
3178,58.0,6.0,90.0,1.0,64.0
3179,67.0,79.0,120.0,4.0,64.0
3180,63.0,16.0,90.0,2.0,64.0
3181,65.0,3.0,90.0,0.0,64.0
3182,65.0,68.0,90.0,4.0,64.0
3183,63.0,5.0,120.0,0.0,64.0
3184,67.0,10.0,90.0,1.0,64.0
3185,63.0,80.0,120.0,4.0,64.0
3186,58.0,21.0,90.0,2.0,64.0
3187,65.0,16.0,90.0,0.0,64.0
3188,65.0,51.0,150.0,4.0,64.0
3189,50.0,33.0,90.0,3.0,64.0
3190,51.0,11.0,90.0,3.0,64.0
3191,67.0,9.0,120.0,0.0,64.0
3192,67.0,42.0,150.0,4.0,64.0
3193,60.0,18.0,60.0,1.0,64.0
3194,55.0,42.0,90.0,2.0,64.0
3195,48.0,6.0,90.0,3.0,64.0
3196,69.0,9.0,60.0,0.0,64.0
3197,69.0,126.0,60.0,4.0,64.0
3198,50.0,7.0,120.0,3.0,64.0
3199,70.0,28.0,120.0,0.0,64.0
3200,65.0,15.0,60.0,1.0,64.0
3201,62.0,14.0,90.0,2.0,64.0
3202,70.0,71.0,120.0,4.0,64.0
3203,72.0,25.0,90.0,0.0,64.0
3204,72.0,91.0,90.0,4.0,64.0
3205,55.0,6.0,90.0,3.0,64.0
3206,70.0,31.0,90.0,0.0,64.0
3207,62.0,2.0,90.0,1.0,64.0
3208,58.0,3.0,90.0,2.0,64.0
3209,70.0,84.0,120.0,4.0,64.0
3210,69.0,29.0,120.0,0.0,64.0
3211,69.0,84.0,120.0,4.0,64.0
3212,67.0,7.0,120.0,0.0,64.0
3213,52.0,13.0,90.0,3.0,64.0
3214,60.0,5.0,90.0,2.0,64.0
3215,67.0,8.0,90.0,1.0,64.0
3216,67.0,99.0,120.0,4.0,64.0
3217,72.0,24.0,120.0,0.0,64.0
3218,72.0,85.0,120.0,4.0,64.0
3219,70.0,13.0,120.0,0.0,64.0
3220,64.0,11.0,90.0,1.0,64.0
3221,70.0,78.0,120.0,4.0,64.0
3222,48.0,4.0,90.0,3.0,64.0
3223,60.0,11.0,90.0,2.0,64.0
3224,72.0,104.0,90.0,0.0,64.0
3225,72.0,4.0,90.0,4.0,64.0
3226,69.0,0.0,120.0,0.0,64.0
3227,65.0,36.0,60.0,1.0,64.0
3228,69.0,68.0,120.0,4.0,64.0
3229,53.0,23.0,540.0,3.0,64.0
3230,60.0,24.0,90.0,2.0,64.0
3231,67.0,43.0,90.0,0.0,64.0
3232,67.0,82.0,120.0,4.0,64.0
3233,65.0,8.0,120.0,0.0,64.0
3234,60.0,18.0,90.0,1.0,64.0
3235,57.0,23.0,90.0,2.0,64.0
3236,65.0,102.0,120.0,4.0,64.0
3237,67.0,16.0,120.0,0.0,64.0
3238,67.0,51.0,120.0,4.0,64.0
3239,69.0,7.0,120.0,0.0,64.0
3240,72.0,20.0,90.0,1.0,64.0
3241,65.0,4.0,90.0,2.0,64.0
3242,69.0,91.0,90.0,4.0,64.0
3243,70.0,2.0,90.0,0.0,64.0
3244,70.0,100.0,90.0,4.0,64.0
3245,55.0,7.0,60.0,3.0,64.0
3246,72.0,12.0,90.0,0.0,64.0
3247,65.0,10.0,90.0,1.0,64.0
3248,57.0,3.0,90.0,3.0,64.0
3249,72.0,67.0,120.0,4.0,64.0
3250,60.0,16.0,90.0,2.0,64.0
3251,74.0,0.0,90.0,0.0,64.0
3252,53.0,122.0,90.0,3.0,64.0
3253,74.0,13.0,90.0,4.0,64.0
3254,75.0,20.0,120.0,0.0,64.0
3255,55.0,3.0,120.0,3.0,64.0
3256,70.0,11.0,90.0,1.0,64.0
3257,75.0,110.0,120.0,4.0,64.0
3258,67.0,6.0,90.0,2.0,64.0
3259,77.0,82.0,150.0,0.0,64.0
3260,77.0,7.0,120.0,4.0,64.0
3261,67.0,16.0,90.0,1.0,64.0
3262,75.0,6.0,120.0,0.0,64.0
3263,63.0,2.0,90.0,2.0,64.0
3264,60.0,11.0,90.0,3.0,64.0
3265,75.0,85.0,120.0,4.0,64.0
3266,74.0,15.0,90.0,0.0,64.0
3267,74.0,102.0,120.0,4.0,64.0
3268,72.0,4.0,90.0,0.0,64.0
3269,72.0,9.0,90.0,1.0,64.0
3270,65.0,23.0,90.0,2.0,64.0
3271,72.0,6.0,120.0,4.0,64.0
3272,57.0,95.0,120.0,3.0,64.0
3273,77.0,15.0,120.0,0.0,64.0
3274,77.0,94.0,120.0,4.0,64.0
3275,75.0,0.0,120.0,0.0,64.0
3276,69.0,17.0,90.0,1.0,64.0
3277,75.0,93.0,120.0,4.0,64.0
3278,53.0,4.0,90.0,3.0,64.0
3279,65.0,14.0,90.0,2.0,64.0
3280,77.0,107.0,120.0,0.0,64.0
3281,77.0,6.0,90.0,4.0,64.0
3282,70.0,7.0,90.0,1.0,64.0
3283,74.0,17.0,90.0,0.0,64.0
3284,74.0,0.0,120.0,4.0,64.0
3285,65.0,95.0,120.0,2.0,64.0
3286,58.0,20.0,90.0,3.0,64.0
3287,75.0,14.0,120.0,0.0,64.0
3288,67.0,93.0,120.0,2.0,64.0
3289,75.0,4.0,120.0,4.0,64.0
3290,74.0,47.0,120.0,0.0,64.0
3291,69.0,4.0,90.0,1.0,64.0
3292,65.0,1.0,90.0,2.0,64.0
3293,74.0,57.0,150.0,4.0,64.0
3294,53.0,0.0,90.0,3.0,64.0
3295,72.0,5.0,120.0,0.0,64.0
3296,63.0,111.0,90.0,2.0,64.0
3297,72.0,8.0,90.0,4.0,64.0
3298,70.0,5.0,120.0,0.0,64.0
3299,70.0,22.0,120.0,1.0,64.0
3300,62.0,10.0,90.0,2.0,64.0
3301,70.0,86.0,120.0,4.0,64.0
3302,55.0,98.0,240.0,3.0,64.0
3303,72.0,3.0,120.0,0.0,64.0
3304,69.0,9.0,120.0,1.0,64.0
3305,63.0,15.0,90.0,2.0,64.0
3306,72.0,4.0,120.0,4.0,64.0
3307,74.0,3.0,120.0,0.0,64.0
3308,70.0,16.0,120.0,1.0,64.0
3309,62.0,6.0,120.0,2.0,64.0
3310,74.0,48.0,150.0,4.0,64.0
3311,53.0,6.0,90.0,3.0,64.0
3312,72.0,12.0,90.0,1.0,64.0
3313,75.0,4.0,90.0,0.0,64.0
3314,75.0,101.0,120.0,4.0,64.0
3315,60.0,9.0,90.0,2.0,64.0
3316,51.0,9.0,90.0,3.0,64.0
3317,74.0,6.0,90.0,1.0,64.0
3318,77.0,3.0,90.0,0.0,64.0
3319,58.0,31.0,90.0,2.0,64.0
3320,77.0,11.0,90.0,4.0,64.0
3321,50.0,64.0,120.0,3.0,64.0
3322,57.0,27.0,90.0,2.0,64.0
3323,48.0,87.0,120.0,3.0,64.0
3324,50.0,3.0,120.0,3.0,64.0
3325,58.0,4.0,120.0,2.0,64.0
3326,70.0,24.0,90.0,4.0,64.0
3327,65.0,73.0,120.0,1.0,64.0
3328,70.0,8.0,60.0,0.0,64.0
3329,51.0,12.0,90.0,3.0,64.0
3330,60.0,103.0,90.0,2.0,64.0
3331,63.0,14.0,90.0,1.0,64.0
3332,53.0,6.0,90.0,3.0,64.0
3333,62.0,5.0,90.0,2.0,64.0
3334,65.0,19.0,90.0,0.0,64.0
3335,62.0,99.0,90.0,1.0,64.0
3336,65.0,3.0,90.0,4.0,64.0
3337,63.0,125.0,90.0,2.0,64.0
3338,65.0,5.0,90.0,2.0,64.0
3339,41.0,6.0,90.0,3.0,64.0
3340,69.0,11.0,90.0,0.0,64.0
3341,60.0,26.0,90.0,1.0,64.0
3342,69.0,355.0,120.0,4.0,64.0
3343,65.0,0.0,510.0,2.0,64.0
3344,70.0,113.0,240.0,0.0,64.0
3345,70.0,39.0,450.0,4.0,64.0
3346,34.0,67.0,510.0,3.0,64.0
3347,62.0,25.0,480.0,1.0,64.0
3348,58.0,104.0,90.0,0.0,64.0
3349,57.0,11.0,90.0,0.0,64.0
3350,58.0,108.0,90.0,0.0,64.0
3351,70.0,97.0,120.0,4.0,64.0
3352,69.0,89.0,120.0,4.0,64.0
3353,60.0,40.0,60.0,0.0,64.0
3354,67.0,115.0,90.0,4.0,64.0
3355,62.0,51.0,90.0,0.0,64.0
3356,65.0,97.0,120.0,4.0,64.0
3357,70.0,89.0,90.0,4.0,64.0
3358,65.0,55.0,90.0,0.0,64.0
3359,69.0,95.0,120.0,4.0,64.0
3360,70.0,100.0,120.0,4.0,64.0
3361,46.0,2.0,330.0,3.0,64.0
3362,58.0,22.0,90.0,0.0,64.0
3363,65.0,56.0,360.0,1.0,64.0
3364,74.0,128.0,90.0,4.0,64.0
3365,58.0,22.0,330.0,2.0,64.0
3366,70.0,82.0,120.0,4.0,64.0
3367,69.0,13.0,120.0,4.0,64.0
3368,65.0,14.0,90.0,0.0,64.0
3369,70.0,143.0,90.0,4.0,64.0
3370,57.0,31.0,90.0,0.0,64.0
3371,72.0,124.0,120.0,4.0,64.0
3372,65.0,18.0,540.0,1.0,64.0
3373,57.0,10.0,510.0,2.0,64.0
3374,41.0,9.0,510.0,3.0,64.0
3375,70.0,69.0,150.0,4.0,64.0
3376,69.0,117.0,120.0,4.0,64.0
3377,65.0,47.0,60.0,0.0,64.0
3378,67.0,51.0,120.0,4.0,64.0
3379,60.0,16.0,90.0,0.0,64.0
3380,65.0,152.0,90.0,4.0,64.0
3381,70.0,62.0,150.0,4.0,64.0
3382,69.0,99.0,120.0,4.0,64.0
3383,65.0,45.0,90.0,0.0,64.0
3384,67.0,98.0,90.0,4.0,64.0
3385,57.0,33.0,90.0,0.0,64.0
3386,65.0,135.0,90.0,4.0,64.0
3387,72.0,58.0,120.0,4.0,64.0
3388,65.0,50.0,60.0,0.0,64.0
3389,70.0,87.0,90.0,4.0,64.0
3390,72.0,130.0,90.0,4.0,64.0
3391,75.0,11.0,90.0,4.0,64.0
3392,53.0,104.0,90.0,0.0,64.0
3393,65.0,11.0,330.0,1.0,64.0
3394,60.0,1.0,360.0,2.0,64.0
3395,45.0,59.0,330.0,3.0,64.0
3396,72.0,125.0,120.0,4.0,64.0
3397,70.0,17.0,90.0,4.0,64.0
3398,63.0,2.0,90.0,0.0,64.0
3399,72.0,146.0,90.0,4.0,64.0
3400,74.0,125.0,120.0,4.0,64.0
3401,58.0,13.0,90.0,0.0,64.0
3402,46.0,9.0,510.0,3.0,64.0
3403,65.0,4.0,540.0,1.0,64.0
3404,58.0,9.0,510.0,2.0,64.0
3405,75.0,84.0,120.0,4.0,64.0
3406,74.0,125.0,120.0,4.0,64.0
3407,65.0,28.0,90.0,0.0,64.0
3408,72.0,55.0,120.0,4.0,64.0
3409,62.0,189.0,90.0,0.0,64.0
3410,70.0,15.0,60.0,4.0,64.0
3411,75.0,46.0,150.0,4.0,64.0
3412,74.0,102.0,120.0,4.0,64.0
3413,65.0,51.0,60.0,0.0,64.0
3414,72.0,104.0,120.0,4.0,64.0
3415,68.0,11.0,90.0,0.0,64.0
3416,70.0,135.0,90.0,4.0,64.0
3417,77.0,97.0,120.0,4.0,64.0
3418,75.0,97.0,120.0,4.0,64.0
3419,65.0,9.0,90.0,0.0,64.0
3420,77.0,131.0,90.0,4.0,64.0
3421,80.0,16.0,90.0,4.0,64.0
3422,62.0,135.0,120.0,0.0,64.0
3423,65.0,48.0,360.0,2.0,64.0
3424,46.0,16.0,330.0,3.0,64.0
3425,70.0,16.0,330.0,1.0,64.0
3426,77.0,71.0,150.0,4.0,64.0
3427,75.0,4.0,120.0,4.0,64.0
3428,70.0,26.0,60.0,0.0,64.0
3429,77.0,146.0,60.0,4.0,64.0
3430,63.0,16.0,90.0,0.0,64.0
3431,79.0,137.0,90.0,4.0,64.0
3432,63.0,17.0,540.0,2.0,64.0
3433,51.0,26.0,480.0,3.0,64.0
3434,70.0,27.0,510.0,1.0,64.0
3435,80.0,71.0,120.0,4.0,64.0
3436,79.0,88.0,120.0,4.0,64.0
3437,67.0,27.0,60.0,0.0,64.0
3438,77.0,58.0,90.0,4.0,64.0
3439,79.0,124.0,120.0,4.0,64.0
3440,72.0,43.0,60.0,0.0,64.0
3441,75.0,77.0,150.0,4.0,64.0
3442,63.0,27.0,90.0,0.0,64.0
3443,74.0,90.0,120.0,4.0,64.0
3444,72.0,140.0,90.0,4.0,64.0
3445,62.0,23.0,120.0,0.0,64.0
3446,77.0,114.0,120.0,4.0,64.0
3447,75.0,82.0,120.0,4.0,64.0
3448,71.0,24.0,90.0,0.0,64.0
3449,74.0,107.0,90.0,4.0,64.0
3450,77.0,99.0,90.0,4.0,64.0
3451,67.0,7.0,330.0,2.0,64.0
3452,72.0,71.0,60.0,0.0,64.0
3453,48.0,20.0,330.0,3.0,64.0
3454,72.0,78.0,360.0,1.0,64.0
3455,75.0,113.0,120.0,4.0,64.0
3456,74.0,64.0,120.0,4.0,64.0
3457,67.0,13.0,90.0,0.0,64.0
3458,72.0,4.0,120.0,4.0,64.0
3459,75.0,124.0,60.0,4.0,64.0
3460,74.0,57.0,510.0,1.0,64.0
3461,71.0,33.0,90.0,0.0,64.0
3462,74.0,46.0,120.0,4.0,64.0
3463,67.0,0.0,540.0,2.0,64.0
3464,55.0,76.0,120.0,3.0,64.0
3465,72.0,19.0,120.0,4.0,64.0
3466,56.0,54.0,120.0,3.0,64.0
3467,71.0,57.0,90.0,4.0,64.0
3468,74.0,13.0,60.0,0.0,64.0
3469,55.0,76.0,120.0,3.0,64.0
3470,69.0,24.0,120.0,4.0,64.0
3471,53.0,16.0,120.0,3.0,64.0
3472,67.0,18.0,90.0,4.0,64.0
3473,51.0,121.0,90.0,3.0,64.0
3474,79.0,9.0,60.0,0.0,64.0
3475,50.0,20.0,120.0,3.0,64.0
3476,65.0,89.0,120.0,2.0,64.0
3477,48.0,2.0,120.0,3.0,64.0
3478,63.0,4.0,90.0,2.0,64.0
3479,67.0,1.0,90.0,1.0,64.0
3480,79.0,2.0,90.0,4.0,64.0
3481,79.0,86.0,90.0,0.0,64.0
3482,47.0,146.0,90.0,3.0,64.0
3483,62.0,7.0,90.0,2.0,64.0
3484,48.0,76.0,150.0,3.0,64.0
3485,63.0,8.0,120.0,2.0,64.0
3486,72.0,2.0,1530.0,1.0,64.0
3487,80.0,19.0,90.0,0.0,64.0
3488,80.0,8.0,60.0,4.0,64.0
3489,50.0,111.0,120.0,3.0,64.0
3490,65.0,4.0,90.0,2.0,64.0
3491,51.0,6.0,90.0,3.0,64.0
3492,67.0,106.0,90.0,2.0,64.0
3493,79.0,26.0,360.0,0.0,64.0
3494,79.0,29.0,390.0,4.0,64.0
3495,48.0,151.0,120.0,3.0,64.0
3496,63.0,9.0,90.0,2.0,64.0
3497,50.0,6.0,120.0,3.0,64.0
3498,65.0,14.0,120.0,2.0,64.0
3499,51.0,117.0,120.0,3.0,64.0
3500,67.0,11.0,90.0,2.0,64.0
3501,53.0,38.0,120.0,3.0,64.0
3502,68.0,14.0,90.0,2.0,64.0
3503,77.0,18.0,120.0,4.0,64.0
3504,77.0,28.0,90.0,0.0,64.0
3505,65.0,8.0,90.0,2.0,64.0
3506,50.0,160.0,90.0,3.0,64.0
3507,51.0,8.0,570.0,3.0,64.0
3508,72.0,25.0,90.0,2.0,64.0
3509,79.0,82.0,120.0,4.0,64.0
3510,79.0,19.0,90.0,0.0,64.0
3511,77.0,14.0,90.0,4.0,64.0
3512,77.0,95.0,120.0,0.0,64.0
3513,67.0,31.0,90.0,2.0,64.0
3514,75.0,71.0,120.0,4.0,64.0
3515,75.0,6.0,90.0,0.0,64.0
3516,77.0,0.0,90.0,4.0,64.0
3517,77.0,118.0,90.0,0.0,64.0
3518,63.0,3.0,90.0,2.0,64.0
3519,79.0,9.0,90.0,0.0,64.0
3520,79.0,97.0,90.0,4.0,64.0
3521,50.0,118.0,90.0,3.0,64.0
3522,51.0,18.0,120.0,3.0,64.0
3523,72.0,11.0,90.0,0.0,64.0
3524,67.0,4.0,90.0,2.0,64.0
3525,72.0,6.0,90.0,4.0,64.0
3526,67.0,62.0,120.0,1.0,64.0
3527,69.0,115.0,120.0,1.0,64.0
3528,53.0,27.0,60.0,3.0,64.0
3529,71.0,9.0,90.0,1.0,64.0
3530,51.0,100.0,120.0,3.0,64.0
3531,65.0,10.0,120.0,2.0,64.0
3532,77.0,4.0,90.0,0.0,64.0
3533,77.0,14.0,90.0,4.0,64.0
3534,50.0,84.0,120.0,3.0,64.0
3535,48.0,20.0,90.0,3.0,64.0
3536,72.0,11.0,90.0,1.0,64.0
3537,67.0,80.0,90.0,2.0,64.0
3538,75.0,47.0,390.0,0.0,64.0
3539,75.0,24.0,360.0,4.0,64.0
3540,51.0,153.0,90.0,3.0,64.0
3541,50.0,4.0,120.0,3.0,64.0
3542,68.0,20.0,90.0,2.0,64.0
3543,65.0,7.0,90.0,1.0,64.0
3544,48.0,130.0,90.0,3.0,64.0
3545,47.0,6.0,120.0,3.0,64.0
3546,67.0,29.0,90.0,1.0,64.0
3547,62.0,31.0,120.0,2.0,64.0
3548,74.0,29.0,150.0,0.0,64.0
3549,74.0,12.0,120.0,4.0,64.0
3550,50.0,134.0,90.0,3.0,64.0
3551,48.0,69.0,90.0,3.0,64.0
3552,75.0,0.0,150.0,0.0,64.0
3553,67.0,68.0,120.0,2.0,64.0
3554,75.0,1.0,120.0,4.0,64.0
3555,60.0,2.0,180.0,1.0,64.0
3556,77.0,7.0,90.0,0.0,64.0
3557,68.0,17.0,90.0,2.0,64.0
3558,77.0,76.0,120.0,4.0,64.0
3559,43.0,19.0,90.0,3.0,64.0
3560,75.0,7.0,120.0,0.0,64.0
3561,75.0,18.0,120.0,4.0,64.0
3562,67.0,64.0,120.0,2.0,64.0
3563,72.0,4.0,90.0,1.0,64.0
3564,74.0,11.0,120.0,0.0,64.0
3565,65.0,12.0,90.0,2.0,64.0
3566,74.0,113.0,120.0,4.0,64.0
3567,71.0,6.0,90.0,1.0,64.0
3568,72.0,9.0,120.0,0.0,64.0
3569,67.0,73.0,120.0,2.0,64.0
3570,72.0,4.0,90.0,4.0,64.0
3571,39.0,5.0,90.0,3.0,64.0
3572,72.0,9.0,120.0,1.0,64.0
3573,74.0,4.0,120.0,4.0,64.0
3574,74.0,11.0,90.0,0.0,64.0
3575,65.0,91.0,90.0,2.0,64.0
3576,43.0,20.0,90.0,3.0,64.0
3577,75.0,3.0,120.0,0.0,64.0
3578,75.0,70.0,120.0,4.0,64.0
3579,63.0,20.0,90.0,2.0,64.0
3580,72.0,4.0,90.0,1.0,64.0
3581,62.0,10.0,90.0,2.0,64.0
3582,74.0,3.0,60.0,1.0,64.0
3583,77.0,16.0,90.0,0.0,64.0
3584,77.0,106.0,90.0,4.0,64.0
3585,79.0,4.0,120.0,0.0,64.0
3586,60.0,22.0,90.0,2.0,64.0
3587,75.0,18.0,120.0,1.0,64.0
3588,36.0,19.0,210.0,3.0,64.0
3589,79.0,72.0,120.0,4.0,64.0
3590,81.0,65.0,120.0,0.0,64.0
3591,81.0,35.0,150.0,4.0,64.0
3592,82.0,4.0,120.0,0.0,64.0
3593,65.0,20.0,90.0,2.0,64.0
3594,38.0,11.0,90.0,3.0,64.0
3595,82.0,74.0,120.0,4.0,64.0
3596,74.0,29.0,390.0,1.0,64.0
3597,79.0,11.0,90.0,0.0,64.0
3598,39.0,4.0,90.0,3.0,64.0
3599,79.0,120.0,90.0,4.0,64.0
3600,41.0,37.0,90.0,3.0,64.0
3601,81.0,11.0,120.0,0.0,64.0
3602,65.0,4.0,90.0,2.0,64.0
3603,81.0,36.0,120.0,4.0,64.0
3604,82.0,9.0,90.0,0.0,64.0
3605,43.0,20.0,90.0,3.0,64.0
3606,82.0,75.0,90.0,4.0,64.0
3607,45.0,20.0,90.0,3.0,64.0
3608,84.0,18.0,90.0,0.0,64.0
3609,65.0,4.0,90.0,2.0,64.0
3610,72.0,12.0,150.0,1.0,64.0
3611,84.0,52.0,90.0,4.0,64.0
3612,41.0,15.0,90.0,3.0,64.0
3613,81.0,25.0,90.0,0.0,64.0
3614,81.0,133.0,90.0,4.0,64.0
3615,65.0,20.0,210.0,2.0,64.0
3616,82.0,18.0,540.0,0.0,64.0
3617,46.0,9.0,120.0,3.0,64.0
3618,74.0,84.0,120.0,1.0,64.0
3619,82.0,15.0,540.0,4.0,64.0
3620,72.0,4.0,120.0,1.0,64.0
3621,48.0,89.0,120.0,3.0,64.0
3622,70.0,9.0,90.0,1.0,64.0
3623,50.0,50.0,90.0,3.0,64.0
3624,70.0,48.0,120.0,2.0,64.0
3625,48.0,13.0,120.0,3.0,64.0
3626,72.0,21.0,90.0,1.0,64.0
3627,69.0,84.0,120.0,2.0,64.0
3628,67.0,4.0,120.0,2.0,64.0
3629,46.0,100.0,120.0,3.0,64.0
3630,74.0,14.0,90.0,1.0,64.0
3631,65.0,26.0,120.0,2.0,64.0
3632,81.0,12.0,120.0,4.0,64.0
3633,81.0,33.0,120.0,0.0,64.0
3634,63.0,42.0,60.0,2.0,64.0
3635,51.0,11.0,90.0,3.0,64.0
3636,67.0,9.0,90.0,1.0,64.0
3637,82.0,60.0,120.0,4.0,64.0
3638,82.0,11.0,90.0,0.0,64.0
3639,62.0,26.0,90.0,2.0,64.0
3640,84.0,120.0,90.0,0.0,64.0
3641,84.0,4.0,60.0,4.0,64.0
3642,63.0,24.0,330.0,2.0,64.0
3643,48.0,0.0,210.0,3.0,64.0
3644,72.0,33.0,90.0,1.0,64.0
3645,82.0,34.0,120.0,0.0,64.0
3646,82.0,70.0,120.0,4.0,64.0
3647,81.0,27.0,90.0,0.0,64.0
3648,81.0,69.0,120.0,4.0,64.0
3649,79.0,2.0,120.0,0.0,64.0
3650,70.0,76.0,360.0,1.0,64.0
3651,79.0,104.0,90.0,4.0,64.0
3652,82.0,11.0,90.0,0.0,64.0
3653,82.0,142.0,90.0,4.0,64.0
3654,62.0,14.0,300.0,2.0,64.0
3655,50.0,17.0,210.0,3.0,64.0
3656,81.0,8.0,120.0,0.0,64.0
3657,81.0,7.0,120.0,4.0,64.0
3658,79.0,81.0,120.0,4.0,64.0
3659,79.0,0.0,90.0,0.0,64.0
3660,78.0,37.0,120.0,0.0,64.0
3661,78.0,32.0,90.0,4.0,64.0
3662,69.0,46.0,120.0,1.0,64.0
3663,81.0,125.0,90.0,0.0,64.0
3664,81.0,0.0,90.0,4.0,64.0
3665,79.0,69.0,90.0,0.0,64.0
3666,79.0,6.0,90.0,4.0,64.0
3667,62.0,4.0,330.0,2.0,64.0
3668,43.0,55.0,240.0,3.0,64.0
3669,70.0,90.0,120.0,1.0,64.0
3670,72.0,21.0,120.0,1.0,64.0
3671,74.0,0.0,90.0,0.0,64.0
3672,74.0,24.0,90.0,4.0,64.0
3673,70.0,114.0,90.0,1.0,64.0
3674,69.0,99.0,90.0,1.0,64.0
3675,67.0,97.0,120.0,1.0,64.0
3676,79.0,22.0,60.0,0.0,64.0
3677,79.0,20.0,90.0,4.0,64.0
3678,69.0,118.0,90.0,1.0,64.0
3679,70.0,7.0,120.0,1.0,64.0
3680,67.0,82.0,90.0,4.0,64.0
3681,67.0,6.0,90.0,0.0,64.0
3682,72.0,151.0,90.0,1.0,64.0
3683,74.0,80.0,150.0,1.0,64.0
3684,77.0,15.0,90.0,0.0,64.0
3685,77.0,24.0,90.0,4.0,64.0
3686,75.0,108.0,90.0,1.0,64.0
3687,74.0,104.0,120.0,1.0,64.0
3688,71.0,12.0,60.0,0.0,64.0
3689,71.0,8.0,90.0,4.0,64.0
3690,72.0,129.0,90.0,1.0,64.0
3691,71.0,117.0,120.0,1.0,64.0
3692,77.0,15.0,90.0,0.0,64.0
3693,77.0,18.0,90.0,4.0,64.0
3694,72.0,73.0,120.0,1.0,64.0
3695,67.0,0.0,60.0,4.0,64.0
3696,67.0,20.0,60.0,0.0,64.0
3697,74.0,62.0,120.0,1.0,64.0
3698,67.0,36.0,90.0,2.0,64.0
3699,71.0,155.0,90.0,1.0,64.0
3700,72.0,70.0,150.0,1.0,64.0
3701,75.0,2.0,120.0,0.0,64.0
3702,75.0,16.0,120.0,4.0,64.0
3703,68.0,20.0,90.0,2.0,64.0
3704,77.0,2.0,90.0,0.0,64.0
3705,77.0,11.0,90.0,4.0,64.0
3706,74.0,114.0,90.0,1.0,64.0
3707,79.0,3.0,120.0,0.0,64.0
3708,79.0,82.0,120.0,4.0,64.0
3709,75.0,10.0,90.0,1.0,64.0
3710,67.0,54.0,360.0,2.0,64.0
3711,75.0,4.0,90.0,0.0,64.0
3712,72.0,155.0,90.0,1.0,64.0
3713,75.0,4.0,90.0,4.0,64.0
3714,77.0,12.0,120.0,0.0,64.0
3715,77.0,4.0,150.0,4.0,64.0
3716,74.0,15.0,120.0,1.0,64.0
3717,79.0,13.0,90.0,0.0,64.0
3718,75.0,6.0,90.0,1.0,64.0
3719,79.0,93.0,120.0,4.0,64.0
3720,80.0,18.0,90.0,4.0,64.0
3721,77.0,7.0,90.0,1.0,64.0
3722,80.0,55.0,90.0,0.0,64.0
3723,65.0,2.0,150.0,2.0,64.0
3724,74.0,159.0,90.0,1.0,64.0
3725,77.0,13.0,60.0,0.0,64.0
3726,77.0,5.0,60.0,4.0,64.0
3727,75.0,22.0,570.0,1.0,64.0
3728,71.0,29.0,90.0,0.0,64.0
3729,71.0,3.0,90.0,4.0,64.0
3730,67.0,92.0,120.0,2.0,64.0
3731,65.0,104.0,90.0,2.0,64.0
3732,63.0,0.0,120.0,2.0,64.0
3733,67.0,97.0,90.0,0.0,64.0
3734,67.0,12.0,90.0,4.0,64.0
3735,65.0,115.0,90.0,2.0,64.0
3736,67.0,120.0,90.0,2.0,64.0
3737,72.0,35.0,510.0,0.0,64.0
3738,72.0,39.0,540.0,4.0,64.0
3739,74.0,113.0,90.0,1.0,64.0
3740,60.0,6.0,90.0,2.0,64.0
3741,75.0,87.0,90.0,1.0,64.0
3742,77.0,117.0,60.0,1.0,64.0
3743,65.0,5.0,90.0,2.0,64.0
3744,75.0,76.0,120.0,1.0,64.0
3745,74.0,9.0,90.0,1.0,64.0
3746,70.0,77.0,120.0,0.0,64.0
3747,70.0,11.0,90.0,4.0,64.0
3748,72.0,27.0,60.0,1.0,64.0
3749,68.0,0.0,90.0,0.0,64.0
3750,63.0,54.0,360.0,2.0,64.0
3751,68.0,82.0,90.0,4.0,64.0
3752,75.0,20.0,60.0,1.0,64.0
3753,67.0,2.0,90.0,0.0,64.0
3754,67.0,153.0,90.0,4.0,64.0
3755,74.0,16.0,120.0,1.0,64.0
3756,65.0,2.0,120.0,4.0,64.0
3757,65.0,1.0,120.0,0.0,64.0
3758,72.0,91.0,120.0,1.0,64.0
3759,67.0,13.0,90.0,4.0,64.0
3760,67.0,9.0,90.0,0.0,64.0
3761,71.0,79.0,90.0,1.0,64.0
3762,68.0,24.0,420.0,4.0,64.0
3763,62.0,51.0,120.0,2.0,64.0
3764,68.0,20.0,420.0,0.0,64.0
3765,74.0,160.0,90.0,1.0,64.0
3766,72.0,21.0,120.0,1.0,64.0
3767,63.0,38.0,120.0,2.0,64.0
3768,65.0,107.0,90.0,2.0,64.0
3769,63.0,19.0,120.0,2.0,64.0
3770,67.0,29.0,90.0,1.0,64.0
3771,67.0,3.0,120.0,4.0,64.0
3772,67.0,79.0,90.0,0.0,64.0
3773,62.0,22.0,90.0,2.0,64.0
3774,65.0,1.0,120.0,4.0,64.0
3775,65.0,123.0,120.0,0.0,64.0
3776,60.0,101.0,120.0,2.0,64.0
3777,63.0,3.0,120.0,4.0,64.0
3778,63.0,0.0,120.0,0.0,64.0
3779,72.0,60.0,630.0,1.0,64.0
3780,62.0,3.0,120.0,0.0,64.0
3781,62.0,118.0,120.0,4.0,64.0
3782,62.0,4.0,120.0,2.0,64.0
3783,60.0,5.0,120.0,0.0,64.0
3784,63.0,77.0,120.0,2.0,64.0
3785,60.0,2.0,120.0,4.0,64.0
3786,48.0,6.0,90.0,3.0,64.0
3787,59.0,9.0,90.0,0.0,64.0
3788,59.0,7.0,90.0,4.0,64.0
3789,65.0,130.0,90.0,2.0,64.0
3790,67.0,42.0,120.0,2.0,64.0
3791,60.0,9.0,90.0,0.0,64.0
3792,60.0,7.0,120.0,4.0,64.0
3793,51.0,2.0,90.0,3.0,64.0
3794,69.0,111.0,120.0,2.0,64.0
3795,70.0,4.0,90.0,2.0,64.0
3796,50.0,38.0,390.0,3.0,64.0
3797,67.0,88.0,90.0,0.0,64.0
3798,74.0,18.0,90.0,1.0,64.0
3799,67.0,0.0,90.0,4.0,64.0
3800,67.0,9.0,90.0,2.0,64.0
3801,70.0,124.0,90.0,1.0,64.0
3802,69.0,13.0,120.0,2.0,64.0
3803,75.0,0.0,90.0,1.0,64.0
3804,66.0,30.0,90.0,0.0,64.0
3805,66.0,19.0,120.0,4.0,64.0
3806,70.0,9.0,90.0,2.0,64.0
3807,67.0,22.0,90.0,0.0,64.0
3808,67.0,101.0,90.0,4.0,64.0
3809,72.0,60.0,90.0,2.0,64.0
3810,69.0,24.0,390.0,0.0,64.0
3811,66.0,46.0,390.0,1.0,64.0
3812,48.0,45.0,120.0,3.0,64.0
3813,69.0,1.0,390.0,4.0,64.0
3814,69.0,166.0,90.0,2.0,64.0
3815,70.0,20.0,600.0,2.0,64.0
3816,50.0,17.0,90.0,3.0,64.0
3817,48.0,124.0,90.0,3.0,64.0
3818,46.0,4.0,90.0,3.0,64.0
3819,62.0,3.0,90.0,0.0,64.0
3820,67.0,88.0,120.0,1.0,64.0
3821,62.0,22.0,90.0,4.0,64.0
3822,48.0,7.0,90.0,3.0,64.0
3823,69.0,133.0,90.0,1.0,64.0
3824,50.0,71.0,150.0,3.0,64.0
3825,70.0,20.0,120.0,1.0,64.0
3826,67.0,42.0,510.0,0.0,64.0
3827,67.0,20.0,510.0,4.0,64.0
3828,72.0,0.0,90.0,1.0,64.0
3829,69.0,121.0,90.0,2.0,64.0
3830,43.0,75.0,120.0,3.0,64.0
3831,74.0,2.0,90.0,1.0,64.0
3832,70.0,14.0,90.0,2.0,64.0
3833,72.0,78.0,60.0,2.0,64.0
3834,63.0,2.0,90.0,1.0,64.0
3835,48.0,42.0,90.0,3.0,64.0
3836,70.0,82.0,120.0,2.0,64.0
3837,69.0,108.0,90.0,2.0,64.0
3838,62.0,40.0,390.0,1.0,64.0
3839,46.0,0.0,360.0,3.0,64.0
3840,67.0,24.0,90.0,2.0,64.0
3841,79.0,7.0,90.0,0.0,64.0
3842,79.0,71.0,90.0,4.0,64.0
3843,70.0,159.0,90.0,2.0,64.0
3844,69.0,11.0,120.0,2.0,64.0
3845,78.0,16.0,90.0,0.0,64.0
3846,78.0,31.0,120.0,4.0,64.0
3847,67.0,4.0,90.0,2.0,64.0
3848,79.0,22.0,90.0,0.0,64.0
3849,79.0,84.0,120.0,4.0,64.0
3850,66.0,31.0,90.0,2.0,64.0
3851,81.0,9.0,90.0,0.0,64.0
3852,45.0,62.0,120.0,3.0,64.0
3853,81.0,24.0,90.0,4.0,64.0
3854,60.0,3.0,120.0,1.0,64.0
3855,69.0,113.0,120.0,2.0,64.0
3856,74.0,45.0,90.0,0.0,64.0
3857,67.0,14.0,150.0,2.0,64.0
3858,62.0,15.0,120.0,1.0,64.0
3859,74.0,10.0,90.0,4.0,64.0
3860,46.0,46.0,120.0,3.0,64.0
3861,63.0,47.0,90.0,1.0,64.0
3862,48.0,90.0,120.0,3.0,64.0
3863,62.0,1.0,120.0,1.0,64.0
3864,46.0,3.0,120.0,3.0,64.0
3865,58.0,8.0,90.0,2.0,64.0
3866,67.0,60.0,120.0,4.0,64.0
3867,67.0,10.0,90.0,0.0,64.0
3868,60.0,3.0,90.0,2.0,64.0
3869,45.0,38.0,120.0,3.0,64.0
3870,66.0,13.0,90.0,0.0,64.0
3871,60.0,13.0,90.0,1.0,64.0
3872,69.0,64.0,120.0,4.0,64.0
3873,62.0,20.0,210.0,2.0,64.0
3874,43.0,2.0,210.0,3.0,64.0
3875,67.0,60.0,60.0,0.0,64.0
3876,58.0,16.0,180.0,1.0,64.0
3877,70.0,57.0,120.0,4.0,64.0
3878,72.0,108.0,90.0,4.0,64.0
3879,74.0,89.0,90.0,4.0,64.0
3880,55.0,0.0,90.0,0.0,64.0
3881,70.0,144.0,90.0,4.0,64.0
3882,75.0,129.0,120.0,4.0,64.0
3883,60.0,4.0,90.0,0.0,64.0
3884,70.0,110.0,120.0,4.0,64.0
3885,63.0,14.0,90.0,0.0,64.0
3886,69.0,154.0,120.0,4.0,64.0
3887,67.0,58.0,150.0,4.0,64.0
3888,65.0,16.0,90.0,0.0,64.0
3889,69.0,137.0,90.0,4.0,64.0
3890,75.0,95.0,120.0,4.0,64.0
3891,69.0,27.0,90.0,0.0,64.0
3892,74.0,82.0,120.0,4.0,64.0
3893,72.0,145.0,90.0,4.0,64.0
3894,74.0,100.0,150.0,4.0,64.0
3895,58.0,49.0,90.0,0.0,64.0
3896,72.0,89.0,120.0,4.0,64.0
3897,62.0,39.0,90.0,0.0,64.0
3898,70.0,127.0,120.0,4.0,64.0
3899,72.0,73.0,150.0,4.0,64.0
3900,67.0,22.0,90.0,0.0,64.0
3901,74.0,143.0,90.0,4.0,64.0
3902,79.0,63.0,120.0,4.0,64.0
3903,70.0,28.0,60.0,0.0,64.0
3904,78.0,140.0,90.0,4.0,64.0
3905,79.0,91.0,120.0,4.0,64.0
3906,81.0,117.0,120.0,4.0,64.0
3907,60.0,23.0,90.0,0.0,64.0
3908,79.0,87.0,120.0,4.0,64.0
3909,78.0,115.0,120.0,4.0,64.0
3910,69.0,18.0,90.0,0.0,64.0
3911,76.0,106.0,90.0,4.0,64.0
3912,62.0,16.0,90.0,0.0,64.0
3913,74.0,104.0,90.0,4.0,64.0
3914,72.0,124.0,90.0,4.0,64.0
3915,70.0,100.0,120.0,4.0,64.0
3916,66.0,13.0,90.0,0.0,64.0
3917,69.0,131.0,90.0,4.0,64.0
3918,70.0,118.0,120.0,4.0,64.0
3919,67.0,19.0,90.0,0.0,64.0
3920,72.0,99.0,120.0,4.0,64.0
3921,62.0,34.0,90.0,0.0,64.0
3922,70.0,93.0,120.0,4.0,64.0
3923,69.0,113.0,90.0,4.0,64.0
3924,58.0,46.0,90.0,0.0,64.0
3925,67.0,108.0,120.0,4.0,64.0
3926,69.0,93.0,120.0,4.0,64.0
3927,55.0,5.0,150.0,1.0,64.0
3928,70.0,59.0,90.0,4.0,64.0
3929,67.0,5.0,90.0,0.0,64.0
3930,55.0,51.0,150.0,2.0,64.0
3931,67.0,126.0,90.0,4.0,64.0
3932,62.0,73.0,3030.0,2.0,64.0
3933,66.0,24.0,90.0,0.0,64.0
3934,69.0,94.0,120.0,4.0,64.0
3935,62.0,43.0,2970.0,1.0,64.0
3936,74.0,119.0,90.0,4.0,64.0
3937,72.0,109.0,90.0,4.0,64.0
3938,69.0,2.0,90.0,0.0,64.0
3939,74.0,124.0,90.0,4.0,64.0
3940,62.0,19.0,90.0,0.0,64.0
3941,71.0,87.0,120.0,4.0,64.0
3942,74.0,124.0,90.0,4.0,64.0
3943,70.0,116.0,90.0,4.0,64.0
3944,67.0,15.0,90.0,0.0,64.0
3945,74.0,121.0,120.0,4.0,64.0
3946,66.0,24.0,90.0,0.0,64.0
3947,69.0,100.0,120.0,4.0,64.0
3948,74.0,117.0,90.0,4.0,64.0
3949,69.0,29.0,90.0,0.0,64.0
3950,72.0,86.0,120.0,4.0,64.0
3951,74.0,118.0,90.0,4.0,64.0
3952,70.0,129.0,90.0,4.0,64.0
3953,62.0,9.0,90.0,0.0,64.0
3954,74.0,99.0,90.0,4.0,64.0
3955,72.0,26.0,90.0,0.0,64.0
3956,69.0,100.0,120.0,4.0,64.0
3957,74.0,125.0,90.0,4.0,64.0
3958,70.0,19.0,90.0,0.0,64.0
3959,67.0,86.0,120.0,4.0,64.0
3960,74.0,124.0,90.0,4.0,64.0
3961,70.0,5.0,90.0,4.0,64.0
3962,79.0,116.0,90.0,0.0,64.0
3963,74.0,123.0,120.0,4.0,64.0
3964,69.0,0.0,90.0,4.0,64.0
3965,78.0,117.0,90.0,0.0,64.0
3966,74.0,117.0,90.0,4.0,64.0
3967,67.0,71.0,120.0,4.0,64.0
3968,79.0,36.0,90.0,0.0,64.0
3969,74.0,128.0,90.0,4.0,64.0
3970,66.0,15.0,90.0,4.0,64.0
3971,81.0,11.0,60.0,0.0,64.0
3972,67.0,33.0,120.0,4.0,64.0
3973,61.0,46.0,150.0,2.0,64.0
3974,64.0,20.0,120.0,1.0,64.0
3975,66.0,20.0,90.0,4.0,64.0
3976,66.0,29.0,120.0,1.0,64.0
3977,62.0,64.0,120.0,2.0,64.0
3978,74.0,100.0,360.0,0.0,64.0
3979,64.0,7.0,120.0,4.0,64.0
3980,67.0,68.0,90.0,1.0,64.0
3981,64.0,53.0,150.0,2.0,64.0
3982,62.0,9.0,240.0,4.0,64.0
3983,69.0,22.0,90.0,1.0,64.0
3984,66.0,9.0,90.0,2.0,64.0
3985,67.0,35.0,120.0,2.0,64.0
3986,72.0,80.0,120.0,0.0,64.0
3987,62.0,84.0,390.0,1.0,64.0
3988,54.0,24.0,90.0,3.0,64.0
3989,69.0,92.0,120.0,2.0,64.0
3990,70.0,14.0,90.0,0.0,64.0
3991,69.0,125.0,90.0,0.0,64.0
3992,70.0,18.0,90.0,0.0,64.0
3993,67.0,6.0,90.0,2.0,64.0
3994,55.0,2.0,90.0,3.0,64.0
3995,69.0,52.0,90.0,0.0,64.0
3996,60.0,74.0,120.0,1.0,64.0
3997,67.0,8.0,120.0,0.0,64.0
3998,62.0,15.0,90.0,2.0,64.0
3999,53.0,57.0,360.0,3.0,64.0
4000,58.0,73.0,90.0,1.0,64.0
4001,69.0,19.0,90.0,0.0,64.0
4002,60.0,116.0,90.0,1.0,64.0
4003,70.0,20.0,120.0,0.0,64.0
4004,67.0,2.0,90.0,2.0,64.0
4005,62.0,11.0,90.0,1.0,64.0
4006,74.0,113.0,60.0,0.0,64.0
4007,72.0,0.0,90.0,0.0,64.0
4008,60.0,11.0,60.0,2.0,64.0
4009,67.0,80.0,60.0,1.0,64.0
4010,52.0,5.0,150.0,3.0,64.0
4011,70.0,177.0,60.0,0.0,64.0
4012,69.0,0.0,120.0,0.0,64.0
4013,65.0,6.0,90.0,1.0,64.0
4014,60.0,42.0,90.0,2.0,64.0
4015,53.0,73.0,120.0,3.0,64.0
4016,55.0,106.0,90.0,3.0,64.0
4017,72.0,9.0,90.0,0.0,64.0
4018,53.0,106.0,120.0,3.0,64.0
4019,65.0,4.0,90.0,2.0,64.0
4020,69.0,16.0,90.0,1.0,64.0
4021,52.0,105.0,120.0,3.0,64.0
4022,77.0,4.0,90.0,0.0,64.0
4023,50.0,113.0,120.0,3.0,64.0
4024,69.0,20.0,90.0,2.0,64.0
4025,74.0,15.0,60.0,1.0,64.0
4026,49.0,89.0,120.0,3.0,64.0
4027,50.0,6.0,90.0,3.0,64.0
4028,74.0,0.0,90.0,0.0,64.0
4029,65.0,45.0,90.0,2.0,64.0
4030,69.0,71.0,120.0,1.0,64.0
4031,52.0,121.0,90.0,3.0,64.0
4032,67.0,23.0,90.0,1.0,64.0
4033,53.0,31.0,120.0,3.0,64.0
4034,62.0,31.0,330.0,2.0,64.0
4035,71.0,119.0,120.0,0.0,64.0
4036,74.0,66.0,150.0,0.0,64.0
4037,79.0,76.0,120.0,0.0,64.0
4038,51.0,6.0,330.0,3.0,64.0
4039,71.0,11.0,90.0,1.0,64.0
4040,77.0,121.0,90.0,0.0,64.0
4041,55.0,104.0,120.0,2.0,64.0
4042,75.0,0.0,90.0,0.0,64.0
4043,72.0,14.0,60.0,1.0,64.0
4044,74.0,113.0,90.0,0.0,64.0
4045,65.0,3.0,90.0,1.0,64.0
4046,62.0,42.0,90.0,2.0,64.0
4047,72.0,17.0,90.0,0.0,64.0
4048,50.0,43.0,120.0,3.0,64.0
4049,71.0,127.0,60.0,0.0,64.0
4050,72.0,16.0,90.0,0.0,64.0
4051,60.0,38.0,120.0,2.0,64.0
4052,67.0,15.0,90.0,1.0,64.0
4053,51.0,74.0,120.0,3.0,64.0
4054,53.0,107.0,90.0,3.0,64.0
4055,67.0,1.0,90.0,0.0,64.0
4056,51.0,14.0,90.0,3.0,64.0
4057,63.0,109.0,120.0,2.0,64.0
4058,72.0,8.0,90.0,1.0,64.0
4059,50.0,101.0,120.0,3.0,64.0
4060,48.0,84.0,120.0,3.0,64.0
4061,75.0,23.0,90.0,0.0,64.0
4062,63.0,13.0,90.0,2.0,64.0
4063,67.0,7.0,90.0,1.0,64.0
4064,46.0,113.0,90.0,3.0,64.0
4065,72.0,12.0,90.0,0.0,64.0
4066,48.0,10.0,120.0,3.0,64.0
4067,63.0,4.0,90.0,1.0,64.0
4068,67.0,104.0,90.0,2.0,64.0
4069,50.0,128.0,90.0,3.0,64.0
4070,69.0,106.0,150.0,0.0,64.0
4071,51.0,4.0,90.0,3.0,64.0
4072,65.0,20.0,330.0,2.0,64.0
4073,60.0,34.0,90.0,1.0,64.0
4074,72.0,75.0,150.0,0.0,64.0
4075,77.0,77.0,120.0,0.0,64.0
4076,69.0,12.0,90.0,1.0,64.0
4077,50.0,89.0,360.0,3.0,64.0
4078,75.0,120.0,90.0,0.0,64.0
4079,53.0,11.0,90.0,2.0,64.0
4080,74.0,8.0,90.0,0.0,64.0
4081,70.0,31.0,90.0,1.0,64.0
4082,72.0,115.0,90.0,0.0,64.0
4083,60.0,9.0,90.0,2.0,64.0
4084,48.0,77.0,120.0,3.0,64.0
4085,63.0,11.0,90.0,1.0,64.0
4086,70.0,7.0,90.0,0.0,64.0
4087,69.0,144.0,60.0,0.0,64.0
4088,70.0,15.0,120.0,0.0,64.0
4089,50.0,90.0,120.0,3.0,64.0
4090,58.0,3.0,120.0,2.0,64.0
4091,65.0,20.0,90.0,1.0,64.0
4092,51.0,5.0,120.0,3.0,64.0
4093,65.0,93.0,120.0,0.0,64.0
4094,57.0,18.0,120.0,2.0,64.0
4095,50.0,91.0,120.0,3.0,64.0
4096,63.0,10.0,90.0,1.0,64.0
4097,58.0,5.0,120.0,2.0,64.0
4098,67.0,0.0,90.0,0.0,64.0
4099,48.0,13.0,90.0,3.0,64.0
4100,60.0,16.0,90.0,2.0,64.0
4101,69.0,96.0,90.0,0.0,64.0
4102,46.0,102.0,240.0,3.0,64.0
4103,62.0,19.0,90.0,2.0,64.0
4104,62.0,11.0,90.0,1.0,64.0
4105,70.0,70.0,90.0,0.0,64.0
4106,63.0,23.0,60.0,2.0,64.0
4107,72.0,24.0,90.0,0.0,64.0
4108,65.0,26.0,120.0,2.0,64.0
4109,74.0,13.0,90.0,0.0,64.0
4110,58.0,18.0,90.0,1.0,64.0
4111,74.0,58.0,120.0,4.0,64.0
4112,75.0,151.0,90.0,0.0,64.0
4113,77.0,14.0,2940.0,0.0,64.0
4114,57.0,17.0,90.0,1.0,64.0
4115,72.0,118.0,120.0,4.0,64.0
4116,53.0,54.0,510.0,2.0,64.0
4117,77.0,93.0,120.0,4.0,64.0
4118,60.0,33.0,90.0,1.0,64.0
4119,76.0,75.0,120.0,4.0,64.0
4120,77.0,86.0,90.0,4.0,64.0
4121,75.0,11.0,120.0,4.0,64.0
4122,53.0,93.0,120.0,1.0,64.0
4123,77.0,124.0,90.0,4.0,64.0
4124,74.0,31.0,120.0,4.0,64.0
4125,58.0,8.0,90.0,1.0,64.0
4126,55.0,76.0,120.0,2.0,64.0
4127,77.0,128.0,120.0,4.0,64.0
4128,72.0,90.0,120.0,4.0,64.0
4129,57.0,16.0,90.0,1.0,64.0
4130,57.0,22.0,510.0,2.0,64.0
4131,77.0,128.0,90.0,4.0,64.0
4132,75.0,89.0,120.0,4.0,64.0
4133,60.0,20.0,90.0,1.0,64.0
4134,77.0,98.0,90.0,4.0,64.0
4135,53.0,22.0,90.0,1.0,64.0
4136,74.0,95.0,120.0,4.0,64.0
4137,77.0,117.0,90.0,4.0,64.0
4138,63.0,42.0,90.0,1.0,64.0
4139,72.0,73.0,120.0,4.0,64.0
4140,57.0,0.0,120.0,2.0,64.0
4141,77.0,126.0,90.0,4.0,64.0
4142,70.0,103.0,120.0,4.0,64.0
4143,62.0,21.0,90.0,1.0,64.0
4144,58.0,7.0,510.0,2.0,64.0
4145,77.0,116.0,120.0,4.0,64.0
4146,74.0,95.0,120.0,4.0,64.0
4147,70.0,13.0,60.0,1.0,64.0
4148,77.0,117.0,90.0,4.0,64.0
4149,72.0,29.0,90.0,4.0,64.0
4150,69.0,88.0,90.0,1.0,64.0
4151,77.0,124.0,120.0,4.0,64.0
4152,70.0,101.0,120.0,4.0,64.0
4153,62.0,9.0,90.0,2.0,64.0
4154,70.0,16.0,60.0,1.0,64.0
4155,77.0,101.0,120.0,4.0,64.0
4156,69.0,138.0,90.0,4.0,64.0
4157,72.0,7.0,60.0,1.0,64.0
4158,65.0,63.0,480.0,2.0,64.0
4159,70.0,41.0,120.0,4.0,64.0
4160,79.0,69.0,150.0,0.0,64.0
4161,69.0,14.0,120.0,4.0,64.0
4162,77.0,6.0,90.0,0.0,64.0
4163,53.0,89.0,120.0,3.0,64.0
4164,65.0,13.0,330.0,1.0,64.0
4165,67.0,33.0,120.0,4.0,64.0
4166,75.0,28.0,90.0,0.0,64.0
4167,74.0,20.0,120.0,0.0,64.0
4168,65.0,26.0,120.0,4.0,64.0
4169,58.0,53.0,120.0,3.0,64.0
4170,72.0,32.0,90.0,0.0,64.0
4171,57.0,92.0,120.0,3.0,64.0
4172,55.0,91.0,120.0,3.0,64.0
4173,70.0,7.0,90.0,0.0,64.0
4174,70.0,5.0,90.0,2.0,64.0
4175,74.0,11.0,90.0,1.0,64.0
4176,77.0,6.0,90.0,4.0,64.0
4177,74.0,13.0,90.0,0.0,64.0
4178,53.0,104.0,120.0,3.0,64.0
4179,51.0,9.0,90.0,3.0,64.0
4180,75.0,6.0,90.0,1.0,64.0
4181,79.0,10.0,90.0,0.0,64.0
4182,67.0,115.0,330.0,2.0,64.0
4183,79.0,110.0,90.0,4.0,64.0
4184,50.0,116.0,120.0,3.0,64.0
4185,48.0,24.0,120.0,3.0,64.0
4186,77.0,7.0,330.0,0.0,64.0
4187,77.0,15.0,330.0,4.0,64.0
4188,74.0,103.0,360.0,1.0,64.0
4189,47.0,100.0,150.0,3.0,64.0
4190,48.0,13.0,120.0,3.0,64.0
4191,67.0,21.0,330.0,2.0,64.0
4192,51.0,110.0,120.0,3.0,64.0
4193,50.0,15.0,120.0,3.0,64.0
4194,75.0,3.0,120.0,0.0,64.0
4195,72.0,2.0,90.0,1.0,64.0
4196,75.0,76.0,120.0,4.0,64.0
4197,48.0,137.0,120.0,3.0,64.0
4198,47.0,4.0,120.0,3.0,64.0
4199,74.0,12.0,120.0,1.0,64.0
4200,77.0,1.0,120.0,0.0,64.0
4201,77.0,82.0,90.0,4.0,64.0
4202,67.0,0.0,540.0,2.0,64.0
4203,72.0,11.0,120.0,1.0,64.0
4204,48.0,11.0,120.0,3.0,64.0
4205,75.0,18.0,90.0,0.0,64.0
4206,75.0,89.0,120.0,4.0,64.0
4207,50.0,2.0,120.0,3.0,64.0
4208,71.0,7.0,120.0,1.0,64.0
4209,74.0,13.0,90.0,0.0,64.0
4210,74.0,80.0,120.0,4.0,64.0
4211,75.0,2.0,90.0,0.0,64.0
4212,72.0,6.0,90.0,1.0,64.0
4213,75.0,121.0,90.0,4.0,64.0
4214,48.0,1.0,90.0,3.0,64.0
4215,47.0,5.0,90.0,3.0,64.0
4216,77.0,74.0,120.0,4.0,64.0
4217,74.0,19.0,90.0,1.0,64.0
4218,77.0,9.0,90.0,0.0,64.0
4219,43.0,111.0,90.0,3.0,64.0
4220,79.0,11.0,90.0,4.0,64.0
4221,55.0,45.0,180.0,3.0,64.0
4222,75.0,48.0,120.0,4.0,64.0
4223,72.0,14.0,90.0,1.0,64.0
4224,75.0,2.0,90.0,0.0,64.0
4225,55.0,6.0,90.0,2.0,64.0
4226,77.0,117.0,90.0,4.0,64.0
4227,74.0,22.0,90.0,0.0,64.0
4228,74.0,117.0,120.0,4.0,64.0
4229,67.0,58.0,510.0,1.0,64.0
4230,59.0,18.0,90.0,2.0,64.0
4231,55.0,37.0,2940.0,3.0,64.0
4232,79.0,84.0,120.0,4.0,64.0
4233,77.0,7.0,60.0,0.0,64.0
4234,77.0,88.0,120.0,4.0,64.0
4235,62.0,27.0,90.0,2.0,64.0
4236,79.0,62.0,90.0,4.0,64.0
4237,76.0,91.0,120.0,4.0,64.0
4238,76.0,4.0,60.0,0.0,64.0
4239,55.0,19.0,90.0,2.0,64.0
4240,79.0,122.0,90.0,4.0,64.0
4241,75.0,93.0,120.0,4.0,64.0
4242,67.0,2.0,90.0,1.0,64.0
4243,75.0,14.0,60.0,0.0,64.0
4244,60.0,9.0,60.0,2.0,64.0
4245,79.0,126.0,90.0,4.0,64.0
4246,74.0,3.0,90.0,4.0,64.0
4247,59.0,93.0,90.0,2.0,64.0
4248,74.0,21.0,60.0,0.0,64.0
4249,67.0,51.0,480.0,1.0,64.0
4250,79.0,120.0,90.0,4.0,64.0
4251,77.0,77.0,120.0,4.0,64.0
4252,62.0,6.0,90.0,2.0,64.0
4253,77.0,25.0,60.0,0.0,64.0
4254,79.0,73.0,90.0,4.0,64.0
4255,75.0,6.0,90.0,4.0,64.0
4256,75.0,18.0,60.0,0.0,64.0
4257,55.0,84.0,90.0,2.0,64.0
4258,79.0,135.0,90.0,4.0,64.0
4259,74.0,7.0,120.0,4.0,64.0
4260,65.0,26.0,90.0,2.0,64.0
4261,71.0,86.0,120.0,1.0,64.0
4262,74.0,1.0,60.0,0.0,64.0
4263,79.0,118.0,90.0,4.0,64.0
4264,63.0,10.0,90.0,2.0,64.0
4265,72.0,75.0,120.0,4.0,64.0
4266,72.0,29.0,90.0,0.0,64.0
4267,72.0,44.0,510.0,1.0,64.0
4268,79.0,131.0,90.0,4.0,64.0
4269,60.0,4.0,90.0,2.0,64.0
4270,75.0,73.0,120.0,4.0,64.0
4271,75.0,32.0,60.0,0.0,64.0
4272,79.0,82.0,60.0,4.0,64.0
4273,74.0,11.0,120.0,4.0,64.0
4274,74.0,26.0,90.0,0.0,64.0
4275,59.0,74.0,120.0,2.0,64.0
4276,79.0,124.0,90.0,4.0,64.0
4277,72.0,113.0,120.0,4.0,64.0
4278,60.0,7.0,90.0,2.0,64.0
4279,75.0,20.0,90.0,1.0,64.0
4280,72.0,6.0,60.0,0.0,64.0
4281,79.0,106.0,120.0,4.0,64.0
4282,62.0,2.0,90.0,2.0,64.0
4283,71.0,137.0,120.0,4.0,64.0
4284,71.0,5.0,90.0,0.0,64.0
4285,74.0,0.0,90.0,1.0,64.0
4286,72.0,9.0,150.0,4.0,64.0
4287,56.0,38.0,150.0,3.0,64.0
4288,55.0,46.0,90.0,2.0,64.0
4289,74.0,7.0,60.0,0.0,64.0
4290,79.0,3.0,360.0,1.0,64.0
4291,71.0,20.0,120.0,4.0,64.0
4292,55.0,86.0,120.0,3.0,64.0
4293,69.0,20.0,120.0,4.0,64.0
4294,53.0,82.0,120.0,3.0,64.0
4295,60.0,89.0,120.0,2.0,64.0
4296,51.0,6.0,120.0,3.0,64.0
4297,67.0,0.0,120.0,4.0,64.0
4298,67.0,33.0,90.0,0.0,64.0
4299,77.0,13.0,120.0,1.0,64.0
4300,50.0,76.0,150.0,3.0,64.0
4301,62.0,17.0,120.0,2.0,64.0
4302,63.0,10.0,120.0,2.0,64.0
4303,75.0,2.0,120.0,1.0,64.0
4304,48.0,60.0,120.0,3.0,64.0
4305,79.0,14.0,90.0,4.0,64.0
4306,79.0,13.0,60.0,0.0,64.0
4307,65.0,43.0,90.0,2.0,64.0
4308,74.0,22.0,90.0,1.0,64.0
4309,47.0,90.0,150.0,3.0,64.0
4310,72.0,20.0,120.0,1.0,64.0
4311,63.0,0.0,120.0,2.0,64.0
4312,48.0,77.0,120.0,3.0,64.0
4313,80.0,11.0,90.0,0.0,64.0
4314,80.0,3.0,90.0,4.0,64.0
4315,71.0,11.0,120.0,1.0,64.0
4316,65.0,7.0,120.0,2.0,64.0
4317,50.0,106.0,120.0,3.0,64.0
4318,67.0,9.0,90.0,2.0,64.0
4319,72.0,84.0,120.0,1.0,64.0
4320,51.0,15.0,90.0,3.0,64.0
4321,79.0,73.0,360.0,0.0,64.0
4322,79.0,7.0,360.0,4.0,64.0
4323,63.0,1.0,90.0,2.0,64.0
4324,48.0,144.0,120.0,3.0,64.0
4325,69.0,19.0,90.0,1.0,64.0
4326,65.0,4.0,120.0,2.0,64.0
4327,50.0,13.0,120.0,3.0,64.0
4328,71.0,1.0,120.0,1.0,64.0
4329,67.0,6.0,120.0,2.0,64.0
4330,72.0,3.0,120.0,1.0,64.0
4331,51.0,102.0,120.0,3.0,64.0
4332,68.0,2.0,120.0,2.0,64.0
4333,53.0,27.0,120.0,3.0,64.0
4334,74.0,15.0,90.0,1.0,64.0
4335,77.0,26.0,120.0,0.0,64.0
4336,77.0,5.0,120.0,4.0,64.0
4337,65.0,39.0,60.0,2.0,64.0
4338,71.0,11.0,90.0,1.0,64.0
4339,50.0,122.0,90.0,3.0,64.0
4340,51.0,9.0,150.0,3.0,64.0
4341,67.0,9.0,570.0,1.0,64.0
4342,72.0,25.0,90.0,2.0,64.0
4343,79.0,82.0,120.0,4.0,64.0
4344,79.0,19.0,90.0,0.0,64.0
4345,53.0,82.0,120.0,3.0,64.0
4346,77.0,20.0,120.0,4.0,64.0
4347,77.0,7.0,90.0,0.0,64.0
4348,75.0,28.0,90.0,0.0,64.0
4349,75.0,7.0,120.0,4.0,64.0
4350,60.0,0.0,360.0,2.0,64.0
4351,55.0,58.0,120.0,3.0,64.0
4352,77.0,18.0,120.0,4.0,64.0
4353,77.0,28.0,90.0,0.0,64.0
4354,53.0,92.0,120.0,3.0,64.0
4355,79.0,17.0,90.0,0.0,64.0
4356,51.0,104.0,120.0,3.0,64.0
4357,79.0,17.0,120.0,4.0,64.0
4358,65.0,12.0,120.0,1.0,64.0
4359,56.0,72.0,120.0,3.0,64.0
4360,63.0,17.0,120.0,1.0,64.0
4361,72.0,11.0,90.0,0.0,64.0
4362,72.0,7.0,90.0,4.0,64.0
4363,72.0,1.0,90.0,2.0,64.0
4364,55.0,66.0,120.0,3.0,64.0
4365,65.0,34.0,90.0,1.0,64.0
4366,56.0,106.0,120.0,3.0,64.0
4367,77.0,4.0,90.0,0.0,64.0
4368,62.0,22.0,120.0,1.0,64.0
4369,77.0,18.0,90.0,4.0,64.0
4370,50.0,132.0,120.0,3.0,64.0
4371,71.0,7.0,90.0,2.0,64.0
4372,48.0,60.0,150.0,3.0,64.0
4373,50.0,87.0,150.0,3.0,64.0
4374,75.0,14.0,360.0,0.0,64.0
4375,75.0,17.0,360.0,4.0,64.0
4376,67.0,44.0,90.0,2.0,64.0
4377,72.0,91.0,390.0,1.0,64.0
4378,51.0,122.0,120.0,3.0,64.0
4379,53.0,0.0,120.0,3.0,64.0
4380,68.0,11.0,90.0,2.0,64.0
4381,51.0,81.0,120.0,3.0,64.0
4382,62.0,21.0,90.0,2.0,64.0
4383,53.0,20.0,120.0,3.0,64.0
4384,74.0,82.0,150.0,4.0,64.0
4385,74.0,17.0,120.0,0.0,64.0
4386,71.0,13.0,90.0,1.0,64.0
4387,55.0,131.0,120.0,3.0,64.0
4388,48.0,7.0,120.0,3.0,64.0
4389,60.0,4.0,120.0,2.0,64.0
4390,72.0,11.0,210.0,1.0,64.0
4391,75.0,4.0,90.0,0.0,64.0
4392,75.0,86.0,120.0,4.0,64.0
4393,50.0,1.0,120.0,3.0,64.0
4394,74.0,8.0,90.0,0.0,64.0
4395,74.0,107.0,90.0,4.0,64.0
4396,51.0,2.0,120.0,3.0,64.0
4397,72.0,20.0,120.0,0.0,64.0
4398,72.0,6.0,90.0,2.0,64.0
4399,67.0,67.0,120.0,1.0,64.0
4400,72.0,0.0,120.0,4.0,64.0
4401,74.0,22.0,90.0,0.0,64.0
4402,50.0,9.0,120.0,3.0,64.0
4403,65.0,2.0,120.0,1.0,64.0
4404,74.0,95.0,120.0,4.0,64.0
4405,63.0,11.0,90.0,1.0,64.0
4406,75.0,2.0,90.0,0.0,64.0
4407,48.0,0.0,120.0,3.0,64.0
4408,69.0,9.0,90.0,2.0,64.0
4409,75.0,107.0,90.0,4.0,64.0
4410,62.0,9.0,120.0,1.0,64.0
4411,53.0,95.0,120.0,3.0,64.0
4412,60.0,15.0,90.0,1.0,64.0
4413,51.0,68.0,120.0,3.0,64.0
4414,69.0,11.0,90.0,0.0,64.0
4415,69.0,14.0,90.0,4.0,64.0
4416,65.0,27.0,420.0,2.0,64.0
4417,62.0,9.0,90.0,1.0,64.0
4418,53.0,142.0,90.0,3.0,64.0
4419,46.0,86.0,120.0,3.0,64.0
4420,58.0,4.0,120.0,1.0,64.0
4421,74.0,2.0,90.0,0.0,64.0
4422,74.0,7.0,90.0,4.0,64.0
4423,45.0,131.0,120.0,3.0,64.0
4424,46.0,99.0,120.0,3.0,64.0
4425,66.0,0.0,360.0,2.0,64.0
4426,72.0,31.0,360.0,0.0,64.0
4427,72.0,6.0,330.0,4.0,64.0
4428,69.0,93.0,390.0,1.0,64.0
4429,48.0,139.0,120.0,3.0,64.0
4430,50.0,5.0,120.0,3.0,64.0
4431,48.0,87.0,120.0,3.0,64.0
4432,50.0,116.0,150.0,3.0,64.0
4433,70.0,16.0,120.0,0.0,64.0
4434,67.0,26.0,420.0,1.0,64.0
4435,70.0,4.0,120.0,4.0,64.0
4436,67.0,26.0,90.0,2.0,64.0
4437,51.0,68.0,120.0,3.0,64.0
4438,72.0,9.0,120.0,0.0,64.0
4439,45.0,7.0,120.0,3.0,64.0
4440,60.0,40.0,60.0,2.0,64.0
4441,72.0,46.0,120.0,4.0,64.0
4442,74.0,22.0,90.0,0.0,64.0
4443,46.0,85.0,150.0,3.0,64.0
4444,74.0,36.0,120.0,4.0,64.0
4445,72.0,3.0,120.0,0.0,64.0
4446,45.0,9.0,120.0,3.0,64.0
4447,72.0,7.0,120.0,4.0,64.0
4448,63.0,8.0,330.0,2.0,64.0
4449,66.0,86.0,120.0,1.0,64.0
4450,70.0,100.0,120.0,0.0,64.0
4451,70.0,4.0,120.0,4.0,64.0
4452,43.0,3.0,120.0,3.0,64.0
4453,67.0,20.0,90.0,1.0,64.0
4454,42.0,8.0,120.0,3.0,64.0
4455,69.0,16.0,120.0,0.0,64.0
4456,69.0,78.0,120.0,4.0,64.0
4457,69.0,5.0,90.0,1.0,64.0
4458,70.0,18.0,120.0,0.0,64.0
4459,70.0,88.0,120.0,4.0,64.0
4460,67.0,2.0,90.0,1.0,64.0
4461,72.0,9.0,90.0,0.0,64.0
4462,62.0,4.0,90.0,2.0,64.0
4463,69.0,3.0,90.0,1.0,64.0
4464,38.0,22.0,90.0,3.0,64.0
4465,72.0,64.0,120.0,4.0,64.0
4466,66.0,27.0,90.0,1.0,64.0
4467,69.0,6.0,120.0,0.0,64.0
4468,69.0,113.0,90.0,4.0,64.0
4469,70.0,4.0,120.0,0.0,64.0
4470,43.0,2.0,120.0,3.0,64.0
4471,62.0,23.0,120.0,2.0,64.0
4472,67.0,0.0,180.0,1.0,64.0
4473,70.0,66.0,120.0,4.0,64.0
4474,67.0,20.0,90.0,0.0,64.0
4475,67.0,115.0,90.0,4.0,64.0
4476,75.0,18.0,120.0,0.0,64.0
4477,65.0,11.0,90.0,2.0,64.0
4478,41.0,3.0,90.0,3.0,64.0
4479,69.0,8.0,90.0,1.0,64.0
4480,75.0,47.0,120.0,4.0,64.0
4481,74.0,70.0,90.0,0.0,64.0
4482,70.0,11.0,60.0,1.0,64.0
4483,74.0,62.0,150.0,4.0,64.0
4484,72.0,17.0,120.0,0.0,64.0
4485,67.0,5.0,90.0,2.0,64.0
4486,39.0,0.0,330.0,3.0,64.0
4487,72.0,60.0,360.0,1.0,64.0
4488,72.0,113.0,90.0,4.0,64.0
4489,70.0,20.0,120.0,0.0,64.0
4490,70.0,82.0,120.0,4.0,64.0
4491,69.0,2.0,120.0,0.0,64.0
4492,69.0,15.0,120.0,4.0,64.0
4493,63.0,25.0,90.0,2.0,64.0
4494,67.0,29.0,90.0,0.0,64.0
4495,67.0,115.0,120.0,4.0,64.0
4496,74.0,7.0,5760.0,0.0,64.0
4497,57.0,38.0,90.0,2.0,64.0
4498,38.0,42.0,210.0,3.0,64.0
4499,74.0,95.0,540.0,4.0,64.0
4500,66.0,71.0,120.0,1.0,64.0
4501,67.0,73.0,120.0,1.0,64.0
4502,66.0,34.0,120.0,1.0,64.0
4503,69.0,25.0,90.0,2.0,64.0
4504,50.0,74.0,120.0,3.0,64.0
4505,64.0,6.0,120.0,1.0,64.0
4506,48.0,78.0,90.0,3.0,64.0
4507,62.0,14.0,240.0,1.0,64.0
4508,50.0,85.0,150.0,3.0,64.0
4509,66.0,79.0,270.0,2.0,64.0
4510,51.0,11.0,120.0,3.0,64.0
4511,67.0,14.0,120.0,4.0,64.0
4512,66.0,20.0,120.0,4.0,64.0
4513,50.0,95.0,120.0,3.0,64.0
4514,64.0,3.0,120.0,4.0,64.0
4515,48.0,112.0,90.0,3.0,64.0
4516,62.0,40.0,90.0,4.0,64.0
4517,46.0,98.0,120.0,3.0,64.0
4518,67.0,102.0,120.0,4.0,64.0
4519,66.0,106.0,120.0,4.0,64.0
4520,43.0,100.0,210.0,3.0,64.0
4521,67.0,4.0,90.0,4.0,64.0
4522,67.0,20.0,60.0,1.0,64.0
4523,70.0,124.0,90.0,4.0,64.0
4524,62.0,13.0,90.0,2.0,64.0
4525,67.0,78.0,120.0,4.0,64.0
4526,66.0,124.0,120.0,4.0,64.0
4527,62.0,20.0,90.0,1.0,64.0
4528,58.0,10.0,90.0,2.0,64.0
4529,43.0,12.0,60.0,3.0,64.0
4530,67.0,128.0,120.0,4.0,64.0
4531,69.0,69.0,150.0,4.0,64.0
4532,50.0,44.0,90.0,3.0,64.0
4533,67.0,117.0,120.0,4.0,64.0
4534,66.0,109.0,150.0,4.0,64.0
4535,52.0,9.0,90.0,3.0,64.0
4536,64.0,141.0,120.0,4.0,64.0
4537,62.0,36.0,120.0,4.0,64.0
4538,54.0,68.0,120.0,3.0,64.0
4539,67.0,14.0,120.0,4.0,64.0
4540,55.0,113.0,120.0,3.0,64.0
4541,66.0,22.0,120.0,4.0,64.0
4542,57.0,48.0,150.0,3.0,64.0
4543,55.0,135.0,90.0,3.0,64.0
4544,64.0,7.0,90.0,4.0,64.0
4545,54.0,16.0,120.0,3.0,64.0
4546,62.0,157.0,120.0,4.0,64.0
4547,69.0,104.0,150.0,4.0,64.0
4548,50.0,44.0,210.0,3.0,64.0
4549,67.0,46.0,150.0,4.0,64.0
4550,69.0,111.0,90.0,4.0,64.0
4551,72.0,134.0,120.0,4.0,64.0
4552,66.0,11.0,90.0,2.0,64.0
4553,69.0,19.0,90.0,1.0,64.0
4554,69.0,79.0,150.0,4.0,64.0
4555,50.0,1.0,90.0,3.0,64.0
4556,66.0,9.0,90.0,1.0,64.0
4557,62.0,37.0,90.0,2.0,64.0
4558,67.0,62.0,120.0,4.0,64.0
4559,69.0,148.0,90.0,4.0,64.0
4560,70.0,148.0,120.0,4.0,64.0
4561,55.0,9.0,120.0,3.0,64.0
4562,72.0,84.0,150.0,4.0,64.0
4563,50.0,144.0,120.0,3.0,64.0
4564,70.0,1.0,120.0,4.0,64.0
4565,69.0,88.0,150.0,4.0,64.0
4566,46.0,0.0,120.0,3.0,64.0
4567,67.0,124.0,90.0,4.0,64.0
4568,45.0,53.0,150.0,3.0,64.0
4569,72.0,84.0,150.0,4.0,64.0
4570,43.0,9.0,150.0,3.0,64.0
4571,70.0,44.0,120.0,4.0,64.0
4572,45.0,43.0,90.0,3.0,64.0
4573,69.0,106.0,90.0,4.0,64.0
4574,47.0,44.0,120.0,3.0,64.0
4575,67.0,113.0,120.0,4.0,64.0
4576,74.0,124.0,120.0,4.0,64.0
4577,43.0,2.0,150.0,3.0,64.0
4578,72.0,89.0,120.0,4.0,64.0
4579,74.0,113.0,90.0,4.0,64.0
4580,77.0,11.0,90.0,4.0,64.0
4581,71.0,13.0,60.0,2.0,64.0
4582,74.0,110.0,60.0,1.0,64.0
4583,74.0,102.0,120.0,4.0,64.0
4584,43.0,35.0,120.0,3.0,64.0
4585,72.0,84.0,150.0,4.0,64.0
4586,67.0,10.0,60.0,2.0,64.0
4587,71.0,2.0,90.0,1.0,64.0
4588,74.0,141.0,90.0,4.0,64.0
4589,75.0,8.0,1950.0,0.0,64.0
4590,48.0,35.0,120.0,3.0,64.0
4591,67.0,118.0,150.0,4.0,64.0
4592,67.0,47.0,930.0,2.0,64.0
4593,72.0,114.0,1920.0,1.0,64.0
4594,72.0,73.0,150.0,4.0,64.0
4595,51.0,47.0,120.0,3.0,64.0
4596,71.0,101.0,120.0,4.0,64.0
4597,72.0,93.0,120.0,4.0,64.0
4598,48.0,47.0,90.0,3.0,64.0
4599,75.0,133.0,120.0,4.0,64.0
4600,72.0,51.0,120.0,4.0,64.0
4601,43.0,72.0,90.0,3.0,64.0
4602,71.0,60.0,120.0,4.0,64.0
4603,72.0,130.0,120.0,4.0,64.0
4604,66.0,24.0,930.0,2.0,64.0
4605,45.0,124.0,480.0,3.0,64.0
4606,66.0,104.0,120.0,4.0,64.0
4607,72.0,113.0,120.0,4.0,64.0
4608,71.0,113.0,120.0,4.0,64.0
4609,72.0,0.0,120.0,4.0,64.0
4610,75.0,118.0,120.0,4.0,64.0
4611,72.0,97.0,120.0,4.0,64.0
4612,45.0,12.0,120.0,3.0,64.0
4613,71.0,81.0,120.0,4.0,64.0
4614,72.0,7.0,90.0,4.0,64.0
4615,47.0,31.0,120.0,3.0,64.0
4616,65.0,97.0,150.0,4.0,64.0
4617,65.0,166.0,930.0,2.0,64.0
4618,74.0,111.0,1890.0,0.0,64.0
4619,67.0,33.0,1830.0,1.0,64.0
4620,71.0,104.0,150.0,4.0,64.0
4621,50.0,22.0,120.0,3.0,64.0
4622,69.0,91.0,120.0,4.0,64.0
4623,71.0,120.0,120.0,4.0,64.0
4624,74.0,86.0,150.0,4.0,64.0
4625,47.0,37.0,90.0,3.0,64.0
4626,71.0,105.0,120.0,4.0,64.0
4627,43.0,30.0,90.0,3.0,64.0
4628,69.0,56.0,120.0,4.0,64.0
4629,71.0,48.0,60.0,4.0,64.0
4630,48.0,87.0,510.0,3.0,64.0
4631,64.0,95.0,150.0,4.0,64.0
4632,64.0,11.0,900.0,2.0,64.0
4633,70.0,120.0,120.0,4.0,64.0
4634,69.0,118.0,120.0,4.0,64.0
4635,70.0,26.0,120.0,4.0,64.0
4636,74.0,108.0,90.0,4.0,64.0
4637,70.0,95.0,120.0,4.0,64.0
4638,46.0,22.0,90.0,3.0,64.0
4639,69.0,76.0,90.0,4.0,64.0
4640,70.0,13.0,90.0,4.0,64.0
4641,45.0,29.0,120.0,3.0,64.0
4642,63.0,12.0,930.0,2.0,64.0
4643,66.0,93.0,150.0,4.0,64.0
4644,69.0,30.0,1140.0,1.0,64.0
4645,72.0,21.0,1140.0,0.0,64.0
4646,69.0,104.0,120.0,4.0,64.0
4647,67.0,108.0,150.0,4.0,64.0
4648,48.0,20.0,120.0,3.0,64.0
4649,69.0,111.0,120.0,4.0,64.0
4650,72.0,126.0,120.0,4.0,64.0
4651,51.0,2.0,90.0,3.0,64.0
4652,69.0,111.0,120.0,4.0,64.0
4653,43.0,6.0,120.0,3.0,64.0
4654,67.0,96.0,120.0,4.0,64.0
4655,69.0,136.0,90.0,4.0,64.0
4656,42.0,33.0,120.0,3.0,64.0
4657,62.0,67.0,240.0,2.0,64.0
4658,62.0,30.0,150.0,4.0,64.0
4659,72.0,36.0,150.0,4.0,64.0
4660,38.0,35.0,90.0,3.0,64.0
4661,66.0,11.0,120.0,1.0,64.0
4662,70.0,87.0,120.0,4.0,64.0
4663,70.0,11.0,120.0,0.0,64.0
4664,62.0,35.0,210.0,2.0,64.0
4665,69.0,93.0,150.0,0.0,64.0
4666,69.0,2.0,90.0,4.0,64.0
4667,67.0,7.0,120.0,1.0,64.0
4668,67.0,0.0,150.0,0.0,64.0
4669,46.0,26.0,120.0,3.0,64.0
4670,62.0,38.0,210.0,2.0,64.0
4671,67.0,67.0,120.0,4.0,64.0
4672,69.0,21.0,120.0,0.0,64.0
4673,69.0,69.0,150.0,4.0,64.0
4674,70.0,44.0,150.0,0.0,64.0
4675,43.0,36.0,90.0,3.0,64.0
4676,67.0,2.0,90.0,1.0,64.0
4677,70.0,24.0,120.0,4.0,64.0
4678,62.0,7.0,180.0,2.0,64.0
4679,67.0,2.0,90.0,0.0,64.0
4680,67.0,137.0,90.0,4.0,64.0
4681,66.0,7.0,120.0,1.0,64.0
4682,50.0,13.0,120.0,3.0,64.0
4683,69.0,96.0,120.0,0.0,64.0
4684,69.0,0.0,120.0,4.0,64.0
4685,62.0,19.0,210.0,2.0,64.0
4686,64.0,0.0,120.0,1.0,64.0
4687,67.0,7.0,120.0,0.0,64.0
4688,67.0,73.0,120.0,4.0,64.0
4689,66.0,20.0,120.0,1.0,64.0
4690,66.0,2.0,120.0,0.0,64.0
4691,66.0,70.0,120.0,4.0,64.0
4692,52.0,3.0,90.0,3.0,64.0
4693,57.0,14.0,180.0,2.0,64.0
4694,64.0,100.0,120.0,0.0,64.0
4695,67.0,3.0,120.0,1.0,64.0
4696,64.0,10.0,90.0,4.0,64.0
4697,62.0,51.0,180.0,0.0,64.0
4698,69.0,47.0,240.0,1.0,64.0
4699,62.0,19.0,90.0,4.0,64.0
4700,54.0,74.0,90.0,3.0,64.0
4701,57.0,44.0,270.0,2.0,64.0
4702,72.0,15.0,150.0,4.0,64.0
4703,70.0,118.0,120.0,4.0,64.0
4704,50.0,17.0,90.0,3.0,64.0
4705,69.0,170.0,90.0,4.0,64.0
4706,70.0,86.0,150.0,4.0,64.0
4707,55.0,77.0,510.0,3.0,64.0
4708,65.0,83.0,120.0,4.0,64.0
4709,67.0,15.0,90.0,1.0,64.0
4710,70.0,2.0,90.0,0.0,64.0
4711,63.0,100.0,120.0,4.0,64.0
4712,55.0,40.0,60.0,2.0,64.0
4713,62.0,40.0,120.0,4.0,64.0
4714,63.0,148.0,120.0,4.0,64.0
4715,70.0,122.0,480.0,0.0,64.0
4716,60.0,29.0,450.0,2.0,64.0
4717,67.0,2.0,480.0,1.0,64.0
4718,70.0,91.0,120.0,4.0,64.0
4719,69.0,90.0,120.0,4.0,64.0
4720,48.0,18.0,90.0,3.0,64.0
4721,67.0,0.0,90.0,4.0,64.0
4722,69.0,115.0,120.0,4.0,64.0
4723,53.0,84.0,480.0,3.0,64.0
4724,63.0,65.0,120.0,4.0,64.0
4725,69.0,10.0,90.0,0.0,64.0
4726,62.0,99.0,150.0,4.0,64.0
4727,65.0,14.0,60.0,1.0,64.0
4728,53.0,34.0,60.0,2.0,64.0
4729,60.0,37.0,120.0,4.0,64.0
4730,62.0,160.0,90.0,4.0,64.0
4731,68.0,15.0,480.0,0.0,64.0
4732,65.0,129.0,480.0,1.0,64.0
4733,58.0,12.0,450.0,2.0,64.0
4734,68.0,49.0,150.0,4.0,64.0
4735,46.0,55.0,90.0,3.0,64.0
4736,67.0,86.0,120.0,4.0,64.0
4737,65.0,24.0,90.0,4.0,64.0
4738,67.0,92.0,150.0,4.0,64.0
4739,51.0,22.0,540.0,3.0,64.0
4740,65.0,71.0,120.0,4.0,64.0
4741,67.0,12.0,120.0,1.0,64.0
4742,67.0,0.0,90.0,0.0,64.0
4743,63.0,33.0,90.0,2.0,64.0
4744,63.0,86.0,120.0,4.0,64.0
4745,69.0,0.0,120.0,1.0,64.0
4746,65.0,91.0,90.0,4.0,64.0
4747,67.0,140.0,120.0,4.0,64.0
4748,71.0,6.0,90.0,1.0,64.0
4749,62.0,27.0,90.0,2.0,64.0
4750,77.0,41.0,510.0,0.0,64.0
4751,69.0,68.0,150.0,4.0,64.0
4752,71.0,57.0,150.0,4.0,64.0
4753,74.0,6.0,90.0,1.0,64.0
4754,65.0,5.0,90.0,2.0,64.0
4755,50.0,40.0,90.0,3.0,64.0
4756,48.0,25.0,90.0,3.0,64.0
4757,72.0,69.0,90.0,4.0,64.0
4758,74.0,5.0,90.0,4.0,64.0
4759,67.0,5.0,90.0,1.0,64.0
4760,47.0,8.0,450.0,3.0,64.0
4761,62.0,42.0,90.0,2.0,64.0
4762,71.0,114.0,30.0,4.0,64.0
4763,68.0,59.0,120.0,4.0,64.0
4764,75.0,19.0,60.0,0.0,64.0
4765,67.0,33.0,90.0,2.0,64.0
4766,67.0,96.0,120.0,4.0,64.0
4767,72.0,9.0,360.0,1.0,64.0
4768,65.0,87.0,90.0,4.0,64.0
4769,74.0,18.0,90.0,0.0,64.0
4770,55.0,57.0,90.0,2.0,64.0
4771,67.0,58.0,150.0,4.0,64.0
4772,77.0,95.0,90.0,4.0,64.0
4773,75.0,13.0,90.0,4.0,64.0
4774,67.0,9.0,60.0,2.0,64.0
4775,79.0,2.0,90.0,0.0,64.0
4776,43.0,16.0,90.0,3.0,64.0
4777,71.0,75.0,90.0,1.0,64.0
4778,74.0,120.0,90.0,4.0,64.0
4779,75.0,13.0,90.0,0.0,64.0
4780,75.0,18.0,1020.0,4.0,64.0
4781,48.0,13.0,60.0,3.0,64.0
4782,72.0,5.0,90.0,1.0,64.0
4783,67.0,216.0,90.0,2.0,64.0
4784,72.0,235.0,60.0,0.0,64.0
4785,46.0,180.0,360.0,3.0,64.0
4786,75.0,24.0,60.0,0.0,64.0
4787,67.0,18.0,90.0,2.0,64.0
4788,72.0,20.0,90.0,1.0,64.0
4789,67.0,25.0,90.0,0.0,64.0
4790,48.0,96.0,90.0,3.0,64.0
4791,46.0,91.0,90.0,3.0,64.0
4792,45.0,10.0,90.0,3.0,64.0
4793,75.0,22.0,60.0,0.0,64.0
4794,65.0,1.0,90.0,2.0,64.0
4795,72.0,102.0,90.0,1.0,64.0
4796,69.0,99.0,90.0,4.0,64.0
4797,69.0,36.0,60.0,0.0,64.0
4798,72.0,86.0,120.0,4.0,64.0
4799,53.0,4.0,360.0,3.0,64.0
4800,75.0,126.0,90.0,4.0,64.0
4801,72.0,89.0,120.0,4.0,64.0
4802,75.0,40.0,60.0,0.0,64.0
4803,69.0,111.0,90.0,4.0,64.0
4804,65.0,11.0,90.0,0.0,64.0
4805,72.0,2.0,90.0,4.0,64.0
4806,45.0,87.0,90.0,3.0,64.0
4807,72.0,4.0,90.0,1.0,64.0
4808,65.0,9.0,60.0,2.0,64.0
4809,75.0,138.0,90.0,4.0,64.0
4810,74.0,91.0,120.0,4.0,64.0
4811,74.0,0.0,90.0,0.0,64.0
4812,70.0,5.0,90.0,1.0,64.0
4813,65.0,16.0,90.0,2.0,64.0
4814,46.0,15.0,90.0,3.0,64.0
4815,75.0,96.0,90.0,4.0,64.0
4816,70.0,32.0,90.0,0.0,64.0
4817,74.0,102.0,90.0,4.0,64.0
4818,45.0,50.0,360.0,3.0,64.0
4819,72.0,109.0,90.0,4.0,64.0
4820,70.0,1.0,90.0,4.0,64.0
4821,74.0,26.0,90.0,0.0,64.0
4822,70.0,4.0,90.0,1.0,64.0
4823,65.0,29.0,90.0,2.0,64.0
4824,72.0,142.0,90.0,4.0,64.0
4825,74.0,10.0,330.0,4.0,64.0
4826,65.0,15.0,90.0,0.0,64.0
4827,46.0,100.0,90.0,3.0,64.0
4828,45.0,115.0,90.0,3.0,64.0
4829,70.0,22.0,90.0,1.0,64.0
4830,74.0,11.0,60.0,0.0,64.0
4831,43.0,113.0,120.0,3.0,64.0
4832,63.0,4.0,90.0,2.0,64.0
4833,67.0,88.0,120.0,4.0,64.0
4834,70.0,57.0,120.0,4.0,64.0
4835,67.0,27.0,90.0,0.0,64.0
4836,51.0,93.0,330.0,3.0,64.0
4837,74.0,152.0,60.0,4.0,64.0
4838,70.0,6.0,120.0,4.0,64.0
4839,74.0,17.0,90.0,0.0,64.0
4840,67.0,113.0,90.0,4.0,64.0
4841,70.0,11.0,90.0,4.0,64.0
4842,63.0,9.0,90.0,0.0,64.0
4843,63.0,7.0,60.0,2.0,64.0
4844,70.0,6.0,90.0,1.0,64.0
4845,43.0,78.0,90.0,3.0,64.0
4846,74.0,130.0,90.0,4.0,64.0
4847,72.0,130.0,120.0,4.0,64.0
4848,72.0,20.0,60.0,0.0,64.0
4849,66.0,12.0,90.0,1.0,64.0
4850,63.0,0.0,90.0,2.0,64.0
4851,45.0,2.0,90.0,3.0,64.0
4852,74.0,73.0,120.0,4.0,64.0
4853,72.0,95.0,120.0,4.0,64.0
4854,69.0,43.0,90.0,0.0,64.0
4855,43.0,7.0,330.0,3.0,64.0
4856,70.0,90.0,90.0,4.0,64.0
4857,72.0,51.0,60.0,0.0,64.0
4858,69.0,84.0,120.0,4.0,64.0
4859,69.0,8.0,90.0,1.0,64.0
4860,63.0,3.0,90.0,2.0,64.0
4861,70.0,109.0,90.0,4.0,64.0
4862,63.0,22.0,90.0,0.0,64.0
4863,45.0,101.0,90.0,3.0,64.0
4864,72.0,37.0,330.0,4.0,64.0
4865,43.0,113.0,90.0,3.0,64.0
4866,72.0,7.0,60.0,0.0,64.0
4867,42.0,114.0,120.0,3.0,64.0
4868,69.0,1.0,120.0,1.0,64.0
4869,62.0,8.0,90.0,2.0,64.0
4870,66.0,68.0,90.0,4.0,64.0
4871,66.0,51.0,60.0,0.0,64.0
4872,69.0,104.0,120.0,4.0,64.0
4873,50.0,95.0,360.0,3.0,64.0
4874,72.0,100.0,90.0,4.0,64.0
4875,72.0,35.0,90.0,0.0,64.0
4876,69.0,9.0,90.0,4.0,64.0
4877,66.0,98.0,90.0,4.0,64.0
4878,62.0,28.0,90.0,0.0,64.0
4879,69.0,10.0,120.0,4.0,64.0
4880,42.0,3.0,90.0,3.0,64.0
4881,69.0,72.0,90.0,1.0,64.0
4882,62.0,0.0,90.0,2.0,64.0
4883,72.0,166.0,90.0,4.0,64.0
4884,70.0,13.0,120.0,4.0,64.0
4885,70.0,2.0,120.0,0.0,64.0
4886,43.0,1.0,120.0,3.0,64.0
4887,67.0,10.0,90.0,1.0,64.0
4888,62.0,73.0,90.0,2.0,64.0
4889,72.0,13.0,90.0,4.0,64.0
4890,72.0,108.0,120.0,0.0,64.0
4891,63.0,5.0,90.0,2.0,64.0
4892,70.0,93.0,120.0,4.0,64.0
4893,70.0,2.0,120.0,0.0,64.0
4894,45.0,7.0,90.0,3.0,64.0
4895,62.0,0.0,90.0,2.0,64.0
4896,62.0,7.0,90.0,1.0,64.0
4897,69.0,21.0,90.0,4.0,64.0
4898,60.0,2.0,90.0,2.0,64.0
4899,69.0,100.0,90.0,0.0,64.0
4900,67.0,7.0,120.0,4.0,64.0
4901,58.0,5.0,90.0,2.0,64.0
4902,67.0,81.0,120.0,0.0,64.0
4903,46.0,14.0,90.0,3.0,64.0
4904,62.0,4.0,90.0,1.0,64.0
4905,69.0,27.0,90.0,4.0,64.0
4906,69.0,80.0,90.0,0.0,64.0
4907,70.0,2.0,90.0,4.0,64.0
4908,62.0,107.0,90.0,2.0,64.0
4909,43.0,9.0,60.0,3.0,64.0
4910,70.0,0.0,60.0,0.0,64.0
4911,67.0,16.0,330.0,1.0,64.0
4912,67.0,115.0,90.0,4.0,64.0
4913,67.0,12.0,90.0,0.0,64.0
4914,75.0,9.0,90.0,0.0,64.0
4915,75.0,4.0,90.0,4.0,64.0
4916,48.0,99.0,120.0,3.0,64.0
4917,60.0,20.0,90.0,2.0,64.0
4918,69.0,91.0,90.0,1.0,64.0
4919,70.0,27.0,90.0,1.0,64.0
4920,65.0,2.0,60.0,2.0,64.0
4921,50.0,82.0,90.0,3.0,64.0
4922,74.0,0.0,360.0,0.0,64.0
4923,74.0,41.0,390.0,4.0,64.0
4924,67.0,20.0,90.0,1.0,64.0
4925,51.0,115.0,90.0,3.0,64.0
4926,53.0,49.0,90.0,3.0,64.0
4927,53.0,11.0,90.0,2.0,64.0
4928,69.0,18.0,120.0,1.0,64.0
4929,55.0,16.0,90.0,3.0,64.0
4930,70.0,98.0,90.0,1.0,64.0
4931,57.0,65.0,90.0,3.0,64.0
4932,65.0,6.0,330.0,2.0,64.0
4933,72.0,8.0,60.0,1.0,64.0
4934,72.0,24.0,120.0,0.0,64.0
4935,72.0,20.0,150.0,4.0,64.0
4936,53.0,6.0,90.0,3.0,64.0
4937,69.0,140.0,90.0,1.0,64.0
4938,58.0,12.0,120.0,3.0,64.0
4939,70.0,6.0,540.0,1.0,64.0
4940,74.0,26.0,90.0,0.0,64.0
4941,74.0,67.0,120.0,4.0,64.0
4942,72.0,95.0,120.0,0.0,64.0
4943,63.0,24.0,90.0,2.0,64.0
4944,72.0,4.0,90.0,4.0,64.0
4945,57.0,84.0,120.0,3.0,64.0
4946,62.0,9.0,90.0,2.0,64.0
4947,70.0,9.0,90.0,4.0,64.0
4948,70.0,5.0,90.0,0.0,64.0
4949,72.0,1.0,90.0,4.0,64.0
4950,72.0,129.0,90.0,0.0,64.0
4951,60.0,5.0,90.0,2.0,64.0
4952,58.0,2.0,120.0,2.0,64.0
4953,74.0,2.0,120.0,4.0,64.0
4954,55.0,7.0,90.0,3.0,64.0
4955,74.0,109.0,90.0,0.0,64.0
4956,69.0,97.0,90.0,1.0,64.0
4957,67.0,5.0,90.0,4.0,64.0
4958,70.0,11.0,90.0,1.0,64.0
4959,67.0,4.0,90.0,0.0,64.0
4960,62.0,7.0,60.0,2.0,64.0
4961,58.0,80.0,90.0,3.0,64.0
4962,72.0,143.0,60.0,1.0,64.0
4963,55.0,5.0,90.0,2.0,64.0
4964,70.0,20.0,90.0,1.0,64.0
4965,72.0,6.0,90.0,4.0,64.0
4966,72.0,5.0,90.0,0.0,64.0
4967,51.0,86.0,120.0,3.0,64.0
4968,69.0,106.0,90.0,1.0,64.0
4969,67.0,25.0,90.0,1.0,64.0
4970,50.0,83.0,90.0,3.0,64.0
4971,70.0,3.0,360.0,0.0,64.0
4972,58.0,3.0,90.0,2.0,64.0
4973,70.0,17.0,420.0,4.0,64.0
4974,70.0,148.0,90.0,1.0,64.0
4975,48.0,18.0,120.0,3.0,64.0
4976,69.0,55.0,120.0,1.0,64.0
4977,63.0,11.0,90.0,2.0,64.0
4978,67.0,114.0,90.0,1.0,64.0
4979,66.0,19.0,90.0,1.0,64.0
4980,50.0,8.0,90.0,3.0,64.0
4981,57.0,65.0,90.0,2.0,64.0
4982,69.0,20.0,150.0,4.0,64.0
4983,69.0,0.0,150.0,0.0,64.0
4984,69.0,160.0,90.0,1.0,64.0
4985,67.0,4.0,120.0,1.0,64.0
4986,55.0,4.0,90.0,3.0,64.0
4987,50.0,41.0,90.0,2.0,64.0
4988,70.0,83.0,120.0,0.0,64.0
4989,70.0,1.0,120.0,4.0,64.0
4990,72.0,29.0,120.0,0.0,64.0
4991,57.0,8.0,90.0,2.0,64.0
4992,72.0,55.0,120.0,4.0,64.0
4993,62.0,31.0,90.0,1.0,64.0
4994,43.0,3.0,120.0,3.0,64.0
4995,70.0,7.0,120.0,0.0,64.0
4996,70.0,55.0,120.0,4.0,64.0
4997,58.0,6.0,90.0,2.0,64.0
4998,69.0,91.0,120.0,4.0,64.0
4999,60.0,45.0,60.0,2.0,64.0
5000,69.0,6.0,90.0,0.0,64.0
5001,67.0,2.0,120.0,4.0,64.0
5002,62.0,4.0,120.0,2.0,64.0
5003,67.0,17.0,540.0,1.0,64.0
5004,46.0,27.0,90.0,3.0,64.0
5005,67.0,73.0,120.0,0.0,64.0
5006,69.0,14.0,90.0,4.0,64.0
5007,63.0,13.0,90.0,2.0,64.0
5008,69.0,106.0,120.0,0.0,64.0
5009,70.0,22.0,120.0,4.0,64.0
5010,50.0,11.0,90.0,3.0,64.0
5011,62.0,9.0,90.0,2.0,64.0
5012,70.0,58.0,120.0,0.0,64.0
5013,72.0,17.0,90.0,4.0,64.0
5014,60.0,0.0,90.0,2.0,64.0
5015,72.0,107.0,90.0,0.0,64.0
5016,74.0,5.0,150.0,4.0,64.0
5017,53.0,11.0,90.0,3.0,64.0
5018,74.0,91.0,120.0,0.0,64.0
5019,59.0,31.0,90.0,2.0,64.0
5020,75.0,19.0,120.0,4.0,64.0
5021,75.0,78.0,120.0,0.0,64.0
5022,74.0,22.0,120.0,4.0,64.0
5023,43.0,4.0,90.0,3.0,64.0
5024,59.0,19.0,90.0,1.0,64.0
5025,62.0,1.0,90.0,2.0,64.0
5026,74.0,80.0,120.0,0.0,64.0
5027,72.0,16.0,120.0,4.0,64.0
5028,72.0,102.0,90.0,0.0,64.0
5029,71.0,6.0,120.0,4.0,64.0
5030,67.0,4.0,90.0,2.0,64.0
5031,62.0,18.0,90.0,1.0,64.0
5032,71.0,118.0,120.0,0.0,64.0
5033,53.0,35.0,570.0,3.0,64.0
5034,72.0,4.0,120.0,4.0,64.0
5035,72.0,91.0,120.0,0.0,64.0
5036,62.0,42.0,90.0,2.0,64.0
5037,67.0,92.0,390.0,1.0,64.0
5038,74.0,2.0,120.0,0.0,64.0
5039,74.0,55.0,120.0,4.0,64.0
5040,71.0,133.0,90.0,4.0,64.0
5041,71.0,9.0,90.0,0.0,64.0
5042,55.0,9.0,120.0,2.0,64.0
5043,72.0,2.0,120.0,4.0,64.0
5044,72.0,21.0,120.0,0.0,64.0
5045,74.0,16.0,120.0,0.0,64.0
5046,74.0,64.0,150.0,4.0,64.0
5047,72.0,86.0,120.0,4.0,64.0
5048,72.0,2.0,90.0,0.0,64.0
5049,60.0,9.0,90.0,2.0,64.0
5050,69.0,0.0,90.0,1.0,64.0
5051,51.0,7.0,90.0,3.0,64.0
5052,70.0,95.0,120.0,4.0,64.0
5053,62.0,5.0,90.0,2.0,64.0
5054,70.0,4.0,90.0,1.0,64.0
5055,70.0,13.0,90.0,0.0,64.0
5056,50.0,18.0,90.0,3.0,64.0
5057,69.0,11.0,120.0,0.0,64.0
5058,69.0,92.0,120.0,4.0,64.0
5059,63.0,0.0,90.0,2.0,64.0
5060,72.0,7.0,90.0,1.0,64.0
5061,48.0,7.0,90.0,3.0,64.0
5062,70.0,31.0,120.0,0.0,64.0
5063,65.0,7.0,90.0,2.0,64.0
5064,70.0,60.0,120.0,4.0,64.0
5065,63.0,15.0,90.0,2.0,64.0
5066,72.0,14.0,90.0,0.0,64.0
5067,46.0,5.0,120.0,3.0,64.0
5068,67.0,26.0,90.0,1.0,64.0
5069,72.0,53.0,120.0,4.0,64.0
5070,62.0,22.0,90.0,2.0,64.0
5071,74.0,18.0,90.0,0.0,64.0
5072,74.0,116.0,90.0,4.0,64.0
5073,75.0,84.0,150.0,4.0,64.0
5074,60.0,53.0,390.0,2.0,64.0
5075,75.0,1.0,120.0,0.0,64.0
5076,45.0,11.0,120.0,3.0,64.0
5077,72.0,27.0,90.0,1.0,64.0
5078,77.0,40.0,120.0,4.0,64.0
5079,77.0,77.0,150.0,0.0,64.0
5080,75.0,2.0,120.0,4.0,64.0
5081,70.0,24.0,90.0,1.0,64.0
5082,75.0,31.0,120.0,0.0,64.0
5083,43.0,1.0,120.0,3.0,64.0
5084,74.0,20.0,90.0,4.0,64.0
5085,74.0,108.0,120.0,0.0,64.0
5086,65.0,73.0,630.0,2.0,64.0
5087,72.0,25.0,90.0,1.0,64.0
5088,72.0,8.0,120.0,0.0,64.0
5089,72.0,83.0,120.0,4.0,64.0
5090,45.0,13.0,120.0,3.0,64.0
5091,74.0,13.0,120.0,0.0,64.0
5092,74.0,112.0,120.0,4.0,64.0
5093,75.0,8.0,120.0,0.0,64.0
5094,75.0,72.0,120.0,4.0,64.0
5095,69.0,1.0,120.0,1.0,64.0
5096,41.0,1.0,120.0,3.0,64.0
5097,72.0,5.0,90.0,0.0,64.0
5098,72.0,148.0,60.0,4.0,64.0
5099,74.0,9.0,150.0,0.0,64.0
5100,70.0,22.0,90.0,1.0,64.0
5101,74.0,4.0,120.0,4.0,64.0
5102,46.0,7.0,120.0,3.0,64.0
5103,75.0,106.0,120.0,4.0,64.0
5104,75.0,20.0,120.0,0.0,64.0
5105,74.0,90.0,120.0,4.0,64.0
5106,74.0,5.0,120.0,0.0,64.0
5107,63.0,4.0,120.0,2.0,64.0
5108,69.0,12.0,90.0,1.0,64.0
5109,48.0,2.0,120.0,3.0,64.0
5110,72.0,16.0,120.0,0.0,64.0
5111,72.0,109.0,120.0,4.0,64.0
5112,70.0,106.0,120.0,0.0,64.0
5113,70.0,15.0,90.0,1.0,64.0
5114,65.0,0.0,90.0,2.0,64.0
5115,70.0,7.0,120.0,4.0,64.0
5116,50.0,2.0,120.0,3.0,64.0
5117,72.0,5.0,120.0,4.0,64.0
5118,72.0,90.0,120.0,0.0,64.0
5119,74.0,17.0,90.0,4.0,64.0
5120,68.0,55.0,120.0,2.0,64.0
5121,65.0,5.0,90.0,1.0,64.0
5122,48.0,2.0,90.0,3.0,64.0
5123,74.0,21.0,90.0,0.0,64.0
5124,75.0,29.0,90.0,4.0,64.0
5125,75.0,135.0,90.0,0.0,64.0
5126,77.0,5.0,150.0,4.0,64.0
5127,67.0,17.0,120.0,2.0,64.0
5128,77.0,0.0,120.0,0.0,64.0
5129,47.0,86.0,120.0,3.0,64.0
5130,62.0,0.0,120.0,1.0,64.0
5131,79.0,89.0,120.0,4.0,64.0
5132,79.0,22.0,90.0,0.0,64.0
5133,45.0,0.0,90.0,3.0,64.0
5134,77.0,3.0,120.0,4.0,64.0
5135,60.0,0.0,90.0,2.0,64.0
5136,77.0,117.0,120.0,0.0,64.0
5137,72.0,15.0,90.0,1.0,64.0
5138,75.0,6.0,120.0,4.0,64.0
5139,75.0,109.0,120.0,0.0,64.0
5140,47.0,13.0,120.0,3.0,64.0
5141,74.0,16.0,120.0,1.0,64.0
5142,74.0,73.0,120.0,4.0,64.0
5143,74.0,6.0,90.0,0.0,64.0
5144,67.0,7.0,570.0,2.0,64.0
5145,75.0,18.0,120.0,0.0,64.0
5146,75.0,104.0,120.0,4.0,64.0
5147,71.0,2.0,90.0,1.0,64.0
5148,77.0,7.0,90.0,0.0,64.0
5149,77.0,79.0,120.0,4.0,64.0
5150,43.0,27.0,90.0,3.0,64.0
5151,74.0,3.0,90.0,4.0,64.0
5152,74.0,123.0,90.0,0.0,64.0
5153,75.0,30.0,120.0,4.0,64.0
5154,72.0,7.0,90.0,1.0,64.0
5155,75.0,91.0,150.0,0.0,64.0
5156,48.0,9.0,90.0,3.0,64.0
5157,77.0,91.0,150.0,4.0,64.0
5158,77.0,18.0,120.0,0.0,64.0
5159,67.0,9.0,120.0,1.0,64.0
5160,75.0,82.0,120.0,0.0,64.0
5161,36.0,13.0,120.0,3.0,64.0
5162,75.0,2.0,120.0,4.0,64.0
5163,60.0,2.0,90.0,2.0,64.0
5164,74.0,15.0,120.0,0.0,64.0
5165,62.0,40.0,90.0,2.0,64.0
5166,74.0,62.0,150.0,4.0,64.0
5167,72.0,9.0,90.0,0.0,64.0
5168,69.0,7.0,90.0,1.0,64.0
5169,63.0,16.0,90.0,2.0,64.0
5170,72.0,79.0,90.0,4.0,64.0
5171,48.0,191.0,480.0,3.0,64.0
5172,70.0,5.0,120.0,0.0,64.0
5173,62.0,39.0,90.0,2.0,64.0
5174,70.0,76.0,120.0,4.0,64.0
5175,69.0,0.0,90.0,0.0,64.0
5176,66.0,17.0,90.0,1.0,64.0
5177,63.0,28.0,90.0,2.0,64.0
5178,69.0,77.0,120.0,4.0,64.0
5179,67.0,8.0,90.0,0.0,64.0
5180,67.0,49.0,90.0,4.0,64.0
5181,67.0,13.0,210.0,1.0,64.0
5182,74.0,37.0,300.0,4.0,64.0
5183,62.0,31.0,240.0,2.0,64.0
5184,74.0,29.0,270.0,0.0,64.0
5185,45.0,6.0,90.0,3.0,64.0
5186,46.0,80.0,90.0,3.0,64.0
5187,48.0,94.0,90.0,3.0,64.0
5188,75.0,12.0,60.0,0.0,64.0
5189,75.0,15.0,60.0,4.0,64.0
5190,67.0,2.0,40.0,2.0,64.0
5191,63.0,2.0,40.0,1.0,64.0
5192,63.0,13.0,60.0,1.0,64.0
5193,67.0,2.0,60.0,2.0,64.0
5194,70.0,13.0,60.0,0.0,64.0
5195,50.0,17.0,120.0,3.0,64.0
5196,70.0,29.0,60.0,4.0,64.0
5197,66.0,2.0,60.0,2.0,64.0
5198,62.0,18.0,60.0,1.0,64.0
5199,69.0,2.0,60.0,0.0,64.0
5200,69.0,2.0,60.0,4.0,64.0
5201,70.0,7.0,90.0,0.0,64.0
5202,63.0,21.0,60.0,1.0,64.0
5203,67.0,15.0,90.0,2.0,64.0
5204,48.0,31.0,120.0,3.0,64.0
5205,70.0,15.0,90.0,4.0,64.0
5206,62.0,7.0,60.0,1.0,64.0
5207,69.0,34.0,120.0,0.0,64.0
5208,66.0,33.0,90.0,2.0,64.0
5209,69.0,27.0,150.0,4.0,64.0
5210,50.0,2.0,90.0,3.0,64.0
5211,69.0,84.0,90.0,1.0,64.0
5212,51.0,2.0,90.0,3.0,64.0
5213,67.0,2.0,60.0,2.0,64.0
5214,67.0,22.0,60.0,0.0,64.0
5215,67.0,117.0,60.0,4.0,64.0
5216,53.0,13.0,90.0,3.0,64.0
5217,59.0,106.0,90.0,2.0,64.0
5218,74.0,5.0,60.0,1.0,64.0
5219,67.0,13.0,2460.0,0.0,64.0
5220,67.0,23.0,2430.0,4.0,64.0
5221,51.0,138.0,90.0,3.0,64.0
5222,53.0,4.0,120.0,3.0,64.0
5223,72.0,4.0,330.0,1.0,64.0
5224,55.0,84.0,90.0,2.0,64.0
5225,55.0,155.0,90.0,3.0,64.0
5226,53.0,91.0,120.0,3.0,64.0
5227,62.0,7.0,90.0,2.0,64.0
5228,51.0,104.0,90.0,3.0,64.0
5229,50.0,28.0,90.0,3.0,64.0
5230,71.0,83.0,120.0,1.0,64.0
5231,62.0,21.0,90.0,2.0,64.0
5232,53.0,133.0,90.0,3.0,64.0
5233,72.0,48.0,120.0,1.0,64.0
5234,51.0,12.0,90.0,3.0,64.0
5235,55.0,56.0,120.0,2.0,64.0
5236,74.0,165.0,120.0,1.0,64.0
5237,75.0,47.0,150.0,1.0,64.0
5238,67.0,5.0,120.0,2.0,64.0
5239,50.0,35.0,360.0,3.0,64.0
5240,74.0,131.0,90.0,1.0,64.0
5241,65.0,4.0,60.0,2.0,64.0
5242,63.0,39.0,90.0,2.0,64.0
5243,72.0,21.0,120.0,1.0,64.0
5244,62.0,15.0,90.0,2.0,64.0
5245,71.0,127.0,90.0,1.0,64.0
5246,63.0,17.0,90.0,2.0,64.0
5247,72.0,47.0,90.0,1.0,64.0
5248,48.0,34.0,120.0,3.0,64.0
5249,60.0,23.0,90.0,2.0,64.0
5250,69.0,133.0,90.0,1.0,64.0
5251,65.0,2.0,90.0,2.0,64.0
5252,50.0,15.0,90.0,3.0,64.0
5253,71.0,91.0,120.0,1.0,64.0
5254,63.0,5.0,90.0,2.0,64.0
5255,48.0,24.0,90.0,3.0,64.0
5256,72.0,93.0,120.0,1.0,64.0
5257,62.0,7.0,90.0,2.0,64.0
5258,47.0,0.0,90.0,3.0,64.0
5259,74.0,88.0,90.0,1.0,64.0
5260,48.0,5.0,90.0,3.0,64.0
5261,72.0,4.0,90.0,1.0,64.0
5262,63.0,108.0,90.0,2.0,64.0
5263,50.0,102.0,120.0,3.0,64.0
5264,71.0,3.0,90.0,1.0,64.0
5265,65.0,4.0,90.0,2.0,64.0
5266,72.0,8.0,120.0,1.0,64.0
5267,63.0,105.0,90.0,2.0,64.0
5268,71.0,1.0,120.0,1.0,64.0
5269,43.0,1.0,90.0,3.0,64.0
5270,65.0,9.0,90.0,2.0,64.0
5271,67.0,4.0,90.0,0.0,64.0
5272,67.0,80.0,90.0,4.0,64.0
5273,69.0,142.0,90.0,1.0,64.0
5274,62.0,22.0,60.0,2.0,64.0
5275,63.0,148.0,120.0,2.0,64.0
5276,67.0,40.0,3000.0,1.0,64.0
5277,75.0,0.0,90.0,0.0,64.0
5278,75.0,0.0,90.0,4.0,64.0
5279,48.0,9.0,90.0,3.0,64.0
5280,65.0,71.0,150.0,2.0,64.0
5281,67.0,99.0,90.0,2.0,64.0
5282,74.0,11.0,360.0,4.0,64.0
5283,47.0,2.0,360.0,3.0,64.0
5284,74.0,31.0,360.0,0.0,64.0
5285,65.0,138.0,90.0,2.0,64.0
5286,63.0,53.0,90.0,2.0,64.0
5287,62.0,152.0,90.0,2.0,64.0
5288,63.0,29.0,120.0,2.0,64.0
5289,45.0,5.0,120.0,3.0,64.0
5290,72.0,20.0,120.0,4.0,64.0
5291,72.0,33.0,120.0,0.0,64.0
5292,60.0,164.0,90.0,2.0,64.0
5293,65.0,22.0,120.0,2.0,64.0
5294,47.0,64.0,120.0,3.0,64.0
5295,74.0,8.0,120.0,4.0,64.0
5296,74.0,1.0,90.0,0.0,64.0
5297,63.0,18.0,90.0,2.0,64.0
5298,48.0,6.0,90.0,3.0,64.0
5299,75.0,98.0,90.0,0.0,64.0
5300,75.0,0.0,90.0,4.0,64.0
5301,62.0,28.0,90.0,2.0,64.0
5302,47.0,82.0,120.0,3.0,64.0
5303,77.0,15.0,300.0,4.0,64.0
5304,77.0,11.0,300.0,0.0,64.0
5305,45.0,5.0,90.0,3.0,64.0
5306,60.0,115.0,90.0,2.0,64.0
5307,43.0,97.0,120.0,3.0,64.0
5308,59.0,12.0,120.0,2.0,64.0
5309,45.0,31.0,120.0,3.0,64.0
5310,60.0,6.0,90.0,2.0,64.0
5311,75.0,0.0,120.0,4.0,64.0
5312,75.0,76.0,90.0,0.0,64.0
5313,47.0,6.0,90.0,3.0,64.0
5314,62.0,33.0,90.0,2.0,64.0
5315,74.0,55.0,120.0,4.0,64.0
5316,74.0,3.0,90.0,0.0,64.0
5317,48.0,14.0,90.0,3.0,64.0
5318,63.0,17.0,90.0,2.0,64.0
5319,72.0,143.0,90.0,4.0,64.0
5320,72.0,4.0,90.0,0.0,64.0
5321,50.0,83.0,120.0,3.0,64.0
5322,71.0,5.0,120.0,0.0,64.0
5323,71.0,1.0,120.0,4.0,64.0
5324,65.0,0.0,120.0,2.0,64.0
5325,51.0,17.0,90.0,3.0,64.0
5326,69.0,26.0,150.0,0.0,64.0
5327,69.0,53.0,150.0,4.0,64.0
5328,67.0,24.0,90.0,2.0,64.0
5329,50.0,3.0,120.0,3.0,64.0
5330,71.0,11.0,90.0,4.0,64.0
5331,65.0,11.0,90.0,2.0,64.0
5332,71.0,80.0,90.0,0.0,64.0
5333,48.0,24.0,90.0,3.0,64.0
5334,72.0,74.0,120.0,4.0,64.0
5335,63.0,8.0,120.0,2.0,64.0
5336,72.0,18.0,90.0,0.0,64.0
5337,47.0,28.0,120.0,3.0,64.0
5338,62.0,22.0,90.0,2.0,64.0
5339,74.0,69.0,120.0,4.0,64.0
5340,74.0,11.0,120.0,0.0,64.0
5341,43.0,75.0,150.0,3.0,64.0
5342,59.0,13.0,90.0,2.0,64.0
5343,75.0,0.0,90.0,4.0,64.0
5344,75.0,36.0,90.0,0.0,64.0
5345,45.0,39.0,150.0,3.0,64.0
5346,60.0,5.0,90.0,2.0,64.0
5347,77.0,30.0,120.0,4.0,64.0
5348,77.0,23.0,90.0,0.0,64.0
5349,47.0,104.0,120.0,3.0,64.0
5350,74.0,5.0,90.0,4.0,64.0
5351,62.0,12.0,60.0,2.0,64.0
5352,74.0,37.0,90.0,0.0,64.0
5353,48.0,2.0,120.0,3.0,64.0
5354,75.0,26.0,90.0,0.0,64.0
5355,75.0,3.0,120.0,4.0,64.0
5356,55.0,51.0,180.0,2.0,64.0
5357,77.0,70.0,120.0,4.0,64.0
5358,50.0,20.0,120.0,3.0,64.0
5359,77.0,4.0,90.0,0.0,64.0
5360,48.0,26.0,90.0,3.0,64.0
5361,75.0,9.0,90.0,0.0,64.0
5362,60.0,5.0,90.0,2.0,64.0
5363,75.0,60.0,120.0,4.0,64.0
5364,67.0,7.0,90.0,1.0,64.0
5365,46.0,33.0,90.0,3.0,64.0
5366,74.0,4.0,90.0,0.0,64.0
5367,62.0,11.0,90.0,2.0,64.0
5368,74.0,98.0,120.0,4.0,64.0
5369,63.0,43.0,90.0,2.0,64.0
5370,72.0,9.0,570.0,1.0,64.0
5371,72.0,6.0,90.0,0.0,64.0
5372,45.0,9.0,90.0,3.0,64.0
5373,72.0,51.0,120.0,4.0,64.0
5374,74.0,6.0,90.0,0.0,64.0
5375,46.0,29.0,90.0,3.0,64.0
5376,74.0,86.0,120.0,4.0,64.0
5377,75.0,7.0,90.0,0.0,64.0
5378,48.0,9.0,90.0,3.0,64.0
5379,60.0,15.0,90.0,2.0,64.0
5380,75.0,75.0,90.0,4.0,64.0
5381,72.0,5.0,90.0,0.0,64.0
5382,50.0,22.0,90.0,3.0,64.0
5383,72.0,104.0,90.0,4.0,64.0
5384,51.0,76.0,120.0,3.0,64.0
5385,65.0,19.0,90.0,2.0,64.0
5386,69.0,5.0,90.0,0.0,64.0
5387,69.0,2.0,90.0,4.0,64.0
5388,53.0,31.0,90.0,3.0,64.0
5389,74.0,108.0,90.0,1.0,64.0
5390,51.0,9.0,90.0,3.0,64.0
5391,57.0,15.0,90.0,2.0,64.0
5392,72.0,83.0,120.0,1.0,64.0
5393,77.0,58.0,360.0,0.0,64.0
5394,77.0,3.0,330.0,4.0,64.0
5395,50.0,32.0,90.0,3.0,64.0
5396,70.0,100.0,120.0,1.0,64.0
5397,48.0,13.0,90.0,3.0,64.0
5398,69.0,17.0,120.0,1.0,64.0
5399,60.0,20.0,90.0,2.0,64.0
5400,53.0,20.0,90.0,3.0,64.0
5401,70.0,108.0,90.0,1.0,64.0
5402,51.0,8.0,90.0,3.0,64.0
5403,72.0,5.0,90.0,1.0,64.0
5404,53.0,20.0,90.0,2.0,64.0
5405,69.0,71.0,120.0,4.0,64.0
5406,69.0,5.0,90.0,0.0,64.0
5407,53.0,18.0,90.0,3.0,64.0
5408,69.0,137.0,90.0,1.0,64.0
5409,50.0,66.0,120.0,3.0,64.0
5410,65.0,35.0,90.0,2.0,64.0
5411,70.0,58.0,330.0,4.0,64.0
5412,65.0,2.0,570.0,1.0,64.0
5413,70.0,9.0,300.0,0.0,64.0
5414,51.0,95.0,90.0,3.0,64.0
5415,67.0,9.0,90.0,2.0,64.0
5416,65.0,34.0,90.0,2.0,64.0
5417,50.0,8.0,120.0,3.0,64.0
5418,63.0,18.0,90.0,2.0,64.0
5419,48.0,132.0,90.0,3.0,64.0
5420,72.0,11.0,60.0,0.0,64.0
5421,72.0,7.0,40.0,4.0,64.0
5422,46.0,5.0,120.0,3.0,64.0
5423,62.0,37.0,630.0,2.0,64.0
5424,74.0,2.0,90.0,0.0,64.0
5425,74.0,75.0,90.0,4.0,64.0
5426,48.0,105.0,120.0,3.0,64.0
5427,76.0,16.0,60.0,0.0,64.0
5428,76.0,8.0,90.0,4.0,64.0
5429,50.0,15.0,120.0,3.0,64.0
5430,78.0,15.0,90.0,0.0,64.0
5431,78.0,16.0,90.0,4.0,64.0
5432,74.0,45.0,120.0,1.0,64.0
5433,52.0,24.0,90.0,3.0,64.0
5434,79.0,120.0,90.0,4.0,64.0
5435,79.0,6.0,90.0,0.0,64.0
5436,54.0,37.0,120.0,3.0,64.0
5437,81.0,5.0,90.0,4.0,64.0
5438,72.0,11.0,120.0,1.0,64.0
5439,81.0,7.0,90.0,0.0,64.0
5440,55.0,140.0,90.0,3.0,64.0
5441,70.0,7.0,90.0,1.0,64.0
5442,54.0,31.0,90.0,3.0,64.0
5443,69.0,75.0,120.0,1.0,64.0
5444,72.0,16.0,330.0,0.0,64.0
5445,72.0,4.0,330.0,4.0,64.0
5446,62.0,28.0,390.0,2.0,64.0
5447,67.0,6.0,90.0,1.0,64.0
5448,52.0,120.0,90.0,3.0,64.0
5449,50.0,11.0,120.0,3.0,64.0
5450,66.0,29.0,120.0,1.0,64.0
5451,67.0,42.0,60.0,1.0,64.0
5452,52.0,41.0,120.0,3.0,64.0
5453,70.0,1.0,60.0,0.0,64.0
5454,70.0,63.0,90.0,4.0,64.0
5455,69.0,13.0,90.0,1.0,64.0
5456,54.0,25.0,90.0,3.0,64.0
5457,69.0,2.0,90.0,0.0,64.0
5458,62.0,24.0,360.0,2.0,64.0
5459,69.0,47.0,90.0,4.0,64.0
5460,66.0,17.0,60.0,1.0,64.0
5461,50.0,15.0,60.0,3.0,64.0
5462,72.0,35.0,60.0,0.0,64.0
5463,72.0,100.0,90.0,4.0,64.0
5464,55.0,14.0,120.0,3.0,64.0
5465,62.0,42.0,150.0,1.0,64.0
5466,70.0,20.0,90.0,0.0,64.0
5467,70.0,15.0,90.0,4.0,64.0
5468,53.0,127.0,90.0,3.0,64.0
5469,51.0,33.0,90.0,3.0,64.0
5470,69.0,15.0,300.0,0.0,64.0
5471,60.0,77.0,120.0,1.0,64.0
5472,69.0,5.0,300.0,4.0,64.0
5473,66.0,20.0,300.0,2.0,64.0
5474,50.0,71.0,120.0,3.0,64.0
5475,62.0,31.0,90.0,1.0,64.0
5476,48.0,13.0,90.0,3.0,64.0
5477,63.0,91.0,120.0,1.0,64.0
5478,67.0,9.0,90.0,2.0,64.0
5479,67.0,4.0,90.0,0.0,64.0
5480,46.0,16.0,90.0,3.0,64.0
5481,67.0,77.0,90.0,4.0,64.0
5482,66.0,20.0,60.0,0.0,64.0
5483,45.0,16.0,90.0,3.0,64.0
5484,72.0,164.0,390.0,1.0,64.0
5485,66.0,70.0,90.0,4.0,64.0
5486,69.0,37.0,300.0,2.0,64.0
5487,69.0,20.0,90.0,0.0,64.0
5488,43.0,95.0,120.0,3.0,64.0
5489,69.0,25.0,90.0,4.0,64.0
5490,62.0,5.0,120.0,0.0,64.0
5491,42.0,15.0,120.0,3.0,64.0
5492,62.0,40.0,120.0,4.0,64.0
5493,62.0,2.0,120.0,2.0,64.0
5494,70.0,16.0,90.0,1.0,64.0
5495,43.0,11.0,120.0,3.0,64.0
5496,74.0,17.0,120.0,4.0,64.0
5497,74.0,60.0,120.0,0.0,64.0
5498,69.0,158.0,90.0,1.0,64.0
5499,50.0,4.0,120.0,3.0,64.0
5500,67.0,7.0,120.0,1.0,64.0
5501,72.0,28.0,120.0,4.0,64.0
5502,62.0,20.0,150.0,2.0,64.0
5503,72.0,0.0,120.0,0.0,64.0
5504,70.0,0.0,60.0,0.0,64.0
5505,70.0,190.0,60.0,4.0,64.0
5506,60.0,1.0,150.0,2.0,64.0
5507,69.0,1.0,120.0,0.0,64.0
5508,66.0,64.0,150.0,1.0,64.0
5509,69.0,19.0,120.0,4.0,64.0
5510,38.0,6.0,150.0,3.0,64.0
5511,67.0,8.0,120.0,0.0,64.0
5512,67.0,214.0,120.0,4.0,64.0
5513,62.0,29.0,270.0,1.0,64.0
5514,67.0,24.0,390.0,0.0,64.0
5515,43.0,54.0,1830.0,3.0,64.0
5516,67.0,50.0,180.0,4.0,64.0
5517,58.0,62.0,270.0,2.0,64.0
5518,79.0,36.0,40.0,4.0,64.0
5519,77.0,32.0,90.0,4.0,64.0
5520,75.0,12.0,40.0,4.0,64.0
5521,77.0,22.0,40.0,4.0,64.0
5522,69.0,17.0,60.0,0.0,64.0
5523,75.0,12.0,30.0,4.0,64.0
5524,77.0,21.0,30.0,4.0,64.0
5525,70.0,6.0,60.0,0.0,64.0
5526,75.0,21.0,30.0,4.0,64.0
5527,77.0,17.0,30.0,4.0,64.0
5528,69.0,31.0,30.0,0.0,64.0
5529,75.0,36.0,150.0,4.0,64.0
5530,70.0,16.0,30.0,0.0,64.0
5531,69.0,38.0,20.0,0.0,64.0
5532,70.0,23.0,40.0,0.0,64.0
5533,69.0,7.0,40.0,0.0,64.0
5534,67.0,7.0,60.0,0.0,64.0
5535,74.0,13.0,40.0,4.0,64.0
5536,69.0,134.0,40.0,0.0,64.0
5537,70.0,89.0,120.0,0.0,64.0
5538,74.0,55.0,390.0,4.0,64.0
5539,67.0,160.0,40.0,0.0,64.0
5540,74.0,18.0,120.0,0.0,64.0
5541,75.0,61.0,270.0,0.0,64.0
5542,72.0,30.0,30.0,4.0,64.0
5543,70.0,120.0,30.0,4.0,64.0
5544,72.0,26.0,120.0,4.0,64.0
5545,77.0,14.0,40.0,0.0,64.0
5546,69.0,85.0,40.0,4.0,64.0
5547,75.0,49.0,60.0,0.0,64.0
5548,70.0,46.0,120.0,4.0,64.0
5549,74.0,50.0,120.0,0.0,64.0
5550,72.0,2.0,40.0,0.0,64.0
5551,72.0,104.0,30.0,4.0,64.0
5552,72.0,50.0,90.0,0.0,64.0
5553,72.0,32.0,120.0,4.0,64.0
5554,70.0,9.0,90.0,0.0,64.0
5555,74.0,6.0,480.0,4.0,64.0
5556,45.0,59.0,60.0,3.0,64.0
5557,69.0,4.0,40.0,0.0,64.0
5558,46.0,22.0,60.0,3.0,64.0
5559,69.0,15.0,90.0,0.0,64.0
5560,45.0,17.0,30.0,3.0,64.0
5561,46.0,19.0,30.0,3.0,64.0
5562,67.0,0.0,90.0,0.0,64.0
5563,45.0,40.0,30.0,3.0,64.0
5564,46.0,20.0,40.0,3.0,64.0
5565,45.0,40.0,40.0,3.0,64.0
5566,43.0,17.0,60.0,3.0,64.0
5567,66.0,6.0,40.0,0.0,64.0
5568,45.0,113.0,40.0,3.0,64.0
5569,66.0,73.0,120.0,0.0,64.0
5570,46.0,19.0,120.0,3.0,64.0
5571,67.0,56.0,270.0,0.0,64.0
5572,43.0,163.0,60.0,3.0,64.0
5573,67.0,6.0,40.0,4.0,64.0
5574,51.0,51.0,390.0,3.0,64.0
5575,72.0,2.0,360.0,4.0,64.0
5576,69.0,23.0,30.0,0.0,64.0
5577,70.0,69.0,30.0,0.0,64.0
5578,70.0,25.0,40.0,0.0,64.0
5579,69.0,42.0,30.0,0.0,64.0
5580,70.0,17.0,40.0,0.0,64.0
5581,69.0,17.0,90.0,0.0,64.0
5582,53.0,8.0,40.0,3.0,64.0
5583,72.0,12.0,40.0,4.0,64.0
5584,67.0,139.0,40.0,0.0,64.0
5585,51.0,5.0,150.0,3.0,64.0
5586,66.0,74.0,150.0,0.0,64.0
5587,72.0,14.0,120.0,4.0,64.0
5588,62.0,5.0,390.0,1.0,64.0
5589,50.0,108.0,960.0,3.0,64.0
5590,74.0,13.0,40.0,4.0,64.0
5591,62.0,102.0,40.0,0.0,64.0
5592,69.0,31.0,90.0,0.0,64.0
5593,72.0,1.0,90.0,4.0,64.0
5594,67.0,9.0,60.0,0.0,64.0
5595,70.0,31.0,60.0,4.0,64.0
5596,69.0,10.0,40.0,0.0,64.0
5597,72.0,17.0,60.0,4.0,64.0
5598,67.0,11.0,40.0,0.0,64.0
5599,70.0,23.0,30.0,4.0,64.0
5600,64.0,5.0,60.0,1.0,64.0
5601,69.0,8.0,40.0,0.0,64.0
5602,72.0,16.0,40.0,4.0,64.0
5603,67.0,7.0,30.0,0.0,64.0
5604,66.0,9.0,60.0,1.0,64.0
5605,70.0,14.0,30.0,4.0,64.0
5606,69.0,7.0,30.0,0.0,64.0
5607,72.0,4.0,30.0,4.0,64.0
5608,64.0,11.0,30.0,1.0,64.0
5609,67.0,7.0,30.0,0.0,64.0
5610,70.0,13.0,20.0,4.0,64.0
5611,66.0,6.0,30.0,1.0,64.0
5612,69.0,7.0,30.0,0.0,64.0
5613,72.0,13.0,30.0,4.0,64.0
5614,64.0,6.0,30.0,1.0,64.0
5615,67.0,27.0,30.0,0.0,64.0
5616,70.0,2.0,90.0,4.0,64.0
5617,69.0,24.0,40.0,0.0,64.0
5618,66.0,0.0,40.0,1.0,64.0
5619,72.0,6.0,20.0,4.0,64.0
5620,64.0,2.0,40.0,1.0,64.0
5621,67.0,22.0,40.0,0.0,64.0
5622,62.0,1.0,40.0,1.0,64.0
5623,66.0,16.0,40.0,0.0,64.0
5624,69.0,14.0,30.0,4.0,64.0
5625,70.0,6.0,40.0,4.0,64.0
5626,64.0,11.0,40.0,1.0,64.0
5627,67.0,118.0,40.0,0.0,64.0
5628,66.0,88.0,120.0,1.0,64.0
5629,69.0,9.0,330.0,4.0,64.0
5630,69.0,9.0,330.0,0.0,64.0
5631,62.0,118.0,40.0,1.0,64.0
5632,72.0,76.0,600.0,1.0,64.0
5633,78.0,2.0,60.0,0.0,64.0
5634,50.0,89.0,40.0,3.0,64.0
5635,78.0,1.0,40.0,4.0,64.0
5636,79.0,2.0,90.0,0.0,64.0
5637,79.0,11.0,90.0,4.0,64.0
5638,52.0,127.0,90.0,3.0,64.0
5639,54.0,1.0,40.0,3.0,64.0
5640,81.0,117.0,60.0,0.0,64.0
5641,81.0,6.0,40.0,4.0,64.0
5642,55.0,7.0,1080.0,3.0,64.0
5643,74.0,23.0,120.0,0.0,64.0
5644,74.0,7.0,90.0,4.0,64.0
5645,55.0,76.0,390.0,2.0,64.0
5646,75.0,11.0,40.0,0.0,64.0
5647,71.0,0.0,40.0,1.0,64.0
5648,75.0,16.0,40.0,4.0,64.0
5649,69.0,126.0,40.0,1.0,64.0
5650,71.0,5.0,120.0,1.0,64.0
5651,75.0,11.0,120.0,0.0,64.0
5652,75.0,17.0,120.0,4.0,64.0
5653,77.0,16.0,450.0,0.0,64.0
5654,77.0,2.0,450.0,4.0,64.0
5655,72.0,4.0,60.0,1.0,64.0
5656,57.0,36.0,60.0,2.0,64.0
5657,74.0,12.0,40.0,1.0,64.0
5658,59.0,13.0,40.0,2.0,64.0
5659,72.0,8.0,30.0,1.0,64.0
5660,57.0,17.0,30.0,2.0,64.0
5661,74.0,12.0,30.0,1.0,64.0
5662,59.0,18.0,30.0,2.0,64.0
5663,72.0,5.0,30.0,1.0,64.0
5664,57.0,34.0,30.0,2.0,64.0
5665,74.0,8.0,40.0,1.0,64.0
5666,59.0,16.0,40.0,2.0,64.0
5667,72.0,4.0,40.0,1.0,64.0
5668,57.0,31.0,40.0,2.0,64.0
5669,55.0,26.0,40.0,2.0,64.0
5670,71.0,7.0,40.0,1.0,64.0
5671,72.0,91.0,40.0,1.0,64.0
5672,57.0,2.0,40.0,2.0,64.0
5673,59.0,90.0,120.0,2.0,64.0
5674,74.0,12.0,360.0,1.0,64.0
5675,74.0,15.0,40.0,4.0,64.0
5676,74.0,8.0,40.0,0.0,64.0
5677,55.0,127.0,40.0,2.0,64.0
5678,72.0,1.0,120.0,4.0,64.0
5679,72.0,78.0,120.0,0.0,64.0
5680,67.0,2.0,690.0,2.0,64.0
5681,71.0,14.0,120.0,4.0,64.0
5682,71.0,0.0,90.0,0.0,64.0
5683,43.0,51.0,40.0,3.0,64.0
5684,65.0,2.0,30.0,1.0,64.0
5685,45.0,18.0,90.0,3.0,64.0
5686,65.0,25.0,40.0,1.0,64.0
5687,72.0,32.0,120.0,0.0,64.0
5688,72.0,4.0,120.0,4.0,64.0
5689,63.0,24.0,30.0,1.0,64.0
5690,65.0,10.0,30.0,1.0,64.0
5691,63.0,68.0,60.0,1.0,64.0
5692,74.0,1.0,60.0,0.0,64.0
5693,74.0,132.0,60.0,4.0,64.0
5694,47.0,5.0,40.0,3.0,64.0
5695,62.0,1.0,30.0,1.0,64.0
5696,75.0,1.0,120.0,0.0,64.0
5697,75.0,6.0,120.0,4.0,64.0
5698,48.0,37.0,300.0,3.0,64.0
5699,60.0,80.0,120.0,1.0,64.0
5700,77.0,7.0,40.0,0.0,64.0
5701,77.0,13.0,40.0,4.0,64.0
5702,58.0,90.0,40.0,1.0,64.0
5703,57.0,10.0,120.0,1.0,64.0
5704,75.0,6.0,120.0,0.0,64.0
5705,66.0,16.0,120.0,2.0,64.0
5706,75.0,48.0,120.0,4.0,64.0
5707,74.0,9.0,450.0,0.0,64.0
5708,74.0,10.0,480.0,4.0,64.0
5709,45.0,30.0,40.0,3.0,64.0
5710,46.0,3.0,40.0,3.0,64.0
5711,66.0,3.0,40.0,1.0,64.0
5712,69.0,35.0,40.0,2.0,64.0
5713,48.0,24.0,40.0,3.0,64.0
5714,62.0,3.0,120.0,2.0,64.0
5715,67.0,47.0,120.0,1.0,64.0
5716,46.0,31.0,40.0,3.0,64.0
5717,48.0,26.0,40.0,3.0,64.0
5718,46.0,65.0,90.0,3.0,64.0
5719,66.0,6.0,40.0,2.0,64.0
5720,69.0,2.0,40.0,1.0,64.0
5721,45.0,120.0,30.0,3.0,64.0
5722,67.0,70.0,360.0,2.0,64.0
5723,62.0,2.0,120.0,1.0,64.0
5724,46.0,70.0,120.0,3.0,64.0
5725,45.0,14.0,40.0,3.0,64.0
5726,58.0,1.0,40.0,1.0,64.0
5727,75.0,10.0,40.0,4.0,64.0
5728,75.0,7.0,60.0,0.0,64.0
5729,43.0,107.0,40.0,3.0,64.0
5730,55.0,16.0,180.0,1.0,64.0
5731,51.0,0.0,600.0,3.0,64.0
5732,72.0,8.0,90.0,0.0,64.0
5733,72.0,5.0,90.0,4.0,64.0
5734,65.0,23.0,30.0,2.0,64.0
5735,67.0,59.0,40.0,4.0,64.0
5736,67.0,0.0,40.0,0.0,64.0
5737,65.0,20.0,40.0,2.0,64.0
5738,69.0,4.0,120.0,0.0,64.0
5739,69.0,2.0,120.0,4.0,64.0
5740,60.0,7.0,570.0,1.0,64.0
5741,63.0,40.0,30.0,2.0,64.0
5742,65.0,15.0,40.0,2.0,64.0
5743,63.0,39.0,30.0,2.0,64.0
5744,65.0,20.0,40.0,2.0,64.0
5745,63.0,20.0,40.0,2.0,64.0
5746,70.0,11.0,40.0,0.0,64.0
5747,70.0,5.0,40.0,4.0,64.0
5748,62.0,28.0,40.0,2.0,64.0
5749,60.0,132.0,40.0,2.0,64.0
5750,70.0,6.0,150.0,0.0,64.0
5751,70.0,64.0,150.0,4.0,64.0
5752,65.0,23.0,570.0,2.0,64.0
5753,69.0,82.0,240.0,0.0,64.0
5754,69.0,2.0,240.0,4.0,64.0
5755,50.0,39.0,40.0,3.0,64.0
5756,48.0,102.0,40.0,3.0,64.0
5757,53.0,14.0,120.0,3.0,64.0
5758,72.0,14.0,60.0,4.0,64.0
5759,72.0,0.0,40.0,0.0,64.0
5760,69.0,4.0,40.0,1.0,64.0
5761,51.0,90.0,40.0,3.0,64.0
5762,77.0,11.0,390.0,4.0,64.0
5763,71.0,13.0,90.0,1.0,64.0
5764,77.0,32.0,390.0,0.0,64.0
5765,50.0,85.0,120.0,3.0,64.0
5766,56.0,16.0,40.0,2.0,64.0
5767,48.0,1.0,60.0,3.0,64.0
5768,72.0,155.0,40.0,1.0,64.0
5769,55.0,4.0,360.0,2.0,64.0
5770,47.0,42.0,180.0,3.0,64.0
5771,74.0,0.0,840.0,1.0,64.0
5772,75.0,1.0,40.0,4.0,64.0
5773,75.0,26.0,40.0,0.0,64.0
5774,74.0,2.0,40.0,4.0,64.0
5775,74.0,73.0,40.0,0.0,64.0
5776,48.0,31.0,90.0,3.0,64.0
5777,79.0,2.0,90.0,4.0,64.0
5778,79.0,25.0,120.0,0.0,64.0
5779,47.0,9.0,40.0,3.0,64.0
5780,48.0,19.0,40.0,3.0,64.0
5781,47.0,26.0,30.0,3.0,64.0
5782,77.0,3.0,30.0,0.0,64.0
5783,48.0,9.0,30.0,3.0,64.0
5784,62.0,3.0,40.0,2.0,64.0
5785,77.0,6.0,30.0,4.0,64.0
5786,47.0,32.0,20.0,3.0,64.0
5787,48.0,17.0,30.0,3.0,64.0
5788,77.0,7.0,40.0,0.0,64.0
5789,77.0,13.0,30.0,4.0,64.0
5790,67.0,68.0,360.0,2.0,64.0
5791,47.0,2.0,20.0,3.0,64.0
5792,75.0,8.0,30.0,0.0,64.0
5793,48.0,9.0,30.0,3.0,64.0
5794,75.0,7.0,40.0,4.0,64.0
5795,77.0,9.0,30.0,0.0,64.0
5796,47.0,4.0,20.0,3.0,64.0
5797,77.0,20.0,30.0,4.0,64.0
5798,75.0,25.0,60.0,0.0,64.0
5799,48.0,18.0,30.0,3.0,64.0
5800,75.0,6.0,60.0,4.0,64.0
5801,47.0,4.0,20.0,3.0,64.0
5802,48.0,25.0,40.0,3.0,64.0
5803,47.0,22.0,40.0,3.0,64.0
5804,74.0,7.0,40.0,0.0,64.0
5805,74.0,8.0,40.0,4.0,64.0
5806,45.0,17.0,40.0,3.0,64.0
5807,47.0,114.0,30.0,3.0,64.0
5808,74.0,3.0,120.0,0.0,64.0
5809,74.0,5.0,120.0,4.0,64.0
5810,48.0,8.0,90.0,3.0,64.0
5811,75.0,20.0,240.0,4.0,64.0
5812,75.0,73.0,270.0,0.0,64.0
5813,65.0,39.0,30.0,2.0,64.0
5814,36.0,1.0,40.0,3.0,64.0
5815,67.0,25.0,40.0,1.0,64.0
5816,65.0,27.0,30.0,2.0,64.0
5817,48.0,43.0,600.0,3.0,64.0
5818,72.0,23.0,90.0,1.0,64.0
5819,63.0,29.0,30.0,2.0,64.0
5820,65.0,23.0,30.0,2.0,64.0
5821,63.0,4.0,60.0,2.0,64.0
5822,75.0,9.0,60.0,1.0,64.0
5823,69.0,6.0,40.0,4.0,64.0
5824,62.0,5.0,40.0,2.0,64.0
5825,69.0,3.0,40.0,0.0,64.0
5826,70.0,12.0,30.0,4.0,64.0
5827,70.0,81.0,30.0,0.0,64.0
5828,69.0,30.0,90.0,1.0,64.0
5829,63.0,27.0,210.0,2.0,64.0
5830,72.0,12.0,120.0,4.0,64.0
5831,72.0,68.0,120.0,0.0,64.0
5832,72.0,2.0,40.0,1.0,64.0
5833,70.0,6.0,30.0,4.0,64.0
5834,70.0,1.0,30.0,0.0,64.0
5835,69.0,10.0,40.0,4.0,64.0
5836,69.0,92.0,40.0,0.0,64.0
5837,66.0,14.0,120.0,1.0,64.0
5838,57.0,38.0,150.0,2.0,64.0
5839,74.0,5.0,330.0,4.0,64.0
5840,74.0,79.0,330.0,0.0,64.0
5841,46.0,12.0,40.0,3.0,64.0
5842,58.0,6.0,40.0,2.0,64.0
5843,62.0,18.0,40.0,1.0,64.0
5844,45.0,8.0,40.0,3.0,64.0
5845,60.0,98.0,40.0,2.0,64.0
5846,62.0,0.0,120.0,2.0,64.0
5847,46.0,17.0,120.0,3.0,64.0
5848,67.0,78.0,600.0,1.0,64.0
5849,67.0,4.0,40.0,4.0,64.0
5850,67.0,11.0,40.0,0.0,64.0
5851,51.0,4.0,60.0,3.0,64.0
5852,60.0,5.0,40.0,2.0,64.0
5853,69.0,1.0,40.0,4.0,64.0
5854,69.0,92.0,40.0,0.0,64.0
5855,50.0,20.0,90.0,3.0,64.0
5856,70.0,85.0,120.0,4.0,64.0
5857,62.0,13.0,90.0,2.0,64.0
5858,70.0,9.0,120.0,0.0,64.0
5859,69.0,6.0,40.0,0.0,64.0
5860,69.0,3.0,40.0,4.0,64.0
5861,58.0,10.0,40.0,2.0,64.0
5862,51.0,7.0,40.0,3.0,64.0
5863,67.0,9.0,40.0,0.0,64.0
5864,67.0,105.0,40.0,4.0,64.0
5865,60.0,17.0,120.0,2.0,64.0
5866,45.0,6.0,120.0,3.0,64.0
5867,72.0,104.0,360.0,0.0,64.0
5868,72.0,10.0,330.0,4.0,64.0
5869,66.0,0.0,40.0,1.0,64.0
5870,46.0,23.0,40.0,3.0,64.0
5871,58.0,5.0,40.0,2.0,64.0
5872,64.0,11.0,40.0,1.0,64.0
5873,48.0,88.0,40.0,3.0,64.0
5874,66.0,5.0,90.0,1.0,64.0
5875,57.0,5.0,120.0,2.0,64.0
5876,38.0,94.0,600.0,3.0,64.0
5877,66.0,5.0,40.0,0.0,64.0
5878,66.0,3.0,40.0,4.0,64.0
5879,69.0,98.0,40.0,1.0,64.0
5880,62.0,1.0,40.0,2.0,64.0
5881,67.0,3.0,90.0,4.0,64.0
5882,67.0,2.0,90.0,0.0,64.0
5883,70.0,2.0,90.0,1.0,64.0
5884,58.0,131.0,90.0,2.0,64.0
5885,55.0,0.0,60.0,2.0,64.0
5886,69.0,2.0,40.0,0.0,64.0
5887,69.0,139.0,60.0,4.0,64.0
5888,72.0,3.0,40.0,1.0,64.0
5889,62.0,9.0,360.0,0.0,64.0
5890,54.0,14.0,330.0,2.0,64.0
5891,62.0,7.0,330.0,4.0,64.0
5892,74.0,77.0,360.0,1.0,64.0
5893,51.0,102.0,60.0,3.0,64.0
5894,50.0,13.0,120.0,3.0,64.0
5895,75.0,4.0,40.0,4.0,64.0
5896,48.0,11.0,40.0,3.0,64.0
5897,75.0,12.0,30.0,0.0,64.0
5898,57.0,0.0,40.0,2.0,64.0
5899,66.0,96.0,40.0,1.0,64.0
5900,46.0,15.0,120.0,3.0,64.0
5901,58.0,25.0,90.0,2.0,64.0
5902,75.0,89.0,120.0,0.0,64.0
5903,75.0,2.0,120.0,4.0,64.0
5904,67.0,6.0,120.0,1.0,64.0
5905,74.0,6.0,240.0,0.0,64.0
5906,74.0,84.0,240.0,4.0,64.0
5907,45.0,8.0,40.0,3.0,64.0
5908,60.0,1.0,60.0,2.0,64.0
5909,69.0,121.0,40.0,1.0,64.0
5910,43.0,4.0,120.0,3.0,64.0
5911,62.0,8.0,120.0,2.0,64.0
5912,70.0,2.0,120.0,1.0,64.0
5913,72.0,6.0,40.0,0.0,64.0
5914,63.0,0.0,60.0,2.0,64.0
5915,72.0,2.0,60.0,4.0,64.0
5916,69.0,6.0,40.0,1.0,64.0
5917,48.0,171.0,40.0,3.0,64.0
5918,62.0,2.0,180.0,2.0,64.0
5919,70.0,1.0,180.0,0.0,64.0
5920,67.0,9.0,180.0,1.0,64.0
5921,70.0,97.0,180.0,4.0,64.0
5922,50.0,1.0,180.0,3.0,64.0
5923,62.0,5.0,60.0,2.0,64.0
5924,67.0,0.0,60.0,1.0,64.0
5925,70.0,2.0,60.0,4.0,64.0
5926,70.0,18.0,40.0,0.0,64.0
5927,38.0,9.0,150.0,3.0,64.0
5928,60.0,0.0,30.0,2.0,64.0
5929,66.0,2.0,30.0,1.0,64.0
5930,69.0,2.0,30.0,4.0,64.0
5931,69.0,29.0,30.0,0.0,64.0
5932,62.0,1.0,40.0,2.0,64.0
5933,70.0,1.0,30.0,4.0,64.0
5934,67.0,9.0,40.0,1.0,64.0
5935,70.0,7.0,40.0,0.0,64.0
5936,60.0,15.0,90.0,2.0,64.0
5937,69.0,32.0,20.0,4.0,64.0
5938,66.0,7.0,60.0,1.0,64.0
5939,69.0,7.0,120.0,0.0,64.0
5940,70.0,16.0,40.0,4.0,64.0
5941,70.0,3.0,30.0,0.0,64.0
5942,69.0,16.0,60.0,4.0,64.0
5943,62.0,1.0,40.0,1.0,64.0
5944,58.0,10.0,40.0,2.0,64.0
5945,67.0,13.0,40.0,0.0,64.0
5946,67.0,721.0,40.0,4.0,64.0
5947,43.0,138.0,750.0,3.0,64.0
5948,62.0,2.0,720.0,1.0,64.0
5949,58.0,7.0,720.0,2.0,64.0
5950,67.0,7.0,720.0,0.0,64.0
5951,67.0,18.0,690.0,4.0,64.0
5952,74.0,5.0,40.0,4.0,64.0
5953,74.0,150.0,40.0,0.0,64.0
5954,75.0,16.0,90.0,4.0,64.0
5955,75.0,494.0,90.0,0.0,64.0
5956,74.0,77.0,360.0,0.0,64.0
5957,74.0,186.0,420.0,4.0,64.0
5958,72.0,42.0,150.0,0.0,64.0
5959,72.0,162.0,150.0,4.0,64.0
5960,74.0,24.0,120.0,0.0,64.0
5961,74.0,66.0,120.0,4.0,64.0
5962,72.0,29.0,90.0,0.0,64.0
5963,72.0,124.0,120.0,4.0,64.0
5964,70.0,19.0,150.0,0.0,64.0
5965,70.0,59.0,150.0,4.0,64.0
5966,72.0,33.0,90.0,0.0,64.0
5967,72.0,86.0,120.0,4.0,64.0
5968,74.0,44.0,90.0,0.0,64.0
5969,74.0,200.0,90.0,4.0,64.0
5970,67.0,20.0,90.0,0.0,64.0
5971,67.0,217.0,90.0,4.0,64.0
5972,72.0,17.0,90.0,0.0,64.0
5973,72.0,516.0,90.0,4.0,64.0
5974,70.0,67.0,360.0,0.0,64.0
5975,70.0,208.0,420.0,4.0,64.0
5976,69.0,8.0,150.0,0.0,64.0
5977,69.0,204.0,150.0,4.0,64.0
5978,70.0,9.0,120.0,0.0,64.0
5979,70.0,66.0,120.0,4.0,64.0
5980,72.0,45.0,90.0,0.0,64.0
5981,72.0,82.0,120.0,4.0,64.0
5982,70.0,19.0,90.0,0.0,64.0
5983,70.0,101.0,120.0,4.0,64.0
5984,69.0,12.0,90.0,0.0,64.0
5985,69.0,117.0,120.0,4.0,64.0
5986,67.0,100.0,120.0,0.0,64.0
5987,67.0,9.0,90.0,4.0,64.0
5988,69.0,16.0,90.0,4.0,64.0
5989,69.0,114.0,120.0,0.0,64.0
5990,70.0,95.0,120.0,4.0,64.0
5991,70.0,9.0,120.0,0.0,64.0
5992,67.0,7.0,90.0,1.0,64.0
5993,72.0,110.0,120.0,4.0,64.0
5994,72.0,14.0,90.0,0.0,64.0
5995,74.0,10.0,120.0,0.0,64.0
5996,74.0,65.0,120.0,4.0,64.0
5997,70.0,23.0,90.0,1.0,64.0
5998,76.0,136.0,90.0,0.0,64.0
5999,76.0,8.0,60.0,4.0,64.0
6000,77.0,62.0,150.0,4.0,64.0
6001,77.0,26.0,120.0,0.0,64.0
6002,69.0,49.0,390.0,1.0,64.0
6003,74.0,146.0,90.0,0.0,64.0
6004,74.0,11.0,90.0,4.0,64.0
6005,76.0,7.0,120.0,4.0,64.0
6006,76.0,39.0,120.0,0.0,64.0
6007,77.0,137.0,90.0,4.0,64.0
6008,77.0,5.0,90.0,0.0,64.0
6009,79.0,0.0,120.0,4.0,64.0
6010,79.0,76.0,120.0,0.0,64.0
6011,67.0,1.0,180.0,1.0,64.0
6012,76.0,6.0,90.0,4.0,64.0
6013,76.0,175.0,90.0,0.0,64.0
6014,77.0,34.0,540.0,0.0,64.0
6015,77.0,17.0,570.0,4.0,64.0
6016,69.0,106.0,90.0,1.0,64.0
6017,67.0,103.0,120.0,1.0,64.0
6018,65.0,113.0,90.0,1.0,64.0
6019,67.0,97.0,90.0,1.0,64.0
6020,69.0,100.0,120.0,1.0,64.0
6021,76.0,20.0,90.0,0.0,64.0
6022,76.0,91.0,90.0,4.0,64.0
6023,77.0,13.0,90.0,0.0,64.0
6024,62.0,4.0,90.0,1.0,64.0
6025,77.0,87.0,90.0,4.0,64.0
6026,79.0,17.0,90.0,0.0,64.0
6027,79.0,115.0,90.0,4.0,64.0
6028,77.0,109.0,120.0,4.0,64.0
6029,77.0,4.0,120.0,0.0,64.0
6030,67.0,32.0,90.0,1.0,64.0
6031,76.0,84.0,120.0,4.0,64.0
6032,76.0,6.0,120.0,0.0,64.0
6033,74.0,34.0,90.0,4.0,64.0
6034,74.0,78.0,120.0,0.0,64.0
6035,65.0,16.0,330.0,1.0,64.0
6036,77.0,5.0,90.0,4.0,64.0
6037,77.0,155.0,90.0,0.0,64.0
6038,76.0,73.0,150.0,4.0,64.0
6039,76.0,11.0,120.0,0.0,64.0
6040,74.0,89.0,120.0,4.0,64.0
6041,74.0,13.0,90.0,0.0,64.0
6042,73.0,3.0,90.0,4.0,64.0
6043,73.0,74.0,90.0,0.0,64.0
6044,64.0,40.0,150.0,1.0,64.0
6045,76.0,137.0,90.0,0.0,64.0
6046,76.0,5.0,90.0,4.0,64.0
6047,74.0,4.0,90.0,4.0,64.0
6048,74.0,32.0,90.0,0.0,64.0
6049,65.0,94.0,120.0,1.0,64.0
6050,67.0,87.0,90.0,1.0,64.0
6051,69.0,35.0,90.0,4.0,64.0
6052,65.0,103.0,120.0,1.0,64.0
6053,69.0,15.0,60.0,0.0,64.0
6054,64.0,101.0,120.0,1.0,64.0
6055,62.0,97.0,120.0,1.0,64.0
6056,74.0,11.0,90.0,0.0,64.0
6057,74.0,29.0,90.0,4.0,64.0
6058,64.0,113.0,90.0,1.0,64.0
6059,62.0,9.0,90.0,4.0,64.0
6060,65.0,71.0,120.0,1.0,64.0
6061,62.0,24.0,90.0,0.0,64.0
6062,67.0,120.0,60.0,1.0,64.0
6063,72.0,18.0,90.0,4.0,64.0
6064,69.0,76.0,150.0,1.0,64.0
6065,72.0,47.0,90.0,0.0,64.0
6066,70.0,83.0,90.0,1.0,64.0
6067,66.0,9.0,60.0,0.0,64.0
6068,66.0,37.0,60.0,4.0,64.0
6069,69.0,104.0,90.0,1.0,64.0
6070,67.0,119.0,90.0,1.0,64.0
6071,66.0,106.0,120.0,1.0,64.0
6072,72.0,25.0,90.0,0.0,64.0
6073,72.0,0.0,120.0,4.0,64.0
6074,67.0,91.0,120.0,1.0,64.0
6075,62.0,17.0,60.0,0.0,64.0
6076,69.0,82.0,120.0,1.0,64.0
6077,62.0,17.0,90.0,4.0,64.0
6078,62.0,7.0,60.0,2.0,64.0
6079,66.0,133.0,90.0,1.0,64.0
6080,67.0,93.0,120.0,1.0,64.0
6081,70.0,18.0,90.0,4.0,64.0
6082,63.0,31.0,90.0,2.0,64.0
6083,70.0,0.0,90.0,0.0,64.0
6084,69.0,100.0,90.0,1.0,64.0
6085,70.0,4.0,90.0,1.0,64.0
6086,79.0,81.0,90.0,4.0,64.0
6087,79.0,10.0,90.0,0.0,64.0
6088,62.0,43.0,390.0,2.0,64.0
6089,67.0,158.0,90.0,1.0,64.0
6090,69.0,35.0,150.0,1.0,64.0
6091,78.0,19.0,90.0,0.0,64.0
6092,78.0,7.0,90.0,4.0,64.0
6093,70.0,17.0,120.0,1.0,64.0
6094,79.0,3.0,90.0,0.0,64.0
6095,79.0,96.0,90.0,4.0,64.0
6096,72.0,31.0,90.0,1.0,64.0
6097,60.0,79.0,120.0,2.0,64.0
6098,81.0,10.0,330.0,0.0,64.0
6099,81.0,0.0,330.0,4.0,64.0
6100,69.0,154.0,90.0,1.0,64.0
6101,70.0,12.0,570.0,1.0,64.0
6102,62.0,98.0,120.0,2.0,64.0
6103,60.0,106.0,90.0,2.0,64.0
6104,58.0,14.0,90.0,2.0,64.0
6105,74.0,18.0,90.0,0.0,64.0
6106,74.0,72.0,90.0,4.0,64.0
6107,60.0,144.0,60.0,2.0,64.0
6108,62.0,117.0,90.0,2.0,64.0
6109,79.0,30.0,540.0,0.0,64.0
6110,79.0,44.0,540.0,4.0,64.0
6111,69.0,119.0,90.0,1.0,64.0
6112,70.0,92.0,120.0,1.0,64.0
6113,55.0,6.0,90.0,2.0,64.0
6114,72.0,102.0,90.0,1.0,64.0
6115,70.0,84.0,120.0,1.0,64.0
6116,60.0,1.0,60.0,2.0,64.0
6117,69.0,11.0,90.0,1.0,64.0
6118,77.0,7.0,90.0,0.0,64.0
6119,77.0,93.0,90.0,4.0,64.0
6120,75.0,6.0,90.0,0.0,64.0
6121,67.0,5.0,90.0,1.0,64.0
6122,58.0,45.0,360.0,2.0,64.0
6123,75.0,92.0,90.0,4.0,64.0
6124,74.0,31.0,90.0,0.0,64.0
6125,70.0,1.0,60.0,1.0,64.0
6126,74.0,126.0,90.0,4.0,64.0
6127,72.0,13.0,150.0,0.0,64.0
6128,69.0,11.0,120.0,1.0,64.0
6129,72.0,2.0,90.0,4.0,64.0
6130,74.0,22.0,90.0,0.0,64.0
6131,67.0,9.0,90.0,1.0,64.0
6132,74.0,112.0,90.0,4.0,64.0
6133,75.0,56.0,390.0,0.0,64.0
6134,66.0,45.0,90.0,1.0,64.0
6135,57.0,51.0,120.0,2.0,64.0
6136,75.0,8.0,420.0,4.0,64.0
6137,69.0,135.0,90.0,1.0,64.0
6138,67.0,40.0,90.0,1.0,64.0
6139,58.0,24.0,90.0,2.0,64.0
6140,60.0,115.0,90.0,2.0,64.0
6141,62.0,14.0,90.0,1.0,64.0
6142,58.0,16.0,90.0,2.0,64.0
6143,74.0,33.0,120.0,0.0,64.0
6144,74.0,70.0,120.0,4.0,64.0
6145,57.0,1.0,120.0,2.0,64.0
6146,72.0,20.0,120.0,0.0,64.0
6147,72.0,90.0,120.0,4.0,64.0
6148,70.0,12.0,120.0,0.0,64.0
6149,55.0,100.0,120.0,2.0,64.0
6150,70.0,9.0,90.0,4.0,64.0
6151,67.0,5.0,90.0,1.0,64.0
6152,69.0,13.0,120.0,0.0,64.0
6153,57.0,1.0,120.0,2.0,64.0
6154,69.0,106.0,120.0,4.0,64.0
6155,67.0,2.0,120.0,0.0,64.0
6156,58.0,9.0,90.0,2.0,64.0
6157,67.0,66.0,120.0,4.0,64.0
6158,55.0,31.0,90.0,1.0,64.0
6159,55.0,0.0,90.0,3.0,64.0
6160,66.0,23.0,90.0,0.0,64.0
6161,60.0,0.0,90.0,2.0,64.0
6162,66.0,99.0,90.0,4.0,64.0
6163,67.0,29.0,150.0,0.0,64.0
6164,62.0,25.0,120.0,2.0,64.0
6165,67.0,7.0,90.0,1.0,64.0
6166,58.0,19.0,90.0,3.0,64.0
6167,67.0,37.0,150.0,4.0,64.0
6168,64.0,135.0,90.0,2.0,64.0
6169,65.0,2.0,90.0,2.0,64.0
6170,74.0,14.0,90.0,1.0,64.0
6171,69.0,20.0,90.0,0.0,64.0
6172,57.0,45.0,390.0,3.0,64.0
6173,69.0,64.0,90.0,4.0,64.0
6174,65.0,13.0,90.0,0.0,64.0
6175,62.0,18.0,90.0,2.0,64.0
6176,65.0,124.0,90.0,4.0,64.0
6177,64.0,14.0,120.0,2.0,64.0
6178,70.0,15.0,90.0,0.0,64.0
6179,73.0,3.0,90.0,1.0,64.0
6180,70.0,15.0,90.0,4.0,64.0
6181,74.0,21.0,90.0,1.0,64.0
6182,65.0,123.0,90.0,2.0,64.0
6183,76.0,27.0,420.0,1.0,64.0
6184,67.0,41.0,90.0,2.0,64.0
6185,61.0,19.0,420.0,0.0,64.0
6186,55.0,69.0,120.0,3.0,64.0
6187,61.0,8.0,420.0,4.0,64.0
6188,64.0,151.0,90.0,2.0,64.0
6189,65.0,15.0,570.0,2.0,64.0
6190,57.0,52.0,90.0,3.0,64.0
6191,55.0,127.0,90.0,3.0,64.0
6192,53.0,25.0,120.0,3.0,64.0
6193,69.0,6.0,120.0,1.0,64.0
6194,62.0,0.0,120.0,4.0,64.0
6195,62.0,61.0,120.0,0.0,64.0
6196,55.0,15.0,90.0,3.0,64.0
6197,64.0,11.0,90.0,4.0,64.0
6198,64.0,102.0,90.0,0.0,64.0
6199,57.0,24.0,90.0,3.0,64.0
6200,65.0,1.0,120.0,0.0,64.0
6201,65.0,93.0,120.0,4.0,64.0
6202,74.0,21.0,540.0,1.0,64.0
6203,67.0,6.0,120.0,0.0,64.0
6204,67.0,14.0,90.0,4.0,64.0
6205,64.0,89.0,90.0,2.0,64.0
6206,50.0,19.0,90.0,3.0,64.0
6207,69.0,16.0,120.0,0.0,64.0
6208,65.0,2.0,90.0,2.0,64.0
6209,69.0,74.0,90.0,4.0,64.0
6210,67.0,122.0,90.0,2.0,64.0
6211,58.0,5.0,120.0,0.0,64.0
6212,65.0,75.0,120.0,2.0,64.0
6213,58.0,8.0,120.0,4.0,64.0
6214,55.0,17.0,90.0,3.0,64.0
6215,64.0,27.0,90.0,2.0,64.0
6216,72.0,88.0,90.0,1.0,64.0
6217,62.0,23.0,90.0,2.0,64.0
6218,67.0,0.0,90.0,0.0,64.0
6219,67.0,6.0,90.0,4.0,64.0
6220,70.0,93.0,120.0,1.0,64.0
6221,53.0,86.0,360.0,3.0,64.0
6222,65.0,7.0,90.0,2.0,64.0
6223,69.0,109.0,90.0,1.0,64.0
6224,67.0,29.0,120.0,1.0,64.0
6225,64.0,9.0,90.0,2.0,64.0
6226,70.0,9.0,60.0,0.0,64.0
6227,70.0,17.0,60.0,4.0,64.0
6228,62.0,8.0,120.0,2.0,64.0
6229,69.0,65.0,120.0,1.0,64.0
6230,61.0,14.0,120.0,2.0,64.0
6231,70.0,60.0,60.0,1.0,64.0
6232,52.0,74.0,120.0,3.0,64.0
6233,79.0,13.0,300.0,0.0,64.0
6234,79.0,32.0,300.0,4.0,64.0
6235,67.0,94.0,120.0,1.0,64.0
6236,64.0,4.0,90.0,2.0,64.0
6237,62.0,53.0,120.0,2.0,64.0
6238,53.0,1.0,120.0,3.0,64.0
6239,69.0,68.0,150.0,1.0,64.0
6240,55.0,89.0,120.0,3.0,64.0
6241,53.0,87.0,120.0,3.0,64.0
6242,69.0,14.0,120.0,4.0,64.0
6243,69.0,7.0,90.0,0.0,64.0
6244,74.0,5.0,90.0,1.0,64.0
6245,65.0,2.0,90.0,2.0,64.0
6246,52.0,73.0,120.0,3.0,64.0
6247,73.0,30.0,90.0,1.0,64.0
6248,50.0,69.0,150.0,3.0,64.0
6249,77.0,17.0,90.0,4.0,64.0
6250,77.0,11.0,60.0,0.0,64.0
6251,74.0,13.0,90.0,1.0,64.0
6252,69.0,21.0,90.0,2.0,64.0
6253,52.0,141.0,90.0,3.0,64.0
6254,53.0,60.0,120.0,3.0,64.0
6255,74.0,4.0,330.0,0.0,64.0
6256,74.0,18.0,360.0,4.0,64.0
6257,69.0,22.0,330.0,1.0,64.0
6258,65.0,18.0,90.0,2.0,64.0
6259,55.0,157.0,60.0,3.0,64.0
6260,57.0,81.0,150.0,3.0,64.0
6261,64.0,3.0,210.0,2.0,64.0
6262,67.0,115.0,90.0,1.0,64.0
6263,58.0,4.0,90.0,3.0,64.0
6264,66.0,64.0,150.0,1.0,64.0
6265,57.0,12.0,90.0,3.0,64.0
6266,72.0,0.0,90.0,0.0,64.0
6267,72.0,3.0,90.0,4.0,64.0
6268,66.0,5.0,90.0,2.0,64.0
6269,64.0,15.0,90.0,1.0,64.0
6270,55.0,5.0,90.0,3.0,64.0
6271,67.0,131.0,90.0,2.0,64.0
6272,62.0,3.0,120.0,1.0,64.0
6273,54.0,100.0,120.0,3.0,64.0
6274,69.0,6.0,90.0,2.0,64.0
6275,81.0,13.0,90.0,4.0,64.0
6276,81.0,7.0,90.0,0.0,64.0
6277,55.0,105.0,120.0,3.0,64.0
6278,66.0,52.0,90.0,2.0,64.0
6279,69.0,3.0,360.0,1.0,64.0
6280,72.0,7.0,360.0,0.0,64.0
6281,57.0,49.0,120.0,3.0,64.0
6282,72.0,6.0,330.0,4.0,64.0
6283,54.0,149.0,90.0,3.0,64.0
6284,55.0,132.0,120.0,3.0,64.0
6285,62.0,8.0,90.0,2.0,64.0
6286,57.0,66.0,150.0,3.0,64.0
6287,55.0,2.0,120.0,3.0,64.0
6288,62.0,11.0,90.0,1.0,64.0
6289,70.0,7.0,90.0,0.0,64.0
6290,70.0,127.0,90.0,4.0,64.0
6291,67.0,7.0,90.0,2.0,64.0
6292,53.0,83.0,120.0,3.0,64.0
6293,51.0,10.0,120.0,3.0,64.0
6294,67.0,27.0,90.0,1.0,64.0
6295,75.0,48.0,540.0,0.0,64.0
6296,75.0,4.0,570.0,4.0,64.0
6297,70.0,110.0,90.0,2.0,64.0
6298,53.0,94.0,120.0,3.0,64.0
6299,55.0,17.0,90.0,3.0,64.0
6300,58.0,12.0,90.0,1.0,64.0
6301,63.0,118.0,90.0,2.0,64.0
6302,57.0,87.0,120.0,3.0,64.0
6303,65.0,2.0,60.0,1.0,64.0
6304,58.0,77.0,150.0,3.0,64.0
6305,58.0,32.0,120.0,2.0,64.0
6306,60.0,83.0,90.0,3.0,64.0
6307,74.0,1.0,90.0,0.0,64.0
6308,58.0,11.0,120.0,3.0,64.0
6309,65.0,8.0,90.0,2.0,64.0
6310,58.0,30.0,60.0,1.0,64.0
6311,74.0,62.0,120.0,4.0,64.0
6312,72.0,20.0,90.0,0.0,64.0
6313,72.0,16.0,90.0,4.0,64.0
6314,57.0,105.0,90.0,3.0,64.0
6315,74.0,9.0,90.0,4.0,64.0
6316,74.0,6.0,90.0,0.0,64.0
6317,55.0,104.0,120.0,3.0,64.0
6318,58.0,14.0,90.0,2.0,64.0
6319,70.0,0.0,90.0,1.0,64.0
6320,57.0,93.0,120.0,3.0,64.0
6321,58.0,13.0,90.0,3.0,64.0
6322,67.0,7.0,90.0,1.0,64.0
6323,76.0,4.0,90.0,4.0,64.0
6324,76.0,7.0,90.0,0.0,64.0
6325,60.0,82.0,90.0,2.0,64.0
6326,55.0,130.0,90.0,3.0,64.0
6327,77.0,9.0,90.0,0.0,64.0
6328,57.0,84.0,120.0,3.0,64.0
6329,72.0,20.0,60.0,1.0,64.0
6330,77.0,2.0,90.0,4.0,64.0
6331,53.0,16.0,90.0,2.0,64.0
6332,58.0,108.0,90.0,3.0,64.0
6333,57.0,3.0,90.0,3.0,64.0
6334,65.0,12.0,90.0,1.0,64.0
6335,72.0,9.0,90.0,0.0,64.0
6336,72.0,116.0,90.0,4.0,64.0
6337,57.0,1.0,90.0,2.0,64.0
6338,55.0,114.0,120.0,3.0,64.0
6339,69.0,14.0,120.0,0.0,64.0
6340,53.0,127.0,120.0,3.0,64.0
6341,72.0,18.0,90.0,1.0,64.0
6342,69.0,0.0,90.0,4.0,64.0
6343,60.0,27.0,570.0,2.0,64.0
6344,55.0,88.0,120.0,3.0,64.0
6345,69.0,19.0,90.0,1.0,64.0
6346,77.0,81.0,390.0,0.0,64.0
6347,57.0,106.0,120.0,3.0,64.0
6348,77.0,16.0,360.0,4.0,64.0
6349,58.0,99.0,90.0,3.0,64.0
6350,67.0,27.0,90.0,1.0,64.0
6351,60.0,1.0,120.0,3.0,64.0
6352,62.0,89.0,90.0,3.0,64.0
6353,60.0,13.0,120.0,3.0,64.0
6354,67.0,2.0,90.0,2.0,64.0
6355,60.0,14.0,60.0,1.0,64.0
6356,76.0,71.0,120.0,4.0,64.0
6357,76.0,16.0,90.0,0.0,64.0
6358,74.0,4.0,90.0,0.0,64.0
6359,74.0,30.0,90.0,4.0,64.0
6360,58.0,101.0,120.0,3.0,64.0
6361,76.0,8.0,90.0,4.0,64.0
6362,76.0,1.0,90.0,0.0,64.0
6363,60.0,4.0,90.0,2.0,64.0
6364,57.0,106.0,120.0,3.0,64.0
6365,72.0,19.0,90.0,1.0,64.0
6366,58.0,99.0,120.0,3.0,64.0
6367,60.0,59.0,150.0,3.0,64.0
6368,62.0,2.0,90.0,2.0,64.0
6369,78.0,2.0,90.0,0.0,64.0
6370,69.0,39.0,90.0,1.0,64.0
6371,78.0,2.0,90.0,4.0,64.0
6372,57.0,146.0,90.0,3.0,64.0
6373,58.0,1.0,150.0,3.0,64.0
6374,79.0,95.0,120.0,0.0,64.0
6375,74.0,15.0,90.0,1.0,64.0
6376,55.0,6.0,90.0,2.0,64.0
6377,79.0,5.0,120.0,4.0,64.0
6378,60.0,90.0,120.0,3.0,64.0
6379,58.0,91.0,120.0,3.0,64.0
6380,67.0,0.0,120.0,0.0,64.0
6381,67.0,9.0,90.0,4.0,64.0
6382,58.0,5.0,120.0,2.0,64.0
6383,62.0,31.0,60.0,1.0,64.0
6384,57.0,81.0,150.0,3.0,64.0
6385,69.0,6.0,90.0,0.0,64.0
6386,69.0,34.0,120.0,4.0,64.0
6387,55.0,9.0,120.0,3.0,64.0
6388,70.0,8.0,120.0,0.0,64.0
6389,70.0,68.0,120.0,4.0,64.0
6390,62.0,0.0,90.0,2.0,64.0
6391,67.0,10.0,90.0,1.0,64.0
6392,72.0,20.0,90.0,0.0,64.0
6393,53.0,93.0,120.0,3.0,64.0
6394,72.0,25.0,90.0,4.0,64.0
6395,51.0,17.0,120.0,3.0,64.0
6396,74.0,7.0,120.0,0.0,64.0
6397,74.0,65.0,120.0,4.0,64.0
6398,70.0,3.0,330.0,1.0,64.0
6399,67.0,11.0,90.0,2.0,64.0
6400,50.0,132.0,90.0,3.0,64.0
6401,75.0,14.0,90.0,0.0,64.0
6402,48.0,21.0,210.0,3.0,64.0
6403,63.0,118.0,90.0,2.0,64.0
6404,75.0,3.0,90.0,4.0,64.0
6405,69.0,91.0,90.0,1.0,64.0
6406,74.0,19.0,360.0,0.0,64.0
6407,65.0,4.0,90.0,2.0,64.0
6408,50.0,86.0,90.0,3.0,64.0
6409,70.0,12.0,90.0,1.0,64.0
6410,74.0,60.0,390.0,4.0,64.0
6411,67.0,41.0,90.0,1.0,64.0
6412,51.0,107.0,120.0,3.0,64.0
6413,69.0,7.0,150.0,1.0,64.0
6414,53.0,8.0,120.0,3.0,64.0
6415,53.0,21.0,90.0,2.0,64.0
6416,70.0,10.0,90.0,1.0,64.0
6417,55.0,105.0,90.0,3.0,64.0
6418,72.0,6.0,90.0,1.0,64.0
6419,57.0,39.0,90.0,3.0,64.0
6420,72.0,22.0,120.0,0.0,64.0
6421,65.0,27.0,330.0,2.0,64.0
6422,72.0,40.0,120.0,4.0,64.0
6423,53.0,8.0,90.0,3.0,64.0
6424,69.0,124.0,90.0,1.0,64.0
6425,58.0,87.0,120.0,3.0,64.0
6426,74.0,5.0,120.0,0.0,64.0
6427,74.0,5.0,120.0,4.0,64.0
6428,70.0,22.0,540.0,1.0,64.0
6429,72.0,5.0,120.0,0.0,64.0
6430,72.0,116.0,90.0,4.0,64.0
6431,63.0,5.0,90.0,2.0,64.0
6432,70.0,2.0,120.0,0.0,64.0
6433,70.0,64.0,120.0,4.0,64.0
6434,57.0,15.0,120.0,3.0,64.0
6435,62.0,10.0,90.0,2.0,64.0
6436,60.0,0.0,90.0,2.0,64.0
6437,72.0,25.0,90.0,0.0,64.0
6438,72.0,95.0,90.0,4.0,64.0
6439,58.0,3.0,120.0,2.0,64.0
6440,55.0,13.0,90.0,3.0,64.0
6441,74.0,88.0,120.0,0.0,64.0
6442,74.0,2.0,120.0,4.0,64.0
6443,69.0,120.0,90.0,1.0,64.0
6444,70.0,4.0,90.0,1.0,64.0
6445,67.0,5.0,90.0,0.0,64.0
6446,62.0,6.0,90.0,2.0,64.0
6447,67.0,1.0,90.0,4.0,64.0
6448,58.0,77.0,90.0,3.0,64.0
6449,72.0,153.0,60.0,1.0,64.0
6450,70.0,98.0,120.0,1.0,64.0
6451,51.0,5.0,120.0,3.0,64.0
6452,55.0,2.0,120.0,2.0,64.0
6453,72.0,11.0,90.0,0.0,64.0
6454,72.0,11.0,90.0,4.0,64.0
6455,69.0,123.0,90.0,1.0,64.0
6456,67.0,10.0,120.0,1.0,64.0
6457,70.0,24.0,360.0,0.0,64.0
6458,58.0,11.0,90.0,2.0,64.0
6459,50.0,81.0,120.0,3.0,64.0
6460,70.0,35.0,390.0,4.0,64.0
6461,70.0,147.0,90.0,1.0,64.0
6462,69.0,6.0,120.0,1.0,64.0
6463,48.0,11.0,120.0,3.0,64.0
6464,63.0,17.0,90.0,2.0,64.0
6465,67.0,138.0,90.0,1.0,64.0
6466,57.0,10.0,90.0,2.0,64.0
6467,66.0,54.0,120.0,1.0,64.0
6468,50.0,7.0,90.0,3.0,64.0
6469,69.0,31.0,150.0,0.0,64.0
6470,69.0,13.0,180.0,4.0,64.0
6471,69.0,140.0,90.0,1.0,64.0
6472,67.0,7.0,120.0,1.0,64.0
6473,55.0,1.0,90.0,3.0,64.0
6474,50.0,34.0,90.0,2.0,64.0
6475,70.0,4.0,120.0,0.0,64.0
6476,70.0,90.0,120.0,4.0,64.0
6477,57.0,5.0,120.0,2.0,64.0
6478,72.0,8.0,120.0,0.0,64.0
6479,72.0,85.0,120.0,4.0,64.0
6480,43.0,75.0,120.0,3.0,64.0
6481,62.0,11.0,90.0,1.0,64.0
6482,58.0,1.0,120.0,2.0,64.0
6483,70.0,13.0,120.0,0.0,64.0
6484,70.0,2.0,120.0,4.0,64.0
6485,69.0,20.0,90.0,0.0,64.0
6486,60.0,18.0,60.0,2.0,64.0
6487,69.0,92.0,120.0,4.0,64.0
6488,67.0,15.0,120.0,0.0,64.0
6489,67.0,85.0,630.0,1.0,64.0
6490,62.0,4.0,90.0,2.0,64.0
6491,46.0,8.0,90.0,3.0,64.0
6492,67.0,80.0,120.0,4.0,64.0
6493,69.0,0.0,90.0,0.0,64.0
6494,63.0,31.0,90.0,2.0,64.0
6495,69.0,91.0,120.0,4.0,64.0
6496,70.0,31.0,120.0,0.0,64.0
6497,62.0,14.0,90.0,2.0,64.0
6498,70.0,57.0,120.0,4.0,64.0
6499,50.0,1.0,90.0,3.0,64.0
6500,72.0,5.0,90.0,0.0,64.0
6501,60.0,5.0,90.0,2.0,64.0
6502,72.0,138.0,60.0,4.0,64.0
6503,74.0,9.0,120.0,0.0,64.0
6504,53.0,26.0,90.0,3.0,64.0
6505,74.0,1.0,120.0,4.0,64.0
6506,59.0,11.0,120.0,2.0,64.0
6507,75.0,18.0,120.0,0.0,64.0
6508,75.0,86.0,120.0,4.0,64.0
6509,74.0,7.0,120.0,0.0,64.0
6510,59.0,8.0,120.0,1.0,64.0
6511,74.0,107.0,120.0,4.0,64.0
6512,43.0,8.0,120.0,3.0,64.0
6513,62.0,1.0,90.0,2.0,64.0
6514,72.0,89.0,120.0,0.0,64.0
6515,72.0,4.0,120.0,4.0,64.0
6516,71.0,7.0,120.0,0.0,64.0
6517,71.0,95.0,120.0,4.0,64.0
6518,62.0,41.0,90.0,1.0,64.0
6519,67.0,5.0,90.0,2.0,64.0
6520,53.0,70.0,630.0,3.0,64.0
6521,72.0,4.0,120.0,0.0,64.0
6522,72.0,108.0,120.0,4.0,64.0
6523,74.0,73.0,120.0,0.0,64.0
6524,74.0,4.0,120.0,4.0,64.0
6525,67.0,33.0,360.0,1.0,64.0
6526,62.0,12.0,90.0,2.0,64.0
6527,71.0,164.0,90.0,0.0,64.0
6528,71.0,0.0,90.0,4.0,64.0
6529,72.0,13.0,120.0,0.0,64.0
6530,72.0,9.0,120.0,4.0,64.0
6531,55.0,5.0,150.0,2.0,64.0
6532,74.0,25.0,150.0,0.0,64.0
6533,74.0,63.0,150.0,4.0,64.0
6534,72.0,2.0,120.0,0.0,64.0
6535,69.0,6.0,90.0,1.0,64.0
6536,72.0,0.0,90.0,4.0,64.0
6537,51.0,22.0,90.0,3.0,64.0
6538,60.0,80.0,120.0,2.0,64.0
6539,70.0,12.0,120.0,0.0,64.0
6540,70.0,90.0,120.0,4.0,64.0
6541,70.0,13.0,90.0,1.0,64.0
6542,50.0,3.0,90.0,3.0,64.0
6543,62.0,3.0,90.0,2.0,64.0
6544,69.0,6.0,120.0,0.0,64.0
6545,69.0,2.0,120.0,4.0,64.0
6546,72.0,12.0,90.0,1.0,64.0
6547,48.0,110.0,120.0,3.0,64.0
6548,63.0,7.0,90.0,2.0,64.0
6549,70.0,7.0,120.0,0.0,64.0
6550,70.0,88.0,120.0,4.0,64.0
6551,65.0,3.0,120.0,2.0,64.0
6552,72.0,15.0,120.0,0.0,64.0
6553,72.0,65.0,120.0,4.0,64.0
6554,63.0,26.0,90.0,2.0,64.0
6555,46.0,2.0,120.0,3.0,64.0
6556,67.0,4.0,90.0,1.0,64.0
6557,74.0,14.0,90.0,0.0,64.0
6558,62.0,5.0,90.0,2.0,64.0
6559,74.0,119.0,90.0,4.0,64.0
6560,75.0,23.0,120.0,0.0,64.0
6561,60.0,53.0,420.0,2.0,64.0
6562,75.0,90.0,120.0,4.0,64.0
6563,45.0,6.0,120.0,3.0,64.0
6564,72.0,18.0,90.0,1.0,64.0
6565,77.0,20.0,120.0,0.0,64.0
6566,77.0,80.0,120.0,4.0,64.0
6567,75.0,10.0,90.0,0.0,64.0
6568,43.0,22.0,90.0,3.0,64.0
6569,70.0,10.0,90.0,1.0,64.0
6570,75.0,31.0,120.0,4.0,64.0
6571,74.0,11.0,90.0,0.0,64.0
6572,74.0,108.0,90.0,4.0,64.0
6573,72.0,84.0,150.0,0.0,64.0
6574,72.0,41.0,90.0,1.0,64.0
6575,72.0,4.0,150.0,4.0,64.0
6576,45.0,11.0,120.0,3.0,64.0
6577,65.0,40.0,660.0,2.0,64.0
6578,74.0,14.0,120.0,4.0,64.0
6579,74.0,85.0,120.0,0.0,64.0
6580,75.0,5.0,120.0,4.0,64.0
6581,69.0,25.0,90.0,1.0,64.0
6582,41.0,6.0,120.0,3.0,64.0
6583,75.0,75.0,120.0,0.0,64.0
6584,72.0,119.0,90.0,4.0,64.0
6585,72.0,20.0,60.0,0.0,64.0
6586,74.0,39.0,150.0,0.0,64.0
6587,46.0,17.0,120.0,3.0,64.0
6588,70.0,21.0,90.0,1.0,64.0
6589,74.0,3.0,120.0,4.0,64.0
6590,75.0,20.0,90.0,0.0,64.0
6591,75.0,95.0,120.0,4.0,64.0
6592,74.0,17.0,120.0,0.0,64.0
6593,74.0,5.0,120.0,4.0,64.0
6594,63.0,11.0,120.0,2.0,64.0
6595,69.0,12.0,90.0,1.0,64.0
6596,48.0,80.0,120.0,3.0,64.0
6597,72.0,26.0,120.0,0.0,64.0
6598,72.0,92.0,120.0,4.0,64.0
6599,70.0,20.0,120.0,0.0,64.0
6600,65.0,13.0,90.0,2.0,64.0
6601,70.0,10.0,90.0,1.0,64.0
6602,70.0,89.0,120.0,4.0,64.0
6603,50.0,11.0,120.0,3.0,64.0
6604,72.0,26.0,120.0,0.0,64.0
6605,72.0,64.0,120.0,4.0,64.0
6606,74.0,6.0,90.0,0.0,64.0
6607,68.0,7.0,90.0,2.0,64.0
6608,48.0,1.0,90.0,3.0,64.0
6609,65.0,11.0,90.0,1.0,64.0
6610,74.0,86.0,90.0,4.0,64.0
6611,75.0,16.0,90.0,0.0,64.0
6612,75.0,136.0,90.0,4.0,64.0
6613,77.0,7.0,120.0,4.0,64.0
6614,77.0,3.0,150.0,0.0,64.0
6615,47.0,96.0,120.0,3.0,64.0
6616,67.0,0.0,90.0,2.0,64.0
6617,62.0,14.0,90.0,1.0,64.0
6618,79.0,86.0,120.0,0.0,64.0
6619,79.0,12.0,120.0,4.0,64.0
6620,45.0,11.0,120.0,3.0,64.0
6621,77.0,104.0,120.0,4.0,64.0
6622,77.0,2.0,120.0,0.0,64.0
6623,72.0,22.0,90.0,1.0,64.0
6624,60.0,0.0,90.0,2.0,64.0
6625,75.0,99.0,120.0,0.0,64.0
6626,75.0,16.0,90.0,4.0,64.0
6627,47.0,4.0,120.0,3.0,64.0
6628,74.0,100.0,120.0,4.0,64.0
6629,74.0,2.0,120.0,0.0,64.0
6630,74.0,16.0,90.0,1.0,64.0
6631,67.0,4.0,570.0,2.0,64.0
6632,75.0,5.0,120.0,4.0,64.0
6633,75.0,105.0,120.0,0.0,64.0
6634,77.0,15.0,120.0,0.0,64.0
6635,71.0,19.0,90.0,1.0,64.0
6636,43.0,4.0,120.0,3.0,64.0
6637,77.0,51.0,120.0,4.0,64.0
6638,74.0,23.0,90.0,0.0,64.0
6639,74.0,141.0,90.0,4.0,64.0
6640,75.0,18.0,150.0,0.0,64.0
6641,75.0,111.0,150.0,4.0,64.0
6642,72.0,1.0,90.0,1.0,64.0
6643,48.0,17.0,90.0,3.0,64.0
6644,77.0,17.0,150.0,0.0,64.0
6645,77.0,62.0,150.0,4.0,64.0
6646,60.0,7.0,90.0,2.0,64.0
6647,67.0,21.0,90.0,1.0,64.0
6648,75.0,54.0,120.0,4.0,64.0
6649,75.0,7.0,120.0,0.0,64.0
6650,36.0,8.0,120.0,3.0,64.0
6651,62.0,52.0,90.0,2.0,64.0
6652,74.0,11.0,120.0,0.0,64.0
6653,74.0,86.0,120.0,4.0,64.0
6654,63.0,22.0,120.0,2.0,64.0
6655,72.0,66.0,120.0,0.0,64.0
6656,69.0,0.0,90.0,1.0,64.0
6657,72.0,2.0,120.0,4.0,64.0
6658,48.0,188.0,480.0,3.0,64.0
6659,62.0,28.0,90.0,2.0,64.0
6660,70.0,44.0,120.0,0.0,64.0
6661,70.0,64.0,150.0,4.0,64.0
6662,69.0,6.0,120.0,0.0,64.0
6663,69.0,47.0,120.0,4.0,64.0
6664,66.0,18.0,90.0,1.0,64.0
6665,63.0,11.0,90.0,2.0,64.0
6666,67.0,105.0,60.0,0.0,64.0
6667,67.0,4.0,60.0,4.0,64.0
6668,74.0,19.0,240.0,0.0,64.0
6669,67.0,0.0,270.0,1.0,64.0
6670,74.0,38.0,270.0,4.0,64.0
6671,62.0,5.0,240.0,2.0,64.0
6672,45.0,11.0,90.0,3.0,64.0
6673,46.0,103.0,90.0,3.0,64.0
6674,48.0,99.0,90.0,3.0,64.0
6675,66.0,5.0,60.0,1.0,64.0
6676,75.0,6.0,60.0,0.0,64.0
6677,60.0,3.0,60.0,2.0,64.0
6678,75.0,7.0,60.0,4.0,64.0
6679,50.0,8.0,120.0,3.0,64.0
6680,67.0,1.0,60.0,1.0,64.0
6681,70.0,10.0,60.0,0.0,64.0
6682,62.0,11.0,60.0,2.0,64.0
6683,70.0,26.0,60.0,4.0,64.0
6684,66.0,8.0,60.0,1.0,64.0
6685,69.0,11.0,240.0,0.0,64.0
6686,60.0,29.0,60.0,2.0,64.0
6687,69.0,22.0,60.0,4.0,64.0
6688,70.0,15.0,90.0,0.0,64.0
6689,67.0,2.0,90.0,1.0,64.0
6690,62.0,7.0,60.0,2.0,64.0
6691,70.0,66.0,60.0,4.0,64.0
6692,60.0,11.0,90.0,2.0,64.0
6693,66.0,17.0,120.0,1.0,64.0
6694,69.0,58.0,120.0,4.0,64.0
6695,38.0,60.0,120.0,3.0,64.0
6696,62.0,12.0,60.0,1.0,64.0
6697,67.0,157.0,90.0,4.0,64.0
6698,58.0,0.0,60.0,2.0,64.0
6699,67.0,2.0,60.0,0.0,64.0
6700,62.0,8.0,510.0,1.0,64.0
6701,43.0,59.0,510.0,3.0,64.0
6702,58.0,4.0,510.0,2.0,64.0
6703,67.0,124.0,90.0,4.0,64.0
6704,67.0,30.0,450.0,0.0,64.0
6705,69.0,116.0,90.0,4.0,64.0
6706,70.0,117.0,90.0,4.0,64.0
6707,72.0,18.0,90.0,4.0,64.0
6708,74.0,118.0,90.0,4.0,64.0
6709,75.0,77.0,90.0,4.0,64.0
6710,67.0,51.0,60.0,0.0,64.0
6711,77.0,86.0,90.0,4.0,64.0
6712,74.0,130.0,90.0,4.0,64.0
6713,75.0,121.0,120.0,4.0,64.0
6714,60.0,39.0,60.0,0.0,64.0
6715,70.0,71.0,120.0,4.0,64.0
6716,63.0,55.0,60.0,0.0,64.0
6717,69.0,105.0,120.0,4.0,64.0
6718,67.0,68.0,90.0,4.0,64.0
6719,65.0,40.0,60.0,0.0,64.0
6720,69.0,135.0,90.0,4.0,64.0
6721,75.0,86.0,120.0,4.0,64.0
6722,74.0,62.0,120.0,4.0,64.0
6723,69.0,47.0,90.0,0.0,64.0
6724,72.0,133.0,60.0,4.0,64.0
6725,58.0,44.0,90.0,0.0,64.0
6726,74.0,97.0,120.0,4.0,64.0
6727,72.0,93.0,120.0,4.0,64.0
6728,62.0,29.0,90.0,0.0,64.0
6729,70.0,146.0,90.0,4.0,64.0
6730,72.0,55.0,120.0,4.0,64.0
6731,67.0,43.0,60.0,0.0,64.0
6732,74.0,139.0,90.0,4.0,64.0
6733,79.0,69.0,120.0,4.0,64.0
6734,70.0,42.0,90.0,0.0,64.0
6735,78.0,100.0,120.0,4.0,64.0
6736,79.0,101.0,90.0,4.0,64.0
6737,60.0,33.0,90.0,0.0,64.0
6738,81.0,135.0,120.0,4.0,64.0
6739,79.0,65.0,120.0,4.0,64.0
6740,78.0,119.0,120.0,4.0,64.0
6741,69.0,45.0,60.0,0.0,64.0
6742,76.0,83.0,120.0,4.0,64.0
6743,62.0,32.0,90.0,0.0,64.0
6744,74.0,108.0,120.0,4.0,64.0
6745,72.0,95.0,120.0,4.0,64.0
6746,70.0,98.0,120.0,4.0,64.0
6747,66.0,31.0,60.0,0.0,64.0
6748,69.0,95.0,90.0,4.0,64.0
6749,70.0,102.0,120.0,4.0,64.0
6750,67.0,64.0,60.0,0.0,64.0
6751,72.0,97.0,120.0,4.0,64.0
6752,62.0,29.0,90.0,0.0,64.0
6753,70.0,104.0,120.0,4.0,64.0
6754,69.0,115.0,90.0,4.0,64.0
6755,58.0,51.0,90.0,0.0,64.0
6756,67.0,91.0,150.0,4.0,64.0
6757,69.0,97.0,120.0,4.0,64.0
6758,55.0,22.0,210.0,1.0,64.0
6759,67.0,14.0,90.0,0.0,64.0
6760,55.0,56.0,150.0,2.0,64.0
6761,70.0,45.0,90.0,4.0,64.0
6762,67.0,107.0,90.0,4.0,64.0
6763,66.0,49.0,90.0,0.0,64.0
6764,62.0,14.0,3390.0,1.0,64.0
6765,69.0,88.0,120.0,4.0,64.0
6766,62.0,22.0,3360.0,2.0,64.0
6767,74.0,102.0,90.0,4.0,64.0
6768,72.0,89.0,120.0,4.0,64.0
6769,69.0,35.0,60.0,0.0,64.0
6770,74.0,133.0,90.0,4.0,64.0
6771,71.0,97.0,90.0,4.0,64.0
6772,62.0,15.0,90.0,0.0,64.0
6773,74.0,113.0,90.0,4.0,64.0
6774,70.0,99.0,120.0,4.0,64.0
6775,67.0,34.0,60.0,0.0,64.0
6776,74.0,126.0,90.0,4.0,64.0
6777,66.0,22.0,90.0,0.0,64.0
6778,69.0,105.0,90.0,4.0,64.0
6779,74.0,106.0,90.0,4.0,64.0
6780,69.0,37.0,90.0,0.0,64.0
6781,72.0,89.0,120.0,4.0,64.0
6782,74.0,117.0,90.0,4.0,64.0
6783,70.0,116.0,90.0,4.0,64.0
6784,62.0,13.0,90.0,0.0,64.0
6785,74.0,101.0,90.0,4.0,64.0
6786,69.0,101.0,120.0,4.0,64.0
6787,72.0,27.0,90.0,0.0,64.0
6788,74.0,120.0,90.0,4.0,64.0
6789,67.0,115.0,90.0,4.0,64.0
6790,70.0,5.0,90.0,0.0,64.0
6791,74.0,109.0,90.0,4.0,64.0
6792,70.0,133.0,90.0,4.0,64.0
6793,79.0,19.0,60.0,0.0,64.0
6794,74.0,108.0,120.0,4.0,64.0
6795,69.0,108.0,90.0,4.0,64.0
6796,78.0,5.0,90.0,0.0,64.0
6797,74.0,116.0,90.0,4.0,64.0
6798,67.0,73.0,150.0,4.0,64.0
6799,79.0,44.0,60.0,0.0,64.0
6800,74.0,130.0,120.0,4.0,64.0
6801,66.0,129.0,120.0,4.0,64.0
6802,81.0,7.0,60.0,0.0,64.0
6803,67.0,103.0,120.0,4.0,64.0
6804,66.0,122.0,90.0,4.0,64.0
6805,74.0,146.0,300.0,0.0,64.0
6806,64.0,46.0,120.0,4.0,64.0
6807,62.0,31.0,210.0,4.0,64.0
6808,72.0,66.0,120.0,0.0,64.0
6809,50.0,29.0,90.0,3.0,64.0
6810,62.0,7.0,60.0,2.0,64.0
6811,70.0,97.0,120.0,0.0,64.0
6812,66.0,11.0,90.0,1.0,64.0
6813,69.0,104.0,120.0,0.0,64.0
6814,70.0,24.0,60.0,0.0,64.0
6815,55.0,7.0,90.0,3.0,64.0
6816,67.0,186.0,90.0,1.0,64.0
6817,62.0,7.0,90.0,2.0,64.0
6818,67.0,269.0,60.0,0.0,64.0
6819,53.0,127.0,390.0,3.0,64.0
6820,70.0,2.0,600.0,4.0,64.0
6821,70.0,25.0,90.0,0.0,64.0
6822,62.0,20.0,90.0,2.0,64.0
6823,67.0,44.0,120.0,1.0,64.0
6824,62.0,55.0,60.0,0.0,64.0
6825,55.0,110.0,90.0,3.0,64.0
6826,53.0,85.0,90.0,3.0,64.0
6827,67.0,0.0,120.0,1.0,64.0
6828,60.0,20.0,90.0,2.0,64.0
6829,70.0,37.0,60.0,0.0,64.0
6830,52.0,107.0,120.0,3.0,64.0
6831,76.0,60.0,120.0,4.0,64.0
6832,64.0,57.0,60.0,0.0,64.0
6833,79.0,89.0,90.0,4.0,64.0
6834,48.0,57.0,300.0,3.0,64.0
6835,76.0,104.0,90.0,4.0,64.0
6836,70.0,20.0,60.0,0.0,64.0
6837,70.0,82.0,150.0,4.0,64.0
6838,76.0,81.0,120.0,4.0,64.0
6839,60.0,14.0,90.0,0.0,64.0
6840,79.0,59.0,120.0,4.0,64.0
6841,67.0,16.0,120.0,1.0,64.0
6842,60.0,13.0,60.0,2.0,64.0
6843,52.0,18.0,60.0,3.0,64.0
6844,76.0,115.0,90.0,4.0,64.0
6845,69.0,9.0,90.0,4.0,64.0
6846,69.0,31.0,60.0,0.0,64.0
6847,65.0,116.0,120.0,1.0,64.0
6848,60.0,5.0,90.0,2.0,64.0
6849,53.0,18.0,90.0,3.0,64.0
6850,70.0,45.0,150.0,4.0,64.0
6851,69.0,71.0,120.0,4.0,64.0
6852,65.0,42.0,60.0,0.0,64.0
6853,52.0,114.0,390.0,3.0,64.0
6854,67.0,148.0,90.0,4.0,64.0
6855,65.0,10.0,120.0,4.0,64.0
6856,65.0,6.0,120.0,1.0,64.0
6857,69.0,34.0,60.0,0.0,64.0
6858,60.0,32.0,90.0,2.0,64.0
6859,67.0,45.0,60.0,4.0,64.0
6860,69.0,61.0,270.0,4.0,64.0
6861,60.0,24.0,90.0,0.0,64.0
6862,53.0,100.0,90.0,3.0,64.0
6863,52.0,74.0,90.0,3.0,64.0
6864,50.0,4.0,120.0,3.0,64.0
6865,69.0,32.0,90.0,0.0,64.0
6866,65.0,93.0,120.0,1.0,64.0
6867,58.0,2.0,120.0,2.0,64.0
6868,74.0,80.0,90.0,4.0,64.0
6869,62.0,38.0,60.0,0.0,64.0
6870,77.0,101.0,120.0,4.0,64.0
6871,46.0,10.0,300.0,3.0,64.0
6872,74.0,106.0,90.0,4.0,64.0
6873,69.0,35.0,90.0,0.0,64.0
6874,69.0,115.0,120.0,4.0,64.0
6875,74.0,80.0,120.0,4.0,64.0
6876,58.0,8.0,90.0,0.0,64.0
6877,65.0,18.0,90.0,1.0,64.0
6878,58.0,7.0,90.0,2.0,64.0
6879,77.0,6.0,120.0,4.0,64.0
6880,50.0,65.0,90.0,3.0,64.0
6881,74.0,128.0,90.0,4.0,64.0
6882,67.0,110.0,120.0,4.0,64.0
6883,67.0,35.0,60.0,0.0,64.0
6884,58.0,1.0,90.0,2.0,64.0
6885,61.0,16.0,120.0,1.0,64.0
6886,52.0,8.0,90.0,3.0,64.0
6887,69.0,52.0,120.0,4.0,64.0
6888,67.0,113.0,120.0,4.0,64.0
6889,64.0,41.0,60.0,0.0,64.0
6890,50.0,11.0,390.0,3.0,64.0
6891,65.0,102.0,120.0,4.0,64.0
6892,64.0,21.0,90.0,4.0,64.0
6893,67.0,13.0,60.0,0.0,64.0
6894,58.0,17.0,90.0,2.0,64.0
6895,64.0,53.0,120.0,1.0,64.0
6896,65.0,129.0,90.0,4.0,64.0
6897,58.0,33.0,90.0,0.0,64.0
6898,67.0,36.0,300.0,4.0,64.0
6899,52.0,93.0,90.0,3.0,64.0
6900,50.0,108.0,90.0,3.0,64.0
6901,64.0,6.0,120.0,1.0,64.0
6902,67.0,6.0,60.0,0.0,64.0
6903,49.0,3.0,120.0,3.0,64.0
6904,57.0,124.0,120.0,2.0,64.0
6905,73.0,58.0,120.0,4.0,64.0
6906,61.0,84.0,60.0,0.0,64.0
6907,45.0,55.0,330.0,3.0,64.0
6908,76.0,77.0,120.0,4.0,64.0
6909,73.0,98.0,90.0,4.0,64.0
6910,67.0,4.0,90.0,0.0,64.0
6911,67.0,100.0,120.0,4.0,64.0
6912,73.0,67.0,120.0,4.0,64.0
6913,57.0,11.0,90.0,0.0,64.0
6914,64.0,48.0,120.0,1.0,64.0
6915,57.0,19.0,60.0,2.0,64.0
6916,49.0,31.0,90.0,3.0,64.0
6917,76.0,1.0,150.0,4.0,64.0
6918,45.0,51.0,90.0,3.0,64.0
6919,73.0,98.0,90.0,4.0,64.0
6920,50.0,35.0,90.0,3.0,64.0
6921,65.0,4.0,120.0,0.0,64.0
6922,65.0,3.0,90.0,4.0,64.0
6923,62.0,73.0,150.0,1.0,64.0
6924,57.0,39.0,90.0,2.0,64.0
6925,67.0,89.0,150.0,0.0,64.0
6926,64.0,1.0,120.0,4.0,64.0
6927,58.0,6.0,90.0,2.0,64.0
6928,64.0,9.0,120.0,1.0,64.0
6929,45.0,10.0,120.0,3.0,64.0
6930,65.0,9.0,120.0,0.0,64.0
6931,62.0,76.0,150.0,4.0,64.0
6932,57.0,9.0,120.0,2.0,64.0
6933,65.0,11.0,120.0,1.0,64.0
6934,64.0,2.0,120.0,0.0,64.0
6935,67.0,75.0,120.0,1.0,64.0
6936,55.0,2.0,90.0,2.0,64.0
6937,64.0,20.0,90.0,4.0,64.0
6938,62.0,60.0,60.0,0.0,64.0
6939,69.0,2.0,150.0,1.0,64.0
6940,65.0,7.0,120.0,4.0,64.0
6941,53.0,18.0,120.0,2.0,64.0
6942,38.0,77.0,150.0,3.0,64.0
6943,67.0,82.0,120.0,4.0,64.0
6944,65.0,26.0,60.0,0.0,64.0
6945,69.0,91.0,90.0,4.0,64.0
6946,65.0,142.0,90.0,4.0,64.0
6947,70.0,102.0,120.0,4.0,64.0
6948,55.0,26.0,90.0,0.0,64.0
6949,65.0,87.0,120.0,4.0,64.0
6950,58.0,48.0,60.0,0.0,64.0
6951,64.0,113.0,90.0,4.0,64.0
6952,62.0,84.0,120.0,4.0,64.0
6953,60.0,23.0,60.0,0.0,64.0
6954,64.0,132.0,90.0,4.0,64.0
6955,70.0,115.0,120.0,4.0,64.0
6956,69.0,65.0,120.0,4.0,64.0
6957,64.0,9.0,90.0,0.0,64.0
6958,67.0,155.0,90.0,4.0,64.0
6959,69.0,88.0,120.0,4.0,64.0
6960,53.0,33.0,90.0,0.0,64.0
6961,67.0,104.0,120.0,4.0,64.0
6962,65.0,164.0,90.0,4.0,64.0
6963,57.0,13.0,90.0,0.0,64.0
6964,67.0,71.0,150.0,4.0,64.0
6965,62.0,35.0,90.0,0.0,64.0
6966,69.0,113.0,120.0,4.0,64.0
6967,74.0,94.0,120.0,4.0,64.0
6968,73.0,95.0,120.0,4.0,64.0
6969,65.0,17.0,90.0,0.0,64.0
6970,74.0,137.0,90.0,4.0,64.0
6971,76.0,80.0,150.0,4.0,64.0
6972,55.0,49.0,90.0,0.0,64.0
6973,74.0,104.0,120.0,4.0,64.0
6974,73.0,119.0,120.0,4.0,64.0
6975,64.0,15.0,90.0,0.0,64.0
6976,71.0,98.0,120.0,4.0,64.0
6977,57.0,5.0,90.0,0.0,64.0
6978,69.0,141.0,90.0,4.0,64.0
6979,67.0,93.0,120.0,4.0,64.0
6980,65.0,83.0,120.0,4.0,64.0
6981,61.0,26.0,90.0,0.0,64.0
6982,64.0,155.0,90.0,4.0,64.0
6983,65.0,122.0,120.0,4.0,64.0
6984,62.0,40.0,540.0,0.0,64.0
6985,67.0,93.0,120.0,4.0,64.0
6986,65.0,102.0,120.0,4.0,64.0
6987,50.0,30.0,90.0,3.0,64.0
6988,64.0,93.0,120.0,4.0,64.0
6989,62.0,86.0,120.0,4.0,64.0
6990,41.0,5.0,90.0,3.0,64.0
6991,64.0,133.0,90.0,4.0,64.0
6992,65.0,55.0,150.0,4.0,64.0
6993,45.0,38.0,90.0,3.0,64.0
6994,67.0,170.0,60.0,4.0,64.0
6995,38.0,62.0,150.0,3.0,64.0
6996,69.0,20.0,120.0,4.0,64.0
6997,65.0,122.0,90.0,4.0,64.0
6998,62.0,11.0,90.0,2.0,64.0
6999,74.0,24.0,90.0,1.0,64.0
7000,70.0,94.0,120.0,4.0,64.0
7001,77.0,2.0,60.0,0.0,64.0
7002,65.0,108.0,90.0,4.0,64.0
7003,57.0,11.0,90.0,2.0,64.0
7004,72.0,0.0,90.0,1.0,64.0
7005,72.0,110.0,90.0,4.0,64.0
7006,75.0,7.0,60.0,0.0,64.0
7007,65.0,120.0,90.0,4.0,64.0
7008,74.0,0.0,90.0,4.0,64.0
7009,67.0,18.0,90.0,1.0,64.0
7010,74.0,4.0,90.0,0.0,64.0
7011,59.0,67.0,90.0,2.0,64.0
7012,65.0,156.0,60.0,4.0,64.0
7013,63.0,97.0,150.0,4.0,64.0
7014,67.0,20.0,90.0,1.0,64.0
7015,60.0,7.0,90.0,2.0,64.0
7016,72.0,11.0,90.0,0.0,64.0
7017,65.0,113.0,90.0,4.0,64.0
7018,63.0,110.0,120.0,4.0,64.0
7019,48.0,27.0,90.0,3.0,64.0
7020,62.0,131.0,120.0,4.0,64.0
7021,39.0,5.0,120.0,3.0,64.0
7022,60.0,101.0,120.0,4.0,64.0
7023,62.0,109.0,90.0,4.0,64.0
7024,43.0,33.0,90.0,3.0,64.0
7025,63.0,53.0,120.0,4.0,64.0
7026,65.0,169.0,60.0,4.0,64.0
7027,67.0,48.0,90.0,4.0,64.0
7028,36.0,58.0,150.0,3.0,64.0
7029,63.0,108.0,90.0,4.0,64.0
7030,72.0,16.0,90.0,1.0,64.0
7031,60.0,4.0,90.0,2.0,64.0
7032,75.0,5.0,90.0,0.0,64.0
7033,69.0,110.0,90.0,4.0,64.0
7034,63.0,102.0,120.0,4.0,64.0
7035,70.0,4.0,90.0,1.0,64.0
7036,70.0,113.0,120.0,4.0,64.0
7037,74.0,7.0,60.0,0.0,64.0
7038,55.0,22.0,90.0,2.0,64.0
7039,63.0,84.0,120.0,4.0,64.0
7040,72.0,99.0,90.0,4.0,64.0
7041,57.0,11.0,60.0,2.0,64.0
7042,65.0,1.0,60.0,1.0,64.0
7043,72.0,11.0,60.0,0.0,64.0
7044,63.0,151.0,90.0,4.0,64.0
7045,62.0,11.0,120.0,4.0,64.0
7046,58.0,22.0,120.0,2.0,64.0
7047,65.0,71.0,150.0,1.0,64.0
7048,70.0,9.0,90.0,0.0,64.0
7049,60.0,93.0,120.0,2.0,64.0
7050,63.0,15.0,120.0,4.0,64.0
7051,62.0,5.0,90.0,4.0,64.0
7052,62.0,85.0,90.0,2.0,64.0
7053,46.0,10.0,90.0,3.0,64.0
7054,48.0,20.0,90.0,3.0,64.0
7055,63.0,13.0,90.0,2.0,64.0
7056,60.0,106.0,120.0,4.0,64.0
7057,50.0,31.0,90.0,3.0,64.0
7058,65.0,5.0,120.0,2.0,64.0
7059,58.0,68.0,90.0,4.0,64.0
7060,48.0,9.0,90.0,3.0,64.0
7061,63.0,122.0,90.0,2.0,64.0
7062,65.0,5.0,120.0,2.0,64.0
7063,50.0,9.0,90.0,3.0,64.0
7064,70.0,27.0,390.0,1.0,64.0
7065,77.0,12.0,60.0,4.0,64.0
7066,77.0,76.0,60.0,0.0,64.0
7067,46.0,6.0,90.0,3.0,64.0
7068,62.0,155.0,90.0,2.0,64.0
7069,51.0,51.0,150.0,3.0,64.0
7070,63.0,0.0,120.0,2.0,64.0
7071,79.0,9.0,90.0,4.0,64.0
7072,79.0,13.0,90.0,0.0,64.0
7073,50.0,117.0,90.0,3.0,64.0
7074,51.0,5.0,120.0,3.0,64.0
7075,58.0,24.0,90.0,2.0,64.0
7076,77.0,66.0,390.0,4.0,64.0
7077,77.0,2.0,360.0,0.0,64.0
7078,67.0,82.0,90.0,1.0,64.0
7079,53.0,173.0,90.0,3.0,64.0
7080,51.0,22.0,120.0,3.0,64.0
7081,55.0,2.0,90.0,2.0,64.0
7082,72.0,13.0,570.0,1.0,64.0
7083,50.0,127.0,90.0,3.0,64.0
7084,48.0,17.0,120.0,3.0,64.0
7085,75.0,64.0,120.0,4.0,64.0
7086,75.0,13.0,120.0,0.0,64.0
7087,67.0,7.0,90.0,2.0,64.0
7088,51.0,140.0,90.0,3.0,64.0
7089,50.0,80.0,120.0,3.0,64.0
7090,77.0,11.0,120.0,4.0,64.0
7091,77.0,11.0,120.0,0.0,64.0
7092,65.0,42.0,510.0,2.0,64.0
7093,75.0,67.0,120.0,4.0,64.0
7094,48.0,26.0,90.0,3.0,64.0
7095,75.0,0.0,120.0,0.0,64.0
7096,74.0,2.0,90.0,4.0,64.0
7097,74.0,19.0,90.0,0.0,64.0
7098,46.0,83.0,120.0,3.0,64.0
7099,65.0,22.0,60.0,1.0,64.0
7100,75.0,7.0,90.0,4.0,64.0
7101,75.0,15.0,90.0,0.0,64.0
7102,48.0,71.0,90.0,3.0,64.0
7103,77.0,2.0,90.0,4.0,64.0
7104,77.0,31.0,90.0,0.0,64.0
7105,70.0,56.0,510.0,1.0,64.0
7106,50.0,127.0,120.0,3.0,64.0
7107,53.0,72.0,120.0,3.0,64.0
7108,70.0,10.0,90.0,4.0,64.0
7109,70.0,13.0,90.0,0.0,64.0
7110,51.0,96.0,120.0,3.0,64.0
7111,67.0,6.0,90.0,2.0,64.0
7112,50.0,0.0,120.0,3.0,64.0
7113,65.0,59.0,90.0,2.0,64.0
7114,75.0,8.0,90.0,4.0,64.0
7115,48.0,89.0,90.0,3.0,64.0
7116,63.0,4.0,90.0,2.0,64.0
7117,75.0,5.0,90.0,0.0,64.0
7118,69.0,78.0,120.0,1.0,64.0
7119,65.0,33.0,90.0,2.0,64.0
7120,70.0,6.0,90.0,1.0,64.0
7121,67.0,49.0,90.0,2.0,64.0
7122,74.0,22.0,390.0,4.0,64.0
7123,43.0,58.0,120.0,3.0,64.0
7124,74.0,11.0,390.0,0.0,64.0
7125,74.0,146.0,90.0,1.0,64.0
7126,72.0,4.0,120.0,1.0,64.0
7127,55.0,13.0,90.0,2.0,64.0
7128,39.0,51.0,90.0,3.0,64.0
7129,70.0,100.0,90.0,1.0,64.0
7130,69.0,11.0,90.0,1.0,64.0
7131,57.0,24.0,90.0,2.0,64.0
7132,41.0,37.0,90.0,3.0,64.0
7133,72.0,192.0,150.0,4.0,64.0
7134,39.0,20.0,40.0,3.0,64.0
7135,72.0,16.0,120.0,0.0,64.0
7136,72.0,3.0,60.0,1.0,64.0
7137,70.0,63.0,180.0,1.0,64.0
7138,46.0,14.0,120.0,3.0,64.0
7139,53.0,20.0,90.0,2.0,64.0
7140,74.0,12.0,120.0,4.0,64.0
7141,74.0,11.0,120.0,0.0,64.0
7142,45.0,2.0,120.0,3.0,64.0
7143,75.0,11.0,90.0,0.0,64.0
7144,75.0,80.0,120.0,4.0,64.0
7145,74.0,4.0,120.0,4.0,64.0
7146,46.0,67.0,120.0,3.0,64.0
7147,74.0,2.0,120.0,0.0,64.0
7148,58.0,29.0,60.0,2.0,64.0
7149,65.0,2.0,120.0,1.0,64.0
7150,48.0,27.0,90.0,3.0,64.0
7151,72.0,1.0,90.0,0.0,64.0
7152,63.0,106.0,120.0,1.0,64.0
7153,72.0,14.0,90.0,4.0,64.0
7154,62.0,20.0,120.0,1.0,64.0
7155,50.0,72.0,120.0,3.0,64.0
7156,70.0,23.0,390.0,4.0,64.0
7157,70.0,46.0,330.0,0.0,64.0
7158,65.0,5.0,90.0,2.0,64.0
7159,60.0,1.0,90.0,1.0,64.0
7160,51.0,121.0,90.0,3.0,64.0
7161,58.0,4.0,120.0,1.0,64.0
7162,53.0,14.0,90.0,3.0,64.0
7163,62.0,11.0,90.0,2.0,64.0
7164,57.0,26.0,90.0,1.0,64.0
7165,50.0,122.0,90.0,3.0,64.0
7166,58.0,33.0,120.0,1.0,64.0
7167,72.0,2.0,90.0,4.0,64.0
7168,55.0,9.0,90.0,3.0,64.0
7169,63.0,15.0,90.0,2.0,64.0
7170,72.0,7.0,90.0,0.0,64.0
7171,70.0,0.0,60.0,0.0,64.0
7172,70.0,54.0,60.0,4.0,64.0
7173,60.0,43.0,120.0,1.0,64.0
7174,72.0,2.0,60.0,0.0,64.0
7175,72.0,6.0,60.0,4.0,64.0
7176,70.0,6.0,60.0,0.0,64.0
7177,70.0,46.0,60.0,4.0,64.0
7178,62.0,3.0,120.0,1.0,64.0
7179,65.0,3.0,90.0,2.0,64.0
7180,53.0,18.0,420.0,3.0,64.0
7181,72.0,16.0,60.0,0.0,64.0
7182,72.0,15.0,60.0,4.0,64.0
7183,70.0,16.0,40.0,0.0,64.0
7184,70.0,40.0,40.0,4.0,64.0
7185,72.0,18.0,60.0,0.0,64.0
7186,58.0,2.0,60.0,1.0,64.0
7187,72.0,18.0,60.0,4.0,64.0
7188,70.0,16.0,40.0,0.0,64.0
7189,70.0,33.0,40.0,4.0,64.0
7190,72.0,26.0,40.0,0.0,64.0
7191,60.0,13.0,150.0,1.0,64.0
7192,72.0,18.0,60.0,4.0,64.0
7193,70.0,22.0,60.0,0.0,64.0
7194,55.0,8.0,90.0,2.0,64.0
7195,70.0,25.0,40.0,4.0,64.0
7196,72.0,14.0,60.0,0.0,64.0
7197,72.0,15.0,60.0,4.0,64.0
7198,62.0,28.0,120.0,1.0,64.0
7199,70.0,25.0,60.0,0.0,64.0
7200,70.0,15.0,40.0,4.0,64.0
7201,72.0,5.0,60.0,0.0,64.0
7202,72.0,36.0,60.0,4.0,64.0
7203,70.0,0.0,40.0,0.0,64.0
7204,63.0,14.0,90.0,1.0,64.0
7205,70.0,24.0,40.0,4.0,64.0
7206,67.0,4.0,90.0,2.0,64.0
7207,72.0,22.0,60.0,0.0,64.0
7208,51.0,13.0,120.0,3.0,64.0
7209,72.0,37.0,60.0,4.0,64.0
7210,70.0,0.0,60.0,0.0,64.0
7211,70.0,5.0,40.0,4.0,64.0
7212,60.0,11.0,90.0,1.0,64.0
7213,72.0,25.0,60.0,0.0,64.0
7214,70.0,9.0,40.0,0.0,64.0
7215,72.0,37.0,60.0,4.0,64.0
7216,70.0,7.0,40.0,4.0,64.0
7217,72.0,38.0,40.0,0.0,64.0
7218,62.0,6.0,150.0,1.0,64.0
7219,70.0,15.0,60.0,0.0,64.0
7220,72.0,35.0,60.0,4.0,64.0
7221,65.0,6.0,90.0,2.0,64.0
7222,53.0,14.0,120.0,3.0,64.0
7223,72.0,18.0,60.0,0.0,64.0
7224,70.0,3.0,40.0,4.0,64.0
7225,70.0,20.0,60.0,0.0,64.0
7226,72.0,33.0,60.0,4.0,64.0
7227,60.0,17.0,90.0,1.0,64.0
7228,51.0,9.0,90.0,3.0,64.0
7229,72.0,7.0,60.0,0.0,64.0
7230,70.0,9.0,40.0,4.0,64.0
7231,70.0,17.0,40.0,0.0,64.0
7232,72.0,36.0,60.0,4.0,64.0
7233,50.0,7.0,90.0,3.0,64.0
7234,72.0,26.0,60.0,0.0,64.0
7235,70.0,5.0,40.0,4.0,64.0
7236,58.0,18.0,90.0,1.0,64.0
7237,53.0,16.0,300.0,2.0,64.0
7238,70.0,4.0,60.0,0.0,64.0
7239,72.0,37.0,60.0,4.0,64.0
7240,72.0,33.0,60.0,0.0,64.0
7241,51.0,11.0,90.0,3.0,64.0
7242,70.0,3.0,40.0,4.0,64.0
7243,60.0,7.0,90.0,1.0,64.0
7244,70.0,4.0,60.0,0.0,64.0
7245,72.0,31.0,40.0,4.0,64.0
7246,72.0,42.0,60.0,0.0,64.0
7247,70.0,5.0,40.0,4.0,64.0
7248,70.0,15.0,60.0,0.0,64.0
7249,53.0,20.0,120.0,3.0,64.0
7250,62.0,5.0,120.0,1.0,64.0
7251,72.0,22.0,60.0,4.0,64.0
7252,72.0,15.0,60.0,0.0,64.0
7253,70.0,0.0,40.0,4.0,64.0
7254,70.0,24.0,60.0,0.0,64.0
7255,72.0,33.0,60.0,4.0,64.0
7256,63.0,31.0,90.0,1.0,64.0
7257,53.0,0.0,120.0,2.0,64.0
7258,72.0,9.0,60.0,0.0,64.0
7259,70.0,2.0,40.0,4.0,64.0
7260,70.0,16.0,60.0,0.0,64.0
7261,72.0,35.0,40.0,4.0,64.0
7262,65.0,7.0,90.0,1.0,64.0
7263,72.0,28.0,60.0,0.0,64.0
7264,46.0,4.0,90.0,3.0,64.0
7265,70.0,5.0,40.0,4.0,64.0
7266,55.0,29.0,90.0,2.0,64.0
7267,70.0,17.0,60.0,0.0,64.0
7268,72.0,8.0,40.0,4.0,64.0
7269,72.0,38.0,60.0,0.0,64.0
7270,70.0,6.0,40.0,4.0,64.0
7271,62.0,9.0,90.0,1.0,64.0
7272,56.0,31.0,90.0,2.0,64.0
7273,70.0,9.0,60.0,0.0,64.0
7274,72.0,8.0,60.0,4.0,64.0
7275,72.0,33.0,60.0,0.0,64.0
7276,70.0,5.0,40.0,4.0,64.0
7277,70.0,24.0,60.0,0.0,64.0
7278,67.0,5.0,90.0,1.0,64.0
7279,51.0,20.0,90.0,3.0,64.0
7280,55.0,17.0,120.0,2.0,64.0
7281,72.0,9.0,40.0,4.0,64.0
7282,72.0,16.0,40.0,0.0,64.0
7283,70.0,6.0,40.0,4.0,64.0
7284,70.0,31.0,60.0,0.0,64.0
7285,57.0,29.0,120.0,2.0,64.0
7286,72.0,27.0,60.0,4.0,64.0
7287,72.0,2.0,60.0,0.0,64.0
7288,70.0,36.0,40.0,4.0,64.0
7289,70.0,4.0,40.0,0.0,64.0
7290,72.0,29.0,60.0,4.0,64.0
7291,65.0,6.0,390.0,1.0,64.0
7292,50.0,29.0,360.0,3.0,64.0
7293,58.0,28.0,90.0,2.0,64.0
7294,72.0,4.0,60.0,0.0,64.0
7295,70.0,31.0,40.0,4.0,64.0
7296,70.0,9.0,40.0,0.0,64.0
7297,72.0,25.0,60.0,4.0,64.0
7298,72.0,7.0,40.0,0.0,64.0
7299,70.0,31.0,40.0,4.0,64.0
7300,60.0,36.0,90.0,2.0,64.0
7301,70.0,20.0,60.0,0.0,64.0
7302,72.0,8.0,40.0,4.0,64.0
7303,72.0,2.0,60.0,0.0,64.0
7304,70.0,33.0,40.0,4.0,64.0
7305,62.0,29.0,90.0,2.0,64.0
7306,70.0,16.0,40.0,0.0,64.0
7307,72.0,11.0,40.0,4.0,64.0
7308,72.0,6.0,60.0,0.0,64.0
7309,70.0,15.0,40.0,4.0,64.0
7310,70.0,3.0,60.0,0.0,64.0
7311,63.0,14.0,120.0,2.0,64.0
7312,72.0,36.0,60.0,4.0,64.0
7313,70.0,8.0,40.0,4.0,64.0
7314,72.0,31.0,60.0,0.0,64.0
7315,72.0,2.0,60.0,4.0,64.0
7316,70.0,42.0,40.0,0.0,64.0
7317,65.0,18.0,90.0,2.0,64.0
7318,48.0,7.0,90.0,3.0,64.0
7319,63.0,29.0,120.0,1.0,64.0
7320,70.0,15.0,40.0,4.0,64.0
7321,72.0,9.0,60.0,0.0,64.0
7322,72.0,18.0,40.0,4.0,64.0
7323,70.0,6.0,60.0,0.0,64.0
7324,67.0,17.0,90.0,2.0,64.0
7325,70.0,24.0,60.0,4.0,64.0
7326,72.0,11.0,60.0,0.0,64.0
7327,72.0,19.0,60.0,4.0,64.0
7328,70.0,73.0,60.0,0.0,64.0
7329,70.0,11.0,240.0,4.0,64.0
7330,72.0,21.0,90.0,0.0,64.0
7331,65.0,38.0,90.0,2.0,64.0
7332,50.0,56.0,120.0,3.0,64.0
7333,65.0,18.0,120.0,1.0,64.0
7334,70.0,7.0,180.0,0.0,64.0
7335,67.0,0.0,90.0,1.0,64.0
7336,51.0,110.0,120.0,3.0,64.0
7337,65.0,7.0,90.0,1.0,64.0
7338,53.0,28.0,90.0,2.0,64.0
7339,50.0,33.0,120.0,3.0,64.0
7340,58.0,11.0,120.0,0.0,64.0
7341,58.0,29.0,120.0,4.0,64.0
7342,63.0,3.0,90.0,1.0,64.0
7343,48.0,28.0,90.0,3.0,64.0
7344,60.0,64.0,150.0,4.0,64.0
7345,60.0,43.0,90.0,0.0,64.0
7346,62.0,26.0,90.0,1.0,64.0
7347,62.0,14.0,120.0,0.0,64.0
7348,62.0,1.0,90.0,4.0,64.0
7349,46.0,88.0,120.0,3.0,64.0
7350,53.0,3.0,90.0,2.0,64.0
7351,63.0,19.0,120.0,0.0,64.0
7352,48.0,1.0,90.0,3.0,64.0
7353,63.0,82.0,90.0,4.0,64.0
7354,58.0,20.0,90.0,1.0,64.0
7355,65.0,7.0,90.0,0.0,64.0
7356,50.0,0.0,90.0,3.0,64.0
7357,65.0,46.0,120.0,4.0,64.0
7358,53.0,17.0,90.0,2.0,64.0
7359,67.0,21.0,90.0,0.0,64.0
7360,46.0,4.0,90.0,3.0,64.0
7361,67.0,133.0,90.0,4.0,64.0
7362,68.0,20.0,150.0,0.0,64.0
7363,48.0,24.0,90.0,3.0,64.0
7364,63.0,0.0,90.0,1.0,64.0
7365,60.0,5.0,90.0,2.0,64.0
7366,68.0,62.0,120.0,4.0,64.0
7367,70.0,38.0,90.0,0.0,64.0
7368,70.0,77.0,120.0,4.0,64.0
7369,68.0,22.0,120.0,0.0,64.0
7370,60.0,18.0,90.0,1.0,64.0
7371,56.0,0.0,90.0,2.0,64.0
7372,53.0,2.0,90.0,3.0,64.0
7373,68.0,77.0,120.0,4.0,64.0
7374,67.0,36.0,90.0,0.0,64.0
7375,67.0,88.0,120.0,4.0,64.0
7376,65.0,2.0,120.0,0.0,64.0
7377,65.0,0.0,90.0,1.0,64.0
7378,50.0,9.0,90.0,3.0,64.0
7379,65.0,93.0,90.0,4.0,64.0
7380,58.0,20.0,60.0,2.0,64.0
7381,70.0,38.0,120.0,0.0,64.0
7382,70.0,78.0,120.0,4.0,64.0
7383,68.0,5.0,150.0,0.0,64.0
7384,62.0,42.0,90.0,1.0,64.0
7385,46.0,4.0,90.0,3.0,64.0
7386,58.0,2.0,90.0,2.0,64.0
7387,68.0,42.0,120.0,4.0,64.0
7388,70.0,35.0,90.0,0.0,64.0
7389,70.0,111.0,90.0,4.0,64.0
7390,67.0,99.0,120.0,0.0,64.0
7391,51.0,59.0,510.0,3.0,64.0
7392,63.0,17.0,90.0,1.0,64.0
7393,67.0,7.0,90.0,4.0,64.0
7394,58.0,7.0,90.0,2.0,64.0
7395,68.0,20.0,120.0,0.0,64.0
7396,68.0,89.0,120.0,4.0,64.0
7397,67.0,9.0,120.0,0.0,64.0
7398,58.0,6.0,90.0,1.0,64.0
7399,67.0,79.0,120.0,4.0,64.0
7400,63.0,16.0,90.0,2.0,64.0
7401,65.0,3.0,90.0,0.0,64.0
7402,65.0,68.0,90.0,4.0,64.0
7403,63.0,5.0,120.0,0.0,64.0
7404,67.0,10.0,90.0,1.0,64.0
7405,63.0,80.0,120.0,4.0,64.0
7406,58.0,21.0,90.0,2.0,64.0
7407,65.0,16.0,90.0,0.0,64.0
7408,65.0,51.0,150.0,4.0,64.0
7409,50.0,33.0,90.0,3.0,64.0
7410,51.0,11.0,90.0,3.0,64.0
7411,67.0,9.0,120.0,0.0,64.0
7412,67.0,42.0,150.0,4.0,64.0
7413,60.0,18.0,60.0,1.0,64.0
7414,55.0,42.0,90.0,2.0,64.0
7415,48.0,6.0,90.0,3.0,64.0
7416,69.0,9.0,60.0,0.0,64.0
7417,69.0,126.0,60.0,4.0,64.0
7418,50.0,7.0,120.0,3.0,64.0
7419,70.0,28.0,120.0,0.0,64.0
7420,65.0,15.0,60.0,1.0,64.0
7421,62.0,14.0,90.0,2.0,64.0
7422,70.0,71.0,120.0,4.0,64.0
7423,72.0,25.0,90.0,0.0,64.0
7424,72.0,91.0,90.0,4.0,64.0
7425,55.0,6.0,90.0,3.0,64.0
7426,70.0,31.0,90.0,0.0,64.0
7427,62.0,2.0,90.0,1.0,64.0
7428,58.0,3.0,90.0,2.0,64.0
7429,70.0,84.0,120.0,4.0,64.0
7430,69.0,29.0,120.0,0.0,64.0
7431,69.0,84.0,120.0,4.0,64.0
7432,67.0,7.0,120.0,0.0,64.0
7433,52.0,13.0,90.0,3.0,64.0
7434,60.0,5.0,90.0,2.0,64.0
7435,67.0,8.0,90.0,1.0,64.0
7436,67.0,99.0,120.0,4.0,64.0
7437,72.0,24.0,120.0,0.0,64.0
7438,72.0,85.0,120.0,4.0,64.0
7439,70.0,13.0,120.0,0.0,64.0
7440,64.0,11.0,90.0,1.0,64.0
7441,70.0,78.0,120.0,4.0,64.0
7442,48.0,4.0,90.0,3.0,64.0
7443,60.0,11.0,90.0,2.0,64.0
7444,72.0,104.0,90.0,0.0,64.0
7445,72.0,4.0,90.0,4.0,64.0
7446,69.0,0.0,120.0,0.0,64.0
7447,65.0,36.0,60.0,1.0,64.0
7448,69.0,68.0,120.0,4.0,64.0
7449,53.0,23.0,540.0,3.0,64.0
7450,60.0,24.0,90.0,2.0,64.0
7451,67.0,43.0,90.0,0.0,64.0
7452,67.0,82.0,120.0,4.0,64.0
7453,65.0,8.0,120.0,0.0,64.0
7454,60.0,18.0,90.0,1.0,64.0
7455,57.0,23.0,90.0,2.0,64.0
7456,65.0,102.0,120.0,4.0,64.0
7457,67.0,16.0,120.0,0.0,64.0
7458,67.0,51.0,120.0,4.0,64.0
7459,69.0,7.0,120.0,0.0,64.0
7460,72.0,20.0,90.0,1.0,64.0
7461,65.0,4.0,90.0,2.0,64.0
7462,69.0,91.0,90.0,4.0,64.0
7463,70.0,2.0,90.0,0.0,64.0
7464,70.0,100.0,90.0,4.0,64.0
7465,55.0,7.0,60.0,3.0,64.0
7466,72.0,12.0,90.0,0.0,64.0
7467,65.0,10.0,90.0,1.0,64.0
7468,57.0,3.0,90.0,3.0,64.0
7469,72.0,67.0,120.0,4.0,64.0
7470,60.0,16.0,90.0,2.0,64.0
7471,74.0,13.0,90.0,0.0,64.0
7472,53.0,122.0,90.0,3.0,64.0
7473,74.0,0.0,90.0,4.0,64.0
7474,75.0,20.0,120.0,0.0,64.0
7475,55.0,3.0,120.0,3.0,64.0
7476,70.0,11.0,90.0,1.0,64.0
7477,75.0,110.0,120.0,4.0,64.0
7478,67.0,6.0,90.0,2.0,64.0
7479,77.0,82.0,150.0,0.0,64.0
7480,77.0,7.0,120.0,4.0,64.0
7481,67.0,16.0,90.0,1.0,64.0
7482,75.0,6.0,120.0,0.0,64.0
7483,63.0,2.0,90.0,2.0,64.0
7484,60.0,11.0,90.0,3.0,64.0
7485,75.0,85.0,120.0,4.0,64.0
7486,74.0,15.0,90.0,0.0,64.0
7487,74.0,102.0,120.0,4.0,64.0
7488,72.0,4.0,90.0,0.0,64.0
7489,72.0,9.0,90.0,1.0,64.0
7490,65.0,23.0,90.0,2.0,64.0
7491,72.0,6.0,120.0,4.0,64.0
7492,57.0,95.0,120.0,3.0,64.0
7493,77.0,15.0,120.0,0.0,64.0
7494,77.0,94.0,120.0,4.0,64.0
7495,75.0,4.0,120.0,0.0,64.0
7496,69.0,17.0,90.0,1.0,64.0
7497,75.0,93.0,120.0,4.0,64.0
7498,53.0,0.0,90.0,3.0,64.0
7499,65.0,14.0,90.0,2.0,64.0
7500,77.0,107.0,120.0,0.0,64.0
7501,77.0,6.0,90.0,4.0,64.0
7502,70.0,7.0,90.0,1.0,64.0
7503,74.0,17.0,90.0,0.0,64.0
7504,74.0,0.0,120.0,4.0,64.0
7505,58.0,20.0,90.0,3.0,64.0
7506,65.0,95.0,120.0,2.0,64.0
7507,75.0,14.0,120.0,0.0,64.0
7508,67.0,93.0,120.0,2.0,64.0
7509,75.0,4.0,120.0,4.0,64.0
7510,74.0,47.0,120.0,0.0,64.0
7511,69.0,4.0,90.0,1.0,64.0
7512,65.0,1.0,90.0,2.0,64.0
7513,74.0,57.0,150.0,4.0,64.0
7514,53.0,0.0,90.0,3.0,64.0
7515,72.0,5.0,120.0,0.0,64.0
7516,63.0,111.0,90.0,2.0,64.0
7517,72.0,8.0,90.0,4.0,64.0
7518,70.0,5.0,120.0,0.0,64.0
7519,70.0,22.0,120.0,1.0,64.0
7520,62.0,10.0,90.0,2.0,64.0
7521,70.0,86.0,120.0,4.0,64.0
7522,55.0,98.0,240.0,3.0,64.0
7523,72.0,3.0,120.0,0.0,64.0
7524,69.0,9.0,120.0,1.0,64.0
7525,63.0,15.0,90.0,2.0,64.0
7526,72.0,4.0,120.0,4.0,64.0
7527,74.0,3.0,120.0,0.0,64.0
7528,70.0,16.0,120.0,1.0,64.0
7529,62.0,6.0,120.0,2.0,64.0
7530,74.0,48.0,150.0,4.0,64.0
7531,53.0,6.0,90.0,3.0,64.0
7532,72.0,12.0,90.0,1.0,64.0
7533,75.0,4.0,90.0,0.0,64.0
7534,75.0,101.0,120.0,4.0,64.0
7535,60.0,9.0,90.0,2.0,64.0
7536,51.0,9.0,90.0,3.0,64.0
7537,77.0,3.0,90.0,0.0,64.0
7538,74.0,6.0,90.0,1.0,64.0
7539,58.0,31.0,90.0,2.0,64.0
7540,77.0,11.0,90.0,4.0,64.0
7541,50.0,64.0,120.0,3.0,64.0
7542,57.0,27.0,90.0,2.0,64.0
7543,48.0,87.0,120.0,3.0,64.0
7544,50.0,3.0,120.0,3.0,64.0
7545,58.0,4.0,120.0,2.0,64.0
7546,70.0,24.0,90.0,4.0,64.0
7547,65.0,73.0,120.0,1.0,64.0
7548,70.0,8.0,60.0,0.0,64.0
7549,51.0,12.0,90.0,3.0,64.0
7550,60.0,103.0,90.0,2.0,64.0
7551,63.0,14.0,90.0,1.0,64.0
7552,53.0,6.0,90.0,3.0,64.0
7553,62.0,5.0,90.0,2.0,64.0
7554,65.0,19.0,90.0,0.0,64.0
7555,62.0,99.0,90.0,1.0,64.0
7556,65.0,3.0,90.0,4.0,64.0
7557,63.0,125.0,90.0,2.0,64.0
7558,65.0,5.0,90.0,2.0,64.0
7559,41.0,6.0,90.0,3.0,64.0
7560,69.0,11.0,90.0,0.0,64.0
7561,60.0,26.0,90.0,1.0,64.0
7562,69.0,355.0,120.0,4.0,64.0
7563,65.0,25.0,510.0,2.0,64.0
7564,70.0,113.0,240.0,0.0,64.0
7565,70.0,39.0,450.0,4.0,64.0
7566,34.0,67.0,510.0,3.0,64.0
7567,62.0,0.0,480.0,1.0,64.0
7568,58.0,104.0,90.0,0.0,64.0
7569,57.0,11.0,90.0,0.0,64.0
7570,58.0,108.0,90.0,0.0,64.0
7571,70.0,97.0,120.0,4.0,64.0
7572,69.0,89.0,120.0,4.0,64.0
7573,60.0,40.0,60.0,0.0,64.0
7574,67.0,115.0,90.0,4.0,64.0
7575,62.0,51.0,90.0,0.0,64.0
7576,65.0,97.0,120.0,4.0,64.0
7577,70.0,89.0,90.0,4.0,64.0
7578,65.0,55.0,90.0,0.0,64.0
7579,69.0,95.0,120.0,4.0,64.0
7580,70.0,100.0,120.0,4.0,64.0
7581,46.0,2.0,330.0,3.0,64.0
7582,58.0,22.0,90.0,0.0,64.0
7583,65.0,56.0,360.0,1.0,64.0
7584,74.0,128.0,90.0,4.0,64.0
7585,58.0,22.0,330.0,2.0,64.0
7586,70.0,82.0,120.0,4.0,64.0
7587,69.0,13.0,120.0,4.0,64.0
7588,65.0,14.0,90.0,0.0,64.0
7589,70.0,143.0,90.0,4.0,64.0
7590,57.0,31.0,90.0,0.0,64.0
7591,72.0,124.0,120.0,4.0,64.0
7592,65.0,18.0,540.0,1.0,64.0
7593,57.0,10.0,510.0,2.0,64.0
7594,41.0,9.0,510.0,3.0,64.0
7595,70.0,69.0,150.0,4.0,64.0
7596,69.0,117.0,120.0,4.0,64.0
7597,65.0,47.0,60.0,0.0,64.0
7598,67.0,51.0,120.0,4.0,64.0
7599,60.0,16.0,90.0,0.0,64.0
7600,65.0,152.0,90.0,4.0,64.0
7601,70.0,62.0,150.0,4.0,64.0
7602,69.0,99.0,120.0,4.0,64.0
7603,65.0,45.0,90.0,0.0,64.0
7604,67.0,98.0,90.0,4.0,64.0
7605,57.0,33.0,90.0,0.0,64.0
7606,65.0,135.0,90.0,4.0,64.0
7607,72.0,58.0,120.0,4.0,64.0
7608,65.0,50.0,60.0,0.0,64.0
7609,70.0,87.0,90.0,4.0,64.0
7610,72.0,130.0,90.0,4.0,64.0
7611,75.0,11.0,90.0,4.0,64.0
7612,53.0,104.0,90.0,0.0,64.0
7613,65.0,11.0,330.0,1.0,64.0
7614,60.0,1.0,360.0,2.0,64.0
7615,45.0,59.0,330.0,3.0,64.0
7616,72.0,125.0,120.0,4.0,64.0
7617,70.0,17.0,90.0,4.0,64.0
7618,63.0,2.0,90.0,0.0,64.0
7619,72.0,146.0,90.0,4.0,64.0
7620,74.0,125.0,120.0,4.0,64.0
7621,58.0,13.0,90.0,0.0,64.0
7622,46.0,9.0,510.0,3.0,64.0
7623,65.0,4.0,540.0,1.0,64.0
7624,58.0,9.0,510.0,2.0,64.0
7625,75.0,84.0,120.0,4.0,64.0
7626,74.0,125.0,120.0,4.0,64.0
7627,65.0,28.0,90.0,0.0,64.0
7628,72.0,55.0,120.0,4.0,64.0
7629,62.0,189.0,90.0,0.0,64.0
7630,70.0,15.0,60.0,4.0,64.0
7631,75.0,46.0,150.0,4.0,64.0
7632,65.0,51.0,60.0,0.0,64.0
7633,74.0,102.0,120.0,4.0,64.0
7634,72.0,104.0,120.0,4.0,64.0
7635,68.0,11.0,90.0,0.0,64.0
7636,70.0,135.0,90.0,4.0,64.0
7637,77.0,97.0,120.0,4.0,64.0
7638,75.0,97.0,120.0,4.0,64.0
7639,65.0,9.0,90.0,0.0,64.0
7640,77.0,131.0,90.0,4.0,64.0
7641,80.0,16.0,90.0,4.0,64.0
7642,62.0,135.0,120.0,0.0,64.0
7643,46.0,16.0,330.0,3.0,64.0
7644,65.0,48.0,360.0,2.0,64.0
7645,70.0,16.0,330.0,1.0,64.0
7646,77.0,71.0,150.0,4.0,64.0
7647,75.0,4.0,120.0,4.0,64.0
7648,70.0,26.0,60.0,0.0,64.0
7649,77.0,146.0,60.0,4.0,64.0
7650,63.0,16.0,90.0,0.0,64.0
7651,79.0,137.0,90.0,4.0,64.0
7652,63.0,17.0,540.0,2.0,64.0
7653,51.0,26.0,480.0,3.0,64.0
7654,70.0,27.0,510.0,1.0,64.0
7655,80.0,71.0,120.0,4.0,64.0
7656,79.0,88.0,120.0,4.0,64.0
7657,67.0,27.0,60.0,0.0,64.0
7658,77.0,58.0,90.0,4.0,64.0
7659,79.0,124.0,120.0,4.0,64.0
7660,72.0,43.0,60.0,0.0,64.0
7661,75.0,77.0,150.0,4.0,64.0
7662,63.0,27.0,90.0,0.0,64.0
7663,74.0,90.0,120.0,4.0,64.0
7664,72.0,140.0,90.0,4.0,64.0
7665,62.0,23.0,120.0,0.0,64.0
7666,77.0,114.0,120.0,4.0,64.0
7667,75.0,82.0,120.0,4.0,64.0
7668,71.0,24.0,90.0,0.0,64.0
7669,74.0,107.0,90.0,4.0,64.0
7670,77.0,99.0,90.0,4.0,64.0
7671,67.0,7.0,330.0,2.0,64.0
7672,72.0,71.0,60.0,0.0,64.0
7673,48.0,20.0,330.0,3.0,64.0
7674,72.0,78.0,360.0,1.0,64.0
7675,75.0,113.0,120.0,4.0,64.0
7676,74.0,64.0,120.0,4.0,64.0
7677,67.0,13.0,90.0,0.0,64.0
7678,72.0,4.0,120.0,4.0,64.0
7679,75.0,124.0,60.0,4.0,64.0
7680,74.0,57.0,510.0,1.0,64.0
7681,71.0,33.0,90.0,0.0,64.0
7682,74.0,46.0,120.0,4.0,64.0
7683,67.0,9.0,540.0,2.0,64.0
7684,55.0,76.0,120.0,3.0,64.0
7685,72.0,19.0,120.0,4.0,64.0
7686,56.0,54.0,120.0,3.0,64.0
7687,71.0,57.0,90.0,4.0,64.0
7688,74.0,13.0,60.0,0.0,64.0
7689,55.0,76.0,120.0,3.0,64.0
7690,69.0,24.0,120.0,4.0,64.0
7691,53.0,16.0,120.0,3.0,64.0
7692,67.0,18.0,90.0,4.0,64.0
7693,51.0,121.0,90.0,3.0,64.0
7694,79.0,0.0,60.0,0.0,64.0
7695,50.0,20.0,120.0,3.0,64.0
7696,65.0,89.0,120.0,2.0,64.0
7697,48.0,2.0,120.0,3.0,64.0
7698,63.0,4.0,90.0,2.0,64.0
7699,67.0,1.0,90.0,1.0,64.0
7700,79.0,2.0,90.0,4.0,64.0
7701,79.0,86.0,90.0,0.0,64.0
7702,47.0,146.0,90.0,3.0,64.0
7703,62.0,7.0,90.0,2.0,64.0
7704,48.0,76.0,150.0,3.0,64.0
7705,63.0,8.0,120.0,2.0,64.0
7706,72.0,2.0,1530.0,1.0,64.0
7707,80.0,19.0,90.0,0.0,64.0
7708,80.0,8.0,60.0,4.0,64.0
7709,50.0,111.0,120.0,3.0,64.0
7710,65.0,4.0,90.0,2.0,64.0
7711,51.0,6.0,90.0,3.0,64.0
7712,67.0,106.0,90.0,2.0,64.0
7713,79.0,26.0,360.0,0.0,64.0
7714,79.0,29.0,390.0,4.0,64.0
7715,48.0,151.0,120.0,3.0,64.0
7716,63.0,9.0,90.0,2.0,64.0
7717,50.0,6.0,120.0,3.0,64.0
7718,65.0,14.0,120.0,2.0,64.0
7719,51.0,117.0,120.0,3.0,64.0
7720,67.0,11.0,90.0,2.0,64.0
7721,53.0,38.0,120.0,3.0,64.0
7722,68.0,14.0,90.0,2.0,64.0
7723,77.0,18.0,120.0,4.0,64.0
7724,77.0,28.0,90.0,0.0,64.0
7725,65.0,8.0,90.0,2.0,64.0
7726,50.0,160.0,90.0,3.0,64.0
7727,51.0,8.0,570.0,3.0,64.0
7728,72.0,25.0,90.0,2.0,64.0
7729,79.0,82.0,120.0,4.0,64.0
7730,79.0,19.0,90.0,0.0,64.0
7731,77.0,14.0,90.0,4.0,64.0
7732,77.0,95.0,120.0,0.0,64.0
7733,67.0,31.0,90.0,2.0,64.0
7734,75.0,71.0,120.0,4.0,64.0
7735,75.0,6.0,90.0,0.0,64.0
7736,77.0,0.0,90.0,4.0,64.0
7737,77.0,118.0,90.0,0.0,64.0
7738,63.0,3.0,90.0,2.0,64.0
7739,79.0,9.0,90.0,0.0,64.0
7740,79.0,97.0,90.0,4.0,64.0
7741,50.0,118.0,90.0,3.0,64.0
7742,51.0,18.0,120.0,3.0,64.0
7743,72.0,11.0,90.0,0.0,64.0
7744,67.0,4.0,90.0,2.0,64.0
7745,72.0,6.0,90.0,4.0,64.0
7746,67.0,62.0,120.0,1.0,64.0
7747,69.0,115.0,120.0,1.0,64.0
7748,53.0,27.0,60.0,3.0,64.0
7749,71.0,9.0,90.0,1.0,64.0
7750,51.0,100.0,120.0,3.0,64.0
7751,65.0,10.0,120.0,2.0,64.0
7752,77.0,4.0,90.0,0.0,64.0
7753,77.0,14.0,90.0,4.0,64.0
7754,50.0,84.0,120.0,3.0,64.0
7755,48.0,20.0,90.0,3.0,64.0
7756,72.0,11.0,90.0,1.0,64.0
7757,67.0,80.0,90.0,2.0,64.0
7758,75.0,47.0,390.0,0.0,64.0
7759,75.0,24.0,360.0,4.0,64.0
7760,51.0,153.0,90.0,3.0,64.0
7761,50.0,4.0,120.0,3.0,64.0
7762,68.0,20.0,90.0,2.0,64.0
7763,65.0,7.0,90.0,1.0,64.0
7764,48.0,130.0,90.0,3.0,64.0
7765,47.0,6.0,120.0,3.0,64.0
7766,67.0,29.0,90.0,1.0,64.0
7767,62.0,31.0,120.0,2.0,64.0
7768,74.0,12.0,120.0,4.0,64.0
7769,74.0,29.0,150.0,0.0,64.0
7770,50.0,134.0,90.0,3.0,64.0
7771,48.0,69.0,90.0,3.0,64.0
7772,75.0,1.0,150.0,0.0,64.0
7773,67.0,68.0,120.0,2.0,64.0
7774,75.0,0.0,120.0,4.0,64.0
7775,60.0,2.0,180.0,1.0,64.0
7776,77.0,7.0,90.0,0.0,64.0
7777,68.0,17.0,90.0,2.0,64.0
7778,77.0,76.0,120.0,4.0,64.0
7779,43.0,19.0,90.0,3.0,64.0
7780,75.0,7.0,120.0,0.0,64.0
7781,75.0,18.0,120.0,4.0,64.0
7782,67.0,64.0,120.0,2.0,64.0
7783,72.0,4.0,90.0,1.0,64.0
7784,74.0,11.0,120.0,0.0,64.0
7785,65.0,12.0,90.0,2.0,64.0
7786,74.0,113.0,120.0,4.0,64.0
7787,71.0,6.0,90.0,1.0,64.0
7788,72.0,9.0,120.0,0.0,64.0
7789,67.0,73.0,120.0,2.0,64.0
7790,72.0,4.0,90.0,4.0,64.0
7791,39.0,5.0,90.0,3.0,64.0
7792,72.0,9.0,120.0,1.0,64.0
7793,74.0,4.0,120.0,4.0,64.0
7794,74.0,11.0,90.0,0.0,64.0
7795,65.0,91.0,90.0,2.0,64.0
7796,43.0,20.0,90.0,3.0,64.0
7797,75.0,70.0,120.0,4.0,64.0
7798,75.0,3.0,120.0,0.0,64.0
7799,63.0,20.0,90.0,2.0,64.0
7800,72.0,4.0,90.0,1.0,64.0
7801,62.0,10.0,90.0,2.0,64.0
7802,74.0,3.0,60.0,1.0,64.0
7803,77.0,16.0,90.0,0.0,64.0
7804,77.0,106.0,90.0,4.0,64.0
7805,79.0,4.0,120.0,0.0,64.0
7806,75.0,18.0,120.0,1.0,64.0
7807,60.0,22.0,90.0,2.0,64.0
7808,36.0,19.0,210.0,3.0,64.0
7809,79.0,72.0,120.0,4.0,64.0
7810,81.0,65.0,120.0,0.0,64.0
7811,81.0,35.0,150.0,4.0,64.0
7812,82.0,4.0,120.0,0.0,64.0
7813,65.0,20.0,90.0,2.0,64.0
7814,82.0,74.0,120.0,4.0,64.0
7815,38.0,11.0,90.0,3.0,64.0
7816,74.0,29.0,390.0,1.0,64.0
7817,79.0,11.0,90.0,0.0,64.0
7818,39.0,4.0,90.0,3.0,64.0
7819,79.0,120.0,90.0,4.0,64.0
7820,41.0,37.0,90.0,3.0,64.0
7821,81.0,11.0,120.0,0.0,64.0
7822,65.0,4.0,90.0,2.0,64.0
7823,81.0,36.0,120.0,4.0,64.0
7824,82.0,9.0,90.0,0.0,64.0
7825,43.0,20.0,90.0,3.0,64.0
7826,82.0,75.0,90.0,4.0,64.0
7827,45.0,20.0,90.0,3.0,64.0
7828,84.0,18.0,90.0,0.0,64.0
7829,65.0,4.0,90.0,2.0,64.0
7830,72.0,12.0,150.0,1.0,64.0
7831,84.0,52.0,90.0,4.0,64.0
7832,41.0,15.0,90.0,3.0,64.0
7833,81.0,25.0,90.0,0.0,64.0
7834,81.0,133.0,90.0,4.0,64.0
7835,65.0,20.0,210.0,2.0,64.0
7836,82.0,18.0,540.0,0.0,64.0
7837,46.0,9.0,120.0,3.0,64.0
7838,74.0,84.0,120.0,1.0,64.0
7839,82.0,15.0,540.0,4.0,64.0
7840,72.0,4.0,120.0,1.0,64.0
7841,48.0,89.0,120.0,3.0,64.0
7842,70.0,9.0,90.0,1.0,64.0
7843,50.0,50.0,90.0,3.0,64.0
7844,70.0,48.0,120.0,2.0,64.0
7845,48.0,13.0,120.0,3.0,64.0
7846,72.0,21.0,90.0,1.0,64.0
7847,69.0,84.0,120.0,2.0,64.0
7848,67.0,4.0,120.0,2.0,64.0
7849,46.0,100.0,120.0,3.0,64.0
7850,74.0,14.0,90.0,1.0,64.0
7851,65.0,26.0,120.0,2.0,64.0
7852,81.0,12.0,120.0,4.0,64.0
7853,81.0,33.0,120.0,0.0,64.0
7854,63.0,42.0,60.0,2.0,64.0
7855,51.0,11.0,90.0,3.0,64.0
7856,67.0,9.0,90.0,1.0,64.0
7857,82.0,60.0,120.0,4.0,64.0
7858,82.0,11.0,90.0,0.0,64.0
7859,62.0,26.0,90.0,2.0,64.0
7860,84.0,120.0,90.0,0.0,64.0
7861,84.0,4.0,60.0,4.0,64.0
7862,63.0,24.0,330.0,2.0,64.0
7863,48.0,27.0,210.0,3.0,64.0
7864,82.0,34.0,120.0,0.0,64.0
7865,72.0,33.0,90.0,1.0,64.0
7866,82.0,70.0,120.0,4.0,64.0
7867,81.0,0.0,90.0,0.0,64.0
7868,81.0,69.0,120.0,4.0,64.0
7869,79.0,2.0,120.0,0.0,64.0
7870,70.0,76.0,360.0,1.0,64.0
7871,79.0,104.0,90.0,4.0,64.0
7872,82.0,11.0,90.0,0.0,64.0
7873,82.0,142.0,90.0,4.0,64.0
7874,62.0,14.0,300.0,2.0,64.0
7875,50.0,17.0,210.0,3.0,64.0
7876,81.0,8.0,120.0,0.0,64.0
7877,81.0,7.0,120.0,4.0,64.0
7878,79.0,81.0,120.0,4.0,64.0
7879,79.0,0.0,90.0,0.0,64.0
7880,78.0,37.0,120.0,0.0,64.0
7881,78.0,32.0,90.0,4.0,64.0
7882,69.0,46.0,120.0,1.0,64.0
7883,81.0,125.0,90.0,0.0,64.0
7884,81.0,0.0,90.0,4.0,64.0
7885,79.0,69.0,90.0,0.0,64.0
7886,79.0,6.0,90.0,4.0,64.0
7887,43.0,55.0,240.0,3.0,64.0
7888,62.0,4.0,330.0,2.0,64.0
7889,70.0,90.0,120.0,1.0,64.0
7890,72.0,21.0,120.0,1.0,64.0
7891,74.0,0.0,90.0,0.0,64.0
7892,74.0,24.0,90.0,4.0,64.0
7893,70.0,114.0,90.0,1.0,64.0
7894,69.0,99.0,90.0,1.0,64.0
7895,67.0,97.0,120.0,1.0,64.0
7896,79.0,22.0,60.0,0.0,64.0
7897,79.0,20.0,90.0,4.0,64.0
7898,69.0,118.0,90.0,1.0,64.0
7899,70.0,7.0,120.0,1.0,64.0
7900,67.0,82.0,90.0,4.0,64.0
7901,67.0,6.0,90.0,0.0,64.0
7902,72.0,151.0,90.0,1.0,64.0
7903,74.0,80.0,150.0,1.0,64.0
7904,77.0,15.0,90.0,0.0,64.0
7905,77.0,24.0,90.0,4.0,64.0
7906,75.0,108.0,90.0,1.0,64.0
7907,74.0,104.0,120.0,1.0,64.0
7908,71.0,12.0,60.0,0.0,64.0
7909,71.0,8.0,90.0,4.0,64.0
7910,72.0,129.0,90.0,1.0,64.0
7911,71.0,117.0,120.0,1.0,64.0
7912,77.0,15.0,90.0,0.0,64.0
7913,77.0,18.0,90.0,4.0,64.0
7914,72.0,73.0,120.0,1.0,64.0
7915,67.0,0.0,60.0,4.0,64.0
7916,67.0,20.0,60.0,0.0,64.0
7917,67.0,36.0,90.0,2.0,64.0
7918,74.0,62.0,120.0,1.0,64.0
7919,71.0,155.0,90.0,1.0,64.0
7920,72.0,70.0,150.0,1.0,64.0
7921,75.0,2.0,120.0,0.0,64.0
7922,75.0,16.0,120.0,4.0,64.0
7923,68.0,20.0,90.0,2.0,64.0
7924,77.0,2.0,90.0,0.0,64.0
7925,77.0,11.0,90.0,4.0,64.0
7926,74.0,114.0,90.0,1.0,64.0
7927,79.0,3.0,120.0,0.0,64.0
7928,79.0,82.0,120.0,4.0,64.0
7929,75.0,10.0,90.0,1.0,64.0
7930,67.0,54.0,360.0,2.0,64.0
7931,75.0,4.0,90.0,0.0,64.0
7932,72.0,155.0,90.0,1.0,64.0
7933,75.0,4.0,90.0,4.0,64.0
7934,77.0,12.0,120.0,0.0,64.0
7935,77.0,4.0,150.0,4.0,64.0
7936,74.0,15.0,120.0,1.0,64.0
7937,79.0,13.0,90.0,0.0,64.0
7938,75.0,6.0,90.0,1.0,64.0
7939,79.0,93.0,120.0,4.0,64.0
7940,80.0,18.0,90.0,4.0,64.0
7941,77.0,7.0,90.0,1.0,64.0
7942,80.0,55.0,90.0,0.0,64.0
7943,65.0,2.0,150.0,2.0,64.0
7944,74.0,159.0,90.0,1.0,64.0
7945,77.0,13.0,60.0,0.0,64.0
7946,77.0,5.0,60.0,4.0,64.0
7947,75.0,22.0,570.0,1.0,64.0
7948,71.0,29.0,90.0,0.0,64.0
7949,71.0,3.0,90.0,4.0,64.0
7950,67.0,92.0,120.0,2.0,64.0
7951,65.0,104.0,90.0,2.0,64.0
7952,63.0,97.0,120.0,2.0,64.0
7953,67.0,0.0,90.0,0.0,64.0
7954,67.0,12.0,90.0,4.0,64.0
7955,65.0,115.0,90.0,2.0,64.0
7956,67.0,120.0,90.0,2.0,64.0
7957,72.0,35.0,510.0,0.0,64.0
7958,72.0,39.0,540.0,4.0,64.0
7959,74.0,113.0,90.0,1.0,64.0
7960,60.0,6.0,90.0,2.0,64.0
7961,75.0,87.0,90.0,1.0,64.0
7962,77.0,117.0,60.0,1.0,64.0
7963,75.0,76.0,120.0,1.0,64.0
7964,65.0,5.0,90.0,2.0,64.0
7965,74.0,9.0,90.0,1.0,64.0
7966,70.0,77.0,120.0,0.0,64.0
7967,70.0,11.0,90.0,4.0,64.0
7968,72.0,27.0,60.0,1.0,64.0
7969,68.0,82.0,90.0,0.0,64.0
7970,63.0,54.0,360.0,2.0,64.0
7971,68.0,0.0,90.0,4.0,64.0
7972,75.0,20.0,60.0,1.0,64.0
7973,67.0,2.0,90.0,0.0,64.0
7974,67.0,153.0,90.0,4.0,64.0
7975,74.0,16.0,120.0,1.0,64.0
7976,65.0,2.0,120.0,4.0,64.0
7977,65.0,1.0,120.0,0.0,64.0
7978,72.0,91.0,120.0,1.0,64.0
7979,67.0,13.0,90.0,4.0,64.0
7980,67.0,9.0,90.0,0.0,64.0
7981,71.0,79.0,90.0,1.0,64.0
7982,68.0,24.0,420.0,4.0,64.0
7983,62.0,51.0,120.0,2.0,64.0
7984,68.0,20.0,420.0,0.0,64.0
7985,74.0,160.0,90.0,1.0,64.0
7986,72.0,21.0,120.0,1.0,64.0
7987,63.0,38.0,120.0,2.0,64.0
7988,65.0,107.0,90.0,2.0,64.0
7989,63.0,19.0,120.0,2.0,64.0
7990,67.0,29.0,90.0,1.0,64.0
7991,67.0,3.0,120.0,4.0,64.0
7992,67.0,79.0,90.0,0.0,64.0
7993,62.0,22.0,90.0,2.0,64.0
7994,65.0,1.0,120.0,4.0,64.0
7995,65.0,123.0,120.0,0.0,64.0
7996,60.0,101.0,120.0,2.0,64.0
7997,63.0,3.0,120.0,4.0,64.0
7998,63.0,0.0,120.0,0.0,64.0
7999,72.0,60.0,630.0,1.0,64.0
8000,62.0,118.0,120.0,4.0,64.0
8001,62.0,3.0,120.0,0.0,64.0
8002,62.0,4.0,120.0,2.0,64.0
8003,60.0,5.0,120.0,0.0,64.0
8004,63.0,77.0,120.0,2.0,64.0
8005,60.0,2.0,120.0,4.0,64.0
8006,48.0,6.0,90.0,3.0,64.0
8007,59.0,9.0,90.0,0.0,64.0
8008,59.0,7.0,90.0,4.0,64.0
8009,65.0,130.0,90.0,2.0,64.0
8010,67.0,42.0,120.0,2.0,64.0
8011,60.0,9.0,90.0,0.0,64.0
8012,60.0,7.0,120.0,4.0,64.0
8013,51.0,2.0,90.0,3.0,64.0
8014,69.0,111.0,120.0,2.0,64.0
8015,70.0,4.0,90.0,2.0,64.0
8016,50.0,38.0,390.0,3.0,64.0
8017,67.0,0.0,90.0,0.0,64.0
8018,74.0,18.0,90.0,1.0,64.0
8019,67.0,88.0,90.0,4.0,64.0
8020,67.0,9.0,90.0,2.0,64.0
8021,70.0,124.0,90.0,1.0,64.0
8022,69.0,0.0,120.0,2.0,64.0
8023,66.0,30.0,90.0,0.0,64.0
8024,75.0,13.0,90.0,1.0,64.0
8025,66.0,19.0,120.0,4.0,64.0
8026,70.0,9.0,90.0,2.0,64.0
8027,67.0,22.0,90.0,0.0,64.0
8028,67.0,101.0,90.0,4.0,64.0
8029,72.0,60.0,90.0,2.0,64.0
8030,69.0,24.0,390.0,0.0,64.0
8031,66.0,46.0,390.0,1.0,64.0
8032,48.0,45.0,120.0,3.0,64.0
8033,69.0,1.0,390.0,4.0,64.0
8034,69.0,166.0,90.0,2.0,64.0
8035,70.0,20.0,600.0,2.0,64.0
8036,50.0,17.0,90.0,3.0,64.0
8037,48.0,124.0,90.0,3.0,64.0
8038,46.0,4.0,90.0,3.0,64.0
8039,62.0,3.0,90.0,0.0,64.0
8040,67.0,88.0,120.0,1.0,64.0
8041,62.0,22.0,90.0,4.0,64.0
8042,48.0,7.0,90.0,3.0,64.0
8043,69.0,133.0,90.0,1.0,64.0
8044,50.0,71.0,150.0,3.0,64.0
8045,70.0,20.0,120.0,1.0,64.0
8046,67.0,42.0,510.0,0.0,64.0
8047,67.0,20.0,510.0,4.0,64.0
8048,72.0,121.0,90.0,1.0,64.0
8049,69.0,0.0,90.0,2.0,64.0
8050,43.0,75.0,120.0,3.0,64.0
8051,70.0,14.0,90.0,2.0,64.0
8052,74.0,2.0,90.0,1.0,64.0
8053,72.0,78.0,60.0,2.0,64.0
8054,63.0,2.0,90.0,1.0,64.0
8055,48.0,42.0,90.0,3.0,64.0
8056,70.0,82.0,120.0,2.0,64.0
8057,69.0,108.0,90.0,2.0,64.0
8058,62.0,40.0,390.0,1.0,64.0
8059,46.0,0.0,360.0,3.0,64.0
8060,67.0,24.0,90.0,2.0,64.0
8061,79.0,7.0,90.0,0.0,64.0
8062,79.0,71.0,90.0,4.0,64.0
8063,70.0,159.0,90.0,2.0,64.0
8064,69.0,11.0,120.0,2.0,64.0
8065,78.0,16.0,90.0,0.0,64.0
8066,78.0,31.0,120.0,4.0,64.0
8067,67.0,4.0,90.0,2.0,64.0
8068,79.0,22.0,90.0,0.0,64.0
8069,79.0,84.0,120.0,4.0,64.0
8070,66.0,31.0,90.0,2.0,64.0
8071,81.0,9.0,90.0,0.0,64.0
8072,45.0,62.0,120.0,3.0,64.0
8073,81.0,24.0,90.0,4.0,64.0
8074,60.0,3.0,120.0,1.0,64.0
8075,69.0,113.0,120.0,2.0,64.0
8076,74.0,45.0,90.0,0.0,64.0
8077,67.0,14.0,150.0,2.0,64.0
8078,62.0,15.0,120.0,1.0,64.0
8079,74.0,10.0,90.0,4.0,64.0
8080,46.0,46.0,120.0,3.0,64.0
8081,63.0,47.0,90.0,1.0,64.0
8082,48.0,90.0,120.0,3.0,64.0
8083,62.0,1.0,120.0,1.0,64.0
8084,46.0,3.0,120.0,3.0,64.0
8085,58.0,8.0,90.0,2.0,64.0
8086,67.0,60.0,120.0,4.0,64.0
8087,67.0,10.0,90.0,0.0,64.0
8088,60.0,3.0,90.0,2.0,64.0
8089,45.0,38.0,120.0,3.0,64.0
8090,60.0,13.0,90.0,1.0,64.0
8091,66.0,13.0,90.0,0.0,64.0
8092,69.0,64.0,120.0,4.0,64.0
8093,62.0,20.0,210.0,2.0,64.0
8094,43.0,2.0,210.0,3.0,64.0
8095,67.0,60.0,60.0,0.0,64.0
8096,58.0,16.0,180.0,1.0,64.0
8097,70.0,57.0,120.0,4.0,64.0
8098,72.0,108.0,90.0,4.0,64.0
8099,74.0,0.0,90.0,4.0,64.0
8100,55.0,89.0,90.0,0.0,64.0
8101,70.0,144.0,90.0,4.0,64.0
8102,75.0,129.0,120.0,4.0,64.0
8103,60.0,4.0,90.0,0.0,64.0
8104,70.0,110.0,120.0,4.0,64.0
8105,63.0,14.0,90.0,0.0,64.0
8106,69.0,154.0,120.0,4.0,64.0
8107,67.0,58.0,150.0,4.0,64.0
8108,65.0,16.0,90.0,0.0,64.0
8109,69.0,137.0,90.0,4.0,64.0
8110,75.0,95.0,120.0,4.0,64.0
8111,69.0,27.0,90.0,0.0,64.0
8112,74.0,82.0,120.0,4.0,64.0
8113,72.0,145.0,90.0,4.0,64.0
8114,74.0,100.0,150.0,4.0,64.0
8115,58.0,49.0,90.0,0.0,64.0
8116,72.0,89.0,120.0,4.0,64.0
8117,62.0,39.0,90.0,0.0,64.0
8118,70.0,127.0,120.0,4.0,64.0
8119,72.0,73.0,150.0,4.0,64.0
8120,67.0,22.0,90.0,0.0,64.0
8121,74.0,143.0,90.0,4.0,64.0
8122,79.0,63.0,120.0,4.0,64.0
8123,70.0,28.0,60.0,0.0,64.0
8124,78.0,140.0,90.0,4.0,64.0
8125,79.0,91.0,120.0,4.0,64.0
8126,81.0,117.0,120.0,4.0,64.0
8127,60.0,23.0,90.0,0.0,64.0
8128,79.0,87.0,120.0,4.0,64.0
8129,78.0,115.0,120.0,4.0,64.0
8130,69.0,18.0,90.0,0.0,64.0
8131,76.0,106.0,90.0,4.0,64.0
8132,62.0,16.0,90.0,0.0,64.0
8133,74.0,104.0,90.0,4.0,64.0
8134,72.0,124.0,90.0,4.0,64.0
8135,70.0,100.0,120.0,4.0,64.0
8136,66.0,13.0,90.0,0.0,64.0
8137,69.0,131.0,90.0,4.0,64.0
8138,70.0,118.0,120.0,4.0,64.0
8139,67.0,19.0,90.0,0.0,64.0
8140,72.0,99.0,120.0,4.0,64.0
8141,62.0,34.0,90.0,0.0,64.0
8142,70.0,93.0,120.0,4.0,64.0
8143,69.0,113.0,90.0,4.0,64.0
8144,58.0,46.0,90.0,0.0,64.0
8145,67.0,108.0,120.0,4.0,64.0
8146,69.0,93.0,120.0,4.0,64.0
8147,55.0,5.0,150.0,1.0,64.0
8148,70.0,59.0,90.0,4.0,64.0
8149,67.0,5.0,90.0,0.0,64.0
8150,55.0,51.0,150.0,2.0,64.0
8151,67.0,126.0,90.0,4.0,64.0
8152,62.0,73.0,3030.0,2.0,64.0
8153,69.0,94.0,120.0,4.0,64.0
8154,66.0,24.0,90.0,0.0,64.0
8155,62.0,43.0,2970.0,1.0,64.0
8156,74.0,119.0,90.0,4.0,64.0
8157,72.0,109.0,90.0,4.0,64.0
8158,69.0,2.0,90.0,0.0,64.0
8159,74.0,124.0,90.0,4.0,64.0
8160,62.0,19.0,90.0,0.0,64.0
8161,71.0,87.0,120.0,4.0,64.0
8162,74.0,124.0,90.0,4.0,64.0
8163,70.0,116.0,90.0,4.0,64.0
8164,67.0,15.0,90.0,0.0,64.0
8165,74.0,121.0,120.0,4.0,64.0
8166,66.0,24.0,90.0,0.0,64.0
8167,69.0,100.0,120.0,4.0,64.0
8168,74.0,117.0,90.0,4.0,64.0
8169,69.0,29.0,90.0,0.0,64.0
8170,72.0,86.0,120.0,4.0,64.0
8171,74.0,118.0,90.0,4.0,64.0
8172,70.0,129.0,90.0,4.0,64.0
8173,62.0,9.0,90.0,0.0,64.0
8174,74.0,99.0,90.0,4.0,64.0
8175,72.0,26.0,90.0,0.0,64.0
8176,69.0,100.0,120.0,4.0,64.0
8177,74.0,125.0,90.0,4.0,64.0
8178,67.0,86.0,120.0,4.0,64.0
8179,70.0,19.0,90.0,0.0,64.0
8180,74.0,124.0,90.0,4.0,64.0
8181,70.0,5.0,90.0,4.0,64.0
8182,79.0,116.0,90.0,0.0,64.0
8183,74.0,123.0,120.0,4.0,64.0
8184,69.0,0.0,90.0,4.0,64.0
8185,78.0,117.0,90.0,0.0,64.0
8186,74.0,117.0,90.0,4.0,64.0
8187,67.0,71.0,120.0,4.0,64.0
8188,79.0,36.0,90.0,0.0,64.0
8189,74.0,128.0,90.0,4.0,64.0
8190,66.0,15.0,90.0,4.0,64.0
8191,81.0,11.0,60.0,0.0,64.0
8192,67.0,33.0,120.0,4.0,64.0
8193,64.0,20.0,120.0,1.0,64.0
8194,61.0,46.0,150.0,2.0,64.0
8195,66.0,20.0,90.0,4.0,64.0
8196,66.0,29.0,120.0,1.0,64.0
8197,62.0,64.0,120.0,2.0,64.0
8198,74.0,100.0,360.0,0.0,64.0
8199,64.0,7.0,120.0,4.0,64.0
8200,67.0,68.0,90.0,1.0,64.0
8201,64.0,53.0,150.0,2.0,64.0
8202,62.0,9.0,240.0,4.0,64.0
8203,69.0,22.0,90.0,1.0,64.0
8204,66.0,9.0,90.0,2.0,64.0
8205,67.0,35.0,120.0,2.0,64.0
8206,72.0,80.0,120.0,0.0,64.0
8207,62.0,84.0,390.0,1.0,64.0
8208,54.0,24.0,90.0,3.0,64.0
8209,69.0,92.0,120.0,2.0,64.0
8210,70.0,14.0,90.0,0.0,64.0
8211,69.0,125.0,90.0,0.0,64.0
8212,67.0,6.0,90.0,2.0,64.0
8213,70.0,18.0,90.0,0.0,64.0
8214,55.0,2.0,90.0,3.0,64.0
8215,69.0,52.0,90.0,0.0,64.0
8216,60.0,74.0,120.0,1.0,64.0
8217,67.0,8.0,120.0,0.0,64.0
8218,62.0,15.0,90.0,2.0,64.0
8219,53.0,57.0,360.0,3.0,64.0
8220,58.0,73.0,90.0,1.0,64.0
8221,69.0,19.0,90.0,0.0,64.0
8222,60.0,116.0,90.0,1.0,64.0
8223,70.0,20.0,120.0,0.0,64.0
8224,67.0,2.0,90.0,2.0,64.0
8225,62.0,11.0,90.0,1.0,64.0
8226,74.0,113.0,60.0,0.0,64.0
8227,72.0,0.0,90.0,0.0,64.0
8228,60.0,11.0,60.0,2.0,64.0
8229,67.0,80.0,60.0,1.0,64.0
8230,52.0,5.0,150.0,3.0,64.0
8231,70.0,177.0,60.0,0.0,64.0
8232,69.0,0.0,120.0,0.0,64.0
8233,65.0,6.0,90.0,1.0,64.0
8234,60.0,42.0,90.0,2.0,64.0
8235,53.0,73.0,120.0,3.0,64.0
8236,55.0,106.0,90.0,3.0,64.0
8237,72.0,9.0,90.0,0.0,64.0
8238,53.0,106.0,120.0,3.0,64.0
8239,65.0,4.0,90.0,2.0,64.0
8240,69.0,16.0,90.0,1.0,64.0
8241,52.0,105.0,120.0,3.0,64.0
8242,77.0,4.0,90.0,0.0,64.0
8243,50.0,113.0,120.0,3.0,64.0
8244,69.0,20.0,90.0,2.0,64.0
8245,74.0,15.0,60.0,1.0,64.0
8246,49.0,89.0,120.0,3.0,64.0
8247,50.0,6.0,90.0,3.0,64.0
8248,74.0,45.0,90.0,0.0,64.0
8249,65.0,0.0,90.0,2.0,64.0
8250,69.0,71.0,120.0,1.0,64.0
8251,52.0,121.0,90.0,3.0,64.0
8252,67.0,23.0,90.0,1.0,64.0
8253,53.0,31.0,120.0,3.0,64.0
8254,62.0,31.0,330.0,2.0,64.0
8255,71.0,119.0,120.0,0.0,64.0
8256,74.0,66.0,150.0,0.0,64.0
8257,79.0,76.0,120.0,0.0,64.0
8258,51.0,6.0,330.0,3.0,64.0
8259,71.0,11.0,90.0,1.0,64.0
8260,77.0,121.0,90.0,0.0,64.0
8261,55.0,104.0,120.0,2.0,64.0
8262,75.0,0.0,90.0,0.0,64.0
8263,72.0,14.0,60.0,1.0,64.0
8264,74.0,113.0,90.0,0.0,64.0
8265,65.0,3.0,90.0,1.0,64.0
8266,62.0,42.0,90.0,2.0,64.0
8267,72.0,17.0,90.0,0.0,64.0
8268,50.0,43.0,120.0,3.0,64.0
8269,71.0,127.0,60.0,0.0,64.0
8270,72.0,16.0,90.0,0.0,64.0
8271,60.0,38.0,120.0,2.0,64.0
8272,67.0,15.0,90.0,1.0,64.0
8273,51.0,74.0,120.0,3.0,64.0
8274,53.0,107.0,90.0,3.0,64.0
8275,67.0,1.0,90.0,0.0,64.0
8276,51.0,14.0,90.0,3.0,64.0
8277,63.0,109.0,120.0,2.0,64.0
8278,72.0,8.0,90.0,1.0,64.0
8279,50.0,101.0,120.0,3.0,64.0
8280,48.0,84.0,120.0,3.0,64.0
8281,75.0,23.0,90.0,0.0,64.0
8282,67.0,7.0,90.0,1.0,64.0
8283,63.0,13.0,90.0,2.0,64.0
8284,46.0,113.0,90.0,3.0,64.0
8285,72.0,12.0,90.0,0.0,64.0
8286,48.0,10.0,120.0,3.0,64.0
8287,63.0,4.0,90.0,1.0,64.0
8288,67.0,104.0,90.0,2.0,64.0
8289,50.0,128.0,90.0,3.0,64.0
8290,51.0,4.0,90.0,3.0,64.0
8291,69.0,106.0,150.0,0.0,64.0
8292,65.0,20.0,330.0,2.0,64.0
8293,60.0,34.0,90.0,1.0,64.0
8294,72.0,75.0,150.0,0.0,64.0
8295,77.0,77.0,120.0,0.0,64.0
8296,69.0,12.0,90.0,1.0,64.0
8297,50.0,89.0,360.0,3.0,64.0
8298,75.0,120.0,90.0,0.0,64.0
8299,53.0,11.0,90.0,2.0,64.0
8300,74.0,8.0,90.0,0.0,64.0
8301,70.0,31.0,90.0,1.0,64.0
8302,72.0,115.0,90.0,0.0,64.0
8303,60.0,9.0,90.0,2.0,64.0
8304,48.0,77.0,120.0,3.0,64.0
8305,63.0,11.0,90.0,1.0,64.0
8306,70.0,7.0,90.0,0.0,64.0
8307,69.0,144.0,60.0,0.0,64.0
8308,70.0,15.0,120.0,0.0,64.0
8309,50.0,90.0,120.0,3.0,64.0
8310,58.0,3.0,120.0,2.0,64.0
8311,65.0,20.0,90.0,1.0,64.0
8312,51.0,5.0,120.0,3.0,64.0
8313,65.0,93.0,120.0,0.0,64.0
8314,57.0,18.0,120.0,2.0,64.0
8315,50.0,91.0,120.0,3.0,64.0
8316,63.0,10.0,90.0,1.0,64.0
8317,58.0,5.0,120.0,2.0,64.0
8318,67.0,0.0,90.0,0.0,64.0
8319,48.0,13.0,90.0,3.0,64.0
8320,60.0,16.0,90.0,2.0,64.0
8321,69.0,96.0,90.0,0.0,64.0
8322,46.0,102.0,240.0,3.0,64.0
8323,62.0,19.0,90.0,2.0,64.0
8324,62.0,11.0,90.0,1.0,64.0
8325,70.0,70.0,90.0,0.0,64.0
8326,63.0,23.0,60.0,2.0,64.0
8327,72.0,24.0,90.0,0.0,64.0
8328,65.0,26.0,120.0,2.0,64.0
8329,74.0,13.0,90.0,0.0,64.0
8330,58.0,18.0,90.0,1.0,64.0
8331,74.0,58.0,120.0,4.0,64.0
8332,75.0,151.0,90.0,0.0,64.0
8333,77.0,14.0,2940.0,0.0,64.0
8334,57.0,17.0,90.0,1.0,64.0
8335,72.0,118.0,120.0,4.0,64.0
8336,53.0,54.0,510.0,2.0,64.0
8337,77.0,93.0,120.0,4.0,64.0
8338,60.0,33.0,90.0,1.0,64.0
8339,76.0,75.0,120.0,4.0,64.0
8340,77.0,86.0,90.0,4.0,64.0
8341,75.0,11.0,120.0,4.0,64.0
8342,53.0,93.0,120.0,1.0,64.0
8343,77.0,124.0,90.0,4.0,64.0
8344,74.0,31.0,120.0,4.0,64.0
8345,58.0,8.0,90.0,1.0,64.0
8346,55.0,76.0,120.0,2.0,64.0
8347,77.0,128.0,120.0,4.0,64.0
8348,72.0,90.0,120.0,4.0,64.0
8349,57.0,16.0,90.0,1.0,64.0
8350,57.0,22.0,510.0,2.0,64.0
8351,77.0,128.0,90.0,4.0,64.0
8352,75.0,89.0,120.0,4.0,64.0
8353,60.0,20.0,90.0,1.0,64.0
8354,77.0,98.0,90.0,4.0,64.0
8355,53.0,22.0,90.0,1.0,64.0
8356,74.0,95.0,120.0,4.0,64.0
8357,77.0,117.0,90.0,4.0,64.0
8358,63.0,42.0,90.0,1.0,64.0
8359,72.0,0.0,120.0,4.0,64.0
8360,57.0,73.0,120.0,2.0,64.0
8361,77.0,126.0,90.0,4.0,64.0
8362,70.0,103.0,120.0,4.0,64.0
8363,62.0,21.0,90.0,1.0,64.0
8364,58.0,7.0,510.0,2.0,64.0
8365,77.0,116.0,120.0,4.0,64.0
8366,74.0,95.0,120.0,4.0,64.0
8367,70.0,13.0,60.0,1.0,64.0
8368,77.0,117.0,90.0,4.0,64.0
8369,72.0,29.0,90.0,4.0,64.0
8370,69.0,88.0,90.0,1.0,64.0
8371,77.0,124.0,120.0,4.0,64.0
8372,70.0,101.0,120.0,4.0,64.0
8373,62.0,9.0,90.0,2.0,64.0
8374,70.0,16.0,60.0,1.0,64.0
8375,77.0,101.0,120.0,4.0,64.0
8376,69.0,138.0,90.0,4.0,64.0
8377,72.0,7.0,60.0,1.0,64.0
8378,65.0,63.0,480.0,2.0,64.0
8379,70.0,41.0,120.0,4.0,64.0
8380,79.0,69.0,150.0,0.0,64.0
8381,69.0,14.0,120.0,4.0,64.0
8382,77.0,6.0,90.0,0.0,64.0
8383,53.0,89.0,120.0,3.0,64.0
8384,65.0,13.0,330.0,1.0,64.0
8385,67.0,33.0,120.0,4.0,64.0
8386,75.0,28.0,90.0,0.0,64.0
8387,74.0,20.0,120.0,0.0,64.0
8388,65.0,26.0,120.0,4.0,64.0
8389,58.0,53.0,120.0,3.0,64.0
8390,72.0,32.0,90.0,0.0,64.0
8391,57.0,92.0,120.0,3.0,64.0
8392,55.0,91.0,120.0,3.0,64.0
8393,70.0,7.0,90.0,0.0,64.0
8394,70.0,5.0,90.0,2.0,64.0
8395,74.0,11.0,90.0,1.0,64.0
8396,77.0,6.0,90.0,4.0,64.0
8397,74.0,13.0,90.0,0.0,64.0
8398,53.0,104.0,120.0,3.0,64.0
8399,51.0,9.0,90.0,3.0,64.0
8400,75.0,6.0,90.0,1.0,64.0
8401,79.0,10.0,90.0,0.0,64.0
8402,67.0,115.0,330.0,2.0,64.0
8403,79.0,110.0,90.0,4.0,64.0
8404,50.0,116.0,120.0,3.0,64.0
8405,48.0,24.0,120.0,3.0,64.0
8406,77.0,7.0,330.0,0.0,64.0
8407,77.0,15.0,330.0,4.0,64.0
8408,74.0,103.0,360.0,1.0,64.0
8409,47.0,100.0,150.0,3.0,64.0
8410,48.0,13.0,120.0,3.0,64.0
8411,67.0,21.0,330.0,2.0,64.0
8412,51.0,110.0,120.0,3.0,64.0
8413,50.0,15.0,120.0,3.0,64.0
8414,75.0,3.0,120.0,0.0,64.0
8415,72.0,2.0,90.0,1.0,64.0
8416,75.0,76.0,120.0,4.0,64.0
8417,48.0,137.0,120.0,3.0,64.0
8418,47.0,4.0,120.0,3.0,64.0
8419,74.0,12.0,120.0,1.0,64.0
8420,77.0,1.0,120.0,0.0,64.0
8421,77.0,82.0,90.0,4.0,64.0
8422,67.0,0.0,540.0,2.0,64.0
8423,48.0,11.0,120.0,3.0,64.0
8424,72.0,11.0,120.0,1.0,64.0
8425,75.0,18.0,90.0,0.0,64.0
8426,75.0,89.0,120.0,4.0,64.0
8427,50.0,2.0,120.0,3.0,64.0
8428,71.0,7.0,120.0,1.0,64.0
8429,74.0,13.0,90.0,0.0,64.0
8430,74.0,80.0,120.0,4.0,64.0
8431,72.0,6.0,90.0,1.0,64.0
8432,75.0,2.0,90.0,0.0,64.0
8433,75.0,121.0,90.0,4.0,64.0
8434,48.0,1.0,90.0,3.0,64.0
8435,47.0,5.0,90.0,3.0,64.0
8436,77.0,74.0,120.0,4.0,64.0
8437,74.0,19.0,90.0,1.0,64.0
8438,77.0,9.0,90.0,0.0,64.0
8439,43.0,111.0,90.0,3.0,64.0
8440,79.0,11.0,90.0,4.0,64.0
8441,55.0,45.0,180.0,3.0,64.0
8442,75.0,48.0,120.0,4.0,64.0
8443,72.0,14.0,90.0,1.0,64.0
8444,75.0,2.0,90.0,0.0,64.0
8445,55.0,6.0,90.0,2.0,64.0
8446,77.0,117.0,90.0,4.0,64.0
8447,74.0,22.0,90.0,0.0,64.0
8448,74.0,117.0,120.0,4.0,64.0
8449,67.0,58.0,510.0,1.0,64.0
8450,59.0,18.0,90.0,2.0,64.0
8451,55.0,37.0,2940.0,3.0,64.0
8452,79.0,84.0,120.0,4.0,64.0
8453,77.0,7.0,60.0,0.0,64.0
8454,77.0,88.0,120.0,4.0,64.0
8455,62.0,27.0,90.0,2.0,64.0
8456,79.0,62.0,90.0,4.0,64.0
8457,76.0,91.0,120.0,4.0,64.0
8458,55.0,19.0,90.0,2.0,64.0
8459,76.0,4.0,60.0,0.0,64.0
8460,79.0,122.0,90.0,4.0,64.0
8461,75.0,93.0,120.0,4.0,64.0
8462,67.0,2.0,90.0,1.0,64.0
8463,60.0,9.0,60.0,2.0,64.0
8464,75.0,14.0,60.0,0.0,64.0
8465,79.0,126.0,90.0,4.0,64.0
8466,74.0,3.0,90.0,4.0,64.0
8467,59.0,93.0,90.0,2.0,64.0
8468,74.0,21.0,60.0,0.0,64.0
8469,67.0,51.0,480.0,1.0,64.0
8470,79.0,120.0,90.0,4.0,64.0
8471,77.0,77.0,120.0,4.0,64.0
8472,62.0,6.0,90.0,2.0,64.0
8473,77.0,25.0,60.0,0.0,64.0
8474,79.0,73.0,90.0,4.0,64.0
8475,75.0,6.0,90.0,4.0,64.0
8476,75.0,18.0,60.0,0.0,64.0
8477,55.0,84.0,90.0,2.0,64.0
8478,79.0,135.0,90.0,4.0,64.0
8479,74.0,7.0,120.0,4.0,64.0
8480,65.0,26.0,90.0,2.0,64.0
8481,71.0,86.0,120.0,1.0,64.0
8482,74.0,1.0,60.0,0.0,64.0
8483,79.0,118.0,90.0,4.0,64.0
8484,63.0,10.0,90.0,2.0,64.0
8485,72.0,75.0,120.0,4.0,64.0
8486,72.0,44.0,510.0,1.0,64.0
8487,72.0,29.0,90.0,0.0,64.0
8488,79.0,131.0,90.0,4.0,64.0
8489,60.0,4.0,90.0,2.0,64.0
8490,75.0,73.0,120.0,4.0,64.0
8491,75.0,32.0,60.0,0.0,64.0
8492,79.0,82.0,60.0,4.0,64.0
8493,74.0,11.0,120.0,4.0,64.0
8494,74.0,26.0,90.0,0.0,64.0
8495,59.0,74.0,120.0,2.0,64.0
8496,79.0,124.0,90.0,4.0,64.0
8497,72.0,113.0,120.0,4.0,64.0
8498,60.0,7.0,90.0,2.0,64.0
8499,72.0,6.0,60.0,0.0,64.0
8500,75.0,20.0,90.0,1.0,64.0
8501,79.0,106.0,120.0,4.0,64.0
8502,62.0,2.0,90.0,2.0,64.0
8503,74.0,0.0,90.0,1.0,64.0
8504,71.0,5.0,90.0,0.0,64.0
8505,71.0,137.0,120.0,4.0,64.0
8506,72.0,9.0,150.0,4.0,64.0
8507,56.0,38.0,150.0,3.0,64.0
8508,55.0,46.0,90.0,2.0,64.0
8509,74.0,7.0,60.0,0.0,64.0
8510,71.0,20.0,120.0,4.0,64.0
8511,79.0,3.0,360.0,1.0,64.0
8512,55.0,86.0,120.0,3.0,64.0
8513,69.0,20.0,120.0,4.0,64.0
8514,53.0,82.0,120.0,3.0,64.0
8515,60.0,89.0,120.0,2.0,64.0
8516,51.0,0.0,120.0,3.0,64.0
8517,67.0,6.0,120.0,4.0,64.0
8518,67.0,33.0,90.0,0.0,64.0
8519,77.0,13.0,120.0,1.0,64.0
8520,50.0,76.0,150.0,3.0,64.0
8521,62.0,17.0,120.0,2.0,64.0
8522,63.0,10.0,120.0,2.0,64.0
8523,75.0,2.0,120.0,1.0,64.0
8524,48.0,60.0,120.0,3.0,64.0
8525,79.0,14.0,90.0,4.0,64.0
8526,79.0,13.0,60.0,0.0,64.0
8527,65.0,43.0,90.0,2.0,64.0
8528,74.0,22.0,90.0,1.0,64.0
8529,47.0,90.0,150.0,3.0,64.0
8530,72.0,0.0,120.0,1.0,64.0
8531,63.0,20.0,120.0,2.0,64.0
8532,48.0,77.0,120.0,3.0,64.0
8533,80.0,11.0,90.0,0.0,64.0
8534,80.0,3.0,90.0,4.0,64.0
8535,71.0,11.0,120.0,1.0,64.0
8536,65.0,7.0,120.0,2.0,64.0
8537,50.0,106.0,120.0,3.0,64.0
8538,67.0,9.0,90.0,2.0,64.0
8539,72.0,84.0,120.0,1.0,64.0
8540,51.0,15.0,90.0,3.0,64.0
8541,79.0,73.0,360.0,0.0,64.0
8542,79.0,7.0,360.0,4.0,64.0
8543,63.0,1.0,90.0,2.0,64.0
8544,48.0,144.0,120.0,3.0,64.0
8545,69.0,19.0,90.0,1.0,64.0
8546,65.0,4.0,120.0,2.0,64.0
8547,50.0,13.0,120.0,3.0,64.0
8548,71.0,1.0,120.0,1.0,64.0
8549,67.0,6.0,120.0,2.0,64.0
8550,72.0,3.0,120.0,1.0,64.0
8551,51.0,102.0,120.0,3.0,64.0
8552,68.0,2.0,120.0,2.0,64.0
8553,53.0,27.0,120.0,3.0,64.0
8554,74.0,15.0,90.0,1.0,64.0
8555,77.0,26.0,120.0,0.0,64.0
8556,77.0,5.0,120.0,4.0,64.0
8557,65.0,39.0,60.0,2.0,64.0
8558,71.0,11.0,90.0,1.0,64.0
8559,50.0,122.0,90.0,3.0,64.0
8560,51.0,9.0,150.0,3.0,64.0
8561,72.0,25.0,90.0,2.0,64.0
8562,67.0,9.0,570.0,1.0,64.0
8563,79.0,82.0,120.0,4.0,64.0
8564,79.0,19.0,90.0,0.0,64.0
8565,53.0,82.0,120.0,3.0,64.0
8566,77.0,20.0,120.0,4.0,64.0
8567,77.0,7.0,90.0,0.0,64.0
8568,75.0,28.0,90.0,0.0,64.0
8569,75.0,7.0,120.0,4.0,64.0
8570,60.0,0.0,360.0,2.0,64.0
8571,55.0,58.0,120.0,3.0,64.0
8572,77.0,18.0,120.0,4.0,64.0
8573,77.0,28.0,90.0,0.0,64.0
8574,53.0,92.0,120.0,3.0,64.0
8575,79.0,17.0,90.0,0.0,64.0
8576,51.0,104.0,120.0,3.0,64.0
8577,79.0,17.0,120.0,4.0,64.0
8578,65.0,12.0,120.0,1.0,64.0
8579,56.0,72.0,120.0,3.0,64.0
8580,72.0,11.0,90.0,0.0,64.0
8581,63.0,17.0,120.0,1.0,64.0
8582,72.0,7.0,90.0,4.0,64.0
8583,72.0,1.0,90.0,2.0,64.0
8584,55.0,66.0,120.0,3.0,64.0
8585,65.0,34.0,90.0,1.0,64.0
8586,56.0,106.0,120.0,3.0,64.0
8587,77.0,4.0,90.0,0.0,64.0
8588,62.0,22.0,120.0,1.0,64.0
8589,77.0,18.0,90.0,4.0,64.0
8590,50.0,132.0,120.0,3.0,64.0
8591,71.0,7.0,90.0,2.0,64.0
8592,48.0,60.0,150.0,3.0,64.0
8593,50.0,87.0,150.0,3.0,64.0
8594,75.0,14.0,360.0,0.0,64.0
8595,67.0,44.0,90.0,2.0,64.0
8596,75.0,17.0,360.0,4.0,64.0
8597,72.0,91.0,390.0,1.0,64.0
8598,51.0,122.0,120.0,3.0,64.0
8599,53.0,0.0,120.0,3.0,64.0
8600,68.0,11.0,90.0,2.0,64.0
8601,51.0,81.0,120.0,3.0,64.0
8602,62.0,21.0,90.0,2.0,64.0
8603,53.0,20.0,120.0,3.0,64.0
8604,74.0,82.0,150.0,4.0,64.0
8605,74.0,17.0,120.0,0.0,64.0
8606,71.0,13.0,90.0,1.0,64.0
8607,55.0,131.0,120.0,3.0,64.0
8608,48.0,7.0,120.0,3.0,64.0
8609,60.0,4.0,120.0,2.0,64.0
8610,72.0,11.0,210.0,1.0,64.0
8611,75.0,4.0,90.0,0.0,64.0
8612,75.0,86.0,120.0,4.0,64.0
8613,50.0,1.0,120.0,3.0,64.0
8614,74.0,8.0,90.0,0.0,64.0
8615,74.0,107.0,90.0,4.0,64.0
8616,51.0,2.0,120.0,3.0,64.0
8617,72.0,20.0,120.0,0.0,64.0
8618,72.0,6.0,90.0,2.0,64.0
8619,67.0,67.0,120.0,1.0,64.0
8620,72.0,0.0,120.0,4.0,64.0
8621,74.0,22.0,90.0,0.0,64.0
8622,50.0,9.0,120.0,3.0,64.0
8623,65.0,2.0,120.0,1.0,64.0
8624,74.0,95.0,120.0,4.0,64.0
8625,63.0,11.0,90.0,1.0,64.0
8626,75.0,2.0,90.0,0.0,64.0
8627,48.0,107.0,120.0,3.0,64.0
8628,69.0,9.0,90.0,2.0,64.0
8629,75.0,0.0,90.0,4.0,64.0
8630,62.0,9.0,120.0,1.0,64.0
8631,53.0,95.0,120.0,3.0,64.0
8632,60.0,15.0,90.0,1.0,64.0
8633,51.0,68.0,120.0,3.0,64.0
8634,69.0,11.0,90.0,0.0,64.0
8635,69.0,14.0,90.0,4.0,64.0
8636,65.0,27.0,420.0,2.0,64.0
8637,62.0,9.0,90.0,1.0,64.0
8638,53.0,142.0,90.0,3.0,64.0
8639,58.0,4.0,120.0,1.0,64.0
8640,46.0,86.0,120.0,3.0,64.0
8641,74.0,2.0,90.0,0.0,64.0
8642,74.0,7.0,90.0,4.0,64.0
8643,45.0,131.0,120.0,3.0,64.0
8644,46.0,99.0,120.0,3.0,64.0
8645,66.0,6.0,360.0,2.0,64.0
8646,72.0,31.0,360.0,0.0,64.0
8647,72.0,0.0,330.0,4.0,64.0
8648,69.0,93.0,390.0,1.0,64.0
8649,48.0,139.0,120.0,3.0,64.0
8650,50.0,5.0,120.0,3.0,64.0
8651,48.0,87.0,120.0,3.0,64.0
8652,50.0,116.0,150.0,3.0,64.0
8653,70.0,16.0,120.0,0.0,64.0
8654,67.0,26.0,420.0,1.0,64.0
8655,70.0,4.0,120.0,4.0,64.0
8656,67.0,26.0,90.0,2.0,64.0
8657,51.0,68.0,120.0,3.0,64.0
8658,72.0,9.0,120.0,0.0,64.0
8659,45.0,7.0,120.0,3.0,64.0
8660,60.0,40.0,60.0,2.0,64.0
8661,72.0,46.0,120.0,4.0,64.0
8662,74.0,22.0,90.0,0.0,64.0
8663,46.0,85.0,150.0,3.0,64.0
8664,74.0,36.0,120.0,4.0,64.0
8665,72.0,3.0,120.0,0.0,64.0
8666,45.0,9.0,120.0,3.0,64.0
8667,72.0,7.0,120.0,4.0,64.0
8668,66.0,86.0,120.0,1.0,64.0
8669,63.0,8.0,330.0,2.0,64.0
8670,70.0,100.0,120.0,0.0,64.0
8671,43.0,3.0,120.0,3.0,64.0
8672,70.0,4.0,120.0,4.0,64.0
8673,67.0,20.0,90.0,1.0,64.0
8674,42.0,8.0,120.0,3.0,64.0
8675,69.0,16.0,120.0,0.0,64.0
8676,69.0,78.0,120.0,4.0,64.0
8677,69.0,5.0,90.0,1.0,64.0
8678,70.0,18.0,120.0,0.0,64.0
8679,70.0,88.0,120.0,4.0,64.0
8680,67.0,2.0,90.0,1.0,64.0
8681,72.0,9.0,90.0,0.0,64.0
8682,62.0,4.0,90.0,2.0,64.0
8683,69.0,3.0,90.0,1.0,64.0
8684,38.0,22.0,90.0,3.0,64.0
8685,72.0,64.0,120.0,4.0,64.0
8686,66.0,27.0,90.0,1.0,64.0
8687,69.0,6.0,120.0,0.0,64.0
8688,69.0,113.0,90.0,4.0,64.0
8689,70.0,4.0,120.0,0.0,64.0
8690,43.0,2.0,120.0,3.0,64.0
8691,67.0,20.0,180.0,1.0,64.0
8692,62.0,23.0,120.0,2.0,64.0
8693,70.0,66.0,120.0,4.0,64.0
8694,67.0,0.0,90.0,0.0,64.0
8695,67.0,115.0,90.0,4.0,64.0
8696,75.0,18.0,120.0,0.0,64.0
8697,65.0,11.0,90.0,2.0,64.0
8698,41.0,3.0,90.0,3.0,64.0
8699,69.0,8.0,90.0,1.0,64.0
8700,75.0,47.0,120.0,4.0,64.0
8701,74.0,70.0,90.0,0.0,64.0
8702,70.0,11.0,60.0,1.0,64.0
8703,74.0,62.0,150.0,4.0,64.0
8704,72.0,17.0,120.0,0.0,64.0
8705,67.0,5.0,90.0,2.0,64.0
8706,39.0,2.0,330.0,3.0,64.0
8707,72.0,60.0,360.0,1.0,64.0
8708,72.0,113.0,90.0,4.0,64.0
8709,70.0,20.0,120.0,0.0,64.0
8710,70.0,82.0,120.0,4.0,64.0
8711,69.0,0.0,120.0,0.0,64.0
8712,63.0,25.0,90.0,2.0,64.0
8713,69.0,15.0,120.0,4.0,64.0
8714,67.0,29.0,90.0,0.0,64.0
8715,67.0,115.0,120.0,4.0,64.0
8716,74.0,7.0,5760.0,0.0,64.0
8717,57.0,38.0,90.0,2.0,64.0
8718,74.0,95.0,540.0,4.0,64.0
8719,38.0,42.0,210.0,3.0,64.0
8720,66.0,71.0,120.0,1.0,64.0
8721,67.0,73.0,120.0,1.0,64.0
8722,66.0,34.0,120.0,1.0,64.0
8723,69.0,25.0,90.0,2.0,64.0
8724,50.0,74.0,120.0,3.0,64.0
8725,64.0,6.0,120.0,1.0,64.0
8726,48.0,78.0,90.0,3.0,64.0
8727,62.0,14.0,240.0,1.0,64.0
8728,50.0,85.0,150.0,3.0,64.0
8729,66.0,79.0,270.0,2.0,64.0
8730,51.0,11.0,120.0,3.0,64.0
8731,67.0,14.0,120.0,4.0,64.0
8732,66.0,20.0,120.0,4.0,64.0
8733,50.0,95.0,120.0,3.0,64.0
8734,64.0,3.0,120.0,4.0,64.0
8735,48.0,112.0,90.0,3.0,64.0
8736,62.0,40.0,90.0,4.0,64.0
8737,46.0,98.0,120.0,3.0,64.0
8738,67.0,102.0,120.0,4.0,64.0
8739,66.0,106.0,120.0,4.0,64.0
8740,43.0,100.0,210.0,3.0,64.0
8741,67.0,4.0,90.0,4.0,64.0
8742,67.0,20.0,60.0,1.0,64.0
8743,70.0,124.0,90.0,4.0,64.0
8744,62.0,13.0,90.0,2.0,64.0
8745,67.0,78.0,120.0,4.0,64.0
8746,66.0,124.0,120.0,4.0,64.0
8747,62.0,20.0,90.0,1.0,64.0
8748,58.0,10.0,90.0,2.0,64.0
8749,43.0,12.0,60.0,3.0,64.0
8750,67.0,128.0,120.0,4.0,64.0
8751,69.0,69.0,150.0,4.0,64.0
8752,50.0,44.0,90.0,3.0,64.0
8753,67.0,117.0,120.0,4.0,64.0
8754,66.0,109.0,150.0,4.0,64.0
8755,52.0,9.0,90.0,3.0,64.0
8756,64.0,141.0,120.0,4.0,64.0
8757,62.0,36.0,120.0,4.0,64.0
8758,54.0,68.0,120.0,3.0,64.0
8759,67.0,14.0,120.0,4.0,64.0
8760,55.0,113.0,120.0,3.0,64.0
8761,66.0,22.0,120.0,4.0,64.0
8762,57.0,48.0,150.0,3.0,64.0
8763,55.0,135.0,90.0,3.0,64.0
8764,64.0,7.0,90.0,4.0,64.0
8765,54.0,16.0,120.0,3.0,64.0
8766,62.0,157.0,120.0,4.0,64.0
8767,69.0,104.0,150.0,4.0,64.0
8768,50.0,44.0,210.0,3.0,64.0
8769,67.0,46.0,150.0,4.0,64.0
8770,69.0,111.0,90.0,4.0,64.0
8771,72.0,134.0,120.0,4.0,64.0
8772,66.0,11.0,90.0,2.0,64.0
8773,69.0,19.0,90.0,1.0,64.0
8774,69.0,79.0,150.0,4.0,64.0
8775,50.0,1.0,90.0,3.0,64.0
8776,66.0,9.0,90.0,1.0,64.0
8777,62.0,37.0,90.0,2.0,64.0
8778,67.0,62.0,120.0,4.0,64.0
8779,69.0,148.0,90.0,4.0,64.0
8780,70.0,148.0,120.0,4.0,64.0
8781,55.0,9.0,120.0,3.0,64.0
8782,72.0,84.0,150.0,4.0,64.0
8783,70.0,1.0,120.0,4.0,64.0
8784,50.0,144.0,120.0,3.0,64.0
8785,69.0,88.0,150.0,4.0,64.0
8786,46.0,0.0,120.0,3.0,64.0
8787,67.0,124.0,90.0,4.0,64.0
8788,45.0,53.0,150.0,3.0,64.0
8789,72.0,84.0,150.0,4.0,64.0
8790,43.0,9.0,150.0,3.0,64.0
8791,70.0,44.0,120.0,4.0,64.0
8792,45.0,43.0,90.0,3.0,64.0
8793,69.0,106.0,90.0,4.0,64.0
8794,47.0,44.0,120.0,3.0,64.0
8795,67.0,113.0,120.0,4.0,64.0
8796,74.0,124.0,120.0,4.0,64.0
8797,43.0,2.0,150.0,3.0,64.0
8798,72.0,89.0,120.0,4.0,64.0
8799,74.0,113.0,90.0,4.0,64.0
8800,77.0,11.0,90.0,4.0,64.0
8801,71.0,13.0,60.0,2.0,64.0
8802,74.0,110.0,60.0,1.0,64.0
8803,74.0,102.0,120.0,4.0,64.0
8804,43.0,35.0,120.0,3.0,64.0
8805,72.0,84.0,150.0,4.0,64.0
8806,67.0,10.0,60.0,2.0,64.0
8807,71.0,2.0,90.0,1.0,64.0
8808,74.0,141.0,90.0,4.0,64.0
8809,75.0,8.0,1950.0,0.0,64.0
8810,67.0,118.0,150.0,4.0,64.0
8811,48.0,35.0,120.0,3.0,64.0
8812,67.0,47.0,930.0,2.0,64.0
8813,72.0,114.0,1920.0,1.0,64.0
8814,72.0,73.0,150.0,4.0,64.0
8815,51.0,47.0,120.0,3.0,64.0
8816,71.0,101.0,120.0,4.0,64.0
8817,72.0,93.0,120.0,4.0,64.0
8818,48.0,47.0,90.0,3.0,64.0
8819,75.0,133.0,120.0,4.0,64.0
8820,72.0,51.0,120.0,4.0,64.0
8821,43.0,72.0,90.0,3.0,64.0
8822,71.0,60.0,120.0,4.0,64.0
8823,72.0,130.0,120.0,4.0,64.0
8824,66.0,24.0,930.0,2.0,64.0
8825,45.0,124.0,480.0,3.0,64.0
8826,66.0,104.0,120.0,4.0,64.0
8827,72.0,113.0,120.0,4.0,64.0
8828,71.0,113.0,120.0,4.0,64.0
8829,72.0,0.0,120.0,4.0,64.0
8830,75.0,118.0,120.0,4.0,64.0
8831,72.0,97.0,120.0,4.0,64.0
8832,45.0,12.0,120.0,3.0,64.0
8833,71.0,81.0,120.0,4.0,64.0
8834,72.0,7.0,90.0,4.0,64.0
8835,47.0,31.0,120.0,3.0,64.0
8836,65.0,97.0,150.0,4.0,64.0
8837,65.0,166.0,930.0,2.0,64.0
8838,74.0,111.0,1890.0,0.0,64.0
8839,67.0,33.0,1830.0,1.0,64.0
8840,71.0,104.0,150.0,4.0,64.0
8841,69.0,91.0,120.0,4.0,64.0
8842,50.0,22.0,120.0,3.0,64.0
8843,71.0,120.0,120.0,4.0,64.0
8844,74.0,86.0,150.0,4.0,64.0
8845,47.0,37.0,90.0,3.0,64.0
8846,71.0,105.0,120.0,4.0,64.0
8847,43.0,30.0,90.0,3.0,64.0
8848,69.0,56.0,120.0,4.0,64.0
8849,71.0,48.0,60.0,4.0,64.0
8850,48.0,87.0,510.0,3.0,64.0
8851,64.0,95.0,150.0,4.0,64.0
8852,64.0,11.0,900.0,2.0,64.0
8853,70.0,120.0,120.0,4.0,64.0
8854,69.0,118.0,120.0,4.0,64.0
8855,70.0,26.0,120.0,4.0,64.0
8856,74.0,108.0,90.0,4.0,64.0
8857,70.0,95.0,120.0,4.0,64.0
8858,46.0,22.0,90.0,3.0,64.0
8859,69.0,76.0,90.0,4.0,64.0
8860,70.0,13.0,90.0,4.0,64.0
8861,45.0,29.0,120.0,3.0,64.0
8862,63.0,12.0,930.0,2.0,64.0
8863,66.0,93.0,150.0,4.0,64.0
8864,69.0,30.0,1140.0,1.0,64.0
8865,72.0,21.0,1140.0,0.0,64.0
8866,69.0,104.0,120.0,4.0,64.0
8867,67.0,108.0,150.0,4.0,64.0
8868,48.0,20.0,120.0,3.0,64.0
8869,69.0,111.0,120.0,4.0,64.0
8870,72.0,126.0,120.0,4.0,64.0
8871,51.0,2.0,90.0,3.0,64.0
8872,69.0,111.0,120.0,4.0,64.0
8873,43.0,6.0,120.0,3.0,64.0
8874,67.0,96.0,120.0,4.0,64.0
8875,69.0,136.0,90.0,4.0,64.0
8876,42.0,33.0,120.0,3.0,64.0
8877,62.0,67.0,240.0,2.0,64.0
8878,62.0,30.0,150.0,4.0,64.0
8879,72.0,36.0,150.0,4.0,64.0
8880,38.0,35.0,90.0,3.0,64.0
8881,66.0,11.0,120.0,1.0,64.0
8882,70.0,87.0,120.0,4.0,64.0
8883,70.0,11.0,120.0,0.0,64.0
8884,62.0,35.0,210.0,2.0,64.0
8885,69.0,93.0,150.0,0.0,64.0
8886,69.0,2.0,90.0,4.0,64.0
8887,67.0,7.0,120.0,1.0,64.0
8888,67.0,67.0,150.0,0.0,64.0
8889,46.0,26.0,120.0,3.0,64.0
8890,67.0,0.0,120.0,4.0,64.0
8891,62.0,38.0,210.0,2.0,64.0
8892,69.0,21.0,120.0,0.0,64.0
8893,69.0,69.0,150.0,4.0,64.0
8894,70.0,44.0,150.0,0.0,64.0
8895,43.0,36.0,90.0,3.0,64.0
8896,67.0,2.0,90.0,1.0,64.0
8897,70.0,24.0,120.0,4.0,64.0
8898,62.0,7.0,180.0,2.0,64.0
8899,67.0,2.0,90.0,0.0,64.0
8900,67.0,137.0,90.0,4.0,64.0
8901,66.0,7.0,120.0,1.0,64.0
8902,50.0,13.0,120.0,3.0,64.0
8903,69.0,0.0,120.0,0.0,64.0
8904,69.0,96.0,120.0,4.0,64.0
8905,62.0,0.0,210.0,2.0,64.0
8906,64.0,19.0,120.0,1.0,64.0
8907,67.0,7.0,120.0,0.0,64.0
8908,67.0,73.0,120.0,4.0,64.0
8909,66.0,20.0,120.0,1.0,64.0
8910,66.0,2.0,120.0,0.0,64.0
8911,66.0,70.0,120.0,4.0,64.0
8912,52.0,3.0,90.0,3.0,64.0
8913,57.0,14.0,180.0,2.0,64.0
8914,67.0,3.0,120.0,1.0,64.0
8915,64.0,100.0,120.0,0.0,64.0
8916,64.0,10.0,90.0,4.0,64.0
8917,62.0,51.0,180.0,0.0,64.0
8918,69.0,47.0,240.0,1.0,64.0
8919,62.0,19.0,90.0,4.0,64.0
8920,54.0,74.0,90.0,3.0,64.0
8921,57.0,44.0,270.0,2.0,64.0
8922,72.0,15.0,150.0,4.0,64.0
8923,70.0,118.0,120.0,4.0,64.0
8924,50.0,17.0,90.0,3.0,64.0
8925,69.0,170.0,90.0,4.0,64.0
8926,70.0,86.0,150.0,4.0,64.0
8927,55.0,77.0,510.0,3.0,64.0
8928,65.0,83.0,120.0,4.0,64.0
8929,67.0,15.0,90.0,1.0,64.0
8930,70.0,2.0,90.0,0.0,64.0
8931,63.0,100.0,120.0,4.0,64.0
8932,55.0,40.0,60.0,2.0,64.0
8933,62.0,40.0,120.0,4.0,64.0
8934,63.0,148.0,120.0,4.0,64.0
8935,70.0,122.0,480.0,0.0,64.0
8936,60.0,29.0,450.0,2.0,64.0
8937,67.0,2.0,480.0,1.0,64.0
8938,70.0,91.0,120.0,4.0,64.0
8939,69.0,90.0,120.0,4.0,64.0
8940,48.0,18.0,90.0,3.0,64.0
8941,67.0,0.0,90.0,4.0,64.0
8942,69.0,115.0,120.0,4.0,64.0
8943,53.0,84.0,480.0,3.0,64.0
8944,63.0,65.0,120.0,4.0,64.0
8945,69.0,10.0,90.0,0.0,64.0
8946,62.0,99.0,150.0,4.0,64.0
8947,65.0,14.0,60.0,1.0,64.0
8948,53.0,34.0,60.0,2.0,64.0
8949,60.0,37.0,120.0,4.0,64.0
8950,62.0,160.0,90.0,4.0,64.0
8951,68.0,15.0,480.0,0.0,64.0
8952,65.0,129.0,480.0,1.0,64.0
8953,58.0,12.0,450.0,2.0,64.0
8954,68.0,49.0,150.0,4.0,64.0
8955,46.0,55.0,90.0,3.0,64.0
8956,67.0,86.0,120.0,4.0,64.0
8957,65.0,24.0,90.0,4.0,64.0
8958,67.0,92.0,150.0,4.0,64.0
8959,51.0,22.0,540.0,3.0,64.0
8960,65.0,71.0,120.0,4.0,64.0
8961,67.0,12.0,120.0,1.0,64.0
8962,67.0,33.0,90.0,0.0,64.0
8963,63.0,0.0,90.0,2.0,64.0
8964,63.0,86.0,120.0,4.0,64.0
8965,69.0,91.0,120.0,1.0,64.0
8966,65.0,0.0,90.0,4.0,64.0
8967,67.0,140.0,120.0,4.0,64.0
8968,71.0,6.0,90.0,1.0,64.0
8969,62.0,27.0,90.0,2.0,64.0
8970,77.0,41.0,510.0,0.0,64.0
8971,69.0,68.0,150.0,4.0,64.0
8972,71.0,57.0,150.0,4.0,64.0
8973,74.0,6.0,90.0,1.0,64.0
8974,65.0,5.0,90.0,2.0,64.0
8975,50.0,40.0,90.0,3.0,64.0
8976,48.0,25.0,90.0,3.0,64.0
8977,72.0,69.0,90.0,4.0,64.0
8978,74.0,5.0,90.0,4.0,64.0
8979,67.0,5.0,90.0,1.0,64.0
8980,47.0,8.0,450.0,3.0,64.0
8981,62.0,42.0,90.0,2.0,64.0
8982,71.0,114.0,30.0,4.0,64.0
8983,68.0,59.0,120.0,4.0,64.0
8984,75.0,19.0,60.0,0.0,64.0
8985,67.0,33.0,90.0,2.0,64.0
8986,67.0,96.0,120.0,4.0,64.0
8987,72.0,9.0,360.0,1.0,64.0
8988,65.0,87.0,90.0,4.0,64.0
8989,74.0,18.0,90.0,0.0,64.0
8990,55.0,57.0,90.0,2.0,64.0
8991,67.0,58.0,150.0,4.0,64.0
8992,77.0,95.0,90.0,4.0,64.0
8993,67.0,9.0,60.0,2.0,64.0
8994,79.0,2.0,90.0,0.0,64.0
8995,75.0,13.0,90.0,4.0,64.0
8996,43.0,16.0,90.0,3.0,64.0
8997,71.0,75.0,90.0,1.0,64.0
8998,74.0,120.0,90.0,4.0,64.0
8999,75.0,13.0,90.0,0.0,64.0
9000,75.0,18.0,1020.0,4.0,64.0
9001,48.0,13.0,60.0,3.0,64.0
9002,72.0,5.0,90.0,1.0,64.0
9003,67.0,216.0,90.0,2.0,64.0
9004,72.0,235.0,60.0,0.0,64.0
9005,46.0,180.0,360.0,3.0,64.0
9006,75.0,24.0,60.0,0.0,64.0
9007,67.0,18.0,90.0,2.0,64.0
9008,72.0,20.0,90.0,1.0,64.0
9009,67.0,25.0,90.0,0.0,64.0
9010,48.0,96.0,90.0,3.0,64.0
9011,46.0,91.0,90.0,3.0,64.0
9012,45.0,10.0,90.0,3.0,64.0
9013,75.0,22.0,60.0,0.0,64.0
9014,65.0,1.0,90.0,2.0,64.0
9015,72.0,102.0,90.0,1.0,64.0
9016,69.0,99.0,90.0,4.0,64.0
9017,69.0,36.0,60.0,0.0,64.0
9018,72.0,86.0,120.0,4.0,64.0
9019,53.0,4.0,360.0,3.0,64.0
9020,75.0,126.0,90.0,4.0,64.0
9021,72.0,89.0,120.0,4.0,64.0
9022,75.0,40.0,60.0,0.0,64.0
9023,69.0,111.0,90.0,4.0,64.0
9024,65.0,11.0,90.0,0.0,64.0
9025,72.0,2.0,90.0,4.0,64.0
9026,45.0,87.0,90.0,3.0,64.0
9027,72.0,4.0,90.0,1.0,64.0
9028,65.0,9.0,60.0,2.0,64.0
9029,75.0,138.0,90.0,4.0,64.0
9030,74.0,91.0,120.0,4.0,64.0
9031,74.0,5.0,90.0,0.0,64.0
9032,70.0,0.0,90.0,1.0,64.0
9033,65.0,16.0,90.0,2.0,64.0
9034,46.0,15.0,90.0,3.0,64.0
9035,75.0,96.0,90.0,4.0,64.0
9036,70.0,32.0,90.0,0.0,64.0
9037,74.0,102.0,90.0,4.0,64.0
9038,45.0,50.0,360.0,3.0,64.0
9039,72.0,109.0,90.0,4.0,64.0
9040,70.0,1.0,90.0,4.0,64.0
9041,74.0,26.0,90.0,0.0,64.0
9042,70.0,4.0,90.0,1.0,64.0
9043,65.0,29.0,90.0,2.0,64.0
9044,72.0,142.0,90.0,4.0,64.0
9045,74.0,10.0,330.0,4.0,64.0
9046,65.0,15.0,90.0,0.0,64.0
9047,46.0,100.0,90.0,3.0,64.0
9048,45.0,115.0,90.0,3.0,64.0
9049,70.0,22.0,90.0,1.0,64.0
9050,74.0,11.0,60.0,0.0,64.0
9051,43.0,113.0,120.0,3.0,64.0
9052,63.0,4.0,90.0,2.0,64.0
9053,67.0,88.0,120.0,4.0,64.0
9054,70.0,57.0,120.0,4.0,64.0
9055,67.0,27.0,90.0,0.0,64.0
9056,51.0,93.0,330.0,3.0,64.0
9057,74.0,152.0,60.0,4.0,64.0
9058,70.0,6.0,120.0,4.0,64.0
9059,74.0,17.0,90.0,0.0,64.0
9060,67.0,113.0,90.0,4.0,64.0
9061,70.0,11.0,90.0,4.0,64.0
9062,63.0,9.0,90.0,0.0,64.0
9063,70.0,6.0,90.0,1.0,64.0
9064,63.0,7.0,60.0,2.0,64.0
9065,43.0,78.0,90.0,3.0,64.0
9066,74.0,130.0,90.0,4.0,64.0
9067,72.0,130.0,120.0,4.0,64.0
9068,72.0,20.0,60.0,0.0,64.0
9069,66.0,12.0,90.0,1.0,64.0
9070,63.0,0.0,90.0,2.0,64.0
9071,45.0,2.0,90.0,3.0,64.0
9072,74.0,73.0,120.0,4.0,64.0
9073,72.0,95.0,120.0,4.0,64.0
9074,69.0,43.0,90.0,0.0,64.0
9075,43.0,7.0,330.0,3.0,64.0
9076,70.0,90.0,90.0,4.0,64.0
9077,72.0,51.0,60.0,0.0,64.0
9078,69.0,84.0,120.0,4.0,64.0
9079,69.0,8.0,90.0,1.0,64.0
9080,63.0,3.0,90.0,2.0,64.0
9081,70.0,109.0,90.0,4.0,64.0
9082,63.0,22.0,90.0,0.0,64.0
9083,45.0,101.0,90.0,3.0,64.0
9084,72.0,37.0,330.0,4.0,64.0
9085,43.0,113.0,90.0,3.0,64.0
9086,72.0,7.0,60.0,0.0,64.0
9087,42.0,114.0,120.0,3.0,64.0
9088,69.0,1.0,120.0,1.0,64.0
9089,62.0,8.0,90.0,2.0,64.0
9090,66.0,68.0,90.0,4.0,64.0
9091,66.0,51.0,60.0,0.0,64.0
9092,69.0,104.0,120.0,4.0,64.0
9093,50.0,95.0,360.0,3.0,64.0
9094,72.0,100.0,90.0,4.0,64.0
9095,72.0,35.0,90.0,0.0,64.0
9096,69.0,9.0,90.0,4.0,64.0
9097,66.0,98.0,90.0,4.0,64.0
9098,62.0,28.0,90.0,0.0,64.0
9099,69.0,10.0,120.0,4.0,64.0
9100,42.0,3.0,90.0,3.0,64.0
9101,69.0,72.0,90.0,1.0,64.0
9102,62.0,0.0,90.0,2.0,64.0
9103,72.0,166.0,90.0,4.0,64.0
9104,70.0,13.0,120.0,4.0,64.0
9105,70.0,2.0,120.0,0.0,64.0
9106,67.0,10.0,90.0,1.0,64.0
9107,43.0,1.0,120.0,3.0,64.0
9108,62.0,73.0,90.0,2.0,64.0
9109,72.0,13.0,90.0,4.0,64.0
9110,72.0,108.0,120.0,0.0,64.0
9111,63.0,5.0,90.0,2.0,64.0
9112,70.0,93.0,120.0,4.0,64.0
9113,70.0,2.0,120.0,0.0,64.0
9114,45.0,7.0,90.0,3.0,64.0
9115,62.0,0.0,90.0,2.0,64.0
9116,62.0,7.0,90.0,1.0,64.0
9117,69.0,21.0,90.0,4.0,64.0
9118,60.0,2.0,90.0,2.0,64.0
9119,69.0,100.0,90.0,0.0,64.0
9120,67.0,7.0,120.0,4.0,64.0
9121,58.0,5.0,90.0,2.0,64.0
9122,67.0,81.0,120.0,0.0,64.0
9123,62.0,4.0,90.0,1.0,64.0
9124,46.0,14.0,90.0,3.0,64.0
9125,69.0,27.0,90.0,4.0,64.0
9126,69.0,80.0,90.0,0.0,64.0
9127,70.0,2.0,90.0,4.0,64.0
9128,62.0,107.0,90.0,2.0,64.0
9129,43.0,9.0,60.0,3.0,64.0
9130,70.0,0.0,60.0,0.0,64.0
9131,67.0,16.0,330.0,1.0,64.0
9132,67.0,115.0,90.0,4.0,64.0
9133,67.0,12.0,90.0,0.0,64.0
9134,75.0,9.0,90.0,0.0,64.0
9135,75.0,4.0,90.0,4.0,64.0
9136,48.0,99.0,120.0,3.0,64.0
9137,60.0,20.0,90.0,2.0,64.0
9138,69.0,91.0,90.0,1.0,64.0
9139,70.0,27.0,90.0,1.0,64.0
9140,65.0,2.0,60.0,2.0,64.0
9141,50.0,82.0,90.0,3.0,64.0
9142,74.0,18.0,360.0,0.0,64.0
9143,74.0,41.0,390.0,4.0,64.0
9144,67.0,20.0,90.0,1.0,64.0
9145,51.0,115.0,90.0,3.0,64.0
9146,53.0,49.0,90.0,3.0,64.0
9147,53.0,11.0,90.0,2.0,64.0
9148,69.0,0.0,120.0,1.0,64.0
9149,55.0,16.0,90.0,3.0,64.0
9150,70.0,98.0,90.0,1.0,64.0
9151,57.0,65.0,90.0,3.0,64.0
9152,65.0,6.0,330.0,2.0,64.0
9153,72.0,8.0,60.0,1.0,64.0
9154,72.0,24.0,120.0,0.0,64.0
9155,72.0,20.0,150.0,4.0,64.0
9156,53.0,6.0,90.0,3.0,64.0
9157,69.0,140.0,90.0,1.0,64.0
9158,58.0,12.0,120.0,3.0,64.0
9159,70.0,6.0,540.0,1.0,64.0
9160,74.0,26.0,90.0,0.0,64.0
9161,74.0,67.0,120.0,4.0,64.0
9162,72.0,95.0,120.0,0.0,64.0
9163,63.0,24.0,90.0,2.0,64.0
9164,72.0,4.0,90.0,4.0,64.0
9165,57.0,84.0,120.0,3.0,64.0
9166,62.0,9.0,90.0,2.0,64.0
9167,70.0,9.0,90.0,4.0,64.0
9168,70.0,5.0,90.0,0.0,64.0
9169,72.0,1.0,90.0,4.0,64.0
9170,72.0,129.0,90.0,0.0,64.0
9171,60.0,5.0,90.0,2.0,64.0
9172,58.0,2.0,120.0,2.0,64.0
9173,74.0,2.0,120.0,4.0,64.0
9174,55.0,7.0,90.0,3.0,64.0
9175,74.0,109.0,90.0,0.0,64.0
9176,69.0,97.0,90.0,1.0,64.0
9177,67.0,5.0,90.0,4.0,64.0
9178,70.0,11.0,90.0,1.0,64.0
9179,67.0,4.0,90.0,0.0,64.0
9180,62.0,7.0,60.0,2.0,64.0
9181,58.0,80.0,90.0,3.0,64.0
9182,72.0,143.0,60.0,1.0,64.0
9183,70.0,20.0,90.0,1.0,64.0
9184,55.0,5.0,90.0,2.0,64.0
9185,72.0,6.0,90.0,4.0,64.0
9186,72.0,5.0,90.0,0.0,64.0
9187,51.0,86.0,120.0,3.0,64.0
9188,69.0,106.0,90.0,1.0,64.0
9189,67.0,25.0,90.0,1.0,64.0
9190,50.0,83.0,90.0,3.0,64.0
9191,70.0,3.0,360.0,0.0,64.0
9192,58.0,3.0,90.0,2.0,64.0
9193,70.0,17.0,420.0,4.0,64.0
9194,70.0,148.0,90.0,1.0,64.0
9195,48.0,18.0,120.0,3.0,64.0
9196,69.0,55.0,120.0,1.0,64.0
9197,63.0,11.0,90.0,2.0,64.0
9198,67.0,114.0,90.0,1.0,64.0
9199,66.0,19.0,90.0,1.0,64.0
9200,50.0,8.0,90.0,3.0,64.0
9201,57.0,65.0,90.0,2.0,64.0
9202,69.0,20.0,150.0,4.0,64.0
9203,69.0,0.0,150.0,0.0,64.0
9204,69.0,160.0,90.0,1.0,64.0
9205,67.0,4.0,120.0,1.0,64.0
9206,55.0,4.0,90.0,3.0,64.0
9207,50.0,41.0,90.0,2.0,64.0
9208,70.0,83.0,120.0,0.0,64.0
9209,70.0,1.0,120.0,4.0,64.0
9210,72.0,29.0,120.0,0.0,64.0
9211,57.0,8.0,90.0,2.0,64.0
9212,72.0,55.0,120.0,4.0,64.0
9213,62.0,31.0,90.0,1.0,64.0
9214,43.0,3.0,120.0,3.0,64.0
9215,70.0,55.0,120.0,4.0,64.0
9216,70.0,7.0,120.0,0.0,64.0
9217,58.0,6.0,90.0,2.0,64.0
9218,69.0,91.0,120.0,4.0,64.0
9219,60.0,45.0,60.0,2.0,64.0
9220,69.0,6.0,90.0,0.0,64.0
9221,67.0,2.0,120.0,4.0,64.0
9222,62.0,4.0,120.0,2.0,64.0
9223,67.0,17.0,540.0,1.0,64.0
9224,46.0,27.0,90.0,3.0,64.0
9225,67.0,73.0,120.0,0.0,64.0
9226,69.0,14.0,90.0,4.0,64.0
9227,63.0,13.0,90.0,2.0,64.0
9228,69.0,106.0,120.0,0.0,64.0
9229,70.0,22.0,120.0,4.0,64.0
9230,50.0,11.0,90.0,3.0,64.0
9231,62.0,9.0,90.0,2.0,64.0
9232,70.0,58.0,120.0,0.0,64.0
9233,72.0,0.0,90.0,4.0,64.0
9234,60.0,17.0,90.0,2.0,64.0
9235,72.0,107.0,90.0,0.0,64.0
9236,74.0,5.0,150.0,4.0,64.0
9237,53.0,11.0,90.0,3.0,64.0
9238,74.0,91.0,120.0,0.0,64.0
9239,59.0,31.0,90.0,2.0,64.0
9240,75.0,19.0,120.0,4.0,64.0
9241,75.0,78.0,120.0,0.0,64.0
9242,74.0,22.0,120.0,4.0,64.0
9243,43.0,4.0,90.0,3.0,64.0
9244,59.0,19.0,90.0,1.0,64.0
9245,62.0,1.0,90.0,2.0,64.0
9246,74.0,80.0,120.0,0.0,64.0
9247,72.0,16.0,120.0,4.0,64.0
9248,72.0,102.0,90.0,0.0,64.0
9249,71.0,6.0,120.0,4.0,64.0
9250,67.0,4.0,90.0,2.0,64.0
9251,62.0,18.0,90.0,1.0,64.0
9252,71.0,118.0,120.0,0.0,64.0
9253,53.0,35.0,570.0,3.0,64.0
9254,72.0,4.0,120.0,4.0,64.0
9255,72.0,91.0,120.0,0.0,64.0
9256,62.0,42.0,90.0,2.0,64.0
9257,67.0,92.0,390.0,1.0,64.0
9258,74.0,2.0,120.0,0.0,64.0
9259,74.0,55.0,120.0,4.0,64.0
9260,71.0,133.0,90.0,4.0,64.0
9261,71.0,9.0,90.0,0.0,64.0
9262,55.0,9.0,120.0,2.0,64.0
9263,72.0,2.0,120.0,4.0,64.0
9264,72.0,21.0,120.0,0.0,64.0
9265,74.0,64.0,150.0,4.0,64.0
9266,74.0,16.0,120.0,0.0,64.0
9267,72.0,86.0,120.0,4.0,64.0
9268,72.0,2.0,90.0,0.0,64.0
9269,60.0,9.0,90.0,2.0,64.0
9270,69.0,0.0,90.0,1.0,64.0
9271,51.0,7.0,90.0,3.0,64.0
9272,70.0,95.0,120.0,4.0,64.0
9273,62.0,5.0,90.0,2.0,64.0
9274,70.0,13.0,90.0,0.0,64.0
9275,70.0,4.0,90.0,1.0,64.0
9276,50.0,18.0,90.0,3.0,64.0
9277,69.0,11.0,120.0,0.0,64.0
9278,69.0,92.0,120.0,4.0,64.0
9279,63.0,0.0,90.0,2.0,64.0
9280,72.0,7.0,90.0,1.0,64.0
9281,48.0,7.0,90.0,3.0,64.0
9282,70.0,31.0,120.0,0.0,64.0
9283,65.0,7.0,90.0,2.0,64.0
9284,70.0,60.0,120.0,4.0,64.0
9285,63.0,15.0,90.0,2.0,64.0
9286,72.0,14.0,90.0,0.0,64.0
9287,46.0,5.0,120.0,3.0,64.0
9288,67.0,26.0,90.0,1.0,64.0
9289,72.0,53.0,120.0,4.0,64.0
9290,62.0,22.0,90.0,2.0,64.0
9291,74.0,18.0,90.0,0.0,64.0
9292,74.0,116.0,90.0,4.0,64.0
9293,60.0,53.0,390.0,2.0,64.0
9294,75.0,84.0,150.0,4.0,64.0
9295,75.0,1.0,120.0,0.0,64.0
9296,45.0,11.0,120.0,3.0,64.0
9297,72.0,27.0,90.0,1.0,64.0
9298,77.0,40.0,120.0,4.0,64.0
9299,77.0,77.0,150.0,0.0,64.0
9300,75.0,2.0,120.0,4.0,64.0
9301,70.0,24.0,90.0,1.0,64.0
9302,75.0,31.0,120.0,0.0,64.0
9303,43.0,1.0,120.0,3.0,64.0
9304,74.0,20.0,90.0,4.0,64.0
9305,74.0,108.0,120.0,0.0,64.0
9306,65.0,73.0,630.0,2.0,64.0
9307,72.0,25.0,90.0,1.0,64.0
9308,72.0,8.0,120.0,0.0,64.0
9309,72.0,83.0,120.0,4.0,64.0
9310,45.0,13.0,120.0,3.0,64.0
9311,74.0,13.0,120.0,0.0,64.0
9312,74.0,112.0,120.0,4.0,64.0
9313,75.0,8.0,120.0,0.0,64.0
9314,75.0,72.0,120.0,4.0,64.0
9315,69.0,1.0,120.0,1.0,64.0
9316,41.0,1.0,120.0,3.0,64.0
9317,72.0,5.0,90.0,0.0,64.0
9318,72.0,148.0,60.0,4.0,64.0
9319,74.0,9.0,150.0,0.0,64.0
9320,70.0,22.0,90.0,1.0,64.0
9321,74.0,4.0,120.0,4.0,64.0
9322,46.0,7.0,120.0,3.0,64.0
9323,75.0,106.0,120.0,4.0,64.0
9324,75.0,20.0,120.0,0.0,64.0
9325,74.0,90.0,120.0,4.0,64.0
9326,74.0,5.0,120.0,0.0,64.0
9327,63.0,4.0,120.0,2.0,64.0
9328,69.0,12.0,90.0,1.0,64.0
9329,48.0,2.0,120.0,3.0,64.0
9330,72.0,16.0,120.0,0.0,64.0
9331,72.0,109.0,120.0,4.0,64.0
9332,70.0,106.0,120.0,0.0,64.0
9333,70.0,7.0,120.0,4.0,64.0
9334,70.0,15.0,90.0,1.0,64.0
9335,65.0,0.0,90.0,2.0,64.0
9336,50.0,2.0,120.0,3.0,64.0
9337,72.0,5.0,120.0,4.0,64.0
9338,72.0,90.0,120.0,0.0,64.0
9339,74.0,17.0,90.0,4.0,64.0
9340,68.0,55.0,120.0,2.0,64.0
9341,65.0,5.0,90.0,1.0,64.0
9342,48.0,2.0,90.0,3.0,64.0
9343,74.0,21.0,90.0,0.0,64.0
9344,75.0,29.0,90.0,4.0,64.0
9345,75.0,135.0,90.0,0.0,64.0
9346,77.0,0.0,150.0,4.0,64.0
9347,67.0,17.0,120.0,2.0,64.0
9348,77.0,5.0,120.0,0.0,64.0
9349,47.0,0.0,120.0,3.0,64.0
9350,62.0,86.0,120.0,1.0,64.0
9351,79.0,89.0,120.0,4.0,64.0
9352,79.0,22.0,90.0,0.0,64.0
9353,45.0,15.0,90.0,3.0,64.0
9354,77.0,0.0,120.0,4.0,64.0
9355,60.0,3.0,90.0,2.0,64.0
9356,72.0,0.0,90.0,1.0,64.0
9357,77.0,117.0,120.0,0.0,64.0
9358,75.0,6.0,120.0,4.0,64.0
9359,75.0,109.0,120.0,0.0,64.0
9360,47.0,13.0,120.0,3.0,64.0
9361,74.0,16.0,120.0,1.0,64.0
9362,74.0,73.0,120.0,4.0,64.0
9363,74.0,6.0,90.0,0.0,64.0
9364,67.0,7.0,570.0,2.0,64.0
9365,75.0,18.0,120.0,0.0,64.0
9366,75.0,104.0,120.0,4.0,64.0
9367,71.0,2.0,90.0,1.0,64.0
9368,77.0,7.0,90.0,0.0,64.0
9369,77.0,79.0,120.0,4.0,64.0
9370,43.0,27.0,90.0,3.0,64.0
9371,74.0,3.0,90.0,4.0,64.0
9372,74.0,123.0,90.0,0.0,64.0
9373,75.0,30.0,120.0,4.0,64.0
9374,72.0,7.0,90.0,1.0,64.0
9375,75.0,91.0,150.0,0.0,64.0
9376,48.0,9.0,90.0,3.0,64.0
9377,77.0,91.0,150.0,4.0,64.0
9378,77.0,18.0,120.0,0.0,64.0
9379,67.0,9.0,120.0,1.0,64.0
9380,75.0,82.0,120.0,0.0,64.0
9381,36.0,13.0,120.0,3.0,64.0
9382,75.0,2.0,120.0,4.0,64.0
9383,60.0,2.0,90.0,2.0,64.0
9384,74.0,15.0,120.0,0.0,64.0
9385,62.0,40.0,90.0,2.0,64.0
9386,74.0,62.0,150.0,4.0,64.0
9387,72.0,9.0,90.0,0.0,64.0
9388,69.0,7.0,90.0,1.0,64.0
9389,63.0,16.0,90.0,2.0,64.0
9390,72.0,79.0,90.0,4.0,64.0
9391,48.0,191.0,480.0,3.0,64.0
9392,70.0,5.0,120.0,0.0,64.0
9393,62.0,39.0,90.0,2.0,64.0
9394,70.0,76.0,120.0,4.0,64.0
9395,69.0,0.0,90.0,0.0,64.0
9396,66.0,17.0,90.0,1.0,64.0
9397,63.0,28.0,90.0,2.0,64.0
9398,69.0,77.0,120.0,4.0,64.0
9399,67.0,8.0,90.0,0.0,64.0
9400,67.0,49.0,90.0,4.0,64.0
9401,67.0,13.0,210.0,1.0,64.0
9402,74.0,37.0,300.0,4.0,64.0
9403,62.0,31.0,240.0,2.0,64.0
9404,74.0,29.0,270.0,0.0,64.0
9405,45.0,6.0,90.0,3.0,64.0
9406,46.0,80.0,90.0,3.0,64.0
9407,48.0,94.0,90.0,3.0,64.0
9408,75.0,12.0,60.0,0.0,64.0
9409,75.0,15.0,60.0,4.0,64.0
9410,67.0,2.0,40.0,2.0,64.0
9411,63.0,2.0,40.0,1.0,64.0
9412,63.0,13.0,60.0,1.0,64.0
9413,67.0,2.0,60.0,2.0,64.0
9414,70.0,13.0,60.0,0.0,64.0
9415,50.0,17.0,120.0,3.0,64.0
9416,70.0,29.0,60.0,4.0,64.0
9417,66.0,2.0,60.0,2.0,64.0
9418,62.0,18.0,60.0,1.0,64.0
9419,69.0,2.0,60.0,0.0,64.0
9420,69.0,2.0,60.0,4.0,64.0
9421,70.0,7.0,90.0,0.0,64.0
9422,63.0,21.0,60.0,1.0,64.0
9423,67.0,15.0,90.0,2.0,64.0
9424,48.0,31.0,120.0,3.0,64.0
9425,70.0,15.0,90.0,4.0,64.0
9426,62.0,7.0,60.0,1.0,64.0
9427,69.0,34.0,120.0,0.0,64.0
9428,66.0,33.0,90.0,2.0,64.0
9429,69.0,27.0,150.0,4.0,64.0
9430,50.0,2.0,90.0,3.0,64.0
9431,69.0,84.0,90.0,1.0,64.0
9432,51.0,2.0,90.0,3.0,64.0
9433,67.0,2.0,60.0,2.0,64.0
9434,67.0,22.0,60.0,0.0,64.0
9435,67.0,117.0,60.0,4.0,64.0
9436,53.0,13.0,90.0,3.0,64.0
9437,59.0,106.0,90.0,2.0,64.0
9438,74.0,5.0,60.0,1.0,64.0
9439,67.0,13.0,2460.0,0.0,64.0
9440,67.0,23.0,2430.0,4.0,64.0
9441,51.0,138.0,90.0,3.0,64.0
9442,53.0,4.0,120.0,3.0,64.0
9443,72.0,4.0,330.0,1.0,64.0
9444,55.0,84.0,90.0,2.0,64.0
9445,55.0,155.0,90.0,3.0,64.0
9446,53.0,91.0,120.0,3.0,64.0
9447,62.0,7.0,90.0,2.0,64.0
9448,51.0,104.0,90.0,3.0,64.0
9449,50.0,28.0,90.0,3.0,64.0
9450,71.0,83.0,120.0,1.0,64.0
9451,62.0,21.0,90.0,2.0,64.0
9452,53.0,133.0,90.0,3.0,64.0
9453,72.0,48.0,120.0,1.0,64.0
9454,51.0,12.0,90.0,3.0,64.0
9455,55.0,56.0,120.0,2.0,64.0
9456,74.0,165.0,120.0,1.0,64.0
9457,75.0,47.0,150.0,1.0,64.0
9458,67.0,5.0,120.0,2.0,64.0
9459,50.0,35.0,360.0,3.0,64.0
9460,74.0,131.0,90.0,1.0,64.0
9461,65.0,4.0,60.0,2.0,64.0
9462,63.0,39.0,90.0,2.0,64.0
9463,72.0,21.0,120.0,1.0,64.0
9464,62.0,15.0,90.0,2.0,64.0
9465,71.0,127.0,90.0,1.0,64.0
9466,63.0,17.0,90.0,2.0,64.0
9467,72.0,47.0,90.0,1.0,64.0
9468,48.0,34.0,120.0,3.0,64.0
9469,60.0,23.0,90.0,2.0,64.0
9470,69.0,133.0,90.0,1.0,64.0
9471,65.0,2.0,90.0,2.0,64.0
9472,50.0,15.0,90.0,3.0,64.0
9473,71.0,91.0,120.0,1.0,64.0
9474,63.0,5.0,90.0,2.0,64.0
9475,72.0,93.0,120.0,1.0,64.0
9476,48.0,24.0,90.0,3.0,64.0
9477,62.0,7.0,90.0,2.0,64.0
9478,47.0,0.0,90.0,3.0,64.0
9479,74.0,88.0,90.0,1.0,64.0
9480,48.0,5.0,90.0,3.0,64.0
9481,72.0,4.0,90.0,1.0,64.0
9482,63.0,108.0,90.0,2.0,64.0
9483,50.0,102.0,120.0,3.0,64.0
9484,71.0,3.0,90.0,1.0,64.0
9485,65.0,4.0,90.0,2.0,64.0
9486,72.0,8.0,120.0,1.0,64.0
9487,63.0,105.0,90.0,2.0,64.0
9488,71.0,1.0,120.0,1.0,64.0
9489,43.0,1.0,90.0,3.0,64.0
9490,65.0,9.0,90.0,2.0,64.0
9491,67.0,4.0,90.0,0.0,64.0
9492,67.0,80.0,90.0,4.0,64.0
9493,69.0,142.0,90.0,1.0,64.0
9494,62.0,22.0,60.0,2.0,64.0
9495,63.0,0.0,120.0,2.0,64.0
9496,67.0,40.0,3000.0,1.0,64.0
9497,75.0,0.0,90.0,0.0,64.0
9498,48.0,9.0,90.0,3.0,64.0
9499,75.0,148.0,90.0,4.0,64.0
9500,65.0,71.0,150.0,2.0,64.0
9501,67.0,99.0,90.0,2.0,64.0
9502,74.0,11.0,360.0,4.0,64.0
9503,47.0,2.0,360.0,3.0,64.0
9504,74.0,31.0,360.0,0.0,64.0
9505,65.0,138.0,90.0,2.0,64.0
9506,63.0,53.0,90.0,2.0,64.0
9507,62.0,152.0,90.0,2.0,64.0
9508,63.0,29.0,120.0,2.0,64.0
9509,45.0,5.0,120.0,3.0,64.0
9510,72.0,20.0,120.0,4.0,64.0
9511,72.0,33.0,120.0,0.0,64.0
9512,60.0,164.0,90.0,2.0,64.0
9513,65.0,22.0,120.0,2.0,64.0
9514,47.0,64.0,120.0,3.0,64.0
9515,74.0,8.0,120.0,4.0,64.0
9516,74.0,1.0,90.0,0.0,64.0
9517,63.0,18.0,90.0,2.0,64.0
9518,48.0,0.0,90.0,3.0,64.0
9519,75.0,98.0,90.0,0.0,64.0
9520,75.0,6.0,90.0,4.0,64.0
9521,62.0,28.0,90.0,2.0,64.0
9522,47.0,82.0,120.0,3.0,64.0
9523,77.0,15.0,300.0,4.0,64.0
9524,77.0,11.0,300.0,0.0,64.0
9525,45.0,5.0,90.0,3.0,64.0
9526,60.0,115.0,90.0,2.0,64.0
9527,43.0,97.0,120.0,3.0,64.0
9528,59.0,12.0,120.0,2.0,64.0
9529,45.0,31.0,120.0,3.0,64.0
9530,60.0,6.0,90.0,2.0,64.0
9531,75.0,76.0,120.0,4.0,64.0
9532,75.0,0.0,90.0,0.0,64.0
9533,47.0,6.0,90.0,3.0,64.0
9534,62.0,33.0,90.0,2.0,64.0
9535,74.0,55.0,120.0,4.0,64.0
9536,74.0,3.0,90.0,0.0,64.0
9537,48.0,14.0,90.0,3.0,64.0
9538,63.0,17.0,90.0,2.0,64.0
9539,72.0,143.0,90.0,4.0,64.0
9540,72.0,4.0,90.0,0.0,64.0
9541,50.0,83.0,120.0,3.0,64.0
9542,71.0,5.0,120.0,0.0,64.0
9543,71.0,0.0,120.0,4.0,64.0
9544,65.0,1.0,120.0,2.0,64.0
9545,51.0,17.0,90.0,3.0,64.0
9546,69.0,26.0,150.0,0.0,64.0
9547,69.0,53.0,150.0,4.0,64.0
9548,67.0,24.0,90.0,2.0,64.0
9549,50.0,3.0,120.0,3.0,64.0
9550,71.0,11.0,90.0,4.0,64.0
9551,65.0,11.0,90.0,2.0,64.0
9552,71.0,80.0,90.0,0.0,64.0
9553,48.0,24.0,90.0,3.0,64.0
9554,72.0,74.0,120.0,4.0,64.0
9555,63.0,8.0,120.0,2.0,64.0
9556,72.0,18.0,90.0,0.0,64.0
9557,47.0,28.0,120.0,3.0,64.0
9558,62.0,22.0,90.0,2.0,64.0
9559,74.0,69.0,120.0,4.0,64.0
9560,74.0,11.0,120.0,0.0,64.0
9561,43.0,75.0,150.0,3.0,64.0
9562,59.0,13.0,90.0,2.0,64.0
9563,75.0,36.0,90.0,4.0,64.0
9564,75.0,0.0,90.0,0.0,64.0
9565,45.0,39.0,150.0,3.0,64.0
9566,60.0,5.0,90.0,2.0,64.0
9567,77.0,30.0,120.0,4.0,64.0
9568,77.0,23.0,90.0,0.0,64.0
9569,47.0,104.0,120.0,3.0,64.0
9570,74.0,5.0,90.0,4.0,64.0
9571,62.0,12.0,60.0,2.0,64.0
9572,74.0,37.0,90.0,0.0,64.0
9573,48.0,2.0,120.0,3.0,64.0
9574,75.0,3.0,120.0,4.0,64.0
9575,75.0,26.0,90.0,0.0,64.0
9576,55.0,51.0,180.0,2.0,64.0
9577,50.0,20.0,120.0,3.0,64.0
9578,77.0,70.0,120.0,4.0,64.0
9579,77.0,4.0,90.0,0.0,64.0
9580,48.0,26.0,90.0,3.0,64.0
9581,75.0,9.0,90.0,0.0,64.0
9582,60.0,5.0,90.0,2.0,64.0
9583,75.0,60.0,120.0,4.0,64.0
9584,67.0,7.0,90.0,1.0,64.0
9585,74.0,4.0,90.0,0.0,64.0
9586,46.0,33.0,90.0,3.0,64.0
9587,62.0,11.0,90.0,2.0,64.0
9588,74.0,98.0,120.0,4.0,64.0
9589,72.0,6.0,90.0,0.0,64.0
9590,63.0,43.0,90.0,2.0,64.0
9591,72.0,9.0,570.0,1.0,64.0
9592,45.0,9.0,90.0,3.0,64.0
9593,72.0,51.0,120.0,4.0,64.0
9594,74.0,6.0,90.0,0.0,64.0
9595,46.0,29.0,90.0,3.0,64.0
9596,74.0,86.0,120.0,4.0,64.0
9597,75.0,7.0,90.0,0.0,64.0
9598,48.0,9.0,90.0,3.0,64.0
9599,60.0,15.0,90.0,2.0,64.0
9600,75.0,75.0,90.0,4.0,64.0
9601,72.0,5.0,90.0,0.0,64.0
9602,50.0,22.0,90.0,3.0,64.0
9603,72.0,104.0,90.0,4.0,64.0
9604,51.0,76.0,120.0,3.0,64.0
9605,65.0,19.0,90.0,2.0,64.0
9606,69.0,5.0,90.0,0.0,64.0
9607,69.0,2.0,90.0,4.0,64.0
9608,53.0,31.0,90.0,3.0,64.0
9609,74.0,108.0,90.0,1.0,64.0
9610,51.0,9.0,90.0,3.0,64.0
9611,57.0,15.0,90.0,2.0,64.0
9612,72.0,83.0,120.0,1.0,64.0
9613,77.0,58.0,360.0,0.0,64.0
9614,77.0,3.0,330.0,4.0,64.0
9615,50.0,32.0,90.0,3.0,64.0
9616,70.0,100.0,120.0,1.0,64.0
9617,48.0,13.0,90.0,3.0,64.0
9618,69.0,17.0,120.0,1.0,64.0
9619,60.0,20.0,90.0,2.0,64.0
9620,53.0,20.0,90.0,3.0,64.0
9621,70.0,108.0,90.0,1.0,64.0
9622,51.0,8.0,90.0,3.0,64.0
9623,72.0,5.0,90.0,1.0,64.0
9624,53.0,20.0,90.0,2.0,64.0
9625,69.0,71.0,120.0,4.0,64.0
9626,69.0,5.0,90.0,0.0,64.0
9627,53.0,18.0,90.0,3.0,64.0
9628,69.0,137.0,90.0,1.0,64.0
9629,50.0,66.0,120.0,3.0,64.0
9630,65.0,35.0,90.0,2.0,64.0
9631,65.0,2.0,570.0,1.0,64.0
9632,70.0,58.0,330.0,4.0,64.0
9633,70.0,9.0,300.0,0.0,64.0
9634,51.0,95.0,90.0,3.0,64.0
9635,67.0,9.0,90.0,2.0,64.0
9636,65.0,34.0,90.0,2.0,64.0
9637,50.0,8.0,120.0,3.0,64.0
9638,63.0,18.0,90.0,2.0,64.0
9639,48.0,132.0,90.0,3.0,64.0
9640,72.0,11.0,60.0,0.0,64.0
9641,72.0,7.0,40.0,4.0,64.0
9642,46.0,5.0,120.0,3.0,64.0
9643,62.0,37.0,630.0,2.0,64.0
9644,74.0,2.0,90.0,0.0,64.0
9645,74.0,75.0,90.0,4.0,64.0
9646,48.0,105.0,120.0,3.0,64.0
9647,76.0,16.0,60.0,0.0,64.0
9648,76.0,8.0,90.0,4.0,64.0
9649,50.0,15.0,120.0,3.0,64.0
9650,78.0,15.0,90.0,0.0,64.0
9651,78.0,16.0,90.0,4.0,64.0
9652,74.0,45.0,120.0,1.0,64.0
9653,52.0,24.0,90.0,3.0,64.0
9654,79.0,120.0,90.0,4.0,64.0
9655,79.0,6.0,90.0,0.0,64.0
9656,54.0,37.0,120.0,3.0,64.0
9657,81.0,5.0,90.0,4.0,64.0
9658,72.0,11.0,120.0,1.0,64.0
9659,81.0,7.0,90.0,0.0,64.0
9660,55.0,140.0,90.0,3.0,64.0
9661,70.0,7.0,90.0,1.0,64.0
9662,54.0,31.0,90.0,3.0,64.0
9663,69.0,75.0,120.0,1.0,64.0
9664,72.0,16.0,330.0,0.0,64.0
9665,72.0,4.0,330.0,4.0,64.0
9666,62.0,28.0,390.0,2.0,64.0
9667,67.0,6.0,90.0,1.0,64.0
9668,52.0,120.0,90.0,3.0,64.0
9669,50.0,11.0,120.0,3.0,64.0
9670,66.0,29.0,120.0,1.0,64.0
9671,67.0,42.0,60.0,1.0,64.0
9672,52.0,41.0,120.0,3.0,64.0
9673,70.0,1.0,60.0,0.0,64.0
9674,70.0,63.0,90.0,4.0,64.0
9675,69.0,13.0,90.0,1.0,64.0
9676,54.0,25.0,90.0,3.0,64.0
9677,62.0,24.0,360.0,2.0,64.0
9678,69.0,2.0,90.0,0.0,64.0
9679,69.0,47.0,90.0,4.0,64.0
9680,66.0,17.0,60.0,1.0,64.0
9681,50.0,15.0,60.0,3.0,64.0
9682,72.0,35.0,60.0,0.0,64.0
9683,72.0,100.0,90.0,4.0,64.0
9684,55.0,14.0,120.0,3.0,64.0
9685,62.0,42.0,150.0,1.0,64.0
9686,70.0,20.0,90.0,0.0,64.0
9687,70.0,15.0,90.0,4.0,64.0
9688,53.0,127.0,90.0,3.0,64.0
9689,51.0,33.0,90.0,3.0,64.0
9690,69.0,15.0,300.0,0.0,64.0
9691,60.0,77.0,120.0,1.0,64.0
9692,69.0,5.0,300.0,4.0,64.0
9693,66.0,20.0,300.0,2.0,64.0
9694,50.0,71.0,120.0,3.0,64.0
9695,62.0,31.0,90.0,1.0,64.0
9696,48.0,13.0,90.0,3.0,64.0
9697,63.0,91.0,120.0,1.0,64.0
9698,46.0,16.0,90.0,3.0,64.0
9699,67.0,9.0,90.0,2.0,64.0
9700,67.0,4.0,90.0,0.0,64.0
9701,67.0,77.0,90.0,4.0,64.0
9702,66.0,20.0,60.0,0.0,64.0
9703,45.0,16.0,90.0,3.0,64.0
9704,72.0,164.0,390.0,1.0,64.0
9705,66.0,70.0,90.0,4.0,64.0
9706,69.0,37.0,300.0,2.0,64.0
9707,69.0,20.0,90.0,0.0,64.0
9708,43.0,95.0,120.0,3.0,64.0
9709,69.0,25.0,90.0,4.0,64.0
9710,62.0,5.0,120.0,0.0,64.0
9711,42.0,15.0,120.0,3.0,64.0
9712,62.0,40.0,120.0,4.0,64.0
9713,62.0,2.0,120.0,2.0,64.0
9714,70.0,16.0,90.0,1.0,64.0
9715,43.0,11.0,120.0,3.0,64.0
9716,74.0,17.0,120.0,4.0,64.0
9717,74.0,60.0,120.0,0.0,64.0
9718,69.0,158.0,90.0,1.0,64.0
9719,67.0,7.0,120.0,1.0,64.0
9720,50.0,4.0,120.0,3.0,64.0
9721,72.0,0.0,120.0,4.0,64.0
9722,62.0,20.0,150.0,2.0,64.0
9723,72.0,28.0,120.0,0.0,64.0
9724,70.0,0.0,60.0,0.0,64.0
9725,70.0,190.0,60.0,4.0,64.0
9726,60.0,1.0,150.0,2.0,64.0
9727,69.0,1.0,120.0,0.0,64.0
9728,66.0,64.0,150.0,1.0,64.0
9729,69.0,19.0,120.0,4.0,64.0
9730,38.0,6.0,150.0,3.0,64.0
9731,67.0,8.0,120.0,0.0,64.0
9732,67.0,171.0,120.0,4.0,64.0
9733,67.0,13.0,390.0,0.0,64.0
9734,67.0,69.0,120.0,4.0,64.0
9735,62.0,15.0,270.0,1.0,64.0
9736,43.0,75.0,1800.0,3.0,64.0
9737,58.0,22.0,300.0,2.0,64.0
9738,79.0,79.0,40.0,4.0,64.0
9739,77.0,29.0,90.0,4.0,64.0
9740,75.0,38.0,40.0,4.0,64.0
9741,77.0,8.0,40.0,4.0,64.0
9742,75.0,28.0,30.0,4.0,64.0
9743,69.0,25.0,60.0,0.0,64.0
9744,77.0,22.0,30.0,4.0,64.0
9745,75.0,4.0,30.0,4.0,64.0
9746,77.0,25.0,30.0,4.0,64.0
9747,70.0,23.0,60.0,0.0,64.0
9748,75.0,5.0,150.0,4.0,64.0
9749,69.0,32.0,30.0,0.0,64.0
9750,70.0,15.0,30.0,0.0,64.0
9751,69.0,34.0,20.0,0.0,64.0
9752,70.0,26.0,40.0,0.0,64.0
9753,69.0,31.0,40.0,0.0,64.0
9754,74.0,15.0,40.0,4.0,64.0
9755,67.0,12.0,60.0,0.0,64.0
9756,69.0,142.0,30.0,0.0,64.0
9757,70.0,92.0,150.0,0.0,64.0
9758,74.0,7.0,390.0,4.0,64.0
9759,67.0,154.0,40.0,0.0,64.0
9760,74.0,59.0,120.0,0.0,64.0
9761,75.0,67.0,240.0,0.0,64.0
9762,72.0,27.0,40.0,4.0,64.0
9763,70.0,132.0,40.0,4.0,64.0
9764,72.0,13.0,120.0,4.0,64.0
9765,70.0,26.0,40.0,4.0,64.0
9766,77.0,2.0,30.0,0.0,64.0
9767,69.0,73.0,30.0,4.0,64.0
9768,75.0,46.0,60.0,0.0,64.0
9769,70.0,28.0,120.0,4.0,64.0
9770,74.0,59.0,90.0,0.0,64.0
9771,72.0,13.0,30.0,4.0,64.0
9772,72.0,107.0,30.0,0.0,64.0
9773,72.0,4.0,150.0,4.0,64.0
9774,72.0,39.0,90.0,0.0,64.0
9775,70.0,15.0,60.0,0.0,64.0
9776,74.0,80.0,480.0,4.0,64.0
9777,45.0,77.0,60.0,3.0,64.0
9778,69.0,11.0,30.0,0.0,64.0
9779,46.0,9.0,60.0,3.0,64.0
9780,69.0,7.0,60.0,0.0,64.0
9781,45.0,34.0,30.0,3.0,64.0
9782,67.0,14.0,60.0,0.0,64.0
9783,46.0,4.0,30.0,3.0,64.0
9784,45.0,37.0,30.0,3.0,64.0
9785,46.0,19.0,40.0,3.0,64.0
9786,45.0,30.0,30.0,3.0,64.0
9787,66.0,21.0,40.0,0.0,64.0
9788,43.0,19.0,60.0,3.0,64.0
9789,45.0,95.0,40.0,3.0,64.0
9790,66.0,1.0,120.0,0.0,64.0
9791,46.0,18.0,90.0,3.0,64.0
9792,67.0,58.0,270.0,0.0,64.0
9793,67.0,10.0,40.0,4.0,64.0
9794,43.0,167.0,40.0,3.0,64.0
9795,51.0,17.0,360.0,3.0,64.0
9796,72.0,36.0,390.0,4.0,64.0
9797,69.0,23.0,40.0,0.0,64.0
9798,70.0,68.0,30.0,0.0,64.0
9799,70.0,21.0,40.0,0.0,64.0
9800,69.0,34.0,30.0,0.0,64.0
9801,70.0,16.0,40.0,0.0,64.0
9802,69.0,32.0,90.0,0.0,64.0
9803,72.0,12.0,40.0,4.0,64.0
9804,53.0,1.0,40.0,3.0,64.0
9805,67.0,161.0,40.0,0.0,64.0
9806,72.0,3.0,150.0,4.0,64.0
9807,66.0,65.0,150.0,0.0,64.0
9808,51.0,9.0,150.0,3.0,64.0
9809,62.0,1.0,420.0,1.0,64.0
9810,50.0,7.0,960.0,3.0,64.0
9811,74.0,7.0,40.0,4.0,64.0
9812,62.0,106.0,40.0,0.0,64.0
9813,72.0,11.0,90.0,4.0,64.0
9814,69.0,25.0,90.0,0.0,64.0
9815,70.0,8.0,40.0,4.0,64.0
9816,67.0,38.0,60.0,0.0,64.0
9817,72.0,5.0,60.0,4.0,64.0
9818,69.0,18.0,40.0,0.0,64.0
9819,70.0,8.0,30.0,4.0,64.0
9820,67.0,29.0,40.0,0.0,64.0
9821,64.0,16.0,60.0,1.0,64.0
9822,72.0,5.0,40.0,4.0,64.0
9823,69.0,0.0,40.0,0.0,64.0
9824,66.0,7.0,60.0,1.0,64.0
9825,70.0,6.0,30.0,4.0,64.0
9826,67.0,20.0,30.0,0.0,64.0
9827,72.0,13.0,30.0,4.0,64.0
9828,69.0,1.0,30.0,0.0,64.0
9829,64.0,6.0,30.0,1.0,64.0
9830,67.0,17.0,30.0,0.0,64.0
9831,70.0,6.0,20.0,4.0,64.0
9832,66.0,6.0,30.0,1.0,64.0
9833,69.0,14.0,30.0,0.0,64.0
9834,72.0,1.0,20.0,4.0,64.0
9835,64.0,2.0,30.0,1.0,64.0
9836,70.0,5.0,20.0,4.0,64.0
9837,67.0,26.0,20.0,0.0,64.0
9838,72.0,7.0,40.0,4.0,64.0
9839,69.0,8.0,40.0,0.0,64.0
9840,66.0,9.0,40.0,1.0,64.0
9841,70.0,28.0,40.0,4.0,64.0
9842,67.0,10.0,30.0,0.0,64.0
9843,64.0,3.0,40.0,1.0,64.0
9844,66.0,8.0,40.0,0.0,64.0
9845,62.0,20.0,40.0,1.0,64.0
9846,69.0,3.0,30.0,4.0,64.0
9847,67.0,3.0,60.0,0.0,64.0
9848,70.0,106.0,60.0,4.0,64.0
9849,64.0,6.0,40.0,1.0,64.0
9850,66.0,108.0,120.0,1.0,64.0
9851,69.0,94.0,360.0,0.0,64.0
9852,69.0,29.0,330.0,4.0,64.0
9853,62.0,109.0,40.0,1.0,64.0
9854,72.0,80.0,600.0,1.0,64.0
9855,50.0,2.0,40.0,3.0,64.0
9856,78.0,5.0,40.0,4.0,64.0
9857,78.0,89.0,40.0,0.0,64.0
9858,79.0,6.0,90.0,4.0,64.0
9859,52.0,10.0,90.0,3.0,64.0
9860,79.0,122.0,90.0,0.0,64.0
9861,54.0,4.0,40.0,3.0,64.0
9862,81.0,1.0,40.0,4.0,64.0
9863,81.0,107.0,40.0,0.0,64.0
9864,55.0,18.0,1050.0,3.0,64.0
9865,74.0,15.0,90.0,4.0,64.0
9866,74.0,20.0,120.0,0.0,64.0
9867,55.0,66.0,390.0,2.0,64.0
9868,71.0,0.0,40.0,1.0,64.0
9869,75.0,2.0,40.0,0.0,64.0
9870,75.0,35.0,40.0,4.0,64.0
9871,69.0,118.0,40.0,1.0,64.0
9872,71.0,2.0,120.0,1.0,64.0
9873,75.0,10.0,120.0,4.0,64.0
9874,75.0,30.0,120.0,0.0,64.0
9875,77.0,57.0,510.0,4.0,64.0
9876,77.0,21.0,480.0,0.0,64.0
9877,57.0,6.0,60.0,2.0,64.0
9878,72.0,35.0,60.0,1.0,64.0
9879,59.0,5.0,40.0,2.0,64.0
9880,74.0,17.0,40.0,1.0,64.0
9881,57.0,5.0,30.0,2.0,64.0
9882,72.0,25.0,30.0,1.0,64.0
9883,59.0,3.0,30.0,2.0,64.0
9884,74.0,18.0,30.0,1.0,64.0
9885,57.0,5.0,30.0,2.0,64.0
9886,72.0,36.0,30.0,1.0,64.0
9887,59.0,3.0,40.0,2.0,64.0
9888,74.0,19.0,40.0,1.0,64.0
9889,57.0,36.0,40.0,2.0,64.0
9890,72.0,0.0,30.0,1.0,64.0
9891,55.0,26.0,60.0,2.0,64.0
9892,71.0,9.0,40.0,1.0,64.0
9893,72.0,99.0,60.0,1.0,64.0
9894,57.0,4.0,40.0,2.0,64.0
9895,59.0,16.0,120.0,2.0,64.0
9896,74.0,10.0,360.0,1.0,64.0
9897,74.0,23.0,30.0,0.0,64.0
9898,55.0,101.0,60.0,2.0,64.0
9899,74.0,10.0,30.0,4.0,64.0
9900,72.0,7.0,120.0,0.0,64.0
9901,67.0,2.0,690.0,2.0,64.0
9902,72.0,81.0,120.0,4.0,64.0
9903,71.0,3.0,90.0,0.0,64.0
9904,71.0,3.0,90.0,4.0,64.0
9905,43.0,52.0,60.0,3.0,64.0
9906,65.0,9.0,30.0,1.0,64.0
9907,45.0,23.0,90.0,3.0,64.0
9908,65.0,50.0,40.0,1.0,64.0
9909,72.0,4.0,120.0,0.0,64.0
9910,72.0,16.0,120.0,4.0,64.0
9911,63.0,84.0,90.0,1.0,64.0
9912,65.0,5.0,30.0,1.0,64.0
9913,47.0,17.0,40.0,3.0,64.0
9914,74.0,2.0,40.0,0.0,64.0
9915,62.0,0.0,30.0,1.0,64.0
9916,74.0,122.0,40.0,4.0,64.0
9917,48.0,0.0,360.0,3.0,64.0
9918,60.0,9.0,120.0,1.0,64.0
9919,75.0,83.0,120.0,0.0,64.0
9920,75.0,3.0,120.0,4.0,64.0
9921,58.0,122.0,40.0,1.0,64.0
9922,77.0,11.0,40.0,0.0,64.0
9923,77.0,1.0,30.0,4.0,64.0
9924,57.0,10.0,120.0,1.0,64.0
9925,75.0,0.0,120.0,0.0,64.0
9926,66.0,21.0,120.0,2.0,64.0
9927,75.0,74.0,120.0,4.0,64.0
9928,74.0,3.0,480.0,0.0,64.0
9929,74.0,8.0,480.0,4.0,64.0
9930,45.0,19.0,40.0,3.0,64.0
9931,69.0,4.0,60.0,2.0,64.0
9932,66.0,9.0,40.0,1.0,64.0
9933,46.0,38.0,40.0,3.0,64.0
9934,48.0,25.0,40.0,3.0,64.0
9935,67.0,50.0,90.0,1.0,64.0
9936,62.0,1.0,90.0,2.0,64.0
9937,46.0,31.0,30.0,3.0,64.0
9938,48.0,3.0,40.0,3.0,64.0
9939,46.0,72.0,60.0,3.0,64.0
9940,66.0,4.0,60.0,2.0,64.0
9941,69.0,12.0,40.0,1.0,64.0
9942,45.0,97.0,30.0,3.0,64.0
9943,67.0,41.0,360.0,2.0,64.0
9944,62.0,21.0,90.0,1.0,64.0
9945,46.0,73.0,120.0,3.0,64.0
9946,45.0,19.0,40.0,3.0,64.0
9947,58.0,1.0,40.0,1.0,64.0
9948,75.0,12.0,40.0,4.0,64.0
9949,75.0,4.0,60.0,0.0,64.0
9950,43.0,96.0,40.0,3.0,64.0
9951,51.0,64.0,600.0,3.0,64.0
9952,72.0,26.0,90.0,4.0,64.0
9953,55.0,35.0,180.0,1.0,64.0
9954,72.0,9.0,90.0,0.0,64.0
9955,67.0,1.0,40.0,0.0,64.0
9956,67.0,64.0,40.0,4.0,64.0
9957,65.0,8.0,30.0,2.0,64.0
9958,69.0,0.0,90.0,0.0,64.0
9959,65.0,19.0,40.0,2.0,64.0
9960,69.0,72.0,120.0,4.0,64.0
9961,60.0,9.0,570.0,1.0,64.0
9962,63.0,34.0,30.0,2.0,64.0
9963,65.0,9.0,30.0,2.0,64.0
9964,63.0,27.0,90.0,2.0,64.0
9965,70.0,3.0,40.0,4.0,64.0
9966,62.0,10.0,40.0,2.0,64.0
9967,70.0,27.0,40.0,0.0,64.0
9968,60.0,120.0,40.0,2.0,64.0
9969,70.0,10.0,120.0,4.0,64.0
9970,70.0,0.0,120.0,0.0,64.0
9971,65.0,102.0,570.0,2.0,64.0
9972,69.0,3.0,240.0,4.0,64.0
9973,69.0,86.0,240.0,0.0,64.0
9974,50.0,35.0,30.0,3.0,64.0
9975,48.0,118.0,40.0,3.0,64.0
9976,53.0,12.0,120.0,3.0,64.0
9977,51.0,0.0,40.0,3.0,64.0
9978,72.0,14.0,40.0,0.0,64.0
9979,72.0,1.0,40.0,4.0,64.0
9980,69.0,105.0,40.0,1.0,64.0
9981,50.0,5.0,120.0,3.0,64.0
9982,71.0,5.0,90.0,1.0,64.0
9983,77.0,0.0,390.0,4.0,64.0
9984,77.0,46.0,360.0,0.0,64.0
9985,48.0,10.0,40.0,3.0,64.0
9986,56.0,161.0,40.0,2.0,64.0
9987,72.0,1.0,40.0,1.0,64.0
9988,47.0,34.0,180.0,3.0,64.0
9989,74.0,4.0,840.0,1.0,64.0
9990,55.0,11.0,360.0,2.0,64.0
9991,75.0,23.0,40.0,4.0,64.0
9992,75.0,0.0,40.0,0.0,64.0
9993,74.0,2.0,40.0,0.0,64.0
9994,74.0,86.0,40.0,4.0,64.0
9995,48.0,17.0,120.0,3.0,64.0
9996,79.0,9.0,90.0,4.0,64.0
9997,79.0,2.0,120.0,0.0,64.0
9998,47.0,45.0,60.0,3.0,64.0
9999,48.0,20.0,60.0,3.0,64.0
10000,62.0,25.0,40.0,2.0,64.0
10001,77.0,4.0,40.0,0.0,64.0
10002,77.0,6.0,30.0,4.0,64.0
10003,47.0,1.0,30.0,3.0,64.0
10004,48.0,16.0,40.0,3.0,64.0
10005,47.0,16.0,20.0,3.0,64.0
10006,67.0,62.0,390.0,2.0,64.0
10007,77.0,6.0,40.0,0.0,64.0
10008,77.0,11.0,40.0,4.0,64.0
10009,48.0,9.0,30.0,3.0,64.0
10010,75.0,9.0,30.0,0.0,64.0
10011,75.0,19.0,30.0,4.0,64.0
10012,47.0,0.0,20.0,3.0,64.0
10013,77.0,4.0,30.0,0.0,64.0
10014,77.0,40.0,30.0,4.0,64.0
10015,48.0,4.0,60.0,3.0,64.0
10016,75.0,25.0,60.0,0.0,64.0
10017,75.0,4.0,40.0,4.0,64.0
10018,47.0,45.0,40.0,3.0,64.0
10019,45.0,7.0,40.0,3.0,64.0
10020,74.0,6.0,30.0,4.0,64.0
10021,74.0,13.0,40.0,0.0,64.0
10022,47.0,113.0,40.0,3.0,64.0
10023,48.0,10.0,120.0,3.0,64.0
10024,74.0,4.0,120.0,4.0,64.0
10025,74.0,20.0,120.0,0.0,64.0
10026,75.0,2.0,270.0,0.0,64.0
10027,75.0,72.0,270.0,4.0,64.0
10028,65.0,28.0,30.0,2.0,64.0
10029,36.0,28.0,40.0,3.0,64.0
10030,67.0,2.0,40.0,1.0,64.0
10031,65.0,29.0,30.0,2.0,64.0
10032,72.0,16.0,90.0,1.0,64.0
10033,48.0,39.0,600.0,3.0,64.0
10034,63.0,32.0,30.0,2.0,64.0
10035,65.0,22.0,40.0,2.0,64.0
10036,63.0,20.0,60.0,2.0,64.0
10037,69.0,4.0,40.0,4.0,64.0
10038,75.0,1.0,60.0,1.0,64.0
10039,69.0,13.0,30.0,0.0,64.0
10040,62.0,10.0,40.0,2.0,64.0
10041,70.0,4.0,40.0,4.0,64.0
10042,70.0,93.0,40.0,0.0,64.0
10043,69.0,16.0,90.0,1.0,64.0
10044,63.0,87.0,240.0,2.0,64.0
10045,72.0,94.0,120.0,4.0,64.0
10046,72.0,6.0,90.0,0.0,64.0
10047,70.0,13.0,40.0,0.0,64.0
10048,70.0,6.0,40.0,4.0,64.0
10049,72.0,16.0,40.0,1.0,64.0
10050,69.0,9.0,40.0,0.0,64.0
10051,69.0,5.0,40.0,4.0,64.0
10052,66.0,13.0,90.0,1.0,64.0
10053,74.0,4.0,360.0,0.0,64.0
10054,57.0,41.0,150.0,2.0,64.0
10055,74.0,18.0,330.0,4.0,64.0
10056,46.0,5.0,40.0,3.0,64.0
10057,58.0,9.0,30.0,2.0,64.0
10058,62.0,17.0,40.0,1.0,64.0
10059,45.0,3.0,40.0,3.0,64.0
10060,60.0,105.0,40.0,2.0,64.0
10061,46.0,4.0,120.0,3.0,64.0
10062,67.0,78.0,600.0,1.0,64.0
10063,62.0,79.0,120.0,2.0,64.0
10064,67.0,6.0,40.0,0.0,64.0
10065,67.0,8.0,40.0,4.0,64.0
10066,51.0,10.0,60.0,3.0,64.0
10067,60.0,3.0,40.0,2.0,64.0
10068,69.0,3.0,40.0,0.0,64.0
10069,69.0,107.0,40.0,4.0,64.0
10070,50.0,7.0,120.0,3.0,64.0
10071,62.0,0.0,120.0,2.0,64.0
10072,70.0,94.0,120.0,0.0,64.0
10073,70.0,0.0,120.0,4.0,64.0
10074,69.0,12.0,40.0,0.0,64.0
10075,69.0,2.0,60.0,4.0,64.0
10076,51.0,5.0,60.0,3.0,64.0
10077,58.0,15.0,40.0,2.0,64.0
10078,67.0,4.0,40.0,0.0,64.0
10079,67.0,28.0,40.0,4.0,64.0
10080,45.0,18.0,120.0,3.0,64.0
10081,72.0,15.0,40.0,0.0,64.0
10082,60.0,12.0,120.0,2.0,64.0
10083,72.0,21.0,40.0,4.0,64.0
10084,70.0,9.0,40.0,0.0,64.0
10085,70.0,26.0,40.0,4.0,64.0
10086,72.0,79.0,330.0,0.0,64.0
10087,72.0,27.0,270.0,4.0,64.0
10088,66.0,1.0,40.0,1.0,64.0
10089,46.0,19.0,40.0,3.0,64.0
10090,58.0,9.0,40.0,2.0,64.0
10091,64.0,13.0,40.0,1.0,64.0
10092,48.0,87.0,40.0,3.0,64.0
10093,66.0,8.0,120.0,1.0,64.0
10094,57.0,7.0,90.0,2.0,64.0
10095,38.0,6.0,600.0,3.0,64.0
10096,66.0,6.0,40.0,4.0,64.0
10097,66.0,6.0,40.0,0.0,64.0
10098,62.0,2.0,60.0,2.0,64.0
10099,69.0,93.0,60.0,1.0,64.0
10100,67.0,121.0,90.0,4.0,64.0
10101,67.0,1.0,90.0,0.0,64.0
10102,70.0,2.0,90.0,1.0,64.0
10103,58.0,6.0,90.0,2.0,64.0
10104,55.0,2.0,40.0,2.0,64.0
10105,69.0,147.0,60.0,0.0,64.0
10106,72.0,6.0,40.0,1.0,64.0
10107,69.0,0.0,40.0,4.0,64.0
10108,62.0,4.0,360.0,0.0,64.0
10109,54.0,1.0,360.0,2.0,64.0
10110,62.0,12.0,330.0,4.0,64.0
10111,72.0,84.0,120.0,1.0,64.0
10112,74.0,94.0,240.0,1.0,64.0
10113,51.0,116.0,40.0,3.0,64.0
10114,50.0,4.0,120.0,3.0,64.0
10115,48.0,8.0,40.0,3.0,64.0
10116,75.0,2.0,40.0,4.0,64.0
10117,66.0,0.0,60.0,1.0,64.0
10118,75.0,6.0,40.0,0.0,64.0
10119,57.0,91.0,40.0,2.0,64.0
10120,67.0,20.0,120.0,1.0,64.0
10121,58.0,32.0,90.0,2.0,64.0
10122,46.0,1.0,120.0,3.0,64.0
10123,75.0,8.0,120.0,4.0,64.0
10124,75.0,78.0,150.0,0.0,64.0
10125,74.0,82.0,270.0,4.0,64.0
10126,74.0,2.0,240.0,0.0,64.0
10127,60.0,2.0,60.0,2.0,64.0
10128,69.0,122.0,60.0,1.0,64.0
10129,45.0,9.0,40.0,3.0,64.0
10130,62.0,3.0,120.0,2.0,64.0
10131,43.0,4.0,120.0,3.0,64.0
10132,70.0,16.0,120.0,1.0,64.0
10133,63.0,7.0,40.0,2.0,64.0
10134,48.0,5.0,40.0,3.0,64.0
10135,69.0,2.0,60.0,1.0,64.0
10136,72.0,4.0,40.0,0.0,64.0
10137,72.0,167.0,40.0,4.0,64.0
10138,50.0,9.0,180.0,3.0,64.0
10139,62.0,1.0,180.0,2.0,64.0
10140,67.0,3.0,180.0,1.0,64.0
10141,70.0,88.0,180.0,0.0,64.0
10142,70.0,13.0,150.0,4.0,64.0
10143,62.0,6.0,40.0,2.0,64.0
10144,67.0,3.0,40.0,1.0,64.0
10145,70.0,8.0,60.0,0.0,64.0
10146,38.0,4.0,180.0,3.0,64.0
10147,70.0,5.0,40.0,4.0,64.0
10148,60.0,4.0,30.0,2.0,64.0
10149,66.0,8.0,30.0,1.0,64.0
10150,69.0,1.0,30.0,4.0,64.0
10151,69.0,15.0,30.0,0.0,64.0
10152,62.0,16.0,30.0,2.0,64.0
10153,70.0,7.0,40.0,4.0,64.0
10154,67.0,4.0,40.0,1.0,64.0
10155,70.0,22.0,40.0,0.0,64.0
10156,60.0,17.0,120.0,2.0,64.0
10157,69.0,12.0,90.0,4.0,64.0
10158,66.0,10.0,90.0,1.0,64.0
10159,69.0,0.0,90.0,0.0,64.0
10160,62.0,40.0,30.0,2.0,64.0
10161,67.0,12.0,40.0,0.0,64.0
10162,62.0,10.0,60.0,1.0,64.0
10163,67.0,5.0,40.0,4.0,64.0
10164,58.0,972.0,40.0,2.0,64.0
10165,43.0,4.0,960.0,3.0,64.0
10166,67.0,0.0,960.0,0.0,64.0
10167,67.0,1.0,960.0,4.0,64.0
10168,62.0,1.0,930.0,1.0,64.0
10169,58.0,1.0,960.0,2.0,64.0
