,note,step,duration,channel,velocity
0,68.0,60.0,60.0,0.0,0.0
1,71.0,60.0,60.0,0.0,0.0
2,75.0,60.0,60.0,0.0,0.0
3,80.0,60.0,60.0,0.0,0.0
4,79.0,60.0,60.0,0.0,0.0
5,80.0,60.0,60.0,0.0,0.0
6,78.0,60.0,60.0,0.0,0.0
7,80.0,60.0,60.0,0.0,0.0
8,77.0,60.0,60.0,0.0,0.0
9,80.0,60.0,60.0,0.0,0.0
10,76.0,60.0,60.0,0.0,0.0
11,80.0,60.0,60.0,0.0,0.0
12,75.0,60.0,60.0,0.0,0.0
13,80.0,60.0,60.0,0.0,0.0
14,79.0,60.0,60.0,0.0,0.0
15,80.0,60.0,60.0,0.0,0.0
16,74.0,60.0,60.0,0.0,0.0
17,77.0,60.0,60.0,0.0,0.0
18,71.0,60.0,60.0,0.0,0.0
19,70.0,60.0,60.0,0.0,0.0
20,71.0,60.0,60.0,0.0,0.0
21,73.0,60.0,60.0,0.0,0.0
22,70.0,60.0,60.0,0.0,0.0
23,68.0,60.0,60.0,0.0,0.0
24,51.0,60.0,60.0,1.0,0.0
25,66.0,0.0,120.0,0.0,0.0
26,54.0,60.0,60.0,1.0,0.0
27,75.0,0.0,120.0,0.0,0.0
28,58.0,60.0,60.0,1.0,0.0
29,63.0,60.0,60.0,1.0,0.0
30,62.0,60.0,60.0,1.0,0.0
31,63.0,0.0,60.0,1.0,0.0
32,82.0,60.0,60.0,0.0,0.0
33,61.0,0.0,60.0,1.0,0.0
34,83.0,60.0,60.0,0.0,0.0
35,63.0,60.0,60.0,1.0,0.0
36,82.0,0.0,60.0,0.0,0.0
37,60.0,60.0,60.0,1.0,0.0
38,80.0,0.0,60.0,0.0,0.0
39,78.0,0.0,60.0,0.0,0.0
40,63.0,60.0,60.0,1.0,0.0
41,77.0,0.0,60.0,0.0,0.0
42,59.0,60.0,60.0,1.0,0.0
43,80.0,0.0,60.0,0.0,0.0
44,63.0,60.0,60.0,1.0,0.0
45,58.0,60.0,60.0,1.0,0.0
46,78.0,60.0,300.0,0.0,0.0
47,63.0,60.0,60.0,1.0,0.0
48,62.0,60.0,60.0,1.0,0.0
49,63.0,60.0,60.0,1.0,0.0
50,57.0,0.0,60.0,1.0,0.0
51,77.0,60.0,60.0,0.0,0.0
52,60.0,0.0,60.0,1.0,0.0
53,54.0,0.0,60.0,1.0,0.0
54,75.0,60.0,60.0,0.0,0.0
55,74.0,60.0,60.0,0.0,0.0
56,53.0,0.0,60.0,1.0,0.0
57,54.0,60.0,60.0,1.0,0.0
58,75.0,0.0,60.0,0.0,0.0
59,57.0,0.0,60.0,1.0,0.0
60,77.0,60.0,60.0,0.0,0.0
61,74.0,0.0,60.0,0.0,0.0
62,53.0,60.0,60.0,1.0,0.0
63,75.0,60.0,60.0,0.0,0.0
64,51.0,0.0,60.0,1.0,0.0
65,77.0,60.0,60.0,0.0,0.0
66,50.0,60.0,120.0,1.0,0.0
67,70.0,0.0,60.0,0.0,0.0
68,74.0,60.0,60.0,0.0,0.0
69,58.0,60.0,120.0,1.0,0.0
70,77.0,0.0,60.0,0.0,0.0
71,80.0,60.0,60.0,0.0,0.0
72,70.0,60.0,60.0,1.0,0.0
73,74.0,0.0,60.0,0.0,0.0
74,77.0,0.0,60.0,0.0,0.0
75,71.0,60.0,60.0,1.0,0.0
76,70.0,60.0,60.0,1.0,0.0
77,80.0,0.0,60.0,0.0,0.0
78,83.0,60.0,60.0,0.0,0.0
79,68.0,0.0,60.0,1.0,0.0
80,82.0,60.0,60.0,0.0,0.0
81,66.0,0.0,60.0,1.0,0.0
82,65.0,60.0,60.0,1.0,0.0
83,80.0,0.0,60.0,0.0,0.0
84,83.0,60.0,60.0,0.0,0.0
85,68.0,0.0,60.0,1.0,0.0
86,66.0,0.0,300.0,1.0,0.0
87,82.0,60.0,60.0,0.0,0.0
88,80.0,60.0,60.0,0.0,0.0
89,78.0,60.0,60.0,0.0,0.0
90,77.0,60.0,60.0,0.0,0.0
91,75.0,60.0,60.0,0.0,0.0
92,74.0,60.0,60.0,0.0,0.0
93,65.0,0.0,60.0,1.0,0.0
94,63.0,0.0,60.0,1.0,0.0
95,72.0,60.0,60.0,0.0,0.0
96,62.0,60.0,60.0,1.0,0.0
97,70.0,0.0,60.0,0.0,0.0
98,63.0,60.0,60.0,1.0,0.0
99,78.0,60.0,300.0,0.0,0.0
100,65.0,60.0,60.0,1.0,0.0
101,61.0,60.0,60.0,1.0,0.0
102,63.0,60.0,60.0,1.0,0.0
103,48.0,60.0,120.0,1.0,0.0
104,68.0,0.0,60.0,0.0,0.0
105,72.0,60.0,60.0,0.0,0.0
106,56.0,60.0,120.0,1.0,0.0
107,75.0,0.0,60.0,0.0,0.0
108,78.0,60.0,60.0,0.0,0.0
109,68.0,0.0,60.0,1.0,0.0
110,72.0,60.0,60.0,0.0,0.0
111,69.0,60.0,60.0,1.0,0.0
112,75.0,0.0,60.0,0.0,0.0
113,78.0,60.0,60.0,0.0,0.0
114,68.0,0.0,60.0,1.0,0.0
115,66.0,0.0,60.0,1.0,0.0
116,81.0,60.0,60.0,0.0,0.0
117,80.0,60.0,60.0,0.0,0.0
118,64.0,0.0,60.0,1.0,0.0
119,63.0,60.0,60.0,1.0,0.0
120,78.0,0.0,60.0,0.0,0.0
121,81.0,0.0,60.0,0.0,0.0
122,66.0,60.0,60.0,1.0,0.0
123,64.0,60.0,300.0,1.0,0.0
124,80.0,60.0,60.0,0.0,0.0
125,78.0,60.0,60.0,0.0,0.0
126,76.0,60.0,60.0,0.0,0.0
127,75.0,60.0,60.0,0.0,0.0
128,73.0,0.0,60.0,0.0,0.0
129,72.0,0.0,60.0,0.0,0.0
130,63.0,60.0,60.0,1.0,0.0
131,61.0,0.0,60.0,1.0,0.0
132,70.0,60.0,60.0,0.0,0.0
133,60.0,0.0,60.0,1.0,0.0
134,68.0,60.0,60.0,0.0,0.0
135,76.0,60.0,300.0,0.0,0.0
136,61.0,60.0,60.0,1.0,0.0
137,63.0,60.0,60.0,1.0,0.0
138,59.0,60.0,60.0,1.0,0.0
139,61.0,60.0,60.0,1.0,0.0
140,46.0,0.0,120.0,1.0,0.0
141,73.0,60.0,60.0,0.0,0.0
142,54.0,60.0,120.0,1.0,0.0
143,66.0,60.0,60.0,0.0,0.0
144,68.0,0.0,60.0,0.0,0.0
145,70.0,60.0,60.0,0.0,0.0
146,56.0,60.0,60.0,1.0,0.0
147,71.0,0.0,60.0,0.0,0.0
148,58.0,60.0,60.0,1.0,0.0
149,73.0,0.0,60.0,0.0,0.0
150,75.0,0.0,60.0,0.0,0.0
151,59.0,60.0,60.0,1.0,0.0
152,76.0,60.0,60.0,0.0,0.0
153,61.0,0.0,60.0,1.0,0.0
154,63.0,60.0,60.0,1.0,0.0
155,78.0,0.0,60.0,0.0,0.0
156,64.0,60.0,60.0,1.0,0.0
157,80.0,0.0,60.0,0.0,0.0
158,61.0,60.0,60.0,1.0,0.0
159,82.0,0.0,60.0,0.0,0.0
160,83.0,0.0,60.0,0.0,0.0
161,63.0,60.0,60.0,1.0,0.0
162,82.0,60.0,60.0,0.0,0.0
163,61.0,0.0,60.0,1.0,0.0
164,85.0,60.0,60.0,0.0,0.0
165,64.0,0.0,60.0,1.0,0.0
166,63.0,60.0,60.0,1.0,0.0
167,83.0,0.0,60.0,0.0,0.0
168,82.0,60.0,60.0,0.0,0.0
169,61.0,0.0,60.0,1.0,0.0
170,80.0,0.0,60.0,0.0,0.0
171,59.0,60.0,60.0,1.0,0.0
172,78.0,0.0,60.0,0.0,0.0
173,58.0,60.0,60.0,1.0,0.0
174,56.0,60.0,60.0,1.0,0.0
175,76.0,0.0,60.0,0.0,0.0
176,54.0,60.0,60.0,1.0,0.0
177,75.0,0.0,60.0,0.0,0.0
178,83.0,0.0,60.0,0.0,0.0
179,56.0,60.0,60.0,1.0,0.0
180,73.0,0.0,60.0,0.0,0.0
181,52.0,60.0,60.0,1.0,0.0
182,82.0,0.0,60.0,0.0,0.0
183,54.0,60.0,60.0,1.0,0.0
184,71.0,60.0,60.0,0.0,0.0
185,51.0,60.0,120.0,1.0,0.0
186,75.0,0.0,60.0,0.0,0.0
187,78.0,60.0,60.0,0.0,0.0
188,59.0,0.0,120.0,1.0,0.0
189,83.0,60.0,60.0,0.0,0.0
190,82.0,60.0,60.0,0.0,0.0
191,83.0,0.0,60.0,0.0,0.0
192,66.0,60.0,60.0,1.0,0.0
193,81.0,0.0,60.0,0.0,0.0
194,68.0,60.0,60.0,1.0,0.0
195,83.0,60.0,60.0,0.0,0.0
196,66.0,0.0,60.0,1.0,0.0
197,80.0,60.0,60.0,0.0,0.0
198,64.0,0.0,60.0,1.0,0.0
199,83.0,60.0,60.0,0.0,0.0
200,63.0,0.0,60.0,1.0,0.0
201,61.0,0.0,60.0,1.0,0.0
202,79.0,60.0,60.0,0.0,0.0
203,64.0,60.0,60.0,1.0,0.0
204,83.0,0.0,60.0,0.0,0.0
205,78.0,60.0,60.0,0.0,0.0
206,63.0,0.0,300.0,1.0,0.0
207,83.0,60.0,60.0,0.0,0.0
208,82.0,60.0,60.0,0.0,0.0
209,83.0,60.0,60.0,0.0,0.0
210,77.0,60.0,60.0,0.0,0.0
211,61.0,60.0,60.0,1.0,0.0
212,80.0,0.0,60.0,0.0,0.0
213,59.0,60.0,60.0,1.0,0.0
214,74.0,0.0,60.0,0.0,0.0
215,73.0,0.0,60.0,0.0,0.0
216,58.0,60.0,60.0,1.0,0.0
217,74.0,0.0,60.0,0.0,0.0
218,59.0,60.0,60.0,1.0,0.0
219,77.0,60.0,60.0,0.0,0.0
220,58.0,0.0,60.0,1.0,0.0
221,73.0,60.0,60.0,0.0,0.0
222,59.0,0.0,60.0,1.0,0.0
223,71.0,60.0,60.0,0.0,0.0
224,61.0,0.0,60.0,1.0,0.0
225,70.0,60.0,120.0,0.0,0.0
226,54.0,60.0,60.0,1.0,0.0
227,58.0,0.0,60.0,1.0,0.0
228,61.0,60.0,60.0,1.0,0.0
229,78.0,60.0,120.0,0.0,0.0
230,66.0,0.0,60.0,1.0,0.0
231,65.0,60.0,60.0,1.0,0.0
232,66.0,0.0,60.0,1.0,0.0
233,85.0,60.0,60.0,0.0,0.0
234,64.0,0.0,60.0,1.0,0.0
235,87.0,60.0,60.0,0.0,0.0
236,66.0,0.0,60.0,1.0,0.0
237,85.0,60.0,60.0,0.0,0.0
238,83.0,60.0,60.0,0.0,0.0
239,63.0,0.0,60.0,1.0,0.0
240,66.0,0.0,60.0,1.0,0.0
241,82.0,60.0,60.0,0.0,0.0
242,80.0,0.0,60.0,0.0,0.0
243,62.0,60.0,60.0,1.0,0.0
244,83.0,0.0,60.0,0.0,0.0
245,66.0,60.0,60.0,1.0,0.0
246,82.0,60.0,300.0,0.0,0.0
247,61.0,60.0,60.0,1.0,0.0
248,66.0,60.0,60.0,1.0,0.0
249,65.0,60.0,60.0,1.0,0.0
250,66.0,60.0,60.0,1.0,0.0
251,60.0,0.0,60.0,1.0,0.0
252,63.0,0.0,60.0,1.0,0.0
253,80.0,60.0,60.0,0.0,0.0
254,57.0,60.0,60.0,1.0,0.0
255,78.0,0.0,60.0,0.0,0.0
256,56.0,60.0,60.0,1.0,0.0
257,77.0,0.0,60.0,0.0,0.0
258,57.0,0.0,60.0,1.0,0.0
259,78.0,60.0,60.0,0.0,0.0
260,60.0,60.0,60.0,1.0,0.0
261,80.0,0.0,60.0,0.0,0.0
262,56.0,0.0,60.0,1.0,0.0
263,77.0,60.0,60.0,0.0,0.0
264,54.0,0.0,60.0,1.0,0.0
265,78.0,60.0,60.0,0.0,0.0
266,53.0,60.0,120.0,1.0,0.0
267,80.0,60.0,60.0,0.0,0.0
268,78.0,0.0,60.0,0.0,0.0
269,77.0,60.0,60.0,0.0,0.0
270,49.0,0.0,120.0,1.0,0.0
271,75.0,60.0,60.0,0.0,0.0
272,73.0,60.0,60.0,0.0,0.0
273,53.0,0.0,120.0,1.0,0.0
274,72.0,60.0,60.0,0.0,0.0
275,56.0,0.0,120.0,1.0,0.0
276,80.0,60.0,60.0,0.0,0.0
277,78.0,60.0,60.0,0.0,0.0
278,61.0,0.0,120.0,1.0,0.0
279,77.0,60.0,60.0,0.0,0.0
280,75.0,60.0,60.0,0.0,0.0
281,53.0,60.0,120.0,1.0,0.0
282,73.0,60.0,60.0,0.0,0.0
283,71.0,0.0,60.0,0.0,0.0
284,70.0,60.0,120.0,0.0,0.0
285,61.0,60.0,60.0,1.0,0.0
286,59.0,0.0,60.0,1.0,0.0
287,58.0,60.0,60.0,1.0,0.0
288,66.0,0.0,120.0,0.0,0.0
289,56.0,60.0,60.0,1.0,0.0
290,70.0,60.0,120.0,0.0,0.0
291,54.0,60.0,60.0,1.0,0.0
292,53.0,0.0,60.0,1.0,0.0
293,61.0,60.0,60.0,1.0,0.0
294,73.0,0.0,120.0,0.0,0.0
295,59.0,60.0,60.0,1.0,0.0
296,58.0,60.0,60.0,1.0,0.0
297,78.0,0.0,120.0,0.0,0.0
298,56.0,60.0,60.0,1.0,0.0
299,54.0,60.0,60.0,1.0,0.0
300,70.0,0.0,120.0,0.0,0.0
301,52.0,60.0,60.0,1.0,0.0
302,78.0,60.0,60.0,0.0,0.0
303,51.0,0.0,120.0,1.0,0.0
304,76.0,60.0,60.0,0.0,0.0
305,75.0,60.0,60.0,0.0,0.0
306,47.0,0.0,120.0,1.0,0.0
307,73.0,60.0,60.0,0.0,0.0
308,71.0,60.0,60.0,0.0,0.0
309,51.0,60.0,120.0,1.0,0.0
310,70.0,0.0,60.0,0.0,0.0
311,54.0,60.0,120.0,1.0,0.0
312,78.0,60.0,60.0,0.0,0.0
313,76.0,0.0,60.0,0.0,0.0
314,75.0,60.0,60.0,0.0,0.0
315,59.0,0.0,120.0,1.0,0.0
316,73.0,60.0,60.0,0.0,0.0
317,51.0,0.0,120.0,1.0,0.0
318,71.0,60.0,60.0,0.0,0.0
319,69.0,60.0,60.0,0.0,0.0
320,59.0,60.0,60.0,1.0,0.0
321,68.0,0.0,120.0,0.0,0.0
322,57.0,60.0,60.0,1.0,0.0
323,56.0,60.0,60.0,1.0,0.0
324,64.0,60.0,120.0,0.0,0.0
325,54.0,0.0,60.0,1.0,0.0
326,68.0,60.0,120.0,0.0,0.0
327,52.0,60.0,60.0,1.0,0.0
328,51.0,0.0,60.0,1.0,0.0
329,59.0,60.0,60.0,1.0,0.0
330,71.0,60.0,120.0,0.0,0.0
331,57.0,0.0,60.0,1.0,0.0
332,56.0,60.0,60.0,1.0,0.0
333,76.0,0.0,120.0,0.0,0.0
334,54.0,60.0,60.0,1.0,0.0
335,52.0,60.0,60.0,1.0,0.0
336,68.0,60.0,120.0,0.0,0.0
337,51.0,0.0,60.0,1.0,0.0
338,56.0,60.0,60.0,1.0,0.0
339,80.0,0.0,60.0,0.0,0.0
340,78.0,60.0,60.0,0.0,0.0
341,54.0,0.0,60.0,1.0,0.0
342,76.0,60.0,60.0,0.0,0.0
343,52.0,0.0,60.0,1.0,0.0
344,51.0,60.0,60.0,1.0,0.0
345,75.0,0.0,60.0,0.0,0.0
346,49.0,0.0,60.0,1.0,0.0
347,73.0,60.0,60.0,0.0,0.0
348,72.0,0.0,60.0,0.0,0.0
349,48.0,60.0,60.0,1.0,0.0
350,56.0,60.0,60.0,1.0,0.0
351,80.0,0.0,60.0,0.0,0.0
352,78.0,0.0,60.0,0.0,0.0
353,54.0,60.0,60.0,1.0,0.0
354,76.0,0.0,60.0,0.0,0.0
355,52.0,60.0,60.0,1.0,0.0
356,75.0,0.0,60.0,0.0,0.0
357,51.0,60.0,60.0,1.0,0.0
358,73.0,0.0,60.0,0.0,0.0
359,49.0,60.0,60.0,1.0,0.0
360,72.0,0.0,60.0,0.0,0.0
361,48.0,60.0,60.0,1.0,0.0
362,73.0,0.0,60.0,0.0,0.0
363,49.0,60.0,60.0,1.0,0.0
364,76.0,60.0,60.0,0.0,0.0
365,52.0,0.0,60.0,1.0,0.0
366,56.0,60.0,60.0,1.0,0.0
367,80.0,0.0,60.0,0.0,0.0
368,85.0,60.0,60.0,0.0,0.0
369,61.0,0.0,60.0,1.0,0.0
370,60.0,60.0,60.0,1.0,0.0
371,61.0,60.0,60.0,1.0,0.0
372,80.0,0.0,60.0,0.0,0.0
373,81.0,0.0,60.0,0.0,0.0
374,59.0,60.0,60.0,1.0,0.0
375,61.0,0.0,60.0,1.0,0.0
376,80.0,60.0,60.0,0.0,0.0
377,58.0,0.0,60.0,1.0,0.0
378,78.0,60.0,60.0,0.0,0.0
379,76.0,60.0,60.0,0.0,0.0
380,61.0,0.0,60.0,1.0,0.0
381,57.0,0.0,60.0,1.0,0.0
382,75.0,60.0,60.0,0.0,0.0
383,61.0,60.0,60.0,1.0,0.0
384,78.0,0.0,60.0,0.0,0.0
385,76.0,60.0,300.0,0.0,0.0
386,56.0,60.0,60.0,1.0,0.0
387,61.0,60.0,60.0,1.0,0.0
388,60.0,60.0,60.0,1.0,0.0
389,61.0,60.0,60.0,1.0,0.0
390,55.0,0.0,60.0,1.0,0.0
391,58.0,60.0,60.0,1.0,0.0
392,75.0,0.0,60.0,0.0,0.0
393,73.0,0.0,60.0,0.0,0.0
394,52.0,60.0,60.0,1.0,0.0
395,72.0,60.0,60.0,0.0,0.0
396,51.0,0.0,60.0,1.0,0.0
397,52.0,0.0,60.0,1.0,0.0
398,73.0,60.0,60.0,0.0,0.0
399,54.0,60.0,60.0,1.0,0.0
400,70.0,0.0,60.0,0.0,0.0
401,67.0,60.0,60.0,0.0,0.0
402,51.0,0.0,60.0,1.0,0.0
403,75.0,60.0,60.0,0.0,0.0
404,49.0,0.0,60.0,1.0,0.0
405,68.0,60.0,60.0,0.0,0.0
406,47.0,60.0,120.0,1.0,0.0
407,71.0,0.0,60.0,0.0,0.0
408,75.0,60.0,60.0,0.0,0.0
409,56.0,0.0,120.0,1.0,0.0
410,80.0,60.0,60.0,0.0,0.0
411,79.0,60.0,60.0,0.0,0.0
412,80.0,0.0,60.0,0.0,0.0
413,63.0,60.0,60.0,1.0,0.0
414,78.0,0.0,60.0,0.0,0.0
415,64.0,60.0,60.0,1.0,0.0
416,80.0,0.0,60.0,0.0,0.0
417,63.0,60.0,60.0,1.0,0.0
418,77.0,60.0,60.0,0.0,0.0
419,61.0,0.0,60.0,1.0,0.0
420,59.0,60.0,60.0,1.0,0.0
421,80.0,0.0,60.0,0.0,0.0
422,76.0,0.0,60.0,0.0,0.0
423,58.0,60.0,60.0,1.0,0.0
424,61.0,60.0,60.0,1.0,0.0
425,80.0,0.0,60.0,0.0,0.0
426,75.0,60.0,60.0,0.0,0.0
427,59.0,60.0,300.0,1.0,0.0
428,80.0,60.0,60.0,0.0,0.0
429,79.0,60.0,60.0,0.0,0.0
430,80.0,60.0,60.0,0.0,0.0
431,74.0,0.0,60.0,0.0,0.0
432,77.0,60.0,60.0,0.0,0.0
433,58.0,0.0,60.0,1.0,0.0
434,56.0,0.0,60.0,1.0,0.0
435,71.0,60.0,60.0,0.0,0.0
436,55.0,60.0,60.0,1.0,0.0
437,70.0,0.0,60.0,0.0,0.0
438,56.0,0.0,60.0,1.0,0.0
439,71.0,60.0,60.0,0.0,0.0
440,58.0,0.0,60.0,1.0,0.0
441,73.0,60.0,60.0,0.0,0.0
442,70.0,60.0,60.0,0.0,0.0
443,55.0,0.0,60.0,1.0,0.0
444,68.0,0.0,60.0,0.0,0.0
445,56.0,60.0,60.0,1.0,0.0
446,58.0,60.0,60.0,1.0,0.0
447,67.0,0.0,120.0,0.0,0.0
448,51.0,60.0,60.0,1.0,0.0
449,55.0,60.0,60.0,1.0,0.0
450,75.0,0.0,120.0,0.0,0.0
451,58.0,60.0,60.0,1.0,0.0
452,61.0,60.0,60.0,1.0,0.0
453,55.0,60.0,60.0,1.0,0.0
454,87.0,0.0,60.0,0.0,0.0
455,58.0,0.0,60.0,1.0,0.0
456,88.0,60.0,60.0,0.0,0.0
457,61.0,60.0,60.0,1.0,0.0
458,87.0,0.0,60.0,0.0,0.0
459,64.0,60.0,60.0,1.0,0.0
460,85.0,0.0,60.0,0.0,0.0
461,83.0,0.0,60.0,0.0,0.0
462,63.0,60.0,60.0,1.0,0.0
463,61.0,60.0,60.0,1.0,0.0
464,82.0,0.0,60.0,0.0,0.0
465,64.0,0.0,60.0,1.0,0.0
466,85.0,60.0,60.0,0.0,0.0
467,83.0,60.0,300.0,0.0,0.0
468,63.0,60.0,60.0,1.0,0.0
469,61.0,60.0,60.0,1.0,0.0
470,59.0,60.0,60.0,1.0,0.0
471,58.0,60.0,60.0,1.0,0.0
472,56.0,0.0,60.0,1.0,0.0
473,55.0,0.0,60.0,1.0,0.0
474,82.0,60.0,60.0,0.0,0.0
475,53.0,0.0,60.0,1.0,0.0
476,80.0,60.0,60.0,0.0,0.0
477,79.0,60.0,60.0,0.0,0.0
478,51.0,0.0,60.0,1.0,0.0
479,59.0,60.0,300.0,1.0,0.0
480,80.0,60.0,60.0,0.0,0.0
481,82.0,60.0,60.0,0.0,0.0
482,78.0,60.0,60.0,0.0,0.0
483,80.0,60.0,60.0,0.0,0.0
484,77.0,60.0,120.0,0.0,0.0
485,49.0,0.0,60.0,1.0,0.0
486,53.0,60.0,60.0,1.0,0.0
487,85.0,0.0,120.0,0.0,0.0
488,56.0,60.0,60.0,1.0,0.0
489,59.0,60.0,60.0,1.0,0.0
490,53.0,0.0,60.0,1.0,0.0
491,85.0,60.0,60.0,0.0,0.0
492,86.0,0.0,60.0,0.0,0.0
493,56.0,60.0,60.0,1.0,0.0
494,85.0,0.0,60.0,0.0,0.0
495,59.0,60.0,60.0,1.0,0.0
496,83.0,0.0,60.0,0.0,0.0
497,62.0,60.0,60.0,1.0,0.0
498,81.0,60.0,60.0,0.0,0.0
499,61.0,0.0,60.0,1.0,0.0
500,80.0,0.0,60.0,0.0,0.0
501,59.0,60.0,60.0,1.0,0.0
502,62.0,60.0,60.0,1.0,0.0
503,83.0,0.0,60.0,0.0,0.0
504,81.0,60.0,300.0,0.0,0.0
505,61.0,60.0,60.0,1.0,0.0
506,59.0,60.0,60.0,1.0,0.0
507,57.0,60.0,60.0,1.0,0.0
508,56.0,60.0,60.0,1.0,0.0
509,54.0,0.0,60.0,1.0,0.0
510,80.0,0.0,60.0,0.0,0.0
511,53.0,60.0,60.0,1.0,0.0
512,78.0,60.0,60.0,0.0,0.0
513,51.0,0.0,60.0,1.0,0.0
514,77.0,0.0,60.0,0.0,0.0
515,49.0,60.0,60.0,1.0,0.0
516,78.0,60.0,60.0,0.0,0.0
517,57.0,60.0,300.0,1.0,0.0
518,80.0,60.0,60.0,0.0,0.0
519,76.0,60.0,60.0,0.0,0.0
520,78.0,60.0,60.0,0.0,0.0
521,75.0,60.0,120.0,0.0,0.0
522,54.0,0.0,60.0,1.0,0.0
523,83.0,60.0,120.0,0.0,0.0
524,47.0,60.0,60.0,1.0,0.0
525,49.0,0.0,60.0,1.0,0.0
526,51.0,60.0,60.0,1.0,0.0
527,52.0,60.0,60.0,1.0,0.0
528,73.0,0.0,60.0,0.0,0.0
529,75.0,60.0,60.0,0.0,0.0
530,54.0,0.0,60.0,1.0,0.0
531,56.0,60.0,60.0,1.0,0.0
532,76.0,0.0,60.0,0.0,0.0
533,57.0,0.0,60.0,1.0,0.0
534,78.0,60.0,60.0,0.0,0.0
535,59.0,0.0,60.0,1.0,0.0
536,80.0,60.0,60.0,0.0,0.0
537,61.0,60.0,60.0,1.0,0.0
538,81.0,0.0,60.0,0.0,0.0
539,78.0,0.0,60.0,0.0,0.0
540,63.0,60.0,60.0,1.0,0.0
541,64.0,0.0,60.0,1.0,0.0
542,80.0,60.0,60.0,0.0,0.0
543,63.0,60.0,60.0,1.0,0.0
544,78.0,0.0,60.0,0.0,0.0
545,83.0,0.0,60.0,0.0,0.0
546,68.0,60.0,60.0,1.0,0.0
547,66.0,60.0,60.0,1.0,0.0
548,81.0,0.0,60.0,0.0,0.0
549,65.0,60.0,60.0,1.0,0.0
550,80.0,0.0,60.0,0.0,0.0
551,78.0,0.0,60.0,0.0,0.0
552,62.0,60.0,60.0,1.0,0.0
553,61.0,60.0,60.0,1.0,0.0
554,77.0,0.0,60.0,0.0,0.0
555,59.0,60.0,60.0,1.0,0.0
556,74.0,0.0,60.0,0.0,0.0
557,57.0,60.0,60.0,1.0,0.0
558,73.0,0.0,60.0,0.0,0.0
559,74.0,60.0,60.0,0.0,0.0
560,66.0,0.0,60.0,1.0,0.0
561,71.0,60.0,60.0,0.0,0.0
562,56.0,0.0,60.0,1.0,0.0
563,73.0,0.0,60.0,0.0,0.0
564,65.0,60.0,60.0,1.0,0.0
565,69.0,60.0,120.0,0.0,0.0
566,54.0,60.0,60.0,1.0,0.0
567,57.0,0.0,60.0,1.0,0.0
568,61.0,60.0,60.0,1.0,0.0
569,78.0,0.0,120.0,0.0,0.0
570,66.0,60.0,60.0,1.0,0.0
571,65.0,60.0,60.0,1.0,0.0
572,85.0,0.0,60.0,0.0,0.0
573,66.0,60.0,60.0,1.0,0.0
574,86.0,0.0,60.0,0.0,0.0
575,64.0,60.0,60.0,1.0,0.0
576,85.0,0.0,60.0,0.0,0.0
577,66.0,60.0,60.0,1.0,0.0
578,83.0,60.0,60.0,0.0,0.0
579,63.0,0.0,60.0,1.0,0.0
580,66.0,0.0,60.0,1.0,0.0
581,81.0,60.0,60.0,0.0,0.0
582,62.0,0.0,60.0,1.0,0.0
583,80.0,60.0,60.0,0.0,0.0
584,66.0,0.0,60.0,1.0,0.0
585,83.0,60.0,60.0,0.0,0.0
586,61.0,60.0,60.0,1.0,0.0
587,81.0,0.0,300.0,0.0,0.0
588,66.0,60.0,60.0,1.0,0.0
589,65.0,60.0,60.0,1.0,0.0
590,66.0,60.0,60.0,1.0,0.0
591,60.0,60.0,60.0,1.0,0.0
592,63.0,0.0,60.0,1.0,0.0
593,80.0,60.0,60.0,0.0,0.0
594,57.0,0.0,60.0,1.0,0.0
595,78.0,60.0,60.0,0.0,0.0
596,56.0,0.0,60.0,1.0,0.0
597,76.0,60.0,60.0,0.0,0.0
598,78.0,60.0,60.0,0.0,0.0
599,57.0,0.0,60.0,1.0,0.0
600,60.0,0.0,60.0,1.0,0.0
601,76.0,60.0,60.0,0.0,0.0
602,56.0,0.0,60.0,1.0,0.0
603,78.0,60.0,60.0,0.0,0.0
604,54.0,0.0,60.0,1.0,0.0
605,80.0,60.0,60.0,0.0,0.0
606,73.0,60.0,60.0,0.0,0.0
607,52.0,0.0,120.0,1.0,0.0
608,76.0,60.0,60.0,0.0,0.0
609,61.0,0.0,120.0,1.0,0.0
610,80.0,60.0,60.0,0.0,0.0
611,85.0,60.0,60.0,0.0,0.0
612,84.0,60.0,60.0,0.0,0.0
613,85.0,0.0,60.0,0.0,0.0
614,68.0,60.0,60.0,1.0,0.0
615,69.0,60.0,60.0,1.0,0.0
616,83.0,0.0,60.0,0.0,0.0
617,85.0,0.0,60.0,0.0,0.0
618,68.0,60.0,60.0,1.0,0.0
619,82.0,0.0,60.0,0.0,0.0
620,66.0,60.0,60.0,1.0,0.0
621,85.0,60.0,60.0,0.0,0.0
622,64.0,0.0,60.0,1.0,0.0
623,81.0,60.0,60.0,0.0,0.0
624,63.0,0.0,60.0,1.0,0.0
625,66.0,0.0,60.0,1.0,0.0
626,85.0,60.0,60.0,0.0,0.0
627,64.0,60.0,300.0,1.0,0.0
628,80.0,60.0,60.0,0.0,0.0
629,85.0,60.0,60.0,0.0,0.0
630,84.0,60.0,60.0,0.0,0.0
631,85.0,60.0,60.0,0.0,0.0
632,79.0,0.0,60.0,0.0,0.0
633,82.0,60.0,60.0,0.0,0.0
634,63.0,0.0,60.0,1.0,0.0
635,76.0,0.0,60.0,0.0,0.0
636,61.0,60.0,60.0,1.0,0.0
637,75.0,0.0,60.0,0.0,0.0
638,60.0,60.0,60.0,1.0,0.0
639,76.0,0.0,60.0,0.0,0.0
640,61.0,60.0,60.0,1.0,0.0
641,58.0,0.0,60.0,1.0,0.0
642,78.0,60.0,60.0,0.0,0.0
643,55.0,60.0,60.0,1.0,0.0
644,75.0,0.0,60.0,0.0,0.0
645,73.0,60.0,60.0,0.0,0.0
646,58.0,0.0,60.0,1.0,0.0
647,63.0,60.0,60.0,1.0,0.0
648,72.0,60.0,120.0,0.0,0.0
649,61.0,0.0,60.0,1.0,0.0
650,60.0,60.0,60.0,1.0,0.0
651,68.0,0.0,120.0,0.0,0.0
652,58.0,60.0,60.0,1.0,0.0
653,72.0,60.0,120.0,0.0,0.0
654,56.0,60.0,60.0,1.0,0.0
655,55.0,0.0,60.0,1.0,0.0
656,75.0,60.0,120.0,0.0,0.0
657,63.0,60.0,60.0,1.0,0.0
658,61.0,0.0,60.0,1.0,0.0
659,60.0,60.0,60.0,1.0,0.0
660,80.0,60.0,120.0,0.0,0.0
661,58.0,0.0,60.0,1.0,0.0
662,56.0,60.0,60.0,1.0,0.0
663,72.0,60.0,120.0,0.0,0.0
664,54.0,0.0,60.0,1.0,0.0
665,80.0,60.0,60.0,0.0,0.0
666,53.0,60.0,120.0,1.0,0.0
667,78.0,0.0,60.0,0.0,0.0
668,77.0,60.0,60.0,0.0,0.0
669,49.0,60.0,120.0,1.0,0.0
670,75.0,0.0,60.0,0.0,0.0
671,73.0,60.0,60.0,0.0,0.0
672,53.0,60.0,120.0,1.0,0.0
673,72.0,0.0,60.0,0.0,0.0
674,80.0,60.0,60.0,0.0,0.0
675,56.0,0.0,120.0,1.0,0.0
676,78.0,60.0,60.0,0.0,0.0
677,77.0,60.0,60.0,0.0,0.0
678,61.0,60.0,120.0,1.0,0.0
679,75.0,0.0,60.0,0.0,0.0
680,73.0,60.0,60.0,0.0,0.0
681,53.0,0.0,120.0,1.0,0.0
682,71.0,60.0,60.0,0.0,0.0
683,70.0,0.0,120.0,0.0,0.0
684,61.0,60.0,60.0,1.0,0.0
685,59.0,60.0,60.0,1.0,0.0
686,58.0,60.0,60.0,1.0,0.0
687,66.0,60.0,120.0,0.0,0.0
688,56.0,0.0,60.0,1.0,0.0
689,54.0,60.0,60.0,1.0,0.0
690,70.0,60.0,120.0,0.0,0.0
691,53.0,0.0,60.0,1.0,0.0
692,73.0,60.0,120.0,0.0,0.0
693,61.0,60.0,60.0,1.0,0.0
694,59.0,0.0,60.0,1.0,0.0
695,78.0,0.0,120.0,0.0,0.0
696,58.0,60.0,60.0,1.0,0.0
697,56.0,60.0,60.0,1.0,0.0
698,70.0,60.0,120.0,0.0,0.0
699,54.0,60.0,60.0,1.0,0.0
700,52.0,0.0,60.0,1.0,0.0
701,78.0,60.0,60.0,0.0,0.0
702,51.0,60.0,120.0,1.0,0.0
703,76.0,0.0,60.0,0.0,0.0
704,75.0,60.0,60.0,0.0,0.0
705,47.0,0.0,120.0,1.0,0.0
706,73.0,60.0,60.0,0.0,0.0
707,51.0,0.0,120.0,1.0,0.0
708,71.0,60.0,60.0,0.0,0.0
709,70.0,60.0,60.0,0.0,0.0
710,78.0,60.0,60.0,0.0,0.0
711,54.0,0.0,120.0,1.0,0.0
712,76.0,60.0,60.0,0.0,0.0
713,75.0,60.0,60.0,0.0,0.0
714,59.0,60.0,120.0,1.0,0.0
715,73.0,0.0,60.0,0.0,0.0
716,71.0,60.0,60.0,0.0,0.0
717,51.0,60.0,120.0,1.0,0.0
718,70.0,0.0,60.0,0.0,0.0
719,75.0,60.0,60.0,0.0,0.0
720,63.0,0.0,60.0,1.0,0.0
721,73.0,60.0,60.0,0.0,0.0
722,61.0,0.0,60.0,1.0,0.0
723,59.0,60.0,60.0,1.0,0.0
724,71.0,0.0,60.0,0.0,0.0
725,70.0,0.0,60.0,0.0,0.0
726,58.0,60.0,60.0,1.0,0.0
727,68.0,0.0,60.0,0.0,0.0
728,56.0,60.0,60.0,1.0,0.0
729,67.0,0.0,60.0,0.0,0.0
730,55.0,60.0,60.0,1.0,0.0
731,75.0,0.0,60.0,0.0,0.0
732,63.0,60.0,60.0,1.0,0.0
733,61.0,60.0,60.0,1.0,0.0
734,73.0,0.0,60.0,0.0,0.0
735,71.0,60.0,60.0,0.0,0.0
736,59.0,0.0,60.0,1.0,0.0
737,70.0,0.0,60.0,0.0,0.0
738,58.0,60.0,60.0,1.0,0.0
739,68.0,60.0,60.0,0.0,0.0
740,56.0,0.0,60.0,1.0,0.0
741,55.0,60.0,60.0,1.0,0.0
742,67.0,0.0,60.0,0.0,0.0
743,56.0,60.0,60.0,1.0,0.0
744,68.0,0.0,60.0,0.0,0.0
745,71.0,0.0,60.0,0.0,0.0
746,51.0,60.0,60.0,1.0,0.0
747,75.0,0.0,60.0,0.0,0.0
748,47.0,60.0,60.0,1.0,0.0
749,80.0,60.0,60.0,0.0,0.0
750,44.0,0.0,60.0,1.0,0.0
751,79.0,60.0,60.0,0.0,0.0
752,63.0,0.0,60.0,1.0,0.0
753,80.0,60.0,60.0,0.0,0.0
754,64.0,60.0,60.0,1.0,0.0
755,78.0,0.0,60.0,0.0,0.0
756,80.0,60.0,60.0,0.0,0.0
757,63.0,0.0,60.0,1.0,0.0
758,61.0,60.0,60.0,1.0,0.0
759,77.0,0.0,60.0,0.0,0.0
760,59.0,0.0,60.0,1.0,0.0
761,80.0,60.0,60.0,0.0,0.0
762,61.0,60.0,60.0,1.0,0.0
763,76.0,0.0,60.0,0.0,0.0
764,80.0,60.0,60.0,0.0,0.0
765,58.0,0.0,60.0,1.0,0.0
766,59.0,0.0,60.0,1.0,0.0
767,75.0,60.0,60.0,0.0,0.0
768,58.0,60.0,60.0,1.0,0.0
769,73.0,0.0,60.0,0.0,0.0
770,71.0,0.0,60.0,0.0,0.0
771,56.0,60.0,60.0,1.0,0.0
772,76.0,0.0,60.0,0.0,0.0
773,68.0,60.0,60.0,1.0,0.0
774,75.0,60.0,60.0,0.0,0.0
775,67.0,0.0,60.0,1.0,0.0
776,68.0,60.0,60.0,1.0,0.0
777,73.0,0.0,60.0,0.0,0.0
778,75.0,0.0,60.0,0.0,0.0
779,66.0,60.0,60.0,1.0,0.0
780,72.0,0.0,60.0,0.0,0.0
781,68.0,60.0,60.0,1.0,0.0
782,65.0,60.0,60.0,1.0,0.0
783,73.0,0.0,60.0,0.0,0.0
784,71.0,60.0,60.0,0.0,0.0
785,68.0,0.0,60.0,1.0,0.0
786,64.0,0.0,60.0,1.0,0.0
787,73.0,60.0,60.0,0.0,0.0
788,68.0,0.0,60.0,1.0,0.0
789,70.0,60.0,60.0,0.0,0.0
790,63.0,0.0,120.0,1.0,0.0
791,71.0,60.0,60.0,0.0,0.0
792,70.0,60.0,60.0,0.0,0.0
793,61.0,60.0,120.0,1.0,0.0
794,71.0,60.0,60.0,0.0,0.0
795,73.0,0.0,60.0,0.0,0.0
796,67.0,60.0,60.0,0.0,0.0
797,63.0,60.0,120.0,1.0,0.0
798,70.0,0.0,60.0,0.0,0.0
799,64.0,60.0,60.0,0.0,0.0
800,63.0,60.0,60.0,0.0,0.0
801,51.0,0.0,120.0,1.0,0.0
802,64.0,60.0,60.0,0.0,0.0
803,66.0,60.0,60.0,0.0,0.0
804,63.0,60.0,60.0,0.0,0.0
805,61.0,30.0,60.0,0.0,0.0
806,60.0,30.0,30.0,0.0,0.0
807,44.0,0.0,180.0,1.0,0.0
808,63.0,120.0,30.0,0.0,0.0
809,68.0,0.0,120.0,0.0,0.0
