,note,step,duration,channel,velocity
0,67.0,48.0,40.0,0.0,0.0
1,67.0,18.0,150.0,0.0,0.0
2,51.0,30.0,150.0,3.0,0.0
3,51.0,48.0,40.0,2.0,0.0
4,55.0,48.0,40.0,2.0,0.0
5,58.0,0.0,40.0,2.0,0.0
6,68.0,24.0,40.0,0.0,0.0
7,63.0,0.0,90.0,2.0,0.0
8,53.0,6.0,150.0,3.0,0.0
9,70.0,24.0,20.0,0.0,0.0
10,68.0,24.0,20.0,0.0,0.0
11,63.0,0.0,40.0,2.0,0.0
12,70.0,24.0,20.0,0.0,0.0
13,68.0,24.0,20.0,0.0,0.0
14,70.0,24.0,20.0,0.0,0.0
15,62.0,0.0,40.0,2.0,0.0
16,68.0,18.0,20.0,0.0,0.0
17,67.0,24.0,20.0,0.0,0.0
18,60.0,96.0,40.0,2.0,0.0
19,68.0,0.0,20.0,0.0,0.0
20,70.0,18.0,240.0,0.0,0.0
21,55.0,30.0,270.0,3.0,0.0
22,58.0,48.0,40.0,2.0,0.0
23,62.0,96.0,40.0,2.0,0.0
24,63.0,30.0,510.0,2.0,0.0
25,67.0,30.0,150.0,1.0,0.0
26,70.0,48.0,40.0,0.0,0.0
27,55.0,0.0,90.0,3.0,0.0
28,74.0,18.0,40.0,0.0,0.0
29,75.0,48.0,40.0,0.0,0.0
30,56.0,48.0,90.0,3.0,0.0
31,72.0,48.0,40.0,0.0,0.0
32,75.0,0.0,40.0,0.0,0.0
33,70.0,48.0,40.0,0.0,0.0
34,55.0,0.0,90.0,3.0,0.0
35,75.0,48.0,40.0,0.0,0.0
36,53.0,30.0,150.0,3.0,0.0
37,68.0,18.0,40.0,0.0,0.0
38,67.0,48.0,40.0,0.0,0.0
39,62.0,48.0,90.0,2.0,0.0
40,68.0,18.0,40.0,0.0,0.0
41,77.0,0.0,40.0,0.0,0.0
42,51.0,48.0,240.0,3.0,0.0
43,68.0,48.0,40.0,0.0,0.0
44,67.0,48.0,40.0,0.0,0.0
45,65.0,48.0,40.0,0.0,0.0
46,55.0,48.0,90.0,2.0,0.0
47,63.0,0.0,40.0,0.0,0.0
48,67.0,48.0,240.0,0.0,0.0
49,58.0,48.0,90.0,1.0,0.0
50,50.0,0.0,40.0,3.0,0.0
51,63.0,48.0,90.0,1.0,0.0
52,48.0,48.0,40.0,3.0,0.0
53,46.0,0.0,40.0,3.0,0.0
54,45.0,30.0,270.0,3.0,0.0
55,60.0,30.0,150.0,1.0,0.0
56,72.0,48.0,40.0,0.0,0.0
57,65.0,18.0,40.0,0.0,0.0
58,48.0,0.0,90.0,2.0,0.0
59,72.0,48.0,40.0,0.0,0.0
60,63.0,18.0,40.0,0.0,0.0
61,53.0,30.0,150.0,2.0,0.0
62,62.0,48.0,40.0,0.0,0.0
63,63.0,18.0,40.0,0.0,0.0
64,45.0,48.0,90.0,3.0,0.0
65,72.0,0.0,40.0,0.0,0.0
66,63.0,48.0,40.0,0.0,0.0
67,46.0,30.0,270.0,3.0,0.0
68,62.0,48.0,40.0,0.0,0.0
69,50.0,0.0,90.0,2.0,0.0
70,60.0,48.0,40.0,0.0,0.0
71,58.0,48.0,40.0,0.0,0.0
72,60.0,18.0,40.0,0.0,0.0
73,53.0,30.0,150.0,2.0,0.0
74,62.0,48.0,40.0,0.0,0.0
75,44.0,0.0,90.0,3.0,0.0
76,63.0,18.0,40.0,0.0,0.0
77,62.0,48.0,40.0,0.0,0.0
78,46.0,0.0,90.0,2.0,0.0
79,43.0,30.0,150.0,3.0,0.0
80,63.0,48.0,40.0,0.0,0.0
81,65.0,48.0,40.0,0.0,0.0
82,51.0,96.0,300.0,2.0,0.0
83,63.0,18.0,40.0,0.0,0.0
84,65.0,24.0,40.0,0.0,0.0
85,67.0,24.0,20.0,0.0,0.0
86,41.0,6.0,150.0,3.0,0.0
87,65.0,24.0,20.0,0.0,0.0
88,67.0,24.0,20.0,0.0,0.0
89,65.0,24.0,20.0,0.0,0.0
90,67.0,24.0,20.0,0.0,0.0
91,65.0,18.0,20.0,0.0,0.0
92,63.0,24.0,20.0,0.0,0.0
93,65.0,0.0,20.0,0.0,0.0
94,51.0,30.0,150.0,2.0,0.0
95,67.0,48.0,240.0,0.0,0.0
96,39.0,48.0,40.0,3.0,0.0
97,43.0,18.0,40.0,3.0,0.0
98,46.0,48.0,40.0,3.0,0.0
99,51.0,48.0,90.0,3.0,0.0
100,67.0,0.0,40.0,0.0,0.0
101,53.0,48.0,40.0,3.0,0.0
102,72.0,0.0,40.0,0.0,0.0
103,55.0,0.0,40.0,3.0,0.0
104,71.0,48.0,40.0,0.0,0.0
105,72.0,48.0,40.0,0.0,0.0
106,56.0,48.0,90.0,3.0,0.0
107,74.0,0.0,40.0,0.0,0.0
108,51.0,24.0,90.0,3.0,0.0
109,60.0,6.0,150.0,2.0,0.0
110,72.0,48.0,40.0,0.0,0.0
111,74.0,0.0,40.0,0.0,0.0
112,75.0,24.0,20.0,0.0,0.0
113,53.0,24.0,90.0,3.0,0.0
114,74.0,18.0,20.0,0.0,0.0
115,75.0,24.0,20.0,0.0,0.0
116,74.0,0.0,20.0,0.0,0.0
117,55.0,0.0,90.0,3.0,0.0
118,75.0,24.0,20.0,0.0,0.0
119,59.0,48.0,90.0,2.0,0.0
120,74.0,24.0,20.0,0.0,0.0
121,72.0,24.0,20.0,0.0,0.0
122,74.0,0.0,20.0,0.0,0.0
123,60.0,30.0,150.0,2.0,0.0
124,60.0,48.0,40.0,3.0,0.0
125,75.0,48.0,240.0,0.0,0.0
126,55.0,48.0,40.0,3.0,0.0
127,51.0,18.0,40.0,3.0,0.0
128,55.0,48.0,40.0,3.0,0.0
129,48.0,48.0,90.0,3.0,0.0
130,74.0,0.0,40.0,0.0,0.0
131,72.0,48.0,40.0,0.0,0.0
132,51.0,48.0,90.0,3.0,0.0
133,70.0,0.0,40.0,0.0,0.0
134,53.0,30.0,270.0,3.0,0.0
135,69.0,48.0,40.0,0.0,0.0
136,72.0,48.0,40.0,0.0,0.0
137,55.0,0.0,90.0,2.0,0.0
138,67.0,48.0,40.0,0.0,0.0
139,72.0,48.0,40.0,0.0,0.0
140,65.0,18.0,40.0,0.0,0.0
141,57.0,30.0,150.0,2.0,0.0
142,75.0,48.0,40.0,0.0,0.0
143,53.0,0.0,90.0,3.0,0.0
144,74.0,18.0,40.0,0.0,0.0
145,72.0,48.0,40.0,0.0,0.0
146,46.0,48.0,90.0,3.0,0.0
147,58.0,48.0,480.0,2.0,0.0
148,74.0,48.0,40.0,0.0,0.0
149,77.0,0.0,40.0,0.0,0.0
150,48.0,0.0,90.0,3.0,0.0
151,72.0,48.0,40.0,0.0,0.0
152,77.0,48.0,40.0,0.0,0.0
153,70.0,48.0,40.0,0.0,0.0
154,50.0,48.0,90.0,3.0,0.0
155,68.0,0.0,40.0,0.0,0.0
156,67.0,48.0,40.0,0.0,0.0
157,46.0,48.0,90.0,3.0,0.0
158,65.0,0.0,40.0,0.0,0.0
159,51.0,0.0,480.0,3.0,0.0
160,67.0,48.0,40.0,0.0,0.0
161,70.0,0.0,40.0,0.0,0.0
162,65.0,48.0,40.0,0.0,0.0
163,56.0,48.0,90.0,2.0,0.0
164,70.0,0.0,40.0,0.0,0.0
165,55.0,48.0,90.0,2.0,0.0
166,63.0,48.0,40.0,0.0,0.0
167,70.0,0.0,40.0,0.0,0.0
168,53.0,0.0,90.0,2.0,0.0
169,62.0,48.0,40.0,0.0,0.0
170,70.0,48.0,40.0,0.0,0.0
171,60.0,48.0,40.0,0.0,0.0
172,51.0,30.0,270.0,2.0,0.0
173,70.0,48.0,40.0,0.0,0.0
174,48.0,0.0,90.0,3.0,0.0
175,69.0,48.0,40.0,0.0,0.0
176,67.0,48.0,40.0,0.0,0.0
177,41.0,0.0,90.0,3.0,0.0
178,69.0,18.0,40.0,0.0,0.0
179,72.0,48.0,40.0,0.0,0.0
180,48.0,48.0,90.0,2.0,0.0
181,65.0,48.0,40.0,0.0,0.0
182,45.0,0.0,90.0,3.0,0.0
183,75.0,0.0,40.0,0.0,0.0
184,74.0,48.0,40.0,0.0,0.0
185,46.0,48.0,90.0,3.0,0.0
186,46.0,0.0,150.0,2.0,0.0
187,72.0,0.0,40.0,0.0,0.0
188,39.0,0.0,90.0,3.0,0.0
189,74.0,48.0,40.0,0.0,0.0
190,48.0,0.0,40.0,2.0,0.0
191,70.0,24.0,40.0,0.0,0.0
192,70.0,24.0,20.0,0.0,0.0
193,50.0,72.0,120.0,2.0,0.0
194,41.0,0.0,210.0,3.0,0.0
195,69.0,24.0,20.0,0.0,0.0
196,70.0,24.0,20.0,0.0,0.0
197,69.0,24.0,20.0,0.0,0.0
198,70.0,0.0,20.0,0.0,0.0
199,51.0,48.0,90.0,2.0,0.0
200,69.0,24.0,60.0,0.0,0.0
201,70.0,0.0,20.0,0.0,0.0
202,70.0,0.0,240.0,0.0,0.0
203,46.0,0.0,40.0,3.0,0.0
204,46.0,48.0,40.0,2.0,0.0
205,58.0,48.0,40.0,3.0,0.0
206,48.0,0.0,40.0,3.0,0.0
207,48.0,48.0,40.0,2.0,0.0
208,58.0,48.0,40.0,3.0,0.0
209,50.0,48.0,40.0,2.0,0.0
210,50.0,0.0,40.0,3.0,0.0
211,74.0,48.0,40.0,0.0,0.0
212,58.0,0.0,40.0,3.0,0.0
213,77.0,0.0,40.0,0.0,0.0
214,46.0,48.0,40.0,2.0,0.0
215,46.0,0.0,40.0,3.0,0.0
216,58.0,48.0,40.0,3.0,0.0
217,80.0,0.0,40.0,0.0,0.0
218,51.0,48.0,40.0,3.0,0.0
219,79.0,0.0,150.0,0.0,0.0
220,58.0,48.0,40.0,3.0,0.0
221,53.0,48.0,40.0,3.0,0.0
222,77.0,0.0,40.0,0.0,0.0
223,58.0,48.0,40.0,3.0,0.0
224,75.0,0.0,40.0,0.0,0.0
225,55.0,48.0,40.0,3.0,0.0
226,58.0,48.0,40.0,3.0,0.0
227,74.0,0.0,40.0,0.0,0.0
228,51.0,0.0,40.0,3.0,0.0
229,72.0,48.0,40.0,0.0,0.0
230,58.0,12.0,40.0,3.0,0.0
231,70.0,0.0,40.0,0.0,0.0
232,72.0,12.0,15.0,0.0,0.0
233,48.0,48.0,40.0,3.0,0.0
234,74.0,24.0,15.0,0.0,0.0
235,75.0,0.0,120.0,0.0,0.0
236,58.0,48.0,40.0,3.0,0.0
237,50.0,48.0,40.0,3.0,0.0
238,74.0,48.0,40.0,0.0,0.0
239,58.0,0.0,40.0,3.0,0.0
240,51.0,48.0,40.0,3.0,0.0
241,72.0,0.0,40.0,0.0,0.0
242,58.0,0.0,40.0,3.0,0.0
243,70.0,48.0,40.0,0.0,0.0
244,48.0,0.0,40.0,3.0,0.0
245,69.0,48.0,40.0,0.0,0.0
246,58.0,48.0,40.0,3.0,0.0
247,67.0,0.0,40.0,0.0,0.0
248,69.0,48.0,40.0,0.0,0.0
249,53.0,0.0,40.0,3.0,0.0
250,65.0,48.0,40.0,0.0,0.0
251,57.0,0.0,40.0,3.0,0.0
252,55.0,0.0,40.0,3.0,0.0
253,70.0,48.0,40.0,0.0,0.0
254,58.0,48.0,40.0,3.0,0.0
255,65.0,0.0,40.0,0.0,0.0
256,72.0,0.0,40.0,0.0,0.0
257,57.0,48.0,40.0,3.0,0.0
258,60.0,48.0,40.0,3.0,0.0
259,65.0,0.0,40.0,0.0,0.0
260,53.0,48.0,40.0,3.0,0.0
261,75.0,0.0,40.0,0.0,0.0
262,57.0,0.0,40.0,3.0,0.0
263,72.0,48.0,40.0,0.0,0.0
264,58.0,48.0,90.0,3.0,0.0
265,73.0,48.0,40.0,0.0,0.0
266,65.0,0.0,40.0,0.0,0.0
267,70.0,48.0,40.0,0.0,0.0
268,56.0,0.0,90.0,3.0,0.0
269,72.0,48.0,40.0,0.0,0.0
270,54.0,0.0,90.0,3.0,0.0
271,73.0,48.0,40.0,0.0,0.0
272,70.0,48.0,40.0,0.0,0.0
273,74.0,48.0,40.0,0.0,0.0
274,53.0,48.0,90.0,3.0,0.0
275,70.0,0.0,40.0,0.0,0.0
276,54.0,48.0,90.0,3.0,0.0
277,75.0,48.0,40.0,0.0,0.0
278,70.0,0.0,40.0,0.0,0.0
279,78.0,48.0,40.0,0.0,0.0
280,51.0,48.0,90.0,3.0,0.0
281,77.0,0.0,40.0,0.0,0.0
282,76.0,48.0,40.0,0.0,0.0
283,48.0,48.0,90.0,3.0,0.0
284,70.0,0.0,40.0,0.0,0.0
285,69.0,48.0,40.0,0.0,0.0
286,53.0,48.0,90.0,3.0,0.0
287,75.0,0.0,40.0,0.0,0.0
288,58.0,0.0,90.0,3.0,0.0
289,74.0,48.0,40.0,0.0,0.0
290,68.0,48.0,40.0,0.0,0.0
291,51.0,48.0,90.0,3.0,0.0
292,67.0,48.0,40.0,0.0,0.0
293,72.0,0.0,40.0,0.0,0.0
294,63.0,0.0,40.0,1.0,0.0
295,62.0,0.0,90.0,1.0,0.0
296,65.0,48.0,40.0,0.0,0.0
297,53.0,30.0,150.0,3.0,0.0
298,70.0,48.0,40.0,0.0,0.0
299,63.0,18.0,40.0,0.0,0.0
300,60.0,96.0,90.0,1.0,0.0
301,69.0,0.0,40.0,0.0,0.0
302,58.0,48.0,240.0,3.0,0.0
303,70.0,16.0,630.0,0.0,0.0
304,63.0,96.0,40.0,1.0,0.0
305,65.0,78.0,540.0,1.0,0.0
306,60.0,48.0,40.0,1.0,0.0
307,62.0,0.0,450.0,1.0,0.0
308,57.0,96.0,40.0,3.0,0.0
309,58.0,0.0,360.0,3.0,0.0
310,53.0,242.0,40.0,3.0,0.0
311,46.0,0.0,270.0,3.0,0.0
312,67.0,48.0,40.0,0.0,0.0
313,51.0,48.0,40.0,2.0,0.0
314,67.0,0.0,150.0,0.0,0.0
315,51.0,30.0,150.0,3.0,0.0
316,55.0,48.0,40.0,2.0,0.0
317,58.0,18.0,40.0,2.0,0.0
318,63.0,0.0,90.0,2.0,0.0
319,68.0,24.0,40.0,0.0,0.0
320,53.0,6.0,150.0,3.0,0.0
321,70.0,24.0,20.0,0.0,0.0
322,68.0,24.0,20.0,0.0,0.0
323,70.0,24.0,20.0,0.0,0.0
324,63.0,24.0,40.0,2.0,0.0
325,68.0,0.0,20.0,0.0,0.0
326,70.0,24.0,20.0,0.0,0.0
327,62.0,18.0,40.0,2.0,0.0
328,68.0,0.0,20.0,0.0,0.0
329,67.0,24.0,20.0,0.0,0.0
330,60.0,96.0,40.0,2.0,0.0
331,68.0,0.0,20.0,0.0,0.0
332,55.0,30.0,270.0,3.0,0.0
333,70.0,18.0,240.0,0.0,0.0
334,58.0,48.0,40.0,2.0,0.0
335,62.0,96.0,40.0,2.0,0.0
336,63.0,30.0,510.0,2.0,0.0
337,67.0,30.0,150.0,1.0,0.0
338,70.0,48.0,40.0,0.0,0.0
339,74.0,18.0,40.0,0.0,0.0
340,55.0,0.0,90.0,3.0,0.0
341,75.0,48.0,40.0,0.0,0.0
342,56.0,0.0,90.0,3.0,0.0
343,72.0,48.0,40.0,0.0,0.0
344,75.0,48.0,40.0,0.0,0.0
345,55.0,48.0,90.0,3.0,0.0
346,70.0,48.0,40.0,0.0,0.0
347,75.0,0.0,40.0,0.0,0.0
348,53.0,30.0,150.0,3.0,0.0
349,68.0,18.0,40.0,0.0,0.0
350,67.0,48.0,40.0,0.0,0.0
351,62.0,48.0,90.0,2.0,0.0
352,68.0,18.0,40.0,0.0,0.0
353,77.0,0.0,40.0,0.0,0.0
354,68.0,48.0,40.0,0.0,0.0
355,51.0,48.0,240.0,3.0,0.0
356,67.0,48.0,40.0,0.0,0.0
357,65.0,48.0,40.0,0.0,0.0
358,55.0,0.0,90.0,2.0,0.0
359,63.0,48.0,40.0,0.0,0.0
360,67.0,48.0,240.0,0.0,0.0
361,58.0,0.0,90.0,1.0,0.0
362,50.0,48.0,40.0,3.0,0.0
363,63.0,0.0,90.0,1.0,0.0
364,48.0,48.0,40.0,3.0,0.0
365,46.0,48.0,40.0,3.0,0.0
366,60.0,30.0,150.0,1.0,0.0
367,45.0,30.0,270.0,3.0,0.0
368,72.0,48.0,40.0,0.0,0.0
369,48.0,0.0,90.0,2.0,0.0
370,65.0,18.0,40.0,0.0,0.0
371,72.0,48.0,40.0,0.0,0.0
372,63.0,18.0,40.0,0.0,0.0
373,53.0,30.0,150.0,2.0,0.0
374,62.0,48.0,40.0,0.0,0.0
375,45.0,0.0,90.0,3.0,0.0
376,63.0,18.0,40.0,0.0,0.0
377,72.0,48.0,40.0,0.0,0.0
378,46.0,30.0,270.0,3.0,0.0
379,63.0,48.0,40.0,0.0,0.0
380,62.0,48.0,40.0,0.0,0.0
381,60.0,48.0,40.0,0.0,0.0
382,50.0,0.0,90.0,2.0,0.0
383,58.0,48.0,40.0,0.0,0.0
384,53.0,30.0,150.0,2.0,0.0
385,60.0,18.0,40.0,0.0,0.0
386,62.0,48.0,40.0,0.0,0.0
387,63.0,18.0,40.0,0.0,0.0
388,44.0,0.0,90.0,3.0,0.0
389,62.0,48.0,40.0,0.0,0.0
390,63.0,48.0,40.0,0.0,0.0
391,46.0,48.0,90.0,2.0,0.0
392,43.0,30.0,150.0,3.0,0.0
393,65.0,0.0,40.0,0.0,0.0
394,51.0,0.0,300.0,2.0,0.0
395,63.0,18.0,40.0,0.0,0.0
396,65.0,24.0,40.0,0.0,0.0
397,67.0,24.0,20.0,0.0,0.0
398,41.0,6.0,150.0,3.0,0.0
399,65.0,24.0,20.0,0.0,0.0
400,67.0,24.0,20.0,0.0,0.0
401,65.0,24.0,20.0,0.0,0.0
402,67.0,24.0,20.0,0.0,0.0
403,65.0,18.0,20.0,0.0,0.0
404,63.0,24.0,20.0,0.0,0.0
405,65.0,96.0,20.0,0.0,0.0
406,51.0,30.0,150.0,2.0,0.0
407,67.0,48.0,240.0,0.0,0.0
408,39.0,48.0,40.0,3.0,0.0
409,43.0,18.0,40.0,3.0,0.0
410,46.0,48.0,40.0,3.0,0.0
411,51.0,48.0,90.0,3.0,0.0
412,67.0,0.0,40.0,0.0,0.0
413,72.0,0.0,40.0,0.0,0.0
414,53.0,48.0,40.0,3.0,0.0
415,55.0,0.0,40.0,3.0,0.0
416,71.0,48.0,40.0,0.0,0.0
417,72.0,48.0,40.0,0.0,0.0
418,56.0,48.0,90.0,3.0,0.0
419,74.0,0.0,40.0,0.0,0.0
420,60.0,6.0,150.0,2.0,0.0
421,51.0,24.0,90.0,3.0,0.0
422,72.0,48.0,40.0,0.0,0.0
423,74.0,0.0,40.0,0.0,0.0
424,75.0,24.0,20.0,0.0,0.0
425,53.0,24.0,90.0,3.0,0.0
426,74.0,18.0,20.0,0.0,0.0
427,75.0,24.0,20.0,0.0,0.0
428,74.0,0.0,20.0,0.0,0.0
429,59.0,0.0,90.0,2.0,0.0
430,55.0,0.0,90.0,3.0,0.0
431,75.0,24.0,20.0,0.0,0.0
432,74.0,24.0,20.0,0.0,0.0
433,72.0,24.0,20.0,0.0,0.0
434,74.0,48.0,20.0,0.0,0.0
435,60.0,30.0,150.0,2.0,0.0
436,75.0,48.0,240.0,0.0,0.0
437,60.0,48.0,40.0,3.0,0.0
438,55.0,48.0,40.0,3.0,0.0
439,51.0,18.0,40.0,3.0,0.0
440,55.0,48.0,40.0,3.0,0.0
441,48.0,48.0,90.0,3.0,0.0
442,74.0,0.0,40.0,0.0,0.0
443,51.0,48.0,90.0,3.0,0.0
444,72.0,48.0,40.0,0.0,0.0
445,70.0,0.0,40.0,0.0,0.0
446,53.0,30.0,270.0,3.0,0.0
447,69.0,48.0,40.0,0.0,0.0
448,72.0,48.0,40.0,0.0,0.0
449,55.0,0.0,90.0,2.0,0.0
450,67.0,48.0,40.0,0.0,0.0
451,72.0,48.0,40.0,0.0,0.0
452,65.0,18.0,40.0,0.0,0.0
453,57.0,30.0,150.0,2.0,0.0
454,75.0,48.0,40.0,0.0,0.0
455,74.0,18.0,40.0,0.0,0.0
456,53.0,0.0,90.0,3.0,0.0
457,72.0,48.0,40.0,0.0,0.0
458,58.0,0.0,480.0,2.0,0.0
459,74.0,48.0,40.0,0.0,0.0
460,46.0,0.0,90.0,3.0,0.0
461,77.0,48.0,40.0,0.0,0.0
462,48.0,48.0,90.0,3.0,0.0
463,72.0,48.0,40.0,0.0,0.0
464,77.0,0.0,40.0,0.0,0.0
465,70.0,48.0,40.0,0.0,0.0
466,50.0,0.0,90.0,3.0,0.0
467,68.0,48.0,40.0,0.0,0.0
468,46.0,48.0,90.0,3.0,0.0
469,67.0,48.0,40.0,0.0,0.0
470,65.0,0.0,40.0,0.0,0.0
471,67.0,48.0,40.0,0.0,0.0
472,51.0,48.0,480.0,3.0,0.0
473,70.0,48.0,40.0,0.0,0.0
474,56.0,48.0,90.0,2.0,0.0
475,65.0,48.0,40.0,0.0,0.0
476,70.0,0.0,40.0,0.0,0.0
477,63.0,48.0,40.0,0.0,0.0
478,55.0,0.0,90.0,2.0,0.0
479,70.0,48.0,40.0,0.0,0.0
480,53.0,48.0,90.0,2.0,0.0
481,62.0,48.0,40.0,0.0,0.0
482,70.0,0.0,40.0,0.0,0.0
483,51.0,30.0,270.0,2.0,0.0
484,60.0,48.0,40.0,0.0,0.0
485,70.0,0.0,40.0,0.0,0.0
486,48.0,0.0,90.0,3.0,0.0
487,69.0,48.0,40.0,0.0,0.0
488,67.0,48.0,40.0,0.0,0.0
489,41.0,48.0,90.0,3.0,0.0
490,69.0,18.0,40.0,0.0,0.0
491,72.0,0.0,40.0,0.0,0.0
492,48.0,0.0,90.0,2.0,0.0
493,65.0,48.0,40.0,0.0,0.0
494,45.0,48.0,90.0,3.0,0.0
495,75.0,0.0,40.0,0.0,0.0
496,46.0,0.0,150.0,2.0,0.0
497,46.0,0.0,90.0,3.0,0.0
498,74.0,48.0,40.0,0.0,0.0
499,72.0,48.0,40.0,0.0,0.0
500,39.0,24.0,90.0,3.0,0.0
501,74.0,48.0,40.0,0.0,0.0
502,48.0,0.0,40.0,2.0,0.0
503,70.0,0.0,40.0,0.0,0.0
504,70.0,24.0,20.0,0.0,0.0
505,41.0,48.0,210.0,3.0,0.0
506,50.0,72.0,120.0,2.0,0.0
507,69.0,24.0,20.0,0.0,0.0
508,70.0,24.0,20.0,0.0,0.0
509,69.0,24.0,20.0,0.0,0.0
510,70.0,0.0,20.0,0.0,0.0
511,51.0,0.0,90.0,2.0,0.0
512,69.0,24.0,60.0,0.0,0.0
513,70.0,0.0,20.0,0.0,0.0
514,70.0,48.0,240.0,0.0,0.0
515,46.0,0.0,40.0,3.0,0.0
516,46.0,48.0,40.0,2.0,0.0
517,58.0,48.0,40.0,3.0,0.0
518,48.0,0.0,40.0,3.0,0.0
519,48.0,48.0,40.0,2.0,0.0
520,58.0,48.0,40.0,3.0,0.0
521,50.0,0.0,40.0,2.0,0.0
522,50.0,0.0,40.0,3.0,0.0
523,58.0,0.0,40.0,3.0,0.0
524,74.0,48.0,40.0,0.0,0.0
525,46.0,48.0,40.0,2.0,0.0
526,46.0,0.0,40.0,3.0,0.0
527,77.0,0.0,40.0,0.0,0.0
528,80.0,0.0,40.0,0.0,0.0
529,58.0,48.0,40.0,3.0,0.0
530,51.0,48.0,40.0,3.0,0.0
531,79.0,48.0,150.0,0.0,0.0
532,58.0,48.0,40.0,3.0,0.0
533,53.0,0.0,40.0,3.0,0.0
534,77.0,0.0,40.0,0.0,0.0
535,58.0,48.0,40.0,3.0,0.0
536,75.0,48.0,40.0,0.0,0.0
537,55.0,0.0,40.0,3.0,0.0
538,74.0,0.0,40.0,0.0,0.0
539,58.0,48.0,40.0,3.0,0.0
540,72.0,48.0,40.0,0.0,0.0
541,51.0,0.0,40.0,3.0,0.0
542,70.0,0.0,40.0,0.0,0.0
543,58.0,12.0,40.0,3.0,0.0
544,48.0,48.0,40.0,3.0,0.0
545,72.0,12.0,15.0,0.0,0.0
546,74.0,24.0,15.0,0.0,0.0
547,75.0,48.0,120.0,0.0,0.0
548,58.0,48.0,40.0,3.0,0.0
549,50.0,0.0,40.0,3.0,0.0
550,58.0,0.0,40.0,3.0,0.0
551,74.0,48.0,40.0,0.0,0.0
552,51.0,0.0,40.0,3.0,0.0
553,72.0,48.0,40.0,0.0,0.0
554,70.0,48.0,40.0,0.0,0.0
555,58.0,0.0,40.0,3.0,0.0
556,48.0,0.0,40.0,3.0,0.0
557,69.0,48.0,40.0,0.0,0.0
558,58.0,48.0,40.0,3.0,0.0
559,67.0,0.0,40.0,0.0,0.0
560,53.0,0.0,40.0,3.0,0.0
561,69.0,48.0,40.0,0.0,0.0
562,57.0,0.0,40.0,3.0,0.0
563,65.0,48.0,40.0,0.0,0.0
564,70.0,48.0,40.0,0.0,0.0
565,55.0,0.0,40.0,3.0,0.0
566,58.0,48.0,40.0,3.0,0.0
567,65.0,0.0,40.0,0.0,0.0
568,72.0,48.0,40.0,0.0,0.0
569,57.0,0.0,40.0,3.0,0.0
570,60.0,0.0,40.0,3.0,0.0
571,65.0,48.0,40.0,0.0,0.0
572,53.0,0.0,40.0,3.0,0.0
573,75.0,48.0,40.0,0.0,0.0
574,57.0,0.0,40.0,3.0,0.0
575,72.0,48.0,40.0,0.0,0.0
576,58.0,48.0,90.0,3.0,0.0
577,73.0,48.0,40.0,0.0,0.0
578,65.0,0.0,40.0,0.0,0.0
579,56.0,0.0,90.0,3.0,0.0
580,70.0,48.0,40.0,0.0,0.0
581,72.0,48.0,40.0,0.0,0.0
582,54.0,0.0,90.0,3.0,0.0
583,73.0,48.0,40.0,0.0,0.0
584,70.0,48.0,40.0,0.0,0.0
585,53.0,48.0,90.0,3.0,0.0
586,74.0,48.0,40.0,0.0,0.0
587,70.0,0.0,40.0,0.0,0.0
588,75.0,48.0,40.0,0.0,0.0
589,54.0,0.0,90.0,3.0,0.0
590,70.0,48.0,40.0,0.0,0.0
591,51.0,0.0,90.0,3.0,0.0
592,78.0,48.0,40.0,0.0,0.0
593,77.0,48.0,40.0,0.0,0.0
594,48.0,0.0,90.0,3.0,0.0
595,76.0,48.0,40.0,0.0,0.0
596,70.0,48.0,40.0,0.0,0.0
597,69.0,48.0,40.0,0.0,0.0
598,53.0,48.0,90.0,3.0,0.0
599,75.0,0.0,40.0,0.0,0.0
600,74.0,48.0,40.0,0.0,0.0
601,58.0,0.0,90.0,3.0,0.0
602,68.0,48.0,40.0,0.0,0.0
603,51.0,48.0,90.0,3.0,0.0
604,67.0,48.0,40.0,0.0,0.0
605,63.0,0.0,40.0,1.0,0.0
606,72.0,0.0,40.0,0.0,0.0
607,65.0,48.0,40.0,0.0,0.0
608,53.0,30.0,150.0,3.0,0.0
609,62.0,48.0,90.0,1.0,0.0
610,70.0,0.0,40.0,0.0,0.0
611,60.0,0.0,90.0,1.0,0.0
612,63.0,18.0,40.0,0.0,0.0
613,69.0,96.0,40.0,0.0,0.0
614,58.0,48.0,240.0,3.0,0.0
615,70.0,16.0,630.0,0.0,0.0
616,63.0,96.0,40.0,1.0,0.0
617,65.0,78.0,540.0,1.0,0.0
618,60.0,48.0,40.0,1.0,0.0
619,62.0,0.0,450.0,1.0,0.0
620,57.0,96.0,40.0,3.0,0.0
621,58.0,0.0,360.0,3.0,0.0
622,53.0,242.0,40.0,3.0,0.0
623,46.0,0.0,270.0,3.0,0.0
624,74.0,48.0,40.0,0.0,0.0
625,46.0,48.0,40.0,3.0,0.0
626,65.0,48.0,150.0,2.0,0.0
627,70.0,0.0,150.0,1.0,0.0
628,74.0,0.0,150.0,0.0,0.0
629,50.0,48.0,40.0,3.0,0.0
630,53.0,0.0,40.0,3.0,0.0
631,56.0,24.0,40.0,3.0,0.0
632,75.0,0.0,40.0,0.0,0.0
633,77.0,24.0,20.0,0.0,0.0
634,55.0,24.0,40.0,3.0,0.0
635,75.0,0.0,20.0,0.0,0.0
636,77.0,24.0,20.0,0.0,0.0
637,53.0,24.0,40.0,3.0,0.0
638,75.0,0.0,20.0,0.0,0.0
639,55.0,0.0,40.0,3.0,0.0
640,77.0,24.0,20.0,0.0,0.0
641,75.0,24.0,20.0,0.0,0.0
642,51.0,48.0,40.0,3.0,0.0
643,74.0,24.0,20.0,0.0,0.0
644,75.0,0.0,20.0,0.0,0.0
645,50.0,48.0,40.0,2.0,0.0
646,77.0,48.0,240.0,0.0,0.0
647,50.0,48.0,300.0,3.0,0.0
648,53.0,48.0,40.0,2.0,0.0
649,56.0,48.0,40.0,2.0,0.0
650,60.0,48.0,40.0,2.0,0.0
651,58.0,0.0,90.0,2.0,0.0
652,68.0,0.0,40.0,0.0,0.0
653,50.0,48.0,90.0,3.0,0.0
654,53.0,0.0,90.0,2.0,0.0
655,70.0,48.0,40.0,0.0,0.0
656,65.0,0.0,40.0,0.0,0.0
657,51.0,0.0,90.0,3.0,0.0
658,67.0,48.0,40.0,0.0,0.0
659,51.0,48.0,90.0,2.0,0.0
660,71.0,0.0,40.0,0.0,0.0
661,48.0,30.0,150.0,2.0,0.0
662,44.0,0.0,90.0,3.0,0.0
663,72.0,48.0,40.0,0.0,0.0
664,75.0,48.0,40.0,0.0,0.0
665,41.0,48.0,90.0,3.0,0.0
666,74.0,18.0,40.0,0.0,0.0
667,68.0,0.0,40.0,0.0,0.0
668,43.0,48.0,90.0,3.0,0.0
669,67.0,48.0,40.0,0.0,0.0
670,47.0,0.0,90.0,2.0,0.0
671,77.0,0.0,40.0,0.0,0.0
672,36.0,30.0,150.0,3.0,0.0
673,75.0,48.0,40.0,0.0,0.0
674,48.0,0.0,150.0,2.0,0.0
675,71.0,48.0,40.0,0.0,0.0
676,72.0,18.0,40.0,0.0,0.0
677,75.0,16.0,40.0,0.0,0.0
678,68.0,16.0,15.0,0.0,0.0
679,67.0,64.0,15.0,0.0,0.0
680,68.0,0.0,120.0,0.0,0.0
681,48.0,48.0,40.0,2.0,0.0
682,50.0,48.0,40.0,2.0,0.0
683,68.0,0.0,40.0,0.0,0.0
684,46.0,48.0,40.0,2.0,0.0
685,51.0,48.0,90.0,3.0,0.0
686,68.0,48.0,40.0,0.0,0.0
687,65.0,0.0,40.0,0.0,0.0
688,67.0,48.0,40.0,0.0,0.0
689,39.0,16.0,90.0,3.0,0.0
690,72.0,0.0,40.0,0.0,0.0
691,65.0,16.0,15.0,0.0,0.0
692,63.0,64.0,15.0,0.0,0.0
693,65.0,48.0,120.0,0.0,0.0
694,45.0,48.0,40.0,3.0,0.0
695,47.0,0.0,40.0,3.0,0.0
696,65.0,48.0,40.0,0.0,0.0
697,43.0,0.0,40.0,3.0,0.0
698,65.0,48.0,40.0,0.0,0.0
699,48.0,0.0,90.0,3.0,0.0
700,62.0,48.0,40.0,0.0,0.0
701,63.0,48.0,40.0,0.0,0.0
702,36.0,0.0,90.0,3.0,0.0
703,68.0,16.0,40.0,0.0,0.0
704,61.0,16.0,15.0,0.0,0.0
705,60.0,64.0,15.0,0.0,0.0
706,61.0,48.0,120.0,0.0,0.0
707,41.0,48.0,40.0,3.0,0.0
708,43.0,0.0,40.0,3.0,0.0
709,39.0,0.0,40.0,3.0,0.0
710,61.0,48.0,40.0,0.0,0.0
711,44.0,0.0,90.0,3.0,0.0
712,61.0,48.0,40.0,0.0,0.0
713,59.0,48.0,40.0,0.0,0.0
714,60.0,48.0,40.0,0.0,0.0
715,45.0,48.0,90.0,3.0,0.0
716,65.0,0.0,40.0,0.0,0.0
717,63.0,48.0,40.0,0.0,0.0
718,46.0,48.0,90.0,3.0,0.0
719,60.0,0.0,40.0,0.0,0.0
720,47.0,48.0,90.0,3.0,0.0
721,62.0,48.0,40.0,0.0,0.0
722,67.0,0.0,40.0,0.0,0.0
723,65.0,48.0,40.0,0.0,0.0
724,48.0,48.0,90.0,3.0,0.0
725,62.0,0.0,40.0,0.0,0.0
726,63.0,48.0,40.0,0.0,0.0
727,36.0,0.0,90.0,3.0,0.0
728,68.0,48.0,40.0,0.0,0.0
729,38.0,0.0,90.0,3.0,0.0
730,67.0,48.0,40.0,0.0,0.0
731,63.0,48.0,40.0,0.0,0.0
732,50.0,48.0,90.0,3.0,0.0
733,65.0,48.0,40.0,0.0,0.0
734,70.0,0.0,40.0,0.0,0.0
735,51.0,48.0,90.0,3.0,0.0
736,68.0,48.0,40.0,0.0,0.0
737,65.0,0.0,40.0,0.0,0.0
738,67.0,48.0,40.0,0.0,0.0
739,39.0,16.0,90.0,3.0,0.0
740,70.0,0.0,40.0,0.0,0.0
741,75.0,16.0,15.0,0.0,0.0
742,74.0,64.0,15.0,0.0,0.0
743,75.0,48.0,120.0,0.0,0.0
744,48.0,48.0,40.0,3.0,0.0
745,51.0,0.0,40.0,3.0,0.0
746,55.0,48.0,150.0,3.0,0.0
747,75.0,48.0,40.0,0.0,0.0
748,75.0,48.0,40.0,0.0,0.0
749,44.0,30.0,150.0,3.0,0.0
750,67.0,0.0,40.0,0.0,0.0
751,68.0,18.0,40.0,0.0,0.0
752,51.0,96.0,90.0,3.0,0.0
753,72.0,0.0,40.0,0.0,0.0
754,56.0,30.0,150.0,3.0,0.0
755,65.0,48.0,240.0,1.0,0.0
756,75.0,48.0,40.0,0.0,0.0
757,74.0,18.0,40.0,0.0,0.0
758,53.0,0.0,90.0,3.0,0.0
759,77.0,48.0,40.0,0.0,0.0
760,55.0,0.0,90.0,3.0,0.0
761,71.0,18.0,150.0,0.0,0.0
762,65.0,48.0,40.0,1.0,0.0
763,63.0,96.0,90.0,1.0,0.0
764,48.0,0.0,90.0,3.0,0.0
765,72.0,48.0,150.0,0.0,0.0
766,55.0,48.0,300.0,3.0,0.0
767,62.0,30.0,150.0,2.0,0.0
768,65.0,0.0,150.0,1.0,0.0
769,43.0,96.0,90.0,3.0,0.0
770,72.0,18.0,40.0,0.0,0.0
771,71.0,0.0,40.0,0.0,0.0
772,72.0,48.0,420.0,0.0,0.0
773,48.0,48.0,150.0,3.0,0.0
774,67.0,30.0,300.0,1.0,0.0
775,63.0,0.0,270.0,2.0,0.0
776,55.0,48.0,40.0,3.0,0.0
777,60.0,48.0,40.0,3.0,0.0
778,57.0,48.0,40.0,3.0,0.0
779,58.0,18.0,40.0,3.0,0.0
780,55.0,48.0,40.0,3.0,0.0
781,57.0,30.0,150.0,3.0,0.0
782,65.0,48.0,40.0,0.0,0.0
783,67.0,18.0,40.0,0.0,0.0
784,63.0,48.0,40.0,0.0,0.0
785,65.0,48.0,40.0,0.0,0.0
786,62.0,48.0,40.0,0.0,0.0
787,53.0,0.0,40.0,3.0,0.0
788,55.0,48.0,40.0,3.0,0.0
789,63.0,0.0,40.0,0.0,0.0
790,57.0,0.0,40.0,3.0,0.0
791,72.0,48.0,40.0,0.0,0.0
792,63.0,48.0,40.0,0.0,0.0
793,58.0,48.0,240.0,3.0,0.0
794,60.0,48.0,40.0,0.0,0.0
795,62.0,96.0,40.0,0.0,0.0
796,65.0,0.0,210.0,0.0,0.0
797,68.0,48.0,240.0,0.0,0.0
798,53.0,48.0,40.0,3.0,0.0
799,50.0,18.0,40.0,3.0,0.0
800,46.0,48.0,40.0,3.0,0.0
801,51.0,48.0,240.0,3.0,0.0
802,65.0,48.0,40.0,0.0,0.0
803,67.0,48.0,40.0,0.0,0.0
804,70.0,48.0,40.0,0.0,0.0
805,73.0,48.0,240.0,0.0,0.0
806,53.0,0.0,40.0,3.0,0.0
807,68.0,48.0,40.0,1.0,0.0
808,55.0,48.0,40.0,3.0,0.0
809,70.0,0.0,40.0,1.0,0.0
810,67.0,0.0,40.0,1.0,0.0
811,51.0,48.0,40.0,3.0,0.0
812,63.0,30.0,150.0,1.0,0.0
813,56.0,48.0,240.0,3.0,0.0
814,67.0,48.0,40.0,0.0,0.0
815,68.0,18.0,40.0,0.0,0.0
816,72.0,48.0,40.0,0.0,0.0
817,74.0,48.0,90.0,0.0,0.0
818,53.0,0.0,40.0,3.0,0.0
819,70.0,0.0,90.0,1.0,0.0
820,55.0,48.0,40.0,3.0,0.0
821,75.0,48.0,90.0,0.0,0.0
822,70.0,48.0,90.0,1.0,0.0
823,58.0,0.0,40.0,3.0,0.0
824,50.0,0.0,40.0,2.0,0.0
825,77.0,48.0,90.0,0.0,0.0
826,70.0,48.0,90.0,1.0,0.0
827,53.0,0.0,40.0,2.0,0.0
828,51.0,0.0,40.0,2.0,0.0
829,79.0,0.0,90.0,0.0,0.0
830,70.0,0.0,90.0,1.0,0.0
831,55.0,48.0,40.0,2.0,0.0
832,44.0,48.0,40.0,2.0,0.0
833,72.0,48.0,150.0,0.0,0.0
834,67.0,0.0,40.0,1.0,0.0
835,48.0,48.0,40.0,2.0,0.0
836,68.0,48.0,240.0,1.0,0.0
837,41.0,0.0,40.0,2.0,0.0
838,44.0,0.0,40.0,2.0,0.0
839,77.0,48.0,40.0,0.0,0.0
840,46.0,48.0,420.0,2.0,0.0
841,75.0,48.0,40.0,0.0,0.0
842,72.0,48.0,40.0,0.0,0.0
843,34.0,30.0,270.0,3.0,0.0
844,74.0,48.0,90.0,0.0,0.0
845,65.0,48.0,90.0,1.0,0.0
846,67.0,48.0,90.0,0.0,0.0
847,63.0,18.0,90.0,1.0,0.0
848,72.0,0.0,90.0,0.0,0.0
849,63.0,48.0,40.0,1.0,0.0
850,62.0,0.0,40.0,0.0,0.0
851,50.0,0.0,40.0,3.0,0.0
852,58.0,48.0,40.0,0.0,0.0
853,48.0,0.0,40.0,3.0,0.0
854,63.0,48.0,40.0,0.0,0.0
855,51.0,0.0,40.0,3.0,0.0
856,58.0,48.0,40.0,0.0,0.0
857,50.0,0.0,40.0,3.0,0.0
858,65.0,48.0,40.0,0.0,0.0
859,53.0,0.0,40.0,3.0,0.0
860,58.0,48.0,40.0,0.0,0.0
861,68.0,0.0,40.0,0.0,0.0
862,46.0,48.0,40.0,3.0,0.0
863,65.0,0.0,40.0,0.0,0.0
864,50.0,48.0,40.0,3.0,0.0
865,51.0,48.0,90.0,3.0,0.0
866,66.0,48.0,40.0,0.0,0.0
867,58.0,0.0,40.0,0.0,0.0
868,49.0,0.0,90.0,3.0,0.0
869,63.0,48.0,40.0,0.0,0.0
870,65.0,48.0,40.0,0.0,0.0
871,47.0,48.0,90.0,3.0,0.0
872,66.0,48.0,40.0,0.0,0.0
873,63.0,0.0,40.0,0.0,0.0
874,67.0,48.0,40.0,0.0,0.0
875,46.0,48.0,90.0,3.0,0.0
876,63.0,0.0,40.0,0.0,0.0
877,68.0,48.0,40.0,0.0,0.0
878,47.0,48.0,90.0,3.0,0.0
879,63.0,0.0,40.0,0.0,0.0
880,71.0,48.0,40.0,0.0,0.0
881,44.0,48.0,90.0,3.0,0.0
882,70.0,0.0,40.0,0.0,0.0
883,69.0,48.0,40.0,0.0,0.0
884,41.0,48.0,90.0,3.0,0.0
885,63.0,0.0,40.0,0.0,0.0
886,46.0,48.0,90.0,3.0,0.0
887,62.0,48.0,40.0,0.0,0.0
888,68.0,0.0,40.0,0.0,0.0
889,67.0,48.0,40.0,0.0,0.0
890,51.0,48.0,90.0,3.0,0.0
891,61.0,0.0,40.0,0.0,0.0
892,60.0,48.0,40.0,0.0,0.0
893,44.0,48.0,90.0,3.0,0.0
894,65.0,0.0,40.0,0.0,0.0
895,56.0,0.0,40.0,1.0,0.0
896,55.0,48.0,90.0,1.0,0.0
897,58.0,48.0,40.0,0.0,0.0
898,46.0,30.0,150.0,3.0,0.0
899,63.0,0.0,40.0,0.0,0.0
900,56.0,18.0,40.0,0.0,0.0
901,53.0,96.0,90.0,1.0,0.0
902,62.0,0.0,40.0,0.0,0.0
903,63.0,16.0,630.0,0.0,0.0
904,51.0,48.0,240.0,3.0,0.0
905,56.0,96.0,40.0,1.0,0.0
906,58.0,0.0,540.0,1.0,0.0
907,53.0,48.0,40.0,1.0,0.0
908,55.0,0.0,450.0,1.0,0.0
909,50.0,48.0,40.0,3.0,0.0
910,51.0,48.0,40.0,3.0,0.0
911,51.0,78.0,360.0,2.0,0.0
912,46.0,242.0,40.0,3.0,0.0
913,39.0,0.0,270.0,3.0,0.0
914,74.0,48.0,40.0,0.0,0.0
915,70.0,0.0,150.0,1.0,0.0
916,46.0,48.0,40.0,3.0,0.0
917,65.0,0.0,150.0,2.0,0.0
918,74.0,0.0,150.0,0.0,0.0
919,50.0,48.0,40.0,3.0,0.0
920,53.0,48.0,40.0,3.0,0.0
921,75.0,0.0,40.0,0.0,0.0
922,56.0,24.0,40.0,3.0,0.0
923,77.0,24.0,20.0,0.0,0.0
924,55.0,24.0,40.0,3.0,0.0
925,75.0,0.0,20.0,0.0,0.0
926,53.0,0.0,40.0,3.0,0.0
927,77.0,24.0,20.0,0.0,0.0
928,75.0,24.0,20.0,0.0,0.0
929,55.0,24.0,40.0,3.0,0.0
930,77.0,24.0,20.0,0.0,0.0
931,75.0,0.0,20.0,0.0,0.0
932,74.0,24.0,20.0,0.0,0.0
933,51.0,0.0,40.0,3.0,0.0
934,75.0,48.0,20.0,0.0,0.0
935,50.0,48.0,40.0,2.0,0.0
936,77.0,48.0,240.0,0.0,0.0
937,50.0,48.0,300.0,3.0,0.0
938,53.0,48.0,40.0,2.0,0.0
939,56.0,48.0,40.0,2.0,0.0
940,60.0,48.0,40.0,2.0,0.0
941,58.0,0.0,90.0,2.0,0.0
942,68.0,0.0,40.0,0.0,0.0
943,53.0,0.0,90.0,2.0,0.0
944,70.0,48.0,40.0,0.0,0.0
945,50.0,48.0,90.0,3.0,0.0
946,65.0,0.0,40.0,0.0,0.0
947,51.0,48.0,90.0,2.0,0.0
948,67.0,48.0,40.0,0.0,0.0
949,51.0,0.0,90.0,3.0,0.0
950,71.0,0.0,40.0,0.0,0.0
951,72.0,48.0,40.0,0.0,0.0
952,44.0,48.0,90.0,3.0,0.0
953,48.0,30.0,150.0,2.0,0.0
954,75.0,0.0,40.0,0.0,0.0
955,41.0,0.0,90.0,3.0,0.0
956,74.0,18.0,40.0,0.0,0.0
957,68.0,48.0,40.0,0.0,0.0
958,67.0,48.0,40.0,0.0,0.0
959,43.0,0.0,90.0,3.0,0.0
960,47.0,48.0,90.0,2.0,0.0
961,77.0,0.0,40.0,0.0,0.0
962,75.0,48.0,40.0,0.0,0.0
963,36.0,30.0,150.0,3.0,0.0
964,48.0,0.0,150.0,2.0,0.0
965,71.0,48.0,40.0,0.0,0.0
966,72.0,18.0,40.0,0.0,0.0
967,75.0,16.0,40.0,0.0,0.0
968,68.0,16.0,15.0,0.0,0.0
969,67.0,64.0,15.0,0.0,0.0
970,68.0,48.0,120.0,0.0,0.0
971,48.0,48.0,40.0,2.0,0.0
972,50.0,0.0,40.0,2.0,0.0
973,68.0,0.0,40.0,0.0,0.0
974,46.0,48.0,40.0,2.0,0.0
975,51.0,0.0,90.0,3.0,0.0
976,68.0,48.0,40.0,0.0,0.0
977,65.0,48.0,40.0,0.0,0.0
978,67.0,48.0,40.0,0.0,0.0
979,39.0,16.0,90.0,3.0,0.0
980,72.0,0.0,40.0,0.0,0.0
981,65.0,16.0,15.0,0.0,0.0
982,63.0,64.0,15.0,0.0,0.0
983,65.0,0.0,120.0,0.0,0.0
984,45.0,48.0,40.0,3.0,0.0
985,47.0,48.0,40.0,3.0,0.0
986,65.0,0.0,40.0,0.0,0.0
987,43.0,48.0,40.0,3.0,0.0
988,65.0,48.0,40.0,0.0,0.0
989,48.0,0.0,90.0,3.0,0.0
990,62.0,48.0,40.0,0.0,0.0
991,63.0,48.0,40.0,0.0,0.0
992,36.0,0.0,90.0,3.0,0.0
993,68.0,16.0,40.0,0.0,0.0
994,61.0,16.0,15.0,0.0,0.0
995,60.0,64.0,15.0,0.0,0.0
996,61.0,0.0,120.0,0.0,0.0
997,41.0,48.0,40.0,3.0,0.0
998,43.0,48.0,40.0,3.0,0.0
999,61.0,0.0,40.0,0.0,0.0
1000,39.0,48.0,40.0,3.0,0.0
1001,61.0,48.0,40.0,0.0,0.0
1002,44.0,0.0,90.0,3.0,0.0
1003,59.0,48.0,40.0,0.0,0.0
1004,45.0,0.0,90.0,3.0,0.0
1005,60.0,48.0,40.0,0.0,0.0
1006,65.0,48.0,40.0,0.0,0.0
1007,46.0,0.0,90.0,3.0,0.0
1008,63.0,48.0,40.0,0.0,0.0
1009,60.0,48.0,40.0,0.0,0.0
1010,47.0,0.0,90.0,3.0,0.0
1011,62.0,48.0,40.0,0.0,0.0
1012,67.0,48.0,40.0,0.0,0.0
1013,65.0,48.0,40.0,0.0,0.0
1014,48.0,0.0,90.0,3.0,0.0
1015,62.0,48.0,40.0,0.0,0.0
1016,36.0,48.0,90.0,3.0,0.0
1017,63.0,48.0,40.0,0.0,0.0
1018,68.0,0.0,40.0,0.0,0.0
1019,67.0,48.0,40.0,0.0,0.0
1020,38.0,48.0,90.0,3.0,0.0
1021,63.0,0.0,40.0,0.0,0.0
1022,65.0,48.0,40.0,0.0,0.0
1023,50.0,0.0,90.0,3.0,0.0
1024,70.0,48.0,40.0,0.0,0.0
1025,68.0,48.0,40.0,0.0,0.0
1026,51.0,48.0,90.0,3.0,0.0
1027,65.0,0.0,40.0,0.0,0.0
1028,39.0,16.0,90.0,3.0,0.0
1029,67.0,48.0,40.0,0.0,0.0
1030,70.0,0.0,40.0,0.0,0.0
1031,75.0,16.0,15.0,0.0,0.0
1032,74.0,64.0,15.0,0.0,0.0
1033,75.0,0.0,120.0,0.0,0.0
1034,48.0,48.0,40.0,3.0,0.0
1035,51.0,48.0,40.0,3.0,0.0
1036,75.0,48.0,40.0,0.0,0.0
1037,55.0,0.0,150.0,3.0,0.0
1038,75.0,48.0,40.0,0.0,0.0
1039,44.0,30.0,150.0,3.0,0.0
1040,67.0,48.0,40.0,0.0,0.0
1041,51.0,0.0,90.0,3.0,0.0
1042,68.0,18.0,40.0,0.0,0.0
1043,72.0,96.0,40.0,0.0,0.0
1044,56.0,30.0,150.0,3.0,0.0
1045,65.0,48.0,240.0,1.0,0.0
1046,75.0,48.0,40.0,0.0,0.0
1047,53.0,0.0,90.0,3.0,0.0
1048,74.0,18.0,40.0,0.0,0.0
1049,77.0,48.0,40.0,0.0,0.0
1050,71.0,18.0,150.0,0.0,0.0
1051,55.0,0.0,90.0,3.0,0.0
1052,65.0,48.0,40.0,1.0,0.0
1053,48.0,0.0,90.0,3.0,0.0
1054,63.0,96.0,90.0,1.0,0.0
1055,72.0,48.0,150.0,0.0,0.0
1056,62.0,30.0,150.0,2.0,0.0
1057,55.0,48.0,300.0,3.0,0.0
1058,65.0,96.0,150.0,1.0,0.0
1059,72.0,18.0,40.0,0.0,0.0
1060,43.0,0.0,90.0,3.0,0.0
1061,71.0,0.0,40.0,0.0,0.0
1062,72.0,48.0,420.0,0.0,0.0
1063,48.0,48.0,150.0,3.0,0.0
1064,67.0,0.0,300.0,1.0,0.0
1065,63.0,30.0,270.0,2.0,0.0
1066,55.0,48.0,40.0,3.0,0.0
1067,60.0,48.0,40.0,3.0,0.0
1068,57.0,48.0,40.0,3.0,0.0
1069,58.0,18.0,40.0,3.0,0.0
1070,55.0,48.0,40.0,3.0,0.0
1071,57.0,30.0,150.0,3.0,0.0
1072,65.0,48.0,40.0,0.0,0.0
1073,67.0,18.0,40.0,0.0,0.0
1074,63.0,48.0,40.0,0.0,0.0
1075,65.0,48.0,40.0,0.0,0.0
1076,62.0,48.0,40.0,0.0,0.0
1077,53.0,0.0,40.0,3.0,0.0
1078,63.0,0.0,40.0,0.0,0.0
1079,55.0,48.0,40.0,3.0,0.0
1080,72.0,48.0,40.0,0.0,0.0
1081,57.0,0.0,40.0,3.0,0.0
1082,58.0,48.0,240.0,3.0,0.0
1083,63.0,48.0,40.0,0.0,0.0
1084,60.0,48.0,40.0,0.0,0.0
1085,62.0,96.0,40.0,0.0,0.0
1086,65.0,30.0,210.0,0.0,0.0
1087,68.0,48.0,240.0,0.0,0.0
1088,53.0,48.0,40.0,3.0,0.0
1089,50.0,18.0,40.0,3.0,0.0
1090,46.0,48.0,40.0,3.0,0.0
1091,51.0,48.0,240.0,3.0,0.0
1092,65.0,48.0,40.0,0.0,0.0
1093,67.0,48.0,40.0,0.0,0.0
1094,70.0,48.0,40.0,0.0,0.0
1095,73.0,48.0,240.0,0.0,0.0
1096,53.0,0.0,40.0,3.0,0.0
1097,68.0,48.0,40.0,1.0,0.0
1098,55.0,0.0,40.0,3.0,0.0
1099,70.0,48.0,40.0,1.0,0.0
1100,51.0,0.0,40.0,3.0,0.0
1101,67.0,48.0,40.0,1.0,0.0
1102,56.0,48.0,240.0,3.0,0.0
1103,63.0,30.0,150.0,1.0,0.0
1104,67.0,48.0,40.0,0.0,0.0
1105,68.0,18.0,40.0,0.0,0.0
1106,72.0,48.0,40.0,0.0,0.0
1107,74.0,48.0,90.0,0.0,0.0
1108,53.0,0.0,40.0,3.0,0.0
1109,70.0,0.0,90.0,1.0,0.0
1110,55.0,48.0,40.0,3.0,0.0
1111,75.0,0.0,90.0,0.0,0.0
1112,58.0,48.0,40.0,3.0,0.0
1113,70.0,0.0,90.0,1.0,0.0
1114,50.0,48.0,40.0,2.0,0.0
1115,77.0,48.0,90.0,0.0,0.0
1116,53.0,0.0,40.0,2.0,0.0
1117,70.0,0.0,90.0,1.0,0.0
1118,51.0,48.0,40.0,2.0,0.0
1119,79.0,48.0,90.0,0.0,0.0
1120,70.0,48.0,90.0,1.0,0.0
1121,55.0,0.0,40.0,2.0,0.0
1122,44.0,0.0,40.0,2.0,0.0
1123,72.0,48.0,150.0,0.0,0.0
1124,48.0,48.0,40.0,2.0,0.0
1125,67.0,0.0,40.0,1.0,0.0
1126,68.0,48.0,240.0,1.0,0.0
1127,41.0,0.0,40.0,2.0,0.0
1128,77.0,48.0,40.0,0.0,0.0
1129,44.0,0.0,40.0,2.0,0.0
1130,75.0,48.0,40.0,0.0,0.0
1131,46.0,48.0,420.0,2.0,0.0
1132,72.0,48.0,40.0,0.0,0.0
1133,74.0,48.0,90.0,0.0,0.0
1134,34.0,30.0,270.0,3.0,0.0
1135,65.0,48.0,90.0,1.0,0.0
1136,67.0,48.0,90.0,0.0,0.0
1137,63.0,18.0,90.0,1.0,0.0
1138,72.0,0.0,90.0,0.0,0.0
1139,63.0,48.0,40.0,1.0,0.0
1140,62.0,0.0,40.0,0.0,0.0
1141,50.0,48.0,40.0,3.0,0.0
1142,58.0,0.0,40.0,0.0,0.0
1143,63.0,0.0,40.0,0.0,0.0
1144,48.0,48.0,40.0,3.0,0.0
1145,58.0,0.0,40.0,0.0,0.0
1146,51.0,48.0,40.0,3.0,0.0
1147,50.0,48.0,40.0,3.0,0.0
1148,65.0,0.0,40.0,0.0,0.0
1149,53.0,48.0,40.0,3.0,0.0
1150,58.0,0.0,40.0,0.0,0.0
1151,46.0,0.0,40.0,3.0,0.0
1152,68.0,48.0,40.0,0.0,0.0
1153,65.0,0.0,40.0,0.0,0.0
1154,50.0,48.0,40.0,3.0,0.0
1155,66.0,48.0,40.0,0.0,0.0
1156,51.0,0.0,90.0,3.0,0.0
1157,58.0,48.0,40.0,0.0,0.0
1158,63.0,48.0,40.0,0.0,0.0
1159,49.0,48.0,90.0,3.0,0.0
1160,65.0,0.0,40.0,0.0,0.0
1161,66.0,48.0,40.0,0.0,0.0
1162,47.0,48.0,90.0,3.0,0.0
1163,63.0,0.0,40.0,0.0,0.0
1164,67.0,48.0,40.0,0.0,0.0
1165,46.0,0.0,90.0,3.0,0.0
1166,63.0,48.0,40.0,0.0,0.0
1167,68.0,48.0,40.0,0.0,0.0
1168,47.0,0.0,90.0,3.0,0.0
1169,63.0,48.0,40.0,0.0,0.0
1170,71.0,48.0,40.0,0.0,0.0
1171,44.0,48.0,90.0,3.0,0.0
1172,70.0,0.0,40.0,0.0,0.0
1173,41.0,0.0,90.0,3.0,0.0
1174,69.0,48.0,40.0,0.0,0.0
1175,63.0,48.0,40.0,0.0,0.0
1176,46.0,48.0,90.0,3.0,0.0
1177,62.0,48.0,40.0,0.0,0.0
1178,68.0,0.0,40.0,0.0,0.0
1179,51.0,0.0,90.0,3.0,0.0
1180,67.0,48.0,40.0,0.0,0.0
1181,61.0,48.0,40.0,0.0,0.0
1182,44.0,0.0,90.0,3.0,0.0
1183,60.0,48.0,40.0,0.0,0.0
1184,56.0,0.0,40.0,1.0,0.0
1185,65.0,48.0,40.0,0.0,0.0
1186,46.0,30.0,150.0,3.0,0.0
1187,58.0,48.0,40.0,0.0,0.0
1188,55.0,48.0,90.0,1.0,0.0
1189,63.0,0.0,40.0,0.0,0.0
1190,56.0,18.0,40.0,0.0,0.0
1191,53.0,96.0,90.0,1.0,0.0
1192,62.0,0.0,40.0,0.0,0.0
1193,51.0,48.0,240.0,3.0,0.0
1194,63.0,16.0,630.0,0.0,0.0
1195,56.0,96.0,40.0,1.0,0.0
1196,58.0,0.0,540.0,1.0,0.0
1197,53.0,48.0,40.0,1.0,0.0
1198,55.0,0.0,450.0,1.0,0.0
1199,50.0,48.0,40.0,3.0,0.0
1200,51.0,0.0,360.0,2.0,0.0
1201,51.0,48.0,40.0,3.0,0.0
1202,46.0,242.0,40.0,3.0,0.0
1203,39.0,270.0,270.0,3.0,0.0
1204,75.0,96.0,40.0,0.0,0.0
1205,75.0,48.0,90.0,0.0,0.0
1206,51.0,30.0,150.0,3.0,0.0
1207,67.0,0.0,90.0,0.0,0.0
1208,70.0,0.0,90.0,0.0,0.0
1209,74.0,18.0,40.0,0.0,0.0
1210,72.0,48.0,40.0,0.0,0.0
1211,70.0,48.0,40.0,0.0,0.0
1212,68.0,48.0,40.0,0.0,0.0
1213,67.0,48.0,40.0,0.0,0.0
1214,58.0,0.0,90.0,3.0,0.0
1215,65.0,48.0,40.0,0.0,0.0
1216,67.0,48.0,40.0,0.0,0.0
1217,63.0,0.0,90.0,3.0,0.0
1218,70.0,48.0,40.0,0.0,0.0
1219,62.0,96.0,90.0,3.0,0.0
1220,65.0,48.0,40.0,0.0,0.0
1221,68.0,0.0,40.0,0.0,0.0
1222,67.0,0.0,90.0,0.0,0.0
1223,63.0,48.0,90.0,3.0,0.0
1224,62.0,48.0,40.0,3.0,0.0
1225,63.0,48.0,90.0,0.0,0.0
1226,60.0,0.0,40.0,3.0,0.0
1227,58.0,48.0,40.0,3.0,0.0
1228,67.0,0.0,90.0,0.0,0.0
1229,56.0,48.0,40.0,3.0,0.0
1230,55.0,48.0,40.0,3.0,0.0
1231,70.0,48.0,90.0,0.0,0.0
1232,53.0,0.0,40.0,3.0,0.0
1233,55.0,48.0,40.0,3.0,0.0
1234,75.0,0.0,90.0,0.0,0.0
1235,58.0,48.0,40.0,3.0,0.0
1236,74.0,0.0,90.0,0.0,0.0
1237,53.0,48.0,40.0,3.0,0.0
1238,56.0,48.0,40.0,3.0,0.0
1239,55.0,0.0,90.0,3.0,0.0
1240,75.0,48.0,40.0,0.0,0.0
1241,77.0,48.0,40.0,0.0,0.0
1242,51.0,0.0,90.0,3.0,0.0
1243,79.0,48.0,40.0,0.0,0.0
1244,75.0,48.0,40.0,0.0,0.0
1245,55.0,0.0,90.0,3.0,0.0
1246,70.0,48.0,40.0,0.0,0.0
1247,73.0,48.0,40.0,0.0,0.0
1248,51.0,0.0,90.0,3.0,0.0
1249,72.0,48.0,40.0,0.0,0.0
1250,70.0,48.0,40.0,0.0,0.0
1251,56.0,0.0,90.0,3.0,0.0
1252,72.0,48.0,40.0,0.0,0.0
1253,77.0,48.0,40.0,0.0,0.0
1254,79.0,48.0,40.0,0.0,0.0
1255,53.0,0.0,90.0,3.0,0.0
1256,80.0,16.0,40.0,0.0,0.0
1257,58.0,0.0,90.0,3.0,0.0
1258,75.0,16.0,15.0,0.0,0.0
1259,74.0,16.0,15.0,0.0,0.0
1260,75.0,48.0,15.0,0.0,0.0
1261,74.0,48.0,40.0,0.0,0.0
1262,70.0,48.0,90.0,0.0,0.0
1263,56.0,48.0,40.0,3.0,0.0
1264,55.0,0.0,40.0,3.0,0.0
1265,53.0,48.0,40.0,3.0,0.0
1266,51.0,48.0,40.0,3.0,0.0
1267,72.0,0.0,40.0,0.0,0.0
1268,50.0,0.0,40.0,3.0,0.0
1269,70.0,48.0,40.0,0.0,0.0
1270,68.0,0.0,40.0,0.0,0.0
1271,48.0,48.0,40.0,3.0,0.0
1272,46.0,48.0,40.0,3.0,0.0
1273,67.0,0.0,40.0,0.0,0.0
1274,70.0,48.0,40.0,0.0,0.0
1275,50.0,0.0,40.0,3.0,0.0
1276,44.0,0.0,40.0,3.0,0.0
1277,65.0,48.0,40.0,0.0,0.0
1278,50.0,48.0,40.0,3.0,0.0
1279,70.0,0.0,40.0,0.0,0.0
1280,43.0,48.0,90.0,3.0,0.0
1281,63.0,48.0,40.0,0.0,0.0
1282,70.0,0.0,40.0,0.0,0.0
1283,41.0,48.0,90.0,3.0,0.0
1284,62.0,48.0,40.0,0.0,0.0
1285,70.0,0.0,40.0,0.0,0.0
1286,43.0,0.0,90.0,3.0,0.0
1287,63.0,48.0,40.0,0.0,0.0
1288,70.0,48.0,40.0,0.0,0.0
1289,68.0,48.0,40.0,0.0,0.0
1290,39.0,0.0,90.0,3.0,0.0
1291,67.0,48.0,40.0,0.0,0.0
1292,41.0,0.0,90.0,3.0,0.0
1293,65.0,48.0,40.0,0.0,0.0
1294,63.0,48.0,40.0,0.0,0.0
1295,43.0,0.0,90.0,3.0,0.0
1296,61.0,48.0,40.0,0.0,0.0
1297,70.0,48.0,40.0,0.0,0.0
1298,44.0,0.0,90.0,3.0,0.0
1299,60.0,48.0,40.0,0.0,0.0
1300,70.0,48.0,40.0,0.0,0.0
1301,43.0,0.0,90.0,3.0,0.0
1302,58.0,48.0,40.0,0.0,0.0
1303,70.0,48.0,40.0,0.0,0.0
1304,44.0,0.0,90.0,3.0,0.0
1305,60.0,48.0,40.0,0.0,0.0
1306,70.0,48.0,40.0,0.0,0.0
1307,41.0,48.0,90.0,3.0,0.0
1308,68.0,48.0,40.0,0.0,0.0
1309,67.0,0.0,40.0,0.0,0.0
1310,65.0,48.0,40.0,0.0,0.0
1311,43.0,0.0,90.0,3.0,0.0
1312,63.0,48.0,40.0,0.0,0.0
1313,65.0,48.0,40.0,0.0,0.0
1314,44.0,0.0,90.0,3.0,0.0
1315,68.0,48.0,40.0,0.0,0.0
1316,46.0,0.0,90.0,3.0,0.0
1317,62.0,48.0,40.0,0.0,0.0
1318,60.0,48.0,40.0,0.0,0.0
1319,58.0,48.0,40.0,0.0,0.0
1320,44.0,0.0,40.0,3.0,0.0
1321,43.0,0.0,40.0,3.0,0.0
1322,60.0,48.0,40.0,0.0,0.0
1323,41.0,0.0,40.0,3.0,0.0
1324,62.0,48.0,40.0,0.0,0.0
1325,39.0,0.0,40.0,3.0,0.0
1326,63.0,48.0,40.0,0.0,0.0
1327,65.0,0.0,40.0,0.0,0.0
1328,38.0,48.0,40.0,3.0,0.0
1329,67.0,48.0,40.0,0.0,0.0
1330,36.0,0.0,40.0,3.0,0.0
1331,34.0,48.0,40.0,3.0,0.0
1332,68.0,0.0,40.0,0.0,0.0
1333,65.0,0.0,40.0,0.0,0.0
1334,38.0,48.0,40.0,3.0,0.0
1335,70.0,0.0,40.0,0.0,0.0
1336,41.0,48.0,40.0,3.0,0.0
1337,46.0,0.0,40.0,3.0,0.0
1338,65.0,96.0,40.0,0.0,0.0
1339,39.0,30.0,150.0,3.0,0.0
1340,67.0,46.0,330.0,0.0,0.0
1341,63.0,48.0,40.0,1.0,0.0
1342,62.0,18.0,40.0,1.0,0.0
1343,60.0,48.0,40.0,1.0,0.0
1344,58.0,48.0,40.0,1.0,0.0
1345,56.0,48.0,40.0,3.0,0.0
1346,55.0,2.0,40.0,3.0,0.0
1347,53.0,48.0,40.0,3.0,0.0
1348,51.0,48.0,40.0,3.0,0.0
1349,55.0,48.0,40.0,3.0,0.0
1350,67.0,48.0,90.0,0.0,0.0
1351,50.0,48.0,40.0,3.0,0.0
1352,53.0,0.0,40.0,3.0,0.0
1353,51.0,0.0,90.0,3.0,0.0
1354,72.0,48.0,40.0,0.0,0.0
1355,74.0,48.0,40.0,0.0,0.0
1356,75.0,48.0,40.0,0.0,0.0
1357,48.0,48.0,90.0,3.0,0.0
1358,72.0,0.0,40.0,0.0,0.0
1359,67.0,48.0,40.0,0.0,0.0
1360,51.0,48.0,90.0,3.0,0.0
1361,72.0,0.0,40.0,0.0,0.0
1362,74.0,48.0,40.0,0.0,0.0
1363,48.0,0.0,90.0,3.0,0.0
1364,75.0,48.0,40.0,0.0,0.0
1365,71.0,48.0,40.0,0.0,0.0
1366,55.0,0.0,90.0,3.0,0.0
1367,77.0,48.0,40.0,0.0,0.0
1368,43.0,48.0,90.0,3.0,0.0
1369,75.0,48.0,40.0,0.0,0.0
1370,74.0,0.0,40.0,0.0,0.0
1371,75.0,0.0,90.0,0.0,0.0
1372,48.0,48.0,40.0,3.0,0.0
1373,50.0,48.0,40.0,3.0,0.0
1374,51.0,48.0,40.0,3.0,0.0
1375,72.0,0.0,90.0,0.0,0.0
1376,48.0,48.0,40.0,3.0,0.0
1377,45.0,48.0,40.0,3.0,0.0
1378,75.0,48.0,90.0,0.0,0.0
1379,51.0,0.0,40.0,3.0,0.0
1380,70.0,48.0,90.0,0.0,0.0
1381,43.0,48.0,40.0,3.0,0.0
1382,51.0,0.0,40.0,3.0,0.0
1383,69.0,48.0,90.0,0.0,0.0
1384,41.0,48.0,40.0,3.0,0.0
1385,51.0,0.0,40.0,3.0,0.0
1386,50.0,48.0,40.0,3.0,0.0
1387,77.0,48.0,90.0,0.0,0.0
1388,48.0,0.0,40.0,3.0,0.0
1389,70.0,48.0,40.0,0.0,0.0
1390,50.0,0.0,90.0,3.0,0.0
1391,72.0,48.0,40.0,0.0,0.0
1392,74.0,48.0,40.0,0.0,0.0
1393,46.0,0.0,90.0,3.0,0.0
1394,70.0,48.0,40.0,0.0,0.0
1395,65.0,48.0,40.0,0.0,0.0
1396,50.0,48.0,90.0,3.0,0.0
1397,68.0,0.0,40.0,0.0,0.0
1398,67.0,48.0,40.0,0.0,0.0
1399,46.0,0.0,90.0,3.0,0.0
1400,65.0,48.0,40.0,0.0,0.0
1401,51.0,0.0,90.0,3.0,0.0
1402,67.0,48.0,40.0,0.0,0.0
1403,72.0,48.0,40.0,0.0,0.0
1404,74.0,48.0,40.0,0.0,0.0
1405,48.0,16.0,90.0,3.0,0.0
1406,75.0,0.0,40.0,0.0,0.0
1407,70.0,16.0,15.0,0.0,0.0
1408,53.0,0.0,90.0,3.0,0.0
1409,69.0,16.0,15.0,0.0,0.0
1410,70.0,48.0,15.0,0.0,0.0
1411,69.0,48.0,40.0,0.0,0.0
1412,51.0,48.0,40.0,3.0,0.0
1413,65.0,0.0,90.0,0.0,0.0
1414,50.0,48.0,40.0,3.0,0.0
1415,48.0,48.0,40.0,3.0,0.0
1416,46.0,48.0,40.0,3.0,0.0
1417,65.0,48.0,40.0,0.0,0.0
1418,45.0,0.0,40.0,3.0,0.0
1419,43.0,48.0,40.0,3.0,0.0
1420,67.0,0.0,40.0,0.0,0.0
1421,41.0,48.0,40.0,3.0,0.0
1422,69.0,0.0,40.0,0.0,0.0
1423,48.0,48.0,40.0,3.0,0.0
1424,70.0,0.0,40.0,0.0,0.0
1425,72.0,0.0,40.0,0.0,0.0
1426,39.0,48.0,40.0,3.0,0.0
1427,48.0,0.0,40.0,3.0,0.0
1428,69.0,48.0,40.0,0.0,0.0
1429,38.0,48.0,90.0,3.0,0.0
1430,70.0,48.0,40.0,0.0,0.0
1431,72.0,0.0,40.0,0.0,0.0
1432,65.0,48.0,40.0,0.0,0.0
1433,36.0,0.0,90.0,3.0,0.0
1434,69.0,48.0,40.0,0.0,0.0
1435,38.0,0.0,90.0,3.0,0.0
1436,70.0,48.0,40.0,0.0,0.0
1437,72.0,48.0,40.0,0.0,0.0
1438,41.0,48.0,90.0,3.0,0.0
1439,65.0,48.0,40.0,0.0,0.0
1440,70.0,0.0,40.0,0.0,0.0
1441,62.0,48.0,40.0,0.0,0.0
1442,46.0,0.0,90.0,3.0,0.0
1443,70.0,48.0,40.0,0.0,0.0
1444,65.0,48.0,40.0,0.0,0.0
1445,38.0,48.0,90.0,3.0,0.0
1446,72.0,0.0,40.0,0.0,0.0
1447,39.0,0.0,90.0,3.0,0.0
1448,70.0,48.0,40.0,0.0,0.0
1449,72.0,48.0,40.0,0.0,0.0
1450,67.0,48.0,40.0,0.0,0.0
1451,41.0,0.0,90.0,3.0,0.0
1452,69.0,48.0,40.0,0.0,0.0
1453,43.0,48.0,90.0,3.0,0.0
1454,70.0,48.0,40.0,0.0,0.0
1455,72.0,0.0,40.0,0.0,0.0
1456,67.0,48.0,40.0,0.0,0.0
1457,39.0,0.0,90.0,3.0,0.0
1458,70.0,48.0,40.0,0.0,0.0
1459,36.0,48.0,90.0,3.0,0.0
1460,63.0,48.0,40.0,0.0,0.0
1461,70.0,0.0,40.0,0.0,0.0
1462,39.0,0.0,90.0,3.0,0.0
1463,67.0,48.0,40.0,0.0,0.0
1464,70.0,48.0,40.0,0.0,0.0
1465,41.0,48.0,90.0,3.0,0.0
1466,69.0,48.0,40.0,0.0,0.0
1467,70.0,0.0,40.0,0.0,0.0
1468,43.0,48.0,90.0,3.0,0.0
1469,72.0,48.0,40.0,0.0,0.0
1470,69.0,0.0,40.0,0.0,0.0
1471,45.0,0.0,90.0,3.0,0.0
1472,63.0,48.0,40.0,0.0,0.0
1473,67.0,48.0,40.0,0.0,0.0
1474,46.0,0.0,90.0,3.0,0.0
1475,65.0,48.0,40.0,0.0,0.0
1476,63.0,48.0,40.0,0.0,0.0
1477,41.0,0.0,90.0,3.0,0.0
1478,62.0,48.0,40.0,0.0,0.0
1479,70.0,48.0,40.0,0.0,0.0
1480,60.0,48.0,40.0,0.0,0.0
1481,51.0,0.0,90.0,3.0,0.0
1482,69.0,96.0,40.0,0.0,0.0
1483,50.0,30.0,150.0,2.0,0.0
1484,70.0,48.0,90.0,0.0,0.0
1485,69.0,18.0,40.0,0.0,0.0
1486,46.0,0.0,420.0,3.0,0.0
1487,67.0,48.0,40.0,0.0,0.0
1488,65.0,48.0,40.0,0.0,0.0
1489,50.0,0.0,90.0,2.0,0.0
1490,63.0,48.0,40.0,0.0,0.0
1491,53.0,0.0,90.0,2.0,0.0
1492,62.0,48.0,40.0,0.0,0.0
1493,60.0,144.0,40.0,0.0,0.0
1494,58.0,0.0,150.0,0.0,0.0
1495,58.0,48.0,150.0,2.0,0.0
1496,75.0,96.0,40.0,0.0,0.0
1497,75.0,0.0,90.0,0.0,0.0
1498,70.0,0.0,90.0,0.0,0.0
1499,67.0,48.0,90.0,0.0,0.0
1500,51.0,30.0,150.0,3.0,0.0
1501,74.0,18.0,40.0,0.0,0.0
1502,72.0,48.0,40.0,0.0,0.0
1503,70.0,48.0,40.0,0.0,0.0
1504,68.0,48.0,40.0,0.0,0.0
1505,58.0,0.0,90.0,3.0,0.0
1506,67.0,48.0,40.0,0.0,0.0
1507,65.0,48.0,40.0,0.0,0.0
1508,63.0,0.0,90.0,3.0,0.0
1509,67.0,48.0,40.0,0.0,0.0
1510,70.0,48.0,40.0,0.0,0.0
1511,62.0,0.0,90.0,3.0,0.0
1512,65.0,48.0,40.0,0.0,0.0
1513,68.0,96.0,40.0,0.0,0.0
1514,67.0,0.0,90.0,0.0,0.0
1515,63.0,48.0,90.0,3.0,0.0
1516,63.0,0.0,90.0,0.0,0.0
1517,62.0,48.0,40.0,3.0,0.0
1518,60.0,48.0,40.0,3.0,0.0
1519,58.0,48.0,40.0,3.0,0.0
1520,67.0,0.0,90.0,0.0,0.0
1521,56.0,48.0,40.0,3.0,0.0
1522,70.0,48.0,90.0,0.0,0.0
1523,55.0,48.0,40.0,3.0,0.0
1524,53.0,0.0,40.0,3.0,0.0
1525,55.0,48.0,40.0,3.0,0.0
1526,75.0,48.0,90.0,0.0,0.0
1527,58.0,0.0,40.0,3.0,0.0
1528,53.0,48.0,40.0,3.0,0.0
1529,74.0,0.0,90.0,0.0,0.0
1530,56.0,48.0,40.0,3.0,0.0
1531,55.0,0.0,90.0,3.0,0.0
1532,75.0,48.0,40.0,0.0,0.0
1533,77.0,48.0,40.0,0.0,0.0
1534,79.0,48.0,40.0,0.0,0.0
1535,51.0,48.0,90.0,3.0,0.0
1536,75.0,0.0,40.0,0.0,0.0
1537,55.0,0.0,90.0,3.0,0.0
1538,70.0,48.0,40.0,0.0,0.0
1539,73.0,48.0,40.0,0.0,0.0
1540,72.0,48.0,40.0,0.0,0.0
1541,51.0,0.0,90.0,3.0,0.0
1542,70.0,48.0,40.0,0.0,0.0
1543,72.0,48.0,40.0,0.0,0.0
1544,56.0,48.0,90.0,3.0,0.0
1545,77.0,0.0,40.0,0.0,0.0
1546,79.0,48.0,40.0,0.0,0.0
1547,53.0,16.0,90.0,3.0,0.0
1548,80.0,0.0,40.0,0.0,0.0
1549,75.0,16.0,15.0,0.0,0.0
1550,58.0,0.0,90.0,3.0,0.0
1551,74.0,16.0,15.0,0.0,0.0
1552,75.0,48.0,15.0,0.0,0.0
1553,74.0,48.0,40.0,0.0,0.0
1554,56.0,48.0,40.0,3.0,0.0
1555,70.0,48.0,90.0,0.0,0.0
1556,55.0,0.0,40.0,3.0,0.0
1557,53.0,48.0,40.0,3.0,0.0
1558,51.0,48.0,40.0,3.0,0.0
1559,72.0,0.0,40.0,0.0,0.0
1560,50.0,48.0,40.0,3.0,0.0
1561,70.0,0.0,40.0,0.0,0.0
1562,68.0,48.0,40.0,0.0,0.0
1563,48.0,0.0,40.0,3.0,0.0
1564,67.0,0.0,40.0,0.0,0.0
1565,46.0,48.0,40.0,3.0,0.0
1566,50.0,0.0,40.0,3.0,0.0
1567,70.0,48.0,40.0,0.0,0.0
1568,65.0,0.0,40.0,0.0,0.0
1569,44.0,48.0,40.0,3.0,0.0
1570,70.0,0.0,40.0,0.0,0.0
1571,50.0,48.0,40.0,3.0,0.0
1572,43.0,0.0,90.0,3.0,0.0
1573,63.0,48.0,40.0,0.0,0.0
1574,70.0,48.0,40.0,0.0,0.0
1575,62.0,48.0,40.0,0.0,0.0
1576,41.0,0.0,90.0,3.0,0.0
1577,70.0,48.0,40.0,0.0,0.0
1578,43.0,48.0,90.0,3.0,0.0
1579,63.0,48.0,40.0,0.0,0.0
1580,70.0,0.0,40.0,0.0,0.0
1581,68.0,48.0,40.0,0.0,0.0
1582,39.0,48.0,90.0,3.0,0.0
1583,67.0,0.0,40.0,0.0,0.0
1584,41.0,0.0,90.0,3.0,0.0
1585,65.0,48.0,40.0,0.0,0.0
1586,63.0,48.0,40.0,0.0,0.0
1587,43.0,0.0,90.0,3.0,0.0
1588,61.0,48.0,40.0,0.0,0.0
1589,70.0,48.0,40.0,0.0,0.0
1590,44.0,0.0,90.0,3.0,0.0
1591,60.0,48.0,40.0,0.0,0.0
1592,70.0,48.0,40.0,0.0,0.0
1593,58.0,48.0,40.0,0.0,0.0
1594,43.0,48.0,90.0,3.0,0.0
1595,70.0,0.0,40.0,0.0,0.0
1596,44.0,48.0,90.0,3.0,0.0
1597,60.0,48.0,40.0,0.0,0.0
1598,70.0,0.0,40.0,0.0,0.0
1599,41.0,0.0,90.0,3.0,0.0
1600,68.0,48.0,40.0,0.0,0.0
1601,67.0,48.0,40.0,0.0,0.0
1602,43.0,0.0,90.0,3.0,0.0
1603,65.0,48.0,40.0,0.0,0.0
1604,63.0,48.0,40.0,0.0,0.0
1605,65.0,48.0,40.0,0.0,0.0
1606,44.0,0.0,90.0,3.0,0.0
1607,68.0,48.0,40.0,0.0,0.0
1608,46.0,48.0,90.0,3.0,0.0
1609,62.0,48.0,40.0,0.0,0.0
1610,60.0,0.0,40.0,0.0,0.0
1611,58.0,0.0,40.0,0.0,0.0
1612,44.0,48.0,40.0,3.0,0.0
1613,60.0,48.0,40.0,0.0,0.0
1614,43.0,0.0,40.0,3.0,0.0
1615,41.0,0.0,40.0,3.0,0.0
1616,62.0,48.0,40.0,0.0,0.0
1617,39.0,48.0,40.0,3.0,0.0
1618,63.0,0.0,40.0,0.0,0.0
1619,65.0,48.0,40.0,0.0,0.0
1620,38.0,0.0,40.0,3.0,0.0
1621,36.0,0.0,40.0,3.0,0.0
1622,67.0,48.0,40.0,0.0,0.0
1623,34.0,48.0,40.0,3.0,0.0
1624,68.0,0.0,40.0,0.0,0.0
1625,38.0,0.0,40.0,3.0,0.0
1626,65.0,48.0,40.0,0.0,0.0
1627,70.0,0.0,40.0,0.0,0.0
1628,41.0,48.0,40.0,3.0,0.0
1629,46.0,0.0,40.0,3.0,0.0
1630,65.0,96.0,40.0,0.0,0.0
1631,67.0,46.0,330.0,0.0,0.0
1632,39.0,30.0,150.0,3.0,0.0
1633,63.0,48.0,40.0,1.0,0.0
1634,62.0,18.0,40.0,1.0,0.0
1635,60.0,48.0,40.0,1.0,0.0
1636,58.0,48.0,40.0,1.0,0.0
1637,56.0,48.0,40.0,3.0,0.0
1638,55.0,2.0,40.0,3.0,0.0
1639,53.0,48.0,40.0,3.0,0.0
1640,51.0,48.0,40.0,3.0,0.0
1641,55.0,48.0,40.0,3.0,0.0
1642,67.0,0.0,90.0,0.0,0.0
1643,50.0,48.0,40.0,3.0,0.0
1644,53.0,48.0,40.0,3.0,0.0
1645,51.0,0.0,90.0,3.0,0.0
1646,72.0,48.0,40.0,0.0,0.0
1647,74.0,48.0,40.0,0.0,0.0
1648,75.0,48.0,40.0,0.0,0.0
1649,48.0,48.0,90.0,3.0,0.0
1650,72.0,0.0,40.0,0.0,0.0
1651,51.0,0.0,90.0,3.0,0.0
1652,67.0,48.0,40.0,0.0,0.0
1653,72.0,48.0,40.0,0.0,0.0
1654,74.0,48.0,40.0,0.0,0.0
1655,48.0,0.0,90.0,3.0,0.0
1656,75.0,48.0,40.0,0.0,0.0
1657,71.0,48.0,40.0,0.0,0.0
1658,55.0,48.0,90.0,3.0,0.0
1659,77.0,0.0,40.0,0.0,0.0
1660,75.0,48.0,40.0,0.0,0.0
1661,43.0,0.0,90.0,3.0,0.0
1662,74.0,48.0,40.0,0.0,0.0
1663,48.0,48.0,40.0,3.0,0.0
1664,75.0,48.0,90.0,0.0,0.0
1665,50.0,0.0,40.0,3.0,0.0
1666,72.0,48.0,90.0,0.0,0.0
1667,51.0,48.0,40.0,3.0,0.0
1668,48.0,0.0,40.0,3.0,0.0
1669,45.0,48.0,40.0,3.0,0.0
1670,75.0,0.0,90.0,0.0,0.0
1671,51.0,48.0,40.0,3.0,0.0
1672,43.0,48.0,40.0,3.0,0.0
1673,70.0,48.0,90.0,0.0,0.0
1674,51.0,0.0,40.0,3.0,0.0
1675,41.0,48.0,40.0,3.0,0.0
1676,69.0,0.0,90.0,0.0,0.0
1677,51.0,48.0,40.0,3.0,0.0
1678,77.0,0.0,90.0,0.0,0.0
1679,50.0,48.0,40.0,3.0,0.0
1680,48.0,48.0,40.0,3.0,0.0
1681,70.0,48.0,40.0,0.0,0.0
1682,50.0,48.0,90.0,3.0,0.0
1683,72.0,0.0,40.0,0.0,0.0
1684,46.0,0.0,90.0,3.0,0.0
1685,74.0,48.0,40.0,0.0,0.0
1686,70.0,48.0,40.0,0.0,0.0
1687,50.0,0.0,90.0,3.0,0.0
1688,65.0,48.0,40.0,0.0,0.0
1689,68.0,48.0,40.0,0.0,0.0
1690,46.0,0.0,90.0,3.0,0.0
1691,67.0,48.0,40.0,0.0,0.0
1692,65.0,48.0,40.0,0.0,0.0
1693,51.0,0.0,90.0,3.0,0.0
1694,67.0,48.0,40.0,0.0,0.0
1695,72.0,48.0,40.0,0.0,0.0
1696,48.0,16.0,90.0,3.0,0.0
1697,74.0,48.0,40.0,0.0,0.0
1698,75.0,0.0,40.0,0.0,0.0
1699,53.0,0.0,90.0,3.0,0.0
1700,70.0,16.0,15.0,0.0,0.0
1701,69.0,16.0,15.0,0.0,0.0
1702,70.0,48.0,15.0,0.0,0.0
1703,69.0,48.0,40.0,0.0,0.0
1704,51.0,48.0,40.0,3.0,0.0
1705,65.0,48.0,90.0,0.0,0.0
1706,50.0,0.0,40.0,3.0,0.0
1707,48.0,48.0,40.0,3.0,0.0
1708,46.0,48.0,40.0,3.0,0.0
1709,65.0,48.0,40.0,0.0,0.0
1710,45.0,0.0,40.0,3.0,0.0
1711,43.0,48.0,40.0,3.0,0.0
1712,67.0,0.0,40.0,0.0,0.0
1713,41.0,48.0,40.0,3.0,0.0
1714,69.0,0.0,40.0,0.0,0.0
1715,70.0,0.0,40.0,0.0,0.0
1716,48.0,48.0,40.0,3.0,0.0
1717,72.0,0.0,40.0,0.0,0.0
1718,39.0,48.0,40.0,3.0,0.0
1719,69.0,0.0,40.0,0.0,0.0
1720,48.0,48.0,40.0,3.0,0.0
1721,38.0,0.0,90.0,3.0,0.0
1722,70.0,48.0,40.0,0.0,0.0
1723,72.0,48.0,40.0,0.0,0.0
1724,36.0,0.0,90.0,3.0,0.0
1725,65.0,48.0,40.0,0.0,0.0
1726,69.0,48.0,40.0,0.0,0.0
1727,38.0,0.0,90.0,3.0,0.0
1728,70.0,48.0,40.0,0.0,0.0
1729,72.0,48.0,40.0,0.0,0.0
1730,65.0,48.0,40.0,0.0,0.0
1731,41.0,0.0,90.0,3.0,0.0
1732,70.0,48.0,40.0,0.0,0.0
1733,62.0,48.0,40.0,0.0,0.0
1734,46.0,48.0,90.0,3.0,0.0
1735,70.0,0.0,40.0,0.0,0.0
1736,65.0,48.0,40.0,0.0,0.0
1737,38.0,0.0,90.0,3.0,0.0
1738,72.0,48.0,40.0,0.0,0.0
1739,39.0,48.0,90.0,3.0,0.0
1740,70.0,48.0,40.0,0.0,0.0
1741,72.0,0.0,40.0,0.0,0.0
1742,41.0,48.0,90.0,3.0,0.0
1743,67.0,48.0,40.0,0.0,0.0
1744,69.0,0.0,40.0,0.0,0.0
1745,70.0,48.0,40.0,0.0,0.0
1746,43.0,48.0,90.0,3.0,0.0
1747,72.0,0.0,40.0,0.0,0.0
1748,67.0,48.0,40.0,0.0,0.0
1749,39.0,48.0,90.0,3.0,0.0
1750,70.0,0.0,40.0,0.0,0.0
1751,63.0,48.0,40.0,0.0,0.0
1752,36.0,0.0,90.0,3.0,0.0
1753,70.0,48.0,40.0,0.0,0.0
1754,67.0,48.0,40.0,0.0,0.0
1755,39.0,48.0,90.0,3.0,0.0
1756,70.0,0.0,40.0,0.0,0.0
1757,69.0,48.0,40.0,0.0,0.0
1758,41.0,48.0,90.0,3.0,0.0
1759,70.0,0.0,40.0,0.0,0.0
1760,72.0,48.0,40.0,0.0,0.0
1761,43.0,48.0,90.0,3.0,0.0
1762,69.0,0.0,40.0,0.0,0.0
1763,63.0,48.0,40.0,0.0,0.0
1764,45.0,48.0,90.0,3.0,0.0
1765,67.0,0.0,40.0,0.0,0.0
1766,46.0,48.0,90.0,3.0,0.0
1767,65.0,48.0,40.0,0.0,0.0
1768,63.0,0.0,40.0,0.0,0.0
1769,62.0,48.0,40.0,0.0,0.0
1770,41.0,48.0,90.0,3.0,0.0
1771,70.0,0.0,40.0,0.0,0.0
1772,60.0,48.0,40.0,0.0,0.0
1773,51.0,96.0,90.0,3.0,0.0
1774,69.0,0.0,40.0,0.0,0.0
1775,50.0,30.0,150.0,2.0,0.0
1776,70.0,48.0,90.0,0.0,0.0
1777,46.0,0.0,420.0,3.0,0.0
1778,69.0,18.0,40.0,0.0,0.0
1779,67.0,48.0,40.0,0.0,0.0
1780,65.0,48.0,40.0,0.0,0.0
1781,50.0,0.0,90.0,2.0,0.0
1782,63.0,48.0,40.0,0.0,0.0
1783,53.0,144.0,90.0,2.0,0.0
1784,62.0,48.0,40.0,0.0,0.0
1785,60.0,0.0,40.0,0.0,0.0
1786,58.0,48.0,150.0,2.0,0.0
1787,58.0,0.0,150.0,0.0,0.0
1788,74.0,96.0,40.0,0.0,0.0
1789,65.0,30.0,150.0,0.0,0.0
1790,70.0,0.0,150.0,0.0,0.0
1791,74.0,0.0,150.0,0.0,0.0
1792,58.0,48.0,90.0,3.0,0.0
1793,56.0,18.0,40.0,3.0,0.0
1794,55.0,48.0,40.0,3.0,0.0
1795,53.0,48.0,40.0,3.0,0.0
1796,51.0,48.0,40.0,3.0,0.0
1797,50.0,0.0,40.0,3.0,0.0
1798,70.0,48.0,40.0,0.0,0.0
1799,48.0,0.0,40.0,3.0,0.0
1800,72.0,48.0,40.0,0.0,0.0
1801,46.0,48.0,40.0,3.0,0.0
1802,74.0,0.0,40.0,0.0,0.0
1803,75.0,0.0,40.0,0.0,0.0
1804,53.0,48.0,40.0,3.0,0.0
1805,44.0,0.0,40.0,3.0,0.0
1806,77.0,48.0,40.0,0.0,0.0
1807,53.0,96.0,40.0,3.0,0.0
1808,74.0,0.0,40.0,0.0,0.0
1809,75.0,0.0,90.0,0.0,0.0
1810,43.0,48.0,90.0,3.0,0.0
1811,46.0,48.0,90.0,3.0,0.0
1812,74.0,48.0,40.0,0.0,0.0
1813,72.0,0.0,40.0,0.0,0.0
1814,70.0,48.0,40.0,0.0,0.0
1815,51.0,0.0,90.0,3.0,0.0
1816,68.0,48.0,40.0,0.0,0.0
1817,53.0,0.0,90.0,3.0,0.0
1818,67.0,48.0,40.0,0.0,0.0
1819,65.0,48.0,40.0,0.0,0.0
1820,55.0,48.0,90.0,3.0,0.0
1821,63.0,48.0,40.0,0.0,0.0
1822,67.0,0.0,40.0,0.0,0.0
1823,70.0,48.0,40.0,0.0,0.0
1824,51.0,48.0,90.0,3.0,0.0
1825,73.0,0.0,40.0,0.0,0.0
1826,56.0,0.0,90.0,3.0,0.0
1827,72.0,48.0,40.0,0.0,0.0
1828,70.0,48.0,40.0,0.0,0.0
1829,60.0,0.0,90.0,3.0,0.0
1830,68.0,48.0,40.0,0.0,0.0
1831,67.0,48.0,40.0,0.0,0.0
1832,56.0,48.0,90.0,3.0,0.0
1833,65.0,48.0,40.0,0.0,0.0
1834,74.0,0.0,40.0,0.0,0.0
1835,75.0,48.0,40.0,0.0,0.0
1836,55.0,0.0,90.0,3.0,0.0
1837,77.0,48.0,40.0,0.0,0.0
1838,75.0,48.0,40.0,0.0,0.0
1839,56.0,0.0,90.0,3.0,0.0
1840,74.0,48.0,40.0,0.0,0.0
1841,75.0,48.0,40.0,0.0,0.0
1842,53.0,0.0,90.0,3.0,0.0
1843,72.0,16.0,40.0,0.0,0.0
1844,72.0,16.0,15.0,0.0,0.0
1845,55.0,0.0,90.0,3.0,0.0
1846,71.0,16.0,15.0,0.0,0.0
1847,72.0,48.0,15.0,0.0,0.0
1848,71.0,48.0,40.0,0.0,0.0
1849,53.0,48.0,40.0,3.0,0.0
1850,67.0,0.0,90.0,0.0,0.0
1851,51.0,48.0,40.0,3.0,0.0
1852,50.0,48.0,40.0,3.0,0.0
1853,48.0,48.0,40.0,3.0,0.0
1854,47.0,48.0,40.0,3.0,0.0
1855,79.0,0.0,40.0,0.0,0.0
1856,45.0,48.0,40.0,3.0,0.0
1857,77.0,0.0,40.0,0.0,0.0
1858,75.0,0.0,40.0,0.0,0.0
1859,43.0,48.0,40.0,3.0,0.0
1860,74.0,0.0,40.0,0.0,0.0
1861,50.0,48.0,40.0,3.0,0.0
1862,72.0,48.0,40.0,0.0,0.0
1863,41.0,0.0,40.0,3.0,0.0
1864,71.0,0.0,40.0,0.0,0.0
1865,50.0,48.0,40.0,3.0,0.0
1866,72.0,0.0,90.0,0.0,0.0
1867,39.0,48.0,40.0,3.0,0.0
1868,41.0,48.0,40.0,3.0,0.0
1869,38.0,0.0,40.0,3.0,0.0
1870,74.0,48.0,40.0,0.0,0.0
1871,41.0,0.0,40.0,3.0,0.0
1872,71.0,48.0,40.0,0.0,0.0
1873,39.0,48.0,40.0,3.0,0.0
1874,72.0,48.0,90.0,0.0,0.0
1875,41.0,0.0,40.0,3.0,0.0
1876,74.0,48.0,40.0,0.0,0.0
1877,38.0,0.0,40.0,3.0,0.0
1878,41.0,0.0,40.0,3.0,0.0
1879,71.0,48.0,40.0,0.0,0.0
1880,39.0,48.0,40.0,3.0,0.0
1881,72.0,0.0,660.0,0.0,0.0
1882,43.0,48.0,40.0,3.0,0.0
1883,67.0,0.0,90.0,1.0,0.0
1884,36.0,48.0,40.0,3.0,0.0
1885,39.0,48.0,40.0,3.0,0.0
1886,68.0,48.0,90.0,1.0,0.0
1887,41.0,48.0,40.0,3.0,0.0
1888,43.0,0.0,40.0,3.0,0.0
1889,70.0,0.0,40.0,1.0,0.0
1890,39.0,48.0,40.0,3.0,0.0
1891,43.0,48.0,40.0,3.0,0.0
1892,67.0,0.0,40.0,1.0,0.0
1893,41.0,48.0,40.0,3.0,0.0
1894,68.0,0.0,90.0,1.0,0.0
1895,43.0,48.0,40.0,3.0,0.0
1896,70.0,0.0,40.0,1.0,0.0
1897,39.0,48.0,40.0,3.0,0.0
1898,67.0,0.0,40.0,1.0,0.0
1899,43.0,48.0,40.0,3.0,0.0
1900,68.0,0.0,90.0,1.0,0.0
1901,41.0,48.0,40.0,3.0,0.0
1902,44.0,48.0,40.0,3.0,0.0
1903,77.0,0.0,90.0,0.0,0.0
1904,38.0,48.0,40.0,3.0,0.0
1905,68.0,0.0,90.0,1.0,0.0
1906,41.0,96.0,40.0,3.0,0.0
1907,67.0,0.0,90.0,1.0,0.0
1908,43.0,48.0,90.0,3.0,0.0
1909,75.0,0.0,90.0,0.0,0.0
1910,45.0,48.0,40.0,3.0,0.0
1911,74.0,30.0,150.0,0.0,0.0
1912,65.0,48.0,90.0,1.0,0.0
1913,47.0,0.0,40.0,3.0,0.0
1914,63.0,30.0,150.0,1.0,0.0
1915,48.0,18.0,40.0,3.0,0.0
1916,50.0,48.0,40.0,3.0,0.0
1917,72.0,48.0,150.0,0.0,0.0
1918,51.0,18.0,40.0,3.0,0.0
1919,53.0,48.0,40.0,3.0,0.0
1920,62.0,30.0,150.0,1.0,0.0
1921,55.0,0.0,90.0,3.0,0.0
1922,65.0,48.0,40.0,0.0,0.0
1923,43.0,0.0,90.0,3.0,0.0
1924,72.0,18.0,40.0,0.0,0.0
1925,71.0,96.0,40.0,0.0,0.0
1926,48.0,48.0,90.0,3.0,0.0
1927,72.0,0.0,480.0,0.0,0.0
1928,50.0,48.0,40.0,3.0,0.0
1929,68.0,48.0,90.0,1.0,0.0
1930,51.0,0.0,40.0,3.0,0.0
1931,67.0,48.0,90.0,1.0,0.0
1932,53.0,48.0,40.0,3.0,0.0
1933,55.0,0.0,40.0,3.0,0.0
1934,57.0,48.0,40.0,3.0,0.0
1935,65.0,48.0,90.0,1.0,0.0
1936,59.0,0.0,40.0,3.0,0.0
1937,60.0,48.0,40.0,3.0,0.0
1938,63.0,48.0,90.0,1.0,0.0
1939,57.0,0.0,40.0,3.0,0.0
1940,58.0,48.0,40.0,3.0,0.0
1941,72.0,0.0,90.0,0.0,0.0
1942,55.0,48.0,40.0,3.0,0.0
1943,65.0,0.0,90.0,0.0,0.0
1944,57.0,48.0,40.0,3.0,0.0
1945,58.0,48.0,40.0,3.0,0.0
1946,57.0,0.0,40.0,3.0,0.0
1947,67.0,48.0,40.0,0.0,0.0
1948,55.0,48.0,40.0,3.0,0.0
1949,69.0,0.0,40.0,0.0,0.0
1950,70.0,0.0,40.0,0.0,0.0
1951,53.0,48.0,40.0,3.0,0.0
1952,72.0,48.0,40.0,0.0,0.0
1953,51.0,0.0,40.0,3.0,0.0
1954,50.0,0.0,40.0,3.0,0.0
1955,74.0,48.0,40.0,0.0,0.0
1956,48.0,48.0,40.0,3.0,0.0
1957,75.0,0.0,40.0,0.0,0.0
1958,77.0,48.0,40.0,0.0,0.0
1959,50.0,0.0,40.0,3.0,0.0
1960,74.0,48.0,40.0,0.0,0.0
1961,58.0,0.0,40.0,3.0,0.0
1962,75.0,48.0,40.0,0.0,0.0
1963,48.0,0.0,40.0,3.0,0.0
1964,57.0,0.0,40.0,3.0,0.0
1965,72.0,48.0,40.0,0.0,0.0
1966,58.0,0.0,90.0,3.0,0.0
1967,74.0,48.0,40.0,0.0,0.0
1968,75.0,48.0,40.0,0.0,0.0
1969,46.0,48.0,40.0,3.0,0.0
1970,74.0,0.0,40.0,0.0,0.0
1971,48.0,48.0,40.0,3.0,0.0
1972,72.0,0.0,40.0,0.0,0.0
1973,70.0,0.0,40.0,0.0,0.0
1974,50.0,48.0,40.0,3.0,0.0
1975,72.0,0.0,40.0,0.0,0.0
1976,51.0,48.0,40.0,3.0,0.0
1977,74.0,48.0,40.0,0.0,0.0
1978,53.0,0.0,40.0,3.0,0.0
1979,55.0,48.0,40.0,3.0,0.0
1980,75.0,0.0,40.0,0.0,0.0
1981,56.0,48.0,40.0,3.0,0.0
1982,77.0,0.0,40.0,0.0,0.0
1983,79.0,48.0,40.0,0.0,0.0
1984,58.0,0.0,40.0,3.0,0.0
1985,60.0,0.0,40.0,3.0,0.0
1986,80.0,48.0,40.0,0.0,0.0
1987,62.0,48.0,40.0,3.0,0.0
1988,77.0,0.0,40.0,0.0,0.0
1989,63.0,0.0,90.0,3.0,0.0
1990,79.0,48.0,40.0,0.0,0.0
1991,74.0,48.0,40.0,0.0,0.0
1992,55.0,0.0,90.0,3.0,0.0
1993,75.0,48.0,40.0,0.0,0.0
1994,70.0,48.0,40.0,0.0,0.0
1995,72.0,48.0,40.0,0.0,0.0
1996,56.0,0.0,90.0,3.0,0.0
1997,67.0,48.0,40.0,0.0,0.0
1998,60.0,0.0,90.0,3.0,0.0
1999,68.0,48.0,40.0,0.0,0.0
2000,63.0,48.0,40.0,0.0,0.0
2001,65.0,48.0,40.0,0.0,0.0
2002,56.0,0.0,90.0,3.0,0.0
2003,68.0,48.0,40.0,0.0,0.0
2004,60.0,48.0,40.0,0.0,0.0
2005,53.0,48.0,90.0,3.0,0.0
2006,63.0,0.0,40.0,0.0,0.0
2007,62.0,48.0,40.0,0.0,0.0
2008,58.0,0.0,90.0,3.0,0.0
2009,65.0,48.0,40.0,0.0,0.0
2010,56.0,0.0,40.0,3.0,0.0
2011,58.0,48.0,40.0,0.0,0.0
2012,60.0,0.0,40.0,0.0,0.0
2013,55.0,48.0,40.0,3.0,0.0
2014,62.0,48.0,40.0,0.0,0.0
2015,53.0,0.0,40.0,3.0,0.0
2016,63.0,48.0,40.0,0.0,0.0
2017,51.0,0.0,40.0,3.0,0.0
2018,50.0,0.0,40.0,3.0,0.0
2019,65.0,48.0,40.0,0.0,0.0
2020,48.0,0.0,40.0,3.0,0.0
2021,67.0,48.0,40.0,0.0,0.0
2022,46.0,0.0,40.0,3.0,0.0
2023,68.0,48.0,40.0,0.0,0.0
2024,53.0,0.0,40.0,3.0,0.0
2025,70.0,48.0,40.0,0.0,0.0
2026,44.0,0.0,40.0,3.0,0.0
2027,72.0,48.0,40.0,0.0,0.0
2028,53.0,48.0,40.0,3.0,0.0
2029,74.0,0.0,40.0,0.0,0.0
2030,75.0,48.0,40.0,0.0,0.0
2031,43.0,0.0,90.0,3.0,0.0
2032,77.0,48.0,40.0,0.0,0.0
2033,41.0,0.0,90.0,3.0,0.0
2034,70.0,48.0,40.0,0.0,0.0
2035,74.0,48.0,40.0,0.0,0.0
2036,75.0,48.0,40.0,0.0,0.0
2037,43.0,48.0,90.0,3.0,0.0
2038,77.0,0.0,40.0,0.0,0.0
2039,70.0,48.0,40.0,0.0,0.0
2040,46.0,48.0,90.0,3.0,0.0
2041,75.0,0.0,40.0,0.0,0.0
2042,67.0,48.0,40.0,0.0,0.0
2043,51.0,0.0,90.0,3.0,0.0
2044,75.0,48.0,40.0,0.0,0.0
2045,43.0,0.0,90.0,3.0,0.0
2046,70.0,48.0,40.0,0.0,0.0
2047,77.0,48.0,40.0,0.0,0.0
2048,44.0,48.0,90.0,3.0,0.0
2049,75.0,48.0,40.0,0.0,0.0
2050,77.0,0.0,40.0,0.0,0.0
2051,72.0,48.0,40.0,0.0,0.0
2052,46.0,48.0,90.0,3.0,0.0
2053,74.0,0.0,40.0,0.0,0.0
2054,75.0,48.0,40.0,0.0,0.0
2055,48.0,48.0,90.0,3.0,0.0
2056,77.0,0.0,40.0,0.0,0.0
2057,44.0,48.0,90.0,3.0,0.0
2058,72.0,48.0,40.0,0.0,0.0
2059,75.0,0.0,40.0,0.0,0.0
2060,68.0,48.0,40.0,0.0,0.0
2061,41.0,48.0,90.0,3.0,0.0
2062,75.0,0.0,40.0,0.0,0.0
2063,44.0,48.0,90.0,3.0,0.0
2064,72.0,48.0,40.0,0.0,0.0
2065,75.0,0.0,40.0,0.0,0.0
2066,74.0,48.0,40.0,0.0,0.0
2067,46.0,0.0,90.0,3.0,0.0
2068,75.0,48.0,40.0,0.0,0.0
2069,77.0,48.0,40.0,0.0,0.0
2070,48.0,0.0,90.0,3.0,0.0
2071,74.0,48.0,40.0,0.0,0.0
2072,68.0,48.0,40.0,0.0,0.0
2073,50.0,48.0,90.0,3.0,0.0
2074,72.0,0.0,40.0,0.0,0.0
2075,70.0,48.0,40.0,0.0,0.0
2076,51.0,0.0,90.0,3.0,0.0
2077,68.0,48.0,40.0,0.0,0.0
2078,67.0,48.0,40.0,0.0,0.0
2079,46.0,30.0,150.0,3.0,0.0
2080,75.0,48.0,40.0,0.0,0.0
2081,56.0,0.0,90.0,2.0,0.0
2082,65.0,18.0,40.0,0.0,0.0
2083,74.0,96.0,40.0,0.0,0.0
2084,75.0,48.0,90.0,0.0,0.0
2085,55.0,30.0,150.0,2.0,0.0
2086,74.0,18.0,40.0,0.0,0.0
2087,51.0,2.0,420.0,3.0,0.0
2088,72.0,48.0,40.0,0.0,0.0
2089,70.0,48.0,40.0,0.0,0.0
2090,55.0,48.0,90.0,2.0,0.0
2091,68.0,0.0,40.0,0.0,0.0
2092,67.0,48.0,40.0,0.0,0.0
2093,58.0,0.0,90.0,2.0,0.0
2094,65.0,144.0,40.0,0.0,0.0
2095,63.0,46.0,150.0,0.0,0.0
2096,63.0,0.0,150.0,2.0,0.0
2097,74.0,96.0,40.0,0.0,0.0
2098,74.0,0.0,150.0,0.0,0.0
2099,70.0,0.0,150.0,0.0,0.0
2100,58.0,48.0,90.0,3.0,0.0
2101,65.0,30.0,150.0,0.0,0.0
2102,56.0,18.0,40.0,3.0,0.0
2103,55.0,48.0,40.0,3.0,0.0
2104,53.0,48.0,40.0,3.0,0.0
2105,51.0,48.0,40.0,3.0,0.0
2106,50.0,48.0,40.0,3.0,0.0
2107,70.0,0.0,40.0,0.0,0.0
2108,72.0,0.0,40.0,0.0,0.0
2109,48.0,48.0,40.0,3.0,0.0
2110,46.0,48.0,40.0,3.0,0.0
2111,74.0,0.0,40.0,0.0,0.0
2112,75.0,0.0,40.0,0.0,0.0
2113,53.0,48.0,40.0,3.0,0.0
2114,44.0,48.0,40.0,3.0,0.0
2115,77.0,0.0,40.0,0.0,0.0
2116,74.0,0.0,40.0,0.0,0.0
2117,53.0,96.0,40.0,3.0,0.0
2118,43.0,0.0,90.0,3.0,0.0
2119,75.0,48.0,90.0,0.0,0.0
2120,46.0,0.0,90.0,3.0,0.0
2121,74.0,48.0,40.0,0.0,0.0
2122,72.0,48.0,40.0,0.0,0.0
2123,51.0,48.0,90.0,3.0,0.0
2124,70.0,48.0,40.0,0.0,0.0
2125,68.0,0.0,40.0,0.0,0.0
2126,53.0,48.0,90.0,3.0,0.0
2127,67.0,48.0,40.0,0.0,0.0
2128,65.0,0.0,40.0,0.0,0.0
2129,63.0,48.0,40.0,0.0,0.0
2130,55.0,0.0,90.0,3.0,0.0
2131,67.0,48.0,40.0,0.0,0.0
2132,51.0,0.0,90.0,3.0,0.0
2133,70.0,48.0,40.0,0.0,0.0
2134,73.0,48.0,40.0,0.0,0.0
2135,56.0,0.0,90.0,3.0,0.0
2136,72.0,48.0,40.0,0.0,0.0
2137,70.0,48.0,40.0,0.0,0.0
2138,68.0,48.0,40.0,0.0,0.0
2139,60.0,0.0,90.0,3.0,0.0
2140,67.0,48.0,40.0,0.0,0.0
2141,56.0,48.0,90.0,3.0,0.0
2142,65.0,48.0,40.0,0.0,0.0
2143,74.0,0.0,40.0,0.0,0.0
2144,75.0,48.0,40.0,0.0,0.0
2145,55.0,0.0,90.0,3.0,0.0
2146,77.0,48.0,40.0,0.0,0.0
2147,75.0,48.0,40.0,0.0,0.0
2148,56.0,0.0,90.0,3.0,0.0
2149,74.0,48.0,40.0,0.0,0.0
2150,53.0,16.0,90.0,3.0,0.0
2151,75.0,48.0,40.0,0.0,0.0
2152,72.0,0.0,40.0,0.0,0.0
2153,72.0,16.0,15.0,0.0,0.0
2154,55.0,0.0,90.0,3.0,0.0
2155,71.0,16.0,15.0,0.0,0.0
2156,72.0,48.0,15.0,0.0,0.0
2157,71.0,48.0,40.0,0.0,0.0
2158,67.0,0.0,90.0,0.0,0.0
2159,53.0,48.0,40.0,3.0,0.0
2160,51.0,48.0,40.0,3.0,0.0
2161,50.0,48.0,40.0,3.0,0.0
2162,48.0,48.0,40.0,3.0,0.0
2163,47.0,0.0,40.0,3.0,0.0
2164,79.0,48.0,40.0,0.0,0.0
2165,45.0,0.0,40.0,3.0,0.0
2166,77.0,48.0,40.0,0.0,0.0
2167,43.0,48.0,40.0,3.0,0.0
2168,75.0,0.0,40.0,0.0,0.0
2169,50.0,0.0,40.0,3.0,0.0
2170,74.0,48.0,40.0,0.0,0.0
2171,72.0,0.0,40.0,0.0,0.0
2172,41.0,48.0,40.0,3.0,0.0
2173,71.0,48.0,40.0,0.0,0.0
2174,50.0,0.0,40.0,3.0,0.0
2175,39.0,48.0,40.0,3.0,0.0
2176,72.0,0.0,90.0,0.0,0.0
2177,41.0,48.0,40.0,3.0,0.0
2178,74.0,48.0,40.0,0.0,0.0
2179,38.0,0.0,40.0,3.0,0.0
2180,71.0,0.0,40.0,0.0,0.0
2181,41.0,48.0,40.0,3.0,0.0
2182,39.0,48.0,40.0,3.0,0.0
2183,72.0,48.0,90.0,0.0,0.0
2184,41.0,0.0,40.0,3.0,0.0
2185,38.0,48.0,40.0,3.0,0.0
2186,74.0,0.0,40.0,0.0,0.0
2187,71.0,0.0,40.0,0.0,0.0
2188,41.0,48.0,40.0,3.0,0.0
2189,39.0,48.0,40.0,3.0,0.0
2190,72.0,0.0,660.0,0.0,0.0
2191,43.0,48.0,40.0,3.0,0.0
2192,36.0,48.0,40.0,3.0,0.0
2193,67.0,0.0,90.0,1.0,0.0
2194,39.0,48.0,40.0,3.0,0.0
2195,41.0,48.0,40.0,3.0,0.0
2196,68.0,0.0,90.0,1.0,0.0
2197,43.0,48.0,40.0,3.0,0.0
2198,70.0,48.0,40.0,1.0,0.0
2199,39.0,0.0,40.0,3.0,0.0
2200,43.0,48.0,40.0,3.0,0.0
2201,67.0,0.0,40.0,1.0,0.0
2202,68.0,0.0,90.0,1.0,0.0
2203,41.0,48.0,40.0,3.0,0.0
2204,43.0,48.0,40.0,3.0,0.0
2205,70.0,0.0,40.0,1.0,0.0
2206,39.0,48.0,40.0,3.0,0.0
2207,43.0,0.0,40.0,3.0,0.0
2208,67.0,48.0,40.0,1.0,0.0
2209,41.0,48.0,40.0,3.0,0.0
2210,68.0,0.0,90.0,1.0,0.0
2211,44.0,48.0,40.0,3.0,0.0
2212,38.0,48.0,40.0,3.0,0.0
2213,68.0,0.0,90.0,1.0,0.0
2214,77.0,0.0,90.0,0.0,0.0
2215,41.0,96.0,40.0,3.0,0.0
2216,67.0,0.0,90.0,1.0,0.0
2217,43.0,48.0,90.0,3.0,0.0
2218,75.0,0.0,90.0,0.0,0.0
2219,74.0,30.0,150.0,0.0,0.0
2220,45.0,48.0,40.0,3.0,0.0
2221,65.0,0.0,90.0,1.0,0.0
2222,47.0,48.0,40.0,3.0,0.0
2223,63.0,30.0,150.0,1.0,0.0
2224,48.0,18.0,40.0,3.0,0.0
2225,50.0,48.0,40.0,3.0,0.0
2226,51.0,18.0,40.0,3.0,0.0
2227,72.0,48.0,150.0,0.0,0.0
2228,53.0,48.0,40.0,3.0,0.0
2229,55.0,48.0,90.0,3.0,0.0
2230,62.0,30.0,150.0,1.0,0.0
2231,65.0,0.0,40.0,0.0,0.0
2232,72.0,18.0,40.0,0.0,0.0
2233,43.0,96.0,90.0,3.0,0.0
2234,71.0,0.0,40.0,0.0,0.0
2235,72.0,48.0,480.0,0.0,0.0
2236,48.0,48.0,90.0,3.0,0.0
2237,50.0,48.0,40.0,3.0,0.0
2238,68.0,0.0,90.0,1.0,0.0
2239,51.0,48.0,40.0,3.0,0.0
2240,67.0,48.0,90.0,1.0,0.0
2241,53.0,48.0,40.0,3.0,0.0
2242,55.0,0.0,40.0,3.0,0.0
2243,57.0,48.0,40.0,3.0,0.0
2244,65.0,48.0,90.0,1.0,0.0
2245,59.0,0.0,40.0,3.0,0.0
2246,63.0,0.0,90.0,1.0,0.0
2247,60.0,48.0,40.0,3.0,0.0
2248,57.0,0.0,40.0,3.0,0.0
2249,72.0,48.0,90.0,0.0,0.0
2250,58.0,48.0,40.0,3.0,0.0
2251,55.0,0.0,40.0,3.0,0.0
2252,57.0,48.0,40.0,3.0,0.0
2253,65.0,0.0,90.0,0.0,0.0
2254,58.0,48.0,40.0,3.0,0.0
2255,67.0,0.0,40.0,0.0,0.0
2256,57.0,48.0,40.0,3.0,0.0
2257,69.0,0.0,40.0,0.0,0.0
2258,55.0,48.0,40.0,3.0,0.0
2259,53.0,48.0,40.0,3.0,0.0
2260,70.0,0.0,40.0,0.0,0.0
2261,72.0,48.0,40.0,0.0,0.0
2262,51.0,0.0,40.0,3.0,0.0
2263,74.0,48.0,40.0,0.0,0.0
2264,50.0,0.0,40.0,3.0,0.0
2265,48.0,48.0,40.0,3.0,0.0
2266,75.0,0.0,40.0,0.0,0.0
2267,50.0,0.0,40.0,3.0,0.0
2268,77.0,48.0,40.0,0.0,0.0
2269,58.0,0.0,40.0,3.0,0.0
2270,74.0,48.0,40.0,0.0,0.0
2271,75.0,0.0,40.0,0.0,0.0
2272,48.0,48.0,40.0,3.0,0.0
2273,72.0,0.0,40.0,0.0,0.0
2274,57.0,48.0,40.0,3.0,0.0
2275,74.0,48.0,40.0,0.0,0.0
2276,58.0,48.0,90.0,3.0,0.0
2277,75.0,0.0,40.0,0.0,0.0
2278,46.0,48.0,40.0,3.0,0.0
2279,74.0,0.0,40.0,0.0,0.0
2280,72.0,0.0,40.0,0.0,0.0
2281,48.0,48.0,40.0,3.0,0.0
2282,70.0,48.0,40.0,0.0,0.0
2283,50.0,0.0,40.0,3.0,0.0
2284,51.0,48.0,40.0,3.0,0.0
2285,72.0,0.0,40.0,0.0,0.0
2286,53.0,48.0,40.0,3.0,0.0
2287,74.0,0.0,40.0,0.0,0.0
2288,55.0,0.0,40.0,3.0,0.0
2289,75.0,48.0,40.0,0.0,0.0
2290,56.0,48.0,40.0,3.0,0.0
2291,77.0,0.0,40.0,0.0,0.0
2292,58.0,48.0,40.0,3.0,0.0
2293,79.0,0.0,40.0,0.0,0.0
2294,60.0,0.0,40.0,3.0,0.0
2295,80.0,48.0,40.0,0.0,0.0
2296,62.0,0.0,40.0,3.0,0.0
2297,77.0,48.0,40.0,0.0,0.0
2298,79.0,48.0,40.0,0.0,0.0
2299,63.0,48.0,90.0,3.0,0.0
2300,74.0,0.0,40.0,0.0,0.0
2301,75.0,48.0,40.0,0.0,0.0
2302,55.0,0.0,90.0,3.0,0.0
2303,70.0,48.0,40.0,0.0,0.0
2304,56.0,0.0,90.0,3.0,0.0
2305,72.0,48.0,40.0,0.0,0.0
2306,67.0,48.0,40.0,0.0,0.0
2307,68.0,48.0,40.0,0.0,0.0
2308,60.0,48.0,90.0,3.0,0.0
2309,63.0,0.0,40.0,0.0,0.0
2310,65.0,48.0,40.0,0.0,0.0
2311,56.0,48.0,90.0,3.0,0.0
2312,68.0,0.0,40.0,0.0,0.0
2313,60.0,48.0,40.0,0.0,0.0
2314,53.0,0.0,90.0,3.0,0.0
2315,63.0,48.0,40.0,0.0,0.0
2316,58.0,0.0,90.0,3.0,0.0
2317,62.0,48.0,40.0,0.0,0.0
2318,65.0,48.0,40.0,0.0,0.0
2319,56.0,0.0,40.0,3.0,0.0
2320,58.0,48.0,40.0,0.0,0.0
2321,55.0,48.0,40.0,3.0,0.0
2322,60.0,0.0,40.0,0.0,0.0
2323,62.0,0.0,40.0,0.0,0.0
2324,53.0,48.0,40.0,3.0,0.0
2325,63.0,0.0,40.0,0.0,0.0
2326,51.0,48.0,40.0,3.0,0.0
2327,50.0,48.0,40.0,3.0,0.0
2328,65.0,0.0,40.0,0.0,0.0
2329,67.0,48.0,40.0,0.0,0.0
2330,48.0,0.0,40.0,3.0,0.0
2331,46.0,0.0,40.0,3.0,0.0
2332,68.0,48.0,40.0,0.0,0.0
2333,70.0,0.0,40.0,0.0,0.0
2334,53.0,48.0,40.0,3.0,0.0
2335,44.0,0.0,40.0,3.0,0.0
2336,72.0,48.0,40.0,0.0,0.0
2337,53.0,48.0,40.0,3.0,0.0
2338,74.0,0.0,40.0,0.0,0.0
2339,43.0,48.0,90.0,3.0,0.0
2340,75.0,48.0,40.0,0.0,0.0
2341,77.0,0.0,40.0,0.0,0.0
2342,41.0,48.0,90.0,3.0,0.0
2343,70.0,48.0,40.0,0.0,0.0
2344,74.0,0.0,40.0,0.0,0.0
2345,43.0,48.0,90.0,3.0,0.0
2346,75.0,48.0,40.0,0.0,0.0
2347,77.0,0.0,40.0,0.0,0.0
2348,46.0,48.0,90.0,3.0,0.0
2349,70.0,48.0,40.0,0.0,0.0
2350,75.0,0.0,40.0,0.0,0.0
2351,51.0,0.0,90.0,3.0,0.0
2352,67.0,48.0,40.0,0.0,0.0
2353,75.0,48.0,40.0,0.0,0.0
2354,70.0,48.0,40.0,0.0,0.0
2355,43.0,0.0,90.0,3.0,0.0
2356,77.0,48.0,40.0,0.0,0.0
2357,44.0,0.0,90.0,3.0,0.0
2358,75.0,48.0,40.0,0.0,0.0
2359,77.0,48.0,40.0,0.0,0.0
2360,46.0,48.0,90.0,3.0,0.0
2361,72.0,48.0,40.0,0.0,0.0
2362,74.0,0.0,40.0,0.0,0.0
2363,75.0,48.0,40.0,0.0,0.0
2364,48.0,0.0,90.0,3.0,0.0
2365,77.0,48.0,40.0,0.0,0.0
2366,72.0,48.0,40.0,0.0,0.0
2367,44.0,48.0,90.0,3.0,0.0
2368,75.0,0.0,40.0,0.0,0.0
2369,41.0,48.0,90.0,3.0,0.0
2370,68.0,48.0,40.0,0.0,0.0
2371,75.0,0.0,40.0,0.0,0.0
2372,72.0,48.0,40.0,0.0,0.0
2373,44.0,0.0,90.0,3.0,0.0
2374,75.0,48.0,40.0,0.0,0.0
2375,46.0,0.0,90.0,3.0,0.0
2376,74.0,48.0,40.0,0.0,0.0
2377,75.0,48.0,40.0,0.0,0.0
2378,77.0,48.0,40.0,0.0,0.0
2379,48.0,48.0,90.0,3.0,0.0
2380,74.0,0.0,40.0,0.0,0.0
2381,50.0,48.0,90.0,3.0,0.0
2382,68.0,48.0,40.0,0.0,0.0
2383,72.0,0.0,40.0,0.0,0.0
2384,70.0,48.0,40.0,0.0,0.0
2385,51.0,0.0,90.0,3.0,0.0
2386,68.0,48.0,40.0,0.0,0.0
2387,46.0,30.0,150.0,3.0,0.0
2388,67.0,48.0,40.0,0.0,0.0
2389,75.0,48.0,40.0,0.0,0.0
2390,56.0,0.0,90.0,2.0,0.0
2391,65.0,18.0,40.0,0.0,0.0
2392,74.0,96.0,40.0,0.0,0.0
2393,75.0,48.0,90.0,0.0,0.0
2394,55.0,30.0,150.0,2.0,0.0
2395,51.0,0.0,420.0,3.0,0.0
2396,74.0,18.0,40.0,0.0,0.0
2397,72.0,48.0,40.0,0.0,0.0
2398,70.0,48.0,40.0,0.0,0.0
2399,55.0,0.0,90.0,2.0,0.0
2400,68.0,48.0,40.0,0.0,0.0
2401,58.0,0.0,90.0,2.0,0.0
2402,67.0,48.0,40.0,0.0,0.0
2403,65.0,144.0,40.0,0.0,0.0
2404,63.0,2.0,150.0,2.0,0.0
2405,63.0,406.0,150.0,0.0,0.0
2406,39.0,46.0,330.0,3.0,0.0
2407,67.0,24.0,20.0,0.0,0.0
2408,65.0,288.0,20.0,0.0,0.0
2409,67.0,2.0,300.0,0.0,0.0
2410,51.0,30.0,630.0,2.0,0.0
2411,68.0,16.0,40.0,0.0,0.0
2412,48.0,30.0,150.0,3.0,0.0
2413,67.0,16.0,15.0,0.0,0.0
2414,65.0,16.0,15.0,0.0,0.0
2415,67.0,96.0,15.0,0.0,0.0
2416,65.0,18.0,90.0,0.0,0.0
2417,63.0,162.0,40.0,0.0,0.0
2418,70.0,0.0,150.0,0.0,0.0
2419,43.0,96.0,150.0,3.0,0.0
2420,70.0,24.0,90.0,0.0,0.0
2421,44.0,16.0,330.0,3.0,0.0
2422,72.0,24.0,20.0,0.0,0.0
2423,51.0,96.0,90.0,2.0,0.0
2424,70.0,48.0,20.0,0.0,0.0
2425,72.0,30.0,210.0,0.0,0.0
2426,53.0,50.0,90.0,2.0,0.0
2427,55.0,96.0,90.0,2.0,0.0
2428,53.0,174.0,150.0,3.0,0.0
2429,63.0,66.0,90.0,0.0,0.0
2430,56.0,0.0,150.0,2.0,0.0
2431,62.0,18.0,240.0,0.0,0.0
2432,50.0,0.0,150.0,3.0,0.0
2433,53.0,30.0,150.0,2.0,0.0
2434,68.0,16.0,40.0,0.0,0.0
2435,68.0,16.0,15.0,0.0,0.0
2436,51.0,96.0,300.0,2.0,0.0
2437,51.0,30.0,150.0,3.0,0.0
2438,67.0,16.0,15.0,0.0,0.0
2439,68.0,96.0,15.0,0.0,0.0
2440,67.0,18.0,90.0,0.0,0.0
2441,65.0,96.0,40.0,0.0,0.0
2442,65.0,16.0,540.0,0.0,0.0
2443,46.0,46.0,330.0,3.0,0.0
2444,48.0,96.0,90.0,2.0,0.0
2445,50.0,50.0,90.0,2.0,0.0
2446,53.0,146.0,90.0,2.0,0.0
2447,58.0,30.0,150.0,2.0,0.0
2448,46.0,24.0,90.0,3.0,0.0
2449,74.0,24.0,20.0,0.0,0.0
2450,44.0,46.0,330.0,3.0,0.0
2451,72.0,288.0,20.0,0.0,0.0
2452,74.0,2.0,300.0,0.0,0.0
2453,53.0,16.0,330.0,2.0,0.0
2454,75.0,16.0,40.0,0.0,0.0
2455,74.0,16.0,15.0,0.0,0.0
2456,44.0,30.0,150.0,3.0,0.0
2457,72.0,16.0,15.0,0.0,0.0
2458,74.0,96.0,15.0,0.0,0.0
2459,72.0,2.0,90.0,0.0,0.0
2460,70.0,162.0,40.0,0.0,0.0
2461,75.0,0.0,150.0,0.0,0.0
2462,43.0,30.0,150.0,3.0,0.0
2463,46.0,24.0,90.0,2.0,0.0
2464,68.0,24.0,20.0,0.0,0.0
2465,51.0,0.0,540.0,2.0,0.0
2466,48.0,174.0,150.0,3.0,0.0
2467,67.0,114.0,20.0,0.0,0.0
2468,68.0,18.0,300.0,0.0,0.0
2469,44.0,6.0,150.0,3.0,0.0
2470,70.0,24.0,20.0,0.0,0.0
2471,72.0,162.0,20.0,0.0,0.0
2472,46.0,16.0,540.0,3.0,0.0
2473,65.0,126.0,150.0,0.0,0.0
2474,50.0,48.0,90.0,2.0,0.0
2475,70.0,48.0,150.0,0.0,0.0
2476,48.0,0.0,90.0,2.0,0.0
2477,68.0,144.0,40.0,0.0,0.0
2478,67.0,2.0,150.0,0.0,0.0
2479,50.0,30.0,150.0,2.0,0.0
2480,68.0,48.0,40.0,0.0,0.0
2481,51.0,192.0,720.0,2.0,0.0
2482,68.0,48.0,40.0,0.0,0.0
2483,67.0,48.0,40.0,0.0,0.0
2484,68.0,48.0,40.0,0.0,0.0
2485,67.0,48.0,40.0,0.0,0.0
2486,68.0,48.0,40.0,0.0,0.0
2487,67.0,48.0,40.0,0.0,0.0
2488,68.0,144.0,40.0,0.0,0.0
2489,67.0,18.0,150.0,0.0,0.0
2490,46.0,30.0,150.0,3.0,0.0
2491,65.0,162.0,40.0,0.0,0.0
2492,39.0,0.0,150.0,3.0,0.0
2493,63.0,30.0,150.0,0.0,0.0
2494,79.0,96.0,270.0,0.0,0.0
2495,51.0,66.0,660.0,3.0,0.0
2496,55.0,66.0,90.0,2.0,0.0
2497,60.0,30.0,150.0,2.0,0.0
2498,75.0,16.0,90.0,0.0,0.0
2499,58.0,30.0,150.0,2.0,0.0
2500,75.0,16.0,15.0,0.0,0.0
2501,74.0,16.0,15.0,0.0,0.0
2502,75.0,96.0,15.0,0.0,0.0
2503,74.0,18.0,90.0,0.0,0.0
2504,72.0,96.0,40.0,0.0,0.0
2505,77.0,0.0,150.0,0.0,0.0
2506,57.0,30.0,150.0,2.0,0.0
2507,51.0,192.0,90.0,3.0,0.0
2508,70.0,96.0,270.0,0.0,0.0
2509,50.0,96.0,480.0,3.0,0.0
2510,53.0,66.0,90.0,2.0,0.0
2511,58.0,30.0,150.0,2.0,0.0
2512,74.0,96.0,90.0,0.0,0.0
2513,51.0,24.0,750.0,2.0,0.0
2514,67.0,48.0,240.0,0.0,0.0
2515,50.0,48.0,90.0,3.0,0.0
2516,48.0,48.0,90.0,3.0,0.0
2517,70.0,0.0,40.0,0.0,0.0
2518,69.0,48.0,40.0,0.0,0.0
2519,46.0,48.0,90.0,3.0,0.0
2520,67.0,0.0,40.0,0.0,0.0
2521,72.0,48.0,40.0,0.0,0.0
2522,45.0,0.0,90.0,3.0,0.0
2523,75.0,48.0,40.0,0.0,0.0
2524,74.0,48.0,40.0,0.0,0.0
2525,43.0,0.0,90.0,3.0,0.0
2526,72.0,48.0,40.0,0.0,0.0
2527,70.0,48.0,40.0,0.0,0.0
2528,41.0,162.0,540.0,3.0,0.0
2529,69.0,48.0,40.0,0.0,0.0
2530,70.0,24.0,40.0,0.0,0.0
2531,69.0,48.0,40.0,0.0,0.0
2532,48.0,96.0,180.0,2.0,0.0
2533,70.0,48.0,40.0,0.0,0.0
2534,69.0,48.0,40.0,0.0,0.0
2535,70.0,0.0,40.0,0.0,0.0
2536,69.0,48.0,150.0,0.0,0.0
2537,53.0,48.0,90.0,2.0,0.0
2538,51.0,0.0,90.0,2.0,0.0
2539,67.0,0.0,40.0,0.0,0.0
2540,50.0,0.0,150.0,2.0,0.0
2541,65.0,42.0,150.0,0.0,0.0
2542,46.0,0.0,180.0,3.0,0.0
2543,65.0,12.0,15.0,0.0,0.0
2544,48.0,126.0,270.0,2.0,0.0
2545,63.0,12.0,15.0,0.0,0.0
2546,65.0,12.0,15.0,0.0,0.0
2547,63.0,48.0,15.0,0.0,0.0
2548,62.0,96.0,40.0,0.0,0.0
2549,46.0,0.0,90.0,3.0,0.0
2550,63.0,66.0,90.0,0.0,0.0
2551,45.0,0.0,270.0,3.0,0.0
2552,72.0,78.0,270.0,0.0,0.0
2553,48.0,66.0,90.0,2.0,0.0
2554,53.0,48.0,300.0,2.0,0.0
2555,43.0,96.0,90.0,3.0,0.0
2556,70.0,48.0,40.0,0.0,0.0
2557,69.0,0.0,40.0,0.0,0.0
2558,41.0,78.0,270.0,3.0,0.0
2559,75.0,0.0,90.0,0.0,0.0
2560,74.0,48.0,40.0,0.0,0.0
2561,46.0,0.0,90.0,2.0,0.0
2562,72.0,66.0,40.0,0.0,0.0
2563,45.0,30.0,150.0,2.0,0.0
2564,77.0,18.0,150.0,0.0,0.0
2565,39.0,0.0,90.0,3.0,0.0
2566,74.0,96.0,40.0,0.0,0.0
2567,46.0,96.0,90.0,2.0,0.0
2568,70.0,18.0,330.0,0.0,0.0
2569,38.0,48.0,300.0,3.0,0.0
2570,48.0,96.0,90.0,2.0,0.0
2571,50.0,30.0,150.0,2.0,0.0
2572,39.0,48.0,90.0,3.0,0.0
2573,67.0,0.0,40.0,0.0,0.0
2574,70.0,48.0,40.0,0.0,0.0
2575,41.0,96.0,540.0,3.0,0.0
2576,48.0,24.0,180.0,2.0,0.0
2577,69.0,48.0,40.0,0.0,0.0
2578,70.0,24.0,40.0,0.0,0.0
2579,69.0,48.0,40.0,0.0,0.0
2580,50.0,0.0,180.0,2.0,0.0
2581,70.0,48.0,40.0,0.0,0.0
2582,69.0,48.0,40.0,0.0,0.0
2583,70.0,144.0,40.0,0.0,0.0
2584,69.0,48.0,150.0,0.0,0.0
2585,51.0,48.0,300.0,2.0,0.0
2586,70.0,0.0,40.0,0.0,0.0
2587,46.0,96.0,270.0,3.0,0.0
2588,70.0,16.0,540.0,0.0,0.0
2589,50.0,48.0,40.0,2.0,0.0
2590,48.0,66.0,40.0,2.0,0.0
2591,50.0,30.0,150.0,2.0,0.0
2592,46.0,146.0,90.0,3.0,0.0
2593,34.0,54.0,150.0,3.0,0.0
2594,39.0,46.0,330.0,3.0,0.0
2595,67.0,24.0,20.0,0.0,0.0
2596,65.0,288.0,20.0,0.0,0.0
2597,67.0,2.0,300.0,0.0,0.0
2598,51.0,30.0,630.0,2.0,0.0
2599,68.0,16.0,40.0,0.0,0.0
2600,48.0,30.0,150.0,3.0,0.0
2601,67.0,16.0,15.0,0.0,0.0
2602,65.0,16.0,15.0,0.0,0.0
2603,67.0,96.0,15.0,0.0,0.0
2604,65.0,18.0,90.0,0.0,0.0
2605,63.0,162.0,40.0,0.0,0.0
2606,43.0,96.0,150.0,3.0,0.0
2607,70.0,0.0,150.0,0.0,0.0
2608,70.0,24.0,90.0,0.0,0.0
2609,44.0,16.0,330.0,3.0,0.0
2610,51.0,96.0,90.0,2.0,0.0
2611,72.0,24.0,20.0,0.0,0.0
2612,70.0,48.0,20.0,0.0,0.0
2613,72.0,30.0,210.0,0.0,0.0
2614,53.0,50.0,90.0,2.0,0.0
2615,55.0,96.0,90.0,2.0,0.0
2616,53.0,174.0,150.0,3.0,0.0
2617,56.0,0.0,150.0,2.0,0.0
2618,63.0,66.0,90.0,0.0,0.0
2619,62.0,18.0,240.0,0.0,0.0
2620,53.0,0.0,150.0,2.0,0.0
2621,50.0,30.0,150.0,3.0,0.0
2622,68.0,16.0,40.0,0.0,0.0
2623,51.0,96.0,300.0,2.0,0.0
2624,51.0,30.0,150.0,3.0,0.0
2625,68.0,16.0,15.0,0.0,0.0
2626,67.0,16.0,15.0,0.0,0.0
2627,68.0,96.0,15.0,0.0,0.0
2628,67.0,18.0,90.0,0.0,0.0
2629,65.0,96.0,40.0,0.0,0.0
2630,65.0,16.0,540.0,0.0,0.0
2631,46.0,46.0,330.0,3.0,0.0
2632,48.0,96.0,90.0,2.0,0.0
2633,50.0,50.0,90.0,2.0,0.0
2634,53.0,146.0,90.0,2.0,0.0
2635,58.0,30.0,150.0,2.0,0.0
2636,46.0,24.0,90.0,3.0,0.0
2637,44.0,46.0,330.0,3.0,0.0
2638,74.0,24.0,20.0,0.0,0.0
2639,72.0,288.0,20.0,0.0,0.0
2640,74.0,2.0,300.0,0.0,0.0
2641,53.0,16.0,330.0,2.0,0.0
2642,75.0,16.0,40.0,0.0,0.0
2643,74.0,16.0,15.0,0.0,0.0
2644,44.0,30.0,150.0,3.0,0.0
2645,72.0,16.0,15.0,0.0,0.0
2646,74.0,96.0,15.0,0.0,0.0
2647,72.0,2.0,90.0,0.0,0.0
2648,70.0,162.0,40.0,0.0,0.0
2649,43.0,0.0,150.0,3.0,0.0
2650,75.0,30.0,150.0,0.0,0.0
2651,46.0,24.0,90.0,2.0,0.0
2652,48.0,174.0,150.0,3.0,0.0
2653,51.0,0.0,540.0,2.0,0.0
2654,68.0,24.0,20.0,0.0,0.0
2655,67.0,114.0,20.0,0.0,0.0
2656,68.0,18.0,300.0,0.0,0.0
2657,44.0,6.0,150.0,3.0,0.0
2658,70.0,24.0,20.0,0.0,0.0
2659,72.0,162.0,20.0,0.0,0.0
2660,46.0,16.0,540.0,3.0,0.0
2661,65.0,126.0,150.0,0.0,0.0
2662,70.0,48.0,150.0,0.0,0.0
2663,50.0,48.0,90.0,2.0,0.0
2664,48.0,144.0,90.0,2.0,0.0
2665,68.0,0.0,40.0,0.0,0.0
2666,50.0,30.0,150.0,2.0,0.0
2667,67.0,2.0,150.0,0.0,0.0
2668,68.0,48.0,40.0,0.0,0.0
2669,51.0,192.0,720.0,2.0,0.0
2670,68.0,48.0,40.0,0.0,0.0
2671,67.0,48.0,40.0,0.0,0.0
2672,68.0,48.0,40.0,0.0,0.0
2673,67.0,48.0,40.0,0.0,0.0
2674,68.0,48.0,40.0,0.0,0.0
2675,67.0,48.0,40.0,0.0,0.0
2676,68.0,144.0,40.0,0.0,0.0
2677,67.0,18.0,150.0,0.0,0.0
2678,46.0,30.0,150.0,3.0,0.0
2679,65.0,162.0,40.0,0.0,0.0
2680,63.0,0.0,150.0,0.0,0.0
2681,39.0,30.0,150.0,3.0,0.0
2682,51.0,66.0,660.0,3.0,0.0
2683,79.0,96.0,270.0,0.0,0.0
2684,55.0,66.0,90.0,2.0,0.0
2685,60.0,30.0,150.0,2.0,0.0
2686,75.0,16.0,90.0,0.0,0.0
2687,58.0,30.0,150.0,2.0,0.0
2688,75.0,16.0,15.0,0.0,0.0
2689,74.0,16.0,15.0,0.0,0.0
2690,75.0,96.0,15.0,0.0,0.0
2691,74.0,18.0,90.0,0.0,0.0
2692,72.0,96.0,40.0,0.0,0.0
2693,77.0,30.0,150.0,0.0,0.0
2694,57.0,0.0,150.0,2.0,0.0
2695,51.0,192.0,90.0,3.0,0.0
2696,50.0,96.0,480.0,3.0,0.0
2697,70.0,96.0,270.0,0.0,0.0
2698,53.0,66.0,90.0,2.0,0.0
2699,58.0,30.0,150.0,2.0,0.0
2700,74.0,96.0,90.0,0.0,0.0
2701,51.0,24.0,750.0,2.0,0.0
2702,67.0,48.0,240.0,0.0,0.0
2703,50.0,48.0,90.0,3.0,0.0
2704,48.0,0.0,90.0,3.0,0.0
2705,70.0,48.0,40.0,0.0,0.0
2706,46.0,0.0,90.0,3.0,0.0
2707,69.0,48.0,40.0,0.0,0.0
2708,67.0,48.0,40.0,0.0,0.0
2709,45.0,48.0,90.0,3.0,0.0
2710,72.0,48.0,40.0,0.0,0.0
2711,75.0,0.0,40.0,0.0,0.0
2712,43.0,48.0,90.0,3.0,0.0
2713,74.0,48.0,40.0,0.0,0.0
2714,72.0,0.0,40.0,0.0,0.0
2715,70.0,48.0,40.0,0.0,0.0
2716,41.0,0.0,540.0,3.0,0.0
2717,69.0,48.0,40.0,0.0,0.0
2718,70.0,24.0,40.0,0.0,0.0
2719,69.0,48.0,40.0,0.0,0.0
2720,48.0,0.0,180.0,2.0,0.0
2721,70.0,48.0,40.0,0.0,0.0
2722,69.0,48.0,40.0,0.0,0.0
2723,70.0,96.0,40.0,0.0,0.0
2724,69.0,48.0,150.0,0.0,0.0
2725,53.0,48.0,90.0,2.0,0.0
2726,51.0,162.0,90.0,2.0,0.0
2727,67.0,0.0,40.0,0.0,0.0
2728,65.0,42.0,150.0,0.0,0.0
2729,50.0,0.0,150.0,2.0,0.0
2730,46.0,0.0,180.0,3.0,0.0
2731,65.0,12.0,15.0,0.0,0.0
2732,48.0,126.0,270.0,2.0,0.0
2733,63.0,12.0,15.0,0.0,0.0
2734,65.0,12.0,15.0,0.0,0.0
2735,63.0,48.0,15.0,0.0,0.0
2736,62.0,96.0,40.0,0.0,0.0
2737,63.0,66.0,90.0,0.0,0.0
2738,46.0,0.0,90.0,3.0,0.0
2739,72.0,78.0,270.0,0.0,0.0
2740,45.0,0.0,270.0,3.0,0.0
2741,48.0,66.0,90.0,2.0,0.0
2742,53.0,48.0,300.0,2.0,0.0
2743,43.0,96.0,90.0,3.0,0.0
2744,70.0,48.0,40.0,0.0,0.0
2745,69.0,0.0,40.0,0.0,0.0
2746,75.0,0.0,90.0,0.0,0.0
2747,41.0,78.0,270.0,3.0,0.0
2748,74.0,48.0,40.0,0.0,0.0
2749,46.0,0.0,90.0,2.0,0.0
2750,72.0,66.0,40.0,0.0,0.0
2751,45.0,30.0,150.0,2.0,0.0
2752,77.0,18.0,150.0,0.0,0.0
2753,39.0,0.0,90.0,3.0,0.0
2754,74.0,96.0,40.0,0.0,0.0
2755,46.0,96.0,90.0,2.0,0.0
2756,38.0,48.0,300.0,3.0,0.0
2757,70.0,18.0,330.0,0.0,0.0
2758,48.0,96.0,90.0,2.0,0.0
2759,50.0,30.0,150.0,2.0,0.0
2760,39.0,0.0,90.0,3.0,0.0
2761,67.0,48.0,40.0,0.0,0.0
2762,70.0,48.0,40.0,0.0,0.0
2763,48.0,24.0,180.0,2.0,0.0
2764,41.0,96.0,540.0,3.0,0.0
2765,69.0,48.0,40.0,0.0,0.0
2766,70.0,24.0,40.0,0.0,0.0
2767,69.0,48.0,40.0,0.0,0.0
2768,50.0,0.0,180.0,2.0,0.0
2769,70.0,48.0,40.0,0.0,0.0
2770,69.0,48.0,40.0,0.0,0.0
2771,70.0,144.0,40.0,0.0,0.0
2772,51.0,48.0,300.0,2.0,0.0
2773,69.0,48.0,150.0,0.0,0.0
2774,70.0,0.0,40.0,0.0,0.0
2775,46.0,96.0,270.0,3.0,0.0
2776,70.0,16.0,540.0,0.0,0.0
2777,50.0,48.0,40.0,2.0,0.0
2778,48.0,66.0,40.0,2.0,0.0
2779,50.0,30.0,150.0,2.0,0.0
2780,46.0,146.0,90.0,3.0,0.0
2781,34.0,288.0,150.0,3.0,0.0
2782,74.0,80.0,270.0,0.0,0.0
2783,46.0,46.0,330.0,3.0,0.0
2784,58.0,66.0,480.0,2.0,0.0
2785,75.0,144.0,90.0,0.0,0.0
2786,77.0,18.0,150.0,0.0,0.0
2787,56.0,30.0,150.0,3.0,0.0
2788,74.0,96.0,40.0,0.0,0.0
2789,55.0,112.0,330.0,3.0,0.0
2790,70.0,30.0,150.0,0.0,0.0
2791,58.0,96.0,90.0,2.0,0.0
2792,56.0,50.0,90.0,2.0,0.0
2793,75.0,30.0,270.0,0.0,0.0
2794,55.0,30.0,270.0,2.0,0.0
2795,53.0,48.0,90.0,3.0,0.0
2796,79.0,18.0,40.0,0.0,0.0
2797,51.0,96.0,90.0,3.0,0.0
2798,80.0,0.0,40.0,0.0,0.0
2799,56.0,78.0,270.0,2.0,0.0
2800,74.0,96.0,90.0,0.0,0.0
2801,44.0,66.0,90.0,3.0,0.0
2802,72.0,18.0,240.0,0.0,0.0
2803,46.0,30.0,150.0,3.0,0.0
2804,55.0,0.0,90.0,2.0,0.0
2805,70.0,16.0,40.0,0.0,0.0
2806,48.0,30.0,150.0,3.0,0.0
2807,70.0,16.0,15.0,0.0,0.0
2808,53.0,48.0,90.0,2.0,0.0
2809,68.0,16.0,15.0,0.0,0.0
2810,70.0,48.0,15.0,0.0,0.0
2811,68.0,18.0,90.0,0.0,0.0
2812,52.0,162.0,90.0,2.0,0.0
2813,67.0,0.0,40.0,0.0,0.0
2814,68.0,30.0,270.0,0.0,0.0
2815,53.0,30.0,150.0,2.0,0.0
2816,48.0,66.0,90.0,3.0,0.0
2817,41.0,96.0,90.0,3.0,0.0
2818,67.0,0.0,90.0,0.0,0.0
2819,43.0,96.0,90.0,3.0,0.0
2820,65.0,30.0,150.0,0.0,0.0
2821,44.0,66.0,90.0,3.0,0.0
2822,48.0,192.0,90.0,3.0,0.0
2823,53.0,78.0,270.0,3.0,0.0
2824,80.0,0.0,270.0,0.0,0.0
2825,56.0,66.0,90.0,2.0,0.0
2826,62.0,30.0,150.0,2.0,0.0
2827,79.0,18.0,40.0,0.0,0.0
2828,53.0,144.0,90.0,3.0,0.0
2829,77.0,0.0,40.0,0.0,0.0
2830,79.0,18.0,150.0,0.0,0.0
2831,51.0,30.0,150.0,3.0,0.0
2832,55.0,96.0,90.0,2.0,0.0
2833,72.0,0.0,40.0,0.0,0.0
2834,50.0,30.0,270.0,3.0,0.0
2835,72.0,24.0,90.0,0.0,0.0
2836,53.0,0.0,90.0,2.0,0.0
2837,71.0,24.0,20.0,0.0,0.0
2838,72.0,24.0,20.0,0.0,0.0
2839,71.0,24.0,20.0,0.0,0.0
2840,72.0,66.0,20.0,0.0,0.0
2841,71.0,48.0,90.0,0.0,0.0
2842,56.0,30.0,150.0,2.0,0.0
2843,48.0,144.0,90.0,3.0,0.0
2844,72.0,18.0,40.0,0.0,0.0
2845,74.0,0.0,40.0,0.0,0.0
2846,47.0,0.0,150.0,3.0,0.0
2847,50.0,30.0,150.0,2.0,0.0
2848,67.0,18.0,150.0,0.0,0.0
2849,77.0,96.0,40.0,0.0,0.0
2850,75.0,48.0,150.0,0.0,0.0
2851,48.0,0.0,90.0,3.0,0.0
2852,48.0,48.0,90.0,2.0,0.0
2853,41.0,0.0,90.0,3.0,0.0
2854,50.0,24.0,270.0,2.0,0.0
2855,74.0,48.0,40.0,0.0,0.0
2856,72.0,48.0,40.0,0.0,0.0
2857,43.0,0.0,540.0,3.0,0.0
2858,71.0,48.0,40.0,0.0,0.0
2859,72.0,24.0,40.0,0.0,0.0
2860,71.0,48.0,40.0,0.0,0.0
2861,51.0,0.0,180.0,2.0,0.0
2862,72.0,48.0,40.0,0.0,0.0
2863,71.0,48.0,40.0,0.0,0.0
2864,72.0,144.0,40.0,0.0,0.0
2865,53.0,48.0,300.0,2.0,0.0
2866,71.0,48.0,150.0,0.0,0.0
2867,72.0,24.0,40.0,0.0,0.0
2868,48.0,96.0,270.0,3.0,0.0
2869,72.0,24.0,20.0,0.0,0.0
2870,71.0,48.0,20.0,0.0,0.0
2871,72.0,16.0,480.0,0.0,0.0
2872,51.0,48.0,40.0,2.0,0.0
2873,50.0,66.0,40.0,2.0,0.0
2874,51.0,30.0,150.0,2.0,0.0
2875,48.0,146.0,90.0,3.0,0.0
2876,36.0,54.0,150.0,3.0,0.0
2877,51.0,96.0,840.0,2.0,0.0
2878,48.0,174.0,150.0,3.0,0.0
2879,67.0,24.0,20.0,0.0,0.0
2880,65.0,114.0,20.0,0.0,0.0
2881,67.0,18.0,300.0,0.0,0.0
2882,46.0,30.0,150.0,3.0,0.0
2883,68.0,16.0,40.0,0.0,0.0
2884,67.0,16.0,15.0,0.0,0.0
2885,44.0,30.0,150.0,3.0,0.0
2886,65.0,16.0,15.0,0.0,0.0
2887,67.0,96.0,15.0,0.0,0.0
2888,65.0,18.0,90.0,0.0,0.0
2889,63.0,24.0,40.0,0.0,0.0
2890,73.0,24.0,20.0,0.0,0.0
2891,43.0,30.0,150.0,3.0,0.0
2892,72.0,114.0,20.0,0.0,0.0
2893,73.0,66.0,150.0,0.0,0.0
2894,73.0,30.0,150.0,0.0,0.0
2895,44.0,16.0,330.0,3.0,0.0
2896,48.0,96.0,90.0,2.0,0.0
2897,49.0,50.0,90.0,2.0,0.0
2898,72.0,30.0,150.0,0.0,0.0
2899,51.0,96.0,90.0,2.0,0.0
2900,49.0,78.0,270.0,3.0,0.0
2901,53.0,48.0,90.0,2.0,0.0
2902,70.0,24.0,150.0,0.0,0.0
2903,55.0,0.0,90.0,2.0,0.0
2904,68.0,24.0,20.0,0.0,0.0
2905,67.0,66.0,20.0,0.0,0.0
2906,56.0,42.0,540.0,2.0,0.0
2907,77.0,48.0,150.0,0.0,0.0
2908,51.0,0.0,90.0,3.0,0.0
2909,75.0,48.0,40.0,0.0,0.0
2910,73.0,48.0,40.0,0.0,0.0
2911,53.0,0.0,90.0,3.0,0.0
2912,72.0,48.0,40.0,0.0,0.0
2913,70.0,48.0,40.0,0.0,0.0
2914,49.0,0.0,90.0,3.0,0.0
2915,68.0,162.0,40.0,0.0,0.0
2916,51.0,16.0,330.0,3.0,0.0
2917,72.0,12.0,210.0,0.0,0.0
2918,55.0,30.0,150.0,2.0,0.0
2919,70.0,12.0,15.0,0.0,0.0
2920,72.0,12.0,15.0,0.0,0.0
2921,70.0,48.0,15.0,0.0,0.0
2922,68.0,50.0,40.0,0.0,0.0
2923,70.0,162.0,90.0,0.0,0.0
2924,68.0,126.0,150.0,0.0,0.0
2925,56.0,0.0,150.0,2.0,0.0
2926,44.0,96.0,300.0,3.0,0.0
2927,67.0,0.0,90.0,0.0,0.0
2928,50.0,46.0,330.0,2.0,0.0
2929,48.0,96.0,90.0,3.0,0.0
2930,65.0,2.0,240.0,0.0,0.0
2931,46.0,48.0,90.0,3.0,0.0
2932,44.0,16.0,90.0,3.0,0.0
2933,67.0,0.0,40.0,0.0,0.0
2934,43.0,48.0,90.0,3.0,0.0
2935,65.0,16.0,15.0,0.0,0.0
2936,63.0,16.0,15.0,0.0,0.0
2937,65.0,48.0,15.0,0.0,0.0
2938,63.0,48.0,90.0,0.0,0.0
2939,41.0,96.0,90.0,3.0,0.0
2940,62.0,0.0,40.0,0.0,0.0
2941,70.0,30.0,150.0,0.0,0.0
2942,43.0,66.0,90.0,3.0,0.0
2943,51.0,46.0,330.0,2.0,0.0
2944,46.0,96.0,90.0,3.0,0.0
2945,70.0,24.0,90.0,0.0,0.0
2946,44.0,0.0,90.0,3.0,0.0
2947,72.0,24.0,20.0,0.0,0.0
2948,43.0,96.0,90.0,3.0,0.0
2949,70.0,2.0,20.0,0.0,0.0
2950,72.0,30.0,210.0,0.0,0.0
2951,41.0,66.0,90.0,3.0,0.0
2952,39.0,48.0,90.0,3.0,0.0
2953,58.0,48.0,40.0,0.0,0.0
2954,38.0,30.0,270.0,3.0,0.0
2955,60.0,48.0,40.0,0.0,0.0
2956,41.0,48.0,90.0,2.0,0.0
2957,62.0,48.0,40.0,0.0,0.0
2958,63.0,0.0,40.0,0.0,0.0
2959,65.0,18.0,40.0,0.0,0.0
2960,46.0,30.0,270.0,2.0,0.0
2961,67.0,48.0,40.0,0.0,0.0
2962,38.0,0.0,90.0,3.0,0.0
2963,68.0,48.0,40.0,0.0,0.0
2964,65.0,32.0,40.0,0.0,0.0
2965,39.0,32.0,90.0,3.0,0.0
2966,67.0,32.0,30.0,0.0,0.0
2967,65.0,2.0,30.0,0.0,0.0
2968,63.0,0.0,30.0,0.0,0.0
2969,44.0,0.0,90.0,3.0,0.0
2970,48.0,0.0,90.0,2.0,0.0
2971,65.0,32.0,30.0,0.0,0.0
2972,63.0,32.0,30.0,0.0,0.0
2973,62.0,96.0,30.0,0.0,0.0
2974,46.0,96.0,90.0,2.0,0.0
2975,63.0,16.0,210.0,0.0,0.0
2976,46.0,66.0,480.0,3.0,0.0
2977,55.0,16.0,90.0,2.0,0.0
2978,53.0,48.0,90.0,2.0,0.0
2979,62.0,16.0,15.0,0.0,0.0
2980,63.0,48.0,15.0,0.0,0.0
2981,62.0,48.0,90.0,0.0,0.0
2982,51.0,0.0,90.0,2.0,0.0
2983,60.0,96.0,40.0,0.0,0.0
2984,50.0,96.0,300.0,2.0,0.0
2985,58.0,30.0,150.0,0.0,0.0
2986,44.0,24.0,90.0,3.0,0.0
2987,43.0,78.0,270.0,3.0,0.0
2988,70.0,24.0,20.0,0.0,0.0
2989,68.0,48.0,20.0,0.0,0.0
2990,70.0,48.0,300.0,0.0,0.0
2991,46.0,66.0,90.0,2.0,0.0
2992,51.0,66.0,480.0,2.0,0.0
2993,43.0,16.0,90.0,3.0,0.0
2994,72.0,0.0,40.0,0.0,0.0
2995,70.0,16.0,15.0,0.0,0.0
2996,41.0,48.0,90.0,3.0,0.0
2997,68.0,16.0,15.0,0.0,0.0
2998,70.0,48.0,15.0,0.0,0.0
2999,68.0,48.0,90.0,0.0,0.0
3000,39.0,96.0,90.0,3.0,0.0
3001,67.0,0.0,40.0,0.0,0.0
3002,72.0,30.0,150.0,0.0,0.0
3003,44.0,6.0,270.0,3.0,0.0
3004,48.0,24.0,90.0,2.0,0.0
3005,53.0,22.0,330.0,2.0,0.0
3006,72.0,24.0,20.0,0.0,0.0
3007,74.0,18.0,20.0,0.0,0.0
3008,75.0,24.0,20.0,0.0,0.0
3009,74.0,24.0,20.0,0.0,0.0
3010,41.0,24.0,90.0,3.0,0.0
3011,75.0,24.0,20.0,0.0,0.0
3012,74.0,24.0,20.0,0.0,0.0
3013,75.0,24.0,20.0,0.0,0.0
3014,74.0,0.0,20.0,0.0,0.0
3015,75.0,24.0,20.0,0.0,0.0
3016,46.0,24.0,90.0,3.0,0.0
3017,74.0,24.0,20.0,0.0,0.0
3018,75.0,24.0,20.0,0.0,0.0
3019,74.0,0.0,20.0,0.0,0.0
3020,75.0,24.0,20.0,0.0,0.0
3021,44.0,162.0,90.0,3.0,0.0
3022,74.0,2.0,20.0,0.0,0.0
3023,72.0,24.0,20.0,0.0,0.0
3024,74.0,0.0,20.0,0.0,0.0
3025,43.0,30.0,150.0,3.0,0.0
3026,75.0,48.0,300.0,0.0,0.0
3027,46.0,96.0,90.0,2.0,0.0
3028,45.0,30.0,270.0,3.0,0.0
3029,77.0,48.0,40.0,0.0,0.0
3030,48.0,0.0,90.0,2.0,0.0
3031,79.0,48.0,40.0,0.0,0.0
3032,53.0,24.0,360.0,2.0,0.0
3033,77.0,18.0,40.0,0.0,0.0
3034,74.0,96.0,40.0,0.0,0.0
3035,75.0,48.0,90.0,0.0,0.0
3036,41.0,0.0,90.0,3.0,0.0
3037,46.0,0.0,720.0,3.0,0.0
3038,75.0,48.0,40.0,0.0,0.0
3039,74.0,48.0,40.0,0.0,0.0
3040,75.0,24.0,40.0,0.0,0.0
3041,74.0,48.0,40.0,0.0,0.0
3042,53.0,0.0,180.0,2.0,0.0
3043,75.0,48.0,40.0,0.0,0.0
3044,74.0,48.0,40.0,0.0,0.0
3045,75.0,96.0,40.0,0.0,0.0
3046,74.0,48.0,150.0,0.0,0.0
3047,58.0,48.0,90.0,2.0,0.0
3048,56.0,96.0,90.0,2.0,0.0
3049,72.0,0.0,40.0,0.0,0.0
3050,70.0,30.0,150.0,0.0,0.0
3051,55.0,66.0,90.0,2.0,0.0
3052,53.0,12.0,90.0,2.0,0.0
3053,51.0,30.0,150.0,2.0,0.0
3054,48.0,66.0,90.0,3.0,0.0
3055,70.0,12.0,15.0,0.0,0.0
3056,68.0,12.0,15.0,0.0,0.0
3057,70.0,12.0,15.0,0.0,0.0
3058,68.0,48.0,15.0,0.0,0.0
3059,67.0,0.0,40.0,0.0,0.0
3060,46.0,96.0,90.0,3.0,0.0
3061,68.0,0.0,90.0,0.0,0.0
3062,53.0,30.0,150.0,2.0,0.0
3063,44.0,66.0,90.0,3.0,0.0
3064,62.0,30.0,270.0,0.0,0.0
3065,43.0,66.0,90.0,3.0,0.0
3066,41.0,48.0,90.0,3.0,0.0
3067,39.0,96.0,90.0,3.0,0.0
3068,63.0,48.0,40.0,0.0,0.0
3069,65.0,0.0,40.0,0.0,0.0
3070,38.0,48.0,90.0,3.0,0.0
3071,58.0,0.0,90.0,0.0,0.0
3072,60.0,48.0,40.0,0.0,0.0
3073,44.0,48.0,90.0,3.0,0.0
3074,62.0,0.0,40.0,0.0,0.0
3075,63.0,48.0,40.0,0.0,0.0
3076,43.0,48.0,90.0,3.0,0.0
3077,65.0,0.0,40.0,0.0,0.0
3078,67.0,48.0,40.0,0.0,0.0
3079,41.0,0.0,90.0,3.0,0.0
3080,44.0,48.0,90.0,2.0,0.0
3081,68.0,0.0,40.0,0.0,0.0
3082,70.0,48.0,40.0,0.0,0.0
3083,39.0,0.0,90.0,3.0,0.0
3084,43.0,48.0,90.0,2.0,0.0
3085,75.0,0.0,40.0,0.0,0.0
3086,44.0,0.0,90.0,2.0,0.0
3087,41.0,0.0,90.0,3.0,0.0
3088,74.0,48.0,40.0,0.0,0.0
3089,72.0,32.0,40.0,0.0,0.0
3090,43.0,0.0,90.0,3.0,0.0
3091,46.0,32.0,90.0,2.0,0.0
3092,70.0,32.0,30.0,0.0,0.0
3093,68.0,32.0,30.0,0.0,0.0
3094,67.0,0.0,30.0,0.0,0.0
3095,72.0,32.0,30.0,0.0,0.0
3096,44.0,0.0,90.0,3.0,0.0
3097,51.0,96.0,180.0,2.0,0.0
3098,70.0,32.0,30.0,0.0,0.0
3099,68.0,96.0,30.0,0.0,0.0
3100,67.0,24.0,210.0,0.0,0.0
3101,46.0,0.0,420.0,3.0,0.0
3102,48.0,24.0,90.0,2.0,0.0
3103,50.0,0.0,120.0,2.0,0.0
3104,65.0,24.0,20.0,0.0,0.0
3105,67.0,24.0,20.0,0.0,0.0
3106,65.0,24.0,20.0,0.0,0.0
3107,67.0,48.0,20.0,0.0,0.0
3108,56.0,48.0,180.0,2.0,0.0
3109,65.0,48.0,40.0,0.0,0.0
3110,63.0,96.0,40.0,0.0,0.0
3111,63.0,16.0,540.0,0.0,0.0
3112,51.0,96.0,270.0,3.0,0.0
3113,55.0,48.0,40.0,2.0,0.0
3114,53.0,66.0,40.0,2.0,0.0
3115,55.0,30.0,150.0,2.0,0.0
3116,51.0,146.0,90.0,3.0,0.0
3117,39.0,288.0,150.0,3.0,0.0
3118,46.0,46.0,330.0,3.0,0.0
3119,74.0,80.0,270.0,0.0,0.0
3120,58.0,66.0,480.0,2.0,0.0
3121,75.0,144.0,90.0,0.0,0.0
3122,77.0,18.0,150.0,0.0,0.0
3123,56.0,30.0,150.0,3.0,0.0
3124,74.0,96.0,40.0,0.0,0.0
3125,55.0,112.0,330.0,3.0,0.0
3126,70.0,30.0,150.0,0.0,0.0
3127,58.0,96.0,90.0,2.0,0.0
3128,56.0,50.0,90.0,2.0,0.0
3129,75.0,30.0,270.0,0.0,0.0
3130,55.0,30.0,270.0,2.0,0.0
3131,53.0,48.0,90.0,3.0,0.0
3132,79.0,18.0,40.0,0.0,0.0
3133,51.0,0.0,90.0,3.0,0.0
3134,80.0,96.0,40.0,0.0,0.0
3135,56.0,78.0,270.0,2.0,0.0
3136,74.0,96.0,90.0,0.0,0.0
3137,44.0,66.0,90.0,3.0,0.0
3138,72.0,18.0,240.0,0.0,0.0
3139,46.0,30.0,150.0,3.0,0.0
3140,55.0,16.0,90.0,2.0,0.0
3141,70.0,0.0,40.0,0.0,0.0
3142,70.0,16.0,15.0,0.0,0.0
3143,48.0,30.0,150.0,3.0,0.0
3144,53.0,48.0,90.0,2.0,0.0
3145,68.0,16.0,15.0,0.0,0.0
3146,70.0,48.0,15.0,0.0,0.0
3147,68.0,18.0,90.0,0.0,0.0
3148,52.0,162.0,90.0,2.0,0.0
3149,67.0,0.0,40.0,0.0,0.0
3150,53.0,30.0,150.0,2.0,0.0
3151,68.0,30.0,270.0,0.0,0.0
3152,48.0,66.0,90.0,3.0,0.0
3153,41.0,96.0,90.0,3.0,0.0
3154,43.0,0.0,90.0,3.0,0.0
3155,67.0,96.0,90.0,0.0,0.0
3156,44.0,66.0,90.0,3.0,0.0
3157,65.0,30.0,150.0,0.0,0.0
3158,48.0,192.0,90.0,3.0,0.0
3159,80.0,78.0,270.0,0.0,0.0
3160,53.0,0.0,270.0,3.0,0.0
3161,56.0,66.0,90.0,2.0,0.0
3162,62.0,30.0,150.0,2.0,0.0
3163,53.0,0.0,90.0,3.0,0.0
3164,79.0,18.0,40.0,0.0,0.0
3165,77.0,144.0,40.0,0.0,0.0
3166,79.0,18.0,150.0,0.0,0.0
3167,51.0,30.0,150.0,3.0,0.0
3168,55.0,0.0,90.0,2.0,0.0
3169,72.0,96.0,40.0,0.0,0.0
3170,72.0,24.0,90.0,0.0,0.0
3171,50.0,30.0,270.0,3.0,0.0
3172,71.0,24.0,20.0,0.0,0.0
3173,53.0,66.0,90.0,2.0,0.0
3174,72.0,24.0,20.0,0.0,0.0
3175,71.0,24.0,20.0,0.0,0.0
3176,72.0,0.0,20.0,0.0,0.0
3177,71.0,48.0,90.0,0.0,0.0
3178,56.0,30.0,150.0,2.0,0.0
3179,72.0,18.0,40.0,0.0,0.0
3180,48.0,144.0,90.0,3.0,0.0
3181,74.0,0.0,40.0,0.0,0.0
3182,67.0,18.0,150.0,0.0,0.0
3183,50.0,0.0,150.0,2.0,0.0
3184,47.0,30.0,150.0,3.0,0.0
3185,77.0,96.0,40.0,0.0,0.0
3186,48.0,0.0,90.0,3.0,0.0
3187,75.0,48.0,150.0,0.0,0.0
3188,48.0,48.0,90.0,2.0,0.0
3189,41.0,0.0,90.0,3.0,0.0
3190,50.0,24.0,270.0,2.0,0.0
3191,74.0,48.0,40.0,0.0,0.0
3192,72.0,48.0,40.0,0.0,0.0
3193,43.0,24.0,540.0,3.0,0.0
3194,71.0,48.0,40.0,0.0,0.0
3195,72.0,24.0,40.0,0.0,0.0
3196,71.0,48.0,40.0,0.0,0.0
3197,51.0,0.0,180.0,2.0,0.0
3198,72.0,48.0,40.0,0.0,0.0
3199,71.0,48.0,40.0,0.0,0.0
3200,72.0,144.0,40.0,0.0,0.0
3201,71.0,48.0,150.0,0.0,0.0
3202,53.0,48.0,300.0,2.0,0.0
3203,72.0,0.0,40.0,0.0,0.0
3204,72.0,24.0,20.0,0.0,0.0
3205,48.0,96.0,270.0,3.0,0.0
3206,71.0,48.0,20.0,0.0,0.0
3207,72.0,16.0,480.0,0.0,0.0
3208,51.0,48.0,40.0,2.0,0.0
3209,50.0,66.0,40.0,2.0,0.0
3210,51.0,30.0,150.0,2.0,0.0
3211,48.0,146.0,90.0,3.0,0.0
3212,36.0,54.0,150.0,3.0,0.0
3213,67.0,24.0,20.0,0.0,0.0
3214,48.0,174.0,150.0,3.0,0.0
3215,51.0,96.0,840.0,2.0,0.0
3216,65.0,114.0,20.0,0.0,0.0
3217,67.0,18.0,300.0,0.0,0.0
3218,46.0,30.0,150.0,3.0,0.0
3219,68.0,16.0,40.0,0.0,0.0
3220,67.0,16.0,15.0,0.0,0.0
3221,44.0,30.0,150.0,3.0,0.0
3222,65.0,16.0,15.0,0.0,0.0
3223,67.0,96.0,15.0,0.0,0.0
3224,65.0,18.0,90.0,0.0,0.0
3225,63.0,24.0,40.0,0.0,0.0
3226,43.0,30.0,150.0,3.0,0.0
3227,73.0,24.0,20.0,0.0,0.0
3228,72.0,114.0,20.0,0.0,0.0
3229,73.0,66.0,150.0,0.0,0.0
3230,73.0,30.0,150.0,0.0,0.0
3231,44.0,16.0,330.0,3.0,0.0
3232,48.0,96.0,90.0,2.0,0.0
3233,72.0,30.0,150.0,0.0,0.0
3234,49.0,50.0,90.0,2.0,0.0
3235,51.0,96.0,90.0,2.0,0.0
3236,49.0,78.0,270.0,3.0,0.0
3237,70.0,24.0,150.0,0.0,0.0
3238,53.0,48.0,90.0,2.0,0.0
3239,55.0,66.0,90.0,2.0,0.0
3240,68.0,24.0,20.0,0.0,0.0
3241,67.0,0.0,20.0,0.0,0.0
3242,56.0,42.0,540.0,2.0,0.0
3243,77.0,48.0,150.0,0.0,0.0
3244,51.0,48.0,90.0,3.0,0.0
3245,75.0,0.0,40.0,0.0,0.0
3246,53.0,48.0,90.0,3.0,0.0
3247,73.0,48.0,40.0,0.0,0.0
3248,72.0,0.0,40.0,0.0,0.0
3249,49.0,162.0,90.0,3.0,0.0
3250,70.0,48.0,40.0,0.0,0.0
3251,68.0,0.0,40.0,0.0,0.0
3252,51.0,16.0,330.0,3.0,0.0
3253,72.0,12.0,210.0,0.0,0.0
3254,55.0,30.0,150.0,2.0,0.0
3255,70.0,12.0,15.0,0.0,0.0
3256,72.0,12.0,15.0,0.0,0.0
3257,70.0,48.0,15.0,0.0,0.0
3258,68.0,50.0,40.0,0.0,0.0
3259,70.0,162.0,90.0,0.0,0.0
3260,68.0,0.0,150.0,0.0,0.0
3261,44.0,0.0,300.0,3.0,0.0
3262,56.0,126.0,150.0,2.0,0.0
3263,67.0,96.0,90.0,0.0,0.0
3264,50.0,46.0,330.0,2.0,0.0
3265,65.0,2.0,240.0,0.0,0.0
3266,48.0,96.0,90.0,3.0,0.0
3267,46.0,48.0,90.0,3.0,0.0
3268,44.0,16.0,90.0,3.0,0.0
3269,67.0,0.0,40.0,0.0,0.0
3270,43.0,48.0,90.0,3.0,0.0
3271,65.0,16.0,15.0,0.0,0.0
3272,63.0,16.0,15.0,0.0,0.0
3273,65.0,48.0,15.0,0.0,0.0
3274,63.0,48.0,90.0,0.0,0.0
3275,41.0,96.0,90.0,3.0,0.0
3276,62.0,0.0,40.0,0.0,0.0
3277,43.0,66.0,90.0,3.0,0.0
3278,70.0,30.0,150.0,0.0,0.0
3279,51.0,46.0,330.0,2.0,0.0
3280,46.0,96.0,90.0,3.0,0.0
3281,44.0,0.0,90.0,3.0,0.0
3282,70.0,24.0,90.0,0.0,0.0
3283,43.0,96.0,90.0,3.0,0.0
3284,72.0,24.0,20.0,0.0,0.0
3285,70.0,2.0,20.0,0.0,0.0
3286,72.0,30.0,210.0,0.0,0.0
3287,41.0,66.0,90.0,3.0,0.0
3288,39.0,48.0,90.0,3.0,0.0
3289,38.0,30.0,270.0,3.0,0.0
3290,58.0,48.0,40.0,0.0,0.0
3291,60.0,48.0,40.0,0.0,0.0
3292,62.0,48.0,40.0,0.0,0.0
3293,41.0,0.0,90.0,2.0,0.0
3294,63.0,48.0,40.0,0.0,0.0
3295,46.0,30.0,270.0,2.0,0.0
3296,65.0,18.0,40.0,0.0,0.0
3297,67.0,48.0,40.0,0.0,0.0
3298,68.0,48.0,40.0,0.0,0.0
3299,38.0,32.0,90.0,3.0,0.0
3300,65.0,0.0,40.0,0.0,0.0
3301,39.0,0.0,90.0,3.0,0.0
3302,67.0,32.0,30.0,0.0,0.0
3303,65.0,2.0,30.0,0.0,0.0
3304,63.0,32.0,30.0,0.0,0.0
3305,44.0,0.0,90.0,3.0,0.0
3306,65.0,32.0,30.0,0.0,0.0
3307,48.0,96.0,90.0,2.0,0.0
3308,63.0,32.0,30.0,0.0,0.0
3309,62.0,0.0,30.0,0.0,0.0
3310,46.0,66.0,480.0,3.0,0.0
3311,63.0,16.0,210.0,0.0,0.0
3312,46.0,96.0,90.0,2.0,0.0
3313,55.0,16.0,90.0,2.0,0.0
3314,53.0,48.0,90.0,2.0,0.0
3315,62.0,16.0,15.0,0.0,0.0
3316,63.0,48.0,15.0,0.0,0.0
3317,62.0,48.0,90.0,0.0,0.0
3318,51.0,0.0,90.0,2.0,0.0
3319,60.0,96.0,40.0,0.0,0.0
3320,50.0,96.0,300.0,2.0,0.0
3321,58.0,30.0,150.0,0.0,0.0
3322,44.0,24.0,90.0,3.0,0.0
3323,43.0,78.0,270.0,3.0,0.0
3324,70.0,24.0,20.0,0.0,0.0
3325,68.0,48.0,20.0,0.0,0.0
3326,70.0,48.0,300.0,0.0,0.0
3327,46.0,66.0,90.0,2.0,0.0
3328,51.0,66.0,480.0,2.0,0.0
3329,43.0,16.0,90.0,3.0,0.0
3330,72.0,0.0,40.0,0.0,0.0
3331,70.0,16.0,15.0,0.0,0.0
3332,41.0,48.0,90.0,3.0,0.0
3333,68.0,16.0,15.0,0.0,0.0
3334,70.0,48.0,15.0,0.0,0.0
3335,68.0,48.0,90.0,0.0,0.0
3336,39.0,96.0,90.0,3.0,0.0
3337,67.0,0.0,40.0,0.0,0.0
3338,72.0,30.0,150.0,0.0,0.0
3339,44.0,6.0,270.0,3.0,0.0
3340,48.0,24.0,90.0,2.0,0.0
3341,72.0,24.0,20.0,0.0,0.0
3342,53.0,22.0,330.0,2.0,0.0
3343,74.0,18.0,20.0,0.0,0.0
3344,75.0,24.0,20.0,0.0,0.0
3345,74.0,24.0,20.0,0.0,0.0
3346,75.0,24.0,20.0,0.0,0.0
3347,41.0,0.0,90.0,3.0,0.0
3348,74.0,24.0,20.0,0.0,0.0
3349,75.0,24.0,20.0,0.0,0.0
3350,74.0,24.0,20.0,0.0,0.0
3351,75.0,24.0,20.0,0.0,0.0
3352,46.0,24.0,90.0,3.0,0.0
3353,74.0,24.0,20.0,0.0,0.0
3354,75.0,24.0,20.0,0.0,0.0
3355,74.0,0.0,20.0,0.0,0.0
3356,75.0,24.0,20.0,0.0,0.0
3357,44.0,162.0,90.0,3.0,0.0
3358,74.0,2.0,20.0,0.0,0.0
3359,72.0,24.0,20.0,0.0,0.0
3360,74.0,0.0,20.0,0.0,0.0
3361,43.0,30.0,150.0,3.0,0.0
3362,75.0,48.0,300.0,0.0,0.0
3363,46.0,96.0,90.0,2.0,0.0
3364,45.0,30.0,270.0,3.0,0.0
3365,77.0,48.0,40.0,0.0,0.0
3366,48.0,48.0,90.0,2.0,0.0
3367,79.0,0.0,40.0,0.0,0.0
3368,77.0,18.0,40.0,0.0,0.0
3369,53.0,24.0,360.0,2.0,0.0
3370,74.0,96.0,40.0,0.0,0.0
3371,41.0,0.0,90.0,3.0,0.0
3372,75.0,48.0,90.0,0.0,0.0
3373,75.0,48.0,40.0,0.0,0.0
3374,46.0,0.0,720.0,3.0,0.0
3375,74.0,48.0,40.0,0.0,0.0
3376,75.0,24.0,40.0,0.0,0.0
3377,74.0,48.0,40.0,0.0,0.0
3378,53.0,0.0,180.0,2.0,0.0
3379,75.0,48.0,40.0,0.0,0.0
3380,74.0,48.0,40.0,0.0,0.0
3381,75.0,96.0,40.0,0.0,0.0
3382,58.0,48.0,90.0,2.0,0.0
3383,74.0,48.0,150.0,0.0,0.0
3384,56.0,96.0,90.0,2.0,0.0
3385,72.0,0.0,40.0,0.0,0.0
3386,70.0,30.0,150.0,0.0,0.0
3387,55.0,66.0,90.0,2.0,0.0
3388,53.0,12.0,90.0,2.0,0.0
3389,70.0,12.0,15.0,0.0,0.0
3390,51.0,30.0,150.0,2.0,0.0
3391,48.0,0.0,90.0,3.0,0.0
3392,68.0,12.0,15.0,0.0,0.0
3393,70.0,12.0,15.0,0.0,0.0
3394,68.0,48.0,15.0,0.0,0.0
3395,67.0,66.0,40.0,0.0,0.0
3396,68.0,96.0,90.0,0.0,0.0
3397,46.0,0.0,90.0,3.0,0.0
3398,62.0,30.0,270.0,0.0,0.0
3399,44.0,66.0,90.0,3.0,0.0
3400,53.0,30.0,150.0,2.0,0.0
3401,43.0,66.0,90.0,3.0,0.0
3402,41.0,48.0,90.0,3.0,0.0
3403,39.0,96.0,90.0,3.0,0.0
3404,63.0,48.0,40.0,0.0,0.0
3405,65.0,0.0,40.0,0.0,0.0
3406,58.0,48.0,90.0,0.0,0.0
3407,38.0,0.0,90.0,3.0,0.0
3408,60.0,48.0,40.0,0.0,0.0
3409,44.0,48.0,90.0,3.0,0.0
3410,62.0,0.0,40.0,0.0,0.0
3411,63.0,48.0,40.0,0.0,0.0
3412,43.0,48.0,90.0,3.0,0.0
3413,65.0,0.0,40.0,0.0,0.0
3414,67.0,48.0,40.0,0.0,0.0
3415,44.0,48.0,90.0,2.0,0.0
3416,41.0,0.0,90.0,3.0,0.0
3417,68.0,0.0,40.0,0.0,0.0
3418,43.0,0.0,90.0,2.0,0.0
3419,70.0,48.0,40.0,0.0,0.0
3420,39.0,0.0,90.0,3.0,0.0
3421,75.0,48.0,40.0,0.0,0.0
3422,74.0,48.0,40.0,0.0,0.0
3423,44.0,0.0,90.0,2.0,0.0
3424,41.0,0.0,90.0,3.0,0.0
3425,72.0,32.0,40.0,0.0,0.0
3426,46.0,0.0,90.0,2.0,0.0
3427,70.0,32.0,30.0,0.0,0.0
3428,43.0,0.0,90.0,3.0,0.0
3429,68.0,32.0,30.0,0.0,0.0
3430,67.0,32.0,30.0,0.0,0.0
3431,72.0,32.0,30.0,0.0,0.0
3432,51.0,96.0,180.0,2.0,0.0
3433,44.0,96.0,90.0,3.0,0.0
3434,70.0,32.0,30.0,0.0,0.0
3435,68.0,0.0,30.0,0.0,0.0
3436,67.0,24.0,210.0,0.0,0.0
3437,46.0,96.0,420.0,3.0,0.0
3438,48.0,24.0,90.0,2.0,0.0
3439,50.0,0.0,120.0,2.0,0.0
3440,65.0,24.0,20.0,0.0,0.0
3441,67.0,24.0,20.0,0.0,0.0
3442,65.0,24.0,20.0,0.0,0.0
3443,67.0,48.0,20.0,0.0,0.0
3444,65.0,48.0,40.0,0.0,0.0
3445,56.0,48.0,180.0,2.0,0.0
3446,63.0,0.0,40.0,0.0,0.0
3447,63.0,16.0,540.0,0.0,0.0
3448,51.0,96.0,270.0,3.0,0.0
3449,55.0,48.0,40.0,2.0,0.0
3450,53.0,66.0,40.0,2.0,0.0
3451,55.0,30.0,150.0,2.0,0.0
3452,51.0,146.0,90.0,3.0,0.0
3453,39.0,464.0,150.0,3.0,0.0
3454,79.0,0.0,40.0,0.0,0.0
3455,70.0,112.0,40.0,1.0,0.0
3456,51.0,80.0,150.0,3.0,0.0
3457,67.0,0.0,40.0,1.0,0.0
3458,63.0,192.0,150.0,3.0,0.0
3459,75.0,112.0,40.0,0.0,0.0
3460,65.0,16.0,330.0,1.0,0.0
3461,70.0,126.0,150.0,0.0,0.0
3462,62.0,0.0,150.0,3.0,0.0
3463,72.0,50.0,90.0,0.0,0.0
3464,50.0,30.0,150.0,3.0,0.0
3465,74.0,50.0,90.0,0.0,0.0
3466,48.0,80.0,150.0,3.0,0.0
3467,75.0,112.0,40.0,0.0,0.0
3468,67.0,0.0,40.0,1.0,0.0
3469,72.0,0.0,40.0,0.0,0.0
3470,63.0,112.0,40.0,1.0,0.0
3471,60.0,192.0,150.0,3.0,0.0
3472,58.0,176.0,150.0,3.0,0.0
3473,67.0,16.0,330.0,0.0,0.0
3474,62.0,0.0,330.0,1.0,0.0
3475,46.0,80.0,150.0,3.0,0.0
3476,72.0,112.0,40.0,0.0,0.0
3477,44.0,80.0,150.0,3.0,0.0
3478,63.0,0.0,40.0,1.0,0.0
3479,65.0,112.0,40.0,1.0,0.0
3480,56.0,192.0,150.0,3.0,0.0
3481,68.0,0.0,40.0,0.0,0.0
3482,62.0,0.0,150.0,1.0,0.0
3483,58.0,0.0,150.0,3.0,0.0
3484,65.0,126.0,150.0,0.0,0.0
3485,53.0,30.0,150.0,3.0,0.0
3486,67.0,66.0,90.0,0.0,0.0
3487,68.0,96.0,90.0,0.0,0.0
3488,65.0,0.0,150.0,1.0,0.0
3489,50.0,30.0,150.0,3.0,0.0
3490,70.0,66.0,90.0,0.0,0.0
3491,67.0,96.0,90.0,0.0,0.0
3492,46.0,30.0,150.0,3.0,0.0
3493,68.0,66.0,90.0,0.0,0.0
3494,65.0,96.0,90.0,0.0,0.0
3495,68.0,66.0,90.0,0.0,0.0
3496,51.0,0.0,150.0,3.0,0.0
3497,63.0,30.0,150.0,1.0,0.0
3498,67.0,96.0,90.0,0.0,0.0
3499,65.0,66.0,90.0,0.0,0.0
3500,46.0,30.0,150.0,3.0,0.0
3501,63.0,50.0,90.0,0.0,0.0
3502,79.0,0.0,40.0,0.0,0.0
3503,70.0,46.0,40.0,1.0,0.0
3504,39.0,96.0,90.0,3.0,0.0
3505,46.0,50.0,90.0,3.0,0.0
3506,48.0,96.0,90.0,3.0,0.0
3507,75.0,0.0,40.0,0.0,0.0
3508,67.0,46.0,40.0,1.0,0.0
3509,50.0,96.0,90.0,3.0,0.0
3510,69.0,0.0,150.0,1.0,0.0
3511,51.0,66.0,90.0,3.0,0.0
3512,72.0,30.0,150.0,0.0,0.0
3513,53.0,96.0,90.0,3.0,0.0
3514,51.0,0.0,90.0,3.0,0.0
3515,69.0,0.0,90.0,1.0,0.0
3516,72.0,96.0,90.0,0.0,0.0
3517,74.0,50.0,90.0,0.0,0.0
3518,70.0,0.0,90.0,1.0,0.0
3519,50.0,0.0,90.0,3.0,0.0
3520,48.0,96.0,90.0,3.0,0.0
3521,72.0,46.0,40.0,1.0,0.0
3522,75.0,0.0,40.0,0.0,0.0
3523,46.0,50.0,90.0,3.0,0.0
3524,72.0,0.0,40.0,0.0,0.0
3525,48.0,96.0,90.0,3.0,0.0
3526,69.0,46.0,40.0,1.0,0.0
3527,50.0,96.0,90.0,3.0,0.0
3528,65.0,30.0,930.0,1.0,0.0
3529,69.0,30.0,150.0,0.0,0.0
3530,51.0,66.0,90.0,3.0,0.0
3531,53.0,96.0,90.0,3.0,0.0
3532,55.0,0.0,90.0,3.0,0.0
3533,70.0,96.0,90.0,0.0,0.0
3534,57.0,0.0,90.0,3.0,0.0
3535,72.0,96.0,90.0,0.0,0.0
3536,58.0,30.0,150.0,3.0,0.0
3537,74.0,66.0,90.0,0.0,0.0
3538,70.0,96.0,90.0,0.0,0.0
3539,57.0,30.0,150.0,3.0,0.0
3540,75.0,66.0,90.0,0.0,0.0
3541,72.0,96.0,90.0,0.0,0.0
3542,58.0,0.0,150.0,3.0,0.0
3543,74.0,66.0,90.0,0.0,0.0
3544,70.0,96.0,90.0,0.0,0.0
3545,70.0,16.0,330.0,1.0,0.0
3546,77.0,30.0,150.0,0.0,0.0
3547,50.0,66.0,90.0,3.0,0.0
3548,51.0,96.0,90.0,3.0,0.0
3549,53.0,30.0,150.0,3.0,0.0
3550,75.0,50.0,90.0,0.0,0.0
3551,74.0,96.0,90.0,0.0,0.0
3552,72.0,66.0,90.0,0.0,0.0
3553,69.0,30.0,150.0,1.0,0.0
3554,41.0,0.0,150.0,3.0,0.0
3555,74.0,338.0,90.0,0.0,0.0
3556,70.0,96.0,330.0,1.0,0.0
3557,70.0,0.0,330.0,0.0,0.0
3558,46.0,0.0,330.0,3.0,0.0
3559,79.0,112.0,40.0,0.0,0.0
3560,51.0,80.0,150.0,3.0,0.0
3561,70.0,0.0,40.0,1.0,0.0
3562,75.0,0.0,40.0,0.0,0.0
3563,63.0,192.0,150.0,3.0,0.0
3564,67.0,112.0,40.0,1.0,0.0
3565,70.0,0.0,150.0,0.0,0.0
3566,65.0,16.0,330.0,1.0,0.0
3567,62.0,126.0,150.0,3.0,0.0
3568,72.0,50.0,90.0,0.0,0.0
3569,50.0,30.0,150.0,3.0,0.0
3570,74.0,50.0,90.0,0.0,0.0
3571,67.0,112.0,40.0,1.0,0.0
3572,48.0,80.0,150.0,3.0,0.0
3573,75.0,0.0,40.0,0.0,0.0
3574,60.0,192.0,150.0,3.0,0.0
3575,63.0,112.0,40.0,1.0,0.0
3576,72.0,0.0,40.0,0.0,0.0
3577,58.0,176.0,150.0,3.0,0.0
3578,67.0,0.0,330.0,0.0,0.0
3579,62.0,16.0,330.0,1.0,0.0
3580,46.0,80.0,150.0,3.0,0.0
3581,72.0,112.0,40.0,0.0,0.0
3582,63.0,0.0,40.0,1.0,0.0
3583,44.0,80.0,150.0,3.0,0.0
3584,56.0,192.0,150.0,3.0,0.0
3585,68.0,0.0,40.0,0.0,0.0
3586,65.0,112.0,40.0,1.0,0.0
3587,58.0,0.0,150.0,3.0,0.0
3588,62.0,0.0,150.0,1.0,0.0
3589,65.0,126.0,150.0,0.0,0.0
3590,67.0,66.0,90.0,0.0,0.0
3591,53.0,30.0,150.0,3.0,0.0
3592,68.0,96.0,90.0,0.0,0.0
3593,65.0,0.0,150.0,1.0,0.0
3594,50.0,30.0,150.0,3.0,0.0
3595,70.0,66.0,90.0,0.0,0.0
3596,67.0,96.0,90.0,0.0,0.0
3597,68.0,66.0,90.0,0.0,0.0
3598,46.0,30.0,150.0,3.0,0.0
3599,65.0,96.0,90.0,0.0,0.0
3600,68.0,66.0,90.0,0.0,0.0
3601,51.0,30.0,150.0,3.0,0.0
3602,63.0,0.0,150.0,1.0,0.0
3603,67.0,96.0,90.0,0.0,0.0
3604,65.0,66.0,90.0,0.0,0.0
3605,46.0,30.0,150.0,3.0,0.0
3606,63.0,50.0,90.0,0.0,0.0
3607,39.0,96.0,90.0,3.0,0.0
3608,70.0,46.0,40.0,1.0,0.0
3609,79.0,0.0,40.0,0.0,0.0
3610,46.0,50.0,90.0,3.0,0.0
3611,75.0,46.0,40.0,0.0,0.0
3612,67.0,0.0,40.0,1.0,0.0
3613,48.0,96.0,90.0,3.0,0.0
3614,50.0,96.0,90.0,3.0,0.0
3615,51.0,66.0,90.0,3.0,0.0
3616,69.0,0.0,150.0,1.0,0.0
3617,72.0,30.0,150.0,0.0,0.0
3618,53.0,96.0,90.0,3.0,0.0
3619,69.0,0.0,90.0,1.0,0.0
3620,51.0,0.0,90.0,3.0,0.0
3621,72.0,96.0,90.0,0.0,0.0
3622,74.0,0.0,90.0,0.0,0.0
3623,70.0,0.0,90.0,1.0,0.0
3624,50.0,50.0,90.0,3.0,0.0
3625,72.0,0.0,40.0,1.0,0.0
3626,75.0,46.0,40.0,0.0,0.0
3627,48.0,96.0,90.0,3.0,0.0
3628,46.0,50.0,90.0,3.0,0.0
3629,72.0,46.0,40.0,0.0,0.0
3630,69.0,0.0,40.0,1.0,0.0
3631,48.0,96.0,90.0,3.0,0.0
3632,50.0,96.0,90.0,3.0,0.0
3633,69.0,30.0,150.0,0.0,0.0
3634,65.0,30.0,930.0,1.0,0.0
3635,51.0,66.0,90.0,3.0,0.0
3636,53.0,96.0,90.0,3.0,0.0
3637,70.0,0.0,90.0,0.0,0.0
3638,55.0,96.0,90.0,3.0,0.0
3639,72.0,0.0,90.0,0.0,0.0
3640,57.0,96.0,90.0,3.0,0.0
3641,58.0,30.0,150.0,3.0,0.0
3642,74.0,66.0,90.0,0.0,0.0
3643,70.0,96.0,90.0,0.0,0.0
3644,57.0,30.0,150.0,3.0,0.0
3645,75.0,66.0,90.0,0.0,0.0
3646,72.0,96.0,90.0,0.0,0.0
3647,74.0,66.0,90.0,0.0,0.0
3648,58.0,0.0,150.0,3.0,0.0
3649,70.0,96.0,90.0,0.0,0.0
3650,70.0,16.0,330.0,1.0,0.0
3651,77.0,30.0,150.0,0.0,0.0
3652,50.0,66.0,90.0,3.0,0.0
3653,51.0,96.0,90.0,3.0,0.0
3654,53.0,30.0,150.0,3.0,0.0
3655,75.0,50.0,90.0,0.0,0.0
3656,74.0,96.0,90.0,0.0,0.0
3657,69.0,30.0,150.0,1.0,0.0
3658,41.0,0.0,150.0,3.0,0.0
3659,72.0,66.0,90.0,0.0,0.0
3660,74.0,338.0,90.0,0.0,0.0
3661,70.0,0.0,330.0,0.0,0.0
3662,46.0,0.0,330.0,3.0,0.0
3663,70.0,96.0,330.0,1.0,0.0
3664,65.0,0.0,40.0,0.0,0.0
3665,58.0,80.0,150.0,3.0,0.0
3666,62.0,112.0,40.0,1.0,0.0
3667,62.0,0.0,40.0,1.0,0.0
3668,70.0,0.0,40.0,0.0,0.0
3669,65.0,112.0,40.0,0.0,0.0
3670,53.0,126.0,150.0,3.0,0.0
3671,65.0,0.0,330.0,1.0,0.0
3672,70.0,0.0,330.0,0.0,0.0
3673,74.0,46.0,330.0,0.0,0.0
3674,51.0,96.0,90.0,3.0,0.0
3675,50.0,96.0,90.0,3.0,0.0
3676,48.0,50.0,90.0,3.0,0.0
3677,46.0,96.0,90.0,3.0,0.0
3678,53.0,30.0,150.0,3.0,0.0
3679,75.0,66.0,90.0,0.0,0.0
3680,74.0,96.0,90.0,0.0,0.0
3681,56.0,30.0,150.0,3.0,0.0
3682,72.0,66.0,90.0,0.0,0.0
3683,70.0,96.0,90.0,0.0,0.0
3684,63.0,30.0,150.0,1.0,0.0
3685,55.0,66.0,90.0,3.0,0.0
3686,70.0,0.0,150.0,0.0,0.0
3687,75.0,96.0,120.0,0.0,0.0
3688,56.0,0.0,90.0,3.0,0.0
3689,70.0,0.0,150.0,0.0,0.0
3690,55.0,66.0,90.0,3.0,0.0
3691,70.0,30.0,150.0,1.0,0.0
3692,53.0,50.0,90.0,3.0,0.0
3693,70.0,0.0,40.0,1.0,0.0
3694,51.0,96.0,90.0,3.0,0.0
3695,75.0,0.0,40.0,0.0,0.0
3696,79.0,46.0,40.0,0.0,0.0
3697,53.0,50.0,90.0,3.0,0.0
3698,75.0,46.0,40.0,0.0,0.0
3699,67.0,0.0,40.0,1.0,0.0
3700,55.0,96.0,90.0,3.0,0.0
3701,51.0,96.0,90.0,3.0,0.0
3702,56.0,66.0,90.0,3.0,0.0
3703,72.0,30.0,150.0,0.0,0.0
3704,63.0,0.0,150.0,1.0,0.0
3705,58.0,96.0,90.0,3.0,0.0
3706,74.0,96.0,90.0,0.0,0.0
3707,56.0,0.0,90.0,3.0,0.0
3708,65.0,0.0,90.0,1.0,0.0
3709,55.0,0.0,90.0,3.0,0.0
3710,67.0,50.0,90.0,1.0,0.0
3711,75.0,0.0,90.0,0.0,0.0
3712,68.0,0.0,40.0,1.0,0.0
3713,77.0,46.0,40.0,0.0,0.0
3714,53.0,96.0,90.0,3.0,0.0
3715,55.0,50.0,90.0,3.0,0.0
3716,56.0,96.0,90.0,3.0,0.0
3717,65.0,46.0,40.0,1.0,0.0
3718,74.0,0.0,40.0,0.0,0.0
3719,53.0,162.0,90.0,3.0,0.0
3720,71.0,0.0,330.0,0.0,0.0
3721,55.0,176.0,150.0,3.0,0.0
3722,62.0,16.0,330.0,1.0,0.0
3723,43.0,80.0,150.0,3.0,0.0
3724,67.0,96.0,90.0,0.0,0.0
3725,67.0,46.0,40.0,1.0,0.0
3726,69.0,50.0,90.0,0.0,0.0
3727,62.0,46.0,40.0,3.0,0.0
3728,71.0,96.0,90.0,0.0,0.0
3729,72.0,96.0,90.0,0.0,0.0
3730,74.0,66.0,90.0,0.0,0.0
3731,59.0,30.0,150.0,3.0,0.0
3732,75.0,96.0,90.0,0.0,0.0
3733,59.0,0.0,90.0,3.0,0.0
3734,74.0,96.0,90.0,0.0,0.0
3735,60.0,0.0,90.0,3.0,0.0
3736,72.0,50.0,90.0,0.0,0.0
3737,62.0,46.0,40.0,3.0,0.0
3738,71.0,96.0,90.0,0.0,0.0
3739,72.0,50.0,90.0,0.0,0.0
3740,59.0,46.0,40.0,3.0,0.0
3741,74.0,96.0,90.0,0.0,0.0
3742,75.0,96.0,90.0,0.0,0.0
3743,55.0,30.0,150.0,3.0,0.0
3744,77.0,66.0,90.0,0.0,0.0
3745,79.0,96.0,90.0,0.0,0.0
3746,55.0,0.0,90.0,3.0,0.0
3747,77.0,96.0,90.0,0.0,0.0
3748,75.0,50.0,90.0,0.0,0.0
3749,57.0,0.0,90.0,3.0,0.0
3750,74.0,96.0,90.0,0.0,0.0
3751,59.0,46.0,40.0,3.0,0.0
3752,75.0,50.0,90.0,0.0,0.0
3753,77.0,96.0,90.0,0.0,0.0
3754,55.0,46.0,40.0,3.0,0.0
3755,79.0,96.0,90.0,0.0,0.0
3756,80.0,96.0,90.0,0.0,0.0
3757,51.0,0.0,90.0,3.0,0.0
3758,50.0,0.0,90.0,3.0,0.0
3759,77.0,96.0,90.0,0.0,0.0
3760,51.0,66.0,90.0,3.0,0.0
3761,79.0,30.0,150.0,0.0,0.0
3762,53.0,162.0,90.0,3.0,0.0
3763,55.0,0.0,150.0,3.0,0.0
3764,72.0,126.0,150.0,0.0,0.0
3765,63.0,0.0,150.0,1.0,0.0
3766,65.0,0.0,150.0,1.0,0.0
3767,43.0,30.0,150.0,3.0,0.0
3768,74.0,66.0,90.0,0.0,0.0
3769,71.0,162.0,90.0,0.0,0.0
3770,63.0,16.0,330.0,1.0,0.0
3771,72.0,0.0,330.0,0.0,0.0
3772,48.0,176.0,150.0,3.0,0.0
3773,43.0,80.0,150.0,3.0,0.0
3774,67.0,46.0,40.0,0.0,0.0
3775,36.0,66.0,90.0,3.0,0.0
3776,63.0,30.0,150.0,1.0,0.0
3777,38.0,50.0,90.0,3.0,0.0
3778,39.0,66.0,90.0,3.0,0.0
3779,67.0,30.0,150.0,1.0,0.0
3780,72.0,46.0,40.0,0.0,0.0
3781,41.0,96.0,90.0,3.0,0.0
3782,75.0,46.0,330.0,0.0,0.0
3783,70.0,0.0,330.0,1.0,0.0
3784,43.0,96.0,90.0,3.0,0.0
3785,44.0,96.0,90.0,3.0,0.0
3786,46.0,50.0,90.0,3.0,0.0
3787,48.0,96.0,90.0,3.0,0.0
3788,49.0,0.0,90.0,3.0,0.0
3789,68.0,96.0,90.0,0.0,0.0
3790,51.0,96.0,90.0,3.0,0.0
3791,67.0,0.0,90.0,0.0,0.0
3792,53.0,0.0,90.0,3.0,0.0
3793,65.0,96.0,90.0,0.0,0.0
3794,63.0,96.0,90.0,0.0,0.0
3795,55.0,0.0,90.0,3.0,0.0
3796,73.0,0.0,90.0,0.0,0.0
3797,56.0,96.0,90.0,3.0,0.0
3798,58.0,0.0,90.0,3.0,0.0
3799,70.0,96.0,90.0,0.0,0.0
3800,56.0,66.0,90.0,3.0,0.0
3801,72.0,30.0,150.0,0.0,0.0
3802,55.0,96.0,90.0,3.0,0.0
3803,53.0,96.0,90.0,3.0,0.0
3804,62.0,0.0,90.0,0.0,0.0
3805,63.0,96.0,90.0,0.0,0.0
3806,51.0,0.0,90.0,3.0,0.0
3807,65.0,0.0,90.0,0.0,0.0
3808,50.0,96.0,90.0,3.0,0.0
3809,67.0,0.0,90.0,0.0,0.0
3810,48.0,96.0,90.0,3.0,0.0
3811,68.0,0.0,90.0,0.0,0.0
3812,46.0,96.0,90.0,3.0,0.0
3813,65.0,0.0,90.0,0.0,0.0
3814,44.0,96.0,90.0,3.0,0.0
3815,43.0,96.0,90.0,3.0,0.0
3816,67.0,0.0,90.0,0.0,0.0
3817,68.0,96.0,90.0,0.0,0.0
3818,41.0,0.0,90.0,3.0,0.0
3819,39.0,0.0,90.0,3.0,0.0
3820,70.0,96.0,90.0,0.0,0.0
3821,68.0,96.0,90.0,0.0,0.0
3822,41.0,0.0,90.0,3.0,0.0
3823,70.0,96.0,90.0,0.0,0.0
3824,43.0,0.0,90.0,3.0,0.0
3825,44.0,0.0,90.0,3.0,0.0
3826,72.0,96.0,90.0,0.0,0.0
3827,65.0,46.0,330.0,0.0,0.0
3828,46.0,96.0,90.0,3.0,0.0
3829,62.0,0.0,330.0,1.0,0.0
3830,41.0,96.0,90.0,3.0,0.0
3831,38.0,50.0,90.0,3.0,0.0
3832,41.0,50.0,90.0,3.0,0.0
3833,77.0,46.0,40.0,1.0,0.0
3834,34.0,96.0,90.0,3.0,0.0
3835,80.0,0.0,40.0,0.0,0.0
3836,36.0,50.0,90.0,3.0,0.0
3837,70.0,0.0,40.0,1.0,0.0
3838,38.0,96.0,90.0,3.0,0.0
3839,77.0,46.0,40.0,0.0,0.0
3840,39.0,96.0,90.0,3.0,0.0
3841,41.0,66.0,90.0,3.0,0.0
3842,74.0,30.0,150.0,0.0,0.0
3843,68.0,46.0,330.0,1.0,0.0
3844,43.0,96.0,90.0,3.0,0.0
3845,74.0,0.0,90.0,0.0,0.0
3846,41.0,50.0,90.0,3.0,0.0
3847,75.0,50.0,90.0,0.0,0.0
3848,39.0,0.0,90.0,3.0,0.0
3849,68.0,46.0,40.0,1.0,0.0
3850,38.0,96.0,90.0,3.0,0.0
3851,77.0,0.0,40.0,0.0,0.0
3852,39.0,50.0,90.0,3.0,0.0
3853,41.0,96.0,90.0,3.0,0.0
3854,74.0,46.0,40.0,0.0,0.0
3855,65.0,0.0,40.0,1.0,0.0
3856,43.0,96.0,90.0,3.0,0.0
3857,44.0,66.0,90.0,3.0,0.0
3858,70.0,30.0,150.0,0.0,0.0
3859,62.0,46.0,330.0,1.0,0.0
3860,46.0,96.0,90.0,3.0,0.0
3861,44.0,0.0,90.0,3.0,0.0
3862,70.0,50.0,90.0,0.0,0.0
3863,43.0,96.0,90.0,3.0,0.0
3864,72.0,0.0,90.0,0.0,0.0
3865,41.0,96.0,90.0,3.0,0.0
3866,74.0,0.0,90.0,0.0,0.0
3867,68.0,46.0,330.0,1.0,0.0
3868,43.0,0.0,90.0,3.0,0.0
3869,75.0,96.0,90.0,0.0,0.0
3870,44.0,0.0,90.0,3.0,0.0
3871,77.0,50.0,90.0,0.0,0.0
3872,46.0,0.0,90.0,3.0,0.0
3873,74.0,96.0,90.0,0.0,0.0
3874,67.0,30.0,150.0,1.0,0.0
3875,48.0,0.0,150.0,3.0,0.0
3876,75.0,66.0,90.0,0.0,0.0
3877,72.0,162.0,90.0,0.0,0.0
3878,68.0,78.0,150.0,1.0,0.0
3879,44.0,0.0,150.0,3.0,0.0
3880,77.0,0.0,150.0,0.0,0.0
3881,75.0,48.0,40.0,0.0,0.0
3882,46.0,144.0,330.0,3.0,0.0
3883,65.0,338.0,540.0,1.0,0.0
3884,74.0,48.0,40.0,0.0,0.0
3885,75.0,48.0,40.0,0.0,0.0
3886,74.0,48.0,40.0,0.0,0.0
3887,75.0,48.0,40.0,0.0,0.0
3888,74.0,48.0,40.0,0.0,0.0
3889,75.0,0.0,40.0,0.0,0.0
3890,74.0,18.0,150.0,0.0,0.0
3891,34.0,30.0,150.0,3.0,0.0
3892,75.0,0.0,40.0,0.0,0.0
3893,39.0,0.0,330.0,3.0,0.0
3894,67.0,96.0,330.0,1.0,0.0
3895,75.0,0.0,330.0,0.0,0.0
3896,65.0,0.0,40.0,0.0,0.0
3897,58.0,80.0,150.0,3.0,0.0
3898,62.0,112.0,40.0,1.0,0.0
3899,65.0,112.0,40.0,0.0,0.0
3900,62.0,0.0,40.0,1.0,0.0
3901,53.0,126.0,150.0,3.0,0.0
3902,70.0,0.0,40.0,0.0,0.0
3903,51.0,96.0,90.0,3.0,0.0
3904,65.0,0.0,330.0,1.0,0.0
3905,70.0,0.0,330.0,0.0,0.0
3906,74.0,46.0,330.0,0.0,0.0
3907,50.0,96.0,90.0,3.0,0.0
3908,48.0,50.0,90.0,3.0,0.0
3909,46.0,96.0,90.0,3.0,0.0
3910,53.0,30.0,150.0,3.0,0.0
3911,75.0,66.0,90.0,0.0,0.0
3912,74.0,96.0,90.0,0.0,0.0
3913,72.0,66.0,90.0,0.0,0.0
3914,56.0,30.0,150.0,3.0,0.0
3915,70.0,96.0,90.0,0.0,0.0
3916,63.0,30.0,150.0,1.0,0.0
3917,55.0,66.0,90.0,3.0,0.0
3918,70.0,0.0,150.0,0.0,0.0
3919,75.0,0.0,120.0,0.0,0.0
3920,56.0,96.0,90.0,3.0,0.0
3921,55.0,66.0,90.0,3.0,0.0
3922,70.0,30.0,150.0,0.0,0.0
3923,70.0,0.0,150.0,1.0,0.0
3924,53.0,50.0,90.0,3.0,0.0
3925,79.0,0.0,40.0,0.0,0.0
3926,75.0,46.0,40.0,0.0,0.0
3927,51.0,96.0,90.0,3.0,0.0
3928,70.0,0.0,40.0,1.0,0.0
3929,53.0,50.0,90.0,3.0,0.0
3930,75.0,46.0,40.0,0.0,0.0
3931,55.0,96.0,90.0,3.0,0.0
3932,67.0,0.0,40.0,1.0,0.0
3933,51.0,96.0,90.0,3.0,0.0
3934,72.0,0.0,150.0,0.0,0.0
3935,63.0,30.0,150.0,1.0,0.0
3936,56.0,66.0,90.0,3.0,0.0
3937,58.0,96.0,90.0,3.0,0.0
3938,65.0,0.0,90.0,1.0,0.0
3939,74.0,96.0,90.0,0.0,0.0
3940,56.0,0.0,90.0,3.0,0.0
3941,67.0,50.0,90.0,1.0,0.0
3942,55.0,0.0,90.0,3.0,0.0
3943,75.0,0.0,90.0,0.0,0.0
3944,77.0,46.0,40.0,0.0,0.0
3945,53.0,96.0,90.0,3.0,0.0
3946,68.0,0.0,40.0,1.0,0.0
3947,55.0,50.0,90.0,3.0,0.0
3948,56.0,96.0,90.0,3.0,0.0
3949,65.0,46.0,40.0,1.0,0.0
3950,74.0,0.0,40.0,0.0,0.0
3951,53.0,162.0,90.0,3.0,0.0
3952,55.0,176.0,150.0,3.0,0.0
3953,62.0,16.0,330.0,1.0,0.0
3954,71.0,0.0,330.0,0.0,0.0
3955,43.0,80.0,150.0,3.0,0.0
3956,67.0,46.0,40.0,1.0,0.0
3957,67.0,96.0,90.0,0.0,0.0
3958,69.0,50.0,90.0,0.0,0.0
3959,62.0,46.0,40.0,3.0,0.0
3960,71.0,96.0,90.0,0.0,0.0
3961,72.0,96.0,90.0,0.0,0.0
3962,74.0,66.0,90.0,0.0,0.0
3963,59.0,30.0,150.0,3.0,0.0
3964,75.0,96.0,90.0,0.0,0.0
3965,59.0,0.0,90.0,3.0,0.0
3966,74.0,96.0,90.0,0.0,0.0
3967,60.0,50.0,90.0,3.0,0.0
3968,72.0,0.0,90.0,0.0,0.0
3969,71.0,96.0,90.0,0.0,0.0
3970,62.0,46.0,40.0,3.0,0.0
3971,72.0,50.0,90.0,0.0,0.0
3972,74.0,96.0,90.0,0.0,0.0
3973,59.0,46.0,40.0,3.0,0.0
3974,75.0,96.0,90.0,0.0,0.0
3975,55.0,30.0,150.0,3.0,0.0
3976,77.0,66.0,90.0,0.0,0.0
3977,79.0,96.0,90.0,0.0,0.0
3978,77.0,96.0,90.0,0.0,0.0
3979,55.0,0.0,90.0,3.0,0.0
3980,57.0,0.0,90.0,3.0,0.0
3981,75.0,50.0,90.0,0.0,0.0
3982,59.0,46.0,40.0,3.0,0.0
3983,74.0,96.0,90.0,0.0,0.0
3984,75.0,50.0,90.0,0.0,0.0
3985,55.0,46.0,40.0,3.0,0.0
3986,77.0,96.0,90.0,0.0,0.0
3987,79.0,96.0,90.0,0.0,0.0
3988,51.0,96.0,90.0,3.0,0.0
3989,80.0,0.0,90.0,0.0,0.0
3990,77.0,0.0,90.0,0.0,0.0
3991,50.0,96.0,90.0,3.0,0.0
3992,79.0,30.0,150.0,0.0,0.0
3993,51.0,66.0,90.0,3.0,0.0
3994,53.0,162.0,90.0,3.0,0.0
3995,72.0,0.0,150.0,0.0,0.0
3996,63.0,0.0,150.0,1.0,0.0
3997,55.0,126.0,150.0,3.0,0.0
3998,43.0,30.0,150.0,3.0,0.0
3999,74.0,66.0,90.0,0.0,0.0
4000,65.0,0.0,150.0,1.0,0.0
4001,71.0,162.0,90.0,0.0,0.0
4002,63.0,16.0,330.0,1.0,0.0
4003,48.0,176.0,150.0,3.0,0.0
4004,72.0,0.0,330.0,0.0,0.0
4005,43.0,80.0,150.0,3.0,0.0
4006,36.0,66.0,90.0,3.0,0.0
4007,67.0,46.0,40.0,0.0,0.0
4008,63.0,30.0,150.0,1.0,0.0
4009,38.0,50.0,90.0,3.0,0.0
4010,67.0,30.0,150.0,1.0,0.0
4011,72.0,46.0,40.0,0.0,0.0
4012,39.0,66.0,90.0,3.0,0.0
4013,41.0,96.0,90.0,3.0,0.0
4014,43.0,96.0,90.0,3.0,0.0
4015,75.0,46.0,330.0,0.0,0.0
4016,70.0,0.0,330.0,1.0,0.0
4017,44.0,96.0,90.0,3.0,0.0
4018,46.0,50.0,90.0,3.0,0.0
4019,48.0,96.0,90.0,3.0,0.0
4020,68.0,0.0,90.0,0.0,0.0
4021,49.0,96.0,90.0,3.0,0.0
4022,51.0,0.0,90.0,3.0,0.0
4023,67.0,96.0,90.0,0.0,0.0
4024,53.0,0.0,90.0,3.0,0.0
4025,65.0,96.0,90.0,0.0,0.0
4026,63.0,96.0,90.0,0.0,0.0
4027,55.0,0.0,90.0,3.0,0.0
4028,73.0,0.0,90.0,0.0,0.0
4029,56.0,96.0,90.0,3.0,0.0
4030,70.0,0.0,90.0,0.0,0.0
4031,58.0,96.0,90.0,3.0,0.0
4032,72.0,30.0,150.0,0.0,0.0
4033,56.0,66.0,90.0,3.0,0.0
4034,55.0,96.0,90.0,3.0,0.0
4035,62.0,0.0,90.0,0.0,0.0
4036,53.0,96.0,90.0,3.0,0.0
4037,51.0,0.0,90.0,3.0,0.0
4038,63.0,96.0,90.0,0.0,0.0
4039,65.0,0.0,90.0,0.0,0.0
4040,50.0,96.0,90.0,3.0,0.0
4041,67.0,0.0,90.0,0.0,0.0
4042,48.0,96.0,90.0,3.0,0.0
4043,68.0,0.0,90.0,0.0,0.0
4044,46.0,96.0,90.0,3.0,0.0
4045,65.0,96.0,90.0,0.0,0.0
4046,44.0,0.0,90.0,3.0,0.0
4047,43.0,0.0,90.0,3.0,0.0
4048,67.0,96.0,90.0,0.0,0.0
4049,68.0,96.0,90.0,0.0,0.0
4050,41.0,0.0,90.0,3.0,0.0
4051,70.0,0.0,90.0,0.0,0.0
4052,39.0,96.0,90.0,3.0,0.0
4053,41.0,96.0,90.0,3.0,0.0
4054,68.0,0.0,90.0,0.0,0.0
4055,70.0,0.0,90.0,0.0,0.0
4056,43.0,96.0,90.0,3.0,0.0
4057,72.0,96.0,90.0,0.0,0.0
4058,44.0,0.0,90.0,3.0,0.0
4059,46.0,96.0,90.0,3.0,0.0
4060,62.0,0.0,330.0,1.0,0.0
4061,65.0,46.0,330.0,0.0,0.0
4062,41.0,96.0,90.0,3.0,0.0
4063,38.0,50.0,90.0,3.0,0.0
4064,41.0,50.0,90.0,3.0,0.0
4065,77.0,46.0,40.0,1.0,0.0
4066,80.0,0.0,40.0,0.0,0.0
4067,34.0,96.0,90.0,3.0,0.0
4068,36.0,50.0,90.0,3.0,0.0
4069,70.0,0.0,40.0,1.0,0.0
4070,77.0,46.0,40.0,0.0,0.0
4071,38.0,96.0,90.0,3.0,0.0
4072,39.0,96.0,90.0,3.0,0.0
4073,41.0,66.0,90.0,3.0,0.0
4074,68.0,46.0,330.0,1.0,0.0
4075,74.0,30.0,150.0,0.0,0.0
4076,43.0,96.0,90.0,3.0,0.0
4077,74.0,0.0,90.0,0.0,0.0
4078,41.0,50.0,90.0,3.0,0.0
4079,75.0,0.0,90.0,0.0,0.0
4080,39.0,50.0,90.0,3.0,0.0
4081,77.0,0.0,40.0,0.0,0.0
4082,38.0,96.0,90.0,3.0,0.0
4083,68.0,46.0,40.0,1.0,0.0
4084,39.0,50.0,90.0,3.0,0.0
4085,65.0,46.0,40.0,1.0,0.0
4086,41.0,96.0,90.0,3.0,0.0
4087,74.0,0.0,40.0,0.0,0.0
4088,43.0,96.0,90.0,3.0,0.0
4089,70.0,30.0,150.0,0.0,0.0
4090,44.0,66.0,90.0,3.0,0.0
4091,62.0,46.0,330.0,1.0,0.0
4092,46.0,96.0,90.0,3.0,0.0
4093,44.0,0.0,90.0,3.0,0.0
4094,70.0,50.0,90.0,0.0,0.0
4095,43.0,0.0,90.0,3.0,0.0
4096,72.0,96.0,90.0,0.0,0.0
4097,74.0,0.0,90.0,0.0,0.0
4098,68.0,46.0,330.0,1.0,0.0
4099,41.0,96.0,90.0,3.0,0.0
4100,75.0,0.0,90.0,0.0,0.0
4101,43.0,96.0,90.0,3.0,0.0
4102,44.0,0.0,90.0,3.0,0.0
4103,77.0,50.0,90.0,0.0,0.0
4104,46.0,96.0,90.0,3.0,0.0
4105,74.0,0.0,90.0,0.0,0.0
4106,67.0,30.0,150.0,1.0,0.0
4107,48.0,0.0,150.0,3.0,0.0
4108,75.0,66.0,90.0,0.0,0.0
4109,72.0,162.0,90.0,0.0,0.0
4110,68.0,0.0,150.0,1.0,0.0
4111,77.0,0.0,150.0,0.0,0.0
4112,44.0,78.0,150.0,3.0,0.0
4113,65.0,338.0,540.0,1.0,0.0
4114,46.0,0.0,330.0,3.0,0.0
4115,75.0,48.0,40.0,0.0,0.0
4116,74.0,48.0,40.0,0.0,0.0
4117,75.0,48.0,40.0,0.0,0.0
4118,74.0,48.0,40.0,0.0,0.0
4119,75.0,48.0,40.0,0.0,0.0
4120,74.0,48.0,40.0,0.0,0.0
4121,75.0,144.0,40.0,0.0,0.0
4122,74.0,18.0,150.0,0.0,0.0
4123,34.0,30.0,150.0,3.0,0.0
4124,75.0,0.0,40.0,0.0,0.0
4125,75.0,454.0,330.0,0.0,0.0
4126,67.0,0.0,330.0,1.0,0.0
4127,39.0,0.0,330.0,3.0,0.0
4128,70.0,24.0,20.0,0.0,0.0
4129,51.0,96.0,90.0,3.0,0.0
4130,68.0,48.0,20.0,0.0,0.0
4131,70.0,96.0,150.0,0.0,0.0
4132,55.0,0.0,90.0,3.0,0.0
4133,58.0,66.0,90.0,3.0,0.0
4134,70.0,30.0,150.0,0.0,0.0
4135,63.0,96.0,90.0,3.0,0.0
4136,70.0,30.0,150.0,0.0,0.0
4137,53.0,66.0,90.0,3.0,0.0
4138,62.0,24.0,90.0,3.0,0.0
4139,70.0,24.0,20.0,0.0,0.0
4140,55.0,96.0,90.0,3.0,0.0
4141,68.0,48.0,20.0,0.0,0.0
4142,70.0,0.0,150.0,0.0,0.0
4143,60.0,96.0,90.0,3.0,0.0
4144,75.0,0.0,90.0,0.0,0.0
4145,51.0,96.0,90.0,3.0,0.0
4146,74.0,96.0,90.0,0.0,0.0
4147,53.0,0.0,90.0,3.0,0.0
4148,55.0,66.0,90.0,3.0,0.0
4149,75.0,30.0,150.0,0.0,0.0
4150,56.0,24.0,90.0,3.0,0.0
4151,67.0,24.0,20.0,0.0,0.0
4152,58.0,30.0,150.0,3.0,0.0
4153,65.0,114.0,20.0,0.0,0.0
4154,67.0,96.0,150.0,0.0,0.0
4155,63.0,48.0,90.0,0.0,0.0
4156,56.0,30.0,150.0,3.0,0.0
4157,65.0,18.0,40.0,0.0,0.0
4158,67.0,96.0,40.0,0.0,0.0
4159,65.0,66.0,90.0,0.0,0.0
4160,58.0,30.0,150.0,3.0,0.0
4161,63.0,32.0,90.0,0.0,0.0
4162,51.0,30.0,150.0,3.0,0.0
4163,68.0,32.0,30.0,0.0,0.0
4164,67.0,32.0,30.0,0.0,0.0
4165,68.0,32.0,30.0,0.0,0.0
4166,67.0,32.0,30.0,0.0,0.0
4167,68.0,2.0,30.0,0.0,0.0
4168,67.0,96.0,30.0,0.0,0.0
4169,65.0,66.0,90.0,0.0,0.0
4170,53.0,30.0,150.0,3.0,0.0
4171,67.0,162.0,90.0,0.0,0.0
4172,55.0,54.0,150.0,3.0,0.0
4173,63.0,0.0,150.0,0.0,0.0
4174,56.0,96.0,90.0,3.0,0.0
4175,72.0,24.0,20.0,0.0,0.0
4176,70.0,48.0,20.0,0.0,0.0
4177,72.0,0.0,150.0,0.0,0.0
4178,55.0,96.0,90.0,3.0,0.0
4179,72.0,30.0,150.0,0.0,0.0
4180,56.0,66.0,90.0,3.0,0.0
4181,51.0,96.0,90.0,3.0,0.0
4182,48.0,66.0,90.0,3.0,0.0
4183,72.0,30.0,150.0,0.0,0.0
4184,51.0,24.0,90.0,3.0,0.0
4185,44.0,16.0,540.0,3.0,0.0
4186,72.0,24.0,20.0,0.0,0.0
4187,70.0,144.0,20.0,0.0,0.0
4188,72.0,96.0,150.0,0.0,0.0
4189,70.0,66.0,90.0,0.0,0.0
4190,48.0,30.0,150.0,2.0,0.0
4191,68.0,96.0,90.0,0.0,0.0
4192,67.0,50.0,90.0,0.0,0.0
4193,50.0,30.0,150.0,2.0,0.0
4194,65.0,162.0,90.0,0.0,0.0
4195,70.0,0.0,150.0,0.0,0.0
4196,51.0,16.0,330.0,2.0,0.0
4197,43.0,126.0,150.0,3.0,0.0
4198,68.0,50.0,90.0,0.0,0.0
4199,44.0,30.0,150.0,3.0,0.0
4200,67.0,96.0,90.0,0.0,0.0
4201,65.0,66.0,90.0,0.0,0.0
4202,50.0,30.0,150.0,2.0,0.0
4203,46.0,0.0,150.0,3.0,0.0
4204,67.0,96.0,90.0,0.0,0.0
4205,65.0,46.0,330.0,0.0,0.0
4206,51.0,96.0,90.0,3.0,0.0
4207,46.0,96.0,90.0,3.0,0.0
4208,43.0,50.0,90.0,3.0,0.0
4209,46.0,162.0,90.0,3.0,0.0
4210,63.0,54.0,150.0,0.0,0.0
4211,39.0,0.0,150.0,3.0,0.0
4212,51.0,96.0,90.0,3.0,0.0
4213,70.0,24.0,20.0,0.0,0.0
4214,68.0,48.0,20.0,0.0,0.0
4215,70.0,96.0,150.0,0.0,0.0
4216,55.0,0.0,90.0,3.0,0.0
4217,70.0,30.0,150.0,0.0,0.0
4218,58.0,66.0,90.0,3.0,0.0
4219,63.0,96.0,90.0,3.0,0.0
4220,53.0,66.0,90.0,3.0,0.0
4221,70.0,30.0,150.0,0.0,0.0
4222,62.0,24.0,90.0,3.0,0.0
4223,55.0,96.0,90.0,3.0,0.0
4224,70.0,24.0,20.0,0.0,0.0
4225,68.0,48.0,20.0,0.0,0.0
4226,70.0,0.0,150.0,0.0,0.0
4227,60.0,96.0,90.0,3.0,0.0
4228,75.0,0.0,90.0,0.0,0.0
4229,51.0,96.0,90.0,3.0,0.0
4230,53.0,96.0,90.0,3.0,0.0
4231,74.0,0.0,90.0,0.0,0.0
4232,75.0,30.0,150.0,0.0,0.0
4233,55.0,66.0,90.0,3.0,0.0
4234,56.0,24.0,90.0,3.0,0.0
4235,67.0,24.0,20.0,0.0,0.0
4236,58.0,30.0,150.0,3.0,0.0
4237,65.0,114.0,20.0,0.0,0.0
4238,67.0,96.0,150.0,0.0,0.0
4239,56.0,30.0,150.0,3.0,0.0
4240,63.0,48.0,90.0,0.0,0.0
4241,65.0,18.0,40.0,0.0,0.0
4242,67.0,96.0,40.0,0.0,0.0
4243,65.0,66.0,90.0,0.0,0.0
4244,58.0,30.0,150.0,3.0,0.0
4245,63.0,32.0,90.0,0.0,0.0
4246,68.0,32.0,30.0,0.0,0.0
4247,51.0,30.0,150.0,3.0,0.0
4248,67.0,32.0,30.0,0.0,0.0
4249,68.0,32.0,30.0,0.0,0.0
4250,67.0,32.0,30.0,0.0,0.0
4251,68.0,2.0,30.0,0.0,0.0
4252,67.0,96.0,30.0,0.0,0.0
4253,53.0,30.0,150.0,3.0,0.0
4254,65.0,66.0,90.0,0.0,0.0
4255,67.0,162.0,90.0,0.0,0.0
4256,63.0,0.0,150.0,0.0,0.0
4257,55.0,54.0,150.0,3.0,0.0
4258,72.0,24.0,20.0,0.0,0.0
4259,56.0,96.0,90.0,3.0,0.0
4260,70.0,48.0,20.0,0.0,0.0
4261,72.0,0.0,150.0,0.0,0.0
4262,55.0,96.0,90.0,3.0,0.0
4263,72.0,30.0,150.0,0.0,0.0
4264,56.0,66.0,90.0,3.0,0.0
4265,51.0,96.0,90.0,3.0,0.0
4266,72.0,30.0,150.0,0.0,0.0
4267,48.0,66.0,90.0,3.0,0.0
4268,51.0,24.0,90.0,3.0,0.0
4269,44.0,16.0,540.0,3.0,0.0
4270,72.0,24.0,20.0,0.0,0.0
4271,70.0,144.0,20.0,0.0,0.0
4272,72.0,96.0,150.0,0.0,0.0
4273,70.0,66.0,90.0,0.0,0.0
4274,48.0,30.0,150.0,2.0,0.0
4275,68.0,96.0,90.0,0.0,0.0
4276,50.0,30.0,150.0,2.0,0.0
4277,67.0,50.0,90.0,0.0,0.0
4278,65.0,162.0,90.0,0.0,0.0
4279,70.0,126.0,150.0,0.0,0.0
4280,51.0,16.0,330.0,2.0,0.0
4281,43.0,0.0,150.0,3.0,0.0
4282,68.0,50.0,90.0,0.0,0.0
4283,44.0,30.0,150.0,3.0,0.0
4284,67.0,96.0,90.0,0.0,0.0
4285,65.0,66.0,90.0,0.0,0.0
4286,50.0,30.0,150.0,2.0,0.0
4287,46.0,0.0,150.0,3.0,0.0
4288,67.0,96.0,90.0,0.0,0.0
4289,65.0,46.0,330.0,0.0,0.0
4290,51.0,96.0,90.0,3.0,0.0
4291,46.0,96.0,90.0,3.0,0.0
4292,43.0,50.0,90.0,3.0,0.0
4293,46.0,162.0,90.0,3.0,0.0
4294,63.0,0.0,150.0,0.0,0.0
4295,39.0,54.0,150.0,3.0,0.0
4296,46.0,96.0,90.0,3.0,0.0
4297,65.0,24.0,20.0,0.0,0.0
4298,63.0,48.0,20.0,0.0,0.0
4299,65.0,96.0,150.0,0.0,0.0
4300,50.0,0.0,90.0,3.0,0.0
4301,53.0,66.0,90.0,3.0,0.0
4302,65.0,30.0,150.0,0.0,0.0
4303,58.0,96.0,90.0,3.0,0.0
4304,65.0,30.0,150.0,0.0,0.0
4305,48.0,66.0,90.0,3.0,0.0
4306,57.0,96.0,90.0,3.0,0.0
4307,65.0,30.0,150.0,0.0,0.0
4308,50.0,66.0,90.0,3.0,0.0
4309,58.0,96.0,90.0,3.0,0.0
4310,50.0,96.0,90.0,3.0,0.0
4311,70.0,0.0,90.0,0.0,0.0
4312,69.0,0.0,90.0,0.0,0.0
4313,48.0,96.0,90.0,3.0,0.0
4314,46.0,66.0,90.0,3.0,0.0
4315,70.0,30.0,150.0,0.0,0.0
4316,48.0,96.0,90.0,3.0,0.0
4317,65.0,30.0,150.0,0.0,0.0
4318,50.0,66.0,90.0,3.0,0.0
4319,53.0,32.0,90.0,3.0,0.0
4320,68.0,32.0,30.0,0.0,0.0
4321,51.0,32.0,90.0,3.0,0.0
4322,67.0,32.0,30.0,0.0,0.0
4323,68.0,0.0,30.0,0.0,0.0
4324,50.0,0.0,90.0,3.0,0.0
4325,67.0,32.0,30.0,0.0,0.0
4326,65.0,32.0,30.0,0.0,0.0
4327,67.0,96.0,30.0,0.0,0.0
4328,48.0,66.0,90.0,3.0,0.0
4329,68.0,30.0,150.0,0.0,0.0
4330,46.0,24.0,90.0,3.0,0.0
4331,51.0,30.0,150.0,3.0,0.0
4332,67.0,24.0,20.0,0.0,0.0
4333,65.0,114.0,20.0,0.0,0.0
4334,67.0,96.0,150.0,0.0,0.0
4335,53.0,30.0,150.0,3.0,0.0
4336,65.0,66.0,90.0,0.0,0.0
4337,67.0,162.0,90.0,0.0,0.0
4338,63.0,54.0,150.0,0.0,0.0
4339,55.0,0.0,150.0,3.0,0.0
4340,48.0,96.0,90.0,3.0,0.0
4341,75.0,24.0,20.0,0.0,0.0
4342,74.0,48.0,20.0,0.0,0.0
4343,75.0,96.0,150.0,0.0,0.0
4344,50.0,0.0,90.0,3.0,0.0
4345,75.0,30.0,150.0,0.0,0.0
4346,51.0,66.0,90.0,3.0,0.0
4347,50.0,96.0,90.0,3.0,0.0
4348,48.0,66.0,90.0,3.0,0.0
4349,75.0,30.0,150.0,0.0,0.0
4350,46.0,96.0,90.0,3.0,0.0
4351,75.0,66.0,90.0,0.0,0.0
4352,45.0,30.0,150.0,3.0,0.0
4353,74.0,96.0,90.0,0.0,0.0
4354,53.0,30.0,150.0,3.0,0.0
4355,72.0,66.0,90.0,0.0,0.0
4356,70.0,96.0,90.0,0.0,0.0
4357,51.0,30.0,150.0,3.0,0.0
4358,69.0,66.0,90.0,0.0,0.0
4359,67.0,162.0,90.0,0.0,0.0
4360,65.0,54.0,150.0,0.0,0.0
4361,50.0,0.0,330.0,3.0,0.0
4362,50.0,46.0,330.0,2.0,0.0
4363,70.0,24.0,20.0,0.0,0.0
4364,68.0,98.0,20.0,0.0,0.0
4365,70.0,32.0,150.0,0.0,0.0
4366,48.0,0.0,150.0,2.0,0.0
4367,70.0,32.0,30.0,0.0,0.0
4368,48.0,30.0,150.0,3.0,0.0
4369,69.0,32.0,30.0,0.0,0.0
4370,70.0,32.0,30.0,0.0,0.0
4371,69.0,32.0,30.0,0.0,0.0
4372,67.0,2.0,30.0,0.0,0.0
4373,69.0,24.0,30.0,0.0,0.0
4374,46.0,96.0,90.0,3.0,0.0
4375,70.0,24.0,20.0,0.0,0.0
4376,69.0,48.0,20.0,0.0,0.0
4377,70.0,16.0,480.0,0.0,0.0
4378,41.0,96.0,90.0,3.0,0.0
4379,38.0,96.0,90.0,3.0,0.0
4380,41.0,146.0,90.0,3.0,0.0
4381,34.0,192.0,150.0,3.0,0.0
4382,36.0,46.0,330.0,3.0,0.0
4383,75.0,54.0,150.0,0.0,0.0
4384,68.0,24.0,20.0,0.0,0.0
4385,67.0,98.0,20.0,0.0,0.0
4386,68.0,162.0,150.0,0.0,0.0
4387,68.0,126.0,150.0,0.0,0.0
4388,68.0,30.0,150.0,0.0,0.0
4389,53.0,66.0,90.0,3.0,0.0
4390,48.0,96.0,90.0,3.0,0.0
4391,44.0,0.0,90.0,3.0,0.0
4392,72.0,96.0,90.0,0.0,0.0
4393,48.0,0.0,90.0,3.0,0.0
4394,70.0,96.0,90.0,0.0,0.0
4395,68.0,30.0,150.0,0.0,0.0
4396,41.0,66.0,90.0,3.0,0.0
4397,44.0,162.0,90.0,3.0,0.0
4398,38.0,46.0,330.0,3.0,0.0
4399,77.0,54.0,150.0,0.0,0.0
4400,68.0,24.0,20.0,0.0,0.0
4401,67.0,98.0,20.0,0.0,0.0
4402,68.0,162.0,150.0,0.0,0.0
4403,68.0,126.0,150.0,0.0,0.0
4404,67.0,0.0,90.0,0.0,0.0
4405,39.0,96.0,90.0,3.0,0.0
4406,43.0,0.0,90.0,3.0,0.0
4407,68.0,96.0,90.0,0.0,0.0
4408,67.0,96.0,90.0,0.0,0.0
4409,46.0,0.0,90.0,3.0,0.0
4410,65.0,96.0,90.0,0.0,0.0
4411,51.0,0.0,90.0,3.0,0.0
4412,44.0,66.0,90.0,3.0,0.0
4413,63.0,30.0,150.0,0.0,0.0
4414,50.0,24.0,90.0,3.0,0.0
4415,43.0,96.0,90.0,3.0,0.0
4416,70.0,24.0,20.0,0.0,0.0
4417,68.0,48.0,20.0,0.0,0.0
4418,70.0,96.0,150.0,0.0,0.0
4419,46.0,0.0,90.0,3.0,0.0
4420,70.0,30.0,150.0,0.0,0.0
4421,50.0,66.0,90.0,3.0,0.0
4422,51.0,96.0,90.0,3.0,0.0
4423,41.0,66.0,90.0,3.0,0.0
4424,70.0,30.0,150.0,0.0,0.0
4425,50.0,96.0,90.0,3.0,0.0
4426,39.0,66.0,90.0,3.0,0.0
4427,70.0,30.0,150.0,0.0,0.0
4428,38.0,96.0,90.0,3.0,0.0
4429,72.0,0.0,90.0,0.0,0.0
4430,39.0,96.0,90.0,3.0,0.0
4431,41.0,96.0,90.0,3.0,0.0
4432,74.0,0.0,90.0,0.0,0.0
4433,75.0,30.0,150.0,0.0,0.0
4434,43.0,66.0,90.0,3.0,0.0
4435,44.0,96.0,90.0,3.0,0.0
4436,67.0,48.0,90.0,0.0,0.0
4437,46.0,16.0,540.0,3.0,0.0
4438,68.0,48.0,40.0,0.0,0.0
4439,70.0,96.0,40.0,0.0,0.0
4440,68.0,66.0,90.0,0.0,0.0
4441,51.0,30.0,150.0,2.0,0.0
4442,67.0,96.0,90.0,0.0,0.0
4443,50.0,30.0,150.0,2.0,0.0
4444,65.0,50.0,90.0,0.0,0.0
4445,67.0,96.0,90.0,0.0,0.0
4446,65.0,46.0,330.0,0.0,0.0
4447,51.0,96.0,90.0,3.0,0.0
4448,46.0,96.0,90.0,3.0,0.0
4449,43.0,50.0,90.0,3.0,0.0
4450,46.0,162.0,90.0,3.0,0.0
4451,63.0,54.0,150.0,0.0,0.0
4452,39.0,0.0,150.0,3.0,0.0
4453,46.0,96.0,90.0,3.0,0.0
4454,65.0,24.0,20.0,0.0,0.0
4455,63.0,48.0,20.0,0.0,0.0
4456,65.0,96.0,150.0,0.0,0.0
4457,50.0,0.0,90.0,3.0,0.0
4458,53.0,66.0,90.0,3.0,0.0
4459,65.0,30.0,150.0,0.0,0.0
4460,58.0,96.0,90.0,3.0,0.0
4461,48.0,66.0,90.0,3.0,0.0
4462,65.0,30.0,150.0,0.0,0.0
4463,57.0,96.0,90.0,3.0,0.0
4464,65.0,30.0,150.0,0.0,0.0
4465,50.0,66.0,90.0,3.0,0.0
4466,58.0,96.0,90.0,3.0,0.0
4467,50.0,0.0,90.0,3.0,0.0
4468,70.0,96.0,90.0,0.0,0.0
4469,69.0,96.0,90.0,0.0,0.0
4470,48.0,0.0,90.0,3.0,0.0
4471,46.0,66.0,90.0,3.0,0.0
4472,70.0,30.0,150.0,0.0,0.0
4473,48.0,96.0,90.0,3.0,0.0
4474,65.0,30.0,150.0,0.0,0.0
4475,50.0,66.0,90.0,3.0,0.0
4476,53.0,32.0,90.0,3.0,0.0
4477,68.0,32.0,30.0,0.0,0.0
4478,51.0,0.0,90.0,3.0,0.0
4479,67.0,32.0,30.0,0.0,0.0
4480,68.0,32.0,30.0,0.0,0.0
4481,67.0,32.0,30.0,0.0,0.0
4482,50.0,0.0,90.0,3.0,0.0
4483,65.0,32.0,30.0,0.0,0.0
4484,67.0,96.0,30.0,0.0,0.0
4485,68.0,30.0,150.0,0.0,0.0
4486,48.0,66.0,90.0,3.0,0.0
4487,46.0,24.0,90.0,3.0,0.0
4488,51.0,30.0,150.0,3.0,0.0
4489,67.0,24.0,20.0,0.0,0.0
4490,65.0,114.0,20.0,0.0,0.0
4491,67.0,96.0,150.0,0.0,0.0
4492,53.0,30.0,150.0,3.0,0.0
4493,65.0,66.0,90.0,0.0,0.0
4494,67.0,162.0,90.0,0.0,0.0
4495,55.0,0.0,150.0,3.0,0.0
4496,63.0,54.0,150.0,0.0,0.0
4497,48.0,96.0,90.0,3.0,0.0
4498,75.0,24.0,20.0,0.0,0.0
4499,74.0,48.0,20.0,0.0,0.0
4500,75.0,96.0,150.0,0.0,0.0
4501,50.0,0.0,90.0,3.0,0.0
4502,51.0,66.0,90.0,3.0,0.0
4503,75.0,30.0,150.0,0.0,0.0
4504,50.0,96.0,90.0,3.0,0.0
4505,75.0,30.0,150.0,0.0,0.0
4506,48.0,66.0,90.0,3.0,0.0
4507,46.0,96.0,90.0,3.0,0.0
4508,45.0,30.0,150.0,3.0,0.0
4509,75.0,66.0,90.0,0.0,0.0
4510,74.0,96.0,90.0,0.0,0.0
4511,72.0,66.0,90.0,0.0,0.0
4512,53.0,30.0,150.0,3.0,0.0
4513,70.0,96.0,90.0,0.0,0.0
4514,51.0,30.0,150.0,3.0,0.0
4515,69.0,66.0,90.0,0.0,0.0
4516,67.0,162.0,90.0,0.0,0.0
4517,50.0,0.0,330.0,2.0,0.0
4518,65.0,54.0,150.0,0.0,0.0
4519,50.0,46.0,330.0,3.0,0.0
4520,70.0,24.0,20.0,0.0,0.0
4521,68.0,98.0,20.0,0.0,0.0
4522,70.0,32.0,150.0,0.0,0.0
4523,48.0,0.0,150.0,2.0,0.0
4524,48.0,30.0,150.0,3.0,0.0
4525,70.0,32.0,30.0,0.0,0.0
4526,69.0,32.0,30.0,0.0,0.0
4527,70.0,32.0,30.0,0.0,0.0
4528,69.0,32.0,30.0,0.0,0.0
4529,67.0,2.0,30.0,0.0,0.0
4530,69.0,24.0,30.0,0.0,0.0
4531,46.0,96.0,90.0,3.0,0.0
4532,70.0,24.0,20.0,0.0,0.0
4533,69.0,48.0,20.0,0.0,0.0
4534,70.0,16.0,480.0,0.0,0.0
4535,41.0,96.0,90.0,3.0,0.0
4536,38.0,96.0,90.0,3.0,0.0
4537,41.0,146.0,90.0,3.0,0.0
4538,34.0,192.0,150.0,3.0,0.0
4539,36.0,46.0,330.0,3.0,0.0
4540,75.0,54.0,150.0,0.0,0.0
4541,68.0,24.0,20.0,0.0,0.0
4542,67.0,98.0,20.0,0.0,0.0
4543,68.0,162.0,150.0,0.0,0.0
4544,68.0,126.0,150.0,0.0,0.0
4545,53.0,66.0,90.0,3.0,0.0
4546,68.0,30.0,150.0,0.0,0.0
4547,48.0,96.0,90.0,3.0,0.0
4548,72.0,96.0,90.0,0.0,0.0
4549,44.0,0.0,90.0,3.0,0.0
4550,48.0,96.0,90.0,3.0,0.0
4551,70.0,0.0,90.0,0.0,0.0
4552,68.0,30.0,150.0,0.0,0.0
4553,41.0,66.0,90.0,3.0,0.0
4554,44.0,162.0,90.0,3.0,0.0
4555,77.0,54.0,150.0,0.0,0.0
4556,38.0,46.0,330.0,3.0,0.0
4557,68.0,24.0,20.0,0.0,0.0
4558,67.0,98.0,20.0,0.0,0.0
4559,68.0,162.0,150.0,0.0,0.0
4560,68.0,126.0,150.0,0.0,0.0
4561,67.0,0.0,90.0,0.0,0.0
4562,39.0,96.0,90.0,3.0,0.0
4563,43.0,0.0,90.0,3.0,0.0
4564,68.0,96.0,90.0,0.0,0.0
4565,67.0,96.0,90.0,0.0,0.0
4566,46.0,0.0,90.0,3.0,0.0
4567,51.0,96.0,90.0,3.0,0.0
4568,65.0,0.0,90.0,0.0,0.0
4569,44.0,66.0,90.0,3.0,0.0
4570,63.0,30.0,150.0,0.0,0.0
4571,50.0,24.0,90.0,3.0,0.0
4572,70.0,24.0,20.0,0.0,0.0
4573,43.0,96.0,90.0,3.0,0.0
4574,68.0,48.0,20.0,0.0,0.0
4575,70.0,96.0,150.0,0.0,0.0
4576,46.0,0.0,90.0,3.0,0.0
4577,50.0,66.0,90.0,3.0,0.0
4578,70.0,30.0,150.0,0.0,0.0
4579,51.0,96.0,90.0,3.0,0.0
4580,70.0,30.0,150.0,0.0,0.0
4581,41.0,66.0,90.0,3.0,0.0
4582,50.0,96.0,90.0,3.0,0.0
4583,39.0,66.0,90.0,3.0,0.0
4584,70.0,30.0,150.0,0.0,0.0
4585,38.0,96.0,90.0,3.0,0.0
4586,39.0,0.0,90.0,3.0,0.0
4587,72.0,96.0,90.0,0.0,0.0
4588,41.0,0.0,90.0,3.0,0.0
4589,74.0,96.0,90.0,0.0,0.0
4590,43.0,66.0,90.0,3.0,0.0
4591,75.0,30.0,150.0,0.0,0.0
4592,44.0,96.0,90.0,3.0,0.0
4593,67.0,48.0,90.0,0.0,0.0
4594,46.0,16.0,540.0,3.0,0.0
4595,68.0,48.0,40.0,0.0,0.0
4596,70.0,96.0,40.0,0.0,0.0
4597,68.0,66.0,90.0,0.0,0.0
4598,51.0,30.0,150.0,2.0,0.0
4599,67.0,96.0,90.0,0.0,0.0
4600,50.0,30.0,150.0,2.0,0.0
4601,65.0,50.0,90.0,0.0,0.0
4602,67.0,96.0,90.0,0.0,0.0
4603,65.0,46.0,330.0,0.0,0.0
4604,51.0,96.0,90.0,3.0,0.0
4605,46.0,96.0,90.0,3.0,0.0
4606,43.0,50.0,90.0,3.0,0.0
4607,46.0,162.0,90.0,3.0,0.0
4608,39.0,510.0,150.0,3.0,0.0
4609,63.0,0.0,150.0,0.0,0.0
4610,67.0,96.0,90.0,0.0,0.0
4611,70.0,32.0,90.0,0.0,0.0
4612,75.0,32.0,30.0,0.0,0.0
4613,74.0,128.0,30.0,0.0,0.0
4614,75.0,30.0,180.0,0.0,0.0
4615,58.0,66.0,90.0,3.0,0.0
4616,55.0,96.0,90.0,3.0,0.0
4617,51.0,48.0,90.0,3.0,0.0
4618,77.0,0.0,90.0,0.0,0.0
4619,50.0,48.0,90.0,3.0,0.0
4620,79.0,48.0,40.0,0.0,0.0
4621,77.0,0.0,40.0,0.0,0.0
4622,56.0,0.0,90.0,3.0,0.0
4623,79.0,48.0,40.0,0.0,0.0
4624,77.0,48.0,40.0,0.0,0.0
4625,79.0,48.0,40.0,0.0,0.0
4626,53.0,0.0,90.0,3.0,0.0
4627,77.0,48.0,40.0,0.0,0.0
4628,75.0,48.0,40.0,0.0,0.0
4629,50.0,96.0,90.0,3.0,0.0
4630,77.0,0.0,40.0,0.0,0.0
4631,51.0,66.0,90.0,3.0,0.0
4632,79.0,30.0,150.0,0.0,0.0
4633,55.0,96.0,90.0,3.0,0.0
4634,51.0,96.0,90.0,3.0,0.0
4635,77.0,0.0,90.0,0.0,0.0
4636,46.0,96.0,90.0,3.0,0.0
4637,79.0,0.0,90.0,0.0,0.0
4638,75.0,30.0,150.0,0.0,0.0
4639,43.0,66.0,90.0,3.0,0.0
4640,46.0,96.0,90.0,3.0,0.0
4641,43.0,96.0,90.0,3.0,0.0
4642,70.0,0.0,90.0,0.0,0.0
4643,39.0,0.0,90.0,3.0,0.0
4644,67.0,96.0,90.0,0.0,0.0
4645,44.0,66.0,90.0,3.0,0.0
4646,72.0,30.0,150.0,0.0,0.0
4647,39.0,96.0,90.0,3.0,0.0
4648,68.0,0.0,90.0,0.0,0.0
4649,48.0,96.0,90.0,3.0,0.0
4650,44.0,0.0,90.0,3.0,0.0
4651,65.0,96.0,90.0,0.0,0.0
4652,46.0,66.0,90.0,3.0,0.0
4653,62.0,30.0,150.0,0.0,0.0
4654,41.0,96.0,90.0,3.0,0.0
4655,50.0,0.0,90.0,3.0,0.0
4656,70.0,96.0,90.0,0.0,0.0
4657,46.0,0.0,90.0,3.0,0.0
4658,65.0,96.0,90.0,0.0,0.0
4659,51.0,30.0,150.0,3.0,0.0
4660,68.0,66.0,90.0,0.0,0.0
4661,67.0,96.0,90.0,0.0,0.0
4662,46.0,30.0,150.0,3.0,0.0
4663,65.0,66.0,90.0,0.0,0.0
4664,67.0,96.0,90.0,0.0,0.0
4665,63.0,66.0,90.0,0.0,0.0
4666,43.0,30.0,150.0,3.0,0.0
4667,65.0,96.0,90.0,0.0,0.0
4668,46.0,30.0,150.0,3.0,0.0
4669,67.0,66.0,90.0,0.0,0.0
4670,70.0,96.0,90.0,0.0,0.0
4671,39.0,96.0,90.0,3.0,0.0
4672,75.0,30.0,270.0,0.0,0.0
4673,58.0,66.0,90.0,3.0,0.0
4674,55.0,96.0,90.0,3.0,0.0
4675,51.0,0.0,90.0,3.0,0.0
4676,77.0,48.0,90.0,0.0,0.0
4677,79.0,48.0,40.0,0.0,0.0
4678,50.0,48.0,90.0,3.0,0.0
4679,77.0,0.0,40.0,0.0,0.0
4680,79.0,48.0,40.0,0.0,0.0
4681,56.0,48.0,90.0,3.0,0.0
4682,77.0,0.0,40.0,0.0,0.0
4683,79.0,48.0,40.0,0.0,0.0
4684,53.0,0.0,90.0,3.0,0.0
4685,77.0,48.0,40.0,0.0,0.0
4686,50.0,0.0,90.0,3.0,0.0
4687,75.0,48.0,40.0,0.0,0.0
4688,77.0,96.0,40.0,0.0,0.0
4689,51.0,66.0,90.0,3.0,0.0
4690,79.0,30.0,150.0,0.0,0.0
4691,55.0,96.0,90.0,3.0,0.0
4692,77.0,0.0,90.0,0.0,0.0
4693,51.0,96.0,90.0,3.0,0.0
4694,79.0,0.0,90.0,0.0,0.0
4695,46.0,96.0,90.0,3.0,0.0
4696,75.0,30.0,150.0,0.0,0.0
4697,43.0,66.0,90.0,3.0,0.0
4698,51.0,96.0,90.0,3.0,0.0
4699,46.0,96.0,90.0,3.0,0.0
4700,77.0,0.0,90.0,0.0,0.0
4701,80.0,96.0,90.0,0.0,0.0
4702,43.0,0.0,90.0,3.0,0.0
4703,39.0,66.0,90.0,3.0,0.0
4704,79.0,30.0,150.0,0.0,0.0
4705,43.0,96.0,90.0,3.0,0.0
4706,45.0,0.0,90.0,3.0,0.0
4707,72.0,96.0,90.0,0.0,0.0
4708,48.0,0.0,90.0,3.0,0.0
4709,75.0,96.0,90.0,0.0,0.0
4710,38.0,66.0,90.0,3.0,0.0
4711,77.0,30.0,150.0,0.0,0.0
4712,41.0,96.0,90.0,3.0,0.0
4713,67.0,66.0,90.0,0.0,0.0
4714,46.0,30.0,150.0,3.0,0.0
4715,70.0,96.0,90.0,0.0,0.0
4716,36.0,66.0,90.0,3.0,0.0
4717,75.0,30.0,150.0,0.0,0.0
4718,39.0,96.0,90.0,3.0,0.0
4719,41.0,96.0,90.0,3.0,0.0
4720,69.0,0.0,90.0,0.0,0.0
4721,45.0,0.0,90.0,3.0,0.0
4722,72.0,96.0,90.0,0.0,0.0
4723,46.0,66.0,90.0,3.0,0.0
4724,74.0,30.0,150.0,0.0,0.0
4725,48.0,96.0,90.0,3.0,0.0
4726,50.0,0.0,90.0,3.0,0.0
4727,70.0,96.0,90.0,0.0,0.0
4728,46.0,50.0,90.0,3.0,0.0
4729,74.0,0.0,90.0,0.0,0.0
4730,79.0,46.0,40.0,0.0,0.0
4731,51.0,96.0,90.0,3.0,0.0
4732,48.0,50.0,90.0,3.0,0.0
4733,77.0,46.0,40.0,0.0,0.0
4734,50.0,96.0,90.0,3.0,0.0
4735,46.0,50.0,90.0,3.0,0.0
4736,53.0,46.0,40.0,3.0,0.0
4737,75.0,96.0,90.0,0.0,0.0
4738,74.0,50.0,90.0,0.0,0.0
4739,41.0,46.0,40.0,3.0,0.0
4740,75.0,96.0,90.0,0.0,0.0
4741,72.0,48.0,90.0,0.0,0.0
4742,46.0,24.0,120.0,3.0,0.0
4743,72.0,48.0,40.0,0.0,0.0
4744,70.0,24.0,40.0,0.0,0.0
4745,72.0,48.0,40.0,0.0,0.0
4746,41.0,96.0,120.0,3.0,0.0
4747,70.0,48.0,40.0,0.0,0.0
4748,72.0,0.0,40.0,0.0,0.0
4749,70.0,16.0,330.0,0.0,0.0
4750,38.0,96.0,90.0,3.0,0.0
4751,41.0,146.0,90.0,3.0,0.0
4752,34.0,126.0,150.0,3.0,0.0
4753,67.0,96.0,90.0,0.0,0.0
4754,70.0,32.0,90.0,0.0,0.0
4755,75.0,32.0,30.0,0.0,0.0
4756,74.0,128.0,30.0,0.0,0.0
4757,75.0,30.0,180.0,0.0,0.0
4758,58.0,66.0,90.0,3.0,0.0
4759,55.0,96.0,90.0,3.0,0.0
4760,77.0,0.0,90.0,0.0,0.0
4761,51.0,48.0,90.0,3.0,0.0
4762,79.0,48.0,40.0,0.0,0.0
4763,50.0,0.0,90.0,3.0,0.0
4764,77.0,48.0,40.0,0.0,0.0
4765,56.0,0.0,90.0,3.0,0.0
4766,79.0,48.0,40.0,0.0,0.0
4767,77.0,48.0,40.0,0.0,0.0
4768,53.0,48.0,90.0,3.0,0.0
4769,79.0,48.0,40.0,0.0,0.0
4770,77.0,0.0,40.0,0.0,0.0
4771,75.0,48.0,40.0,0.0,0.0
4772,50.0,0.0,90.0,3.0,0.0
4773,77.0,96.0,40.0,0.0,0.0
4774,79.0,30.0,150.0,0.0,0.0
4775,51.0,66.0,90.0,3.0,0.0
4776,55.0,96.0,90.0,3.0,0.0
4777,51.0,0.0,90.0,3.0,0.0
4778,77.0,96.0,90.0,0.0,0.0
4779,46.0,96.0,90.0,3.0,0.0
4780,79.0,0.0,90.0,0.0,0.0
4781,75.0,30.0,150.0,0.0,0.0
4782,43.0,66.0,90.0,3.0,0.0
4783,46.0,96.0,90.0,3.0,0.0
4784,43.0,0.0,90.0,3.0,0.0
4785,70.0,96.0,90.0,0.0,0.0
4786,39.0,0.0,90.0,3.0,0.0
4787,67.0,96.0,90.0,0.0,0.0
4788,44.0,66.0,90.0,3.0,0.0
4789,72.0,30.0,150.0,0.0,0.0
4790,39.0,96.0,90.0,3.0,0.0
4791,68.0,0.0,90.0,0.0,0.0
4792,48.0,96.0,90.0,3.0,0.0
4793,65.0,96.0,90.0,0.0,0.0
4794,44.0,0.0,90.0,3.0,0.0
4795,46.0,66.0,90.0,3.0,0.0
4796,62.0,30.0,150.0,0.0,0.0
4797,41.0,96.0,90.0,3.0,0.0
4798,70.0,96.0,90.0,0.0,0.0
4799,50.0,0.0,90.0,3.0,0.0
4800,65.0,0.0,90.0,0.0,0.0
4801,46.0,96.0,90.0,3.0,0.0
4802,51.0,30.0,150.0,3.0,0.0
4803,68.0,66.0,90.0,0.0,0.0
4804,67.0,96.0,90.0,0.0,0.0
4805,46.0,30.0,150.0,3.0,0.0
4806,65.0,66.0,90.0,0.0,0.0
4807,67.0,96.0,90.0,0.0,0.0
4808,63.0,66.0,90.0,0.0,0.0
4809,43.0,30.0,150.0,3.0,0.0
4810,65.0,96.0,90.0,0.0,0.0
4811,67.0,66.0,90.0,0.0,0.0
4812,46.0,30.0,150.0,3.0,0.0
4813,70.0,96.0,90.0,0.0,0.0
4814,39.0,96.0,90.0,3.0,0.0
4815,75.0,30.0,270.0,0.0,0.0
4816,58.0,66.0,90.0,3.0,0.0
4817,55.0,96.0,90.0,3.0,0.0
4818,77.0,0.0,90.0,0.0,0.0
4819,51.0,48.0,90.0,3.0,0.0
4820,50.0,0.0,90.0,3.0,0.0
4821,79.0,48.0,40.0,0.0,0.0
4822,77.0,48.0,40.0,0.0,0.0
4823,56.0,48.0,90.0,3.0,0.0
4824,79.0,48.0,40.0,0.0,0.0
4825,77.0,0.0,40.0,0.0,0.0
4826,53.0,48.0,90.0,3.0,0.0
4827,79.0,48.0,40.0,0.0,0.0
4828,77.0,0.0,40.0,0.0,0.0
4829,50.0,96.0,90.0,3.0,0.0
4830,75.0,48.0,40.0,0.0,0.0
4831,77.0,0.0,40.0,0.0,0.0
4832,79.0,30.0,150.0,0.0,0.0
4833,51.0,66.0,90.0,3.0,0.0
4834,55.0,96.0,90.0,3.0,0.0
4835,51.0,0.0,90.0,3.0,0.0
4836,77.0,96.0,90.0,0.0,0.0
4837,46.0,96.0,90.0,3.0,0.0
4838,79.0,0.0,90.0,0.0,0.0
4839,43.0,66.0,90.0,3.0,0.0
4840,75.0,30.0,150.0,0.0,0.0
4841,51.0,96.0,90.0,3.0,0.0
4842,77.0,96.0,90.0,0.0,0.0
4843,46.0,0.0,90.0,3.0,0.0
4844,43.0,0.0,90.0,3.0,0.0
4845,80.0,96.0,90.0,0.0,0.0
4846,39.0,66.0,90.0,3.0,0.0
4847,79.0,30.0,150.0,0.0,0.0
4848,43.0,96.0,90.0,3.0,0.0
4849,72.0,0.0,90.0,0.0,0.0
4850,45.0,96.0,90.0,3.0,0.0
4851,75.0,96.0,90.0,0.0,0.0
4852,48.0,0.0,90.0,3.0,0.0
4853,38.0,66.0,90.0,3.0,0.0
4854,77.0,30.0,150.0,0.0,0.0
4855,41.0,96.0,90.0,3.0,0.0
4856,67.0,66.0,90.0,0.0,0.0
4857,46.0,30.0,150.0,3.0,0.0
4858,70.0,96.0,90.0,0.0,0.0
4859,36.0,66.0,90.0,3.0,0.0
4860,75.0,30.0,150.0,0.0,0.0
4861,39.0,96.0,90.0,3.0,0.0
4862,69.0,0.0,90.0,0.0,0.0
4863,41.0,96.0,90.0,3.0,0.0
4864,72.0,0.0,90.0,0.0,0.0
4865,45.0,96.0,90.0,3.0,0.0
4866,46.0,66.0,90.0,3.0,0.0
4867,74.0,30.0,150.0,0.0,0.0
4868,48.0,96.0,90.0,3.0,0.0
4869,50.0,0.0,90.0,3.0,0.0
4870,70.0,96.0,90.0,0.0,0.0
4871,46.0,0.0,90.0,3.0,0.0
4872,74.0,50.0,90.0,0.0,0.0
4873,79.0,46.0,40.0,0.0,0.0
4874,51.0,96.0,90.0,3.0,0.0
4875,48.0,50.0,90.0,3.0,0.0
4876,50.0,96.0,90.0,3.0,0.0
4877,77.0,46.0,40.0,0.0,0.0
4878,46.0,50.0,90.0,3.0,0.0
4879,75.0,96.0,90.0,0.0,0.0
4880,53.0,46.0,40.0,3.0,0.0
4881,74.0,50.0,90.0,0.0,0.0
4882,41.0,46.0,40.0,3.0,0.0
4883,75.0,96.0,90.0,0.0,0.0
4884,72.0,48.0,90.0,0.0,0.0
4885,72.0,48.0,40.0,0.0,0.0
4886,46.0,24.0,120.0,3.0,0.0
4887,70.0,24.0,40.0,0.0,0.0
4888,72.0,48.0,40.0,0.0,0.0
4889,41.0,96.0,120.0,3.0,0.0
4890,70.0,48.0,40.0,0.0,0.0
4891,72.0,0.0,40.0,0.0,0.0
4892,70.0,16.0,330.0,0.0,0.0
4893,38.0,96.0,90.0,3.0,0.0
4894,41.0,146.0,90.0,3.0,0.0
4895,34.0,126.0,150.0,3.0,0.0
4896,77.0,96.0,90.0,0.0,0.0
4897,74.0,192.0,90.0,0.0,0.0
4898,70.0,30.0,270.0,0.0,0.0
4899,58.0,66.0,90.0,3.0,0.0
4900,53.0,48.0,90.0,3.0,0.0
4901,50.0,0.0,90.0,3.0,0.0
4902,72.0,48.0,40.0,0.0,0.0
4903,74.0,48.0,40.0,0.0,0.0
4904,75.0,48.0,40.0,0.0,0.0
4905,46.0,0.0,90.0,3.0,0.0
4906,74.0,48.0,40.0,0.0,0.0
4907,53.0,0.0,90.0,3.0,0.0
4908,75.0,48.0,40.0,0.0,0.0
4909,74.0,48.0,40.0,0.0,0.0
4910,50.0,48.0,90.0,3.0,0.0
4911,75.0,48.0,40.0,0.0,0.0
4912,74.0,0.0,40.0,0.0,0.0
4913,72.0,48.0,40.0,0.0,0.0
4914,46.0,96.0,90.0,3.0,0.0
4915,74.0,0.0,40.0,0.0,0.0
4916,43.0,96.0,90.0,3.0,0.0
4917,75.0,46.0,540.0,0.0,0.0
4918,55.0,96.0,90.0,3.0,0.0
4919,51.0,96.0,90.0,3.0,0.0
4920,46.0,96.0,90.0,3.0,0.0
4921,43.0,50.0,90.0,3.0,0.0
4922,46.0,96.0,90.0,3.0,0.0
4923,43.0,0.0,90.0,3.0,0.0
4924,70.0,96.0,90.0,0.0,0.0
4925,39.0,96.0,90.0,3.0,0.0
4926,75.0,0.0,90.0,0.0,0.0
4927,80.0,30.0,150.0,0.0,0.0
4928,41.0,66.0,90.0,3.0,0.0
4929,44.0,96.0,90.0,3.0,0.0
4930,71.0,96.0,90.0,0.0,0.0
4931,41.0,0.0,90.0,3.0,0.0
4932,74.0,96.0,90.0,0.0,0.0
4933,38.0,0.0,90.0,3.0,0.0
4934,79.0,30.0,150.0,0.0,0.0
4935,39.0,66.0,90.0,3.0,0.0
4936,43.0,96.0,90.0,3.0,0.0
4937,72.0,0.0,90.0,0.0,0.0
4938,39.0,96.0,90.0,3.0,0.0
4939,75.0,0.0,90.0,0.0,0.0
4940,36.0,96.0,90.0,3.0,0.0
4941,74.0,66.0,90.0,0.0,0.0
4942,43.0,30.0,150.0,3.0,0.0
4943,72.0,96.0,90.0,0.0,0.0
4944,45.0,30.0,150.0,3.0,0.0
4945,71.0,66.0,90.0,0.0,0.0
4946,69.0,96.0,90.0,0.0,0.0
4947,67.0,30.0,150.0,0.0,0.0
4948,47.0,66.0,90.0,3.0,0.0
4949,50.0,96.0,90.0,3.0,0.0
4950,55.0,96.0,90.0,3.0,0.0
4951,77.0,0.0,90.0,0.0,0.0
4952,47.0,0.0,90.0,3.0,0.0
4953,74.0,96.0,90.0,0.0,0.0
4954,48.0,66.0,90.0,3.0,0.0
4955,67.0,30.0,150.0,0.0,0.0
4956,51.0,96.0,90.0,3.0,0.0
4957,75.0,0.0,90.0,0.0,0.0
4958,55.0,96.0,90.0,3.0,0.0
4959,46.0,0.0,90.0,3.0,0.0
4960,72.0,96.0,90.0,0.0,0.0
4961,45.0,66.0,90.0,3.0,0.0
4962,66.0,30.0,150.0,0.0,0.0
4963,48.0,96.0,90.0,3.0,0.0
4964,75.0,0.0,90.0,0.0,0.0
4965,55.0,96.0,90.0,3.0,0.0
4966,72.0,0.0,90.0,0.0,0.0
4967,45.0,96.0,90.0,3.0,0.0
4968,65.0,30.0,150.0,0.0,0.0
4969,47.0,66.0,90.0,3.0,0.0
4970,50.0,96.0,90.0,3.0,0.0
4971,74.0,96.0,90.0,0.0,0.0
4972,53.0,0.0,90.0,3.0,0.0
4973,56.0,96.0,90.0,3.0,0.0
4974,71.0,0.0,90.0,0.0,0.0
4975,55.0,66.0,90.0,3.0,0.0
4976,64.0,30.0,150.0,0.0,0.0
4977,48.0,96.0,90.0,3.0,0.0
4978,52.0,0.0,90.0,3.0,0.0
4979,73.0,96.0,90.0,0.0,0.0
4980,55.0,50.0,90.0,3.0,0.0
4981,71.0,0.0,90.0,0.0,0.0
4982,56.0,96.0,90.0,3.0,0.0
4983,72.0,46.0,40.0,0.0,0.0
4984,60.0,50.0,90.0,3.0,0.0
4985,74.0,46.0,40.0,0.0,0.0
4986,56.0,96.0,90.0,3.0,0.0
4987,53.0,50.0,90.0,3.0,0.0
4988,67.0,192.0,40.0,0.0,0.0
4989,55.0,0.0,40.0,3.0,0.0
4990,71.0,238.0,40.0,0.0,0.0
4991,43.0,0.0,40.0,3.0,0.0
4992,72.0,16.0,540.0,0.0,0.0
4993,48.0,96.0,90.0,3.0,0.0
4994,43.0,96.0,90.0,3.0,0.0
4995,39.0,96.0,90.0,3.0,0.0
4996,43.0,146.0,90.0,3.0,0.0
4997,36.0,126.0,150.0,3.0,0.0
4998,75.0,96.0,90.0,0.0,0.0
4999,72.0,192.0,90.0,0.0,0.0
5000,67.0,30.0,270.0,0.0,0.0
5001,60.0,66.0,90.0,3.0,0.0
5002,55.0,96.0,90.0,3.0,0.0
5003,51.0,48.0,90.0,3.0,0.0
5004,68.0,0.0,90.0,0.0,0.0
5005,48.0,48.0,90.0,3.0,0.0
5006,70.0,48.0,40.0,0.0,0.0
5007,68.0,0.0,40.0,0.0,0.0
5008,51.0,0.0,90.0,3.0,0.0
5009,70.0,48.0,40.0,0.0,0.0
5010,68.0,48.0,40.0,0.0,0.0
5011,44.0,0.0,90.0,3.0,0.0
5012,70.0,48.0,40.0,0.0,0.0
5013,68.0,48.0,40.0,0.0,0.0
5014,48.0,96.0,90.0,3.0,0.0
5015,67.0,48.0,40.0,0.0,0.0
5016,68.0,0.0,40.0,0.0,0.0
5017,70.0,30.0,150.0,0.0,0.0
5018,43.0,66.0,90.0,3.0,0.0
5019,55.0,96.0,90.0,3.0,0.0
5020,67.0,0.0,90.0,0.0,0.0
5021,51.0,96.0,90.0,3.0,0.0
5022,70.0,0.0,90.0,0.0,0.0
5023,46.0,96.0,90.0,3.0,0.0
5024,43.0,66.0,90.0,3.0,0.0
5025,75.0,30.0,150.0,0.0,0.0
5026,46.0,96.0,90.0,3.0,0.0
5027,79.0,96.0,90.0,0.0,0.0
5028,39.0,0.0,90.0,3.0,0.0
5029,43.0,0.0,90.0,3.0,0.0
5030,75.0,96.0,90.0,0.0,0.0
5031,72.0,30.0,150.0,0.0,0.0
5032,44.0,66.0,90.0,3.0,0.0
5033,48.0,96.0,90.0,3.0,0.0
5034,49.0,30.0,150.0,3.0,0.0
5035,65.0,66.0,90.0,0.0,0.0
5036,68.0,96.0,90.0,0.0,0.0
5037,70.0,30.0,150.0,0.0,0.0
5038,43.0,66.0,90.0,3.0,0.0
5039,46.0,96.0,90.0,3.0,0.0
5040,64.0,66.0,90.0,0.0,0.0
5041,48.0,30.0,150.0,3.0,0.0
5042,67.0,96.0,90.0,0.0,0.0
5043,41.0,66.0,90.0,3.0,0.0
5044,68.0,30.0,150.0,0.0,0.0
5045,44.0,96.0,90.0,3.0,0.0
5046,67.0,0.0,90.0,0.0,0.0
5047,48.0,96.0,90.0,3.0,0.0
5048,68.0,96.0,90.0,0.0,0.0
5049,51.0,0.0,90.0,3.0,0.0
5050,50.0,66.0,90.0,3.0,0.0
5051,65.0,30.0,150.0,0.0,0.0
5052,53.0,96.0,90.0,3.0,0.0
5053,70.0,96.0,90.0,0.0,0.0
5054,50.0,0.0,90.0,3.0,0.0
5055,65.0,96.0,90.0,0.0,0.0
5056,46.0,0.0,90.0,3.0,0.0
5057,51.0,66.0,90.0,3.0,0.0
5058,67.0,30.0,150.0,0.0,0.0
5059,46.0,96.0,90.0,3.0,0.0
5060,43.0,96.0,90.0,3.0,0.0
5061,63.0,0.0,90.0,0.0,0.0
5062,67.0,96.0,90.0,0.0,0.0
5063,46.0,0.0,90.0,3.0,0.0
5064,39.0,66.0,90.0,3.0,0.0
5065,72.0,30.0,150.0,0.0,0.0
5066,43.0,96.0,90.0,3.0,0.0
5067,75.0,96.0,90.0,0.0,0.0
5068,48.0,0.0,90.0,3.0,0.0
5069,67.0,0.0,90.0,0.0,0.0
5070,51.0,96.0,90.0,3.0,0.0
5071,53.0,66.0,90.0,3.0,0.0
5072,68.0,30.0,150.0,0.0,0.0
5073,48.0,96.0,90.0,3.0,0.0
5074,65.0,96.0,90.0,0.0,0.0
5075,44.0,0.0,90.0,3.0,0.0
5076,68.0,96.0,90.0,0.0,0.0
5077,48.0,0.0,90.0,3.0,0.0
5078,74.0,30.0,150.0,0.0,0.0
5079,41.0,66.0,90.0,3.0,0.0
5080,44.0,96.0,90.0,3.0,0.0
5081,77.0,96.0,90.0,0.0,0.0
5082,50.0,0.0,90.0,3.0,0.0
5083,68.0,0.0,90.0,0.0,0.0
5084,53.0,96.0,90.0,3.0,0.0
5085,70.0,30.0,150.0,0.0,0.0
5086,55.0,66.0,90.0,3.0,0.0
5087,51.0,96.0,90.0,3.0,0.0
5088,46.0,0.0,90.0,3.0,0.0
5089,67.0,96.0,90.0,0.0,0.0
5090,70.0,96.0,90.0,0.0,0.0
5091,51.0,0.0,90.0,3.0,0.0
5092,43.0,66.0,90.0,3.0,0.0
5093,75.0,30.0,150.0,0.0,0.0
5094,46.0,96.0,90.0,3.0,0.0
5095,51.0,96.0,90.0,3.0,0.0
5096,79.0,0.0,90.0,0.0,0.0
5097,75.0,96.0,90.0,0.0,0.0
5098,55.0,0.0,90.0,3.0,0.0
5099,58.0,0.0,90.0,3.0,0.0
5100,77.0,96.0,90.0,0.0,0.0
5101,60.0,0.0,90.0,3.0,0.0
5102,75.0,96.0,90.0,0.0,0.0
5103,58.0,0.0,90.0,3.0,0.0
5104,74.0,96.0,90.0,0.0,0.0
5105,56.0,0.0,90.0,3.0,0.0
5106,72.0,96.0,90.0,0.0,0.0
5107,55.0,66.0,90.0,3.0,0.0
5108,70.0,30.0,150.0,0.0,0.0
5109,58.0,96.0,90.0,3.0,0.0
5110,75.0,0.0,90.0,0.0,0.0
5111,55.0,96.0,90.0,3.0,0.0
5112,70.0,96.0,90.0,0.0,0.0
5113,51.0,0.0,90.0,3.0,0.0
5114,72.0,30.0,150.0,0.0,0.0
5115,44.0,66.0,90.0,3.0,0.0
5116,48.0,96.0,90.0,3.0,0.0
5117,65.0,0.0,90.0,0.0,0.0
5118,50.0,96.0,90.0,3.0,0.0
5119,68.0,0.0,90.0,0.0,0.0
5120,53.0,96.0,90.0,3.0,0.0
5121,70.0,30.0,150.0,0.0,0.0
5122,43.0,66.0,90.0,3.0,0.0
5123,46.0,96.0,90.0,3.0,0.0
5124,51.0,30.0,150.0,3.0,0.0
5125,60.0,66.0,90.0,0.0,0.0
5126,63.0,96.0,90.0,0.0,0.0
5127,68.0,30.0,150.0,0.0,0.0
5128,41.0,66.0,90.0,3.0,0.0
5129,44.0,96.0,90.0,3.0,0.0
5130,62.0,0.0,90.0,0.0,0.0
5131,46.0,96.0,90.0,3.0,0.0
5132,65.0,96.0,90.0,0.0,0.0
5133,50.0,0.0,90.0,3.0,0.0
5134,67.0,30.0,150.0,0.0,0.0
5135,51.0,66.0,90.0,3.0,0.0
5136,46.0,96.0,90.0,3.0,0.0
5137,63.0,0.0,90.0,0.0,0.0
5138,43.0,96.0,90.0,3.0,0.0
5139,67.0,96.0,90.0,0.0,0.0
5140,46.0,0.0,90.0,3.0,0.0
5141,70.0,96.0,90.0,0.0,0.0
5142,51.0,0.0,90.0,3.0,0.0
5143,46.0,0.0,90.0,3.0,0.0
5144,67.0,96.0,90.0,0.0,0.0
5145,75.0,30.0,150.0,0.0,0.0
5146,43.0,66.0,90.0,3.0,0.0
5147,39.0,32.0,90.0,3.0,0.0
5148,68.0,18.0,30.0,0.0,0.0
5149,46.0,14.0,40.0,3.0,0.0
5150,67.0,32.0,30.0,0.0,0.0
5151,68.0,96.0,30.0,0.0,0.0
5152,67.0,50.0,90.0,0.0,0.0
5153,65.0,96.0,90.0,0.0,0.0
5154,34.0,46.0,40.0,3.0,0.0
5155,63.0,530.0,90.0,0.0,0.0
5156,63.0,142.0,540.0,0.0,0.0
5157,39.0,0.0,540.0,3.0,0.0
5158,77.0,96.0,90.0,0.0,0.0
5159,74.0,192.0,90.0,0.0,0.0
5160,70.0,30.0,270.0,0.0,0.0
5161,58.0,66.0,90.0,3.0,0.0
5162,53.0,48.0,90.0,3.0,0.0
5163,72.0,48.0,40.0,0.0,0.0
5164,50.0,48.0,90.0,3.0,0.0
5165,74.0,0.0,40.0,0.0,0.0
5166,46.0,48.0,90.0,3.0,0.0
5167,75.0,48.0,40.0,0.0,0.0
5168,74.0,0.0,40.0,0.0,0.0
5169,75.0,48.0,40.0,0.0,0.0
5170,53.0,0.0,90.0,3.0,0.0
5171,74.0,48.0,40.0,0.0,0.0
5172,50.0,0.0,90.0,3.0,0.0
5173,75.0,48.0,40.0,0.0,0.0
5174,74.0,48.0,40.0,0.0,0.0
5175,46.0,0.0,90.0,3.0,0.0
5176,72.0,48.0,40.0,0.0,0.0
5177,74.0,96.0,40.0,0.0,0.0
5178,43.0,96.0,90.0,3.0,0.0
5179,75.0,46.0,540.0,0.0,0.0
5180,55.0,96.0,90.0,3.0,0.0
5181,51.0,96.0,90.0,3.0,0.0
5182,46.0,96.0,90.0,3.0,0.0
5183,43.0,50.0,90.0,3.0,0.0
5184,46.0,96.0,90.0,3.0,0.0
5185,70.0,96.0,90.0,0.0,0.0
5186,43.0,0.0,90.0,3.0,0.0
5187,39.0,0.0,90.0,3.0,0.0
5188,75.0,96.0,90.0,0.0,0.0
5189,80.0,30.0,150.0,0.0,0.0
5190,41.0,66.0,90.0,3.0,0.0
5191,44.0,96.0,90.0,3.0,0.0
5192,41.0,0.0,90.0,3.0,0.0
5193,71.0,96.0,90.0,0.0,0.0
5194,38.0,96.0,90.0,3.0,0.0
5195,74.0,0.0,90.0,0.0,0.0
5196,79.0,30.0,150.0,0.0,0.0
5197,39.0,66.0,90.0,3.0,0.0
5198,43.0,96.0,90.0,3.0,0.0
5199,72.0,0.0,90.0,0.0,0.0
5200,39.0,96.0,90.0,3.0,0.0
5201,75.0,0.0,90.0,0.0,0.0
5202,36.0,96.0,90.0,3.0,0.0
5203,74.0,66.0,90.0,0.0,0.0
5204,43.0,30.0,150.0,3.0,0.0
5205,72.0,96.0,90.0,0.0,0.0
5206,71.0,66.0,90.0,0.0,0.0
5207,45.0,30.0,150.0,3.0,0.0
5208,69.0,96.0,90.0,0.0,0.0
5209,67.0,30.0,150.0,0.0,0.0
5210,47.0,66.0,90.0,3.0,0.0
5211,50.0,96.0,90.0,3.0,0.0
5212,77.0,96.0,90.0,0.0,0.0
5213,55.0,0.0,90.0,3.0,0.0
5214,74.0,96.0,90.0,0.0,0.0
5215,47.0,0.0,90.0,3.0,0.0
5216,48.0,66.0,90.0,3.0,0.0
5217,67.0,30.0,150.0,0.0,0.0
5218,51.0,96.0,90.0,3.0,0.0
5219,55.0,0.0,90.0,3.0,0.0
5220,75.0,96.0,90.0,0.0,0.0
5221,46.0,96.0,90.0,3.0,0.0
5222,72.0,0.0,90.0,0.0,0.0
5223,66.0,30.0,150.0,0.0,0.0
5224,45.0,66.0,90.0,3.0,0.0
5225,48.0,96.0,90.0,3.0,0.0
5226,75.0,96.0,90.0,0.0,0.0
5227,55.0,0.0,90.0,3.0,0.0
5228,45.0,0.0,90.0,3.0,0.0
5229,72.0,96.0,90.0,0.0,0.0
5230,65.0,30.0,150.0,0.0,0.0
5231,47.0,66.0,90.0,3.0,0.0
5232,50.0,96.0,90.0,3.0,0.0
5233,53.0,96.0,90.0,3.0,0.0
5234,74.0,0.0,90.0,0.0,0.0
5235,71.0,0.0,90.0,0.0,0.0
5236,56.0,96.0,90.0,3.0,0.0
5237,64.0,30.0,150.0,0.0,0.0
5238,55.0,66.0,90.0,3.0,0.0
5239,48.0,96.0,90.0,3.0,0.0
5240,73.0,0.0,90.0,0.0,0.0
5241,52.0,96.0,90.0,3.0,0.0
5242,55.0,0.0,90.0,3.0,0.0
5243,71.0,50.0,90.0,0.0,0.0
5244,56.0,96.0,90.0,3.0,0.0
5245,72.0,46.0,40.0,0.0,0.0
5246,60.0,50.0,90.0,3.0,0.0
5247,56.0,96.0,90.0,3.0,0.0
5248,74.0,46.0,40.0,0.0,0.0
5249,53.0,50.0,90.0,3.0,0.0
5250,55.0,0.0,40.0,3.0,0.0
5251,67.0,192.0,40.0,0.0,0.0
5252,43.0,0.0,40.0,3.0,0.0
5253,71.0,238.0,40.0,0.0,0.0
5254,48.0,96.0,90.0,3.0,0.0
5255,72.0,16.0,540.0,0.0,0.0
5256,43.0,96.0,90.0,3.0,0.0
5257,39.0,96.0,90.0,3.0,0.0
5258,43.0,146.0,90.0,3.0,0.0
5259,36.0,126.0,150.0,3.0,0.0
5260,75.0,96.0,90.0,0.0,0.0
5261,72.0,192.0,90.0,0.0,0.0
5262,67.0,30.0,270.0,0.0,0.0
5263,60.0,66.0,90.0,3.0,0.0
5264,55.0,96.0,90.0,3.0,0.0
5265,68.0,0.0,90.0,0.0,0.0
5266,51.0,48.0,90.0,3.0,0.0
5267,70.0,48.0,40.0,0.0,0.0
5268,48.0,48.0,90.0,3.0,0.0
5269,68.0,0.0,40.0,0.0,0.0
5270,51.0,48.0,90.0,3.0,0.0
5271,70.0,48.0,40.0,0.0,0.0
5272,68.0,0.0,40.0,0.0,0.0
5273,70.0,48.0,40.0,0.0,0.0
5274,44.0,48.0,90.0,3.0,0.0
5275,68.0,0.0,40.0,0.0,0.0
5276,48.0,96.0,90.0,3.0,0.0
5277,67.0,48.0,40.0,0.0,0.0
5278,68.0,0.0,40.0,0.0,0.0
5279,70.0,30.0,150.0,0.0,0.0
5280,43.0,66.0,90.0,3.0,0.0
5281,55.0,96.0,90.0,3.0,0.0
5282,51.0,0.0,90.0,3.0,0.0
5283,67.0,96.0,90.0,0.0,0.0
5284,46.0,96.0,90.0,3.0,0.0
5285,70.0,0.0,90.0,0.0,0.0
5286,75.0,30.0,150.0,0.0,0.0
5287,43.0,66.0,90.0,3.0,0.0
5288,46.0,96.0,90.0,3.0,0.0
5289,39.0,96.0,90.0,3.0,0.0
5290,79.0,0.0,90.0,0.0,0.0
5291,75.0,0.0,90.0,0.0,0.0
5292,43.0,96.0,90.0,3.0,0.0
5293,44.0,66.0,90.0,3.0,0.0
5294,72.0,30.0,150.0,0.0,0.0
5295,48.0,96.0,90.0,3.0,0.0
5296,49.0,30.0,150.0,3.0,0.0
5297,65.0,66.0,90.0,0.0,0.0
5298,68.0,96.0,90.0,0.0,0.0
5299,70.0,30.0,150.0,0.0,0.0
5300,43.0,66.0,90.0,3.0,0.0
5301,46.0,96.0,90.0,3.0,0.0
5302,64.0,66.0,90.0,0.0,0.0
5303,48.0,30.0,150.0,3.0,0.0
5304,67.0,96.0,90.0,0.0,0.0
5305,68.0,30.0,150.0,0.0,0.0
5306,41.0,66.0,90.0,3.0,0.0
5307,44.0,96.0,90.0,3.0,0.0
5308,67.0,96.0,90.0,0.0,0.0
5309,48.0,0.0,90.0,3.0,0.0
5310,68.0,0.0,90.0,0.0,0.0
5311,51.0,96.0,90.0,3.0,0.0
5312,65.0,30.0,150.0,0.0,0.0
5313,50.0,66.0,90.0,3.0,0.0
5314,53.0,96.0,90.0,3.0,0.0
5315,50.0,96.0,90.0,3.0,0.0
5316,70.0,0.0,90.0,0.0,0.0
5317,65.0,0.0,90.0,0.0,0.0
5318,46.0,96.0,90.0,3.0,0.0
5319,51.0,66.0,90.0,3.0,0.0
5320,67.0,30.0,150.0,0.0,0.0
5321,46.0,96.0,90.0,3.0,0.0
5322,63.0,0.0,90.0,0.0,0.0
5323,43.0,96.0,90.0,3.0,0.0
5324,67.0,0.0,90.0,0.0,0.0
5325,46.0,96.0,90.0,3.0,0.0
5326,72.0,30.0,150.0,0.0,0.0
5327,39.0,66.0,90.0,3.0,0.0
5328,43.0,96.0,90.0,3.0,0.0
5329,75.0,96.0,90.0,0.0,0.0
5330,48.0,0.0,90.0,3.0,0.0
5331,67.0,0.0,90.0,0.0,0.0
5332,51.0,96.0,90.0,3.0,0.0
5333,68.0,30.0,150.0,0.0,0.0
5334,53.0,66.0,90.0,3.0,0.0
5335,48.0,96.0,90.0,3.0,0.0
5336,65.0,0.0,90.0,0.0,0.0
5337,44.0,96.0,90.0,3.0,0.0
5338,68.0,96.0,90.0,0.0,0.0
5339,48.0,0.0,90.0,3.0,0.0
5340,74.0,30.0,150.0,0.0,0.0
5341,41.0,66.0,90.0,3.0,0.0
5342,44.0,96.0,90.0,3.0,0.0
5343,77.0,0.0,90.0,0.0,0.0
5344,50.0,96.0,90.0,3.0,0.0
5345,53.0,0.0,90.0,3.0,0.0
5346,68.0,96.0,90.0,0.0,0.0
5347,55.0,66.0,90.0,3.0,0.0
5348,70.0,30.0,150.0,0.0,0.0
5349,51.0,96.0,90.0,3.0,0.0
5350,46.0,96.0,90.0,3.0,0.0
5351,67.0,0.0,90.0,0.0,0.0
5352,70.0,96.0,90.0,0.0,0.0
5353,51.0,0.0,90.0,3.0,0.0
5354,75.0,30.0,150.0,0.0,0.0
5355,43.0,66.0,90.0,3.0,0.0
5356,46.0,96.0,90.0,3.0,0.0
5357,51.0,96.0,90.0,3.0,0.0
5358,79.0,0.0,90.0,0.0,0.0
5359,55.0,0.0,90.0,3.0,0.0
5360,75.0,96.0,90.0,0.0,0.0
5361,58.0,96.0,90.0,3.0,0.0
5362,77.0,0.0,90.0,0.0,0.0
5363,60.0,0.0,90.0,3.0,0.0
5364,75.0,96.0,90.0,0.0,0.0
5365,58.0,96.0,90.0,3.0,0.0
5366,74.0,0.0,90.0,0.0,0.0
5367,72.0,96.0,90.0,0.0,0.0
5368,56.0,0.0,90.0,3.0,0.0
5369,55.0,66.0,90.0,3.0,0.0
5370,70.0,30.0,150.0,0.0,0.0
5371,58.0,96.0,90.0,3.0,0.0
5372,75.0,96.0,90.0,0.0,0.0
5373,55.0,0.0,90.0,3.0,0.0
5374,51.0,0.0,90.0,3.0,0.0
5375,70.0,96.0,90.0,0.0,0.0
5376,44.0,66.0,90.0,3.0,0.0
5377,72.0,30.0,150.0,0.0,0.0
5378,48.0,96.0,90.0,3.0,0.0
5379,50.0,0.0,90.0,3.0,0.0
5380,65.0,96.0,90.0,0.0,0.0
5381,53.0,0.0,90.0,3.0,0.0
5382,68.0,96.0,90.0,0.0,0.0
5383,43.0,66.0,90.0,3.0,0.0
5384,70.0,30.0,150.0,0.0,0.0
5385,46.0,96.0,90.0,3.0,0.0
5386,60.0,66.0,90.0,0.0,0.0
5387,51.0,30.0,150.0,3.0,0.0
5388,63.0,96.0,90.0,0.0,0.0
5389,68.0,30.0,150.0,0.0,0.0
5390,41.0,66.0,90.0,3.0,0.0
5391,44.0,96.0,90.0,3.0,0.0
5392,62.0,96.0,90.0,0.0,0.0
5393,46.0,0.0,90.0,3.0,0.0
5394,65.0,96.0,90.0,0.0,0.0
5395,50.0,0.0,90.0,3.0,0.0
5396,51.0,66.0,90.0,3.0,0.0
5397,67.0,30.0,150.0,0.0,0.0
5398,46.0,96.0,90.0,3.0,0.0
5399,63.0,0.0,90.0,0.0,0.0
5400,43.0,96.0,90.0,3.0,0.0
5401,67.0,96.0,90.0,0.0,0.0
5402,46.0,0.0,90.0,3.0,0.0
5403,51.0,0.0,90.0,3.0,0.0
5404,70.0,96.0,90.0,0.0,0.0
5405,46.0,96.0,90.0,3.0,0.0
5406,67.0,0.0,90.0,0.0,0.0
5407,75.0,30.0,150.0,0.0,0.0
5408,43.0,66.0,90.0,3.0,0.0
5409,39.0,32.0,90.0,3.0,0.0
5410,46.0,14.0,40.0,3.0,0.0
5411,68.0,18.0,30.0,0.0,0.0
5412,67.0,32.0,30.0,0.0,0.0
5413,68.0,96.0,30.0,0.0,0.0
5414,67.0,50.0,90.0,0.0,0.0
5415,65.0,96.0,90.0,0.0,0.0
5416,34.0,46.0,40.0,3.0,0.0
5417,63.0,530.0,90.0,0.0,0.0
5418,63.0,526.0,540.0,0.0,0.0
5419,39.0,0.0,540.0,3.0,0.0
5420,70.0,162.0,90.0,0.0,0.0
5421,67.0,126.0,150.0,0.0,0.0
5422,65.0,288.0,90.0,0.0,0.0
5423,63.0,0.0,750.0,0.0,0.0
5424,58.0,162.0,90.0,3.0,0.0
5425,55.0,126.0,150.0,3.0,0.0
5426,53.0,162.0,90.0,3.0,0.0
5427,51.0,126.0,150.0,3.0,0.0
5428,65.0,0.0,90.0,0.0,0.0
5429,50.0,48.0,90.0,3.0,0.0
5430,51.0,48.0,40.0,2.0,0.0
5431,67.0,30.0,150.0,0.0,0.0
5432,55.0,48.0,40.0,2.0,0.0
5433,58.0,18.0,40.0,1.0,0.0
5434,63.0,384.0,40.0,1.0,0.0
5435,62.0,0.0,840.0,1.0,0.0
5436,65.0,126.0,840.0,0.0,0.0
5437,41.0,162.0,90.0,3.0,0.0
5438,38.0,126.0,150.0,3.0,0.0
5439,36.0,162.0,90.0,3.0,0.0
5440,34.0,0.0,150.0,3.0,0.0
5441,67.0,0.0,90.0,0.0,0.0
5442,46.0,162.0,90.0,3.0,0.0
5443,63.0,0.0,90.0,1.0,0.0
5444,68.0,192.0,150.0,0.0,0.0
5445,44.0,0.0,150.0,3.0,0.0
5446,65.0,96.0,360.0,1.0,0.0
5447,43.0,0.0,150.0,3.0,0.0
5448,70.0,96.0,270.0,0.0,0.0
5449,48.0,30.0,150.0,3.0,0.0
5450,63.0,30.0,540.0,1.0,0.0
5451,75.0,162.0,90.0,0.0,0.0
5452,72.0,0.0,150.0,0.0,0.0
5453,44.0,54.0,150.0,3.0,0.0
5454,70.0,24.0,20.0,0.0,0.0
5455,41.0,24.0,40.0,3.0,0.0
5456,68.0,0.0,20.0,0.0,0.0
5457,70.0,24.0,20.0,0.0,0.0
5458,44.0,48.0,40.0,3.0,0.0
5459,68.0,66.0,210.0,0.0,0.0
5460,43.0,18.0,40.0,3.0,0.0
5461,41.0,96.0,40.0,3.0,0.0
5462,46.0,30.0,150.0,3.0,0.0
5463,62.0,16.0,330.0,1.0,0.0
5464,67.0,48.0,90.0,0.0,0.0
5465,68.0,48.0,40.0,0.0,0.0
5466,34.0,30.0,150.0,3.0,0.0
5467,65.0,50.0,40.0,0.0,0.0
5468,67.0,48.0,90.0,0.0,0.0
5469,68.0,48.0,40.0,0.0,0.0
5470,39.0,144.0,240.0,3.0,0.0
5471,63.0,192.0,630.0,1.0,0.0
5472,67.0,48.0,40.0,0.0,0.0
5473,68.0,48.0,40.0,0.0,0.0
5474,67.0,48.0,40.0,0.0,0.0
5475,68.0,0.0,40.0,0.0,0.0
5476,43.0,30.0,150.0,3.0,0.0
5477,67.0,18.0,150.0,0.0,0.0
5478,65.0,162.0,40.0,0.0,0.0
5479,46.0,0.0,150.0,3.0,0.0
5480,63.0,30.0,150.0,0.0,0.0
5481,55.0,96.0,180.0,1.0,0.0
5482,51.0,46.0,330.0,3.0,0.0
5483,58.0,0.0,180.0,1.0,0.0
5484,63.0,50.0,240.0,0.0,0.0
5485,67.0,162.0,90.0,0.0,0.0
5486,70.0,54.0,150.0,0.0,0.0
5487,75.0,24.0,20.0,0.0,0.0
5488,74.0,48.0,20.0,0.0,0.0
5489,75.0,0.0,240.0,0.0,0.0
5490,39.0,48.0,40.0,3.0,0.0
5491,41.0,48.0,40.0,3.0,0.0
5492,43.0,48.0,40.0,3.0,0.0
5493,44.0,48.0,40.0,3.0,0.0
5494,46.0,48.0,40.0,3.0,0.0
5495,48.0,48.0,40.0,3.0,0.0
5496,77.0,48.0,90.0,0.0,0.0
5497,50.0,0.0,40.0,3.0,0.0
5498,51.0,48.0,40.0,3.0,0.0
5499,79.0,30.0,150.0,0.0,0.0
5500,55.0,48.0,40.0,3.0,0.0
5501,53.0,18.0,40.0,3.0,0.0
5502,51.0,96.0,40.0,3.0,0.0
5503,51.0,48.0,240.0,3.0,0.0
5504,60.0,0.0,330.0,2.0,0.0
5505,70.0,144.0,90.0,0.0,0.0
5506,65.0,46.0,330.0,1.0,0.0
5507,69.0,0.0,180.0,0.0,0.0
5508,55.0,48.0,40.0,3.0,0.0
5509,72.0,0.0,90.0,0.0,0.0
5510,53.0,2.0,40.0,3.0,0.0
5511,51.0,48.0,40.0,3.0,0.0
5512,50.0,48.0,40.0,3.0,0.0
5513,77.0,30.0,150.0,0.0,0.0
5514,51.0,66.0,40.0,3.0,0.0
5515,48.0,48.0,90.0,3.0,0.0
5516,50.0,30.0,150.0,3.0,0.0
5517,71.0,48.0,40.0,0.0,0.0
5518,72.0,48.0,40.0,0.0,0.0
5519,74.0,18.0,40.0,0.0,0.0
5520,75.0,48.0,40.0,0.0,0.0
5521,47.0,30.0,150.0,3.0,0.0
5522,77.0,48.0,40.0,0.0,0.0
5523,80.0,48.0,40.0,0.0,0.0
5524,79.0,18.0,40.0,0.0,0.0
5525,77.0,48.0,40.0,0.0,0.0
5526,75.0,48.0,40.0,0.0,0.0
5527,43.0,30.0,150.0,3.0,0.0
5528,77.0,66.0,40.0,0.0,0.0
5529,74.0,96.0,90.0,0.0,0.0
5530,75.0,30.0,840.0,0.0,0.0
5531,48.0,48.0,40.0,3.0,0.0
5532,51.0,48.0,40.0,3.0,0.0
5533,50.0,48.0,40.0,3.0,0.0
5534,48.0,48.0,40.0,3.0,0.0
5535,46.0,48.0,40.0,3.0,0.0
5536,45.0,48.0,40.0,3.0,0.0
5537,72.0,48.0,90.0,1.0,0.0
5538,46.0,0.0,40.0,3.0,0.0
5539,48.0,48.0,40.0,3.0,0.0
5540,69.0,30.0,150.0,1.0,0.0
5541,45.0,48.0,40.0,3.0,0.0
5542,46.0,18.0,40.0,3.0,0.0
5543,48.0,96.0,40.0,3.0,0.0
5544,38.0,16.0,540.0,3.0,0.0
5545,67.0,96.0,90.0,1.0,0.0
5546,65.0,0.0,420.0,1.0,0.0
5547,41.0,66.0,90.0,2.0,0.0
5548,43.0,96.0,90.0,2.0,0.0
5549,45.0,0.0,90.0,2.0,0.0
5550,72.0,96.0,90.0,0.0,0.0
5551,74.0,30.0,150.0,0.0,0.0
5552,46.0,50.0,90.0,2.0,0.0
5553,48.0,50.0,90.0,2.0,0.0
5554,63.0,0.0,40.0,1.0,0.0
5555,65.0,192.0,40.0,0.0,0.0
5556,50.0,0.0,40.0,2.0,0.0
5557,67.0,192.0,40.0,0.0,0.0
5558,62.0,0.0,40.0,1.0,0.0
5559,39.0,0.0,40.0,2.0,0.0
5560,60.0,0.0,40.0,1.0,0.0
5561,41.0,400.0,40.0,2.0,0.0
5562,69.0,0.0,40.0,0.0,0.0
5563,62.0,0.0,840.0,1.0,0.0
5564,46.0,126.0,270.0,2.0,0.0
5565,65.0,0.0,810.0,1.0,0.0
5566,70.0,0.0,810.0,0.0,0.0
5567,41.0,162.0,90.0,2.0,0.0
5568,38.0,288.0,150.0,2.0,0.0
5569,34.0,126.0,270.0,2.0,0.0
5570,70.0,162.0,90.0,0.0,0.0
5571,67.0,126.0,150.0,0.0,0.0
5572,65.0,288.0,90.0,0.0,0.0
5573,63.0,0.0,750.0,0.0,0.0
5574,58.0,162.0,90.0,3.0,0.0
5575,55.0,126.0,150.0,3.0,0.0
5576,53.0,162.0,90.0,3.0,0.0
5577,51.0,126.0,150.0,3.0,0.0
5578,50.0,0.0,90.0,3.0,0.0
5579,65.0,48.0,90.0,0.0,0.0
5580,51.0,48.0,40.0,2.0,0.0
5581,67.0,30.0,150.0,0.0,0.0
5582,55.0,48.0,40.0,2.0,0.0
5583,58.0,18.0,40.0,1.0,0.0
5584,63.0,384.0,40.0,1.0,0.0
5585,62.0,0.0,840.0,1.0,0.0
5586,65.0,0.0,840.0,0.0,0.0
5587,41.0,162.0,90.0,3.0,0.0
5588,38.0,126.0,150.0,3.0,0.0
5589,36.0,162.0,90.0,3.0,0.0
5590,34.0,126.0,150.0,3.0,0.0
5591,46.0,0.0,90.0,3.0,0.0
5592,67.0,0.0,90.0,0.0,0.0
5593,63.0,162.0,90.0,1.0,0.0
5594,65.0,96.0,360.0,1.0,0.0
5595,44.0,0.0,150.0,3.0,0.0
5596,68.0,192.0,150.0,0.0,0.0
5597,43.0,0.0,150.0,3.0,0.0
5598,70.0,96.0,270.0,0.0,0.0
5599,63.0,30.0,540.0,1.0,0.0
5600,48.0,30.0,150.0,3.0,0.0
5601,75.0,162.0,90.0,0.0,0.0
5602,72.0,0.0,150.0,0.0,0.0
5603,44.0,54.0,150.0,3.0,0.0
5604,41.0,0.0,40.0,3.0,0.0
5605,70.0,24.0,20.0,0.0,0.0
5606,68.0,24.0,20.0,0.0,0.0
5607,44.0,48.0,40.0,3.0,0.0
5608,70.0,24.0,20.0,0.0,0.0
5609,68.0,66.0,210.0,0.0,0.0
5610,43.0,18.0,40.0,3.0,0.0
5611,41.0,96.0,40.0,3.0,0.0
5612,46.0,30.0,150.0,3.0,0.0
5613,62.0,16.0,330.0,1.0,0.0
5614,67.0,48.0,90.0,0.0,0.0
5615,68.0,48.0,40.0,0.0,0.0
5616,34.0,30.0,150.0,3.0,0.0
5617,65.0,50.0,40.0,0.0,0.0
5618,67.0,48.0,90.0,0.0,0.0
5619,39.0,0.0,240.0,3.0,0.0
5620,68.0,48.0,40.0,0.0,0.0
5621,63.0,192.0,630.0,1.0,0.0
5622,67.0,48.0,40.0,0.0,0.0
5623,68.0,48.0,40.0,0.0,0.0
5624,67.0,48.0,40.0,0.0,0.0
5625,68.0,144.0,40.0,0.0,0.0
5626,43.0,30.0,150.0,3.0,0.0
5627,67.0,18.0,150.0,0.0,0.0
5628,65.0,162.0,40.0,0.0,0.0
5629,63.0,0.0,150.0,0.0,0.0
5630,46.0,30.0,150.0,3.0,0.0
5631,55.0,96.0,180.0,1.0,0.0
5632,51.0,46.0,330.0,3.0,0.0
5633,58.0,0.0,180.0,1.0,0.0
5634,63.0,50.0,240.0,0.0,0.0
5635,67.0,162.0,90.0,0.0,0.0
5636,70.0,54.0,150.0,0.0,0.0
5637,75.0,24.0,20.0,0.0,0.0
5638,74.0,48.0,20.0,0.0,0.0
5639,39.0,48.0,40.0,3.0,0.0
5640,75.0,48.0,240.0,0.0,0.0
5641,41.0,48.0,40.0,3.0,0.0
5642,43.0,48.0,40.0,3.0,0.0
5643,44.0,48.0,40.0,3.0,0.0
5644,46.0,0.0,40.0,3.0,0.0
5645,48.0,48.0,40.0,3.0,0.0
5646,77.0,48.0,90.0,0.0,0.0
5647,50.0,0.0,40.0,3.0,0.0
5648,79.0,30.0,150.0,0.0,0.0
5649,51.0,48.0,40.0,3.0,0.0
5650,55.0,48.0,40.0,3.0,0.0
5651,53.0,18.0,40.0,3.0,0.0
5652,51.0,96.0,40.0,3.0,0.0
5653,51.0,48.0,240.0,3.0,0.0
5654,70.0,144.0,90.0,0.0,0.0
5655,60.0,46.0,330.0,2.0,0.0
5656,65.0,0.0,330.0,1.0,0.0
5657,69.0,48.0,180.0,0.0,0.0
5658,55.0,0.0,40.0,3.0,0.0
5659,53.0,2.0,40.0,3.0,0.0
5660,72.0,48.0,90.0,0.0,0.0
5661,51.0,0.0,40.0,3.0,0.0
5662,50.0,48.0,40.0,3.0,0.0
5663,77.0,30.0,150.0,0.0,0.0
5664,51.0,66.0,40.0,3.0,0.0
5665,48.0,48.0,90.0,3.0,0.0
5666,71.0,48.0,40.0,0.0,0.0
5667,50.0,30.0,150.0,3.0,0.0
5668,72.0,48.0,40.0,0.0,0.0
5669,74.0,18.0,40.0,0.0,0.0
5670,75.0,48.0,40.0,0.0,0.0
5671,77.0,48.0,40.0,0.0,0.0
5672,47.0,30.0,150.0,3.0,0.0
5673,80.0,48.0,40.0,0.0,0.0
5674,79.0,18.0,40.0,0.0,0.0
5675,77.0,48.0,40.0,0.0,0.0
5676,43.0,30.0,150.0,3.0,0.0
5677,75.0,48.0,40.0,0.0,0.0
5678,77.0,66.0,40.0,0.0,0.0
5679,74.0,96.0,90.0,0.0,0.0
5680,75.0,30.0,840.0,0.0,0.0
5681,48.0,48.0,40.0,3.0,0.0
5682,51.0,48.0,40.0,3.0,0.0
5683,50.0,48.0,40.0,3.0,0.0
5684,48.0,48.0,40.0,3.0,0.0
5685,46.0,48.0,40.0,3.0,0.0
5686,45.0,48.0,40.0,3.0,0.0
5687,72.0,48.0,90.0,1.0,0.0
5688,46.0,0.0,40.0,3.0,0.0
5689,69.0,30.0,150.0,1.0,0.0
5690,48.0,48.0,40.0,3.0,0.0
5691,45.0,48.0,40.0,3.0,0.0
5692,46.0,18.0,40.0,3.0,0.0
5693,48.0,96.0,40.0,3.0,0.0
5694,38.0,16.0,540.0,3.0,0.0
5695,67.0,96.0,90.0,1.0,0.0
5696,41.0,66.0,90.0,2.0,0.0
5697,65.0,0.0,420.0,1.0,0.0
5698,43.0,96.0,90.0,2.0,0.0
5699,45.0,96.0,90.0,2.0,0.0
5700,72.0,0.0,90.0,0.0,0.0
5701,74.0,30.0,150.0,0.0,0.0
5702,46.0,50.0,90.0,2.0,0.0
5703,48.0,50.0,90.0,2.0,0.0
5704,63.0,192.0,40.0,1.0,0.0
5705,50.0,0.0,40.0,2.0,0.0
5706,65.0,0.0,40.0,0.0,0.0
5707,39.0,0.0,40.0,2.0,0.0
5708,62.0,0.0,40.0,1.0,0.0
5709,67.0,192.0,40.0,0.0,0.0
5710,60.0,400.0,40.0,1.0,0.0
5711,69.0,0.0,40.0,0.0,0.0
5712,41.0,0.0,40.0,2.0,0.0
5713,62.0,0.0,840.0,1.0,0.0
5714,46.0,126.0,270.0,2.0,0.0
5715,65.0,0.0,810.0,1.0,0.0
5716,70.0,126.0,810.0,0.0,0.0
5717,41.0,162.0,90.0,2.0,0.0
5718,38.0,288.0,150.0,2.0,0.0
5719,34.0,0.0,270.0,2.0,0.0
5720,77.0,162.0,90.0,0.0,0.0
5721,74.0,126.0,150.0,0.0,0.0
5722,72.0,288.0,90.0,0.0,0.0
5723,70.0,126.0,750.0,0.0,0.0
5724,65.0,450.0,90.0,2.0,0.0
5725,62.0,0.0,450.0,2.0,0.0
5726,56.0,16.0,540.0,3.0,0.0
5727,72.0,0.0,90.0,0.0,0.0
5728,63.0,146.0,90.0,2.0,0.0
5729,74.0,0.0,150.0,0.0,0.0
5730,65.0,288.0,150.0,2.0,0.0
5731,55.0,126.0,270.0,3.0,0.0
5732,75.0,126.0,840.0,0.0,0.0
5733,58.0,0.0,270.0,2.0,0.0
5734,70.0,0.0,630.0,1.0,0.0
5735,67.0,112.0,540.0,1.0,0.0
5736,58.0,338.0,90.0,2.0,0.0
5737,63.0,0.0,420.0,1.0,0.0
5738,55.0,0.0,450.0,2.0,0.0
5739,49.0,16.0,540.0,3.0,0.0
5740,77.0,146.0,90.0,0.0,0.0
5741,56.0,0.0,90.0,2.0,0.0
5742,58.0,0.0,360.0,2.0,0.0
5743,79.0,78.0,150.0,0.0,0.0
5744,80.0,48.0,40.0,0.0,0.0
5745,48.0,30.0,150.0,3.0,0.0
5746,79.0,48.0,40.0,0.0,0.0
5747,77.0,18.0,40.0,0.0,0.0
5748,76.0,144.0,40.0,0.0,0.0
5749,56.0,30.0,150.0,2.0,0.0
5750,77.0,18.0,150.0,0.0,0.0
5751,49.0,0.0,150.0,3.0,0.0
5752,72.0,162.0,40.0,0.0,0.0
5753,65.0,16.0,540.0,1.0,0.0
5754,55.0,174.0,360.0,2.0,0.0
5755,46.0,126.0,150.0,3.0,0.0
5756,73.0,0.0,150.0,0.0,0.0
5757,48.0,16.0,540.0,3.0,0.0
5758,68.0,66.0,90.0,0.0,0.0
5759,67.0,2.0,240.0,0.0,0.0
5760,55.0,30.0,150.0,2.0,0.0
5761,73.0,146.0,40.0,0.0,0.0
5762,72.0,78.0,150.0,0.0,0.0
5763,64.0,0.0,150.0,1.0,0.0
5764,60.0,0.0,150.0,2.0,0.0
5765,53.0,162.0,630.0,2.0,0.0
5766,65.0,0.0,420.0,1.0,0.0
5767,70.0,48.0,40.0,0.0,0.0
5768,68.0,48.0,40.0,0.0,0.0
5769,70.0,48.0,40.0,0.0,0.0
5770,68.0,48.0,40.0,0.0,0.0
5771,70.0,144.0,40.0,0.0,0.0
5772,48.0,30.0,150.0,3.0,0.0
5773,68.0,18.0,150.0,0.0,0.0
5774,67.0,162.0,40.0,0.0,0.0
5775,65.0,30.0,150.0,0.0,0.0
5776,44.0,0.0,150.0,3.0,0.0
5777,41.0,78.0,150.0,3.0,0.0
5778,65.0,48.0,240.0,0.0,0.0
5779,43.0,30.0,150.0,3.0,0.0
5780,68.0,48.0,40.0,0.0,0.0
5781,67.0,18.0,40.0,0.0,0.0
5782,65.0,162.0,40.0,0.0,0.0
5783,72.0,0.0,150.0,0.0,0.0
5784,44.0,126.0,150.0,3.0,0.0
5785,62.0,30.0,270.0,0.0,0.0
5786,34.0,96.0,90.0,3.0,0.0
5787,41.0,66.0,90.0,3.0,0.0
5788,46.0,48.0,90.0,3.0,0.0
5789,65.0,96.0,90.0,0.0,0.0
5790,48.0,48.0,40.0,3.0,0.0
5791,50.0,0.0,40.0,3.0,0.0
5792,48.0,48.0,90.0,3.0,0.0
5793,48.0,30.0,150.0,2.0,0.0
5794,68.0,46.0,540.0,0.0,0.0
5795,50.0,18.0,40.0,3.0,0.0
5796,51.0,16.0,40.0,3.0,0.0
5797,58.0,48.0,240.0,1.0,0.0
5798,51.0,16.0,15.0,3.0,0.0
5799,50.0,16.0,15.0,3.0,0.0
5800,51.0,48.0,15.0,3.0,0.0
5801,50.0,48.0,40.0,3.0,0.0
5802,51.0,48.0,40.0,3.0,0.0
5803,53.0,48.0,40.0,3.0,0.0
5804,46.0,0.0,90.0,3.0,0.0
5805,62.0,48.0,40.0,1.0,0.0
5806,60.0,2.0,40.0,1.0,0.0
5807,50.0,0.0,90.0,3.0,0.0
5808,58.0,162.0,40.0,1.0,0.0
5809,51.0,66.0,300.0,3.0,0.0
5810,67.0,30.0,150.0,0.0,0.0
5811,55.0,96.0,90.0,2.0,0.0
5812,65.0,30.0,270.0,0.0,0.0
5813,56.0,30.0,150.0,2.0,0.0
5814,51.0,66.0,90.0,3.0,0.0
5815,50.0,96.0,90.0,3.0,0.0
5816,48.0,0.0,90.0,3.0,0.0
5817,72.0,96.0,90.0,0.0,0.0
5818,47.0,96.0,90.0,3.0,0.0
5819,77.0,48.0,420.0,0.0,0.0
5820,48.0,96.0,90.0,3.0,0.0
5821,67.0,16.0,540.0,1.0,0.0
5822,47.0,48.0,90.0,3.0,0.0
5823,48.0,48.0,40.0,3.0,0.0
5824,50.0,48.0,40.0,3.0,0.0
5825,43.0,48.0,90.0,3.0,0.0
5826,77.0,0.0,40.0,0.0,0.0
5827,47.0,96.0,90.0,3.0,0.0
5828,75.0,48.0,40.0,0.0,0.0
5829,74.0,0.0,40.0,0.0,0.0
5830,48.0,48.0,90.0,3.0,0.0
5831,75.0,30.0,150.0,0.0,0.0
5832,50.0,2.0,40.0,3.0,0.0
5833,51.0,48.0,40.0,3.0,0.0
5834,53.0,80.0,750.0,2.0,0.0
5835,68.0,48.0,40.0,0.0,0.0
5836,67.0,48.0,40.0,0.0,0.0
5837,65.0,48.0,40.0,0.0,0.0
5838,63.0,48.0,40.0,0.0,0.0
5839,62.0,48.0,40.0,0.0,0.0
5840,72.0,48.0,40.0,0.0,0.0
5841,50.0,0.0,90.0,3.0,0.0
5842,70.0,48.0,40.0,0.0,0.0
5843,68.0,162.0,40.0,0.0,0.0
5844,44.0,80.0,150.0,3.0,0.0
5845,70.0,0.0,150.0,0.0,0.0
5846,58.0,0.0,40.0,0.0,0.0
5847,56.0,0.0,40.0,1.0,0.0
5848,43.0,112.0,40.0,3.0,0.0
5849,51.0,0.0,40.0,2.0,0.0
5850,55.0,0.0,40.0,1.0,0.0
5851,44.0,0.0,40.0,3.0,0.0
5852,60.0,192.0,40.0,0.0,0.0
5853,46.0,0.0,40.0,2.0,0.0
5854,53.0,0.0,40.0,1.0,0.0
5855,46.0,400.0,40.0,3.0,0.0
5856,62.0,0.0,40.0,0.0,0.0
5857,39.0,126.0,270.0,3.0,0.0
5858,55.0,0.0,840.0,1.0,0.0
5859,58.0,0.0,810.0,1.0,0.0
5860,63.0,126.0,810.0,0.0,0.0
5861,43.0,162.0,90.0,3.0,0.0
5862,46.0,288.0,150.0,3.0,0.0
5863,51.0,0.0,270.0,3.0,0.0
5864,77.0,162.0,90.0,0.0,0.0
5865,74.0,126.0,150.0,0.0,0.0
5866,72.0,288.0,90.0,0.0,0.0
5867,70.0,0.0,750.0,0.0,0.0
5868,65.0,450.0,90.0,2.0,0.0
5869,62.0,126.0,450.0,2.0,0.0
5870,56.0,16.0,540.0,3.0,0.0
5871,72.0,0.0,90.0,0.0,0.0
5872,63.0,146.0,90.0,2.0,0.0
5873,65.0,0.0,150.0,2.0,0.0
5874,74.0,288.0,150.0,0.0,0.0
5875,58.0,0.0,270.0,2.0,0.0
5876,55.0,126.0,270.0,3.0,0.0
5877,75.0,0.0,840.0,0.0,0.0
5878,70.0,112.0,630.0,1.0,0.0
5879,67.0,0.0,540.0,1.0,0.0
5880,63.0,0.0,420.0,1.0,0.0
5881,58.0,338.0,90.0,2.0,0.0
5882,55.0,126.0,450.0,2.0,0.0
5883,49.0,16.0,540.0,3.0,0.0
5884,77.0,0.0,90.0,0.0,0.0
5885,56.0,146.0,90.0,2.0,0.0
5886,58.0,30.0,360.0,2.0,0.0
5887,79.0,78.0,150.0,0.0,0.0
5888,80.0,48.0,40.0,0.0,0.0
5889,48.0,0.0,150.0,3.0,0.0
5890,79.0,48.0,40.0,0.0,0.0
5891,77.0,18.0,40.0,0.0,0.0
5892,76.0,144.0,40.0,0.0,0.0
5893,49.0,30.0,150.0,3.0,0.0
5894,56.0,0.0,150.0,2.0,0.0
5895,77.0,18.0,150.0,0.0,0.0
5896,72.0,162.0,40.0,0.0,0.0
5897,46.0,126.0,150.0,3.0,0.0
5898,65.0,16.0,540.0,1.0,0.0
5899,55.0,174.0,360.0,2.0,0.0
5900,73.0,0.0,150.0,0.0,0.0
5901,68.0,66.0,90.0,0.0,0.0
5902,48.0,16.0,540.0,3.0,0.0
5903,67.0,2.0,240.0,0.0,0.0
5904,55.0,30.0,150.0,2.0,0.0
5905,73.0,146.0,40.0,0.0,0.0
5906,60.0,0.0,150.0,2.0,0.0
5907,72.0,0.0,150.0,0.0,0.0
5908,64.0,78.0,150.0,1.0,0.0
5909,70.0,48.0,40.0,0.0,0.0
5910,53.0,162.0,630.0,2.0,0.0
5911,65.0,0.0,420.0,1.0,0.0
5912,68.0,48.0,40.0,0.0,0.0
5913,70.0,48.0,40.0,0.0,0.0
5914,68.0,48.0,40.0,0.0,0.0
5915,70.0,144.0,40.0,0.0,0.0
5916,48.0,30.0,150.0,3.0,0.0
5917,68.0,18.0,150.0,0.0,0.0
5918,67.0,162.0,40.0,0.0,0.0
5919,65.0,0.0,150.0,0.0,0.0
5920,44.0,30.0,150.0,3.0,0.0
5921,65.0,48.0,240.0,0.0,0.0
5922,41.0,78.0,150.0,3.0,0.0
5923,43.0,30.0,150.0,3.0,0.0
5924,68.0,48.0,40.0,0.0,0.0
5925,67.0,18.0,40.0,0.0,0.0
5926,65.0,162.0,40.0,0.0,0.0
5927,44.0,0.0,150.0,3.0,0.0
5928,72.0,126.0,150.0,0.0,0.0
5929,34.0,96.0,90.0,3.0,0.0
5930,62.0,30.0,270.0,0.0,0.0
5931,41.0,66.0,90.0,3.0,0.0
5932,46.0,48.0,90.0,3.0,0.0
5933,48.0,48.0,40.0,3.0,0.0
5934,65.0,0.0,90.0,0.0,0.0
5935,50.0,96.0,40.0,3.0,0.0
5936,68.0,46.0,540.0,0.0,0.0
5937,48.0,30.0,150.0,2.0,0.0
5938,48.0,48.0,90.0,3.0,0.0
5939,50.0,18.0,40.0,3.0,0.0
5940,51.0,16.0,40.0,3.0,0.0
5941,58.0,48.0,240.0,1.0,0.0
5942,51.0,16.0,15.0,3.0,0.0
5943,50.0,16.0,15.0,3.0,0.0
5944,51.0,48.0,15.0,3.0,0.0
5945,50.0,48.0,40.0,3.0,0.0
5946,51.0,48.0,40.0,3.0,0.0
5947,53.0,48.0,40.0,3.0,0.0
5948,46.0,0.0,90.0,3.0,0.0
5949,62.0,48.0,40.0,1.0,0.0
5950,50.0,0.0,90.0,3.0,0.0
5951,60.0,2.0,40.0,1.0,0.0
5952,58.0,162.0,40.0,1.0,0.0
5953,51.0,66.0,300.0,3.0,0.0
5954,67.0,30.0,150.0,0.0,0.0
5955,55.0,96.0,90.0,2.0,0.0
5956,65.0,30.0,270.0,0.0,0.0
5957,56.0,30.0,150.0,2.0,0.0
5958,51.0,66.0,90.0,3.0,0.0
5959,50.0,96.0,90.0,3.0,0.0
5960,48.0,96.0,90.0,3.0,0.0
5961,72.0,0.0,90.0,0.0,0.0
5962,47.0,96.0,90.0,3.0,0.0
5963,77.0,48.0,420.0,0.0,0.0
5964,48.0,96.0,90.0,3.0,0.0
5965,67.0,16.0,540.0,1.0,0.0
5966,47.0,48.0,90.0,3.0,0.0
5967,48.0,48.0,40.0,3.0,0.0
5968,50.0,48.0,40.0,3.0,0.0
5969,43.0,0.0,90.0,3.0,0.0
5970,77.0,48.0,40.0,0.0,0.0
5971,75.0,48.0,40.0,0.0,0.0
5972,47.0,96.0,90.0,3.0,0.0
5973,74.0,0.0,40.0,0.0,0.0
5974,75.0,30.0,150.0,0.0,0.0
5975,48.0,48.0,90.0,3.0,0.0
5976,50.0,2.0,40.0,3.0,0.0
5977,51.0,48.0,40.0,3.0,0.0
5978,68.0,48.0,40.0,0.0,0.0
5979,53.0,80.0,750.0,2.0,0.0
5980,67.0,48.0,40.0,0.0,0.0
5981,65.0,48.0,40.0,0.0,0.0
5982,63.0,48.0,40.0,0.0,0.0
5983,62.0,48.0,40.0,0.0,0.0
5984,72.0,48.0,40.0,0.0,0.0
5985,70.0,48.0,40.0,0.0,0.0
5986,50.0,162.0,90.0,3.0,0.0
5987,68.0,0.0,40.0,0.0,0.0
5988,70.0,80.0,150.0,0.0,0.0
5989,44.0,0.0,150.0,3.0,0.0
5990,43.0,0.0,40.0,3.0,0.0
5991,56.0,112.0,40.0,1.0,0.0
5992,58.0,0.0,40.0,0.0,0.0
5993,44.0,0.0,40.0,3.0,0.0
5994,60.0,0.0,40.0,0.0,0.0
5995,55.0,0.0,40.0,1.0,0.0
5996,51.0,192.0,40.0,2.0,0.0
5997,46.0,0.0,40.0,3.0,0.0
5998,62.0,0.0,40.0,0.0,0.0
5999,46.0,0.0,40.0,2.0,0.0
6000,53.0,400.0,40.0,1.0,0.0
6001,55.0,0.0,840.0,1.0,0.0
6002,39.0,126.0,270.0,3.0,0.0
6003,58.0,0.0,810.0,1.0,0.0
6004,63.0,448.0,810.0,0.0,0.0
6005,43.0,162.0,90.0,3.0,0.0
6006,46.0,288.0,150.0,3.0,0.0
6007,51.0,0.0,270.0,3.0,0.0
6008,70.0,62.0,30.0,0.0,0.0
6009,75.0,48.0,40.0,0.0,0.0
6010,79.0,34.0,40.0,0.0,0.0
6011,74.0,62.0,30.0,0.0,0.0
6012,75.0,48.0,40.0,0.0,0.0
6013,79.0,34.0,40.0,0.0,0.0
6014,70.0,62.0,30.0,0.0,0.0
6015,75.0,48.0,40.0,0.0,0.0
6016,79.0,34.0,40.0,0.0,0.0
6017,74.0,62.0,30.0,0.0,0.0
6018,75.0,48.0,40.0,0.0,0.0
6019,79.0,34.0,40.0,0.0,0.0
6020,70.0,62.0,30.0,0.0,0.0
6021,72.0,48.0,40.0,0.0,0.0
6022,68.0,48.0,40.0,0.0,0.0
6023,63.0,96.0,40.0,0.0,0.0
6024,75.0,34.0,90.0,0.0,0.0
6025,68.0,62.0,30.0,0.0,0.0
6026,70.0,48.0,40.0,0.0,0.0
6027,67.0,48.0,40.0,0.0,0.0
6028,63.0,96.0,40.0,0.0,0.0
6029,75.0,34.0,90.0,0.0,0.0
6030,67.0,62.0,30.0,0.0,0.0
6031,68.0,48.0,40.0,0.0,0.0
6032,70.0,34.0,40.0,0.0,0.0
6033,72.0,62.0,30.0,0.0,0.0
6034,70.0,48.0,40.0,0.0,0.0
6035,72.0,34.0,40.0,0.0,0.0
6036,68.0,62.0,30.0,0.0,0.0
6037,67.0,48.0,40.0,0.0,0.0
6038,70.0,48.0,40.0,0.0,0.0
6039,75.0,48.0,40.0,0.0,0.0
6040,79.0,48.0,40.0,0.0,0.0
6041,77.0,34.0,40.0,0.0,0.0
6042,75.0,48.0,40.0,0.0,0.0
6043,63.0,14.0,30.0,3.0,0.0
6044,77.0,34.0,90.0,0.0,0.0
6045,70.0,48.0,40.0,3.0,0.0
6046,74.0,0.0,40.0,3.0,0.0
6047,77.0,48.0,40.0,0.0,0.0
6048,69.0,14.0,30.0,3.0,0.0
6049,77.0,34.0,90.0,0.0,0.0
6050,70.0,48.0,40.0,3.0,0.0
6051,74.0,0.0,40.0,3.0,0.0
6052,65.0,14.0,30.0,3.0,0.0
6053,77.0,48.0,40.0,0.0,0.0
6054,77.0,34.0,90.0,0.0,0.0
6055,70.0,48.0,40.0,3.0,0.0
6056,74.0,0.0,40.0,3.0,0.0
6057,77.0,48.0,40.0,0.0,0.0
6058,69.0,14.0,30.0,3.0,0.0
6059,70.0,48.0,40.0,3.0,0.0
6060,77.0,34.0,90.0,0.0,0.0
6061,74.0,0.0,40.0,3.0,0.0
6062,65.0,14.0,30.0,3.0,0.0
6063,77.0,48.0,40.0,0.0,0.0
6064,67.0,48.0,40.0,3.0,0.0
6065,70.0,0.0,40.0,0.0,0.0
6066,75.0,48.0,40.0,0.0,0.0
6067,63.0,0.0,40.0,3.0,0.0
6068,58.0,48.0,40.0,3.0,0.0
6069,79.0,0.0,40.0,0.0,0.0
6070,79.0,48.0,40.0,0.0,0.0
6071,70.0,34.0,90.0,3.0,0.0
6072,75.0,0.0,40.0,0.0,0.0
6073,70.0,48.0,40.0,0.0,0.0
6074,63.0,14.0,30.0,3.0,0.0
6075,70.0,0.0,40.0,0.0,0.0
6076,65.0,48.0,40.0,3.0,0.0
6077,62.0,48.0,40.0,3.0,0.0
6078,74.0,0.0,40.0,0.0,0.0
6079,58.0,0.0,40.0,3.0,0.0
6080,77.0,48.0,40.0,0.0,0.0
6081,77.0,48.0,40.0,0.0,0.0
6082,70.0,0.0,90.0,3.0,0.0
6083,74.0,34.0,40.0,0.0,0.0
6084,62.0,14.0,30.0,3.0,0.0
6085,70.0,48.0,40.0,0.0,0.0
6086,70.0,48.0,150.0,0.0,0.0
6087,63.0,48.0,40.0,3.0,0.0
6088,65.0,34.0,40.0,3.0,0.0
6089,67.0,14.0,30.0,3.0,0.0
6090,65.0,48.0,40.0,3.0,0.0
6091,69.0,48.0,150.0,0.0,0.0
6092,67.0,34.0,40.0,3.0,0.0
6093,63.0,14.0,30.0,3.0,0.0
6094,62.0,48.0,40.0,3.0,0.0
6095,70.0,0.0,150.0,0.0,0.0
6096,65.0,48.0,40.0,3.0,0.0
6097,68.0,48.0,40.0,3.0,0.0
6098,74.0,0.0,150.0,0.0,0.0
6099,72.0,48.0,40.0,1.0,0.0
6100,70.0,34.0,40.0,1.0,0.0
6101,58.0,14.0,30.0,3.0,0.0
6102,68.0,48.0,40.0,1.0,0.0
6103,67.0,0.0,90.0,1.0,0.0
6104,75.0,0.0,90.0,0.0,0.0
6105,63.0,48.0,40.0,3.0,0.0
6106,67.0,34.0,40.0,3.0,0.0
6107,77.0,48.0,40.0,0.0,0.0
6108,62.0,14.0,30.0,3.0,0.0
6109,70.0,0.0,40.0,1.0,0.0
6110,79.0,34.0,90.0,0.0,0.0
6111,70.0,0.0,90.0,1.0,0.0
6112,63.0,48.0,40.0,3.0,0.0
6113,67.0,0.0,40.0,3.0,0.0
6114,70.0,0.0,40.0,1.0,0.0
6115,80.0,48.0,40.0,0.0,0.0
6116,58.0,14.0,30.0,3.0,0.0
6117,70.0,0.0,90.0,1.0,0.0
6118,79.0,0.0,90.0,0.0,0.0
6119,63.0,48.0,40.0,3.0,0.0
6120,67.0,34.0,40.0,3.0,0.0
6121,70.0,48.0,40.0,1.0,0.0
6122,77.0,0.0,40.0,0.0,0.0
6123,62.0,14.0,30.0,3.0,0.0
6124,63.0,48.0,40.0,3.0,0.0
6125,70.0,0.0,90.0,1.0,0.0
6126,75.0,48.0,870.0,0.0,0.0
6127,67.0,34.0,40.0,3.0,0.0
6128,58.0,14.0,30.0,3.0,0.0
6129,67.0,48.0,40.0,1.0,0.0
6130,63.0,0.0,40.0,1.0,0.0
6131,60.0,48.0,40.0,3.0,0.0
6132,68.0,0.0,40.0,1.0,0.0
6133,56.0,48.0,40.0,3.0,0.0
6134,72.0,0.0,40.0,1.0,0.0
6135,51.0,48.0,40.0,3.0,0.0
6136,72.0,48.0,40.0,1.0,0.0
6137,63.0,34.0,90.0,3.0,0.0
6138,68.0,0.0,40.0,1.0,0.0
6139,56.0,14.0,30.0,3.0,0.0
6140,63.0,48.0,40.0,1.0,0.0
6141,58.0,0.0,40.0,3.0,0.0
6142,63.0,48.0,40.0,1.0,0.0
6143,55.0,48.0,40.0,3.0,0.0
6144,67.0,0.0,40.0,1.0,0.0
6145,51.0,48.0,40.0,3.0,0.0
6146,70.0,0.0,40.0,1.0,0.0
6147,70.0,48.0,40.0,1.0,0.0
6148,63.0,34.0,90.0,3.0,0.0
6149,67.0,0.0,40.0,1.0,0.0
6150,55.0,14.0,30.0,3.0,0.0
6151,63.0,48.0,40.0,1.0,0.0
6152,56.0,48.0,40.0,3.0,0.0
6153,65.0,16.0,270.0,1.0,0.0
6154,58.0,34.0,40.0,3.0,0.0
6155,60.0,14.0,30.0,3.0,0.0
6156,58.0,48.0,40.0,3.0,0.0
6157,74.0,48.0,150.0,0.0,0.0
6158,60.0,18.0,40.0,3.0,0.0
6159,56.0,14.0,30.0,3.0,0.0
6160,75.0,0.0,150.0,0.0,0.0
6161,63.0,48.0,150.0,1.0,0.0
6162,55.0,48.0,40.0,3.0,0.0
6163,58.0,34.0,40.0,3.0,0.0
6164,53.0,14.0,30.0,3.0,0.0
6165,55.0,48.0,40.0,3.0,0.0
6166,58.0,34.0,40.0,3.0,0.0
6167,70.0,48.0,40.0,0.0,0.0
6168,51.0,14.0,30.0,3.0,0.0
6169,56.0,0.0,90.0,3.0,0.0
6170,72.0,48.0,40.0,0.0,0.0
6171,75.0,34.0,40.0,0.0,0.0
6172,55.0,48.0,40.0,3.0,0.0
6173,70.0,14.0,30.0,0.0,0.0
6174,72.0,48.0,40.0,0.0,0.0
6175,56.0,34.0,90.0,3.0,0.0
6176,75.0,0.0,40.0,0.0,0.0
6177,67.0,14.0,30.0,0.0,0.0
6178,51.0,48.0,40.0,3.0,0.0
6179,68.0,48.0,150.0,0.0,0.0
6180,53.0,48.0,40.0,3.0,0.0
6181,56.0,34.0,40.0,3.0,0.0
6182,51.0,14.0,30.0,3.0,0.0
6183,53.0,48.0,40.0,3.0,0.0
6184,56.0,34.0,40.0,3.0,0.0
6185,75.0,0.0,30.0,0.0,0.0
6186,48.0,62.0,30.0,3.0,0.0
6187,50.0,0.0,90.0,3.0,0.0
6188,77.0,48.0,40.0,0.0,0.0
6189,80.0,34.0,40.0,0.0,0.0
6190,48.0,48.0,40.0,3.0,0.0
6191,75.0,14.0,30.0,0.0,0.0
6192,50.0,34.0,90.0,3.0,0.0
6193,77.0,48.0,40.0,0.0,0.0
6194,80.0,0.0,40.0,0.0,0.0
6195,53.0,48.0,40.0,3.0,0.0
6196,72.0,14.0,30.0,0.0,0.0
6197,58.0,0.0,40.0,3.0,0.0
6198,74.0,48.0,40.0,0.0,0.0
6199,62.0,34.0,40.0,3.0,0.0
6200,77.0,0.0,40.0,0.0,0.0
6201,57.0,62.0,30.0,3.0,0.0
6202,72.0,0.0,30.0,0.0,0.0
6203,58.0,0.0,40.0,3.0,0.0
6204,74.0,48.0,40.0,0.0,0.0
6205,62.0,0.0,40.0,3.0,0.0
6206,77.0,34.0,40.0,0.0,0.0
6207,69.0,62.0,30.0,0.0,0.0
6208,53.0,0.0,30.0,3.0,0.0
6209,55.0,0.0,40.0,3.0,0.0
6210,70.0,48.0,40.0,0.0,0.0
6211,74.0,34.0,40.0,0.0,0.0
6212,58.0,0.0,40.0,3.0,0.0
6213,69.0,0.0,30.0,0.0,0.0
6214,53.0,62.0,30.0,3.0,0.0
6215,55.0,48.0,40.0,3.0,0.0
6216,70.0,0.0,40.0,0.0,0.0
6217,58.0,0.0,40.0,3.0,0.0
6218,74.0,34.0,40.0,0.0,0.0
6219,50.0,0.0,30.0,3.0,0.0
6220,65.0,62.0,30.0,0.0,0.0
6221,67.0,48.0,40.0,0.0,0.0
6222,51.0,34.0,90.0,3.0,0.0
6223,70.0,0.0,40.0,0.0,0.0
6224,69.0,14.0,30.0,0.0,0.0
6225,48.0,48.0,40.0,3.0,0.0
6226,50.0,34.0,90.0,3.0,0.0
6227,70.0,48.0,40.0,0.0,0.0
6228,72.0,0.0,40.0,0.0,0.0
6229,51.0,48.0,40.0,3.0,0.0
6230,67.0,14.0,30.0,0.0,0.0
6231,53.0,0.0,90.0,3.0,0.0
6232,69.0,48.0,40.0,0.0,0.0
6233,72.0,34.0,40.0,0.0,0.0
6234,50.0,48.0,40.0,3.0,0.0
6235,70.0,14.0,30.0,0.0,0.0
6236,51.0,34.0,90.0,3.0,0.0
6237,72.0,48.0,40.0,0.0,0.0
6238,74.0,0.0,40.0,0.0,0.0
6239,69.0,14.0,30.0,0.0,0.0
6240,53.0,48.0,40.0,3.0,0.0
6241,55.0,34.0,90.0,3.0,0.0
6242,70.0,48.0,40.0,0.0,0.0
6243,74.0,0.0,40.0,0.0,0.0
6244,57.0,48.0,40.0,3.0,0.0
6245,72.0,14.0,30.0,0.0,0.0
6246,58.0,34.0,90.0,3.0,0.0
6247,74.0,48.0,40.0,0.0,0.0
6248,77.0,0.0,40.0,0.0,0.0
6249,55.0,48.0,40.0,3.0,0.0
6250,75.0,14.0,30.0,0.0,0.0
6251,57.0,48.0,40.0,3.0,0.0
6252,77.0,48.0,90.0,0.0,0.0
6253,60.0,0.0,40.0,3.0,0.0
6254,65.0,48.0,40.0,3.0,0.0
6255,69.0,48.0,40.0,0.0,0.0
6256,72.0,34.0,40.0,0.0,0.0
6257,41.0,14.0,30.0,3.0,0.0
6258,75.0,48.0,40.0,0.0,0.0
6259,74.0,0.0,90.0,0.0,0.0
6260,46.0,48.0,40.0,3.0,0.0
6261,50.0,34.0,40.0,3.0,0.0
6262,72.0,0.0,40.0,0.0,0.0
6263,65.0,48.0,40.0,1.0,0.0
6264,45.0,14.0,30.0,3.0,0.0
6265,74.0,0.0,90.0,0.0,0.0
6266,65.0,34.0,90.0,1.0,0.0
6267,46.0,48.0,40.0,3.0,0.0
6268,50.0,0.0,40.0,3.0,0.0
6269,65.0,0.0,40.0,1.0,0.0
6270,75.0,48.0,40.0,0.0,0.0
6271,41.0,14.0,30.0,3.0,0.0
6272,46.0,48.0,40.0,3.0,0.0
6273,65.0,0.0,90.0,1.0,0.0
6274,74.0,34.0,90.0,0.0,0.0
6275,50.0,0.0,40.0,3.0,0.0
6276,45.0,14.0,30.0,3.0,0.0
6277,65.0,48.0,40.0,1.0,0.0
6278,72.0,0.0,40.0,0.0,0.0
6279,65.0,0.0,90.0,1.0,0.0
6280,70.0,48.0,870.0,0.0,0.0
6281,46.0,48.0,40.0,3.0,0.0
6282,50.0,34.0,40.0,3.0,0.0
6283,62.0,48.0,40.0,1.0,0.0
6284,41.0,14.0,30.0,3.0,0.0
6285,43.0,0.0,40.0,3.0,0.0
6286,58.0,48.0,40.0,1.0,0.0
6287,63.0,0.0,40.0,1.0,0.0
6288,39.0,48.0,40.0,3.0,0.0
6289,67.0,0.0,40.0,1.0,0.0
6290,34.0,48.0,40.0,3.0,0.0
6291,67.0,48.0,40.0,1.0,0.0
6292,46.0,0.0,90.0,3.0,0.0
6293,63.0,34.0,40.0,1.0,0.0
6294,39.0,14.0,30.0,3.0,0.0
6295,58.0,48.0,40.0,1.0,0.0
6296,41.0,0.0,40.0,3.0,0.0
6297,58.0,48.0,40.0,1.0,0.0
6298,62.0,48.0,40.0,1.0,0.0
6299,38.0,0.0,40.0,3.0,0.0
6300,65.0,48.0,40.0,1.0,0.0
6301,34.0,0.0,40.0,3.0,0.0
6302,46.0,0.0,90.0,3.0,0.0
6303,65.0,48.0,40.0,1.0,0.0
6304,62.0,34.0,40.0,1.0,0.0
6305,58.0,48.0,40.0,1.0,0.0
6306,38.0,14.0,30.0,3.0,0.0
6307,60.0,0.0,390.0,1.0,0.0
6308,39.0,48.0,40.0,3.0,0.0
6309,41.0,34.0,40.0,3.0,0.0
6310,43.0,14.0,30.0,3.0,0.0
6311,41.0,48.0,40.0,3.0,0.0
6312,69.0,34.0,90.0,0.0,0.0
6313,43.0,0.0,40.0,3.0,0.0
6314,39.0,14.0,30.0,3.0,0.0
6315,67.0,48.0,40.0,0.0,0.0
6316,65.0,48.0,150.0,0.0,0.0
6317,38.0,48.0,40.0,3.0,0.0
6318,39.0,34.0,40.0,3.0,0.0
6319,41.0,14.0,30.0,3.0,0.0
6320,58.0,34.0,300.0,1.0,0.0
6321,67.0,0.0,90.0,0.0,0.0
6322,39.0,48.0,40.0,3.0,0.0
6323,41.0,34.0,40.0,3.0,0.0
6324,65.0,48.0,40.0,0.0,0.0
6325,38.0,14.0,30.0,3.0,0.0
6326,63.0,48.0,150.0,0.0,0.0
6327,36.0,48.0,40.0,3.0,0.0
6328,38.0,0.0,40.0,3.0,0.0
6329,39.0,14.0,30.0,3.0,0.0
6330,57.0,0.0,180.0,1.0,0.0
6331,65.0,34.0,90.0,0.0,0.0
6332,38.0,48.0,40.0,3.0,0.0
6333,39.0,0.0,40.0,3.0,0.0
6334,36.0,14.0,30.0,3.0,0.0
6335,63.0,96.0,40.0,0.0,0.0
6336,34.0,48.0,90.0,3.0,0.0
6337,62.0,0.0,90.0,0.0,0.0
6338,58.0,48.0,150.0,1.0,0.0
6339,36.0,0.0,40.0,3.0,0.0
6340,63.0,48.0,40.0,0.0,0.0
6341,65.0,48.0,90.0,0.0,0.0
6342,38.0,0.0,90.0,3.0,0.0
6343,58.0,0.0,90.0,1.0,0.0
6344,39.0,0.0,40.0,3.0,0.0
6345,67.0,96.0,40.0,0.0,0.0
6346,57.0,0.0,90.0,0.0,0.0
6347,41.0,48.0,90.0,3.0,0.0
6348,53.0,48.0,150.0,1.0,0.0
6349,58.0,48.0,40.0,0.0,0.0
6350,43.0,0.0,40.0,3.0,0.0
6351,45.0,48.0,90.0,3.0,0.0
6352,60.0,0.0,90.0,0.0,0.0
6353,53.0,0.0,90.0,1.0,0.0
6354,62.0,96.0,40.0,0.0,0.0
6355,46.0,0.0,40.0,3.0,0.0
6356,63.0,48.0,90.0,0.0,0.0
6357,36.0,0.0,90.0,3.0,0.0
6358,60.0,48.0,150.0,1.0,0.0
6359,38.0,0.0,40.0,3.0,0.0
6360,65.0,48.0,40.0,0.0,0.0
6361,67.0,0.0,90.0,0.0,0.0
6362,39.0,48.0,90.0,3.0,0.0
6363,60.0,96.0,90.0,1.0,0.0
6364,69.0,0.0,40.0,0.0,0.0
6365,41.0,0.0,40.0,3.0,0.0
6366,43.0,0.0,90.0,3.0,0.0
6367,58.0,48.0,90.0,0.0,0.0
6368,55.0,48.0,150.0,1.0,0.0
6369,60.0,48.0,40.0,0.0,0.0
6370,45.0,0.0,40.0,3.0,0.0
6371,62.0,48.0,90.0,0.0,0.0
6372,46.0,0.0,90.0,3.0,0.0
6373,55.0,0.0,90.0,1.0,0.0
6374,63.0,96.0,40.0,0.0,0.0
6375,48.0,0.0,40.0,3.0,0.0
6376,50.0,48.0,90.0,3.0,0.0
6377,65.0,0.0,630.0,0.0,0.0
6378,62.0,0.0,40.0,1.0,0.0
6379,57.0,48.0,40.0,1.0,0.0
6380,51.0,0.0,40.0,3.0,0.0
6381,58.0,48.0,40.0,1.0,0.0
6382,50.0,48.0,90.0,3.0,0.0
6383,62.0,0.0,40.0,1.0,0.0
6384,53.0,0.0,40.0,1.0,0.0
6385,48.0,48.0,40.0,3.0,0.0
6386,50.0,48.0,90.0,3.0,0.0
6387,58.0,48.0,40.0,1.0,0.0
6388,62.0,0.0,40.0,1.0,0.0
6389,51.0,0.0,40.0,3.0,0.0
6390,57.0,48.0,40.0,1.0,0.0
6391,50.0,0.0,90.0,3.0,0.0
6392,58.0,48.0,40.0,1.0,0.0
6393,62.0,48.0,40.0,1.0,0.0
6394,48.0,48.0,40.0,3.0,0.0
6395,53.0,0.0,40.0,1.0,0.0
6396,55.0,0.0,90.0,1.0,0.0
6397,46.0,48.0,40.0,3.0,0.0
6398,51.0,0.0,40.0,3.0,0.0
6399,63.0,48.0,40.0,0.0,0.0
6400,55.0,0.0,40.0,3.0,0.0
6401,58.0,48.0,40.0,0.0,0.0
6402,70.0,0.0,90.0,0.0,0.0
6403,55.0,48.0,40.0,3.0,0.0
6404,51.0,34.0,40.0,3.0,0.0
6405,63.0,14.0,30.0,0.0,0.0
6406,46.0,48.0,40.0,3.0,0.0
6407,65.0,0.0,40.0,0.0,0.0
6408,46.0,48.0,40.0,3.0,0.0
6409,50.0,48.0,40.0,3.0,0.0
6410,62.0,0.0,40.0,0.0,0.0
6411,53.0,0.0,40.0,3.0,0.0
6412,58.0,48.0,40.0,0.0,0.0
6413,70.0,34.0,90.0,0.0,0.0
6414,53.0,48.0,40.0,3.0,0.0
6415,50.0,0.0,40.0,3.0,0.0
6416,46.0,0.0,40.0,2.0,0.0
6417,46.0,48.0,40.0,3.0,0.0
6418,62.0,14.0,30.0,0.0,0.0
6419,46.0,0.0,150.0,3.0,0.0
6420,63.0,48.0,40.0,0.0,0.0
6421,48.0,48.0,150.0,2.0,0.0
6422,65.0,34.0,40.0,0.0,0.0
6423,67.0,14.0,30.0,0.0,0.0
6424,48.0,48.0,150.0,2.0,0.0
6425,45.0,0.0,150.0,3.0,0.0
6426,65.0,48.0,40.0,0.0,0.0
6427,67.0,34.0,40.0,0.0,0.0
6428,63.0,14.0,30.0,0.0,0.0
6429,46.0,0.0,90.0,2.0,0.0
6430,46.0,34.0,90.0,3.0,0.0
6431,62.0,48.0,40.0,0.0,0.0
6432,65.0,0.0,40.0,0.0,0.0
6433,63.0,14.0,30.0,0.0,0.0
6434,48.0,48.0,40.0,3.0,0.0
6435,65.0,48.0,40.0,0.0,0.0
6436,50.0,34.0,90.0,3.0,0.0
6437,69.0,0.0,40.0,0.0,0.0
6438,67.0,14.0,30.0,0.0,0.0
6439,51.0,48.0,40.0,3.0,0.0
6440,53.0,0.0,40.0,3.0,0.0
6441,69.0,48.0,40.0,0.0,0.0
6442,72.0,0.0,40.0,0.0,0.0
6443,57.0,48.0,40.0,3.0,0.0
6444,75.0,48.0,40.0,0.0,0.0
6445,53.0,0.0,40.0,3.0,0.0
6446,48.0,48.0,40.0,3.0,0.0
6447,75.0,0.0,40.0,0.0,0.0
6448,53.0,48.0,40.0,3.0,0.0
6449,72.0,0.0,40.0,0.0,0.0
6450,48.0,48.0,40.0,3.0,0.0
6451,69.0,0.0,40.0,0.0,0.0
6452,65.0,0.0,40.0,0.0,0.0
6453,45.0,48.0,40.0,3.0,0.0
6454,48.0,0.0,40.0,3.0,0.0
6455,69.0,48.0,40.0,0.0,0.0
6456,72.0,0.0,40.0,0.0,0.0
6457,45.0,48.0,40.0,3.0,0.0
6458,75.0,0.0,40.0,0.0,0.0
6459,41.0,48.0,40.0,3.0,0.0
6460,74.0,48.0,40.0,0.0,0.0
6461,43.0,0.0,40.0,3.0,0.0
6462,72.0,48.0,40.0,0.0,0.0
6463,45.0,0.0,40.0,3.0,0.0
6464,74.0,48.0,40.0,0.0,0.0
6465,46.0,0.0,90.0,3.0,0.0
6466,72.0,48.0,40.0,0.0,0.0
6467,51.0,0.0,40.0,3.0,0.0
6468,70.0,48.0,40.0,0.0,0.0
6469,67.0,0.0,40.0,1.0,0.0
6470,65.0,0.0,90.0,1.0,0.0
6471,53.0,48.0,90.0,3.0,0.0
6472,70.0,48.0,40.0,0.0,0.0
6473,72.0,0.0,40.0,0.0,0.0
6474,69.0,0.0,40.0,0.0,0.0
6475,63.0,0.0,40.0,1.0,0.0
6476,41.0,48.0,40.0,3.0,0.0
6477,34.0,0.0,240.0,3.0,0.0
6478,70.0,34.0,240.0,0.0,0.0
6479,34.0,48.0,40.0,2.0,0.0
6480,38.0,48.0,40.0,2.0,0.0
6481,65.0,0.0,180.0,1.0,0.0
6482,41.0,96.0,40.0,2.0,0.0
6483,62.0,0.0,150.0,1.0,0.0
6484,58.0,0.0,90.0,1.0,0.0
6485,46.0,0.0,90.0,2.0,0.0
6486,70.0,62.0,30.0,0.0,0.0
6487,75.0,48.0,40.0,0.0,0.0
6488,79.0,34.0,40.0,0.0,0.0
6489,74.0,62.0,30.0,0.0,0.0
6490,75.0,48.0,40.0,0.0,0.0
6491,79.0,34.0,40.0,0.0,0.0
6492,70.0,62.0,30.0,0.0,0.0
6493,75.0,48.0,40.0,0.0,0.0
6494,79.0,34.0,40.0,0.0,0.0
6495,74.0,62.0,30.0,0.0,0.0
6496,75.0,48.0,40.0,0.0,0.0
6497,79.0,34.0,40.0,0.0,0.0
6498,70.0,62.0,30.0,0.0,0.0
6499,72.0,48.0,40.0,0.0,0.0
6500,68.0,48.0,40.0,0.0,0.0
6501,63.0,96.0,40.0,0.0,0.0
6502,75.0,34.0,90.0,0.0,0.0
6503,68.0,62.0,30.0,0.0,0.0
6504,70.0,48.0,40.0,0.0,0.0
6505,67.0,48.0,40.0,0.0,0.0
6506,63.0,96.0,40.0,0.0,0.0
6507,75.0,34.0,90.0,0.0,0.0
6508,67.0,62.0,30.0,0.0,0.0
6509,68.0,48.0,40.0,0.0,0.0
6510,70.0,34.0,40.0,0.0,0.0
6511,72.0,62.0,30.0,0.0,0.0
6512,70.0,48.0,40.0,0.0,0.0
6513,72.0,34.0,40.0,0.0,0.0
6514,68.0,62.0,30.0,0.0,0.0
6515,67.0,48.0,40.0,0.0,0.0
6516,70.0,48.0,40.0,0.0,0.0
6517,75.0,48.0,40.0,0.0,0.0
6518,79.0,48.0,40.0,0.0,0.0
6519,77.0,34.0,40.0,0.0,0.0
6520,63.0,14.0,30.0,3.0,0.0
6521,75.0,48.0,40.0,0.0,0.0
6522,70.0,48.0,40.0,3.0,0.0
6523,77.0,34.0,90.0,0.0,0.0
6524,74.0,0.0,40.0,3.0,0.0
6525,77.0,48.0,40.0,0.0,0.0
6526,69.0,14.0,30.0,3.0,0.0
6527,77.0,0.0,90.0,0.0,0.0
6528,70.0,48.0,40.0,3.0,0.0
6529,74.0,34.0,40.0,3.0,0.0
6530,77.0,48.0,40.0,0.0,0.0
6531,65.0,14.0,30.0,3.0,0.0
6532,77.0,0.0,90.0,0.0,0.0
6533,70.0,48.0,40.0,3.0,0.0
6534,74.0,34.0,40.0,3.0,0.0
6535,69.0,14.0,30.0,3.0,0.0
6536,77.0,48.0,40.0,0.0,0.0
6537,77.0,34.0,90.0,0.0,0.0
6538,70.0,48.0,40.0,3.0,0.0
6539,74.0,0.0,40.0,3.0,0.0
6540,77.0,48.0,40.0,0.0,0.0
6541,65.0,14.0,30.0,3.0,0.0
6542,70.0,48.0,40.0,0.0,0.0
6543,67.0,0.0,40.0,3.0,0.0
6544,63.0,48.0,40.0,3.0,0.0
6545,75.0,0.0,40.0,0.0,0.0
6546,79.0,0.0,40.0,0.0,0.0
6547,58.0,48.0,40.0,3.0,0.0
6548,79.0,48.0,40.0,0.0,0.0
6549,70.0,34.0,90.0,3.0,0.0
6550,75.0,0.0,40.0,0.0,0.0
6551,70.0,48.0,40.0,0.0,0.0
6552,63.0,14.0,30.0,3.0,0.0
6553,65.0,48.0,40.0,3.0,0.0
6554,70.0,0.0,40.0,0.0,0.0
6555,74.0,48.0,40.0,0.0,0.0
6556,62.0,0.0,40.0,3.0,0.0
6557,77.0,48.0,40.0,0.0,0.0
6558,58.0,0.0,40.0,3.0,0.0
6559,70.0,34.0,90.0,3.0,0.0
6560,77.0,48.0,40.0,0.0,0.0
6561,74.0,0.0,40.0,0.0,0.0
6562,70.0,48.0,40.0,0.0,0.0
6563,62.0,14.0,30.0,3.0,0.0
6564,63.0,48.0,40.0,3.0,0.0
6565,70.0,48.0,150.0,0.0,0.0
6566,65.0,34.0,40.0,3.0,0.0
6567,67.0,14.0,30.0,3.0,0.0
6568,69.0,48.0,150.0,0.0,0.0
6569,65.0,48.0,40.0,3.0,0.0
6570,67.0,34.0,40.0,3.0,0.0
6571,63.0,14.0,30.0,3.0,0.0
6572,70.0,0.0,150.0,0.0,0.0
6573,62.0,48.0,40.0,3.0,0.0
6574,65.0,48.0,40.0,3.0,0.0
6575,68.0,48.0,40.0,3.0,0.0
6576,74.0,48.0,150.0,0.0,0.0
6577,72.0,48.0,40.0,1.0,0.0
6578,70.0,34.0,40.0,1.0,0.0
6579,68.0,0.0,40.0,1.0,0.0
6580,58.0,14.0,30.0,3.0,0.0
6581,63.0,48.0,40.0,3.0,0.0
6582,75.0,34.0,90.0,0.0,0.0
6583,67.0,0.0,90.0,1.0,0.0
6584,67.0,0.0,40.0,3.0,0.0
6585,62.0,14.0,30.0,3.0,0.0
6586,70.0,0.0,40.0,1.0,0.0
6587,77.0,48.0,40.0,0.0,0.0
6588,70.0,0.0,90.0,1.0,0.0
6589,63.0,48.0,40.0,3.0,0.0
6590,79.0,34.0,90.0,0.0,0.0
6591,67.0,0.0,40.0,3.0,0.0
6592,58.0,14.0,30.0,3.0,0.0
6593,70.0,0.0,40.0,1.0,0.0
6594,80.0,48.0,40.0,0.0,0.0
6595,79.0,0.0,90.0,0.0,0.0
6596,70.0,34.0,90.0,1.0,0.0
6597,63.0,48.0,40.0,3.0,0.0
6598,67.0,0.0,40.0,3.0,0.0
6599,77.0,0.0,40.0,0.0,0.0
6600,62.0,14.0,30.0,3.0,0.0
6601,70.0,48.0,40.0,1.0,0.0
6602,75.0,48.0,870.0,0.0,0.0
6603,70.0,0.0,90.0,1.0,0.0
6604,63.0,48.0,40.0,3.0,0.0
6605,67.0,34.0,40.0,3.0,0.0
6606,58.0,14.0,30.0,3.0,0.0
6607,67.0,48.0,40.0,1.0,0.0
6608,63.0,0.0,40.0,1.0,0.0
6609,60.0,48.0,40.0,3.0,0.0
6610,56.0,0.0,40.0,3.0,0.0
6611,68.0,48.0,40.0,1.0,0.0
6612,51.0,0.0,40.0,3.0,0.0
6613,72.0,48.0,40.0,1.0,0.0
6614,72.0,48.0,40.0,1.0,0.0
6615,63.0,34.0,90.0,3.0,0.0
6616,68.0,0.0,40.0,1.0,0.0
6617,63.0,48.0,40.0,1.0,0.0
6618,56.0,14.0,30.0,3.0,0.0
6619,58.0,0.0,40.0,3.0,0.0
6620,63.0,48.0,40.0,1.0,0.0
6621,55.0,0.0,40.0,3.0,0.0
6622,67.0,48.0,40.0,1.0,0.0
6623,70.0,0.0,40.0,1.0,0.0
6624,51.0,48.0,40.0,3.0,0.0
6625,70.0,48.0,40.0,1.0,0.0
6626,63.0,34.0,90.0,3.0,0.0
6627,67.0,0.0,40.0,1.0,0.0
6628,55.0,14.0,30.0,3.0,0.0
6629,63.0,48.0,40.0,1.0,0.0
6630,56.0,48.0,40.0,3.0,0.0
6631,65.0,16.0,270.0,1.0,0.0
6632,58.0,34.0,40.0,3.0,0.0
6633,60.0,14.0,30.0,3.0,0.0
6634,58.0,48.0,40.0,3.0,0.0
6635,74.0,48.0,150.0,0.0,0.0
6636,60.0,18.0,40.0,3.0,0.0
6637,56.0,14.0,30.0,3.0,0.0
6638,63.0,0.0,150.0,1.0,0.0
6639,75.0,48.0,150.0,0.0,0.0
6640,55.0,48.0,40.0,3.0,0.0
6641,58.0,34.0,40.0,3.0,0.0
6642,53.0,14.0,30.0,3.0,0.0
6643,55.0,48.0,40.0,3.0,0.0
6644,58.0,34.0,40.0,3.0,0.0
6645,70.0,48.0,40.0,0.0,0.0
6646,51.0,14.0,30.0,3.0,0.0
6647,72.0,48.0,40.0,0.0,0.0
6648,56.0,0.0,90.0,3.0,0.0
6649,75.0,34.0,40.0,0.0,0.0
6650,55.0,48.0,40.0,3.0,0.0
6651,70.0,14.0,30.0,0.0,0.0
6652,56.0,0.0,90.0,3.0,0.0
6653,72.0,48.0,40.0,0.0,0.0
6654,75.0,34.0,40.0,0.0,0.0
6655,67.0,14.0,30.0,0.0,0.0
6656,51.0,48.0,40.0,3.0,0.0
6657,68.0,48.0,150.0,0.0,0.0
6658,53.0,48.0,40.0,3.0,0.0
6659,56.0,34.0,40.0,3.0,0.0
6660,51.0,14.0,30.0,3.0,0.0
6661,53.0,48.0,40.0,3.0,0.0
6662,56.0,34.0,40.0,3.0,0.0
6663,48.0,0.0,30.0,3.0,0.0
6664,75.0,62.0,30.0,0.0,0.0
6665,77.0,48.0,40.0,0.0,0.0
6666,50.0,34.0,90.0,3.0,0.0
6667,80.0,0.0,40.0,0.0,0.0
6668,48.0,48.0,40.0,3.0,0.0
6669,75.0,14.0,30.0,0.0,0.0
6670,50.0,0.0,90.0,3.0,0.0
6671,77.0,48.0,40.0,0.0,0.0
6672,80.0,34.0,40.0,0.0,0.0
6673,53.0,48.0,40.0,3.0,0.0
6674,72.0,14.0,30.0,0.0,0.0
6675,74.0,0.0,40.0,0.0,0.0
6676,58.0,48.0,40.0,3.0,0.0
6677,62.0,0.0,40.0,3.0,0.0
6678,77.0,34.0,40.0,0.0,0.0
6679,57.0,0.0,30.0,3.0,0.0
6680,72.0,62.0,30.0,0.0,0.0
6681,58.0,48.0,40.0,3.0,0.0
6682,74.0,0.0,40.0,0.0,0.0
6683,62.0,34.0,40.0,3.0,0.0
6684,77.0,0.0,40.0,0.0,0.0
6685,53.0,62.0,30.0,3.0,0.0
6686,69.0,0.0,30.0,0.0,0.0
6687,55.0,0.0,40.0,3.0,0.0
6688,70.0,48.0,40.0,0.0,0.0
6689,58.0,0.0,40.0,3.0,0.0
6690,74.0,34.0,40.0,0.0,0.0
6691,53.0,0.0,30.0,3.0,0.0
6692,69.0,62.0,30.0,0.0,0.0
6693,55.0,0.0,40.0,3.0,0.0
6694,70.0,48.0,40.0,0.0,0.0
6695,74.0,0.0,40.0,0.0,0.0
6696,58.0,34.0,40.0,3.0,0.0
6697,65.0,0.0,30.0,0.0,0.0
6698,50.0,62.0,30.0,3.0,0.0
6699,51.0,34.0,90.0,3.0,0.0
6700,67.0,48.0,40.0,0.0,0.0
6701,70.0,0.0,40.0,0.0,0.0
6702,48.0,48.0,40.0,3.0,0.0
6703,69.0,14.0,30.0,0.0,0.0
6704,70.0,48.0,40.0,0.0,0.0
6705,50.0,34.0,90.0,3.0,0.0
6706,72.0,0.0,40.0,0.0,0.0
6707,67.0,14.0,30.0,0.0,0.0
6708,51.0,48.0,40.0,3.0,0.0
6709,69.0,48.0,40.0,0.0,0.0
6710,53.0,34.0,90.0,3.0,0.0
6711,72.0,0.0,40.0,0.0,0.0
6712,70.0,14.0,30.0,0.0,0.0
6713,50.0,48.0,40.0,3.0,0.0
6714,51.0,34.0,90.0,3.0,0.0
6715,72.0,48.0,40.0,0.0,0.0
6716,74.0,0.0,40.0,0.0,0.0
6717,69.0,14.0,30.0,0.0,0.0
6718,53.0,48.0,40.0,3.0,0.0
6719,70.0,48.0,40.0,0.0,0.0
6720,55.0,34.0,90.0,3.0,0.0
6721,74.0,0.0,40.0,0.0,0.0
6722,72.0,14.0,30.0,0.0,0.0
6723,57.0,48.0,40.0,3.0,0.0
6724,58.0,34.0,90.0,3.0,0.0
6725,74.0,48.0,40.0,0.0,0.0
6726,77.0,0.0,40.0,0.0,0.0
6727,55.0,48.0,40.0,3.0,0.0
6728,75.0,14.0,30.0,0.0,0.0
6729,77.0,0.0,90.0,0.0,0.0
6730,57.0,48.0,40.0,3.0,0.0
6731,60.0,48.0,40.0,3.0,0.0
6732,65.0,48.0,40.0,3.0,0.0
6733,69.0,48.0,40.0,0.0,0.0
6734,72.0,34.0,40.0,0.0,0.0
6735,41.0,14.0,30.0,3.0,0.0
6736,75.0,48.0,40.0,0.0,0.0
6737,46.0,48.0,40.0,3.0,0.0
6738,74.0,34.0,90.0,0.0,0.0
6739,50.0,0.0,40.0,3.0,0.0
6740,65.0,48.0,40.0,1.0,0.0
6741,72.0,0.0,40.0,0.0,0.0
6742,45.0,14.0,30.0,3.0,0.0
6743,46.0,48.0,40.0,3.0,0.0
6744,65.0,0.0,90.0,1.0,0.0
6745,74.0,34.0,90.0,0.0,0.0
6746,50.0,0.0,40.0,3.0,0.0
6747,65.0,0.0,40.0,1.0,0.0
6748,75.0,48.0,40.0,0.0,0.0
6749,41.0,14.0,30.0,3.0,0.0
6750,46.0,48.0,40.0,3.0,0.0
6751,74.0,0.0,90.0,0.0,0.0
6752,65.0,0.0,90.0,1.0,0.0
6753,50.0,34.0,40.0,3.0,0.0
6754,45.0,14.0,30.0,3.0,0.0
6755,65.0,0.0,40.0,1.0,0.0
6756,72.0,48.0,40.0,0.0,0.0
6757,70.0,48.0,870.0,0.0,0.0
6758,46.0,48.0,40.0,3.0,0.0
6759,65.0,34.0,90.0,1.0,0.0
6760,50.0,0.0,40.0,3.0,0.0
6761,41.0,14.0,30.0,3.0,0.0
6762,62.0,48.0,40.0,1.0,0.0
6763,58.0,48.0,40.0,1.0,0.0
6764,43.0,0.0,40.0,3.0,0.0
6765,39.0,0.0,40.0,3.0,0.0
6766,63.0,48.0,40.0,1.0,0.0
6767,67.0,48.0,40.0,1.0,0.0
6768,34.0,0.0,40.0,3.0,0.0
6769,67.0,48.0,40.0,1.0,0.0
6770,46.0,34.0,90.0,3.0,0.0
6771,63.0,0.0,40.0,1.0,0.0
6772,39.0,14.0,30.0,3.0,0.0
6773,58.0,48.0,40.0,1.0,0.0
6774,58.0,48.0,40.0,1.0,0.0
6775,41.0,0.0,40.0,3.0,0.0
6776,38.0,0.0,40.0,3.0,0.0
6777,62.0,48.0,40.0,1.0,0.0
6778,65.0,0.0,40.0,1.0,0.0
6779,34.0,48.0,40.0,3.0,0.0
6780,65.0,48.0,40.0,1.0,0.0
6781,46.0,34.0,90.0,3.0,0.0
6782,62.0,0.0,40.0,1.0,0.0
6783,38.0,14.0,30.0,3.0,0.0
6784,58.0,48.0,40.0,1.0,0.0
6785,39.0,48.0,40.0,3.0,0.0
6786,60.0,0.0,390.0,1.0,0.0
6787,41.0,34.0,40.0,3.0,0.0
6788,43.0,14.0,30.0,3.0,0.0
6789,69.0,34.0,90.0,0.0,0.0
6790,41.0,48.0,40.0,3.0,0.0
6791,43.0,0.0,40.0,3.0,0.0
6792,39.0,14.0,30.0,3.0,0.0
6793,67.0,48.0,40.0,0.0,0.0
6794,65.0,48.0,150.0,0.0,0.0
6795,38.0,48.0,40.0,3.0,0.0
6796,39.0,34.0,40.0,3.0,0.0
6797,58.0,34.0,300.0,1.0,0.0
6798,41.0,14.0,30.0,3.0,0.0
6799,67.0,0.0,90.0,0.0,0.0
6800,39.0,48.0,40.0,3.0,0.0
6801,41.0,34.0,40.0,3.0,0.0
6802,65.0,48.0,40.0,0.0,0.0
6803,38.0,14.0,30.0,3.0,0.0
6804,36.0,48.0,40.0,3.0,0.0
6805,63.0,48.0,150.0,0.0,0.0
6806,38.0,0.0,40.0,3.0,0.0
6807,39.0,14.0,30.0,3.0,0.0
6808,57.0,0.0,180.0,1.0,0.0
6809,38.0,48.0,40.0,3.0,0.0
6810,65.0,34.0,90.0,0.0,0.0
6811,39.0,0.0,40.0,3.0,0.0
6812,63.0,96.0,40.0,0.0,0.0
6813,36.0,14.0,30.0,3.0,0.0
6814,62.0,0.0,90.0,0.0,0.0
6815,34.0,48.0,90.0,3.0,0.0
6816,58.0,48.0,150.0,1.0,0.0
6817,63.0,0.0,40.0,0.0,0.0
6818,36.0,48.0,40.0,3.0,0.0
6819,38.0,0.0,90.0,3.0,0.0
6820,65.0,48.0,90.0,0.0,0.0
6821,58.0,0.0,90.0,1.0,0.0
6822,67.0,96.0,40.0,0.0,0.0
6823,39.0,0.0,40.0,3.0,0.0
6824,57.0,0.0,90.0,0.0,0.0
6825,41.0,48.0,90.0,3.0,0.0
6826,53.0,48.0,150.0,1.0,0.0
6827,43.0,48.0,40.0,3.0,0.0
6828,58.0,0.0,40.0,0.0,0.0
6829,45.0,48.0,90.0,3.0,0.0
6830,60.0,0.0,90.0,0.0,0.0
6831,53.0,96.0,90.0,1.0,0.0
6832,62.0,0.0,40.0,0.0,0.0
6833,46.0,0.0,40.0,3.0,0.0
6834,63.0,48.0,90.0,0.0,0.0
6835,36.0,0.0,90.0,3.0,0.0
6836,60.0,48.0,150.0,1.0,0.0
6837,38.0,48.0,40.0,3.0,0.0
6838,65.0,0.0,40.0,0.0,0.0
6839,39.0,0.0,90.0,3.0,0.0
6840,67.0,48.0,90.0,0.0,0.0
6841,60.0,96.0,90.0,1.0,0.0
6842,41.0,0.0,40.0,3.0,0.0
6843,69.0,0.0,40.0,0.0,0.0
6844,43.0,48.0,90.0,3.0,0.0
6845,58.0,0.0,90.0,0.0,0.0
6846,55.0,48.0,150.0,1.0,0.0
6847,60.0,48.0,40.0,0.0,0.0
6848,45.0,0.0,40.0,3.0,0.0
6849,62.0,0.0,90.0,0.0,0.0
6850,46.0,48.0,90.0,3.0,0.0
6851,55.0,96.0,90.0,1.0,0.0
6852,48.0,0.0,40.0,3.0,0.0
6853,63.0,0.0,40.0,0.0,0.0
6854,65.0,0.0,630.0,0.0,0.0
6855,50.0,0.0,90.0,3.0,0.0
6856,62.0,48.0,40.0,1.0,0.0
6857,57.0,0.0,40.0,1.0,0.0
6858,51.0,48.0,40.0,3.0,0.0
6859,50.0,48.0,90.0,3.0,0.0
6860,58.0,48.0,40.0,1.0,0.0
6861,62.0,0.0,40.0,1.0,0.0
6862,48.0,0.0,40.0,3.0,0.0
6863,53.0,48.0,40.0,1.0,0.0
6864,50.0,48.0,90.0,3.0,0.0
6865,58.0,48.0,40.0,1.0,0.0
6866,62.0,0.0,40.0,1.0,0.0
6867,57.0,0.0,40.0,1.0,0.0
6868,51.0,48.0,40.0,3.0,0.0
6869,50.0,48.0,90.0,3.0,0.0
6870,58.0,48.0,40.0,1.0,0.0
6871,62.0,0.0,40.0,1.0,0.0
6872,48.0,0.0,40.0,3.0,0.0
6873,53.0,48.0,40.0,1.0,0.0
6874,46.0,48.0,40.0,3.0,0.0
6875,55.0,0.0,90.0,1.0,0.0
6876,63.0,48.0,40.0,0.0,0.0
6877,51.0,0.0,40.0,3.0,0.0
6878,58.0,48.0,40.0,0.0,0.0
6879,55.0,0.0,40.0,3.0,0.0
6880,55.0,48.0,40.0,3.0,0.0
6881,70.0,0.0,90.0,0.0,0.0
6882,51.0,34.0,40.0,3.0,0.0
6883,63.0,14.0,30.0,0.0,0.0
6884,46.0,48.0,40.0,3.0,0.0
6885,46.0,0.0,40.0,3.0,0.0
6886,65.0,48.0,40.0,0.0,0.0
6887,62.0,0.0,40.0,0.0,0.0
6888,50.0,48.0,40.0,3.0,0.0
6889,58.0,0.0,40.0,0.0,0.0
6890,53.0,48.0,40.0,3.0,0.0
6891,53.0,48.0,40.0,3.0,0.0
6892,70.0,34.0,90.0,0.0,0.0
6893,50.0,0.0,40.0,3.0,0.0
6894,62.0,14.0,30.0,0.0,0.0
6895,46.0,0.0,40.0,3.0,0.0
6896,46.0,48.0,40.0,2.0,0.0
6897,48.0,48.0,150.0,2.0,0.0
6898,63.0,48.0,40.0,0.0,0.0
6899,46.0,0.0,150.0,3.0,0.0
6900,65.0,34.0,40.0,0.0,0.0
6901,67.0,14.0,30.0,0.0,0.0
6902,45.0,0.0,150.0,3.0,0.0
6903,65.0,48.0,40.0,0.0,0.0
6904,48.0,48.0,150.0,2.0,0.0
6905,67.0,34.0,40.0,0.0,0.0
6906,63.0,14.0,30.0,0.0,0.0
6907,46.0,0.0,90.0,3.0,0.0
6908,62.0,48.0,40.0,0.0,0.0
6909,46.0,0.0,90.0,2.0,0.0
6910,65.0,34.0,40.0,0.0,0.0
6911,48.0,48.0,40.0,3.0,0.0
6912,63.0,14.0,30.0,0.0,0.0
6913,65.0,48.0,40.0,0.0,0.0
6914,50.0,34.0,90.0,3.0,0.0
6915,69.0,0.0,40.0,0.0,0.0
6916,67.0,14.0,30.0,0.0,0.0
6917,51.0,48.0,40.0,3.0,0.0
6918,69.0,48.0,40.0,0.0,0.0
6919,53.0,0.0,40.0,3.0,0.0
6920,72.0,0.0,40.0,0.0,0.0
6921,57.0,48.0,40.0,3.0,0.0
6922,53.0,0.0,40.0,3.0,0.0
6923,75.0,48.0,40.0,0.0,0.0
6924,75.0,0.0,40.0,0.0,0.0
6925,48.0,48.0,40.0,3.0,0.0
6926,72.0,0.0,40.0,0.0,0.0
6927,53.0,48.0,40.0,3.0,0.0
6928,48.0,0.0,40.0,3.0,0.0
6929,69.0,48.0,40.0,0.0,0.0
6930,45.0,48.0,40.0,3.0,0.0
6931,65.0,0.0,40.0,0.0,0.0
6932,48.0,0.0,40.0,3.0,0.0
6933,69.0,48.0,40.0,0.0,0.0
6934,72.0,0.0,40.0,0.0,0.0
6935,45.0,48.0,40.0,3.0,0.0
6936,75.0,0.0,40.0,0.0,0.0
6937,41.0,48.0,40.0,3.0,0.0
6938,43.0,48.0,40.0,3.0,0.0
6939,74.0,0.0,40.0,0.0,0.0
6940,72.0,0.0,40.0,0.0,0.0
6941,45.0,48.0,40.0,3.0,0.0
6942,74.0,48.0,40.0,0.0,0.0
6943,46.0,0.0,90.0,3.0,0.0
6944,72.0,48.0,40.0,0.0,0.0
6945,67.0,0.0,40.0,1.0,0.0
6946,70.0,0.0,40.0,0.0,0.0
6947,51.0,48.0,40.0,3.0,0.0
6948,70.0,48.0,40.0,0.0,0.0
6949,65.0,48.0,90.0,1.0,0.0
6950,53.0,0.0,90.0,3.0,0.0
6951,72.0,0.0,40.0,0.0,0.0
6952,41.0,0.0,40.0,3.0,0.0
6953,63.0,0.0,40.0,1.0,0.0
6954,69.0,48.0,40.0,0.0,0.0
6955,34.0,34.0,240.0,3.0,0.0
6956,34.0,48.0,40.0,2.0,0.0
6957,70.0,0.0,240.0,0.0,0.0
6958,65.0,0.0,180.0,1.0,0.0
6959,38.0,48.0,40.0,2.0,0.0
6960,41.0,96.0,40.0,2.0,0.0
6961,62.0,0.0,150.0,1.0,0.0
6962,58.0,0.0,90.0,1.0,0.0
6963,46.0,0.0,90.0,2.0,0.0
6964,53.0,62.0,30.0,3.0,0.0
6965,50.0,48.0,40.0,3.0,0.0
6966,46.0,34.0,40.0,3.0,0.0
6967,51.0,62.0,30.0,3.0,0.0
6968,50.0,48.0,40.0,3.0,0.0
6969,46.0,34.0,40.0,3.0,0.0
6970,53.0,62.0,30.0,3.0,0.0
6971,50.0,48.0,40.0,3.0,0.0
6972,46.0,34.0,40.0,3.0,0.0
6973,51.0,62.0,30.0,3.0,0.0
6974,50.0,48.0,40.0,3.0,0.0
6975,46.0,34.0,40.0,3.0,0.0
6976,53.0,62.0,30.0,3.0,0.0
6977,50.0,48.0,40.0,3.0,0.0
6978,53.0,48.0,40.0,3.0,0.0
6979,56.0,96.0,40.0,3.0,0.0
6980,46.0,34.0,90.0,3.0,0.0
6981,55.0,62.0,30.0,3.0,0.0
6982,51.0,48.0,40.0,3.0,0.0
6983,55.0,48.0,40.0,3.0,0.0
6984,58.0,96.0,40.0,3.0,0.0
6985,48.0,34.0,90.0,3.0,0.0
6986,56.0,62.0,30.0,3.0,0.0
6987,53.0,48.0,40.0,3.0,0.0
6988,56.0,48.0,40.0,3.0,0.0
6989,60.0,48.0,40.0,3.0,0.0
6990,50.0,48.0,40.0,3.0,0.0
6991,58.0,48.0,40.0,3.0,0.0
6992,56.0,48.0,40.0,3.0,0.0
6993,55.0,48.0,40.0,3.0,0.0
6994,51.0,48.0,40.0,3.0,0.0
6995,46.0,48.0,40.0,3.0,0.0
6996,51.0,48.0,40.0,3.0,0.0
6997,46.0,48.0,40.0,3.0,0.0
6998,58.0,0.0,40.0,0.0,0.0
6999,43.0,48.0,40.0,3.0,0.0
7000,39.0,0.0,90.0,3.0,0.0
7001,55.0,48.0,40.0,0.0,0.0
7002,51.0,34.0,40.0,0.0,0.0
7003,48.0,48.0,40.0,3.0,0.0
7004,56.0,14.0,30.0,0.0,0.0
7005,55.0,48.0,40.0,0.0,0.0
7006,46.0,34.0,90.0,3.0,0.0
7007,51.0,0.0,40.0,0.0,0.0
7008,38.0,48.0,40.0,3.0,0.0
7009,58.0,14.0,30.0,0.0,0.0
7010,55.0,48.0,40.0,0.0,0.0
7011,39.0,0.0,90.0,3.0,0.0
7012,51.0,34.0,40.0,0.0,0.0
7013,56.0,14.0,30.0,0.0,0.0
7014,48.0,48.0,40.0,3.0,0.0
7015,55.0,48.0,40.0,0.0,0.0
7016,46.0,34.0,90.0,3.0,0.0
7017,51.0,0.0,40.0,0.0,0.0
7018,38.0,48.0,40.0,3.0,0.0
7019,58.0,14.0,30.0,0.0,0.0
7020,55.0,0.0,40.0,0.0,0.0
7021,39.0,48.0,40.0,3.0,0.0
7022,43.0,0.0,40.0,3.0,0.0
7023,58.0,48.0,40.0,0.0,0.0
7024,46.0,0.0,40.0,3.0,0.0
7025,61.0,48.0,40.0,0.0,0.0
7026,43.0,48.0,40.0,3.0,0.0
7027,51.0,0.0,90.0,0.0,0.0
7028,39.0,34.0,40.0,3.0,0.0
7029,60.0,0.0,30.0,0.0,0.0
7030,44.0,62.0,30.0,3.0,0.0
7031,41.0,48.0,40.0,3.0,0.0
7032,56.0,0.0,40.0,0.0,0.0
7033,60.0,0.0,40.0,0.0,0.0
7034,44.0,48.0,40.0,3.0,0.0
7035,63.0,0.0,40.0,0.0,0.0
7036,48.0,48.0,40.0,3.0,0.0
7037,44.0,48.0,40.0,3.0,0.0
7038,53.0,34.0,90.0,0.0,0.0
7039,41.0,0.0,40.0,3.0,0.0
7040,61.0,62.0,30.0,0.0,0.0
7041,46.0,0.0,30.0,3.0,0.0
7042,43.0,48.0,40.0,3.0,0.0
7043,58.0,0.0,40.0,0.0,0.0
7044,61.0,48.0,40.0,0.0,0.0
7045,46.0,0.0,40.0,3.0,0.0
7046,65.0,0.0,40.0,0.0,0.0
7047,49.0,48.0,40.0,3.0,0.0
7048,55.0,0.0,40.0,0.0,0.0
7049,46.0,48.0,40.0,3.0,0.0
7050,63.0,0.0,40.0,0.0,0.0
7051,43.0,34.0,40.0,3.0,0.0
7052,61.0,48.0,40.0,0.0,0.0
7053,46.0,14.0,30.0,3.0,0.0
7054,44.0,48.0,40.0,3.0,0.0
7055,60.0,0.0,150.0,0.0,0.0
7056,48.0,48.0,40.0,3.0,0.0
7057,51.0,48.0,40.0,3.0,0.0
7058,48.0,48.0,40.0,3.0,0.0
7059,44.0,34.0,40.0,3.0,0.0
7060,56.0,62.0,30.0,0.0,0.0
7061,48.0,0.0,30.0,3.0,0.0
7062,53.0,48.0,40.0,0.0,0.0
7063,38.0,48.0,150.0,3.0,0.0
7064,56.0,48.0,40.0,0.0,0.0
7065,60.0,0.0,40.0,0.0,0.0
7066,56.0,48.0,40.0,0.0,0.0
7067,53.0,34.0,40.0,0.0,0.0
7068,41.0,48.0,40.0,3.0,0.0
7069,56.0,14.0,30.0,0.0,0.0
7070,43.0,48.0,40.0,3.0,0.0
7071,50.0,0.0,90.0,0.0,0.0
7072,46.0,48.0,40.0,3.0,0.0
7073,58.0,0.0,40.0,0.0,0.0
7074,50.0,16.0,40.0,3.0,0.0
7075,56.0,16.0,15.0,0.0,0.0
7076,46.0,0.0,40.0,3.0,0.0
7077,55.0,16.0,15.0,0.0,0.0
7078,56.0,48.0,15.0,0.0,0.0
7079,43.0,0.0,40.0,3.0,0.0
7080,55.0,34.0,40.0,0.0,0.0
7081,53.0,62.0,30.0,0.0,0.0
7082,46.0,0.0,30.0,3.0,0.0
7083,51.0,48.0,40.0,0.0,0.0
7084,36.0,0.0,150.0,3.0,0.0
7085,55.0,48.0,40.0,0.0,0.0
7086,58.0,48.0,40.0,0.0,0.0
7087,55.0,48.0,40.0,0.0,0.0
7088,51.0,34.0,40.0,0.0,0.0
7089,39.0,0.0,30.0,3.0,0.0
7090,55.0,62.0,30.0,0.0,0.0
7091,48.0,48.0,90.0,0.0,0.0
7092,41.0,48.0,40.0,3.0,0.0
7093,44.0,0.0,40.0,3.0,0.0
7094,56.0,0.0,40.0,0.0,0.0
7095,48.0,48.0,40.0,3.0,0.0
7096,53.0,0.0,240.0,1.0,0.0
7097,44.0,48.0,40.0,3.0,0.0
7098,41.0,34.0,40.0,3.0,0.0
7099,63.0,48.0,40.0,0.0,0.0
7100,44.0,14.0,30.0,3.0,0.0
7101,46.0,34.0,240.0,3.0,0.0
7102,62.0,48.0,40.0,0.0,0.0
7103,58.0,34.0,40.0,0.0,0.0
7104,63.0,14.0,30.0,0.0,0.0
7105,55.0,48.0,40.0,2.0,0.0
7106,62.0,48.0,40.0,0.0,0.0
7107,53.0,34.0,240.0,2.0,0.0
7108,58.0,0.0,40.0,0.0,0.0
7109,65.0,14.0,30.0,0.0,0.0
7110,45.0,48.0,40.0,3.0,0.0
7111,62.0,48.0,40.0,0.0,0.0
7112,46.0,34.0,240.0,3.0,0.0
7113,58.0,0.0,40.0,0.0,0.0
7114,63.0,14.0,30.0,0.0,0.0
7115,55.0,48.0,40.0,2.0,0.0
7116,62.0,48.0,40.0,0.0,0.0
7117,53.0,48.0,180.0,2.0,0.0
7118,58.0,0.0,40.0,0.0,0.0
7119,45.0,48.0,40.0,3.0,0.0
7120,65.0,14.0,30.0,0.0,0.0
7121,46.0,0.0,150.0,3.0,0.0
7122,62.0,0.0,40.0,0.0,0.0
7123,65.0,48.0,40.0,0.0,0.0
7124,50.0,0.0,40.0,2.0,0.0
7125,68.0,0.0,40.0,0.0,0.0
7126,53.0,48.0,40.0,2.0,0.0
7127,58.0,34.0,90.0,0.0,0.0
7128,50.0,48.0,40.0,2.0,0.0
7129,46.0,0.0,40.0,2.0,0.0
7130,67.0,0.0,30.0,0.0,0.0
7131,51.0,62.0,30.0,2.0,0.0
7132,63.0,0.0,40.0,0.0,0.0
7133,48.0,48.0,40.0,2.0,0.0
7134,67.0,0.0,40.0,0.0,0.0
7135,51.0,48.0,40.0,2.0,0.0
7136,70.0,0.0,40.0,0.0,0.0
7137,55.0,48.0,40.0,2.0,0.0
7138,51.0,48.0,40.0,2.0,0.0
7139,60.0,0.0,90.0,0.0,0.0
7140,48.0,34.0,40.0,2.0,0.0
7141,68.0,62.0,30.0,0.0,0.0
7142,53.0,0.0,30.0,2.0,0.0
7143,65.0,48.0,40.0,0.0,0.0
7144,50.0,0.0,40.0,3.0,0.0
7145,53.0,48.0,40.0,3.0,0.0
7146,68.0,0.0,40.0,0.0,0.0
7147,72.0,0.0,40.0,0.0,0.0
7148,56.0,48.0,40.0,3.0,0.0
7149,62.0,48.0,40.0,0.0,0.0
7150,53.0,0.0,40.0,3.0,0.0
7151,70.0,34.0,40.0,0.0,0.0
7152,50.0,0.0,40.0,3.0,0.0
7153,53.0,14.0,30.0,3.0,0.0
7154,68.0,48.0,40.0,0.0,0.0
7155,51.0,48.0,40.0,3.0,0.0
7156,67.0,0.0,40.0,0.0,0.0
7157,70.0,48.0,40.0,0.0,0.0
7158,55.0,0.0,40.0,3.0,0.0
7159,58.0,48.0,40.0,3.0,0.0
7160,75.0,0.0,40.0,0.0,0.0
7161,55.0,48.0,40.0,3.0,0.0
7162,70.0,0.0,40.0,0.0,0.0
7163,75.0,0.0,40.0,0.0,0.0
7164,58.0,48.0,40.0,3.0,0.0
7165,79.0,0.0,40.0,0.0,0.0
7166,63.0,48.0,40.0,3.0,0.0
7167,72.0,48.0,40.0,0.0,0.0
7168,56.0,0.0,40.0,3.0,0.0
7169,75.0,48.0,40.0,0.0,0.0
7170,60.0,0.0,40.0,3.0,0.0
7171,67.0,48.0,40.0,0.0,0.0
7172,63.0,0.0,40.0,3.0,0.0
7173,60.0,0.0,40.0,3.0,0.0
7174,68.0,48.0,40.0,0.0,0.0
7175,56.0,0.0,40.0,3.0,0.0
7176,72.0,34.0,40.0,0.0,0.0
7177,60.0,14.0,30.0,3.0,0.0
7178,63.0,48.0,40.0,0.0,0.0
7179,50.0,0.0,40.0,3.0,0.0
7180,65.0,48.0,40.0,0.0,0.0
7181,53.0,48.0,40.0,3.0,0.0
7182,68.0,0.0,40.0,0.0,0.0
7183,56.0,48.0,40.0,3.0,0.0
7184,74.0,0.0,40.0,0.0,0.0
7185,53.0,48.0,40.0,3.0,0.0
7186,68.0,0.0,40.0,0.0,0.0
7187,56.0,48.0,40.0,3.0,0.0
7188,74.0,0.0,40.0,0.0,0.0
7189,60.0,48.0,40.0,3.0,0.0
7190,77.0,0.0,40.0,0.0,0.0
7191,71.0,48.0,40.0,0.0,0.0
7192,55.0,0.0,40.0,3.0,0.0
7193,74.0,0.0,40.0,0.0,0.0
7194,59.0,48.0,40.0,3.0,0.0
7195,62.0,48.0,40.0,3.0,0.0
7196,65.0,0.0,40.0,0.0,0.0
7197,59.0,48.0,40.0,3.0,0.0
7198,67.0,0.0,40.0,0.0,0.0
7199,55.0,48.0,40.0,3.0,0.0
7200,71.0,0.0,40.0,0.0,0.0
7201,62.0,48.0,40.0,0.0,0.0
7202,59.0,0.0,40.0,3.0,0.0
7203,48.0,48.0,40.0,3.0,0.0
7204,63.0,0.0,40.0,0.0,0.0
7205,67.0,0.0,40.0,0.0,0.0
7206,51.0,48.0,40.0,3.0,0.0
7207,55.0,48.0,40.0,3.0,0.0
7208,72.0,0.0,40.0,0.0,0.0
7209,67.0,0.0,40.0,0.0,0.0
7210,51.0,48.0,40.0,3.0,0.0
7211,72.0,0.0,40.0,0.0,0.0
7212,55.0,48.0,40.0,3.0,0.0
7213,75.0,0.0,40.0,0.0,0.0
7214,60.0,48.0,40.0,3.0,0.0
7215,68.0,48.0,40.0,0.0,0.0
7216,53.0,0.0,40.0,3.0,0.0
7217,56.0,48.0,40.0,3.0,0.0
7218,72.0,0.0,40.0,0.0,0.0
7219,64.0,48.0,40.0,0.0,0.0
7220,60.0,0.0,40.0,3.0,0.0
7221,56.0,48.0,40.0,3.0,0.0
7222,65.0,0.0,40.0,0.0,0.0
7223,68.0,48.0,40.0,0.0,0.0
7224,53.0,0.0,40.0,3.0,0.0
7225,56.0,48.0,40.0,3.0,0.0
7226,72.0,0.0,40.0,0.0,0.0
7227,60.0,48.0,40.0,3.0,0.0
7228,77.0,0.0,90.0,0.0,0.0
7229,65.0,48.0,40.0,3.0,0.0
7230,68.0,48.0,40.0,1.0,0.0
7231,65.0,48.0,40.0,1.0,0.0
7232,62.0,34.0,40.0,1.0,0.0
7233,48.0,14.0,30.0,3.0,0.0
7234,65.0,48.0,40.0,1.0,0.0
7235,67.0,34.0,240.0,1.0,0.0
7236,47.0,48.0,40.0,3.0,0.0
7237,43.0,34.0,40.0,3.0,0.0
7238,75.0,48.0,40.0,0.0,0.0
7239,48.0,14.0,30.0,3.0,0.0
7240,47.0,48.0,40.0,3.0,0.0
7241,74.0,0.0,240.0,0.0,0.0
7242,43.0,0.0,40.0,3.0,0.0
7243,50.0,14.0,30.0,3.0,0.0
7244,65.0,48.0,40.0,1.0,0.0
7245,47.0,48.0,40.0,3.0,0.0
7246,67.0,34.0,240.0,1.0,0.0
7247,43.0,34.0,40.0,3.0,0.0
7248,48.0,14.0,30.0,3.0,0.0
7249,75.0,48.0,40.0,0.0,0.0
7250,74.0,0.0,300.0,0.0,0.0
7251,47.0,48.0,40.0,3.0,0.0
7252,43.0,0.0,40.0,3.0,0.0
7253,50.0,14.0,30.0,3.0,0.0
7254,65.0,48.0,40.0,1.0,0.0
7255,47.0,0.0,40.0,3.0,0.0
7256,67.0,48.0,40.0,1.0,0.0
7257,50.0,0.0,40.0,3.0,0.0
7258,71.0,48.0,40.0,1.0,0.0
7259,53.0,0.0,40.0,3.0,0.0
7260,74.0,48.0,40.0,1.0,0.0
7261,75.0,30.0,270.0,0.0,0.0
7262,71.0,48.0,40.0,1.0,0.0
7263,43.0,34.0,90.0,3.0,0.0
7264,67.0,0.0,40.0,1.0,0.0
7265,51.0,14.0,30.0,3.0,0.0
7266,72.0,48.0,40.0,1.0,0.0
7267,48.0,0.0,40.0,3.0,0.0
7268,69.0,48.0,40.0,1.0,0.0
7269,72.0,0.0,40.0,1.0,0.0
7270,51.0,18.0,40.0,3.0,0.0
7271,75.0,0.0,40.0,1.0,0.0
7272,55.0,48.0,40.0,3.0,0.0
7273,77.0,0.0,300.0,0.0,0.0
7274,45.0,0.0,90.0,3.0,0.0
7275,72.0,48.0,40.0,1.0,0.0
7276,69.0,34.0,40.0,1.0,0.0
7277,75.0,48.0,40.0,1.0,0.0
7278,53.0,14.0,30.0,3.0,0.0
7279,71.0,48.0,40.0,1.0,0.0
7280,50.0,0.0,40.0,3.0,0.0
7281,74.0,0.0,40.0,1.0,0.0
7282,53.0,48.0,40.0,3.0,0.0
7283,56.0,0.0,40.0,3.0,0.0
7284,77.0,48.0,40.0,1.0,0.0
7285,74.0,48.0,40.0,1.0,0.0
7286,79.0,48.0,480.0,0.0,0.0
7287,47.0,0.0,40.0,3.0,0.0
7288,55.0,0.0,40.0,3.0,0.0
7289,71.0,48.0,40.0,1.0,0.0
7290,74.0,0.0,40.0,1.0,0.0
7291,53.0,48.0,40.0,3.0,0.0
7292,72.0,0.0,40.0,1.0,0.0
7293,51.0,48.0,40.0,3.0,0.0
7294,75.0,0.0,40.0,1.0,0.0
7295,48.0,48.0,40.0,3.0,0.0
7296,71.0,48.0,40.0,1.0,0.0
7297,43.0,0.0,40.0,3.0,0.0
7298,48.0,48.0,40.0,3.0,0.0
7299,72.0,0.0,40.0,1.0,0.0
7300,75.0,0.0,40.0,1.0,0.0
7301,43.0,48.0,40.0,3.0,0.0
7302,39.0,0.0,40.0,3.0,0.0
7303,71.0,48.0,40.0,1.0,0.0
7304,44.0,0.0,180.0,3.0,0.0
7305,72.0,0.0,90.0,1.0,0.0
7306,76.0,48.0,40.0,0.0,0.0
7307,77.0,48.0,40.0,0.0,0.0
7308,73.0,48.0,40.0,0.0,0.0
7309,43.0,0.0,40.0,3.0,0.0
7310,71.0,48.0,40.0,0.0,0.0
7311,44.0,48.0,40.0,3.0,0.0
7312,72.0,0.0,40.0,0.0,0.0
7313,68.0,0.0,40.0,0.0,0.0
7314,41.0,48.0,40.0,3.0,0.0
7315,64.0,0.0,40.0,0.0,0.0
7316,43.0,48.0,40.0,3.0,0.0
7317,44.0,0.0,40.0,3.0,0.0
7318,65.0,48.0,40.0,0.0,0.0
7319,61.0,48.0,40.0,0.0,0.0
7320,41.0,0.0,40.0,3.0,0.0
7321,43.0,0.0,40.0,3.0,0.0
7322,59.0,48.0,40.0,0.0,0.0
7323,60.0,48.0,40.0,0.0,0.0
7324,44.0,0.0,40.0,3.0,0.0
7325,38.0,48.0,40.0,3.0,0.0
7326,59.0,0.0,40.0,0.0,0.0
7327,62.0,48.0,40.0,0.0,0.0
7328,41.0,0.0,40.0,3.0,0.0
7329,65.0,0.0,40.0,0.0,0.0
7330,44.0,48.0,40.0,3.0,0.0
7331,68.0,0.0,40.0,0.0,0.0
7332,47.0,48.0,40.0,3.0,0.0
7333,67.0,0.0,40.0,0.0,0.0
7334,50.0,48.0,40.0,3.0,0.0
7335,71.0,0.0,40.0,0.0,0.0
7336,53.0,48.0,40.0,3.0,0.0
7337,72.0,0.0,40.0,0.0,0.0
7338,51.0,48.0,40.0,3.0,0.0
7339,74.0,48.0,40.0,0.0,0.0
7340,50.0,0.0,40.0,3.0,0.0
7341,48.0,0.0,40.0,3.0,0.0
7342,75.0,48.0,40.0,0.0,0.0
7343,55.0,48.0,90.0,3.0,0.0
7344,70.0,0.0,90.0,1.0,0.0
7345,67.0,48.0,40.0,0.0,0.0
7346,72.0,0.0,40.0,0.0,0.0
7347,71.0,0.0,40.0,0.0,0.0
7348,43.0,48.0,40.0,3.0,0.0
7349,48.0,34.0,90.0,3.0,0.0
7350,72.0,0.0,660.0,0.0,0.0
7351,63.0,48.0,40.0,1.0,0.0
7352,60.0,0.0,40.0,1.0,0.0
7353,65.0,14.0,30.0,1.0,0.0
7354,44.0,48.0,40.0,3.0,0.0
7355,43.0,0.0,90.0,3.0,0.0
7356,63.0,48.0,40.0,1.0,0.0
7357,60.0,34.0,40.0,1.0,0.0
7358,47.0,48.0,40.0,3.0,0.0
7359,67.0,14.0,30.0,1.0,0.0
7360,63.0,48.0,40.0,1.0,0.0
7361,48.0,34.0,90.0,3.0,0.0
7362,60.0,0.0,40.0,1.0,0.0
7363,44.0,48.0,40.0,3.0,0.0
7364,65.0,14.0,30.0,1.0,0.0
7365,43.0,34.0,90.0,3.0,0.0
7366,63.0,48.0,40.0,1.0,0.0
7367,60.0,0.0,40.0,1.0,0.0
7368,67.0,14.0,30.0,1.0,0.0
7369,47.0,48.0,40.0,3.0,0.0
7370,64.0,0.0,40.0,1.0,0.0
7371,48.0,48.0,40.0,3.0,0.0
7372,52.0,48.0,40.0,3.0,0.0
7373,67.0,0.0,40.0,1.0,0.0
7374,55.0,0.0,40.0,3.0,0.0
7375,70.0,48.0,40.0,1.0,0.0
7376,52.0,48.0,40.0,3.0,0.0
7377,60.0,48.0,90.0,1.0,0.0
7378,48.0,0.0,40.0,3.0,0.0
7379,53.0,48.0,40.0,3.0,0.0
7380,68.0,0.0,40.0,1.0,0.0
7381,50.0,0.0,40.0,3.0,0.0
7382,65.0,48.0,40.0,1.0,0.0
7383,53.0,0.0,40.0,3.0,0.0
7384,68.0,48.0,40.0,1.0,0.0
7385,56.0,0.0,40.0,3.0,0.0
7386,72.0,48.0,40.0,1.0,0.0
7387,53.0,48.0,40.0,3.0,0.0
7388,62.0,0.0,90.0,1.0,0.0
7389,50.0,48.0,40.0,3.0,0.0
7390,55.0,48.0,40.0,3.0,0.0
7391,70.0,0.0,40.0,1.0,0.0
7392,67.0,0.0,40.0,0.0,0.0
7393,52.0,48.0,40.0,3.0,0.0
7394,55.0,0.0,40.0,3.0,0.0
7395,70.0,48.0,40.0,0.0,0.0
7396,58.0,48.0,40.0,3.0,0.0
7397,73.0,0.0,40.0,0.0,0.0
7398,64.0,0.0,150.0,1.0,0.0
7399,55.0,48.0,40.0,3.0,0.0
7400,72.0,0.0,40.0,0.0,0.0
7401,52.0,48.0,40.0,3.0,0.0
7402,70.0,48.0,40.0,0.0,0.0
7403,55.0,0.0,40.0,3.0,0.0
7404,68.0,48.0,40.0,0.0,0.0
7405,53.0,34.0,240.0,3.0,0.0
7406,65.0,34.0,40.0,0.0,0.0
7407,61.0,48.0,40.0,2.0,0.0
7408,70.0,14.0,30.0,0.0,0.0
7409,60.0,34.0,240.0,2.0,0.0
7410,68.0,48.0,40.0,0.0,0.0
7411,65.0,0.0,40.0,0.0,0.0
7412,47.0,48.0,40.0,3.0,0.0
7413,72.0,14.0,30.0,0.0,0.0
7414,53.0,0.0,240.0,3.0,0.0
7415,68.0,48.0,40.0,0.0,0.0
7416,65.0,0.0,40.0,0.0,0.0
7417,70.0,14.0,30.0,0.0,0.0
7418,61.0,48.0,40.0,2.0,0.0
7419,60.0,48.0,180.0,2.0,0.0
7420,68.0,48.0,40.0,0.0,0.0
7421,65.0,34.0,40.0,0.0,0.0
7422,72.0,14.0,30.0,0.0,0.0
7423,52.0,48.0,40.0,3.0,0.0
7424,69.0,0.0,40.0,0.0,0.0
7425,53.0,0.0,90.0,3.0,0.0
7426,72.0,48.0,40.0,0.0,0.0
7427,57.0,0.0,40.0,2.0,0.0
7428,75.0,0.0,40.0,0.0,0.0
7429,60.0,48.0,40.0,2.0,0.0
7430,57.0,48.0,40.0,2.0,0.0
7431,65.0,34.0,90.0,0.0,0.0
7432,53.0,0.0,40.0,2.0,0.0
7433,58.0,48.0,40.0,2.0,0.0
7434,74.0,14.0,30.0,0.0,0.0
7435,70.0,48.0,40.0,0.0,0.0
7436,55.0,0.0,40.0,2.0,0.0
7437,74.0,0.0,40.0,0.0,0.0
7438,58.0,48.0,40.0,1.0,0.0
7439,62.0,48.0,40.0,1.0,0.0
7440,77.0,0.0,40.0,0.0,0.0
7441,58.0,48.0,40.0,1.0,0.0
7442,67.0,0.0,90.0,0.0,0.0
7443,55.0,34.0,40.0,1.0,0.0
7444,60.0,48.0,40.0,1.0,0.0
7445,75.0,14.0,30.0,0.0,0.0
7446,57.0,48.0,40.0,1.0,0.0
7447,72.0,0.0,40.0,0.0,0.0
7448,60.0,0.0,40.0,1.0,0.0
7449,75.0,48.0,40.0,0.0,0.0
7450,63.0,48.0,40.0,1.0,0.0
7451,79.0,0.0,40.0,0.0,0.0
7452,60.0,48.0,40.0,1.0,0.0
7453,69.0,0.0,40.0,0.0,0.0
7454,57.0,48.0,40.0,1.0,0.0
7455,77.0,0.0,40.0,0.0,0.0
7456,75.0,48.0,40.0,0.0,0.0
7457,60.0,0.0,40.0,1.0,0.0
7458,58.0,34.0,90.0,1.0,0.0
7459,74.0,48.0,40.0,0.0,0.0
7460,70.0,0.0,40.0,0.0,0.0
7461,67.0,48.0,40.0,1.0,0.0
7462,75.0,14.0,30.0,0.0,0.0
7463,74.0,48.0,40.0,0.0,0.0
7464,65.0,34.0,90.0,1.0,0.0
7465,70.0,0.0,40.0,0.0,0.0
7466,77.0,14.0,30.0,0.0,0.0
7467,57.0,48.0,40.0,1.0,0.0
7468,58.0,0.0,90.0,1.0,0.0
7469,74.0,48.0,40.0,0.0,0.0
7470,70.0,34.0,40.0,0.0,0.0
7471,75.0,14.0,30.0,0.0,0.0
7472,67.0,48.0,40.0,1.0,0.0
7473,74.0,48.0,40.0,0.0,0.0
7474,65.0,0.0,90.0,1.0,0.0
7475,70.0,34.0,40.0,0.0,0.0
7476,77.0,14.0,30.0,0.0,0.0
7477,57.0,48.0,40.0,1.0,0.0
7478,58.0,48.0,40.0,1.0,0.0
7479,74.0,0.0,40.0,0.0,0.0
7480,77.0,48.0,40.0,0.0,0.0
7481,62.0,0.0,40.0,1.0,0.0
7482,65.0,48.0,40.0,1.0,0.0
7483,80.0,0.0,40.0,0.0,0.0
7484,70.0,0.0,90.0,0.0,0.0
7485,62.0,48.0,40.0,1.0,0.0
7486,58.0,34.0,40.0,1.0,0.0
7487,63.0,48.0,40.0,1.0,0.0
7488,79.0,14.0,30.0,0.0,0.0
7489,56.0,48.0,40.0,1.0,0.0
7490,72.0,0.0,40.0,0.0,0.0
7491,75.0,0.0,40.0,0.0,0.0
7492,60.0,48.0,40.0,1.0,0.0
7493,79.0,0.0,40.0,0.0,0.0
7494,63.0,48.0,40.0,1.0,0.0
7495,60.0,48.0,40.0,1.0,0.0
7496,68.0,0.0,90.0,0.0,0.0
7497,56.0,34.0,40.0,1.0,0.0
7498,62.0,48.0,40.0,1.0,0.0
7499,77.0,14.0,30.0,0.0,0.0
7500,70.0,0.0,40.0,0.0,0.0
7501,55.0,48.0,40.0,1.0,0.0
7502,74.0,48.0,40.0,0.0,0.0
7503,58.0,0.0,40.0,1.0,0.0
7504,62.0,0.0,40.0,1.0,0.0
7505,77.0,48.0,40.0,0.0,0.0
7506,58.0,48.0,40.0,1.0,0.0
7507,67.0,0.0,90.0,0.0,0.0
7508,55.0,34.0,40.0,1.0,0.0
7509,58.0,48.0,40.0,1.0,0.0
7510,75.0,14.0,30.0,0.0,0.0
7511,68.0,48.0,40.0,0.0,0.0
7512,53.0,0.0,40.0,3.0,0.0
7513,56.0,48.0,40.0,3.0,0.0
7514,72.0,0.0,40.0,0.0,0.0
7515,60.0,48.0,40.0,3.0,0.0
7516,75.0,0.0,40.0,0.0,0.0
7517,65.0,0.0,40.0,0.0,0.0
7518,56.0,48.0,40.0,3.0,0.0
7519,68.0,0.0,40.0,0.0,0.0
7520,53.0,48.0,40.0,3.0,0.0
7521,56.0,0.0,40.0,3.0,0.0
7522,72.0,48.0,40.0,0.0,0.0
7523,58.0,0.0,40.0,3.0,0.0
7524,62.0,48.0,40.0,0.0,0.0
7525,53.0,0.0,40.0,3.0,0.0
7526,65.0,48.0,40.0,0.0,0.0
7527,50.0,48.0,40.0,3.0,0.0
7528,68.0,0.0,40.0,0.0,0.0
7529,46.0,0.0,90.0,3.0,0.0
7530,58.0,48.0,40.0,0.0,0.0
7531,62.0,34.0,40.0,0.0,0.0
7532,41.0,14.0,30.0,3.0,0.0
7533,65.0,48.0,40.0,0.0,0.0
7534,38.0,48.0,40.0,3.0,0.0
7535,68.0,34.0,240.0,0.0,0.0
7536,34.0,34.0,40.0,3.0,0.0
7537,67.0,48.0,40.0,1.0,0.0
7538,39.0,14.0,30.0,3.0,0.0
7539,38.0,48.0,40.0,3.0,0.0
7540,65.0,48.0,150.0,1.0,0.0
7541,34.0,0.0,40.0,3.0,0.0
7542,68.0,0.0,300.0,0.0,0.0
7543,41.0,14.0,30.0,3.0,0.0
7544,58.0,34.0,90.0,1.0,0.0
7545,38.0,48.0,40.0,3.0,0.0
7546,34.0,0.0,40.0,3.0,0.0
7547,67.0,48.0,40.0,1.0,0.0
7548,39.0,14.0,30.0,3.0,0.0
7549,38.0,48.0,40.0,3.0,0.0
7550,65.0,48.0,150.0,1.0,0.0
7551,34.0,34.0,40.0,3.0,0.0
7552,68.0,48.0,240.0,0.0,0.0
7553,41.0,14.0,30.0,3.0,0.0
7554,38.0,0.0,40.0,3.0,0.0
7555,58.0,48.0,40.0,1.0,0.0
7556,41.0,0.0,40.0,3.0,0.0
7557,62.0,48.0,40.0,1.0,0.0
7558,65.0,0.0,40.0,1.0,0.0
7559,44.0,48.0,40.0,3.0,0.0
7560,34.0,34.0,90.0,3.0,0.0
7561,62.0,48.0,150.0,1.0,0.0
7562,65.0,0.0,40.0,0.0,0.0
7563,70.0,48.0,240.0,0.0,0.0
7564,43.0,14.0,30.0,3.0,0.0
7565,39.0,0.0,40.0,3.0,0.0
7566,60.0,48.0,40.0,1.0,0.0
7567,63.0,48.0,40.0,1.0,0.0
7568,43.0,0.0,40.0,3.0,0.0
7569,67.0,48.0,40.0,1.0,0.0
7570,46.0,0.0,40.0,3.0,0.0
7571,63.0,48.0,150.0,1.0,0.0
7572,36.0,0.0,90.0,3.0,0.0
7573,67.0,34.0,40.0,0.0,0.0
7574,72.0,48.0,240.0,0.0,0.0
7575,44.0,14.0,30.0,3.0,0.0
7576,62.0,48.0,40.0,1.0,0.0
7577,41.0,0.0,40.0,3.0,0.0
7578,44.0,0.0,40.0,3.0,0.0
7579,65.0,48.0,40.0,1.0,0.0
7580,68.0,0.0,40.0,1.0,0.0
7581,48.0,48.0,40.0,3.0,0.0
7582,38.0,0.0,40.0,3.0,0.0
7583,65.0,0.0,150.0,1.0,0.0
7584,68.0,0.0,40.0,0.0,0.0
7585,46.0,48.0,40.0,3.0,0.0
7586,74.0,0.0,40.0,0.0,0.0
7587,44.0,48.0,40.0,3.0,0.0
7588,43.0,48.0,40.0,3.0,0.0
7589,75.0,48.0,180.0,0.0,0.0
7590,46.0,48.0,40.0,3.0,0.0
7591,70.0,0.0,40.0,1.0,0.0
7592,67.0,0.0,40.0,1.0,0.0
7593,51.0,48.0,40.0,3.0,0.0
7594,55.0,0.0,40.0,3.0,0.0
7595,63.0,48.0,150.0,1.0,0.0
7596,51.0,48.0,40.0,3.0,0.0
7597,73.0,0.0,40.0,0.0,0.0
7598,70.0,0.0,40.0,0.0,0.0
7599,55.0,0.0,40.0,3.0,0.0
7600,72.0,0.0,150.0,0.0,0.0
7601,56.0,48.0,40.0,3.0,0.0
7602,53.0,0.0,40.0,3.0,0.0
7603,68.0,48.0,40.0,1.0,0.0
7604,65.0,48.0,40.0,1.0,0.0
7605,50.0,0.0,40.0,3.0,0.0
7606,62.0,0.0,150.0,1.0,0.0
7607,46.0,48.0,40.0,3.0,0.0
7608,65.0,48.0,40.0,0.0,0.0
7609,50.0,0.0,40.0,3.0,0.0
7610,53.0,0.0,40.0,3.0,0.0
7611,68.0,48.0,40.0,0.0,0.0
7612,67.0,48.0,40.0,0.0,0.0
7613,51.0,0.0,90.0,3.0,0.0
7614,65.0,48.0,40.0,0.0,0.0
7615,63.0,0.0,40.0,0.0,0.0
7616,60.0,0.0,40.0,1.0,0.0
7617,44.0,48.0,40.0,3.0,0.0
7618,58.0,0.0,90.0,1.0,0.0
7619,46.0,48.0,90.0,3.0,0.0
7620,63.0,48.0,40.0,0.0,0.0
7621,65.0,0.0,40.0,0.0,0.0
7622,62.0,0.0,40.0,0.0,0.0
7623,34.0,0.0,40.0,3.0,0.0
7624,56.0,48.0,40.0,1.0,0.0
7625,63.0,0.0,240.0,0.0,0.0
7626,39.0,48.0,40.0,2.0,0.0
7627,39.0,34.0,240.0,3.0,0.0
7628,58.0,0.0,180.0,1.0,0.0
7629,43.0,48.0,40.0,2.0,0.0
7630,55.0,0.0,150.0,1.0,0.0
7631,46.0,96.0,40.0,2.0,0.0
7632,51.0,0.0,90.0,2.0,0.0
7633,53.0,62.0,30.0,3.0,0.0
7634,50.0,48.0,40.0,3.0,0.0
7635,46.0,34.0,40.0,3.0,0.0
7636,51.0,62.0,30.0,3.0,0.0
7637,50.0,48.0,40.0,3.0,0.0
7638,46.0,34.0,40.0,3.0,0.0
7639,53.0,62.0,30.0,3.0,0.0
7640,50.0,48.0,40.0,3.0,0.0
7641,46.0,34.0,40.0,3.0,0.0
7642,51.0,62.0,30.0,3.0,0.0
7643,50.0,48.0,40.0,3.0,0.0
7644,46.0,34.0,40.0,3.0,0.0
7645,53.0,62.0,30.0,3.0,0.0
7646,50.0,48.0,40.0,3.0,0.0
7647,53.0,48.0,40.0,3.0,0.0
7648,56.0,96.0,40.0,3.0,0.0
7649,46.0,34.0,90.0,3.0,0.0
7650,55.0,62.0,30.0,3.0,0.0
7651,51.0,48.0,40.0,3.0,0.0
7652,55.0,48.0,40.0,3.0,0.0
7653,58.0,96.0,40.0,3.0,0.0
7654,48.0,34.0,90.0,3.0,0.0
7655,56.0,62.0,30.0,3.0,0.0
7656,53.0,48.0,40.0,3.0,0.0
7657,56.0,48.0,40.0,3.0,0.0
7658,60.0,48.0,40.0,3.0,0.0
7659,50.0,48.0,40.0,3.0,0.0
7660,58.0,48.0,40.0,3.0,0.0
7661,56.0,48.0,40.0,3.0,0.0
7662,55.0,48.0,40.0,3.0,0.0
7663,51.0,48.0,40.0,3.0,0.0
7664,46.0,48.0,40.0,3.0,0.0
7665,51.0,48.0,40.0,3.0,0.0
7666,46.0,48.0,40.0,3.0,0.0
7667,58.0,0.0,40.0,0.0,0.0
7668,43.0,48.0,40.0,3.0,0.0
7669,39.0,0.0,90.0,3.0,0.0
7670,55.0,48.0,40.0,0.0,0.0
7671,51.0,34.0,40.0,0.0,0.0
7672,56.0,14.0,30.0,0.0,0.0
7673,48.0,48.0,40.0,3.0,0.0
7674,46.0,0.0,90.0,3.0,0.0
7675,55.0,48.0,40.0,0.0,0.0
7676,51.0,34.0,40.0,0.0,0.0
7677,38.0,48.0,40.0,3.0,0.0
7678,58.0,14.0,30.0,0.0,0.0
7679,55.0,48.0,40.0,0.0,0.0
7680,39.0,0.0,90.0,3.0,0.0
7681,51.0,34.0,40.0,0.0,0.0
7682,48.0,48.0,40.0,3.0,0.0
7683,56.0,14.0,30.0,0.0,0.0
7684,46.0,0.0,90.0,3.0,0.0
7685,55.0,48.0,40.0,0.0,0.0
7686,51.0,34.0,40.0,0.0,0.0
7687,58.0,14.0,30.0,0.0,0.0
7688,38.0,48.0,40.0,3.0,0.0
7689,55.0,0.0,40.0,0.0,0.0
7690,39.0,48.0,40.0,3.0,0.0
7691,43.0,48.0,40.0,3.0,0.0
7692,58.0,0.0,40.0,0.0,0.0
7693,61.0,0.0,40.0,0.0,0.0
7694,46.0,48.0,40.0,3.0,0.0
7695,43.0,48.0,40.0,3.0,0.0
7696,51.0,0.0,90.0,0.0,0.0
7697,39.0,34.0,40.0,3.0,0.0
7698,44.0,0.0,30.0,3.0,0.0
7699,60.0,62.0,30.0,0.0,0.0
7700,41.0,48.0,40.0,3.0,0.0
7701,56.0,0.0,40.0,0.0,0.0
7702,44.0,48.0,40.0,3.0,0.0
7703,60.0,0.0,40.0,0.0,0.0
7704,63.0,0.0,40.0,0.0,0.0
7705,48.0,48.0,40.0,3.0,0.0
7706,44.0,48.0,40.0,3.0,0.0
7707,53.0,34.0,90.0,0.0,0.0
7708,41.0,0.0,40.0,3.0,0.0
7709,46.0,0.0,30.0,3.0,0.0
7710,61.0,62.0,30.0,0.0,0.0
7711,58.0,48.0,40.0,0.0,0.0
7712,43.0,0.0,40.0,3.0,0.0
7713,46.0,0.0,40.0,3.0,0.0
7714,61.0,48.0,40.0,0.0,0.0
7715,49.0,48.0,40.0,3.0,0.0
7716,65.0,0.0,40.0,0.0,0.0
7717,55.0,0.0,40.0,0.0,0.0
7718,46.0,48.0,40.0,3.0,0.0
7719,43.0,34.0,40.0,3.0,0.0
7720,63.0,0.0,40.0,0.0,0.0
7721,61.0,48.0,40.0,0.0,0.0
7722,46.0,14.0,30.0,3.0,0.0
7723,60.0,0.0,150.0,0.0,0.0
7724,44.0,48.0,40.0,3.0,0.0
7725,48.0,48.0,40.0,3.0,0.0
7726,51.0,48.0,40.0,3.0,0.0
7727,48.0,48.0,40.0,3.0,0.0
7728,44.0,34.0,40.0,3.0,0.0
7729,48.0,0.0,30.0,3.0,0.0
7730,56.0,62.0,30.0,0.0,0.0
7731,38.0,0.0,150.0,3.0,0.0
7732,53.0,48.0,40.0,0.0,0.0
7733,56.0,48.0,40.0,0.0,0.0
7734,60.0,48.0,40.0,0.0,0.0
7735,56.0,48.0,40.0,0.0,0.0
7736,53.0,34.0,40.0,0.0,0.0
7737,41.0,48.0,40.0,3.0,0.0
7738,56.0,14.0,30.0,0.0,0.0
7739,43.0,48.0,40.0,3.0,0.0
7740,50.0,48.0,90.0,0.0,0.0
7741,46.0,0.0,40.0,3.0,0.0
7742,50.0,16.0,40.0,3.0,0.0
7743,58.0,0.0,40.0,0.0,0.0
7744,56.0,16.0,15.0,0.0,0.0
7745,46.0,0.0,40.0,3.0,0.0
7746,55.0,16.0,15.0,0.0,0.0
7747,56.0,48.0,15.0,0.0,0.0
7748,43.0,0.0,40.0,3.0,0.0
7749,55.0,34.0,40.0,0.0,0.0
7750,53.0,62.0,30.0,0.0,0.0
7751,46.0,0.0,30.0,3.0,0.0
7752,36.0,0.0,150.0,3.0,0.0
7753,51.0,48.0,40.0,0.0,0.0
7754,55.0,48.0,40.0,0.0,0.0
7755,58.0,48.0,40.0,0.0,0.0
7756,55.0,48.0,40.0,0.0,0.0
7757,51.0,34.0,40.0,0.0,0.0
7758,55.0,62.0,30.0,0.0,0.0
7759,39.0,0.0,30.0,3.0,0.0
7760,48.0,0.0,90.0,0.0,0.0
7761,41.0,48.0,40.0,3.0,0.0
7762,44.0,48.0,40.0,3.0,0.0
7763,48.0,0.0,40.0,3.0,0.0
7764,56.0,48.0,40.0,0.0,0.0
7765,44.0,48.0,40.0,3.0,0.0
7766,53.0,0.0,240.0,1.0,0.0
7767,41.0,34.0,40.0,3.0,0.0
7768,63.0,48.0,40.0,0.0,0.0
7769,44.0,14.0,30.0,3.0,0.0
7770,46.0,0.0,240.0,3.0,0.0
7771,62.0,48.0,40.0,0.0,0.0
7772,58.0,34.0,40.0,0.0,0.0
7773,55.0,48.0,40.0,2.0,0.0
7774,63.0,14.0,30.0,0.0,0.0
7775,53.0,34.0,240.0,2.0,0.0
7776,62.0,48.0,40.0,0.0,0.0
7777,58.0,34.0,40.0,0.0,0.0
7778,65.0,14.0,30.0,0.0,0.0
7779,45.0,48.0,40.0,3.0,0.0
7780,62.0,48.0,40.0,0.0,0.0
7781,46.0,34.0,240.0,3.0,0.0
7782,58.0,0.0,40.0,0.0,0.0
7783,63.0,14.0,30.0,0.0,0.0
7784,55.0,48.0,40.0,2.0,0.0
7785,62.0,48.0,40.0,0.0,0.0
7786,53.0,48.0,180.0,2.0,0.0
7787,58.0,0.0,40.0,0.0,0.0
7788,45.0,48.0,40.0,3.0,0.0
7789,65.0,14.0,30.0,0.0,0.0
7790,62.0,0.0,40.0,0.0,0.0
7791,46.0,48.0,150.0,3.0,0.0
7792,65.0,48.0,40.0,0.0,0.0
7793,50.0,0.0,40.0,2.0,0.0
7794,68.0,0.0,40.0,0.0,0.0
7795,53.0,0.0,40.0,2.0,0.0
7796,58.0,34.0,90.0,0.0,0.0
7797,50.0,48.0,40.0,2.0,0.0
7798,46.0,0.0,40.0,2.0,0.0
7799,67.0,62.0,30.0,0.0,0.0
7800,51.0,0.0,30.0,2.0,0.0
7801,48.0,48.0,40.0,2.0,0.0
7802,63.0,0.0,40.0,0.0,0.0
7803,67.0,48.0,40.0,0.0,0.0
7804,51.0,0.0,40.0,2.0,0.0
7805,55.0,0.0,40.0,2.0,0.0
7806,70.0,48.0,40.0,0.0,0.0
7807,51.0,48.0,40.0,2.0,0.0
7808,60.0,34.0,90.0,0.0,0.0
7809,48.0,0.0,40.0,2.0,0.0
7810,68.0,0.0,30.0,0.0,0.0
7811,53.0,62.0,30.0,2.0,0.0
7812,65.0,48.0,40.0,0.0,0.0
7813,50.0,0.0,40.0,3.0,0.0
7814,53.0,0.0,40.0,3.0,0.0
7815,68.0,48.0,40.0,0.0,0.0
7816,72.0,0.0,40.0,0.0,0.0
7817,56.0,48.0,40.0,3.0,0.0
7818,62.0,0.0,40.0,0.0,0.0
7819,53.0,48.0,40.0,3.0,0.0
7820,50.0,34.0,40.0,3.0,0.0
7821,70.0,0.0,40.0,0.0,0.0
7822,68.0,48.0,40.0,0.0,0.0
7823,53.0,14.0,30.0,3.0,0.0
7824,51.0,48.0,40.0,3.0,0.0
7825,67.0,0.0,40.0,0.0,0.0
7826,70.0,0.0,40.0,0.0,0.0
7827,55.0,48.0,40.0,3.0,0.0
7828,75.0,0.0,40.0,0.0,0.0
7829,58.0,48.0,40.0,3.0,0.0
7830,55.0,48.0,40.0,3.0,0.0
7831,70.0,0.0,40.0,0.0,0.0
7832,75.0,0.0,40.0,0.0,0.0
7833,58.0,48.0,40.0,3.0,0.0
7834,63.0,48.0,40.0,3.0,0.0
7835,79.0,0.0,40.0,0.0,0.0
7836,56.0,48.0,40.0,3.0,0.0
7837,72.0,0.0,40.0,0.0,0.0
7838,60.0,0.0,40.0,3.0,0.0
7839,75.0,48.0,40.0,0.0,0.0
7840,67.0,0.0,40.0,0.0,0.0
7841,63.0,48.0,40.0,3.0,0.0
7842,68.0,48.0,40.0,0.0,0.0
7843,60.0,0.0,40.0,3.0,0.0
7844,56.0,34.0,40.0,3.0,0.0
7845,72.0,0.0,40.0,0.0,0.0
7846,63.0,48.0,40.0,0.0,0.0
7847,60.0,14.0,30.0,3.0,0.0
7848,65.0,0.0,40.0,0.0,0.0
7849,50.0,48.0,40.0,3.0,0.0
7850,68.0,48.0,40.0,0.0,0.0
7851,53.0,0.0,40.0,3.0,0.0
7852,74.0,0.0,40.0,0.0,0.0
7853,56.0,48.0,40.0,3.0,0.0
7854,68.0,0.0,40.0,0.0,0.0
7855,53.0,48.0,40.0,3.0,0.0
7856,56.0,48.0,40.0,3.0,0.0
7857,74.0,0.0,40.0,0.0,0.0
7858,60.0,48.0,40.0,3.0,0.0
7859,77.0,0.0,40.0,0.0,0.0
7860,55.0,48.0,40.0,3.0,0.0
7861,71.0,0.0,40.0,0.0,0.0
7862,59.0,0.0,40.0,3.0,0.0
7863,74.0,48.0,40.0,0.0,0.0
7864,62.0,0.0,40.0,3.0,0.0
7865,65.0,48.0,40.0,0.0,0.0
7866,59.0,0.0,40.0,3.0,0.0
7867,67.0,48.0,40.0,0.0,0.0
7868,55.0,0.0,40.0,3.0,0.0
7869,71.0,48.0,40.0,0.0,0.0
7870,59.0,0.0,40.0,3.0,0.0
7871,62.0,48.0,40.0,0.0,0.0
7872,48.0,0.0,40.0,3.0,0.0
7873,63.0,48.0,40.0,0.0,0.0
7874,51.0,48.0,40.0,3.0,0.0
7875,67.0,0.0,40.0,0.0,0.0
7876,55.0,48.0,40.0,3.0,0.0
7877,72.0,0.0,40.0,0.0,0.0
7878,51.0,48.0,40.0,3.0,0.0
7879,67.0,0.0,40.0,0.0,0.0
7880,72.0,0.0,40.0,0.0,0.0
7881,55.0,48.0,40.0,3.0,0.0
7882,75.0,0.0,40.0,0.0,0.0
7883,60.0,48.0,40.0,3.0,0.0
7884,68.0,48.0,40.0,0.0,0.0
7885,53.0,0.0,40.0,3.0,0.0
7886,72.0,48.0,40.0,0.0,0.0
7887,56.0,0.0,40.0,3.0,0.0
7888,60.0,0.0,40.0,3.0,0.0
7889,64.0,48.0,40.0,0.0,0.0
7890,56.0,0.0,40.0,3.0,0.0
7891,65.0,48.0,40.0,0.0,0.0
7892,68.0,48.0,40.0,0.0,0.0
7893,53.0,0.0,40.0,3.0,0.0
7894,56.0,0.0,40.0,3.0,0.0
7895,72.0,48.0,40.0,0.0,0.0
7896,77.0,48.0,90.0,0.0,0.0
7897,60.0,48.0,40.0,3.0,0.0
7898,65.0,0.0,40.0,3.0,0.0
7899,68.0,48.0,40.0,1.0,0.0
7900,65.0,48.0,40.0,1.0,0.0
7901,62.0,34.0,40.0,1.0,0.0
7902,65.0,48.0,40.0,1.0,0.0
7903,48.0,14.0,30.0,3.0,0.0
7904,47.0,48.0,40.0,3.0,0.0
7905,67.0,0.0,240.0,1.0,0.0
7906,43.0,34.0,40.0,3.0,0.0
7907,75.0,48.0,40.0,0.0,0.0
7908,48.0,14.0,30.0,3.0,0.0
7909,47.0,48.0,40.0,3.0,0.0
7910,74.0,34.0,240.0,0.0,0.0
7911,43.0,34.0,40.0,3.0,0.0
7912,50.0,14.0,30.0,3.0,0.0
7913,65.0,48.0,40.0,1.0,0.0
7914,47.0,48.0,40.0,3.0,0.0
7915,67.0,34.0,240.0,1.0,0.0
7916,43.0,0.0,40.0,3.0,0.0
7917,48.0,14.0,30.0,3.0,0.0
7918,75.0,48.0,40.0,0.0,0.0
7919,47.0,48.0,40.0,3.0,0.0
7920,74.0,0.0,300.0,0.0,0.0
7921,43.0,0.0,40.0,3.0,0.0
7922,50.0,14.0,30.0,3.0,0.0
7923,65.0,48.0,40.0,1.0,0.0
7924,67.0,48.0,40.0,1.0,0.0
7925,47.0,0.0,40.0,3.0,0.0
7926,50.0,48.0,40.0,3.0,0.0
7927,71.0,0.0,40.0,1.0,0.0
7928,53.0,0.0,40.0,3.0,0.0
7929,74.0,48.0,40.0,1.0,0.0
7930,75.0,30.0,270.0,0.0,0.0
7931,43.0,34.0,90.0,3.0,0.0
7932,71.0,48.0,40.0,1.0,0.0
7933,67.0,0.0,40.0,1.0,0.0
7934,72.0,48.0,40.0,1.0,0.0
7935,51.0,14.0,30.0,3.0,0.0
7936,69.0,0.0,40.0,1.0,0.0
7937,48.0,48.0,40.0,3.0,0.0
7938,72.0,0.0,40.0,1.0,0.0
7939,51.0,18.0,40.0,3.0,0.0
7940,55.0,0.0,40.0,3.0,0.0
7941,75.0,48.0,40.0,1.0,0.0
7942,77.0,0.0,300.0,0.0,0.0
7943,45.0,0.0,90.0,3.0,0.0
7944,72.0,48.0,40.0,1.0,0.0
7945,69.0,34.0,40.0,1.0,0.0
7946,75.0,48.0,40.0,1.0,0.0
7947,53.0,14.0,30.0,3.0,0.0
7948,50.0,48.0,40.0,3.0,0.0
7949,71.0,0.0,40.0,1.0,0.0
7950,53.0,48.0,40.0,3.0,0.0
7951,74.0,0.0,40.0,1.0,0.0
7952,56.0,48.0,40.0,3.0,0.0
7953,77.0,0.0,40.0,1.0,0.0
7954,79.0,48.0,480.0,0.0,0.0
7955,47.0,0.0,40.0,3.0,0.0
7956,74.0,48.0,40.0,1.0,0.0
7957,71.0,48.0,40.0,1.0,0.0
7958,55.0,0.0,40.0,3.0,0.0
7959,74.0,48.0,40.0,1.0,0.0
7960,53.0,0.0,40.0,3.0,0.0
7961,72.0,0.0,40.0,1.0,0.0
7962,51.0,48.0,40.0,3.0,0.0
7963,75.0,0.0,40.0,1.0,0.0
7964,48.0,48.0,40.0,3.0,0.0
7965,43.0,0.0,40.0,3.0,0.0
7966,71.0,48.0,40.0,1.0,0.0
7967,72.0,0.0,40.0,1.0,0.0
7968,48.0,48.0,40.0,3.0,0.0
7969,75.0,0.0,40.0,1.0,0.0
7970,43.0,48.0,40.0,3.0,0.0
7971,71.0,48.0,40.0,1.0,0.0
7972,39.0,0.0,40.0,3.0,0.0
7973,72.0,48.0,90.0,1.0,0.0
7974,44.0,48.0,180.0,3.0,0.0
7975,76.0,0.0,40.0,0.0,0.0
7976,77.0,48.0,40.0,0.0,0.0
7977,73.0,0.0,40.0,0.0,0.0
7978,43.0,0.0,40.0,3.0,0.0
7979,71.0,48.0,40.0,0.0,0.0
7980,72.0,48.0,40.0,0.0,0.0
7981,44.0,0.0,40.0,3.0,0.0
7982,68.0,0.0,40.0,0.0,0.0
7983,41.0,48.0,40.0,3.0,0.0
7984,64.0,0.0,40.0,0.0,0.0
7985,43.0,48.0,40.0,3.0,0.0
7986,65.0,0.0,40.0,0.0,0.0
7987,44.0,48.0,40.0,3.0,0.0
7988,41.0,0.0,40.0,3.0,0.0
7989,61.0,48.0,40.0,0.0,0.0
7990,43.0,48.0,40.0,3.0,0.0
7991,59.0,0.0,40.0,0.0,0.0
7992,60.0,0.0,40.0,0.0,0.0
7993,44.0,48.0,40.0,3.0,0.0
7994,38.0,48.0,40.0,3.0,0.0
7995,59.0,0.0,40.0,0.0,0.0
7996,62.0,48.0,40.0,0.0,0.0
7997,41.0,0.0,40.0,3.0,0.0
7998,44.0,0.0,40.0,3.0,0.0
7999,65.0,48.0,40.0,0.0,0.0
8000,47.0,0.0,40.0,3.0,0.0
8001,68.0,48.0,40.0,0.0,0.0
8002,50.0,48.0,40.0,3.0,0.0
8003,67.0,0.0,40.0,0.0,0.0
8004,53.0,0.0,40.0,3.0,0.0
8005,71.0,48.0,40.0,0.0,0.0
8006,72.0,48.0,40.0,0.0,0.0
8007,51.0,0.0,40.0,3.0,0.0
8008,74.0,0.0,40.0,0.0,0.0
8009,50.0,48.0,40.0,3.0,0.0
8010,75.0,48.0,40.0,0.0,0.0
8011,48.0,0.0,40.0,3.0,0.0
8012,67.0,48.0,40.0,0.0,0.0
8013,70.0,0.0,90.0,1.0,0.0
8014,55.0,48.0,90.0,3.0,0.0
8015,72.0,0.0,40.0,0.0,0.0
8016,71.0,48.0,40.0,0.0,0.0
8017,43.0,0.0,40.0,3.0,0.0
8018,48.0,0.0,90.0,3.0,0.0
8019,72.0,0.0,660.0,0.0,0.0
8020,63.0,48.0,40.0,1.0,0.0
8021,60.0,34.0,40.0,1.0,0.0
8022,44.0,48.0,40.0,3.0,0.0
8023,65.0,14.0,30.0,1.0,0.0
8024,63.0,48.0,40.0,1.0,0.0
8025,43.0,0.0,90.0,3.0,0.0
8026,60.0,34.0,40.0,1.0,0.0
8027,67.0,14.0,30.0,1.0,0.0
8028,47.0,48.0,40.0,3.0,0.0
8029,48.0,0.0,90.0,3.0,0.0
8030,63.0,48.0,40.0,1.0,0.0
8031,60.0,34.0,40.0,1.0,0.0
8032,44.0,48.0,40.0,3.0,0.0
8033,65.0,14.0,30.0,1.0,0.0
8034,63.0,48.0,40.0,1.0,0.0
8035,43.0,0.0,90.0,3.0,0.0
8036,60.0,34.0,40.0,1.0,0.0
8037,67.0,14.0,30.0,1.0,0.0
8038,47.0,48.0,40.0,3.0,0.0
8039,48.0,0.0,40.0,3.0,0.0
8040,64.0,48.0,40.0,1.0,0.0
8041,67.0,48.0,40.0,1.0,0.0
8042,52.0,0.0,40.0,3.0,0.0
8043,55.0,48.0,40.0,3.0,0.0
8044,70.0,0.0,40.0,1.0,0.0
8045,60.0,0.0,90.0,1.0,0.0
8046,52.0,48.0,40.0,3.0,0.0
8047,48.0,48.0,40.0,3.0,0.0
8048,68.0,0.0,40.0,1.0,0.0
8049,53.0,48.0,40.0,3.0,0.0
8050,50.0,48.0,40.0,3.0,0.0
8051,65.0,0.0,40.0,1.0,0.0
8052,68.0,48.0,40.0,1.0,0.0
8053,53.0,0.0,40.0,3.0,0.0
8054,56.0,0.0,40.0,3.0,0.0
8055,72.0,48.0,40.0,1.0,0.0
8056,53.0,48.0,40.0,3.0,0.0
8057,62.0,0.0,90.0,1.0,0.0
8058,50.0,48.0,40.0,3.0,0.0
8059,55.0,48.0,40.0,3.0,0.0
8060,70.0,0.0,40.0,1.0,0.0
8061,52.0,48.0,40.0,3.0,0.0
8062,67.0,0.0,40.0,0.0,0.0
8063,55.0,0.0,40.0,3.0,0.0
8064,70.0,48.0,40.0,0.0,0.0
8065,58.0,48.0,40.0,3.0,0.0
8066,73.0,0.0,40.0,0.0,0.0
8067,55.0,48.0,40.0,3.0,0.0
8068,64.0,48.0,150.0,1.0,0.0
8069,52.0,0.0,40.0,3.0,0.0
8070,72.0,48.0,40.0,0.0,0.0
8071,70.0,0.0,40.0,0.0,0.0
8072,55.0,0.0,40.0,3.0,0.0
8073,68.0,48.0,40.0,0.0,0.0
8074,53.0,34.0,240.0,3.0,0.0
8075,65.0,34.0,40.0,0.0,0.0
8076,61.0,48.0,40.0,2.0,0.0
8077,70.0,14.0,30.0,0.0,0.0
8078,60.0,34.0,240.0,2.0,0.0
8079,68.0,48.0,40.0,0.0,0.0
8080,65.0,0.0,40.0,0.0,0.0
8081,47.0,48.0,40.0,3.0,0.0
8082,72.0,14.0,30.0,0.0,0.0
8083,53.0,0.0,240.0,3.0,0.0
8084,68.0,48.0,40.0,0.0,0.0
8085,65.0,0.0,40.0,0.0,0.0
8086,70.0,14.0,30.0,0.0,0.0
8087,61.0,48.0,40.0,2.0,0.0
8088,60.0,48.0,180.0,2.0,0.0
8089,68.0,48.0,40.0,0.0,0.0
8090,65.0,34.0,40.0,0.0,0.0
8091,72.0,14.0,30.0,0.0,0.0
8092,52.0,48.0,40.0,3.0,0.0
8093,53.0,48.0,90.0,3.0,0.0
8094,69.0,0.0,40.0,0.0,0.0
8095,72.0,0.0,40.0,0.0,0.0
8096,57.0,0.0,40.0,2.0,0.0
8097,75.0,48.0,40.0,0.0,0.0
8098,60.0,0.0,40.0,2.0,0.0
8099,57.0,48.0,40.0,2.0,0.0
8100,65.0,0.0,90.0,0.0,0.0
8101,53.0,34.0,40.0,2.0,0.0
8102,74.0,14.0,30.0,0.0,0.0
8103,58.0,48.0,40.0,2.0,0.0
8104,55.0,48.0,40.0,2.0,0.0
8105,70.0,0.0,40.0,0.0,0.0
8106,58.0,0.0,40.0,1.0,0.0
8107,74.0,48.0,40.0,0.0,0.0
8108,62.0,0.0,40.0,1.0,0.0
8109,77.0,48.0,40.0,0.0,0.0
8110,67.0,0.0,90.0,0.0,0.0
8111,58.0,48.0,40.0,1.0,0.0
8112,55.0,34.0,40.0,1.0,0.0
8113,75.0,14.0,30.0,0.0,0.0
8114,60.0,48.0,40.0,1.0,0.0
8115,57.0,0.0,40.0,1.0,0.0
8116,72.0,48.0,40.0,0.0,0.0
8117,60.0,0.0,40.0,1.0,0.0
8118,75.0,48.0,40.0,0.0,0.0
8119,63.0,0.0,40.0,1.0,0.0
8120,79.0,48.0,40.0,0.0,0.0
8121,60.0,48.0,40.0,1.0,0.0
8122,69.0,0.0,40.0,0.0,0.0
8123,57.0,0.0,40.0,1.0,0.0
8124,77.0,48.0,40.0,0.0,0.0
8125,75.0,0.0,40.0,0.0,0.0
8126,60.0,48.0,40.0,1.0,0.0
8127,58.0,34.0,90.0,1.0,0.0
8128,74.0,48.0,40.0,0.0,0.0
8129,70.0,0.0,40.0,0.0,0.0
8130,67.0,48.0,40.0,1.0,0.0
8131,75.0,14.0,30.0,0.0,0.0
8132,74.0,48.0,40.0,0.0,0.0
8133,65.0,34.0,90.0,1.0,0.0
8134,70.0,0.0,40.0,0.0,0.0
8135,77.0,14.0,30.0,0.0,0.0
8136,57.0,48.0,40.0,1.0,0.0
8137,74.0,48.0,40.0,0.0,0.0
8138,58.0,0.0,90.0,1.0,0.0
8139,70.0,34.0,40.0,0.0,0.0
8140,75.0,14.0,30.0,0.0,0.0
8141,67.0,48.0,40.0,1.0,0.0
8142,74.0,48.0,40.0,0.0,0.0
8143,65.0,34.0,90.0,1.0,0.0
8144,70.0,0.0,40.0,0.0,0.0
8145,57.0,48.0,40.0,1.0,0.0
8146,77.0,14.0,30.0,0.0,0.0
8147,74.0,0.0,40.0,0.0,0.0
8148,58.0,48.0,40.0,1.0,0.0
8149,77.0,0.0,40.0,0.0,0.0
8150,62.0,48.0,40.0,1.0,0.0
8151,65.0,48.0,40.0,1.0,0.0
8152,80.0,0.0,40.0,0.0,0.0
8153,62.0,48.0,40.0,1.0,0.0
8154,70.0,0.0,90.0,0.0,0.0
8155,58.0,34.0,40.0,1.0,0.0
8156,63.0,48.0,40.0,1.0,0.0
8157,79.0,14.0,30.0,0.0,0.0
8158,56.0,0.0,40.0,1.0,0.0
8159,72.0,48.0,40.0,0.0,0.0
8160,60.0,0.0,40.0,1.0,0.0
8161,75.0,48.0,40.0,0.0,0.0
8162,63.0,48.0,40.0,1.0,0.0
8163,79.0,0.0,40.0,0.0,0.0
8164,68.0,34.0,90.0,0.0,0.0
8165,60.0,48.0,40.0,1.0,0.0
8166,56.0,0.0,40.0,1.0,0.0
8167,62.0,48.0,40.0,1.0,0.0
8168,77.0,14.0,30.0,0.0,0.0
8169,55.0,0.0,40.0,1.0,0.0
8170,70.0,48.0,40.0,0.0,0.0
8171,58.0,48.0,40.0,1.0,0.0
8172,74.0,0.0,40.0,0.0,0.0
8173,77.0,48.0,40.0,0.0,0.0
8174,62.0,0.0,40.0,1.0,0.0
8175,58.0,48.0,40.0,1.0,0.0
8176,67.0,0.0,90.0,0.0,0.0
8177,55.0,34.0,40.0,1.0,0.0
8178,58.0,48.0,40.0,1.0,0.0
8179,75.0,14.0,30.0,0.0,0.0
8180,53.0,48.0,40.0,3.0,0.0
8181,68.0,0.0,40.0,0.0,0.0
8182,56.0,48.0,40.0,3.0,0.0
8183,72.0,0.0,40.0,0.0,0.0
8184,60.0,48.0,40.0,3.0,0.0
8185,75.0,0.0,40.0,0.0,0.0
8186,65.0,0.0,40.0,0.0,0.0
8187,56.0,48.0,40.0,3.0,0.0
8188,53.0,0.0,40.0,3.0,0.0
8189,68.0,48.0,40.0,0.0,0.0
8190,56.0,0.0,40.0,3.0,0.0
8191,72.0,48.0,40.0,0.0,0.0
8192,62.0,48.0,40.0,0.0,0.0
8193,58.0,0.0,40.0,3.0,0.0
8194,53.0,0.0,40.0,3.0,0.0
8195,65.0,48.0,40.0,0.0,0.0
8196,50.0,0.0,40.0,3.0,0.0
8197,68.0,48.0,40.0,0.0,0.0
8198,46.0,34.0,90.0,3.0,0.0
8199,58.0,48.0,40.0,0.0,0.0
8200,62.0,0.0,40.0,0.0,0.0
8201,41.0,14.0,30.0,3.0,0.0
8202,65.0,48.0,40.0,0.0,0.0
8203,68.0,34.0,240.0,0.0,0.0
8204,38.0,48.0,40.0,3.0,0.0
8205,34.0,34.0,40.0,3.0,0.0
8206,39.0,14.0,30.0,3.0,0.0
8207,67.0,48.0,40.0,1.0,0.0
8208,65.0,48.0,150.0,1.0,0.0
8209,38.0,48.0,40.0,3.0,0.0
8210,34.0,0.0,40.0,3.0,0.0
8211,41.0,14.0,30.0,3.0,0.0
8212,68.0,34.0,300.0,0.0,0.0
8213,58.0,0.0,90.0,1.0,0.0
8214,38.0,48.0,40.0,3.0,0.0
8215,34.0,34.0,40.0,3.0,0.0
8216,67.0,48.0,40.0,1.0,0.0
8217,39.0,14.0,30.0,3.0,0.0
8218,65.0,48.0,150.0,1.0,0.0
8219,38.0,48.0,40.0,3.0,0.0
8220,34.0,0.0,40.0,3.0,0.0
8221,41.0,14.0,30.0,3.0,0.0
8222,68.0,48.0,240.0,0.0,0.0
8223,58.0,0.0,40.0,1.0,0.0
8224,38.0,48.0,40.0,3.0,0.0
8225,62.0,48.0,40.0,1.0,0.0
8226,41.0,0.0,40.0,3.0,0.0
8227,65.0,0.0,40.0,1.0,0.0
8228,44.0,48.0,40.0,3.0,0.0
8229,62.0,48.0,150.0,1.0,0.0
8230,34.0,34.0,90.0,3.0,0.0
8231,65.0,0.0,40.0,0.0,0.0
8232,70.0,48.0,240.0,0.0,0.0
8233,43.0,14.0,30.0,3.0,0.0
8234,60.0,0.0,40.0,1.0,0.0
8235,39.0,48.0,40.0,3.0,0.0
8236,43.0,48.0,40.0,3.0,0.0
8237,63.0,0.0,40.0,1.0,0.0
8238,67.0,48.0,40.0,1.0,0.0
8239,46.0,0.0,40.0,3.0,0.0
8240,63.0,48.0,150.0,1.0,0.0
8241,36.0,34.0,90.0,3.0,0.0
8242,67.0,0.0,40.0,0.0,0.0
8243,72.0,0.0,240.0,0.0,0.0
8244,44.0,14.0,30.0,3.0,0.0
8245,62.0,0.0,40.0,1.0,0.0
8246,41.0,48.0,40.0,3.0,0.0
8247,44.0,48.0,40.0,3.0,0.0
8248,65.0,0.0,40.0,1.0,0.0
8249,48.0,48.0,40.0,3.0,0.0
8250,68.0,0.0,40.0,1.0,0.0
8251,65.0,48.0,150.0,1.0,0.0
8252,38.0,48.0,40.0,3.0,0.0
8253,46.0,0.0,40.0,3.0,0.0
8254,68.0,48.0,40.0,0.0,0.0
8255,44.0,0.0,40.0,3.0,0.0
8256,74.0,0.0,40.0,0.0,0.0
8257,75.0,0.0,180.0,0.0,0.0
8258,43.0,48.0,40.0,3.0,0.0
8259,70.0,0.0,40.0,1.0,0.0
8260,46.0,48.0,40.0,3.0,0.0
8261,51.0,48.0,40.0,3.0,0.0
8262,67.0,0.0,40.0,1.0,0.0
8263,63.0,0.0,150.0,1.0,0.0
8264,55.0,48.0,40.0,3.0,0.0
8265,51.0,0.0,40.0,3.0,0.0
8266,73.0,48.0,40.0,0.0,0.0
8267,55.0,48.0,40.0,3.0,0.0
8268,70.0,0.0,40.0,0.0,0.0
8269,56.0,48.0,40.0,3.0,0.0
8270,72.0,0.0,150.0,0.0,0.0
8271,68.0,48.0,40.0,1.0,0.0
8272,53.0,0.0,40.0,3.0,0.0
8273,50.0,0.0,40.0,3.0,0.0
8274,65.0,48.0,40.0,1.0,0.0
8275,46.0,48.0,40.0,3.0,0.0
8276,62.0,48.0,150.0,1.0,0.0
8277,50.0,48.0,40.0,3.0,0.0
8278,65.0,0.0,40.0,0.0,0.0
8279,68.0,0.0,40.0,0.0,0.0
8280,53.0,0.0,40.0,3.0,0.0
8281,51.0,48.0,90.0,3.0,0.0
8282,67.0,48.0,40.0,0.0,0.0
8283,65.0,0.0,40.0,0.0,0.0
8284,63.0,0.0,40.0,0.0,0.0
8285,44.0,0.0,40.0,3.0,0.0
8286,60.0,48.0,40.0,1.0,0.0
8287,63.0,48.0,40.0,0.0,0.0
8288,58.0,0.0,90.0,1.0,0.0
8289,46.0,0.0,90.0,3.0,0.0
8290,65.0,48.0,40.0,0.0,0.0
8291,34.0,48.0,40.0,3.0,0.0
8292,62.0,0.0,40.0,0.0,0.0
8293,56.0,0.0,40.0,1.0,0.0
8294,63.0,0.0,240.0,0.0,0.0
8295,39.0,0.0,240.0,3.0,0.0
8296,39.0,48.0,40.0,2.0,0.0
8297,58.0,0.0,180.0,1.0,0.0
8298,43.0,48.0,40.0,2.0,0.0
8299,55.0,0.0,150.0,1.0,0.0
8300,46.0,96.0,40.0,2.0,0.0
8301,51.0,2.0,90.0,2.0,0.0
