,note,step,duration,channel,velocity
0,52.0,0.0,1020.0,3.0,0.0
1,68.0,0.0,1020.0,2.0,0.0
2,71.0,0.0,1020.0,1.0,0.0
3,76.0,1024.0,1020.0,0.0,0.0
4,63.0,0.0,1020.0,2.0,0.0
5,78.0,1024.0,1020.0,0.0,0.0
6,59.0,0.0,1020.0,3.0,0.0
7,71.0,0.0,15.0,1.0,0.0
8,64.0,0.0,1020.0,3.0,0.0
9,64.0,0.0,1020.0,2.0,0.0
10,80.0,0.0,1020.0,0.0,0.0
11,71.0,1024.0,15.0,1.0,0.0
12,78.0,0.0,1020.0,0.0,0.0
13,66.0,0.0,1020.0,2.0,0.0
14,63.0,0.0,1020.0,3.0,0.0
15,76.0,0.0,1020.0,0.0,0.0
16,73.0,0.0,1020.0,1.0,0.0
17,68.0,512.0,510.0,2.0,0.0
18,61.0,1024.0,1020.0,3.0,0.0
19,70.0,0.0,510.0,2.0,0.0
20,75.0,0.0,1020.0,0.0,0.0
21,66.0,0.0,1020.0,1.0,0.0
22,71.0,512.0,1020.0,2.0,0.0
23,59.0,0.0,1020.0,3.0,0.0
24,66.0,0.0,1020.0,1.0,0.0
25,54.0,0.0,1020.0,3.0,0.0
26,73.0,1024.0,1020.0,0.0,0.0
27,71.0,512.0,510.0,2.0,0.0
28,70.0,0.0,510.0,2.0,0.0
29,63.0,0.0,1020.0,2.0,0.0
30,66.0,0.0,1020.0,1.0,0.0
31,71.0,1024.0,1020.0,0.0,0.0
32,59.0,0.0,1020.0,3.0,0.0
33,76.0,0.0,1020.0,0.0,0.0
34,56.0,0.0,1020.0,3.0,0.0
35,64.0,0.0,1020.0,2.0,0.0
36,71.0,512.0,1020.0,1.0,0.0
37,78.0,512.0,1020.0,0.0,0.0
38,73.0,512.0,510.0,1.0,0.0
39,69.0,0.0,1020.0,2.0,0.0
40,54.0,0.0,1020.0,3.0,0.0
41,75.0,0.0,510.0,1.0,0.0
42,76.0,0.0,510.0,1.0,0.0
43,71.0,512.0,510.0,2.0,0.0
44,52.0,0.0,1020.0,3.0,0.0
45,80.0,0.0,1020.0,0.0,0.0
46,71.0,0.0,510.0,1.0,0.0
47,64.0,512.0,510.0,2.0,0.0
48,71.0,0.0,1020.0,1.0,0.0
49,51.0,512.0,1020.0,3.0,0.0
50,78.0,256.0,510.0,0.0,0.0
51,66.0,512.0,1530.0,2.0,0.0
52,80.0,256.0,270.0,0.0,0.0
53,81.0,0.0,270.0,0.0,0.0
54,71.0,0.0,1020.0,1.0,0.0
55,52.0,0.0,1020.0,3.0,0.0
56,80.0,0.0,1020.0,0.0,0.0
57,47.0,0.0,1020.0,3.0,0.0
58,78.0,256.0,780.0,0.0,0.0
59,64.0,512.0,15.0,2.0,0.0
60,63.0,0.0,510.0,2.0,0.0
61,76.0,0.0,270.0,0.0,0.0
62,71.0,2048.0,15.0,1.0,0.0
63,52.0,0.0,15.0,3.0,0.0
64,71.0,0.0,15.0,1.0,0.0
65,68.0,0.0,15.0,2.0,0.0
66,76.0,1024.0,15.0,0.0,0.0
67,59.0,0.0,1020.0,3.0,0.0
68,78.0,0.0,1020.0,0.0,0.0
69,63.0,0.0,1020.0,2.0,0.0
70,71.0,1024.0,15.0,1.0,0.0
71,64.0,1024.0,1020.0,2.0,0.0
72,64.0,0.0,1020.0,3.0,0.0
73,80.0,0.0,1020.0,0.0,0.0
74,71.0,0.0,1020.0,1.0,0.0
75,63.0,0.0,1020.0,3.0,0.0
76,78.0,0.0,1020.0,0.0,0.0
77,66.0,0.0,1020.0,2.0,0.0
78,71.0,512.0,1020.0,1.0,0.0
79,73.0,0.0,1020.0,1.0,0.0
80,61.0,1024.0,1020.0,3.0,0.0
81,76.0,0.0,1020.0,0.0,0.0
82,68.0,512.0,510.0,2.0,0.0
83,70.0,0.0,510.0,2.0,0.0
84,59.0,0.0,1020.0,3.0,0.0
85,75.0,0.0,1020.0,0.0,0.0
86,73.0,0.0,1020.0,0.0,0.0
87,71.0,0.0,15.0,2.0,0.0
88,54.0,0.0,1020.0,3.0,0.0
89,66.0,512.0,15.0,1.0,0.0
90,70.0,0.0,510.0,2.0,0.0
91,63.0,0.0,1020.0,2.0,0.0
92,71.0,0.0,1020.0,0.0,0.0
93,59.0,1024.0,1020.0,3.0,0.0
94,66.0,0.0,1020.0,1.0,0.0
95,56.0,512.0,1020.0,3.0,0.0
96,64.0,0.0,1020.0,2.0,0.0
97,76.0,0.0,1020.0,0.0,0.0
98,71.0,0.0,1020.0,1.0,0.0
99,54.0,0.0,1020.0,3.0,0.0
100,73.0,512.0,510.0,1.0,0.0
101,78.0,512.0,1020.0,0.0,0.0
102,69.0,0.0,1020.0,2.0,0.0
103,75.0,0.0,510.0,1.0,0.0
104,71.0,0.0,510.0,2.0,0.0
105,52.0,0.0,1020.0,3.0,0.0
106,76.0,512.0,510.0,1.0,0.0
107,80.0,0.0,1020.0,0.0,0.0
108,64.0,512.0,510.0,2.0,0.0
109,71.0,0.0,510.0,1.0,0.0
110,78.0,256.0,510.0,0.0,0.0
111,66.0,512.0,1530.0,2.0,0.0
112,51.0,0.0,1020.0,3.0,0.0
113,71.0,0.0,1020.0,1.0,0.0
114,80.0,256.0,270.0,0.0,0.0
115,81.0,512.0,270.0,0.0,0.0
116,80.0,512.0,1020.0,0.0,0.0
117,71.0,0.0,1020.0,1.0,0.0
118,52.0,0.0,1020.0,3.0,0.0
119,71.0,0.0,1020.0,1.0,0.0
120,47.0,0.0,1020.0,3.0,0.0
121,64.0,0.0,15.0,2.0,0.0
122,78.0,256.0,780.0,0.0,0.0
123,63.0,0.0,510.0,2.0,0.0
124,76.0,2048.0,270.0,0.0,0.0
125,71.0,0.0,2040.0,1.0,0.0
126,52.0,0.0,2040.0,3.0,0.0
127,68.0,0.0,2040.0,2.0,0.0
128,76.0,1024.0,2040.0,0.0,0.0
129,71.0,0.0,1020.0,1.0,0.0
130,64.0,0.0,1020.0,3.0,0.0
131,80.0,512.0,1020.0,0.0,0.0
132,61.0,0.0,1020.0,3.0,0.0
133,81.0,0.0,1020.0,0.0,0.0
134,73.0,256.0,510.0,1.0,0.0
135,64.0,0.0,15.0,2.0,0.0
136,74.0,256.0,270.0,1.0,0.0
137,76.0,0.0,270.0,1.0,0.0
138,74.0,512.0,1020.0,1.0,0.0
139,64.0,1024.0,15.0,2.0,0.0
140,56.0,0.0,1020.0,3.0,0.0
141,83.0,0.0,1020.0,0.0,0.0
142,81.0,0.0,1020.0,0.0,0.0
143,57.0,0.0,1020.0,3.0,0.0
144,73.0,512.0,1020.0,1.0,0.0
145,64.0,0.0,15.0,2.0,0.0
146,66.0,0.0,510.0,2.0,0.0
147,71.0,0.0,1020.0,1.0,0.0
148,53.0,512.0,1020.0,3.0,0.0
149,68.0,512.0,510.0,2.0,0.0
150,80.0,0.0,1020.0,0.0,0.0
151,61.0,0.0,15.0,2.0,0.0
152,54.0,0.0,1020.0,3.0,0.0
153,78.0,0.0,1020.0,0.0,0.0
154,69.0,0.0,510.0,1.0,0.0
155,63.0,2048.0,510.0,2.0,0.0
156,73.0,256.0,270.0,1.0,0.0
157,72.0,0.0,270.0,1.0,0.0
158,73.0,0.0,2040.0,1.0,0.0
159,80.0,0.0,2040.0,0.0,0.0
160,65.0,0.0,2040.0,2.0,0.0
161,49.0,512.0,2040.0,3.0,0.0
162,83.0,0.0,1020.0,0.0,0.0
163,56.0,1024.0,1020.0,3.0,0.0
164,64.0,512.0,510.0,2.0,0.0
165,71.0,0.0,1020.0,1.0,0.0
166,66.0,0.0,510.0,2.0,0.0
167,68.0,0.0,1020.0,2.0,0.0
168,52.0,0.0,1020.0,3.0,0.0
169,83.0,0.0,1020.0,0.0,0.0
170,76.0,512.0,15.0,1.0,0.0
171,85.0,1024.0,1020.0,0.0,0.0
172,69.0,512.0,510.0,2.0,0.0
173,57.0,0.0,1020.0,3.0,0.0
174,68.0,0.0,510.0,2.0,0.0
175,59.0,0.0,1020.0,3.0,0.0
176,66.0,0.0,1020.0,2.0,0.0
177,83.0,512.0,1020.0,0.0,0.0
178,75.0,0.0,1020.0,1.0,0.0
179,73.0,0.0,1020.0,1.0,0.0
180,81.0,0.0,1020.0,0.0,0.0
181,61.0,512.0,510.0,3.0,0.0
182,64.0,512.0,1020.0,2.0,0.0
183,63.0,0.0,510.0,3.0,0.0
184,64.0,2048.0,1020.0,3.0,0.0
185,80.0,0.0,1020.0,0.0,0.0
186,71.0,512.0,510.0,1.0,0.0
187,64.0,0.0,1020.0,2.0,0.0
188,70.0,0.0,510.0,1.0,0.0
189,78.0,0.0,2040.0,0.0,0.0
190,63.0,512.0,2040.0,2.0,0.0
191,59.0,0.0,2040.0,3.0,0.0
192,80.0,0.0,1020.0,0.0,0.0
193,64.0,0.0,1020.0,3.0,0.0
194,71.0,0.0,15.0,1.0,0.0
195,64.0,512.0,510.0,2.0,0.0
196,66.0,0.0,510.0,2.0,0.0
197,76.0,512.0,510.0,1.0,0.0
198,52.0,0.0,1020.0,3.0,0.0
199,83.0,0.0,1020.0,0.0,0.0
200,68.0,0.0,1020.0,2.0,0.0
201,75.0,512.0,510.0,1.0,0.0
202,69.0,0.0,1020.0,2.0,0.0
203,81.0,512.0,1020.0,0.0,0.0
204,73.0,512.0,510.0,1.0,0.0
205,54.0,0.0,1020.0,3.0,0.0
206,75.0,0.0,510.0,1.0,0.0
207,71.0,512.0,510.0,2.0,0.0
208,80.0,0.0,510.0,0.0,0.0
209,56.0,0.0,1020.0,3.0,0.0
210,76.0,512.0,1020.0,1.0,0.0
211,78.0,0.0,510.0,0.0,0.0
212,59.0,0.0,510.0,2.0,0.0
213,61.0,512.0,510.0,2.0,0.0
214,76.0,0.0,1020.0,0.0,0.0
215,57.0,512.0,1020.0,3.0,0.0
216,73.0,0.0,1020.0,1.0,0.0
217,68.0,0.0,510.0,2.0,0.0
218,66.0,512.0,510.0,2.0,0.0
219,78.0,0.0,1020.0,0.0,0.0
220,58.0,1024.0,1020.0,3.0,0.0
221,73.0,0.0,1020.0,1.0,0.0
222,64.0,0.0,510.0,2.0,0.0
223,80.0,0.0,2040.0,0.0,0.0
224,63.0,0.0,2040.0,2.0,0.0
225,75.0,1024.0,1020.0,1.0,0.0
226,59.0,0.0,1020.0,3.0,0.0
227,60.0,2048.0,1020.0,3.0,0.0
228,76.0,0.0,2040.0,0.0,0.0
229,68.0,0.0,15.0,1.0,0.0
230,61.0,0.0,2040.0,2.0,0.0
231,61.0,0.0,2040.0,3.0,0.0
232,71.0,512.0,510.0,1.0,0.0
233,62.0,0.0,1020.0,2.0,0.0
234,59.0,0.0,1020.0,3.0,0.0
235,80.0,1024.0,1020.0,0.0,0.0
236,73.0,0.0,510.0,1.0,0.0
237,83.0,0.0,1020.0,0.0,0.0
238,56.0,512.0,1020.0,2.0,0.0
239,52.0,0.0,1020.0,3.0,0.0
240,74.0,0.0,1020.0,1.0,0.0
241,81.0,0.0,1020.0,0.0,0.0
242,73.0,512.0,510.0,1.0,0.0
243,57.0,512.0,1020.0,2.0,0.0
244,54.0,0.0,1020.0,3.0,0.0
245,75.0,0.0,510.0,1.0,0.0
246,56.0,512.0,510.0,3.0,0.0
247,76.0,0.0,1020.0,1.0,0.0
248,80.0,0.0,1020.0,0.0,0.0
249,59.0,0.0,510.0,2.0,0.0
250,61.0,0.0,510.0,2.0,0.0
251,57.0,512.0,510.0,3.0,0.0
252,59.0,512.0,510.0,3.0,0.0
253,63.0,0.0,1020.0,2.0,0.0
254,78.0,0.0,1020.0,0.0,0.0
255,57.0,0.0,510.0,3.0,0.0
256,56.0,512.0,510.0,3.0,0.0
257,64.0,0.0,1020.0,2.0,0.0
258,71.0,512.0,15.0,1.0,0.0
259,76.0,0.0,1020.0,0.0,0.0
260,52.0,0.0,510.0,3.0,0.0
261,47.0,2048.0,2040.0,3.0,0.0
262,64.0,1024.0,1020.0,2.0,0.0
263,71.0,1024.0,15.0,1.0,0.0
264,78.0,0.0,2040.0,0.0,0.0
265,63.0,0.0,1020.0,2.0,0.0
266,71.0,0.0,15.0,1.0,0.0
267,76.0,0.0,2040.0,0.0,0.0
268,68.0,0.0,2040.0,2.0,0.0
269,52.0,0.0,2040.0,3.0,0.0
