,note,step,duration,channel,velocity
0,46.0,288.0,180.0,0.0,0.0
1,53.0,96.0,300.0,0.0,0.0
2,51.0,384.0,90.0,0.0,0.0
3,49.0,384.0,390.0,0.0,0.0
4,51.0,384.0,390.0,0.0,0.0
5,53.0,192.0,390.0,0.0,0.0
6,46.0,192.0,180.0,0.0,0.0
7,53.0,0.0,180.0,0.0,0.0
8,49.0,96.0,180.0,0.0,0.0
9,58.0,96.0,300.0,0.0,0.0
10,49.0,96.0,90.0,0.0,0.0
11,43.0,96.0,90.0,0.0,0.0
12,48.0,96.0,180.0,0.0,0.0
13,58.0,0.0,90.0,0.0,0.0
14,41.0,96.0,90.0,0.0,0.0
15,56.0,0.0,390.0,0.0,0.0
16,48.0,96.0,90.0,0.0,0.0
17,53.0,96.0,90.0,0.0,0.0
18,51.0,96.0,90.0,0.0,0.0
19,49.0,96.0,90.0,0.0,0.0
20,58.0,0.0,390.0,0.0,0.0
21,46.0,96.0,90.0,0.0,0.0
22,54.0,96.0,90.0,0.0,0.0
23,53.0,96.0,90.0,0.0,0.0
24,51.0,96.0,90.0,0.0,0.0
25,60.0,96.0,390.0,0.0,0.0
26,48.0,96.0,90.0,0.0,0.0
27,45.0,48.0,90.0,0.0,0.0
28,46.0,48.0,40.0,0.0,0.0
29,48.0,0.0,40.0,0.0,0.0
30,53.0,0.0,180.0,0.0,0.0
31,49.0,96.0,90.0,0.0,0.0
32,46.0,96.0,90.0,0.0,0.0
33,44.0,96.0,90.0,0.0,0.0
34,58.0,0.0,180.0,0.0,0.0
35,42.0,96.0,90.0,0.0,0.0
36,41.0,96.0,90.0,0.0,0.0
37,65.0,96.0,300.0,0.0,0.0
38,58.0,0.0,15.0,0.0,0.0
39,39.0,0.0,90.0,0.0,0.0
40,41.0,96.0,180.0,0.0,0.0
41,57.0,0.0,180.0,0.0,0.0
42,63.0,0.0,90.0,0.0,0.0
43,34.0,96.0,300.0,0.0,0.0
44,58.0,96.0,90.0,0.0,0.0
45,61.0,0.0,390.0,0.0,0.0
46,53.0,96.0,90.0,0.0,0.0
47,46.0,0.0,90.0,0.0,0.0
48,48.0,48.0,300.0,0.0,0.0
49,63.0,0.0,390.0,0.0,0.0
50,54.0,96.0,15.0,0.0,0.0
51,51.0,96.0,90.0,0.0,0.0
52,46.0,48.0,40.0,0.0,0.0
53,48.0,0.0,40.0,0.0,0.0
54,56.0,96.0,15.0,0.0,0.0
55,49.0,96.0,180.0,0.0,0.0
56,65.0,96.0,390.0,0.0,0.0
57,53.0,0.0,90.0,0.0,0.0
58,50.0,0.0,180.0,0.0,0.0
59,58.0,96.0,90.0,0.0,0.0
60,56.0,0.0,15.0,0.0,0.0
61,58.0,0.0,390.0,0.0,0.0
62,51.0,48.0,300.0,0.0,0.0
63,54.0,96.0,90.0,0.0,0.0
64,65.0,0.0,180.0,0.0,0.0
65,50.0,48.0,40.0,0.0,0.0
66,48.0,0.0,40.0,0.0,0.0
67,50.0,0.0,180.0,0.0,0.0
68,53.0,96.0,15.0,0.0,0.0
69,58.0,96.0,180.0,0.0,0.0
70,55.0,48.0,40.0,0.0,0.0
71,56.0,0.0,40.0,0.0,0.0
72,55.0,96.0,180.0,0.0,0.0
73,52.0,0.0,180.0,0.0,0.0
74,60.0,0.0,180.0,0.0,0.0
75,70.0,96.0,15.0,0.0,0.0
76,60.0,96.0,90.0,0.0,0.0
77,53.0,96.0,180.0,0.0,0.0
78,68.0,0.0,390.0,0.0,0.0
79,56.0,0.0,90.0,0.0,0.0
80,53.0,96.0,15.0,0.0,0.0
81,70.0,0.0,390.0,0.0,0.0
82,61.0,96.0,15.0,0.0,0.0
83,54.0,96.0,300.0,0.0,0.0
84,58.0,96.0,90.0,0.0,0.0
85,63.0,0.0,180.0,0.0,0.0
86,55.0,96.0,90.0,0.0,0.0
87,63.0,96.0,90.0,0.0,0.0
88,56.0,96.0,180.0,0.0,0.0
89,72.0,0.0,390.0,0.0,0.0
90,60.0,0.0,90.0,0.0,0.0
91,57.0,0.0,180.0,0.0,0.0
92,65.0,96.0,90.0,0.0,0.0
93,63.0,96.0,90.0,0.0,0.0
94,58.0,0.0,90.0,0.0,0.0
95,65.0,96.0,300.0,0.0,0.0
96,63.0,48.0,90.0,0.0,0.0
97,53.0,96.0,90.0,0.0,0.0
98,61.0,48.0,40.0,0.0,0.0
99,60.0,0.0,40.0,0.0,0.0
100,61.0,0.0,180.0,0.0,0.0
101,46.0,0.0,180.0,0.0,0.0
102,58.0,96.0,180.0,0.0,0.0
103,67.0,0.0,90.0,0.0,0.0
104,41.0,0.0,300.0,0.0,0.0
105,60.0,48.0,90.0,0.0,0.0
106,56.0,0.0,180.0,0.0,0.0
107,68.0,96.0,300.0,0.0,0.0
108,58.0,48.0,40.0,0.0,0.0
109,60.0,96.0,40.0,0.0,0.0
110,43.0,96.0,90.0,0.0,0.0
111,70.0,0.0,90.0,0.0,0.0
112,61.0,0.0,15.0,0.0,0.0
113,63.0,96.0,180.0,0.0,0.0
114,44.0,48.0,390.0,0.0,0.0
115,59.0,96.0,180.0,0.0,0.0
116,62.0,0.0,180.0,0.0,0.0
117,63.0,96.0,180.0,0.0,0.0
118,58.0,0.0,15.0,0.0,0.0
119,42.0,48.0,390.0,0.0,0.0
120,60.0,96.0,40.0,0.0,0.0
121,61.0,48.0,180.0,0.0,0.0
122,64.0,0.0,180.0,0.0,0.0
123,46.0,0.0,180.0,0.0,0.0
124,60.0,48.0,40.0,0.0,0.0
125,58.0,0.0,40.0,0.0,0.0
126,56.0,48.0,90.0,0.0,0.0
127,65.0,48.0,40.0,0.0,0.0
128,53.0,96.0,300.0,0.0,0.0
129,41.0,0.0,390.0,0.0,0.0
130,68.0,48.0,90.0,0.0,0.0
131,58.0,96.0,90.0,0.0,0.0
132,67.0,0.0,40.0,0.0,0.0
133,60.0,0.0,180.0,0.0,0.0
134,51.0,0.0,90.0,0.0,0.0
135,49.0,0.0,390.0,0.0,0.0
136,58.0,48.0,300.0,0.0,0.0
137,68.0,96.0,15.0,0.0,0.0
138,46.0,96.0,390.0,0.0,0.0
139,67.0,48.0,40.0,0.0,0.0
140,65.0,96.0,40.0,0.0,0.0
141,67.0,0.0,180.0,0.0,0.0
142,60.0,48.0,40.0,0.0,0.0
143,61.0,0.0,40.0,0.0,0.0
144,51.0,96.0,390.0,0.0,0.0
145,60.0,0.0,90.0,0.0,0.0
146,68.0,96.0,90.0,0.0,0.0
147,44.0,0.0,90.0,0.0,0.0
148,58.0,96.0,90.0,0.0,0.0
149,46.0,0.0,90.0,0.0,0.0
150,66.0,0.0,90.0,0.0,0.0
151,56.0,0.0,180.0,0.0,0.0
152,65.0,96.0,90.0,0.0,0.0
153,47.0,0.0,180.0,0.0,0.0
154,63.0,0.0,90.0,0.0,0.0
155,47.0,48.0,90.0,0.0,0.0
156,62.0,48.0,300.0,0.0,0.0
157,56.0,0.0,90.0,0.0,0.0
158,53.0,0.0,390.0,0.0,0.0
159,41.0,0.0,90.0,0.0,0.0
160,58.0,48.0,40.0,0.0,0.0
161,59.0,96.0,40.0,0.0,0.0
162,46.0,0.0,90.0,0.0,0.0
163,63.0,48.0,40.0,0.0,0.0
164,44.0,96.0,90.0,0.0,0.0
165,65.0,0.0,40.0,0.0,0.0
166,58.0,0.0,15.0,0.0,0.0
167,46.0,0.0,300.0,0.0,0.0
168,43.0,96.0,180.0,0.0,0.0
169,60.0,48.0,40.0,0.0,0.0
170,62.0,0.0,40.0,0.0,0.0
171,63.0,48.0,90.0,0.0,0.0
172,44.0,48.0,40.0,0.0,0.0
173,65.0,0.0,40.0,0.0,0.0
174,46.0,0.0,40.0,0.0,0.0
175,66.0,96.0,40.0,0.0,0.0
176,42.0,0.0,15.0,0.0,0.0
177,63.0,48.0,90.0,0.0,0.0
178,48.0,0.0,90.0,0.0,0.0
179,62.0,48.0,40.0,0.0,0.0
180,46.0,0.0,40.0,0.0,0.0
181,63.0,96.0,40.0,0.0,0.0
182,48.0,0.0,40.0,0.0,0.0
183,50.0,48.0,90.0,0.0,0.0
184,65.0,0.0,180.0,0.0,0.0
185,41.0,0.0,180.0,0.0,0.0
186,48.0,48.0,40.0,0.0,0.0
187,50.0,0.0,40.0,0.0,0.0
188,68.0,96.0,15.0,0.0,0.0
189,39.0,0.0,180.0,0.0,0.0
190,58.0,96.0,300.0,0.0,0.0
191,51.0,48.0,90.0,0.0,0.0
192,46.0,0.0,90.0,0.0,0.0
193,66.0,48.0,40.0,0.0,0.0
194,65.0,96.0,40.0,0.0,0.0
195,51.0,0.0,180.0,0.0,0.0
196,66.0,0.0,180.0,0.0,0.0
197,39.0,96.0,90.0,0.0,0.0
198,60.0,0.0,90.0,0.0,0.0
199,46.0,48.0,300.0,0.0,0.0
200,65.0,0.0,90.0,0.0,0.0
201,49.0,48.0,90.0,0.0,0.0
202,61.0,96.0,390.0,0.0,0.0
203,51.0,48.0,40.0,0.0,0.0
204,67.0,0.0,40.0,0.0,0.0
205,69.0,96.0,40.0,0.0,0.0
206,53.0,0.0,40.0,0.0,0.0
207,54.0,0.0,180.0,0.0,0.0
208,70.0,0.0,180.0,0.0,0.0
209,48.0,48.0,40.0,0.0,0.0
210,49.0,0.0,40.0,0.0,0.0
211,70.0,48.0,90.0,0.0,0.0
212,54.0,96.0,180.0,0.0,0.0
213,60.0,0.0,390.0,0.0,0.0
214,51.0,48.0,300.0,0.0,0.0
215,72.0,48.0,40.0,0.0,0.0
216,70.0,0.0,40.0,0.0,0.0
217,69.0,0.0,180.0,0.0,0.0
218,53.0,96.0,180.0,0.0,0.0
219,50.0,48.0,40.0,0.0,0.0
220,48.0,0.0,40.0,0.0,0.0
221,70.0,96.0,90.0,0.0,0.0
222,58.0,96.0,390.0,0.0,0.0
223,50.0,0.0,90.0,0.0,0.0
224,53.0,0.0,180.0,0.0,0.0
225,68.0,0.0,180.0,0.0,0.0
226,46.0,96.0,90.0,0.0,0.0
227,51.0,48.0,90.0,0.0,0.0
228,67.0,0.0,90.0,0.0,0.0
229,63.0,48.0,40.0,0.0,0.0
230,61.0,0.0,40.0,0.0,0.0
231,51.0,0.0,15.0,0.0,0.0
232,69.0,0.0,180.0,0.0,0.0
233,60.0,48.0,90.0,0.0,0.0
234,58.0,48.0,40.0,0.0,0.0
235,60.0,96.0,40.0,0.0,0.0
236,61.0,96.0,180.0,0.0,0.0
237,49.0,96.0,90.0,0.0,0.0
238,51.0,0.0,90.0,0.0,0.0
239,65.0,0.0,15.0,0.0,0.0
240,53.0,0.0,180.0,0.0,0.0
241,60.0,96.0,90.0,0.0,0.0
242,70.0,0.0,15.0,0.0,0.0
243,58.0,96.0,90.0,0.0,0.0
244,41.0,0.0,180.0,0.0,0.0
245,69.0,96.0,180.0,0.0,0.0
246,60.0,0.0,180.0,0.0,0.0
247,63.0,0.0,90.0,0.0,0.0
248,70.0,0.0,180.0,0.0,0.0
249,58.0,48.0,90.0,0.0,0.0
250,46.0,96.0,300.0,0.0,0.0
251,63.0,0.0,90.0,0.0,0.0
252,61.0,0.0,40.0,0.0,0.0
253,53.0,48.0,40.0,0.0,0.0
254,60.0,0.0,40.0,0.0,0.0
255,51.0,96.0,40.0,0.0,0.0
256,61.0,96.0,180.0,0.0,0.0
257,65.0,0.0,180.0,0.0,0.0
258,44.0,0.0,90.0,0.0,0.0
259,42.0,0.0,90.0,0.0,0.0
260,53.0,0.0,15.0,0.0,0.0
261,70.0,96.0,300.0,0.0,0.0
262,41.0,0.0,90.0,0.0,0.0
263,51.0,48.0,40.0,0.0,0.0
264,49.0,96.0,40.0,0.0,0.0
265,42.0,96.0,180.0,0.0,0.0
266,58.0,0.0,180.0,0.0,0.0
267,70.0,0.0,90.0,0.0,0.0
268,41.0,0.0,390.0,0.0,0.0
269,65.0,0.0,300.0,0.0,0.0
270,68.0,96.0,390.0,0.0,0.0
271,51.0,0.0,15.0,0.0,0.0
272,44.0,96.0,90.0,0.0,0.0
273,49.0,96.0,90.0,0.0,0.0
274,63.0,0.0,90.0,0.0,0.0
275,48.0,0.0,90.0,0.0,0.0
276,70.0,0.0,390.0,0.0,0.0
277,42.0,0.0,90.0,0.0,0.0
278,46.0,96.0,90.0,0.0,0.0
279,61.0,0.0,390.0,0.0,0.0
280,49.0,0.0,90.0,0.0,0.0
281,53.0,96.0,90.0,0.0,0.0
282,54.0,0.0,90.0,0.0,0.0
283,58.0,96.0,90.0,0.0,0.0
284,53.0,96.0,90.0,0.0,0.0
285,56.0,0.0,90.0,0.0,0.0
286,51.0,0.0,90.0,0.0,0.0
287,72.0,96.0,390.0,0.0,0.0
288,54.0,48.0,90.0,0.0,0.0
289,63.0,0.0,390.0,0.0,0.0
290,49.0,96.0,90.0,0.0,0.0
291,53.0,48.0,40.0,0.0,0.0
292,51.0,0.0,40.0,0.0,0.0
293,48.0,48.0,90.0,0.0,0.0
294,46.0,48.0,40.0,0.0,0.0
295,44.0,0.0,40.0,0.0,0.0
296,65.0,96.0,90.0,0.0,0.0
297,56.0,0.0,15.0,0.0,0.0
298,49.0,0.0,180.0,0.0,0.0
299,67.0,48.0,90.0,0.0,0.0
300,58.0,0.0,90.0,0.0,0.0
301,59.0,48.0,40.0,0.0,0.0
302,50.0,0.0,180.0,0.0,0.0
303,65.0,0.0,180.0,0.0,0.0
304,56.0,48.0,40.0,0.0,0.0
305,55.0,48.0,40.0,0.0,0.0
306,53.0,0.0,40.0,0.0,0.0
307,58.0,96.0,90.0,0.0,0.0
308,65.0,96.0,15.0,0.0,0.0
309,51.0,0.0,180.0,0.0,0.0
310,60.0,96.0,90.0,0.0,0.0
311,39.0,0.0,180.0,0.0,0.0
312,67.0,0.0,90.0,0.0,0.0
313,44.0,96.0,300.0,0.0,0.0
314,51.0,96.0,15.0,0.0,0.0
315,61.0,0.0,15.0,0.0,0.0
316,68.0,0.0,90.0,0.0,0.0
317,60.0,48.0,40.0,0.0,0.0
318,63.0,0.0,90.0,0.0,0.0
319,58.0,96.0,40.0,0.0,0.0
320,60.0,0.0,180.0,0.0,0.0
321,42.0,0.0,90.0,0.0,0.0
322,51.0,48.0,90.0,0.0,0.0
323,68.0,96.0,15.0,0.0,0.0
324,60.0,0.0,90.0,0.0,0.0
325,41.0,0.0,390.0,0.0,0.0
326,56.0,96.0,90.0,0.0,0.0
327,49.0,48.0,40.0,0.0,0.0
328,51.0,0.0,40.0,0.0,0.0
329,53.0,0.0,180.0,0.0,0.0
330,65.0,0.0,90.0,0.0,0.0
331,53.0,48.0,90.0,0.0,0.0
332,42.0,96.0,390.0,0.0,0.0
333,61.0,96.0,15.0,0.0,0.0
334,70.0,0.0,390.0,0.0,0.0
335,51.0,48.0,40.0,0.0,0.0
336,58.0,96.0,90.0,0.0,0.0
337,53.0,0.0,40.0,0.0,0.0
338,63.0,96.0,90.0,0.0,0.0
339,61.0,0.0,90.0,0.0,0.0
340,54.0,0.0,15.0,0.0,0.0
341,60.0,96.0,90.0,0.0,0.0
342,44.0,0.0,390.0,0.0,0.0
343,70.0,0.0,90.0,0.0,0.0
344,63.0,0.0,90.0,0.0,0.0
345,58.0,0.0,90.0,0.0,0.0
346,53.0,0.0,90.0,0.0,0.0
347,68.0,96.0,90.0,0.0,0.0
348,51.0,0.0,90.0,0.0,0.0
349,66.0,0.0,90.0,0.0,0.0
350,59.0,96.0,15.0,0.0,0.0
351,65.0,96.0,90.0,0.0,0.0
352,37.0,0.0,180.0,0.0,0.0
353,49.0,0.0,180.0,0.0,0.0
354,63.0,0.0,90.0,0.0,0.0
355,38.0,96.0,180.0,0.0,0.0
356,65.0,0.0,180.0,0.0,0.0
357,58.0,96.0,90.0,0.0,0.0
358,56.0,0.0,90.0,0.0,0.0
359,55.0,0.0,90.0,0.0,0.0
360,65.0,96.0,180.0,0.0,0.0
361,39.0,96.0,90.0,0.0,0.0
362,53.0,0.0,90.0,0.0,0.0
363,37.0,0.0,90.0,0.0,0.0
364,36.0,96.0,90.0,0.0,0.0
365,63.0,0.0,90.0,0.0,0.0
366,61.0,0.0,90.0,0.0,0.0
367,34.0,0.0,90.0,0.0,0.0
368,54.0,96.0,15.0,0.0,0.0
369,32.0,0.0,90.0,0.0,0.0
370,60.0,96.0,90.0,0.0,0.0
371,58.0,96.0,90.0,0.0,0.0
372,39.0,0.0,90.0,0.0,0.0
373,44.0,96.0,90.0,0.0,0.0
374,53.0,0.0,90.0,0.0,0.0
375,59.0,96.0,180.0,0.0,0.0
376,51.0,0.0,90.0,0.0,0.0
377,42.0,0.0,90.0,0.0,0.0
378,50.0,96.0,90.0,0.0,0.0
379,41.0,0.0,90.0,0.0,0.0
380,59.0,0.0,180.0,0.0,0.0
381,39.0,0.0,90.0,0.0,0.0
382,53.0,96.0,90.0,0.0,0.0
383,38.0,0.0,90.0,0.0,0.0
384,58.0,96.0,90.0,0.0,0.0
385,34.0,0.0,90.0,0.0,0.0
386,56.0,0.0,90.0,0.0,0.0
387,39.0,0.0,90.0,0.0,0.0
388,58.0,96.0,15.0,0.0,0.0
389,54.0,96.0,90.0,0.0,0.0
390,53.0,0.0,90.0,0.0,0.0
391,46.0,96.0,90.0,0.0,0.0
392,54.0,96.0,180.0,0.0,0.0
393,51.0,96.0,90.0,0.0,0.0
394,49.0,0.0,90.0,0.0,0.0
395,58.0,0.0,90.0,0.0,0.0
396,48.0,96.0,90.0,0.0,0.0
397,55.0,96.0,180.0,0.0,0.0
398,63.0,0.0,90.0,0.0,0.0
399,61.0,0.0,90.0,0.0,0.0
400,46.0,0.0,90.0,0.0,0.0
401,60.0,96.0,90.0,0.0,0.0
402,44.0,0.0,90.0,0.0,0.0
403,42.0,0.0,90.0,0.0,0.0
404,63.0,0.0,90.0,0.0,0.0
405,56.0,96.0,15.0,0.0,0.0
406,68.0,96.0,300.0,0.0,0.0
407,41.0,96.0,90.0,0.0,0.0
408,60.0,0.0,90.0,0.0,0.0
409,44.0,96.0,90.0,0.0,0.0
410,49.0,0.0,90.0,0.0,0.0
411,65.0,0.0,180.0,0.0,0.0
412,48.0,0.0,90.0,0.0,0.0
413,68.0,96.0,90.0,0.0,0.0
414,46.0,96.0,90.0,0.0,0.0
415,73.0,0.0,90.0,0.0,0.0
416,65.0,0.0,90.0,0.0,0.0
417,72.0,0.0,90.0,0.0,0.0
418,63.0,0.0,90.0,0.0,0.0
419,48.0,96.0,90.0,0.0,0.0
420,61.0,48.0,150.0,0.0,0.0
421,58.0,0.0,180.0,0.0,0.0
422,70.0,48.0,90.0,0.0,0.0
423,49.0,0.0,180.0,0.0,0.0
424,68.0,0.0,90.0,0.0,0.0
425,60.0,96.0,40.0,0.0,0.0
426,67.0,96.0,180.0,0.0,0.0
427,51.0,0.0,300.0,0.0,0.0
428,49.0,0.0,90.0,0.0,0.0
429,58.0,48.0,90.0,0.0,0.0
430,60.0,48.0,40.0,0.0,0.0
431,48.0,96.0,180.0,0.0,0.0
432,61.0,0.0,40.0,0.0,0.0
433,63.0,0.0,180.0,0.0,0.0
434,69.0,0.0,180.0,0.0,0.0
435,47.0,0.0,90.0,0.0,0.0
436,53.0,96.0,90.0,0.0,0.0
437,70.0,0.0,300.0,0.0,0.0
438,54.0,0.0,390.0,0.0,0.0
439,46.0,0.0,90.0,0.0,0.0
440,62.0,48.0,90.0,0.0,0.0
441,63.0,0.0,40.0,0.0,0.0
442,48.0,48.0,40.0,0.0,0.0
443,50.0,0.0,40.0,0.0,0.0
444,65.0,96.0,40.0,0.0,0.0
445,66.0,48.0,90.0,0.0,0.0
446,65.0,0.0,40.0,0.0,0.0
447,68.0,48.0,40.0,0.0,0.0
448,66.0,0.0,40.0,0.0,0.0
449,70.0,96.0,40.0,0.0,0.0
450,51.0,0.0,15.0,0.0,0.0
451,53.0,0.0,390.0,0.0,0.0
452,68.0,48.0,300.0,0.0,0.0
453,72.0,96.0,90.0,0.0,0.0
454,44.0,96.0,90.0,0.0,0.0
455,77.0,0.0,180.0,0.0,0.0
456,70.0,0.0,90.0,0.0,0.0
457,66.0,48.0,40.0,0.0,0.0
458,65.0,0.0,40.0,0.0,0.0
459,51.0,96.0,390.0,0.0,0.0
460,49.0,96.0,15.0,0.0,0.0
461,70.0,0.0,90.0,0.0,0.0
462,66.0,48.0,300.0,0.0,0.0
463,75.0,0.0,180.0,0.0,0.0
464,47.0,48.0,40.0,0.0,0.0
465,46.0,96.0,40.0,0.0,0.0
466,47.0,0.0,180.0,0.0,0.0
467,65.0,48.0,40.0,0.0,0.0
468,63.0,0.0,40.0,0.0,0.0
469,62.0,0.0,180.0,0.0,0.0
470,58.0,0.0,300.0,0.0,0.0
471,68.0,0.0,15.0,0.0,0.0
472,46.0,96.0,180.0,0.0,0.0
473,67.0,48.0,180.0,0.0,0.0
474,60.0,48.0,40.0,0.0,0.0
475,66.0,96.0,90.0,0.0,0.0
476,58.0,0.0,40.0,0.0,0.0
477,57.0,0.0,90.0,0.0,0.0
478,63.0,0.0,15.0,0.0,0.0
479,65.0,0.0,180.0,0.0,0.0
480,53.0,0.0,90.0,0.0,0.0
481,61.0,48.0,40.0,0.0,0.0
482,60.0,96.0,40.0,0.0,0.0
483,46.0,0.0,180.0,0.0,0.0
484,61.0,48.0,90.0,0.0,0.0
485,63.0,48.0,40.0,0.0,0.0
486,61.0,96.0,40.0,0.0,0.0
487,60.0,48.0,300.0,0.0,0.0
488,58.0,0.0,15.0,0.0,0.0
489,53.0,0.0,300.0,0.0,0.0
490,57.0,48.0,40.0,0.0,0.0
491,55.0,96.0,40.0,0.0,0.0
492,57.0,0.0,90.0,0.0,0.0
493,51.0,0.0,90.0,0.0,0.0
494,61.0,0.0,40.0,0.0,0.0
495,58.0,48.0,40.0,0.0,0.0
496,60.0,0.0,40.0,0.0,0.0
497,63.0,0.0,40.0,0.0,0.0
498,65.0,96.0,15.0,0.0,0.0
499,70.0,96.0,300.0,0.0,0.0
500,58.0,96.0,180.0,0.0,0.0
501,49.0,96.0,390.0,0.0,0.0
502,63.0,0.0,90.0,0.0,0.0
503,61.0,0.0,90.0,0.0,0.0
504,53.0,0.0,180.0,0.0,0.0
505,59.0,0.0,90.0,0.0,0.0
506,68.0,0.0,90.0,0.0,0.0
507,66.0,0.0,390.0,0.0,0.0
508,58.0,48.0,90.0,0.0,0.0
509,51.0,0.0,390.0,0.0,0.0
510,63.0,48.0,40.0,0.0,0.0
511,54.0,0.0,90.0,0.0,0.0
512,62.0,96.0,40.0,0.0,0.0
513,59.0,96.0,90.0,0.0,0.0
514,63.0,0.0,180.0,0.0,0.0
515,58.0,96.0,90.0,0.0,0.0
516,68.0,0.0,390.0,0.0,0.0
517,56.0,48.0,90.0,0.0,0.0
518,53.0,0.0,390.0,0.0,0.0
519,63.0,96.0,180.0,0.0,0.0
520,58.0,48.0,40.0,0.0,0.0
521,59.0,0.0,40.0,0.0,0.0
522,58.0,96.0,90.0,0.0,0.0
523,61.0,0.0,180.0,0.0,0.0
524,56.0,96.0,90.0,0.0,0.0
525,55.0,48.0,90.0,0.0,0.0
526,70.0,0.0,390.0,0.0,0.0
527,61.0,0.0,90.0,0.0,0.0
528,46.0,96.0,390.0,0.0,0.0
529,63.0,48.0,40.0,0.0,0.0
530,53.0,96.0,90.0,0.0,0.0
531,65.0,0.0,40.0,0.0,0.0
532,54.0,0.0,180.0,0.0,0.0
533,63.0,96.0,90.0,0.0,0.0
534,61.0,0.0,90.0,0.0,0.0
535,63.0,0.0,180.0,0.0,0.0
536,60.0,96.0,90.0,0.0,0.0
537,54.0,0.0,180.0,0.0,0.0
538,56.0,96.0,90.0,0.0,0.0
539,65.0,96.0,90.0,0.0,0.0
540,53.0,96.0,180.0,0.0,0.0
541,61.0,0.0,180.0,0.0,0.0
542,66.0,0.0,90.0,0.0,0.0
543,44.0,0.0,15.0,0.0,0.0
544,51.0,48.0,90.0,0.0,0.0
545,68.0,0.0,90.0,0.0,0.0
546,61.0,0.0,90.0,0.0,0.0
547,60.0,48.0,40.0,0.0,0.0
548,63.0,0.0,90.0,0.0,0.0
549,54.0,96.0,90.0,0.0,0.0
550,58.0,0.0,40.0,0.0,0.0
551,68.0,0.0,90.0,0.0,0.0
552,53.0,96.0,90.0,0.0,0.0
553,59.0,96.0,180.0,0.0,0.0
554,51.0,0.0,90.0,0.0,0.0
555,66.0,0.0,90.0,0.0,0.0
556,49.0,0.0,180.0,0.0,0.0
557,65.0,96.0,90.0,0.0,0.0
558,46.0,96.0,300.0,0.0,0.0
559,59.0,0.0,180.0,0.0,0.0
560,61.0,96.0,90.0,0.0,0.0
561,58.0,0.0,180.0,0.0,0.0
562,66.0,0.0,180.0,0.0,0.0
563,47.0,96.0,90.0,0.0,0.0
564,56.0,96.0,390.0,0.0,0.0
565,66.0,96.0,180.0,0.0,0.0
566,49.0,96.0,90.0,0.0,0.0
567,44.0,0.0,90.0,0.0,0.0
568,49.0,96.0,90.0,0.0,0.0
569,65.0,0.0,180.0,0.0,0.0
570,47.0,0.0,90.0,0.0,0.0
571,46.0,48.0,90.0,0.0,0.0
572,66.0,0.0,180.0,0.0,0.0
573,61.0,0.0,390.0,0.0,0.0
574,44.0,48.0,40.0,0.0,0.0
575,42.0,96.0,40.0,0.0,0.0
576,44.0,96.0,90.0,0.0,0.0
577,64.0,96.0,180.0,0.0,0.0
578,46.0,0.0,90.0,0.0,0.0
579,47.0,48.0,90.0,0.0,0.0
580,64.0,0.0,90.0,0.0,0.0
581,63.0,48.0,40.0,0.0,0.0
582,42.0,0.0,90.0,0.0,0.0
583,61.0,96.0,40.0,0.0,0.0
584,63.0,0.0,90.0,0.0,0.0
585,54.0,96.0,90.0,0.0,0.0
586,47.0,0.0,180.0,0.0,0.0
587,56.0,96.0,90.0,0.0,0.0
588,65.0,0.0,90.0,0.0,0.0
589,66.0,0.0,90.0,0.0,0.0
590,58.0,48.0,390.0,0.0,0.0
591,49.0,96.0,300.0,0.0,0.0
592,47.0,48.0,90.0,0.0,0.0
593,61.0,96.0,90.0,0.0,0.0
594,46.0,48.0,40.0,0.0,0.0
595,44.0,0.0,40.0,0.0,0.0
596,46.0,0.0,90.0,0.0,0.0
597,66.0,0.0,180.0,0.0,0.0
598,48.0,0.0,90.0,0.0,0.0
599,51.0,0.0,90.0,0.0,0.0
600,53.0,0.0,390.0,0.0,0.0
601,56.0,96.0,390.0,0.0,0.0
602,65.0,48.0,40.0,0.0,0.0
603,49.0,48.0,180.0,0.0,0.0
604,66.0,48.0,40.0,0.0,0.0
605,68.0,48.0,40.0,0.0,0.0
606,70.0,0.0,40.0,0.0,0.0
607,44.0,0.0,90.0,0.0,0.0
608,71.0,48.0,40.0,0.0,0.0
609,65.0,48.0,40.0,0.0,0.0
610,46.0,0.0,90.0,0.0,0.0
611,63.0,48.0,40.0,0.0,0.0
612,62.0,0.0,40.0,0.0,0.0
613,63.0,48.0,300.0,0.0,0.0
614,54.0,0.0,390.0,0.0,0.0
615,47.0,96.0,90.0,0.0,0.0
616,51.0,0.0,390.0,0.0,0.0
617,42.0,96.0,90.0,0.0,0.0
618,65.0,48.0,40.0,0.0,0.0
619,66.0,0.0,40.0,0.0,0.0
620,65.0,0.0,90.0,0.0,0.0
621,47.0,96.0,15.0,0.0,0.0
622,61.0,48.0,300.0,0.0,0.0
623,49.0,0.0,390.0,0.0,0.0
624,66.0,48.0,40.0,0.0,0.0
625,46.0,0.0,180.0,0.0,0.0
626,68.0,96.0,40.0,0.0,0.0
627,44.0,0.0,40.0,0.0,0.0
628,59.0,48.0,40.0,0.0,0.0
629,61.0,0.0,40.0,0.0,0.0
630,46.0,0.0,40.0,0.0,0.0
631,56.0,0.0,300.0,0.0,0.0
632,48.0,0.0,90.0,0.0,0.0
633,66.0,96.0,15.0,0.0,0.0
634,63.0,48.0,300.0,0.0,0.0
635,65.0,0.0,40.0,0.0,0.0
636,50.0,48.0,40.0,0.0,0.0
637,66.0,0.0,40.0,0.0,0.0
638,51.0,96.0,40.0,0.0,0.0
639,68.0,0.0,180.0,0.0,0.0
640,53.0,0.0,90.0,0.0,0.0
641,62.0,0.0,40.0,0.0,0.0
642,58.0,48.0,40.0,0.0,0.0
643,51.0,0.0,90.0,0.0,0.0
644,63.0,96.0,40.0,0.0,0.0
645,59.0,0.0,40.0,0.0,0.0
646,58.0,48.0,300.0,0.0,0.0
647,68.0,0.0,90.0,0.0,0.0
648,65.0,0.0,300.0,0.0,0.0
649,50.0,48.0,90.0,0.0,0.0
650,70.0,48.0,40.0,0.0,0.0
651,46.0,0.0,90.0,0.0,0.0
652,68.0,96.0,40.0,0.0,0.0
653,66.0,96.0,180.0,0.0,0.0
654,63.0,0.0,40.0,0.0,0.0
655,59.0,48.0,40.0,0.0,0.0
656,61.0,0.0,40.0,0.0,0.0
657,58.0,0.0,40.0,0.0,0.0
658,59.0,0.0,180.0,0.0,0.0
659,51.0,0.0,15.0,0.0,0.0
660,56.0,96.0,90.0,0.0,0.0
661,65.0,0.0,180.0,0.0,0.0
662,53.0,96.0,90.0,0.0,0.0
663,77.0,0.0,180.0,0.0,0.0
664,50.0,0.0,180.0,0.0,0.0
665,58.0,96.0,90.0,0.0,0.0
666,58.0,0.0,15.0,0.0,0.0
667,51.0,0.0,300.0,0.0,0.0
668,70.0,96.0,300.0,0.0,0.0
669,56.0,96.0,15.0,0.0,0.0
670,54.0,48.0,40.0,0.0,0.0
671,53.0,96.0,40.0,0.0,0.0
672,63.0,0.0,180.0,0.0,0.0
673,54.0,0.0,180.0,0.0,0.0
674,72.0,0.0,90.0,0.0,0.0
675,45.0,96.0,90.0,0.0,0.0
676,61.0,0.0,180.0,0.0,0.0
677,53.0,96.0,180.0,0.0,0.0
678,73.0,0.0,390.0,0.0,0.0
679,46.0,96.0,90.0,0.0,0.0
680,48.0,0.0,90.0,0.0,0.0
681,49.0,96.0,90.0,0.0,0.0
682,58.0,0.0,180.0,0.0,0.0
683,51.0,0.0,90.0,0.0,0.0
684,53.0,48.0,300.0,0.0,0.0
685,65.0,0.0,300.0,0.0,0.0
686,72.0,0.0,390.0,0.0,0.0
687,58.0,48.0,90.0,0.0,0.0
688,57.0,48.0,40.0,0.0,0.0
689,55.0,96.0,40.0,0.0,0.0
690,57.0,96.0,180.0,0.0,0.0
691,63.0,0.0,90.0,0.0,0.0
692,54.0,48.0,40.0,0.0,0.0
693,53.0,0.0,40.0,0.0,0.0
694,70.0,0.0,390.0,0.0,0.0
695,54.0,96.0,90.0,0.0,0.0
696,61.0,0.0,390.0,0.0,0.0
697,58.0,48.0,300.0,0.0,0.0
698,49.0,96.0,90.0,0.0,0.0
699,57.0,48.0,40.0,0.0,0.0
700,58.0,0.0,40.0,0.0,0.0
701,59.0,0.0,300.0,0.0,0.0
702,63.0,0.0,390.0,0.0,0.0
703,54.0,96.0,15.0,0.0,0.0
704,51.0,96.0,90.0,0.0,0.0
705,56.0,96.0,90.0,0.0,0.0
706,58.0,0.0,90.0,0.0,0.0
707,54.0,0.0,90.0,0.0,0.0
708,53.0,48.0,90.0,0.0,0.0
709,65.0,0.0,390.0,0.0,0.0
710,56.0,0.0,90.0,0.0,0.0
711,75.0,96.0,15.0,0.0,0.0
712,51.0,0.0,90.0,0.0,0.0
713,58.0,48.0,40.0,0.0,0.0
714,59.0,0.0,40.0,0.0,0.0
715,58.0,96.0,90.0,0.0,0.0
716,74.0,0.0,180.0,0.0,0.0
717,53.0,96.0,180.0,0.0,0.0
718,56.0,0.0,90.0,0.0,0.0
719,58.0,96.0,180.0,0.0,0.0
720,54.0,48.0,90.0,0.0,0.0
721,75.0,0.0,90.0,0.0,0.0
722,51.0,0.0,180.0,0.0,0.0
723,73.0,48.0,40.0,0.0,0.0
724,53.0,0.0,90.0,0.0,0.0
725,71.0,0.0,40.0,0.0,0.0
726,54.0,96.0,90.0,0.0,0.0
727,70.0,0.0,90.0,0.0,0.0
728,71.0,0.0,90.0,0.0,0.0
729,56.0,96.0,90.0,0.0,0.0
730,66.0,48.0,90.0,0.0,0.0
731,73.0,0.0,300.0,0.0,0.0
732,58.0,0.0,90.0,0.0,0.0
733,56.0,0.0,90.0,0.0,0.0
734,65.0,48.0,40.0,0.0,0.0
735,63.0,96.0,40.0,0.0,0.0
736,61.0,48.0,90.0,0.0,0.0
737,58.0,0.0,90.0,0.0,0.0
738,59.0,0.0,90.0,0.0,0.0
739,63.0,96.0,90.0,0.0,0.0
740,71.0,48.0,40.0,0.0,0.0
741,70.0,0.0,40.0,0.0,0.0
742,65.0,0.0,90.0,0.0,0.0
743,61.0,0.0,90.0,0.0,0.0
744,68.0,48.0,90.0,0.0,0.0
745,66.0,0.0,90.0,0.0,0.0
746,70.0,0.0,90.0,0.0,0.0
747,59.0,48.0,40.0,0.0,0.0
748,58.0,96.0,40.0,0.0,0.0
749,68.0,0.0,90.0,0.0,0.0
750,71.0,48.0,90.0,0.0,0.0
751,56.0,0.0,90.0,0.0,0.0
752,66.0,48.0,40.0,0.0,0.0
753,58.0,96.0,90.0,0.0,0.0
754,73.0,0.0,90.0,0.0,0.0
755,65.0,0.0,40.0,0.0,0.0
756,75.0,0.0,90.0,0.0,0.0
757,59.0,48.0,90.0,0.0,0.0
758,63.0,0.0,90.0,0.0,0.0
759,65.0,0.0,90.0,0.0,0.0
760,58.0,48.0,40.0,0.0,0.0
761,73.0,0.0,40.0,0.0,0.0
762,71.0,96.0,40.0,0.0,0.0
763,56.0,0.0,40.0,0.0,0.0
764,70.0,0.0,90.0,0.0,0.0
765,54.0,48.0,90.0,0.0,0.0
766,66.0,48.0,180.0,0.0,0.0
767,42.0,0.0,180.0,0.0,0.0
768,71.0,48.0,40.0,0.0,0.0
769,70.0,0.0,40.0,0.0,0.0
770,49.0,0.0,15.0,0.0,0.0
771,49.0,48.0,40.0,0.0,0.0
772,68.0,0.0,300.0,0.0,0.0
773,66.0,48.0,90.0,0.0,0.0
774,51.0,0.0,40.0,0.0,0.0
775,53.0,48.0,40.0,0.0,0.0
776,65.0,0.0,40.0,0.0,0.0
777,63.0,0.0,40.0,0.0,0.0
778,54.0,96.0,40.0,0.0,0.0
779,65.0,96.0,180.0,0.0,0.0
780,56.0,0.0,180.0,0.0,0.0
781,47.0,0.0,90.0,0.0,0.0
782,70.0,48.0,40.0,0.0,0.0
783,71.0,0.0,40.0,0.0,0.0
784,46.0,0.0,390.0,0.0,0.0
785,65.0,48.0,90.0,0.0,0.0
786,66.0,48.0,40.0,0.0,0.0
787,68.0,96.0,40.0,0.0,0.0
788,66.0,96.0,90.0,0.0,0.0
789,49.0,0.0,15.0,0.0,0.0
790,65.0,0.0,90.0,0.0,0.0
791,47.0,0.0,390.0,0.0,0.0
792,51.0,0.0,390.0,0.0,0.0
793,73.0,96.0,15.0,0.0,0.0
794,63.0,48.0,90.0,0.0,0.0
795,71.0,48.0,40.0,0.0,0.0
796,62.0,0.0,90.0,0.0,0.0
797,70.0,96.0,40.0,0.0,0.0
798,68.0,96.0,90.0,0.0,0.0
799,63.0,0.0,180.0,0.0,0.0
800,66.0,96.0,90.0,0.0,0.0
801,53.0,0.0,390.0,0.0,0.0
802,49.0,96.0,390.0,0.0,0.0
803,65.0,48.0,90.0,0.0,0.0
804,70.0,96.0,300.0,0.0,0.0
805,77.0,48.0,40.0,0.0,0.0
806,75.0,96.0,40.0,0.0,0.0
807,73.0,0.0,90.0,0.0,0.0
808,71.0,0.0,90.0,0.0,0.0
809,68.0,0.0,90.0,0.0,0.0
810,54.0,0.0,390.0,0.0,0.0
811,71.0,0.0,90.0,0.0,0.0
812,42.0,48.0,90.0,0.0,0.0
813,70.0,48.0,180.0,0.0,0.0
814,44.0,48.0,40.0,0.0,0.0
815,46.0,96.0,40.0,0.0,0.0
816,47.0,0.0,180.0,0.0,0.0
817,68.0,48.0,40.0,0.0,0.0
818,66.0,0.0,40.0,0.0,0.0
819,68.0,0.0,390.0,0.0,0.0
820,49.0,0.0,90.0,0.0,0.0
821,47.0,0.0,90.0,0.0,0.0
822,65.0,48.0,90.0,0.0,0.0
823,49.0,48.0,40.0,0.0,0.0
824,56.0,0.0,90.0,0.0,0.0
825,63.0,96.0,90.0,0.0,0.0
826,51.0,0.0,40.0,0.0,0.0
827,49.0,96.0,90.0,0.0,0.0
828,65.0,96.0,180.0,0.0,0.0
829,61.0,0.0,180.0,0.0,0.0
830,47.0,0.0,90.0,0.0,0.0
831,46.0,48.0,90.0,0.0,0.0
832,66.0,0.0,390.0,0.0,0.0
833,61.0,0.0,90.0,0.0,0.0
834,70.0,96.0,390.0,0.0,0.0
835,59.0,0.0,90.0,0.0,0.0
836,47.0,48.0,40.0,0.0,0.0
837,49.0,96.0,40.0,0.0,0.0
838,58.0,0.0,180.0,0.0,0.0
839,51.0,96.0,90.0,0.0,0.0
840,49.0,0.0,90.0,0.0,0.0
841,66.0,0.0,90.0,0.0,0.0
842,63.0,48.0,300.0,0.0,0.0
843,48.0,48.0,90.0,0.0,0.0
844,65.0,48.0,40.0,0.0,0.0
845,50.0,0.0,40.0,0.0,0.0
846,66.0,96.0,40.0,0.0,0.0
847,51.0,0.0,40.0,0.0,0.0
848,53.0,0.0,90.0,0.0,0.0
849,51.0,96.0,90.0,0.0,0.0
850,62.0,48.0,40.0,0.0,0.0
851,63.0,0.0,40.0,0.0,0.0
852,68.0,0.0,15.0,0.0,0.0
853,58.0,0.0,300.0,0.0,0.0
854,65.0,48.0,90.0,0.0,0.0
855,50.0,0.0,90.0,0.0,0.0
856,48.0,48.0,90.0,0.0,0.0
857,77.0,0.0,90.0,0.0,0.0
858,68.0,48.0,40.0,0.0,0.0
859,66.0,0.0,40.0,0.0,0.0
860,70.0,96.0,180.0,0.0,0.0
861,65.0,48.0,40.0,0.0,0.0
862,50.0,0.0,180.0,0.0,0.0
863,63.0,96.0,40.0,0.0,0.0
864,56.0,0.0,90.0,0.0,0.0
865,65.0,0.0,90.0,0.0,0.0
866,55.0,0.0,390.0,0.0,0.0
867,51.0,96.0,300.0,0.0,0.0
868,65.0,0.0,90.0,0.0,0.0
869,70.0,96.0,90.0,0.0,0.0
870,63.0,96.0,90.0,0.0,0.0
871,72.0,0.0,90.0,0.0,0.0
872,58.0,0.0,180.0,0.0,0.0
873,52.0,0.0,90.0,0.0,0.0
874,53.0,48.0,90.0,0.0,0.0
875,73.0,96.0,15.0,0.0,0.0
876,65.0,0.0,300.0,0.0,0.0
877,57.0,0.0,390.0,0.0,0.0
878,54.0,48.0,40.0,0.0,0.0
879,53.0,96.0,40.0,0.0,0.0
880,51.0,96.0,90.0,0.0,0.0
881,63.0,0.0,90.0,0.0,0.0
882,53.0,96.0,90.0,0.0,0.0
883,58.0,0.0,390.0,0.0,0.0
884,72.0,0.0,15.0,0.0,0.0
885,61.0,0.0,390.0,0.0,0.0
886,54.0,0.0,90.0,0.0,0.0
887,49.0,96.0,90.0,0.0,0.0
888,70.0,48.0,40.0,0.0,0.0
889,69.0,0.0,40.0,0.0,0.0
890,70.0,0.0,180.0,0.0,0.0
891,54.0,96.0,90.0,0.0,0.0
892,46.0,96.0,90.0,0.0,0.0
893,63.0,96.0,390.0,0.0,0.0
894,51.0,96.0,90.0,0.0,0.0
895,70.0,0.0,180.0,0.0,0.0
896,47.0,96.0,180.0,0.0,0.0
897,53.0,0.0,90.0,0.0,0.0
898,54.0,48.0,90.0,0.0,0.0
899,48.0,0.0,180.0,0.0,0.0
900,75.0,0.0,180.0,0.0,0.0
901,56.0,48.0,40.0,0.0,0.0
902,54.0,0.0,40.0,0.0,0.0
903,49.0,48.0,300.0,0.0,0.0
904,75.0,0.0,180.0,0.0,0.0
905,53.0,48.0,90.0,0.0,0.0
906,65.0,0.0,390.0,0.0,0.0
907,55.0,48.0,40.0,0.0,0.0
908,57.0,96.0,40.0,0.0,0.0
909,73.0,0.0,180.0,0.0,0.0
910,58.0,0.0,90.0,0.0,0.0
911,56.0,0.0,90.0,0.0,0.0
912,48.0,48.0,40.0,0.0,0.0
913,49.0,96.0,40.0,0.0,0.0
914,58.0,48.0,90.0,0.0,0.0
915,73.0,0.0,180.0,0.0,0.0
916,51.0,0.0,390.0,0.0,0.0
917,54.0,96.0,390.0,0.0,0.0
918,63.0,48.0,40.0,0.0,0.0
919,61.0,48.0,40.0,0.0,0.0
920,72.0,0.0,90.0,0.0,0.0
921,63.0,48.0,40.0,0.0,0.0
922,65.0,96.0,40.0,0.0,0.0
923,70.0,0.0,90.0,0.0,0.0
924,66.0,0.0,90.0,0.0,0.0
925,53.0,96.0,390.0,0.0,0.0
926,69.0,0.0,180.0,0.0,0.0
927,51.0,48.0,90.0,0.0,0.0
928,60.0,0.0,90.0,0.0,0.0
929,49.0,48.0,40.0,0.0,0.0
930,65.0,0.0,180.0,0.0,0.0
931,48.0,96.0,40.0,0.0,0.0
932,70.0,0.0,180.0,0.0,0.0
933,49.0,48.0,90.0,0.0,0.0
934,63.0,48.0,40.0,0.0,0.0
935,46.0,0.0,90.0,0.0,0.0
936,61.0,0.0,40.0,0.0,0.0
937,60.0,96.0,90.0,0.0,0.0
938,70.0,0.0,180.0,0.0,0.0
939,53.0,96.0,300.0,0.0,0.0
940,58.0,96.0,90.0,0.0,0.0
941,69.0,96.0,180.0,0.0,0.0
942,60.0,0.0,180.0,0.0,0.0
943,51.0,0.0,90.0,0.0,0.0
944,53.0,0.0,90.0,0.0,0.0
945,58.0,0.0,90.0,0.0,0.0
946,70.0,48.0,90.0,0.0,0.0
947,49.0,0.0,390.0,0.0,0.0
948,58.0,0.0,40.0,0.0,0.0
949,65.0,48.0,90.0,0.0,0.0
950,61.0,48.0,40.0,0.0,0.0
951,57.0,0.0,40.0,0.0,0.0
952,60.0,0.0,40.0,0.0,0.0
953,58.0,0.0,180.0,0.0,0.0
954,61.0,48.0,40.0,0.0,0.0
955,70.0,96.0,90.0,0.0,0.0
956,63.0,0.0,40.0,0.0,0.0
957,68.0,0.0,90.0,0.0,0.0
958,51.0,0.0,390.0,0.0,0.0
959,58.0,0.0,90.0,0.0,0.0
960,65.0,96.0,15.0,0.0,0.0
961,63.0,48.0,40.0,0.0,0.0
962,54.0,96.0,90.0,0.0,0.0
963,62.0,0.0,40.0,0.0,0.0
964,63.0,0.0,90.0,0.0,0.0
965,59.0,96.0,90.0,0.0,0.0
966,66.0,0.0,90.0,0.0,0.0
967,58.0,48.0,90.0,0.0,0.0
968,60.0,96.0,180.0,0.0,0.0
969,66.0,0.0,15.0,0.0,0.0
970,53.0,0.0,390.0,0.0,0.0
971,58.0,48.0,90.0,0.0,0.0
972,65.0,0.0,40.0,0.0,0.0
973,72.0,0.0,90.0,0.0,0.0
974,57.0,48.0,40.0,0.0,0.0
975,55.0,0.0,40.0,0.0,0.0
976,57.0,0.0,180.0,0.0,0.0
977,77.0,96.0,90.0,0.0,0.0
978,72.0,0.0,15.0,0.0,0.0
979,58.0,0.0,180.0,0.0,0.0
980,75.0,96.0,15.0,0.0,0.0
981,73.0,48.0,40.0,0.0,0.0
982,65.0,0.0,90.0,0.0,0.0
983,72.0,0.0,40.0,0.0,0.0
984,73.0,48.0,90.0,0.0,0.0
985,46.0,48.0,15.0,0.0,0.0
986,44.0,0.0,40.0,0.0,0.0
987,42.0,48.0,40.0,0.0,0.0
988,70.0,0.0,90.0,0.0,0.0
989,41.0,0.0,40.0,0.0,0.0
990,53.0,0.0,15.0,0.0,0.0
991,70.0,96.0,15.0,0.0,0.0
992,78.0,0.0,390.0,0.0,0.0
993,72.0,48.0,40.0,0.0,0.0
994,46.0,48.0,90.0,0.0,0.0
995,73.0,0.0,40.0,0.0,0.0
996,39.0,0.0,15.0,0.0,0.0
997,72.0,48.0,90.0,0.0,0.0
998,51.0,0.0,180.0,0.0,0.0
999,41.0,0.0,40.0,0.0,0.0
1000,42.0,48.0,40.0,0.0,0.0
1001,70.0,96.0,90.0,0.0,0.0
1002,39.0,0.0,40.0,0.0,0.0
1003,72.0,0.0,180.0,0.0,0.0
1004,51.0,48.0,90.0,0.0,0.0
1005,41.0,0.0,390.0,0.0,0.0
1006,69.0,0.0,90.0,0.0,0.0
1007,65.0,48.0,180.0,0.0,0.0
1008,49.0,48.0,40.0,0.0,0.0
1009,48.0,96.0,40.0,0.0,0.0
1010,49.0,0.0,90.0,0.0,0.0
1011,70.0,0.0,180.0,0.0,0.0
1012,63.0,48.0,40.0,0.0,0.0
1013,46.0,96.0,90.0,0.0,0.0
1014,61.0,0.0,40.0,0.0,0.0
1015,70.0,0.0,180.0,0.0,0.0
1016,41.0,0.0,390.0,0.0,0.0
1017,63.0,48.0,90.0,0.0,0.0
1018,48.0,0.0,90.0,0.0,0.0
1019,60.0,48.0,150.0,0.0,0.0
1020,49.0,48.0,40.0,0.0,0.0
1021,51.0,48.0,40.0,0.0,0.0
1022,69.0,0.0,180.0,0.0,0.0
1023,61.0,96.0,40.0,0.0,0.0
1024,63.0,0.0,90.0,0.0,0.0
1025,70.0,48.0,90.0,0.0,0.0
1026,53.0,96.0,15.0,0.0,0.0
1027,63.0,0.0,90.0,0.0,0.0
1028,65.0,48.0,180.0,0.0,0.0
1029,61.0,48.0,40.0,0.0,0.0
1030,63.0,48.0,40.0,0.0,0.0
1031,61.0,48.0,40.0,0.0,0.0
1032,60.0,0.0,40.0,0.0,0.0
1033,63.0,0.0,90.0,0.0,0.0
1034,58.0,48.0,40.0,0.0,0.0
1035,57.0,48.0,40.0,0.0,0.0
1036,61.0,0.0,90.0,0.0,0.0
1037,46.0,0.0,15.0,0.0,0.0
1038,58.0,48.0,40.0,0.0,0.0
1039,53.0,0.0,40.0,0.0,0.0
1040,58.0,48.0,40.0,0.0,0.0
1041,60.0,48.0,40.0,0.0,0.0
1042,61.0,48.0,40.0,0.0,0.0
1043,60.0,48.0,40.0,0.0,0.0
1044,58.0,48.0,40.0,0.0,0.0
1045,61.0,48.0,40.0,0.0,0.0
1046,60.0,48.0,40.0,0.0,0.0
1047,53.0,48.0,40.0,0.0,0.0
1048,60.0,48.0,40.0,0.0,0.0
1049,61.0,48.0,40.0,0.0,0.0
1050,63.0,24.0,40.0,0.0,0.0
1051,61.0,24.0,20.0,0.0,0.0
1052,60.0,48.0,20.0,0.0,0.0
1053,61.0,48.0,40.0,0.0,0.0
1054,63.0,48.0,40.0,0.0,0.0
1055,65.0,48.0,40.0,0.0,0.0
1056,63.0,48.0,40.0,0.0,0.0
1057,61.0,48.0,40.0,0.0,0.0
1058,63.0,192.0,40.0,0.0,0.0
1059,65.0,48.0,15.0,0.0,0.0
1060,63.0,24.0,20.0,0.0,0.0
1061,62.0,48.0,20.0,0.0,0.0
1062,63.0,48.0,40.0,0.0,0.0
1063,65.0,192.0,40.0,0.0,0.0
1064,66.0,48.0,180.0,0.0,0.0
1065,66.0,48.0,40.0,0.0,0.0
1066,65.0,48.0,40.0,0.0,0.0
1067,63.0,48.0,40.0,0.0,0.0
1068,61.0,48.0,40.0,0.0,0.0
1069,60.0,48.0,40.0,0.0,0.0
1070,58.0,48.0,40.0,0.0,0.0
1071,60.0,48.0,40.0,0.0,0.0
1072,63.0,48.0,40.0,0.0,0.0
1073,61.0,48.0,40.0,0.0,0.0
1074,60.0,48.0,40.0,0.0,0.0
1075,58.0,48.0,40.0,0.0,0.0
1076,56.0,48.0,40.0,0.0,0.0
1077,55.0,48.0,40.0,0.0,0.0
1078,53.0,48.0,40.0,0.0,0.0
1079,55.0,48.0,40.0,0.0,0.0
1080,58.0,48.0,40.0,0.0,0.0
1081,56.0,48.0,40.0,0.0,0.0
1082,55.0,48.0,40.0,0.0,0.0
1083,53.0,48.0,40.0,0.0,0.0
1084,68.0,0.0,40.0,0.0,0.0
1085,52.0,0.0,40.0,0.0,0.0
1086,70.0,48.0,40.0,0.0,0.0
1087,53.0,48.0,90.0,0.0,0.0
1088,68.0,48.0,40.0,0.0,0.0
1089,67.0,0.0,40.0,0.0,0.0
1090,65.0,48.0,40.0,0.0,0.0
1091,55.0,48.0,90.0,0.0,0.0
1092,64.0,0.0,40.0,0.0,0.0
1093,65.0,48.0,40.0,0.0,0.0
1094,56.0,0.0,150.0,0.0,0.0
1095,60.0,48.0,40.0,0.0,0.0
1096,65.0,48.0,40.0,0.0,0.0
1097,58.0,0.0,40.0,0.0,0.0
1098,67.0,48.0,40.0,0.0,0.0
1099,68.0,48.0,40.0,0.0,0.0
1100,60.0,48.0,90.0,0.0,0.0
1101,67.0,0.0,40.0,0.0,0.0
1102,65.0,48.0,40.0,0.0,0.0
1103,62.0,48.0,90.0,0.0,0.0
1104,68.0,0.0,40.0,0.0,0.0
1105,67.0,48.0,40.0,0.0,0.0
1106,63.0,0.0,90.0,0.0,0.0
1107,60.0,48.0,40.0,0.0,0.0
1108,67.0,48.0,40.0,0.0,0.0
1109,64.0,0.0,180.0,0.0,0.0
1110,68.0,48.0,40.0,0.0,0.0
1111,70.0,24.0,40.0,0.0,0.0
1112,68.0,24.0,20.0,0.0,0.0
1113,67.0,48.0,20.0,0.0,0.0
1114,65.0,48.0,90.0,0.0,0.0
1115,68.0,48.0,40.0,0.0,0.0
1116,70.0,0.0,40.0,0.0,0.0
1117,72.0,0.0,40.0,0.0,0.0
1118,65.0,48.0,40.0,0.0,0.0
1119,70.0,48.0,40.0,0.0,0.0
1120,61.0,0.0,40.0,0.0,0.0
1121,60.0,48.0,40.0,0.0,0.0
1122,68.0,0.0,40.0,0.0,0.0
1123,70.0,0.0,40.0,0.0,0.0
1124,58.0,48.0,40.0,0.0,0.0
1125,56.0,48.0,40.0,0.0,0.0
1126,55.0,48.0,40.0,0.0,0.0
1127,53.0,48.0,40.0,0.0,0.0
1128,51.0,0.0,40.0,0.0,0.0
1129,49.0,0.0,40.0,0.0,0.0
1130,72.0,48.0,15.0,0.0,0.0
1131,70.0,24.0,20.0,0.0,0.0
1132,63.0,0.0,40.0,0.0,0.0
1133,69.0,48.0,20.0,0.0,0.0
1134,61.0,48.0,40.0,0.0,0.0
1135,70.0,0.0,40.0,0.0,0.0
1136,60.0,48.0,40.0,0.0,0.0
1137,72.0,0.0,40.0,0.0,0.0
1138,58.0,48.0,40.0,0.0,0.0
1139,56.0,48.0,40.0,0.0,0.0
1140,55.0,48.0,40.0,0.0,0.0
1141,53.0,48.0,40.0,0.0,0.0
1142,73.0,0.0,15.0,0.0,0.0
1143,52.0,0.0,90.0,0.0,0.0
1144,72.0,48.0,40.0,0.0,0.0
1145,70.0,48.0,40.0,0.0,0.0
1146,53.0,0.0,180.0,0.0,0.0
1147,68.0,48.0,40.0,0.0,0.0
1148,67.0,48.0,40.0,0.0,0.0
1149,65.0,48.0,40.0,0.0,0.0
1150,67.0,48.0,40.0,0.0,0.0
1151,52.0,0.0,90.0,0.0,0.0
1152,70.0,48.0,40.0,0.0,0.0
1153,68.0,48.0,40.0,0.0,0.0
1154,53.0,48.0,90.0,0.0,0.0
1155,77.0,0.0,40.0,0.0,0.0
1156,55.0,0.0,90.0,0.0,0.0
1157,75.0,48.0,40.0,0.0,0.0
1158,73.0,48.0,40.0,0.0,0.0
1159,56.0,48.0,90.0,0.0,0.0
1160,72.0,48.0,40.0,0.0,0.0
1161,70.0,0.0,40.0,0.0,0.0
1162,72.0,48.0,40.0,0.0,0.0
1163,57.0,0.0,90.0,0.0,0.0
1164,75.0,48.0,40.0,0.0,0.0
1165,73.0,48.0,40.0,0.0,0.0
1166,58.0,48.0,90.0,0.0,0.0
1167,72.0,0.0,40.0,0.0,0.0
1168,65.0,0.0,180.0,0.0,0.0
1169,70.0,48.0,40.0,0.0,0.0
1170,49.0,0.0,40.0,0.0,0.0
1171,69.0,0.0,40.0,0.0,0.0
1172,51.0,48.0,40.0,0.0,0.0
1173,49.0,48.0,40.0,0.0,0.0
1174,70.0,0.0,90.0,0.0,0.0
1175,48.0,48.0,40.0,0.0,0.0
1176,46.0,48.0,40.0,0.0,0.0
1177,63.0,48.0,90.0,0.0,0.0
1178,72.0,0.0,90.0,0.0,0.0
1179,45.0,0.0,40.0,0.0,0.0
1180,65.0,48.0,300.0,0.0,0.0
1181,46.0,48.0,40.0,0.0,0.0
1182,63.0,0.0,90.0,0.0,0.0
1183,41.0,48.0,40.0,0.0,0.0
1184,46.0,0.0,40.0,0.0,0.0
1185,61.0,48.0,40.0,0.0,0.0
1186,48.0,0.0,40.0,0.0,0.0
1187,60.0,48.0,40.0,0.0,0.0
1188,49.0,48.0,40.0,0.0,0.0
1189,58.0,0.0,90.0,0.0,0.0
1190,48.0,0.0,40.0,0.0,0.0
1191,46.0,48.0,40.0,0.0,0.0
1192,63.0,48.0,90.0,0.0,0.0
1193,67.0,0.0,90.0,0.0,0.0
1194,49.0,0.0,40.0,0.0,0.0
1195,48.0,0.0,40.0,0.0,0.0
1196,68.0,0.0,90.0,0.0,0.0
1197,63.0,48.0,40.0,0.0,0.0
1198,41.0,0.0,40.0,0.0,0.0
1199,61.0,48.0,40.0,0.0,0.0
1200,69.0,48.0,180.0,0.0,0.0
1201,63.0,0.0,40.0,0.0,0.0
1202,48.0,48.0,40.0,0.0,0.0
1203,49.0,48.0,40.0,0.0,0.0
1204,65.0,0.0,40.0,0.0,0.0
1205,51.0,24.0,40.0,0.0,0.0
1206,66.0,0.0,40.0,0.0,0.0
1207,65.0,0.0,20.0,0.0,0.0
1208,49.0,24.0,20.0,0.0,0.0
1209,48.0,0.0,20.0,0.0,0.0
1210,63.0,0.0,20.0,0.0,0.0
1211,70.0,0.0,40.0,0.0,0.0
1212,49.0,0.0,40.0,0.0,0.0
1213,65.0,48.0,40.0,0.0,0.0
1214,66.0,48.0,40.0,0.0,0.0
1215,51.0,0.0,40.0,0.0,0.0
1216,72.0,0.0,40.0,0.0,0.0
1217,73.0,0.0,40.0,0.0,0.0
1218,53.0,48.0,40.0,0.0,0.0
1219,57.0,48.0,90.0,0.0,0.0
1220,78.0,0.0,40.0,0.0,0.0
1221,51.0,0.0,40.0,0.0,0.0
1222,58.0,48.0,150.0,0.0,0.0
1223,49.0,0.0,40.0,0.0,0.0
1224,77.0,48.0,40.0,0.0,0.0
1225,75.0,48.0,40.0,0.0,0.0
1226,51.0,0.0,40.0,0.0,0.0
1227,73.0,0.0,40.0,0.0,0.0
1228,53.0,48.0,180.0,0.0,0.0
1229,72.0,0.0,40.0,0.0,0.0
1230,57.0,48.0,40.0,0.0,0.0
1231,70.0,48.0,40.0,0.0,0.0
1232,61.0,0.0,40.0,0.0,0.0
1233,68.0,0.0,40.0,0.0,0.0
1234,60.0,0.0,40.0,0.0,0.0
1235,58.0,0.0,180.0,0.0,0.0
1236,53.0,24.0,40.0,0.0,0.0
1237,66.0,0.0,40.0,0.0,0.0
1238,51.0,24.0,20.0,0.0,0.0
1239,80.0,0.0,40.0,0.0,0.0
1240,50.0,48.0,20.0,0.0,0.0
1241,51.0,0.0,40.0,0.0,0.0
1242,78.0,48.0,40.0,0.0,0.0
1243,77.0,0.0,40.0,0.0,0.0
1244,53.0,48.0,40.0,0.0,0.0
1245,75.0,0.0,40.0,0.0,0.0
1246,58.0,48.0,40.0,0.0,0.0
1247,73.0,0.0,40.0,0.0,0.0
1248,65.0,48.0,40.0,0.0,0.0
1249,72.0,48.0,40.0,0.0,0.0
1250,63.0,0.0,40.0,0.0,0.0
1251,61.0,0.0,40.0,0.0,0.0
1252,70.0,48.0,40.0,0.0,0.0
1253,54.0,0.0,15.0,0.0,0.0
1254,60.0,0.0,90.0,0.0,0.0
1255,69.0,0.0,90.0,0.0,0.0
1256,53.0,48.0,40.0,0.0,0.0
1257,70.0,0.0,180.0,0.0,0.0
1258,65.0,48.0,90.0,0.0,0.0
1259,51.0,48.0,40.0,0.0,0.0
1260,49.0,0.0,40.0,0.0,0.0
1261,63.0,48.0,90.0,0.0,0.0
1262,48.0,48.0,40.0,0.0,0.0
1263,46.0,0.0,40.0,0.0,0.0
1264,48.0,48.0,40.0,0.0,0.0
1265,69.0,48.0,90.0,0.0,0.0
1266,66.0,0.0,90.0,0.0,0.0
1267,51.0,0.0,40.0,0.0,0.0
1268,65.0,0.0,300.0,0.0,0.0
1269,49.0,48.0,40.0,0.0,0.0
1270,70.0,48.0,90.0,0.0,0.0
1271,48.0,0.0,40.0,0.0,0.0
1272,46.0,48.0,40.0,0.0,0.0
1273,72.0,0.0,90.0,0.0,0.0
1274,44.0,48.0,40.0,0.0,0.0
1275,73.0,96.0,180.0,0.0,0.0
1276,43.0,48.0,40.0,0.0,0.0
1277,41.0,48.0,40.0,0.0,0.0
1278,64.0,0.0,90.0,0.0,0.0
1279,43.0,48.0,40.0,0.0,0.0
1280,46.0,0.0,40.0,0.0,0.0
1281,65.0,0.0,180.0,0.0,0.0
1282,72.0,48.0,90.0,0.0,0.0
1283,44.0,0.0,180.0,0.0,0.0
1284,56.0,48.0,40.0,0.0,0.0
1285,77.0,48.0,90.0,0.0,0.0
1286,58.0,0.0,40.0,0.0,0.0
1287,56.0,48.0,40.0,0.0,0.0
1288,72.0,48.0,90.0,0.0,0.0
1289,55.0,0.0,40.0,0.0,0.0
1290,48.0,48.0,90.0,0.0,0.0
1291,53.0,48.0,40.0,0.0,0.0
1292,70.0,0.0,90.0,0.0,0.0
1293,60.0,0.0,90.0,0.0,0.0
1294,52.0,0.0,40.0,0.0,0.0
1295,53.0,48.0,40.0,0.0,0.0
1296,41.0,0.0,180.0,0.0,0.0
1297,60.0,0.0,180.0,0.0,0.0
1298,70.0,48.0,90.0,0.0,0.0
1299,48.0,0.0,40.0,0.0,0.0
1300,53.0,0.0,40.0,0.0,0.0
1301,68.0,48.0,40.0,0.0,0.0
1302,70.0,48.0,40.0,0.0,0.0
1303,55.0,0.0,40.0,0.0,0.0
1304,72.0,0.0,90.0,0.0,0.0
1305,56.0,48.0,40.0,0.0,0.0
1306,55.0,48.0,40.0,0.0,0.0
1307,65.0,0.0,90.0,0.0,0.0
1308,53.0,48.0,40.0,0.0,0.0
1309,56.0,48.0,40.0,0.0,0.0
1310,53.0,0.0,15.0,0.0,0.0
1311,73.0,0.0,15.0,0.0,0.0
1312,55.0,48.0,40.0,0.0,0.0
1313,70.0,0.0,150.0,0.0,0.0
1314,48.0,0.0,40.0,0.0,0.0
1315,55.0,48.0,40.0,0.0,0.0
1316,52.0,0.0,180.0,0.0,0.0
1317,56.0,0.0,40.0,0.0,0.0
1318,68.0,48.0,40.0,0.0,0.0
1319,67.0,0.0,90.0,0.0,0.0
1320,58.0,24.0,40.0,0.0,0.0
1321,56.0,24.0,20.0,0.0,0.0
1322,55.0,0.0,20.0,0.0,0.0
1323,72.0,48.0,15.0,0.0,0.0
1324,65.0,0.0,40.0,0.0,0.0
1325,56.0,48.0,40.0,0.0,0.0
1326,67.0,0.0,40.0,0.0,0.0
1327,64.0,0.0,40.0,0.0,0.0
1328,58.0,0.0,40.0,0.0,0.0
1329,60.0,48.0,40.0,0.0,0.0
1330,65.0,48.0,90.0,0.0,0.0
1331,53.0,48.0,15.0,0.0,0.0
1332,68.0,0.0,90.0,0.0,0.0
1333,49.0,0.0,40.0,0.0,0.0
1334,58.0,0.0,40.0,0.0,0.0
1335,56.0,0.0,40.0,0.0,0.0
1336,48.0,48.0,40.0,0.0,0.0
1337,46.0,48.0,40.0,0.0,0.0
1338,58.0,0.0,40.0,0.0,0.0
1339,44.0,48.0,40.0,0.0,0.0
1340,43.0,48.0,40.0,0.0,0.0
1341,68.0,0.0,90.0,0.0,0.0
1342,41.0,48.0,40.0,0.0,0.0
1343,39.0,0.0,40.0,0.0,0.0
1344,60.0,48.0,15.0,0.0,0.0
1345,37.0,0.0,40.0,0.0,0.0
1346,65.0,0.0,300.0,0.0,0.0
1347,51.0,48.0,40.0,0.0,0.0
1348,58.0,24.0,20.0,0.0,0.0
1349,57.0,0.0,20.0,0.0,0.0
1350,58.0,48.0,40.0,0.0,0.0
1351,49.0,0.0,40.0,0.0,0.0
1352,60.0,0.0,40.0,0.0,0.0
1353,48.0,48.0,40.0,0.0,0.0
1354,46.0,48.0,40.0,0.0,0.0
1355,61.0,48.0,180.0,0.0,0.0
1356,44.0,48.0,40.0,0.0,0.0
1357,64.0,48.0,40.0,0.0,0.0
1358,43.0,0.0,40.0,0.0,0.0
1359,41.0,0.0,40.0,0.0,0.0
1360,65.0,0.0,40.0,0.0,0.0
1361,40.0,0.0,90.0,0.0,0.0
1362,67.0,48.0,40.0,0.0,0.0
1363,61.0,0.0,40.0,0.0,0.0
1364,72.0,0.0,40.0,0.0,0.0
1365,60.0,48.0,40.0,0.0,0.0
1366,58.0,48.0,40.0,0.0,0.0
1367,41.0,0.0,90.0,0.0,0.0
1368,65.0,0.0,180.0,0.0,0.0
1369,56.0,48.0,40.0,0.0,0.0
1370,48.0,0.0,90.0,0.0,0.0
1371,55.0,48.0,40.0,0.0,0.0
1372,53.0,48.0,40.0,0.0,0.0
1373,55.0,48.0,40.0,0.0,0.0
1374,64.0,0.0,90.0,0.0,0.0
1375,36.0,0.0,90.0,0.0,0.0
1376,58.0,48.0,40.0,0.0,0.0
1377,41.0,48.0,40.0,0.0,0.0
1378,65.0,48.0,90.0,0.0,0.0
1379,56.0,48.0,180.0,0.0,0.0
1380,53.0,0.0,40.0,0.0,0.0
1381,51.0,48.0,40.0,0.0,0.0
1382,49.0,0.0,40.0,0.0,0.0
1383,48.0,48.0,40.0,0.0,0.0
1384,57.0,0.0,180.0,0.0,0.0
1385,46.0,48.0,40.0,0.0,0.0
1386,48.0,48.0,40.0,0.0,0.0
1387,51.0,96.0,40.0,0.0,0.0
1388,58.0,48.0,300.0,0.0,0.0
1389,49.0,0.0,90.0,0.0,0.0
1390,77.0,48.0,40.0,0.0,0.0
1391,75.0,48.0,40.0,0.0,0.0
1392,51.0,0.0,90.0,0.0,0.0
1393,73.0,48.0,40.0,0.0,0.0
1394,53.0,48.0,180.0,0.0,0.0
1395,72.0,48.0,40.0,0.0,0.0
1396,70.0,0.0,40.0,0.0,0.0
1397,56.0,0.0,90.0,0.0,0.0
1398,72.0,48.0,40.0,0.0,0.0
1399,75.0,0.0,40.0,0.0,0.0
1400,46.0,48.0,180.0,0.0,0.0
1401,56.0,48.0,40.0,0.0,0.0
1402,74.0,0.0,90.0,0.0,0.0
1403,70.0,0.0,40.0,0.0,0.0
1404,54.0,48.0,40.0,0.0,0.0
1405,68.0,48.0,40.0,0.0,0.0
1406,75.0,0.0,180.0,0.0,0.0
1407,53.0,0.0,40.0,0.0,0.0
1408,51.0,0.0,40.0,0.0,0.0
1409,66.0,0.0,40.0,0.0,0.0
1410,65.0,48.0,40.0,0.0,0.0
1411,58.0,0.0,180.0,0.0,0.0
1412,63.0,48.0,40.0,0.0,0.0
1413,46.0,0.0,90.0,0.0,0.0
1414,65.0,48.0,40.0,0.0,0.0
1415,68.0,0.0,40.0,0.0,0.0
1416,67.0,48.0,90.0,0.0,0.0
1417,73.0,48.0,15.0,0.0,0.0
1418,51.0,0.0,180.0,0.0,0.0
1419,58.0,48.0,40.0,0.0,0.0
1420,60.0,0.0,40.0,0.0,0.0
1421,75.0,0.0,40.0,0.0,0.0
1422,58.0,0.0,40.0,0.0,0.0
1423,73.0,48.0,40.0,0.0,0.0
1424,72.0,0.0,40.0,0.0,0.0
1425,56.0,48.0,40.0,0.0,0.0
1426,63.0,0.0,90.0,0.0,0.0
1427,70.0,48.0,40.0,0.0,0.0
1428,68.0,0.0,40.0,0.0,0.0
1429,51.0,0.0,90.0,0.0,0.0
1430,66.0,0.0,90.0,0.0,0.0
1431,70.0,48.0,40.0,0.0,0.0
1432,73.0,48.0,40.0,0.0,0.0
1433,66.0,48.0,40.0,0.0,0.0
1434,44.0,48.0,180.0,0.0,0.0
1435,72.0,48.0,90.0,0.0,0.0
1436,56.0,0.0,40.0,0.0,0.0
1437,63.0,0.0,40.0,0.0,0.0
1438,65.0,0.0,90.0,0.0,0.0
1439,73.0,0.0,180.0,0.0,0.0
1440,54.0,48.0,40.0,0.0,0.0
1441,53.0,0.0,40.0,0.0,0.0
1442,66.0,0.0,90.0,0.0,0.0
1443,51.0,48.0,40.0,0.0,0.0
1444,49.0,48.0,40.0,0.0,0.0
1445,44.0,0.0,90.0,0.0,0.0
1446,72.0,0.0,40.0,0.0,0.0
1447,51.0,48.0,40.0,0.0,0.0
1448,63.0,48.0,90.0,0.0,0.0
1449,70.0,0.0,40.0,0.0,0.0
1450,54.0,0.0,40.0,0.0,0.0
1451,45.0,48.0,90.0,0.0,0.0
1452,72.0,0.0,90.0,0.0,0.0
1453,63.0,48.0,40.0,0.0,0.0
1454,65.0,0.0,40.0,0.0,0.0
1455,46.0,0.0,180.0,0.0,0.0
1456,63.0,0.0,40.0,0.0,0.0
1457,53.0,48.0,15.0,0.0,0.0
1458,61.0,0.0,40.0,0.0,0.0
1459,51.0,48.0,40.0,0.0,0.0
1460,60.0,0.0,40.0,0.0,0.0
1461,58.0,0.0,40.0,0.0,0.0
1462,49.0,48.0,40.0,0.0,0.0
1463,48.0,0.0,90.0,0.0,0.0
1464,60.0,48.0,40.0,0.0,0.0
1465,45.0,0.0,90.0,0.0,0.0
1466,63.0,48.0,40.0,0.0,0.0
1467,46.0,0.0,90.0,0.0,0.0
1468,61.0,48.0,40.0,0.0,0.0
1469,65.0,48.0,40.0,0.0,0.0
1470,58.0,0.0,90.0,0.0,0.0
1471,53.0,48.0,90.0,0.0,0.0
1472,73.0,48.0,40.0,0.0,0.0
1473,75.0,0.0,40.0,0.0,0.0
1474,73.0,48.0,40.0,0.0,0.0
1475,54.0,0.0,180.0,0.0,0.0
1476,72.0,48.0,40.0,0.0,0.0
1477,48.0,0.0,90.0,0.0,0.0
1478,70.0,48.0,40.0,0.0,0.0
1479,69.0,48.0,40.0,0.0,0.0
1480,70.0,48.0,40.0,0.0,0.0
1481,53.0,48.0,90.0,0.0,0.0
1482,49.0,0.0,180.0,0.0,0.0
1483,65.0,0.0,40.0,0.0,0.0
1484,70.0,0.0,40.0,0.0,0.0
1485,55.0,48.0,40.0,0.0,0.0
1486,72.0,0.0,40.0,0.0,0.0
1487,57.0,48.0,40.0,0.0,0.0
1488,73.0,48.0,40.0,0.0,0.0
1489,58.0,0.0,180.0,0.0,0.0
1490,46.0,0.0,180.0,0.0,0.0
1491,72.0,48.0,40.0,0.0,0.0
1492,70.0,48.0,40.0,0.0,0.0
1493,73.0,48.0,40.0,0.0,0.0
1494,53.0,0.0,300.0,0.0,0.0
1495,72.0,48.0,40.0,0.0,0.0
1496,58.0,0.0,90.0,0.0,0.0
1497,65.0,48.0,40.0,0.0,0.0
1498,57.0,0.0,40.0,0.0,0.0
1499,72.0,48.0,40.0,0.0,0.0
1500,58.0,0.0,40.0,0.0,0.0
1501,73.0,48.0,40.0,0.0,0.0
1502,75.0,24.0,40.0,0.0,0.0
1503,73.0,24.0,20.0,0.0,0.0
1504,72.0,48.0,20.0,0.0,0.0
1505,51.0,48.0,90.0,0.0,0.0
1506,73.0,48.0,40.0,0.0,0.0
1507,75.0,0.0,40.0,0.0,0.0
1508,77.0,0.0,40.0,0.0,0.0
1509,60.0,0.0,15.0,0.0,0.0
1510,49.0,0.0,390.0,0.0,0.0
1511,75.0,48.0,40.0,0.0,0.0
1512,53.0,0.0,40.0,0.0,0.0
1513,73.0,48.0,40.0,0.0,0.0
1514,58.0,48.0,150.0,0.0,0.0
1515,75.0,48.0,40.0,0.0,0.0
1516,56.0,48.0,40.0,0.0,0.0
1517,54.0,48.0,40.0,0.0,0.0
1518,53.0,48.0,40.0,0.0,0.0
1519,77.0,0.0,15.0,0.0,0.0
1520,54.0,24.0,40.0,0.0,0.0
1521,51.0,0.0,390.0,0.0,0.0
1522,58.0,48.0,40.0,0.0,0.0
1523,75.0,24.0,20.0,0.0,0.0
1524,74.0,0.0,20.0,0.0,0.0
1525,59.0,48.0,150.0,0.0,0.0
1526,75.0,48.0,40.0,0.0,0.0
1527,77.0,48.0,40.0,0.0,0.0
1528,78.0,0.0,180.0,0.0,0.0
1529,58.0,48.0,40.0,0.0,0.0
1530,57.0,48.0,40.0,0.0,0.0
1531,58.0,48.0,40.0,0.0,0.0
1532,78.0,48.0,40.0,0.0,0.0
1533,53.0,48.0,390.0,0.0,0.0
1534,57.0,0.0,90.0,0.0,0.0
1535,77.0,48.0,40.0,0.0,0.0
1536,75.0,48.0,40.0,0.0,0.0
1537,58.0,48.0,180.0,0.0,0.0
1538,73.0,48.0,40.0,0.0,0.0
1539,72.0,48.0,40.0,0.0,0.0
1540,70.0,0.0,40.0,0.0,0.0
1541,72.0,48.0,40.0,0.0,0.0
1542,56.0,0.0,90.0,0.0,0.0
1543,75.0,0.0,40.0,0.0,0.0
1544,56.0,48.0,90.0,0.0,0.0
1545,73.0,48.0,40.0,0.0,0.0
1546,46.0,0.0,180.0,0.0,0.0
1547,72.0,0.0,40.0,0.0,0.0
1548,70.0,48.0,40.0,0.0,0.0
1549,55.0,0.0,40.0,0.0,0.0
1550,53.0,48.0,40.0,0.0,0.0
1551,68.0,0.0,40.0,0.0,0.0
1552,48.0,0.0,180.0,0.0,0.0
1553,67.0,0.0,40.0,0.0,0.0
1554,52.0,48.0,40.0,0.0,0.0
1555,50.0,48.0,40.0,0.0,0.0
1556,65.0,0.0,40.0,0.0,0.0
1557,52.0,0.0,40.0,0.0,0.0
1558,67.0,48.0,40.0,0.0,0.0
1559,55.0,48.0,40.0,0.0,0.0
1560,70.0,0.0,40.0,0.0,0.0
1561,68.0,0.0,90.0,0.0,0.0
1562,41.0,0.0,180.0,0.0,0.0
1563,53.0,48.0,40.0,0.0,0.0
1564,60.0,48.0,40.0,0.0,0.0
1565,67.0,0.0,40.0,0.0,0.0
1566,58.0,48.0,40.0,0.0,0.0
1567,65.0,48.0,40.0,0.0,0.0
1568,56.0,0.0,40.0,0.0,0.0
1569,55.0,0.0,40.0,0.0,0.0
1570,64.0,48.0,40.0,0.0,0.0
1571,53.0,48.0,40.0,0.0,0.0
1572,62.0,0.0,40.0,0.0,0.0
1573,55.0,48.0,40.0,0.0,0.0
1574,64.0,0.0,40.0,0.0,0.0
1575,58.0,0.0,40.0,0.0,0.0
1576,67.0,96.0,40.0,0.0,0.0
1577,56.0,0.0,90.0,0.0,0.0
1578,48.0,48.0,40.0,0.0,0.0
1579,60.0,0.0,15.0,0.0,0.0
1580,65.0,0.0,180.0,0.0,0.0
1581,46.0,48.0,40.0,0.0,0.0
1582,44.0,0.0,40.0,0.0,0.0
1583,58.0,0.0,90.0,0.0,0.0
1584,43.0,48.0,40.0,0.0,0.0
1585,41.0,48.0,40.0,0.0,0.0
1586,64.0,0.0,90.0,0.0,0.0
1587,61.0,48.0,90.0,0.0,0.0
1588,43.0,48.0,40.0,0.0,0.0
1589,46.0,0.0,40.0,0.0,0.0
1590,44.0,48.0,40.0,0.0,0.0
1591,65.0,0.0,90.0,0.0,0.0
1592,60.0,0.0,90.0,0.0,0.0
1593,43.0,48.0,40.0,0.0,0.0
1594,41.0,0.0,40.0,0.0,0.0
1595,68.0,48.0,40.0,0.0,0.0
1596,72.0,48.0,180.0,0.0,0.0
1597,70.0,48.0,40.0,0.0,0.0
1598,40.0,0.0,40.0,0.0,0.0
1599,41.0,0.0,90.0,0.0,0.0
1600,68.0,48.0,40.0,0.0,0.0
1601,67.0,0.0,40.0,0.0,0.0
1602,65.0,48.0,40.0,0.0,0.0
1603,43.0,0.0,90.0,0.0,0.0
1604,70.0,0.0,90.0,0.0,0.0
1605,64.0,48.0,40.0,0.0,0.0
1606,70.0,48.0,90.0,0.0,0.0
1607,44.0,0.0,90.0,0.0,0.0
1608,65.0,48.0,40.0,0.0,0.0
1609,60.0,0.0,40.0,0.0,0.0
1610,49.0,0.0,180.0,0.0,0.0
1611,65.0,0.0,40.0,0.0,0.0
1612,68.0,48.0,40.0,0.0,0.0
1613,67.0,48.0,40.0,0.0,0.0
1614,70.0,0.0,40.0,0.0,0.0
1615,72.0,0.0,90.0,0.0,0.0
1616,53.0,0.0,180.0,0.0,0.0
1617,68.0,48.0,40.0,0.0,0.0
1618,67.0,48.0,40.0,0.0,0.0
1619,50.0,0.0,90.0,0.0,0.0
1620,65.0,48.0,40.0,0.0,0.0
1621,71.0,48.0,90.0,0.0,0.0
1622,68.0,0.0,40.0,0.0,0.0
1623,51.0,0.0,90.0,0.0,0.0
1624,72.0,0.0,90.0,0.0,0.0
1625,67.0,48.0,40.0,0.0,0.0
1626,60.0,48.0,40.0,0.0,0.0
1627,67.0,48.0,40.0,0.0,0.0
1628,52.0,0.0,180.0,0.0,0.0
1629,68.0,48.0,40.0,0.0,0.0
1630,70.0,24.0,40.0,0.0,0.0
1631,68.0,24.0,20.0,0.0,0.0
1632,67.0,48.0,20.0,0.0,0.0
1633,60.0,0.0,40.0,0.0,0.0
1634,53.0,0.0,90.0,0.0,0.0
1635,68.0,48.0,40.0,0.0,0.0
1636,70.0,48.0,40.0,0.0,0.0
1637,58.0,0.0,40.0,0.0,0.0
1638,72.0,48.0,40.0,0.0,0.0
1639,53.0,0.0,40.0,0.0,0.0
1640,48.0,0.0,40.0,0.0,0.0
1641,70.0,48.0,40.0,0.0,0.0
1642,53.0,0.0,40.0,0.0,0.0
1643,68.0,48.0,40.0,0.0,0.0
1644,55.0,0.0,40.0,0.0,0.0
1645,70.0,48.0,40.0,0.0,0.0
1646,56.0,48.0,40.0,0.0,0.0
1647,72.0,0.0,180.0,0.0,0.0
1648,55.0,48.0,40.0,0.0,0.0
1649,53.0,48.0,40.0,0.0,0.0
1650,51.0,0.0,40.0,0.0,0.0
1651,50.0,0.0,40.0,0.0,0.0
1652,72.0,24.0,40.0,0.0,0.0
1653,53.0,0.0,40.0,0.0,0.0
1654,70.0,24.0,20.0,0.0,0.0
1655,69.0,48.0,20.0,0.0,0.0
1656,55.0,48.0,40.0,0.0,0.0
1657,70.0,0.0,40.0,0.0,0.0
1658,72.0,0.0,40.0,0.0,0.0
1659,57.0,48.0,40.0,0.0,0.0
1660,58.0,48.0,40.0,0.0,0.0
1661,56.0,48.0,40.0,0.0,0.0
1662,55.0,48.0,40.0,0.0,0.0
1663,53.0,0.0,40.0,0.0,0.0
1664,52.0,0.0,90.0,0.0,0.0
1665,73.0,0.0,15.0,0.0,0.0
1666,60.0,48.0,390.0,0.0,0.0
1667,72.0,48.0,40.0,0.0,0.0
1668,53.0,48.0,180.0,0.0,0.0
1669,70.0,48.0,40.0,0.0,0.0
1670,68.0,48.0,40.0,0.0,0.0
1671,67.0,48.0,40.0,0.0,0.0
1672,65.0,0.0,40.0,0.0,0.0
1673,67.0,48.0,40.0,0.0,0.0
1674,52.0,0.0,90.0,0.0,0.0
1675,70.0,0.0,40.0,0.0,0.0
1676,53.0,48.0,40.0,0.0,0.0
1677,65.0,48.0,40.0,0.0,0.0
1678,55.0,48.0,90.0,0.0,0.0
1679,63.0,48.0,40.0,0.0,0.0
1680,61.0,0.0,40.0,0.0,0.0
1681,60.0,48.0,40.0,0.0,0.0
1682,56.0,48.0,90.0,0.0,0.0
1683,58.0,0.0,40.0,0.0,0.0
1684,60.0,48.0,40.0,0.0,0.0
1685,53.0,0.0,90.0,0.0,0.0
1686,63.0,48.0,40.0,0.0,0.0
1687,68.0,0.0,15.0,0.0,0.0
1688,46.0,0.0,90.0,0.0,0.0
1689,61.0,48.0,390.0,0.0,0.0
1690,70.0,48.0,40.0,0.0,0.0
1691,48.0,48.0,90.0,0.0,0.0
1692,68.0,48.0,40.0,0.0,0.0
1693,66.0,0.0,40.0,0.0,0.0
1694,65.0,48.0,40.0,0.0,0.0
1695,49.0,48.0,90.0,0.0,0.0
1696,63.0,0.0,40.0,0.0,0.0
1697,65.0,48.0,40.0,0.0,0.0
1698,46.0,0.0,90.0,0.0,0.0
1699,68.0,0.0,40.0,0.0,0.0
1700,51.0,0.0,90.0,0.0,0.0
1701,61.0,48.0,40.0,0.0,0.0
1702,63.0,48.0,40.0,0.0,0.0
1703,53.0,48.0,90.0,0.0,0.0
1704,61.0,48.0,40.0,0.0,0.0
1705,60.0,0.0,40.0,0.0,0.0
1706,58.0,48.0,40.0,0.0,0.0
1707,54.0,48.0,90.0,0.0,0.0
1708,56.0,0.0,40.0,0.0,0.0
1709,58.0,48.0,40.0,0.0,0.0
1710,51.0,0.0,90.0,0.0,0.0
1711,61.0,48.0,40.0,0.0,0.0
1712,66.0,0.0,15.0,0.0,0.0
1713,44.0,0.0,90.0,0.0,0.0
1714,60.0,48.0,90.0,0.0,0.0
1715,68.0,0.0,40.0,0.0,0.0
1716,66.0,48.0,40.0,0.0,0.0
1717,46.0,0.0,90.0,0.0,0.0
1718,65.0,48.0,40.0,0.0,0.0
1719,48.0,0.0,90.0,0.0,0.0
1720,63.0,48.0,40.0,0.0,0.0
1721,61.0,48.0,40.0,0.0,0.0
1722,44.0,0.0,90.0,0.0,0.0
1723,63.0,48.0,40.0,0.0,0.0
1724,66.0,48.0,40.0,0.0,0.0
1725,49.0,48.0,90.0,0.0,0.0
1726,65.0,48.0,40.0,0.0,0.0
1727,66.0,0.0,40.0,0.0,0.0
1728,65.0,48.0,40.0,0.0,0.0
1729,51.0,48.0,90.0,0.0,0.0
1730,63.0,0.0,40.0,0.0,0.0
1731,61.0,48.0,40.0,0.0,0.0
1732,53.0,48.0,90.0,0.0,0.0
1733,60.0,0.0,40.0,0.0,0.0
1734,61.0,48.0,40.0,0.0,0.0
1735,49.0,48.0,90.0,0.0,0.0
1736,65.0,0.0,40.0,0.0,0.0
1737,42.0,48.0,180.0,0.0,0.0
1738,58.0,48.0,40.0,0.0,0.0
1739,60.0,48.0,40.0,0.0,0.0
1740,61.0,0.0,150.0,0.0,0.0
1741,53.0,48.0,40.0,0.0,0.0
1742,54.0,0.0,40.0,0.0,0.0
1743,44.0,0.0,180.0,0.0,0.0
1744,53.0,48.0,40.0,0.0,0.0
1745,51.0,48.0,40.0,0.0,0.0
1746,60.0,0.0,40.0,0.0,0.0
1747,49.0,48.0,40.0,0.0,0.0
1748,66.0,0.0,90.0,0.0,0.0
1749,48.0,48.0,40.0,0.0,0.0
1750,37.0,0.0,180.0,0.0,0.0
1751,49.0,48.0,40.0,0.0,0.0
1752,66.0,48.0,90.0,0.0,0.0
1753,44.0,0.0,40.0,0.0,0.0
1754,49.0,0.0,40.0,0.0,0.0
1755,65.0,48.0,40.0,0.0,0.0
1756,63.0,0.0,40.0,0.0,0.0
1757,51.0,48.0,40.0,0.0,0.0
1758,61.0,0.0,40.0,0.0,0.0
1759,53.0,48.0,40.0,0.0,0.0
1760,65.0,48.0,40.0,0.0,0.0
1761,51.0,0.0,40.0,0.0,0.0
1762,49.0,48.0,40.0,0.0,0.0
1763,53.0,0.0,40.0,0.0,0.0
1764,48.0,48.0,90.0,0.0,0.0
1765,51.0,0.0,40.0,0.0,0.0
1766,58.0,48.0,15.0,0.0,0.0
1767,63.0,0.0,40.0,0.0,0.0
1768,44.0,0.0,40.0,0.0,0.0
1769,56.0,0.0,90.0,0.0,0.0
1770,47.0,0.0,90.0,0.0,0.0
1771,51.0,48.0,40.0,0.0,0.0
1772,53.0,48.0,40.0,0.0,0.0
1773,46.0,48.0,180.0,0.0,0.0
1774,58.0,0.0,180.0,0.0,0.0
1775,61.0,0.0,180.0,0.0,0.0
1776,54.0,24.0,40.0,0.0,0.0
1777,53.0,24.0,20.0,0.0,0.0
1778,51.0,48.0,20.0,0.0,0.0
1779,53.0,48.0,40.0,0.0,0.0
1780,54.0,0.0,40.0,0.0,0.0
1781,68.0,0.0,300.0,0.0,0.0
1782,60.0,48.0,90.0,0.0,0.0
1783,56.0,48.0,40.0,0.0,0.0
1784,54.0,0.0,40.0,0.0,0.0
1785,53.0,48.0,40.0,0.0,0.0
1786,61.0,0.0,40.0,0.0,0.0
1787,63.0,0.0,40.0,0.0,0.0
1788,54.0,48.0,40.0,0.0,0.0
1789,65.0,48.0,90.0,0.0,0.0
1790,53.0,48.0,40.0,0.0,0.0
1791,51.0,0.0,40.0,0.0,0.0
1792,66.0,0.0,90.0,0.0,0.0
1793,49.0,48.0,40.0,0.0,0.0
1794,63.0,0.0,90.0,0.0,0.0
1795,48.0,48.0,40.0,0.0,0.0
1796,56.0,0.0,15.0,0.0,0.0
1797,63.0,48.0,90.0,0.0,0.0
1798,65.0,0.0,390.0,0.0,0.0
1799,54.0,24.0,20.0,0.0,0.0
1800,53.0,0.0,20.0,0.0,0.0
1801,54.0,0.0,40.0,0.0,0.0
1802,61.0,48.0,40.0,0.0,0.0
1803,60.0,0.0,40.0,0.0,0.0
1804,56.0,0.0,40.0,0.0,0.0
1805,58.0,0.0,180.0,0.0,0.0
1806,61.0,48.0,180.0,0.0,0.0
1807,49.0,48.0,15.0,0.0,0.0
1808,46.0,48.0,40.0,0.0,0.0
1809,48.0,48.0,40.0,0.0,0.0
1810,49.0,0.0,40.0,0.0,0.0
1811,58.0,48.0,40.0,0.0,0.0
1812,51.0,48.0,90.0,0.0,0.0
1813,61.0,0.0,40.0,0.0,0.0
1814,66.0,0.0,390.0,0.0,0.0
1815,56.0,0.0,40.0,0.0,0.0
1816,59.0,0.0,40.0,0.0,0.0
1817,46.0,0.0,90.0,0.0,0.0
1818,61.0,48.0,150.0,0.0,0.0
1819,54.0,48.0,40.0,0.0,0.0
1820,53.0,48.0,40.0,0.0,0.0
1821,51.0,0.0,40.0,0.0,0.0
1822,47.0,0.0,180.0,0.0,0.0
1823,49.0,48.0,40.0,0.0,0.0
1824,58.0,0.0,40.0,0.0,0.0
1825,59.0,0.0,40.0,0.0,0.0
1826,51.0,48.0,40.0,0.0,0.0
1827,63.0,48.0,40.0,0.0,0.0
1828,54.0,0.0,40.0,0.0,0.0
1829,68.0,0.0,390.0,0.0,0.0
1830,47.0,48.0,40.0,0.0,0.0
1831,56.0,48.0,150.0,0.0,0.0
1832,49.0,48.0,40.0,0.0,0.0
1833,47.0,0.0,40.0,0.0,0.0
1834,58.0,0.0,40.0,0.0,0.0
1835,46.0,48.0,40.0,0.0,0.0
1836,44.0,48.0,40.0,0.0,0.0
1837,42.0,48.0,40.0,0.0,0.0
1838,44.0,48.0,40.0,0.0,0.0
1839,47.0,0.0,40.0,0.0,0.0
1840,46.0,0.0,180.0,0.0,0.0
1841,59.0,0.0,15.0,0.0,0.0
1842,53.0,48.0,15.0,0.0,0.0
1843,49.0,48.0,40.0,0.0,0.0
1844,51.0,48.0,40.0,0.0,0.0
1845,58.0,0.0,40.0,0.0,0.0
1846,56.0,0.0,40.0,0.0,0.0
1847,53.0,0.0,40.0,0.0,0.0
1848,61.0,48.0,15.0,0.0,0.0
1849,54.0,48.0,180.0,0.0,0.0
1850,46.0,48.0,15.0,0.0,0.0
1851,62.0,0.0,40.0,0.0,0.0
1852,48.0,48.0,40.0,0.0,0.0
1853,63.0,0.0,40.0,0.0,0.0
1854,65.0,0.0,40.0,0.0,0.0
1855,50.0,0.0,40.0,0.0,0.0
1856,58.0,0.0,15.0,0.0,0.0
1857,54.0,48.0,40.0,0.0,0.0
1858,58.0,48.0,40.0,0.0,0.0
1859,56.0,0.0,40.0,0.0,0.0
1860,54.0,0.0,40.0,0.0,0.0
1861,60.0,48.0,40.0,0.0,0.0
1862,53.0,0.0,40.0,0.0,0.0
1863,62.0,0.0,40.0,0.0,0.0
1864,66.0,0.0,15.0,0.0,0.0
1865,63.0,0.0,180.0,0.0,0.0
1866,51.0,48.0,15.0,0.0,0.0
1867,49.0,0.0,40.0,0.0,0.0
1868,67.0,48.0,40.0,0.0,0.0
1869,68.0,0.0,40.0,0.0,0.0
1870,47.0,48.0,40.0,0.0,0.0
1871,70.0,0.0,40.0,0.0,0.0
1872,46.0,0.0,40.0,0.0,0.0
1873,44.0,48.0,180.0,0.0,0.0
1874,63.0,48.0,40.0,0.0,0.0
1875,51.0,0.0,90.0,0.0,0.0
1876,70.0,48.0,40.0,0.0,0.0
1877,68.0,48.0,40.0,0.0,0.0
1878,51.0,0.0,90.0,0.0,0.0
1879,66.0,0.0,40.0,0.0,0.0
1880,65.0,48.0,40.0,0.0,0.0
1881,56.0,48.0,180.0,0.0,0.0
1882,63.0,48.0,40.0,0.0,0.0
1883,44.0,0.0,90.0,0.0,0.0
1884,65.0,48.0,40.0,0.0,0.0
1885,68.0,0.0,40.0,0.0,0.0
1886,62.0,0.0,180.0,0.0,0.0
1887,46.0,48.0,180.0,0.0,0.0
1888,71.0,0.0,15.0,0.0,0.0
1889,56.0,48.0,40.0,0.0,0.0
1890,59.0,48.0,40.0,0.0,0.0
1891,65.0,0.0,90.0,0.0,0.0
1892,58.0,48.0,40.0,0.0,0.0
1893,56.0,0.0,40.0,0.0,0.0
1894,70.0,0.0,180.0,0.0,0.0
1895,54.0,48.0,40.0,0.0,0.0
1896,53.0,48.0,40.0,0.0,0.0
1897,46.0,0.0,90.0,0.0,0.0
1898,62.0,48.0,90.0,0.0,0.0
1899,54.0,48.0,40.0,0.0,0.0
1900,58.0,0.0,40.0,0.0,0.0
1901,70.0,0.0,180.0,0.0,0.0
1902,51.0,48.0,90.0,0.0,0.0
1903,47.0,0.0,90.0,0.0,0.0
1904,63.0,48.0,40.0,0.0,0.0
1905,65.0,0.0,40.0,0.0,0.0
1906,54.0,0.0,40.0,0.0,0.0
1907,63.0,48.0,40.0,0.0,0.0
1908,61.0,0.0,40.0,0.0,0.0
1909,53.0,48.0,40.0,0.0,0.0
1910,69.0,48.0,180.0,0.0,0.0
1911,51.0,48.0,40.0,0.0,0.0
1912,60.0,0.0,40.0,0.0,0.0
1913,49.0,48.0,40.0,0.0,0.0
1914,58.0,0.0,40.0,0.0,0.0
1915,48.0,0.0,15.0,0.0,0.0
1916,60.0,48.0,40.0,0.0,0.0
1917,41.0,0.0,90.0,0.0,0.0
1918,63.0,0.0,40.0,0.0,0.0
1919,62.0,0.0,90.0,0.0,0.0
1920,70.0,0.0,180.0,0.0,0.0
1921,46.0,48.0,40.0,0.0,0.0
1922,58.0,48.0,40.0,0.0,0.0
1923,63.0,0.0,180.0,0.0,0.0
1924,56.0,48.0,40.0,0.0,0.0
1925,54.0,48.0,40.0,0.0,0.0
1926,68.0,0.0,180.0,0.0,0.0
1927,53.0,48.0,40.0,0.0,0.0
1928,51.0,48.0,40.0,0.0,0.0
1929,53.0,48.0,40.0,0.0,0.0
1930,62.0,0.0,40.0,0.0,0.0
1931,56.0,48.0,40.0,0.0,0.0
1932,65.0,0.0,40.0,0.0,0.0
1933,68.0,0.0,90.0,0.0,0.0
1934,58.0,0.0,40.0,0.0,0.0
1935,54.0,48.0,40.0,0.0,0.0
1936,62.0,48.0,40.0,0.0,0.0
1937,59.0,0.0,40.0,0.0,0.0
1938,66.0,0.0,40.0,0.0,0.0
1939,58.0,0.0,180.0,0.0,0.0
1940,63.0,48.0,40.0,0.0,0.0
1941,42.0,0.0,40.0,0.0,0.0
1942,62.0,48.0,40.0,0.0,0.0
1943,44.0,0.0,40.0,0.0,0.0
1944,65.0,0.0,40.0,0.0,0.0
1945,63.0,0.0,90.0,0.0,0.0
1946,66.0,0.0,90.0,0.0,0.0
1947,42.0,48.0,40.0,0.0,0.0
1948,41.0,48.0,40.0,0.0,0.0
1949,39.0,48.0,40.0,0.0,0.0
1950,71.0,48.0,90.0,0.0,0.0
1951,38.0,0.0,40.0,0.0,0.0
1952,70.0,48.0,90.0,0.0,0.0
1953,39.0,48.0,40.0,0.0,0.0
1954,68.0,0.0,15.0,0.0,0.0
1955,34.0,0.0,40.0,0.0,0.0
1956,39.0,48.0,40.0,0.0,0.0
1957,66.0,48.0,90.0,0.0,0.0
1958,72.0,0.0,40.0,0.0,0.0
1959,41.0,0.0,40.0,0.0,0.0
1960,74.0,0.0,40.0,0.0,0.0
1961,42.0,48.0,40.0,0.0,0.0
1962,75.0,0.0,180.0,0.0,0.0
1963,41.0,0.0,40.0,0.0,0.0
1964,74.0,48.0,40.0,0.0,0.0
1965,71.0,0.0,40.0,0.0,0.0
1966,39.0,48.0,40.0,0.0,0.0
1967,70.0,48.0,40.0,0.0,0.0
1968,42.0,0.0,40.0,0.0,0.0
1969,41.0,48.0,40.0,0.0,0.0
1970,75.0,48.0,90.0,0.0,0.0
1971,68.0,0.0,40.0,0.0,0.0
1972,34.0,0.0,40.0,0.0,0.0
1973,67.0,0.0,40.0,0.0,0.0
1974,68.0,48.0,40.0,0.0,0.0
1975,41.0,0.0,40.0,0.0,0.0
1976,73.0,0.0,150.0,0.0,0.0
1977,43.0,0.0,40.0,0.0,0.0
1978,70.0,48.0,40.0,0.0,0.0
1979,63.0,0.0,180.0,0.0,0.0
1980,44.0,24.0,40.0,0.0,0.0
1981,71.0,48.0,40.0,0.0,0.0
1982,43.0,24.0,20.0,0.0,0.0
1983,41.0,0.0,20.0,0.0,0.0
1984,43.0,0.0,40.0,0.0,0.0
1985,49.0,48.0,90.0,0.0,0.0
1986,70.0,48.0,40.0,0.0,0.0
1987,44.0,0.0,40.0,0.0,0.0
1988,68.0,0.0,40.0,0.0,0.0
1989,46.0,0.0,40.0,0.0,0.0
1990,49.0,48.0,40.0,0.0,0.0
1991,67.0,0.0,40.0,0.0,0.0
1992,47.0,0.0,40.0,0.0,0.0
1993,65.0,0.0,40.0,0.0,0.0
1994,44.0,48.0,40.0,0.0,0.0
1995,43.0,0.0,40.0,0.0,0.0
1996,46.0,48.0,40.0,0.0,0.0
1997,63.0,48.0,90.0,0.0,0.0
1998,44.0,0.0,40.0,0.0,0.0
1999,47.0,0.0,40.0,0.0,0.0
2000,70.0,48.0,90.0,0.0,0.0
2001,49.0,48.0,40.0,0.0,0.0
2002,51.0,0.0,40.0,0.0,0.0
2003,68.0,0.0,90.0,0.0,0.0
2004,52.0,48.0,40.0,0.0,0.0
2005,49.0,0.0,40.0,0.0,0.0
2006,46.0,0.0,15.0,0.0,0.0
2007,67.0,0.0,390.0,0.0,0.0
2008,75.0,48.0,300.0,0.0,0.0
2009,44.0,24.0,20.0,0.0,0.0
2010,43.0,48.0,20.0,0.0,0.0
2011,44.0,48.0,40.0,0.0,0.0
2012,46.0,0.0,40.0,0.0,0.0
2013,51.0,48.0,15.0,0.0,0.0
2014,51.0,48.0,15.0,0.0,0.0
2015,73.0,0.0,90.0,0.0,0.0
2016,55.0,48.0,40.0,0.0,0.0
2017,58.0,48.0,40.0,0.0,0.0
2018,71.0,0.0,390.0,0.0,0.0
2019,47.0,0.0,15.0,0.0,0.0
2020,68.0,48.0,390.0,0.0,0.0
2021,63.0,48.0,40.0,0.0,0.0
2022,46.0,0.0,40.0,0.0,0.0
2023,66.0,48.0,40.0,0.0,0.0
2024,44.0,48.0,40.0,0.0,0.0
2025,64.0,0.0,40.0,0.0,0.0
2026,63.0,0.0,40.0,0.0,0.0
2027,42.0,48.0,40.0,0.0,0.0
2028,41.0,48.0,40.0,0.0,0.0
2029,62.0,48.0,150.0,0.0,0.0
2030,39.0,48.0,40.0,0.0,0.0
2031,41.0,0.0,40.0,0.0,0.0
2032,63.0,0.0,40.0,0.0,0.0
2033,44.0,0.0,40.0,0.0,0.0
2034,64.0,48.0,40.0,0.0,0.0
2035,70.0,0.0,390.0,0.0,0.0
2036,43.0,0.0,90.0,0.0,0.0
2037,73.0,48.0,390.0,0.0,0.0
2038,51.0,48.0,40.0,0.0,0.0
2039,49.0,48.0,40.0,0.0,0.0
2040,47.0,48.0,40.0,0.0,0.0
2041,46.0,48.0,40.0,0.0,0.0
2042,44.0,0.0,40.0,0.0,0.0
2043,46.0,48.0,40.0,0.0,0.0
2044,49.0,0.0,40.0,0.0,0.0
2045,42.0,0.0,15.0,0.0,0.0
2046,75.0,0.0,390.0,0.0,0.0
2047,48.0,48.0,390.0,0.0,0.0
2048,63.0,0.0,90.0,0.0,0.0
2049,44.0,48.0,40.0,0.0,0.0
2050,65.0,48.0,90.0,0.0,0.0
2051,42.0,48.0,40.0,0.0,0.0
2052,41.0,0.0,40.0,0.0,0.0
2053,66.0,0.0,180.0,0.0,0.0
2054,39.0,48.0,40.0,0.0,0.0
2055,38.0,48.0,40.0,0.0,0.0
2056,39.0,48.0,40.0,0.0,0.0
2057,42.0,0.0,40.0,0.0,0.0
2058,68.0,0.0,390.0,0.0,0.0
2059,41.0,48.0,40.0,0.0,0.0
2060,50.0,0.0,90.0,0.0,0.0
2061,66.0,48.0,90.0,0.0,0.0
2062,46.0,0.0,40.0,0.0,0.0
2063,44.0,48.0,40.0,0.0,0.0
2064,65.0,0.0,40.0,0.0,0.0
2065,63.0,0.0,40.0,0.0,0.0
2066,42.0,48.0,40.0,0.0,0.0
2067,41.0,0.0,40.0,0.0,0.0
2068,62.0,48.0,40.0,0.0,0.0
2069,39.0,0.0,40.0,0.0,0.0
2070,60.0,48.0,40.0,0.0,0.0
2071,41.0,48.0,40.0,0.0,0.0
2072,62.0,0.0,40.0,0.0,0.0
2073,63.0,48.0,40.0,0.0,0.0
2074,44.0,0.0,40.0,0.0,0.0
2075,58.0,0.0,180.0,0.0,0.0
2076,42.0,0.0,180.0,0.0,0.0
2077,68.0,48.0,40.0,0.0,0.0
2078,46.0,48.0,40.0,0.0,0.0
2079,62.0,0.0,40.0,0.0,0.0
2080,48.0,0.0,40.0,0.0,0.0
2081,63.0,48.0,40.0,0.0,0.0
2082,65.0,48.0,40.0,0.0,0.0
2083,50.0,0.0,40.0,0.0,0.0
2084,66.0,48.0,40.0,0.0,0.0
2085,51.0,0.0,180.0,0.0,0.0
2086,68.0,48.0,40.0,0.0,0.0
2087,66.0,48.0,40.0,0.0,0.0
2088,39.0,48.0,90.0,0.0,0.0
2089,63.0,0.0,40.0,0.0,0.0
2090,51.0,48.0,40.0,0.0,0.0
2091,44.0,48.0,180.0,0.0,0.0
2092,70.0,0.0,40.0,0.0,0.0
2093,51.0,48.0,40.0,0.0,0.0
2094,68.0,48.0,40.0,0.0,0.0
2095,53.0,0.0,40.0,0.0,0.0
2096,66.0,0.0,40.0,0.0,0.0
2097,54.0,0.0,40.0,0.0,0.0
2098,56.0,0.0,40.0,0.0,0.0
2099,65.0,48.0,40.0,0.0,0.0
2100,63.0,48.0,40.0,0.0,0.0
2101,58.0,0.0,40.0,0.0,0.0
2102,65.0,48.0,40.0,0.0,0.0
2103,56.0,0.0,40.0,0.0,0.0
2104,54.0,0.0,40.0,0.0,0.0
2105,68.0,0.0,40.0,0.0,0.0
2106,53.0,0.0,90.0,0.0,0.0
2107,44.0,48.0,15.0,0.0,0.0
2108,62.0,0.0,390.0,0.0,0.0
2109,71.0,0.0,15.0,0.0,0.0
2110,41.0,0.0,40.0,0.0,0.0
2111,71.0,48.0,15.0,0.0,0.0
2112,70.0,48.0,40.0,0.0,0.0
2113,42.0,0.0,40.0,0.0,0.0
2114,44.0,48.0,40.0,0.0,0.0
2115,68.0,0.0,40.0,0.0,0.0
2116,46.0,0.0,40.0,0.0,0.0
2117,66.0,48.0,40.0,0.0,0.0
2118,47.0,48.0,40.0,0.0,0.0
2119,65.0,0.0,40.0,0.0,0.0
2120,66.0,48.0,40.0,0.0,0.0
2121,46.0,0.0,40.0,0.0,0.0
2122,42.0,48.0,40.0,0.0,0.0
2123,70.0,0.0,40.0,0.0,0.0
2124,47.0,0.0,90.0,0.0,0.0
2125,63.0,48.0,40.0,0.0,0.0
2126,61.0,48.0,40.0,0.0,0.0
2127,59.0,0.0,90.0,0.0,0.0
2128,54.0,0.0,90.0,0.0,0.0
2129,44.0,48.0,90.0,0.0,0.0
2130,65.0,0.0,40.0,0.0,0.0
2131,62.0,48.0,150.0,0.0,0.0
2132,53.0,48.0,40.0,0.0,0.0
2133,46.0,0.0,180.0,0.0,0.0
2134,58.0,48.0,90.0,0.0,0.0
2135,51.0,0.0,40.0,0.0,0.0
2136,53.0,0.0,90.0,0.0,0.0
2137,56.0,0.0,15.0,0.0,0.0
2138,39.0,0.0,180.0,0.0,0.0
2139,63.0,96.0,15.0,0.0,0.0
2140,51.0,192.0,180.0,0.0,0.0
2141,63.0,0.0,15.0,0.0,0.0
2142,54.0,0.0,90.0,0.0,0.0
2143,54.0,192.0,180.0,0.0,0.0
2144,53.0,192.0,180.0,0.0,0.0
2145,56.0,144.0,180.0,0.0,0.0
2146,55.0,48.0,150.0,0.0,0.0
2147,57.0,192.0,40.0,0.0,0.0
2148,58.0,144.0,180.0,0.0,0.0
2149,61.0,0.0,180.0,0.0,0.0
2150,60.0,192.0,180.0,0.0,0.0
2151,58.0,24.0,150.0,0.0,0.0
2152,57.0,24.0,20.0,0.0,0.0
2153,55.0,0.0,20.0,0.0,0.0
2154,63.0,0.0,180.0,0.0,0.0
2155,57.0,144.0,180.0,0.0,0.0
2156,62.0,48.0,150.0,0.0,0.0
2157,58.0,0.0,180.0,0.0,0.0
2158,64.0,192.0,40.0,0.0,0.0
2159,65.0,96.0,180.0,0.0,0.0
2160,59.0,0.0,90.0,0.0,0.0
2161,60.0,48.0,90.0,0.0,0.0
2162,65.0,24.0,150.0,0.0,0.0
2163,55.0,0.0,90.0,0.0,0.0
2164,64.0,24.0,20.0,0.0,0.0
2165,62.0,96.0,20.0,0.0,0.0
2166,60.0,96.0,90.0,0.0,0.0
2167,64.0,0.0,180.0,0.0,0.0
2168,58.0,96.0,90.0,0.0,0.0
2169,65.0,96.0,90.0,0.0,0.0
2170,56.0,96.0,180.0,0.0,0.0
2171,60.0,0.0,90.0,0.0,0.0
2172,65.0,96.0,90.0,0.0,0.0
2173,57.0,96.0,90.0,0.0,0.0
2174,63.0,0.0,90.0,0.0,0.0
2175,58.0,96.0,90.0,0.0,0.0
2176,61.0,96.0,180.0,0.0,0.0
2177,53.0,0.0,90.0,0.0,0.0
2178,58.0,96.0,90.0,0.0,0.0
2179,62.0,0.0,90.0,0.0,0.0
2180,56.0,96.0,90.0,0.0,0.0
2181,54.0,48.0,150.0,0.0,0.0
2182,63.0,48.0,90.0,0.0,0.0
2183,58.0,0.0,90.0,0.0,0.0
2184,53.0,48.0,40.0,0.0,0.0
2185,63.0,48.0,90.0,0.0,0.0
2186,66.0,0.0,180.0,0.0,0.0
2187,51.0,48.0,40.0,0.0,0.0
2188,53.0,0.0,40.0,0.0,0.0
2189,61.0,0.0,90.0,0.0,0.0
2190,54.0,48.0,40.0,0.0,0.0
2191,51.0,48.0,40.0,0.0,0.0
2192,60.0,0.0,90.0,0.0,0.0
2193,56.0,48.0,40.0,0.0,0.0
2194,54.0,48.0,40.0,0.0,0.0
2195,62.0,0.0,40.0,0.0,0.0
2196,53.0,48.0,40.0,0.0,0.0
2197,63.0,0.0,40.0,0.0,0.0
2198,51.0,0.0,40.0,0.0,0.0
2199,65.0,48.0,15.0,0.0,0.0
2200,50.0,48.0,40.0,0.0,0.0
2201,68.0,0.0,180.0,0.0,0.0
2202,48.0,48.0,40.0,0.0,0.0
2203,50.0,48.0,40.0,0.0,0.0
2204,46.0,0.0,40.0,0.0,0.0
2205,67.0,48.0,150.0,0.0,0.0
2206,65.0,48.0,90.0,0.0,0.0
2207,51.0,0.0,90.0,0.0,0.0
2208,63.0,0.0,90.0,0.0,0.0
2209,48.0,96.0,90.0,0.0,0.0
2210,69.0,0.0,40.0,0.0,0.0
2211,49.0,48.0,90.0,0.0,0.0
2212,65.0,0.0,90.0,0.0,0.0
2213,51.0,48.0,40.0,0.0,0.0
2214,58.0,0.0,90.0,0.0,0.0
2215,53.0,0.0,40.0,0.0,0.0
2216,48.0,0.0,180.0,0.0,0.0
2217,70.0,48.0,15.0,0.0,0.0
2218,63.0,0.0,150.0,0.0,0.0
2219,54.0,48.0,40.0,0.0,0.0
2220,53.0,48.0,40.0,0.0,0.0
2221,51.0,24.0,40.0,0.0,0.0
2222,61.0,48.0,40.0,0.0,0.0
2223,69.0,24.0,20.0,0.0,0.0
2224,53.0,0.0,40.0,0.0,0.0
2225,67.0,0.0,20.0,0.0,0.0
2226,51.0,0.0,180.0,0.0,0.0
2227,54.0,48.0,40.0,0.0,0.0
2228,69.0,0.0,180.0,0.0,0.0
2229,60.0,0.0,180.0,0.0,0.0
2230,48.0,96.0,40.0,0.0,0.0
2231,50.0,48.0,150.0,0.0,0.0
2232,58.0,0.0,90.0,0.0,0.0
2233,53.0,96.0,15.0,0.0,0.0
2234,70.0,48.0,90.0,0.0,0.0
2235,58.0,96.0,180.0,0.0,0.0
2236,52.0,96.0,40.0,0.0,0.0
2237,53.0,0.0,180.0,0.0,0.0
2238,56.0,0.0,90.0,0.0,0.0
2239,71.0,96.0,90.0,0.0,0.0
2240,55.0,0.0,90.0,0.0,0.0
2241,53.0,24.0,150.0,0.0,0.0
2242,72.0,48.0,90.0,0.0,0.0
2243,67.0,96.0,90.0,0.0,0.0
2244,52.0,24.0,20.0,0.0,0.0
2245,50.0,0.0,20.0,0.0,0.0
2246,72.0,96.0,90.0,0.0,0.0
2247,52.0,96.0,180.0,0.0,0.0
2248,70.0,0.0,90.0,0.0,0.0
2249,67.0,0.0,90.0,0.0,0.0
2250,68.0,0.0,180.0,0.0,0.0
2251,60.0,0.0,15.0,0.0,0.0
2252,53.0,96.0,180.0,0.0,0.0
2253,67.0,96.0,90.0,0.0,0.0
2254,60.0,0.0,90.0,0.0,0.0
2255,69.0,0.0,180.0,0.0,0.0
2256,65.0,96.0,90.0,0.0,0.0
2257,63.0,0.0,90.0,0.0,0.0
2258,53.0,96.0,90.0,0.0,0.0
2259,70.0,0.0,90.0,0.0,0.0
2260,61.0,0.0,300.0,0.0,0.0
2261,54.0,96.0,90.0,0.0,0.0
2262,65.0,0.0,90.0,0.0,0.0
2263,49.0,96.0,90.0,0.0,0.0
2264,54.0,48.0,90.0,0.0,0.0
2265,70.0,0.0,180.0,0.0,0.0
2266,53.0,96.0,90.0,0.0,0.0
2267,63.0,48.0,40.0,0.0,0.0
2268,61.0,0.0,40.0,0.0,0.0
2269,70.0,0.0,90.0,0.0,0.0
2270,52.0,48.0,90.0,0.0,0.0
2271,68.0,48.0,40.0,0.0,0.0
2272,48.0,48.0,90.0,0.0,0.0
2273,67.0,0.0,40.0,0.0,0.0
2274,68.0,96.0,180.0,0.0,0.0
2275,60.0,0.0,15.0,0.0,0.0
2276,53.0,0.0,90.0,0.0,0.0
2277,58.0,48.0,40.0,0.0,0.0
2278,51.0,0.0,90.0,0.0,0.0
2279,59.0,48.0,40.0,0.0,0.0
2280,56.0,0.0,40.0,0.0,0.0
2281,50.0,48.0,90.0,0.0,0.0
2282,58.0,48.0,300.0,0.0,0.0
2283,68.0,0.0,90.0,0.0,0.0
2284,66.0,48.0,40.0,0.0,0.0
2285,46.0,0.0,90.0,0.0,0.0
2286,65.0,96.0,40.0,0.0,0.0
2287,66.0,0.0,90.0,0.0,0.0
2288,51.0,0.0,180.0,0.0,0.0
2289,54.0,0.0,180.0,0.0,0.0
2290,63.0,96.0,90.0,0.0,0.0
2291,60.0,48.0,40.0,0.0,0.0
2292,58.0,0.0,40.0,0.0,0.0
2293,57.0,96.0,90.0,0.0,0.0
2294,53.0,0.0,180.0,0.0,0.0
2295,65.0,0.0,90.0,0.0,0.0
2296,51.0,0.0,180.0,0.0,0.0
2297,77.0,96.0,180.0,0.0,0.0
2298,60.0,96.0,90.0,0.0,0.0
2299,65.0,0.0,180.0,0.0,0.0
2300,50.0,48.0,180.0,0.0,0.0
2301,57.0,0.0,180.0,0.0,0.0
2302,65.0,48.0,40.0,0.0,0.0
2303,70.0,0.0,15.0,0.0,0.0
2304,55.0,48.0,150.0,0.0,0.0
2305,51.0,192.0,180.0,0.0,0.0
2306,58.0,48.0,40.0,0.0,0.0
2307,63.0,0.0,90.0,0.0,0.0
2308,72.0,0.0,90.0,0.0,0.0
2309,57.0,0.0,40.0,0.0,0.0
2310,58.0,96.0,180.0,0.0,0.0
2311,73.0,0.0,180.0,0.0,0.0
2312,52.0,0.0,90.0,0.0,0.0
2313,53.0,48.0,90.0,0.0,0.0
2314,58.0,24.0,150.0,0.0,0.0
2315,48.0,48.0,90.0,0.0,0.0
2316,57.0,24.0,20.0,0.0,0.0
2317,55.0,0.0,20.0,0.0,0.0
2318,60.0,0.0,180.0,0.0,0.0
2319,72.0,0.0,15.0,0.0,0.0
2320,53.0,0.0,90.0,0.0,0.0
2321,57.0,96.0,180.0,0.0,0.0
2322,69.0,48.0,40.0,0.0,0.0
2323,51.0,0.0,90.0,0.0,0.0
2324,70.0,48.0,40.0,0.0,0.0
2325,72.0,0.0,40.0,0.0,0.0
2326,58.0,48.0,150.0,0.0,0.0
2327,65.0,0.0,300.0,0.0,0.0
2328,49.0,48.0,90.0,0.0,0.0
2329,61.0,0.0,180.0,0.0,0.0
2330,46.0,0.0,90.0,0.0,0.0
2331,56.0,96.0,40.0,0.0,0.0
2332,58.0,0.0,180.0,0.0,0.0
2333,55.0,48.0,90.0,0.0,0.0
2334,63.0,48.0,40.0,0.0,0.0
2335,53.0,0.0,90.0,0.0,0.0
2336,62.0,48.0,40.0,0.0,0.0
2337,59.0,0.0,150.0,0.0,0.0
2338,51.0,0.0,15.0,0.0,0.0
2339,63.0,0.0,390.0,0.0,0.0
2340,54.0,0.0,180.0,0.0,0.0
2341,53.0,48.0,40.0,0.0,0.0
2342,51.0,48.0,40.0,0.0,0.0
2343,58.0,48.0,40.0,0.0,0.0
2344,49.0,0.0,40.0,0.0,0.0
2345,48.0,0.0,180.0,0.0,0.0
2346,54.0,48.0,40.0,0.0,0.0
2347,53.0,48.0,40.0,0.0,0.0
2348,54.0,48.0,40.0,0.0,0.0
2349,51.0,0.0,40.0,0.0,0.0
2350,57.0,48.0,15.0,0.0,0.0
2351,63.0,0.0,180.0,0.0,0.0
2352,49.0,48.0,40.0,0.0,0.0
2353,51.0,48.0,40.0,0.0,0.0
2354,49.0,48.0,40.0,0.0,0.0
2355,48.0,48.0,40.0,0.0,0.0
2356,58.0,0.0,180.0,0.0,0.0
2357,53.0,0.0,15.0,0.0,0.0
2358,61.0,48.0,40.0,0.0,0.0
2359,46.0,96.0,180.0,0.0,0.0
2360,60.0,48.0,40.0,0.0,0.0
2361,54.0,0.0,40.0,0.0,0.0
2362,53.0,48.0,40.0,0.0,0.0
2363,61.0,0.0,90.0,0.0,0.0
2364,52.0,0.0,40.0,0.0,0.0
2365,41.0,0.0,90.0,0.0,0.0
2366,53.0,0.0,90.0,0.0,0.0
2367,60.0,0.0,180.0,0.0,0.0
2368,58.0,96.0,90.0,0.0,0.0
2369,53.0,96.0,180.0,0.0,0.0
2370,57.0,96.0,90.0,0.0,0.0
2371,58.0,0.0,90.0,0.0,0.0
2372,66.0,0.0,180.0,0.0,0.0
2373,54.0,96.0,90.0,0.0,0.0
2374,51.0,0.0,90.0,0.0,0.0
2375,60.0,0.0,90.0,0.0,0.0
2376,61.0,0.0,90.0,0.0,0.0
2377,56.0,48.0,90.0,0.0,0.0
2378,65.0,0.0,180.0,0.0,0.0
2379,49.0,0.0,180.0,0.0,0.0
2380,60.0,48.0,40.0,0.0,0.0
2381,58.0,0.0,90.0,0.0,0.0
2382,61.0,96.0,40.0,0.0,0.0
2383,60.0,48.0,90.0,0.0,0.0
2384,48.0,0.0,180.0,0.0,0.0
2385,68.0,48.0,180.0,0.0,0.0
2386,63.0,0.0,180.0,0.0,0.0
2387,61.0,48.0,40.0,0.0,0.0
2388,60.0,0.0,40.0,0.0,0.0
2389,51.0,48.0,180.0,0.0,0.0
2390,58.0,0.0,180.0,0.0,0.0
2391,63.0,48.0,40.0,0.0,0.0
2392,62.0,48.0,40.0,0.0,0.0
2393,63.0,48.0,40.0,0.0,0.0
2394,67.0,0.0,15.0,0.0,0.0
2395,69.0,0.0,40.0,0.0,0.0
2396,70.0,0.0,180.0,0.0,0.0
2397,50.0,48.0,150.0,0.0,0.0
2398,58.0,48.0,40.0,0.0,0.0
2399,57.0,48.0,40.0,0.0,0.0
2400,58.0,0.0,40.0,0.0,0.0
2401,62.0,0.0,40.0,0.0,0.0
2402,52.0,0.0,40.0,0.0,0.0
2403,60.0,48.0,40.0,0.0,0.0
2404,70.0,24.0,150.0,0.0,0.0
2405,65.0,48.0,15.0,0.0,0.0
2406,53.0,0.0,390.0,0.0,0.0
2407,58.0,48.0,40.0,0.0,0.0
2408,60.0,0.0,180.0,0.0,0.0
2409,69.0,24.0,20.0,0.0,0.0
2410,67.0,0.0,20.0,0.0,0.0
2411,69.0,48.0,40.0,0.0,0.0
2412,63.0,0.0,90.0,0.0,0.0
2413,71.0,24.0,40.0,0.0,0.0
2414,62.0,0.0,90.0,0.0,0.0
2415,72.0,24.0,20.0,0.0,0.0
2416,71.0,24.0,20.0,0.0,0.0
2417,69.0,24.0,20.0,0.0,0.0
2418,71.0,0.0,20.0,0.0,0.0
2419,72.0,48.0,90.0,0.0,0.0
2420,53.0,24.0,150.0,0.0,0.0
2421,55.0,96.0,15.0,0.0,0.0
2422,67.0,96.0,90.0,0.0,0.0
2423,52.0,24.0,20.0,0.0,0.0
2424,50.0,0.0,20.0,0.0,0.0
2425,52.0,96.0,180.0,0.0,0.0
2426,72.0,96.0,90.0,0.0,0.0
2427,70.0,0.0,90.0,0.0,0.0
2428,60.0,0.0,15.0,0.0,0.0
2429,68.0,96.0,180.0,0.0,0.0
2430,53.0,0.0,90.0,0.0,0.0
2431,60.0,48.0,15.0,0.0,0.0
2432,51.0,24.0,20.0,0.0,0.0
2433,49.0,0.0,20.0,0.0,0.0
2434,41.0,0.0,180.0,0.0,0.0
2435,48.0,24.0,150.0,0.0,0.0
2436,65.0,48.0,90.0,0.0,0.0
2437,69.0,48.0,180.0,0.0,0.0
2438,46.0,24.0,20.0,0.0,0.0
2439,48.0,0.0,20.0,0.0,0.0
2440,46.0,0.0,90.0,0.0,0.0
2441,42.0,48.0,180.0,0.0,0.0
2442,63.0,0.0,15.0,0.0,0.0
2443,62.0,48.0,40.0,0.0,0.0
2444,63.0,48.0,40.0,0.0,0.0
2445,48.0,0.0,40.0,0.0,0.0
2446,65.0,0.0,40.0,0.0,0.0
2447,50.0,0.0,40.0,0.0,0.0
2448,70.0,0.0,15.0,0.0,0.0
2449,51.0,48.0,90.0,0.0,0.0
2450,66.0,0.0,90.0,0.0,0.0
2451,39.0,48.0,180.0,0.0,0.0
2452,73.0,0.0,40.0,0.0,0.0
2453,71.0,48.0,40.0,0.0,0.0
2454,67.0,0.0,90.0,0.0,0.0
2455,49.0,0.0,90.0,0.0,0.0
2456,70.0,0.0,40.0,0.0,0.0
2457,68.0,48.0,40.0,0.0,0.0
2458,47.0,0.0,40.0,0.0,0.0
2459,40.0,0.0,150.0,0.0,0.0
2460,46.0,0.0,40.0,0.0,0.0
2461,75.0,48.0,40.0,0.0,0.0
2462,44.0,48.0,90.0,0.0,0.0
2463,73.0,48.0,40.0,0.0,0.0
2464,71.0,0.0,40.0,0.0,0.0
2465,39.0,0.0,40.0,0.0,0.0
2466,38.0,0.0,180.0,0.0,0.0
2467,70.0,48.0,40.0,0.0,0.0
2468,46.0,0.0,90.0,0.0,0.0
2469,68.0,0.0,40.0,0.0,0.0
2470,68.0,48.0,15.0,0.0,0.0
2471,69.0,0.0,90.0,0.0,0.0
2472,66.0,0.0,40.0,0.0,0.0
2473,69.0,48.0,40.0,0.0,0.0
2474,47.0,48.0,15.0,0.0,0.0
2475,38.0,48.0,180.0,0.0,0.0
2476,65.0,48.0,150.0,0.0,0.0
2477,67.0,0.0,40.0,0.0,0.0
2478,46.0,48.0,40.0,0.0,0.0
2479,68.0,0.0,180.0,0.0,0.0
2480,47.0,48.0,150.0,0.0,0.0
2481,64.0,0.0,40.0,0.0,0.0
2482,63.0,0.0,180.0,0.0,0.0
2483,39.0,96.0,180.0,0.0,0.0
2484,46.0,96.0,40.0,0.0,0.0
2485,49.0,0.0,90.0,0.0,0.0
2486,67.0,0.0,90.0,0.0,0.0
2487,44.0,0.0,180.0,0.0,0.0
2488,49.0,48.0,90.0,0.0,0.0
2489,63.0,0.0,180.0,0.0,0.0
2490,68.0,24.0,150.0,0.0,0.0
2491,48.0,96.0,180.0,0.0,0.0
2492,66.0,24.0,20.0,0.0,0.0
2493,65.0,48.0,20.0,0.0,0.0
2494,66.0,0.0,180.0,0.0,0.0
2495,63.0,48.0,40.0,0.0,0.0
2496,60.0,0.0,40.0,0.0,0.0
2497,45.0,48.0,90.0,0.0,0.0
2498,72.0,0.0,90.0,0.0,0.0
2499,51.0,0.0,15.0,0.0,0.0
2500,72.0,24.0,40.0,0.0,0.0
2501,46.0,0.0,180.0,0.0,0.0
2502,70.0,24.0,20.0,0.0,0.0
2503,69.0,0.0,20.0,0.0,0.0
2504,70.0,24.0,40.0,0.0,0.0
2505,50.0,48.0,150.0,0.0,0.0
2506,68.0,24.0,20.0,0.0,0.0
2507,67.0,0.0,20.0,0.0,0.0
2508,65.0,48.0,15.0,0.0,0.0
2509,68.0,0.0,180.0,0.0,0.0
2510,52.0,0.0,40.0,0.0,0.0
2511,47.0,0.0,90.0,0.0,0.0
2512,48.0,24.0,40.0,0.0,0.0
2513,53.0,48.0,15.0,0.0,0.0
2514,67.0,48.0,150.0,0.0,0.0
2515,46.0,24.0,20.0,0.0,0.0
2516,48.0,48.0,20.0,0.0,0.0
2517,49.0,24.0,150.0,0.0,0.0
2518,69.0,48.0,40.0,0.0,0.0
2519,53.0,0.0,40.0,0.0,0.0
2520,70.0,48.0,180.0,0.0,0.0
2521,43.0,48.0,40.0,0.0,0.0
2522,52.0,24.0,20.0,0.0,0.0
2523,50.0,0.0,20.0,0.0,0.0
2524,52.0,0.0,90.0,0.0,0.0
2525,48.0,48.0,40.0,0.0,0.0
2526,46.0,0.0,40.0,0.0,0.0
2527,52.0,48.0,90.0,0.0,0.0
2528,70.0,0.0,150.0,0.0,0.0
2529,45.0,48.0,40.0,0.0,0.0
2530,43.0,0.0,40.0,0.0,0.0
2531,41.0,0.0,90.0,0.0,0.0
2532,53.0,24.0,40.0,0.0,0.0
2533,69.0,24.0,20.0,0.0,0.0
2534,48.0,0.0,40.0,0.0,0.0
2535,67.0,48.0,20.0,0.0,0.0
2536,53.0,24.0,40.0,0.0,0.0
2537,69.0,0.0,180.0,0.0,0.0
2538,54.0,24.0,20.0,0.0,0.0
2539,53.0,48.0,20.0,0.0,0.0
2540,51.0,48.0,40.0,0.0,0.0
2541,77.0,0.0,90.0,0.0,0.0
2542,41.0,48.0,90.0,0.0,0.0
2543,53.0,0.0,40.0,0.0,0.0
2544,54.0,0.0,40.0,0.0,0.0
2545,70.0,0.0,40.0,0.0,0.0
2546,77.0,24.0,40.0,0.0,0.0
2547,72.0,24.0,20.0,0.0,0.0
2548,75.0,0.0,20.0,0.0,0.0
2549,58.0,48.0,40.0,0.0,0.0
2550,77.0,0.0,20.0,0.0,0.0
2551,73.0,0.0,20.0,0.0,0.0
2552,75.0,48.0,180.0,0.0,0.0
2553,51.0,48.0,40.0,0.0,0.0
2554,78.0,0.0,150.0,0.0,0.0
2555,53.0,48.0,40.0,0.0,0.0
2556,54.0,48.0,40.0,0.0,0.0
2557,72.0,0.0,40.0,0.0,0.0
2558,51.0,0.0,40.0,0.0,0.0
2559,48.0,0.0,40.0,0.0,0.0
2560,77.0,24.0,40.0,0.0,0.0
2561,69.0,48.0,90.0,0.0,0.0
2562,49.0,24.0,20.0,0.0,0.0
2563,75.0,0.0,40.0,0.0,0.0
2564,51.0,0.0,20.0,0.0,0.0
2565,53.0,48.0,90.0,0.0,0.0
2566,46.0,0.0,15.0,0.0,0.0
2567,70.0,24.0,40.0,0.0,0.0
2568,73.0,0.0,40.0,0.0,0.0
2569,72.0,24.0,20.0,0.0,0.0
2570,65.0,0.0,40.0,0.0,0.0
2571,48.0,0.0,20.0,0.0,0.0
2572,49.0,0.0,20.0,0.0,0.0
2573,70.0,0.0,20.0,0.0,0.0
2574,66.0,0.0,90.0,0.0,0.0
2575,48.0,48.0,40.0,0.0,0.0
2576,51.0,0.0,180.0,0.0,0.0
2577,69.0,0.0,40.0,0.0,0.0
2578,46.0,48.0,40.0,0.0,0.0
2579,70.0,0.0,40.0,0.0,0.0
2580,45.0,24.0,40.0,0.0,0.0
2581,72.0,0.0,40.0,0.0,0.0
2582,70.0,24.0,20.0,0.0,0.0
2583,41.0,48.0,40.0,0.0,0.0
2584,72.0,0.0,20.0,0.0,0.0
2585,49.0,0.0,90.0,0.0,0.0
2586,73.0,48.0,40.0,0.0,0.0
2587,46.0,0.0,40.0,0.0,0.0
2588,44.0,0.0,40.0,0.0,0.0
2589,72.0,0.0,40.0,0.0,0.0
2590,42.0,48.0,90.0,0.0,0.0
2591,65.0,48.0,15.0,0.0,0.0
2592,49.0,24.0,40.0,0.0,0.0
2593,70.0,0.0,150.0,0.0,0.0
2594,63.0,0.0,40.0,0.0,0.0
2595,48.0,24.0,20.0,0.0,0.0
2596,46.0,0.0,20.0,0.0,0.0
2597,53.0,0.0,180.0,0.0,0.0
2598,61.0,48.0,40.0,0.0,0.0
2599,41.0,48.0,90.0,0.0,0.0
2600,69.0,0.0,40.0,0.0,0.0
2601,60.0,0.0,40.0,0.0,0.0
2602,70.0,24.0,40.0,0.0,0.0
2603,58.0,48.0,90.0,0.0,0.0
2604,42.0,96.0,180.0,0.0,0.0
2605,72.0,24.0,20.0,0.0,0.0
2606,73.0,0.0,20.0,0.0,0.0
2607,51.0,0.0,90.0,0.0,0.0
2608,72.0,48.0,40.0,0.0,0.0
2609,70.0,0.0,40.0,0.0,0.0
2610,69.0,0.0,180.0,0.0,0.0
2611,53.0,48.0,180.0,0.0,0.0
2612,41.0,0.0,180.0,0.0,0.0
2613,60.0,48.0,40.0,0.0,0.0
2614,61.0,48.0,40.0,0.0,0.0
2615,63.0,0.0,40.0,0.0,0.0
2616,61.0,48.0,40.0,0.0,0.0
2617,60.0,0.0,40.0,0.0,0.0
2618,72.0,48.0,40.0,0.0,0.0
2619,58.0,0.0,40.0,0.0,0.0
2620,73.0,48.0,40.0,0.0,0.0
2621,75.0,48.0,40.0,0.0,0.0
2622,57.0,0.0,40.0,0.0,0.0
2623,58.0,48.0,40.0,0.0,0.0
2624,73.0,0.0,40.0,0.0,0.0
2625,72.0,0.0,40.0,0.0,0.0
2626,53.0,48.0,40.0,0.0,0.0
2627,70.0,0.0,40.0,0.0,0.0
2628,58.0,48.0,40.0,0.0,0.0
2629,60.0,48.0,40.0,0.0,0.0
2630,69.0,0.0,40.0,0.0,0.0
2631,46.0,0.0,180.0,0.0,0.0
2632,61.0,48.0,40.0,0.0,0.0
2633,60.0,48.0,40.0,0.0,0.0
2634,58.0,48.0,40.0,0.0,0.0
2635,61.0,0.0,40.0,0.0,0.0
2636,70.0,48.0,15.0,0.0,0.0
2637,60.0,48.0,40.0,0.0,0.0
2638,53.0,0.0,40.0,0.0,0.0
2639,69.0,48.0,40.0,0.0,0.0
2640,60.0,0.0,40.0,0.0,0.0
2641,61.0,48.0,40.0,0.0,0.0
2642,70.0,0.0,40.0,0.0,0.0
2643,54.0,0.0,180.0,0.0,0.0
2644,63.0,24.0,40.0,0.0,0.0
2645,61.0,24.0,20.0,0.0,0.0
2646,60.0,0.0,20.0,0.0,0.0
2647,61.0,48.0,40.0,0.0,0.0
2648,51.0,48.0,90.0,0.0,0.0
2649,63.0,0.0,40.0,0.0,0.0
2650,65.0,48.0,40.0,0.0,0.0
2651,72.0,0.0,15.0,0.0,0.0
2652,53.0,0.0,180.0,0.0,0.0
2653,49.0,0.0,390.0,0.0,0.0
2654,63.0,48.0,40.0,0.0,0.0
2655,61.0,0.0,40.0,0.0,0.0
2656,70.0,48.0,40.0,0.0,0.0
2657,72.0,0.0,40.0,0.0,0.0
2658,63.0,48.0,40.0,0.0,0.0
2659,56.0,48.0,180.0,0.0,0.0
2660,73.0,48.0,40.0,0.0,0.0
2661,65.0,0.0,180.0,0.0,0.0
2662,75.0,48.0,40.0,0.0,0.0
2663,77.0,48.0,40.0,0.0,0.0
2664,73.0,0.0,40.0,0.0,0.0
2665,51.0,0.0,390.0,0.0,0.0
2666,55.0,0.0,150.0,0.0,0.0
2667,65.0,24.0,40.0,0.0,0.0
2668,70.0,0.0,90.0,0.0,0.0
2669,63.0,24.0,20.0,0.0,0.0
2670,62.0,48.0,20.0,0.0,0.0
2671,63.0,0.0,40.0,0.0,0.0
2672,72.0,48.0,40.0,0.0,0.0
2673,65.0,0.0,40.0,0.0,0.0
2674,57.0,48.0,40.0,0.0,0.0
2675,74.0,0.0,40.0,0.0,0.0
2676,75.0,48.0,40.0,0.0,0.0
2677,77.0,48.0,40.0,0.0,0.0
2678,78.0,48.0,40.0,0.0,0.0
2679,75.0,48.0,40.0,0.0,0.0
2680,66.0,0.0,15.0,0.0,0.0
2681,58.0,0.0,15.0,0.0,0.0
2682,53.0,0.0,390.0,0.0,0.0
2683,72.0,0.0,90.0,0.0,0.0
2684,65.0,48.0,40.0,0.0,0.0
2685,63.0,24.0,40.0,0.0,0.0
2686,57.0,24.0,20.0,0.0,0.0
2687,61.0,0.0,40.0,0.0,0.0
2688,55.0,48.0,20.0,0.0,0.0
2689,60.0,48.0,40.0,0.0,0.0
2690,57.0,48.0,180.0,0.0,0.0
2691,58.0,48.0,40.0,0.0,0.0
2692,60.0,48.0,40.0,0.0,0.0
2693,63.0,0.0,40.0,0.0,0.0
2694,58.0,48.0,40.0,0.0,0.0
2695,61.0,48.0,90.0,0.0,0.0
2696,46.0,0.0,90.0,0.0,0.0
2697,60.0,0.0,40.0,0.0,0.0
2698,58.0,48.0,40.0,0.0,0.0
2699,56.0,48.0,40.0,0.0,0.0
2700,55.0,48.0,40.0,0.0,0.0
2701,53.0,48.0,40.0,0.0,0.0
2702,55.0,48.0,40.0,0.0,0.0
2703,58.0,0.0,40.0,0.0,0.0
