,note,step,duration,channel,velocity
0,85.0,0.0,30.0,3.0,0.0
1,73.0,15.0,30.0,3.0,0.0
2,85.0,0.0,30.0,0.0,0.0
3,73.0,0.0,30.0,0.0,0.0
4,85.0,30.0,30.0,2.0,0.0
5,73.0,0.0,30.0,2.0,0.0
6,73.0,0.0,30.0,1.0,0.0
7,85.0,0.0,30.0,1.0,0.0
8,83.0,5.0,30.0,3.0,0.0
9,71.0,0.0,30.0,3.0,0.0
10,71.0,10.0,30.0,0.0,0.0
11,83.0,0.0,30.0,0.0,0.0
12,71.0,10.0,30.0,1.0,0.0
13,83.0,845.0,30.0,1.0,0.0
14,73.0,15.0,840.0,3.0,0.0
15,85.0,0.0,840.0,3.0,0.0
16,85.0,0.0,840.0,0.0,0.0
17,73.0,0.0,840.0,0.0,0.0
18,85.0,0.0,840.0,1.0,0.0
19,73.0,30.0,840.0,1.0,0.0
20,83.0,0.0,30.0,3.0,0.0
21,71.0,10.0,30.0,3.0,0.0
22,71.0,0.0,30.0,0.0,0.0
23,83.0,5.0,30.0,0.0,0.0
24,71.0,10.0,30.0,1.0,0.0
25,83.0,20.0,30.0,1.0,0.0
26,69.0,10.0,30.0,0.0,0.0
27,69.0,0.0,30.0,3.0,0.0
28,81.0,0.0,30.0,3.0,0.0
29,81.0,5.0,30.0,0.0,0.0
30,69.0,10.0,30.0,1.0,0.0
31,81.0,20.0,30.0,1.0,0.0
32,68.0,10.0,30.0,3.0,0.0
33,80.0,5.0,30.0,3.0,0.0
34,80.0,0.0,30.0,0.0,0.0
35,68.0,0.0,30.0,0.0,0.0
36,68.0,10.0,30.0,1.0,0.0
37,80.0,20.0,30.0,1.0,0.0
38,66.0,10.0,30.0,3.0,0.0
39,66.0,0.0,30.0,0.0,0.0
40,78.0,5.0,30.0,0.0,0.0
41,78.0,0.0,30.0,3.0,0.0
42,78.0,515.0,30.0,1.0,0.0
43,66.0,10.0,30.0,1.0,0.0
44,77.0,0.0,540.0,3.0,0.0
45,65.0,0.0,540.0,3.0,0.0
46,65.0,15.0,540.0,0.0,0.0
47,77.0,0.0,540.0,0.0,0.0
48,65.0,315.0,540.0,1.0,0.0
49,77.0,0.0,540.0,1.0,0.0
50,66.0,0.0,300.0,3.0,0.0
51,78.0,0.0,300.0,0.0,0.0
52,66.0,0.0,300.0,0.0,0.0
53,78.0,15.0,300.0,3.0,0.0
54,66.0,0.0,300.0,1.0,0.0
55,78.0,900.0,300.0,1.0,0.0
56,73.0,15.0,30.0,0.0,0.0
57,73.0,0.0,30.0,3.0,0.0
58,61.0,0.0,30.0,3.0,0.0
59,61.0,0.0,30.0,0.0,0.0
60,73.0,0.0,30.0,1.0,0.0
61,73.0,0.0,30.0,2.0,0.0
62,61.0,0.0,30.0,1.0,0.0
63,61.0,30.0,30.0,2.0,0.0
64,71.0,0.0,30.0,3.0,0.0
65,59.0,0.0,30.0,3.0,0.0
66,59.0,10.0,30.0,0.0,0.0
67,71.0,5.0,30.0,0.0,0.0
68,59.0,10.0,30.0,2.0,0.0
69,71.0,0.0,30.0,2.0,0.0
70,71.0,785.0,30.0,1.0,0.0
71,59.0,0.0,30.0,1.0,0.0
72,73.0,0.0,780.0,0.0,0.0
73,73.0,0.0,780.0,3.0,0.0
74,61.0,0.0,780.0,0.0,0.0
75,61.0,15.0,780.0,3.0,0.0
76,73.0,0.0,780.0,1.0,0.0
77,73.0,0.0,780.0,2.0,0.0
78,61.0,0.0,780.0,2.0,0.0
79,61.0,225.0,780.0,1.0,0.0
80,56.0,15.0,180.0,3.0,0.0
81,68.0,0.0,180.0,3.0,0.0
82,56.0,0.0,180.0,0.0,0.0
83,68.0,0.0,180.0,0.0,0.0
84,68.0,165.0,180.0,1.0,0.0
85,56.0,0.0,180.0,2.0,0.0
86,56.0,0.0,180.0,1.0,0.0
87,68.0,0.0,180.0,2.0,0.0
88,57.0,0.0,180.0,3.0,0.0
89,69.0,15.0,180.0,3.0,0.0
90,57.0,0.0,180.0,0.0,0.0
91,69.0,0.0,180.0,0.0,0.0
92,69.0,165.0,180.0,2.0,0.0
93,57.0,0.0,180.0,2.0,0.0
94,69.0,0.0,180.0,1.0,0.0
95,57.0,0.0,180.0,1.0,0.0
96,53.0,0.0,180.0,0.0,0.0
97,65.0,0.0,180.0,0.0,0.0
98,53.0,0.0,180.0,3.0,0.0
99,65.0,15.0,180.0,3.0,0.0
100,65.0,0.0,180.0,1.0,0.0
101,53.0,0.0,180.0,1.0,0.0
102,53.0,0.0,180.0,2.0,0.0
103,65.0,360.0,180.0,2.0,0.0
104,66.0,0.0,360.0,3.0,0.0
105,54.0,0.0,360.0,3.0,0.0
106,54.0,15.0,360.0,0.0,0.0
107,66.0,0.0,360.0,0.0,0.0
108,54.0,1035.0,360.0,2.0,0.0
109,66.0,0.0,360.0,2.0,0.0
110,54.0,0.0,360.0,1.0,0.0
111,66.0,0.0,360.0,1.0,0.0
112,49.0,0.0,30.0,3.0,0.0
113,61.0,15.0,30.0,3.0,0.0
114,61.0,0.0,30.0,0.0,0.0
115,49.0,0.0,30.0,0.0,0.0
116,61.0,0.0,30.0,2.0,0.0
117,49.0,0.0,30.0,2.0,0.0
118,61.0,0.0,30.0,1.0,0.0
119,49.0,30.0,30.0,1.0,0.0
120,47.0,0.0,30.0,3.0,0.0
121,59.0,5.0,30.0,0.0,0.0
122,47.0,10.0,30.0,0.0,0.0
123,59.0,0.0,30.0,3.0,0.0
124,47.0,0.0,30.0,2.0,0.0
125,59.0,845.0,30.0,2.0,0.0
126,47.0,10.0,30.0,1.0,0.0
127,59.0,0.0,30.0,1.0,0.0
128,61.0,0.0,840.0,0.0,0.0
129,49.0,15.0,840.0,0.0,0.0
130,61.0,0.0,840.0,3.0,0.0
131,49.0,0.0,840.0,3.0,0.0
132,49.0,30.0,840.0,1.0,0.0
133,49.0,0.0,840.0,2.0,0.0
134,61.0,0.0,840.0,2.0,0.0
135,61.0,0.0,840.0,1.0,0.0
136,59.0,5.0,30.0,0.0,0.0
137,47.0,10.0,30.0,0.0,0.0
138,47.0,0.0,30.0,3.0,0.0
139,59.0,0.0,30.0,3.0,0.0
140,59.0,20.0,30.0,1.0,0.0
141,59.0,0.0,30.0,2.0,0.0
142,47.0,0.0,30.0,2.0,0.0
143,47.0,10.0,30.0,1.0,0.0
144,57.0,5.0,30.0,0.0,0.0
145,45.0,10.0,30.0,0.0,0.0
146,57.0,0.0,30.0,3.0,0.0
147,45.0,0.0,30.0,3.0,0.0
148,45.0,10.0,30.0,2.0,0.0
149,57.0,0.0,30.0,2.0,0.0
150,57.0,20.0,30.0,1.0,0.0
151,45.0,0.0,30.0,1.0,0.0
152,56.0,0.0,30.0,3.0,0.0
153,44.0,0.0,30.0,3.0,0.0
154,44.0,10.0,30.0,0.0,0.0
155,56.0,5.0,30.0,0.0,0.0
156,44.0,0.0,30.0,1.0,0.0
157,56.0,0.0,30.0,1.0,0.0
158,56.0,20.0,30.0,2.0,0.0
159,44.0,10.0,30.0,2.0,0.0
160,54.0,5.0,30.0,3.0,0.0
161,42.0,10.0,30.0,0.0,0.0
162,42.0,0.0,30.0,3.0,0.0
163,54.0,0.0,30.0,0.0,0.0
164,42.0,0.0,30.0,1.0,0.0
165,54.0,0.0,30.0,1.0,0.0
166,54.0,515.0,30.0,2.0,0.0
167,42.0,10.0,30.0,2.0,0.0
168,53.0,0.0,540.0,0.0,0.0
169,41.0,15.0,540.0,0.0,0.0
170,53.0,0.0,540.0,3.0,0.0
171,41.0,0.0,540.0,3.0,0.0
172,53.0,0.0,540.0,2.0,0.0
173,53.0,0.0,540.0,1.0,0.0
174,41.0,315.0,540.0,2.0,0.0
175,41.0,0.0,540.0,1.0,0.0
176,42.0,0.0,300.0,0.0,0.0
177,42.0,0.0,300.0,3.0,0.0
178,54.0,0.0,300.0,3.0,0.0
179,54.0,15.0,300.0,0.0,0.0
180,54.0,4635.0,300.0,2.0,0.0
181,42.0,0.0,300.0,1.0,0.0
182,54.0,0.0,300.0,1.0,0.0
183,42.0,0.0,300.0,2.0,0.0
184,42.0,0.0,5760.0,0.0,0.0
185,42.0,15.0,5760.0,3.0,0.0
186,42.0,0.0,5760.0,2.0,0.0
187,42.0,0.0,5760.0,1.0,0.0
188,53.0,0.0,3330.0,3.0,0.0
189,53.0,0.0,3330.0,0.0,0.0
190,53.0,0.0,3330.0,1.0,0.0
191,53.0,15.0,3330.0,2.0,0.0
192,56.0,0.0,2880.0,3.0,0.0
193,56.0,0.0,2880.0,0.0,0.0
194,56.0,0.0,2880.0,2.0,0.0
195,56.0,0.0,2880.0,1.0,0.0
196,59.0,0.0,2310.0,3.0,0.0
197,59.0,15.0,2310.0,0.0,0.0
198,59.0,0.0,2310.0,1.0,0.0
199,59.0,45.0,2310.0,2.0,0.0
200,62.0,15.0,1920.0,0.0,0.0
201,62.0,0.0,1920.0,3.0,0.0
202,62.0,0.0,1920.0,2.0,0.0
203,62.0,0.0,1920.0,1.0,0.0
204,65.0,0.0,1410.0,0.0,0.0
205,65.0,0.0,1410.0,3.0,0.0
206,65.0,0.0,1410.0,1.0,0.0
207,65.0,0.0,1410.0,2.0,0.0
208,68.0,0.0,960.0,3.0,0.0
209,68.0,0.0,960.0,0.0,0.0
210,68.0,450.0,960.0,1.0,0.0
211,68.0,0.0,960.0,2.0,0.0
212,54.0,0.0,1920.0,0.0,0.0
213,61.0,0.0,1920.0,0.0,0.0
214,66.0,0.0,1920.0,3.0,0.0
215,61.0,0.0,1920.0,3.0,0.0
216,54.0,0.0,1920.0,3.0,0.0
217,59.0,15.0,480.0,3.0,0.0
218,66.0,0.0,1920.0,0.0,0.0
219,59.0,0.0,480.0,0.0,0.0
220,66.0,0.0,1920.0,2.0,0.0
221,61.0,945.0,1920.0,2.0,0.0
222,54.0,0.0,1920.0,2.0,0.0
223,59.0,480.0,480.0,1.0,0.0
224,59.0,0.0,480.0,2.0,0.0
225,61.0,0.0,1920.0,1.0,0.0
226,54.0,0.0,1920.0,1.0,0.0
227,66.0,0.0,1920.0,1.0,0.0
228,56.0,15.0,480.0,0.0,0.0
229,56.0,0.0,480.0,3.0,0.0
230,56.0,0.0,480.0,2.0,0.0
231,56.0,930.0,480.0,1.0,0.0
232,58.0,0.0,960.0,0.0,0.0
233,58.0,0.0,960.0,3.0,0.0
234,58.0,0.0,960.0,2.0,0.0
235,58.0,0.0,960.0,1.0,0.0
236,65.0,0.0,60.0,0.0,0.0
237,53.0,15.0,60.0,3.0,0.0
238,65.0,0.0,60.0,3.0,0.0
239,53.0,0.0,60.0,0.0,0.0
240,53.0,45.0,60.0,1.0,0.0
241,65.0,0.0,60.0,1.0,0.0
242,54.0,0.0,60.0,3.0,0.0
243,54.0,15.0,60.0,0.0,0.0
244,66.0,0.0,60.0,0.0,0.0
245,66.0,0.0,60.0,3.0,0.0
246,54.0,0.0,60.0,1.0,0.0
247,66.0,45.0,60.0,1.0,0.0
248,56.0,15.0,60.0,0.0,0.0
249,68.0,0.0,60.0,3.0,0.0
250,56.0,0.0,60.0,3.0,0.0
251,68.0,0.0,60.0,0.0,0.0
252,68.0,45.0,60.0,1.0,0.0
253,56.0,0.0,60.0,1.0,0.0
254,65.0,0.0,60.0,0.0,0.0
255,53.0,15.0,60.0,3.0,0.0
256,65.0,0.0,60.0,3.0,0.0
257,53.0,0.0,60.0,0.0,0.0
258,53.0,45.0,60.0,1.0,0.0
259,65.0,0.0,60.0,1.0,0.0
260,66.0,0.0,60.0,3.0,0.0
261,54.0,0.0,60.0,0.0,0.0
262,66.0,0.0,60.0,0.0,0.0
263,54.0,15.0,60.0,3.0,0.0
264,66.0,0.0,60.0,1.0,0.0
265,54.0,45.0,60.0,1.0,0.0
266,68.0,0.0,60.0,0.0,0.0
267,56.0,0.0,60.0,0.0,0.0
268,56.0,0.0,60.0,3.0,0.0
269,68.0,15.0,60.0,3.0,0.0
270,68.0,0.0,60.0,1.0,0.0
271,56.0,45.0,60.0,1.0,0.0
272,65.0,0.0,60.0,0.0,0.0
273,53.0,15.0,60.0,0.0,0.0
274,65.0,0.0,60.0,3.0,0.0
275,53.0,0.0,60.0,3.0,0.0
276,53.0,0.0,60.0,1.0,0.0
277,65.0,45.0,60.0,1.0,0.0
278,66.0,0.0,60.0,0.0,0.0
279,54.0,0.0,60.0,0.0,0.0
280,66.0,0.0,60.0,3.0,0.0
281,54.0,15.0,60.0,3.0,0.0
282,66.0,0.0,60.0,1.0,0.0
283,54.0,45.0,60.0,1.0,0.0
284,68.0,0.0,60.0,3.0,0.0
285,56.0,15.0,60.0,3.0,0.0
286,68.0,0.0,60.0,0.0,0.0
287,56.0,0.0,60.0,0.0,0.0
288,68.0,0.0,60.0,1.0,0.0
289,56.0,45.0,60.0,1.0,0.0
290,53.0,0.0,60.0,3.0,0.0
291,65.0,0.0,60.0,3.0,0.0
292,53.0,0.0,60.0,0.0,0.0
293,65.0,15.0,60.0,0.0,0.0
294,53.0,0.0,60.0,1.0,0.0
295,65.0,75.0,60.0,1.0,0.0
296,66.0,0.0,60.0,3.0,0.0
297,54.0,0.0,60.0,0.0,0.0
298,66.0,0.0,60.0,0.0,0.0
299,54.0,15.0,60.0,3.0,0.0
300,54.0,0.0,60.0,1.0,0.0
301,66.0,75.0,60.0,1.0,0.0
302,68.0,0.0,60.0,0.0,0.0
303,56.0,15.0,60.0,0.0,0.0
304,68.0,0.0,60.0,3.0,0.0
305,56.0,0.0,60.0,3.0,0.0
306,68.0,0.0,60.0,1.0,0.0
307,56.0,45.0,60.0,1.0,0.0
308,69.0,0.0,60.0,0.0,0.0
309,69.0,0.0,60.0,3.0,0.0
310,57.0,15.0,60.0,3.0,0.0
311,57.0,0.0,60.0,0.0,0.0
312,57.0,0.0,60.0,1.0,0.0
313,69.0,45.0,60.0,1.0,0.0
314,59.0,0.0,60.0,0.0,0.0
315,71.0,0.0,60.0,0.0,0.0
316,59.0,0.0,60.0,3.0,0.0
317,71.0,15.0,60.0,3.0,0.0
318,71.0,45.0,60.0,1.0,0.0
319,59.0,0.0,60.0,1.0,0.0
320,68.0,0.0,60.0,3.0,0.0
321,56.0,0.0,60.0,0.0,0.0
322,68.0,15.0,60.0,0.0,0.0
323,56.0,0.0,60.0,3.0,0.0
324,56.0,45.0,60.0,1.0,0.0
325,68.0,0.0,60.0,1.0,0.0
326,69.0,0.0,60.0,0.0,0.0
327,69.0,0.0,60.0,3.0,0.0
328,57.0,15.0,60.0,3.0,0.0
329,57.0,0.0,60.0,0.0,0.0
330,69.0,45.0,60.0,1.0,0.0
331,57.0,0.0,60.0,1.0,0.0
332,71.0,0.0,60.0,3.0,0.0
333,59.0,0.0,60.0,0.0,0.0
334,71.0,15.0,60.0,0.0,0.0
335,59.0,0.0,60.0,3.0,0.0
336,71.0,45.0,60.0,1.0,0.0
337,59.0,0.0,60.0,1.0,0.0
338,56.0,0.0,60.0,3.0,0.0
339,68.0,0.0,60.0,3.0,0.0
340,56.0,15.0,60.0,0.0,0.0
341,68.0,0.0,60.0,0.0,0.0
342,68.0,45.0,60.0,1.0,0.0
343,56.0,0.0,60.0,1.0,0.0
344,69.0,0.0,60.0,0.0,0.0
345,57.0,0.0,60.0,0.0,0.0
346,69.0,15.0,60.0,3.0,0.0
347,57.0,0.0,60.0,3.0,0.0
348,69.0,45.0,60.0,1.0,0.0
349,57.0,0.0,60.0,1.0,0.0
350,59.0,15.0,60.0,3.0,0.0
351,71.0,0.0,60.0,3.0,0.0
352,59.0,0.0,60.0,0.0,0.0
353,71.0,0.0,60.0,0.0,0.0
354,59.0,45.0,60.0,1.0,0.0
355,71.0,0.0,60.0,1.0,0.0
356,68.0,0.0,60.0,0.0,0.0
357,56.0,15.0,60.0,3.0,0.0
358,68.0,0.0,60.0,3.0,0.0
359,56.0,0.0,60.0,0.0,0.0
360,56.0,0.0,60.0,1.0,0.0
361,68.0,75.0,60.0,1.0,0.0
362,69.0,15.0,60.0,3.0,0.0
363,57.0,0.0,60.0,3.0,0.0
364,69.0,0.0,60.0,0.0,0.0
365,57.0,0.0,60.0,0.0,0.0
366,69.0,75.0,60.0,1.0,0.0
367,57.0,0.0,60.0,1.0,0.0
368,59.0,0.0,60.0,3.0,0.0
369,71.0,0.0,60.0,3.0,0.0
370,71.0,0.0,60.0,0.0,0.0
371,59.0,15.0,60.0,0.0,0.0
372,71.0,0.0,60.0,1.0,0.0
373,59.0,45.0,60.0,1.0,0.0
374,61.0,15.0,60.0,0.0,0.0
375,73.0,0.0,60.0,0.0,0.0
376,73.0,0.0,60.0,3.0,0.0
377,61.0,0.0,60.0,3.0,0.0
378,61.0,45.0,60.0,1.0,0.0
379,73.0,0.0,60.0,1.0,0.0
380,74.0,0.0,60.0,3.0,0.0
381,62.0,15.0,60.0,3.0,0.0
382,74.0,0.0,60.0,0.0,0.0
383,62.0,0.0,60.0,0.0,0.0
384,62.0,0.0,60.0,1.0,0.0
385,74.0,45.0,60.0,1.0,0.0
386,71.0,0.0,60.0,3.0,0.0
387,71.0,0.0,60.0,0.0,0.0
388,59.0,15.0,60.0,3.0,0.0
389,59.0,0.0,60.0,0.0,0.0
390,71.0,45.0,60.0,1.0,0.0
391,59.0,0.0,60.0,1.0,0.0
392,73.0,15.0,60.0,0.0,0.0
393,61.0,0.0,60.0,3.0,0.0
394,73.0,0.0,60.0,3.0,0.0
395,61.0,0.0,60.0,0.0,0.0
396,73.0,0.0,60.0,1.0,0.0
397,61.0,45.0,60.0,1.0,0.0
398,74.0,0.0,60.0,0.0,0.0
399,62.0,15.0,60.0,0.0,0.0
400,62.0,0.0,60.0,3.0,0.0
401,74.0,0.0,60.0,3.0,0.0
402,74.0,0.0,60.0,1.0,0.0
403,62.0,45.0,60.0,1.0,0.0
404,59.0,0.0,60.0,0.0,0.0
405,71.0,15.0,60.0,3.0,0.0
406,59.0,0.0,60.0,3.0,0.0
407,71.0,0.0,60.0,0.0,0.0
408,71.0,45.0,60.0,1.0,0.0
409,59.0,0.0,60.0,1.0,0.0
410,73.0,0.0,60.0,0.0,0.0
411,61.0,0.0,60.0,3.0,0.0
412,73.0,0.0,60.0,3.0,0.0
413,61.0,15.0,60.0,0.0,0.0
414,61.0,0.0,60.0,1.0,0.0
415,73.0,45.0,60.0,1.0,0.0
416,62.0,0.0,60.0,3.0,0.0
417,74.0,15.0,60.0,0.0,0.0
418,62.0,0.0,60.0,0.0,0.0
419,74.0,0.0,60.0,3.0,0.0
420,62.0,0.0,60.0,1.0,0.0
421,74.0,45.0,60.0,1.0,0.0
422,59.0,0.0,60.0,3.0,0.0
423,71.0,15.0,60.0,0.0,0.0
424,59.0,0.0,60.0,0.0,0.0
425,71.0,0.0,60.0,3.0,0.0
426,71.0,165.0,60.0,1.0,0.0
427,59.0,0.0,60.0,1.0,0.0
428,73.0,0.0,180.0,0.0,0.0
429,61.0,15.0,180.0,0.0,0.0
430,61.0,0.0,180.0,3.0,0.0
431,73.0,0.0,180.0,3.0,0.0
432,61.0,1665.0,180.0,1.0,0.0
433,73.0,0.0,180.0,1.0,0.0
434,65.0,0.0,60.0,3.0,0.0
435,77.0,15.0,60.0,3.0,0.0
436,65.0,0.0,60.0,0.0,0.0
437,77.0,0.0,60.0,0.0,0.0
438,77.0,0.0,60.0,1.0,0.0
439,65.0,45.0,60.0,1.0,0.0
440,78.0,0.0,60.0,3.0,0.0
441,78.0,0.0,60.0,0.0,0.0
442,66.0,15.0,60.0,3.0,0.0
443,66.0,0.0,60.0,0.0,0.0
444,78.0,0.0,60.0,1.0,0.0
445,66.0,45.0,60.0,1.0,0.0
446,68.0,0.0,60.0,0.0,0.0
447,80.0,15.0,60.0,0.0,0.0
448,80.0,0.0,60.0,3.0,0.0
449,68.0,0.0,60.0,3.0,0.0
450,68.0,0.0,60.0,1.0,0.0
451,80.0,45.0,60.0,1.0,0.0
452,65.0,0.0,60.0,3.0,0.0
453,77.0,0.0,60.0,3.0,0.0
454,65.0,0.0,60.0,0.0,0.0
455,77.0,15.0,60.0,0.0,0.0
456,65.0,0.0,60.0,1.0,0.0
457,77.0,45.0,60.0,1.0,0.0
458,66.0,0.0,60.0,3.0,0.0
459,78.0,0.0,60.0,3.0,0.0
460,66.0,0.0,60.0,0.0,0.0
461,78.0,15.0,60.0,0.0,0.0
462,78.0,0.0,60.0,1.0,0.0
463,66.0,45.0,60.0,1.0,0.0
464,80.0,15.0,60.0,3.0,0.0
465,68.0,0.0,60.0,3.0,0.0
466,68.0,0.0,60.0,0.0,0.0
467,80.0,0.0,60.0,0.0,0.0
468,68.0,45.0,60.0,1.0,0.0
469,80.0,0.0,60.0,1.0,0.0
470,65.0,0.0,60.0,0.0,0.0
471,77.0,0.0,60.0,0.0,0.0
472,65.0,15.0,60.0,3.0,0.0
473,77.0,0.0,60.0,3.0,0.0
474,77.0,0.0,60.0,1.0,0.0
475,65.0,45.0,60.0,1.0,0.0
476,66.0,0.0,60.0,3.0,0.0
477,66.0,0.0,60.0,0.0,0.0
478,78.0,15.0,60.0,0.0,0.0
479,78.0,0.0,60.0,3.0,0.0
480,66.0,0.0,60.0,1.0,0.0
481,78.0,45.0,60.0,1.0,0.0
482,80.0,15.0,60.0,3.0,0.0
483,68.0,0.0,60.0,3.0,0.0
484,80.0,0.0,60.0,0.0,0.0
485,68.0,0.0,60.0,0.0,0.0
486,68.0,0.0,60.0,1.0,0.0
487,80.0,45.0,60.0,1.0,0.0
488,65.0,0.0,60.0,3.0,0.0
489,77.0,0.0,60.0,3.0,0.0
490,65.0,0.0,60.0,0.0,0.0
491,77.0,15.0,60.0,0.0,0.0
492,77.0,75.0,60.0,1.0,0.0
493,65.0,0.0,60.0,1.0,0.0
494,78.0,15.0,60.0,3.0,0.0
495,66.0,0.0,60.0,3.0,0.0
496,66.0,0.0,60.0,0.0,0.0
497,78.0,0.0,60.0,0.0,0.0
498,78.0,75.0,60.0,1.0,0.0
499,66.0,0.0,60.0,1.0,0.0
500,68.0,0.0,60.0,3.0,0.0
501,80.0,0.0,60.0,3.0,0.0
502,68.0,0.0,60.0,0.0,0.0
503,80.0,15.0,60.0,0.0,0.0
504,80.0,0.0,60.0,1.0,0.0
505,68.0,45.0,60.0,1.0,0.0
506,81.0,15.0,60.0,0.0,0.0
507,69.0,0.0,60.0,0.0,0.0
508,69.0,0.0,60.0,3.0,0.0
509,81.0,0.0,60.0,3.0,0.0
510,81.0,0.0,60.0,1.0,0.0
511,69.0,45.0,60.0,1.0,0.0
512,71.0,0.0,60.0,0.0,0.0
513,71.0,15.0,60.0,3.0,0.0
514,83.0,0.0,60.0,3.0,0.0
515,83.0,0.0,60.0,0.0,0.0
516,83.0,45.0,60.0,1.0,0.0
517,71.0,0.0,60.0,1.0,0.0
518,68.0,0.0,60.0,0.0,0.0
519,80.0,0.0,60.0,0.0,0.0
520,80.0,0.0,60.0,3.0,0.0
521,68.0,15.0,60.0,3.0,0.0
522,80.0,45.0,60.0,1.0,0.0
523,68.0,0.0,60.0,1.0,0.0
524,81.0,0.0,60.0,3.0,0.0
525,69.0,0.0,60.0,3.0,0.0
526,69.0,0.0,60.0,0.0,0.0
527,81.0,15.0,60.0,0.0,0.0
528,69.0,45.0,60.0,1.0,0.0
529,81.0,0.0,60.0,1.0,0.0
530,83.0,0.0,60.0,0.0,0.0
531,83.0,0.0,60.0,3.0,0.0
532,71.0,0.0,60.0,0.0,0.0
533,71.0,15.0,60.0,3.0,0.0
534,83.0,0.0,60.0,1.0,0.0
535,71.0,45.0,60.0,1.0,0.0
536,68.0,0.0,60.0,0.0,0.0
537,80.0,0.0,60.0,0.0,0.0
538,80.0,15.0,60.0,3.0,0.0
539,68.0,0.0,60.0,3.0,0.0
540,80.0,45.0,60.0,1.0,0.0
541,68.0,0.0,60.0,1.0,0.0
542,69.0,0.0,60.0,3.0,0.0
543,81.0,15.0,60.0,3.0,0.0
544,69.0,0.0,60.0,0.0,0.0
545,81.0,0.0,60.0,0.0,0.0
546,81.0,0.0,60.0,1.0,0.0
547,69.0,45.0,60.0,1.0,0.0
548,83.0,0.0,60.0,3.0,0.0
549,71.0,0.0,60.0,0.0,0.0
550,83.0,0.0,60.0,0.0,0.0
551,71.0,15.0,60.0,3.0,0.0
552,71.0,45.0,60.0,1.0,0.0
553,83.0,0.0,60.0,1.0,0.0
554,68.0,15.0,60.0,0.0,0.0
555,68.0,0.0,60.0,3.0,0.0
556,80.0,0.0,60.0,3.0,0.0
557,80.0,0.0,60.0,0.0,0.0
558,80.0,0.0,60.0,1.0,0.0
559,68.0,75.0,60.0,1.0,0.0
560,81.0,0.0,60.0,3.0,0.0
561,69.0,0.0,60.0,3.0,0.0
562,69.0,0.0,60.0,0.0,0.0
563,81.0,15.0,60.0,0.0,0.0
564,81.0,0.0,60.0,1.0,0.0
565,69.0,75.0,60.0,1.0,0.0
566,83.0,0.0,60.0,3.0,0.0
567,83.0,15.0,60.0,0.0,0.0
568,71.0,0.0,60.0,0.0,0.0
569,71.0,0.0,60.0,3.0,0.0
570,83.0,45.0,60.0,1.0,0.0
571,71.0,0.0,60.0,1.0,0.0
572,85.0,15.0,60.0,3.0,0.0
573,73.0,0.0,60.0,3.0,0.0
574,73.0,0.0,60.0,0.0,0.0
575,85.0,0.0,60.0,0.0,0.0
576,85.0,45.0,60.0,1.0,0.0
577,73.0,0.0,60.0,1.0,0.0
578,74.0,15.0,60.0,3.0,0.0
579,86.0,0.0,60.0,3.0,0.0
580,86.0,0.0,60.0,0.0,0.0
581,74.0,0.0,60.0,0.0,0.0
582,86.0,0.0,60.0,1.0,0.0
583,74.0,45.0,60.0,1.0,0.0
584,71.0,0.0,60.0,3.0,0.0
585,83.0,15.0,60.0,3.0,0.0
586,83.0,0.0,60.0,0.0,0.0
587,71.0,0.0,60.0,0.0,0.0
588,83.0,0.0,60.0,1.0,0.0
589,71.0,45.0,60.0,1.0,0.0
590,85.0,15.0,60.0,0.0,0.0
591,73.0,0.0,60.0,3.0,0.0
592,73.0,0.0,60.0,0.0,0.0
593,85.0,0.0,60.0,3.0,0.0
594,73.0,0.0,60.0,1.0,0.0
595,85.0,45.0,60.0,1.0,0.0
596,86.0,0.0,60.0,0.0,0.0
597,74.0,0.0,60.0,3.0,0.0
598,86.0,15.0,60.0,3.0,0.0
599,74.0,0.0,60.0,0.0,0.0
600,74.0,45.0,60.0,1.0,0.0
601,86.0,0.0,60.0,1.0,0.0
602,71.0,0.0,60.0,0.0,0.0
603,83.0,0.0,60.0,0.0,0.0
604,71.0,15.0,60.0,3.0,0.0
605,83.0,0.0,60.0,3.0,0.0
606,83.0,0.0,60.0,1.0,0.0
607,71.0,45.0,60.0,1.0,0.0
608,73.0,0.0,60.0,3.0,0.0
609,85.0,15.0,60.0,3.0,0.0
610,73.0,0.0,60.0,0.0,0.0
611,85.0,0.0,60.0,0.0,0.0
612,85.0,0.0,60.0,1.0,0.0
613,73.0,45.0,60.0,1.0,0.0
614,74.0,0.0,60.0,0.0,0.0
615,74.0,0.0,60.0,3.0,0.0
616,86.0,0.0,60.0,0.0,0.0
617,86.0,15.0,60.0,3.0,0.0
618,74.0,45.0,60.0,1.0,0.0
619,86.0,0.0,60.0,1.0,0.0
620,71.0,0.0,60.0,3.0,0.0
621,83.0,0.0,60.0,3.0,0.0
622,71.0,0.0,60.0,0.0,0.0
623,83.0,15.0,60.0,0.0,0.0
624,83.0,0.0,60.0,1.0,0.0
625,71.0,165.0,60.0,1.0,0.0
626,85.0,0.0,180.0,0.0,0.0
627,73.0,0.0,180.0,0.0,0.0
628,73.0,0.0,180.0,3.0,0.0
629,85.0,15.0,180.0,3.0,0.0
630,85.0,0.0,180.0,1.0,0.0
631,73.0,1185.0,180.0,1.0,0.0
632,73.0,0.0,60.0,0.0,0.0
633,85.0,0.0,60.0,3.0,0.0
634,85.0,15.0,60.0,0.0,0.0
635,73.0,0.0,60.0,3.0,0.0
636,85.0,0.0,60.0,1.0,0.0
637,73.0,45.0,60.0,1.0,0.0
638,83.0,0.0,60.0,3.0,0.0
639,71.0,15.0,60.0,3.0,0.0
640,83.0,0.0,60.0,0.0,0.0
641,71.0,0.0,60.0,0.0,0.0
642,83.0,45.0,60.0,1.0,0.0
643,71.0,0.0,60.0,1.0,0.0
644,86.0,15.0,60.0,3.0,0.0
645,74.0,0.0,60.0,3.0,0.0
646,86.0,0.0,60.0,0.0,0.0
647,74.0,0.0,60.0,0.0,0.0
648,74.0,45.0,60.0,1.0,0.0
649,86.0,0.0,60.0,1.0,0.0
650,68.0,0.0,60.0,0.0,0.0
651,68.0,0.0,60.0,3.0,0.0
652,80.0,15.0,60.0,3.0,0.0
653,80.0,0.0,60.0,0.0,0.0
654,68.0,0.0,60.0,1.0,0.0
655,80.0,45.0,60.0,1.0,0.0
656,71.0,0.0,60.0,0.0,0.0
657,83.0,0.0,60.0,0.0,0.0
658,71.0,0.0,60.0,3.0,0.0
659,83.0,15.0,60.0,3.0,0.0
660,83.0,45.0,60.0,1.0,0.0
661,71.0,0.0,60.0,1.0,0.0
662,86.0,0.0,60.0,3.0,0.0
663,86.0,0.0,60.0,0.0,0.0
664,74.0,15.0,60.0,0.0,0.0
665,74.0,0.0,60.0,3.0,0.0
666,74.0,45.0,60.0,1.0,0.0
667,86.0,0.0,60.0,1.0,0.0
668,80.0,0.0,60.0,0.0,0.0
669,68.0,15.0,60.0,0.0,0.0
670,80.0,0.0,60.0,3.0,0.0
671,68.0,0.0,60.0,3.0,0.0
672,80.0,0.0,60.0,1.0,0.0
673,68.0,45.0,60.0,1.0,0.0
674,81.0,0.0,60.0,0.0,0.0
675,69.0,15.0,60.0,3.0,0.0
676,81.0,0.0,60.0,3.0,0.0
677,69.0,0.0,60.0,0.0,0.0
678,81.0,0.0,60.0,1.0,0.0
679,69.0,45.0,60.0,1.0,0.0
680,73.0,0.0,60.0,3.0,0.0
681,85.0,0.0,60.0,3.0,0.0
682,73.0,15.0,60.0,0.0,0.0
683,85.0,0.0,60.0,0.0,0.0
684,73.0,45.0,60.0,1.0,0.0
685,85.0,0.0,60.0,1.0,0.0
686,78.0,0.0,60.0,0.0,0.0
687,66.0,0.0,60.0,0.0,0.0
688,66.0,0.0,60.0,3.0,0.0
689,78.0,15.0,60.0,3.0,0.0
690,78.0,0.0,60.0,1.0,0.0
691,66.0,45.0,60.0,1.0,0.0
692,81.0,15.0,60.0,0.0,0.0
693,69.0,0.0,60.0,0.0,0.0
694,81.0,0.0,60.0,3.0,0.0
695,69.0,0.0,60.0,3.0,0.0
696,69.0,45.0,60.0,1.0,0.0
697,81.0,0.0,60.0,1.0,0.0
698,85.0,0.0,60.0,0.0,0.0
699,73.0,15.0,60.0,0.0,0.0
700,73.0,0.0,60.0,3.0,0.0
701,85.0,0.0,60.0,3.0,0.0
702,85.0,0.0,60.0,1.0,0.0
703,73.0,45.0,60.0,1.0,0.0
704,78.0,0.0,60.0,0.0,0.0
705,66.0,0.0,60.0,3.0,0.0
706,78.0,15.0,60.0,3.0,0.0
707,66.0,0.0,60.0,0.0,0.0
708,78.0,45.0,60.0,1.0,0.0
709,66.0,0.0,60.0,1.0,0.0
710,68.0,0.0,60.0,3.0,0.0
711,80.0,0.0,60.0,3.0,0.0
712,68.0,15.0,60.0,0.0,0.0
713,80.0,0.0,60.0,0.0,0.0
714,80.0,0.0,60.0,1.0,0.0
715,68.0,45.0,60.0,1.0,0.0
716,71.0,0.0,60.0,3.0,0.0
717,83.0,0.0,60.0,3.0,0.0
718,83.0,15.0,60.0,0.0,0.0
719,71.0,0.0,60.0,0.0,0.0
720,83.0,45.0,60.0,1.0,0.0
721,71.0,0.0,60.0,1.0,0.0
722,64.0,15.0,60.0,0.0,0.0
723,76.0,0.0,60.0,0.0,0.0
724,64.0,0.0,60.0,3.0,0.0
725,76.0,0.0,60.0,3.0,0.0
726,64.0,45.0,60.0,1.0,0.0
727,76.0,0.0,60.0,1.0,0.0
728,80.0,0.0,60.0,0.0,0.0
729,68.0,0.0,60.0,0.0,0.0
730,68.0,0.0,60.0,3.0,0.0
731,80.0,15.0,60.0,3.0,0.0
732,68.0,0.0,60.0,1.0,0.0
733,80.0,45.0,60.0,1.0,0.0
734,71.0,0.0,60.0,0.0,0.0
735,83.0,0.0,60.0,0.0,0.0
736,71.0,0.0,60.0,3.0,0.0
737,83.0,15.0,60.0,3.0,0.0
738,71.0,45.0,60.0,1.0,0.0
739,83.0,0.0,60.0,1.0,0.0
740,64.0,0.0,60.0,3.0,0.0
741,64.0,0.0,60.0,0.0,0.0
742,76.0,0.0,60.0,0.0,0.0
743,76.0,15.0,60.0,3.0,0.0
744,64.0,0.0,60.0,1.0,0.0
745,76.0,45.0,60.0,1.0,0.0
746,78.0,0.0,60.0,3.0,0.0
747,78.0,15.0,60.0,0.0,0.0
748,66.0,0.0,60.0,3.0,0.0
749,66.0,0.0,60.0,0.0,0.0
750,78.0,0.0,60.0,1.0,0.0
751,66.0,45.0,60.0,1.0,0.0
752,69.0,0.0,60.0,3.0,0.0
753,81.0,15.0,60.0,3.0,0.0
754,81.0,0.0,60.0,0.0,0.0
755,69.0,0.0,60.0,0.0,0.0
756,81.0,0.0,60.0,1.0,0.0
757,69.0,45.0,60.0,1.0,0.0
758,74.0,0.0,60.0,3.0,0.0
759,62.0,15.0,60.0,3.0,0.0
760,74.0,0.0,60.0,0.0,0.0
761,62.0,0.0,60.0,0.0,0.0
762,74.0,45.0,60.0,1.0,0.0
763,62.0,0.0,60.0,1.0,0.0
764,78.0,15.0,60.0,3.0,0.0
765,66.0,0.0,60.0,3.0,0.0
766,66.0,0.0,60.0,0.0,0.0
767,78.0,0.0,60.0,0.0,0.0
768,78.0,45.0,60.0,1.0,0.0
769,66.0,0.0,60.0,1.0,0.0
770,81.0,0.0,60.0,0.0,0.0
771,69.0,0.0,60.0,3.0,0.0
772,81.0,15.0,60.0,3.0,0.0
773,69.0,0.0,60.0,0.0,0.0
774,69.0,45.0,60.0,1.0,0.0
775,81.0,0.0,60.0,1.0,0.0
776,62.0,0.0,60.0,3.0,0.0
777,74.0,0.0,60.0,3.0,0.0
778,74.0,0.0,60.0,0.0,0.0
779,62.0,15.0,60.0,0.0,0.0
780,62.0,0.0,60.0,1.0,0.0
781,74.0,45.0,60.0,1.0,0.0
782,64.0,15.0,60.0,0.0,0.0
783,76.0,0.0,60.0,0.0,0.0
784,76.0,0.0,60.0,3.0,0.0
785,64.0,0.0,60.0,3.0,0.0
786,64.0,45.0,60.0,1.0,0.0
787,76.0,0.0,60.0,1.0,0.0
788,80.0,0.0,60.0,3.0,0.0
789,68.0,0.0,60.0,3.0,0.0
790,68.0,0.0,60.0,0.0,0.0
791,80.0,15.0,60.0,0.0,0.0
792,80.0,45.0,60.0,1.0,0.0
793,68.0,0.0,60.0,1.0,0.0
794,61.0,0.0,60.0,3.0,0.0
795,73.0,15.0,60.0,3.0,0.0
796,73.0,0.0,60.0,0.0,0.0
797,61.0,0.0,60.0,0.0,0.0
798,73.0,0.0,60.0,1.0,0.0
799,61.0,45.0,60.0,1.0,0.0
800,76.0,0.0,60.0,0.0,0.0
801,64.0,0.0,60.0,0.0,0.0
802,64.0,15.0,60.0,3.0,0.0
803,76.0,0.0,60.0,3.0,0.0
804,76.0,0.0,60.0,1.0,0.0
805,64.0,45.0,60.0,1.0,0.0
806,80.0,15.0,60.0,3.0,0.0
807,80.0,0.0,60.0,0.0,0.0
808,68.0,0.0,60.0,0.0,0.0
809,68.0,0.0,60.0,3.0,0.0
810,80.0,45.0,60.0,1.0,0.0
811,68.0,0.0,60.0,1.0,0.0
812,73.0,0.0,60.0,0.0,0.0
813,61.0,15.0,60.0,0.0,0.0
814,61.0,0.0,60.0,3.0,0.0
815,73.0,0.0,60.0,3.0,0.0
816,61.0,45.0,60.0,1.0,0.0
817,73.0,0.0,60.0,1.0,0.0
818,62.0,0.0,60.0,3.0,0.0
819,74.0,0.0,60.0,3.0,0.0
820,62.0,15.0,60.0,0.0,0.0
821,74.0,0.0,60.0,0.0,0.0
822,62.0,45.0,60.0,1.0,0.0
823,74.0,0.0,60.0,1.0,0.0
824,66.0,0.0,60.0,3.0,0.0
825,78.0,15.0,60.0,3.0,0.0
826,78.0,0.0,60.0,0.0,0.0
827,66.0,0.0,60.0,0.0,0.0
828,78.0,0.0,60.0,1.0,0.0
829,66.0,45.0,60.0,1.0,0.0
830,59.0,0.0,60.0,3.0,0.0
831,59.0,0.0,60.0,0.0,0.0
832,71.0,0.0,60.0,0.0,0.0
833,71.0,15.0,60.0,3.0,0.0
834,59.0,0.0,60.0,1.0,0.0
835,71.0,45.0,60.0,1.0,0.0
836,74.0,0.0,60.0,3.0,0.0
837,62.0,0.0,60.0,3.0,0.0
838,74.0,0.0,60.0,0.0,0.0
839,62.0,15.0,60.0,0.0,0.0
840,74.0,0.0,60.0,1.0,0.0
841,62.0,45.0,60.0,1.0,0.0
842,78.0,15.0,60.0,3.0,0.0
843,66.0,0.0,60.0,3.0,0.0
844,66.0,0.0,60.0,0.0,0.0
845,78.0,0.0,60.0,0.0,0.0
846,78.0,0.0,60.0,1.0,0.0
847,66.0,45.0,60.0,1.0,0.0
848,59.0,0.0,60.0,0.0,0.0
849,71.0,0.0,60.0,0.0,0.0
850,71.0,15.0,60.0,3.0,0.0
851,59.0,0.0,60.0,3.0,0.0
852,59.0,0.0,60.0,1.0,0.0
853,71.0,45.0,60.0,1.0,0.0
854,73.0,0.0,60.0,3.0,0.0
855,61.0,0.0,60.0,0.0,0.0
856,73.0,15.0,60.0,0.0,0.0
857,61.0,0.0,60.0,3.0,0.0
858,61.0,0.0,60.0,1.0,0.0
859,73.0,45.0,60.0,1.0,0.0
860,64.0,15.0,60.0,3.0,0.0
861,76.0,0.0,60.0,3.0,0.0
862,64.0,0.0,60.0,0.0,0.0
863,76.0,0.0,60.0,0.0,0.0
864,76.0,0.0,60.0,1.0,0.0
865,64.0,45.0,60.0,1.0,0.0
866,69.0,0.0,60.0,0.0,0.0
867,69.0,0.0,60.0,3.0,0.0
868,57.0,15.0,60.0,3.0,0.0
869,57.0,0.0,60.0,0.0,0.0
870,69.0,0.0,60.0,1.0,0.0
871,57.0,45.0,60.0,1.0,0.0
872,73.0,0.0,60.0,0.0,0.0
873,73.0,0.0,60.0,3.0,0.0
874,61.0,15.0,60.0,3.0,0.0
875,61.0,0.0,60.0,0.0,0.0
876,73.0,0.0,60.0,1.0,0.0
877,61.0,45.0,60.0,1.0,0.0
878,76.0,0.0,60.0,0.0,0.0
879,64.0,15.0,60.0,0.0,0.0
880,76.0,0.0,60.0,3.0,0.0
881,64.0,0.0,60.0,3.0,0.0
882,64.0,45.0,60.0,1.0,0.0
883,76.0,0.0,60.0,1.0,0.0
884,69.0,15.0,60.0,0.0,0.0
885,57.0,0.0,60.0,3.0,0.0
886,57.0,0.0,60.0,0.0,0.0
887,69.0,0.0,60.0,3.0,0.0
888,57.0,0.0,60.0,1.0,0.0
889,69.0,45.0,60.0,1.0,0.0
890,59.0,15.0,60.0,0.0,0.0
891,71.0,0.0,60.0,3.0,0.0
892,59.0,0.0,60.0,3.0,0.0
893,71.0,0.0,60.0,0.0,0.0
894,59.0,45.0,60.0,1.0,0.0
895,71.0,0.0,60.0,1.0,0.0
896,62.0,15.0,60.0,3.0,0.0
897,74.0,0.0,60.0,3.0,0.0
898,62.0,0.0,60.0,0.0,0.0
899,74.0,0.0,60.0,0.0,0.0
900,62.0,0.0,60.0,1.0,0.0
901,74.0,45.0,60.0,1.0,0.0
902,56.0,0.0,60.0,0.0,0.0
903,56.0,0.0,60.0,3.0,0.0
904,68.0,0.0,60.0,3.0,0.0
905,68.0,15.0,60.0,0.0,0.0
906,68.0,45.0,60.0,1.0,0.0
907,56.0,0.0,60.0,1.0,0.0
908,71.0,0.0,60.0,0.0,0.0
909,59.0,0.0,60.0,3.0,0.0
910,59.0,0.0,60.0,0.0,0.0
911,71.0,15.0,60.0,3.0,0.0
912,71.0,0.0,60.0,1.0,0.0
913,59.0,45.0,60.0,1.0,0.0
914,74.0,0.0,60.0,3.0,0.0
915,62.0,0.0,60.0,0.0,0.0
916,74.0,15.0,60.0,0.0,0.0
917,62.0,0.0,60.0,3.0,0.0
918,74.0,0.0,60.0,1.0,0.0
919,62.0,45.0,60.0,1.0,0.0
920,56.0,0.0,60.0,0.0,0.0
921,68.0,0.0,60.0,3.0,0.0
922,68.0,15.0,60.0,0.0,0.0
923,56.0,0.0,60.0,3.0,0.0
924,68.0,45.0,60.0,1.0,0.0
925,56.0,0.0,60.0,1.0,0.0
926,57.0,15.0,60.0,3.0,0.0
927,57.0,0.0,60.0,0.0,0.0
928,69.0,0.0,60.0,0.0,0.0
929,69.0,0.0,60.0,3.0,0.0
930,57.0,0.0,60.0,1.0,0.0
931,69.0,45.0,60.0,1.0,0.0
932,73.0,0.0,60.0,3.0,0.0
933,73.0,0.0,60.0,0.0,0.0
934,61.0,0.0,60.0,0.0,0.0
935,61.0,15.0,60.0,3.0,0.0
936,61.0,0.0,60.0,1.0,0.0
937,73.0,45.0,60.0,1.0,0.0
938,54.0,0.0,60.0,3.0,0.0
939,66.0,0.0,60.0,3.0,0.0
940,66.0,0.0,60.0,0.0,0.0
941,54.0,15.0,60.0,0.0,0.0
942,66.0,45.0,60.0,1.0,0.0
943,54.0,0.0,60.0,1.0,0.0
944,57.0,0.0,60.0,0.0,0.0
945,69.0,15.0,60.0,0.0,0.0
946,69.0,0.0,60.0,3.0,0.0
947,57.0,0.0,60.0,3.0,0.0
948,69.0,0.0,60.0,1.0,0.0
949,57.0,45.0,60.0,1.0,0.0
950,73.0,0.0,60.0,0.0,0.0
951,73.0,0.0,60.0,3.0,0.0
952,61.0,0.0,60.0,3.0,0.0
953,61.0,15.0,60.0,0.0,0.0
954,61.0,0.0,60.0,1.0,0.0
955,73.0,45.0,60.0,1.0,0.0
956,54.0,0.0,60.0,3.0,0.0
957,66.0,0.0,60.0,3.0,0.0
958,54.0,15.0,60.0,0.0,0.0
959,66.0,0.0,60.0,0.0,0.0
960,54.0,45.0,60.0,1.0,0.0
961,66.0,0.0,60.0,1.0,0.0
962,56.0,0.0,60.0,3.0,0.0
963,68.0,15.0,60.0,3.0,0.0
964,68.0,0.0,60.0,0.0,0.0
965,56.0,0.0,60.0,0.0,0.0
966,56.0,45.0,60.0,1.0,0.0
967,68.0,0.0,60.0,1.0,0.0
968,71.0,15.0,60.0,0.0,0.0
969,59.0,0.0,60.0,0.0,0.0
970,59.0,0.0,60.0,3.0,0.0
971,71.0,0.0,60.0,3.0,0.0
972,59.0,45.0,60.0,1.0,0.0
973,71.0,0.0,60.0,1.0,0.0
974,65.0,15.0,60.0,3.0,0.0
975,53.0,0.0,60.0,3.0,0.0
976,65.0,0.0,60.0,0.0,0.0
977,53.0,0.0,60.0,0.0,0.0
978,53.0,45.0,60.0,1.0,0.0
979,65.0,0.0,60.0,1.0,0.0
980,56.0,0.0,60.0,0.0,0.0
981,68.0,15.0,60.0,0.0,0.0
982,68.0,0.0,60.0,3.0,0.0
983,56.0,0.0,60.0,3.0,0.0
984,68.0,0.0,60.0,1.0,0.0
985,56.0,45.0,60.0,1.0,0.0
986,71.0,0.0,60.0,3.0,0.0
987,59.0,0.0,60.0,3.0,0.0
988,71.0,15.0,60.0,0.0,0.0
989,59.0,0.0,60.0,0.0,0.0
990,71.0,45.0,60.0,1.0,0.0
991,59.0,0.0,60.0,1.0,0.0
992,53.0,0.0,60.0,0.0,0.0
993,65.0,0.0,60.0,0.0,0.0
994,65.0,15.0,60.0,3.0,0.0
995,53.0,0.0,60.0,3.0,0.0
996,53.0,0.0,60.0,1.0,0.0
997,65.0,2145.0,60.0,1.0,0.0
998,42.0,15.0,2130.0,0.0,0.0
999,42.0,0.0,2130.0,3.0,0.0
1000,42.0,0.0,2130.0,2.0,0.0
1001,42.0,0.0,2130.0,1.0,0.0
1002,53.0,0.0,1170.0,3.0,0.0
1003,53.0,0.0,1170.0,0.0,0.0
1004,56.0,0.0,1140.0,3.0,0.0
1005,53.0,0.0,1170.0,2.0,0.0
1006,53.0,0.0,1170.0,1.0,0.0
1007,56.0,0.0,1140.0,0.0,0.0
1008,59.0,0.0,1140.0,3.0,0.0
1009,56.0,45.0,1140.0,1.0,0.0
1010,56.0,0.0,1140.0,2.0,0.0
1011,59.0,0.0,1140.0,0.0,0.0
1012,59.0,0.0,1140.0,1.0,0.0
1013,62.0,0.0,1140.0,3.0,0.0
1014,62.0,0.0,1140.0,0.0,0.0
1015,59.0,0.0,1140.0,2.0,0.0
1016,62.0,0.0,1140.0,2.0,0.0
1017,62.0,0.0,1140.0,1.0,0.0
1018,65.0,0.0,1110.0,3.0,0.0
1019,65.0,0.0,1110.0,0.0,0.0
1020,65.0,0.0,1110.0,2.0,0.0
1021,65.0,0.0,1110.0,1.0,0.0
1022,68.0,0.0,1080.0,0.0,0.0
1023,68.0,0.0,1080.0,1.0,0.0
1024,71.0,0.0,1080.0,0.0,0.0
1025,68.0,0.0,1080.0,2.0,0.0
1026,71.0,0.0,1080.0,1.0,0.0
1027,74.0,15.0,1140.0,0.0,0.0
1028,71.0,0.0,1080.0,2.0,0.0
1029,74.0,30.0,1140.0,1.0,0.0
1030,74.0,0.0,1140.0,2.0,0.0
1031,73.0,15.0,30.0,0.0,0.0
1032,73.0,0.0,30.0,3.0,0.0
1033,73.0,30.0,30.0,2.0,0.0
1034,73.0,0.0,30.0,1.0,0.0
1035,71.0,0.0,30.0,3.0,0.0
1036,71.0,15.0,30.0,0.0,0.0
1037,71.0,0.0,30.0,2.0,0.0
1038,71.0,30.0,30.0,1.0,0.0
1039,69.0,0.0,30.0,0.0,0.0
1040,69.0,15.0,30.0,3.0,0.0
1041,69.0,0.0,30.0,2.0,0.0
1042,69.0,30.0,30.0,1.0,0.0
1043,68.0,15.0,30.0,0.0,0.0
1044,68.0,0.0,30.0,3.0,0.0
1045,68.0,30.0,30.0,1.0,0.0
1046,68.0,0.0,30.0,2.0,0.0
1047,66.0,0.0,30.0,3.0,0.0
1048,66.0,15.0,30.0,0.0,0.0
1049,66.0,75.0,30.0,2.0,0.0
1050,66.0,0.0,30.0,1.0,0.0
1051,65.0,15.0,60.0,3.0,0.0
1052,65.0,0.0,60.0,0.0,0.0
1053,65.0,0.0,60.0,1.0,0.0
1054,65.0,75.0,60.0,2.0,0.0
1055,61.0,15.0,60.0,0.0,0.0
1056,61.0,0.0,60.0,3.0,0.0
1057,61.0,75.0,60.0,1.0,0.0
1058,61.0,0.0,60.0,2.0,0.0
1059,65.0,0.0,60.0,3.0,0.0
1060,65.0,15.0,60.0,0.0,0.0
1061,65.0,0.0,60.0,1.0,0.0
1062,65.0,30.0,60.0,2.0,0.0
1063,68.0,0.0,30.0,0.0,0.0
1064,68.0,15.0,30.0,3.0,0.0
1065,68.0,30.0,30.0,2.0,0.0
1066,68.0,0.0,30.0,1.0,0.0
1067,71.0,0.0,30.0,3.0,0.0
1068,71.0,15.0,30.0,0.0,0.0
1069,71.0,0.0,30.0,2.0,0.0
1070,71.0,15.0,30.0,1.0,0.0
1071,69.0,0.0,15.0,0.0,0.0
1072,69.0,15.0,15.0,3.0,0.0
1073,69.0,15.0,15.0,2.0,0.0
1074,69.0,0.0,15.0,1.0,0.0
1075,71.0,0.0,15.0,3.0,0.0
1076,71.0,15.0,15.0,0.0,0.0
1077,71.0,15.0,15.0,2.0,0.0
1078,71.0,0.0,15.0,1.0,0.0
1079,69.0,0.0,15.0,3.0,0.0
1080,69.0,15.0,15.0,0.0,0.0
1081,69.0,0.0,15.0,2.0,0.0
1082,69.0,15.0,15.0,1.0,0.0
1083,71.0,0.0,15.0,3.0,0.0
1084,71.0,15.0,15.0,0.0,0.0
1085,71.0,0.0,15.0,1.0,0.0
1086,71.0,15.0,15.0,2.0,0.0
1087,69.0,0.0,15.0,0.0,0.0
1088,69.0,15.0,15.0,3.0,0.0
1089,69.0,0.0,15.0,2.0,0.0
1090,69.0,15.0,15.0,1.0,0.0
1091,71.0,15.0,15.0,0.0,0.0
1092,71.0,0.0,15.0,3.0,0.0
1093,71.0,0.0,15.0,2.0,0.0
1094,71.0,15.0,15.0,1.0,0.0
1095,69.0,0.0,15.0,0.0,0.0
1096,69.0,15.0,15.0,3.0,0.0
1097,69.0,15.0,15.0,1.0,0.0
1098,69.0,0.0,15.0,2.0,0.0
1099,71.0,0.0,15.0,3.0,0.0
1100,71.0,15.0,15.0,0.0,0.0
1101,71.0,0.0,15.0,2.0,0.0
1102,71.0,15.0,15.0,1.0,0.0
1103,69.0,15.0,15.0,0.0,0.0
1104,69.0,0.0,15.0,3.0,0.0
1105,69.0,75.0,15.0,1.0,0.0
1106,69.0,0.0,15.0,2.0,0.0
1107,68.0,15.0,60.0,3.0,0.0
1108,68.0,0.0,60.0,0.0,0.0
1109,68.0,450.0,60.0,1.0,0.0
1110,68.0,0.0,60.0,2.0,0.0
1111,42.0,0.0,450.0,0.0,0.0
1112,69.0,0.0,510.0,3.0,0.0
1113,54.0,0.0,450.0,0.0,0.0
1114,57.0,0.0,480.0,0.0,0.0
1115,61.0,15.0,450.0,0.0,0.0
1116,66.0,0.0,480.0,0.0,0.0
1117,69.0,15.0,510.0,0.0,0.0
1118,54.0,0.0,450.0,3.0,0.0
1119,57.0,0.0,480.0,3.0,0.0
1120,42.0,0.0,450.0,3.0,0.0
1121,66.0,15.0,480.0,3.0,0.0
1122,61.0,0.0,450.0,3.0,0.0
1123,69.0,1080.0,510.0,2.0,0.0
1124,66.0,15.0,480.0,2.0,0.0
1125,42.0,0.0,450.0,1.0,0.0
1126,66.0,0.0,480.0,1.0,0.0
1127,69.0,0.0,510.0,1.0,0.0
1128,61.0,0.0,450.0,1.0,0.0
1129,57.0,0.0,480.0,1.0,0.0
1130,61.0,0.0,450.0,2.0,0.0
1131,57.0,0.0,480.0,2.0,0.0
1132,54.0,0.0,450.0,2.0,0.0
1133,42.0,0.0,450.0,2.0,0.0
1134,54.0,15.0,450.0,1.0,0.0
1135,73.0,15.0,60.0,0.0,0.0
1136,73.0,0.0,60.0,3.0,0.0
1137,73.0,0.0,60.0,2.0,0.0
1138,73.0,90.0,60.0,1.0,0.0
1139,78.0,0.0,60.0,0.0,0.0
1140,78.0,15.0,60.0,3.0,0.0
1141,78.0,0.0,60.0,2.0,0.0
1142,78.0,15.0,60.0,1.0,0.0
1143,73.0,15.0,60.0,3.0,0.0
1144,73.0,0.0,60.0,0.0,0.0
1145,73.0,45.0,60.0,2.0,0.0
1146,73.0,0.0,60.0,1.0,0.0
1147,80.0,15.0,60.0,0.0,0.0
1148,80.0,0.0,60.0,3.0,0.0
1149,80.0,0.0,60.0,1.0,0.0
1150,80.0,15.0,60.0,2.0,0.0
1151,73.0,0.0,60.0,3.0,0.0
1152,73.0,15.0,60.0,0.0,0.0
1153,73.0,0.0,60.0,2.0,0.0
1154,73.0,45.0,60.0,1.0,0.0
1155,81.0,15.0,60.0,3.0,0.0
1156,81.0,0.0,60.0,0.0,0.0
1157,81.0,0.0,60.0,2.0,0.0
1158,81.0,15.0,60.0,1.0,0.0
1159,73.0,15.0,60.0,3.0,0.0
1160,73.0,0.0,60.0,0.0,0.0
1161,73.0,45.0,60.0,1.0,0.0
1162,73.0,0.0,60.0,2.0,0.0
1163,78.0,0.0,60.0,0.0,0.0
1164,78.0,15.0,60.0,3.0,0.0
1165,78.0,15.0,60.0,1.0,0.0
1166,78.0,0.0,60.0,2.0,0.0
1167,73.0,0.0,60.0,3.0,0.0
1168,73.0,15.0,60.0,0.0,0.0
1169,73.0,45.0,60.0,2.0,0.0
1170,73.0,0.0,60.0,1.0,0.0
1171,80.0,15.0,60.0,0.0,0.0
1172,80.0,0.0,60.0,3.0,0.0
1173,80.0,0.0,60.0,1.0,0.0
1174,80.0,15.0,60.0,2.0,0.0
1175,73.0,0.0,60.0,0.0,0.0
1176,73.0,15.0,60.0,3.0,0.0
1177,73.0,45.0,60.0,1.0,0.0
1178,73.0,0.0,60.0,2.0,0.0
1179,81.0,0.0,60.0,0.0,0.0
1180,81.0,15.0,60.0,3.0,0.0
1181,81.0,15.0,60.0,1.0,0.0
1182,81.0,0.0,60.0,2.0,0.0
1183,73.0,15.0,60.0,3.0,0.0
1184,73.0,0.0,60.0,0.0,0.0
1185,73.0,0.0,60.0,1.0,0.0
1186,73.0,45.0,60.0,2.0,0.0
1187,83.0,0.0,60.0,0.0,0.0
1188,83.0,15.0,60.0,3.0,0.0
1189,83.0,15.0,60.0,1.0,0.0
1190,83.0,0.0,60.0,2.0,0.0
1191,73.0,0.0,60.0,0.0,0.0
1192,73.0,15.0,60.0,3.0,0.0
1193,73.0,45.0,60.0,1.0,0.0
1194,73.0,0.0,60.0,2.0,0.0
1195,80.0,15.0,60.0,0.0,0.0
1196,80.0,0.0,60.0,3.0,0.0
1197,80.0,15.0,60.0,1.0,0.0
1198,80.0,0.0,60.0,2.0,0.0
1199,73.0,15.0,60.0,0.0,0.0
1200,73.0,0.0,60.0,3.0,0.0
1201,73.0,45.0,60.0,2.0,0.0
1202,73.0,0.0,60.0,1.0,0.0
1203,81.0,15.0,60.0,0.0,0.0
1204,81.0,0.0,60.0,3.0,0.0
1205,81.0,0.0,60.0,2.0,0.0
1206,81.0,15.0,60.0,1.0,0.0
1207,73.0,15.0,60.0,3.0,0.0
1208,73.0,0.0,60.0,0.0,0.0
1209,73.0,0.0,60.0,2.0,0.0
1210,73.0,45.0,60.0,1.0,0.0
1211,83.0,15.0,60.0,3.0,0.0
1212,83.0,0.0,60.0,0.0,0.0
1213,83.0,0.0,60.0,1.0,0.0
1214,83.0,15.0,60.0,2.0,0.0
1215,73.0,0.0,60.0,3.0,0.0
1216,73.0,15.0,60.0,0.0,0.0
1217,73.0,0.0,60.0,2.0,0.0
1218,73.0,45.0,60.0,1.0,0.0
1219,85.0,0.0,60.0,0.0,0.0
1220,85.0,15.0,60.0,3.0,0.0
1221,85.0,15.0,60.0,2.0,0.0
1222,85.0,0.0,60.0,1.0,0.0
1223,73.0,0.0,60.0,3.0,0.0
1224,73.0,15.0,60.0,0.0,0.0
1225,73.0,45.0,60.0,2.0,0.0
1226,73.0,0.0,60.0,1.0,0.0
1227,81.0,0.0,60.0,3.0,0.0
1228,81.0,15.0,60.0,0.0,0.0
1229,81.0,0.0,60.0,1.0,0.0
1230,81.0,15.0,60.0,2.0,0.0
1231,73.0,0.0,60.0,0.0,0.0
1232,73.0,15.0,60.0,3.0,0.0
1233,73.0,45.0,60.0,1.0,0.0
1234,73.0,0.0,60.0,2.0,0.0
1235,83.0,15.0,60.0,3.0,0.0
1236,83.0,0.0,60.0,0.0,0.0
1237,83.0,15.0,60.0,1.0,0.0
1238,83.0,0.0,60.0,2.0,0.0
1239,73.0,15.0,60.0,0.0,0.0
1240,73.0,0.0,60.0,3.0,0.0
1241,73.0,45.0,60.0,1.0,0.0
1242,73.0,0.0,60.0,2.0,0.0
1243,85.0,15.0,60.0,0.0,0.0
1244,85.0,0.0,60.0,3.0,0.0
1245,85.0,15.0,60.0,2.0,0.0
1246,85.0,0.0,60.0,1.0,0.0
1247,73.0,0.0,60.0,0.0,0.0
1248,73.0,15.0,60.0,3.0,0.0
1249,73.0,0.0,60.0,1.0,0.0
1250,73.0,45.0,60.0,2.0,0.0
1251,86.0,15.0,60.0,0.0,0.0
1252,86.0,0.0,60.0,3.0,0.0
1253,86.0,15.0,60.0,2.0,0.0
1254,86.0,0.0,60.0,1.0,0.0
1255,73.0,15.0,60.0,3.0,0.0
1256,73.0,0.0,60.0,0.0,0.0
1257,73.0,45.0,60.0,2.0,0.0
1258,73.0,0.0,60.0,1.0,0.0
1259,83.0,0.0,60.0,0.0,0.0
1260,83.0,15.0,60.0,3.0,0.0
1261,83.0,15.0,60.0,2.0,0.0
1262,83.0,0.0,60.0,1.0,0.0
1263,73.0,0.0,60.0,0.0,0.0
1264,73.0,15.0,60.0,3.0,0.0
1265,73.0,0.0,60.0,1.0,0.0
1266,73.0,45.0,60.0,2.0,0.0
1267,85.0,15.0,60.0,3.0,0.0
1268,85.0,0.0,60.0,0.0,0.0
1269,85.0,15.0,60.0,1.0,0.0
1270,85.0,0.0,60.0,2.0,0.0
1271,73.0,15.0,60.0,0.0,0.0
1272,73.0,0.0,60.0,3.0,0.0
1273,73.0,45.0,60.0,2.0,0.0
1274,73.0,0.0,60.0,1.0,0.0
1275,81.0,15.0,60.0,0.0,0.0
1276,81.0,0.0,60.0,3.0,0.0
1277,81.0,0.0,60.0,2.0,0.0
1278,81.0,15.0,60.0,1.0,0.0
1279,73.0,15.0,60.0,3.0,0.0
1280,73.0,0.0,60.0,0.0,0.0
1281,73.0,45.0,60.0,1.0,0.0
1282,73.0,0.0,60.0,2.0,0.0
1283,83.0,15.0,60.0,0.0,0.0
1284,83.0,0.0,60.0,3.0,0.0
1285,83.0,15.0,60.0,2.0,0.0
1286,83.0,0.0,60.0,1.0,0.0
1287,73.0,15.0,60.0,3.0,0.0
1288,73.0,0.0,60.0,0.0,0.0
1289,73.0,45.0,60.0,2.0,0.0
1290,73.0,0.0,60.0,1.0,0.0
1291,80.0,15.0,60.0,3.0,0.0
1292,80.0,0.0,60.0,0.0,0.0
1293,80.0,0.0,60.0,2.0,0.0
1294,80.0,15.0,60.0,1.0,0.0
1295,73.0,0.0,60.0,0.0,0.0
1296,73.0,15.0,60.0,3.0,0.0
1297,73.0,45.0,60.0,1.0,0.0
1298,73.0,0.0,60.0,2.0,0.0
1299,81.0,15.0,60.0,0.0,0.0
1300,81.0,0.0,60.0,3.0,0.0
1301,81.0,15.0,60.0,2.0,0.0
1302,81.0,0.0,60.0,1.0,0.0
1303,73.0,15.0,60.0,3.0,0.0
1304,73.0,0.0,60.0,0.0,0.0
1305,73.0,0.0,60.0,2.0,0.0
1306,73.0,45.0,60.0,1.0,0.0
1307,78.0,0.0,60.0,3.0,0.0
1308,78.0,15.0,60.0,0.0,0.0
1309,78.0,0.0,60.0,2.0,0.0
1310,78.0,15.0,60.0,1.0,0.0
1311,73.0,0.0,60.0,0.0,0.0
1312,73.0,15.0,60.0,3.0,0.0
1313,73.0,0.0,60.0,2.0,0.0
1314,73.0,45.0,60.0,1.0,0.0
1315,80.0,15.0,60.0,0.0,0.0
1316,80.0,0.0,60.0,3.0,0.0
1317,80.0,15.0,60.0,2.0,0.0
1318,80.0,0.0,60.0,1.0,0.0
1319,73.0,15.0,60.0,3.0,0.0
1320,73.0,0.0,60.0,0.0,0.0
1321,73.0,45.0,60.0,2.0,0.0
1322,73.0,0.0,60.0,1.0,0.0
1323,77.0,0.0,60.0,0.0,0.0
1324,77.0,15.0,60.0,3.0,0.0
1325,77.0,15.0,60.0,1.0,0.0
1326,77.0,0.0,60.0,2.0,0.0
1327,73.0,15.0,60.0,3.0,0.0
1328,73.0,0.0,60.0,0.0,0.0
1329,73.0,45.0,60.0,1.0,0.0
1330,73.0,0.0,60.0,2.0,0.0
1331,78.0,0.0,60.0,0.0,0.0
1332,78.0,15.0,60.0,3.0,0.0
1333,78.0,0.0,60.0,2.0,0.0
1334,78.0,21.0,60.0,1.0,0.0
1335,73.0,15.0,60.0,3.0,0.0
1336,73.0,0.0,60.0,0.0,0.0
1337,73.0,0.0,60.0,1.0,0.0
1338,73.0,66.0,60.0,2.0,0.0
1339,73.0,15.0,60.0,3.0,0.0
1340,73.0,0.0,60.0,0.0,0.0
1341,73.0,49.0,60.0,2.0,0.0
1342,73.0,0.0,60.0,1.0,0.0
1343,74.0,0.0,60.0,3.0,0.0
1344,74.0,15.0,60.0,0.0,0.0
1345,74.0,14.0,60.0,2.0,0.0
1346,74.0,0.0,60.0,1.0,0.0
1347,73.0,15.0,60.0,3.0,0.0
1348,73.0,0.0,60.0,0.0,0.0
1349,73.0,45.0,60.0,2.0,0.0
1350,73.0,0.0,60.0,1.0,0.0
1351,71.0,0.0,60.0,0.0,0.0
1352,71.0,15.0,60.0,3.0,0.0
1353,71.0,165.0,60.0,2.0,0.0
1354,71.0,0.0,60.0,1.0,0.0
1355,73.0,15.0,240.0,3.0,0.0
1356,73.0,0.0,240.0,0.0,0.0
1357,73.0,0.0,240.0,1.0,0.0
1358,73.0,45.0,240.0,2.0,0.0
1359,69.0,0.0,60.0,3.0,0.0
1360,69.0,15.0,60.0,0.0,0.0
1361,69.0,15.0,60.0,2.0,0.0
1362,69.0,0.0,60.0,1.0,0.0
1363,71.0,15.0,60.0,0.0,0.0
1364,71.0,0.0,60.0,3.0,0.0
1365,71.0,15.0,60.0,2.0,0.0
1366,71.0,0.0,60.0,1.0,0.0
1367,73.0,0.0,60.0,3.0,0.0
1368,73.0,15.0,60.0,0.0,0.0
1369,73.0,0.0,60.0,2.0,0.0
1370,73.0,45.0,60.0,1.0,0.0
1371,68.0,15.0,60.0,3.0,0.0
1372,68.0,0.0,60.0,0.0,0.0
1373,68.0,0.0,60.0,2.0,0.0
1374,68.0,15.0,60.0,1.0,0.0
1375,73.0,15.0,60.0,0.0,0.0
1376,73.0,0.0,60.0,3.0,0.0
1377,73.0,0.0,60.0,2.0,0.0
1378,73.0,45.0,60.0,1.0,0.0
1379,69.0,15.0,60.0,3.0,0.0
1380,69.0,0.0,60.0,0.0,0.0
1381,69.0,0.0,60.0,2.0,0.0
1382,69.0,15.0,60.0,1.0,0.0
1383,73.0,15.0,60.0,3.0,0.0
1384,73.0,0.0,60.0,0.0,0.0
1385,73.0,0.0,60.0,1.0,0.0
1386,73.0,45.0,60.0,2.0,0.0
1387,66.0,0.0,60.0,0.0,0.0
1388,66.0,15.0,60.0,3.0,0.0
1389,66.0,15.0,60.0,2.0,0.0
1390,66.0,0.0,60.0,1.0,0.0
1391,73.0,15.0,60.0,3.0,0.0
1392,73.0,0.0,60.0,0.0,0.0
1393,73.0,45.0,60.0,2.0,0.0
1394,73.0,0.0,60.0,1.0,0.0
1395,71.0,0.0,60.0,3.0,0.0
1396,71.0,15.0,60.0,0.0,0.0
1397,71.0,0.0,60.0,1.0,0.0
1398,71.0,15.0,60.0,2.0,0.0
1399,73.0,15.0,60.0,3.0,0.0
1400,73.0,0.0,60.0,0.0,0.0
1401,73.0,45.0,60.0,2.0,0.0
1402,73.0,0.0,60.0,1.0,0.0
1403,68.0,0.0,60.0,0.0,0.0
1404,68.0,15.0,60.0,3.0,0.0
1405,68.0,15.0,60.0,1.0,0.0
1406,68.0,0.0,60.0,2.0,0.0
1407,73.0,0.0,60.0,3.0,0.0
1408,73.0,15.0,60.0,0.0,0.0
1409,73.0,45.0,60.0,2.0,0.0
1410,73.0,0.0,60.0,1.0,0.0
1411,69.0,0.0,60.0,3.0,0.0
1412,69.0,15.0,60.0,0.0,0.0
1413,69.0,15.0,60.0,1.0,0.0
1414,69.0,0.0,60.0,2.0,0.0
1415,73.0,15.0,60.0,3.0,0.0
1416,73.0,0.0,60.0,0.0,0.0
1417,73.0,45.0,60.0,2.0,0.0
1418,73.0,0.0,60.0,1.0,0.0
1419,66.0,15.0,60.0,3.0,0.0
1420,66.0,0.0,60.0,0.0,0.0
1421,66.0,15.0,60.0,2.0,0.0
1422,66.0,0.0,60.0,1.0,0.0
1423,73.0,15.0,60.0,0.0,0.0
1424,73.0,0.0,60.0,3.0,0.0
1425,73.0,45.0,60.0,1.0,0.0
1426,73.0,0.0,60.0,2.0,0.0
1427,68.0,15.0,60.0,0.0,0.0
1428,68.0,0.0,60.0,3.0,0.0
1429,68.0,0.0,60.0,1.0,0.0
1430,68.0,15.0,60.0,2.0,0.0
1431,73.0,0.0,60.0,0.0,0.0
1432,73.0,15.0,60.0,3.0,0.0
1433,73.0,45.0,60.0,1.0,0.0
1434,73.0,0.0,60.0,2.0,0.0
1435,65.0,0.0,60.0,3.0,0.0
1436,65.0,15.0,60.0,0.0,0.0
1437,65.0,0.0,60.0,1.0,0.0
1438,65.0,15.0,60.0,2.0,0.0
1439,73.0,0.0,60.0,0.0,0.0
1440,73.0,15.0,60.0,3.0,0.0
1441,73.0,45.0,60.0,2.0,0.0
1442,73.0,0.0,60.0,1.0,0.0
1443,66.0,0.0,60.0,0.0,0.0
1444,66.0,15.0,60.0,3.0,0.0
1445,66.0,15.0,60.0,2.0,0.0
1446,66.0,0.0,60.0,1.0,0.0
1447,73.0,0.0,60.0,0.0,0.0
1448,73.0,15.0,60.0,3.0,0.0
1449,73.0,0.0,60.0,1.0,0.0
1450,73.0,45.0,60.0,2.0,0.0
1451,61.0,15.0,60.0,0.0,0.0
1452,61.0,0.0,60.0,3.0,0.0
1453,61.0,15.0,60.0,2.0,0.0
1454,61.0,0.0,60.0,1.0,0.0
1455,73.0,0.0,60.0,3.0,0.0
1456,73.0,15.0,60.0,0.0,0.0
1457,73.0,45.0,60.0,1.0,0.0
1458,73.0,0.0,60.0,2.0,0.0
1459,62.0,15.0,60.0,3.0,0.0
1460,62.0,0.0,60.0,0.0,0.0
1461,62.0,0.0,60.0,1.0,0.0
1462,62.0,15.0,60.0,2.0,0.0
1463,73.0,0.0,60.0,3.0,0.0
1464,73.0,15.0,60.0,0.0,0.0
1465,73.0,0.0,60.0,1.0,0.0
1466,73.0,45.0,60.0,2.0,0.0
1467,59.0,0.0,60.0,0.0,0.0
1468,59.0,15.0,60.0,3.0,0.0
1469,59.0,15.0,60.0,1.0,0.0
1470,59.0,0.0,60.0,2.0,0.0
1471,73.0,0.0,60.0,0.0,0.0
1472,73.0,15.0,60.0,3.0,0.0
1473,73.0,0.0,60.0,1.0,0.0
1474,73.0,45.0,60.0,2.0,0.0
1475,61.0,0.0,60.0,0.0,0.0
1476,61.0,15.0,60.0,3.0,0.0
1477,61.0,15.0,60.0,1.0,0.0
1478,61.0,0.0,60.0,2.0,0.0
1479,73.0,0.0,60.0,3.0,0.0
1480,73.0,15.0,60.0,0.0,0.0
1481,73.0,45.0,60.0,1.0,0.0
1482,73.0,0.0,60.0,2.0,0.0
1483,57.0,0.0,60.0,3.0,0.0
1484,57.0,15.0,60.0,0.0,0.0
1485,57.0,15.0,60.0,2.0,0.0
1486,57.0,0.0,60.0,1.0,0.0
1487,73.0,0.0,60.0,3.0,0.0
1488,73.0,15.0,60.0,0.0,0.0
1489,73.0,45.0,60.0,2.0,0.0
1490,73.0,0.0,60.0,1.0,0.0
1491,59.0,15.0,60.0,0.0,0.0
1492,59.0,0.0,60.0,3.0,0.0
1493,59.0,15.0,60.0,1.0,0.0
1494,59.0,0.0,60.0,2.0,0.0
1495,73.0,15.0,60.0,3.0,0.0
1496,73.0,0.0,60.0,0.0,0.0
1497,73.0,45.0,60.0,2.0,0.0
1498,73.0,0.0,60.0,1.0,0.0
1499,56.0,15.0,60.0,3.0,0.0
1500,56.0,0.0,60.0,0.0,0.0
1501,56.0,0.0,60.0,2.0,0.0
1502,56.0,15.0,60.0,1.0,0.0
1503,73.0,15.0,60.0,0.0,0.0
1504,73.0,0.0,60.0,3.0,0.0
1505,73.0,45.0,60.0,1.0,0.0
1506,73.0,0.0,60.0,2.0,0.0
1507,57.0,15.0,60.0,3.0,0.0
1508,57.0,0.0,60.0,0.0,0.0
1509,57.0,0.0,60.0,1.0,0.0
1510,57.0,15.0,60.0,2.0,0.0
1511,73.0,0.0,60.0,3.0,0.0
1512,73.0,15.0,60.0,0.0,0.0
1513,73.0,0.0,60.0,1.0,0.0
1514,73.0,45.0,60.0,2.0,0.0
1515,54.0,0.0,60.0,0.0,0.0
1516,54.0,15.0,60.0,3.0,0.0
1517,54.0,15.0,60.0,2.0,0.0
1518,54.0,0.0,60.0,1.0,0.0
1519,73.0,0.0,60.0,3.0,0.0
1520,73.0,15.0,60.0,0.0,0.0
1521,73.0,0.0,60.0,1.0,0.0
1522,73.0,45.0,60.0,2.0,0.0
1523,59.0,15.0,60.0,3.0,0.0
1524,59.0,0.0,60.0,0.0,0.0
1525,59.0,15.0,60.0,2.0,0.0
1526,59.0,0.0,60.0,1.0,0.0
1527,73.0,15.0,60.0,0.0,0.0
1528,73.0,0.0,60.0,3.0,0.0
1529,73.0,0.0,60.0,2.0,0.0
1530,73.0,45.0,60.0,1.0,0.0
1531,56.0,0.0,60.0,0.0,0.0
1532,56.0,15.0,60.0,3.0,0.0
1533,56.0,15.0,60.0,2.0,0.0
1534,56.0,0.0,60.0,1.0,0.0
1535,73.0,15.0,60.0,0.0,0.0
1536,73.0,0.0,60.0,3.0,0.0
1537,73.0,0.0,60.0,1.0,0.0
1538,73.0,45.0,60.0,2.0,0.0
1539,57.0,0.0,60.0,3.0,0.0
1540,57.0,15.0,60.0,0.0,0.0
1541,57.0,0.0,60.0,2.0,0.0
1542,57.0,15.0,60.0,1.0,0.0
1543,73.0,0.0,60.0,0.0,0.0
1544,73.0,15.0,60.0,3.0,0.0
1545,73.0,45.0,60.0,2.0,0.0
1546,73.0,0.0,60.0,1.0,0.0
1547,54.0,15.0,60.0,0.0,0.0
1548,54.0,0.0,60.0,3.0,0.0
1549,54.0,15.0,60.0,2.0,0.0
1550,54.0,0.0,60.0,1.0,0.0
1551,73.0,15.0,60.0,0.0,0.0
1552,73.0,0.0,60.0,3.0,0.0
1553,73.0,0.0,60.0,1.0,0.0
1554,73.0,45.0,60.0,2.0,0.0
1555,56.0,15.0,60.0,3.0,0.0
1556,56.0,0.0,60.0,0.0,0.0
1557,56.0,0.0,60.0,2.0,0.0
1558,56.0,15.0,60.0,1.0,0.0
1559,73.0,0.0,60.0,0.0,0.0
1560,73.0,15.0,60.0,3.0,0.0
1561,73.0,45.0,60.0,1.0,0.0
1562,73.0,0.0,60.0,2.0,0.0
1563,53.0,0.0,60.0,0.0,0.0
1564,53.0,15.0,60.0,3.0,0.0
1565,53.0,240.0,60.0,2.0,0.0
1566,53.0,0.0,60.0,1.0,0.0
1567,54.0,0.0,240.0,3.0,0.0
1568,54.0,15.0,240.0,0.0,0.0
1569,54.0,0.0,240.0,2.0,0.0
1570,54.0,255.0,240.0,1.0,0.0
1571,66.0,15.0,30.0,3.0,0.0
1572,66.0,30.0,30.0,4.0,0.0
1573,69.0,15.0,30.0,3.0,0.0
1574,69.0,30.0,30.0,4.0,0.0
1575,74.0,15.0,30.0,3.0,0.0
1576,74.0,30.0,30.0,4.0,0.0
1577,69.0,15.0,30.0,3.0,0.0
1578,69.0,30.0,30.0,4.0,0.0
1579,64.0,15.0,30.0,3.0,0.0
1580,64.0,30.0,30.0,4.0,0.0
1581,68.0,15.0,30.0,3.0,0.0
1582,68.0,30.0,30.0,4.0,0.0
1583,73.0,15.0,30.0,3.0,0.0
1584,73.0,30.0,30.0,4.0,0.0
1585,68.0,15.0,30.0,3.0,0.0
1586,68.0,30.0,30.0,4.0,0.0
1587,62.0,15.0,30.0,3.0,0.0
1588,62.0,30.0,30.0,4.0,0.0
1589,66.0,15.0,30.0,3.0,0.0
1590,66.0,30.0,30.0,4.0,0.0
1591,71.0,15.0,30.0,3.0,0.0
1592,71.0,30.0,30.0,4.0,0.0
1593,66.0,15.0,30.0,3.0,0.0
1594,66.0,30.0,30.0,4.0,0.0
1595,61.0,15.0,30.0,3.0,0.0
1596,61.0,30.0,30.0,4.0,0.0
1597,65.0,15.0,30.0,3.0,0.0
1598,65.0,30.0,30.0,4.0,0.0
1599,68.0,15.0,30.0,3.0,0.0
1600,68.0,30.0,30.0,4.0,0.0
1601,73.0,15.0,30.0,3.0,0.0
1602,73.0,90.0,30.0,4.0,0.0
1603,54.0,0.0,180.0,3.0,0.0
1604,66.0,0.0,60.0,3.0,0.0
1605,66.0,15.0,60.0,0.0,0.0
1606,54.0,0.0,180.0,0.0,0.0
1607,66.0,0.0,60.0,1.0,0.0
1608,54.0,0.0,180.0,2.0,0.0
1609,54.0,75.0,180.0,1.0,0.0
1610,66.0,0.0,60.0,4.0,0.0
1611,66.0,75.0,60.0,2.0,0.0
1612,74.0,15.0,60.0,3.0,0.0
1613,69.0,0.0,60.0,0.0,0.0
1614,74.0,0.0,60.0,0.0,0.0
1615,69.0,0.0,60.0,3.0,0.0
1616,74.0,0.0,60.0,2.0,0.0
1617,69.0,0.0,60.0,2.0,0.0
1618,74.0,0.0,60.0,1.0,0.0
1619,69.0,0.0,60.0,1.0,0.0
1620,52.0,0.0,180.0,3.0,0.0
1621,61.0,15.0,60.0,3.0,0.0
1622,61.0,0.0,60.0,0.0,0.0
1623,52.0,0.0,180.0,0.0,0.0
1624,52.0,0.0,180.0,1.0,0.0
1625,61.0,0.0,60.0,1.0,0.0
1626,52.0,0.0,180.0,2.0,0.0
1627,61.0,75.0,60.0,2.0,0.0
1628,68.0,0.0,60.0,3.0,0.0
1629,73.0,15.0,60.0,0.0,0.0
1630,68.0,0.0,60.0,0.0,0.0
1631,73.0,0.0,60.0,3.0,0.0
1632,73.0,75.0,60.0,2.0,0.0
1633,68.0,0.0,60.0,2.0,0.0
1634,73.0,0.0,60.0,1.0,0.0
1635,68.0,0.0,60.0,1.0,0.0
1636,50.0,0.0,180.0,3.0,0.0
1637,62.0,0.0,60.0,0.0,0.0
1638,50.0,0.0,180.0,0.0,0.0
1639,62.0,15.0,60.0,3.0,0.0
1640,62.0,0.0,60.0,2.0,0.0
1641,50.0,165.0,180.0,1.0,0.0
1642,62.0,75.0,60.0,1.0,0.0
1643,50.0,0.0,180.0,2.0,0.0
1644,71.0,15.0,60.0,0.0,0.0
1645,71.0,0.0,60.0,3.0,0.0
1646,66.0,0.0,60.0,3.0,0.0
1647,66.0,0.0,60.0,0.0,0.0
1648,66.0,0.0,60.0,2.0,0.0
1649,71.0,0.0,60.0,2.0,0.0
1650,66.0,0.0,60.0,1.0,0.0
1651,71.0,0.0,60.0,1.0,0.0
1652,65.0,0.0,180.0,0.0,0.0
1653,68.0,0.0,180.0,0.0,0.0
1654,73.0,0.0,180.0,0.0,0.0
1655,49.0,0.0,180.0,3.0,0.0
1656,73.0,0.0,180.0,3.0,0.0
1657,68.0,0.0,180.0,3.0,0.0
1658,49.0,15.0,180.0,0.0,0.0
1659,65.0,0.0,180.0,3.0,0.0
1660,49.0,0.0,180.0,1.0,0.0
1661,68.0,0.0,180.0,1.0,0.0
1662,65.0,510.0,180.0,2.0,0.0
1663,49.0,0.0,180.0,2.0,0.0
1664,73.0,0.0,180.0,1.0,0.0
1665,73.0,0.0,180.0,2.0,0.0
1666,68.0,0.0,180.0,2.0,0.0
1667,65.0,0.0,180.0,1.0,0.0
1668,66.0,45.0,30.0,4.0,0.0
1669,69.0,45.0,30.0,4.0,0.0
1670,74.0,45.0,30.0,4.0,0.0
1671,69.0,45.0,30.0,4.0,0.0
1672,64.0,45.0,30.0,4.0,0.0
1673,68.0,45.0,30.0,4.0,0.0
1674,73.0,45.0,30.0,4.0,0.0
1675,68.0,45.0,30.0,4.0,0.0
1676,62.0,45.0,30.0,4.0,0.0
1677,66.0,45.0,30.0,4.0,0.0
1678,71.0,45.0,30.0,4.0,0.0
1679,66.0,45.0,30.0,4.0,0.0
1680,61.0,45.0,30.0,4.0,0.0
1681,65.0,45.0,30.0,4.0,0.0
1682,68.0,45.0,30.0,4.0,0.0
1683,73.0,90.0,30.0,4.0,0.0
1684,54.0,0.0,180.0,0.0,0.0
1685,66.0,0.0,60.0,0.0,0.0
1686,54.0,0.0,180.0,3.0,0.0
1687,66.0,15.0,60.0,3.0,0.0
1688,66.0,0.0,60.0,4.0,0.0
1689,66.0,0.0,60.0,1.0,0.0
1690,54.0,0.0,180.0,2.0,0.0
1691,66.0,75.0,60.0,2.0,0.0
1692,54.0,75.0,180.0,1.0,0.0
1693,74.0,0.0,60.0,0.0,0.0
1694,69.0,0.0,60.0,3.0,0.0
1695,69.0,15.0,60.0,0.0,0.0
1696,74.0,0.0,60.0,3.0,0.0
1697,69.0,0.0,60.0,2.0,0.0
1698,74.0,0.0,60.0,2.0,0.0
1699,74.0,0.0,60.0,1.0,0.0
1700,69.0,0.0,60.0,1.0,0.0
1701,52.0,0.0,180.0,3.0,0.0
1702,52.0,0.0,180.0,0.0,0.0
1703,61.0,15.0,60.0,0.0,0.0
1704,61.0,0.0,60.0,3.0,0.0
1705,61.0,75.0,60.0,1.0,0.0
1706,52.0,0.0,180.0,1.0,0.0
1707,61.0,0.0,60.0,2.0,0.0
1708,52.0,0.0,180.0,2.0,0.0
1709,68.0,0.0,60.0,3.0,0.0
1710,73.0,15.0,60.0,3.0,0.0
1711,68.0,0.0,60.0,0.0,0.0
1712,73.0,0.0,60.0,0.0,0.0
1713,73.0,0.0,60.0,1.0,0.0
1714,68.0,75.0,60.0,1.0,0.0
1715,68.0,0.0,60.0,2.0,0.0
1716,73.0,0.0,60.0,2.0,0.0
1717,62.0,15.0,60.0,3.0,0.0
1718,50.0,0.0,180.0,3.0,0.0
1719,62.0,0.0,60.0,0.0,0.0
1720,50.0,15.0,180.0,0.0,0.0
1721,62.0,0.0,60.0,1.0,0.0
1722,50.0,0.0,180.0,1.0,0.0
1723,62.0,75.0,60.0,2.0,0.0
1724,50.0,0.0,180.0,2.0,0.0
1725,66.0,0.0,60.0,0.0,0.0
1726,71.0,0.0,60.0,3.0,0.0
1727,71.0,0.0,60.0,0.0,0.0
1728,66.0,0.0,60.0,3.0,0.0
1729,71.0,0.0,60.0,2.0,0.0
1730,66.0,390.0,60.0,1.0,0.0
1731,66.0,0.0,60.0,2.0,0.0
1732,71.0,0.0,60.0,1.0,0.0
1733,49.0,0.0,390.0,0.0,0.0
1734,73.0,0.0,420.0,0.0,0.0
1735,68.0,0.0,390.0,0.0,0.0
1736,65.0,0.0,390.0,0.0,0.0
1737,56.0,15.0,390.0,0.0,0.0
1738,56.0,0.0,390.0,3.0,0.0
1739,49.0,0.0,390.0,3.0,0.0
1740,73.0,15.0,420.0,3.0,0.0
1741,68.0,0.0,390.0,3.0,0.0
1742,65.0,0.0,390.0,3.0,0.0
1743,68.0,0.0,390.0,2.0,0.0
1744,65.0,30.0,390.0,2.0,0.0
1745,49.0,0.0,390.0,1.0,0.0
1746,56.0,0.0,390.0,2.0,0.0
1747,73.0,0.0,420.0,1.0,0.0
1748,49.0,0.0,390.0,2.0,0.0
1749,65.0,0.0,390.0,1.0,0.0
1750,56.0,0.0,390.0,1.0,0.0
1751,73.0,30.0,420.0,2.0,0.0
1752,68.0,0.0,390.0,1.0,0.0
1753,71.0,15.0,30.0,0.0,0.0
1754,71.0,0.0,30.0,3.0,0.0
1755,71.0,0.0,30.0,2.0,0.0
1756,71.0,30.0,30.0,1.0,0.0
1757,69.0,0.0,30.0,3.0,0.0
1758,69.0,15.0,30.0,0.0,0.0
1759,69.0,30.0,30.0,2.0,0.0
1760,69.0,0.0,30.0,1.0,0.0
1761,68.0,15.0,30.0,3.0,0.0
1762,68.0,0.0,30.0,0.0,0.0
1763,68.0,0.0,30.0,2.0,0.0
1764,68.0,30.0,30.0,1.0,0.0
1765,66.0,15.0,30.0,0.0,0.0
1766,66.0,0.0,30.0,3.0,0.0
1767,66.0,0.0,30.0,2.0,0.0
1768,66.0,30.0,30.0,1.0,0.0
1769,65.0,0.0,30.0,0.0,0.0
1770,65.0,15.0,30.0,3.0,0.0
1771,65.0,30.0,30.0,2.0,0.0
1772,65.0,0.0,30.0,1.0,0.0
1773,63.0,0.0,30.0,0.0,0.0
1774,63.0,15.0,30.0,3.0,0.0
1775,63.0,0.0,30.0,2.0,0.0
1776,63.0,30.0,30.0,1.0,0.0
1777,65.0,15.0,30.0,0.0,0.0
1778,65.0,0.0,30.0,3.0,0.0
1779,65.0,30.0,30.0,1.0,0.0
1780,65.0,0.0,30.0,2.0,0.0
1781,61.0,15.0,30.0,0.0,0.0
1782,61.0,0.0,30.0,3.0,0.0
1783,61.0,0.0,30.0,1.0,0.0
1784,61.0,30.0,30.0,2.0,0.0
1785,63.0,15.0,30.0,3.0,0.0
1786,63.0,0.0,30.0,0.0,0.0
1787,63.0,0.0,30.0,1.0,0.0
1788,63.0,30.0,30.0,2.0,0.0
1789,65.0,15.0,30.0,3.0,0.0
1790,65.0,0.0,30.0,0.0,0.0
1791,65.0,30.0,30.0,2.0,0.0
1792,65.0,0.0,30.0,1.0,0.0
1793,66.0,0.0,30.0,3.0,0.0
1794,66.0,15.0,30.0,0.0,0.0
1795,66.0,0.0,30.0,2.0,0.0
1796,66.0,30.0,30.0,1.0,0.0
1797,68.0,15.0,30.0,0.0,0.0
1798,68.0,0.0,30.0,3.0,0.0
1799,68.0,30.0,30.0,2.0,0.0
1800,68.0,0.0,30.0,1.0,0.0
1801,69.0,15.0,30.0,0.0,0.0
1802,69.0,0.0,30.0,3.0,0.0
1803,69.0,30.0,30.0,2.0,0.0
1804,69.0,0.0,30.0,1.0,0.0
1805,71.0,0.0,30.0,0.0,0.0
1806,71.0,15.0,30.0,3.0,0.0
1807,71.0,0.0,30.0,1.0,0.0
1808,71.0,30.0,30.0,2.0,0.0
1809,73.0,15.0,30.0,0.0,0.0
1810,73.0,0.0,30.0,3.0,0.0
1811,73.0,0.0,30.0,1.0,0.0
1812,73.0,30.0,30.0,2.0,0.0
1813,71.0,0.0,30.0,3.0,0.0
1814,71.0,15.0,30.0,0.0,0.0
1815,71.0,30.0,30.0,1.0,0.0
1816,71.0,0.0,30.0,2.0,0.0
1817,69.0,0.0,30.0,3.0,0.0
1818,69.0,15.0,30.0,0.0,0.0
1819,69.0,0.0,30.0,2.0,0.0
1820,69.0,30.0,30.0,1.0,0.0
1821,68.0,15.0,30.0,0.0,0.0
1822,68.0,0.0,30.0,3.0,0.0
1823,68.0,0.0,30.0,2.0,0.0
1824,68.0,30.0,30.0,1.0,0.0
1825,69.0,0.0,30.0,0.0,0.0
1826,69.0,15.0,30.0,3.0,0.0
1827,69.0,0.0,30.0,2.0,0.0
1828,69.0,30.0,30.0,1.0,0.0
1829,66.0,15.0,30.0,3.0,0.0
1830,66.0,0.0,30.0,0.0,0.0
1831,66.0,30.0,30.0,2.0,0.0
1832,66.0,0.0,30.0,1.0,0.0
1833,69.0,15.0,30.0,3.0,0.0
1834,69.0,0.0,30.0,0.0,0.0
1835,69.0,30.0,30.0,1.0,0.0
1836,69.0,0.0,30.0,2.0,0.0
1837,73.0,15.0,30.0,0.0,0.0
1838,73.0,0.0,30.0,3.0,0.0
1839,73.0,0.0,30.0,2.0,0.0
1840,73.0,30.0,30.0,1.0,0.0
1841,77.0,0.0,30.0,3.0,0.0
1842,77.0,15.0,30.0,0.0,0.0
1843,77.0,0.0,30.0,1.0,0.0
1844,77.0,30.0,30.0,2.0,0.0
1845,78.0,15.0,30.0,0.0,0.0
1846,78.0,0.0,30.0,3.0,0.0
1847,78.0,0.0,30.0,1.0,0.0
1848,78.0,30.0,30.0,2.0,0.0
1849,73.0,15.0,30.0,0.0,0.0
1850,73.0,0.0,30.0,3.0,0.0
1851,73.0,0.0,30.0,1.0,0.0
1852,73.0,30.0,30.0,2.0,0.0
1853,75.0,0.0,30.0,3.0,0.0
1854,75.0,15.0,30.0,0.0,0.0
1855,75.0,15.0,30.0,1.0,0.0
1856,75.0,0.0,30.0,2.0,0.0
1857,77.0,0.0,30.0,3.0,0.0
1858,77.0,15.0,30.0,0.0,0.0
1859,77.0,30.0,30.0,2.0,0.0
1860,77.0,0.0,30.0,1.0,0.0
1861,78.0,15.0,30.0,0.0,0.0
1862,78.0,0.0,30.0,3.0,0.0
1863,78.0,0.0,30.0,2.0,0.0
1864,78.0,30.0,30.0,1.0,0.0
1865,80.0,15.0,30.0,3.0,0.0
1866,80.0,0.0,30.0,0.0,0.0
1867,80.0,0.0,30.0,2.0,0.0
1868,80.0,30.0,30.0,1.0,0.0
1869,81.0,0.0,30.0,3.0,0.0
1870,81.0,15.0,30.0,0.0,0.0
1871,81.0,0.0,30.0,2.0,0.0
1872,81.0,30.0,30.0,1.0,0.0
1873,83.0,15.0,30.0,3.0,0.0
1874,83.0,0.0,30.0,0.0,0.0
1875,83.0,0.0,30.0,2.0,0.0
1876,83.0,30.0,30.0,1.0,0.0
1877,85.0,0.0,30.0,3.0,0.0
1878,85.0,15.0,30.0,0.0,0.0
1879,85.0,195.0,30.0,1.0,0.0
1880,85.0,0.0,30.0,2.0,0.0
1881,86.0,15.0,180.0,0.0,0.0
1882,86.0,0.0,180.0,3.0,0.0
1883,86.0,75.0,180.0,2.0,0.0
1884,86.0,0.0,180.0,1.0,0.0
1885,54.0,0.0,180.0,0.0,0.0
1886,78.0,0.0,60.0,3.0,0.0
1887,54.0,0.0,180.0,3.0,0.0
1888,78.0,15.0,60.0,0.0,0.0
1889,54.0,0.0,180.0,1.0,0.0
1890,54.0,0.0,180.0,2.0,0.0
1891,78.0,0.0,60.0,1.0,0.0
1892,78.0,75.0,60.0,2.0,0.0
1893,81.0,15.0,60.0,3.0,0.0
1894,86.0,0.0,60.0,0.0,0.0
1895,81.0,0.0,60.0,0.0,0.0
1896,86.0,0.0,60.0,3.0,0.0
1897,81.0,0.0,60.0,2.0,0.0
1898,86.0,75.0,60.0,2.0,0.0
1899,81.0,0.0,60.0,1.0,0.0
1900,86.0,0.0,60.0,1.0,0.0
1901,73.0,15.0,60.0,0.0,0.0
1902,52.0,0.0,180.0,0.0,0.0
1903,73.0,0.0,60.0,3.0,0.0
1904,52.0,0.0,180.0,3.0,0.0
1905,73.0,75.0,60.0,2.0,0.0
1906,52.0,0.0,180.0,1.0,0.0
1907,73.0,0.0,60.0,1.0,0.0
1908,52.0,75.0,180.0,2.0,0.0
1909,80.0,0.0,60.0,3.0,0.0
1910,85.0,0.0,60.0,3.0,0.0
1911,85.0,15.0,60.0,0.0,0.0
1912,80.0,0.0,60.0,0.0,0.0
1913,85.0,0.0,60.0,2.0,0.0
1914,80.0,0.0,60.0,2.0,0.0
1915,80.0,0.0,60.0,1.0,0.0
1916,85.0,0.0,60.0,1.0,0.0
1917,74.0,0.0,60.0,3.0,0.0
1918,50.0,0.0,180.0,3.0,0.0
1919,74.0,15.0,60.0,0.0,0.0
1920,50.0,0.0,180.0,0.0,0.0
1921,50.0,0.0,180.0,2.0,0.0
1922,74.0,0.0,60.0,2.0,0.0
1923,50.0,0.0,180.0,1.0,0.0
1924,74.0,75.0,60.0,1.0,0.0
1925,78.0,0.0,60.0,3.0,0.0
1926,83.0,15.0,60.0,3.0,0.0
1927,78.0,0.0,60.0,0.0,0.0
1928,83.0,0.0,60.0,0.0,0.0
1929,83.0,405.0,60.0,2.0,0.0
1930,78.0,0.0,60.0,2.0,0.0
1931,78.0,0.0,60.0,1.0,0.0
1932,83.0,0.0,60.0,1.0,0.0
1933,49.0,0.0,420.0,0.0,0.0
1934,68.0,0.0,420.0,0.0,0.0
1935,61.0,15.0,420.0,3.0,0.0
1936,80.0,0.0,420.0,0.0,0.0
1937,85.0,0.0,420.0,0.0,0.0
1938,61.0,0.0,420.0,0.0,0.0
1939,85.0,0.0,420.0,3.0,0.0
1940,49.0,0.0,420.0,3.0,0.0
1941,77.0,0.0,420.0,3.0,0.0
1942,80.0,0.0,420.0,3.0,0.0
1943,77.0,0.0,420.0,0.0,0.0
1944,49.0,0.0,420.0,2.0,0.0
1945,68.0,0.0,420.0,2.0,0.0
1946,77.0,0.0,420.0,2.0,0.0
1947,80.0,0.0,420.0,2.0,0.0
1948,85.0,0.0,420.0,2.0,0.0
1949,61.0,0.0,420.0,2.0,0.0
1950,49.0,30.0,420.0,1.0,0.0
1951,77.0,0.0,420.0,1.0,0.0
1952,68.0,0.0,420.0,1.0,0.0
1953,85.0,0.0,420.0,1.0,0.0
1954,61.0,0.0,420.0,1.0,0.0
1955,80.0,0.0,420.0,1.0,0.0
1956,78.0,15.0,30.0,3.0,0.0
1957,78.0,30.0,30.0,4.0,0.0
1958,81.0,15.0,30.0,3.0,0.0
1959,81.0,30.0,30.0,4.0,0.0
1960,86.0,15.0,30.0,3.0,0.0
1961,86.0,30.0,30.0,4.0,0.0
1962,81.0,15.0,30.0,3.0,0.0
1963,81.0,30.0,30.0,4.0,0.0
1964,76.0,15.0,30.0,3.0,0.0
1965,76.0,30.0,30.0,4.0,0.0
1966,80.0,15.0,30.0,3.0,0.0
1967,80.0,30.0,30.0,4.0,0.0
1968,85.0,15.0,30.0,3.0,0.0
1969,85.0,30.0,30.0,4.0,0.0
1970,80.0,15.0,30.0,3.0,0.0
1971,80.0,30.0,30.0,4.0,0.0
1972,74.0,15.0,30.0,3.0,0.0
1973,74.0,30.0,30.0,4.0,0.0
1974,78.0,15.0,30.0,3.0,0.0
1975,78.0,30.0,30.0,4.0,0.0
1976,83.0,15.0,30.0,3.0,0.0
1977,83.0,15.0,30.0,4.0,0.0
1978,78.0,15.0,30.0,3.0,0.0
1979,78.0,45.0,30.0,4.0,0.0
1980,73.0,15.0,60.0,3.0,0.0
1981,73.0,45.0,60.0,4.0,0.0
1982,77.0,15.0,60.0,3.0,0.0
1983,77.0,45.0,60.0,4.0,0.0
1984,80.0,15.0,60.0,3.0,0.0
1985,80.0,45.0,60.0,4.0,0.0
1986,85.0,15.0,60.0,3.0,0.0
1987,85.0,105.0,60.0,4.0,0.0
1988,54.0,0.0,240.0,3.0,0.0
1989,78.0,15.0,120.0,3.0,0.0
1990,78.0,0.0,120.0,0.0,0.0
1991,54.0,0.0,240.0,0.0,0.0
1992,78.0,0.0,120.0,1.0,0.0
1993,78.0,0.0,120.0,2.0,0.0
1994,54.0,105.0,240.0,2.0,0.0
1995,54.0,0.0,240.0,1.0,0.0
1996,78.0,105.0,120.0,4.0,0.0
1997,81.0,0.0,120.0,0.0,0.0
1998,86.0,0.0,120.0,0.0,0.0
1999,81.0,15.0,120.0,3.0,0.0
2000,86.0,0.0,120.0,3.0,0.0
2001,86.0,0.0,120.0,2.0,0.0
2002,81.0,0.0,120.0,2.0,0.0
2003,86.0,0.0,120.0,1.0,0.0
2004,81.0,0.0,120.0,1.0,0.0
2005,73.0,15.0,120.0,0.0,0.0
2006,52.0,0.0,240.0,3.0,0.0
2007,73.0,0.0,120.0,3.0,0.0
2008,52.0,0.0,240.0,0.0,0.0
2009,52.0,105.0,240.0,1.0,0.0
2010,73.0,105.0,120.0,1.0,0.0
2011,73.0,0.0,120.0,2.0,0.0
2012,52.0,0.0,240.0,2.0,0.0
2013,80.0,0.0,120.0,3.0,0.0
2014,85.0,0.0,120.0,3.0,0.0
2015,85.0,0.0,120.0,0.0,0.0
2016,80.0,15.0,120.0,0.0,0.0
2017,80.0,0.0,120.0,1.0,0.0
2018,85.0,0.0,120.0,2.0,0.0
2019,85.0,0.0,120.0,1.0,0.0
2020,80.0,0.0,120.0,2.0,0.0
2021,50.0,15.0,240.0,0.0,0.0
2022,74.0,0.0,120.0,0.0,0.0
2023,74.0,15.0,120.0,3.0,0.0
2024,50.0,0.0,240.0,3.0,0.0
2025,50.0,0.0,240.0,1.0,0.0
2026,74.0,0.0,120.0,1.0,0.0
2027,74.0,105.0,120.0,2.0,0.0
2028,50.0,0.0,240.0,2.0,0.0
2029,78.0,0.0,120.0,0.0,0.0
2030,83.0,0.0,120.0,0.0,0.0
2031,83.0,0.0,120.0,3.0,0.0
2032,78.0,0.0,120.0,3.0,0.0
2033,78.0,225.0,120.0,2.0,0.0
2034,83.0,0.0,120.0,2.0,0.0
2035,83.0,0.0,120.0,1.0,0.0
2036,78.0,0.0,120.0,1.0,0.0
2037,77.0,0.0,240.0,3.0,0.0
2038,49.0,15.0,240.0,3.0,0.0
2039,49.0,0.0,240.0,0.0,0.0
2040,68.0,0.0,240.0,0.0,0.0
2041,73.0,0.0,240.0,0.0,0.0
2042,77.0,0.0,240.0,0.0,0.0
2043,80.0,0.0,240.0,0.0,0.0
2044,85.0,0.0,240.0,0.0,0.0
2045,80.0,0.0,240.0,3.0,0.0
2046,85.0,0.0,240.0,3.0,0.0
2047,68.0,0.0,240.0,2.0,0.0
2048,73.0,0.0,240.0,2.0,0.0
2049,77.0,0.0,240.0,2.0,0.0
2050,80.0,225.0,240.0,2.0,0.0
2051,49.0,0.0,240.0,2.0,0.0
2052,85.0,0.0,240.0,2.0,0.0
2053,73.0,0.0,240.0,1.0,0.0
2054,77.0,0.0,240.0,1.0,0.0
2055,80.0,0.0,240.0,1.0,0.0
2056,85.0,0.0,240.0,1.0,0.0
2057,68.0,0.0,240.0,1.0,0.0
2058,49.0,0.0,240.0,1.0,0.0
2059,48.0,0.0,240.0,3.0,0.0
2060,75.0,0.0,240.0,3.0,0.0
2061,78.0,15.0,240.0,0.0,0.0
2062,69.0,0.0,240.0,0.0,0.0
2063,75.0,0.0,240.0,0.0,0.0
2064,63.0,0.0,240.0,0.0,0.0
2065,48.0,0.0,240.0,0.0,0.0
2066,78.0,0.0,240.0,3.0,0.0
2067,69.0,0.0,240.0,2.0,0.0
2068,78.0,0.0,240.0,2.0,0.0
2069,78.0,0.0,240.0,1.0,0.0
2070,63.0,0.0,240.0,2.0,0.0
2071,48.0,0.0,240.0,2.0,0.0
2072,48.0,450.0,240.0,1.0,0.0
2073,63.0,0.0,240.0,1.0,0.0
2074,75.0,0.0,240.0,1.0,0.0
2075,69.0,0.0,240.0,1.0,0.0
2076,75.0,0.0,240.0,2.0,0.0
2077,77.0,0.0,450.0,3.0,0.0
2078,47.0,0.0,450.0,3.0,0.0
2079,73.0,0.0,450.0,3.0,0.0
2080,61.0,15.0,450.0,3.0,0.0
2081,73.0,0.0,450.0,0.0,0.0
2082,68.0,0.0,450.0,0.0,0.0
2083,61.0,0.0,450.0,0.0,0.0
2084,47.0,0.0,450.0,0.0,0.0
2085,77.0,0.0,450.0,0.0,0.0
2086,47.0,0.0,450.0,1.0,0.0
2087,47.0,0.0,450.0,2.0,0.0
2088,61.0,0.0,450.0,2.0,0.0
2089,73.0,45.0,450.0,2.0,0.0
2090,77.0,0.0,450.0,2.0,0.0
2091,61.0,0.0,450.0,1.0,0.0
2092,68.0,0.0,450.0,1.0,0.0
2093,73.0,0.0,450.0,1.0,0.0
2094,68.0,0.0,450.0,2.0,0.0
2095,77.0,0.0,450.0,1.0,0.0
2096,75.0,15.0,60.0,0.0,0.0
2097,75.0,0.0,60.0,3.0,0.0
2098,75.0,45.0,60.0,1.0,0.0
2099,75.0,0.0,60.0,2.0,0.0
2100,73.0,0.0,60.0,3.0,0.0
2101,73.0,15.0,60.0,0.0,0.0
2102,73.0,0.0,60.0,2.0,0.0
2103,73.0,45.0,60.0,1.0,0.0
2104,77.0,15.0,60.0,0.0,0.0
2105,77.0,0.0,60.0,3.0,0.0
2106,77.0,0.0,60.0,2.0,0.0
2107,77.0,30.0,60.0,1.0,0.0
2108,80.0,0.0,30.0,0.0,0.0
2109,80.0,15.0,30.0,3.0,0.0
2110,80.0,30.0,30.0,2.0,0.0
2111,80.0,0.0,30.0,1.0,0.0
2112,83.0,15.0,30.0,0.0,0.0
2113,83.0,0.0,30.0,3.0,0.0
2114,83.0,75.0,30.0,2.0,0.0
2115,83.0,0.0,30.0,1.0,0.0
2116,86.0,15.0,60.0,0.0,0.0
2117,86.0,0.0,60.0,3.0,0.0
2118,86.0,0.0,60.0,1.0,0.0
2119,86.0,30.0,60.0,2.0,0.0
2120,85.0,0.0,30.0,3.0,0.0
2121,85.0,15.0,30.0,0.0,0.0
2122,85.0,0.0,30.0,2.0,0.0
2123,85.0,30.0,30.0,1.0,0.0
2124,83.0,0.0,30.0,3.0,0.0
2125,83.0,15.0,30.0,0.0,0.0
2126,83.0,0.0,30.0,2.0,0.0
2127,83.0,30.0,30.0,1.0,0.0
2128,81.0,0.0,30.0,0.0,0.0
2129,81.0,15.0,30.0,3.0,0.0
2130,81.0,0.0,30.0,2.0,0.0
2131,81.0,30.0,30.0,1.0,0.0
2132,80.0,15.0,30.0,0.0,0.0
2133,80.0,0.0,30.0,3.0,0.0
2134,80.0,30.0,30.0,2.0,0.0
2135,80.0,0.0,30.0,1.0,0.0
2136,81.0,15.0,30.0,0.0,0.0
2137,81.0,0.0,30.0,3.0,0.0
2138,81.0,30.0,30.0,1.0,0.0
2139,81.0,0.0,30.0,2.0,0.0
2140,80.0,15.0,30.0,3.0,0.0
2141,80.0,0.0,30.0,0.0,0.0
2142,80.0,30.0,30.0,1.0,0.0
2143,80.0,0.0,30.0,2.0,0.0
2144,78.0,0.0,30.0,3.0,0.0
2145,78.0,15.0,30.0,0.0,0.0
2146,78.0,30.0,30.0,1.0,0.0
2147,78.0,0.0,30.0,2.0,0.0
2148,77.0,15.0,30.0,0.0,0.0
2149,77.0,0.0,30.0,3.0,0.0
2150,77.0,0.0,30.0,2.0,0.0
2151,77.0,30.0,30.0,1.0,0.0
2152,78.0,15.0,30.0,3.0,0.0
2153,78.0,0.0,30.0,0.0,0.0
2154,78.0,0.0,30.0,1.0,0.0
2155,78.0,30.0,30.0,2.0,0.0
2156,76.0,0.0,30.0,3.0,0.0
2157,76.0,15.0,30.0,0.0,0.0
2158,76.0,30.0,30.0,2.0,0.0
2159,76.0,0.0,30.0,1.0,0.0
2160,74.0,15.0,30.0,3.0,0.0
2161,74.0,0.0,30.0,0.0,0.0
2162,74.0,0.0,30.0,2.0,0.0
2163,74.0,30.0,30.0,1.0,0.0
2164,73.0,15.0,30.0,0.0,0.0
2165,73.0,0.0,30.0,3.0,0.0
2166,73.0,30.0,30.0,2.0,0.0
2167,73.0,0.0,30.0,1.0,0.0
2168,71.0,0.0,30.0,3.0,0.0
2169,71.0,15.0,30.0,0.0,0.0
2170,71.0,0.0,30.0,2.0,0.0
2171,71.0,15.0,30.0,1.0,0.0
2172,69.0,0.0,30.0,0.0,0.0
2173,69.0,15.0,30.0,3.0,0.0
2174,69.0,0.0,30.0,2.0,0.0
2175,69.0,30.0,30.0,1.0,0.0
2176,68.0,15.0,30.0,3.0,0.0
2177,68.0,0.0,30.0,0.0,0.0
2178,68.0,0.0,30.0,1.0,0.0
2179,68.0,30.0,30.0,2.0,0.0
2180,66.0,15.0,30.0,3.0,0.0
2181,66.0,0.0,30.0,0.0,0.0
2182,66.0,0.0,30.0,1.0,0.0
2183,66.0,810.0,30.0,2.0,0.0
2184,80.0,0.0,810.0,3.0,0.0
2185,65.0,0.0,810.0,3.0,0.0
2186,77.0,0.0,900.0,3.0,0.0
2187,71.0,0.0,810.0,0.0,0.0
2188,74.0,0.0,810.0,0.0,0.0
2189,80.0,0.0,810.0,0.0,0.0
2190,59.0,0.0,810.0,0.0,0.0
2191,77.0,15.0,900.0,0.0,0.0
2192,68.0,0.0,900.0,0.0,0.0
2193,59.0,0.0,810.0,3.0,0.0
2194,65.0,15.0,810.0,0.0,0.0
2195,68.0,0.0,900.0,2.0,0.0
2196,65.0,0.0,810.0,2.0,0.0
2197,77.0,0.0,900.0,2.0,0.0
2198,68.0,75.0,900.0,1.0,0.0
2199,71.0,0.0,810.0,2.0,0.0
2200,65.0,0.0,810.0,1.0,0.0
2201,77.0,0.0,900.0,1.0,0.0
2202,74.0,0.0,810.0,1.0,0.0
2203,80.0,0.0,810.0,1.0,0.0
2204,59.0,75.0,810.0,1.0,0.0
2205,80.0,0.0,810.0,2.0,0.0
2206,59.0,0.0,810.0,2.0,0.0
2207,71.0,0.0,810.0,1.0,0.0
2208,74.0,0.0,810.0,2.0,0.0
2209,71.0,0.0,60.0,0.0,0.0
2210,80.0,0.0,60.0,0.0,0.0
2211,71.0,15.0,60.0,3.0,0.0
2212,80.0,0.0,60.0,3.0,0.0
2213,71.0,0.0,60.0,2.0,0.0
2214,80.0,0.0,60.0,2.0,0.0
2215,80.0,75.0,60.0,1.0,0.0
2216,71.0,0.0,60.0,1.0,0.0
2217,68.0,15.0,60.0,3.0,0.0
2218,77.0,0.0,60.0,3.0,0.0
2219,77.0,0.0,60.0,0.0,0.0
2220,68.0,0.0,60.0,0.0,0.0
2221,77.0,0.0,60.0,2.0,0.0
2222,68.0,0.0,60.0,2.0,0.0
2223,68.0,75.0,60.0,1.0,0.0
2224,77.0,0.0,60.0,1.0,0.0
2225,74.0,0.0,60.0,3.0,0.0
2226,65.0,0.0,60.0,3.0,0.0
2227,74.0,15.0,60.0,0.0,0.0
2228,65.0,0.0,60.0,0.0,0.0
2229,74.0,0.0,60.0,2.0,0.0
2230,74.0,0.0,60.0,1.0,0.0
2231,65.0,75.0,60.0,1.0,0.0
2232,65.0,0.0,60.0,2.0,0.0
2233,77.0,15.0,60.0,0.0,0.0
2234,77.0,0.0,60.0,3.0,0.0
2235,68.0,0.0,60.0,3.0,0.0
2236,68.0,0.0,60.0,0.0,0.0
2237,68.0,0.0,60.0,2.0,0.0
2238,77.0,0.0,60.0,2.0,0.0
2239,68.0,0.0,60.0,1.0,0.0
2240,77.0,75.0,60.0,1.0,0.0
2241,65.0,0.0,60.0,0.0,0.0
2242,65.0,0.0,60.0,3.0,0.0
2243,74.0,0.0,60.0,3.0,0.0
2244,74.0,15.0,60.0,0.0,0.0
2245,74.0,75.0,60.0,2.0,0.0
2246,65.0,0.0,60.0,2.0,0.0
2247,74.0,0.0,60.0,1.0,0.0
2248,65.0,0.0,60.0,1.0,0.0
2249,77.0,0.0,60.0,0.0,0.0
2250,77.0,15.0,60.0,3.0,0.0
2251,68.0,0.0,60.0,0.0,0.0
2252,68.0,0.0,60.0,3.0,0.0
2253,77.0,0.0,60.0,1.0,0.0
2254,77.0,0.0,60.0,2.0,0.0
2255,68.0,75.0,60.0,2.0,0.0
2256,68.0,0.0,60.0,1.0,0.0
2257,80.0,15.0,60.0,3.0,0.0
2258,71.0,0.0,60.0,3.0,0.0
2259,71.0,0.0,60.0,0.0,0.0
2260,80.0,0.0,60.0,0.0,0.0
2261,71.0,75.0,60.0,1.0,0.0
2262,80.0,0.0,60.0,2.0,0.0
2263,71.0,0.0,60.0,2.0,0.0
2264,80.0,0.0,60.0,1.0,0.0
2265,68.0,0.0,60.0,3.0,0.0
2266,77.0,15.0,60.0,3.0,0.0
2267,68.0,0.0,60.0,0.0,0.0
2268,77.0,0.0,60.0,0.0,0.0
2269,77.0,0.0,60.0,2.0,0.0
2270,77.0,75.0,60.0,1.0,0.0
2271,68.0,0.0,60.0,1.0,0.0
2272,68.0,0.0,60.0,2.0,0.0
2273,74.0,15.0,60.0,3.0,0.0
2274,74.0,0.0,60.0,0.0,0.0
2275,65.0,0.0,60.0,3.0,0.0
2276,65.0,0.0,60.0,0.0,0.0
2277,74.0,75.0,60.0,1.0,0.0
2278,65.0,0.0,60.0,1.0,0.0
2279,74.0,0.0,60.0,2.0,0.0
2280,65.0,0.0,60.0,2.0,0.0
2281,77.0,0.0,60.0,3.0,0.0
2282,68.0,0.0,60.0,3.0,0.0
2283,68.0,0.0,60.0,0.0,0.0
2284,77.0,15.0,60.0,0.0,0.0
2285,68.0,0.0,60.0,1.0,0.0
2286,77.0,0.0,60.0,1.0,0.0
2287,68.0,75.0,60.0,2.0,0.0
2288,77.0,0.0,60.0,2.0,0.0
2289,74.0,0.0,60.0,3.0,0.0
2290,65.0,0.0,60.0,3.0,0.0
2291,65.0,0.0,60.0,0.0,0.0
2292,74.0,15.0,60.0,0.0,0.0
2293,65.0,0.0,60.0,2.0,0.0
2294,74.0,75.0,60.0,2.0,0.0
2295,74.0,0.0,60.0,1.0,0.0
2296,65.0,0.0,60.0,1.0,0.0
2297,77.0,0.0,60.0,3.0,0.0
2298,77.0,0.0,60.0,0.0,0.0
2299,68.0,0.0,60.0,0.0,0.0
2300,68.0,15.0,60.0,3.0,0.0
2301,68.0,0.0,60.0,1.0,0.0
2302,77.0,75.0,60.0,2.0,0.0
2303,68.0,0.0,60.0,2.0,0.0
2304,77.0,0.0,60.0,1.0,0.0
2305,80.0,15.0,60.0,0.0,0.0
2306,71.0,0.0,60.0,0.0,0.0
2307,80.0,0.0,60.0,3.0,0.0
2308,71.0,0.0,60.0,3.0,0.0
2309,80.0,75.0,60.0,2.0,0.0
2310,71.0,0.0,60.0,2.0,0.0
2311,80.0,0.0,60.0,1.0,0.0
2312,71.0,0.0,60.0,1.0,0.0
2313,77.0,0.0,60.0,3.0,0.0
2314,68.0,0.0,60.0,3.0,0.0
2315,77.0,0.0,60.0,0.0,0.0
2316,68.0,15.0,60.0,0.0,0.0
2317,77.0,75.0,60.0,1.0,0.0
2318,77.0,0.0,60.0,2.0,0.0
2319,68.0,0.0,60.0,2.0,0.0
2320,68.0,0.0,60.0,1.0,0.0
2321,65.0,0.0,60.0,0.0,0.0
2322,74.0,0.0,60.0,3.0,0.0
2323,65.0,0.0,60.0,3.0,0.0
2324,74.0,15.0,60.0,0.0,0.0
2325,74.0,75.0,60.0,1.0,0.0
2326,74.0,0.0,60.0,2.0,0.0
2327,65.0,0.0,60.0,2.0,0.0
2328,65.0,0.0,60.0,1.0,0.0
2329,77.0,0.0,60.0,3.0,0.0
2330,77.0,0.0,60.0,0.0,0.0
2331,68.0,0.0,60.0,0.0,0.0
2332,68.0,15.0,60.0,3.0,0.0
2333,77.0,75.0,60.0,1.0,0.0
2334,68.0,0.0,60.0,1.0,0.0
2335,77.0,0.0,60.0,2.0,0.0
2336,68.0,0.0,60.0,2.0,0.0
2337,65.0,0.0,60.0,0.0,0.0
2338,74.0,15.0,60.0,0.0,0.0
2339,65.0,0.0,60.0,3.0,0.0
2340,74.0,0.0,60.0,3.0,0.0
2341,74.0,0.0,60.0,2.0,0.0
2342,65.0,75.0,60.0,2.0,0.0
2343,65.0,0.0,60.0,1.0,0.0
2344,74.0,0.0,60.0,1.0,0.0
2345,68.0,0.0,60.0,3.0,0.0
2346,77.0,15.0,60.0,3.0,0.0
2347,77.0,0.0,60.0,0.0,0.0
2348,68.0,0.0,60.0,0.0,0.0
2349,68.0,0.0,60.0,1.0,0.0
2350,77.0,0.0,60.0,1.0,0.0
2351,77.0,0.0,60.0,2.0,0.0
2352,68.0,75.0,60.0,2.0,0.0
2353,80.0,15.0,60.0,0.0,0.0
2354,71.0,0.0,60.0,0.0,0.0
2355,71.0,0.0,60.0,3.0,0.0
2356,80.0,0.0,60.0,3.0,0.0
2357,80.0,0.0,60.0,2.0,0.0
2358,71.0,0.0,60.0,2.0,0.0
2359,80.0,0.0,60.0,1.0,0.0
2360,71.0,75.0,60.0,1.0,0.0
2361,68.0,0.0,60.0,3.0,0.0
2362,77.0,0.0,60.0,0.0,0.0
2363,77.0,15.0,60.0,3.0,0.0
2364,68.0,0.0,60.0,0.0,0.0
2365,68.0,0.0,60.0,2.0,0.0
2366,77.0,75.0,60.0,2.0,0.0
2367,77.0,0.0,60.0,1.0,0.0
2368,68.0,0.0,60.0,1.0,0.0
2369,65.0,0.0,60.0,0.0,0.0
2370,74.0,0.0,60.0,3.0,0.0
2371,74.0,15.0,60.0,0.0,0.0
2372,65.0,0.0,60.0,3.0,0.0
2373,65.0,0.0,60.0,2.0,0.0
2374,74.0,0.0,60.0,2.0,0.0
2375,74.0,0.0,60.0,1.0,0.0
2376,65.0,75.0,60.0,1.0,0.0
2377,68.0,0.0,60.0,3.0,0.0
2378,77.0,0.0,60.0,3.0,0.0
2379,77.0,15.0,60.0,0.0,0.0
2380,68.0,0.0,60.0,0.0,0.0
2381,68.0,0.0,60.0,1.0,0.0
2382,68.0,0.0,60.0,2.0,0.0
2383,77.0,0.0,60.0,2.0,0.0
2384,77.0,75.0,60.0,1.0,0.0
2385,65.0,0.0,60.0,0.0,0.0
2386,74.0,0.0,60.0,0.0,0.0
2387,65.0,0.0,60.0,3.0,0.0
2388,74.0,15.0,60.0,3.0,0.0
2389,65.0,75.0,60.0,2.0,0.0
2390,74.0,0.0,60.0,2.0,0.0
2391,74.0,0.0,60.0,1.0,0.0
2392,65.0,0.0,60.0,1.0,0.0
2393,71.0,15.0,60.0,0.0,0.0
2394,71.0,0.0,60.0,3.0,0.0
2395,62.0,0.0,60.0,3.0,0.0
2396,62.0,0.0,60.0,0.0,0.0
2397,62.0,0.0,60.0,2.0,0.0
2398,71.0,0.0,60.0,2.0,0.0
2399,62.0,75.0,60.0,1.0,0.0
2400,71.0,0.0,60.0,1.0,0.0
2401,74.0,0.0,60.0,3.0,0.0
2402,65.0,0.0,60.0,0.0,0.0
2403,74.0,0.0,60.0,0.0,0.0
2404,65.0,15.0,60.0,3.0,0.0
2405,65.0,0.0,60.0,1.0,0.0
2406,74.0,75.0,60.0,1.0,0.0
2407,74.0,0.0,60.0,2.0,0.0
2408,65.0,0.0,60.0,2.0,0.0
2409,71.0,0.0,60.0,0.0,0.0
2410,62.0,0.0,60.0,3.0,0.0
2411,71.0,0.0,60.0,3.0,0.0
2412,62.0,15.0,60.0,0.0,0.0
2413,62.0,75.0,60.0,2.0,0.0
2414,71.0,0.0,60.0,2.0,0.0
2415,62.0,0.0,60.0,1.0,0.0
2416,71.0,0.0,60.0,1.0,0.0
2417,68.0,15.0,60.0,0.0,0.0
2418,68.0,0.0,60.0,3.0,0.0
2419,59.0,0.0,60.0,3.0,0.0
2420,59.0,0.0,60.0,0.0,0.0
2421,68.0,0.0,60.0,2.0,0.0
2422,68.0,0.0,60.0,1.0,0.0
2423,59.0,0.0,60.0,2.0,0.0
2424,59.0,75.0,60.0,1.0,0.0
2425,71.0,15.0,60.0,3.0,0.0
2426,71.0,0.0,60.0,0.0,0.0
2427,62.0,0.0,60.0,3.0,0.0
2428,62.0,0.0,60.0,0.0,0.0
2429,62.0,75.0,60.0,2.0,0.0
2430,71.0,0.0,60.0,2.0,0.0
2431,62.0,0.0,60.0,1.0,0.0
2432,71.0,0.0,60.0,1.0,0.0
2433,59.0,0.0,60.0,0.0,0.0
2434,68.0,15.0,60.0,0.0,0.0
2435,59.0,0.0,60.0,3.0,0.0
2436,68.0,0.0,60.0,3.0,0.0
2437,68.0,0.0,60.0,2.0,0.0
2438,59.0,0.0,60.0,2.0,0.0
2439,68.0,0.0,60.0,1.0,0.0
2440,59.0,75.0,60.0,1.0,0.0
2441,62.0,15.0,60.0,0.0,0.0
2442,71.0,0.0,60.0,3.0,0.0
2443,62.0,0.0,60.0,3.0,0.0
2444,71.0,0.0,60.0,0.0,0.0
2445,71.0,0.0,60.0,1.0,0.0
2446,62.0,75.0,60.0,1.0,0.0
2447,62.0,0.0,60.0,2.0,0.0
2448,71.0,0.0,60.0,2.0,0.0
2449,74.0,0.0,60.0,3.0,0.0
2450,65.0,0.0,60.0,3.0,0.0
2451,65.0,15.0,60.0,0.0,0.0
2452,74.0,0.0,60.0,0.0,0.0
2453,74.0,0.0,60.0,1.0,0.0
2454,65.0,0.0,60.0,2.0,0.0
2455,74.0,75.0,60.0,2.0,0.0
2456,65.0,0.0,60.0,1.0,0.0
2457,71.0,0.0,60.0,3.0,0.0
2458,62.0,0.0,60.0,3.0,0.0
2459,71.0,15.0,60.0,0.0,0.0
2460,62.0,0.0,60.0,0.0,0.0
2461,62.0,75.0,60.0,2.0,0.0
2462,62.0,0.0,60.0,1.0,0.0
2463,71.0,0.0,60.0,2.0,0.0
2464,71.0,0.0,60.0,1.0,0.0
2465,68.0,0.0,60.0,3.0,0.0
2466,68.0,15.0,60.0,0.0,0.0
2467,59.0,0.0,60.0,0.0,0.0
2468,59.0,0.0,60.0,3.0,0.0
2469,68.0,0.0,60.0,2.0,0.0
2470,59.0,0.0,60.0,2.0,0.0
2471,68.0,75.0,60.0,1.0,0.0
2472,59.0,0.0,60.0,1.0,0.0
2473,62.0,15.0,60.0,0.0,0.0
2474,71.0,0.0,60.0,0.0,0.0
2475,62.0,0.0,60.0,3.0,0.0
2476,71.0,0.0,60.0,3.0,0.0
2477,71.0,0.0,60.0,2.0,0.0
2478,62.0,0.0,60.0,2.0,0.0
2479,71.0,0.0,60.0,1.0,0.0
2480,62.0,75.0,60.0,1.0,0.0
2481,59.0,0.0,60.0,3.0,0.0
2482,68.0,15.0,60.0,3.0,0.0
2483,68.0,0.0,60.0,0.0,0.0
2484,59.0,0.0,60.0,0.0,0.0
2485,68.0,0.0,60.0,1.0,0.0
2486,59.0,75.0,60.0,1.0,0.0
2487,59.0,0.0,60.0,2.0,0.0
2488,68.0,0.0,60.0,2.0,0.0
2489,71.0,0.0,60.0,0.0,0.0
2490,62.0,15.0,60.0,0.0,0.0
2491,71.0,0.0,60.0,3.0,0.0
2492,62.0,0.0,60.0,3.0,0.0
2493,71.0,0.0,60.0,2.0,0.0
2494,62.0,0.0,60.0,2.0,0.0
2495,62.0,75.0,60.0,1.0,0.0
2496,71.0,0.0,60.0,1.0,0.0
2497,74.0,0.0,60.0,0.0,0.0
2498,65.0,0.0,60.0,0.0,0.0
2499,65.0,0.0,60.0,3.0,0.0
2500,74.0,15.0,60.0,3.0,0.0
2501,65.0,75.0,60.0,1.0,0.0
2502,65.0,0.0,60.0,2.0,0.0
2503,74.0,0.0,60.0,2.0,0.0
2504,74.0,0.0,60.0,1.0,0.0
2505,62.0,0.0,60.0,0.0,0.0
2506,71.0,0.0,60.0,0.0,0.0
2507,71.0,0.0,60.0,3.0,0.0
2508,62.0,15.0,60.0,3.0,0.0
2509,62.0,0.0,60.0,2.0,0.0
2510,62.0,0.0,60.0,1.0,0.0
2511,71.0,75.0,60.0,1.0,0.0
2512,71.0,0.0,60.0,2.0,0.0
2513,68.0,0.0,60.0,3.0,0.0
2514,59.0,15.0,60.0,3.0,0.0
2515,59.0,0.0,60.0,0.0,0.0
2516,68.0,0.0,60.0,0.0,0.0
2517,68.0,0.0,60.0,2.0,0.0
2518,59.0,75.0,60.0,2.0,0.0
2519,59.0,0.0,60.0,1.0,0.0
2520,68.0,0.0,60.0,1.0,0.0
2521,71.0,0.0,60.0,0.0,0.0
2522,71.0,15.0,60.0,3.0,0.0
2523,62.0,0.0,60.0,3.0,0.0
2524,62.0,0.0,60.0,0.0,0.0
2525,71.0,75.0,60.0,1.0,0.0
2526,62.0,0.0,60.0,2.0,0.0
2527,71.0,0.0,60.0,2.0,0.0
2528,62.0,0.0,60.0,1.0,0.0
2529,68.0,0.0,60.0,0.0,0.0
2530,59.0,0.0,60.0,0.0,0.0
2531,59.0,15.0,60.0,3.0,0.0
2532,68.0,0.0,60.0,3.0,0.0
2533,59.0,75.0,60.0,1.0,0.0
2534,68.0,0.0,60.0,1.0,0.0
2535,59.0,0.0,60.0,2.0,0.0
2536,68.0,0.0,60.0,2.0,0.0
2537,71.0,0.0,60.0,0.0,0.0
2538,62.0,0.0,60.0,3.0,0.0
2539,71.0,0.0,60.0,3.0,0.0
2540,62.0,15.0,60.0,0.0,0.0
2541,62.0,0.0,60.0,2.0,0.0
2542,71.0,0.0,60.0,2.0,0.0
2543,62.0,75.0,60.0,1.0,0.0
2544,71.0,0.0,60.0,1.0,0.0
2545,74.0,0.0,60.0,3.0,0.0
2546,65.0,0.0,60.0,3.0,0.0
2547,65.0,0.0,60.0,0.0,0.0
2548,74.0,15.0,60.0,0.0,0.0
2549,74.0,0.0,60.0,1.0,0.0
2550,74.0,0.0,60.0,2.0,0.0
2551,65.0,75.0,60.0,2.0,0.0
2552,65.0,0.0,60.0,1.0,0.0
2553,71.0,0.0,60.0,0.0,0.0
2554,62.0,0.0,60.0,3.0,0.0
2555,62.0,15.0,60.0,0.0,0.0
2556,71.0,0.0,60.0,3.0,0.0
2557,71.0,0.0,60.0,2.0,0.0
2558,62.0,0.0,60.0,2.0,0.0
2559,62.0,75.0,60.0,1.0,0.0
2560,71.0,0.0,60.0,1.0,0.0
2561,68.0,0.0,60.0,0.0,0.0
2562,59.0,15.0,60.0,0.0,0.0
2563,68.0,0.0,60.0,3.0,0.0
2564,59.0,0.0,60.0,3.0,0.0
2565,68.0,75.0,60.0,1.0,0.0
2566,59.0,0.0,60.0,2.0,0.0
2567,68.0,0.0,60.0,2.0,0.0
2568,59.0,0.0,60.0,1.0,0.0
2569,71.0,15.0,60.0,0.0,0.0
2570,62.0,0.0,60.0,0.0,0.0
2571,71.0,0.0,60.0,3.0,0.0
2572,62.0,0.0,60.0,3.0,0.0
2573,62.0,0.0,60.0,2.0,0.0
2574,71.0,75.0,60.0,2.0,0.0
2575,62.0,0.0,60.0,1.0,0.0
2576,71.0,0.0,60.0,1.0,0.0
2577,59.0,0.0,60.0,0.0,0.0
2578,59.0,0.0,60.0,3.0,0.0
2579,68.0,0.0,60.0,3.0,0.0
2580,68.0,15.0,60.0,0.0,0.0
2581,59.0,0.0,60.0,2.0,0.0
2582,68.0,0.0,60.0,2.0,0.0
2583,59.0,0.0,60.0,1.0,0.0
2584,68.0,75.0,60.0,1.0,0.0
2585,56.0,0.0,60.0,0.0,0.0
2586,65.0,15.0,60.0,0.0,0.0
2587,65.0,0.0,60.0,3.0,0.0
2588,56.0,0.0,60.0,3.0,0.0
2589,56.0,0.0,60.0,2.0,0.0
2590,65.0,0.0,60.0,2.0,0.0
2591,56.0,75.0,60.0,1.0,0.0
2592,65.0,0.0,60.0,1.0,0.0
2593,68.0,0.0,60.0,3.0,0.0
2594,59.0,0.0,60.0,3.0,0.0
2595,59.0,0.0,60.0,0.0,0.0
2596,68.0,15.0,60.0,0.0,0.0
2597,59.0,75.0,60.0,2.0,0.0
2598,68.0,0.0,60.0,2.0,0.0
2599,68.0,0.0,60.0,1.0,0.0
2600,59.0,0.0,60.0,1.0,0.0
2601,65.0,0.0,60.0,3.0,0.0
2602,56.0,15.0,60.0,3.0,0.0
2603,56.0,0.0,60.0,0.0,0.0
2604,65.0,0.0,60.0,0.0,0.0
2605,56.0,75.0,60.0,1.0,0.0
2606,65.0,0.0,60.0,2.0,0.0
2607,56.0,0.0,60.0,2.0,0.0
2608,65.0,0.0,60.0,1.0,0.0
2609,53.0,0.0,60.0,0.0,0.0
2610,62.0,15.0,60.0,0.0,0.0
2611,62.0,0.0,60.0,3.0,0.0
2612,53.0,0.0,60.0,3.0,0.0
2613,53.0,0.0,60.0,1.0,0.0
2614,62.0,0.0,60.0,1.0,0.0
2615,53.0,75.0,60.0,2.0,0.0
2616,62.0,0.0,60.0,2.0,0.0
2617,56.0,0.0,60.0,0.0,0.0
2618,65.0,0.0,60.0,0.0,0.0
2619,56.0,0.0,60.0,3.0,0.0
2620,65.0,15.0,60.0,3.0,0.0
2621,65.0,0.0,60.0,2.0,0.0
2622,56.0,0.0,60.0,2.0,0.0
2623,65.0,0.0,60.0,1.0,0.0
2624,56.0,75.0,60.0,1.0,0.0
2625,62.0,0.0,60.0,0.0,0.0
2626,53.0,0.0,60.0,3.0,0.0
2627,62.0,15.0,60.0,3.0,0.0
2628,53.0,0.0,60.0,0.0,0.0
2629,62.0,0.0,60.0,1.0,0.0
2630,53.0,0.0,60.0,1.0,0.0
2631,53.0,75.0,60.0,2.0,0.0
2632,62.0,0.0,60.0,2.0,0.0
2633,56.0,15.0,60.0,0.0,0.0
2634,65.0,0.0,60.0,0.0,0.0
2635,56.0,0.0,60.0,3.0,0.0
2636,65.0,0.0,60.0,3.0,0.0
2637,65.0,0.0,60.0,2.0,0.0
2638,56.0,0.0,60.0,2.0,0.0
2639,65.0,75.0,60.0,1.0,0.0
2640,56.0,0.0,60.0,1.0,0.0
2641,68.0,0.0,60.0,0.0,0.0
2642,68.0,0.0,60.0,3.0,0.0
2643,59.0,0.0,60.0,0.0,0.0
2644,59.0,15.0,60.0,3.0,0.0
2645,68.0,75.0,60.0,1.0,0.0
2646,68.0,0.0,60.0,2.0,0.0
2647,59.0,0.0,60.0,2.0,0.0
2648,59.0,0.0,60.0,1.0,0.0
2649,56.0,0.0,60.0,3.0,0.0
2650,56.0,0.0,60.0,0.0,0.0
2651,65.0,0.0,60.0,0.0,0.0
2652,65.0,15.0,60.0,3.0,0.0
2653,56.0,75.0,60.0,2.0,0.0
2654,65.0,0.0,60.0,2.0,0.0
2655,56.0,0.0,60.0,1.0,0.0
2656,65.0,0.0,60.0,1.0,0.0
2657,53.0,15.0,60.0,0.0,0.0
2658,53.0,0.0,60.0,3.0,0.0
2659,62.0,0.0,60.0,0.0,0.0
2660,62.0,0.0,60.0,3.0,0.0
2661,62.0,75.0,60.0,2.0,0.0
2662,53.0,0.0,60.0,1.0,0.0
2663,62.0,0.0,60.0,1.0,0.0
2664,53.0,0.0,60.0,2.0,0.0
2665,65.0,0.0,60.0,3.0,0.0
2666,56.0,15.0,60.0,3.0,0.0
2667,65.0,0.0,60.0,0.0,0.0
2668,56.0,0.0,60.0,0.0,0.0
2669,56.0,75.0,60.0,1.0,0.0
2670,65.0,0.0,60.0,1.0,0.0
2671,65.0,0.0,60.0,2.0,0.0
2672,56.0,0.0,60.0,2.0,0.0
2673,53.0,0.0,60.0,0.0,0.0
2674,53.0,15.0,60.0,3.0,0.0
2675,62.0,0.0,60.0,0.0,0.0
2676,62.0,0.0,60.0,3.0,0.0
2677,53.0,0.0,60.0,2.0,0.0
2678,62.0,0.0,60.0,2.0,0.0
2679,53.0,0.0,60.0,1.0,0.0
2680,62.0,75.0,60.0,1.0,0.0
2681,56.0,0.0,60.0,3.0,0.0
2682,65.0,15.0,60.0,3.0,0.0
2683,65.0,0.0,60.0,0.0,0.0
2684,56.0,0.0,60.0,0.0,0.0
2685,56.0,75.0,60.0,1.0,0.0
2686,65.0,0.0,60.0,1.0,0.0
2687,65.0,0.0,60.0,2.0,0.0
2688,56.0,0.0,60.0,2.0,0.0
2689,59.0,0.0,60.0,3.0,0.0
2690,59.0,0.0,60.0,0.0,0.0
2691,68.0,15.0,60.0,0.0,0.0
2692,68.0,0.0,60.0,3.0,0.0
2693,68.0,0.0,60.0,2.0,0.0
2694,68.0,0.0,60.0,1.0,0.0
2695,59.0,0.0,60.0,2.0,0.0
2696,59.0,75.0,60.0,1.0,0.0
2697,65.0,15.0,60.0,3.0,0.0
2698,56.0,0.0,60.0,3.0,0.0
2699,56.0,0.0,60.0,0.0,0.0
2700,65.0,0.0,60.0,0.0,0.0
2701,65.0,0.0,60.0,1.0,0.0
2702,65.0,75.0,60.0,2.0,0.0
2703,56.0,0.0,60.0,2.0,0.0
2704,56.0,0.0,60.0,1.0,0.0
2705,53.0,0.0,60.0,0.0,0.0
2706,62.0,0.0,60.0,0.0,0.0
2707,53.0,0.0,60.0,3.0,0.0
2708,62.0,15.0,60.0,3.0,0.0
2709,53.0,0.0,60.0,2.0,0.0
2710,62.0,0.0,60.0,1.0,0.0
2711,53.0,0.0,60.0,1.0,0.0
2712,62.0,75.0,60.0,2.0,0.0
2713,56.0,15.0,60.0,3.0,0.0
2714,65.0,0.0,60.0,3.0,0.0
2715,65.0,0.0,60.0,0.0,0.0
2716,56.0,0.0,60.0,0.0,0.0
2717,56.0,0.0,60.0,1.0,0.0
2718,65.0,75.0,60.0,1.0,0.0
2719,65.0,0.0,60.0,2.0,0.0
2720,56.0,0.0,60.0,2.0,0.0
2721,53.0,0.0,60.0,3.0,0.0
2722,62.0,0.0,60.0,3.0,0.0
2723,62.0,0.0,60.0,0.0,0.0
2724,53.0,15.0,60.0,0.0,0.0
2725,53.0,0.0,60.0,1.0,0.0
2726,62.0,0.0,60.0,1.0,0.0
2727,53.0,0.0,60.0,2.0,0.0
2728,62.0,75.0,60.0,2.0,0.0
2729,56.0,0.0,60.0,3.0,0.0
2730,56.0,0.0,60.0,0.0,0.0
2731,65.0,0.0,60.0,3.0,0.0
2732,65.0,15.0,60.0,0.0,0.0
2733,65.0,75.0,60.0,1.0,0.0
2734,56.0,0.0,60.0,1.0,0.0
2735,56.0,0.0,60.0,2.0,0.0
2736,65.0,0.0,60.0,2.0,0.0
2737,59.0,0.0,60.0,3.0,0.0
2738,68.0,15.0,60.0,3.0,0.0
2739,59.0,0.0,60.0,0.0,0.0
2740,68.0,0.0,60.0,0.0,0.0
2741,68.0,75.0,60.0,2.0,0.0
2742,59.0,0.0,60.0,2.0,0.0
2743,68.0,0.0,60.0,1.0,0.0
2744,59.0,0.0,60.0,1.0,0.0
2745,56.0,0.0,60.0,3.0,0.0
2746,65.0,15.0,60.0,3.0,0.0
2747,65.0,0.0,60.0,0.0,0.0
2748,56.0,0.0,60.0,0.0,0.0
2749,56.0,75.0,60.0,2.0,0.0
2750,65.0,0.0,60.0,2.0,0.0
2751,65.0,0.0,60.0,1.0,0.0
2752,56.0,0.0,60.0,1.0,0.0
2753,53.0,0.0,60.0,0.0,0.0
2754,62.0,0.0,60.0,0.0,0.0
2755,62.0,15.0,60.0,3.0,0.0
2756,53.0,0.0,60.0,3.0,0.0
2757,53.0,0.0,60.0,1.0,0.0
2758,62.0,75.0,60.0,1.0,0.0
2759,53.0,0.0,60.0,2.0,0.0
2760,62.0,0.0,60.0,2.0,0.0
2761,65.0,0.0,60.0,3.0,0.0
2762,56.0,15.0,60.0,3.0,0.0
2763,65.0,0.0,60.0,0.0,0.0
2764,56.0,0.0,60.0,0.0,0.0
2765,65.0,0.0,60.0,2.0,0.0
2766,56.0,75.0,60.0,2.0,0.0
2767,56.0,0.0,60.0,1.0,0.0
2768,65.0,0.0,60.0,1.0,0.0
2769,53.0,15.0,60.0,0.0,0.0
2770,62.0,0.0,60.0,0.0,0.0
2771,53.0,0.0,60.0,3.0,0.0
2772,62.0,0.0,60.0,3.0,0.0
2773,62.0,0.0,60.0,1.0,0.0
2774,53.0,0.0,60.0,1.0,0.0
2775,53.0,0.0,60.0,2.0,0.0
2776,62.0,75.0,60.0,2.0,0.0
2777,56.0,0.0,60.0,0.0,0.0
2778,56.0,15.0,60.0,3.0,0.0
2779,65.0,0.0,60.0,3.0,0.0
2780,65.0,0.0,60.0,0.0,0.0
2781,56.0,0.0,60.0,2.0,0.0
2782,65.0,75.0,60.0,1.0,0.0
2783,56.0,0.0,60.0,1.0,0.0
2784,65.0,0.0,60.0,2.0,0.0
2785,59.0,0.0,60.0,3.0,0.0
2786,68.0,0.0,60.0,3.0,0.0
2787,59.0,0.0,60.0,0.0,0.0
2788,68.0,15.0,60.0,0.0,0.0
2789,68.0,0.0,60.0,1.0,0.0
2790,59.0,75.0,60.0,2.0,0.0
2791,59.0,0.0,60.0,1.0,0.0
2792,68.0,0.0,60.0,2.0,0.0
2793,65.0,15.0,60.0,0.0,0.0
2794,56.0,0.0,60.0,0.0,0.0
2795,56.0,0.0,60.0,3.0,0.0
2796,65.0,0.0,60.0,3.0,0.0
2797,65.0,75.0,60.0,2.0,0.0
2798,56.0,0.0,60.0,2.0,0.0
2799,56.0,0.0,60.0,1.0,0.0
2800,65.0,0.0,60.0,1.0,0.0
2801,59.0,15.0,60.0,3.0,0.0
2802,68.0,0.0,60.0,3.0,0.0
2803,68.0,0.0,60.0,0.0,0.0
2804,59.0,0.0,60.0,0.0,0.0
2805,68.0,0.0,60.0,2.0,0.0
2806,59.0,75.0,60.0,2.0,0.0
2807,59.0,0.0,60.0,1.0,0.0
2808,68.0,0.0,60.0,1.0,0.0
2809,71.0,15.0,60.0,3.0,0.0
2810,71.0,0.0,60.0,0.0,0.0
2811,71.0,0.0,60.0,1.0,0.0
2812,71.0,75.0,60.0,2.0,0.0
2813,68.0,0.0,60.0,3.0,0.0
2814,59.0,0.0,60.0,3.0,0.0
2815,68.0,15.0,60.0,0.0,0.0
2816,59.0,0.0,60.0,0.0,0.0
2817,59.0,75.0,60.0,2.0,0.0
2818,59.0,0.0,60.0,1.0,0.0
2819,68.0,0.0,60.0,1.0,0.0
2820,68.0,0.0,60.0,2.0,0.0
2821,65.0,15.0,60.0,3.0,0.0
2822,65.0,0.0,60.0,0.0,0.0
2823,56.0,0.0,60.0,0.0,0.0
2824,56.0,0.0,60.0,3.0,0.0
2825,65.0,75.0,60.0,2.0,0.0
2826,56.0,0.0,60.0,1.0,0.0
2827,65.0,0.0,60.0,1.0,0.0
2828,56.0,0.0,60.0,2.0,0.0
2829,59.0,0.0,60.0,0.0,0.0
2830,68.0,0.0,60.0,0.0,0.0
2831,59.0,15.0,60.0,3.0,0.0
2832,68.0,0.0,60.0,3.0,0.0
2833,68.0,0.0,60.0,1.0,0.0
2834,59.0,0.0,60.0,2.0,0.0
2835,68.0,75.0,60.0,2.0,0.0
2836,59.0,0.0,60.0,1.0,0.0
2837,56.0,0.0,60.0,0.0,0.0
2838,65.0,0.0,60.0,0.0,0.0
2839,56.0,15.0,60.0,3.0,0.0
2840,65.0,0.0,60.0,3.0,0.0
2841,65.0,0.0,60.0,2.0,0.0
2842,56.0,75.0,60.0,2.0,0.0
2843,65.0,0.0,60.0,1.0,0.0
2844,56.0,0.0,60.0,1.0,0.0
2845,68.0,0.0,60.0,3.0,0.0
2846,59.0,0.0,60.0,3.0,0.0
2847,59.0,15.0,60.0,0.0,0.0
2848,68.0,0.0,60.0,0.0,0.0
2849,59.0,0.0,60.0,2.0,0.0
2850,68.0,0.0,60.0,2.0,0.0
2851,68.0,0.0,60.0,1.0,0.0
2852,59.0,75.0,60.0,1.0,0.0
2853,62.0,15.0,60.0,0.0,0.0
2854,71.0,0.0,60.0,0.0,0.0
2855,62.0,0.0,60.0,3.0,0.0
2856,71.0,0.0,60.0,3.0,0.0
2857,62.0,75.0,60.0,2.0,0.0
2858,71.0,0.0,60.0,2.0,0.0
2859,71.0,0.0,60.0,1.0,0.0
2860,62.0,0.0,60.0,1.0,0.0
2861,59.0,0.0,60.0,0.0,0.0
2862,68.0,0.0,60.0,0.0,0.0
2863,59.0,0.0,60.0,3.0,0.0
2864,68.0,15.0,60.0,3.0,0.0
2865,68.0,75.0,60.0,1.0,0.0
2866,68.0,0.0,60.0,2.0,0.0
2867,59.0,0.0,60.0,2.0,0.0
2868,59.0,0.0,60.0,1.0,0.0
2869,56.0,0.0,60.0,0.0,0.0
2870,65.0,0.0,60.0,0.0,0.0
2871,56.0,15.0,60.0,3.0,0.0
2872,65.0,0.0,60.0,3.0,0.0
2873,56.0,75.0,60.0,2.0,0.0
2874,65.0,0.0,60.0,2.0,0.0
2875,65.0,0.0,60.0,1.0,0.0
2876,56.0,0.0,60.0,1.0,0.0
2877,68.0,0.0,60.0,3.0,0.0
2878,59.0,0.0,60.0,3.0,0.0
2879,68.0,0.0,60.0,0.0,0.0
2880,59.0,15.0,60.0,0.0,0.0
2881,68.0,0.0,60.0,1.0,0.0
2882,59.0,0.0,60.0,1.0,0.0
2883,68.0,75.0,60.0,2.0,0.0
2884,59.0,0.0,60.0,2.0,0.0
2885,65.0,0.0,60.0,0.0,0.0
2886,56.0,0.0,60.0,0.0,0.0
2887,56.0,15.0,60.0,3.0,0.0
2888,65.0,0.0,60.0,3.0,0.0
2889,65.0,0.0,60.0,1.0,0.0
2890,56.0,0.0,60.0,2.0,0.0
2891,65.0,0.0,60.0,2.0,0.0
2892,56.0,75.0,60.0,1.0,0.0
2893,59.0,15.0,60.0,3.0,0.0
2894,68.0,0.0,60.0,0.0,0.0
2895,59.0,0.0,60.0,0.0,0.0
2896,68.0,0.0,60.0,3.0,0.0
2897,59.0,0.0,60.0,2.0,0.0
2898,59.0,0.0,60.0,1.0,0.0
2899,68.0,75.0,60.0,2.0,0.0
2900,68.0,0.0,60.0,1.0,0.0
2901,62.0,0.0,60.0,3.0,0.0
2902,71.0,0.0,60.0,0.0,0.0
2903,62.0,0.0,60.0,0.0,0.0
2904,71.0,15.0,60.0,3.0,0.0
2905,62.0,0.0,60.0,2.0,0.0
2906,71.0,0.0,60.0,1.0,0.0
2907,62.0,75.0,60.0,1.0,0.0
2908,71.0,0.0,60.0,2.0,0.0
2909,59.0,0.0,60.0,0.0,0.0
2910,68.0,0.0,60.0,0.0,0.0
2911,59.0,15.0,60.0,3.0,0.0
2912,68.0,0.0,60.0,3.0,0.0
2913,59.0,0.0,60.0,2.0,0.0
2914,68.0,0.0,60.0,2.0,0.0
2915,68.0,0.0,60.0,1.0,0.0
2916,59.0,75.0,60.0,1.0,0.0
2917,56.0,0.0,60.0,3.0,0.0
2918,65.0,0.0,60.0,3.0,0.0
2919,56.0,15.0,60.0,0.0,0.0
2920,65.0,0.0,60.0,0.0,0.0
2921,65.0,0.0,60.0,2.0,0.0
2922,56.0,75.0,60.0,2.0,0.0
2923,56.0,0.0,60.0,1.0,0.0
2924,65.0,0.0,60.0,1.0,0.0
2925,68.0,0.0,60.0,0.0,0.0
2926,59.0,0.0,60.0,0.0,0.0
2927,68.0,15.0,60.0,3.0,0.0
2928,59.0,0.0,60.0,3.0,0.0
2929,68.0,0.0,60.0,1.0,0.0
2930,68.0,0.0,60.0,2.0,0.0
2931,59.0,0.0,60.0,2.0,0.0
2932,59.0,75.0,60.0,1.0,0.0
2933,65.0,0.0,60.0,3.0,0.0
2934,56.0,0.0,60.0,3.0,0.0
2935,56.0,0.0,60.0,0.0,0.0
2936,65.0,15.0,60.0,0.0,0.0
2937,65.0,0.0,60.0,1.0,0.0
2938,56.0,0.0,60.0,2.0,0.0
2939,65.0,75.0,60.0,2.0,0.0
2940,56.0,0.0,60.0,1.0,0.0
2941,59.0,0.0,60.0,0.0,0.0
2942,68.0,0.0,60.0,3.0,0.0
2943,59.0,0.0,60.0,3.0,0.0
2944,68.0,15.0,60.0,0.0,0.0
2945,68.0,0.0,60.0,2.0,0.0
2946,59.0,0.0,60.0,2.0,0.0
2947,59.0,75.0,60.0,1.0,0.0
2948,68.0,0.0,60.0,1.0,0.0
2949,71.0,0.0,60.0,0.0,0.0
2950,62.0,0.0,60.0,3.0,0.0
2951,71.0,15.0,60.0,3.0,0.0
2952,62.0,0.0,60.0,0.0,0.0
2953,71.0,0.0,60.0,2.0,0.0
2954,71.0,0.0,60.0,1.0,0.0
2955,62.0,0.0,60.0,1.0,0.0
2956,62.0,75.0,60.0,2.0,0.0
2957,59.0,15.0,60.0,0.0,0.0
2958,68.0,0.0,60.0,0.0,0.0
2959,68.0,0.0,60.0,3.0,0.0
2960,59.0,0.0,60.0,3.0,0.0
2961,59.0,0.0,60.0,1.0,0.0
2962,68.0,0.0,60.0,1.0,0.0
2963,59.0,0.0,60.0,2.0,0.0
2964,68.0,75.0,60.0,2.0,0.0
2965,62.0,0.0,60.0,0.0,0.0
2966,71.0,15.0,60.0,0.0,0.0
2967,71.0,0.0,60.0,3.0,0.0
2968,62.0,0.0,60.0,3.0,0.0
2969,62.0,0.0,60.0,2.0,0.0
2970,62.0,0.0,60.0,1.0,0.0
2971,71.0,75.0,60.0,1.0,0.0
2972,71.0,0.0,60.0,2.0,0.0
2973,74.0,0.0,60.0,3.0,0.0
2974,65.0,0.0,60.0,3.0,0.0
2975,65.0,0.0,60.0,0.0,0.0
2976,74.0,15.0,60.0,0.0,0.0
2977,65.0,75.0,60.0,1.0,0.0
2978,74.0,0.0,60.0,2.0,0.0
2979,65.0,0.0,60.0,2.0,0.0
2980,74.0,0.0,60.0,1.0,0.0
2981,62.0,0.0,60.0,0.0,0.0
2982,71.0,0.0,60.0,0.0,0.0
2983,71.0,15.0,60.0,3.0,0.0
2984,62.0,0.0,60.0,3.0,0.0
2985,62.0,75.0,60.0,2.0,0.0
2986,62.0,0.0,60.0,1.0,0.0
2987,71.0,0.0,60.0,2.0,0.0
2988,71.0,0.0,60.0,1.0,0.0
2989,65.0,0.0,60.0,3.0,0.0
2990,74.0,0.0,60.0,0.0,0.0
2991,65.0,0.0,60.0,0.0,0.0
2992,74.0,15.0,60.0,3.0,0.0
2993,74.0,0.0,60.0,2.0,0.0
2994,74.0,0.0,60.0,1.0,0.0
2995,65.0,0.0,60.0,1.0,0.0
2996,65.0,75.0,60.0,2.0,0.0
2997,62.0,0.0,60.0,3.0,0.0
2998,71.0,15.0,60.0,3.0,0.0
2999,71.0,0.0,60.0,0.0,0.0
3000,62.0,0.0,60.0,0.0,0.0
3001,62.0,75.0,60.0,1.0,0.0
3002,71.0,0.0,60.0,2.0,0.0
3003,62.0,0.0,60.0,2.0,0.0
3004,71.0,0.0,60.0,1.0,0.0
3005,74.0,15.0,60.0,3.0,0.0
3006,65.0,0.0,60.0,3.0,0.0
3007,74.0,0.0,60.0,0.0,0.0
3008,65.0,0.0,60.0,0.0,0.0
3009,74.0,75.0,60.0,2.0,0.0
3010,74.0,0.0,60.0,1.0,0.0
3011,65.0,0.0,60.0,1.0,0.0
3012,65.0,0.0,60.0,2.0,0.0
3013,71.0,0.0,60.0,0.0,0.0
3014,62.0,0.0,60.0,0.0,0.0
3015,62.0,0.0,60.0,3.0,0.0
3016,71.0,15.0,60.0,3.0,0.0
3017,71.0,0.0,60.0,1.0,0.0
3018,71.0,0.0,60.0,2.0,0.0
3019,62.0,0.0,60.0,2.0,0.0
3020,62.0,75.0,60.0,1.0,0.0
3021,65.0,0.0,60.0,3.0,0.0
3022,74.0,15.0,60.0,3.0,0.0
3023,74.0,0.0,60.0,0.0,0.0
3024,65.0,0.0,60.0,0.0,0.0
3025,65.0,0.0,60.0,1.0,0.0
3026,65.0,0.0,60.0,2.0,0.0
3027,74.0,75.0,60.0,2.0,0.0
3028,74.0,0.0,60.0,1.0,0.0
3029,71.0,15.0,60.0,0.0,0.0
3030,62.0,0.0,60.0,0.0,0.0
3031,62.0,0.0,60.0,3.0,0.0
3032,71.0,0.0,60.0,3.0,0.0
3033,71.0,0.0,60.0,2.0,0.0
3034,71.0,0.0,60.0,1.0,0.0
3035,62.0,0.0,60.0,1.0,0.0
3036,62.0,75.0,60.0,2.0,0.0
3037,65.0,0.0,60.0,3.0,0.0
3038,74.0,15.0,60.0,3.0,0.0
3039,74.0,0.0,60.0,0.0,0.0
3040,65.0,0.0,60.0,0.0,0.0
3041,74.0,0.0,60.0,1.0,0.0
3042,65.0,0.0,60.0,1.0,0.0
3043,74.0,75.0,60.0,2.0,0.0
3044,65.0,0.0,60.0,2.0,0.0
3045,71.0,0.0,60.0,3.0,0.0
3046,62.0,15.0,60.0,3.0,0.0
3047,71.0,0.0,60.0,0.0,0.0
3048,62.0,0.0,60.0,0.0,0.0
3049,71.0,0.0,60.0,2.0,0.0
3050,71.0,75.0,60.0,1.0,0.0
3051,62.0,0.0,60.0,1.0,0.0
3052,62.0,0.0,60.0,2.0,0.0
3053,74.0,0.0,60.0,0.0,0.0
3054,65.0,0.0,60.0,0.0,0.0
3055,74.0,15.0,60.0,3.0,0.0
3056,65.0,0.0,60.0,3.0,0.0
3057,74.0,0.0,60.0,1.0,0.0
3058,65.0,0.0,60.0,1.0,0.0
3059,74.0,0.0,60.0,2.0,0.0
3060,65.0,75.0,60.0,2.0,0.0
3061,77.0,0.0,60.0,3.0,0.0
3062,77.0,0.0,60.0,0.0,0.0
3063,68.0,15.0,60.0,0.0,0.0
3064,68.0,0.0,60.0,3.0,0.0
3065,77.0,0.0,60.0,1.0,0.0
3066,68.0,0.0,60.0,2.0,0.0
3067,68.0,75.0,60.0,1.0,0.0
3068,77.0,0.0,60.0,2.0,0.0
3069,74.0,0.0,60.0,3.0,0.0
3070,74.0,15.0,60.0,0.0,0.0
3071,65.0,0.0,60.0,0.0,0.0
3072,65.0,0.0,60.0,3.0,0.0
3073,65.0,0.0,60.0,1.0,0.0
3074,74.0,0.0,60.0,2.0,0.0
3075,65.0,75.0,60.0,2.0,0.0
3076,74.0,0.0,60.0,1.0,0.0
3077,68.0,0.0,60.0,3.0,0.0
3078,77.0,15.0,60.0,3.0,0.0
3079,68.0,0.0,60.0,0.0,0.0
3080,77.0,0.0,60.0,0.0,0.0
3081,68.0,0.0,60.0,2.0,0.0
3082,77.0,75.0,60.0,2.0,0.0
3083,77.0,0.0,60.0,1.0,0.0
3084,68.0,0.0,60.0,1.0,0.0
3085,71.0,0.0,60.0,0.0,0.0
3086,80.0,0.0,60.0,0.0,0.0
3087,80.0,0.0,60.0,3.0,0.0
3088,71.0,15.0,60.0,3.0,0.0
3089,71.0,0.0,60.0,1.0,0.0
3090,80.0,0.0,60.0,2.0,0.0
3091,80.0,75.0,60.0,1.0,0.0
3092,71.0,0.0,60.0,2.0,0.0
3093,77.0,0.0,60.0,0.0,0.0
3094,77.0,0.0,60.0,3.0,0.0
3095,68.0,0.0,60.0,3.0,0.0
3096,68.0,15.0,60.0,0.0,0.0
3097,68.0,0.0,60.0,2.0,0.0
3098,77.0,0.0,60.0,2.0,0.0
3099,68.0,75.0,60.0,1.0,0.0
3100,77.0,0.0,60.0,1.0,0.0
3101,71.0,0.0,60.0,3.0,0.0
3102,71.0,15.0,60.0,0.0,0.0
3103,80.0,0.0,60.0,3.0,0.0
3104,80.0,0.0,60.0,0.0,0.0
3105,80.0,0.0,60.0,1.0,0.0
3106,71.0,0.0,60.0,2.0,0.0
3107,80.0,0.0,60.0,2.0,0.0
3108,71.0,75.0,60.0,1.0,0.0
3109,77.0,0.0,60.0,0.0,0.0
3110,68.0,15.0,60.0,3.0,0.0
3111,68.0,0.0,60.0,0.0,0.0
3112,77.0,0.0,60.0,3.0,0.0
3113,68.0,75.0,60.0,2.0,0.0
3114,77.0,0.0,60.0,2.0,0.0
3115,68.0,0.0,60.0,1.0,0.0
3116,77.0,0.0,60.0,1.0,0.0
3117,71.0,15.0,60.0,3.0,0.0
3118,71.0,0.0,60.0,0.0,0.0
3119,80.0,0.0,60.0,0.0,0.0
3120,80.0,0.0,60.0,3.0,0.0
3121,80.0,75.0,60.0,2.0,0.0
3122,80.0,0.0,60.0,1.0,0.0
3123,71.0,0.0,60.0,1.0,0.0
3124,71.0,0.0,60.0,2.0,0.0
3125,68.0,15.0,60.0,0.0,0.0
3126,68.0,0.0,60.0,3.0,0.0
3127,77.0,0.0,60.0,3.0,0.0
3128,77.0,0.0,60.0,0.0,0.0
3129,77.0,0.0,60.0,1.0,0.0
3130,68.0,75.0,60.0,2.0,0.0
3131,77.0,0.0,60.0,2.0,0.0
3132,68.0,0.0,60.0,1.0,0.0
3133,71.0,0.0,60.0,0.0,0.0
3134,80.0,15.0,60.0,0.0,0.0
3135,80.0,0.0,60.0,3.0,0.0
3136,71.0,0.0,60.0,3.0,0.0
3137,71.0,0.0,60.0,1.0,0.0
3138,80.0,0.0,60.0,1.0,0.0
3139,80.0,0.0,60.0,2.0,0.0
3140,71.0,75.0,60.0,2.0,0.0
3141,68.0,15.0,60.0,0.0,0.0
3142,77.0,0.0,60.0,0.0,0.0
3143,77.0,0.0,60.0,3.0,0.0
3144,68.0,0.0,60.0,3.0,0.0
3145,68.0,60.0,60.0,1.0,0.0
3146,68.0,0.0,60.0,2.0,0.0
3147,77.0,0.0,60.0,2.0,0.0
3148,77.0,0.0,60.0,1.0,0.0
3149,80.0,15.0,60.0,0.0,0.0
3150,71.0,0.0,60.0,0.0,0.0
3151,71.0,0.0,60.0,3.0,0.0
3152,80.0,0.0,60.0,3.0,0.0
3153,80.0,0.0,60.0,1.0,0.0
3154,71.0,705.0,60.0,1.0,0.0
3155,71.0,0.0,60.0,2.0,0.0
3156,80.0,15.0,60.0,2.0,0.0
3157,59.0,0.0,720.0,3.0,0.0
3158,80.0,15.0,720.0,3.0,0.0
3159,85.0,0.0,720.0,0.0,0.0
3160,77.0,0.0,720.0,0.0,0.0
3161,73.0,0.0,720.0,0.0,0.0
3162,68.0,0.0,720.0,0.0,0.0
3163,65.0,0.0,720.0,0.0,0.0
3164,61.0,0.0,720.0,0.0,0.0
3165,59.0,0.0,720.0,0.0,0.0
3166,85.0,0.0,720.0,3.0,0.0
3167,80.0,0.0,720.0,0.0,0.0
3168,80.0,0.0,720.0,1.0,0.0
3169,85.0,0.0,720.0,1.0,0.0
3170,68.0,0.0,720.0,1.0,0.0
3171,65.0,0.0,720.0,1.0,0.0
3172,61.0,0.0,720.0,1.0,0.0
3173,59.0,0.0,720.0,1.0,0.0
3174,85.0,0.0,720.0,2.0,0.0
3175,80.0,0.0,720.0,2.0,0.0
3176,73.0,0.0,720.0,1.0,0.0
3177,73.0,0.0,720.0,2.0,0.0
3178,65.0,0.0,720.0,2.0,0.0
3179,77.0,0.0,720.0,2.0,0.0
3180,61.0,690.0,720.0,2.0,0.0
3181,59.0,0.0,720.0,2.0,0.0
3182,77.0,0.0,720.0,1.0,0.0
3183,68.0,0.0,720.0,2.0,0.0
3184,85.0,0.0,720.0,3.0,0.0
3185,81.0,0.0,720.0,3.0,0.0
3186,57.0,0.0,720.0,3.0,0.0
3187,85.0,0.0,720.0,0.0,0.0
3188,69.0,0.0,720.0,0.0,0.0
3189,73.0,0.0,720.0,0.0,0.0
3190,81.0,0.0,720.0,0.0,0.0
3191,66.0,15.0,690.0,0.0,0.0
3192,57.0,0.0,720.0,0.0,0.0
3193,61.0,0.0,720.0,0.0,0.0
3194,78.0,0.0,690.0,0.0,0.0
3195,73.0,0.0,720.0,1.0,0.0
3196,81.0,0.0,720.0,1.0,0.0
3197,61.0,0.0,720.0,1.0,0.0
3198,57.0,705.0,720.0,1.0,0.0
3199,78.0,0.0,690.0,1.0,0.0
3200,85.0,0.0,720.0,1.0,0.0
3201,69.0,0.0,720.0,1.0,0.0
3202,66.0,0.0,690.0,1.0,0.0
3203,66.0,15.0,690.0,2.0,0.0
3204,61.0,0.0,720.0,2.0,0.0
3205,85.0,0.0,720.0,2.0,0.0
3206,81.0,0.0,720.0,2.0,0.0
3207,73.0,0.0,720.0,2.0,0.0
3208,69.0,0.0,720.0,2.0,0.0
3209,57.0,0.0,720.0,2.0,0.0
3210,78.0,0.0,690.0,2.0,0.0
3211,83.0,15.0,720.0,0.0,0.0
3212,78.0,0.0,720.0,0.0,0.0
3213,74.0,0.0,720.0,0.0,0.0
3214,62.0,15.0,960.0,3.0,0.0
3215,66.0,0.0,720.0,0.0,0.0
3216,62.0,0.0,960.0,0.0,0.0
3217,83.0,0.0,720.0,3.0,0.0
3218,71.0,0.0,720.0,0.0,0.0
3219,78.0,0.0,720.0,3.0,0.0
3220,78.0,0.0,720.0,1.0,0.0
3221,83.0,0.0,720.0,2.0,0.0
3222,78.0,0.0,720.0,2.0,0.0
3223,74.0,0.0,720.0,2.0,0.0
3224,71.0,0.0,720.0,2.0,0.0
3225,66.0,0.0,720.0,2.0,0.0
3226,62.0,105.0,960.0,2.0,0.0
3227,62.0,0.0,960.0,1.0,0.0
3228,66.0,0.0,720.0,1.0,0.0
3229,71.0,225.0,720.0,1.0,0.0
3230,74.0,0.0,720.0,1.0,0.0
3231,83.0,0.0,720.0,1.0,0.0
3232,61.0,15.0,120.0,0.0,0.0
3233,61.0,0.0,120.0,3.0,0.0
3234,61.0,105.0,120.0,1.0,0.0
3235,61.0,0.0,120.0,2.0,0.0
3236,59.0,0.0,120.0,3.0,0.0
3237,59.0,15.0,120.0,0.0,0.0
3238,59.0,0.0,120.0,2.0,0.0
3239,59.0,105.0,120.0,1.0,0.0
3240,83.0,0.0,240.0,3.0,0.0
3241,73.0,0.0,240.0,0.0,0.0
3242,80.0,0.0,240.0,3.0,0.0
3243,61.0,15.0,120.0,0.0,0.0
3244,65.0,0.0,240.0,0.0,0.0
3245,68.0,0.0,240.0,0.0,0.0
3246,77.0,0.0,240.0,0.0,0.0
3247,61.0,0.0,120.0,3.0,0.0
3248,65.0,0.0,240.0,3.0,0.0
3249,80.0,0.0,240.0,0.0,0.0
3250,83.0,15.0,240.0,0.0,0.0
3251,73.0,0.0,240.0,1.0,0.0
3252,68.0,0.0,240.0,1.0,0.0
3253,65.0,0.0,240.0,1.0,0.0
3254,61.0,105.0,120.0,1.0,0.0
3255,77.0,0.0,240.0,1.0,0.0
3256,83.0,0.0,240.0,1.0,0.0
3257,61.0,0.0,120.0,2.0,0.0
3258,68.0,0.0,240.0,2.0,0.0
3259,73.0,0.0,240.0,2.0,0.0
3260,77.0,0.0,240.0,2.0,0.0
3261,80.0,0.0,240.0,2.0,0.0
3262,83.0,75.0,240.0,2.0,0.0
3263,80.0,0.0,240.0,1.0,0.0
3264,65.0,0.0,240.0,2.0,0.0
3265,56.0,0.0,120.0,0.0,0.0
3266,56.0,0.0,120.0,3.0,0.0
3267,56.0,0.0,120.0,1.0,0.0
3268,56.0,0.0,120.0,2.0,0.0
3269,57.0,15.0,60.0,0.0,0.0
3270,57.0,0.0,60.0,3.0,0.0
3271,57.0,0.0,60.0,2.0,0.0
3272,57.0,75.0,60.0,1.0,0.0
3273,54.0,0.0,60.0,3.0,0.0
3274,54.0,15.0,60.0,0.0,0.0
3275,54.0,75.0,60.0,1.0,0.0
3276,54.0,0.0,60.0,2.0,0.0
3277,56.0,15.0,60.0,3.0,0.0
3278,56.0,0.0,60.0,0.0,0.0
3279,56.0,0.0,60.0,1.0,0.0
3280,56.0,75.0,60.0,2.0,0.0
3281,53.0,0.0,60.0,0.0,0.0
3282,53.0,15.0,60.0,3.0,0.0
3283,53.0,75.0,60.0,1.0,0.0
3284,53.0,0.0,60.0,2.0,0.0
3285,54.0,15.0,60.0,0.0,0.0
3286,54.0,0.0,60.0,3.0,0.0
3287,54.0,0.0,60.0,2.0,0.0
3288,54.0,75.0,60.0,1.0,0.0
3289,51.0,15.0,60.0,0.0,0.0
3290,51.0,0.0,60.0,3.0,0.0
3291,51.0,0.0,60.0,2.0,0.0
3292,51.0,75.0,60.0,1.0,0.0
3293,53.0,15.0,60.0,0.0,0.0
3294,53.0,0.0,60.0,3.0,0.0
3295,53.0,75.0,60.0,2.0,0.0
3296,53.0,0.0,60.0,1.0,0.0
3297,49.0,15.0,60.0,0.0,0.0
3298,49.0,0.0,60.0,3.0,0.0
3299,49.0,0.0,60.0,2.0,0.0
3300,49.0,75.0,60.0,1.0,0.0
3301,50.0,0.0,60.0,3.0,0.0
3302,50.0,15.0,60.0,0.0,0.0
3303,50.0,75.0,60.0,1.0,0.0
3304,50.0,0.0,60.0,2.0,0.0
3305,48.0,0.0,60.0,0.0,0.0
3306,48.0,15.0,60.0,3.0,0.0
3307,48.0,0.0,60.0,1.0,0.0
3308,48.0,75.0,60.0,2.0,0.0
3309,49.0,0.0,60.0,0.0,0.0
3310,49.0,15.0,60.0,3.0,0.0
3311,49.0,60.0,60.0,2.0,0.0
3312,49.0,0.0,60.0,1.0,0.0
3313,61.0,0.0,60.0,0.0,0.0
3314,68.0,0.0,60.0,0.0,0.0
3315,77.0,0.0,60.0,0.0,0.0
3316,73.0,15.0,60.0,0.0,0.0
3317,73.0,0.0,60.0,3.0,0.0
3318,77.0,0.0,60.0,3.0,0.0
3319,68.0,0.0,60.0,3.0,0.0
3320,61.0,0.0,60.0,3.0,0.0
3321,59.0,0.0,60.0,3.0,0.0
3322,59.0,0.0,60.0,0.0,0.0
3323,68.0,0.0,60.0,1.0,0.0
3324,77.0,0.0,60.0,2.0,0.0
3325,61.0,0.0,60.0,1.0,0.0
3326,59.0,0.0,60.0,1.0,0.0
3327,73.0,15.0,60.0,1.0,0.0
3328,77.0,150.0,60.0,1.0,0.0
3329,73.0,0.0,60.0,2.0,0.0
3330,68.0,0.0,60.0,2.0,0.0
3331,61.0,0.0,60.0,2.0,0.0
3332,59.0,0.0,60.0,2.0,0.0
3333,57.0,0.0,180.0,3.0,0.0
3334,66.0,0.0,150.0,3.0,0.0
3335,69.0,0.0,150.0,3.0,0.0
3336,73.0,0.0,180.0,3.0,0.0
3337,61.0,0.0,150.0,3.0,0.0
3338,78.0,0.0,180.0,3.0,0.0
3339,57.0,0.0,180.0,0.0,0.0
3340,61.0,15.0,150.0,0.0,0.0
3341,66.0,0.0,150.0,0.0,0.0
3342,69.0,0.0,150.0,0.0,0.0
3343,73.0,0.0,180.0,0.0,0.0
3344,78.0,15.0,180.0,0.0,0.0
3345,69.0,0.0,150.0,2.0,0.0
3346,66.0,0.0,150.0,2.0,0.0
3347,61.0,0.0,150.0,1.0,0.0
3348,73.0,0.0,180.0,1.0,0.0
3349,69.0,0.0,150.0,1.0,0.0
3350,66.0,0.0,150.0,1.0,0.0
3351,57.0,165.0,180.0,1.0,0.0
3352,73.0,0.0,180.0,2.0,0.0
3353,78.0,0.0,180.0,2.0,0.0
3354,57.0,0.0,180.0,2.0,0.0
3355,78.0,0.0,180.0,1.0,0.0
3356,61.0,0.0,150.0,2.0,0.0
3357,61.0,15.0,540.0,3.0,0.0
3358,69.0,0.0,180.0,3.0,0.0
3359,66.0,15.0,360.0,3.0,0.0
3360,54.0,0.0,180.0,3.0,0.0
3361,69.0,0.0,180.0,0.0,0.0
3362,61.0,0.0,540.0,0.0,0.0
3363,54.0,15.0,180.0,0.0,0.0
3364,66.0,0.0,360.0,0.0,0.0
3365,66.0,0.0,360.0,1.0,0.0
3366,61.0,0.0,540.0,2.0,0.0
3367,54.0,165.0,180.0,2.0,0.0
3368,66.0,60.0,360.0,2.0,0.0
3369,69.0,0.0,180.0,2.0,0.0
3370,61.0,90.0,540.0,1.0,0.0
3371,54.0,0.0,180.0,1.0,0.0
3372,69.0,0.0,180.0,1.0,0.0
3373,49.0,0.0,480.0,0.0,0.0
3374,49.0,0.0,480.0,3.0,0.0
3375,68.0,0.0,240.0,3.0,0.0
3376,49.0,0.0,480.0,2.0,0.0
3377,68.0,0.0,240.0,1.0,0.0
3378,49.0,0.0,480.0,1.0,0.0
3379,65.0,0.0,300.0,0.0,0.0
3380,65.0,0.0,300.0,3.0,0.0
3381,65.0,0.0,300.0,1.0,0.0
3382,65.0,165.0,300.0,2.0,0.0
3383,68.0,15.0,240.0,3.0,0.0
3384,68.0,15.0,15.0,0.0,0.0
3385,68.0,90.0,15.0,2.0,0.0
3386,68.0,0.0,240.0,1.0,0.0
3387,59.0,0.0,90.0,0.0,0.0
3388,59.0,15.0,90.0,3.0,0.0
3389,59.0,0.0,90.0,2.0,0.0
3390,59.0,0.0,90.0,1.0,0.0
3391,66.0,0.0,960.0,3.0,0.0
3392,61.0,0.0,960.0,3.0,0.0
3393,54.0,0.0,960.0,0.0,0.0
3394,61.0,0.0,960.0,0.0,0.0
3395,42.0,15.0,960.0,0.0,0.0
3396,59.0,15.0,180.0,0.0,0.0
3397,59.0,0.0,180.0,3.0,0.0
3398,66.0,0.0,960.0,0.0,0.0
3399,54.0,0.0,960.0,2.0,0.0
3400,66.0,0.0,960.0,1.0,0.0
3401,61.0,0.0,960.0,1.0,0.0
3402,54.0,0.0,960.0,1.0,0.0
3403,66.0,0.0,960.0,2.0,0.0
3404,61.0,0.0,960.0,2.0,0.0
3405,42.0,0.0,960.0,2.0,0.0
3406,59.0,75.0,180.0,1.0,0.0
3407,42.0,0.0,960.0,1.0,0.0
3408,42.0,0.0,960.0,3.0,0.0
3409,54.0,0.0,960.0,3.0,0.0
3410,59.0,0.0,180.0,2.0,0.0
3411,57.0,0.0,60.0,0.0,0.0
3412,57.0,15.0,60.0,3.0,0.0
3413,57.0,0.0,60.0,2.0,0.0
3414,57.0,75.0,60.0,1.0,0.0
3415,56.0,15.0,60.0,3.0,0.0
3416,56.0,0.0,60.0,0.0,0.0
3417,56.0,0.0,60.0,1.0,0.0
3418,56.0,600.0,60.0,2.0,0.0
3419,57.0,0.0,600.0,0.0,0.0
3420,57.0,0.0,600.0,2.0,0.0
3421,57.0,0.0,600.0,3.0,0.0
3422,57.0,0.0,600.0,1.0,0.0
