,note,step,duration,channel,velocity
0,70.0,0.0,510.0,0.0,0.0
1,63.0,0.0,1020.0,2.0,0.0
2,63.0,0.0,1020.0,3.0,0.0
3,66.0,512.0,510.0,1.0,0.0
4,72.0,0.0,510.0,0.0,0.0
5,68.0,1024.0,510.0,1.0,0.0
6,65.0,0.0,1020.0,2.0,0.0
7,70.0,0.0,1020.0,1.0,0.0
8,73.0,1024.0,1020.0,0.0,0.0
9,58.0,0.0,1020.0,3.0,0.0
10,66.0,0.0,1020.0,2.0,0.0
11,57.0,0.0,1020.0,3.0,0.0
12,72.0,1024.0,1020.0,1.0,0.0
13,75.0,0.0,1020.0,0.0,0.0
14,65.0,0.0,1020.0,2.0,0.0
15,58.0,1024.0,1020.0,3.0,0.0
16,73.0,0.0,1020.0,0.0,0.0
17,70.0,0.0,15.0,1.0,0.0
18,63.0,0.0,1020.0,3.0,0.0
19,78.0,0.0,15.0,0.0,0.0
20,68.0,0.0,1020.0,1.0,0.0
21,63.0,0.0,15.0,2.0,0.0
22,60.0,0.0,1020.0,3.0,0.0
23,68.0,0.0,1020.0,1.0,0.0
24,61.0,1024.0,1020.0,3.0,0.0
25,77.0,0.0,1020.0,0.0,0.0
26,61.0,0.0,15.0,2.0,0.0
27,78.0,0.0,1020.0,0.0,0.0
28,54.0,0.0,1020.0,3.0,0.0
29,70.0,0.0,15.0,1.0,0.0
30,78.0,512.0,1020.0,0.0,0.0
31,63.0,0.0,1020.0,2.0,0.0
32,51.0,0.0,1020.0,3.0,0.0
33,72.0,0.0,510.0,1.0,0.0
34,68.0,0.0,1020.0,2.0,0.0
35,49.0,0.0,1020.0,3.0,0.0
36,73.0,512.0,510.0,1.0,0.0
37,77.0,512.0,1020.0,0.0,0.0
38,71.0,0.0,510.0,1.0,0.0
39,61.0,0.0,1020.0,3.0,0.0
40,70.0,0.0,1020.0,1.0,0.0
41,67.0,512.0,510.0,2.0,0.0
42,75.0,512.0,1020.0,0.0,0.0
43,65.0,0.0,510.0,2.0,0.0
44,59.0,256.0,510.0,3.0,0.0
45,71.0,512.0,1020.0,1.0,0.0
46,80.0,512.0,1530.0,0.0,0.0
47,58.0,256.0,270.0,3.0,0.0
48,56.0,0.0,270.0,3.0,0.0
49,63.0,0.0,15.0,2.0,0.0
50,63.0,0.0,1020.0,3.0,0.0
51,70.0,512.0,2040.0,1.0,0.0
52,78.0,512.0,510.0,0.0,0.0
53,58.0,512.0,510.0,3.0,0.0
54,77.0,0.0,1020.0,0.0,0.0
55,62.0,0.0,1020.0,2.0,0.0
56,56.0,0.0,510.0,3.0,0.0
57,78.0,512.0,510.0,0.0,0.0
58,54.0,0.0,1020.0,3.0,0.0
59,63.0,0.0,2040.0,2.0,0.0
60,70.0,1024.0,1020.0,1.0,0.0
61,80.0,0.0,510.0,0.0,0.0
62,77.0,0.0,2040.0,0.0,0.0
63,56.0,512.0,1020.0,3.0,0.0
64,71.0,0.0,1020.0,1.0,0.0
65,62.0,0.0,1020.0,2.0,0.0
66,70.0,512.0,510.0,1.0,0.0
67,58.0,0.0,1020.0,3.0,0.0
68,68.0,3072.0,510.0,1.0,0.0
69,66.0,0.0,3060.0,1.0,0.0
70,58.0,0.0,3060.0,2.0,0.0
71,75.0,512.0,3060.0,0.0,0.0
72,51.0,0.0,3060.0,3.0,0.0
73,66.0,0.0,510.0,1.0,0.0
74,63.0,0.0,1020.0,3.0,0.0
75,63.0,0.0,1020.0,2.0,0.0
76,70.0,512.0,510.0,0.0,0.0
77,72.0,1024.0,510.0,0.0,0.0
78,68.0,0.0,510.0,1.0,0.0
79,70.0,0.0,1020.0,1.0,0.0
80,65.0,1024.0,1020.0,2.0,0.0
81,58.0,0.0,1020.0,3.0,0.0
82,73.0,0.0,1020.0,0.0,0.0
83,57.0,0.0,1020.0,3.0,0.0
84,75.0,0.0,1020.0,0.0,0.0
85,66.0,1024.0,1020.0,2.0,0.0
86,72.0,0.0,1020.0,1.0,0.0
87,73.0,0.0,1020.0,0.0,0.0
88,70.0,1024.0,1020.0,1.0,0.0
89,58.0,0.0,1020.0,3.0,0.0
90,65.0,0.0,1020.0,2.0,0.0
91,63.0,1024.0,1020.0,3.0,0.0
92,78.0,0.0,1020.0,0.0,0.0
93,70.0,0.0,1020.0,1.0,0.0
94,60.0,0.0,1020.0,3.0,0.0
95,78.0,0.0,1020.0,0.0,0.0
96,63.0,0.0,15.0,2.0,0.0
97,68.0,1024.0,15.0,1.0,0.0
98,77.0,0.0,1020.0,0.0,0.0
99,61.0,0.0,1020.0,3.0,0.0
100,61.0,0.0,15.0,2.0,0.0
101,78.0,0.0,1020.0,0.0,0.0
102,70.0,512.0,1020.0,1.0,0.0
103,54.0,0.0,1020.0,3.0,0.0
104,51.0,0.0,1020.0,3.0,0.0
105,63.0,0.0,1020.0,2.0,0.0
106,78.0,0.0,1020.0,0.0,0.0
107,70.0,512.0,510.0,1.0,0.0
108,72.0,512.0,510.0,1.0,0.0
109,73.0,512.0,510.0,1.0,0.0
110,49.0,0.0,1020.0,3.0,0.0
111,77.0,0.0,1020.0,0.0,0.0
112,68.0,512.0,1020.0,2.0,0.0
113,71.0,0.0,510.0,1.0,0.0
114,70.0,0.0,1020.0,1.0,0.0
115,67.0,512.0,510.0,2.0,0.0
116,61.0,0.0,1020.0,3.0,0.0
117,75.0,0.0,1020.0,0.0,0.0
118,65.0,512.0,510.0,2.0,0.0
119,80.0,512.0,1530.0,0.0,0.0
120,59.0,256.0,510.0,3.0,0.0
121,63.0,512.0,1020.0,2.0,0.0
122,71.0,0.0,1020.0,1.0,0.0
123,58.0,256.0,270.0,3.0,0.0
124,56.0,0.0,270.0,3.0,0.0
125,63.0,0.0,1020.0,3.0,0.0
126,63.0,512.0,1020.0,2.0,0.0
127,78.0,0.0,510.0,0.0,0.0
128,77.0,0.0,1020.0,0.0,0.0
129,58.0,512.0,510.0,3.0,0.0
130,62.0,512.0,1020.0,2.0,0.0
131,56.0,0.0,510.0,3.0,0.0
132,54.0,0.0,1020.0,3.0,0.0
133,63.0,0.0,2040.0,2.0,0.0
134,70.0,0.0,15.0,1.0,0.0
135,78.0,512.0,510.0,0.0,0.0
136,80.0,0.0,510.0,0.0,0.0
137,77.0,3072.0,2040.0,0.0,0.0
138,56.0,0.0,1020.0,3.0,0.0
139,71.0,512.0,1020.0,1.0,0.0
140,58.0,0.0,1020.0,3.0,0.0
141,62.0,0.0,1020.0,2.0,0.0
142,70.0,512.0,510.0,1.0,0.0
143,68.0,0.0,510.0,1.0,0.0
144,66.0,0.0,3060.0,1.0,0.0
145,75.0,0.0,3060.0,0.0,0.0
146,51.0,0.0,15.0,3.0,0.0
147,67.0,0.0,1020.0,1.0,0.0
148,75.0,0.0,1020.0,0.0,0.0
149,58.0,1024.0,15.0,2.0,0.0
150,60.0,0.0,510.0,2.0,0.0
151,56.0,512.0,510.0,3.0,0.0
152,68.0,0.0,1020.0,1.0,0.0
153,61.0,0.0,510.0,2.0,0.0
154,58.0,0.0,510.0,3.0,0.0
155,75.0,512.0,15.0,0.0,0.0
156,60.0,0.0,510.0,3.0,0.0
157,63.0,512.0,510.0,2.0,0.0
158,56.0,512.0,510.0,3.0,0.0
159,60.0,0.0,510.0,2.0,0.0
160,61.0,0.0,510.0,2.0,0.0
161,77.0,512.0,510.0,0.0,0.0
162,68.0,0.0,15.0,1.0,0.0
163,61.0,0.0,510.0,3.0,0.0
164,60.0,512.0,510.0,3.0,0.0
165,63.0,0.0,510.0,2.0,0.0
166,75.0,0.0,510.0,0.0,0.0
167,65.0,512.0,1020.0,2.0,0.0
168,73.0,0.0,1020.0,0.0,0.0
169,58.0,512.0,510.0,3.0,0.0
170,56.0,0.0,510.0,3.0,0.0
171,73.0,0.0,1020.0,0.0,0.0
172,70.0,0.0,15.0,1.0,0.0
173,54.0,512.0,510.0,3.0,0.0
174,63.0,0.0,1020.0,2.0,0.0
175,51.0,0.0,510.0,3.0,0.0
176,63.0,0.0,1020.0,2.0,0.0
177,72.0,0.0,1020.0,0.0,0.0
178,56.0,1024.0,1020.0,3.0,0.0
179,68.0,0.0,1020.0,1.0,0.0
180,73.0,0.0,1020.0,0.0,0.0
181,49.0,1024.0,1020.0,3.0,0.0
182,65.0,0.0,1020.0,2.0,0.0
183,68.0,0.0,1020.0,1.0,0.0
184,73.0,0.0,1020.0,0.0,0.0
185,70.0,0.0,1020.0,1.0,0.0
186,54.0,0.0,1020.0,3.0,0.0
187,66.0,1024.0,15.0,2.0,0.0
188,48.0,0.0,1020.0,3.0,0.0
189,75.0,0.0,1020.0,0.0,0.0
190,50.0,0.0,1020.0,3.0,0.0
191,77.0,0.0,1020.0,0.0,0.0
192,68.0,1024.0,15.0,1.0,0.0
193,65.0,512.0,1020.0,2.0,0.0
194,51.0,0.0,1020.0,3.0,0.0
195,78.0,0.0,1020.0,0.0,0.0
196,66.0,256.0,510.0,1.0,0.0
197,63.0,256.0,1530.0,2.0,0.0
198,68.0,256.0,270.0,1.0,0.0
199,70.0,512.0,270.0,1.0,0.0
200,53.0,0.0,1020.0,3.0,0.0
201,77.0,512.0,1020.0,0.0,0.0
202,68.0,0.0,510.0,1.0,0.0
203,70.0,256.0,270.0,1.0,0.0
204,62.0,0.0,510.0,2.0,0.0
205,71.0,0.0,270.0,1.0,0.0
206,75.0,0.0,2040.0,0.0,0.0
207,70.0,256.0,1020.0,1.0,0.0
208,63.0,0.0,510.0,2.0,0.0
209,54.0,256.0,510.0,3.0,0.0
210,56.0,0.0,270.0,3.0,0.0
211,65.0,256.0,270.0,2.0,0.0
212,66.0,0.0,270.0,2.0,0.0
213,58.0,0.0,270.0,3.0,0.0
214,59.0,0.0,1020.0,3.0,0.0
215,68.0,1024.0,1020.0,2.0,0.0
216,68.0,256.0,270.0,1.0,0.0
217,66.0,256.0,270.0,1.0,0.0
218,65.0,256.0,270.0,1.0,0.0
219,63.0,0.0,270.0,1.0,0.0
220,77.0,0.0,1020.0,0.0,0.0
221,70.0,0.0,1020.0,1.0,0.0
222,58.0,512.0,1020.0,3.0,0.0
223,62.0,0.0,1020.0,2.0,0.0
224,63.0,0.0,1020.0,3.0,0.0
225,70.0,0.0,510.0,0.0,0.0
226,63.0,0.0,1020.0,2.0,0.0
227,66.0,512.0,510.0,1.0,0.0
228,68.0,0.0,510.0,1.0,0.0
229,72.0,1024.0,510.0,0.0,0.0
230,58.0,0.0,1020.0,3.0,0.0
231,70.0,0.0,1020.0,1.0,0.0
232,73.0,1024.0,1020.0,0.0,0.0
233,65.0,0.0,1020.0,2.0,0.0
234,72.0,1024.0,1020.0,1.0,0.0
235,66.0,0.0,1020.0,2.0,0.0
236,75.0,0.0,1020.0,0.0,0.0
237,57.0,0.0,1020.0,3.0,0.0
238,73.0,0.0,1020.0,0.0,0.0
239,58.0,1024.0,1020.0,3.0,0.0
240,65.0,0.0,1020.0,2.0,0.0
241,70.0,0.0,1020.0,1.0,0.0
242,63.0,0.0,1020.0,2.0,0.0
243,63.0,1024.0,1020.0,3.0,0.0
244,70.0,0.0,1020.0,1.0,0.0
245,68.0,0.0,1020.0,1.0,0.0
246,78.0,0.0,15.0,0.0,0.0
247,60.0,1024.0,1020.0,3.0,0.0
248,63.0,0.0,1020.0,2.0,0.0
249,61.0,0.0,1020.0,3.0,0.0
250,61.0,0.0,1020.0,2.0,0.0
251,77.0,1024.0,1020.0,0.0,0.0
252,68.0,0.0,1020.0,1.0,0.0
253,54.0,512.0,1020.0,3.0,0.0
254,61.0,0.0,1020.0,2.0,0.0
255,78.0,0.0,15.0,0.0,0.0
256,63.0,0.0,1020.0,2.0,0.0
257,51.0,0.0,1020.0,3.0,0.0
258,70.0,0.0,15.0,1.0,0.0
259,72.0,0.0,510.0,1.0,0.0
260,68.0,0.0,1020.0,2.0,0.0
261,49.0,0.0,1020.0,3.0,0.0
262,77.0,512.0,1020.0,0.0,0.0
263,73.0,512.0,510.0,1.0,0.0
264,71.0,0.0,510.0,1.0,0.0
265,61.0,512.0,1020.0,3.0,0.0
266,67.0,512.0,510.0,2.0,0.0
267,70.0,0.0,1020.0,1.0,0.0
268,75.0,0.0,1020.0,0.0,0.0
269,65.0,0.0,510.0,2.0,0.0
270,63.0,512.0,1020.0,2.0,0.0
271,71.0,0.0,1020.0,1.0,0.0
272,80.0,512.0,1530.0,0.0,0.0
273,59.0,256.0,510.0,3.0,0.0
274,58.0,256.0,270.0,3.0,0.0
275,56.0,0.0,270.0,3.0,0.0
276,63.0,512.0,1020.0,3.0,0.0
277,70.0,512.0,2040.0,1.0,0.0
278,63.0,0.0,1020.0,2.0,0.0
279,78.0,0.0,510.0,0.0,0.0
280,58.0,512.0,510.0,3.0,0.0
281,77.0,0.0,1020.0,0.0,0.0
282,62.0,0.0,1020.0,2.0,0.0
283,56.0,0.0,510.0,3.0,0.0
284,78.0,512.0,510.0,0.0,0.0
285,63.0,0.0,2040.0,2.0,0.0
286,70.0,1024.0,1020.0,1.0,0.0
287,54.0,0.0,1020.0,3.0,0.0
288,80.0,0.0,510.0,0.0,0.0
289,77.0,0.0,2040.0,0.0,0.0
290,71.0,0.0,1020.0,1.0,0.0
291,56.0,512.0,1020.0,3.0,0.0
292,70.0,512.0,510.0,1.0,0.0
293,62.0,0.0,1020.0,2.0,0.0
294,58.0,4096.0,1020.0,3.0,0.0
295,68.0,0.0,510.0,1.0,0.0
296,75.0,0.0,4110.0,0.0,0.0
297,67.0,0.0,4110.0,1.0,0.0
298,58.0,0.0,4110.0,2.0,0.0
299,51.0,0.0,4110.0,3.0,0.0
