,note,step,duration,channel,velocity
0,66.0,512.0,1020.0,0.0,0.0
1,51.0,0.0,1020.0,3.0,0.0
2,58.0,0.0,1020.0,2.0,0.0
3,63.0,0.0,1020.0,1.0,0.0
4,50.0,0.0,1530.0,3.0,0.0
5,65.0,512.0,510.0,1.0,0.0
6,58.0,512.0,1020.0,2.0,0.0
7,70.0,512.0,1530.0,0.0,0.0
8,63.0,0.0,510.0,1.0,0.0
9,58.0,0.0,1020.0,2.0,0.0
10,65.0,0.0,1020.0,1.0,0.0
11,50.0,1024.0,510.0,3.0,0.0
12,68.0,0.0,510.0,0.0,0.0
13,63.0,0.0,1020.0,1.0,0.0
14,66.0,512.0,1020.0,0.0,0.0
15,58.0,0.0,1020.0,2.0,0.0
16,51.0,0.0,1020.0,3.0,0.0
17,54.0,0.0,1020.0,2.0,0.0
18,51.0,512.0,510.0,3.0,0.0
19,70.0,0.0,1020.0,0.0,0.0
20,63.0,0.0,1020.0,1.0,0.0
21,49.0,1024.0,510.0,3.0,0.0
22,68.0,0.0,1020.0,0.0,0.0
23,56.0,1024.0,1020.0,2.0,0.0
24,47.0,0.0,1020.0,3.0,0.0
25,63.0,0.0,1020.0,1.0,0.0
26,61.0,0.0,1020.0,1.0,0.0
27,58.0,512.0,1020.0,2.0,0.0
28,46.0,0.0,1020.0,3.0,0.0
29,66.0,0.0,1020.0,0.0,0.0
30,66.0,512.0,1020.0,0.0,0.0
31,51.0,0.0,1020.0,2.0,0.0
32,59.0,512.0,510.0,1.0,0.0
33,58.0,0.0,510.0,1.0,0.0
34,49.0,0.0,510.0,2.0,0.0
35,65.0,0.0,1020.0,0.0,0.0
36,59.0,0.0,1020.0,1.0,0.0
37,47.0,2048.0,510.0,2.0,0.0
38,44.0,512.0,15.0,3.0,0.0
39,58.0,0.0,2040.0,1.0,0.0
40,66.0,0.0,2040.0,0.0,0.0
41,49.0,2048.0,2040.0,2.0,0.0
42,42.0,0.0,2040.0,3.0,0.0
43,70.0,0.0,1020.0,0.0,0.0
44,54.0,0.0,1020.0,2.0,0.0
45,54.0,1536.0,1020.0,3.0,0.0
46,73.0,0.0,1530.0,0.0,0.0
47,53.0,0.0,1530.0,3.0,0.0
48,61.0,0.0,15.0,1.0,0.0
49,71.0,0.0,510.0,0.0,0.0
50,53.0,512.0,15.0,2.0,0.0
51,53.0,1024.0,510.0,3.0,0.0
52,61.0,0.0,15.0,1.0,0.0
53,54.0,512.0,1020.0,2.0,0.0
54,54.0,0.0,1020.0,3.0,0.0
55,70.0,0.0,15.0,0.0,0.0
56,50.0,0.0,1020.0,3.0,0.0
57,50.0,0.0,1020.0,2.0,0.0
58,68.0,0.0,510.0,0.0,0.0
59,58.0,512.0,15.0,1.0,0.0
60,51.0,0.0,510.0,2.0,0.0
61,66.0,0.0,510.0,0.0,0.0
62,51.0,512.0,510.0,3.0,0.0
63,65.0,512.0,510.0,0.0,0.0
64,53.0,0.0,510.0,2.0,0.0
65,49.0,0.0,510.0,3.0,0.0
66,54.0,0.0,1020.0,2.0,0.0
67,63.0,0.0,510.0,1.0,0.0
68,47.0,512.0,510.0,3.0,0.0
69,63.0,0.0,1020.0,0.0,0.0
70,61.0,512.0,510.0,1.0,0.0
71,46.0,0.0,510.0,3.0,0.0
72,65.0,512.0,1530.0,0.0,0.0
73,63.0,0.0,1020.0,1.0,0.0
74,59.0,512.0,510.0,2.0,0.0
75,44.0,0.0,1020.0,3.0,0.0
76,58.0,512.0,510.0,2.0,0.0
77,59.0,1024.0,1020.0,1.0,0.0
78,44.0,0.0,1020.0,3.0,0.0
79,56.0,0.0,510.0,2.0,0.0
80,54.0,0.0,510.0,2.0,0.0
81,63.0,0.0,510.0,0.0,0.0
82,46.0,0.0,1020.0,3.0,0.0
83,53.0,0.0,1020.0,2.0,0.0
84,62.0,0.0,1020.0,0.0,0.0
85,58.0,1024.0,1020.0,1.0,0.0
86,34.0,0.0,1020.0,3.0,0.0
87,58.0,2048.0,1020.0,0.0,0.0
88,50.0,0.0,1020.0,2.0,0.0
89,53.0,0.0,1020.0,1.0,0.0
90,58.0,0.0,1020.0,2.0,0.0
91,65.0,512.0,1020.0,0.0,0.0
92,46.0,0.0,1020.0,3.0,0.0
93,61.0,0.0,1020.0,1.0,0.0
94,48.0,0.0,1530.0,3.0,0.0
95,68.0,512.0,1530.0,0.0,0.0
96,63.0,512.0,510.0,1.0,0.0
97,61.0,512.0,510.0,1.0,0.0
98,56.0,0.0,15.0,2.0,0.0
99,63.0,0.0,1020.0,1.0,0.0
100,48.0,0.0,510.0,3.0,0.0
101,66.0,0.0,510.0,0.0,0.0
102,49.0,512.0,1020.0,3.0,0.0
103,65.0,0.0,1020.0,0.0,0.0
104,61.0,512.0,510.0,1.0,0.0
105,56.0,512.0,15.0,2.0,0.0
106,65.0,0.0,510.0,1.0,0.0
107,42.0,0.0,1020.0,3.0,0.0
108,58.0,0.0,1020.0,2.0,0.0
109,63.0,512.0,510.0,1.0,0.0
110,61.0,0.0,510.0,1.0,0.0
111,44.0,0.0,1020.0,3.0,0.0
112,51.0,0.0,1020.0,2.0,0.0
113,66.0,1024.0,15.0,0.0,0.0
114,60.0,512.0,1020.0,1.0,0.0
115,53.0,512.0,510.0,2.0,0.0
116,49.0,1536.0,1020.0,3.0,0.0
117,65.0,0.0,1020.0,0.0,0.0
118,61.0,0.0,2550.0,1.0,0.0
119,54.0,0.0,510.0,2.0,0.0
120,63.0,0.0,1530.0,0.0,0.0
121,56.0,512.0,1530.0,2.0,0.0
122,44.0,0.0,1530.0,3.0,0.0
123,63.0,0.0,510.0,0.0,0.0
124,60.0,0.0,510.0,1.0,0.0
125,44.0,0.0,510.0,3.0,0.0
126,37.0,0.0,2040.0,3.0,0.0
127,65.0,0.0,2040.0,0.0,0.0
128,56.0,2048.0,15.0,2.0,0.0
129,61.0,1536.0,2040.0,1.0,0.0
130,65.0,512.0,1020.0,0.0,0.0
131,49.0,512.0,510.0,3.0,0.0
132,56.0,0.0,1020.0,2.0,0.0
133,47.0,0.0,510.0,3.0,0.0
134,66.0,0.0,1020.0,0.0,0.0
135,58.0,0.0,1020.0,2.0,0.0
136,46.0,512.0,510.0,3.0,0.0
137,61.0,0.0,15.0,1.0,0.0
138,44.0,512.0,510.0,3.0,0.0
139,42.0,512.0,510.0,3.0,0.0
140,61.0,0.0,15.0,1.0,0.0
141,68.0,0.0,1020.0,0.0,0.0
142,56.0,0.0,1020.0,2.0,0.0
143,41.0,0.0,510.0,3.0,0.0
144,54.0,0.0,1020.0,2.0,0.0
145,42.0,512.0,1020.0,3.0,0.0
146,70.0,0.0,1020.0,0.0,0.0
147,61.0,0.0,15.0,1.0,0.0
148,58.0,0.0,1020.0,2.0,0.0
149,70.0,256.0,510.0,0.0,0.0
150,42.0,0.0,510.0,3.0,0.0
151,72.0,256.0,270.0,0.0,0.0
152,41.0,512.0,510.0,3.0,0.0
153,73.0,0.0,270.0,0.0,0.0
154,63.0,512.0,510.0,2.0,0.0
155,72.0,512.0,1530.0,0.0,0.0
156,66.0,0.0,510.0,1.0,0.0
157,39.0,0.0,1020.0,3.0,0.0
158,65.0,0.0,510.0,1.0,0.0
159,61.0,512.0,510.0,2.0,0.0
160,67.0,0.0,1020.0,1.0,0.0
161,40.0,0.0,1020.0,3.0,0.0
162,70.0,1024.0,510.0,0.0,0.0
163,65.0,0.0,1020.0,1.0,0.0
164,60.0,0.0,15.0,2.0,0.0
165,41.0,1024.0,1020.0,3.0,0.0
166,69.0,0.0,1020.0,0.0,0.0
167,70.0,0.0,1020.0,0.0,0.0
168,61.0,0.0,1020.0,2.0,0.0
169,65.0,0.0,1020.0,1.0,0.0
170,46.0,512.0,1020.0,3.0,0.0
171,60.0,512.0,510.0,2.0,0.0
172,70.0,512.0,1530.0,0.0,0.0
173,41.0,0.0,2040.0,3.0,0.0
174,58.0,0.0,510.0,2.0,0.0
175,60.0,0.0,1020.0,2.0,0.0
176,65.0,512.0,15.0,1.0,0.0
177,69.0,0.0,510.0,0.0,0.0
178,65.0,1024.0,15.0,1.0,0.0
179,70.0,0.0,1020.0,0.0,0.0
180,62.0,0.0,1020.0,2.0,0.0
181,58.0,0.0,1020.0,1.0,0.0
182,53.0,0.0,1020.0,2.0,0.0
183,46.0,0.0,15.0,3.0,0.0
184,62.0,0.0,1020.0,0.0,0.0
185,44.0,512.0,510.0,3.0,0.0
186,54.0,0.0,1020.0,2.0,0.0
187,63.0,0.0,1020.0,0.0,0.0
188,42.0,512.0,510.0,3.0,0.0
189,41.0,512.0,510.0,3.0,0.0
190,53.0,0.0,1020.0,2.0,0.0
191,58.0,0.0,15.0,1.0,0.0
192,39.0,512.0,510.0,3.0,0.0
193,65.0,0.0,1020.0,0.0,0.0
194,38.0,0.0,510.0,3.0,0.0
195,39.0,0.0,1020.0,3.0,0.0
196,66.0,0.0,1020.0,0.0,0.0
197,58.0,1024.0,15.0,1.0,0.0
198,51.0,512.0,1020.0,2.0,0.0
199,63.0,256.0,510.0,0.0,0.0
200,47.0,0.0,510.0,3.0,0.0
201,54.0,0.0,1020.0,2.0,0.0
202,63.0,0.0,510.0,1.0,0.0
203,65.0,256.0,270.0,0.0,0.0
204,46.0,0.0,510.0,3.0,0.0
205,61.0,512.0,510.0,1.0,0.0
206,66.0,0.0,270.0,0.0,0.0
207,59.0,0.0,510.0,1.0,0.0
208,44.0,512.0,1020.0,3.0,0.0
209,56.0,512.0,510.0,2.0,0.0
210,65.0,512.0,1530.0,0.0,0.0
211,58.0,0.0,510.0,1.0,0.0
212,54.0,0.0,510.0,2.0,0.0
213,53.0,512.0,1020.0,2.0,0.0
214,60.0,0.0,1020.0,1.0,0.0
215,45.0,0.0,1020.0,3.0,0.0
216,63.0,0.0,510.0,0.0,0.0
217,58.0,0.0,1020.0,1.0,0.0
218,62.0,0.0,1020.0,0.0,0.0
219,46.0,512.0,510.0,3.0,0.0
220,53.0,512.0,1020.0,2.0,0.0
221,44.0,0.0,510.0,3.0,0.0
222,54.0,0.0,1020.0,2.0,0.0
223,58.0,0.0,1020.0,1.0,0.0
224,42.0,512.0,510.0,3.0,0.0
225,39.0,0.0,510.0,3.0,0.0
226,63.0,512.0,15.0,0.0,0.0
227,46.0,0.0,2040.0,3.0,0.0
228,58.0,512.0,1020.0,1.0,0.0
229,53.0,512.0,510.0,2.0,0.0
230,51.0,0.0,510.0,2.0,0.0
231,53.0,0.0,1020.0,2.0,0.0
232,58.0,2048.0,1020.0,1.0,0.0
233,62.0,0.0,510.0,0.0,0.0
234,55.0,1.0,2040.0,2.0,0.0
235,63.0,0.0,2040.0,0.0,0.0
236,39.0,0.0,2040.0,3.0,0.0
237,58.0,0.0,2040.0,1.0,0.0
