,note,step,duration,channel,velocity
0,70.0,0.0,180.0,4.0,64.0
1,75.0,0.0,180.0,3.0,64.0
2,75.0,0.0,180.0,1.0,64.0
3,75.0,0.0,180.0,2.0,64.0
4,63.0,192.0,180.0,6.0,64.0
5,66.0,0.0,180.0,5.0,64.0
6,51.0,0.0,180.0,7.0,64.0
7,51.0,0.0,180.0,6.0,64.0
8,68.0,0.0,390.0,5.0,64.0
9,77.0,0.0,390.0,3.0,64.0
10,71.0,0.0,390.0,4.0,64.0
11,39.0,192.0,180.0,7.0,64.0
12,77.0,132.0,390.0,1.0,64.0
13,77.0,0.0,390.0,2.0,64.0
14,51.0,0.0,180.0,6.0,64.0
15,39.0,0.0,180.0,7.0,64.0
16,39.0,132.0,180.0,7.0,64.0
17,51.0,0.0,180.0,6.0,64.0
18,74.0,0.0,120.0,1.0,64.0
19,68.0,0.0,120.0,4.0,64.0
20,65.0,0.0,120.0,5.0,64.0
21,74.0,0.0,120.0,3.0,64.0
22,74.0,60.0,120.0,2.0,64.0
23,51.0,0.0,390.0,6.0,64.0
24,66.0,132.0,390.0,5.0,64.0
25,75.0,0.0,120.0,1.0,64.0
26,70.0,0.0,120.0,4.0,64.0
27,75.0,0.0,120.0,2.0,64.0
28,75.0,192.0,120.0,3.0,64.0
29,39.0,0.0,390.0,7.0,64.0
30,83.0,0.0,120.0,1.0,64.0
31,83.0,0.0,120.0,2.0,64.0
32,83.0,0.0,120.0,3.0,64.0
33,80.0,60.0,120.0,4.0,64.0
34,83.0,0.0,120.0,2.0,64.0
35,83.0,0.0,120.0,3.0,64.0
36,80.0,132.0,180.0,4.0,64.0
37,83.0,60.0,120.0,1.0,64.0
38,62.0,132.0,390.0,5.0,64.0
39,78.0,0.0,180.0,4.0,64.0
40,82.0,0.0,120.0,2.0,64.0
41,82.0,0.0,120.0,3.0,64.0
42,82.0,60.0,120.0,1.0,64.0
43,63.0,192.0,390.0,5.0,64.0
44,70.0,192.0,120.0,2.0,64.0
45,70.0,0.0,120.0,1.0,64.0
46,70.0,0.0,120.0,3.0,64.0
47,66.0,0.0,120.0,4.0,64.0
48,78.0,60.0,120.0,2.0,64.0
49,82.0,0.0,120.0,3.0,64.0
50,78.0,0.0,120.0,4.0,64.0
51,82.0,0.0,120.0,1.0,64.0
52,82.0,0.0,180.0,3.0,64.0
53,82.0,192.0,180.0,1.0,64.0
54,78.0,0.0,180.0,2.0,64.0
55,58.0,132.0,390.0,5.0,64.0
56,78.0,0.0,180.0,4.0,64.0
57,80.0,0.0,180.0,1.0,64.0
58,80.0,0.0,180.0,3.0,64.0
59,77.0,0.0,180.0,4.0,64.0
60,77.0,0.0,180.0,2.0,64.0
61,68.0,0.0,120.0,1.0,64.0
62,68.0,0.0,120.0,3.0,64.0
63,62.0,192.0,390.0,5.0,64.0
64,68.0,0.0,120.0,2.0,64.0
65,65.0,192.0,120.0,4.0,64.0
66,77.0,0.0,120.0,2.0,64.0
67,80.0,0.0,120.0,3.0,64.0
68,80.0,0.0,120.0,1.0,64.0
69,77.0,60.0,120.0,4.0,64.0
70,80.0,192.0,180.0,3.0,64.0
71,58.0,0.0,390.0,5.0,64.0
72,77.0,0.0,180.0,2.0,64.0
73,80.0,0.0,180.0,1.0,64.0
74,77.0,0.0,180.0,4.0,64.0
75,75.0,0.0,180.0,4.0,64.0
76,75.0,0.0,180.0,2.0,64.0
77,78.0,0.0,180.0,3.0,64.0
78,78.0,192.0,180.0,1.0,64.0
79,70.0,0.0,180.0,5.0,64.0
80,78.0,0.0,180.0,2.0,64.0
81,63.0,0.0,180.0,6.0,64.0
82,51.0,0.0,180.0,7.0,64.0
83,78.0,192.0,180.0,3.0,64.0
84,78.0,0.0,180.0,1.0,64.0
85,75.0,0.0,180.0,4.0,64.0
86,71.0,0.0,390.0,5.0,64.0
87,75.0,0.0,390.0,4.0,64.0
88,80.0,0.0,390.0,3.0,64.0
89,47.0,0.0,180.0,7.0,64.0
90,59.0,192.0,180.0,6.0,64.0
91,80.0,132.0,390.0,1.0,64.0
92,80.0,0.0,390.0,2.0,64.0
93,56.0,0.0,180.0,6.0,64.0
94,44.0,0.0,180.0,7.0,64.0
95,77.0,60.0,120.0,2.0,64.0
96,68.0,0.0,120.0,5.0,64.0
97,77.0,0.0,120.0,1.0,64.0
98,49.0,0.0,180.0,7.0,64.0
99,73.0,0.0,120.0,4.0,64.0
100,77.0,0.0,120.0,3.0,64.0
101,61.0,132.0,180.0,6.0,64.0
102,42.0,192.0,390.0,7.0,64.0
103,73.0,0.0,120.0,4.0,64.0
104,78.0,0.0,120.0,1.0,64.0
105,54.0,0.0,390.0,6.0,64.0
106,78.0,192.0,120.0,3.0,64.0
107,78.0,0.0,120.0,2.0,64.0
108,70.0,0.0,390.0,5.0,64.0
109,83.0,0.0,120.0,4.0,64.0
110,83.0,0.0,120.0,2.0,64.0
111,87.0,0.0,120.0,1.0,64.0
112,87.0,60.0,120.0,3.0,64.0
113,87.0,0.0,180.0,3.0,64.0
114,65.0,0.0,390.0,5.0,64.0
115,87.0,0.0,180.0,1.0,64.0
116,83.0,0.0,180.0,4.0,64.0
117,83.0,192.0,180.0,2.0,64.0
118,85.0,132.0,180.0,3.0,64.0
119,82.0,0.0,180.0,4.0,64.0
120,85.0,0.0,180.0,1.0,64.0
121,82.0,0.0,180.0,2.0,64.0
122,73.0,0.0,120.0,1.0,64.0
123,70.0,0.0,120.0,4.0,64.0
124,73.0,0.0,120.0,3.0,64.0
125,73.0,192.0,120.0,2.0,64.0
126,66.0,192.0,390.0,5.0,64.0
127,85.0,0.0,120.0,1.0,64.0
128,82.0,0.0,120.0,2.0,64.0
129,82.0,0.0,120.0,4.0,64.0
130,85.0,60.0,120.0,3.0,64.0
131,85.0,0.0,180.0,1.0,64.0
132,61.0,0.0,390.0,5.0,64.0
133,82.0,0.0,180.0,4.0,64.0
134,85.0,192.0,180.0,3.0,64.0
135,82.0,0.0,180.0,2.0,64.0
136,80.0,0.0,180.0,4.0,64.0
137,83.0,0.0,180.0,3.0,64.0
138,80.0,0.0,180.0,2.0,64.0
139,83.0,132.0,180.0,1.0,64.0
140,68.0,0.0,120.0,4.0,64.0
141,65.0,192.0,390.0,5.0,64.0
142,71.0,192.0,120.0,3.0,64.0
143,71.0,0.0,120.0,1.0,64.0
144,71.0,0.0,120.0,2.0,64.0
145,80.0,0.0,120.0,2.0,64.0
146,80.0,0.0,120.0,4.0,64.0
147,83.0,0.0,120.0,3.0,64.0
148,83.0,60.0,120.0,1.0,64.0
149,80.0,0.0,180.0,2.0,64.0
150,61.0,0.0,390.0,5.0,64.0
151,80.0,0.0,180.0,4.0,64.0
152,83.0,0.0,180.0,3.0,64.0
153,83.0,192.0,180.0,1.0,64.0
154,82.0,132.0,180.0,3.0,64.0
155,78.0,0.0,180.0,4.0,64.0
156,78.0,0.0,180.0,2.0,64.0
157,82.0,0.0,180.0,1.0,64.0
158,82.0,0.0,180.0,1.0,64.0
159,78.0,0.0,180.0,4.0,64.0
160,42.0,0.0,120.0,7.0,64.0
161,54.0,60.0,120.0,6.0,64.0
162,73.0,0.0,180.0,5.0,64.0
163,82.0,192.0,180.0,2.0,64.0
164,82.0,0.0,180.0,3.0,64.0
165,66.0,0.0,180.0,5.0,64.0
166,75.0,0.0,390.0,4.0,64.0
167,57.0,0.0,180.0,7.0,64.0
168,84.0,192.0,390.0,2.0,64.0
169,69.0,192.0,180.0,6.0,64.0
170,84.0,0.0,390.0,1.0,64.0
171,84.0,0.0,390.0,3.0,64.0
172,68.0,192.0,570.0,5.0,64.0
173,68.0,0.0,180.0,6.0,64.0
174,56.0,0.0,180.0,7.0,64.0
175,85.0,0.0,390.0,1.0,64.0
176,85.0,0.0,390.0,2.0,64.0
177,66.0,0.0,180.0,6.0,64.0
178,54.0,132.0,180.0,7.0,64.0
179,85.0,0.0,390.0,3.0,64.0
180,80.0,0.0,390.0,4.0,64.0
181,64.0,60.0,120.0,6.0,64.0
182,52.0,0.0,120.0,7.0,64.0
183,79.0,0.0,390.0,2.0,64.0
184,70.0,192.0,390.0,4.0,64.0
185,52.0,0.0,180.0,7.0,64.0
186,61.0,192.0,180.0,5.0,64.0
187,79.0,0.0,390.0,1.0,64.0
188,79.0,0.0,390.0,3.0,64.0
189,64.0,0.0,180.0,6.0,64.0
190,63.0,0.0,570.0,5.0,64.0
191,63.0,0.0,180.0,6.0,64.0
192,51.0,0.0,180.0,7.0,64.0
193,75.0,0.0,390.0,4.0,64.0
194,80.0,0.0,390.0,2.0,64.0
195,49.0,0.0,180.0,7.0,64.0
196,80.0,0.0,390.0,3.0,64.0
197,61.0,132.0,180.0,6.0,64.0
198,80.0,192.0,390.0,1.0,64.0
199,59.0,60.0,120.0,6.0,64.0
200,47.0,0.0,120.0,7.0,64.0
201,77.0,0.0,390.0,4.0,64.0
202,59.0,0.0,180.0,6.0,64.0
203,47.0,192.0,180.0,7.0,64.0
204,86.0,0.0,390.0,3.0,64.0
205,68.0,0.0,180.0,5.0,64.0
206,86.0,192.0,390.0,2.0,64.0
207,86.0,0.0,390.0,1.0,64.0
208,46.0,0.0,180.0,7.0,64.0
209,58.0,0.0,180.0,6.0,64.0
210,70.0,0.0,570.0,5.0,64.0
211,82.0,192.0,390.0,4.0,64.0
212,44.0,0.0,180.0,7.0,64.0
213,87.0,0.0,390.0,1.0,64.0
214,56.0,132.0,180.0,6.0,64.0
215,87.0,0.0,390.0,3.0,64.0
216,87.0,0.0,390.0,2.0,64.0
217,54.0,0.0,120.0,6.0,64.0
218,42.0,60.0,120.0,7.0,64.0
219,81.0,192.0,390.0,2.0,64.0
220,72.0,0.0,390.0,4.0,64.0
221,81.0,0.0,390.0,1.0,64.0
222,42.0,0.0,180.0,7.0,64.0
223,63.0,192.0,180.0,5.0,64.0
224,81.0,0.0,390.0,3.0,64.0
225,54.0,0.0,180.0,6.0,64.0
226,41.0,0.0,180.0,7.0,64.0
227,65.0,192.0,750.0,5.0,64.0
228,53.0,0.0,180.0,6.0,64.0
229,82.0,0.0,390.0,1.0,64.0
230,77.0,132.0,390.0,4.0,64.0
231,82.0,0.0,390.0,2.0,64.0
232,82.0,0.0,390.0,3.0,64.0
233,39.0,192.0,180.0,7.0,64.0
234,51.0,0.0,180.0,6.0,64.0
235,38.0,0.0,390.0,7.0,64.0
236,50.0,0.0,390.0,6.0,64.0
237,74.0,0.0,120.0,2.0,64.0
238,77.0,0.0,120.0,1.0,64.0
239,77.0,0.0,120.0,3.0,64.0
240,74.0,60.0,120.0,4.0,64.0
241,74.0,0.0,180.0,4.0,64.0
242,74.0,0.0,180.0,2.0,64.0
243,68.0,0.0,390.0,5.0,64.0
244,77.0,192.0,180.0,1.0,64.0
245,77.0,0.0,180.0,3.0,64.0
246,53.0,0.0,390.0,6.0,64.0
247,41.0,0.0,390.0,7.0,64.0
248,78.0,132.0,180.0,3.0,64.0
249,78.0,0.0,180.0,1.0,64.0
250,75.0,0.0,180.0,4.0,64.0
251,75.0,0.0,180.0,2.0,64.0
252,77.0,0.0,120.0,2.0,64.0
253,80.0,0.0,120.0,1.0,64.0
254,46.0,0.0,390.0,6.0,64.0
255,80.0,0.0,120.0,3.0,64.0
256,34.0,192.0,390.0,7.0,64.0
257,62.0,0.0,390.0,5.0,64.0
258,77.0,192.0,120.0,4.0,64.0
259,68.0,0.0,120.0,4.0,64.0
260,71.0,0.0,120.0,1.0,64.0
261,71.0,0.0,120.0,3.0,64.0
262,68.0,60.0,120.0,2.0,64.0
263,74.0,0.0,390.0,5.0,64.0
264,53.0,0.0,390.0,6.0,64.0
265,41.0,132.0,390.0,7.0,64.0
266,71.0,0.0,180.0,3.0,64.0
267,68.0,0.0,180.0,4.0,64.0
268,71.0,192.0,180.0,1.0,64.0
269,68.0,0.0,180.0,2.0,64.0
270,66.0,0.0,180.0,2.0,64.0
271,66.0,0.0,180.0,4.0,64.0
272,70.0,0.0,180.0,1.0,64.0
273,70.0,0.0,180.0,3.0,64.0
274,70.0,60.0,120.0,2.0,64.0
275,54.0,0.0,120.0,6.0,64.0
276,75.0,0.0,120.0,5.0,64.0
277,70.0,0.0,120.0,1.0,64.0
278,66.0,192.0,180.0,4.0,64.0
279,42.0,0.0,120.0,7.0,64.0
280,70.0,0.0,120.0,3.0,64.0
281,80.0,0.0,180.0,2.0,64.0
282,35.0,0.0,180.0,7.0,64.0
283,47.0,192.0,180.0,6.0,64.0
284,75.0,192.0,390.0,4.0,64.0
285,68.0,0.0,180.0,5.0,64.0
286,80.0,0.0,180.0,1.0,64.0
287,80.0,0.0,180.0,3.0,64.0
288,34.0,0.0,180.0,7.0,64.0
289,70.0,0.0,180.0,5.0,64.0
290,46.0,0.0,180.0,6.0,64.0
291,78.0,0.0,180.0,3.0,64.0
292,78.0,0.0,180.0,1.0,64.0
293,78.0,0.0,180.0,2.0,64.0
294,77.0,0.0,180.0,2.0,64.0
295,74.0,0.0,180.0,4.0,64.0
296,77.0,0.0,180.0,1.0,64.0
297,32.0,192.0,180.0,7.0,64.0
298,71.0,0.0,180.0,5.0,64.0
299,77.0,0.0,180.0,3.0,64.0
300,44.0,0.0,180.0,6.0,64.0
301,70.0,0.0,180.0,5.0,64.0
302,82.0,0.0,180.0,3.0,64.0
303,75.0,192.0,180.0,4.0,64.0
304,42.0,0.0,180.0,6.0,64.0
305,82.0,0.0,180.0,1.0,64.0
306,82.0,0.0,180.0,2.0,64.0
307,30.0,0.0,180.0,7.0,64.0
308,44.0,0.0,180.0,6.0,64.0
309,71.0,0.0,180.0,5.0,64.0
310,32.0,0.0,180.0,7.0,64.0
311,80.0,0.0,180.0,3.0,64.0
312,80.0,0.0,180.0,2.0,64.0
313,80.0,192.0,180.0,1.0,64.0
314,77.0,0.0,180.0,4.0,64.0
315,78.0,192.0,180.0,3.0,64.0
316,70.0,0.0,180.0,5.0,64.0
317,78.0,0.0,180.0,1.0,64.0
318,78.0,0.0,180.0,2.0,64.0
319,75.0,0.0,180.0,4.0,64.0
320,34.0,0.0,390.0,7.0,64.0
321,46.0,132.0,390.0,6.0,64.0
322,77.0,0.0,180.0,3.0,64.0
323,74.0,0.0,180.0,4.0,64.0
324,68.0,0.0,180.0,5.0,64.0
325,77.0,0.0,180.0,1.0,64.0
326,77.0,0.0,180.0,2.0,64.0
327,75.0,0.0,180.0,1.0,64.0
328,51.0,132.0,180.0,7.0,64.0
329,75.0,0.0,120.0,3.0,64.0
330,75.0,132.0,390.0,2.0,64.0
331,75.0,0.0,180.0,0.0,64.0
332,70.0,0.0,120.0,4.0,64.0
333,63.0,0.0,180.0,6.0,64.0
334,66.0,60.0,120.0,5.0,64.0
335,71.0,60.0,120.0,3.0,64.0
336,62.0,0.0,120.0,5.0,64.0
337,39.0,0.0,180.0,7.0,64.0
338,68.0,0.0,120.0,4.0,64.0
339,77.0,0.0,390.0,1.0,64.0
340,51.0,0.0,180.0,6.0,64.0
341,77.0,0.0,390.0,0.0,64.0
342,51.0,0.0,180.0,6.0,64.0
343,71.0,0.0,180.0,3.0,64.0
344,62.0,0.0,120.0,5.0,64.0
345,68.0,60.0,120.0,4.0,64.0
346,39.0,132.0,180.0,7.0,64.0
347,51.0,0.0,180.0,6.0,64.0
348,74.0,0.0,180.0,1.0,64.0
349,65.0,60.0,120.0,5.0,64.0
350,74.0,0.0,180.0,0.0,64.0
351,70.0,0.0,180.0,3.0,64.0
352,68.0,0.0,120.0,4.0,64.0
353,39.0,132.0,180.0,7.0,64.0
354,66.0,0.0,390.0,5.0,64.0
355,75.0,0.0,120.0,1.0,64.0
356,66.0,192.0,120.0,4.0,64.0
357,39.0,192.0,390.0,7.0,64.0
358,51.0,0.0,390.0,6.0,64.0
359,70.0,0.0,120.0,3.0,64.0
360,75.0,0.0,390.0,0.0,64.0
361,80.0,0.0,120.0,4.0,64.0
362,83.0,0.0,120.0,1.0,64.0
363,80.0,60.0,120.0,2.0,64.0
364,83.0,0.0,120.0,3.0,64.0
365,83.0,192.0,180.0,1.0,64.0
366,80.0,0.0,180.0,4.0,64.0
367,80.0,0.0,180.0,2.0,64.0
368,62.0,0.0,390.0,5.0,64.0
369,83.0,0.0,180.0,3.0,64.0
370,78.0,0.0,180.0,4.0,64.0
371,78.0,132.0,180.0,2.0,64.0
372,82.0,0.0,180.0,1.0,64.0
373,82.0,0.0,180.0,3.0,64.0
374,70.0,0.0,120.0,3.0,64.0
375,63.0,192.0,390.0,5.0,64.0
376,66.0,192.0,120.0,4.0,64.0
377,70.0,0.0,120.0,1.0,64.0
378,70.0,0.0,120.0,2.0,64.0
379,82.0,0.0,120.0,3.0,64.0
380,78.0,0.0,120.0,4.0,64.0
381,82.0,60.0,120.0,1.0,64.0
382,78.0,0.0,120.0,2.0,64.0
383,82.0,0.0,180.0,1.0,64.0
384,82.0,192.0,180.0,3.0,64.0
385,78.0,0.0,180.0,4.0,64.0
386,78.0,0.0,180.0,2.0,64.0
387,58.0,0.0,390.0,5.0,64.0
388,80.0,132.0,180.0,3.0,64.0
389,77.0,0.0,180.0,2.0,64.0
390,80.0,0.0,180.0,1.0,64.0
391,77.0,0.0,180.0,4.0,64.0
392,68.0,0.0,120.0,3.0,64.0
393,62.0,192.0,390.0,5.0,64.0
394,65.0,0.0,120.0,4.0,64.0
395,68.0,0.0,120.0,2.0,64.0
396,68.0,192.0,120.0,1.0,64.0
397,77.0,0.0,120.0,4.0,64.0
398,77.0,0.0,120.0,2.0,64.0
399,80.0,60.0,120.0,1.0,64.0
400,80.0,0.0,120.0,3.0,64.0
401,77.0,0.0,180.0,4.0,64.0
402,58.0,0.0,390.0,5.0,64.0
403,77.0,0.0,180.0,2.0,64.0
404,80.0,192.0,180.0,3.0,64.0
405,80.0,0.0,180.0,1.0,64.0
406,78.0,0.0,180.0,1.0,64.0
407,75.0,0.0,180.0,4.0,64.0
408,78.0,0.0,180.0,3.0,64.0
409,75.0,132.0,180.0,2.0,64.0
410,75.0,0.0,120.0,4.0,64.0
411,78.0,60.0,120.0,3.0,64.0
412,78.0,0.0,180.0,1.0,64.0
413,51.0,0.0,180.0,7.0,64.0
414,63.0,0.0,180.0,6.0,64.0
415,75.0,0.0,180.0,2.0,64.0
416,78.0,132.0,180.0,0.0,64.0
417,63.0,192.0,390.0,5.0,64.0
418,75.0,0.0,120.0,3.0,64.0
419,59.0,0.0,180.0,6.0,64.0
420,68.0,60.0,120.0,4.0,64.0
421,47.0,0.0,180.0,7.0,64.0
422,80.0,0.0,390.0,1.0,64.0
423,80.0,0.0,390.0,0.0,64.0
424,71.0,0.0,180.0,4.0,64.0
425,44.0,0.0,180.0,7.0,64.0
426,56.0,0.0,180.0,6.0,64.0
427,75.0,0.0,180.0,3.0,64.0
428,68.0,192.0,180.0,5.0,64.0
429,61.0,0.0,180.0,6.0,64.0
430,77.0,0.0,180.0,0.0,64.0
431,68.0,0.0,180.0,5.0,64.0
432,71.0,0.0,180.0,4.0,64.0
433,77.0,132.0,180.0,1.0,64.0
434,73.0,0.0,180.0,3.0,64.0
435,49.0,0.0,180.0,7.0,64.0
436,78.0,192.0,390.0,0.0,64.0
437,42.0,0.0,390.0,7.0,64.0
438,73.0,0.0,120.0,3.0,64.0
439,54.0,0.0,390.0,6.0,64.0
440,70.0,0.0,390.0,5.0,64.0
441,78.0,192.0,120.0,1.0,64.0
442,70.0,0.0,120.0,4.0,64.0
443,87.0,0.0,120.0,3.0,64.0
444,87.0,60.0,120.0,1.0,64.0
445,83.0,0.0,120.0,4.0,64.0
446,83.0,0.0,120.0,2.0,64.0
447,83.0,0.0,180.0,2.0,64.0
448,87.0,0.0,180.0,3.0,64.0
449,65.0,0.0,390.0,5.0,64.0
450,83.0,0.0,180.0,4.0,64.0
451,87.0,192.0,180.0,1.0,64.0
452,85.0,132.0,180.0,3.0,64.0
453,85.0,0.0,180.0,1.0,64.0
454,82.0,0.0,180.0,2.0,64.0
455,82.0,0.0,180.0,4.0,64.0
456,70.0,0.0,120.0,4.0,64.0
457,66.0,192.0,390.0,5.0,64.0
458,73.0,192.0,120.0,2.0,64.0
459,73.0,0.0,120.0,3.0,64.0
460,73.0,0.0,120.0,1.0,64.0
461,85.0,60.0,120.0,3.0,64.0
462,82.0,0.0,120.0,2.0,64.0
463,85.0,0.0,120.0,1.0,64.0
464,82.0,0.0,120.0,4.0,64.0
465,82.0,0.0,180.0,2.0,64.0
466,61.0,132.0,390.0,5.0,64.0
467,85.0,0.0,180.0,1.0,64.0
468,85.0,0.0,180.0,3.0,64.0
469,82.0,192.0,180.0,4.0,64.0
470,80.0,0.0,180.0,4.0,64.0
471,83.0,0.0,180.0,3.0,64.0
472,80.0,0.0,180.0,2.0,64.0
473,83.0,0.0,180.0,1.0,64.0
474,71.0,0.0,120.0,2.0,64.0
475,71.0,192.0,120.0,1.0,64.0
476,68.0,0.0,120.0,4.0,64.0
477,71.0,0.0,120.0,3.0,64.0
478,65.0,192.0,390.0,5.0,64.0
479,83.0,60.0,120.0,1.0,64.0
480,83.0,0.0,120.0,3.0,64.0
481,80.0,0.0,120.0,2.0,64.0
482,80.0,0.0,120.0,4.0,64.0
483,83.0,0.0,180.0,1.0,64.0
484,80.0,0.0,180.0,2.0,64.0
485,83.0,192.0,180.0,3.0,64.0
486,61.0,0.0,390.0,5.0,64.0
487,80.0,0.0,180.0,4.0,64.0
488,78.0,132.0,180.0,4.0,64.0
489,82.0,0.0,180.0,1.0,64.0
490,78.0,0.0,180.0,2.0,64.0
491,82.0,0.0,180.0,3.0,64.0
492,78.0,192.0,390.0,4.0,64.0
493,78.0,192.0,180.0,2.0,64.0
494,66.0,0.0,390.0,5.0,64.0
495,82.0,0.0,180.0,3.0,64.0
496,82.0,60.0,120.0,1.0,64.0
497,81.0,0.0,180.0,0.0,64.0
498,84.0,0.0,390.0,3.0,64.0
499,81.0,0.0,180.0,1.0,64.0
500,75.0,0.0,390.0,4.0,64.0
501,68.0,0.0,390.0,5.0,64.0
502,80.0,192.0,180.0,0.0,64.0
503,80.0,0.0,180.0,1.0,64.0
504,78.0,132.0,180.0,0.0,64.0
505,78.0,0.0,180.0,1.0,64.0
506,85.0,132.0,390.0,3.0,64.0
507,76.0,0.0,180.0,0.0,64.0
508,76.0,0.0,390.0,4.0,64.0
509,61.0,96.0,390.0,5.0,64.0
510,76.0,60.0,120.0,1.0,64.0
511,79.0,192.0,390.0,3.0,64.0
512,76.0,0.0,180.0,0.0,64.0
513,76.0,60.0,120.0,1.0,64.0
514,63.0,132.0,390.0,6.0,64.0
515,70.0,0.0,390.0,4.0,64.0
516,75.0,0.0,90.0,0.0,64.0
517,51.0,0.0,390.0,7.0,64.0
518,75.0,96.0,90.0,1.0,64.0
519,63.0,0.0,390.0,5.0,64.0
520,76.0,0.0,90.0,1.0,64.0
521,76.0,0.0,90.0,0.0,64.0
522,73.0,0.0,180.0,1.0,64.0
523,73.0,0.0,180.0,0.0,64.0
524,80.0,192.0,390.0,3.0,64.0
525,71.0,60.0,120.0,1.0,64.0
526,63.0,0.0,390.0,5.0,64.0
527,56.0,0.0,390.0,6.0,64.0
528,71.0,0.0,390.0,4.0,64.0
529,44.0,0.0,390.0,7.0,64.0
530,71.0,0.0,180.0,0.0,64.0
531,83.0,0.0,180.0,0.0,64.0
532,86.0,0.0,390.0,3.0,64.0
533,83.0,192.0,180.0,1.0,64.0
534,70.0,0.0,390.0,5.0,64.0
535,77.0,0.0,390.0,4.0,64.0
536,82.0,0.0,180.0,0.0,64.0
537,82.0,192.0,180.0,1.0,64.0
538,80.0,132.0,180.0,0.0,64.0
539,87.0,0.0,390.0,3.0,64.0
540,80.0,0.0,180.0,1.0,64.0
541,63.0,96.0,390.0,5.0,64.0
542,78.0,60.0,120.0,1.0,64.0
543,78.0,132.0,180.0,0.0,64.0
544,78.0,0.0,390.0,4.0,64.0
545,81.0,0.0,390.0,3.0,64.0
546,78.0,0.0,180.0,0.0,64.0
547,78.0,60.0,120.0,1.0,64.0
548,65.0,132.0,390.0,6.0,64.0
549,65.0,0.0,390.0,5.0,64.0
550,77.0,96.0,90.0,1.0,64.0
551,72.0,0.0,390.0,4.0,64.0
552,77.0,0.0,90.0,0.0,64.0
553,53.0,0.0,390.0,7.0,64.0
554,78.0,0.0,90.0,0.0,64.0
555,78.0,192.0,90.0,1.0,64.0
556,82.0,0.0,180.0,3.0,64.0
557,75.0,0.0,180.0,0.0,64.0
558,75.0,0.0,180.0,1.0,64.0
559,46.0,192.0,390.0,7.0,64.0
560,74.0,0.0,120.0,1.0,64.0
561,82.0,0.0,960.0,3.0,64.0
562,74.0,192.0,180.0,0.0,64.0
563,58.0,0.0,390.0,6.0,64.0
564,65.0,60.0,120.0,5.0,64.0
565,74.0,0.0,120.0,4.0,64.0
566,62.0,0.0,180.0,5.0,64.0
567,80.0,0.0,180.0,4.0,64.0
568,77.0,0.0,180.0,0.0,64.0
569,77.0,0.0,180.0,1.0,64.0
570,78.0,0.0,180.0,1.0,64.0
571,78.0,132.0,180.0,4.0,64.0
572,70.0,0.0,180.0,5.0,64.0
573,78.0,0.0,180.0,0.0,64.0
574,46.0,0.0,180.0,6.0,64.0
575,34.0,0.0,180.0,7.0,64.0
576,68.0,132.0,180.0,5.0,64.0
577,74.0,0.0,180.0,0.0,64.0
578,74.0,60.0,120.0,1.0,64.0
579,77.0,0.0,180.0,4.0,64.0
580,75.0,192.0,960.0,4.0,64.0
581,47.0,0.0,390.0,6.0,64.0
582,75.0,0.0,180.0,0.0,64.0
583,35.0,0.0,390.0,7.0,64.0
584,75.0,60.0,120.0,1.0,64.0
585,66.0,192.0,180.0,5.0,64.0
586,79.0,0.0,180.0,0.0,64.0
587,63.0,0.0,390.0,5.0,64.0
588,79.0,192.0,180.0,1.0,64.0
589,82.0,0.0,180.0,3.0,64.0
590,80.0,0.0,180.0,0.0,64.0
591,80.0,0.0,180.0,3.0,64.0
592,80.0,132.0,180.0,1.0,64.0
593,75.0,60.0,120.0,1.0,64.0
594,48.0,132.0,180.0,6.0,64.0
595,78.0,0.0,180.0,3.0,64.0
596,68.0,0.0,390.0,5.0,64.0
597,36.0,0.0,180.0,7.0,64.0
598,75.0,0.0,180.0,0.0,64.0
599,77.0,60.0,120.0,1.0,64.0
600,77.0,192.0,960.0,3.0,64.0
601,37.0,192.0,390.0,7.0,64.0
602,77.0,0.0,180.0,0.0,64.0
603,49.0,0.0,390.0,6.0,64.0
604,81.0,0.0,180.0,1.0,64.0
605,75.0,0.0,180.0,4.0,64.0
606,66.0,0.0,180.0,5.0,64.0
607,81.0,0.0,180.0,0.0,64.0
608,73.0,0.0,180.0,4.0,64.0
609,82.0,0.0,180.0,0.0,64.0
610,82.0,132.0,180.0,1.0,64.0
611,65.0,0.0,180.0,5.0,64.0
612,38.0,132.0,180.0,7.0,64.0
613,50.0,0.0,180.0,6.0,64.0
614,77.0,60.0,120.0,1.0,64.0
615,77.0,0.0,180.0,0.0,64.0
616,68.0,0.0,180.0,5.0,64.0
617,71.0,0.0,180.0,4.0,64.0
618,78.0,0.0,180.0,0.0,64.0
619,66.0,0.0,120.0,5.0,64.0
620,51.0,0.0,390.0,6.0,64.0
621,70.0,60.0,120.0,4.0,64.0
622,78.0,0.0,120.0,1.0,64.0
623,39.0,0.0,390.0,7.0,64.0
624,67.0,0.0,180.0,5.0,64.0
625,76.0,0.0,180.0,3.0,64.0
626,73.0,192.0,180.0,4.0,64.0
627,82.0,0.0,180.0,1.0,64.0
628,82.0,0.0,180.0,0.0,64.0
629,83.0,0.0,180.0,0.0,64.0
630,83.0,0.0,180.0,1.0,64.0
631,71.0,132.0,180.0,4.0,64.0
632,75.0,0.0,180.0,3.0,64.0
633,68.0,0.0,180.0,5.0,64.0
634,51.0,0.0,180.0,6.0,64.0
635,73.0,132.0,180.0,3.0,64.0
636,79.0,60.0,120.0,1.0,64.0
637,79.0,0.0,180.0,0.0,64.0
638,39.0,0.0,180.0,7.0,64.0
639,70.0,0.0,180.0,4.0,64.0
640,63.0,0.0,180.0,5.0,64.0
641,71.0,0.0,120.0,3.0,64.0
642,80.0,192.0,1710.0,0.0,64.0
643,68.0,0.0,120.0,4.0,64.0
644,80.0,0.0,1710.0,1.0,64.0
645,52.0,0.0,120.0,6.0,64.0
646,68.0,192.0,120.0,5.0,64.0
647,40.0,0.0,120.0,7.0,64.0
648,40.0,252.0,120.0,7.0,64.0
649,70.0,0.0,120.0,4.0,64.0
650,85.0,0.0,120.0,3.0,64.0
651,52.0,0.0,120.0,6.0,64.0
652,61.0,0.0,120.0,5.0,64.0
653,85.0,0.0,120.0,2.0,64.0
654,52.0,0.0,180.0,6.0,64.0
655,85.0,0.0,180.0,2.0,64.0
656,85.0,192.0,180.0,3.0,64.0
657,40.0,0.0,180.0,7.0,64.0
658,61.0,0.0,180.0,5.0,64.0
659,70.0,0.0,180.0,4.0,64.0
660,63.0,0.0,180.0,5.0,64.0
661,71.0,0.0,180.0,4.0,64.0
662,83.0,0.0,180.0,2.0,64.0
663,39.0,0.0,180.0,7.0,64.0
664,51.0,0.0,180.0,6.0,64.0
665,83.0,132.0,180.0,3.0,64.0
666,71.0,0.0,120.0,3.0,64.0
667,63.0,0.0,120.0,5.0,64.0
668,39.0,0.0,120.0,7.0,64.0
669,71.0,0.0,120.0,2.0,64.0
670,51.0,0.0,120.0,6.0,64.0
671,71.0,192.0,120.0,4.0,64.0
672,83.0,0.0,120.0,3.0,64.0
673,83.0,0.0,120.0,2.0,64.0
674,51.0,0.0,120.0,6.0,64.0
675,39.0,252.0,120.0,7.0,64.0
676,68.0,0.0,120.0,5.0,64.0
677,75.0,0.0,120.0,4.0,64.0
678,75.0,0.0,180.0,4.0,64.0
679,51.0,0.0,180.0,6.0,64.0
680,39.0,0.0,180.0,7.0,64.0
681,83.0,0.0,180.0,2.0,64.0
682,83.0,192.0,180.0,3.0,64.0
683,71.0,0.0,180.0,5.0,64.0
684,77.0,0.0,180.0,4.0,64.0
685,82.0,0.0,180.0,3.0,64.0
686,38.0,0.0,180.0,7.0,64.0
687,50.0,0.0,180.0,6.0,64.0
688,82.0,0.0,180.0,2.0,64.0
689,65.0,192.0,180.0,5.0,64.0
690,82.0,192.0,1140.0,3.0,64.0
691,38.0,192.0,390.0,7.0,64.0
692,82.0,0.0,180.0,2.0,64.0
693,50.0,0.0,390.0,6.0,64.0
694,70.0,0.0,960.0,5.0,64.0
695,77.0,0.0,1140.0,4.0,64.0
696,75.0,0.0,180.0,0.0,64.0
697,75.0,0.0,180.0,1.0,64.0
698,74.0,192.0,180.0,0.0,64.0
699,34.0,0.0,390.0,7.0,64.0
700,74.0,0.0,180.0,1.0,64.0
701,46.0,0.0,390.0,6.0,64.0
702,80.0,0.0,180.0,0.0,64.0
703,80.0,192.0,180.0,1.0,64.0
704,51.0,0.0,390.0,6.0,64.0
705,78.0,0.0,180.0,1.0,64.0
706,78.0,192.0,180.0,0.0,64.0
707,39.0,0.0,390.0,7.0,64.0
708,74.0,0.0,180.0,1.0,64.0
709,68.0,0.0,180.0,5.0,64.0
710,74.0,0.0,180.0,0.0,64.0
711,75.0,0.0,180.0,0.0,64.0
712,70.0,0.0,390.0,3.0,64.0
713,75.0,132.0,570.0,4.0,64.0
714,42.0,0.0,390.0,7.0,64.0
715,66.0,132.0,180.0,5.0,64.0
716,75.0,0.0,180.0,1.0,64.0
717,54.0,0.0,390.0,6.0,64.0
718,78.0,0.0,180.0,1.0,64.0
719,78.0,132.0,180.0,0.0,64.0
720,70.0,60.0,120.0,5.0,64.0
721,68.0,0.0,1530.0,1.0,64.0
722,75.0,60.0,120.0,3.0,64.0
723,47.0,192.0,390.0,6.0,64.0
724,71.0,132.0,960.0,5.0,64.0
725,35.0,0.0,390.0,7.0,64.0
726,68.0,0.0,1530.0,0.0,64.0
727,77.0,60.0,120.0,3.0,64.0
728,77.0,0.0,120.0,2.0,64.0
729,74.0,0.0,120.0,4.0,64.0
730,77.0,0.0,180.0,2.0,64.0
731,74.0,0.0,180.0,4.0,64.0
732,77.0,192.0,180.0,3.0,64.0
733,59.0,0.0,390.0,6.0,64.0
734,47.0,0.0,390.0,7.0,64.0
735,75.0,0.0,180.0,4.0,64.0
736,78.0,132.0,180.0,2.0,64.0
737,78.0,0.0,180.0,3.0,64.0
738,38.0,0.0,390.0,7.0,64.0
739,50.0,192.0,390.0,6.0,64.0
740,80.0,0.0,120.0,2.0,64.0
741,77.0,0.0,120.0,4.0,64.0
742,80.0,60.0,120.0,3.0,64.0
743,62.0,0.0,180.0,5.0,64.0
744,71.0,0.0,120.0,3.0,64.0
745,68.0,60.0,120.0,4.0,64.0
746,71.0,0.0,120.0,2.0,64.0
747,71.0,192.0,180.0,3.0,64.0
748,41.0,0.0,390.0,7.0,64.0
749,62.0,0.0,180.0,5.0,64.0
750,53.0,0.0,390.0,6.0,64.0
751,68.0,0.0,180.0,4.0,64.0
752,71.0,0.0,180.0,2.0,64.0
753,63.0,0.0,180.0,5.0,64.0
754,66.0,0.0,180.0,4.0,64.0
755,70.0,0.0,180.0,2.0,64.0
756,70.0,192.0,180.0,3.0,64.0
757,30.0,0.0,180.0,7.0,64.0
758,66.0,0.0,180.0,4.0,64.0
759,42.0,0.0,180.0,6.0,64.0
760,70.0,0.0,180.0,2.0,64.0
761,70.0,192.0,180.0,3.0,64.0
762,63.0,0.0,180.0,5.0,64.0
763,59.0,0.0,180.0,6.0,64.0
764,80.0,0.0,180.0,1.0,64.0
765,47.0,192.0,180.0,7.0,64.0
766,80.0,0.0,180.0,0.0,64.0
767,78.0,0.0,180.0,0.0,64.0
768,58.0,0.0,180.0,6.0,64.0
769,46.0,0.0,180.0,7.0,64.0
770,78.0,192.0,180.0,1.0,64.0
771,44.0,0.0,180.0,7.0,64.0
772,77.0,192.0,180.0,0.0,64.0
773,56.0,0.0,180.0,6.0,64.0
774,77.0,0.0,180.0,1.0,64.0
775,82.0,0.0,180.0,1.0,64.0
776,54.0,192.0,180.0,6.0,64.0
777,82.0,0.0,180.0,0.0,64.0
778,42.0,0.0,180.0,7.0,64.0
779,44.0,0.0,180.0,7.0,64.0
780,75.0,0.0,180.0,0.0,64.0
781,56.0,0.0,180.0,6.0,64.0
782,75.0,192.0,180.0,1.0,64.0
783,58.0,0.0,390.0,6.0,64.0
784,46.0,0.0,390.0,7.0,64.0
785,70.0,192.0,180.0,0.0,64.0
786,70.0,0.0,180.0,1.0,64.0
787,78.0,0.0,180.0,1.0,64.0
788,78.0,96.0,180.0,0.0,64.0
789,63.0,0.0,180.0,6.0,64.0
790,77.0,36.0,90.0,1.0,64.0
791,66.0,0.0,120.0,5.0,64.0
792,51.0,0.0,180.0,7.0,64.0
793,75.0,0.0,180.0,3.0,64.0
794,75.0,192.0,180.0,2.0,64.0
795,77.0,0.0,390.0,0.0,64.0
796,70.0,60.0,120.0,4.0,64.0
797,75.0,0.0,90.0,1.0,64.0
798,51.0,192.0,180.0,6.0,64.0
799,39.0,0.0,180.0,7.0,64.0
800,77.0,0.0,390.0,3.0,64.0
801,77.0,0.0,390.0,1.0,64.0
802,68.0,0.0,390.0,5.0,64.0
803,77.0,132.0,390.0,2.0,64.0
804,39.0,0.0,180.0,7.0,64.0
805,51.0,0.0,180.0,6.0,64.0
806,75.0,0.0,390.0,0.0,64.0
807,74.0,0.0,120.0,1.0,64.0
808,39.0,0.0,180.0,7.0,64.0
809,51.0,132.0,180.0,6.0,64.0
810,74.0,0.0,120.0,3.0,64.0
811,74.0,0.0,120.0,2.0,64.0
812,68.0,0.0,120.0,4.0,64.0
813,65.0,60.0,120.0,5.0,64.0
814,66.0,0.0,390.0,5.0,64.0
815,70.0,0.0,120.0,4.0,64.0
816,75.0,0.0,120.0,3.0,64.0
817,51.0,0.0,390.0,6.0,64.0
818,39.0,0.0,390.0,7.0,64.0
819,75.0,192.0,120.0,1.0,64.0
820,75.0,0.0,120.0,2.0,64.0
821,80.0,192.0,180.0,4.0,64.0
822,83.0,60.0,120.0,3.0,64.0
823,83.0,0.0,120.0,1.0,64.0
824,80.0,0.0,120.0,2.0,64.0
825,80.0,0.0,180.0,4.0,64.0
826,62.0,0.0,390.0,5.0,64.0
827,83.0,0.0,180.0,3.0,64.0
828,83.0,0.0,180.0,1.0,64.0
829,80.0,192.0,180.0,2.0,64.0
830,82.0,0.0,180.0,3.0,64.0
831,82.0,0.0,180.0,1.0,64.0
832,78.0,0.0,180.0,2.0,64.0
833,78.0,132.0,180.0,4.0,64.0
834,66.0,192.0,120.0,4.0,64.0
835,70.0,0.0,120.0,1.0,64.0
836,63.0,192.0,390.0,5.0,64.0
837,70.0,0.0,120.0,3.0,64.0
838,70.0,0.0,120.0,2.0,64.0
839,82.0,60.0,120.0,1.0,64.0
840,82.0,0.0,120.0,3.0,64.0
841,78.0,0.0,120.0,4.0,64.0
842,78.0,0.0,120.0,2.0,64.0
843,78.0,0.0,180.0,4.0,64.0
844,82.0,0.0,180.0,3.0,64.0
845,82.0,192.0,180.0,1.0,64.0
846,58.0,0.0,390.0,5.0,64.0
847,78.0,0.0,180.0,2.0,64.0
848,80.0,0.0,180.0,3.0,64.0
849,77.0,132.0,180.0,2.0,64.0
850,77.0,0.0,180.0,4.0,64.0
851,80.0,0.0,180.0,1.0,64.0
852,62.0,192.0,390.0,5.0,64.0
853,68.0,192.0,120.0,1.0,64.0
854,68.0,0.0,120.0,3.0,64.0
855,68.0,0.0,120.0,2.0,64.0
856,65.0,0.0,120.0,4.0,64.0
857,80.0,0.0,120.0,3.0,64.0
858,80.0,0.0,120.0,1.0,64.0
859,77.0,0.0,120.0,2.0,64.0
860,77.0,60.0,120.0,4.0,64.0
861,77.0,0.0,180.0,2.0,64.0
862,58.0,192.0,390.0,5.0,64.0
863,77.0,0.0,180.0,4.0,64.0
864,80.0,192.0,180.0,3.0,64.0
865,80.0,0.0,180.0,1.0,64.0
866,75.0,0.0,180.0,4.0,64.0
867,78.0,0.0,180.0,1.0,64.0
868,75.0,0.0,180.0,2.0,64.0
869,78.0,0.0,180.0,3.0,64.0
870,78.0,0.0,180.0,2.0,64.0
871,78.0,0.0,180.0,1.0,64.0
872,70.0,0.0,180.0,5.0,64.0
873,75.0,0.0,180.0,4.0,64.0
874,78.0,192.0,180.0,3.0,64.0
875,63.0,0.0,180.0,6.0,64.0
876,51.0,0.0,180.0,7.0,64.0
877,75.0,0.0,390.0,4.0,64.0
878,80.0,0.0,390.0,2.0,64.0
879,80.0,0.0,390.0,1.0,64.0
880,59.0,0.0,180.0,6.0,64.0
881,80.0,132.0,390.0,3.0,64.0
882,71.0,0.0,390.0,5.0,64.0
883,47.0,192.0,180.0,7.0,64.0
884,44.0,0.0,180.0,7.0,64.0
885,56.0,0.0,180.0,6.0,64.0
886,77.0,0.0,120.0,3.0,64.0
887,61.0,132.0,180.0,6.0,64.0
888,73.0,60.0,120.0,4.0,64.0
889,77.0,0.0,120.0,2.0,64.0
890,49.0,0.0,180.0,7.0,64.0
891,77.0,0.0,120.0,1.0,64.0
892,68.0,0.0,120.0,5.0,64.0
893,78.0,0.0,120.0,1.0,64.0
894,78.0,0.0,120.0,2.0,64.0
895,73.0,0.0,120.0,4.0,64.0
896,70.0,0.0,390.0,5.0,64.0
897,54.0,0.0,390.0,6.0,64.0
898,78.0,192.0,120.0,3.0,64.0
899,42.0,192.0,390.0,7.0,64.0
900,83.0,0.0,120.0,4.0,64.0
901,87.0,0.0,120.0,1.0,64.0
902,87.0,60.0,120.0,3.0,64.0
903,83.0,0.0,120.0,2.0,64.0
904,87.0,192.0,180.0,3.0,64.0
905,83.0,0.0,180.0,2.0,64.0
906,83.0,0.0,180.0,4.0,64.0
907,87.0,0.0,180.0,1.0,64.0
908,65.0,132.0,390.0,5.0,64.0
909,82.0,0.0,180.0,2.0,64.0
910,85.0,0.0,180.0,3.0,64.0
911,82.0,0.0,180.0,4.0,64.0
912,85.0,0.0,180.0,1.0,64.0
913,73.0,0.0,120.0,1.0,64.0
914,70.0,0.0,120.0,4.0,64.0
915,73.0,0.0,120.0,3.0,64.0
916,73.0,192.0,120.0,2.0,64.0
917,66.0,192.0,390.0,5.0,64.0
918,85.0,0.0,120.0,3.0,64.0
919,85.0,0.0,120.0,1.0,64.0
920,82.0,0.0,120.0,4.0,64.0
921,82.0,60.0,120.0,2.0,64.0
922,82.0,0.0,180.0,4.0,64.0
923,82.0,0.0,180.0,2.0,64.0
924,85.0,0.0,180.0,1.0,64.0
925,61.0,0.0,390.0,5.0,64.0
926,85.0,192.0,180.0,3.0,64.0
927,80.0,0.0,180.0,2.0,64.0
928,83.0,0.0,180.0,3.0,64.0
929,80.0,0.0,180.0,4.0,64.0
930,83.0,132.0,180.0,1.0,64.0
931,71.0,192.0,120.0,2.0,64.0
932,71.0,0.0,120.0,1.0,64.0
933,65.0,192.0,390.0,5.0,64.0
934,68.0,0.0,120.0,4.0,64.0
935,71.0,0.0,120.0,3.0,64.0
936,80.0,0.0,120.0,2.0,64.0
937,83.0,60.0,120.0,1.0,64.0
938,80.0,0.0,120.0,4.0,64.0
939,83.0,0.0,120.0,3.0,64.0
940,61.0,0.0,390.0,5.0,64.0
941,80.0,0.0,180.0,4.0,64.0
942,83.0,0.0,180.0,3.0,64.0
943,80.0,0.0,180.0,2.0,64.0
944,83.0,192.0,180.0,1.0,64.0
945,78.0,0.0,180.0,4.0,64.0
946,82.0,132.0,180.0,3.0,64.0
947,78.0,0.0,180.0,2.0,64.0
948,82.0,0.0,180.0,1.0,64.0
949,82.0,0.0,180.0,3.0,64.0
950,73.0,192.0,180.0,5.0,64.0
951,42.0,60.0,120.0,7.0,64.0
952,82.0,0.0,180.0,1.0,64.0
953,78.0,0.0,180.0,4.0,64.0
954,82.0,0.0,180.0,2.0,64.0
955,54.0,0.0,120.0,6.0,64.0
956,84.0,192.0,390.0,2.0,64.0
957,66.0,0.0,180.0,5.0,64.0
958,69.0,0.0,180.0,6.0,64.0
959,75.0,0.0,390.0,4.0,64.0
960,84.0,0.0,390.0,1.0,64.0
961,57.0,192.0,180.0,7.0,64.0
962,84.0,0.0,390.0,3.0,64.0
963,56.0,0.0,180.0,7.0,64.0
964,68.0,0.0,180.0,6.0,64.0
965,68.0,0.0,570.0,5.0,64.0
966,66.0,132.0,180.0,6.0,64.0
967,85.0,0.0,390.0,2.0,64.0
968,85.0,0.0,390.0,1.0,64.0
969,80.0,192.0,390.0,4.0,64.0
970,85.0,0.0,390.0,3.0,64.0
971,54.0,0.0,180.0,7.0,64.0
972,52.0,0.0,120.0,7.0,64.0
973,64.0,60.0,120.0,6.0,64.0
974,79.0,0.0,390.0,1.0,64.0
975,64.0,0.0,180.0,6.0,64.0
976,52.0,0.0,180.0,7.0,64.0
977,61.0,192.0,180.0,5.0,64.0
978,79.0,0.0,390.0,2.0,64.0
979,70.0,0.0,390.0,4.0,64.0
980,79.0,0.0,390.0,3.0,64.0
981,63.0,0.0,180.0,6.0,64.0
982,63.0,192.0,570.0,5.0,64.0
983,51.0,192.0,180.0,7.0,64.0
984,75.0,0.0,390.0,4.0,64.0
985,80.0,0.0,390.0,2.0,64.0
986,80.0,0.0,390.0,1.0,64.0
987,80.0,0.0,390.0,3.0,64.0
988,61.0,132.0,180.0,6.0,64.0
989,49.0,0.0,180.0,7.0,64.0
990,59.0,60.0,120.0,6.0,64.0
991,47.0,0.0,120.0,7.0,64.0
992,77.0,192.0,390.0,4.0,64.0
993,68.0,192.0,180.0,5.0,64.0
994,86.0,0.0,390.0,3.0,64.0
995,86.0,0.0,390.0,1.0,64.0
996,86.0,0.0,390.0,2.0,64.0
997,47.0,0.0,180.0,7.0,64.0
998,59.0,0.0,180.0,6.0,64.0
999,70.0,0.0,570.0,5.0,64.0
1000,58.0,0.0,180.0,6.0,64.0
1001,46.0,0.0,180.0,7.0,64.0
1002,87.0,0.0,390.0,2.0,64.0
1003,87.0,0.0,390.0,1.0,64.0
1004,87.0,192.0,390.0,3.0,64.0
1005,56.0,0.0,180.0,6.0,64.0
1006,44.0,132.0,180.0,7.0,64.0
1007,82.0,0.0,390.0,4.0,64.0
1008,54.0,0.0,120.0,6.0,64.0
1009,42.0,60.0,120.0,7.0,64.0
1010,63.0,0.0,180.0,5.0,64.0
1011,81.0,192.0,390.0,3.0,64.0
1012,72.0,0.0,390.0,4.0,64.0
1013,81.0,0.0,390.0,2.0,64.0
1014,54.0,0.0,180.0,6.0,64.0
1015,42.0,192.0,180.0,7.0,64.0
1016,81.0,0.0,390.0,1.0,64.0
1017,53.0,0.0,180.0,6.0,64.0
1018,65.0,0.0,750.0,5.0,64.0
1019,41.0,0.0,180.0,7.0,64.0
1020,39.0,0.0,180.0,7.0,64.0
1021,82.0,132.0,390.0,1.0,64.0
1022,82.0,0.0,390.0,3.0,64.0
1023,82.0,0.0,390.0,2.0,64.0
1024,51.0,192.0,180.0,6.0,64.0
1025,77.0,0.0,390.0,4.0,64.0
1026,50.0,0.0,390.0,6.0,64.0
1027,38.0,192.0,390.0,7.0,64.0
1028,77.0,0.0,120.0,3.0,64.0
1029,74.0,60.0,120.0,4.0,64.0
1030,77.0,0.0,120.0,1.0,64.0
1031,74.0,0.0,120.0,2.0,64.0
1032,77.0,0.0,180.0,3.0,64.0
1033,77.0,0.0,180.0,1.0,64.0
1034,53.0,0.0,390.0,6.0,64.0
1035,68.0,0.0,390.0,5.0,64.0
1036,74.0,192.0,180.0,2.0,64.0
1037,41.0,132.0,390.0,7.0,64.0
1038,74.0,0.0,180.0,4.0,64.0
1039,78.0,0.0,180.0,1.0,64.0
1040,78.0,0.0,180.0,3.0,64.0
1041,75.0,0.0,180.0,4.0,64.0
1042,75.0,0.0,180.0,2.0,64.0
1043,80.0,192.0,120.0,3.0,64.0
1044,77.0,0.0,120.0,2.0,64.0
1045,77.0,0.0,120.0,4.0,64.0
1046,34.0,0.0,390.0,7.0,64.0
1047,80.0,0.0,120.0,1.0,64.0
1048,62.0,0.0,390.0,5.0,64.0
1049,46.0,192.0,390.0,6.0,64.0
1050,68.0,0.0,120.0,2.0,64.0
1051,68.0,0.0,120.0,4.0,64.0
1052,71.0,0.0,120.0,1.0,64.0
1053,71.0,60.0,120.0,3.0,64.0
1054,71.0,0.0,180.0,3.0,64.0
1055,74.0,0.0,390.0,5.0,64.0
1056,41.0,0.0,390.0,7.0,64.0
1057,71.0,0.0,180.0,1.0,64.0
1058,53.0,0.0,390.0,6.0,64.0
1059,68.0,0.0,180.0,2.0,64.0
1060,68.0,192.0,180.0,4.0,64.0
1061,66.0,0.0,180.0,4.0,64.0
1062,70.0,132.0,180.0,1.0,64.0
1063,70.0,0.0,180.0,3.0,64.0
1064,66.0,0.0,180.0,2.0,64.0
1065,75.0,0.0,120.0,5.0,64.0
1066,70.0,0.0,120.0,3.0,64.0
1067,70.0,60.0,120.0,2.0,64.0
1068,54.0,0.0,120.0,6.0,64.0
1069,42.0,0.0,120.0,7.0,64.0
1070,70.0,0.0,120.0,1.0,64.0
1071,66.0,192.0,180.0,4.0,64.0
1072,80.0,0.0,180.0,3.0,64.0
1073,47.0,0.0,180.0,6.0,64.0
1074,35.0,0.0,180.0,7.0,64.0
1075,75.0,192.0,390.0,4.0,64.0
1076,68.0,0.0,180.0,5.0,64.0
1077,80.0,192.0,180.0,1.0,64.0
1078,80.0,0.0,180.0,2.0,64.0
1079,46.0,0.0,180.0,6.0,64.0
1080,78.0,0.0,180.0,2.0,64.0
1081,34.0,0.0,180.0,7.0,64.0
1082,78.0,0.0,180.0,1.0,64.0
1083,70.0,0.0,180.0,5.0,64.0
1084,78.0,0.0,180.0,3.0,64.0
1085,77.0,0.0,180.0,1.0,64.0
1086,71.0,0.0,180.0,5.0,64.0
1087,77.0,0.0,180.0,2.0,64.0
1088,32.0,192.0,180.0,7.0,64.0
1089,74.0,0.0,180.0,4.0,64.0
1090,77.0,0.0,180.0,3.0,64.0
1091,44.0,0.0,180.0,6.0,64.0
1092,82.0,0.0,180.0,2.0,64.0
1093,42.0,0.0,180.0,6.0,64.0
1094,82.0,0.0,180.0,1.0,64.0
1095,75.0,0.0,180.0,4.0,64.0
1096,82.0,192.0,180.0,3.0,64.0
1097,30.0,0.0,180.0,7.0,64.0
1098,70.0,0.0,180.0,5.0,64.0
1099,80.0,0.0,180.0,2.0,64.0
1100,44.0,0.0,180.0,6.0,64.0
1101,71.0,0.0,180.0,5.0,64.0
1102,77.0,0.0,180.0,4.0,64.0
1103,80.0,0.0,180.0,3.0,64.0
1104,80.0,0.0,180.0,1.0,64.0
1105,32.0,192.0,180.0,7.0,64.0
1106,70.0,0.0,180.0,5.0,64.0
1107,78.0,0.0,180.0,2.0,64.0
1108,75.0,0.0,180.0,4.0,64.0
1109,78.0,0.0,180.0,3.0,64.0
1110,78.0,192.0,180.0,1.0,64.0
1111,46.0,192.0,390.0,6.0,64.0
1112,34.0,0.0,390.0,7.0,64.0
1113,77.0,0.0,180.0,3.0,64.0
1114,68.0,0.0,180.0,5.0,64.0
1115,77.0,0.0,180.0,1.0,64.0
1116,77.0,0.0,180.0,2.0,64.0
1117,74.0,0.0,180.0,4.0,64.0
1118,39.0,0.0,390.0,7.0,64.0
1119,75.0,0.0,390.0,2.0,64.0
1120,70.0,0.0,390.0,4.0,64.0
1121,51.0,0.0,390.0,6.0,64.0
1122,75.0,192.0,180.0,1.0,64.0
1123,75.0,0.0,390.0,3.0,64.0
1124,66.0,0.0,390.0,5.0,64.0
1125,77.0,192.0,180.0,1.0,64.0
1126,77.0,0.0,180.0,0.0,64.0
1127,78.0,0.0,180.0,0.0,64.0
1128,78.0,132.0,180.0,1.0,64.0
1129,42.0,0.0,180.0,7.0,64.0
1130,75.0,60.0,120.0,1.0,64.0
1131,75.0,0.0,180.0,0.0,64.0
1132,54.0,192.0,180.0,6.0,64.0
1133,44.0,0.0,180.0,7.0,64.0
1134,73.0,0.0,180.0,1.0,64.0
1135,73.0,192.0,180.0,0.0,64.0
1136,56.0,0.0,180.0,6.0,64.0
1137,68.0,192.0,180.0,6.0,64.0
1138,72.0,0.0,180.0,1.0,64.0
1139,72.0,0.0,180.0,0.0,64.0
1140,56.0,0.0,180.0,7.0,64.0
1141,58.0,132.0,180.0,7.0,64.0
1142,70.0,0.0,180.0,6.0,64.0
1143,66.0,0.0,120.0,6.0,64.0
1144,73.0,132.0,180.0,1.0,64.0
1145,73.0,0.0,180.0,0.0,64.0
1146,54.0,60.0,120.0,7.0,64.0
1147,48.0,0.0,390.0,7.0,64.0
1148,60.0,384.0,390.0,6.0,64.0
1149,75.0,60.0,120.0,1.0,64.0
1150,75.0,132.0,180.0,0.0,64.0
1151,77.0,60.0,120.0,1.0,64.0
1152,77.0,0.0,180.0,0.0,64.0
1153,78.0,192.0,570.0,0.0,64.0
1154,78.0,0.0,570.0,1.0,64.0
1155,44.0,132.0,180.0,7.0,64.0
1156,56.0,0.0,180.0,6.0,64.0
1157,61.0,60.0,120.0,6.0,64.0
1158,49.0,0.0,120.0,7.0,64.0
1159,77.0,192.0,180.0,1.0,64.0
1160,63.0,0.0,180.0,6.0,64.0
1161,51.0,0.0,180.0,7.0,64.0
1162,77.0,0.0,180.0,0.0,64.0
1163,77.0,132.0,390.0,1.0,64.0
1164,77.0,0.0,390.0,0.0,64.0
1165,61.0,0.0,180.0,6.0,64.0
1166,49.0,192.0,180.0,7.0,64.0
1167,47.0,0.0,180.0,7.0,64.0
1168,59.0,0.0,180.0,6.0,64.0
1169,46.0,0.0,120.0,7.0,64.0
1170,58.0,252.0,120.0,6.0,64.0
1171,49.0,0.0,180.0,7.0,64.0
1172,79.0,0.0,180.0,0.0,64.0
1173,61.0,192.0,180.0,6.0,64.0
1174,79.0,0.0,180.0,1.0,64.0
1175,80.0,132.0,180.0,0.0,64.0
1176,59.0,0.0,180.0,6.0,64.0
1177,47.0,0.0,180.0,7.0,64.0
1178,80.0,0.0,180.0,1.0,64.0
1179,44.0,60.0,120.0,7.0,64.0
1180,77.0,0.0,120.0,1.0,64.0
1181,77.0,192.0,180.0,0.0,64.0
1182,56.0,0.0,120.0,6.0,64.0
1183,53.0,192.0,180.0,6.0,64.0
1184,75.0,0.0,180.0,1.0,64.0
1185,75.0,0.0,180.0,0.0,64.0
1186,41.0,0.0,180.0,7.0,64.0
1187,70.0,192.0,180.0,6.0,64.0
1188,58.0,0.0,180.0,7.0,64.0
1189,74.0,0.0,390.0,1.0,64.0
1190,74.0,0.0,390.0,0.0,64.0
1191,71.0,0.0,180.0,6.0,64.0
1192,59.0,132.0,180.0,7.0,64.0
1193,75.0,0.0,180.0,1.0,64.0
1194,75.0,132.0,180.0,0.0,64.0
1195,68.0,60.0,120.0,6.0,64.0
1196,56.0,0.0,120.0,7.0,64.0
1197,50.0,0.0,390.0,7.0,64.0
1198,62.0,384.0,390.0,6.0,64.0
1199,77.0,132.0,180.0,0.0,64.0
1200,77.0,60.0,120.0,1.0,64.0
1201,78.0,60.0,120.0,1.0,64.0
1202,78.0,0.0,180.0,0.0,64.0
1203,80.0,192.0,570.0,0.0,64.0
1204,80.0,0.0,570.0,1.0,64.0
1205,46.0,0.0,180.0,7.0,64.0
1206,58.0,132.0,180.0,6.0,64.0
1207,63.0,0.0,120.0,6.0,64.0
1208,51.0,60.0,120.0,7.0,64.0
1209,78.0,0.0,180.0,1.0,64.0
1210,65.0,0.0,180.0,6.0,64.0
1211,53.0,0.0,180.0,7.0,64.0
1212,78.0,192.0,180.0,0.0,64.0
1213,78.0,0.0,390.0,1.0,64.0
1214,63.0,192.0,180.0,6.0,64.0
1215,51.0,0.0,180.0,7.0,64.0
1216,78.0,0.0,390.0,0.0,64.0
1217,61.0,0.0,180.0,6.0,64.0
1218,49.0,132.0,180.0,7.0,64.0
1219,48.0,252.0,120.0,7.0,64.0
1220,60.0,0.0,120.0,6.0,64.0
1221,69.0,0.0,390.0,1.0,64.0
1222,69.0,0.0,390.0,0.0,64.0
1223,53.0,192.0,180.0,7.0,64.0
1224,65.0,0.0,180.0,6.0,64.0
1225,54.0,132.0,180.0,7.0,64.0
1226,66.0,0.0,180.0,6.0,64.0
1227,58.0,0.0,120.0,6.0,64.0
1228,70.0,0.0,180.0,1.0,64.0
1229,70.0,132.0,180.0,0.0,64.0
1230,46.0,60.0,120.0,7.0,64.0
1231,57.0,60.0,120.0,6.0,64.0
1232,72.0,0.0,180.0,1.0,64.0
1233,72.0,96.0,180.0,0.0,64.0
1234,45.0,0.0,120.0,7.0,64.0
1235,75.0,96.0,90.0,1.0,64.0
1236,58.0,192.0,180.0,6.0,64.0
1237,46.0,0.0,180.0,7.0,64.0
1238,75.0,0.0,90.0,0.0,64.0
1239,73.0,0.0,90.0,0.0,64.0
1240,73.0,0.0,90.0,1.0,64.0
1241,75.0,0.0,180.0,1.0,64.0
1242,75.0,0.0,180.0,0.0,64.0
1243,48.0,132.0,180.0,7.0,64.0
1244,60.0,0.0,180.0,6.0,64.0
1245,54.0,0.0,120.0,6.0,64.0
1246,42.0,60.0,120.0,7.0,64.0
1247,75.0,0.0,180.0,1.0,64.0
1248,75.0,132.0,180.0,0.0,64.0
1249,41.0,60.0,120.0,7.0,64.0
1250,75.0,96.0,180.0,1.0,64.0
1251,53.0,0.0,120.0,6.0,64.0
1252,75.0,0.0,180.0,0.0,64.0
1253,65.0,0.0,180.0,6.0,64.0
1254,74.0,96.0,90.0,0.0,64.0
1255,74.0,0.0,90.0,1.0,64.0
1256,53.0,0.0,180.0,7.0,64.0
1257,77.0,0.0,90.0,0.0,64.0
1258,77.0,96.0,90.0,1.0,64.0
1259,54.0,0.0,180.0,7.0,64.0
1260,66.0,0.0,180.0,6.0,64.0
1261,75.0,0.0,90.0,1.0,64.0
1262,75.0,96.0,90.0,0.0,64.0
1263,78.0,0.0,90.0,1.0,64.0
1264,78.0,96.0,90.0,0.0,64.0
1265,58.0,60.0,120.0,6.0,64.0
1266,46.0,0.0,120.0,7.0,64.0
1267,77.0,0.0,90.0,0.0,64.0
1268,77.0,36.0,90.0,1.0,64.0
1269,80.0,0.0,90.0,0.0,64.0
1270,80.0,132.0,90.0,1.0,64.0
1271,78.0,192.0,180.0,1.0,64.0
1272,45.0,0.0,120.0,7.0,64.0
1273,57.0,60.0,120.0,6.0,64.0
1274,78.0,0.0,180.0,0.0,64.0
1275,77.0,0.0,180.0,0.0,64.0
1276,46.0,0.0,180.0,7.0,64.0
1277,58.0,192.0,180.0,6.0,64.0
1278,77.0,0.0,180.0,1.0,64.0
1279,75.0,0.0,180.0,1.0,64.0
1280,75.0,0.0,180.0,0.0,64.0
1281,48.0,0.0,180.0,7.0,64.0
1282,60.0,132.0,180.0,6.0,64.0
1283,81.0,0.0,180.0,0.0,64.0
1284,42.0,60.0,120.0,7.0,64.0
1285,54.0,0.0,120.0,6.0,64.0
1286,81.0,132.0,180.0,1.0,64.0
1287,41.0,0.0,120.0,7.0,64.0
1288,82.0,0.0,180.0,0.0,64.0
1289,53.0,60.0,120.0,6.0,64.0
1290,82.0,192.0,180.0,1.0,64.0
1291,48.0,0.0,180.0,7.0,64.0
1292,79.0,0.0,180.0,1.0,64.0
1293,60.0,192.0,180.0,6.0,64.0
1294,79.0,0.0,180.0,0.0,64.0
1295,76.0,132.0,180.0,0.0,64.0
1296,49.0,0.0,180.0,7.0,64.0
1297,76.0,0.0,180.0,1.0,64.0
1298,61.0,0.0,180.0,6.0,64.0
1299,77.0,0.0,180.0,0.0,64.0
1300,58.0,60.0,120.0,6.0,64.0
1301,46.0,0.0,120.0,7.0,64.0
1302,77.0,192.0,180.0,1.0,64.0
1303,80.0,0.0,390.0,0.0,64.0
1304,48.0,0.0,180.0,7.0,64.0
1305,80.0,0.0,390.0,1.0,64.0
1306,60.0,192.0,180.0,6.0,64.0
1307,46.0,0.0,180.0,7.0,64.0
1308,58.0,96.0,180.0,6.0,64.0
1309,80.0,0.0,90.0,1.0,64.0
1310,48.0,0.0,180.0,7.0,64.0
1311,80.0,24.0,90.0,0.0,64.0
1312,60.0,0.0,180.0,6.0,64.0
1313,79.0,24.0,20.0,0.0,64.0
1314,79.0,0.0,20.0,1.0,64.0
1315,80.0,0.0,20.0,1.0,64.0
1316,80.0,24.0,20.0,0.0,64.0
1317,79.0,0.0,20.0,0.0,64.0
1318,79.0,24.0,20.0,1.0,64.0
1319,80.0,144.0,20.0,0.0,64.0
1320,80.0,0.0,20.0,1.0,64.0
1321,36.0,0.0,180.0,7.0,64.0
1322,79.0,48.0,150.0,0.0,64.0
1323,79.0,0.0,150.0,1.0,64.0
1324,48.0,0.0,180.0,6.0,64.0
1325,77.0,0.0,40.0,1.0,64.0
1326,77.0,132.0,40.0,0.0,64.0
1327,41.0,192.0,390.0,7.0,64.0
1328,77.0,0.0,390.0,0.0,64.0
1329,77.0,192.0,120.0,1.0,64.0
1330,65.0,0.0,390.0,5.0,64.0
1331,53.0,0.0,390.0,6.0,64.0
1332,80.0,0.0,120.0,2.0,64.0
1333,84.0,60.0,120.0,3.0,64.0
1334,84.0,0.0,120.0,1.0,64.0
1335,80.0,0.0,120.0,4.0,64.0
1336,80.0,0.0,180.0,4.0,64.0
1337,60.0,0.0,390.0,5.0,64.0
1338,84.0,0.0,180.0,1.0,64.0
1339,80.0,0.0,180.0,2.0,64.0
1340,84.0,192.0,180.0,3.0,64.0
1341,79.0,0.0,180.0,2.0,64.0
1342,82.0,132.0,180.0,1.0,64.0
1343,79.0,0.0,180.0,4.0,64.0
1344,82.0,0.0,180.0,3.0,64.0
1345,70.0,0.0,120.0,3.0,64.0
1346,64.0,192.0,390.0,5.0,64.0
1347,70.0,0.0,120.0,1.0,64.0
1348,70.0,0.0,120.0,2.0,64.0
1349,67.0,192.0,120.0,4.0,64.0
1350,79.0,0.0,120.0,4.0,64.0
1351,82.0,0.0,120.0,3.0,64.0
1352,79.0,60.0,120.0,2.0,64.0
1353,82.0,0.0,120.0,1.0,64.0
1354,60.0,192.0,390.0,5.0,64.0
1355,82.0,192.0,180.0,1.0,64.0
1356,82.0,0.0,180.0,3.0,64.0
1357,79.0,0.0,180.0,2.0,64.0
1358,79.0,0.0,180.0,4.0,64.0
1359,80.0,0.0,180.0,3.0,64.0
1360,77.0,0.0,180.0,2.0,64.0
1361,77.0,0.0,180.0,4.0,64.0
1362,80.0,0.0,180.0,1.0,64.0
1363,65.0,0.0,390.0,5.0,64.0
1364,68.0,0.0,390.0,2.0,64.0
1365,68.0,192.0,180.0,1.0,64.0
1366,65.0,0.0,390.0,4.0,64.0
1367,68.0,0.0,390.0,3.0,64.0
1368,65.0,0.0,180.0,6.0,64.0
1369,80.0,0.0,390.0,0.0,64.0
1370,53.0,192.0,180.0,7.0,64.0
1371,80.0,192.0,390.0,1.0,64.0
1372,63.0,0.0,180.0,6.0,64.0
1373,51.0,0.0,180.0,7.0,64.0
1374,61.0,0.0,180.0,6.0,64.0
1375,82.0,96.0,180.0,0.0,64.0
1376,49.0,0.0,180.0,7.0,64.0
1377,82.0,0.0,180.0,1.0,64.0
1378,73.0,0.0,90.0,1.0,64.0
1379,63.0,12.0,120.0,6.0,64.0
1380,73.0,24.0,90.0,0.0,64.0
1381,51.0,0.0,120.0,7.0,64.0
1382,72.0,12.0,20.0,1.0,64.0
1383,72.0,0.0,20.0,0.0,64.0
1384,73.0,24.0,20.0,0.0,64.0
1385,73.0,0.0,20.0,1.0,64.0
1386,72.0,24.0,20.0,1.0,64.0
1387,72.0,0.0,20.0,0.0,64.0
1388,73.0,0.0,20.0,1.0,64.0
1389,73.0,96.0,20.0,0.0,64.0
1390,61.0,0.0,180.0,6.0,64.0
1391,72.0,96.0,90.0,0.0,64.0
1392,49.0,0.0,180.0,7.0,64.0
1393,72.0,0.0,90.0,1.0,64.0
1394,73.0,0.0,90.0,0.0,64.0
1395,73.0,96.0,90.0,1.0,64.0
1396,48.0,132.0,180.0,7.0,64.0
1397,60.0,0.0,180.0,6.0,64.0
1398,75.0,0.0,90.0,1.0,64.0
1399,75.0,96.0,90.0,0.0,64.0
1400,77.0,0.0,90.0,0.0,64.0
1401,77.0,0.0,90.0,1.0,64.0
1402,78.0,192.0,180.0,1.0,64.0
1403,56.0,0.0,120.0,6.0,64.0
1404,78.0,0.0,180.0,0.0,64.0
1405,44.0,60.0,120.0,7.0,64.0
1406,61.0,0.0,390.0,6.0,64.0
1407,78.0,132.0,180.0,0.0,64.0
1408,61.0,0.0,390.0,5.0,64.0
1409,78.0,0.0,180.0,1.0,64.0
1410,49.0,192.0,390.0,7.0,64.0
1411,77.0,60.0,120.0,4.0,64.0
1412,80.0,0.0,120.0,3.0,64.0
1413,77.0,0.0,120.0,2.0,64.0
1414,77.0,0.0,180.0,0.0,64.0
1415,77.0,0.0,180.0,1.0,64.0
1416,56.0,0.0,390.0,5.0,64.0
1417,77.0,0.0,390.0,0.0,64.0
1418,77.0,0.0,180.0,2.0,64.0
1419,77.0,0.0,180.0,4.0,64.0
1420,80.0,0.0,180.0,1.0,64.0
1421,80.0,192.0,180.0,3.0,64.0
1422,75.0,0.0,180.0,2.0,64.0
1423,78.0,0.0,180.0,3.0,64.0
1424,78.0,132.0,180.0,1.0,64.0
1425,75.0,0.0,180.0,4.0,64.0
1426,66.0,192.0,120.0,2.0,64.0
1427,63.0,0.0,120.0,4.0,64.0
1428,60.0,192.0,390.0,5.0,64.0
1429,66.0,0.0,120.0,1.0,64.0
1430,66.0,0.0,120.0,3.0,64.0
1431,78.0,0.0,120.0,1.0,64.0
1432,75.0,60.0,120.0,4.0,64.0
1433,78.0,0.0,120.0,3.0,64.0
1434,75.0,0.0,120.0,2.0,64.0
1435,75.0,0.0,180.0,2.0,64.0
1436,78.0,0.0,180.0,1.0,64.0
1437,78.0,192.0,180.0,3.0,64.0
1438,56.0,0.0,390.0,5.0,64.0
1439,75.0,0.0,180.0,4.0,64.0
1440,73.0,0.0,180.0,2.0,64.0
1441,77.0,0.0,180.0,3.0,64.0
1442,73.0,192.0,180.0,4.0,64.0
1443,77.0,0.0,180.0,1.0,64.0
1444,77.0,0.0,180.0,1.0,64.0
1445,73.0,192.0,180.0,2.0,64.0
1446,61.0,0.0,390.0,4.0,64.0
1447,65.0,192.0,390.0,3.0,64.0
1448,61.0,0.0,390.0,5.0,64.0
1449,61.0,0.0,180.0,6.0,64.0
1450,77.0,192.0,390.0,0.0,64.0
1451,49.0,0.0,180.0,7.0,64.0
1452,77.0,0.0,390.0,1.0,64.0
1453,60.0,0.0,180.0,6.0,64.0
1454,48.0,0.0,180.0,7.0,64.0
1455,58.0,96.0,180.0,6.0,64.0
1456,46.0,0.0,180.0,7.0,64.0
1457,78.0,0.0,180.0,0.0,64.0
1458,78.0,0.0,180.0,1.0,64.0
1459,48.0,0.0,180.0,7.0,64.0
1460,70.0,24.0,90.0,0.0,64.0
1461,70.0,0.0,90.0,1.0,64.0
1462,60.0,96.0,180.0,6.0,64.0
1463,69.0,0.0,20.0,0.0,64.0
1464,69.0,24.0,20.0,1.0,64.0
1465,70.0,0.0,20.0,0.0,64.0
1466,70.0,24.0,20.0,1.0,64.0
1467,69.0,24.0,20.0,0.0,64.0
1468,69.0,0.0,20.0,1.0,64.0
1469,70.0,0.0,20.0,1.0,64.0
1470,70.0,0.0,20.0,0.0,64.0
1471,69.0,0.0,90.0,1.0,64.0
1472,46.0,0.0,180.0,7.0,64.0
1473,58.0,0.0,180.0,6.0,64.0
1474,69.0,96.0,90.0,0.0,64.0
1475,70.0,96.0,90.0,1.0,64.0
1476,70.0,0.0,90.0,0.0,64.0
1477,72.0,0.0,90.0,0.0,64.0
1478,57.0,132.0,180.0,6.0,64.0
1479,45.0,0.0,180.0,7.0,64.0
1480,72.0,96.0,90.0,1.0,64.0
1481,73.0,0.0,90.0,1.0,64.0
1482,73.0,0.0,90.0,0.0,64.0
1483,53.0,60.0,120.0,6.0,64.0
1484,41.0,0.0,120.0,7.0,64.0
1485,75.0,0.0,180.0,1.0,64.0
1486,75.0,192.0,180.0,0.0,64.0
1487,75.0,0.0,180.0,0.0,64.0
1488,70.0,0.0,390.0,5.0,64.0
1489,75.0,132.0,180.0,1.0,64.0
1490,46.0,192.0,390.0,7.0,64.0
1491,58.0,0.0,390.0,6.0,64.0
1492,85.0,60.0,120.0,4.0,64.0
1493,73.0,0.0,180.0,1.0,64.0
1494,85.0,0.0,120.0,2.0,64.0
1495,73.0,0.0,180.0,0.0,64.0
1496,89.0,0.0,120.0,3.0,64.0
1497,89.0,0.0,180.0,3.0,64.0
1498,89.0,0.0,180.0,1.0,64.0
1499,73.0,132.0,390.0,0.0,64.0
1500,85.0,192.0,180.0,2.0,64.0
1501,65.0,0.0,390.0,5.0,64.0
1502,85.0,0.0,180.0,4.0,64.0
1503,84.0,0.0,180.0,2.0,64.0
1504,87.0,0.0,180.0,3.0,64.0
1505,87.0,0.0,180.0,1.0,64.0
1506,84.0,0.0,180.0,4.0,64.0
1507,75.0,0.0,120.0,2.0,64.0
1508,75.0,0.0,120.0,1.0,64.0
1509,75.0,192.0,120.0,3.0,64.0
1510,69.0,192.0,390.0,5.0,64.0
1511,72.0,0.0,120.0,4.0,64.0
1512,84.0,0.0,120.0,4.0,64.0
1513,87.0,0.0,120.0,3.0,64.0
1514,84.0,0.0,120.0,2.0,64.0
1515,87.0,60.0,120.0,1.0,64.0
1516,84.0,192.0,180.0,4.0,64.0
1517,87.0,0.0,180.0,1.0,64.0
1518,84.0,0.0,180.0,2.0,64.0
1519,65.0,0.0,390.0,5.0,64.0
1520,87.0,0.0,180.0,3.0,64.0
1521,85.0,0.0,180.0,3.0,64.0
1522,82.0,0.0,180.0,2.0,64.0
1523,82.0,132.0,180.0,4.0,64.0
1524,85.0,0.0,180.0,1.0,64.0
1525,73.0,252.0,120.0,1.0,64.0
1526,79.0,0.0,180.0,1.0,64.0
1527,58.0,0.0,180.0,6.0,64.0
1528,46.0,0.0,180.0,7.0,64.0
1529,79.0,192.0,180.0,0.0,64.0
1530,80.0,0.0,180.0,0.0,64.0
1531,59.0,0.0,180.0,6.0,64.0
1532,47.0,132.0,180.0,7.0,64.0
1533,80.0,0.0,180.0,1.0,64.0
1534,39.0,192.0,120.0,7.0,64.0
1535,83.0,0.0,120.0,1.0,64.0
1536,51.0,0.0,120.0,6.0,64.0
1537,83.0,0.0,120.0,0.0,64.0
1538,50.0,0.0,120.0,6.0,64.0
1539,82.0,0.0,180.0,0.0,64.0
1540,38.0,60.0,120.0,7.0,64.0
1541,82.0,96.0,180.0,1.0,64.0
1542,51.0,0.0,180.0,6.0,64.0
1543,39.0,0.0,180.0,7.0,64.0
1544,80.0,96.0,90.0,0.0,64.0
1545,80.0,0.0,90.0,1.0,64.0
1546,78.0,96.0,90.0,1.0,64.0
1547,78.0,0.0,90.0,0.0,64.0
1548,78.0,96.0,90.0,0.0,64.0
1549,53.0,96.0,180.0,6.0,64.0
1550,41.0,0.0,180.0,7.0,64.0
1551,78.0,0.0,90.0,1.0,64.0
1552,80.0,36.0,180.0,1.0,64.0
1553,80.0,0.0,180.0,0.0,64.0
1554,47.0,60.0,120.0,6.0,64.0
1555,35.0,0.0,120.0,7.0,64.0
1556,77.0,0.0,90.0,0.0,64.0
1557,77.0,96.0,90.0,1.0,64.0
1558,75.0,96.0,90.0,0.0,64.0
1559,34.0,0.0,180.0,7.0,64.0
1560,46.0,0.0,180.0,6.0,64.0
1561,75.0,0.0,90.0,1.0,64.0
1562,72.0,0.0,90.0,0.0,64.0
1563,72.0,192.0,90.0,1.0,64.0
1564,46.0,96.0,180.0,7.0,64.0
1565,58.0,0.0,180.0,6.0,64.0
1566,74.0,96.0,270.0,0.0,64.0
1567,74.0,0.0,270.0,1.0,64.0
1568,59.0,48.0,180.0,6.0,64.0
1569,47.0,0.0,180.0,7.0,64.0
1570,77.0,0.0,90.0,0.0,64.0
1571,77.0,0.0,90.0,1.0,64.0
1572,39.0,96.0,180.0,7.0,64.0
1573,78.0,48.0,40.0,0.0,64.0
1574,51.0,0.0,180.0,6.0,64.0
1575,78.0,0.0,40.0,1.0,64.0
1576,77.0,0.0,40.0,1.0,64.0
1577,77.0,96.0,40.0,0.0,64.0
1578,75.0,0.0,90.0,0.0,64.0
1579,75.0,0.0,90.0,1.0,64.0
1580,50.0,0.0,120.0,6.0,64.0
1581,81.0,36.0,90.0,0.0,64.0
1582,81.0,0.0,90.0,1.0,64.0
1583,38.0,60.0,120.0,7.0,64.0
1584,82.0,0.0,90.0,0.0,64.0
1585,82.0,192.0,90.0,1.0,64.0
1586,51.0,0.0,180.0,6.0,64.0
1587,70.0,0.0,180.0,0.0,64.0
1588,39.0,132.0,180.0,7.0,64.0
1589,70.0,0.0,180.0,1.0,64.0
1590,53.0,0.0,180.0,6.0,64.0
1591,80.0,0.0,120.0,1.0,64.0
1592,80.0,60.0,120.0,0.0,64.0
1593,41.0,132.0,180.0,7.0,64.0
1594,47.0,0.0,120.0,6.0,64.0
1595,35.0,192.0,120.0,7.0,64.0
1596,46.0,252.0,120.0,6.0,64.0
1597,34.0,0.0,120.0,7.0,64.0
1598,79.0,0.0,180.0,1.0,64.0
1599,79.0,0.0,180.0,0.0,64.0
1600,39.0,192.0,180.0,7.0,64.0
1601,51.0,0.0,180.0,6.0,64.0
1602,80.0,0.0,180.0,0.0,64.0
1603,52.0,0.0,180.0,6.0,64.0
1604,80.0,132.0,180.0,1.0,64.0
1605,40.0,0.0,180.0,7.0,64.0
1606,44.0,0.0,120.0,6.0,64.0
1607,32.0,156.0,120.0,7.0,64.0
1608,83.0,0.0,120.0,0.0,64.0
1609,83.0,0.0,120.0,1.0,64.0
1610,31.0,60.0,120.0,7.0,64.0
1611,43.0,0.0,120.0,6.0,64.0
1612,83.0,36.0,90.0,1.0,64.0
1613,83.0,0.0,90.0,0.0,64.0
1614,82.0,96.0,90.0,1.0,64.0
1615,82.0,0.0,90.0,0.0,64.0
1616,80.0,0.0,90.0,1.0,64.0
1617,63.0,192.0,180.0,6.0,64.0
1618,80.0,96.0,90.0,0.0,64.0
1619,51.0,0.0,180.0,7.0,64.0
1620,79.0,0.0,90.0,1.0,64.0
1621,79.0,0.0,90.0,0.0,64.0
1622,52.0,0.0,180.0,7.0,64.0
1623,80.0,0.0,480.0,0.0,64.0
1624,64.0,192.0,180.0,6.0,64.0
1625,80.0,96.0,480.0,1.0,64.0
1626,49.0,0.0,180.0,7.0,64.0
1627,61.0,96.0,180.0,6.0,64.0
1628,51.0,0.0,180.0,7.0,64.0
1629,63.0,96.0,180.0,6.0,64.0
1630,82.0,0.0,90.0,1.0,64.0
1631,82.0,0.0,90.0,0.0,64.0
1632,80.0,0.0,90.0,1.0,64.0
1633,80.0,96.0,90.0,0.0,64.0
1634,46.0,0.0,180.0,7.0,64.0
1635,58.0,96.0,180.0,6.0,64.0
1636,79.0,0.0,90.0,0.0,64.0
1637,79.0,0.0,90.0,1.0,64.0
1638,80.0,0.0,90.0,1.0,64.0
1639,80.0,96.0,90.0,0.0,64.0
1640,47.0,0.0,180.0,7.0,64.0
1641,59.0,0.0,180.0,6.0,64.0
1642,78.0,0.0,90.0,0.0,64.0
1643,78.0,96.0,90.0,1.0,64.0
1644,55.0,0.0,180.0,6.0,64.0
1645,76.0,0.0,90.0,0.0,64.0
1646,76.0,96.0,90.0,1.0,64.0
1647,43.0,0.0,180.0,7.0,64.0
1648,75.0,0.0,90.0,0.0,64.0
1649,75.0,48.0,90.0,1.0,64.0
1650,44.0,192.0,180.0,7.0,64.0
1651,56.0,0.0,180.0,6.0,64.0
1652,76.0,48.0,40.0,0.0,64.0
1653,76.0,0.0,40.0,1.0,64.0
1654,75.0,0.0,40.0,1.0,64.0
1655,75.0,96.0,40.0,0.0,64.0
1656,73.0,0.0,90.0,1.0,64.0
1657,73.0,0.0,90.0,0.0,64.0
1658,79.0,96.0,270.0,1.0,64.0
1659,39.0,96.0,180.0,7.0,64.0
1660,51.0,0.0,180.0,6.0,64.0
1661,79.0,0.0,270.0,0.0,64.0
1662,40.0,0.0,180.0,7.0,64.0
1663,52.0,132.0,180.0,6.0,64.0
1664,80.0,0.0,90.0,1.0,64.0
1665,80.0,0.0,90.0,0.0,64.0
1666,50.0,0.0,180.0,6.0,64.0
1667,38.0,192.0,180.0,7.0,64.0
1668,68.0,60.0,120.0,1.0,64.0
1669,68.0,0.0,120.0,0.0,64.0
1670,39.0,0.0,750.0,7.0,64.0
1671,71.0,96.0,390.0,0.0,64.0
1672,51.0,384.0,750.0,6.0,64.0
1673,71.0,192.0,180.0,1.0,64.0
1674,71.0,0.0,90.0,0.0,64.0
1675,71.0,24.0,90.0,1.0,64.0
1676,70.0,0.0,20.0,1.0,64.0
1677,70.0,24.0,20.0,0.0,64.0
1678,71.0,0.0,20.0,0.0,64.0
1679,71.0,24.0,20.0,1.0,64.0
1680,70.0,0.0,20.0,0.0,64.0
1681,70.0,24.0,20.0,1.0,64.0
1682,71.0,0.0,20.0,1.0,64.0
1683,71.0,192.0,20.0,0.0,64.0
1684,70.0,0.0,180.0,0.0,64.0
1685,70.0,0.0,180.0,1.0,64.0
1686,68.0,0.0,40.0,1.0,64.0
1687,68.0,0.0,40.0,0.0,64.0
1688,68.0,0.0,390.0,1.0,64.0
1689,68.0,0.0,390.0,0.0,64.0
1690,32.0,0.0,390.0,7.0,64.0
1691,44.0,576.0,390.0,6.0,64.0
1692,70.0,0.0,180.0,4.0,64.0
1693,75.0,0.0,180.0,3.0,64.0
1694,75.0,0.0,180.0,2.0,64.0
1695,66.0,0.0,180.0,5.0,64.0
1696,51.0,192.0,180.0,7.0,64.0
1697,75.0,0.0,180.0,1.0,64.0
1698,63.0,0.0,180.0,6.0,64.0
1699,77.0,0.0,390.0,3.0,64.0
1700,77.0,0.0,390.0,1.0,64.0
1701,71.0,132.0,390.0,4.0,64.0
1702,51.0,192.0,180.0,6.0,64.0
1703,68.0,0.0,390.0,5.0,64.0
1704,77.0,0.0,390.0,2.0,64.0
1705,39.0,0.0,180.0,7.0,64.0
1706,39.0,0.0,180.0,7.0,64.0
1707,51.0,0.0,180.0,6.0,64.0
1708,65.0,0.0,120.0,5.0,64.0
1709,74.0,0.0,120.0,1.0,64.0
1710,74.0,0.0,120.0,2.0,64.0
1711,51.0,0.0,180.0,6.0,64.0
1712,74.0,0.0,120.0,3.0,64.0
1713,68.0,60.0,120.0,4.0,64.0
1714,39.0,132.0,180.0,7.0,64.0
1715,75.0,0.0,120.0,3.0,64.0
1716,39.0,0.0,390.0,7.0,64.0
1717,51.0,0.0,390.0,6.0,64.0
1718,75.0,0.0,120.0,2.0,64.0
1719,70.0,192.0,120.0,4.0,64.0
1720,66.0,132.0,390.0,5.0,64.0
1721,75.0,0.0,120.0,1.0,64.0
1722,83.0,0.0,120.0,1.0,64.0
1723,83.0,0.0,120.0,3.0,64.0
1724,83.0,60.0,120.0,2.0,64.0
1725,80.0,0.0,120.0,4.0,64.0
1726,83.0,0.0,120.0,2.0,64.0
1727,83.0,60.0,120.0,3.0,64.0
1728,80.0,132.0,180.0,4.0,64.0
1729,62.0,0.0,390.0,5.0,64.0
1730,83.0,0.0,120.0,1.0,64.0
1731,82.0,0.0,120.0,1.0,64.0
1732,82.0,60.0,120.0,2.0,64.0
1733,82.0,0.0,120.0,3.0,64.0
1734,78.0,132.0,180.0,4.0,64.0
1735,70.0,0.0,120.0,3.0,64.0
1736,70.0,0.0,120.0,2.0,64.0
1737,66.0,192.0,120.0,4.0,64.0
1738,70.0,0.0,120.0,1.0,64.0
1739,63.0,192.0,390.0,5.0,64.0
1740,78.0,60.0,120.0,4.0,64.0
1741,82.0,0.0,120.0,3.0,64.0
1742,82.0,0.0,120.0,1.0,64.0
1743,78.0,0.0,120.0,2.0,64.0
1744,78.0,0.0,180.0,2.0,64.0
1745,82.0,0.0,180.0,1.0,64.0
1746,78.0,0.0,180.0,4.0,64.0
1747,82.0,192.0,180.0,3.0,64.0
1748,58.0,0.0,390.0,5.0,64.0
1749,80.0,0.0,180.0,1.0,64.0
1750,80.0,0.0,180.0,3.0,64.0
1751,77.0,132.0,180.0,4.0,64.0
1752,77.0,0.0,180.0,2.0,64.0
1753,68.0,0.0,120.0,1.0,64.0
1754,62.0,192.0,390.0,5.0,64.0
1755,68.0,0.0,120.0,2.0,64.0
1756,65.0,0.0,120.0,4.0,64.0
1757,68.0,192.0,120.0,3.0,64.0
1758,80.0,0.0,120.0,3.0,64.0
1759,77.0,0.0,120.0,2.0,64.0
1760,77.0,0.0,120.0,4.0,64.0
1761,80.0,60.0,120.0,1.0,64.0
1762,80.0,192.0,180.0,3.0,64.0
1763,58.0,0.0,390.0,5.0,64.0
1764,77.0,0.0,180.0,2.0,64.0
1765,80.0,0.0,180.0,1.0,64.0
1766,77.0,0.0,180.0,4.0,64.0
1767,78.0,192.0,180.0,3.0,64.0
1768,75.0,0.0,180.0,2.0,64.0
1769,78.0,0.0,180.0,1.0,64.0
1770,75.0,0.0,180.0,4.0,64.0
1771,70.0,0.0,180.0,5.0,64.0
1772,75.0,0.0,180.0,4.0,64.0
1773,63.0,0.0,180.0,6.0,64.0
1774,51.0,192.0,180.0,7.0,64.0
1775,78.0,0.0,180.0,2.0,64.0
1776,78.0,0.0,180.0,1.0,64.0
1777,78.0,0.0,180.0,3.0,64.0
1778,80.0,0.0,390.0,2.0,64.0
1779,80.0,0.0,390.0,3.0,64.0
1780,71.0,0.0,390.0,5.0,64.0
1781,47.0,192.0,180.0,7.0,64.0
1782,75.0,0.0,390.0,4.0,64.0
1783,80.0,132.0,390.0,1.0,64.0
1784,59.0,0.0,180.0,6.0,64.0
1785,56.0,0.0,180.0,6.0,64.0
1786,44.0,0.0,180.0,7.0,64.0
1787,73.0,0.0,120.0,4.0,64.0
1788,77.0,60.0,120.0,1.0,64.0
1789,68.0,0.0,120.0,5.0,64.0
1790,77.0,0.0,120.0,3.0,64.0
1791,61.0,0.0,180.0,6.0,64.0
1792,49.0,132.0,180.0,7.0,64.0
1793,77.0,0.0,120.0,2.0,64.0
1794,78.0,0.0,120.0,1.0,64.0
1795,70.0,192.0,390.0,5.0,64.0
1796,78.0,0.0,120.0,2.0,64.0
1797,73.0,192.0,120.0,4.0,64.0
1798,54.0,0.0,390.0,6.0,64.0
1799,78.0,0.0,120.0,3.0,64.0
1800,42.0,0.0,390.0,7.0,64.0
1801,83.0,60.0,120.0,2.0,64.0
1802,87.0,0.0,120.0,3.0,64.0
1803,87.0,0.0,120.0,1.0,64.0
1804,83.0,0.0,120.0,4.0,64.0
1805,87.0,192.0,180.0,1.0,64.0
1806,83.0,0.0,180.0,2.0,64.0
1807,87.0,0.0,180.0,3.0,64.0
1808,83.0,0.0,180.0,4.0,64.0
1809,65.0,0.0,390.0,5.0,64.0
1810,82.0,0.0,180.0,4.0,64.0
1811,82.0,132.0,180.0,2.0,64.0
1812,85.0,0.0,180.0,3.0,64.0
1813,85.0,0.0,180.0,1.0,64.0
1814,73.0,0.0,120.0,2.0,64.0
1815,73.0,0.0,120.0,3.0,64.0
1816,70.0,0.0,120.0,4.0,64.0
1817,73.0,192.0,120.0,1.0,64.0
1818,66.0,192.0,390.0,5.0,64.0
1819,82.0,0.0,120.0,2.0,64.0
1820,85.0,0.0,120.0,1.0,64.0
1821,85.0,0.0,120.0,3.0,64.0
1822,82.0,60.0,120.0,4.0,64.0
1823,61.0,0.0,390.0,5.0,64.0
1824,82.0,0.0,180.0,2.0,64.0
1825,82.0,0.0,180.0,4.0,64.0
1826,85.0,0.0,180.0,3.0,64.0
1827,85.0,192.0,180.0,1.0,64.0
1828,80.0,0.0,180.0,2.0,64.0
1829,83.0,132.0,180.0,3.0,64.0
1830,83.0,0.0,180.0,1.0,64.0
1831,80.0,0.0,180.0,4.0,64.0
1832,65.0,192.0,390.0,5.0,64.0
1833,71.0,0.0,120.0,3.0,64.0
1834,68.0,0.0,120.0,4.0,64.0
1835,71.0,192.0,120.0,2.0,64.0
1836,71.0,0.0,120.0,1.0,64.0
1837,80.0,0.0,120.0,4.0,64.0
1838,83.0,60.0,120.0,3.0,64.0
1839,83.0,0.0,120.0,1.0,64.0
1840,80.0,0.0,120.0,2.0,64.0
1841,80.0,192.0,180.0,2.0,64.0
1842,83.0,0.0,180.0,3.0,64.0
1843,61.0,0.0,390.0,5.0,64.0
1844,80.0,0.0,180.0,4.0,64.0
1845,83.0,0.0,180.0,1.0,64.0
1846,78.0,0.0,180.0,4.0,64.0
1847,82.0,0.0,180.0,3.0,64.0
1848,82.0,132.0,180.0,1.0,64.0
1849,78.0,0.0,180.0,2.0,64.0
1850,73.0,0.0,180.0,5.0,64.0
1851,54.0,0.0,120.0,6.0,64.0
1852,42.0,60.0,120.0,7.0,64.0
1853,82.0,192.0,180.0,3.0,64.0
1854,82.0,0.0,180.0,2.0,64.0
1855,82.0,0.0,180.0,1.0,64.0
1856,78.0,0.0,180.0,4.0,64.0
1857,75.0,0.0,390.0,4.0,64.0
1858,84.0,0.0,390.0,2.0,64.0
1859,69.0,0.0,180.0,6.0,64.0
1860,84.0,0.0,390.0,1.0,64.0
1861,57.0,0.0,180.0,7.0,64.0
1862,84.0,0.0,390.0,3.0,64.0
1863,66.0,192.0,180.0,5.0,64.0
1864,68.0,0.0,570.0,5.0,64.0
1865,68.0,0.0,180.0,6.0,64.0
1866,56.0,192.0,180.0,7.0,64.0
1867,54.0,132.0,180.0,7.0,64.0
1868,66.0,0.0,180.0,6.0,64.0
1869,85.0,0.0,390.0,3.0,64.0
1870,85.0,0.0,390.0,2.0,64.0
1871,85.0,192.0,390.0,1.0,64.0
1872,80.0,0.0,390.0,4.0,64.0
1873,64.0,0.0,120.0,6.0,64.0
1874,52.0,60.0,120.0,7.0,64.0
1875,64.0,0.0,180.0,6.0,64.0
1876,70.0,0.0,390.0,4.0,64.0
1877,79.0,0.0,390.0,2.0,64.0
1878,79.0,0.0,390.0,3.0,64.0
1879,52.0,0.0,180.0,7.0,64.0
1880,61.0,192.0,180.0,5.0,64.0
1881,79.0,0.0,390.0,1.0,64.0
1882,51.0,192.0,180.0,7.0,64.0
1883,63.0,0.0,570.0,5.0,64.0
1884,63.0,0.0,180.0,6.0,64.0
1885,80.0,0.0,390.0,3.0,64.0
1886,49.0,132.0,180.0,7.0,64.0
1887,61.0,0.0,180.0,6.0,64.0
1888,80.0,0.0,390.0,2.0,64.0
1889,80.0,0.0,390.0,1.0,64.0
1890,75.0,192.0,390.0,4.0,64.0
1891,59.0,0.0,120.0,6.0,64.0
1892,47.0,60.0,120.0,7.0,64.0
1893,68.0,0.0,180.0,5.0,64.0
1894,86.0,0.0,390.0,2.0,64.0
1895,86.0,0.0,390.0,1.0,64.0
1896,86.0,0.0,390.0,3.0,64.0
1897,59.0,0.0,180.0,6.0,64.0
1898,77.0,0.0,390.0,4.0,64.0
1899,47.0,192.0,180.0,7.0,64.0
1900,70.0,0.0,570.0,5.0,64.0
1901,46.0,0.0,180.0,7.0,64.0
1902,58.0,192.0,180.0,6.0,64.0
1903,87.0,0.0,390.0,3.0,64.0
1904,82.0,192.0,390.0,4.0,64.0
1905,87.0,0.0,390.0,1.0,64.0
1906,44.0,0.0,180.0,7.0,64.0
1907,56.0,132.0,180.0,6.0,64.0
1908,87.0,0.0,390.0,2.0,64.0
1909,54.0,60.0,120.0,6.0,64.0
1910,42.0,0.0,120.0,7.0,64.0
1911,54.0,192.0,180.0,6.0,64.0
1912,63.0,0.0,180.0,5.0,64.0
1913,81.0,192.0,390.0,3.0,64.0
1914,42.0,0.0,180.0,7.0,64.0
1915,72.0,0.0,390.0,4.0,64.0
1916,81.0,0.0,390.0,2.0,64.0
1917,81.0,0.0,390.0,1.0,64.0
1918,41.0,0.0,180.0,7.0,64.0
1919,65.0,0.0,750.0,5.0,64.0
1920,53.0,0.0,180.0,6.0,64.0
1921,82.0,0.0,390.0,1.0,64.0
1922,39.0,192.0,180.0,7.0,64.0
1923,82.0,0.0,390.0,2.0,64.0
1924,77.0,0.0,390.0,4.0,64.0
1925,51.0,0.0,180.0,6.0,64.0
1926,82.0,132.0,390.0,3.0,64.0
1927,50.0,0.0,390.0,6.0,64.0
1928,38.0,192.0,390.0,7.0,64.0
1929,77.0,60.0,120.0,3.0,64.0
1930,74.0,0.0,120.0,2.0,64.0
1931,77.0,0.0,120.0,1.0,64.0
1932,74.0,0.0,120.0,4.0,64.0
1933,53.0,0.0,390.0,6.0,64.0
1934,77.0,0.0,180.0,1.0,64.0
1935,74.0,192.0,180.0,2.0,64.0
1936,68.0,0.0,390.0,5.0,64.0
1937,74.0,0.0,180.0,4.0,64.0
1938,41.0,0.0,390.0,7.0,64.0
1939,77.0,0.0,180.0,3.0,64.0
1940,75.0,0.0,180.0,2.0,64.0
1941,78.0,0.0,180.0,3.0,64.0
1942,78.0,0.0,180.0,1.0,64.0
1943,75.0,132.0,180.0,4.0,64.0
1944,46.0,0.0,390.0,6.0,64.0
1945,77.0,0.0,120.0,2.0,64.0
1946,80.0,0.0,120.0,3.0,64.0
1947,34.0,0.0,390.0,7.0,64.0
1948,62.0,192.0,390.0,5.0,64.0
1949,80.0,0.0,120.0,1.0,64.0
1950,77.0,192.0,120.0,4.0,64.0
1951,68.0,60.0,120.0,4.0,64.0
1952,71.0,0.0,120.0,3.0,64.0
1953,68.0,0.0,120.0,2.0,64.0
1954,71.0,0.0,120.0,1.0,64.0
1955,53.0,132.0,390.0,6.0,64.0
1956,71.0,192.0,180.0,3.0,64.0
1957,68.0,0.0,180.0,2.0,64.0
1958,74.0,0.0,390.0,5.0,64.0
1959,41.0,0.0,390.0,7.0,64.0
1960,71.0,0.0,180.0,1.0,64.0
1961,68.0,0.0,180.0,4.0,64.0
1962,66.0,0.0,180.0,4.0,64.0
1963,70.0,0.0,180.0,3.0,64.0
1964,66.0,0.0,180.0,2.0,64.0
1965,70.0,0.0,180.0,1.0,64.0
1966,66.0,192.0,180.0,4.0,64.0
1967,75.0,0.0,120.0,5.0,64.0
1968,70.0,0.0,120.0,2.0,64.0
1969,54.0,0.0,120.0,6.0,64.0
1970,42.0,0.0,120.0,7.0,64.0
1971,70.0,60.0,120.0,3.0,64.0
1972,70.0,0.0,120.0,1.0,64.0
1973,80.0,0.0,180.0,1.0,64.0
1974,80.0,0.0,180.0,2.0,64.0
1975,75.0,0.0,390.0,4.0,64.0
1976,80.0,192.0,180.0,3.0,64.0
1977,35.0,0.0,180.0,7.0,64.0
1978,68.0,0.0,180.0,5.0,64.0
1979,47.0,0.0,180.0,6.0,64.0
1980,78.0,0.0,180.0,3.0,64.0
1981,78.0,192.0,180.0,2.0,64.0
1982,34.0,0.0,180.0,7.0,64.0
1983,46.0,0.0,180.0,6.0,64.0
1984,70.0,0.0,180.0,5.0,64.0
1985,78.0,0.0,180.0,1.0,64.0
1986,32.0,192.0,180.0,7.0,64.0
1987,77.0,0.0,180.0,2.0,64.0
1988,77.0,0.0,180.0,1.0,64.0
1989,74.0,0.0,180.0,4.0,64.0
1990,71.0,0.0,180.0,5.0,64.0
1991,44.0,0.0,180.0,6.0,64.0
1992,77.0,0.0,180.0,3.0,64.0
1993,42.0,0.0,180.0,6.0,64.0
1994,82.0,0.0,180.0,2.0,64.0
1995,30.0,0.0,180.0,7.0,64.0
1996,75.0,0.0,180.0,4.0,64.0
1997,82.0,0.0,180.0,3.0,64.0
1998,70.0,192.0,180.0,5.0,64.0
1999,82.0,0.0,180.0,1.0,64.0
2000,71.0,0.0,180.0,5.0,64.0
2001,44.0,0.0,180.0,6.0,64.0
2002,80.0,0.0,180.0,1.0,64.0
2003,32.0,0.0,180.0,7.0,64.0
2004,77.0,192.0,180.0,4.0,64.0
2005,80.0,0.0,180.0,2.0,64.0
2006,80.0,0.0,180.0,3.0,64.0
2007,78.0,192.0,180.0,3.0,64.0
2008,78.0,0.0,180.0,2.0,64.0
2009,75.0,0.0,180.0,4.0,64.0
2010,46.0,0.0,390.0,6.0,64.0
2011,78.0,0.0,180.0,1.0,64.0
2012,70.0,0.0,180.0,5.0,64.0
2013,34.0,0.0,390.0,7.0,64.0
2014,77.0,0.0,180.0,2.0,64.0
2015,68.0,0.0,180.0,5.0,64.0
2016,74.0,132.0,180.0,4.0,64.0
2017,77.0,0.0,180.0,3.0,64.0
2018,77.0,0.0,180.0,1.0,64.0
2019,63.0,0.0,180.0,6.0,64.0
2020,75.0,0.0,390.0,2.0,64.0
2021,70.0,0.0,120.0,4.0,64.0
2022,66.0,0.0,120.0,5.0,64.0
2023,75.0,0.0,180.0,1.0,64.0
2024,75.0,132.0,180.0,0.0,64.0
2025,51.0,0.0,180.0,7.0,64.0
2026,75.0,60.0,120.0,3.0,64.0
2027,77.0,132.0,390.0,1.0,64.0
2028,51.0,0.0,180.0,6.0,64.0
2029,77.0,0.0,390.0,0.0,64.0
2030,62.0,0.0,120.0,5.0,64.0
2031,68.0,60.0,120.0,4.0,64.0
2032,71.0,0.0,120.0,3.0,64.0
2033,39.0,132.0,180.0,7.0,64.0
2034,39.0,0.0,180.0,7.0,64.0
2035,68.0,60.0,120.0,4.0,64.0
2036,71.0,0.0,180.0,3.0,64.0
2037,62.0,0.0,120.0,5.0,64.0
2038,51.0,0.0,180.0,6.0,64.0
2039,51.0,0.0,180.0,6.0,64.0
2040,39.0,132.0,180.0,7.0,64.0
2041,65.0,0.0,120.0,5.0,64.0
2042,74.0,0.0,180.0,0.0,64.0
2043,74.0,0.0,180.0,1.0,64.0
2044,68.0,60.0,120.0,4.0,64.0
2045,70.0,0.0,180.0,3.0,64.0
2046,66.0,0.0,120.0,4.0,64.0
2047,75.0,0.0,390.0,0.0,64.0
2048,70.0,192.0,120.0,3.0,64.0
2049,51.0,192.0,390.0,6.0,64.0
2050,39.0,0.0,390.0,7.0,64.0
2051,75.0,0.0,120.0,1.0,64.0
2052,66.0,0.0,390.0,5.0,64.0
2053,80.0,0.0,120.0,4.0,64.0
2054,80.0,0.0,120.0,2.0,64.0
2055,83.0,0.0,120.0,3.0,64.0
2056,83.0,60.0,120.0,1.0,64.0
2057,62.0,0.0,390.0,5.0,64.0
2058,83.0,192.0,180.0,1.0,64.0
2059,83.0,0.0,180.0,3.0,64.0
2060,80.0,0.0,180.0,2.0,64.0
2061,80.0,0.0,180.0,4.0,64.0
2062,78.0,0.0,180.0,2.0,64.0
2063,82.0,132.0,180.0,1.0,64.0
2064,82.0,0.0,180.0,3.0,64.0
2065,78.0,0.0,180.0,4.0,64.0
2066,70.0,0.0,120.0,2.0,64.0
2067,66.0,0.0,120.0,4.0,64.0
2068,63.0,192.0,390.0,5.0,64.0
2069,70.0,0.0,120.0,3.0,64.0
2070,70.0,192.0,120.0,1.0,64.0
2071,82.0,0.0,120.0,1.0,64.0
2072,82.0,0.0,120.0,3.0,64.0
2073,78.0,0.0,120.0,4.0,64.0
2074,78.0,60.0,120.0,2.0,64.0
2075,82.0,0.0,180.0,1.0,64.0
2076,78.0,0.0,180.0,2.0,64.0
2077,78.0,0.0,180.0,4.0,64.0
2078,82.0,192.0,180.0,3.0,64.0
2079,58.0,132.0,390.0,5.0,64.0
2080,80.0,0.0,180.0,3.0,64.0
2081,77.0,0.0,180.0,2.0,64.0
2082,77.0,0.0,180.0,4.0,64.0
2083,80.0,0.0,180.0,1.0,64.0
2084,65.0,192.0,120.0,4.0,64.0
2085,68.0,0.0,120.0,1.0,64.0
2086,68.0,0.0,120.0,3.0,64.0
2087,68.0,0.0,120.0,2.0,64.0
2088,62.0,192.0,390.0,5.0,64.0
2089,80.0,0.0,120.0,3.0,64.0
2090,80.0,0.0,120.0,1.0,64.0
2091,77.0,60.0,120.0,2.0,64.0
2092,77.0,0.0,120.0,4.0,64.0
2093,80.0,0.0,180.0,1.0,64.0
2094,80.0,0.0,180.0,3.0,64.0
2095,77.0,0.0,180.0,4.0,64.0
2096,58.0,132.0,390.0,5.0,64.0
2097,77.0,192.0,180.0,2.0,64.0
2098,75.0,0.0,180.0,4.0,64.0
2099,78.0,0.0,180.0,1.0,64.0
2100,78.0,0.0,180.0,3.0,64.0
2101,75.0,0.0,180.0,2.0,64.0
2102,78.0,0.0,180.0,0.0,64.0
2103,63.0,0.0,180.0,6.0,64.0
2104,75.0,132.0,180.0,2.0,64.0
2105,51.0,0.0,180.0,7.0,64.0
2106,78.0,0.0,180.0,1.0,64.0
2107,78.0,0.0,120.0,3.0,64.0
2108,63.0,0.0,390.0,5.0,64.0
2109,75.0,60.0,120.0,4.0,64.0
2110,68.0,60.0,120.0,4.0,64.0
2111,80.0,0.0,390.0,0.0,64.0
2112,47.0,0.0,180.0,7.0,64.0
2113,59.0,192.0,180.0,6.0,64.0
2114,80.0,0.0,390.0,1.0,64.0
2115,75.0,0.0,120.0,3.0,64.0
2116,56.0,0.0,180.0,6.0,64.0
2117,44.0,192.0,180.0,7.0,64.0
2118,71.0,0.0,180.0,4.0,64.0
2119,75.0,0.0,180.0,3.0,64.0
2120,68.0,0.0,180.0,5.0,64.0
2121,77.0,0.0,180.0,0.0,64.0
2122,71.0,0.0,180.0,4.0,64.0
2123,68.0,132.0,180.0,5.0,64.0
2124,77.0,0.0,180.0,1.0,64.0
2125,49.0,0.0,180.0,7.0,64.0
2126,73.0,0.0,180.0,3.0,64.0
2127,61.0,0.0,180.0,6.0,64.0
2128,78.0,192.0,120.0,1.0,64.0
2129,42.0,0.0,390.0,7.0,64.0
2130,73.0,0.0,120.0,3.0,64.0
2131,70.0,0.0,120.0,4.0,64.0
2132,78.0,192.0,390.0,0.0,64.0
2133,54.0,0.0,390.0,6.0,64.0
2134,70.0,0.0,390.0,5.0,64.0
2135,83.0,0.0,120.0,4.0,64.0
2136,87.0,0.0,120.0,3.0,64.0
2137,83.0,0.0,120.0,2.0,64.0
2138,87.0,60.0,120.0,1.0,64.0
2139,87.0,0.0,180.0,1.0,64.0
2140,65.0,132.0,390.0,5.0,64.0
2141,83.0,0.0,180.0,2.0,64.0
2142,87.0,192.0,180.0,3.0,64.0
2143,83.0,0.0,180.0,4.0,64.0
2144,85.0,0.0,180.0,1.0,64.0
2145,82.0,0.0,180.0,4.0,64.0
2146,85.0,0.0,180.0,3.0,64.0
2147,82.0,0.0,180.0,2.0,64.0
2148,70.0,0.0,120.0,4.0,64.0
2149,73.0,0.0,120.0,1.0,64.0
2150,73.0,192.0,120.0,3.0,64.0
2151,66.0,192.0,390.0,5.0,64.0
2152,73.0,0.0,120.0,2.0,64.0
2153,82.0,0.0,120.0,2.0,64.0
2154,82.0,0.0,120.0,4.0,64.0
2155,85.0,60.0,120.0,1.0,64.0
2156,85.0,0.0,120.0,3.0,64.0
2157,85.0,192.0,180.0,1.0,64.0
2158,85.0,0.0,180.0,3.0,64.0
2159,82.0,0.0,180.0,4.0,64.0
2160,61.0,0.0,390.0,5.0,64.0
2161,82.0,0.0,180.0,2.0,64.0
2162,80.0,132.0,180.0,2.0,64.0
2163,80.0,0.0,180.0,4.0,64.0
2164,83.0,0.0,180.0,3.0,64.0
2165,83.0,0.0,180.0,1.0,64.0
2166,65.0,192.0,390.0,5.0,64.0
2167,71.0,192.0,120.0,1.0,64.0
2168,68.0,0.0,120.0,4.0,64.0
2169,71.0,0.0,120.0,3.0,64.0
2170,71.0,0.0,120.0,2.0,64.0
2171,83.0,60.0,120.0,1.0,64.0
2172,80.0,0.0,120.0,2.0,64.0
2173,83.0,0.0,120.0,3.0,64.0
2174,80.0,0.0,120.0,4.0,64.0
2175,80.0,0.0,180.0,2.0,64.0
2176,83.0,192.0,180.0,1.0,64.0
2177,80.0,0.0,180.0,4.0,64.0
2178,61.0,0.0,390.0,5.0,64.0
2179,83.0,0.0,180.0,3.0,64.0
2180,78.0,132.0,180.0,2.0,64.0
2181,78.0,0.0,180.0,4.0,64.0
2182,82.0,0.0,180.0,1.0,64.0
2183,82.0,0.0,180.0,3.0,64.0
2184,66.0,192.0,390.0,5.0,64.0
2185,82.0,60.0,120.0,1.0,64.0
2186,78.0,0.0,180.0,2.0,64.0
2187,82.0,192.0,180.0,3.0,64.0
2188,78.0,0.0,390.0,4.0,64.0
2189,81.0,0.0,180.0,0.0,64.0
2190,81.0,0.0,180.0,1.0,64.0
2191,84.0,0.0,390.0,3.0,64.0
2192,68.0,0.0,390.0,5.0,64.0
2193,80.0,0.0,180.0,0.0,64.0
2194,75.0,0.0,390.0,4.0,64.0
2195,80.0,192.0,180.0,1.0,64.0
2196,85.0,132.0,390.0,3.0,64.0
2197,78.0,132.0,180.0,1.0,64.0
2198,78.0,0.0,180.0,0.0,64.0
2199,76.0,0.0,180.0,0.0,64.0
2200,76.0,0.0,390.0,4.0,64.0
2201,76.0,60.0,120.0,1.0,64.0
2202,61.0,96.0,390.0,5.0,64.0
2203,76.0,60.0,120.0,1.0,64.0
2204,76.0,0.0,180.0,0.0,64.0
2205,79.0,192.0,390.0,3.0,64.0
2206,63.0,0.0,390.0,6.0,64.0
2207,75.0,96.0,90.0,1.0,64.0
2208,51.0,132.0,390.0,7.0,64.0
2209,75.0,0.0,90.0,0.0,64.0
2210,70.0,0.0,390.0,4.0,64.0
2211,63.0,0.0,390.0,5.0,64.0
2212,76.0,0.0,90.0,1.0,64.0
2213,76.0,0.0,90.0,0.0,64.0
2214,73.0,0.0,180.0,0.0,64.0
2215,80.0,192.0,390.0,3.0,64.0
2216,73.0,0.0,180.0,1.0,64.0
2217,44.0,0.0,390.0,7.0,64.0
2218,71.0,192.0,390.0,4.0,64.0
2219,63.0,0.0,390.0,5.0,64.0
2220,71.0,60.0,120.0,1.0,64.0
2221,56.0,0.0,390.0,6.0,64.0
2222,71.0,0.0,180.0,0.0,64.0
2223,83.0,0.0,180.0,0.0,64.0
2224,83.0,0.0,180.0,1.0,64.0
2225,86.0,192.0,390.0,3.0,64.0
2226,70.0,0.0,390.0,5.0,64.0
2227,82.0,0.0,180.0,1.0,64.0
2228,82.0,0.0,180.0,0.0,64.0
2229,77.0,0.0,390.0,4.0,64.0
2230,80.0,132.0,180.0,0.0,64.0
2231,87.0,0.0,390.0,3.0,64.0
2232,80.0,0.0,180.0,1.0,64.0
2233,78.0,96.0,390.0,4.0,64.0
2234,78.0,132.0,180.0,0.0,64.0
2235,63.0,0.0,390.0,5.0,64.0
2236,78.0,60.0,120.0,1.0,64.0
2237,78.0,0.0,180.0,0.0,64.0
2238,81.0,0.0,390.0,3.0,64.0
2239,78.0,60.0,120.0,1.0,64.0
2240,53.0,0.0,390.0,7.0,64.0
2241,77.0,0.0,90.0,1.0,64.0
2242,77.0,96.0,90.0,0.0,64.0
2243,72.0,0.0,390.0,4.0,64.0
2244,65.0,0.0,390.0,6.0,64.0
2245,65.0,132.0,390.0,5.0,64.0
2246,78.0,0.0,90.0,1.0,64.0
2247,78.0,192.0,90.0,0.0,64.0
2248,75.0,0.0,180.0,0.0,64.0
2249,82.0,0.0,180.0,3.0,64.0
2250,75.0,0.0,180.0,1.0,64.0
2251,65.0,60.0,120.0,5.0,64.0
2252,74.0,192.0,180.0,0.0,64.0
2253,74.0,0.0,120.0,1.0,64.0
2254,58.0,192.0,390.0,6.0,64.0
2255,82.0,192.0,960.0,3.0,64.0
2256,74.0,0.0,120.0,4.0,64.0
2257,46.0,0.0,390.0,7.0,64.0
2258,77.0,0.0,180.0,0.0,64.0
2259,77.0,0.0,180.0,1.0,64.0
2260,80.0,0.0,180.0,4.0,64.0
2261,62.0,0.0,180.0,5.0,64.0
2262,70.0,0.0,180.0,5.0,64.0
2263,78.0,132.0,180.0,0.0,64.0
2264,78.0,0.0,180.0,1.0,64.0
2265,78.0,0.0,180.0,4.0,64.0
2266,77.0,0.0,180.0,4.0,64.0
2267,68.0,0.0,180.0,5.0,64.0
2268,46.0,132.0,180.0,6.0,64.0
2269,74.0,0.0,180.0,0.0,64.0
2270,74.0,60.0,120.0,1.0,64.0
2271,34.0,0.0,180.0,7.0,64.0
2272,66.0,0.0,180.0,5.0,64.0
2273,35.0,0.0,390.0,7.0,64.0
2274,75.0,0.0,960.0,4.0,64.0
2275,47.0,0.0,390.0,6.0,64.0
2276,75.0,0.0,180.0,0.0,64.0
2277,75.0,60.0,120.0,1.0,64.0
2278,63.0,0.0,390.0,5.0,64.0
2279,79.0,192.0,180.0,1.0,64.0
2280,82.0,0.0,180.0,3.0,64.0
2281,79.0,0.0,180.0,0.0,64.0
2282,80.0,0.0,180.0,0.0,64.0
2283,80.0,0.0,180.0,3.0,64.0
2284,80.0,132.0,180.0,1.0,64.0
2285,68.0,0.0,390.0,5.0,64.0
2286,78.0,132.0,180.0,3.0,64.0
2287,75.0,60.0,120.0,1.0,64.0
2288,48.0,0.0,180.0,6.0,64.0
2289,75.0,0.0,180.0,0.0,64.0
2290,36.0,0.0,180.0,7.0,64.0
2291,77.0,0.0,960.0,3.0,64.0
2292,77.0,192.0,180.0,0.0,64.0
2293,77.0,60.0,120.0,1.0,64.0
2294,49.0,0.0,390.0,6.0,64.0
2295,37.0,0.0,390.0,7.0,64.0
2296,66.0,0.0,180.0,5.0,64.0
2297,81.0,0.0,180.0,1.0,64.0
2298,81.0,192.0,180.0,0.0,64.0
2299,75.0,0.0,180.0,4.0,64.0
2300,65.0,0.0,180.0,5.0,64.0
2301,73.0,0.0,180.0,4.0,64.0
2302,82.0,0.0,180.0,1.0,64.0
2303,82.0,132.0,180.0,0.0,64.0
2304,77.0,60.0,120.0,1.0,64.0
2305,68.0,132.0,180.0,5.0,64.0
2306,50.0,0.0,180.0,6.0,64.0
2307,71.0,0.0,180.0,4.0,64.0
2308,77.0,0.0,180.0,0.0,64.0
2309,38.0,0.0,180.0,7.0,64.0
2310,51.0,0.0,390.0,6.0,64.0
2311,39.0,0.0,390.0,7.0,64.0
2312,78.0,60.0,120.0,1.0,64.0
2313,70.0,0.0,120.0,4.0,64.0
2314,78.0,192.0,180.0,0.0,64.0
2315,66.0,0.0,120.0,5.0,64.0
2316,76.0,0.0,180.0,3.0,64.0
2317,82.0,192.0,180.0,0.0,64.0
2318,73.0,0.0,180.0,4.0,64.0
2319,82.0,0.0,180.0,1.0,64.0
2320,67.0,0.0,180.0,5.0,64.0
2321,68.0,0.0,180.0,5.0,64.0
2322,71.0,0.0,180.0,4.0,64.0
2323,83.0,0.0,180.0,0.0,64.0
2324,83.0,0.0,180.0,1.0,64.0
2325,75.0,132.0,180.0,3.0,64.0
2326,51.0,132.0,180.0,6.0,64.0
2327,39.0,0.0,180.0,7.0,64.0
2328,79.0,60.0,120.0,1.0,64.0
2329,70.0,0.0,180.0,4.0,64.0
2330,79.0,0.0,180.0,0.0,64.0
2331,63.0,0.0,180.0,5.0,64.0
2332,73.0,0.0,180.0,3.0,64.0
2333,68.0,0.0,120.0,4.0,64.0
2334,52.0,0.0,120.0,6.0,64.0
2335,80.0,0.0,1710.0,0.0,64.0
2336,71.0,0.0,120.0,3.0,64.0
2337,80.0,192.0,1710.0,1.0,64.0
2338,68.0,0.0,120.0,5.0,64.0
2339,40.0,192.0,120.0,7.0,64.0
2340,61.0,0.0,120.0,5.0,64.0
2341,85.0,0.0,120.0,2.0,64.0
2342,70.0,0.0,120.0,4.0,64.0
2343,52.0,0.0,120.0,6.0,64.0
2344,85.0,0.0,120.0,3.0,64.0
2345,40.0,252.0,120.0,7.0,64.0
2346,61.0,0.0,180.0,5.0,64.0
2347,85.0,0.0,180.0,3.0,64.0
2348,70.0,0.0,180.0,4.0,64.0
2349,52.0,0.0,180.0,6.0,64.0
2350,40.0,192.0,180.0,7.0,64.0
2351,85.0,0.0,180.0,2.0,64.0
2352,83.0,0.0,180.0,2.0,64.0
2353,83.0,0.0,180.0,3.0,64.0
2354,51.0,0.0,180.0,6.0,64.0
2355,39.0,132.0,180.0,7.0,64.0
2356,63.0,0.0,180.0,5.0,64.0
2357,71.0,0.0,180.0,4.0,64.0
2358,51.0,0.0,120.0,6.0,64.0
2359,71.0,0.0,120.0,3.0,64.0
2360,71.0,0.0,120.0,2.0,64.0
2361,39.0,192.0,120.0,7.0,64.0
2362,71.0,0.0,120.0,4.0,64.0
2363,63.0,0.0,120.0,5.0,64.0
2364,68.0,0.0,120.0,5.0,64.0
2365,51.0,0.0,120.0,6.0,64.0
2366,75.0,0.0,120.0,4.0,64.0
2367,83.0,252.0,120.0,3.0,64.0
2368,83.0,0.0,120.0,2.0,64.0
2369,39.0,0.0,120.0,7.0,64.0
2370,71.0,0.0,180.0,5.0,64.0
2371,83.0,0.0,180.0,2.0,64.0
2372,75.0,0.0,180.0,4.0,64.0
2373,51.0,0.0,180.0,6.0,64.0
2374,83.0,0.0,180.0,3.0,64.0
2375,39.0,192.0,180.0,7.0,64.0
2376,82.0,0.0,180.0,3.0,64.0
2377,50.0,0.0,180.0,6.0,64.0
2378,82.0,0.0,180.0,2.0,64.0
2379,38.0,0.0,180.0,7.0,64.0
2380,77.0,0.0,180.0,4.0,64.0
2381,65.0,192.0,180.0,5.0,64.0
2382,50.0,0.0,390.0,6.0,64.0
2383,70.0,192.0,960.0,5.0,64.0
2384,77.0,0.0,1140.0,4.0,64.0
2385,38.0,192.0,390.0,7.0,64.0
2386,82.0,0.0,180.0,2.0,64.0
2387,82.0,0.0,1140.0,3.0,64.0
2388,75.0,0.0,180.0,0.0,64.0
2389,75.0,0.0,180.0,1.0,64.0
2390,74.0,0.0,180.0,1.0,64.0
2391,34.0,192.0,390.0,7.0,64.0
2392,74.0,192.0,180.0,0.0,64.0
2393,46.0,0.0,390.0,6.0,64.0
2394,80.0,0.0,180.0,0.0,64.0
2395,80.0,0.0,180.0,1.0,64.0
2396,78.0,0.0,180.0,1.0,64.0
2397,78.0,0.0,180.0,0.0,64.0
2398,39.0,0.0,390.0,7.0,64.0
2399,51.0,0.0,390.0,6.0,64.0
2400,74.0,0.0,180.0,0.0,64.0
2401,68.0,0.0,180.0,5.0,64.0
2402,74.0,192.0,180.0,1.0,64.0
2403,70.0,0.0,390.0,3.0,64.0
2404,75.0,132.0,180.0,1.0,64.0
2405,66.0,0.0,180.0,5.0,64.0
2406,42.0,0.0,390.0,7.0,64.0
2407,75.0,132.0,570.0,4.0,64.0
2408,75.0,0.0,180.0,0.0,64.0
2409,54.0,0.0,390.0,6.0,64.0
2410,70.0,60.0,120.0,5.0,64.0
2411,78.0,0.0,180.0,0.0,64.0
2412,78.0,132.0,180.0,1.0,64.0
2413,35.0,192.0,390.0,7.0,64.0
2414,47.0,0.0,390.0,6.0,64.0
2415,68.0,0.0,1530.0,1.0,64.0
2416,75.0,60.0,120.0,3.0,64.0
2417,71.0,132.0,960.0,5.0,64.0
2418,68.0,192.0,1530.0,0.0,64.0
2419,77.0,60.0,120.0,3.0,64.0
2420,77.0,0.0,120.0,2.0,64.0
2421,74.0,0.0,120.0,4.0,64.0
2422,59.0,132.0,390.0,6.0,64.0
2423,77.0,0.0,180.0,3.0,64.0
2424,47.0,0.0,390.0,7.0,64.0
2425,77.0,192.0,180.0,2.0,64.0
2426,74.0,0.0,180.0,4.0,64.0
2427,78.0,0.0,180.0,3.0,64.0
2428,75.0,0.0,180.0,4.0,64.0
2429,78.0,0.0,180.0,2.0,64.0
2430,77.0,60.0,120.0,4.0,64.0
2431,80.0,0.0,120.0,3.0,64.0
2432,38.0,0.0,390.0,7.0,64.0
2433,50.0,192.0,390.0,6.0,64.0
2434,80.0,0.0,120.0,2.0,64.0
2435,62.0,0.0,180.0,5.0,64.0
2436,71.0,0.0,120.0,2.0,64.0
2437,71.0,0.0,120.0,3.0,64.0
2438,68.0,60.0,120.0,4.0,64.0
2439,71.0,192.0,180.0,2.0,64.0
2440,71.0,0.0,180.0,3.0,64.0
2441,68.0,0.0,180.0,4.0,64.0
2442,53.0,0.0,390.0,6.0,64.0
2443,62.0,0.0,180.0,5.0,64.0
2444,41.0,0.0,390.0,7.0,64.0
2445,70.0,0.0,180.0,3.0,64.0
2446,66.0,0.0,180.0,4.0,64.0
2447,63.0,0.0,180.0,5.0,64.0
2448,70.0,0.0,180.0,2.0,64.0
2449,63.0,192.0,180.0,5.0,64.0
2450,66.0,0.0,180.0,4.0,64.0
2451,30.0,0.0,180.0,7.0,64.0
2452,70.0,0.0,180.0,2.0,64.0
2453,70.0,0.0,180.0,3.0,64.0
2454,42.0,0.0,180.0,6.0,64.0
2455,59.0,0.0,180.0,6.0,64.0
2456,47.0,0.0,180.0,7.0,64.0
2457,80.0,0.0,180.0,0.0,64.0
2458,80.0,192.0,180.0,1.0,64.0
2459,46.0,192.0,180.0,7.0,64.0
2460,78.0,0.0,180.0,1.0,64.0
2461,78.0,0.0,180.0,0.0,64.0
2462,58.0,0.0,180.0,6.0,64.0
2463,77.0,192.0,180.0,0.0,64.0
2464,77.0,0.0,180.0,1.0,64.0
2465,56.0,0.0,180.0,6.0,64.0
2466,44.0,0.0,180.0,7.0,64.0
2467,82.0,0.0,180.0,1.0,64.0
2468,42.0,192.0,180.0,7.0,64.0
2469,54.0,0.0,180.0,6.0,64.0
2470,82.0,0.0,180.0,0.0,64.0
2471,56.0,0.0,180.0,6.0,64.0
2472,75.0,192.0,180.0,0.0,64.0
2473,75.0,0.0,180.0,1.0,64.0
2474,44.0,0.0,180.0,7.0,64.0
2475,58.0,96.0,390.0,6.0,64.0
2476,46.0,0.0,390.0,7.0,64.0
2477,70.0,0.0,180.0,0.0,64.0
2478,70.0,192.0,180.0,1.0,64.0
2479,78.0,0.0,180.0,0.0,64.0
2480,78.0,0.0,180.0,1.0,64.0
2481,66.0,60.0,120.0,5.0,64.0
2482,77.0,36.0,90.0,1.0,64.0
2483,70.0,0.0,120.0,4.0,64.0
2484,75.0,0.0,180.0,3.0,64.0
2485,75.0,0.0,180.0,2.0,64.0
2486,51.0,192.0,180.0,7.0,64.0
2487,77.0,192.0,390.0,0.0,64.0
2488,63.0,0.0,180.0,6.0,64.0
2489,75.0,0.0,90.0,1.0,64.0
2490,77.0,0.0,390.0,1.0,64.0
2491,39.0,0.0,180.0,7.0,64.0
2492,77.0,0.0,390.0,2.0,64.0
2493,68.0,0.0,390.0,5.0,64.0
2494,51.0,0.0,180.0,6.0,64.0
2495,77.0,132.0,390.0,3.0,64.0
2496,51.0,0.0,180.0,6.0,64.0
2497,39.0,0.0,180.0,7.0,64.0
2498,75.0,0.0,390.0,0.0,64.0
2499,68.0,0.0,120.0,4.0,64.0
2500,39.0,132.0,180.0,7.0,64.0
2501,65.0,60.0,120.0,5.0,64.0
2502,74.0,0.0,120.0,1.0,64.0
2503,74.0,0.0,120.0,2.0,64.0
2504,51.0,0.0,180.0,6.0,64.0
2505,74.0,0.0,120.0,3.0,64.0
2506,75.0,0.0,120.0,2.0,64.0
2507,75.0,0.0,120.0,3.0,64.0
2508,51.0,0.0,390.0,6.0,64.0
2509,70.0,0.0,120.0,4.0,64.0
2510,66.0,0.0,390.0,5.0,64.0
2511,39.0,0.0,390.0,7.0,64.0
2512,75.0,192.0,120.0,1.0,64.0
2513,83.0,60.0,120.0,3.0,64.0
2514,80.0,192.0,180.0,4.0,64.0
2515,80.0,0.0,120.0,2.0,64.0
2516,83.0,0.0,120.0,1.0,64.0
2517,83.0,0.0,180.0,3.0,64.0
2518,83.0,0.0,180.0,1.0,64.0
2519,80.0,0.0,180.0,4.0,64.0
2520,80.0,192.0,180.0,2.0,64.0
2521,62.0,0.0,390.0,5.0,64.0
2522,82.0,0.0,180.0,3.0,64.0
2523,82.0,0.0,180.0,1.0,64.0
2524,78.0,0.0,180.0,2.0,64.0
2525,78.0,132.0,180.0,4.0,64.0
2526,63.0,192.0,390.0,5.0,64.0
2527,70.0,0.0,120.0,1.0,64.0
2528,70.0,192.0,120.0,2.0,64.0
2529,70.0,0.0,120.0,3.0,64.0
2530,66.0,0.0,120.0,4.0,64.0
2531,82.0,0.0,120.0,1.0,64.0
2532,78.0,0.0,120.0,4.0,64.0
2533,78.0,60.0,120.0,2.0,64.0
2534,82.0,0.0,120.0,3.0,64.0
2535,58.0,0.0,390.0,5.0,64.0
2536,78.0,0.0,180.0,4.0,64.0
2537,82.0,192.0,180.0,1.0,64.0
2538,82.0,0.0,180.0,3.0,64.0
2539,78.0,0.0,180.0,2.0,64.0
2540,80.0,132.0,180.0,3.0,64.0
2541,77.0,0.0,180.0,2.0,64.0
2542,80.0,0.0,180.0,1.0,64.0
2543,77.0,0.0,180.0,4.0,64.0
2544,68.0,0.0,120.0,3.0,64.0
2545,65.0,192.0,120.0,4.0,64.0
2546,62.0,192.0,390.0,5.0,64.0
2547,68.0,0.0,120.0,1.0,64.0
2548,68.0,0.0,120.0,2.0,64.0
2549,80.0,0.0,120.0,3.0,64.0
2550,77.0,0.0,120.0,2.0,64.0
2551,77.0,60.0,120.0,4.0,64.0
2552,80.0,0.0,120.0,1.0,64.0
2553,77.0,0.0,180.0,2.0,64.0
2554,77.0,0.0,180.0,4.0,64.0
2555,58.0,0.0,390.0,5.0,64.0
2556,80.0,192.0,180.0,3.0,64.0
2557,80.0,0.0,180.0,1.0,64.0
2558,75.0,0.0,180.0,4.0,64.0
2559,78.0,192.0,180.0,1.0,64.0
2560,75.0,0.0,180.0,2.0,64.0
2561,78.0,0.0,180.0,3.0,64.0
2562,75.0,0.0,180.0,4.0,64.0
2563,78.0,0.0,180.0,2.0,64.0
2564,78.0,0.0,180.0,1.0,64.0
2565,51.0,0.0,180.0,7.0,64.0
2566,63.0,192.0,180.0,6.0,64.0
2567,70.0,0.0,180.0,5.0,64.0
2568,78.0,0.0,180.0,3.0,64.0
2569,80.0,0.0,390.0,3.0,64.0
2570,71.0,0.0,390.0,5.0,64.0
2571,80.0,0.0,390.0,1.0,64.0
2572,75.0,0.0,390.0,4.0,64.0
2573,80.0,132.0,390.0,2.0,64.0
2574,59.0,0.0,180.0,6.0,64.0
2575,47.0,192.0,180.0,7.0,64.0
2576,44.0,0.0,180.0,7.0,64.0
2577,56.0,0.0,180.0,6.0,64.0
2578,68.0,0.0,120.0,5.0,64.0
2579,77.0,60.0,120.0,1.0,64.0
2580,49.0,0.0,180.0,7.0,64.0
2581,73.0,0.0,120.0,4.0,64.0
2582,77.0,0.0,120.0,2.0,64.0
2583,61.0,132.0,180.0,6.0,64.0
2584,77.0,0.0,120.0,3.0,64.0
2585,54.0,192.0,390.0,6.0,64.0
2586,73.0,0.0,120.0,4.0,64.0
2587,78.0,192.0,120.0,2.0,64.0
2588,70.0,0.0,390.0,5.0,64.0
2589,78.0,0.0,120.0,3.0,64.0
2590,78.0,0.0,120.0,1.0,64.0
2591,42.0,0.0,390.0,7.0,64.0
2592,87.0,60.0,120.0,3.0,64.0
2593,87.0,0.0,120.0,1.0,64.0
2594,83.0,0.0,120.0,2.0,64.0
2595,83.0,0.0,120.0,4.0,64.0
2596,87.0,0.0,180.0,1.0,64.0
2597,83.0,0.0,180.0,4.0,64.0
2598,87.0,192.0,180.0,3.0,64.0
2599,65.0,0.0,390.0,5.0,64.0
2600,83.0,0.0,180.0,2.0,64.0
2601,82.0,0.0,180.0,4.0,64.0
2602,82.0,0.0,180.0,2.0,64.0
2603,85.0,0.0,180.0,3.0,64.0
2604,85.0,132.0,180.0,1.0,64.0
2605,73.0,192.0,120.0,2.0,64.0
2606,73.0,0.0,120.0,3.0,64.0
2607,73.0,0.0,120.0,1.0,64.0
2608,70.0,0.0,120.0,4.0,64.0
2609,66.0,192.0,390.0,5.0,64.0
2610,82.0,0.0,120.0,2.0,64.0
2611,85.0,0.0,120.0,3.0,64.0
2612,82.0,60.0,120.0,4.0,64.0
2613,85.0,0.0,120.0,1.0,64.0
2614,61.0,0.0,390.0,5.0,64.0
2615,85.0,192.0,180.0,1.0,64.0
2616,82.0,0.0,180.0,2.0,64.0
2617,82.0,0.0,180.0,4.0,64.0
2618,85.0,0.0,180.0,3.0,64.0
2619,83.0,0.0,180.0,1.0,64.0
2620,80.0,0.0,180.0,2.0,64.0
2621,83.0,0.0,180.0,3.0,64.0
2622,80.0,132.0,180.0,4.0,64.0
2623,71.0,0.0,120.0,3.0,64.0
2624,65.0,192.0,390.0,5.0,64.0
2625,71.0,192.0,120.0,2.0,64.0
2626,71.0,0.0,120.0,1.0,64.0
2627,68.0,0.0,120.0,4.0,64.0
2628,80.0,0.0,120.0,4.0,64.0
2629,83.0,0.0,120.0,1.0,64.0
2630,80.0,0.0,120.0,2.0,64.0
2631,83.0,60.0,120.0,3.0,64.0
2632,80.0,0.0,180.0,2.0,64.0
2633,83.0,0.0,180.0,3.0,64.0
2634,83.0,192.0,180.0,1.0,64.0
2635,61.0,0.0,390.0,5.0,64.0
2636,80.0,0.0,180.0,4.0,64.0
2637,82.0,132.0,180.0,1.0,64.0
2638,78.0,0.0,180.0,2.0,64.0
2639,82.0,0.0,180.0,3.0,64.0
2640,78.0,0.0,180.0,4.0,64.0
2641,82.0,0.0,180.0,2.0,64.0
2642,78.0,0.0,180.0,4.0,64.0
2643,73.0,0.0,180.0,5.0,64.0
2644,82.0,192.0,180.0,3.0,64.0
2645,82.0,0.0,180.0,1.0,64.0
2646,54.0,0.0,120.0,6.0,64.0
2647,42.0,60.0,120.0,7.0,64.0
2648,75.0,0.0,390.0,4.0,64.0
2649,66.0,0.0,180.0,5.0,64.0
2650,69.0,0.0,180.0,6.0,64.0
2651,57.0,192.0,180.0,7.0,64.0
2652,84.0,0.0,390.0,2.0,64.0
2653,84.0,0.0,390.0,1.0,64.0
2654,84.0,192.0,390.0,3.0,64.0
2655,68.0,192.0,570.0,5.0,64.0
2656,68.0,0.0,180.0,6.0,64.0
2657,56.0,0.0,180.0,7.0,64.0
2658,66.0,0.0,180.0,6.0,64.0
2659,85.0,0.0,390.0,1.0,64.0
2660,85.0,0.0,390.0,3.0,64.0
2661,85.0,0.0,390.0,2.0,64.0
2662,80.0,0.0,390.0,4.0,64.0
2663,54.0,132.0,180.0,7.0,64.0
2664,52.0,0.0,120.0,7.0,64.0
2665,64.0,60.0,120.0,6.0,64.0
2666,61.0,0.0,180.0,5.0,64.0
2667,79.0,0.0,390.0,1.0,64.0
2668,64.0,192.0,180.0,6.0,64.0
2669,79.0,0.0,390.0,2.0,64.0
2670,79.0,0.0,390.0,3.0,64.0
2671,52.0,0.0,180.0,7.0,64.0
2672,70.0,192.0,390.0,4.0,64.0
2673,63.0,0.0,570.0,5.0,64.0
2674,51.0,0.0,180.0,7.0,64.0
2675,63.0,0.0,180.0,6.0,64.0
2676,80.0,0.0,390.0,1.0,64.0
2677,80.0,192.0,390.0,2.0,64.0
2678,49.0,132.0,180.0,7.0,64.0
2679,61.0,0.0,180.0,6.0,64.0
2680,75.0,0.0,390.0,4.0,64.0
2681,80.0,0.0,390.0,3.0,64.0
2682,47.0,60.0,120.0,7.0,64.0
2683,59.0,0.0,120.0,6.0,64.0
2684,86.0,0.0,390.0,1.0,64.0
2685,86.0,0.0,390.0,3.0,64.0
2686,86.0,0.0,390.0,2.0,64.0
2687,47.0,0.0,180.0,7.0,64.0
2688,68.0,192.0,180.0,5.0,64.0
2689,77.0,0.0,390.0,4.0,64.0
2690,59.0,0.0,180.0,6.0,64.0
2691,58.0,192.0,180.0,6.0,64.0
2692,70.0,0.0,570.0,5.0,64.0
2693,46.0,0.0,180.0,7.0,64.0
2694,44.0,0.0,180.0,7.0,64.0
2695,87.0,0.0,390.0,2.0,64.0
2696,82.0,192.0,390.0,4.0,64.0
2697,87.0,0.0,390.0,1.0,64.0
2698,56.0,132.0,180.0,6.0,64.0
2699,87.0,0.0,390.0,3.0,64.0
2700,42.0,60.0,120.0,7.0,64.0
2701,54.0,0.0,120.0,6.0,64.0
2702,81.0,0.0,390.0,3.0,64.0
2703,54.0,0.0,180.0,6.0,64.0
2704,63.0,192.0,180.0,5.0,64.0
2705,72.0,0.0,390.0,4.0,64.0
2706,81.0,192.0,390.0,2.0,64.0
2707,81.0,0.0,390.0,1.0,64.0
2708,42.0,0.0,180.0,7.0,64.0
2709,53.0,0.0,180.0,6.0,64.0
2710,41.0,0.0,180.0,7.0,64.0
2711,65.0,0.0,750.0,5.0,64.0
2712,82.0,132.0,390.0,1.0,64.0
2713,39.0,0.0,180.0,7.0,64.0
2714,82.0,0.0,390.0,3.0,64.0
2715,77.0,0.0,390.0,4.0,64.0
2716,51.0,192.0,180.0,6.0,64.0
2717,82.0,0.0,390.0,2.0,64.0
2718,50.0,192.0,390.0,6.0,64.0
2719,38.0,0.0,390.0,7.0,64.0
2720,74.0,0.0,120.0,2.0,64.0
2721,77.0,60.0,120.0,3.0,64.0
2722,74.0,0.0,120.0,4.0,64.0
2723,77.0,0.0,120.0,1.0,64.0
2724,77.0,0.0,180.0,1.0,64.0
2725,41.0,0.0,390.0,7.0,64.0
2726,53.0,0.0,390.0,6.0,64.0
2727,77.0,0.0,180.0,3.0,64.0
2728,74.0,192.0,180.0,2.0,64.0
2729,74.0,0.0,180.0,4.0,64.0
2730,68.0,0.0,390.0,5.0,64.0
2731,75.0,0.0,180.0,2.0,64.0
2732,75.0,0.0,180.0,4.0,64.0
2733,78.0,0.0,180.0,1.0,64.0
2734,78.0,132.0,180.0,3.0,64.0
2735,77.0,0.0,120.0,4.0,64.0
2736,62.0,0.0,390.0,5.0,64.0
2737,34.0,192.0,390.0,7.0,64.0
2738,80.0,0.0,120.0,1.0,64.0
2739,80.0,0.0,120.0,3.0,64.0
2740,46.0,0.0,390.0,6.0,64.0
2741,77.0,192.0,120.0,2.0,64.0
2742,68.0,60.0,120.0,4.0,64.0
2743,71.0,0.0,120.0,1.0,64.0
2744,71.0,0.0,120.0,3.0,64.0
2745,68.0,0.0,120.0,2.0,64.0
2746,71.0,192.0,180.0,1.0,64.0
2747,71.0,0.0,180.0,3.0,64.0
2748,41.0,0.0,390.0,7.0,64.0
2749,68.0,0.0,180.0,2.0,64.0
2750,74.0,0.0,390.0,5.0,64.0
2751,53.0,0.0,390.0,6.0,64.0
2752,68.0,0.0,180.0,4.0,64.0
2753,66.0,0.0,180.0,4.0,64.0
2754,66.0,0.0,180.0,2.0,64.0
2755,70.0,0.0,180.0,1.0,64.0
2756,70.0,132.0,180.0,3.0,64.0
2757,70.0,0.0,120.0,3.0,64.0
2758,70.0,0.0,120.0,1.0,64.0
2759,66.0,192.0,180.0,4.0,64.0
2760,70.0,0.0,120.0,2.0,64.0
2761,75.0,0.0,120.0,5.0,64.0
2762,54.0,60.0,120.0,6.0,64.0
2763,42.0,0.0,120.0,7.0,64.0
2764,47.0,192.0,180.0,6.0,64.0
2765,68.0,0.0,180.0,5.0,64.0
2766,35.0,0.0,180.0,7.0,64.0
2767,80.0,0.0,180.0,2.0,64.0
2768,80.0,0.0,180.0,3.0,64.0
2769,75.0,0.0,390.0,4.0,64.0
2770,80.0,0.0,180.0,1.0,64.0
2771,34.0,0.0,180.0,7.0,64.0
2772,78.0,0.0,180.0,2.0,64.0
2773,70.0,0.0,180.0,5.0,64.0
2774,78.0,0.0,180.0,1.0,64.0
2775,78.0,192.0,180.0,3.0,64.0
2776,46.0,0.0,180.0,6.0,64.0
2777,44.0,0.0,180.0,6.0,64.0
2778,74.0,0.0,180.0,4.0,64.0
2779,71.0,0.0,180.0,5.0,64.0
2780,77.0,0.0,180.0,1.0,64.0
2781,77.0,0.0,180.0,3.0,64.0
2782,77.0,0.0,180.0,2.0,64.0
2783,32.0,192.0,180.0,7.0,64.0
2784,70.0,0.0,180.0,5.0,64.0
2785,42.0,0.0,180.0,6.0,64.0
2786,82.0,0.0,180.0,1.0,64.0
2787,30.0,192.0,180.0,7.0,64.0
2788,82.0,0.0,180.0,2.0,64.0
2789,82.0,0.0,180.0,3.0,64.0
2790,75.0,0.0,180.0,4.0,64.0
2791,77.0,0.0,180.0,4.0,64.0
2792,80.0,0.0,180.0,3.0,64.0
2793,71.0,0.0,180.0,5.0,64.0
2794,80.0,0.0,180.0,1.0,64.0
2795,44.0,0.0,180.0,6.0,64.0
2796,80.0,192.0,180.0,2.0,64.0
2797,32.0,0.0,180.0,7.0,64.0
2798,34.0,768.0,390.0,7.0,64.0
2799,78.0,192.0,180.0,1.0,64.0
2800,78.0,0.0,180.0,2.0,64.0
2801,70.0,0.0,180.0,5.0,64.0
2802,75.0,0.0,180.0,4.0,64.0
2803,78.0,0.0,180.0,3.0,64.0
2804,46.0,0.0,390.0,6.0,64.0
2805,74.0,0.0,180.0,4.0,64.0
2806,68.0,0.0,180.0,5.0,64.0
2807,77.0,0.0,180.0,2.0,64.0
2808,77.0,0.0,180.0,3.0,64.0
2809,77.0,0.0,180.0,1.0,64.0
2810,27.0,0.0,750.0,7.0,64.0
2811,75.0,0.0,750.0,2.0,64.0
2812,66.0,0.0,750.0,5.0,64.0
2813,70.0,0.0,750.0,4.0,64.0
2814,75.0,0.0,750.0,1.0,64.0
2815,51.0,0.0,750.0,6.0,64.0
2816,75.0,0.0,750.0,3.0,64.0
