,note,step,duration,channel,velocity
0,59.0,0.0,1020.0,3.0,0.0
1,75.0,0.0,1020.0,1.0,0.0
2,47.0,768.0,1020.0,4.0,0.0
3,78.0,0.0,1020.0,0.0,0.0
4,73.0,128.0,780.0,1.0,0.0
5,80.0,0.0,1020.0,0.0,0.0
6,40.0,768.0,1020.0,4.0,0.0
7,52.0,0.0,1020.0,3.0,0.0
8,75.0,128.0,120.0,1.0,0.0
9,71.0,0.0,120.0,1.0,0.0
10,70.0,512.0,1020.0,1.0,0.0
11,54.0,0.0,1020.0,3.0,0.0
12,42.0,0.0,1020.0,4.0,0.0
13,78.0,128.0,780.0,0.0,0.0
14,80.0,128.0,120.0,0.0,0.0
15,76.0,0.0,120.0,0.0,0.0
16,44.0,256.0,1020.0,4.0,0.0
17,56.0,0.0,1020.0,3.0,0.0
18,71.0,256.0,510.0,1.0,0.0
19,75.0,0.0,1530.0,0.0,0.0
20,73.0,256.0,270.0,1.0,0.0
21,71.0,0.0,270.0,1.0,0.0
22,70.0,256.0,270.0,1.0,0.0
23,54.0,512.0,510.0,3.0,0.0
24,42.0,0.0,510.0,4.0,0.0
25,71.0,0.0,270.0,1.0,0.0
26,76.0,1024.0,510.0,0.0,0.0
27,68.0,0.0,510.0,1.0,0.0
28,52.0,0.0,510.0,3.0,0.0
29,40.0,0.0,510.0,4.0,0.0
30,51.0,768.0,1020.0,3.0,0.0
31,39.0,0.0,1020.0,4.0,0.0
32,78.0,0.0,2040.0,0.0,0.0
33,66.0,0.0,1020.0,1.0,0.0
34,68.0,256.0,780.0,1.0,0.0
35,52.0,0.0,1020.0,3.0,0.0
36,40.0,0.0,1020.0,4.0,0.0
37,70.0,128.0,270.0,1.0,0.0
38,49.0,512.0,1020.0,3.0,0.0
39,76.0,512.0,510.0,0.0,0.0
40,71.0,128.0,120.0,1.0,0.0
41,37.0,0.0,1020.0,4.0,0.0
42,70.0,128.0,120.0,1.0,0.0
43,71.0,128.0,120.0,1.0,0.0
44,70.0,0.0,1140.0,1.0,0.0
45,75.0,0.0,510.0,0.0,0.0
46,54.0,0.0,1020.0,3.0,0.0
47,76.0,256.0,510.0,0.0,0.0
48,42.0,0.0,1020.0,4.0,0.0
49,68.0,256.0,270.0,1.0,0.0
50,78.0,1024.0,510.0,0.0,0.0
51,70.0,0.0,270.0,1.0,0.0
52,75.0,512.0,1020.0,0.0,0.0
53,59.0,0.0,1020.0,3.0,0.0
54,47.0,0.0,1020.0,4.0,0.0
55,71.0,256.0,1530.0,1.0,0.0
56,63.0,256.0,1020.0,3.0,0.0
57,51.0,0.0,1020.0,4.0,0.0
58,73.0,256.0,270.0,1.0,0.0
59,71.0,0.0,270.0,1.0,0.0
60,61.0,0.0,510.0,3.0,0.0
61,49.0,512.0,510.0,4.0,0.0
62,70.0,256.0,270.0,1.0,0.0
63,71.0,0.0,270.0,1.0,0.0
64,59.0,256.0,510.0,3.0,0.0
65,68.0,0.0,510.0,1.0,0.0
66,47.0,0.0,510.0,4.0,0.0
67,66.0,256.0,270.0,1.0,0.0
68,58.0,0.0,1020.0,3.0,0.0
69,46.0,0.0,1020.0,4.0,0.0
70,73.0,0.0,1020.0,0.0,0.0
71,68.0,512.0,270.0,1.0,0.0
72,47.0,0.0,1020.0,4.0,0.0
73,75.0,256.0,780.0,0.0,0.0
74,59.0,0.0,1020.0,3.0,0.0
75,70.0,128.0,15.0,1.0,0.0
76,68.0,128.0,120.0,1.0,0.0
77,70.0,384.0,120.0,1.0,0.0
78,68.0,256.0,1140.0,1.0,0.0
79,77.0,64.0,270.0,0.0,0.0
80,78.0,64.0,60.0,0.0,0.0
81,49.0,0.0,2040.0,4.0,0.0
82,61.0,512.0,2040.0,3.0,0.0
83,77.0,64.0,60.0,0.0,0.0
84,78.0,320.0,60.0,0.0,0.0
85,77.0,128.0,570.0,0.0,0.0
86,71.0,0.0,510.0,1.0,0.0
87,75.0,128.0,120.0,0.0,0.0
88,77.0,512.0,120.0,0.0,0.0
89,70.0,512.0,510.0,1.0,0.0
90,78.0,512.0,1530.0,0.0,0.0
91,71.0,0.0,510.0,1.0,0.0
92,47.0,0.0,510.0,4.0,0.0
93,73.0,512.0,1020.0,1.0,0.0
94,59.0,0.0,510.0,3.0,0.0
95,58.0,0.0,510.0,3.0,0.0
96,46.0,0.0,510.0,4.0,0.0
97,76.0,0.0,510.0,0.0,0.0
98,47.0,512.0,510.0,4.0,0.0
99,75.0,0.0,510.0,0.0,0.0
100,59.0,0.0,510.0,3.0,0.0
101,66.0,512.0,1530.0,1.0,0.0
102,73.0,0.0,510.0,0.0,0.0
103,49.0,0.0,510.0,4.0,0.0
104,61.0,512.0,510.0,3.0,0.0
105,76.0,0.0,510.0,0.0,0.0
106,58.0,0.0,510.0,3.0,0.0
107,46.0,0.0,510.0,4.0,0.0
108,66.0,0.0,1020.0,2.0,0.0
109,47.0,0.0,510.0,4.0,0.0
110,59.0,192.0,510.0,3.0,0.0
111,71.0,512.0,1020.0,1.0,0.0
112,68.0,512.0,1020.0,2.0,0.0
113,75.0,0.0,15.0,0.0,0.0
114,40.0,0.0,1020.0,4.0,0.0
115,52.0,0.0,1020.0,3.0,0.0
116,73.0,128.0,180.0,0.0,0.0
117,75.0,0.0,120.0,0.0,0.0
118,73.0,256.0,1020.0,0.0,0.0
119,71.0,0.0,510.0,1.0,0.0
120,42.0,0.0,1020.0,4.0,0.0
121,70.0,256.0,1020.0,1.0,0.0
122,66.0,128.0,780.0,2.0,0.0
123,54.0,0.0,1020.0,3.0,0.0
124,71.0,0.0,270.0,0.0,0.0
125,68.0,128.0,120.0,2.0,0.0
126,73.0,0.0,270.0,0.0,0.0
127,64.0,0.0,15.0,2.0,0.0
128,47.0,0.0,1020.0,3.0,0.0
129,35.0,0.0,1020.0,4.0,0.0
130,71.0,512.0,510.0,1.0,0.0
131,71.0,512.0,1020.0,0.0,0.0
132,63.0,64.0,60.0,2.0,0.0
133,64.0,64.0,60.0,2.0,0.0
134,63.0,64.0,60.0,2.0,0.0
135,64.0,0.0,60.0,2.0,0.0
136,78.0,0.0,1020.0,1.0,0.0
137,63.0,512.0,1020.0,2.0,0.0
138,44.0,0.0,1020.0,4.0,0.0
139,56.0,512.0,1020.0,3.0,0.0
140,76.0,512.0,1020.0,1.0,0.0
141,64.0,0.0,510.0,2.0,0.0
142,51.0,0.0,1020.0,3.0,0.0
143,39.0,0.0,1020.0,4.0,0.0
144,78.0,512.0,510.0,0.0,0.0
145,75.0,256.0,1020.0,1.0,0.0
146,52.0,0.0,1020.0,3.0,0.0
147,40.0,64.0,1020.0,4.0,0.0
148,80.0,256.0,780.0,0.0,0.0
149,73.0,0.0,510.0,1.0,0.0
150,82.0,0.0,270.0,0.0,0.0
151,49.0,0.0,1020.0,3.0,0.0
152,66.0,0.0,15.0,2.0,0.0
153,37.0,512.0,1020.0,4.0,0.0
154,83.0,0.0,60.0,0.0,0.0
155,73.0,0.0,2040.0,1.0,0.0
156,64.0,64.0,60.0,2.0,0.0
157,82.0,0.0,60.0,0.0,0.0
158,83.0,0.0,60.0,0.0,0.0
159,66.0,320.0,60.0,2.0,0.0
160,64.0,512.0,330.0,2.0,0.0
161,82.0,256.0,1350.0,0.0,0.0
162,63.0,0.0,510.0,2.0,0.0
163,54.0,512.0,1020.0,3.0,0.0
164,42.0,0.0,1020.0,4.0,0.0
165,64.0,0.0,510.0,2.0,0.0
166,66.0,0.0,510.0,2.0,0.0
167,80.0,256.0,270.0,0.0,0.0
168,82.0,0.0,270.0,0.0,0.0
169,83.0,512.0,1530.0,0.0,0.0
170,47.0,0.0,1020.0,4.0,0.0
171,63.0,0.0,2040.0,2.0,0.0
172,59.0,512.0,1020.0,3.0,0.0
173,71.0,512.0,510.0,1.0,0.0
174,73.0,0.0,510.0,1.0,0.0
175,75.0,0.0,1020.0,1.0,0.0
176,44.0,0.0,1020.0,4.0,0.0
177,56.0,0.0,1020.0,3.0,0.0
178,82.0,1024.0,510.0,0.0,0.0
179,61.0,768.0,1020.0,3.0,0.0
180,77.0,0.0,1020.0,1.0,0.0
181,80.0,0.0,1020.0,0.0,0.0
182,49.0,0.0,1020.0,4.0,0.0
183,82.0,256.0,780.0,0.0,0.0
184,54.0,0.0,1020.0,3.0,0.0
185,61.0,0.0,1020.0,2.0,0.0
186,42.0,192.0,1020.0,4.0,0.0
187,78.0,0.0,1530.0,1.0,0.0
188,83.0,0.0,270.0,0.0,0.0
189,82.0,192.0,180.0,0.0,0.0
190,47.0,0.0,1020.0,3.0,0.0
191,35.0,64.0,1020.0,4.0,0.0
192,63.0,256.0,780.0,2.0,0.0
193,80.0,128.0,180.0,0.0,0.0
194,82.0,256.0,120.0,0.0,0.0
195,75.0,0.0,510.0,1.0,0.0
196,80.0,0.0,1020.0,0.0,0.0
197,65.0,0.0,270.0,2.0,0.0
198,66.0,64.0,60.0,2.0,0.0
199,37.0,0.0,1020.0,4.0,0.0
200,49.0,0.0,1020.0,3.0,0.0
201,73.0,256.0,510.0,1.0,0.0
202,65.0,64.0,60.0,2.0,0.0
203,66.0,320.0,60.0,2.0,0.0
204,65.0,128.0,570.0,2.0,0.0
205,82.0,0.0,510.0,0.0,0.0
206,71.0,0.0,510.0,1.0,0.0
207,63.0,128.0,120.0,2.0,0.0
208,65.0,512.0,120.0,2.0,0.0
209,39.0,0.0,1020.0,4.0,0.0
210,70.0,512.0,510.0,1.0,0.0
211,78.0,0.0,1020.0,0.0,0.0
212,51.0,512.0,1020.0,3.0,0.0
213,66.0,0.0,1530.0,2.0,0.0
214,75.0,512.0,1020.0,1.0,0.0
215,34.0,512.0,1020.0,4.0,0.0
216,46.0,0.0,1020.0,3.0,0.0
217,73.0,512.0,1020.0,1.0,0.0
218,64.0,0.0,510.0,2.0,0.0
219,47.0,0.0,1020.0,3.0,0.0
220,78.0,0.0,1020.0,0.0,0.0
221,35.0,0.0,1020.0,4.0,0.0
222,63.0,512.0,1020.0,2.0,0.0
223,28.0,0.0,1020.0,4.0,0.0
224,40.0,0.0,1020.0,3.0,0.0
225,64.0,128.0,780.0,2.0,0.0
226,71.0,256.0,15.0,1.0,0.0
227,66.0,128.0,120.0,2.0,0.0
228,63.0,0.0,120.0,2.0,0.0
229,42.0,0.0,2040.0,3.0,0.0
230,63.0,64.0,120.0,2.0,0.0
231,30.0,0.0,2040.0,4.0,0.0
232,80.0,128.0,15.0,0.0,0.0
233,61.0,128.0,120.0,2.0,0.0
234,78.0,0.0,180.0,0.0,0.0
235,63.0,128.0,120.0,2.0,0.0
236,80.0,512.0,120.0,0.0,0.0
237,61.0,256.0,1140.0,2.0,0.0
238,78.0,0.0,1020.0,0.0,0.0
239,71.0,512.0,510.0,1.0,0.0
240,70.0,0.0,1020.0,1.0,0.0
241,59.0,256.0,270.0,2.0,0.0
242,76.0,1024.0,510.0,0.0,0.0
243,61.0,0.0,270.0,2.0,0.0
244,71.0,0.0,1020.0,1.0,0.0
245,47.0,512.0,1020.0,3.0,0.0
246,59.0,0.0,4110.0,2.0,0.0
247,35.0,0.0,1020.0,4.0,0.0
248,75.0,256.0,1530.0,0.0,0.0
249,37.0,0.0,1020.0,4.0,0.0
250,70.0,128.0,780.0,1.0,0.0
251,49.0,0.0,1020.0,3.0,0.0
252,76.0,1024.0,510.0,0.0,0.0
253,71.0,128.0,120.0,1.0,0.0
254,68.0,0.0,120.0,1.0,0.0
255,66.0,768.0,1020.0,1.0,0.0
256,51.0,0.0,1020.0,3.0,0.0
257,39.0,0.0,1020.0,4.0,0.0
258,78.0,0.0,2040.0,0.0,0.0
259,40.0,128.0,1020.0,4.0,0.0
260,52.0,0.0,1020.0,3.0,0.0
261,68.0,256.0,780.0,1.0,0.0
262,70.0,0.0,270.0,1.0,0.0
263,76.0,512.0,510.0,0.0,0.0
264,49.0,0.0,1020.0,3.0,0.0
265,71.0,128.0,120.0,1.0,0.0
266,37.0,0.0,1020.0,4.0,0.0
267,70.0,128.0,120.0,1.0,0.0
268,71.0,128.0,120.0,1.0,0.0
269,70.0,256.0,1140.0,1.0,0.0
270,75.0,512.0,510.0,0.0,0.0
271,76.0,0.0,510.0,0.0,0.0
272,54.0,0.0,1020.0,3.0,0.0
273,42.0,0.0,1020.0,4.0,0.0
274,78.0,1024.0,510.0,0.0,0.0
275,68.0,256.0,270.0,1.0,0.0
276,70.0,0.0,270.0,1.0,0.0
277,71.0,256.0,1530.0,1.0,0.0
278,75.0,0.0,1020.0,0.0,0.0
279,59.0,0.0,1020.0,3.0,0.0
280,47.0,512.0,1020.0,4.0,0.0
281,63.0,256.0,1020.0,3.0,0.0
282,51.0,0.0,1020.0,4.0,0.0
283,73.0,256.0,270.0,1.0,0.0
284,71.0,0.0,270.0,1.0,0.0
285,61.0,0.0,510.0,3.0,0.0
286,70.0,256.0,270.0,1.0,0.0
287,49.0,0.0,510.0,4.0,0.0
288,71.0,512.0,270.0,1.0,0.0
289,47.0,0.0,510.0,4.0,0.0
290,59.0,0.0,510.0,3.0,0.0
291,68.0,256.0,510.0,1.0,0.0
292,46.0,0.0,1020.0,4.0,0.0
293,66.0,256.0,270.0,1.0,0.0
294,58.0,0.0,1020.0,3.0,0.0
295,73.0,512.0,1020.0,0.0,0.0
296,68.0,512.0,270.0,1.0,0.0
297,70.0,256.0,1020.0,1.0,0.0
298,47.0,0.0,1020.0,4.0,0.0
299,59.0,0.0,1020.0,3.0,0.0
300,75.0,256.0,780.0,0.0,0.0
301,68.0,256.0,1020.0,1.0,0.0
302,77.0,64.0,270.0,0.0,0.0
303,49.0,0.0,2040.0,4.0,0.0
304,61.0,512.0,2040.0,3.0,0.0
305,78.0,64.0,60.0,0.0,0.0
306,77.0,64.0,60.0,0.0,0.0
307,78.0,320.0,60.0,0.0,0.0
308,77.0,128.0,570.0,0.0,0.0
309,71.0,0.0,510.0,1.0,0.0
310,75.0,128.0,120.0,0.0,0.0
311,77.0,512.0,120.0,0.0,0.0
312,78.0,0.0,1530.0,0.0,0.0
313,70.0,512.0,510.0,1.0,0.0
314,71.0,0.0,510.0,1.0,0.0
315,73.0,0.0,1020.0,1.0,0.0
316,47.0,512.0,510.0,4.0,0.0
317,59.0,0.0,510.0,3.0,0.0
318,76.0,512.0,510.0,0.0,0.0
319,58.0,0.0,510.0,3.0,0.0
320,46.0,0.0,510.0,4.0,0.0
321,75.0,512.0,510.0,0.0,0.0
322,59.0,0.0,510.0,3.0,0.0
323,66.0,512.0,1530.0,1.0,0.0
324,47.0,0.0,510.0,4.0,0.0
325,61.0,512.0,510.0,3.0,0.0
326,49.0,0.0,510.0,4.0,0.0
327,73.0,0.0,510.0,0.0,0.0
328,46.0,0.0,510.0,4.0,0.0
329,76.0,0.0,510.0,0.0,0.0
330,58.0,0.0,510.0,3.0,0.0
331,66.0,0.0,1020.0,2.0,0.0
332,59.0,128.0,510.0,3.0,0.0
333,47.0,0.0,510.0,4.0,0.0
334,75.0,0.0,510.0,0.0,0.0
335,40.0,0.0,1020.0,4.0,0.0
336,52.0,0.0,1020.0,3.0,0.0
337,68.0,512.0,1020.0,2.0,0.0
338,75.0,128.0,120.0,0.0,0.0
339,73.0,128.0,120.0,0.0,0.0
340,75.0,128.0,120.0,0.0,0.0
341,73.0,256.0,1140.0,0.0,0.0
342,71.0,512.0,15.0,1.0,0.0
343,54.0,0.0,1020.0,3.0,0.0
344,70.0,0.0,1020.0,1.0,0.0
345,66.0,0.0,780.0,2.0,0.0
346,42.0,0.0,1020.0,4.0,0.0
347,71.0,128.0,270.0,0.0,0.0
348,73.0,256.0,270.0,0.0,0.0
349,68.0,128.0,120.0,2.0,0.0
350,64.0,0.0,15.0,2.0,0.0
351,71.0,0.0,510.0,1.0,0.0
352,47.0,0.0,1020.0,3.0,0.0
353,71.0,0.0,1020.0,0.0,0.0
354,35.0,512.0,1020.0,4.0,0.0
355,63.0,64.0,60.0,2.0,0.0
356,64.0,64.0,60.0,2.0,0.0
357,63.0,64.0,60.0,2.0,0.0
358,64.0,512.0,60.0,2.0,0.0
359,78.0,0.0,1020.0,1.0,0.0
360,63.0,512.0,1020.0,2.0,0.0
361,56.0,512.0,1020.0,3.0,0.0
362,44.0,0.0,1020.0,4.0,0.0
363,76.0,512.0,1020.0,1.0,0.0
364,64.0,0.0,510.0,2.0,0.0
365,39.0,0.0,1020.0,4.0,0.0
366,51.0,0.0,1020.0,3.0,0.0
367,78.0,512.0,510.0,0.0,0.0
368,75.0,256.0,1020.0,1.0,0.0
369,80.0,256.0,780.0,0.0,0.0
370,52.0,0.0,1020.0,3.0,0.0
371,40.0,0.0,1020.0,4.0,0.0
372,73.0,0.0,510.0,1.0,0.0
373,82.0,64.0,270.0,0.0,0.0
374,73.0,0.0,2040.0,1.0,0.0
375,66.0,0.0,15.0,2.0,0.0
376,49.0,0.0,1020.0,3.0,0.0
377,83.0,0.0,60.0,0.0,0.0
378,37.0,0.0,1020.0,4.0,0.0
379,82.0,64.0,60.0,0.0,0.0
380,64.0,0.0,60.0,2.0,0.0
381,66.0,320.0,60.0,2.0,0.0
382,83.0,0.0,60.0,0.0,0.0
383,82.0,256.0,1350.0,0.0,0.0
384,64.0,512.0,330.0,2.0,0.0
385,63.0,512.0,510.0,2.0,0.0
386,54.0,0.0,1020.0,3.0,0.0
387,42.0,512.0,1020.0,4.0,0.0
388,64.0,0.0,510.0,2.0,0.0
389,66.0,0.0,510.0,2.0,0.0
390,80.0,256.0,270.0,0.0,0.0
391,82.0,0.0,270.0,0.0,0.0
392,63.0,1024.0,2040.0,2.0,0.0
393,59.0,0.0,1020.0,3.0,0.0
394,71.0,512.0,510.0,1.0,0.0
395,83.0,512.0,1530.0,0.0,0.0
396,47.0,0.0,1020.0,4.0,0.0
397,73.0,512.0,510.0,1.0,0.0
398,56.0,0.0,1020.0,3.0,0.0
399,44.0,0.0,1020.0,4.0,0.0
400,75.0,0.0,1020.0,1.0,0.0
401,82.0,0.0,510.0,0.0,0.0
402,49.0,768.0,1020.0,4.0,0.0
403,80.0,0.0,1020.0,0.0,0.0
404,61.0,0.0,1020.0,3.0,0.0
405,77.0,0.0,1020.0,1.0,0.0
406,82.0,256.0,780.0,0.0,0.0
407,78.0,256.0,1530.0,1.0,0.0
408,42.0,128.0,1020.0,4.0,0.0
409,54.0,0.0,1020.0,3.0,0.0
410,61.0,0.0,1020.0,2.0,0.0
411,83.0,0.0,270.0,0.0,0.0
412,47.0,0.0,1020.0,3.0,0.0
413,82.0,128.0,120.0,0.0,0.0
414,63.0,256.0,780.0,2.0,0.0
415,35.0,0.0,1020.0,4.0,0.0
416,80.0,128.0,120.0,0.0,0.0
417,82.0,128.0,120.0,0.0,0.0
418,80.0,0.0,1140.0,0.0,0.0
419,75.0,64.0,510.0,1.0,0.0
420,65.0,0.0,270.0,2.0,0.0
421,37.0,0.0,1020.0,4.0,0.0
422,49.0,0.0,1020.0,3.0,0.0
423,66.0,64.0,60.0,2.0,0.0
424,73.0,256.0,510.0,1.0,0.0
425,65.0,64.0,60.0,2.0,0.0
426,66.0,320.0,60.0,2.0,0.0
427,65.0,128.0,570.0,2.0,0.0
428,82.0,512.0,510.0,0.0,0.0
429,71.0,0.0,510.0,1.0,0.0
430,63.0,128.0,120.0,2.0,0.0
431,65.0,0.0,120.0,2.0,0.0
432,70.0,512.0,510.0,1.0,0.0
433,39.0,0.0,1020.0,4.0,0.0
434,66.0,512.0,1530.0,2.0,0.0
435,78.0,512.0,1020.0,0.0,0.0
436,51.0,0.0,1020.0,3.0,0.0
437,75.0,0.0,1020.0,1.0,0.0
438,46.0,0.0,1020.0,3.0,0.0
439,34.0,512.0,1020.0,4.0,0.0
440,64.0,0.0,510.0,2.0,0.0
441,73.0,512.0,1020.0,1.0,0.0
442,47.0,0.0,1020.0,3.0,0.0
443,35.0,768.0,1020.0,4.0,0.0
444,63.0,0.0,1020.0,2.0,0.0
445,71.0,0.0,1530.0,1.0,0.0
446,66.0,0.0,510.0,0.0,0.0
447,68.0,128.0,780.0,0.0,0.0
448,40.0,0.0,1020.0,3.0,0.0
449,64.0,0.0,780.0,2.0,0.0
450,28.0,0.0,1020.0,4.0,0.0
451,66.0,128.0,120.0,2.0,0.0
452,70.0,128.0,270.0,0.0,0.0
453,68.0,0.0,120.0,2.0,0.0
454,63.0,128.0,120.0,2.0,0.0
455,30.0,512.0,2040.0,4.0,0.0
456,66.0,512.0,1020.0,1.0,0.0
457,71.0,0.0,120.0,0.0,0.0
458,42.0,0.0,2040.0,3.0,0.0
459,70.0,0.0,120.0,0.0,0.0
460,61.0,128.0,120.0,2.0,0.0
461,63.0,0.0,120.0,2.0,0.0
462,71.0,640.0,120.0,0.0,0.0
463,61.0,256.0,1140.0,2.0,0.0
464,70.0,0.0,1140.0,0.0,0.0
465,64.0,0.0,1020.0,1.0,0.0
466,68.0,256.0,270.0,0.0,0.0
467,59.0,0.0,510.0,2.0,0.0
468,70.0,0.0,270.0,0.0,0.0
469,63.0,512.0,510.0,1.0,0.0
470,71.0,512.0,1530.0,0.0,0.0
471,47.0,512.0,1020.0,3.0,0.0
472,59.0,0.0,2040.0,2.0,0.0
473,35.0,0.0,1020.0,4.0,0.0
474,68.0,0.0,1020.0,1.0,0.0
475,32.0,0.0,1020.0,4.0,0.0
476,44.0,0.0,1020.0,3.0,0.0
477,69.0,512.0,510.0,0.0,0.0
478,66.0,512.0,1020.0,1.0,0.0
479,49.0,0.0,1020.0,3.0,0.0
480,37.0,512.0,1020.0,4.0,0.0
481,68.0,0.0,1020.0,0.0,0.0
482,65.0,0.0,510.0,1.0,0.0
483,30.0,0.0,1020.0,4.0,0.0
484,69.0,256.0,510.0,0.0,0.0
485,42.0,0.0,1020.0,3.0,0.0
486,66.0,0.0,1020.0,1.0,0.0
487,71.0,256.0,270.0,0.0,0.0
488,73.0,512.0,270.0,0.0,0.0
489,68.0,128.0,510.0,0.0,0.0
490,34.0,0.0,1020.0,4.0,0.0
491,46.0,0.0,1020.0,3.0,0.0
492,66.0,128.0,120.0,0.0,0.0
493,66.0,512.0,1020.0,1.0,0.0
494,68.0,128.0,120.0,0.0,0.0
495,66.0,128.0,120.0,0.0,0.0
496,68.0,512.0,120.0,0.0,0.0
497,66.0,0.0,1020.0,0.0,0.0
498,48.0,0.0,1020.0,3.0,0.0
499,36.0,512.0,1020.0,4.0,0.0
500,64.0,512.0,1020.0,1.0,0.0
501,49.0,512.0,1530.0,3.0,0.0
502,64.0,512.0,1020.0,0.0,0.0
503,37.0,0.0,1530.0,4.0,0.0
504,56.0,0.0,510.0,1.0,0.0
505,61.0,0.0,510.0,1.0,0.0
506,35.0,0.0,510.0,4.0,0.0
507,63.0,512.0,510.0,1.0,0.0
508,47.0,0.0,510.0,3.0,0.0
509,34.0,0.0,1020.0,4.0,0.0
510,73.0,512.0,1020.0,0.0,0.0
511,46.0,0.0,1020.0,3.0,0.0
512,64.0,512.0,510.0,1.0,0.0
513,66.0,0.0,510.0,1.0,0.0
514,59.0,256.0,510.0,1.0,0.0
515,47.0,0.0,1020.0,3.0,0.0
516,35.0,0.0,1020.0,4.0,0.0
517,75.0,256.0,780.0,0.0,0.0
518,71.0,512.0,1020.0,1.0,0.0
519,77.0,192.0,270.0,0.0,0.0
520,78.0,192.0,180.0,0.0,0.0
521,32.0,512.0,2040.0,4.0,0.0
522,44.0,0.0,2040.0,3.0,0.0
523,77.0,128.0,180.0,0.0,0.0
524,78.0,0.0,120.0,0.0,0.0
525,77.0,256.0,1020.0,0.0,0.0
526,75.0,512.0,510.0,1.0,0.0
527,73.0,0.0,510.0,1.0,0.0
528,71.0,0.0,510.0,1.0,0.0
529,75.0,256.0,270.0,0.0,0.0
530,77.0,0.0,270.0,0.0,0.0
531,30.0,512.0,1020.0,4.0,0.0
532,78.0,512.0,1530.0,0.0,0.0
533,42.0,0.0,1020.0,3.0,0.0
534,70.0,512.0,510.0,1.0,0.0
535,75.0,0.0,1020.0,1.0,0.0
536,54.0,0.0,1020.0,3.0,0.0
537,42.0,0.0,1020.0,4.0,0.0
538,73.0,512.0,1020.0,1.0,0.0
539,76.0,512.0,510.0,0.0,0.0
540,56.0,512.0,1020.0,3.0,0.0
541,75.0,0.0,1020.0,0.0,0.0
542,44.0,0.0,1020.0,4.0,0.0
543,72.0,0.0,510.0,1.0,0.0
544,73.0,0.0,510.0,1.0,0.0
545,37.0,0.0,510.0,4.0,0.0
546,49.0,256.0,510.0,3.0,0.0
547,76.0,0.0,510.0,0.0,0.0
548,51.0,0.0,510.0,3.0,0.0
549,78.0,256.0,270.0,0.0,0.0
550,71.0,512.0,1020.0,1.0,0.0
551,39.0,128.0,510.0,4.0,0.0
552,80.0,0.0,270.0,0.0,0.0
553,40.0,0.0,1020.0,4.0,0.0
554,52.0,512.0,1020.0,3.0,0.0
555,75.0,128.0,120.0,0.0,0.0
556,73.0,128.0,120.0,0.0,0.0
557,75.0,128.0,120.0,0.0,0.0
558,73.0,256.0,1140.0,0.0,0.0
559,71.0,0.0,510.0,1.0,0.0
560,54.0,0.0,1020.0,3.0,0.0
561,70.0,0.0,1020.0,1.0,0.0
562,42.0,0.0,1020.0,4.0,0.0
563,71.0,256.0,270.0,0.0,0.0
564,73.0,512.0,270.0,0.0,0.0
565,71.0,512.0,510.0,1.0,0.0
566,47.0,0.0,1020.0,4.0,0.0
567,59.0,1024.0,1020.0,3.0,0.0
568,71.0,0.0,1020.0,0.0,0.0
569,66.0,0.0,510.0,1.0,0.0
570,64.0,512.0,1020.0,3.0,0.0
571,68.0,0.0,1020.0,1.0,0.0
572,52.0,0.0,1020.0,4.0,0.0
573,66.0,128.0,780.0,1.0,0.0
574,51.0,256.0,510.0,4.0,0.0
575,63.0,0.0,510.0,3.0,0.0
576,61.0,512.0,510.0,3.0,0.0
577,49.0,0.0,510.0,4.0,0.0
578,68.0,128.0,120.0,1.0,0.0
579,64.0,0.0,120.0,1.0,0.0
580,63.0,512.0,510.0,1.0,0.0
581,78.0,0.0,1020.0,0.0,0.0
582,59.0,0.0,1020.0,3.0,0.0
583,47.0,512.0,1020.0,4.0,0.0
584,75.0,256.0,1020.0,1.0,0.0
585,52.0,0.0,1020.0,3.0,0.0
586,80.0,0.0,1020.0,0.0,0.0
587,40.0,512.0,1020.0,4.0,0.0
588,73.0,128.0,270.0,1.0,0.0
589,75.0,128.0,120.0,1.0,0.0
590,76.0,0.0,120.0,1.0,0.0
591,75.0,256.0,510.0,1.0,0.0
592,54.0,512.0,1020.0,3.0,0.0
593,42.0,0.0,1020.0,4.0,0.0
594,78.0,128.0,780.0,0.0,0.0
595,73.0,512.0,1020.0,1.0,0.0
596,80.0,128.0,120.0,0.0,0.0
597,76.0,0.0,120.0,0.0,0.0
598,35.0,0.0,7170.0,4.0,0.0
599,59.0,512.0,1020.0,2.0,0.0
600,75.0,0.0,1530.0,0.0,0.0
601,47.0,192.0,7170.0,3.0,0.0
602,71.0,0.0,510.0,1.0,0.0
603,70.0,512.0,510.0,1.0,0.0
604,61.0,1024.0,1020.0,2.0,0.0
605,68.0,0.0,510.0,1.0,0.0
606,76.0,0.0,510.0,0.0,0.0
607,78.0,128.0,2040.0,0.0,0.0
608,63.0,256.0,1020.0,2.0,0.0
609,66.0,0.0,1020.0,1.0,0.0
610,64.0,256.0,270.0,2.0,0.0
611,68.0,256.0,780.0,1.0,0.0
612,66.0,256.0,270.0,2.0,0.0
613,68.0,0.0,270.0,2.0,0.0
614,64.0,0.0,270.0,2.0,0.0
615,70.0,0.0,270.0,1.0,0.0
616,63.0,128.0,120.0,2.0,0.0
617,76.0,512.0,510.0,0.0,0.0
618,70.0,256.0,1530.0,1.0,0.0
619,61.0,128.0,120.0,2.0,0.0
620,63.0,128.0,120.0,2.0,0.0
621,61.0,512.0,1650.0,2.0,0.0
622,75.0,512.0,510.0,0.0,0.0
623,76.0,0.0,510.0,0.0,0.0
624,78.0,0.0,510.0,0.0,0.0
625,68.0,256.0,270.0,1.0,0.0
626,70.0,0.0,270.0,1.0,0.0
627,75.0,256.0,510.0,0.0,0.0
628,71.0,512.0,1530.0,1.0,0.0
629,63.0,256.0,780.0,2.0,0.0
630,78.0,0.0,510.0,0.0,0.0
631,64.0,0.0,270.0,2.0,0.0
632,80.0,0.0,510.0,0.0,0.0
633,63.0,192.0,180.0,2.0,0.0
634,28.0,0.0,1020.0,4.0,0.0
635,40.0,0.0,1020.0,3.0,0.0
636,61.0,128.0,180.0,2.0,0.0
637,63.0,0.0,120.0,2.0,0.0
638,61.0,256.0,1020.0,2.0,0.0
639,73.0,0.0,510.0,1.0,0.0
640,76.0,512.0,510.0,0.0,0.0
641,30.0,0.0,1020.0,4.0,0.0
642,70.0,0.0,1020.0,1.0,0.0
643,42.0,0.0,1020.0,3.0,0.0
644,73.0,0.0,780.0,0.0,0.0
645,59.0,128.0,270.0,2.0,0.0
646,61.0,0.0,270.0,2.0,0.0
647,75.0,128.0,120.0,0.0,0.0
648,76.0,768.0,120.0,0.0,0.0
649,59.0,0.0,1020.0,2.0,0.0
650,71.0,0.0,1020.0,1.0,0.0
651,47.0,192.0,1020.0,3.0,0.0
652,35.0,0.0,1020.0,4.0,0.0
653,75.0,256.0,780.0,0.0,0.0
654,77.0,0.0,270.0,0.0,0.0
655,49.0,512.0,2040.0,3.0,0.0
656,68.0,0.0,2040.0,1.0,0.0
657,78.0,192.0,180.0,0.0,0.0
658,37.0,0.0,2040.0,4.0,0.0
659,77.0,128.0,180.0,0.0,0.0
660,78.0,1024.0,120.0,0.0,0.0
661,77.0,256.0,1020.0,0.0,0.0
662,75.0,256.0,270.0,0.0,0.0
663,77.0,0.0,270.0,0.0,0.0
664,66.0,512.0,510.0,1.0,0.0
665,30.0,0.0,1020.0,4.0,0.0
666,42.0,512.0,1020.0,3.0,0.0
667,78.0,512.0,1530.0,0.0,0.0
668,68.0,0.0,510.0,1.0,0.0
669,70.0,0.0,1020.0,1.0,0.0
670,76.0,1024.0,510.0,0.0,0.0
671,75.0,0.0,1020.0,0.0,0.0
672,72.0,512.0,1020.0,1.0,0.0
673,76.0,256.0,510.0,0.0,0.0
674,73.0,0.0,510.0,1.0,0.0
675,49.0,0.0,1020.0,3.0,0.0
676,37.0,0.0,1020.0,4.0,0.0
677,78.0,256.0,270.0,0.0,0.0
678,80.0,128.0,270.0,0.0,0.0
679,41.0,0.0,1020.0,4.0,0.0
680,53.0,0.0,1020.0,3.0,0.0
681,75.0,128.0,120.0,0.0,0.0
682,73.0,128.0,120.0,0.0,0.0
683,75.0,128.0,120.0,0.0,0.0
684,73.0,256.0,1140.0,0.0,0.0
685,71.0,512.0,15.0,1.0,0.0
686,70.0,256.0,1530.0,1.0,0.0
687,43.0,0.0,1020.0,4.0,0.0
688,55.0,512.0,1020.0,3.0,0.0
689,71.0,256.0,270.0,0.0,0.0
690,73.0,0.0,270.0,0.0,0.0
691,44.0,0.0,2040.0,4.0,0.0
692,59.0,256.0,780.0,2.0,0.0
693,71.0,0.0,1020.0,0.0,0.0
694,56.0,0.0,2040.0,3.0,0.0
695,68.0,0.0,270.0,1.0,0.0
696,61.0,512.0,270.0,2.0,0.0
697,70.0,0.0,270.0,1.0,0.0
698,71.0,512.0,510.0,1.0,0.0
699,63.0,768.0,1020.0,2.0,0.0
700,75.0,0.0,510.0,1.0,0.0
701,73.0,128.0,780.0,1.0,0.0
702,49.0,0.0,1020.0,3.0,0.0
703,37.0,0.0,1020.0,4.0,0.0
704,65.0,512.0,1020.0,2.0,0.0
705,75.0,128.0,120.0,1.0,0.0
706,71.0,0.0,120.0,1.0,0.0
707,51.0,0.0,510.0,3.0,0.0
708,39.0,512.0,510.0,4.0,0.0
709,66.0,0.0,2040.0,2.0,0.0
710,70.0,512.0,1530.0,1.0,0.0
711,53.0,512.0,510.0,3.0,0.0
712,41.0,0.0,510.0,4.0,0.0
713,42.0,0.0,1020.0,4.0,0.0
714,54.0,0.0,1020.0,3.0,0.0
715,71.0,256.0,510.0,1.0,0.0
716,68.0,256.0,270.0,2.0,0.0
717,53.0,768.0,1020.0,3.0,0.0
718,41.0,0.0,1020.0,4.0,0.0
719,73.0,0.0,2040.0,1.0,0.0
720,66.0,512.0,270.0,2.0,0.0
721,68.0,0.0,510.0,2.0,0.0
722,63.0,128.0,780.0,2.0,0.0
723,42.0,0.0,1020.0,4.0,0.0
724,54.0,128.0,1020.0,3.0,0.0
725,65.0,128.0,120.0,2.0,0.0
726,66.0,0.0,15.0,2.0,0.0
727,44.0,0.0,1020.0,4.0,0.0
728,71.0,512.0,510.0,1.0,0.0
729,56.0,512.0,1020.0,3.0,0.0
730,65.0,128.0,120.0,2.0,0.0
731,66.0,128.0,120.0,2.0,0.0
732,65.0,256.0,1140.0,2.0,0.0
733,70.0,0.0,510.0,1.0,0.0
734,37.0,0.0,1020.0,4.0,0.0
735,71.0,0.0,510.0,1.0,0.0
736,49.0,0.0,1020.0,3.0,0.0
737,73.0,0.0,510.0,1.0,0.0
738,63.0,256.0,270.0,2.0,0.0
739,65.0,512.0,270.0,2.0,0.0
740,42.0,512.0,1020.0,4.0,0.0
741,66.0,0.0,1020.0,2.0,0.0
742,54.0,0.0,1020.0,3.0,0.0
743,70.0,512.0,510.0,1.0,0.0
744,73.0,512.0,1020.0,1.0,0.0
745,53.0,512.0,1020.0,3.0,0.0
746,41.0,0.0,1020.0,4.0,0.0
747,71.0,512.0,1020.0,1.0,0.0
748,42.0,0.0,1020.0,4.0,0.0
749,85.0,0.0,1020.0,0.0,0.0
750,54.0,512.0,1020.0,3.0,0.0
751,70.0,512.0,1020.0,1.0,0.0
752,59.0,0.0,1020.0,3.0,0.0
753,87.0,0.0,1020.0,0.0,0.0
754,47.0,512.0,1020.0,4.0,0.0
755,68.0,512.0,1020.0,1.0,0.0
756,58.0,0.0,1020.0,3.0,0.0
757,46.0,512.0,1020.0,4.0,0.0
758,85.0,0.0,1020.0,0.0,0.0
759,66.0,512.0,1020.0,1.0,0.0
760,83.0,0.0,1020.0,0.0,0.0
761,56.0,512.0,1020.0,3.0,0.0
762,44.0,0.0,1020.0,4.0,0.0
763,65.0,0.0,510.0,1.0,0.0
764,82.0,0.0,1530.0,0.0,0.0
765,66.0,512.0,510.0,1.0,0.0
766,54.0,0.0,1020.0,3.0,0.0
767,42.0,512.0,1020.0,4.0,0.0
768,78.0,512.0,1020.0,1.0,0.0
769,56.0,0.0,1020.0,3.0,0.0
770,44.0,0.0,1020.0,4.0,0.0
771,83.0,512.0,510.0,0.0,0.0
772,76.0,0.0,510.0,1.0,0.0
773,46.0,0.0,1020.0,4.0,0.0
774,75.0,512.0,510.0,1.0,0.0
775,58.0,0.0,1020.0,3.0,0.0
776,85.0,0.0,2040.0,0.0,0.0
777,73.0,768.0,510.0,1.0,0.0
778,63.0,256.0,780.0,2.0,0.0
779,59.0,512.0,1020.0,3.0,0.0
780,75.0,512.0,2040.0,1.0,0.0
781,47.0,0.0,1020.0,4.0,0.0
782,64.0,0.0,270.0,2.0,0.0
783,66.0,0.0,1020.0,2.0,0.0
784,83.0,512.0,510.0,0.0,0.0
785,51.0,0.0,1020.0,3.0,0.0
786,39.0,0.0,1020.0,4.0,0.0
787,82.0,0.0,510.0,0.0,0.0
788,73.0,0.0,2040.0,1.0,0.0
789,68.0,512.0,1020.0,2.0,0.0
790,41.0,0.0,1020.0,4.0,0.0
791,83.0,512.0,510.0,0.0,0.0
792,53.0,0.0,1020.0,3.0,0.0
793,85.0,0.0,510.0,0.0,0.0
794,82.0,256.0,510.0,0.0,0.0
795,54.0,0.0,1020.0,3.0,0.0
796,42.0,512.0,1020.0,4.0,0.0
797,66.0,512.0,1530.0,2.0,0.0
798,78.0,256.0,270.0,0.0,0.0
799,80.0,0.0,270.0,0.0,0.0
800,82.0,512.0,1020.0,0.0,0.0
801,51.0,0.0,1020.0,3.0,0.0
802,39.0,0.0,1020.0,4.0,0.0
803,64.0,0.0,510.0,2.0,0.0
804,56.0,0.0,1020.0,3.0,0.0
805,44.0,0.0,1020.0,4.0,0.0
806,66.0,512.0,510.0,2.0,0.0
807,84.0,512.0,1020.0,0.0,0.0
808,63.0,0.0,510.0,2.0,0.0
809,63.0,192.0,510.0,2.0,0.0
810,49.0,0.0,1020.0,3.0,0.0
811,37.0,64.0,1020.0,4.0,0.0
812,85.0,512.0,1530.0,0.0,0.0
813,64.0,192.0,180.0,2.0,0.0
814,82.0,0.0,1020.0,1.0,0.0
815,66.0,128.0,180.0,2.0,0.0
816,64.0,192.0,180.0,2.0,0.0
817,56.0,0.0,1020.0,3.0,0.0
818,44.0,512.0,1020.0,4.0,0.0
819,66.0,128.0,180.0,2.0,0.0
820,64.0,128.0,120.0,2.0,0.0
821,63.0,0.0,120.0,2.0,0.0
822,83.0,0.0,510.0,0.0,0.0
823,64.0,0.0,1530.0,2.0,0.0
824,80.0,512.0,1020.0,1.0,0.0
825,82.0,0.0,1020.0,0.0,0.0
826,49.0,0.0,1020.0,4.0,0.0
827,61.0,512.0,1020.0,3.0,0.0
828,79.0,0.0,510.0,1.0,0.0
829,47.0,0.0,510.0,4.0,0.0
830,83.0,256.0,780.0,0.0,0.0
831,80.0,0.0,2040.0,1.0,0.0
832,63.0,0.0,4110.0,2.0,0.0
833,59.0,256.0,510.0,3.0,0.0
834,56.0,0.0,510.0,3.0,0.0
835,44.0,0.0,510.0,4.0,0.0
836,85.0,192.0,270.0,0.0,0.0
837,51.0,0.0,1020.0,4.0,0.0
838,63.0,512.0,1020.0,3.0,0.0
839,83.0,192.0,180.0,0.0,0.0
840,82.0,128.0,180.0,0.0,0.0
841,83.0,512.0,120.0,0.0,0.0
842,82.0,256.0,1020.0,0.0,0.0
843,39.0,256.0,1020.0,4.0,0.0
844,51.0,0.0,1020.0,3.0,0.0
845,79.0,0.0,1020.0,1.0,0.0
846,80.0,256.0,270.0,0.0,0.0
847,82.0,0.0,270.0,0.0,0.0
848,44.0,0.0,1020.0,3.0,0.0
849,80.0,256.0,270.0,0.0,0.0
850,80.0,512.0,510.0,1.0,0.0
851,32.0,512.0,1020.0,4.0,0.0
852,75.0,0.0,270.0,0.0,0.0
853,80.0,512.0,1020.0,0.0,0.0
854,72.0,0.0,510.0,1.0,0.0
855,34.0,512.0,1020.0,4.0,0.0
856,73.0,0.0,1020.0,1.0,0.0
857,46.0,0.0,1020.0,3.0,0.0
858,78.0,256.0,1020.0,0.0,0.0
859,48.0,512.0,1020.0,3.0,0.0
860,75.0,512.0,1530.0,1.0,0.0
861,36.0,0.0,1020.0,4.0,0.0
862,77.0,256.0,270.0,0.0,0.0
863,75.0,0.0,270.0,0.0,0.0
864,77.0,0.0,1530.0,0.0,0.0
865,49.0,0.0,1530.0,3.0,0.0
866,37.0,256.0,1530.0,4.0,0.0
867,68.0,512.0,510.0,1.0,0.0
868,73.0,256.0,1530.0,1.0,0.0
869,47.0,0.0,510.0,3.0,0.0
870,35.0,512.0,510.0,4.0,0.0
871,79.0,256.0,270.0,0.0,0.0
872,80.0,0.0,270.0,0.0,0.0
873,79.0,0.0,1020.0,0.0,0.0
874,46.0,0.0,1020.0,3.0,0.0
875,34.0,0.0,1020.0,4.0,0.0
876,75.0,256.0,270.0,1.0,0.0
877,76.0,256.0,270.0,1.0,0.0
878,47.0,0.0,1020.0,3.0,0.0
879,80.0,256.0,270.0,0.0,0.0
880,35.0,0.0,1020.0,4.0,0.0
881,75.0,512.0,1020.0,1.0,0.0
882,83.0,256.0,270.0,0.0,0.0
883,82.0,256.0,270.0,0.0,0.0
884,80.0,0.0,270.0,0.0,0.0
885,46.0,0.0,2040.0,3.0,0.0
886,34.0,0.0,2040.0,4.0,0.0
887,85.0,512.0,510.0,0.0,0.0
888,76.0,0.0,1020.0,1.0,0.0
889,82.0,768.0,510.0,0.0,0.0
890,79.0,0.0,1020.0,0.0,0.0
891,75.0,128.0,780.0,1.0,0.0
892,76.0,128.0,120.0,1.0,0.0
893,73.0,512.0,120.0,1.0,0.0
894,44.0,0.0,510.0,3.0,0.0
895,80.0,0.0,1020.0,0.0,0.0
896,32.0,512.0,510.0,4.0,0.0
897,72.0,512.0,1530.0,1.0,0.0
898,56.0,0.0,510.0,3.0,0.0
899,44.0,512.0,510.0,4.0,0.0
900,51.0,0.0,510.0,3.0,0.0
901,81.0,0.0,1020.0,0.0,0.0
902,39.0,0.0,510.0,4.0,0.0
903,49.0,0.0,510.0,3.0,0.0
904,37.0,512.0,510.0,4.0,0.0
905,73.0,0.0,510.0,1.0,0.0
906,48.0,0.0,510.0,3.0,0.0
907,80.0,128.0,780.0,0.0,0.0
908,36.0,256.0,510.0,4.0,0.0
909,75.0,512.0,2040.0,1.0,0.0
910,32.0,0.0,510.0,4.0,0.0
911,44.0,0.0,510.0,3.0,0.0
912,81.0,128.0,120.0,0.0,0.0
913,78.0,512.0,120.0,0.0,0.0
914,49.0,512.0,510.0,3.0,0.0
915,37.0,0.0,510.0,4.0,0.0
916,77.0,0.0,1530.0,0.0,0.0
917,44.0,0.0,510.0,4.0,0.0
918,56.0,0.0,510.0,3.0,0.0
919,73.0,0.0,510.0,1.0,0.0
920,61.0,512.0,510.0,3.0,0.0
921,49.0,0.0,510.0,4.0,0.0
922,70.0,0.0,510.0,1.0,0.0
923,78.0,0.0,510.0,0.0,0.0
924,42.0,512.0,510.0,4.0,0.0
925,54.0,0.0,510.0,3.0,0.0
926,41.0,0.0,510.0,4.0,0.0
927,53.0,512.0,510.0,3.0,0.0
928,71.0,0.0,510.0,1.0,0.0
929,80.0,512.0,2040.0,0.0,0.0
930,37.0,512.0,510.0,4.0,0.0
931,73.0,0.0,510.0,1.0,0.0
932,49.0,0.0,510.0,3.0,0.0
933,54.0,0.0,510.0,3.0,0.0
934,42.0,512.0,510.0,4.0,0.0
935,70.0,0.0,1020.0,1.0,0.0
936,52.0,0.0,510.0,3.0,0.0
937,40.0,0.0,510.0,4.0,0.0
938,73.0,0.0,1020.0,1.0,0.0
939,78.0,512.0,510.0,0.0,0.0
940,39.0,0.0,1020.0,4.0,0.0
941,51.0,0.0,1020.0,3.0,0.0
942,76.0,512.0,510.0,0.0,0.0
943,72.0,128.0,780.0,1.0,0.0
944,56.0,0.0,1020.0,3.0,0.0
945,78.0,256.0,510.0,0.0,0.0
946,44.0,0.0,1020.0,4.0,0.0
947,80.0,0.0,510.0,0.0,0.0
948,73.0,128.0,120.0,1.0,0.0
949,70.0,512.0,120.0,1.0,0.0
950,37.0,0.0,510.0,4.0,0.0
951,68.0,512.0,1530.0,1.0,0.0
952,68.0,0.0,1020.0,2.0,0.0
953,76.0,0.0,510.0,0.0,0.0
954,49.0,512.0,510.0,3.0,0.0
955,77.0,0.0,1020.0,0.0,0.0
956,49.0,512.0,510.0,4.0,0.0
957,61.0,0.0,510.0,3.0,0.0
958,59.0,0.0,510.0,3.0,0.0
959,47.0,0.0,510.0,4.0,0.0
960,62.0,512.0,1020.0,3.0,0.0
961,50.0,0.0,1020.0,4.0,0.0
962,69.0,512.0,510.0,1.0,0.0
963,78.0,0.0,510.0,0.0,0.0
964,68.0,0.0,15.0,2.0,0.0
965,71.0,512.0,2040.0,1.0,0.0
966,80.0,512.0,1530.0,0.0,0.0
967,41.0,0.0,510.0,4.0,0.0
968,53.0,512.0,510.0,3.0,0.0
969,42.0,0.0,1530.0,4.0,0.0
970,54.0,512.0,1530.0,3.0,0.0
971,61.0,0.0,2040.0,2.0,0.0
972,73.0,0.0,510.0,0.0,0.0
973,78.0,0.0,1020.0,0.0,0.0
974,69.0,0.0,510.0,1.0,0.0
975,52.0,0.0,510.0,3.0,0.0
976,40.0,0.0,510.0,4.0,0.0
977,68.0,512.0,510.0,1.0,0.0
978,51.0,0.0,1020.0,3.0,0.0
979,66.0,0.0,1020.0,2.0,0.0
980,39.0,512.0,1020.0,4.0,0.0
981,69.0,512.0,510.0,1.0,0.0
982,71.0,0.0,510.0,1.0,0.0
983,52.0,128.0,1020.0,3.0,0.0
984,68.0,256.0,510.0,1.0,0.0
985,80.0,0.0,1020.0,0.0,0.0
986,64.0,256.0,780.0,2.0,0.0
987,40.0,0.0,1020.0,4.0,0.0
988,73.0,512.0,1020.0,1.0,0.0
989,63.0,0.0,270.0,2.0,0.0
990,64.0,128.0,120.0,2.0,0.0
991,81.0,512.0,1020.0,0.0,0.0
992,42.0,0.0,1020.0,4.0,0.0
993,54.0,0.0,1020.0,3.0,0.0
994,63.0,128.0,120.0,2.0,0.0
995,64.0,128.0,120.0,2.0,0.0
996,63.0,256.0,1140.0,2.0,0.0
997,73.0,0.0,510.0,1.0,0.0
998,72.0,0.0,1020.0,1.0,0.0
999,56.0,0.0,1020.0,3.0,0.0
1000,80.0,0.0,780.0,0.0,0.0
1001,44.0,0.0,1020.0,4.0,0.0
1002,61.0,128.0,270.0,2.0,0.0
1003,63.0,512.0,270.0,2.0,0.0
1004,81.0,128.0,120.0,0.0,0.0
1005,78.0,0.0,120.0,0.0,0.0
1006,76.0,512.0,1530.0,0.0,0.0
1007,37.0,0.0,1530.0,4.0,0.0
1008,49.0,0.0,1530.0,3.0,0.0
1009,61.0,128.0,4110.0,2.0,0.0
1010,73.0,512.0,510.0,1.0,0.0
1011,68.0,512.0,510.0,1.0,0.0
1012,73.0,0.0,510.0,1.0,0.0
1013,51.0,512.0,510.0,3.0,0.0
1014,71.0,0.0,510.0,1.0,0.0
1015,78.0,0.0,510.0,0.0,0.0
1016,39.0,0.0,510.0,4.0,0.0
1017,80.0,0.0,2040.0,0.0,0.0
1018,69.0,512.0,510.0,1.0,0.0
1019,53.0,0.0,1020.0,3.0,0.0
1020,41.0,768.0,1020.0,4.0,0.0
1021,68.0,0.0,510.0,1.0,0.0
1022,70.0,256.0,780.0,1.0,0.0
1023,54.0,0.0,1020.0,3.0,0.0
1024,42.0,0.0,1020.0,4.0,0.0
1025,72.0,0.0,270.0,1.0,0.0
1026,51.0,0.0,1020.0,3.0,0.0
1027,39.0,512.0,1020.0,4.0,0.0
1028,73.0,128.0,120.0,1.0,0.0
1029,78.0,512.0,510.0,0.0,0.0
1030,72.0,128.0,120.0,1.0,0.0
1031,73.0,128.0,120.0,1.0,0.0
1032,72.0,256.0,1140.0,1.0,0.0
1033,76.0,0.0,510.0,0.0,0.0
1034,78.0,0.0,510.0,0.0,0.0
1035,44.0,0.0,1020.0,4.0,0.0
1036,56.0,0.0,1020.0,3.0,0.0
1037,80.0,512.0,510.0,0.0,0.0
1038,70.0,256.0,270.0,1.0,0.0
1039,72.0,0.0,270.0,1.0,0.0
1040,49.0,512.0,510.0,4.0,0.0
1041,61.0,0.0,510.0,3.0,0.0
1042,76.0,0.0,1020.0,0.0,0.0
1043,73.0,256.0,1530.0,1.0,0.0
1044,63.0,512.0,510.0,3.0,0.0
1045,51.0,0.0,510.0,4.0,0.0
1046,64.0,0.0,1020.0,3.0,0.0
1047,52.0,0.0,1020.0,4.0,0.0
1048,75.0,256.0,270.0,1.0,0.0
1049,73.0,256.0,270.0,1.0,0.0
1050,51.0,512.0,510.0,4.0,0.0
1051,71.0,256.0,270.0,1.0,0.0
1052,63.0,0.0,510.0,3.0,0.0
1053,73.0,0.0,270.0,1.0,0.0
1054,70.0,0.0,510.0,1.0,0.0
1055,61.0,256.0,510.0,3.0,0.0
1056,49.0,0.0,510.0,4.0,0.0
1057,68.0,256.0,270.0,1.0,0.0
1058,47.0,0.0,1020.0,4.0,0.0
1059,75.0,0.0,1020.0,0.0,0.0
1060,59.0,512.0,1020.0,3.0,0.0
1061,70.0,512.0,270.0,1.0,0.0
1062,71.0,256.0,1020.0,1.0,0.0
1063,76.0,256.0,780.0,0.0,0.0
1064,61.0,96.0,1020.0,3.0,0.0
1065,49.0,0.0,1020.0,4.0,0.0
1066,70.0,256.0,1020.0,1.0,0.0
1067,78.0,0.0,270.0,0.0,0.0
1068,51.0,512.0,2040.0,4.0,0.0
1069,63.0,0.0,2040.0,3.0,0.0
1070,80.0,96.0,90.0,0.0,0.0
1071,78.0,64.0,90.0,0.0,0.0
1072,80.0,256.0,60.0,0.0,0.0
1073,78.0,128.0,510.0,0.0,0.0
1074,73.0,512.0,510.0,1.0,0.0
1075,76.0,128.0,120.0,0.0,0.0
1076,78.0,0.0,120.0,0.0,0.0
1077,80.0,512.0,1530.0,0.0,0.0
1078,72.0,512.0,510.0,1.0,0.0
1079,73.0,0.0,510.0,1.0,0.0
1080,61.0,0.0,510.0,3.0,0.0
1081,75.0,0.0,1530.0,1.0,0.0
1082,49.0,0.0,510.0,4.0,0.0
1083,78.0,0.0,510.0,0.0,0.0
1084,60.0,0.0,510.0,3.0,0.0
1085,48.0,512.0,510.0,4.0,0.0
1086,49.0,512.0,510.0,4.0,0.0
1087,61.0,0.0,510.0,3.0,0.0
1088,76.0,256.0,1800.0,0.0,0.0
1089,47.0,0.0,510.0,4.0,0.0
1090,59.0,512.0,510.0,3.0,0.0
1091,68.0,0.0,510.0,1.0,0.0
1092,57.0,256.0,510.0,3.0,0.0
1093,45.0,0.0,510.0,4.0,0.0
1094,44.0,192.0,510.0,4.0,0.0
1095,56.0,0.0,510.0,3.0,0.0
1096,78.0,0.0,270.0,0.0,0.0
1097,76.0,192.0,180.0,0.0,0.0
1098,54.0,0.0,510.0,3.0,0.0
1099,42.0,512.0,510.0,4.0,0.0
1100,75.0,128.0,180.0,0.0,0.0
1101,76.0,0.0,120.0,0.0,0.0
1102,39.0,512.0,510.0,4.0,0.0
1103,75.0,256.0,1020.0,0.0,0.0
1104,73.0,0.0,15.0,1.0,0.0
1105,51.0,0.0,510.0,3.0,0.0
1106,72.0,0.0,1020.0,1.0,0.0
1107,44.0,0.0,510.0,4.0,0.0
1108,56.0,0.0,510.0,3.0,0.0
1109,73.0,256.0,270.0,0.0,0.0
1110,32.0,0.0,510.0,4.0,0.0
1111,44.0,512.0,510.0,3.0,0.0
1112,75.0,0.0,270.0,0.0,0.0
1113,49.0,512.0,1020.0,3.0,0.0
1114,73.0,512.0,510.0,0.0,0.0
1115,37.0,0.0,1020.0,4.0,0.0
1116,73.0,0.0,1020.0,1.0,0.0
1117,80.0,256.0,1020.0,0.0,0.0
1118,76.0,0.0,1020.0,1.0,0.0
1119,32.0,0.0,1020.0,4.0,0.0
1120,44.0,0.0,1020.0,3.0,0.0
1121,82.0,256.0,270.0,0.0,0.0
1122,83.0,768.0,270.0,0.0,0.0
1123,75.0,128.0,780.0,1.0,0.0
1124,34.0,0.0,1020.0,4.0,0.0
1125,85.0,0.0,1020.0,0.0,0.0
1126,64.0,512.0,1020.0,2.0,0.0
1127,46.0,0.0,1020.0,3.0,0.0
1128,76.0,128.0,120.0,1.0,0.0
1129,73.0,0.0,120.0,1.0,0.0
1130,35.0,512.0,1020.0,4.0,0.0
1131,71.0,512.0,510.0,1.0,0.0
1132,78.0,0.0,1020.0,0.0,0.0
1133,47.0,0.0,1020.0,3.0,0.0
1134,63.0,0.0,2040.0,2.0,0.0
1135,75.0,0.0,510.0,1.0,0.0
1136,40.0,512.0,1020.0,3.0,0.0
1137,80.0,0.0,1020.0,0.0,0.0
1138,28.0,0.0,1020.0,4.0,0.0
1139,68.0,512.0,510.0,1.0,0.0
1140,71.0,256.0,1020.0,1.0,0.0
1141,78.0,128.0,780.0,0.0,0.0
1142,61.0,512.0,1020.0,2.0,0.0
1143,30.0,0.0,1020.0,4.0,0.0
1144,42.0,0.0,1020.0,3.0,0.0
1145,70.0,0.0,510.0,1.0,0.0
1146,80.0,128.0,120.0,0.0,0.0
1147,76.0,0.0,120.0,0.0,0.0
1148,47.0,0.0,510.0,3.0,0.0
1149,71.0,512.0,1020.0,1.0,0.0
1150,35.0,512.0,510.0,4.0,0.0
1151,59.0,0.0,1530.0,2.0,0.0
1152,75.0,512.0,1530.0,0.0,0.0
1153,45.0,0.0,510.0,3.0,0.0
1154,33.0,0.0,510.0,4.0,0.0
1155,44.0,0.0,1020.0,3.0,0.0
1156,32.0,512.0,1020.0,4.0,0.0
1157,62.0,0.0,510.0,2.0,0.0
1158,77.0,0.0,510.0,0.0,0.0
1159,78.0,512.0,2550.0,0.0,0.0
1160,45.0,0.0,510.0,3.0,0.0
1161,33.0,0.0,510.0,4.0,0.0
1162,61.0,512.0,510.0,2.0,0.0
1163,44.0,0.0,510.0,3.0,0.0
1164,32.0,0.0,510.0,4.0,0.0
1165,59.0,768.0,510.0,2.0,0.0
1166,73.0,0.0,1020.0,1.0,0.0
1167,57.0,256.0,780.0,2.0,0.0
1168,42.0,0.0,1020.0,3.0,0.0
1169,30.0,0.0,1020.0,4.0,0.0
1170,59.0,128.0,270.0,2.0,0.0
1171,74.0,0.0,1020.0,1.0,0.0
1172,57.0,128.0,120.0,2.0,0.0
1173,35.0,0.0,1020.0,4.0,0.0
1174,47.0,0.0,1020.0,3.0,0.0
1175,56.0,128.0,120.0,2.0,0.0
1176,57.0,128.0,120.0,2.0,0.0
1177,56.0,256.0,1140.0,2.0,0.0
1178,80.0,512.0,510.0,0.0,0.0
1179,73.0,0.0,780.0,1.0,0.0
1180,77.0,0.0,1020.0,0.0,0.0
1181,37.0,0.0,1020.0,4.0,0.0
1182,49.0,512.0,1020.0,3.0,0.0
1183,54.0,128.0,270.0,2.0,0.0
1184,74.0,128.0,120.0,1.0,0.0
1185,56.0,0.0,270.0,2.0,0.0
1186,71.0,0.0,120.0,1.0,0.0
1187,70.0,256.0,1530.0,1.0,0.0
1188,54.0,0.0,2040.0,2.0,0.0
1189,30.0,512.0,1020.0,4.0,0.0
1190,78.0,512.0,510.0,0.0,0.0
1191,42.0,0.0,1020.0,3.0,0.0
1192,73.0,0.0,510.0,0.0,0.0
1193,54.0,96.0,1020.0,3.0,0.0
1194,75.0,256.0,780.0,0.0,0.0
1195,42.0,0.0,1020.0,4.0,0.0
1196,71.0,0.0,510.0,1.0,0.0
1197,76.0,0.0,270.0,0.0,0.0
1198,40.0,0.0,1020.0,4.0,0.0
1199,52.0,0.0,1020.0,3.0,0.0
1200,78.0,96.0,90.0,0.0,0.0
1201,73.0,512.0,2040.0,1.0,0.0
1202,76.0,64.0,90.0,0.0,0.0
1203,78.0,512.0,60.0,0.0,0.0
1204,76.0,128.0,510.0,0.0,0.0
1205,75.0,128.0,120.0,0.0,0.0
1206,76.0,1024.0,120.0,0.0,0.0
1207,51.0,512.0,2040.0,3.0,0.0
1208,78.0,0.0,1530.0,0.0,0.0
1209,39.0,0.0,2040.0,4.0,0.0
1210,71.0,512.0,510.0,1.0,0.0
1211,76.0,0.0,510.0,0.0,0.0
1212,70.0,0.0,510.0,1.0,0.0
1213,44.0,0.0,1530.0,4.0,0.0
1214,75.0,512.0,510.0,0.0,0.0
1215,71.0,0.0,510.0,1.0,0.0
1216,56.0,0.0,1530.0,3.0,0.0
1217,73.0,0.0,510.0,0.0,0.0
1218,73.0,512.0,510.0,1.0,0.0
1219,76.0,512.0,510.0,0.0,0.0
1220,70.0,0.0,510.0,1.0,0.0
1221,54.0,0.0,510.0,3.0,0.0
1222,75.0,512.0,510.0,0.0,0.0
1223,42.0,0.0,510.0,4.0,0.0
1224,73.0,512.0,1530.0,0.0,0.0
1225,52.0,512.0,1020.0,3.0,0.0
1226,40.0,0.0,1020.0,4.0,0.0
1227,71.0,512.0,15.0,1.0,0.0
1228,54.0,0.0,1020.0,3.0,0.0
1229,70.0,0.0,1020.0,1.0,0.0
1230,42.0,512.0,1020.0,4.0,0.0
1231,75.0,0.0,510.0,0.0,0.0
1232,35.0,0.0,9720.0,4.0,0.0
1233,47.0,512.0,9720.0,3.0,0.0
1234,71.0,0.0,510.0,1.0,0.0
1235,71.0,512.0,510.0,0.0,0.0
1236,63.0,512.0,510.0,1.0,0.0
1237,78.0,0.0,510.0,0.0,0.0
1238,80.0,0.0,1020.0,0.0,0.0
1239,64.0,512.0,510.0,1.0,0.0
1240,66.0,512.0,510.0,1.0,0.0
1241,78.0,128.0,780.0,0.0,0.0
1242,68.0,256.0,510.0,1.0,0.0
1243,70.0,0.0,510.0,1.0,0.0
1244,80.0,128.0,120.0,0.0,0.0
1245,76.0,512.0,120.0,0.0,0.0
1246,75.0,512.0,1530.0,0.0,0.0
1247,71.0,512.0,510.0,1.0,0.0
1248,54.0,512.0,1020.0,2.0,0.0
1249,73.0,0.0,510.0,1.0,0.0
1250,75.0,0.0,510.0,1.0,0.0
1251,59.0,0.0,1020.0,2.0,0.0
1252,73.0,0.0,510.0,1.0,0.0
1253,76.0,512.0,510.0,0.0,0.0
1254,71.0,512.0,510.0,1.0,0.0
1255,61.0,512.0,1020.0,2.0,0.0
1256,78.0,128.0,2040.0,0.0,0.0
1257,70.0,0.0,510.0,1.0,0.0
1258,71.0,256.0,510.0,1.0,0.0
1259,63.0,256.0,780.0,2.0,0.0
1260,66.0,0.0,510.0,1.0,0.0
1261,64.0,0.0,270.0,2.0,0.0
1262,66.0,128.0,120.0,2.0,0.0
1263,68.0,0.0,1020.0,1.0,0.0
1264,76.0,256.0,510.0,0.0,0.0
1265,64.0,128.0,120.0,2.0,0.0
1266,66.0,128.0,120.0,2.0,0.0
1267,64.0,0.0,1140.0,2.0,0.0
1268,75.0,256.0,270.0,0.0,0.0
1269,76.0,512.0,270.0,0.0,0.0
1270,66.0,0.0,510.0,1.0,0.0
1271,78.0,256.0,510.0,0.0,0.0
1272,64.0,512.0,510.0,1.0,0.0
1273,70.0,0.0,510.0,0.0,0.0
1274,63.0,256.0,270.0,2.0,0.0
1275,64.0,0.0,270.0,2.0,0.0
1276,63.0,0.0,1530.0,1.0,0.0
1277,66.0,0.0,1530.0,2.0,0.0
1278,71.0,512.0,3060.0,0.0,0.0
1279,49.0,512.0,510.0,3.0,0.0
1280,37.0,0.0,510.0,4.0,0.0
1281,51.0,512.0,510.0,3.0,0.0
1282,39.0,0.0,510.0,4.0,0.0
1283,49.0,0.0,510.0,3.0,0.0
1284,37.0,512.0,510.0,4.0,0.0
1285,64.0,0.0,510.0,1.0,0.0
1286,64.0,0.0,510.0,2.0,0.0
1287,47.0,512.0,510.0,3.0,0.0
1288,66.0,64.0,2040.0,1.0,0.0
1289,35.0,0.0,510.0,4.0,0.0
1290,63.0,0.0,1020.0,2.0,0.0
1291,34.0,0.0,510.0,4.0,0.0
1292,46.0,0.0,510.0,3.0,0.0
1293,44.0,0.0,2040.0,3.0,0.0
1294,32.0,0.0,2040.0,4.0,0.0
1295,73.0,256.0,510.0,0.0,0.0
1296,64.0,128.0,780.0,2.0,0.0
1297,71.0,0.0,510.0,0.0,0.0
1298,66.0,128.0,120.0,2.0,0.0
1299,64.0,512.0,510.0,1.0,0.0
1300,63.0,0.0,15.0,2.0,0.0
1301,70.0,0.0,3060.0,0.0,0.0
1302,61.0,64.0,60.0,2.0,0.0
1303,63.0,320.0,60.0,2.0,0.0
1304,61.0,0.0,1350.0,2.0,0.0
1305,63.0,512.0,510.0,1.0,0.0
1306,31.0,0.0,1020.0,4.0,0.0
1307,43.0,512.0,1020.0,3.0,0.0
1308,64.0,256.0,510.0,1.0,0.0
1309,59.0,256.0,270.0,2.0,0.0
1310,66.0,0.0,510.0,1.0,0.0
1311,61.0,0.0,270.0,2.0,0.0
1312,44.0,512.0,510.0,3.0,0.0
1313,63.0,512.0,1530.0,1.0,0.0
1314,32.0,0.0,510.0,4.0,0.0
1315,59.0,256.0,16890.0,2.0,0.0
1316,39.0,0.0,510.0,4.0,0.0
1317,51.0,512.0,510.0,3.0,0.0
1318,68.0,0.0,510.0,0.0,0.0
1319,56.0,0.0,1020.0,3.0,0.0
1320,44.0,512.0,1020.0,4.0,0.0
1321,70.0,0.0,510.0,0.0,0.0
1322,61.0,0.0,510.0,1.0,0.0
1323,54.0,0.0,510.0,3.0,0.0
1324,63.0,0.0,510.0,1.0,0.0
1325,71.0,0.0,510.0,0.0,0.0
1326,42.0,512.0,510.0,4.0,0.0
1327,64.0,512.0,510.0,1.0,0.0
1328,40.0,0.0,510.0,4.0,0.0
1329,73.0,0.0,510.0,0.0,0.0
1330,52.0,0.0,510.0,3.0,0.0
1331,51.0,0.0,1530.0,3.0,0.0
1332,39.0,0.0,1530.0,4.0,0.0
1333,75.0,512.0,510.0,0.0,0.0
1334,66.0,0.0,510.0,1.0,0.0
1335,68.0,0.0,510.0,1.0,0.0
1336,76.0,512.0,510.0,0.0,0.0
1337,69.0,0.0,510.0,1.0,0.0
1338,78.0,512.0,510.0,0.0,0.0
1339,80.0,0.0,510.0,0.0,0.0
1340,68.0,0.0,510.0,1.0,0.0
1341,52.0,0.0,510.0,3.0,0.0
1342,40.0,512.0,510.0,4.0,0.0
1343,81.0,512.0,510.0,0.0,0.0
1344,75.0,512.0,1530.0,1.0,0.0
1345,54.0,512.0,2040.0,3.0,0.0
1346,42.0,0.0,2040.0,4.0,0.0
1347,78.0,512.0,510.0,0.0,0.0
1348,80.0,512.0,1530.0,0.0,0.0
1349,71.0,0.0,510.0,1.0,0.0
1350,76.0,0.0,1020.0,1.0,0.0
1351,40.0,0.0,510.0,4.0,0.0
1352,52.0,0.0,510.0,3.0,0.0
1353,51.0,0.0,510.0,3.0,0.0
1354,39.0,0.0,510.0,4.0,0.0
1355,78.0,512.0,510.0,0.0,0.0
1356,40.0,0.0,510.0,4.0,0.0
1357,52.0,512.0,510.0,3.0,0.0
1358,75.0,0.0,510.0,1.0,0.0
1359,80.0,0.0,510.0,0.0,0.0
1360,82.0,0.0,510.0,0.0,0.0
1361,73.0,0.0,510.0,1.0,0.0
1362,42.0,512.0,510.0,4.0,0.0
1363,54.0,0.0,510.0,3.0,0.0
1364,71.0,0.0,510.0,1.0,0.0
1365,51.0,0.0,1020.0,3.0,0.0
1366,83.0,512.0,510.0,0.0,0.0
1367,39.0,0.0,1020.0,4.0,0.0
1368,78.0,0.0,510.0,0.0,0.0
1369,69.0,512.0,510.0,1.0,0.0
1370,52.0,512.0,1020.0,3.0,0.0
1371,80.0,0.0,1020.0,0.0,0.0
1372,40.0,0.0,1020.0,4.0,0.0
1373,68.0,512.0,510.0,1.0,0.0
1374,66.0,0.0,510.0,1.0,0.0
1375,28.0,512.0,1020.0,4.0,0.0
1376,78.0,128.0,780.0,0.0,0.0
1377,68.0,256.0,510.0,1.0,0.0
1378,40.0,0.0,1020.0,3.0,0.0
1379,70.0,0.0,510.0,1.0,0.0
1380,80.0,128.0,120.0,0.0,0.0
1381,76.0,0.0,120.0,0.0,0.0
1382,35.0,0.0,9210.0,4.0,0.0
1383,47.0,0.0,9210.0,3.0,0.0
1384,75.0,512.0,1530.0,0.0,0.0
1385,71.0,512.0,510.0,1.0,0.0
1386,66.0,512.0,510.0,1.0,0.0
1387,71.0,0.0,510.0,1.0,0.0
1388,73.0,1024.0,510.0,1.0,0.0
1389,76.0,0.0,510.0,0.0,0.0
1390,78.0,0.0,2040.0,0.0,0.0
1391,42.0,0.0,1020.0,4.0,0.0
1392,54.0,512.0,1020.0,3.0,0.0
1393,75.0,256.0,1530.0,1.0,0.0
1394,56.0,0.0,1020.0,3.0,0.0
1395,44.0,512.0,1020.0,4.0,0.0
1396,73.0,256.0,270.0,1.0,0.0
1397,71.0,0.0,270.0,1.0,0.0
1398,73.0,3072.0,2040.0,1.0,0.0
1399,66.0,0.0,2040.0,1.0,0.0
1400,58.0,0.0,2040.0,3.0,0.0
1401,46.0,0.0,2040.0,4.0,0.0
1402,76.0,0.0,510.0,0.0,0.0
1403,58.0,256.0,270.0,2.0,0.0
1404,75.0,0.0,510.0,0.0,0.0
1405,56.0,256.0,270.0,2.0,0.0
1406,54.0,256.0,270.0,2.0,0.0
1407,76.0,0.0,510.0,0.0,0.0
1408,52.0,256.0,270.0,2.0,0.0
1409,51.0,256.0,270.0,2.0,0.0
1410,78.0,0.0,510.0,0.0,0.0
1411,49.0,0.0,270.0,2.0,0.0
1412,59.0,0.0,3060.0,3.0,0.0
1413,47.0,0.0,3060.0,2.0,0.0
1414,75.0,0.0,3060.0,0.0,0.0
1415,47.0,0.0,3060.0,4.0,0.0
1416,75.0,0.0,3060.0,1.0,0.0
