,note,step,duration,channel,velocity
0,51.0,0.0,120.0,8.0,0.0
1,51.0,75.0,120.0,5.0,0.0
2,42.0,0.0,120.0,5.0,0.0
3,63.0,30.0,60.0,0.0,0.0
4,51.0,0.0,120.0,4.0,0.0
5,42.0,0.0,120.0,8.0,0.0
6,58.0,11.0,120.0,3.0,0.0
7,63.0,0.0,60.0,6.0,0.0
8,65.0,0.0,30.0,6.0,0.0
9,65.0,15.0,30.0,0.0,0.0
10,66.0,0.0,30.0,6.0,0.0
11,66.0,64.0,30.0,0.0,0.0
12,46.0,0.0,120.0,5.0,0.0
13,65.0,30.0,60.0,6.0,0.0
14,58.0,11.0,120.0,3.0,0.0
15,46.0,0.0,120.0,8.0,0.0
16,50.0,0.0,120.0,4.0,0.0
17,65.0,0.0,60.0,0.0,0.0
18,66.0,15.0,30.0,6.0,0.0
19,66.0,0.0,30.0,0.0,0.0
20,68.0,0.0,30.0,0.0,0.0
21,68.0,109.0,30.0,6.0,0.0
22,66.0,0.0,180.0,0.0,0.0
23,39.0,60.0,120.0,8.0,0.0
24,51.0,0.0,180.0,4.0,0.0
25,66.0,60.0,180.0,6.0,0.0
26,39.0,0.0,120.0,5.0,0.0
27,58.0,0.0,360.0,3.0,0.0
28,51.0,7.0,120.0,8.0,0.0
29,51.0,0.0,120.0,5.0,0.0
30,65.0,113.0,60.0,0.0,0.0
31,53.0,0.0,60.0,4.0,0.0
32,65.0,0.0,60.0,6.0,0.0
33,63.0,0.0,120.0,0.0,0.0
34,49.0,0.0,120.0,5.0,0.0
35,63.0,120.0,120.0,6.0,0.0
36,54.0,0.0,240.0,4.0,0.0
37,49.0,0.0,120.0,8.0,0.0
38,48.0,0.0,180.0,8.0,0.0
39,56.0,60.0,120.0,3.0,0.0
40,48.0,33.0,180.0,5.0,0.0
41,68.0,27.0,90.0,0.0,0.0
42,68.0,0.0,90.0,6.0,0.0
43,53.0,7.0,120.0,4.0,0.0
44,58.0,53.0,540.0,3.0,0.0
45,50.0,0.0,60.0,5.0,0.0
46,50.0,4.0,60.0,8.0,0.0
47,70.0,0.0,30.0,6.0,0.0
48,70.0,82.0,30.0,0.0,0.0
49,66.0,27.0,90.0,0.0,0.0
50,66.0,0.0,90.0,6.0,0.0
51,51.0,0.0,240.0,4.0,0.0
52,51.0,11.0,120.0,5.0,0.0
53,51.0,0.0,120.0,8.0,0.0
54,65.0,109.0,30.0,6.0,0.0
55,65.0,0.0,30.0,0.0,0.0
56,65.0,67.0,240.0,0.0,0.0
57,46.0,0.0,120.0,8.0,0.0
58,46.0,120.0,120.0,5.0,0.0
59,65.0,0.0,240.0,6.0,0.0
60,44.0,0.0,120.0,5.0,0.0
61,50.0,0.0,120.0,4.0,0.0
62,44.0,0.0,120.0,8.0,0.0
63,42.0,0.0,120.0,5.0,0.0
64,51.0,7.0,120.0,4.0,0.0
65,42.0,0.0,120.0,8.0,0.0
66,60.0,60.0,60.0,3.0,0.0
67,41.0,0.0,120.0,8.0,0.0
68,62.0,53.0,60.0,3.0,0.0
69,56.0,0.0,120.0,4.0,0.0
70,41.0,7.0,120.0,5.0,0.0
71,63.0,60.0,60.0,3.0,0.0
72,53.0,0.0,120.0,4.0,0.0
73,38.0,7.0,120.0,5.0,0.0
74,38.0,0.0,120.0,8.0,0.0
75,65.0,0.0,120.0,3.0,0.0
76,71.0,0.0,60.0,6.0,0.0
77,71.0,53.0,60.0,0.0,0.0
78,70.0,0.0,60.0,0.0,0.0
79,70.0,34.0,60.0,6.0,0.0
80,58.0,60.0,300.0,3.0,0.0
81,39.0,13.0,120.0,5.0,0.0
82,68.0,0.0,30.0,0.0,0.0
83,39.0,0.0,120.0,8.0,0.0
84,51.0,3.0,240.0,4.0,0.0
85,68.0,30.0,30.0,6.0,0.0
86,66.0,0.0,30.0,6.0,0.0
87,66.0,30.0,30.0,0.0,0.0
88,65.0,0.0,30.0,0.0,0.0
89,65.0,17.0,30.0,6.0,0.0
90,66.0,0.0,15.0,0.0,0.0
91,66.0,2.0,15.0,6.0,0.0
92,63.0,0.0,15.0,0.0,0.0
93,63.0,15.0,15.0,6.0,0.0
94,34.0,0.0,120.0,5.0,0.0
95,65.0,0.0,15.0,6.0,0.0
96,65.0,15.0,15.0,0.0,0.0
97,34.0,0.0,120.0,8.0,0.0
98,63.0,0.0,15.0,6.0,0.0
99,63.0,77.0,15.0,0.0,0.0
100,65.0,57.0,90.0,0.0,0.0
101,65.0,0.0,90.0,6.0,0.0
102,58.0,0.0,120.0,0.0,0.0
103,50.0,7.0,120.0,4.0,0.0
104,46.0,0.0,120.0,5.0,0.0
105,46.0,0.0,120.0,8.0,0.0
106,58.0,0.0,120.0,6.0,0.0
107,58.0,60.0,60.0,3.0,0.0
108,60.0,53.0,60.0,3.0,0.0
109,44.0,0.0,120.0,8.0,0.0
110,44.0,7.0,120.0,5.0,0.0
111,51.0,0.0,60.0,4.0,0.0
112,53.0,0.0,60.0,4.0,0.0
113,62.0,60.0,60.0,3.0,0.0
114,63.0,60.0,60.0,3.0,0.0
115,42.0,7.0,180.0,8.0,0.0
116,54.0,0.0,60.0,4.0,0.0
117,42.0,0.0,180.0,5.0,0.0
118,65.0,53.0,60.0,3.0,0.0
119,56.0,0.0,60.0,4.0,0.0
120,58.0,0.0,60.0,4.0,0.0
121,66.0,60.0,60.0,3.0,0.0
122,56.0,0.0,60.0,4.0,0.0
123,44.0,0.0,60.0,5.0,0.0
124,65.0,0.0,60.0,3.0,0.0
125,44.0,60.0,60.0,8.0,0.0
126,46.0,0.0,120.0,8.0,0.0
127,63.0,0.0,60.0,3.0,0.0
128,46.0,7.0,120.0,5.0,0.0
129,54.0,53.0,60.0,4.0,0.0
130,62.0,60.0,60.0,3.0,0.0
131,53.0,0.0,60.0,4.0,0.0
132,39.0,7.0,120.0,8.0,0.0
133,54.0,0.0,120.0,4.0,0.0
134,63.0,53.0,60.0,3.0,0.0
135,63.0,0.0,360.0,7.0,0.0
136,63.0,0.0,360.0,1.0,0.0
137,39.0,0.0,120.0,5.0,0.0
138,61.0,60.0,60.0,3.0,0.0
139,56.0,0.0,120.0,4.0,0.0
140,59.0,53.0,60.0,3.0,0.0
141,41.0,0.0,120.0,5.0,0.0
142,41.0,7.0,120.0,8.0,0.0
143,58.0,60.0,60.0,3.0,0.0
144,56.0,53.0,60.0,3.0,0.0
145,43.0,0.0,120.0,5.0,0.0
146,51.0,60.0,180.0,4.0,0.0
147,43.0,7.0,120.0,8.0,0.0
148,58.0,60.0,60.0,3.0,0.0
149,65.0,0.0,360.0,1.0,0.0
150,44.0,7.0,180.0,5.0,0.0
151,59.0,0.0,180.0,3.0,0.0
152,44.0,0.0,180.0,8.0,0.0
153,65.0,7.0,360.0,7.0,0.0
154,54.0,53.0,60.0,4.0,0.0
155,53.0,60.0,60.0,4.0,0.0
156,42.0,60.0,60.0,8.0,0.0
157,51.0,0.0,60.0,4.0,0.0
158,42.0,0.0,60.0,5.0,0.0
159,59.0,0.0,60.0,3.0,0.0
160,58.0,53.0,60.0,3.0,0.0
161,50.0,0.0,120.0,4.0,0.0
162,41.0,0.0,120.0,5.0,0.0
163,41.0,0.0,120.0,8.0,0.0
164,56.0,60.0,60.0,3.0,0.0
165,54.0,53.0,60.0,3.0,0.0
166,51.0,0.0,60.0,4.0,0.0
167,66.0,0.0,360.0,7.0,0.0
168,39.0,0.0,120.0,8.0,0.0
169,66.0,7.0,360.0,1.0,0.0
170,39.0,7.0,120.0,5.0,0.0
171,53.0,0.0,60.0,4.0,0.0
172,56.0,60.0,60.0,3.0,0.0
173,54.0,53.0,60.0,4.0,0.0
174,51.0,7.0,120.0,8.0,0.0
175,58.0,0.0,240.0,3.0,0.0
176,51.0,0.0,120.0,5.0,0.0
177,56.0,60.0,60.0,4.0,0.0
178,49.0,0.0,120.0,5.0,0.0
179,49.0,0.0,120.0,8.0,0.0
180,54.0,53.0,60.0,4.0,0.0
181,52.0,60.0,60.0,4.0,0.0
182,47.0,0.0,180.0,8.0,0.0
183,66.0,7.0,360.0,7.0,0.0
184,47.0,0.0,180.0,5.0,0.0
185,66.0,0.0,360.0,1.0,0.0
186,59.0,60.0,60.0,3.0,0.0
187,51.0,7.0,180.0,4.0,0.0
188,64.0,53.0,60.0,3.0,0.0
189,63.0,60.0,60.0,3.0,0.0
190,49.0,60.0,60.0,5.0,0.0
191,52.0,0.0,60.0,4.0,0.0
192,61.0,0.0,60.0,3.0,0.0
193,49.0,0.0,60.0,8.0,0.0
194,59.0,53.0,60.0,3.0,0.0
195,51.0,0.0,120.0,8.0,0.0
196,51.0,0.0,120.0,5.0,0.0
197,54.0,53.0,180.0,4.0,0.0
198,58.0,60.0,60.0,3.0,0.0
199,41.0,7.0,120.0,8.0,0.0
200,41.0,0.0,120.0,5.0,0.0
201,56.0,7.0,240.0,3.0,0.0
202,68.0,7.0,360.0,1.0,0.0
203,68.0,0.0,360.0,7.0,0.0
204,53.0,60.0,60.0,4.0,0.0
205,48.0,0.0,120.0,5.0,0.0
206,48.0,0.0,120.0,8.0,0.0
207,51.0,53.0,60.0,4.0,0.0
208,50.0,60.0,60.0,4.0,0.0
209,50.0,0.0,120.0,5.0,0.0
210,51.0,53.0,60.0,4.0,0.0
211,58.0,6.0,180.0,3.0,0.0
212,50.0,0.0,120.0,8.0,0.0
213,53.0,21.0,60.0,4.0,0.0
214,51.0,0.0,180.0,8.0,0.0
215,51.0,7.0,180.0,5.0,0.0
216,66.0,15.0,15.0,1.0,0.0
217,54.0,0.0,180.0,4.0,0.0
218,66.0,0.0,15.0,7.0,0.0
219,68.0,15.0,15.0,7.0,0.0
220,68.0,0.0,15.0,1.0,0.0
221,66.0,0.0,15.0,1.0,0.0
222,66.0,9.0,15.0,7.0,0.0
223,68.0,15.0,15.0,1.0,0.0
224,68.0,0.0,15.0,7.0,0.0
225,66.0,0.0,15.0,7.0,0.0
226,58.0,6.0,60.0,3.0,0.0
227,66.0,15.0,15.0,1.0,0.0
228,68.0,0.0,15.0,7.0,0.0
229,68.0,15.0,15.0,1.0,0.0
230,66.0,0.0,15.0,1.0,0.0
231,66.0,9.0,15.0,7.0,0.0
232,68.0,15.0,15.0,1.0,0.0
233,68.0,0.0,15.0,7.0,0.0
234,60.0,6.0,60.0,3.0,0.0
235,66.0,0.0,15.0,7.0,0.0
236,66.0,15.0,15.0,1.0,0.0
237,68.0,15.0,15.0,7.0,0.0
238,68.0,0.0,15.0,1.0,0.0
239,66.0,2.0,15.0,7.0,0.0
240,66.0,0.0,15.0,1.0,0.0
241,68.0,15.0,15.0,7.0,0.0
242,68.0,0.0,15.0,1.0,0.0
243,66.0,15.0,15.0,1.0,0.0
244,53.0,6.0,60.0,4.0,0.0
245,61.0,0.0,60.0,3.0,0.0
246,49.0,0.0,60.0,8.0,0.0
247,49.0,0.0,60.0,5.0,0.0
248,66.0,0.0,15.0,7.0,0.0
249,68.0,15.0,15.0,7.0,0.0
250,68.0,0.0,15.0,1.0,0.0
251,66.0,9.0,15.0,1.0,0.0
252,66.0,0.0,15.0,7.0,0.0
253,68.0,54.0,15.0,1.0,0.0
254,68.0,0.0,15.0,7.0,0.0
255,51.0,0.0,120.0,4.0,0.0
256,63.0,53.0,60.0,3.0,0.0
257,66.0,0.0,120.0,7.0,0.0
258,48.0,0.0,120.0,5.0,0.0
259,48.0,7.0,120.0,8.0,0.0
260,66.0,0.0,120.0,1.0,0.0
261,57.0,60.0,60.0,3.0,0.0
262,49.0,7.0,120.0,5.0,0.0
263,58.0,53.0,60.0,3.0,0.0
264,65.0,7.0,360.0,7.0,0.0
265,53.0,7.0,180.0,4.0,0.0
266,49.0,0.0,120.0,8.0,0.0
267,65.0,0.0,360.0,1.0,0.0
268,60.0,53.0,60.0,3.0,0.0
269,53.0,7.0,120.0,8.0,0.0
270,53.0,0.0,120.0,5.0,0.0
271,61.0,53.0,60.0,3.0,0.0
272,63.0,0.0,60.0,3.0,0.0
273,55.0,60.0,60.0,4.0,0.0
274,65.0,60.0,180.0,3.0,0.0
275,51.0,0.0,120.0,8.0,0.0
276,57.0,53.0,60.0,4.0,0.0
277,51.0,0.0,120.0,5.0,0.0
278,53.0,60.0,60.0,4.0,0.0
279,58.0,0.0,180.0,4.0,0.0
280,65.0,7.0,360.0,1.0,0.0
281,49.0,7.0,180.0,8.0,0.0
282,65.0,0.0,360.0,7.0,0.0
283,49.0,0.0,180.0,5.0,0.0
284,66.0,53.0,60.0,3.0,0.0
285,65.0,60.0,60.0,3.0,0.0
286,51.0,0.0,60.0,8.0,0.0
287,51.0,60.0,60.0,5.0,0.0
288,63.0,0.0,60.0,3.0,0.0
289,60.0,0.0,60.0,4.0,0.0
290,58.0,0.0,60.0,4.0,0.0
291,61.0,53.0,60.0,3.0,0.0
292,53.0,0.0,120.0,8.0,0.0
293,53.0,0.0,120.0,5.0,0.0
294,57.0,60.0,60.0,4.0,0.0
295,60.0,0.0,60.0,3.0,0.0
296,46.0,0.0,120.0,5.0,0.0
297,46.0,7.0,120.0,8.0,0.0
298,58.0,0.0,240.0,4.0,0.0
299,61.0,53.0,60.0,3.0,0.0
300,65.0,60.0,60.0,3.0,0.0
301,63.0,53.0,60.0,3.0,0.0
302,39.0,0.0,120.0,5.0,0.0
303,39.0,7.0,120.0,8.0,0.0
304,61.0,60.0,60.0,3.0,0.0
305,41.0,0.0,120.0,5.0,0.0
306,57.0,7.0,120.0,4.0,0.0
307,60.0,53.0,60.0,3.0,0.0
308,41.0,0.0,120.0,8.0,0.0
309,61.0,60.0,60.0,3.0,0.0
310,34.0,0.0,60.0,5.0,0.0
311,34.0,53.0,60.0,8.0,0.0
312,58.0,7.0,120.0,3.0,0.0
313,58.0,0.0,120.0,4.0,0.0
314,47.0,0.0,60.0,5.0,0.0
315,47.0,60.0,60.0,8.0,0.0
316,46.0,0.0,60.0,5.0,0.0
317,46.0,60.0,60.0,8.0,0.0
318,44.0,0.0,60.0,5.0,0.0
319,44.0,60.0,60.0,8.0,0.0
320,42.0,60.0,60.0,8.0,0.0
321,42.0,0.0,60.0,5.0,0.0
322,41.0,113.0,60.0,5.0,0.0
323,41.0,0.0,60.0,8.0,0.0
324,39.0,0.0,120.0,8.0,0.0
325,39.0,120.0,120.0,5.0,0.0
326,66.0,75.0,120.0,6.0,0.0
327,66.0,0.0,120.0,0.0,0.0
328,51.0,0.0,120.0,5.0,0.0
329,58.0,0.0,120.0,4.0,0.0
330,63.0,0.0,120.0,3.0,0.0
331,51.0,0.0,120.0,8.0,0.0
332,68.0,0.0,60.0,6.0,0.0
333,68.0,30.0,60.0,0.0,0.0
334,56.0,0.0,120.0,4.0,0.0
335,61.0,0.0,120.0,3.0,0.0
336,53.0,11.0,120.0,8.0,0.0
337,53.0,0.0,120.0,5.0,0.0
338,70.0,0.0,30.0,6.0,0.0
339,70.0,15.0,30.0,0.0,0.0
340,71.0,109.0,30.0,6.0,0.0
341,71.0,0.0,30.0,0.0,0.0
342,54.0,0.0,120.0,5.0,0.0
343,61.0,0.0,360.0,3.0,0.0
344,54.0,60.0,180.0,4.0,0.0
345,70.0,0.0,180.0,0.0,0.0
346,70.0,0.0,180.0,6.0,0.0
347,54.0,60.0,120.0,8.0,0.0
348,42.0,7.0,120.0,5.0,0.0
349,42.0,0.0,120.0,8.0,0.0
350,68.0,113.0,60.0,0.0,0.0
351,68.0,0.0,60.0,6.0,0.0
352,56.0,0.0,60.0,4.0,0.0
353,58.0,0.0,240.0,4.0,0.0
354,41.0,120.0,120.0,5.0,0.0
355,66.0,0.0,120.0,0.0,0.0
356,66.0,0.0,120.0,6.0,0.0
357,41.0,0.0,120.0,8.0,0.0
358,39.0,33.0,180.0,8.0,0.0
359,59.0,60.0,120.0,3.0,0.0
360,39.0,0.0,180.0,5.0,0.0
361,61.0,53.0,540.0,3.0,0.0
362,71.0,0.0,90.0,6.0,0.0
363,71.0,27.0,90.0,0.0,0.0
364,56.0,7.0,120.0,4.0,0.0
365,41.0,0.0,60.0,8.0,0.0
366,41.0,4.0,60.0,5.0,0.0
367,73.0,0.0,30.0,6.0,0.0
368,73.0,82.0,30.0,0.0,0.0
369,70.0,0.0,90.0,0.0,0.0
370,42.0,0.0,120.0,5.0,0.0
371,42.0,11.0,120.0,8.0,0.0
372,70.0,27.0,90.0,6.0,0.0
373,54.0,0.0,240.0,4.0,0.0
374,68.0,109.0,30.0,0.0,0.0
375,68.0,0.0,30.0,6.0,0.0
376,68.0,67.0,240.0,6.0,0.0
377,68.0,0.0,240.0,0.0,0.0
378,49.0,120.0,120.0,5.0,0.0
379,49.0,0.0,120.0,8.0,0.0
380,47.0,0.0,120.0,5.0,0.0
381,47.0,0.0,120.0,8.0,0.0
382,53.0,0.0,120.0,4.0,0.0
383,46.0,0.0,120.0,8.0,0.0
384,54.0,0.0,120.0,4.0,0.0
385,46.0,7.0,120.0,5.0,0.0
386,63.0,60.0,60.0,3.0,0.0
387,44.0,0.0,120.0,5.0,0.0
388,59.0,0.0,120.0,4.0,0.0
389,65.0,53.0,60.0,3.0,0.0
390,44.0,7.0,120.0,8.0,0.0
391,66.0,60.0,60.0,3.0,0.0
392,75.0,0.0,60.0,6.0,0.0
393,41.0,7.0,120.0,8.0,0.0
394,41.0,0.0,120.0,5.0,0.0
395,68.0,0.0,120.0,3.0,0.0
396,56.0,0.0,120.0,4.0,0.0
397,75.0,53.0,60.0,0.0,0.0
398,73.0,0.0,60.0,6.0,0.0
399,73.0,60.0,60.0,0.0,0.0
400,61.0,60.0,300.0,3.0,0.0
401,71.0,14.0,60.0,0.0,0.0
402,42.0,0.0,120.0,5.0,0.0
403,42.0,13.0,120.0,8.0,0.0
404,54.0,0.0,240.0,4.0,0.0
405,71.0,0.0,60.0,6.0,0.0
406,70.0,0.0,15.0,0.0,0.0
407,70.0,7.0,15.0,6.0,0.0
408,71.0,8.0,15.0,0.0,0.0
409,71.0,0.0,15.0,6.0,0.0
410,70.0,7.0,15.0,6.0,0.0
411,70.0,0.0,15.0,0.0,0.0
412,71.0,15.0,15.0,0.0,0.0
413,71.0,0.0,15.0,6.0,0.0
414,68.0,2.0,15.0,0.0,0.0
415,68.0,0.0,15.0,6.0,0.0
416,70.0,0.0,15.0,0.0,0.0
417,70.0,107.0,15.0,6.0,0.0
418,37.0,0.0,120.0,8.0,0.0
419,37.0,0.0,120.0,5.0,0.0
420,68.0,60.0,120.0,6.0,0.0
421,68.0,0.0,120.0,0.0,0.0
422,61.0,0.0,120.0,6.0,0.0
423,49.0,0.0,120.0,5.0,0.0
424,53.0,7.0,120.0,4.0,0.0
425,61.0,0.0,120.0,0.0,0.0
426,49.0,0.0,120.0,8.0,0.0
427,61.0,60.0,60.0,3.0,0.0
428,47.0,0.0,120.0,5.0,0.0
429,47.0,7.0,120.0,8.0,0.0
430,63.0,0.0,60.0,3.0,0.0
431,54.0,53.0,60.0,4.0,0.0
432,56.0,0.0,60.0,4.0,0.0
433,65.0,60.0,60.0,3.0,0.0
434,46.0,7.0,180.0,8.0,0.0
435,46.0,0.0,180.0,5.0,0.0
436,58.0,60.0,60.0,4.0,0.0
437,66.0,0.0,60.0,3.0,0.0
438,59.0,53.0,60.0,4.0,0.0
439,68.0,0.0,60.0,3.0,0.0
440,70.0,0.0,60.0,3.0,0.0
441,61.0,60.0,60.0,4.0,0.0
442,47.0,60.0,60.0,5.0,0.0
443,68.0,0.0,60.0,3.0,0.0
444,59.0,0.0,60.0,4.0,0.0
445,47.0,0.0,60.0,8.0,0.0
446,58.0,53.0,60.0,4.0,0.0
447,66.0,0.0,60.0,3.0,0.0
448,49.0,7.0,120.0,8.0,0.0
449,49.0,0.0,120.0,5.0,0.0
450,65.0,0.0,60.0,3.0,0.0
451,56.0,60.0,60.0,4.0,0.0
452,42.0,7.0,120.0,5.0,0.0
453,58.0,0.0,120.0,4.0,0.0
454,42.0,0.0,120.0,8.0,0.0
455,66.0,53.0,60.0,3.0,0.0
456,66.0,0.0,360.0,7.0,0.0
457,66.0,0.0,360.0,1.0,0.0
458,64.0,60.0,60.0,3.0,0.0
459,44.0,0.0,120.0,8.0,0.0
460,63.0,53.0,60.0,3.0,0.0
461,59.0,0.0,120.0,4.0,0.0
462,44.0,7.0,120.0,5.0,0.0
463,61.0,60.0,60.0,3.0,0.0
464,46.0,0.0,120.0,5.0,0.0
465,54.0,60.0,180.0,4.0,0.0
466,46.0,7.0,120.0,8.0,0.0
467,59.0,53.0,60.0,3.0,0.0
468,61.0,60.0,60.0,3.0,0.0
469,63.0,7.0,180.0,3.0,0.0
470,47.0,0.0,180.0,5.0,0.0
471,68.0,0.0,360.0,7.0,0.0
472,47.0,0.0,180.0,8.0,0.0
473,68.0,7.0,360.0,1.0,0.0
474,58.0,53.0,60.0,4.0,0.0
475,56.0,60.0,60.0,4.0,0.0
476,46.0,0.0,60.0,8.0,0.0
477,54.0,0.0,60.0,4.0,0.0
478,46.0,0.0,60.0,5.0,0.0
479,63.0,60.0,60.0,3.0,0.0
480,44.0,0.0,120.0,5.0,0.0
481,44.0,0.0,120.0,8.0,0.0
482,53.0,0.0,120.0,4.0,0.0
483,61.0,53.0,60.0,3.0,0.0
484,59.0,60.0,60.0,3.0,0.0
485,42.0,7.0,120.0,5.0,0.0
486,54.0,60.0,180.0,4.0,0.0
487,70.0,0.0,360.0,1.0,0.0
488,42.0,0.0,120.0,8.0,0.0
489,70.0,0.0,360.0,7.0,0.0
490,58.0,53.0,60.0,3.0,0.0
491,59.0,53.0,60.0,3.0,0.0
492,54.0,0.0,120.0,8.0,0.0
493,54.0,7.0,120.0,5.0,0.0
494,61.0,0.0,120.0,3.0,0.0
495,53.0,60.0,60.0,4.0,0.0
496,53.0,0.0,120.0,5.0,0.0
497,62.0,0.0,120.0,3.0,0.0
498,54.0,53.0,60.0,4.0,0.0
499,53.0,7.0,120.0,8.0,0.0
500,56.0,60.0,60.0,4.0,0.0
501,66.0,7.0,360.0,7.0,0.0
502,63.0,60.0,60.0,3.0,0.0
503,58.0,0.0,180.0,4.0,0.0
504,51.0,0.0,180.0,5.0,0.0
505,51.0,7.0,180.0,8.0,0.0
506,66.0,0.0,360.0,1.0,0.0
507,64.0,53.0,60.0,3.0,0.0
508,63.0,60.0,60.0,3.0,0.0
509,58.0,60.0,60.0,4.0,0.0
510,53.0,0.0,60.0,5.0,0.0
511,61.0,0.0,60.0,3.0,0.0
512,53.0,0.0,60.0,8.0,0.0
513,56.0,53.0,60.0,4.0,0.0
514,54.0,0.0,120.0,8.0,0.0
515,59.0,0.0,60.0,3.0,0.0
516,54.0,0.0,120.0,5.0,0.0
517,58.0,60.0,60.0,3.0,0.0
518,54.0,0.0,120.0,4.0,0.0
519,71.0,0.0,360.0,1.0,0.0
520,44.0,7.0,120.0,5.0,0.0
521,44.0,0.0,120.0,8.0,0.0
522,71.0,0.0,360.0,7.0,0.0
523,59.0,53.0,60.0,3.0,0.0
524,53.0,60.0,60.0,4.0,0.0
525,61.0,0.0,60.0,3.0,0.0
526,63.0,0.0,120.0,3.0,0.0
527,54.0,53.0,60.0,4.0,0.0
528,39.0,7.0,120.0,5.0,0.0
529,39.0,0.0,120.0,8.0,0.0
530,59.0,60.0,60.0,4.0,0.0
531,61.0,60.0,180.0,3.0,0.0
532,41.0,0.0,120.0,5.0,0.0
533,58.0,53.0,60.0,4.0,0.0
534,41.0,7.0,120.0,8.0,0.0
535,56.0,60.0,60.0,4.0,0.0
536,70.0,7.0,360.0,1.0,0.0
537,42.0,0.0,180.0,8.0,0.0
538,54.0,53.0,420.0,4.0,0.0
539,70.0,0.0,360.0,7.0,0.0
540,42.0,7.0,180.0,5.0,0.0
541,58.0,53.0,60.0,3.0,0.0
542,60.0,60.0,60.0,3.0,0.0
543,41.0,60.0,60.0,8.0,0.0
544,41.0,0.0,60.0,5.0,0.0
545,62.0,0.0,60.0,3.0,0.0
546,63.0,6.0,540.0,3.0,0.0
547,39.0,0.0,60.0,5.0,0.0
548,39.0,53.0,60.0,8.0,0.0
549,37.0,0.0,60.0,5.0,0.0
550,37.0,60.0,60.0,8.0,0.0
551,36.0,0.0,120.0,5.0,0.0
552,68.0,0.0,360.0,1.0,0.0
553,36.0,7.0,120.0,8.0,0.0
554,68.0,15.0,360.0,7.0,0.0
555,51.0,60.0,60.0,4.0,0.0
556,56.0,53.0,60.0,4.0,0.0
557,34.0,0.0,120.0,5.0,0.0
558,34.0,7.0,120.0,8.0,0.0
559,58.0,60.0,60.0,4.0,0.0
560,56.0,53.0,60.0,4.0,0.0
561,36.0,0.0,120.0,5.0,0.0
562,36.0,7.0,120.0,8.0,0.0
563,54.0,21.0,60.0,4.0,0.0
564,53.0,0.0,360.0,4.0,0.0
565,37.0,0.0,120.0,5.0,0.0
566,37.0,7.0,120.0,8.0,0.0
567,70.0,15.0,15.0,1.0,0.0
568,70.0,0.0,15.0,7.0,0.0
569,68.0,0.0,15.0,1.0,0.0
570,68.0,9.0,15.0,7.0,0.0
571,70.0,15.0,15.0,1.0,0.0
572,70.0,0.0,15.0,7.0,0.0
573,68.0,15.0,15.0,1.0,0.0
574,68.0,0.0,15.0,7.0,0.0
575,56.0,6.0,60.0,3.0,0.0
576,70.0,0.0,15.0,7.0,0.0
577,70.0,15.0,15.0,1.0,0.0
578,68.0,0.0,15.0,1.0,0.0
579,68.0,2.0,15.0,7.0,0.0
580,70.0,15.0,15.0,7.0,0.0
581,70.0,0.0,15.0,1.0,0.0
582,68.0,0.0,15.0,1.0,0.0
583,68.0,15.0,15.0,7.0,0.0
584,35.0,7.0,120.0,5.0,0.0
585,35.0,0.0,120.0,8.0,0.0
586,61.0,6.0,60.0,3.0,0.0
587,70.0,15.0,15.0,1.0,0.0
588,70.0,0.0,15.0,7.0,0.0
589,68.0,0.0,15.0,7.0,0.0
590,68.0,9.0,15.0,1.0,0.0
591,70.0,0.0,15.0,7.0,0.0
592,70.0,15.0,15.0,1.0,0.0
593,68.0,0.0,15.0,7.0,0.0
594,63.0,6.0,60.0,3.0,0.0
595,68.0,15.0,15.0,1.0,0.0
596,70.0,15.0,15.0,7.0,0.0
597,70.0,0.0,15.0,1.0,0.0
598,68.0,0.0,15.0,1.0,0.0
599,68.0,2.0,15.0,7.0,0.0
600,70.0,54.0,15.0,7.0,0.0
601,70.0,0.0,15.0,1.0,0.0
602,68.0,0.0,120.0,1.0,0.0
603,68.0,0.0,120.0,7.0,0.0
604,61.0,53.0,60.0,3.0,0.0
605,37.0,0.0,120.0,5.0,0.0
606,37.0,7.0,120.0,8.0,0.0
607,59.0,60.0,60.0,3.0,0.0
608,54.0,53.0,60.0,4.0,0.0
609,66.0,7.0,360.0,1.0,0.0
610,66.0,0.0,360.0,7.0,0.0
611,39.0,7.0,180.0,8.0,0.0
612,58.0,7.0,120.0,3.0,0.0
613,39.0,0.0,180.0,5.0,0.0
614,53.0,53.0,60.0,4.0,0.0
615,54.0,53.0,60.0,4.0,0.0
616,63.0,7.0,120.0,3.0,0.0
617,56.0,0.0,60.0,4.0,0.0
618,41.0,0.0,60.0,8.0,0.0
619,41.0,60.0,60.0,5.0,0.0
620,42.0,0.0,120.0,5.0,0.0
621,61.0,53.0,60.0,3.0,0.0
622,42.0,0.0,120.0,8.0,0.0
623,58.0,0.0,60.0,4.0,0.0
624,59.0,60.0,60.0,4.0,0.0
625,63.0,0.0,60.0,3.0,0.0
626,35.0,0.0,120.0,8.0,0.0
627,65.0,0.0,60.0,3.0,0.0
628,56.0,53.0,60.0,4.0,0.0
629,35.0,7.0,120.0,5.0,0.0
630,66.0,0.0,60.0,3.0,0.0
631,58.0,60.0,60.0,4.0,0.0
632,59.0,53.0,60.0,4.0,0.0
633,32.0,7.0,120.0,5.0,0.0
634,32.0,0.0,120.0,8.0,0.0
635,68.0,0.0,60.0,3.0,0.0
636,66.0,60.0,60.0,3.0,0.0
637,58.0,0.0,60.0,4.0,0.0
638,68.0,0.0,60.0,3.0,0.0
639,59.0,53.0,60.0,4.0,0.0
640,37.0,7.0,120.0,5.0,0.0
641,37.0,0.0,120.0,8.0,0.0
642,65.0,0.0,60.0,3.0,0.0
643,56.0,60.0,60.0,4.0,0.0
644,42.0,53.0,60.0,5.0,0.0
645,66.0,0.0,120.0,3.0,0.0
646,42.0,0.0,60.0,8.0,0.0
647,58.0,7.0,120.0,4.0,0.0
648,46.0,60.0,60.0,8.0,0.0
649,46.0,0.0,60.0,5.0,0.0
650,47.0,0.0,60.0,5.0,0.0
651,47.0,60.0,60.0,8.0,0.0
652,49.0,60.0,60.0,8.0,0.0
653,49.0,0.0,60.0,5.0,0.0
654,51.0,60.0,60.0,5.0,0.0
655,51.0,0.0,60.0,8.0,0.0
656,53.0,0.0,60.0,8.0,0.0
657,53.0,113.0,60.0,5.0,0.0
658,54.0,7.0,120.0,5.0,0.0
659,54.0,0.0,120.0,8.0,0.0
660,54.0,0.0,60.0,4.0,0.0
661,58.0,60.0,60.0,3.0,0.0
662,59.0,53.0,60.0,3.0,0.0
663,56.0,0.0,60.0,4.0,0.0
664,42.0,0.0,120.0,8.0,0.0
665,70.0,0.0,120.0,0.0,0.0
666,70.0,7.0,120.0,6.0,0.0
667,42.0,0.0,120.0,5.0,0.0
668,61.0,0.0,60.0,3.0,0.0
669,58.0,60.0,60.0,4.0,0.0
670,41.0,0.0,120.0,8.0,0.0
671,41.0,7.0,120.0,5.0,0.0
672,68.0,0.0,120.0,0.0,0.0
673,68.0,0.0,120.0,6.0,0.0
674,60.0,53.0,60.0,4.0,0.0
675,63.0,0.0,60.0,3.0,0.0
676,62.0,0.0,60.0,4.0,0.0
677,65.0,60.0,60.0,3.0,0.0
678,66.0,0.0,180.0,6.0,0.0
679,39.0,7.0,180.0,8.0,0.0
680,66.0,0.0,180.0,0.0,0.0
681,39.0,0.0,180.0,5.0,0.0
682,66.0,60.0,60.0,3.0,0.0
683,63.0,0.0,60.0,4.0,0.0
684,68.0,0.0,60.0,4.0,0.0
685,71.0,53.0,60.0,3.0,0.0
686,70.0,60.0,60.0,3.0,0.0
687,66.0,0.0,60.0,4.0,0.0
688,65.0,0.0,60.0,4.0,0.0
689,68.0,0.0,60.0,6.0,0.0
690,68.0,0.0,60.0,3.0,0.0
691,41.0,0.0,60.0,5.0,0.0
692,68.0,60.0,60.0,0.0,0.0
693,41.0,0.0,60.0,8.0,0.0
694,70.0,0.0,120.0,6.0,0.0
695,42.0,7.0,240.0,8.0,0.0
696,70.0,7.0,120.0,0.0,0.0
697,66.0,0.0,60.0,3.0,0.0
698,63.0,53.0,60.0,4.0,0.0
699,42.0,0.0,240.0,5.0,0.0
700,61.0,0.0,60.0,4.0,0.0
701,65.0,60.0,60.0,3.0,0.0
702,63.0,33.0,180.0,3.0,0.0
703,60.0,53.0,60.0,4.0,0.0
704,58.0,53.0,60.0,4.0,0.0
705,41.0,0.0,120.0,8.0,0.0
706,41.0,11.0,120.0,5.0,0.0
707,56.0,0.0,300.0,4.0,0.0
708,68.0,0.0,90.0,6.0,0.0
709,68.0,27.0,90.0,0.0,0.0
710,61.0,6.0,120.0,3.0,0.0
711,70.0,0.0,30.0,0.0,0.0
712,70.0,17.0,30.0,6.0,0.0
713,66.0,15.0,15.0,6.0,0.0
714,39.0,0.0,120.0,8.0,0.0
715,66.0,0.0,15.0,0.0,0.0
716,39.0,7.0,120.0,5.0,0.0
717,68.0,0.0,15.0,0.0,0.0
718,68.0,15.0,15.0,6.0,0.0
719,66.0,0.0,15.0,6.0,0.0
720,66.0,9.0,15.0,0.0,0.0
721,68.0,15.0,15.0,0.0,0.0
722,68.0,0.0,15.0,6.0,0.0
723,60.0,6.0,60.0,3.0,0.0
724,66.0,15.0,15.0,6.0,0.0
725,66.0,0.0,15.0,0.0,0.0
726,68.0,0.0,15.0,0.0,0.0
727,68.0,15.0,15.0,6.0,0.0
728,65.0,2.0,15.0,0.0,0.0
729,65.0,0.0,15.0,6.0,0.0
730,66.0,0.0,15.0,6.0,0.0
731,66.0,54.0,15.0,0.0,0.0
732,65.0,53.0,60.0,3.0,0.0
733,68.0,0.0,120.0,6.0,0.0
734,37.0,0.0,120.0,8.0,0.0
735,37.0,7.0,120.0,5.0,0.0
736,68.0,0.0,120.0,0.0,0.0
737,58.0,60.0,60.0,4.0,0.0
738,66.0,0.0,60.0,3.0,0.0
739,61.0,0.0,120.0,0.0,0.0
740,65.0,0.0,60.0,3.0,0.0
741,49.0,0.0,120.0,5.0,0.0
742,61.0,0.0,120.0,6.0,0.0
743,49.0,7.0,120.0,8.0,0.0
744,56.0,53.0,60.0,4.0,0.0
745,63.0,60.0,60.0,3.0,0.0
746,54.0,0.0,60.0,4.0,0.0
747,47.0,7.0,120.0,8.0,0.0
748,73.0,60.0,180.0,0.0,0.0
749,73.0,0.0,180.0,6.0,0.0
750,56.0,53.0,60.0,4.0,0.0
751,47.0,0.0,120.0,5.0,0.0
752,65.0,0.0,60.0,3.0,0.0
753,53.0,60.0,60.0,4.0,0.0
754,61.0,0.0,60.0,3.0,0.0
755,46.0,0.0,180.0,5.0,0.0
756,66.0,0.0,180.0,3.0,0.0
757,58.0,0.0,60.0,4.0,0.0
758,46.0,7.0,180.0,8.0,0.0
759,71.0,0.0,60.0,6.0,0.0
760,71.0,0.0,60.0,0.0,0.0
761,59.0,53.0,60.0,4.0,0.0
762,70.0,0.0,60.0,0.0,0.0
763,70.0,0.0,60.0,6.0,0.0
764,61.0,60.0,60.0,4.0,0.0
765,59.0,0.0,60.0,4.0,0.0
766,47.0,0.0,60.0,8.0,0.0
767,47.0,0.0,60.0,5.0,0.0
768,65.0,21.0,60.0,3.0,0.0
769,68.0,0.0,60.0,6.0,0.0
770,68.0,0.0,60.0,0.0,0.0
771,66.0,15.0,15.0,6.0,0.0
772,49.0,6.0,60.0,8.0,0.0
773,63.0,7.0,240.0,3.0,0.0
774,58.0,7.0,120.0,4.0,0.0
775,66.0,0.0,15.0,0.0,0.0
776,49.0,0.0,60.0,5.0,0.0
777,68.0,15.0,15.0,6.0,0.0
778,68.0,0.0,15.0,0.0,0.0
779,66.0,0.0,15.0,0.0,0.0
780,66.0,9.0,15.0,6.0,0.0
781,68.0,0.0,15.0,0.0,0.0
782,68.0,15.0,15.0,6.0,0.0
783,66.0,0.0,15.0,6.0,0.0
784,51.0,6.0,60.0,8.0,0.0
785,51.0,0.0,60.0,5.0,0.0
786,66.0,15.0,15.0,0.0,0.0
787,68.0,15.0,15.0,6.0,0.0
788,68.0,0.0,15.0,0.0,0.0
789,65.0,0.0,15.0,0.0,0.0
790,65.0,2.0,15.0,6.0,0.0
791,66.0,0.0,15.0,0.0,0.0
792,66.0,54.0,15.0,6.0,0.0
793,53.0,0.0,120.0,5.0,0.0
794,68.0,0.0,240.0,6.0,0.0
795,53.0,0.0,120.0,8.0,0.0
796,56.0,53.0,60.0,4.0,0.0
797,68.0,0.0,240.0,0.0,0.0
798,54.0,60.0,60.0,4.0,0.0
799,61.0,53.0,60.0,3.0,0.0
800,49.0,0.0,120.0,8.0,0.0
801,49.0,0.0,120.0,5.0,0.0
802,53.0,7.0,120.0,4.0,0.0
803,59.0,60.0,60.0,3.0,0.0
804,54.0,53.0,180.0,4.0,0.0
805,54.0,0.0,120.0,5.0,0.0
806,58.0,53.0,60.0,3.0,0.0
807,54.0,7.0,120.0,8.0,0.0
808,61.0,60.0,60.0,3.0,0.0
809,47.0,7.0,120.0,5.0,0.0
810,47.0,0.0,120.0,8.0,0.0
811,63.0,60.0,180.0,3.0,0.0
812,54.0,53.0,60.0,4.0,0.0
813,59.0,0.0,240.0,4.0,0.0
814,44.0,0.0,120.0,5.0,0.0
815,44.0,7.0,120.0,8.0,0.0
816,68.0,21.0,60.0,3.0,0.0
817,49.0,0.0,120.0,8.0,0.0
818,65.0,15.0,15.0,3.0,0.0
819,49.0,11.0,120.0,5.0,0.0
820,66.0,15.0,15.0,3.0,0.0
821,65.0,15.0,15.0,3.0,0.0
822,66.0,28.0,15.0,3.0,0.0
823,63.0,19.0,30.0,3.0,0.0
824,65.0,56.0,30.0,3.0,0.0
825,42.0,0.0,120.0,5.0,0.0
826,70.0,0.0,360.0,7.0,0.0
827,58.0,53.0,60.0,4.0,0.0
828,42.0,0.0,120.0,8.0,0.0
829,70.0,0.0,360.0,1.0,0.0
830,66.0,7.0,120.0,3.0,0.0
831,63.0,60.0,60.0,4.0,0.0
832,46.0,7.0,120.0,8.0,0.0
833,46.0,0.0,120.0,5.0,0.0
834,61.0,53.0,60.0,4.0,0.0
835,59.0,60.0,60.0,4.0,0.0
836,44.0,7.0,120.0,5.0,0.0
837,44.0,0.0,120.0,8.0,0.0
838,58.0,53.0,60.0,4.0,0.0
839,59.0,120.0,60.0,4.0,0.0
840,70.0,0.0,360.0,1.0,0.0
841,70.0,0.0,360.0,7.0,0.0
842,42.0,0.0,180.0,8.0,0.0
843,61.0,7.0,240.0,4.0,0.0
844,42.0,7.0,180.0,5.0,0.0
845,68.0,53.0,60.0,3.0,0.0
846,66.0,53.0,60.0,3.0,0.0
847,44.0,0.0,60.0,5.0,0.0
848,44.0,60.0,60.0,8.0,0.0
849,65.0,0.0,60.0,3.0,0.0
850,46.0,7.0,120.0,5.0,0.0
851,62.0,0.0,120.0,4.0,0.0
852,63.0,53.0,60.0,3.0,0.0
853,46.0,0.0,120.0,8.0,0.0
854,65.0,60.0,60.0,3.0,0.0
855,70.0,0.0,360.0,7.0,0.0
856,66.0,0.0,60.0,3.0,0.0
857,70.0,0.0,360.0,1.0,0.0
858,39.0,0.0,120.0,5.0,0.0
859,39.0,7.0,120.0,8.0,0.0
860,63.0,53.0,60.0,4.0,0.0
861,68.0,60.0,60.0,3.0,0.0
862,59.0,0.0,60.0,4.0,0.0
863,66.0,0.0,60.0,3.0,0.0
864,51.0,0.0,120.0,8.0,0.0
865,51.0,7.0,120.0,5.0,0.0
866,58.0,53.0,60.0,4.0,0.0
867,56.0,0.0,60.0,4.0,0.0
868,65.0,60.0,60.0,3.0,0.0
869,53.0,0.0,120.0,8.0,0.0
870,54.0,0.0,60.0,4.0,0.0
871,53.0,7.0,120.0,5.0,0.0
872,63.0,53.0,60.0,3.0,0.0
873,62.0,60.0,60.0,3.0,0.0
874,53.0,0.0,60.0,4.0,0.0
875,70.0,0.0,360.0,1.0,0.0
876,54.0,0.0,180.0,8.0,0.0
877,54.0,7.0,180.0,5.0,0.0
878,63.0,60.0,60.0,3.0,0.0
879,70.0,0.0,360.0,7.0,0.0
880,51.0,0.0,60.0,4.0,0.0
881,62.0,0.0,60.0,3.0,0.0
882,53.0,53.0,60.0,4.0,0.0
883,63.0,0.0,60.0,3.0,0.0
884,54.0,60.0,60.0,4.0,0.0
885,56.0,0.0,60.0,4.0,0.0
886,53.0,0.0,60.0,8.0,0.0
887,53.0,60.0,60.0,5.0,0.0
888,65.0,0.0,60.0,3.0,0.0
889,51.0,0.0,120.0,5.0,0.0
890,66.0,53.0,180.0,3.0,0.0
891,58.0,53.0,60.0,4.0,0.0
892,51.0,7.0,120.0,8.0,0.0
893,60.0,60.0,60.0,4.0,0.0
894,61.0,0.0,60.0,4.0,0.0
895,68.0,0.0,360.0,7.0,0.0
896,53.0,0.0,120.0,5.0,0.0
897,68.0,0.0,360.0,1.0,0.0
898,53.0,7.0,120.0,8.0,0.0
899,66.0,0.0,60.0,3.0,0.0
900,60.0,60.0,60.0,4.0,0.0
901,49.0,7.0,120.0,5.0,0.0
902,49.0,0.0,120.0,8.0,0.0
903,61.0,0.0,60.0,4.0,0.0
904,65.0,53.0,60.0,3.0,0.0
905,54.0,0.0,60.0,4.0,0.0
906,63.0,60.0,60.0,3.0,0.0
907,47.0,7.0,120.0,5.0,0.0
908,47.0,0.0,120.0,8.0,0.0
909,61.0,53.0,60.0,3.0,0.0
910,53.0,0.0,60.0,4.0,0.0
911,51.0,60.0,60.0,4.0,0.0
912,59.0,0.0,60.0,3.0,0.0
913,66.0,7.0,360.0,1.0,0.0
914,66.0,0.0,360.0,7.0,0.0
915,46.0,0.0,180.0,5.0,0.0
916,49.0,60.0,60.0,4.0,0.0
917,46.0,7.0,180.0,8.0,0.0
918,61.0,53.0,300.0,3.0,0.0
919,53.0,53.0,60.0,4.0,0.0
920,54.0,60.0,60.0,4.0,0.0
921,47.0,60.0,60.0,8.0,0.0
922,47.0,0.0,60.0,5.0,0.0
923,56.0,0.0,60.0,4.0,0.0
924,49.0,0.0,120.0,5.0,0.0
925,58.0,0.0,120.0,4.0,0.0
926,49.0,0.0,120.0,8.0,0.0
927,60.0,60.0,60.0,3.0,0.0
928,68.0,0.0,360.0,7.0,0.0
929,68.0,0.0,360.0,1.0,0.0
930,61.0,0.0,60.0,3.0,0.0
931,41.0,0.0,120.0,8.0,0.0
932,41.0,7.0,120.0,5.0,0.0
933,56.0,53.0,60.0,4.0,0.0
934,63.0,0.0,60.0,3.0,0.0
935,54.0,60.0,60.0,4.0,0.0
936,61.0,53.0,60.0,3.0,0.0
937,44.0,0.0,120.0,8.0,0.0
938,53.0,0.0,60.0,4.0,0.0
939,44.0,7.0,120.0,5.0,0.0
940,56.0,60.0,60.0,4.0,0.0
941,60.0,0.0,60.0,3.0,0.0
942,42.0,0.0,120.0,8.0,0.0
943,61.0,53.0,60.0,3.0,0.0
944,42.0,7.0,120.0,5.0,0.0
945,58.0,0.0,60.0,4.0,0.0
946,60.0,0.0,60.0,4.0,0.0
947,63.0,60.0,60.0,3.0,0.0
948,68.0,0.0,360.0,1.0,0.0
949,65.0,60.0,60.0,3.0,0.0
950,41.0,0.0,180.0,8.0,0.0
951,68.0,7.0,360.0,7.0,0.0
952,61.0,0.0,60.0,4.0,0.0
953,41.0,7.0,180.0,5.0,0.0
954,58.0,0.0,60.0,4.0,0.0
955,66.0,53.0,60.0,3.0,0.0
956,56.0,0.0,60.0,4.0,0.0
957,65.0,60.0,60.0,3.0,0.0
958,54.0,0.0,60.0,4.0,0.0
959,42.0,60.0,60.0,5.0,0.0
960,63.0,0.0,60.0,3.0,0.0
961,42.0,0.0,60.0,8.0,0.0
962,53.0,0.0,60.0,4.0,0.0
963,61.0,53.0,60.0,3.0,0.0
964,44.0,0.0,120.0,8.0,0.0
965,44.0,0.0,120.0,5.0,0.0
966,51.0,0.0,60.0,4.0,0.0
967,60.0,113.0,60.0,3.0,0.0
968,61.0,75.0,120.0,3.0,0.0
969,37.0,0.0,120.0,8.0,0.0
970,53.0,0.0,120.0,4.0,0.0
971,37.0,0.0,120.0,5.0,0.0
972,68.0,30.0,60.0,0.0,0.0
973,47.0,10.0,120.0,8.0,0.0
974,61.0,15.0,180.0,3.0,0.0
975,68.0,0.0,60.0,6.0,0.0
976,47.0,0.0,120.0,5.0,0.0
977,53.0,0.0,120.0,4.0,0.0
978,67.0,0.0,30.0,6.0,0.0
979,67.0,15.0,30.0,0.0,0.0
980,68.0,49.0,30.0,6.0,0.0
981,68.0,1.0,30.0,0.0,0.0
982,70.0,0.0,60.0,6.0,0.0
983,46.0,7.0,120.0,5.0,0.0
984,46.0,0.0,120.0,8.0,0.0
985,55.0,0.0,120.0,4.0,0.0
986,70.0,30.0,60.0,0.0,0.0
987,71.0,15.0,30.0,0.0,0.0
988,58.0,4.0,60.0,3.0,0.0
989,71.0,0.0,30.0,6.0,0.0
990,73.0,0.0,30.0,6.0,0.0
991,73.0,56.0,30.0,0.0,0.0
992,63.0,60.0,60.0,3.0,0.0
993,44.0,7.0,180.0,8.0,0.0
994,44.0,0.0,180.0,5.0,0.0
995,56.0,0.0,300.0,4.0,0.0
996,71.0,0.0,180.0,0.0,0.0
997,71.0,0.0,180.0,6.0,0.0
998,64.0,53.0,60.0,3.0,0.0
999,63.0,60.0,60.0,3.0,0.0
1000,61.0,0.0,60.0,3.0,0.0
1001,70.0,0.0,60.0,6.0,0.0
1002,46.0,60.0,60.0,5.0,0.0
1003,70.0,0.0,60.0,0.0,0.0
1004,46.0,0.0,60.0,8.0,0.0
1005,47.0,0.0,240.0,5.0,0.0
1006,68.0,0.0,120.0,6.0,0.0
1007,59.0,53.0,60.0,3.0,0.0
1008,68.0,7.0,120.0,0.0,0.0
1009,47.0,7.0,240.0,8.0,0.0
1010,54.0,0.0,60.0,4.0,0.0
1011,58.0,60.0,60.0,3.0,0.0
1012,52.0,53.0,60.0,4.0,0.0
1013,56.0,0.0,120.0,3.0,0.0
1014,51.0,60.0,60.0,4.0,0.0
1015,46.0,0.0,120.0,5.0,0.0
1016,76.0,53.0,60.0,6.0,0.0
1017,55.0,0.0,120.0,3.0,0.0
1018,46.0,7.0,120.0,8.0,0.0
1019,49.0,0.0,120.0,4.0,0.0
1020,76.0,0.0,60.0,0.0,0.0
1021,75.0,60.0,60.0,6.0,0.0
1022,75.0,0.0,60.0,0.0,0.0
1023,73.0,0.0,60.0,6.0,0.0
1024,56.0,0.0,120.0,3.0,0.0
1025,51.0,7.0,360.0,4.0,0.0
1026,73.0,34.0,60.0,0.0,0.0
1027,47.0,11.0,120.0,8.0,0.0
1028,47.0,0.0,120.0,5.0,0.0
1029,75.0,0.0,30.0,0.0,0.0
1030,75.0,19.0,30.0,6.0,0.0
1031,76.0,56.0,30.0,6.0,0.0
1032,76.0,0.0,30.0,0.0,0.0
1033,67.0,0.0,180.0,0.0,0.0
1034,58.0,60.0,60.0,3.0,0.0
1035,67.0,7.0,180.0,6.0,0.0
1036,49.0,0.0,180.0,5.0,0.0
1037,49.0,0.0,180.0,8.0,0.0
1038,56.0,53.0,60.0,3.0,0.0
1039,58.0,53.0,60.0,3.0,0.0
1040,47.0,0.0,60.0,8.0,0.0
1041,68.0,0.0,60.0,0.0,0.0
1042,68.0,0.0,60.0,6.0,0.0
1043,47.0,60.0,60.0,5.0,0.0
1044,59.0,0.0,60.0,3.0,0.0
1045,55.0,0.0,120.0,4.0,0.0
1046,46.0,0.0,120.0,5.0,0.0
1047,70.0,0.0,60.0,0.0,0.0
1048,61.0,7.0,120.0,3.0,0.0
1049,70.0,53.0,60.0,6.0,0.0
1050,46.0,0.0,120.0,8.0,0.0
1051,63.0,0.0,60.0,6.0,0.0
1052,63.0,60.0,60.0,0.0,0.0
1053,75.0,0.0,60.0,0.0,0.0
1054,75.0,53.0,60.0,6.0,0.0
1055,59.0,0.0,120.0,3.0,0.0
1056,56.0,0.0,120.0,4.0,0.0
1057,47.0,7.0,120.0,8.0,0.0
1058,47.0,0.0,120.0,5.0,0.0
1059,68.0,0.0,60.0,0.0,0.0
1060,68.0,113.0,60.0,6.0,0.0
1061,61.0,0.0,120.0,3.0,0.0
1062,46.0,60.0,120.0,5.0,0.0
1063,67.0,0.0,180.0,0.0,0.0
1064,67.0,60.0,180.0,6.0,0.0
1065,58.0,0.0,120.0,4.0,0.0
1066,46.0,0.0,120.0,8.0,0.0
1067,44.0,0.0,120.0,8.0,0.0
1068,51.0,7.0,300.0,4.0,0.0
1069,59.0,7.0,120.0,3.0,0.0
1070,44.0,0.0,120.0,5.0,0.0
1071,68.0,0.0,60.0,0.0,0.0
1072,68.0,60.0,60.0,6.0,0.0
1073,70.0,0.0,120.0,6.0,0.0
1074,39.0,0.0,120.0,5.0,0.0
1075,70.0,7.0,120.0,0.0,0.0
1076,55.0,53.0,60.0,3.0,0.0
1077,39.0,0.0,120.0,8.0,0.0
1078,58.0,53.0,60.0,3.0,0.0
1079,44.0,7.0,120.0,5.0,0.0
1080,44.0,0.0,120.0,8.0,0.0
1081,59.0,53.0,60.0,3.0,0.0
1082,58.0,0.0,60.0,3.0,0.0
1083,49.0,60.0,60.0,4.0,0.0
1084,46.0,0.0,120.0,5.0,0.0
1085,46.0,7.0,120.0,8.0,0.0
1086,56.0,53.0,60.0,3.0,0.0
1087,47.0,0.0,60.0,4.0,0.0
1088,55.0,0.0,60.0,3.0,0.0
1089,46.0,60.0,60.0,4.0,0.0
1090,44.0,7.0,120.0,4.0,0.0
1091,47.0,7.0,180.0,8.0,0.0
1092,68.0,7.0,360.0,7.0,0.0
1093,68.0,0.0,360.0,1.0,0.0
1094,47.0,0.0,180.0,5.0,0.0
1095,56.0,53.0,60.0,3.0,0.0
1096,58.0,53.0,60.0,3.0,0.0
1097,51.0,7.0,120.0,4.0,0.0
1098,59.0,53.0,60.0,3.0,0.0
1099,46.0,0.0,60.0,8.0,0.0
1100,46.0,0.0,60.0,5.0,0.0
1101,61.0,60.0,60.0,3.0,0.0
1102,44.0,0.0,120.0,8.0,0.0
1103,56.0,0.0,360.0,4.0,0.0
1104,44.0,0.0,120.0,5.0,0.0
1105,63.0,53.0,60.0,3.0,0.0
1106,59.0,60.0,60.0,3.0,0.0
1107,70.0,0.0,360.0,7.0,0.0
1108,64.0,53.0,60.0,3.0,0.0
1109,49.0,7.0,120.0,8.0,0.0
1110,49.0,0.0,120.0,5.0,0.0
1111,70.0,0.0,360.0,1.0,0.0
1112,63.0,60.0,60.0,3.0,0.0
1113,46.0,0.0,120.0,5.0,0.0
1114,61.0,53.0,60.0,3.0,0.0
1115,46.0,7.0,120.0,8.0,0.0
1116,64.0,60.0,60.0,3.0,0.0
1117,63.0,53.0,60.0,3.0,0.0
1118,51.0,0.0,120.0,8.0,0.0
1119,55.0,7.0,120.0,4.0,0.0
1120,51.0,0.0,120.0,5.0,0.0
1121,61.0,60.0,60.0,3.0,0.0
1122,44.0,7.0,120.0,8.0,0.0
1123,59.0,53.0,60.0,3.0,0.0
1124,56.0,0.0,60.0,4.0,0.0
1125,71.0,7.0,360.0,7.0,0.0
1126,71.0,0.0,360.0,1.0,0.0
1127,44.0,0.0,120.0,5.0,0.0
1128,58.0,60.0,60.0,4.0,0.0
1129,61.0,0.0,60.0,3.0,0.0
1130,59.0,7.0,120.0,4.0,0.0
1131,56.0,0.0,120.0,8.0,0.0
1132,63.0,53.0,60.0,3.0,0.0
1133,56.0,0.0,120.0,5.0,0.0
1134,64.0,60.0,60.0,3.0,0.0
1135,57.0,0.0,120.0,4.0,0.0
1136,66.0,53.0,60.0,3.0,0.0
1137,54.0,0.0,120.0,8.0,0.0
1138,54.0,0.0,120.0,5.0,0.0
1139,63.0,60.0,60.0,3.0,0.0
1140,68.0,60.0,60.0,3.0,0.0
1141,71.0,0.0,360.0,7.0,0.0
1142,56.0,7.0,480.0,4.0,0.0
1143,52.0,7.0,180.0,5.0,0.0
1144,52.0,0.0,180.0,8.0,0.0
1145,71.0,7.0,360.0,1.0,0.0
1146,69.0,53.0,60.0,3.0,0.0
1147,68.0,60.0,60.0,3.0,0.0
1148,54.0,60.0,60.0,8.0,0.0
1149,54.0,0.0,60.0,5.0,0.0
1150,66.0,0.0,60.0,3.0,0.0
1151,56.0,0.0,120.0,8.0,0.0
1152,56.0,0.0,120.0,5.0,0.0
1153,64.0,53.0,60.0,3.0,0.0
1154,63.0,60.0,60.0,3.0,0.0
1155,49.0,0.0,120.0,8.0,0.0
1156,70.0,0.0,360.0,7.0,0.0
1157,64.0,53.0,60.0,3.0,0.0
1158,49.0,0.0,120.0,5.0,0.0
1159,70.0,7.0,360.0,1.0,0.0
1160,61.0,60.0,60.0,3.0,0.0
1161,58.0,0.0,60.0,3.0,0.0
1162,51.0,0.0,120.0,8.0,0.0
1163,55.0,53.0,60.0,4.0,0.0
1164,51.0,7.0,120.0,5.0,0.0
1165,59.0,0.0,60.0,3.0,0.0
1166,56.0,60.0,60.0,4.0,0.0
1167,58.0,0.0,60.0,4.0,0.0
1168,61.0,53.0,60.0,3.0,0.0
1169,49.0,0.0,120.0,5.0,0.0
1170,49.0,0.0,120.0,8.0,0.0
1171,55.0,0.0,60.0,4.0,0.0
1172,58.0,60.0,60.0,3.0,0.0
1173,68.0,0.0,360.0,7.0,0.0
1174,68.0,0.0,360.0,1.0,0.0
1175,47.0,7.0,120.0,5.0,0.0
1176,47.0,0.0,120.0,8.0,0.0
1177,63.0,0.0,60.0,3.0,0.0
1178,59.0,53.0,60.0,4.0,0.0
1179,61.0,0.0,60.0,3.0,0.0
1180,58.0,60.0,60.0,4.0,0.0
1181,59.0,53.0,60.0,3.0,0.0
1182,52.0,7.0,120.0,5.0,0.0
1183,56.0,0.0,60.0,4.0,0.0
1184,52.0,0.0,120.0,8.0,0.0
1185,58.0,60.0,60.0,4.0,0.0
1186,61.0,0.0,60.0,3.0,0.0
1187,63.0,53.0,60.0,3.0,0.0
1188,59.0,0.0,60.0,4.0,0.0
1189,51.0,0.0,120.0,8.0,0.0
1190,51.0,7.0,120.0,5.0,0.0
1191,59.0,60.0,60.0,3.0,0.0
1192,56.0,0.0,60.0,4.0,0.0
1193,49.0,7.0,180.0,5.0,0.0
1194,64.0,60.0,60.0,3.0,0.0
1195,61.0,0.0,60.0,4.0,0.0
1196,49.0,0.0,180.0,8.0,0.0
1197,70.0,0.0,360.0,1.0,0.0
1198,70.0,15.0,360.0,7.0,0.0
1199,66.0,53.0,60.0,3.0,0.0
1200,63.0,0.0,60.0,4.0,0.0
1201,64.0,0.0,60.0,3.0,0.0
1202,61.0,60.0,60.0,4.0,0.0
1203,51.0,0.0,60.0,5.0,0.0
1204,51.0,0.0,60.0,8.0,0.0
1205,63.0,0.0,60.0,3.0,0.0
1206,59.0,60.0,60.0,4.0,0.0
1207,61.0,53.0,60.0,3.0,0.0
1208,52.0,0.0,120.0,8.0,0.0
1209,52.0,7.0,120.0,5.0,0.0
1210,58.0,0.0,60.0,4.0,0.0
1211,56.0,21.0,60.0,4.0,0.0
1212,59.0,0.0,60.0,3.0,0.0
1213,61.0,6.0,60.0,3.0,0.0
1214,46.0,0.0,120.0,8.0,0.0
1215,46.0,7.0,120.0,5.0,0.0
1216,55.0,7.0,360.0,4.0,0.0
1217,71.0,0.0,15.0,1.0,0.0
1218,71.0,15.0,15.0,7.0,0.0
1219,70.0,0.0,15.0,7.0,0.0
1220,70.0,9.0,15.0,1.0,0.0
1221,71.0,0.0,15.0,7.0,0.0
1222,71.0,15.0,15.0,1.0,0.0
1223,70.0,0.0,15.0,7.0,0.0
1224,64.0,6.0,60.0,3.0,0.0
1225,70.0,15.0,15.0,1.0,0.0
1226,71.0,0.0,15.0,1.0,0.0
1227,71.0,15.0,15.0,7.0,0.0
1228,70.0,0.0,15.0,7.0,0.0
1229,70.0,2.0,15.0,1.0,0.0
1230,71.0,15.0,15.0,7.0,0.0
1231,71.0,0.0,15.0,1.0,0.0
1232,70.0,0.0,15.0,1.0,0.0
1233,51.0,0.0,120.0,5.0,0.0
1234,63.0,6.0,60.0,3.0,0.0
1235,70.0,15.0,15.0,7.0,0.0
1236,51.0,7.0,120.0,8.0,0.0
1237,71.0,0.0,15.0,1.0,0.0
1238,71.0,15.0,15.0,7.0,0.0
1239,70.0,0.0,15.0,1.0,0.0
1240,70.0,9.0,15.0,7.0,0.0
1241,71.0,15.0,15.0,7.0,0.0
1242,71.0,0.0,15.0,1.0,0.0
1243,70.0,15.0,15.0,7.0,0.0
1244,70.0,0.0,15.0,1.0,0.0
1245,61.0,6.0,60.0,3.0,0.0
1246,71.0,15.0,15.0,7.0,0.0
1247,71.0,0.0,15.0,1.0,0.0
1248,70.0,0.0,15.0,7.0,0.0
1249,70.0,2.0,15.0,1.0,0.0
1250,71.0,54.0,15.0,7.0,0.0
1251,71.0,0.0,15.0,1.0,0.0
1252,70.0,0.0,120.0,1.0,0.0
1253,60.0,53.0,60.0,3.0,0.0
1254,70.0,0.0,120.0,7.0,0.0
1255,52.0,0.0,120.0,5.0,0.0
1256,52.0,0.0,120.0,8.0,0.0
1257,61.0,60.0,60.0,3.0,0.0
1258,60.0,60.0,60.0,3.0,0.0
1259,68.0,0.0,360.0,7.0,0.0
1260,56.0,0.0,60.0,4.0,0.0
1261,68.0,7.0,360.0,1.0,0.0
1262,54.0,0.0,180.0,8.0,0.0
1263,54.0,7.0,180.0,5.0,0.0
1264,58.0,0.0,60.0,4.0,0.0
1265,61.0,53.0,60.0,3.0,0.0
1266,60.0,0.0,60.0,4.0,0.0
1267,63.0,60.0,60.0,3.0,0.0
1268,52.0,0.0,60.0,5.0,0.0
1269,64.0,0.0,60.0,3.0,0.0
1270,52.0,60.0,60.0,8.0,0.0
1271,61.0,0.0,60.0,4.0,0.0
1272,51.0,0.0,120.0,8.0,0.0
1273,66.0,53.0,60.0,3.0,0.0
1274,58.0,0.0,60.0,4.0,0.0
1275,51.0,0.0,120.0,5.0,0.0
1276,63.0,0.0,60.0,3.0,0.0
1277,60.0,60.0,60.0,4.0,0.0
1278,52.0,0.0,120.0,5.0,0.0
1279,61.0,53.0,60.0,4.0,0.0
1280,68.0,60.0,180.0,3.0,0.0
1281,52.0,7.0,120.0,8.0,0.0
1282,63.0,53.0,60.0,4.0,0.0
1283,49.0,0.0,120.0,5.0,0.0
1284,49.0,0.0,120.0,8.0,0.0
1285,64.0,7.0,120.0,4.0,0.0
1286,70.0,60.0,60.0,3.0,0.0
1287,51.0,0.0,120.0,5.0,0.0
1288,63.0,53.0,60.0,4.0,0.0
1289,67.0,7.0,120.0,3.0,0.0
1290,51.0,0.0,120.0,8.0,0.0
1291,61.0,60.0,60.0,4.0,0.0
1292,44.0,53.0,60.0,5.0,0.0
1293,44.0,0.0,60.0,8.0,0.0
1294,68.0,0.0,120.0,3.0,0.0
1295,59.0,7.0,120.0,4.0,0.0
1296,40.0,60.0,60.0,5.0,0.0
1297,40.0,0.0,60.0,8.0,0.0
1298,39.0,60.0,60.0,5.0,0.0
1299,39.0,0.0,60.0,8.0,0.0
1300,37.0,60.0,60.0,5.0,0.0
1301,37.0,0.0,60.0,8.0,0.0
1302,35.0,0.0,60.0,8.0,0.0
1303,35.0,60.0,60.0,5.0,0.0
1304,34.0,0.0,60.0,5.0,0.0
1305,34.0,113.0,60.0,8.0,0.0
1306,32.0,0.0,120.0,8.0,0.0
1307,32.0,67.0,120.0,5.0,0.0
1308,42.0,0.0,120.0,8.0,0.0
1309,63.0,0.0,60.0,6.0,0.0
1310,59.0,8.0,60.0,4.0,0.0
1311,42.0,7.0,120.0,5.0,0.0
1312,63.0,30.0,60.0,0.0,0.0
1313,63.0,15.0,180.0,3.0,0.0
1314,58.0,4.0,60.0,4.0,0.0
1315,62.0,0.0,30.0,0.0,0.0
1316,62.0,15.0,30.0,6.0,0.0
1317,63.0,0.0,30.0,6.0,0.0
1318,63.0,49.0,30.0,0.0,0.0
1319,56.0,0.0,120.0,4.0,0.0
1320,41.0,7.0,120.0,8.0,0.0
1321,65.0,30.0,60.0,0.0,0.0
1322,65.0,0.0,60.0,6.0,0.0
1323,41.0,0.0,120.0,5.0,0.0
1324,66.0,5.0,30.0,6.0,0.0
1325,62.0,4.0,60.0,3.0,0.0
1326,66.0,10.0,30.0,0.0,0.0
1327,68.0,109.0,30.0,0.0,0.0
1328,68.0,0.0,30.0,6.0,0.0
1329,63.0,53.0,420.0,3.0,0.0
1330,58.0,60.0,180.0,4.0,0.0
1331,39.0,60.0,120.0,8.0,0.0
1332,39.0,0.0,120.0,5.0,0.0
1333,66.0,0.0,180.0,0.0,0.0
1334,66.0,0.0,180.0,6.0,0.0
1335,51.0,0.0,120.0,8.0,0.0
1336,51.0,7.0,120.0,5.0,0.0
1337,65.0,113.0,60.0,0.0,0.0
1338,56.0,0.0,60.0,4.0,0.0
1339,65.0,0.0,60.0,6.0,0.0
1340,49.0,67.0,120.0,8.0,0.0
1341,63.0,0.0,120.0,0.0,0.0
1342,54.0,0.0,360.0,4.0,0.0
1343,63.0,0.0,120.0,6.0,0.0
1344,49.0,0.0,120.0,5.0,0.0
1345,47.0,7.0,120.0,8.0,0.0
1346,47.0,0.0,120.0,5.0,0.0
1347,61.0,60.0,60.0,3.0,0.0
1348,59.0,26.0,60.0,3.0,0.0
1349,68.0,27.0,90.0,6.0,0.0
1350,44.0,0.0,120.0,8.0,0.0
1351,44.0,7.0,120.0,5.0,0.0
1352,68.0,0.0,90.0,0.0,0.0
1353,58.0,4.0,60.0,3.0,0.0
1354,70.0,82.0,30.0,6.0,0.0
1355,70.0,0.0,30.0,0.0,0.0
1356,49.0,0.0,120.0,8.0,0.0
1357,49.0,0.0,120.0,5.0,0.0
1358,71.0,27.0,90.0,6.0,0.0
1359,56.0,0.0,120.0,3.0,0.0
1360,71.0,0.0,90.0,0.0,0.0
1361,53.0,11.0,120.0,4.0,0.0
1362,73.0,56.0,30.0,6.0,0.0
1363,73.0,0.0,30.0,0.0,0.0
1364,54.0,0.0,480.0,4.0,0.0
1365,70.0,0.0,240.0,0.0,0.0
1366,42.0,0.0,120.0,5.0,0.0
1367,42.0,7.0,120.0,8.0,0.0
1368,70.0,7.0,240.0,6.0,0.0
1369,58.0,53.0,60.0,3.0,0.0
1370,56.0,60.0,60.0,3.0,0.0
1371,58.0,53.0,60.0,3.0,0.0
1372,51.0,0.0,120.0,5.0,0.0
1373,51.0,0.0,120.0,8.0,0.0
1374,59.0,60.0,60.0,3.0,0.0
1375,70.0,0.0,120.0,6.0,0.0
1376,49.0,0.0,120.0,5.0,0.0
1377,70.0,7.0,120.0,0.0,0.0
1378,61.0,53.0,60.0,3.0,0.0
1379,49.0,0.0,120.0,8.0,0.0
1380,58.0,113.0,60.0,3.0,0.0
1381,48.0,7.0,180.0,5.0,0.0
1382,48.0,0.0,180.0,8.0,0.0
1383,63.0,7.0,120.0,3.0,0.0
1384,70.0,0.0,60.0,0.0,0.0
1385,70.0,53.0,60.0,6.0,0.0
1386,53.0,7.0,120.0,4.0,0.0
1387,58.0,53.0,300.0,3.0,0.0
1388,68.0,53.0,60.0,6.0,0.0
1389,68.0,0.0,60.0,0.0,0.0
1390,66.0,0.0,60.0,0.0,0.0
1391,50.0,0.0,60.0,8.0,0.0
1392,66.0,0.0,60.0,6.0,0.0
1393,50.0,60.0,60.0,5.0,0.0
1394,51.0,0.0,120.0,8.0,0.0
1395,65.0,0.0,60.0,6.0,0.0
1396,54.0,11.0,120.0,4.0,0.0
1397,65.0,34.0,60.0,0.0,0.0
1398,51.0,0.0,120.0,5.0,0.0
1399,66.0,19.0,30.0,6.0,0.0
1400,66.0,0.0,30.0,0.0,0.0
1401,63.0,0.0,30.0,6.0,0.0
1402,63.0,17.0,30.0,0.0,0.0
1403,70.0,0.0,15.0,0.0,0.0
1404,50.0,0.0,120.0,8.0,0.0
1405,53.0,0.0,60.0,4.0,0.0
1406,50.0,7.0,120.0,5.0,0.0
1407,70.0,15.0,15.0,6.0,0.0
1408,68.0,0.0,15.0,6.0,0.0
1409,68.0,24.0,15.0,0.0,0.0
1410,70.0,0.0,180.0,6.0,0.0
1411,70.0,0.0,180.0,0.0,0.0
1412,60.0,60.0,60.0,3.0,0.0
1413,51.0,0.0,60.0,4.0,0.0
1414,58.0,0.0,120.0,5.0,0.0
1415,53.0,0.0,60.0,4.0,0.0
1416,62.0,53.0,60.0,3.0,0.0
1417,58.0,7.0,120.0,8.0,0.0
1418,54.0,60.0,60.0,4.0,0.0
1419,63.0,0.0,60.0,3.0,0.0
1420,65.0,0.0,60.0,3.0,0.0
1421,56.0,0.0,120.0,5.0,0.0
1422,56.0,53.0,60.0,4.0,0.0
1423,56.0,7.0,120.0,8.0,0.0
1424,62.0,0.0,60.0,3.0,0.0
1425,53.0,60.0,60.0,4.0,0.0
1426,58.0,0.0,60.0,4.0,0.0
1427,54.0,0.0,180.0,8.0,0.0
1428,66.0,60.0,60.0,3.0,0.0
1429,54.0,7.0,180.0,5.0,0.0
1430,68.0,53.0,60.0,3.0,0.0
1431,59.0,0.0,60.0,4.0,0.0
1432,66.0,0.0,60.0,3.0,0.0
1433,58.0,60.0,60.0,4.0,0.0
1434,56.0,60.0,60.0,5.0,0.0
1435,56.0,0.0,60.0,8.0,0.0
1436,65.0,0.0,60.0,3.0,0.0
1437,56.0,0.0,60.0,4.0,0.0
1438,63.0,0.0,60.0,3.0,0.0
1439,58.0,0.0,120.0,5.0,0.0
1440,58.0,7.0,120.0,8.0,0.0
1441,54.0,53.0,60.0,4.0,0.0
1442,53.0,0.0,60.0,4.0,0.0
1443,62.0,60.0,60.0,3.0,0.0
1444,63.0,0.0,480.0,2.0,0.0
1445,63.0,0.0,360.0,1.0,0.0
1446,51.0,0.0,120.0,5.0,0.0
1447,51.0,7.0,120.0,8.0,0.0
1448,63.0,7.0,360.0,7.0,0.0
1449,54.0,0.0,360.0,4.0,0.0
1450,63.0,53.0,60.0,3.0,0.0
1451,58.0,60.0,60.0,3.0,0.0
1452,63.0,53.0,60.0,3.0,0.0
1453,47.0,7.0,120.0,8.0,0.0
1454,47.0,0.0,120.0,5.0,0.0
1455,65.0,60.0,60.0,3.0,0.0
1456,46.0,0.0,120.0,5.0,0.0
1457,46.0,0.0,120.0,8.0,0.0
1458,63.0,53.0,60.0,3.0,0.0
1459,61.0,60.0,60.0,3.0,0.0
1460,44.0,7.0,120.0,5.0,0.0
1461,65.0,0.0,360.0,1.0,0.0
1462,56.0,53.0,60.0,4.0,0.0
1463,65.0,0.0,360.0,7.0,0.0
1464,59.0,0.0,120.0,3.0,0.0
1465,44.0,0.0,120.0,8.0,0.0
1466,54.0,60.0,60.0,4.0,0.0
1467,46.0,0.0,120.0,8.0,0.0
1468,58.0,60.0,300.0,3.0,0.0
1469,62.0,53.0,60.0,2.0,0.0
1470,53.0,0.0,60.0,4.0,0.0
1471,46.0,7.0,120.0,5.0,0.0
1472,51.0,0.0,60.0,4.0,0.0
1473,60.0,60.0,60.0,2.0,0.0
1474,53.0,53.0,60.0,4.0,0.0
1475,62.0,7.0,120.0,2.0,0.0
1476,44.0,0.0,120.0,8.0,0.0
1477,44.0,0.0,120.0,5.0,0.0
1478,50.0,60.0,60.0,4.0,0.0
1479,42.0,7.0,180.0,8.0,0.0
1480,66.0,0.0,360.0,7.0,0.0
1481,66.0,7.0,360.0,1.0,0.0
1482,63.0,0.0,360.0,2.0,0.0
1483,42.0,0.0,180.0,5.0,0.0
1484,46.0,0.0,480.0,4.0,0.0
1485,59.0,53.0,60.0,3.0,0.0
1486,58.0,60.0,60.0,3.0,0.0
1487,44.0,60.0,60.0,5.0,0.0
1488,56.0,0.0,60.0,3.0,0.0
1489,44.0,0.0,60.0,8.0,0.0
1490,54.0,53.0,60.0,3.0,0.0
1491,46.0,0.0,120.0,8.0,0.0
1492,46.0,0.0,120.0,5.0,0.0
1493,53.0,60.0,60.0,3.0,0.0
1494,66.0,7.0,360.0,1.0,0.0
1495,39.0,0.0,120.0,5.0,0.0
1496,51.0,53.0,60.0,3.0,0.0
1497,63.0,60.0,420.0,2.0,0.0
1498,39.0,7.0,120.0,8.0,0.0
1499,66.0,0.0,360.0,7.0,0.0
1500,53.0,60.0,60.0,3.0,0.0
1501,51.0,7.0,120.0,5.0,0.0
1502,51.0,0.0,120.0,8.0,0.0
1503,51.0,53.0,60.0,4.0,0.0
1504,54.0,0.0,60.0,3.0,0.0
1505,56.0,60.0,60.0,3.0,0.0
1506,53.0,0.0,60.0,4.0,0.0
1507,49.0,0.0,120.0,8.0,0.0
1508,54.0,53.0,60.0,4.0,0.0
1509,49.0,0.0,120.0,5.0,0.0
1510,58.0,0.0,120.0,3.0,0.0
1511,53.0,60.0,60.0,4.0,0.0
1512,68.0,0.0,360.0,1.0,0.0
1513,47.0,7.0,180.0,8.0,0.0
1514,68.0,7.0,360.0,7.0,0.0
1515,59.0,0.0,60.0,3.0,0.0
1516,47.0,0.0,180.0,5.0,0.0
1517,51.0,0.0,360.0,4.0,0.0
1518,65.0,0.0,60.0,2.0,0.0
1519,58.0,53.0,60.0,3.0,0.0
1520,66.0,60.0,60.0,2.0,0.0
1521,56.0,0.0,60.0,3.0,0.0
1522,58.0,0.0,60.0,3.0,0.0
1523,65.0,60.0,60.0,2.0,0.0
1524,49.0,0.0,60.0,8.0,0.0
1525,49.0,0.0,60.0,5.0,0.0
1526,51.0,0.0,120.0,5.0,0.0
1527,51.0,0.0,120.0,8.0,0.0
1528,66.0,0.0,120.0,2.0,0.0
1529,56.0,53.0,60.0,3.0,0.0
1530,54.0,21.0,60.0,3.0,0.0
1531,68.0,0.0,15.0,1.0,0.0
1532,44.0,7.0,120.0,5.0,0.0
1533,44.0,0.0,120.0,8.0,0.0
1534,59.0,6.0,60.0,3.0,0.0
1535,65.0,0.0,360.0,2.0,0.0
1536,56.0,0.0,60.0,4.0,0.0
1537,68.0,15.0,15.0,7.0,0.0
1538,70.0,0.0,15.0,7.0,0.0
1539,70.0,15.0,15.0,1.0,0.0
1540,68.0,0.0,15.0,7.0,0.0
1541,68.0,9.0,15.0,1.0,0.0
1542,70.0,0.0,15.0,7.0,0.0
1543,70.0,15.0,15.0,1.0,0.0
1544,58.0,0.0,60.0,3.0,0.0
1545,68.0,0.0,15.0,1.0,0.0
1546,68.0,15.0,15.0,7.0,0.0
1547,54.0,6.0,60.0,4.0,0.0
1548,70.0,0.0,15.0,1.0,0.0
1549,70.0,15.0,15.0,7.0,0.0
1550,68.0,2.0,15.0,1.0,0.0
1551,68.0,0.0,15.0,7.0,0.0
1552,70.0,15.0,15.0,1.0,0.0
1553,70.0,0.0,15.0,7.0,0.0
1554,68.0,0.0,15.0,1.0,0.0
1555,49.0,7.0,120.0,5.0,0.0
1556,49.0,0.0,120.0,8.0,0.0
1557,53.0,6.0,60.0,4.0,0.0
1558,56.0,0.0,240.0,3.0,0.0
1559,68.0,15.0,15.0,7.0,0.0
1560,70.0,0.0,15.0,7.0,0.0
1561,70.0,15.0,15.0,1.0,0.0
1562,68.0,9.0,15.0,1.0,0.0
1563,68.0,0.0,15.0,7.0,0.0
1564,70.0,15.0,15.0,1.0,0.0
1565,70.0,0.0,15.0,7.0,0.0
1566,68.0,0.0,15.0,7.0,0.0
1567,68.0,15.0,15.0,1.0,0.0
1568,54.0,6.0,60.0,4.0,0.0
1569,70.0,0.0,15.0,7.0,0.0
1570,70.0,15.0,15.0,1.0,0.0
1571,68.0,2.0,15.0,7.0,0.0
1572,68.0,0.0,15.0,1.0,0.0
1573,70.0,0.0,15.0,1.0,0.0
1574,70.0,54.0,15.0,7.0,0.0
1575,47.0,0.0,120.0,8.0,0.0
1576,68.0,0.0,120.0,1.0,0.0
1577,53.0,53.0,60.0,4.0,0.0
1578,47.0,0.0,120.0,5.0,0.0
1579,68.0,7.0,120.0,7.0,0.0
1580,51.0,60.0,60.0,4.0,0.0
1581,49.0,60.0,60.0,4.0,0.0
1582,46.0,7.0,180.0,8.0,0.0
1583,70.0,0.0,360.0,1.0,0.0
1584,66.0,7.0,360.0,2.0,0.0
1585,46.0,0.0,180.0,5.0,0.0
1586,61.0,0.0,300.0,3.0,0.0
1587,70.0,0.0,360.0,7.0,0.0
1588,53.0,53.0,60.0,4.0,0.0
1589,54.0,60.0,60.0,4.0,0.0
1590,47.0,60.0,60.0,5.0,0.0
1591,47.0,0.0,60.0,8.0,0.0
1592,56.0,0.0,60.0,4.0,0.0
1593,49.0,0.0,120.0,5.0,0.0
1594,58.0,53.0,60.0,4.0,0.0
1595,49.0,0.0,120.0,8.0,0.0
1596,63.0,0.0,60.0,3.0,0.0
1597,59.0,60.0,60.0,4.0,0.0
1598,42.0,0.0,180.0,5.0,0.0
1599,66.0,7.0,360.0,2.0,0.0
1600,70.0,0.0,360.0,7.0,0.0
1601,64.0,0.0,60.0,3.0,0.0
1602,70.0,0.0,360.0,1.0,0.0
1603,42.0,7.0,180.0,8.0,0.0
1604,61.0,60.0,60.0,4.0,0.0
1605,59.0,0.0,60.0,4.0,0.0
1606,63.0,53.0,60.0,3.0,0.0
1607,61.0,0.0,60.0,3.0,0.0
1608,58.0,60.0,60.0,4.0,0.0
1609,59.0,0.0,60.0,3.0,0.0
1610,44.0,0.0,60.0,8.0,0.0
1611,44.0,0.0,60.0,5.0,0.0
1612,56.0,60.0,60.0,4.0,0.0
1613,46.0,0.0,120.0,8.0,0.0
1614,46.0,0.0,120.0,5.0,0.0
1615,54.0,0.0,60.0,4.0,0.0
1616,58.0,53.0,60.0,3.0,0.0
1617,56.0,60.0,60.0,3.0,0.0
1618,52.0,0.0,60.0,4.0,0.0
1619,54.0,60.0,60.0,3.0,0.0
1620,51.0,0.0,180.0,4.0,0.0
1621,47.0,0.0,180.0,5.0,0.0
1622,47.0,7.0,180.0,8.0,0.0
1623,55.0,53.0,60.0,3.0,0.0
1624,56.0,60.0,60.0,3.0,0.0
1625,75.0,0.0,60.0,6.0,0.0
1626,75.0,0.0,60.0,0.0,0.0
1627,52.0,0.0,60.0,4.0,0.0
1628,49.0,0.0,60.0,5.0,0.0
1629,73.0,0.0,60.0,6.0,0.0
1630,73.0,0.0,60.0,0.0,0.0
1631,58.0,0.0,60.0,3.0,0.0
1632,49.0,60.0,60.0,8.0,0.0
1633,51.0,53.0,180.0,4.0,0.0
1634,51.0,0.0,120.0,8.0,0.0
1635,51.0,7.0,120.0,5.0,0.0
1636,71.0,0.0,60.0,6.0,0.0
1637,56.0,0.0,60.0,3.0,0.0
1638,71.0,34.0,60.0,0.0,0.0
1639,55.0,4.0,60.0,3.0,0.0
1640,73.0,19.0,30.0,6.0,0.0
1641,73.0,0.0,30.0,0.0,0.0
1642,70.0,56.0,30.0,6.0,0.0
1643,70.0,0.0,30.0,0.0,0.0
1644,56.0,7.0,120.0,3.0,0.0
1645,44.0,0.0,120.0,5.0,0.0
1646,44.0,0.0,120.0,8.0,0.0
1647,71.0,0.0,180.0,0.0,0.0
1648,71.0,7.0,180.0,6.0,0.0
1649,55.0,53.0,60.0,4.0,0.0
1650,56.0,7.0,120.0,8.0,0.0
1651,63.0,0.0,240.0,3.0,0.0
1652,56.0,0.0,120.0,5.0,0.0
1653,56.0,53.0,60.0,4.0,0.0
1654,58.0,0.0,60.0,4.0,0.0
1655,73.0,113.0,60.0,0.0,0.0
1656,73.0,0.0,60.0,6.0,0.0
1657,54.0,0.0,120.0,8.0,0.0
1658,75.0,0.0,120.0,0.0,0.0
1659,59.0,60.0,180.0,4.0,0.0
1660,54.0,67.0,120.0,5.0,0.0
1661,75.0,0.0,120.0,6.0,0.0
1662,53.0,0.0,180.0,5.0,0.0
1663,53.0,7.0,180.0,8.0,0.0
1664,61.0,0.0,600.0,3.0,0.0
1665,58.0,53.0,60.0,4.0,0.0
1666,68.0,7.0,120.0,0.0,0.0
1667,56.0,53.0,60.0,4.0,0.0
1668,68.0,0.0,120.0,6.0,0.0
1669,51.0,68.0,60.0,5.0,0.0
1670,54.0,0.0,60.0,4.0,0.0
1671,51.0,0.0,60.0,8.0,0.0
1672,70.0,0.0,60.0,0.0,0.0
1673,49.0,11.0,120.0,8.0,0.0
1674,53.0,0.0,120.0,4.0,0.0
1675,49.0,0.0,120.0,5.0,0.0
1676,70.0,30.0,60.0,6.0,0.0
1677,71.0,0.0,30.0,6.0,0.0
1678,71.0,15.0,30.0,0.0,0.0
1679,73.0,0.0,30.0,6.0,0.0
1680,73.0,109.0,30.0,0.0,0.0
1681,54.0,0.0,120.0,8.0,0.0
1682,70.0,60.0,180.0,0.0,0.0
1683,54.0,53.0,420.0,4.0,0.0
1684,70.0,0.0,180.0,6.0,0.0
1685,54.0,60.0,120.0,5.0,0.0
1686,42.0,7.0,120.0,5.0,0.0
1687,42.0,0.0,120.0,8.0,0.0
1688,68.0,68.0,60.0,6.0,0.0
1689,68.0,0.0,60.0,0.0,0.0
1690,46.0,0.0,120.0,8.0,0.0
1691,66.0,0.0,60.0,0.0,0.0
1692,46.0,11.0,120.0,5.0,0.0
1693,66.0,30.0,60.0,6.0,0.0
1694,61.0,0.0,240.0,3.0,0.0
1695,68.0,15.0,30.0,6.0,0.0
1696,68.0,0.0,30.0,0.0,0.0
1697,70.0,56.0,30.0,6.0,0.0
1698,70.0,0.0,30.0,0.0,0.0
1699,47.0,7.0,180.0,8.0,0.0
1700,63.0,0.0,120.0,6.0,0.0
1701,47.0,0.0,180.0,5.0,0.0
1702,63.0,7.0,120.0,0.0,0.0
1703,53.0,53.0,60.0,4.0,0.0
1704,59.0,0.0,240.0,3.0,0.0
1705,68.0,53.0,60.0,6.0,0.0
1706,51.0,7.0,120.0,4.0,0.0
1707,68.0,0.0,60.0,0.0,0.0
1708,66.0,0.0,60.0,0.0,0.0
1709,46.0,60.0,60.0,5.0,0.0
1710,66.0,0.0,60.0,6.0,0.0
1711,46.0,0.0,60.0,8.0,0.0
1712,44.0,7.0,120.0,5.0,0.0
1713,44.0,0.0,120.0,8.0,0.0
1714,65.0,0.0,60.0,0.0,0.0
1715,56.0,0.0,60.0,4.0,0.0
1716,65.0,34.0,60.0,6.0,0.0
1717,66.0,0.0,30.0,0.0,0.0
1718,54.0,4.0,60.0,4.0,0.0
1719,66.0,19.0,30.0,6.0,0.0
1720,63.0,0.0,30.0,6.0,0.0
1721,63.0,109.0,30.0,0.0,0.0
1722,62.0,0.0,180.0,6.0,0.0
1723,62.0,60.0,180.0,0.0,0.0
1724,58.0,0.0,180.0,3.0,0.0
1725,46.0,0.0,120.0,5.0,0.0
1726,53.0,0.0,360.0,4.0,0.0
1727,46.0,60.0,120.0,8.0,0.0
1728,58.0,0.0,120.0,5.0,0.0
1729,58.0,7.0,120.0,8.0,0.0
1730,60.0,0.0,60.0,3.0,0.0
1731,60.0,0.0,60.0,6.0,0.0
1732,60.0,60.0,60.0,0.0,0.0
1733,58.0,7.0,120.0,0.0,0.0
1734,58.0,0.0,120.0,6.0,0.0
1735,62.0,53.0,60.0,3.0,0.0
1736,56.0,0.0,120.0,8.0,0.0
1737,56.0,0.0,120.0,5.0,0.0
1738,58.0,60.0,60.0,3.0,0.0
1739,58.0,0.0,60.0,4.0,0.0
1740,63.0,60.0,60.0,3.0,0.0
1741,54.0,0.0,180.0,8.0,0.0
1742,54.0,7.0,180.0,5.0,0.0
1743,59.0,53.0,60.0,4.0,0.0
1744,68.0,0.0,60.0,3.0,0.0
1745,58.0,0.0,60.0,4.0,0.0
1746,66.0,60.0,60.0,3.0,0.0
1747,56.0,0.0,60.0,4.0,0.0
1748,65.0,0.0,60.0,3.0,0.0
1749,56.0,0.0,60.0,5.0,0.0
1750,56.0,60.0,60.0,8.0,0.0
1751,58.0,7.0,120.0,5.0,0.0
1752,54.0,0.0,60.0,4.0,0.0
1753,63.0,53.0,60.0,3.0,0.0
1754,58.0,0.0,120.0,8.0,0.0
1755,53.0,113.0,60.0,4.0,0.0
1756,62.0,0.0,60.0,3.0,0.0
1757,63.0,0.0,120.0,3.0,0.0
1758,70.0,0.0,360.0,1.0,0.0
1759,54.0,0.0,120.0,4.0,0.0
1760,51.0,0.0,120.0,8.0,0.0
1761,70.0,0.0,360.0,7.0,0.0
1762,51.0,7.0,120.0,5.0,0.0
1763,58.0,60.0,60.0,2.0,0.0
1764,51.0,0.0,120.0,5.0,0.0
1765,51.0,7.0,120.0,8.0,0.0
1766,63.0,53.0,60.0,2.0,0.0
1767,66.0,60.0,60.0,2.0,0.0
1768,65.0,53.0,60.0,2.0,0.0
1769,49.0,7.0,120.0,5.0,0.0
1770,49.0,0.0,120.0,8.0,0.0
1771,68.0,120.0,60.0,2.0,0.0
1772,47.0,0.0,180.0,5.0,0.0
1773,70.0,0.0,360.0,7.0,0.0
1774,70.0,0.0,360.0,1.0,0.0
1775,47.0,7.0,180.0,8.0,0.0
1776,67.0,7.0,360.0,2.0,0.0
1777,58.0,53.0,60.0,3.0,0.0
1778,63.0,60.0,60.0,3.0,0.0
1779,49.0,0.0,60.0,5.0,0.0
1780,49.0,0.0,60.0,8.0,0.0
1781,59.0,60.0,60.0,3.0,0.0
1782,51.0,0.0,120.0,8.0,0.0
1783,61.0,53.0,60.0,3.0,0.0
1784,51.0,0.0,120.0,5.0,0.0
1785,58.0,113.0,60.0,3.0,0.0
1786,44.0,7.0,120.0,5.0,0.0
1787,44.0,0.0,120.0,8.0,0.0
1788,71.0,0.0,360.0,7.0,0.0
1789,71.0,0.0,360.0,1.0,0.0
1790,63.0,0.0,120.0,3.0,0.0
1791,68.0,0.0,480.0,2.0,0.0
1792,51.0,60.0,60.0,4.0,0.0
1793,56.0,53.0,60.0,4.0,0.0
1794,41.0,0.0,120.0,5.0,0.0
1795,41.0,7.0,120.0,8.0,0.0
1796,62.0,0.0,120.0,3.0,0.0
1797,53.0,60.0,60.0,4.0,0.0
1798,63.0,7.0,120.0,3.0,0.0
1799,54.0,53.0,60.0,4.0,0.0
1800,39.0,0.0,120.0,5.0,0.0
1801,39.0,0.0,120.0,8.0,0.0
1802,51.0,60.0,60.0,4.0,0.0
1803,38.0,0.0,60.0,5.0,0.0
1804,70.0,7.0,360.0,7.0,0.0
1805,38.0,53.0,60.0,8.0,0.0
1806,70.0,0.0,360.0,1.0,0.0
1807,58.0,0.0,360.0,4.0,0.0
1808,65.0,7.0,120.0,3.0,0.0
1809,50.0,60.0,60.0,8.0,0.0
1810,50.0,0.0,60.0,5.0,0.0
1811,63.0,0.0,60.0,3.0,0.0
1812,66.0,60.0,60.0,2.0,0.0
1813,51.0,0.0,60.0,8.0,0.0
1814,51.0,0.0,60.0,5.0,0.0
1815,47.0,0.0,60.0,5.0,0.0
1816,65.0,0.0,60.0,2.0,0.0
1817,47.0,60.0,60.0,8.0,0.0
1818,62.0,0.0,60.0,3.0,0.0
1819,49.0,0.0,60.0,8.0,0.0
1820,66.0,7.0,240.0,2.0,0.0
1821,63.0,0.0,240.0,3.0,0.0
1822,49.0,53.0,60.0,5.0,0.0
1823,46.0,60.0,60.0,5.0,0.0
1824,46.0,0.0,60.0,8.0,0.0
1825,68.0,0.0,360.0,7.0,0.0
1826,47.0,0.0,60.0,5.0,0.0
1827,68.0,0.0,360.0,1.0,0.0
1828,47.0,53.0,60.0,8.0,0.0
1829,51.0,0.0,120.0,4.0,0.0
1830,44.0,0.0,60.0,5.0,0.0
1831,44.0,60.0,60.0,8.0,0.0
1832,65.0,0.0,60.0,2.0,0.0
1833,53.0,7.0,240.0,4.0,0.0
1834,49.0,60.0,60.0,8.0,0.0
1835,49.0,0.0,60.0,5.0,0.0
1836,61.0,0.0,60.0,3.0,0.0
1837,46.0,60.0,60.0,8.0,0.0
1838,63.0,0.0,60.0,2.0,0.0
1839,59.0,0.0,60.0,3.0,0.0
1840,46.0,0.0,60.0,5.0,0.0
1841,61.0,7.0,240.0,3.0,0.0
1842,65.0,0.0,240.0,2.0,0.0
1843,47.0,0.0,60.0,8.0,0.0
1844,47.0,53.0,60.0,5.0,0.0
1845,44.0,0.0,60.0,8.0,0.0
1846,44.0,60.0,60.0,5.0,0.0
1847,46.0,0.0,60.0,8.0,0.0
1848,66.0,7.0,360.0,7.0,0.0
1849,54.0,0.0,300.0,4.0,0.0
1850,46.0,53.0,60.0,5.0,0.0
1851,66.0,0.0,360.0,1.0,0.0
1852,42.0,0.0,60.0,8.0,0.0
1853,42.0,60.0,60.0,5.0,0.0
1854,47.0,0.0,60.0,5.0,0.0
1855,47.0,0.0,60.0,8.0,0.0
1856,63.0,0.0,60.0,2.0,0.0
1857,59.0,60.0,60.0,3.0,0.0
1858,58.0,0.0,60.0,3.0,0.0
1859,62.0,0.0,60.0,2.0,0.0
1860,44.0,0.0,60.0,5.0,0.0
1861,44.0,60.0,60.0,8.0,0.0
1862,59.0,53.0,60.0,3.0,0.0
1863,46.0,0.0,60.0,5.0,0.0
1864,63.0,7.0,480.0,2.0,0.0
1865,46.0,0.0,60.0,8.0,0.0
1866,42.0,60.0,60.0,8.0,0.0
1867,51.0,0.0,60.0,4.0,0.0
1868,42.0,0.0,60.0,5.0,0.0
1869,58.0,0.0,60.0,3.0,0.0
1870,44.0,7.0,120.0,5.0,0.0
1871,56.0,53.0,60.0,4.0,0.0
1872,65.0,0.0,360.0,7.0,0.0
1873,59.0,0.0,360.0,3.0,0.0
1874,65.0,0.0,360.0,1.0,0.0
1875,44.0,0.0,120.0,8.0,0.0
1876,58.0,60.0,60.0,4.0,0.0
1877,42.0,0.0,120.0,5.0,0.0
1878,56.0,53.0,60.0,4.0,0.0
1879,42.0,7.0,120.0,8.0,0.0
1880,54.0,60.0,60.0,4.0,0.0
1881,44.0,0.0,120.0,5.0,0.0
1882,53.0,53.0,60.0,4.0,0.0
1883,44.0,0.0,120.0,8.0,0.0
1884,51.0,60.0,60.0,4.0,0.0
1885,46.0,0.0,180.0,8.0,0.0
1886,58.0,60.0,60.0,4.0,0.0
1887,46.0,0.0,180.0,5.0,0.0
1888,62.0,7.0,180.0,2.0,0.0
1889,58.0,0.0,180.0,3.0,0.0
1890,65.0,7.0,360.0,7.0,0.0
1891,65.0,0.0,360.0,1.0,0.0
1892,54.0,53.0,60.0,4.0,0.0
1893,53.0,60.0,60.0,4.0,0.0
1894,48.0,0.0,60.0,5.0,0.0
1895,51.0,60.0,60.0,4.0,0.0
1896,57.0,0.0,60.0,3.0,0.0
1897,48.0,0.0,60.0,8.0,0.0
1898,60.0,0.0,60.0,2.0,0.0
1899,58.0,53.0,180.0,2.0,0.0
1900,49.0,0.0,240.0,5.0,0.0
1901,58.0,53.0,60.0,3.0,0.0
1902,49.0,0.0,60.0,4.0,0.0
1903,49.0,7.0,240.0,8.0,0.0
1904,56.0,0.0,60.0,3.0,0.0
1905,47.0,60.0,60.0,4.0,0.0
1906,63.0,7.0,480.0,1.0,0.0
1907,63.0,0.0,480.0,7.0,0.0
1908,55.0,0.0,60.0,3.0,0.0
1909,46.0,0.0,360.0,4.0,0.0
1910,56.0,0.0,60.0,2.0,0.0
1911,53.0,60.0,60.0,3.0,0.0
1912,55.0,0.0,60.0,3.0,0.0
1913,58.0,53.0,60.0,2.0,0.0
1914,47.0,0.0,120.0,5.0,0.0
1915,47.0,7.0,120.0,8.0,0.0
1916,55.0,0.0,60.0,2.0,0.0
1917,51.0,60.0,60.0,3.0,0.0
1918,56.0,53.0,60.0,2.0,0.0
1919,46.0,0.0,120.0,5.0,0.0
1920,53.0,0.0,60.0,3.0,0.0
1921,46.0,7.0,120.0,8.0,0.0
1922,58.0,0.0,60.0,2.0,0.0
1923,55.0,60.0,60.0,3.0,0.0
1924,56.0,7.0,180.0,3.0,0.0
1925,59.0,53.0,60.0,2.0,0.0
1926,44.0,0.0,180.0,5.0,0.0
1927,51.0,0.0,960.0,4.0,0.0
1928,44.0,0.0,180.0,8.0,0.0
1929,58.0,53.0,60.0,2.0,0.0
1930,59.0,60.0,60.0,2.0,0.0
1931,46.0,0.0,60.0,5.0,0.0
1932,46.0,0.0,60.0,8.0,0.0
1933,55.0,0.0,60.0,3.0,0.0
1934,61.0,60.0,60.0,2.0,0.0
1935,63.0,53.0,60.0,2.0,0.0
1936,47.0,7.0,120.0,5.0,0.0
1937,47.0,0.0,120.0,8.0,0.0
1938,56.0,0.0,120.0,3.0,0.0
1939,64.0,60.0,60.0,2.0,0.0
1940,43.0,53.0,60.0,8.0,0.0
1941,58.0,7.0,120.0,2.0,0.0
1942,61.0,0.0,120.0,3.0,0.0
1943,43.0,0.0,60.0,5.0,0.0
1944,41.0,60.0,60.0,8.0,0.0
1945,41.0,0.0,60.0,5.0,0.0
1946,39.0,53.0,60.0,5.0,0.0
1947,39.0,0.0,60.0,8.0,0.0
1948,55.0,0.0,120.0,3.0,0.0
1949,75.0,7.0,120.0,0.0,0.0
1950,75.0,52.0,120.0,6.0,0.0
1951,41.0,0.0,60.0,5.0,0.0
1952,41.0,8.0,60.0,8.0,0.0
1953,43.0,0.0,60.0,8.0,0.0
1954,43.0,53.0,60.0,5.0,0.0
1955,58.0,0.0,240.0,3.0,0.0
1956,73.0,7.0,120.0,0.0,0.0
1957,73.0,105.0,120.0,6.0,0.0
1958,39.0,8.0,60.0,5.0,0.0
1959,39.0,0.0,60.0,8.0,0.0
1960,44.0,60.0,120.0,8.0,0.0
1961,71.0,7.0,180.0,0.0,0.0
1962,44.0,0.0,120.0,5.0,0.0
1963,71.0,45.0,180.0,6.0,0.0
1964,56.0,7.0,120.0,8.0,0.0
1965,56.0,8.0,60.0,3.0,0.0
1966,56.0,0.0,120.0,5.0,0.0
1967,73.0,105.0,60.0,6.0,0.0
1968,73.0,0.0,60.0,0.0,0.0
1969,58.0,8.0,60.0,3.0,0.0
1970,75.0,0.0,120.0,0.0,0.0
1971,59.0,53.0,180.0,3.0,0.0
1972,56.0,0.0,300.0,4.0,0.0
1973,54.0,15.0,120.0,8.0,0.0
1974,75.0,52.0,120.0,6.0,0.0
1975,54.0,0.0,120.0,5.0,0.0
1976,68.0,7.0,120.0,6.0,0.0
1977,68.0,0.0,120.0,0.0,0.0
1978,53.0,0.0,180.0,8.0,0.0
1979,53.0,7.0,180.0,5.0,0.0
1980,66.0,53.0,60.0,3.0,0.0
1981,80.0,7.0,120.0,0.0,0.0
1982,80.0,52.0,120.0,6.0,0.0
1983,65.0,53.0,60.0,3.0,0.0
1984,54.0,8.0,60.0,4.0,0.0
1985,54.0,0.0,60.0,5.0,0.0
1986,63.0,0.0,60.0,3.0,0.0
1987,54.0,0.0,60.0,8.0,0.0
1988,78.0,0.0,90.0,6.0,0.0
1989,62.0,0.0,60.0,3.0,0.0
1990,53.0,26.0,60.0,4.0,0.0
1991,56.0,7.0,120.0,5.0,0.0
1992,56.0,0.0,120.0,8.0,0.0
1993,78.0,27.0,90.0,0.0,0.0
1994,51.0,68.0,60.0,4.0,0.0
1995,63.0,0.0,60.0,3.0,0.0
1996,44.0,0.0,240.0,5.0,0.0
1997,44.0,7.0,240.0,8.0,0.0
1998,78.0,0.0,60.0,6.0,0.0
1999,62.0,7.0,120.0,3.0,0.0
2000,78.0,45.0,60.0,0.0,0.0
2001,58.0,0.0,240.0,4.0,0.0
2002,77.0,0.0,60.0,0.0,0.0
2003,77.0,60.0,60.0,6.0,0.0
2004,75.0,8.0,60.0,0.0,0.0
2005,75.0,45.0,60.0,6.0,0.0
2006,65.0,0.0,120.0,3.0,0.0
2007,74.0,105.0,60.0,6.0,0.0
2008,74.0,8.0,60.0,0.0,0.0
2009,63.0,7.0,240.0,3.0,0.0
2010,42.0,0.0,120.0,5.0,0.0
2011,42.0,67.0,120.0,8.0,0.0
2012,75.0,53.0,180.0,6.0,0.0
2013,58.0,0.0,120.0,4.0,0.0
2014,75.0,0.0,180.0,0.0,0.0
2015,44.0,0.0,120.0,5.0,0.0
2016,59.0,0.0,120.0,4.0,0.0
2017,44.0,0.0,120.0,8.0,0.0
2018,68.0,8.0,60.0,0.0,0.0
2019,68.0,105.0,60.0,6.0,0.0
2020,46.0,0.0,120.0,5.0,0.0
2021,63.0,0.0,120.0,3.0,0.0
2022,66.0,0.0,120.0,6.0,0.0
2023,58.0,28.0,120.0,4.0,0.0
2024,66.0,0.0,120.0,0.0,0.0
2025,46.0,0.0,120.0,8.0,0.0
2026,65.0,0.0,15.0,6.0,0.0
2027,56.0,0.0,120.0,4.0,0.0
2028,34.0,0.0,120.0,8.0,0.0
2029,34.0,0.0,120.0,5.0,0.0
2030,62.0,7.0,120.0,3.0,0.0
2031,65.0,15.0,15.0,0.0,0.0
2032,66.0,28.0,15.0,6.0,0.0
2033,66.0,0.0,15.0,0.0,0.0
2034,65.0,0.0,30.0,0.0,0.0
2035,65.0,49.0,30.0,6.0,0.0
2036,63.0,368.0,60.0,0.0,0.0
2037,63.0,0.0,60.0,6.0,0.0
2038,63.0,0.0,360.0,0.0,0.0
2039,39.0,0.0,360.0,8.0,0.0
2040,58.0,0.0,360.0,3.0,0.0
2041,55.0,0.0,360.0,4.0,0.0
2042,63.0,0.0,360.0,6.0,0.0
2043,39.0,0.0,360.0,5.0,0.0
