,note,step,duration,channel,velocity
0,71.0,120.0,120.0,0.0,0.0
1,70.0,0.0,120.0,0.0,0.0
2,59.0,240.0,15.0,2.0,0.0
3,71.0,120.0,240.0,0.0,0.0
4,73.0,120.0,120.0,0.0,0.0
5,75.0,120.0,120.0,0.0,0.0
6,59.0,0.0,480.0,2.0,0.0
7,76.0,120.0,120.0,0.0,0.0
8,75.0,120.0,120.0,0.0,0.0
9,73.0,120.0,120.0,0.0,0.0
10,71.0,120.0,120.0,0.0,0.0
11,78.0,120.0,120.0,0.0,0.0
12,73.0,120.0,120.0,0.0,0.0
13,66.0,0.0,120.0,1.0,0.0
14,75.0,120.0,120.0,0.0,0.0
15,68.0,0.0,120.0,1.0,0.0
16,77.0,0.0,120.0,0.0,0.0
17,66.0,0.0,240.0,1.0,0.0
18,58.0,120.0,15.0,2.0,0.0
19,78.0,120.0,120.0,0.0,0.0
20,80.0,120.0,120.0,0.0,0.0
21,82.0,0.0,120.0,0.0,0.0
22,64.0,120.0,120.0,1.0,0.0
23,83.0,0.0,120.0,0.0,0.0
24,63.0,120.0,120.0,1.0,0.0
25,85.0,120.0,240.0,0.0,0.0
26,61.0,120.0,120.0,1.0,0.0
27,58.0,0.0,480.0,2.0,0.0
28,63.0,0.0,120.0,1.0,0.0
29,64.0,120.0,120.0,1.0,0.0
30,66.0,120.0,120.0,1.0,0.0
31,56.0,0.0,480.0,2.0,0.0
32,59.0,120.0,120.0,1.0,0.0
33,64.0,120.0,120.0,1.0,0.0
34,83.0,120.0,120.0,0.0,0.0
35,63.0,0.0,120.0,1.0,0.0
36,61.0,120.0,120.0,1.0,0.0
37,82.0,0.0,120.0,0.0,0.0
38,56.0,0.0,480.0,2.0,0.0
39,80.0,120.0,120.0,0.0,0.0
40,59.0,0.0,120.0,1.0,0.0
41,78.0,120.0,120.0,0.0,0.0
42,58.0,0.0,120.0,1.0,0.0
43,77.0,120.0,120.0,0.0,0.0
44,56.0,0.0,120.0,1.0,0.0
45,54.0,0.0,120.0,1.0,0.0
46,75.0,120.0,120.0,0.0,0.0
47,53.0,120.0,240.0,1.0,0.0
48,73.0,120.0,120.0,0.0,0.0
49,56.0,0.0,480.0,2.0,0.0
50,71.0,0.0,120.0,0.0,0.0
51,70.0,120.0,120.0,0.0,0.0
52,54.0,120.0,120.0,2.0,0.0
53,71.0,120.0,15.0,0.0,0.0
54,42.0,30.0,120.0,2.0,0.0
55,54.0,0.0,240.0,2.0,0.0
56,71.0,0.0,15.0,0.0,0.0
57,54.0,120.0,120.0,1.0,0.0
58,70.0,30.0,30.0,0.0,0.0
59,71.0,30.0,30.0,0.0,0.0
60,70.0,0.0,30.0,0.0,0.0
61,56.0,120.0,120.0,1.0,0.0
62,68.0,0.0,120.0,0.0,0.0
63,66.0,0.0,240.0,0.0,0.0
64,58.0,120.0,120.0,1.0,0.0
65,59.0,120.0,120.0,1.0,0.0
66,52.0,0.0,120.0,2.0,0.0
67,61.0,120.0,120.0,1.0,0.0
68,63.0,120.0,120.0,1.0,0.0
69,51.0,0.0,120.0,2.0,0.0
70,64.0,120.0,120.0,1.0,0.0
71,49.0,120.0,240.0,2.0,0.0
72,66.0,0.0,120.0,1.0,0.0
73,68.0,120.0,120.0,1.0,0.0
74,52.0,0.0,240.0,2.0,0.0
75,66.0,240.0,15.0,1.0,0.0
76,51.0,0.0,480.0,2.0,0.0
77,78.0,120.0,480.0,0.0,0.0
78,68.0,120.0,120.0,1.0,0.0
79,70.0,120.0,120.0,1.0,0.0
80,51.0,0.0,480.0,2.0,0.0
81,71.0,0.0,240.0,1.0,0.0
82,75.0,120.0,120.0,0.0,0.0
83,73.0,120.0,120.0,0.0,0.0
84,71.0,120.0,120.0,0.0,0.0
85,51.0,120.0,480.0,2.0,0.0
86,69.0,120.0,120.0,0.0,0.0
87,68.0,120.0,120.0,0.0,0.0
88,66.0,120.0,120.0,0.0,0.0
89,69.0,0.0,120.0,0.0,0.0
90,68.0,120.0,120.0,0.0,0.0
91,71.0,120.0,120.0,0.0,0.0
92,59.0,120.0,480.0,1.0,0.0
93,76.0,120.0,120.0,0.0,0.0
94,78.0,120.0,120.0,0.0,0.0
95,52.0,0.0,15.0,2.0,0.0
96,80.0,120.0,240.0,0.0,0.0
97,63.0,0.0,120.0,1.0,0.0
98,64.0,120.0,120.0,1.0,0.0
99,66.0,120.0,120.0,1.0,0.0
100,52.0,0.0,480.0,2.0,0.0
101,68.0,120.0,120.0,1.0,0.0
102,70.0,120.0,120.0,1.0,0.0
103,73.0,0.0,15.0,0.0,0.0
104,71.0,120.0,120.0,1.0,0.0
105,68.0,120.0,120.0,1.0,0.0
106,70.0,120.0,120.0,1.0,0.0
107,75.0,0.0,120.0,0.0,0.0
108,66.0,120.0,120.0,1.0,0.0
109,70.0,0.0,120.0,0.0,0.0
110,61.0,120.0,120.0,1.0,0.0
111,59.0,0.0,120.0,1.0,0.0
112,71.0,0.0,120.0,0.0,0.0
113,58.0,0.0,240.0,1.0,0.0
114,54.0,120.0,15.0,2.0,0.0
115,73.0,120.0,120.0,0.0,0.0
116,71.0,120.0,120.0,0.0,0.0
117,70.0,120.0,120.0,0.0,0.0
118,80.0,0.0,120.0,0.0,0.0
119,78.0,120.0,120.0,0.0,0.0
120,54.0,120.0,480.0,2.0,0.0
121,76.0,0.0,120.0,0.0,0.0
122,64.0,120.0,15.0,1.0,0.0
123,75.0,120.0,120.0,0.0,0.0
124,73.0,0.0,120.0,0.0,0.0
125,71.0,0.0,480.0,0.0,0.0
126,59.0,0.0,360.0,2.0,0.0
127,63.0,120.0,120.0,1.0,0.0
128,68.0,120.0,120.0,1.0,0.0
129,51.0,120.0,120.0,2.0,0.0
130,66.0,0.0,120.0,1.0,0.0
131,56.0,0.0,120.0,2.0,0.0
132,64.0,120.0,120.0,1.0,0.0
133,54.0,120.0,120.0,2.0,0.0
134,66.0,0.0,120.0,1.0,0.0
135,68.0,120.0,120.0,1.0,0.0
136,52.0,0.0,120.0,2.0,0.0
137,56.0,0.0,120.0,2.0,0.0
138,58.0,120.0,120.0,1.0,0.0
139,54.0,120.0,120.0,2.0,0.0
140,59.0,0.0,120.0,1.0,0.0
141,52.0,120.0,120.0,2.0,0.0
142,61.0,0.0,120.0,1.0,0.0
143,63.0,120.0,120.0,1.0,0.0
144,51.0,0.0,120.0,2.0,0.0
145,49.0,240.0,120.0,2.0,0.0
146,64.0,0.0,120.0,1.0,0.0
147,66.0,0.0,480.0,1.0,0.0
148,51.0,120.0,240.0,2.0,0.0
149,70.0,0.0,120.0,0.0,0.0
150,47.0,0.0,240.0,2.0,0.0
151,71.0,120.0,120.0,0.0,0.0
152,73.0,120.0,120.0,0.0,0.0
153,75.0,120.0,120.0,0.0,0.0
154,77.0,120.0,120.0,0.0,0.0
155,59.0,120.0,120.0,2.0,0.0
156,78.0,0.0,120.0,0.0,0.0
157,82.0,0.0,120.0,0.0,0.0
158,58.0,120.0,120.0,2.0,0.0
159,80.0,120.0,120.0,0.0,0.0
160,59.0,0.0,240.0,2.0,0.0
161,78.0,120.0,120.0,0.0,0.0
162,77.0,120.0,120.0,0.0,0.0
163,56.0,120.0,240.0,2.0,0.0
164,75.0,0.0,120.0,0.0,0.0
165,58.0,0.0,240.0,2.0,0.0
166,73.0,120.0,120.0,0.0,0.0
167,71.0,120.0,120.0,0.0,0.0
168,68.0,0.0,120.0,1.0,0.0
169,70.0,0.0,120.0,0.0,0.0
170,63.0,120.0,240.0,2.0,0.0
171,66.0,120.0,120.0,1.0,0.0
172,65.0,0.0,120.0,1.0,0.0
173,68.0,0.0,120.0,0.0,0.0
174,66.0,0.0,240.0,0.0,0.0
175,63.0,120.0,120.0,1.0,0.0
176,61.0,120.0,120.0,1.0,0.0
177,51.0,120.0,120.0,2.0,0.0
178,59.0,0.0,120.0,1.0,0.0
179,53.0,0.0,120.0,2.0,0.0
180,56.0,120.0,120.0,1.0,0.0
181,54.0,120.0,240.0,2.0,0.0
182,58.0,120.0,120.0,1.0,0.0
183,59.0,0.0,120.0,1.0,0.0
184,61.0,120.0,120.0,1.0,0.0
185,51.0,120.0,240.0,2.0,0.0
186,63.0,0.0,120.0,1.0,0.0
187,65.0,0.0,120.0,1.0,0.0
188,56.0,120.0,120.0,2.0,0.0
189,66.0,120.0,120.0,1.0,0.0
190,58.0,0.0,120.0,2.0,0.0
191,59.0,120.0,120.0,2.0,0.0
192,68.0,0.0,120.0,1.0,0.0
193,77.0,120.0,360.0,0.0,0.0
194,70.0,120.0,120.0,1.0,0.0
195,58.0,0.0,120.0,2.0,0.0
196,56.0,0.0,240.0,2.0,0.0
197,71.0,120.0,240.0,1.0,0.0
198,75.0,0.0,120.0,0.0,0.0
199,58.0,0.0,240.0,2.0,0.0
200,73.0,120.0,120.0,0.0,0.0
201,75.0,120.0,120.0,0.0,0.0
202,56.0,120.0,240.0,2.0,0.0
203,77.0,120.0,120.0,0.0,0.0
204,78.0,0.0,120.0,0.0,0.0
205,54.0,120.0,240.0,2.0,0.0
206,80.0,120.0,120.0,0.0,0.0
207,82.0,0.0,120.0,0.0,0.0
208,83.0,0.0,240.0,0.0,0.0
209,53.0,120.0,120.0,2.0,0.0
210,54.0,120.0,120.0,2.0,0.0
211,71.0,0.0,120.0,0.0,0.0
212,61.0,120.0,360.0,1.0,0.0
213,56.0,120.0,120.0,2.0,0.0
214,70.0,0.0,120.0,0.0,0.0
215,54.0,120.0,120.0,2.0,0.0
216,71.0,120.0,600.0,0.0,0.0
217,53.0,0.0,240.0,2.0,0.0
218,63.0,120.0,120.0,1.0,0.0
219,56.0,0.0,240.0,2.0,0.0
220,65.0,120.0,120.0,1.0,0.0
221,63.0,120.0,120.0,1.0,0.0
222,53.0,0.0,240.0,2.0,0.0
223,61.0,0.0,120.0,1.0,0.0
224,75.0,0.0,120.0,0.0,0.0
225,59.0,120.0,120.0,1.0,0.0
226,73.0,120.0,120.0,0.0,0.0
227,58.0,0.0,120.0,1.0,0.0
228,49.0,120.0,240.0,2.0,0.0
229,71.0,0.0,120.0,0.0,0.0
230,56.0,0.0,120.0,1.0,0.0
231,54.0,120.0,240.0,1.0,0.0
232,70.0,120.0,120.0,0.0,0.0
233,54.0,0.0,480.0,2.0,0.0
234,68.0,0.0,120.0,0.0,0.0
235,66.0,120.0,120.0,1.0,0.0
236,70.0,0.0,120.0,0.0,0.0
237,71.0,120.0,120.0,0.0,0.0
238,68.0,0.0,120.0,1.0,0.0
239,70.0,120.0,120.0,0.0,0.0
240,66.0,120.0,600.0,1.0,0.0
241,54.0,0.0,120.0,2.0,0.0
242,73.0,120.0,120.0,0.0,0.0
243,71.0,120.0,120.0,0.0,0.0
244,56.0,0.0,120.0,2.0,0.0
245,58.0,0.0,120.0,2.0,0.0
246,70.0,120.0,120.0,0.0,0.0
247,68.0,120.0,720.0,0.0,0.0
248,59.0,0.0,120.0,2.0,0.0
249,63.0,120.0,120.0,1.0,0.0
250,61.0,0.0,120.0,2.0,0.0
251,59.0,120.0,120.0,2.0,0.0
252,65.0,0.0,120.0,1.0,0.0
253,58.0,120.0,120.0,2.0,0.0
254,66.0,0.0,120.0,1.0,0.0
255,59.0,0.0,240.0,2.0,0.0
256,68.0,120.0,120.0,1.0,0.0
257,70.0,0.0,120.0,1.0,0.0
258,78.0,120.0,240.0,0.0,0.0
259,47.0,0.0,240.0,2.0,0.0
260,68.0,120.0,120.0,1.0,0.0
261,66.0,0.0,120.0,1.0,0.0
262,68.0,120.0,120.0,1.0,0.0
263,77.0,0.0,240.0,0.0,0.0
264,56.0,0.0,120.0,2.0,0.0
265,65.0,120.0,120.0,1.0,0.0
266,58.0,0.0,120.0,2.0,0.0
267,75.0,0.0,240.0,0.0,0.0
268,66.0,120.0,120.0,1.0,0.0
269,59.0,120.0,120.0,2.0,0.0
270,68.0,0.0,120.0,1.0,0.0
271,61.0,120.0,120.0,2.0,0.0
272,73.0,0.0,240.0,0.0,0.0
273,70.0,120.0,720.0,1.0,0.0
274,58.0,120.0,120.0,2.0,0.0
275,56.0,120.0,120.0,2.0,0.0
276,82.0,0.0,240.0,0.0,0.0
277,54.0,120.0,120.0,2.0,0.0
278,63.0,120.0,120.0,2.0,0.0
279,71.0,120.0,720.0,0.0,0.0
280,51.0,0.0,120.0,2.0,0.0
281,56.0,120.0,120.0,2.0,0.0
282,59.0,120.0,240.0,1.0,0.0
283,54.0,0.0,120.0,2.0,0.0
284,61.0,0.0,240.0,1.0,0.0
285,53.0,120.0,120.0,2.0,0.0
286,49.0,0.0,120.0,2.0,0.0
287,70.0,120.0,240.0,0.0,0.0
288,63.0,0.0,240.0,1.0,0.0
289,54.0,120.0,120.0,2.0,0.0
290,59.0,0.0,120.0,2.0,0.0
291,65.0,120.0,240.0,1.0,0.0
292,61.0,120.0,120.0,2.0,0.0
293,68.0,0.0,120.0,0.0,0.0
294,73.0,0.0,120.0,0.0,0.0
295,56.0,0.0,120.0,2.0,0.0
296,53.0,120.0,120.0,2.0,0.0
297,56.0,120.0,240.0,1.0,0.0
298,71.0,0.0,480.0,0.0,0.0
299,49.0,0.0,120.0,2.0,0.0
300,66.0,0.0,720.0,1.0,0.0
301,54.0,120.0,120.0,2.0,0.0
302,56.0,120.0,120.0,2.0,0.0
303,70.0,120.0,120.0,0.0,0.0
304,54.0,0.0,120.0,2.0,0.0
305,53.0,0.0,120.0,2.0,0.0
306,68.0,120.0,120.0,0.0,0.0
307,70.0,120.0,120.0,0.0,0.0
308,54.0,120.0,240.0,2.0,0.0
309,78.0,120.0,240.0,0.0,0.0
310,49.0,0.0,240.0,2.0,0.0
311,68.0,0.0,240.0,1.0,0.0
312,77.0,120.0,120.0,0.0,0.0
313,78.0,0.0,240.0,0.0,0.0
314,70.0,120.0,120.0,1.0,0.0
315,42.0,0.0,240.0,2.0,0.0
316,65.0,240.0,120.0,1.0,0.0
317,66.0,360.0,240.0,1.0,0.0
318,71.0,120.0,120.0,0.0,0.0
319,70.0,0.0,120.0,0.0,0.0
320,59.0,240.0,15.0,2.0,0.0
321,71.0,120.0,240.0,0.0,0.0
322,73.0,120.0,120.0,0.0,0.0
323,75.0,120.0,120.0,0.0,0.0
324,76.0,120.0,120.0,0.0,0.0
325,59.0,120.0,480.0,2.0,0.0
326,75.0,120.0,120.0,0.0,0.0
327,73.0,120.0,120.0,0.0,0.0
328,71.0,0.0,120.0,0.0,0.0
329,78.0,120.0,120.0,0.0,0.0
330,73.0,120.0,120.0,0.0,0.0
331,66.0,120.0,120.0,1.0,0.0
332,75.0,0.0,120.0,0.0,0.0
333,77.0,0.0,120.0,0.0,0.0
334,68.0,0.0,120.0,1.0,0.0
335,78.0,120.0,120.0,0.0,0.0
336,66.0,0.0,240.0,1.0,0.0
337,58.0,120.0,15.0,2.0,0.0
338,80.0,120.0,120.0,0.0,0.0
339,64.0,120.0,120.0,1.0,0.0
340,82.0,0.0,120.0,0.0,0.0
341,83.0,0.0,120.0,0.0,0.0
342,63.0,120.0,120.0,1.0,0.0
343,61.0,120.0,120.0,1.0,0.0
344,85.0,120.0,240.0,0.0,0.0
345,58.0,120.0,480.0,2.0,0.0
346,63.0,0.0,120.0,1.0,0.0
347,64.0,120.0,120.0,1.0,0.0
348,66.0,0.0,120.0,1.0,0.0
349,59.0,120.0,120.0,1.0,0.0
350,56.0,0.0,480.0,2.0,0.0
351,64.0,120.0,120.0,1.0,0.0
352,83.0,0.0,120.0,0.0,0.0
353,63.0,120.0,120.0,1.0,0.0
354,61.0,120.0,120.0,1.0,0.0
355,82.0,0.0,120.0,0.0,0.0
356,80.0,0.0,120.0,0.0,0.0
357,59.0,120.0,120.0,1.0,0.0
358,56.0,0.0,480.0,2.0,0.0
359,78.0,120.0,120.0,0.0,0.0
360,58.0,0.0,120.0,1.0,0.0
361,56.0,0.0,120.0,1.0,0.0
362,77.0,120.0,120.0,0.0,0.0
363,54.0,120.0,120.0,1.0,0.0
364,75.0,0.0,120.0,0.0,0.0
365,73.0,120.0,120.0,0.0,0.0
366,56.0,0.0,480.0,2.0,0.0
367,53.0,0.0,240.0,1.0,0.0
368,71.0,120.0,120.0,0.0,0.0
369,70.0,120.0,120.0,0.0,0.0
370,71.0,120.0,120.0,0.0,0.0
371,54.0,120.0,120.0,2.0,0.0
372,42.0,30.0,120.0,2.0,0.0
373,71.0,0.0,15.0,0.0,0.0
374,54.0,0.0,240.0,2.0,0.0
375,54.0,0.0,120.0,1.0,0.0
376,70.0,30.0,30.0,0.0,0.0
377,71.0,30.0,30.0,0.0,0.0
378,70.0,120.0,30.0,0.0,0.0
379,56.0,120.0,120.0,1.0,0.0
380,68.0,0.0,120.0,0.0,0.0
381,66.0,120.0,240.0,0.0,0.0
382,58.0,120.0,120.0,1.0,0.0
383,59.0,0.0,120.0,1.0,0.0
384,52.0,120.0,120.0,2.0,0.0
385,61.0,0.0,120.0,1.0,0.0
386,63.0,0.0,120.0,1.0,0.0
387,51.0,120.0,120.0,2.0,0.0
388,49.0,0.0,240.0,2.0,0.0
389,64.0,120.0,120.0,1.0,0.0
390,66.0,120.0,120.0,1.0,0.0
391,52.0,0.0,240.0,2.0,0.0
392,68.0,120.0,120.0,1.0,0.0
393,66.0,240.0,15.0,1.0,0.0
394,78.0,120.0,480.0,0.0,0.0
395,68.0,120.0,120.0,1.0,0.0
396,70.0,0.0,120.0,1.0,0.0
397,71.0,0.0,240.0,1.0,0.0
398,51.0,120.0,15.0,2.0,0.0
399,75.0,120.0,120.0,0.0,0.0
400,73.0,120.0,120.0,0.0,0.0
401,71.0,0.0,120.0,0.0,0.0
402,51.0,120.0,15.0,2.0,0.0
403,69.0,120.0,120.0,0.0,0.0
404,68.0,120.0,120.0,0.0,0.0
405,66.0,120.0,120.0,0.0,0.0
406,69.0,0.0,120.0,0.0,0.0
407,52.0,0.0,480.0,2.0,0.0
408,68.0,120.0,120.0,0.0,0.0
409,59.0,120.0,480.0,1.0,0.0
410,71.0,120.0,120.0,0.0,0.0
411,76.0,120.0,120.0,0.0,0.0
412,78.0,120.0,120.0,0.0,0.0
413,80.0,120.0,240.0,0.0,0.0
414,63.0,0.0,120.0,1.0,0.0
415,73.0,0.0,480.0,0.0,0.0
416,64.0,120.0,120.0,1.0,0.0
417,66.0,0.0,120.0,1.0,0.0
418,68.0,120.0,120.0,1.0,0.0
419,52.0,120.0,15.0,2.0,0.0
420,70.0,120.0,120.0,1.0,0.0
421,71.0,120.0,120.0,1.0,0.0
422,73.0,120.0,360.0,0.0,0.0
423,68.0,0.0,120.0,1.0,0.0
424,70.0,0.0,120.0,1.0,0.0
425,66.0,0.0,120.0,1.0,0.0
426,75.0,120.0,120.0,0.0,0.0
427,61.0,120.0,120.0,1.0,0.0
428,70.0,0.0,120.0,0.0,0.0
429,71.0,120.0,120.0,0.0,0.0
430,59.0,0.0,120.0,1.0,0.0
431,58.0,120.0,240.0,1.0,0.0
432,54.0,0.0,15.0,2.0,0.0
433,73.0,120.0,120.0,0.0,0.0
434,71.0,0.0,120.0,0.0,0.0
435,70.0,120.0,120.0,0.0,0.0
436,80.0,0.0,120.0,0.0,0.0
437,78.0,120.0,120.0,0.0,0.0
438,54.0,120.0,15.0,2.0,0.0
439,76.0,0.0,120.0,0.0,0.0
440,75.0,120.0,120.0,0.0,0.0
441,64.0,120.0,15.0,1.0,0.0
442,73.0,120.0,120.0,0.0,0.0
443,59.0,120.0,360.0,2.0,0.0
444,71.0,120.0,480.0,0.0,0.0
445,63.0,120.0,120.0,1.0,0.0
446,68.0,0.0,120.0,1.0,0.0
447,51.0,0.0,120.0,2.0,0.0
448,66.0,0.0,120.0,1.0,0.0
449,64.0,0.0,120.0,1.0,0.0
450,56.0,120.0,120.0,2.0,0.0
451,66.0,120.0,120.0,1.0,0.0
452,54.0,0.0,120.0,2.0,0.0
453,68.0,0.0,120.0,1.0,0.0
454,52.0,120.0,120.0,2.0,0.0
455,56.0,120.0,120.0,2.0,0.0
456,58.0,0.0,120.0,1.0,0.0
457,54.0,0.0,120.0,2.0,0.0
458,59.0,120.0,120.0,1.0,0.0
459,61.0,0.0,120.0,1.0,0.0
460,52.0,120.0,120.0,2.0,0.0
461,51.0,0.0,120.0,2.0,0.0
462,63.0,120.0,120.0,1.0,0.0
463,49.0,240.0,120.0,2.0,0.0
464,64.0,0.0,120.0,1.0,0.0
465,51.0,0.0,240.0,2.0,0.0
466,66.0,0.0,480.0,1.0,0.0
467,70.0,120.0,120.0,0.0,0.0
468,47.0,0.0,240.0,2.0,0.0
469,71.0,120.0,120.0,0.0,0.0
470,73.0,120.0,120.0,0.0,0.0
471,75.0,120.0,120.0,0.0,0.0
472,77.0,120.0,120.0,0.0,0.0
473,78.0,120.0,120.0,0.0,0.0
474,59.0,0.0,120.0,2.0,0.0
475,82.0,120.0,120.0,0.0,0.0
476,58.0,0.0,120.0,2.0,0.0
477,80.0,120.0,120.0,0.0,0.0
478,59.0,120.0,240.0,2.0,0.0
479,78.0,0.0,120.0,0.0,0.0
480,56.0,0.0,240.0,2.0,0.0
481,77.0,120.0,120.0,0.0,0.0
482,75.0,120.0,120.0,0.0,0.0
483,58.0,120.0,240.0,2.0,0.0
484,73.0,120.0,120.0,0.0,0.0
485,68.0,0.0,120.0,1.0,0.0
486,71.0,0.0,120.0,0.0,0.0
487,63.0,120.0,240.0,2.0,0.0
488,70.0,120.0,120.0,0.0,0.0
489,66.0,0.0,120.0,1.0,0.0
490,65.0,0.0,120.0,1.0,0.0
491,68.0,0.0,120.0,0.0,0.0
492,63.0,120.0,120.0,1.0,0.0
493,66.0,120.0,240.0,0.0,0.0
494,61.0,0.0,120.0,1.0,0.0
495,59.0,120.0,120.0,1.0,0.0
496,51.0,0.0,120.0,2.0,0.0
497,56.0,0.0,120.0,1.0,0.0
498,53.0,120.0,120.0,2.0,0.0
499,54.0,0.0,240.0,2.0,0.0
500,58.0,120.0,120.0,1.0,0.0
501,59.0,120.0,120.0,1.0,0.0
502,51.0,120.0,240.0,2.0,0.0
503,61.0,120.0,120.0,1.0,0.0
504,63.0,0.0,120.0,1.0,0.0
505,65.0,0.0,120.0,1.0,0.0
506,56.0,120.0,120.0,2.0,0.0
507,66.0,120.0,120.0,1.0,0.0
508,58.0,0.0,120.0,2.0,0.0
509,59.0,0.0,120.0,2.0,0.0
510,77.0,120.0,360.0,0.0,0.0
511,68.0,120.0,120.0,1.0,0.0
512,58.0,0.0,120.0,2.0,0.0
513,70.0,120.0,120.0,1.0,0.0
514,56.0,0.0,240.0,2.0,0.0
515,71.0,120.0,240.0,1.0,0.0
516,75.0,0.0,120.0,0.0,0.0
517,73.0,120.0,120.0,0.0,0.0
518,58.0,120.0,240.0,2.0,0.0
519,75.0,0.0,120.0,0.0,0.0
520,77.0,120.0,120.0,0.0,0.0
521,56.0,120.0,240.0,2.0,0.0
522,78.0,0.0,120.0,0.0,0.0
523,80.0,120.0,120.0,0.0,0.0
524,54.0,120.0,240.0,2.0,0.0
525,82.0,0.0,120.0,0.0,0.0
526,83.0,120.0,240.0,0.0,0.0
527,53.0,120.0,120.0,2.0,0.0
528,54.0,0.0,120.0,2.0,0.0
529,56.0,120.0,120.0,2.0,0.0
530,61.0,120.0,360.0,1.0,0.0
531,71.0,0.0,120.0,0.0,0.0
532,70.0,0.0,120.0,0.0,0.0
533,54.0,120.0,120.0,2.0,0.0
534,71.0,120.0,600.0,0.0,0.0
535,53.0,120.0,240.0,2.0,0.0
536,63.0,0.0,120.0,1.0,0.0
537,56.0,120.0,240.0,2.0,0.0
538,65.0,120.0,120.0,1.0,0.0
539,63.0,0.0,120.0,1.0,0.0
540,61.0,0.0,120.0,1.0,0.0
541,53.0,120.0,240.0,2.0,0.0
542,59.0,0.0,120.0,1.0,0.0
543,75.0,0.0,120.0,0.0,0.0
544,49.0,0.0,240.0,2.0,0.0
545,58.0,0.0,120.0,1.0,0.0
546,73.0,120.0,120.0,0.0,0.0
547,56.0,0.0,120.0,1.0,0.0
548,71.0,120.0,120.0,0.0,0.0
549,54.0,0.0,480.0,2.0,0.0
550,54.0,0.0,240.0,1.0,0.0
551,70.0,120.0,120.0,0.0,0.0
552,68.0,120.0,120.0,0.0,0.0
553,66.0,0.0,120.0,1.0,0.0
554,70.0,120.0,120.0,0.0,0.0
555,68.0,120.0,120.0,1.0,0.0
556,71.0,0.0,120.0,0.0,0.0
557,66.0,0.0,600.0,1.0,0.0
558,70.0,120.0,120.0,0.0,0.0
559,54.0,0.0,120.0,2.0,0.0
560,73.0,120.0,120.0,0.0,0.0
561,71.0,120.0,120.0,0.0,0.0
562,56.0,0.0,120.0,2.0,0.0
563,58.0,0.0,120.0,2.0,0.0
564,70.0,120.0,120.0,0.0,0.0
565,59.0,120.0,120.0,2.0,0.0
566,68.0,120.0,720.0,0.0,0.0
567,63.0,120.0,120.0,1.0,0.0
568,61.0,0.0,120.0,2.0,0.0
569,65.0,120.0,120.0,1.0,0.0
570,59.0,0.0,120.0,2.0,0.0
571,66.0,120.0,120.0,1.0,0.0
572,58.0,0.0,120.0,2.0,0.0
573,68.0,120.0,120.0,1.0,0.0
574,59.0,0.0,240.0,2.0,0.0
575,70.0,0.0,120.0,1.0,0.0
576,78.0,0.0,240.0,0.0,0.0
577,47.0,120.0,240.0,2.0,0.0
578,68.0,120.0,120.0,1.0,0.0
579,66.0,0.0,120.0,1.0,0.0
580,77.0,0.0,240.0,0.0,0.0
581,68.0,120.0,120.0,1.0,0.0
582,56.0,120.0,120.0,2.0,0.0
583,65.0,0.0,120.0,1.0,0.0
584,75.0,0.0,240.0,0.0,0.0
585,58.0,120.0,120.0,2.0,0.0
586,66.0,0.0,120.0,1.0,0.0
587,68.0,0.0,120.0,1.0,0.0
588,59.0,120.0,120.0,2.0,0.0
589,70.0,0.0,720.0,1.0,0.0
590,73.0,120.0,240.0,0.0,0.0
591,61.0,120.0,120.0,2.0,0.0
592,58.0,0.0,120.0,2.0,0.0
593,56.0,120.0,120.0,2.0,0.0
594,82.0,120.0,240.0,0.0,0.0
595,54.0,0.0,120.0,2.0,0.0
596,71.0,120.0,720.0,0.0,0.0
597,63.0,120.0,120.0,2.0,0.0
598,51.0,120.0,120.0,2.0,0.0
599,56.0,120.0,120.0,2.0,0.0
600,59.0,120.0,240.0,1.0,0.0
601,54.0,0.0,120.0,2.0,0.0
602,53.0,120.0,120.0,2.0,0.0
603,61.0,0.0,240.0,1.0,0.0
604,49.0,0.0,120.0,2.0,0.0
605,63.0,0.0,240.0,1.0,0.0
606,54.0,120.0,120.0,2.0,0.0
607,70.0,0.0,240.0,0.0,0.0
608,59.0,120.0,120.0,2.0,0.0
609,68.0,0.0,120.0,0.0,0.0
610,65.0,0.0,240.0,1.0,0.0
611,61.0,120.0,120.0,2.0,0.0
612,73.0,0.0,120.0,0.0,0.0
613,56.0,120.0,120.0,2.0,0.0
614,56.0,0.0,240.0,1.0,0.0
615,71.0,0.0,480.0,0.0,0.0
616,53.0,120.0,120.0,2.0,0.0
617,49.0,120.0,120.0,2.0,0.0
618,66.0,120.0,720.0,1.0,0.0
619,54.0,120.0,120.0,2.0,0.0
620,56.0,120.0,120.0,2.0,0.0
621,70.0,120.0,120.0,0.0,0.0
622,54.0,0.0,120.0,2.0,0.0
623,53.0,0.0,120.0,2.0,0.0
624,68.0,120.0,120.0,0.0,0.0
625,54.0,0.0,240.0,2.0,0.0
626,70.0,120.0,120.0,0.0,0.0
627,78.0,120.0,240.0,0.0,0.0
628,68.0,0.0,240.0,1.0,0.0
629,49.0,120.0,240.0,2.0,0.0
630,77.0,0.0,120.0,0.0,0.0
631,78.0,240.0,240.0,0.0,0.0
632,42.0,0.0,240.0,2.0,0.0
633,70.0,120.0,120.0,1.0,0.0
634,65.0,0.0,120.0,1.0,0.0
635,66.0,360.0,240.0,1.0,0.0
636,54.0,0.0,480.0,2.0,0.0
637,66.0,120.0,120.0,1.0,0.0
638,68.0,240.0,120.0,1.0,0.0
639,54.0,120.0,480.0,2.0,0.0
640,66.0,120.0,240.0,1.0,0.0
641,64.0,120.0,120.0,1.0,0.0
642,63.0,0.0,120.0,1.0,0.0
643,61.0,120.0,120.0,1.0,0.0
644,52.0,0.0,480.0,2.0,0.0
645,63.0,120.0,120.0,1.0,0.0
646,64.0,120.0,120.0,1.0,0.0
647,66.0,240.0,120.0,1.0,0.0
648,51.0,120.0,240.0,2.0,0.0
649,54.0,120.0,600.0,1.0,0.0
650,52.0,0.0,240.0,2.0,0.0
651,71.0,120.0,120.0,0.0,0.0
652,70.0,120.0,120.0,0.0,0.0
653,51.0,0.0,240.0,2.0,0.0
654,71.0,120.0,240.0,0.0,0.0
655,56.0,0.0,120.0,1.0,0.0
656,52.0,0.0,120.0,1.0,0.0
657,73.0,120.0,120.0,0.0,0.0
658,49.0,0.0,240.0,2.0,0.0
659,54.0,120.0,120.0,1.0,0.0
660,75.0,0.0,120.0,0.0,0.0
661,76.0,0.0,120.0,0.0,0.0
662,47.0,0.0,240.0,2.0,0.0
663,56.0,120.0,120.0,1.0,0.0
664,75.0,0.0,120.0,0.0,0.0
665,54.0,120.0,120.0,1.0,0.0
666,57.0,0.0,240.0,1.0,0.0
667,49.0,120.0,120.0,2.0,0.0
668,73.0,0.0,120.0,0.0,0.0
669,71.0,120.0,120.0,0.0,0.0
670,51.0,0.0,120.0,2.0,0.0
671,57.0,120.0,120.0,1.0,0.0
672,52.0,60.0,240.0,2.0,0.0
673,83.0,120.0,600.0,0.0,0.0
674,56.0,60.0,180.0,1.0,0.0
675,51.0,0.0,240.0,2.0,0.0
676,57.0,60.0,60.0,1.0,0.0
677,56.0,60.0,60.0,1.0,0.0
678,55.0,120.0,60.0,1.0,0.0
679,52.0,0.0,240.0,2.0,0.0
680,56.0,0.0,240.0,1.0,0.0
681,82.0,120.0,120.0,0.0,0.0
682,64.0,120.0,240.0,1.0,0.0
683,56.0,0.0,240.0,2.0,0.0
684,85.0,120.0,120.0,0.0,0.0
685,83.0,0.0,120.0,0.0,0.0
686,49.0,240.0,240.0,2.0,0.0
687,82.0,120.0,120.0,0.0,0.0
688,83.0,0.0,120.0,0.0,0.0
689,52.0,0.0,240.0,2.0,0.0
690,80.0,120.0,240.0,0.0,0.0
691,56.0,0.0,240.0,1.0,0.0
692,51.0,120.0,480.0,2.0,0.0
693,55.0,120.0,120.0,1.0,0.0
694,80.0,0.0,120.0,0.0,0.0
695,56.0,60.0,120.0,1.0,0.0
696,82.0,60.0,180.0,0.0,0.0
697,55.0,60.0,120.0,1.0,0.0
698,81.0,0.0,60.0,0.0,0.0
699,53.0,0.0,120.0,1.0,0.0
700,82.0,60.0,60.0,0.0,0.0
701,83.0,0.0,60.0,0.0,0.0
702,82.0,120.0,240.0,0.0,0.0
703,55.0,120.0,120.0,1.0,0.0
704,56.0,0.0,120.0,1.0,0.0
705,73.0,0.0,240.0,0.0,0.0
706,58.0,120.0,120.0,1.0,0.0
707,59.0,120.0,120.0,1.0,0.0
708,61.0,120.0,120.0,1.0,0.0
709,63.0,120.0,120.0,1.0,0.0
710,82.0,120.0,240.0,0.0,0.0
711,65.0,120.0,120.0,1.0,0.0
712,67.0,0.0,120.0,1.0,0.0
713,83.0,120.0,120.0,0.0,0.0
714,68.0,120.0,1680.0,1.0,0.0
715,82.0,120.0,120.0,0.0,0.0
716,56.0,0.0,240.0,2.0,0.0
717,83.0,120.0,120.0,0.0,0.0
718,85.0,120.0,120.0,0.0,0.0
719,58.0,0.0,240.0,2.0,0.0
720,83.0,120.0,120.0,0.0,0.0
721,82.0,120.0,120.0,0.0,0.0
722,59.0,120.0,240.0,2.0,0.0
723,80.0,120.0,120.0,0.0,0.0
724,78.0,0.0,120.0,0.0,0.0
725,61.0,0.0,240.0,2.0,0.0
726,76.0,120.0,120.0,0.0,0.0
727,75.0,120.0,120.0,0.0,0.0
728,63.0,120.0,240.0,2.0,0.0
729,73.0,120.0,120.0,0.0,0.0
730,71.0,0.0,120.0,0.0,0.0
731,64.0,120.0,120.0,2.0,0.0
732,70.0,0.0,1680.0,0.0,0.0
733,66.0,0.0,120.0,2.0,0.0
734,64.0,0.0,120.0,2.0,0.0
735,68.0,120.0,120.0,1.0,0.0
736,67.0,120.0,120.0,1.0,0.0
737,63.0,0.0,120.0,2.0,0.0
738,64.0,120.0,120.0,2.0,0.0
739,63.0,0.0,120.0,2.0,0.0
740,61.0,120.0,120.0,2.0,0.0
741,68.0,120.0,15.0,1.0,0.0
742,59.0,120.0,120.0,2.0,0.0
743,68.0,0.0,240.0,1.0,0.0
744,61.0,120.0,120.0,2.0,0.0
745,58.0,120.0,120.0,2.0,0.0
746,67.0,120.0,120.0,1.0,0.0
747,59.0,0.0,120.0,2.0,0.0
748,61.0,120.0,120.0,2.0,0.0
749,65.0,0.0,120.0,1.0,0.0
750,63.0,120.0,120.0,2.0,0.0
751,67.0,0.0,480.0,1.0,0.0
752,64.0,120.0,120.0,2.0,0.0
753,63.0,0.0,120.0,2.0,0.0
754,70.0,120.0,120.0,0.0,0.0
755,61.0,120.0,120.0,2.0,0.0
756,71.0,0.0,120.0,0.0,0.0
757,63.0,120.0,120.0,2.0,0.0
758,58.0,0.0,120.0,2.0,0.0
759,55.0,120.0,120.0,2.0,0.0
760,70.0,120.0,15.0,0.0,0.0
761,58.0,0.0,120.0,2.0,0.0
762,51.0,120.0,120.0,2.0,0.0
763,70.0,120.0,600.0,1.0,0.0
764,70.0,0.0,240.0,0.0,0.0
765,55.0,120.0,120.0,2.0,0.0
766,71.0,0.0,120.0,0.0,0.0
767,53.0,120.0,120.0,2.0,0.0
768,73.0,120.0,120.0,0.0,0.0
769,51.0,0.0,120.0,2.0,0.0
770,56.0,0.0,120.0,2.0,0.0
771,71.0,0.0,480.0,0.0,0.0
772,52.0,0.0,120.0,2.0,0.0
773,68.0,120.0,120.0,1.0,0.0
774,51.0,120.0,120.0,2.0,0.0
775,67.0,0.0,120.0,1.0,0.0
776,70.0,0.0,120.0,1.0,0.0
777,49.0,120.0,120.0,2.0,0.0
778,68.0,120.0,120.0,1.0,0.0
779,47.0,0.0,120.0,2.0,0.0
780,51.0,120.0,120.0,2.0,0.0
781,66.0,0.0,120.0,1.0,0.0
782,65.0,0.0,120.0,1.0,0.0
783,56.0,120.0,120.0,2.0,0.0
784,64.0,120.0,120.0,1.0,0.0
785,55.0,0.0,120.0,2.0,0.0
786,63.0,120.0,120.0,1.0,0.0
787,56.0,0.0,240.0,2.0,0.0
788,68.0,120.0,600.0,0.0,0.0
789,61.0,120.0,120.0,1.0,0.0
790,54.0,0.0,240.0,2.0,0.0
791,59.0,120.0,120.0,1.0,0.0
792,58.0,120.0,120.0,1.0,0.0
793,59.0,0.0,240.0,1.0,0.0
794,52.0,120.0,240.0,2.0,0.0
795,70.0,0.0,120.0,0.0,0.0
796,64.0,120.0,240.0,2.0,0.0
797,71.0,120.0,120.0,0.0,0.0
798,68.0,0.0,120.0,0.0,0.0
799,70.0,120.0,120.0,0.0,0.0
800,71.0,0.0,120.0,0.0,0.0
801,56.0,120.0,120.0,2.0,0.0
802,72.0,0.0,120.0,0.0,0.0
803,54.0,120.0,120.0,2.0,0.0
804,73.0,0.0,120.0,0.0,0.0
805,52.0,120.0,120.0,2.0,0.0
806,75.0,120.0,120.0,0.0,0.0
807,54.0,0.0,120.0,2.0,0.0
808,76.0,120.0,120.0,0.0,0.0
809,52.0,0.0,120.0,2.0,0.0
810,51.0,0.0,120.0,2.0,0.0
811,78.0,120.0,120.0,0.0,0.0
812,80.0,0.0,120.0,0.0,0.0
813,49.0,240.0,120.0,2.0,0.0
814,51.0,120.0,240.0,2.0,0.0
815,78.0,0.0,240.0,0.0,0.0
816,73.0,0.0,120.0,1.0,0.0
817,72.0,120.0,120.0,1.0,0.0
818,63.0,120.0,240.0,2.0,0.0
819,70.0,0.0,120.0,1.0,0.0
820,72.0,120.0,120.0,1.0,0.0
821,54.0,0.0,120.0,2.0,0.0
822,69.0,120.0,120.0,1.0,0.0
823,52.0,120.0,120.0,2.0,0.0
824,68.0,0.0,120.0,1.0,0.0
825,66.0,120.0,120.0,1.0,0.0
826,51.0,0.0,120.0,2.0,0.0
827,68.0,0.0,120.0,1.0,0.0
828,52.0,120.0,120.0,2.0,0.0
829,66.0,120.0,120.0,1.0,0.0
830,51.0,0.0,120.0,2.0,0.0
831,49.0,0.0,120.0,2.0,0.0
832,64.0,120.0,120.0,1.0,0.0
833,63.0,0.0,120.0,1.0,0.0
834,48.0,240.0,120.0,2.0,0.0
835,64.0,120.0,1680.0,1.0,0.0
836,49.0,0.0,240.0,2.0,0.0
837,64.0,120.0,120.0,0.0,0.0
838,66.0,120.0,120.0,0.0,0.0
839,61.0,0.0,240.0,2.0,0.0
840,68.0,120.0,120.0,0.0,0.0
841,66.0,120.0,120.0,0.0,0.0
842,67.0,120.0,120.0,0.0,0.0
843,63.0,0.0,120.0,2.0,0.0
844,61.0,0.0,120.0,2.0,0.0
845,70.0,120.0,120.0,0.0,0.0
846,59.0,120.0,120.0,2.0,0.0
847,71.0,0.0,120.0,0.0,0.0
848,61.0,120.0,120.0,2.0,0.0
849,70.0,0.0,120.0,0.0,0.0
850,71.0,120.0,120.0,0.0,0.0
851,59.0,0.0,120.0,2.0,0.0
852,73.0,120.0,120.0,0.0,0.0
853,58.0,0.0,120.0,2.0,0.0
854,56.0,120.0,120.0,2.0,0.0
855,75.0,0.0,120.0,0.0,0.0
856,58.0,120.0,120.0,2.0,0.0
857,73.0,120.0,1680.0,0.0,0.0
858,56.0,0.0,120.0,2.0,0.0
859,54.0,120.0,120.0,2.0,0.0
860,71.0,120.0,240.0,1.0,0.0
861,53.0,0.0,120.0,2.0,0.0
862,70.0,120.0,240.0,1.0,0.0
863,54.0,120.0,120.0,2.0,0.0
864,52.0,0.0,120.0,2.0,0.0
865,51.0,120.0,120.0,2.0,0.0
866,68.0,0.0,240.0,1.0,0.0
867,49.0,120.0,120.0,2.0,0.0
868,66.0,120.0,120.0,1.0,0.0
869,51.0,0.0,120.0,2.0,0.0
870,63.0,0.0,120.0,1.0,0.0
871,49.0,120.0,120.0,2.0,0.0
872,64.0,120.0,120.0,1.0,0.0
873,47.0,0.0,120.0,2.0,0.0
874,46.0,120.0,120.0,2.0,0.0
875,61.0,0.0,120.0,1.0,0.0
876,47.0,120.0,120.0,2.0,0.0
877,63.0,0.0,240.0,1.0,0.0
878,61.0,0.0,120.0,2.0,0.0
879,59.0,120.0,120.0,2.0,0.0
880,64.0,0.0,240.0,1.0,0.0
881,66.0,120.0,240.0,0.0,0.0
882,58.0,0.0,120.0,2.0,0.0
883,63.0,120.0,240.0,1.0,0.0
884,59.0,120.0,120.0,2.0,0.0
885,68.0,0.0,240.0,0.0,0.0
886,58.0,0.0,120.0,2.0,0.0
887,56.0,120.0,120.0,2.0,0.0
888,70.0,0.0,240.0,0.0,0.0
889,55.0,0.0,120.0,2.0,0.0
890,61.0,80.0,15.0,1.0,0.0
891,71.0,40.0,120.0,0.0,0.0
892,56.0,120.0,600.0,2.0,0.0
893,59.0,80.0,90.0,1.0,0.0
894,75.0,0.0,120.0,0.0,0.0
895,61.0,120.0,90.0,1.0,0.0
896,73.0,0.0,120.0,0.0,0.0
897,59.0,120.0,120.0,1.0,0.0
898,76.0,120.0,120.0,0.0,0.0
899,58.0,0.0,120.0,1.0,0.0
900,75.0,0.0,240.0,0.0,0.0
901,59.0,120.0,600.0,1.0,0.0
902,54.0,120.0,120.0,2.0,0.0
903,73.0,0.0,240.0,0.0,0.0
904,52.0,120.0,120.0,2.0,0.0
905,56.0,120.0,120.0,2.0,0.0
906,54.0,0.0,720.0,2.0,0.0
907,75.0,120.0,240.0,0.0,0.0
908,63.0,0.0,120.0,1.0,0.0
909,61.0,120.0,120.0,1.0,0.0
910,76.0,60.0,240.0,0.0,0.0
911,59.0,0.0,120.0,1.0,0.0
912,58.0,0.0,120.0,1.0,0.0
913,78.0,60.0,60.0,0.0,0.0
914,76.0,120.0,60.0,0.0,0.0
915,78.0,0.0,240.0,0.0,0.0
916,56.0,120.0,120.0,1.0,0.0
917,49.0,0.0,240.0,2.0,0.0
918,54.0,120.0,120.0,1.0,0.0
919,52.0,0.0,120.0,1.0,0.0
920,80.0,120.0,120.0,0.0,0.0
921,51.0,120.0,120.0,1.0,0.0
922,51.0,0.0,240.0,2.0,0.0
923,78.0,120.0,600.0,0.0,0.0
924,54.0,120.0,120.0,1.0,0.0
925,59.0,120.0,120.0,1.0,0.0
926,63.0,120.0,120.0,1.0,0.0
927,66.0,120.0,240.0,1.0,0.0
928,75.0,0.0,120.0,0.0,0.0
929,76.0,120.0,120.0,0.0,0.0
930,59.0,120.0,360.0,1.0,0.0
931,56.0,120.0,240.0,2.0,0.0
932,78.0,0.0,120.0,0.0,0.0
933,80.0,0.0,120.0,0.0,0.0
934,52.0,0.0,240.0,2.0,0.0
935,82.0,120.0,120.0,0.0,0.0
936,61.0,0.0,120.0,1.0,0.0
937,58.0,0.0,240.0,1.0,0.0
938,54.0,0.0,240.0,2.0,0.0
939,83.0,120.0,120.0,0.0,0.0
940,85.0,120.0,120.0,0.0,0.0
941,47.0,120.0,600.0,2.0,0.0
942,87.0,120.0,120.0,0.0,0.0
943,59.0,120.0,480.0,1.0,0.0
944,83.0,120.0,120.0,0.0,0.0
945,78.0,120.0,120.0,0.0,0.0
946,75.0,0.0,120.0,0.0,0.0
947,71.0,0.0,240.0,0.0,0.0
948,51.0,120.0,120.0,2.0,0.0
949,54.0,120.0,120.0,2.0,0.0
950,58.0,480.0,120.0,2.0,0.0
951,59.0,360.0,480.0,2.0,0.0
952,54.0,0.0,480.0,2.0,0.0
953,66.0,120.0,120.0,1.0,0.0
954,68.0,240.0,120.0,1.0,0.0
955,54.0,120.0,480.0,2.0,0.0
956,66.0,120.0,240.0,1.0,0.0
957,64.0,120.0,120.0,1.0,0.0
958,63.0,0.0,120.0,1.0,0.0
959,52.0,240.0,480.0,2.0,0.0
960,61.0,120.0,120.0,1.0,0.0
961,63.0,120.0,120.0,1.0,0.0
962,64.0,120.0,120.0,1.0,0.0
963,66.0,0.0,120.0,1.0,0.0
964,54.0,120.0,600.0,1.0,0.0
965,51.0,120.0,240.0,2.0,0.0
966,71.0,120.0,120.0,0.0,0.0
967,52.0,0.0,240.0,2.0,0.0
968,70.0,120.0,120.0,0.0,0.0
969,71.0,120.0,240.0,0.0,0.0
970,51.0,0.0,240.0,2.0,0.0
971,56.0,0.0,120.0,1.0,0.0
972,52.0,0.0,120.0,1.0,0.0
973,49.0,120.0,240.0,2.0,0.0
974,73.0,120.0,120.0,0.0,0.0
975,75.0,0.0,120.0,0.0,0.0
976,54.0,0.0,120.0,1.0,0.0
977,56.0,0.0,120.0,1.0,0.0
978,47.0,120.0,240.0,2.0,0.0
979,76.0,120.0,120.0,0.0,0.0
980,54.0,0.0,120.0,1.0,0.0
981,75.0,0.0,120.0,0.0,0.0
982,73.0,0.0,120.0,0.0,0.0
983,49.0,120.0,120.0,2.0,0.0
984,71.0,120.0,120.0,0.0,0.0
985,51.0,0.0,120.0,2.0,0.0
986,57.0,0.0,15.0,1.0,0.0
987,52.0,60.0,240.0,2.0,0.0
988,83.0,120.0,600.0,0.0,0.0
989,56.0,60.0,180.0,1.0,0.0
990,51.0,0.0,240.0,2.0,0.0
991,57.0,60.0,60.0,1.0,0.0
992,56.0,60.0,60.0,1.0,0.0
993,55.0,120.0,60.0,1.0,0.0
994,52.0,0.0,240.0,2.0,0.0
995,56.0,0.0,240.0,1.0,0.0
996,82.0,120.0,120.0,0.0,0.0
997,64.0,120.0,240.0,1.0,0.0
998,56.0,0.0,240.0,2.0,0.0
999,85.0,120.0,120.0,0.0,0.0
1000,83.0,0.0,120.0,0.0,0.0
1001,82.0,120.0,120.0,0.0,0.0
1002,49.0,0.0,240.0,2.0,0.0
1003,83.0,240.0,120.0,0.0,0.0
1004,52.0,120.0,240.0,2.0,0.0
1005,56.0,0.0,240.0,1.0,0.0
1006,80.0,0.0,240.0,0.0,0.0
1007,51.0,0.0,480.0,2.0,0.0
1008,55.0,0.0,120.0,1.0,0.0
1009,80.0,120.0,120.0,0.0,0.0
1010,56.0,60.0,120.0,1.0,0.0
1011,82.0,60.0,180.0,0.0,0.0
1012,55.0,0.0,120.0,1.0,0.0
1013,81.0,60.0,60.0,0.0,0.0
1014,53.0,0.0,120.0,1.0,0.0
1015,82.0,60.0,60.0,0.0,0.0
1016,83.0,120.0,60.0,0.0,0.0
1017,82.0,0.0,240.0,0.0,0.0
1018,55.0,120.0,120.0,1.0,0.0
1019,56.0,120.0,120.0,1.0,0.0
1020,73.0,120.0,240.0,0.0,0.0
1021,58.0,120.0,120.0,1.0,0.0
1022,59.0,0.0,120.0,1.0,0.0
1023,61.0,120.0,120.0,1.0,0.0
1024,63.0,120.0,120.0,1.0,0.0
1025,65.0,120.0,120.0,1.0,0.0
1026,82.0,120.0,240.0,0.0,0.0
1027,67.0,0.0,120.0,1.0,0.0
1028,83.0,120.0,120.0,0.0,0.0
1029,82.0,120.0,120.0,0.0,0.0
1030,83.0,120.0,120.0,0.0,0.0
1031,56.0,120.0,240.0,2.0,0.0
1032,85.0,0.0,120.0,0.0,0.0
1033,58.0,0.0,240.0,2.0,0.0
1034,83.0,120.0,120.0,0.0,0.0
1035,82.0,120.0,120.0,0.0,0.0
1036,59.0,0.0,240.0,2.0,0.0
1037,80.0,120.0,120.0,0.0,0.0
1038,78.0,120.0,120.0,0.0,0.0
1039,76.0,120.0,120.0,0.0,0.0
1040,61.0,0.0,240.0,2.0,0.0
1041,75.0,120.0,120.0,0.0,0.0
1042,63.0,120.0,240.0,2.0,0.0
1043,73.0,120.0,120.0,0.0,0.0
1044,71.0,0.0,120.0,0.0,0.0
1045,64.0,120.0,120.0,2.0,0.0
1046,66.0,0.0,120.0,2.0,0.0
1047,68.0,120.0,15.0,1.0,0.0
1048,64.0,120.0,120.0,2.0,0.0
1049,67.0,0.0,120.0,1.0,0.0
1050,63.0,120.0,120.0,2.0,0.0
1051,64.0,120.0,120.0,2.0,0.0
1052,68.0,120.0,240.0,1.0,0.0
1053,63.0,0.0,120.0,2.0,0.0
1054,61.0,120.0,120.0,2.0,0.0
1055,68.0,120.0,240.0,1.0,0.0
1056,59.0,0.0,120.0,2.0,0.0
1057,68.0,0.0,240.0,1.0,0.0
1058,61.0,120.0,120.0,2.0,0.0
1059,58.0,120.0,120.0,2.0,0.0
1060,67.0,0.0,120.0,1.0,0.0
1061,59.0,120.0,120.0,2.0,0.0
1062,61.0,120.0,120.0,2.0,0.0
1063,65.0,0.0,120.0,1.0,0.0
1064,63.0,120.0,120.0,2.0,0.0
1065,67.0,0.0,480.0,1.0,0.0
1066,64.0,120.0,120.0,2.0,0.0
1067,70.0,0.0,15.0,0.0,0.0
1068,63.0,0.0,120.0,2.0,0.0
1069,61.0,0.0,120.0,2.0,0.0
1070,71.0,120.0,120.0,0.0,0.0
1071,63.0,120.0,120.0,2.0,0.0
1072,58.0,120.0,120.0,2.0,0.0
1073,55.0,120.0,120.0,2.0,0.0
1074,70.0,0.0,15.0,0.0,0.0
1075,58.0,120.0,120.0,2.0,0.0
1076,70.0,0.0,15.0,0.0,0.0
1077,51.0,120.0,120.0,2.0,0.0
1078,70.0,0.0,600.0,1.0,0.0
1079,55.0,120.0,120.0,2.0,0.0
1080,53.0,0.0,120.0,2.0,0.0
1081,71.0,120.0,120.0,0.0,0.0
1082,51.0,120.0,120.0,2.0,0.0
1083,73.0,0.0,120.0,0.0,0.0
1084,56.0,120.0,120.0,2.0,0.0
1085,71.0,120.0,480.0,0.0,0.0
1086,52.0,120.0,120.0,2.0,0.0
1087,68.0,0.0,120.0,1.0,0.0
1088,67.0,0.0,120.0,1.0,0.0
1089,51.0,120.0,120.0,2.0,0.0
1090,70.0,0.0,120.0,1.0,0.0
1091,49.0,0.0,120.0,2.0,0.0
1092,68.0,120.0,120.0,1.0,0.0
1093,47.0,0.0,120.0,2.0,0.0
1094,51.0,120.0,120.0,2.0,0.0
1095,66.0,0.0,120.0,1.0,0.0
1096,65.0,0.0,120.0,1.0,0.0
1097,56.0,120.0,120.0,2.0,0.0
1098,55.0,120.0,120.0,2.0,0.0
1099,64.0,0.0,120.0,1.0,0.0
1100,56.0,120.0,240.0,2.0,0.0
1101,63.0,120.0,120.0,1.0,0.0
1102,68.0,120.0,600.0,0.0,0.0
1103,61.0,0.0,120.0,1.0,0.0
1104,59.0,120.0,120.0,1.0,0.0
1105,54.0,120.0,240.0,2.0,0.0
1106,58.0,0.0,120.0,1.0,0.0
1107,52.0,0.0,240.0,2.0,0.0
1108,59.0,0.0,240.0,1.0,0.0
1109,70.0,120.0,120.0,0.0,0.0
1110,71.0,120.0,120.0,0.0,0.0
1111,64.0,120.0,240.0,2.0,0.0
1112,68.0,0.0,120.0,0.0,0.0
1113,70.0,120.0,120.0,0.0,0.0
1114,71.0,0.0,120.0,0.0,0.0
1115,56.0,120.0,120.0,2.0,0.0
1116,72.0,0.0,120.0,0.0,0.0
1117,54.0,120.0,120.0,2.0,0.0
1118,52.0,120.0,120.0,2.0,0.0
1119,73.0,0.0,120.0,0.0,0.0
1120,54.0,120.0,120.0,2.0,0.0
1121,75.0,0.0,120.0,0.0,0.0
1122,76.0,0.0,120.0,0.0,0.0
1123,52.0,120.0,120.0,2.0,0.0
1124,51.0,120.0,120.0,2.0,0.0
1125,78.0,0.0,120.0,0.0,0.0
1126,80.0,240.0,120.0,0.0,0.0
1127,49.0,0.0,120.0,2.0,0.0
1128,78.0,0.0,240.0,0.0,0.0
1129,51.0,0.0,240.0,2.0,0.0
1130,73.0,120.0,120.0,1.0,0.0
1131,63.0,0.0,240.0,2.0,0.0
1132,72.0,120.0,120.0,1.0,0.0
1133,70.0,120.0,120.0,1.0,0.0
1134,72.0,120.0,120.0,1.0,0.0
1135,54.0,0.0,120.0,2.0,0.0
1136,69.0,120.0,120.0,1.0,0.0
1137,52.0,0.0,120.0,2.0,0.0
1138,68.0,120.0,120.0,1.0,0.0
1139,51.0,0.0,120.0,2.0,0.0
1140,66.0,120.0,120.0,1.0,0.0
1141,68.0,0.0,120.0,1.0,0.0
1142,52.0,120.0,120.0,2.0,0.0
1143,66.0,120.0,120.0,1.0,0.0
1144,51.0,0.0,120.0,2.0,0.0
1145,49.0,0.0,120.0,2.0,0.0
1146,64.0,120.0,120.0,1.0,0.0
1147,48.0,0.0,120.0,2.0,0.0
1148,63.0,240.0,120.0,1.0,0.0
1149,49.0,0.0,240.0,2.0,0.0
1150,64.0,120.0,1680.0,1.0,0.0
1151,64.0,120.0,120.0,0.0,0.0
1152,66.0,120.0,120.0,0.0,0.0
1153,61.0,120.0,240.0,2.0,0.0
1154,68.0,0.0,120.0,0.0,0.0
1155,66.0,120.0,120.0,0.0,0.0
1156,63.0,120.0,120.0,2.0,0.0
1157,67.0,0.0,120.0,0.0,0.0
1158,61.0,120.0,120.0,2.0,0.0
1159,70.0,0.0,120.0,0.0,0.0
1160,59.0,0.0,120.0,2.0,0.0
1161,71.0,120.0,120.0,0.0,0.0
1162,61.0,0.0,120.0,2.0,0.0
1163,70.0,120.0,120.0,0.0,0.0
1164,59.0,0.0,120.0,2.0,0.0
1165,71.0,120.0,120.0,0.0,0.0
1166,58.0,0.0,120.0,2.0,0.0
1167,73.0,120.0,120.0,0.0,0.0
1168,56.0,120.0,120.0,2.0,0.0
1169,75.0,0.0,120.0,0.0,0.0
1170,73.0,0.0,1680.0,0.0,0.0
1171,58.0,120.0,120.0,2.0,0.0
1172,56.0,0.0,120.0,2.0,0.0
1173,71.0,0.0,240.0,1.0,0.0
1174,54.0,120.0,120.0,2.0,0.0
1175,53.0,120.0,120.0,2.0,0.0
1176,70.0,0.0,240.0,1.0,0.0
1177,54.0,120.0,120.0,2.0,0.0
1178,52.0,120.0,120.0,2.0,0.0
1179,68.0,120.0,240.0,1.0,0.0
1180,51.0,120.0,120.0,2.0,0.0
1181,49.0,0.0,120.0,2.0,0.0
1182,51.0,120.0,120.0,2.0,0.0
1183,66.0,0.0,120.0,1.0,0.0
1184,49.0,120.0,120.0,2.0,0.0
1185,63.0,0.0,120.0,1.0,0.0
1186,64.0,120.0,120.0,1.0,0.0
1187,47.0,0.0,120.0,2.0,0.0
1188,61.0,0.0,120.0,1.0,0.0
1189,46.0,120.0,120.0,2.0,0.0
1190,63.0,120.0,240.0,1.0,0.0
1191,47.0,120.0,120.0,2.0,0.0
1192,61.0,0.0,120.0,2.0,0.0
1193,64.0,120.0,240.0,1.0,0.0
1194,66.0,0.0,240.0,0.0,0.0
1195,59.0,120.0,120.0,2.0,0.0
1196,58.0,0.0,120.0,2.0,0.0
1197,59.0,120.0,120.0,2.0,0.0
1198,63.0,0.0,240.0,1.0,0.0
1199,68.0,120.0,240.0,0.0,0.0
1200,58.0,0.0,120.0,2.0,0.0
1201,56.0,120.0,120.0,2.0,0.0
1202,70.0,0.0,240.0,0.0,0.0
1203,55.0,80.0,120.0,2.0,0.0
1204,61.0,0.0,15.0,1.0,0.0
1205,71.0,40.0,120.0,0.0,0.0
1206,56.0,120.0,600.0,2.0,0.0
1207,59.0,80.0,90.0,1.0,0.0
1208,75.0,120.0,120.0,0.0,0.0
1209,61.0,0.0,90.0,1.0,0.0
1210,59.0,0.0,120.0,1.0,0.0
1211,73.0,120.0,120.0,0.0,0.0
1212,58.0,120.0,120.0,1.0,0.0
1213,76.0,0.0,120.0,0.0,0.0
1214,75.0,120.0,240.0,0.0,0.0
1215,59.0,120.0,600.0,1.0,0.0
1216,54.0,0.0,120.0,2.0,0.0
1217,52.0,120.0,120.0,2.0,0.0
1218,73.0,0.0,240.0,0.0,0.0
1219,56.0,120.0,120.0,2.0,0.0
1220,54.0,120.0,720.0,2.0,0.0
1221,75.0,120.0,240.0,0.0,0.0
1222,63.0,0.0,120.0,1.0,0.0
1223,61.0,120.0,120.0,1.0,0.0
1224,76.0,60.0,240.0,0.0,0.0
1225,59.0,0.0,120.0,1.0,0.0
1226,78.0,60.0,60.0,0.0,0.0
1227,58.0,0.0,120.0,1.0,0.0
1228,76.0,120.0,60.0,0.0,0.0
1229,78.0,120.0,240.0,0.0,0.0
1230,56.0,0.0,120.0,1.0,0.0
1231,49.0,120.0,240.0,2.0,0.0
1232,54.0,0.0,120.0,1.0,0.0
1233,52.0,0.0,120.0,1.0,0.0
1234,80.0,0.0,120.0,0.0,0.0
1235,78.0,120.0,600.0,0.0,0.0
1236,51.0,120.0,120.0,1.0,0.0
1237,51.0,120.0,240.0,2.0,0.0
1238,54.0,0.0,120.0,1.0,0.0
1239,59.0,120.0,120.0,1.0,0.0
1240,63.0,120.0,120.0,1.0,0.0
1241,66.0,0.0,240.0,1.0,0.0
1242,75.0,120.0,120.0,0.0,0.0
1243,59.0,0.0,360.0,1.0,0.0
1244,56.0,0.0,240.0,2.0,0.0
1245,76.0,120.0,120.0,0.0,0.0
1246,78.0,120.0,120.0,0.0,0.0
1247,80.0,120.0,120.0,0.0,0.0
1248,52.0,0.0,240.0,2.0,0.0
1249,82.0,120.0,120.0,0.0,0.0
1250,61.0,0.0,120.0,1.0,0.0
1251,83.0,120.0,120.0,0.0,0.0
1252,58.0,0.0,240.0,1.0,0.0
1253,54.0,0.0,240.0,2.0,0.0
1254,85.0,120.0,120.0,0.0,0.0
1255,59.0,120.0,480.0,1.0,0.0
1256,47.0,120.0,600.0,2.0,0.0
1257,87.0,120.0,120.0,0.0,0.0
1258,83.0,120.0,120.0,0.0,0.0
1259,78.0,120.0,120.0,0.0,0.0
1260,75.0,0.0,120.0,0.0,0.0
1261,71.0,120.0,240.0,0.0,0.0
1262,51.0,0.0,120.0,2.0,0.0
1263,54.0,120.0,120.0,2.0,0.0
1264,58.0,480.0,120.0,2.0,0.0
1265,59.0,0.0,480.0,2.0,0.0
