,note,step,duration,channel,velocity
0,47.0,512.0,1020.0,4.0,0.0
1,66.0,0.0,510.0,5.0,0.0
2,71.0,512.0,510.0,5.0,0.0
3,73.0,256.0,510.0,5.0,0.0
4,75.0,256.0,270.0,5.0,0.0
5,73.0,256.0,270.0,5.0,0.0
6,54.0,0.0,510.0,4.0,0.0
7,70.0,0.0,510.0,6.0,0.0
8,71.0,256.0,270.0,5.0,0.0
9,73.0,256.0,270.0,5.0,0.0
10,71.0,256.0,510.0,6.0,0.0
11,66.0,0.0,15.0,7.0,0.0
12,75.0,256.0,270.0,5.0,0.0
13,59.0,0.0,510.0,4.0,0.0
14,76.0,0.0,270.0,5.0,0.0
15,75.0,256.0,270.0,5.0,0.0
16,70.0,0.0,510.0,6.0,0.0
17,64.0,0.0,510.0,7.0,0.0
18,61.0,0.0,510.0,4.0,0.0
19,76.0,256.0,270.0,5.0,0.0
20,78.0,256.0,270.0,5.0,0.0
21,63.0,256.0,510.0,4.0,0.0
22,63.0,0.0,510.0,7.0,0.0
23,71.0,0.0,1530.0,6.0,0.0
24,83.0,0.0,270.0,5.0,0.0
25,82.0,256.0,270.0,5.0,0.0
26,64.0,0.0,510.0,4.0,0.0
27,80.0,256.0,270.0,5.0,0.0
28,66.0,256.0,510.0,4.0,0.0
29,61.0,0.0,15.0,7.0,0.0
30,78.0,256.0,270.0,5.0,0.0
31,76.0,0.0,270.0,5.0,0.0
32,66.0,256.0,1020.0,7.0,0.0
33,70.0,0.0,1020.0,6.0,0.0
34,75.0,256.0,270.0,5.0,0.0
35,54.0,256.0,510.0,4.0,0.0
36,76.0,0.0,270.0,5.0,0.0
37,75.0,256.0,270.0,5.0,0.0
38,59.0,0.0,510.0,4.0,0.0
39,80.0,0.0,270.0,5.0,0.0
40,61.0,0.0,510.0,7.0,0.0
41,61.0,0.0,510.0,4.0,0.0
42,68.0,256.0,1020.0,6.0,0.0
43,78.0,256.0,270.0,5.0,0.0
44,76.0,256.0,270.0,5.0,0.0
45,58.0,0.0,510.0,7.0,0.0
46,75.0,256.0,270.0,5.0,0.0
47,63.0,0.0,510.0,4.0,0.0
48,73.0,0.0,270.0,5.0,0.0
49,71.0,256.0,270.0,5.0,0.0
50,67.0,0.0,510.0,6.0,0.0
51,51.0,256.0,510.0,4.0,0.0
52,63.0,0.0,1020.0,7.0,0.0
53,73.0,0.0,270.0,5.0,0.0
54,71.0,256.0,270.0,5.0,0.0
55,56.0,256.0,510.0,4.0,0.0
56,68.0,0.0,510.0,6.0,0.0
57,76.0,0.0,270.0,5.0,0.0
58,75.0,256.0,270.0,5.0,0.0
59,76.0,256.0,1020.0,6.0,0.0
60,66.0,0.0,510.0,7.0,0.0
61,57.0,256.0,510.0,4.0,0.0
62,73.0,0.0,270.0,5.0,0.0
63,71.0,256.0,270.0,5.0,0.0
64,68.0,0.0,510.0,7.0,0.0
65,59.0,0.0,510.0,4.0,0.0
66,69.0,0.0,270.0,5.0,0.0
67,68.0,256.0,270.0,5.0,0.0
68,47.0,256.0,510.0,4.0,0.0
69,71.0,0.0,1020.0,7.0,0.0
70,75.0,0.0,1020.0,6.0,0.0
71,69.0,0.0,270.0,5.0,0.0
72,52.0,256.0,510.0,4.0,0.0
73,68.0,256.0,270.0,5.0,0.0
74,71.0,0.0,270.0,5.0,0.0
75,73.0,256.0,510.0,6.0,0.0
76,70.0,256.0,270.0,5.0,0.0
77,64.0,0.0,510.0,4.0,0.0
78,73.0,0.0,270.0,5.0,0.0
79,71.0,256.0,270.0,5.0,0.0
80,66.0,0.0,15.0,7.0,0.0
81,63.0,0.0,510.0,4.0,0.0
82,78.0,0.0,510.0,6.0,0.0
83,83.0,0.0,270.0,5.0,0.0
84,76.0,0.0,510.0,6.0,0.0
85,61.0,0.0,510.0,4.0,0.0
86,70.0,256.0,510.0,7.0,0.0
87,82.0,256.0,270.0,5.0,0.0
88,80.0,0.0,270.0,5.0,0.0
89,78.0,256.0,270.0,5.0,0.0
90,75.0,0.0,510.0,6.0,0.0
91,71.0,256.0,510.0,7.0,0.0
92,63.0,0.0,510.0,4.0,0.0
93,76.0,0.0,270.0,5.0,0.0
94,64.0,0.0,510.0,4.0,0.0
95,75.0,128.0,270.0,5.0,0.0
96,59.0,512.0,510.0,7.0,0.0
97,71.0,0.0,510.0,6.0,0.0
98,76.0,128.0,120.0,5.0,0.0
99,78.0,0.0,120.0,5.0,0.0
100,73.0,256.0,780.0,5.0,0.0
101,66.0,0.0,510.0,4.0,0.0
102,71.0,256.0,510.0,6.0,0.0
103,66.0,0.0,510.0,7.0,0.0
104,54.0,512.0,510.0,4.0,0.0
105,64.0,0.0,510.0,7.0,0.0
106,70.0,0.0,510.0,6.0,0.0
107,63.0,0.0,1020.0,7.0,0.0
108,66.0,0.0,1020.0,6.0,0.0
109,71.0,0.0,15.0,5.0,0.0
110,47.0,512.0,510.0,4.0,0.0
111,54.0,512.0,510.0,4.0,0.0
112,59.0,0.0,510.0,2.0,0.0
113,66.0,0.0,1020.0,0.0,0.0
114,59.0,512.0,510.0,4.0,0.0
115,59.0,0.0,510.0,3.0,0.0
116,63.0,0.0,1020.0,1.0,0.0
117,58.0,0.0,510.0,3.0,0.0
118,58.0,0.0,510.0,4.0,0.0
119,61.0,512.0,510.0,2.0,0.0
120,56.0,0.0,510.0,3.0,0.0
121,63.0,512.0,1020.0,2.0,0.0
122,71.0,0.0,1020.0,0.0,0.0
123,68.0,512.0,1530.0,1.0,0.0
124,56.0,512.0,510.0,4.0,0.0
125,54.0,0.0,510.0,4.0,0.0
126,54.0,0.0,510.0,3.0,0.0
127,52.0,0.0,510.0,3.0,0.0
128,73.0,0.0,1020.0,0.0,0.0
129,61.0,0.0,1020.0,2.0,0.0
130,52.0,0.0,510.0,4.0,0.0
131,54.0,0.0,510.0,4.0,0.0
132,70.0,0.0,510.0,1.0,0.0
133,54.0,512.0,510.0,3.0,0.0
134,75.0,0.0,1020.0,0.0,0.0
135,71.0,0.0,1020.0,1.0,0.0
136,47.0,512.0,510.0,4.0,0.0
137,59.0,512.0,1020.0,3.0,0.0
138,59.0,0.0,510.0,4.0,0.0
139,71.0,0.0,510.0,6.0,0.0
140,66.0,0.0,510.0,5.0,0.0
141,56.0,0.0,510.0,4.0,0.0
142,59.0,0.0,15.0,2.0,0.0
143,80.0,0.0,1020.0,0.0,0.0
144,59.0,0.0,15.0,7.0,0.0
145,71.0,0.0,510.0,6.0,0.0
146,64.0,0.0,1020.0,1.0,0.0
147,71.0,0.0,510.0,5.0,0.0
148,64.0,0.0,510.0,6.0,0.0
149,56.0,256.0,510.0,7.0,0.0
150,73.0,0.0,510.0,5.0,0.0
151,52.0,0.0,510.0,4.0,0.0
152,64.0,0.0,510.0,3.0,0.0
153,63.0,256.0,270.0,3.0,0.0
154,59.0,256.0,510.0,4.0,0.0
155,66.0,0.0,270.0,6.0,0.0
156,66.0,0.0,270.0,1.0,0.0
157,78.0,256.0,1530.0,0.0,0.0
158,59.0,0.0,510.0,2.0,0.0
159,75.0,0.0,270.0,5.0,0.0
160,59.0,0.0,510.0,7.0,0.0
161,68.0,0.0,270.0,6.0,0.0
162,73.0,0.0,270.0,5.0,0.0
163,64.0,0.0,270.0,3.0,0.0
164,68.0,0.0,270.0,1.0,0.0
165,54.0,0.0,510.0,2.0,0.0
166,66.0,0.0,270.0,6.0,0.0
167,66.0,0.0,270.0,1.0,0.0
168,63.0,0.0,270.0,3.0,0.0
169,54.0,256.0,510.0,7.0,0.0
170,71.0,0.0,270.0,5.0,0.0
171,51.0,256.0,270.0,4.0,0.0
172,73.0,0.0,270.0,5.0,0.0
173,68.0,0.0,270.0,1.0,0.0
174,64.0,0.0,270.0,3.0,0.0
175,68.0,0.0,270.0,6.0,0.0
176,52.0,0.0,270.0,4.0,0.0
177,70.0,0.0,510.0,1.0,0.0
178,75.0,256.0,270.0,5.0,0.0
179,66.0,0.0,510.0,3.0,0.0
180,66.0,0.0,510.0,7.0,0.0
181,54.0,0.0,510.0,4.0,0.0
182,70.0,0.0,510.0,6.0,0.0
183,76.0,0.0,270.0,5.0,0.0
184,75.0,256.0,270.0,5.0,0.0
185,66.0,0.0,510.0,7.0,0.0
186,54.0,0.0,510.0,3.0,0.0
187,76.0,0.0,510.0,0.0,0.0
188,73.0,0.0,510.0,6.0,0.0
189,73.0,0.0,510.0,1.0,0.0
190,42.0,0.0,510.0,4.0,0.0
191,76.0,0.0,270.0,5.0,0.0
192,78.0,256.0,270.0,5.0,0.0
193,47.0,0.0,510.0,4.0,0.0
194,66.0,0.0,510.0,7.0,0.0
195,66.0,256.0,15.0,2.0,0.0
196,71.0,256.0,510.0,6.0,0.0
197,71.0,256.0,1020.0,1.0,0.0
198,59.0,0.0,1020.0,3.0,0.0
199,75.0,0.0,1020.0,0.0,0.0
200,83.0,0.0,270.0,5.0,0.0
201,59.0,0.0,510.0,4.0,0.0
202,75.0,0.0,510.0,6.0,0.0
203,82.0,256.0,270.0,5.0,0.0
204,63.0,0.0,270.0,7.0,0.0
205,64.0,0.0,270.0,7.0,0.0
206,80.0,0.0,270.0,5.0,0.0
207,58.0,256.0,510.0,4.0,0.0
208,78.0,256.0,270.0,5.0,0.0
209,73.0,0.0,510.0,6.0,0.0
210,66.0,0.0,510.0,7.0,0.0
211,76.0,0.0,270.0,5.0,0.0
212,70.0,0.0,510.0,6.0,0.0
213,66.0,0.0,1020.0,7.0,0.0
214,75.0,256.0,270.0,5.0,0.0
215,54.0,256.0,510.0,4.0,0.0
216,76.0,0.0,270.0,5.0,0.0
217,71.0,0.0,510.0,6.0,0.0
218,59.0,256.0,510.0,4.0,0.0
219,75.0,256.0,270.0,5.0,0.0
220,80.0,0.0,270.0,5.0,0.0
221,68.0,256.0,1020.0,6.0,0.0
222,78.0,256.0,270.0,5.0,0.0
223,61.0,0.0,510.0,7.0,0.0
224,61.0,256.0,510.0,4.0,0.0
225,76.0,0.0,270.0,5.0,0.0
226,75.0,256.0,270.0,5.0,0.0
227,58.0,0.0,510.0,7.0,0.0
228,63.0,0.0,510.0,4.0,0.0
229,73.0,0.0,270.0,5.0,0.0
230,63.0,256.0,1020.0,7.0,0.0
231,51.0,256.0,510.0,4.0,0.0
232,67.0,0.0,510.0,6.0,0.0
233,71.0,256.0,270.0,5.0,0.0
234,73.0,0.0,270.0,5.0,0.0
235,56.0,0.0,510.0,4.0,0.0
236,71.0,256.0,270.0,5.0,0.0
237,68.0,0.0,510.0,6.0,0.0
238,76.0,0.0,270.0,5.0,0.0
239,76.0,0.0,1020.0,6.0,0.0
240,75.0,256.0,270.0,5.0,0.0
241,57.0,256.0,510.0,4.0,0.0
242,66.0,0.0,510.0,7.0,0.0
243,73.0,0.0,270.0,5.0,0.0
244,71.0,256.0,270.0,5.0,0.0
245,68.0,0.0,510.0,7.0,0.0
246,59.0,0.0,510.0,4.0,0.0
247,69.0,256.0,270.0,5.0,0.0
248,47.0,0.0,510.0,4.0,0.0
249,75.0,0.0,1020.0,6.0,0.0
250,71.0,0.0,1020.0,7.0,0.0
251,68.0,256.0,270.0,5.0,0.0
252,69.0,256.0,270.0,5.0,0.0
253,52.0,256.0,510.0,4.0,0.0
254,68.0,256.0,270.0,5.0,0.0
255,71.0,0.0,270.0,5.0,0.0
256,66.0,0.0,1020.0,7.0,0.0
257,73.0,0.0,510.0,6.0,0.0
258,70.0,256.0,270.0,5.0,0.0
259,54.0,256.0,510.0,4.0,0.0
260,73.0,0.0,270.0,5.0,0.0
261,71.0,0.0,510.0,6.0,0.0
262,80.0,0.0,1020.0,0.0,0.0
263,56.0,0.0,510.0,4.0,0.0
264,56.0,256.0,510.0,3.0,0.0
265,71.0,256.0,270.0,5.0,0.0
266,71.0,0.0,510.0,1.0,0.0
267,83.0,0.0,270.0,5.0,0.0
268,58.0,256.0,510.0,3.0,0.0
269,64.0,0.0,510.0,7.0,0.0
270,58.0,0.0,510.0,4.0,0.0
271,82.0,256.0,270.0,5.0,0.0
272,73.0,0.0,510.0,1.0,0.0
273,73.0,0.0,510.0,6.0,0.0
274,80.0,0.0,270.0,5.0,0.0
275,75.0,256.0,510.0,6.0,0.0
276,59.0,0.0,510.0,4.0,0.0
277,63.0,0.0,510.0,7.0,0.0
278,78.0,256.0,270.0,5.0,0.0
279,78.0,0.0,1530.0,0.0,0.0
280,59.0,0.0,15.0,2.0,0.0
281,75.0,0.0,510.0,1.0,0.0
282,59.0,0.0,1020.0,3.0,0.0
283,76.0,0.0,270.0,5.0,0.0
284,51.0,0.0,510.0,4.0,0.0
285,66.0,0.0,510.0,7.0,0.0
286,75.0,128.0,270.0,5.0,0.0
287,63.0,512.0,510.0,2.0,0.0
288,71.0,256.0,1020.0,1.0,0.0
289,71.0,0.0,1020.0,6.0,0.0
290,76.0,128.0,120.0,5.0,0.0
291,78.0,0.0,120.0,5.0,0.0
292,52.0,0.0,510.0,4.0,0.0
293,68.0,0.0,510.0,2.0,0.0
294,52.0,0.0,510.0,3.0,0.0
295,73.0,256.0,780.0,5.0,0.0
296,68.0,0.0,510.0,7.0,0.0
297,54.0,0.0,510.0,4.0,0.0
298,61.0,0.0,510.0,2.0,0.0
299,76.0,0.0,510.0,0.0,0.0
300,54.0,0.0,510.0,3.0,0.0
301,70.0,0.0,510.0,6.0,0.0
302,70.0,0.0,510.0,1.0,0.0
303,70.0,0.0,510.0,7.0,0.0
304,56.0,0.0,1530.0,3.0,0.0
305,71.0,0.0,1020.0,1.0,0.0
306,56.0,0.0,510.0,4.0,0.0
307,75.0,0.0,1020.0,0.0,0.0
308,71.0,512.0,1020.0,6.0,0.0
309,59.0,512.0,510.0,2.0,0.0
310,71.0,512.0,15.0,5.0,0.0
311,63.0,0.0,1020.0,7.0,0.0
312,61.0,0.0,510.0,2.0,0.0
313,58.0,0.0,510.0,4.0,0.0
314,63.0,256.0,510.0,2.0,0.0
315,59.0,0.0,510.0,4.0,0.0
316,75.0,512.0,1020.0,0.0,0.0
317,54.0,0.0,510.0,3.0,0.0
318,56.0,0.0,510.0,4.0,0.0
319,64.0,256.0,270.0,2.0,0.0
320,66.0,0.0,270.0,2.0,0.0
321,53.0,0.0,1020.0,3.0,0.0
322,53.0,512.0,510.0,4.0,0.0
323,68.0,0.0,1020.0,2.0,0.0
324,71.0,0.0,15.0,1.0,0.0
325,73.0,0.0,2040.0,0.0,0.0
326,49.0,512.0,510.0,4.0,0.0
327,54.0,0.0,1020.0,3.0,0.0
328,66.0,0.0,510.0,2.0,0.0
329,70.0,0.0,1020.0,1.0,0.0
330,54.0,512.0,510.0,4.0,0.0
331,42.0,0.0,510.0,4.0,0.0
332,64.0,1024.0,510.0,2.0,0.0
333,47.0,0.0,1020.0,3.0,0.0
334,71.0,0.0,1020.0,1.0,0.0
335,63.0,512.0,1020.0,2.0,0.0
336,71.0,0.0,1020.0,0.0,0.0
337,47.0,0.0,1020.0,4.0,0.0
338,66.0,0.0,510.0,5.0,0.0
339,71.0,512.0,510.0,5.0,0.0
340,73.0,256.0,510.0,5.0,0.0
341,75.0,256.0,270.0,5.0,0.0
342,73.0,256.0,270.0,5.0,0.0
343,71.0,256.0,270.0,5.0,0.0
344,70.0,0.0,510.0,6.0,0.0
345,54.0,256.0,510.0,4.0,0.0
346,73.0,0.0,270.0,5.0,0.0
347,71.0,0.0,510.0,6.0,0.0
348,66.0,0.0,15.0,7.0,0.0
349,59.0,0.0,510.0,4.0,0.0
350,75.0,256.0,270.0,5.0,0.0
351,76.0,256.0,270.0,5.0,0.0
352,70.0,0.0,510.0,6.0,0.0
353,61.0,0.0,510.0,4.0,0.0
354,64.0,0.0,510.0,7.0,0.0
355,75.0,256.0,270.0,5.0,0.0
356,76.0,256.0,270.0,5.0,0.0
357,71.0,0.0,1530.0,6.0,0.0
358,63.0,0.0,510.0,7.0,0.0
359,63.0,256.0,510.0,4.0,0.0
360,78.0,256.0,270.0,5.0,0.0
361,83.0,0.0,270.0,5.0,0.0
362,64.0,0.0,510.0,4.0,0.0
363,82.0,256.0,270.0,5.0,0.0
364,80.0,0.0,270.0,5.0,0.0
365,61.0,256.0,15.0,7.0,0.0
366,78.0,256.0,270.0,5.0,0.0
367,66.0,256.0,510.0,4.0,0.0
368,76.0,0.0,270.0,5.0,0.0
369,75.0,256.0,270.0,5.0,0.0
370,70.0,0.0,1020.0,6.0,0.0
371,66.0,0.0,1020.0,7.0,0.0
372,54.0,0.0,510.0,4.0,0.0
373,76.0,256.0,270.0,5.0,0.0
374,75.0,256.0,270.0,5.0,0.0
375,59.0,0.0,510.0,4.0,0.0
376,80.0,256.0,270.0,5.0,0.0
377,68.0,0.0,1020.0,6.0,0.0
378,61.0,0.0,510.0,4.0,0.0
379,78.0,256.0,270.0,5.0,0.0
380,61.0,256.0,510.0,7.0,0.0
381,76.0,0.0,270.0,5.0,0.0
382,58.0,0.0,510.0,7.0,0.0
383,63.0,0.0,510.0,4.0,0.0
384,75.0,256.0,270.0,5.0,0.0
385,73.0,256.0,270.0,5.0,0.0
386,67.0,0.0,510.0,6.0,0.0
387,63.0,256.0,1020.0,7.0,0.0
388,51.0,256.0,510.0,4.0,0.0
389,71.0,256.0,270.0,5.0,0.0
390,73.0,0.0,270.0,5.0,0.0
391,68.0,0.0,510.0,6.0,0.0
392,56.0,0.0,510.0,4.0,0.0
393,71.0,256.0,270.0,5.0,0.0
394,76.0,0.0,270.0,5.0,0.0
395,75.0,256.0,270.0,5.0,0.0
396,57.0,0.0,510.0,4.0,0.0
397,76.0,256.0,1020.0,6.0,0.0
398,66.0,256.0,510.0,7.0,0.0
399,73.0,0.0,270.0,5.0,0.0
400,68.0,0.0,510.0,7.0,0.0
401,71.0,256.0,270.0,5.0,0.0
402,59.0,0.0,510.0,4.0,0.0
403,69.0,0.0,270.0,5.0,0.0
404,68.0,256.0,270.0,5.0,0.0
405,71.0,0.0,1020.0,7.0,0.0
406,75.0,0.0,1020.0,6.0,0.0
407,47.0,0.0,510.0,4.0,0.0
408,69.0,256.0,270.0,5.0,0.0
409,52.0,0.0,510.0,4.0,0.0
410,68.0,256.0,270.0,5.0,0.0
411,71.0,256.0,270.0,5.0,0.0
412,70.0,256.0,270.0,5.0,0.0
413,73.0,0.0,510.0,6.0,0.0
414,66.0,0.0,510.0,7.0,0.0
415,64.0,256.0,510.0,4.0,0.0
416,73.0,0.0,270.0,5.0,0.0
417,71.0,256.0,270.0,5.0,0.0
418,78.0,0.0,510.0,6.0,0.0
419,63.0,0.0,510.0,4.0,0.0
420,66.0,256.0,510.0,7.0,0.0
421,83.0,0.0,270.0,5.0,0.0
422,61.0,0.0,510.0,4.0,0.0
423,82.0,256.0,270.0,5.0,0.0
424,76.0,0.0,510.0,6.0,0.0
425,70.0,0.0,510.0,7.0,0.0
426,80.0,256.0,270.0,5.0,0.0
427,75.0,0.0,510.0,6.0,0.0
428,63.0,0.0,510.0,4.0,0.0
429,78.0,256.0,270.0,5.0,0.0
430,71.0,0.0,510.0,7.0,0.0
431,76.0,256.0,270.0,5.0,0.0
432,64.0,512.0,510.0,4.0,0.0
433,59.0,0.0,510.0,7.0,0.0
434,75.0,128.0,270.0,5.0,0.0
435,76.0,128.0,120.0,5.0,0.0
436,78.0,0.0,120.0,5.0,0.0
437,73.0,256.0,780.0,5.0,0.0
438,66.0,256.0,510.0,4.0,0.0
439,71.0,0.0,15.0,6.0,0.0
440,66.0,0.0,510.0,7.0,0.0
441,64.0,0.0,510.0,7.0,0.0
442,54.0,0.0,510.0,4.0,0.0
443,70.0,512.0,510.0,6.0,0.0
444,71.0,0.0,15.0,5.0,0.0
445,47.0,512.0,510.0,4.0,0.0
446,63.0,0.0,1020.0,7.0,0.0
447,66.0,0.0,1020.0,6.0,0.0
448,54.0,512.0,510.0,4.0,0.0
449,63.0,0.0,1020.0,1.0,0.0
450,59.0,0.0,510.0,2.0,0.0
451,66.0,512.0,1020.0,0.0,0.0
452,59.0,0.0,510.0,3.0,0.0
453,59.0,512.0,510.0,4.0,0.0
454,61.0,0.0,510.0,2.0,0.0
455,58.0,0.0,510.0,4.0,0.0
456,58.0,0.0,510.0,3.0,0.0
457,56.0,0.0,510.0,3.0,0.0
458,56.0,512.0,510.0,4.0,0.0
459,68.0,0.0,1530.0,1.0,0.0
460,71.0,0.0,1020.0,0.0,0.0
461,63.0,512.0,1020.0,2.0,0.0
462,54.0,0.0,510.0,3.0,0.0
463,54.0,0.0,510.0,4.0,0.0
464,52.0,0.0,510.0,3.0,0.0
465,73.0,0.0,1020.0,0.0,0.0
466,61.0,0.0,1020.0,2.0,0.0
467,52.0,512.0,510.0,4.0,0.0
468,70.0,0.0,510.0,1.0,0.0
469,54.0,512.0,510.0,4.0,0.0
470,54.0,0.0,510.0,3.0,0.0
471,75.0,0.0,1020.0,0.0,0.0
472,59.0,0.0,1020.0,3.0,0.0
473,71.0,0.0,1020.0,1.0,0.0
474,47.0,512.0,510.0,4.0,0.0
475,59.0,0.0,1020.0,2.0,0.0
476,66.0,0.0,510.0,5.0,0.0
477,59.0,512.0,510.0,4.0,0.0
478,64.0,0.0,1020.0,1.0,0.0
479,71.0,0.0,15.0,6.0,0.0
480,71.0,0.0,510.0,5.0,0.0
481,56.0,512.0,510.0,4.0,0.0
482,80.0,0.0,1020.0,0.0,0.0
483,59.0,0.0,15.0,7.0,0.0
484,52.0,0.0,510.0,4.0,0.0
485,56.0,0.0,510.0,7.0,0.0
486,64.0,0.0,510.0,3.0,0.0
487,64.0,0.0,510.0,6.0,0.0
488,73.0,256.0,510.0,5.0,0.0
489,63.0,0.0,270.0,3.0,0.0
490,59.0,0.0,15.0,2.0,0.0
491,59.0,0.0,510.0,4.0,0.0
492,66.0,256.0,270.0,6.0,0.0
493,59.0,0.0,510.0,7.0,0.0
494,78.0,0.0,1530.0,0.0,0.0
495,75.0,0.0,270.0,5.0,0.0
496,66.0,0.0,270.0,1.0,0.0
497,64.0,0.0,270.0,3.0,0.0
498,73.0,0.0,270.0,5.0,0.0
499,68.0,0.0,270.0,1.0,0.0
500,68.0,256.0,270.0,6.0,0.0
501,63.0,0.0,270.0,3.0,0.0
502,51.0,0.0,270.0,4.0,0.0
503,71.0,256.0,270.0,5.0,0.0
504,54.0,0.0,510.0,2.0,0.0
505,54.0,256.0,510.0,7.0,0.0
506,66.0,0.0,270.0,1.0,0.0
507,66.0,0.0,270.0,6.0,0.0
508,73.0,0.0,270.0,5.0,0.0
509,68.0,0.0,270.0,1.0,0.0
510,52.0,0.0,270.0,4.0,0.0
511,64.0,0.0,270.0,3.0,0.0
512,68.0,0.0,270.0,6.0,0.0
513,70.0,0.0,510.0,1.0,0.0
514,66.0,256.0,510.0,3.0,0.0
515,54.0,0.0,510.0,4.0,0.0
516,70.0,0.0,510.0,6.0,0.0
517,75.0,256.0,270.0,5.0,0.0
518,66.0,0.0,510.0,7.0,0.0
519,76.0,0.0,270.0,5.0,0.0
520,75.0,256.0,270.0,5.0,0.0
521,76.0,0.0,510.0,0.0,0.0
522,73.0,0.0,510.0,1.0,0.0
523,54.0,0.0,510.0,3.0,0.0
524,73.0,0.0,510.0,6.0,0.0
525,42.0,0.0,510.0,4.0,0.0
526,76.0,0.0,270.0,5.0,0.0
527,59.0,256.0,1020.0,3.0,0.0
528,75.0,0.0,1020.0,0.0,0.0
529,71.0,0.0,1020.0,1.0,0.0
530,71.0,256.0,510.0,6.0,0.0
531,66.0,256.0,15.0,7.0,0.0
532,47.0,0.0,510.0,4.0,0.0
533,66.0,0.0,15.0,2.0,0.0
534,78.0,256.0,270.0,5.0,0.0
535,83.0,0.0,270.0,5.0,0.0
536,59.0,0.0,510.0,4.0,0.0
537,82.0,0.0,270.0,5.0,0.0
538,63.0,256.0,270.0,7.0,0.0
539,75.0,0.0,510.0,6.0,0.0
540,64.0,0.0,270.0,7.0,0.0
541,80.0,0.0,270.0,5.0,0.0
542,58.0,0.0,510.0,4.0,0.0
543,78.0,256.0,270.0,5.0,0.0
544,66.0,0.0,510.0,7.0,0.0
545,73.0,256.0,510.0,6.0,0.0
546,76.0,0.0,270.0,5.0,0.0
547,54.0,0.0,510.0,4.0,0.0
548,70.0,256.0,510.0,6.0,0.0
549,75.0,256.0,270.0,5.0,0.0
550,66.0,0.0,1020.0,7.0,0.0
551,76.0,0.0,270.0,5.0,0.0
552,75.0,256.0,270.0,5.0,0.0
553,59.0,256.0,510.0,4.0,0.0
554,71.0,0.0,510.0,6.0,0.0
555,80.0,0.0,270.0,5.0,0.0
556,61.0,0.0,510.0,7.0,0.0
557,68.0,0.0,1020.0,6.0,0.0
558,78.0,256.0,270.0,5.0,0.0
559,61.0,0.0,510.0,4.0,0.0
560,76.0,256.0,270.0,5.0,0.0
561,58.0,256.0,510.0,7.0,0.0
562,63.0,0.0,510.0,4.0,0.0
563,75.0,256.0,270.0,5.0,0.0
564,73.0,0.0,270.0,5.0,0.0
565,71.0,256.0,270.0,5.0,0.0
566,67.0,256.0,510.0,6.0,0.0
567,51.0,0.0,510.0,4.0,0.0
568,63.0,0.0,1020.0,7.0,0.0
569,73.0,0.0,270.0,5.0,0.0
570,56.0,256.0,510.0,4.0,0.0
571,68.0,0.0,510.0,6.0,0.0
572,71.0,256.0,270.0,5.0,0.0
573,76.0,0.0,270.0,5.0,0.0
574,75.0,256.0,270.0,5.0,0.0
575,66.0,0.0,510.0,7.0,0.0
576,76.0,0.0,1020.0,6.0,0.0
577,57.0,256.0,510.0,4.0,0.0
578,73.0,0.0,270.0,5.0,0.0
579,71.0,256.0,270.0,5.0,0.0
580,68.0,256.0,510.0,7.0,0.0
581,59.0,0.0,510.0,4.0,0.0
582,69.0,0.0,270.0,5.0,0.0
583,71.0,0.0,1020.0,7.0,0.0
584,75.0,0.0,1020.0,6.0,0.0
585,47.0,256.0,510.0,4.0,0.0
586,68.0,256.0,270.0,5.0,0.0
587,69.0,0.0,270.0,5.0,0.0
588,52.0,0.0,510.0,4.0,0.0
589,68.0,256.0,270.0,5.0,0.0
590,71.0,256.0,270.0,5.0,0.0
591,70.0,256.0,270.0,5.0,0.0
592,66.0,0.0,1020.0,7.0,0.0
593,73.0,0.0,510.0,6.0,0.0
594,54.0,256.0,510.0,4.0,0.0
595,73.0,0.0,270.0,5.0,0.0
596,56.0,0.0,510.0,4.0,0.0
597,71.0,0.0,510.0,1.0,0.0
598,56.0,0.0,510.0,3.0,0.0
599,71.0,256.0,510.0,6.0,0.0
600,80.0,0.0,1020.0,0.0,0.0
601,71.0,256.0,270.0,5.0,0.0
602,83.0,0.0,270.0,5.0,0.0
603,64.0,0.0,510.0,7.0,0.0
604,73.0,0.0,510.0,1.0,0.0
605,82.0,256.0,270.0,5.0,0.0
606,58.0,0.0,510.0,3.0,0.0
607,58.0,256.0,510.0,4.0,0.0
608,73.0,0.0,510.0,6.0,0.0
609,80.0,0.0,270.0,5.0,0.0
610,59.0,0.0,1020.0,3.0,0.0
611,75.0,0.0,510.0,6.0,0.0
612,75.0,0.0,510.0,1.0,0.0
613,59.0,0.0,15.0,2.0,0.0
614,78.0,0.0,1530.0,0.0,0.0
615,63.0,0.0,510.0,7.0,0.0
616,59.0,0.0,510.0,4.0,0.0
617,78.0,256.0,270.0,5.0,0.0
618,76.0,256.0,270.0,5.0,0.0
619,66.0,0.0,510.0,7.0,0.0
620,63.0,0.0,510.0,2.0,0.0
621,51.0,0.0,510.0,4.0,0.0
622,71.0,0.0,1020.0,6.0,0.0
623,75.0,128.0,270.0,5.0,0.0
624,71.0,0.0,1020.0,1.0,0.0
625,76.0,128.0,120.0,5.0,0.0
626,78.0,512.0,120.0,5.0,0.0
627,52.0,0.0,510.0,3.0,0.0
628,73.0,256.0,780.0,5.0,0.0
629,68.0,0.0,510.0,2.0,0.0
630,68.0,0.0,510.0,7.0,0.0
631,52.0,256.0,510.0,4.0,0.0
632,70.0,0.0,510.0,6.0,0.0
633,70.0,512.0,510.0,1.0,0.0
634,76.0,0.0,510.0,0.0,0.0
635,70.0,0.0,510.0,7.0,0.0
636,61.0,0.0,510.0,2.0,0.0
637,54.0,0.0,510.0,3.0,0.0
638,54.0,0.0,510.0,4.0,0.0
639,71.0,0.0,270.0,5.0,0.0
640,71.0,0.0,1020.0,6.0,0.0
641,59.0,0.0,510.0,2.0,0.0
642,63.0,512.0,1020.0,7.0,0.0
643,56.0,512.0,510.0,4.0,0.0
644,71.0,0.0,1020.0,5.0,0.0
645,71.0,0.0,1020.0,1.0,0.0
646,56.0,0.0,1530.0,3.0,0.0
647,61.0,0.0,510.0,2.0,0.0
648,58.0,0.0,510.0,4.0,0.0
649,71.0,0.0,1020.0,1.0,0.0
650,63.0,0.0,510.0,2.0,0.0
651,75.0,0.0,15.0,0.0,0.0
652,59.0,256.0,510.0,4.0,0.0
653,54.0,0.0,510.0,3.0,0.0
654,56.0,512.0,510.0,4.0,0.0
655,64.0,256.0,270.0,2.0,0.0
656,66.0,0.0,270.0,2.0,0.0
657,71.0,0.0,1020.0,1.0,0.0
658,68.0,0.0,1020.0,2.0,0.0
659,53.0,512.0,510.0,4.0,0.0
660,73.0,0.0,2040.0,0.0,0.0
661,53.0,0.0,1020.0,3.0,0.0
662,49.0,512.0,510.0,4.0,0.0
663,70.0,0.0,1020.0,1.0,0.0
664,54.0,0.0,510.0,4.0,0.0
665,66.0,512.0,510.0,2.0,0.0
666,54.0,0.0,1020.0,3.0,0.0
667,64.0,0.0,510.0,2.0,0.0
668,42.0,1024.0,510.0,4.0,0.0
669,71.0,0.0,1020.0,1.0,0.0
670,63.0,512.0,1020.0,2.0,0.0
671,47.0,0.0,1020.0,3.0,0.0
672,71.0,0.0,1020.0,0.0,0.0
673,47.0,0.0,1020.0,4.0,0.0
674,66.0,0.0,510.0,5.0,0.0
675,71.0,512.0,510.0,5.0,0.0
676,73.0,256.0,510.0,5.0,0.0
677,75.0,256.0,270.0,5.0,0.0
678,73.0,256.0,270.0,5.0,0.0
679,70.0,256.0,510.0,6.0,0.0
680,66.0,0.0,510.0,7.0,0.0
681,54.0,0.0,510.0,4.0,0.0
682,71.0,256.0,270.0,5.0,0.0
683,73.0,0.0,270.0,5.0,0.0
684,59.0,0.0,510.0,4.0,0.0
685,75.0,256.0,270.0,5.0,0.0
686,66.0,0.0,510.0,7.0,0.0
687,71.0,256.0,510.0,6.0,0.0
688,76.0,0.0,270.0,5.0,0.0
689,75.0,256.0,270.0,5.0,0.0
690,70.0,256.0,510.0,6.0,0.0
691,64.0,0.0,510.0,7.0,0.0
692,61.0,0.0,510.0,4.0,0.0
693,76.0,0.0,270.0,5.0,0.0
694,71.0,256.0,1530.0,6.0,0.0
695,78.0,256.0,270.0,5.0,0.0
696,63.0,256.0,510.0,4.0,0.0
697,63.0,0.0,510.0,7.0,0.0
698,83.0,0.0,270.0,5.0,0.0
699,82.0,256.0,270.0,5.0,0.0
700,61.0,0.0,510.0,7.0,0.0
701,64.0,256.0,510.0,4.0,0.0
702,80.0,0.0,270.0,5.0,0.0
703,66.0,0.0,510.0,4.0,0.0
704,78.0,256.0,270.0,5.0,0.0
705,61.0,0.0,510.0,7.0,0.0
706,76.0,0.0,270.0,5.0,0.0
707,75.0,256.0,270.0,5.0,0.0
708,54.0,256.0,510.0,4.0,0.0
709,66.0,0.0,1020.0,7.0,0.0
710,70.0,256.0,1020.0,6.0,0.0
711,76.0,0.0,270.0,5.0,0.0
712,75.0,256.0,270.0,5.0,0.0
713,59.0,0.0,510.0,4.0,0.0
714,80.0,0.0,270.0,5.0,0.0
715,61.0,256.0,510.0,4.0,0.0
716,61.0,0.0,510.0,7.0,0.0
717,68.0,0.0,1020.0,6.0,0.0
718,78.0,256.0,270.0,5.0,0.0
719,76.0,0.0,270.0,5.0,0.0
720,58.0,256.0,510.0,7.0,0.0
721,75.0,256.0,270.0,5.0,0.0
722,63.0,0.0,510.0,4.0,0.0
723,73.0,0.0,270.0,5.0,0.0
724,51.0,0.0,510.0,4.0,0.0
725,71.0,256.0,270.0,5.0,0.0
726,63.0,256.0,1020.0,7.0,0.0
727,67.0,0.0,510.0,6.0,0.0
728,73.0,256.0,270.0,5.0,0.0
729,56.0,0.0,510.0,4.0,0.0
730,68.0,0.0,510.0,6.0,0.0
731,71.0,256.0,270.0,5.0,0.0
732,76.0,0.0,270.0,5.0,0.0
733,75.0,256.0,270.0,5.0,0.0
734,66.0,0.0,1020.0,7.0,0.0
735,76.0,0.0,1020.0,6.0,0.0
736,57.0,256.0,510.0,4.0,0.0
737,73.0,0.0,270.0,5.0,0.0
738,78.0,0.0,1020.0,0.0,0.0
739,71.0,256.0,270.0,5.0,0.0
740,71.0,0.0,1020.0,1.0,0.0
741,66.0,0.0,1020.0,2.0,0.0
742,59.0,0.0,510.0,4.0,0.0
743,59.0,0.0,1020.0,3.0,0.0
744,69.0,256.0,270.0,5.0,0.0
745,75.0,0.0,510.0,6.0,0.0
746,68.0,256.0,270.0,5.0,0.0
747,47.0,0.0,510.0,4.0,0.0
748,71.0,256.0,510.0,7.0,0.0
749,69.0,0.0,270.0,5.0,0.0
750,76.0,0.0,510.0,6.0,0.0
751,80.0,0.0,1020.0,0.0,0.0
752,68.0,256.0,270.0,5.0,0.0
753,52.0,0.0,510.0,3.0,0.0
754,52.0,0.0,510.0,4.0,0.0
755,64.0,0.0,1020.0,2.0,0.0
756,71.0,0.0,510.0,7.0,0.0
757,71.0,256.0,270.0,5.0,0.0
758,54.0,0.0,510.0,4.0,0.0
759,64.0,0.0,510.0,7.0,0.0
760,70.0,0.0,510.0,6.0,0.0
761,70.0,256.0,270.0,5.0,0.0
762,54.0,0.0,510.0,3.0,0.0
763,73.0,256.0,270.0,5.0,0.0
764,63.0,0.0,510.0,7.0,0.0
765,63.0,0.0,510.0,2.0,0.0
766,56.0,256.0,510.0,3.0,0.0
767,71.0,0.0,15.0,1.0,0.0
768,68.0,0.0,510.0,6.0,0.0
769,80.0,0.0,1020.0,0.0,0.0
770,56.0,0.0,510.0,4.0,0.0
771,71.0,256.0,270.0,5.0,0.0
772,83.0,0.0,270.0,5.0,0.0
773,71.0,0.0,510.0,6.0,0.0
774,82.0,256.0,270.0,5.0,0.0
775,53.0,0.0,510.0,4.0,0.0
776,53.0,0.0,510.0,3.0,0.0
777,61.0,0.0,510.0,7.0,0.0
778,80.0,0.0,270.0,5.0,0.0
779,54.0,0.0,510.0,4.0,0.0
780,54.0,256.0,510.0,3.0,0.0
781,61.0,256.0,15.0,2.0,0.0
782,70.0,0.0,510.0,6.0,0.0
783,78.0,256.0,270.0,5.0,0.0
784,61.0,0.0,510.0,7.0,0.0
785,73.0,0.0,1020.0,0.0,0.0
786,76.0,0.0,270.0,5.0,0.0
787,75.0,128.0,270.0,5.0,0.0
788,56.0,0.0,510.0,4.0,0.0
789,66.0,0.0,270.0,7.0,0.0
790,71.0,0.0,510.0,6.0,0.0
791,56.0,512.0,510.0,3.0,0.0
792,76.0,128.0,120.0,5.0,0.0
793,64.0,0.0,270.0,7.0,0.0
794,78.0,0.0,120.0,5.0,0.0
795,70.0,0.0,15.0,1.0,0.0
796,73.0,0.0,1020.0,0.0,0.0
797,66.0,0.0,510.0,7.0,0.0
798,54.0,0.0,510.0,4.0,0.0
799,70.0,0.0,510.0,6.0,0.0
800,73.0,256.0,780.0,5.0,0.0
801,66.0,0.0,1020.0,2.0,0.0
802,54.0,256.0,510.0,3.0,0.0
803,68.0,0.0,510.0,6.0,0.0
804,52.0,0.0,510.0,3.0,0.0
805,61.0,0.0,510.0,7.0,0.0
806,52.0,0.0,510.0,4.0,0.0
807,71.0,0.0,270.0,5.0,0.0
808,63.0,0.0,1020.0,7.0,0.0
809,78.0,0.0,1020.0,0.0,0.0
810,71.0,0.0,1020.0,5.0,0.0
811,66.0,0.0,1020.0,6.0,0.0
812,51.0,0.0,510.0,4.0,0.0
813,69.0,0.0,1020.0,1.0,0.0
814,59.0,0.0,510.0,2.0,0.0
815,51.0,512.0,510.0,3.0,0.0
816,52.0,0.0,510.0,4.0,0.0
817,61.0,0.0,510.0,2.0,0.0
818,52.0,512.0,510.0,3.0,0.0
819,54.0,256.0,510.0,4.0,0.0
820,54.0,0.0,510.0,3.0,0.0
821,78.0,0.0,1020.0,0.0,0.0
822,63.0,0.0,510.0,2.0,0.0
823,69.0,512.0,1020.0,1.0,0.0
824,64.0,256.0,270.0,2.0,0.0
825,51.0,0.0,510.0,3.0,0.0
826,51.0,0.0,510.0,4.0,0.0
827,66.0,0.0,270.0,2.0,0.0
828,71.0,0.0,1020.0,0.0,0.0
829,52.0,0.0,1020.0,3.0,0.0
830,52.0,512.0,510.0,4.0,0.0
831,64.0,512.0,1020.0,2.0,0.0
832,68.0,0.0,1020.0,1.0,0.0
833,56.0,0.0,510.0,4.0,0.0
834,59.0,512.0,510.0,3.0,0.0
835,75.0,0.0,1020.0,0.0,0.0
836,66.0,0.0,510.0,1.0,0.0
837,59.0,0.0,510.0,4.0,0.0
838,63.0,0.0,1020.0,2.0,0.0
839,56.0,0.0,510.0,4.0,0.0
840,56.0,0.0,510.0,3.0,0.0
841,53.0,0.0,510.0,3.0,0.0
842,68.0,512.0,510.0,2.0,0.0
843,73.0,0.0,1020.0,0.0,0.0
844,53.0,0.0,510.0,4.0,0.0
845,71.0,512.0,15.0,1.0,0.0
846,70.0,0.0,510.0,1.0,0.0
847,66.0,0.0,510.0,2.0,0.0
848,54.0,512.0,510.0,4.0,0.0
849,54.0,0.0,510.0,3.0,0.0
850,73.0,0.0,510.0,5.0,0.0
851,66.0,0.0,510.0,7.0,0.0
852,66.0,0.0,510.0,7.0,0.0
853,70.0,0.0,510.0,1.0,0.0
854,70.0,0.0,15.0,6.0,0.0
855,71.0,0.0,1020.0,0.0,0.0
856,51.0,512.0,510.0,3.0,0.0
857,51.0,0.0,510.0,4.0,0.0
858,78.0,0.0,510.0,5.0,0.0
859,66.0,0.0,510.0,2.0,0.0
860,53.0,0.0,510.0,3.0,0.0
861,61.0,256.0,780.0,7.0,0.0
862,53.0,0.0,510.0,4.0,0.0
863,73.0,0.0,1020.0,6.0,0.0
864,80.0,0.0,510.0,5.0,0.0
865,61.0,256.0,15.0,2.0,0.0
866,54.0,0.0,510.0,3.0,0.0
867,82.0,0.0,270.0,5.0,0.0
868,54.0,0.0,510.0,4.0,0.0
869,68.0,0.0,15.0,1.0,0.0
870,80.0,0.0,270.0,5.0,0.0
871,68.0,256.0,270.0,7.0,0.0
872,71.0,0.0,270.0,1.0,0.0
873,78.0,0.0,270.0,6.0,0.0
874,61.0,256.0,510.0,3.0,0.0
875,70.0,0.0,270.0,7.0,0.0
876,70.0,0.0,270.0,1.0,0.0
877,49.0,0.0,510.0,4.0,0.0
878,78.0,256.0,270.0,5.0,0.0
879,68.0,0.0,270.0,1.0,0.0
880,77.0,0.0,270.0,6.0,0.0
881,80.0,0.0,270.0,5.0,0.0
882,71.0,0.0,270.0,7.0,0.0
883,70.0,0.0,15.0,0.0,0.0
884,61.0,0.0,15.0,2.0,0.0
885,66.0,0.0,1020.0,1.0,0.0
886,73.0,256.0,510.0,7.0,0.0
887,78.0,0.0,1530.0,6.0,0.0
888,82.0,256.0,270.0,5.0,0.0
889,58.0,0.0,510.0,3.0,0.0
890,46.0,0.0,510.0,4.0,0.0
891,83.0,0.0,270.0,5.0,0.0
892,82.0,256.0,270.0,5.0,0.0
893,54.0,0.0,510.0,3.0,0.0
894,42.0,256.0,510.0,4.0,0.0
895,70.0,0.0,510.0,7.0,0.0
896,83.0,0.0,270.0,5.0,0.0
897,68.0,0.0,510.0,7.0,0.0
898,61.0,0.0,15.0,2.0,0.0
899,85.0,256.0,270.0,5.0,0.0
900,49.0,0.0,2040.0,3.0,0.0
901,68.0,0.0,2040.0,0.0,0.0
902,49.0,256.0,510.0,4.0,0.0
903,66.0,0.0,1020.0,1.0,0.0
904,90.0,0.0,270.0,5.0,0.0
905,80.0,0.0,270.0,6.0,0.0
906,89.0,256.0,270.0,5.0,0.0
907,47.0,0.0,510.0,4.0,0.0
908,66.0,256.0,510.0,7.0,0.0
909,87.0,0.0,270.0,5.0,0.0
910,82.0,0.0,270.0,6.0,0.0
911,85.0,256.0,270.0,5.0,0.0
912,65.0,0.0,1020.0,1.0,0.0
913,80.0,0.0,510.0,6.0,0.0
914,65.0,0.0,510.0,7.0,0.0
915,83.0,0.0,270.0,5.0,0.0
916,76.0,0.0,510.0,6.0,0.0
917,82.0,256.0,270.0,5.0,0.0
918,68.0,0.0,510.0,7.0,0.0
919,49.0,256.0,15.0,4.0,0.0
920,83.0,0.0,270.0,5.0,0.0
921,54.0,0.0,510.0,4.0,0.0
922,66.0,0.0,510.0,7.0,0.0
923,54.0,0.0,1020.0,3.0,0.0
924,66.0,0.0,1020.0,1.0,0.0
925,73.0,256.0,510.0,6.0,0.0
926,61.0,256.0,15.0,2.0,0.0
927,66.0,0.0,1020.0,0.0,0.0
928,82.0,256.0,270.0,5.0,0.0
929,87.0,0.0,270.0,5.0,0.0
930,85.0,256.0,270.0,5.0,0.0
931,71.0,256.0,510.0,7.0,0.0
932,56.0,0.0,510.0,4.0,0.0
933,75.0,0.0,1020.0,6.0,0.0
934,83.0,0.0,270.0,5.0,0.0
935,82.0,256.0,270.0,5.0,0.0
936,58.0,0.0,510.0,4.0,0.0
937,65.0,256.0,510.0,7.0,0.0
938,80.0,0.0,270.0,5.0,0.0
939,70.0,0.0,1020.0,7.0,0.0
940,46.0,256.0,510.0,4.0,0.0
941,78.0,256.0,270.0,5.0,0.0
942,74.0,0.0,510.0,6.0,0.0
943,80.0,0.0,270.0,5.0,0.0
944,78.0,256.0,270.0,5.0,0.0
945,75.0,256.0,510.0,6.0,0.0
946,51.0,0.0,510.0,4.0,0.0
947,83.0,0.0,270.0,5.0,0.0
948,61.0,0.0,510.0,7.0,0.0
949,52.0,0.0,510.0,4.0,0.0
950,83.0,256.0,1020.0,6.0,0.0
951,82.0,256.0,270.0,5.0,0.0
952,80.0,256.0,270.0,5.0,0.0
953,54.0,0.0,510.0,4.0,0.0
954,63.0,0.0,510.0,7.0,0.0
955,78.0,256.0,270.0,5.0,0.0
956,76.0,0.0,270.0,5.0,0.0
957,75.0,256.0,270.0,5.0,0.0
958,42.0,0.0,510.0,4.0,0.0
959,82.0,0.0,1020.0,6.0,0.0
960,76.0,0.0,270.0,5.0,0.0
961,75.0,256.0,270.0,5.0,0.0
962,47.0,0.0,510.0,4.0,0.0
963,66.0,256.0,15.0,7.0,0.0
964,78.0,256.0,270.0,5.0,0.0
965,80.0,0.0,510.0,6.0,0.0
966,77.0,256.0,270.0,5.0,0.0
967,71.0,256.0,510.0,7.0,0.0
968,49.0,0.0,510.0,4.0,0.0
969,80.0,0.0,270.0,5.0,0.0
970,70.0,0.0,510.0,7.0,0.0
971,51.0,256.0,510.0,4.0,0.0
972,78.0,256.0,270.0,5.0,0.0
973,75.0,0.0,510.0,6.0,0.0
974,83.0,0.0,270.0,5.0,0.0
975,73.0,0.0,510.0,7.0,0.0
976,53.0,0.0,510.0,4.0,0.0
977,82.0,256.0,270.0,5.0,0.0
978,80.0,0.0,270.0,5.0,0.0
979,82.0,256.0,270.0,5.0,0.0
980,73.0,256.0,15.0,6.0,0.0
981,54.0,256.0,510.0,4.0,0.0
982,66.0,0.0,510.0,7.0,0.0
983,80.0,0.0,270.0,5.0,0.0
984,75.0,0.0,510.0,6.0,0.0
985,78.0,128.0,270.0,5.0,0.0
986,70.0,0.0,510.0,7.0,0.0
987,59.0,512.0,510.0,4.0,0.0
988,80.0,128.0,120.0,5.0,0.0
989,82.0,0.0,120.0,5.0,0.0
990,73.0,0.0,510.0,6.0,0.0
991,77.0,256.0,780.0,5.0,0.0
992,61.0,256.0,510.0,4.0,0.0
993,68.0,0.0,15.0,7.0,0.0
994,73.0,0.0,510.0,6.0,0.0
995,49.0,256.0,510.0,4.0,0.0
996,78.0,0.0,15.0,5.0,0.0
997,54.0,0.0,510.0,4.0,0.0
998,73.0,256.0,510.0,6.0,0.0
999,83.0,0.0,270.0,5.0,0.0
1000,56.0,0.0,510.0,4.0,0.0
1001,82.0,256.0,270.0,5.0,0.0
1002,71.0,0.0,510.0,6.0,0.0
1003,80.0,0.0,270.0,5.0,0.0
1004,54.0,0.0,1020.0,3.0,0.0
1005,58.0,256.0,510.0,4.0,0.0
1006,73.0,0.0,1020.0,1.0,0.0
1007,70.0,0.0,1020.0,2.0,0.0
1008,70.0,256.0,15.0,7.0,0.0
1009,73.0,0.0,510.0,6.0,0.0
1010,78.0,256.0,270.0,5.0,0.0
1011,78.0,0.0,1020.0,0.0,0.0
1012,76.0,0.0,270.0,5.0,0.0
1013,70.0,0.0,510.0,6.0,0.0
1014,54.0,0.0,510.0,4.0,0.0
1015,75.0,256.0,270.0,5.0,0.0
1016,76.0,256.0,270.0,5.0,0.0
1017,80.0,0.0,1020.0,0.0,0.0
1018,71.0,0.0,510.0,6.0,0.0
1019,63.0,0.0,510.0,7.0,0.0
1020,59.0,0.0,510.0,3.0,0.0
1021,59.0,0.0,510.0,4.0,0.0
1022,63.0,0.0,510.0,2.0,0.0
1023,75.0,0.0,1530.0,1.0,0.0
1024,75.0,256.0,270.0,5.0,0.0
1025,80.0,256.0,270.0,5.0,0.0
1026,64.0,0.0,510.0,7.0,0.0
1027,61.0,0.0,510.0,4.0,0.0
1028,78.0,256.0,270.0,5.0,0.0
1029,61.0,0.0,510.0,3.0,0.0
1030,64.0,256.0,510.0,2.0,0.0
1031,70.0,256.0,1020.0,6.0,0.0
1032,76.0,0.0,270.0,5.0,0.0
1033,66.0,256.0,1020.0,7.0,0.0
1034,63.0,0.0,1020.0,3.0,0.0
1035,75.0,256.0,270.0,5.0,0.0
1036,78.0,0.0,1020.0,0.0,0.0
1037,66.0,0.0,1020.0,2.0,0.0
1038,63.0,0.0,510.0,4.0,0.0
1039,73.0,0.0,270.0,5.0,0.0
1040,70.0,0.0,510.0,1.0,0.0
1041,71.0,256.0,270.0,5.0,0.0
1042,54.0,0.0,510.0,4.0,0.0
1043,75.0,0.0,510.0,6.0,0.0
1044,73.0,0.0,270.0,5.0,0.0
1045,71.0,256.0,270.0,5.0,0.0
1046,56.0,256.0,510.0,4.0,0.0
1047,59.0,0.0,510.0,2.0,0.0
1048,59.0,0.0,510.0,7.0,0.0
1049,56.0,0.0,510.0,3.0,0.0
1050,68.0,0.0,510.0,6.0,0.0
1051,71.0,0.0,1530.0,1.0,0.0
1052,76.0,0.0,1020.0,0.0,0.0
1053,76.0,0.0,270.0,5.0,0.0
1054,61.0,256.0,510.0,2.0,0.0
1055,66.0,256.0,1020.0,6.0,0.0
1056,58.0,0.0,510.0,3.0,0.0
1057,75.0,256.0,270.0,5.0,0.0
1058,61.0,0.0,510.0,7.0,0.0
1059,58.0,0.0,510.0,4.0,0.0
1060,73.0,0.0,270.0,5.0,0.0
1061,59.0,0.0,510.0,4.0,0.0
1062,71.0,256.0,270.0,5.0,0.0
1063,59.0,0.0,1020.0,3.0,0.0
1064,75.0,0.0,1020.0,0.0,0.0
1065,63.0,0.0,1020.0,7.0,0.0
1066,63.0,0.0,1020.0,2.0,0.0
1067,69.0,0.0,270.0,5.0,0.0
1068,68.0,256.0,270.0,5.0,0.0
1069,66.0,0.0,510.0,1.0,0.0
1070,51.0,256.0,510.0,4.0,0.0
1071,71.0,0.0,510.0,6.0,0.0
1072,69.0,0.0,270.0,5.0,0.0
1073,52.0,0.0,510.0,4.0,0.0
1074,68.0,256.0,270.0,5.0,0.0
1075,68.0,256.0,510.0,6.0,0.0
1076,68.0,0.0,1020.0,1.0,0.0
1077,64.0,0.0,780.0,2.0,0.0
1078,64.0,128.0,780.0,7.0,0.0
1079,52.0,0.0,1020.0,3.0,0.0
1080,73.0,0.0,2040.0,0.0,0.0
1081,71.0,0.0,270.0,5.0,0.0
1082,70.0,0.0,270.0,5.0,0.0
1083,49.0,0.0,510.0,4.0,0.0
1084,64.0,0.0,510.0,6.0,0.0
1085,63.0,0.0,270.0,2.0,0.0
1086,71.0,128.0,120.0,5.0,0.0
1087,63.0,0.0,270.0,7.0,0.0
1088,73.0,512.0,120.0,5.0,0.0
1089,61.0,0.0,1020.0,7.0,0.0
1090,70.0,256.0,780.0,5.0,0.0
1091,54.0,256.0,510.0,4.0,0.0
1092,61.0,0.0,1020.0,2.0,0.0
1093,54.0,0.0,1020.0,3.0,0.0
1094,66.0,0.0,15.0,6.0,0.0
1095,42.0,0.0,510.0,4.0,0.0
1096,71.0,0.0,270.0,5.0,0.0
1097,66.0,0.0,15.0,1.0,0.0
1098,63.0,0.0,2040.0,2.0,0.0
1099,47.0,512.0,1020.0,4.0,0.0
1100,47.0,0.0,2040.0,3.0,0.0
1101,63.0,0.0,1020.0,7.0,0.0
1102,71.0,512.0,510.0,5.0,0.0
1103,71.0,0.0,2040.0,0.0,0.0
1104,66.0,0.0,1020.0,6.0,0.0
1105,66.0,0.0,510.0,5.0,0.0
1106,71.0,512.0,510.0,5.0,0.0
1107,73.0,256.0,510.0,5.0,0.0
1108,75.0,256.0,270.0,5.0,0.0
1109,73.0,256.0,270.0,5.0,0.0
1110,54.0,0.0,510.0,4.0,0.0
1111,70.0,0.0,510.0,6.0,0.0
1112,71.0,256.0,270.0,5.0,0.0
1113,73.0,256.0,270.0,5.0,0.0
1114,59.0,0.0,510.0,4.0,0.0
1115,66.0,0.0,15.0,7.0,0.0
1116,75.0,256.0,270.0,5.0,0.0
1117,71.0,0.0,510.0,6.0,0.0
1118,76.0,0.0,270.0,5.0,0.0
1119,64.0,0.0,510.0,7.0,0.0
1120,70.0,256.0,510.0,6.0,0.0
1121,61.0,0.0,510.0,4.0,0.0
1122,75.0,256.0,270.0,5.0,0.0
1123,76.0,0.0,270.0,5.0,0.0
1124,63.0,256.0,510.0,7.0,0.0
1125,71.0,256.0,1530.0,6.0,0.0
1126,78.0,256.0,270.0,5.0,0.0
1127,63.0,0.0,510.0,4.0,0.0
1128,83.0,0.0,270.0,5.0,0.0
1129,82.0,256.0,270.0,5.0,0.0
1130,64.0,0.0,510.0,4.0,0.0
1131,61.0,256.0,510.0,7.0,0.0
1132,80.0,0.0,270.0,5.0,0.0
1133,78.0,256.0,270.0,5.0,0.0
1134,61.0,0.0,510.0,7.0,0.0
1135,66.0,0.0,510.0,4.0,0.0
1136,76.0,0.0,270.0,5.0,0.0
1137,70.0,0.0,1020.0,6.0,0.0
1138,54.0,0.0,510.0,4.0,0.0
1139,66.0,0.0,1020.0,7.0,0.0
1140,75.0,256.0,270.0,5.0,0.0
1141,76.0,256.0,270.0,5.0,0.0
1142,59.0,0.0,510.0,4.0,0.0
1143,75.0,256.0,270.0,5.0,0.0
1144,80.0,256.0,270.0,5.0,0.0
1145,78.0,256.0,270.0,5.0,0.0
1146,61.0,0.0,510.0,7.0,0.0
1147,68.0,0.0,1020.0,6.0,0.0
1148,61.0,0.0,510.0,4.0,0.0
1149,76.0,256.0,270.0,5.0,0.0
1150,58.0,0.0,510.0,7.0,0.0
1151,63.0,256.0,510.0,4.0,0.0
1152,75.0,256.0,270.0,5.0,0.0
1153,73.0,0.0,270.0,5.0,0.0
1154,67.0,256.0,510.0,6.0,0.0
1155,63.0,0.0,1020.0,7.0,0.0
1156,51.0,0.0,510.0,4.0,0.0
1157,71.0,256.0,270.0,5.0,0.0
1158,73.0,0.0,270.0,5.0,0.0
1159,56.0,256.0,510.0,4.0,0.0
1160,71.0,256.0,270.0,5.0,0.0
1161,68.0,0.0,510.0,6.0,0.0
1162,76.0,0.0,270.0,5.0,0.0
1163,75.0,256.0,270.0,5.0,0.0
1164,66.0,0.0,510.0,7.0,0.0
1165,76.0,0.0,1020.0,6.0,0.0
1166,57.0,256.0,510.0,4.0,0.0
1167,73.0,0.0,270.0,5.0,0.0
1168,68.0,256.0,510.0,7.0,0.0
1169,59.0,0.0,510.0,4.0,0.0
1170,71.0,256.0,270.0,5.0,0.0
1171,69.0,0.0,270.0,5.0,0.0
1172,75.0,0.0,1020.0,6.0,0.0
1173,71.0,0.0,1020.0,7.0,0.0
1174,47.0,256.0,510.0,4.0,0.0
1175,68.0,256.0,270.0,5.0,0.0
1176,69.0,0.0,270.0,5.0,0.0
1177,68.0,256.0,270.0,5.0,0.0
1178,52.0,0.0,510.0,4.0,0.0
1179,71.0,256.0,270.0,5.0,0.0
1180,64.0,0.0,510.0,4.0,0.0
1181,70.0,256.0,270.0,5.0,0.0
1182,73.0,0.0,510.0,6.0,0.0
1183,73.0,256.0,270.0,5.0,0.0
1184,63.0,0.0,510.0,4.0,0.0
1185,66.0,0.0,15.0,7.0,0.0
1186,78.0,256.0,510.0,6.0,0.0
1187,71.0,256.0,270.0,5.0,0.0
1188,83.0,0.0,270.0,5.0,0.0
1189,70.0,0.0,510.0,7.0,0.0
1190,61.0,0.0,510.0,4.0,0.0
1191,76.0,0.0,510.0,6.0,0.0
1192,82.0,256.0,270.0,5.0,0.0
1193,80.0,256.0,270.0,5.0,0.0
1194,71.0,0.0,510.0,7.0,0.0
1195,63.0,0.0,510.0,4.0,0.0
1196,78.0,256.0,270.0,5.0,0.0
1197,75.0,0.0,510.0,6.0,0.0
1198,76.0,256.0,270.0,5.0,0.0
1199,59.0,512.0,510.0,7.0,0.0
1200,64.0,0.0,510.0,4.0,0.0
1201,75.0,128.0,270.0,5.0,0.0
1202,76.0,128.0,120.0,5.0,0.0
1203,78.0,0.0,120.0,5.0,0.0
1204,66.0,0.0,510.0,4.0,0.0
1205,73.0,256.0,780.0,5.0,0.0
1206,71.0,0.0,15.0,6.0,0.0
1207,66.0,0.0,510.0,7.0,0.0
1208,54.0,0.0,510.0,4.0,0.0
1209,70.0,2048.0,510.0,6.0,0.0
1210,64.0,0.0,510.0,7.0,0.0
1211,71.0,0.0,15.0,5.0,0.0
1212,47.0,0.0,2040.0,4.0,0.0
1213,63.0,0.0,2040.0,7.0,0.0
1214,66.0,0.0,2040.0,6.0,0.0
