,note,step,duration,channel,velocity
0,63.0,0.0,1020.0,0.0,0.0
1,58.0,0.0,1020.0,1.0,0.0
2,51.0,0.0,1020.0,3.0,0.0
3,54.0,512.0,15.0,2.0,0.0
4,63.0,0.0,1020.0,0.0,0.0
5,51.0,512.0,510.0,3.0,0.0
6,53.0,0.0,510.0,2.0,0.0
7,49.0,512.0,510.0,3.0,0.0
8,47.0,0.0,1020.0,3.0,0.0
9,63.0,512.0,1020.0,0.0,0.0
10,51.0,0.0,1020.0,2.0,0.0
11,58.0,0.0,15.0,1.0,0.0
12,57.0,0.0,510.0,1.0,0.0
13,58.0,0.0,1020.0,1.0,0.0
14,62.0,0.0,1020.0,0.0,0.0
15,53.0,512.0,1020.0,2.0,0.0
16,46.0,512.0,510.0,3.0,0.0
17,44.0,0.0,510.0,3.0,0.0
18,66.0,512.0,1020.0,0.0,0.0
19,42.0,0.0,510.0,3.0,0.0
20,63.0,512.0,510.0,1.0,0.0
21,58.0,0.0,1020.0,2.0,0.0
22,61.0,0.0,510.0,1.0,0.0
23,39.0,0.0,510.0,3.0,0.0
24,59.0,512.0,510.0,1.0,0.0
25,44.0,0.0,1020.0,3.0,0.0
26,56.0,512.0,1020.0,2.0,0.0
27,65.0,0.0,1020.0,0.0,0.0
28,58.0,0.0,510.0,1.0,0.0
29,60.0,0.0,1020.0,1.0,0.0
30,45.0,0.0,1020.0,3.0,0.0
31,63.0,1024.0,1020.0,0.0,0.0
32,54.0,512.0,510.0,2.0,0.0
33,53.0,0.0,510.0,2.0,0.0
34,62.0,0.0,1020.0,0.0,0.0
35,58.0,0.0,1020.0,1.0,0.0
36,53.0,0.0,1020.0,2.0,0.0
37,58.0,512.0,1020.0,1.0,0.0
38,62.0,0.0,1020.0,0.0,0.0
39,46.0,512.0,15.0,3.0,0.0
40,47.0,512.0,1020.0,3.0,0.0
41,56.0,0.0,1020.0,1.0,0.0
42,53.0,0.0,15.0,2.0,0.0
43,46.0,512.0,1020.0,3.0,0.0
44,58.0,0.0,1020.0,1.0,0.0
45,53.0,0.0,1020.0,2.0,0.0
46,62.0,512.0,15.0,0.0,0.0
47,63.0,0.0,1020.0,0.0,0.0
48,44.0,512.0,15.0,3.0,0.0
49,58.0,0.0,1020.0,1.0,0.0
50,43.0,512.0,510.0,3.0,0.0
51,51.0,0.0,15.0,2.0,0.0
52,60.0,512.0,1020.0,0.0,0.0
53,44.0,512.0,510.0,3.0,0.0
54,42.0,0.0,510.0,3.0,0.0
55,41.0,0.0,1020.0,3.0,0.0
56,53.0,512.0,510.0,2.0,0.0
57,56.0,0.0,15.0,1.0,0.0
58,62.0,0.0,1020.0,0.0,0.0
59,56.0,0.0,510.0,2.0,0.0
60,59.0,512.0,510.0,1.0,0.0
61,58.0,1024.0,1020.0,1.0,0.0
62,56.0,256.0,510.0,2.0,0.0
63,62.0,0.0,1020.0,0.0,0.0
64,46.0,0.0,1020.0,3.0,0.0
65,54.0,256.0,270.0,2.0,0.0
66,53.0,0.0,270.0,2.0,0.0
67,54.0,0.0,1020.0,2.0,0.0
68,63.0,0.0,1020.0,0.0,0.0
69,39.0,0.0,1020.0,3.0,0.0
70,58.0,1024.0,1020.0,1.0,0.0
71,56.0,0.0,1020.0,2.0,0.0
72,65.0,0.0,1020.0,0.0,0.0
73,49.0,512.0,1020.0,3.0,0.0
74,65.0,0.0,1020.0,0.0,0.0
75,61.0,0.0,15.0,1.0,0.0
76,49.0,512.0,510.0,3.0,0.0
77,56.0,0.0,1020.0,2.0,0.0
78,51.0,512.0,510.0,3.0,0.0
79,63.0,0.0,1020.0,1.0,0.0
80,56.0,0.0,1020.0,2.0,0.0
81,68.0,512.0,1020.0,0.0,0.0
82,49.0,512.0,510.0,3.0,0.0
83,48.0,0.0,510.0,3.0,0.0
84,65.0,512.0,1020.0,0.0,0.0
85,61.0,0.0,1020.0,1.0,0.0
86,56.0,0.0,1020.0,2.0,0.0
87,49.0,512.0,510.0,3.0,0.0
88,47.0,512.0,1020.0,3.0,0.0
89,61.0,512.0,1020.0,1.0,0.0
90,54.0,0.0,1020.0,2.0,0.0
91,61.0,0.0,1020.0,0.0,0.0
92,46.0,0.0,510.0,3.0,0.0
93,54.0,512.0,1020.0,2.0,0.0
94,63.0,0.0,1020.0,0.0,0.0
95,47.0,0.0,510.0,3.0,0.0
96,59.0,512.0,510.0,1.0,0.0
97,58.0,0.0,510.0,1.0,0.0
98,48.0,0.0,510.0,3.0,0.0
99,65.0,0.0,1020.0,0.0,0.0
100,49.0,512.0,510.0,3.0,0.0
101,53.0,0.0,510.0,2.0,0.0
102,56.0,0.0,510.0,1.0,0.0
103,50.0,0.0,510.0,3.0,0.0
104,56.0,1024.0,510.0,2.0,0.0
105,59.0,0.0,510.0,1.0,0.0
106,51.0,0.0,1020.0,3.0,0.0
107,54.0,0.0,1020.0,2.0,0.0
108,58.0,0.0,1020.0,1.0,0.0
109,39.0,0.0,1020.0,3.0,0.0
110,63.0,512.0,1530.0,1.0,0.0
111,66.0,1024.0,15.0,0.0,0.0
112,65.0,0.0,1020.0,0.0,0.0
113,46.0,0.0,1020.0,3.0,0.0
114,58.0,512.0,15.0,2.0,0.0
115,62.0,512.0,510.0,1.0,0.0
116,63.0,0.0,1020.0,0.0,0.0
117,47.0,0.0,1020.0,3.0,0.0
118,63.0,512.0,510.0,1.0,0.0
119,56.0,0.0,510.0,2.0,0.0
120,51.0,1024.0,510.0,1.0,0.0
121,46.0,0.0,1020.0,3.0,0.0
122,53.0,1024.0,1020.0,2.0,0.0
123,58.0,0.0,1020.0,1.0,0.0
124,46.0,512.0,1020.0,3.0,0.0
125,62.0,0.0,15.0,0.0,0.0
126,58.0,0.0,1020.0,1.0,0.0
127,53.0,0.0,15.0,2.0,0.0
128,62.0,0.0,15.0,0.0,0.0
129,56.0,512.0,510.0,1.0,0.0
130,41.0,0.0,510.0,3.0,0.0
131,58.0,0.0,510.0,1.0,0.0
132,42.0,512.0,510.0,3.0,0.0
133,53.0,512.0,1020.0,2.0,0.0
134,59.0,512.0,510.0,1.0,0.0
135,62.0,0.0,15.0,0.0,0.0
136,44.0,0.0,1020.0,3.0,0.0
137,58.0,0.0,510.0,1.0,0.0
138,63.0,0.0,1020.0,0.0,0.0
139,42.0,512.0,510.0,3.0,0.0
140,58.0,256.0,1020.0,1.0,0.0
141,51.0,256.0,1290.0,2.0,0.0
142,43.0,0.0,510.0,3.0,0.0
143,44.0,512.0,510.0,3.0,0.0
144,60.0,512.0,1020.0,0.0,0.0
145,60.0,0.0,1020.0,1.0,0.0
146,53.0,0.0,270.0,2.0,0.0
147,45.0,0.0,510.0,3.0,0.0
148,54.0,0.0,510.0,2.0,0.0
149,46.0,0.0,1020.0,3.0,0.0
150,53.0,512.0,510.0,2.0,0.0
151,51.0,0.0,510.0,2.0,0.0
152,53.0,256.0,270.0,2.0,0.0
153,62.0,256.0,15.0,0.0,0.0
154,58.0,0.0,15.0,1.0,0.0
155,34.0,0.0,1020.0,3.0,0.0
156,54.0,512.0,270.0,2.0,0.0
157,58.0,512.0,15.0,1.0,0.0
158,56.0,0.0,15.0,2.0,0.0
159,39.0,0.0,2040.0,3.0,0.0
160,63.0,0.0,2040.0,0.0,0.0
161,55.0,0.0,1530.0,2.0,0.0
