,note,step,duration,channel,velocity
0,89.0,0.0,15.0,0.0,0.0
1,77.0,0.0,15.0,0.0,0.0
2,65.0,16.0,15.0,1.0,0.0
3,87.0,88.0,15.0,0.0,0.0
4,63.0,0.0,15.0,1.0,0.0
5,75.0,0.0,15.0,1.0,0.0
6,77.0,0.0,90.0,0.0,0.0
7,89.0,0.0,90.0,0.0,0.0
8,65.0,56.0,90.0,1.0,0.0
9,75.0,16.0,15.0,0.0,0.0
10,87.0,0.0,15.0,0.0,0.0
11,63.0,0.0,15.0,1.0,0.0
12,85.0,0.0,15.0,0.0,0.0
13,61.0,16.0,15.0,1.0,0.0
14,84.0,16.0,15.0,0.0,0.0
15,60.0,0.0,15.0,1.0,0.0
16,82.0,0.0,15.0,0.0,0.0
17,58.0,30.0,15.0,1.0,0.0
18,81.0,0.0,30.0,0.0,0.0
19,57.0,0.0,30.0,1.0,0.0
20,69.0,61.0,30.0,1.0,0.0
21,82.0,213.0,60.0,0.0,0.0
22,58.0,0.0,60.0,1.0,0.0
23,70.0,0.0,60.0,1.0,0.0
24,65.0,0.0,15.0,0.0,0.0
25,77.0,0.0,15.0,0.0,0.0
26,53.0,16.0,15.0,1.0,0.0
27,75.0,88.0,15.0,0.0,0.0
28,51.0,0.0,15.0,1.0,0.0
29,63.0,0.0,15.0,1.0,0.0
30,65.0,0.0,90.0,0.0,0.0
31,77.0,0.0,90.0,0.0,0.0
32,53.0,70.0,90.0,1.0,0.0
33,48.0,0.0,30.0,1.0,0.0
34,60.0,32.0,30.0,0.0,0.0
35,72.0,0.0,30.0,0.0,0.0
36,49.0,0.0,30.0,1.0,0.0
37,61.0,32.0,30.0,0.0,0.0
38,73.0,0.0,30.0,0.0,0.0
39,69.0,0.0,30.0,0.0,0.0
40,45.0,0.0,30.0,1.0,0.0
41,57.0,61.0,30.0,1.0,0.0
42,70.0,0.0,60.0,0.0,0.0
43,46.0,0.0,60.0,1.0,0.0
44,58.0,213.0,60.0,1.0,0.0
45,65.0,0.0,15.0,0.0,0.0
46,41.0,16.0,15.0,1.0,0.0
47,53.0,0.0,15.0,0.0,0.0
48,63.0,0.0,15.0,0.0,0.0
49,39.0,88.0,15.0,1.0,0.0
50,51.0,0.0,15.0,1.0,0.0
51,41.0,56.0,90.0,1.0,0.0
52,65.0,0.0,90.0,0.0,0.0
53,53.0,0.0,90.0,0.0,0.0
54,51.0,0.0,15.0,0.0,0.0
55,63.0,0.0,15.0,0.0,0.0
56,39.0,16.0,15.0,1.0,0.0
57,61.0,0.0,15.0,0.0,0.0
58,37.0,16.0,15.0,1.0,0.0
59,60.0,0.0,15.0,0.0,0.0
60,36.0,16.0,15.0,1.0,0.0
61,58.0,0.0,15.0,0.0,0.0
62,34.0,30.0,15.0,1.0,0.0
63,57.0,61.0,30.0,0.0,0.0
64,33.0,0.0,30.0,1.0,0.0
65,45.0,0.0,30.0,1.0,0.0
66,58.0,0.0,60.0,0.0,0.0
67,34.0,0.0,60.0,1.0,0.0
68,46.0,685.0,60.0,1.0,0.0
69,22.0,0.0,960.0,1.0,0.0
70,36.0,0.0,240.0,1.0,0.0
71,42.0,0.0,240.0,1.0,0.0
72,48.0,256.0,240.0,0.0,0.0
73,34.0,0.0,240.0,1.0,0.0
74,57.0,0.0,240.0,0.0,0.0
75,51.0,0.0,240.0,0.0,0.0
76,51.0,0.0,240.0,0.0,0.0
77,54.0,231.0,240.0,0.0,0.0
78,60.0,0.0,240.0,0.0,0.0
79,34.0,0.0,240.0,1.0,0.0
80,36.0,0.0,240.0,1.0,0.0
81,42.0,0.0,240.0,1.0,0.0
82,45.0,0.0,240.0,1.0,0.0
83,51.0,0.0,240.0,0.0,0.0
84,42.0,0.0,240.0,1.0,0.0
85,36.0,0.0,240.0,1.0,0.0
86,46.0,0.0,240.0,1.0,0.0
87,63.0,0.0,240.0,0.0,0.0
88,57.0,0.0,240.0,0.0,0.0
89,54.0,256.0,240.0,0.0,0.0
90,34.0,25.0,210.0,1.0,0.0
91,51.0,0.0,240.0,0.0,0.0
92,60.0,0.0,240.0,0.0,0.0
93,66.0,0.0,240.0,0.0,0.0
94,34.0,0.0,240.0,1.0,0.0
95,39.0,256.0,240.0,1.0,0.0
96,42.0,0.0,240.0,1.0,0.0
97,46.0,0.0,240.0,1.0,0.0
98,48.0,0.0,240.0,1.0,0.0
99,57.0,0.0,240.0,0.0,0.0
100,48.0,0.0,240.0,1.0,0.0
101,42.0,0.0,240.0,1.0,0.0
102,54.0,512.0,240.0,0.0,0.0
103,60.0,0.0,240.0,0.0,0.0
104,39.0,0.0,240.0,1.0,0.0
105,63.0,0.0,240.0,0.0,0.0
106,69.0,0.0,240.0,0.0,0.0
107,34.0,0.0,240.0,1.0,0.0
108,46.0,0.0,240.0,1.0,0.0
109,45.0,0.0,480.0,1.0,0.0
110,42.0,0.0,480.0,1.0,0.0
111,48.0,0.0,480.0,1.0,0.0
112,46.0,0.0,480.0,1.0,0.0
113,34.0,83.0,480.0,1.0,0.0
114,39.0,0.0,480.0,1.0,0.0
115,72.0,0.0,480.0,0.0,0.0
116,69.0,0.0,480.0,0.0,0.0
117,66.0,0.0,480.0,0.0,0.0
118,63.0,0.0,480.0,0.0,0.0
119,58.0,0.0,480.0,0.0,0.0
120,39.0,64.0,60.0,1.0,0.0
121,70.0,0.0,360.0,0.0,0.0
122,63.0,0.0,60.0,0.0,0.0
123,34.0,0.0,480.0,1.0,0.0
124,46.0,0.0,480.0,1.0,0.0
125,65.0,0.0,360.0,0.0,0.0
126,41.0,211.0,480.0,1.0,0.0
127,58.0,0.0,360.0,0.0,0.0
128,60.0,0.0,60.0,0.0,0.0
129,36.0,0.0,60.0,1.0,0.0
130,48.0,250.0,60.0,1.0,0.0
131,62.0,115.0,240.0,0.0,0.0
132,38.0,0.0,240.0,1.0,0.0
133,50.0,0.0,240.0,1.0,0.0
134,69.0,44.0,60.0,0.0,0.0
135,57.0,0.0,60.0,0.0,0.0
136,58.0,0.0,30.0,0.0,0.0
137,70.0,43.0,30.0,0.0,0.0
138,60.0,43.0,30.0,0.0,0.0
139,72.0,0.0,30.0,0.0,0.0
140,57.0,0.0,30.0,0.0,0.0
141,69.0,42.0,30.0,0.0,0.0
142,58.0,0.0,30.0,0.0,0.0
143,70.0,43.0,30.0,0.0,0.0
144,60.0,0.0,30.0,0.0,0.0
145,72.0,43.0,30.0,0.0,0.0
146,57.0,42.0,30.0,0.0,0.0
147,69.0,0.0,30.0,0.0,0.0
148,58.0,0.0,30.0,0.0,0.0
149,70.0,43.0,30.0,0.0,0.0
150,72.0,43.0,30.0,0.0,0.0
151,60.0,0.0,30.0,0.0,0.0
152,57.0,0.0,30.0,0.0,0.0
153,69.0,36.0,30.0,0.0,0.0
154,58.0,0.0,30.0,0.0,0.0
155,70.0,64.0,30.0,0.0,0.0
156,60.0,0.0,30.0,0.0,0.0
157,72.0,70.0,30.0,0.0,0.0
158,73.0,43.0,30.0,0.0,0.0
159,61.0,0.0,30.0,0.0,0.0
160,63.0,0.0,30.0,0.0,0.0
161,75.0,43.0,30.0,0.0,0.0
162,60.0,42.0,30.0,0.0,0.0
163,72.0,0.0,30.0,0.0,0.0
164,61.0,0.0,30.0,0.0,0.0
165,73.0,43.0,30.0,0.0,0.0
166,75.0,0.0,30.0,0.0,0.0
167,63.0,43.0,30.0,0.0,0.0
168,60.0,0.0,30.0,0.0,0.0
169,72.0,42.0,30.0,0.0,0.0
170,61.0,0.0,30.0,0.0,0.0
171,73.0,43.0,30.0,0.0,0.0
172,63.0,43.0,30.0,0.0,0.0
173,75.0,0.0,30.0,0.0,0.0
174,72.0,36.0,30.0,0.0,0.0
175,60.0,0.0,30.0,0.0,0.0
176,61.0,0.0,30.0,0.0,0.0
177,73.0,64.0,30.0,0.0,0.0
178,63.0,0.0,30.0,0.0,0.0
179,75.0,70.0,30.0,0.0,0.0
180,77.0,43.0,30.0,0.0,0.0
181,65.0,0.0,30.0,0.0,0.0
182,66.0,0.0,30.0,0.0,0.0
183,78.0,43.0,30.0,0.0,0.0
184,63.0,0.0,30.0,0.0,0.0
185,75.0,42.0,30.0,0.0,0.0
186,65.0,0.0,30.0,0.0,0.0
187,77.0,43.0,30.0,0.0,0.0
188,78.0,43.0,30.0,0.0,0.0
189,66.0,0.0,30.0,0.0,0.0
190,63.0,0.0,30.0,0.0,0.0
191,75.0,42.0,30.0,0.0,0.0
192,65.0,0.0,30.0,0.0,0.0
193,77.0,43.0,30.0,0.0,0.0
194,78.0,26.0,30.0,0.0,0.0
195,66.0,0.0,30.0,0.0,0.0
196,63.0,0.0,20.0,0.0,0.0
197,75.0,53.0,20.0,0.0,0.0
198,65.0,0.0,30.0,0.0,0.0
199,77.0,602.0,30.0,0.0,0.0
200,69.0,0.0,60.0,0.0,0.0
201,81.0,44.0,60.0,0.0,0.0
202,70.0,43.0,30.0,0.0,0.0
203,82.0,0.0,30.0,0.0,0.0
204,58.0,0.0,30.0,1.0,0.0
205,72.0,0.0,30.0,0.0,0.0
206,60.0,43.0,30.0,1.0,0.0
207,81.0,0.0,30.0,0.0,0.0
208,57.0,42.0,30.0,1.0,0.0
209,70.0,0.0,30.0,0.0,0.0
210,82.0,43.0,30.0,0.0,0.0
211,58.0,0.0,30.0,1.0,0.0
212,60.0,43.0,30.0,1.0,0.0
213,72.0,0.0,30.0,0.0,0.0
214,81.0,0.0,30.0,0.0,0.0
215,57.0,42.0,30.0,1.0,0.0
216,70.0,0.0,30.0,0.0,0.0
217,82.0,43.0,30.0,0.0,0.0
218,58.0,0.0,30.0,1.0,0.0
219,60.0,43.0,30.0,1.0,0.0
220,72.0,0.0,30.0,0.0,0.0
221,81.0,0.0,30.0,0.0,0.0
222,57.0,36.0,30.0,1.0,0.0
223,70.0,0.0,30.0,0.0,0.0
224,82.0,26.0,30.0,0.0,0.0
225,58.0,38.0,60.0,1.0,0.0
226,72.0,70.0,30.0,0.0,0.0
227,60.0,0.0,30.0,1.0,0.0
228,84.0,0.0,30.0,0.0,0.0
229,73.0,0.0,30.0,0.0,0.0
230,85.0,0.0,30.0,0.0,0.0
231,61.0,43.0,30.0,1.0,0.0
232,75.0,0.0,30.0,0.0,0.0
233,63.0,43.0,30.0,1.0,0.0
234,60.0,0.0,30.0,1.0,0.0
235,84.0,42.0,30.0,0.0,0.0
236,73.0,0.0,30.0,0.0,0.0
237,85.0,0.0,30.0,0.0,0.0
238,61.0,43.0,30.0,1.0,0.0
239,75.0,0.0,30.0,0.0,0.0
240,63.0,43.0,30.0,1.0,0.0
241,84.0,0.0,30.0,0.0,0.0
242,60.0,42.0,30.0,1.0,0.0
243,73.0,0.0,30.0,0.0,0.0
244,85.0,0.0,30.0,0.0,0.0
245,61.0,43.0,30.0,1.0,0.0
246,75.0,0.0,30.0,0.0,0.0
247,63.0,43.0,30.0,1.0,0.0
248,84.0,0.0,30.0,0.0,0.0
249,60.0,36.0,30.0,1.0,0.0
250,61.0,64.0,30.0,1.0,0.0
251,73.0,0.0,30.0,0.0,0.0
252,85.0,0.0,30.0,0.0,0.0
253,75.0,0.0,30.0,0.0,0.0
254,87.0,0.0,30.0,0.0,0.0
255,63.0,70.0,30.0,1.0,0.0
256,89.0,0.0,30.0,0.0,0.0
257,65.0,43.0,30.0,1.0,0.0
258,77.0,0.0,30.0,0.0,0.0
259,66.0,0.0,30.0,1.0,0.0
260,78.0,43.0,30.0,0.0,0.0
261,87.0,42.0,30.0,0.0,0.0
262,63.0,0.0,30.0,1.0,0.0
263,77.0,0.0,30.0,0.0,0.0
264,89.0,0.0,30.0,0.0,0.0
265,65.0,43.0,30.0,1.0,0.0
266,78.0,0.0,30.0,0.0,0.0
267,66.0,43.0,30.0,1.0,0.0
268,87.0,42.0,30.0,0.0,0.0
269,63.0,0.0,30.0,1.0,0.0
270,89.0,43.0,30.0,0.0,0.0
271,77.0,0.0,30.0,0.0,0.0
272,65.0,0.0,30.0,1.0,0.0
273,78.0,0.0,30.0,0.0,0.0
274,66.0,43.0,30.0,1.0,0.0
275,63.0,36.0,30.0,1.0,0.0
276,87.0,0.0,30.0,0.0,0.0
277,77.0,0.0,30.0,0.0,0.0
278,89.0,602.0,30.0,0.0,0.0
279,65.0,0.0,30.0,1.0,0.0
280,89.0,44.0,60.0,0.0,0.0
281,77.0,0.0,60.0,0.0,0.0
282,75.0,43.0,30.0,0.0,0.0
283,87.0,0.0,30.0,0.0,0.0
284,63.0,0.0,30.0,1.0,0.0
285,66.0,0.0,30.0,1.0,0.0
286,78.0,0.0,30.0,0.0,0.0
287,90.0,43.0,30.0,0.0,0.0
288,72.0,42.0,30.0,1.0,0.0
289,84.0,0.0,30.0,0.0,0.0
290,60.0,0.0,30.0,1.0,0.0
291,87.0,0.0,30.0,0.0,0.0
292,63.0,43.0,30.0,1.0,0.0
293,75.0,0.0,30.0,0.0,0.0
294,90.0,0.0,30.0,0.0,0.0
295,66.0,43.0,30.0,1.0,0.0
296,78.0,0.0,30.0,0.0,0.0
297,84.0,0.0,30.0,0.0,0.0
298,60.0,0.0,30.0,1.0,0.0
299,72.0,42.0,30.0,1.0,0.0
300,73.0,0.0,30.0,0.0,0.0
301,85.0,0.0,30.0,0.0,0.0
302,61.0,43.0,30.0,1.0,0.0
303,77.0,0.0,30.0,0.0,0.0
304,89.0,0.0,30.0,0.0,0.0
305,65.0,43.0,30.0,1.0,0.0
306,82.0,0.0,30.0,0.0,0.0
307,58.0,42.0,30.0,1.0,0.0
308,70.0,0.0,30.0,1.0,0.0
309,73.0,0.0,30.0,0.0,0.0
310,85.0,43.0,30.0,0.0,0.0
311,61.0,0.0,30.0,1.0,0.0
312,77.0,43.0,30.0,0.0,0.0
313,89.0,0.0,30.0,0.0,0.0
314,65.0,0.0,30.0,1.0,0.0
315,82.0,0.0,30.0,0.0,0.0
316,58.0,0.0,30.0,1.0,0.0
317,70.0,42.0,30.0,1.0,0.0
318,72.0,0.0,30.0,0.0,0.0
319,84.0,0.0,30.0,0.0,0.0
320,60.0,43.0,30.0,1.0,0.0
321,75.0,0.0,30.0,0.0,0.0
322,87.0,0.0,30.0,0.0,0.0
323,63.0,43.0,30.0,1.0,0.0
324,80.0,42.0,30.0,0.0,0.0
325,56.0,0.0,30.0,1.0,0.0
326,68.0,0.0,30.0,1.0,0.0
327,72.0,0.0,30.0,0.0,0.0
328,84.0,0.0,30.0,0.0,0.0
329,60.0,43.0,30.0,1.0,0.0
330,63.0,43.0,30.0,1.0,0.0
331,87.0,0.0,30.0,0.0,0.0
332,75.0,0.0,30.0,0.0,0.0
333,80.0,42.0,30.0,0.0,0.0
334,56.0,0.0,30.0,1.0,0.0
335,68.0,0.0,30.0,1.0,0.0
336,70.0,0.0,30.0,0.0,0.0
337,82.0,0.0,30.0,0.0,0.0
338,58.0,43.0,30.0,1.0,0.0
339,73.0,0.0,30.0,0.0,0.0
340,85.0,0.0,30.0,0.0,0.0
341,61.0,43.0,30.0,1.0,0.0
342,78.0,0.0,30.0,0.0,0.0
343,54.0,42.0,30.0,1.0,0.0
344,66.0,0.0,30.0,1.0,0.0
345,58.0,0.0,30.0,1.0,0.0
346,70.0,0.0,30.0,0.0,0.0
347,82.0,43.0,30.0,0.0,0.0
348,73.0,0.0,30.0,0.0,0.0
349,85.0,0.0,30.0,0.0,0.0
350,61.0,43.0,30.0,1.0,0.0
351,78.0,42.0,30.0,0.0,0.0
352,54.0,0.0,30.0,1.0,0.0
353,66.0,0.0,30.0,1.0,0.0
354,68.0,0.0,30.0,0.0,0.0
355,80.0,0.0,30.0,0.0,0.0
356,56.0,43.0,30.0,1.0,0.0
357,72.0,43.0,30.0,0.0,0.0
358,84.0,0.0,30.0,0.0,0.0
359,60.0,0.0,30.0,1.0,0.0
360,65.0,42.0,30.0,1.0,0.0
361,77.0,0.0,30.0,0.0,0.0
362,53.0,0.0,30.0,1.0,0.0
363,68.0,0.0,30.0,0.0,0.0
364,80.0,0.0,30.0,0.0,0.0
365,56.0,43.0,30.0,1.0,0.0
366,60.0,43.0,30.0,1.0,0.0
367,84.0,0.0,30.0,0.0,0.0
368,72.0,0.0,30.0,0.0,0.0
369,77.0,0.0,30.0,0.0,0.0
370,53.0,0.0,30.0,1.0,0.0
371,65.0,42.0,30.0,1.0,0.0
372,54.0,43.0,30.0,1.0,0.0
373,66.0,0.0,30.0,0.0,0.0
374,78.0,0.0,30.0,0.0,0.0
375,70.0,0.0,30.0,0.0,0.0
376,82.0,0.0,30.0,0.0,0.0
377,58.0,43.0,30.0,1.0,0.0
378,75.0,0.0,30.0,0.0,0.0
379,51.0,0.0,30.0,1.0,0.0
380,63.0,42.0,30.0,1.0,0.0
381,54.0,43.0,30.0,1.0,0.0
382,78.0,0.0,30.0,0.0,0.0
383,66.0,0.0,30.0,0.0,0.0
384,70.0,0.0,30.0,0.0,0.0
385,82.0,0.0,30.0,0.0,0.0
386,58.0,43.0,30.0,1.0,0.0
387,51.0,42.0,30.0,1.0,0.0
388,75.0,0.0,30.0,0.0,0.0
389,63.0,0.0,30.0,1.0,0.0
390,65.0,0.0,30.0,0.0,0.0
391,77.0,0.0,30.0,0.0,0.0
392,53.0,43.0,30.0,1.0,0.0
393,68.0,0.0,30.0,0.0,0.0
394,80.0,0.0,30.0,0.0,0.0
395,56.0,43.0,30.0,1.0,0.0
396,49.0,0.0,30.0,1.0,0.0
397,61.0,42.0,30.0,1.0,0.0
398,73.0,0.0,30.0,0.0,0.0
399,65.0,0.0,30.0,0.0,0.0
400,77.0,0.0,30.0,0.0,0.0
401,53.0,43.0,30.0,1.0,0.0
402,56.0,0.0,30.0,1.0,0.0
403,80.0,43.0,30.0,0.0,0.0
404,68.0,0.0,30.0,0.0,0.0
405,61.0,42.0,30.0,1.0,0.0
406,73.0,0.0,30.0,0.0,0.0
407,49.0,0.0,30.0,1.0,0.0
408,63.0,43.0,30.0,0.0,0.0
409,75.0,0.0,30.0,0.0,0.0
410,51.0,0.0,30.0,1.0,0.0
411,78.0,0.0,30.0,0.0,0.0
412,54.0,43.0,30.0,1.0,0.0
413,66.0,0.0,30.0,0.0,0.0
414,72.0,0.0,30.0,0.0,0.0
415,48.0,42.0,30.0,1.0,0.0
416,60.0,0.0,30.0,1.0,0.0
417,51.0,43.0,30.0,1.0,0.0
418,63.0,0.0,30.0,0.0,0.0
419,75.0,0.0,30.0,0.0,0.0
420,66.0,0.0,30.0,0.0,0.0
421,78.0,0.0,30.0,0.0,0.0
422,54.0,43.0,30.0,1.0,0.0
423,60.0,42.0,30.0,1.0,0.0
424,48.0,0.0,30.0,1.0,0.0
425,72.0,0.0,30.0,0.0,0.0
426,61.0,0.0,30.0,0.0,0.0
427,73.0,0.0,30.0,0.0,0.0
428,49.0,43.0,30.0,1.0,0.0
429,65.0,0.0,30.0,0.0,0.0
430,77.0,0.0,30.0,0.0,0.0
431,53.0,43.0,30.0,1.0,0.0
432,58.0,42.0,30.0,1.0,0.0
433,70.0,0.0,30.0,0.0,0.0
434,46.0,0.0,30.0,1.0,0.0
435,61.0,0.0,30.0,0.0,0.0
436,73.0,0.0,30.0,0.0,0.0
437,49.0,43.0,30.0,1.0,0.0
438,53.0,0.0,30.0,1.0,0.0
439,65.0,43.0,30.0,0.0,0.0
440,77.0,0.0,30.0,0.0,0.0
441,70.0,0.0,30.0,0.0,0.0
442,46.0,0.0,30.0,1.0,0.0
443,58.0,42.0,30.0,1.0,0.0
444,60.0,43.0,30.0,0.0,0.0
445,72.0,0.0,30.0,0.0,0.0
446,48.0,0.0,30.0,1.0,0.0
447,63.0,0.0,30.0,0.0,0.0
448,75.0,43.0,30.0,0.0,0.0
449,51.0,0.0,30.0,1.0,0.0
450,68.0,0.0,30.0,0.0,0.0
451,44.0,0.0,30.0,1.0,0.0
452,56.0,42.0,30.0,1.0,0.0
453,48.0,43.0,30.0,1.0,0.0
454,60.0,0.0,30.0,0.0,0.0
455,72.0,0.0,30.0,0.0,0.0
456,63.0,0.0,30.0,0.0,0.0
457,75.0,0.0,30.0,0.0,0.0
458,51.0,43.0,30.0,1.0,0.0
459,68.0,0.0,30.0,0.0,0.0
460,44.0,0.0,30.0,1.0,0.0
461,56.0,466.0,30.0,1.0,0.0
462,22.0,0.0,450.0,1.0,0.0
463,34.0,281.0,450.0,1.0,0.0
464,60.0,0.0,480.0,1.0,0.0
465,57.0,0.0,480.0,1.0,0.0
466,54.0,0.0,480.0,1.0,0.0
467,51.0,0.0,480.0,1.0,0.0
468,46.0,54.0,480.0,1.0,0.0
469,75.0,0.0,480.0,0.0,0.0
470,72.0,0.0,480.0,0.0,0.0
471,69.0,0.0,480.0,0.0,0.0
472,66.0,0.0,540.0,0.0,0.0
473,78.0,32.0,540.0,0.0,0.0
474,77.0,0.0,30.0,0.0,0.0
475,65.0,32.0,30.0,1.0,0.0
476,75.0,0.0,30.0,0.0,0.0
477,63.0,32.0,30.0,1.0,0.0
478,73.0,0.0,30.0,0.0,0.0
479,61.0,32.0,30.0,1.0,0.0
480,72.0,0.0,30.0,0.0,0.0
481,60.0,32.0,30.0,1.0,0.0
482,70.0,32.0,30.0,0.0,0.0
483,58.0,0.0,30.0,1.0,0.0
484,69.0,0.0,30.0,0.0,0.0
485,57.0,32.0,30.0,1.0,0.0
486,55.0,61.0,30.0,1.0,0.0
487,67.0,0.0,30.0,0.0,0.0
488,69.0,0.0,60.0,0.0,0.0
489,57.0,64.0,60.0,1.0,0.0
490,65.0,0.0,60.0,0.0,0.0
491,53.0,64.0,60.0,1.0,0.0
492,69.0,0.0,60.0,0.0,0.0
493,57.0,35.0,60.0,1.0,0.0
494,72.0,0.0,30.0,0.0,0.0
495,60.0,32.0,30.0,1.0,0.0
496,63.0,22.0,30.0,1.0,0.0
497,75.0,0.0,30.0,0.0,0.0
498,73.0,0.0,20.0,0.0,0.0
499,61.0,21.0,20.0,1.0,0.0
500,63.0,22.0,20.0,1.0,0.0
501,75.0,0.0,20.0,0.0,0.0
502,73.0,0.0,20.0,0.0,0.0
503,61.0,21.0,20.0,1.0,0.0
504,75.0,0.0,20.0,0.0,0.0
505,63.0,21.0,20.0,1.0,0.0
506,73.0,0.0,20.0,0.0,0.0
507,61.0,22.0,20.0,1.0,0.0
508,75.0,0.0,20.0,0.0,0.0
509,63.0,60.0,20.0,1.0,0.0
510,61.0,0.0,60.0,1.0,0.0
511,73.0,64.0,60.0,0.0,0.0
512,72.0,0.0,60.0,0.0,0.0
513,60.0,237.0,60.0,1.0,0.0
514,41.0,0.0,240.0,1.0,0.0
515,46.0,275.0,240.0,1.0,0.0
516,34.0,0.0,240.0,1.0,0.0
517,73.0,0.0,240.0,0.0,0.0
518,37.0,0.0,240.0,1.0,0.0
519,65.0,0.0,240.0,0.0,0.0
520,70.0,0.0,240.0,0.0,0.0
521,61.0,0.0,240.0,0.0,0.0
522,77.0,0.0,60.0,0.0,0.0
523,53.0,35.0,60.0,1.0,0.0
524,65.0,15.0,540.0,1.0,0.0
525,58.0,3.0,30.0,1.0,0.0
526,82.0,26.0,30.0,0.0,0.0
527,70.0,0.0,30.0,0.0,0.0
528,77.0,0.0,30.0,0.0,0.0
529,53.0,32.0,30.0,1.0,0.0
530,84.0,0.0,30.0,0.0,0.0
531,60.0,3.0,30.0,1.0,0.0
532,72.0,0.0,30.0,0.0,0.0
533,53.0,32.0,30.0,1.0,0.0
534,77.0,0.0,30.0,0.0,0.0
535,85.0,0.0,30.0,0.0,0.0
536,73.0,3.0,30.0,0.0,0.0
537,61.0,0.0,30.0,1.0,0.0
538,53.0,32.0,30.0,1.0,0.0
539,77.0,0.0,30.0,0.0,0.0
540,82.0,0.0,30.0,0.0,0.0
541,70.0,0.0,30.0,0.0,0.0
542,58.0,3.0,30.0,1.0,0.0
543,53.0,0.0,30.0,1.0,0.0
544,77.0,32.0,30.0,0.0,0.0
545,60.0,3.0,30.0,1.0,0.0
546,72.0,0.0,30.0,0.0,0.0
547,84.0,26.0,30.0,0.0,0.0
548,77.0,32.0,30.0,0.0,0.0
549,53.0,0.0,30.0,1.0,0.0
550,85.0,26.0,30.0,0.0,0.0
551,73.0,0.0,30.0,0.0,0.0
552,61.0,3.0,30.0,1.0,0.0
553,53.0,32.0,30.0,1.0,0.0
554,77.0,0.0,30.0,0.0,0.0
555,87.0,0.0,30.0,0.0,0.0
556,75.0,0.0,30.0,0.0,0.0
557,63.0,3.0,30.0,1.0,0.0
558,53.0,17.0,30.0,1.0,0.0
559,77.0,0.0,30.0,0.0,0.0
560,84.0,26.0,30.0,0.0,0.0
561,72.0,3.0,30.0,0.0,0.0
562,60.0,0.0,30.0,1.0,0.0
563,77.0,0.0,30.0,0.0,0.0
564,53.0,32.0,30.0,1.0,0.0
565,73.0,0.0,60.0,0.0,0.0
566,85.0,3.0,60.0,0.0,0.0
567,61.0,29.0,30.0,1.0,0.0
568,53.0,29.0,30.0,1.0,0.0
569,77.0,3.0,60.0,0.0,0.0
570,75.0,0.0,60.0,0.0,0.0
571,87.0,3.0,60.0,0.0,0.0
572,63.0,29.0,30.0,1.0,0.0
573,53.0,29.0,30.0,1.0,0.0
574,65.0,29.0,30.0,1.0,0.0
575,77.0,3.0,30.0,0.0,0.0
576,89.0,3.0,60.0,0.0,0.0
577,77.0,0.0,30.0,0.0,0.0
578,53.0,29.0,30.0,1.0,0.0
579,73.0,0.0,60.0,0.0,0.0
580,85.0,3.0,60.0,0.0,0.0
581,61.0,29.0,30.0,1.0,0.0
582,77.0,3.0,60.0,0.0,0.0
583,53.0,29.0,30.0,1.0,0.0
584,75.0,3.0,60.0,0.0,0.0
585,87.0,0.0,60.0,0.0,0.0
586,63.0,29.0,30.0,1.0,0.0
587,53.0,29.0,30.0,1.0,0.0
588,89.0,3.0,60.0,0.0,0.0
589,77.0,3.0,30.0,0.0,0.0
590,65.0,29.0,30.0,1.0,0.0
591,77.0,0.0,30.0,0.0,0.0
592,53.0,29.0,30.0,1.0,0.0
593,78.0,0.0,60.0,0.0,0.0
594,90.0,3.0,60.0,0.0,0.0
595,66.0,29.0,30.0,1.0,0.0
596,53.0,29.0,30.0,1.0,0.0
597,77.0,3.0,60.0,0.0,0.0
598,75.0,3.0,60.0,0.0,0.0
599,87.0,0.0,60.0,0.0,0.0
600,63.0,29.0,30.0,1.0,0.0
601,53.0,29.0,30.0,1.0,0.0
602,89.0,3.0,60.0,0.0,0.0
603,65.0,29.0,30.0,1.0,0.0
604,77.0,3.0,30.0,0.0,0.0
605,77.0,0.0,30.0,0.0,0.0
606,53.0,29.0,30.0,1.0,0.0
607,61.0,29.0,30.0,1.0,0.0
608,73.0,0.0,60.0,0.0,0.0
609,85.0,3.0,60.0,0.0,0.0
610,77.0,3.0,60.0,0.0,0.0
611,53.0,29.0,30.0,1.0,0.0
612,75.0,3.0,60.0,0.0,0.0
613,87.0,0.0,60.0,0.0,0.0
614,63.0,29.0,30.0,1.0,0.0
615,53.0,29.0,30.0,1.0,0.0
616,77.0,3.0,60.0,0.0,0.0
617,72.0,3.0,60.0,0.0,0.0
618,84.0,0.0,60.0,0.0,0.0
619,60.0,29.0,30.0,1.0,0.0
620,77.0,3.0,60.0,0.0,0.0
621,53.0,29.0,30.0,1.0,0.0
622,73.0,0.0,60.0,0.0,0.0
623,85.0,3.0,60.0,0.0,0.0
624,61.0,29.0,30.0,1.0,0.0
625,77.0,3.0,60.0,0.0,0.0
626,53.0,29.0,30.0,1.0,0.0
627,58.0,29.0,30.0,1.0,0.0
628,70.0,0.0,60.0,0.0,0.0
629,82.0,3.0,60.0,0.0,0.0
630,77.0,3.0,60.0,0.0,0.0
631,53.0,29.0,30.0,1.0,0.0
632,72.0,0.0,60.0,0.0,0.0
633,84.0,3.0,60.0,0.0,0.0
634,60.0,29.0,30.0,1.0,0.0
635,77.0,3.0,60.0,0.0,0.0
636,53.0,17.0,30.0,1.0,0.0
637,69.0,0.0,60.0,0.0,0.0
638,81.0,3.0,60.0,0.0,0.0
639,57.0,29.0,30.0,1.0,0.0
640,77.0,32.0,30.0,0.0,0.0
641,53.0,0.0,30.0,1.0,0.0
642,70.0,0.0,60.0,0.0,0.0
643,82.0,3.0,60.0,0.0,0.0
644,58.0,29.0,30.0,1.0,0.0
645,65.0,0.0,30.0,0.0,0.0
646,53.0,32.0,30.0,1.0,0.0
647,65.0,29.0,30.0,1.0,0.0
648,77.0,3.0,60.0,0.0,0.0
649,65.0,3.0,60.0,0.0,0.0
650,53.0,29.0,30.0,1.0,0.0
651,78.0,3.0,60.0,0.0,0.0
652,66.0,29.0,30.0,1.0,0.0
653,65.0,3.0,60.0,0.0,0.0
654,53.0,29.0,30.0,1.0,0.0
655,75.0,3.0,60.0,0.0,0.0
656,63.0,29.0,30.0,1.0,0.0
657,65.0,3.0,60.0,0.0,0.0
658,53.0,29.0,30.0,1.0,0.0
659,77.0,3.0,60.0,0.0,0.0
660,65.0,29.0,30.0,1.0,0.0
661,53.0,29.0,30.0,1.0,0.0
662,65.0,3.0,60.0,0.0,0.0
663,73.0,3.0,60.0,0.0,0.0
664,61.0,29.0,30.0,1.0,0.0
665,65.0,3.0,60.0,0.0,0.0
666,53.0,29.0,30.0,1.0,0.0
667,75.0,3.0,60.0,0.0,0.0
668,63.0,29.0,30.0,1.0,0.0
669,65.0,3.0,60.0,0.0,0.0
670,53.0,29.0,30.0,1.0,0.0
671,72.0,3.0,60.0,0.0,0.0
672,60.0,29.0,30.0,1.0,0.0
673,65.0,0.0,30.0,0.0,0.0
674,53.0,32.0,30.0,1.0,0.0
675,73.0,3.0,60.0,0.0,0.0
676,61.0,29.0,30.0,1.0,0.0
677,65.0,0.0,30.0,0.0,0.0
678,53.0,32.0,30.0,1.0,0.0
679,70.0,3.0,60.0,0.0,0.0
680,65.0,0.0,30.0,0.0,0.0
681,58.0,29.0,30.0,1.0,0.0
682,65.0,0.0,30.0,0.0,0.0
683,53.0,32.0,30.0,1.0,0.0
684,75.0,3.0,60.0,0.0,0.0
685,65.0,0.0,30.0,0.0,0.0
686,63.0,29.0,30.0,1.0,0.0
687,65.0,0.0,30.0,0.0,0.0
688,53.0,32.0,30.0,1.0,0.0
689,72.0,3.0,60.0,0.0,0.0
690,65.0,0.0,30.0,0.0,0.0
691,60.0,29.0,30.0,1.0,0.0
692,53.0,32.0,30.0,1.0,0.0
693,65.0,0.0,30.0,0.0,0.0
694,73.0,3.0,60.0,0.0,0.0
695,65.0,29.0,30.0,0.0,0.0
696,61.0,0.0,30.0,1.0,0.0
697,65.0,32.0,30.0,0.0,0.0
698,53.0,0.0,30.0,1.0,0.0
699,70.0,3.0,60.0,0.0,0.0
700,58.0,0.0,30.0,1.0,0.0
701,65.0,29.0,30.0,0.0,0.0
702,65.0,0.0,30.0,0.0,0.0
703,53.0,32.0,30.0,1.0,0.0
704,72.0,3.0,60.0,0.0,0.0
705,60.0,0.0,30.0,1.0,0.0
706,65.0,29.0,30.0,0.0,0.0
707,65.0,0.0,30.0,0.0,0.0
708,53.0,32.0,30.0,1.0,0.0
709,69.0,3.0,60.0,0.0,0.0
710,65.0,29.0,30.0,0.0,0.0
711,57.0,0.0,30.0,1.0,0.0
712,65.0,32.0,30.0,0.0,0.0
713,53.0,0.0,30.0,1.0,0.0
714,70.0,3.0,60.0,0.0,0.0
715,65.0,0.0,30.0,0.0,0.0
716,58.0,29.0,30.0,1.0,0.0
717,65.0,32.0,30.0,0.0,0.0
718,53.0,0.0,30.0,1.0,0.0
719,65.0,32.0,30.0,0.0,0.0
720,53.0,0.0,30.0,0.0,0.0
721,65.0,0.0,30.0,0.0,0.0
722,77.0,32.0,30.0,0.0,0.0
723,54.0,0.0,30.0,0.0,0.0
724,66.0,32.0,30.0,0.0,0.0
725,77.0,32.0,30.0,0.0,0.0
726,65.0,0.0,30.0,0.0,0.0
727,51.0,0.0,30.0,0.0,0.0
728,63.0,32.0,30.0,0.0,0.0
729,65.0,0.0,30.0,0.0,0.0
730,77.0,32.0,30.0,0.0,0.0
731,53.0,32.0,30.0,0.0,0.0
732,65.0,0.0,30.0,0.0,0.0
733,77.0,32.0,30.0,0.0,0.0
734,65.0,0.0,30.0,0.0,0.0
735,49.0,0.0,30.0,0.0,0.0
736,61.0,32.0,30.0,0.0,0.0
737,65.0,0.0,30.0,0.0,0.0
738,77.0,32.0,30.0,0.0,0.0
739,51.0,0.0,30.0,0.0,0.0
740,63.0,32.0,30.0,0.0,0.0
741,65.0,0.0,30.0,0.0,0.0
742,77.0,32.0,30.0,0.0,0.0
743,48.0,0.0,30.0,0.0,0.0
744,60.0,32.0,30.0,0.0,0.0
745,65.0,0.0,30.0,0.0,0.0
746,77.0,32.0,30.0,0.0,0.0
747,49.0,32.0,30.0,0.0,0.0
748,61.0,0.0,30.0,0.0,0.0
749,73.0,0.0,30.0,0.0,0.0
750,77.0,32.0,30.0,0.0,0.0
751,65.0,0.0,30.0,0.0,0.0
752,46.0,32.0,30.0,0.0,0.0
753,58.0,0.0,30.0,0.0,0.0
754,65.0,32.0,30.0,0.0,0.0
755,70.0,0.0,30.0,0.0,0.0
756,77.0,0.0,30.0,0.0,0.0
757,51.0,0.0,30.0,0.0,0.0
758,63.0,32.0,30.0,0.0,0.0
759,65.0,32.0,30.0,0.0,0.0
760,73.0,0.0,30.0,0.0,0.0
761,77.0,0.0,30.0,0.0,0.0
762,48.0,0.0,30.0,0.0,0.0
763,60.0,32.0,30.0,0.0,0.0
764,65.0,32.0,30.0,0.0,0.0
765,72.0,0.0,30.0,0.0,0.0
766,77.0,0.0,30.0,0.0,0.0
767,61.0,32.0,30.0,0.0,0.0
768,53.0,0.0,30.0,0.0,0.0
769,49.0,0.0,30.0,0.0,0.0
770,77.0,32.0,30.0,0.0,0.0
771,65.0,0.0,30.0,0.0,0.0
772,73.0,0.0,30.0,0.0,0.0
773,46.0,0.0,30.0,0.0,0.0
774,53.0,0.0,30.0,0.0,0.0
775,58.0,32.0,30.0,0.0,0.0
776,77.0,0.0,30.0,0.0,0.0
777,70.0,32.0,30.0,0.0,0.0
778,65.0,0.0,30.0,0.0,0.0
779,60.0,32.0,30.0,0.0,0.0
780,53.0,0.0,30.0,0.0,0.0
781,48.0,0.0,30.0,0.0,0.0
782,65.0,0.0,30.0,0.0,0.0
783,72.0,0.0,30.0,0.0,0.0
784,77.0,32.0,30.0,0.0,0.0
785,45.0,32.0,30.0,0.0,0.0
786,53.0,0.0,30.0,0.0,0.0
787,57.0,0.0,30.0,0.0,0.0
788,65.0,119.0,30.0,0.0,0.0
789,69.0,0.0,30.0,0.0,0.0
790,77.0,0.0,30.0,0.0,0.0
791,46.0,0.0,120.0,0.0,0.0
792,58.0,0.0,120.0,0.0,0.0
793,70.0,41.0,120.0,0.0,0.0
794,58.0,0.0,30.0,1.0,0.0
795,70.0,32.0,30.0,1.0,0.0
796,78.0,0.0,30.0,0.0,0.0
797,85.0,32.0,30.0,0.0,0.0
798,61.0,0.0,30.0,1.0,0.0
799,90.0,0.0,30.0,0.0,0.0
800,66.0,32.0,30.0,1.0,0.0
801,82.0,0.0,30.0,0.0,0.0
802,85.0,0.0,30.0,0.0,0.0
803,61.0,32.0,30.0,1.0,0.0
804,56.0,0.0,30.0,1.0,0.0
805,68.0,32.0,30.0,1.0,0.0
806,77.0,0.0,30.0,0.0,0.0
807,84.0,0.0,30.0,0.0,0.0
808,60.0,32.0,30.0,1.0,0.0
809,80.0,0.0,30.0,0.0,0.0
810,89.0,0.0,30.0,0.0,0.0
811,65.0,32.0,30.0,1.0,0.0
812,60.0,0.0,30.0,1.0,0.0
813,84.0,32.0,30.0,0.0,0.0
814,66.0,32.0,30.0,1.0,0.0
815,75.0,0.0,30.0,0.0,0.0
816,54.0,0.0,30.0,1.0,0.0
817,82.0,32.0,30.0,0.0,0.0
818,58.0,0.0,30.0,1.0,0.0
819,78.0,32.0,30.0,0.0,0.0
820,87.0,0.0,30.0,0.0,0.0
821,63.0,0.0,30.0,1.0,0.0
822,58.0,0.0,30.0,1.0,0.0
823,82.0,32.0,30.0,0.0,0.0
824,53.0,32.0,30.0,1.0,0.0
825,77.0,0.0,30.0,0.0,0.0
826,81.0,0.0,30.0,0.0,0.0
827,60.0,32.0,30.0,1.0,0.0
828,84.0,29.0,30.0,0.0,0.0
829,57.0,0.0,60.0,1.0,0.0
830,65.0,3.0,60.0,1.0,0.0
831,89.0,119.0,30.0,0.0,0.0
832,77.0,0.0,30.0,0.0,0.0
833,58.0,0.0,120.0,0.0,0.0
834,34.0,0.0,120.0,1.0,0.0
835,46.0,6.0,60.0,1.0,0.0
836,66.0,0.0,60.0,0.0,0.0
837,49.0,122.0,60.0,1.0,0.0
838,54.0,0.0,60.0,0.0,0.0
839,61.0,0.0,60.0,0.0,0.0
840,32.0,0.0,120.0,1.0,0.0
841,56.0,0.0,120.0,0.0,0.0
842,53.0,122.0,60.0,0.0,0.0
843,60.0,0.0,60.0,0.0,0.0
844,65.0,0.0,60.0,0.0,0.0
845,44.0,6.0,60.0,1.0,0.0
846,48.0,0.0,60.0,1.0,0.0
847,54.0,0.0,120.0,0.0,0.0
848,30.0,6.0,120.0,1.0,0.0
849,42.0,0.0,60.0,1.0,0.0
850,46.0,122.0,60.0,1.0,0.0
851,51.0,0.0,60.0,0.0,0.0
852,58.0,0.0,60.0,0.0,0.0
853,63.0,0.0,60.0,0.0,0.0
854,53.0,41.0,120.0,0.0,0.0
855,57.0,0.0,120.0,0.0,0.0
856,60.0,0.0,120.0,0.0,0.0
857,65.0,0.0,120.0,0.0,0.0
858,29.0,0.0,120.0,1.0,0.0
859,41.0,0.0,120.0,1.0,0.0
860,78.0,0.0,30.0,0.0,0.0
861,58.0,0.0,30.0,1.0,0.0
862,70.0,32.0,30.0,1.0,0.0
863,85.0,32.0,30.0,0.0,0.0
864,61.0,0.0,30.0,1.0,0.0
865,82.0,0.0,30.0,0.0,0.0
866,90.0,0.0,30.0,0.0,0.0
867,66.0,32.0,30.0,1.0,0.0
868,85.0,32.0,30.0,0.0,0.0
869,61.0,0.0,30.0,1.0,0.0
870,77.0,0.0,30.0,0.0,0.0
871,68.0,32.0,30.0,1.0,0.0
872,56.0,0.0,30.0,1.0,0.0
873,84.0,0.0,30.0,0.0,0.0
874,60.0,32.0,30.0,1.0,0.0
875,80.0,0.0,30.0,0.0,0.0
876,89.0,32.0,30.0,0.0,0.0
877,65.0,0.0,30.0,1.0,0.0
878,84.0,0.0,30.0,0.0,0.0
879,60.0,32.0,30.0,1.0,0.0
880,66.0,0.0,30.0,1.0,0.0
881,75.0,32.0,30.0,0.0,0.0
882,54.0,0.0,30.0,1.0,0.0
883,82.0,0.0,30.0,0.0,0.0
884,58.0,32.0,30.0,1.0,0.0
885,78.0,32.0,30.0,0.0,0.0
886,87.0,0.0,30.0,0.0,0.0
887,63.0,0.0,30.0,1.0,0.0
888,82.0,0.0,30.0,0.0,0.0
889,58.0,32.0,30.0,1.0,0.0
890,77.0,0.0,30.0,0.0,0.0
891,53.0,32.0,30.0,1.0,0.0
892,81.0,0.0,30.0,0.0,0.0
893,60.0,32.0,30.0,1.0,0.0
894,84.0,29.0,30.0,0.0,0.0
895,57.0,0.0,60.0,1.0,0.0
896,65.0,3.0,60.0,1.0,0.0
897,77.0,0.0,30.0,0.0,0.0
898,89.0,119.0,30.0,0.0,0.0
899,34.0,0.0,120.0,1.0,0.0
900,58.0,0.0,120.0,0.0,0.0
901,54.0,122.0,60.0,0.0,0.0
902,61.0,0.0,60.0,0.0,0.0
903,66.0,0.0,60.0,0.0,0.0
904,46.0,6.0,60.0,1.0,0.0
905,49.0,0.0,60.0,1.0,0.0
906,56.0,6.0,120.0,0.0,0.0
907,32.0,0.0,120.0,1.0,0.0
908,53.0,0.0,60.0,0.0,0.0
909,60.0,0.0,60.0,0.0,0.0
910,65.0,0.0,60.0,0.0,0.0
911,44.0,0.0,60.0,1.0,0.0
912,48.0,122.0,60.0,1.0,0.0
913,54.0,0.0,120.0,0.0,0.0
914,30.0,0.0,120.0,1.0,0.0
915,42.0,6.0,60.0,1.0,0.0
916,46.0,237.0,60.0,1.0,0.0
917,63.0,0.0,60.0,0.0,0.0
918,58.0,0.0,60.0,0.0,0.0
919,51.0,0.0,60.0,0.0,0.0
920,41.0,54.0,240.0,1.0,0.0
921,29.0,0.0,240.0,1.0,0.0
922,65.0,32.0,300.0,0.0,0.0
923,57.0,0.0,240.0,0.0,0.0
924,53.0,0.0,240.0,0.0,0.0
925,60.0,0.0,240.0,0.0,0.0
926,63.0,32.0,30.0,0.0,0.0
927,61.0,32.0,30.0,0.0,0.0
928,60.0,32.0,30.0,0.0,0.0
929,58.0,32.0,30.0,0.0,0.0
930,57.0,32.0,30.0,0.0,0.0
931,55.0,32.0,30.0,0.0,0.0
932,57.0,32.0,30.0,0.0,0.0
933,53.0,32.0,30.0,0.0,0.0
934,55.0,32.0,30.0,0.0,0.0
935,57.0,32.0,30.0,0.0,0.0
936,58.0,32.0,30.0,0.0,0.0
937,60.0,32.0,30.0,0.0,0.0
938,61.0,32.0,30.0,0.0,0.0
939,63.0,32.0,30.0,0.0,0.0
940,65.0,32.0,30.0,0.0,0.0
941,63.0,32.0,30.0,0.0,0.0
942,61.0,32.0,30.0,0.0,0.0
943,60.0,32.0,30.0,0.0,0.0
944,61.0,32.0,30.0,0.0,0.0
945,58.0,32.0,30.0,0.0,0.0
946,61.0,32.0,30.0,0.0,0.0
947,65.0,32.0,30.0,0.0,0.0
948,69.0,61.0,30.0,0.0,0.0
949,70.0,35.0,60.0,0.0,0.0
950,65.0,32.0,30.0,0.0,0.0
951,41.0,0.0,30.0,1.0,0.0
952,67.0,0.0,30.0,0.0,0.0
953,43.0,32.0,30.0,1.0,0.0
954,69.0,0.0,30.0,0.0,0.0
955,45.0,32.0,30.0,1.0,0.0
956,46.0,32.0,30.0,1.0,0.0
957,70.0,0.0,30.0,0.0,0.0
958,72.0,0.0,30.0,0.0,0.0
959,48.0,32.0,30.0,1.0,0.0
960,73.0,0.0,30.0,0.0,0.0
961,49.0,32.0,30.0,1.0,0.0
962,51.0,0.0,30.0,1.0,0.0
963,75.0,32.0,30.0,0.0,0.0
964,77.0,0.0,30.0,0.0,0.0
965,53.0,61.0,30.0,1.0,0.0
966,78.0,122.0,60.0,0.0,0.0
967,54.0,0.0,60.0,1.0,0.0
968,34.0,0.0,120.0,1.0,0.0
969,46.0,6.0,120.0,1.0,0.0
970,66.0,0.0,60.0,0.0,0.0
971,70.0,0.0,60.0,0.0,0.0
972,78.0,0.0,60.0,0.0,0.0
973,49.0,0.0,60.0,1.0,0.0
974,54.0,0.0,60.0,1.0,0.0
975,58.0,0.0,60.0,1.0,0.0
976,32.0,0.0,120.0,1.0,0.0
977,44.0,0.0,120.0,1.0,0.0
978,68.0,6.0,120.0,0.0,0.0
979,72.0,0.0,60.0,0.0,0.0
980,77.0,0.0,60.0,0.0,0.0
981,48.0,0.0,60.0,1.0,0.0
982,53.0,122.0,60.0,1.0,0.0
983,30.0,0.0,120.0,1.0,0.0
984,42.0,0.0,120.0,1.0,0.0
985,66.0,6.0,120.0,0.0,0.0
986,63.0,0.0,60.0,0.0,0.0
987,54.0,0.0,60.0,1.0,0.0
988,51.0,0.0,60.0,1.0,0.0
989,70.0,0.0,60.0,0.0,0.0
990,75.0,122.0,60.0,0.0,0.0
991,46.0,0.0,60.0,1.0,0.0
992,69.0,0.0,120.0,0.0,0.0
993,72.0,41.0,120.0,0.0,0.0
994,77.0,0.0,120.0,0.0,0.0
995,29.0,0.0,120.0,1.0,0.0
996,41.0,0.0,120.0,1.0,0.0
997,65.0,0.0,120.0,0.0,0.0
998,78.0,3.0,30.0,0.0,0.0
999,70.0,29.0,30.0,1.0,0.0
1000,85.0,32.0,30.0,0.0,0.0
1001,73.0,29.0,30.0,1.0,0.0
1002,90.0,3.0,30.0,0.0,0.0
1003,82.0,0.0,30.0,0.0,0.0
1004,85.0,32.0,30.0,0.0,0.0
1005,77.0,3.0,30.0,0.0,0.0
1006,68.0,29.0,30.0,1.0,0.0
1007,84.0,32.0,30.0,0.0,0.0
1008,80.0,0.0,30.0,0.0,0.0
1009,89.0,3.0,30.0,0.0,0.0
1010,72.0,29.0,30.0,1.0,0.0
1011,84.0,32.0,30.0,0.0,0.0
1012,66.0,29.0,30.0,1.0,0.0
1013,75.0,3.0,30.0,0.0,0.0
1014,82.0,32.0,30.0,0.0,0.0
1015,78.0,3.0,30.0,0.0,0.0
1016,87.0,0.0,30.0,0.0,0.0
1017,70.0,29.0,30.0,1.0,0.0
1018,82.0,32.0,30.0,0.0,0.0
1019,77.0,3.0,30.0,0.0,0.0
1020,65.0,29.0,30.0,1.0,0.0
1021,81.0,32.0,30.0,0.0,0.0
1022,69.0,29.0,30.0,1.0,0.0
1023,84.0,3.0,30.0,0.0,0.0
1024,77.0,0.0,30.0,0.0,0.0
1025,89.0,119.0,30.0,0.0,0.0
1026,34.0,6.0,120.0,1.0,0.0
1027,46.0,0.0,120.0,1.0,0.0
1028,58.0,122.0,60.0,1.0,0.0
1029,66.0,0.0,60.0,0.0,0.0
1030,70.0,0.0,60.0,0.0,0.0
1031,78.0,0.0,60.0,0.0,0.0
1032,49.0,0.0,60.0,1.0,0.0
1033,54.0,0.0,60.0,1.0,0.0
1034,68.0,0.0,120.0,0.0,0.0
1035,44.0,6.0,120.0,1.0,0.0
1036,32.0,0.0,120.0,1.0,0.0
1037,77.0,0.0,60.0,0.0,0.0
1038,48.0,0.0,60.0,1.0,0.0
1039,72.0,0.0,60.0,0.0,0.0
1040,53.0,122.0,60.0,1.0,0.0
1041,30.0,0.0,120.0,1.0,0.0
1042,42.0,0.0,120.0,1.0,0.0
1043,66.0,6.0,120.0,0.0,0.0
1044,63.0,0.0,60.0,0.0,0.0
1045,70.0,0.0,60.0,0.0,0.0
1046,75.0,0.0,60.0,0.0,0.0
1047,51.0,0.0,60.0,1.0,0.0
1048,54.0,122.0,60.0,1.0,0.0
1049,46.0,0.0,60.0,1.0,0.0
1050,41.0,0.0,120.0,1.0,0.0
1051,36.0,0.0,120.0,1.0,0.0
1052,33.0,0.0,120.0,1.0,0.0
1053,69.0,128.0,120.0,0.0,0.0
1054,77.0,0.0,120.0,0.0,0.0
1055,72.0,0.0,120.0,0.0,0.0
1056,65.0,0.0,120.0,0.0,0.0
1057,29.0,0.0,120.0,1.0,0.0
1058,67.0,0.0,120.0,0.0,0.0
1059,70.0,0.0,120.0,0.0,0.0
1060,73.0,0.0,120.0,0.0,0.0
1061,79.0,0.0,120.0,0.0,0.0
1062,28.0,0.0,120.0,1.0,0.0
1063,31.0,0.0,120.0,1.0,0.0
1064,34.0,185.0,120.0,1.0,0.0
1065,40.0,0.0,120.0,1.0,0.0
1066,29.0,0.0,180.0,1.0,0.0
1067,39.0,0.0,180.0,1.0,0.0
1068,27.0,0.0,180.0,1.0,0.0
1069,41.0,77.0,180.0,1.0,0.0
1070,81.0,0.0,180.0,0.0,0.0
1071,33.0,0.0,180.0,1.0,0.0
1072,72.0,0.0,180.0,0.0,0.0
1073,69.0,0.0,180.0,0.0,0.0
1074,77.0,0.0,180.0,0.0,0.0
1075,67.0,0.0,60.0,0.0,0.0
1076,79.0,0.0,60.0,0.0,0.0
1077,55.0,64.0,60.0,1.0,0.0
1078,65.0,0.0,60.0,0.0,0.0
1079,77.0,0.0,60.0,0.0,0.0
1080,53.0,64.0,60.0,1.0,0.0
1081,69.0,0.0,60.0,0.0,0.0
1082,81.0,0.0,60.0,0.0,0.0
1083,57.0,35.0,60.0,1.0,0.0
1084,84.0,0.0,30.0,0.0,0.0
1085,60.0,32.0,30.0,1.0,0.0
1086,87.0,0.0,30.0,0.0,0.0
1087,63.0,61.0,30.0,1.0,0.0
1088,78.0,35.0,60.0,0.0,0.0
1089,90.0,0.0,60.0,0.0,0.0
1090,66.0,0.0,60.0,1.0,0.0
1091,65.0,0.0,30.0,1.0,0.0
1092,77.0,0.0,30.0,0.0,0.0
1093,89.0,32.0,30.0,0.0,0.0
1094,63.0,0.0,30.0,1.0,0.0
1095,87.0,32.0,30.0,0.0,0.0
1096,85.0,0.0,30.0,0.0,0.0
1097,61.0,32.0,30.0,1.0,0.0
1098,84.0,0.0,30.0,0.0,0.0
1099,60.0,32.0,30.0,1.0,0.0
1100,85.0,32.0,30.0,0.0,0.0
1101,61.0,0.0,30.0,1.0,0.0
1102,60.0,32.0,30.0,1.0,0.0
1103,84.0,0.0,30.0,0.0,0.0
1104,82.0,0.0,30.0,0.0,0.0
1105,58.0,32.0,30.0,1.0,0.0
1106,57.0,0.0,30.0,1.0,0.0
1107,81.0,32.0,30.0,0.0,0.0
1108,58.0,0.0,30.0,1.0,0.0
1109,82.0,32.0,30.0,0.0,0.0
1110,80.0,0.0,30.0,0.0,0.0
1111,56.0,32.0,30.0,1.0,0.0
1112,78.0,0.0,30.0,0.0,0.0
1113,54.0,32.0,30.0,1.0,0.0
1114,53.0,32.0,30.0,1.0,0.0
1115,77.0,0.0,30.0,0.0,0.0
1116,51.0,0.0,30.0,1.0,0.0
1117,75.0,32.0,30.0,0.0,0.0
1118,73.0,0.0,30.0,0.0,0.0
1119,49.0,32.0,30.0,1.0,0.0
1120,72.0,0.0,30.0,0.0,0.0
1121,48.0,32.0,30.0,1.0,0.0
1122,46.0,0.0,30.0,1.0,0.0
1123,70.0,0.0,30.0,0.0,0.0
1124,58.0,465.0,30.0,1.0,0.0
1125,81.0,0.0,450.0,0.0,0.0
1126,75.0,0.0,450.0,0.0,0.0
1127,78.0,0.0,450.0,0.0,0.0
1128,84.0,88.0,450.0,0.0,0.0
1129,39.0,0.0,450.0,1.0,0.0
1130,42.0,0.0,450.0,1.0,0.0
1131,45.0,0.0,450.0,1.0,0.0
1132,48.0,0.0,450.0,1.0,0.0
1133,51.0,0.0,450.0,1.0,0.0
1134,72.0,0.0,450.0,0.0,0.0
1135,72.0,43.0,30.0,0.0,0.0
1136,81.0,0.0,30.0,0.0,0.0
1137,75.0,0.0,30.0,0.0,0.0
1138,84.0,43.0,30.0,0.0,0.0
1139,81.0,0.0,30.0,0.0,0.0
1140,72.0,42.0,30.0,0.0,0.0
1141,78.0,0.0,30.0,0.0,0.0
1142,69.0,43.0,30.0,0.0,0.0
1143,81.0,43.0,30.0,0.0,0.0
1144,72.0,0.0,30.0,0.0,0.0
1145,69.0,0.0,30.0,0.0,0.0
1146,78.0,42.0,30.0,0.0,0.0
1147,72.0,0.0,30.0,0.0,0.0
1148,81.0,43.0,30.0,0.0,0.0
1149,75.0,0.0,30.0,0.0,0.0
1150,84.0,43.0,30.0,0.0,0.0
1151,72.0,0.0,30.0,0.0,0.0
1152,81.0,42.0,30.0,0.0,0.0
1153,69.0,0.0,30.0,0.0,0.0
1154,78.0,43.0,30.0,0.0,0.0
1155,72.0,43.0,30.0,0.0,0.0
1156,81.0,0.0,30.0,0.0,0.0
1157,69.0,0.0,30.0,0.0,0.0
1158,78.0,42.0,30.0,0.0,0.0
1159,72.0,0.0,30.0,0.0,0.0
1160,81.0,43.0,30.0,0.0,0.0
1161,75.0,43.0,30.0,0.0,0.0
1162,84.0,0.0,30.0,0.0,0.0
1163,72.0,0.0,30.0,0.0,0.0
1164,81.0,42.0,30.0,0.0,0.0
1165,69.0,0.0,30.0,0.0,0.0
1166,78.0,43.0,30.0,0.0,0.0
1167,72.0,0.0,30.0,0.0,0.0
1168,81.0,43.0,30.0,0.0,0.0
1169,69.0,0.0,30.0,0.0,0.0
1170,78.0,42.0,30.0,0.0,0.0
1171,72.0,0.0,30.0,0.0,0.0
1172,81.0,43.0,30.0,0.0,0.0
1173,84.0,43.0,30.0,0.0,0.0
1174,75.0,0.0,30.0,0.0,0.0
1175,72.0,0.0,30.0,0.0,0.0
1176,81.0,42.0,30.0,0.0,0.0
1177,78.0,43.0,30.0,0.0,0.0
1178,69.0,0.0,30.0,0.0,0.0
1179,81.0,43.0,30.0,0.0,0.0
1180,72.0,0.0,30.0,0.0,0.0
1181,69.0,42.0,30.0,0.0,0.0
1182,78.0,0.0,30.0,0.0,0.0
1183,66.0,0.0,30.0,0.0,0.0
1184,75.0,43.0,30.0,0.0,0.0
1185,69.0,0.0,30.0,0.0,0.0
1186,78.0,43.0,30.0,0.0,0.0
1187,66.0,0.0,30.0,0.0,0.0
1188,75.0,42.0,30.0,0.0,0.0
1189,63.0,0.0,30.0,0.0,0.0
1190,72.0,43.0,30.0,0.0,0.0
1191,66.0,43.0,30.0,0.0,0.0
1192,75.0,0.0,30.0,0.0,0.0
1193,63.0,0.0,30.0,0.0,0.0
1194,72.0,42.0,30.0,0.0,0.0
1195,66.0,0.0,30.0,0.0,0.0
1196,75.0,43.0,30.0,0.0,0.0
1197,69.0,0.0,30.0,0.0,0.0
1198,78.0,43.0,30.0,0.0,0.0
1199,66.0,0.0,30.0,0.0,0.0
1200,75.0,42.0,30.0,0.0,0.0
1201,72.0,43.0,30.0,0.0,0.0
1202,63.0,0.0,30.0,0.0,0.0
1203,66.0,0.0,30.0,0.0,0.0
1204,75.0,43.0,30.0,0.0,0.0
1205,63.0,42.0,30.0,0.0,0.0
1206,72.0,0.0,30.0,0.0,0.0
1207,66.0,0.0,30.0,0.0,0.0
1208,75.0,43.0,30.0,0.0,0.0
1209,78.0,0.0,30.0,0.0,0.0
1210,69.0,43.0,30.0,0.0,0.0
1211,75.0,42.0,30.0,0.0,0.0
1212,66.0,0.0,30.0,0.0,0.0
1213,63.0,0.0,30.0,0.0,0.0
1214,72.0,43.0,30.0,0.0,0.0
1215,66.0,0.0,30.0,0.0,0.0
1216,75.0,43.0,30.0,0.0,0.0
1217,63.0,0.0,30.0,0.0,0.0
1218,72.0,42.0,30.0,0.0,0.0
1219,66.0,0.0,30.0,0.0,0.0
1220,75.0,43.0,30.0,0.0,0.0
1221,78.0,43.0,30.0,0.0,0.0
1222,69.0,0.0,30.0,0.0,0.0
1223,66.0,0.0,30.0,0.0,0.0
1224,75.0,42.0,30.0,0.0,0.0
1225,63.0,0.0,30.0,0.0,0.0
1226,72.0,43.0,30.0,0.0,0.0
1227,66.0,0.0,30.0,0.0,0.0
1228,75.0,43.0,30.0,0.0,0.0
1229,63.0,0.0,30.0,0.0,0.0
1230,72.0,42.0,30.0,0.0,0.0
1231,60.0,0.0,30.0,0.0,0.0
1232,69.0,43.0,30.0,0.0,0.0
1233,63.0,0.0,30.0,0.0,0.0
1234,72.0,43.0,30.0,0.0,0.0
1235,69.0,42.0,30.0,0.0,0.0
1236,60.0,0.0,30.0,0.0,0.0
1237,57.0,0.0,30.0,0.0,0.0
1238,66.0,43.0,30.0,0.0,0.0
1239,60.0,0.0,30.0,0.0,0.0
1240,69.0,43.0,30.0,0.0,0.0
1241,57.0,0.0,30.0,0.0,0.0
1242,66.0,42.0,30.0,0.0,0.0
1243,60.0,0.0,30.0,0.0,0.0
1244,69.0,43.0,30.0,0.0,0.0
1245,63.0,0.0,30.0,0.0,0.0
1246,72.0,43.0,30.0,0.0,0.0
1247,69.0,42.0,30.0,0.0,0.0
1248,60.0,0.0,30.0,0.0,0.0
1249,57.0,0.0,30.0,0.0,0.0
1250,66.0,43.0,30.0,0.0,0.0
1251,60.0,0.0,30.0,0.0,0.0
1252,69.0,43.0,30.0,0.0,0.0
1253,57.0,0.0,30.0,0.0,0.0
1254,66.0,42.0,30.0,0.0,0.0
1255,60.0,0.0,30.0,0.0,0.0
1256,69.0,43.0,30.0,0.0,0.0
1257,63.0,0.0,30.0,0.0,0.0
1258,72.0,43.0,30.0,0.0,0.0
1259,69.0,42.0,30.0,0.0,0.0
1260,60.0,0.0,30.0,0.0,0.0
1261,57.0,0.0,30.0,0.0,0.0
1262,66.0,43.0,30.0,0.0,0.0
1263,60.0,43.0,30.0,0.0,0.0
1264,69.0,0.0,30.0,0.0,0.0
1265,57.0,42.0,30.0,0.0,0.0
1266,66.0,0.0,30.0,0.0,0.0
1267,60.0,0.0,30.0,0.0,0.0
1268,69.0,43.0,30.0,0.0,0.0
1269,63.0,43.0,30.0,0.0,0.0
1270,72.0,0.0,30.0,0.0,0.0
1271,60.0,0.0,30.0,0.0,0.0
1272,69.0,42.0,30.0,0.0,0.0
1273,57.0,43.0,30.0,0.0,0.0
1274,66.0,0.0,30.0,0.0,0.0
1275,69.0,43.0,30.0,0.0,0.0
1276,60.0,0.0,30.0,0.0,0.0
1277,57.0,0.0,30.0,0.0,0.0
1278,66.0,42.0,30.0,0.0,0.0
1279,69.0,43.0,30.0,0.0,0.0
1280,60.0,0.0,30.0,0.0,0.0
1281,63.0,0.0,30.0,0.0,0.0
1282,72.0,43.0,30.0,0.0,0.0
1283,69.0,0.0,30.0,0.0,0.0
1284,60.0,42.0,30.0,0.0,0.0
1285,63.0,0.0,30.0,0.0,0.0
1286,72.0,43.0,30.0,0.0,0.0
1287,66.0,0.0,30.0,0.0,0.0
1288,75.0,43.0,30.0,0.0,0.0
1289,63.0,0.0,30.0,0.0,0.0
1290,72.0,42.0,30.0,0.0,0.0
1291,60.0,0.0,30.0,0.0,0.0
1292,69.0,43.0,30.0,0.0,0.0
1293,72.0,0.0,30.0,0.0,0.0
1294,63.0,43.0,30.0,0.0,0.0
1295,69.0,42.0,30.0,0.0,0.0
1296,60.0,0.0,30.0,0.0,0.0
1297,63.0,0.0,30.0,0.0,0.0
1298,72.0,43.0,30.0,0.0,0.0
1299,75.0,43.0,30.0,0.0,0.0
1300,66.0,0.0,30.0,0.0,0.0
1301,63.0,0.0,30.0,0.0,0.0
1302,72.0,42.0,30.0,0.0,0.0
1303,69.0,43.0,30.0,0.0,0.0
1304,60.0,0.0,30.0,0.0,0.0
1305,63.0,0.0,30.0,0.0,0.0
1306,72.0,43.0,30.0,0.0,0.0
1307,60.0,0.0,30.0,0.0,0.0
1308,69.0,42.0,30.0,0.0,0.0
1309,63.0,0.0,30.0,0.0,0.0
1310,72.0,43.0,30.0,0.0,0.0
1311,66.0,0.0,30.0,0.0,0.0
1312,75.0,43.0,30.0,0.0,0.0
1313,72.0,42.0,30.0,0.0,0.0
1314,63.0,0.0,30.0,0.0,0.0
1315,69.0,43.0,30.0,0.0,0.0
1316,60.0,0.0,30.0,0.0,0.0
1317,63.0,0.0,30.0,0.0,0.0
1318,72.0,43.0,30.0,0.0,0.0
1319,60.0,0.0,30.0,0.0,0.0
1320,69.0,42.0,30.0,0.0,0.0
1321,63.0,43.0,30.0,0.0,0.0
1322,72.0,0.0,30.0,0.0,0.0
1323,75.0,43.0,30.0,0.0,0.0
1324,66.0,0.0,30.0,0.0,0.0
1325,63.0,0.0,30.0,0.0,0.0
1326,72.0,42.0,30.0,0.0,0.0
1327,75.0,0.0,30.0,0.0,0.0
1328,60.0,43.0,30.0,1.0,0.0
1329,66.0,0.0,30.0,0.0,0.0
1330,63.0,43.0,30.0,1.0,0.0
1331,78.0,0.0,30.0,0.0,0.0
1332,75.0,0.0,30.0,0.0,0.0
1333,60.0,42.0,30.0,1.0,0.0
1334,66.0,0.0,30.0,0.0,0.0
1335,78.0,0.0,30.0,0.0,0.0
1336,63.0,43.0,30.0,1.0,0.0
1337,75.0,43.0,30.0,0.0,0.0
1338,60.0,0.0,30.0,1.0,0.0
1339,63.0,42.0,30.0,1.0,0.0
1340,66.0,0.0,30.0,0.0,0.0
1341,78.0,0.0,30.0,0.0,0.0
1342,69.0,0.0,30.0,0.0,0.0
1343,75.0,0.0,30.0,0.0,0.0
1344,54.0,43.0,30.0,1.0,0.0
1345,57.0,0.0,30.0,1.0,0.0
1346,66.0,0.0,30.0,0.0,0.0
1347,78.0,43.0,30.0,0.0,0.0
1348,69.0,0.0,30.0,0.0,0.0
1349,54.0,42.0,30.0,1.0,0.0
1350,75.0,0.0,30.0,0.0,0.0
1351,57.0,43.0,30.0,1.0,0.0
1352,66.0,0.0,30.0,0.0,0.0
1353,78.0,0.0,30.0,0.0,0.0
1354,69.0,0.0,30.0,0.0,0.0
1355,75.0,0.0,30.0,0.0,0.0
1356,54.0,43.0,30.0,1.0,0.0
1357,66.0,42.0,30.0,0.0,0.0
1358,78.0,0.0,30.0,0.0,0.0
1359,57.0,0.0,30.0,1.0,0.0
1360,69.0,0.0,30.0,0.0,0.0
1361,81.0,0.0,30.0,0.0,0.0
1362,54.0,43.0,30.0,1.0,0.0
1363,77.0,0.0,30.0,0.0,0.0
1364,48.0,43.0,30.0,1.0,0.0
1365,69.0,42.0,30.0,0.0,0.0
1366,81.0,0.0,30.0,0.0,0.0
1367,54.0,0.0,30.0,1.0,0.0
1368,72.0,0.0,30.0,0.0,0.0
1369,84.0,0.0,30.0,0.0,0.0
1370,45.0,0.0,30.0,1.0,0.0
1371,57.0,43.0,30.0,1.0,0.0
1372,48.0,43.0,30.0,1.0,0.0
1373,81.0,0.0,30.0,0.0,0.0
1374,72.0,42.0,30.0,0.0,0.0
1375,84.0,0.0,30.0,0.0,0.0
1376,45.0,0.0,30.0,1.0,0.0
1377,57.0,0.0,30.0,1.0,0.0
1378,81.0,0.0,30.0,0.0,0.0
1379,48.0,43.0,30.0,1.0,0.0
1380,72.0,0.0,30.0,0.0,0.0
1381,84.0,0.0,30.0,0.0,0.0
1382,45.0,0.0,30.0,1.0,0.0
1383,57.0,43.0,30.0,1.0,0.0
1384,48.0,0.0,30.0,1.0,0.0
1385,81.0,42.0,30.0,0.0,0.0
1386,45.0,0.0,30.0,1.0,0.0
1387,72.0,0.0,30.0,0.0,0.0
1388,84.0,0.0,30.0,0.0,0.0
1389,57.0,43.0,30.0,1.0,0.0
1390,81.0,0.0,30.0,0.0,0.0
1391,48.0,43.0,30.0,1.0,0.0
1392,45.0,0.0,30.0,1.0,0.0
1393,57.0,0.0,30.0,1.0,0.0
1394,72.0,235.0,30.0,0.0,0.0
1395,84.0,0.0,30.0,0.0,0.0
1396,51.0,0.0,240.0,1.0,0.0
1397,77.0,0.0,240.0,0.0,0.0
1398,81.0,0.0,240.0,0.0,0.0
1399,84.0,0.0,240.0,0.0,0.0
1400,89.0,256.0,240.0,0.0,0.0
1401,39.0,0.0,240.0,1.0,0.0
1402,41.0,0.0,240.0,1.0,0.0
1403,45.0,0.0,240.0,1.0,0.0
1404,48.0,0.0,240.0,1.0,0.0
1405,41.0,0.0,240.0,1.0,0.0
1406,49.0,0.0,240.0,1.0,0.0
1407,37.0,0.0,240.0,1.0,0.0
1408,77.0,256.0,240.0,0.0,0.0
1409,82.0,0.0,240.0,0.0,0.0
1410,85.0,0.0,240.0,0.0,0.0
1411,46.0,0.0,240.0,1.0,0.0
1412,89.0,0.0,240.0,0.0,0.0
1413,42.0,0.0,360.0,1.0,0.0
1414,51.0,115.0,240.0,1.0,0.0
1415,54.0,96.0,360.0,1.0,0.0
1416,82.0,0.0,240.0,0.0,0.0
1417,78.0,0.0,240.0,0.0,0.0
1418,75.0,0.0,240.0,0.0,0.0
1419,46.0,0.0,240.0,1.0,0.0
1420,87.0,0.0,240.0,0.0,0.0
1421,53.0,64.0,60.0,1.0,0.0
1422,41.0,0.0,60.0,1.0,0.0
1423,39.0,179.0,60.0,1.0,0.0
1424,51.0,0.0,60.0,1.0,0.0
1425,75.0,0.0,240.0,0.0,0.0
1426,77.0,0.0,240.0,0.0,0.0
1427,81.0,19.0,240.0,0.0,0.0
1428,84.0,0.0,240.0,0.0,0.0
1429,41.0,0.0,180.0,1.0,0.0
1430,87.0,0.0,240.0,0.0,0.0
1431,48.0,0.0,180.0,1.0,0.0
1432,51.0,0.0,180.0,1.0,0.0
1433,53.0,58.0,180.0,1.0,0.0
1434,45.0,0.0,180.0,1.0,0.0
1435,48.0,64.0,60.0,1.0,0.0
1436,36.0,0.0,60.0,1.0,0.0
1437,37.0,0.0,60.0,1.0,0.0
1438,49.0,64.0,60.0,1.0,0.0
1439,46.0,0.0,60.0,1.0,0.0
1440,34.0,64.0,60.0,1.0,0.0
1441,48.0,0.0,60.0,1.0,0.0
1442,36.0,64.0,60.0,1.0,0.0
1443,45.0,0.0,60.0,1.0,0.0
1444,33.0,64.0,60.0,1.0,0.0
1445,34.0,0.0,60.0,1.0,0.0
1446,46.0,64.0,60.0,1.0,0.0
1447,43.0,64.0,60.0,1.0,0.0
1448,31.0,0.0,60.0,1.0,0.0
1449,33.0,0.0,60.0,1.0,0.0
1450,45.0,64.0,60.0,1.0,0.0
1451,29.0,64.0,60.0,1.0,0.0
1452,41.0,0.0,60.0,1.0,0.0
1453,42.0,64.0,60.0,1.0,0.0
1454,30.0,0.0,60.0,1.0,0.0
1455,28.0,0.0,60.0,1.0,0.0
1456,40.0,64.0,60.0,1.0,0.0
1457,29.0,0.0,60.0,1.0,0.0
1458,41.0,64.0,60.0,1.0,0.0
1459,69.0,0.0,60.0,0.0,0.0
1460,72.0,0.0,60.0,0.0,0.0
1461,77.0,0.0,60.0,0.0,0.0
1462,81.0,0.0,60.0,0.0,0.0
1463,39.0,0.0,60.0,1.0,0.0
1464,45.0,0.0,60.0,1.0,0.0
1465,51.0,0.0,60.0,1.0,0.0
1466,41.0,122.0,60.0,1.0,0.0
1467,73.0,0.0,120.0,0.0,0.0
1468,49.0,0.0,120.0,1.0,0.0
1469,46.0,0.0,120.0,1.0,0.0
1470,41.0,128.0,120.0,1.0,0.0
1471,37.0,0.0,120.0,1.0,0.0
1472,82.0,0.0,120.0,0.0,0.0
1473,77.0,0.0,120.0,0.0,0.0
1474,70.0,0.0,120.0,0.0,0.0
1475,34.0,0.0,120.0,1.0,0.0
1476,61.0,0.0,120.0,0.0,0.0
1477,65.0,0.0,120.0,0.0,0.0
1478,70.0,0.0,120.0,0.0,0.0
1479,73.0,0.0,120.0,0.0,0.0
1480,37.0,0.0,120.0,1.0,0.0
1481,41.0,0.0,120.0,1.0,0.0
1482,46.0,128.0,120.0,1.0,0.0
1483,72.0,0.0,240.0,0.0,0.0
1484,60.0,0.0,120.0,0.0,0.0
1485,70.0,0.0,120.0,0.0,0.0
1486,58.0,57.0,120.0,1.0,0.0
1487,29.0,0.0,240.0,1.0,0.0
1488,41.0,13.0,240.0,1.0,0.0
1489,57.0,6.0,120.0,1.0,0.0
1490,48.0,0.0,120.0,1.0,0.0
1491,69.0,0.0,120.0,0.0,0.0
1492,53.0,45.0,60.0,1.0,0.0
1493,60.0,0.0,120.0,0.0,0.0
1494,65.0,13.0,60.0,0.0,0.0
1495,63.0,122.0,60.0,0.0,0.0
1496,51.0,70.0,180.0,1.0,0.0
1497,65.0,0.0,450.0,0.0,0.0
1498,58.0,19.0,240.0,0.0,0.0
1499,22.0,0.0,450.0,1.0,0.0
1500,70.0,0.0,450.0,0.0,0.0
1501,63.0,0.0,120.0,0.0,0.0
1502,61.0,0.0,60.0,0.0,0.0
1503,49.0,45.0,60.0,1.0,0.0
1504,48.0,0.0,60.0,1.0,0.0
1505,60.0,212.0,60.0,0.0,0.0
1506,46.0,0.0,240.0,1.0,0.0
1507,49.0,0.0,240.0,1.0,0.0
1508,34.0,25.0,210.0,1.0,0.0
1509,41.0,0.0,240.0,1.0,0.0
1510,53.0,0.0,240.0,0.0,0.0
1511,58.0,0.0,240.0,0.0,0.0
1512,61.0,0.0,240.0,0.0,0.0
1513,65.0,64.0,60.0,1.0,0.0
1514,63.0,64.0,60.0,1.0,0.0
1515,65.0,64.0,60.0,1.0,0.0
1516,61.0,64.0,60.0,1.0,0.0
1517,65.0,64.0,60.0,1.0,0.0
1518,60.0,64.0,60.0,1.0,0.0
1519,65.0,64.0,60.0,1.0,0.0
1520,58.0,64.0,60.0,1.0,0.0
1521,65.0,64.0,60.0,1.0,0.0
1522,57.0,64.0,60.0,1.0,0.0
1523,65.0,64.0,60.0,1.0,0.0
1524,58.0,64.0,60.0,1.0,0.0
1525,65.0,64.0,60.0,1.0,0.0
1526,60.0,64.0,60.0,1.0,0.0
1527,65.0,64.0,60.0,1.0,0.0
1528,61.0,64.0,60.0,1.0,0.0
1529,65.0,64.0,60.0,1.0,0.0
1530,53.0,64.0,60.0,1.0,0.0
1531,65.0,64.0,60.0,1.0,0.0
1532,55.0,64.0,60.0,1.0,0.0
1533,65.0,64.0,60.0,1.0,0.0
1534,57.0,64.0,60.0,1.0,0.0
1535,65.0,64.0,60.0,1.0,0.0
1536,58.0,64.0,60.0,1.0,0.0
1537,65.0,64.0,60.0,1.0,0.0
1538,57.0,64.0,60.0,1.0,0.0
1539,65.0,64.0,60.0,1.0,0.0
1540,58.0,64.0,60.0,1.0,0.0
1541,65.0,64.0,60.0,1.0,0.0
1542,60.0,64.0,60.0,1.0,0.0
1543,65.0,122.0,60.0,1.0,0.0
1544,61.0,6.0,120.0,1.0,0.0
1545,70.0,64.0,60.0,0.0,0.0
1546,68.0,58.0,60.0,0.0,0.0
1547,62.0,6.0,120.0,1.0,0.0
1548,70.0,64.0,60.0,0.0,0.0
1549,66.0,58.0,60.0,0.0,0.0
1550,63.0,6.0,120.0,1.0,0.0
1551,70.0,64.0,60.0,0.0,0.0
1552,65.0,58.0,60.0,0.0,0.0
1553,56.0,6.0,120.0,1.0,0.0
1554,70.0,64.0,60.0,0.0,0.0
1555,54.0,6.0,120.0,1.0,0.0
1556,63.0,58.0,60.0,0.0,0.0
1557,70.0,64.0,60.0,0.0,0.0
1558,62.0,58.0,60.0,0.0,0.0
1559,53.0,6.0,120.0,1.0,0.0
1560,70.0,64.0,60.0,0.0,0.0
1561,63.0,58.0,60.0,0.0,0.0
1562,54.0,6.0,120.0,1.0,0.0
1563,70.0,64.0,60.0,0.0,0.0
1564,56.0,6.0,120.0,1.0,0.0
1565,65.0,58.0,60.0,0.0,0.0
1566,70.0,64.0,60.0,0.0,0.0
1567,66.0,58.0,60.0,0.0,0.0
1568,58.0,6.0,120.0,1.0,0.0
1569,70.0,64.0,60.0,0.0,0.0
1570,50.0,6.0,120.0,1.0,0.0
1571,58.0,58.0,60.0,0.0,0.0
1572,70.0,64.0,60.0,0.0,0.0
1573,60.0,58.0,60.0,0.0,0.0
1574,51.0,6.0,120.0,1.0,0.0
1575,70.0,64.0,60.0,0.0,0.0
1576,62.0,58.0,60.0,0.0,0.0
1577,53.0,6.0,120.0,1.0,0.0
1578,70.0,64.0,60.0,0.0,0.0
1579,63.0,58.0,60.0,0.0,0.0
1580,54.0,6.0,120.0,1.0,0.0
1581,70.0,64.0,60.0,0.0,0.0
1582,62.0,58.0,60.0,0.0,0.0
1583,53.0,6.0,120.0,1.0,0.0
1584,70.0,64.0,60.0,0.0,0.0
1585,63.0,58.0,60.0,0.0,0.0
1586,54.0,6.0,120.0,1.0,0.0
1587,70.0,64.0,60.0,0.0,0.0
1588,65.0,58.0,60.0,0.0,0.0
1589,50.0,6.0,120.0,1.0,0.0
1590,70.0,64.0,60.0,0.0,0.0
1591,66.0,59.0,60.0,0.0,0.0
1592,51.0,5.0,60.0,1.0,0.0
1593,63.0,64.0,60.0,1.0,0.0
1594,51.0,5.0,60.0,1.0,0.0
1595,70.0,59.0,60.0,0.0,0.0
1596,63.0,64.0,60.0,1.0,0.0
1597,66.0,59.0,60.0,0.0,0.0
1598,58.0,5.0,60.0,1.0,0.0
1599,63.0,64.0,60.0,1.0,0.0
1600,70.0,59.0,60.0,0.0,0.0
1601,58.0,5.0,60.0,1.0,0.0
1602,63.0,64.0,60.0,1.0,0.0
1603,71.0,59.0,60.0,0.0,0.0
1604,56.0,5.0,60.0,1.0,0.0
1605,59.0,64.0,60.0,1.0,0.0
1606,63.0,59.0,60.0,0.0,0.0
1607,56.0,5.0,60.0,1.0,0.0
1608,59.0,64.0,60.0,1.0,0.0
1609,71.0,59.0,60.0,0.0,0.0
1610,56.0,5.0,60.0,1.0,0.0
1611,59.0,64.0,60.0,1.0,0.0
1612,63.0,59.0,60.0,0.0,0.0
1613,56.0,5.0,60.0,1.0,0.0
1614,59.0,64.0,60.0,1.0,0.0
1615,68.0,59.0,60.0,0.0,0.0
1616,56.0,5.0,60.0,1.0,0.0
1617,61.0,64.0,60.0,1.0,0.0
1618,65.0,59.0,60.0,0.0,0.0
1619,56.0,5.0,60.0,1.0,0.0
1620,61.0,64.0,60.0,1.0,0.0
1621,68.0,59.0,60.0,0.0,0.0
1622,56.0,5.0,60.0,1.0,0.0
1623,61.0,64.0,60.0,1.0,0.0
1624,65.0,59.0,60.0,0.0,0.0
1625,56.0,5.0,60.0,1.0,0.0
1626,61.0,64.0,60.0,1.0,0.0
1627,70.0,59.0,60.0,0.0,0.0
1628,54.0,5.0,60.0,1.0,0.0
1629,58.0,64.0,60.0,1.0,0.0
1630,54.0,5.0,60.0,1.0,0.0
1631,61.0,59.0,60.0,0.0,0.0
1632,58.0,64.0,60.0,1.0,0.0
1633,70.0,59.0,60.0,0.0,0.0
1634,54.0,5.0,60.0,1.0,0.0
1635,58.0,64.0,60.0,1.0,0.0
1636,61.0,59.0,60.0,0.0,0.0
1637,54.0,5.0,60.0,1.0,0.0
1638,58.0,64.0,60.0,1.0,0.0
1639,54.0,5.0,60.0,1.0,0.0
1640,66.0,59.0,60.0,0.0,0.0
1641,60.0,64.0,60.0,1.0,0.0
1642,63.0,59.0,60.0,0.0,0.0
1643,54.0,5.0,60.0,1.0,0.0
1644,60.0,64.0,60.0,1.0,0.0
1645,66.0,59.0,60.0,0.0,0.0
1646,54.0,5.0,60.0,1.0,0.0
1647,60.0,64.0,60.0,1.0,0.0
1648,63.0,59.0,60.0,0.0,0.0
1649,54.0,5.0,60.0,1.0,0.0
1650,60.0,64.0,60.0,1.0,0.0
1651,69.0,6.0,120.0,0.0,0.0
1652,53.0,58.0,60.0,1.0,0.0
1653,57.0,64.0,60.0,1.0,0.0
1654,53.0,58.0,60.0,1.0,0.0
1655,60.0,6.0,120.0,0.0,0.0
1656,57.0,64.0,60.0,1.0,0.0
1657,53.0,58.0,60.0,1.0,0.0
1658,69.0,6.0,120.0,0.0,0.0
1659,57.0,64.0,60.0,1.0,0.0
1660,60.0,6.0,120.0,0.0,0.0
1661,53.0,58.0,60.0,1.0,0.0
1662,57.0,64.0,60.0,1.0,0.0
1663,65.0,6.0,120.0,0.0,0.0
1664,49.0,58.0,60.0,1.0,0.0
1665,58.0,64.0,60.0,1.0,0.0
1666,49.0,58.0,60.0,1.0,0.0
1667,61.0,6.0,120.0,0.0,0.0
1668,58.0,64.0,60.0,1.0,0.0
1669,65.0,6.0,120.0,0.0,0.0
1670,49.0,58.0,60.0,1.0,0.0
1671,58.0,64.0,60.0,1.0,0.0
1672,61.0,6.0,120.0,0.0,0.0
1673,49.0,58.0,60.0,1.0,0.0
1674,58.0,64.0,60.0,1.0,0.0
1675,63.0,6.0,120.0,0.0,0.0
1676,48.0,58.0,60.0,1.0,0.0
1677,54.0,64.0,60.0,1.0,0.0
1678,57.0,6.0,120.0,0.0,0.0
1679,48.0,58.0,60.0,1.0,0.0
1680,54.0,64.0,60.0,1.0,0.0
1681,48.0,58.0,60.0,1.0,0.0
1682,63.0,6.0,120.0,0.0,0.0
1683,54.0,64.0,60.0,1.0,0.0
1684,48.0,58.0,60.0,1.0,0.0
1685,57.0,6.0,120.0,0.0,0.0
1686,54.0,64.0,60.0,1.0,0.0
1687,61.0,6.0,120.0,0.0,0.0
1688,46.0,58.0,60.0,1.0,0.0
1689,53.0,64.0,60.0,1.0,0.0
1690,46.0,58.0,60.0,1.0,0.0
1691,58.0,6.0,120.0,0.0,0.0
1692,53.0,64.0,60.0,1.0,0.0
1693,61.0,6.0,120.0,0.0,0.0
1694,46.0,58.0,60.0,1.0,0.0
1695,53.0,64.0,60.0,1.0,0.0
1696,58.0,6.0,120.0,0.0,0.0
1697,46.0,58.0,60.0,1.0,0.0
1698,53.0,64.0,60.0,1.0,0.0
1699,60.0,6.0,120.0,0.0,0.0
1700,48.0,58.0,60.0,1.0,0.0
1701,51.0,64.0,60.0,1.0,0.0
1702,54.0,6.0,120.0,0.0,0.0
1703,48.0,58.0,60.0,1.0,0.0
1704,51.0,64.0,60.0,1.0,0.0
1705,60.0,6.0,120.0,0.0,0.0
1706,48.0,58.0,60.0,1.0,0.0
1707,51.0,64.0,60.0,1.0,0.0
1708,48.0,58.0,60.0,1.0,0.0
1709,54.0,6.0,120.0,0.0,0.0
1710,51.0,122.0,60.0,1.0,0.0
1711,53.0,0.0,120.0,1.0,0.0
1712,49.0,6.0,120.0,1.0,0.0
1713,77.0,64.0,60.0,0.0,0.0
1714,75.0,58.0,60.0,0.0,0.0
1715,53.0,0.0,120.0,1.0,0.0
1716,48.0,6.0,120.0,1.0,0.0
1717,77.0,64.0,60.0,0.0,0.0
1718,46.0,6.0,120.0,1.0,0.0
1719,53.0,0.0,120.0,1.0,0.0
1720,73.0,58.0,60.0,0.0,0.0
1721,77.0,64.0,60.0,0.0,0.0
1722,53.0,0.0,120.0,1.0,0.0
1723,72.0,58.0,60.0,0.0,0.0
1724,51.0,6.0,120.0,1.0,0.0
1725,77.0,64.0,60.0,0.0,0.0
1726,70.0,58.0,60.0,0.0,0.0
1727,53.0,0.0,120.0,1.0,0.0
1728,49.0,6.0,120.0,1.0,0.0
1729,77.0,64.0,60.0,0.0,0.0
1730,48.0,6.0,120.0,1.0,0.0
1731,53.0,0.0,120.0,1.0,0.0
1732,69.0,58.0,60.0,0.0,0.0
1733,77.0,64.0,60.0,0.0,0.0
1734,70.0,58.0,60.0,0.0,0.0
1735,53.0,0.0,120.0,1.0,0.0
1736,49.0,6.0,120.0,1.0,0.0
1737,77.0,64.0,60.0,0.0,0.0
1738,72.0,58.0,60.0,0.0,0.0
1739,45.0,6.0,120.0,1.0,0.0
1740,53.0,0.0,120.0,1.0,0.0
1741,77.0,64.0,60.0,0.0,0.0
1742,73.0,58.0,60.0,0.0,0.0
1743,53.0,0.0,120.0,1.0,0.0
1744,46.0,6.0,120.0,1.0,0.0
1745,77.0,64.0,60.0,0.0,0.0
1746,45.0,6.0,120.0,1.0,0.0
1747,53.0,0.0,120.0,1.0,0.0
1748,65.0,58.0,60.0,0.0,0.0
1749,77.0,64.0,60.0,0.0,0.0
1750,67.0,58.0,60.0,0.0,0.0
1751,53.0,6.0,120.0,1.0,0.0
1752,46.0,0.0,120.0,1.0,0.0
1753,77.0,64.0,60.0,0.0,0.0
1754,69.0,58.0,60.0,0.0,0.0
1755,53.0,0.0,120.0,1.0,0.0
1756,48.0,6.0,120.0,1.0,0.0
1757,77.0,64.0,60.0,0.0,0.0
1758,70.0,58.0,60.0,0.0,0.0
1759,53.0,0.0,120.0,1.0,0.0
1760,49.0,6.0,120.0,1.0,0.0
1761,77.0,64.0,60.0,0.0,0.0
1762,69.0,58.0,60.0,0.0,0.0
1763,53.0,0.0,120.0,1.0,0.0
1764,48.0,6.0,120.0,1.0,0.0
1765,77.0,64.0,60.0,0.0,0.0
1766,70.0,58.0,60.0,0.0,0.0
1767,53.0,0.0,120.0,1.0,0.0
1768,49.0,6.0,120.0,1.0,0.0
1769,77.0,64.0,60.0,0.0,0.0
1770,72.0,58.0,60.0,0.0,0.0
1771,53.0,0.0,120.0,1.0,0.0
1772,45.0,6.0,120.0,1.0,0.0
1773,77.0,64.0,60.0,0.0,0.0
1774,46.0,6.0,120.0,1.0,0.0
1775,53.0,19.0,240.0,1.0,0.0
1776,73.0,58.0,60.0,0.0,0.0
1777,77.0,64.0,60.0,0.0,0.0
1778,72.0,5.0,60.0,0.0,0.0
1779,49.0,40.0,60.0,1.0,0.0
1780,77.0,64.0,60.0,0.0,0.0
1781,49.0,6.0,120.0,1.0,0.0
1782,70.0,58.0,60.0,0.0,0.0
1783,58.0,19.0,240.0,1.0,0.0
1784,77.0,64.0,60.0,0.0,0.0
1785,68.0,5.0,60.0,0.0,0.0
1786,53.0,40.0,60.0,1.0,0.0
1787,77.0,64.0,60.0,0.0,0.0
1788,58.0,6.0,120.0,1.0,0.0
1789,51.0,19.0,240.0,1.0,0.0
1790,66.0,58.0,60.0,0.0,0.0
1791,77.0,64.0,60.0,0.0,0.0
1792,68.0,5.0,60.0,0.0,0.0
1793,61.0,40.0,60.0,1.0,0.0
1794,77.0,64.0,60.0,0.0,0.0
1795,70.0,58.0,60.0,0.0,0.0
1796,61.0,6.0,120.0,1.0,0.0
1797,75.0,64.0,60.0,0.0,0.0
1798,66.0,58.0,60.0,0.0,0.0
1799,66.0,6.0,120.0,1.0,0.0
1800,75.0,64.0,60.0,0.0,0.0
1801,44.0,6.0,120.0,1.0,0.0
1802,56.0,19.0,240.0,1.0,0.0
1803,72.0,58.0,60.0,0.0,0.0
1804,75.0,64.0,60.0,0.0,0.0
1805,70.0,5.0,60.0,0.0,0.0
1806,48.0,40.0,60.0,1.0,0.0
1807,75.0,64.0,60.0,0.0,0.0
1808,68.0,58.0,60.0,0.0,0.0
1809,56.0,19.0,240.0,1.0,0.0
1810,48.0,6.0,120.0,1.0,0.0
1811,75.0,64.0,60.0,0.0,0.0
1812,66.0,5.0,60.0,0.0,0.0
1813,51.0,40.0,60.0,1.0,0.0
1814,75.0,64.0,60.0,0.0,0.0
1815,56.0,6.0,120.0,1.0,0.0
1816,49.0,19.0,240.0,1.0,0.0
1817,65.0,58.0,60.0,0.0,0.0
1818,75.0,64.0,60.0,0.0,0.0
1819,66.0,5.0,60.0,0.0,0.0
1820,60.0,40.0,60.0,1.0,0.0
1821,75.0,64.0,60.0,0.0,0.0
1822,68.0,58.0,60.0,0.0,0.0
1823,60.0,6.0,120.0,1.0,0.0
1824,73.0,64.0,60.0,0.0,0.0
1825,65.0,58.0,60.0,0.0,0.0
1826,65.0,6.0,120.0,1.0,0.0
1827,73.0,64.0,60.0,0.0,0.0
1828,70.0,58.0,60.0,0.0,0.0
1829,54.0,19.0,240.0,1.0,0.0
1830,42.0,6.0,120.0,1.0,0.0
1831,73.0,64.0,60.0,0.0,0.0
1832,68.0,5.0,60.0,0.0,0.0
1833,46.0,40.0,60.0,1.0,0.0
1834,73.0,64.0,60.0,0.0,0.0
1835,66.0,58.0,60.0,0.0,0.0
1836,54.0,19.0,240.0,1.0,0.0
1837,46.0,6.0,120.0,1.0,0.0
1838,73.0,64.0,60.0,0.0,0.0
1839,65.0,5.0,60.0,0.0,0.0
1840,49.0,40.0,60.0,1.0,0.0
1841,73.0,64.0,60.0,0.0,0.0
1842,63.0,58.0,60.0,0.0,0.0
1843,54.0,6.0,120.0,1.0,0.0
1844,48.0,19.0,240.0,1.0,0.0
1845,73.0,64.0,60.0,0.0,0.0
1846,65.0,5.0,60.0,0.0,0.0
1847,58.0,40.0,60.0,1.0,0.0
1848,73.0,64.0,60.0,0.0,0.0
1849,58.0,6.0,120.0,1.0,0.0
1850,66.0,58.0,60.0,0.0,0.0
1851,72.0,64.0,60.0,0.0,0.0
1852,63.0,6.0,120.0,1.0,0.0
1853,63.0,58.0,60.0,0.0,0.0
1854,72.0,64.0,60.0,0.0,0.0
1855,69.0,58.0,60.0,0.0,0.0
1856,53.0,19.0,240.0,1.0,0.0
1857,41.0,6.0,120.0,1.0,0.0
1858,72.0,64.0,60.0,0.0,0.0
1859,45.0,40.0,60.0,1.0,0.0
1860,66.0,5.0,60.0,0.0,0.0
1861,72.0,64.0,60.0,0.0,0.0
1862,53.0,19.0,240.0,1.0,0.0
1863,45.0,6.0,120.0,1.0,0.0
1864,65.0,58.0,60.0,0.0,0.0
1865,72.0,64.0,60.0,0.0,0.0
1866,63.0,5.0,60.0,0.0,0.0
1867,48.0,40.0,60.0,1.0,0.0
1868,72.0,64.0,60.0,0.0,0.0
1869,53.0,0.0,240.0,1.0,0.0
1870,46.0,19.0,240.0,1.0,0.0
1871,61.0,64.0,60.0,0.0,0.0
1872,72.0,64.0,60.0,0.0,0.0
1873,63.0,45.0,60.0,0.0,0.0
1874,72.0,64.0,60.0,0.0,0.0
1875,65.0,64.0,60.0,0.0,0.0
1876,70.0,64.0,60.0,0.0,0.0
1877,61.0,58.0,60.0,0.0,0.0
1878,58.0,0.0,120.0,1.0,0.0
1879,49.0,6.0,120.0,1.0,0.0
1880,70.0,64.0,60.0,0.0,0.0
1881,54.0,6.0,120.0,1.0,0.0
1882,60.0,58.0,60.0,0.0,0.0
1883,57.0,0.0,120.0,1.0,0.0
1884,72.0,64.0,60.0,0.0,0.0
1885,60.0,58.0,60.0,0.0,0.0
1886,57.0,6.0,120.0,1.0,0.0
1887,54.0,0.0,120.0,1.0,0.0
1888,72.0,64.0,60.0,0.0,0.0
1889,58.0,0.0,120.0,1.0,0.0
1890,53.0,6.0,120.0,1.0,0.0
1891,61.0,58.0,60.0,0.0,0.0
1892,70.0,64.0,60.0,0.0,0.0
1893,61.0,58.0,60.0,0.0,0.0
1894,58.0,6.0,120.0,1.0,0.0
1895,53.0,0.0,120.0,1.0,0.0
1896,70.0,64.0,60.0,0.0,0.0
1897,66.0,64.0,60.0,0.0,0.0
1898,60.0,0.0,240.0,1.0,0.0
1899,51.0,19.0,240.0,1.0,0.0
1900,69.0,64.0,60.0,0.0,0.0
1901,66.0,45.0,60.0,0.0,0.0
1902,69.0,64.0,60.0,0.0,0.0
1903,65.0,64.0,60.0,0.0,0.0
1904,70.0,64.0,60.0,0.0,0.0
1905,61.0,58.0,60.0,0.0,0.0
1906,58.0,0.0,120.0,1.0,0.0
1907,53.0,6.0,120.0,1.0,0.0
1908,70.0,64.0,60.0,0.0,0.0
1909,54.0,6.0,120.0,1.0,0.0
1910,60.0,58.0,60.0,0.0,0.0
1911,57.0,0.0,120.0,1.0,0.0
1912,72.0,64.0,60.0,0.0,0.0
1913,60.0,58.0,60.0,0.0,0.0
1914,57.0,6.0,120.0,1.0,0.0
1915,54.0,0.0,120.0,1.0,0.0
1916,72.0,64.0,60.0,0.0,0.0
1917,61.0,58.0,60.0,0.0,0.0
1918,58.0,0.0,120.0,1.0,0.0
1919,53.0,6.0,120.0,1.0,0.0
1920,70.0,64.0,60.0,0.0,0.0
1921,61.0,58.0,60.0,0.0,0.0
1922,58.0,6.0,120.0,1.0,0.0
1923,53.0,0.0,120.0,1.0,0.0
1924,70.0,128.0,60.0,0.0,0.0
1925,52.0,19.0,240.0,1.0,0.0
1926,60.0,0.0,240.0,1.0,0.0
1927,70.0,64.0,60.0,0.0,0.0
1928,69.0,45.0,60.0,0.0,0.0
1929,70.0,64.0,60.0,0.0,0.0
1930,67.0,64.0,60.0,0.0,0.0
1931,70.0,64.0,60.0,0.0,0.0
1932,69.0,64.0,60.0,0.0,0.0
1933,67.0,128.0,60.0,0.0,0.0
1934,69.0,19.0,240.0,0.0,0.0
1935,65.0,64.0,60.0,0.0,0.0
1936,63.0,45.0,60.0,0.0,0.0
1937,65.0,64.0,60.0,0.0,0.0
1938,60.0,64.0,60.0,0.0,0.0
1939,63.0,64.0,60.0,0.0,0.0
1940,61.0,64.0,60.0,0.0,0.0
1941,60.0,128.0,60.0,0.0,0.0
1942,61.0,19.0,240.0,0.0,0.0
1943,70.0,64.0,60.0,0.0,0.0
1944,69.0,45.0,60.0,0.0,0.0
1945,70.0,64.0,60.0,0.0,0.0
1946,73.0,64.0,60.0,0.0,0.0
1947,58.0,19.0,240.0,0.0,0.0
1948,70.0,64.0,60.0,0.0,0.0
1949,69.0,45.0,60.0,0.0,0.0
1950,67.0,64.0,60.0,0.0,0.0
1951,69.0,19.0,240.0,0.0,0.0
1952,53.0,64.0,60.0,0.0,0.0
1953,65.0,64.0,60.0,0.0,0.0
1954,63.0,45.0,60.0,0.0,0.0
1955,65.0,64.0,60.0,0.0,0.0
1956,72.0,6.0,360.0,0.0,0.0
1957,57.0,64.0,60.0,0.0,0.0
1958,63.0,64.0,60.0,0.0,0.0
1959,61.0,64.0,60.0,0.0,0.0
1960,60.0,122.0,60.0,0.0,0.0
1961,61.0,19.0,240.0,0.0,0.0
1962,58.0,64.0,60.0,1.0,0.0
1963,70.0,6.0,240.0,0.0,0.0
1964,57.0,45.0,60.0,1.0,0.0
1965,58.0,64.0,60.0,1.0,0.0
1966,53.0,58.0,60.0,1.0,0.0
1967,60.0,13.0,240.0,0.0,0.0
1968,53.0,64.0,60.0,1.0,0.0
1969,69.0,6.0,120.0,0.0,0.0
1970,51.0,45.0,60.0,1.0,0.0
1971,53.0,64.0,60.0,1.0,0.0
1972,68.0,19.0,240.0,0.0,0.0
1973,58.0,6.0,120.0,0.0,0.0
1974,50.0,58.0,60.0,1.0,0.0
1975,58.0,64.0,60.0,1.0,0.0
1976,65.0,6.0,240.0,0.0,0.0
1977,56.0,45.0,60.0,1.0,0.0
1978,58.0,64.0,60.0,1.0,0.0
1979,66.0,19.0,240.0,0.0,0.0
1980,51.0,58.0,60.0,1.0,0.0
1981,61.0,64.0,60.0,1.0,0.0
1982,63.0,19.0,360.0,0.0,0.0
1983,59.0,45.0,60.0,1.0,0.0
1984,58.0,64.0,60.0,1.0,0.0
1985,57.0,64.0,60.0,1.0,0.0
1986,65.0,0.0,240.0,0.0,0.0
1987,60.0,64.0,60.0,1.0,0.0
1988,53.0,45.0,60.0,1.0,0.0
1989,57.0,64.0,60.0,1.0,0.0
1990,65.0,0.0,240.0,0.0,0.0
1991,62.0,19.0,240.0,0.0,0.0
1992,46.0,64.0,60.0,1.0,0.0
1993,59.0,64.0,60.0,1.0,0.0
1994,58.0,45.0,60.0,1.0,0.0
1995,56.0,64.0,60.0,1.0,0.0
1996,63.0,0.0,240.0,0.0,0.0
1997,61.0,19.0,240.0,0.0,0.0
1998,55.0,64.0,60.0,1.0,0.0
1999,58.0,64.0,60.0,1.0,0.0
2000,51.0,45.0,60.0,1.0,0.0
2001,55.0,64.0,60.0,1.0,0.0
2002,63.0,0.0,240.0,0.0,0.0
2003,59.0,19.0,240.0,0.0,0.0
2004,44.0,64.0,60.0,1.0,0.0
2005,58.0,64.0,60.0,1.0,0.0
2006,56.0,45.0,60.0,1.0,0.0
2007,54.0,64.0,60.0,1.0,0.0
2008,59.0,6.0,120.0,0.0,0.0
2009,53.0,58.0,60.0,1.0,0.0
2010,62.0,0.0,120.0,0.0,0.0
2011,56.0,64.0,60.0,1.0,0.0
2012,50.0,58.0,60.0,1.0,0.0
2013,65.0,13.0,240.0,0.0,0.0
2014,58.0,6.0,120.0,0.0,0.0
2015,53.0,64.0,60.0,1.0,0.0
2016,62.0,6.0,120.0,0.0,0.0
2017,46.0,45.0,60.0,1.0,0.0
2018,56.0,64.0,60.0,1.0,0.0
2019,71.0,0.0,120.0,0.0,0.0
2020,68.0,6.0,120.0,0.0,0.0
2021,54.0,58.0,60.0,1.0,0.0
2022,53.0,64.0,60.0,1.0,0.0
2023,70.0,19.0,240.0,0.0,0.0
2024,68.0,6.0,120.0,0.0,0.0
2025,54.0,58.0,60.0,1.0,0.0
2026,65.0,64.0,60.0,1.0,0.0
2027,66.0,0.0,60.0,0.0,0.0
2028,63.0,45.0,60.0,1.0,0.0
2029,65.0,64.0,60.0,0.0,0.0
2030,62.0,0.0,60.0,1.0,0.0
2031,63.0,58.0,60.0,1.0,0.0
2032,66.0,6.0,120.0,0.0,0.0
2033,54.0,64.0,60.0,1.0,0.0
2034,66.0,6.0,120.0,0.0,0.0
2035,53.0,58.0,60.0,1.0,0.0
2036,75.0,6.0,240.0,0.0,0.0
2037,51.0,122.0,60.0,1.0,0.0
2038,65.0,0.0,240.0,0.0,0.0
2039,58.0,13.0,240.0,1.0,0.0
2040,34.0,64.0,60.0,1.0,0.0
2041,74.0,6.0,120.0,0.0,0.0
2042,32.0,0.0,60.0,1.0,0.0
2043,44.0,45.0,60.0,1.0,0.0
2044,34.0,64.0,60.0,1.0,0.0
2045,70.0,6.0,120.0,0.0,0.0
2046,30.0,0.0,60.0,1.0,0.0
2047,42.0,58.0,60.0,1.0,0.0
2048,75.0,13.0,240.0,0.0,0.0
2049,34.0,64.0,60.0,1.0,0.0
2050,29.0,0.0,60.0,1.0,0.0
2051,41.0,45.0,60.0,1.0,0.0
2052,58.0,0.0,120.0,0.0,0.0
2053,68.0,6.0,120.0,0.0,0.0
2054,34.0,64.0,60.0,1.0,0.0
2055,58.0,0.0,120.0,0.0,0.0
2056,66.0,6.0,120.0,0.0,0.0
2057,39.0,58.0,60.0,1.0,0.0
2058,27.0,0.0,60.0,1.0,0.0
2059,34.0,64.0,60.0,1.0,0.0
2060,58.0,6.0,120.0,0.0,0.0
2061,65.0,0.0,120.0,0.0,0.0
2062,70.0,0.0,120.0,0.0,0.0
2063,26.0,0.0,60.0,1.0,0.0
2064,38.0,58.0,60.0,1.0,0.0
2065,34.0,64.0,60.0,1.0,0.0
2066,66.0,0.0,120.0,0.0,0.0
2067,70.0,6.0,120.0,0.0,0.0
2068,27.0,0.0,60.0,1.0,0.0
2069,39.0,58.0,60.0,1.0,0.0
2070,58.0,0.0,120.0,0.0,0.0
2071,34.0,64.0,60.0,1.0,0.0
2072,70.0,0.0,120.0,0.0,0.0
2073,41.0,58.0,60.0,1.0,0.0
2074,29.0,0.0,60.0,1.0,0.0
2075,56.0,0.0,120.0,0.0,0.0
2076,62.0,6.0,120.0,0.0,0.0
2077,34.0,64.0,60.0,1.0,0.0
2078,54.0,0.0,120.0,0.0,0.0
2079,63.0,0.0,120.0,0.0,0.0
2080,70.0,6.0,120.0,0.0,0.0
2081,30.0,0.0,60.0,1.0,0.0
2082,42.0,58.0,60.0,1.0,0.0
2083,34.0,64.0,60.0,1.0,0.0
2084,70.0,0.0,120.0,0.0,0.0
2085,62.0,0.0,120.0,0.0,0.0
2086,58.0,6.0,120.0,0.0,0.0
2087,22.0,0.0,60.0,1.0,0.0
2088,34.0,58.0,60.0,1.0,0.0
2089,34.0,64.0,60.0,1.0,0.0
2090,36.0,58.0,60.0,1.0,0.0
2091,58.0,6.0,120.0,0.0,0.0
2092,63.0,0.0,120.0,0.0,0.0
2093,70.0,0.0,120.0,0.0,0.0
2094,24.0,0.0,60.0,1.0,0.0
2095,34.0,64.0,60.0,1.0,0.0
2096,56.0,6.0,120.0,0.0,0.0
2097,65.0,0.0,120.0,0.0,0.0
2098,70.0,0.0,120.0,0.0,0.0
2099,26.0,0.0,60.0,1.0,0.0
2100,38.0,58.0,60.0,1.0,0.0
2101,34.0,64.0,60.0,1.0,0.0
2102,54.0,0.0,120.0,0.0,0.0
2103,66.0,0.0,120.0,0.0,0.0
2104,70.0,6.0,120.0,0.0,0.0
2105,27.0,0.0,60.0,1.0,0.0
2106,39.0,58.0,60.0,1.0,0.0
2107,34.0,64.0,60.0,1.0,0.0
2108,58.0,6.0,120.0,0.0,0.0
2109,65.0,0.0,120.0,0.0,0.0
2110,70.0,0.0,120.0,0.0,0.0
2111,26.0,0.0,60.0,1.0,0.0
2112,38.0,58.0,60.0,1.0,0.0
2113,34.0,64.0,60.0,1.0,0.0
2114,58.0,6.0,120.0,0.0,0.0
2115,66.0,0.0,120.0,0.0,0.0
2116,70.0,0.0,120.0,0.0,0.0
2117,27.0,0.0,60.0,1.0,0.0
2118,39.0,58.0,60.0,1.0,0.0
2119,34.0,64.0,60.0,1.0,0.0
2120,56.0,0.0,120.0,0.0,0.0
2121,70.0,6.0,120.0,0.0,0.0
2122,29.0,58.0,60.0,1.0,0.0
2123,62.0,0.0,120.0,0.0,0.0
2124,41.0,0.0,60.0,1.0,0.0
2125,34.0,64.0,60.0,1.0,0.0
2126,42.0,19.0,240.0,1.0,0.0
2127,63.0,64.0,60.0,0.0,0.0
2128,70.0,0.0,60.0,0.0,0.0
2129,58.0,0.0,240.0,0.0,0.0
2130,30.0,0.0,240.0,1.0,0.0
2131,66.0,0.0,60.0,0.0,0.0
2132,75.0,64.0,60.0,0.0,0.0
2133,65.0,45.0,60.0,0.0,0.0
2134,73.0,0.0,60.0,0.0,0.0
2135,75.0,64.0,60.0,0.0,0.0
2136,66.0,0.0,60.0,0.0,0.0
2137,63.0,0.0,60.0,0.0,0.0
2138,72.0,64.0,60.0,0.0,0.0
2139,65.0,0.0,60.0,0.0,0.0
2140,73.0,64.0,60.0,0.0,0.0
2141,43.0,0.0,120.0,1.0,0.0
2142,31.0,6.0,120.0,1.0,0.0
2143,70.0,58.0,60.0,0.0,0.0
2144,61.0,0.0,60.0,0.0,0.0
2145,72.0,64.0,60.0,0.0,0.0
2146,63.0,0.0,60.0,0.0,0.0
2147,68.0,0.0,60.0,0.0,0.0
2148,44.0,6.0,120.0,1.0,0.0
2149,32.0,0.0,120.0,1.0,0.0
2150,60.0,58.0,60.0,0.0,0.0
2151,68.0,0.0,60.0,0.0,0.0
2152,77.0,64.0,60.0,0.0,0.0
2153,66.0,0.0,60.0,0.0,0.0
2154,75.0,64.0,60.0,0.0,0.0
2155,68.0,64.0,60.0,0.0,0.0
2156,77.0,0.0,60.0,0.0,0.0
2157,73.0,64.0,60.0,0.0,0.0
2158,65.0,0.0,60.0,0.0,0.0
2159,66.0,0.0,60.0,0.0,0.0
2160,75.0,64.0,60.0,0.0,0.0
2161,63.0,0.0,60.0,0.0,0.0
2162,72.0,58.0,60.0,0.0,0.0
2163,33.0,0.0,120.0,1.0,0.0
2164,45.0,6.0,120.0,1.0,0.0
2165,73.0,64.0,60.0,0.0,0.0
2166,65.0,0.0,60.0,0.0,0.0
2167,61.0,0.0,60.0,0.0,0.0
2168,70.0,58.0,60.0,0.0,0.0
2169,34.0,0.0,120.0,1.0,0.0
2170,46.0,6.0,120.0,1.0,0.0
2171,70.0,64.0,60.0,0.0,0.0
2172,78.0,0.0,60.0,0.0,0.0
2173,68.0,0.0,60.0,0.0,0.0
2174,77.0,64.0,60.0,0.0,0.0
2175,70.0,0.0,60.0,0.0,0.0
2176,78.0,64.0,60.0,0.0,0.0
2177,75.0,64.0,60.0,0.0,0.0
2178,66.0,0.0,60.0,0.0,0.0
2179,68.0,0.0,60.0,0.0,0.0
2180,77.0,64.0,60.0,0.0,0.0
2181,65.0,58.0,60.0,0.0,0.0
2182,73.0,0.0,60.0,0.0,0.0
2183,34.0,0.0,120.0,1.0,0.0
2184,46.0,6.0,120.0,1.0,0.0
2185,75.0,64.0,60.0,0.0,0.0
2186,66.0,0.0,60.0,0.0,0.0
2187,63.0,0.0,60.0,0.0,0.0
2188,72.0,58.0,60.0,0.0,0.0
2189,36.0,0.0,120.0,1.0,0.0
2190,48.0,6.0,120.0,1.0,0.0
2191,80.0,64.0,60.0,0.0,0.0
2192,72.0,0.0,60.0,0.0,0.0
2193,78.0,64.0,60.0,0.0,0.0
2194,70.0,0.0,60.0,0.0,0.0
2195,72.0,64.0,60.0,0.0,0.0
2196,80.0,0.0,60.0,0.0,0.0
2197,68.0,0.0,60.0,0.0,0.0
2198,77.0,64.0,60.0,0.0,0.0
2199,70.0,0.0,60.0,0.0,0.0
2200,78.0,64.0,60.0,0.0,0.0
2201,66.0,0.0,60.0,0.0,0.0
2202,75.0,58.0,60.0,0.0,0.0
2203,36.0,6.0,120.0,1.0,0.0
2204,48.0,0.0,120.0,1.0,0.0
2205,77.0,64.0,60.0,0.0,0.0
2206,68.0,0.0,60.0,0.0,0.0
2207,73.0,5.0,60.0,0.0,0.0
2208,65.0,6.0,120.0,0.0,0.0
2209,37.0,0.0,60.0,1.0,0.0
2210,49.0,53.0,60.0,1.0,0.0
2211,71.0,64.0,60.0,0.0,0.0
2212,41.0,53.0,60.0,1.0,0.0
2213,70.0,5.0,60.0,0.0,0.0
2214,29.0,0.0,60.0,1.0,0.0
2215,61.0,6.0,120.0,0.0,0.0
2216,68.0,64.0,60.0,0.0,0.0
2217,30.0,0.0,60.0,1.0,0.0
2218,66.0,5.0,60.0,0.0,0.0
2219,70.0,0.0,60.0,0.0,0.0
2220,42.0,59.0,60.0,1.0,0.0
2221,68.0,0.0,60.0,0.0,0.0
2222,65.0,64.0,60.0,0.0,0.0
2223,66.0,5.0,60.0,0.0,0.0
2224,63.0,0.0,60.0,0.0,0.0
2225,34.0,59.0,60.0,1.0,0.0
2226,46.0,0.0,60.0,1.0,0.0
2227,65.0,0.0,60.0,0.0,0.0
2228,61.0,64.0,60.0,0.0,0.0
2229,63.0,6.0,120.0,0.0,0.0
2230,27.0,0.0,120.0,1.0,0.0
2231,39.0,60.0,120.0,1.0,0.0
2232,66.0,58.0,60.0,0.0,0.0
2233,70.0,4.0,60.0,0.0,0.0
2234,66.0,0.0,60.0,0.0,0.0
2235,63.0,64.0,60.0,0.0,0.0
2236,65.0,64.0,60.0,0.0,0.0
2237,61.0,0.0,60.0,0.0,0.0
2238,60.0,6.0,120.0,0.0,0.0
2239,63.0,58.0,60.0,0.0,0.0
2240,66.0,64.0,60.0,0.0,0.0
2241,42.0,0.0,240.0,1.0,0.0
2242,63.0,64.0,60.0,0.0,0.0
2243,60.0,0.0,60.0,0.0,0.0
2244,30.0,6.0,240.0,1.0,0.0
2245,61.0,0.0,60.0,0.0,0.0
2246,58.0,64.0,60.0,0.0,0.0
2247,60.0,58.0,60.0,0.0,0.0
2248,56.0,0.0,60.0,0.0,0.0
2249,61.0,64.0,60.0,0.0,0.0
2250,58.0,0.0,60.0,0.0,0.0
2251,29.0,0.0,120.0,1.0,0.0
2252,60.0,58.0,60.0,0.0,0.0
2253,63.0,0.0,60.0,0.0,0.0
2254,41.0,6.0,120.0,1.0,0.0
2255,65.0,0.0,60.0,0.0,0.0
2256,61.0,64.0,60.0,0.0,0.0
2257,27.0,0.0,120.0,1.0,0.0
2258,39.0,6.0,120.0,1.0,0.0
2259,66.0,58.0,60.0,0.0,0.0
2260,63.0,0.0,120.0,0.0,0.0
2261,70.0,64.0,60.0,0.0,0.0
2262,44.0,0.0,120.0,1.0,0.0
2263,68.0,58.0,60.0,0.0,0.0
2264,32.0,0.0,120.0,1.0,0.0
2265,60.0,6.0,120.0,0.0,0.0
2266,66.0,128.0,60.0,0.0,0.0
2267,37.0,0.0,240.0,1.0,0.0
2268,25.0,0.0,240.0,1.0,0.0
2269,65.0,19.0,240.0,0.0,0.0
2270,61.0,0.0,240.0,0.0,0.0
2271,56.0,0.0,60.0,1.0,0.0
2272,68.0,64.0,60.0,0.0,0.0
2273,66.0,0.0,60.0,0.0,0.0
2274,54.0,45.0,60.0,1.0,0.0
2275,68.0,0.0,60.0,0.0,0.0
2276,56.0,64.0,60.0,1.0,0.0
2277,80.0,0.0,60.0,0.0,0.0
2278,53.0,0.0,60.0,1.0,0.0
2279,65.0,64.0,60.0,1.0,0.0
2280,68.0,0.0,60.0,0.0,0.0
2281,56.0,64.0,60.0,1.0,0.0
2282,78.0,0.0,60.0,0.0,0.0
2283,51.0,64.0,60.0,1.0,0.0
2284,63.0,0.0,60.0,1.0,0.0
2285,68.0,0.0,60.0,0.0,0.0
2286,56.0,64.0,60.0,1.0,0.0
2287,77.0,0.0,60.0,0.0,0.0
2288,49.0,0.0,60.0,1.0,0.0
2289,61.0,64.0,60.0,1.0,0.0
2290,68.0,0.0,60.0,0.0,0.0
2291,56.0,64.0,60.0,1.0,0.0
2292,75.0,0.0,60.0,0.0,0.0
2293,48.0,0.0,60.0,1.0,0.0
2294,60.0,64.0,60.0,1.0,0.0
2295,68.0,0.0,60.0,0.0,0.0
2296,56.0,64.0,60.0,1.0,0.0
2297,61.0,64.0,60.0,1.0,0.0
2298,49.0,0.0,60.0,1.0,0.0
2299,77.0,0.0,60.0,0.0,0.0
2300,68.0,0.0,60.0,0.0,0.0
2301,56.0,64.0,60.0,1.0,0.0
2302,78.0,0.0,60.0,0.0,0.0
2303,63.0,64.0,60.0,1.0,0.0
2304,51.0,0.0,60.0,1.0,0.0
2305,68.0,64.0,60.0,0.0,0.0
2306,56.0,0.0,60.0,1.0,0.0
2307,53.0,0.0,60.0,1.0,0.0
2308,80.0,0.0,60.0,0.0,0.0
2309,65.0,64.0,60.0,1.0,0.0
2310,68.0,0.0,60.0,0.0,0.0
2311,56.0,64.0,60.0,1.0,0.0
2312,72.0,0.0,60.0,0.0,0.0
2313,44.0,64.0,60.0,1.0,0.0
2314,56.0,0.0,60.0,1.0,0.0
2315,68.0,0.0,60.0,0.0,0.0
2316,56.0,64.0,60.0,1.0,0.0
2317,73.0,0.0,60.0,0.0,0.0
2318,46.0,64.0,60.0,1.0,0.0
2319,58.0,0.0,60.0,1.0,0.0
2320,68.0,0.0,60.0,0.0,0.0
2321,56.0,64.0,60.0,1.0,0.0
2322,75.0,0.0,60.0,0.0,0.0
2323,48.0,0.0,60.0,1.0,0.0
2324,60.0,64.0,60.0,1.0,0.0
2325,68.0,0.0,60.0,0.0,0.0
2326,56.0,64.0,60.0,1.0,0.0
2327,61.0,64.0,60.0,1.0,0.0
2328,49.0,0.0,60.0,1.0,0.0
2329,77.0,0.0,60.0,0.0,0.0
2330,68.0,0.0,60.0,0.0,0.0
2331,56.0,64.0,60.0,1.0,0.0
2332,75.0,64.0,60.0,0.0,0.0
2333,48.0,0.0,60.0,1.0,0.0
2334,60.0,0.0,60.0,1.0,0.0
2335,68.0,0.0,60.0,0.0,0.0
2336,56.0,64.0,60.0,1.0,0.0
2337,77.0,0.0,60.0,0.0,0.0
2338,49.0,0.0,60.0,1.0,0.0
2339,61.0,64.0,60.0,1.0,0.0
2340,56.0,64.0,60.0,1.0,0.0
2341,68.0,0.0,60.0,0.0,0.0
2342,78.0,0.0,60.0,0.0,0.0
2343,51.0,0.0,60.0,1.0,0.0
2344,63.0,64.0,60.0,1.0,0.0
2345,56.0,64.0,60.0,1.0,0.0
2346,68.0,0.0,120.0,0.0,0.0
2347,53.0,0.0,240.0,1.0,0.0
2348,80.0,64.0,60.0,0.0,0.0
2349,78.0,0.0,60.0,0.0,0.0
2350,66.0,64.0,60.0,1.0,0.0
2351,77.0,0.0,60.0,0.0,0.0
2352,65.0,45.0,60.0,1.0,0.0
2353,75.0,0.0,60.0,0.0,0.0
2354,63.0,64.0,60.0,1.0,0.0
2355,73.0,0.0,60.0,0.0,0.0
2356,61.0,64.0,60.0,1.0,0.0
2357,71.0,0.0,60.0,0.0,0.0
2358,59.0,64.0,60.0,1.0,0.0
2359,58.0,0.0,60.0,1.0,0.0
2360,70.0,64.0,60.0,0.0,0.0
2361,68.0,0.0,60.0,0.0,0.0
2362,56.0,64.0,60.0,1.0,0.0
2363,82.0,0.0,60.0,0.0,0.0
2364,70.0,58.0,60.0,1.0,0.0
2365,54.0,6.0,120.0,1.0,0.0
2366,66.0,0.0,120.0,1.0,0.0
2367,80.0,64.0,60.0,0.0,0.0
2368,68.0,0.0,60.0,1.0,0.0
2369,78.0,0.0,60.0,0.0,0.0
2370,66.0,64.0,60.0,1.0,0.0
2371,77.0,0.0,60.0,0.0,0.0
2372,65.0,64.0,60.0,1.0,0.0
2373,75.0,64.0,60.0,0.0,0.0
2374,63.0,0.0,60.0,1.0,0.0
2375,73.0,0.0,60.0,0.0,0.0
2376,61.0,64.0,60.0,1.0,0.0
2377,72.0,0.0,60.0,0.0,0.0
2378,60.0,64.0,60.0,1.0,0.0
2379,58.0,64.0,60.0,1.0,0.0
2380,70.0,0.0,60.0,0.0,0.0
2381,84.0,0.0,60.0,0.0,0.0
2382,72.0,58.0,60.0,1.0,0.0
2383,56.0,0.0,120.0,1.0,0.0
2384,68.0,6.0,120.0,1.0,0.0
2385,82.0,0.0,60.0,0.0,0.0
2386,70.0,64.0,60.0,1.0,0.0
2387,80.0,0.0,60.0,0.0,0.0
2388,68.0,64.0,60.0,1.0,0.0
2389,78.0,0.0,60.0,0.0,0.0
2390,66.0,64.0,60.0,1.0,0.0
2391,77.0,64.0,60.0,0.0,0.0
2392,65.0,0.0,60.0,1.0,0.0
2393,75.0,0.0,60.0,0.0,0.0
2394,63.0,64.0,60.0,1.0,0.0
2395,73.0,0.0,60.0,0.0,0.0
2396,61.0,64.0,60.0,1.0,0.0
2397,72.0,0.0,60.0,0.0,0.0
2398,60.0,64.0,60.0,1.0,0.0
2399,85.0,0.0,60.0,0.0,0.0
2400,73.0,58.0,60.0,1.0,0.0
2401,58.0,0.0,120.0,1.0,0.0
2402,70.0,6.0,120.0,1.0,0.0
2403,84.0,0.0,60.0,0.0,0.0
2404,72.0,64.0,60.0,1.0,0.0
2405,82.0,0.0,60.0,0.0,0.0
2406,70.0,64.0,60.0,1.0,0.0
2407,68.0,64.0,60.0,1.0,0.0
2408,80.0,0.0,60.0,0.0,0.0
2409,78.0,0.0,60.0,0.0,0.0
2410,66.0,64.0,60.0,1.0,0.0
2411,77.0,64.0,60.0,0.0,0.0
2412,65.0,0.0,60.0,1.0,0.0
2413,75.0,64.0,60.0,0.0,0.0
2414,63.0,0.0,60.0,1.0,0.0
2415,73.0,0.0,60.0,0.0,0.0
2416,61.0,64.0,60.0,1.0,0.0
2417,60.0,0.0,120.0,1.0,0.0
2418,72.0,6.0,120.0,1.0,0.0
2419,87.0,58.0,60.0,0.0,0.0
2420,75.0,0.0,60.0,1.0,0.0
2421,85.0,0.0,60.0,0.0,0.0
2422,73.0,64.0,60.0,1.0,0.0
2423,84.0,0.0,60.0,0.0,0.0
2424,72.0,38.0,60.0,1.0,0.0
2425,70.0,0.0,30.0,1.0,0.0
2426,82.0,64.0,30.0,0.0,0.0
2427,68.0,64.0,30.0,1.0,0.0
2428,80.0,0.0,30.0,0.0,0.0
2429,78.0,0.0,30.0,0.0,0.0
2430,66.0,64.0,30.0,1.0,0.0
2431,65.0,64.0,30.0,1.0,0.0
2432,77.0,0.0,30.0,0.0,0.0
2433,75.0,0.0,30.0,0.0,0.0
2434,63.0,64.0,30.0,1.0,0.0
2435,77.0,0.0,30.0,0.0,0.0
2436,89.0,31.0,30.0,0.0,0.0
2437,61.0,0.0,60.0,1.0,0.0
2438,73.0,59.0,60.0,1.0,0.0
2439,73.0,64.0,60.0,0.0,0.0
2440,85.0,0.0,60.0,0.0,0.0
2441,84.0,5.0,60.0,0.0,0.0
2442,72.0,59.0,60.0,1.0,0.0
2443,73.0,0.0,60.0,0.0,0.0
2444,85.0,38.0,60.0,0.0,0.0
2445,80.0,31.0,30.0,0.0,0.0
2446,68.0,59.0,60.0,1.0,0.0
2447,73.0,0.0,60.0,0.0,0.0
2448,85.0,64.0,60.0,0.0,0.0
2449,72.0,5.0,60.0,0.0,0.0
2450,84.0,0.0,60.0,0.0,0.0
2451,72.0,59.0,60.0,1.0,0.0
2452,73.0,0.0,60.0,0.0,0.0
2453,85.0,38.0,60.0,0.0,0.0
2454,77.0,31.0,30.0,0.0,0.0
2455,89.0,0.0,30.0,0.0,0.0
2456,61.0,0.0,60.0,1.0,0.0
2457,73.0,59.0,60.0,1.0,0.0
2458,73.0,0.0,60.0,0.0,0.0
2459,85.0,64.0,60.0,0.0,0.0
2460,84.0,5.0,60.0,0.0,0.0
2461,72.0,59.0,60.0,1.0,0.0
2462,85.0,38.0,60.0,0.0,0.0
2463,73.0,0.0,60.0,0.0,0.0
2464,80.0,31.0,30.0,0.0,0.0
2465,68.0,59.0,60.0,1.0,0.0
2466,73.0,0.0,60.0,0.0,0.0
2467,85.0,64.0,60.0,0.0,0.0
2468,72.0,0.0,60.0,0.0,0.0
2469,84.0,5.0,60.0,0.0,0.0
2470,72.0,59.0,60.0,1.0,0.0
2471,73.0,38.0,60.0,0.0,0.0
2472,85.0,0.0,60.0,0.0,0.0
2473,75.0,0.0,30.0,0.0,0.0
2474,87.0,31.0,30.0,0.0,0.0
2475,60.0,0.0,60.0,1.0,0.0
2476,72.0,59.0,60.0,1.0,0.0
2477,84.0,0.0,60.0,0.0,0.0
2478,72.0,64.0,60.0,0.0,0.0
2479,82.0,5.0,60.0,0.0,0.0
2480,70.0,59.0,60.0,1.0,0.0
2481,72.0,38.0,60.0,0.0,0.0
2482,84.0,0.0,60.0,0.0,0.0
2483,68.0,59.0,60.0,1.0,0.0
2484,80.0,31.0,30.0,0.0,0.0
2485,72.0,0.0,60.0,0.0,0.0
2486,84.0,64.0,60.0,0.0,0.0
2487,70.0,59.0,60.0,1.0,0.0
2488,82.0,5.0,60.0,0.0,0.0
2489,84.0,0.0,60.0,0.0,0.0
2490,72.0,38.0,60.0,0.0,0.0
2491,72.0,59.0,60.0,1.0,0.0
2492,75.0,0.0,30.0,0.0,0.0
2493,87.0,31.0,30.0,0.0,0.0
2494,60.0,0.0,60.0,1.0,0.0
2495,72.0,0.0,60.0,0.0,0.0
2496,84.0,64.0,60.0,0.0,0.0
2497,82.0,5.0,60.0,0.0,0.0
2498,70.0,59.0,60.0,1.0,0.0
2499,72.0,0.0,60.0,0.0,0.0
2500,84.0,38.0,60.0,0.0,0.0
2501,80.0,31.0,30.0,0.0,0.0
2502,68.0,59.0,60.0,1.0,0.0
2503,72.0,0.0,60.0,0.0,0.0
2504,84.0,64.0,60.0,0.0,0.0
2505,82.0,5.0,60.0,0.0,0.0
2506,70.0,59.0,60.0,1.0,0.0
2507,72.0,0.0,60.0,0.0,0.0
2508,84.0,64.0,60.0,0.0,0.0
2509,61.0,0.0,60.0,1.0,0.0
2510,73.0,64.0,60.0,1.0,0.0
2511,77.0,0.0,60.0,0.0,0.0
2512,89.0,0.0,60.0,0.0,0.0
2513,85.0,0.0,60.0,0.0,0.0
2514,73.0,64.0,60.0,1.0,0.0
2515,84.0,64.0,60.0,0.0,0.0
2516,72.0,0.0,60.0,1.0,0.0
2517,85.0,0.0,60.0,0.0,0.0
2518,73.0,64.0,60.0,1.0,0.0
2519,80.0,0.0,60.0,0.0,0.0
2520,68.0,64.0,60.0,1.0,0.0
2521,85.0,0.0,60.0,0.0,0.0
2522,73.0,64.0,60.0,1.0,0.0
2523,84.0,64.0,60.0,0.0,0.0
2524,72.0,0.0,60.0,1.0,0.0
2525,73.0,64.0,60.0,1.0,0.0
2526,85.0,0.0,60.0,0.0,0.0
2527,77.0,0.0,60.0,0.0,0.0
2528,89.0,0.0,60.0,0.0,0.0
2529,61.0,0.0,60.0,1.0,0.0
2530,73.0,64.0,60.0,1.0,0.0
2531,85.0,0.0,60.0,0.0,0.0
2532,73.0,64.0,60.0,1.0,0.0
2533,84.0,0.0,60.0,0.0,0.0
2534,72.0,64.0,60.0,1.0,0.0
2535,85.0,0.0,60.0,0.0,0.0
2536,73.0,64.0,60.0,1.0,0.0
2537,80.0,0.0,60.0,0.0,0.0
2538,68.0,64.0,60.0,1.0,0.0
2539,85.0,0.0,60.0,0.0,0.0
2540,73.0,64.0,60.0,1.0,0.0
2541,84.0,0.0,60.0,0.0,0.0
2542,72.0,64.0,60.0,1.0,0.0
2543,85.0,64.0,60.0,0.0,0.0
2544,73.0,0.0,60.0,1.0,0.0
2545,87.0,0.0,60.0,0.0,0.0
2546,60.0,0.0,60.0,1.0,0.0
2547,72.0,64.0,60.0,1.0,0.0
2548,75.0,0.0,60.0,0.0,0.0
2549,72.0,0.0,60.0,1.0,0.0
2550,84.0,64.0,60.0,0.0,0.0
2551,82.0,0.0,60.0,0.0,0.0
2552,70.0,64.0,60.0,1.0,0.0
2553,84.0,0.0,60.0,0.0,0.0
2554,72.0,64.0,60.0,1.0,0.0
2555,80.0,0.0,60.0,0.0,0.0
2556,68.0,64.0,60.0,1.0,0.0
2557,84.0,64.0,60.0,0.0,0.0
2558,72.0,0.0,60.0,1.0,0.0
2559,82.0,0.0,60.0,0.0,0.0
2560,70.0,64.0,60.0,1.0,0.0
2561,84.0,0.0,60.0,0.0,0.0
2562,72.0,64.0,60.0,1.0,0.0
2563,75.0,0.0,60.0,0.0,0.0
2564,87.0,0.0,60.0,0.0,0.0
2565,60.0,0.0,60.0,1.0,0.0
2566,72.0,64.0,60.0,1.0,0.0
2567,84.0,0.0,60.0,0.0,0.0
2568,72.0,64.0,60.0,1.0,0.0
2569,82.0,0.0,60.0,0.0,0.0
2570,70.0,64.0,60.0,1.0,0.0
2571,84.0,0.0,60.0,0.0,0.0
2572,72.0,64.0,60.0,1.0,0.0
2573,80.0,64.0,60.0,0.0,0.0
2574,68.0,0.0,60.0,1.0,0.0
2575,72.0,64.0,60.0,1.0,0.0
2576,84.0,0.0,60.0,0.0,0.0
2577,82.0,0.0,60.0,0.0,0.0
2578,70.0,64.0,60.0,1.0,0.0
2579,72.0,64.0,60.0,1.0,0.0
2580,84.0,0.0,60.0,0.0,0.0
2581,70.0,64.0,60.0,1.0,0.0
2582,73.0,0.0,60.0,0.0,0.0
2583,85.0,0.0,60.0,0.0,0.0
2584,58.0,0.0,60.0,1.0,0.0
2585,87.0,0.0,60.0,0.0,0.0
2586,75.0,64.0,60.0,1.0,0.0
2587,85.0,0.0,60.0,0.0,0.0
2588,73.0,64.0,60.0,1.0,0.0
2589,84.0,64.0,60.0,0.0,0.0
2590,72.0,0.0,60.0,1.0,0.0
2591,82.0,0.0,60.0,0.0,0.0
2592,70.0,64.0,60.0,1.0,0.0
2593,80.0,0.0,60.0,0.0,0.0
2594,68.0,64.0,60.0,1.0,0.0
2595,79.0,0.0,60.0,0.0,0.0
2596,67.0,64.0,60.0,1.0,0.0
2597,77.0,0.0,60.0,0.0,0.0
2598,65.0,64.0,60.0,1.0,0.0
2599,79.0,0.0,60.0,0.0,0.0
2600,67.0,64.0,60.0,1.0,0.0
2601,63.0,0.0,60.0,1.0,0.0
2602,75.0,64.0,60.0,1.0,0.0
2603,67.0,64.0,60.0,1.0,0.0
2604,70.0,64.0,60.0,1.0,0.0
2605,82.0,0.0,60.0,1.0,0.0
2606,73.0,64.0,60.0,1.0,0.0
2607,77.0,0.0,60.0,1.0,0.0
2608,89.0,64.0,60.0,1.0,0.0
2609,85.0,64.0,60.0,1.0,0.0
2610,82.0,64.0,60.0,1.0,0.0
2611,70.0,0.0,60.0,1.0,0.0
2612,79.0,64.0,60.0,1.0,0.0
2613,63.0,0.0,60.0,1.0,0.0
2614,75.0,64.0,60.0,1.0,0.0
2615,67.0,64.0,60.0,1.0,0.0
2616,70.0,0.0,60.0,1.0,0.0
2617,82.0,64.0,60.0,1.0,0.0
2618,73.0,64.0,60.0,1.0,0.0
2619,77.0,0.0,60.0,1.0,0.0
2620,89.0,64.0,60.0,1.0,0.0
2621,85.0,64.0,60.0,1.0,0.0
2622,70.0,0.0,60.0,1.0,0.0
2623,82.0,64.0,60.0,1.0,0.0
2624,78.0,64.0,60.0,1.0,0.0
2625,75.0,64.0,60.0,1.0,0.0
2626,63.0,0.0,60.0,1.0,0.0
2627,66.0,64.0,60.0,1.0,0.0
2628,68.0,64.0,60.0,1.0,0.0
2629,80.0,0.0,60.0,1.0,0.0
2630,72.0,64.0,60.0,1.0,0.0
2631,75.0,0.0,60.0,1.0,0.0
2632,87.0,64.0,60.0,1.0,0.0
2633,84.0,64.0,60.0,1.0,0.0
2634,68.0,0.0,60.0,1.0,0.0
2635,80.0,64.0,60.0,1.0,0.0
2636,78.0,64.0,60.0,1.0,0.0
2637,75.0,64.0,60.0,1.0,0.0
2638,63.0,0.0,60.0,1.0,0.0
2639,66.0,64.0,60.0,1.0,0.0
2640,80.0,0.0,60.0,1.0,0.0
2641,68.0,64.0,60.0,1.0,0.0
2642,72.0,64.0,60.0,1.0,0.0
2643,87.0,0.0,60.0,1.0,0.0
2644,75.0,64.0,60.0,1.0,0.0
2645,84.0,64.0,60.0,1.0,0.0
2646,80.0,0.0,60.0,1.0,0.0
2647,68.0,64.0,60.0,1.0,0.0
2648,77.0,64.0,60.0,0.0,0.0
2649,73.0,0.0,60.0,0.0,0.0
2650,61.0,64.0,60.0,1.0,0.0
2651,77.0,0.0,60.0,0.0,0.0
2652,65.0,64.0,60.0,1.0,0.0
2653,68.0,0.0,60.0,0.0,0.0
2654,80.0,64.0,60.0,0.0,0.0
2655,70.0,64.0,60.0,0.0,0.0
2656,73.0,0.0,60.0,0.0,0.0
2657,85.0,64.0,60.0,1.0,0.0
2658,70.0,64.0,60.0,0.0,0.0
2659,82.0,0.0,60.0,1.0,0.0
2660,78.0,64.0,60.0,0.0,0.0
2661,66.0,0.0,60.0,0.0,0.0
2662,65.0,64.0,60.0,0.0,0.0
2663,77.0,0.0,60.0,0.0,0.0
2664,73.0,0.0,60.0,0.0,0.0
2665,61.0,64.0,60.0,1.0,0.0
2666,77.0,0.0,60.0,0.0,0.0
2667,65.0,64.0,60.0,1.0,0.0
2668,68.0,0.0,60.0,0.0,0.0
2669,80.0,64.0,60.0,0.0,0.0
2670,70.0,64.0,60.0,0.0,0.0
2671,73.0,0.0,60.0,0.0,0.0
2672,85.0,64.0,60.0,1.0,0.0
2673,82.0,0.0,60.0,1.0,0.0
2674,70.0,64.0,60.0,0.0,0.0
2675,78.0,64.0,60.0,0.0,0.0
2676,66.0,0.0,60.0,0.0,0.0
2677,63.0,0.0,60.0,0.0,0.0
2678,75.0,64.0,60.0,0.0,0.0
2679,72.0,0.0,60.0,0.0,0.0
2680,60.0,64.0,60.0,1.0,0.0
2681,75.0,64.0,60.0,0.0,0.0
2682,63.0,0.0,60.0,1.0,0.0
2683,78.0,64.0,60.0,0.0,0.0
2684,66.0,0.0,60.0,0.0,0.0
2685,69.0,64.0,60.0,0.0,0.0
2686,72.0,0.0,60.0,0.0,0.0
2687,84.0,64.0,60.0,1.0,0.0
2688,69.0,0.0,60.0,0.0,0.0
2689,81.0,64.0,60.0,1.0,0.0
2690,78.0,64.0,60.0,0.0,0.0
2691,75.0,64.0,60.0,0.0,0.0
2692,72.0,0.0,60.0,0.0,0.0
2693,60.0,64.0,60.0,1.0,0.0
2694,75.0,64.0,60.0,0.0,0.0
2695,63.0,0.0,60.0,1.0,0.0
2696,66.0,0.0,60.0,0.0,0.0
2697,78.0,64.0,60.0,0.0,0.0
2698,69.0,64.0,60.0,0.0,0.0
2699,72.0,0.0,60.0,0.0,0.0
2700,84.0,64.0,60.0,1.0,0.0
2701,81.0,64.0,60.0,1.0,0.0
2702,69.0,0.0,60.0,0.0,0.0
2703,66.0,0.0,60.0,0.0,0.0
2704,78.0,64.0,60.0,0.0,0.0
2705,65.0,0.0,60.0,0.0,0.0
2706,77.0,58.0,60.0,0.0,0.0
2707,53.0,6.0,120.0,1.0,0.0
2708,89.0,64.0,60.0,0.0,0.0
2709,65.0,0.0,60.0,1.0,0.0
2710,87.0,0.0,60.0,0.0,0.0
2711,81.0,0.0,120.0,0.0,0.0
2712,63.0,58.0,60.0,1.0,0.0
2713,57.0,6.0,120.0,1.0,0.0
2714,89.0,0.0,60.0,0.0,0.0
2715,65.0,64.0,60.0,1.0,0.0
2716,85.0,0.0,60.0,0.0,0.0
2717,82.0,0.0,120.0,0.0,0.0
2718,58.0,6.0,120.0,1.0,0.0
2719,61.0,58.0,60.0,1.0,0.0
2720,89.0,0.0,60.0,0.0,0.0
2721,65.0,64.0,60.0,1.0,0.0
2722,51.0,6.0,120.0,1.0,0.0
2723,60.0,0.0,60.0,1.0,0.0
2724,84.0,58.0,60.0,0.0,0.0
2725,75.0,0.0,120.0,0.0,0.0
2726,89.0,0.0,60.0,0.0,0.0
2727,65.0,64.0,60.0,1.0,0.0
2728,82.0,0.0,60.0,0.0,0.0
2729,58.0,58.0,60.0,1.0,0.0
2730,49.0,6.0,120.0,1.0,0.0
2731,73.0,0.0,120.0,0.0,0.0
2732,89.0,0.0,60.0,0.0,0.0
2733,65.0,64.0,60.0,1.0,0.0
2734,77.0,6.0,120.0,0.0,0.0
2735,53.0,0.0,120.0,1.0,0.0
2736,57.0,58.0,60.0,1.0,0.0
2737,81.0,0.0,60.0,0.0,0.0
2738,89.0,64.0,60.0,0.0,0.0
2739,65.0,0.0,60.0,1.0,0.0
2740,55.0,6.0,120.0,1.0,0.0
2741,79.0,0.0,120.0,0.0,0.0
2742,82.0,0.0,60.0,0.0,0.0
2743,58.0,58.0,60.0,1.0,0.0
2744,89.0,0.0,60.0,0.0,0.0
2745,65.0,64.0,60.0,1.0,0.0
2746,60.0,58.0,60.0,1.0,0.0
2747,57.0,6.0,120.0,1.0,0.0
2748,81.0,0.0,120.0,0.0,0.0
2749,84.0,0.0,60.0,0.0,0.0
2750,89.0,0.0,60.0,0.0,0.0
2751,65.0,64.0,60.0,1.0,0.0
2752,58.0,0.0,120.0,1.0,0.0
2753,61.0,58.0,60.0,1.0,0.0
2754,85.0,0.0,60.0,0.0,0.0
2755,82.0,6.0,120.0,0.0,0.0
2756,65.0,64.0,60.0,1.0,0.0
2757,89.0,0.0,60.0,0.0,0.0
2758,81.0,0.0,120.0,0.0,0.0
2759,57.0,6.0,120.0,1.0,0.0
2760,77.0,58.0,60.0,0.0,0.0
2761,89.0,64.0,60.0,0.0,0.0
2762,65.0,0.0,60.0,1.0,0.0
2763,82.0,0.0,120.0,0.0,0.0
2764,67.0,58.0,60.0,1.0,0.0
2765,58.0,6.0,120.0,1.0,0.0
2766,79.0,0.0,60.0,0.0,0.0
2767,77.0,0.0,60.0,0.0,0.0
2768,89.0,0.0,60.0,0.0,0.0
2769,65.0,64.0,60.0,1.0,0.0
2770,81.0,0.0,60.0,0.0,0.0
2771,84.0,0.0,120.0,0.0,0.0
2772,69.0,58.0,60.0,1.0,0.0
2773,60.0,6.0,120.0,1.0,0.0
2774,67.0,64.0,60.0,1.0,0.0
2775,77.0,0.0,60.0,0.0,0.0
2776,89.0,0.0,60.0,0.0,0.0
2777,84.0,58.0,60.0,0.0,0.0
2778,70.0,0.0,60.0,1.0,0.0
2779,61.0,6.0,120.0,1.0,0.0
2780,73.0,0.0,120.0,1.0,0.0
2781,77.0,0.0,60.0,0.0,0.0
2782,65.0,64.0,60.0,1.0,0.0
2783,89.0,0.0,60.0,0.0,0.0
2784,81.0,0.0,60.0,0.0,0.0
2785,69.0,58.0,60.0,1.0,0.0
2786,60.0,0.0,120.0,1.0,0.0
2787,72.0,6.0,120.0,1.0,0.0
2788,65.0,122.0,60.0,1.0,0.0
2789,89.0,0.0,60.0,0.0,0.0
2790,77.0,0.0,60.0,0.0,0.0
2791,82.0,0.0,120.0,0.0,0.0
2792,85.0,0.0,120.0,0.0,0.0
2793,70.0,0.0,120.0,1.0,0.0
2794,73.0,6.0,120.0,1.0,0.0
2795,65.0,64.0,60.0,1.0,0.0
2796,77.0,0.0,60.0,0.0,0.0
2797,81.0,6.0,120.0,0.0,0.0
2798,84.0,0.0,120.0,0.0,0.0
2799,75.0,0.0,60.0,0.0,0.0
2800,69.0,0.0,120.0,1.0,0.0
2801,72.0,0.0,120.0,1.0,0.0
2802,63.0,58.0,60.0,1.0,0.0
2803,77.0,0.0,60.0,0.0,0.0
2804,65.0,122.0,60.0,1.0,0.0
2805,78.0,0.0,120.0,0.0,0.0
2806,82.0,0.0,120.0,0.0,0.0
2807,66.0,6.0,120.0,1.0,0.0
2808,70.0,0.0,120.0,1.0,0.0
2809,73.0,0.0,60.0,0.0,0.0
2810,61.0,64.0,60.0,1.0,0.0
2811,68.0,6.0,120.0,1.0,0.0
2812,65.0,0.0,120.0,1.0,0.0
2813,60.0,0.0,60.0,1.0,0.0
2814,80.0,0.0,120.0,0.0,0.0
2815,77.0,0.0,120.0,0.0,0.0
2816,72.0,58.0,60.0,0.0,0.0
2817,74.0,0.0,60.0,0.0,0.0
2818,62.0,122.0,60.0,1.0,0.0
2819,66.0,0.0,120.0,1.0,0.0
2820,75.0,6.0,120.0,0.0,0.0
2821,78.0,0.0,120.0,0.0,0.0
2822,63.0,0.0,120.0,1.0,0.0
2823,58.0,64.0,60.0,1.0,0.0
2824,70.0,0.0,60.0,0.0,0.0
2825,65.0,6.0,120.0,1.0,0.0
2826,56.0,58.0,60.0,1.0,0.0
2827,77.0,0.0,120.0,0.0,0.0
2828,74.0,0.0,120.0,0.0,0.0
2829,68.0,0.0,60.0,0.0,0.0
2830,62.0,0.0,120.0,1.0,0.0
2831,70.0,0.0,60.0,0.0,0.0
2832,58.0,64.0,60.0,1.0,0.0
2833,75.0,0.0,120.0,0.0,0.0
2834,66.0,58.0,60.0,0.0,0.0
2835,63.0,6.0,120.0,1.0,0.0
2836,54.0,0.0,60.0,1.0,0.0
2837,65.0,0.0,60.0,0.0,0.0
2838,56.0,64.0,60.0,1.0,0.0
2839,63.0,0.0,60.0,0.0,0.0
2840,54.0,64.0,60.0,1.0,0.0
2841,61.0,0.0,60.0,0.0,0.0
2842,53.0,64.0,60.0,1.0,0.0
2843,60.0,0.0,60.0,0.0,0.0
2844,51.0,64.0,60.0,1.0,0.0
2845,58.0,0.0,60.0,0.0,0.0
2846,49.0,64.0,60.0,1.0,0.0
2847,57.0,0.0,60.0,0.0,0.0
2848,48.0,64.0,60.0,1.0,0.0
2849,55.0,0.0,60.0,0.0,0.0
2850,46.0,64.0,60.0,1.0,0.0
2851,45.0,64.0,60.0,1.0,0.0
2852,53.0,0.0,60.0,0.0,0.0
2853,41.0,64.0,60.0,1.0,0.0
2854,45.0,64.0,60.0,1.0,0.0
2855,48.0,64.0,60.0,1.0,0.0
2856,51.0,64.0,60.0,1.0,0.0
2857,54.0,64.0,60.0,1.0,0.0
2858,51.0,64.0,60.0,1.0,0.0
2859,48.0,64.0,60.0,1.0,0.0
2860,45.0,64.0,60.0,1.0,0.0
2861,41.0,64.0,60.0,1.0,0.0
2862,45.0,64.0,60.0,1.0,0.0
2863,48.0,64.0,60.0,1.0,0.0
2864,51.0,64.0,60.0,1.0,0.0
2865,54.0,64.0,60.0,1.0,0.0
2866,51.0,64.0,60.0,1.0,0.0
2867,48.0,64.0,60.0,1.0,0.0
2868,46.0,64.0,60.0,1.0,0.0
2869,41.0,64.0,60.0,1.0,0.0
2870,46.0,64.0,60.0,1.0,0.0
2871,49.0,64.0,60.0,1.0,0.0
2872,53.0,64.0,60.0,1.0,0.0
2873,58.0,64.0,60.0,1.0,0.0
2874,53.0,64.0,60.0,1.0,0.0
2875,49.0,64.0,60.0,1.0,0.0
2876,46.0,64.0,60.0,1.0,0.0
2877,41.0,64.0,60.0,1.0,0.0
2878,46.0,64.0,60.0,1.0,0.0
2879,49.0,64.0,60.0,1.0,0.0
2880,53.0,64.0,60.0,1.0,0.0
2881,58.0,64.0,60.0,1.0,0.0
2882,53.0,64.0,60.0,1.0,0.0
2883,49.0,64.0,60.0,1.0,0.0
2884,57.0,64.0,60.0,0.0,0.0
2885,45.0,0.0,60.0,1.0,0.0
2886,53.0,0.0,60.0,0.0,0.0
2887,41.0,64.0,60.0,1.0,0.0
2888,57.0,0.0,60.0,0.0,0.0
2889,45.0,64.0,60.0,1.0,0.0
2890,48.0,0.0,60.0,1.0,0.0
2891,60.0,64.0,60.0,0.0,0.0
2892,63.0,0.0,60.0,0.0,0.0
2893,51.0,64.0,60.0,1.0,0.0
2894,54.0,0.0,60.0,1.0,0.0
2895,66.0,64.0,60.0,0.0,0.0
2896,51.0,0.0,60.0,1.0,0.0
2897,63.0,64.0,60.0,0.0,0.0
2898,60.0,0.0,60.0,0.0,0.0
2899,48.0,64.0,60.0,1.0,0.0
2900,57.0,64.0,60.0,0.0,0.0
2901,45.0,0.0,60.0,1.0,0.0
2902,53.0,0.0,60.0,0.0,0.0
2903,41.0,64.0,60.0,1.0,0.0
2904,57.0,0.0,60.0,0.0,0.0
2905,45.0,64.0,60.0,1.0,0.0
2906,60.0,64.0,60.0,0.0,0.0
2907,48.0,0.0,60.0,1.0,0.0
2908,51.0,0.0,60.0,1.0,0.0
2909,63.0,64.0,60.0,0.0,0.0
2910,66.0,64.0,60.0,0.0,0.0
2911,54.0,0.0,60.0,1.0,0.0
2912,63.0,0.0,60.0,0.0,0.0
2913,51.0,64.0,60.0,1.0,0.0
2914,60.0,0.0,60.0,0.0,0.0
2915,48.0,64.0,60.0,1.0,0.0
2916,58.0,0.0,60.0,0.0,0.0
2917,46.0,64.0,60.0,1.0,0.0
2918,41.0,64.0,60.0,1.0,0.0
2919,53.0,0.0,60.0,0.0,0.0
2920,58.0,0.0,60.0,0.0,0.0
2921,46.0,64.0,60.0,1.0,0.0
2922,61.0,0.0,60.0,0.0,0.0
2923,49.0,64.0,60.0,1.0,0.0
2924,65.0,0.0,60.0,0.0,0.0
2925,53.0,64.0,60.0,1.0,0.0
2926,70.0,0.0,60.0,0.0,0.0
2927,58.0,64.0,60.0,1.0,0.0
2928,65.0,64.0,60.0,0.0,0.0
2929,53.0,0.0,60.0,1.0,0.0
2930,61.0,0.0,60.0,0.0,0.0
2931,49.0,64.0,60.0,1.0,0.0
2932,58.0,0.0,60.0,0.0,0.0
2933,46.0,64.0,60.0,1.0,0.0
2934,53.0,64.0,60.0,0.0,0.0
2935,41.0,0.0,60.0,1.0,0.0
2936,46.0,0.0,60.0,1.0,0.0
2937,58.0,64.0,60.0,0.0,0.0
2938,61.0,0.0,60.0,0.0,0.0
2939,49.0,64.0,60.0,1.0,0.0
2940,65.0,0.0,60.0,0.0,0.0
2941,53.0,64.0,60.0,1.0,0.0
2942,70.0,64.0,60.0,0.0,0.0
2943,58.0,0.0,60.0,1.0,0.0
2944,65.0,0.0,60.0,0.0,0.0
2945,53.0,64.0,60.0,1.0,0.0
2946,61.0,0.0,60.0,0.0,0.0
2947,49.0,64.0,60.0,1.0,0.0
2948,48.0,64.0,60.0,1.0,0.0
2949,45.0,64.0,60.0,1.0,0.0
2950,48.0,64.0,60.0,1.0,0.0
2951,51.0,64.0,60.0,1.0,0.0
2952,54.0,64.0,60.0,1.0,0.0
2953,57.0,64.0,60.0,1.0,0.0
2954,54.0,64.0,60.0,1.0,0.0
2955,51.0,64.0,60.0,1.0,0.0
2956,48.0,64.0,60.0,1.0,0.0
2957,45.0,64.0,60.0,1.0,0.0
2958,48.0,64.0,60.0,1.0,0.0
2959,51.0,64.0,60.0,1.0,0.0
2960,54.0,64.0,60.0,1.0,0.0
2961,57.0,64.0,60.0,1.0,0.0
2962,54.0,64.0,60.0,1.0,0.0
2963,51.0,64.0,60.0,1.0,0.0
2964,49.0,64.0,60.0,1.0,0.0
2965,46.0,64.0,60.0,1.0,0.0
2966,49.0,64.0,60.0,1.0,0.0
2967,53.0,64.0,60.0,1.0,0.0
2968,58.0,64.0,60.0,1.0,0.0
2969,61.0,64.0,60.0,1.0,0.0
2970,58.0,64.0,60.0,1.0,0.0
2971,53.0,64.0,60.0,1.0,0.0
2972,49.0,64.0,60.0,1.0,0.0
2973,46.0,64.0,60.0,1.0,0.0
2974,49.0,64.0,60.0,1.0,0.0
2975,53.0,64.0,60.0,1.0,0.0
2976,58.0,64.0,60.0,1.0,0.0
2977,61.0,64.0,60.0,1.0,0.0
2978,58.0,64.0,60.0,1.0,0.0
2979,53.0,64.0,60.0,1.0,0.0
2980,60.0,0.0,60.0,0.0,0.0
2981,48.0,64.0,60.0,1.0,0.0
2982,57.0,64.0,60.0,0.0,0.0
2983,45.0,0.0,60.0,1.0,0.0
2984,60.0,0.0,60.0,0.0,0.0
2985,48.0,64.0,60.0,1.0,0.0
2986,63.0,0.0,60.0,0.0,0.0
2987,51.0,64.0,60.0,1.0,0.0
2988,66.0,64.0,60.0,0.0,0.0
2989,54.0,0.0,60.0,1.0,0.0
2990,57.0,0.0,60.0,1.0,0.0
2991,69.0,64.0,60.0,0.0,0.0
2992,66.0,0.0,60.0,0.0,0.0
2993,54.0,64.0,60.0,1.0,0.0
2994,63.0,0.0,60.0,0.0,0.0
2995,51.0,64.0,60.0,1.0,0.0
2996,60.0,64.0,60.0,0.0,0.0
2997,48.0,0.0,60.0,1.0,0.0
2998,45.0,64.0,60.0,1.0,0.0
2999,57.0,0.0,60.0,0.0,0.0
3000,48.0,64.0,60.0,1.0,0.0
3001,60.0,0.0,60.0,0.0,0.0
3002,63.0,64.0,60.0,0.0,0.0
3003,51.0,0.0,60.0,1.0,0.0
3004,66.0,0.0,60.0,0.0,0.0
3005,54.0,64.0,60.0,1.0,0.0
3006,69.0,64.0,60.0,0.0,0.0
3007,57.0,0.0,60.0,1.0,0.0
3008,66.0,0.0,60.0,0.0,0.0
3009,54.0,64.0,60.0,1.0,0.0
3010,63.0,0.0,60.0,0.0,0.0
3011,51.0,64.0,60.0,1.0,0.0
3012,61.0,0.0,60.0,0.0,0.0
3013,49.0,64.0,60.0,1.0,0.0
3014,58.0,0.0,60.0,0.0,0.0
3015,46.0,64.0,60.0,1.0,0.0
3016,61.0,0.0,60.0,0.0,0.0
3017,49.0,64.0,60.0,1.0,0.0
3018,65.0,0.0,60.0,0.0,0.0
3019,53.0,64.0,60.0,1.0,0.0
3020,70.0,64.0,60.0,0.0,0.0
3021,58.0,0.0,60.0,1.0,0.0
3022,73.0,64.0,60.0,0.0,0.0
3023,61.0,0.0,60.0,1.0,0.0
3024,58.0,64.0,60.0,1.0,0.0
3025,70.0,0.0,60.0,0.0,0.0
3026,65.0,64.0,60.0,0.0,0.0
3027,53.0,0.0,60.0,1.0,0.0
3028,49.0,0.0,60.0,1.0,0.0
3029,61.0,64.0,60.0,0.0,0.0
3030,58.0,0.0,60.0,0.0,0.0
3031,46.0,64.0,60.0,1.0,0.0
3032,61.0,64.0,60.0,0.0,0.0
3033,49.0,0.0,60.0,1.0,0.0
3034,65.0,0.0,60.0,0.0,0.0
3035,53.0,64.0,60.0,1.0,0.0
3036,70.0,0.0,60.0,0.0,0.0
3037,58.0,64.0,60.0,1.0,0.0
3038,61.0,64.0,60.0,1.0,0.0
3039,73.0,0.0,60.0,0.0,0.0
3040,70.0,64.0,60.0,0.0,0.0
3041,58.0,0.0,60.0,1.0,0.0
3042,65.0,0.0,60.0,0.0,0.0
3043,53.0,64.0,60.0,1.0,0.0
3044,63.0,0.0,60.0,0.0,0.0
3045,51.0,64.0,60.0,1.0,0.0
3046,60.0,0.0,60.0,0.0,0.0
3047,48.0,64.0,60.0,1.0,0.0
3048,63.0,64.0,60.0,0.0,0.0
3049,51.0,0.0,60.0,1.0,0.0
3050,66.0,0.0,60.0,0.0,0.0
3051,54.0,64.0,60.0,1.0,0.0
3052,69.0,0.0,60.0,0.0,0.0
3053,57.0,64.0,60.0,1.0,0.0
3054,72.0,64.0,60.0,0.0,0.0
3055,60.0,0.0,60.0,1.0,0.0
3056,69.0,0.0,60.0,0.0,0.0
3057,57.0,64.0,60.0,1.0,0.0
3058,66.0,64.0,60.0,0.0,0.0
3059,54.0,0.0,60.0,1.0,0.0
3060,51.0,64.0,60.0,1.0,0.0
3061,63.0,0.0,60.0,0.0,0.0
3062,60.0,0.0,60.0,0.0,0.0
3063,48.0,64.0,60.0,1.0,0.0
3064,51.0,64.0,60.0,1.0,0.0
3065,63.0,0.0,60.0,0.0,0.0
3066,66.0,0.0,60.0,0.0,0.0
3067,54.0,64.0,60.0,1.0,0.0
3068,69.0,64.0,60.0,0.0,0.0
3069,57.0,0.0,60.0,1.0,0.0
3070,60.0,64.0,60.0,1.0,0.0
3071,72.0,0.0,60.0,0.0,0.0
3072,69.0,0.0,60.0,0.0,0.0
3073,57.0,64.0,60.0,1.0,0.0
3074,66.0,64.0,60.0,0.0,0.0
3075,54.0,0.0,60.0,1.0,0.0
3076,53.0,64.0,60.0,1.0,0.0
3077,65.0,0.0,60.0,0.0,0.0
3078,49.0,0.0,60.0,1.0,0.0
3079,61.0,64.0,60.0,1.0,0.0
3080,73.0,0.0,60.0,0.0,0.0
3081,77.0,0.0,60.0,0.0,0.0
3082,53.0,64.0,60.0,1.0,0.0
3083,81.0,64.0,60.0,0.0,0.0
3084,57.0,0.0,60.0,1.0,0.0
3085,82.0,0.0,60.0,0.0,0.0
3086,58.0,64.0,60.0,1.0,0.0
3087,85.0,0.0,60.0,0.0,0.0
3088,61.0,64.0,60.0,1.0,0.0
3089,82.0,64.0,60.0,0.0,0.0
3090,58.0,0.0,60.0,1.0,0.0
3091,77.0,0.0,60.0,0.0,0.0
3092,53.0,0.0,60.0,1.0,0.0
3093,65.0,64.0,60.0,1.0,0.0
3094,78.0,64.0,60.0,0.0,0.0
3095,66.0,13.0,180.0,1.0,0.0
3096,54.0,0.0,60.0,1.0,0.0
3097,70.0,0.0,60.0,0.0,0.0
3098,82.0,0.0,60.0,0.0,0.0
3099,58.0,51.0,60.0,1.0,0.0
3100,78.0,0.0,60.0,0.0,0.0
3101,54.0,64.0,60.0,1.0,0.0
3102,75.0,0.0,60.0,0.0,0.0
3103,51.0,64.0,60.0,1.0,0.0
3104,63.0,0.0,60.0,1.0,0.0
3105,73.0,0.0,60.0,0.0,0.0
3106,61.0,13.0,180.0,1.0,0.0
3107,49.0,64.0,60.0,1.0,0.0
3108,65.0,51.0,60.0,0.0,0.0
3109,77.0,0.0,60.0,0.0,0.0
3110,53.0,0.0,60.0,1.0,0.0
3111,73.0,0.0,60.0,0.0,0.0
3112,49.0,64.0,60.0,1.0,0.0
3113,70.0,0.0,60.0,0.0,0.0
3114,58.0,0.0,60.0,1.0,0.0
3115,46.0,64.0,60.0,1.0,0.0
3116,41.0,58.0,60.0,1.0,0.0
3117,53.0,6.0,120.0,1.0,0.0
3118,65.0,0.0,60.0,0.0,0.0
3119,58.0,0.0,60.0,0.0,0.0
3120,70.0,0.0,60.0,0.0,0.0
3121,46.0,64.0,60.0,1.0,0.0
3122,65.0,64.0,60.0,0.0,0.0
3123,41.0,0.0,60.0,1.0,0.0
3124,37.0,64.0,60.0,1.0,0.0
3125,61.0,0.0,60.0,0.0,0.0
3126,58.0,0.0,60.0,0.0,0.0
3127,34.0,64.0,60.0,1.0,0.0
3128,46.0,0.0,60.0,1.0,0.0
3129,70.0,64.0,60.0,0.0,0.0
3130,69.0,0.0,60.0,0.0,0.0
3131,45.0,64.0,60.0,1.0,0.0
3132,67.0,0.0,60.0,0.0,0.0
3133,43.0,38.0,60.0,1.0,0.0
3134,69.0,0.0,30.0,0.0,0.0
3135,45.0,0.0,30.0,1.0,0.0
3136,57.0,90.0,30.0,1.0,0.0
3137,54.0,64.0,60.0,1.0,0.0
3138,66.0,0.0,60.0,0.0,0.0
3139,78.0,0.0,60.0,0.0,0.0
3140,53.0,64.0,60.0,1.0,0.0
3141,65.0,0.0,60.0,0.0,0.0
3142,77.0,0.0,60.0,0.0,0.0
3143,75.0,0.0,60.0,0.0,0.0
3144,51.0,38.0,60.0,1.0,0.0
3145,63.0,0.0,60.0,0.0,0.0
3146,61.0,0.0,30.0,0.0,0.0
3147,73.0,0.0,30.0,0.0,0.0
3148,49.0,90.0,30.0,1.0,0.0
3149,75.0,0.0,60.0,0.0,0.0
3150,51.0,64.0,60.0,1.0,0.0
3151,63.0,0.0,60.0,0.0,0.0
3152,73.0,0.0,60.0,0.0,0.0
3153,61.0,64.0,60.0,0.0,0.0
3154,49.0,0.0,60.0,1.0,0.0
3155,48.0,64.0,60.0,1.0,0.0
3156,60.0,0.0,60.0,0.0,0.0
3157,72.0,0.0,60.0,0.0,0.0
3158,58.0,0.0,60.0,0.0,0.0
3159,46.0,0.0,60.0,1.0,0.0
3160,70.0,38.0,60.0,0.0,0.0
3161,66.0,0.0,30.0,0.0,0.0
3162,42.0,0.0,30.0,1.0,0.0
3163,54.0,64.0,30.0,1.0,0.0
3164,65.0,64.0,30.0,0.0,0.0
3165,41.0,0.0,30.0,1.0,0.0
3166,53.0,0.0,30.0,1.0,0.0
3167,63.0,0.0,30.0,0.0,0.0
3168,39.0,0.0,30.0,1.0,0.0
3169,51.0,64.0,30.0,1.0,0.0
3170,61.0,0.0,30.0,0.0,0.0
3171,37.0,64.0,30.0,1.0,0.0
3172,49.0,0.0,30.0,1.0,0.0
3173,63.0,64.0,30.0,0.0,0.0
3174,39.0,0.0,30.0,1.0,0.0
3175,51.0,0.0,30.0,1.0,0.0
3176,61.0,0.0,30.0,0.0,0.0
3177,37.0,0.0,30.0,1.0,0.0
3178,49.0,64.0,30.0,1.0,0.0
3179,48.0,0.0,30.0,1.0,0.0
3180,60.0,0.0,30.0,0.0,0.0
3181,36.0,90.0,30.0,1.0,0.0
3182,58.0,0.0,60.0,0.0,0.0
3183,46.0,0.0,60.0,1.0,0.0
3184,34.0,35.0,60.0,1.0,0.0
3185,60.0,0.0,30.0,0.0,0.0
3186,36.0,32.0,30.0,1.0,0.0
3187,61.0,0.0,30.0,0.0,0.0
3188,37.0,32.0,30.0,1.0,0.0
3189,63.0,0.0,30.0,0.0,0.0
3190,39.0,32.0,30.0,1.0,0.0
3191,65.0,0.0,30.0,0.0,0.0
3192,41.0,32.0,30.0,1.0,0.0
3193,67.0,0.0,30.0,0.0,0.0
3194,43.0,32.0,30.0,1.0,0.0
3195,69.0,0.0,30.0,0.0,0.0
3196,45.0,61.0,30.0,1.0,0.0
3197,70.0,0.0,60.0,0.0,0.0
3198,46.0,64.0,60.0,1.0,0.0
3199,73.0,0.0,60.0,0.0,0.0
3200,49.0,64.0,60.0,1.0,0.0
3201,72.0,0.0,60.0,0.0,0.0
3202,48.0,64.0,60.0,1.0,0.0
3203,46.0,64.0,60.0,1.0,0.0
3204,70.0,0.0,60.0,0.0,0.0
3205,65.0,0.0,60.0,0.0,0.0
3206,77.0,0.0,60.0,0.0,0.0
3207,41.0,35.0,60.0,1.0,0.0
3208,67.0,0.0,30.0,0.0,0.0
3209,43.0,32.0,30.0,1.0,0.0
3210,45.0,32.0,30.0,1.0,0.0
3211,69.0,0.0,30.0,0.0,0.0
3212,70.0,0.0,30.0,0.0,0.0
3213,46.0,32.0,30.0,1.0,0.0
3214,72.0,32.0,30.0,0.0,0.0
3215,48.0,0.0,30.0,1.0,0.0
3216,73.0,32.0,30.0,0.0,0.0
3217,49.0,0.0,30.0,1.0,0.0
3218,75.0,0.0,30.0,0.0,0.0
3219,51.0,61.0,30.0,1.0,0.0
3220,65.0,0.0,60.0,0.0,0.0
3221,53.0,64.0,60.0,1.0,0.0
3222,77.0,0.0,60.0,0.0,0.0
3223,72.0,0.0,60.0,1.0,0.0
3224,63.0,0.0,60.0,1.0,0.0
3225,75.0,64.0,60.0,0.0,0.0
3226,84.0,0.0,60.0,0.0,0.0
3227,73.0,0.0,60.0,0.0,0.0
3228,82.0,64.0,60.0,0.0,0.0
3229,61.0,0.0,60.0,1.0,0.0
3230,70.0,0.0,60.0,1.0,0.0
3231,72.0,0.0,60.0,0.0,0.0
3232,81.0,0.0,60.0,0.0,0.0
3233,60.0,0.0,60.0,1.0,0.0
3234,69.0,64.0,60.0,1.0,0.0
3235,61.0,35.0,60.0,1.0,0.0
3236,73.0,0.0,60.0,0.0,0.0
3237,82.0,0.0,60.0,0.0,0.0
3238,70.0,0.0,60.0,1.0,0.0
3239,83.0,0.0,30.0,0.0,0.0
3240,71.0,32.0,30.0,1.0,0.0
3241,82.0,0.0,30.0,0.0,0.0
3242,70.0,32.0,30.0,1.0,0.0
3243,80.0,32.0,30.0,0.0,0.0
3244,68.0,0.0,30.0,1.0,0.0
3245,78.0,0.0,30.0,0.0,0.0
3246,66.0,32.0,30.0,1.0,0.0
3247,77.0,0.0,30.0,0.0,0.0
3248,65.0,32.0,30.0,1.0,0.0
3249,75.0,0.0,30.0,0.0,0.0
3250,63.0,119.0,30.0,1.0,0.0
3251,62.0,6.0,120.0,1.0,0.0
3252,74.0,0.0,120.0,0.0,0.0
3253,59.0,64.0,60.0,1.0,0.0
3254,71.0,0.0,60.0,0.0,0.0
3255,58.0,0.0,60.0,1.0,0.0
3256,77.0,0.0,240.0,0.0,0.0
3257,70.0,64.0,60.0,0.0,0.0
3258,65.0,6.0,240.0,1.0,0.0
3259,56.0,0.0,60.0,1.0,0.0
3260,68.0,64.0,60.0,0.0,0.0
3261,66.0,0.0,120.0,0.0,0.0
3262,54.0,58.0,60.0,1.0,0.0
3263,39.0,64.0,60.0,1.0,0.0
3264,51.0,0.0,60.0,1.0,0.0
3265,49.0,58.0,60.0,1.0,0.0
3266,37.0,0.0,60.0,1.0,0.0
3267,63.0,0.0,120.0,1.0,0.0
3268,75.0,0.0,120.0,0.0,0.0
3269,67.0,6.0,120.0,0.0,0.0
3270,39.0,64.0,60.0,1.0,0.0
3271,51.0,0.0,60.0,1.0,0.0
3272,80.0,0.0,120.0,0.0,0.0
3273,47.0,0.0,60.0,1.0,0.0
3274,68.0,0.0,120.0,0.0,0.0
3275,35.0,58.0,60.0,1.0,0.0
3276,75.0,6.0,120.0,0.0,0.0
3277,39.0,0.0,60.0,1.0,0.0
3278,51.0,64.0,60.0,1.0,0.0
3279,67.0,0.0,120.0,0.0,0.0
3280,79.0,0.0,120.0,0.0,0.0
3281,75.0,6.0,120.0,0.0,0.0
3282,34.0,0.0,60.0,1.0,0.0
3283,46.0,58.0,60.0,1.0,0.0
3284,51.0,44.0,60.0,1.0,0.0
3285,39.0,0.0,60.0,1.0,0.0
3286,71.0,0.0,120.0,0.0,0.0
3287,83.0,6.0,120.0,0.0,0.0
3288,44.0,23.0,60.0,1.0,0.0
3289,32.0,0.0,60.0,1.0,0.0
3290,75.0,20.0,30.0,0.0,0.0
3291,76.0,35.0,30.0,0.0,0.0
3292,39.0,2.0,60.0,1.0,0.0
3293,51.0,0.0,60.0,1.0,0.0
3294,75.0,42.0,30.0,0.0,0.0
3295,70.0,0.0,120.0,0.0,0.0
3296,82.0,6.0,120.0,0.0,0.0
3297,76.0,20.0,30.0,0.0,0.0
3298,31.0,0.0,60.0,1.0,0.0
3299,43.0,23.0,60.0,1.0,0.0
3300,75.0,35.0,30.0,0.0,0.0
3301,39.0,0.0,60.0,1.0,0.0
3302,51.0,2.0,60.0,1.0,0.0
3303,76.0,42.0,30.0,0.0,0.0
3304,71.0,0.0,120.0,0.0,0.0
3305,83.0,6.0,120.0,0.0,0.0
3306,75.0,20.0,30.0,0.0,0.0
3307,32.0,0.0,60.0,1.0,0.0
3308,44.0,23.0,60.0,1.0,0.0
3309,76.0,35.0,30.0,0.0,0.0
3310,39.0,0.0,60.0,1.0,0.0
3311,51.0,2.0,60.0,1.0,0.0
3312,75.0,42.0,30.0,0.0,0.0
3313,34.0,0.0,60.0,1.0,0.0
3314,46.0,23.0,60.0,1.0,0.0
3315,67.0,0.0,120.0,0.0,0.0
3316,79.0,6.0,120.0,0.0,0.0
3317,76.0,20.0,30.0,0.0,0.0
3318,75.0,35.0,30.0,0.0,0.0
3319,39.0,0.0,60.0,1.0,0.0
3320,51.0,2.0,60.0,1.0,0.0
3321,76.0,42.0,30.0,0.0,0.0
3322,75.0,20.0,30.0,0.0,0.0
3323,35.0,0.0,60.0,1.0,0.0
3324,47.0,23.0,60.0,1.0,0.0
3325,68.0,0.0,120.0,0.0,0.0
3326,80.0,6.0,120.0,0.0,0.0
3327,76.0,35.0,30.0,0.0,0.0
3328,39.0,0.0,60.0,1.0,0.0
3329,51.0,2.0,60.0,1.0,0.0
3330,75.0,42.0,30.0,0.0,0.0
3331,79.0,6.0,120.0,0.0,0.0
3332,76.0,20.0,30.0,0.0,0.0
3333,27.0,23.0,60.0,1.0,0.0
3334,39.0,0.0,60.0,1.0,0.0
3335,67.0,0.0,120.0,0.0,0.0
3336,75.0,35.0,30.0,0.0,0.0
3337,39.0,0.0,60.0,1.0,0.0
3338,51.0,2.0,60.0,1.0,0.0
3339,76.0,42.0,30.0,0.0,0.0
3340,68.0,0.0,120.0,0.0,0.0
3341,80.0,6.0,120.0,0.0,0.0
3342,41.0,23.0,60.0,1.0,0.0
3343,75.0,20.0,30.0,0.0,0.0
3344,29.0,0.0,60.0,1.0,0.0
3345,76.0,35.0,30.0,0.0,0.0
3346,39.0,2.0,60.0,1.0,0.0
3347,51.0,0.0,60.0,1.0,0.0
3348,75.0,42.0,30.0,0.0,0.0
3349,70.0,0.0,120.0,0.0,0.0
3350,82.0,6.0,120.0,0.0,0.0
3351,76.0,20.0,30.0,0.0,0.0
3352,31.0,23.0,60.0,1.0,0.0
3353,43.0,0.0,60.0,1.0,0.0
3354,75.0,35.0,30.0,0.0,0.0
3355,51.0,2.0,60.0,1.0,0.0
3356,39.0,0.0,60.0,1.0,0.0
3357,76.0,42.0,30.0,0.0,0.0
3358,71.0,0.0,120.0,0.0,0.0
3359,83.0,6.0,120.0,0.0,0.0
3360,75.0,20.0,30.0,0.0,0.0
3361,32.0,23.0,60.0,1.0,0.0
3362,44.0,0.0,60.0,1.0,0.0
3363,76.0,35.0,30.0,0.0,0.0
3364,39.0,0.0,60.0,1.0,0.0
3365,51.0,2.0,60.0,1.0,0.0
3366,75.0,42.0,30.0,0.0,0.0
3367,43.0,23.0,60.0,1.0,0.0
3368,31.0,0.0,60.0,1.0,0.0
3369,82.0,6.0,120.0,0.0,0.0
3370,76.0,20.0,30.0,0.0,0.0
3371,70.0,0.0,120.0,0.0,0.0
3372,75.0,35.0,30.0,0.0,0.0
3373,39.0,2.0,60.0,1.0,0.0
3374,51.0,0.0,60.0,1.0,0.0
3375,76.0,42.0,30.0,0.0,0.0
3376,83.0,6.0,120.0,0.0,0.0
3377,75.0,20.0,30.0,0.0,0.0
3378,32.0,0.0,60.0,1.0,0.0
3379,44.0,23.0,60.0,1.0,0.0
3380,71.0,0.0,120.0,0.0,0.0
3381,76.0,35.0,30.0,0.0,0.0
3382,51.0,2.0,60.0,1.0,0.0
3383,39.0,0.0,60.0,1.0,0.0
3384,75.0,42.0,30.0,0.0,0.0
3385,34.0,0.0,60.0,1.0,0.0
3386,76.0,20.0,30.0,0.0,0.0
3387,46.0,23.0,60.0,1.0,0.0
3388,73.0,0.0,120.0,0.0,0.0
3389,85.0,6.0,120.0,0.0,0.0
3390,75.0,35.0,30.0,0.0,0.0
3391,39.0,2.0,60.0,1.0,0.0
3392,51.0,0.0,60.0,1.0,0.0
3393,76.0,42.0,30.0,0.0,0.0
3394,75.0,20.0,30.0,0.0,0.0
3395,47.0,0.0,120.0,1.0,0.0
3396,35.0,23.0,60.0,1.0,0.0
3397,87.0,6.0,120.0,0.0,0.0
3398,76.0,35.0,30.0,0.0,0.0
3399,51.0,2.0,60.0,1.0,0.0
3400,75.0,42.0,30.0,0.0,0.0
3401,73.0,6.0,120.0,0.0,0.0
3402,76.0,20.0,30.0,0.0,0.0
3403,61.0,0.0,120.0,1.0,0.0
3404,46.0,23.0,60.0,1.0,0.0
3405,75.0,35.0,30.0,0.0,0.0
3406,51.0,2.0,60.0,1.0,0.0
3407,76.0,42.0,30.0,0.0,0.0
3408,59.0,6.0,120.0,1.0,0.0
3409,75.0,20.0,30.0,0.0,0.0
3410,71.0,0.0,120.0,0.0,0.0
3411,44.0,23.0,60.0,1.0,0.0
3412,76.0,35.0,30.0,0.0,0.0
3413,51.0,2.0,60.0,1.0,0.0
3414,75.0,42.0,30.0,0.0,0.0
3415,70.0,0.0,120.0,0.0,0.0
3416,76.0,20.0,30.0,0.0,0.0
3417,58.0,6.0,120.0,1.0,0.0
3418,43.0,23.0,60.0,1.0,0.0
3419,75.0,35.0,30.0,0.0,0.0
3420,51.0,2.0,60.0,1.0,0.0
3421,76.0,42.0,30.0,0.0,0.0
3422,44.0,23.0,60.0,1.0,0.0
3423,68.0,0.0,120.0,0.0,0.0
3424,75.0,20.0,30.0,0.0,0.0
3425,56.0,6.0,120.0,1.0,0.0
3426,76.0,35.0,30.0,0.0,0.0
3427,51.0,2.0,60.0,1.0,0.0
3428,75.0,42.0,30.0,0.0,0.0
3429,67.0,0.0,120.0,0.0,0.0
3430,76.0,20.0,30.0,0.0,0.0
3431,58.0,6.0,120.0,1.0,0.0
3432,46.0,0.0,60.0,1.0,0.0
3433,55.0,23.0,60.0,1.0,0.0
3434,75.0,35.0,30.0,0.0,0.0
3435,51.0,2.0,60.0,1.0,0.0
3436,76.0,42.0,30.0,0.0,0.0
3437,68.0,0.0,120.0,0.0,0.0
3438,75.0,20.0,30.0,0.0,0.0
3439,59.0,6.0,120.0,1.0,0.0
3440,47.0,23.0,60.0,1.0,0.0
3441,56.0,0.0,60.0,1.0,0.0
3442,76.0,35.0,30.0,0.0,0.0
3443,51.0,2.0,60.0,1.0,0.0
3444,75.0,42.0,30.0,0.0,0.0
3445,70.0,0.0,120.0,0.0,0.0
3446,76.0,20.0,30.0,0.0,0.0
3447,61.0,8.0,120.0,1.0,0.0
3448,49.0,0.0,60.0,1.0,0.0
3449,58.0,23.0,60.0,1.0,0.0
3450,75.0,35.0,30.0,0.0,0.0
3451,51.0,23.0,120.0,1.0,0.0
3452,76.0,42.0,30.0,0.0,0.0
3453,63.0,6.0,120.0,1.0,0.0
3454,59.0,0.0,120.0,1.0,0.0
3455,71.0,0.0,120.0,0.0,0.0
3456,75.0,20.0,30.0,0.0,0.0
3457,76.0,35.0,30.0,0.0,0.0
3458,51.0,2.0,60.0,1.0,0.0
3459,75.0,42.0,30.0,0.0,0.0
3460,63.0,0.0,120.0,0.0,0.0
3461,55.0,6.0,120.0,1.0,0.0
3462,76.0,20.0,30.0,0.0,0.0
3463,43.0,23.0,60.0,1.0,0.0
3464,75.0,35.0,30.0,0.0,0.0
3465,51.0,2.0,60.0,1.0,0.0
3466,76.0,42.0,30.0,0.0,0.0
3467,53.0,23.0,60.0,1.0,0.0
3468,44.0,0.0,60.0,1.0,0.0
3469,77.0,6.0,120.0,0.0,0.0
3470,75.0,20.0,30.0,0.0,0.0
3471,56.0,0.0,120.0,1.0,0.0
3472,65.0,0.0,120.0,0.0,0.0
3473,76.0,35.0,30.0,0.0,0.0
3474,51.0,2.0,60.0,1.0,0.0
3475,75.0,42.0,30.0,0.0,0.0
3476,79.0,0.0,120.0,0.0,0.0
3477,76.0,20.0,30.0,0.0,0.0
3478,58.0,0.0,120.0,1.0,0.0
3479,46.0,0.0,60.0,1.0,0.0
3480,55.0,23.0,60.0,1.0,0.0
3481,67.0,6.0,120.0,0.0,0.0
3482,75.0,35.0,30.0,0.0,0.0
3483,51.0,2.0,60.0,1.0,0.0
3484,76.0,42.0,30.0,0.0,0.0
3485,68.0,0.0,120.0,0.0,0.0
3486,80.0,0.0,120.0,0.0,0.0
3487,75.0,20.0,30.0,0.0,0.0
3488,59.0,6.0,120.0,1.0,0.0
3489,47.0,0.0,60.0,1.0,0.0
3490,56.0,23.0,60.0,1.0,0.0
3491,76.0,35.0,30.0,0.0,0.0
3492,51.0,2.0,60.0,1.0,0.0
3493,75.0,42.0,30.0,0.0,0.0
3494,79.0,0.0,120.0,0.0,0.0
3495,76.0,20.0,30.0,0.0,0.0
3496,58.0,6.0,120.0,1.0,0.0
3497,46.0,0.0,60.0,1.0,0.0
3498,55.0,23.0,60.0,1.0,0.0
3499,67.0,0.0,120.0,0.0,0.0
3500,75.0,35.0,30.0,0.0,0.0
3501,51.0,2.0,60.0,1.0,0.0
3502,76.0,42.0,30.0,0.0,0.0
3503,68.0,0.0,120.0,0.0,0.0
3504,80.0,0.0,120.0,0.0,0.0
3505,75.0,20.0,30.0,0.0,0.0
3506,59.0,6.0,120.0,1.0,0.0
3507,47.0,0.0,60.0,1.0,0.0
3508,56.0,23.0,60.0,1.0,0.0
3509,76.0,35.0,30.0,0.0,0.0
3510,51.0,2.0,60.0,1.0,0.0
3511,75.0,42.0,30.0,0.0,0.0
3512,70.0,8.0,120.0,0.0,0.0
3513,82.0,0.0,120.0,0.0,0.0
3514,76.0,20.0,30.0,0.0,0.0
3515,58.0,23.0,60.0,1.0,0.0
3516,61.0,0.0,120.0,1.0,0.0
3517,49.0,0.0,60.0,1.0,0.0
3518,75.0,35.0,30.0,0.0,0.0
3519,51.0,0.0,180.0,1.0,0.0
3520,76.0,62.0,30.0,0.0,0.0
3521,71.0,0.0,60.0,0.0,0.0
3522,83.0,58.0,60.0,0.0,0.0
3523,59.0,6.0,120.0,1.0,0.0
3524,63.0,0.0,120.0,1.0,0.0
3525,87.0,64.0,60.0,0.0,0.0
3526,85.0,58.0,60.0,0.0,0.0
3527,75.0,0.0,120.0,0.0,0.0
3528,82.0,0.0,120.0,0.0,0.0
3529,34.0,0.0,120.0,1.0,0.0
3530,43.0,6.0,120.0,1.0,0.0
3531,31.0,0.0,120.0,1.0,0.0
3532,87.0,64.0,60.0,0.0,0.0
3533,44.0,6.0,120.0,1.0,0.0
3534,35.0,0.0,120.0,1.0,0.0
3535,32.0,0.0,120.0,1.0,0.0
3536,75.0,0.0,60.0,0.0,0.0
3537,83.0,58.0,60.0,0.0,0.0
3538,76.0,64.0,60.0,0.0,0.0
3539,85.0,0.0,60.0,0.0,0.0
3540,82.0,58.0,60.0,0.0,0.0
3541,34.0,0.0,120.0,1.0,0.0
3542,37.0,0.0,120.0,1.0,0.0
3543,46.0,6.0,120.0,1.0,0.0
3544,73.0,0.0,60.0,0.0,0.0
3545,83.0,64.0,60.0,0.0,0.0
3546,75.0,0.0,60.0,0.0,0.0
3547,47.0,6.0,120.0,1.0,0.0
3548,35.0,0.0,120.0,1.0,0.0
3549,80.0,58.0,60.0,0.0,0.0
3550,71.0,0.0,60.0,0.0,0.0
3551,39.0,0.0,120.0,1.0,0.0
3552,85.0,64.0,60.0,0.0,0.0
3553,83.0,58.0,60.0,0.0,0.0
3554,80.0,0.0,120.0,0.0,0.0
3555,29.0,0.0,120.0,1.0,0.0
3556,32.0,0.0,120.0,1.0,0.0
3557,41.0,6.0,120.0,1.0,0.0
3558,73.0,0.0,120.0,0.0,0.0
3559,85.0,64.0,60.0,0.0,0.0
3560,82.0,0.0,60.0,0.0,0.0
3561,30.0,6.0,120.0,1.0,0.0
3562,34.0,0.0,120.0,1.0,0.0
3563,42.0,0.0,120.0,1.0,0.0
3564,73.0,58.0,60.0,0.0,0.0
3565,83.0,0.0,60.0,0.0,0.0
3566,75.0,64.0,60.0,0.0,0.0
3567,44.0,6.0,120.0,1.0,0.0
3568,71.0,0.0,60.0,0.0,0.0
3569,32.0,0.0,120.0,1.0,0.0
3570,80.0,58.0,60.0,0.0,0.0
3571,35.0,0.0,120.0,1.0,0.0
3572,73.0,0.0,60.0,0.0,0.0
3573,82.0,64.0,60.0,0.0,0.0
3574,78.0,58.0,60.0,0.0,0.0
3575,34.0,0.0,120.0,1.0,0.0
3576,37.0,0.0,120.0,1.0,0.0
3577,46.0,6.0,120.0,1.0,0.0
3578,70.0,0.0,60.0,0.0,0.0
3579,83.0,64.0,60.0,0.0,0.0
3580,78.0,0.0,120.0,0.0,0.0
3581,71.0,0.0,120.0,0.0,0.0
3582,27.0,0.0,120.0,1.0,0.0
3583,39.0,6.0,120.0,1.0,0.0
3584,82.0,58.0,60.0,0.0,0.0
3585,30.0,0.0,120.0,1.0,0.0
3586,83.0,64.0,60.0,0.0,0.0
3587,41.0,6.0,120.0,1.0,0.0
3588,32.0,0.0,120.0,1.0,0.0
3589,29.0,0.0,120.0,1.0,0.0
3590,80.0,0.0,60.0,0.0,0.0
3591,71.0,58.0,60.0,0.0,0.0
3592,82.0,0.0,60.0,0.0,0.0
3593,73.0,64.0,60.0,0.0,0.0
3594,70.0,0.0,60.0,0.0,0.0
3595,78.0,58.0,60.0,0.0,0.0
3596,30.0,0.0,120.0,1.0,0.0
3597,34.0,0.0,120.0,1.0,0.0
3598,42.0,6.0,120.0,1.0,0.0
3599,71.0,64.0,60.0,0.0,0.0
3600,80.0,0.0,60.0,0.0,0.0
3601,77.0,58.0,60.0,0.0,0.0
3602,32.0,6.0,120.0,1.0,0.0
3603,35.0,0.0,120.0,1.0,0.0
3604,44.0,0.0,120.0,1.0,0.0
3605,68.0,0.0,60.0,0.0,0.0
3606,82.0,64.0,60.0,0.0,0.0
3607,80.0,58.0,60.0,0.0,0.0
3608,68.0,0.0,120.0,0.0,0.0
3609,74.0,6.0,120.0,0.0,0.0
3610,34.0,0.0,120.0,1.0,0.0
3611,46.0,0.0,120.0,1.0,0.0
3612,82.0,64.0,60.0,0.0,0.0
3613,78.0,6.0,120.0,0.0,0.0
3614,75.0,0.0,120.0,0.0,0.0
3615,66.0,58.0,60.0,0.0,0.0
3616,39.0,0.0,120.0,1.0,0.0
3617,51.0,0.0,120.0,1.0,0.0
3618,68.0,64.0,60.0,0.0,0.0
3619,65.0,58.0,60.0,0.0,0.0
3620,73.0,0.0,120.0,0.0,0.0
3621,77.0,0.0,120.0,0.0,0.0
3622,34.0,0.0,120.0,1.0,0.0
3623,46.0,6.0,120.0,1.0,0.0
3624,66.0,64.0,60.0,0.0,0.0
3625,47.0,6.0,120.0,1.0,0.0
3626,35.0,0.0,120.0,1.0,0.0
3627,75.0,58.0,60.0,0.0,0.0
3628,71.0,0.0,60.0,0.0,0.0
3629,63.0,0.0,120.0,0.0,0.0
3630,75.0,0.0,60.0,0.0,0.0
3631,78.0,64.0,60.0,0.0,0.0
3632,74.0,0.0,60.0,0.0,0.0
3633,70.0,0.0,120.0,0.0,0.0
3634,30.0,0.0,120.0,1.0,0.0
3635,42.0,6.0,120.0,1.0,0.0
3636,77.0,58.0,60.0,0.0,0.0
3637,75.0,64.0,60.0,0.0,0.0
3638,78.0,0.0,60.0,0.0,0.0
3639,41.0,6.0,120.0,1.0,0.0
3640,29.0,0.0,120.0,1.0,0.0
3641,77.0,0.0,60.0,0.0,0.0
3642,80.0,58.0,60.0,0.0,0.0
3643,68.0,0.0,120.0,0.0,0.0
3644,75.0,64.0,60.0,0.0,0.0
3645,78.0,0.0,60.0,0.0,0.0
3646,32.0,0.0,120.0,1.0,0.0
3647,77.0,58.0,60.0,0.0,0.0
3648,44.0,6.0,120.0,1.0,0.0
3649,65.0,0.0,120.0,0.0,0.0
3650,74.0,0.0,60.0,0.0,0.0
3651,72.0,122.0,60.0,0.0,0.0
3652,75.0,0.0,60.0,0.0,0.0
3653,34.0,0.0,2160.0,1.0,0.0
3654,74.0,6.0,120.0,0.0,0.0
3655,62.0,0.0,120.0,0.0,0.0
3656,70.0,0.0,60.0,0.0,0.0
3657,58.0,64.0,60.0,1.0,0.0
3658,65.0,0.0,120.0,0.0,0.0
3659,56.0,0.0,60.0,1.0,0.0
3660,77.0,6.0,120.0,0.0,0.0
3661,68.0,58.0,60.0,0.0,0.0
3662,70.0,0.0,60.0,0.0,0.0
3663,58.0,64.0,60.0,1.0,0.0
3664,54.0,0.0,60.0,1.0,0.0
3665,70.0,0.0,60.0,0.0,0.0
3666,82.0,64.0,60.0,0.0,0.0
3667,66.0,0.0,60.0,1.0,0.0
3668,75.0,0.0,60.0,0.0,0.0
3669,58.0,0.0,60.0,1.0,0.0
3670,63.0,64.0,60.0,1.0,0.0
3671,68.0,0.0,60.0,0.0,0.0
3672,53.0,0.0,60.0,1.0,0.0
3673,65.0,0.0,60.0,1.0,0.0
3674,80.0,64.0,60.0,0.0,0.0
3675,58.0,0.0,60.0,1.0,0.0
3676,62.0,64.0,60.0,1.0,0.0
3677,70.0,0.0,60.0,0.0,0.0
3678,74.0,0.0,60.0,0.0,0.0
3679,66.0,64.0,60.0,0.0,0.0
3680,78.0,0.0,60.0,0.0,0.0
3681,51.0,0.0,60.0,1.0,0.0
3682,63.0,0.0,60.0,1.0,0.0
3683,70.0,0.0,60.0,0.0,0.0
3684,75.0,0.0,60.0,0.0,0.0
3685,58.0,64.0,60.0,1.0,0.0
3686,70.0,0.0,60.0,0.0,0.0
3687,50.0,0.0,60.0,1.0,0.0
3688,82.0,0.0,60.0,0.0,0.0
3689,62.0,64.0,60.0,1.0,0.0
3690,77.0,0.0,60.0,0.0,0.0
3691,58.0,64.0,60.0,1.0,0.0
3692,63.0,64.0,60.0,1.0,0.0
3693,51.0,0.0,60.0,1.0,0.0
3694,78.0,0.0,60.0,0.0,0.0
3695,66.0,0.0,60.0,0.0,0.0
3696,70.0,0.0,60.0,0.0,0.0
3697,75.0,0.0,60.0,0.0,0.0
3698,58.0,64.0,60.0,1.0,0.0
3699,65.0,0.0,60.0,0.0,0.0
3700,62.0,0.0,60.0,1.0,0.0
3701,53.0,0.0,60.0,1.0,0.0
3702,77.0,64.0,60.0,0.0,0.0
3703,70.0,0.0,60.0,0.0,0.0
3704,74.0,0.0,60.0,0.0,0.0
3705,58.0,64.0,60.0,1.0,0.0
3706,75.0,0.0,60.0,0.0,0.0
3707,54.0,64.0,60.0,1.0,0.0
3708,63.0,0.0,60.0,1.0,0.0
3709,70.0,0.0,60.0,0.0,0.0
3710,82.0,0.0,60.0,0.0,0.0
3711,58.0,64.0,60.0,1.0,0.0
3712,74.0,0.0,60.0,0.0,0.0
3713,46.0,0.0,60.0,1.0,0.0
3714,50.0,64.0,60.0,1.0,0.0
3715,58.0,0.0,60.0,1.0,0.0
3716,70.0,64.0,60.0,0.0,0.0
3717,82.0,0.0,60.0,0.0,0.0
3718,58.0,0.0,60.0,1.0,0.0
3719,75.0,0.0,60.0,0.0,0.0
3720,48.0,0.0,60.0,1.0,0.0
3721,51.0,0.0,60.0,1.0,0.0
3722,60.0,64.0,60.0,1.0,0.0
3723,58.0,64.0,60.0,1.0,0.0
3724,82.0,0.0,60.0,0.0,0.0
3725,70.0,0.0,60.0,0.0,0.0
3726,77.0,0.0,60.0,0.0,0.0
3727,50.0,64.0,60.0,1.0,0.0
3728,53.0,0.0,60.0,1.0,0.0
3729,62.0,0.0,60.0,1.0,0.0
3730,70.0,0.0,60.0,0.0,0.0
3731,82.0,64.0,60.0,0.0,0.0
3732,58.0,0.0,60.0,1.0,0.0
3733,78.0,0.0,60.0,0.0,0.0
3734,51.0,0.0,60.0,1.0,0.0
3735,54.0,64.0,60.0,1.0,0.0
3736,63.0,0.0,60.0,1.0,0.0
3737,66.0,0.0,60.0,0.0,0.0
3738,75.0,0.0,60.0,0.0,0.0
3739,58.0,64.0,60.0,1.0,0.0
3740,82.0,0.0,60.0,0.0,0.0
3741,50.0,58.0,60.0,1.0,0.0
3742,70.0,0.0,60.0,0.0,0.0
3743,63.0,6.0,120.0,1.0,0.0
3744,53.0,0.0,60.0,1.0,0.0
3745,77.0,0.0,60.0,0.0,0.0
3746,58.0,64.0,60.0,1.0,0.0
3747,66.0,0.0,60.0,0.0,0.0
3748,78.0,0.0,60.0,0.0,0.0
3749,51.0,0.0,60.0,1.0,0.0
3750,54.0,58.0,60.0,1.0,0.0
3751,63.0,0.0,60.0,1.0,0.0
3752,66.0,6.0,120.0,1.0,0.0
3753,58.0,64.0,60.0,1.0,0.0
3754,75.0,0.0,60.0,0.0,0.0
3755,68.0,0.0,60.0,0.0,0.0
3756,53.0,0.0,60.0,1.0,0.0
3757,56.0,0.0,60.0,1.0,0.0
3758,65.0,58.0,60.0,1.0,0.0
3759,68.0,6.0,120.0,1.0,0.0
3760,80.0,0.0,60.0,0.0,0.0
3761,77.0,0.0,60.0,0.0,0.0
3762,58.0,64.0,60.0,1.0,0.0
3763,58.0,0.0,120.0,1.0,0.0
3764,66.0,0.0,120.0,1.0,0.0
3765,82.0,58.0,60.0,0.0,0.0
3766,54.0,6.0,120.0,1.0,0.0
3767,70.0,0.0,60.0,0.0,0.0
3768,68.0,64.0,60.0,0.0,0.0
3769,66.0,58.0,60.0,0.0,0.0
3770,53.0,0.0,120.0,1.0,0.0
3771,56.0,6.0,120.0,1.0,0.0
3772,65.0,64.0,60.0,0.0,0.0
3773,75.0,25.0,450.0,0.0,0.0
3774,63.0,13.0,240.0,1.0,0.0
3775,51.0,0.0,120.0,1.0,0.0
3776,54.0,6.0,120.0,1.0,0.0
3777,66.0,58.0,60.0,0.0,0.0
3778,65.0,64.0,60.0,0.0,0.0
3779,27.0,0.0,120.0,1.0,0.0
3780,39.0,70.0,120.0,1.0,0.0
3781,66.0,45.0,60.0,0.0,0.0
3782,63.0,13.0,300.0,0.0,0.0
3783,65.0,58.0,60.0,0.0,0.0
3784,32.0,0.0,120.0,1.0,0.0
3785,44.0,6.0,120.0,1.0,0.0
3786,66.0,64.0,60.0,0.0,0.0
3787,68.0,20.0,60.0,0.0,0.0
3788,29.0,0.0,120.0,1.0,0.0
3789,41.0,6.0,120.0,1.0,0.0
3790,70.0,64.0,60.0,0.0,0.0
3791,62.0,13.0,240.0,0.0,0.0
3792,74.0,0.0,240.0,0.0,0.0
3793,71.0,58.0,60.0,0.0,0.0
3794,34.0,0.0,120.0,1.0,0.0
3795,46.0,6.0,120.0,1.0,0.0
3796,70.0,64.0,60.0,0.0,0.0
3797,68.0,45.0,60.0,0.0,0.0
3798,22.0,6.0,120.0,1.0,0.0
3799,34.0,0.0,120.0,1.0,0.0
3800,70.0,64.0,60.0,0.0,0.0
3801,39.0,13.0,240.0,1.0,0.0
3802,27.0,0.0,240.0,1.0,0.0
3803,66.0,58.0,60.0,0.0,0.0
3804,63.0,0.0,120.0,0.0,0.0
3805,75.0,6.0,120.0,0.0,0.0
3806,68.0,64.0,60.0,0.0,0.0
3807,65.0,45.0,60.0,0.0,0.0
3808,53.0,6.0,120.0,0.0,0.0
3809,66.0,64.0,60.0,0.0,0.0
3810,54.0,58.0,60.0,0.0,0.0
3811,63.0,6.0,120.0,0.0,0.0
3812,65.0,64.0,60.0,0.0,0.0
3813,39.0,0.0,120.0,1.0,0.0
3814,55.0,6.0,120.0,0.0,0.0
3815,67.0,0.0,120.0,0.0,0.0
3816,27.0,0.0,120.0,1.0,0.0
3817,63.0,58.0,60.0,0.0,0.0
3818,61.0,64.0,60.0,0.0,0.0
3819,44.0,0.0,360.0,1.0,0.0
3820,32.0,26.0,360.0,1.0,0.0
3821,68.0,0.0,60.0,0.0,0.0
3822,56.0,0.0,60.0,0.0,0.0
3823,59.0,64.0,60.0,0.0,0.0
3824,71.0,0.0,60.0,0.0,0.0
3825,59.0,64.0,60.0,1.0,0.0
3826,61.0,0.0,60.0,1.0,0.0
3827,73.0,51.0,60.0,0.0,0.0
3828,75.0,0.0,60.0,0.0,0.0
3829,63.0,64.0,60.0,1.0,0.0
3830,76.0,0.0,60.0,0.0,0.0
3831,70.0,6.0,120.0,0.0,0.0
3832,64.0,32.0,60.0,1.0,0.0
3833,58.0,13.0,240.0,1.0,0.0
3834,63.0,64.0,60.0,1.0,0.0
3835,75.0,0.0,60.0,0.0,0.0
3836,73.0,0.0,60.0,0.0,0.0
3837,70.0,45.0,60.0,0.0,0.0
3838,31.0,0.0,120.0,1.0,0.0
3839,43.0,6.0,120.0,1.0,0.0
3840,63.0,13.0,300.0,0.0,0.0
3841,75.0,64.0,60.0,0.0,0.0
3842,71.0,58.0,60.0,0.0,0.0
3843,32.0,0.0,120.0,1.0,0.0
3844,44.0,6.0,120.0,1.0,0.0
3845,73.0,64.0,60.0,0.0,0.0
3846,70.0,45.0,60.0,0.0,0.0
3847,58.0,6.0,120.0,1.0,0.0
3848,71.0,64.0,60.0,0.0,0.0
3849,68.0,6.0,120.0,0.0,0.0
3850,59.0,58.0,60.0,1.0,0.0
3851,61.0,64.0,60.0,1.0,0.0
3852,66.0,6.0,120.0,0.0,0.0
3853,58.0,58.0,60.0,1.0,0.0
3854,59.0,64.0,60.0,1.0,0.0
3855,65.0,6.0,120.0,0.0,0.0
3856,56.0,58.0,60.0,1.0,0.0
3857,59.0,64.0,60.0,1.0,0.0
3858,58.0,64.0,60.0,1.0,0.0
3859,66.0,0.0,240.0,0.0,0.0
3860,78.0,19.0,240.0,0.0,0.0
3861,61.0,64.0,60.0,1.0,0.0
3862,63.0,45.0,60.0,1.0,0.0
3863,61.0,64.0,60.0,1.0,0.0
3864,59.0,64.0,60.0,1.0,0.0
3865,65.0,0.0,240.0,0.0,0.0
3866,77.0,6.0,240.0,0.0,0.0
3867,61.0,64.0,60.0,1.0,0.0
3868,58.0,58.0,60.0,1.0,0.0
3869,54.0,64.0,60.0,1.0,0.0
3870,63.0,19.0,240.0,0.0,0.0
3871,75.0,0.0,240.0,0.0,0.0
3872,59.0,64.0,60.0,1.0,0.0
3873,58.0,64.0,60.0,1.0,0.0
3874,57.0,45.0,60.0,1.0,0.0
3875,53.0,64.0,60.0,1.0,0.0
3876,62.0,0.0,120.0,0.0,0.0
3877,74.0,6.0,120.0,0.0,0.0
3878,58.0,58.0,60.0,1.0,0.0
3879,56.0,64.0,60.0,1.0,0.0
3880,55.0,58.0,60.0,1.0,0.0
3881,73.0,0.0,120.0,0.0,0.0
3882,61.0,6.0,120.0,0.0,0.0
3883,51.0,64.0,60.0,1.0,0.0
3884,60.0,0.0,240.0,0.0,0.0
3885,56.0,64.0,60.0,1.0,0.0
3886,72.0,19.0,240.0,0.0,0.0
3887,54.0,64.0,60.0,1.0,0.0
3888,53.0,45.0,60.0,1.0,0.0
3889,49.0,64.0,60.0,1.0,0.0
3890,70.0,0.0,60.0,0.0,0.0
3891,54.0,64.0,60.0,1.0,0.0
3892,66.0,0.0,60.0,0.0,0.0
3893,78.0,64.0,60.0,0.0,0.0
3894,58.0,0.0,60.0,1.0,0.0
3895,77.0,0.0,60.0,0.0,0.0
3896,65.0,13.0,180.0,0.0,0.0
3897,56.0,64.0,60.0,1.0,0.0
3898,78.0,0.0,60.0,0.0,0.0
3899,58.0,51.0,60.0,1.0,0.0
3900,77.0,0.0,60.0,0.0,0.0
3901,56.0,64.0,60.0,1.0,0.0
3902,75.0,0.0,60.0,0.0,0.0
3903,63.0,0.0,60.0,0.0,0.0
3904,54.0,64.0,60.0,1.0,0.0
3905,62.0,19.0,240.0,1.0,0.0
3906,53.0,0.0,60.0,1.0,0.0
3907,74.0,64.0,60.0,0.0,0.0
3908,56.0,64.0,60.0,1.0,0.0
3909,71.0,0.0,60.0,0.0,0.0
3910,83.0,0.0,60.0,0.0,0.0
3911,70.0,0.0,60.0,0.0,0.0
3912,82.0,0.0,60.0,0.0,0.0
3913,54.0,45.0,60.0,1.0,0.0
3914,68.0,0.0,60.0,0.0,0.0
3915,80.0,64.0,60.0,0.0,0.0
3916,53.0,0.0,60.0,1.0,0.0
3917,66.0,0.0,60.0,0.0,0.0
3918,78.0,0.0,60.0,0.0,0.0
3919,63.0,0.0,60.0,1.0,0.0
3920,51.0,64.0,60.0,1.0,0.0
3921,56.0,64.0,60.0,1.0,0.0
3922,65.0,0.0,60.0,1.0,0.0
3923,80.0,0.0,60.0,0.0,0.0
3924,89.0,0.0,60.0,0.0,0.0
3925,78.0,64.0,60.0,0.0,0.0
3926,87.0,0.0,60.0,0.0,0.0
3927,63.0,0.0,60.0,1.0,0.0
3928,54.0,0.0,60.0,1.0,0.0
3929,77.0,0.0,60.0,0.0,0.0
3930,62.0,0.0,60.0,1.0,0.0
3931,86.0,0.0,60.0,0.0,0.0
3932,53.0,64.0,60.0,1.0,0.0
3933,87.0,13.0,180.0,0.0,0.0
3934,78.0,0.0,60.0,0.0,0.0
3935,63.0,6.0,360.0,1.0,0.0
3936,54.0,64.0,60.0,1.0,0.0
3937,77.0,51.0,60.0,0.0,0.0
3938,56.0,0.0,60.0,1.0,0.0
3939,75.0,0.0,60.0,0.0,0.0
3940,54.0,64.0,60.0,1.0,0.0
3941,85.0,64.0,60.0,0.0,0.0
3942,73.0,0.0,60.0,0.0,0.0
3943,53.0,0.0,60.0,1.0,0.0
3944,83.0,0.0,120.0,0.0,0.0
3945,51.0,58.0,60.0,1.0,0.0
3946,71.0,0.0,60.0,0.0,0.0
3947,53.0,64.0,60.0,1.0,0.0
3948,73.0,0.0,60.0,0.0,0.0
3949,49.0,58.0,60.0,1.0,0.0
3950,82.0,0.0,120.0,0.0,0.0
3951,70.0,0.0,60.0,0.0,0.0
3952,61.0,6.0,120.0,1.0,0.0
3953,51.0,64.0,60.0,1.0,0.0
3954,71.0,0.0,60.0,0.0,0.0
3955,69.0,0.0,240.0,0.0,0.0
3956,81.0,0.0,240.0,0.0,0.0
3957,48.0,0.0,240.0,1.0,0.0
3958,60.0,19.0,240.0,1.0,0.0
3959,49.0,64.0,60.0,1.0,0.0
3960,78.0,0.0,60.0,0.0,0.0
3961,54.0,64.0,60.0,1.0,0.0
3962,53.0,0.0,60.0,1.0,0.0
3963,77.0,45.0,60.0,0.0,0.0
3964,75.0,64.0,60.0,0.0,0.0
3965,51.0,0.0,60.0,1.0,0.0
3966,70.0,0.0,240.0,0.0,0.0
3967,62.0,19.0,240.0,1.0,0.0
3968,82.0,0.0,240.0,0.0,0.0
3969,53.0,64.0,60.0,1.0,0.0
3970,77.0,0.0,240.0,0.0,0.0
3971,50.0,0.0,240.0,1.0,0.0
3972,59.0,64.0,60.0,1.0,0.0
3973,58.0,45.0,60.0,1.0,0.0
3974,56.0,64.0,60.0,1.0,0.0
3975,74.0,0.0,240.0,0.0,0.0
3976,68.0,19.0,240.0,0.0,0.0
3977,80.0,0.0,240.0,0.0,0.0
3978,46.0,0.0,240.0,1.0,0.0
3979,58.0,64.0,60.0,1.0,0.0
3980,56.0,64.0,60.0,1.0,0.0
3981,54.0,45.0,60.0,1.0,0.0
3982,53.0,64.0,60.0,1.0,0.0
3983,51.0,19.0,240.0,1.0,0.0
3984,63.0,0.0,60.0,1.0,0.0
3985,75.0,64.0,60.0,0.0,0.0
3986,78.0,0.0,240.0,0.0,0.0
3987,66.0,0.0,240.0,0.0,0.0
3988,73.0,0.0,60.0,0.0,0.0
3989,61.0,64.0,60.0,1.0,0.0
3990,71.0,45.0,60.0,0.0,0.0
3991,59.0,0.0,60.0,1.0,0.0
3992,70.0,0.0,60.0,0.0,0.0
3993,58.0,64.0,60.0,1.0,0.0
3994,65.0,0.0,120.0,0.0,0.0
3995,77.0,6.0,120.0,0.0,0.0
3996,57.0,0.0,120.0,1.0,0.0
3997,53.0,58.0,60.0,1.0,0.0
3998,54.0,64.0,60.0,1.0,0.0
3999,53.0,45.0,60.0,1.0,0.0
4000,81.0,0.0,120.0,0.0,0.0
4001,72.0,6.0,120.0,0.0,0.0
4002,69.0,13.0,90.0,0.0,0.0
4003,51.0,64.0,60.0,1.0,0.0
4004,70.0,0.0,120.0,0.0,0.0
4005,73.0,0.0,120.0,0.0,0.0
4006,82.0,6.0,120.0,0.0,0.0
4007,49.0,58.0,60.0,1.0,0.0
4008,51.0,64.0,60.0,1.0,0.0
4009,48.0,58.0,60.0,1.0,0.0
4010,72.0,0.0,120.0,0.0,0.0
4011,75.0,0.0,120.0,0.0,0.0
4012,84.0,6.0,120.0,0.0,0.0
4013,49.0,64.0,60.0,1.0,0.0
4014,73.0,0.0,240.0,0.0,0.0
4015,85.0,0.0,240.0,0.0,0.0
4016,77.0,64.0,60.0,0.0,0.0
4017,46.0,19.0,240.0,1.0,0.0
4018,75.0,64.0,60.0,0.0,0.0
4019,77.0,45.0,60.0,0.0,0.0
4020,75.0,64.0,60.0,0.0,0.0
4021,70.0,19.0,240.0,1.0,0.0
4022,63.0,64.0,60.0,1.0,0.0
4023,72.0,0.0,450.0,1.0,0.0
4024,75.0,0.0,60.0,0.0,0.0
4025,84.0,25.0,450.0,0.0,0.0
4026,82.0,0.0,240.0,0.0,0.0
4027,77.0,0.0,60.0,0.0,0.0
4028,65.0,64.0,60.0,1.0,0.0
4029,75.0,45.0,60.0,0.0,0.0
4030,63.0,0.0,60.0,1.0,0.0
4031,77.0,0.0,60.0,0.0,0.0
4032,65.0,64.0,60.0,1.0,0.0
4033,78.0,0.0,60.0,0.0,0.0
4034,81.0,19.0,240.0,0.0,0.0
4035,66.0,64.0,60.0,1.0,0.0
4036,69.0,0.0,240.0,1.0,0.0
4037,65.0,0.0,60.0,1.0,0.0
4038,77.0,64.0,60.0,0.0,0.0
4039,75.0,0.0,60.0,0.0,0.0
4040,63.0,20.0,60.0,1.0,0.0
4041,77.0,64.0,60.0,0.0,0.0
4042,65.0,0.0,60.0,1.0,0.0
4043,77.0,0.0,60.0,0.0,0.0
4044,82.0,26.0,360.0,0.0,0.0
4045,61.0,64.0,60.0,1.0,0.0
4046,78.0,0.0,60.0,0.0,0.0
4047,63.0,64.0,60.0,1.0,0.0
4048,75.0,64.0,60.0,0.0,0.0
4049,60.0,0.0,60.0,1.0,0.0
4050,77.0,0.0,60.0,0.0,0.0
4051,61.0,64.0,60.0,1.0,0.0
4052,73.0,6.0,120.0,0.0,0.0
4053,58.0,32.0,60.0,1.0,0.0
4054,56.0,64.0,60.0,1.0,0.0
4055,60.0,0.0,60.0,1.0,0.0
4056,85.0,6.0,120.0,0.0,0.0
4057,58.0,58.0,60.0,1.0,0.0
4058,54.0,0.0,60.0,1.0,0.0
4059,53.0,0.0,60.0,1.0,0.0
4060,56.0,64.0,60.0,1.0,0.0
4061,75.0,0.0,120.0,0.0,0.0
4062,87.0,6.0,120.0,0.0,0.0
4063,54.0,58.0,60.0,1.0,0.0
4064,58.0,0.0,60.0,1.0,0.0
4065,56.0,64.0,60.0,1.0,0.0
4066,53.0,0.0,60.0,1.0,0.0
4067,77.0,0.0,120.0,0.0,0.0
4068,82.0,6.0,120.0,0.0,0.0
4069,51.0,0.0,60.0,1.0,0.0
4070,54.0,58.0,60.0,1.0,0.0
4071,49.0,0.0,60.0,1.0,0.0
4072,53.0,64.0,60.0,1.0,0.0
4073,75.0,0.0,120.0,0.0,0.0
4074,81.0,6.0,120.0,0.0,0.0
4075,48.0,0.0,60.0,1.0,0.0
4076,51.0,58.0,60.0,1.0,0.0
4077,49.0,0.0,60.0,1.0,0.0
4078,53.0,64.0,60.0,1.0,0.0
4079,82.0,6.0,120.0,0.0,0.0
4080,48.0,0.0,60.0,1.0,0.0
4081,51.0,58.0,60.0,1.0,0.0
4082,73.0,0.0,120.0,0.0,0.0
4083,46.0,64.0,60.0,1.0,0.0
4084,49.0,0.0,60.0,1.0,0.0
4085,75.0,0.0,120.0,0.0,0.0
4086,48.0,58.0,60.0,1.0,0.0
4087,72.0,0.0,120.0,0.0,0.0
4088,84.0,6.0,120.0,0.0,0.0
4089,45.0,0.0,60.0,1.0,0.0
4090,41.0,0.0,60.0,1.0,0.0
4091,53.0,64.0,60.0,1.0,0.0
4092,49.0,58.0,60.0,1.0,0.0
4093,46.0,0.0,60.0,1.0,0.0
4094,82.0,6.0,120.0,0.0,0.0
4095,73.0,0.0,120.0,0.0,0.0
4096,70.0,0.0,120.0,0.0,0.0
4097,41.0,64.0,60.0,1.0,0.0
4098,53.0,0.0,60.0,1.0,0.0
4099,69.0,0.0,120.0,0.0,0.0
4100,81.0,6.0,120.0,0.0,0.0
4101,48.0,0.0,60.0,1.0,0.0
4102,51.0,58.0,60.0,1.0,0.0
4103,72.0,0.0,120.0,0.0,0.0
4104,41.0,0.0,60.0,1.0,0.0
4105,53.0,64.0,60.0,1.0,0.0
4106,49.0,58.0,60.0,1.0,0.0
4107,46.0,0.0,60.0,1.0,0.0
4108,77.0,0.0,120.0,0.0,0.0
4109,70.0,0.0,120.0,0.0,0.0
4110,82.0,6.0,120.0,0.0,0.0
4111,41.0,0.0,60.0,1.0,0.0
4112,53.0,64.0,60.0,1.0,0.0
4113,72.0,0.0,120.0,0.0,0.0
4114,84.0,6.0,120.0,0.0,0.0
4115,54.0,58.0,60.0,1.0,0.0
4116,78.0,0.0,120.0,0.0,0.0
4117,51.0,0.0,60.0,1.0,0.0
4118,41.0,0.0,60.0,1.0,0.0
4119,53.0,64.0,60.0,1.0,0.0
4120,53.0,58.0,60.0,1.0,0.0
4121,49.0,0.0,60.0,1.0,0.0
4122,77.0,6.0,120.0,0.0,0.0
4123,82.0,0.0,120.0,0.0,0.0
4124,70.0,0.0,120.0,0.0,0.0
4125,41.0,64.0,60.0,1.0,0.0
4126,53.0,0.0,60.0,1.0,0.0
4127,69.0,0.0,120.0,0.0,0.0
4128,51.0,58.0,60.0,1.0,0.0
4129,75.0,0.0,120.0,0.0,0.0
4130,81.0,6.0,120.0,0.0,0.0
4131,48.0,0.0,60.0,1.0,0.0
4132,41.0,0.0,60.0,1.0,0.0
4133,53.0,64.0,60.0,1.0,0.0
4134,49.0,58.0,60.0,1.0,0.0
4135,82.0,6.0,120.0,0.0,0.0
4136,73.0,0.0,120.0,0.0,0.0
4137,46.0,0.0,60.0,1.0,0.0
4138,70.0,0.0,120.0,0.0,0.0
4139,41.0,64.0,60.0,1.0,0.0
4140,53.0,0.0,60.0,1.0,0.0
4141,72.0,0.0,120.0,0.0,0.0
4142,77.0,0.0,120.0,0.0,0.0
4143,84.0,6.0,120.0,0.0,0.0
4144,45.0,0.0,60.0,1.0,0.0
4145,48.0,58.0,60.0,1.0,0.0
4146,53.0,64.0,60.0,1.0,0.0
4147,41.0,58.0,60.0,1.0,0.0
4148,87.0,6.0,120.0,0.0,0.0
4149,75.0,0.0,120.0,0.0,0.0
4150,84.0,0.0,120.0,0.0,0.0
4151,53.0,64.0,60.0,1.0,0.0
4152,85.0,6.0,120.0,0.0,0.0
4153,73.0,0.0,120.0,0.0,0.0
4154,82.0,0.0,120.0,0.0,0.0
4155,58.0,58.0,60.0,1.0,0.0
4156,46.0,0.0,60.0,1.0,0.0
4157,49.0,0.0,60.0,1.0,0.0
4158,53.0,64.0,60.0,1.0,0.0
4159,49.0,0.0,60.0,1.0,0.0
4160,61.0,58.0,60.0,1.0,0.0
4161,53.0,0.0,60.0,1.0,0.0
4162,82.0,6.0,120.0,0.0,0.0
4163,77.0,0.0,120.0,0.0,0.0
4164,70.0,0.0,120.0,0.0,0.0
4165,58.0,64.0,60.0,1.0,0.0
4166,51.0,0.0,60.0,1.0,0.0
4167,66.0,0.0,120.0,0.0,0.0
4168,75.0,0.0,120.0,0.0,0.0
4169,54.0,58.0,60.0,1.0,0.0
4170,78.0,6.0,120.0,0.0,0.0
4171,63.0,0.0,60.0,1.0,0.0
4172,58.0,64.0,60.0,1.0,0.0
4173,51.0,0.0,60.0,1.0,0.0
4174,60.0,58.0,60.0,1.0,0.0
4175,84.0,6.0,120.0,0.0,0.0
4176,75.0,0.0,120.0,0.0,0.0
4177,72.0,0.0,120.0,0.0,0.0
4178,48.0,0.0,60.0,1.0,0.0
4179,57.0,64.0,60.0,1.0,0.0
4180,49.0,58.0,60.0,1.0,0.0
4181,61.0,0.0,60.0,1.0,0.0
4182,77.0,0.0,120.0,0.0,0.0
4183,82.0,6.0,120.0,0.0,0.0
4184,53.0,0.0,60.0,1.0,0.0
4185,70.0,0.0,120.0,0.0,0.0
4186,58.0,64.0,60.0,1.0,0.0
4187,46.0,58.0,60.0,1.0,0.0
4188,73.0,0.0,120.0,0.0,0.0
4189,70.0,0.0,120.0,0.0,0.0
4190,82.0,6.0,120.0,0.0,0.0
4191,58.0,64.0,60.0,1.0,0.0
4192,69.0,0.0,240.0,0.0,0.0
4193,81.0,19.0,240.0,0.0,0.0
4194,72.0,64.0,60.0,0.0,0.0
4195,60.0,0.0,60.0,1.0,0.0
4196,53.0,6.0,1140.0,1.0,0.0
4197,65.0,64.0,60.0,1.0,0.0
4198,77.0,0.0,60.0,0.0,0.0
4199,75.0,0.0,60.0,0.0,0.0
4200,63.0,45.0,60.0,1.0,0.0
4201,77.0,0.0,60.0,0.0,0.0
4202,65.0,64.0,60.0,1.0,0.0
4203,61.0,58.0,60.0,1.0,0.0
4204,82.0,6.0,120.0,0.0,0.0
4205,73.0,0.0,60.0,0.0,0.0
4206,70.0,0.0,120.0,0.0,0.0
4207,77.0,0.0,60.0,0.0,0.0
4208,65.0,64.0,60.0,1.0,0.0
4209,72.0,0.0,60.0,0.0,0.0
4210,60.0,58.0,60.0,1.0,0.0
4211,84.0,6.0,120.0,0.0,0.0
4212,77.0,0.0,60.0,0.0,0.0
4213,65.0,64.0,60.0,1.0,0.0
4214,58.0,0.0,60.0,1.0,0.0
4215,70.0,58.0,60.0,1.0,0.0
4216,85.0,6.0,120.0,0.0,0.0
4217,73.0,0.0,60.0,0.0,0.0
4218,77.0,0.0,60.0,0.0,0.0
4219,65.0,64.0,60.0,1.0,0.0
4220,84.0,6.0,120.0,0.0,0.0
4221,72.0,0.0,60.0,0.0,0.0
4222,69.0,0.0,60.0,1.0,0.0
4223,57.0,58.0,60.0,1.0,0.0
4224,65.0,64.0,60.0,1.0,0.0
4225,77.0,0.0,60.0,0.0,0.0
4226,85.0,6.0,120.0,0.0,0.0
4227,73.0,0.0,60.0,0.0,0.0
4228,58.0,58.0,60.0,1.0,0.0
4229,70.0,0.0,60.0,1.0,0.0
4230,65.0,64.0,60.0,1.0,0.0
4231,77.0,0.0,60.0,0.0,0.0
4232,81.0,6.0,120.0,0.0,0.0
4233,72.0,0.0,60.0,0.0,0.0
4234,60.0,58.0,60.0,1.0,0.0
4235,69.0,0.0,60.0,1.0,0.0
4236,77.0,0.0,60.0,0.0,0.0
4237,65.0,64.0,60.0,1.0,0.0
4238,73.0,0.0,60.0,0.0,0.0
4239,61.0,0.0,60.0,1.0,0.0
4240,70.0,58.0,60.0,1.0,0.0
4241,82.0,0.0,120.0,0.0,0.0
4242,77.0,64.0,60.0,0.0,0.0
4243,65.0,0.0,60.0,1.0,0.0
4244,81.0,6.0,120.0,0.0,0.0
4245,65.0,58.0,60.0,1.0,0.0
4246,53.0,58.0,2490.0,1.0,0.0
4247,69.0,0.0,60.0,0.0,0.0
4248,77.0,64.0,60.0,0.0,0.0
4249,65.0,0.0,60.0,1.0,0.0
4250,79.0,0.0,120.0,0.0,0.0
4251,82.0,6.0,120.0,0.0,0.0
4252,70.0,0.0,60.0,0.0,0.0
4253,55.0,0.0,60.0,1.0,0.0
4254,58.0,58.0,60.0,1.0,0.0
4255,67.0,0.0,60.0,1.0,0.0
4256,65.0,64.0,60.0,1.0,0.0
4257,77.0,0.0,60.0,0.0,0.0
4258,81.0,0.0,120.0,0.0,0.0
4259,84.0,6.0,120.0,0.0,0.0
4260,72.0,0.0,60.0,0.0,0.0
4261,57.0,0.0,60.0,1.0,0.0
4262,60.0,0.0,60.0,1.0,0.0
4263,69.0,58.0,60.0,1.0,0.0
4264,77.0,0.0,60.0,0.0,0.0
4265,65.0,64.0,60.0,1.0,0.0
4266,82.0,0.0,120.0,0.0,0.0
4267,85.0,6.0,120.0,0.0,0.0
4268,73.0,0.0,60.0,0.0,0.0
4269,58.0,0.0,60.0,1.0,0.0
4270,61.0,0.0,60.0,1.0,0.0
4271,70.0,58.0,60.0,1.0,0.0
4272,77.0,0.0,60.0,0.0,0.0
4273,65.0,64.0,60.0,1.0,0.0
4274,84.0,6.0,120.0,0.0,0.0
4275,57.0,0.0,60.0,1.0,0.0
4276,60.0,0.0,60.0,1.0,0.0
4277,69.0,0.0,60.0,1.0,0.0
4278,72.0,58.0,60.0,0.0,0.0
4279,81.0,0.0,120.0,0.0,0.0
4280,77.0,0.0,60.0,0.0,0.0
4281,65.0,64.0,60.0,1.0,0.0
4282,82.0,0.0,120.0,0.0,0.0
4283,85.0,6.0,120.0,0.0,0.0
4284,58.0,0.0,60.0,1.0,0.0
4285,61.0,0.0,60.0,1.0,0.0
4286,70.0,58.0,60.0,1.0,0.0
4287,73.0,0.0,60.0,0.0,0.0
4288,77.0,0.0,60.0,0.0,0.0
4289,65.0,64.0,60.0,1.0,0.0
4290,72.0,58.0,60.0,1.0,0.0
4291,63.0,0.0,60.0,1.0,0.0
4292,60.0,0.0,60.0,1.0,0.0
4293,87.0,6.0,120.0,0.0,0.0
4294,84.0,0.0,120.0,0.0,0.0
4295,75.0,0.0,60.0,0.0,0.0
4296,77.0,64.0,60.0,0.0,0.0
4297,65.0,0.0,60.0,1.0,0.0
4298,89.0,0.0,60.0,0.0,0.0
4299,77.0,0.0,120.0,0.0,0.0
4300,65.0,58.0,60.0,1.0,0.0
4301,85.0,6.0,120.0,0.0,0.0
4302,90.0,0.0,60.0,0.0,0.0
4303,66.0,64.0,60.0,1.0,0.0
4304,63.0,0.0,60.0,1.0,0.0
4305,84.0,6.0,120.0,0.0,0.0
4306,87.0,58.0,60.0,0.0,0.0
4307,75.0,0.0,120.0,0.0,0.0
4308,89.0,0.0,60.0,0.0,0.0
4309,65.0,64.0,60.0,1.0,0.0
4310,85.0,0.0,60.0,0.0,0.0
4311,73.0,0.0,120.0,0.0,0.0
4312,82.0,6.0,120.0,0.0,0.0
4313,61.0,58.0,60.0,1.0,0.0
4314,87.0,0.0,60.0,0.0,0.0
4315,75.0,64.0,60.0,1.0,0.0
4316,84.0,0.0,60.0,0.0,0.0
4317,75.0,6.0,120.0,0.0,0.0
4318,72.0,58.0,60.0,1.0,0.0
4319,85.0,0.0,60.0,0.0,0.0
4320,73.0,64.0,60.0,1.0,0.0
4321,82.0,6.0,120.0,0.0,0.0
4322,73.0,0.0,60.0,0.0,0.0
4323,61.0,0.0,60.0,1.0,0.0
4324,70.0,58.0,60.0,1.0,0.0
4325,77.0,0.0,60.0,0.0,0.0
4326,65.0,64.0,60.0,1.0,0.0
4327,72.0,0.0,60.0,0.0,0.0
4328,60.0,0.0,60.0,1.0,0.0
4329,81.0,6.0,120.0,0.0,0.0
4330,69.0,58.0,60.0,1.0,0.0
4331,75.0,64.0,60.0,0.0,0.0
4332,65.0,0.0,60.0,1.0,0.0
4333,73.0,0.0,60.0,0.0,0.0
4334,61.0,0.0,60.0,1.0,0.0
4335,70.0,58.0,60.0,1.0,0.0
4336,82.0,6.0,120.0,0.0,0.0
4337,77.0,0.0,60.0,0.0,0.0
4338,65.0,64.0,60.0,1.0,0.0
4339,72.0,0.0,60.0,0.0,0.0
4340,57.0,0.0,60.0,1.0,0.0
4341,69.0,58.0,60.0,1.0,0.0
4342,84.0,0.0,120.0,0.0,0.0
4343,81.0,6.0,120.0,0.0,0.0
4344,60.0,0.0,60.0,1.0,0.0
4345,77.0,64.0,60.0,0.0,0.0
4346,65.0,0.0,60.0,1.0,0.0
4347,73.0,58.0,60.0,0.0,0.0
4348,85.0,6.0,120.0,0.0,0.0
4349,58.0,0.0,60.0,1.0,0.0
4350,61.0,0.0,60.0,1.0,0.0
4351,70.0,0.0,60.0,1.0,0.0
4352,82.0,0.0,120.0,0.0,0.0
4353,65.0,64.0,60.0,1.0,0.0
4354,77.0,0.0,60.0,0.0,0.0
4355,81.0,0.0,120.0,0.0,0.0
4356,84.0,6.0,120.0,0.0,0.0
4357,72.0,0.0,60.0,0.0,0.0
4358,57.0,58.0,60.0,1.0,0.0
4359,60.0,0.0,60.0,1.0,0.0
4360,69.0,0.0,60.0,1.0,0.0
4361,77.0,64.0,60.0,0.0,0.0
4362,65.0,0.0,60.0,1.0,0.0
4363,85.0,6.0,120.0,0.0,0.0
4364,70.0,0.0,60.0,1.0,0.0
4365,82.0,0.0,120.0,0.0,0.0
4366,58.0,0.0,60.0,1.0,0.0
4367,61.0,58.0,60.0,1.0,0.0
4368,73.0,0.0,60.0,0.0,0.0
4369,77.0,0.0,60.0,0.0,0.0
4370,65.0,64.0,60.0,1.0,0.0
4371,82.0,0.0,120.0,0.0,0.0
4372,87.0,6.0,120.0,0.0,0.0
4373,75.0,0.0,60.0,0.0,0.0
4374,55.0,0.0,60.0,1.0,0.0
4375,58.0,0.0,60.0,1.0,0.0
4376,67.0,58.0,60.0,1.0,0.0
4377,77.0,64.0,60.0,0.0,0.0
4378,65.0,0.0,60.0,1.0,0.0
4379,60.0,0.0,60.0,1.0,0.0
4380,77.0,0.0,60.0,0.0,0.0
4381,69.0,0.0,60.0,1.0,0.0
4382,81.0,6.0,120.0,0.0,0.0
4383,57.0,0.0,60.0,1.0,0.0
4384,89.0,0.0,120.0,0.0,0.0
4385,77.0,64.0,60.0,0.0,0.0
4386,53.0,0.0,60.0,1.0,0.0
4387,65.0,0.0,60.0,1.0,0.0
4388,75.0,0.0,120.0,0.0,0.0
4389,84.0,6.0,120.0,0.0,0.0
4390,72.0,0.0,60.0,0.0,0.0
4391,60.0,58.0,60.0,1.0,0.0
4392,63.0,0.0,60.0,1.0,0.0
4393,53.0,0.0,60.0,1.0,0.0
4394,77.0,0.0,60.0,0.0,0.0
4395,65.0,64.0,60.0,1.0,0.0
4396,61.0,58.0,60.0,1.0,0.0
4397,58.0,0.0,60.0,1.0,0.0
4398,85.0,0.0,120.0,0.0,0.0
4399,73.0,0.0,60.0,0.0,0.0
4400,65.0,64.0,60.0,1.0,0.0
4401,77.0,0.0,60.0,0.0,0.0
4402,53.0,0.0,60.0,1.0,0.0
4403,63.0,58.0,60.0,1.0,0.0
4404,87.0,6.0,120.0,0.0,0.0
4405,58.0,0.0,60.0,1.0,0.0
4406,75.0,0.0,60.0,0.0,0.0
4407,82.0,0.0,120.0,0.0,0.0
4408,53.0,64.0,120.0,1.0,0.0
4409,65.0,0.0,120.0,1.0,0.0
4410,77.0,64.0,60.0,0.0,0.0
4411,77.0,0.0,240.0,0.0,0.0
4412,81.0,0.0,240.0,0.0,0.0
4413,89.0,19.0,240.0,0.0,0.0
4414,57.0,0.0,60.0,1.0,0.0
4415,60.0,0.0,60.0,1.0,0.0
4416,41.0,0.0,60.0,0.0,0.0
4417,53.0,0.0,60.0,0.0,0.0
4418,29.0,64.0,60.0,1.0,0.0
4419,51.0,0.0,60.0,0.0,0.0
4420,39.0,0.0,60.0,1.0,0.0
4421,27.0,45.0,60.0,1.0,0.0
4422,41.0,0.0,60.0,0.0,0.0
4423,53.0,0.0,60.0,0.0,0.0
4424,29.0,64.0,60.0,1.0,0.0
4425,37.0,64.0,60.0,1.0,0.0
4426,25.0,0.0,60.0,1.0,0.0
4427,49.0,0.0,60.0,0.0,0.0
4428,53.0,0.0,60.0,0.0,0.0
4429,41.0,64.0,60.0,0.0,0.0
4430,29.0,0.0,60.0,1.0,0.0
4431,48.0,0.0,60.0,0.0,0.0
4432,36.0,0.0,60.0,1.0,0.0
4433,24.0,64.0,60.0,1.0,0.0
4434,29.0,0.0,60.0,1.0,0.0
4435,53.0,0.0,60.0,0.0,0.0
4436,41.0,64.0,60.0,0.0,0.0
4437,46.0,0.0,60.0,0.0,0.0
4438,22.0,0.0,60.0,1.0,0.0
4439,34.0,64.0,60.0,1.0,0.0
4440,29.0,0.0,60.0,1.0,0.0
4441,53.0,64.0,60.0,0.0,0.0
4442,41.0,0.0,60.0,0.0,0.0
4443,45.0,0.0,60.0,0.0,0.0
4444,21.0,0.0,60.0,1.0,0.0
4445,33.0,64.0,60.0,1.0,0.0
4446,41.0,0.0,60.0,0.0,0.0
4447,53.0,64.0,60.0,0.0,0.0
4448,29.0,0.0,60.0,1.0,0.0
4449,46.0,0.0,60.0,0.0,0.0
4450,22.0,0.0,60.0,1.0,0.0
4451,34.0,64.0,60.0,1.0,0.0
4452,41.0,64.0,60.0,0.0,0.0
4453,53.0,0.0,60.0,0.0,0.0
4454,29.0,0.0,60.0,1.0,0.0
4455,48.0,0.0,60.0,0.0,0.0
4456,24.0,0.0,60.0,1.0,0.0
4457,36.0,64.0,60.0,1.0,0.0
4458,41.0,0.0,60.0,0.0,0.0
4459,53.0,64.0,60.0,0.0,0.0
4460,29.0,0.0,60.0,1.0,0.0
4461,49.0,0.0,60.0,0.0,0.0
4462,37.0,0.0,60.0,1.0,0.0
4463,25.0,64.0,60.0,1.0,0.0
4464,41.0,0.0,60.0,0.0,0.0
4465,53.0,0.0,60.0,0.0,0.0
4466,29.0,64.0,60.0,1.0,0.0
4467,41.0,64.0,60.0,0.0,0.0
4468,17.0,0.0,60.0,1.0,0.0
4469,29.0,0.0,60.0,1.0,0.0
4470,41.0,0.0,60.0,0.0,0.0
4471,53.0,0.0,60.0,0.0,0.0
4472,29.0,64.0,60.0,1.0,0.0
4473,43.0,0.0,60.0,0.0,0.0
4474,19.0,64.0,60.0,1.0,0.0
4475,31.0,0.0,60.0,1.0,0.0
4476,41.0,0.0,60.0,0.0,0.0
4477,53.0,0.0,60.0,0.0,0.0
4478,29.0,64.0,60.0,1.0,0.0
4479,45.0,0.0,60.0,0.0,0.0
4480,21.0,0.0,60.0,1.0,0.0
4481,33.0,64.0,60.0,1.0,0.0
4482,29.0,64.0,60.0,1.0,0.0
4483,41.0,0.0,60.0,0.0,0.0
4484,53.0,0.0,60.0,0.0,0.0
4485,46.0,0.0,60.0,0.0,0.0
4486,22.0,0.0,60.0,1.0,0.0
4487,34.0,64.0,60.0,1.0,0.0
4488,41.0,0.0,60.0,0.0,0.0
4489,29.0,0.0,60.0,1.0,0.0
4490,53.0,64.0,60.0,0.0,0.0
4491,45.0,0.0,60.0,0.0,0.0
4492,21.0,0.0,60.0,1.0,0.0
4493,33.0,64.0,60.0,1.0,0.0
4494,41.0,64.0,60.0,0.0,0.0
4495,53.0,0.0,60.0,0.0,0.0
4496,29.0,0.0,60.0,1.0,0.0
4497,46.0,0.0,60.0,0.0,0.0
4498,22.0,0.0,60.0,1.0,0.0
4499,34.0,64.0,60.0,1.0,0.0
4500,41.0,0.0,60.0,0.0,0.0
4501,53.0,64.0,60.0,0.0,0.0
4502,29.0,0.0,60.0,1.0,0.0
4503,48.0,64.0,60.0,0.0,0.0
4504,24.0,0.0,60.0,1.0,0.0
4505,36.0,0.0,60.0,1.0,0.0
4506,41.0,0.0,60.0,0.0,0.0
4507,53.0,0.0,60.0,0.0,0.0
4508,29.0,128.0,60.0,1.0,0.0
4509,37.0,19.0,240.0,1.0,0.0
4510,49.0,0.0,240.0,0.0,0.0
4511,25.0,0.0,240.0,1.0,0.0
4512,63.0,0.0,60.0,0.0,0.0
4513,72.0,64.0,60.0,0.0,0.0
4514,61.0,0.0,60.0,0.0,0.0
4515,70.0,45.0,60.0,0.0,0.0
4516,60.0,0.0,60.0,0.0,0.0
4517,69.0,64.0,60.0,0.0,0.0
4518,61.0,0.0,120.0,0.0,0.0
4519,70.0,6.0,120.0,0.0,0.0
4520,61.0,58.0,60.0,1.0,0.0
4521,57.0,122.0,60.0,1.0,0.0
4522,61.0,6.0,120.0,1.0,0.0
4523,49.0,0.0,120.0,1.0,0.0
4524,58.0,0.0,120.0,1.0,0.0
4525,73.0,64.0,60.0,0.0,0.0
4526,70.0,0.0,240.0,0.0,0.0
4527,51.0,0.0,120.0,1.0,0.0
4528,72.0,58.0,60.0,0.0,0.0
4529,63.0,6.0,120.0,1.0,0.0
4530,73.0,64.0,60.0,0.0,0.0
4531,75.0,45.0,60.0,0.0,0.0
4532,46.0,0.0,120.0,1.0,0.0
4533,58.0,13.0,90.0,1.0,0.0
4534,77.0,64.0,60.0,0.0,0.0
4535,65.0,6.0,120.0,1.0,0.0
4536,78.0,58.0,60.0,0.0,0.0
4537,69.0,0.0,240.0,0.0,0.0
4538,57.0,13.0,240.0,1.0,0.0
4539,53.0,0.0,120.0,1.0,0.0
4540,77.0,64.0,60.0,0.0,0.0
4541,75.0,45.0,60.0,0.0,0.0
4542,29.0,0.0,120.0,1.0,0.0
4543,41.0,6.0,120.0,1.0,0.0
4544,77.0,64.0,60.0,0.0,0.0
4545,73.0,6.0,120.0,0.0,0.0
4546,70.0,58.0,60.0,0.0,0.0
4547,34.0,0.0,240.0,1.0,0.0
4548,46.0,13.0,240.0,1.0,0.0
4549,65.0,64.0,60.0,0.0,0.0
4550,53.0,0.0,60.0,1.0,0.0
4551,67.0,0.0,60.0,0.0,0.0
4552,55.0,45.0,60.0,1.0,0.0
4553,72.0,6.0,120.0,0.0,0.0
4554,69.0,0.0,60.0,0.0,0.0
4555,57.0,64.0,60.0,1.0,0.0
4556,70.0,58.0,60.0,0.0,0.0
4557,58.0,13.0,240.0,1.0,0.0
4558,72.0,64.0,60.0,0.0,0.0
4559,73.0,45.0,60.0,0.0,0.0
4560,69.0,0.0,120.0,0.0,0.0
4561,29.0,0.0,120.0,1.0,0.0
4562,41.0,0.0,120.0,1.0,0.0
4563,61.0,6.0,120.0,0.0,0.0
4564,71.0,64.0,60.0,0.0,0.0
4565,61.0,26.0,360.0,0.0,0.0
4566,73.0,0.0,360.0,0.0,0.0
4567,70.0,58.0,60.0,0.0,0.0
4568,30.0,0.0,120.0,1.0,0.0
4569,42.0,6.0,120.0,1.0,0.0
4570,68.0,64.0,60.0,0.0,0.0
4571,66.0,58.0,60.0,0.0,0.0
4572,27.0,6.0,120.0,1.0,0.0
4573,39.0,0.0,120.0,1.0,0.0
4574,65.0,64.0,60.0,0.0,0.0
4575,63.0,32.0,60.0,0.0,0.0
4576,61.0,0.0,120.0,1.0,0.0
4577,32.0,0.0,120.0,1.0,0.0
4578,44.0,6.0,120.0,1.0,0.0
4579,65.0,64.0,60.0,0.0,0.0
4580,71.0,0.0,180.0,0.0,0.0
4581,17.0,0.0,120.0,1.0,0.0
4582,29.0,0.0,120.0,1.0,0.0
4583,59.0,64.0,180.0,0.0,0.0
4584,66.0,58.0,60.0,0.0,0.0
4585,66.0,6.0,120.0,1.0,0.0
4586,68.0,64.0,60.0,0.0,0.0
4587,25.0,0.0,240.0,1.0,0.0
4588,37.0,19.0,240.0,1.0,0.0
4589,59.0,0.0,60.0,1.0,0.0
4590,56.0,0.0,60.0,1.0,0.0
4591,68.0,64.0,60.0,0.0,0.0
4592,53.0,45.0,60.0,1.0,0.0
4593,65.0,0.0,60.0,0.0,0.0
4594,61.0,64.0,60.0,0.0,0.0
4595,49.0,0.0,60.0,1.0,0.0
4596,53.0,6.0,120.0,1.0,0.0
4597,65.0,58.0,60.0,0.0,0.0
4598,68.0,64.0,60.0,0.0,0.0
4599,41.0,128.0,120.0,1.0,0.0
4600,29.0,0.0,120.0,1.0,0.0
4601,80.0,0.0,240.0,0.0,0.0
4602,71.0,58.0,60.0,0.0,0.0
4603,68.0,6.0,180.0,0.0,0.0
4604,30.0,13.0,240.0,1.0,0.0
4605,42.0,0.0,240.0,1.0,0.0
4606,54.0,64.0,60.0,1.0,0.0
4607,78.0,0.0,120.0,0.0,0.0
4608,66.0,6.0,120.0,0.0,0.0
4609,51.0,45.0,60.0,1.0,0.0
4610,58.0,0.0,60.0,1.0,0.0
4611,46.0,64.0,60.0,1.0,0.0
4612,63.0,0.0,60.0,0.0,0.0
4613,51.0,64.0,60.0,1.0,0.0
4614,66.0,64.0,60.0,0.0,0.0
4615,42.0,70.0,120.0,1.0,0.0
4616,30.0,0.0,120.0,1.0,0.0
4617,70.0,58.0,60.0,0.0,0.0
4618,75.0,0.0,120.0,0.0,0.0
4619,63.0,0.0,300.0,0.0,0.0
4620,71.0,64.0,60.0,0.0,0.0
4621,32.0,0.0,240.0,1.0,0.0
4622,44.0,19.0,240.0,1.0,0.0
4623,73.0,0.0,60.0,0.0,0.0
4624,58.0,64.0,60.0,1.0,0.0
4625,70.0,0.0,60.0,0.0,0.0
4626,54.0,45.0,60.0,1.0,0.0
4627,71.0,0.0,60.0,0.0,0.0
4628,56.0,64.0,60.0,1.0,0.0
4629,53.0,64.0,60.0,1.0,0.0
4630,68.0,0.0,60.0,0.0,0.0
4631,66.0,0.0,60.0,0.0,0.0
4632,63.0,64.0,60.0,1.0,0.0
4633,65.0,0.0,60.0,0.0,0.0
4634,62.0,58.0,60.0,1.0,0.0
4635,32.0,0.0,120.0,1.0,0.0
4636,44.0,6.0,120.0,1.0,0.0
4637,60.0,64.0,60.0,1.0,0.0
4638,63.0,0.0,60.0,0.0,0.0
4639,62.0,64.0,60.0,0.0,0.0
4640,53.0,0.0,240.0,1.0,0.0
4641,65.0,19.0,240.0,1.0,0.0
4642,34.0,0.0,270.0,1.0,0.0
4643,46.0,58.0,270.0,1.0,0.0
4644,58.0,64.0,60.0,0.0,0.0
4645,62.0,45.0,60.0,0.0,0.0
4646,63.0,6.0,60.0,0.0,0.0
4647,65.0,64.0,60.0,0.0,0.0
4648,53.0,13.0,180.0,1.0,0.0
4649,58.0,0.0,60.0,0.0,0.0
4650,70.0,51.0,60.0,0.0,0.0
4651,65.0,64.0,60.0,0.0,0.0
4652,51.0,64.0,60.0,1.0,0.0
4653,63.0,0.0,60.0,0.0,0.0
4654,62.0,64.0,60.0,0.0,0.0
4655,50.0,13.0,180.0,1.0,0.0
4656,34.0,0.0,270.0,1.0,0.0
4657,46.0,58.0,270.0,1.0,0.0
4658,58.0,51.0,60.0,0.0,0.0
4659,62.0,64.0,60.0,0.0,0.0
4660,63.0,0.0,60.0,0.0,0.0
4661,51.0,6.0,60.0,1.0,0.0
4662,65.0,64.0,60.0,0.0,0.0
4663,53.0,13.0,180.0,1.0,0.0
4664,70.0,0.0,60.0,0.0,0.0
4665,58.0,51.0,60.0,0.0,0.0
4666,65.0,64.0,60.0,0.0,0.0
4667,63.0,64.0,60.0,0.0,0.0
4668,51.0,0.0,60.0,1.0,0.0
4669,63.0,64.0,60.0,0.0,0.0
4670,51.0,13.0,180.0,1.0,0.0
4671,34.0,0.0,240.0,1.0,0.0
4672,39.0,19.0,240.0,1.0,0.0
4673,46.0,0.0,240.0,1.0,0.0
4674,58.0,51.0,60.0,0.0,0.0
4675,63.0,45.0,60.0,0.0,0.0
4676,65.0,0.0,60.0,0.0,0.0
4677,53.0,64.0,60.0,1.0,0.0
4678,66.0,64.0,60.0,0.0,0.0
4679,54.0,13.0,180.0,1.0,0.0
4680,58.0,0.0,60.0,0.0,0.0
4681,70.0,51.0,60.0,0.0,0.0
4682,66.0,64.0,60.0,0.0,0.0
4683,65.0,0.0,60.0,0.0,0.0
4684,53.0,64.0,60.0,1.0,0.0
4685,46.0,19.0,240.0,1.0,0.0
4686,39.0,0.0,240.0,1.0,0.0
4687,34.0,0.0,240.0,1.0,0.0
4688,51.0,13.0,180.0,1.0,0.0
4689,63.0,64.0,60.0,0.0,0.0
4690,58.0,51.0,60.0,0.0,0.0
4691,63.0,45.0,60.0,0.0,0.0
4692,65.0,0.0,60.0,0.0,0.0
4693,53.0,64.0,60.0,1.0,0.0
4694,54.0,6.0,120.0,1.0,0.0
4695,66.0,58.0,60.0,0.0,0.0
4696,70.0,64.0,60.0,0.0,0.0
4697,58.0,0.0,60.0,0.0,0.0
4698,66.0,0.0,60.0,0.0,0.0
4699,56.0,64.0,60.0,1.0,0.0
4700,65.0,64.0,60.0,0.0,0.0
4701,54.0,0.0,60.0,1.0,0.0
4702,65.0,64.0,60.0,0.0,0.0
4703,53.0,13.0,180.0,1.0,0.0
4704,34.0,0.0,240.0,1.0,0.0
4705,41.0,0.0,240.0,1.0,0.0
4706,46.0,19.0,240.0,1.0,0.0
4707,62.0,51.0,60.0,0.0,0.0
4708,65.0,45.0,60.0,0.0,0.0
4709,54.0,64.0,60.0,1.0,0.0
4710,66.0,0.0,60.0,0.0,0.0
4711,68.0,64.0,60.0,0.0,0.0
4712,56.0,13.0,180.0,1.0,0.0
4713,59.0,0.0,60.0,0.0,0.0
4714,71.0,51.0,60.0,0.0,0.0
4715,68.0,64.0,60.0,0.0,0.0
4716,54.0,64.0,60.0,1.0,0.0
4717,66.0,0.0,60.0,0.0,0.0
4718,65.0,64.0,60.0,0.0,0.0
4719,53.0,13.0,180.0,1.0,0.0
4720,34.0,0.0,240.0,1.0,0.0
4721,41.0,0.0,240.0,1.0,0.0
4722,46.0,19.0,240.0,1.0,0.0
4723,62.0,51.0,60.0,0.0,0.0
4724,65.0,45.0,60.0,0.0,0.0
4725,66.0,0.0,60.0,0.0,0.0
4726,54.0,64.0,60.0,1.0,0.0
4727,56.0,13.0,180.0,1.0,0.0
4728,68.0,64.0,60.0,0.0,0.0
4729,59.0,0.0,60.0,0.0,0.0
4730,71.0,51.0,60.0,0.0,0.0
4731,68.0,64.0,60.0,0.0,0.0
4732,66.0,0.0,60.0,0.0,0.0
4733,54.0,64.0,60.0,1.0,0.0
4734,53.0,64.0,60.0,0.0,0.0
4735,34.0,0.0,240.0,1.0,0.0
4736,42.0,0.0,240.0,1.0,0.0
4737,65.0,0.0,60.0,0.0,0.0
4738,46.0,19.0,240.0,1.0,0.0
4739,66.0,64.0,60.0,0.0,0.0
4740,70.0,0.0,60.0,0.0,0.0
4741,58.0,45.0,60.0,1.0,0.0
4742,62.0,0.0,60.0,1.0,0.0
4743,74.0,64.0,60.0,0.0,0.0
4744,75.0,64.0,60.0,0.0,0.0
4745,63.0,13.0,180.0,1.0,0.0
4746,66.0,0.0,60.0,0.0,0.0
4747,78.0,51.0,60.0,0.0,0.0
4748,75.0,64.0,60.0,0.0,0.0
4749,58.0,64.0,60.0,1.0,0.0
4750,70.0,0.0,60.0,0.0,0.0
4751,66.0,64.0,60.0,0.0,0.0
4752,34.0,0.0,240.0,1.0,0.0
4753,54.0,13.0,180.0,1.0,0.0
4754,42.0,0.0,240.0,1.0,0.0
4755,63.0,51.0,60.0,0.0,0.0
4756,66.0,45.0,60.0,0.0,0.0
4757,58.0,64.0,60.0,1.0,0.0
4758,46.0,19.0,30.0,1.0,0.0
4759,70.0,0.0,60.0,0.0,0.0
4760,75.0,0.0,60.0,0.0,0.0
4761,51.0,64.0,60.0,1.0,0.0
4762,66.0,0.0,60.0,0.0,0.0
4763,78.0,0.0,60.0,0.0,0.0
4764,54.0,64.0,60.0,1.0,0.0
4765,51.0,0.0,60.0,1.0,0.0
4766,75.0,64.0,60.0,0.0,0.0
4767,46.0,0.0,60.0,1.0,0.0
4768,70.0,64.0,60.0,0.0,0.0
4769,34.0,0.0,240.0,1.0,0.0
4770,68.0,0.0,60.0,0.0,0.0
4771,58.0,0.0,240.0,0.0,0.0
4772,44.0,64.0,60.0,1.0,0.0
4773,46.0,19.0,240.0,1.0,0.0
4774,56.0,13.0,180.0,1.0,0.0
4775,65.0,51.0,60.0,0.0,0.0
4776,41.0,0.0,60.0,1.0,0.0
4777,44.0,45.0,60.0,1.0,0.0
4778,68.0,0.0,60.0,0.0,0.0
4779,47.0,0.0,60.0,1.0,0.0
4780,59.0,64.0,60.0,1.0,0.0
4781,71.0,0.0,60.0,0.0,0.0
4782,74.0,0.0,60.0,0.0,0.0
4783,50.0,64.0,60.0,1.0,0.0
4784,53.0,64.0,60.0,1.0,0.0
4785,65.0,0.0,60.0,0.0,0.0
4786,77.0,0.0,60.0,0.0,0.0
4787,74.0,0.0,60.0,0.0,0.0
4788,50.0,64.0,60.0,1.0,0.0
4789,70.0,0.0,60.0,0.0,0.0
4790,47.0,64.0,60.0,1.0,0.0
4791,68.0,0.0,60.0,0.0,0.0
4792,58.0,19.0,240.0,0.0,0.0
4793,44.0,64.0,60.0,1.0,0.0
4794,34.0,0.0,240.0,1.0,0.0
4795,46.0,0.0,240.0,1.0,0.0
4796,56.0,13.0,180.0,1.0,0.0
4797,65.0,0.0,60.0,0.0,0.0
4798,41.0,51.0,60.0,1.0,0.0
4799,68.0,0.0,60.0,0.0,0.0
4800,44.0,45.0,60.0,1.0,0.0
4801,71.0,64.0,60.0,0.0,0.0
4802,59.0,0.0,60.0,1.0,0.0
4803,47.0,0.0,60.0,1.0,0.0
4804,74.0,0.0,60.0,0.0,0.0
4805,50.0,64.0,60.0,1.0,0.0
4806,65.0,0.0,60.0,0.0,0.0
4807,77.0,0.0,60.0,0.0,0.0
4808,53.0,64.0,60.0,1.0,0.0
4809,74.0,64.0,60.0,0.0,0.0
4810,50.0,0.0,60.0,1.0,0.0
4811,71.0,0.0,60.0,0.0,0.0
4812,47.0,0.0,60.0,1.0,0.0
4813,59.0,122.0,60.0,1.0,0.0
4814,70.0,0.0,120.0,0.0,0.0
4815,58.0,6.0,120.0,1.0,0.0
4816,50.0,0.0,120.0,1.0,0.0
4817,62.0,0.0,120.0,0.0,0.0
4818,34.0,0.0,60.0,1.0,0.0
4819,46.0,64.0,60.0,1.0,0.0
4820,32.0,0.0,60.0,1.0,0.0
4821,44.0,64.0,60.0,1.0,0.0
4822,46.0,64.0,60.0,1.0,0.0
4823,34.0,0.0,60.0,1.0,0.0
4824,70.0,6.0,120.0,0.0,0.0
4825,75.0,0.0,120.0,0.0,0.0
4826,82.0,0.0,120.0,0.0,0.0
4827,30.0,58.0,60.0,1.0,0.0
4828,42.0,0.0,60.0,1.0,0.0
4829,34.0,64.0,60.0,1.0,0.0
4830,46.0,0.0,60.0,1.0,0.0
4831,41.0,58.0,60.0,1.0,0.0
4832,29.0,0.0,60.0,1.0,0.0
4833,68.0,0.0,120.0,0.0,0.0
4834,74.0,0.0,120.0,0.0,0.0
4835,80.0,6.0,120.0,0.0,0.0
4836,34.0,64.0,60.0,1.0,0.0
4837,46.0,0.0,60.0,1.0,0.0
4838,66.0,0.0,240.0,0.0,0.0
4839,78.0,0.0,240.0,0.0,0.0
4840,27.0,0.0,60.0,1.0,0.0
4841,39.0,64.0,60.0,1.0,0.0
4842,75.0,19.0,240.0,0.0,0.0
4843,39.0,0.0,60.0,1.0,0.0
4844,51.0,64.0,60.0,1.0,0.0
4845,37.0,0.0,60.0,1.0,0.0
4846,49.0,45.0,60.0,1.0,0.0
4847,39.0,0.0,60.0,1.0,0.0
4848,51.0,64.0,60.0,1.0,0.0
4849,68.0,0.0,120.0,0.0,0.0
4850,75.0,0.0,120.0,0.0,0.0
4851,80.0,6.0,120.0,0.0,0.0
4852,35.0,58.0,60.0,1.0,0.0
4853,47.0,0.0,60.0,1.0,0.0
4854,39.0,0.0,60.0,1.0,0.0
4855,51.0,64.0,60.0,1.0,0.0
4856,70.0,0.0,120.0,0.0,0.0
4857,79.0,0.0,120.0,0.0,0.0
4858,82.0,6.0,120.0,0.0,0.0
4859,34.0,58.0,60.0,1.0,0.0
4860,46.0,0.0,60.0,1.0,0.0
4861,51.0,64.0,60.0,1.0,0.0
4862,39.0,0.0,60.0,1.0,0.0
4863,44.0,64.0,60.0,1.0,0.0
4864,83.0,19.0,240.0,0.0,0.0
4865,80.0,0.0,240.0,0.0,0.0
4866,32.0,0.0,60.0,1.0,0.0
4867,71.0,0.0,240.0,0.0,0.0
4868,75.0,0.0,240.0,0.0,0.0
4869,32.0,0.0,60.0,1.0,0.0
4870,44.0,64.0,60.0,1.0,0.0
4871,42.0,0.0,60.0,1.0,0.0
4872,30.0,45.0,60.0,1.0,0.0
4873,44.0,64.0,60.0,1.0,0.0
4874,32.0,0.0,60.0,1.0,0.0
4875,73.0,0.0,120.0,0.0,0.0
4876,80.0,0.0,120.0,0.0,0.0
4877,85.0,6.0,120.0,0.0,0.0
4878,29.0,0.0,60.0,1.0,0.0
4879,41.0,58.0,60.0,1.0,0.0
4880,32.0,0.0,60.0,1.0,0.0
4881,44.0,64.0,60.0,1.0,0.0
4882,75.0,0.0,120.0,0.0,0.0
4883,78.0,6.0,120.0,0.0,0.0
4884,84.0,0.0,120.0,0.0,0.0
4885,87.0,0.0,120.0,0.0,0.0
4886,27.0,58.0,60.0,1.0,0.0
4887,39.0,0.0,60.0,1.0,0.0
4888,44.0,64.0,60.0,1.0,0.0
4889,32.0,0.0,60.0,1.0,0.0
4890,77.0,0.0,240.0,0.0,0.0
4891,80.0,19.0,240.0,0.0,0.0
4892,85.0,0.0,240.0,0.0,0.0
4893,89.0,0.0,240.0,0.0,0.0
4894,25.0,64.0,60.0,1.0,0.0
4895,37.0,0.0,60.0,1.0,0.0
4896,37.0,0.0,60.0,1.0,0.0
4897,49.0,64.0,60.0,1.0,0.0
4898,35.0,0.0,60.0,1.0,0.0
4899,47.0,45.0,60.0,1.0,0.0
4900,37.0,0.0,60.0,1.0,0.0
4901,49.0,64.0,60.0,1.0,0.0
4902,85.0,6.0,120.0,0.0,0.0
4903,34.0,0.0,60.0,1.0,0.0
4904,46.0,58.0,60.0,1.0,0.0
4905,73.0,0.0,120.0,0.0,0.0
4906,78.0,0.0,120.0,0.0,0.0
4907,37.0,0.0,60.0,1.0,0.0
4908,49.0,64.0,60.0,1.0,0.0
4909,77.0,6.0,120.0,0.0,0.0
4910,83.0,0.0,120.0,0.0,0.0
4911,32.0,0.0,60.0,1.0,0.0
4912,44.0,58.0,60.0,1.0,0.0
4913,71.0,0.0,120.0,0.0,0.0
4914,37.0,0.0,60.0,1.0,0.0
4915,49.0,64.0,60.0,1.0,0.0
4916,70.0,0.0,60.0,0.0,0.0
4917,78.0,0.0,60.0,0.0,0.0
4918,82.0,58.0,60.0,0.0,0.0
4919,30.0,0.0,120.0,1.0,0.0
4920,42.0,6.0,120.0,1.0,0.0
4921,75.0,0.0,60.0,0.0,0.0
4922,83.0,64.0,60.0,0.0,0.0
4923,71.0,0.0,60.0,0.0,0.0
4924,70.0,0.0,60.0,0.0,0.0
4925,73.0,0.0,60.0,0.0,0.0
4926,82.0,58.0,60.0,0.0,0.0
4927,35.0,0.0,120.0,1.0,0.0
4928,47.0,6.0,120.0,1.0,0.0
4929,71.0,0.0,60.0,0.0,0.0
4930,80.0,64.0,60.0,0.0,0.0
4931,68.0,0.0,60.0,0.0,0.0
4932,49.0,6.0,120.0,1.0,0.0
4933,66.0,0.0,60.0,0.0,0.0
4934,70.0,58.0,60.0,0.0,0.0
4935,78.0,0.0,60.0,0.0,0.0
4936,37.0,0.0,120.0,1.0,0.0
4937,68.0,0.0,60.0,0.0,0.0
4938,71.0,0.0,60.0,0.0,0.0
4939,80.0,64.0,60.0,0.0,0.0
4940,25.0,0.0,120.0,1.0,0.0
4941,66.0,0.0,60.0,0.0,0.0
4942,70.0,0.0,60.0,0.0,0.0
4943,37.0,6.0,120.0,1.0,0.0
4944,78.0,58.0,60.0,0.0,0.0
4945,68.0,0.0,60.0,0.0,0.0
4946,77.0,64.0,60.0,0.0,0.0
4947,65.0,0.0,60.0,0.0,0.0
4948,63.0,0.0,60.0,0.0,0.0
4949,66.0,0.0,60.0,0.0,0.0
4950,75.0,58.0,60.0,0.0,0.0
4951,27.0,0.0,120.0,1.0,0.0
4952,39.0,6.0,120.0,1.0,0.0
4953,68.0,0.0,60.0,0.0,0.0
4954,71.0,0.0,60.0,0.0,0.0
4955,80.0,64.0,60.0,0.0,0.0
4956,44.0,6.0,120.0,1.0,0.0
4957,70.0,0.0,60.0,0.0,0.0
4958,78.0,0.0,60.0,0.0,0.0
4959,32.0,0.0,120.0,1.0,0.0
4960,66.0,58.0,60.0,0.0,0.0
4961,65.0,0.0,60.0,0.0,0.0
4962,68.0,64.0,60.0,0.0,0.0
4963,77.0,0.0,60.0,0.0,0.0
4964,66.0,0.0,60.0,0.0,0.0
4965,75.0,58.0,60.0,0.0,0.0
4966,34.0,6.0,120.0,1.0,0.0
4967,46.0,0.0,120.0,1.0,0.0
4968,63.0,0.0,60.0,0.0,0.0
4969,65.0,0.0,60.0,0.0,0.0
4970,77.0,0.0,60.0,0.0,0.0
4971,68.0,64.0,60.0,0.0,0.0
4972,63.0,0.0,60.0,0.0,0.0
4973,66.0,0.0,60.0,0.0,0.0
4974,75.0,58.0,60.0,0.0,0.0
4975,22.0,0.0,120.0,1.0,0.0
4976,34.0,6.0,120.0,1.0,0.0
4977,74.0,64.0,60.0,0.0,0.0
4978,62.0,0.0,60.0,0.0,0.0
4979,65.0,0.0,60.0,0.0,0.0
4980,63.0,0.0,60.0,0.0,0.0
4981,66.0,64.0,60.0,0.0,0.0
4982,75.0,0.0,60.0,0.0,0.0
4983,27.0,0.0,240.0,1.0,0.0
4984,39.0,19.0,240.0,1.0,0.0
4985,61.0,0.0,60.0,0.0,0.0
4986,65.0,0.0,60.0,0.0,0.0
4987,73.0,64.0,60.0,0.0,0.0
4988,60.0,0.0,60.0,0.0,0.0
4989,63.0,0.0,60.0,0.0,0.0
4990,72.0,45.0,60.0,0.0,0.0
4991,70.0,122.0,60.0,0.0,0.0
4992,58.0,0.0,60.0,0.0,0.0
4993,61.0,0.0,60.0,0.0,0.0
4994,57.0,0.0,120.0,0.0,0.0
4995,60.0,6.0,120.0,0.0,0.0
4996,69.0,0.0,120.0,0.0,0.0
4997,41.0,0.0,60.0,1.0,0.0
4998,29.0,64.0,60.0,1.0,0.0
4999,60.0,0.0,120.0,0.0,0.0
5000,63.0,6.0,120.0,0.0,0.0
5001,72.0,0.0,120.0,0.0,0.0
5002,27.0,0.0,60.0,1.0,0.0
5003,39.0,58.0,60.0,1.0,0.0
5004,29.0,0.0,60.0,1.0,0.0
5005,41.0,64.0,60.0,1.0,0.0
5006,61.0,0.0,60.0,0.0,0.0
5007,65.0,0.0,60.0,0.0,0.0
5008,73.0,58.0,60.0,0.0,0.0
5009,25.0,0.0,120.0,1.0,0.0
5010,37.0,6.0,120.0,1.0,0.0
5011,75.0,64.0,60.0,0.0,0.0
5012,67.0,0.0,60.0,0.0,0.0
5013,63.0,0.0,60.0,0.0,0.0
5014,65.0,0.0,60.0,0.0,0.0
5015,69.0,0.0,60.0,0.0,0.0
5016,77.0,58.0,60.0,0.0,0.0
5017,22.0,0.0,120.0,1.0,0.0
5018,34.0,6.0,120.0,1.0,0.0
5019,79.0,64.0,60.0,0.0,0.0
5020,70.0,0.0,60.0,0.0,0.0
5021,67.0,0.0,60.0,0.0,0.0
5022,69.0,64.0,60.0,0.0,0.0
5023,72.0,0.0,60.0,0.0,0.0
5024,81.0,0.0,60.0,0.0,0.0
5025,29.0,0.0,240.0,1.0,0.0
5026,41.0,19.0,240.0,1.0,0.0
5027,70.0,64.0,60.0,0.0,0.0
5028,73.0,0.0,60.0,0.0,0.0
5029,82.0,0.0,60.0,0.0,0.0
5030,75.0,0.0,60.0,0.0,0.0
5031,84.0,0.0,60.0,0.0,0.0
5032,72.0,45.0,60.0,0.0,0.0
5033,77.0,0.0,60.0,0.0,0.0
5034,85.0,122.0,60.0,0.0,0.0
5035,73.0,0.0,60.0,0.0,0.0
5036,75.0,0.0,120.0,0.0,0.0
5037,78.0,0.0,120.0,0.0,0.0
5038,87.0,6.0,120.0,0.0,0.0
5039,22.0,0.0,1500.0,1.0,0.0
5040,34.0,38.0,1500.0,1.0,0.0
5041,54.0,0.0,60.0,1.0,0.0
5042,66.0,64.0,60.0,1.0,0.0
5043,73.0,0.0,60.0,0.0,0.0
5044,77.0,0.0,60.0,0.0,0.0
5045,85.0,0.0,60.0,0.0,0.0
5046,53.0,0.0,60.0,1.0,0.0
5047,65.0,64.0,60.0,1.0,0.0
5048,72.0,0.0,60.0,0.0,0.0
5049,75.0,64.0,60.0,0.0,0.0
5050,84.0,0.0,60.0,0.0,0.0
5051,51.0,0.0,60.0,1.0,0.0
5052,63.0,0.0,60.0,1.0,0.0
5053,85.0,6.0,120.0,0.0,0.0
5054,49.0,58.0,60.0,1.0,0.0
5055,61.0,0.0,60.0,1.0,0.0
5056,73.0,0.0,120.0,0.0,0.0
5057,77.0,0.0,120.0,0.0,0.0
5058,53.0,64.0,60.0,1.0,0.0
5059,65.0,0.0,60.0,1.0,0.0
5060,69.0,6.0,120.0,0.0,0.0
5061,72.0,0.0,120.0,0.0,0.0
5062,81.0,0.0,120.0,0.0,0.0
5063,48.0,0.0,60.0,1.0,0.0
5064,60.0,58.0,60.0,1.0,0.0
5065,53.0,64.0,60.0,1.0,0.0
5066,65.0,0.0,60.0,1.0,0.0
5067,58.0,58.0,60.0,1.0,0.0
5068,82.0,0.0,120.0,0.0,0.0
5069,73.0,0.0,120.0,0.0,0.0
5070,70.0,6.0,120.0,0.0,0.0
5071,46.0,0.0,60.0,1.0,0.0
5072,65.0,0.0,60.0,1.0,0.0
5073,53.0,64.0,60.0,1.0,0.0
5074,57.0,58.0,60.0,1.0,0.0
5075,45.0,0.0,60.0,1.0,0.0
5076,84.0,6.0,120.0,0.0,0.0
5077,72.0,0.0,120.0,0.0,0.0
5078,77.0,0.0,120.0,0.0,0.0
5079,53.0,0.0,60.0,1.0,0.0
5080,65.0,64.0,60.0,1.0,0.0
5081,85.0,6.0,120.0,0.0,0.0
5082,73.0,0.0,120.0,0.0,0.0
5083,46.0,58.0,60.0,1.0,0.0
5084,77.0,0.0,120.0,0.0,0.0
5085,58.0,0.0,60.0,1.0,0.0
5086,65.0,64.0,60.0,1.0,0.0
5087,53.0,0.0,60.0,1.0,0.0
5088,77.0,0.0,120.0,0.0,0.0
5089,75.0,6.0,120.0,0.0,0.0
5090,87.0,0.0,120.0,0.0,0.0
5091,48.0,58.0,60.0,1.0,0.0
5092,60.0,0.0,60.0,1.0,0.0
5093,65.0,0.0,60.0,1.0,0.0
5094,53.0,64.0,60.0,1.0,0.0
5095,89.0,0.0,120.0,0.0,0.0
5096,77.0,6.0,120.0,0.0,0.0
5097,49.0,58.0,60.0,1.0,0.0
5098,61.0,0.0,60.0,1.0,0.0
5099,65.0,64.0,60.0,1.0,0.0
5100,53.0,0.0,60.0,1.0,0.0
5101,77.0,0.0,120.0,0.0,0.0
5102,69.0,0.0,120.0,0.0,0.0
5103,53.0,58.0,60.0,1.0,0.0
5104,81.0,6.0,120.0,0.0,0.0
5105,41.0,0.0,60.0,1.0,0.0
5106,53.0,64.0,60.0,1.0,0.0
5107,65.0,0.0,60.0,1.0,0.0
5108,43.0,0.0,60.0,1.0,0.0
5109,82.0,6.0,120.0,0.0,0.0
5110,55.0,58.0,60.0,1.0,0.0
5111,70.0,0.0,120.0,0.0,0.0
5112,77.0,0.0,120.0,0.0,0.0
5113,53.0,0.0,60.0,1.0,0.0
5114,65.0,64.0,60.0,1.0,0.0
5115,72.0,6.0,120.0,0.0,0.0
5116,77.0,0.0,120.0,0.0,0.0
5117,84.0,0.0,120.0,0.0,0.0
5118,45.0,0.0,60.0,1.0,0.0
5119,57.0,20.0,60.0,1.0,0.0
5120,53.0,0.0,60.0,1.0,0.0
5121,65.0,64.0,60.0,1.0,0.0
5122,85.0,6.0,120.0,0.0,0.0
5123,58.0,58.0,60.0,1.0,0.0
5124,73.0,0.0,120.0,0.0,0.0
5125,77.0,0.0,120.0,0.0,0.0
5126,46.0,0.0,60.0,1.0,0.0
5127,65.0,0.0,60.0,1.0,0.0
5128,53.0,64.0,60.0,1.0,0.0
5129,84.0,6.0,120.0,0.0,0.0
5130,72.0,0.0,120.0,0.0,0.0
5131,57.0,58.0,60.0,1.0,0.0
5132,77.0,0.0,120.0,0.0,0.0
5133,45.0,0.0,60.0,1.0,0.0
5134,53.0,0.0,60.0,1.0,0.0
5135,65.0,64.0,60.0,1.0,0.0
5136,58.0,58.0,60.0,1.0,0.0
5137,46.0,0.0,60.0,1.0,0.0
5138,85.0,6.0,120.0,0.0,0.0
5139,73.0,0.0,120.0,0.0,0.0
5140,77.0,0.0,120.0,0.0,0.0
5141,53.0,0.0,60.0,1.0,0.0
5142,65.0,64.0,60.0,1.0,0.0
5143,70.0,0.0,120.0,0.0,0.0
5144,77.0,6.0,120.0,0.0,0.0
5145,82.0,0.0,120.0,0.0,0.0
5146,46.0,58.0,60.0,1.0,0.0
5147,34.0,0.0,120.0,1.0,0.0
5148,43.0,0.0,120.0,1.0,0.0
5149,73.0,0.0,120.0,0.0,0.0
5150,53.0,0.0,60.0,1.0,0.0
5151,65.0,122.0,60.0,1.0,0.0
5152,72.0,0.0,120.0,0.0,0.0
5153,77.0,0.0,120.0,0.0,0.0
5154,81.0,0.0,120.0,0.0,0.0
5155,84.0,0.0,120.0,0.0,0.0
5156,29.0,0.0,120.0,1.0,0.0
5157,33.0,0.0,120.0,1.0,0.0
5158,36.0,0.0,120.0,1.0,0.0
5159,41.0,128.0,120.0,1.0,0.0
5160,82.0,0.0,120.0,0.0,0.0
5161,70.0,0.0,120.0,0.0,0.0
5162,77.0,0.0,120.0,0.0,0.0
5163,25.0,0.0,120.0,1.0,0.0
5164,73.0,0.0,120.0,0.0,0.0
5165,34.0,0.0,120.0,1.0,0.0
5166,37.0,128.0,120.0,1.0,0.0
5167,29.0,0.0,120.0,1.0,0.0
5168,34.0,0.0,120.0,1.0,0.0
5169,30.0,0.0,120.0,1.0,0.0
5170,78.0,0.0,120.0,0.0,0.0
5171,82.0,0.0,120.0,0.0,0.0
5172,39.0,0.0,120.0,1.0,0.0
5173,27.0,0.0,120.0,1.0,0.0
5174,70.0,128.0,120.0,0.0,0.0
5175,75.0,0.0,120.0,0.0,0.0
5176,77.0,0.0,120.0,0.0,0.0
5177,41.0,0.0,120.0,1.0,0.0
5178,72.0,0.0,120.0,0.0,0.0
5179,33.0,0.0,120.0,1.0,0.0
5180,36.0,0.0,120.0,1.0,0.0
5181,29.0,0.0,120.0,1.0,0.0
5182,81.0,0.0,120.0,0.0,0.0
5183,69.0,128.0,120.0,0.0,0.0
5184,37.0,0.0,120.0,1.0,0.0
5185,34.0,0.0,120.0,1.0,0.0
5186,29.0,0.0,120.0,1.0,0.0
5187,82.0,0.0,120.0,0.0,0.0
5188,77.0,0.0,120.0,0.0,0.0
5189,73.0,0.0,120.0,0.0,0.0
5190,70.0,128.0,120.0,0.0,0.0
5191,25.0,0.0,120.0,1.0,0.0
5192,73.0,0.0,120.0,0.0,0.0
5193,77.0,0.0,120.0,0.0,0.0
5194,22.0,0.0,120.0,1.0,0.0
5195,82.0,0.0,120.0,0.0,0.0
5196,25.0,0.0,120.0,1.0,0.0
5197,34.0,128.0,120.0,1.0,0.0
5198,85.0,0.0,120.0,0.0,0.0
5199,29.0,0.0,120.0,1.0,0.0
5200,39.0,115.0,120.0,1.0,0.0
5201,36.0,0.0,120.0,1.0,0.0
5202,34.0,0.0,120.0,1.0,0.0
5203,30.0,0.0,120.0,1.0,0.0
5204,27.0,0.0,120.0,1.0,0.0
5205,78.0,0.0,120.0,0.0,0.0
5206,70.0,0.0,120.0,0.0,0.0
5207,84.0,13.0,240.0,0.0,0.0
5208,72.0,0.0,240.0,0.0,0.0
5209,82.0,0.0,120.0,0.0,0.0
5210,41.0,474.0,120.0,1.0,0.0
5211,36.0,0.0,120.0,1.0,0.0
5212,32.0,0.0,120.0,1.0,0.0
5213,77.0,0.0,120.0,0.0,0.0
5214,80.0,0.0,120.0,0.0,0.0
5215,68.0,0.0,120.0,0.0,0.0
5216,29.0,0.0,120.0,1.0,0.0
5217,82.0,0.0,450.0,0.0,0.0
5218,73.0,0.0,450.0,0.0,0.0
5219,30.0,0.0,450.0,1.0,0.0
5220,34.0,0.0,450.0,1.0,0.0
5221,37.0,0.0,450.0,1.0,0.0
5222,42.0,111.0,450.0,1.0,0.0
5223,78.0,0.0,450.0,0.0,0.0
5224,70.0,0.0,450.0,0.0,0.0
5225,85.0,0.0,30.0,0.0,0.0
5226,61.0,32.0,30.0,1.0,0.0
5227,63.0,32.0,30.0,1.0,0.0
5228,87.0,0.0,30.0,0.0,0.0
5229,89.0,0.0,30.0,0.0,0.0
5230,65.0,32.0,30.0,1.0,0.0
5231,90.0,0.0,30.0,0.0,0.0
5232,66.0,32.0,30.0,1.0,0.0
5233,77.0,32.0,30.0,0.0,0.0
5234,53.0,0.0,30.0,1.0,0.0
5235,78.0,32.0,30.0,0.0,0.0
5236,54.0,0.0,30.0,1.0,0.0
5237,80.0,32.0,30.0,0.0,0.0
5238,56.0,0.0,30.0,1.0,0.0
5239,82.0,0.0,30.0,0.0,0.0
5240,58.0,32.0,30.0,1.0,0.0
5241,80.0,0.0,30.0,0.0,0.0
5242,56.0,32.0,30.0,1.0,0.0
5243,82.0,32.0,30.0,0.0,0.0
5244,58.0,0.0,30.0,1.0,0.0
5245,59.0,32.0,30.0,1.0,0.0
5246,83.0,0.0,30.0,0.0,0.0
5247,85.0,0.0,30.0,0.0,0.0
5248,61.0,32.0,30.0,1.0,0.0
5249,73.0,0.0,30.0,0.0,0.0
5250,49.0,32.0,30.0,1.0,0.0
5251,75.0,0.0,30.0,0.0,0.0
5252,51.0,32.0,30.0,1.0,0.0
5253,77.0,0.0,30.0,0.0,0.0
5254,53.0,32.0,30.0,1.0,0.0
5255,78.0,0.0,30.0,0.0,0.0
5256,66.0,32.0,30.0,1.0,0.0
5257,77.0,0.0,30.0,0.0,0.0
5258,65.0,32.0,30.0,1.0,0.0
5259,78.0,0.0,30.0,0.0,0.0
5260,66.0,32.0,30.0,1.0,0.0
5261,80.0,0.0,30.0,0.0,0.0
5262,68.0,32.0,30.0,1.0,0.0
5263,82.0,0.0,30.0,0.0,0.0
5264,70.0,32.0,30.0,1.0,0.0
5265,77.0,32.0,30.0,0.0,0.0
5266,65.0,0.0,30.0,1.0,0.0
5267,75.0,0.0,30.0,0.0,0.0
5268,63.0,32.0,30.0,1.0,0.0
5269,73.0,0.0,30.0,0.0,0.0
5270,61.0,32.0,30.0,1.0,0.0
5271,59.0,32.0,30.0,1.0,0.0
5272,71.0,0.0,30.0,0.0,0.0
5273,75.0,0.0,30.0,0.0,0.0
5274,63.0,32.0,30.0,1.0,0.0
5275,77.0,32.0,30.0,0.0,0.0
5276,65.0,0.0,30.0,1.0,0.0
5277,78.0,0.0,30.0,0.0,0.0
5278,66.0,32.0,30.0,1.0,0.0
5279,80.0,0.0,30.0,0.0,0.0
5280,68.0,32.0,30.0,1.0,0.0
5281,63.0,0.0,30.0,1.0,0.0
5282,75.0,32.0,30.0,0.0,0.0
5283,61.0,0.0,30.0,1.0,0.0
5284,73.0,32.0,30.0,0.0,0.0
5285,59.0,32.0,30.0,1.0,0.0
5286,71.0,0.0,30.0,0.0,0.0
5287,70.0,0.0,30.0,0.0,0.0
5288,58.0,32.0,30.0,1.0,0.0
5289,73.0,0.0,30.0,0.0,0.0
5290,49.0,32.0,30.0,1.0,0.0
5291,75.0,0.0,30.0,0.0,0.0
5292,51.0,32.0,30.0,1.0,0.0
5293,53.0,0.0,30.0,1.0,0.0
5294,77.0,32.0,30.0,0.0,0.0
5295,78.0,32.0,30.0,0.0,0.0
5296,54.0,0.0,30.0,1.0,0.0
5297,65.0,0.0,30.0,0.0,0.0
5298,53.0,32.0,30.0,1.0,0.0
5299,54.0,32.0,30.0,1.0,0.0
5300,66.0,0.0,30.0,0.0,0.0
5301,68.0,0.0,30.0,0.0,0.0
5302,56.0,32.0,30.0,1.0,0.0
5303,70.0,32.0,30.0,0.0,0.0
5304,58.0,0.0,30.0,1.0,0.0
5305,68.0,0.0,30.0,0.0,0.0
5306,44.0,32.0,30.0,1.0,0.0
5307,70.0,0.0,30.0,0.0,0.0
5308,46.0,32.0,30.0,1.0,0.0
5309,71.0,32.0,30.0,0.0,0.0
5310,47.0,0.0,30.0,1.0,0.0
5311,49.0,32.0,30.0,1.0,0.0
5312,73.0,0.0,30.0,0.0,0.0
5313,61.0,0.0,30.0,0.0,0.0
5314,49.0,32.0,30.0,1.0,0.0
5315,63.0,0.0,30.0,0.0,0.0
5316,51.0,32.0,30.0,1.0,0.0
5317,65.0,0.0,30.0,0.0,0.0
5318,53.0,32.0,30.0,1.0,0.0
5319,54.0,32.0,30.0,1.0,0.0
5320,77.0,0.0,30.0,0.0,0.0
5321,53.0,32.0,30.0,1.0,0.0
5322,54.0,32.0,30.0,1.0,0.0
5323,78.0,0.0,30.0,0.0,0.0
5324,80.0,0.0,30.0,0.0,0.0
5325,56.0,32.0,30.0,1.0,0.0
5326,82.0,0.0,30.0,0.0,0.0
5327,58.0,32.0,30.0,1.0,0.0
5328,56.0,32.0,30.0,1.0,0.0
5329,65.0,0.0,30.0,0.0,0.0
5330,54.0,32.0,30.0,1.0,0.0
5331,63.0,0.0,30.0,0.0,0.0
5332,61.0,0.0,30.0,0.0,0.0
5333,53.0,32.0,30.0,1.0,0.0
5334,63.0,0.0,30.0,0.0,0.0
5335,51.0,32.0,30.0,1.0,0.0
5336,78.0,32.0,30.0,0.0,0.0
5337,54.0,0.0,30.0,1.0,0.0
5338,80.0,0.0,30.0,0.0,0.0
5339,56.0,32.0,30.0,1.0,0.0
5340,58.0,32.0,30.0,1.0,0.0
5341,82.0,0.0,30.0,0.0,0.0
5342,83.0,32.0,30.0,0.0,0.0
5343,59.0,0.0,30.0,1.0,0.0
5344,70.0,0.0,30.0,0.0,0.0
5345,58.0,32.0,30.0,1.0,0.0
5346,68.0,32.0,30.0,0.0,0.0
5347,56.0,0.0,30.0,1.0,0.0
5348,66.0,0.0,30.0,0.0,0.0
5349,54.0,32.0,30.0,1.0,0.0
5350,61.0,0.0,30.0,0.0,0.0
5351,53.0,32.0,30.0,1.0,0.0
5352,80.0,0.0,30.0,0.0,0.0
5353,56.0,32.0,30.0,1.0,0.0
5354,82.0,0.0,30.0,0.0,0.0
5355,58.0,32.0,30.0,1.0,0.0
5356,84.0,0.0,30.0,0.0,0.0
5357,60.0,32.0,30.0,1.0,0.0
5358,74.0,32.0,30.0,0.0,0.0
5359,86.0,0.0,30.0,0.0,0.0
5360,62.0,0.0,30.0,1.0,0.0
5361,71.0,0.0,30.0,0.0,0.0
5362,59.0,32.0,30.0,1.0,0.0
5363,70.0,0.0,30.0,0.0,0.0
5364,58.0,32.0,30.0,1.0,0.0
5365,56.0,0.0,30.0,1.0,0.0
5366,68.0,32.0,30.0,0.0,0.0
5367,66.0,0.0,30.0,0.0,0.0
5368,54.0,32.0,30.0,1.0,0.0
5369,74.0,0.0,30.0,0.0,0.0
5370,62.0,32.0,30.0,1.0,0.0
5371,75.0,32.0,30.0,0.0,0.0
5372,63.0,0.0,30.0,1.0,0.0
5373,77.0,0.0,30.0,0.0,0.0
5374,65.0,32.0,30.0,1.0,0.0
5375,78.0,0.0,30.0,0.0,0.0
5376,66.0,29.0,30.0,1.0,0.0
5377,80.0,0.0,30.0,0.0,0.0
5378,68.0,32.0,30.0,1.0,0.0
5379,70.0,0.0,60.0,0.0,0.0
5380,82.0,3.0,60.0,0.0,0.0
5381,66.0,29.0,30.0,1.0,0.0
5382,65.0,0.0,60.0,1.0,0.0
5383,78.0,0.0,30.0,0.0,0.0
5384,63.0,0.0,30.0,1.0,0.0
5385,75.0,465.0,30.0,0.0,0.0
5386,75.0,0.0,720.0,0.0,0.0
5387,78.0,0.0,720.0,0.0,0.0
5388,33.0,0.0,450.0,1.0,0.0
5389,39.0,0.0,450.0,1.0,0.0
5390,42.0,0.0,450.0,1.0,0.0
5391,84.0,0.0,720.0,0.0,0.0
5392,63.0,0.0,450.0,0.0,0.0
5393,66.0,140.0,450.0,0.0,0.0
5394,72.0,0.0,450.0,0.0,0.0
5395,51.0,0.0,450.0,1.0,0.0
5396,60.0,0.0,450.0,1.0,0.0
5397,54.0,0.0,450.0,1.0,0.0
5398,45.0,256.0,210.0,1.0,0.0
5399,25.0,0.0,360.0,1.0,0.0
5400,37.0,141.0,360.0,1.0,0.0
5401,58.0,0.0,240.0,1.0,0.0
5402,49.0,0.0,240.0,1.0,0.0
5403,53.0,0.0,240.0,1.0,0.0
5404,77.0,0.0,240.0,0.0,0.0
5405,73.0,0.0,240.0,0.0,0.0
5406,70.0,0.0,240.0,0.0,0.0
5407,82.0,13.0,240.0,0.0,0.0
5408,34.0,0.0,120.0,1.0,0.0
5409,46.0,474.0,120.0,1.0,0.0
5410,67.0,172.0,450.0,0.0,0.0
5411,73.0,0.0,450.0,0.0,0.0
5412,79.0,0.0,450.0,0.0,0.0
5413,82.0,0.0,450.0,0.0,0.0
5414,28.0,0.0,450.0,1.0,0.0
5415,31.0,0.0,450.0,1.0,0.0
5416,34.0,0.0,450.0,1.0,0.0
5417,40.0,0.0,450.0,1.0,0.0
5418,40.0,0.0,60.0,1.0,0.0
5419,52.0,64.0,60.0,1.0,0.0
5420,43.0,0.0,60.0,1.0,0.0
5421,55.0,64.0,60.0,1.0,0.0
5422,49.0,64.0,60.0,1.0,0.0
5423,37.0,0.0,60.0,1.0,0.0
5424,40.0,64.0,60.0,1.0,0.0
5425,52.0,0.0,60.0,1.0,0.0
5426,34.0,64.0,60.0,1.0,0.0
5427,46.0,0.0,60.0,1.0,0.0
5428,49.0,0.0,60.0,1.0,0.0
5429,37.0,64.0,60.0,1.0,0.0
5430,43.0,0.0,60.0,1.0,0.0
5431,31.0,64.0,60.0,1.0,0.0
5432,46.0,0.0,60.0,1.0,0.0
5433,34.0,64.0,60.0,1.0,0.0
5434,40.0,0.0,60.0,1.0,0.0
5435,28.0,122.0,60.0,1.0,0.0
5436,29.0,0.0,120.0,1.0,0.0
5437,41.0,220.0,120.0,1.0,0.0
5438,24.0,188.0,840.0,1.0,0.0
5439,36.0,0.0,840.0,1.0,0.0
5440,70.0,0.0,90.0,0.0,0.0
5441,76.0,0.0,90.0,0.0,0.0
5442,60.0,0.0,90.0,1.0,0.0
5443,58.0,0.0,90.0,1.0,0.0
5444,55.0,0.0,90.0,1.0,0.0
5445,72.0,0.0,90.0,0.0,0.0
5446,48.0,394.0,90.0,1.0,0.0
5447,82.0,0.0,90.0,0.0,0.0
5448,52.0,0.0,90.0,1.0,0.0
5449,79.0,0.0,90.0,0.0,0.0
5450,76.0,0.0,450.0,0.0,0.0
5451,84.0,0.0,450.0,0.0,0.0
5452,77.0,96.0,360.0,0.0,0.0
5453,48.0,0.0,750.0,1.0,0.0
5454,53.0,44.0,450.0,1.0,0.0
5455,56.0,0.0,750.0,1.0,0.0
5456,65.0,0.0,360.0,1.0,0.0
5457,72.0,0.0,960.0,0.0,0.0
5458,75.0,0.0,60.0,0.0,0.0
5459,63.0,20.0,60.0,1.0,0.0
5460,73.0,0.0,60.0,0.0,0.0
5461,61.0,69.0,60.0,1.0,0.0
5462,63.0,111.0,450.0,0.0,0.0
5463,68.0,0.0,450.0,0.0,0.0
5464,51.0,211.0,240.0,1.0,0.0
5465,60.0,0.0,240.0,1.0,0.0
5466,63.0,0.0,30.0,0.0,0.0
5467,75.0,32.0,30.0,0.0,0.0
5468,61.0,29.0,30.0,1.0,0.0
5469,73.0,3.0,30.0,0.0,0.0
5470,75.0,0.0,30.0,0.0,0.0
5471,63.0,19.0,30.0,0.0,0.0
5472,72.0,16.0,15.0,0.0,0.0
5473,60.0,29.0,30.0,1.0,0.0
5474,72.0,32.0,30.0,0.0,0.0
5475,60.0,0.0,30.0,0.0,0.0
5476,70.0,3.0,30.0,0.0,0.0
5477,58.0,29.0,30.0,1.0,0.0
5478,60.0,0.0,30.0,0.0,0.0
5479,72.0,19.0,30.0,0.0,0.0
5480,68.0,16.0,15.0,0.0,0.0
5481,56.0,29.0,30.0,1.0,0.0
5482,77.0,32.0,30.0,0.0,0.0
5483,65.0,0.0,30.0,0.0,0.0
5484,63.0,29.0,30.0,1.0,0.0
5485,75.0,3.0,30.0,0.0,0.0
5486,77.0,19.0,30.0,0.0,0.0
5487,65.0,0.0,30.0,0.0,0.0
5488,61.0,29.0,30.0,1.0,0.0
5489,73.0,16.0,15.0,0.0,0.0
5490,73.0,32.0,30.0,0.0,0.0
5491,61.0,0.0,30.0,0.0,0.0
5492,60.0,29.0,30.0,1.0,0.0
5493,72.0,3.0,30.0,0.0,0.0
5494,61.0,0.0,30.0,0.0,0.0
5495,73.0,19.0,30.0,0.0,0.0
5496,70.0,16.0,15.0,0.0,0.0
5497,58.0,29.0,30.0,1.0,0.0
5498,79.0,0.0,30.0,0.0,0.0
5499,67.0,32.0,30.0,0.0,0.0
5500,77.0,3.0,30.0,0.0,0.0
5501,65.0,29.0,30.0,1.0,0.0
5502,67.0,0.0,30.0,0.0,0.0
5503,79.0,19.0,30.0,0.0,0.0
5504,75.0,16.0,15.0,0.0,0.0
5505,63.0,29.0,30.0,1.0,0.0
5506,75.0,0.0,30.0,0.0,0.0
5507,63.0,32.0,30.0,0.0,0.0
5508,61.0,29.0,30.0,1.0,0.0
5509,73.0,3.0,30.0,0.0,0.0
5510,75.0,0.0,30.0,0.0,0.0
5511,63.0,19.0,30.0,0.0,0.0
5512,72.0,16.0,15.0,0.0,0.0
5513,60.0,29.0,30.0,1.0,0.0
5514,68.0,32.0,30.0,0.0,0.0
5515,80.0,0.0,30.0,0.0,0.0
5516,79.0,3.0,30.0,0.0,0.0
5517,67.0,29.0,30.0,1.0,0.0
5518,68.0,0.0,30.0,0.0,0.0
5519,80.0,19.0,30.0,0.0,0.0
5520,77.0,16.0,15.0,0.0,0.0
5521,65.0,29.0,30.0,1.0,0.0
5522,70.0,0.0,30.0,0.0,0.0
5523,82.0,32.0,30.0,0.0,0.0
5524,80.0,3.0,30.0,0.0,0.0
5525,68.0,29.0,30.0,1.0,0.0
5526,82.0,19.0,30.0,0.0,0.0
5527,70.0,0.0,30.0,0.0,0.0
5528,79.0,16.0,15.0,0.0,0.0
5529,67.0,29.0,30.0,1.0,0.0
5530,84.0,32.0,30.0,0.0,0.0
5531,72.0,0.0,30.0,0.0,0.0
5532,82.0,3.0,30.0,0.0,0.0
5533,70.0,29.0,30.0,1.0,0.0
5534,72.0,0.0,30.0,0.0,0.0
5535,84.0,19.0,30.0,0.0,0.0
5536,80.0,16.0,15.0,0.0,0.0
5537,68.0,29.0,30.0,1.0,0.0
5538,85.0,32.0,30.0,0.0,0.0
5539,73.0,0.0,30.0,0.0,0.0
5540,72.0,29.0,30.0,1.0,0.0
5541,84.0,3.0,30.0,0.0,0.0
5542,73.0,19.0,30.0,0.0,0.0
5543,85.0,0.0,30.0,0.0,0.0
5544,82.0,16.0,15.0,0.0,0.0
5545,70.0,29.0,30.0,1.0,0.0
5546,75.0,0.0,30.0,0.0,0.0
5547,87.0,32.0,30.0,0.0,0.0
5548,85.0,3.0,30.0,0.0,0.0
5549,73.0,29.0,30.0,1.0,0.0
5550,75.0,19.0,30.0,0.0,0.0
5551,87.0,0.0,30.0,0.0,0.0
5552,72.0,29.0,30.0,1.0,0.0
5553,84.0,16.0,15.0,0.0,0.0
5554,80.0,0.0,30.0,0.0,0.0
5555,68.0,32.0,30.0,0.0,0.0
5556,79.0,3.0,30.0,0.0,0.0
5557,67.0,29.0,30.0,1.0,0.0
5558,68.0,32.0,30.0,0.0,0.0
5559,80.0,0.0,30.0,0.0,0.0
5560,77.0,3.0,30.0,0.0,0.0
5561,65.0,29.0,30.0,1.0,0.0
5562,70.0,0.0,30.0,0.0,0.0
5563,82.0,32.0,30.0,0.0,0.0
5564,80.0,3.0,30.0,0.0,0.0
5565,68.0,29.0,30.0,1.0,0.0
5566,82.0,0.0,30.0,0.0,0.0
5567,70.0,32.0,30.0,0.0,0.0
5568,79.0,3.0,30.0,0.0,0.0
5569,67.0,29.0,30.0,1.0,0.0
5570,76.0,32.0,30.0,0.0,0.0
5571,64.0,0.0,30.0,0.0,0.0
5572,74.0,3.0,30.0,0.0,0.0
5573,62.0,29.0,30.0,1.0,0.0
5574,64.0,0.0,30.0,0.0,0.0
5575,76.0,32.0,30.0,0.0,0.0
5576,72.0,3.0,30.0,0.0,0.0
5577,60.0,29.0,30.0,1.0,0.0
5578,80.0,0.0,30.0,0.0,0.0
5579,68.0,32.0,30.0,0.0,0.0
5580,67.0,29.0,30.0,1.0,0.0
5581,79.0,3.0,30.0,0.0,0.0
5582,68.0,0.0,30.0,0.0,0.0
5583,80.0,32.0,30.0,0.0,0.0
5584,77.0,3.0,30.0,0.0,0.0
5585,65.0,29.0,30.0,1.0,0.0
5586,61.0,32.0,30.0,0.0,0.0
5587,73.0,0.0,30.0,0.0,0.0
5588,72.0,3.0,30.0,0.0,0.0
5589,60.0,29.0,30.0,1.0,0.0
5590,61.0,0.0,30.0,0.0,0.0
5591,73.0,32.0,30.0,0.0,0.0
5592,70.0,3.0,30.0,0.0,0.0
5593,58.0,29.0,30.0,1.0,0.0
5594,67.0,0.0,30.0,0.0,0.0
5595,79.0,32.0,30.0,0.0,0.0
5596,77.0,3.0,30.0,0.0,0.0
5597,65.0,29.0,30.0,1.0,0.0
5598,67.0,0.0,30.0,0.0,0.0
5599,79.0,35.0,30.0,0.0,0.0
5600,56.0,29.0,30.0,1.0,0.0
5601,65.0,32.0,30.0,0.0,0.0
5602,77.0,0.0,30.0,0.0,0.0
5603,64.0,29.0,30.0,1.0,0.0
5604,76.0,3.0,30.0,0.0,0.0
5605,65.0,0.0,30.0,0.0,0.0
5606,77.0,35.0,30.0,0.0,0.0
5607,55.0,29.0,30.0,1.0,0.0
5608,64.0,0.0,30.0,0.0,0.0
5609,76.0,32.0,30.0,0.0,0.0
5610,62.0,29.0,30.0,1.0,0.0
5611,73.0,3.0,30.0,0.0,0.0
5612,64.0,0.0,30.0,0.0,0.0
5613,76.0,35.0,30.0,0.0,0.0
5614,60.0,29.0,30.0,1.0,0.0
5615,56.0,0.0,30.0,0.0,0.0
5616,68.0,32.0,30.0,0.0,0.0
5617,67.0,0.0,30.0,0.0,0.0
5618,55.0,32.0,30.0,1.0,0.0
5619,65.0,0.0,30.0,0.0,0.0
5620,53.0,32.0,30.0,1.0,0.0
5621,64.0,0.0,30.0,0.0,0.0
5622,52.0,32.0,30.0,1.0,0.0
5623,58.0,0.0,30.0,0.0,0.0
5624,70.0,0.0,30.0,0.0,0.0
5625,58.0,32.0,30.0,1.0,0.0
5626,68.0,32.0,30.0,0.0,0.0
5627,56.0,0.0,30.0,1.0,0.0
5628,67.0,32.0,30.0,0.0,0.0
5629,55.0,0.0,30.0,1.0,0.0
5630,65.0,0.0,30.0,0.0,0.0
5631,53.0,32.0,30.0,1.0,0.0
5632,60.0,0.0,30.0,0.0,0.0
5633,72.0,0.0,30.0,0.0,0.0
5634,60.0,32.0,30.0,1.0,0.0
5635,58.0,0.0,30.0,1.0,0.0
5636,70.0,32.0,30.0,0.0,0.0
5637,56.0,32.0,30.0,1.0,0.0
5638,68.0,0.0,30.0,0.0,0.0
5639,55.0,0.0,30.0,1.0,0.0
5640,67.0,32.0,30.0,0.0,0.0
5641,61.0,32.0,30.0,1.0,0.0
5642,73.0,0.0,30.0,0.0,0.0
5643,61.0,0.0,30.0,0.0,0.0
5644,72.0,32.0,30.0,0.0,0.0
5645,60.0,0.0,30.0,1.0,0.0
5646,70.0,0.0,30.0,0.0,0.0
5647,58.0,32.0,30.0,1.0,0.0
5648,68.0,0.0,30.0,0.0,0.0
5649,56.0,32.0,30.0,1.0,0.0
5650,63.0,0.0,30.0,0.0,0.0
5651,75.0,0.0,30.0,0.0,0.0
5652,63.0,32.0,30.0,1.0,0.0
5653,73.0,0.0,30.0,0.0,0.0
5654,61.0,32.0,30.0,1.0,0.0
5655,72.0,0.0,30.0,0.0,0.0
5656,60.0,32.0,30.0,1.0,0.0
5657,58.0,0.0,30.0,1.0,0.0
5658,70.0,32.0,30.0,0.0,0.0
5659,65.0,0.0,30.0,0.0,0.0
5660,77.0,32.0,30.0,0.0,0.0
5661,65.0,0.0,30.0,1.0,0.0
5662,75.0,0.0,30.0,0.0,0.0
5663,63.0,32.0,30.0,1.0,0.0
5664,73.0,0.0,30.0,0.0,0.0
5665,61.0,32.0,30.0,1.0,0.0
5666,72.0,0.0,30.0,0.0,0.0
5667,60.0,32.0,30.0,1.0,0.0
5668,75.0,32.0,30.0,0.0,0.0
5669,51.0,0.0,30.0,1.0,0.0
5670,77.0,0.0,30.0,0.0,0.0
5671,53.0,32.0,30.0,1.0,0.0
5672,79.0,0.0,30.0,0.0,0.0
5673,55.0,234.0,30.0,1.0,0.0
5674,80.0,0.0,240.0,0.0,0.0
5675,56.0,13.0,240.0,1.0,0.0
5676,39.0,0.0,120.0,1.0,0.0
5677,68.0,0.0,90.0,0.0,0.0
5678,72.0,0.0,120.0,0.0,0.0
5679,75.0,128.0,120.0,0.0,0.0
5680,36.0,0.0,120.0,1.0,0.0
5681,48.0,0.0,120.0,1.0,0.0
5682,44.0,0.0,120.0,1.0,0.0
5683,63.0,0.0,120.0,0.0,0.0
5684,45.0,0.0,120.0,1.0,0.0
5685,69.0,41.0,120.0,0.0,0.0
5686,72.0,0.0,120.0,0.0,0.0
5687,77.0,0.0,120.0,0.0,0.0
5688,48.0,0.0,120.0,1.0,0.0
5689,39.0,0.0,120.0,1.0,0.0
5690,51.0,0.0,120.0,1.0,0.0
5691,81.0,0.0,120.0,0.0,0.0
5692,53.0,0.0,120.0,1.0,0.0
5693,48.0,0.0,30.0,1.0,0.0
5694,57.0,32.0,30.0,1.0,0.0
5695,65.0,0.0,30.0,0.0,0.0
5696,69.0,0.0,30.0,0.0,0.0
5697,53.0,32.0,30.0,1.0,0.0
5698,60.0,0.0,30.0,1.0,0.0
5699,65.0,0.0,30.0,0.0,0.0
5700,72.0,32.0,30.0,0.0,0.0
5701,69.0,0.0,30.0,0.0,0.0
5702,77.0,119.0,30.0,0.0,0.0
5703,65.0,0.0,120.0,0.0,0.0
5704,72.0,0.0,120.0,0.0,0.0
5705,81.0,128.0,120.0,0.0,0.0
5706,69.0,0.0,120.0,0.0,0.0
5707,72.0,0.0,120.0,0.0,0.0
5708,77.0,0.0,120.0,0.0,0.0
5709,81.0,0.0,120.0,0.0,0.0
5710,45.0,0.0,120.0,1.0,0.0
5711,48.0,0.0,120.0,1.0,0.0
5712,51.0,0.0,120.0,1.0,0.0
5713,53.0,0.0,120.0,1.0,0.0
5714,39.0,128.0,120.0,1.0,0.0
5715,70.0,41.0,120.0,0.0,0.0
5716,73.0,0.0,120.0,0.0,0.0
5717,77.0,0.0,120.0,0.0,0.0
5718,82.0,0.0,120.0,0.0,0.0
5719,37.0,0.0,120.0,1.0,0.0
5720,41.0,0.0,120.0,1.0,0.0
5721,46.0,0.0,120.0,1.0,0.0
5722,49.0,0.0,120.0,1.0,0.0
5723,65.0,0.0,30.0,0.0,0.0
5724,49.0,0.0,30.0,1.0,0.0
5725,58.0,32.0,30.0,1.0,0.0
5726,61.0,0.0,30.0,1.0,0.0
5727,70.0,0.0,30.0,0.0,0.0
5728,53.0,32.0,30.0,1.0,0.0
5729,65.0,0.0,30.0,0.0,0.0
5730,73.0,32.0,30.0,0.0,0.0
5731,70.0,119.0,30.0,0.0,0.0
5732,77.0,0.0,30.0,0.0,0.0
5733,65.0,0.0,120.0,0.0,0.0
5734,73.0,0.0,120.0,0.0,0.0
5735,82.0,128.0,120.0,0.0,0.0
5736,70.0,0.0,120.0,0.0,0.0
5737,73.0,0.0,120.0,0.0,0.0
5738,77.0,0.0,120.0,0.0,0.0
5739,82.0,0.0,120.0,0.0,0.0
5740,37.0,0.0,120.0,1.0,0.0
5741,46.0,0.0,120.0,1.0,0.0
5742,49.0,128.0,120.0,1.0,0.0
5743,41.0,0.0,120.0,1.0,0.0
5744,51.0,0.0,120.0,1.0,0.0
5745,49.0,0.0,120.0,1.0,0.0
5746,46.0,0.0,120.0,1.0,0.0
5747,43.0,41.0,120.0,1.0,0.0
5748,79.0,0.0,120.0,0.0,0.0
5749,75.0,0.0,120.0,0.0,0.0
5750,70.0,0.0,120.0,0.0,0.0
5751,37.0,0.0,120.0,1.0,0.0
5752,67.0,0.0,120.0,0.0,0.0
5753,46.0,0.0,30.0,1.0,0.0
5754,55.0,32.0,30.0,1.0,0.0
5755,63.0,0.0,30.0,0.0,0.0
5756,51.0,0.0,30.0,1.0,0.0
5757,58.0,32.0,30.0,1.0,0.0
5758,67.0,0.0,30.0,0.0,0.0
5759,63.0,0.0,30.0,0.0,0.0
5760,70.0,32.0,30.0,0.0,0.0
5761,67.0,0.0,30.0,0.0,0.0
5762,75.0,119.0,30.0,0.0,0.0
5763,63.0,0.0,120.0,0.0,0.0
5764,79.0,128.0,120.0,0.0,0.0
5765,70.0,0.0,120.0,0.0,0.0
5766,43.0,0.0,120.0,1.0,0.0
5767,67.0,0.0,120.0,0.0,0.0
5768,70.0,0.0,120.0,0.0,0.0
5769,75.0,0.0,120.0,0.0,0.0
5770,51.0,0.0,120.0,1.0,0.0
5771,49.0,0.0,120.0,1.0,0.0
5772,46.0,128.0,120.0,1.0,0.0
5773,79.0,0.0,120.0,0.0,0.0
5774,37.0,0.0,120.0,1.0,0.0
5775,36.0,0.0,120.0,1.0,0.0
5776,80.0,0.0,120.0,0.0,0.0
5777,44.0,0.0,120.0,1.0,0.0
5778,75.0,0.0,120.0,0.0,0.0
5779,72.0,0.0,120.0,0.0,0.0
5780,68.0,0.0,120.0,0.0,0.0
5781,39.0,41.0,120.0,1.0,0.0
5782,48.0,0.0,120.0,1.0,0.0
5783,63.0,0.0,30.0,0.0,0.0
5784,48.0,0.0,30.0,1.0,0.0
5785,56.0,32.0,30.0,1.0,0.0
5786,60.0,0.0,30.0,1.0,0.0
5787,51.0,0.0,30.0,1.0,0.0
5788,68.0,32.0,30.0,0.0,0.0
5789,72.0,32.0,30.0,0.0,0.0
5790,63.0,0.0,30.0,0.0,0.0
5791,68.0,0.0,30.0,0.0,0.0
5792,75.0,119.0,30.0,0.0,0.0
5793,63.0,0.0,120.0,0.0,0.0
5794,72.0,0.0,120.0,0.0,0.0
5795,80.0,128.0,120.0,0.0,0.0
5796,72.0,0.0,120.0,0.0,0.0
5797,75.0,0.0,120.0,0.0,0.0
5798,80.0,0.0,120.0,0.0,0.0
5799,36.0,0.0,120.0,1.0,0.0
5800,39.0,0.0,120.0,1.0,0.0
5801,44.0,128.0,120.0,1.0,0.0
5802,48.0,0.0,120.0,1.0,0.0
5803,68.0,0.0,120.0,0.0,0.0
5804,65.0,0.0,120.0,0.0,0.0
5805,68.0,41.0,120.0,0.0,0.0
5806,73.0,0.0,120.0,0.0,0.0
5807,77.0,0.0,120.0,0.0,0.0
5808,36.0,0.0,120.0,1.0,0.0
5809,41.0,0.0,120.0,1.0,0.0
5810,44.0,0.0,120.0,1.0,0.0
5811,48.0,0.0,120.0,1.0,0.0
5812,49.0,0.0,120.0,1.0,0.0
5813,61.0,0.0,30.0,0.0,0.0
5814,44.0,0.0,30.0,1.0,0.0
5815,53.0,32.0,30.0,1.0,0.0
5816,65.0,32.0,30.0,0.0,0.0
5817,56.0,0.0,30.0,1.0,0.0
5818,49.0,0.0,30.0,1.0,0.0
5819,68.0,0.0,30.0,0.0,0.0
5820,61.0,32.0,30.0,0.0,0.0
5821,73.0,119.0,30.0,0.0,0.0
5822,65.0,0.0,30.0,0.0,0.0
5823,68.0,0.0,120.0,0.0,0.0
5824,77.0,128.0,120.0,0.0,0.0
5825,61.0,0.0,120.0,0.0,0.0
5826,48.0,0.0,120.0,1.0,0.0
5827,44.0,0.0,120.0,1.0,0.0
5828,68.0,0.0,120.0,0.0,0.0
5829,73.0,0.0,120.0,0.0,0.0
5830,77.0,0.0,120.0,0.0,0.0
5831,36.0,0.0,120.0,1.0,0.0
5832,41.0,0.0,120.0,1.0,0.0
5833,65.0,128.0,120.0,0.0,0.0
5834,49.0,0.0,120.0,1.0,0.0
5835,42.0,0.0,120.0,1.0,0.0
5836,70.0,0.0,120.0,0.0,0.0
5837,73.0,0.0,120.0,0.0,0.0
5838,78.0,41.0,120.0,0.0,0.0
5839,34.0,0.0,120.0,1.0,0.0
5840,66.0,0.0,120.0,0.0,0.0
5841,37.0,0.0,120.0,1.0,0.0
5842,46.0,0.0,120.0,1.0,0.0
5843,61.0,0.0,30.0,0.0,0.0
5844,46.0,0.0,30.0,1.0,0.0
5845,54.0,32.0,30.0,1.0,0.0
5846,58.0,0.0,30.0,1.0,0.0
5847,49.0,32.0,30.0,1.0,0.0
5848,66.0,0.0,30.0,0.0,0.0
5849,61.0,0.0,30.0,0.0,0.0
5850,70.0,32.0,30.0,0.0,0.0
5851,66.0,119.0,30.0,0.0,0.0
5852,73.0,0.0,30.0,0.0,0.0
5853,61.0,0.0,120.0,0.0,0.0
5854,70.0,128.0,120.0,0.0,0.0
5855,78.0,0.0,120.0,0.0,0.0
5856,46.0,0.0,120.0,1.0,0.0
5857,42.0,0.0,120.0,1.0,0.0
5858,37.0,0.0,120.0,1.0,0.0
5859,34.0,0.0,120.0,1.0,0.0
5860,66.0,0.0,120.0,0.0,0.0
5861,70.0,128.0,120.0,0.0,0.0
5862,73.0,0.0,120.0,0.0,0.0
5863,78.0,0.0,120.0,0.0,0.0
5864,66.0,41.0,120.0,0.0,0.0
5865,72.0,0.0,120.0,0.0,0.0
5866,75.0,0.0,120.0,0.0,0.0
5867,78.0,0.0,120.0,0.0,0.0
5868,33.0,0.0,120.0,1.0,0.0
5869,39.0,0.0,120.0,1.0,0.0
5870,42.0,0.0,120.0,1.0,0.0
5871,48.0,0.0,120.0,1.0,0.0
5872,54.0,32.0,30.0,1.0,0.0
5873,48.0,0.0,30.0,1.0,0.0
5874,63.0,0.0,30.0,0.0,0.0
5875,66.0,0.0,30.0,0.0,0.0
5876,51.0,32.0,30.0,1.0,0.0
5877,60.0,0.0,30.0,1.0,0.0
5878,63.0,0.0,30.0,0.0,0.0
5879,72.0,32.0,30.0,0.0,0.0
5880,66.0,0.0,30.0,0.0,0.0
5881,75.0,119.0,30.0,0.0,0.0
5882,63.0,0.0,120.0,0.0,0.0
5883,72.0,128.0,120.0,0.0,0.0
5884,78.0,0.0,120.0,0.0,0.0
5885,66.0,0.0,120.0,0.0,0.0
5886,78.0,0.0,120.0,0.0,0.0
5887,33.0,0.0,120.0,1.0,0.0
5888,39.0,0.0,120.0,1.0,0.0
5889,42.0,0.0,120.0,1.0,0.0
5890,48.0,128.0,120.0,1.0,0.0
5891,72.0,0.0,120.0,0.0,0.0
5892,75.0,0.0,120.0,0.0,0.0
5893,74.0,0.0,120.0,0.0,0.0
5894,65.0,0.0,120.0,0.0,0.0
5895,46.0,0.0,120.0,1.0,0.0
5896,41.0,0.0,120.0,1.0,0.0
5897,38.0,41.0,120.0,1.0,0.0
5898,32.0,0.0,120.0,1.0,0.0
5899,77.0,0.0,120.0,0.0,0.0
5900,70.0,0.0,120.0,0.0,0.0
5901,62.0,0.0,30.0,0.0,0.0
5902,46.0,0.0,30.0,1.0,0.0
5903,53.0,32.0,30.0,1.0,0.0
5904,65.0,0.0,30.0,0.0,0.0
5905,50.0,32.0,30.0,1.0,0.0
5906,58.0,0.0,30.0,1.0,0.0
5907,62.0,32.0,30.0,0.0,0.0
5908,70.0,0.0,30.0,0.0,0.0
5909,65.0,119.0,30.0,0.0,0.0
5910,74.0,0.0,30.0,0.0,0.0
5911,70.0,0.0,120.0,0.0,0.0
5912,62.0,115.0,120.0,0.0,0.0
5913,77.0,13.0,240.0,0.0,0.0
5914,38.0,0.0,120.0,1.0,0.0
5915,32.0,0.0,120.0,1.0,0.0
5916,62.0,0.0,120.0,0.0,0.0
5917,58.0,0.0,120.0,0.0,0.0
5918,53.0,243.0,120.0,0.0,0.0
5919,44.0,0.0,120.0,1.0,0.0
5920,41.0,0.0,120.0,1.0,0.0
5921,46.0,0.0,120.0,1.0,0.0
5922,51.0,0.0,240.0,1.0,0.0
5923,70.0,0.0,240.0,0.0,0.0
5924,54.0,0.0,240.0,0.0,0.0
5925,58.0,0.0,240.0,0.0,0.0
5926,46.0,0.0,240.0,1.0,0.0
5927,53.0,0.0,240.0,1.0,0.0
5928,27.0,0.0,240.0,1.0,0.0
5929,34.0,0.0,240.0,1.0,0.0
5930,39.0,0.0,240.0,1.0,0.0
5931,41.0,0.0,240.0,1.0,0.0
5932,66.0,256.0,240.0,0.0,0.0
5933,65.0,0.0,240.0,0.0,0.0
5934,53.0,0.0,240.0,0.0,0.0
5935,77.0,0.0,240.0,0.0,0.0
5936,51.0,0.0,240.0,1.0,0.0
5937,46.0,0.0,240.0,1.0,0.0
5938,58.0,0.0,240.0,0.0,0.0
5939,54.0,0.0,240.0,0.0,0.0
5940,51.0,0.0,240.0,0.0,0.0
5941,70.0,0.0,240.0,0.0,0.0
5942,66.0,0.0,240.0,0.0,0.0
5943,63.0,0.0,240.0,0.0,0.0
5944,30.0,0.0,240.0,1.0,0.0
5945,42.0,0.0,240.0,1.0,0.0
5946,39.0,0.0,240.0,1.0,0.0
5947,54.0,0.0,240.0,1.0,0.0
5948,34.0,0.0,240.0,1.0,0.0
5949,75.0,0.0,450.0,0.0,0.0
5950,57.0,0.0,240.0,0.0,0.0
5951,42.0,0.0,240.0,1.0,0.0
5952,45.0,0.0,240.0,1.0,0.0
5953,48.0,0.0,240.0,1.0,0.0
5954,24.0,0.0,240.0,1.0,0.0
5955,30.0,0.0,240.0,1.0,0.0
5956,33.0,0.0,240.0,1.0,0.0
5957,36.0,0.0,240.0,1.0,0.0
5958,54.0,0.0,240.0,0.0,0.0
5959,51.0,256.0,240.0,0.0,0.0
5960,66.0,0.0,240.0,0.0,0.0
5961,63.0,25.0,210.0,0.0,0.0
5962,69.0,0.0,240.0,0.0,0.0
5963,49.0,0.0,240.0,1.0,0.0
5964,46.0,0.0,240.0,1.0,0.0
5965,41.0,0.0,240.0,1.0,0.0
5966,58.0,0.0,240.0,0.0,0.0
5967,53.0,0.0,240.0,0.0,0.0
5968,49.0,0.0,240.0,0.0,0.0
5969,70.0,0.0,240.0,0.0,0.0
5970,61.0,0.0,240.0,0.0,0.0
5971,73.0,256.0,240.0,0.0,0.0
5972,34.0,0.0,240.0,1.0,0.0
5973,37.0,0.0,240.0,1.0,0.0
5974,25.0,0.0,240.0,1.0,0.0
5975,65.0,0.0,240.0,0.0,0.0
5976,29.0,0.0,240.0,1.0,0.0
5977,29.0,0.0,450.0,1.0,0.0
5978,41.0,0.0,240.0,1.0,0.0
5979,53.0,0.0,240.0,1.0,0.0
5980,53.0,0.0,240.0,0.0,0.0
5981,48.0,0.0,240.0,0.0,0.0
5982,46.0,0.0,240.0,0.0,0.0
5983,70.0,0.0,240.0,0.0,0.0
5984,65.0,231.0,240.0,0.0,0.0
5985,58.0,0.0,240.0,0.0,0.0
5986,72.0,0.0,450.0,0.0,0.0
5987,60.0,0.0,240.0,0.0,0.0
5988,44.0,0.0,240.0,1.0,0.0
5989,41.0,0.0,210.0,1.0,0.0
5990,36.0,0.0,210.0,1.0,0.0
5991,56.0,0.0,240.0,1.0,0.0
5992,53.0,0.0,240.0,1.0,0.0
5993,48.0,25.0,210.0,1.0,0.0
5994,56.0,0.0,240.0,0.0,0.0
5995,53.0,0.0,240.0,0.0,0.0
5996,68.0,0.0,240.0,0.0,0.0
5997,65.0,0.0,240.0,0.0,0.0
5998,60.0,0.0,210.0,0.0,0.0
5999,48.0,256.0,240.0,0.0,0.0
6000,49.0,0.0,240.0,1.0,0.0
6001,42.0,0.0,240.0,1.0,0.0
6002,46.0,0.0,240.0,1.0,0.0
6003,30.0,0.0,240.0,1.0,0.0
6004,34.0,0.0,240.0,1.0,0.0
6005,37.0,0.0,240.0,1.0,0.0
6006,56.0,0.0,240.0,1.0,0.0
6007,44.0,0.0,240.0,1.0,0.0
6008,56.0,231.0,240.0,0.0,0.0
6009,46.0,0.0,240.0,0.0,0.0
6010,68.0,0.0,240.0,0.0,0.0
6011,65.0,0.0,240.0,0.0,0.0
6012,58.0,0.0,240.0,0.0,0.0
6013,70.0,25.0,450.0,0.0,0.0
6014,53.0,0.0,240.0,0.0,0.0
6015,46.0,0.0,240.0,1.0,0.0
6016,42.0,0.0,240.0,1.0,0.0
6017,34.0,0.0,240.0,1.0,0.0
6018,30.0,0.0,240.0,1.0,0.0
6019,39.0,999.0,240.0,1.0,0.0
6020,27.0,0.0,240.0,1.0,0.0
6021,54.0,0.0,240.0,1.0,0.0
6022,51.0,0.0,240.0,0.0,0.0
6023,58.0,0.0,1230.0,0.0,0.0
6024,63.0,0.0,240.0,0.0,0.0
6025,54.0,0.0,240.0,0.0,0.0
6026,46.0,0.0,1230.0,0.0,0.0
6027,66.0,0.0,240.0,0.0,0.0
6028,29.0,0.0,960.0,1.0,0.0
6029,25.0,0.0,960.0,1.0,0.0
6030,22.0,0.0,960.0,1.0,0.0
6031,41.0,0.0,960.0,1.0,0.0
6032,37.0,0.0,960.0,1.0,0.0
6033,34.0,0.0,960.0,1.0,0.0
6034,49.0,1.0,960.0,0.0,0.0
6035,41.0,0.0,960.0,0.0,0.0
6036,65.0,0.0,960.0,0.0,0.0
6037,61.0,0.0,960.0,0.0,0.0
6038,53.0,0.0,960.0,0.0,0.0
6039,70.0,0.0,960.0,0.0,0.0
6040,46.0,0.0,960.0,1.0,0.0
