,note,step,duration,channel,velocity
0,85.0,6.0,60.0,0.0,0.0
1,54.0,0.0,60.0,14.0,0.0
2,54.0,0.0,60.0,7.0,0.0
3,54.0,0.0,60.0,13.0,0.0
4,54.0,24.0,30.0,3.0,0.0
5,82.0,0.0,60.0,1.0,0.0
6,78.0,0.0,60.0,2.0,0.0
7,54.0,234.0,30.0,3.0,0.0
8,82.0,0.0,240.0,1.0,0.0
9,54.0,0.0,480.0,13.0,0.0
10,54.0,114.0,240.0,3.0,0.0
11,54.0,0.0,900.0,7.0,0.0
12,85.0,0.0,240.0,0.0,0.0
13,54.0,234.0,480.0,14.0,0.0
14,78.0,0.0,240.0,2.0,0.0
15,73.0,6.0,60.0,6.0,0.0
16,78.0,0.0,60.0,5.0,0.0
17,73.0,0.0,180.0,6.0,0.0
18,78.0,0.0,180.0,5.0,0.0
19,68.0,60.0,60.0,4.0,0.0
20,70.0,60.0,60.0,4.0,0.0
21,70.0,0.0,60.0,6.0,0.0
22,73.0,6.0,60.0,5.0,0.0
23,66.0,0.0,60.0,4.0,0.0
24,54.0,0.0,420.0,14.0,0.0
25,73.0,60.0,780.0,4.0,0.0
26,66.0,0.0,480.0,6.0,0.0
27,70.0,0.0,480.0,5.0,0.0
28,54.0,0.0,420.0,13.0,0.0
29,73.0,120.0,60.0,12.0,0.0
30,78.0,0.0,60.0,11.0,0.0
31,78.0,0.0,180.0,11.0,0.0
32,73.0,36.0,180.0,12.0,0.0
33,68.0,60.0,60.0,10.0,0.0
34,70.0,0.0,60.0,10.0,0.0
35,73.0,0.0,60.0,11.0,0.0
36,54.0,0.0,60.0,7.0,0.0
37,54.0,0.0,60.0,14.0,0.0
38,90.0,6.0,60.0,0.0,0.0
39,54.0,0.0,60.0,13.0,0.0
40,70.0,0.0,60.0,12.0,0.0
41,82.0,0.0,60.0,2.0,0.0
42,54.0,24.0,30.0,3.0,0.0
43,85.0,0.0,60.0,1.0,0.0
44,66.0,0.0,60.0,10.0,0.0
45,54.0,234.0,30.0,3.0,0.0
46,54.0,0.0,240.0,3.0,0.0
47,82.0,54.0,240.0,2.0,0.0
48,85.0,0.0,240.0,1.0,0.0
49,54.0,0.0,480.0,14.0,0.0
50,54.0,0.0,480.0,13.0,0.0
51,75.0,60.0,780.0,10.0,0.0
52,70.0,0.0,480.0,11.0,0.0
53,66.0,234.0,480.0,12.0,0.0
54,54.0,36.0,900.0,7.0,0.0
55,90.0,0.0,240.0,0.0,0.0
56,70.0,0.0,60.0,6.0,0.0
57,78.0,6.0,60.0,5.0,0.0
58,78.0,0.0,180.0,5.0,0.0
59,70.0,0.0,180.0,6.0,0.0
60,71.0,60.0,60.0,4.0,0.0
61,73.0,60.0,60.0,4.0,0.0
62,66.0,0.0,60.0,6.0,0.0
63,73.0,0.0,60.0,5.0,0.0
64,70.0,6.0,60.0,4.0,0.0
65,71.0,60.0,780.0,4.0,0.0
66,66.0,234.0,480.0,6.0,0.0
67,54.0,0.0,420.0,13.0,0.0
68,54.0,0.0,420.0,14.0,0.0
69,75.0,0.0,480.0,5.0,0.0
70,71.0,0.0,60.0,12.0,0.0
71,78.0,60.0,60.0,11.0,0.0
72,78.0,0.0,180.0,11.0,0.0
73,71.0,0.0,180.0,12.0,0.0
74,73.0,60.0,60.0,10.0,0.0
75,75.0,0.0,60.0,10.0,0.0
76,54.0,24.0,30.0,3.0,0.0
77,71.0,0.0,60.0,10.0,0.0
78,66.0,0.0,60.0,12.0,0.0
79,75.0,0.0,60.0,11.0,0.0
80,54.0,0.0,60.0,13.0,0.0
81,66.0,0.0,60.0,2.0,0.0
82,54.0,0.0,60.0,14.0,0.0
83,54.0,0.0,60.0,7.0,0.0
84,78.0,6.0,60.0,0.0,0.0
85,83.0,0.0,60.0,1.0,0.0
86,54.0,0.0,30.0,3.0,0.0
87,73.0,0.0,480.0,11.0,0.0
88,85.0,54.0,240.0,0.0,0.0
89,66.0,0.0,240.0,2.0,0.0
90,73.0,60.0,540.0,10.0,0.0
91,54.0,0.0,900.0,7.0,0.0
92,66.0,0.0,480.0,12.0,0.0
93,54.0,54.0,480.0,14.0,0.0
94,54.0,0.0,240.0,3.0,0.0
95,54.0,0.0,480.0,13.0,0.0
96,85.0,0.0,240.0,1.0,0.0
97,73.0,6.0,60.0,6.0,0.0
98,78.0,0.0,60.0,5.0,0.0
99,73.0,0.0,180.0,6.0,0.0
100,78.0,60.0,180.0,5.0,0.0
101,70.0,60.0,60.0,4.0,0.0
102,71.0,0.0,60.0,4.0,0.0
103,71.0,6.0,60.0,5.0,0.0
104,77.0,0.0,60.0,6.0,0.0
105,68.0,0.0,60.0,4.0,0.0
106,54.0,0.0,420.0,14.0,0.0
107,78.0,0.0,240.0,6.0,0.0
108,54.0,0.0,420.0,13.0,0.0
109,73.0,54.0,240.0,5.0,0.0
110,70.0,0.0,60.0,4.0,0.0
111,71.0,60.0,60.0,4.0,0.0
112,71.0,0.0,60.0,10.0,0.0
113,73.0,0.0,60.0,10.0,0.0
114,73.0,60.0,60.0,4.0,0.0
115,78.0,6.0,60.0,12.0,0.0
116,75.0,0.0,60.0,10.0,0.0
117,82.0,0.0,60.0,11.0,0.0
118,75.0,0.0,60.0,4.0,0.0
119,73.0,0.0,180.0,12.0,0.0
120,77.0,60.0,60.0,4.0,0.0
121,77.0,0.0,60.0,10.0,0.0
122,82.0,0.0,180.0,11.0,0.0
123,78.0,0.0,60.0,4.0,0.0
124,78.0,60.0,60.0,10.0,0.0
125,80.0,0.0,60.0,10.0,0.0
126,80.0,36.0,60.0,4.0,0.0
127,82.0,0.0,60.0,4.0,0.0
128,54.0,24.0,30.0,3.0,0.0
129,54.0,0.0,60.0,7.0,0.0
130,54.0,0.0,60.0,14.0,0.0
131,73.0,0.0,60.0,2.0,0.0
132,78.0,0.0,60.0,5.0,0.0
133,54.0,0.0,60.0,13.0,0.0
134,78.0,0.0,60.0,11.0,0.0
135,82.0,0.0,60.0,0.0,0.0
136,73.0,0.0,60.0,6.0,0.0
137,78.0,6.0,60.0,1.0,0.0
138,82.0,0.0,60.0,10.0,0.0
139,73.0,0.0,60.0,12.0,0.0
140,54.0,294.0,30.0,3.0,0.0
141,80.0,0.0,360.0,1.0,0.0
142,54.0,0.0,300.0,14.0,0.0
143,80.0,0.0,360.0,11.0,0.0
144,80.0,0.0,360.0,2.0,0.0
145,75.0,0.0,360.0,6.0,0.0
146,75.0,0.0,360.0,12.0,0.0
147,83.0,4.0,360.0,10.0,0.0
148,54.0,0.0,300.0,7.0,0.0
149,54.0,40.0,360.0,3.0,0.0
150,83.0,0.0,360.0,0.0,0.0
151,83.0,0.0,360.0,4.0,0.0
152,54.0,56.0,300.0,13.0,0.0
153,80.0,0.0,360.0,5.0,0.0
154,53.0,0.0,60.0,7.0,0.0
155,53.0,0.0,60.0,13.0,0.0
156,53.0,6.0,60.0,14.0,0.0
157,83.0,0.0,120.0,10.0,0.0
158,80.0,0.0,120.0,2.0,0.0
159,54.0,14.0,40.0,3.0,0.0
160,75.0,0.0,120.0,6.0,0.0
161,80.0,0.0,120.0,11.0,0.0
162,54.0,26.0,60.0,13.0,0.0
163,83.0,0.0,120.0,4.0,0.0
164,83.0,4.0,120.0,0.0,0.0
165,80.0,0.0,120.0,1.0,0.0
166,75.0,0.0,120.0,12.0,0.0
167,54.0,0.0,60.0,7.0,0.0
168,80.0,0.0,120.0,5.0,0.0
169,54.0,0.0,60.0,14.0,0.0
170,54.0,30.0,40.0,3.0,0.0
171,51.0,6.0,60.0,7.0,0.0
172,51.0,0.0,60.0,13.0,0.0
173,51.0,0.0,60.0,14.0,0.0
174,54.0,174.0,40.0,3.0,0.0
175,49.0,174.0,240.0,3.0,0.0
176,80.0,0.0,240.0,11.0,0.0
177,83.0,0.0,180.0,4.0,0.0
178,53.0,0.0,240.0,14.0,0.0
179,73.0,0.0,240.0,2.0,0.0
180,53.0,0.0,240.0,7.0,0.0
181,53.0,0.0,240.0,13.0,0.0
182,80.0,4.0,240.0,5.0,0.0
183,80.0,0.0,240.0,1.0,0.0
184,73.0,0.0,240.0,12.0,0.0
185,73.0,0.0,240.0,6.0,0.0
186,83.0,0.0,180.0,10.0,0.0
187,83.0,56.0,180.0,0.0,0.0
188,80.0,6.0,60.0,10.0,0.0
189,80.0,0.0,60.0,0.0,0.0
190,80.0,0.0,60.0,4.0,0.0
191,73.0,0.0,240.0,2.0,0.0
192,49.0,0.0,240.0,14.0,0.0
193,85.0,0.0,180.0,0.0,0.0
194,68.0,0.0,240.0,12.0,0.0
195,49.0,174.0,240.0,3.0,0.0
196,49.0,0.0,240.0,13.0,0.0
197,85.0,56.0,180.0,4.0,0.0
198,85.0,0.0,180.0,10.0,0.0
199,80.0,0.0,240.0,1.0,0.0
200,49.0,4.0,240.0,7.0,0.0
201,73.0,0.0,240.0,6.0,0.0
202,77.0,0.0,240.0,11.0,0.0
203,77.0,0.0,240.0,5.0,0.0
204,80.0,0.0,60.0,10.0,0.0
205,80.0,6.0,60.0,4.0,0.0
206,80.0,0.0,60.0,0.0,0.0
207,82.0,0.0,240.0,0.0,0.0
208,82.0,0.0,240.0,4.0,0.0
209,66.0,56.0,180.0,12.0,0.0
210,54.0,60.0,300.0,7.0,0.0
211,78.0,0.0,240.0,1.0,0.0
212,78.0,0.0,240.0,5.0,0.0
213,54.0,0.0,300.0,14.0,0.0
214,73.0,0.0,240.0,2.0,0.0
215,82.0,4.0,240.0,10.0,0.0
216,78.0,0.0,180.0,11.0,0.0
217,54.0,0.0,300.0,13.0,0.0
218,73.0,0.0,240.0,6.0,0.0
219,54.0,0.0,480.0,3.0,0.0
220,70.0,60.0,60.0,12.0,0.0
221,73.0,0.0,60.0,11.0,0.0
222,70.0,0.0,240.0,6.0,0.0
223,78.0,0.0,240.0,0.0,0.0
224,73.0,0.0,240.0,1.0,0.0
225,70.0,56.0,180.0,12.0,0.0
226,78.0,4.0,240.0,10.0,0.0
227,73.0,54.0,240.0,5.0,0.0
228,78.0,0.0,240.0,4.0,0.0
229,70.0,0.0,240.0,2.0,0.0
230,73.0,0.0,180.0,11.0,0.0
231,53.0,60.0,60.0,14.0,0.0
232,53.0,0.0,60.0,7.0,0.0
233,53.0,0.0,60.0,13.0,0.0
234,54.0,0.0,60.0,13.0,0.0
235,54.0,0.0,60.0,14.0,0.0
236,54.0,0.0,60.0,7.0,0.0
237,56.0,6.0,60.0,14.0,0.0
238,56.0,0.0,60.0,13.0,0.0
239,70.0,0.0,60.0,11.0,0.0
240,66.0,0.0,60.0,12.0,0.0
241,56.0,0.0,60.0,7.0,0.0
242,58.0,0.0,60.0,14.0,0.0
243,58.0,60.0,60.0,7.0,0.0
244,58.0,0.0,60.0,13.0,0.0
245,85.0,60.0,540.0,10.0,0.0
246,66.0,0.0,480.0,11.0,0.0
247,85.0,0.0,540.0,4.0,0.0
248,61.0,54.0,480.0,12.0,0.0
249,59.0,0.0,60.0,13.0,0.0
250,59.0,60.0,60.0,14.0,0.0
251,59.0,0.0,60.0,7.0,0.0
252,61.0,60.0,60.0,14.0,0.0
253,61.0,0.0,60.0,7.0,0.0
254,61.0,0.0,60.0,13.0,0.0
255,63.0,0.0,60.0,14.0,0.0
256,82.0,0.0,60.0,5.0,0.0
257,63.0,0.0,60.0,7.0,0.0
258,78.0,0.0,60.0,6.0,0.0
259,63.0,60.0,60.0,13.0,0.0
260,82.0,0.0,180.0,5.0,0.0
261,64.0,60.0,60.0,14.0,0.0
262,64.0,0.0,60.0,7.0,0.0
263,64.0,0.0,60.0,13.0,0.0
264,78.0,60.0,180.0,6.0,0.0
265,63.0,60.0,60.0,7.0,0.0
266,63.0,0.0,60.0,14.0,0.0
267,63.0,0.0,60.0,13.0,0.0
268,64.0,0.0,60.0,14.0,0.0
269,64.0,0.0,60.0,7.0,0.0
270,64.0,0.0,60.0,13.0,0.0
271,61.0,6.0,60.0,7.0,0.0
272,61.0,0.0,60.0,13.0,0.0
273,61.0,0.0,60.0,14.0,0.0
274,76.0,0.0,60.0,5.0,0.0
275,70.0,0.0,60.0,6.0,0.0
276,55.0,56.0,300.0,14.0,0.0
277,75.0,4.0,360.0,5.0,0.0
278,70.0,0.0,360.0,6.0,0.0
279,55.0,0.0,300.0,7.0,0.0
280,55.0,0.0,300.0,13.0,0.0
281,83.0,0.0,60.0,4.0,0.0
282,83.0,60.0,60.0,10.0,0.0
283,85.0,60.0,60.0,4.0,0.0
284,85.0,0.0,60.0,10.0,0.0
285,70.0,0.0,60.0,12.0,0.0
286,82.0,60.0,60.0,10.0,0.0
287,82.0,0.0,60.0,4.0,0.0
288,85.0,0.0,60.0,11.0,0.0
289,87.0,0.0,180.0,4.0,0.0
290,85.0,0.0,180.0,11.0,0.0
291,87.0,0.0,180.0,10.0,0.0
292,70.0,0.0,180.0,12.0,0.0
293,53.0,0.0,60.0,13.0,0.0
294,53.0,60.0,60.0,7.0,0.0
295,53.0,0.0,60.0,14.0,0.0
296,75.0,0.0,120.0,5.0,0.0
297,55.0,0.0,60.0,14.0,0.0
298,70.0,4.0,120.0,6.0,0.0
299,55.0,56.0,60.0,13.0,0.0
300,55.0,0.0,60.0,7.0,0.0
301,82.0,180.0,60.0,11.0,0.0
302,85.0,0.0,60.0,4.0,0.0
303,85.0,0.0,60.0,10.0,0.0
304,67.0,0.0,60.0,12.0,0.0
305,51.0,0.0,60.0,14.0,0.0
306,51.0,0.0,60.0,7.0,0.0
307,51.0,0.0,60.0,13.0,0.0
308,63.0,0.0,240.0,7.0,0.0
309,63.0,0.0,180.0,12.0,0.0
310,83.0,0.0,360.0,10.0,0.0
311,63.0,4.0,240.0,14.0,0.0
312,83.0,64.0,360.0,4.0,0.0
313,75.0,56.0,180.0,6.0,0.0
314,79.0,0.0,180.0,11.0,0.0
315,63.0,0.0,240.0,13.0,0.0
316,79.0,0.0,180.0,5.0,0.0
317,82.0,116.0,60.0,5.0,0.0
318,65.0,0.0,60.0,12.0,0.0
319,82.0,0.0,60.0,11.0,0.0
320,70.0,0.0,60.0,6.0,0.0
321,67.0,0.0,180.0,6.0,0.0
322,51.0,0.0,240.0,7.0,0.0
323,75.0,56.0,180.0,11.0,0.0
324,51.0,0.0,240.0,13.0,0.0
325,75.0,0.0,180.0,5.0,0.0
326,51.0,0.0,240.0,14.0,0.0
327,67.0,0.0,180.0,12.0,0.0
328,82.0,0.0,120.0,10.0,0.0
329,82.0,4.0,120.0,4.0,0.0
330,79.0,0.0,60.0,11.0,0.0
331,63.0,0.0,60.0,12.0,0.0
332,75.0,0.0,60.0,6.0,0.0
333,79.0,180.0,60.0,5.0,0.0
334,56.0,0.0,480.0,13.0,0.0
335,56.0,0.0,480.0,14.0,0.0
336,75.0,0.0,180.0,6.0,0.0
337,83.0,60.0,300.0,4.0,0.0
338,83.0,0.0,300.0,10.0,0.0
339,80.0,60.0,180.0,5.0,0.0
340,56.0,0.0,660.0,7.0,0.0
341,75.0,174.0,480.0,12.0,0.0
342,80.0,0.0,480.0,11.0,0.0
343,80.0,0.0,60.0,5.0,0.0
344,75.0,60.0,60.0,6.0,0.0
345,75.0,0.0,180.0,6.0,0.0
346,80.0,0.0,180.0,5.0,0.0
347,82.0,60.0,60.0,10.0,0.0
348,82.0,0.0,60.0,4.0,0.0
349,83.0,0.0,60.0,4.0,0.0
350,83.0,60.0,60.0,10.0,0.0
351,75.0,0.0,60.0,5.0,0.0
352,80.0,6.0,60.0,4.0,0.0
353,71.0,0.0,60.0,6.0,0.0
354,80.0,0.0,60.0,10.0,0.0
355,76.0,0.0,540.0,4.0,0.0
356,71.0,0.0,240.0,5.0,0.0
357,56.0,0.0,180.0,13.0,0.0
358,56.0,60.0,180.0,14.0,0.0
359,68.0,174.0,240.0,6.0,0.0
360,76.0,60.0,540.0,10.0,0.0
361,71.0,0.0,60.0,11.0,0.0
362,56.0,0.0,60.0,13.0,0.0
363,56.0,6.0,60.0,7.0,0.0
364,68.0,0.0,60.0,12.0,0.0
365,56.0,0.0,60.0,14.0,0.0
366,66.0,0.0,180.0,12.0,0.0
367,73.0,0.0,180.0,11.0,0.0
368,58.0,0.0,180.0,14.0,0.0
369,58.0,0.0,180.0,13.0,0.0
370,58.0,60.0,180.0,7.0,0.0
371,70.0,0.0,60.0,11.0,0.0
372,70.0,0.0,60.0,5.0,0.0
373,54.0,0.0,60.0,13.0,0.0
374,54.0,0.0,60.0,14.0,0.0
375,73.0,60.0,60.0,6.0,0.0
376,66.0,0.0,60.0,12.0,0.0
377,54.0,0.0,60.0,7.0,0.0
378,59.0,0.0,180.0,7.0,0.0
379,71.0,0.0,360.0,5.0,0.0
380,71.0,0.0,360.0,11.0,0.0
381,59.0,60.0,180.0,13.0,0.0
382,66.0,0.0,360.0,12.0,0.0
383,59.0,0.0,180.0,14.0,0.0
384,66.0,64.0,360.0,6.0,0.0
385,75.0,60.0,60.0,10.0,0.0
386,75.0,0.0,60.0,4.0,0.0
387,76.0,0.0,60.0,10.0,0.0
388,76.0,0.0,60.0,4.0,0.0
389,58.0,0.0,60.0,14.0,0.0
390,58.0,0.0,60.0,13.0,0.0
391,58.0,116.0,60.0,7.0,0.0
392,73.0,0.0,60.0,10.0,0.0
393,73.0,0.0,60.0,4.0,0.0
394,75.0,0.0,180.0,4.0,0.0
395,75.0,0.0,180.0,10.0,0.0
396,59.0,56.0,180.0,13.0,0.0
397,59.0,0.0,180.0,7.0,0.0
398,59.0,0.0,180.0,14.0,0.0
399,71.0,0.0,120.0,5.0,0.0
400,68.0,0.0,120.0,6.0,0.0
401,71.0,0.0,120.0,11.0,0.0
402,68.0,4.0,120.0,12.0,0.0
403,77.0,0.0,60.0,4.0,0.0
404,56.0,0.0,60.0,7.0,0.0
405,56.0,0.0,60.0,14.0,0.0
406,56.0,0.0,60.0,13.0,0.0
407,77.0,180.0,60.0,10.0,0.0
408,78.0,64.0,360.0,4.0,0.0
409,58.0,0.0,180.0,14.0,0.0
410,78.0,0.0,360.0,10.0,0.0
411,66.0,0.0,180.0,6.0,0.0
412,66.0,0.0,180.0,12.0,0.0
413,58.0,60.0,180.0,7.0,0.0
414,73.0,0.0,180.0,5.0,0.0
415,73.0,0.0,180.0,11.0,0.0
416,58.0,0.0,180.0,13.0,0.0
417,56.0,116.0,60.0,14.0,0.0
418,71.0,0.0,60.0,11.0,0.0
419,71.0,0.0,60.0,6.0,0.0
420,56.0,0.0,60.0,7.0,0.0
421,56.0,0.0,60.0,13.0,0.0
422,68.0,0.0,60.0,12.0,0.0
423,71.0,0.0,60.0,5.0,0.0
424,58.0,0.0,180.0,13.0,0.0
425,58.0,0.0,180.0,14.0,0.0
426,58.0,0.0,180.0,7.0,0.0
427,70.0,0.0,180.0,6.0,0.0
428,73.0,0.0,180.0,5.0,0.0
429,73.0,0.0,180.0,11.0,0.0
430,66.0,36.0,180.0,12.0,0.0
431,80.0,0.0,120.0,10.0,0.0
432,80.0,4.0,120.0,4.0,0.0
433,89.0,0.0,60.0,0.0,0.0
434,75.0,0.0,60.0,11.0,0.0
435,75.0,0.0,60.0,5.0,0.0
436,49.0,20.0,30.0,3.0,0.0
437,85.0,0.0,60.0,1.0,0.0
438,63.0,6.0,60.0,12.0,0.0
439,59.0,0.0,60.0,14.0,0.0
440,80.0,0.0,60.0,2.0,0.0
441,68.0,0.0,60.0,6.0,0.0
442,59.0,0.0,60.0,7.0,0.0
443,59.0,0.0,60.0,13.0,0.0
444,49.0,174.0,30.0,3.0,0.0
445,61.0,0.0,480.0,13.0,0.0
446,61.0,174.0,480.0,14.0,0.0
447,61.0,0.0,180.0,12.0,0.0
448,68.0,0.0,180.0,6.0,0.0
449,73.0,60.0,180.0,5.0,0.0
450,89.0,0.0,240.0,0.0,0.0
451,85.0,0.0,240.0,1.0,0.0
452,68.0,0.0,180.0,11.0,0.0
453,77.0,60.0,300.0,10.0,0.0
454,80.0,0.0,240.0,2.0,0.0
455,61.0,0.0,900.0,7.0,0.0
456,77.0,0.0,180.0,4.0,0.0
457,49.0,54.0,240.0,3.0,0.0
458,80.0,0.0,60.0,4.0,0.0
459,73.0,0.0,60.0,6.0,0.0
460,77.0,0.0,60.0,5.0,0.0
461,80.0,0.0,60.0,11.0,0.0
462,73.0,6.0,60.0,12.0,0.0
463,77.0,0.0,180.0,5.0,0.0
464,80.0,0.0,180.0,11.0,0.0
465,80.0,0.0,180.0,4.0,0.0
466,73.0,0.0,180.0,12.0,0.0
467,73.0,0.0,180.0,6.0,0.0
468,75.0,60.0,60.0,10.0,0.0
469,77.0,60.0,60.0,10.0,0.0
470,73.0,0.0,60.0,10.0,0.0
471,77.0,0.0,60.0,11.0,0.0
472,80.0,0.0,60.0,5.0,0.0
473,68.0,0.0,60.0,12.0,0.0
474,77.0,0.0,60.0,6.0,0.0
475,83.0,6.0,60.0,4.0,0.0
476,73.0,0.0,480.0,11.0,0.0
477,65.0,0.0,480.0,12.0,0.0
478,77.0,0.0,180.0,6.0,0.0
479,80.0,0.0,480.0,10.0,0.0
480,61.0,0.0,420.0,14.0,0.0
481,61.0,36.0,420.0,13.0,0.0
482,80.0,60.0,180.0,5.0,0.0
483,83.0,60.0,300.0,4.0,0.0
484,75.0,0.0,60.0,6.0,0.0
485,78.0,60.0,60.0,5.0,0.0
486,77.0,0.0,180.0,6.0,0.0
487,80.0,0.0,180.0,5.0,0.0
488,75.0,60.0,60.0,4.0,0.0
489,77.0,0.0,60.0,4.0,0.0
490,85.0,6.0,60.0,0.0,0.0
491,61.0,0.0,60.0,14.0,0.0
492,80.0,0.0,60.0,2.0,0.0
493,80.0,0.0,60.0,6.0,0.0
494,73.0,0.0,60.0,4.0,0.0
495,61.0,0.0,60.0,13.0,0.0
496,61.0,0.0,60.0,7.0,0.0
497,83.0,0.0,60.0,1.0,0.0
498,49.0,24.0,30.0,3.0,0.0
499,77.0,0.0,60.0,5.0,0.0
500,49.0,234.0,30.0,3.0,0.0
501,61.0,0.0,900.0,7.0,0.0
502,82.0,60.0,780.0,4.0,0.0
503,61.0,0.0,480.0,13.0,0.0
504,82.0,0.0,240.0,1.0,0.0
505,73.0,0.0,240.0,2.0,0.0
506,73.0,0.0,480.0,5.0,0.0
507,85.0,0.0,240.0,0.0,0.0
508,61.0,234.0,480.0,14.0,0.0
509,80.0,60.0,300.0,10.0,0.0
510,77.0,0.0,480.0,6.0,0.0
511,49.0,54.0,240.0,3.0,0.0
512,73.0,0.0,60.0,12.0,0.0
513,77.0,6.0,60.0,11.0,0.0
514,77.0,0.0,180.0,11.0,0.0
515,73.0,0.0,180.0,12.0,0.0
516,78.0,60.0,60.0,10.0,0.0
517,80.0,60.0,60.0,10.0,0.0
518,68.0,0.0,60.0,12.0,0.0
519,77.0,6.0,60.0,10.0,0.0
520,73.0,0.0,60.0,11.0,0.0
521,61.0,0.0,420.0,14.0,0.0
522,78.0,0.0,480.0,10.0,0.0
523,70.0,0.0,480.0,12.0,0.0
524,73.0,0.0,480.0,11.0,0.0
525,61.0,0.0,420.0,13.0,0.0
526,73.0,0.0,60.0,6.0,0.0
527,78.0,60.0,60.0,5.0,0.0
528,73.0,0.0,180.0,6.0,0.0
529,78.0,36.0,180.0,5.0,0.0
530,80.0,60.0,60.0,4.0,0.0
531,82.0,0.0,60.0,4.0,0.0
532,85.0,0.0,60.0,1.0,0.0
533,61.0,0.0,60.0,13.0,0.0
534,70.0,0.0,60.0,6.0,0.0
535,73.0,0.0,60.0,2.0,0.0
536,61.0,0.0,60.0,14.0,0.0
537,78.0,6.0,60.0,0.0,0.0
538,61.0,0.0,60.0,7.0,0.0
539,49.0,24.0,30.0,3.0,0.0
540,78.0,0.0,60.0,4.0,0.0
541,73.0,0.0,60.0,5.0,0.0
542,49.0,234.0,30.0,3.0,0.0
543,85.0,54.0,240.0,1.0,0.0
544,80.0,0.0,600.0,4.0,0.0
545,61.0,54.0,480.0,13.0,0.0
546,73.0,0.0,240.0,2.0,0.0
547,73.0,0.0,480.0,5.0,0.0
548,61.0,0.0,480.0,14.0,0.0
549,49.0,0.0,240.0,3.0,0.0
550,80.0,0.0,240.0,0.0,0.0
551,61.0,0.0,900.0,7.0,0.0
552,68.0,0.0,480.0,6.0,0.0
553,78.0,60.0,300.0,10.0,0.0
554,73.0,6.0,60.0,12.0,0.0
555,80.0,0.0,60.0,11.0,0.0
556,73.0,60.0,180.0,12.0,0.0
557,80.0,0.0,180.0,11.0,0.0
558,77.0,60.0,60.0,10.0,0.0
559,78.0,0.0,60.0,10.0,0.0
560,66.0,0.0,60.0,12.0,0.0
561,75.0,6.0,60.0,10.0,0.0
562,72.0,0.0,60.0,11.0,0.0
563,68.0,0.0,240.0,12.0,0.0
564,61.0,0.0,420.0,13.0,0.0
565,77.0,60.0,60.0,10.0,0.0
566,61.0,0.0,420.0,14.0,0.0
567,73.0,54.0,240.0,11.0,0.0
568,80.0,60.0,60.0,10.0,0.0
569,85.0,60.0,60.0,10.0,0.0
570,85.0,0.0,60.0,4.0,0.0
571,84.0,0.0,60.0,10.0,0.0
572,68.0,0.0,60.0,6.0,0.0
573,77.0,6.0,60.0,5.0,0.0
574,84.0,0.0,60.0,4.0,0.0
575,77.0,36.0,180.0,5.0,0.0
576,73.0,0.0,180.0,6.0,0.0
577,82.0,60.0,60.0,4.0,0.0
578,82.0,0.0,60.0,10.0,0.0
579,80.0,0.0,60.0,10.0,0.0
580,80.0,60.0,60.0,4.0,0.0
581,78.0,0.0,60.0,4.0,0.0
582,78.0,0.0,60.0,10.0,0.0
583,70.0,0.0,60.0,12.0,0.0
584,77.0,6.0,60.0,4.0,0.0
585,61.0,0.0,60.0,7.0,0.0
586,89.0,0.0,60.0,0.0,0.0
587,85.0,0.0,60.0,1.0,0.0
588,77.0,0.0,60.0,10.0,0.0
589,73.0,0.0,60.0,5.0,0.0
590,82.0,0.0,60.0,2.0,0.0
591,73.0,0.0,60.0,11.0,0.0
592,61.0,0.0,60.0,14.0,0.0
593,61.0,0.0,60.0,13.0,0.0
594,70.0,0.0,60.0,6.0,0.0
595,49.0,24.0,30.0,3.0,0.0
596,49.0,294.0,30.0,3.0,0.0
597,87.0,0.0,360.0,0.0,0.0
598,61.0,0.0,300.0,13.0,0.0
599,75.0,0.0,360.0,11.0,0.0
600,75.0,0.0,360.0,5.0,0.0
601,61.0,6.0,300.0,14.0,0.0
602,70.0,0.0,360.0,6.0,0.0
603,78.0,4.0,360.0,2.0,0.0
604,78.0,0.0,360.0,10.0,0.0
605,82.0,0.0,360.0,1.0,0.0
606,49.0,50.0,300.0,3.0,0.0
607,70.0,0.0,360.0,12.0,0.0
608,61.0,0.0,300.0,7.0,0.0
609,78.0,0.0,360.0,4.0,0.0
610,60.0,0.0,60.0,14.0,0.0
611,60.0,0.0,60.0,7.0,0.0
612,49.0,54.0,60.0,3.0,0.0
613,60.0,6.0,60.0,13.0,0.0
614,70.0,0.0,120.0,12.0,0.0
615,75.0,0.0,120.0,11.0,0.0
616,75.0,0.0,120.0,5.0,0.0
617,61.0,6.0,60.0,14.0,0.0
618,70.0,0.0,120.0,6.0,0.0
619,78.0,4.0,120.0,10.0,0.0
620,82.0,0.0,120.0,1.0,0.0
621,78.0,0.0,120.0,2.0,0.0
622,78.0,0.0,120.0,4.0,0.0
623,87.0,0.0,120.0,0.0,0.0
624,61.0,0.0,60.0,7.0,0.0
625,61.0,0.0,60.0,13.0,0.0
626,49.0,50.0,60.0,3.0,0.0
627,58.0,6.0,60.0,13.0,0.0
628,58.0,0.0,60.0,14.0,0.0
629,58.0,0.0,60.0,7.0,0.0
630,49.0,174.0,60.0,3.0,0.0
631,60.0,0.0,240.0,7.0,0.0
632,87.0,0.0,180.0,0.0,0.0
633,68.0,0.0,240.0,12.0,0.0
634,68.0,4.0,240.0,6.0,0.0
635,54.0,174.0,240.0,3.0,0.0
636,78.0,0.0,180.0,10.0,0.0
637,75.0,0.0,240.0,5.0,0.0
638,60.0,0.0,240.0,13.0,0.0
639,78.0,0.0,240.0,2.0,0.0
640,75.0,0.0,240.0,11.0,0.0
641,78.0,56.0,180.0,4.0,0.0
642,80.0,0.0,240.0,1.0,0.0
643,60.0,0.0,240.0,14.0,0.0
644,85.0,0.0,60.0,0.0,0.0
645,75.0,0.0,60.0,10.0,0.0
646,75.0,6.0,60.0,4.0,0.0
647,56.0,0.0,240.0,7.0,0.0
648,80.0,0.0,180.0,10.0,0.0
649,78.0,4.0,240.0,2.0,0.0
650,72.0,0.0,240.0,11.0,0.0
651,80.0,0.0,180.0,4.0,0.0
652,87.0,56.0,180.0,0.0,0.0
653,56.0,0.0,240.0,14.0,0.0
654,68.0,0.0,240.0,6.0,0.0
655,80.0,0.0,240.0,1.0,0.0
656,56.0,0.0,240.0,13.0,0.0
657,72.0,0.0,240.0,5.0,0.0
658,63.0,0.0,240.0,12.0,0.0
659,84.0,6.0,60.0,0.0,0.0
660,78.0,0.0,60.0,10.0,0.0
661,78.0,0.0,60.0,4.0,0.0
662,54.0,174.0,60.0,3.0,0.0
663,61.0,60.0,540.0,14.0,0.0
664,80.0,0.0,240.0,1.0,0.0
665,73.0,0.0,240.0,2.0,0.0
666,68.0,56.0,180.0,6.0,0.0
667,49.0,0.0,480.0,3.0,0.0
668,68.0,0.0,480.0,11.0,0.0
669,77.0,4.0,240.0,4.0,0.0
670,61.0,0.0,540.0,7.0,0.0
671,61.0,0.0,540.0,13.0,0.0
672,73.0,0.0,180.0,5.0,0.0
673,85.0,0.0,240.0,0.0,0.0
674,61.0,0.0,480.0,12.0,0.0
675,77.0,0.0,240.0,10.0,0.0
676,80.0,180.0,60.0,5.0,0.0
677,77.0,0.0,60.0,6.0,0.0
678,85.0,0.0,240.0,1.0,0.0
679,73.0,4.0,240.0,10.0,0.0
680,89.0,0.0,240.0,0.0,0.0
681,80.0,54.0,240.0,2.0,0.0
682,73.0,0.0,240.0,4.0,0.0
683,77.0,0.0,180.0,6.0,0.0
684,80.0,56.0,180.0,5.0,0.0
685,77.0,0.0,60.0,5.0,0.0
686,73.0,6.0,60.0,6.0,0.0
687,82.0,0.0,540.0,4.0,0.0
688,77.0,0.0,480.0,5.0,0.0
689,82.0,60.0,540.0,10.0,0.0
690,70.0,54.0,480.0,6.0,0.0
691,61.0,0.0,60.0,7.0,0.0
692,61.0,60.0,60.0,13.0,0.0
693,61.0,0.0,60.0,14.0,0.0
694,63.0,60.0,60.0,14.0,0.0
695,63.0,0.0,60.0,13.0,0.0
696,63.0,0.0,60.0,7.0,0.0
697,65.0,0.0,60.0,13.0,0.0
698,65.0,0.0,60.0,14.0,0.0
699,73.0,0.0,60.0,12.0,0.0
700,65.0,60.0,60.0,7.0,0.0
701,82.0,0.0,60.0,11.0,0.0
702,82.0,0.0,180.0,11.0,0.0
703,66.0,0.0,60.0,14.0,0.0
704,66.0,60.0,60.0,7.0,0.0
705,66.0,0.0,60.0,13.0,0.0
706,73.0,0.0,180.0,12.0,0.0
707,65.0,60.0,60.0,7.0,0.0
708,65.0,0.0,60.0,14.0,0.0
709,65.0,0.0,60.0,13.0,0.0
710,66.0,38.0,60.0,13.0,0.0
711,66.0,0.0,60.0,14.0,0.0
712,66.0,0.0,60.0,7.0,0.0
713,78.0,0.0,60.0,11.0,0.0
714,63.0,0.0,30.0,13.0,0.0
715,75.0,6.0,60.0,12.0,0.0
716,63.0,22.0,30.0,14.0,0.0
717,63.0,0.0,30.0,7.0,0.0
718,61.0,0.0,20.0,13.0,0.0
719,61.0,0.0,20.0,14.0,0.0
720,61.0,0.0,20.0,7.0,0.0
721,75.0,0.0,360.0,11.0,0.0
722,60.0,0.0,360.0,7.0,0.0
723,60.0,0.0,360.0,13.0,0.0
724,75.0,4.0,360.0,12.0,0.0
725,60.0,0.0,360.0,14.0,0.0
726,82.0,60.0,60.0,4.0,0.0
727,82.0,0.0,60.0,10.0,0.0
728,84.0,0.0,60.0,10.0,0.0
729,84.0,60.0,60.0,4.0,0.0
730,78.0,0.0,60.0,5.0,0.0
731,85.0,0.0,60.0,4.0,0.0
732,75.0,60.0,60.0,6.0,0.0
733,85.0,0.0,60.0,10.0,0.0
734,87.0,56.0,60.0,4.0,0.0
735,75.0,0.0,180.0,6.0,0.0
736,87.0,0.0,60.0,10.0,0.0
737,78.0,0.0,180.0,5.0,0.0
738,85.0,0.0,60.0,10.0,0.0
739,85.0,60.0,60.0,4.0,0.0
740,75.0,0.0,120.0,11.0,0.0
741,87.0,56.0,60.0,10.0,0.0
742,58.0,0.0,120.0,14.0,0.0
743,58.0,4.0,120.0,13.0,0.0
744,87.0,0.0,60.0,4.0,0.0
745,58.0,0.0,120.0,7.0,0.0
746,78.0,0.0,120.0,12.0,0.0
747,75.0,0.0,60.0,5.0,0.0
748,84.0,0.0,60.0,4.0,0.0
749,84.0,0.0,60.0,10.0,0.0
750,78.0,180.0,60.0,6.0,0.0
751,57.0,0.0,240.0,13.0,0.0
752,77.0,4.0,240.0,11.0,0.0
753,57.0,0.0,240.0,14.0,0.0
754,57.0,0.0,240.0,7.0,0.0
755,77.0,0.0,180.0,4.0,0.0
756,72.0,0.0,240.0,12.0,0.0
757,77.0,56.0,180.0,10.0,0.0
758,72.0,0.0,240.0,6.0,0.0
759,77.0,0.0,240.0,5.0,0.0
760,87.0,0.0,60.0,10.0,0.0
761,87.0,180.0,60.0,4.0,0.0
762,85.0,56.0,180.0,4.0,0.0
763,53.0,0.0,240.0,13.0,0.0
764,81.0,0.0,240.0,5.0,0.0
765,53.0,4.0,240.0,14.0,0.0
766,85.0,0.0,180.0,10.0,0.0
767,77.0,0.0,240.0,12.0,0.0
768,53.0,0.0,240.0,7.0,0.0
769,77.0,0.0,240.0,6.0,0.0
770,81.0,0.0,240.0,11.0,0.0
771,84.0,180.0,60.0,4.0,0.0
772,84.0,0.0,60.0,10.0,0.0
773,82.0,54.0,480.0,5.0,0.0
774,77.0,0.0,180.0,12.0,0.0
775,77.0,0.0,480.0,6.0,0.0
776,85.0,60.0,300.0,4.0,0.0
777,85.0,0.0,300.0,10.0,0.0
778,58.0,0.0,540.0,7.0,0.0
779,58.0,0.0,540.0,14.0,0.0
780,58.0,60.0,540.0,13.0,0.0
781,82.0,60.0,180.0,11.0,0.0
782,77.0,60.0,60.0,11.0,0.0
783,70.0,0.0,60.0,12.0,0.0
784,70.0,60.0,180.0,12.0,0.0
785,77.0,0.0,180.0,11.0,0.0
786,84.0,60.0,60.0,4.0,0.0
787,84.0,0.0,60.0,10.0,0.0
788,85.0,0.0,60.0,4.0,0.0
789,85.0,0.0,60.0,10.0,0.0
790,65.0,0.0,60.0,12.0,0.0
791,73.0,6.0,60.0,11.0,0.0
792,82.0,0.0,60.0,10.0,0.0
793,82.0,0.0,60.0,4.0,0.0
794,73.0,54.0,480.0,11.0,0.0
795,70.0,0.0,480.0,12.0,0.0
796,78.0,0.0,540.0,4.0,0.0
797,78.0,60.0,540.0,10.0,0.0
798,56.0,0.0,60.0,7.0,0.0
799,56.0,60.0,60.0,14.0,0.0
800,56.0,0.0,60.0,13.0,0.0
801,58.0,0.0,60.0,14.0,0.0
802,58.0,0.0,60.0,13.0,0.0
803,58.0,60.0,60.0,7.0,0.0
804,77.0,0.0,60.0,5.0,0.0
805,73.0,0.0,60.0,6.0,0.0
806,60.0,60.0,60.0,7.0,0.0
807,60.0,0.0,60.0,14.0,0.0
808,60.0,0.0,60.0,13.0,0.0
809,61.0,60.0,60.0,13.0,0.0
810,61.0,0.0,60.0,7.0,0.0
811,77.0,0.0,180.0,5.0,0.0
812,61.0,0.0,60.0,14.0,0.0
813,70.0,0.0,180.0,6.0,0.0
814,60.0,0.0,60.0,7.0,0.0
815,60.0,60.0,60.0,14.0,0.0
816,60.0,0.0,60.0,13.0,0.0
817,61.0,0.0,60.0,14.0,0.0
818,61.0,0.0,60.0,13.0,0.0
819,61.0,60.0,60.0,7.0,0.0
820,70.0,0.0,60.0,6.0,0.0
821,58.0,0.0,60.0,14.0,0.0
822,58.0,0.0,60.0,7.0,0.0
823,73.0,6.0,60.0,5.0,0.0
824,58.0,0.0,60.0,13.0,0.0
825,60.0,0.0,180.0,7.0,0.0
826,68.0,0.0,360.0,6.0,0.0
827,60.0,0.0,180.0,14.0,0.0
828,60.0,60.0,180.0,13.0,0.0
829,75.0,64.0,360.0,5.0,0.0
830,77.0,60.0,60.0,4.0,0.0
831,77.0,0.0,60.0,10.0,0.0
832,78.0,0.0,60.0,10.0,0.0
833,78.0,0.0,60.0,4.0,0.0
834,72.0,0.0,60.0,11.0,0.0
835,75.0,0.0,60.0,4.0,0.0
836,56.0,0.0,60.0,14.0,0.0
837,56.0,0.0,60.0,7.0,0.0
838,75.0,0.0,60.0,10.0,0.0
839,56.0,0.0,60.0,13.0,0.0
840,68.0,116.0,60.0,12.0,0.0
841,61.0,0.0,180.0,13.0,0.0
842,77.0,56.0,180.0,4.0,0.0
843,61.0,0.0,180.0,7.0,0.0
844,77.0,0.0,180.0,10.0,0.0
845,68.0,0.0,180.0,11.0,0.0
846,65.0,0.0,180.0,12.0,0.0
847,61.0,0.0,180.0,14.0,0.0
848,66.0,4.0,120.0,6.0,0.0
849,73.0,0.0,60.0,5.0,0.0
850,78.0,0.0,60.0,4.0,0.0
851,78.0,0.0,60.0,10.0,0.0
852,63.0,0.0,60.0,13.0,0.0
853,63.0,0.0,60.0,7.0,0.0
854,72.0,180.0,60.0,5.0,0.0
855,63.0,0.0,60.0,12.0,0.0
856,72.0,0.0,60.0,11.0,0.0
857,63.0,0.0,60.0,14.0,0.0
858,80.0,0.0,180.0,4.0,0.0
859,65.0,0.0,180.0,13.0,0.0
860,73.0,0.0,180.0,6.0,0.0
861,65.0,0.0,180.0,14.0,0.0
862,65.0,0.0,180.0,7.0,0.0
863,80.0,0.0,180.0,10.0,0.0
864,61.0,0.0,180.0,12.0,0.0
865,73.0,0.0,180.0,11.0,0.0
866,73.0,60.0,180.0,5.0,0.0
867,66.0,0.0,60.0,7.0,0.0
868,66.0,0.0,60.0,14.0,0.0
869,73.0,0.0,60.0,11.0,0.0
870,66.0,0.0,60.0,12.0,0.0
871,73.0,21.0,60.0,5.0,0.0
872,66.0,0.0,60.0,6.0,0.0
873,66.0,0.0,60.0,13.0,0.0
874,82.0,0.0,60.0,4.0,0.0
875,82.0,0.0,60.0,10.0,0.0
876,84.0,0.0,180.0,4.0,0.0
877,66.0,0.0,180.0,6.0,0.0
878,63.0,15.0,15.0,14.0,0.0
879,63.0,0.0,15.0,13.0,0.0
880,75.0,6.0,180.0,11.0,0.0
881,66.0,0.0,180.0,12.0,0.0
882,63.0,0.0,15.0,7.0,0.0
883,75.0,0.0,180.0,5.0,0.0
884,84.0,0.0,180.0,10.0,0.0
885,65.0,15.0,15.0,13.0,0.0
886,65.0,0.0,15.0,14.0,0.0
887,65.0,0.0,15.0,7.0,0.0
888,63.0,0.0,15.0,14.0,0.0
889,63.0,15.0,15.0,13.0,0.0
890,63.0,0.0,15.0,7.0,0.0
891,65.0,15.0,15.0,7.0,0.0
892,65.0,0.0,15.0,14.0,0.0
893,65.0,0.0,15.0,13.0,0.0
894,63.0,15.0,15.0,13.0,0.0
895,63.0,0.0,15.0,14.0,0.0
896,63.0,0.0,15.0,7.0,0.0
897,65.0,0.0,15.0,13.0,0.0
898,65.0,0.0,15.0,14.0,0.0
899,65.0,15.0,15.0,7.0,0.0
900,63.0,15.0,15.0,14.0,0.0
901,63.0,0.0,15.0,13.0,0.0
902,63.0,0.0,15.0,7.0,0.0
903,65.0,15.0,15.0,13.0,0.0
904,65.0,0.0,15.0,14.0,0.0
905,65.0,0.0,15.0,7.0,0.0
906,63.0,0.0,15.0,14.0,0.0
907,63.0,0.0,15.0,13.0,0.0
908,63.0,15.0,15.0,7.0,0.0
909,65.0,0.0,15.0,14.0,0.0
910,65.0,0.0,15.0,13.0,0.0
911,65.0,15.0,15.0,7.0,0.0
912,61.0,0.0,15.0,7.0,0.0
913,61.0,0.0,15.0,13.0,0.0
914,61.0,9.0,15.0,14.0,0.0
915,63.0,0.0,15.0,14.0,0.0
916,63.0,54.0,15.0,7.0,0.0
917,63.0,0.0,15.0,13.0,0.0
918,85.0,0.0,60.0,4.0,0.0
919,61.0,0.0,60.0,7.0,0.0
920,77.0,0.0,60.0,11.0,0.0
921,77.0,0.0,60.0,5.0,0.0
922,61.0,0.0,60.0,14.0,0.0
923,61.0,0.0,60.0,13.0,0.0
924,68.0,60.0,60.0,6.0,0.0
925,68.0,0.0,60.0,12.0,0.0
926,85.0,0.0,60.0,10.0,0.0
927,72.0,0.0,180.0,5.0,0.0
928,75.0,0.0,480.0,11.0,0.0
929,84.0,60.0,60.0,10.0,0.0
930,68.0,54.0,480.0,12.0,0.0
931,68.0,0.0,180.0,6.0,0.0
932,56.0,0.0,480.0,13.0,0.0
933,56.0,0.0,900.0,7.0,0.0
934,56.0,0.0,480.0,14.0,0.0
935,75.0,60.0,300.0,4.0,0.0
936,85.0,60.0,60.0,10.0,0.0
937,87.0,60.0,60.0,10.0,0.0
938,78.0,0.0,60.0,5.0,0.0
939,72.0,0.0,60.0,6.0,0.0
940,84.0,60.0,60.0,10.0,0.0
941,80.0,60.0,300.0,10.0,0.0
942,72.0,0.0,180.0,6.0,0.0
943,78.0,0.0,180.0,5.0,0.0
944,73.0,60.0,60.0,4.0,0.0
945,75.0,60.0,60.0,4.0,0.0
946,75.0,0.0,60.0,5.0,0.0
947,72.0,0.0,60.0,4.0,0.0
948,68.0,6.0,60.0,6.0,0.0
949,56.0,0.0,420.0,13.0,0.0
950,68.0,54.0,480.0,6.0,0.0
951,56.0,0.0,420.0,14.0,0.0
952,72.0,0.0,480.0,5.0,0.0
953,78.0,60.0,300.0,4.0,0.0
954,82.0,60.0,60.0,10.0,0.0
955,84.0,60.0,60.0,10.0,0.0
956,80.0,0.0,60.0,12.0,0.0
957,84.0,60.0,60.0,11.0,0.0
958,80.0,0.0,60.0,10.0,0.0
959,75.0,0.0,180.0,12.0,0.0
960,84.0,0.0,180.0,11.0,0.0
961,87.0,60.0,300.0,10.0,0.0
962,77.0,60.0,60.0,4.0,0.0
963,78.0,60.0,60.0,4.0,0.0
964,56.0,0.0,60.0,7.0,0.0
965,72.0,0.0,60.0,12.0,0.0
966,80.0,0.0,60.0,11.0,0.0
967,75.0,6.0,60.0,4.0,0.0
968,56.0,0.0,60.0,13.0,0.0
969,56.0,0.0,60.0,14.0,0.0
970,56.0,0.0,480.0,13.0,0.0
971,77.0,60.0,300.0,4.0,0.0
972,68.0,0.0,480.0,12.0,0.0
973,56.0,0.0,480.0,14.0,0.0
974,56.0,0.0,900.0,7.0,0.0
975,77.0,54.0,480.0,11.0,0.0
976,85.0,60.0,60.0,10.0,0.0
977,87.0,60.0,60.0,10.0,0.0
978,84.0,60.0,60.0,10.0,0.0
979,68.0,0.0,60.0,6.0,0.0
980,80.0,0.0,60.0,5.0,0.0
981,85.0,60.0,300.0,10.0,0.0
982,80.0,0.0,180.0,5.0,0.0
983,73.0,60.0,180.0,6.0,0.0
984,75.0,60.0,60.0,4.0,0.0
985,77.0,0.0,60.0,4.0,0.0
986,77.0,6.0,60.0,5.0,0.0
987,73.0,0.0,60.0,4.0,0.0
988,68.0,0.0,60.0,6.0,0.0
989,56.0,0.0,420.0,14.0,0.0
990,80.0,60.0,300.0,4.0,0.0
991,56.0,0.0,420.0,13.0,0.0
992,73.0,54.0,480.0,5.0,0.0
993,77.0,0.0,480.0,6.0,0.0
994,84.0,60.0,60.0,10.0,0.0
995,85.0,60.0,60.0,10.0,0.0
996,80.0,0.0,60.0,10.0,0.0
997,85.0,60.0,60.0,11.0,0.0
998,77.0,0.0,60.0,12.0,0.0
999,89.0,60.0,300.0,10.0,0.0
1000,80.0,60.0,180.0,12.0,0.0
1001,85.0,0.0,180.0,11.0,0.0
1002,78.0,60.0,60.0,4.0,0.0
1003,80.0,0.0,60.0,4.0,0.0
1004,56.0,0.0,60.0,13.0,0.0
1005,77.0,6.0,60.0,4.0,0.0
1006,80.0,0.0,60.0,11.0,0.0
1007,56.0,0.0,60.0,7.0,0.0
1008,56.0,0.0,60.0,14.0,0.0
1009,73.0,0.0,60.0,12.0,0.0
1010,56.0,0.0,900.0,7.0,0.0
1011,56.0,0.0,480.0,14.0,0.0
1012,56.0,0.0,480.0,13.0,0.0
1013,78.0,60.0,300.0,4.0,0.0
1014,81.0,0.0,480.0,11.0,0.0
1015,72.0,54.0,480.0,12.0,0.0
1016,87.0,60.0,60.0,10.0,0.0
1017,89.0,60.0,60.0,10.0,0.0
1018,78.0,0.0,60.0,6.0,0.0
1019,81.0,0.0,60.0,5.0,0.0
1020,85.0,60.0,60.0,10.0,0.0
1021,81.0,0.0,180.0,5.0,0.0
1022,72.0,0.0,180.0,6.0,0.0
1023,87.0,60.0,300.0,10.0,0.0
1024,77.0,60.0,60.0,4.0,0.0
1025,78.0,60.0,60.0,4.0,0.0
1026,75.0,0.0,60.0,4.0,0.0
1027,78.0,6.0,60.0,5.0,0.0
1028,75.0,0.0,60.0,6.0,0.0
1029,75.0,0.0,480.0,5.0,0.0
1030,81.0,60.0,300.0,4.0,0.0
1031,78.0,54.0,480.0,6.0,0.0
1032,56.0,0.0,420.0,14.0,0.0
1033,56.0,0.0,420.0,13.0,0.0
1034,85.0,60.0,60.0,10.0,0.0
1035,87.0,60.0,60.0,10.0,0.0
1036,87.0,0.0,60.0,11.0,0.0
1037,84.0,60.0,60.0,10.0,0.0
1038,78.0,0.0,60.0,12.0,0.0
1039,72.0,0.0,180.0,12.0,0.0
1040,87.0,0.0,180.0,11.0,0.0
1041,90.0,60.0,300.0,10.0,0.0
1042,80.0,60.0,60.0,4.0,0.0
1043,81.0,60.0,60.0,4.0,0.0
1044,56.0,0.0,60.0,7.0,0.0
1045,84.0,0.0,60.0,11.0,0.0
1046,56.0,0.0,60.0,13.0,0.0
1047,56.0,0.0,60.0,14.0,0.0
1048,78.0,0.0,60.0,4.0,0.0
1049,75.0,6.0,60.0,12.0,0.0
1050,56.0,54.0,480.0,14.0,0.0
1051,80.0,60.0,300.0,4.0,0.0
1052,80.0,54.0,240.0,11.0,0.0
1053,56.0,0.0,480.0,13.0,0.0
1054,73.0,0.0,240.0,12.0,0.0
1055,56.0,0.0,900.0,7.0,0.0
1056,88.0,60.0,60.0,10.0,0.0
1057,90.0,60.0,60.0,10.0,0.0
1058,78.0,6.0,60.0,5.0,0.0
1059,72.0,0.0,60.0,6.0,0.0
1060,87.0,0.0,60.0,10.0,0.0
1061,88.0,60.0,300.0,10.0,0.0
1062,76.0,0.0,240.0,5.0,0.0
1063,73.0,0.0,240.0,6.0,0.0
1064,78.0,60.0,60.0,4.0,0.0
1065,80.0,60.0,60.0,4.0,0.0
1066,73.0,0.0,60.0,12.0,0.0
1067,80.0,0.0,60.0,11.0,0.0
1068,76.0,6.0,60.0,4.0,0.0
1069,56.0,60.0,420.0,13.0,0.0
1070,78.0,60.0,300.0,4.0,0.0
1071,78.0,54.0,240.0,11.0,0.0
1072,70.0,0.0,240.0,12.0,0.0
1073,56.0,0.0,420.0,14.0,0.0
1074,87.0,60.0,60.0,10.0,0.0
1075,88.0,60.0,60.0,10.0,0.0
1076,76.0,6.0,60.0,5.0,0.0
1077,85.0,0.0,60.0,10.0,0.0
1078,70.0,0.0,60.0,6.0,0.0
1079,72.0,0.0,240.0,6.0,0.0
1080,87.0,60.0,300.0,10.0,0.0
1081,75.0,54.0,240.0,5.0,0.0
1082,76.0,60.0,60.0,4.0,0.0
1083,78.0,0.0,60.0,4.0,0.0
1084,72.0,0.0,60.0,12.0,0.0
1085,56.0,0.0,60.0,14.0,0.0
1086,56.0,0.0,60.0,7.0,0.0
1087,78.0,6.0,60.0,11.0,0.0
1088,75.0,0.0,60.0,4.0,0.0
1089,56.0,0.0,60.0,13.0,0.0
1090,56.0,0.0,540.0,13.0,0.0
1091,68.0,54.0,480.0,12.0,0.0
1092,76.0,0.0,480.0,11.0,0.0
1093,76.0,60.0,300.0,4.0,0.0
1094,56.0,60.0,540.0,14.0,0.0
1095,56.0,0.0,540.0,7.0,0.0
1096,85.0,60.0,60.0,10.0,0.0
1097,87.0,60.0,60.0,10.0,0.0
1098,68.0,0.0,60.0,6.0,0.0
1099,75.0,0.0,60.0,5.0,0.0
1100,84.0,60.0,60.0,10.0,0.0
1101,73.0,0.0,180.0,5.0,0.0
1102,85.0,0.0,60.0,10.0,0.0
1103,68.0,60.0,180.0,6.0,0.0
1104,84.0,0.0,60.0,10.0,0.0
1105,75.0,60.0,60.0,4.0,0.0
1106,76.0,0.0,60.0,4.0,0.0
1107,85.0,0.0,60.0,10.0,0.0
1108,76.0,0.0,60.0,5.0,0.0
1109,73.0,0.0,60.0,4.0,0.0
1110,73.0,0.0,60.0,6.0,0.0
1111,82.0,6.0,60.0,10.0,0.0
1112,83.0,60.0,540.0,10.0,0.0
1113,77.0,0.0,660.0,6.0,0.0
1114,80.0,0.0,660.0,5.0,0.0
1115,83.0,0.0,540.0,4.0,0.0
1116,58.0,60.0,60.0,7.0,0.0
1117,58.0,0.0,60.0,13.0,0.0
1118,58.0,0.0,60.0,14.0,0.0
1119,56.0,60.0,60.0,14.0,0.0
1120,56.0,0.0,60.0,7.0,0.0
1121,56.0,0.0,60.0,13.0,0.0
1122,54.0,0.0,60.0,14.0,0.0
1123,54.0,0.0,60.0,7.0,0.0
1124,68.0,0.0,60.0,11.0,0.0
1125,54.0,0.0,60.0,13.0,0.0
1126,61.0,60.0,60.0,12.0,0.0
1127,53.0,60.0,60.0,7.0,0.0
1128,53.0,0.0,60.0,13.0,0.0
1129,73.0,0.0,180.0,11.0,0.0
1130,68.0,0.0,180.0,12.0,0.0
1131,53.0,0.0,60.0,14.0,0.0
1132,51.0,0.0,60.0,13.0,0.0
1133,51.0,60.0,60.0,14.0,0.0
1134,51.0,0.0,60.0,7.0,0.0
1135,53.0,60.0,60.0,14.0,0.0
1136,53.0,0.0,60.0,13.0,0.0
1137,53.0,0.0,60.0,7.0,0.0
1138,49.0,0.0,60.0,7.0,0.0
1139,77.0,60.0,60.0,11.0,0.0
1140,49.0,0.0,60.0,14.0,0.0
1141,49.0,0.0,60.0,13.0,0.0
1142,73.0,0.0,60.0,12.0,0.0
1143,58.0,60.0,540.0,13.0,0.0
1144,58.0,0.0,540.0,14.0,0.0
1145,77.0,0.0,180.0,11.0,0.0
1146,58.0,0.0,540.0,7.0,0.0
1147,73.0,0.0,180.0,12.0,0.0
1148,82.0,60.0,60.0,4.0,0.0
1149,82.0,0.0,60.0,10.0,0.0
1150,83.0,0.0,60.0,10.0,0.0
1151,83.0,60.0,60.0,4.0,0.0
1152,80.0,0.0,60.0,10.0,0.0
1153,71.0,0.0,60.0,12.0,0.0
1154,80.0,0.0,60.0,4.0,0.0
1155,77.0,180.0,60.0,5.0,0.0
1156,80.0,0.0,60.0,11.0,0.0
1157,73.0,0.0,60.0,6.0,0.0
1158,82.0,60.0,180.0,10.0,0.0
1159,70.0,0.0,180.0,12.0,0.0
1160,73.0,0.0,180.0,6.0,0.0
1161,82.0,0.0,180.0,4.0,0.0
1162,78.0,0.0,180.0,11.0,0.0
1163,78.0,0.0,180.0,5.0,0.0
1164,72.0,0.0,60.0,6.0,0.0
1165,84.0,0.0,60.0,10.0,0.0
1166,75.0,60.0,60.0,5.0,0.0
1167,75.0,0.0,60.0,11.0,0.0
1168,84.0,0.0,60.0,4.0,0.0
1169,66.0,0.0,60.0,12.0,0.0
1170,77.0,60.0,180.0,11.0,0.0
1171,70.0,0.0,360.0,6.0,0.0
1172,65.0,0.0,180.0,12.0,0.0
1173,85.0,4.0,360.0,10.0,0.0
1174,85.0,0.0,360.0,4.0,0.0
1175,77.0,0.0,180.0,5.0,0.0
1176,59.0,0.0,60.0,14.0,0.0
1177,59.0,0.0,60.0,13.0,0.0
1178,59.0,60.0,60.0,7.0,0.0
1179,58.0,0.0,60.0,14.0,0.0
1180,58.0,0.0,60.0,7.0,0.0
1181,58.0,0.0,60.0,13.0,0.0
1182,73.0,60.0,60.0,11.0,0.0
1183,73.0,0.0,60.0,5.0,0.0
1184,65.0,0.0,60.0,12.0,0.0
1185,56.0,0.0,60.0,14.0,0.0
1186,56.0,0.0,60.0,7.0,0.0
1187,56.0,0.0,60.0,13.0,0.0
1188,70.0,0.0,180.0,12.0,0.0
1189,75.0,56.0,180.0,5.0,0.0
1190,75.0,0.0,180.0,11.0,0.0
1191,54.0,0.0,60.0,7.0,0.0
1192,54.0,0.0,60.0,13.0,0.0
1193,54.0,56.0,60.0,14.0,0.0
1194,53.0,0.0,60.0,7.0,0.0
1195,53.0,60.0,60.0,13.0,0.0
1196,53.0,0.0,60.0,14.0,0.0
1197,66.0,0.0,120.0,6.0,0.0
1198,87.0,4.0,120.0,10.0,0.0
1199,54.0,0.0,60.0,14.0,0.0
1200,54.0,0.0,60.0,7.0,0.0
1201,87.0,0.0,120.0,4.0,0.0
1202,54.0,0.0,60.0,13.0,0.0
1203,70.0,0.0,60.0,5.0,0.0
1204,70.0,0.0,60.0,11.0,0.0
1205,51.0,0.0,60.0,7.0,0.0
1206,51.0,180.0,60.0,14.0,0.0
1207,51.0,0.0,60.0,13.0,0.0
1208,66.0,0.0,60.0,12.0,0.0
1209,78.0,4.0,240.0,10.0,0.0
1210,68.0,0.0,180.0,12.0,0.0
1211,68.0,0.0,180.0,6.0,0.0
1212,78.0,0.0,240.0,4.0,0.0
1213,60.0,0.0,180.0,14.0,0.0
1214,75.0,0.0,180.0,11.0,0.0
1215,60.0,56.0,180.0,7.0,0.0
1216,75.0,0.0,180.0,5.0,0.0
1217,60.0,0.0,180.0,13.0,0.0
1218,56.0,180.0,60.0,14.0,0.0
1219,80.0,0.0,60.0,1.0,0.0
1220,72.0,0.0,60.0,11.0,0.0
1221,84.0,0.0,60.0,0.0,0.0
1222,56.0,0.0,60.0,7.0,0.0
1223,68.0,0.0,60.0,12.0,0.0
1224,68.0,0.0,60.0,6.0,0.0
1225,78.0,0.0,60.0,2.0,0.0
1226,56.0,0.0,60.0,13.0,0.0
1227,72.0,0.0,60.0,5.0,0.0
1228,61.0,0.0,180.0,13.0,0.0
1229,61.0,0.0,180.0,7.0,0.0
1230,73.0,0.0,180.0,5.0,0.0
1231,61.0,0.0,180.0,14.0,0.0
1232,77.0,60.0,180.0,10.0,0.0
1233,68.0,0.0,180.0,12.0,0.0
1234,73.0,0.0,180.0,11.0,0.0
1235,68.0,0.0,180.0,6.0,0.0
1236,85.0,0.0,180.0,0.0,0.0
1237,80.0,0.0,180.0,1.0,0.0
1238,73.0,0.0,180.0,2.0,0.0
1239,77.0,0.0,180.0,4.0,0.0
1240,78.0,0.0,60.0,2.0,0.0
1241,75.0,6.0,60.0,11.0,0.0
1242,75.0,0.0,60.0,4.0,0.0
1243,54.0,0.0,60.0,13.0,0.0
1244,82.0,0.0,60.0,1.0,0.0
1245,70.0,0.0,60.0,12.0,0.0
1246,87.0,0.0,60.0,0.0,0.0
1247,70.0,0.0,60.0,6.0,0.0
1248,75.0,0.0,60.0,5.0,0.0
1249,54.0,0.0,60.0,7.0,0.0
1250,54.0,15.0,60.0,3.0,0.0
1251,54.0,0.0,60.0,14.0,0.0
1252,75.0,0.0,60.0,10.0,0.0
1253,56.0,0.0,240.0,14.0,0.0
1254,56.0,0.0,240.0,7.0,0.0
1255,49.0,0.0,180.0,3.0,0.0
1256,72.0,15.0,15.0,11.0,0.0
1257,75.0,0.0,15.0,4.0,0.0
1258,80.0,0.0,240.0,1.0,0.0
1259,56.0,0.0,240.0,13.0,0.0
1260,72.0,0.0,15.0,5.0,0.0
1261,78.0,0.0,360.0,2.0,0.0
1262,84.0,10.0,360.0,0.0,0.0
1263,68.0,0.0,240.0,12.0,0.0
1264,68.0,10.0,240.0,6.0,0.0
1265,75.0,0.0,15.0,10.0,0.0
1266,77.0,0.0,15.0,4.0,0.0
1267,73.0,15.0,15.0,5.0,0.0
1268,77.0,0.0,15.0,10.0,0.0
1269,73.0,0.0,15.0,11.0,0.0
1270,72.0,0.0,15.0,5.0,0.0
1271,72.0,15.0,15.0,11.0,0.0
1272,75.0,0.0,15.0,4.0,0.0
1273,75.0,0.0,15.0,10.0,0.0
1274,73.0,15.0,15.0,5.0,0.0
1275,77.0,0.0,15.0,10.0,0.0
1276,77.0,0.0,15.0,4.0,0.0
1277,73.0,0.0,15.0,11.0,0.0
1278,72.0,0.0,15.0,5.0,0.0
1279,75.0,0.0,15.0,10.0,0.0
1280,75.0,15.0,15.0,4.0,0.0
1281,72.0,0.0,15.0,11.0,0.0
1282,73.0,0.0,15.0,5.0,0.0
1283,77.0,0.0,15.0,4.0,0.0
1284,77.0,0.0,15.0,10.0,0.0
1285,73.0,15.0,15.0,11.0,0.0
1286,72.0,0.0,15.0,5.0,0.0
1287,75.0,0.0,15.0,4.0,0.0
1288,75.0,0.0,15.0,10.0,0.0
1289,72.0,15.0,15.0,11.0,0.0
1290,73.0,0.0,15.0,5.0,0.0
1291,77.0,15.0,15.0,10.0,0.0
1292,77.0,0.0,15.0,4.0,0.0
1293,73.0,0.0,15.0,11.0,0.0
1294,72.0,0.0,15.0,11.0,0.0
1295,72.0,15.0,15.0,5.0,0.0
1296,75.0,0.0,15.0,10.0,0.0
1297,75.0,0.0,15.0,4.0,0.0
1298,77.0,0.0,15.0,10.0,0.0
1299,77.0,0.0,15.0,4.0,0.0
1300,73.0,0.0,15.0,5.0,0.0
1301,73.0,15.0,15.0,11.0,0.0
1302,72.0,0.0,15.0,11.0,0.0
1303,75.0,15.0,15.0,10.0,0.0
1304,75.0,0.0,15.0,4.0,0.0
1305,72.0,0.0,15.0,5.0,0.0
1306,73.0,0.0,15.0,11.0,0.0
1307,73.0,0.0,15.0,5.0,0.0
1308,77.0,15.0,15.0,10.0,0.0
1309,77.0,0.0,15.0,4.0,0.0
1310,75.0,0.0,15.0,4.0,0.0
1311,72.0,0.0,15.0,11.0,0.0
1312,75.0,15.0,15.0,10.0,0.0
1313,72.0,0.0,15.0,5.0,0.0
1314,54.0,0.0,60.0,3.0,0.0
1315,77.0,0.0,15.0,10.0,0.0
1316,73.0,0.0,15.0,5.0,0.0
1317,77.0,15.0,15.0,4.0,0.0
1318,73.0,0.0,15.0,11.0,0.0
1319,72.0,0.0,15.0,5.0,0.0
1320,72.0,0.0,15.0,11.0,0.0
1321,75.0,5.0,15.0,10.0,0.0
1322,75.0,0.0,15.0,4.0,0.0
1323,73.0,0.0,15.0,5.0,0.0
1324,73.0,0.0,15.0,11.0,0.0
1325,77.0,0.0,15.0,10.0,0.0
1326,77.0,15.0,15.0,4.0,0.0
1327,72.0,0.0,15.0,11.0,0.0
1328,44.0,304.0,240.0,14.0,0.0
1329,44.0,0.0,240.0,7.0,0.0
1330,72.0,15.0,15.0,5.0,0.0
1331,66.0,0.0,240.0,12.0,0.0
1332,75.0,0.0,15.0,10.0,0.0
1333,68.0,0.0,240.0,6.0,0.0
1334,54.0,0.0,120.0,3.0,0.0
1335,44.0,0.0,240.0,13.0,0.0
1336,80.0,0.0,240.0,1.0,0.0
1337,75.0,0.0,15.0,4.0,0.0
1338,77.0,0.0,15.0,4.0,0.0
1339,77.0,0.0,15.0,10.0,0.0
1340,73.0,0.0,15.0,11.0,0.0
1341,73.0,15.0,15.0,5.0,0.0
1342,72.0,0.0,15.0,5.0,0.0
1343,75.0,15.0,15.0,10.0,0.0
1344,72.0,0.0,15.0,11.0,0.0
1345,75.0,0.0,15.0,4.0,0.0
1346,77.0,15.0,15.0,4.0,0.0
1347,73.0,0.0,15.0,11.0,0.0
1348,77.0,0.0,15.0,10.0,0.0
1349,73.0,0.0,15.0,5.0,0.0
1350,75.0,0.0,15.0,4.0,0.0
1351,72.0,0.0,15.0,11.0,0.0
1352,75.0,15.0,15.0,10.0,0.0
1353,72.0,0.0,15.0,5.0,0.0
1354,73.0,15.0,15.0,11.0,0.0
1355,77.0,0.0,15.0,10.0,0.0
1356,73.0,0.0,15.0,5.0,0.0
1357,77.0,0.0,15.0,4.0,0.0
1358,70.0,0.0,15.0,5.0,0.0
1359,70.0,0.0,15.0,11.0,0.0
1360,73.0,5.0,15.0,4.0,0.0
1361,73.0,0.0,15.0,10.0,0.0
1362,72.0,0.0,15.0,11.0,0.0
1363,75.0,110.0,15.0,4.0,0.0
1364,72.0,0.0,15.0,5.0,0.0
1365,75.0,0.0,15.0,10.0,0.0
1366,73.0,0.0,120.0,5.0,0.0
1367,73.0,0.0,120.0,10.0,0.0
1368,85.0,0.0,120.0,0.0,0.0
1369,68.0,0.0,120.0,11.0,0.0
1370,78.0,0.0,120.0,2.0,0.0
1371,73.0,0.0,120.0,4.0,0.0
1372,85.0,0.0,720.0,0.0,0.0
1373,73.0,0.0,720.0,4.0,0.0
1374,68.0,0.0,720.0,6.0,0.0
1375,65.0,0.0,720.0,12.0,0.0
1376,73.0,0.0,720.0,5.0,0.0
1377,49.0,0.0,300.0,14.0,0.0
1378,80.0,54.0,720.0,1.0,0.0
1379,49.0,60.0,300.0,13.0,0.0
1380,49.0,0.0,300.0,7.0,0.0
1381,73.0,0.0,720.0,10.0,0.0
1382,73.0,0.0,720.0,2.0,0.0
1383,68.0,0.0,720.0,11.0,0.0
1384,49.0,0.0,720.0,3.0,0.0
1385,56.0,0.0,60.0,7.0,0.0
1386,56.0,60.0,60.0,13.0,0.0
1387,56.0,0.0,60.0,14.0,0.0
1388,58.0,0.0,60.0,13.0,0.0
1389,58.0,60.0,60.0,7.0,0.0
1390,58.0,0.0,60.0,14.0,0.0
1391,59.0,60.0,60.0,14.0,0.0
1392,59.0,0.0,60.0,7.0,0.0
1393,59.0,0.0,60.0,13.0,0.0
1394,61.0,0.0,60.0,13.0,0.0
1395,61.0,60.0,60.0,7.0,0.0
1396,61.0,0.0,60.0,14.0,0.0
1397,63.0,0.0,60.0,13.0,0.0
1398,63.0,0.0,60.0,14.0,0.0
1399,63.0,60.0,60.0,7.0,0.0
1400,65.0,60.0,60.0,7.0,0.0
1401,65.0,0.0,60.0,14.0,0.0
1402,65.0,0.0,60.0,13.0,0.0
1403,66.0,0.0,60.0,7.0,0.0
1404,66.0,0.0,60.0,14.0,0.0
1405,66.0,6.0,60.0,13.0,0.0
1406,65.0,0.0,60.0,14.0,0.0
1407,65.0,0.0,60.0,7.0,0.0
1408,65.0,60.0,60.0,13.0,0.0
1409,63.0,0.0,60.0,13.0,0.0
1410,63.0,60.0,60.0,7.0,0.0
1411,63.0,0.0,60.0,14.0,0.0
1412,65.0,36.0,60.0,14.0,0.0
1413,65.0,0.0,60.0,13.0,0.0
1414,65.0,0.0,60.0,7.0,0.0
1415,61.0,0.0,60.0,14.0,0.0
1416,61.0,0.0,60.0,13.0,0.0
1417,85.0,0.0,60.0,0.0,0.0
1418,78.0,0.0,60.0,2.0,0.0
1419,61.0,0.0,60.0,7.0,0.0
1420,54.0,24.0,30.0,3.0,0.0
1421,82.0,6.0,60.0,1.0,0.0
1422,54.0,234.0,30.0,3.0,0.0
1423,82.0,0.0,240.0,1.0,0.0
1424,78.0,114.0,240.0,2.0,0.0
1425,85.0,0.0,240.0,0.0,0.0
1426,54.0,36.0,900.0,7.0,0.0
1427,54.0,0.0,240.0,3.0,0.0
1428,54.0,0.0,480.0,14.0,0.0
1429,54.0,234.0,480.0,13.0,0.0
1430,78.0,0.0,60.0,5.0,0.0
1431,73.0,6.0,60.0,6.0,0.0
1432,73.0,0.0,180.0,6.0,0.0
1433,78.0,60.0,180.0,5.0,0.0
1434,68.0,60.0,60.0,4.0,0.0
1435,70.0,0.0,60.0,4.0,0.0
1436,70.0,0.0,60.0,6.0,0.0
1437,66.0,0.0,60.0,4.0,0.0
1438,73.0,6.0,60.0,5.0,0.0
1439,66.0,234.0,480.0,6.0,0.0
1440,54.0,0.0,420.0,13.0,0.0
1441,73.0,60.0,780.0,4.0,0.0
1442,54.0,0.0,420.0,14.0,0.0
1443,70.0,0.0,480.0,5.0,0.0
1444,73.0,0.0,60.0,12.0,0.0
1445,78.0,120.0,60.0,11.0,0.0
1446,78.0,0.0,180.0,11.0,0.0
1447,73.0,0.0,180.0,12.0,0.0
1448,68.0,60.0,60.0,10.0,0.0
1449,70.0,0.0,60.0,10.0,0.0
1450,66.0,6.0,60.0,10.0,0.0
1451,54.0,0.0,60.0,13.0,0.0
1452,70.0,0.0,60.0,12.0,0.0
1453,82.0,0.0,60.0,2.0,0.0
1454,90.0,0.0,60.0,0.0,0.0
1455,73.0,0.0,60.0,11.0,0.0
1456,54.0,0.0,60.0,7.0,0.0
1457,54.0,0.0,60.0,14.0,0.0
1458,85.0,0.0,60.0,1.0,0.0
1459,54.0,24.0,30.0,3.0,0.0
1460,54.0,0.0,30.0,3.0,0.0
1461,90.0,0.0,240.0,0.0,0.0
1462,66.0,234.0,480.0,12.0,0.0
1463,54.0,0.0,480.0,13.0,0.0
1464,70.0,0.0,480.0,11.0,0.0
1465,54.0,0.0,900.0,7.0,0.0
1466,85.0,54.0,240.0,1.0,0.0
1467,54.0,0.0,480.0,14.0,0.0
1468,75.0,60.0,780.0,10.0,0.0
1469,54.0,0.0,240.0,3.0,0.0
1470,82.0,0.0,240.0,2.0,0.0
1471,78.0,0.0,60.0,5.0,0.0
1472,70.0,6.0,60.0,6.0,0.0
1473,78.0,0.0,180.0,5.0,0.0
1474,70.0,0.0,180.0,6.0,0.0
1475,71.0,60.0,60.0,4.0,0.0
1476,73.0,60.0,60.0,4.0,0.0
1477,73.0,6.0,60.0,5.0,0.0
1478,70.0,0.0,60.0,4.0,0.0
1479,66.0,0.0,60.0,6.0,0.0
1480,71.0,60.0,780.0,4.0,0.0
1481,66.0,234.0,480.0,6.0,0.0
1482,75.0,0.0,480.0,5.0,0.0
1483,54.0,0.0,420.0,14.0,0.0
1484,54.0,0.0,420.0,13.0,0.0
1485,71.0,60.0,60.0,12.0,0.0
1486,78.0,0.0,60.0,11.0,0.0
1487,71.0,36.0,180.0,12.0,0.0
1488,78.0,0.0,180.0,11.0,0.0
1489,73.0,60.0,60.0,10.0,0.0
1490,75.0,0.0,60.0,10.0,0.0
1491,71.0,0.0,60.0,10.0,0.0
1492,54.0,0.0,60.0,13.0,0.0
1493,66.0,0.0,60.0,12.0,0.0
1494,75.0,6.0,60.0,11.0,0.0
1495,54.0,0.0,60.0,14.0,0.0
1496,54.0,0.0,60.0,7.0,0.0
1497,78.0,0.0,60.0,0.0,0.0
1498,54.0,24.0,30.0,3.0,0.0
1499,66.0,0.0,60.0,2.0,0.0
1500,83.0,0.0,60.0,1.0,0.0
1501,54.0,0.0,30.0,3.0,0.0
1502,85.0,0.0,240.0,1.0,0.0
1503,54.0,36.0,900.0,7.0,0.0
1504,73.0,60.0,540.0,10.0,0.0
1505,85.0,54.0,240.0,0.0,0.0
1506,73.0,0.0,480.0,11.0,0.0
1507,66.0,0.0,240.0,2.0,0.0
1508,54.0,0.0,480.0,13.0,0.0
1509,54.0,0.0,480.0,14.0,0.0
1510,54.0,0.0,240.0,3.0,0.0
1511,66.0,54.0,480.0,12.0,0.0
1512,78.0,6.0,60.0,5.0,0.0
1513,73.0,0.0,60.0,6.0,0.0
1514,78.0,60.0,180.0,5.0,0.0
1515,73.0,0.0,180.0,6.0,0.0
1516,70.0,60.0,60.0,4.0,0.0
1517,71.0,0.0,60.0,4.0,0.0
1518,71.0,0.0,60.0,5.0,0.0
1519,68.0,6.0,60.0,4.0,0.0
1520,77.0,0.0,60.0,6.0,0.0
1521,54.0,0.0,420.0,13.0,0.0
1522,54.0,0.0,420.0,14.0,0.0
1523,78.0,54.0,240.0,6.0,0.0
1524,73.0,0.0,240.0,5.0,0.0
1525,70.0,0.0,60.0,4.0,0.0
1526,71.0,60.0,60.0,4.0,0.0
1527,71.0,0.0,60.0,10.0,0.0
1528,73.0,0.0,60.0,10.0,0.0
1529,73.0,60.0,60.0,4.0,0.0
1530,75.0,0.0,60.0,10.0,0.0
1531,75.0,0.0,60.0,4.0,0.0
1532,78.0,0.0,60.0,12.0,0.0
1533,82.0,6.0,60.0,11.0,0.0
1534,73.0,0.0,180.0,12.0,0.0
1535,82.0,0.0,180.0,11.0,0.0
1536,77.0,0.0,60.0,10.0,0.0
1537,77.0,60.0,60.0,4.0,0.0
1538,78.0,60.0,60.0,10.0,0.0
1539,78.0,0.0,60.0,4.0,0.0
1540,80.0,0.0,60.0,10.0,0.0
1541,80.0,0.0,60.0,4.0,0.0
1542,78.0,0.0,60.0,5.0,0.0
1543,73.0,0.0,60.0,12.0,0.0
1544,54.0,24.0,30.0,3.0,0.0
1545,54.0,0.0,60.0,7.0,0.0
1546,78.0,0.0,60.0,11.0,0.0
1547,82.0,0.0,60.0,10.0,0.0
1548,82.0,0.0,60.0,4.0,0.0
1549,82.0,6.0,60.0,0.0,0.0
1550,54.0,0.0,60.0,14.0,0.0
1551,78.0,0.0,60.0,1.0,0.0
1552,54.0,0.0,60.0,13.0,0.0
1553,73.0,0.0,60.0,6.0,0.0
1554,73.0,0.0,60.0,2.0,0.0
1555,54.0,294.0,30.0,3.0,0.0
1556,54.0,56.0,300.0,13.0,0.0
1557,80.0,4.0,360.0,2.0,0.0
1558,54.0,0.0,300.0,7.0,0.0
1559,54.0,0.0,300.0,14.0,0.0
1560,83.0,0.0,360.0,0.0,0.0
1561,54.0,40.0,360.0,3.0,0.0
1562,83.0,0.0,360.0,10.0,0.0
1563,80.0,0.0,360.0,1.0,0.0
1564,83.0,0.0,360.0,4.0,0.0
1565,80.0,0.0,360.0,11.0,0.0
1566,80.0,0.0,360.0,5.0,0.0
1567,75.0,0.0,360.0,12.0,0.0
1568,75.0,0.0,360.0,6.0,0.0
1569,53.0,0.0,60.0,7.0,0.0
1570,53.0,0.0,60.0,13.0,0.0
1571,53.0,6.0,60.0,14.0,0.0
1572,54.0,0.0,60.0,14.0,0.0
1573,80.0,0.0,120.0,2.0,0.0
1574,54.0,14.0,40.0,3.0,0.0
1575,83.0,0.0,120.0,0.0,0.0
1576,54.0,26.0,60.0,13.0,0.0
1577,75.0,0.0,120.0,12.0,0.0
1578,83.0,4.0,120.0,10.0,0.0
1579,80.0,0.0,120.0,11.0,0.0
1580,80.0,0.0,120.0,5.0,0.0
1581,54.0,0.0,60.0,7.0,0.0
1582,83.0,0.0,120.0,4.0,0.0
1583,75.0,0.0,120.0,6.0,0.0
1584,80.0,0.0,120.0,1.0,0.0
1585,54.0,30.0,40.0,3.0,0.0
1586,51.0,0.0,60.0,7.0,0.0
1587,51.0,6.0,60.0,13.0,0.0
1588,51.0,0.0,60.0,14.0,0.0
1589,54.0,174.0,40.0,3.0,0.0
1590,53.0,0.0,240.0,13.0,0.0
1591,73.0,0.0,240.0,12.0,0.0
1592,73.0,0.0,240.0,6.0,0.0
1593,80.0,0.0,240.0,11.0,0.0
1594,80.0,0.0,240.0,5.0,0.0
1595,83.0,0.0,180.0,0.0,0.0
1596,49.0,174.0,240.0,3.0,0.0
1597,83.0,0.0,180.0,10.0,0.0
1598,80.0,0.0,240.0,1.0,0.0
1599,53.0,0.0,240.0,14.0,0.0
1600,53.0,0.0,240.0,7.0,0.0
1601,73.0,4.0,240.0,2.0,0.0
1602,83.0,56.0,180.0,4.0,0.0
1603,80.0,0.0,60.0,4.0,0.0
1604,80.0,6.0,60.0,0.0,0.0
1605,80.0,0.0,60.0,10.0,0.0
1606,85.0,0.0,180.0,0.0,0.0
1607,49.0,0.0,240.0,14.0,0.0
1608,85.0,56.0,180.0,4.0,0.0
1609,73.0,0.0,240.0,6.0,0.0
1610,80.0,4.0,240.0,1.0,0.0
1611,49.0,0.0,240.0,13.0,0.0
1612,77.0,0.0,240.0,11.0,0.0
1613,73.0,0.0,240.0,2.0,0.0
1614,85.0,0.0,180.0,10.0,0.0
1615,49.0,0.0,240.0,7.0,0.0
1616,49.0,174.0,240.0,3.0,0.0
1617,77.0,0.0,240.0,5.0,0.0
1618,68.0,0.0,240.0,12.0,0.0
1619,80.0,6.0,60.0,10.0,0.0
1620,80.0,0.0,60.0,0.0,0.0
1621,80.0,0.0,60.0,4.0,0.0
1622,66.0,56.0,180.0,12.0,0.0
1623,82.0,0.0,240.0,4.0,0.0
1624,73.0,0.0,240.0,2.0,0.0
1625,54.0,0.0,480.0,3.0,0.0
1626,78.0,0.0,180.0,11.0,0.0
1627,54.0,0.0,300.0,14.0,0.0
1628,73.0,0.0,240.0,6.0,0.0
1629,82.0,0.0,240.0,0.0,0.0
1630,82.0,0.0,240.0,10.0,0.0
1631,54.0,0.0,300.0,7.0,0.0
1632,54.0,60.0,300.0,13.0,0.0
1633,78.0,0.0,240.0,1.0,0.0
1634,78.0,4.0,240.0,5.0,0.0
1635,73.0,60.0,60.0,11.0,0.0
1636,70.0,0.0,60.0,12.0,0.0
1637,70.0,0.0,240.0,6.0,0.0
1638,78.0,0.0,240.0,0.0,0.0
1639,70.0,0.0,240.0,2.0,0.0
1640,73.0,0.0,180.0,11.0,0.0
1641,78.0,4.0,240.0,10.0,0.0
1642,73.0,0.0,240.0,5.0,0.0
1643,70.0,0.0,180.0,12.0,0.0
1644,78.0,0.0,240.0,4.0,0.0
1645,73.0,54.0,240.0,1.0,0.0
1646,53.0,0.0,60.0,14.0,0.0
1647,53.0,60.0,60.0,7.0,0.0
1648,53.0,0.0,60.0,13.0,0.0
1649,54.0,0.0,60.0,13.0,0.0
1650,54.0,0.0,60.0,14.0,0.0
1651,54.0,56.0,60.0,7.0,0.0
1652,56.0,0.0,60.0,7.0,0.0
1653,56.0,0.0,60.0,13.0,0.0
1654,66.0,0.0,60.0,12.0,0.0
1655,70.0,0.0,60.0,11.0,0.0
1656,56.0,6.0,60.0,14.0,0.0
1657,58.0,0.0,60.0,14.0,0.0
1658,85.0,60.0,540.0,10.0,0.0
1659,58.0,60.0,60.0,13.0,0.0
1660,61.0,54.0,480.0,12.0,0.0
1661,85.0,0.0,540.0,4.0,0.0
1662,58.0,0.0,60.0,7.0,0.0
1663,66.0,0.0,480.0,11.0,0.0
1664,59.0,0.0,60.0,13.0,0.0
1665,59.0,0.0,60.0,14.0,0.0
1666,59.0,60.0,60.0,7.0,0.0
1667,61.0,0.0,60.0,7.0,0.0
1668,61.0,0.0,60.0,13.0,0.0
1669,61.0,60.0,60.0,14.0,0.0
1670,78.0,0.0,60.0,6.0,0.0
1671,63.0,0.0,60.0,14.0,0.0
1672,82.0,60.0,60.0,5.0,0.0
1673,63.0,0.0,60.0,7.0,0.0
1674,63.0,0.0,60.0,13.0,0.0
1675,64.0,0.0,60.0,14.0,0.0
1676,64.0,60.0,60.0,13.0,0.0
1677,78.0,0.0,180.0,6.0,0.0
1678,64.0,0.0,60.0,7.0,0.0
1679,82.0,0.0,180.0,5.0,0.0
1680,63.0,60.0,60.0,7.0,0.0
1681,63.0,0.0,60.0,13.0,0.0
1682,63.0,0.0,60.0,14.0,0.0
1683,64.0,0.0,60.0,14.0,0.0
1684,64.0,0.0,60.0,13.0,0.0
1685,64.0,60.0,60.0,7.0,0.0
1686,70.0,0.0,60.0,6.0,0.0
1687,61.0,6.0,60.0,14.0,0.0
1688,61.0,0.0,60.0,13.0,0.0
1689,76.0,0.0,60.0,5.0,0.0
1690,61.0,0.0,60.0,7.0,0.0
1691,55.0,0.0,300.0,13.0,0.0
1692,70.0,0.0,360.0,6.0,0.0
1693,55.0,56.0,300.0,7.0,0.0
1694,55.0,0.0,300.0,14.0,0.0
1695,75.0,4.0,360.0,5.0,0.0
1696,83.0,0.0,60.0,4.0,0.0
1697,83.0,60.0,60.0,10.0,0.0
1698,85.0,0.0,60.0,4.0,0.0
1699,85.0,60.0,60.0,10.0,0.0
1700,85.0,0.0,60.0,11.0,0.0
1701,82.0,0.0,60.0,10.0,0.0
1702,82.0,60.0,60.0,4.0,0.0
1703,70.0,0.0,60.0,12.0,0.0
1704,85.0,0.0,180.0,11.0,0.0
1705,70.0,0.0,180.0,12.0,0.0
1706,87.0,0.0,180.0,10.0,0.0
1707,87.0,0.0,180.0,4.0,0.0
1708,53.0,60.0,60.0,13.0,0.0
1709,53.0,0.0,60.0,7.0,0.0
1710,53.0,0.0,60.0,14.0,0.0
1711,70.0,0.0,120.0,6.0,0.0
1712,55.0,56.0,60.0,14.0,0.0
1713,55.0,0.0,60.0,13.0,0.0
1714,55.0,0.0,60.0,7.0,0.0
1715,75.0,4.0,120.0,5.0,0.0
1716,85.0,0.0,60.0,10.0,0.0
1717,67.0,0.0,60.0,12.0,0.0
1718,51.0,180.0,60.0,7.0,0.0
1719,82.0,0.0,60.0,11.0,0.0
1720,85.0,0.0,60.0,4.0,0.0
1721,51.0,0.0,60.0,13.0,0.0
1722,51.0,0.0,60.0,14.0,0.0
1723,83.0,0.0,360.0,10.0,0.0
1724,79.0,0.0,180.0,5.0,0.0
1725,79.0,0.0,180.0,11.0,0.0
1726,63.0,0.0,240.0,14.0,0.0
1727,75.0,56.0,180.0,6.0,0.0
1728,63.0,0.0,240.0,7.0,0.0
1729,63.0,0.0,180.0,12.0,0.0
1730,63.0,4.0,240.0,13.0,0.0
1731,83.0,64.0,360.0,4.0,0.0
1732,70.0,116.0,60.0,6.0,0.0
1733,65.0,0.0,60.0,12.0,0.0
1734,82.0,0.0,60.0,11.0,0.0
1735,82.0,0.0,60.0,5.0,0.0
1736,51.0,4.0,240.0,14.0,0.0
1737,75.0,0.0,180.0,5.0,0.0
1738,67.0,0.0,180.0,12.0,0.0
1739,51.0,0.0,240.0,7.0,0.0
1740,67.0,56.0,180.0,6.0,0.0
1741,75.0,0.0,180.0,11.0,0.0
1742,51.0,0.0,240.0,13.0,0.0
1743,82.0,0.0,120.0,4.0,0.0
1744,82.0,0.0,120.0,10.0,0.0
1745,79.0,0.0,60.0,5.0,0.0
1746,63.0,0.0,60.0,12.0,0.0
1747,75.0,0.0,60.0,6.0,0.0
1748,79.0,180.0,60.0,11.0,0.0
1749,75.0,60.0,180.0,6.0,0.0
1750,80.0,0.0,180.0,5.0,0.0
1751,56.0,0.0,480.0,14.0,0.0
1752,80.0,0.0,480.0,11.0,0.0
1753,83.0,60.0,300.0,4.0,0.0
1754,56.0,0.0,660.0,7.0,0.0
1755,75.0,0.0,480.0,12.0,0.0
1756,83.0,0.0,300.0,10.0,0.0
1757,56.0,174.0,480.0,13.0,0.0
1758,80.0,60.0,60.0,5.0,0.0
1759,75.0,0.0,60.0,6.0,0.0
1760,80.0,0.0,180.0,5.0,0.0
1761,75.0,0.0,180.0,6.0,0.0
1762,82.0,0.0,60.0,10.0,0.0
1763,82.0,60.0,60.0,4.0,0.0
1764,83.0,60.0,60.0,10.0,0.0
1765,83.0,0.0,60.0,4.0,0.0
1766,75.0,0.0,60.0,5.0,0.0
1767,80.0,0.0,60.0,4.0,0.0
1768,71.0,0.0,60.0,6.0,0.0
1769,80.0,6.0,60.0,10.0,0.0
1770,71.0,0.0,240.0,5.0,0.0
1771,56.0,60.0,180.0,14.0,0.0
1772,68.0,174.0,240.0,6.0,0.0
1773,76.0,60.0,540.0,4.0,0.0
1774,56.0,0.0,180.0,13.0,0.0
1775,76.0,0.0,540.0,10.0,0.0
1776,56.0,0.0,60.0,7.0,0.0
1777,56.0,0.0,60.0,14.0,0.0
1778,71.0,6.0,60.0,11.0,0.0
1779,68.0,0.0,60.0,12.0,0.0
1780,56.0,0.0,60.0,13.0,0.0
1781,58.0,0.0,180.0,14.0,0.0
1782,58.0,0.0,180.0,7.0,0.0
1783,58.0,60.0,180.0,13.0,0.0
1784,66.0,0.0,180.0,12.0,0.0
1785,73.0,0.0,180.0,11.0,0.0
1786,54.0,60.0,60.0,7.0,0.0
1787,70.0,0.0,60.0,5.0,0.0
1788,73.0,0.0,60.0,6.0,0.0
1789,54.0,0.0,60.0,14.0,0.0
1790,66.0,0.0,60.0,12.0,0.0
1791,70.0,0.0,60.0,11.0,0.0
1792,54.0,0.0,60.0,13.0,0.0
1793,71.0,64.0,360.0,5.0,0.0
1794,59.0,60.0,180.0,14.0,0.0
1795,66.0,0.0,360.0,6.0,0.0
1796,59.0,0.0,180.0,13.0,0.0
1797,66.0,0.0,360.0,12.0,0.0
1798,71.0,0.0,360.0,11.0,0.0
1799,59.0,0.0,180.0,7.0,0.0
1800,75.0,0.0,60.0,10.0,0.0
1801,75.0,60.0,60.0,4.0,0.0
1802,76.0,0.0,60.0,4.0,0.0
1803,76.0,0.0,60.0,10.0,0.0
1804,58.0,0.0,60.0,7.0,0.0
1805,58.0,116.0,60.0,13.0,0.0
1806,73.0,0.0,60.0,10.0,0.0
1807,58.0,0.0,60.0,14.0,0.0
1808,73.0,0.0,60.0,4.0,0.0
1809,59.0,0.0,180.0,14.0,0.0
1810,75.0,56.0,180.0,4.0,0.0
1811,59.0,0.0,180.0,13.0,0.0
1812,75.0,0.0,180.0,10.0,0.0
1813,59.0,0.0,180.0,7.0,0.0
1814,71.0,0.0,120.0,11.0,0.0
1815,68.0,0.0,120.0,6.0,0.0
1816,68.0,0.0,120.0,12.0,0.0
1817,71.0,4.0,120.0,5.0,0.0
1818,56.0,180.0,60.0,13.0,0.0
1819,56.0,0.0,60.0,7.0,0.0
1820,77.0,0.0,60.0,10.0,0.0
1821,56.0,0.0,60.0,14.0,0.0
1822,77.0,0.0,60.0,4.0,0.0
1823,66.0,0.0,180.0,12.0,0.0
1824,73.0,0.0,180.0,5.0,0.0
1825,66.0,0.0,180.0,6.0,0.0
1826,58.0,0.0,180.0,14.0,0.0
1827,78.0,0.0,360.0,4.0,0.0
1828,73.0,0.0,180.0,11.0,0.0
1829,58.0,0.0,180.0,7.0,0.0
1830,78.0,64.0,360.0,10.0,0.0
1831,58.0,60.0,180.0,13.0,0.0
1832,71.0,0.0,60.0,11.0,0.0
1833,71.0,0.0,60.0,6.0,0.0
1834,71.0,0.0,60.0,5.0,0.0
1835,56.0,0.0,60.0,7.0,0.0
1836,56.0,116.0,60.0,14.0,0.0
1837,68.0,0.0,60.0,12.0,0.0
1838,56.0,0.0,60.0,13.0,0.0
1839,73.0,0.0,180.0,11.0,0.0
1840,58.0,0.0,180.0,7.0,0.0
1841,58.0,0.0,180.0,13.0,0.0
1842,73.0,0.0,180.0,5.0,0.0
1843,70.0,36.0,180.0,6.0,0.0
1844,66.0,0.0,180.0,12.0,0.0
1845,58.0,0.0,180.0,14.0,0.0
1846,80.0,4.0,120.0,4.0,0.0
1847,80.0,0.0,120.0,10.0,0.0
1848,59.0,0.0,60.0,14.0,0.0
1849,63.0,0.0,60.0,12.0,0.0
1850,80.0,0.0,60.0,2.0,0.0
1851,59.0,6.0,60.0,13.0,0.0
1852,75.0,0.0,60.0,11.0,0.0
1853,75.0,0.0,60.0,5.0,0.0
1854,49.0,20.0,30.0,3.0,0.0
1855,85.0,0.0,60.0,1.0,0.0
1856,89.0,0.0,60.0,0.0,0.0
1857,68.0,0.0,60.0,6.0,0.0
1858,59.0,0.0,60.0,7.0,0.0
1859,49.0,174.0,30.0,3.0,0.0
1860,77.0,0.0,180.0,4.0,0.0
1861,73.0,0.0,180.0,5.0,0.0
1862,49.0,0.0,240.0,3.0,0.0
1863,61.0,0.0,180.0,12.0,0.0
1864,61.0,0.0,900.0,7.0,0.0
1865,61.0,174.0,480.0,14.0,0.0
1866,80.0,0.0,240.0,2.0,0.0
1867,89.0,0.0,240.0,0.0,0.0
1868,68.0,0.0,180.0,6.0,0.0
1869,68.0,60.0,180.0,11.0,0.0
1870,85.0,54.0,240.0,1.0,0.0
1871,61.0,0.0,480.0,13.0,0.0
1872,77.0,60.0,300.0,10.0,0.0
1873,73.0,0.0,60.0,12.0,0.0
1874,73.0,0.0,60.0,6.0,0.0
1875,77.0,0.0,60.0,5.0,0.0
1876,80.0,0.0,60.0,4.0,0.0
1877,80.0,6.0,60.0,11.0,0.0
1878,73.0,0.0,180.0,12.0,0.0
1879,73.0,0.0,180.0,6.0,0.0
1880,80.0,0.0,180.0,4.0,0.0
1881,77.0,60.0,180.0,5.0,0.0
1882,80.0,0.0,180.0,11.0,0.0
1883,75.0,60.0,60.0,10.0,0.0
1884,77.0,0.0,60.0,10.0,0.0
1885,80.0,0.0,60.0,5.0,0.0
1886,77.0,0.0,60.0,6.0,0.0
1887,68.0,6.0,60.0,12.0,0.0
1888,83.0,0.0,60.0,4.0,0.0
1889,77.0,0.0,60.0,11.0,0.0
1890,73.0,0.0,60.0,10.0,0.0
1891,65.0,0.0,480.0,12.0,0.0
1892,80.0,0.0,480.0,10.0,0.0
1893,61.0,0.0,420.0,14.0,0.0
1894,77.0,0.0,180.0,6.0,0.0
1895,73.0,234.0,480.0,11.0,0.0
1896,80.0,60.0,180.0,5.0,0.0
1897,83.0,60.0,300.0,4.0,0.0
1898,61.0,0.0,420.0,13.0,0.0
1899,75.0,0.0,60.0,6.0,0.0
1900,78.0,60.0,60.0,5.0,0.0
1901,77.0,0.0,180.0,6.0,0.0
1902,80.0,0.0,180.0,5.0,0.0
1903,75.0,60.0,60.0,4.0,0.0
1904,77.0,36.0,60.0,4.0,0.0
1905,85.0,0.0,60.0,0.0,0.0
1906,61.0,0.0,60.0,7.0,0.0
1907,80.0,0.0,60.0,6.0,0.0
1908,61.0,0.0,60.0,14.0,0.0
1909,61.0,0.0,60.0,13.0,0.0
1910,80.0,0.0,60.0,2.0,0.0
1911,49.0,24.0,30.0,3.0,0.0
1912,77.0,6.0,60.0,5.0,0.0
1913,83.0,0.0,60.0,1.0,0.0
1914,73.0,0.0,60.0,4.0,0.0
1915,49.0,0.0,30.0,3.0,0.0
1916,80.0,60.0,300.0,10.0,0.0
1917,82.0,60.0,780.0,4.0,0.0
1918,73.0,54.0,240.0,2.0,0.0
1919,61.0,0.0,480.0,13.0,0.0
1920,73.0,0.0,480.0,5.0,0.0
1921,61.0,234.0,480.0,14.0,0.0
1922,85.0,0.0,240.0,0.0,0.0
1923,49.0,0.0,240.0,3.0,0.0
1924,82.0,0.0,240.0,1.0,0.0
1925,77.0,0.0,480.0,6.0,0.0
1926,61.0,0.0,900.0,7.0,0.0
1927,73.0,0.0,60.0,12.0,0.0
1928,77.0,6.0,60.0,11.0,0.0
1929,73.0,60.0,180.0,12.0,0.0
1930,77.0,0.0,180.0,11.0,0.0
1931,78.0,60.0,60.0,10.0,0.0
1932,80.0,0.0,60.0,10.0,0.0
1933,73.0,6.0,60.0,11.0,0.0
1934,68.0,0.0,60.0,12.0,0.0
1935,77.0,0.0,60.0,10.0,0.0
1936,78.0,0.0,480.0,10.0,0.0
1937,70.0,234.0,480.0,12.0,0.0
1938,61.0,0.0,420.0,13.0,0.0
1939,73.0,0.0,480.0,11.0,0.0
1940,61.0,0.0,420.0,14.0,0.0
1941,73.0,60.0,60.0,6.0,0.0
1942,78.0,0.0,60.0,5.0,0.0
1943,73.0,0.0,180.0,6.0,0.0
1944,78.0,0.0,180.0,5.0,0.0
1945,80.0,60.0,60.0,4.0,0.0
1946,82.0,36.0,60.0,4.0,0.0
1947,61.0,0.0,60.0,7.0,0.0
1948,73.0,0.0,60.0,2.0,0.0
1949,78.0,0.0,60.0,4.0,0.0
1950,70.0,0.0,60.0,6.0,0.0
1951,49.0,24.0,30.0,3.0,0.0
1952,61.0,0.0,60.0,14.0,0.0
1953,85.0,0.0,60.0,1.0,0.0
1954,73.0,0.0,60.0,5.0,0.0
1955,61.0,0.0,60.0,13.0,0.0
1956,78.0,6.0,60.0,0.0,0.0
1957,49.0,0.0,30.0,3.0,0.0
1958,80.0,60.0,600.0,4.0,0.0
1959,61.0,0.0,480.0,13.0,0.0
1960,61.0,0.0,480.0,14.0,0.0
1961,73.0,54.0,480.0,5.0,0.0
1962,61.0,0.0,900.0,7.0,0.0
1963,73.0,54.0,240.0,2.0,0.0
1964,78.0,60.0,300.0,10.0,0.0
1965,49.0,0.0,240.0,3.0,0.0
1966,68.0,0.0,480.0,6.0,0.0
1967,80.0,0.0,240.0,0.0,0.0
1968,85.0,0.0,240.0,1.0,0.0
1969,80.0,6.0,60.0,11.0,0.0
1970,73.0,0.0,60.0,12.0,0.0
1971,80.0,60.0,180.0,11.0,0.0
1972,73.0,0.0,180.0,12.0,0.0
1973,77.0,60.0,60.0,10.0,0.0
1974,78.0,0.0,60.0,10.0,0.0
1975,75.0,0.0,60.0,10.0,0.0
1976,66.0,6.0,60.0,12.0,0.0
1977,72.0,0.0,60.0,11.0,0.0
1978,68.0,0.0,240.0,12.0,0.0
1979,77.0,60.0,60.0,10.0,0.0
1980,61.0,0.0,420.0,13.0,0.0
1981,61.0,0.0,420.0,14.0,0.0
1982,73.0,54.0,240.0,11.0,0.0
1983,80.0,0.0,60.0,10.0,0.0
1984,85.0,0.0,60.0,4.0,0.0
1985,85.0,60.0,60.0,10.0,0.0
1986,84.0,0.0,60.0,10.0,0.0
1987,84.0,0.0,60.0,4.0,0.0
1988,77.0,0.0,60.0,5.0,0.0
1989,68.0,6.0,60.0,6.0,0.0
1990,73.0,36.0,180.0,6.0,0.0
1991,82.0,0.0,60.0,10.0,0.0
1992,77.0,0.0,180.0,5.0,0.0
1993,82.0,60.0,60.0,4.0,0.0
1994,80.0,60.0,60.0,10.0,0.0
1995,80.0,0.0,60.0,4.0,0.0
1996,78.0,0.0,60.0,10.0,0.0
1997,78.0,0.0,60.0,4.0,0.0
1998,73.0,0.0,60.0,11.0,0.0
1999,77.0,0.0,60.0,10.0,0.0
2000,77.0,0.0,60.0,4.0,0.0
2001,61.0,0.0,60.0,7.0,0.0
2002,73.0,0.0,60.0,5.0,0.0
2003,82.0,6.0,60.0,2.0,0.0
2004,61.0,0.0,60.0,14.0,0.0
2005,49.0,24.0,30.0,3.0,0.0
2006,89.0,0.0,60.0,0.0,0.0
2007,61.0,0.0,60.0,13.0,0.0
2008,70.0,0.0,60.0,6.0,0.0
2009,70.0,0.0,60.0,12.0,0.0
2010,85.0,0.0,60.0,1.0,0.0
2011,49.0,294.0,30.0,3.0,0.0
2012,82.0,0.0,360.0,1.0,0.0
2013,75.0,4.0,360.0,5.0,0.0
2014,70.0,0.0,360.0,6.0,0.0
2015,78.0,0.0,360.0,2.0,0.0
2016,70.0,0.0,360.0,12.0,0.0
2017,49.0,50.0,300.0,3.0,0.0
2018,61.0,0.0,300.0,14.0,0.0
2019,78.0,0.0,360.0,10.0,0.0
2020,78.0,0.0,360.0,4.0,0.0
2021,75.0,0.0,360.0,11.0,0.0
2022,61.0,0.0,300.0,13.0,0.0
2023,87.0,0.0,360.0,0.0,0.0
2024,61.0,6.0,300.0,7.0,0.0
2025,49.0,54.0,60.0,3.0,0.0
2026,60.0,0.0,60.0,7.0,0.0
2027,60.0,6.0,60.0,13.0,0.0
2028,60.0,0.0,60.0,14.0,0.0
2029,78.0,0.0,120.0,10.0,0.0
2030,61.0,0.0,60.0,13.0,0.0
2031,75.0,0.0,120.0,5.0,0.0
2032,70.0,0.0,120.0,12.0,0.0
2033,75.0,0.0,120.0,11.0,0.0
2034,61.0,6.0,60.0,7.0,0.0
2035,78.0,0.0,120.0,4.0,0.0
2036,61.0,0.0,60.0,14.0,0.0
2037,49.0,50.0,60.0,3.0,0.0
2038,87.0,0.0,120.0,0.0,0.0
2039,70.0,0.0,120.0,6.0,0.0
2040,82.0,4.0,120.0,1.0,0.0
2041,78.0,0.0,120.0,2.0,0.0
2042,58.0,0.0,60.0,14.0,0.0
2043,58.0,6.0,60.0,7.0,0.0
2044,49.0,174.0,60.0,3.0,0.0
2045,58.0,0.0,60.0,13.0,0.0
2046,60.0,0.0,240.0,13.0,0.0
2047,54.0,174.0,240.0,3.0,0.0
2048,87.0,56.0,180.0,0.0,0.0
2049,68.0,0.0,240.0,6.0,0.0
2050,68.0,4.0,240.0,12.0,0.0
2051,60.0,0.0,240.0,7.0,0.0
2052,75.0,0.0,240.0,5.0,0.0
2053,78.0,0.0,240.0,2.0,0.0
2054,60.0,0.0,240.0,14.0,0.0
2055,78.0,0.0,180.0,4.0,0.0
2056,75.0,0.0,240.0,11.0,0.0
2057,80.0,0.0,240.0,1.0,0.0
2058,78.0,0.0,180.0,10.0,0.0
2059,85.0,0.0,60.0,0.0,0.0
2060,75.0,6.0,60.0,4.0,0.0
2061,75.0,0.0,60.0,10.0,0.0
2062,56.0,0.0,240.0,14.0,0.0
2063,63.0,0.0,240.0,12.0,0.0
2064,80.0,0.0,180.0,10.0,0.0
2065,56.0,0.0,240.0,13.0,0.0
2066,72.0,0.0,240.0,5.0,0.0
2067,78.0,4.0,240.0,2.0,0.0
2068,80.0,56.0,180.0,4.0,0.0
2069,80.0,0.0,240.0,1.0,0.0
2070,87.0,0.0,180.0,0.0,0.0
2071,56.0,0.0,240.0,7.0,0.0
2072,68.0,0.0,240.0,6.0,0.0
2073,72.0,0.0,240.0,11.0,0.0
2074,78.0,0.0,60.0,4.0,0.0
2075,84.0,6.0,60.0,0.0,0.0
2076,54.0,174.0,60.0,3.0,0.0
2077,78.0,0.0,60.0,10.0,0.0
2078,77.0,0.0,240.0,4.0,0.0
2079,61.0,54.0,480.0,12.0,0.0
2080,61.0,60.0,540.0,14.0,0.0
2081,61.0,0.0,540.0,13.0,0.0
2082,80.0,0.0,240.0,1.0,0.0
2083,49.0,0.0,480.0,3.0,0.0
2084,73.0,0.0,180.0,5.0,0.0
2085,77.0,4.0,240.0,10.0,0.0
2086,68.0,0.0,480.0,11.0,0.0
2087,61.0,0.0,540.0,7.0,0.0
2088,73.0,0.0,240.0,2.0,0.0
2089,85.0,0.0,240.0,0.0,0.0
2090,68.0,56.0,180.0,6.0,0.0
2091,77.0,180.0,60.0,6.0,0.0
2092,80.0,0.0,60.0,5.0,0.0
2093,85.0,0.0,240.0,1.0,0.0
2094,80.0,0.0,240.0,2.0,0.0
2095,73.0,0.0,240.0,4.0,0.0
2096,77.0,56.0,180.0,6.0,0.0
2097,80.0,0.0,180.0,5.0,0.0
2098,89.0,0.0,240.0,0.0,0.0
2099,73.0,4.0,240.0,10.0,0.0
2100,77.0,6.0,60.0,5.0,0.0
2101,73.0,0.0,60.0,6.0,0.0
2102,82.0,0.0,540.0,10.0,0.0
2103,77.0,0.0,480.0,5.0,0.0
2104,70.0,54.0,480.0,6.0,0.0
2105,82.0,60.0,540.0,4.0,0.0
2106,61.0,0.0,60.0,13.0,0.0
2107,61.0,0.0,60.0,7.0,0.0
2108,61.0,60.0,60.0,14.0,0.0
2109,63.0,0.0,60.0,14.0,0.0
2110,63.0,60.0,60.0,13.0,0.0
2111,63.0,0.0,60.0,7.0,0.0
2112,65.0,0.0,60.0,14.0,0.0
2113,65.0,0.0,60.0,13.0,0.0
2114,73.0,0.0,60.0,12.0,0.0
2115,82.0,0.0,60.0,11.0,0.0
2116,65.0,60.0,60.0,7.0,0.0
2117,66.0,60.0,60.0,14.0,0.0
2118,73.0,0.0,180.0,12.0,0.0
2119,66.0,0.0,60.0,13.0,0.0
2120,66.0,0.0,60.0,7.0,0.0
2121,82.0,38.0,180.0,11.0,0.0
2122,65.0,0.0,60.0,7.0,0.0
2123,65.0,0.0,60.0,13.0,0.0
2124,65.0,60.0,60.0,14.0,0.0
2125,66.0,0.0,60.0,7.0,0.0
2126,66.0,0.0,60.0,13.0,0.0
2127,66.0,0.0,60.0,14.0,0.0
2128,63.0,0.0,30.0,13.0,0.0
2129,78.0,0.0,60.0,11.0,0.0
2130,75.0,6.0,60.0,12.0,0.0
2131,63.0,0.0,30.0,7.0,0.0
2132,63.0,22.0,30.0,14.0,0.0
2133,61.0,0.0,20.0,7.0,0.0
2134,61.0,0.0,20.0,14.0,0.0
2135,61.0,0.0,20.0,13.0,0.0
2136,75.0,0.0,360.0,12.0,0.0
2137,60.0,4.0,360.0,7.0,0.0
2138,60.0,0.0,360.0,13.0,0.0
2139,75.0,0.0,360.0,11.0,0.0
2140,60.0,0.0,360.0,14.0,0.0
2141,82.0,60.0,60.0,4.0,0.0
2142,82.0,0.0,60.0,10.0,0.0
2143,84.0,0.0,60.0,10.0,0.0
2144,84.0,60.0,60.0,4.0,0.0
2145,85.0,0.0,60.0,10.0,0.0
2146,75.0,60.0,60.0,6.0,0.0
2147,78.0,0.0,60.0,5.0,0.0
2148,85.0,0.0,60.0,4.0,0.0
2149,87.0,56.0,60.0,10.0,0.0
2150,78.0,0.0,180.0,5.0,0.0
2151,87.0,0.0,60.0,4.0,0.0
2152,75.0,56.0,180.0,6.0,0.0
2153,85.0,60.0,60.0,10.0,0.0
2154,85.0,0.0,60.0,4.0,0.0
2155,75.0,0.0,120.0,11.0,0.0
2156,58.0,0.0,120.0,7.0,0.0
2157,58.0,0.0,120.0,14.0,0.0
2158,87.0,0.0,60.0,4.0,0.0
2159,78.0,0.0,120.0,12.0,0.0
2160,87.0,0.0,60.0,10.0,0.0
2161,58.0,4.0,120.0,13.0,0.0
2162,84.0,0.0,60.0,4.0,0.0
2163,75.0,0.0,60.0,5.0,0.0
2164,84.0,0.0,60.0,10.0,0.0
2165,78.0,180.0,60.0,6.0,0.0
2166,57.0,0.0,240.0,13.0,0.0
2167,72.0,0.0,240.0,12.0,0.0
2168,72.0,0.0,240.0,6.0,0.0
2169,77.0,56.0,180.0,4.0,0.0
2170,77.0,4.0,240.0,5.0,0.0
2171,57.0,0.0,240.0,7.0,0.0
2172,77.0,0.0,180.0,10.0,0.0
2173,77.0,0.0,240.0,11.0,0.0
2174,57.0,0.0,240.0,14.0,0.0
2175,87.0,180.0,60.0,10.0,0.0
2176,87.0,0.0,60.0,4.0,0.0
2177,77.0,0.0,240.0,6.0,0.0
2178,85.0,0.0,180.0,10.0,0.0
2179,81.0,0.0,240.0,11.0,0.0
2180,53.0,4.0,240.0,14.0,0.0
2181,53.0,0.0,240.0,13.0,0.0
2182,85.0,56.0,180.0,4.0,0.0
2183,77.0,0.0,240.0,12.0,0.0
2184,81.0,0.0,240.0,5.0,0.0
2185,53.0,0.0,240.0,7.0,0.0
2186,84.0,0.0,60.0,10.0,0.0
2187,84.0,180.0,60.0,4.0,0.0
2188,58.0,0.0,540.0,7.0,0.0
2189,85.0,0.0,300.0,10.0,0.0
2190,82.0,0.0,480.0,5.0,0.0
2191,77.0,54.0,480.0,6.0,0.0
2192,85.0,60.0,300.0,4.0,0.0
2193,58.0,0.0,540.0,13.0,0.0
2194,77.0,0.0,180.0,12.0,0.0
2195,58.0,60.0,540.0,14.0,0.0
2196,82.0,60.0,180.0,11.0,0.0
2197,77.0,0.0,60.0,11.0,0.0
2198,70.0,60.0,60.0,12.0,0.0
2199,70.0,0.0,180.0,12.0,0.0
2200,77.0,0.0,180.0,11.0,0.0
2201,84.0,0.0,60.0,10.0,0.0
2202,84.0,60.0,60.0,4.0,0.0
2203,85.0,60.0,60.0,10.0,0.0
2204,85.0,0.0,60.0,4.0,0.0
2205,73.0,0.0,60.0,11.0,0.0
2206,82.0,0.0,60.0,4.0,0.0
2207,65.0,0.0,60.0,12.0,0.0
2208,82.0,6.0,60.0,10.0,0.0
2209,70.0,0.0,480.0,12.0,0.0
2210,78.0,0.0,540.0,10.0,0.0
2211,73.0,54.0,480.0,11.0,0.0
2212,78.0,60.0,540.0,4.0,0.0
2213,56.0,0.0,60.0,7.0,0.0
2214,56.0,0.0,60.0,13.0,0.0
2215,56.0,60.0,60.0,14.0,0.0
2216,58.0,0.0,60.0,13.0,0.0
2217,58.0,60.0,60.0,14.0,0.0
2218,58.0,0.0,60.0,7.0,0.0
2219,60.0,0.0,60.0,13.0,0.0
2220,73.0,0.0,60.0,6.0,0.0
2221,60.0,60.0,60.0,14.0,0.0
2222,77.0,0.0,60.0,5.0,0.0
2223,60.0,0.0,60.0,7.0,0.0
2224,61.0,0.0,60.0,14.0,0.0
2225,61.0,60.0,60.0,13.0,0.0
2226,77.0,60.0,180.0,5.0,0.0
2227,61.0,0.0,60.0,7.0,0.0
2228,70.0,0.0,180.0,6.0,0.0
2229,60.0,0.0,60.0,13.0,0.0
2230,60.0,0.0,60.0,14.0,0.0
2231,60.0,60.0,60.0,7.0,0.0
2232,61.0,0.0,60.0,14.0,0.0
2233,61.0,0.0,60.0,13.0,0.0
2234,61.0,0.0,60.0,7.0,0.0
2235,58.0,0.0,60.0,14.0,0.0
2236,58.0,0.0,60.0,7.0,0.0
2237,58.0,0.0,60.0,13.0,0.0
2238,73.0,0.0,60.0,5.0,0.0
2239,70.0,6.0,60.0,6.0,0.0
2240,75.0,0.0,360.0,5.0,0.0
2241,60.0,60.0,180.0,13.0,0.0
2242,68.0,64.0,360.0,6.0,0.0
2243,60.0,0.0,180.0,14.0,0.0
2244,60.0,0.0,180.0,7.0,0.0
2245,77.0,60.0,60.0,10.0,0.0
2246,77.0,0.0,60.0,4.0,0.0
2247,78.0,0.0,60.0,10.0,0.0
2248,78.0,0.0,60.0,4.0,0.0
2249,68.0,116.0,60.0,12.0,0.0
2250,75.0,0.0,60.0,10.0,0.0
2251,56.0,0.0,60.0,13.0,0.0
2252,75.0,0.0,60.0,4.0,0.0
2253,72.0,0.0,60.0,11.0,0.0
2254,56.0,0.0,60.0,14.0,0.0
2255,56.0,0.0,60.0,7.0,0.0
2256,68.0,0.0,180.0,11.0,0.0
2257,61.0,0.0,180.0,7.0,0.0
2258,77.0,0.0,180.0,10.0,0.0
2259,61.0,0.0,180.0,14.0,0.0
2260,65.0,0.0,180.0,12.0,0.0
2261,77.0,0.0,180.0,4.0,0.0
2262,61.0,56.0,180.0,13.0,0.0
2263,66.0,4.0,120.0,6.0,0.0
2264,73.0,0.0,60.0,5.0,0.0
2265,63.0,0.0,60.0,12.0,0.0
2266,72.0,0.0,60.0,11.0,0.0
2267,63.0,0.0,60.0,7.0,0.0
2268,63.0,0.0,60.0,14.0,0.0
2269,72.0,0.0,60.0,5.0,0.0
2270,78.0,0.0,60.0,10.0,0.0
2271,78.0,180.0,60.0,4.0,0.0
2272,63.0,0.0,60.0,13.0,0.0
2273,80.0,0.0,180.0,4.0,0.0
2274,65.0,0.0,180.0,14.0,0.0
2275,65.0,0.0,180.0,13.0,0.0
2276,73.0,60.0,180.0,5.0,0.0
2277,73.0,0.0,180.0,11.0,0.0
2278,80.0,0.0,180.0,10.0,0.0
2279,65.0,0.0,180.0,7.0,0.0
2280,61.0,0.0,180.0,12.0,0.0
2281,73.0,0.0,180.0,6.0,0.0
2282,66.0,0.0,60.0,13.0,0.0
2283,66.0,0.0,60.0,14.0,0.0
2284,73.0,0.0,60.0,5.0,0.0
2285,66.0,0.0,60.0,6.0,0.0
2286,66.0,0.0,60.0,12.0,0.0
2287,66.0,0.0,60.0,7.0,0.0
2288,82.0,21.0,60.0,10.0,0.0
2289,73.0,0.0,60.0,11.0,0.0
2290,82.0,0.0,60.0,4.0,0.0
2291,63.0,15.0,15.0,13.0,0.0
2292,63.0,0.0,15.0,7.0,0.0
2293,75.0,6.0,180.0,11.0,0.0
2294,84.0,0.0,180.0,4.0,0.0
2295,84.0,0.0,180.0,10.0,0.0
2296,66.0,0.0,180.0,6.0,0.0
2297,75.0,0.0,180.0,5.0,0.0
2298,66.0,0.0,180.0,12.0,0.0
2299,63.0,0.0,15.0,14.0,0.0
2300,65.0,15.0,15.0,7.0,0.0
2301,65.0,0.0,15.0,13.0,0.0
2302,65.0,0.0,15.0,14.0,0.0
2303,63.0,0.0,15.0,13.0,0.0
2304,63.0,0.0,15.0,7.0,0.0
2305,63.0,15.0,15.0,14.0,0.0
2306,65.0,0.0,15.0,13.0,0.0
2307,65.0,0.0,15.0,7.0,0.0
2308,65.0,15.0,15.0,14.0,0.0
2309,63.0,0.0,15.0,13.0,0.0
2310,63.0,0.0,15.0,14.0,0.0
2311,63.0,15.0,15.0,7.0,0.0
2312,65.0,0.0,15.0,13.0,0.0
2313,65.0,0.0,15.0,14.0,0.0
2314,65.0,15.0,15.0,7.0,0.0
2315,63.0,15.0,15.0,13.0,0.0
2316,63.0,0.0,15.0,14.0,0.0
2317,63.0,0.0,15.0,7.0,0.0
2318,65.0,0.0,15.0,7.0,0.0
2319,65.0,15.0,15.0,13.0,0.0
2320,65.0,0.0,15.0,14.0,0.0
2321,63.0,0.0,15.0,7.0,0.0
2322,63.0,0.0,15.0,13.0,0.0
2323,63.0,15.0,15.0,14.0,0.0
2324,65.0,15.0,15.0,13.0,0.0
2325,65.0,0.0,15.0,7.0,0.0
2326,65.0,0.0,15.0,14.0,0.0
2327,61.0,0.0,15.0,14.0,0.0
2328,61.0,0.0,15.0,13.0,0.0
2329,61.0,9.0,15.0,7.0,0.0
2330,63.0,54.0,15.0,7.0,0.0
2331,63.0,0.0,15.0,14.0,0.0
2332,63.0,0.0,15.0,13.0,0.0
2333,85.0,0.0,60.0,10.0,0.0
2334,68.0,0.0,60.0,12.0,0.0
2335,61.0,0.0,60.0,7.0,0.0
2336,77.0,60.0,60.0,5.0,0.0
2337,68.0,0.0,60.0,6.0,0.0
2338,85.0,0.0,60.0,4.0,0.0
2339,61.0,0.0,60.0,14.0,0.0
2340,77.0,0.0,60.0,11.0,0.0
2341,61.0,0.0,60.0,13.0,0.0
2342,56.0,0.0,480.0,14.0,0.0
2343,56.0,0.0,480.0,13.0,0.0
2344,68.0,0.0,480.0,12.0,0.0
2345,56.0,0.0,900.0,7.0,0.0
2346,72.0,0.0,180.0,5.0,0.0
2347,84.0,60.0,60.0,10.0,0.0
2348,75.0,54.0,480.0,11.0,0.0
2349,75.0,60.0,300.0,4.0,0.0
2350,68.0,0.0,180.0,6.0,0.0
2351,85.0,60.0,60.0,10.0,0.0
2352,87.0,60.0,60.0,10.0,0.0
2353,72.0,0.0,60.0,6.0,0.0
2354,78.0,0.0,60.0,5.0,0.0
2355,84.0,60.0,60.0,10.0,0.0
2356,72.0,60.0,180.0,6.0,0.0
2357,80.0,60.0,300.0,10.0,0.0
2358,78.0,0.0,180.0,5.0,0.0
2359,73.0,60.0,60.0,4.0,0.0
2360,75.0,0.0,60.0,4.0,0.0
2361,72.0,6.0,60.0,4.0,0.0
2362,75.0,0.0,60.0,5.0,0.0
2363,68.0,0.0,60.0,6.0,0.0
2364,56.0,0.0,420.0,13.0,0.0
2365,72.0,0.0,480.0,5.0,0.0
2366,68.0,54.0,480.0,6.0,0.0
2367,56.0,0.0,420.0,14.0,0.0
2368,78.0,60.0,300.0,4.0,0.0
2369,82.0,60.0,60.0,10.0,0.0
2370,84.0,60.0,60.0,10.0,0.0
2371,80.0,60.0,60.0,12.0,0.0
2372,84.0,0.0,60.0,11.0,0.0
2373,80.0,0.0,60.0,10.0,0.0
2374,75.0,0.0,180.0,12.0,0.0
2375,87.0,60.0,300.0,10.0,0.0
2376,84.0,60.0,180.0,11.0,0.0
2377,77.0,60.0,60.0,4.0,0.0
2378,78.0,0.0,60.0,4.0,0.0
2379,72.0,0.0,60.0,12.0,0.0
2380,80.0,0.0,60.0,11.0,0.0
2381,56.0,0.0,60.0,13.0,0.0
2382,56.0,6.0,60.0,14.0,0.0
2383,75.0,0.0,60.0,4.0,0.0
2384,56.0,0.0,60.0,7.0,0.0
2385,56.0,0.0,900.0,7.0,0.0
2386,56.0,54.0,480.0,13.0,0.0
2387,56.0,0.0,480.0,14.0,0.0
2388,68.0,0.0,480.0,12.0,0.0
2389,77.0,0.0,480.0,11.0,0.0
2390,77.0,60.0,300.0,4.0,0.0
2391,85.0,60.0,60.0,10.0,0.0
2392,87.0,60.0,60.0,10.0,0.0
2393,84.0,0.0,60.0,10.0,0.0
2394,80.0,60.0,60.0,5.0,0.0
2395,68.0,0.0,60.0,6.0,0.0
2396,80.0,60.0,180.0,5.0,0.0
2397,85.0,60.0,300.0,10.0,0.0
2398,73.0,0.0,180.0,6.0,0.0
2399,75.0,60.0,60.0,4.0,0.0
2400,77.0,0.0,60.0,4.0,0.0
2401,77.0,0.0,60.0,5.0,0.0
2402,73.0,0.0,60.0,4.0,0.0
2403,68.0,6.0,60.0,6.0,0.0
2404,80.0,60.0,300.0,4.0,0.0
2405,73.0,0.0,480.0,5.0,0.0
2406,56.0,0.0,420.0,13.0,0.0
2407,56.0,0.0,420.0,14.0,0.0
2408,77.0,54.0,480.0,6.0,0.0
2409,84.0,60.0,60.0,10.0,0.0
2410,85.0,60.0,60.0,10.0,0.0
2411,85.0,0.0,60.0,11.0,0.0
2412,77.0,0.0,60.0,12.0,0.0
2413,80.0,60.0,60.0,10.0,0.0
2414,80.0,0.0,180.0,12.0,0.0
2415,89.0,60.0,300.0,10.0,0.0
2416,85.0,0.0,180.0,11.0,0.0
2417,78.0,60.0,60.0,4.0,0.0
2418,80.0,60.0,60.0,4.0,0.0
2419,56.0,6.0,60.0,14.0,0.0
2420,80.0,0.0,60.0,11.0,0.0
2421,56.0,0.0,60.0,7.0,0.0
2422,77.0,0.0,60.0,4.0,0.0
2423,56.0,0.0,60.0,13.0,0.0
2424,73.0,0.0,60.0,12.0,0.0
2425,81.0,0.0,480.0,11.0,0.0
2426,56.0,54.0,480.0,13.0,0.0
2427,72.0,0.0,480.0,12.0,0.0
2428,78.0,60.0,300.0,4.0,0.0
2429,56.0,0.0,480.0,14.0,0.0
2430,56.0,0.0,900.0,7.0,0.0
2431,87.0,60.0,60.0,10.0,0.0
2432,89.0,60.0,60.0,10.0,0.0
2433,85.0,0.0,60.0,10.0,0.0
2434,78.0,0.0,60.0,6.0,0.0
2435,81.0,60.0,60.0,5.0,0.0
2436,81.0,60.0,180.0,5.0,0.0
2437,87.0,60.0,300.0,10.0,0.0
2438,72.0,0.0,180.0,6.0,0.0
2439,77.0,60.0,60.0,4.0,0.0
2440,78.0,0.0,60.0,4.0,0.0
2441,75.0,0.0,60.0,4.0,0.0
2442,75.0,0.0,60.0,6.0,0.0
2443,78.0,6.0,60.0,5.0,0.0
2444,56.0,0.0,420.0,13.0,0.0
2445,75.0,54.0,480.0,5.0,0.0
2446,81.0,60.0,300.0,4.0,0.0
2447,56.0,0.0,420.0,14.0,0.0
2448,78.0,0.0,480.0,6.0,0.0
2449,85.0,60.0,60.0,10.0,0.0
2450,87.0,60.0,60.0,10.0,0.0
2451,84.0,60.0,60.0,10.0,0.0
2452,87.0,0.0,60.0,11.0,0.0
2453,78.0,0.0,60.0,12.0,0.0
2454,87.0,0.0,180.0,11.0,0.0
2455,90.0,60.0,300.0,10.0,0.0
2456,72.0,0.0,180.0,12.0,0.0
2457,80.0,60.0,60.0,4.0,0.0
2458,81.0,60.0,60.0,4.0,0.0
2459,78.0,6.0,60.0,4.0,0.0
2460,84.0,0.0,60.0,11.0,0.0
2461,56.0,0.0,60.0,13.0,0.0
2462,56.0,0.0,60.0,14.0,0.0
2463,56.0,0.0,60.0,7.0,0.0
2464,75.0,0.0,60.0,12.0,0.0
2465,80.0,0.0,240.0,11.0,0.0
2466,80.0,60.0,300.0,4.0,0.0
2467,56.0,54.0,480.0,13.0,0.0
2468,56.0,0.0,480.0,14.0,0.0
2469,56.0,0.0,900.0,7.0,0.0
2470,73.0,54.0,240.0,12.0,0.0
2471,88.0,60.0,60.0,10.0,0.0
2472,90.0,60.0,60.0,10.0,0.0
2473,87.0,0.0,60.0,10.0,0.0
2474,72.0,0.0,60.0,6.0,0.0
2475,78.0,6.0,60.0,5.0,0.0
2476,76.0,0.0,240.0,5.0,0.0
2477,73.0,0.0,240.0,6.0,0.0
2478,88.0,60.0,300.0,10.0,0.0
2479,78.0,60.0,60.0,4.0,0.0
2480,80.0,60.0,60.0,4.0,0.0
2481,73.0,0.0,60.0,12.0,0.0
2482,76.0,0.0,60.0,4.0,0.0
2483,80.0,6.0,60.0,11.0,0.0
2484,56.0,0.0,420.0,14.0,0.0
2485,56.0,60.0,420.0,13.0,0.0
2486,70.0,54.0,240.0,12.0,0.0
2487,78.0,60.0,300.0,4.0,0.0
2488,78.0,0.0,240.0,11.0,0.0
2489,87.0,60.0,60.0,10.0,0.0
2490,88.0,60.0,60.0,10.0,0.0
2491,76.0,0.0,60.0,5.0,0.0
2492,70.0,0.0,60.0,6.0,0.0
2493,85.0,6.0,60.0,10.0,0.0
2494,87.0,60.0,300.0,10.0,0.0
2495,72.0,54.0,240.0,6.0,0.0
2496,75.0,0.0,240.0,5.0,0.0
2497,76.0,60.0,60.0,4.0,0.0
2498,78.0,0.0,60.0,4.0,0.0
2499,56.0,0.0,60.0,7.0,0.0
2500,72.0,0.0,60.0,12.0,0.0
2501,75.0,0.0,60.0,4.0,0.0
2502,78.0,0.0,60.0,11.0,0.0
2503,56.0,0.0,60.0,14.0,0.0
2504,56.0,6.0,60.0,13.0,0.0
2505,56.0,60.0,540.0,14.0,0.0
2506,76.0,0.0,300.0,4.0,0.0
2507,56.0,0.0,540.0,7.0,0.0
2508,68.0,0.0,480.0,12.0,0.0
2509,56.0,0.0,540.0,13.0,0.0
2510,76.0,54.0,480.0,11.0,0.0
2511,85.0,60.0,60.0,10.0,0.0
2512,87.0,60.0,60.0,10.0,0.0
2513,84.0,60.0,60.0,10.0,0.0
2514,75.0,0.0,60.0,5.0,0.0
2515,68.0,0.0,60.0,6.0,0.0
2516,85.0,60.0,60.0,10.0,0.0
2517,73.0,0.0,180.0,5.0,0.0
2518,68.0,0.0,180.0,6.0,0.0
2519,75.0,0.0,60.0,4.0,0.0
2520,84.0,60.0,60.0,10.0,0.0
2521,85.0,0.0,60.0,10.0,0.0
2522,76.0,60.0,60.0,4.0,0.0
2523,76.0,0.0,60.0,5.0,0.0
2524,82.0,0.0,60.0,10.0,0.0
2525,73.0,6.0,60.0,4.0,0.0
2526,73.0,0.0,60.0,6.0,0.0
2527,83.0,60.0,540.0,4.0,0.0
2528,83.0,0.0,540.0,10.0,0.0
2529,77.0,0.0,660.0,6.0,0.0
2530,80.0,0.0,660.0,5.0,0.0
2531,58.0,0.0,60.0,14.0,0.0
2532,58.0,60.0,60.0,13.0,0.0
2533,58.0,0.0,60.0,7.0,0.0
2534,56.0,0.0,60.0,7.0,0.0
2535,56.0,0.0,60.0,13.0,0.0
2536,56.0,60.0,60.0,14.0,0.0
2537,54.0,0.0,60.0,7.0,0.0
2538,68.0,0.0,60.0,11.0,0.0
2539,54.0,60.0,60.0,13.0,0.0
2540,54.0,0.0,60.0,14.0,0.0
2541,61.0,0.0,60.0,12.0,0.0
2542,53.0,0.0,60.0,7.0,0.0
2543,53.0,0.0,60.0,14.0,0.0
2544,53.0,60.0,60.0,13.0,0.0
2545,68.0,0.0,180.0,12.0,0.0
2546,73.0,0.0,180.0,11.0,0.0
2547,51.0,0.0,60.0,13.0,0.0
2548,51.0,60.0,60.0,7.0,0.0
2549,51.0,0.0,60.0,14.0,0.0
2550,53.0,60.0,60.0,13.0,0.0
2551,53.0,0.0,60.0,7.0,0.0
2552,53.0,0.0,60.0,14.0,0.0
2553,73.0,0.0,60.0,12.0,0.0
2554,77.0,0.0,60.0,11.0,0.0
2555,49.0,0.0,60.0,13.0,0.0
2556,49.0,0.0,60.0,7.0,0.0
2557,49.0,60.0,60.0,14.0,0.0
2558,58.0,0.0,540.0,13.0,0.0
2559,58.0,60.0,540.0,14.0,0.0
2560,73.0,0.0,180.0,12.0,0.0
2561,77.0,0.0,180.0,11.0,0.0
2562,58.0,0.0,540.0,7.0,0.0
2563,82.0,0.0,60.0,4.0,0.0
2564,82.0,60.0,60.0,10.0,0.0
2565,83.0,0.0,60.0,4.0,0.0
2566,83.0,60.0,60.0,10.0,0.0
2567,77.0,0.0,60.0,5.0,0.0
2568,73.0,0.0,60.0,6.0,0.0
2569,80.0,0.0,60.0,10.0,0.0
2570,80.0,180.0,60.0,11.0,0.0
2571,80.0,0.0,60.0,4.0,0.0
2572,71.0,0.0,60.0,12.0,0.0
2573,70.0,0.0,180.0,12.0,0.0
2574,73.0,0.0,180.0,6.0,0.0
2575,82.0,0.0,180.0,10.0,0.0
2576,82.0,0.0,180.0,4.0,0.0
2577,78.0,0.0,180.0,5.0,0.0
2578,78.0,60.0,180.0,11.0,0.0
2579,84.0,0.0,60.0,4.0,0.0
2580,75.0,0.0,60.0,5.0,0.0
2581,66.0,0.0,60.0,12.0,0.0
2582,84.0,60.0,60.0,10.0,0.0
2583,75.0,0.0,60.0,11.0,0.0
2584,72.0,0.0,60.0,6.0,0.0
2585,70.0,0.0,360.0,6.0,0.0
2586,77.0,0.0,180.0,5.0,0.0
2587,85.0,0.0,360.0,10.0,0.0
2588,65.0,0.0,180.0,12.0,0.0
2589,77.0,0.0,180.0,11.0,0.0
2590,85.0,4.0,360.0,4.0,0.0
2591,59.0,0.0,60.0,7.0,0.0
2592,59.0,0.0,60.0,14.0,0.0
2593,59.0,60.0,60.0,13.0,0.0
2594,58.0,0.0,60.0,7.0,0.0
2595,58.0,60.0,60.0,14.0,0.0
2596,58.0,0.0,60.0,13.0,0.0
2597,56.0,0.0,60.0,7.0,0.0
2598,65.0,0.0,60.0,12.0,0.0
2599,73.0,0.0,60.0,5.0,0.0
2600,73.0,0.0,60.0,11.0,0.0
2601,56.0,60.0,60.0,14.0,0.0
2602,56.0,0.0,60.0,13.0,0.0
2603,54.0,0.0,60.0,13.0,0.0
2604,54.0,0.0,60.0,7.0,0.0
2605,75.0,56.0,180.0,11.0,0.0
2606,54.0,56.0,60.0,14.0,0.0
2607,70.0,0.0,180.0,12.0,0.0
2608,75.0,0.0,180.0,5.0,0.0
2609,53.0,0.0,60.0,7.0,0.0
2610,53.0,0.0,60.0,14.0,0.0
2611,53.0,60.0,60.0,13.0,0.0
2612,87.0,0.0,120.0,4.0,0.0
2613,54.0,0.0,60.0,14.0,0.0
2614,87.0,0.0,120.0,10.0,0.0
2615,54.0,0.0,60.0,7.0,0.0
2616,54.0,0.0,60.0,13.0,0.0
2617,66.0,4.0,120.0,6.0,0.0
2618,66.0,180.0,60.0,12.0,0.0
2619,51.0,0.0,60.0,14.0,0.0
2620,51.0,0.0,60.0,7.0,0.0
2621,70.0,0.0,60.0,11.0,0.0
2622,70.0,0.0,60.0,5.0,0.0
2623,51.0,0.0,60.0,13.0,0.0
2624,68.0,0.0,180.0,6.0,0.0
2625,75.0,0.0,180.0,11.0,0.0
2626,60.0,0.0,180.0,14.0,0.0
2627,68.0,0.0,180.0,12.0,0.0
2628,78.0,0.0,240.0,4.0,0.0
2629,78.0,4.0,240.0,10.0,0.0
2630,60.0,0.0,180.0,13.0,0.0
2631,60.0,0.0,180.0,7.0,0.0
2632,75.0,56.0,180.0,5.0,0.0
2633,72.0,0.0,60.0,5.0,0.0
2634,80.0,0.0,60.0,1.0,0.0
2635,56.0,0.0,60.0,13.0,0.0
2636,56.0,0.0,60.0,7.0,0.0
2637,72.0,0.0,60.0,11.0,0.0
2638,56.0,0.0,60.0,14.0,0.0
2639,84.0,180.0,60.0,0.0,0.0
2640,68.0,0.0,60.0,12.0,0.0
2641,68.0,0.0,60.0,6.0,0.0
2642,78.0,0.0,60.0,2.0,0.0
2643,80.0,0.0,180.0,1.0,0.0
2644,68.0,60.0,180.0,6.0,0.0
2645,61.0,0.0,180.0,14.0,0.0
2646,85.0,0.0,180.0,0.0,0.0
2647,68.0,0.0,180.0,12.0,0.0
2648,61.0,0.0,180.0,13.0,0.0
2649,61.0,0.0,180.0,7.0,0.0
2650,77.0,0.0,180.0,10.0,0.0
2651,73.0,0.0,180.0,11.0,0.0
2652,77.0,0.0,180.0,4.0,0.0
2653,73.0,0.0,180.0,5.0,0.0
2654,73.0,0.0,180.0,2.0,0.0
2655,54.0,0.0,60.0,7.0,0.0
2656,75.0,0.0,60.0,10.0,0.0
2657,75.0,0.0,60.0,11.0,0.0
2658,54.0,15.0,60.0,3.0,0.0
2659,75.0,0.0,60.0,5.0,0.0
2660,82.0,6.0,60.0,1.0,0.0
2661,75.0,0.0,60.0,4.0,0.0
2662,70.0,0.0,60.0,6.0,0.0
2663,78.0,0.0,60.0,2.0,0.0
2664,70.0,0.0,60.0,12.0,0.0
2665,54.0,0.0,60.0,14.0,0.0
2666,54.0,0.0,60.0,13.0,0.0
2667,87.0,0.0,60.0,0.0,0.0
2668,78.0,0.0,360.0,2.0,0.0
2669,68.0,0.0,240.0,6.0,0.0
2670,68.0,10.0,240.0,12.0,0.0
2671,49.0,0.0,180.0,3.0,0.0
2672,56.0,0.0,240.0,13.0,0.0
2673,56.0,0.0,240.0,7.0,0.0
2674,72.0,0.0,15.0,5.0,0.0
2675,75.0,0.0,15.0,10.0,0.0
2676,80.0,0.0,240.0,1.0,0.0
2677,84.0,10.0,360.0,0.0,0.0
2678,72.0,0.0,15.0,11.0,0.0
2679,56.0,0.0,240.0,14.0,0.0
2680,75.0,15.0,15.0,4.0,0.0
2681,73.0,0.0,15.0,11.0,0.0
2682,73.0,15.0,15.0,5.0,0.0
2683,77.0,0.0,15.0,10.0,0.0
2684,77.0,0.0,15.0,4.0,0.0
2685,72.0,15.0,15.0,11.0,0.0
2686,75.0,0.0,15.0,10.0,0.0
2687,72.0,0.0,15.0,5.0,0.0
2688,75.0,0.0,15.0,4.0,0.0
2689,77.0,0.0,15.0,10.0,0.0
2690,73.0,0.0,15.0,5.0,0.0
2691,73.0,0.0,15.0,11.0,0.0
2692,77.0,15.0,15.0,4.0,0.0
2693,72.0,0.0,15.0,5.0,0.0
2694,72.0,15.0,15.0,11.0,0.0
2695,75.0,0.0,15.0,4.0,0.0
2696,75.0,0.0,15.0,10.0,0.0
2697,73.0,0.0,15.0,5.0,0.0
2698,77.0,15.0,15.0,10.0,0.0
2699,73.0,0.0,15.0,11.0,0.0
2700,77.0,0.0,15.0,4.0,0.0
2701,75.0,0.0,15.0,4.0,0.0
2702,72.0,0.0,15.0,11.0,0.0
2703,72.0,15.0,15.0,5.0,0.0
2704,75.0,0.0,15.0,10.0,0.0
2705,73.0,0.0,15.0,5.0,0.0
2706,77.0,0.0,15.0,4.0,0.0
2707,77.0,0.0,15.0,10.0,0.0
2708,73.0,15.0,15.0,11.0,0.0
2709,75.0,0.0,15.0,4.0,0.0
2710,72.0,15.0,15.0,11.0,0.0
2711,75.0,0.0,15.0,10.0,0.0
2712,72.0,0.0,15.0,5.0,0.0
2713,73.0,15.0,15.0,5.0,0.0
2714,77.0,0.0,15.0,10.0,0.0
2715,73.0,0.0,15.0,11.0,0.0
2716,77.0,0.0,15.0,4.0,0.0
2717,75.0,15.0,15.0,4.0,0.0
2718,72.0,0.0,15.0,5.0,0.0
2719,72.0,0.0,15.0,11.0,0.0
2720,75.0,0.0,15.0,10.0,0.0
2721,73.0,0.0,15.0,11.0,0.0
2722,73.0,0.0,15.0,5.0,0.0
2723,77.0,0.0,15.0,10.0,0.0
2724,77.0,15.0,15.0,4.0,0.0
2725,54.0,15.0,60.0,3.0,0.0
2726,75.0,0.0,15.0,10.0,0.0
2727,75.0,15.0,15.0,4.0,0.0
2728,72.0,0.0,15.0,5.0,0.0
2729,72.0,0.0,15.0,11.0,0.0
2730,77.0,15.0,15.0,10.0,0.0
2731,77.0,0.0,15.0,4.0,0.0
2732,73.0,0.0,15.0,11.0,0.0
2733,73.0,0.0,15.0,5.0,0.0
2734,75.0,0.0,15.0,4.0,0.0
2735,72.0,0.0,15.0,5.0,0.0
2736,72.0,0.0,15.0,11.0,0.0
2737,75.0,5.0,15.0,10.0,0.0
2738,77.0,0.0,15.0,10.0,0.0
2739,77.0,0.0,15.0,4.0,0.0
2740,73.0,0.0,15.0,5.0,0.0
2741,73.0,0.0,15.0,11.0,0.0
2742,80.0,0.0,240.0,1.0,0.0
2743,44.0,0.0,240.0,14.0,0.0
2744,44.0,0.0,240.0,13.0,0.0
2745,68.0,0.0,240.0,6.0,0.0
2746,44.0,0.0,240.0,7.0,0.0
2747,72.0,0.0,15.0,11.0,0.0
2748,75.0,0.0,15.0,4.0,0.0
2749,72.0,15.0,15.0,5.0,0.0
2750,75.0,0.0,15.0,10.0,0.0
2751,66.0,235.0,240.0,12.0,0.0
2752,54.0,110.0,120.0,3.0,0.0
2753,73.0,15.0,15.0,11.0,0.0
2754,77.0,0.0,15.0,4.0,0.0
2755,73.0,0.0,15.0,5.0,0.0
2756,77.0,0.0,15.0,10.0,0.0
2757,72.0,15.0,15.0,5.0,0.0
2758,75.0,0.0,15.0,4.0,0.0
2759,72.0,0.0,15.0,11.0,0.0
2760,75.0,0.0,15.0,10.0,0.0
2761,77.0,0.0,15.0,10.0,0.0
2762,73.0,15.0,15.0,11.0,0.0
2763,77.0,0.0,15.0,4.0,0.0
2764,73.0,0.0,15.0,5.0,0.0
2765,75.0,0.0,15.0,4.0,0.0
2766,72.0,15.0,15.0,5.0,0.0
2767,75.0,0.0,15.0,10.0,0.0
2768,72.0,0.0,15.0,11.0,0.0
2769,73.0,0.0,15.0,11.0,0.0
2770,73.0,15.0,15.0,5.0,0.0
2771,77.0,0.0,15.0,4.0,0.0
2772,77.0,0.0,15.0,10.0,0.0
2773,73.0,0.0,15.0,4.0,0.0
2774,70.0,0.0,15.0,5.0,0.0
2775,70.0,0.0,15.0,11.0,0.0
2776,73.0,5.0,15.0,10.0,0.0
2777,75.0,0.0,15.0,10.0,0.0
2778,72.0,0.0,15.0,5.0,0.0
2779,72.0,0.0,15.0,11.0,0.0
2780,75.0,0.0,15.0,4.0,0.0
2781,78.0,0.0,120.0,2.0,0.0
2782,85.0,0.0,120.0,0.0,0.0
2783,73.0,0.0,120.0,4.0,0.0
2784,73.0,0.0,120.0,10.0,0.0
2785,73.0,0.0,120.0,5.0,0.0
2786,68.0,0.0,120.0,11.0,0.0
2787,49.0,0.0,240.0,7.0,0.0
2788,65.0,0.0,240.0,12.0,0.0
2789,49.0,120.0,720.0,3.0,0.0
2790,68.0,0.0,240.0,6.0,0.0
2791,73.0,0.0,240.0,10.0,0.0
2792,80.0,0.0,240.0,1.0,0.0
2793,49.0,0.0,240.0,14.0,0.0
2794,73.0,15.0,210.0,5.0,0.0
2795,49.0,105.0,240.0,13.0,0.0
2796,73.0,0.0,240.0,2.0,0.0
2797,73.0,0.0,210.0,11.0,0.0
2798,73.0,0.0,240.0,4.0,0.0
2799,85.0,0.0,240.0,0.0,0.0
2800,80.0,0.0,90.0,11.0,0.0
2801,80.0,135.0,90.0,5.0,0.0
2802,80.0,105.0,120.0,5.0,0.0
2803,80.0,0.0,120.0,11.0,0.0
2804,82.0,120.0,90.0,11.0,0.0
2805,82.0,0.0,90.0,5.0,0.0
2806,78.0,0.0,90.0,5.0,0.0
2807,78.0,15.0,90.0,11.0,0.0
2808,78.0,120.0,120.0,11.0,0.0
2809,78.0,0.0,120.0,5.0,0.0
2810,80.0,0.0,120.0,11.0,0.0
2811,80.0,105.0,120.0,5.0,0.0
2812,77.0,135.0,90.0,5.0,0.0
2813,77.0,0.0,90.0,11.0,0.0
2814,77.0,120.0,120.0,5.0,0.0
2815,77.0,0.0,120.0,11.0,0.0
2816,78.0,100.0,120.0,11.0,0.0
2817,78.0,0.0,120.0,5.0,0.0
2818,73.0,0.0,90.0,6.0,0.0
2819,73.0,0.0,90.0,12.0,0.0
2820,80.0,140.0,90.0,11.0,0.0
2821,80.0,0.0,90.0,5.0,0.0
2822,82.0,100.0,120.0,5.0,0.0
2823,73.0,0.0,120.0,6.0,0.0
2824,73.0,0.0,120.0,12.0,0.0
2825,82.0,0.0,120.0,11.0,0.0
2826,75.0,0.0,90.0,12.0,0.0
2827,83.0,0.0,90.0,5.0,0.0
2828,75.0,0.0,90.0,6.0,0.0
2829,83.0,120.0,90.0,11.0,0.0
2830,71.0,0.0,90.0,6.0,0.0
2831,80.0,140.0,90.0,11.0,0.0
2832,71.0,0.0,90.0,12.0,0.0
2833,80.0,0.0,90.0,5.0,0.0
2834,80.0,100.0,120.0,11.0,0.0
2835,80.0,0.0,120.0,5.0,0.0
2836,71.0,0.0,120.0,12.0,0.0
2837,71.0,0.0,120.0,6.0,0.0
2838,82.0,120.0,90.0,5.0,0.0
2839,82.0,0.0,90.0,11.0,0.0
2840,73.0,0.0,90.0,6.0,0.0
2841,73.0,0.0,90.0,12.0,0.0
2842,70.0,0.0,90.0,6.0,0.0
2843,70.0,0.0,90.0,12.0,0.0
2844,78.0,0.0,90.0,5.0,0.0
2845,78.0,140.0,90.0,11.0,0.0
2846,70.0,120.0,120.0,12.0,0.0
2847,78.0,0.0,240.0,5.0,0.0
2848,70.0,0.0,120.0,6.0,0.0
2849,78.0,85.0,240.0,11.0,0.0
2850,71.0,0.0,120.0,6.0,0.0
2851,71.0,15.0,120.0,12.0,0.0
2852,73.0,0.0,90.0,6.0,0.0
2853,73.0,5.0,90.0,12.0,0.0
2854,78.0,135.0,60.0,5.0,0.0
2855,78.0,0.0,60.0,11.0,0.0
2856,78.0,0.0,240.0,5.0,0.0
2857,75.0,0.0,120.0,6.0,0.0
2858,78.0,85.0,240.0,11.0,0.0
2859,75.0,100.0,120.0,12.0,0.0
2860,77.0,35.0,90.0,12.0,0.0
2861,77.0,0.0,90.0,6.0,0.0
2862,73.0,0.0,90.0,6.0,0.0
2863,73.0,5.0,90.0,12.0,0.0
2864,78.0,0.0,60.0,11.0,0.0
2865,78.0,135.0,60.0,5.0,0.0
2866,78.0,85.0,240.0,11.0,0.0
2867,78.0,0.0,240.0,5.0,0.0
2868,73.0,0.0,120.0,6.0,0.0
2869,73.0,100.0,120.0,12.0,0.0
2870,75.0,0.0,90.0,6.0,0.0
2871,75.0,35.0,90.0,12.0,0.0
2872,72.0,0.0,90.0,6.0,0.0
2873,72.0,5.0,90.0,12.0,0.0
2874,78.0,0.0,60.0,11.0,0.0
2875,78.0,135.0,60.0,5.0,0.0
2876,78.0,0.0,120.0,5.0,0.0
2877,72.0,85.0,240.0,12.0,0.0
2878,72.0,0.0,240.0,6.0,0.0
2879,78.0,120.0,120.0,11.0,0.0
2880,75.0,0.0,120.0,11.0,0.0
2881,75.0,15.0,120.0,5.0,0.0
2882,77.0,0.0,90.0,11.0,0.0
2883,77.0,5.0,90.0,5.0,0.0
2884,72.0,135.0,60.0,12.0,0.0
2885,72.0,0.0,60.0,6.0,0.0
2886,78.0,0.0,120.0,5.0,0.0
2887,72.0,0.0,240.0,6.0,0.0
2888,72.0,85.0,240.0,12.0,0.0
2889,78.0,100.0,120.0,11.0,0.0
2890,87.0,35.0,90.0,11.0,0.0
2891,87.0,0.0,90.0,5.0,0.0
2892,77.0,0.0,90.0,5.0,0.0
2893,77.0,5.0,90.0,11.0,0.0
2894,72.0,135.0,60.0,12.0,0.0
2895,72.0,0.0,60.0,6.0,0.0
2896,72.0,0.0,240.0,6.0,0.0
2897,72.0,85.0,240.0,12.0,0.0
2898,78.0,0.0,120.0,11.0,0.0
2899,78.0,120.0,120.0,5.0,0.0
2900,77.0,0.0,120.0,11.0,0.0
2901,77.0,15.0,120.0,5.0,0.0
2902,75.0,5.0,90.0,5.0,0.0
2903,75.0,0.0,90.0,11.0,0.0
2904,72.0,135.0,60.0,6.0,0.0
2905,72.0,0.0,60.0,12.0,0.0
2906,77.0,120.0,120.0,11.0,0.0
2907,73.0,0.0,120.0,12.0,0.0
2908,73.0,0.0,120.0,6.0,0.0
2909,77.0,0.0,120.0,5.0,0.0
2910,80.0,0.0,120.0,11.0,0.0
2911,80.0,0.0,120.0,5.0,0.0
2912,77.0,0.0,120.0,6.0,0.0
2913,77.0,100.0,120.0,12.0,0.0
2914,78.0,0.0,90.0,11.0,0.0
2915,78.0,0.0,90.0,5.0,0.0
2916,75.0,0.0,90.0,12.0,0.0
2917,85.0,0.0,90.0,4.0,0.0
2918,75.0,0.0,90.0,6.0,0.0
2919,85.0,140.0,90.0,10.0,0.0
2920,85.0,0.0,120.0,4.0,0.0
2921,85.0,100.0,120.0,10.0,0.0
2922,80.0,0.0,240.0,5.0,0.0
2923,77.0,0.0,240.0,6.0,0.0
2924,77.0,85.0,240.0,12.0,0.0
2925,80.0,0.0,240.0,11.0,0.0
2926,87.0,0.0,90.0,10.0,0.0
2927,87.0,35.0,90.0,4.0,0.0
2928,83.0,5.0,90.0,10.0,0.0
2929,83.0,0.0,90.0,4.0,0.0
2930,78.0,0.0,60.0,11.0,0.0
2931,78.0,0.0,60.0,5.0,0.0
2932,75.0,135.0,60.0,6.0,0.0
2933,75.0,0.0,60.0,12.0,0.0
2934,83.0,100.0,120.0,4.0,0.0
2935,80.0,0.0,240.0,11.0,0.0
2936,77.0,85.0,240.0,6.0,0.0
2937,77.0,0.0,240.0,12.0,0.0
2938,83.0,0.0,120.0,10.0,0.0
2939,80.0,0.0,240.0,5.0,0.0
2940,85.0,0.0,90.0,4.0,0.0
2941,85.0,35.0,90.0,10.0,0.0
2942,82.0,5.0,90.0,4.0,0.0
2943,82.0,0.0,90.0,10.0,0.0
2944,73.0,0.0,60.0,6.0,0.0
2945,77.0,0.0,60.0,5.0,0.0
2946,73.0,0.0,60.0,12.0,0.0
2947,77.0,135.0,60.0,11.0,0.0
2948,66.0,0.0,120.0,6.0,0.0
2949,82.0,0.0,120.0,10.0,0.0
2950,82.0,0.0,120.0,4.0,0.0
2951,66.0,0.0,120.0,12.0,0.0
2952,78.0,0.0,120.0,11.0,0.0
2953,78.0,120.0,120.0,5.0,0.0
2954,68.0,0.0,120.0,12.0,0.0
2955,77.0,100.0,120.0,11.0,0.0
2956,68.0,0.0,120.0,6.0,0.0
2957,83.0,0.0,120.0,4.0,0.0
2958,77.0,0.0,120.0,5.0,0.0
2959,83.0,0.0,120.0,10.0,0.0
2960,78.0,0.0,90.0,11.0,0.0
2961,66.0,0.0,90.0,14.0,0.0
2962,85.0,0.0,90.0,10.0,0.0
2963,66.0,0.0,90.0,13.0,0.0
2964,70.0,140.0,90.0,6.0,0.0
2965,85.0,0.0,90.0,4.0,0.0
2966,78.0,0.0,90.0,5.0,0.0
2967,66.0,0.0,90.0,7.0,0.0
2968,70.0,0.0,90.0,12.0,0.0
2969,87.0,0.0,120.0,4.0,0.0
2970,70.0,85.0,240.0,6.0,0.0
2971,66.0,0.0,120.0,14.0,0.0
2972,78.0,0.0,240.0,11.0,0.0
2973,78.0,0.0,240.0,5.0,0.0
2974,87.0,0.0,120.0,10.0,0.0
2975,70.0,0.0,240.0,12.0,0.0
2976,66.0,0.0,120.0,13.0,0.0
2977,66.0,100.0,120.0,7.0,0.0
2978,68.0,0.0,90.0,14.0,0.0
2979,68.0,0.0,90.0,7.0,0.0
2980,68.0,0.0,90.0,13.0,0.0
2981,88.0,0.0,90.0,10.0,0.0
2982,88.0,35.0,90.0,4.0,0.0
2983,85.0,0.0,90.0,10.0,0.0
2984,64.0,0.0,90.0,14.0,0.0
2985,64.0,0.0,90.0,7.0,0.0
2986,85.0,0.0,90.0,4.0,0.0
2987,64.0,5.0,90.0,13.0,0.0
2988,73.0,0.0,60.0,12.0,0.0
2989,73.0,135.0,60.0,6.0,0.0
2990,70.0,0.0,60.0,11.0,0.0
2991,70.0,0.0,60.0,5.0,0.0
2992,73.0,0.0,240.0,11.0,0.0
2993,70.0,0.0,240.0,12.0,0.0
2994,64.0,0.0,120.0,13.0,0.0
2995,64.0,100.0,120.0,7.0,0.0
2996,64.0,0.0,120.0,14.0,0.0
2997,85.0,0.0,120.0,4.0,0.0
2998,73.0,85.0,240.0,5.0,0.0
2999,70.0,0.0,240.0,6.0,0.0
3000,85.0,0.0,120.0,10.0,0.0
3001,66.0,0.0,90.0,7.0,0.0
3002,66.0,35.0,90.0,14.0,0.0
3003,66.0,0.0,90.0,13.0,0.0
3004,87.0,0.0,90.0,4.0,0.0
3005,87.0,0.0,90.0,10.0,0.0
3006,83.0,0.0,90.0,10.0,0.0
3007,63.0,5.0,90.0,7.0,0.0
3008,83.0,0.0,90.0,4.0,0.0
3009,63.0,0.0,90.0,14.0,0.0
3010,63.0,0.0,90.0,13.0,0.0
3011,66.0,0.0,60.0,12.0,0.0
3012,66.0,0.0,60.0,6.0,0.0
3013,78.0,0.0,60.0,11.0,0.0
3014,78.0,135.0,60.0,5.0,0.0
3015,71.0,0.0,240.0,6.0,0.0
3016,83.0,0.0,240.0,10.0,0.0
3017,63.0,120.0,120.0,13.0,0.0
3018,83.0,85.0,240.0,4.0,0.0
3019,78.0,0.0,120.0,5.0,0.0
3020,71.0,0.0,240.0,12.0,0.0
3021,63.0,0.0,120.0,7.0,0.0
3022,63.0,0.0,120.0,14.0,0.0
3023,78.0,0.0,120.0,11.0,0.0
3024,65.0,0.0,120.0,13.0,0.0
3025,80.0,0.0,120.0,11.0,0.0
3026,80.0,15.0,120.0,5.0,0.0
3027,65.0,0.0,120.0,14.0,0.0
3028,65.0,0.0,120.0,7.0,0.0
3029,78.0,0.0,90.0,5.0,0.0
3030,78.0,5.0,90.0,11.0,0.0
3031,66.0,0.0,90.0,7.0,0.0
3032,66.0,0.0,90.0,14.0,0.0
3033,66.0,0.0,90.0,13.0,0.0
3034,75.0,135.0,60.0,6.0,0.0
3035,75.0,0.0,60.0,12.0,0.0
3036,83.0,0.0,60.0,4.0,0.0
3037,83.0,0.0,60.0,10.0,0.0
3038,71.0,0.0,120.0,12.0,0.0
3039,77.0,0.0,120.0,11.0,0.0
3040,83.0,85.0,240.0,4.0,0.0
3041,77.0,100.0,120.0,5.0,0.0
3042,83.0,0.0,240.0,10.0,0.0
3043,68.0,0.0,120.0,13.0,0.0
3044,68.0,0.0,120.0,14.0,0.0
3045,71.0,0.0,120.0,6.0,0.0
3046,68.0,0.0,120.0,7.0,0.0
3047,78.0,0.0,90.0,5.0,0.0
3048,73.0,0.0,120.0,12.0,0.0
3049,70.0,20.0,90.0,13.0,0.0
3050,70.0,0.0,90.0,14.0,0.0
3051,70.0,0.0,90.0,7.0,0.0
3052,78.0,0.0,90.0,11.0,0.0
3053,73.0,15.0,120.0,6.0,0.0
3054,75.0,0.0,90.0,12.0,0.0
3055,66.0,0.0,90.0,13.0,0.0
3056,75.0,5.0,90.0,11.0,0.0
3057,75.0,0.0,90.0,5.0,0.0
3058,75.0,0.0,90.0,6.0,0.0
3059,66.0,0.0,90.0,7.0,0.0
3060,66.0,0.0,90.0,14.0,0.0
3061,83.0,0.0,60.0,4.0,0.0
3062,83.0,135.0,60.0,10.0,0.0
3063,75.0,0.0,120.0,11.0,0.0
3064,66.0,0.0,120.0,14.0,0.0
3065,83.0,0.0,240.0,4.0,0.0
3066,83.0,0.0,240.0,10.0,0.0
3067,66.0,0.0,120.0,7.0,0.0
3068,66.0,100.0,120.0,13.0,0.0
3069,68.0,0.0,240.0,6.0,0.0
3070,75.0,0.0,120.0,5.0,0.0
3071,68.0,85.0,240.0,12.0,0.0
3072,68.0,0.0,90.0,13.0,0.0
3073,77.0,35.0,90.0,11.0,0.0
3074,77.0,0.0,90.0,5.0,0.0
3075,68.0,0.0,90.0,7.0,0.0
3076,68.0,0.0,90.0,14.0,0.0
3077,73.0,0.0,90.0,11.0,0.0
3078,65.0,0.0,90.0,14.0,0.0
3079,73.0,0.0,90.0,5.0,0.0
3080,65.0,0.0,90.0,7.0,0.0
3081,65.0,5.0,90.0,13.0,0.0
3082,83.0,135.0,60.0,4.0,0.0
3083,68.0,0.0,60.0,6.0,0.0
3084,83.0,0.0,60.0,10.0,0.0
3085,68.0,0.0,60.0,12.0,0.0
3086,68.0,120.0,360.0,6.0,0.0
3087,83.0,120.0,120.0,4.0,0.0
3088,73.0,0.0,240.0,5.0,0.0
3089,65.0,0.0,240.0,13.0,0.0
3090,73.0,0.0,240.0,11.0,0.0
3091,65.0,85.0,240.0,7.0,0.0
3092,68.0,0.0,360.0,12.0,0.0
3093,83.0,0.0,120.0,10.0,0.0
3094,65.0,0.0,240.0,14.0,0.0
3095,80.0,0.0,120.0,10.0,0.0
3096,80.0,15.0,120.0,4.0,0.0
3097,82.0,0.0,90.0,10.0,0.0
3098,82.0,5.0,90.0,4.0,0.0
3099,85.0,0.0,60.0,11.0,0.0
3100,65.0,0.0,60.0,14.0,0.0
3101,65.0,15.0,60.0,13.0,0.0
3102,85.0,0.0,60.0,5.0,0.0
3103,65.0,0.0,60.0,7.0,0.0
3104,80.0,0.0,240.0,5.0,0.0
3105,83.0,0.0,120.0,10.0,0.0
3106,65.0,0.0,240.0,13.0,0.0
3107,65.0,85.0,240.0,7.0,0.0
3108,80.0,0.0,240.0,11.0,0.0
3109,83.0,100.0,120.0,4.0,0.0
3110,65.0,0.0,240.0,14.0,0.0
3111,85.0,0.0,90.0,4.0,0.0
3112,92.0,35.0,90.0,10.0,0.0
3113,82.0,5.0,90.0,10.0,0.0
3114,82.0,0.0,90.0,4.0,0.0
3115,73.0,0.0,60.0,6.0,0.0
3116,73.0,0.0,60.0,12.0,0.0
3117,77.0,0.0,60.0,11.0,0.0
3118,65.0,0.0,60.0,13.0,0.0
3119,65.0,0.0,60.0,7.0,0.0
3120,77.0,0.0,60.0,5.0,0.0
3121,65.0,135.0,60.0,14.0,0.0
3122,73.0,0.0,240.0,5.0,0.0
3123,65.0,0.0,240.0,14.0,0.0
3124,65.0,0.0,240.0,13.0,0.0
3125,83.0,0.0,120.0,10.0,0.0
3126,73.0,0.0,240.0,11.0,0.0
3127,68.0,0.0,240.0,12.0,0.0
3128,83.0,120.0,120.0,4.0,0.0
3129,65.0,0.0,240.0,7.0,0.0
3130,68.0,85.0,240.0,6.0,0.0
3131,82.0,0.0,120.0,4.0,0.0
3132,82.0,15.0,120.0,10.0,0.0
3133,80.0,0.0,90.0,4.0,0.0
3134,80.0,5.0,90.0,10.0,0.0
3135,73.0,135.0,60.0,5.0,0.0
3136,73.0,0.0,60.0,11.0,0.0
3137,73.0,0.0,60.0,6.0,0.0
3138,73.0,0.0,60.0,12.0,0.0
3139,65.0,0.0,60.0,7.0,0.0
3140,65.0,0.0,60.0,14.0,0.0
3141,65.0,0.0,60.0,13.0,0.0
3142,82.0,0.0,120.0,10.0,0.0
3143,66.0,0.0,120.0,12.0,0.0
3144,66.0,0.0,240.0,13.0,0.0
3145,66.0,85.0,240.0,14.0,0.0
3146,73.0,0.0,120.0,11.0,0.0
3147,66.0,0.0,240.0,7.0,0.0
3148,66.0,0.0,120.0,6.0,0.0
3149,82.0,120.0,120.0,4.0,0.0
3150,73.0,0.0,120.0,5.0,0.0
3151,78.0,15.0,120.0,10.0,0.0
3152,70.0,0.0,120.0,12.0,0.0
3153,75.0,0.0,120.0,5.0,0.0
3154,75.0,0.0,120.0,11.0,0.0
3155,78.0,0.0,120.0,4.0,0.0
3156,70.0,0.0,120.0,6.0,0.0
3157,77.0,5.0,90.0,5.0,0.0
3158,71.0,0.0,90.0,12.0,0.0
3159,80.0,0.0,90.0,10.0,0.0
3160,71.0,0.0,90.0,6.0,0.0
3161,77.0,0.0,90.0,11.0,0.0
3162,80.0,0.0,90.0,4.0,0.0
3163,61.0,135.0,60.0,7.0,0.0
3164,61.0,0.0,60.0,14.0,0.0
3165,61.0,0.0,60.0,13.0,0.0
3166,73.0,0.0,240.0,6.0,0.0
3167,82.0,100.0,120.0,10.0,0.0
3168,78.0,0.0,240.0,11.0,0.0
3169,61.0,0.0,120.0,14.0,0.0
3170,78.0,0.0,240.0,5.0,0.0
3171,73.0,85.0,240.0,12.0,0.0
3172,61.0,0.0,120.0,7.0,0.0
3173,61.0,0.0,120.0,13.0,0.0
3174,82.0,0.0,120.0,4.0,0.0
3175,63.0,35.0,90.0,13.0,0.0
3176,63.0,0.0,90.0,14.0,0.0
3177,63.0,0.0,90.0,7.0,0.0
3178,83.0,0.0,90.0,4.0,0.0
3179,83.0,0.0,90.0,10.0,0.0
3180,59.0,5.0,90.0,14.0,0.0
3181,80.0,0.0,90.0,10.0,0.0
3182,59.0,0.0,90.0,13.0,0.0
3183,59.0,0.0,90.0,7.0,0.0
3184,80.0,0.0,90.0,4.0,0.0
3185,77.0,0.0,60.0,12.0,0.0
3186,80.0,0.0,60.0,5.0,0.0
3187,77.0,45.0,60.0,6.0,0.0
3188,80.0,0.0,60.0,11.0,0.0
3189,59.0,0.0,120.0,13.0,0.0
3190,77.0,30.0,30.0,5.0,0.0
3191,68.0,0.0,240.0,12.0,0.0
3192,80.0,30.0,120.0,4.0,0.0
3193,59.0,0.0,120.0,7.0,0.0
3194,59.0,0.0,120.0,14.0,0.0
3195,80.0,0.0,120.0,10.0,0.0
3196,68.0,85.0,240.0,6.0,0.0
3197,77.0,0.0,30.0,11.0,0.0
3198,78.0,30.0,30.0,11.0,0.0
3199,78.0,0.0,30.0,5.0,0.0
3200,77.0,0.0,30.0,5.0,0.0
3201,77.0,30.0,30.0,11.0,0.0
3202,78.0,0.0,30.0,5.0,0.0
3203,78.0,0.0,30.0,11.0,0.0
3204,82.0,20.0,90.0,4.0,0.0
3205,61.0,0.0,90.0,14.0,0.0
3206,61.0,0.0,90.0,7.0,0.0
3207,61.0,0.0,90.0,13.0,0.0
3208,77.0,0.0,30.0,11.0,0.0
3209,82.0,0.0,90.0,10.0,0.0
3210,77.0,30.0,30.0,5.0,0.0
3211,78.0,30.0,30.0,11.0,0.0
3212,78.0,0.0,30.0,5.0,0.0
3213,75.0,0.0,30.0,5.0,0.0
3214,75.0,10.0,30.0,11.0,0.0
3215,77.0,15.0,30.0,5.0,0.0
3216,77.0,0.0,30.0,11.0,0.0
3217,78.0,0.0,90.0,10.0,0.0
3218,58.0,5.0,90.0,7.0,0.0
3219,58.0,0.0,90.0,14.0,0.0
3220,78.0,0.0,90.0,4.0,0.0
3221,58.0,0.0,90.0,13.0,0.0
3222,70.0,135.0,60.0,12.0,0.0
3223,73.0,0.0,60.0,11.0,0.0
3224,70.0,0.0,60.0,6.0,0.0
3225,73.0,0.0,60.0,5.0,0.0
3226,78.0,85.0,240.0,4.0,0.0
3227,73.0,0.0,120.0,11.0,0.0
3228,70.0,0.0,240.0,6.0,0.0
3229,58.0,0.0,120.0,13.0,0.0
3230,58.0,0.0,120.0,14.0,0.0
3231,73.0,120.0,120.0,5.0,0.0
3232,58.0,0.0,120.0,7.0,0.0
3233,70.0,0.0,240.0,12.0,0.0
3234,78.0,0.0,240.0,10.0,0.0
3235,60.0,0.0,120.0,7.0,0.0
3236,60.0,0.0,120.0,13.0,0.0
3237,60.0,0.0,120.0,14.0,0.0
3238,75.0,15.0,120.0,5.0,0.0
3239,75.0,0.0,120.0,11.0,0.0
3240,73.0,0.0,90.0,5.0,0.0
3241,61.0,0.0,90.0,7.0,0.0
3242,61.0,0.0,90.0,13.0,0.0
3243,73.0,0.0,90.0,11.0,0.0
3244,61.0,5.0,90.0,14.0,0.0
3245,78.0,0.0,60.0,4.0,0.0
3246,70.0,135.0,60.0,6.0,0.0
3247,78.0,0.0,60.0,10.0,0.0
3248,70.0,0.0,60.0,12.0,0.0
3249,72.0,100.0,120.0,5.0,0.0
3250,63.0,0.0,120.0,13.0,0.0
3251,78.0,0.0,240.0,4.0,0.0
3252,63.0,0.0,120.0,7.0,0.0
3253,66.0,0.0,120.0,12.0,0.0
3254,72.0,0.0,120.0,11.0,0.0
3255,66.0,0.0,120.0,6.0,0.0
3256,63.0,0.0,120.0,14.0,0.0
3257,78.0,85.0,240.0,10.0,0.0
3258,65.0,0.0,90.0,13.0,0.0
3259,73.0,0.0,90.0,11.0,0.0
3260,73.0,0.0,90.0,5.0,0.0
3261,65.0,20.0,90.0,14.0,0.0
3262,68.0,15.0,120.0,6.0,0.0
3263,65.0,0.0,90.0,7.0,0.0
3264,68.0,0.0,120.0,12.0,0.0
3265,70.0,0.0,90.0,12.0,0.0
3266,70.0,0.0,90.0,5.0,0.0
3267,61.0,0.0,90.0,13.0,0.0
3268,70.0,0.0,90.0,6.0,0.0
3269,61.0,0.0,90.0,14.0,0.0
3270,70.0,0.0,90.0,11.0,0.0
3271,61.0,5.0,90.0,7.0,0.0
3272,78.0,0.0,60.0,4.0,0.0
3273,78.0,135.0,60.0,10.0,0.0
3274,78.0,0.0,240.0,4.0,0.0
3275,70.0,0.0,120.0,5.0,0.0
3276,61.0,0.0,120.0,13.0,0.0
3277,61.0,0.0,120.0,14.0,0.0
3278,78.0,85.0,240.0,10.0,0.0
3279,70.0,0.0,240.0,6.0,0.0
3280,70.0,0.0,240.0,12.0,0.0
3281,61.0,0.0,120.0,7.0,0.0
3282,70.0,100.0,120.0,11.0,0.0
3283,63.0,35.0,90.0,13.0,0.0
3284,63.0,0.0,90.0,14.0,0.0
3285,63.0,0.0,90.0,7.0,0.0
3286,72.0,0.0,90.0,11.0,0.0
3287,72.0,0.0,90.0,5.0,0.0
3288,60.0,0.0,90.0,14.0,0.0
3289,68.0,0.0,90.0,11.0,0.0
3290,68.0,0.0,90.0,5.0,0.0
3291,60.0,0.0,90.0,7.0,0.0
3292,60.0,5.0,90.0,13.0,0.0
3293,75.0,0.0,60.0,6.0,0.0
3294,78.0,135.0,60.0,4.0,0.0
3295,75.0,0.0,60.0,12.0,0.0
3296,78.0,0.0,60.0,10.0,0.0
3297,60.0,85.0,240.0,7.0,0.0
3298,68.0,0.0,360.0,5.0,0.0
3299,60.0,0.0,240.0,13.0,0.0
3300,60.0,0.0,240.0,14.0,0.0
3301,78.0,0.0,120.0,10.0,0.0
3302,68.0,120.0,360.0,11.0,0.0
3303,78.0,120.0,120.0,4.0,0.0
3304,75.0,0.0,360.0,12.0,0.0
3305,75.0,0.0,360.0,6.0,0.0
3306,75.0,15.0,120.0,10.0,0.0
3307,75.0,0.0,120.0,4.0,0.0
3308,77.0,0.0,90.0,4.0,0.0
3309,77.0,5.0,90.0,10.0,0.0
3310,60.0,0.0,60.0,13.0,0.0
3311,60.0,15.0,60.0,7.0,0.0
3312,60.0,0.0,60.0,14.0,0.0
3313,78.0,0.0,120.0,4.0,0.0
3314,60.0,0.0,240.0,14.0,0.0
3315,78.0,100.0,120.0,10.0,0.0
3316,60.0,0.0,240.0,13.0,0.0
3317,60.0,85.0,240.0,7.0,0.0
3318,87.0,35.0,90.0,10.0,0.0
3319,87.0,0.0,90.0,4.0,0.0
3320,80.0,0.0,90.0,11.0,0.0
3321,77.0,0.0,90.0,4.0,0.0
3322,80.0,0.0,90.0,5.0,0.0
3323,77.0,0.0,90.0,10.0,0.0
3324,68.0,0.0,90.0,12.0,0.0
3325,68.0,5.0,90.0,6.0,0.0
3326,60.0,135.0,60.0,14.0,0.0
3327,60.0,0.0,60.0,13.0,0.0
3328,60.0,0.0,60.0,7.0,0.0
3329,78.0,120.0,120.0,10.0,0.0
3330,68.0,0.0,240.0,6.0,0.0
3331,60.0,85.0,240.0,7.0,0.0
3332,60.0,0.0,240.0,13.0,0.0
3333,75.0,0.0,240.0,5.0,0.0
3334,60.0,0.0,240.0,14.0,0.0
3335,78.0,0.0,120.0,4.0,0.0
3336,68.0,0.0,240.0,12.0,0.0
3337,75.0,0.0,240.0,11.0,0.0
3338,77.0,0.0,120.0,10.0,0.0
3339,77.0,15.0,120.0,4.0,0.0
3340,75.0,0.0,90.0,10.0,0.0
3341,75.0,5.0,90.0,4.0,0.0
3342,60.0,0.0,60.0,7.0,0.0
3343,60.0,0.0,60.0,13.0,0.0
3344,68.0,0.0,60.0,12.0,0.0
3345,68.0,135.0,60.0,6.0,0.0
3346,60.0,0.0,60.0,14.0,0.0
3347,75.0,0.0,60.0,11.0,0.0
3348,75.0,0.0,60.0,5.0,0.0
3349,68.0,0.0,360.0,12.0,0.0
3350,61.0,0.0,240.0,14.0,0.0
3351,73.0,0.0,360.0,5.0,0.0
3352,61.0,85.0,240.0,7.0,0.0
3353,61.0,0.0,240.0,13.0,0.0
3354,73.0,0.0,360.0,11.0,0.0
3355,77.0,0.0,120.0,10.0,0.0
3356,68.0,120.0,360.0,6.0,0.0
3357,77.0,120.0,120.0,4.0,0.0
3358,73.0,0.0,120.0,10.0,0.0
3359,73.0,15.0,120.0,4.0,0.0
3360,75.0,0.0,90.0,10.0,0.0
3361,75.0,5.0,90.0,4.0,0.0
3362,59.0,0.0,60.0,7.0,0.0
3363,59.0,15.0,60.0,14.0,0.0
3364,59.0,0.0,60.0,13.0,0.0
3365,76.0,0.0,120.0,10.0,0.0
3366,58.0,85.0,240.0,14.0,0.0
3367,76.0,100.0,120.0,4.0,0.0
3368,58.0,0.0,240.0,7.0,0.0
3369,58.0,0.0,240.0,13.0,0.0
3370,85.0,35.0,90.0,10.0,0.0
3371,85.0,0.0,90.0,4.0,0.0
3372,78.0,0.0,90.0,5.0,0.0
3373,78.0,0.0,90.0,11.0,0.0
3374,66.0,5.0,90.0,6.0,0.0
3375,66.0,0.0,90.0,12.0,0.0
3376,75.0,0.0,90.0,4.0,0.0
3377,75.0,0.0,90.0,10.0,0.0
3378,58.0,0.0,60.0,14.0,0.0
3379,58.0,135.0,60.0,13.0,0.0
3380,58.0,0.0,60.0,7.0,0.0
3381,58.0,0.0,240.0,14.0,0.0
3382,58.0,0.0,240.0,13.0,0.0
3383,73.0,0.0,240.0,11.0,0.0
3384,66.0,85.0,240.0,6.0,0.0
3385,58.0,0.0,240.0,7.0,0.0
3386,66.0,0.0,240.0,12.0,0.0
3387,76.0,120.0,120.0,10.0,0.0
3388,76.0,0.0,120.0,4.0,0.0
3389,73.0,0.0,240.0,5.0,0.0
3390,75.0,0.0,120.0,4.0,0.0
3391,75.0,15.0,120.0,10.0,0.0
3392,73.0,0.0,90.0,4.0,0.0
3393,73.0,5.0,90.0,10.0,0.0
3394,66.0,0.0,60.0,6.0,0.0
3395,58.0,135.0,60.0,7.0,0.0
3396,66.0,0.0,60.0,12.0,0.0
3397,58.0,0.0,60.0,13.0,0.0
3398,58.0,0.0,60.0,14.0,0.0
3399,73.0,0.0,60.0,5.0,0.0
3400,73.0,0.0,60.0,11.0,0.0
3401,71.0,0.0,120.0,11.0,0.0
3402,59.0,0.0,120.0,7.0,0.0
3403,66.0,0.0,120.0,12.0,0.0
3404,66.0,0.0,120.0,6.0,0.0
3405,75.0,85.0,240.0,4.0,0.0
3406,71.0,120.0,120.0,5.0,0.0
3407,59.0,0.0,120.0,14.0,0.0
3408,59.0,0.0,120.0,13.0,0.0
3409,75.0,0.0,240.0,10.0,0.0
3410,56.0,0.0,120.0,14.0,0.0
3411,56.0,0.0,120.0,7.0,0.0
3412,56.0,15.0,120.0,13.0,0.0
3413,58.0,0.0,90.0,7.0,0.0
3414,58.0,5.0,90.0,14.0,0.0
3415,58.0,0.0,90.0,13.0,0.0
3416,87.0,135.0,60.0,10.0,0.0
3417,87.0,0.0,60.0,4.0,0.0
3418,59.0,0.0,120.0,14.0,0.0
3419,87.0,0.0,120.0,10.0,0.0
3420,68.0,0.0,120.0,12.0,0.0
3421,77.0,100.0,120.0,11.0,0.0
3422,59.0,0.0,120.0,7.0,0.0
3423,59.0,0.0,120.0,13.0,0.0
3424,77.0,0.0,120.0,5.0,0.0
3425,87.0,0.0,120.0,4.0,0.0
3426,68.0,0.0,120.0,6.0,0.0
3427,61.0,0.0,90.0,7.0,0.0
3428,88.0,0.0,90.0,10.0,0.0
3429,88.0,0.0,90.0,4.0,0.0
3430,61.0,0.0,90.0,14.0,0.0
3431,61.0,120.0,90.0,13.0,0.0
3432,58.0,0.0,90.0,13.0,0.0
3433,58.0,0.0,90.0,14.0,0.0
3434,85.0,0.0,90.0,4.0,0.0
3435,58.0,0.0,90.0,7.0,0.0
3436,85.0,140.0,90.0,10.0,0.0
3437,79.0,0.0,120.0,5.0,0.0
3438,58.0,0.0,120.0,14.0,0.0
3439,58.0,0.0,120.0,7.0,0.0
3440,85.0,0.0,120.0,10.0,0.0
3441,70.0,0.0,120.0,12.0,0.0
3442,85.0,0.0,120.0,4.0,0.0
3443,70.0,0.0,120.0,6.0,0.0
3444,58.0,0.0,120.0,13.0,0.0
3445,79.0,100.0,120.0,11.0,0.0
3446,59.0,0.0,90.0,7.0,0.0
3447,59.0,0.0,90.0,14.0,0.0
3448,87.0,120.0,90.0,4.0,0.0
3449,87.0,0.0,90.0,10.0,0.0
3450,59.0,0.0,90.0,13.0,0.0
3451,83.0,0.0,90.0,4.0,0.0
3452,56.0,140.0,90.0,13.0,0.0
3453,56.0,0.0,90.0,14.0,0.0
3454,56.0,0.0,90.0,7.0,0.0
3455,83.0,0.0,90.0,10.0,0.0
3456,75.0,120.0,120.0,6.0,0.0
3457,80.0,0.0,240.0,5.0,0.0
3458,63.0,0.0,120.0,12.0,0.0
3459,83.0,0.0,120.0,10.0,0.0
3460,56.0,0.0,120.0,13.0,0.0
3461,56.0,0.0,240.0,7.0,0.0
3462,80.0,85.0,240.0,11.0,0.0
3463,83.0,0.0,120.0,4.0,0.0
3464,56.0,0.0,120.0,14.0,0.0
3465,80.0,0.0,120.0,4.0,0.0
3466,80.0,15.0,120.0,10.0,0.0
3467,82.0,5.0,90.0,4.0,0.0
3468,82.0,0.0,90.0,10.0,0.0
3469,80.0,0.0,60.0,11.0,0.0
3470,56.0,135.0,60.0,7.0,0.0
3471,80.0,0.0,60.0,5.0,0.0
3472,84.0,0.0,120.0,4.0,0.0
3473,44.0,0.0,120.0,14.0,0.0
3474,80.0,100.0,120.0,11.0,0.0
3475,56.0,85.0,240.0,7.0,0.0
3476,75.0,0.0,120.0,12.0,0.0
3477,84.0,0.0,120.0,10.0,0.0
3478,80.0,0.0,120.0,5.0,0.0
3479,75.0,0.0,120.0,6.0,0.0
3480,44.0,0.0,120.0,13.0,0.0
3481,85.0,0.0,90.0,10.0,0.0
3482,82.0,0.0,90.0,11.0,0.0
3483,85.0,35.0,90.0,4.0,0.0
3484,82.0,0.0,90.0,5.0,0.0
3485,87.0,0.0,90.0,10.0,0.0
3486,78.0,5.0,90.0,11.0,0.0
3487,87.0,0.0,90.0,4.0,0.0
3488,78.0,0.0,90.0,5.0,0.0
3489,56.0,135.0,60.0,7.0,0.0
3490,56.0,0.0,120.0,13.0,0.0
3491,56.0,0.0,120.0,7.0,0.0
3492,72.0,0.0,120.0,6.0,0.0
3493,78.0,0.0,120.0,5.0,0.0
3494,80.0,85.0,240.0,10.0,0.0
3495,72.0,0.0,120.0,12.0,0.0
3496,78.0,100.0,120.0,11.0,0.0
3497,56.0,0.0,120.0,14.0,0.0
3498,80.0,0.0,240.0,4.0,0.0
3499,80.0,0.0,90.0,5.0,0.0
3500,80.0,35.0,90.0,11.0,0.0
3501,77.0,0.0,90.0,5.0,0.0
3502,77.0,5.0,90.0,11.0,0.0
3503,84.0,0.0,60.0,4.0,0.0
3504,84.0,135.0,60.0,10.0,0.0
3505,73.0,0.0,120.0,4.0,0.0
3506,68.0,0.0,120.0,6.0,0.0
3507,77.0,0.0,120.0,5.0,0.0
3508,73.0,0.0,120.0,10.0,0.0
3509,61.0,0.0,120.0,14.0,0.0
3510,77.0,0.0,120.0,11.0,0.0
3511,68.0,0.0,120.0,12.0,0.0
3512,61.0,120.0,120.0,13.0,0.0
3513,73.0,0.0,120.0,11.0,0.0
3514,73.0,100.0,120.0,5.0,0.0
3515,77.0,0.0,120.0,4.0,0.0
3516,77.0,0.0,120.0,10.0,0.0
3517,75.0,0.0,90.0,11.0,0.0
3518,80.0,0.0,90.0,10.0,0.0
3519,80.0,0.0,90.0,4.0,0.0
3520,75.0,5.0,90.0,5.0,0.0
3521,49.0,135.0,60.0,7.0,0.0
3522,49.0,0.0,120.0,3.0,0.0
3523,80.0,0.0,120.0,1.0,0.0
3524,80.0,0.0,120.0,6.0,0.0
3525,73.0,0.0,120.0,2.0,0.0
3526,77.0,0.0,120.0,11.0,0.0
3527,49.0,85.0,240.0,7.0,0.0
3528,77.0,0.0,120.0,5.0,0.0
3529,68.0,100.0,120.0,12.0,0.0
3530,85.0,0.0,120.0,10.0,0.0
3531,49.0,0.0,120.0,13.0,0.0
3532,85.0,0.0,120.0,4.0,0.0
3533,85.0,0.0,120.0,0.0,0.0
3534,49.0,0.0,120.0,14.0,0.0
3535,78.0,35.0,90.0,5.0,0.0
3536,87.0,0.0,90.0,10.0,0.0
3537,78.0,0.0,90.0,11.0,0.0
3538,87.0,0.0,90.0,4.0,0.0
3539,80.0,0.0,90.0,11.0,0.0
3540,83.0,0.0,90.0,10.0,0.0
3541,80.0,5.0,90.0,5.0,0.0
3542,83.0,0.0,90.0,4.0,0.0
3543,49.0,135.0,60.0,7.0,0.0
3544,61.0,0.0,120.0,13.0,0.0
3545,61.0,0.0,120.0,14.0,0.0
3546,83.0,0.0,120.0,0.0,0.0
3547,80.0,0.0,120.0,1.0,0.0
3548,73.0,85.0,240.0,11.0,0.0
3549,73.0,0.0,120.0,2.0,0.0
3550,77.0,0.0,120.0,6.0,0.0
3551,83.0,100.0,120.0,10.0,0.0
3552,49.0,0.0,120.0,7.0,0.0
3553,68.0,0.0,120.0,12.0,0.0
3554,49.0,0.0,120.0,3.0,0.0
3555,73.0,0.0,240.0,5.0,0.0
3556,83.0,0.0,120.0,4.0,0.0
3557,85.0,35.0,90.0,4.0,0.0
3558,85.0,0.0,90.0,10.0,0.0
3559,82.0,5.0,90.0,4.0,0.0
3560,82.0,0.0,90.0,10.0,0.0
3561,77.0,135.0,60.0,11.0,0.0
3562,77.0,0.0,60.0,5.0,0.0
3563,66.0,0.0,120.0,14.0,0.0
3564,82.0,0.0,120.0,0.0,0.0
3565,82.0,0.0,120.0,10.0,0.0
3566,78.0,0.0,120.0,1.0,0.0
3567,82.0,120.0,120.0,4.0,0.0
3568,66.0,0.0,120.0,11.0,0.0
3569,66.0,0.0,120.0,12.0,0.0
3570,66.0,0.0,120.0,13.0,0.0
3571,66.0,0.0,120.0,5.0,0.0
3572,54.0,0.0,120.0,3.0,0.0
3573,73.0,0.0,120.0,2.0,0.0
3574,73.0,0.0,120.0,6.0,0.0
3575,78.0,0.0,120.0,4.0,0.0
3576,70.0,0.0,120.0,5.0,0.0
3577,78.0,100.0,120.0,10.0,0.0
3578,70.0,0.0,120.0,11.0,0.0
3579,80.0,0.0,90.0,10.0,0.0
3580,73.0,0.0,90.0,5.0,0.0
3581,80.0,0.0,90.0,4.0,0.0
3582,73.0,5.0,90.0,11.0,0.0
3583,54.0,135.0,60.0,7.0,0.0
3584,73.0,0.0,120.0,6.0,0.0
3585,54.0,85.0,240.0,7.0,0.0
3586,78.0,0.0,120.0,11.0,0.0
3587,82.0,0.0,120.0,0.0,0.0
3588,42.0,0.0,120.0,13.0,0.0
3589,82.0,0.0,120.0,10.0,0.0
3590,78.0,0.0,120.0,1.0,0.0
3591,82.0,0.0,120.0,4.0,0.0
3592,73.0,0.0,120.0,12.0,0.0
3593,42.0,0.0,120.0,14.0,0.0
3594,78.0,100.0,120.0,5.0,0.0
3595,83.0,0.0,90.0,10.0,0.0
3596,83.0,35.0,90.0,4.0,0.0
3597,80.0,0.0,90.0,5.0,0.0
3598,80.0,0.0,90.0,11.0,0.0
3599,85.0,5.0,90.0,4.0,0.0
3600,76.0,0.0,90.0,5.0,0.0
3601,85.0,0.0,90.0,10.0,0.0
3602,76.0,0.0,90.0,11.0,0.0
3603,54.0,135.0,60.0,7.0,0.0
3604,70.0,0.0,120.0,12.0,0.0
3605,54.0,0.0,120.0,14.0,0.0
3606,76.0,0.0,120.0,5.0,0.0
3607,70.0,0.0,120.0,6.0,0.0
3608,78.0,0.0,240.0,10.0,0.0
3609,76.0,0.0,120.0,11.0,0.0
3610,85.0,0.0,120.0,0.0,0.0
3611,82.0,0.0,120.0,1.0,0.0
3612,54.0,0.0,120.0,13.0,0.0
3613,78.0,85.0,240.0,4.0,0.0
3614,54.0,100.0,120.0,7.0,0.0
3615,78.0,35.0,90.0,5.0,0.0
3616,78.0,0.0,90.0,11.0,0.0
3617,75.0,5.0,90.0,5.0,0.0
3618,75.0,0.0,90.0,11.0,0.0
3619,82.0,0.0,60.0,10.0,0.0
3620,82.0,135.0,60.0,4.0,0.0
3621,71.0,0.0,120.0,10.0,0.0
3622,59.0,0.0,120.0,13.0,0.0
3623,75.0,0.0,120.0,11.0,0.0
3624,83.0,120.0,120.0,1.0,0.0
3625,59.0,0.0,120.0,14.0,0.0
3626,71.0,0.0,120.0,4.0,0.0
3627,66.0,0.0,120.0,12.0,0.0
3628,75.0,0.0,120.0,5.0,0.0
3629,66.0,0.0,120.0,6.0,0.0
3630,87.0,0.0,120.0,0.0,0.0
3631,75.0,0.0,120.0,10.0,0.0
3632,71.0,0.0,120.0,11.0,0.0
3633,75.0,0.0,120.0,4.0,0.0
3634,71.0,100.0,120.0,5.0,0.0
3635,75.0,0.0,90.0,11.0,0.0
3636,75.0,0.0,90.0,5.0,0.0
3637,78.0,5.0,90.0,4.0,0.0
3638,78.0,0.0,90.0,10.0,0.0
3639,59.0,135.0,60.0,7.0,0.0
3640,80.0,0.0,120.0,11.0,0.0
3641,83.0,0.0,120.0,4.0,0.0
3642,80.0,100.0,120.0,5.0,0.0
3643,83.0,0.0,120.0,10.0,0.0
3644,83.0,0.0,120.0,0.0,0.0
3645,80.0,0.0,120.0,1.0,0.0
3646,56.0,85.0,240.0,7.0,0.0
3647,85.0,0.0,90.0,10.0,0.0
3648,82.0,35.0,90.0,11.0,0.0
3649,82.0,0.0,90.0,5.0,0.0
3650,85.0,0.0,90.0,4.0,0.0
3651,78.0,5.0,90.0,5.0,0.0
3652,82.0,0.0,90.0,4.0,0.0
3653,78.0,0.0,90.0,11.0,0.0
3654,82.0,0.0,90.0,10.0,0.0
3655,71.0,0.0,60.0,12.0,0.0
3656,71.0,0.0,60.0,6.0,0.0
3657,56.0,0.0,60.0,14.0,0.0
3658,56.0,0.0,60.0,13.0,0.0
3659,56.0,135.0,60.0,7.0,0.0
3660,82.0,0.0,120.0,0.0,0.0
3661,73.0,0.0,240.0,6.0,0.0
3662,73.0,0.0,240.0,12.0,0.0
3663,58.0,85.0,240.0,14.0,0.0
3664,82.0,0.0,120.0,10.0,0.0
3665,82.0,0.0,120.0,4.0,0.0
3666,58.0,0.0,240.0,7.0,0.0
3667,78.0,0.0,120.0,1.0,0.0
3668,58.0,0.0,240.0,13.0,0.0
3669,78.0,100.0,120.0,5.0,0.0
3670,78.0,0.0,120.0,11.0,0.0
3671,83.0,35.0,90.0,10.0,0.0
3672,83.0,0.0,90.0,4.0,0.0
3673,80.0,0.0,90.0,11.0,0.0
3674,80.0,0.0,90.0,5.0,0.0
3675,80.0,0.0,90.0,10.0,0.0
3676,80.0,0.0,90.0,4.0,0.0
3677,77.0,5.0,90.0,11.0,0.0
3678,77.0,0.0,90.0,5.0,0.0
3679,59.0,0.0,60.0,13.0,0.0
3680,68.0,135.0,60.0,12.0,0.0
3681,59.0,0.0,60.0,14.0,0.0
3682,59.0,0.0,60.0,7.0,0.0
3683,68.0,0.0,60.0,6.0,0.0
3684,61.0,85.0,240.0,7.0,0.0
3685,77.0,120.0,120.0,11.0,0.0
3686,73.0,0.0,120.0,6.0,0.0
3687,80.0,0.0,120.0,0.0,0.0
3688,80.0,0.0,120.0,10.0,0.0
3689,61.0,0.0,120.0,14.0,0.0
3690,61.0,0.0,120.0,13.0,0.0
3691,73.0,0.0,120.0,1.0,0.0
3692,77.0,0.0,120.0,5.0,0.0
3693,80.0,0.0,120.0,4.0,0.0
3694,73.0,0.0,120.0,12.0,0.0
3695,82.0,0.0,120.0,4.0,0.0
3696,78.0,15.0,120.0,11.0,0.0
3697,78.0,0.0,120.0,5.0,0.0
3698,82.0,0.0,120.0,10.0,0.0
3699,80.0,0.0,90.0,5.0,0.0
3700,80.0,5.0,90.0,11.0,0.0
3701,83.0,0.0,90.0,10.0,0.0
3702,83.0,0.0,90.0,4.0,0.0
3703,59.0,135.0,60.0,7.0,0.0
3704,58.0,85.0,240.0,7.0,0.0
3705,85.0,0.0,120.0,0.0,0.0
3706,85.0,0.0,120.0,4.0,0.0
3707,82.0,0.0,120.0,11.0,0.0
3708,82.0,100.0,120.0,5.0,0.0
3709,82.0,0.0,120.0,1.0,0.0
3710,85.0,0.0,120.0,10.0,0.0
3711,87.0,0.0,90.0,4.0,0.0
3712,83.0,0.0,90.0,5.0,0.0
3713,87.0,35.0,90.0,10.0,0.0
3714,83.0,0.0,90.0,11.0,0.0
3715,83.0,0.0,90.0,10.0,0.0
3716,80.0,0.0,90.0,5.0,0.0
3717,83.0,0.0,90.0,4.0,0.0
3718,80.0,5.0,90.0,11.0,0.0
3719,58.0,0.0,60.0,14.0,0.0
3720,58.0,135.0,60.0,7.0,0.0
3721,73.0,0.0,60.0,12.0,0.0
3722,73.0,0.0,60.0,6.0,0.0
3723,58.0,0.0,60.0,13.0,0.0
3724,59.0,0.0,240.0,14.0,0.0
3725,59.0,0.0,240.0,13.0,0.0
3726,80.0,100.0,120.0,1.0,0.0
3727,80.0,0.0,120.0,5.0,0.0
3728,75.0,0.0,240.0,6.0,0.0
3729,80.0,0.0,120.0,11.0,0.0
3730,75.0,85.0,240.0,12.0,0.0
3731,83.0,0.0,120.0,10.0,0.0
3732,59.0,0.0,240.0,7.0,0.0
3733,83.0,0.0,120.0,0.0,0.0
3734,83.0,0.0,120.0,4.0,0.0
3735,82.0,0.0,90.0,5.0,0.0
3736,85.0,0.0,90.0,10.0,0.0
3737,85.0,0.0,90.0,4.0,0.0
3738,82.0,35.0,90.0,11.0,0.0
3739,78.0,0.0,90.0,11.0,0.0
3740,78.0,0.0,90.0,5.0,0.0
3741,82.0,5.0,90.0,4.0,0.0
3742,82.0,0.0,90.0,10.0,0.0
3743,70.0,0.0,60.0,12.0,0.0
3744,70.0,0.0,60.0,6.0,0.0
3745,61.0,0.0,60.0,14.0,0.0
3746,61.0,135.0,60.0,13.0,0.0
3747,61.0,0.0,60.0,7.0,0.0
3748,82.0,0.0,120.0,10.0,0.0
3749,63.0,0.0,120.0,14.0,0.0
3750,82.0,0.0,120.0,4.0,0.0
3751,75.0,0.0,120.0,6.0,0.0
3752,75.0,0.0,120.0,12.0,0.0
3753,78.0,120.0,120.0,1.0,0.0
3754,78.0,0.0,120.0,5.0,0.0
3755,82.0,0.0,120.0,0.0,0.0
3756,63.0,0.0,120.0,13.0,0.0
3757,63.0,0.0,120.0,7.0,0.0
3758,78.0,0.0,120.0,11.0,0.0
3759,83.0,0.0,120.0,4.0,0.0
3760,83.0,100.0,120.0,10.0,0.0
3761,85.0,0.0,90.0,10.0,0.0
3762,85.0,140.0,90.0,4.0,0.0
3763,87.0,0.0,120.0,10.0,0.0
3764,87.0,0.0,120.0,0.0,0.0
3765,59.0,0.0,120.0,7.0,0.0
3766,59.0,100.0,120.0,13.0,0.0
3767,80.0,0.0,120.0,1.0,0.0
3768,87.0,0.0,120.0,4.0,0.0
3769,59.0,0.0,120.0,14.0,0.0
3770,88.0,0.0,90.0,4.0,0.0
3771,88.0,120.0,90.0,10.0,0.0
3772,85.0,5.0,90.0,4.0,0.0
3773,85.0,0.0,90.0,10.0,0.0
3774,68.0,0.0,60.0,6.0,0.0
3775,77.0,0.0,60.0,11.0,0.0
3776,77.0,0.0,60.0,5.0,0.0
3777,68.0,135.0,60.0,12.0,0.0
3778,77.0,0.0,240.0,11.0,0.0
3779,85.0,100.0,120.0,0.0,0.0
3780,85.0,0.0,120.0,10.0,0.0
3781,58.0,0.0,120.0,7.0,0.0
3782,82.0,0.0,120.0,1.0,0.0
3783,58.0,0.0,120.0,13.0,0.0
3784,70.0,0.0,240.0,12.0,0.0
3785,73.0,85.0,240.0,6.0,0.0
3786,58.0,0.0,120.0,14.0,0.0
3787,77.0,0.0,240.0,5.0,0.0
3788,85.0,0.0,120.0,4.0,0.0
3789,87.0,35.0,90.0,4.0,0.0
3790,87.0,0.0,90.0,10.0,0.0
3791,83.0,5.0,90.0,4.0,0.0
3792,83.0,0.0,90.0,10.0,0.0
3793,79.0,0.0,60.0,5.0,0.0
3794,79.0,0.0,60.0,11.0,0.0
3795,75.0,0.0,60.0,6.0,0.0
3796,70.0,135.0,60.0,12.0,0.0
3797,56.0,0.0,120.0,13.0,0.0
3798,83.0,0.0,240.0,10.0,0.0
3799,80.0,0.0,240.0,11.0,0.0
3800,87.0,0.0,240.0,1.0,0.0
3801,56.0,120.0,120.0,7.0,0.0
3802,75.0,0.0,240.0,6.0,0.0
3803,80.0,0.0,240.0,5.0,0.0
3804,63.0,0.0,240.0,12.0,0.0
3805,83.0,0.0,240.0,4.0,0.0
3806,56.0,0.0,120.0,14.0,0.0
3807,83.0,85.0,240.0,0.0,0.0
3808,59.0,0.0,120.0,7.0,0.0
3809,59.0,15.0,120.0,13.0,0.0
3810,59.0,0.0,120.0,14.0,0.0
3811,63.0,5.0,90.0,7.0,0.0
3812,63.0,0.0,90.0,14.0,0.0
3813,63.0,0.0,90.0,13.0,0.0
3814,80.0,0.0,60.0,11.0,0.0
3815,75.0,0.0,60.0,6.0,0.0
3816,83.0,0.0,60.0,10.0,0.0
3817,80.0,0.0,60.0,0.0,0.0
3818,80.0,0.0,60.0,5.0,0.0
3819,83.0,0.0,60.0,1.0,0.0
3820,83.0,0.0,60.0,4.0,0.0
3821,75.0,135.0,60.0,12.0,0.0
3822,68.0,0.0,120.0,7.0,0.0
3823,83.0,20.0,810.0,0.0,0.0
3824,75.0,0.0,240.0,12.0,0.0
3825,83.0,0.0,240.0,4.0,0.0
3826,75.0,0.0,240.0,6.0,0.0
3827,80.0,0.0,240.0,11.0,0.0
3828,83.0,85.0,240.0,10.0,0.0
3829,68.0,0.0,120.0,13.0,0.0
3830,80.0,0.0,240.0,5.0,0.0
3831,68.0,100.0,120.0,14.0,0.0
3832,80.0,0.0,810.0,1.0,0.0
3833,70.0,0.0,90.0,13.0,0.0
3834,70.0,0.0,90.0,7.0,0.0
3835,70.0,35.0,90.0,14.0,0.0
3836,66.0,5.0,90.0,13.0,0.0
3837,66.0,0.0,90.0,14.0,0.0
3838,66.0,0.0,90.0,7.0,0.0
3839,75.0,0.0,60.0,12.0,0.0
3840,80.0,135.0,60.0,5.0,0.0
3841,80.0,0.0,60.0,11.0,0.0
3842,83.0,0.0,60.0,10.0,0.0
3843,75.0,0.0,60.0,6.0,0.0
3844,83.0,0.0,60.0,4.0,0.0
3845,66.0,0.0,120.0,7.0,0.0
3846,80.0,0.0,240.0,11.0,0.0
3847,75.0,0.0,240.0,6.0,0.0
3848,75.0,0.0,240.0,12.0,0.0
3849,83.0,0.0,240.0,4.0,0.0
3850,66.0,100.0,120.0,14.0,0.0
3851,80.0,0.0,240.0,5.0,0.0
3852,66.0,0.0,120.0,13.0,0.0
3853,83.0,85.0,240.0,10.0,0.0
3854,68.0,0.0,90.0,13.0,0.0
3855,68.0,35.0,90.0,7.0,0.0
3856,68.0,0.0,90.0,14.0,0.0
3857,65.0,0.0,90.0,14.0,0.0
3858,65.0,0.0,90.0,13.0,0.0
3859,65.0,5.0,90.0,7.0,0.0
3860,83.0,0.0,60.0,4.0,0.0
3861,75.0,0.0,60.0,12.0,0.0
3862,80.0,0.0,60.0,5.0,0.0
3863,83.0,115.0,60.0,10.0,0.0
3864,80.0,0.0,60.0,11.0,0.0
3865,75.0,0.0,60.0,6.0,0.0
3866,80.0,0.0,120.0,11.0,0.0
3867,80.0,100.0,120.0,5.0,0.0
3868,83.0,0.0,120.0,10.0,0.0
3869,65.0,0.0,120.0,13.0,0.0
3870,65.0,0.0,120.0,14.0,0.0
3871,73.0,0.0,240.0,12.0,0.0
3872,73.0,85.0,240.0,6.0,0.0
3873,65.0,0.0,120.0,7.0,0.0
3874,83.0,0.0,120.0,4.0,0.0
3875,77.0,0.0,120.0,11.0,0.0
3876,73.0,20.0,90.0,1.0,0.0
3877,80.0,0.0,120.0,10.0,0.0
3878,77.0,15.0,120.0,5.0,0.0
3879,80.0,0.0,120.0,4.0,0.0
3880,80.0,0.0,90.0,0.0,0.0
3881,78.0,0.0,90.0,1.0,0.0
3882,78.0,0.0,90.0,5.0,0.0
3883,82.0,0.0,90.0,10.0,0.0
3884,78.0,0.0,90.0,11.0,0.0
3885,82.0,0.0,90.0,4.0,0.0
3886,82.0,5.0,90.0,0.0,0.0
3887,73.0,0.0,60.0,6.0,0.0
3888,49.0,0.0,60.0,3.0,0.0
3889,73.0,0.0,60.0,2.0,0.0
3890,73.0,115.0,60.0,12.0,0.0
3891,73.0,0.0,240.0,12.0,0.0
3892,80.0,0.0,120.0,5.0,0.0
3893,80.0,100.0,120.0,11.0,0.0
3894,73.0,0.0,240.0,6.0,0.0
3895,73.0,85.0,240.0,2.0,0.0
3896,83.0,0.0,120.0,4.0,0.0
3897,49.0,0.0,240.0,3.0,0.0
3898,83.0,0.0,120.0,10.0,0.0
3899,80.0,20.0,90.0,1.0,0.0
3900,83.0,0.0,90.0,0.0,0.0
3901,77.0,0.0,90.0,5.0,0.0
3902,92.0,0.0,90.0,10.0,0.0
3903,73.0,35.0,90.0,1.0,0.0
3904,85.0,0.0,90.0,4.0,0.0
3905,77.0,0.0,90.0,11.0,0.0
3906,85.0,0.0,90.0,0.0,0.0
3907,82.0,0.0,90.0,10.0,0.0
3908,78.0,0.0,90.0,5.0,0.0
3909,82.0,0.0,90.0,4.0,0.0
3910,82.0,0.0,90.0,0.0,0.0
3911,78.0,5.0,90.0,11.0,0.0
3912,78.0,0.0,90.0,1.0,0.0
3913,73.0,0.0,60.0,12.0,0.0
3914,61.0,115.0,60.0,14.0,0.0
3915,61.0,0.0,60.0,7.0,0.0
3916,61.0,0.0,60.0,13.0,0.0
3917,49.0,0.0,60.0,3.0,0.0
3918,73.0,0.0,60.0,2.0,0.0
3919,73.0,0.0,60.0,6.0,0.0
3920,83.0,100.0,120.0,10.0,0.0
3921,83.0,20.0,90.0,0.0,0.0
3922,73.0,0.0,240.0,6.0,0.0
3923,58.0,0.0,240.0,14.0,0.0
3924,80.0,0.0,120.0,11.0,0.0
3925,83.0,0.0,120.0,4.0,0.0
3926,58.0,0.0,240.0,7.0,0.0
3927,49.0,0.0,240.0,3.0,0.0
3928,80.0,0.0,90.0,1.0,0.0
3929,73.0,0.0,240.0,12.0,0.0
3930,58.0,85.0,240.0,13.0,0.0
3931,80.0,0.0,120.0,5.0,0.0
3932,73.0,0.0,240.0,2.0,0.0
3933,82.0,20.0,90.0,0.0,0.0
3934,82.0,0.0,120.0,4.0,0.0
3935,78.0,0.0,120.0,5.0,0.0
3936,78.0,0.0,90.0,1.0,0.0
3937,82.0,0.0,120.0,10.0,0.0
3938,78.0,15.0,120.0,11.0,0.0
3939,80.0,0.0,90.0,10.0,0.0
3940,80.0,0.0,90.0,0.0,0.0
3941,77.0,0.0,90.0,5.0,0.0
3942,77.0,5.0,90.0,11.0,0.0
3943,77.0,0.0,90.0,1.0,0.0
3944,80.0,0.0,90.0,4.0,0.0
3945,73.0,0.0,60.0,2.0,0.0
3946,61.0,115.0,60.0,14.0,0.0
3947,73.0,0.0,60.0,6.0,0.0
3948,73.0,0.0,60.0,12.0,0.0
3949,49.0,0.0,60.0,3.0,0.0
3950,61.0,0.0,60.0,13.0,0.0
3951,61.0,0.0,60.0,7.0,0.0
3952,54.0,0.0,240.0,14.0,0.0
3953,73.0,0.0,240.0,2.0,0.0
3954,82.0,0.0,120.0,4.0,0.0
3955,54.0,0.0,240.0,7.0,0.0
3956,54.0,0.0,240.0,13.0,0.0
3957,82.0,100.0,120.0,10.0,0.0
3958,54.0,0.0,120.0,3.0,0.0
3959,78.0,0.0,240.0,11.0,0.0
3960,73.0,0.0,240.0,6.0,0.0
3961,78.0,0.0,240.0,1.0,0.0
3962,73.0,0.0,240.0,12.0,0.0
3963,78.0,85.0,240.0,5.0,0.0
3964,82.0,20.0,90.0,0.0,0.0
3965,85.0,20.0,90.0,0.0,0.0
3966,85.0,15.0,120.0,10.0,0.0
3967,85.0,0.0,120.0,4.0,0.0
3968,83.0,0.0,90.0,10.0,0.0
3969,83.0,5.0,90.0,4.0,0.0
3970,83.0,0.0,90.0,0.0,0.0
3971,80.0,0.0,60.0,2.0,0.0
3972,77.0,0.0,60.0,11.0,0.0
3973,73.0,0.0,60.0,12.0,0.0
3974,56.0,0.0,60.0,13.0,0.0
3975,56.0,0.0,60.0,14.0,0.0
3976,73.0,0.0,60.0,6.0,0.0
3977,56.0,270.0,60.0,7.0,0.0
3978,73.0,0.0,60.0,1.0,0.0
3979,77.0,0.0,60.0,5.0,0.0
3980,73.0,0.0,240.0,12.0,0.0
3981,78.0,0.0,240.0,5.0,0.0
3982,78.0,90.0,240.0,11.0,0.0
3983,58.0,0.0,240.0,14.0,0.0
3984,78.0,0.0,240.0,2.0,0.0
3985,58.0,0.0,240.0,13.0,0.0
3986,73.0,0.0,240.0,6.0,0.0
3987,70.0,0.0,240.0,1.0,0.0
3988,58.0,0.0,240.0,7.0,0.0
3989,85.0,0.0,240.0,0.0,0.0
3990,85.0,0.0,240.0,10.0,0.0
3991,85.0,0.0,240.0,4.0,0.0
3992,78.0,0.0,60.0,2.0,0.0
3993,78.0,0.0,60.0,10.0,0.0
3994,66.0,0.0,60.0,1.0,0.0
3995,71.0,270.0,60.0,6.0,0.0
3996,54.0,0.0,60.0,3.0,0.0
3997,78.0,0.0,60.0,4.0,0.0
3998,87.0,0.0,60.0,0.0,0.0
3999,59.0,0.0,60.0,13.0,0.0
4000,71.0,0.0,60.0,12.0,0.0
4001,75.0,0.0,60.0,5.0,0.0
4002,59.0,0.0,60.0,7.0,0.0
4003,59.0,0.0,60.0,14.0,0.0
4004,75.0,0.0,60.0,11.0,0.0
4005,68.0,0.0,240.0,6.0,0.0
4006,73.0,0.0,240.0,10.0,0.0
4007,73.0,0.0,240.0,1.0,0.0
4008,73.0,0.0,240.0,4.0,0.0
4009,49.0,0.0,240.0,3.0,0.0
4010,61.0,0.0,240.0,7.0,0.0
4011,73.0,0.0,240.0,11.0,0.0
4012,68.0,0.0,240.0,12.0,0.0
4013,78.0,90.0,240.0,2.0,0.0
4014,61.0,0.0,240.0,13.0,0.0
4015,73.0,0.0,240.0,5.0,0.0
4016,61.0,0.0,240.0,14.0,0.0
4017,80.0,0.0,240.0,0.0,0.0
4018,77.0,0.0,60.0,4.0,0.0
4019,49.0,0.0,60.0,7.0,0.0
4020,73.0,0.0,60.0,2.0,0.0
4021,85.0,0.0,60.0,0.0,0.0
4022,68.0,0.0,60.0,6.0,0.0
4023,49.0,0.0,60.0,13.0,0.0
4024,49.0,0.0,60.0,3.0,0.0
4025,80.0,135.0,60.0,1.0,0.0
4026,73.0,0.0,60.0,11.0,0.0
4027,73.0,0.0,60.0,5.0,0.0
4028,49.0,0.0,60.0,14.0,0.0
4029,68.0,0.0,60.0,12.0,0.0
4030,77.0,0.0,60.0,10.0,0.0
4031,54.0,0.0,120.0,14.0,0.0
4032,73.0,0.0,240.0,11.0,0.0
4033,54.0,0.0,120.0,13.0,0.0
4034,70.0,0.0,240.0,6.0,0.0
4035,82.0,0.0,120.0,0.0,0.0
4036,73.0,0.0,120.0,2.0,0.0
4037,78.0,0.0,120.0,1.0,0.0
4038,78.0,0.0,2280.0,4.0,0.0
4039,70.0,90.0,240.0,12.0,0.0
4040,54.0,0.0,120.0,7.0,0.0
4041,54.0,135.0,120.0,3.0,0.0
4042,73.0,0.0,240.0,5.0,0.0
4043,78.0,0.0,240.0,10.0,0.0
4044,73.0,0.0,60.0,10.0,0.0
4045,73.0,0.0,60.0,12.0,0.0
4046,70.0,0.0,60.0,6.0,0.0
4047,73.0,135.0,60.0,5.0,0.0
4048,73.0,0.0,60.0,11.0,0.0
4049,70.0,100.0,120.0,6.0,0.0
4050,73.0,85.0,240.0,11.0,0.0
4051,73.0,0.0,240.0,10.0,0.0
4052,73.0,0.0,240.0,12.0,0.0
4053,73.0,0.0,120.0,5.0,0.0
4054,75.0,35.0,90.0,5.0,0.0
4055,71.0,0.0,90.0,6.0,0.0
4056,71.0,5.0,90.0,5.0,0.0
4057,68.0,0.0,90.0,6.0,0.0
4058,73.0,135.0,60.0,11.0,0.0
4059,73.0,0.0,60.0,12.0,0.0
4060,73.0,0.0,60.0,10.0,0.0
4061,73.0,0.0,120.0,10.0,0.0
4062,73.0,0.0,120.0,12.0,0.0
4063,71.0,0.0,120.0,5.0,0.0
4064,73.0,100.0,120.0,11.0,0.0
4065,68.0,0.0,120.0,6.0,0.0
4066,73.0,0.0,90.0,5.0,0.0
4067,70.0,120.0,90.0,6.0,0.0
4068,70.0,0.0,90.0,5.0,0.0
4069,66.0,140.0,90.0,6.0,0.0
4070,42.0,0.0,120.0,7.0,0.0
4071,78.0,120.0,120.0,2.0,0.0
4072,42.0,0.0,120.0,13.0,0.0
4073,82.0,0.0,120.0,1.0,0.0
4074,42.0,0.0,120.0,14.0,0.0
4075,54.0,0.0,120.0,3.0,0.0
4076,85.0,0.0,120.0,0.0,0.0
4077,66.0,0.0,120.0,6.0,0.0
4078,70.0,0.0,120.0,5.0,0.0
4079,71.0,100.0,120.0,5.0,0.0
4080,68.0,0.0,120.0,6.0,0.0
4081,73.0,0.0,90.0,5.0,0.0
4082,70.0,5.0,90.0,6.0,0.0
4083,61.0,135.0,60.0,10.0,0.0
4084,61.0,0.0,60.0,11.0,0.0
4085,61.0,0.0,60.0,12.0,0.0
4086,61.0,85.0,240.0,10.0,0.0
4087,61.0,0.0,240.0,12.0,0.0
4088,61.0,0.0,240.0,11.0,0.0
4089,70.0,0.0,120.0,6.0,0.0
4090,73.0,100.0,120.0,5.0,0.0
4091,71.0,35.0,90.0,6.0,0.0
4092,75.0,0.0,90.0,5.0,0.0
4093,71.0,5.0,90.0,5.0,0.0
4094,68.0,0.0,90.0,6.0,0.0
4095,61.0,0.0,60.0,11.0,0.0
4096,61.0,0.0,60.0,12.0,0.0
4097,61.0,135.0,60.0,10.0,0.0
4098,61.0,0.0,120.0,11.0,0.0
4099,61.0,0.0,120.0,12.0,0.0
4100,61.0,0.0,120.0,10.0,0.0
4101,68.0,0.0,120.0,6.0,0.0
4102,71.0,100.0,120.0,5.0,0.0
4103,70.0,0.0,90.0,6.0,0.0
4104,73.0,120.0,90.0,5.0,0.0
4105,70.0,0.0,90.0,5.0,0.0
4106,66.0,140.0,90.0,6.0,0.0
4107,54.0,0.0,120.0,14.0,0.0
4108,66.0,0.0,120.0,6.0,0.0
4109,85.0,0.0,120.0,1.0,0.0
4110,54.0,0.0,120.0,3.0,0.0
4111,82.0,0.0,120.0,2.0,0.0
4112,54.0,120.0,120.0,7.0,0.0
4113,70.0,0.0,120.0,5.0,0.0
4114,54.0,0.0,120.0,13.0,0.0
4115,90.0,0.0,120.0,0.0,0.0
4116,77.0,100.0,120.0,4.0,0.0
4117,78.0,140.0,90.0,4.0,0.0
4118,68.0,0.0,120.0,6.0,0.0
4119,78.0,100.0,120.0,4.0,0.0
4120,71.0,0.0,120.0,5.0,0.0
4121,80.0,120.0,90.0,4.0,0.0
4122,76.0,5.0,90.0,4.0,0.0
4123,54.0,135.0,60.0,7.0,0.0
4124,54.0,85.0,240.0,7.0,0.0
4125,73.0,100.0,120.0,5.0,0.0
4126,70.0,0.0,120.0,6.0,0.0
4127,76.0,0.0,120.0,4.0,0.0
4128,78.0,35.0,90.0,4.0,0.0
4129,75.0,5.0,90.0,4.0,0.0
4130,54.0,135.0,60.0,7.0,0.0
4131,75.0,0.0,120.0,4.0,0.0
4132,66.0,120.0,120.0,5.0,0.0
4133,71.0,0.0,120.0,6.0,0.0
4134,59.0,0.0,120.0,7.0,0.0
4135,78.0,100.0,120.0,4.0,0.0
4136,80.0,140.0,90.0,4.0,0.0
4137,73.0,0.0,120.0,5.0,0.0
4138,70.0,100.0,120.0,6.0,0.0
4139,80.0,0.0,120.0,4.0,0.0
4140,82.0,120.0,90.0,4.0,0.0
4141,78.0,5.0,90.0,4.0,0.0
4142,56.0,135.0,60.0,7.0,0.0
4143,72.0,0.0,120.0,6.0,0.0
4144,78.0,100.0,120.0,4.0,0.0
4145,75.0,0.0,120.0,5.0,0.0
4146,56.0,85.0,240.0,7.0,0.0
4147,80.0,35.0,90.0,4.0,0.0
4148,77.0,5.0,90.0,4.0,0.0
4149,56.0,135.0,60.0,7.0,0.0
4150,61.0,120.0,120.0,7.0,0.0
4151,73.0,0.0,120.0,6.0,0.0
4152,68.0,0.0,120.0,5.0,0.0
4153,77.0,0.0,120.0,4.0,0.0
4154,80.0,100.0,120.0,4.0,0.0
4155,82.0,140.0,90.0,4.0,0.0
4156,82.0,0.0,120.0,4.0,0.0
4157,72.0,0.0,120.0,6.0,0.0
4158,75.0,100.0,120.0,5.0,0.0
4159,83.0,120.0,90.0,4.0,0.0
4160,80.0,5.0,90.0,4.0,0.0
4161,58.0,135.0,60.0,7.0,0.0
4162,77.0,0.0,120.0,5.0,0.0
4163,58.0,85.0,240.0,7.0,0.0
4164,74.0,0.0,120.0,6.0,0.0
4165,80.0,100.0,120.0,4.0,0.0
4166,82.0,35.0,90.0,4.0,0.0
4167,78.0,5.0,90.0,4.0,0.0
4168,58.0,135.0,60.0,7.0,0.0
4169,63.0,0.0,120.0,7.0,0.0
4170,78.0,120.0,120.0,4.0,0.0
4171,70.0,0.0,240.0,5.0,0.0
4172,75.0,85.0,240.0,6.0,0.0
4173,80.0,15.0,120.0,4.0,0.0
4174,82.0,5.0,90.0,4.0,0.0
4175,78.0,135.0,60.0,5.0,0.0
4176,75.0,0.0,60.0,6.0,0.0
4177,75.0,0.0,120.0,6.0,0.0
4178,78.0,100.0,120.0,5.0,0.0
4179,82.0,0.0,1050.0,4.0,0.0
4180,80.0,0.0,90.0,5.0,0.0
4181,77.0,120.0,90.0,6.0,0.0
4182,73.0,0.0,90.0,6.0,0.0
4183,77.0,140.0,90.0,5.0,0.0
4184,73.0,0.0,120.0,6.0,0.0
4185,77.0,100.0,120.0,5.0,0.0
4186,78.0,0.0,90.0,5.0,0.0
4187,75.0,120.0,90.0,6.0,0.0
4188,72.0,140.0,90.0,6.0,0.0
4189,75.0,0.0,90.0,5.0,0.0
4190,75.0,120.0,120.0,5.0,0.0
4191,72.0,0.0,120.0,6.0,0.0
4192,73.0,0.0,120.0,6.0,0.0
4193,77.0,100.0,120.0,5.0,0.0
4194,75.0,0.0,90.0,6.0,0.0
4195,78.0,140.0,90.0,5.0,0.0
4196,80.0,0.0,330.0,4.0,0.0
4197,77.0,100.0,120.0,6.0,0.0
4198,80.0,0.0,120.0,5.0,0.0
4199,82.0,0.0,90.0,5.0,0.0
4200,78.0,120.0,90.0,6.0,0.0
4201,78.0,0.0,90.0,5.0,0.0
4202,75.0,140.0,90.0,6.0,0.0
4203,78.0,100.0,120.0,5.0,0.0
4204,83.0,140.0,450.0,4.0,0.0
4205,75.0,0.0,120.0,6.0,0.0
4206,77.0,0.0,90.0,6.0,0.0
4207,80.0,120.0,90.0,5.0,0.0
4208,74.0,0.0,90.0,6.0,0.0
4209,77.0,120.0,90.0,5.0,0.0
4210,74.0,85.0,240.0,6.0,0.0
4211,77.0,5.0,330.0,5.0,0.0
4212,77.0,15.0,120.0,4.0,0.0
4213,78.0,120.0,120.0,4.0,0.0
4214,74.0,15.0,60.0,6.0,0.0
4215,82.0,140.0,810.0,5.0,0.0
4216,58.0,0.0,120.0,7.0,0.0
4217,80.0,100.0,120.0,4.0,0.0
4218,74.0,85.0,240.0,6.0,0.0
4219,89.0,35.0,90.0,4.0,0.0
4220,79.0,5.0,90.0,4.0,0.0
4221,74.0,135.0,60.0,6.0,0.0
4222,80.0,0.0,120.0,4.0,0.0
4223,74.0,85.0,240.0,6.0,0.0
4224,46.0,120.0,120.0,7.0,0.0
4225,79.0,15.0,120.0,4.0,0.0
4226,77.0,5.0,90.0,4.0,0.0
4227,74.0,115.0,60.0,6.0,0.0
4228,79.0,5.0,330.0,4.0,0.0
4229,73.0,85.0,240.0,6.0,0.0
4230,75.0,15.0,120.0,5.0,0.0
4231,77.0,120.0,120.0,5.0,0.0
4232,73.0,15.0,60.0,6.0,0.0
4233,63.0,0.0,120.0,7.0,0.0
4234,73.0,85.0,240.0,6.0,0.0
4235,79.0,100.0,120.0,5.0,0.0
4236,82.0,0.0,330.0,4.0,0.0
4237,87.0,35.0,90.0,5.0,0.0
4238,77.0,5.0,90.0,5.0,0.0
4239,73.0,135.0,60.0,6.0,0.0
4240,79.0,0.0,120.0,5.0,0.0
4241,51.0,120.0,120.0,7.0,0.0
4242,73.0,85.0,240.0,6.0,0.0
4243,87.0,140.0,450.0,4.0,0.0
4244,77.0,15.0,120.0,5.0,0.0
4245,75.0,5.0,90.0,5.0,0.0
4246,73.0,115.0,60.0,6.0,0.0
4247,72.0,90.0,240.0,6.0,0.0
4248,80.0,140.0,1170.0,5.0,0.0
4249,75.0,15.0,120.0,4.0,0.0
4250,77.0,120.0,120.0,4.0,0.0
4251,72.0,15.0,60.0,6.0,0.0
4252,78.0,100.0,120.0,4.0,0.0
4253,56.0,0.0,120.0,7.0,0.0
4254,72.0,85.0,240.0,6.0,0.0
4255,87.0,35.0,90.0,4.0,0.0
4256,77.0,5.0,90.0,4.0,0.0
4257,72.0,135.0,60.0,6.0,0.0
4258,72.0,85.0,240.0,6.0,0.0
4259,44.0,0.0,120.0,7.0,0.0
4260,78.0,120.0,120.0,4.0,0.0
4261,77.0,15.0,120.0,4.0,0.0
4262,75.0,5.0,90.0,4.0,0.0
4263,72.0,115.0,60.0,6.0,0.0
4264,77.0,5.0,330.0,4.0,0.0
4265,71.0,85.0,240.0,6.0,0.0
4266,73.0,15.0,120.0,5.0,0.0
4267,75.0,120.0,120.0,5.0,0.0
4268,71.0,15.0,60.0,6.0,0.0
4269,77.0,0.0,120.0,5.0,0.0
4270,61.0,100.0,120.0,7.0,0.0
4271,80.0,0.0,330.0,4.0,0.0
4272,71.0,85.0,240.0,6.0,0.0
4273,85.0,35.0,90.0,5.0,0.0
4274,75.0,5.0,90.0,5.0,0.0
4275,71.0,135.0,60.0,6.0,0.0
4276,85.0,140.0,450.0,4.0,0.0
4277,49.0,0.0,120.0,7.0,0.0
4278,71.0,85.0,240.0,6.0,0.0
4279,77.0,120.0,120.0,5.0,0.0
4280,75.0,15.0,120.0,5.0,0.0
4281,73.0,5.0,90.0,5.0,0.0
4282,71.0,115.0,60.0,6.0,0.0
4283,70.0,85.0,240.0,6.0,0.0
4284,78.0,5.0,330.0,5.0,0.0
4285,77.0,15.0,120.0,4.0,0.0
4286,78.0,120.0,120.0,4.0,0.0
4287,70.0,15.0,60.0,6.0,0.0
4288,85.0,0.0,1770.0,5.0,0.0
4289,80.0,100.0,120.0,4.0,0.0
4290,70.0,85.0,240.0,6.0,0.0
4291,54.0,0.0,120.0,7.0,0.0
4292,77.0,35.0,90.0,4.0,0.0
4293,78.0,5.0,90.0,4.0,0.0
4294,70.0,135.0,60.0,6.0,0.0
4295,73.0,0.0,120.0,4.0,0.0
4296,42.0,120.0,120.0,7.0,0.0
4297,70.0,85.0,240.0,6.0,0.0
4298,77.0,15.0,120.0,4.0,0.0
4299,78.0,5.0,90.0,4.0,0.0
4300,70.0,115.0,60.0,6.0,0.0
4301,69.0,90.0,240.0,6.0,0.0
4302,87.0,140.0,90.0,4.0,0.0
4303,77.0,15.0,120.0,4.0,0.0
4304,78.0,120.0,120.0,4.0,0.0
4305,69.0,15.0,60.0,6.0,0.0
4306,69.0,85.0,240.0,6.0,0.0
4307,54.0,0.0,120.0,7.0,0.0
4308,80.0,100.0,120.0,4.0,0.0
4309,77.0,35.0,90.0,4.0,0.0
4310,78.0,5.0,90.0,4.0,0.0
4311,69.0,135.0,60.0,6.0,0.0
4312,75.0,0.0,120.0,4.0,0.0
4313,69.0,85.0,240.0,6.0,0.0
4314,42.0,120.0,120.0,7.0,0.0
4315,77.0,15.0,120.0,4.0,0.0
4316,78.0,5.0,90.0,4.0,0.0
4317,69.0,45.0,60.0,6.0,0.0
4318,81.0,0.0,120.0,4.0,0.0
4319,84.0,30.0,30.0,5.0,0.0
4320,44.0,100.0,3240.0,7.0,0.0
4321,68.0,15.0,240.0,6.0,0.0
4322,85.0,30.0,30.0,5.0,0.0
4323,84.0,30.0,30.0,5.0,0.0
4324,85.0,30.0,30.0,5.0,0.0
4325,80.0,20.0,90.0,4.0,0.0
4326,84.0,30.0,30.0,5.0,0.0
4327,85.0,30.0,30.0,5.0,0.0
4328,84.0,10.0,30.0,5.0,0.0
4329,85.0,15.0,30.0,5.0,0.0
4330,84.0,30.0,30.0,5.0,0.0
4331,78.0,5.0,90.0,4.0,0.0
4332,68.0,15.0,60.0,6.0,0.0
4333,85.0,30.0,30.0,5.0,0.0
4334,84.0,10.0,30.0,5.0,0.0
4335,85.0,30.0,30.0,5.0,0.0
4336,68.0,15.0,240.0,6.0,0.0
4337,84.0,30.0,30.0,5.0,0.0
4338,78.0,30.0,120.0,4.0,0.0
4339,85.0,30.0,30.0,5.0,0.0
4340,84.0,30.0,30.0,5.0,0.0
4341,85.0,0.0,30.0,5.0,0.0
4342,76.0,20.0,90.0,4.0,0.0
4343,84.0,30.0,30.0,5.0,0.0
4344,85.0,30.0,30.0,5.0,0.0
4345,84.0,10.0,30.0,5.0,0.0
4346,85.0,15.0,30.0,5.0,0.0
4347,75.0,5.0,90.0,4.0,0.0
4348,84.0,30.0,30.0,5.0,0.0
4349,68.0,15.0,60.0,6.0,0.0
4350,85.0,30.0,30.0,5.0,0.0
4351,84.0,10.0,30.0,5.0,0.0
4352,85.0,30.0,30.0,5.0,0.0
4353,84.0,30.0,30.0,5.0,0.0
4354,68.0,15.0,240.0,6.0,0.0
4355,75.0,30.0,120.0,4.0,0.0
4356,85.0,30.0,30.0,5.0,0.0
4357,84.0,30.0,30.0,5.0,0.0
4358,85.0,0.0,30.0,5.0,0.0
4359,84.0,30.0,30.0,5.0,0.0
4360,76.0,20.0,90.0,4.0,0.0
4361,85.0,30.0,30.0,5.0,0.0
4362,84.0,10.0,30.0,5.0,0.0
4363,85.0,15.0,30.0,5.0,0.0
4364,84.0,30.0,30.0,5.0,0.0
4365,78.0,5.0,90.0,4.0,0.0
4366,85.0,30.0,30.0,5.0,0.0
4367,68.0,15.0,60.0,6.0,0.0
4368,82.0,10.0,30.0,5.0,0.0
4369,84.0,120.0,30.0,5.0,0.0
4370,85.0,0.0,120.0,5.0,0.0
4371,67.0,90.0,240.0,6.0,0.0
4372,76.0,120.0,120.0,4.0,0.0
4373,82.0,0.0,120.0,5.0,0.0
4374,73.0,15.0,120.0,4.0,0.0
4375,75.0,120.0,120.0,4.0,0.0
4376,84.0,0.0,120.0,5.0,0.0
4377,67.0,15.0,60.0,6.0,0.0
4378,67.0,85.0,240.0,6.0,0.0
4379,76.0,0.0,120.0,4.0,0.0
4380,85.0,100.0,120.0,5.0,0.0
4381,78.0,0.0,90.0,4.0,0.0
4382,87.0,35.0,90.0,5.0,0.0
4383,84.0,0.0,90.0,5.0,0.0
4384,75.0,5.0,90.0,4.0,0.0
4385,67.0,135.0,60.0,6.0,0.0
4386,85.0,0.0,120.0,5.0,0.0
4387,76.0,120.0,120.0,4.0,0.0
4388,67.0,85.0,240.0,6.0,0.0
4389,75.0,15.0,120.0,4.0,0.0
4390,84.0,0.0,120.0,5.0,0.0
4391,82.0,0.0,90.0,5.0,0.0
4392,73.0,5.0,90.0,4.0,0.0
4393,67.0,135.0,60.0,6.0,0.0
4394,87.0,5.0,330.0,5.0,0.0
4395,72.0,120.0,120.0,4.0,0.0
4396,66.0,85.0,240.0,6.0,0.0
4397,75.0,15.0,120.0,4.0,0.0
4398,80.0,120.0,120.0,4.0,0.0
4399,66.0,15.0,60.0,6.0,0.0
4400,84.0,100.0,120.0,4.0,0.0
4401,66.0,85.0,240.0,6.0,0.0
4402,80.0,20.0,810.0,5.0,0.0
4403,85.0,35.0,90.0,4.0,0.0
4404,87.0,5.0,90.0,4.0,0.0
4405,66.0,135.0,60.0,6.0,0.0
4406,80.0,100.0,120.0,4.0,0.0
4407,66.0,85.0,240.0,6.0,0.0
4408,85.0,35.0,90.0,4.0,0.0
4409,84.0,5.0,90.0,4.0,0.0
4410,66.0,15.0,60.0,6.0,0.0
4411,45.0,100.0,120.0,7.0,0.0
4412,64.0,0.0,120.0,6.0,0.0
4413,85.0,20.0,2250.0,4.0,0.0
4414,73.0,100.0,120.0,5.0,0.0
4415,69.0,20.0,90.0,6.0,0.0
4416,76.0,0.0,90.0,5.0,0.0
4417,68.0,140.0,90.0,6.0,0.0
4418,68.0,100.0,120.0,6.0,0.0
4419,76.0,0.0,120.0,5.0,0.0
4420,69.0,0.0,90.0,6.0,0.0
4421,78.0,120.0,90.0,5.0,0.0
4422,66.0,140.0,90.0,6.0,0.0
4423,75.0,0.0,90.0,5.0,0.0
4424,66.0,0.0,120.0,6.0,0.0
4425,75.0,100.0,120.0,5.0,0.0
4426,76.0,0.0,90.0,5.0,0.0
4427,68.0,120.0,90.0,6.0,0.0
4428,64.0,140.0,90.0,6.0,0.0
4429,73.0,0.0,90.0,5.0,0.0
4430,64.0,120.0,120.0,6.0,0.0
4431,44.0,0.0,120.0,7.0,0.0
4432,73.0,0.0,120.0,5.0,0.0
4433,75.0,120.0,120.0,5.0,0.0
4434,66.0,0.0,120.0,6.0,0.0
4435,76.0,120.0,120.0,5.0,0.0
4436,68.0,0.0,120.0,6.0,0.0
4437,78.0,0.0,120.0,5.0,0.0
4438,69.0,100.0,120.0,6.0,0.0
4439,71.0,0.0,90.0,6.0,0.0
4440,80.0,120.0,90.0,5.0,0.0
4441,68.0,0.0,90.0,6.0,0.0
4442,76.0,140.0,90.0,5.0,0.0
4443,68.0,0.0,120.0,6.0,0.0
4444,76.0,100.0,120.0,5.0,0.0
4445,78.0,0.0,90.0,5.0,0.0
4446,69.0,120.0,90.0,6.0,0.0
4447,67.0,120.0,90.0,6.0,0.0
4448,75.0,0.0,90.0,5.0,0.0
4449,75.0,5.0,330.0,5.0,0.0
4450,67.0,120.0,120.0,6.0,0.0
4451,82.0,100.0,120.0,4.0,0.0
4452,84.0,120.0,120.0,4.0,0.0
4453,55.0,15.0,60.0,7.0,0.0
4454,82.0,90.0,960.0,5.0,0.0
4455,85.0,100.0,120.0,4.0,0.0
4456,55.0,85.0,240.0,7.0,0.0
4457,87.0,35.0,90.0,4.0,0.0
4458,84.0,5.0,90.0,4.0,0.0
4459,55.0,135.0,60.0,7.0,0.0
4460,85.0,120.0,120.0,4.0,0.0
4461,55.0,85.0,240.0,7.0,0.0
4462,84.0,15.0,120.0,4.0,0.0
4463,82.0,5.0,90.0,4.0,0.0
4464,55.0,135.0,60.0,7.0,0.0
4465,84.0,120.0,120.0,4.0,0.0
4466,56.0,0.0,240.0,7.0,0.0
4467,85.0,15.0,120.0,4.0,0.0
4468,87.0,120.0,120.0,4.0,0.0
4469,56.0,0.0,60.0,7.0,0.0
4470,80.0,0.0,60.0,5.0,0.0
4471,72.0,15.0,60.0,6.0,0.0
4472,89.0,0.0,120.0,4.0,0.0
4473,72.0,85.0,240.0,6.0,0.0
4474,80.0,100.0,120.0,5.0,0.0
4475,56.0,0.0,240.0,7.0,0.0
4476,82.0,35.0,90.0,5.0,0.0
4477,90.0,0.0,90.0,4.0,0.0
4478,78.0,0.0,90.0,5.0,0.0
4479,87.0,5.0,90.0,4.0,0.0
4480,56.0,0.0,60.0,7.0,0.0
4481,72.0,135.0,60.0,6.0,0.0
4482,87.0,0.0,120.0,4.0,0.0
4483,56.0,0.0,240.0,7.0,0.0
4484,78.0,100.0,120.0,5.0,0.0
4485,72.0,85.0,240.0,6.0,0.0
4486,80.0,0.0,90.0,5.0,0.0
4487,89.0,35.0,90.0,4.0,0.0
4488,85.0,5.0,90.0,4.0,0.0
4489,77.0,0.0,90.0,5.0,0.0
4490,56.0,135.0,60.0,7.0,0.0
4491,72.0,0.0,60.0,6.0,0.0
4492,73.0,0.0,120.0,6.0,0.0
4493,77.0,100.0,120.0,5.0,0.0
4494,85.0,140.0,450.0,4.0,0.0
4495,58.0,85.0,240.0,7.0,0.0
4496,80.0,0.0,90.0,5.0,0.0
4497,77.0,35.0,90.0,6.0,0.0
4498,75.0,0.0,90.0,6.0,0.0
4499,78.0,5.0,90.0,5.0,0.0
4500,51.0,115.0,60.0,7.0,0.0
4501,53.0,0.0,240.0,7.0,0.0
4502,73.0,85.0,240.0,6.0,0.0
4503,80.0,0.0,240.0,5.0,0.0
4504,78.0,15.0,120.0,4.0,0.0
4505,77.0,5.0,90.0,4.0,0.0
4506,73.0,135.0,60.0,6.0,0.0
4507,82.0,0.0,60.0,5.0,0.0
4508,54.0,0.0,60.0,7.0,0.0
4509,75.0,100.0,120.0,4.0,0.0
4510,80.0,85.0,240.0,5.0,0.0
4511,68.0,0.0,240.0,6.0,0.0
4512,56.0,0.0,240.0,7.0,0.0
4513,85.0,35.0,90.0,4.0,0.0
4514,84.0,5.0,90.0,4.0,0.0
4515,68.0,135.0,60.0,6.0,0.0
4516,56.0,0.0,60.0,7.0,0.0
4517,78.0,0.0,60.0,5.0,0.0
4518,49.0,0.0,120.0,14.0,0.0
4519,85.0,0.0,120.0,0.0,0.0
4520,68.0,0.0,120.0,6.0,0.0
4521,80.0,0.0,120.0,1.0,0.0
4522,49.0,0.0,120.0,3.0,0.0
4523,49.0,90.0,240.0,7.0,0.0
4524,49.0,0.0,120.0,13.0,0.0
4525,73.0,0.0,120.0,2.0,0.0
4526,85.0,0.0,120.0,4.0,0.0
4527,77.0,135.0,120.0,5.0,0.0
4528,65.0,0.0,60.0,13.0,0.0
4529,65.0,0.0,60.0,14.0,0.0
4530,68.0,135.0,60.0,12.0,0.0
4531,68.0,0.0,60.0,10.0,0.0
4532,68.0,0.0,60.0,11.0,0.0
4533,68.0,0.0,60.0,7.0,0.0
4534,53.0,0.0,120.0,13.0,0.0
4535,80.0,100.0,120.0,4.0,0.0
4536,68.0,0.0,240.0,12.0,0.0
4537,68.0,85.0,240.0,11.0,0.0
4538,68.0,0.0,120.0,6.0,0.0
4539,73.0,0.0,120.0,5.0,0.0
4540,65.0,0.0,120.0,13.0,0.0
4541,68.0,0.0,240.0,10.0,0.0
4542,65.0,0.0,120.0,14.0,0.0
4543,53.0,0.0,120.0,14.0,0.0
4544,68.0,0.0,120.0,7.0,0.0
4545,66.0,35.0,90.0,14.0,0.0
4546,66.0,0.0,90.0,13.0,0.0
4547,70.0,0.0,90.0,7.0,0.0
4548,63.0,0.0,90.0,13.0,0.0
4549,66.0,0.0,90.0,7.0,0.0
4550,63.0,5.0,90.0,14.0,0.0
4551,68.0,0.0,60.0,10.0,0.0
4552,68.0,0.0,60.0,11.0,0.0
4553,68.0,135.0,60.0,12.0,0.0
4554,80.0,0.0,120.0,5.0,0.0
4555,56.0,0.0,120.0,14.0,0.0
4556,68.0,0.0,240.0,10.0,0.0
4557,56.0,0.0,120.0,13.0,0.0
4558,63.0,0.0,120.0,14.0,0.0
4559,84.0,0.0,120.0,4.0,0.0
4560,68.0,85.0,240.0,12.0,0.0
4561,66.0,100.0,120.0,7.0,0.0
4562,75.0,0.0,120.0,6.0,0.0
4563,68.0,0.0,240.0,11.0,0.0
4564,63.0,0.0,120.0,13.0,0.0
4565,65.0,35.0,90.0,13.0,0.0
4566,68.0,0.0,90.0,7.0,0.0
4567,65.0,0.0,90.0,14.0,0.0
4568,65.0,5.0,90.0,7.0,0.0
4569,61.0,0.0,90.0,13.0,0.0
4570,61.0,0.0,90.0,14.0,0.0
4571,68.0,0.0,60.0,11.0,0.0
4572,68.0,0.0,60.0,12.0,0.0
4573,68.0,135.0,60.0,10.0,0.0
4574,61.0,0.0,120.0,13.0,0.0
4575,68.0,0.0,240.0,12.0,0.0
4576,85.0,0.0,120.0,1.0,0.0
4577,68.0,85.0,240.0,11.0,0.0
4578,89.0,0.0,120.0,0.0,0.0
4579,77.0,120.0,120.0,6.0,0.0
4580,80.0,0.0,120.0,2.0,0.0
4581,61.0,0.0,120.0,14.0,0.0
4582,65.0,0.0,120.0,7.0,0.0
4583,68.0,0.0,240.0,10.0,0.0
4584,80.0,0.0,120.0,5.0,0.0
4585,49.0,0.0,120.0,3.0,0.0
4586,85.0,0.0,120.0,4.0,0.0
4587,63.0,15.0,120.0,13.0,0.0
4588,63.0,0.0,120.0,14.0,0.0
4589,66.0,0.0,120.0,7.0,0.0
4590,65.0,0.0,90.0,13.0,0.0
4591,68.0,5.0,90.0,7.0,0.0
4592,65.0,0.0,90.0,14.0,0.0
4593,68.0,135.0,60.0,11.0,0.0
4594,68.0,0.0,60.0,10.0,0.0
4595,68.0,0.0,60.0,12.0,0.0
4596,65.0,0.0,120.0,13.0,0.0
4597,53.0,0.0,120.0,13.0,0.0
4598,68.0,0.0,120.0,7.0,0.0
4599,68.0,85.0,240.0,12.0,0.0
4600,73.0,0.0,120.0,5.0,0.0
4601,68.0,0.0,240.0,10.0,0.0
4602,80.0,0.0,120.0,6.0,0.0
4603,53.0,0.0,120.0,14.0,0.0
4604,68.0,0.0,240.0,11.0,0.0
4605,80.0,0.0,120.0,4.0,0.0
4606,65.0,100.0,120.0,14.0,0.0
4607,70.0,0.0,90.0,7.0,0.0
4608,66.0,0.0,90.0,13.0,0.0
4609,66.0,35.0,90.0,14.0,0.0
4610,63.0,0.0,90.0,14.0,0.0
4611,66.0,5.0,90.0,7.0,0.0
4612,63.0,0.0,90.0,13.0,0.0
4613,68.0,0.0,60.0,10.0,0.0
4614,68.0,0.0,60.0,12.0,0.0
4615,68.0,135.0,60.0,11.0,0.0
4616,56.0,0.0,120.0,14.0,0.0
4617,56.0,0.0,120.0,13.0,0.0
4618,63.0,0.0,120.0,13.0,0.0
4619,68.0,0.0,240.0,11.0,0.0
4620,63.0,0.0,120.0,14.0,0.0
4621,84.0,0.0,120.0,4.0,0.0
4622,68.0,100.0,120.0,6.0,0.0
4623,68.0,0.0,240.0,10.0,0.0
4624,68.0,85.0,240.0,12.0,0.0
4625,75.0,0.0,120.0,5.0,0.0
4626,66.0,0.0,120.0,7.0,0.0
4627,68.0,0.0,90.0,7.0,0.0
4628,65.0,35.0,90.0,14.0,0.0
4629,65.0,0.0,90.0,13.0,0.0
4630,65.0,0.0,90.0,7.0,0.0
4631,61.0,0.0,90.0,13.0,0.0
4632,61.0,5.0,90.0,14.0,0.0
4633,68.0,0.0,60.0,10.0,0.0
4634,68.0,135.0,60.0,11.0,0.0
4635,68.0,0.0,60.0,12.0,0.0
4636,65.0,0.0,120.0,7.0,0.0
4637,77.0,0.0,120.0,5.0,0.0
4638,68.0,100.0,120.0,12.0,0.0
4639,85.0,85.0,240.0,4.0,0.0
4640,61.0,0.0,120.0,13.0,0.0
4641,49.0,0.0,120.0,13.0,0.0
4642,49.0,0.0,120.0,14.0,0.0
4643,61.0,0.0,120.0,14.0,0.0
4644,89.0,0.0,120.0,1.0,0.0
4645,68.0,0.0,120.0,11.0,0.0
4646,68.0,0.0,120.0,6.0,0.0
4647,68.0,0.0,240.0,10.0,0.0
4648,49.0,0.0,120.0,3.0,0.0
4649,85.0,0.0,120.0,2.0,0.0
4650,92.0,0.0,120.0,0.0,0.0
4651,75.0,0.0,90.0,5.0,0.0
4652,72.0,0.0,90.0,12.0,0.0
4653,72.0,0.0,90.0,6.0,0.0
4654,75.0,35.0,90.0,11.0,0.0
4655,73.0,0.0,90.0,5.0,0.0
4656,70.0,0.0,90.0,12.0,0.0
4657,73.0,0.0,90.0,11.0,0.0
4658,70.0,5.0,90.0,6.0,0.0
4659,80.0,0.0,60.0,10.0,0.0
4660,80.0,135.0,60.0,4.0,0.0
4661,72.0,85.0,240.0,12.0,0.0
4662,75.0,0.0,240.0,5.0,0.0
4663,75.0,0.0,240.0,11.0,0.0
4664,80.0,100.0,120.0,10.0,0.0
4665,80.0,0.0,120.0,4.0,0.0
4666,72.0,0.0,240.0,6.0,0.0
4667,82.0,0.0,90.0,4.0,0.0
4668,82.0,35.0,90.0,10.0,0.0
4669,78.0,5.0,90.0,10.0,0.0
4670,78.0,0.0,90.0,4.0,0.0
4671,70.0,135.0,60.0,12.0,0.0
4672,73.0,0.0,60.0,5.0,0.0
4673,73.0,0.0,60.0,11.0,0.0
4674,70.0,0.0,60.0,6.0,0.0
4675,72.0,0.0,240.0,6.0,0.0
4676,75.0,85.0,240.0,11.0,0.0
4677,75.0,0.0,240.0,5.0,0.0
4678,78.0,0.0,120.0,4.0,0.0
4679,78.0,100.0,120.0,10.0,0.0
4680,72.0,0.0,240.0,12.0,0.0
4681,80.0,0.0,90.0,4.0,0.0
4682,80.0,35.0,90.0,10.0,0.0
4683,77.0,5.0,90.0,4.0,0.0
4684,77.0,0.0,90.0,10.0,0.0
4685,68.0,135.0,60.0,6.0,0.0
4686,68.0,0.0,60.0,12.0,0.0
4687,72.0,0.0,60.0,11.0,0.0
4688,72.0,0.0,60.0,5.0,0.0
4689,73.0,120.0,120.0,5.0,0.0
4690,73.0,85.0,240.0,6.0,0.0
4691,73.0,0.0,120.0,11.0,0.0
4692,61.0,0.0,120.0,12.0,0.0
4693,77.0,0.0,120.0,10.0,0.0
4694,77.0,0.0,120.0,4.0,0.0
4695,63.0,0.0,120.0,12.0,0.0
4696,78.0,0.0,120.0,4.0,0.0
4697,72.0,0.0,120.0,5.0,0.0
4698,78.0,0.0,120.0,10.0,0.0
4699,72.0,15.0,120.0,11.0,0.0
4700,73.0,0.0,90.0,11.0,0.0
4701,80.0,0.0,120.0,10.0,0.0
4702,65.0,0.0,90.0,12.0,0.0
4703,80.0,120.0,120.0,4.0,0.0
4704,73.0,5.0,90.0,5.0,0.0
4705,61.0,0.0,60.0,13.0,0.0
4706,80.0,15.0,60.0,6.0,0.0
4707,61.0,0.0,60.0,14.0,0.0
4708,61.0,0.0,60.0,7.0,0.0
4709,77.0,0.0,240.0,6.0,0.0
4710,61.0,0.0,120.0,13.0,0.0
4711,61.0,0.0,120.0,7.0,0.0
4712,82.0,100.0,120.0,4.0,0.0
4713,73.0,0.0,240.0,5.0,0.0
4714,65.0,0.0,240.0,12.0,0.0
4715,82.0,0.0,120.0,10.0,0.0
4716,61.0,0.0,120.0,14.0,0.0
4717,73.0,85.0,240.0,11.0,0.0
4718,83.0,0.0,90.0,4.0,0.0
4719,83.0,0.0,90.0,10.0,0.0
4720,63.0,0.0,90.0,14.0,0.0
4721,63.0,35.0,90.0,7.0,0.0
4722,63.0,0.0,90.0,13.0,0.0
4723,60.0,0.0,90.0,13.0,0.0
4724,80.0,0.0,90.0,10.0,0.0
4725,60.0,0.0,90.0,7.0,0.0
4726,60.0,5.0,90.0,14.0,0.0
4727,80.0,0.0,90.0,4.0,0.0
4728,77.0,135.0,60.0,5.0,0.0
4729,77.0,0.0,60.0,11.0,0.0
4730,77.0,0.0,60.0,6.0,0.0
4731,68.0,0.0,60.0,12.0,0.0
4732,68.0,85.0,240.0,12.0,0.0
4733,75.0,0.0,240.0,6.0,0.0
4734,80.0,100.0,120.0,10.0,0.0
4735,60.0,0.0,120.0,14.0,0.0
4736,60.0,0.0,120.0,13.0,0.0
4737,60.0,0.0,120.0,7.0,0.0
4738,75.0,0.0,240.0,11.0,0.0
4739,80.0,0.0,120.0,4.0,0.0
4740,80.0,0.0,240.0,5.0,0.0
4741,61.0,0.0,90.0,14.0,0.0
4742,61.0,0.0,90.0,7.0,0.0
4743,82.0,35.0,90.0,4.0,0.0
4744,82.0,0.0,90.0,10.0,0.0
4745,61.0,0.0,90.0,13.0,0.0
4746,58.0,5.0,90.0,13.0,0.0
4747,58.0,0.0,90.0,7.0,0.0
4748,58.0,0.0,90.0,14.0,0.0
4749,78.0,0.0,90.0,10.0,0.0
4750,78.0,0.0,90.0,4.0,0.0
4751,70.0,0.0,60.0,6.0,0.0
4752,73.0,0.0,60.0,5.0,0.0
4753,73.0,0.0,60.0,11.0,0.0
4754,70.0,135.0,60.0,12.0,0.0
4755,73.0,0.0,120.0,5.0,0.0
4756,70.0,0.0,240.0,12.0,0.0
4757,78.0,0.0,240.0,10.0,0.0
4758,58.0,0.0,120.0,13.0,0.0
4759,70.0,0.0,240.0,6.0,0.0
4760,58.0,0.0,120.0,7.0,0.0
4761,73.0,120.0,120.0,11.0,0.0
4762,78.0,85.0,240.0,4.0,0.0
4763,58.0,0.0,120.0,14.0,0.0
4764,60.0,0.0,120.0,14.0,0.0
4765,75.0,15.0,120.0,5.0,0.0
4766,75.0,0.0,120.0,11.0,0.0
4767,60.0,0.0,120.0,13.0,0.0
4768,60.0,0.0,120.0,7.0,0.0
4769,61.0,0.0,120.0,14.0,0.0
4770,61.0,0.0,120.0,13.0,0.0
4771,61.0,120.0,120.0,7.0,0.0
4772,73.0,0.0,90.0,11.0,0.0
4773,73.0,5.0,90.0,5.0,0.0
4774,78.0,0.0,60.0,10.0,0.0
4775,70.0,0.0,60.0,12.0,0.0
4776,70.0,15.0,60.0,6.0,0.0
4777,78.0,0.0,60.0,4.0,0.0
4778,72.0,0.0,120.0,5.0,0.0
4779,72.0,0.0,120.0,11.0,0.0
4780,78.0,0.0,240.0,4.0,0.0
4781,78.0,85.0,240.0,10.0,0.0
4782,66.0,100.0,120.0,6.0,0.0
4783,63.0,0.0,120.0,14.0,0.0
4784,66.0,0.0,120.0,12.0,0.0
4785,63.0,0.0,120.0,7.0,0.0
4786,63.0,0.0,120.0,13.0,0.0
4787,65.0,0.0,90.0,13.0,0.0
4788,65.0,0.0,90.0,14.0,0.0
4789,73.0,20.0,90.0,11.0,0.0
4790,65.0,0.0,90.0,7.0,0.0
4791,68.0,0.0,120.0,6.0,0.0
4792,68.0,15.0,120.0,12.0,0.0
4793,73.0,0.0,90.0,5.0,0.0
4794,61.0,0.0,90.0,13.0,0.0
4795,70.0,0.0,90.0,5.0,0.0
4796,70.0,0.0,90.0,6.0,0.0
4797,61.0,5.0,90.0,7.0,0.0
4798,70.0,0.0,90.0,12.0,0.0
4799,61.0,0.0,90.0,14.0,0.0
4800,70.0,0.0,90.0,11.0,0.0
4801,78.0,0.0,60.0,10.0,0.0
4802,78.0,135.0,60.0,4.0,0.0
4803,61.0,0.0,120.0,7.0,0.0
4804,61.0,0.0,120.0,13.0,0.0
4805,78.0,0.0,240.0,4.0,0.0
4806,75.0,0.0,240.0,6.0,0.0
4807,61.0,0.0,120.0,14.0,0.0
4808,70.0,0.0,120.0,5.0,0.0
4809,78.0,85.0,240.0,10.0,0.0
4810,63.0,0.0,240.0,12.0,0.0
4811,70.0,100.0,120.0,11.0,0.0
4812,63.0,0.0,90.0,13.0,0.0
4813,72.0,35.0,90.0,11.0,0.0
4814,72.0,0.0,90.0,5.0,0.0
4815,63.0,0.0,90.0,14.0,0.0
4816,63.0,0.0,90.0,7.0,0.0
4817,68.0,0.0,90.0,11.0,0.0
4818,60.0,0.0,90.0,7.0,0.0
4819,60.0,5.0,90.0,14.0,0.0
4820,60.0,0.0,90.0,13.0,0.0
4821,68.0,0.0,90.0,5.0,0.0
4822,75.0,0.0,60.0,6.0,0.0
4823,78.0,135.0,60.0,4.0,0.0
4824,63.0,0.0,60.0,12.0,0.0
4825,78.0,0.0,60.0,10.0,0.0
4826,60.0,90.0,240.0,7.0,0.0
4827,78.0,120.0,120.0,4.0,0.0
4828,63.0,0.0,360.0,12.0,0.0
4829,68.0,0.0,240.0,5.0,0.0
4830,60.0,0.0,240.0,13.0,0.0
4831,75.0,0.0,360.0,6.0,0.0
4832,78.0,0.0,120.0,10.0,0.0
4833,60.0,0.0,240.0,14.0,0.0
4834,68.0,0.0,240.0,11.0,0.0
4835,75.0,0.0,120.0,4.0,0.0
4836,75.0,15.0,120.0,10.0,0.0
4837,77.0,120.0,120.0,4.0,0.0
4838,77.0,0.0,120.0,10.0,0.0
4839,80.0,0.0,60.0,11.0,0.0
4840,60.0,0.0,60.0,14.0,0.0
4841,60.0,0.0,60.0,13.0,0.0
4842,80.0,0.0,60.0,5.0,0.0
4843,60.0,15.0,60.0,7.0,0.0
4844,75.0,0.0,240.0,11.0,0.0
4845,78.0,0.0,120.0,4.0,0.0
4846,78.0,100.0,120.0,10.0,0.0
4847,60.0,0.0,240.0,13.0,0.0
4848,75.0,0.0,240.0,5.0,0.0
4849,60.0,0.0,240.0,14.0,0.0
4850,60.0,85.0,240.0,7.0,0.0
4851,87.0,0.0,90.0,4.0,0.0
4852,87.0,35.0,90.0,10.0,0.0
4853,68.0,0.0,150.0,12.0,0.0
4854,68.0,0.0,150.0,6.0,0.0
4855,77.0,0.0,90.0,10.0,0.0
4856,77.0,5.0,90.0,4.0,0.0
4857,60.0,0.0,60.0,13.0,0.0
4858,60.0,135.0,60.0,7.0,0.0
4859,72.0,0.0,60.0,11.0,0.0
4860,60.0,0.0,60.0,14.0,0.0
4861,72.0,0.0,60.0,5.0,0.0
4862,75.0,85.0,240.0,6.0,0.0
4863,68.0,0.0,240.0,5.0,0.0
4864,60.0,0.0,240.0,7.0,0.0
4865,60.0,0.0,240.0,14.0,0.0
4866,75.0,0.0,240.0,12.0,0.0
4867,68.0,0.0,240.0,11.0,0.0
4868,78.0,0.0,120.0,10.0,0.0
4869,60.0,0.0,240.0,13.0,0.0
4870,78.0,120.0,120.0,4.0,0.0
4871,77.0,15.0,120.0,4.0,0.0
4872,77.0,0.0,120.0,10.0,0.0
4873,75.0,0.0,90.0,10.0,0.0
4874,75.0,5.0,90.0,4.0,0.0
4875,68.0,135.0,60.0,5.0,0.0
4876,75.0,0.0,60.0,12.0,0.0
4877,75.0,0.0,60.0,6.0,0.0
4878,60.0,0.0,60.0,13.0,0.0
4879,60.0,0.0,60.0,7.0,0.0
4880,60.0,0.0,60.0,14.0,0.0
4881,68.0,0.0,60.0,11.0,0.0
4882,61.0,0.0,240.0,14.0,0.0
4883,73.0,0.0,120.0,12.0,0.0
4884,77.0,100.0,120.0,10.0,0.0
4885,73.0,0.0,120.0,6.0,0.0
4886,77.0,0.0,120.0,4.0,0.0
4887,61.0,85.0,240.0,7.0,0.0
4888,68.0,0.0,120.0,11.0,0.0
4889,68.0,0.0,120.0,5.0,0.0
4890,61.0,0.0,240.0,13.0,0.0
4891,77.0,0.0,120.0,6.0,0.0
4892,77.0,0.0,120.0,12.0,0.0
4893,73.0,0.0,120.0,11.0,0.0
4894,80.0,0.0,90.0,4.0,0.0
4895,73.0,15.0,120.0,5.0,0.0
4896,80.0,20.0,90.0,10.0,0.0
4897,78.0,0.0,90.0,10.0,0.0
4898,75.0,5.0,90.0,11.0,0.0
4899,75.0,0.0,90.0,12.0,0.0
4900,75.0,0.0,90.0,6.0,0.0
4901,78.0,0.0,90.0,4.0,0.0
4902,75.0,0.0,90.0,5.0,0.0
4903,56.0,0.0,60.0,13.0,0.0
4904,56.0,0.0,60.0,14.0,0.0
4905,56.0,135.0,60.0,7.0,0.0
4906,73.0,0.0,120.0,12.0,0.0
4907,56.0,0.0,120.0,14.0,0.0
4908,77.0,100.0,120.0,5.0,0.0
4909,80.0,0.0,840.0,4.0,0.0
4910,80.0,0.0,840.0,10.0,0.0
4911,73.0,0.0,120.0,6.0,0.0
4912,77.0,0.0,120.0,11.0,0.0
4913,56.0,0.0,120.0,7.0,0.0
4914,56.0,0.0,120.0,13.0,0.0
4915,78.0,0.0,90.0,11.0,0.0
4916,58.0,0.0,90.0,14.0,0.0
4917,75.0,0.0,90.0,6.0,0.0
4918,78.0,120.0,90.0,5.0,0.0
4919,75.0,0.0,90.0,12.0,0.0
4920,58.0,0.0,90.0,7.0,0.0
4921,58.0,0.0,90.0,13.0,0.0
4922,72.0,0.0,90.0,6.0,0.0
4923,75.0,0.0,90.0,11.0,0.0
4924,75.0,0.0,90.0,5.0,0.0
4925,54.0,140.0,90.0,7.0,0.0
4926,72.0,0.0,90.0,12.0,0.0
4927,54.0,0.0,90.0,14.0,0.0
4928,54.0,0.0,90.0,13.0,0.0
4929,54.0,0.0,120.0,7.0,0.0
4930,72.0,0.0,120.0,6.0,0.0
4931,75.0,0.0,120.0,11.0,0.0
4932,54.0,0.0,120.0,13.0,0.0
4933,75.0,100.0,120.0,5.0,0.0
4934,54.0,0.0,120.0,14.0,0.0
4935,72.0,0.0,120.0,12.0,0.0
4936,73.0,0.0,90.0,6.0,0.0
4937,73.0,120.0,90.0,12.0,0.0
4938,56.0,0.0,90.0,14.0,0.0
4939,56.0,0.0,90.0,7.0,0.0
4940,77.0,0.0,90.0,5.0,0.0
4941,77.0,0.0,90.0,11.0,0.0
4942,56.0,0.0,90.0,13.0,0.0
4943,68.0,140.0,90.0,12.0,0.0
4944,73.0,0.0,90.0,5.0,0.0
4945,73.0,0.0,90.0,11.0,0.0
4946,53.0,0.0,90.0,7.0,0.0
4947,68.0,0.0,90.0,6.0,0.0
4948,53.0,0.0,90.0,14.0,0.0
4949,53.0,0.0,90.0,13.0,0.0
4950,68.0,0.0,240.0,6.0,0.0
4951,73.0,85.0,240.0,11.0,0.0
4952,53.0,0.0,120.0,14.0,0.0
4953,53.0,120.0,120.0,13.0,0.0
4954,53.0,0.0,120.0,7.0,0.0
4955,73.0,0.0,240.0,5.0,0.0
4956,68.0,0.0,240.0,12.0,0.0
4957,54.0,0.0,120.0,7.0,0.0
4958,54.0,0.0,120.0,14.0,0.0
4959,82.0,0.0,120.0,10.0,0.0
4960,54.0,15.0,120.0,13.0,0.0
4961,82.0,0.0,120.0,4.0,0.0
4962,56.0,120.0,120.0,7.0,0.0
4963,80.0,5.0,90.0,10.0,0.0
4964,56.0,0.0,120.0,13.0,0.0
4965,56.0,0.0,120.0,14.0,0.0
4966,80.0,0.0,90.0,4.0,0.0
4967,65.0,15.0,60.0,12.0,0.0
4968,77.0,0.0,60.0,6.0,0.0
4969,73.0,0.0,60.0,11.0,0.0
4970,73.0,0.0,60.0,5.0,0.0
4971,73.0,0.0,240.0,11.0,0.0
4972,58.0,100.0,120.0,13.0,0.0
4973,58.0,0.0,120.0,7.0,0.0
4974,78.0,85.0,240.0,6.0,0.0
4975,73.0,0.0,240.0,5.0,0.0
4976,61.0,0.0,240.0,12.0,0.0
4977,78.0,0.0,120.0,4.0,0.0
4978,78.0,0.0,120.0,10.0,0.0
4979,58.0,0.0,120.0,14.0,0.0
4980,80.0,0.0,90.0,4.0,0.0
4981,59.0,0.0,90.0,7.0,0.0
4982,59.0,35.0,90.0,14.0,0.0
4983,80.0,0.0,90.0,10.0,0.0
4984,59.0,0.0,90.0,13.0,0.0
4985,56.0,0.0,90.0,14.0,0.0
4986,77.0,5.0,90.0,4.0,0.0
4987,77.0,0.0,90.0,10.0,0.0
4988,56.0,0.0,90.0,7.0,0.0
4989,56.0,0.0,90.0,13.0,0.0
4990,65.0,0.0,60.0,12.0,0.0
4991,73.0,0.0,60.0,11.0,0.0
4992,68.0,0.0,60.0,6.0,0.0
4993,73.0,135.0,60.0,5.0,0.0
4994,73.0,0.0,240.0,11.0,0.0
4995,56.0,0.0,120.0,14.0,0.0
4996,68.0,85.0,240.0,12.0,0.0
4997,77.0,0.0,120.0,10.0,0.0
4998,56.0,0.0,120.0,13.0,0.0
4999,68.0,0.0,240.0,6.0,0.0
5000,56.0,100.0,120.0,7.0,0.0
5001,73.0,0.0,240.0,5.0,0.0
5002,77.0,0.0,120.0,4.0,0.0
5003,78.0,0.0,90.0,10.0,0.0
5004,58.0,0.0,90.0,7.0,0.0
5005,58.0,0.0,90.0,14.0,0.0
5006,78.0,35.0,90.0,4.0,0.0
5007,58.0,0.0,90.0,13.0,0.0
5008,55.0,0.0,90.0,14.0,0.0
5009,55.0,0.0,90.0,7.0,0.0
5010,55.0,0.0,90.0,13.0,0.0
5011,75.0,0.0,90.0,4.0,0.0
5012,75.0,5.0,90.0,10.0,0.0
5013,70.0,0.0,60.0,6.0,0.0
5014,73.0,0.0,60.0,5.0,0.0
5015,70.0,0.0,60.0,12.0,0.0
5016,73.0,135.0,60.0,11.0,0.0
5017,70.0,0.0,360.0,12.0,0.0
5018,55.0,0.0,240.0,7.0,0.0
5019,55.0,0.0,240.0,14.0,0.0
5020,55.0,90.0,240.0,13.0,0.0
5021,70.0,0.0,360.0,6.0,0.0
5022,75.0,120.0,1200.0,4.0,0.0
5023,73.0,120.0,120.0,5.0,0.0
5024,73.0,0.0,120.0,11.0,0.0
5025,75.0,0.0,1200.0,10.0,0.0
5026,70.0,15.0,120.0,5.0,0.0
5027,70.0,0.0,120.0,11.0,0.0
5028,72.0,0.0,120.0,5.0,0.0
5029,72.0,120.0,120.0,11.0,0.0
5030,55.0,0.0,60.0,13.0,0.0
5031,55.0,0.0,60.0,14.0,0.0
5032,55.0,15.0,60.0,7.0,0.0
5033,73.0,100.0,120.0,5.0,0.0
5034,55.0,85.0,240.0,7.0,0.0
5035,73.0,0.0,120.0,11.0,0.0
5036,55.0,0.0,240.0,14.0,0.0
5037,55.0,0.0,240.0,13.0,0.0
5038,82.0,0.0,90.0,5.0,0.0
5039,82.0,35.0,90.0,11.0,0.0
5040,75.0,0.0,150.0,6.0,0.0
5041,75.0,5.0,150.0,12.0,0.0
5042,72.0,0.0,90.0,5.0,0.0
5043,72.0,0.0,90.0,11.0,0.0
5044,55.0,0.0,60.0,7.0,0.0
5045,55.0,0.0,60.0,13.0,0.0
5046,55.0,135.0,60.0,14.0,0.0
5047,70.0,0.0,240.0,6.0,0.0
5048,73.0,120.0,120.0,11.0,0.0
5049,55.0,0.0,240.0,7.0,0.0
5050,70.0,85.0,240.0,12.0,0.0
5051,55.0,0.0,240.0,13.0,0.0
5052,73.0,0.0,120.0,5.0,0.0
5053,55.0,0.0,240.0,14.0,0.0
5054,72.0,15.0,120.0,5.0,0.0
5055,72.0,0.0,120.0,11.0,0.0
5056,70.0,5.0,90.0,11.0,0.0
5057,70.0,0.0,90.0,5.0,0.0
5058,55.0,0.0,60.0,14.0,0.0
5059,55.0,135.0,60.0,13.0,0.0
5060,63.0,0.0,60.0,12.0,0.0
5061,55.0,0.0,60.0,7.0,0.0
5062,75.0,0.0,60.0,6.0,0.0
5063,68.0,0.0,360.0,6.0,0.0
5064,56.0,0.0,240.0,13.0,0.0
5065,72.0,0.0,120.0,11.0,0.0
5066,68.0,0.0,360.0,12.0,0.0
5067,56.0,70.0,270.0,7.0,0.0
5068,72.0,0.0,120.0,5.0,0.0
5069,56.0,15.0,240.0,14.0,0.0
5070,77.0,0.0,120.0,4.0,0.0
5071,68.0,15.0,120.0,5.0,0.0
5072,77.0,0.0,120.0,10.0,0.0
5073,68.0,0.0,120.0,11.0,0.0
5074,78.0,5.0,90.0,4.0,0.0
5075,70.0,0.0,120.0,11.0,0.0
5076,78.0,0.0,90.0,10.0,0.0
5077,70.0,0.0,120.0,5.0,0.0
5078,54.0,0.0,60.0,14.0,0.0
5079,54.0,15.0,60.0,13.0,0.0
5080,54.0,120.0,90.0,7.0,0.0
5081,53.0,0.0,240.0,13.0,0.0
5082,80.0,0.0,120.0,10.0,0.0
5083,53.0,85.0,240.0,14.0,0.0
5084,53.0,0.0,240.0,7.0,0.0
5085,71.0,0.0,120.0,5.0,0.0
5086,71.0,0.0,120.0,11.0,0.0
5087,80.0,100.0,120.0,4.0,0.0
5088,80.0,0.0,90.0,5.0,0.0
5089,77.0,15.0,120.0,10.0,0.0
5090,80.0,20.0,90.0,11.0,0.0
5091,77.0,0.0,120.0,4.0,0.0
5092,73.0,0.0,150.0,12.0,0.0
5093,73.0,0.0,150.0,6.0,0.0
5094,70.0,0.0,90.0,5.0,0.0
5095,73.0,0.0,90.0,10.0,0.0
5096,73.0,5.0,90.0,4.0,0.0
5097,70.0,0.0,90.0,11.0,0.0
5098,53.0,0.0,60.0,13.0,0.0
5099,53.0,135.0,60.0,7.0,0.0
5100,53.0,0.0,60.0,14.0,0.0
5101,53.0,85.0,240.0,14.0,0.0
5102,71.0,0.0,120.0,11.0,0.0
5103,85.0,20.0,1530.0,4.0,0.0
5104,68.0,0.0,240.0,6.0,0.0
5105,53.0,0.0,240.0,13.0,0.0
5106,68.0,0.0,240.0,12.0,0.0
5107,85.0,0.0,1530.0,10.0,0.0
5108,71.0,120.0,120.0,5.0,0.0
5109,53.0,0.0,240.0,7.0,0.0
5110,70.0,15.0,120.0,5.0,0.0
5111,70.0,0.0,120.0,11.0,0.0
5112,68.0,5.0,90.0,11.0,0.0
5113,68.0,0.0,90.0,5.0,0.0
5114,73.0,135.0,60.0,6.0,0.0
5115,61.0,0.0,60.0,12.0,0.0
5116,53.0,0.0,60.0,7.0,0.0
5117,53.0,0.0,60.0,13.0,0.0
5118,53.0,0.0,60.0,14.0,0.0
5119,54.0,0.0,120.0,13.0,0.0
5120,54.0,120.0,120.0,7.0,0.0
5121,70.0,0.0,240.0,5.0,0.0
5122,66.0,0.0,240.0,12.0,0.0
5123,66.0,90.0,240.0,6.0,0.0
5124,70.0,0.0,240.0,11.0,0.0
5125,54.0,0.0,120.0,14.0,0.0
5126,51.0,0.0,120.0,14.0,0.0
5127,51.0,15.0,120.0,7.0,0.0
5128,51.0,0.0,120.0,13.0,0.0
5129,53.0,120.0,120.0,13.0,0.0
5130,53.0,0.0,120.0,7.0,0.0
5131,53.0,0.0,120.0,14.0,0.0
5132,82.0,0.0,60.0,5.0,0.0
5133,73.0,15.0,60.0,12.0,0.0
5134,73.0,0.0,60.0,6.0,0.0
5135,82.0,0.0,60.0,11.0,0.0
5136,54.0,0.0,120.0,13.0,0.0
5137,54.0,0.0,120.0,7.0,0.0
5138,82.0,0.0,120.0,11.0,0.0
5139,82.0,0.0,120.0,5.0,0.0
5140,78.0,0.0,240.0,6.0,0.0
5141,78.0,85.0,240.0,12.0,0.0
5142,54.0,100.0,120.0,14.0,0.0
5143,83.0,0.0,90.0,5.0,0.0
5144,83.0,0.0,90.0,11.0,0.0
5145,56.0,35.0,90.0,14.0,0.0
5146,56.0,0.0,90.0,13.0,0.0
5147,56.0,0.0,90.0,7.0,0.0
5148,53.0,5.0,90.0,13.0,0.0
5149,80.0,0.0,90.0,5.0,0.0
5150,80.0,0.0,90.0,11.0,0.0
5151,53.0,0.0,90.0,7.0,0.0
5152,53.0,0.0,90.0,14.0,0.0
5153,73.0,135.0,60.0,6.0,0.0
5154,73.0,0.0,60.0,12.0,0.0
5155,73.0,0.0,240.0,6.0,0.0
5156,53.0,0.0,120.0,7.0,0.0
5157,73.0,85.0,240.0,12.0,0.0
5158,53.0,100.0,120.0,13.0,0.0
5159,53.0,0.0,120.0,14.0,0.0
5160,80.0,0.0,120.0,5.0,0.0
5161,80.0,0.0,120.0,11.0,0.0
5162,82.0,0.0,90.0,5.0,0.0
5163,82.0,0.0,90.0,11.0,0.0
5164,54.0,35.0,90.0,14.0,0.0
5165,54.0,0.0,90.0,13.0,0.0
5166,54.0,0.0,90.0,7.0,0.0
5167,79.0,0.0,90.0,11.0,0.0
5168,51.0,0.0,90.0,7.0,0.0
5169,51.0,0.0,90.0,13.0,0.0
5170,79.0,0.0,90.0,5.0,0.0
5171,51.0,5.0,90.0,14.0,0.0
5172,75.0,0.0,60.0,6.0,0.0
5173,75.0,115.0,60.0,12.0,0.0
5174,51.0,90.0,240.0,7.0,0.0
5175,75.0,0.0,120.0,12.0,0.0
5176,79.0,0.0,120.0,11.0,0.0
5177,79.0,0.0,120.0,5.0,0.0
5178,51.0,0.0,120.0,14.0,0.0
5179,51.0,120.0,120.0,13.0,0.0
5180,75.0,0.0,120.0,6.0,0.0
5181,75.0,0.0,120.0,11.0,0.0
5182,84.0,0.0,120.0,4.0,0.0
5183,84.0,15.0,120.0,10.0,0.0
5184,75.0,0.0,120.0,5.0,0.0
5185,85.0,0.0,120.0,4.0,0.0
5186,85.0,0.0,120.0,10.0,0.0
5187,77.0,120.0,120.0,5.0,0.0
5188,77.0,0.0,120.0,11.0,0.0
5189,63.0,15.0,60.0,7.0,0.0
5190,87.0,0.0,120.0,10.0,0.0
5191,63.0,85.0,240.0,7.0,0.0
5192,63.0,0.0,120.0,13.0,0.0
5193,63.0,0.0,120.0,14.0,0.0
5194,70.0,0.0,120.0,6.0,0.0
5195,79.0,0.0,120.0,11.0,0.0
5196,70.0,0.0,120.0,12.0,0.0
5197,87.0,0.0,120.0,4.0,0.0
5198,79.0,100.0,120.0,5.0,0.0
5199,80.0,0.0,90.0,11.0,0.0
5200,80.0,35.0,90.0,5.0,0.0
5201,89.0,0.0,90.0,4.0,0.0
5202,89.0,0.0,90.0,10.0,0.0
5203,85.0,5.0,90.0,10.0,0.0
5204,85.0,0.0,90.0,4.0,0.0
5205,82.0,0.0,90.0,5.0,0.0
5206,82.0,0.0,90.0,11.0,0.0
5207,63.0,135.0,60.0,7.0,0.0
5208,63.0,0.0,120.0,7.0,0.0
5209,85.0,100.0,120.0,10.0,0.0
5210,51.0,0.0,120.0,14.0,0.0
5211,75.0,0.0,240.0,11.0,0.0
5212,85.0,0.0,120.0,4.0,0.0
5213,67.0,0.0,120.0,12.0,0.0
5214,75.0,85.0,240.0,5.0,0.0
5215,67.0,0.0,120.0,6.0,0.0
5216,51.0,0.0,120.0,13.0,0.0
5217,87.0,0.0,90.0,10.0,0.0
5218,87.0,35.0,90.0,4.0,0.0
5219,84.0,0.0,90.0,10.0,0.0
5220,84.0,5.0,90.0,4.0,0.0
5221,79.0,135.0,60.0,5.0,0.0
5222,79.0,0.0,60.0,11.0,0.0
5223,84.0,0.0,120.0,10.0,0.0
5224,68.0,0.0,120.0,11.0,0.0
5225,84.0,120.0,120.0,4.0,0.0
5226,63.0,0.0,120.0,12.0,0.0
5227,68.0,0.0,120.0,5.0,0.0
5228,56.0,0.0,120.0,13.0,0.0
5229,56.0,0.0,120.0,14.0,0.0
5230,75.0,0.0,120.0,6.0,0.0
5231,72.0,0.0,120.0,5.0,0.0
5232,80.0,0.0,120.0,4.0,0.0
5233,80.0,100.0,120.0,10.0,0.0
5234,72.0,0.0,120.0,11.0,0.0
5235,82.0,120.0,120.0,4.0,0.0
5236,75.0,0.0,90.0,5.0,0.0
5237,75.0,5.0,90.0,11.0,0.0
5238,82.0,0.0,120.0,10.0,0.0
5239,56.0,15.0,60.0,7.0,0.0
5240,56.0,85.0,240.0,7.0,0.0
5241,44.0,0.0,120.0,14.0,0.0
5242,80.0,0.0,120.0,11.0,0.0
5243,44.0,0.0,120.0,13.0,0.0
5244,84.0,0.0,120.0,4.0,0.0
5245,75.0,0.0,120.0,12.0,0.0
5246,75.0,0.0,120.0,6.0,0.0
5247,80.0,100.0,120.0,5.0,0.0
5248,84.0,0.0,120.0,10.0,0.0
5249,85.0,35.0,90.0,4.0,0.0
5250,82.0,0.0,90.0,11.0,0.0
5251,85.0,0.0,90.0,10.0,0.0
5252,82.0,0.0,90.0,5.0,0.0
5253,87.0,5.0,90.0,10.0,0.0
5254,78.0,0.0,90.0,11.0,0.0
5255,78.0,0.0,90.0,5.0,0.0
5256,87.0,0.0,90.0,4.0,0.0
5257,56.0,135.0,60.0,7.0,0.0
5258,56.0,0.0,120.0,14.0,0.0
5259,78.0,0.0,120.0,11.0,0.0
5260,80.0,0.0,240.0,10.0,0.0
5261,72.0,0.0,120.0,12.0,0.0
5262,80.0,85.0,240.0,4.0,0.0
5263,56.0,0.0,120.0,13.0,0.0
5264,78.0,100.0,120.0,5.0,0.0
5265,72.0,0.0,120.0,6.0,0.0
5266,80.0,0.0,90.0,5.0,0.0
5267,80.0,35.0,90.0,11.0,0.0
5268,77.0,0.0,90.0,11.0,0.0
5269,77.0,5.0,90.0,5.0,0.0
5270,84.0,135.0,60.0,4.0,0.0
5271,84.0,0.0,60.0,10.0,0.0
5272,73.0,120.0,120.0,4.0,0.0
5273,61.0,0.0,120.0,14.0,0.0
5274,68.0,0.0,120.0,12.0,0.0
5275,68.0,0.0,120.0,6.0,0.0
5276,73.0,0.0,120.0,10.0,0.0
5277,77.0,0.0,120.0,5.0,0.0
5278,77.0,0.0,120.0,11.0,0.0
5279,61.0,0.0,120.0,13.0,0.0
5280,73.0,100.0,120.0,5.0,0.0
5281,77.0,0.0,120.0,4.0,0.0
5282,77.0,0.0,120.0,10.0,0.0
5283,73.0,0.0,120.0,11.0,0.0
5284,80.0,0.0,90.0,4.0,0.0
5285,75.0,0.0,120.0,11.0,0.0
5286,75.0,120.0,120.0,5.0,0.0
5287,80.0,5.0,90.0,10.0,0.0
5288,61.0,15.0,60.0,7.0,0.0
5289,77.0,0.0,120.0,11.0,0.0
5290,80.0,0.0,120.0,1.0,0.0
5291,77.0,0.0,120.0,5.0,0.0
5292,73.0,0.0,120.0,2.0,0.0
5293,49.0,100.0,120.0,14.0,0.0
5294,85.0,0.0,120.0,4.0,0.0
5295,68.0,0.0,120.0,12.0,0.0
5296,61.0,85.0,240.0,7.0,0.0
5297,85.0,0.0,120.0,10.0,0.0
5298,49.0,0.0,120.0,3.0,0.0
5299,49.0,0.0,120.0,13.0,0.0
5300,68.0,0.0,120.0,6.0,0.0
5301,85.0,0.0,120.0,0.0,0.0
5302,78.0,0.0,90.0,5.0,0.0
5303,87.0,0.0,90.0,4.0,0.0
5304,87.0,35.0,90.0,10.0,0.0
5305,78.0,0.0,90.0,11.0,0.0
5306,80.0,0.0,90.0,5.0,0.0
5307,83.0,0.0,90.0,10.0,0.0
5308,83.0,5.0,90.0,4.0,0.0
5309,80.0,0.0,90.0,11.0,0.0
5310,61.0,135.0,60.0,7.0,0.0
5311,83.0,0.0,120.0,4.0,0.0
5312,73.0,0.0,240.0,11.0,0.0
5313,83.0,0.0,120.0,10.0,0.0
5314,83.0,0.0,120.0,0.0,0.0
5315,61.0,0.0,120.0,7.0,0.0
5316,61.0,0.0,120.0,13.0,0.0
5317,49.0,0.0,120.0,3.0,0.0
5318,73.0,85.0,240.0,5.0,0.0
5319,68.0,0.0,120.0,6.0,0.0
5320,80.0,0.0,120.0,1.0,0.0
5321,65.0,100.0,120.0,12.0,0.0
5322,73.0,0.0,120.0,2.0,0.0
5323,61.0,0.0,120.0,14.0,0.0
5324,85.0,35.0,90.0,4.0,0.0
5325,85.0,0.0,90.0,10.0,0.0
5326,82.0,5.0,90.0,4.0,0.0
5327,82.0,0.0,90.0,10.0,0.0
5328,77.0,0.0,60.0,11.0,0.0
5329,77.0,135.0,60.0,5.0,0.0
5330,61.0,0.0,120.0,12.0,0.0
5331,82.0,0.0,120.0,0.0,0.0
5332,73.0,0.0,120.0,6.0,0.0
5333,66.0,0.0,120.0,11.0,0.0
5334,54.0,120.0,120.0,3.0,0.0
5335,66.0,0.0,120.0,5.0,0.0
5336,78.0,0.0,120.0,1.0,0.0
5337,54.0,0.0,120.0,13.0,0.0
5338,82.0,0.0,120.0,10.0,0.0
5339,73.0,0.0,120.0,2.0,0.0
5340,54.0,0.0,120.0,14.0,0.0
5341,82.0,0.0,120.0,4.0,0.0
5342,70.0,0.0,120.0,11.0,0.0
5343,78.0,100.0,120.0,4.0,0.0
5344,78.0,0.0,120.0,10.0,0.0
5345,70.0,0.0,120.0,5.0,0.0
5346,82.0,0.0,90.0,4.0,0.0
5347,73.0,0.0,90.0,11.0,0.0
5348,73.0,5.0,90.0,5.0,0.0
5349,82.0,0.0,90.0,10.0,0.0
5350,54.0,135.0,60.0,7.0,0.0
5351,78.0,0.0,120.0,5.0,0.0
5352,87.0,0.0,120.0,10.0,0.0
5353,78.0,0.0,120.0,1.0,0.0
5354,51.0,85.0,240.0,7.0,0.0
5355,78.0,0.0,120.0,11.0,0.0
5356,87.0,0.0,120.0,4.0,0.0
5357,87.0,100.0,120.0,0.0,0.0
5358,89.0,35.0,90.0,4.0,0.0
5359,80.0,0.0,90.0,5.0,0.0
5360,80.0,0.0,90.0,11.0,0.0
5361,89.0,0.0,90.0,10.0,0.0
5362,77.0,0.0,90.0,11.0,0.0
5363,77.0,5.0,90.0,5.0,0.0
5364,85.0,0.0,90.0,4.0,0.0
5365,85.0,0.0,90.0,10.0,0.0
5366,51.0,0.0,60.0,7.0,0.0
5367,51.0,0.0,60.0,14.0,0.0
5368,51.0,0.0,60.0,13.0,0.0
5369,66.0,0.0,60.0,6.0,0.0
5370,66.0,135.0,60.0,12.0,0.0
5371,68.0,0.0,240.0,12.0,0.0
5372,80.0,0.0,120.0,1.0,0.0
5373,85.0,100.0,120.0,10.0,0.0
5374,85.0,0.0,120.0,4.0,0.0
5375,77.0,0.0,120.0,11.0,0.0
5376,53.0,0.0,240.0,7.0,0.0
5377,68.0,0.0,240.0,6.0,0.0
5378,77.0,0.0,120.0,5.0,0.0
5379,85.0,0.0,120.0,0.0,0.0
5380,53.0,85.0,240.0,14.0,0.0
5381,53.0,0.0,240.0,13.0,0.0
5382,87.0,0.0,90.0,10.0,0.0
5383,78.0,0.0,90.0,5.0,0.0
5384,87.0,35.0,90.0,4.0,0.0
5385,78.0,0.0,90.0,11.0,0.0
5386,75.0,5.0,90.0,11.0,0.0
5387,75.0,0.0,90.0,5.0,0.0
5388,84.0,0.0,90.0,4.0,0.0
5389,84.0,0.0,90.0,10.0,0.0
5390,54.0,135.0,60.0,14.0,0.0
5391,75.0,0.0,60.0,6.0,0.0
5392,63.0,0.0,60.0,12.0,0.0
5393,54.0,0.0,60.0,13.0,0.0
5394,54.0,0.0,60.0,7.0,0.0
5395,84.0,0.0,120.0,4.0,0.0
5396,68.0,0.0,120.0,12.0,0.0
5397,84.0,0.0,120.0,0.0,0.0
5398,68.0,0.0,120.0,6.0,0.0
5399,80.0,0.0,120.0,1.0,0.0
5400,56.0,0.0,120.0,13.0,0.0
5401,84.0,0.0,120.0,10.0,0.0
5402,75.0,0.0,120.0,5.0,0.0
5403,56.0,85.0,240.0,7.0,0.0
5404,75.0,120.0,120.0,11.0,0.0
5405,56.0,0.0,120.0,14.0,0.0
5406,77.0,0.0,120.0,5.0,0.0
5407,85.0,0.0,120.0,10.0,0.0
5408,85.0,15.0,120.0,4.0,0.0
5409,77.0,0.0,120.0,11.0,0.0
5410,87.0,0.0,90.0,4.0,0.0
5411,78.0,0.0,90.0,11.0,0.0
5412,78.0,0.0,90.0,5.0,0.0
5413,87.0,5.0,90.0,10.0,0.0
5414,54.0,135.0,60.0,7.0,0.0
5415,80.0,0.0,120.0,11.0,0.0
5416,89.0,0.0,120.0,10.0,0.0
5417,89.0,0.0,120.0,0.0,0.0
5418,53.0,85.0,240.0,7.0,0.0
5419,89.0,0.0,120.0,4.0,0.0
5420,80.0,100.0,120.0,5.0,0.0
5421,80.0,0.0,120.0,1.0,0.0
5422,90.0,0.0,90.0,10.0,0.0
5423,82.0,0.0,90.0,5.0,0.0
5424,82.0,0.0,90.0,11.0,0.0
5425,90.0,35.0,90.0,4.0,0.0
5426,78.0,0.0,90.0,5.0,0.0
5427,87.0,0.0,90.0,4.0,0.0
5428,87.0,0.0,90.0,10.0,0.0
5429,78.0,5.0,90.0,11.0,0.0
5430,68.0,0.0,60.0,6.0,0.0
5431,53.0,0.0,60.0,13.0,0.0
5432,53.0,0.0,60.0,7.0,0.0
5433,53.0,135.0,60.0,14.0,0.0
5434,68.0,0.0,60.0,12.0,0.0
5435,87.0,0.0,120.0,4.0,0.0
5436,54.0,0.0,240.0,7.0,0.0
5437,78.0,0.0,120.0,11.0,0.0
5438,70.0,85.0,240.0,6.0,0.0
5439,54.0,0.0,240.0,14.0,0.0
5440,87.0,0.0,120.0,10.0,0.0
5441,70.0,0.0,240.0,12.0,0.0
5442,82.0,0.0,120.0,1.0,0.0
5443,54.0,0.0,240.0,13.0,0.0
5444,78.0,0.0,120.0,5.0,0.0
5445,87.0,100.0,120.0,0.0,0.0
5446,80.0,0.0,90.0,5.0,0.0
5447,80.0,35.0,90.0,11.0,0.0
5448,89.0,0.0,90.0,4.0,0.0
5449,89.0,0.0,90.0,10.0,0.0
5450,77.0,0.0,90.0,11.0,0.0
5451,85.0,0.0,90.0,4.0,0.0
5452,77.0,5.0,90.0,5.0,0.0
5453,85.0,0.0,90.0,10.0,0.0
5454,56.0,135.0,60.0,13.0,0.0
5455,56.0,0.0,60.0,7.0,0.0
5456,77.0,0.0,60.0,6.0,0.0
5457,56.0,0.0,60.0,14.0,0.0
5458,65.0,0.0,60.0,12.0,0.0
5459,85.0,0.0,240.0,4.0,0.0
5460,77.0,120.0,120.0,5.0,0.0
5461,58.0,0.0,120.0,14.0,0.0
5462,77.0,0.0,120.0,11.0,0.0
5463,85.0,85.0,240.0,10.0,0.0
5464,85.0,0.0,120.0,0.0,0.0
5465,58.0,0.0,120.0,7.0,0.0
5466,82.0,0.0,120.0,1.0,0.0
5467,70.0,0.0,120.0,12.0,0.0
5468,70.0,0.0,120.0,6.0,0.0
5469,58.0,0.0,120.0,13.0,0.0
5470,78.0,0.0,120.0,5.0,0.0
5471,78.0,15.0,120.0,11.0,0.0
5472,80.0,0.0,90.0,11.0,0.0
5473,80.0,5.0,90.0,5.0,0.0
5474,85.0,0.0,60.0,4.0,0.0
5475,85.0,135.0,60.0,10.0,0.0
5476,54.0,0.0,120.0,14.0,0.0
5477,82.0,100.0,120.0,1.0,0.0
5478,82.0,0.0,120.0,11.0,0.0
5479,85.0,0.0,120.0,0.0,0.0
5480,54.0,0.0,120.0,7.0,0.0
5481,85.0,85.0,240.0,4.0,0.0
5482,82.0,0.0,120.0,5.0,0.0
5483,85.0,0.0,240.0,10.0,0.0
5484,54.0,0.0,120.0,13.0,0.0
5485,83.0,0.0,90.0,11.0,0.0
5486,83.0,35.0,90.0,5.0,0.0
5487,80.0,5.0,90.0,11.0,0.0
5488,80.0,0.0,90.0,5.0,0.0
5489,85.0,0.0,60.0,10.0,0.0
5490,73.0,0.0,60.0,12.0,0.0
5491,73.0,135.0,60.0,6.0,0.0
5492,85.0,0.0,60.0,4.0,0.0
5493,53.0,0.0,120.0,7.0,0.0
5494,80.0,0.0,120.0,5.0,0.0
5495,53.0,0.0,120.0,13.0,0.0
5496,80.0,0.0,120.0,1.0,0.0
5497,85.0,0.0,240.0,4.0,0.0
5498,77.0,85.0,240.0,6.0,0.0
5499,77.0,0.0,240.0,12.0,0.0
5500,85.0,0.0,240.0,10.0,0.0
5501,80.0,0.0,120.0,11.0,0.0
5502,53.0,0.0,120.0,14.0,0.0
5503,85.0,100.0,120.0,0.0,0.0
5504,82.0,35.0,90.0,11.0,0.0
5505,82.0,0.0,90.0,5.0,0.0
5506,78.0,0.0,90.0,11.0,0.0
5507,78.0,5.0,90.0,5.0,0.0
5508,70.0,0.0,60.0,12.0,0.0
5509,85.0,0.0,60.0,10.0,0.0
5510,70.0,135.0,60.0,6.0,0.0
5511,85.0,0.0,60.0,4.0,0.0
5512,78.0,0.0,120.0,1.0,0.0
5513,78.0,85.0,240.0,5.0,0.0
5514,85.0,0.0,120.0,10.0,0.0
5515,51.0,0.0,120.0,14.0,0.0
5516,78.0,0.0,240.0,11.0,0.0
5517,51.0,0.0,120.0,7.0,0.0
5518,85.0,0.0,120.0,4.0,0.0
5519,70.0,0.0,240.0,6.0,0.0
5520,51.0,120.0,120.0,13.0,0.0
5521,70.0,0.0,240.0,12.0,0.0
5522,85.0,0.0,120.0,0.0,0.0
5523,54.0,15.0,120.0,13.0,0.0
5524,87.0,0.0,120.0,10.0,0.0
5525,54.0,0.0,120.0,7.0,0.0
5526,87.0,0.0,120.0,4.0,0.0
5527,54.0,0.0,120.0,14.0,0.0
5528,85.0,5.0,90.0,4.0,0.0
5529,58.0,120.0,120.0,7.0,0.0
5530,58.0,0.0,120.0,13.0,0.0
5531,85.0,0.0,90.0,10.0,0.0
5532,58.0,0.0,120.0,14.0,0.0
5533,75.0,0.0,60.0,6.0,0.0
5534,78.0,0.0,60.0,11.0,0.0
5535,75.0,0.0,60.0,12.0,0.0
5536,78.0,15.0,60.0,5.0,0.0
5537,84.0,0.0,120.0,0.0,0.0
5538,63.0,0.0,120.0,14.0,0.0
5539,84.0,0.0,120.0,4.0,0.0
5540,75.0,0.0,240.0,12.0,0.0
5541,84.0,0.0,120.0,10.0,0.0
5542,63.0,100.0,120.0,13.0,0.0
5543,78.0,85.0,240.0,5.0,0.0
5544,80.0,0.0,120.0,1.0,0.0
5545,75.0,0.0,240.0,6.0,0.0
5546,78.0,0.0,240.0,11.0,0.0
5547,63.0,0.0,120.0,7.0,0.0
5548,65.0,0.0,120.0,13.0,0.0
5549,65.0,15.0,120.0,14.0,0.0
5550,85.0,0.0,90.0,4.0,0.0
5551,85.0,20.0,90.0,10.0,0.0
5552,65.0,0.0,120.0,7.0,0.0
5553,61.0,120.0,120.0,14.0,0.0
5554,61.0,0.0,120.0,7.0,0.0
5555,82.0,5.0,90.0,10.0,0.0
5556,61.0,0.0,120.0,13.0,0.0
5557,82.0,0.0,90.0,4.0,0.0
5558,75.0,0.0,60.0,6.0,0.0
5559,75.0,0.0,60.0,12.0,0.0
5560,78.0,15.0,60.0,11.0,0.0
5561,78.0,0.0,60.0,5.0,0.0
5562,85.0,0.0,120.0,0.0,0.0
5563,75.0,0.0,240.0,12.0,0.0
5564,78.0,0.0,240.0,11.0,0.0
5565,75.0,0.0,240.0,6.0,0.0
5566,61.0,0.0,120.0,13.0,0.0
5567,61.0,0.0,120.0,14.0,0.0
5568,61.0,0.0,120.0,7.0,0.0
5569,82.0,0.0,120.0,1.0,0.0
5570,78.0,85.0,240.0,5.0,0.0
5571,82.0,0.0,120.0,10.0,0.0
5572,82.0,100.0,120.0,4.0,0.0
5573,63.0,15.0,120.0,13.0,0.0
5574,84.0,0.0,90.0,10.0,0.0
5575,63.0,0.0,120.0,7.0,0.0
5576,84.0,20.0,90.0,4.0,0.0
5577,63.0,0.0,120.0,14.0,0.0
5578,60.0,120.0,120.0,13.0,0.0
5579,60.0,0.0,120.0,7.0,0.0
5580,80.0,0.0,90.0,4.0,0.0
5581,80.0,5.0,90.0,10.0,0.0
5582,60.0,0.0,120.0,14.0,0.0
5583,78.0,0.0,60.0,11.0,0.0
5584,75.0,15.0,60.0,12.0,0.0
5585,78.0,0.0,60.0,5.0,0.0
5586,75.0,0.0,60.0,6.0,0.0
5587,78.0,120.0,120.0,11.0,0.0
5588,75.0,0.0,120.0,6.0,0.0
5589,60.0,0.0,120.0,7.0,0.0
5590,87.0,20.0,810.0,0.0,0.0
5591,75.0,0.0,120.0,12.0,0.0
5592,60.0,0.0,120.0,14.0,0.0
5593,80.0,90.0,240.0,10.0,0.0
5594,60.0,0.0,120.0,13.0,0.0
5595,80.0,0.0,240.0,4.0,0.0
5596,78.0,0.0,120.0,5.0,0.0
5597,80.0,0.0,1320.0,1.0,0.0
5598,72.0,0.0,120.0,6.0,0.0
5599,72.0,15.0,120.0,12.0,0.0
5600,75.0,0.0,120.0,5.0,0.0
5601,75.0,0.0,120.0,11.0,0.0
5602,77.0,0.0,120.0,11.0,0.0
5603,73.0,0.0,120.0,6.0,0.0
5604,73.0,120.0,120.0,12.0,0.0
5605,77.0,0.0,120.0,5.0,0.0
5606,80.0,15.0,60.0,4.0,0.0
5607,80.0,0.0,60.0,10.0,0.0
5608,78.0,100.0,120.0,11.0,0.0
5609,75.0,0.0,120.0,6.0,0.0
5610,78.0,0.0,120.0,5.0,0.0
5611,80.0,85.0,240.0,4.0,0.0
5612,75.0,0.0,120.0,12.0,0.0
5613,80.0,0.0,240.0,10.0,0.0
5614,80.0,0.0,90.0,5.0,0.0
5615,77.0,0.0,90.0,6.0,0.0
5616,80.0,0.0,90.0,11.0,0.0
5617,77.0,35.0,90.0,12.0,0.0
5618,73.0,0.0,90.0,12.0,0.0
5619,77.0,0.0,90.0,11.0,0.0
5620,77.0,0.0,90.0,5.0,0.0
5621,73.0,5.0,90.0,6.0,0.0
5622,56.0,115.0,60.0,14.0,0.0
5623,80.0,0.0,60.0,4.0,0.0
5624,80.0,0.0,60.0,10.0,0.0
5625,56.0,0.0,60.0,7.0,0.0
5626,56.0,0.0,60.0,13.0,0.0
5627,78.0,0.0,120.0,5.0,0.0
5628,53.0,0.0,240.0,7.0,0.0
5629,53.0,85.0,240.0,13.0,0.0
5630,80.0,0.0,240.0,4.0,0.0
5631,78.0,0.0,120.0,11.0,0.0
5632,75.0,0.0,120.0,12.0,0.0
5633,75.0,100.0,120.0,6.0,0.0
5634,53.0,0.0,240.0,14.0,0.0
5635,80.0,0.0,240.0,10.0,0.0
5636,77.0,0.0,120.0,5.0,0.0
5637,73.0,15.0,120.0,12.0,0.0
5638,77.0,0.0,120.0,11.0,0.0
5639,89.0,20.0,90.0,0.0,0.0
5640,73.0,0.0,120.0,6.0,0.0
5641,72.0,0.0,90.0,6.0,0.0
5642,75.0,0.0,90.0,5.0,0.0
5643,75.0,0.0,90.0,11.0,0.0
5644,90.0,5.0,90.0,0.0,0.0
5645,72.0,0.0,90.0,12.0,0.0
5646,80.0,0.0,60.0,4.0,0.0
5647,56.0,0.0,60.0,13.0,0.0
5648,80.0,135.0,60.0,10.0,0.0
5649,56.0,0.0,60.0,14.0,0.0
5650,56.0,0.0,60.0,7.0,0.0
5651,73.0,0.0,240.0,12.0,0.0
5652,80.0,0.0,120.0,10.0,0.0
5653,49.0,0.0,240.0,7.0,0.0
5654,89.0,0.0,240.0,0.0,0.0
5655,73.0,85.0,240.0,6.0,0.0
5656,77.0,100.0,120.0,5.0,0.0
5657,49.0,0.0,240.0,14.0,0.0
5658,49.0,0.0,240.0,13.0,0.0
5659,77.0,0.0,120.0,11.0,0.0
5660,80.0,0.0,120.0,4.0,0.0
5661,85.0,0.0,90.0,4.0,0.0
5662,80.0,0.0,90.0,11.0,0.0
5663,80.0,0.0,90.0,5.0,0.0
5664,85.0,35.0,90.0,10.0,0.0
5665,84.0,0.0,90.0,4.0,0.0
5666,78.0,0.0,90.0,11.0,0.0
5667,78.0,5.0,90.0,5.0,0.0
5668,84.0,0.0,90.0,10.0,0.0
5669,51.0,0.0,60.0,14.0,0.0
5670,51.0,0.0,60.0,13.0,0.0
5671,80.0,0.0,60.0,1.0,0.0
5672,68.0,0.0,60.0,6.0,0.0
5673,51.0,0.0,60.0,7.0,0.0
5674,68.0,0.0,60.0,12.0,0.0
5675,87.0,135.0,60.0,0.0,0.0
5676,68.0,0.0,240.0,12.0,0.0
5677,80.0,0.0,240.0,11.0,0.0
5678,53.0,0.0,240.0,13.0,0.0
5679,80.0,0.0,240.0,1.0,0.0
5680,68.0,85.0,240.0,6.0,0.0
5681,80.0,0.0,240.0,5.0,0.0
5682,53.0,0.0,240.0,7.0,0.0
5683,85.0,0.0,120.0,10.0,0.0
5684,85.0,120.0,120.0,4.0,0.0
5685,53.0,0.0,240.0,14.0,0.0
5686,85.0,0.0,240.0,0.0,0.0
5687,80.0,15.0,120.0,4.0,0.0
5688,80.0,0.0,120.0,10.0,0.0
5689,82.0,0.0,90.0,10.0,0.0
5690,82.0,5.0,90.0,4.0,0.0
5691,73.0,135.0,60.0,5.0,0.0
5692,73.0,0.0,60.0,11.0,0.0
5693,54.0,0.0,60.0,14.0,0.0
5694,73.0,0.0,60.0,12.0,0.0
5695,54.0,0.0,60.0,7.0,0.0
5696,87.0,0.0,60.0,0.0,0.0
5697,73.0,0.0,60.0,6.0,0.0
5698,54.0,0.0,60.0,13.0,0.0
5699,82.0,0.0,60.0,1.0,0.0
5700,84.0,85.0,240.0,0.0,0.0
5701,77.0,120.0,120.0,4.0,0.0
5702,56.0,0.0,240.0,14.0,0.0
5703,56.0,0.0,240.0,7.0,0.0
5704,68.0,0.0,240.0,5.0,0.0
5705,56.0,0.0,240.0,13.0,0.0
5706,73.0,0.0,240.0,6.0,0.0
5707,80.0,0.0,240.0,1.0,0.0
5708,73.0,0.0,240.0,12.0,0.0
5709,68.0,0.0,240.0,11.0,0.0
5710,77.0,0.0,120.0,10.0,0.0
5711,75.0,15.0,120.0,10.0,0.0
5712,75.0,0.0,120.0,4.0,0.0
5713,73.0,0.0,90.0,4.0,0.0
5714,73.0,5.0,90.0,10.0,0.0
5715,44.0,0.0,60.0,13.0,0.0
5716,44.0,0.0,60.0,14.0,0.0
5717,80.0,135.0,60.0,1.0,0.0
5718,72.0,0.0,60.0,11.0,0.0
5719,68.0,0.0,60.0,12.0,0.0
5720,68.0,0.0,60.0,6.0,0.0
5721,85.0,0.0,60.0,0.0,0.0
5722,44.0,0.0,60.0,7.0,0.0
5723,72.0,0.0,60.0,5.0,0.0
5724,49.0,0.0,360.0,14.0,0.0
5725,73.0,0.0,240.0,10.0,0.0
5726,49.0,0.0,120.0,3.0,0.0
5727,73.0,135.0,120.0,2.0,0.0
5728,85.0,0.0,120.0,0.0,0.0
5729,49.0,120.0,360.0,13.0,0.0
5730,80.0,0.0,120.0,1.0,0.0
5731,49.0,0.0,360.0,7.0,0.0
5732,68.0,0.0,360.0,6.0,0.0
5733,73.0,0.0,360.0,4.0,0.0
5734,68.0,90.0,240.0,11.0,0.0
5735,73.0,0.0,360.0,5.0,0.0
5736,65.0,0.0,240.0,12.0,0.0
5737,68.0,15.0,60.0,11.0,0.0
5738,73.0,0.0,60.0,10.0,0.0
5739,65.0,0.0,60.0,12.0,0.0
5740,68.0,100.0,120.0,11.0,0.0
5741,73.0,0.0,120.0,10.0,0.0
5742,65.0,0.0,120.0,12.0,0.0
5743,68.0,0.0,90.0,12.0,0.0
5744,77.0,0.0,90.0,10.0,0.0
5745,73.0,120.0,90.0,11.0,0.0
5746,75.0,140.0,90.0,10.0,0.0
5747,72.0,0.0,90.0,11.0,0.0
5748,66.0,0.0,90.0,12.0,0.0
5749,66.0,100.0,120.0,12.0,0.0
5750,72.0,0.0,120.0,11.0,0.0
5751,75.0,0.0,120.0,10.0,0.0
5752,70.0,0.0,90.0,12.0,0.0
5753,75.0,0.0,90.0,11.0,0.0
5754,78.0,120.0,90.0,10.0,0.0
5755,68.0,0.0,90.0,12.0,0.0
5756,77.0,140.0,90.0,10.0,0.0
5757,73.0,0.0,90.0,11.0,0.0
5758,49.0,0.0,360.0,14.0,0.0
5759,85.0,0.0,120.0,0.0,0.0
5760,80.0,225.0,120.0,1.0,0.0
5761,73.0,0.0,120.0,11.0,0.0
5762,68.0,0.0,120.0,12.0,0.0
5763,73.0,0.0,120.0,2.0,0.0
5764,49.0,120.0,360.0,7.0,0.0
5765,77.0,0.0,120.0,10.0,0.0
5766,49.0,0.0,120.0,3.0,0.0
5767,49.0,0.0,360.0,13.0,0.0
5768,77.0,0.0,60.0,4.0,0.0
5769,73.0,0.0,60.0,5.0,0.0
5770,68.0,15.0,60.0,6.0,0.0
5771,77.0,0.0,120.0,4.0,0.0
5772,68.0,85.0,240.0,6.0,0.0
5773,73.0,100.0,120.0,5.0,0.0
5774,77.0,35.0,90.0,5.0,0.0
5775,80.0,0.0,90.0,4.0,0.0
5776,78.0,0.0,90.0,4.0,0.0
5777,75.0,5.0,90.0,5.0,0.0
5778,72.0,135.0,60.0,6.0,0.0
5779,78.0,0.0,120.0,4.0,0.0
5780,72.0,85.0,240.0,6.0,0.0
5781,75.0,100.0,120.0,5.0,0.0
5782,82.0,35.0,90.0,4.0,0.0
5783,78.0,0.0,90.0,5.0,0.0
5784,80.0,0.0,90.0,4.0,0.0
5785,77.0,5.0,90.0,5.0,0.0
5786,73.0,135.0,60.0,6.0,0.0
5787,49.0,0.0,360.0,14.0,0.0
5788,49.0,0.0,120.0,3.0,0.0
5789,77.0,220.0,120.0,5.0,0.0
5790,80.0,0.0,120.0,4.0,0.0
5791,49.0,0.0,360.0,7.0,0.0
5792,49.0,120.0,360.0,13.0,0.0
5793,73.0,0.0,120.0,6.0,0.0
5794,73.0,0.0,90.0,1.0,0.0
5795,80.0,5.0,90.0,0.0,0.0
5796,73.0,0.0,60.0,2.0,0.0
5797,73.0,15.0,60.0,12.0,0.0
5798,80.0,0.0,60.0,10.0,0.0
5799,77.0,0.0,60.0,11.0,0.0
5800,73.0,0.0,120.0,1.0,0.0
5801,73.0,0.0,240.0,12.0,0.0
5802,80.0,100.0,120.0,0.0,0.0
5803,80.0,0.0,120.0,10.0,0.0
5804,77.0,0.0,120.0,11.0,0.0
5805,73.0,85.0,240.0,2.0,0.0
5806,80.0,0.0,90.0,1.0,0.0
5807,83.0,0.0,90.0,0.0,0.0
5808,80.0,35.0,90.0,11.0,0.0
5809,83.0,0.0,90.0,10.0,0.0
5810,78.0,0.0,90.0,1.0,0.0
5811,78.0,0.0,90.0,11.0,0.0
5812,82.0,0.0,90.0,0.0,0.0
5813,82.0,5.0,90.0,10.0,0.0
5814,73.0,135.0,60.0,2.0,0.0
5815,73.0,0.0,60.0,12.0,0.0
5816,82.0,0.0,120.0,10.0,0.0
5817,82.0,0.0,120.0,0.0,0.0
5818,78.0,100.0,120.0,1.0,0.0
5819,73.0,85.0,240.0,2.0,0.0
5820,78.0,0.0,120.0,11.0,0.0
5821,73.0,0.0,240.0,12.0,0.0
5822,82.0,35.0,90.0,11.0,0.0
5823,82.0,0.0,90.0,1.0,0.0
5824,85.0,0.0,90.0,10.0,0.0
5825,85.0,0.0,90.0,0.0,0.0
5826,80.0,0.0,90.0,1.0,0.0
5827,83.0,5.0,90.0,10.0,0.0
5828,80.0,0.0,90.0,11.0,0.0
5829,83.0,0.0,90.0,0.0,0.0
5830,73.0,0.0,60.0,12.0,0.0
5831,73.0,135.0,60.0,2.0,0.0
5832,73.0,100.0,120.0,2.0,0.0
5833,83.0,0.0,120.0,10.0,0.0
5834,80.0,0.0,120.0,1.0,0.0
5835,80.0,0.0,240.0,11.0,0.0
5836,83.0,0.0,120.0,0.0,0.0
5837,73.0,85.0,240.0,12.0,0.0
5838,87.0,35.0,90.0,10.0,0.0
5839,85.0,5.0,90.0,10.0,0.0
5840,73.0,0.0,60.0,12.0,0.0
5841,85.0,0.0,60.0,4.0,0.0
5842,49.0,0.0,60.0,14.0,0.0
5843,73.0,135.0,60.0,6.0,0.0
5844,49.0,0.0,60.0,13.0,0.0
5845,77.0,0.0,60.0,11.0,0.0
5846,49.0,0.0,60.0,7.0,0.0
5847,77.0,0.0,60.0,5.0,0.0
5848,73.0,0.0,240.0,6.0,0.0
5849,53.0,0.0,240.0,13.0,0.0
5850,85.0,0.0,120.0,4.0,0.0
5851,80.0,0.0,240.0,5.0,0.0
5852,53.0,0.0,240.0,14.0,0.0
5853,80.0,0.0,240.0,11.0,0.0
5854,73.0,0.0,120.0,2.0,0.0
5855,49.0,0.0,120.0,3.0,0.0
5856,85.0,0.0,120.0,10.0,0.0
5857,80.0,100.0,120.0,1.0,0.0
5858,85.0,0.0,120.0,0.0,0.0
5859,73.0,0.0,240.0,12.0,0.0
5860,53.0,85.0,240.0,7.0,0.0
5861,87.0,35.0,90.0,10.0,0.0
5862,87.0,0.0,90.0,4.0,0.0
5863,83.0,0.0,90.0,10.0,0.0
5864,83.0,5.0,90.0,4.0,0.0
5865,56.0,0.0,60.0,13.0,0.0
5866,77.0,0.0,60.0,11.0,0.0
5867,56.0,0.0,60.0,14.0,0.0
5868,56.0,0.0,60.0,7.0,0.0
5869,73.0,0.0,60.0,12.0,0.0
5870,73.0,0.0,60.0,6.0,0.0
5871,77.0,135.0,60.0,5.0,0.0
5872,83.0,0.0,120.0,0.0,0.0
5873,53.0,85.0,240.0,7.0,0.0
5874,49.0,0.0,120.0,3.0,0.0
5875,80.0,0.0,120.0,1.0,0.0
5876,83.0,100.0,120.0,4.0,0.0
5877,73.0,0.0,120.0,2.0,0.0
5878,53.0,0.0,240.0,14.0,0.0
5879,73.0,0.0,240.0,11.0,0.0
5880,53.0,0.0,240.0,13.0,0.0
5881,73.0,0.0,240.0,6.0,0.0
5882,73.0,0.0,240.0,12.0,0.0
5883,83.0,0.0,120.0,10.0,0.0
5884,73.0,0.0,240.0,5.0,0.0
5885,85.0,0.0,90.0,10.0,0.0
5886,85.0,35.0,90.0,4.0,0.0
5887,82.0,0.0,90.0,10.0,0.0
5888,82.0,5.0,90.0,4.0,0.0
5889,73.0,0.0,60.0,6.0,0.0
5890,73.0,135.0,60.0,12.0,0.0
5891,77.0,0.0,60.0,5.0,0.0
5892,49.0,0.0,60.0,13.0,0.0
5893,49.0,0.0,60.0,14.0,0.0
5894,49.0,0.0,60.0,7.0,0.0
5895,77.0,0.0,60.0,11.0,0.0
5896,78.0,90.0,240.0,1.0,0.0
5897,78.0,0.0,120.0,11.0,0.0
5898,73.0,135.0,120.0,12.0,0.0
5899,54.0,0.0,360.0,14.0,0.0
5900,73.0,0.0,240.0,2.0,0.0
5901,54.0,120.0,360.0,13.0,0.0
5902,73.0,0.0,240.0,6.0,0.0
5903,82.0,0.0,120.0,10.0,0.0
5904,78.0,0.0,240.0,5.0,0.0
5905,82.0,0.0,240.0,0.0,0.0
5906,82.0,0.0,240.0,4.0,0.0
5907,54.0,0.0,120.0,3.0,0.0
5908,54.0,0.0,360.0,7.0,0.0
5909,70.0,0.0,60.0,6.0,0.0
5910,73.0,0.0,60.0,5.0,0.0
5911,78.0,0.0,60.0,4.0,0.0
5912,78.0,15.0,60.0,0.0,0.0
5913,70.0,0.0,60.0,1.0,0.0
5914,73.0,0.0,60.0,2.0,0.0
5915,70.0,0.0,120.0,1.0,0.0
5916,78.0,0.0,120.0,4.0,0.0
5917,70.0,0.0,120.0,6.0,0.0
5918,73.0,85.0,240.0,2.0,0.0
5919,78.0,0.0,120.0,0.0,0.0
5920,73.0,100.0,120.0,5.0,0.0
5921,82.0,0.0,90.0,4.0,0.0
5922,78.0,0.0,90.0,5.0,0.0
5923,82.0,35.0,90.0,0.0,0.0
5924,78.0,0.0,90.0,1.0,0.0
5925,73.0,0.0,90.0,6.0,0.0
5926,71.0,0.0,90.0,6.0,0.0
5927,80.0,0.0,90.0,4.0,0.0
5928,77.0,5.0,90.0,5.0,0.0
5929,80.0,0.0,90.0,0.0,0.0
5930,73.0,0.0,90.0,1.0,0.0
5931,73.0,135.0,60.0,2.0,0.0
5932,80.0,100.0,120.0,0.0,0.0
5933,71.0,0.0,120.0,6.0,0.0
5934,80.0,0.0,120.0,4.0,0.0
5935,73.0,85.0,240.0,2.0,0.0
5936,73.0,0.0,120.0,1.0,0.0
5937,77.0,0.0,120.0,5.0,0.0
5938,80.0,0.0,90.0,1.0,0.0
5939,75.0,35.0,90.0,6.0,0.0
5940,80.0,0.0,90.0,5.0,0.0
5941,83.0,0.0,90.0,4.0,0.0
5942,83.0,0.0,90.0,0.0,0.0
5943,78.0,0.0,90.0,5.0,0.0
5944,78.0,0.0,90.0,1.0,0.0
5945,82.0,0.0,90.0,0.0,0.0
5946,73.0,5.0,90.0,6.0,0.0
5947,82.0,0.0,90.0,4.0,0.0
5948,73.0,135.0,60.0,2.0,0.0
5949,54.0,0.0,120.0,3.0,0.0
5950,82.0,0.0,120.0,0.0,0.0
5951,54.0,0.0,360.0,14.0,0.0
5952,54.0,120.0,360.0,13.0,0.0
5953,78.0,0.0,120.0,5.0,0.0
5954,73.0,0.0,120.0,2.0,0.0
5955,54.0,0.0,360.0,7.0,0.0
5956,78.0,0.0,120.0,1.0,0.0
5957,82.0,225.0,120.0,4.0,0.0
5958,73.0,0.0,120.0,6.0,0.0
5959,73.0,0.0,60.0,12.0,0.0
5960,82.0,0.0,60.0,10.0,0.0
5961,78.0,15.0,60.0,11.0,0.0
5962,73.0,85.0,240.0,12.0,0.0
5963,82.0,100.0,120.0,10.0,0.0
5964,78.0,0.0,120.0,11.0,0.0
5965,85.0,0.0,90.0,10.0,0.0
5966,82.0,35.0,90.0,11.0,0.0
5967,80.0,0.0,90.0,11.0,0.0
5968,83.0,5.0,90.0,10.0,0.0
5969,77.0,135.0,60.0,12.0,0.0
5970,83.0,100.0,120.0,10.0,0.0
5971,80.0,0.0,120.0,11.0,0.0
5972,77.0,85.0,240.0,12.0,0.0
5973,87.0,35.0,90.0,10.0,0.0
5974,83.0,0.0,90.0,11.0,0.0
5975,82.0,5.0,90.0,11.0,0.0
5976,85.0,0.0,90.0,10.0,0.0
5977,78.0,135.0,60.0,12.0,0.0
5978,54.0,0.0,360.0,7.0,0.0
5979,54.0,225.0,120.0,3.0,0.0
5980,54.0,0.0,360.0,13.0,0.0
5981,82.0,0.0,120.0,11.0,0.0
5982,85.0,0.0,120.0,10.0,0.0
5983,54.0,120.0,360.0,14.0,0.0
5984,78.0,0.0,120.0,12.0,0.0
5985,73.0,0.0,60.0,4.0,0.0
5986,70.0,0.0,60.0,5.0,0.0
5987,66.0,15.0,60.0,6.0,0.0
5988,70.0,100.0,120.0,5.0,0.0
5989,73.0,0.0,120.0,4.0,0.0
5990,66.0,85.0,240.0,6.0,0.0
5991,76.0,0.0,90.0,4.0,0.0
5992,73.0,35.0,90.0,5.0,0.0
5993,71.0,0.0,90.0,5.0,0.0
5994,75.0,5.0,90.0,4.0,0.0
5995,66.0,135.0,60.0,6.0,0.0
5996,75.0,0.0,120.0,4.0,0.0
5997,66.0,85.0,240.0,6.0,0.0
5998,71.0,100.0,120.0,5.0,0.0
5999,75.0,0.0,90.0,5.0,0.0
6000,78.0,35.0,90.0,4.0,0.0
6001,76.0,5.0,90.0,4.0,0.0
6002,73.0,0.0,90.0,5.0,0.0
6003,66.0,135.0,60.0,6.0,0.0
6004,76.0,120.0,120.0,4.0,0.0
6005,66.0,0.0,240.0,6.0,0.0
6006,73.0,85.0,240.0,5.0,0.0
6007,80.0,15.0,120.0,4.0,0.0
6008,78.0,5.0,90.0,4.0,0.0
6009,70.0,0.0,60.0,5.0,0.0
6010,70.0,0.0,60.0,11.0,0.0
6011,78.0,0.0,60.0,10.0,0.0
6012,66.0,135.0,60.0,12.0,0.0
6013,54.0,0.0,60.0,13.0,0.0
6014,54.0,0.0,60.0,7.0,0.0
6015,66.0,0.0,60.0,6.0,0.0
6016,54.0,0.0,60.0,14.0,0.0
6017,78.0,0.0,120.0,4.0,0.0
6018,66.0,0.0,240.0,12.0,0.0
6019,85.0,0.0,120.0,0.0,0.0
6020,58.0,0.0,240.0,7.0,0.0
6021,54.0,0.0,120.0,3.0,0.0
6022,66.0,0.0,240.0,6.0,0.0
6023,78.0,100.0,120.0,2.0,0.0
6024,78.0,0.0,120.0,10.0,0.0
6025,82.0,0.0,120.0,1.0,0.0
6026,73.0,0.0,240.0,11.0,0.0
6027,58.0,85.0,240.0,13.0,0.0
6028,73.0,0.0,240.0,5.0,0.0
6029,58.0,0.0,240.0,14.0,0.0
6030,80.0,35.0,90.0,4.0,0.0
6031,80.0,0.0,90.0,10.0,0.0
6032,76.0,0.0,90.0,4.0,0.0
6033,76.0,5.0,90.0,10.0,0.0
6034,61.0,0.0,60.0,7.0,0.0
6035,70.0,0.0,60.0,11.0,0.0
6036,61.0,0.0,60.0,14.0,0.0
6037,66.0,135.0,60.0,12.0,0.0
6038,61.0,0.0,60.0,13.0,0.0
6039,66.0,0.0,60.0,6.0,0.0
6040,70.0,0.0,60.0,5.0,0.0
6041,82.0,0.0,120.0,1.0,0.0
6042,76.0,0.0,120.0,4.0,0.0
6043,58.0,0.0,240.0,13.0,0.0
6044,66.0,0.0,240.0,11.0,0.0
6045,58.0,0.0,240.0,14.0,0.0
6046,78.0,0.0,120.0,2.0,0.0
6047,66.0,0.0,240.0,12.0,0.0
6048,76.0,0.0,120.0,10.0,0.0
6049,85.0,0.0,120.0,0.0,0.0
6050,54.0,100.0,120.0,3.0,0.0
6051,66.0,0.0,240.0,5.0,0.0
6052,58.0,0.0,240.0,7.0,0.0
6053,66.0,85.0,240.0,6.0,0.0
6054,78.0,0.0,90.0,4.0,0.0
6055,78.0,35.0,90.0,10.0,0.0
6056,75.0,5.0,90.0,4.0,0.0
6057,75.0,0.0,90.0,10.0,0.0
6058,54.0,0.0,60.0,14.0,0.0
6059,70.0,0.0,60.0,11.0,0.0
6060,70.0,0.0,60.0,5.0,0.0
6061,66.0,0.0,60.0,6.0,0.0
6062,66.0,0.0,60.0,12.0,0.0
6063,54.0,135.0,60.0,7.0,0.0
6064,54.0,0.0,60.0,13.0,0.0
6065,47.0,0.0,240.0,7.0,0.0
6066,47.0,0.0,240.0,14.0,0.0
6067,83.0,120.0,120.0,1.0,0.0
6068,87.0,0.0,120.0,0.0,0.0
6069,66.0,90.0,240.0,12.0,0.0
6070,75.0,0.0,120.0,4.0,0.0
6071,71.0,0.0,240.0,11.0,0.0
6072,78.0,0.0,120.0,2.0,0.0
6073,71.0,0.0,240.0,5.0,0.0
6074,54.0,0.0,120.0,3.0,0.0
6075,47.0,0.0,240.0,13.0,0.0
6076,75.0,0.0,120.0,10.0,0.0
6077,66.0,0.0,240.0,6.0,0.0
6078,71.0,15.0,120.0,4.0,0.0
6079,71.0,0.0,120.0,10.0,0.0
6080,73.0,120.0,120.0,4.0,0.0
6081,73.0,0.0,120.0,10.0,0.0
6082,64.0,0.0,60.0,12.0,0.0
6083,70.0,15.0,60.0,11.0,0.0
6084,70.0,0.0,60.0,5.0,0.0
6085,59.0,0.0,60.0,14.0,0.0
6086,59.0,0.0,60.0,7.0,0.0
6087,59.0,0.0,60.0,13.0,0.0
6088,64.0,0.0,60.0,6.0,0.0
6089,66.0,0.0,240.0,12.0,0.0
6090,59.0,100.0,120.0,13.0,0.0
6091,59.0,0.0,120.0,14.0,0.0
6092,71.0,0.0,240.0,11.0,0.0
6093,71.0,85.0,240.0,5.0,0.0
6094,75.0,0.0,120.0,10.0,0.0
6095,66.0,0.0,240.0,6.0,0.0
6096,75.0,0.0,120.0,4.0,0.0
6097,59.0,0.0,120.0,7.0,0.0
6098,77.0,0.0,90.0,10.0,0.0
6099,77.0,35.0,90.0,4.0,0.0
6100,61.0,0.0,90.0,7.0,0.0
6101,61.0,0.0,90.0,14.0,0.0
6102,61.0,0.0,90.0,13.0,0.0
6103,58.0,0.0,90.0,14.0,0.0
6104,58.0,0.0,90.0,13.0,0.0
6105,78.0,5.0,90.0,10.0,0.0
6106,78.0,0.0,90.0,4.0,0.0
6107,58.0,0.0,90.0,7.0,0.0
6108,73.0,0.0,60.0,11.0,0.0
6109,73.0,0.0,60.0,5.0,0.0
6110,70.0,135.0,60.0,12.0,0.0
6111,70.0,0.0,60.0,6.0,0.0
6112,58.0,0.0,120.0,14.0,0.0
6113,78.0,0.0,480.0,4.0,0.0
6114,78.0,0.0,480.0,10.0,0.0
6115,70.0,85.0,240.0,6.0,0.0
6116,58.0,0.0,120.0,13.0,0.0
6117,73.0,0.0,120.0,5.0,0.0
6118,73.0,0.0,120.0,11.0,0.0
6119,70.0,0.0,240.0,12.0,0.0
6120,58.0,100.0,120.0,7.0,0.0
6121,75.0,0.0,90.0,11.0,0.0
6122,75.0,0.0,90.0,5.0,0.0
6123,59.0,35.0,90.0,7.0,0.0
6124,59.0,0.0,90.0,13.0,0.0
6125,59.0,0.0,90.0,14.0,0.0
6126,56.0,5.0,90.0,7.0,0.0
6127,56.0,0.0,90.0,13.0,0.0
6128,56.0,0.0,90.0,14.0,0.0
6129,72.0,0.0,90.0,5.0,0.0
6130,72.0,0.0,90.0,11.0,0.0
6131,75.0,135.0,60.0,6.0,0.0
6132,63.0,0.0,60.0,12.0,0.0
6133,56.0,0.0,120.0,14.0,0.0
6134,75.0,0.0,240.0,6.0,0.0
6135,72.0,120.0,120.0,5.0,0.0
6136,56.0,0.0,120.0,7.0,0.0
6137,56.0,0.0,120.0,13.0,0.0
6138,63.0,85.0,240.0,12.0,0.0
6139,72.0,0.0,120.0,11.0,0.0
6140,77.0,0.0,120.0,10.0,0.0
6141,73.0,0.0,120.0,11.0,0.0
6142,73.0,0.0,120.0,5.0,0.0
6143,58.0,0.0,120.0,14.0,0.0
6144,58.0,15.0,120.0,7.0,0.0
6145,77.0,0.0,120.0,4.0,0.0
6146,58.0,0.0,120.0,13.0,0.0
6147,75.0,120.0,120.0,10.0,0.0
6148,75.0,0.0,120.0,4.0,0.0
6149,60.0,0.0,120.0,14.0,0.0
6150,60.0,0.0,120.0,7.0,0.0
6151,60.0,0.0,120.0,13.0,0.0
6152,75.0,5.0,90.0,5.0,0.0
6153,75.0,0.0,90.0,11.0,0.0
6154,68.0,15.0,60.0,6.0,0.0
6155,68.0,0.0,60.0,12.0,0.0
6156,61.0,100.0,120.0,14.0,0.0
6157,77.0,0.0,120.0,4.0,0.0
6158,68.0,0.0,240.0,6.0,0.0
6159,61.0,0.0,120.0,7.0,0.0
6160,73.0,85.0,240.0,11.0,0.0
6161,61.0,0.0,120.0,13.0,0.0
6162,68.0,0.0,240.0,12.0,0.0
6163,73.0,0.0,240.0,5.0,0.0
6164,77.0,0.0,120.0,10.0,0.0
6165,78.0,0.0,90.0,10.0,0.0
6166,78.0,0.0,90.0,4.0,0.0
6167,63.0,0.0,90.0,7.0,0.0
6168,63.0,0.0,90.0,13.0,0.0
6169,63.0,35.0,90.0,14.0,0.0
6170,59.0,0.0,90.0,14.0,0.0
6171,59.0,0.0,90.0,13.0,0.0
6172,59.0,0.0,90.0,7.0,0.0
6173,80.0,5.0,90.0,10.0,0.0
6174,80.0,0.0,90.0,4.0,0.0
6175,75.0,0.0,60.0,5.0,0.0
6176,75.0,135.0,60.0,11.0,0.0
6177,71.0,0.0,60.0,6.0,0.0
6178,71.0,0.0,60.0,12.0,0.0
6179,59.0,0.0,120.0,13.0,0.0
6180,71.0,85.0,240.0,12.0,0.0
6181,80.0,0.0,480.0,10.0,0.0
6182,75.0,0.0,120.0,5.0,0.0
6183,80.0,0.0,480.0,4.0,0.0
6184,71.0,0.0,240.0,6.0,0.0
6185,59.0,100.0,120.0,14.0,0.0
6186,59.0,0.0,120.0,7.0,0.0
6187,75.0,0.0,120.0,11.0,0.0
6188,61.0,0.0,90.0,13.0,0.0
6189,77.0,0.0,90.0,11.0,0.0
6190,61.0,0.0,90.0,7.0,0.0
6191,77.0,0.0,90.0,5.0,0.0
6192,61.0,35.0,90.0,14.0,0.0
6193,74.0,0.0,90.0,11.0,0.0
6194,58.0,5.0,90.0,7.0,0.0
6195,74.0,0.0,90.0,5.0,0.0
6196,58.0,0.0,90.0,13.0,0.0
6197,58.0,0.0,90.0,14.0,0.0
6198,77.0,0.0,60.0,6.0,0.0
6199,65.0,135.0,60.0,12.0,0.0
6200,58.0,0.0,120.0,14.0,0.0
6201,58.0,0.0,120.0,7.0,0.0
6202,74.0,0.0,120.0,11.0,0.0
6203,74.0,120.0,120.0,5.0,0.0
6204,77.0,85.0,240.0,6.0,0.0
6205,58.0,0.0,120.0,13.0,0.0
6206,65.0,0.0,240.0,12.0,0.0
6207,78.0,0.0,120.0,10.0,0.0
6208,60.0,0.0,120.0,13.0,0.0
6209,75.0,0.0,120.0,5.0,0.0
6210,60.0,15.0,120.0,7.0,0.0
6211,60.0,0.0,120.0,14.0,0.0
6212,75.0,0.0,120.0,11.0,0.0
6213,78.0,0.0,120.0,4.0,0.0
6214,62.0,0.0,120.0,7.0,0.0
6215,62.0,0.0,120.0,13.0,0.0
6216,62.0,120.0,120.0,14.0,0.0
6217,77.0,0.0,90.0,11.0,0.0
6218,77.0,5.0,90.0,5.0,0.0
6219,77.0,0.0,120.0,10.0,0.0
6220,77.0,0.0,120.0,4.0,0.0
6221,70.0,15.0,60.0,6.0,0.0
6222,70.0,0.0,60.0,12.0,0.0
6223,63.0,0.0,120.0,13.0,0.0
6224,63.0,100.0,120.0,7.0,0.0
6225,75.0,85.0,240.0,5.0,0.0
6226,70.0,0.0,240.0,12.0,0.0
6227,63.0,0.0,120.0,14.0,0.0
6228,75.0,0.0,240.0,11.0,0.0
6229,70.0,0.0,240.0,6.0,0.0
6230,78.0,0.0,120.0,10.0,0.0
6231,78.0,0.0,120.0,4.0,0.0
6232,65.0,0.0,90.0,14.0,0.0
6233,65.0,0.0,90.0,13.0,0.0
6234,65.0,35.0,90.0,7.0,0.0
6235,80.0,0.0,90.0,10.0,0.0
6236,80.0,0.0,90.0,4.0,0.0
6237,82.0,5.0,90.0,4.0,0.0
6238,82.0,0.0,90.0,10.0,0.0
6239,61.0,0.0,90.0,7.0,0.0
6240,61.0,0.0,90.0,13.0,0.0
6241,61.0,0.0,90.0,14.0,0.0
6242,73.0,0.0,60.0,6.0,0.0
6243,77.0,135.0,60.0,11.0,0.0
6244,73.0,0.0,60.0,12.0,0.0
6245,77.0,0.0,60.0,5.0,0.0
6246,61.0,100.0,120.0,13.0,0.0
6247,82.0,120.0,480.0,4.0,0.0
6248,73.0,0.0,240.0,6.0,0.0
6249,77.0,0.0,120.0,5.0,0.0
6250,77.0,0.0,120.0,11.0,0.0
6251,73.0,85.0,240.0,12.0,0.0
6252,82.0,0.0,480.0,10.0,0.0
6253,61.0,0.0,120.0,14.0,0.0
6254,61.0,0.0,120.0,7.0,0.0
6255,78.0,0.0,90.0,5.0,0.0
6256,63.0,0.0,90.0,13.0,0.0
6257,63.0,0.0,90.0,14.0,0.0
6258,63.0,0.0,90.0,7.0,0.0
6259,78.0,35.0,90.0,11.0,0.0
6260,75.0,0.0,90.0,5.0,0.0
6261,60.0,5.0,90.0,13.0,0.0
6262,75.0,0.0,90.0,11.0,0.0
6263,60.0,0.0,90.0,14.0,0.0
6264,60.0,0.0,90.0,7.0,0.0
6265,78.0,0.0,60.0,6.0,0.0
6266,66.0,135.0,60.0,12.0,0.0
6267,75.0,0.0,120.0,5.0,0.0
6268,60.0,0.0,120.0,13.0,0.0
6269,60.0,0.0,120.0,14.0,0.0
6270,75.0,0.0,120.0,11.0,0.0
6271,78.0,0.0,240.0,6.0,0.0
6272,60.0,0.0,120.0,7.0,0.0
6273,66.0,85.0,240.0,12.0,0.0
6274,62.0,0.0,120.0,13.0,0.0
6275,77.0,0.0,120.0,5.0,0.0
6276,62.0,0.0,120.0,7.0,0.0
6277,77.0,0.0,120.0,11.0,0.0
6278,62.0,0.0,120.0,14.0,0.0
6279,80.0,0.0,120.0,4.0,0.0
6280,80.0,15.0,120.0,10.0,0.0
6281,78.0,5.0,90.0,11.0,0.0
6282,78.0,0.0,120.0,4.0,0.0
6283,63.0,0.0,120.0,14.0,0.0
6284,63.0,120.0,120.0,13.0,0.0
6285,78.0,0.0,120.0,10.0,0.0
6286,78.0,0.0,90.0,5.0,0.0
6287,63.0,0.0,120.0,7.0,0.0
6288,72.0,0.0,60.0,6.0,0.0
6289,72.0,15.0,60.0,12.0,0.0
6290,72.0,0.0,240.0,12.0,0.0
6291,65.0,0.0,120.0,7.0,0.0
6292,77.0,85.0,240.0,5.0,0.0
6293,80.0,0.0,120.0,4.0,0.0
6294,65.0,100.0,120.0,14.0,0.0
6295,72.0,0.0,240.0,6.0,0.0
6296,77.0,0.0,240.0,11.0,0.0
6297,80.0,0.0,120.0,10.0,0.0
6298,65.0,0.0,120.0,13.0,0.0
6299,66.0,0.0,90.0,14.0,0.0
6300,66.0,0.0,90.0,13.0,0.0
6301,82.0,0.0,90.0,4.0,0.0
6302,66.0,35.0,90.0,7.0,0.0
6303,82.0,0.0,90.0,10.0,0.0
6304,63.0,5.0,90.0,13.0,0.0
6305,83.0,0.0,90.0,10.0,0.0
6306,83.0,0.0,90.0,4.0,0.0
6307,63.0,0.0,90.0,7.0,0.0
6308,63.0,0.0,90.0,14.0,0.0
6309,78.0,0.0,60.0,5.0,0.0
6310,78.0,0.0,60.0,11.0,0.0
6311,75.0,0.0,60.0,6.0,0.0
6312,75.0,135.0,60.0,12.0,0.0
6313,75.0,85.0,240.0,6.0,0.0
6314,78.0,0.0,120.0,11.0,0.0
6315,78.0,0.0,120.0,5.0,0.0
6316,83.0,0.0,600.0,10.0,0.0
6317,63.0,0.0,120.0,7.0,0.0
6318,75.0,0.0,240.0,12.0,0.0
6319,63.0,0.0,120.0,13.0,0.0
6320,63.0,100.0,120.0,14.0,0.0
6321,83.0,0.0,600.0,4.0,0.0
6322,65.0,0.0,90.0,14.0,0.0
6323,80.0,0.0,90.0,5.0,0.0
6324,80.0,35.0,90.0,11.0,0.0
6325,65.0,0.0,90.0,13.0,0.0
6326,65.0,0.0,90.0,7.0,0.0
6327,77.0,0.0,90.0,5.0,0.0
6328,62.0,0.0,90.0,13.0,0.0
6329,77.0,5.0,90.0,11.0,0.0
6330,62.0,0.0,90.0,14.0,0.0
6331,62.0,0.0,90.0,7.0,0.0
6332,68.0,0.0,60.0,12.0,0.0
6333,80.0,135.0,60.0,6.0,0.0
6334,77.0,0.0,120.0,5.0,0.0
6335,62.0,0.0,120.0,13.0,0.0
6336,62.0,135.0,120.0,7.0,0.0
6337,68.0,0.0,120.0,12.0,0.0
6338,77.0,90.0,240.0,11.0,0.0
6339,62.0,0.0,120.0,14.0,0.0
6340,80.0,0.0,240.0,6.0,0.0
6341,70.0,0.0,60.0,6.0,0.0
6342,70.0,0.0,60.0,10.0,0.0
6343,70.0,0.0,60.0,0.0,0.0
6344,70.0,0.0,60.0,11.0,0.0
6345,82.0,0.0,60.0,4.0,0.0
6346,70.0,0.0,60.0,2.0,0.0
6347,70.0,135.0,60.0,1.0,0.0
6348,70.0,0.0,240.0,2.0,0.0
6349,70.0,0.0,240.0,10.0,0.0
6350,82.0,100.0,120.0,4.0,0.0
6351,70.0,0.0,240.0,0.0,0.0
6352,70.0,85.0,240.0,1.0,0.0
6353,70.0,0.0,240.0,6.0,0.0
6354,70.0,0.0,240.0,11.0,0.0
6355,83.0,35.0,90.0,4.0,0.0
6356,80.0,5.0,90.0,4.0,0.0
6357,70.0,0.0,60.0,6.0,0.0
6358,70.0,0.0,60.0,1.0,0.0
6359,70.0,0.0,60.0,10.0,0.0
6360,70.0,0.0,60.0,2.0,0.0
6361,70.0,0.0,60.0,11.0,0.0
6362,70.0,135.0,60.0,0.0,0.0
6363,70.0,0.0,240.0,1.0,0.0
6364,80.0,100.0,120.0,4.0,0.0
6365,70.0,85.0,240.0,10.0,0.0
6366,70.0,0.0,240.0,2.0,0.0
6367,70.0,0.0,240.0,0.0,0.0
6368,70.0,0.0,240.0,6.0,0.0
6369,70.0,0.0,240.0,11.0,0.0
6370,82.0,35.0,90.0,4.0,0.0
6371,78.0,5.0,90.0,4.0,0.0
6372,70.0,0.0,60.0,11.0,0.0
6373,70.0,0.0,60.0,6.0,0.0
6374,70.0,0.0,60.0,1.0,0.0
6375,70.0,135.0,60.0,10.0,0.0
6376,70.0,0.0,60.0,0.0,0.0
6377,70.0,0.0,60.0,2.0,0.0
6378,78.0,120.0,120.0,4.0,0.0
6379,63.0,0.0,120.0,13.0,0.0
6380,70.0,0.0,120.0,11.0,0.0
6381,63.0,0.0,120.0,14.0,0.0
6382,70.0,0.0,120.0,1.0,0.0
6383,70.0,0.0,120.0,0.0,0.0
6384,70.0,0.0,120.0,2.0,0.0
6385,70.0,0.0,120.0,10.0,0.0
6386,70.0,0.0,120.0,6.0,0.0
6387,80.0,105.0,120.0,4.0,0.0
6388,82.0,120.0,120.0,4.0,0.0
6389,58.0,0.0,60.0,7.0,0.0
6390,75.0,15.0,60.0,5.0,0.0
6391,58.0,0.0,60.0,12.0,0.0
6392,75.0,100.0,120.0,5.0,0.0
6393,83.0,0.0,120.0,4.0,0.0
6394,75.0,0.0,120.0,10.0,0.0
6395,58.0,0.0,240.0,12.0,0.0
6396,66.0,0.0,120.0,11.0,0.0
6397,58.0,85.0,240.0,7.0,0.0
6398,77.0,0.0,90.0,5.0,0.0
6399,85.0,35.0,90.0,4.0,0.0
6400,73.0,0.0,90.0,5.0,0.0
6401,82.0,5.0,90.0,4.0,0.0
6402,58.0,0.0,60.0,7.0,0.0
6403,58.0,135.0,60.0,12.0,0.0
6404,70.0,0.0,120.0,11.0,0.0
6405,73.0,100.0,120.0,5.0,0.0
6406,58.0,0.0,240.0,12.0,0.0
6407,58.0,85.0,240.0,7.0,0.0
6408,78.0,0.0,120.0,10.0,0.0
6409,82.0,0.0,120.0,4.0,0.0
6410,75.0,0.0,90.0,5.0,0.0
6411,83.0,35.0,90.0,4.0,0.0
6412,80.0,5.0,90.0,4.0,0.0
6413,72.0,0.0,90.0,5.0,0.0
6414,58.0,135.0,60.0,12.0,0.0
6415,58.0,0.0,60.0,7.0,0.0
6416,75.0,0.0,120.0,11.0,0.0
6417,58.0,90.0,240.0,13.0,0.0
6418,58.0,0.0,240.0,7.0,0.0
6419,78.0,0.0,120.0,10.0,0.0
6420,58.0,120.0,120.0,12.0,0.0
6421,58.0,0.0,240.0,14.0,0.0
6422,80.0,0.0,240.0,4.0,0.0
6423,72.0,0.0,120.0,5.0,0.0
6424,74.0,15.0,120.0,5.0,0.0
6425,75.0,120.0,120.0,5.0,0.0
6426,46.0,0.0,60.0,14.0,0.0
6427,46.0,0.0,60.0,13.0,0.0
6428,80.0,15.0,60.0,4.0,0.0
6429,70.0,0.0,60.0,6.0,0.0
6430,46.0,0.0,60.0,7.0,0.0
6431,77.0,0.0,120.0,10.0,0.0
6432,46.0,0.0,240.0,13.0,0.0
6433,77.0,0.0,120.0,5.0,0.0
6434,74.0,0.0,240.0,6.0,0.0
6435,46.0,0.0,240.0,7.0,0.0
6436,74.0,0.0,120.0,11.0,0.0
6437,80.0,0.0,120.0,4.0,0.0
6438,70.0,100.0,120.0,12.0,0.0
6439,46.0,85.0,240.0,14.0,0.0
6440,82.0,35.0,90.0,4.0,0.0
6441,78.0,0.0,90.0,5.0,0.0
6442,75.0,0.0,90.0,5.0,0.0
6443,78.0,5.0,90.0,4.0,0.0
6444,46.0,0.0,60.0,7.0,0.0
6445,70.0,135.0,60.0,6.0,0.0
6446,46.0,0.0,60.0,13.0,0.0
6447,46.0,0.0,60.0,14.0,0.0
6448,78.0,0.0,120.0,4.0,0.0
6449,70.0,0.0,240.0,6.0,0.0
6450,46.0,0.0,240.0,13.0,0.0
6451,75.0,100.0,120.0,11.0,0.0
6452,75.0,0.0,120.0,5.0,0.0
6453,70.0,0.0,120.0,12.0,0.0
6454,46.0,0.0,240.0,14.0,0.0
6455,78.0,0.0,120.0,10.0,0.0
6456,46.0,85.0,240.0,7.0,0.0
6457,80.0,35.0,90.0,4.0,0.0
6458,77.0,0.0,90.0,5.0,0.0
6459,74.0,5.0,90.0,5.0,0.0
6460,77.0,0.0,90.0,4.0,0.0
6461,70.0,0.0,60.0,6.0,0.0
6462,46.0,0.0,60.0,14.0,0.0
6463,46.0,0.0,60.0,13.0,0.0
6464,46.0,135.0,60.0,7.0,0.0
6465,77.0,0.0,120.0,4.0,0.0
6466,77.0,0.0,120.0,11.0,0.0
6467,74.0,0.0,240.0,12.0,0.0
6468,46.0,0.0,240.0,13.0,0.0
6469,80.0,0.0,120.0,10.0,0.0
6470,74.0,120.0,120.0,5.0,0.0
6471,70.0,0.0,240.0,6.0,0.0
6472,46.0,85.0,240.0,14.0,0.0
6473,46.0,0.0,240.0,7.0,0.0
6474,75.0,0.0,120.0,5.0,0.0
6475,78.0,0.0,120.0,4.0,0.0
6476,75.0,0.0,120.0,11.0,0.0
6477,78.0,15.0,120.0,10.0,0.0
6478,80.0,120.0,120.0,4.0,0.0
6479,77.0,5.0,90.0,11.0,0.0
6480,77.0,0.0,90.0,10.0,0.0
6481,77.0,0.0,90.0,5.0,0.0
6482,74.0,15.0,60.0,12.0,0.0
6483,74.0,0.0,60.0,6.0,0.0
6484,56.0,0.0,60.0,14.0,0.0
6485,56.0,0.0,60.0,13.0,0.0
6486,56.0,0.0,60.0,7.0,0.0
6487,54.0,0.0,240.0,14.0,0.0
6488,74.0,0.0,240.0,12.0,0.0
6489,82.0,0.0,120.0,10.0,0.0
6490,54.0,15.0,240.0,7.0,0.0
6491,77.0,70.0,270.0,5.0,0.0
6492,54.0,0.0,240.0,13.0,0.0
6493,82.0,100.0,120.0,4.0,0.0
6494,74.0,0.0,240.0,6.0,0.0
6495,77.0,0.0,270.0,11.0,0.0
6496,83.0,35.0,90.0,10.0,0.0
6497,83.0,0.0,90.0,4.0,0.0
6498,80.0,5.0,90.0,4.0,0.0
6499,80.0,0.0,90.0,10.0,0.0
6500,59.0,0.0,60.0,14.0,0.0
6501,75.0,135.0,60.0,12.0,0.0
6502,59.0,0.0,60.0,7.0,0.0
6503,75.0,0.0,60.0,5.0,0.0
6504,59.0,0.0,60.0,13.0,0.0
6505,75.0,0.0,60.0,11.0,0.0
6506,75.0,0.0,60.0,6.0,0.0
6507,53.0,0.0,240.0,13.0,0.0
6508,68.0,0.0,240.0,12.0,0.0
6509,53.0,0.0,240.0,7.0,0.0
6510,53.0,0.0,240.0,14.0,0.0
6511,80.0,100.0,120.0,4.0,0.0
6512,75.0,70.0,270.0,11.0,0.0
6513,68.0,15.0,240.0,6.0,0.0
6514,80.0,0.0,120.0,10.0,0.0
6515,75.0,0.0,270.0,5.0,0.0
6516,82.0,0.0,90.0,10.0,0.0
6517,82.0,35.0,90.0,4.0,0.0
6518,78.0,5.0,90.0,10.0,0.0
6519,78.0,0.0,90.0,4.0,0.0
6520,58.0,0.0,60.0,13.0,0.0
6521,58.0,0.0,60.0,7.0,0.0
6522,74.0,0.0,60.0,5.0,0.0
6523,70.0,135.0,60.0,6.0,0.0
6524,58.0,0.0,60.0,14.0,0.0
6525,74.0,0.0,60.0,11.0,0.0
6526,70.0,0.0,60.0,12.0,0.0
6527,75.0,0.0,120.0,5.0,0.0
6528,51.0,0.0,120.0,13.0,0.0
6529,70.0,0.0,120.0,12.0,0.0
6530,70.0,0.0,120.0,6.0,0.0
6531,51.0,120.0,120.0,14.0,0.0
6532,78.0,0.0,120.0,10.0,0.0
6533,78.0,0.0,120.0,4.0,0.0
6534,75.0,0.0,120.0,11.0,0.0
6535,51.0,85.0,240.0,7.0,0.0
6536,75.0,0.0,120.0,4.0,0.0
6537,54.0,0.0,120.0,14.0,0.0
6538,54.0,15.0,120.0,13.0,0.0
6539,75.0,0.0,120.0,10.0,0.0
6540,77.0,120.0,120.0,4.0,0.0
6541,58.0,0.0,90.0,14.0,0.0
6542,77.0,0.0,120.0,10.0,0.0
6543,58.0,5.0,90.0,13.0,0.0
6544,58.0,15.0,60.0,7.0,0.0
6545,78.0,0.0,120.0,10.0,0.0
6546,75.0,0.0,120.0,11.0,0.0
6547,70.0,100.0,120.0,12.0,0.0
6548,70.0,0.0,120.0,6.0,0.0
6549,78.0,0.0,120.0,4.0,0.0
6550,75.0,0.0,120.0,5.0,0.0
6551,63.0,0.0,120.0,14.0,0.0
6552,63.0,0.0,120.0,7.0,0.0
6553,63.0,0.0,120.0,13.0,0.0
6554,65.0,0.0,90.0,14.0,0.0
6555,65.0,0.0,90.0,13.0,0.0
6556,65.0,0.0,90.0,7.0,0.0
6557,80.0,0.0,90.0,10.0,0.0
6558,80.0,120.0,90.0,4.0,0.0
6559,61.0,0.0,90.0,13.0,0.0
6560,61.0,140.0,90.0,7.0,0.0
6561,76.0,0.0,90.0,10.0,0.0
6562,76.0,0.0,90.0,4.0,0.0
6563,61.0,0.0,90.0,14.0,0.0
6564,70.0,0.0,120.0,6.0,0.0
6565,76.0,0.0,120.0,4.0,0.0
6566,61.0,0.0,120.0,14.0,0.0
6567,70.0,0.0,120.0,12.0,0.0
6568,79.0,0.0,120.0,11.0,0.0
6569,61.0,0.0,120.0,7.0,0.0
6570,79.0,0.0,120.0,5.0,0.0
6571,61.0,100.0,120.0,13.0,0.0
6572,76.0,0.0,120.0,10.0,0.0
6573,63.0,0.0,90.0,13.0,0.0
6574,63.0,0.0,90.0,7.0,0.0
6575,63.0,0.0,90.0,14.0,0.0
6576,78.0,120.0,90.0,4.0,0.0
6577,78.0,0.0,90.0,10.0,0.0
6578,75.0,120.0,90.0,4.0,0.0
6579,59.0,0.0,90.0,7.0,0.0
6580,59.0,0.0,90.0,13.0,0.0
6581,59.0,0.0,90.0,14.0,0.0
6582,75.0,0.0,90.0,10.0,0.0
6583,75.0,0.0,240.0,10.0,0.0
6584,75.0,90.0,240.0,4.0,0.0
6585,59.0,0.0,90.0,7.0,0.0
6586,59.0,0.0,90.0,14.0,0.0
6587,80.0,0.0,120.0,5.0,0.0
6588,80.0,0.0,120.0,11.0,0.0
6589,71.0,120.0,120.0,12.0,0.0
6590,71.0,0.0,120.0,6.0,0.0
6591,59.0,20.0,90.0,13.0,0.0
6592,75.0,0.0,120.0,6.0,0.0
6593,75.0,0.0,120.0,12.0,0.0
6594,56.0,0.0,120.0,7.0,0.0
6595,56.0,0.0,120.0,13.0,0.0
6596,56.0,15.0,120.0,14.0,0.0
6597,73.0,0.0,120.0,6.0,0.0
6598,58.0,120.0,120.0,7.0,0.0
6599,73.0,0.0,120.0,12.0,0.0
6600,58.0,0.0,120.0,13.0,0.0
6601,58.0,0.0,120.0,14.0,0.0
6602,75.0,0.0,60.0,4.0,0.0
6603,75.0,15.0,60.0,10.0,0.0
6604,80.0,85.0,240.0,10.0,0.0
6605,75.0,0.0,120.0,6.0,0.0
6606,59.0,0.0,120.0,14.0,0.0
6607,59.0,100.0,120.0,13.0,0.0
6608,75.0,0.0,120.0,12.0,0.0
6609,80.0,0.0,240.0,4.0,0.0
6610,59.0,0.0,120.0,7.0,0.0
6611,61.0,0.0,90.0,13.0,0.0
6612,76.0,0.0,90.0,6.0,0.0
6613,76.0,35.0,90.0,12.0,0.0
6614,61.0,0.0,90.0,14.0,0.0
6615,61.0,0.0,90.0,7.0,0.0
6616,58.0,0.0,90.0,14.0,0.0
6617,73.0,0.0,90.0,6.0,0.0
6618,58.0,5.0,90.0,7.0,0.0
6619,73.0,0.0,90.0,12.0,0.0
6620,58.0,0.0,90.0,13.0,0.0
6621,79.0,0.0,60.0,10.0,0.0
6622,79.0,0.0,60.0,4.0,0.0
6623,75.0,135.0,60.0,5.0,0.0
6624,75.0,0.0,60.0,11.0,0.0
6625,58.0,0.0,120.0,14.0,0.0
6626,73.0,0.0,120.0,6.0,0.0
6627,77.0,85.0,240.0,11.0,0.0
6628,80.0,0.0,240.0,4.0,0.0
6629,80.0,0.0,240.0,10.0,0.0
6630,77.0,0.0,240.0,5.0,0.0
6631,73.0,0.0,120.0,12.0,0.0
6632,58.0,0.0,120.0,7.0,0.0
6633,58.0,100.0,120.0,13.0,0.0
6634,59.0,0.0,90.0,14.0,0.0
6635,75.0,0.0,90.0,12.0,0.0
6636,59.0,35.0,90.0,7.0,0.0
6637,59.0,0.0,90.0,13.0,0.0
6638,75.0,0.0,90.0,6.0,0.0
6639,56.0,0.0,90.0,7.0,0.0
6640,71.0,0.0,90.0,6.0,0.0
6641,71.0,0.0,90.0,12.0,0.0
6642,56.0,0.0,90.0,13.0,0.0
6643,56.0,5.0,90.0,14.0,0.0
6644,82.0,0.0,60.0,4.0,0.0
6645,79.0,135.0,60.0,5.0,0.0
6646,79.0,0.0,60.0,11.0,0.0
6647,82.0,0.0,60.0,10.0,0.0
6648,83.0,100.0,120.0,10.0,0.0
6649,56.0,85.0,240.0,7.0,0.0
6650,80.0,0.0,240.0,11.0,0.0
6651,71.0,0.0,240.0,12.0,0.0
6652,56.0,0.0,240.0,14.0,0.0
6653,83.0,0.0,120.0,4.0,0.0
6654,56.0,0.0,240.0,13.0,0.0
6655,80.0,0.0,240.0,5.0,0.0
6656,71.0,0.0,240.0,6.0,0.0
6657,85.0,35.0,90.0,10.0,0.0
6658,85.0,0.0,90.0,4.0,0.0
6659,82.0,5.0,90.0,10.0,0.0
6660,82.0,0.0,90.0,4.0,0.0
6661,75.0,0.0,60.0,12.0,0.0
6662,54.0,0.0,60.0,13.0,0.0
6663,75.0,0.0,60.0,6.0,0.0
6664,54.0,135.0,60.0,7.0,0.0
6665,75.0,0.0,60.0,11.0,0.0
6666,75.0,0.0,60.0,5.0,0.0
6667,54.0,0.0,60.0,14.0,0.0
6668,80.0,0.0,120.0,4.0,0.0
6669,53.0,0.0,240.0,13.0,0.0
6670,74.0,0.0,240.0,5.0,0.0
6671,74.0,85.0,240.0,11.0,0.0
6672,77.0,0.0,240.0,6.0,0.0
6673,53.0,0.0,240.0,7.0,0.0
6674,53.0,0.0,240.0,14.0,0.0
6675,77.0,0.0,240.0,12.0,0.0
6676,80.0,100.0,120.0,10.0,0.0
6677,82.0,35.0,90.0,4.0,0.0
6678,82.0,0.0,90.0,10.0,0.0
6679,78.0,5.0,90.0,10.0,0.0
6680,78.0,0.0,90.0,4.0,0.0
6681,56.0,135.0,60.0,14.0,0.0
6682,75.0,0.0,60.0,5.0,0.0
6683,56.0,0.0,60.0,13.0,0.0
6684,56.0,0.0,60.0,7.0,0.0
6685,71.0,0.0,60.0,6.0,0.0
6686,75.0,0.0,60.0,11.0,0.0
6687,71.0,0.0,60.0,12.0,0.0
6688,77.0,100.0,120.0,10.0,0.0
6689,77.0,0.0,240.0,5.0,0.0
6690,71.0,0.0,240.0,6.0,0.0
6691,77.0,0.0,120.0,4.0,0.0
6692,77.0,0.0,240.0,11.0,0.0
6693,71.0,0.0,240.0,12.0,0.0
6694,50.0,0.0,240.0,7.0,0.0
6695,50.0,85.0,240.0,13.0,0.0
6696,50.0,0.0,240.0,14.0,0.0
6697,78.0,35.0,90.0,4.0,0.0
6698,78.0,0.0,90.0,10.0,0.0
6699,75.0,0.0,90.0,4.0,0.0
6700,75.0,5.0,90.0,10.0,0.0
6701,53.0,0.0,60.0,13.0,0.0
6702,71.0,0.0,60.0,6.0,0.0
6703,53.0,0.0,60.0,7.0,0.0
6704,80.0,0.0,60.0,11.0,0.0
6705,53.0,0.0,60.0,14.0,0.0
6706,71.0,0.0,60.0,12.0,0.0
6707,80.0,135.0,60.0,5.0,0.0
6708,70.0,120.0,120.0,12.0,0.0
6709,80.0,85.0,240.0,4.0,0.0
6710,70.0,0.0,120.0,6.0,0.0
6711,46.0,120.0,360.0,13.0,0.0
6712,74.0,0.0,120.0,5.0,0.0
6713,46.0,0.0,360.0,7.0,0.0
6714,74.0,0.0,120.0,11.0,0.0
6715,46.0,0.0,360.0,14.0,0.0
6716,80.0,0.0,240.0,10.0,0.0
6717,72.0,15.0,120.0,12.0,0.0
6718,75.0,0.0,120.0,5.0,0.0
6719,75.0,0.0,120.0,11.0,0.0
6720,72.0,0.0,120.0,6.0,0.0
6721,77.0,0.0,90.0,5.0,0.0
6722,74.0,0.0,90.0,6.0,0.0
6723,74.0,5.0,90.0,12.0,0.0
6724,77.0,0.0,90.0,11.0,0.0
6725,77.0,0.0,60.0,10.0,0.0
6726,77.0,15.0,60.0,4.0,0.0
6727,77.0,100.0,120.0,11.0,0.0
6728,74.0,0.0,240.0,12.0,0.0
6729,74.0,0.0,240.0,6.0,0.0
6730,70.0,85.0,240.0,4.0,0.0
6731,77.0,0.0,120.0,5.0,0.0
6732,70.0,0.0,240.0,10.0,0.0
6733,78.0,0.0,90.0,5.0,0.0
6734,78.0,35.0,90.0,11.0,0.0
6735,75.0,0.0,90.0,5.0,0.0
6736,75.0,5.0,90.0,11.0,0.0
6737,68.0,0.0,60.0,6.0,0.0
6738,59.0,0.0,60.0,13.0,0.0
6739,68.0,0.0,60.0,12.0,0.0
6740,80.0,0.0,60.0,4.0,0.0
6741,59.0,135.0,60.0,14.0,0.0
6742,59.0,0.0,60.0,7.0,0.0
6743,80.0,0.0,60.0,10.0,0.0
6744,58.0,0.0,240.0,13.0,0.0
6745,78.0,85.0,240.0,4.0,0.0
6746,75.0,100.0,120.0,5.0,0.0
6747,70.0,0.0,240.0,6.0,0.0
6748,58.0,0.0,240.0,7.0,0.0
6749,58.0,0.0,240.0,14.0,0.0
6750,78.0,0.0,240.0,10.0,0.0
6751,75.0,0.0,120.0,11.0,0.0
6752,70.0,0.0,240.0,12.0,0.0
6753,77.0,0.0,90.0,11.0,0.0
6754,77.0,35.0,90.0,5.0,0.0
6755,74.0,5.0,90.0,5.0,0.0
6756,74.0,0.0,90.0,11.0,0.0
6757,65.0,0.0,60.0,12.0,0.0
6758,77.0,0.0,60.0,6.0,0.0
6759,56.0,0.0,60.0,7.0,0.0
6760,56.0,135.0,60.0,14.0,0.0
6761,56.0,0.0,60.0,13.0,0.0
6762,83.0,0.0,60.0,4.0,0.0
6763,83.0,0.0,60.0,10.0,0.0
6764,82.0,120.0,120.0,10.0,0.0
6765,75.0,0.0,240.0,5.0,0.0
6766,66.0,90.0,240.0,12.0,0.0
6767,54.0,0.0,240.0,13.0,0.0
6768,70.0,0.0,240.0,6.0,0.0
6769,75.0,0.0,240.0,11.0,0.0
6770,54.0,0.0,240.0,14.0,0.0
6771,82.0,0.0,120.0,4.0,0.0
6772,54.0,0.0,240.0,7.0,0.0
6773,80.0,15.0,120.0,10.0,0.0
6774,80.0,0.0,120.0,4.0,0.0
6775,78.0,120.0,120.0,4.0,0.0
6776,78.0,0.0,120.0,10.0,0.0
6777,51.0,0.0,60.0,7.0,0.0
6778,70.0,15.0,60.0,12.0,0.0
6779,70.0,0.0,60.0,6.0,0.0
6780,51.0,0.0,60.0,14.0,0.0
6781,75.0,0.0,60.0,5.0,0.0
6782,51.0,0.0,60.0,13.0,0.0
6783,75.0,0.0,60.0,11.0,0.0
6784,56.0,0.0,120.0,7.0,0.0
6785,56.0,100.0,120.0,14.0,0.0
6786,68.0,0.0,240.0,12.0,0.0
6787,71.0,0.0,120.0,11.0,0.0
6788,77.0,0.0,120.0,10.0,0.0
6789,56.0,0.0,120.0,13.0,0.0
6790,68.0,85.0,240.0,6.0,0.0
6791,77.0,0.0,120.0,4.0,0.0
6792,71.0,0.0,120.0,5.0,0.0
6793,70.0,0.0,120.0,5.0,0.0
6794,58.0,0.0,120.0,13.0,0.0
6795,58.0,15.0,120.0,7.0,0.0
6796,58.0,0.0,120.0,14.0,0.0
6797,78.0,0.0,90.0,10.0,0.0
6798,70.0,0.0,120.0,11.0,0.0
6799,78.0,20.0,90.0,4.0,0.0
6800,59.0,0.0,90.0,14.0,0.0
6801,59.0,0.0,90.0,7.0,0.0
6802,75.0,0.0,90.0,10.0,0.0
6803,68.0,0.0,90.0,5.0,0.0
6804,75.0,0.0,90.0,4.0,0.0
6805,68.0,5.0,90.0,11.0,0.0
6806,59.0,0.0,90.0,13.0,0.0
6807,68.0,0.0,60.0,12.0,0.0
6808,68.0,135.0,60.0,6.0,0.0
6809,70.0,0.0,240.0,5.0,0.0
6810,58.0,85.0,240.0,14.0,0.0
6811,70.0,0.0,120.0,4.0,0.0
6812,65.0,0.0,120.0,12.0,0.0
6813,70.0,100.0,120.0,10.0,0.0
6814,58.0,0.0,240.0,13.0,0.0
6815,58.0,0.0,240.0,7.0,0.0
6816,68.0,0.0,240.0,6.0,0.0
6817,68.0,0.0,120.0,11.0,0.0
6818,75.0,0.0,90.0,10.0,0.0
6819,63.0,0.0,120.0,12.0,0.0
6820,66.0,15.0,120.0,11.0,0.0
6821,75.0,20.0,90.0,4.0,0.0
6822,74.0,0.0,90.0,10.0,0.0
6823,65.0,0.0,90.0,12.0,0.0
6824,65.0,5.0,90.0,11.0,0.0
6825,74.0,0.0,90.0,4.0,0.0
6826,46.0,0.0,60.0,7.0,0.0
6827,68.0,0.0,60.0,6.0,0.0
6828,46.0,135.0,60.0,13.0,0.0
6829,70.0,0.0,60.0,5.0,0.0
6830,46.0,0.0,60.0,14.0,0.0
6831,51.0,120.0,120.0,13.0,0.0
6832,75.0,120.0,1080.0,10.0,0.0
6833,66.0,0.0,120.0,6.0,0.0
6834,70.0,0.0,120.0,5.0,0.0
6835,66.0,0.0,120.0,11.0,0.0
6836,51.0,0.0,120.0,7.0,0.0
6837,63.0,0.0,120.0,12.0,0.0
6838,75.0,0.0,120.0,4.0,0.0
6839,51.0,0.0,120.0,14.0,0.0
6840,68.0,0.0,120.0,11.0,0.0
6841,65.0,100.0,120.0,12.0,0.0
6842,70.0,0.0,90.0,11.0,0.0
6843,66.0,0.0,90.0,12.0,0.0
6844,82.0,140.0,90.0,0.0,0.0
6845,82.0,85.0,240.0,0.0,0.0
6846,70.0,0.0,120.0,11.0,0.0
6847,66.0,100.0,120.0,12.0,0.0
6848,68.0,35.0,90.0,12.0,0.0
6849,71.0,0.0,90.0,11.0,0.0
6850,68.0,5.0,90.0,11.0,0.0
6851,65.0,0.0,90.0,12.0,0.0
6852,82.0,135.0,60.0,0.0,0.0
6853,65.0,0.0,120.0,12.0,0.0
6854,82.0,0.0,120.0,0.0,0.0
6855,68.0,100.0,120.0,11.0,0.0
6856,70.0,120.0,90.0,11.0,0.0
6857,66.0,0.0,90.0,12.0,0.0
6858,66.0,20.0,90.0,11.0,0.0
6859,63.0,0.0,90.0,12.0,0.0
6860,63.0,0.0,120.0,12.0,0.0
6861,66.0,120.0,120.0,11.0,0.0
6862,75.0,90.0,1320.0,10.0,0.0
6863,65.0,0.0,120.0,12.0,0.0
6864,68.0,100.0,120.0,11.0,0.0
6865,66.0,5.0,90.0,12.0,0.0
6866,70.0,120.0,120.0,11.0,0.0
6867,70.0,0.0,60.0,1.0,0.0
6868,70.0,0.0,60.0,2.0,0.0
6869,70.0,15.0,60.0,0.0,0.0
6870,70.0,0.0,120.0,11.0,0.0
6871,70.0,85.0,240.0,2.0,0.0
6872,66.0,100.0,120.0,12.0,0.0
6873,70.0,0.0,240.0,1.0,0.0
6874,70.0,0.0,240.0,0.0,0.0
6875,71.0,15.0,120.0,11.0,0.0
6876,68.0,20.0,90.0,12.0,0.0
6877,68.0,120.0,120.0,11.0,0.0
6878,65.0,5.0,90.0,12.0,0.0
6879,70.0,0.0,60.0,1.0,0.0
6880,70.0,0.0,60.0,2.0,0.0
6881,70.0,15.0,60.0,0.0,0.0
6882,70.0,0.0,120.0,0.0,0.0
6883,70.0,100.0,120.0,2.0,0.0
6884,65.0,0.0,120.0,12.0,0.0
6885,70.0,0.0,120.0,1.0,0.0
6886,68.0,0.0,120.0,11.0,0.0
6887,66.0,20.0,90.0,12.0,0.0
6888,70.0,100.0,120.0,11.0,0.0
6889,66.0,0.0,90.0,11.0,0.0
6890,63.0,275.0,90.0,12.0,0.0
6891,63.0,0.0,360.0,12.0,0.0
6892,66.0,120.0,360.0,11.0,0.0
6893,63.0,0.0,60.0,7.0,0.0
6894,78.0,0.0,60.0,10.0,0.0
6895,63.0,15.0,60.0,13.0,0.0
6896,63.0,0.0,60.0,14.0,0.0
6897,78.0,0.0,120.0,4.0,0.0
6898,82.0,0.0,840.0,10.0,0.0
6899,75.0,0.0,120.0,5.0,0.0
6900,63.0,0.0,120.0,14.0,0.0
6901,63.0,0.0,120.0,13.0,0.0
6902,63.0,120.0,120.0,7.0,0.0
6903,64.0,0.0,120.0,13.0,0.0
6904,64.0,0.0,120.0,14.0,0.0
6905,64.0,105.0,120.0,7.0,0.0
6906,61.0,0.0,120.0,14.0,0.0
6907,61.0,120.0,120.0,13.0,0.0
6908,61.0,0.0,120.0,7.0,0.0
6909,75.0,0.0,60.0,12.0,0.0
6910,82.0,15.0,60.0,11.0,0.0
6911,61.0,0.0,120.0,7.0,0.0
6912,75.0,0.0,240.0,12.0,0.0
6913,79.0,90.0,240.0,11.0,0.0
6914,61.0,0.0,120.0,13.0,0.0
6915,75.0,120.0,120.0,6.0,0.0
6916,79.0,0.0,120.0,5.0,0.0
6917,61.0,0.0,120.0,14.0,0.0
6918,82.0,0.0,120.0,4.0,0.0
6919,63.0,15.0,120.0,14.0,0.0
6920,63.0,0.0,120.0,7.0,0.0
6921,63.0,0.0,120.0,13.0,0.0
6922,59.0,0.0,120.0,7.0,0.0
6923,59.0,0.0,120.0,13.0,0.0
6924,59.0,120.0,120.0,14.0,0.0
6925,75.0,15.0,60.0,11.0,0.0
6926,75.0,0.0,60.0,12.0,0.0
6927,59.0,120.0,120.0,7.0,0.0
6928,87.0,0.0,360.0,11.0,0.0
6929,59.0,0.0,120.0,14.0,0.0
6930,75.0,0.0,360.0,12.0,0.0
6931,59.0,0.0,120.0,13.0,0.0
6932,61.0,0.0,120.0,13.0,0.0
6933,80.0,100.0,120.0,10.0,0.0
6934,61.0,0.0,120.0,14.0,0.0
6935,61.0,0.0,120.0,7.0,0.0
6936,63.0,120.0,120.0,14.0,0.0
6937,63.0,0.0,120.0,13.0,0.0
6938,63.0,0.0,120.0,7.0,0.0
6939,79.0,5.0,90.0,10.0,0.0
6940,80.0,15.0,60.0,5.0,0.0
6941,80.0,0.0,120.0,4.0,0.0
6942,80.0,0.0,120.0,10.0,0.0
6943,64.0,0.0,120.0,7.0,0.0
6944,64.0,0.0,120.0,13.0,0.0
6945,64.0,100.0,120.0,14.0,0.0
6946,80.0,0.0,120.0,5.0,0.0
6947,66.0,0.0,90.0,14.0,0.0
6948,82.0,0.0,90.0,5.0,0.0
6949,66.0,0.0,90.0,13.0,0.0
6950,66.0,20.0,90.0,7.0,0.0
6951,82.0,100.0,120.0,10.0,0.0
6952,63.0,0.0,90.0,13.0,0.0
6953,63.0,0.0,90.0,14.0,0.0
6954,83.0,5.0,90.0,10.0,0.0
6955,78.0,0.0,90.0,5.0,0.0
6956,63.0,0.0,90.0,7.0,0.0
6957,83.0,0.0,60.0,11.0,0.0
6958,68.0,135.0,60.0,12.0,0.0
6959,68.0,0.0,240.0,12.0,0.0
6960,71.0,0.0,120.0,6.0,0.0
6961,63.0,0.0,120.0,7.0,0.0
6962,83.0,100.0,480.0,10.0,0.0
6963,80.0,85.0,240.0,11.0,0.0
6964,63.0,100.0,120.0,13.0,0.0
6965,63.0,0.0,120.0,14.0,0.0
6966,78.0,0.0,120.0,5.0,0.0
6967,83.0,0.0,120.0,4.0,0.0
6968,80.0,0.0,90.0,5.0,0.0
6969,64.0,0.0,90.0,14.0,0.0
6970,64.0,0.0,90.0,13.0,0.0
6971,64.0,35.0,90.0,7.0,0.0
6972,61.0,0.0,90.0,14.0,0.0
6973,61.0,0.0,90.0,13.0,0.0
6974,61.0,5.0,90.0,7.0,0.0
6975,76.0,0.0,90.0,5.0,0.0
6976,68.0,135.0,60.0,12.0,0.0
6977,76.0,0.0,60.0,11.0,0.0
6978,76.0,0.0,240.0,5.0,0.0
6979,61.0,0.0,240.0,14.0,0.0
6980,61.0,0.0,240.0,13.0,0.0
6981,61.0,85.0,240.0,7.0,0.0
6982,88.0,0.0,240.0,11.0,0.0
6983,68.0,0.0,240.0,12.0,0.0
6984,85.0,35.0,90.0,10.0,0.0
6985,82.0,5.0,90.0,10.0,0.0
6986,76.0,0.0,60.0,11.0,0.0
6987,73.0,0.0,60.0,12.0,0.0
6988,61.0,0.0,60.0,7.0,0.0
6989,82.0,0.0,60.0,4.0,0.0
6990,61.0,135.0,60.0,14.0,0.0
6991,76.0,0.0,60.0,5.0,0.0
6992,61.0,0.0,60.0,13.0,0.0
6993,73.0,0.0,60.0,6.0,0.0
6994,76.0,0.0,240.0,5.0,0.0
6995,73.0,100.0,120.0,6.0,0.0
6996,61.0,0.0,240.0,7.0,0.0
6997,73.0,0.0,120.0,12.0,0.0
6998,61.0,0.0,240.0,14.0,0.0
6999,61.0,0.0,240.0,13.0,0.0
7000,76.0,85.0,240.0,11.0,0.0
7001,82.0,0.0,120.0,10.0,0.0
7002,82.0,0.0,120.0,4.0,0.0
7003,83.0,35.0,90.0,4.0,0.0
7004,83.0,0.0,90.0,10.0,0.0
7005,75.0,0.0,90.0,12.0,0.0
7006,75.0,0.0,90.0,6.0,0.0
7007,80.0,5.0,90.0,10.0,0.0
7008,80.0,0.0,90.0,4.0,0.0
7009,71.0,0.0,90.0,12.0,0.0
7010,71.0,0.0,90.0,6.0,0.0
7011,61.0,0.0,60.0,13.0,0.0
7012,61.0,135.0,60.0,14.0,0.0
7013,76.0,0.0,60.0,11.0,0.0
7014,61.0,0.0,60.0,7.0,0.0
7015,76.0,0.0,60.0,5.0,0.0
7016,71.0,100.0,120.0,12.0,0.0
7017,61.0,0.0,240.0,13.0,0.0
7018,71.0,0.0,120.0,6.0,0.0
7019,80.0,0.0,120.0,10.0,0.0
7020,61.0,85.0,240.0,7.0,0.0
7021,61.0,0.0,240.0,14.0,0.0
7022,76.0,0.0,240.0,5.0,0.0
7023,76.0,0.0,240.0,11.0,0.0
7024,80.0,0.0,120.0,4.0,0.0
7025,73.0,0.0,90.0,12.0,0.0
7026,82.0,0.0,90.0,10.0,0.0
7027,82.0,35.0,90.0,4.0,0.0
7028,73.0,0.0,90.0,6.0,0.0
7029,79.0,0.0,90.0,4.0,0.0
7030,70.0,0.0,90.0,6.0,0.0
7031,79.0,5.0,90.0,10.0,0.0
7032,70.0,0.0,90.0,12.0,0.0
7033,61.0,0.0,60.0,14.0,0.0
7034,76.0,0.0,60.0,5.0,0.0
7035,76.0,0.0,60.0,11.0,0.0
7036,61.0,135.0,60.0,13.0,0.0
7037,61.0,0.0,60.0,7.0,0.0
7038,75.0,0.0,360.0,5.0,0.0
7039,79.0,20.0,330.0,4.0,0.0
7040,61.0,0.0,120.0,13.0,0.0
7041,75.0,0.0,120.0,11.0,0.0
7042,70.0,100.0,240.0,6.0,0.0
7043,61.0,0.0,120.0,14.0,0.0
7044,70.0,120.0,120.0,12.0,0.0
7045,61.0,0.0,120.0,7.0,0.0
7046,79.0,0.0,120.0,10.0,0.0
7047,58.0,0.0,120.0,7.0,0.0
7048,58.0,0.0,120.0,14.0,0.0
7049,58.0,0.0,120.0,13.0,0.0
7050,59.0,0.0,120.0,13.0,0.0
7051,59.0,0.0,120.0,14.0,0.0
7052,59.0,120.0,120.0,7.0,0.0
7053,79.0,0.0,120.0,11.0,0.0
7054,87.0,85.0,960.0,4.0,0.0
7055,82.0,0.0,120.0,10.0,0.0
7056,61.0,0.0,120.0,7.0,0.0
7057,61.0,100.0,120.0,13.0,0.0
7058,61.0,0.0,120.0,14.0,0.0
7059,75.0,0.0,120.0,12.0,0.0
7060,70.0,0.0,90.0,7.0,0.0
7061,70.0,0.0,90.0,14.0,0.0
7062,70.0,120.0,90.0,13.0,0.0
7063,59.0,0.0,90.0,14.0,0.0
7064,59.0,5.0,90.0,13.0,0.0
7065,59.0,0.0,90.0,7.0,0.0
7066,75.0,135.0,60.0,6.0,0.0
7067,82.0,0.0,120.0,11.0,0.0
7068,75.0,85.0,240.0,6.0,0.0
7069,61.0,0.0,120.0,7.0,0.0
7070,61.0,120.0,120.0,13.0,0.0
7071,70.0,0.0,480.0,5.0,0.0
7072,79.0,0.0,120.0,12.0,0.0
7073,61.0,0.0,120.0,14.0,0.0
7074,87.0,0.0,120.0,10.0,0.0
7075,59.0,0.0,120.0,7.0,0.0
7076,59.0,0.0,120.0,14.0,0.0
7077,59.0,15.0,120.0,13.0,0.0
7078,58.0,0.0,90.0,14.0,0.0
7079,58.0,5.0,90.0,7.0,0.0
7080,58.0,0.0,90.0,13.0,0.0
7081,75.0,135.0,60.0,6.0,0.0
7082,75.0,0.0,360.0,6.0,0.0
7083,59.0,120.0,120.0,7.0,0.0
7084,59.0,0.0,120.0,13.0,0.0
7085,59.0,0.0,120.0,14.0,0.0
7086,56.0,15.0,120.0,13.0,0.0
7087,56.0,0.0,120.0,14.0,0.0
7088,71.0,0.0,120.0,5.0,0.0
7089,56.0,0.0,120.0,7.0,0.0
7090,58.0,0.0,120.0,13.0,0.0
7091,73.0,5.0,90.0,5.0,0.0
7092,58.0,0.0,120.0,14.0,0.0
7093,58.0,120.0,120.0,7.0,0.0
7094,79.0,15.0,60.0,4.0,0.0
7095,59.0,0.0,120.0,13.0,0.0
7096,75.0,0.0,120.0,5.0,0.0
7097,59.0,0.0,120.0,7.0,0.0
7098,71.0,100.0,120.0,11.0,0.0
7099,75.0,0.0,120.0,10.0,0.0
7100,59.0,0.0,120.0,14.0,0.0
7101,68.0,0.0,120.0,12.0,0.0
7102,80.0,0.0,840.0,4.0,0.0
7103,68.0,0.0,90.0,7.0,0.0
7104,68.0,120.0,90.0,14.0,0.0
7105,68.0,0.0,90.0,13.0,0.0
7106,76.0,0.0,90.0,5.0,0.0
7107,58.0,0.0,90.0,7.0,0.0
7108,58.0,0.0,90.0,13.0,0.0
7109,74.0,5.0,90.0,5.0,0.0
7110,58.0,0.0,90.0,14.0,0.0
7111,76.0,135.0,60.0,6.0,0.0
7112,71.0,0.0,120.0,12.0,0.0
7113,80.0,120.0,120.0,10.0,0.0
7114,75.0,0.0,120.0,11.0,0.0
7115,75.0,0.0,120.0,5.0,0.0
7116,59.0,0.0,120.0,14.0,0.0
7117,59.0,0.0,120.0,13.0,0.0
7118,59.0,0.0,120.0,7.0,0.0
7119,75.0,85.0,240.0,6.0,0.0
7120,73.0,15.0,120.0,5.0,0.0
7121,58.0,0.0,120.0,13.0,0.0
7122,58.0,0.0,120.0,14.0,0.0
7123,58.0,0.0,120.0,7.0,0.0
7124,56.0,0.0,90.0,14.0,0.0
7125,56.0,0.0,90.0,7.0,0.0
7126,56.0,5.0,90.0,13.0,0.0
7127,71.0,0.0,90.0,5.0,0.0
7128,76.0,135.0,60.0,6.0,0.0
7129,58.0,0.0,120.0,14.0,0.0
7130,70.0,120.0,360.0,6.0,0.0
7131,58.0,120.0,120.0,13.0,0.0
7132,73.0,0.0,360.0,5.0,0.0
7133,58.0,0.0,120.0,7.0,0.0
7134,54.0,0.0,120.0,14.0,0.0
7135,54.0,0.0,120.0,7.0,0.0
7136,82.0,0.0,120.0,4.0,0.0
7137,54.0,100.0,120.0,13.0,0.0
7138,56.0,0.0,120.0,13.0,0.0
7139,83.0,20.0,90.0,4.0,0.0
7140,56.0,0.0,120.0,7.0,0.0
7141,56.0,0.0,120.0,14.0,0.0
7142,58.0,0.0,120.0,13.0,0.0
7143,78.0,0.0,120.0,11.0,0.0
7144,73.0,100.0,120.0,12.0,0.0
7145,58.0,0.0,120.0,7.0,0.0
7146,58.0,0.0,120.0,14.0,0.0
7147,85.0,0.0,120.0,10.0,0.0
7148,85.0,90.0,960.0,4.0,0.0
7149,66.0,120.0,90.0,7.0,0.0
7150,66.0,0.0,90.0,13.0,0.0
7151,66.0,0.0,90.0,14.0,0.0
7152,56.0,0.0,90.0,14.0,0.0
7153,56.0,5.0,90.0,13.0,0.0
7154,56.0,0.0,90.0,7.0,0.0
7155,71.0,135.0,60.0,6.0,0.0
7156,78.0,120.0,120.0,10.0,0.0
7157,58.0,0.0,120.0,14.0,0.0
7158,58.0,0.0,120.0,13.0,0.0
7159,73.0,0.0,120.0,11.0,0.0
7160,70.0,0.0,120.0,12.0,0.0
7161,70.0,85.0,240.0,6.0,0.0
7162,66.0,0.0,480.0,5.0,0.0
7163,58.0,0.0,120.0,7.0,0.0
7164,56.0,0.0,120.0,14.0,0.0
7165,56.0,0.0,120.0,7.0,0.0
7166,56.0,15.0,120.0,13.0,0.0
7167,54.0,0.0,90.0,14.0,0.0
7168,54.0,0.0,90.0,7.0,0.0
7169,54.0,5.0,90.0,13.0,0.0
7170,75.0,135.0,60.0,6.0,0.0
7171,56.0,0.0,120.0,7.0,0.0
7172,56.0,120.0,120.0,14.0,0.0
7173,56.0,0.0,120.0,13.0,0.0
7174,75.0,0.0,360.0,6.0,0.0
7175,68.0,0.0,120.0,5.0,0.0
7176,52.0,15.0,120.0,7.0,0.0
7177,52.0,0.0,120.0,14.0,0.0
7178,52.0,0.0,120.0,13.0,0.0
7179,70.0,120.0,120.0,5.0,0.0
7180,54.0,0.0,120.0,13.0,0.0
7181,54.0,0.0,120.0,7.0,0.0
7182,54.0,0.0,120.0,14.0,0.0
7183,75.0,15.0,60.0,4.0,0.0
7184,71.0,0.0,120.0,5.0,0.0
7185,76.0,90.0,960.0,4.0,0.0
7186,56.0,0.0,120.0,14.0,0.0
7187,56.0,0.0,120.0,13.0,0.0
7188,71.0,100.0,120.0,12.0,0.0
7189,76.0,0.0,120.0,11.0,0.0
7190,83.0,0.0,120.0,10.0,0.0
7191,56.0,0.0,120.0,7.0,0.0
7192,73.0,0.0,90.0,5.0,0.0
7193,64.0,120.0,90.0,7.0,0.0
7194,64.0,0.0,90.0,14.0,0.0
7195,64.0,0.0,90.0,13.0,0.0
7196,54.0,0.0,90.0,7.0,0.0
7197,70.0,5.0,90.0,5.0,0.0
7198,54.0,0.0,90.0,14.0,0.0
7199,54.0,0.0,90.0,13.0,0.0
7200,70.0,135.0,60.0,6.0,0.0
7201,56.0,0.0,120.0,7.0,0.0
7202,56.0,0.0,120.0,14.0,0.0
7203,68.0,85.0,240.0,6.0,0.0
7204,71.0,0.0,120.0,5.0,0.0
7205,56.0,120.0,120.0,13.0,0.0
7206,71.0,0.0,120.0,11.0,0.0
7207,68.0,0.0,120.0,12.0,0.0
7208,76.0,0.0,120.0,10.0,0.0
7209,54.0,15.0,120.0,14.0,0.0
7210,54.0,0.0,120.0,13.0,0.0
7211,70.0,0.0,120.0,5.0,0.0
7212,54.0,0.0,120.0,7.0,0.0
7213,52.0,0.0,90.0,14.0,0.0
7214,68.0,0.0,90.0,5.0,0.0
7215,52.0,0.0,90.0,13.0,0.0
7216,52.0,5.0,90.0,7.0,0.0
7217,73.0,135.0,60.0,6.0,0.0
7218,70.0,0.0,240.0,5.0,0.0
7219,54.0,0.0,120.0,7.0,0.0
7220,66.0,0.0,240.0,6.0,0.0
7221,78.0,0.0,120.0,11.0,0.0
7222,54.0,0.0,120.0,13.0,0.0
7223,70.0,0.0,120.0,12.0,0.0
7224,54.0,135.0,120.0,14.0,0.0
7225,85.0,0.0,240.0,10.0,0.0
7226,66.0,0.0,60.0,1.0,0.0
7227,78.0,0.0,60.0,10.0,0.0
7228,66.0,0.0,60.0,5.0,0.0
7229,66.0,135.0,60.0,2.0,0.0
7230,66.0,0.0,60.0,0.0,0.0
7231,66.0,0.0,60.0,4.0,0.0
7232,66.0,0.0,60.0,6.0,0.0
7233,66.0,85.0,240.0,1.0,0.0
7234,66.0,0.0,240.0,2.0,0.0
7235,66.0,0.0,240.0,6.0,0.0
7236,78.0,100.0,120.0,10.0,0.0
7237,66.0,0.0,240.0,5.0,0.0
7238,66.0,0.0,240.0,4.0,0.0
7239,66.0,0.0,240.0,0.0,0.0
7240,80.0,35.0,90.0,10.0,0.0
7241,76.0,5.0,90.0,10.0,0.0
7242,66.0,0.0,60.0,4.0,0.0
7243,66.0,0.0,60.0,0.0,0.0
7244,66.0,0.0,60.0,5.0,0.0
7245,66.0,0.0,60.0,2.0,0.0
7246,66.0,0.0,60.0,6.0,0.0
7247,66.0,135.0,60.0,1.0,0.0
7248,66.0,0.0,240.0,5.0,0.0
7249,66.0,0.0,240.0,2.0,0.0
7250,66.0,0.0,240.0,6.0,0.0
7251,66.0,0.0,240.0,0.0,0.0
7252,66.0,0.0,240.0,4.0,0.0
7253,76.0,100.0,120.0,10.0,0.0
7254,66.0,85.0,240.0,1.0,0.0
7255,78.0,35.0,90.0,10.0,0.0
7256,75.0,5.0,90.0,10.0,0.0
7257,66.0,0.0,60.0,6.0,0.0
7258,66.0,0.0,60.0,4.0,0.0
7259,66.0,0.0,60.0,0.0,0.0
7260,66.0,0.0,60.0,5.0,0.0
7261,66.0,135.0,60.0,2.0,0.0
7262,66.0,0.0,60.0,1.0,0.0
7263,66.0,0.0,120.0,0.0,0.0
7264,54.0,0.0,120.0,13.0,0.0
7265,54.0,0.0,120.0,14.0,0.0
7266,66.0,0.0,120.0,5.0,0.0
7267,66.0,0.0,120.0,6.0,0.0
7268,75.0,0.0,120.0,10.0,0.0
7269,66.0,120.0,120.0,1.0,0.0
7270,66.0,0.0,120.0,2.0,0.0
7271,66.0,0.0,120.0,4.0,0.0
7272,76.0,105.0,120.0,10.0,0.0
7273,78.0,120.0,120.0,10.0,0.0
7274,71.0,15.0,60.0,11.0,0.0
7275,54.0,0.0,60.0,7.0,0.0
7276,54.0,0.0,60.0,12.0,0.0
7277,54.0,0.0,60.0,3.0,0.0
7278,54.0,0.0,240.0,7.0,0.0
7279,71.0,0.0,120.0,11.0,0.0
7280,54.0,85.0,240.0,3.0,0.0
7281,54.0,0.0,240.0,12.0,0.0
7282,75.0,0.0,120.0,5.0,0.0
7283,71.0,0.0,120.0,4.0,0.0
7284,80.0,100.0,120.0,10.0,0.0
7285,73.0,35.0,90.0,11.0,0.0
7286,82.0,0.0,90.0,10.0,0.0
7287,70.0,5.0,90.0,11.0,0.0
7288,78.0,0.0,90.0,10.0,0.0
7289,54.0,0.0,60.0,7.0,0.0
7290,54.0,135.0,60.0,3.0,0.0
7291,54.0,0.0,60.0,12.0,0.0
7292,78.0,100.0,120.0,10.0,0.0
7293,54.0,0.0,240.0,7.0,0.0
7294,54.0,0.0,240.0,3.0,0.0
7295,70.0,0.0,120.0,11.0,0.0
7296,71.0,0.0,120.0,5.0,0.0
7297,75.0,0.0,120.0,4.0,0.0
7298,54.0,85.0,240.0,12.0,0.0
7299,71.0,0.0,90.0,11.0,0.0
7300,80.0,35.0,90.0,10.0,0.0
7301,76.0,5.0,90.0,10.0,0.0
7302,68.0,0.0,90.0,11.0,0.0
7303,54.0,135.0,60.0,7.0,0.0
7304,54.0,0.0,60.0,12.0,0.0
7305,54.0,0.0,60.0,3.0,0.0
7306,54.0,90.0,240.0,3.0,0.0
7307,75.0,120.0,120.0,4.0,0.0
7308,76.0,0.0,240.0,10.0,0.0
7309,68.0,0.0,120.0,11.0,0.0
7310,71.0,0.0,120.0,5.0,0.0
7311,54.0,0.0,240.0,7.0,0.0
7312,54.0,0.0,120.0,12.0,0.0
7313,70.0,15.0,120.0,11.0,0.0
7314,71.0,120.0,120.0,11.0,0.0
7315,42.0,0.0,60.0,13.0,0.0
7316,66.0,15.0,60.0,1.0,0.0
7317,54.0,0.0,60.0,3.0,0.0
7318,42.0,0.0,60.0,7.0,0.0
7319,66.0,0.0,60.0,0.0,0.0
7320,76.0,0.0,60.0,10.0,0.0
7321,66.0,0.0,60.0,2.0,0.0
7322,42.0,0.0,60.0,14.0,0.0
7323,70.0,0.0,120.0,12.0,0.0
7324,76.0,0.0,120.0,10.0,0.0
7325,66.0,0.0,240.0,1.0,0.0
7326,73.0,0.0,120.0,4.0,0.0
7327,42.0,0.0,240.0,14.0,0.0
7328,42.0,85.0,240.0,7.0,0.0
7329,54.0,0.0,240.0,3.0,0.0
7330,70.0,100.0,120.0,5.0,0.0
7331,73.0,0.0,120.0,11.0,0.0
7332,66.0,0.0,120.0,6.0,0.0
7333,66.0,0.0,240.0,0.0,0.0
7334,66.0,0.0,240.0,2.0,0.0
7335,42.0,0.0,240.0,13.0,0.0
7336,75.0,35.0,90.0,11.0,0.0
7337,78.0,0.0,90.0,10.0,0.0
7338,71.0,5.0,90.0,11.0,0.0
7339,75.0,0.0,90.0,10.0,0.0
7340,42.0,135.0,60.0,13.0,0.0
7341,66.0,0.0,60.0,2.0,0.0
7342,66.0,0.0,60.0,1.0,0.0
7343,54.0,0.0,60.0,3.0,0.0
7344,42.0,0.0,60.0,7.0,0.0
7345,66.0,0.0,60.0,0.0,0.0
7346,42.0,0.0,60.0,14.0,0.0
7347,66.0,0.0,240.0,1.0,0.0
7348,71.0,100.0,120.0,11.0,0.0
7349,42.0,85.0,240.0,7.0,0.0
7350,54.0,0.0,240.0,3.0,0.0
7351,66.0,0.0,120.0,12.0,0.0
7352,66.0,0.0,240.0,2.0,0.0
7353,42.0,0.0,240.0,14.0,0.0
7354,66.0,0.0,240.0,0.0,0.0
7355,75.0,0.0,120.0,10.0,0.0
7356,71.0,0.0,120.0,5.0,0.0
7357,42.0,0.0,240.0,13.0,0.0
7358,75.0,0.0,120.0,4.0,0.0
7359,66.0,0.0,120.0,6.0,0.0
7360,76.0,0.0,90.0,10.0,0.0
7361,73.0,35.0,90.0,11.0,0.0
7362,73.0,0.0,90.0,10.0,0.0
7363,70.0,5.0,90.0,11.0,0.0
7364,66.0,0.0,60.0,1.0,0.0
7365,54.0,0.0,60.0,3.0,0.0
7366,66.0,0.0,60.0,0.0,0.0
7367,42.0,0.0,60.0,7.0,0.0
7368,42.0,0.0,60.0,14.0,0.0
7369,42.0,135.0,60.0,13.0,0.0
7370,66.0,0.0,60.0,2.0,0.0
7371,42.0,0.0,240.0,14.0,0.0
7372,66.0,0.0,120.0,1.0,0.0
7373,73.0,0.0,120.0,5.0,0.0
7374,42.0,85.0,240.0,7.0,0.0
7375,42.0,0.0,240.0,13.0,0.0
7376,73.0,0.0,120.0,10.0,0.0
7377,76.0,0.0,120.0,4.0,0.0
7378,70.0,0.0,120.0,11.0,0.0
7379,66.0,0.0,240.0,12.0,0.0
7380,54.0,0.0,120.0,3.0,0.0
7381,66.0,120.0,120.0,2.0,0.0
7382,70.0,0.0,240.0,6.0,0.0
7383,66.0,0.0,120.0,0.0,0.0
7384,75.0,0.0,120.0,4.0,0.0
7385,71.0,0.0,120.0,11.0,0.0
7386,75.0,15.0,120.0,10.0,0.0
7387,71.0,0.0,120.0,5.0,0.0
7388,73.0,0.0,90.0,11.0,0.0
7389,73.0,0.0,90.0,5.0,0.0
7390,76.0,120.0,120.0,10.0,0.0
7391,73.0,5.0,90.0,4.0,0.0
7392,66.0,0.0,60.0,12.0,0.0
7393,52.0,15.0,60.0,14.0,0.0
7394,52.0,0.0,60.0,13.0,0.0
7395,52.0,0.0,60.0,7.0,0.0
7396,70.0,0.0,60.0,6.0,0.0
7397,78.0,0.0,120.0,4.0,0.0
7398,51.0,0.0,240.0,7.0,0.0
7399,70.0,0.0,240.0,6.0,0.0
7400,66.0,0.0,240.0,12.0,0.0
7401,73.0,0.0,240.0,11.0,0.0
7402,73.0,0.0,240.0,5.0,0.0
7403,78.0,100.0,120.0,10.0,0.0
7404,51.0,85.0,240.0,14.0,0.0
7405,51.0,0.0,240.0,13.0,0.0
7406,80.0,0.0,90.0,4.0,0.0
7407,80.0,35.0,90.0,10.0,0.0
7408,76.0,5.0,90.0,4.0,0.0
7409,76.0,0.0,90.0,10.0,0.0
7410,68.0,0.0,60.0,12.0,0.0
7411,56.0,0.0,60.0,7.0,0.0
7412,71.0,0.0,60.0,11.0,0.0
7413,56.0,0.0,60.0,14.0,0.0
7414,71.0,0.0,60.0,6.0,0.0
7415,56.0,135.0,60.0,13.0,0.0
7416,71.0,0.0,60.0,5.0,0.0
7417,71.0,0.0,240.0,11.0,0.0
7418,68.0,0.0,240.0,12.0,0.0
7419,64.0,0.0,240.0,6.0,0.0
7420,76.0,0.0,120.0,4.0,0.0
7421,49.0,0.0,240.0,13.0,0.0
7422,76.0,100.0,120.0,10.0,0.0
7423,49.0,85.0,240.0,7.0,0.0
7424,71.0,0.0,240.0,5.0,0.0
7425,49.0,0.0,240.0,14.0,0.0
7426,78.0,35.0,90.0,10.0,0.0
7427,78.0,0.0,90.0,4.0,0.0
7428,75.0,5.0,90.0,10.0,0.0
7429,75.0,0.0,90.0,4.0,0.0
7430,66.0,0.0,60.0,6.0,0.0
7431,54.0,0.0,60.0,13.0,0.0
7432,70.0,0.0,60.0,5.0,0.0
7433,54.0,0.0,60.0,7.0,0.0
7434,54.0,0.0,60.0,14.0,0.0
7435,66.0,135.0,60.0,12.0,0.0
7436,70.0,0.0,60.0,11.0,0.0
7437,47.0,90.0,240.0,13.0,0.0
7438,71.0,0.0,120.0,11.0,0.0
7439,66.0,120.0,120.0,6.0,0.0
7440,75.0,0.0,120.0,10.0,0.0
7441,66.0,0.0,120.0,12.0,0.0
7442,47.0,0.0,240.0,14.0,0.0
7443,47.0,0.0,240.0,7.0,0.0
7444,75.0,0.0,120.0,4.0,0.0
7445,71.0,0.0,120.0,5.0,0.0
7446,71.0,15.0,120.0,10.0,0.0
7447,71.0,0.0,120.0,4.0,0.0
7448,73.0,120.0,120.0,10.0,0.0
7449,73.0,0.0,120.0,4.0,0.0
7450,54.0,15.0,60.0,13.0,0.0
7451,54.0,0.0,60.0,14.0,0.0
7452,54.0,0.0,60.0,7.0,0.0
7453,78.0,0.0,120.0,5.0,0.0
7454,78.0,0.0,120.0,11.0,0.0
7455,75.0,0.0,120.0,4.0,0.0
7456,59.0,0.0,120.0,14.0,0.0
7457,66.0,100.0,120.0,6.0,0.0
7458,75.0,0.0,120.0,10.0,0.0
7459,66.0,0.0,120.0,12.0,0.0
7460,59.0,0.0,120.0,13.0,0.0
7461,59.0,0.0,120.0,7.0,0.0
7462,76.0,100.0,120.0,10.0,0.0
7463,76.0,20.0,90.0,4.0,0.0
7464,61.0,0.0,120.0,13.0,0.0
7465,61.0,0.0,90.0,7.0,0.0
7466,61.0,0.0,120.0,14.0,0.0
7467,58.0,120.0,120.0,14.0,0.0
7468,73.0,0.0,120.0,10.0,0.0
7469,58.0,0.0,90.0,7.0,0.0
7470,58.0,0.0,120.0,13.0,0.0
7471,73.0,20.0,90.0,4.0,0.0
7472,58.0,100.0,120.0,13.0,0.0
7473,78.0,0.0,120.0,11.0,0.0
7474,70.0,0.0,120.0,6.0,0.0
7475,70.0,0.0,120.0,12.0,0.0
7476,78.0,0.0,120.0,5.0,0.0
7477,73.0,0.0,120.0,4.0,0.0
7478,73.0,0.0,120.0,10.0,0.0
7479,58.0,0.0,120.0,14.0,0.0
7480,58.0,0.0,120.0,7.0,0.0
7481,75.0,20.0,90.0,4.0,0.0
7482,75.0,0.0,120.0,10.0,0.0
7483,59.0,0.0,120.0,13.0,0.0
7484,59.0,100.0,120.0,14.0,0.0
7485,59.0,0.0,90.0,7.0,0.0
7486,71.0,120.0,120.0,10.0,0.0
7487,71.0,0.0,90.0,4.0,0.0
7488,56.0,20.0,90.0,7.0,0.0
7489,56.0,0.0,120.0,14.0,0.0
7490,56.0,0.0,120.0,13.0,0.0
7491,56.0,120.0,120.0,7.0,0.0
7492,71.0,0.0,240.0,4.0,0.0
7493,78.0,0.0,120.0,5.0,0.0
7494,63.0,0.0,120.0,12.0,0.0
7495,56.0,0.0,120.0,14.0,0.0
7496,71.0,90.0,240.0,10.0,0.0
7497,56.0,0.0,120.0,13.0,0.0
7498,75.0,0.0,120.0,6.0,0.0
7499,78.0,0.0,120.0,11.0,0.0
7500,52.0,0.0,120.0,7.0,0.0
7501,52.0,0.0,120.0,13.0,0.0
7502,68.0,0.0,120.0,6.0,0.0
7503,68.0,0.0,120.0,12.0,0.0
7504,52.0,15.0,120.0,14.0,0.0
7505,69.0,0.0,120.0,12.0,0.0
7506,54.0,0.0,120.0,14.0,0.0
7507,54.0,120.0,120.0,7.0,0.0
7508,54.0,0.0,120.0,13.0,0.0
7509,69.0,0.0,120.0,6.0,0.0
7510,71.0,0.0,60.0,10.0,0.0
7511,71.0,15.0,60.0,4.0,0.0
7512,71.0,0.0,120.0,6.0,0.0
7513,56.0,100.0,120.0,14.0,0.0
7514,56.0,0.0,120.0,13.0,0.0
7515,76.0,85.0,240.0,10.0,0.0
7516,76.0,0.0,240.0,4.0,0.0
7517,71.0,0.0,120.0,12.0,0.0
7518,56.0,0.0,120.0,7.0,0.0
7519,57.0,0.0,90.0,14.0,0.0
7520,57.0,0.0,90.0,7.0,0.0
7521,57.0,0.0,90.0,13.0,0.0
7522,73.0,0.0,90.0,12.0,0.0
7523,73.0,35.0,90.0,6.0,0.0
7524,54.0,0.0,90.0,7.0,0.0
7525,69.0,0.0,90.0,12.0,0.0
7526,69.0,0.0,90.0,6.0,0.0
7527,54.0,5.0,90.0,14.0,0.0
7528,54.0,0.0,90.0,13.0,0.0
7529,71.0,0.0,60.0,5.0,0.0
7530,75.0,0.0,60.0,10.0,0.0
7531,71.0,0.0,60.0,11.0,0.0
7532,75.0,135.0,60.0,4.0,0.0
7533,76.0,0.0,240.0,4.0,0.0
7534,73.0,85.0,240.0,11.0,0.0
7535,54.0,0.0,120.0,7.0,0.0
7536,69.0,0.0,120.0,12.0,0.0
7537,76.0,0.0,240.0,10.0,0.0
7538,54.0,0.0,120.0,13.0,0.0
7539,54.0,100.0,120.0,14.0,0.0
7540,73.0,0.0,240.0,5.0,0.0
7541,69.0,0.0,120.0,6.0,0.0
7542,56.0,0.0,90.0,13.0,0.0
7543,56.0,0.0,90.0,7.0,0.0
7544,71.0,0.0,90.0,6.0,0.0
7545,56.0,0.0,90.0,14.0,0.0
7546,71.0,35.0,90.0,12.0,0.0
7547,52.0,0.0,90.0,7.0,0.0
7548,68.0,0.0,90.0,6.0,0.0
7549,68.0,5.0,90.0,12.0,0.0
7550,52.0,0.0,90.0,13.0,0.0
7551,52.0,0.0,90.0,14.0,0.0
7552,75.0,135.0,60.0,5.0,0.0
7553,78.0,0.0,60.0,10.0,0.0
7554,78.0,0.0,60.0,4.0,0.0
7555,75.0,0.0,60.0,11.0,0.0
7556,52.0,0.0,240.0,13.0,0.0
7557,52.0,0.0,240.0,7.0,0.0
7558,52.0,0.0,240.0,14.0,0.0
7559,68.0,85.0,240.0,6.0,0.0
7560,80.0,100.0,120.0,4.0,0.0
7561,76.0,0.0,240.0,5.0,0.0
7562,76.0,0.0,240.0,11.0,0.0
7563,68.0,0.0,240.0,12.0,0.0
7564,80.0,0.0,120.0,10.0,0.0
7565,81.0,0.0,90.0,10.0,0.0
7566,81.0,35.0,90.0,4.0,0.0
7567,78.0,5.0,90.0,4.0,0.0
7568,78.0,0.0,90.0,10.0,0.0
7569,51.0,0.0,60.0,13.0,0.0
7570,51.0,0.0,60.0,14.0,0.0
7571,51.0,0.0,60.0,7.0,0.0
7572,71.0,0.0,60.0,5.0,0.0
7573,71.0,45.0,60.0,6.0,0.0
7574,63.0,0.0,60.0,12.0,0.0
7575,71.0,0.0,60.0,11.0,0.0
7576,49.0,0.0,240.0,13.0,0.0
7577,76.0,0.0,120.0,10.0,0.0
7578,49.0,0.0,240.0,14.0,0.0
7579,70.0,30.0,30.0,5.0,0.0
7580,64.0,0.0,240.0,12.0,0.0
7581,76.0,30.0,120.0,4.0,0.0
7582,49.0,0.0,240.0,7.0,0.0
7583,70.0,0.0,240.0,11.0,0.0
7584,73.0,85.0,240.0,6.0,0.0
7585,71.0,30.0,30.0,5.0,0.0
7586,70.0,30.0,30.0,5.0,0.0
7587,71.0,0.0,30.0,5.0,0.0
7588,70.0,30.0,30.0,5.0,0.0
7589,78.0,20.0,90.0,4.0,0.0
7590,78.0,0.0,90.0,10.0,0.0
7591,71.0,30.0,30.0,5.0,0.0
7592,68.0,10.0,30.0,5.0,0.0
7593,70.0,15.0,30.0,5.0,0.0
7594,75.0,5.0,90.0,10.0,0.0
7595,75.0,0.0,90.0,4.0,0.0
7596,68.0,0.0,60.0,6.0,0.0
7597,68.0,0.0,60.0,12.0,0.0
7598,71.0,0.0,60.0,11.0,0.0
7599,71.0,0.0,60.0,5.0,0.0
7600,52.0,135.0,60.0,7.0,0.0
7601,52.0,0.0,60.0,14.0,0.0
7602,52.0,0.0,60.0,13.0,0.0
7603,68.0,0.0,240.0,6.0,0.0
7604,68.0,0.0,240.0,12.0,0.0
7605,73.0,0.0,240.0,5.0,0.0
7606,46.0,0.0,240.0,13.0,0.0
7607,73.0,0.0,240.0,11.0,0.0
7608,73.0,0.0,120.0,10.0,0.0
7609,73.0,100.0,120.0,4.0,0.0
7610,46.0,85.0,240.0,7.0,0.0
7611,46.0,0.0,240.0,14.0,0.0
7612,75.0,0.0,90.0,10.0,0.0
7613,75.0,35.0,90.0,4.0,0.0
7614,71.0,5.0,90.0,10.0,0.0
7615,71.0,0.0,90.0,4.0,0.0
7616,68.0,135.0,60.0,12.0,0.0
7617,68.0,0.0,60.0,6.0,0.0
7618,49.0,0.0,60.0,14.0,0.0
7619,49.0,0.0,60.0,7.0,0.0
7620,76.0,0.0,60.0,11.0,0.0
7621,76.0,0.0,60.0,5.0,0.0
7622,49.0,0.0,60.0,13.0,0.0
7623,40.0,120.0,120.0,14.0,0.0
7624,78.0,85.0,240.0,10.0,0.0
7625,40.0,0.0,120.0,7.0,0.0
7626,61.0,0.0,120.0,12.0,0.0
7627,40.0,0.0,120.0,13.0,0.0
7628,70.0,0.0,120.0,11.0,0.0
7629,78.0,0.0,240.0,4.0,0.0
7630,66.0,0.0,120.0,6.0,0.0
7631,70.0,0.0,120.0,5.0,0.0
7632,63.0,0.0,120.0,12.0,0.0
7633,71.0,0.0,120.0,11.0,0.0
7634,71.0,15.0,120.0,5.0,0.0
7635,68.0,0.0,120.0,6.0,0.0
7636,73.0,5.0,90.0,5.0,0.0
7637,70.0,0.0,90.0,6.0,0.0
7638,73.0,0.0,90.0,11.0,0.0
7639,64.0,0.0,90.0,12.0,0.0
7640,73.0,0.0,60.0,10.0,0.0
7641,73.0,135.0,60.0,4.0,0.0
7642,73.0,100.0,120.0,11.0,0.0
7643,70.0,0.0,120.0,6.0,0.0
7644,66.0,85.0,240.0,4.0,0.0
7645,73.0,0.0,120.0,5.0,0.0
7646,66.0,0.0,240.0,10.0,0.0
7647,66.0,0.0,240.0,12.0,0.0
7648,71.0,15.0,120.0,6.0,0.0
7649,75.0,0.0,90.0,5.0,0.0
7650,75.0,20.0,90.0,11.0,0.0
7651,71.0,0.0,90.0,5.0,0.0
7652,71.0,0.0,90.0,11.0,0.0
7653,73.0,5.0,90.0,6.0,0.0
7654,56.0,0.0,60.0,13.0,0.0
7655,76.0,135.0,60.0,10.0,0.0
7656,56.0,0.0,60.0,7.0,0.0
7657,56.0,0.0,60.0,14.0,0.0
7658,59.0,0.0,60.0,12.0,0.0
7659,76.0,0.0,60.0,4.0,0.0
7660,54.0,0.0,240.0,14.0,0.0
7661,54.0,85.0,240.0,7.0,0.0
7662,75.0,0.0,240.0,10.0,0.0
7663,54.0,0.0,240.0,13.0,0.0
7664,66.0,0.0,240.0,6.0,0.0
7665,71.0,100.0,120.0,11.0,0.0
7666,66.0,0.0,240.0,12.0,0.0
7667,75.0,0.0,240.0,4.0,0.0
7668,71.0,0.0,120.0,5.0,0.0
7669,73.0,0.0,90.0,5.0,0.0
7670,73.0,35.0,90.0,11.0,0.0
7671,70.0,0.0,90.0,11.0,0.0
7672,70.0,5.0,90.0,5.0,0.0
7673,80.0,0.0,60.0,4.0,0.0
7674,80.0,0.0,60.0,10.0,0.0
7675,52.0,0.0,60.0,7.0,0.0
7676,61.0,135.0,60.0,12.0,0.0
7677,73.0,0.0,60.0,6.0,0.0
7678,52.0,0.0,60.0,14.0,0.0
7679,52.0,0.0,60.0,13.0,0.0
7680,71.0,0.0,240.0,5.0,0.0
7681,75.0,85.0,240.0,6.0,0.0
7682,78.0,0.0,120.0,10.0,0.0
7683,71.0,0.0,240.0,11.0,0.0
7684,51.0,0.0,120.0,7.0,0.0
7685,51.0,0.0,120.0,14.0,0.0
7686,78.0,0.0,120.0,4.0,0.0
7687,51.0,120.0,120.0,13.0,0.0
7688,66.0,0.0,240.0,12.0,0.0
7689,52.0,15.0,120.0,14.0,0.0
7690,80.0,0.0,120.0,10.0,0.0
7691,52.0,0.0,120.0,13.0,0.0
7692,80.0,0.0,120.0,4.0,0.0
7693,52.0,0.0,120.0,7.0,0.0
7694,54.0,0.0,90.0,13.0,0.0
7695,82.0,120.0,120.0,4.0,0.0
7696,82.0,0.0,120.0,10.0,0.0
7697,54.0,0.0,90.0,14.0,0.0
7698,54.0,5.0,90.0,7.0,0.0
7699,76.0,0.0,60.0,11.0,0.0
7700,73.0,15.0,60.0,6.0,0.0
7701,73.0,0.0,60.0,12.0,0.0
7702,76.0,0.0,60.0,5.0,0.0
7703,71.0,0.0,240.0,6.0,0.0
7704,75.0,100.0,120.0,5.0,0.0
7705,56.0,85.0,240.0,7.0,0.0
7706,83.0,0.0,120.0,10.0,0.0
7707,71.0,0.0,240.0,12.0,0.0
7708,75.0,0.0,120.0,11.0,0.0
7709,56.0,0.0,240.0,13.0,0.0
7710,83.0,0.0,120.0,4.0,0.0
7711,56.0,0.0,240.0,14.0,0.0
7712,85.0,0.0,90.0,10.0,0.0
7713,76.0,35.0,90.0,5.0,0.0
7714,85.0,0.0,90.0,4.0,0.0
7715,76.0,0.0,90.0,11.0,0.0
7716,82.0,0.0,90.0,10.0,0.0
7717,82.0,5.0,90.0,4.0,0.0
7718,73.0,0.0,90.0,5.0,0.0
7719,73.0,0.0,90.0,11.0,0.0
7720,52.0,0.0,60.0,14.0,0.0
7721,52.0,0.0,60.0,13.0,0.0
7722,73.0,0.0,60.0,12.0,0.0
7723,73.0,0.0,60.0,6.0,0.0
7724,52.0,45.0,60.0,7.0,0.0
7725,73.0,30.0,30.0,5.0,0.0
7726,54.0,0.0,240.0,14.0,0.0
7727,54.0,0.0,240.0,7.0,0.0
7728,82.0,0.0,240.0,4.0,0.0
7729,66.0,90.0,240.0,6.0,0.0
7730,66.0,0.0,240.0,12.0,0.0
7731,82.0,0.0,240.0,10.0,0.0
7732,54.0,0.0,240.0,13.0,0.0
7733,73.0,0.0,240.0,11.0,0.0
7734,75.0,30.0,30.0,5.0,0.0
7735,73.0,30.0,30.0,5.0,0.0
7736,75.0,30.0,30.0,5.0,0.0
7737,73.0,30.0,30.0,5.0,0.0
7738,75.0,30.0,30.0,5.0,0.0
7739,71.0,30.0,30.0,5.0,0.0
7740,73.0,15.0,30.0,5.0,0.0
7741,66.0,135.0,60.0,6.0,0.0
7742,83.0,0.0,60.0,10.0,0.0
7743,75.0,0.0,60.0,5.0,0.0
7744,83.0,0.0,60.0,4.0,0.0
7745,42.0,0.0,60.0,7.0,0.0
7746,42.0,0.0,60.0,14.0,0.0
7747,75.0,0.0,60.0,11.0,0.0
7748,42.0,0.0,60.0,13.0,0.0
7749,66.0,0.0,60.0,12.0,0.0
7750,83.0,0.0,240.0,10.0,0.0
7751,47.0,0.0,240.0,13.0,0.0
7752,83.0,0.0,120.0,4.0,0.0
7753,75.0,90.0,240.0,11.0,0.0
7754,47.0,0.0,240.0,14.0,0.0
7755,66.0,0.0,120.0,6.0,0.0
7756,66.0,0.0,240.0,12.0,0.0
7757,47.0,0.0,240.0,7.0,0.0
7758,75.0,135.0,120.0,5.0,0.0
7759,63.0,0.0,60.0,13.0,0.0
7760,63.0,0.0,60.0,14.0,0.0
7761,66.0,0.0,60.0,7.0,0.0
7762,66.0,0.0,60.0,12.0,0.0
7763,66.0,135.0,60.0,10.0,0.0
7764,66.0,0.0,60.0,11.0,0.0
7765,51.0,0.0,120.0,13.0,0.0
7766,51.0,0.0,120.0,14.0,0.0
7767,63.0,0.0,120.0,14.0,0.0
7768,71.0,0.0,120.0,5.0,0.0
7769,66.0,0.0,120.0,6.0,0.0
7770,66.0,100.0,120.0,7.0,0.0
7771,66.0,0.0,240.0,10.0,0.0
7772,63.0,0.0,120.0,13.0,0.0
7773,78.0,0.0,120.0,4.0,0.0
7774,66.0,0.0,240.0,11.0,0.0
7775,66.0,85.0,240.0,12.0,0.0
7776,64.0,0.0,90.0,14.0,0.0
7777,68.0,35.0,90.0,7.0,0.0
7778,64.0,0.0,90.0,13.0,0.0
7779,64.0,0.0,90.0,7.0,0.0
7780,61.0,5.0,90.0,13.0,0.0
7781,61.0,0.0,90.0,14.0,0.0
7782,66.0,135.0,60.0,11.0,0.0
7783,66.0,0.0,60.0,12.0,0.0
7784,66.0,0.0,60.0,10.0,0.0
7785,73.0,100.0,120.0,6.0,0.0
7786,64.0,0.0,120.0,7.0,0.0
7787,66.0,0.0,240.0,12.0,0.0
7788,66.0,0.0,240.0,10.0,0.0
7789,78.0,0.0,120.0,5.0,0.0
7790,82.0,0.0,120.0,4.0,0.0
7791,66.0,85.0,240.0,11.0,0.0
7792,54.0,0.0,120.0,13.0,0.0
7793,61.0,0.0,120.0,14.0,0.0
7794,54.0,0.0,120.0,14.0,0.0
7795,61.0,0.0,120.0,13.0,0.0
7796,63.0,35.0,90.0,14.0,0.0
7797,66.0,0.0,90.0,7.0,0.0
7798,63.0,0.0,90.0,13.0,0.0
7799,59.0,0.0,90.0,14.0,0.0
7800,59.0,5.0,90.0,13.0,0.0
7801,63.0,0.0,90.0,7.0,0.0
7802,66.0,135.0,60.0,12.0,0.0
7803,66.0,0.0,60.0,10.0,0.0
7804,66.0,0.0,60.0,11.0,0.0
7805,66.0,0.0,240.0,11.0,0.0
7806,78.0,0.0,120.0,5.0,0.0
7807,75.0,0.0,120.0,6.0,0.0
7808,63.0,0.0,120.0,7.0,0.0
7809,66.0,85.0,240.0,12.0,0.0
7810,66.0,0.0,240.0,10.0,0.0
7811,83.0,0.0,120.0,4.0,0.0
7812,59.0,0.0,120.0,13.0,0.0
7813,59.0,120.0,120.0,14.0,0.0
7814,64.0,0.0,120.0,7.0,0.0
7815,61.0,15.0,120.0,13.0,0.0
7816,61.0,0.0,120.0,14.0,0.0
7817,63.0,5.0,90.0,13.0,0.0
7818,63.0,0.0,90.0,14.0,0.0
7819,66.0,0.0,90.0,7.0,0.0
7820,66.0,0.0,60.0,12.0,0.0
7821,66.0,135.0,60.0,11.0,0.0
7822,66.0,0.0,60.0,10.0,0.0
7823,78.0,0.0,120.0,4.0,0.0
7824,51.0,0.0,120.0,13.0,0.0
7825,63.0,0.0,120.0,13.0,0.0
7826,78.0,0.0,120.0,6.0,0.0
7827,51.0,0.0,120.0,14.0,0.0
7828,66.0,0.0,120.0,7.0,0.0
7829,66.0,85.0,240.0,11.0,0.0
7830,66.0,0.0,240.0,10.0,0.0
7831,71.0,100.0,120.0,5.0,0.0
7832,66.0,0.0,240.0,12.0,0.0
7833,63.0,0.0,120.0,14.0,0.0
7834,68.0,0.0,90.0,7.0,0.0
7835,64.0,35.0,90.0,14.0,0.0
7836,64.0,0.0,90.0,13.0,0.0
7837,61.0,0.0,90.0,14.0,0.0
7838,64.0,0.0,90.0,7.0,0.0
7839,61.0,5.0,90.0,13.0,0.0
7840,66.0,0.0,60.0,12.0,0.0
7841,66.0,0.0,60.0,10.0,0.0
7842,66.0,135.0,60.0,11.0,0.0
7843,73.0,0.0,120.0,5.0,0.0
7844,66.0,85.0,240.0,10.0,0.0
7845,54.0,0.0,120.0,14.0,0.0
7846,66.0,0.0,240.0,11.0,0.0
7847,54.0,0.0,120.0,13.0,0.0
7848,61.0,0.0,120.0,13.0,0.0
7849,66.0,100.0,120.0,6.0,0.0
7850,64.0,0.0,120.0,7.0,0.0
7851,61.0,0.0,120.0,14.0,0.0
7852,82.0,0.0,120.0,4.0,0.0
7853,66.0,0.0,240.0,12.0,0.0
7854,66.0,0.0,90.0,7.0,0.0
7855,63.0,0.0,90.0,13.0,0.0
7856,63.0,35.0,90.0,14.0,0.0
7857,59.0,5.0,90.0,14.0,0.0
7858,59.0,0.0,90.0,13.0,0.0
7859,63.0,0.0,90.0,7.0,0.0
7860,66.0,135.0,60.0,11.0,0.0
7861,66.0,0.0,60.0,10.0,0.0
7862,66.0,0.0,60.0,12.0,0.0
7863,47.0,0.0,120.0,14.0,0.0
7864,63.0,0.0,120.0,7.0,0.0
7865,83.0,0.0,120.0,4.0,0.0
7866,59.0,0.0,120.0,13.0,0.0
7867,66.0,0.0,120.0,10.0,0.0
7868,66.0,120.0,120.0,11.0,0.0
7869,66.0,0.0,120.0,6.0,0.0
7870,59.0,0.0,120.0,14.0,0.0
7871,47.0,0.0,120.0,13.0,0.0
7872,66.0,0.0,120.0,12.0,0.0
7873,75.0,0.0,120.0,5.0,0.0
7874,70.0,100.0,120.0,10.0,0.0
7875,71.0,140.0,90.0,10.0,0.0
7876,71.0,0.0,120.0,10.0,0.0
7877,64.0,0.0,120.0,11.0,0.0
7878,61.0,100.0,120.0,12.0,0.0
7879,73.0,120.0,90.0,10.0,0.0
7880,69.0,5.0,90.0,10.0,0.0
7881,47.0,135.0,60.0,13.0,0.0
7882,47.0,0.0,60.0,14.0,0.0
7883,69.0,0.0,120.0,10.0,0.0
7884,47.0,85.0,240.0,14.0,0.0
7885,63.0,100.0,120.0,12.0,0.0
7886,66.0,0.0,120.0,11.0,0.0
7887,47.0,0.0,240.0,13.0,0.0
7888,71.0,35.0,90.0,10.0,0.0
7889,68.0,5.0,90.0,10.0,0.0
7890,47.0,135.0,60.0,13.0,0.0
7891,47.0,0.0,60.0,14.0,0.0
7892,68.0,0.0,120.0,10.0,0.0
7893,52.0,0.0,120.0,14.0,0.0
7894,59.0,0.0,120.0,11.0,0.0
7895,52.0,0.0,120.0,13.0,0.0
7896,64.0,120.0,120.0,12.0,0.0
7897,71.0,100.0,120.0,10.0,0.0
7898,73.0,140.0,90.0,10.0,0.0
7899,73.0,0.0,120.0,10.0,0.0
7900,63.0,100.0,120.0,12.0,0.0
7901,66.0,0.0,120.0,11.0,0.0
7902,75.0,120.0,90.0,10.0,0.0
7903,71.0,5.0,90.0,10.0,0.0
7904,49.0,0.0,60.0,14.0,0.0
7905,49.0,135.0,60.0,13.0,0.0
7906,68.0,100.0,120.0,11.0,0.0
7907,49.0,85.0,240.0,14.0,0.0
7908,49.0,0.0,240.0,13.0,0.0
7909,65.0,0.0,120.0,12.0,0.0
7910,71.0,0.0,120.0,10.0,0.0
7911,73.0,35.0,90.0,10.0,0.0
7912,70.0,5.0,90.0,10.0,0.0
7913,49.0,0.0,60.0,14.0,0.0
7914,49.0,135.0,60.0,13.0,0.0
7915,54.0,0.0,120.0,14.0,0.0
7916,54.0,0.0,120.0,13.0,0.0
7917,66.0,0.0,120.0,12.0,0.0
7918,70.0,0.0,120.0,10.0,0.0
7919,61.0,120.0,120.0,11.0,0.0
7920,73.0,100.0,120.0,10.0,0.0
7921,75.0,140.0,90.0,10.0,0.0
7922,65.0,0.0,120.0,12.0,0.0
7923,68.0,0.0,120.0,11.0,0.0
7924,75.0,100.0,120.0,10.0,0.0
7925,76.0,120.0,90.0,10.0,0.0
7926,73.0,5.0,90.0,10.0,0.0
7927,51.0,135.0,60.0,13.0,0.0
7928,51.0,0.0,60.0,14.0,0.0
7929,51.0,85.0,240.0,14.0,0.0
7930,67.0,0.0,120.0,12.0,0.0
7931,51.0,0.0,240.0,13.0,0.0
7932,73.0,0.0,120.0,10.0,0.0
7933,70.0,100.0,120.0,11.0,0.0
7934,75.0,35.0,90.0,10.0,0.0
7935,71.0,5.0,90.0,10.0,0.0
7936,51.0,0.0,60.0,13.0,0.0
7937,51.0,135.0,60.0,14.0,0.0
7938,63.0,0.0,240.0,11.0,0.0
7939,71.0,120.0,120.0,10.0,0.0
7940,68.0,85.0,240.0,12.0,0.0
7941,56.0,0.0,120.0,13.0,0.0
7942,56.0,0.0,120.0,14.0,0.0
7943,73.0,15.0,120.0,10.0,0.0
7944,75.0,5.0,90.0,10.0,0.0
7945,71.0,135.0,60.0,11.0,0.0
7946,68.0,0.0,60.0,12.0,0.0
7947,71.0,0.0,120.0,11.0,0.0
7948,75.0,20.0,1050.0,10.0,0.0
7949,68.0,100.0,120.0,12.0,0.0
7950,73.0,120.0,90.0,11.0,0.0
7951,70.0,0.0,90.0,12.0,0.0
7952,70.0,0.0,90.0,11.0,0.0
7953,66.0,140.0,90.0,12.0,0.0
7954,70.0,100.0,120.0,11.0,0.0
7955,66.0,0.0,120.0,12.0,0.0
7956,68.0,0.0,90.0,12.0,0.0
7957,71.0,120.0,90.0,11.0,0.0
7958,65.0,140.0,90.0,12.0,0.0
7959,68.0,0.0,90.0,11.0,0.0
7960,68.0,0.0,120.0,11.0,0.0
7961,65.0,120.0,120.0,12.0,0.0
7962,70.0,0.0,120.0,11.0,0.0
7963,67.0,100.0,120.0,12.0,0.0
7964,68.0,0.0,120.0,12.0,0.0
7965,71.0,120.0,120.0,11.0,0.0
7966,70.0,0.0,120.0,12.0,0.0
7967,73.0,0.0,330.0,10.0,0.0
7968,73.0,100.0,120.0,11.0,0.0
7969,71.0,120.0,90.0,12.0,0.0
7970,75.0,0.0,90.0,11.0,0.0
7971,71.0,0.0,90.0,11.0,0.0
7972,68.0,140.0,90.0,12.0,0.0
7973,71.0,100.0,120.0,11.0,0.0
7974,68.0,0.0,120.0,12.0,0.0
7975,76.0,140.0,450.0,10.0,0.0
7976,70.0,120.0,90.0,12.0,0.0
7977,73.0,0.0,90.0,11.0,0.0
7978,70.0,120.0,90.0,11.0,0.0
7979,67.0,0.0,90.0,12.0,0.0
7980,70.0,5.0,330.0,11.0,0.0
7981,67.0,85.0,240.0,12.0,0.0
7982,70.0,15.0,120.0,10.0,0.0
7983,71.0,120.0,120.0,10.0,0.0
7984,67.0,15.0,60.0,12.0,0.0
7985,67.0,85.0,240.0,12.0,0.0
7986,73.0,0.0,120.0,10.0,0.0
7987,63.0,100.0,120.0,13.0,0.0
7988,75.0,140.0,810.0,11.0,0.0
7989,63.0,0.0,120.0,14.0,0.0
7990,82.0,35.0,90.0,10.0,0.0
7991,71.0,5.0,90.0,10.0,0.0
7992,67.0,135.0,60.0,12.0,0.0
7993,73.0,0.0,120.0,10.0,0.0
7994,67.0,85.0,240.0,12.0,0.0
7995,51.0,0.0,120.0,14.0,0.0
7996,51.0,120.0,120.0,13.0,0.0
7997,71.0,15.0,120.0,10.0,0.0
7998,70.0,5.0,90.0,10.0,0.0
7999,67.0,115.0,60.0,12.0,0.0
8000,66.0,85.0,240.0,12.0,0.0
8001,72.0,5.0,330.0,10.0,0.0
8002,68.0,15.0,120.0,11.0,0.0
8003,70.0,120.0,120.0,11.0,0.0
8004,66.0,15.0,60.0,12.0,0.0
8005,56.0,0.0,120.0,14.0,0.0
8006,75.0,5.0,330.0,10.0,0.0
8007,72.0,100.0,120.0,11.0,0.0
8008,56.0,0.0,120.0,13.0,0.0
8009,66.0,85.0,240.0,12.0,0.0
8010,80.0,35.0,90.0,11.0,0.0
8011,70.0,0.0,90.0,11.0,0.0
8012,66.0,135.0,60.0,12.0,0.0
8013,66.0,85.0,240.0,12.0,0.0
8014,80.0,140.0,450.0,10.0,0.0
8015,44.0,0.0,120.0,13.0,0.0
8016,44.0,120.0,120.0,14.0,0.0
8017,72.0,0.0,120.0,11.0,0.0
8018,70.0,15.0,120.0,11.0,0.0
8019,68.0,5.0,90.0,11.0,0.0
8020,66.0,115.0,60.0,12.0,0.0
8021,65.0,90.0,240.0,12.0,0.0
8022,73.0,140.0,1170.0,11.0,0.0
8023,68.0,15.0,120.0,10.0,0.0
8024,70.0,120.0,120.0,10.0,0.0
8025,65.0,15.0,60.0,12.0,0.0
8026,61.0,100.0,120.0,14.0,0.0
8027,65.0,85.0,240.0,12.0,0.0
8028,71.0,0.0,120.0,10.0,0.0
8029,61.0,0.0,120.0,13.0,0.0
8030,80.0,35.0,90.0,10.0,0.0
8031,70.0,5.0,90.0,10.0,0.0
8032,65.0,135.0,60.0,12.0,0.0
8033,49.0,0.0,120.0,13.0,0.0
8034,49.0,120.0,120.0,14.0,0.0
8035,71.0,0.0,120.0,10.0,0.0
8036,65.0,85.0,240.0,12.0,0.0
8037,70.0,15.0,120.0,10.0,0.0
8038,68.0,5.0,90.0,10.0,0.0
8039,65.0,115.0,60.0,12.0,0.0
8040,64.0,85.0,240.0,12.0,0.0
8041,70.0,5.0,330.0,10.0,0.0
8042,66.0,15.0,120.0,11.0,0.0
8043,68.0,120.0,120.0,11.0,0.0
8044,64.0,15.0,60.0,12.0,0.0
8045,64.0,85.0,240.0,12.0,0.0
8046,54.0,0.0,120.0,13.0,0.0
8047,70.0,0.0,120.0,11.0,0.0
8048,73.0,5.0,330.0,10.0,0.0
8049,54.0,100.0,120.0,14.0,0.0
8050,78.0,35.0,90.0,11.0,0.0
8051,68.0,0.0,90.0,11.0,0.0
8052,64.0,135.0,60.0,12.0,0.0
8053,64.0,85.0,240.0,12.0,0.0
8054,42.0,0.0,120.0,14.0,0.0
8055,42.0,0.0,120.0,13.0,0.0
8056,78.0,140.0,450.0,10.0,0.0
8057,70.0,120.0,120.0,11.0,0.0
8058,68.0,15.0,120.0,11.0,0.0
8059,66.0,5.0,90.0,11.0,0.0
8060,64.0,115.0,60.0,12.0,0.0
8061,63.0,85.0,240.0,12.0,0.0
8062,71.0,5.0,330.0,11.0,0.0
8063,70.0,15.0,120.0,10.0,0.0
8064,71.0,120.0,120.0,10.0,0.0
8065,63.0,15.0,60.0,12.0,0.0
8066,63.0,85.0,240.0,12.0,0.0
8067,73.0,100.0,120.0,10.0,0.0
8068,59.0,0.0,120.0,13.0,0.0
8069,78.0,120.0,720.0,11.0,0.0
8070,59.0,0.0,120.0,14.0,0.0
8071,70.0,35.0,90.0,10.0,0.0
8072,71.0,5.0,90.0,10.0,0.0
8073,63.0,135.0,60.0,12.0,0.0
8074,66.0,0.0,120.0,10.0,0.0
8075,63.0,85.0,240.0,12.0,0.0
8076,47.0,0.0,120.0,13.0,0.0
8077,47.0,100.0,120.0,14.0,0.0
8078,70.0,35.0,90.0,10.0,0.0
8079,71.0,5.0,90.0,10.0,0.0
8080,63.0,15.0,60.0,12.0,0.0
8081,78.0,5.0,1050.0,11.0,0.0
8082,80.0,120.0,120.0,10.0,0.0
8083,62.0,90.0,240.0,12.0,0.0
8084,70.0,15.0,120.0,10.0,0.0
8085,71.0,120.0,120.0,10.0,0.0
8086,62.0,15.0,60.0,12.0,0.0
8087,62.0,85.0,240.0,12.0,0.0
8088,73.0,100.0,120.0,10.0,0.0
8089,59.0,0.0,120.0,14.0,0.0
8090,59.0,0.0,120.0,13.0,0.0
8091,70.0,35.0,90.0,10.0,0.0
8092,71.0,5.0,90.0,10.0,0.0
8093,62.0,135.0,60.0,12.0,0.0
8094,68.0,0.0,120.0,10.0,0.0
8095,62.0,85.0,240.0,12.0,0.0
8096,47.0,100.0,120.0,14.0,0.0
8097,47.0,0.0,120.0,13.0,0.0
8098,70.0,35.0,90.0,10.0,0.0
8099,71.0,0.0,90.0,10.0,0.0
8100,62.0,45.0,60.0,12.0,0.0
8101,61.0,15.0,240.0,12.0,0.0
8102,74.0,0.0,120.0,10.0,0.0
8103,77.0,30.0,30.0,11.0,0.0
8104,49.0,100.0,1080.0,14.0,0.0
8105,49.0,0.0,1080.0,13.0,0.0
8106,78.0,30.0,30.0,11.0,0.0
8107,77.0,30.0,30.0,11.0,0.0
8108,78.0,30.0,30.0,11.0,0.0
8109,73.0,20.0,90.0,10.0,0.0
8110,77.0,30.0,30.0,11.0,0.0
8111,78.0,30.0,30.0,11.0,0.0
8112,77.0,10.0,30.0,11.0,0.0
8113,78.0,15.0,30.0,11.0,0.0
8114,71.0,5.0,90.0,10.0,0.0
8115,77.0,30.0,30.0,11.0,0.0
8116,61.0,15.0,60.0,12.0,0.0
8117,78.0,30.0,30.0,11.0,0.0
8118,77.0,10.0,30.0,11.0,0.0
8119,78.0,30.0,30.0,11.0,0.0
8120,77.0,30.0,30.0,11.0,0.0
8121,61.0,15.0,240.0,12.0,0.0
8122,71.0,30.0,120.0,10.0,0.0
8123,78.0,30.0,30.0,11.0,0.0
8124,77.0,30.0,30.0,11.0,0.0
8125,78.0,0.0,30.0,11.0,0.0
8126,69.0,20.0,90.0,10.0,0.0
8127,77.0,30.0,30.0,11.0,0.0
8128,78.0,30.0,30.0,11.0,0.0
8129,77.0,10.0,30.0,11.0,0.0
8130,78.0,15.0,30.0,11.0,0.0
8131,68.0,5.0,90.0,10.0,0.0
8132,77.0,30.0,30.0,11.0,0.0
8133,61.0,15.0,60.0,12.0,0.0
8134,78.0,30.0,30.0,11.0,0.0
8135,77.0,10.0,30.0,11.0,0.0
8136,78.0,30.0,30.0,11.0,0.0
8137,68.0,30.0,120.0,10.0,0.0
8138,77.0,30.0,30.0,11.0,0.0
8139,61.0,15.0,240.0,12.0,0.0
8140,78.0,30.0,30.0,11.0,0.0
8141,77.0,30.0,30.0,11.0,0.0
8142,78.0,0.0,30.0,11.0,0.0
8143,77.0,30.0,30.0,11.0,0.0
8144,69.0,20.0,90.0,10.0,0.0
8145,78.0,30.0,30.0,11.0,0.0
8146,77.0,10.0,30.0,11.0,0.0
8147,78.0,15.0,30.0,11.0,0.0
8148,71.0,5.0,90.0,10.0,0.0
8149,77.0,30.0,30.0,11.0,0.0
8150,78.0,30.0,30.0,11.0,0.0
8151,61.0,7.0,60.0,12.0,0.0
8152,75.0,10.0,30.0,11.0,0.0
8153,77.0,8.0,20.0,11.0,0.0
8154,60.0,90.0,240.0,12.0,0.0
8155,69.0,120.0,120.0,10.0,0.0
8156,49.0,120.0,1080.0,13.0,0.0
8157,78.0,20.0,90.0,11.0,0.0
8158,49.0,0.0,1080.0,14.0,0.0
8159,66.0,0.0,120.0,10.0,0.0
8160,75.0,15.0,120.0,11.0,0.0
8161,68.0,0.0,120.0,10.0,0.0
8162,77.0,120.0,120.0,11.0,0.0
8163,60.0,15.0,60.0,12.0,0.0
8164,69.0,0.0,120.0,10.0,0.0
8165,78.0,100.0,120.0,11.0,0.0
8166,60.0,85.0,240.0,12.0,0.0
8167,80.0,35.0,90.0,11.0,0.0
8168,71.0,0.0,90.0,10.0,0.0
8169,77.0,0.0,90.0,11.0,0.0
8170,68.0,5.0,90.0,10.0,0.0
8171,60.0,135.0,60.0,12.0,0.0
8172,78.0,0.0,120.0,11.0,0.0
8173,60.0,85.0,240.0,12.0,0.0
8174,69.0,100.0,120.0,10.0,0.0
8175,77.0,0.0,90.0,11.0,0.0
8176,68.0,35.0,90.0,10.0,0.0
8177,66.0,5.0,90.0,10.0,0.0
8178,75.0,0.0,90.0,11.0,0.0
8179,60.0,15.0,60.0,12.0,0.0
8180,80.0,5.0,330.0,11.0,0.0
8181,49.0,0.0,1050.0,13.0,0.0
8182,49.0,0.0,1050.0,14.0,0.0
8183,65.0,120.0,120.0,10.0,0.0
8184,59.0,85.0,240.0,12.0,0.0
8185,68.0,15.0,120.0,10.0,0.0
8186,73.0,120.0,120.0,10.0,0.0
8187,59.0,15.0,60.0,12.0,0.0
8188,73.0,20.0,810.0,11.0,0.0
8189,77.0,100.0,120.0,10.0,0.0
8190,59.0,85.0,240.0,12.0,0.0
8191,78.0,35.0,90.0,10.0,0.0
8192,80.0,5.0,90.0,10.0,0.0
8193,59.0,135.0,60.0,12.0,0.0
8194,59.0,85.0,240.0,12.0,0.0
8195,73.0,100.0,120.0,10.0,0.0
8196,78.0,35.0,90.0,10.0,0.0
8197,77.0,5.0,90.0,10.0,0.0
8198,59.0,115.0,60.0,12.0,0.0
8199,50.0,0.0,120.0,14.0,0.0
8200,57.0,85.0,240.0,12.0,0.0
8201,78.0,120.0,1080.0,10.0,0.0
8202,50.0,100.0,120.0,13.0,0.0
8203,66.0,35.0,90.0,11.0,0.0
8204,69.0,5.0,90.0,11.0,0.0
8205,61.0,135.0,60.0,12.0,0.0
8206,69.0,0.0,120.0,11.0,0.0
8207,61.0,100.0,120.0,12.0,0.0
8208,71.0,0.0,90.0,11.0,0.0
8209,62.0,120.0,90.0,12.0,0.0
8210,68.0,140.0,90.0,11.0,0.0
8211,59.0,0.0,90.0,12.0,0.0
8212,59.0,100.0,120.0,12.0,0.0
8213,68.0,0.0,120.0,11.0,0.0
8214,69.0,0.0,90.0,11.0,0.0
8215,61.0,120.0,90.0,12.0,0.0
8216,66.0,0.0,90.0,11.0,0.0
8217,57.0,20.0,90.0,12.0,0.0
8218,49.0,0.0,120.0,13.0,0.0
8219,49.0,0.0,120.0,14.0,0.0
8220,66.0,120.0,120.0,11.0,0.0
8221,57.0,0.0,120.0,12.0,0.0
8222,78.0,20.0,1170.0,10.0,0.0
8223,68.0,120.0,120.0,11.0,0.0
8224,59.0,0.0,120.0,12.0,0.0
8225,61.0,0.0,120.0,12.0,0.0
8226,69.0,120.0,120.0,11.0,0.0
8227,62.0,0.0,120.0,12.0,0.0
8228,71.0,100.0,120.0,11.0,0.0
8229,64.0,120.0,90.0,12.0,0.0
8230,73.0,0.0,90.0,11.0,0.0
8231,61.0,140.0,90.0,12.0,0.0
8232,69.0,0.0,90.0,11.0,0.0
8233,69.0,0.0,120.0,11.0,0.0
8234,61.0,100.0,120.0,12.0,0.0
8235,62.0,120.0,90.0,12.0,0.0
8236,71.0,0.0,90.0,11.0,0.0
8237,68.0,0.0,90.0,11.0,0.0
8238,60.0,120.0,90.0,12.0,0.0
8239,60.0,120.0,120.0,12.0,0.0
8240,68.0,5.0,330.0,11.0,0.0
8241,75.0,100.0,120.0,10.0,0.0
8242,77.0,120.0,120.0,10.0,0.0
8243,48.0,0.0,60.0,14.0,0.0
8244,48.0,15.0,60.0,13.0,0.0
8245,48.0,0.0,240.0,13.0,0.0
8246,75.0,0.0,960.0,11.0,0.0
8247,48.0,85.0,240.0,14.0,0.0
8248,78.0,100.0,120.0,10.0,0.0
8249,80.0,35.0,90.0,10.0,0.0
8250,77.0,5.0,90.0,10.0,0.0
8251,48.0,0.0,60.0,13.0,0.0
8252,48.0,135.0,60.0,14.0,0.0
8253,48.0,0.0,240.0,14.0,0.0
8254,48.0,85.0,240.0,13.0,0.0
8255,78.0,120.0,120.0,10.0,0.0
8256,77.0,15.0,120.0,10.0,0.0
8257,75.0,5.0,90.0,10.0,0.0
8258,48.0,0.0,60.0,13.0,0.0
8259,48.0,135.0,60.0,14.0,0.0
8260,49.0,0.0,240.0,13.0,0.0
8261,77.0,120.0,120.0,10.0,0.0
8262,49.0,90.0,240.0,14.0,0.0
8263,78.0,15.0,120.0,10.0,0.0
8264,80.0,120.0,120.0,10.0,0.0
8265,73.0,0.0,60.0,11.0,0.0
8266,49.0,15.0,60.0,14.0,0.0
8267,49.0,0.0,60.0,13.0,0.0
8268,65.0,0.0,60.0,12.0,0.0
8269,65.0,0.0,240.0,12.0,0.0
8270,82.0,0.0,120.0,10.0,0.0
8271,73.0,100.0,120.0,11.0,0.0
8272,49.0,85.0,240.0,13.0,0.0
8273,49.0,0.0,240.0,14.0,0.0
8274,83.0,35.0,90.0,10.0,0.0
8275,75.0,0.0,90.0,11.0,0.0
8276,80.0,0.0,90.0,10.0,0.0
8277,71.0,5.0,90.0,11.0,0.0
8278,65.0,135.0,60.0,12.0,0.0
8279,49.0,0.0,60.0,14.0,0.0
8280,49.0,0.0,60.0,13.0,0.0
8281,71.0,100.0,120.0,11.0,0.0
8282,65.0,0.0,240.0,12.0,0.0
8283,49.0,0.0,240.0,13.0,0.0
8284,80.0,0.0,120.0,10.0,0.0
8285,49.0,85.0,240.0,14.0,0.0
8286,82.0,0.0,90.0,10.0,0.0
8287,73.0,35.0,90.0,11.0,0.0
8288,78.0,0.0,90.0,10.0,0.0
8289,70.0,5.0,90.0,11.0,0.0
8290,65.0,135.0,60.0,12.0,0.0
8291,49.0,0.0,60.0,13.0,0.0
8292,49.0,0.0,60.0,14.0,0.0
8293,78.0,140.0,450.0,10.0,0.0
8294,51.0,85.0,240.0,14.0,0.0
8295,66.0,0.0,120.0,12.0,0.0
8296,51.0,0.0,240.0,13.0,0.0
8297,70.0,100.0,120.0,11.0,0.0
8298,70.0,35.0,90.0,12.0,0.0
8299,73.0,0.0,90.0,11.0,0.0
8300,71.0,5.0,90.0,11.0,0.0
8301,68.0,0.0,90.0,12.0,0.0
8302,44.0,0.0,60.0,13.0,0.0
8303,44.0,115.0,60.0,14.0,0.0
8304,66.0,85.0,240.0,12.0,0.0
8305,73.0,0.0,240.0,11.0,0.0
8306,46.0,0.0,240.0,13.0,0.0
8307,46.0,0.0,240.0,14.0,0.0
8308,71.0,15.0,120.0,10.0,0.0
8309,70.0,5.0,90.0,10.0,0.0
8310,66.0,0.0,60.0,12.0,0.0
8311,75.0,0.0,60.0,11.0,0.0
8312,47.0,0.0,60.0,13.0,0.0
8313,47.0,135.0,60.0,14.0,0.0
8314,68.0,100.0,120.0,10.0,0.0
8315,73.0,0.0,240.0,11.0,0.0
8316,49.0,0.0,240.0,14.0,0.0
8317,49.0,85.0,240.0,13.0,0.0
8318,61.0,0.0,240.0,12.0,0.0
8319,78.0,35.0,90.0,10.0,0.0
8320,77.0,5.0,90.0,10.0,0.0
8321,49.0,0.0,60.0,13.0,0.0
8322,49.0,0.0,60.0,14.0,0.0
8323,71.0,135.0,60.0,11.0,0.0
8324,61.0,0.0,60.0,12.0,0.0
8325,61.0,0.0,120.0,12.0,0.0
8326,42.0,0.0,120.0,14.0,0.0
8327,78.0,0.0,120.0,10.0,0.0
8328,70.0,0.0,120.0,11.0,0.0
8329,42.0,120.0,120.0,13.0,0.0
8330,82.0,100.0,120.0,10.0,0.0
8331,85.0,5.0,90.0,10.0,0.0
8332,85.0,135.0,60.0,4.0,0.0
8333,70.0,0.0,120.0,12.0,0.0
8334,85.0,100.0,120.0,10.0,0.0
8335,85.0,0.0,120.0,4.0,0.0
8336,78.0,0.0,120.0,11.0,0.0
8337,87.0,0.0,90.0,4.0,0.0
8338,87.0,120.0,90.0,10.0,0.0
8339,83.0,140.0,90.0,10.0,0.0
8340,83.0,0.0,90.0,4.0,0.0
8341,83.0,100.0,120.0,4.0,0.0
8342,77.0,0.0,120.0,11.0,0.0
8343,73.0,0.0,120.0,12.0,0.0
8344,83.0,0.0,120.0,10.0,0.0
8345,85.0,120.0,90.0,4.0,0.0
8346,85.0,0.0,90.0,10.0,0.0
8347,82.0,0.0,90.0,4.0,0.0
8348,82.0,140.0,90.0,10.0,0.0
8349,82.0,0.0,120.0,10.0,0.0
8350,78.0,100.0,120.0,11.0,0.0
8351,82.0,0.0,120.0,4.0,0.0
8352,66.0,0.0,120.0,12.0,0.0
8353,83.0,0.0,120.0,10.0,0.0
8354,77.0,20.0,90.0,11.0,0.0
8355,83.0,100.0,120.0,4.0,0.0
8356,68.0,0.0,120.0,12.0,0.0
8357,85.0,120.0,120.0,10.0,0.0
8358,78.0,0.0,90.0,11.0,0.0
8359,85.0,0.0,120.0,4.0,0.0
8360,70.0,5.0,90.0,12.0,0.0
8361,70.0,0.0,60.0,6.0,0.0
8362,66.0,0.0,60.0,14.0,0.0
8363,66.0,0.0,60.0,13.0,0.0
8364,66.0,15.0,60.0,7.0,0.0
8365,78.0,0.0,60.0,5.0,0.0
8366,78.0,0.0,240.0,11.0,0.0
8367,66.0,0.0,120.0,14.0,0.0
8368,70.0,85.0,240.0,12.0,0.0
8369,87.0,0.0,120.0,10.0,0.0
8370,87.0,100.0,120.0,4.0,0.0
8371,66.0,0.0,120.0,13.0,0.0
8372,70.0,0.0,240.0,6.0,0.0
8373,78.0,0.0,240.0,5.0,0.0
8374,66.0,0.0,120.0,7.0,0.0
8375,68.0,0.0,90.0,14.0,0.0
8376,68.0,0.0,90.0,13.0,0.0
8377,88.0,35.0,90.0,10.0,0.0
8378,88.0,0.0,90.0,4.0,0.0
8379,68.0,0.0,90.0,7.0,0.0
8380,85.0,0.0,90.0,10.0,0.0
8381,64.0,5.0,90.0,7.0,0.0
8382,85.0,0.0,90.0,4.0,0.0
8383,64.0,0.0,90.0,14.0,0.0
8384,64.0,0.0,90.0,13.0,0.0
8385,73.0,135.0,60.0,6.0,0.0
8386,70.0,0.0,60.0,11.0,0.0
8387,73.0,0.0,60.0,12.0,0.0
8388,70.0,0.0,60.0,5.0,0.0
8389,70.0,0.0,240.0,6.0,0.0
8390,64.0,0.0,120.0,14.0,0.0
8391,85.0,0.0,120.0,10.0,0.0
8392,73.0,0.0,240.0,11.0,0.0
8393,73.0,85.0,240.0,5.0,0.0
8394,70.0,0.0,240.0,12.0,0.0
8395,64.0,0.0,120.0,13.0,0.0
8396,85.0,100.0,120.0,4.0,0.0
8397,64.0,0.0,120.0,7.0,0.0
8398,87.0,0.0,90.0,10.0,0.0
8399,66.0,0.0,90.0,13.0,0.0
8400,66.0,0.0,90.0,14.0,0.0
8401,66.0,35.0,90.0,7.0,0.0
8402,87.0,0.0,90.0,4.0,0.0
8403,63.0,0.0,90.0,14.0,0.0
8404,83.0,0.0,90.0,4.0,0.0
8405,83.0,5.0,90.0,10.0,0.0
8406,63.0,0.0,90.0,13.0,0.0
8407,63.0,0.0,90.0,7.0,0.0
8408,66.0,0.0,60.0,6.0,0.0
8409,78.0,135.0,60.0,5.0,0.0
8410,66.0,0.0,60.0,12.0,0.0
8411,78.0,0.0,60.0,11.0,0.0
8412,78.0,0.0,120.0,11.0,0.0
8413,63.0,0.0,120.0,7.0,0.0
8414,71.0,0.0,240.0,6.0,0.0
8415,83.0,85.0,240.0,4.0,0.0
8416,63.0,0.0,120.0,13.0,0.0
8417,71.0,0.0,240.0,12.0,0.0
8418,83.0,0.0,240.0,10.0,0.0
8419,78.0,120.0,120.0,5.0,0.0
8420,63.0,0.0,120.0,14.0,0.0
8421,65.0,0.0,120.0,7.0,0.0
8422,65.0,0.0,120.0,13.0,0.0
8423,80.0,0.0,120.0,11.0,0.0
8424,80.0,0.0,120.0,5.0,0.0
8425,65.0,15.0,120.0,14.0,0.0
8426,78.0,5.0,90.0,11.0,0.0
8427,66.0,120.0,120.0,13.0,0.0
8428,66.0,0.0,120.0,14.0,0.0
8429,66.0,0.0,120.0,7.0,0.0
8430,78.0,0.0,90.0,5.0,0.0
8431,75.0,0.0,60.0,6.0,0.0
8432,75.0,0.0,60.0,12.0,0.0
8433,83.0,15.0,60.0,4.0,0.0
8434,83.0,0.0,60.0,10.0,0.0
8435,68.0,0.0,120.0,14.0,0.0
8436,77.0,100.0,120.0,11.0,0.0
8437,71.0,0.0,120.0,6.0,0.0
8438,77.0,0.0,120.0,5.0,0.0
8439,83.0,85.0,240.0,10.0,0.0
8440,68.0,0.0,120.0,7.0,0.0
8441,68.0,0.0,120.0,13.0,0.0
8442,83.0,0.0,240.0,4.0,0.0
8443,71.0,0.0,120.0,12.0,0.0
8444,73.0,0.0,120.0,12.0,0.0
8445,70.0,0.0,90.0,7.0,0.0
8446,78.0,0.0,90.0,11.0,0.0
8447,70.0,0.0,90.0,13.0,0.0
8448,78.0,0.0,90.0,5.0,0.0
8449,70.0,20.0,90.0,14.0,0.0
8450,73.0,15.0,120.0,6.0,0.0
8451,75.0,0.0,90.0,5.0,0.0
8452,75.0,5.0,90.0,6.0,0.0
8453,75.0,0.0,90.0,12.0,0.0
8454,66.0,0.0,90.0,13.0,0.0
8455,66.0,0.0,90.0,14.0,0.0
8456,75.0,0.0,90.0,11.0,0.0
8457,66.0,0.0,90.0,7.0,0.0
8458,83.0,135.0,60.0,10.0,0.0
8459,83.0,0.0,60.0,4.0,0.0
8460,75.0,0.0,120.0,11.0,0.0
8461,66.0,0.0,120.0,13.0,0.0
8462,68.0,0.0,240.0,6.0,0.0
8463,83.0,85.0,240.0,4.0,0.0
8464,83.0,0.0,240.0,10.0,0.0
8465,66.0,100.0,120.0,14.0,0.0
8466,66.0,0.0,120.0,7.0,0.0
8467,75.0,0.0,120.0,5.0,0.0
8468,68.0,0.0,240.0,12.0,0.0
8469,77.0,0.0,90.0,11.0,0.0
8470,68.0,35.0,90.0,7.0,0.0
8471,68.0,0.0,90.0,13.0,0.0
8472,77.0,0.0,90.0,5.0,0.0
8473,68.0,0.0,90.0,14.0,0.0
8474,65.0,5.0,90.0,7.0,0.0
8475,73.0,0.0,90.0,5.0,0.0
8476,65.0,0.0,90.0,14.0,0.0
8477,73.0,0.0,90.0,11.0,0.0
8478,65.0,0.0,90.0,13.0,0.0
8479,68.0,0.0,60.0,12.0,0.0
8480,83.0,0.0,60.0,10.0,0.0
8481,68.0,135.0,60.0,6.0,0.0
8482,83.0,0.0,60.0,4.0,0.0
8483,83.0,120.0,120.0,10.0,0.0
8484,73.0,0.0,240.0,5.0,0.0
8485,68.0,120.0,360.0,12.0,0.0
8486,83.0,0.0,120.0,4.0,0.0
8487,68.0,0.0,360.0,6.0,0.0
8488,65.0,0.0,240.0,13.0,0.0
8489,65.0,0.0,240.0,7.0,0.0
8490,65.0,0.0,240.0,14.0,0.0
8491,73.0,90.0,240.0,11.0,0.0
8492,80.0,0.0,120.0,4.0,0.0
8493,80.0,15.0,120.0,10.0,0.0
8494,82.0,0.0,120.0,10.0,0.0
8495,82.0,0.0,120.0,4.0,0.0
8496,85.0,0.0,60.0,5.0,0.0
8497,65.0,0.0,60.0,13.0,0.0
8498,65.0,0.0,60.0,14.0,0.0
8499,85.0,0.0,60.0,11.0,0.0
8500,65.0,15.0,60.0,7.0,0.0
8501,83.0,0.0,120.0,4.0,0.0
8502,65.0,0.0,240.0,14.0,0.0
8503,83.0,100.0,120.0,10.0,0.0
8504,80.0,0.0,240.0,11.0,0.0
8505,80.0,0.0,240.0,5.0,0.0
8506,65.0,0.0,240.0,7.0,0.0
8507,65.0,85.0,240.0,13.0,0.0
8508,85.0,0.0,90.0,10.0,0.0
8509,85.0,35.0,90.0,4.0,0.0
8510,82.0,0.0,90.0,10.0,0.0
8511,82.0,5.0,90.0,4.0,0.0
8512,77.0,0.0,60.0,11.0,0.0
8513,65.0,0.0,60.0,13.0,0.0
8514,73.0,135.0,60.0,6.0,0.0
8515,65.0,0.0,60.0,14.0,0.0
8516,77.0,0.0,60.0,5.0,0.0
8517,73.0,0.0,60.0,12.0,0.0
8518,65.0,0.0,60.0,7.0,0.0
8519,68.0,0.0,240.0,12.0,0.0
8520,73.0,0.0,240.0,5.0,0.0
8521,83.0,120.0,120.0,10.0,0.0
8522,65.0,0.0,240.0,7.0,0.0
8523,65.0,0.0,240.0,13.0,0.0
8524,68.0,0.0,240.0,6.0,0.0
8525,83.0,0.0,120.0,4.0,0.0
8526,65.0,85.0,240.0,14.0,0.0
8527,73.0,0.0,240.0,11.0,0.0
8528,82.0,0.0,120.0,4.0,0.0
8529,82.0,15.0,120.0,10.0,0.0
8530,80.0,5.0,90.0,4.0,0.0
8531,80.0,0.0,90.0,10.0,0.0
8532,65.0,0.0,60.0,7.0,0.0
8533,73.0,0.0,60.0,5.0,0.0
8534,73.0,0.0,60.0,6.0,0.0
8535,65.0,0.0,60.0,13.0,0.0
8536,73.0,135.0,60.0,11.0,0.0
8537,65.0,0.0,60.0,14.0,0.0
8538,73.0,0.0,60.0,12.0,0.0
8539,82.0,0.0,120.0,4.0,0.0
8540,66.0,0.0,120.0,6.0,0.0
8541,73.0,0.0,120.0,5.0,0.0
8542,66.0,0.0,240.0,13.0,0.0
8543,66.0,85.0,240.0,14.0,0.0
8544,66.0,0.0,240.0,7.0,0.0
8545,82.0,0.0,120.0,10.0,0.0
8546,66.0,0.0,120.0,12.0,0.0
8547,73.0,120.0,120.0,11.0,0.0
8548,75.0,0.0,120.0,11.0,0.0
8549,75.0,15.0,120.0,5.0,0.0
8550,78.0,0.0,120.0,4.0,0.0
8551,78.0,0.0,120.0,10.0,0.0
8552,70.0,0.0,120.0,12.0,0.0
8553,70.0,0.0,120.0,6.0,0.0
8554,77.0,0.0,90.0,11.0,0.0
8555,71.0,0.0,90.0,6.0,0.0
8556,71.0,0.0,90.0,12.0,0.0
8557,80.0,0.0,90.0,4.0,0.0
8558,80.0,0.0,90.0,10.0,0.0
8559,77.0,5.0,90.0,5.0,0.0
8560,61.0,0.0,60.0,13.0,0.0
8561,61.0,135.0,60.0,7.0,0.0
8562,61.0,0.0,60.0,14.0,0.0
8563,78.0,0.0,240.0,11.0,0.0
8564,78.0,0.0,240.0,5.0,0.0
8565,61.0,0.0,120.0,13.0,0.0
8566,82.0,100.0,120.0,10.0,0.0
8567,61.0,0.0,120.0,7.0,0.0
8568,82.0,0.0,120.0,4.0,0.0
8569,73.0,0.0,240.0,6.0,0.0
8570,61.0,0.0,120.0,14.0,0.0
8571,73.0,85.0,240.0,12.0,0.0
8572,63.0,0.0,90.0,7.0,0.0
8573,83.0,0.0,90.0,4.0,0.0
8574,83.0,35.0,90.0,10.0,0.0
8575,63.0,0.0,90.0,14.0,0.0
8576,63.0,0.0,90.0,13.0,0.0
8577,80.0,0.0,90.0,4.0,0.0
8578,59.0,0.0,90.0,7.0,0.0
8579,59.0,0.0,90.0,13.0,0.0
8580,80.0,0.0,90.0,10.0,0.0
8581,59.0,5.0,90.0,14.0,0.0
8582,80.0,0.0,60.0,5.0,0.0
8583,77.0,135.0,60.0,6.0,0.0
8584,77.0,0.0,60.0,12.0,0.0
8585,80.0,0.0,60.0,11.0,0.0
8586,80.0,0.0,120.0,10.0,0.0
8587,59.0,0.0,120.0,13.0,0.0
8588,59.0,100.0,120.0,7.0,0.0
8589,68.0,0.0,240.0,6.0,0.0
8590,77.0,85.0,240.0,11.0,0.0
8591,68.0,0.0,240.0,12.0,0.0
8592,80.0,0.0,120.0,4.0,0.0
8593,77.0,0.0,240.0,5.0,0.0
8594,59.0,0.0,120.0,14.0,0.0
8595,82.0,35.0,90.0,10.0,0.0
8596,61.0,0.0,90.0,7.0,0.0
8597,82.0,0.0,90.0,4.0,0.0
8598,61.0,0.0,90.0,14.0,0.0
8599,61.0,0.0,90.0,13.0,0.0
8600,58.0,5.0,90.0,13.0,0.0
8601,78.0,0.0,90.0,4.0,0.0
8602,78.0,0.0,90.0,10.0,0.0
8603,58.0,0.0,90.0,14.0,0.0
8604,58.0,0.0,90.0,7.0,0.0
8605,70.0,0.0,60.0,6.0,0.0
8606,73.0,0.0,60.0,5.0,0.0
8607,73.0,135.0,60.0,11.0,0.0
8608,70.0,0.0,60.0,12.0,0.0
8609,70.0,0.0,240.0,12.0,0.0
8610,70.0,0.0,240.0,6.0,0.0
8611,78.0,0.0,240.0,10.0,0.0
8612,58.0,0.0,120.0,13.0,0.0
8613,58.0,120.0,120.0,14.0,0.0
8614,78.0,85.0,240.0,4.0,0.0
8615,58.0,0.0,120.0,7.0,0.0
8616,73.0,0.0,120.0,5.0,0.0
8617,73.0,0.0,120.0,11.0,0.0
8618,60.0,15.0,120.0,13.0,0.0
8619,60.0,0.0,120.0,14.0,0.0
8620,60.0,0.0,120.0,7.0,0.0
8621,75.0,0.0,120.0,11.0,0.0
8622,75.0,0.0,120.0,5.0,0.0
8623,73.0,5.0,90.0,11.0,0.0
8624,61.0,0.0,120.0,13.0,0.0
8625,73.0,0.0,90.0,5.0,0.0
8626,61.0,0.0,120.0,7.0,0.0
8627,61.0,120.0,120.0,14.0,0.0
8628,70.0,0.0,60.0,12.0,0.0
8629,70.0,0.0,60.0,6.0,0.0
8630,78.0,0.0,60.0,10.0,0.0
8631,78.0,15.0,60.0,4.0,0.0
8632,66.0,0.0,120.0,12.0,0.0
8633,78.0,85.0,240.0,4.0,0.0
8634,66.0,0.0,120.0,6.0,0.0
8635,78.0,0.0,240.0,10.0,0.0
8636,72.0,0.0,120.0,5.0,0.0
8637,63.0,100.0,120.0,13.0,0.0
8638,63.0,0.0,120.0,14.0,0.0
8639,72.0,0.0,120.0,11.0,0.0
8640,63.0,0.0,120.0,7.0,0.0
8641,65.0,0.0,90.0,13.0,0.0
8642,68.0,0.0,120.0,6.0,0.0
8643,73.0,0.0,90.0,11.0,0.0
8644,68.0,15.0,120.0,12.0,0.0
8645,65.0,0.0,90.0,14.0,0.0
8646,73.0,20.0,90.0,5.0,0.0
8647,65.0,0.0,90.0,7.0,0.0
8648,70.0,0.0,90.0,6.0,0.0
8649,70.0,0.0,90.0,11.0,0.0
8650,61.0,0.0,90.0,14.0,0.0
8651,70.0,0.0,90.0,12.0,0.0
8652,61.0,0.0,90.0,13.0,0.0
8653,70.0,0.0,90.0,5.0,0.0
8654,61.0,5.0,90.0,7.0,0.0
8655,78.0,135.0,60.0,4.0,0.0
8656,78.0,0.0,60.0,10.0,0.0
8657,75.0,0.0,240.0,6.0,0.0
8658,70.0,0.0,120.0,5.0,0.0
8659,63.0,85.0,240.0,12.0,0.0
8660,78.0,0.0,240.0,10.0,0.0
8661,61.0,100.0,120.0,7.0,0.0
8662,61.0,0.0,120.0,14.0,0.0
8663,78.0,0.0,240.0,4.0,0.0
8664,70.0,0.0,120.0,11.0,0.0
8665,61.0,0.0,120.0,13.0,0.0
8666,63.0,35.0,90.0,14.0,0.0
8667,63.0,0.0,90.0,13.0,0.0
8668,63.0,0.0,90.0,7.0,0.0
8669,72.0,0.0,90.0,5.0,0.0
8670,72.0,0.0,90.0,11.0,0.0
8671,68.0,0.0,90.0,11.0,0.0
8672,60.0,0.0,90.0,13.0,0.0
8673,60.0,0.0,90.0,7.0,0.0
8674,68.0,0.0,90.0,5.0,0.0
8675,60.0,5.0,90.0,14.0,0.0
8676,75.0,0.0,60.0,6.0,0.0
8677,78.0,0.0,60.0,4.0,0.0
8678,78.0,135.0,60.0,10.0,0.0
8679,75.0,0.0,60.0,12.0,0.0
8680,60.0,0.0,240.0,14.0,0.0
8681,60.0,0.0,240.0,13.0,0.0
8682,60.0,90.0,240.0,7.0,0.0
8683,68.0,120.0,360.0,11.0,0.0
8684,75.0,0.0,360.0,12.0,0.0
8685,75.0,0.0,360.0,6.0,0.0
8686,78.0,120.0,120.0,10.0,0.0
8687,68.0,0.0,360.0,5.0,0.0
8688,78.0,0.0,120.0,4.0,0.0
8689,75.0,0.0,120.0,10.0,0.0
8690,75.0,15.0,120.0,4.0,0.0
8691,77.0,0.0,120.0,4.0,0.0
8692,77.0,0.0,120.0,10.0,0.0
8693,60.0,0.0,60.0,13.0,0.0
8694,60.0,0.0,60.0,7.0,0.0
8695,60.0,15.0,60.0,14.0,0.0
8696,78.0,0.0,120.0,10.0,0.0
8697,60.0,85.0,240.0,14.0,0.0
8698,60.0,0.0,240.0,13.0,0.0
8699,60.0,0.0,240.0,7.0,0.0
8700,78.0,100.0,120.0,4.0,0.0
8701,87.0,0.0,90.0,4.0,0.0
8702,87.0,35.0,90.0,10.0,0.0
8703,77.0,5.0,90.0,4.0,0.0
8704,77.0,0.0,90.0,10.0,0.0
8705,60.0,0.0,60.0,14.0,0.0
8706,60.0,135.0,60.0,13.0,0.0
8707,68.0,0.0,60.0,12.0,0.0
8708,68.0,0.0,60.0,6.0,0.0
8709,80.0,0.0,60.0,5.0,0.0
8710,60.0,0.0,60.0,7.0,0.0
8711,80.0,0.0,60.0,11.0,0.0
8712,75.0,0.0,240.0,5.0,0.0
8713,78.0,120.0,120.0,4.0,0.0
8714,60.0,0.0,240.0,7.0,0.0
8715,68.0,85.0,240.0,6.0,0.0
8716,60.0,0.0,240.0,13.0,0.0
8717,75.0,0.0,240.0,11.0,0.0
8718,68.0,0.0,240.0,12.0,0.0
8719,78.0,0.0,120.0,10.0,0.0
8720,60.0,0.0,240.0,14.0,0.0
8721,77.0,0.0,120.0,10.0,0.0
8722,77.0,15.0,120.0,4.0,0.0
8723,75.0,0.0,90.0,10.0,0.0
8724,75.0,5.0,90.0,4.0,0.0
8725,75.0,0.0,60.0,11.0,0.0
8726,68.0,0.0,60.0,6.0,0.0
8727,60.0,0.0,60.0,13.0,0.0
8728,75.0,0.0,60.0,5.0,0.0
8729,60.0,0.0,60.0,7.0,0.0
8730,68.0,135.0,60.0,12.0,0.0
8731,60.0,0.0,60.0,14.0,0.0
8732,68.0,0.0,360.0,6.0,0.0
8733,61.0,0.0,240.0,7.0,0.0
8734,61.0,90.0,240.0,13.0,0.0
8735,73.0,0.0,360.0,11.0,0.0
8736,77.0,0.0,120.0,10.0,0.0
8737,61.0,0.0,240.0,14.0,0.0
8738,77.0,120.0,120.0,4.0,0.0
8739,68.0,0.0,360.0,12.0,0.0
8740,73.0,120.0,360.0,5.0,0.0
8741,73.0,15.0,120.0,10.0,0.0
8742,73.0,0.0,120.0,4.0,0.0
8743,75.0,0.0,120.0,10.0,0.0
8744,75.0,0.0,120.0,4.0,0.0
8745,59.0,0.0,60.0,14.0,0.0
8746,59.0,15.0,60.0,7.0,0.0
8747,59.0,0.0,60.0,13.0,0.0
8748,76.0,100.0,120.0,4.0,0.0
8749,58.0,85.0,240.0,14.0,0.0
8750,76.0,0.0,120.0,10.0,0.0
8751,58.0,0.0,240.0,7.0,0.0
8752,58.0,0.0,240.0,13.0,0.0
8753,85.0,0.0,90.0,4.0,0.0
8754,85.0,35.0,90.0,10.0,0.0
8755,75.0,5.0,90.0,10.0,0.0
8756,75.0,0.0,90.0,4.0,0.0
8757,78.0,135.0,60.0,11.0,0.0
8758,66.0,0.0,60.0,12.0,0.0
8759,78.0,0.0,60.0,5.0,0.0
8760,58.0,0.0,60.0,13.0,0.0
8761,58.0,0.0,60.0,7.0,0.0
8762,66.0,0.0,60.0,6.0,0.0
8763,58.0,0.0,60.0,14.0,0.0
8764,76.0,120.0,120.0,4.0,0.0
8765,58.0,0.0,240.0,7.0,0.0
8766,66.0,0.0,240.0,6.0,0.0
8767,73.0,0.0,240.0,11.0,0.0
8768,58.0,0.0,240.0,14.0,0.0
8769,73.0,85.0,240.0,5.0,0.0
8770,76.0,0.0,120.0,10.0,0.0
8771,66.0,0.0,240.0,12.0,0.0
8772,58.0,0.0,240.0,13.0,0.0
8773,75.0,15.0,120.0,4.0,0.0
8774,75.0,0.0,120.0,10.0,0.0
8775,73.0,5.0,90.0,4.0,0.0
8776,73.0,0.0,90.0,10.0,0.0
8777,73.0,0.0,60.0,5.0,0.0
8778,58.0,0.0,60.0,13.0,0.0
8779,58.0,135.0,60.0,7.0,0.0
8780,66.0,0.0,60.0,6.0,0.0
8781,66.0,0.0,60.0,12.0,0.0
8782,58.0,0.0,60.0,14.0,0.0
8783,73.0,0.0,60.0,11.0,0.0
8784,75.0,85.0,240.0,10.0,0.0
8785,71.0,0.0,120.0,11.0,0.0
8786,59.0,120.0,120.0,7.0,0.0
8787,59.0,0.0,120.0,13.0,0.0
8788,66.0,0.0,120.0,6.0,0.0
8789,66.0,0.0,120.0,12.0,0.0
8790,75.0,0.0,240.0,4.0,0.0
8791,59.0,0.0,120.0,14.0,0.0
8792,71.0,0.0,120.0,5.0,0.0
8793,56.0,0.0,120.0,7.0,0.0
8794,56.0,15.0,120.0,14.0,0.0
8795,56.0,0.0,120.0,13.0,0.0
8796,58.0,0.0,90.0,14.0,0.0
8797,58.0,0.0,90.0,7.0,0.0
8798,58.0,5.0,90.0,13.0,0.0
8799,87.0,135.0,60.0,4.0,0.0
8800,87.0,0.0,60.0,10.0,0.0
8801,68.0,0.0,120.0,6.0,0.0
8802,59.0,0.0,120.0,13.0,0.0
8803,87.0,0.0,120.0,4.0,0.0
8804,59.0,100.0,120.0,14.0,0.0
8805,68.0,0.0,120.0,12.0,0.0
8806,77.0,0.0,120.0,11.0,0.0
8807,87.0,0.0,120.0,10.0,0.0
8808,59.0,0.0,120.0,7.0,0.0
8809,77.0,0.0,120.0,5.0,0.0
8810,61.0,0.0,90.0,14.0,0.0
8811,61.0,0.0,90.0,7.0,0.0
8812,61.0,0.0,90.0,13.0,0.0
8813,88.0,0.0,90.0,4.0,0.0
8814,88.0,120.0,90.0,10.0,0.0
8815,58.0,0.0,90.0,7.0,0.0
8816,85.0,0.0,90.0,4.0,0.0
8817,58.0,0.0,90.0,13.0,0.0
8818,58.0,0.0,90.0,14.0,0.0
8819,85.0,140.0,90.0,10.0,0.0
8820,85.0,0.0,120.0,10.0,0.0
8821,58.0,0.0,120.0,14.0,0.0
8822,70.0,0.0,120.0,12.0,0.0
8823,58.0,100.0,120.0,7.0,0.0
8824,79.0,0.0,120.0,11.0,0.0
8825,58.0,0.0,120.0,13.0,0.0
8826,79.0,0.0,120.0,5.0,0.0
8827,70.0,0.0,120.0,6.0,0.0
8828,85.0,0.0,120.0,4.0,0.0
8829,59.0,120.0,90.0,14.0,0.0
8830,59.0,0.0,90.0,7.0,0.0
8831,59.0,0.0,90.0,13.0,0.0
8832,87.0,0.0,90.0,10.0,0.0
8833,87.0,0.0,90.0,4.0,0.0
8834,56.0,120.0,90.0,13.0,0.0
8835,83.0,0.0,90.0,10.0,0.0
8836,56.0,0.0,90.0,14.0,0.0
8837,83.0,0.0,90.0,4.0,0.0
8838,56.0,0.0,90.0,7.0,0.0
8839,83.0,20.0,90.0,10.0,0.0
8840,56.0,90.0,240.0,7.0,0.0
8841,63.0,0.0,120.0,12.0,0.0
8842,56.0,120.0,120.0,14.0,0.0
8843,56.0,0.0,120.0,13.0,0.0
8844,80.0,0.0,240.0,5.0,0.0
8845,80.0,0.0,240.0,11.0,0.0
8846,83.0,0.0,90.0,4.0,0.0
8847,75.0,0.0,120.0,6.0,0.0
8848,80.0,0.0,120.0,4.0,0.0
8849,80.0,15.0,120.0,10.0,0.0
8850,82.0,0.0,120.0,10.0,0.0
8851,82.0,120.0,120.0,4.0,0.0
8852,80.0,0.0,60.0,5.0,0.0
8853,80.0,0.0,60.0,11.0,0.0
8854,68.0,15.0,60.0,7.0,0.0
8855,84.0,0.0,120.0,10.0,0.0
8856,84.0,0.0,120.0,4.0,0.0
8857,75.0,0.0,120.0,12.0,0.0
8858,80.0,0.0,120.0,11.0,0.0
8859,44.0,0.0,120.0,13.0,0.0
8860,68.0,85.0,240.0,7.0,0.0
8861,44.0,0.0,120.0,14.0,0.0
8862,75.0,0.0,120.0,6.0,0.0
8863,80.0,100.0,120.0,5.0,0.0
8864,82.0,0.0,90.0,11.0,0.0
8865,82.0,0.0,90.0,5.0,0.0
8866,85.0,0.0,90.0,4.0,0.0
8867,85.0,35.0,90.0,10.0,0.0
8868,87.0,0.0,90.0,4.0,0.0
8869,78.0,5.0,90.0,5.0,0.0
8870,87.0,0.0,90.0,10.0,0.0
8871,78.0,0.0,90.0,11.0,0.0
8872,68.0,135.0,60.0,7.0,0.0
8873,78.0,0.0,120.0,11.0,0.0
8874,72.0,100.0,120.0,6.0,0.0
8875,78.0,0.0,120.0,5.0,0.0
8876,56.0,0.0,120.0,13.0,0.0
8877,56.0,0.0,120.0,14.0,0.0
8878,68.0,0.0,120.0,7.0,0.0
8879,80.0,85.0,240.0,4.0,0.0
8880,72.0,0.0,120.0,12.0,0.0
8881,80.0,0.0,240.0,10.0,0.0
8882,80.0,35.0,90.0,5.0,0.0
8883,80.0,0.0,90.0,11.0,0.0
8884,77.0,0.0,90.0,11.0,0.0
8885,77.0,5.0,90.0,5.0,0.0
8886,84.0,135.0,60.0,10.0,0.0
8887,84.0,0.0,60.0,4.0,0.0
8888,77.0,0.0,120.0,5.0,0.0
8889,73.0,0.0,120.0,10.0,0.0
8890,68.0,0.0,120.0,6.0,0.0
8891,68.0,0.0,120.0,12.0,0.0
8892,61.0,0.0,120.0,14.0,0.0
8893,61.0,0.0,120.0,13.0,0.0
8894,73.0,120.0,120.0,4.0,0.0
8895,77.0,0.0,120.0,11.0,0.0
8896,77.0,0.0,120.0,10.0,0.0
8897,77.0,0.0,120.0,4.0,0.0
8898,73.0,100.0,120.0,5.0,0.0
8899,73.0,0.0,120.0,11.0,0.0
8900,80.0,0.0,90.0,10.0,0.0
8901,75.0,0.0,120.0,5.0,0.0
8902,75.0,120.0,120.0,11.0,0.0
8903,80.0,5.0,90.0,4.0,0.0
8904,61.0,15.0,60.0,7.0,0.0
8905,80.0,0.0,120.0,1.0,0.0
8906,85.0,0.0,120.0,4.0,0.0
8907,80.0,0.0,120.0,6.0,0.0
8908,77.0,0.0,120.0,11.0,0.0
8909,85.0,0.0,120.0,0.0,0.0
8910,85.0,0.0,120.0,10.0,0.0
8911,68.0,0.0,120.0,12.0,0.0
8912,61.0,85.0,240.0,7.0,0.0
8913,49.0,0.0,120.0,3.0,0.0
8914,49.0,0.0,120.0,13.0,0.0
8915,49.0,0.0,120.0,14.0,0.0
8916,77.0,0.0,120.0,5.0,0.0
8917,73.0,100.0,120.0,2.0,0.0
8918,78.0,0.0,90.0,5.0,0.0
8919,78.0,35.0,90.0,11.0,0.0
8920,87.0,0.0,90.0,4.0,0.0
8921,87.0,0.0,90.0,10.0,0.0
8922,80.0,5.0,90.0,11.0,0.0
8923,80.0,0.0,90.0,5.0,0.0
8924,83.0,0.0,90.0,4.0,0.0
8925,83.0,0.0,90.0,10.0,0.0
8926,61.0,135.0,60.0,7.0,0.0
8927,73.0,0.0,240.0,11.0,0.0
8928,68.0,0.0,120.0,12.0,0.0
8929,61.0,0.0,120.0,14.0,0.0
8930,83.0,0.0,120.0,10.0,0.0
8931,73.0,85.0,240.0,5.0,0.0
8932,80.0,0.0,120.0,1.0,0.0
8933,77.0,0.0,120.0,6.0,0.0
8934,83.0,0.0,120.0,4.0,0.0
8935,61.0,0.0,120.0,7.0,0.0
8936,61.0,0.0,120.0,13.0,0.0
8937,49.0,0.0,120.0,3.0,0.0
8938,83.0,0.0,120.0,0.0,0.0
8939,73.0,100.0,120.0,2.0,0.0
8940,85.0,0.0,90.0,10.0,0.0
8941,85.0,35.0,90.0,4.0,0.0
8942,82.0,5.0,90.0,10.0,0.0
8943,82.0,0.0,90.0,4.0,0.0
8944,77.0,135.0,60.0,11.0,0.0
8945,77.0,0.0,60.0,5.0,0.0
8946,66.0,0.0,120.0,5.0,0.0
8947,66.0,120.0,120.0,11.0,0.0
8948,82.0,0.0,120.0,10.0,0.0
8949,54.0,0.0,120.0,3.0,0.0
8950,66.0,0.0,120.0,14.0,0.0
8951,78.0,0.0,120.0,1.0,0.0
8952,73.0,0.0,120.0,2.0,0.0
8953,66.0,0.0,120.0,12.0,0.0
8954,82.0,0.0,120.0,0.0,0.0
8955,82.0,0.0,120.0,4.0,0.0
8956,73.0,0.0,120.0,6.0,0.0
8957,66.0,0.0,120.0,13.0,0.0
8958,70.0,0.0,120.0,5.0,0.0
8959,70.0,100.0,120.0,11.0,0.0
8960,78.0,0.0,120.0,4.0,0.0
8961,78.0,0.0,120.0,10.0,0.0
8962,73.0,0.0,90.0,11.0,0.0
8963,73.0,5.0,90.0,5.0,0.0
8964,80.0,120.0,120.0,4.0,0.0
8965,80.0,0.0,120.0,10.0,0.0
8966,66.0,15.0,60.0,7.0,0.0
8967,73.0,0.0,120.0,12.0,0.0
8968,82.0,0.0,120.0,4.0,0.0
8969,42.0,0.0,120.0,13.0,0.0
8970,78.0,100.0,120.0,5.0,0.0
8971,78.0,0.0,120.0,1.0,0.0
8972,73.0,0.0,120.0,6.0,0.0
8973,82.0,0.0,120.0,0.0,0.0
8974,82.0,0.0,120.0,10.0,0.0
8975,42.0,0.0,120.0,14.0,0.0
8976,66.0,85.0,240.0,7.0,0.0
8977,78.0,0.0,120.0,11.0,0.0
8978,83.0,0.0,90.0,10.0,0.0
8979,80.0,0.0,90.0,5.0,0.0
8980,83.0,35.0,90.0,4.0,0.0
8981,80.0,0.0,90.0,11.0,0.0
8982,76.0,0.0,90.0,5.0,0.0
8983,85.0,5.0,90.0,10.0,0.0
8984,85.0,0.0,90.0,4.0,0.0
8985,76.0,0.0,90.0,11.0,0.0
8986,66.0,135.0,60.0,7.0,0.0
8987,76.0,0.0,120.0,11.0,0.0
8988,66.0,0.0,120.0,7.0,0.0
8989,85.0,0.0,120.0,0.0,0.0
8990,70.0,100.0,120.0,12.0,0.0
8991,54.0,0.0,120.0,14.0,0.0
8992,82.0,0.0,120.0,1.0,0.0
8993,78.0,0.0,240.0,10.0,0.0
8994,76.0,0.0,120.0,5.0,0.0
8995,78.0,85.0,240.0,4.0,0.0
8996,54.0,0.0,120.0,13.0,0.0
8997,70.0,0.0,120.0,6.0,0.0
8998,78.0,35.0,90.0,11.0,0.0
8999,78.0,0.0,90.0,5.0,0.0
9000,75.0,5.0,90.0,11.0,0.0
9001,75.0,0.0,90.0,5.0,0.0
9002,82.0,0.0,60.0,4.0,0.0
9003,82.0,135.0,60.0,10.0,0.0
9004,66.0,0.0,120.0,12.0,0.0
9005,66.0,0.0,120.0,6.0,0.0
9006,75.0,120.0,120.0,11.0,0.0
9007,87.0,0.0,120.0,0.0,0.0
9008,59.0,0.0,120.0,14.0,0.0
9009,71.0,0.0,120.0,10.0,0.0
9010,83.0,0.0,120.0,1.0,0.0
9011,71.0,0.0,120.0,4.0,0.0
9012,75.0,0.0,120.0,5.0,0.0
9013,59.0,0.0,120.0,13.0,0.0
9014,71.0,100.0,120.0,11.0,0.0
9015,71.0,0.0,120.0,5.0,0.0
9016,75.0,0.0,120.0,4.0,0.0
9017,75.0,0.0,120.0,10.0,0.0
9018,78.0,0.0,90.0,10.0,0.0
9019,75.0,5.0,90.0,11.0,0.0
9020,78.0,0.0,90.0,4.0,0.0
9021,75.0,0.0,90.0,5.0,0.0
9022,59.0,135.0,60.0,7.0,0.0
9023,83.0,0.0,120.0,10.0,0.0
9024,56.0,85.0,240.0,7.0,0.0
9025,80.0,0.0,120.0,1.0,0.0
9026,80.0,0.0,120.0,5.0,0.0
9027,83.0,0.0,120.0,4.0,0.0
9028,83.0,100.0,120.0,0.0,0.0
9029,80.0,0.0,120.0,11.0,0.0
9030,85.0,0.0,90.0,10.0,0.0
9031,82.0,35.0,90.0,5.0,0.0
9032,85.0,0.0,90.0,4.0,0.0
9033,82.0,0.0,90.0,11.0,0.0
9034,78.0,5.0,90.0,5.0,0.0
9035,82.0,0.0,90.0,10.0,0.0
9036,82.0,0.0,90.0,4.0,0.0
9037,78.0,0.0,90.0,11.0,0.0
9038,56.0,0.0,60.0,7.0,0.0
9039,56.0,0.0,60.0,14.0,0.0
9040,71.0,135.0,60.0,6.0,0.0
9041,71.0,0.0,60.0,12.0,0.0
9042,56.0,0.0,60.0,13.0,0.0
9043,58.0,0.0,240.0,13.0,0.0
9044,73.0,0.0,240.0,6.0,0.0
9045,78.0,100.0,120.0,1.0,0.0
9046,82.0,0.0,120.0,4.0,0.0
9047,78.0,0.0,120.0,5.0,0.0
9048,58.0,85.0,240.0,14.0,0.0
9049,82.0,0.0,120.0,10.0,0.0
9050,78.0,0.0,120.0,11.0,0.0
9051,73.0,0.0,240.0,12.0,0.0
9052,58.0,0.0,240.0,7.0,0.0
9053,82.0,0.0,120.0,0.0,0.0
9054,80.0,35.0,90.0,11.0,0.0
9055,80.0,0.0,90.0,5.0,0.0
9056,83.0,0.0,90.0,4.0,0.0
9057,83.0,0.0,90.0,10.0,0.0
9058,77.0,0.0,90.0,11.0,0.0
9059,80.0,0.0,90.0,4.0,0.0
9060,80.0,0.0,90.0,10.0,0.0
9061,77.0,5.0,90.0,5.0,0.0
9062,68.0,0.0,60.0,12.0,0.0
9063,59.0,0.0,60.0,13.0,0.0
9064,59.0,0.0,60.0,7.0,0.0
9065,68.0,0.0,60.0,6.0,0.0
9066,59.0,135.0,60.0,14.0,0.0
9067,73.0,0.0,120.0,6.0,0.0
9068,80.0,0.0,120.0,10.0,0.0
9069,61.0,120.0,120.0,14.0,0.0
9070,80.0,0.0,120.0,0.0,0.0
9071,61.0,0.0,120.0,13.0,0.0
9072,73.0,0.0,120.0,12.0,0.0
9073,80.0,0.0,120.0,4.0,0.0
9074,77.0,0.0,120.0,5.0,0.0
9075,77.0,0.0,120.0,11.0,0.0
9076,61.0,85.0,240.0,7.0,0.0
9077,73.0,0.0,120.0,1.0,0.0
9078,78.0,0.0,120.0,11.0,0.0
9079,82.0,0.0,120.0,10.0,0.0
9080,82.0,0.0,120.0,4.0,0.0
9081,78.0,15.0,120.0,5.0,0.0
9082,80.0,0.0,90.0,11.0,0.0
9083,83.0,0.0,120.0,10.0,0.0
9084,80.0,5.0,90.0,5.0,0.0
9085,83.0,120.0,120.0,4.0,0.0
9086,59.0,15.0,60.0,7.0,0.0
9087,85.0,0.0,120.0,0.0,0.0
9088,82.0,0.0,120.0,1.0,0.0
9089,82.0,0.0,120.0,11.0,0.0
9090,82.0,100.0,120.0,5.0,0.0
9091,85.0,0.0,120.0,4.0,0.0
9092,58.0,85.0,240.0,7.0,0.0
9093,85.0,0.0,120.0,10.0,0.0
9094,87.0,35.0,90.0,4.0,0.0
9095,87.0,0.0,90.0,10.0,0.0
9096,83.0,0.0,90.0,11.0,0.0
9097,83.0,0.0,90.0,5.0,0.0
9098,83.0,0.0,90.0,10.0,0.0
9099,80.0,5.0,90.0,11.0,0.0
9100,83.0,0.0,90.0,4.0,0.0
9101,80.0,0.0,90.0,5.0,0.0
9102,58.0,135.0,60.0,14.0,0.0
9103,73.0,0.0,60.0,12.0,0.0
9104,73.0,0.0,60.0,6.0,0.0
9105,58.0,0.0,60.0,13.0,0.0
9106,58.0,0.0,60.0,7.0,0.0
9107,83.0,0.0,120.0,0.0,0.0
9108,75.0,85.0,240.0,12.0,0.0
9109,80.0,0.0,120.0,5.0,0.0
9110,83.0,0.0,120.0,10.0,0.0
9111,80.0,0.0,120.0,11.0,0.0
9112,83.0,100.0,120.0,4.0,0.0
9113,59.0,0.0,240.0,13.0,0.0
9114,75.0,0.0,240.0,6.0,0.0
9115,59.0,0.0,240.0,14.0,0.0
9116,59.0,0.0,240.0,7.0,0.0
9117,80.0,0.0,120.0,1.0,0.0
9118,85.0,0.0,90.0,10.0,0.0
9119,85.0,0.0,90.0,4.0,0.0
9120,82.0,35.0,90.0,5.0,0.0
9121,82.0,0.0,90.0,11.0,0.0
9122,82.0,0.0,90.0,4.0,0.0
9123,78.0,5.0,90.0,5.0,0.0
9124,82.0,0.0,90.0,10.0,0.0
9125,78.0,0.0,90.0,11.0,0.0
9126,61.0,0.0,60.0,13.0,0.0
9127,70.0,135.0,60.0,6.0,0.0
9128,61.0,0.0,60.0,14.0,0.0
9129,70.0,0.0,60.0,12.0,0.0
9130,61.0,0.0,60.0,7.0,0.0
9131,82.0,0.0,120.0,10.0,0.0
9132,82.0,0.0,120.0,0.0,0.0
9133,75.0,120.0,120.0,12.0,0.0
9134,63.0,0.0,120.0,13.0,0.0
9135,63.0,0.0,120.0,14.0,0.0
9136,63.0,0.0,120.0,7.0,0.0
9137,78.0,0.0,120.0,5.0,0.0
9138,78.0,0.0,120.0,1.0,0.0
9139,78.0,0.0,120.0,11.0,0.0
9140,82.0,0.0,120.0,4.0,0.0
9141,75.0,0.0,120.0,6.0,0.0
9142,83.0,0.0,120.0,4.0,0.0
9143,83.0,120.0,120.0,10.0,0.0
9144,85.0,0.0,120.0,4.0,0.0
9145,85.0,120.0,120.0,10.0,0.0
9146,80.0,0.0,120.0,1.0,0.0
9147,59.0,0.0,120.0,7.0,0.0
9148,59.0,0.0,120.0,14.0,0.0
9149,87.0,0.0,120.0,10.0,0.0
9150,59.0,0.0,120.0,13.0,0.0
9151,87.0,0.0,120.0,0.0,0.0
9152,87.0,100.0,120.0,4.0,0.0
9153,88.0,0.0,90.0,10.0,0.0
9154,88.0,120.0,90.0,4.0,0.0
9155,85.0,0.0,90.0,10.0,0.0
9156,85.0,5.0,90.0,4.0,0.0
9157,77.0,0.0,60.0,5.0,0.0
9158,68.0,135.0,60.0,6.0,0.0
9159,68.0,0.0,60.0,12.0,0.0
9160,77.0,0.0,60.0,11.0,0.0
9161,70.0,0.0,240.0,12.0,0.0
9162,82.0,0.0,120.0,1.0,0.0
9163,58.0,0.0,120.0,14.0,0.0
9164,58.0,0.0,120.0,13.0,0.0
9165,77.0,85.0,240.0,11.0,0.0
9166,85.0,0.0,120.0,10.0,0.0
9167,85.0,100.0,120.0,0.0,0.0
9168,85.0,0.0,120.0,4.0,0.0
9169,77.0,0.0,240.0,5.0,0.0
9170,58.0,0.0,120.0,7.0,0.0
9171,73.0,0.0,240.0,6.0,0.0
9172,87.0,35.0,90.0,10.0,0.0
9173,87.0,0.0,90.0,4.0,0.0
9174,83.0,5.0,90.0,4.0,0.0
9175,83.0,0.0,90.0,10.0,0.0
9176,79.0,0.0,60.0,5.0,0.0
9177,70.0,135.0,60.0,12.0,0.0
9178,75.0,0.0,60.0,6.0,0.0
9179,79.0,0.0,60.0,11.0,0.0
9180,80.0,0.0,240.0,5.0,0.0
9181,87.0,85.0,240.0,1.0,0.0
9182,63.0,0.0,240.0,12.0,0.0
9183,75.0,0.0,240.0,6.0,0.0
9184,83.0,0.0,240.0,10.0,0.0
9185,56.0,0.0,120.0,14.0,0.0
9186,83.0,0.0,240.0,4.0,0.0
9187,56.0,120.0,120.0,7.0,0.0
9188,56.0,0.0,120.0,13.0,0.0
9189,80.0,0.0,240.0,11.0,0.0
9190,83.0,0.0,240.0,0.0,0.0
9191,59.0,15.0,120.0,13.0,0.0
9192,59.0,0.0,120.0,7.0,0.0
9193,59.0,0.0,120.0,14.0,0.0
9194,63.0,0.0,90.0,14.0,0.0
9195,63.0,0.0,90.0,13.0,0.0
9196,63.0,5.0,90.0,7.0,0.0
9197,83.0,135.0,60.0,10.0,0.0
9198,83.0,0.0,60.0,1.0,0.0
9199,83.0,0.0,60.0,4.0,0.0
9200,80.0,0.0,60.0,0.0,0.0
9201,75.0,0.0,60.0,6.0,0.0
9202,75.0,0.0,60.0,12.0,0.0
9203,80.0,0.0,60.0,5.0,0.0
9204,80.0,0.0,60.0,11.0,0.0
9205,68.0,0.0,120.0,14.0,0.0
9206,80.0,0.0,840.0,1.0,0.0
9207,83.0,0.0,240.0,4.0,0.0
9208,80.0,85.0,240.0,11.0,0.0
9209,83.0,0.0,840.0,0.0,0.0
9210,68.0,100.0,120.0,13.0,0.0
9211,83.0,0.0,240.0,10.0,0.0
9212,75.0,0.0,240.0,6.0,0.0
9213,80.0,0.0,240.0,5.0,0.0
9214,75.0,0.0,240.0,12.0,0.0
9215,68.0,0.0,120.0,7.0,0.0
9216,70.0,0.0,90.0,13.0,0.0
9217,70.0,0.0,90.0,14.0,0.0
9218,70.0,35.0,90.0,7.0,0.0
9219,66.0,0.0,90.0,7.0,0.0
9220,66.0,5.0,90.0,14.0,0.0
9221,66.0,0.0,90.0,13.0,0.0
9222,75.0,0.0,60.0,6.0,0.0
9223,80.0,135.0,60.0,5.0,0.0
9224,75.0,0.0,60.0,12.0,0.0
9225,83.0,0.0,60.0,4.0,0.0
9226,80.0,0.0,60.0,11.0,0.0
9227,83.0,0.0,60.0,10.0,0.0
9228,75.0,0.0,240.0,12.0,0.0
9229,80.0,0.0,240.0,11.0,0.0
9230,66.0,0.0,120.0,14.0,0.0
9231,75.0,0.0,240.0,6.0,0.0
9232,66.0,100.0,120.0,7.0,0.0
9233,83.0,0.0,240.0,4.0,0.0
9234,83.0,0.0,240.0,10.0,0.0
9235,80.0,85.0,240.0,5.0,0.0
9236,66.0,0.0,120.0,13.0,0.0
9237,68.0,0.0,90.0,13.0,0.0
9238,68.0,0.0,90.0,14.0,0.0
9239,68.0,35.0,90.0,7.0,0.0
9240,65.0,5.0,90.0,14.0,0.0
9241,65.0,0.0,90.0,7.0,0.0
9242,65.0,0.0,90.0,13.0,0.0
9243,80.0,135.0,60.0,11.0,0.0
9244,75.0,0.0,60.0,12.0,0.0
9245,80.0,0.0,60.0,5.0,0.0
9246,83.0,0.0,60.0,4.0,0.0
9247,75.0,0.0,60.0,6.0,0.0
9248,83.0,0.0,60.0,10.0,0.0
9249,73.0,0.0,240.0,6.0,0.0
9250,83.0,0.0,120.0,4.0,0.0
9251,80.0,100.0,120.0,5.0,0.0
9252,65.0,0.0,120.0,7.0,0.0
9253,73.0,85.0,240.0,12.0,0.0
9254,65.0,0.0,120.0,13.0,0.0
9255,65.0,0.0,120.0,14.0,0.0
9256,83.0,0.0,120.0,10.0,0.0
9257,80.0,0.0,120.0,11.0,0.0
9258,80.0,0.0,90.0,0.0,0.0
9259,77.0,0.0,90.0,5.0,0.0
9260,77.0,35.0,90.0,11.0,0.0
9261,80.0,0.0,90.0,10.0,0.0
9262,73.0,0.0,90.0,1.0,0.0
9263,80.0,0.0,90.0,4.0,0.0
9264,78.0,0.0,90.0,11.0,0.0
9265,82.0,0.0,90.0,0.0,0.0
9266,82.0,0.0,90.0,10.0,0.0
9267,78.0,0.0,90.0,1.0,0.0
9268,82.0,0.0,90.0,4.0,0.0
9269,78.0,5.0,90.0,5.0,0.0
9270,73.0,0.0,60.0,12.0,0.0
9271,73.0,135.0,60.0,6.0,0.0
9272,73.0,0.0,60.0,2.0,0.0
9273,49.0,0.0,60.0,3.0,0.0
9274,80.0,0.0,120.0,1.0,0.0
9275,80.0,0.0,120.0,11.0,0.0
9276,83.0,0.0,120.0,10.0,0.0
9277,49.0,0.0,240.0,3.0,0.0
9278,73.0,85.0,240.0,2.0,0.0
9279,73.0,0.0,240.0,12.0,0.0
9280,73.0,0.0,240.0,6.0,0.0
9281,83.0,0.0,120.0,0.0,0.0
9282,83.0,0.0,120.0,4.0,0.0
9283,80.0,100.0,120.0,5.0,0.0
9284,85.0,0.0,90.0,4.0,0.0
9285,77.0,0.0,90.0,11.0,0.0
9286,85.0,35.0,90.0,0.0,0.0
9287,77.0,0.0,90.0,5.0,0.0
9288,92.0,0.0,90.0,10.0,0.0
9289,73.0,0.0,90.0,1.0,0.0
9290,78.0,0.0,90.0,1.0,0.0
9291,78.0,0.0,90.0,11.0,0.0
9292,82.0,0.0,90.0,0.0,0.0
9293,82.0,0.0,90.0,10.0,0.0
9294,78.0,5.0,90.0,5.0,0.0
9295,82.0,0.0,90.0,4.0,0.0
9296,61.0,0.0,60.0,14.0,0.0
9297,49.0,0.0,60.0,3.0,0.0
9298,73.0,0.0,60.0,6.0,0.0
9299,73.0,0.0,60.0,2.0,0.0
9300,61.0,135.0,60.0,13.0,0.0
9301,61.0,0.0,60.0,7.0,0.0
9302,73.0,0.0,60.0,12.0,0.0
9303,80.0,100.0,120.0,5.0,0.0
9304,83.0,0.0,120.0,0.0,0.0
9305,80.0,0.0,120.0,1.0,0.0
9306,73.0,0.0,240.0,12.0,0.0
9307,58.0,85.0,240.0,14.0,0.0
9308,80.0,0.0,120.0,11.0,0.0
9309,58.0,0.0,240.0,7.0,0.0
9310,83.0,0.0,120.0,4.0,0.0
9311,83.0,0.0,120.0,10.0,0.0
9312,73.0,0.0,240.0,2.0,0.0
9313,58.0,0.0,240.0,13.0,0.0
9314,49.0,0.0,240.0,3.0,0.0
9315,73.0,0.0,240.0,6.0,0.0
9316,78.0,0.0,90.0,5.0,0.0
9317,82.0,0.0,90.0,0.0,0.0
9318,82.0,0.0,90.0,10.0,0.0
9319,82.0,0.0,90.0,4.0,0.0
9320,78.0,35.0,90.0,1.0,0.0
9321,78.0,0.0,90.0,11.0,0.0
9322,77.0,0.0,90.0,5.0,0.0
9323,80.0,0.0,90.0,10.0,0.0
9324,80.0,0.0,90.0,0.0,0.0
9325,77.0,5.0,90.0,11.0,0.0
9326,80.0,0.0,90.0,4.0,0.0
9327,77.0,0.0,90.0,1.0,0.0
9328,61.0,0.0,60.0,7.0,0.0
9329,49.0,135.0,60.0,3.0,0.0
9330,73.0,0.0,60.0,6.0,0.0
9331,73.0,0.0,60.0,2.0,0.0
9332,61.0,0.0,60.0,14.0,0.0
9333,73.0,0.0,60.0,12.0,0.0
9334,61.0,0.0,60.0,13.0,0.0
9335,54.0,100.0,120.0,3.0,0.0
9336,73.0,0.0,240.0,6.0,0.0
9337,54.0,0.0,240.0,13.0,0.0
9338,54.0,0.0,240.0,7.0,0.0
9339,82.0,0.0,120.0,4.0,0.0
9340,54.0,0.0,240.0,14.0,0.0
9341,78.0,0.0,240.0,1.0,0.0
9342,73.0,0.0,240.0,2.0,0.0
9343,82.0,0.0,120.0,10.0,0.0
9344,78.0,0.0,240.0,5.0,0.0
9345,73.0,0.0,240.0,12.0,0.0
9346,82.0,0.0,120.0,0.0,0.0
9347,78.0,85.0,240.0,11.0,0.0
9348,85.0,0.0,90.0,0.0,0.0
9349,85.0,0.0,90.0,10.0,0.0
9350,85.0,35.0,90.0,4.0,0.0
9351,83.0,5.0,90.0,10.0,0.0
9352,83.0,0.0,90.0,4.0,0.0
9353,83.0,0.0,90.0,0.0,0.0
9354,56.0,0.0,60.0,13.0,0.0
9355,73.0,0.0,60.0,12.0,0.0
9356,73.0,0.0,60.0,6.0,0.0
9357,77.0,0.0,60.0,11.0,0.0
9358,56.0,270.0,60.0,14.0,0.0
9359,56.0,0.0,60.0,7.0,0.0
9360,80.0,0.0,60.0,2.0,0.0
9361,73.0,0.0,60.0,1.0,0.0
9362,77.0,0.0,60.0,5.0,0.0
9363,73.0,0.0,240.0,12.0,0.0
9364,85.0,0.0,240.0,10.0,0.0
9365,78.0,0.0,240.0,5.0,0.0
9366,78.0,0.0,240.0,11.0,0.0
9367,78.0,0.0,240.0,2.0,0.0
9368,58.0,0.0,240.0,7.0,0.0
9369,58.0,90.0,240.0,13.0,0.0
9370,58.0,0.0,240.0,14.0,0.0
9371,70.0,0.0,240.0,1.0,0.0
9372,85.0,0.0,240.0,4.0,0.0
9373,85.0,0.0,240.0,0.0,0.0
9374,73.0,0.0,240.0,6.0,0.0
9375,59.0,0.0,60.0,14.0,0.0
9376,71.0,0.0,60.0,6.0,0.0
9377,59.0,0.0,60.0,7.0,0.0
9378,75.0,0.0,60.0,11.0,0.0
9379,75.0,0.0,60.0,5.0,0.0
9380,78.0,0.0,60.0,4.0,0.0
9381,78.0,270.0,60.0,10.0,0.0
9382,66.0,0.0,60.0,1.0,0.0
9383,87.0,0.0,60.0,0.0,0.0
9384,78.0,0.0,60.0,2.0,0.0
9385,71.0,0.0,60.0,12.0,0.0
9386,54.0,0.0,60.0,3.0,0.0
9387,59.0,0.0,60.0,13.0,0.0
9388,68.0,0.0,240.0,12.0,0.0
9389,73.0,0.0,240.0,5.0,0.0
9390,78.0,0.0,240.0,2.0,0.0
9391,73.0,90.0,240.0,1.0,0.0
9392,73.0,0.0,240.0,10.0,0.0
9393,73.0,0.0,240.0,11.0,0.0
9394,61.0,0.0,240.0,7.0,0.0
9395,49.0,0.0,240.0,3.0,0.0
9396,80.0,0.0,240.0,0.0,0.0
9397,68.0,0.0,240.0,6.0,0.0
9398,73.0,0.0,240.0,4.0,0.0
9399,61.0,0.0,240.0,13.0,0.0
9400,61.0,0.0,240.0,14.0,0.0
9401,49.0,0.0,60.0,14.0,0.0
9402,49.0,0.0,60.0,13.0,0.0
9403,73.0,0.0,60.0,2.0,0.0
9404,73.0,0.0,60.0,5.0,0.0
9405,68.0,0.0,60.0,6.0,0.0
9406,77.0,135.0,60.0,4.0,0.0
9407,49.0,0.0,60.0,3.0,0.0
9408,73.0,0.0,60.0,11.0,0.0
9409,68.0,0.0,60.0,12.0,0.0
9410,49.0,0.0,60.0,7.0,0.0
9411,77.0,0.0,60.0,10.0,0.0
9412,85.0,0.0,60.0,0.0,0.0
9413,80.0,0.0,60.0,1.0,0.0
9414,78.0,0.0,120.0,1.0,0.0
9415,54.0,0.0,120.0,3.0,0.0
9416,54.0,0.0,240.0,7.0,0.0
9417,78.0,0.0,120.0,10.0,0.0
9418,78.0,0.0,120.0,4.0,0.0
9419,70.0,135.0,120.0,6.0,0.0
9420,82.0,0.0,120.0,0.0,0.0
9421,73.0,0.0,120.0,2.0,0.0
9422,54.0,90.0,240.0,13.0,0.0
9423,73.0,0.0,120.0,5.0,0.0
9424,70.0,0.0,120.0,12.0,0.0
9425,73.0,0.0,120.0,11.0,0.0
9426,54.0,0.0,240.0,14.0,0.0
9427,58.0,135.0,60.0,14.0,0.0
9428,58.0,0.0,60.0,13.0,0.0
9429,61.0,0.0,60.0,7.0,0.0
9430,73.0,100.0,120.0,6.0,0.0
9431,82.0,0.0,120.0,10.0,0.0
9432,78.0,0.0,120.0,5.0,0.0
9433,61.0,0.0,120.0,7.0,0.0
9434,82.0,0.0,120.0,4.0,0.0
9435,58.0,0.0,120.0,13.0,0.0
9436,58.0,0.0,120.0,14.0,0.0
9437,78.0,0.0,120.0,11.0,0.0
9438,73.0,0.0,120.0,12.0,0.0
9439,59.0,120.0,90.0,14.0,0.0
9440,63.0,0.0,90.0,7.0,0.0
9441,59.0,0.0,90.0,13.0,0.0
9442,59.0,0.0,90.0,7.0,0.0
9443,56.0,140.0,90.0,13.0,0.0
9444,56.0,0.0,90.0,14.0,0.0
9445,80.0,0.0,120.0,11.0,0.0
9446,59.0,0.0,120.0,7.0,0.0
9447,80.0,0.0,120.0,5.0,0.0
9448,85.0,0.0,120.0,10.0,0.0
9449,56.0,0.0,120.0,13.0,0.0
9450,77.0,0.0,120.0,6.0,0.0
9451,56.0,0.0,120.0,14.0,0.0
9452,77.0,0.0,120.0,12.0,0.0
9453,85.0,100.0,120.0,4.0,0.0
9454,58.0,0.0,90.0,13.0,0.0
9455,61.0,0.0,90.0,7.0,0.0
9456,58.0,120.0,90.0,14.0,0.0
9457,54.0,140.0,90.0,14.0,0.0
9458,54.0,0.0,90.0,13.0,0.0
9459,58.0,0.0,90.0,7.0,0.0
9460,54.0,0.0,120.0,13.0,0.0
9461,73.0,0.0,120.0,12.0,0.0
9462,82.0,0.0,120.0,6.0,0.0
9463,78.0,0.0,120.0,2.0,0.0
9464,54.0,0.0,120.0,3.0,0.0
9465,85.0,120.0,120.0,5.0,0.0
9466,85.0,0.0,120.0,11.0,0.0
9467,90.0,0.0,120.0,10.0,0.0
9468,85.0,0.0,120.0,0.0,0.0
9469,82.0,0.0,120.0,1.0,0.0
9470,90.0,0.0,120.0,4.0,0.0
9471,58.0,0.0,120.0,7.0,0.0
9472,54.0,0.0,120.0,14.0,0.0
9473,59.0,0.0,120.0,7.0,0.0
9474,56.0,100.0,120.0,14.0,0.0
9475,56.0,0.0,120.0,13.0,0.0
9476,61.0,0.0,90.0,7.0,0.0
9477,58.0,140.0,90.0,14.0,0.0
9478,58.0,0.0,90.0,13.0,0.0
9479,73.0,0.0,120.0,6.0,0.0
9480,61.0,0.0,120.0,7.0,0.0
9481,58.0,100.0,120.0,13.0,0.0
9482,73.0,0.0,120.0,12.0,0.0
9483,78.0,0.0,120.0,5.0,0.0
9484,82.0,0.0,120.0,10.0,0.0
9485,82.0,0.0,120.0,4.0,0.0
9486,78.0,0.0,120.0,11.0,0.0
9487,58.0,0.0,120.0,14.0,0.0
9488,59.0,0.0,90.0,14.0,0.0
9489,63.0,120.0,90.0,7.0,0.0
9490,59.0,0.0,90.0,13.0,0.0
9491,56.0,140.0,90.0,14.0,0.0
9492,56.0,0.0,90.0,13.0,0.0
9493,59.0,0.0,90.0,7.0,0.0
9494,80.0,0.0,120.0,11.0,0.0
9495,59.0,0.0,120.0,7.0,0.0
9496,56.0,0.0,120.0,13.0,0.0
9497,85.0,100.0,120.0,4.0,0.0
9498,77.0,0.0,120.0,12.0,0.0
9499,56.0,0.0,120.0,14.0,0.0
9500,85.0,0.0,120.0,10.0,0.0
9501,77.0,0.0,120.0,6.0,0.0
9502,80.0,0.0,120.0,5.0,0.0
9503,58.0,120.0,90.0,14.0,0.0
9504,61.0,0.0,90.0,7.0,0.0
9505,58.0,0.0,90.0,13.0,0.0
9506,54.0,194.0,90.0,14.0,0.0
9507,58.0,0.0,90.0,7.0,0.0
9508,54.0,0.0,90.0,13.0,0.0
9509,70.0,0.0,240.0,12.0,0.0
9510,78.0,0.0,300.0,10.0,0.0
9511,58.0,0.0,240.0,7.0,0.0
9512,90.0,0.0,240.0,0.0,0.0
9513,78.0,60.0,300.0,4.0,0.0
9514,54.0,0.0,240.0,3.0,0.0
9515,54.0,0.0,480.0,14.0,0.0
9516,82.0,54.0,240.0,2.0,0.0
9517,54.0,234.0,480.0,13.0,0.0
9518,85.0,0.0,240.0,1.0,0.0
9519,70.0,60.0,180.0,6.0,0.0
9520,73.0,0.0,180.0,5.0,0.0
9521,73.0,0.0,240.0,11.0,0.0
9522,82.0,0.0,60.0,5.0,0.0
9523,73.0,6.0,60.0,6.0,0.0
9524,73.0,60.0,180.0,6.0,0.0
9525,82.0,0.0,180.0,5.0,0.0
9526,77.0,0.0,60.0,10.0,0.0
9527,77.0,60.0,60.0,4.0,0.0
9528,78.0,0.0,60.0,4.0,0.0
9529,78.0,0.0,60.0,10.0,0.0
9530,78.0,0.0,60.0,5.0,0.0
9531,73.0,6.0,60.0,4.0,0.0
9532,73.0,0.0,60.0,10.0,0.0
9533,70.0,0.0,60.0,6.0,0.0
9534,54.0,0.0,300.0,14.0,0.0
9535,82.0,60.0,540.0,4.0,0.0
9536,54.0,0.0,300.0,7.0,0.0
9537,82.0,0.0,540.0,10.0,0.0
9538,54.0,60.0,300.0,13.0,0.0
9539,73.0,54.0,480.0,5.0,0.0
9540,66.0,0.0,480.0,6.0,0.0
9541,73.0,60.0,60.0,12.0,0.0
9542,78.0,0.0,60.0,11.0,0.0
9543,78.0,0.0,180.0,11.0,0.0
9544,73.0,60.0,180.0,12.0,0.0
9545,56.0,0.0,60.0,7.0,0.0
9546,56.0,60.0,60.0,13.0,0.0
9547,56.0,0.0,60.0,14.0,0.0
9548,58.0,0.0,60.0,7.0,0.0
9549,58.0,0.0,60.0,14.0,0.0
9550,58.0,0.0,60.0,13.0,0.0
9551,73.0,0.0,60.0,11.0,0.0
9552,54.0,0.0,60.0,14.0,0.0
9553,54.0,6.0,60.0,13.0,0.0
9554,54.0,0.0,60.0,7.0,0.0
9555,70.0,0.0,60.0,12.0,0.0
9556,66.0,0.0,480.0,12.0,0.0
9557,64.0,234.0,480.0,13.0,0.0
9558,73.0,0.0,480.0,11.0,0.0
9559,64.0,0.0,480.0,14.0,0.0
9560,64.0,60.0,780.0,7.0,0.0
9561,80.0,60.0,60.0,10.0,0.0
9562,80.0,0.0,60.0,4.0,0.0
9563,78.0,0.0,60.0,4.0,0.0
9564,78.0,60.0,60.0,10.0,0.0
9565,80.0,0.0,60.0,10.0,0.0
9566,85.0,60.0,60.0,5.0,0.0
9567,80.0,0.0,60.0,4.0,0.0
9568,78.0,0.0,60.0,6.0,0.0
9569,78.0,0.0,180.0,6.0,0.0
9570,82.0,0.0,60.0,10.0,0.0
9571,85.0,0.0,180.0,5.0,0.0
9572,82.0,60.0,60.0,4.0,0.0
9573,80.0,0.0,60.0,4.0,0.0
9574,80.0,60.0,60.0,10.0,0.0
9575,82.0,0.0,60.0,4.0,0.0
9576,82.0,60.0,60.0,10.0,0.0
9577,78.0,0.0,60.0,4.0,0.0
9578,73.0,0.0,60.0,6.0,0.0
9579,82.0,6.0,60.0,5.0,0.0
9580,78.0,0.0,60.0,10.0,0.0
9581,64.0,0.0,300.0,14.0,0.0
9582,78.0,0.0,480.0,5.0,0.0
9583,85.0,60.0,540.0,10.0,0.0
9584,64.0,0.0,300.0,13.0,0.0
9585,85.0,0.0,540.0,4.0,0.0
9586,70.0,54.0,480.0,6.0,0.0
9587,78.0,60.0,60.0,12.0,0.0
9588,82.0,0.0,60.0,11.0,0.0
9589,82.0,0.0,180.0,11.0,0.0
9590,78.0,0.0,180.0,12.0,0.0
9591,63.0,60.0,60.0,13.0,0.0
9592,63.0,0.0,60.0,14.0,0.0
9593,63.0,0.0,60.0,7.0,0.0
9594,64.0,0.0,60.0,7.0,0.0
9595,64.0,0.0,60.0,14.0,0.0
9596,64.0,60.0,60.0,13.0,0.0
9597,73.0,6.0,60.0,12.0,0.0
9598,61.0,0.0,60.0,14.0,0.0
9599,76.0,0.0,60.0,11.0,0.0
9600,61.0,0.0,60.0,13.0,0.0
9601,61.0,0.0,60.0,7.0,0.0
9602,67.0,60.0,540.0,14.0,0.0
9603,70.0,0.0,480.0,12.0,0.0
9604,67.0,0.0,540.0,7.0,0.0
9605,67.0,0.0,540.0,13.0,0.0
9606,76.0,54.0,480.0,11.0,0.0
9607,83.0,0.0,60.0,10.0,0.0
9608,83.0,60.0,60.0,4.0,0.0
9609,82.0,0.0,60.0,4.0,0.0
9610,82.0,60.0,60.0,10.0,0.0
9611,83.0,0.0,60.0,10.0,0.0
9612,76.0,0.0,60.0,5.0,0.0
9613,70.0,60.0,60.0,6.0,0.0
9614,83.0,0.0,60.0,4.0,0.0
9615,85.0,0.0,60.0,4.0,0.0
9616,70.0,0.0,180.0,6.0,0.0
9617,85.0,60.0,60.0,10.0,0.0
9618,76.0,0.0,180.0,5.0,0.0
9619,83.0,60.0,60.0,4.0,0.0
9620,83.0,0.0,60.0,10.0,0.0
9621,85.0,60.0,60.0,4.0,0.0
9622,85.0,0.0,60.0,10.0,0.0
9623,76.0,0.0,60.0,6.0,0.0
9624,82.0,0.0,60.0,10.0,0.0
9625,82.0,0.0,60.0,4.0,0.0
9626,73.0,6.0,60.0,5.0,0.0
9627,75.0,0.0,180.0,10.0,0.0
9628,75.0,0.0,180.0,4.0,0.0
9629,82.0,0.0,240.0,5.0,0.0
9630,75.0,54.0,240.0,6.0,0.0
9631,65.0,0.0,60.0,7.0,0.0
9632,65.0,0.0,60.0,14.0,0.0
9633,65.0,60.0,60.0,13.0,0.0
9634,63.0,0.0,60.0,14.0,0.0
9635,63.0,0.0,60.0,13.0,0.0
9636,63.0,60.0,60.0,7.0,0.0
9637,82.0,6.0,60.0,11.0,0.0
9638,65.0,0.0,60.0,7.0,0.0
9639,85.0,0.0,60.0,4.0,0.0
9640,65.0,0.0,60.0,13.0,0.0
9641,65.0,0.0,60.0,14.0,0.0
9642,70.0,0.0,60.0,12.0,0.0
9643,85.0,0.0,60.0,10.0,0.0
9644,67.0,0.0,60.0,14.0,0.0
9645,67.0,0.0,60.0,13.0,0.0
9646,87.0,0.0,180.0,10.0,0.0
9647,67.0,60.0,60.0,7.0,0.0
9648,67.0,0.0,180.0,12.0,0.0
9649,82.0,0.0,180.0,11.0,0.0
9650,87.0,0.0,180.0,4.0,0.0
9651,65.0,0.0,60.0,13.0,0.0
9652,65.0,0.0,60.0,7.0,0.0
9653,65.0,60.0,60.0,14.0,0.0
9654,82.0,0.0,120.0,5.0,0.0
9655,67.0,0.0,60.0,13.0,0.0
9656,75.0,4.0,120.0,6.0,0.0
9657,67.0,0.0,60.0,14.0,0.0
9658,67.0,56.0,60.0,7.0,0.0
9659,82.0,0.0,60.0,4.0,0.0
9660,63.0,0.0,60.0,13.0,0.0
9661,63.0,116.0,60.0,7.0,0.0
9662,75.0,0.0,60.0,12.0,0.0
9663,63.0,0.0,60.0,14.0,0.0
9664,82.0,0.0,60.0,10.0,0.0
9665,79.0,0.0,60.0,11.0,0.0
9666,68.0,60.0,180.0,7.0,0.0
9667,83.0,64.0,1080.0,10.0,0.0
9668,68.0,0.0,180.0,13.0,0.0
9669,80.0,64.0,120.0,5.0,0.0
9670,75.0,0.0,960.0,12.0,0.0
9671,83.0,0.0,1080.0,4.0,0.0
9672,68.0,0.0,180.0,14.0,0.0
9673,75.0,110.0,960.0,6.0,0.0
9674,80.0,0.0,120.0,11.0,0.0
9675,68.0,0.0,60.0,11.0,0.0
9676,68.0,0.0,60.0,5.0,0.0
9677,63.0,0.0,60.0,7.0,0.0
9678,63.0,0.0,60.0,14.0,0.0
9679,70.0,0.0,60.0,5.0,0.0
9680,63.0,60.0,60.0,13.0,0.0
9681,70.0,0.0,60.0,11.0,0.0
9682,71.0,60.0,60.0,5.0,0.0
9683,63.0,0.0,180.0,7.0,0.0
9684,71.0,0.0,60.0,11.0,0.0
9685,63.0,0.0,180.0,13.0,0.0
9686,63.0,0.0,180.0,14.0,0.0
9687,73.0,0.0,60.0,11.0,0.0
9688,73.0,60.0,60.0,5.0,0.0
9689,75.0,0.0,60.0,11.0,0.0
9690,75.0,60.0,60.0,5.0,0.0
9691,59.0,0.0,60.0,13.0,0.0
9692,59.0,0.0,60.0,14.0,0.0
9693,59.0,0.0,60.0,7.0,0.0
9694,77.0,0.0,60.0,5.0,0.0
9695,77.0,60.0,60.0,11.0,0.0
9696,78.0,0.0,60.0,5.0,0.0
9697,78.0,60.0,60.0,11.0,0.0
9698,59.0,60.0,180.0,14.0,0.0
9699,59.0,0.0,180.0,7.0,0.0
9700,59.0,0.0,180.0,13.0,0.0
9701,77.0,0.0,60.0,11.0,0.0
9702,77.0,60.0,60.0,5.0,0.0
9703,75.0,0.0,60.0,11.0,0.0
9704,75.0,0.0,60.0,5.0,0.0
9705,56.0,0.0,60.0,14.0,0.0
9706,56.0,0.0,60.0,7.0,0.0
9707,56.0,60.0,60.0,13.0,0.0
9708,77.0,0.0,60.0,11.0,0.0
9709,77.0,0.0,60.0,5.0,0.0
9710,78.0,60.0,60.0,5.0,0.0
9711,56.0,0.0,180.0,7.0,0.0
9712,56.0,0.0,180.0,13.0,0.0
9713,78.0,0.0,60.0,11.0,0.0
9714,56.0,0.0,180.0,14.0,0.0
9715,75.0,0.0,60.0,5.0,0.0
9716,75.0,60.0,60.0,11.0,0.0
9717,80.0,0.0,60.0,5.0,0.0
9718,80.0,60.0,60.0,11.0,0.0
9719,49.0,6.0,60.0,14.0,0.0
9720,49.0,0.0,60.0,13.0,0.0
9721,75.0,0.0,60.0,5.0,0.0
9722,49.0,0.0,60.0,7.0,0.0
9723,75.0,0.0,60.0,11.0,0.0
9724,49.0,0.0,180.0,7.0,0.0
9725,49.0,0.0,180.0,13.0,0.0
9726,49.0,0.0,180.0,14.0,0.0
9727,77.0,0.0,960.0,5.0,0.0
9728,77.0,6.0,660.0,11.0,0.0
9729,65.0,0.0,60.0,12.0,0.0
9730,73.0,6.0,60.0,4.0,0.0
9731,83.0,54.0,60.0,6.0,0.0
9732,73.0,0.0,60.0,10.0,0.0
9733,82.0,54.0,60.0,6.0,0.0
9734,61.0,0.0,60.0,7.0,0.0
9735,66.0,0.0,60.0,12.0,0.0
9736,75.0,0.0,60.0,4.0,0.0
9737,75.0,0.0,60.0,10.0,0.0
9738,61.0,6.0,60.0,13.0,0.0
9739,61.0,0.0,60.0,14.0,0.0
9740,77.0,0.0,60.0,10.0,0.0
9741,61.0,0.0,180.0,7.0,0.0
9742,61.0,6.0,180.0,14.0,0.0
9743,77.0,0.0,60.0,4.0,0.0
9744,80.0,54.0,60.0,6.0,0.0
9745,68.0,6.0,60.0,12.0,0.0
9746,61.0,0.0,180.0,13.0,0.0
9747,78.0,0.0,60.0,10.0,0.0
9748,78.0,0.0,60.0,4.0,0.0
9749,78.0,54.0,60.0,6.0,0.0
9750,70.0,6.0,60.0,12.0,0.0
9751,80.0,0.0,60.0,10.0,0.0
9752,80.0,0.0,60.0,4.0,0.0
9753,71.0,0.0,60.0,12.0,0.0
9754,77.0,54.0,60.0,6.0,0.0
9755,75.0,54.0,60.0,6.0,0.0
9756,56.0,0.0,60.0,13.0,0.0
9757,56.0,0.0,60.0,14.0,0.0
9758,82.0,0.0,60.0,10.0,0.0
9759,68.0,0.0,60.0,12.0,0.0
9760,56.0,0.0,60.0,7.0,0.0
9761,82.0,6.0,60.0,4.0,0.0
9762,56.0,0.0,180.0,7.0,0.0
9763,73.0,54.0,60.0,6.0,0.0
9764,83.0,6.0,60.0,10.0,0.0
9765,56.0,0.0,180.0,13.0,0.0
9766,83.0,0.0,60.0,4.0,0.0
9767,56.0,0.0,180.0,14.0,0.0
9768,73.0,0.0,60.0,12.0,0.0
9769,82.0,6.0,60.0,4.0,0.0
9770,75.0,0.0,60.0,12.0,0.0
9771,82.0,0.0,60.0,10.0,0.0
9772,75.0,54.0,60.0,6.0,0.0
9773,77.0,0.0,60.0,12.0,0.0
9774,77.0,54.0,60.0,6.0,0.0
9775,80.0,0.0,60.0,4.0,0.0
9776,80.0,0.0,60.0,10.0,0.0
9777,78.0,0.0,60.0,12.0,0.0
9778,82.0,0.0,60.0,4.0,0.0
9779,78.0,54.0,60.0,6.0,0.0
9780,53.0,6.0,60.0,7.0,0.0
9781,53.0,0.0,60.0,13.0,0.0
9782,73.0,0.0,60.0,11.0,0.0
9783,53.0,0.0,60.0,14.0,0.0
9784,82.0,0.0,60.0,10.0,0.0
9785,53.0,0.0,180.0,13.0,0.0
9786,80.0,6.0,60.0,12.0,0.0
9787,53.0,0.0,180.0,14.0,0.0
9788,83.0,0.0,60.0,10.0,0.0
9789,80.0,54.0,60.0,6.0,0.0
9790,83.0,0.0,60.0,4.0,0.0
9791,53.0,0.0,180.0,7.0,0.0
9792,73.0,0.0,180.0,11.0,0.0
9793,80.0,0.0,60.0,10.0,0.0
9794,78.0,0.0,60.0,12.0,0.0
9795,80.0,6.0,60.0,4.0,0.0
9796,78.0,54.0,60.0,6.0,0.0
9797,80.0,6.0,60.0,12.0,0.0
9798,85.0,0.0,60.0,4.0,0.0
9799,85.0,0.0,60.0,10.0,0.0
9800,80.0,54.0,60.0,6.0,0.0
9801,80.0,0.0,60.0,2.0,0.0
9802,85.0,0.0,60.0,1.0,0.0
9803,49.0,54.0,60.0,3.0,0.0
9804,49.0,0.0,60.0,7.0,0.0
9805,89.0,0.0,60.0,0.0,0.0
9806,49.0,6.0,60.0,14.0,0.0
9807,77.0,0.0,60.0,12.0,0.0
9808,77.0,0.0,60.0,11.0,0.0
9809,77.0,0.0,60.0,6.0,0.0
9810,80.0,0.0,60.0,4.0,0.0
9811,49.0,0.0,60.0,13.0,0.0
9812,80.0,0.0,60.0,10.0,0.0
9813,73.0,0.0,480.0,12.0,0.0
9814,90.0,54.0,240.0,0.0,0.0
9815,54.0,0.0,180.0,7.0,0.0
9816,54.0,0.0,240.0,3.0,0.0
9817,82.0,60.0,300.0,4.0,0.0
9818,54.0,60.0,180.0,14.0,0.0
9819,85.0,0.0,240.0,1.0,0.0
9820,82.0,0.0,240.0,2.0,0.0
9821,54.0,0.0,180.0,13.0,0.0
9822,82.0,60.0,60.0,10.0,0.0
9823,78.0,54.0,480.0,11.0,0.0
9824,78.0,0.0,180.0,6.0,0.0
9825,85.0,60.0,60.0,10.0,0.0
9826,78.0,0.0,60.0,10.0,0.0
9827,70.0,0.0,60.0,6.0,0.0
9828,80.0,6.0,60.0,10.0,0.0
9829,49.0,0.0,60.0,14.0,0.0
9830,49.0,0.0,60.0,13.0,0.0
9831,49.0,0.0,60.0,7.0,0.0
9832,73.0,0.0,60.0,5.0,0.0
9833,73.0,60.0,180.0,5.0,0.0
9834,49.0,0.0,180.0,14.0,0.0
9835,49.0,0.0,180.0,13.0,0.0
9836,70.0,0.0,180.0,6.0,0.0
9837,82.0,0.0,60.0,10.0,0.0
9838,49.0,0.0,180.0,7.0,0.0
9839,80.0,0.0,60.0,4.0,0.0
9840,83.0,60.0,60.0,10.0,0.0
9841,82.0,0.0,60.0,4.0,0.0
9842,85.0,0.0,60.0,10.0,0.0
9843,78.0,0.0,60.0,5.0,0.0
9844,87.0,0.0,60.0,10.0,0.0
9845,78.0,0.0,60.0,4.0,0.0
9846,73.0,0.0,60.0,6.0,0.0
9847,46.0,6.0,60.0,14.0,0.0
9848,46.0,0.0,60.0,7.0,0.0
9849,46.0,0.0,60.0,13.0,0.0
9850,46.0,0.0,180.0,14.0,0.0
9851,82.0,0.0,480.0,5.0,0.0
9852,85.0,60.0,780.0,4.0,0.0
9853,78.0,0.0,480.0,6.0,0.0
9854,46.0,0.0,180.0,7.0,0.0
9855,46.0,0.0,180.0,13.0,0.0
9856,88.0,60.0,60.0,10.0,0.0
9857,87.0,60.0,60.0,10.0,0.0
9858,85.0,60.0,60.0,10.0,0.0
9859,87.0,0.0,60.0,10.0,0.0
9860,42.0,0.0,60.0,13.0,0.0
9861,42.0,0.0,60.0,7.0,0.0
9862,42.0,0.0,60.0,14.0,0.0
9863,85.0,0.0,60.0,11.0,0.0
9864,70.0,60.0,60.0,12.0,0.0
9865,42.0,0.0,180.0,7.0,0.0
9866,70.0,0.0,180.0,12.0,0.0
9867,42.0,0.0,180.0,13.0,0.0
9868,42.0,0.0,180.0,14.0,0.0
9869,85.0,0.0,180.0,11.0,0.0
9870,88.0,60.0,60.0,10.0,0.0
9871,85.0,60.0,60.0,10.0,0.0
9872,90.0,60.0,60.0,10.0,0.0
9873,46.0,0.0,60.0,14.0,0.0
9874,46.0,0.0,60.0,7.0,0.0
9875,78.0,0.0,60.0,2.0,0.0
9876,85.0,0.0,60.0,10.0,0.0
9877,54.0,174.0,60.0,3.0,0.0
9878,46.0,0.0,60.0,13.0,0.0
9879,85.0,0.0,60.0,0.0,0.0
9880,82.0,0.0,60.0,11.0,0.0
9881,66.0,0.0,60.0,12.0,0.0
9882,82.0,6.0,60.0,1.0,0.0
9883,47.0,0.0,180.0,13.0,0.0
9884,66.0,0.0,240.0,2.0,0.0
9885,71.0,0.0,480.0,12.0,0.0
9886,87.0,0.0,240.0,0.0,0.0
9887,47.0,0.0,180.0,7.0,0.0
9888,54.0,0.0,240.0,3.0,0.0
9889,78.0,0.0,480.0,11.0,0.0
9890,78.0,54.0,240.0,1.0,0.0
9891,47.0,60.0,180.0,14.0,0.0
9892,87.0,174.0,480.0,10.0,0.0
9893,51.0,0.0,60.0,13.0,0.0
9894,51.0,0.0,60.0,14.0,0.0
9895,51.0,0.0,60.0,7.0,0.0
9896,82.0,0.0,60.0,5.0,0.0
9897,78.0,6.0,60.0,6.0,0.0
9898,78.0,0.0,180.0,6.0,0.0
9899,82.0,60.0,180.0,5.0,0.0
9900,51.0,0.0,180.0,13.0,0.0
9901,51.0,0.0,180.0,7.0,0.0
9902,51.0,0.0,180.0,14.0,0.0
9903,83.0,60.0,60.0,4.0,0.0
9904,85.0,0.0,60.0,4.0,0.0
9905,56.0,0.0,60.0,14.0,0.0
9906,82.0,0.0,60.0,4.0,0.0
9907,56.0,0.0,60.0,13.0,0.0
9908,56.0,6.0,60.0,7.0,0.0
9909,76.0,0.0,60.0,6.0,0.0
9910,79.0,0.0,60.0,5.0,0.0
9911,80.0,174.0,480.0,5.0,0.0
9912,75.0,0.0,480.0,6.0,0.0
9913,56.0,0.0,180.0,13.0,0.0
9914,83.0,60.0,780.0,4.0,0.0
9915,56.0,0.0,180.0,14.0,0.0
9916,56.0,60.0,180.0,7.0,0.0
9917,87.0,60.0,300.0,10.0,0.0
9918,80.0,0.0,60.0,11.0,0.0
9919,71.0,0.0,60.0,12.0,0.0
9920,59.0,0.0,60.0,7.0,0.0
9921,59.0,60.0,60.0,14.0,0.0
9922,59.0,0.0,60.0,13.0,0.0
9923,71.0,0.0,180.0,12.0,0.0
9924,59.0,0.0,180.0,7.0,0.0
9925,59.0,60.0,180.0,14.0,0.0
9926,80.0,0.0,180.0,11.0,0.0
9927,59.0,0.0,180.0,13.0,0.0
9928,85.0,60.0,60.0,10.0,0.0
9929,87.0,0.0,60.0,10.0,0.0
9930,56.0,0.0,60.0,7.0,0.0
9931,80.0,0.0,60.0,1.0,0.0
9932,75.0,0.0,60.0,11.0,0.0
9933,83.0,0.0,60.0,0.0,0.0
9934,75.0,0.0,60.0,12.0,0.0
9935,83.0,0.0,60.0,10.0,0.0
9936,56.0,0.0,60.0,14.0,0.0
9937,80.0,0.0,60.0,2.0,0.0
9938,56.0,6.0,60.0,13.0,0.0
9939,49.0,0.0,60.0,3.0,0.0
9940,49.0,54.0,240.0,3.0,0.0
9941,68.0,54.0,480.0,12.0,0.0
9942,80.0,0.0,480.0,11.0,0.0
9943,53.0,60.0,180.0,13.0,0.0
9944,85.0,4.0,600.0,10.0,0.0
9945,85.0,0.0,240.0,0.0,0.0
9946,53.0,0.0,180.0,14.0,0.0
9947,53.0,0.0,180.0,7.0,0.0
9948,80.0,0.0,240.0,1.0,0.0
9949,73.0,0.0,240.0,2.0,0.0
9950,49.0,0.0,60.0,13.0,0.0
9951,49.0,6.0,60.0,14.0,0.0
9952,49.0,0.0,60.0,7.0,0.0
9953,77.0,0.0,60.0,6.0,0.0
9954,80.0,0.0,60.0,5.0,0.0
9955,77.0,0.0,180.0,6.0,0.0
9956,49.0,60.0,180.0,7.0,0.0
9957,49.0,0.0,180.0,14.0,0.0
9958,80.0,0.0,180.0,5.0,0.0
9959,49.0,0.0,180.0,13.0,0.0
9960,82.0,60.0,60.0,4.0,0.0
9961,83.0,0.0,60.0,4.0,0.0
9962,80.0,0.0,60.0,4.0,0.0
9963,73.0,0.0,60.0,6.0,0.0
9964,53.0,0.0,60.0,13.0,0.0
9965,53.0,0.0,60.0,7.0,0.0
9966,53.0,0.0,60.0,14.0,0.0
9967,77.0,6.0,60.0,5.0,0.0
9968,54.0,0.0,480.0,14.0,0.0
9969,73.0,0.0,240.0,5.0,0.0
9970,66.0,54.0,240.0,6.0,0.0
9971,54.0,0.0,480.0,13.0,0.0
9972,54.0,0.0,780.0,7.0,0.0
9973,82.0,56.0,60.0,4.0,0.0
9974,85.0,60.0,60.0,4.0,0.0
9975,90.0,60.0,60.0,10.0,0.0
9976,90.0,0.0,60.0,4.0,0.0
9977,89.0,6.0,60.0,4.0,0.0
9978,73.0,0.0,60.0,12.0,0.0
9979,82.0,0.0,60.0,11.0,0.0
9980,89.0,0.0,60.0,10.0,0.0
9981,78.0,56.0,180.0,12.0,0.0
9982,82.0,0.0,180.0,11.0,0.0
9983,87.0,0.0,60.0,10.0,0.0
9984,87.0,60.0,60.0,4.0,0.0
9985,85.0,60.0,60.0,10.0,0.0
9986,85.0,0.0,60.0,4.0,0.0
9987,83.0,0.0,60.0,10.0,0.0
9988,78.0,4.0,120.0,5.0,0.0
9989,73.0,0.0,120.0,6.0,0.0
9990,83.0,0.0,60.0,4.0,0.0
9991,78.0,0.0,60.0,11.0,0.0
9992,82.0,6.0,60.0,10.0,0.0
9993,73.0,0.0,60.0,12.0,0.0
9994,82.0,0.0,60.0,0.0,0.0
9995,78.0,0.0,60.0,1.0,0.0
9996,54.0,294.0,60.0,3.0,0.0
9997,82.0,0.0,60.0,4.0,0.0
9998,73.0,0.0,60.0,2.0,0.0
9999,83.0,0.0,360.0,10.0,0.0
10000,80.0,0.0,360.0,1.0,0.0
10001,54.0,0.0,300.0,14.0,0.0
10002,75.0,0.0,360.0,12.0,0.0
10003,80.0,0.0,360.0,11.0,0.0
10004,83.0,4.0,360.0,0.0,0.0
10005,54.0,56.0,300.0,13.0,0.0
10006,83.0,0.0,360.0,4.0,0.0
10007,80.0,0.0,360.0,5.0,0.0
10008,54.0,40.0,360.0,3.0,0.0
10009,80.0,0.0,360.0,2.0,0.0
10010,75.0,0.0,360.0,6.0,0.0
10011,53.0,6.0,60.0,14.0,0.0
10012,53.0,0.0,60.0,7.0,0.0
10013,53.0,0.0,60.0,13.0,0.0
10014,54.0,26.0,60.0,14.0,0.0
10015,83.0,0.0,120.0,10.0,0.0
10016,83.0,0.0,120.0,0.0,0.0
10017,83.0,0.0,120.0,4.0,0.0
10018,80.0,4.0,120.0,11.0,0.0
10019,80.0,0.0,120.0,2.0,0.0
10020,75.0,0.0,120.0,12.0,0.0
10021,80.0,0.0,120.0,5.0,0.0
10022,54.0,0.0,60.0,13.0,0.0
10023,80.0,0.0,120.0,1.0,0.0
10024,75.0,0.0,120.0,6.0,0.0
10025,54.0,14.0,40.0,3.0,0.0
10026,54.0,0.0,60.0,7.0,0.0
10027,54.0,30.0,40.0,3.0,0.0
10028,51.0,6.0,60.0,13.0,0.0
10029,51.0,0.0,60.0,14.0,0.0
10030,51.0,0.0,60.0,7.0,0.0
10031,54.0,174.0,40.0,3.0,0.0
10032,53.0,0.0,240.0,13.0,0.0
10033,53.0,0.0,240.0,14.0,0.0
10034,49.0,174.0,240.0,3.0,0.0
10035,83.0,0.0,180.0,4.0,0.0
10036,73.0,0.0,240.0,2.0,0.0
10037,83.0,0.0,180.0,10.0,0.0
10038,80.0,0.0,240.0,1.0,0.0
10039,73.0,4.0,240.0,12.0,0.0
10040,80.0,0.0,240.0,5.0,0.0
10041,83.0,56.0,180.0,0.0,0.0
10042,73.0,0.0,240.0,6.0,0.0
10043,53.0,0.0,240.0,7.0,0.0
10044,80.0,0.0,240.0,11.0,0.0
10045,80.0,0.0,60.0,4.0,0.0
10046,80.0,0.0,60.0,10.0,0.0
10047,80.0,6.0,60.0,0.0,0.0
10048,49.0,0.0,240.0,14.0,0.0
10049,85.0,56.0,180.0,0.0,0.0
10050,77.0,0.0,240.0,11.0,0.0
10051,80.0,0.0,240.0,1.0,0.0
10052,49.0,4.0,240.0,7.0,0.0
10053,49.0,0.0,240.0,13.0,0.0
10054,68.0,0.0,240.0,6.0,0.0
10055,73.0,0.0,240.0,2.0,0.0
10056,49.0,174.0,240.0,3.0,0.0
10057,77.0,0.0,240.0,5.0,0.0
10058,85.0,0.0,180.0,4.0,0.0
10059,73.0,0.0,240.0,12.0,0.0
10060,85.0,0.0,180.0,10.0,0.0
10061,80.0,6.0,60.0,4.0,0.0
10062,80.0,0.0,60.0,10.0,0.0
10063,80.0,0.0,60.0,0.0,0.0
10064,73.0,0.0,240.0,2.0,0.0
10065,54.0,0.0,480.0,3.0,0.0
10066,66.0,0.0,480.0,6.0,0.0
10067,54.0,0.0,540.0,7.0,0.0
10068,73.0,0.0,480.0,5.0,0.0
10069,73.0,0.0,180.0,12.0,0.0
10070,54.0,0.0,540.0,14.0,0.0
10071,82.0,4.0,240.0,10.0,0.0
10072,82.0,0.0,240.0,0.0,0.0
10073,78.0,0.0,240.0,1.0,0.0
10074,82.0,0.0,240.0,4.0,0.0
10075,78.0,56.0,180.0,11.0,0.0
10076,54.0,60.0,540.0,13.0,0.0
10077,73.0,180.0,60.0,11.0,0.0
10078,70.0,0.0,60.0,12.0,0.0
10079,78.0,0.0,240.0,0.0,0.0
10080,78.0,0.0,240.0,10.0,0.0
10081,78.0,4.0,240.0,4.0,0.0
10082,73.0,0.0,180.0,11.0,0.0
10083,70.0,56.0,180.0,12.0,0.0
10084,70.0,0.0,240.0,2.0,0.0
10085,73.0,54.0,240.0,1.0,0.0
10086,66.0,6.0,60.0,12.0,0.0
10087,70.0,0.0,60.0,11.0,0.0
10088,66.0,54.0,480.0,12.0,0.0
10089,75.0,0.0,540.0,10.0,0.0
10090,70.0,0.0,480.0,11.0,0.0
10091,75.0,60.0,540.0,4.0,0.0
10092,54.0,0.0,60.0,13.0,0.0
10093,54.0,60.0,60.0,7.0,0.0
10094,54.0,0.0,60.0,14.0,0.0
10095,56.0,0.0,60.0,14.0,0.0
10096,56.0,0.0,60.0,7.0,0.0
10097,56.0,60.0,60.0,13.0,0.0
10098,58.0,0.0,60.0,14.0,0.0
10099,58.0,60.0,60.0,13.0,0.0
10100,66.0,0.0,60.0,6.0,0.0
10101,58.0,0.0,60.0,7.0,0.0
10102,75.0,0.0,60.0,5.0,0.0
10103,59.0,60.0,60.0,7.0,0.0
10104,59.0,0.0,60.0,14.0,0.0
10105,75.0,0.0,180.0,5.0,0.0
10106,66.0,0.0,180.0,6.0,0.0
10107,59.0,0.0,60.0,13.0,0.0
10108,58.0,60.0,60.0,7.0,0.0
10109,58.0,0.0,60.0,14.0,0.0
10110,58.0,0.0,60.0,13.0,0.0
10111,59.0,0.0,60.0,7.0,0.0
10112,59.0,0.0,60.0,14.0,0.0
10113,59.0,38.0,60.0,13.0,0.0
10114,68.0,0.0,60.0,6.0,0.0
10115,56.0,0.0,30.0,7.0,0.0
10116,56.0,0.0,30.0,14.0,0.0
10117,71.0,6.0,60.0,5.0,0.0
10118,56.0,22.0,30.0,13.0,0.0
10119,54.0,0.0,20.0,7.0,0.0
10120,54.0,0.0,20.0,14.0,0.0
10121,54.0,0.0,20.0,13.0,0.0
10122,53.0,4.0,360.0,7.0,0.0
10123,53.0,0.0,360.0,14.0,0.0
10124,53.0,0.0,360.0,13.0,0.0
10125,68.0,0.0,360.0,6.0,0.0
10126,68.0,0.0,360.0,5.0,0.0
10127,75.0,0.0,60.0,10.0,0.0
10128,75.0,60.0,60.0,4.0,0.0
10129,77.0,60.0,60.0,10.0,0.0
10130,77.0,0.0,60.0,4.0,0.0
10131,78.0,0.0,60.0,4.0,0.0
10132,68.0,0.0,60.0,12.0,0.0
10133,71.0,60.0,60.0,11.0,0.0
10134,78.0,0.0,60.0,10.0,0.0
10135,80.0,0.0,60.0,10.0,0.0
10136,71.0,0.0,180.0,11.0,0.0
10137,68.0,0.0,180.0,12.0,0.0
10138,80.0,56.0,60.0,4.0,0.0
10139,78.0,60.0,60.0,4.0,0.0
10140,78.0,0.0,60.0,10.0,0.0
10141,71.0,0.0,120.0,6.0,0.0
10142,51.0,0.0,120.0,14.0,0.0
10143,80.0,56.0,60.0,10.0,0.0
10144,68.0,0.0,120.0,5.0,0.0
10145,80.0,0.0,60.0,4.0,0.0
10146,51.0,4.0,120.0,7.0,0.0
10147,51.0,0.0,120.0,13.0,0.0
10148,71.0,0.0,60.0,12.0,0.0
10149,68.0,180.0,60.0,11.0,0.0
10150,77.0,0.0,60.0,4.0,0.0
10151,77.0,0.0,60.0,10.0,0.0
10152,50.0,0.0,240.0,7.0,0.0
10153,50.0,0.0,240.0,13.0,0.0
10154,70.0,4.0,240.0,11.0,0.0
10155,70.0,0.0,180.0,4.0,0.0
10156,50.0,0.0,240.0,14.0,0.0
10157,70.0,0.0,240.0,5.0,0.0
10158,70.0,56.0,180.0,10.0,0.0
10159,70.0,0.0,240.0,6.0,0.0
10160,65.0,0.0,240.0,12.0,0.0
10161,80.0,180.0,60.0,4.0,0.0
10162,80.0,0.0,60.0,10.0,0.0
10163,70.0,0.0,240.0,12.0,0.0
10164,74.0,0.0,240.0,11.0,0.0
10165,46.0,0.0,240.0,14.0,0.0
10166,46.0,0.0,240.0,7.0,0.0
10167,46.0,0.0,240.0,13.0,0.0
10168,74.0,0.0,240.0,5.0,0.0
10169,78.0,56.0,180.0,10.0,0.0
10170,70.0,4.0,240.0,6.0,0.0
10171,78.0,0.0,180.0,4.0,0.0
10172,77.0,0.0,60.0,4.0,0.0
10173,77.0,180.0,60.0,10.0,0.0
10174,75.0,0.0,480.0,11.0,0.0
10175,75.0,0.0,180.0,5.0,0.0
10176,51.0,0.0,540.0,14.0,0.0
10177,78.0,60.0,300.0,10.0,0.0
10178,70.0,54.0,480.0,12.0,0.0
10179,51.0,0.0,540.0,13.0,0.0
10180,78.0,0.0,300.0,4.0,0.0
10181,51.0,60.0,540.0,7.0,0.0
10182,70.0,60.0,180.0,6.0,0.0
10183,75.0,60.0,60.0,6.0,0.0
10184,70.0,0.0,60.0,5.0,0.0
10185,70.0,0.0,180.0,5.0,0.0
10186,75.0,60.0,180.0,6.0,0.0
10187,77.0,0.0,60.0,4.0,0.0
10188,77.0,60.0,60.0,10.0,0.0
10189,78.0,0.0,60.0,10.0,0.0
10190,78.0,0.0,60.0,4.0,0.0
10191,75.0,0.0,60.0,10.0,0.0
10192,75.0,6.0,60.0,4.0,0.0
10193,70.0,0.0,60.0,6.0,0.0
10194,66.0,0.0,60.0,5.0,0.0
10195,66.0,54.0,480.0,6.0,0.0
10196,71.0,0.0,540.0,10.0,0.0
10197,71.0,60.0,540.0,4.0,0.0
10198,66.0,0.0,480.0,5.0,0.0
10199,49.0,0.0,60.0,14.0,0.0
10200,49.0,0.0,60.0,13.0,0.0
10201,49.0,60.0,60.0,7.0,0.0
10202,51.0,0.0,60.0,14.0,0.0
10203,51.0,60.0,60.0,7.0,0.0
10204,51.0,0.0,60.0,13.0,0.0
10205,53.0,0.0,60.0,14.0,0.0
10206,53.0,0.0,60.0,7.0,0.0
10207,70.0,0.0,60.0,11.0,0.0
10208,66.0,60.0,60.0,12.0,0.0
10209,53.0,0.0,60.0,13.0,0.0
10210,54.0,0.0,60.0,7.0,0.0
10211,70.0,0.0,180.0,11.0,0.0
10212,54.0,60.0,60.0,13.0,0.0
10213,63.0,60.0,180.0,12.0,0.0
10214,54.0,0.0,60.0,14.0,0.0
10215,53.0,0.0,60.0,7.0,0.0
10216,53.0,0.0,60.0,14.0,0.0
10217,53.0,60.0,60.0,13.0,0.0
10218,54.0,0.0,60.0,13.0,0.0
10219,54.0,0.0,60.0,7.0,0.0
10220,54.0,0.0,60.0,14.0,0.0
10221,51.0,0.0,60.0,14.0,0.0
10222,51.0,6.0,60.0,7.0,0.0
10223,63.0,0.0,60.0,12.0,0.0
10224,66.0,0.0,60.0,11.0,0.0
10225,51.0,0.0,60.0,13.0,0.0
10226,53.0,60.0,180.0,7.0,0.0
10227,68.0,64.0,360.0,11.0,0.0
10228,53.0,0.0,180.0,14.0,0.0
10229,61.0,0.0,360.0,12.0,0.0
10230,53.0,0.0,180.0,13.0,0.0
10231,70.0,60.0,60.0,4.0,0.0
10232,70.0,0.0,60.0,10.0,0.0
10233,71.0,0.0,60.0,4.0,0.0
10234,71.0,0.0,60.0,10.0,0.0
10235,68.0,0.0,60.0,6.0,0.0
10236,68.0,0.0,60.0,10.0,0.0
10237,49.0,0.0,60.0,14.0,0.0
10238,71.0,116.0,60.0,5.0,0.0
10239,68.0,0.0,60.0,4.0,0.0
10240,49.0,0.0,60.0,13.0,0.0
10241,49.0,0.0,60.0,7.0,0.0
10242,70.0,0.0,180.0,10.0,0.0
10243,54.0,56.0,180.0,14.0,0.0
10244,66.0,0.0,180.0,6.0,0.0
10245,54.0,0.0,180.0,13.0,0.0
10246,70.0,0.0,180.0,5.0,0.0
10247,70.0,0.0,180.0,4.0,0.0
10248,54.0,0.0,180.0,7.0,0.0
10249,66.0,0.0,60.0,11.0,0.0
10250,61.0,4.0,120.0,12.0,0.0
10251,56.0,0.0,60.0,7.0,0.0
10252,65.0,0.0,60.0,11.0,0.0
10253,71.0,180.0,60.0,4.0,0.0
10254,71.0,0.0,60.0,6.0,0.0
10255,68.0,0.0,60.0,5.0,0.0
10256,56.0,0.0,60.0,14.0,0.0
10257,56.0,0.0,60.0,13.0,0.0
10258,71.0,0.0,60.0,10.0,0.0
10259,70.0,0.0,180.0,6.0,0.0
10260,66.0,0.0,180.0,11.0,0.0
10261,66.0,0.0,180.0,5.0,0.0
10262,58.0,0.0,180.0,13.0,0.0
10263,58.0,0.0,180.0,7.0,0.0
10264,58.0,0.0,180.0,14.0,0.0
10265,66.0,0.0,180.0,12.0,0.0
10266,73.0,0.0,180.0,10.0,0.0
10267,73.0,60.0,180.0,4.0,0.0
10268,59.0,0.0,60.0,13.0,0.0
10269,59.0,180.0,60.0,14.0,0.0
10270,66.0,0.0,60.0,11.0,0.0
10271,71.0,0.0,60.0,12.0,0.0
10272,66.0,0.0,60.0,6.0,0.0
10273,66.0,0.0,60.0,5.0,0.0
10274,75.0,0.0,60.0,4.0,0.0
10275,75.0,0.0,60.0,10.0,0.0
10276,59.0,0.0,60.0,7.0,0.0
10277,56.0,0.0,180.0,7.0,0.0
10278,71.0,60.0,180.0,6.0,0.0
10279,77.0,0.0,180.0,10.0,0.0
10280,77.0,0.0,180.0,4.0,0.0
10281,56.0,0.0,180.0,13.0,0.0
10282,71.0,0.0,180.0,12.0,0.0
10283,68.0,0.0,180.0,5.0,0.0
10284,68.0,0.0,180.0,11.0,0.0
10285,56.0,0.0,180.0,14.0,0.0
10286,70.0,0.0,60.0,5.0,0.0
10287,73.0,0.0,60.0,12.0,0.0
10288,54.0,0.0,60.0,14.0,0.0
10289,78.0,0.0,60.0,10.0,0.0
10290,73.0,0.0,60.0,6.0,0.0
10291,78.0,0.0,60.0,4.0,0.0
10292,70.0,60.0,60.0,11.0,0.0
10293,54.0,0.0,60.0,7.0,0.0
10294,54.0,0.0,60.0,13.0,0.0
10295,65.0,0.0,180.0,11.0,0.0
10296,49.0,54.0,480.0,13.0,0.0
10297,77.0,60.0,60.0,4.0,0.0
10298,49.0,0.0,480.0,14.0,0.0
10299,73.0,60.0,180.0,12.0,0.0
10300,49.0,0.0,900.0,7.0,0.0
10301,73.0,0.0,480.0,6.0,0.0
10302,68.0,60.0,300.0,10.0,0.0
10303,68.0,0.0,480.0,5.0,0.0
10304,78.0,60.0,60.0,4.0,0.0
10305,80.0,0.0,60.0,4.0,0.0
10306,71.0,0.0,60.0,11.0,0.0
10307,77.0,0.0,60.0,4.0,0.0
10308,65.0,60.0,60.0,12.0,0.0
10309,73.0,60.0,300.0,4.0,0.0
10310,65.0,0.0,180.0,12.0,0.0
10311,71.0,0.0,180.0,11.0,0.0
10312,66.0,60.0,60.0,10.0,0.0
10313,68.0,60.0,60.0,10.0,0.0
10314,65.0,0.0,60.0,10.0,0.0
10315,68.0,0.0,60.0,11.0,0.0
10316,61.0,6.0,60.0,12.0,0.0
10317,65.0,54.0,480.0,11.0,0.0
10318,49.0,60.0,420.0,14.0,0.0
10319,61.0,0.0,480.0,12.0,0.0
10320,71.0,60.0,300.0,10.0,0.0
10321,49.0,0.0,420.0,13.0,0.0
10322,75.0,60.0,60.0,4.0,0.0
10323,77.0,60.0,60.0,4.0,0.0
10324,73.0,0.0,60.0,4.0,0.0
10325,77.0,60.0,60.0,5.0,0.0
10326,68.0,0.0,60.0,6.0,0.0
10327,80.0,60.0,300.0,4.0,0.0
10328,71.0,0.0,180.0,6.0,0.0
10329,77.0,0.0,180.0,5.0,0.0
10330,70.0,60.0,60.0,10.0,0.0
10331,71.0,0.0,60.0,10.0,0.0
10332,49.0,0.0,60.0,13.0,0.0
10333,49.0,0.0,60.0,7.0,0.0
10334,77.0,0.0,60.0,6.0,0.0
10335,49.0,0.0,60.0,14.0,0.0
10336,73.0,6.0,60.0,5.0,0.0
10337,68.0,0.0,60.0,10.0,0.0
10338,70.0,0.0,480.0,5.0,0.0
10339,70.0,60.0,300.0,10.0,0.0
10340,49.0,0.0,480.0,13.0,0.0
10341,73.0,0.0,480.0,6.0,0.0
10342,49.0,0.0,900.0,7.0,0.0
10343,49.0,54.0,480.0,14.0,0.0
10344,78.0,60.0,60.0,4.0,0.0
10345,80.0,60.0,60.0,4.0,0.0
10346,61.0,0.0,60.0,12.0,0.0
10347,73.0,0.0,60.0,11.0,0.0
10348,77.0,60.0,60.0,4.0,0.0
10349,73.0,60.0,180.0,11.0,0.0
10350,66.0,0.0,180.0,12.0,0.0
10351,78.0,60.0,300.0,4.0,0.0
10352,68.0,60.0,60.0,10.0,0.0
10353,70.0,0.0,60.0,10.0,0.0
10354,61.0,0.0,60.0,12.0,0.0
10355,66.0,0.0,60.0,10.0,0.0
10356,70.0,6.0,60.0,11.0,0.0
10357,49.0,0.0,420.0,13.0,0.0
10358,66.0,54.0,480.0,11.0,0.0
10359,49.0,0.0,420.0,14.0,0.0
10360,70.0,0.0,480.0,12.0,0.0
10361,73.0,60.0,300.0,10.0,0.0
10362,77.0,60.0,60.0,4.0,0.0
10363,78.0,60.0,60.0,4.0,0.0
10364,78.0,0.0,60.0,5.0,0.0
10365,73.0,60.0,60.0,4.0,0.0
10366,70.0,0.0,60.0,6.0,0.0
10367,82.0,60.0,300.0,4.0,0.0
10368,78.0,0.0,180.0,5.0,0.0
10369,73.0,60.0,180.0,6.0,0.0
10370,71.0,60.0,60.0,10.0,0.0
10371,73.0,0.0,60.0,10.0,0.0
10372,70.0,0.0,60.0,10.0,0.0
10373,49.0,0.0,60.0,7.0,0.0
10374,49.0,0.0,60.0,14.0,0.0
10375,78.0,0.0,60.0,6.0,0.0
10376,49.0,0.0,60.0,13.0,0.0
10377,73.0,6.0,60.0,5.0,0.0
10378,71.0,60.0,300.0,10.0,0.0
10379,49.0,0.0,480.0,14.0,0.0
10380,49.0,0.0,900.0,7.0,0.0
10381,74.0,0.0,480.0,5.0,0.0
10382,49.0,54.0,480.0,13.0,0.0
10383,77.0,0.0,480.0,6.0,0.0
10384,80.0,60.0,60.0,4.0,0.0
10385,82.0,60.0,60.0,4.0,0.0
10386,71.0,60.0,60.0,12.0,0.0
10387,74.0,0.0,60.0,11.0,0.0
10388,78.0,0.0,60.0,4.0,0.0
10389,80.0,60.0,300.0,4.0,0.0
10390,74.0,0.0,180.0,11.0,0.0
10391,65.0,60.0,180.0,12.0,0.0
10392,70.0,60.0,60.0,10.0,0.0
10393,71.0,0.0,60.0,10.0,0.0
10394,68.0,0.0,60.0,12.0,0.0
10395,68.0,0.0,60.0,10.0,0.0
10396,71.0,6.0,60.0,11.0,0.0
10397,49.0,60.0,420.0,14.0,0.0
10398,68.0,0.0,480.0,11.0,0.0
10399,49.0,0.0,420.0,13.0,0.0
10400,71.0,54.0,480.0,12.0,0.0
10401,74.0,60.0,300.0,10.0,0.0
10402,78.0,60.0,60.0,4.0,0.0
10403,80.0,60.0,60.0,4.0,0.0
10404,80.0,0.0,60.0,5.0,0.0
10405,71.0,0.0,60.0,6.0,0.0
10406,77.0,60.0,60.0,4.0,0.0
10407,83.0,60.0,300.0,4.0,0.0
10408,77.0,0.0,180.0,6.0,0.0
10409,80.0,0.0,180.0,5.0,0.0
10410,73.0,60.0,60.0,10.0,0.0
10411,74.0,0.0,60.0,10.0,0.0
10412,49.0,6.0,60.0,7.0,0.0
10413,49.0,0.0,60.0,13.0,0.0
10414,49.0,0.0,60.0,14.0,0.0
10415,71.0,0.0,60.0,10.0,0.0
10416,80.0,0.0,60.0,6.0,0.0
10417,77.0,0.0,60.0,5.0,0.0
10418,49.0,0.0,480.0,13.0,0.0
10419,73.0,0.0,240.0,5.0,0.0
10420,78.0,54.0,240.0,6.0,0.0
10421,73.0,60.0,300.0,10.0,0.0
10422,49.0,0.0,900.0,7.0,0.0
10423,49.0,54.0,480.0,14.0,0.0
10424,81.0,60.0,60.0,4.0,0.0
10425,83.0,60.0,60.0,4.0,0.0
10426,80.0,6.0,60.0,4.0,0.0
10427,65.0,0.0,60.0,12.0,0.0
10428,71.0,0.0,60.0,11.0,0.0
10429,81.0,60.0,300.0,4.0,0.0
10430,69.0,0.0,240.0,11.0,0.0
10431,66.0,0.0,240.0,12.0,0.0
10432,71.0,60.0,60.0,10.0,0.0
10433,73.0,60.0,60.0,10.0,0.0
10434,69.0,0.0,60.0,10.0,0.0
10435,78.0,0.0,60.0,6.0,0.0
10436,73.0,6.0,60.0,5.0,0.0
10437,75.0,54.0,240.0,6.0,0.0
10438,71.0,0.0,240.0,5.0,0.0
10439,49.0,0.0,420.0,13.0,0.0
10440,49.0,60.0,420.0,14.0,0.0
10441,71.0,60.0,300.0,10.0,0.0
10442,80.0,60.0,60.0,4.0,0.0
10443,81.0,60.0,60.0,4.0,0.0
10444,66.0,0.0,60.0,12.0,0.0
10445,78.0,0.0,60.0,4.0,0.0
10446,69.0,6.0,60.0,11.0,0.0
10447,80.0,60.0,300.0,4.0,0.0
10448,65.0,54.0,240.0,12.0,0.0
10449,68.0,0.0,240.0,11.0,0.0
10450,69.0,60.0,60.0,10.0,0.0
10451,71.0,0.0,60.0,10.0,0.0
10452,49.0,0.0,60.0,7.0,0.0
10453,71.0,0.0,60.0,5.0,0.0
10454,68.0,0.0,60.0,10.0,0.0
10455,49.0,0.0,60.0,14.0,0.0
10456,77.0,6.0,60.0,6.0,0.0
10457,49.0,0.0,60.0,13.0,0.0
10458,69.0,60.0,300.0,10.0,0.0
10459,69.0,0.0,480.0,5.0,0.0
10460,49.0,0.0,540.0,14.0,0.0
10461,73.0,54.0,480.0,6.0,0.0
10462,49.0,0.0,540.0,13.0,0.0
10463,49.0,60.0,540.0,7.0,0.0
10464,78.0,60.0,60.0,4.0,0.0
10465,80.0,60.0,60.0,4.0,0.0
10466,61.0,0.0,60.0,12.0,0.0
10467,77.0,0.0,60.0,4.0,0.0
10468,68.0,60.0,60.0,11.0,0.0
10469,78.0,0.0,60.0,4.0,0.0
10470,66.0,0.0,180.0,11.0,0.0
10471,61.0,60.0,180.0,12.0,0.0
10472,77.0,0.0,60.0,4.0,0.0
10473,68.0,60.0,60.0,10.0,0.0
10474,69.0,0.0,60.0,10.0,0.0
10475,78.0,0.0,60.0,4.0,0.0
10476,66.0,0.0,60.0,10.0,0.0
10477,75.0,0.0,60.0,4.0,0.0
10478,69.0,6.0,60.0,11.0,0.0
10479,66.0,0.0,60.0,12.0,0.0
10480,73.0,0.0,660.0,11.0,0.0
10481,76.0,60.0,540.0,10.0,0.0
10482,76.0,0.0,540.0,4.0,0.0
10483,70.0,60.0,660.0,12.0,0.0
10484,51.0,0.0,60.0,13.0,0.0
10485,51.0,0.0,60.0,14.0,0.0
10486,51.0,60.0,60.0,7.0,0.0
10487,49.0,0.0,60.0,7.0,0.0
10488,49.0,0.0,60.0,13.0,0.0
10489,49.0,60.0,60.0,14.0,0.0
10490,47.0,0.0,60.0,14.0,0.0
10491,47.0,0.0,60.0,7.0,0.0
10492,66.0,0.0,60.0,6.0,0.0
10493,47.0,60.0,60.0,13.0,0.0
10494,73.0,0.0,60.0,5.0,0.0
10495,46.0,0.0,60.0,14.0,0.0
10496,73.0,0.0,180.0,6.0,0.0
10497,66.0,0.0,180.0,5.0,0.0
10498,46.0,0.0,60.0,7.0,0.0
10499,46.0,60.0,60.0,13.0,0.0
10500,44.0,0.0,60.0,14.0,0.0
10501,44.0,0.0,60.0,13.0,0.0
10502,44.0,60.0,60.0,7.0,0.0
10503,46.0,0.0,60.0,13.0,0.0
10504,46.0,0.0,60.0,7.0,0.0
10505,46.0,60.0,60.0,14.0,0.0
10506,78.0,0.0,60.0,6.0,0.0
10507,42.0,0.0,60.0,14.0,0.0
10508,70.0,0.0,60.0,5.0,0.0
10509,42.0,0.0,60.0,7.0,0.0
10510,42.0,60.0,60.0,13.0,0.0
10511,78.0,0.0,180.0,6.0,0.0
10512,51.0,0.0,540.0,14.0,0.0
10513,51.0,0.0,540.0,7.0,0.0
10514,51.0,60.0,540.0,13.0,0.0
10515,70.0,0.0,180.0,5.0,0.0
10516,75.0,60.0,60.0,4.0,0.0
10517,75.0,0.0,60.0,10.0,0.0
10518,76.0,0.0,60.0,10.0,0.0
10519,76.0,0.0,60.0,4.0,0.0
10520,73.0,180.0,60.0,4.0,0.0
10521,73.0,0.0,60.0,5.0,0.0
10522,73.0,0.0,60.0,10.0,0.0
10523,76.0,0.0,60.0,6.0,0.0
10524,66.0,0.0,60.0,12.0,0.0
10525,70.0,0.0,60.0,11.0,0.0
10526,71.0,60.0,180.0,5.0,0.0
10527,66.0,0.0,180.0,12.0,0.0
10528,71.0,0.0,180.0,11.0,0.0
10529,75.0,0.0,180.0,10.0,0.0
10530,75.0,0.0,180.0,6.0,0.0
10531,75.0,0.0,180.0,4.0,0.0
10532,77.0,0.0,60.0,4.0,0.0
10533,68.0,0.0,60.0,11.0,0.0
10534,77.0,0.0,60.0,10.0,0.0
10535,65.0,0.0,60.0,12.0,0.0
10536,71.0,0.0,60.0,6.0,0.0
10537,68.0,60.0,60.0,5.0,0.0
10538,78.0,4.0,360.0,10.0,0.0
10539,70.0,0.0,180.0,6.0,0.0
10540,78.0,0.0,360.0,4.0,0.0
10541,63.0,0.0,360.0,12.0,0.0
10542,70.0,0.0,180.0,5.0,0.0
10543,70.0,0.0,180.0,11.0,0.0
10544,52.0,0.0,60.0,14.0,0.0
10545,52.0,60.0,60.0,13.0,0.0
10546,52.0,0.0,60.0,7.0,0.0
10547,51.0,0.0,60.0,7.0,0.0
10548,51.0,0.0,60.0,14.0,0.0
10549,51.0,60.0,60.0,13.0,0.0
10550,66.0,0.0,60.0,5.0,0.0
10551,66.0,0.0,60.0,11.0,0.0
10552,49.0,60.0,60.0,13.0,0.0
10553,49.0,0.0,60.0,7.0,0.0
10554,49.0,0.0,60.0,14.0,0.0
10555,70.0,0.0,60.0,6.0,0.0
10556,47.0,0.0,60.0,13.0,0.0
10557,68.0,0.0,180.0,5.0,0.0
10558,68.0,56.0,180.0,11.0,0.0
10559,75.0,0.0,180.0,6.0,0.0
10560,47.0,0.0,60.0,7.0,0.0
10561,47.0,56.0,60.0,14.0,0.0
10562,46.0,60.0,60.0,14.0,0.0
10563,46.0,0.0,60.0,13.0,0.0
10564,46.0,0.0,60.0,7.0,0.0
10565,71.0,4.0,120.0,12.0,0.0
10566,47.0,0.0,60.0,14.0,0.0
10567,80.0,0.0,120.0,10.0,0.0
10568,47.0,0.0,60.0,7.0,0.0
10569,47.0,0.0,60.0,13.0,0.0
10570,80.0,0.0,120.0,4.0,0.0
10571,75.0,0.0,60.0,5.0,0.0
10572,44.0,0.0,60.0,13.0,0.0
10573,75.0,0.0,60.0,11.0,0.0
10574,44.0,0.0,60.0,14.0,0.0
10575,71.0,0.0,60.0,6.0,0.0
10576,44.0,180.0,60.0,7.0,0.0
10577,73.0,0.0,180.0,6.0,0.0
10578,80.0,0.0,180.0,5.0,0.0
10579,73.0,0.0,180.0,10.0,0.0
10580,53.0,0.0,180.0,14.0,0.0
10581,53.0,0.0,180.0,13.0,0.0
10582,53.0,0.0,180.0,7.0,0.0
10583,73.0,0.0,180.0,4.0,0.0
10584,80.0,60.0,180.0,11.0,0.0
10585,73.0,0.0,180.0,12.0,0.0
10586,49.0,0.0,60.0,13.0,0.0
10587,83.0,0.0,60.0,10.0,0.0
10588,83.0,0.0,60.0,4.0,0.0
10589,77.0,0.0,60.0,5.0,0.0
10590,77.0,0.0,60.0,11.0,0.0
10591,85.0,0.0,60.0,0.0,0.0
10592,73.0,0.0,60.0,12.0,0.0
10593,49.0,6.0,60.0,7.0,0.0
10594,73.0,0.0,60.0,2.0,0.0
10595,49.0,0.0,60.0,14.0,0.0
10596,80.0,0.0,60.0,1.0,0.0
10597,73.0,0.0,60.0,6.0,0.0
10598,49.0,174.0,60.0,3.0,0.0
10599,82.0,0.0,180.0,4.0,0.0
10600,73.0,0.0,180.0,6.0,0.0
10601,66.0,0.0,180.0,2.0,0.0
10602,78.0,0.0,180.0,5.0,0.0
10603,82.0,0.0,180.0,1.0,0.0
10604,73.0,0.0,180.0,12.0,0.0
10605,54.0,0.0,180.0,7.0,0.0
10606,85.0,0.0,180.0,0.0,0.0
10607,82.0,0.0,180.0,10.0,0.0
10608,78.0,6.0,180.0,11.0,0.0
10609,54.0,0.0,180.0,13.0,0.0
10610,54.0,54.0,180.0,3.0,0.0
10611,54.0,0.0,180.0,14.0,0.0
10612,75.0,0.0,60.0,11.0,0.0
10613,54.0,15.0,60.0,3.0,0.0
10614,71.0,0.0,60.0,6.0,0.0
10615,87.0,0.0,60.0,0.0,0.0
10616,75.0,0.0,60.0,5.0,0.0
10617,83.0,0.0,60.0,1.0,0.0
10618,47.0,6.0,60.0,14.0,0.0
10619,47.0,0.0,60.0,13.0,0.0
10620,80.0,0.0,60.0,10.0,0.0
10621,47.0,0.0,60.0,7.0,0.0
10622,71.0,0.0,60.0,12.0,0.0
10623,80.0,0.0,60.0,4.0,0.0
10624,66.0,0.0,60.0,2.0,0.0
10625,77.0,15.0,15.0,4.0,0.0
10626,49.0,0.0,240.0,13.0,0.0
10627,68.0,10.0,360.0,12.0,0.0
10628,68.0,0.0,15.0,6.0,0.0
10629,49.0,0.0,240.0,7.0,0.0
10630,49.0,10.0,240.0,14.0,0.0
10631,73.0,0.0,240.0,5.0,0.0
10632,80.0,0.0,360.0,1.0,0.0
10633,73.0,0.0,360.0,2.0,0.0
10634,85.0,0.0,240.0,0.0,0.0
10635,49.0,0.0,180.0,3.0,0.0
10636,73.0,0.0,360.0,11.0,0.0
10637,77.0,0.0,15.0,10.0,0.0
10638,78.0,0.0,15.0,4.0,0.0
10639,70.0,15.0,15.0,6.0,0.0
10640,78.0,0.0,15.0,10.0,0.0
10641,77.0,15.0,15.0,10.0,0.0
10642,77.0,0.0,15.0,4.0,0.0
10643,68.0,0.0,15.0,6.0,0.0
10644,70.0,0.0,15.0,6.0,0.0
10645,78.0,0.0,15.0,4.0,0.0
10646,78.0,15.0,15.0,10.0,0.0
10647,68.0,0.0,15.0,6.0,0.0
10648,77.0,15.0,15.0,4.0,0.0
10649,77.0,0.0,15.0,10.0,0.0
10650,70.0,0.0,15.0,6.0,0.0
10651,78.0,0.0,15.0,10.0,0.0
10652,78.0,15.0,15.0,4.0,0.0
10653,77.0,0.0,15.0,10.0,0.0
10654,77.0,0.0,15.0,4.0,0.0
10655,68.0,15.0,15.0,6.0,0.0
10656,78.0,0.0,15.0,4.0,0.0
10657,78.0,0.0,15.0,10.0,0.0
10658,70.0,15.0,15.0,6.0,0.0
10659,77.0,15.0,15.0,4.0,0.0
10660,77.0,0.0,15.0,10.0,0.0
10661,68.0,0.0,15.0,6.0,0.0
10662,70.0,15.0,15.0,6.0,0.0
10663,78.0,0.0,15.0,4.0,0.0
10664,78.0,0.0,15.0,10.0,0.0
10665,77.0,15.0,15.0,10.0,0.0
10666,77.0,0.0,15.0,4.0,0.0
10667,68.0,0.0,15.0,6.0,0.0
10668,70.0,0.0,15.0,6.0,0.0
10669,78.0,0.0,15.0,10.0,0.0
10670,78.0,15.0,15.0,4.0,0.0
10671,49.0,0.0,60.0,3.0,0.0
10672,68.0,0.0,15.0,6.0,0.0
10673,77.0,15.0,15.0,10.0,0.0
10674,77.0,0.0,15.0,4.0,0.0
10675,78.0,15.0,15.0,4.0,0.0
10676,78.0,0.0,15.0,10.0,0.0
10677,70.0,0.0,15.0,6.0,0.0
10678,77.0,0.0,15.0,10.0,0.0
10679,68.0,0.0,15.0,6.0,0.0
10680,77.0,5.0,15.0,4.0,0.0
10681,78.0,0.0,15.0,10.0,0.0
10682,70.0,15.0,15.0,6.0,0.0
10683,78.0,0.0,15.0,4.0,0.0
10684,49.0,0.0,240.0,14.0,0.0
10685,49.0,0.0,240.0,13.0,0.0
10686,49.0,0.0,240.0,7.0,0.0
10687,77.0,0.0,15.0,10.0,0.0
10688,68.0,0.0,15.0,6.0,0.0
10689,83.0,15.0,15.0,0.0,0.0
10690,77.0,0.0,15.0,4.0,0.0
10691,49.0,50.0,180.0,3.0,0.0
10692,73.0,0.0,240.0,5.0,0.0
10693,70.0,0.0,15.0,6.0,0.0
10694,85.0,15.0,15.0,0.0,0.0
10695,78.0,0.0,15.0,10.0,0.0
10696,78.0,0.0,15.0,4.0,0.0
10697,77.0,0.0,15.0,10.0,0.0
10698,68.0,0.0,15.0,6.0,0.0
10699,83.0,15.0,15.0,0.0,0.0
10700,77.0,0.0,15.0,4.0,0.0
10701,85.0,0.0,15.0,0.0,0.0
10702,70.0,0.0,15.0,6.0,0.0
10703,78.0,0.0,15.0,10.0,0.0
10704,78.0,15.0,15.0,4.0,0.0
10705,77.0,0.0,15.0,10.0,0.0
10706,83.0,0.0,15.0,0.0,0.0
10707,68.0,15.0,15.0,6.0,0.0
10708,77.0,0.0,15.0,4.0,0.0
10709,78.0,0.0,15.0,10.0,0.0
10710,85.0,0.0,15.0,0.0,0.0
10711,78.0,15.0,15.0,4.0,0.0
10712,70.0,0.0,15.0,6.0,0.0
10713,75.0,0.0,15.0,10.0,0.0
10714,83.0,0.0,15.0,0.0,0.0
10715,66.0,5.0,15.0,6.0,0.0
10716,75.0,0.0,15.0,4.0,0.0
10717,77.0,0.0,15.0,10.0,0.0
10718,77.0,0.0,15.0,4.0,0.0
10719,85.0,15.0,15.0,0.0,0.0
10720,68.0,0.0,15.0,6.0,0.0
10721,78.0,0.0,120.0,4.0,0.0
10722,78.0,0.0,120.0,1.0,0.0
10723,70.0,0.0,120.0,6.0,0.0
10724,73.0,0.0,120.0,2.0,0.0
10725,78.0,0.0,120.0,10.0,0.0
10726,73.0,0.0,120.0,11.0,0.0
10727,70.0,4.0,120.0,12.0,0.0
10728,83.0,15.0,15.0,0.0,0.0
10729,85.0,15.0,15.0,0.0,0.0
10730,82.0,15.0,15.0,0.0,0.0
10731,83.0,0.0,15.0,0.0,0.0
10732,82.0,6.0,60.0,0.0,0.0
10733,49.0,220.0,60.0,3.0,0.0
10734,42.0,0.0,240.0,14.0,0.0
10735,54.0,20.0,210.0,14.0,0.0
10736,54.0,0.0,210.0,7.0,0.0
10737,70.0,120.0,720.0,6.0,0.0
10738,54.0,0.0,360.0,3.0,0.0
10739,73.0,0.0,720.0,11.0,0.0
10740,78.0,0.0,720.0,10.0,0.0
10741,54.0,0.0,210.0,13.0,0.0
10742,82.0,120.0,360.0,0.0,0.0
10743,70.0,0.0,720.0,12.0,0.0
10744,42.0,100.0,240.0,13.0,0.0
10745,73.0,0.0,360.0,2.0,0.0
10746,78.0,0.0,720.0,4.0,0.0
10747,73.0,0.0,720.0,5.0,0.0
10748,78.0,0.0,360.0,1.0,0.0
10749,56.0,20.0,90.0,14.0,0.0
10750,56.0,0.0,90.0,13.0,0.0
10751,56.0,0.0,90.0,7.0,0.0
10752,58.0,0.0,120.0,14.0,0.0
10753,58.0,0.0,120.0,7.0,0.0
10754,58.0,100.0,120.0,13.0,0.0
10755,61.0,0.0,90.0,13.0,0.0
10756,61.0,120.0,90.0,14.0,0.0
10757,61.0,0.0,90.0,7.0,0.0
10758,60.0,0.0,90.0,14.0,0.0
10759,60.0,20.0,90.0,13.0,0.0
10760,60.0,0.0,90.0,7.0,0.0
10761,60.0,0.0,120.0,14.0,0.0
10762,60.0,0.0,120.0,13.0,0.0
10763,60.0,100.0,120.0,7.0,0.0
10764,63.0,120.0,90.0,14.0,0.0
10765,63.0,0.0,90.0,13.0,0.0
10766,63.0,0.0,90.0,7.0,0.0
10767,61.0,360.0,90.0,13.0,0.0
10768,61.0,0.0,90.0,7.0,0.0
10769,61.0,0.0,90.0,14.0,0.0
10770,61.0,0.0,360.0,14.0,0.0
10771,61.0,120.0,360.0,13.0,0.0
10772,61.0,0.0,360.0,7.0,0.0
10773,80.0,0.0,90.0,11.0,0.0
10774,80.0,20.0,90.0,5.0,0.0
10775,80.0,100.0,120.0,11.0,0.0
10776,80.0,0.0,120.0,5.0,0.0
10777,82.0,120.0,90.0,11.0,0.0
10778,82.0,0.0,90.0,5.0,0.0
10779,78.0,0.0,90.0,5.0,0.0
10780,78.0,140.0,90.0,11.0,0.0
10781,78.0,0.0,120.0,5.0,0.0
10782,78.0,100.0,120.0,11.0,0.0
10783,80.0,0.0,90.0,5.0,0.0
10784,80.0,120.0,90.0,11.0,0.0
10785,77.0,140.0,90.0,5.0,0.0
10786,77.0,0.0,90.0,11.0,0.0
10787,77.0,0.0,120.0,5.0,0.0
10788,77.0,120.0,120.0,11.0,0.0
10789,78.0,0.0,120.0,5.0,0.0
10790,78.0,100.0,120.0,11.0,0.0
10791,73.0,140.0,90.0,6.0,0.0
10792,80.0,0.0,90.0,5.0,0.0
10793,73.0,0.0,90.0,12.0,0.0
10794,80.0,0.0,90.0,11.0,0.0
10795,82.0,0.0,120.0,5.0,0.0
10796,73.0,0.0,120.0,6.0,0.0
10797,73.0,100.0,120.0,12.0,0.0
10798,82.0,0.0,120.0,11.0,0.0
10799,75.0,0.0,90.0,12.0,0.0
10800,75.0,120.0,90.0,6.0,0.0
10801,83.0,0.0,90.0,11.0,0.0
10802,83.0,0.0,90.0,5.0,0.0
10803,71.0,0.0,90.0,6.0,0.0
10804,80.0,0.0,90.0,11.0,0.0
10805,71.0,0.0,90.0,12.0,0.0
10806,80.0,140.0,90.0,5.0,0.0
10807,71.0,100.0,120.0,6.0,0.0
10808,80.0,0.0,120.0,11.0,0.0
10809,80.0,0.0,120.0,5.0,0.0
10810,71.0,0.0,120.0,12.0,0.0
10811,73.0,0.0,90.0,12.0,0.0
10812,73.0,0.0,90.0,6.0,0.0
10813,82.0,120.0,90.0,5.0,0.0
10814,82.0,0.0,90.0,11.0,0.0
10815,78.0,140.0,90.0,5.0,0.0
10816,70.0,0.0,90.0,12.0,0.0
10817,70.0,0.0,90.0,6.0,0.0
10818,78.0,0.0,90.0,11.0,0.0
10819,70.0,0.0,120.0,6.0,0.0
10820,70.0,120.0,120.0,12.0,0.0
10821,78.0,0.0,240.0,11.0,0.0
10822,78.0,85.0,240.0,5.0,0.0
10823,71.0,15.0,120.0,6.0,0.0
10824,71.0,0.0,120.0,12.0,0.0
10825,73.0,0.0,90.0,12.0,0.0
10826,73.0,5.0,90.0,6.0,0.0
10827,78.0,135.0,60.0,11.0,0.0
10828,78.0,0.0,60.0,5.0,0.0
10829,78.0,85.0,240.0,5.0,0.0
10830,75.0,0.0,120.0,12.0,0.0
10831,78.0,0.0,240.0,11.0,0.0
10832,75.0,100.0,120.0,6.0,0.0
10833,77.0,0.0,90.0,12.0,0.0
10834,77.0,35.0,90.0,6.0,0.0
10835,73.0,0.0,90.0,12.0,0.0
10836,73.0,5.0,90.0,6.0,0.0
10837,78.0,0.0,60.0,5.0,0.0
10838,78.0,135.0,60.0,11.0,0.0
10839,78.0,85.0,240.0,5.0,0.0
10840,78.0,0.0,240.0,11.0,0.0
10841,73.0,100.0,120.0,12.0,0.0
10842,73.0,0.0,120.0,6.0,0.0
10843,75.0,0.0,90.0,6.0,0.0
10844,75.0,35.0,90.0,12.0,0.0
10845,72.0,0.0,90.0,6.0,0.0
10846,72.0,5.0,90.0,12.0,0.0
10847,78.0,0.0,60.0,5.0,0.0
10848,78.0,135.0,60.0,11.0,0.0
10849,72.0,0.0,240.0,12.0,0.0
10850,78.0,0.0,120.0,5.0,0.0
10851,78.0,120.0,120.0,11.0,0.0
10852,72.0,85.0,240.0,6.0,0.0
10853,75.0,15.0,120.0,5.0,0.0
10854,75.0,0.0,120.0,11.0,0.0
10855,77.0,0.0,90.0,11.0,0.0
10856,77.0,5.0,90.0,5.0,0.0
10857,72.0,0.0,60.0,6.0,0.0
10858,72.0,135.0,60.0,12.0,0.0
10859,78.0,100.0,120.0,11.0,0.0
10860,78.0,0.0,120.0,5.0,0.0
10861,72.0,0.0,240.0,6.0,0.0
10862,72.0,85.0,240.0,12.0,0.0
10863,87.0,35.0,90.0,11.0,0.0
10864,87.0,0.0,90.0,5.0,0.0
10865,77.0,5.0,90.0,5.0,0.0
10866,77.0,0.0,90.0,11.0,0.0
10867,72.0,135.0,60.0,6.0,0.0
10868,72.0,0.0,60.0,12.0,0.0
10869,78.0,0.0,120.0,11.0,0.0
10870,78.0,120.0,120.0,5.0,0.0
10871,72.0,0.0,240.0,6.0,0.0
10872,72.0,85.0,240.0,12.0,0.0
10873,77.0,15.0,120.0,11.0,0.0
10874,77.0,0.0,120.0,5.0,0.0
10875,75.0,0.0,90.0,5.0,0.0
10876,75.0,5.0,90.0,11.0,0.0
10877,72.0,135.0,60.0,6.0,0.0
10878,72.0,0.0,60.0,12.0,0.0
10879,77.0,0.0,120.0,5.0,0.0
10880,77.0,120.0,120.0,11.0,0.0
10881,73.0,0.0,120.0,12.0,0.0
10882,73.0,0.0,120.0,6.0,0.0
10883,80.0,0.0,120.0,11.0,0.0
10884,80.0,0.0,120.0,5.0,0.0
10885,77.0,0.0,120.0,6.0,0.0
10886,77.0,100.0,120.0,12.0,0.0
10887,75.0,0.0,90.0,12.0,0.0
10888,78.0,140.0,90.0,11.0,0.0
10889,85.0,0.0,90.0,10.0,0.0
10890,78.0,0.0,90.0,5.0,0.0
10891,85.0,0.0,90.0,4.0,0.0
10892,75.0,0.0,90.0,6.0,0.0
10893,85.0,0.0,120.0,10.0,0.0
10894,80.0,0.0,240.0,11.0,0.0
10895,77.0,85.0,240.0,12.0,0.0
10896,77.0,0.0,240.0,6.0,0.0
10897,85.0,100.0,120.0,4.0,0.0
10898,80.0,0.0,240.0,5.0,0.0
10899,87.0,0.0,90.0,10.0,0.0
10900,87.0,35.0,90.0,4.0,0.0
10901,83.0,5.0,90.0,10.0,0.0
10902,83.0,0.0,90.0,4.0,0.0
10903,75.0,0.0,60.0,12.0,0.0
10904,75.0,135.0,60.0,6.0,0.0
10905,78.0,0.0,60.0,11.0,0.0
10906,78.0,0.0,60.0,5.0,0.0
10907,80.0,0.0,240.0,11.0,0.0
10908,83.0,100.0,120.0,4.0,0.0
10909,77.0,85.0,240.0,12.0,0.0
10910,77.0,0.0,240.0,6.0,0.0
10911,80.0,0.0,240.0,5.0,0.0
10912,83.0,0.0,120.0,10.0,0.0
10913,85.0,0.0,90.0,4.0,0.0
10914,85.0,35.0,90.0,10.0,0.0
10915,82.0,5.0,90.0,4.0,0.0
10916,82.0,0.0,90.0,10.0,0.0
10917,77.0,135.0,60.0,5.0,0.0
10918,73.0,0.0,60.0,6.0,0.0
10919,77.0,0.0,60.0,11.0,0.0
10920,73.0,0.0,60.0,12.0,0.0
10921,82.0,0.0,120.0,10.0,0.0
10922,82.0,0.0,120.0,4.0,0.0
10923,78.0,0.0,120.0,11.0,0.0
10924,66.0,0.0,120.0,12.0,0.0
10925,66.0,0.0,120.0,6.0,0.0
10926,78.0,120.0,120.0,5.0,0.0
10927,68.0,0.0,120.0,12.0,0.0
10928,83.0,0.0,120.0,10.0,0.0
10929,68.0,0.0,120.0,6.0,0.0
10930,77.0,0.0,120.0,5.0,0.0
10931,83.0,0.0,120.0,4.0,0.0
10932,77.0,100.0,120.0,11.0,0.0
10933,78.0,0.0,90.0,5.0,0.0
10934,66.0,140.0,90.0,13.0,0.0
10935,70.0,0.0,90.0,12.0,0.0
10936,78.0,0.0,90.0,11.0,0.0
10937,66.0,0.0,90.0,7.0,0.0
10938,66.0,0.0,90.0,14.0,0.0
10939,85.0,0.0,90.0,10.0,0.0
10940,70.0,0.0,90.0,6.0,0.0
10941,85.0,0.0,90.0,4.0,0.0
10942,78.0,85.0,240.0,5.0,0.0
10943,70.0,0.0,240.0,12.0,0.0
10944,78.0,0.0,240.0,11.0,0.0
10945,66.0,0.0,120.0,7.0,0.0
10946,87.0,100.0,120.0,10.0,0.0
10947,66.0,0.0,120.0,13.0,0.0
10948,70.0,0.0,240.0,6.0,0.0
10949,66.0,0.0,120.0,14.0,0.0
10950,87.0,0.0,120.0,4.0,0.0
10951,68.0,0.0,90.0,13.0,0.0
10952,68.0,0.0,90.0,7.0,0.0
10953,68.0,0.0,90.0,14.0,0.0
10954,88.0,0.0,90.0,10.0,0.0
10955,88.0,35.0,90.0,4.0,0.0
10956,64.0,5.0,90.0,14.0,0.0
10957,85.0,0.0,90.0,4.0,0.0
10958,85.0,0.0,90.0,10.0,0.0
10959,64.0,0.0,90.0,7.0,0.0
10960,64.0,0.0,90.0,13.0,0.0
10961,70.0,0.0,60.0,5.0,0.0
10962,73.0,135.0,60.0,12.0,0.0
10963,70.0,0.0,60.0,11.0,0.0
10964,73.0,0.0,60.0,6.0,0.0
10965,64.0,100.0,120.0,14.0,0.0
10966,73.0,0.0,240.0,5.0,0.0
10967,70.0,0.0,240.0,12.0,0.0
10968,73.0,0.0,240.0,11.0,0.0
10969,64.0,0.0,120.0,7.0,0.0
10970,64.0,0.0,120.0,13.0,0.0
10971,70.0,85.0,240.0,6.0,0.0
10972,85.0,0.0,120.0,10.0,0.0
10973,85.0,0.0,120.0,4.0,0.0
10974,66.0,0.0,90.0,7.0,0.0
10975,87.0,0.0,90.0,10.0,0.0
10976,66.0,0.0,90.0,13.0,0.0
10977,66.0,35.0,90.0,14.0,0.0
10978,87.0,0.0,90.0,4.0,0.0
10979,83.0,5.0,90.0,4.0,0.0
10980,63.0,0.0,90.0,7.0,0.0
10981,63.0,0.0,90.0,13.0,0.0
10982,83.0,0.0,90.0,10.0,0.0
10983,63.0,0.0,90.0,14.0,0.0
10984,78.0,0.0,60.0,11.0,0.0
10985,66.0,0.0,60.0,6.0,0.0
10986,78.0,0.0,60.0,5.0,0.0
10987,66.0,135.0,60.0,12.0,0.0
10988,63.0,0.0,120.0,13.0,0.0
10989,63.0,0.0,120.0,14.0,0.0
10990,71.0,0.0,240.0,6.0,0.0
10991,78.0,0.0,120.0,11.0,0.0
10992,71.0,0.0,240.0,12.0,0.0
10993,63.0,120.0,120.0,7.0,0.0
10994,78.0,0.0,120.0,5.0,0.0
10995,83.0,0.0,240.0,4.0,0.0
10996,83.0,85.0,240.0,10.0,0.0
10997,80.0,0.0,120.0,5.0,0.0
10998,65.0,15.0,120.0,13.0,0.0
10999,65.0,0.0,120.0,7.0,0.0
11000,65.0,0.0,120.0,14.0,0.0
11001,80.0,0.0,120.0,11.0,0.0
11002,66.0,5.0,90.0,13.0,0.0
11003,66.0,0.0,90.0,14.0,0.0
11004,66.0,0.0,90.0,7.0,0.0
11005,78.0,0.0,90.0,11.0,0.0
11006,78.0,0.0,90.0,5.0,0.0
11007,83.0,0.0,60.0,4.0,0.0
11008,75.0,0.0,60.0,6.0,0.0
11009,83.0,135.0,60.0,10.0,0.0
11010,75.0,0.0,60.0,12.0,0.0
11011,68.0,0.0,120.0,7.0,0.0
11012,68.0,0.0,120.0,13.0,0.0
11013,71.0,100.0,120.0,6.0,0.0
11014,71.0,0.0,120.0,12.0,0.0
11015,68.0,0.0,120.0,14.0,0.0
11016,83.0,85.0,240.0,10.0,0.0
11017,77.0,0.0,120.0,5.0,0.0
11018,83.0,0.0,240.0,4.0,0.0
11019,77.0,0.0,120.0,11.0,0.0
11020,78.0,0.0,90.0,11.0,0.0
11021,78.0,0.0,90.0,5.0,0.0
11022,70.0,0.0,90.0,14.0,0.0
11023,70.0,0.0,90.0,7.0,0.0
11024,73.0,0.0,120.0,12.0,0.0
11025,73.0,15.0,120.0,6.0,0.0
11026,70.0,20.0,90.0,13.0,0.0
11027,75.0,0.0,90.0,6.0,0.0
11028,66.0,0.0,90.0,13.0,0.0
11029,66.0,5.0,90.0,7.0,0.0
11030,75.0,0.0,90.0,11.0,0.0
11031,75.0,0.0,90.0,5.0,0.0
11032,66.0,0.0,90.0,14.0,0.0
11033,75.0,0.0,90.0,12.0,0.0
11034,83.0,0.0,60.0,10.0,0.0
11035,83.0,135.0,60.0,4.0,0.0
11036,75.0,0.0,120.0,5.0,0.0
11037,66.0,0.0,120.0,14.0,0.0
11038,83.0,0.0,240.0,10.0,0.0
11039,66.0,0.0,120.0,7.0,0.0
11040,68.0,0.0,240.0,12.0,0.0
11041,68.0,0.0,240.0,6.0,0.0
11042,66.0,100.0,120.0,13.0,0.0
11043,83.0,85.0,240.0,4.0,0.0
11044,75.0,0.0,120.0,11.0,0.0
11045,68.0,0.0,90.0,7.0,0.0
11046,68.0,0.0,90.0,14.0,0.0
11047,77.0,0.0,90.0,5.0,0.0
11048,77.0,0.0,90.0,11.0,0.0
11049,68.0,35.0,90.0,13.0,0.0
11050,65.0,0.0,90.0,7.0,0.0
11051,73.0,0.0,90.0,11.0,0.0
11052,73.0,5.0,90.0,5.0,0.0
11053,65.0,0.0,90.0,14.0,0.0
11054,65.0,0.0,90.0,13.0,0.0
11055,83.0,0.0,60.0,10.0,0.0
11056,83.0,0.0,60.0,4.0,0.0
11057,68.0,135.0,60.0,12.0,0.0
11058,68.0,0.0,60.0,6.0,0.0
11059,65.0,85.0,240.0,7.0,0.0
11060,73.0,0.0,240.0,11.0,0.0
11061,68.0,0.0,360.0,12.0,0.0
11062,68.0,120.0,360.0,6.0,0.0
11063,73.0,0.0,240.0,5.0,0.0
11064,65.0,0.0,240.0,14.0,0.0
11065,65.0,0.0,240.0,13.0,0.0
11066,83.0,0.0,120.0,10.0,0.0
11067,83.0,120.0,120.0,4.0,0.0
11068,80.0,15.0,120.0,10.0,0.0
11069,80.0,0.0,120.0,4.0,0.0
11070,82.0,5.0,90.0,4.0,0.0
11071,82.0,0.0,90.0,10.0,0.0
11072,85.0,0.0,60.0,5.0,0.0
11073,65.0,0.0,60.0,14.0,0.0
11074,85.0,15.0,60.0,11.0,0.0
11075,65.0,0.0,60.0,7.0,0.0
11076,65.0,0.0,60.0,13.0,0.0
11077,83.0,100.0,120.0,4.0,0.0
11078,65.0,0.0,240.0,14.0,0.0
11079,80.0,85.0,240.0,5.0,0.0
11080,65.0,0.0,240.0,7.0,0.0
11081,83.0,0.0,120.0,10.0,0.0
11082,80.0,0.0,240.0,11.0,0.0
11083,65.0,0.0,240.0,13.0,0.0
11084,92.0,35.0,90.0,10.0,0.0
11085,85.0,0.0,90.0,4.0,0.0
11086,82.0,0.0,90.0,4.0,0.0
11087,82.0,5.0,90.0,10.0,0.0
11088,77.0,0.0,60.0,5.0,0.0
11089,73.0,0.0,60.0,12.0,0.0
11090,73.0,0.0,60.0,6.0,0.0
11091,65.0,0.0,60.0,14.0,0.0
11092,65.0,135.0,60.0,13.0,0.0
11093,65.0,0.0,60.0,7.0,0.0
11094,77.0,0.0,60.0,11.0,0.0
11095,65.0,0.0,240.0,13.0,0.0
11096,73.0,0.0,240.0,11.0,0.0
11097,73.0,0.0,240.0,5.0,0.0
11098,83.0,0.0,120.0,4.0,0.0
11099,65.0,0.0,240.0,7.0,0.0
11100,65.0,0.0,240.0,14.0,0.0
11101,68.0,0.0,240.0,12.0,0.0
11102,83.0,120.0,120.0,10.0,0.0
11103,68.0,85.0,240.0,6.0,0.0
11104,82.0,15.0,120.0,4.0,0.0
11105,82.0,0.0,120.0,10.0,0.0
11106,80.0,0.0,90.0,4.0,0.0
11107,80.0,5.0,90.0,10.0,0.0
11108,65.0,135.0,60.0,14.0,0.0
11109,65.0,0.0,60.0,13.0,0.0
11110,73.0,0.0,60.0,12.0,0.0
11111,73.0,0.0,60.0,11.0,0.0
11112,73.0,0.0,60.0,6.0,0.0
11113,65.0,0.0,60.0,7.0,0.0
11114,73.0,0.0,60.0,5.0,0.0
11115,82.0,0.0,120.0,4.0,0.0
11116,73.0,0.0,120.0,11.0,0.0
11117,66.0,0.0,240.0,14.0,0.0
11118,66.0,85.0,240.0,13.0,0.0
11119,66.0,0.0,120.0,6.0,0.0
11120,66.0,120.0,120.0,12.0,0.0
11121,73.0,0.0,120.0,5.0,0.0
11122,82.0,0.0,120.0,10.0,0.0
11123,66.0,0.0,240.0,7.0,0.0
11124,70.0,0.0,120.0,12.0,0.0
11125,78.0,0.0,120.0,10.0,0.0
11126,75.0,0.0,120.0,11.0,0.0
11127,75.0,15.0,120.0,5.0,0.0
11128,78.0,0.0,120.0,4.0,0.0
11129,70.0,0.0,120.0,6.0,0.0
11130,71.0,0.0,90.0,12.0,0.0
11131,80.0,0.0,90.0,4.0,0.0
11132,71.0,0.0,90.0,6.0,0.0
11133,77.0,5.0,90.0,5.0,0.0
11134,77.0,0.0,90.0,11.0,0.0
11135,80.0,0.0,90.0,10.0,0.0
11136,61.0,0.0,60.0,7.0,0.0
11137,61.0,0.0,60.0,13.0,0.0
11138,61.0,135.0,60.0,14.0,0.0
11139,78.0,0.0,240.0,11.0,0.0
11140,61.0,0.0,120.0,14.0,0.0
11141,73.0,0.0,240.0,6.0,0.0
11142,82.0,0.0,120.0,10.0,0.0
11143,78.0,0.0,240.0,5.0,0.0
11144,82.0,0.0,120.0,4.0,0.0
11145,61.0,100.0,120.0,7.0,0.0
11146,73.0,85.0,240.0,12.0,0.0
11147,61.0,0.0,120.0,13.0,0.0
11148,63.0,0.0,90.0,14.0,0.0
11149,63.0,35.0,90.0,7.0,0.0
11150,83.0,0.0,90.0,10.0,0.0
11151,83.0,0.0,90.0,4.0,0.0
11152,63.0,0.0,90.0,13.0,0.0
11153,80.0,0.0,90.0,10.0,0.0
11154,80.0,5.0,90.0,4.0,0.0
11155,59.0,0.0,90.0,13.0,0.0
11156,59.0,0.0,90.0,7.0,0.0
11157,59.0,0.0,90.0,14.0,0.0
11158,80.0,0.0,60.0,5.0,0.0
11159,77.0,0.0,60.0,12.0,0.0
11160,80.0,45.0,60.0,11.0,0.0
11161,77.0,0.0,60.0,6.0,0.0
11162,68.0,0.0,240.0,6.0,0.0
11163,80.0,0.0,120.0,4.0,0.0
11164,77.0,0.0,30.0,11.0,0.0
11165,59.0,0.0,120.0,7.0,0.0
11166,59.0,30.0,120.0,13.0,0.0
11167,80.0,0.0,120.0,10.0,0.0
11168,77.0,30.0,30.0,5.0,0.0
11169,59.0,0.0,120.0,14.0,0.0
11170,68.0,85.0,240.0,12.0,0.0
11171,78.0,0.0,30.0,5.0,0.0
11172,78.0,30.0,30.0,11.0,0.0
11173,77.0,0.0,30.0,5.0,0.0
11174,77.0,30.0,30.0,11.0,0.0
11175,78.0,0.0,30.0,11.0,0.0
11176,78.0,0.0,30.0,5.0,0.0
11177,61.0,0.0,90.0,13.0,0.0
11178,82.0,20.0,90.0,4.0,0.0
11179,77.0,30.0,30.0,11.0,0.0
11180,61.0,0.0,90.0,14.0,0.0
11181,61.0,0.0,90.0,7.0,0.0
11182,77.0,0.0,30.0,5.0,0.0
11183,82.0,0.0,90.0,10.0,0.0
11184,78.0,30.0,30.0,11.0,0.0
11185,78.0,0.0,30.0,5.0,0.0
11186,75.0,0.0,30.0,5.0,0.0
11187,75.0,10.0,30.0,11.0,0.0
11188,77.0,0.0,30.0,5.0,0.0
11189,77.0,15.0,30.0,11.0,0.0
11190,78.0,0.0,90.0,4.0,0.0
11191,58.0,5.0,90.0,13.0,0.0
11192,58.0,0.0,90.0,14.0,0.0
11193,78.0,0.0,90.0,10.0,0.0
11194,58.0,0.0,90.0,7.0,0.0
11195,73.0,0.0,60.0,5.0,0.0
11196,70.0,0.0,60.0,6.0,0.0
11197,73.0,135.0,60.0,11.0,0.0
11198,70.0,0.0,60.0,12.0,0.0
11199,70.0,0.0,240.0,6.0,0.0
11200,78.0,0.0,240.0,10.0,0.0
11201,78.0,0.0,240.0,4.0,0.0
11202,58.0,0.0,120.0,14.0,0.0
11203,58.0,0.0,120.0,13.0,0.0
11204,73.0,120.0,120.0,5.0,0.0
11205,70.0,85.0,240.0,12.0,0.0
11206,58.0,0.0,120.0,7.0,0.0
11207,73.0,0.0,120.0,11.0,0.0
11208,75.0,0.0,120.0,5.0,0.0
11209,60.0,15.0,120.0,7.0,0.0
11210,75.0,0.0,120.0,11.0,0.0
11211,60.0,0.0,120.0,14.0,0.0
11212,60.0,0.0,120.0,13.0,0.0
11213,61.0,0.0,90.0,14.0,0.0
11214,73.0,0.0,90.0,11.0,0.0
11215,61.0,0.0,90.0,7.0,0.0
11216,61.0,5.0,90.0,13.0,0.0
11217,73.0,0.0,90.0,5.0,0.0
11218,70.0,0.0,60.0,12.0,0.0
11219,78.0,0.0,60.0,4.0,0.0
11220,70.0,0.0,60.0,6.0,0.0
11221,78.0,135.0,60.0,10.0,0.0
11222,66.0,100.0,120.0,6.0,0.0
11223,78.0,85.0,240.0,4.0,0.0
11224,72.0,0.0,120.0,5.0,0.0
11225,78.0,0.0,240.0,10.0,0.0
11226,72.0,0.0,120.0,11.0,0.0
11227,63.0,0.0,120.0,13.0,0.0
11228,63.0,0.0,120.0,7.0,0.0
11229,63.0,0.0,120.0,14.0,0.0
11230,66.0,0.0,120.0,12.0,0.0
11231,65.0,0.0,90.0,7.0,0.0
11232,65.0,0.0,90.0,13.0,0.0
11233,73.0,20.0,90.0,5.0,0.0
11234,68.0,15.0,120.0,6.0,0.0
11235,73.0,0.0,90.0,11.0,0.0
11236,68.0,0.0,120.0,12.0,0.0
11237,65.0,0.0,90.0,14.0,0.0
11238,61.0,5.0,90.0,7.0,0.0
11239,61.0,0.0,90.0,13.0,0.0
11240,70.0,0.0,90.0,6.0,0.0
11241,70.0,0.0,90.0,12.0,0.0
11242,70.0,0.0,90.0,11.0,0.0
11243,61.0,0.0,90.0,14.0,0.0
11244,70.0,0.0,90.0,5.0,0.0
11245,78.0,0.0,60.0,10.0,0.0
11246,78.0,135.0,60.0,4.0,0.0
11247,61.0,0.0,120.0,14.0,0.0
11248,70.0,0.0,240.0,6.0,0.0
11249,78.0,0.0,240.0,10.0,0.0
11250,70.0,0.0,120.0,5.0,0.0
11251,61.0,0.0,120.0,13.0,0.0
11252,70.0,0.0,120.0,11.0,0.0
11253,70.0,85.0,240.0,12.0,0.0
11254,78.0,0.0,240.0,4.0,0.0
11255,61.0,100.0,120.0,7.0,0.0
11256,63.0,0.0,90.0,14.0,0.0
11257,63.0,0.0,90.0,7.0,0.0
11258,72.0,0.0,90.0,5.0,0.0
11259,63.0,35.0,90.0,13.0,0.0
11260,72.0,0.0,90.0,11.0,0.0
11261,60.0,0.0,90.0,7.0,0.0
11262,60.0,0.0,90.0,14.0,0.0
11263,60.0,0.0,90.0,13.0,0.0
11264,68.0,0.0,90.0,5.0,0.0
11265,68.0,5.0,90.0,11.0,0.0
11266,75.0,135.0,60.0,12.0,0.0
11267,78.0,0.0,60.0,10.0,0.0
11268,78.0,0.0,60.0,4.0,0.0
11269,75.0,0.0,60.0,6.0,0.0
11270,78.0,120.0,120.0,10.0,0.0
11271,75.0,120.0,360.0,12.0,0.0
11272,60.0,85.0,240.0,13.0,0.0
11273,75.0,0.0,360.0,6.0,0.0
11274,68.0,0.0,360.0,5.0,0.0
11275,60.0,0.0,240.0,14.0,0.0
11276,68.0,0.0,360.0,11.0,0.0
11277,78.0,0.0,120.0,4.0,0.0
11278,60.0,0.0,240.0,7.0,0.0
11279,75.0,0.0,120.0,4.0,0.0
11280,75.0,15.0,120.0,10.0,0.0
11281,77.0,5.0,90.0,10.0,0.0
11282,77.0,0.0,90.0,4.0,0.0
11283,60.0,0.0,60.0,7.0,0.0
11284,60.0,0.0,60.0,13.0,0.0
11285,60.0,15.0,60.0,14.0,0.0
11286,78.0,100.0,120.0,4.0,0.0
11287,60.0,0.0,240.0,14.0,0.0
11288,60.0,0.0,240.0,7.0,0.0
11289,78.0,0.0,120.0,10.0,0.0
11290,60.0,85.0,240.0,13.0,0.0
11291,87.0,0.0,90.0,10.0,0.0
11292,87.0,35.0,90.0,4.0,0.0
11293,80.0,0.0,90.0,11.0,0.0
11294,77.0,5.0,90.0,10.0,0.0
11295,68.0,0.0,90.0,6.0,0.0
11296,80.0,0.0,90.0,5.0,0.0
11297,77.0,0.0,90.0,4.0,0.0
11298,68.0,0.0,90.0,12.0,0.0
11299,60.0,135.0,60.0,14.0,0.0
11300,60.0,0.0,60.0,7.0,0.0
11301,60.0,0.0,60.0,13.0,0.0
11302,60.0,0.0,240.0,13.0,0.0
11303,75.0,85.0,240.0,11.0,0.0
11304,78.0,120.0,120.0,10.0,0.0
11305,60.0,0.0,240.0,14.0,0.0
11306,75.0,0.0,240.0,5.0,0.0
11307,68.0,0.0,240.0,6.0,0.0
11308,68.0,0.0,240.0,12.0,0.0
11309,60.0,0.0,240.0,7.0,0.0
11310,78.0,0.0,120.0,4.0,0.0
11311,77.0,0.0,120.0,10.0,0.0
11312,77.0,15.0,120.0,4.0,0.0
11313,75.0,5.0,90.0,4.0,0.0
11314,75.0,0.0,90.0,10.0,0.0
11315,68.0,0.0,60.0,6.0,0.0
11316,75.0,0.0,60.0,5.0,0.0
11317,68.0,0.0,60.0,12.0,0.0
11318,60.0,0.0,60.0,14.0,0.0
11319,60.0,0.0,60.0,7.0,0.0
11320,60.0,135.0,60.0,13.0,0.0
11321,75.0,0.0,60.0,11.0,0.0
11322,73.0,120.0,360.0,5.0,0.0
11323,61.0,0.0,240.0,7.0,0.0
11324,77.0,0.0,120.0,10.0,0.0
11325,61.0,85.0,240.0,14.0,0.0
11326,77.0,120.0,120.0,4.0,0.0
11327,61.0,0.0,240.0,13.0,0.0
11328,68.0,0.0,360.0,6.0,0.0
11329,68.0,0.0,360.0,12.0,0.0
11330,73.0,0.0,360.0,11.0,0.0
11331,73.0,0.0,120.0,4.0,0.0
11332,73.0,15.0,120.0,10.0,0.0
11333,75.0,0.0,90.0,4.0,0.0
11334,75.0,5.0,90.0,10.0,0.0
11335,59.0,0.0,60.0,13.0,0.0
11336,59.0,0.0,60.0,7.0,0.0
11337,59.0,15.0,60.0,14.0,0.0
11338,76.0,0.0,120.0,4.0,0.0
11339,58.0,85.0,240.0,7.0,0.0
11340,76.0,100.0,120.0,10.0,0.0
11341,58.0,0.0,240.0,13.0,0.0
11342,58.0,0.0,240.0,14.0,0.0
11343,85.0,0.0,90.0,10.0,0.0
11344,85.0,35.0,90.0,4.0,0.0
11345,78.0,5.0,90.0,11.0,0.0
11346,75.0,0.0,90.0,10.0,0.0
11347,66.0,0.0,90.0,12.0,0.0
11348,66.0,0.0,90.0,6.0,0.0
11349,78.0,0.0,90.0,5.0,0.0
11350,75.0,0.0,90.0,4.0,0.0
11351,58.0,0.0,60.0,14.0,0.0
11352,58.0,0.0,60.0,13.0,0.0
11353,58.0,135.0,60.0,7.0,0.0
11354,73.0,0.0,240.0,5.0,0.0
11355,76.0,120.0,120.0,4.0,0.0
11356,76.0,0.0,120.0,10.0,0.0
11357,73.0,0.0,240.0,11.0,0.0
11358,58.0,0.0,240.0,14.0,0.0
11359,66.0,85.0,240.0,6.0,0.0
11360,58.0,0.0,240.0,7.0,0.0
11361,66.0,0.0,240.0,12.0,0.0
11362,58.0,0.0,240.0,13.0,0.0
11363,75.0,0.0,120.0,10.0,0.0
11364,75.0,15.0,120.0,4.0,0.0
11365,73.0,0.0,90.0,10.0,0.0
11366,73.0,5.0,90.0,4.0,0.0
11367,58.0,0.0,60.0,13.0,0.0
11368,58.0,135.0,60.0,14.0,0.0
11369,66.0,0.0,60.0,6.0,0.0
11370,58.0,0.0,60.0,7.0,0.0
11371,73.0,0.0,60.0,11.0,0.0
11372,73.0,0.0,60.0,5.0,0.0
11373,66.0,0.0,60.0,12.0,0.0
11374,66.0,0.0,120.0,6.0,0.0
11375,75.0,0.0,240.0,10.0,0.0
11376,75.0,85.0,240.0,4.0,0.0
11377,59.0,0.0,120.0,7.0,0.0
11378,71.0,120.0,120.0,11.0,0.0
11379,66.0,0.0,120.0,12.0,0.0
11380,59.0,0.0,120.0,13.0,0.0
11381,59.0,0.0,120.0,14.0,0.0
11382,71.0,0.0,120.0,5.0,0.0
11383,56.0,0.0,120.0,13.0,0.0
11384,56.0,0.0,120.0,14.0,0.0
11385,56.0,15.0,120.0,7.0,0.0
11386,58.0,0.0,90.0,13.0,0.0
11387,58.0,0.0,90.0,14.0,0.0
11388,58.0,5.0,90.0,7.0,0.0
11389,87.0,135.0,60.0,4.0,0.0
11390,87.0,0.0,60.0,10.0,0.0
11391,68.0,0.0,120.0,6.0,0.0
11392,87.0,0.0,120.0,10.0,0.0
11393,77.0,0.0,120.0,11.0,0.0
11394,59.0,0.0,120.0,7.0,0.0
11395,59.0,0.0,120.0,13.0,0.0
11396,77.0,0.0,120.0,5.0,0.0
11397,87.0,0.0,120.0,4.0,0.0
11398,68.0,100.0,120.0,12.0,0.0
11399,59.0,0.0,120.0,14.0,0.0
11400,61.0,0.0,90.0,7.0,0.0
11401,61.0,0.0,90.0,14.0,0.0
11402,88.0,0.0,90.0,4.0,0.0
11403,88.0,0.0,90.0,10.0,0.0
11404,61.0,120.0,90.0,13.0,0.0
11405,85.0,0.0,90.0,10.0,0.0
11406,58.0,140.0,90.0,14.0,0.0
11407,85.0,0.0,90.0,4.0,0.0
11408,58.0,0.0,90.0,7.0,0.0
11409,58.0,0.0,90.0,13.0,0.0
11410,70.0,0.0,120.0,12.0,0.0
11411,58.0,0.0,120.0,14.0,0.0
11412,85.0,0.0,120.0,10.0,0.0
11413,85.0,0.0,120.0,4.0,0.0
11414,58.0,0.0,120.0,13.0,0.0
11415,70.0,0.0,120.0,6.0,0.0
11416,79.0,0.0,120.0,5.0,0.0
11417,58.0,100.0,120.0,7.0,0.0
11418,79.0,0.0,120.0,11.0,0.0
11419,59.0,0.0,90.0,13.0,0.0
11420,87.0,120.0,90.0,4.0,0.0
11421,59.0,0.0,90.0,14.0,0.0
11422,59.0,0.0,90.0,7.0,0.0
11423,87.0,0.0,90.0,10.0,0.0
11424,83.0,140.0,90.0,4.0,0.0
11425,56.0,0.0,90.0,7.0,0.0
11426,56.0,0.0,90.0,14.0,0.0
11427,83.0,0.0,90.0,10.0,0.0
11428,56.0,0.0,90.0,13.0,0.0
11429,80.0,0.0,240.0,5.0,0.0
11430,56.0,0.0,120.0,14.0,0.0
11431,75.0,0.0,120.0,6.0,0.0
11432,56.0,0.0,120.0,13.0,0.0
11433,83.0,0.0,120.0,4.0,0.0
11434,63.0,0.0,120.0,12.0,0.0
11435,83.0,120.0,120.0,10.0,0.0
11436,56.0,85.0,240.0,7.0,0.0
11437,80.0,0.0,240.0,11.0,0.0
11438,80.0,0.0,120.0,4.0,0.0
11439,80.0,15.0,120.0,10.0,0.0
11440,82.0,5.0,90.0,10.0,0.0
11441,82.0,0.0,90.0,4.0,0.0
11442,80.0,0.0,60.0,11.0,0.0
11443,56.0,135.0,60.0,7.0,0.0
11444,80.0,0.0,60.0,5.0,0.0
11445,80.0,0.0,120.0,11.0,0.0
11446,44.0,0.0,120.0,13.0,0.0
11447,44.0,0.0,120.0,14.0,0.0
11448,75.0,0.0,120.0,6.0,0.0
11449,84.0,0.0,120.0,4.0,0.0
11450,75.0,100.0,120.0,12.0,0.0
11451,80.0,0.0,120.0,5.0,0.0
11452,56.0,85.0,240.0,7.0,0.0
11453,84.0,0.0,120.0,10.0,0.0
11454,85.0,35.0,90.0,10.0,0.0
11455,82.0,0.0,90.0,11.0,0.0
11456,82.0,0.0,90.0,5.0,0.0
11457,85.0,0.0,90.0,4.0,0.0
11458,78.0,5.0,90.0,5.0,0.0
11459,87.0,0.0,90.0,10.0,0.0
11460,78.0,0.0,90.0,11.0,0.0
11461,87.0,0.0,90.0,4.0,0.0
11462,56.0,135.0,60.0,7.0,0.0
11463,56.0,0.0,120.0,7.0,0.0
11464,56.0,100.0,120.0,13.0,0.0
11465,56.0,0.0,120.0,14.0,0.0
11466,80.0,0.0,240.0,4.0,0.0
11467,80.0,85.0,240.0,10.0,0.0
11468,72.0,0.0,120.0,12.0,0.0
11469,78.0,0.0,120.0,5.0,0.0
11470,72.0,0.0,120.0,6.0,0.0
11471,78.0,0.0,120.0,11.0,0.0
11472,80.0,0.0,90.0,5.0,0.0
11473,80.0,35.0,90.0,11.0,0.0
11474,77.0,0.0,90.0,5.0,0.0
11475,77.0,5.0,90.0,11.0,0.0
11476,84.0,0.0,60.0,4.0,0.0
11477,84.0,135.0,60.0,10.0,0.0
11478,77.0,0.0,120.0,11.0,0.0
11479,61.0,0.0,120.0,14.0,0.0
11480,61.0,0.0,120.0,13.0,0.0
11481,77.0,0.0,120.0,5.0,0.0
11482,73.0,0.0,120.0,10.0,0.0
11483,68.0,0.0,120.0,12.0,0.0
11484,68.0,0.0,120.0,6.0,0.0
11485,73.0,120.0,120.0,4.0,0.0
11486,73.0,0.0,120.0,5.0,0.0
11487,73.0,0.0,120.0,11.0,0.0
11488,77.0,0.0,120.0,10.0,0.0
11489,77.0,100.0,120.0,4.0,0.0
11490,75.0,0.0,90.0,5.0,0.0
11491,75.0,5.0,90.0,11.0,0.0
11492,80.0,0.0,90.0,10.0,0.0
11493,80.0,0.0,90.0,4.0,0.0
11494,49.0,135.0,60.0,7.0,0.0
11495,73.0,0.0,120.0,2.0,0.0
11496,85.0,100.0,120.0,10.0,0.0
11497,49.0,85.0,240.0,7.0,0.0
11498,80.0,0.0,120.0,1.0,0.0
11499,77.0,0.0,120.0,11.0,0.0
11500,68.0,0.0,120.0,12.0,0.0
11501,80.0,0.0,120.0,6.0,0.0
11502,85.0,0.0,120.0,0.0,0.0
11503,77.0,0.0,120.0,5.0,0.0
11504,49.0,0.0,120.0,14.0,0.0
11505,49.0,0.0,120.0,13.0,0.0
11506,49.0,0.0,120.0,3.0,0.0
11507,85.0,0.0,120.0,4.0,0.0
11508,78.0,0.0,90.0,5.0,0.0
11509,78.0,0.0,90.0,11.0,0.0
11510,87.0,35.0,90.0,4.0,0.0
11511,87.0,0.0,90.0,10.0,0.0
11512,83.0,5.0,90.0,10.0,0.0
11513,80.0,0.0,90.0,5.0,0.0
11514,83.0,0.0,90.0,4.0,0.0
11515,80.0,0.0,90.0,11.0,0.0
11516,49.0,135.0,60.0,7.0,0.0
11517,49.0,0.0,120.0,3.0,0.0
11518,49.0,0.0,120.0,7.0,0.0
11519,61.0,0.0,120.0,14.0,0.0
11520,73.0,0.0,120.0,2.0,0.0
11521,83.0,100.0,120.0,4.0,0.0
11522,80.0,0.0,120.0,1.0,0.0
11523,77.0,0.0,120.0,6.0,0.0
11524,73.0,85.0,240.0,5.0,0.0
11525,83.0,0.0,120.0,0.0,0.0
11526,61.0,0.0,120.0,13.0,0.0
11527,68.0,0.0,120.0,12.0,0.0
11528,83.0,0.0,120.0,10.0,0.0
11529,73.0,0.0,240.0,11.0,0.0
11530,85.0,0.0,90.0,10.0,0.0
11531,85.0,35.0,90.0,4.0,0.0
11532,82.0,0.0,90.0,10.0,0.0
11533,82.0,5.0,90.0,4.0,0.0
11534,77.0,0.0,60.0,11.0,0.0
11535,77.0,135.0,60.0,5.0,0.0
11536,66.0,0.0,120.0,5.0,0.0
11537,82.0,0.0,120.0,0.0,0.0
11538,66.0,0.0,120.0,13.0,0.0
11539,73.0,0.0,120.0,6.0,0.0
11540,73.0,0.0,120.0,2.0,0.0
11541,78.0,120.0,120.0,1.0,0.0
11542,54.0,0.0,120.0,3.0,0.0
11543,66.0,0.0,120.0,11.0,0.0
11544,82.0,0.0,120.0,10.0,0.0
11545,66.0,0.0,120.0,12.0,0.0
11546,82.0,0.0,120.0,4.0,0.0
11547,66.0,0.0,120.0,14.0,0.0
11548,78.0,100.0,120.0,4.0,0.0
11549,78.0,0.0,120.0,10.0,0.0
11550,70.0,0.0,120.0,5.0,0.0
11551,70.0,0.0,120.0,11.0,0.0
11552,80.0,0.0,90.0,4.0,0.0
11553,73.0,0.0,90.0,11.0,0.0
11554,80.0,5.0,90.0,10.0,0.0
11555,73.0,0.0,90.0,5.0,0.0
11556,54.0,135.0,60.0,7.0,0.0
11557,73.0,0.0,120.0,6.0,0.0
11558,82.0,0.0,120.0,10.0,0.0
11559,42.0,0.0,120.0,14.0,0.0
11560,78.0,0.0,120.0,5.0,0.0
11561,78.0,0.0,120.0,1.0,0.0
11562,42.0,0.0,120.0,13.0,0.0
11563,82.0,0.0,120.0,0.0,0.0
11564,82.0,0.0,120.0,4.0,0.0
11565,78.0,100.0,120.0,11.0,0.0
11566,54.0,85.0,240.0,7.0,0.0
11567,73.0,0.0,120.0,12.0,0.0
11568,83.0,0.0,90.0,10.0,0.0
11569,83.0,0.0,90.0,4.0,0.0
11570,80.0,0.0,90.0,11.0,0.0
11571,80.0,35.0,90.0,5.0,0.0
11572,85.0,0.0,90.0,4.0,0.0
11573,85.0,5.0,90.0,10.0,0.0
11574,76.0,0.0,90.0,11.0,0.0
11575,76.0,0.0,90.0,5.0,0.0
11576,54.0,135.0,60.0,7.0,0.0
11577,76.0,0.0,120.0,5.0,0.0
11578,70.0,0.0,120.0,12.0,0.0
11579,54.0,100.0,120.0,14.0,0.0
11580,78.0,0.0,240.0,10.0,0.0
11581,82.0,0.0,120.0,1.0,0.0
11582,54.0,0.0,120.0,7.0,0.0
11583,70.0,0.0,120.0,6.0,0.0
11584,78.0,85.0,240.0,4.0,0.0
11585,85.0,0.0,120.0,0.0,0.0
11586,76.0,0.0,120.0,11.0,0.0
11587,54.0,0.0,120.0,13.0,0.0
11588,78.0,35.0,90.0,5.0,0.0
11589,78.0,0.0,90.0,11.0,0.0
11590,75.0,0.0,90.0,11.0,0.0
11591,75.0,5.0,90.0,5.0,0.0
11592,82.0,0.0,60.0,10.0,0.0
11593,82.0,135.0,60.0,4.0,0.0
11594,59.0,0.0,120.0,13.0,0.0
11595,66.0,0.0,120.0,6.0,0.0
11596,75.0,0.0,120.0,5.0,0.0
11597,83.0,0.0,120.0,1.0,0.0
11598,87.0,0.0,120.0,0.0,0.0
11599,71.0,0.0,120.0,10.0,0.0
11600,71.0,0.0,120.0,4.0,0.0
11601,75.0,0.0,120.0,11.0,0.0
11602,59.0,120.0,120.0,14.0,0.0
11603,66.0,0.0,120.0,12.0,0.0
11604,75.0,100.0,120.0,10.0,0.0
11605,71.0,0.0,120.0,11.0,0.0
11606,71.0,0.0,120.0,5.0,0.0
11607,75.0,0.0,120.0,4.0,0.0
11608,78.0,0.0,90.0,10.0,0.0
11609,75.0,5.0,90.0,5.0,0.0
11610,75.0,0.0,90.0,11.0,0.0
11611,78.0,0.0,90.0,4.0,0.0
11612,59.0,135.0,60.0,7.0,0.0
11613,83.0,0.0,120.0,4.0,0.0
11614,56.0,85.0,240.0,7.0,0.0
11615,80.0,0.0,120.0,1.0,0.0
11616,80.0,0.0,120.0,5.0,0.0
11617,83.0,0.0,120.0,0.0,0.0
11618,80.0,100.0,120.0,11.0,0.0
11619,83.0,0.0,120.0,10.0,0.0
11620,82.0,0.0,90.0,11.0,0.0
11621,82.0,0.0,90.0,5.0,0.0
11622,85.0,35.0,90.0,10.0,0.0
11623,85.0,0.0,90.0,4.0,0.0
11624,78.0,0.0,90.0,11.0,0.0
11625,82.0,0.0,90.0,4.0,0.0
11626,82.0,0.0,90.0,10.0,0.0
11627,78.0,5.0,90.0,5.0,0.0
11628,71.0,0.0,60.0,12.0,0.0
11629,56.0,0.0,60.0,14.0,0.0
11630,56.0,135.0,60.0,7.0,0.0
11631,56.0,0.0,60.0,13.0,0.0
11632,71.0,0.0,60.0,6.0,0.0
11633,73.0,85.0,240.0,12.0,0.0
11634,73.0,0.0,240.0,6.0,0.0
11635,58.0,0.0,240.0,7.0,0.0
11636,78.0,100.0,120.0,1.0,0.0
11637,78.0,0.0,120.0,5.0,0.0
11638,58.0,0.0,240.0,14.0,0.0
11639,58.0,0.0,240.0,13.0,0.0
11640,82.0,0.0,120.0,0.0,0.0
11641,78.0,0.0,120.0,11.0,0.0
11642,82.0,0.0,120.0,4.0,0.0
11643,82.0,0.0,120.0,10.0,0.0
11644,83.0,0.0,90.0,10.0,0.0
11645,83.0,35.0,90.0,4.0,0.0
11646,80.0,0.0,90.0,5.0,0.0
11647,80.0,0.0,90.0,11.0,0.0
11648,77.0,0.0,90.0,11.0,0.0
11649,80.0,5.0,90.0,10.0,0.0
11650,77.0,0.0,90.0,5.0,0.0
11651,80.0,0.0,90.0,4.0,0.0
11652,59.0,0.0,60.0,14.0,0.0
11653,59.0,0.0,60.0,13.0,0.0
11654,68.0,0.0,60.0,12.0,0.0
11655,68.0,0.0,60.0,6.0,0.0
11656,59.0,135.0,60.0,7.0,0.0
11657,61.0,0.0,120.0,13.0,0.0
11658,61.0,0.0,120.0,14.0,0.0
11659,77.0,120.0,120.0,5.0,0.0
11660,61.0,85.0,240.0,7.0,0.0
11661,80.0,0.0,120.0,4.0,0.0
11662,73.0,0.0,120.0,6.0,0.0
11663,80.0,0.0,120.0,0.0,0.0
11664,73.0,0.0,120.0,12.0,0.0
11665,77.0,0.0,120.0,11.0,0.0
11666,73.0,0.0,120.0,1.0,0.0
11667,80.0,0.0,120.0,10.0,0.0
11668,82.0,0.0,120.0,4.0,0.0
11669,82.0,15.0,120.0,10.0,0.0
11670,78.0,0.0,120.0,11.0,0.0
11671,78.0,0.0,120.0,5.0,0.0
11672,80.0,5.0,90.0,5.0,0.0
11673,83.0,0.0,90.0,10.0,0.0
11674,83.0,0.0,90.0,4.0,0.0
11675,80.0,0.0,90.0,11.0,0.0
11676,59.0,135.0,60.0,7.0,0.0
11677,85.0,0.0,120.0,4.0,0.0
11678,82.0,100.0,120.0,1.0,0.0
11679,82.0,0.0,120.0,5.0,0.0
11680,85.0,0.0,120.0,10.0,0.0
11681,58.0,85.0,240.0,7.0,0.0
11682,82.0,0.0,120.0,11.0,0.0
11683,85.0,0.0,120.0,0.0,0.0
11684,87.0,0.0,90.0,4.0,0.0
11685,87.0,0.0,90.0,10.0,0.0
11686,83.0,35.0,90.0,5.0,0.0
11687,83.0,0.0,90.0,11.0,0.0
11688,83.0,0.0,90.0,10.0,0.0
11689,80.0,0.0,90.0,5.0,0.0
11690,83.0,5.0,90.0,4.0,0.0
11691,80.0,0.0,90.0,11.0,0.0
11692,58.0,0.0,60.0,7.0,0.0
11693,58.0,0.0,60.0,14.0,0.0
11694,58.0,135.0,60.0,13.0,0.0
11695,73.0,0.0,60.0,6.0,0.0
11696,73.0,0.0,60.0,12.0,0.0
11697,83.0,100.0,120.0,10.0,0.0
11698,80.0,0.0,120.0,1.0,0.0
11699,59.0,0.0,240.0,7.0,0.0
11700,80.0,0.0,120.0,11.0,0.0
11701,75.0,0.0,240.0,6.0,0.0
11702,75.0,85.0,240.0,12.0,0.0
11703,83.0,0.0,120.0,0.0,0.0
11704,80.0,0.0,120.0,5.0,0.0
11705,59.0,0.0,240.0,14.0,0.0
11706,83.0,0.0,120.0,4.0,0.0
11707,59.0,0.0,240.0,13.0,0.0
11708,85.0,0.0,90.0,10.0,0.0
11709,82.0,0.0,90.0,5.0,0.0
11710,82.0,0.0,90.0,11.0,0.0
11711,85.0,35.0,90.0,4.0,0.0
11712,78.0,5.0,90.0,5.0,0.0
11713,78.0,0.0,90.0,11.0,0.0
11714,82.0,0.0,90.0,10.0,0.0
11715,82.0,0.0,90.0,4.0,0.0
11716,70.0,0.0,60.0,6.0,0.0
11717,61.0,135.0,60.0,13.0,0.0
11718,70.0,0.0,60.0,12.0,0.0
11719,61.0,0.0,60.0,7.0,0.0
11720,61.0,0.0,60.0,14.0,0.0
11721,78.0,0.0,120.0,5.0,0.0
11722,78.0,0.0,120.0,11.0,0.0
11723,78.0,0.0,120.0,1.0,0.0
11724,82.0,0.0,120.0,10.0,0.0
11725,63.0,0.0,120.0,13.0,0.0
11726,82.0,0.0,120.0,0.0,0.0
11727,82.0,0.0,120.0,4.0,0.0
11728,75.0,0.0,120.0,12.0,0.0
11729,63.0,120.0,120.0,14.0,0.0
11730,63.0,0.0,120.0,7.0,0.0
11731,75.0,0.0,120.0,6.0,0.0
11732,83.0,100.0,120.0,4.0,0.0
11733,83.0,0.0,120.0,10.0,0.0
11734,85.0,140.0,90.0,10.0,0.0
11735,85.0,0.0,90.0,4.0,0.0
11736,87.0,0.0,120.0,4.0,0.0
11737,59.0,0.0,120.0,13.0,0.0
11738,80.0,0.0,120.0,1.0,0.0
11739,87.0,0.0,120.0,0.0,0.0
11740,87.0,100.0,120.0,10.0,0.0
11741,59.0,0.0,120.0,14.0,0.0
11742,59.0,0.0,120.0,7.0,0.0
11743,88.0,0.0,90.0,4.0,0.0
11744,88.0,120.0,90.0,10.0,0.0
11745,85.0,0.0,90.0,4.0,0.0
11746,85.0,5.0,90.0,10.0,0.0
11747,68.0,0.0,60.0,12.0,0.0
11748,77.0,0.0,60.0,5.0,0.0
11749,68.0,0.0,60.0,6.0,0.0
11750,77.0,135.0,60.0,11.0,0.0
11751,77.0,0.0,240.0,5.0,0.0
11752,70.0,0.0,240.0,12.0,0.0
11753,82.0,0.0,120.0,1.0,0.0
11754,85.0,0.0,120.0,10.0,0.0
11755,77.0,85.0,240.0,11.0,0.0
11756,85.0,0.0,120.0,4.0,0.0
11757,85.0,0.0,120.0,0.0,0.0
11758,73.0,0.0,240.0,6.0,0.0
11759,58.0,0.0,120.0,14.0,0.0
11760,58.0,0.0,120.0,7.0,0.0
11761,58.0,100.0,120.0,13.0,0.0
11762,87.0,35.0,90.0,10.0,0.0
11763,87.0,0.0,90.0,4.0,0.0
11764,83.0,0.0,90.0,4.0,0.0
11765,83.0,5.0,90.0,10.0,0.0
11766,75.0,135.0,60.0,6.0,0.0
11767,79.0,0.0,60.0,5.0,0.0
11768,70.0,0.0,60.0,12.0,0.0
11769,79.0,0.0,60.0,11.0,0.0
11770,83.0,0.0,240.0,4.0,0.0
11771,56.0,120.0,120.0,14.0,0.0
11772,56.0,0.0,120.0,7.0,0.0
11773,56.0,0.0,120.0,13.0,0.0
11774,83.0,0.0,240.0,0.0,0.0
11775,83.0,0.0,240.0,10.0,0.0
11776,75.0,0.0,240.0,6.0,0.0
11777,63.0,0.0,240.0,12.0,0.0
11778,87.0,0.0,240.0,1.0,0.0
11779,80.0,85.0,240.0,11.0,0.0
11780,80.0,0.0,240.0,5.0,0.0
11781,59.0,0.0,120.0,13.0,0.0
11782,59.0,0.0,120.0,7.0,0.0
11783,59.0,15.0,120.0,14.0,0.0
11784,63.0,5.0,90.0,7.0,0.0
11785,63.0,0.0,90.0,13.0,0.0
11786,63.0,0.0,90.0,14.0,0.0
11787,83.0,0.0,60.0,10.0,0.0
11788,83.0,0.0,60.0,1.0,0.0
11789,80.0,135.0,60.0,11.0,0.0
11790,75.0,0.0,60.0,6.0,0.0
11791,80.0,0.0,60.0,5.0,0.0
11792,80.0,0.0,60.0,0.0,0.0
11793,75.0,0.0,60.0,12.0,0.0
11794,83.0,0.0,60.0,4.0,0.0
11795,80.0,85.0,240.0,11.0,0.0
11796,68.0,100.0,120.0,13.0,0.0
11797,83.0,0.0,810.0,0.0,0.0
11798,83.0,0.0,240.0,10.0,0.0
11799,68.0,0.0,120.0,14.0,0.0
11800,75.0,0.0,240.0,6.0,0.0
11801,75.0,0.0,240.0,12.0,0.0
11802,80.0,0.0,240.0,5.0,0.0
11803,80.0,20.0,810.0,1.0,0.0
11804,83.0,0.0,240.0,4.0,0.0
11805,68.0,0.0,120.0,7.0,0.0
11806,70.0,0.0,90.0,7.0,0.0
11807,70.0,0.0,90.0,14.0,0.0
11808,70.0,35.0,90.0,13.0,0.0
11809,66.0,0.0,90.0,13.0,0.0
11810,66.0,5.0,90.0,7.0,0.0
11811,66.0,0.0,90.0,14.0,0.0
11812,80.0,0.0,60.0,11.0,0.0
11813,80.0,135.0,60.0,5.0,0.0
11814,75.0,0.0,60.0,6.0,0.0
11815,75.0,0.0,60.0,12.0,0.0
11816,83.0,0.0,60.0,4.0,0.0
11817,83.0,0.0,60.0,10.0,0.0
11818,80.0,0.0,240.0,5.0,0.0
11819,83.0,0.0,240.0,4.0,0.0
11820,75.0,85.0,240.0,12.0,0.0
11821,66.0,0.0,120.0,14.0,0.0
11822,66.0,0.0,120.0,7.0,0.0
11823,75.0,0.0,240.0,6.0,0.0
11824,66.0,100.0,120.0,13.0,0.0
11825,83.0,0.0,240.0,10.0,0.0
11826,80.0,0.0,240.0,11.0,0.0
11827,68.0,0.0,90.0,14.0,0.0
11828,68.0,0.0,90.0,7.0,0.0
11829,68.0,35.0,90.0,13.0,0.0
11830,65.0,5.0,90.0,7.0,0.0
11831,65.0,0.0,90.0,13.0,0.0
11832,65.0,0.0,90.0,14.0,0.0
11833,75.0,115.0,60.0,6.0,0.0
11834,83.0,0.0,60.0,10.0,0.0
11835,75.0,0.0,60.0,12.0,0.0
11836,80.0,0.0,60.0,11.0,0.0
11837,83.0,0.0,60.0,4.0,0.0
11838,80.0,0.0,60.0,5.0,0.0
11839,83.0,0.0,120.0,4.0,0.0
11840,73.0,0.0,240.0,12.0,0.0
11841,80.0,0.0,120.0,5.0,0.0
11842,83.0,100.0,120.0,10.0,0.0
11843,73.0,85.0,240.0,6.0,0.0
11844,65.0,0.0,120.0,13.0,0.0
11845,65.0,0.0,120.0,14.0,0.0
11846,80.0,0.0,120.0,11.0,0.0
11847,65.0,0.0,120.0,7.0,0.0
11848,77.0,0.0,120.0,11.0,0.0
11849,80.0,15.0,120.0,10.0,0.0
11850,73.0,20.0,90.0,1.0,0.0
11851,77.0,0.0,120.0,5.0,0.0
11852,80.0,0.0,120.0,4.0,0.0
11853,80.0,0.0,90.0,0.0,0.0
11854,78.0,0.0,90.0,1.0,0.0
11855,78.0,0.0,90.0,5.0,0.0
11856,78.0,0.0,90.0,11.0,0.0
11857,82.0,0.0,90.0,4.0,0.0
11858,82.0,0.0,90.0,10.0,0.0
11859,82.0,5.0,90.0,0.0,0.0
11860,73.0,0.0,60.0,6.0,0.0
11861,73.0,0.0,60.0,12.0,0.0
11862,73.0,0.0,60.0,2.0,0.0
11863,49.0,115.0,60.0,3.0,0.0
11864,80.0,0.0,90.0,1.0,0.0
11865,73.0,0.0,240.0,2.0,0.0
11866,49.0,0.0,240.0,3.0,0.0
11867,83.0,0.0,120.0,10.0,0.0
11868,83.0,20.0,90.0,0.0,0.0
11869,73.0,85.0,240.0,12.0,0.0
11870,80.0,100.0,120.0,5.0,0.0
11871,80.0,0.0,120.0,11.0,0.0
11872,73.0,0.0,240.0,6.0,0.0
11873,83.0,0.0,120.0,4.0,0.0
11874,77.0,0.0,90.0,5.0,0.0
11875,85.0,0.0,90.0,4.0,0.0
11876,92.0,35.0,90.0,10.0,0.0
11877,77.0,0.0,90.0,11.0,0.0
11878,85.0,0.0,90.0,0.0,0.0
11879,73.0,0.0,90.0,1.0,0.0
11880,78.0,0.0,90.0,1.0,0.0
11881,78.0,0.0,90.0,11.0,0.0
11882,82.0,0.0,90.0,10.0,0.0
11883,78.0,0.0,90.0,5.0,0.0
11884,82.0,5.0,90.0,4.0,0.0
11885,82.0,0.0,90.0,0.0,0.0
11886,73.0,0.0,60.0,6.0,0.0
11887,73.0,0.0,60.0,12.0,0.0
11888,73.0,0.0,60.0,2.0,0.0
11889,61.0,0.0,60.0,13.0,0.0
11890,61.0,0.0,60.0,14.0,0.0
11891,61.0,115.0,60.0,7.0,0.0
11892,49.0,0.0,60.0,3.0,0.0
11893,83.0,0.0,120.0,4.0,0.0
11894,80.0,0.0,120.0,11.0,0.0
11895,73.0,0.0,240.0,6.0,0.0
11896,80.0,0.0,120.0,5.0,0.0
11897,83.0,100.0,120.0,10.0,0.0
11898,83.0,20.0,90.0,0.0,0.0
11899,49.0,0.0,240.0,3.0,0.0
11900,58.0,0.0,240.0,7.0,0.0
11901,73.0,0.0,240.0,2.0,0.0
11902,58.0,0.0,240.0,14.0,0.0
11903,73.0,0.0,240.0,12.0,0.0
11904,58.0,85.0,240.0,13.0,0.0
11905,80.0,0.0,90.0,1.0,0.0
11906,82.0,20.0,90.0,0.0,0.0
11907,78.0,0.0,90.0,1.0,0.0
11908,78.0,15.0,120.0,11.0,0.0
11909,82.0,0.0,120.0,10.0,0.0
11910,82.0,0.0,120.0,4.0,0.0
11911,78.0,0.0,120.0,5.0,0.0
11912,77.0,0.0,90.0,1.0,0.0
11913,77.0,0.0,90.0,5.0,0.0
11914,80.0,5.0,90.0,4.0,0.0
11915,80.0,0.0,90.0,0.0,0.0
11916,80.0,0.0,90.0,10.0,0.0
11917,77.0,0.0,90.0,11.0,0.0
11918,73.0,115.0,60.0,2.0,0.0
11919,61.0,0.0,60.0,13.0,0.0
11920,49.0,0.0,60.0,3.0,0.0
11921,73.0,0.0,60.0,12.0,0.0
11922,73.0,0.0,60.0,6.0,0.0
11923,61.0,0.0,60.0,14.0,0.0
11924,61.0,0.0,60.0,7.0,0.0
11925,54.0,0.0,240.0,13.0,0.0
11926,73.0,85.0,240.0,2.0,0.0
11927,78.0,0.0,240.0,1.0,0.0
11928,54.0,0.0,240.0,7.0,0.0
11929,54.0,0.0,240.0,14.0,0.0
11930,73.0,0.0,240.0,12.0,0.0
11931,54.0,0.0,120.0,3.0,0.0
11932,78.0,0.0,240.0,5.0,0.0
11933,82.0,0.0,120.0,10.0,0.0
11934,82.0,100.0,120.0,4.0,0.0
11935,73.0,0.0,240.0,6.0,0.0
11936,78.0,0.0,240.0,11.0,0.0
11937,82.0,20.0,90.0,0.0,0.0
11938,85.0,15.0,120.0,10.0,0.0
11939,85.0,0.0,120.0,4.0,0.0
11940,85.0,20.0,90.0,0.0,0.0
11941,83.0,5.0,90.0,0.0,0.0
11942,83.0,0.0,90.0,4.0,0.0
11943,83.0,0.0,90.0,10.0,0.0
11944,80.0,0.0,60.0,2.0,0.0
11945,56.0,270.0,60.0,13.0,0.0
11946,73.0,0.0,60.0,12.0,0.0
11947,77.0,0.0,60.0,5.0,0.0
11948,56.0,0.0,60.0,14.0,0.0
11949,73.0,0.0,60.0,1.0,0.0
11950,56.0,0.0,60.0,7.0,0.0
11951,77.0,0.0,60.0,11.0,0.0
11952,73.0,0.0,60.0,6.0,0.0
11953,78.0,0.0,240.0,11.0,0.0
11954,58.0,0.0,240.0,7.0,0.0
11955,73.0,0.0,240.0,12.0,0.0
11956,85.0,0.0,240.0,0.0,0.0
11957,73.0,0.0,240.0,6.0,0.0
11958,78.0,0.0,240.0,5.0,0.0
11959,85.0,0.0,240.0,10.0,0.0
11960,85.0,0.0,240.0,4.0,0.0
11961,58.0,0.0,240.0,14.0,0.0
11962,78.0,0.0,240.0,2.0,0.0
11963,58.0,0.0,240.0,13.0,0.0
11964,70.0,90.0,240.0,1.0,0.0
11965,59.0,0.0,60.0,13.0,0.0
11966,75.0,0.0,60.0,11.0,0.0
11967,75.0,270.0,60.0,5.0,0.0
11968,71.0,0.0,60.0,12.0,0.0
11969,87.0,0.0,60.0,0.0,0.0
11970,78.0,0.0,60.0,10.0,0.0
11971,54.0,0.0,60.0,3.0,0.0
11972,71.0,0.0,60.0,6.0,0.0
11973,59.0,0.0,60.0,7.0,0.0
11974,78.0,0.0,60.0,4.0,0.0
11975,59.0,0.0,60.0,14.0,0.0
11976,78.0,0.0,60.0,2.0,0.0
11977,66.0,0.0,60.0,1.0,0.0
11978,73.0,0.0,240.0,5.0,0.0
11979,49.0,0.0,240.0,3.0,0.0
11980,61.0,0.0,240.0,13.0,0.0
11981,61.0,0.0,240.0,7.0,0.0
11982,73.0,0.0,240.0,11.0,0.0
11983,73.0,90.0,240.0,4.0,0.0
11984,61.0,0.0,240.0,14.0,0.0
11985,73.0,0.0,240.0,10.0,0.0
11986,78.0,0.0,240.0,2.0,0.0
11987,68.0,0.0,240.0,6.0,0.0
11988,80.0,0.0,240.0,0.0,0.0
11989,73.0,0.0,240.0,1.0,0.0
11990,68.0,0.0,240.0,12.0,0.0
11991,80.0,0.0,60.0,1.0,0.0
11992,49.0,135.0,60.0,14.0,0.0
11993,68.0,0.0,60.0,12.0,0.0
11994,49.0,0.0,60.0,7.0,0.0
11995,49.0,0.0,60.0,13.0,0.0
11996,73.0,0.0,60.0,11.0,0.0
11997,77.0,0.0,60.0,4.0,0.0
11998,73.0,0.0,60.0,2.0,0.0
11999,49.0,0.0,60.0,3.0,0.0
12000,77.0,0.0,60.0,10.0,0.0
12001,85.0,0.0,60.0,0.0,0.0
12002,68.0,0.0,60.0,6.0,0.0
12003,73.0,0.0,60.0,5.0,0.0
12004,54.0,0.0,120.0,14.0,0.0
12005,70.0,90.0,240.0,6.0,0.0
12006,54.0,0.0,120.0,7.0,0.0
12007,54.0,135.0,120.0,3.0,0.0
12008,73.0,0.0,240.0,11.0,0.0
12009,73.0,0.0,240.0,5.0,0.0
12010,70.0,0.0,240.0,12.0,0.0
12011,82.0,0.0,120.0,0.0,0.0
12012,54.0,0.0,120.0,13.0,0.0
12013,73.0,0.0,120.0,2.0,0.0
12014,78.0,0.0,2280.0,4.0,0.0
12015,78.0,0.0,240.0,10.0,0.0
12016,78.0,0.0,120.0,1.0,0.0
12017,73.0,0.0,60.0,5.0,0.0
12018,73.0,0.0,60.0,11.0,0.0
12019,73.0,0.0,60.0,12.0,0.0
12020,70.0,0.0,60.0,6.0,0.0
12021,73.0,135.0,60.0,10.0,0.0
12022,73.0,0.0,240.0,10.0,0.0
12023,73.0,0.0,120.0,5.0,0.0
12024,73.0,85.0,240.0,12.0,0.0
12025,73.0,0.0,240.0,11.0,0.0
12026,70.0,100.0,120.0,6.0,0.0
12027,71.0,0.0,90.0,6.0,0.0
12028,75.0,35.0,90.0,5.0,0.0
12029,68.0,0.0,90.0,6.0,0.0
12030,71.0,5.0,90.0,5.0,0.0
12031,73.0,0.0,60.0,11.0,0.0
12032,73.0,135.0,60.0,12.0,0.0
12033,73.0,0.0,60.0,10.0,0.0
12034,73.0,0.0,120.0,10.0,0.0
12035,73.0,100.0,120.0,11.0,0.0
12036,71.0,0.0,120.0,5.0,0.0
12037,68.0,0.0,120.0,6.0,0.0
12038,73.0,0.0,120.0,12.0,0.0
12039,73.0,0.0,90.0,5.0,0.0
12040,70.0,120.0,90.0,6.0,0.0
12041,70.0,0.0,90.0,5.0,0.0
12042,66.0,140.0,90.0,6.0,0.0
12043,70.0,0.0,120.0,5.0,0.0
12044,42.0,0.0,120.0,13.0,0.0
12045,66.0,120.0,120.0,6.0,0.0
12046,78.0,0.0,120.0,2.0,0.0
12047,54.0,0.0,120.0,3.0,0.0
12048,42.0,0.0,120.0,14.0,0.0
12049,85.0,0.0,120.0,0.0,0.0
12050,42.0,0.0,120.0,7.0,0.0
12051,82.0,0.0,120.0,1.0,0.0
12052,68.0,100.0,120.0,6.0,0.0
12053,71.0,0.0,120.0,5.0,0.0
12054,73.0,0.0,90.0,5.0,0.0
12055,70.0,5.0,90.0,6.0,0.0
12056,61.0,0.0,60.0,12.0,0.0
12057,61.0,0.0,60.0,10.0,0.0
12058,61.0,135.0,60.0,11.0,0.0
12059,61.0,0.0,240.0,11.0,0.0
12060,70.0,0.0,120.0,6.0,0.0
12061,73.0,100.0,120.0,5.0,0.0
12062,61.0,0.0,240.0,10.0,0.0
12063,61.0,85.0,240.0,12.0,0.0
12064,75.0,35.0,90.0,5.0,0.0
12065,71.0,0.0,90.0,6.0,0.0
12066,71.0,5.0,90.0,5.0,0.0
12067,68.0,0.0,90.0,6.0,0.0
12068,61.0,0.0,60.0,10.0,0.0
12069,61.0,0.0,60.0,11.0,0.0
12070,61.0,135.0,60.0,12.0,0.0
12071,68.0,0.0,120.0,6.0,0.0
12072,61.0,0.0,120.0,11.0,0.0
12073,61.0,0.0,120.0,10.0,0.0
12074,71.0,0.0,120.0,5.0,0.0
12075,61.0,100.0,120.0,12.0,0.0
12076,73.0,120.0,90.0,5.0,0.0
12077,70.0,0.0,90.0,6.0,0.0
12078,66.0,0.0,90.0,6.0,0.0
12079,70.0,140.0,90.0,5.0,0.0
12080,90.0,0.0,120.0,0.0,0.0
12081,85.0,0.0,120.0,1.0,0.0
12082,66.0,0.0,120.0,6.0,0.0
12083,54.0,0.0,120.0,3.0,0.0
12084,54.0,0.0,120.0,7.0,0.0
12085,82.0,120.0,120.0,2.0,0.0
12086,54.0,0.0,120.0,14.0,0.0
12087,70.0,0.0,120.0,5.0,0.0
12088,54.0,0.0,120.0,13.0,0.0
12089,77.0,100.0,120.0,4.0,0.0
12090,78.0,140.0,90.0,4.0,0.0
12091,71.0,0.0,120.0,5.0,0.0
12092,68.0,0.0,120.0,6.0,0.0
12093,78.0,100.0,120.0,4.0,0.0
12094,80.0,120.0,90.0,4.0,0.0
12095,76.0,5.0,90.0,4.0,0.0
12096,54.0,135.0,60.0,7.0,0.0
12097,54.0,85.0,240.0,7.0,0.0
12098,76.0,0.0,120.0,4.0,0.0
12099,73.0,0.0,120.0,5.0,0.0
12100,70.0,100.0,120.0,6.0,0.0
12101,78.0,35.0,90.0,4.0,0.0
12102,75.0,5.0,90.0,4.0,0.0
12103,54.0,135.0,60.0,7.0,0.0
12104,71.0,0.0,120.0,6.0,0.0
12105,66.0,0.0,120.0,5.0,0.0
12106,75.0,0.0,120.0,4.0,0.0
12107,59.0,120.0,120.0,7.0,0.0
12108,78.0,100.0,120.0,4.0,0.0
12109,80.0,140.0,90.0,4.0,0.0
12110,73.0,0.0,120.0,5.0,0.0
12111,70.0,100.0,120.0,6.0,0.0
12112,80.0,0.0,120.0,4.0,0.0
12113,82.0,120.0,90.0,4.0,0.0
12114,78.0,5.0,90.0,4.0,0.0
12115,56.0,135.0,60.0,7.0,0.0
12116,78.0,0.0,120.0,4.0,0.0
12117,75.0,100.0,120.0,5.0,0.0
12118,72.0,0.0,120.0,6.0,0.0
12119,56.0,85.0,240.0,7.0,0.0
12120,80.0,35.0,90.0,4.0,0.0
12121,77.0,5.0,90.0,4.0,0.0
12122,56.0,135.0,60.0,7.0,0.0
12123,61.0,0.0,120.0,7.0,0.0
12124,77.0,0.0,120.0,4.0,0.0
12125,73.0,120.0,120.0,6.0,0.0
12126,68.0,0.0,120.0,5.0,0.0
12127,80.0,100.0,120.0,4.0,0.0
12128,82.0,140.0,90.0,4.0,0.0
12129,75.0,0.0,120.0,5.0,0.0
12130,72.0,0.0,120.0,6.0,0.0
12131,82.0,100.0,120.0,4.0,0.0
12132,83.0,120.0,90.0,4.0,0.0
12133,80.0,5.0,90.0,4.0,0.0
12134,58.0,135.0,60.0,7.0,0.0
12135,80.0,100.0,120.0,4.0,0.0
12136,74.0,0.0,120.0,6.0,0.0
12137,58.0,85.0,240.0,7.0,0.0
12138,77.0,0.0,120.0,5.0,0.0
12139,82.0,35.0,90.0,4.0,0.0
12140,78.0,5.0,90.0,4.0,0.0
12141,58.0,135.0,60.0,7.0,0.0
12142,70.0,85.0,240.0,5.0,0.0
12143,63.0,120.0,120.0,7.0,0.0
12144,75.0,0.0,240.0,6.0,0.0
12145,78.0,0.0,120.0,4.0,0.0
12146,80.0,15.0,120.0,4.0,0.0
12147,82.0,5.0,90.0,4.0,0.0
12148,75.0,135.0,60.0,6.0,0.0
12149,78.0,0.0,60.0,5.0,0.0
12150,78.0,0.0,120.0,5.0,0.0
12151,82.0,140.0,1050.0,4.0,0.0
12152,75.0,100.0,120.0,6.0,0.0
12153,80.0,0.0,90.0,5.0,0.0
12154,77.0,120.0,90.0,6.0,0.0
12155,77.0,140.0,90.0,5.0,0.0
12156,73.0,0.0,90.0,6.0,0.0
12157,73.0,0.0,120.0,6.0,0.0
12158,77.0,100.0,120.0,5.0,0.0
12159,78.0,0.0,90.0,5.0,0.0
12160,75.0,120.0,90.0,6.0,0.0
12161,75.0,140.0,90.0,5.0,0.0
12162,72.0,0.0,90.0,6.0,0.0
12163,72.0,0.0,120.0,6.0,0.0
12164,75.0,120.0,120.0,5.0,0.0
12165,77.0,0.0,120.0,5.0,0.0
12166,73.0,100.0,120.0,6.0,0.0
12167,75.0,0.0,90.0,6.0,0.0
12168,78.0,0.0,90.0,5.0,0.0
12169,80.0,0.0,120.0,5.0,0.0
12170,80.0,0.0,330.0,4.0,0.0
12171,77.0,100.0,120.0,6.0,0.0
12172,78.0,0.0,90.0,6.0,0.0
12173,82.0,120.0,90.0,5.0,0.0
12174,78.0,0.0,90.0,5.0,0.0
12175,75.0,140.0,90.0,6.0,0.0
12176,75.0,0.0,120.0,6.0,0.0
12177,83.0,140.0,450.0,4.0,0.0
12178,78.0,100.0,120.0,5.0,0.0
12179,77.0,120.0,90.0,6.0,0.0
12180,80.0,0.0,90.0,5.0,0.0
12181,74.0,0.0,90.0,6.0,0.0
12182,77.0,120.0,90.0,5.0,0.0
12183,77.0,5.0,330.0,5.0,0.0
12184,74.0,85.0,240.0,6.0,0.0
12185,77.0,15.0,120.0,4.0,0.0
12186,78.0,120.0,120.0,4.0,0.0
12187,74.0,15.0,60.0,6.0,0.0
12188,82.0,140.0,810.0,5.0,0.0
12189,74.0,85.0,240.0,6.0,0.0
12190,80.0,0.0,120.0,4.0,0.0
12191,58.0,100.0,120.0,7.0,0.0
12192,89.0,35.0,90.0,4.0,0.0
12193,79.0,5.0,90.0,4.0,0.0
12194,74.0,135.0,60.0,6.0,0.0
12195,74.0,85.0,240.0,6.0,0.0
12196,46.0,0.0,120.0,7.0,0.0
12197,80.0,120.0,120.0,4.0,0.0
12198,79.0,15.0,120.0,4.0,0.0
12199,77.0,5.0,90.0,4.0,0.0
12200,74.0,115.0,60.0,6.0,0.0
12201,73.0,85.0,240.0,6.0,0.0
12202,79.0,5.0,330.0,4.0,0.0
12203,75.0,15.0,120.0,5.0,0.0
12204,77.0,120.0,120.0,5.0,0.0
12205,73.0,15.0,60.0,6.0,0.0
12206,73.0,85.0,240.0,6.0,0.0
12207,63.0,100.0,120.0,7.0,0.0
12208,79.0,0.0,120.0,5.0,0.0
12209,82.0,0.0,330.0,4.0,0.0
12210,87.0,35.0,90.0,5.0,0.0
12211,77.0,5.0,90.0,5.0,0.0
12212,73.0,135.0,60.0,6.0,0.0
12213,79.0,0.0,120.0,5.0,0.0
12214,87.0,140.0,450.0,4.0,0.0
12215,51.0,120.0,120.0,7.0,0.0
12216,73.0,85.0,240.0,6.0,0.0
12217,77.0,15.0,120.0,5.0,0.0
12218,75.0,5.0,90.0,5.0,0.0
12219,73.0,115.0,60.0,6.0,0.0
12220,72.0,90.0,240.0,6.0,0.0
12221,80.0,140.0,1170.0,5.0,0.0
12222,75.0,15.0,120.0,4.0,0.0
12223,77.0,120.0,120.0,4.0,0.0
12224,72.0,15.0,60.0,6.0,0.0
12225,78.0,0.0,120.0,4.0,0.0
12226,72.0,85.0,240.0,6.0,0.0
12227,56.0,100.0,120.0,7.0,0.0
12228,87.0,35.0,90.0,4.0,0.0
12229,77.0,5.0,90.0,4.0,0.0
12230,72.0,135.0,60.0,6.0,0.0
12231,78.0,120.0,120.0,4.0,0.0
12232,72.0,85.0,240.0,6.0,0.0
12233,44.0,0.0,120.0,7.0,0.0
12234,77.0,15.0,120.0,4.0,0.0
12235,75.0,5.0,90.0,4.0,0.0
12236,72.0,115.0,60.0,6.0,0.0
12237,71.0,85.0,240.0,6.0,0.0
12238,77.0,5.0,330.0,4.0,0.0
12239,73.0,15.0,120.0,5.0,0.0
12240,75.0,120.0,120.0,5.0,0.0
12241,71.0,15.0,60.0,6.0,0.0
12242,77.0,100.0,120.0,5.0,0.0
12243,80.0,5.0,330.0,4.0,0.0
12244,61.0,0.0,120.0,7.0,0.0
12245,71.0,85.0,240.0,6.0,0.0
12246,85.0,35.0,90.0,5.0,0.0
12247,75.0,0.0,90.0,5.0,0.0
12248,71.0,135.0,60.0,6.0,0.0
12249,71.0,85.0,240.0,6.0,0.0
12250,49.0,0.0,120.0,7.0,0.0
12251,77.0,120.0,120.0,5.0,0.0
12252,85.0,140.0,450.0,4.0,0.0
12253,75.0,15.0,120.0,5.0,0.0
12254,73.0,5.0,90.0,5.0,0.0
12255,71.0,115.0,60.0,6.0,0.0
12256,70.0,85.0,240.0,6.0,0.0
12257,78.0,5.0,330.0,5.0,0.0
12258,77.0,15.0,120.0,4.0,0.0
12259,78.0,120.0,120.0,4.0,0.0
12260,70.0,15.0,60.0,6.0,0.0
12261,80.0,100.0,120.0,4.0,0.0
12262,85.0,5.0,1770.0,5.0,0.0
12263,54.0,0.0,120.0,7.0,0.0
12264,70.0,85.0,240.0,6.0,0.0
12265,77.0,35.0,90.0,4.0,0.0
12266,78.0,5.0,90.0,4.0,0.0
12267,70.0,135.0,60.0,6.0,0.0
12268,42.0,120.0,120.0,7.0,0.0
12269,73.0,0.0,120.0,4.0,0.0
12270,70.0,85.0,240.0,6.0,0.0
12271,77.0,15.0,120.0,4.0,0.0
12272,78.0,5.0,90.0,4.0,0.0
12273,70.0,115.0,60.0,6.0,0.0
12274,69.0,90.0,240.0,6.0,0.0
12275,87.0,140.0,90.0,4.0,0.0
12276,77.0,15.0,120.0,4.0,0.0
12277,78.0,120.0,120.0,4.0,0.0
12278,69.0,15.0,60.0,6.0,0.0
12279,69.0,85.0,240.0,6.0,0.0
12280,80.0,0.0,120.0,4.0,0.0
12281,54.0,100.0,120.0,7.0,0.0
12282,77.0,35.0,90.0,4.0,0.0
12283,78.0,5.0,90.0,4.0,0.0
12284,69.0,135.0,60.0,6.0,0.0
12285,75.0,0.0,120.0,4.0,0.0
12286,42.0,120.0,120.0,7.0,0.0
12287,69.0,85.0,240.0,6.0,0.0
12288,77.0,15.0,120.0,4.0,0.0
12289,78.0,0.0,90.0,4.0,0.0
12290,69.0,45.0,60.0,6.0,0.0
12291,44.0,100.0,3240.0,7.0,0.0
12292,81.0,30.0,120.0,4.0,0.0
12293,84.0,30.0,30.0,5.0,0.0
12294,68.0,15.0,240.0,6.0,0.0
12295,85.0,30.0,30.0,5.0,0.0
12296,84.0,30.0,30.0,5.0,0.0
12297,85.0,0.0,30.0,5.0,0.0
12298,84.0,30.0,30.0,5.0,0.0
12299,80.0,20.0,90.0,4.0,0.0
12300,85.0,30.0,30.0,5.0,0.0
12301,84.0,10.0,30.0,5.0,0.0
12302,85.0,15.0,30.0,5.0,0.0
12303,78.0,5.0,90.0,4.0,0.0
12304,84.0,30.0,30.0,5.0,0.0
12305,85.0,30.0,30.0,5.0,0.0
12306,68.0,15.0,60.0,6.0,0.0
12307,84.0,10.0,30.0,5.0,0.0
12308,85.0,30.0,30.0,5.0,0.0
12309,68.0,15.0,240.0,6.0,0.0
12310,84.0,30.0,30.0,5.0,0.0
12311,78.0,30.0,120.0,4.0,0.0
12312,85.0,30.0,30.0,5.0,0.0
12313,84.0,30.0,30.0,5.0,0.0
12314,85.0,0.0,30.0,5.0,0.0
12315,76.0,20.0,90.0,4.0,0.0
12316,84.0,30.0,30.0,5.0,0.0
12317,85.0,30.0,30.0,5.0,0.0
12318,84.0,10.0,30.0,5.0,0.0
12319,85.0,15.0,30.0,5.0,0.0
12320,84.0,30.0,30.0,5.0,0.0
12321,75.0,5.0,90.0,4.0,0.0
12322,68.0,15.0,60.0,6.0,0.0
12323,85.0,30.0,30.0,5.0,0.0
12324,84.0,10.0,30.0,5.0,0.0
12325,85.0,30.0,30.0,5.0,0.0
12326,84.0,30.0,30.0,5.0,0.0
12327,68.0,15.0,240.0,6.0,0.0
12328,75.0,0.0,120.0,4.0,0.0
12329,85.0,30.0,30.0,5.0,0.0
12330,84.0,30.0,30.0,5.0,0.0
12331,85.0,30.0,30.0,5.0,0.0
12332,76.0,20.0,90.0,4.0,0.0
12333,84.0,30.0,30.0,5.0,0.0
12334,85.0,30.0,30.0,5.0,0.0
12335,84.0,10.0,30.0,5.0,0.0
12336,85.0,15.0,30.0,5.0,0.0
12337,84.0,30.0,30.0,5.0,0.0
12338,78.0,5.0,90.0,4.0,0.0
12339,85.0,30.0,30.0,5.0,0.0
12340,68.0,15.0,60.0,6.0,0.0
12341,82.0,10.0,30.0,5.0,0.0
12342,84.0,120.0,30.0,5.0,0.0
12343,85.0,0.0,120.0,5.0,0.0
12344,76.0,120.0,120.0,4.0,0.0
12345,67.0,90.0,240.0,6.0,0.0
12346,82.0,0.0,120.0,5.0,0.0
12347,73.0,15.0,120.0,4.0,0.0
12348,84.0,120.0,120.0,5.0,0.0
12349,75.0,0.0,120.0,4.0,0.0
12350,67.0,15.0,60.0,6.0,0.0
12351,76.0,0.0,120.0,4.0,0.0
12352,85.0,100.0,120.0,5.0,0.0
12353,67.0,85.0,240.0,6.0,0.0
12354,78.0,0.0,90.0,4.0,0.0
12355,87.0,35.0,90.0,5.0,0.0
12356,84.0,5.0,90.0,5.0,0.0
12357,75.0,0.0,90.0,4.0,0.0
12358,67.0,135.0,60.0,6.0,0.0
12359,76.0,0.0,120.0,4.0,0.0
12360,85.0,120.0,120.0,5.0,0.0
12361,67.0,85.0,240.0,6.0,0.0
12362,84.0,0.0,120.0,5.0,0.0
12363,75.0,15.0,120.0,4.0,0.0
12364,82.0,0.0,90.0,5.0,0.0
12365,73.0,5.0,90.0,4.0,0.0
12366,67.0,135.0,60.0,6.0,0.0
12367,87.0,5.0,330.0,5.0,0.0
12368,72.0,120.0,120.0,4.0,0.0
12369,66.0,85.0,240.0,6.0,0.0
12370,75.0,15.0,120.0,4.0,0.0
12371,80.0,120.0,120.0,4.0,0.0
12372,66.0,15.0,60.0,6.0,0.0
12373,80.0,20.0,810.0,5.0,0.0
12374,84.0,100.0,120.0,4.0,0.0
12375,66.0,85.0,240.0,6.0,0.0
12376,85.0,35.0,90.0,4.0,0.0
12377,87.0,5.0,90.0,4.0,0.0
12378,66.0,135.0,60.0,6.0,0.0
12379,66.0,85.0,240.0,6.0,0.0
12380,80.0,100.0,120.0,4.0,0.0
12381,85.0,35.0,90.0,4.0,0.0
12382,84.0,5.0,90.0,4.0,0.0
12383,66.0,15.0,60.0,6.0,0.0
12384,64.0,100.0,120.0,6.0,0.0
12385,45.0,0.0,120.0,7.0,0.0
12386,85.0,20.0,2250.0,4.0,0.0
12387,73.0,100.0,120.0,5.0,0.0
12388,69.0,20.0,90.0,6.0,0.0
12389,68.0,0.0,90.0,6.0,0.0
12390,76.0,140.0,90.0,5.0,0.0
12391,68.0,0.0,120.0,6.0,0.0
12392,76.0,100.0,120.0,5.0,0.0
12393,78.0,120.0,90.0,5.0,0.0
12394,69.0,0.0,90.0,6.0,0.0
12395,66.0,0.0,90.0,6.0,0.0
12396,75.0,140.0,90.0,5.0,0.0
12397,75.0,100.0,120.0,5.0,0.0
12398,66.0,0.0,120.0,6.0,0.0
12399,68.0,0.0,90.0,6.0,0.0
12400,76.0,120.0,90.0,5.0,0.0
12401,73.0,140.0,90.0,5.0,0.0
12402,64.0,0.0,90.0,6.0,0.0
12403,44.0,0.0,120.0,7.0,0.0
12404,64.0,120.0,120.0,6.0,0.0
12405,73.0,0.0,120.0,5.0,0.0
12406,75.0,0.0,120.0,5.0,0.0
12407,66.0,120.0,120.0,6.0,0.0
12408,68.0,120.0,120.0,6.0,0.0
12409,76.0,0.0,120.0,5.0,0.0
12410,69.0,0.0,120.0,6.0,0.0
12411,78.0,100.0,120.0,5.0,0.0
12412,71.0,120.0,90.0,6.0,0.0
12413,80.0,0.0,90.0,5.0,0.0
12414,76.0,140.0,90.0,5.0,0.0
12415,68.0,0.0,90.0,6.0,0.0
12416,68.0,0.0,120.0,6.0,0.0
12417,76.0,100.0,120.0,5.0,0.0
12418,69.0,0.0,90.0,6.0,0.0
12419,78.0,120.0,90.0,5.0,0.0
12420,67.0,120.0,90.0,6.0,0.0
12421,75.0,0.0,90.0,5.0,0.0
12422,75.0,5.0,330.0,5.0,0.0
12423,67.0,120.0,120.0,6.0,0.0
12424,82.0,100.0,120.0,4.0,0.0
12425,84.0,120.0,120.0,4.0,0.0
12426,55.0,15.0,60.0,7.0,0.0
12427,82.0,90.0,960.0,5.0,0.0
12428,85.0,100.0,120.0,4.0,0.0
12429,55.0,85.0,240.0,7.0,0.0
12430,87.0,35.0,90.0,4.0,0.0
12431,84.0,5.0,90.0,4.0,0.0
12432,55.0,135.0,60.0,7.0,0.0
12433,85.0,120.0,120.0,4.0,0.0
12434,55.0,85.0,240.0,7.0,0.0
12435,84.0,15.0,120.0,4.0,0.0
12436,82.0,5.0,90.0,4.0,0.0
12437,55.0,135.0,60.0,7.0,0.0
12438,84.0,120.0,120.0,4.0,0.0
12439,56.0,0.0,240.0,7.0,0.0
12440,85.0,15.0,120.0,4.0,0.0
12441,87.0,120.0,120.0,4.0,0.0
12442,72.0,0.0,60.0,6.0,0.0
12443,56.0,15.0,60.0,7.0,0.0
12444,80.0,0.0,60.0,5.0,0.0
12445,89.0,0.0,120.0,4.0,0.0
12446,80.0,100.0,120.0,5.0,0.0
12447,56.0,85.0,240.0,7.0,0.0
12448,72.0,0.0,240.0,6.0,0.0
12449,82.0,35.0,90.0,5.0,0.0
12450,90.0,0.0,90.0,4.0,0.0
12451,87.0,0.0,90.0,4.0,0.0
12452,78.0,5.0,90.0,5.0,0.0
12453,56.0,0.0,60.0,7.0,0.0
12454,72.0,135.0,60.0,6.0,0.0
12455,87.0,100.0,120.0,4.0,0.0
12456,78.0,0.0,120.0,5.0,0.0
12457,72.0,85.0,240.0,6.0,0.0
12458,56.0,0.0,240.0,7.0,0.0
12459,80.0,0.0,90.0,5.0,0.0
12460,89.0,35.0,90.0,4.0,0.0
12461,77.0,5.0,90.0,5.0,0.0
12462,85.0,0.0,90.0,4.0,0.0
12463,56.0,135.0,60.0,7.0,0.0
12464,72.0,0.0,60.0,6.0,0.0
12465,77.0,100.0,120.0,5.0,0.0
12466,85.0,140.0,450.0,4.0,0.0
12467,73.0,0.0,120.0,6.0,0.0
12468,58.0,85.0,240.0,7.0,0.0
12469,80.0,35.0,90.0,5.0,0.0
12470,77.0,0.0,90.0,6.0,0.0
12471,75.0,5.0,90.0,6.0,0.0
12472,78.0,0.0,90.0,5.0,0.0
12473,51.0,115.0,60.0,7.0,0.0
12474,73.0,0.0,240.0,6.0,0.0
12475,80.0,0.0,240.0,5.0,0.0
12476,53.0,85.0,240.0,7.0,0.0
12477,78.0,15.0,120.0,4.0,0.0
12478,77.0,5.0,90.0,4.0,0.0
12479,54.0,0.0,60.0,7.0,0.0
12480,82.0,0.0,60.0,5.0,0.0
12481,73.0,135.0,60.0,6.0,0.0
12482,56.0,0.0,240.0,7.0,0.0
12483,80.0,0.0,240.0,5.0,0.0
12484,75.0,100.0,120.0,4.0,0.0
12485,68.0,85.0,240.0,6.0,0.0
12486,85.0,35.0,90.0,4.0,0.0
12487,84.0,5.0,90.0,4.0,0.0
12488,78.0,0.0,60.0,5.0,0.0
12489,68.0,0.0,60.0,6.0,0.0
12490,56.0,135.0,60.0,7.0,0.0
12491,85.0,0.0,120.0,4.0,0.0
12492,68.0,0.0,120.0,6.0,0.0
12493,49.0,0.0,120.0,13.0,0.0
12494,85.0,0.0,120.0,0.0,0.0
12495,80.0,0.0,120.0,1.0,0.0
12496,49.0,0.0,120.0,14.0,0.0
12497,49.0,0.0,120.0,3.0,0.0
12498,49.0,90.0,240.0,7.0,0.0
12499,73.0,0.0,120.0,2.0,0.0
12500,77.0,135.0,120.0,5.0,0.0
12501,68.0,0.0,60.0,10.0,0.0
12502,68.0,135.0,60.0,11.0,0.0
12503,68.0,0.0,60.0,12.0,0.0
12504,65.0,0.0,60.0,14.0,0.0
12505,65.0,0.0,60.0,13.0,0.0
12506,68.0,0.0,60.0,7.0,0.0
12507,65.0,0.0,120.0,13.0,0.0
12508,68.0,0.0,240.0,12.0,0.0
12509,80.0,0.0,120.0,4.0,0.0
12510,53.0,100.0,120.0,14.0,0.0
12511,73.0,0.0,120.0,5.0,0.0
12512,53.0,0.0,120.0,13.0,0.0
12513,68.0,85.0,240.0,10.0,0.0
12514,65.0,0.0,120.0,14.0,0.0
12515,68.0,0.0,120.0,7.0,0.0
12516,68.0,0.0,240.0,11.0,0.0
12517,68.0,0.0,120.0,6.0,0.0
12518,66.0,0.0,90.0,14.0,0.0
12519,70.0,0.0,90.0,7.0,0.0
12520,66.0,35.0,90.0,13.0,0.0
12521,63.0,5.0,90.0,13.0,0.0
12522,63.0,0.0,90.0,14.0,0.0
12523,66.0,0.0,90.0,7.0,0.0
12524,68.0,135.0,60.0,10.0,0.0
12525,68.0,0.0,60.0,11.0,0.0
12526,68.0,0.0,60.0,12.0,0.0
12527,63.0,0.0,120.0,14.0,0.0
12528,56.0,0.0,120.0,14.0,0.0
12529,56.0,0.0,120.0,13.0,0.0
12530,63.0,0.0,120.0,13.0,0.0
12531,68.0,85.0,240.0,11.0,0.0
12532,80.0,0.0,120.0,5.0,0.0
12533,84.0,0.0,120.0,4.0,0.0
12534,75.0,100.0,120.0,6.0,0.0
12535,68.0,0.0,240.0,10.0,0.0
12536,68.0,0.0,240.0,12.0,0.0
12537,66.0,0.0,120.0,7.0,0.0
12538,65.0,0.0,90.0,13.0,0.0
12539,68.0,0.0,90.0,7.0,0.0
12540,65.0,35.0,90.0,14.0,0.0
12541,61.0,0.0,90.0,14.0,0.0
12542,61.0,0.0,90.0,13.0,0.0
12543,65.0,5.0,90.0,7.0,0.0
12544,68.0,135.0,60.0,12.0,0.0
12545,68.0,0.0,60.0,11.0,0.0
12546,68.0,0.0,60.0,10.0,0.0
12547,85.0,0.0,120.0,4.0,0.0
12548,65.0,0.0,120.0,7.0,0.0
12549,61.0,120.0,120.0,14.0,0.0
12550,61.0,0.0,120.0,13.0,0.0
12551,77.0,0.0,120.0,6.0,0.0
12552,85.0,0.0,120.0,1.0,0.0
12553,80.0,0.0,120.0,5.0,0.0
12554,80.0,0.0,120.0,2.0,0.0
12555,49.0,0.0,120.0,3.0,0.0
12556,68.0,85.0,240.0,11.0,0.0
12557,68.0,0.0,240.0,12.0,0.0
12558,68.0,0.0,240.0,10.0,0.0
12559,89.0,0.0,120.0,0.0,0.0
12560,63.0,0.0,120.0,13.0,0.0
12561,66.0,15.0,120.0,7.0,0.0
12562,63.0,0.0,120.0,14.0,0.0
12563,65.0,0.0,90.0,13.0,0.0
12564,65.0,5.0,90.0,14.0,0.0
12565,68.0,0.0,90.0,7.0,0.0
12566,68.0,135.0,60.0,11.0,0.0
12567,68.0,0.0,60.0,10.0,0.0
12568,68.0,0.0,60.0,12.0,0.0
12569,80.0,0.0,120.0,4.0,0.0
12570,68.0,0.0,120.0,7.0,0.0
12571,68.0,85.0,240.0,12.0,0.0
12572,68.0,0.0,240.0,10.0,0.0
12573,80.0,0.0,120.0,6.0,0.0
12574,68.0,0.0,240.0,11.0,0.0
12575,53.0,0.0,120.0,13.0,0.0
12576,65.0,0.0,120.0,13.0,0.0
12577,65.0,0.0,120.0,14.0,0.0
12578,53.0,0.0,120.0,14.0,0.0
12579,73.0,100.0,120.0,5.0,0.0
12580,70.0,0.0,90.0,7.0,0.0
12581,66.0,0.0,90.0,14.0,0.0
12582,66.0,35.0,90.0,13.0,0.0
12583,63.0,0.0,90.0,14.0,0.0
12584,63.0,0.0,90.0,13.0,0.0
12585,66.0,5.0,90.0,7.0,0.0
12586,68.0,0.0,60.0,12.0,0.0
12587,68.0,0.0,60.0,11.0,0.0
12588,68.0,135.0,60.0,10.0,0.0
12589,56.0,0.0,120.0,13.0,0.0
12590,63.0,0.0,120.0,13.0,0.0
12591,84.0,100.0,120.0,4.0,0.0
12592,68.0,85.0,240.0,10.0,0.0
12593,63.0,0.0,120.0,14.0,0.0
12594,56.0,0.0,120.0,14.0,0.0
12595,66.0,0.0,120.0,7.0,0.0
12596,68.0,0.0,240.0,11.0,0.0
12597,75.0,0.0,120.0,5.0,0.0
12598,68.0,0.0,240.0,12.0,0.0
12599,68.0,0.0,120.0,6.0,0.0
12600,68.0,0.0,90.0,7.0,0.0
12601,65.0,35.0,90.0,13.0,0.0
12602,65.0,0.0,90.0,14.0,0.0
12603,61.0,0.0,90.0,14.0,0.0
12604,61.0,5.0,90.0,13.0,0.0
12605,65.0,0.0,90.0,7.0,0.0
12606,68.0,0.0,60.0,10.0,0.0
12607,68.0,135.0,60.0,12.0,0.0
12608,68.0,0.0,60.0,11.0,0.0
12609,49.0,0.0,120.0,13.0,0.0
12610,49.0,0.0,120.0,3.0,0.0
12611,85.0,0.0,120.0,2.0,0.0
12612,92.0,0.0,120.0,0.0,0.0
12613,61.0,0.0,120.0,13.0,0.0
12614,85.0,0.0,240.0,4.0,0.0
12615,68.0,85.0,240.0,10.0,0.0
12616,49.0,0.0,120.0,14.0,0.0
12617,68.0,100.0,120.0,11.0,0.0
12618,89.0,0.0,120.0,1.0,0.0
12619,77.0,0.0,120.0,5.0,0.0
12620,65.0,0.0,120.0,7.0,0.0
12621,61.0,0.0,120.0,14.0,0.0
12622,68.0,0.0,120.0,6.0,0.0
12623,68.0,0.0,120.0,12.0,0.0
12624,75.0,0.0,90.0,11.0,0.0
12625,72.0,35.0,90.0,12.0,0.0
12626,72.0,0.0,90.0,6.0,0.0
12627,75.0,0.0,90.0,5.0,0.0
12628,70.0,0.0,90.0,12.0,0.0
12629,73.0,0.0,90.0,5.0,0.0
12630,73.0,0.0,90.0,11.0,0.0
12631,70.0,5.0,90.0,6.0,0.0
12632,80.0,135.0,60.0,4.0,0.0
12633,80.0,0.0,60.0,10.0,0.0
12634,72.0,0.0,240.0,12.0,0.0
12635,80.0,0.0,120.0,10.0,0.0
12636,75.0,85.0,240.0,11.0,0.0
12637,80.0,100.0,120.0,4.0,0.0
12638,75.0,0.0,240.0,5.0,0.0
12639,72.0,0.0,240.0,6.0,0.0
12640,82.0,35.0,90.0,10.0,0.0
12641,82.0,0.0,90.0,4.0,0.0
12642,78.0,5.0,90.0,10.0,0.0
12643,78.0,0.0,90.0,4.0,0.0
12644,70.0,0.0,60.0,6.0,0.0
12645,73.0,0.0,60.0,5.0,0.0
12646,70.0,135.0,60.0,12.0,0.0
12647,73.0,0.0,60.0,11.0,0.0
12648,75.0,0.0,240.0,11.0,0.0
12649,78.0,100.0,120.0,4.0,0.0
12650,75.0,0.0,240.0,5.0,0.0
12651,78.0,0.0,120.0,10.0,0.0
12652,72.0,0.0,240.0,12.0,0.0
12653,72.0,85.0,240.0,6.0,0.0
12654,80.0,0.0,90.0,10.0,0.0
12655,80.0,35.0,90.0,4.0,0.0
12656,77.0,0.0,90.0,10.0,0.0
12657,77.0,5.0,90.0,4.0,0.0
12658,68.0,0.0,60.0,12.0,0.0
12659,72.0,135.0,60.0,11.0,0.0
12660,68.0,0.0,60.0,6.0,0.0
12661,72.0,0.0,60.0,5.0,0.0
12662,73.0,120.0,120.0,5.0,0.0
12663,77.0,0.0,120.0,4.0,0.0
12664,61.0,0.0,120.0,12.0,0.0
12665,73.0,85.0,240.0,6.0,0.0
12666,73.0,0.0,120.0,11.0,0.0
12667,77.0,0.0,120.0,10.0,0.0
12668,72.0,0.0,120.0,11.0,0.0
12669,78.0,0.0,120.0,10.0,0.0
12670,63.0,0.0,120.0,12.0,0.0
12671,72.0,15.0,120.0,5.0,0.0
12672,78.0,0.0,120.0,4.0,0.0
12673,65.0,0.0,90.0,12.0,0.0
12674,73.0,0.0,90.0,11.0,0.0
12675,73.0,5.0,90.0,5.0,0.0
12676,80.0,120.0,120.0,4.0,0.0
12677,80.0,0.0,120.0,10.0,0.0
12678,61.0,0.0,60.0,14.0,0.0
12679,80.0,15.0,60.0,6.0,0.0
12680,61.0,0.0,60.0,7.0,0.0
12681,61.0,0.0,60.0,13.0,0.0
12682,61.0,100.0,120.0,7.0,0.0
12683,65.0,0.0,240.0,12.0,0.0
12684,82.0,0.0,120.0,10.0,0.0
12685,73.0,85.0,240.0,5.0,0.0
12686,73.0,0.0,240.0,11.0,0.0
12687,77.0,0.0,240.0,6.0,0.0
12688,61.0,0.0,120.0,14.0,0.0
12689,82.0,0.0,120.0,4.0,0.0
12690,61.0,0.0,120.0,13.0,0.0
12691,83.0,0.0,90.0,10.0,0.0
12692,63.0,35.0,90.0,14.0,0.0
12693,63.0,0.0,90.0,13.0,0.0
12694,63.0,0.0,90.0,7.0,0.0
12695,83.0,0.0,90.0,4.0,0.0
12696,80.0,0.0,90.0,4.0,0.0
12697,60.0,0.0,90.0,13.0,0.0
12698,80.0,0.0,90.0,10.0,0.0
12699,60.0,5.0,90.0,14.0,0.0
12700,60.0,0.0,90.0,7.0,0.0
12701,77.0,0.0,60.0,6.0,0.0
12702,77.0,0.0,60.0,5.0,0.0
12703,68.0,0.0,60.0,12.0,0.0
12704,77.0,135.0,60.0,11.0,0.0
12705,60.0,0.0,120.0,7.0,0.0
12706,60.0,100.0,120.0,13.0,0.0
12707,80.0,0.0,240.0,5.0,0.0
12708,60.0,0.0,120.0,14.0,0.0
12709,68.0,0.0,240.0,12.0,0.0
12710,75.0,0.0,240.0,11.0,0.0
12711,80.0,0.0,120.0,10.0,0.0
12712,75.0,85.0,240.0,6.0,0.0
12713,80.0,0.0,120.0,4.0,0.0
12714,61.0,35.0,90.0,14.0,0.0
12715,61.0,0.0,90.0,7.0,0.0
12716,82.0,0.0,90.0,4.0,0.0
12717,82.0,0.0,90.0,10.0,0.0
12718,61.0,0.0,90.0,13.0,0.0
12719,58.0,0.0,90.0,13.0,0.0
12720,58.0,5.0,90.0,14.0,0.0
12721,78.0,0.0,90.0,4.0,0.0
12722,58.0,0.0,90.0,7.0,0.0
12723,78.0,0.0,90.0,10.0,0.0
12724,73.0,0.0,60.0,11.0,0.0
12725,70.0,0.0,60.0,12.0,0.0
12726,70.0,0.0,60.0,6.0,0.0
12727,73.0,135.0,60.0,5.0,0.0
12728,78.0,0.0,240.0,4.0,0.0
12729,58.0,0.0,120.0,13.0,0.0
12730,73.0,120.0,120.0,5.0,0.0
12731,78.0,85.0,240.0,10.0,0.0
12732,58.0,0.0,120.0,14.0,0.0
12733,58.0,0.0,120.0,7.0,0.0
12734,70.0,0.0,240.0,12.0,0.0
12735,73.0,0.0,120.0,11.0,0.0
12736,70.0,0.0,240.0,6.0,0.0
12737,75.0,0.0,120.0,11.0,0.0
12738,60.0,15.0,120.0,13.0,0.0
12739,60.0,0.0,120.0,7.0,0.0
12740,60.0,0.0,120.0,14.0,0.0
12741,75.0,0.0,120.0,5.0,0.0
12742,73.0,5.0,90.0,5.0,0.0
12743,61.0,0.0,120.0,14.0,0.0
12744,73.0,0.0,90.0,11.0,0.0
12745,61.0,0.0,120.0,7.0,0.0
12746,61.0,120.0,120.0,13.0,0.0
12747,70.0,0.0,60.0,6.0,0.0
12748,78.0,0.0,60.0,10.0,0.0
12749,70.0,0.0,60.0,12.0,0.0
12750,78.0,15.0,60.0,4.0,0.0
12751,66.0,0.0,120.0,12.0,0.0
12752,78.0,0.0,240.0,4.0,0.0
12753,66.0,0.0,120.0,6.0,0.0
12754,72.0,0.0,120.0,11.0,0.0
12755,63.0,0.0,120.0,7.0,0.0
12756,78.0,85.0,240.0,10.0,0.0
12757,63.0,0.0,120.0,14.0,0.0
12758,72.0,0.0,120.0,5.0,0.0
12759,63.0,100.0,120.0,13.0,0.0
12760,65.0,20.0,90.0,14.0,0.0
12761,68.0,15.0,120.0,6.0,0.0
12762,73.0,0.0,90.0,11.0,0.0
12763,73.0,0.0,90.0,5.0,0.0
12764,65.0,0.0,90.0,7.0,0.0
12765,65.0,0.0,90.0,13.0,0.0
12766,68.0,0.0,120.0,12.0,0.0
12767,61.0,0.0,90.0,13.0,0.0
12768,70.0,0.0,90.0,5.0,0.0
12769,61.0,0.0,90.0,14.0,0.0
12770,70.0,0.0,90.0,6.0,0.0
12771,70.0,0.0,90.0,11.0,0.0
12772,70.0,0.0,90.0,12.0,0.0
12773,61.0,5.0,90.0,7.0,0.0
12774,78.0,135.0,60.0,10.0,0.0
12775,78.0,0.0,60.0,4.0,0.0
12776,78.0,0.0,240.0,4.0,0.0
12777,75.0,85.0,240.0,6.0,0.0
12778,61.0,100.0,120.0,7.0,0.0
12779,70.0,0.0,120.0,11.0,0.0
12780,78.0,0.0,240.0,10.0,0.0
12781,63.0,0.0,240.0,12.0,0.0
12782,61.0,0.0,120.0,13.0,0.0
12783,61.0,0.0,120.0,14.0,0.0
12784,70.0,0.0,120.0,5.0,0.0
12785,72.0,0.0,90.0,11.0,0.0
12786,63.0,0.0,90.0,7.0,0.0
12787,63.0,35.0,90.0,14.0,0.0
12788,63.0,0.0,90.0,13.0,0.0
12789,72.0,0.0,90.0,5.0,0.0
12790,68.0,0.0,90.0,11.0,0.0
12791,68.0,0.0,90.0,5.0,0.0
12792,60.0,0.0,90.0,13.0,0.0
12793,60.0,0.0,90.0,14.0,0.0
12794,60.0,5.0,90.0,7.0,0.0
12795,78.0,135.0,60.0,4.0,0.0
12796,63.0,0.0,60.0,12.0,0.0
12797,78.0,0.0,60.0,10.0,0.0
12798,75.0,0.0,60.0,6.0,0.0
12799,75.0,0.0,360.0,6.0,0.0
12800,60.0,0.0,240.0,7.0,0.0
12801,78.0,120.0,120.0,4.0,0.0
12802,60.0,0.0,240.0,13.0,0.0
12803,68.0,90.0,240.0,11.0,0.0
12804,68.0,0.0,240.0,5.0,0.0
12805,78.0,0.0,120.0,10.0,0.0
12806,63.0,0.0,360.0,12.0,0.0
12807,60.0,0.0,240.0,14.0,0.0
12808,75.0,0.0,120.0,4.0,0.0
12809,75.0,15.0,120.0,10.0,0.0
12810,77.0,0.0,120.0,4.0,0.0
12811,77.0,120.0,120.0,10.0,0.0
12812,80.0,0.0,60.0,5.0,0.0
12813,80.0,0.0,60.0,11.0,0.0
12814,60.0,15.0,60.0,7.0,0.0
12815,60.0,0.0,60.0,13.0,0.0
12816,60.0,0.0,60.0,14.0,0.0
12817,60.0,0.0,240.0,14.0,0.0
12818,60.0,0.0,240.0,13.0,0.0
12819,78.0,0.0,120.0,10.0,0.0
12820,60.0,0.0,240.0,7.0,0.0
12821,78.0,100.0,120.0,4.0,0.0
12822,75.0,85.0,240.0,11.0,0.0
12823,75.0,0.0,240.0,5.0,0.0
12824,87.0,0.0,90.0,10.0,0.0
12825,87.0,35.0,90.0,4.0,0.0
12826,68.0,0.0,150.0,12.0,0.0
12827,68.0,0.0,150.0,6.0,0.0
12828,77.0,5.0,90.0,10.0,0.0
12829,77.0,0.0,90.0,4.0,0.0
12830,72.0,0.0,60.0,5.0,0.0
12831,60.0,135.0,60.0,14.0,0.0
12832,60.0,0.0,60.0,7.0,0.0
12833,60.0,0.0,60.0,13.0,0.0
12834,72.0,0.0,60.0,11.0,0.0
12835,60.0,0.0,240.0,7.0,0.0
12836,78.0,0.0,120.0,10.0,0.0
12837,75.0,0.0,240.0,12.0,0.0
12838,68.0,0.0,240.0,5.0,0.0
12839,60.0,0.0,240.0,13.0,0.0
12840,60.0,0.0,240.0,14.0,0.0
12841,68.0,85.0,240.0,11.0,0.0
12842,78.0,120.0,120.0,4.0,0.0
12843,75.0,0.0,240.0,6.0,0.0
12844,77.0,15.0,120.0,4.0,0.0
12845,77.0,0.0,120.0,10.0,0.0
12846,75.0,5.0,90.0,4.0,0.0
12847,75.0,0.0,90.0,10.0,0.0
12848,75.0,0.0,60.0,12.0,0.0
12849,75.0,0.0,60.0,6.0,0.0
12850,60.0,0.0,60.0,14.0,0.0
12851,60.0,135.0,60.0,13.0,0.0
12852,68.0,0.0,60.0,11.0,0.0
12853,60.0,0.0,60.0,7.0,0.0
12854,68.0,0.0,60.0,5.0,0.0
12855,73.0,100.0,120.0,12.0,0.0
12856,73.0,0.0,120.0,6.0,0.0
12857,61.0,0.0,240.0,7.0,0.0
12858,77.0,0.0,120.0,10.0,0.0
12859,61.0,0.0,240.0,14.0,0.0
12860,61.0,85.0,240.0,13.0,0.0
12861,77.0,0.0,120.0,4.0,0.0
12862,68.0,0.0,120.0,5.0,0.0
12863,68.0,0.0,120.0,11.0,0.0
12864,77.0,0.0,120.0,6.0,0.0
12865,73.0,0.0,120.0,11.0,0.0
12866,77.0,15.0,120.0,12.0,0.0
12867,80.0,0.0,90.0,4.0,0.0
12868,80.0,20.0,90.0,10.0,0.0
12869,73.0,0.0,120.0,5.0,0.0
12870,75.0,5.0,90.0,11.0,0.0
12871,75.0,0.0,90.0,5.0,0.0
12872,78.0,0.0,90.0,10.0,0.0
12873,75.0,0.0,90.0,6.0,0.0
12874,75.0,0.0,90.0,12.0,0.0
12875,78.0,0.0,90.0,4.0,0.0
12876,56.0,135.0,60.0,13.0,0.0
12877,56.0,0.0,60.0,7.0,0.0
12878,56.0,0.0,60.0,14.0,0.0
12879,77.0,0.0,120.0,11.0,0.0
12880,56.0,0.0,120.0,14.0,0.0
12881,73.0,0.0,120.0,6.0,0.0
12882,73.0,0.0,120.0,12.0,0.0
12883,77.0,0.0,120.0,5.0,0.0
12884,56.0,0.0,120.0,13.0,0.0
12885,56.0,100.0,120.0,7.0,0.0
12886,80.0,0.0,840.0,4.0,0.0
12887,80.0,0.0,840.0,10.0,0.0
12888,58.0,0.0,90.0,13.0,0.0
12889,58.0,0.0,90.0,14.0,0.0
12890,78.0,0.0,90.0,11.0,0.0
12891,78.0,0.0,90.0,5.0,0.0
12892,75.0,120.0,90.0,6.0,0.0
12893,58.0,0.0,90.0,7.0,0.0
12894,75.0,0.0,90.0,12.0,0.0
12895,72.0,0.0,90.0,12.0,0.0
12896,75.0,140.0,90.0,11.0,0.0
12897,54.0,0.0,90.0,7.0,0.0
12898,75.0,0.0,90.0,5.0,0.0
12899,54.0,0.0,90.0,13.0,0.0
12900,54.0,0.0,90.0,14.0,0.0
12901,72.0,0.0,90.0,6.0,0.0
12902,54.0,0.0,120.0,13.0,0.0
12903,72.0,100.0,120.0,6.0,0.0
12904,54.0,0.0,120.0,7.0,0.0
12905,75.0,0.0,120.0,11.0,0.0
12906,72.0,0.0,120.0,12.0,0.0
12907,54.0,0.0,120.0,14.0,0.0
12908,75.0,0.0,120.0,5.0,0.0
12909,77.0,0.0,90.0,5.0,0.0
12910,73.0,120.0,90.0,6.0,0.0
12911,77.0,0.0,90.0,11.0,0.0
12912,56.0,0.0,90.0,13.0,0.0
12913,56.0,0.0,90.0,7.0,0.0
12914,56.0,0.0,90.0,14.0,0.0
12915,73.0,0.0,90.0,12.0,0.0
12916,68.0,0.0,90.0,6.0,0.0
12917,53.0,0.0,90.0,14.0,0.0
12918,68.0,0.0,90.0,12.0,0.0
12919,73.0,0.0,90.0,5.0,0.0
12920,53.0,140.0,90.0,7.0,0.0
12921,73.0,0.0,90.0,11.0,0.0
12922,53.0,0.0,90.0,13.0,0.0
12923,73.0,0.0,240.0,11.0,0.0
12924,73.0,85.0,240.0,5.0,0.0
12925,68.0,0.0,240.0,12.0,0.0
12926,53.0,0.0,120.0,7.0,0.0
12927,53.0,0.0,120.0,13.0,0.0
12928,53.0,120.0,120.0,14.0,0.0
12929,68.0,0.0,240.0,6.0,0.0
12930,54.0,0.0,120.0,7.0,0.0
12931,54.0,0.0,120.0,14.0,0.0
12932,54.0,15.0,120.0,13.0,0.0
12933,82.0,0.0,120.0,4.0,0.0
12934,82.0,0.0,120.0,10.0,0.0
12935,80.0,0.0,90.0,4.0,0.0
12936,56.0,120.0,120.0,7.0,0.0
12937,80.0,5.0,90.0,10.0,0.0
12938,56.0,0.0,120.0,13.0,0.0
12939,56.0,0.0,120.0,14.0,0.0
12940,65.0,0.0,60.0,12.0,0.0
12941,73.0,0.0,60.0,5.0,0.0
12942,77.0,0.0,60.0,6.0,0.0
12943,73.0,15.0,60.0,11.0,0.0
12944,78.0,0.0,240.0,6.0,0.0
12945,61.0,85.0,240.0,12.0,0.0
12946,73.0,0.0,240.0,5.0,0.0
12947,78.0,0.0,120.0,4.0,0.0
12948,78.0,0.0,120.0,10.0,0.0
12949,73.0,0.0,240.0,11.0,0.0
12950,58.0,100.0,120.0,13.0,0.0
12951,58.0,0.0,120.0,14.0,0.0
12952,58.0,0.0,120.0,7.0,0.0
12953,59.0,0.0,90.0,14.0,0.0
12954,59.0,0.0,90.0,7.0,0.0
12955,80.0,0.0,90.0,4.0,0.0
12956,80.0,0.0,90.0,10.0,0.0
12957,59.0,35.0,90.0,13.0,0.0
12958,56.0,5.0,90.0,14.0,0.0
12959,77.0,0.0,90.0,4.0,0.0
12960,77.0,0.0,90.0,10.0,0.0
12961,56.0,0.0,90.0,7.0,0.0
12962,56.0,0.0,90.0,13.0,0.0
12963,73.0,135.0,60.0,5.0,0.0
12964,73.0,0.0,60.0,11.0,0.0
12965,65.0,0.0,60.0,12.0,0.0
12966,68.0,0.0,60.0,6.0,0.0
12967,56.0,0.0,120.0,14.0,0.0
12968,73.0,85.0,240.0,5.0,0.0
12969,68.0,0.0,240.0,6.0,0.0
12970,56.0,100.0,120.0,13.0,0.0
12971,77.0,0.0,120.0,4.0,0.0
12972,68.0,0.0,240.0,12.0,0.0
12973,73.0,0.0,240.0,11.0,0.0
12974,77.0,0.0,120.0,10.0,0.0
12975,56.0,0.0,120.0,7.0,0.0
12976,78.0,0.0,90.0,4.0,0.0
12977,78.0,35.0,90.0,10.0,0.0
12978,58.0,0.0,90.0,14.0,0.0
12979,58.0,0.0,90.0,13.0,0.0
12980,58.0,0.0,90.0,7.0,0.0
12981,75.0,5.0,90.0,4.0,0.0
12982,55.0,0.0,90.0,14.0,0.0
12983,75.0,0.0,90.0,10.0,0.0
12984,55.0,0.0,90.0,7.0,0.0
12985,55.0,0.0,90.0,13.0,0.0
12986,70.0,0.0,60.0,6.0,0.0
12987,73.0,135.0,60.0,11.0,0.0
12988,70.0,0.0,60.0,12.0,0.0
12989,73.0,0.0,60.0,5.0,0.0
12990,73.0,120.0,120.0,5.0,0.0
12991,55.0,0.0,240.0,7.0,0.0
12992,70.0,0.0,360.0,12.0,0.0
12993,55.0,0.0,240.0,13.0,0.0
12994,55.0,90.0,240.0,14.0,0.0
12995,70.0,120.0,360.0,6.0,0.0
12996,75.0,120.0,1200.0,4.0,0.0
12997,75.0,0.0,1200.0,10.0,0.0
12998,73.0,0.0,120.0,11.0,0.0
12999,70.0,0.0,120.0,11.0,0.0
13000,70.0,15.0,120.0,5.0,0.0
13001,72.0,0.0,120.0,11.0,0.0
13002,72.0,0.0,120.0,5.0,0.0
13003,55.0,15.0,60.0,7.0,0.0
13004,55.0,0.0,60.0,14.0,0.0
13005,55.0,0.0,60.0,13.0,0.0
13006,73.0,0.0,120.0,5.0,0.0
13007,55.0,85.0,240.0,7.0,0.0
13008,73.0,100.0,120.0,11.0,0.0
13009,55.0,0.0,240.0,13.0,0.0
13010,55.0,0.0,240.0,14.0,0.0
13011,82.0,35.0,90.0,5.0,0.0
13012,82.0,0.0,90.0,11.0,0.0
13013,75.0,5.0,150.0,12.0,0.0
13014,75.0,0.0,150.0,6.0,0.0
13015,72.0,0.0,90.0,5.0,0.0
13016,72.0,0.0,90.0,11.0,0.0
13017,55.0,135.0,60.0,14.0,0.0
13018,55.0,0.0,60.0,7.0,0.0
13019,55.0,0.0,60.0,13.0,0.0
13020,55.0,0.0,240.0,14.0,0.0
13021,70.0,0.0,240.0,12.0,0.0
13022,55.0,0.0,240.0,7.0,0.0
13023,55.0,0.0,240.0,13.0,0.0
13024,73.0,120.0,120.0,11.0,0.0
13025,70.0,85.0,240.0,6.0,0.0
13026,73.0,0.0,120.0,5.0,0.0
13027,72.0,15.0,120.0,11.0,0.0
13028,72.0,0.0,120.0,5.0,0.0
13029,70.0,0.0,90.0,5.0,0.0
13030,70.0,5.0,90.0,11.0,0.0
13031,63.0,0.0,60.0,12.0,0.0
13032,55.0,135.0,60.0,7.0,0.0
13033,55.0,0.0,60.0,14.0,0.0
13034,75.0,0.0,60.0,6.0,0.0
13035,55.0,0.0,60.0,13.0,0.0
13036,56.0,15.0,240.0,13.0,0.0
13037,72.0,0.0,120.0,5.0,0.0
13038,68.0,0.0,360.0,6.0,0.0
13039,56.0,70.0,270.0,7.0,0.0
13040,68.0,120.0,360.0,12.0,0.0
13041,72.0,0.0,120.0,11.0,0.0
13042,56.0,0.0,240.0,14.0,0.0
13043,77.0,0.0,120.0,10.0,0.0
13044,68.0,0.0,120.0,5.0,0.0
13045,68.0,15.0,120.0,11.0,0.0
13046,77.0,0.0,120.0,4.0,0.0
13047,78.0,5.0,90.0,10.0,0.0
13048,70.0,0.0,120.0,11.0,0.0
13049,70.0,0.0,120.0,5.0,0.0
13050,78.0,0.0,90.0,4.0,0.0
13051,54.0,0.0,60.0,13.0,0.0
13052,54.0,15.0,60.0,14.0,0.0
13053,54.0,0.0,90.0,7.0,0.0
13054,53.0,0.0,240.0,7.0,0.0
13055,80.0,0.0,120.0,4.0,0.0
13056,80.0,0.0,120.0,10.0,0.0
13057,53.0,0.0,240.0,14.0,0.0
13058,71.0,0.0,120.0,11.0,0.0
13059,71.0,100.0,120.0,5.0,0.0
13060,53.0,85.0,240.0,13.0,0.0
13061,80.0,0.0,90.0,5.0,0.0
13062,77.0,15.0,120.0,4.0,0.0
13063,80.0,20.0,90.0,11.0,0.0
13064,77.0,0.0,120.0,10.0,0.0
13065,73.0,0.0,150.0,6.0,0.0
13066,73.0,0.0,150.0,12.0,0.0
13067,73.0,0.0,90.0,4.0,0.0
13068,70.0,0.0,90.0,11.0,0.0
13069,73.0,5.0,90.0,10.0,0.0
13070,70.0,0.0,90.0,5.0,0.0
13071,53.0,0.0,60.0,14.0,0.0
13072,53.0,0.0,60.0,7.0,0.0
13073,53.0,135.0,60.0,13.0,0.0
13074,53.0,0.0,240.0,14.0,0.0
13075,68.0,0.0,240.0,6.0,0.0
13076,85.0,20.0,1530.0,4.0,0.0
13077,71.0,0.0,120.0,5.0,0.0
13078,53.0,85.0,240.0,7.0,0.0
13079,71.0,120.0,120.0,11.0,0.0
13080,85.0,0.0,1530.0,10.0,0.0
13081,53.0,0.0,240.0,13.0,0.0
13082,68.0,0.0,240.0,12.0,0.0
13083,70.0,15.0,120.0,5.0,0.0
13084,70.0,0.0,120.0,11.0,0.0
13085,68.0,0.0,90.0,5.0,0.0
13086,68.0,5.0,90.0,11.0,0.0
13087,73.0,0.0,60.0,6.0,0.0
13088,53.0,0.0,60.0,7.0,0.0
13089,61.0,0.0,60.0,12.0,0.0
13090,53.0,0.0,60.0,13.0,0.0
13091,53.0,135.0,60.0,14.0,0.0
13092,70.0,90.0,240.0,5.0,0.0
13093,70.0,0.0,240.0,11.0,0.0
13094,54.0,120.0,120.0,7.0,0.0
13095,54.0,0.0,120.0,13.0,0.0
13096,66.0,0.0,240.0,12.0,0.0
13097,66.0,0.0,240.0,6.0,0.0
13098,54.0,0.0,120.0,14.0,0.0
13099,51.0,15.0,120.0,7.0,0.0
13100,51.0,0.0,120.0,13.0,0.0
13101,51.0,0.0,120.0,14.0,0.0
13102,53.0,120.0,120.0,7.0,0.0
13103,53.0,0.0,120.0,13.0,0.0
13104,53.0,0.0,120.0,14.0,0.0
13105,73.0,0.0,60.0,6.0,0.0
13106,73.0,0.0,60.0,12.0,0.0
13107,82.0,0.0,60.0,5.0,0.0
13108,82.0,15.0,60.0,11.0,0.0
13109,78.0,0.0,240.0,12.0,0.0
13110,78.0,85.0,240.0,6.0,0.0
13111,54.0,100.0,120.0,13.0,0.0
13112,82.0,0.0,120.0,5.0,0.0
13113,54.0,0.0,120.0,14.0,0.0
13114,82.0,0.0,120.0,11.0,0.0
13115,54.0,0.0,120.0,7.0,0.0
13116,56.0,0.0,90.0,14.0,0.0
13117,56.0,0.0,90.0,13.0,0.0
13118,83.0,0.0,90.0,5.0,0.0
13119,83.0,0.0,90.0,11.0,0.0
13120,56.0,35.0,90.0,7.0,0.0
13121,80.0,5.0,90.0,11.0,0.0
13122,53.0,0.0,90.0,13.0,0.0
13123,53.0,0.0,90.0,14.0,0.0
13124,80.0,0.0,90.0,5.0,0.0
13125,53.0,0.0,90.0,7.0,0.0
13126,73.0,0.0,60.0,12.0,0.0
13127,73.0,135.0,60.0,6.0,0.0
13128,53.0,0.0,120.0,7.0,0.0
13129,80.0,0.0,120.0,11.0,0.0
13130,73.0,0.0,240.0,12.0,0.0
13131,80.0,100.0,120.0,5.0,0.0
13132,53.0,0.0,120.0,14.0,0.0
13133,73.0,85.0,240.0,6.0,0.0
13134,53.0,0.0,120.0,13.0,0.0
13135,54.0,35.0,90.0,13.0,0.0
13136,82.0,0.0,90.0,5.0,0.0
13137,82.0,0.0,90.0,11.0,0.0
13138,54.0,0.0,90.0,7.0,0.0
13139,54.0,0.0,90.0,14.0,0.0
13140,51.0,0.0,90.0,14.0,0.0
13141,79.0,0.0,90.0,5.0,0.0
13142,51.0,0.0,90.0,13.0,0.0
13143,79.0,5.0,90.0,11.0,0.0
13144,51.0,0.0,90.0,7.0,0.0
13145,75.0,115.0,60.0,6.0,0.0
13146,75.0,0.0,60.0,12.0,0.0
13147,51.0,0.0,120.0,13.0,0.0
13148,51.0,0.0,120.0,14.0,0.0
13149,51.0,90.0,240.0,7.0,0.0
13150,75.0,0.0,120.0,12.0,0.0
13151,79.0,0.0,120.0,11.0,0.0
13152,75.0,0.0,120.0,6.0,0.0
13153,79.0,120.0,120.0,5.0,0.0
13154,75.0,15.0,120.0,5.0,0.0
13155,84.0,0.0,120.0,4.0,0.0
13156,84.0,0.0,120.0,10.0,0.0
13157,75.0,0.0,120.0,11.0,0.0
13158,85.0,0.0,120.0,4.0,0.0
13159,85.0,120.0,120.0,10.0,0.0
13160,77.0,0.0,120.0,11.0,0.0
13161,77.0,0.0,120.0,5.0,0.0
13162,63.0,15.0,60.0,7.0,0.0
13163,70.0,0.0,120.0,12.0,0.0
13164,70.0,0.0,120.0,6.0,0.0
13165,63.0,0.0,120.0,13.0,0.0
13166,79.0,0.0,120.0,5.0,0.0
13167,79.0,0.0,120.0,11.0,0.0
13168,87.0,0.0,120.0,10.0,0.0
13169,63.0,100.0,120.0,14.0,0.0
13170,87.0,0.0,120.0,4.0,0.0
13171,63.0,85.0,240.0,7.0,0.0
13172,89.0,0.0,90.0,4.0,0.0
13173,80.0,0.0,90.0,5.0,0.0
13174,80.0,0.0,90.0,11.0,0.0
13175,89.0,35.0,90.0,10.0,0.0
13176,82.0,0.0,90.0,11.0,0.0
13177,85.0,0.0,90.0,4.0,0.0
13178,85.0,0.0,90.0,10.0,0.0
13179,82.0,5.0,90.0,5.0,0.0
13180,63.0,135.0,60.0,7.0,0.0
13181,85.0,0.0,120.0,4.0,0.0
13182,63.0,0.0,120.0,7.0,0.0
13183,67.0,0.0,120.0,6.0,0.0
13184,85.0,100.0,120.0,10.0,0.0
13185,67.0,0.0,120.0,12.0,0.0
13186,51.0,0.0,120.0,14.0,0.0
13187,75.0,0.0,240.0,11.0,0.0
13188,75.0,85.0,240.0,5.0,0.0
13189,51.0,0.0,120.0,13.0,0.0
13190,87.0,35.0,90.0,10.0,0.0
13191,87.0,0.0,90.0,4.0,0.0
13192,84.0,5.0,90.0,10.0,0.0
13193,84.0,0.0,90.0,4.0,0.0
13194,79.0,0.0,60.0,5.0,0.0
13195,79.0,135.0,60.0,11.0,0.0
13196,84.0,120.0,120.0,10.0,0.0
13197,68.0,0.0,120.0,5.0,0.0
13198,56.0,0.0,120.0,13.0,0.0
13199,84.0,0.0,120.0,4.0,0.0
13200,63.0,0.0,120.0,12.0,0.0
13201,68.0,0.0,120.0,11.0,0.0
13202,75.0,0.0,120.0,6.0,0.0
13203,56.0,0.0,120.0,14.0,0.0
13204,80.0,0.0,120.0,4.0,0.0
13205,80.0,100.0,120.0,10.0,0.0
13206,72.0,0.0,120.0,11.0,0.0
13207,72.0,0.0,120.0,5.0,0.0
13208,75.0,5.0,90.0,11.0,0.0
13209,82.0,0.0,120.0,4.0,0.0
13210,82.0,120.0,120.0,10.0,0.0
13211,75.0,0.0,90.0,5.0,0.0
13212,56.0,15.0,60.0,7.0,0.0
13213,75.0,0.0,120.0,6.0,0.0
13214,56.0,85.0,240.0,7.0,0.0
13215,84.0,0.0,120.0,4.0,0.0
13216,84.0,0.0,120.0,10.0,0.0
13217,44.0,0.0,120.0,13.0,0.0
13218,75.0,0.0,120.0,12.0,0.0
13219,44.0,0.0,120.0,14.0,0.0
13220,80.0,0.0,120.0,11.0,0.0
13221,80.0,100.0,120.0,5.0,0.0
13222,85.0,0.0,90.0,10.0,0.0
13223,82.0,0.0,90.0,5.0,0.0
13224,85.0,0.0,90.0,4.0,0.0
13225,82.0,35.0,90.0,11.0,0.0
13226,87.0,0.0,90.0,4.0,0.0
13227,78.0,5.0,90.0,5.0,0.0
13228,87.0,0.0,90.0,10.0,0.0
13229,78.0,0.0,90.0,11.0,0.0
13230,56.0,135.0,60.0,7.0,0.0
13231,78.0,0.0,120.0,5.0,0.0
13232,56.0,0.0,120.0,13.0,0.0
13233,78.0,100.0,120.0,11.0,0.0
13234,72.0,0.0,120.0,6.0,0.0
13235,72.0,0.0,120.0,12.0,0.0
13236,80.0,85.0,240.0,10.0,0.0
13237,80.0,0.0,240.0,4.0,0.0
13238,56.0,0.0,120.0,14.0,0.0
13239,80.0,0.0,90.0,11.0,0.0
13240,80.0,35.0,90.0,5.0,0.0
13241,77.0,0.0,90.0,11.0,0.0
13242,77.0,5.0,90.0,5.0,0.0
13243,84.0,135.0,60.0,4.0,0.0
13244,84.0,0.0,60.0,10.0,0.0
13245,68.0,0.0,120.0,6.0,0.0
13246,61.0,0.0,120.0,13.0,0.0
13247,77.0,0.0,120.0,5.0,0.0
13248,73.0,120.0,120.0,4.0,0.0
13249,77.0,0.0,120.0,11.0,0.0
13250,61.0,0.0,120.0,14.0,0.0
13251,68.0,0.0,120.0,12.0,0.0
13252,73.0,0.0,120.0,10.0,0.0
13253,73.0,0.0,120.0,5.0,0.0
13254,77.0,0.0,120.0,4.0,0.0
13255,77.0,100.0,120.0,10.0,0.0
13256,73.0,0.0,120.0,11.0,0.0
13257,80.0,0.0,90.0,10.0,0.0
13258,75.0,120.0,120.0,5.0,0.0
13259,80.0,5.0,90.0,4.0,0.0
13260,75.0,0.0,120.0,11.0,0.0
13261,61.0,15.0,60.0,7.0,0.0
13262,85.0,0.0,120.0,10.0,0.0
13263,49.0,0.0,120.0,13.0,0.0
13264,61.0,85.0,240.0,7.0,0.0
13265,49.0,0.0,120.0,3.0,0.0
13266,77.0,100.0,120.0,11.0,0.0
13267,68.0,0.0,120.0,12.0,0.0
13268,80.0,0.0,120.0,1.0,0.0
13269,85.0,0.0,120.0,0.0,0.0
13270,68.0,0.0,120.0,6.0,0.0
13271,49.0,0.0,120.0,14.0,0.0
13272,85.0,0.0,120.0,4.0,0.0
13273,73.0,0.0,120.0,2.0,0.0
13274,77.0,0.0,120.0,5.0,0.0
13275,78.0,0.0,90.0,11.0,0.0
13276,87.0,0.0,90.0,10.0,0.0
13277,78.0,0.0,90.0,5.0,0.0
13278,87.0,35.0,90.0,4.0,0.0
13279,80.0,0.0,90.0,5.0,0.0
13280,83.0,5.0,90.0,10.0,0.0
13281,80.0,0.0,90.0,11.0,0.0
13282,83.0,0.0,90.0,4.0,0.0
13283,61.0,135.0,60.0,7.0,0.0
13284,83.0,0.0,120.0,0.0,0.0
13285,73.0,85.0,240.0,11.0,0.0
13286,49.0,0.0,120.0,3.0,0.0
13287,73.0,0.0,120.0,2.0,0.0
13288,68.0,0.0,120.0,6.0,0.0
13289,83.0,0.0,120.0,4.0,0.0
13290,73.0,0.0,240.0,5.0,0.0
13291,61.0,0.0,120.0,14.0,0.0
13292,83.0,0.0,120.0,10.0,0.0
13293,80.0,0.0,120.0,1.0,0.0
13294,65.0,0.0,120.0,12.0,0.0
13295,61.0,0.0,120.0,13.0,0.0
13296,61.0,100.0,120.0,7.0,0.0
13297,85.0,0.0,90.0,4.0,0.0
13298,85.0,35.0,90.0,10.0,0.0
13299,82.0,0.0,90.0,10.0,0.0
13300,82.0,5.0,90.0,4.0,0.0
13301,77.0,135.0,60.0,11.0,0.0
13302,77.0,0.0,60.0,5.0,0.0
13303,73.0,0.0,120.0,6.0,0.0
13304,66.0,120.0,120.0,5.0,0.0
13305,54.0,0.0,120.0,14.0,0.0
13306,73.0,0.0,120.0,2.0,0.0
13307,54.0,0.0,120.0,3.0,0.0
13308,82.0,0.0,120.0,0.0,0.0
13309,78.0,0.0,120.0,1.0,0.0
13310,66.0,0.0,120.0,11.0,0.0
13311,82.0,0.0,120.0,4.0,0.0
13312,54.0,0.0,120.0,13.0,0.0
13313,82.0,0.0,120.0,10.0,0.0
13314,61.0,0.0,120.0,12.0,0.0
13315,70.0,0.0,120.0,11.0,0.0
13316,78.0,100.0,120.0,10.0,0.0
13317,78.0,0.0,120.0,4.0,0.0
13318,70.0,0.0,120.0,5.0,0.0
13319,73.0,5.0,90.0,5.0,0.0
13320,82.0,0.0,90.0,4.0,0.0
13321,73.0,0.0,90.0,11.0,0.0
13322,82.0,0.0,90.0,10.0,0.0
13323,54.0,135.0,60.0,7.0,0.0
13324,87.0,0.0,120.0,4.0,0.0
13325,87.0,0.0,120.0,10.0,0.0
13326,78.0,100.0,120.0,1.0,0.0
13327,51.0,85.0,240.0,7.0,0.0
13328,78.0,0.0,120.0,5.0,0.0
13329,78.0,0.0,120.0,11.0,0.0
13330,87.0,0.0,120.0,0.0,0.0
13331,80.0,0.0,90.0,5.0,0.0
13332,89.0,35.0,90.0,4.0,0.0
13333,80.0,0.0,90.0,11.0,0.0
13334,89.0,0.0,90.0,10.0,0.0
13335,85.0,0.0,90.0,10.0,0.0
13336,85.0,0.0,90.0,4.0,0.0
13337,77.0,0.0,90.0,11.0,0.0
13338,77.0,5.0,90.0,5.0,0.0
13339,51.0,0.0,60.0,14.0,0.0
13340,66.0,135.0,60.0,6.0,0.0
13341,51.0,0.0,60.0,7.0,0.0
13342,66.0,0.0,60.0,12.0,0.0
13343,51.0,0.0,60.0,13.0,0.0
13344,53.0,0.0,240.0,7.0,0.0
13345,68.0,0.0,240.0,12.0,0.0
13346,68.0,0.0,240.0,6.0,0.0
13347,80.0,0.0,120.0,1.0,0.0
13348,77.0,0.0,120.0,11.0,0.0
13349,85.0,0.0,120.0,0.0,0.0
13350,53.0,0.0,240.0,14.0,0.0
13351,53.0,85.0,240.0,13.0,0.0
13352,85.0,0.0,120.0,4.0,0.0
13353,77.0,0.0,120.0,5.0,0.0
13354,85.0,100.0,120.0,10.0,0.0
13355,87.0,0.0,90.0,10.0,0.0
13356,78.0,0.0,90.0,11.0,0.0
13357,87.0,35.0,90.0,4.0,0.0
13358,78.0,0.0,90.0,5.0,0.0
13359,84.0,5.0,90.0,10.0,0.0
13360,84.0,0.0,90.0,4.0,0.0
13361,75.0,0.0,90.0,11.0,0.0
13362,75.0,0.0,90.0,5.0,0.0
13363,54.0,0.0,60.0,13.0,0.0
13364,75.0,0.0,60.0,6.0,0.0
13365,54.0,0.0,60.0,14.0,0.0
13366,54.0,135.0,60.0,7.0,0.0
13367,63.0,0.0,60.0,12.0,0.0
13368,56.0,85.0,240.0,7.0,0.0
13369,75.0,0.0,120.0,5.0,0.0
13370,84.0,0.0,120.0,10.0,0.0
13371,80.0,0.0,120.0,1.0,0.0
13372,84.0,0.0,120.0,0.0,0.0
13373,75.0,0.0,120.0,11.0,0.0
13374,68.0,120.0,120.0,12.0,0.0
13375,56.0,0.0,120.0,13.0,0.0
13376,68.0,0.0,120.0,6.0,0.0
13377,56.0,0.0,120.0,14.0,0.0
13378,84.0,0.0,120.0,4.0,0.0
13379,77.0,0.0,120.0,5.0,0.0
13380,77.0,0.0,120.0,11.0,0.0
13381,85.0,0.0,120.0,10.0,0.0
13382,85.0,15.0,120.0,4.0,0.0
13383,87.0,5.0,90.0,4.0,0.0
13384,78.0,0.0,90.0,5.0,0.0
13385,87.0,0.0,90.0,10.0,0.0
13386,78.0,0.0,90.0,11.0,0.0
13387,54.0,135.0,60.0,7.0,0.0
13388,89.0,0.0,120.0,0.0,0.0
13389,53.0,85.0,240.0,7.0,0.0
13390,89.0,100.0,120.0,4.0,0.0
13391,80.0,0.0,120.0,5.0,0.0
13392,89.0,0.0,120.0,10.0,0.0
13393,80.0,0.0,120.0,1.0,0.0
13394,80.0,0.0,120.0,11.0,0.0
13395,82.0,0.0,90.0,5.0,0.0
13396,90.0,35.0,90.0,10.0,0.0
13397,82.0,0.0,90.0,11.0,0.0
13398,90.0,0.0,90.0,4.0,0.0
13399,78.0,0.0,90.0,11.0,0.0
13400,78.0,0.0,90.0,5.0,0.0
13401,87.0,5.0,90.0,4.0,0.0
13402,87.0,0.0,90.0,10.0,0.0
13403,53.0,0.0,60.0,13.0,0.0
13404,53.0,0.0,60.0,7.0,0.0
13405,53.0,0.0,60.0,14.0,0.0
13406,68.0,135.0,60.0,6.0,0.0
13407,68.0,0.0,60.0,12.0,0.0
13408,54.0,85.0,240.0,14.0,0.0
13409,70.0,0.0,240.0,6.0,0.0
13410,78.0,0.0,120.0,5.0,0.0
13411,87.0,0.0,120.0,4.0,0.0
13412,78.0,100.0,120.0,11.0,0.0
13413,87.0,0.0,120.0,0.0,0.0
13414,54.0,0.0,240.0,13.0,0.0
13415,87.0,0.0,120.0,10.0,0.0
13416,54.0,0.0,240.0,7.0,0.0
13417,82.0,0.0,120.0,1.0,0.0
13418,70.0,0.0,240.0,12.0,0.0
13419,89.0,0.0,90.0,4.0,0.0
13420,89.0,35.0,90.0,10.0,0.0
13421,80.0,0.0,90.0,5.0,0.0
13422,80.0,0.0,90.0,11.0,0.0
13423,85.0,0.0,90.0,4.0,0.0
13424,77.0,0.0,90.0,5.0,0.0
13425,77.0,5.0,90.0,11.0,0.0
13426,85.0,0.0,90.0,10.0,0.0
13427,77.0,135.0,60.0,6.0,0.0
13428,56.0,0.0,60.0,13.0,0.0
13429,56.0,0.0,60.0,7.0,0.0
13430,65.0,0.0,60.0,12.0,0.0
13431,56.0,0.0,60.0,14.0,0.0
13432,82.0,0.0,120.0,1.0,0.0
13433,58.0,0.0,120.0,13.0,0.0
13434,85.0,85.0,240.0,4.0,0.0
13435,77.0,0.0,120.0,11.0,0.0
13436,77.0,0.0,120.0,5.0,0.0
13437,58.0,0.0,120.0,14.0,0.0
13438,70.0,120.0,120.0,6.0,0.0
13439,58.0,0.0,120.0,7.0,0.0
13440,85.0,0.0,120.0,0.0,0.0
13441,70.0,0.0,120.0,12.0,0.0
13442,85.0,0.0,240.0,10.0,0.0
13443,78.0,0.0,120.0,5.0,0.0
13444,78.0,15.0,120.0,11.0,0.0
13445,80.0,0.0,90.0,5.0,0.0
13446,80.0,5.0,90.0,11.0,0.0
13447,85.0,0.0,60.0,4.0,0.0
13448,85.0,135.0,60.0,10.0,0.0
13449,82.0,0.0,120.0,5.0,0.0
13450,82.0,0.0,120.0,1.0,0.0
13451,85.0,0.0,240.0,10.0,0.0
13452,85.0,85.0,240.0,4.0,0.0
13453,54.0,0.0,120.0,14.0,0.0
13454,54.0,100.0,120.0,13.0,0.0
13455,54.0,0.0,120.0,7.0,0.0
13456,82.0,0.0,120.0,11.0,0.0
13457,85.0,0.0,120.0,0.0,0.0
13458,83.0,35.0,90.0,5.0,0.0
13459,83.0,0.0,90.0,11.0,0.0
13460,80.0,0.0,90.0,11.0,0.0
13461,80.0,5.0,90.0,5.0,0.0
13462,73.0,0.0,60.0,12.0,0.0
13463,73.0,135.0,60.0,6.0,0.0
13464,85.0,0.0,60.0,4.0,0.0
13465,85.0,0.0,60.0,10.0,0.0
13466,77.0,0.0,240.0,6.0,0.0
13467,85.0,0.0,240.0,10.0,0.0
13468,80.0,0.0,120.0,11.0,0.0
13469,85.0,85.0,240.0,4.0,0.0
13470,77.0,0.0,240.0,12.0,0.0
13471,53.0,0.0,120.0,13.0,0.0
13472,85.0,0.0,120.0,0.0,0.0
13473,53.0,100.0,120.0,7.0,0.0
13474,80.0,0.0,120.0,1.0,0.0
13475,53.0,0.0,120.0,14.0,0.0
13476,80.0,0.0,120.0,5.0,0.0
13477,82.0,35.0,90.0,5.0,0.0
13478,82.0,0.0,90.0,11.0,0.0
13479,78.0,5.0,90.0,11.0,0.0
13480,78.0,0.0,90.0,5.0,0.0
13481,70.0,135.0,60.0,6.0,0.0
13482,70.0,0.0,60.0,12.0,0.0
13483,85.0,0.0,60.0,4.0,0.0
13484,85.0,0.0,60.0,10.0,0.0
13485,70.0,0.0,240.0,12.0,0.0
13486,78.0,0.0,240.0,11.0,0.0
13487,70.0,0.0,240.0,6.0,0.0
13488,51.0,0.0,120.0,13.0,0.0
13489,78.0,0.0,120.0,1.0,0.0
13490,51.0,0.0,120.0,14.0,0.0
13491,78.0,85.0,240.0,5.0,0.0
13492,85.0,120.0,120.0,0.0,0.0
13493,85.0,0.0,120.0,4.0,0.0
13494,51.0,0.0,120.0,7.0,0.0
13495,85.0,0.0,120.0,10.0,0.0
13496,87.0,0.0,120.0,10.0,0.0
13497,54.0,15.0,120.0,7.0,0.0
13498,54.0,0.0,120.0,14.0,0.0
13499,87.0,0.0,120.0,4.0,0.0
13500,54.0,0.0,120.0,13.0,0.0
13501,58.0,120.0,120.0,14.0,0.0
13502,85.0,5.0,90.0,10.0,0.0
13503,85.0,0.0,90.0,4.0,0.0
13504,58.0,0.0,120.0,13.0,0.0
13505,58.0,0.0,120.0,7.0,0.0
13506,75.0,15.0,60.0,12.0,0.0
13507,78.0,0.0,60.0,11.0,0.0
13508,78.0,0.0,60.0,5.0,0.0
13509,75.0,0.0,60.0,6.0,0.0
13510,63.0,100.0,120.0,7.0,0.0
13511,78.0,85.0,240.0,11.0,0.0
13512,63.0,0.0,120.0,14.0,0.0
13513,63.0,0.0,120.0,13.0,0.0
13514,75.0,0.0,240.0,6.0,0.0
13515,80.0,0.0,120.0,1.0,0.0
13516,84.0,0.0,120.0,10.0,0.0
13517,75.0,0.0,240.0,12.0,0.0
13518,78.0,0.0,240.0,5.0,0.0
13519,84.0,0.0,120.0,4.0,0.0
13520,84.0,0.0,120.0,0.0,0.0
13521,65.0,0.0,120.0,13.0,0.0
13522,85.0,20.0,90.0,4.0,0.0
13523,85.0,0.0,90.0,10.0,0.0
13524,65.0,0.0,120.0,7.0,0.0
13525,65.0,15.0,120.0,14.0,0.0
13526,61.0,0.0,120.0,13.0,0.0
13527,82.0,0.0,90.0,10.0,0.0
13528,82.0,5.0,90.0,4.0,0.0
13529,61.0,120.0,120.0,7.0,0.0
13530,61.0,0.0,120.0,14.0,0.0
13531,75.0,0.0,60.0,12.0,0.0
13532,78.0,0.0,60.0,11.0,0.0
13533,75.0,0.0,60.0,6.0,0.0
13534,78.0,15.0,60.0,5.0,0.0
13535,75.0,0.0,240.0,6.0,0.0
13536,85.0,0.0,120.0,0.0,0.0
13537,82.0,100.0,120.0,1.0,0.0
13538,82.0,0.0,120.0,10.0,0.0
13539,78.0,0.0,240.0,5.0,0.0
13540,75.0,85.0,240.0,12.0,0.0
13541,61.0,0.0,120.0,14.0,0.0
13542,61.0,0.0,120.0,7.0,0.0
13543,78.0,0.0,240.0,11.0,0.0
13544,61.0,0.0,120.0,13.0,0.0
13545,82.0,0.0,120.0,4.0,0.0
13546,84.0,0.0,90.0,4.0,0.0
13547,63.0,15.0,120.0,14.0,0.0
13548,84.0,20.0,90.0,10.0,0.0
13549,63.0,0.0,120.0,13.0,0.0
13550,63.0,0.0,120.0,7.0,0.0
13551,60.0,120.0,120.0,14.0,0.0
13552,60.0,0.0,120.0,13.0,0.0
13553,60.0,0.0,120.0,7.0,0.0
13554,80.0,0.0,90.0,4.0,0.0
13555,80.0,5.0,90.0,10.0,0.0
13556,78.0,15.0,60.0,11.0,0.0
13557,78.0,0.0,60.0,5.0,0.0
13558,75.0,0.0,60.0,6.0,0.0
13559,75.0,0.0,60.0,12.0,0.0
13560,87.0,20.0,810.0,0.0,0.0
13561,60.0,0.0,120.0,13.0,0.0
13562,80.0,0.0,1320.0,1.0,0.0
13563,60.0,0.0,120.0,14.0,0.0
13564,80.0,90.0,240.0,10.0,0.0
13565,60.0,0.0,120.0,7.0,0.0
13566,78.0,0.0,120.0,5.0,0.0
13567,75.0,0.0,120.0,12.0,0.0
13568,75.0,120.0,120.0,6.0,0.0
13569,78.0,0.0,120.0,11.0,0.0
13570,80.0,0.0,240.0,4.0,0.0
13571,72.0,0.0,120.0,12.0,0.0
13572,72.0,15.0,120.0,6.0,0.0
13573,75.0,0.0,120.0,11.0,0.0
13574,75.0,0.0,120.0,5.0,0.0
13575,73.0,0.0,120.0,12.0,0.0
13576,77.0,120.0,120.0,11.0,0.0
13577,73.0,0.0,120.0,6.0,0.0
13578,77.0,0.0,120.0,5.0,0.0
13579,80.0,0.0,60.0,4.0,0.0
13580,80.0,15.0,60.0,10.0,0.0
13581,80.0,0.0,240.0,4.0,0.0
13582,75.0,0.0,120.0,12.0,0.0
13583,78.0,0.0,120.0,5.0,0.0
13584,80.0,85.0,240.0,10.0,0.0
13585,75.0,0.0,120.0,6.0,0.0
13586,78.0,100.0,120.0,11.0,0.0
13587,77.0,0.0,90.0,6.0,0.0
13588,77.0,0.0,90.0,12.0,0.0
13589,80.0,35.0,90.0,5.0,0.0
13590,80.0,0.0,90.0,11.0,0.0
13591,73.0,0.0,90.0,6.0,0.0
13592,77.0,0.0,90.0,11.0,0.0
13593,73.0,0.0,90.0,12.0,0.0
13594,77.0,5.0,90.0,5.0,0.0
13595,80.0,0.0,60.0,10.0,0.0
13596,80.0,0.0,60.0,4.0,0.0
13597,56.0,0.0,60.0,14.0,0.0
13598,56.0,115.0,60.0,13.0,0.0
13599,56.0,0.0,60.0,7.0,0.0
13600,78.0,0.0,120.0,11.0,0.0
13601,80.0,0.0,240.0,4.0,0.0
13602,53.0,0.0,240.0,7.0,0.0
13603,75.0,0.0,120.0,6.0,0.0
13604,78.0,100.0,120.0,5.0,0.0
13605,80.0,85.0,240.0,10.0,0.0
13606,53.0,0.0,240.0,14.0,0.0
13607,53.0,0.0,240.0,13.0,0.0
13608,75.0,0.0,120.0,12.0,0.0
13609,77.0,15.0,120.0,5.0,0.0
13610,89.0,20.0,90.0,0.0,0.0
13611,77.0,0.0,120.0,11.0,0.0
13612,73.0,0.0,120.0,6.0,0.0
13613,73.0,0.0,120.0,12.0,0.0
13614,72.0,0.0,90.0,6.0,0.0
13615,72.0,5.0,90.0,12.0,0.0
13616,75.0,0.0,90.0,11.0,0.0
13617,75.0,0.0,90.0,5.0,0.0
13618,90.0,0.0,90.0,0.0,0.0
13619,56.0,135.0,60.0,14.0,0.0
13620,56.0,0.0,60.0,13.0,0.0
13621,56.0,0.0,60.0,7.0,0.0
13622,80.0,0.0,60.0,4.0,0.0
13623,80.0,0.0,60.0,10.0,0.0
13624,77.0,100.0,120.0,11.0,0.0
13625,73.0,0.0,240.0,6.0,0.0
13626,89.0,0.0,240.0,0.0,0.0
13627,49.0,85.0,240.0,7.0,0.0
13628,73.0,0.0,240.0,12.0,0.0
13629,77.0,0.0,120.0,5.0,0.0
13630,80.0,0.0,120.0,10.0,0.0
13631,80.0,0.0,120.0,4.0,0.0
13632,49.0,0.0,240.0,14.0,0.0
13633,49.0,0.0,240.0,13.0,0.0
13634,85.0,0.0,90.0,4.0,0.0
13635,85.0,35.0,90.0,10.0,0.0
13636,80.0,0.0,90.0,5.0,0.0
13637,80.0,0.0,90.0,11.0,0.0
13638,84.0,5.0,90.0,10.0,0.0
13639,78.0,0.0,90.0,11.0,0.0
13640,78.0,0.0,90.0,5.0,0.0
13641,84.0,0.0,90.0,4.0,0.0
13642,51.0,0.0,60.0,7.0,0.0
13643,68.0,0.0,60.0,6.0,0.0
13644,87.0,135.0,60.0,0.0,0.0
13645,51.0,0.0,60.0,14.0,0.0
13646,68.0,0.0,60.0,12.0,0.0
13647,51.0,0.0,60.0,13.0,0.0
13648,80.0,0.0,60.0,1.0,0.0
13649,68.0,0.0,240.0,12.0,0.0
13650,53.0,0.0,240.0,14.0,0.0
13651,80.0,0.0,240.0,5.0,0.0
13652,53.0,0.0,240.0,13.0,0.0
13653,85.0,0.0,120.0,4.0,0.0
13654,53.0,85.0,240.0,7.0,0.0
13655,85.0,120.0,120.0,10.0,0.0
13656,85.0,0.0,240.0,0.0,0.0
13657,80.0,0.0,240.0,1.0,0.0
13658,80.0,0.0,240.0,11.0,0.0
13659,68.0,0.0,240.0,6.0,0.0
13660,80.0,15.0,120.0,10.0,0.0
13661,80.0,0.0,120.0,4.0,0.0
13662,82.0,5.0,90.0,10.0,0.0
13663,82.0,0.0,90.0,4.0,0.0
13664,73.0,0.0,60.0,12.0,0.0
13665,73.0,0.0,60.0,5.0,0.0
13666,87.0,0.0,60.0,0.0,0.0
13667,54.0,0.0,60.0,13.0,0.0
13668,54.0,0.0,60.0,14.0,0.0
13669,54.0,0.0,60.0,7.0,0.0
13670,82.0,0.0,60.0,1.0,0.0
13671,73.0,0.0,60.0,6.0,0.0
13672,73.0,135.0,60.0,11.0,0.0
13673,56.0,0.0,240.0,13.0,0.0
13674,80.0,0.0,240.0,1.0,0.0
13675,77.0,0.0,120.0,10.0,0.0
13676,68.0,0.0,240.0,11.0,0.0
13677,73.0,0.0,240.0,12.0,0.0
13678,56.0,0.0,240.0,7.0,0.0
13679,84.0,85.0,240.0,0.0,0.0
13680,77.0,120.0,120.0,4.0,0.0
13681,68.0,0.0,240.0,5.0,0.0
13682,56.0,0.0,240.0,14.0,0.0
13683,73.0,0.0,240.0,6.0,0.0
13684,75.0,0.0,120.0,4.0,0.0
13685,75.0,15.0,120.0,10.0,0.0
13686,73.0,5.0,90.0,10.0,0.0
13687,73.0,0.0,90.0,4.0,0.0
13688,72.0,0.0,60.0,5.0,0.0
13689,68.0,0.0,60.0,12.0,0.0
13690,72.0,0.0,60.0,11.0,0.0
13691,44.0,0.0,60.0,7.0,0.0
13692,80.0,0.0,60.0,1.0,0.0
13693,85.0,0.0,60.0,0.0,0.0
13694,44.0,135.0,60.0,13.0,0.0
13695,44.0,0.0,60.0,14.0,0.0
13696,68.0,0.0,60.0,6.0,0.0
13697,49.0,0.0,360.0,7.0,0.0
13698,65.0,0.0,240.0,12.0,0.0
13699,73.0,0.0,360.0,5.0,0.0
13700,68.0,0.0,360.0,6.0,0.0
13701,49.0,0.0,120.0,3.0,0.0
13702,68.0,90.0,240.0,11.0,0.0
13703,73.0,0.0,360.0,4.0,0.0
13704,80.0,0.0,120.0,1.0,0.0
13705,49.0,120.0,360.0,13.0,0.0
13706,73.0,135.0,120.0,2.0,0.0
13707,49.0,0.0,360.0,14.0,0.0
13708,85.0,0.0,120.0,0.0,0.0
13709,73.0,0.0,240.0,10.0,0.0
13710,73.0,0.0,60.0,10.0,0.0
13711,65.0,0.0,60.0,12.0,0.0
13712,68.0,15.0,60.0,11.0,0.0
13713,65.0,0.0,120.0,12.0,0.0
13714,68.0,100.0,120.0,11.0,0.0
13715,73.0,0.0,120.0,10.0,0.0
13716,68.0,120.0,90.0,12.0,0.0
13717,73.0,0.0,90.0,11.0,0.0
13718,77.0,0.0,90.0,10.0,0.0
13719,75.0,0.0,90.0,10.0,0.0
13720,72.0,140.0,90.0,11.0,0.0
13721,66.0,0.0,90.0,12.0,0.0
13722,75.0,100.0,120.0,10.0,0.0
13723,66.0,0.0,120.0,12.0,0.0
13724,72.0,0.0,120.0,11.0,0.0
13725,75.0,0.0,90.0,11.0,0.0
13726,70.0,0.0,90.0,12.0,0.0
13727,78.0,120.0,90.0,10.0,0.0
13728,77.0,0.0,90.0,10.0,0.0
13729,73.0,0.0,90.0,11.0,0.0
13730,68.0,140.0,90.0,12.0,0.0
13731,77.0,0.0,120.0,10.0,0.0
13732,73.0,0.0,120.0,11.0,0.0
13733,49.0,0.0,120.0,3.0,0.0
13734,73.0,0.0,120.0,2.0,0.0
13735,49.0,0.0,360.0,13.0,0.0
13736,85.0,0.0,120.0,0.0,0.0
13737,80.0,0.0,120.0,1.0,0.0
13738,49.0,0.0,360.0,7.0,0.0
13739,49.0,120.0,360.0,14.0,0.0
13740,68.0,225.0,120.0,12.0,0.0
13741,77.0,15.0,60.0,4.0,0.0
13742,73.0,0.0,60.0,5.0,0.0
13743,68.0,0.0,60.0,6.0,0.0
13744,77.0,0.0,120.0,4.0,0.0
13745,73.0,100.0,120.0,5.0,0.0
13746,68.0,85.0,240.0,6.0,0.0
13747,80.0,35.0,90.0,4.0,0.0
13748,77.0,0.0,90.0,5.0,0.0
13749,75.0,5.0,90.0,5.0,0.0
13750,78.0,0.0,90.0,4.0,0.0
13751,72.0,135.0,60.0,6.0,0.0
13752,78.0,0.0,120.0,4.0,0.0
13753,75.0,100.0,120.0,5.0,0.0
13754,72.0,85.0,240.0,6.0,0.0
13755,82.0,35.0,90.0,4.0,0.0
13756,78.0,0.0,90.0,5.0,0.0
13757,77.0,5.0,90.0,5.0,0.0
13758,80.0,0.0,90.0,4.0,0.0
13759,73.0,135.0,60.0,6.0,0.0
13760,80.0,0.0,120.0,4.0,0.0
13761,49.0,0.0,120.0,3.0,0.0
13762,49.0,0.0,360.0,13.0,0.0
13763,49.0,0.0,360.0,14.0,0.0
13764,49.0,120.0,360.0,7.0,0.0
13765,73.0,220.0,120.0,6.0,0.0
13766,77.0,0.0,120.0,5.0,0.0
13767,80.0,0.0,90.0,0.0,0.0
13768,73.0,5.0,90.0,1.0,0.0
13769,80.0,0.0,60.0,10.0,0.0
13770,73.0,0.0,60.0,12.0,0.0
13771,73.0,15.0,60.0,2.0,0.0
13772,77.0,0.0,60.0,11.0,0.0
13773,77.0,100.0,120.0,11.0,0.0
13774,73.0,85.0,240.0,2.0,0.0
13775,73.0,0.0,120.0,1.0,0.0
13776,73.0,0.0,240.0,12.0,0.0
13777,80.0,0.0,120.0,0.0,0.0
13778,80.0,0.0,120.0,10.0,0.0
13779,83.0,0.0,90.0,0.0,0.0
13780,80.0,0.0,90.0,1.0,0.0
13781,83.0,0.0,90.0,10.0,0.0
13782,80.0,35.0,90.0,11.0,0.0
13783,78.0,0.0,90.0,11.0,0.0
13784,82.0,0.0,90.0,10.0,0.0
13785,78.0,5.0,90.0,1.0,0.0
13786,82.0,0.0,90.0,0.0,0.0
13787,73.0,0.0,60.0,12.0,0.0
13788,73.0,135.0,60.0,2.0,0.0
13789,82.0,0.0,120.0,0.0,0.0
13790,78.0,0.0,120.0,11.0,0.0
13791,78.0,100.0,120.0,1.0,0.0
13792,73.0,0.0,240.0,12.0,0.0
13793,73.0,85.0,240.0,2.0,0.0
13794,82.0,0.0,120.0,10.0,0.0
13795,82.0,0.0,90.0,11.0,0.0
13796,85.0,0.0,90.0,0.0,0.0
13797,82.0,35.0,90.0,1.0,0.0
13798,85.0,0.0,90.0,10.0,0.0
13799,80.0,5.0,90.0,1.0,0.0
13800,83.0,0.0,90.0,10.0,0.0
13801,83.0,0.0,90.0,0.0,0.0
13802,80.0,0.0,90.0,11.0,0.0
13803,73.0,0.0,60.0,12.0,0.0
13804,73.0,135.0,60.0,2.0,0.0
13805,80.0,85.0,240.0,11.0,0.0
13806,83.0,0.0,120.0,10.0,0.0
13807,73.0,0.0,240.0,12.0,0.0
13808,83.0,0.0,120.0,0.0,0.0
13809,73.0,0.0,120.0,2.0,0.0
13810,80.0,100.0,120.0,1.0,0.0
13811,87.0,35.0,90.0,10.0,0.0
13812,85.0,5.0,90.0,10.0,0.0
13813,49.0,0.0,60.0,13.0,0.0
13814,49.0,0.0,60.0,14.0,0.0
13815,85.0,0.0,60.0,4.0,0.0
13816,77.0,135.0,60.0,5.0,0.0
13817,73.0,0.0,60.0,6.0,0.0
13818,73.0,0.0,60.0,12.0,0.0
13819,49.0,0.0,60.0,7.0,0.0
13820,77.0,0.0,60.0,11.0,0.0
13821,80.0,85.0,240.0,11.0,0.0
13822,85.0,0.0,120.0,4.0,0.0
13823,85.0,0.0,120.0,0.0,0.0
13824,85.0,0.0,120.0,10.0,0.0
13825,80.0,0.0,120.0,1.0,0.0
13826,80.0,0.0,240.0,5.0,0.0
13827,53.0,0.0,240.0,13.0,0.0
13828,73.0,0.0,240.0,6.0,0.0
13829,73.0,0.0,120.0,2.0,0.0
13830,53.0,0.0,240.0,7.0,0.0
13831,73.0,0.0,240.0,12.0,0.0
13832,49.0,100.0,120.0,3.0,0.0
13833,53.0,0.0,240.0,14.0,0.0
13834,87.0,0.0,90.0,4.0,0.0
13835,87.0,35.0,90.0,10.0,0.0
13836,83.0,5.0,90.0,4.0,0.0
13837,83.0,0.0,90.0,10.0,0.0
13838,56.0,0.0,60.0,14.0,0.0
13839,73.0,0.0,60.0,6.0,0.0
13840,73.0,0.0,60.0,12.0,0.0
13841,77.0,0.0,60.0,11.0,0.0
13842,77.0,0.0,60.0,5.0,0.0
13843,56.0,0.0,60.0,7.0,0.0
13844,56.0,135.0,60.0,13.0,0.0
13845,73.0,0.0,240.0,11.0,0.0
13846,73.0,0.0,120.0,2.0,0.0
13847,53.0,0.0,240.0,14.0,0.0
13848,53.0,0.0,240.0,13.0,0.0
13849,73.0,0.0,240.0,6.0,0.0
13850,73.0,0.0,240.0,12.0,0.0
13851,80.0,0.0,120.0,1.0,0.0
13852,49.0,0.0,120.0,3.0,0.0
13853,83.0,100.0,120.0,10.0,0.0
13854,83.0,0.0,120.0,0.0,0.0
13855,73.0,0.0,240.0,5.0,0.0
13856,83.0,0.0,120.0,4.0,0.0
13857,53.0,85.0,240.0,7.0,0.0
13858,85.0,35.0,90.0,10.0,0.0
13859,85.0,0.0,90.0,4.0,0.0
13860,82.0,0.0,90.0,4.0,0.0
13861,82.0,5.0,90.0,10.0,0.0
13862,49.0,0.0,60.0,13.0,0.0
13863,73.0,0.0,60.0,12.0,0.0
13864,49.0,0.0,60.0,14.0,0.0
13865,49.0,0.0,60.0,7.0,0.0
13866,73.0,135.0,60.0,6.0,0.0
13867,77.0,0.0,60.0,5.0,0.0
13868,77.0,0.0,60.0,11.0,0.0
13869,82.0,0.0,240.0,4.0,0.0
13870,54.0,120.0,360.0,13.0,0.0
13871,78.0,0.0,240.0,1.0,0.0
13872,82.0,0.0,240.0,0.0,0.0
13873,78.0,0.0,120.0,11.0,0.0
13874,82.0,0.0,120.0,10.0,0.0
13875,73.0,90.0,240.0,6.0,0.0
13876,73.0,0.0,240.0,2.0,0.0
13877,73.0,135.0,120.0,12.0,0.0
13878,54.0,0.0,360.0,14.0,0.0
13879,54.0,0.0,120.0,3.0,0.0
13880,54.0,0.0,360.0,7.0,0.0
13881,78.0,0.0,240.0,5.0,0.0
13882,73.0,0.0,60.0,5.0,0.0
13883,73.0,15.0,60.0,2.0,0.0
13884,78.0,0.0,60.0,0.0,0.0
13885,70.0,0.0,60.0,6.0,0.0
13886,70.0,0.0,60.0,1.0,0.0
13887,78.0,0.0,60.0,4.0,0.0
13888,73.0,85.0,240.0,2.0,0.0
13889,70.0,100.0,120.0,6.0,0.0
13890,73.0,0.0,120.0,5.0,0.0
13891,78.0,0.0,120.0,4.0,0.0
13892,78.0,0.0,120.0,0.0,0.0
13893,70.0,0.0,120.0,1.0,0.0
13894,78.0,0.0,90.0,1.0,0.0
13895,73.0,35.0,90.0,6.0,0.0
13896,82.0,0.0,90.0,4.0,0.0
13897,78.0,0.0,90.0,5.0,0.0
13898,82.0,0.0,90.0,0.0,0.0
13899,77.0,0.0,90.0,5.0,0.0
13900,80.0,5.0,90.0,0.0,0.0
13901,80.0,0.0,90.0,4.0,0.0
13902,73.0,0.0,90.0,1.0,0.0
13903,71.0,0.0,90.0,6.0,0.0
13904,73.0,135.0,60.0,2.0,0.0
13905,80.0,0.0,120.0,4.0,0.0
13906,71.0,0.0,120.0,6.0,0.0
13907,73.0,0.0,120.0,1.0,0.0
13908,73.0,85.0,240.0,2.0,0.0
13909,77.0,100.0,120.0,5.0,0.0
13910,80.0,0.0,120.0,0.0,0.0
13911,75.0,35.0,90.0,6.0,0.0
13912,80.0,0.0,90.0,1.0,0.0
13913,83.0,0.0,90.0,0.0,0.0
13914,80.0,0.0,90.0,5.0,0.0
13915,83.0,0.0,90.0,4.0,0.0
13916,78.0,5.0,90.0,1.0,0.0
13917,73.0,0.0,90.0,6.0,0.0
13918,82.0,0.0,90.0,0.0,0.0
13919,78.0,0.0,90.0,5.0,0.0
13920,82.0,0.0,90.0,4.0,0.0
13921,73.0,135.0,60.0,2.0,0.0
13922,54.0,0.0,360.0,13.0,0.0
13923,78.0,0.0,120.0,1.0,0.0
13924,54.0,120.0,360.0,14.0,0.0
13925,73.0,0.0,120.0,6.0,0.0
13926,54.0,0.0,360.0,7.0,0.0
13927,82.0,0.0,120.0,4.0,0.0
13928,78.0,0.0,120.0,5.0,0.0
13929,82.0,0.0,120.0,0.0,0.0
13930,73.0,225.0,120.0,2.0,0.0
13931,54.0,0.0,120.0,3.0,0.0
13932,73.0,0.0,60.0,12.0,0.0
13933,82.0,15.0,60.0,10.0,0.0
13934,78.0,0.0,60.0,11.0,0.0
13935,73.0,85.0,240.0,12.0,0.0
13936,82.0,0.0,120.0,10.0,0.0
13937,78.0,100.0,120.0,11.0,0.0
13938,82.0,0.0,90.0,11.0,0.0
13939,85.0,35.0,90.0,10.0,0.0
13940,80.0,0.0,90.0,11.0,0.0
13941,83.0,5.0,90.0,10.0,0.0
13942,77.0,135.0,60.0,12.0,0.0
13943,83.0,100.0,120.0,10.0,0.0
13944,80.0,0.0,120.0,11.0,0.0
13945,77.0,85.0,240.0,12.0,0.0
13946,83.0,0.0,90.0,11.0,0.0
13947,87.0,35.0,90.0,10.0,0.0
13948,82.0,0.0,90.0,11.0,0.0
13949,85.0,5.0,90.0,10.0,0.0
13950,78.0,135.0,60.0,12.0,0.0
13951,78.0,0.0,120.0,12.0,0.0
13952,85.0,0.0,120.0,10.0,0.0
13953,82.0,0.0,120.0,11.0,0.0
13954,54.0,0.0,360.0,13.0,0.0
13955,54.0,0.0,360.0,7.0,0.0
13956,54.0,225.0,120.0,3.0,0.0
13957,54.0,120.0,360.0,14.0,0.0
13958,70.0,0.0,60.0,5.0,0.0
13959,73.0,15.0,60.0,4.0,0.0
13960,66.0,0.0,60.0,6.0,0.0
13961,73.0,100.0,120.0,4.0,0.0
13962,66.0,85.0,240.0,6.0,0.0
13963,70.0,0.0,120.0,5.0,0.0
13964,73.0,0.0,90.0,5.0,0.0
13965,76.0,35.0,90.0,4.0,0.0
13966,71.0,5.0,90.0,5.0,0.0
13967,75.0,0.0,90.0,4.0,0.0
13968,66.0,135.0,60.0,6.0,0.0
13969,66.0,85.0,240.0,6.0,0.0
13970,75.0,0.0,120.0,4.0,0.0
13971,71.0,100.0,120.0,5.0,0.0
13972,75.0,35.0,90.0,5.0,0.0
13973,78.0,0.0,90.0,4.0,0.0
13974,76.0,0.0,90.0,4.0,0.0
13975,73.0,5.0,90.0,5.0,0.0
13976,66.0,135.0,60.0,6.0,0.0
13977,76.0,120.0,120.0,4.0,0.0
13978,66.0,0.0,240.0,6.0,0.0
13979,73.0,85.0,240.0,5.0,0.0
13980,80.0,15.0,120.0,4.0,0.0
13981,78.0,5.0,90.0,4.0,0.0
13982,66.0,0.0,60.0,12.0,0.0
13983,78.0,0.0,60.0,10.0,0.0
13984,66.0,0.0,60.0,6.0,0.0
13985,54.0,135.0,60.0,13.0,0.0
13986,70.0,0.0,60.0,5.0,0.0
13987,54.0,0.0,60.0,7.0,0.0
13988,54.0,0.0,60.0,14.0,0.0
13989,70.0,0.0,60.0,11.0,0.0
13990,58.0,0.0,240.0,13.0,0.0
13991,78.0,0.0,120.0,10.0,0.0
13992,66.0,0.0,240.0,12.0,0.0
13993,78.0,0.0,120.0,4.0,0.0
13994,82.0,0.0,120.0,1.0,0.0
13995,54.0,0.0,120.0,3.0,0.0
13996,85.0,0.0,120.0,0.0,0.0
13997,58.0,85.0,240.0,7.0,0.0
13998,73.0,0.0,240.0,11.0,0.0
13999,58.0,0.0,240.0,14.0,0.0
14000,78.0,100.0,120.0,2.0,0.0
14001,73.0,0.0,240.0,5.0,0.0
14002,66.0,0.0,240.0,6.0,0.0
14003,80.0,0.0,90.0,10.0,0.0
14004,80.0,35.0,90.0,4.0,0.0
14005,76.0,5.0,90.0,10.0,0.0
14006,76.0,0.0,90.0,4.0,0.0
14007,66.0,0.0,60.0,12.0,0.0
14008,66.0,0.0,60.0,6.0,0.0
14009,61.0,0.0,60.0,14.0,0.0
14010,70.0,0.0,60.0,5.0,0.0
14011,61.0,0.0,60.0,13.0,0.0
14012,70.0,0.0,60.0,11.0,0.0
14013,61.0,135.0,60.0,7.0,0.0
14014,78.0,0.0,120.0,2.0,0.0
14015,66.0,0.0,240.0,6.0,0.0
14016,58.0,0.0,240.0,13.0,0.0
14017,66.0,85.0,240.0,11.0,0.0
14018,82.0,100.0,120.0,1.0,0.0
14019,85.0,0.0,120.0,0.0,0.0
14020,54.0,0.0,120.0,3.0,0.0
14021,76.0,0.0,120.0,10.0,0.0
14022,58.0,0.0,240.0,14.0,0.0
14023,58.0,0.0,240.0,7.0,0.0
14024,66.0,0.0,240.0,12.0,0.0
14025,76.0,0.0,120.0,4.0,0.0
14026,66.0,0.0,240.0,5.0,0.0
14027,78.0,35.0,90.0,4.0,0.0
14028,78.0,0.0,90.0,10.0,0.0
14029,75.0,5.0,90.0,4.0,0.0
14030,75.0,0.0,90.0,10.0,0.0
14031,70.0,0.0,60.0,11.0,0.0
14032,54.0,0.0,60.0,14.0,0.0
14033,66.0,0.0,60.0,12.0,0.0
14034,66.0,0.0,60.0,6.0,0.0
14035,54.0,0.0,60.0,13.0,0.0
14036,54.0,0.0,60.0,7.0,0.0
14037,70.0,135.0,60.0,5.0,0.0
14038,66.0,0.0,240.0,6.0,0.0
14039,47.0,90.0,240.0,7.0,0.0
14040,75.0,0.0,120.0,4.0,0.0
14041,87.0,0.0,120.0,0.0,0.0
14042,71.0,0.0,240.0,5.0,0.0
14043,47.0,0.0,240.0,13.0,0.0
14044,83.0,120.0,120.0,1.0,0.0
14045,75.0,0.0,120.0,10.0,0.0
14046,71.0,0.0,240.0,11.0,0.0
14047,47.0,0.0,240.0,14.0,0.0
14048,66.0,0.0,240.0,12.0,0.0
14049,78.0,0.0,120.0,2.0,0.0
14050,54.0,0.0,120.0,3.0,0.0
14051,71.0,15.0,120.0,10.0,0.0
14052,71.0,0.0,120.0,4.0,0.0
14053,73.0,120.0,120.0,10.0,0.0
14054,73.0,0.0,120.0,4.0,0.0
14055,64.0,15.0,60.0,6.0,0.0
14056,59.0,0.0,60.0,13.0,0.0
14057,59.0,0.0,60.0,14.0,0.0
14058,59.0,0.0,60.0,7.0,0.0
14059,70.0,0.0,60.0,5.0,0.0
14060,64.0,0.0,60.0,12.0,0.0
14061,70.0,0.0,60.0,11.0,0.0
14062,71.0,0.0,240.0,5.0,0.0
14063,59.0,0.0,120.0,13.0,0.0
14064,66.0,85.0,240.0,12.0,0.0
14065,59.0,0.0,120.0,7.0,0.0
14066,75.0,0.0,120.0,10.0,0.0
14067,59.0,100.0,120.0,14.0,0.0
14068,66.0,0.0,240.0,6.0,0.0
14069,71.0,0.0,240.0,11.0,0.0
14070,75.0,0.0,120.0,4.0,0.0
14071,77.0,0.0,90.0,4.0,0.0
14072,61.0,0.0,90.0,13.0,0.0
14073,77.0,0.0,90.0,10.0,0.0
14074,61.0,35.0,90.0,7.0,0.0
14075,61.0,0.0,90.0,14.0,0.0
14076,58.0,0.0,90.0,7.0,0.0
14077,78.0,5.0,90.0,4.0,0.0
14078,58.0,0.0,90.0,13.0,0.0
14079,58.0,0.0,90.0,14.0,0.0
14080,78.0,0.0,90.0,10.0,0.0
14081,73.0,135.0,60.0,5.0,0.0
14082,70.0,0.0,60.0,6.0,0.0
14083,73.0,0.0,60.0,11.0,0.0
14084,70.0,0.0,60.0,12.0,0.0
14085,58.0,0.0,120.0,7.0,0.0
14086,58.0,100.0,120.0,13.0,0.0
14087,70.0,0.0,240.0,12.0,0.0
14088,73.0,0.0,120.0,5.0,0.0
14089,78.0,120.0,480.0,4.0,0.0
14090,70.0,85.0,240.0,6.0,0.0
14091,78.0,0.0,480.0,10.0,0.0
14092,58.0,0.0,120.0,14.0,0.0
14093,73.0,0.0,120.0,11.0,0.0
14094,59.0,0.0,90.0,7.0,0.0
14095,59.0,0.0,90.0,14.0,0.0
14096,75.0,0.0,90.0,5.0,0.0
14097,75.0,35.0,90.0,11.0,0.0
14098,59.0,0.0,90.0,13.0,0.0
14099,56.0,5.0,90.0,14.0,0.0
14100,72.0,0.0,90.0,5.0,0.0
14101,72.0,0.0,90.0,11.0,0.0
14102,56.0,0.0,90.0,13.0,0.0
14103,56.0,0.0,90.0,7.0,0.0
14104,75.0,135.0,60.0,6.0,0.0
14105,63.0,0.0,60.0,12.0,0.0
14106,63.0,85.0,240.0,12.0,0.0
14107,72.0,0.0,120.0,5.0,0.0
14108,72.0,0.0,120.0,11.0,0.0
14109,56.0,0.0,120.0,7.0,0.0
14110,56.0,0.0,120.0,14.0,0.0
14111,75.0,0.0,240.0,6.0,0.0
14112,56.0,0.0,120.0,13.0,0.0
14113,77.0,15.0,120.0,10.0,0.0
14114,58.0,0.0,120.0,13.0,0.0
14115,58.0,0.0,120.0,7.0,0.0
14116,77.0,0.0,120.0,4.0,0.0
14117,58.0,0.0,120.0,14.0,0.0
14118,73.0,0.0,120.0,11.0,0.0
14119,73.0,0.0,120.0,5.0,0.0
14120,75.0,120.0,120.0,4.0,0.0
14121,60.0,0.0,120.0,7.0,0.0
14122,75.0,5.0,90.0,11.0,0.0
14123,60.0,0.0,120.0,14.0,0.0
14124,60.0,0.0,120.0,13.0,0.0
14125,75.0,0.0,90.0,5.0,0.0
14126,75.0,0.0,120.0,10.0,0.0
14127,68.0,0.0,60.0,12.0,0.0
14128,68.0,15.0,60.0,6.0,0.0
14129,77.0,100.0,120.0,4.0,0.0
14130,61.0,0.0,120.0,7.0,0.0
14131,68.0,0.0,240.0,12.0,0.0
14132,73.0,85.0,240.0,11.0,0.0
14133,61.0,0.0,120.0,13.0,0.0
14134,73.0,0.0,240.0,5.0,0.0
14135,77.0,0.0,120.0,10.0,0.0
14136,68.0,0.0,240.0,6.0,0.0
14137,61.0,0.0,120.0,14.0,0.0
14138,63.0,0.0,90.0,7.0,0.0
14139,78.0,0.0,90.0,10.0,0.0
14140,78.0,35.0,90.0,4.0,0.0
14141,63.0,0.0,90.0,13.0,0.0
14142,63.0,0.0,90.0,14.0,0.0
14143,80.0,0.0,90.0,4.0,0.0
14144,59.0,0.0,90.0,13.0,0.0
14145,80.0,0.0,90.0,10.0,0.0
14146,59.0,0.0,90.0,14.0,0.0
14147,59.0,5.0,90.0,7.0,0.0
14148,71.0,0.0,60.0,6.0,0.0
14149,71.0,135.0,60.0,12.0,0.0
14150,75.0,0.0,60.0,5.0,0.0
14151,75.0,0.0,60.0,11.0,0.0
14152,59.0,100.0,120.0,13.0,0.0
14153,80.0,0.0,480.0,4.0,0.0
14154,75.0,0.0,120.0,5.0,0.0
14155,71.0,85.0,240.0,6.0,0.0
14156,71.0,0.0,240.0,12.0,0.0
14157,59.0,0.0,120.0,14.0,0.0
14158,75.0,0.0,120.0,11.0,0.0
14159,59.0,0.0,120.0,7.0,0.0
14160,80.0,0.0,480.0,10.0,0.0
14161,77.0,0.0,90.0,11.0,0.0
14162,61.0,35.0,90.0,7.0,0.0
14163,77.0,0.0,90.0,5.0,0.0
14164,61.0,0.0,90.0,14.0,0.0
14165,61.0,0.0,90.0,13.0,0.0
14166,58.0,0.0,90.0,14.0,0.0
14167,74.0,5.0,90.0,11.0,0.0
14168,74.0,0.0,90.0,5.0,0.0
14169,58.0,0.0,90.0,13.0,0.0
14170,58.0,0.0,90.0,7.0,0.0
14171,77.0,135.0,60.0,6.0,0.0
14172,65.0,0.0,60.0,12.0,0.0
14173,65.0,85.0,240.0,12.0,0.0
14174,74.0,0.0,120.0,11.0,0.0
14175,74.0,0.0,120.0,5.0,0.0
14176,58.0,120.0,120.0,13.0,0.0
14177,77.0,0.0,240.0,6.0,0.0
14178,58.0,0.0,120.0,14.0,0.0
14179,58.0,0.0,120.0,7.0,0.0
14180,75.0,0.0,120.0,11.0,0.0
14181,60.0,0.0,120.0,14.0,0.0
14182,75.0,0.0,120.0,5.0,0.0
14183,60.0,0.0,120.0,13.0,0.0
14184,60.0,0.0,120.0,7.0,0.0
14185,78.0,0.0,120.0,10.0,0.0
14186,78.0,15.0,120.0,4.0,0.0
14187,77.0,5.0,90.0,5.0,0.0
14188,62.0,0.0,120.0,13.0,0.0
14189,77.0,120.0,120.0,4.0,0.0
14190,62.0,0.0,120.0,7.0,0.0
14191,77.0,0.0,90.0,11.0,0.0
14192,62.0,0.0,120.0,14.0,0.0
14193,77.0,0.0,120.0,10.0,0.0
14194,70.0,15.0,60.0,12.0,0.0
14195,70.0,0.0,60.0,6.0,0.0
14196,75.0,0.0,240.0,5.0,0.0
14197,63.0,100.0,120.0,14.0,0.0
14198,63.0,0.0,120.0,7.0,0.0
14199,63.0,0.0,120.0,13.0,0.0
14200,70.0,85.0,240.0,12.0,0.0
14201,78.0,0.0,120.0,4.0,0.0
14202,75.0,0.0,240.0,11.0,0.0
14203,70.0,0.0,240.0,6.0,0.0
14204,78.0,0.0,120.0,10.0,0.0
14205,65.0,0.0,90.0,13.0,0.0
14206,80.0,0.0,90.0,4.0,0.0
14207,80.0,35.0,90.0,10.0,0.0
14208,65.0,0.0,90.0,14.0,0.0
14209,65.0,0.0,90.0,7.0,0.0
14210,61.0,5.0,90.0,13.0,0.0
14211,82.0,0.0,90.0,10.0,0.0
14212,82.0,0.0,90.0,4.0,0.0
14213,61.0,0.0,90.0,7.0,0.0
14214,61.0,0.0,90.0,14.0,0.0
14215,77.0,0.0,60.0,11.0,0.0
14216,77.0,0.0,60.0,5.0,0.0
14217,73.0,0.0,60.0,6.0,0.0
14218,73.0,135.0,60.0,12.0,0.0
14219,73.0,0.0,240.0,12.0,0.0
14220,61.0,0.0,120.0,7.0,0.0
14221,82.0,0.0,480.0,4.0,0.0
14222,77.0,0.0,120.0,11.0,0.0
14223,82.0,120.0,480.0,10.0,0.0
14224,77.0,100.0,120.0,5.0,0.0
14225,73.0,85.0,240.0,6.0,0.0
14226,61.0,0.0,120.0,14.0,0.0
14227,61.0,0.0,120.0,13.0,0.0
14228,63.0,0.0,90.0,7.0,0.0
14229,63.0,0.0,90.0,14.0,0.0
14230,78.0,35.0,90.0,5.0,0.0
14231,63.0,0.0,90.0,13.0,0.0
14232,78.0,0.0,90.0,11.0,0.0
14233,75.0,0.0,90.0,5.0,0.0
14234,60.0,0.0,90.0,7.0,0.0
14235,60.0,5.0,90.0,14.0,0.0
14236,75.0,0.0,90.0,11.0,0.0
14237,60.0,0.0,90.0,13.0,0.0
14238,66.0,0.0,60.0,12.0,0.0
14239,78.0,135.0,60.0,6.0,0.0
14240,60.0,0.0,120.0,7.0,0.0
14241,60.0,0.0,120.0,14.0,0.0
14242,75.0,0.0,120.0,11.0,0.0
14243,60.0,0.0,120.0,13.0,0.0
14244,75.0,0.0,120.0,5.0,0.0
14245,66.0,85.0,240.0,12.0,0.0
14246,78.0,0.0,240.0,6.0,0.0
14247,62.0,0.0,120.0,14.0,0.0
14248,77.0,15.0,120.0,5.0,0.0
14249,77.0,0.0,120.0,11.0,0.0
14250,80.0,0.0,120.0,4.0,0.0
14251,80.0,0.0,120.0,10.0,0.0
14252,62.0,0.0,120.0,13.0,0.0
14253,62.0,0.0,120.0,7.0,0.0
14254,78.0,5.0,90.0,11.0,0.0
14255,63.0,0.0,120.0,7.0,0.0
14256,78.0,0.0,120.0,10.0,0.0
14257,78.0,0.0,120.0,4.0,0.0
14258,63.0,0.0,120.0,13.0,0.0
14259,78.0,0.0,90.0,5.0,0.0
14260,63.0,120.0,120.0,14.0,0.0
14261,72.0,15.0,60.0,12.0,0.0
14262,72.0,0.0,60.0,6.0,0.0
14263,72.0,85.0,240.0,12.0,0.0
14264,65.0,0.0,120.0,13.0,0.0
14265,65.0,0.0,120.0,7.0,0.0
14266,65.0,0.0,120.0,14.0,0.0
14267,80.0,100.0,120.0,10.0,0.0
14268,80.0,0.0,120.0,4.0,0.0
14269,77.0,0.0,240.0,11.0,0.0
14270,77.0,0.0,240.0,5.0,0.0
14271,72.0,0.0,240.0,6.0,0.0
14272,82.0,0.0,90.0,4.0,0.0
14273,82.0,0.0,90.0,10.0,0.0
14274,66.0,0.0,90.0,7.0,0.0
14275,66.0,35.0,90.0,13.0,0.0
14276,66.0,0.0,90.0,14.0,0.0
14277,83.0,0.0,90.0,4.0,0.0
14278,63.0,0.0,90.0,13.0,0.0
14279,63.0,5.0,90.0,14.0,0.0
14280,63.0,0.0,90.0,7.0,0.0
14281,83.0,0.0,90.0,10.0,0.0
14282,78.0,0.0,60.0,11.0,0.0
14283,78.0,0.0,60.0,5.0,0.0
14284,75.0,135.0,60.0,12.0,0.0
14285,75.0,0.0,60.0,6.0,0.0
14286,63.0,100.0,120.0,13.0,0.0
14287,78.0,0.0,120.0,11.0,0.0
14288,83.0,90.0,600.0,10.0,0.0
14289,63.0,0.0,120.0,14.0,0.0
14290,78.0,0.0,120.0,5.0,0.0
14291,83.0,0.0,600.0,4.0,0.0
14292,63.0,0.0,120.0,7.0,0.0
14293,75.0,85.0,240.0,12.0,0.0
14294,75.0,0.0,240.0,6.0,0.0
14295,65.0,35.0,90.0,7.0,0.0
14296,65.0,0.0,90.0,14.0,0.0
14297,80.0,0.0,90.0,11.0,0.0
14298,65.0,0.0,90.0,13.0,0.0
14299,80.0,0.0,90.0,5.0,0.0
14300,62.0,0.0,90.0,14.0,0.0
14301,77.0,0.0,90.0,11.0,0.0
14302,62.0,5.0,90.0,7.0,0.0
14303,77.0,0.0,90.0,5.0,0.0
14304,62.0,0.0,90.0,13.0,0.0
14305,80.0,135.0,60.0,6.0,0.0
14306,68.0,0.0,60.0,12.0,0.0
14307,80.0,0.0,240.0,6.0,0.0
14308,62.0,135.0,120.0,14.0,0.0
14309,77.0,0.0,120.0,5.0,0.0
14310,62.0,0.0,120.0,7.0,0.0
14311,77.0,0.0,240.0,11.0,0.0
14312,68.0,0.0,120.0,12.0,0.0
14313,62.0,0.0,120.0,13.0,0.0
14314,82.0,0.0,60.0,4.0,0.0
14315,70.0,0.0,60.0,11.0,0.0
14316,70.0,0.0,60.0,0.0,0.0
14317,70.0,0.0,60.0,1.0,0.0
14318,70.0,0.0,60.0,2.0,0.0
14319,70.0,0.0,60.0,10.0,0.0
14320,70.0,135.0,60.0,6.0,0.0
14321,70.0,0.0,240.0,1.0,0.0
14322,70.0,0.0,240.0,11.0,0.0
14323,70.0,85.0,240.0,0.0,0.0
14324,82.0,100.0,120.0,4.0,0.0
14325,70.0,0.0,240.0,10.0,0.0
14326,70.0,0.0,240.0,2.0,0.0
14327,70.0,0.0,240.0,6.0,0.0
14328,83.0,35.0,90.0,4.0,0.0
14329,80.0,5.0,90.0,4.0,0.0
14330,70.0,0.0,60.0,10.0,0.0
14331,70.0,0.0,60.0,11.0,0.0
14332,70.0,0.0,60.0,0.0,0.0
14333,70.0,135.0,60.0,6.0,0.0
14334,70.0,0.0,60.0,2.0,0.0
14335,70.0,0.0,60.0,1.0,0.0
14336,70.0,0.0,240.0,10.0,0.0
14337,70.0,0.0,240.0,11.0,0.0
14338,70.0,0.0,240.0,6.0,0.0
14339,80.0,100.0,120.0,4.0,0.0
14340,70.0,85.0,240.0,1.0,0.0
14341,70.0,0.0,240.0,0.0,0.0
14342,70.0,0.0,240.0,2.0,0.0
14343,82.0,35.0,90.0,4.0,0.0
14344,78.0,5.0,90.0,4.0,0.0
14345,70.0,0.0,60.0,1.0,0.0
14346,70.0,0.0,60.0,11.0,0.0
14347,70.0,135.0,60.0,6.0,0.0
14348,70.0,0.0,60.0,10.0,0.0
14349,70.0,0.0,60.0,0.0,0.0
14350,70.0,0.0,60.0,2.0,0.0
14351,70.0,0.0,120.0,1.0,0.0
14352,63.0,0.0,120.0,14.0,0.0
14353,70.0,0.0,120.0,2.0,0.0
14354,70.0,0.0,120.0,6.0,0.0
14355,70.0,0.0,120.0,0.0,0.0
14356,70.0,120.0,120.0,10.0,0.0
14357,63.0,0.0,120.0,13.0,0.0
14358,78.0,0.0,120.0,4.0,0.0
14359,70.0,0.0,120.0,11.0,0.0
14360,80.0,105.0,120.0,4.0,0.0
14361,82.0,120.0,120.0,4.0,0.0
14362,58.0,0.0,60.0,12.0,0.0
14363,75.0,15.0,60.0,5.0,0.0
14364,58.0,0.0,60.0,7.0,0.0
14365,58.0,85.0,240.0,7.0,0.0
14366,83.0,0.0,120.0,4.0,0.0
14367,75.0,0.0,120.0,10.0,0.0
14368,66.0,0.0,120.0,11.0,0.0
14369,75.0,100.0,120.0,5.0,0.0
14370,58.0,0.0,240.0,12.0,0.0
14371,85.0,35.0,90.0,4.0,0.0
14372,77.0,0.0,90.0,5.0,0.0
14373,82.0,5.0,90.0,4.0,0.0
14374,73.0,0.0,90.0,5.0,0.0
14375,58.0,0.0,60.0,7.0,0.0
14376,58.0,135.0,60.0,12.0,0.0
14377,58.0,85.0,240.0,12.0,0.0
14378,58.0,0.0,240.0,7.0,0.0
14379,82.0,0.0,120.0,4.0,0.0
14380,70.0,0.0,120.0,11.0,0.0
14381,78.0,100.0,120.0,10.0,0.0
14382,73.0,0.0,120.0,5.0,0.0
14383,75.0,35.0,90.0,5.0,0.0
14384,83.0,0.0,90.0,4.0,0.0
14385,80.0,0.0,90.0,4.0,0.0
14386,72.0,5.0,90.0,5.0,0.0
14387,58.0,135.0,60.0,7.0,0.0
14388,58.0,0.0,60.0,12.0,0.0
14389,58.0,0.0,240.0,7.0,0.0
14390,75.0,120.0,120.0,11.0,0.0
14391,80.0,0.0,240.0,4.0,0.0
14392,78.0,0.0,120.0,10.0,0.0
14393,58.0,0.0,120.0,12.0,0.0
14394,58.0,0.0,240.0,13.0,0.0
14395,72.0,0.0,120.0,5.0,0.0
14396,58.0,90.0,240.0,14.0,0.0
14397,74.0,15.0,120.0,5.0,0.0
14398,75.0,120.0,120.0,5.0,0.0
14399,80.0,15.0,60.0,4.0,0.0
14400,70.0,0.0,60.0,6.0,0.0
14401,46.0,0.0,60.0,14.0,0.0
14402,46.0,0.0,60.0,7.0,0.0
14403,46.0,0.0,60.0,13.0,0.0
14404,46.0,0.0,240.0,13.0,0.0
14405,77.0,0.0,120.0,5.0,0.0
14406,46.0,0.0,240.0,7.0,0.0
14407,77.0,0.0,120.0,10.0,0.0
14408,74.0,100.0,120.0,11.0,0.0
14409,80.0,0.0,120.0,4.0,0.0
14410,70.0,0.0,120.0,12.0,0.0
14411,74.0,0.0,240.0,6.0,0.0
14412,46.0,85.0,240.0,14.0,0.0
14413,78.0,35.0,90.0,5.0,0.0
14414,82.0,0.0,90.0,4.0,0.0
14415,78.0,0.0,90.0,4.0,0.0
14416,75.0,5.0,90.0,5.0,0.0
14417,46.0,135.0,60.0,7.0,0.0
14418,70.0,0.0,60.0,6.0,0.0
14419,46.0,0.0,60.0,13.0,0.0
14420,46.0,0.0,60.0,14.0,0.0
14421,78.0,100.0,120.0,4.0,0.0
14422,70.0,0.0,240.0,6.0,0.0
14423,78.0,0.0,120.0,10.0,0.0
14424,75.0,0.0,120.0,11.0,0.0
14425,46.0,0.0,240.0,13.0,0.0
14426,75.0,0.0,120.0,5.0,0.0
14427,46.0,0.0,240.0,14.0,0.0
14428,70.0,0.0,120.0,12.0,0.0
14429,46.0,85.0,240.0,7.0,0.0
14430,77.0,0.0,90.0,5.0,0.0
14431,80.0,35.0,90.0,4.0,0.0
14432,74.0,5.0,90.0,5.0,0.0
14433,77.0,0.0,90.0,4.0,0.0
14434,46.0,0.0,60.0,14.0,0.0
14435,46.0,135.0,60.0,13.0,0.0
14436,46.0,0.0,60.0,7.0,0.0
14437,70.0,0.0,60.0,6.0,0.0
14438,74.0,0.0,120.0,5.0,0.0
14439,46.0,0.0,240.0,14.0,0.0
14440,46.0,85.0,240.0,7.0,0.0
14441,80.0,0.0,120.0,10.0,0.0
14442,70.0,0.0,240.0,6.0,0.0
14443,46.0,0.0,240.0,13.0,0.0
14444,77.0,0.0,120.0,11.0,0.0
14445,77.0,120.0,120.0,4.0,0.0
14446,74.0,0.0,240.0,12.0,0.0
14447,78.0,15.0,120.0,4.0,0.0
14448,78.0,0.0,120.0,10.0,0.0
14449,75.0,0.0,120.0,5.0,0.0
14450,75.0,0.0,120.0,11.0,0.0
14451,77.0,5.0,90.0,11.0,0.0
14452,77.0,0.0,90.0,5.0,0.0
14453,77.0,0.0,90.0,10.0,0.0
14454,80.0,120.0,120.0,4.0,0.0
14455,74.0,0.0,60.0,12.0,0.0
14456,56.0,15.0,60.0,13.0,0.0
14457,56.0,0.0,60.0,14.0,0.0
14458,74.0,0.0,60.0,6.0,0.0
14459,56.0,0.0,60.0,7.0,0.0
14460,54.0,0.0,240.0,7.0,0.0
14461,77.0,70.0,270.0,5.0,0.0
14462,77.0,0.0,270.0,11.0,0.0
14463,82.0,100.0,120.0,4.0,0.0
14464,74.0,0.0,240.0,6.0,0.0
14465,54.0,0.0,240.0,13.0,0.0
14466,74.0,15.0,240.0,12.0,0.0
14467,82.0,0.0,120.0,10.0,0.0
14468,54.0,0.0,240.0,14.0,0.0
14469,83.0,0.0,90.0,4.0,0.0
14470,83.0,35.0,90.0,10.0,0.0
14471,80.0,0.0,90.0,4.0,0.0
14472,80.0,5.0,90.0,10.0,0.0
14473,75.0,0.0,60.0,6.0,0.0
14474,75.0,0.0,60.0,5.0,0.0
14475,59.0,0.0,60.0,13.0,0.0
14476,59.0,135.0,60.0,14.0,0.0
14477,59.0,0.0,60.0,7.0,0.0
14478,75.0,0.0,60.0,11.0,0.0
14479,75.0,0.0,60.0,12.0,0.0
14480,80.0,100.0,120.0,4.0,0.0
14481,80.0,0.0,120.0,10.0,0.0
14482,75.0,0.0,270.0,11.0,0.0
14483,68.0,0.0,240.0,12.0,0.0
14484,53.0,0.0,240.0,14.0,0.0
14485,53.0,0.0,240.0,13.0,0.0
14486,75.0,70.0,270.0,5.0,0.0
14487,68.0,0.0,240.0,6.0,0.0
14488,53.0,15.0,240.0,7.0,0.0
14489,82.0,0.0,90.0,4.0,0.0
14490,82.0,35.0,90.0,10.0,0.0
14491,78.0,5.0,90.0,10.0,0.0
14492,78.0,0.0,90.0,4.0,0.0
14493,74.0,0.0,60.0,11.0,0.0
14494,74.0,135.0,60.0,5.0,0.0
14495,58.0,0.0,60.0,13.0,0.0
14496,58.0,0.0,60.0,14.0,0.0
14497,70.0,0.0,60.0,6.0,0.0
14498,70.0,0.0,60.0,12.0,0.0
14499,58.0,0.0,60.0,7.0,0.0
14500,70.0,0.0,120.0,6.0,0.0
14501,51.0,0.0,120.0,13.0,0.0
14502,78.0,0.0,120.0,10.0,0.0
14503,75.0,0.0,120.0,5.0,0.0
14504,75.0,0.0,120.0,11.0,0.0
14505,70.0,0.0,120.0,12.0,0.0
14506,51.0,85.0,240.0,7.0,0.0
14507,78.0,120.0,120.0,4.0,0.0
14508,51.0,0.0,120.0,14.0,0.0
14509,75.0,0.0,120.0,4.0,0.0
14510,75.0,0.0,120.0,10.0,0.0
14511,54.0,0.0,120.0,14.0,0.0
14512,54.0,15.0,120.0,13.0,0.0
14513,77.0,120.0,120.0,4.0,0.0
14514,58.0,0.0,90.0,14.0,0.0
14515,58.0,5.0,90.0,13.0,0.0
14516,77.0,0.0,120.0,10.0,0.0
14517,58.0,15.0,60.0,7.0,0.0
14518,78.0,0.0,120.0,4.0,0.0
14519,63.0,0.0,120.0,7.0,0.0
14520,63.0,0.0,120.0,14.0,0.0
14521,70.0,0.0,120.0,12.0,0.0
14522,63.0,0.0,120.0,13.0,0.0
14523,78.0,0.0,120.0,10.0,0.0
14524,75.0,0.0,120.0,5.0,0.0
14525,75.0,0.0,120.0,11.0,0.0
14526,70.0,100.0,120.0,6.0,0.0
14527,65.0,0.0,90.0,13.0,0.0
14528,65.0,0.0,90.0,7.0,0.0
14529,80.0,0.0,90.0,10.0,0.0
14530,65.0,0.0,90.0,14.0,0.0
14531,80.0,120.0,90.0,4.0,0.0
14532,76.0,140.0,90.0,4.0,0.0
14533,61.0,0.0,90.0,14.0,0.0
14534,61.0,0.0,90.0,13.0,0.0
14535,76.0,0.0,90.0,10.0,0.0
14536,61.0,0.0,90.0,7.0,0.0
14537,79.0,0.0,120.0,11.0,0.0
14538,70.0,0.0,120.0,12.0,0.0
14539,61.0,0.0,120.0,7.0,0.0
14540,61.0,0.0,120.0,14.0,0.0
14541,76.0,0.0,120.0,4.0,0.0
14542,70.0,0.0,120.0,6.0,0.0
14543,79.0,0.0,120.0,5.0,0.0
14544,61.0,0.0,120.0,13.0,0.0
14545,76.0,100.0,120.0,10.0,0.0
14546,78.0,0.0,90.0,10.0,0.0
14547,63.0,0.0,90.0,14.0,0.0
14548,78.0,120.0,90.0,4.0,0.0
14549,63.0,0.0,90.0,7.0,0.0
14550,63.0,0.0,90.0,13.0,0.0
14551,59.0,120.0,90.0,14.0,0.0
14552,75.0,0.0,90.0,10.0,0.0
14553,75.0,0.0,90.0,4.0,0.0
14554,59.0,0.0,90.0,7.0,0.0
14555,59.0,0.0,90.0,13.0,0.0
14556,80.0,0.0,120.0,11.0,0.0
14557,59.0,20.0,90.0,7.0,0.0
14558,71.0,0.0,120.0,12.0,0.0
14559,80.0,120.0,120.0,5.0,0.0
14560,59.0,0.0,90.0,14.0,0.0
14561,59.0,0.0,90.0,13.0,0.0
14562,75.0,90.0,240.0,4.0,0.0
14563,75.0,0.0,240.0,10.0,0.0
14564,71.0,0.0,120.0,6.0,0.0
14565,75.0,0.0,120.0,6.0,0.0
14566,75.0,0.0,120.0,12.0,0.0
14567,56.0,0.0,120.0,13.0,0.0
14568,56.0,15.0,120.0,7.0,0.0
14569,56.0,0.0,120.0,14.0,0.0
14570,58.0,0.0,120.0,13.0,0.0
14571,73.0,0.0,120.0,12.0,0.0
14572,58.0,0.0,120.0,7.0,0.0
14573,73.0,0.0,120.0,6.0,0.0
14574,58.0,120.0,120.0,14.0,0.0
14575,75.0,15.0,60.0,10.0,0.0
14576,75.0,0.0,60.0,4.0,0.0
14577,80.0,0.0,240.0,4.0,0.0
14578,75.0,0.0,120.0,6.0,0.0
14579,80.0,85.0,240.0,10.0,0.0
14580,59.0,0.0,120.0,14.0,0.0
14581,59.0,0.0,120.0,7.0,0.0
14582,59.0,100.0,120.0,13.0,0.0
14583,75.0,0.0,120.0,12.0,0.0
14584,76.0,35.0,90.0,6.0,0.0
14585,61.0,0.0,90.0,7.0,0.0
14586,76.0,0.0,90.0,12.0,0.0
14587,61.0,0.0,90.0,13.0,0.0
14588,61.0,0.0,90.0,14.0,0.0
14589,58.0,0.0,90.0,14.0,0.0
14590,73.0,0.0,90.0,6.0,0.0
14591,58.0,0.0,90.0,13.0,0.0
14592,58.0,0.0,90.0,7.0,0.0
14593,73.0,5.0,90.0,12.0,0.0
14594,79.0,0.0,60.0,4.0,0.0
14595,75.0,135.0,60.0,11.0,0.0
14596,75.0,0.0,60.0,5.0,0.0
14597,79.0,0.0,60.0,10.0,0.0
14598,58.0,0.0,120.0,13.0,0.0
14599,58.0,0.0,120.0,7.0,0.0
14600,80.0,0.0,240.0,10.0,0.0
14601,58.0,100.0,120.0,14.0,0.0
14602,80.0,0.0,240.0,4.0,0.0
14603,73.0,0.0,120.0,12.0,0.0
14604,77.0,0.0,240.0,11.0,0.0
14605,73.0,0.0,120.0,6.0,0.0
14606,77.0,85.0,240.0,5.0,0.0
14607,75.0,0.0,90.0,6.0,0.0
14608,59.0,0.0,90.0,14.0,0.0
14609,75.0,0.0,90.0,12.0,0.0
14610,59.0,35.0,90.0,13.0,0.0
14611,59.0,0.0,90.0,7.0,0.0
14612,56.0,5.0,90.0,7.0,0.0
14613,71.0,0.0,90.0,12.0,0.0
14614,56.0,0.0,90.0,13.0,0.0
14615,56.0,0.0,90.0,14.0,0.0
14616,71.0,0.0,90.0,6.0,0.0
14617,82.0,0.0,60.0,10.0,0.0
14618,82.0,135.0,60.0,4.0,0.0
14619,79.0,0.0,60.0,5.0,0.0
14620,79.0,0.0,60.0,11.0,0.0
14621,56.0,0.0,240.0,7.0,0.0
14622,83.0,100.0,120.0,4.0,0.0
14623,56.0,0.0,240.0,14.0,0.0
14624,83.0,0.0,120.0,10.0,0.0
14625,71.0,0.0,240.0,6.0,0.0
14626,71.0,0.0,240.0,12.0,0.0
14627,56.0,85.0,240.0,13.0,0.0
14628,80.0,0.0,240.0,11.0,0.0
14629,80.0,0.0,240.0,5.0,0.0
14630,85.0,35.0,90.0,4.0,0.0
14631,85.0,0.0,90.0,10.0,0.0
14632,82.0,0.0,90.0,10.0,0.0
14633,82.0,5.0,90.0,4.0,0.0
14634,75.0,0.0,60.0,6.0,0.0
14635,54.0,0.0,60.0,13.0,0.0
14636,54.0,0.0,60.0,7.0,0.0
14637,54.0,0.0,60.0,14.0,0.0
14638,75.0,0.0,60.0,11.0,0.0
14639,75.0,0.0,60.0,5.0,0.0
14640,75.0,135.0,60.0,12.0,0.0
14641,80.0,0.0,120.0,10.0,0.0
14642,74.0,0.0,240.0,11.0,0.0
14643,74.0,0.0,240.0,5.0,0.0
14644,80.0,100.0,120.0,4.0,0.0
14645,53.0,0.0,240.0,7.0,0.0
14646,77.0,85.0,240.0,6.0,0.0
14647,53.0,0.0,240.0,13.0,0.0
14648,53.0,0.0,240.0,14.0,0.0
14649,77.0,0.0,240.0,12.0,0.0
14650,82.0,35.0,90.0,4.0,0.0
14651,82.0,0.0,90.0,10.0,0.0
14652,78.0,0.0,90.0,4.0,0.0
14653,78.0,5.0,90.0,10.0,0.0
14654,71.0,0.0,60.0,6.0,0.0
14655,56.0,0.0,60.0,13.0,0.0
14656,75.0,0.0,60.0,11.0,0.0
14657,56.0,0.0,60.0,7.0,0.0
14658,71.0,135.0,60.0,12.0,0.0
14659,75.0,0.0,60.0,5.0,0.0
14660,56.0,0.0,60.0,14.0,0.0
14661,50.0,0.0,240.0,7.0,0.0
14662,71.0,0.0,240.0,6.0,0.0
14663,77.0,0.0,120.0,4.0,0.0
14664,71.0,85.0,240.0,12.0,0.0
14665,50.0,0.0,240.0,14.0,0.0
14666,77.0,0.0,240.0,5.0,0.0
14667,77.0,100.0,120.0,10.0,0.0
14668,77.0,0.0,240.0,11.0,0.0
14669,50.0,0.0,240.0,13.0,0.0
14670,78.0,0.0,90.0,4.0,0.0
14671,78.0,35.0,90.0,10.0,0.0
14672,75.0,5.0,90.0,4.0,0.0
14673,75.0,0.0,90.0,10.0,0.0
14674,80.0,0.0,60.0,5.0,0.0
14675,53.0,0.0,60.0,14.0,0.0
14676,80.0,0.0,60.0,11.0,0.0
14677,53.0,0.0,60.0,13.0,0.0
14678,71.0,0.0,60.0,12.0,0.0
14679,71.0,0.0,60.0,6.0,0.0
14680,53.0,135.0,60.0,7.0,0.0
14681,74.0,0.0,120.0,11.0,0.0
14682,70.0,0.0,120.0,12.0,0.0
14683,46.0,0.0,360.0,13.0,0.0
14684,46.0,120.0,360.0,7.0,0.0
14685,80.0,0.0,240.0,4.0,0.0
14686,46.0,0.0,360.0,14.0,0.0
14687,70.0,0.0,120.0,6.0,0.0
14688,74.0,120.0,120.0,5.0,0.0
14689,80.0,85.0,240.0,10.0,0.0
14690,72.0,15.0,120.0,6.0,0.0
14691,72.0,0.0,120.0,12.0,0.0
14692,75.0,0.0,120.0,11.0,0.0
14693,75.0,0.0,120.0,5.0,0.0
14694,74.0,5.0,90.0,12.0,0.0
14695,77.0,0.0,90.0,5.0,0.0
14696,77.0,0.0,90.0,11.0,0.0
14697,74.0,0.0,90.0,6.0,0.0
14698,77.0,15.0,60.0,10.0,0.0
14699,77.0,0.0,60.0,4.0,0.0
14700,70.0,0.0,240.0,4.0,0.0
14701,74.0,0.0,240.0,12.0,0.0
14702,77.0,100.0,120.0,5.0,0.0
14703,74.0,0.0,240.0,6.0,0.0
14704,70.0,85.0,240.0,10.0,0.0
14705,77.0,0.0,120.0,11.0,0.0
14706,78.0,0.0,90.0,11.0,0.0
14707,78.0,35.0,90.0,5.0,0.0
14708,75.0,0.0,90.0,11.0,0.0
14709,75.0,5.0,90.0,5.0,0.0
14710,80.0,0.0,60.0,10.0,0.0
14711,59.0,0.0,60.0,14.0,0.0
14712,68.0,0.0,60.0,12.0,0.0
14713,59.0,135.0,60.0,13.0,0.0
14714,59.0,0.0,60.0,7.0,0.0
14715,80.0,0.0,60.0,4.0,0.0
14716,68.0,0.0,60.0,6.0,0.0
14717,58.0,0.0,240.0,14.0,0.0
14718,75.0,100.0,120.0,11.0,0.0
14719,58.0,0.0,240.0,7.0,0.0
14720,78.0,0.0,240.0,10.0,0.0
14721,70.0,0.0,240.0,6.0,0.0
14722,58.0,85.0,240.0,13.0,0.0
14723,75.0,0.0,120.0,5.0,0.0
14724,70.0,0.0,240.0,12.0,0.0
14725,78.0,0.0,240.0,4.0,0.0
14726,77.0,0.0,90.0,5.0,0.0
14727,77.0,35.0,90.0,11.0,0.0
14728,74.0,0.0,90.0,11.0,0.0
14729,74.0,5.0,90.0,5.0,0.0
14730,56.0,0.0,60.0,14.0,0.0
14731,65.0,135.0,60.0,12.0,0.0
14732,56.0,0.0,60.0,13.0,0.0
14733,83.0,0.0,60.0,4.0,0.0
14734,83.0,0.0,60.0,10.0,0.0
14735,56.0,0.0,60.0,7.0,0.0
14736,77.0,0.0,60.0,6.0,0.0
14737,75.0,0.0,240.0,11.0,0.0
14738,82.0,0.0,120.0,10.0,0.0
14739,54.0,90.0,240.0,14.0,0.0
14740,70.0,0.0,240.0,6.0,0.0
14741,75.0,0.0,240.0,5.0,0.0
14742,54.0,0.0,240.0,13.0,0.0
14743,54.0,0.0,240.0,7.0,0.0
14744,82.0,120.0,120.0,4.0,0.0
14745,66.0,0.0,240.0,12.0,0.0
14746,80.0,0.0,120.0,4.0,0.0
14747,80.0,15.0,120.0,10.0,0.0
14748,78.0,0.0,120.0,10.0,0.0
14749,78.0,120.0,120.0,4.0,0.0
14750,70.0,0.0,60.0,6.0,0.0
14751,75.0,0.0,60.0,11.0,0.0
14752,51.0,0.0,60.0,14.0,0.0
14753,75.0,15.0,60.0,5.0,0.0
14754,51.0,0.0,60.0,13.0,0.0
14755,51.0,0.0,60.0,7.0,0.0
14756,70.0,0.0,60.0,12.0,0.0
14757,68.0,0.0,240.0,6.0,0.0
14758,68.0,85.0,240.0,12.0,0.0
14759,56.0,0.0,120.0,14.0,0.0
14760,77.0,100.0,120.0,10.0,0.0
14761,77.0,0.0,120.0,4.0,0.0
14762,71.0,0.0,120.0,11.0,0.0
14763,56.0,0.0,120.0,7.0,0.0
14764,71.0,0.0,120.0,5.0,0.0
14765,56.0,0.0,120.0,13.0,0.0
14766,78.0,20.0,90.0,10.0,0.0
14767,70.0,0.0,120.0,5.0,0.0
14768,70.0,0.0,120.0,11.0,0.0
14769,78.0,0.0,90.0,4.0,0.0
14770,58.0,15.0,120.0,14.0,0.0
14771,58.0,0.0,120.0,13.0,0.0
14772,58.0,0.0,120.0,7.0,0.0
14773,59.0,0.0,90.0,14.0,0.0
14774,59.0,0.0,90.0,13.0,0.0
14775,75.0,0.0,90.0,10.0,0.0
14776,68.0,5.0,90.0,11.0,0.0
14777,68.0,0.0,90.0,5.0,0.0
14778,59.0,0.0,90.0,7.0,0.0
14779,75.0,0.0,90.0,4.0,0.0
14780,68.0,0.0,60.0,6.0,0.0
14781,68.0,135.0,60.0,12.0,0.0
14782,70.0,0.0,120.0,4.0,0.0
14783,70.0,0.0,240.0,5.0,0.0
14784,70.0,0.0,120.0,10.0,0.0
14785,65.0,100.0,120.0,12.0,0.0
14786,58.0,0.0,240.0,14.0,0.0
14787,58.0,0.0,240.0,13.0,0.0
14788,68.0,0.0,240.0,6.0,0.0
14789,58.0,85.0,240.0,7.0,0.0
14790,68.0,0.0,120.0,11.0,0.0
14791,75.0,20.0,90.0,10.0,0.0
14792,66.0,0.0,120.0,11.0,0.0
14793,63.0,15.0,120.0,12.0,0.0
14794,75.0,0.0,90.0,4.0,0.0
14795,65.0,5.0,90.0,11.0,0.0
14796,74.0,0.0,90.0,4.0,0.0
14797,74.0,0.0,90.0,10.0,0.0
14798,65.0,0.0,90.0,12.0,0.0
14799,46.0,0.0,60.0,14.0,0.0
14800,70.0,0.0,60.0,5.0,0.0
14801,68.0,135.0,60.0,6.0,0.0
14802,46.0,0.0,60.0,7.0,0.0
14803,46.0,0.0,60.0,13.0,0.0
14804,66.0,0.0,120.0,6.0,0.0
14805,66.0,0.0,120.0,11.0,0.0
14806,70.0,0.0,120.0,5.0,0.0
14807,51.0,0.0,120.0,14.0,0.0
14808,75.0,120.0,1080.0,10.0,0.0
14809,75.0,0.0,120.0,4.0,0.0
14810,51.0,0.0,120.0,7.0,0.0
14811,63.0,120.0,120.0,12.0,0.0
14812,51.0,0.0,120.0,13.0,0.0
14813,65.0,0.0,120.0,12.0,0.0
14814,68.0,100.0,120.0,11.0,0.0
14815,66.0,140.0,90.0,12.0,0.0
14816,70.0,0.0,90.0,11.0,0.0
14817,82.0,0.0,90.0,0.0,0.0
14818,70.0,100.0,120.0,11.0,0.0
14819,82.0,85.0,240.0,0.0,0.0
14820,66.0,0.0,120.0,12.0,0.0
14821,68.0,35.0,90.0,12.0,0.0
14822,71.0,0.0,90.0,11.0,0.0
14823,65.0,0.0,90.0,12.0,0.0
14824,68.0,5.0,90.0,11.0,0.0
14825,82.0,135.0,60.0,0.0,0.0
14826,82.0,100.0,120.0,0.0,0.0
14827,68.0,0.0,120.0,11.0,0.0
14828,65.0,0.0,120.0,12.0,0.0
14829,70.0,0.0,90.0,11.0,0.0
14830,66.0,120.0,90.0,12.0,0.0
14831,63.0,0.0,90.0,12.0,0.0
14832,66.0,20.0,90.0,11.0,0.0
14833,63.0,0.0,120.0,12.0,0.0
14834,66.0,120.0,120.0,11.0,0.0
14835,75.0,90.0,1320.0,10.0,0.0
14836,68.0,0.0,120.0,11.0,0.0
14837,65.0,100.0,120.0,12.0,0.0
14838,70.0,120.0,120.0,11.0,0.0
14839,66.0,5.0,90.0,12.0,0.0
14840,70.0,0.0,60.0,0.0,0.0
14841,70.0,0.0,60.0,2.0,0.0
14842,70.0,15.0,60.0,1.0,0.0
14843,66.0,0.0,120.0,12.0,0.0
14844,70.0,85.0,240.0,1.0,0.0
14845,70.0,0.0,240.0,0.0,0.0
14846,70.0,0.0,240.0,2.0,0.0
14847,70.0,100.0,120.0,11.0,0.0
14848,71.0,15.0,120.0,11.0,0.0
14849,68.0,20.0,90.0,12.0,0.0
14850,68.0,120.0,120.0,11.0,0.0
14851,65.0,5.0,90.0,12.0,0.0
14852,70.0,15.0,60.0,0.0,0.0
14853,70.0,0.0,60.0,2.0,0.0
14854,70.0,0.0,60.0,1.0,0.0
14855,70.0,0.0,120.0,1.0,0.0
14856,70.0,0.0,120.0,2.0,0.0
14857,70.0,0.0,120.0,0.0,0.0
14858,68.0,0.0,120.0,11.0,0.0
14859,65.0,100.0,120.0,12.0,0.0
14860,70.0,100.0,120.0,11.0,0.0
14861,66.0,20.0,90.0,12.0,0.0
14862,66.0,275.0,90.0,11.0,0.0
14863,63.0,0.0,90.0,12.0,0.0
14864,66.0,120.0,360.0,11.0,0.0
14865,63.0,0.0,360.0,12.0,0.0
14866,63.0,15.0,60.0,13.0,0.0
14867,78.0,0.0,60.0,10.0,0.0
14868,63.0,0.0,60.0,7.0,0.0
14869,63.0,0.0,60.0,14.0,0.0
14870,82.0,120.0,840.0,10.0,0.0
14871,63.0,0.0,120.0,13.0,0.0
14872,78.0,0.0,120.0,4.0,0.0
14873,63.0,0.0,120.0,7.0,0.0
14874,75.0,120.0,120.0,5.0,0.0
14875,63.0,0.0,120.0,14.0,0.0
14876,64.0,105.0,120.0,14.0,0.0
14877,64.0,0.0,120.0,13.0,0.0
14878,64.0,0.0,120.0,7.0,0.0
14879,61.0,0.0,120.0,13.0,0.0
14880,61.0,0.0,120.0,14.0,0.0
14881,61.0,120.0,120.0,7.0,0.0
14882,82.0,0.0,60.0,11.0,0.0
14883,75.0,15.0,60.0,12.0,0.0
14884,82.0,120.0,120.0,4.0,0.0
14885,75.0,0.0,240.0,12.0,0.0
14886,61.0,0.0,120.0,13.0,0.0
14887,79.0,90.0,240.0,11.0,0.0
14888,61.0,0.0,120.0,14.0,0.0
14889,79.0,0.0,120.0,5.0,0.0
14890,61.0,0.0,120.0,7.0,0.0
14891,75.0,0.0,120.0,6.0,0.0
14892,63.0,0.0,120.0,13.0,0.0
14893,63.0,15.0,120.0,14.0,0.0
14894,63.0,0.0,120.0,7.0,0.0
14895,59.0,0.0,120.0,13.0,0.0
14896,59.0,120.0,120.0,14.0,0.0
14897,59.0,0.0,120.0,7.0,0.0
14898,75.0,0.0,60.0,12.0,0.0
14899,75.0,15.0,60.0,11.0,0.0
14900,87.0,0.0,360.0,11.0,0.0
14901,59.0,0.0,120.0,13.0,0.0
14902,59.0,0.0,120.0,7.0,0.0
14903,59.0,0.0,120.0,14.0,0.0
14904,75.0,120.0,360.0,12.0,0.0
14905,61.0,0.0,120.0,7.0,0.0
14906,61.0,0.0,120.0,13.0,0.0
14907,80.0,0.0,120.0,10.0,0.0
14908,61.0,100.0,120.0,14.0,0.0
14909,63.0,0.0,120.0,14.0,0.0
14910,63.0,0.0,120.0,13.0,0.0
14911,63.0,0.0,120.0,7.0,0.0
14912,79.0,5.0,90.0,10.0,0.0
14913,80.0,15.0,60.0,5.0,0.0
14914,64.0,0.0,120.0,14.0,0.0
14915,64.0,100.0,120.0,13.0,0.0
14916,64.0,0.0,120.0,7.0,0.0
14917,80.0,0.0,120.0,10.0,0.0
14918,80.0,0.0,120.0,4.0,0.0
14919,80.0,0.0,120.0,5.0,0.0
14920,66.0,0.0,90.0,7.0,0.0
14921,66.0,0.0,90.0,13.0,0.0
14922,82.0,100.0,120.0,10.0,0.0
14923,82.0,20.0,90.0,5.0,0.0
14924,66.0,0.0,90.0,14.0,0.0
14925,78.0,0.0,90.0,5.0,0.0
14926,63.0,0.0,90.0,7.0,0.0
14927,63.0,0.0,90.0,14.0,0.0
14928,63.0,0.0,90.0,13.0,0.0
14929,83.0,5.0,90.0,10.0,0.0
14930,68.0,0.0,60.0,12.0,0.0
14931,83.0,135.0,60.0,11.0,0.0
14932,68.0,0.0,240.0,12.0,0.0
14933,83.0,0.0,120.0,4.0,0.0
14934,63.0,100.0,120.0,13.0,0.0
14935,71.0,0.0,120.0,6.0,0.0
14936,83.0,100.0,480.0,10.0,0.0
14937,78.0,0.0,120.0,5.0,0.0
14938,63.0,0.0,120.0,14.0,0.0
14939,80.0,85.0,240.0,11.0,0.0
14940,63.0,0.0,120.0,7.0,0.0
14941,64.0,0.0,90.0,14.0,0.0
14942,80.0,35.0,90.0,5.0,0.0
14943,64.0,0.0,90.0,13.0,0.0
14944,64.0,0.0,90.0,7.0,0.0
14945,61.0,0.0,90.0,13.0,0.0
14946,61.0,0.0,90.0,14.0,0.0
14947,61.0,5.0,90.0,7.0,0.0
14948,76.0,0.0,90.0,5.0,0.0
14949,76.0,0.0,60.0,11.0,0.0
14950,68.0,135.0,60.0,12.0,0.0
14951,68.0,0.0,240.0,12.0,0.0
14952,61.0,0.0,240.0,14.0,0.0
14953,76.0,0.0,240.0,5.0,0.0
14954,61.0,0.0,240.0,7.0,0.0
14955,88.0,85.0,240.0,11.0,0.0
14956,61.0,0.0,240.0,13.0,0.0
14957,85.0,35.0,90.0,10.0,0.0
14958,82.0,5.0,90.0,10.0,0.0
14959,73.0,0.0,60.0,12.0,0.0
14960,73.0,135.0,60.0,6.0,0.0
14961,76.0,0.0,60.0,5.0,0.0
14962,61.0,0.0,60.0,7.0,0.0
14963,82.0,0.0,60.0,4.0,0.0
14964,76.0,0.0,60.0,11.0,0.0
14965,61.0,0.0,60.0,13.0,0.0
14966,61.0,0.0,60.0,14.0,0.0
14967,82.0,0.0,120.0,10.0,0.0
14968,76.0,0.0,240.0,11.0,0.0
14969,76.0,0.0,240.0,5.0,0.0
14970,73.0,0.0,120.0,6.0,0.0
14971,61.0,85.0,240.0,13.0,0.0
14972,61.0,0.0,240.0,7.0,0.0
14973,73.0,0.0,120.0,12.0,0.0
14974,61.0,0.0,240.0,14.0,0.0
14975,82.0,100.0,120.0,4.0,0.0
14976,75.0,0.0,90.0,6.0,0.0
14977,83.0,0.0,90.0,10.0,0.0
14978,75.0,0.0,90.0,12.0,0.0
14979,83.0,35.0,90.0,4.0,0.0
14980,71.0,0.0,90.0,12.0,0.0
14981,80.0,5.0,90.0,4.0,0.0
14982,71.0,0.0,90.0,6.0,0.0
14983,80.0,0.0,90.0,10.0,0.0
14984,61.0,0.0,60.0,7.0,0.0
14985,61.0,0.0,60.0,13.0,0.0
14986,61.0,135.0,60.0,14.0,0.0
14987,76.0,0.0,60.0,11.0,0.0
14988,76.0,0.0,60.0,5.0,0.0
14989,61.0,85.0,240.0,14.0,0.0
14990,71.0,0.0,120.0,6.0,0.0
14991,76.0,0.0,240.0,11.0,0.0
14992,80.0,0.0,120.0,10.0,0.0
14993,71.0,100.0,120.0,12.0,0.0
14994,80.0,0.0,120.0,4.0,0.0
14995,61.0,0.0,240.0,13.0,0.0
14996,76.0,0.0,240.0,5.0,0.0
14997,61.0,0.0,240.0,7.0,0.0
14998,82.0,0.0,90.0,10.0,0.0
14999,82.0,0.0,90.0,4.0,0.0
15000,73.0,35.0,90.0,12.0,0.0
15001,73.0,0.0,90.0,6.0,0.0
15002,70.0,0.0,90.0,12.0,0.0
15003,79.0,0.0,90.0,4.0,0.0
15004,79.0,5.0,90.0,10.0,0.0
15005,70.0,0.0,90.0,6.0,0.0
15006,76.0,0.0,60.0,5.0,0.0
15007,61.0,135.0,60.0,14.0,0.0
15008,76.0,0.0,60.0,11.0,0.0
15009,61.0,0.0,60.0,7.0,0.0
15010,61.0,0.0,60.0,13.0,0.0
15011,61.0,120.0,120.0,7.0,0.0
15012,70.0,0.0,240.0,6.0,0.0
15013,75.0,0.0,120.0,11.0,0.0
15014,61.0,0.0,120.0,14.0,0.0
15015,75.0,0.0,360.0,5.0,0.0
15016,79.0,0.0,120.0,10.0,0.0
15017,61.0,0.0,120.0,13.0,0.0
15018,70.0,0.0,120.0,12.0,0.0
15019,79.0,20.0,330.0,4.0,0.0
15020,58.0,100.0,120.0,14.0,0.0
15021,58.0,0.0,120.0,7.0,0.0
15022,58.0,0.0,120.0,13.0,0.0
15023,59.0,120.0,120.0,13.0,0.0
15024,59.0,0.0,120.0,14.0,0.0
15025,59.0,0.0,120.0,7.0,0.0
15026,82.0,0.0,120.0,10.0,0.0
15027,87.0,85.0,960.0,4.0,0.0
15028,75.0,0.0,120.0,12.0,0.0
15029,61.0,0.0,120.0,14.0,0.0
15030,61.0,0.0,120.0,7.0,0.0
15031,79.0,0.0,120.0,11.0,0.0
15032,61.0,100.0,120.0,13.0,0.0
15033,70.0,0.0,90.0,7.0,0.0
15034,70.0,120.0,90.0,14.0,0.0
15035,70.0,0.0,90.0,13.0,0.0
15036,59.0,0.0,90.0,13.0,0.0
15037,59.0,5.0,90.0,7.0,0.0
15038,59.0,0.0,90.0,14.0,0.0
15039,75.0,135.0,60.0,6.0,0.0
15040,61.0,0.0,120.0,14.0,0.0
15041,82.0,0.0,120.0,11.0,0.0
15042,79.0,0.0,120.0,12.0,0.0
15043,61.0,0.0,120.0,13.0,0.0
15044,61.0,0.0,120.0,7.0,0.0
15045,87.0,120.0,120.0,10.0,0.0
15046,70.0,0.0,480.0,5.0,0.0
15047,75.0,85.0,240.0,6.0,0.0
15048,59.0,0.0,120.0,7.0,0.0
15049,59.0,0.0,120.0,14.0,0.0
15050,59.0,15.0,120.0,13.0,0.0
15051,58.0,0.0,90.0,14.0,0.0
15052,58.0,0.0,90.0,13.0,0.0
15053,58.0,5.0,90.0,7.0,0.0
15054,75.0,135.0,60.0,6.0,0.0
15055,59.0,0.0,120.0,14.0,0.0
15056,75.0,0.0,360.0,6.0,0.0
15057,59.0,0.0,120.0,7.0,0.0
15058,59.0,120.0,120.0,13.0,0.0
15059,56.0,0.0,120.0,13.0,0.0
15060,56.0,0.0,120.0,7.0,0.0
15061,71.0,0.0,120.0,5.0,0.0
15062,56.0,15.0,120.0,14.0,0.0
15063,58.0,0.0,120.0,14.0,0.0
15064,58.0,0.0,120.0,13.0,0.0
15065,58.0,120.0,120.0,7.0,0.0
15066,73.0,5.0,90.0,5.0,0.0
15067,79.0,15.0,60.0,4.0,0.0
15068,59.0,100.0,120.0,7.0,0.0
15069,59.0,0.0,120.0,13.0,0.0
15070,68.0,0.0,120.0,12.0,0.0
15071,59.0,0.0,120.0,14.0,0.0
15072,75.0,0.0,120.0,5.0,0.0
15073,75.0,0.0,120.0,10.0,0.0
15074,80.0,0.0,840.0,4.0,0.0
15075,71.0,0.0,120.0,11.0,0.0
15076,76.0,0.0,90.0,5.0,0.0
15077,68.0,0.0,90.0,14.0,0.0
15078,68.0,120.0,90.0,13.0,0.0
15079,68.0,0.0,90.0,7.0,0.0
15080,58.0,0.0,90.0,7.0,0.0
15081,58.0,0.0,90.0,13.0,0.0
15082,58.0,0.0,90.0,14.0,0.0
15083,74.0,5.0,90.0,5.0,0.0
15084,76.0,135.0,60.0,6.0,0.0
15085,75.0,0.0,120.0,5.0,0.0
15086,80.0,0.0,120.0,10.0,0.0
15087,75.0,85.0,240.0,6.0,0.0
15088,59.0,0.0,120.0,7.0,0.0
15089,59.0,0.0,120.0,14.0,0.0
15090,71.0,0.0,120.0,12.0,0.0
15091,75.0,0.0,120.0,11.0,0.0
15092,59.0,120.0,120.0,13.0,0.0
15093,58.0,0.0,120.0,13.0,0.0
15094,73.0,15.0,120.0,5.0,0.0
15095,58.0,0.0,120.0,7.0,0.0
15096,58.0,0.0,120.0,14.0,0.0
15097,56.0,0.0,90.0,13.0,0.0
15098,56.0,5.0,90.0,7.0,0.0
15099,56.0,0.0,90.0,14.0,0.0
15100,71.0,0.0,90.0,5.0,0.0
15101,76.0,135.0,60.0,6.0,0.0
15102,70.0,0.0,360.0,6.0,0.0
15103,58.0,0.0,120.0,13.0,0.0
15104,73.0,0.0,360.0,5.0,0.0
15105,58.0,0.0,120.0,7.0,0.0
15106,58.0,120.0,120.0,14.0,0.0
15107,54.0,0.0,120.0,14.0,0.0
15108,82.0,0.0,120.0,4.0,0.0
15109,54.0,0.0,120.0,13.0,0.0
15110,54.0,100.0,120.0,7.0,0.0
15111,56.0,0.0,120.0,13.0,0.0
15112,56.0,120.0,120.0,14.0,0.0
15113,56.0,0.0,120.0,7.0,0.0
15114,83.0,20.0,90.0,4.0,0.0
15115,85.0,100.0,120.0,10.0,0.0
15116,58.0,0.0,120.0,14.0,0.0
15117,58.0,0.0,120.0,7.0,0.0
15118,78.0,0.0,120.0,11.0,0.0
15119,58.0,0.0,120.0,13.0,0.0
15120,85.0,90.0,960.0,4.0,0.0
15121,73.0,0.0,120.0,12.0,0.0
15122,66.0,120.0,90.0,14.0,0.0
15123,66.0,0.0,90.0,13.0,0.0
15124,66.0,0.0,90.0,7.0,0.0
15125,56.0,5.0,90.0,7.0,0.0
15126,56.0,0.0,90.0,13.0,0.0
15127,56.0,0.0,90.0,14.0,0.0
15128,71.0,135.0,60.0,6.0,0.0
15129,58.0,120.0,120.0,13.0,0.0
15130,70.0,85.0,240.0,6.0,0.0
15131,58.0,0.0,120.0,14.0,0.0
15132,70.0,0.0,120.0,12.0,0.0
15133,78.0,0.0,120.0,10.0,0.0
15134,73.0,0.0,120.0,11.0,0.0
15135,58.0,0.0,120.0,7.0,0.0
15136,66.0,0.0,480.0,5.0,0.0
15137,56.0,0.0,120.0,7.0,0.0
15138,56.0,0.0,120.0,14.0,0.0
15139,56.0,15.0,120.0,13.0,0.0
15140,54.0,5.0,90.0,14.0,0.0
15141,54.0,0.0,90.0,7.0,0.0
15142,54.0,0.0,90.0,13.0,0.0
15143,75.0,135.0,60.0,6.0,0.0
15144,56.0,120.0,120.0,14.0,0.0
15145,56.0,0.0,120.0,13.0,0.0
15146,75.0,120.0,360.0,6.0,0.0
15147,56.0,0.0,120.0,7.0,0.0
15148,52.0,0.0,120.0,13.0,0.0
15149,52.0,0.0,120.0,7.0,0.0
15150,52.0,0.0,120.0,14.0,0.0
15151,68.0,15.0,120.0,5.0,0.0
15152,54.0,0.0,120.0,13.0,0.0
15153,70.0,0.0,120.0,5.0,0.0
15154,54.0,0.0,120.0,14.0,0.0
15155,54.0,0.0,120.0,7.0,0.0
15156,75.0,15.0,60.0,4.0,0.0
15157,56.0,0.0,120.0,14.0,0.0
15158,76.0,0.0,960.0,4.0,0.0
15159,71.0,0.0,120.0,5.0,0.0
15160,76.0,0.0,120.0,11.0,0.0
15161,83.0,100.0,120.0,10.0,0.0
15162,71.0,0.0,120.0,12.0,0.0
15163,56.0,0.0,120.0,7.0,0.0
15164,56.0,0.0,120.0,13.0,0.0
15165,64.0,0.0,90.0,7.0,0.0
15166,64.0,0.0,90.0,14.0,0.0
15167,64.0,0.0,90.0,13.0,0.0
15168,73.0,120.0,90.0,5.0,0.0
15169,54.0,0.0,90.0,14.0,0.0
15170,54.0,0.0,90.0,7.0,0.0
15171,54.0,5.0,90.0,13.0,0.0
15172,70.0,0.0,90.0,5.0,0.0
15173,70.0,135.0,60.0,6.0,0.0
15174,56.0,0.0,120.0,14.0,0.0
15175,71.0,0.0,120.0,5.0,0.0
15176,71.0,0.0,120.0,11.0,0.0
15177,68.0,120.0,120.0,12.0,0.0
15178,56.0,0.0,120.0,7.0,0.0
15179,56.0,0.0,120.0,13.0,0.0
15180,68.0,85.0,240.0,6.0,0.0
15181,76.0,0.0,120.0,10.0,0.0
15182,54.0,0.0,120.0,13.0,0.0
15183,54.0,0.0,120.0,14.0,0.0
15184,54.0,0.0,120.0,7.0,0.0
15185,70.0,15.0,120.0,5.0,0.0
15186,52.0,0.0,90.0,14.0,0.0
15187,52.0,5.0,90.0,13.0,0.0
15188,52.0,0.0,90.0,7.0,0.0
15189,68.0,0.0,90.0,5.0,0.0
15190,73.0,135.0,60.0,6.0,0.0
15191,85.0,0.0,240.0,10.0,0.0
15192,66.0,0.0,240.0,6.0,0.0
15193,70.0,0.0,120.0,12.0,0.0
15194,54.0,135.0,120.0,13.0,0.0
15195,78.0,0.0,120.0,11.0,0.0
15196,70.0,90.0,240.0,5.0,0.0
15197,54.0,0.0,120.0,14.0,0.0
15198,54.0,0.0,120.0,7.0,0.0
15199,66.0,0.0,60.0,2.0,0.0
15200,78.0,0.0,60.0,10.0,0.0
15201,66.0,0.0,60.0,4.0,0.0
15202,66.0,0.0,60.0,6.0,0.0
15203,66.0,0.0,60.0,1.0,0.0
15204,66.0,0.0,60.0,0.0,0.0
15205,66.0,135.0,60.0,5.0,0.0
15206,66.0,0.0,240.0,2.0,0.0
15207,66.0,85.0,240.0,5.0,0.0
15208,66.0,0.0,240.0,1.0,0.0
15209,66.0,0.0,240.0,4.0,0.0
15210,66.0,0.0,240.0,0.0,0.0
15211,66.0,0.0,240.0,6.0,0.0
15212,78.0,100.0,120.0,10.0,0.0
15213,80.0,35.0,90.0,10.0,0.0
15214,76.0,5.0,90.0,10.0,0.0
15215,66.0,0.0,60.0,1.0,0.0
15216,66.0,0.0,60.0,5.0,0.0
15217,66.0,0.0,60.0,4.0,0.0
15218,66.0,135.0,60.0,6.0,0.0
15219,66.0,0.0,60.0,2.0,0.0
15220,66.0,0.0,60.0,0.0,0.0
15221,66.0,0.0,240.0,5.0,0.0
15222,66.0,0.0,240.0,2.0,0.0
15223,66.0,85.0,240.0,1.0,0.0
15224,76.0,100.0,120.0,10.0,0.0
15225,66.0,0.0,240.0,0.0,0.0
15226,66.0,0.0,240.0,6.0,0.0
15227,66.0,0.0,240.0,4.0,0.0
15228,78.0,35.0,90.0,10.0,0.0
15229,75.0,5.0,90.0,10.0,0.0
15230,66.0,0.0,60.0,4.0,0.0
15231,66.0,0.0,60.0,6.0,0.0
15232,66.0,135.0,60.0,0.0,0.0
15233,66.0,0.0,60.0,1.0,0.0
15234,66.0,0.0,60.0,5.0,0.0
15235,66.0,0.0,60.0,2.0,0.0
15236,54.0,0.0,120.0,14.0,0.0
15237,66.0,0.0,120.0,5.0,0.0
15238,66.0,0.0,120.0,2.0,0.0
15239,54.0,0.0,120.0,13.0,0.0
15240,66.0,120.0,120.0,4.0,0.0
15241,66.0,0.0,120.0,1.0,0.0
15242,66.0,0.0,120.0,6.0,0.0
15243,66.0,0.0,120.0,0.0,0.0
15244,75.0,0.0,120.0,10.0,0.0
15245,76.0,105.0,120.0,10.0,0.0
15246,78.0,120.0,120.0,10.0,0.0
15247,54.0,0.0,60.0,7.0,0.0
15248,54.0,0.0,60.0,12.0,0.0
15249,54.0,15.0,60.0,3.0,0.0
15250,71.0,0.0,60.0,11.0,0.0
15251,54.0,0.0,240.0,7.0,0.0
15252,75.0,0.0,120.0,5.0,0.0
15253,54.0,0.0,240.0,3.0,0.0
15254,80.0,0.0,120.0,10.0,0.0
15255,71.0,100.0,120.0,4.0,0.0
15256,71.0,0.0,120.0,11.0,0.0
15257,54.0,85.0,240.0,12.0,0.0
15258,82.0,0.0,90.0,10.0,0.0
15259,73.0,35.0,90.0,11.0,0.0
15260,78.0,5.0,90.0,10.0,0.0
15261,70.0,0.0,90.0,11.0,0.0
15262,54.0,135.0,60.0,12.0,0.0
15263,54.0,0.0,60.0,7.0,0.0
15264,54.0,0.0,60.0,3.0,0.0
15265,54.0,85.0,240.0,7.0,0.0
15266,54.0,0.0,240.0,12.0,0.0
15267,75.0,100.0,120.0,4.0,0.0
15268,70.0,0.0,120.0,11.0,0.0
15269,54.0,0.0,240.0,3.0,0.0
15270,71.0,0.0,120.0,5.0,0.0
15271,78.0,0.0,120.0,10.0,0.0
15272,71.0,0.0,90.0,11.0,0.0
15273,80.0,35.0,90.0,10.0,0.0
15274,76.0,0.0,90.0,10.0,0.0
15275,68.0,5.0,90.0,11.0,0.0
15276,54.0,135.0,60.0,7.0,0.0
15277,54.0,0.0,60.0,3.0,0.0
15278,54.0,0.0,60.0,12.0,0.0
15279,54.0,0.0,120.0,12.0,0.0
15280,54.0,90.0,240.0,7.0,0.0
15281,75.0,0.0,120.0,4.0,0.0
15282,68.0,0.0,120.0,11.0,0.0
15283,54.0,0.0,240.0,3.0,0.0
15284,71.0,120.0,120.0,5.0,0.0
15285,76.0,0.0,240.0,10.0,0.0
15286,70.0,15.0,120.0,11.0,0.0
15287,71.0,120.0,120.0,11.0,0.0
15288,76.0,15.0,60.0,10.0,0.0
15289,42.0,0.0,60.0,7.0,0.0
15290,66.0,0.0,60.0,2.0,0.0
15291,66.0,0.0,60.0,0.0,0.0
15292,54.0,0.0,60.0,3.0,0.0
15293,66.0,0.0,60.0,1.0,0.0
15294,42.0,0.0,60.0,13.0,0.0
15295,42.0,0.0,60.0,14.0,0.0
15296,42.0,0.0,240.0,13.0,0.0
15297,66.0,0.0,120.0,6.0,0.0
15298,73.0,0.0,120.0,4.0,0.0
15299,76.0,100.0,120.0,10.0,0.0
15300,73.0,0.0,120.0,11.0,0.0
15301,70.0,0.0,120.0,5.0,0.0
15302,66.0,0.0,240.0,1.0,0.0
15303,66.0,0.0,240.0,2.0,0.0
15304,66.0,85.0,240.0,0.0,0.0
15305,70.0,0.0,120.0,12.0,0.0
15306,54.0,0.0,240.0,3.0,0.0
15307,42.0,0.0,240.0,7.0,0.0
15308,42.0,0.0,240.0,14.0,0.0
15309,78.0,35.0,90.0,10.0,0.0
15310,75.0,0.0,90.0,11.0,0.0
15311,71.0,0.0,90.0,11.0,0.0
15312,75.0,5.0,90.0,10.0,0.0
15313,54.0,0.0,60.0,3.0,0.0
15314,66.0,135.0,60.0,2.0,0.0
15315,66.0,0.0,60.0,1.0,0.0
15316,66.0,0.0,60.0,0.0,0.0
15317,42.0,0.0,60.0,7.0,0.0
15318,42.0,0.0,60.0,14.0,0.0
15319,42.0,0.0,60.0,13.0,0.0
15320,71.0,0.0,120.0,5.0,0.0
15321,54.0,85.0,240.0,3.0,0.0
15322,42.0,0.0,240.0,7.0,0.0
15323,66.0,0.0,240.0,0.0,0.0
15324,75.0,0.0,120.0,10.0,0.0
15325,66.0,0.0,240.0,1.0,0.0
15326,71.0,0.0,120.0,11.0,0.0
15327,42.0,0.0,240.0,14.0,0.0
15328,66.0,100.0,120.0,12.0,0.0
15329,75.0,0.0,120.0,4.0,0.0
15330,66.0,0.0,240.0,2.0,0.0
15331,42.0,0.0,240.0,13.0,0.0
15332,66.0,0.0,120.0,6.0,0.0
15333,73.0,0.0,90.0,11.0,0.0
15334,76.0,35.0,90.0,10.0,0.0
15335,73.0,0.0,90.0,10.0,0.0
15336,70.0,5.0,90.0,11.0,0.0
15337,42.0,0.0,60.0,13.0,0.0
15338,42.0,0.0,60.0,14.0,0.0
15339,66.0,0.0,60.0,0.0,0.0
15340,54.0,0.0,60.0,3.0,0.0
15341,66.0,0.0,60.0,2.0,0.0
15342,66.0,0.0,60.0,1.0,0.0
15343,42.0,135.0,60.0,7.0,0.0
15344,73.0,0.0,120.0,10.0,0.0
15345,73.0,0.0,120.0,5.0,0.0
15346,70.0,0.0,120.0,11.0,0.0
15347,66.0,0.0,240.0,12.0,0.0
15348,54.0,0.0,120.0,3.0,0.0
15349,76.0,0.0,120.0,4.0,0.0
15350,42.0,0.0,240.0,13.0,0.0
15351,70.0,0.0,240.0,6.0,0.0
15352,42.0,85.0,240.0,14.0,0.0
15353,66.0,0.0,120.0,2.0,0.0
15354,66.0,120.0,120.0,1.0,0.0
15355,42.0,0.0,240.0,7.0,0.0
15356,66.0,0.0,120.0,0.0,0.0
15357,75.0,0.0,120.0,10.0,0.0
15358,75.0,15.0,120.0,4.0,0.0
15359,71.0,0.0,120.0,11.0,0.0
15360,71.0,0.0,120.0,5.0,0.0
15361,73.0,0.0,90.0,5.0,0.0
15362,73.0,5.0,90.0,4.0,0.0
15363,73.0,0.0,90.0,11.0,0.0
15364,76.0,120.0,120.0,10.0,0.0
15365,66.0,0.0,60.0,12.0,0.0
15366,70.0,0.0,60.0,6.0,0.0
15367,52.0,0.0,60.0,7.0,0.0
15368,52.0,0.0,60.0,14.0,0.0
15369,52.0,15.0,60.0,13.0,0.0
15370,51.0,0.0,240.0,13.0,0.0
15371,78.0,100.0,120.0,4.0,0.0
15372,51.0,0.0,240.0,14.0,0.0
15373,73.0,0.0,240.0,5.0,0.0
15374,66.0,0.0,240.0,12.0,0.0
15375,78.0,0.0,120.0,10.0,0.0
15376,51.0,85.0,240.0,7.0,0.0
15377,73.0,0.0,240.0,11.0,0.0
15378,70.0,0.0,240.0,6.0,0.0
15379,80.0,35.0,90.0,10.0,0.0
15380,80.0,0.0,90.0,4.0,0.0
15381,76.0,0.0,90.0,10.0,0.0
15382,76.0,5.0,90.0,4.0,0.0
15383,71.0,0.0,60.0,5.0,0.0
15384,56.0,0.0,60.0,7.0,0.0
15385,71.0,0.0,60.0,11.0,0.0
15386,56.0,0.0,60.0,14.0,0.0
15387,56.0,0.0,60.0,13.0,0.0
15388,68.0,135.0,60.0,12.0,0.0
15389,71.0,0.0,60.0,6.0,0.0
15390,68.0,0.0,240.0,12.0,0.0
15391,76.0,100.0,120.0,10.0,0.0
15392,49.0,85.0,240.0,7.0,0.0
15393,71.0,0.0,240.0,11.0,0.0
15394,76.0,0.0,120.0,4.0,0.0
15395,64.0,0.0,240.0,6.0,0.0
15396,71.0,0.0,240.0,5.0,0.0
15397,49.0,0.0,240.0,13.0,0.0
15398,49.0,0.0,240.0,14.0,0.0
15399,78.0,35.0,90.0,10.0,0.0
15400,78.0,0.0,90.0,4.0,0.0
15401,75.0,5.0,90.0,4.0,0.0
15402,75.0,0.0,90.0,10.0,0.0
15403,54.0,0.0,60.0,13.0,0.0
15404,54.0,135.0,60.0,7.0,0.0
15405,70.0,0.0,60.0,11.0,0.0
15406,66.0,0.0,60.0,12.0,0.0
15407,66.0,0.0,60.0,6.0,0.0
15408,70.0,0.0,60.0,5.0,0.0
15409,54.0,0.0,60.0,14.0,0.0
15410,66.0,0.0,120.0,12.0,0.0
15411,71.0,0.0,120.0,11.0,0.0
15412,75.0,0.0,120.0,10.0,0.0
15413,71.0,0.0,120.0,5.0,0.0
15414,47.0,0.0,240.0,14.0,0.0
15415,66.0,0.0,120.0,6.0,0.0
15416,47.0,90.0,240.0,7.0,0.0
15417,75.0,120.0,120.0,4.0,0.0
15418,47.0,0.0,240.0,13.0,0.0
15419,71.0,15.0,120.0,10.0,0.0
15420,71.0,0.0,120.0,4.0,0.0
15421,73.0,120.0,120.0,10.0,0.0
15422,73.0,0.0,120.0,4.0,0.0
15423,54.0,0.0,60.0,7.0,0.0
15424,54.0,0.0,60.0,14.0,0.0
15425,54.0,15.0,60.0,13.0,0.0
15426,75.0,0.0,120.0,10.0,0.0
15427,78.0,100.0,120.0,11.0,0.0
15428,78.0,0.0,120.0,5.0,0.0
15429,59.0,0.0,120.0,14.0,0.0
15430,59.0,0.0,120.0,7.0,0.0
15431,66.0,0.0,120.0,6.0,0.0
15432,66.0,0.0,120.0,12.0,0.0
15433,59.0,0.0,120.0,13.0,0.0
15434,75.0,0.0,120.0,4.0,0.0
15435,61.0,100.0,120.0,13.0,0.0
15436,61.0,0.0,120.0,14.0,0.0
15437,61.0,0.0,90.0,7.0,0.0
15438,76.0,20.0,90.0,4.0,0.0
15439,76.0,0.0,120.0,10.0,0.0
15440,58.0,0.0,120.0,14.0,0.0
15441,58.0,0.0,120.0,13.0,0.0
15442,73.0,120.0,120.0,10.0,0.0
15443,73.0,0.0,90.0,4.0,0.0
15444,58.0,20.0,90.0,7.0,0.0
15445,58.0,0.0,120.0,13.0,0.0
15446,73.0,0.0,120.0,10.0,0.0
15447,73.0,0.0,120.0,4.0,0.0
15448,70.0,0.0,120.0,6.0,0.0
15449,70.0,0.0,120.0,12.0,0.0
15450,78.0,0.0,120.0,11.0,0.0
15451,78.0,0.0,120.0,5.0,0.0
15452,58.0,100.0,120.0,7.0,0.0
15453,58.0,0.0,120.0,14.0,0.0
15454,59.0,100.0,120.0,14.0,0.0
15455,59.0,0.0,120.0,13.0,0.0
15456,75.0,20.0,90.0,4.0,0.0
15457,75.0,0.0,120.0,10.0,0.0
15458,59.0,0.0,90.0,7.0,0.0
15459,56.0,0.0,90.0,7.0,0.0
15460,56.0,0.0,120.0,13.0,0.0
15461,71.0,20.0,90.0,4.0,0.0
15462,56.0,0.0,120.0,14.0,0.0
15463,71.0,120.0,120.0,10.0,0.0
15464,56.0,120.0,120.0,7.0,0.0
15465,71.0,0.0,240.0,10.0,0.0
15466,71.0,90.0,240.0,4.0,0.0
15467,63.0,0.0,120.0,12.0,0.0
15468,75.0,0.0,120.0,6.0,0.0
15469,56.0,0.0,120.0,13.0,0.0
15470,56.0,0.0,120.0,14.0,0.0
15471,78.0,0.0,120.0,5.0,0.0
15472,78.0,0.0,120.0,11.0,0.0
15473,68.0,0.0,120.0,12.0,0.0
15474,68.0,15.0,120.0,6.0,0.0
15475,52.0,0.0,120.0,7.0,0.0
15476,52.0,0.0,120.0,14.0,0.0
15477,52.0,0.0,120.0,13.0,0.0
15478,54.0,120.0,120.0,7.0,0.0
15479,69.0,0.0,120.0,6.0,0.0
15480,69.0,0.0,120.0,12.0,0.0
15481,54.0,0.0,120.0,13.0,0.0
15482,54.0,0.0,120.0,14.0,0.0
15483,71.0,15.0,60.0,4.0,0.0
15484,71.0,0.0,60.0,10.0,0.0
15485,56.0,0.0,120.0,13.0,0.0
15486,71.0,0.0,120.0,12.0,0.0
15487,56.0,0.0,120.0,14.0,0.0
15488,76.0,0.0,240.0,4.0,0.0
15489,71.0,100.0,120.0,6.0,0.0
15490,56.0,0.0,120.0,7.0,0.0
15491,76.0,85.0,240.0,10.0,0.0
15492,57.0,0.0,90.0,7.0,0.0
15493,73.0,0.0,90.0,12.0,0.0
15494,57.0,35.0,90.0,14.0,0.0
15495,73.0,0.0,90.0,6.0,0.0
15496,57.0,0.0,90.0,13.0,0.0
15497,54.0,0.0,90.0,13.0,0.0
15498,69.0,5.0,90.0,12.0,0.0
15499,54.0,0.0,90.0,7.0,0.0
15500,69.0,0.0,90.0,6.0,0.0
15501,54.0,0.0,90.0,14.0,0.0
15502,75.0,135.0,60.0,4.0,0.0
15503,71.0,0.0,60.0,11.0,0.0
15504,75.0,0.0,60.0,10.0,0.0
15505,71.0,0.0,60.0,5.0,0.0
15506,54.0,0.0,120.0,7.0,0.0
15507,73.0,85.0,240.0,11.0,0.0
15508,54.0,100.0,120.0,14.0,0.0
15509,69.0,0.0,120.0,6.0,0.0
15510,73.0,0.0,240.0,5.0,0.0
15511,76.0,0.0,240.0,4.0,0.0
15512,76.0,0.0,240.0,10.0,0.0
15513,54.0,0.0,120.0,13.0,0.0
15514,69.0,0.0,120.0,12.0,0.0
15515,56.0,0.0,90.0,13.0,0.0
15516,71.0,35.0,90.0,12.0,0.0
15517,56.0,0.0,90.0,14.0,0.0
15518,56.0,0.0,90.0,7.0,0.0
15519,71.0,0.0,90.0,6.0,0.0
15520,52.0,0.0,90.0,13.0,0.0
15521,52.0,0.0,90.0,7.0,0.0
15522,52.0,0.0,90.0,14.0,0.0
15523,68.0,5.0,90.0,12.0,0.0
15524,68.0,0.0,90.0,6.0,0.0
15525,78.0,0.0,60.0,10.0,0.0
15526,75.0,135.0,60.0,11.0,0.0
15527,78.0,0.0,60.0,4.0,0.0
15528,75.0,0.0,60.0,5.0,0.0
15529,76.0,0.0,240.0,5.0,0.0
15530,52.0,0.0,240.0,13.0,0.0
15531,80.0,0.0,120.0,4.0,0.0
15532,52.0,0.0,240.0,14.0,0.0
15533,76.0,0.0,240.0,11.0,0.0
15534,80.0,100.0,120.0,10.0,0.0
15535,68.0,0.0,240.0,6.0,0.0
15536,52.0,0.0,240.0,7.0,0.0
15537,68.0,85.0,240.0,12.0,0.0
15538,81.0,35.0,90.0,10.0,0.0
15539,81.0,0.0,90.0,4.0,0.0
15540,78.0,5.0,90.0,4.0,0.0
15541,78.0,0.0,90.0,10.0,0.0
15542,71.0,0.0,60.0,6.0,0.0
15543,71.0,0.0,60.0,5.0,0.0
15544,71.0,0.0,60.0,11.0,0.0
15545,51.0,0.0,60.0,14.0,0.0
15546,51.0,0.0,60.0,13.0,0.0
15547,51.0,0.0,60.0,7.0,0.0
15548,63.0,45.0,60.0,12.0,0.0
15549,70.0,30.0,30.0,5.0,0.0
15550,49.0,85.0,240.0,13.0,0.0
15551,73.0,0.0,240.0,6.0,0.0
15552,76.0,0.0,120.0,4.0,0.0
15553,64.0,0.0,240.0,12.0,0.0
15554,49.0,0.0,240.0,7.0,0.0
15555,49.0,0.0,240.0,14.0,0.0
15556,76.0,30.0,120.0,10.0,0.0
15557,70.0,0.0,240.0,11.0,0.0
15558,71.0,30.0,30.0,5.0,0.0
15559,70.0,30.0,30.0,5.0,0.0
15560,71.0,0.0,30.0,5.0,0.0
15561,78.0,0.0,90.0,10.0,0.0
15562,78.0,20.0,90.0,4.0,0.0
15563,70.0,30.0,30.0,5.0,0.0
15564,71.0,30.0,30.0,5.0,0.0
15565,68.0,10.0,30.0,5.0,0.0
15566,70.0,15.0,30.0,5.0,0.0
15567,75.0,0.0,90.0,4.0,0.0
15568,75.0,5.0,90.0,10.0,0.0
15569,68.0,0.0,60.0,6.0,0.0
15570,71.0,0.0,60.0,11.0,0.0
15571,71.0,0.0,60.0,5.0,0.0
15572,68.0,0.0,60.0,12.0,0.0
15573,52.0,0.0,60.0,14.0,0.0
15574,52.0,135.0,60.0,7.0,0.0
15575,52.0,0.0,60.0,13.0,0.0
15576,46.0,0.0,240.0,14.0,0.0
15577,73.0,100.0,120.0,10.0,0.0
15578,68.0,0.0,240.0,6.0,0.0
15579,46.0,0.0,240.0,13.0,0.0
15580,73.0,85.0,240.0,11.0,0.0
15581,73.0,0.0,120.0,4.0,0.0
15582,46.0,0.0,240.0,7.0,0.0
15583,68.0,0.0,240.0,12.0,0.0
15584,73.0,0.0,240.0,5.0,0.0
15585,75.0,0.0,90.0,4.0,0.0
15586,75.0,35.0,90.0,10.0,0.0
15587,71.0,5.0,90.0,4.0,0.0
15588,71.0,0.0,90.0,10.0,0.0
15589,76.0,0.0,60.0,5.0,0.0
15590,49.0,0.0,60.0,13.0,0.0
15591,49.0,0.0,60.0,7.0,0.0
15592,76.0,0.0,60.0,11.0,0.0
15593,49.0,0.0,60.0,14.0,0.0
15594,68.0,135.0,60.0,6.0,0.0
15595,68.0,0.0,60.0,12.0,0.0
15596,61.0,0.0,120.0,12.0,0.0
15597,66.0,0.0,120.0,6.0,0.0
15598,40.0,0.0,120.0,13.0,0.0
15599,78.0,85.0,240.0,4.0,0.0
15600,78.0,0.0,240.0,10.0,0.0
15601,40.0,0.0,120.0,14.0,0.0
15602,70.0,120.0,120.0,5.0,0.0
15603,70.0,0.0,120.0,11.0,0.0
15604,40.0,0.0,120.0,7.0,0.0
15605,68.0,0.0,120.0,6.0,0.0
15606,71.0,0.0,120.0,11.0,0.0
15607,71.0,0.0,120.0,5.0,0.0
15608,63.0,15.0,120.0,12.0,0.0
15609,73.0,0.0,90.0,5.0,0.0
15610,64.0,0.0,90.0,12.0,0.0
15611,70.0,0.0,90.0,6.0,0.0
15612,73.0,5.0,90.0,11.0,0.0
15613,73.0,0.0,60.0,10.0,0.0
15614,73.0,135.0,60.0,4.0,0.0
15615,73.0,0.0,120.0,11.0,0.0
15616,66.0,85.0,240.0,12.0,0.0
15617,73.0,0.0,120.0,5.0,0.0
15618,70.0,100.0,120.0,6.0,0.0
15619,66.0,0.0,240.0,10.0,0.0
15620,66.0,0.0,240.0,4.0,0.0
15621,75.0,20.0,90.0,5.0,0.0
15622,71.0,15.0,120.0,6.0,0.0
15623,75.0,0.0,90.0,11.0,0.0
15624,71.0,0.0,90.0,11.0,0.0
15625,73.0,5.0,90.0,6.0,0.0
15626,71.0,0.0,90.0,5.0,0.0
15627,76.0,0.0,60.0,10.0,0.0
15628,59.0,0.0,60.0,12.0,0.0
15629,56.0,0.0,60.0,14.0,0.0
15630,76.0,135.0,60.0,4.0,0.0
15631,56.0,0.0,60.0,7.0,0.0
15632,56.0,0.0,60.0,13.0,0.0
15633,54.0,0.0,240.0,14.0,0.0
15634,66.0,0.0,240.0,12.0,0.0
15635,71.0,100.0,120.0,11.0,0.0
15636,54.0,0.0,240.0,7.0,0.0
15637,75.0,0.0,240.0,10.0,0.0
15638,71.0,0.0,120.0,5.0,0.0
15639,66.0,0.0,240.0,6.0,0.0
15640,75.0,0.0,240.0,4.0,0.0
15641,54.0,85.0,240.0,13.0,0.0
15642,73.0,35.0,90.0,11.0,0.0
15643,73.0,0.0,90.0,5.0,0.0
15644,70.0,5.0,90.0,5.0,0.0
15645,70.0,0.0,90.0,11.0,0.0
15646,52.0,0.0,60.0,13.0,0.0
15647,80.0,0.0,60.0,4.0,0.0
15648,80.0,0.0,60.0,10.0,0.0
15649,52.0,0.0,60.0,7.0,0.0
15650,52.0,0.0,60.0,14.0,0.0
15651,73.0,0.0,60.0,6.0,0.0
15652,61.0,135.0,60.0,12.0,0.0
15653,66.0,0.0,240.0,12.0,0.0
15654,78.0,0.0,120.0,10.0,0.0
15655,78.0,0.0,120.0,4.0,0.0
15656,71.0,0.0,240.0,5.0,0.0
15657,51.0,0.0,120.0,13.0,0.0
15658,75.0,85.0,240.0,6.0,0.0
15659,51.0,120.0,120.0,14.0,0.0
15660,51.0,0.0,120.0,7.0,0.0
15661,71.0,0.0,240.0,11.0,0.0
15662,80.0,0.0,120.0,4.0,0.0
15663,52.0,15.0,120.0,13.0,0.0
15664,52.0,0.0,120.0,7.0,0.0
15665,52.0,0.0,120.0,14.0,0.0
15666,80.0,0.0,120.0,10.0,0.0
15667,82.0,120.0,120.0,4.0,0.0
15668,82.0,0.0,120.0,10.0,0.0
15669,54.0,5.0,90.0,13.0,0.0
15670,54.0,0.0,90.0,7.0,0.0
15671,54.0,0.0,90.0,14.0,0.0
15672,73.0,0.0,60.0,6.0,0.0
15673,76.0,0.0,60.0,5.0,0.0
15674,73.0,0.0,60.0,12.0,0.0
15675,76.0,15.0,60.0,11.0,0.0
15676,75.0,100.0,120.0,5.0,0.0
15677,83.0,0.0,120.0,10.0,0.0
15678,56.0,0.0,240.0,13.0,0.0
15679,71.0,0.0,240.0,12.0,0.0
15680,75.0,0.0,120.0,11.0,0.0
15681,83.0,0.0,120.0,4.0,0.0
15682,56.0,0.0,240.0,7.0,0.0
15683,71.0,85.0,240.0,6.0,0.0
15684,56.0,0.0,240.0,14.0,0.0
15685,76.0,35.0,90.0,11.0,0.0
15686,85.0,0.0,90.0,4.0,0.0
15687,76.0,0.0,90.0,5.0,0.0
15688,85.0,0.0,90.0,10.0,0.0
15689,73.0,0.0,90.0,11.0,0.0
15690,82.0,0.0,90.0,4.0,0.0
15691,73.0,0.0,90.0,5.0,0.0
15692,82.0,5.0,90.0,10.0,0.0
15693,73.0,0.0,60.0,12.0,0.0
15694,52.0,0.0,60.0,13.0,0.0
15695,73.0,0.0,60.0,6.0,0.0
15696,52.0,45.0,60.0,7.0,0.0
15697,52.0,0.0,60.0,14.0,0.0
15698,66.0,0.0,240.0,6.0,0.0
15699,82.0,0.0,240.0,10.0,0.0
15700,54.0,0.0,240.0,7.0,0.0
15701,73.0,0.0,240.0,11.0,0.0
15702,82.0,0.0,240.0,4.0,0.0
15703,66.0,0.0,240.0,12.0,0.0
15704,54.0,0.0,240.0,13.0,0.0
15705,54.0,90.0,240.0,14.0,0.0
15706,73.0,30.0,30.0,5.0,0.0
15707,75.0,30.0,30.0,5.0,0.0
15708,73.0,30.0,30.0,5.0,0.0
15709,75.0,30.0,30.0,5.0,0.0
15710,73.0,30.0,30.0,5.0,0.0
15711,75.0,30.0,30.0,5.0,0.0
15712,71.0,30.0,30.0,5.0,0.0
15713,73.0,15.0,30.0,5.0,0.0
15714,75.0,0.0,60.0,11.0,0.0
15715,42.0,0.0,60.0,13.0,0.0
15716,66.0,0.0,60.0,12.0,0.0
15717,66.0,0.0,60.0,6.0,0.0
15718,42.0,0.0,60.0,14.0,0.0
15719,42.0,135.0,60.0,7.0,0.0
15720,83.0,0.0,60.0,4.0,0.0
15721,75.0,0.0,60.0,5.0,0.0
15722,83.0,0.0,60.0,10.0,0.0
15723,66.0,135.0,120.0,6.0,0.0
15724,47.0,0.0,240.0,13.0,0.0
15725,47.0,90.0,240.0,14.0,0.0
15726,75.0,0.0,240.0,11.0,0.0
15727,83.0,0.0,240.0,10.0,0.0
15728,66.0,0.0,240.0,12.0,0.0
15729,75.0,0.0,120.0,5.0,0.0
15730,83.0,0.0,120.0,4.0,0.0
15731,47.0,0.0,240.0,7.0,0.0
15732,66.0,0.0,60.0,11.0,0.0
15733,66.0,0.0,60.0,10.0,0.0
15734,66.0,0.0,60.0,12.0,0.0
15735,66.0,0.0,60.0,7.0,0.0
15736,63.0,0.0,60.0,14.0,0.0
15737,63.0,135.0,60.0,13.0,0.0
15738,66.0,85.0,240.0,11.0,0.0
15739,71.0,0.0,120.0,5.0,0.0
15740,66.0,0.0,120.0,7.0,0.0
15741,66.0,0.0,240.0,12.0,0.0
15742,66.0,0.0,240.0,10.0,0.0
15743,63.0,0.0,120.0,14.0,0.0
15744,63.0,0.0,120.0,13.0,0.0
15745,66.0,0.0,120.0,6.0,0.0
15746,51.0,0.0,120.0,13.0,0.0
15747,78.0,0.0,120.0,4.0,0.0
15748,51.0,100.0,120.0,14.0,0.0
15749,64.0,35.0,90.0,14.0,0.0
15750,64.0,0.0,90.0,13.0,0.0
15751,68.0,0.0,90.0,7.0,0.0
15752,61.0,0.0,90.0,13.0,0.0
15753,61.0,0.0,90.0,14.0,0.0
15754,64.0,5.0,90.0,7.0,0.0
15755,66.0,0.0,60.0,12.0,0.0
15756,66.0,135.0,60.0,10.0,0.0
15757,66.0,0.0,60.0,11.0,0.0
15758,82.0,100.0,120.0,4.0,0.0
15759,73.0,0.0,120.0,6.0,0.0
15760,66.0,0.0,240.0,11.0,0.0
15761,54.0,0.0,120.0,14.0,0.0
15762,66.0,0.0,240.0,12.0,0.0
15763,61.0,0.0,120.0,14.0,0.0
15764,54.0,0.0,120.0,13.0,0.0
15765,61.0,0.0,120.0,13.0,0.0
15766,78.0,0.0,120.0,5.0,0.0
15767,66.0,85.0,240.0,10.0,0.0
15768,64.0,0.0,120.0,7.0,0.0
15769,63.0,0.0,90.0,13.0,0.0
15770,63.0,0.0,90.0,14.0,0.0
15771,66.0,35.0,90.0,7.0,0.0
15772,59.0,0.0,90.0,13.0,0.0
15773,59.0,5.0,90.0,14.0,0.0
15774,63.0,0.0,90.0,7.0,0.0
15775,66.0,135.0,60.0,10.0,0.0
15776,66.0,0.0,60.0,11.0,0.0
15777,66.0,0.0,60.0,12.0,0.0
15778,66.0,0.0,240.0,11.0,0.0
15779,78.0,120.0,120.0,5.0,0.0
15780,83.0,0.0,120.0,4.0,0.0
15781,66.0,0.0,240.0,10.0,0.0
15782,63.0,0.0,120.0,7.0,0.0
15783,59.0,0.0,120.0,13.0,0.0
15784,66.0,85.0,240.0,12.0,0.0
15785,75.0,0.0,120.0,6.0,0.0
15786,59.0,0.0,120.0,14.0,0.0
15787,61.0,0.0,120.0,14.0,0.0
15788,64.0,15.0,120.0,7.0,0.0
15789,61.0,0.0,120.0,13.0,0.0
15790,63.0,5.0,90.0,14.0,0.0
15791,66.0,0.0,90.0,7.0,0.0
15792,63.0,0.0,90.0,13.0,0.0
15793,66.0,0.0,60.0,12.0,0.0
15794,66.0,135.0,60.0,11.0,0.0
15795,66.0,0.0,60.0,10.0,0.0
15796,63.0,0.0,120.0,13.0,0.0
15797,51.0,0.0,120.0,13.0,0.0
15798,66.0,0.0,120.0,7.0,0.0
15799,66.0,85.0,240.0,11.0,0.0
15800,71.0,0.0,120.0,5.0,0.0
15801,51.0,0.0,120.0,14.0,0.0
15802,63.0,0.0,120.0,14.0,0.0
15803,66.0,0.0,240.0,12.0,0.0
15804,78.0,100.0,120.0,4.0,0.0
15805,78.0,0.0,120.0,6.0,0.0
15806,66.0,0.0,240.0,10.0,0.0
15807,64.0,0.0,90.0,13.0,0.0
15808,68.0,0.0,90.0,7.0,0.0
15809,64.0,35.0,90.0,14.0,0.0
15810,61.0,0.0,90.0,13.0,0.0
15811,61.0,0.0,90.0,14.0,0.0
15812,64.0,5.0,90.0,7.0,0.0
15813,66.0,0.0,60.0,12.0,0.0
15814,66.0,0.0,60.0,10.0,0.0
15815,66.0,135.0,60.0,11.0,0.0
15816,73.0,0.0,120.0,5.0,0.0
15817,61.0,0.0,120.0,13.0,0.0
15818,66.0,85.0,240.0,12.0,0.0
15819,64.0,100.0,120.0,7.0,0.0
15820,82.0,0.0,120.0,4.0,0.0
15821,54.0,0.0,120.0,14.0,0.0
15822,66.0,0.0,240.0,10.0,0.0
15823,54.0,0.0,120.0,13.0,0.0
15824,66.0,0.0,240.0,11.0,0.0
15825,61.0,0.0,120.0,14.0,0.0
15826,66.0,0.0,120.0,6.0,0.0
15827,63.0,0.0,90.0,13.0,0.0
15828,63.0,0.0,90.0,14.0,0.0
15829,66.0,35.0,90.0,7.0,0.0
15830,59.0,0.0,90.0,13.0,0.0
15831,63.0,5.0,90.0,7.0,0.0
15832,59.0,0.0,90.0,14.0,0.0
15833,66.0,0.0,60.0,12.0,0.0
15834,66.0,0.0,60.0,10.0,0.0
15835,66.0,135.0,60.0,11.0,0.0
15836,59.0,0.0,120.0,13.0,0.0
15837,66.0,0.0,120.0,10.0,0.0
15838,59.0,0.0,120.0,14.0,0.0
15839,66.0,0.0,120.0,12.0,0.0
15840,66.0,0.0,120.0,6.0,0.0
15841,47.0,0.0,120.0,14.0,0.0
15842,63.0,0.0,120.0,7.0,0.0
15843,75.0,120.0,120.0,5.0,0.0
15844,47.0,0.0,120.0,13.0,0.0
15845,66.0,0.0,120.0,11.0,0.0
15846,83.0,0.0,120.0,4.0,0.0
15847,70.0,100.0,120.0,10.0,0.0
15848,71.0,140.0,90.0,10.0,0.0
15849,71.0,0.0,120.0,10.0,0.0
15850,64.0,0.0,120.0,11.0,0.0
15851,61.0,100.0,120.0,12.0,0.0
15852,73.0,120.0,90.0,10.0,0.0
15853,69.0,5.0,90.0,10.0,0.0
15854,47.0,135.0,60.0,13.0,0.0
15855,47.0,0.0,60.0,14.0,0.0
15856,47.0,85.0,240.0,13.0,0.0
15857,66.0,0.0,120.0,11.0,0.0
15858,63.0,0.0,120.0,12.0,0.0
15859,47.0,0.0,240.0,14.0,0.0
15860,69.0,100.0,120.0,10.0,0.0
15861,71.0,35.0,90.0,10.0,0.0
15862,68.0,5.0,90.0,10.0,0.0
15863,47.0,0.0,60.0,13.0,0.0
15864,47.0,135.0,60.0,14.0,0.0
15865,59.0,120.0,120.0,11.0,0.0
15866,68.0,0.0,120.0,10.0,0.0
15867,52.0,0.0,120.0,13.0,0.0
15868,64.0,0.0,120.0,12.0,0.0
15869,52.0,0.0,120.0,14.0,0.0
15870,71.0,100.0,120.0,10.0,0.0
15871,73.0,140.0,90.0,10.0,0.0
15872,63.0,0.0,120.0,12.0,0.0
15873,73.0,0.0,120.0,10.0,0.0
15874,66.0,100.0,120.0,11.0,0.0
15875,75.0,120.0,90.0,10.0,0.0
15876,71.0,5.0,90.0,10.0,0.0
15877,49.0,0.0,60.0,13.0,0.0
15878,49.0,135.0,60.0,14.0,0.0
15879,68.0,100.0,120.0,11.0,0.0
15880,71.0,0.0,120.0,10.0,0.0
15881,49.0,0.0,240.0,13.0,0.0
15882,65.0,0.0,120.0,12.0,0.0
15883,49.0,85.0,240.0,14.0,0.0
15884,73.0,35.0,90.0,10.0,0.0
15885,70.0,5.0,90.0,10.0,0.0
15886,49.0,0.0,60.0,14.0,0.0
15887,49.0,135.0,60.0,13.0,0.0
15888,54.0,120.0,120.0,14.0,0.0
15889,66.0,0.0,120.0,12.0,0.0
15890,70.0,0.0,120.0,10.0,0.0
15891,61.0,0.0,120.0,11.0,0.0
15892,54.0,0.0,120.0,13.0,0.0
15893,73.0,100.0,120.0,10.0,0.0
15894,75.0,140.0,90.0,10.0,0.0
15895,65.0,0.0,120.0,12.0,0.0
15896,75.0,0.0,120.0,10.0,0.0
15897,68.0,100.0,120.0,11.0,0.0
15898,76.0,120.0,90.0,10.0,0.0
15899,73.0,5.0,90.0,10.0,0.0
15900,51.0,135.0,60.0,13.0,0.0
15901,51.0,0.0,60.0,14.0,0.0
15902,73.0,100.0,120.0,10.0,0.0
15903,51.0,85.0,240.0,13.0,0.0
15904,67.0,0.0,120.0,12.0,0.0
15905,51.0,0.0,240.0,14.0,0.0
15906,70.0,0.0,120.0,11.0,0.0
15907,75.0,35.0,90.0,10.0,0.0
15908,71.0,5.0,90.0,10.0,0.0
15909,51.0,135.0,60.0,13.0,0.0
15910,51.0,0.0,60.0,14.0,0.0
15911,63.0,85.0,240.0,11.0,0.0
15912,68.0,0.0,240.0,12.0,0.0
15913,71.0,0.0,120.0,10.0,0.0
15914,56.0,0.0,120.0,13.0,0.0
15915,56.0,120.0,120.0,14.0,0.0
15916,73.0,15.0,120.0,10.0,0.0
15917,75.0,5.0,90.0,10.0,0.0
15918,71.0,135.0,60.0,11.0,0.0
15919,68.0,0.0,60.0,12.0,0.0
15920,71.0,100.0,120.0,11.0,0.0
15921,68.0,0.0,120.0,12.0,0.0
15922,75.0,20.0,1050.0,10.0,0.0
15923,73.0,120.0,90.0,11.0,0.0
15924,70.0,0.0,90.0,12.0,0.0
15925,66.0,0.0,90.0,12.0,0.0
15926,70.0,140.0,90.0,11.0,0.0
15927,70.0,0.0,120.0,11.0,0.0
15928,66.0,100.0,120.0,12.0,0.0
15929,71.0,0.0,90.0,11.0,0.0
15930,68.0,120.0,90.0,12.0,0.0
15931,68.0,0.0,90.0,11.0,0.0
15932,65.0,140.0,90.0,12.0,0.0
15933,68.0,0.0,120.0,11.0,0.0
15934,65.0,120.0,120.0,12.0,0.0
15935,70.0,0.0,120.0,11.0,0.0
15936,67.0,100.0,120.0,12.0,0.0
15937,68.0,0.0,120.0,12.0,0.0
15938,71.0,120.0,120.0,11.0,0.0
15939,73.0,140.0,330.0,10.0,0.0
15940,73.0,100.0,120.0,11.0,0.0
15941,70.0,0.0,120.0,12.0,0.0
15942,71.0,0.0,90.0,12.0,0.0
15943,75.0,120.0,90.0,11.0,0.0
15944,68.0,0.0,90.0,12.0,0.0
15945,71.0,0.0,90.0,11.0,0.0
15946,76.0,140.0,450.0,10.0,0.0
15947,68.0,100.0,120.0,12.0,0.0
15948,71.0,0.0,120.0,11.0,0.0
15949,73.0,120.0,90.0,11.0,0.0
15950,70.0,0.0,90.0,12.0,0.0
15951,67.0,0.0,90.0,12.0,0.0
15952,70.0,120.0,90.0,11.0,0.0
15953,67.0,85.0,240.0,12.0,0.0
15954,70.0,5.0,330.0,11.0,0.0
15955,70.0,15.0,120.0,10.0,0.0
15956,71.0,120.0,120.0,10.0,0.0
15957,67.0,15.0,60.0,12.0,0.0
15958,67.0,85.0,240.0,12.0,0.0
15959,75.0,140.0,810.0,11.0,0.0
15960,73.0,0.0,120.0,10.0,0.0
15961,63.0,100.0,120.0,14.0,0.0
15962,63.0,0.0,120.0,13.0,0.0
15963,82.0,35.0,90.0,10.0,0.0
15964,71.0,5.0,90.0,10.0,0.0
15965,67.0,135.0,60.0,12.0,0.0
15966,51.0,120.0,120.0,14.0,0.0
15967,67.0,85.0,240.0,12.0,0.0
15968,73.0,0.0,120.0,10.0,0.0
15969,51.0,0.0,120.0,13.0,0.0
15970,71.0,15.0,120.0,10.0,0.0
15971,70.0,5.0,90.0,10.0,0.0
15972,67.0,115.0,60.0,12.0,0.0
15973,72.0,5.0,330.0,10.0,0.0
15974,66.0,85.0,240.0,12.0,0.0
15975,68.0,15.0,120.0,11.0,0.0
15976,70.0,120.0,120.0,11.0,0.0
15977,66.0,15.0,60.0,12.0,0.0
15978,56.0,100.0,120.0,13.0,0.0
15979,75.0,0.0,330.0,10.0,0.0
15980,56.0,0.0,120.0,14.0,0.0
15981,66.0,85.0,240.0,12.0,0.0
15982,72.0,0.0,120.0,11.0,0.0
15983,80.0,35.0,90.0,11.0,0.0
15984,70.0,5.0,90.0,11.0,0.0
15985,66.0,135.0,60.0,12.0,0.0
15986,44.0,0.0,120.0,13.0,0.0
15987,44.0,0.0,120.0,14.0,0.0
15988,80.0,140.0,450.0,10.0,0.0
15989,66.0,85.0,240.0,12.0,0.0
15990,72.0,120.0,120.0,11.0,0.0
15991,70.0,15.0,120.0,11.0,0.0
15992,68.0,5.0,90.0,11.0,0.0
15993,66.0,115.0,60.0,12.0,0.0
15994,65.0,90.0,240.0,12.0,0.0
15995,73.0,140.0,1170.0,11.0,0.0
15996,68.0,15.0,120.0,10.0,0.0
15997,70.0,120.0,120.0,10.0,0.0
15998,65.0,15.0,60.0,12.0,0.0
15999,61.0,0.0,120.0,14.0,0.0
16000,65.0,85.0,240.0,12.0,0.0
16001,71.0,0.0,120.0,10.0,0.0
16002,61.0,100.0,120.0,13.0,0.0
16003,80.0,35.0,90.0,10.0,0.0
16004,70.0,5.0,90.0,10.0,0.0
16005,65.0,135.0,60.0,12.0,0.0
16006,49.0,120.0,120.0,13.0,0.0
16007,49.0,0.0,120.0,14.0,0.0
16008,71.0,0.0,120.0,10.0,0.0
16009,65.0,85.0,240.0,12.0,0.0
16010,70.0,15.0,120.0,10.0,0.0
16011,68.0,5.0,90.0,10.0,0.0
16012,65.0,115.0,60.0,12.0,0.0
16013,70.0,5.0,330.0,10.0,0.0
16014,64.0,85.0,240.0,12.0,0.0
16015,66.0,15.0,120.0,11.0,0.0
16016,68.0,120.0,120.0,11.0,0.0
16017,64.0,15.0,60.0,12.0,0.0
16018,64.0,85.0,240.0,12.0,0.0
16019,70.0,0.0,120.0,11.0,0.0
16020,54.0,100.0,120.0,14.0,0.0
16021,73.0,0.0,330.0,10.0,0.0
16022,54.0,0.0,120.0,13.0,0.0
16023,78.0,35.0,90.0,11.0,0.0
16024,68.0,5.0,90.0,11.0,0.0
16025,64.0,135.0,60.0,12.0,0.0
16026,64.0,85.0,240.0,12.0,0.0
16027,42.0,0.0,120.0,14.0,0.0
16028,42.0,0.0,120.0,13.0,0.0
16029,70.0,120.0,120.0,11.0,0.0
16030,78.0,140.0,450.0,10.0,0.0
16031,68.0,15.0,120.0,11.0,0.0
16032,66.0,5.0,90.0,11.0,0.0
16033,64.0,115.0,60.0,12.0,0.0
16034,71.0,5.0,330.0,11.0,0.0
16035,63.0,85.0,240.0,12.0,0.0
16036,70.0,15.0,120.0,10.0,0.0
16037,71.0,120.0,120.0,10.0,0.0
16038,63.0,15.0,60.0,12.0,0.0
16039,59.0,100.0,120.0,13.0,0.0
16040,59.0,0.0,120.0,14.0,0.0
16041,73.0,0.0,120.0,10.0,0.0
16042,78.0,120.0,720.0,11.0,0.0
16043,63.0,85.0,240.0,12.0,0.0
16044,70.0,35.0,90.0,10.0,0.0
16045,71.0,5.0,90.0,10.0,0.0
16046,63.0,135.0,60.0,12.0,0.0
16047,66.0,0.0,120.0,10.0,0.0
16048,63.0,85.0,240.0,12.0,0.0
16049,47.0,0.0,120.0,13.0,0.0
16050,47.0,100.0,120.0,14.0,0.0
16051,70.0,35.0,90.0,10.0,0.0
16052,71.0,5.0,90.0,10.0,0.0
16053,63.0,15.0,60.0,12.0,0.0
16054,78.0,0.0,1050.0,11.0,0.0
16055,80.0,120.0,120.0,10.0,0.0
16056,62.0,90.0,240.0,12.0,0.0
16057,70.0,15.0,120.0,10.0,0.0
16058,71.0,120.0,120.0,10.0,0.0
16059,62.0,15.0,60.0,12.0,0.0
16060,62.0,85.0,240.0,12.0,0.0
16061,59.0,0.0,120.0,13.0,0.0
16062,59.0,0.0,120.0,14.0,0.0
16063,73.0,100.0,120.0,10.0,0.0
16064,70.0,35.0,90.0,10.0,0.0
16065,71.0,5.0,90.0,10.0,0.0
16066,62.0,135.0,60.0,12.0,0.0
16067,68.0,0.0,120.0,10.0,0.0
16068,47.0,0.0,120.0,14.0,0.0
16069,47.0,100.0,120.0,13.0,0.0
16070,62.0,85.0,240.0,12.0,0.0
16071,70.0,35.0,90.0,10.0,0.0
16072,71.0,5.0,90.0,10.0,0.0
16073,62.0,45.0,60.0,12.0,0.0
16074,61.0,15.0,240.0,12.0,0.0
16075,74.0,30.0,120.0,10.0,0.0
16076,49.0,100.0,1080.0,14.0,0.0
16077,77.0,30.0,30.0,11.0,0.0
16078,49.0,0.0,1080.0,13.0,0.0
16079,78.0,30.0,30.0,11.0,0.0
16080,77.0,30.0,30.0,11.0,0.0
16081,78.0,0.0,30.0,11.0,0.0
16082,77.0,30.0,30.0,11.0,0.0
16083,73.0,20.0,90.0,10.0,0.0
16084,78.0,30.0,30.0,11.0,0.0
16085,77.0,10.0,30.0,11.0,0.0
16086,78.0,15.0,30.0,11.0,0.0
16087,71.0,5.0,90.0,10.0,0.0
16088,77.0,30.0,30.0,11.0,0.0
16089,61.0,15.0,60.0,12.0,0.0
16090,78.0,30.0,30.0,11.0,0.0
16091,77.0,10.0,30.0,11.0,0.0
16092,78.0,30.0,30.0,11.0,0.0
16093,71.0,30.0,120.0,10.0,0.0
16094,61.0,15.0,240.0,12.0,0.0
16095,77.0,30.0,30.0,11.0,0.0
16096,78.0,30.0,30.0,11.0,0.0
16097,77.0,30.0,30.0,11.0,0.0
16098,78.0,0.0,30.0,11.0,0.0
16099,69.0,20.0,90.0,10.0,0.0
16100,77.0,30.0,30.0,11.0,0.0
16101,78.0,30.0,30.0,11.0,0.0
16102,77.0,10.0,30.0,11.0,0.0
16103,78.0,15.0,30.0,11.0,0.0
16104,68.0,5.0,90.0,10.0,0.0
16105,77.0,30.0,30.0,11.0,0.0
16106,78.0,30.0,30.0,11.0,0.0
16107,61.0,15.0,60.0,12.0,0.0
16108,77.0,10.0,30.0,11.0,0.0
16109,78.0,30.0,30.0,11.0,0.0
16110,68.0,30.0,120.0,10.0,0.0
16111,77.0,30.0,30.0,11.0,0.0
16112,61.0,15.0,240.0,12.0,0.0
16113,78.0,30.0,30.0,11.0,0.0
16114,77.0,30.0,30.0,11.0,0.0
16115,78.0,0.0,30.0,11.0,0.0
16116,77.0,30.0,30.0,11.0,0.0
16117,69.0,20.0,90.0,10.0,0.0
16118,78.0,30.0,30.0,11.0,0.0
16119,77.0,10.0,30.0,11.0,0.0
16120,78.0,15.0,30.0,11.0,0.0
16121,71.0,5.0,90.0,10.0,0.0
16122,77.0,30.0,30.0,11.0,0.0
16123,61.0,7.0,60.0,12.0,0.0
16124,78.0,30.0,30.0,11.0,0.0
16125,75.0,10.0,30.0,11.0,0.0
16126,77.0,8.0,20.0,11.0,0.0
16127,49.0,0.0,1080.0,14.0,0.0
16128,69.0,120.0,120.0,10.0,0.0
16129,60.0,90.0,240.0,12.0,0.0
16130,49.0,120.0,1080.0,13.0,0.0
16131,78.0,20.0,90.0,11.0,0.0
16132,66.0,15.0,120.0,10.0,0.0
16133,75.0,0.0,120.0,11.0,0.0
16134,68.0,0.0,120.0,10.0,0.0
16135,77.0,120.0,120.0,11.0,0.0
16136,60.0,15.0,60.0,12.0,0.0
16137,60.0,85.0,240.0,12.0,0.0
16138,69.0,0.0,120.0,10.0,0.0
16139,78.0,100.0,120.0,11.0,0.0
16140,71.0,35.0,90.0,10.0,0.0
16141,80.0,0.0,90.0,11.0,0.0
16142,68.0,0.0,90.0,10.0,0.0
16143,77.0,5.0,90.0,11.0,0.0
16144,60.0,135.0,60.0,12.0,0.0
16145,69.0,0.0,120.0,10.0,0.0
16146,60.0,85.0,240.0,12.0,0.0
16147,78.0,100.0,120.0,11.0,0.0
16148,68.0,0.0,90.0,10.0,0.0
16149,77.0,35.0,90.0,11.0,0.0
16150,66.0,5.0,90.0,10.0,0.0
16151,75.0,0.0,90.0,11.0,0.0
16152,60.0,15.0,60.0,12.0,0.0
16153,49.0,5.0,1050.0,14.0,0.0
16154,59.0,85.0,240.0,12.0,0.0
16155,49.0,0.0,1050.0,13.0,0.0
16156,65.0,120.0,120.0,10.0,0.0
16157,80.0,5.0,330.0,11.0,0.0
16158,68.0,15.0,120.0,10.0,0.0
16159,73.0,120.0,120.0,10.0,0.0
16160,59.0,15.0,60.0,12.0,0.0
16161,73.0,20.0,810.0,11.0,0.0
16162,77.0,100.0,120.0,10.0,0.0
16163,59.0,85.0,240.0,12.0,0.0
16164,78.0,35.0,90.0,10.0,0.0
16165,80.0,5.0,90.0,10.0,0.0
16166,59.0,135.0,60.0,12.0,0.0
16167,59.0,85.0,240.0,12.0,0.0
16168,73.0,100.0,120.0,10.0,0.0
16169,78.0,35.0,90.0,10.0,0.0
16170,77.0,0.0,90.0,10.0,0.0
16171,59.0,115.0,60.0,12.0,0.0
16172,78.0,120.0,1080.0,10.0,0.0
16173,50.0,100.0,120.0,13.0,0.0
16174,57.0,85.0,240.0,12.0,0.0
16175,50.0,0.0,120.0,14.0,0.0
16176,66.0,35.0,90.0,11.0,0.0
16177,69.0,5.0,90.0,11.0,0.0
16178,61.0,135.0,60.0,12.0,0.0
16179,61.0,100.0,120.0,12.0,0.0
16180,69.0,0.0,120.0,11.0,0.0
16181,71.0,120.0,90.0,11.0,0.0
16182,62.0,0.0,90.0,12.0,0.0
16183,68.0,0.0,90.0,11.0,0.0
16184,59.0,140.0,90.0,12.0,0.0
16185,68.0,0.0,120.0,11.0,0.0
16186,59.0,100.0,120.0,12.0,0.0
16187,69.0,120.0,90.0,11.0,0.0
16188,61.0,0.0,90.0,12.0,0.0
16189,57.0,0.0,90.0,12.0,0.0
16190,66.0,20.0,90.0,11.0,0.0
16191,66.0,120.0,120.0,11.0,0.0
16192,78.0,20.0,1170.0,10.0,0.0
16193,57.0,0.0,120.0,12.0,0.0
16194,49.0,0.0,120.0,14.0,0.0
16195,49.0,0.0,120.0,13.0,0.0
16196,59.0,120.0,120.0,12.0,0.0
16197,68.0,0.0,120.0,11.0,0.0
16198,69.0,120.0,120.0,11.0,0.0
16199,61.0,0.0,120.0,12.0,0.0
16200,62.0,0.0,120.0,12.0,0.0
16201,71.0,100.0,120.0,11.0,0.0
16202,73.0,0.0,90.0,11.0,0.0
16203,64.0,120.0,90.0,12.0,0.0
16204,69.0,140.0,90.0,11.0,0.0
16205,61.0,0.0,90.0,12.0,0.0
16206,69.0,100.0,120.0,11.0,0.0
16207,61.0,0.0,120.0,12.0,0.0
16208,62.0,120.0,90.0,12.0,0.0
16209,71.0,0.0,90.0,11.0,0.0
16210,60.0,120.0,90.0,12.0,0.0
16211,68.0,0.0,90.0,11.0,0.0
16212,68.0,5.0,330.0,11.0,0.0
16213,60.0,120.0,120.0,12.0,0.0
16214,75.0,100.0,120.0,10.0,0.0
16215,77.0,120.0,120.0,10.0,0.0
16216,48.0,15.0,60.0,13.0,0.0
16217,48.0,0.0,60.0,14.0,0.0
16218,78.0,100.0,120.0,10.0,0.0
16219,75.0,0.0,960.0,11.0,0.0
16220,48.0,85.0,240.0,14.0,0.0
16221,48.0,0.0,240.0,13.0,0.0
16222,80.0,35.0,90.0,10.0,0.0
16223,77.0,5.0,90.0,10.0,0.0
16224,48.0,0.0,60.0,13.0,0.0
16225,48.0,135.0,60.0,14.0,0.0
16226,48.0,85.0,240.0,14.0,0.0
16227,78.0,120.0,120.0,10.0,0.0
16228,48.0,0.0,240.0,13.0,0.0
16229,77.0,15.0,120.0,10.0,0.0
16230,75.0,5.0,90.0,10.0,0.0
16231,48.0,135.0,60.0,13.0,0.0
16232,48.0,0.0,60.0,14.0,0.0
16233,49.0,0.0,240.0,14.0,0.0
16234,77.0,120.0,120.0,10.0,0.0
16235,49.0,90.0,240.0,13.0,0.0
16236,78.0,15.0,120.0,10.0,0.0
16237,80.0,120.0,120.0,10.0,0.0
16238,65.0,0.0,60.0,12.0,0.0
16239,49.0,15.0,60.0,14.0,0.0
16240,49.0,0.0,60.0,13.0,0.0
16241,73.0,0.0,60.0,11.0,0.0
16242,49.0,0.0,240.0,13.0,0.0
16243,49.0,85.0,240.0,14.0,0.0
16244,82.0,0.0,120.0,10.0,0.0
16245,65.0,0.0,240.0,12.0,0.0
16246,73.0,100.0,120.0,11.0,0.0
16247,75.0,35.0,90.0,11.0,0.0
16248,83.0,0.0,90.0,10.0,0.0
16249,80.0,5.0,90.0,10.0,0.0
16250,71.0,0.0,90.0,11.0,0.0
16251,49.0,0.0,60.0,13.0,0.0
16252,49.0,135.0,60.0,14.0,0.0
16253,65.0,0.0,60.0,12.0,0.0
16254,80.0,100.0,120.0,10.0,0.0
16255,71.0,0.0,120.0,11.0,0.0
16256,49.0,0.0,240.0,13.0,0.0
16257,49.0,0.0,240.0,14.0,0.0
16258,65.0,85.0,240.0,12.0,0.0
16259,73.0,35.0,90.0,11.0,0.0
16260,82.0,0.0,90.0,10.0,0.0
16261,70.0,0.0,90.0,11.0,0.0
16262,78.0,5.0,90.0,10.0,0.0
16263,65.0,135.0,60.0,12.0,0.0
16264,49.0,0.0,60.0,13.0,0.0
16265,49.0,0.0,60.0,14.0,0.0
16266,51.0,85.0,240.0,14.0,0.0
16267,66.0,100.0,120.0,12.0,0.0
16268,70.0,0.0,120.0,11.0,0.0
16269,51.0,0.0,240.0,13.0,0.0
16270,78.0,140.0,450.0,10.0,0.0
16271,73.0,35.0,90.0,11.0,0.0
16272,70.0,0.0,90.0,12.0,0.0
16273,71.0,5.0,90.0,11.0,0.0
16274,68.0,0.0,90.0,12.0,0.0
16275,44.0,115.0,60.0,14.0,0.0
16276,44.0,0.0,60.0,13.0,0.0
16277,46.0,0.0,240.0,13.0,0.0
16278,66.0,0.0,240.0,12.0,0.0
16279,73.0,85.0,240.0,11.0,0.0
16280,46.0,0.0,240.0,14.0,0.0
16281,71.0,15.0,120.0,10.0,0.0
16282,70.0,5.0,90.0,10.0,0.0
16283,47.0,0.0,60.0,14.0,0.0
16284,47.0,0.0,60.0,13.0,0.0
16285,75.0,0.0,60.0,11.0,0.0
16286,66.0,135.0,60.0,12.0,0.0
16287,61.0,0.0,240.0,12.0,0.0
16288,49.0,85.0,240.0,14.0,0.0
16289,73.0,0.0,240.0,11.0,0.0
16290,49.0,0.0,240.0,13.0,0.0
16291,68.0,100.0,120.0,10.0,0.0
16292,78.0,35.0,90.0,10.0,0.0
16293,77.0,5.0,90.0,10.0,0.0
16294,71.0,0.0,60.0,11.0,0.0
16295,49.0,0.0,60.0,13.0,0.0
16296,61.0,135.0,60.0,12.0,0.0
16297,49.0,0.0,60.0,14.0,0.0
16298,42.0,0.0,120.0,14.0,0.0
16299,42.0,0.0,120.0,13.0,0.0
16300,70.0,0.0,120.0,11.0,0.0
16301,61.0,0.0,120.0,12.0,0.0
16302,78.0,120.0,120.0,10.0,0.0
16303,82.0,100.0,120.0,10.0,0.0
16304,85.0,5.0,90.0,10.0,0.0
16305,85.0,135.0,60.0,4.0,0.0
16306,70.0,0.0,120.0,12.0,0.0
16307,78.0,100.0,120.0,11.0,0.0
16308,85.0,0.0,120.0,4.0,0.0
16309,85.0,0.0,120.0,10.0,0.0
16310,87.0,0.0,90.0,4.0,0.0
16311,87.0,120.0,90.0,10.0,0.0
16312,83.0,140.0,90.0,4.0,0.0
16313,83.0,0.0,90.0,10.0,0.0
16314,77.0,0.0,120.0,11.0,0.0
16315,83.0,0.0,120.0,4.0,0.0
16316,73.0,100.0,120.0,12.0,0.0
16317,83.0,0.0,120.0,10.0,0.0
16318,85.0,120.0,90.0,4.0,0.0
16319,85.0,0.0,90.0,10.0,0.0
16320,82.0,0.0,90.0,10.0,0.0
16321,82.0,140.0,90.0,4.0,0.0
16322,66.0,0.0,120.0,12.0,0.0
16323,82.0,100.0,120.0,10.0,0.0
16324,82.0,0.0,120.0,4.0,0.0
16325,78.0,0.0,120.0,11.0,0.0
16326,83.0,0.0,120.0,4.0,0.0
16327,68.0,100.0,120.0,12.0,0.0
16328,77.0,20.0,90.0,11.0,0.0
16329,83.0,0.0,120.0,10.0,0.0
16330,85.0,120.0,120.0,4.0,0.0
16331,70.0,0.0,90.0,12.0,0.0
16332,85.0,0.0,120.0,10.0,0.0
16333,78.0,5.0,90.0,11.0,0.0
16334,66.0,15.0,60.0,13.0,0.0
16335,78.0,0.0,60.0,5.0,0.0
16336,70.0,0.0,60.0,6.0,0.0
16337,66.0,0.0,60.0,7.0,0.0
16338,66.0,0.0,60.0,14.0,0.0
16339,66.0,0.0,120.0,7.0,0.0
16340,66.0,0.0,120.0,14.0,0.0
16341,70.0,85.0,240.0,6.0,0.0
16342,70.0,0.0,240.0,12.0,0.0
16343,87.0,100.0,120.0,10.0,0.0
16344,78.0,0.0,240.0,11.0,0.0
16345,78.0,0.0,240.0,5.0,0.0
16346,66.0,0.0,120.0,13.0,0.0
16347,87.0,0.0,120.0,4.0,0.0
16348,68.0,0.0,90.0,7.0,0.0
16349,68.0,0.0,90.0,13.0,0.0
16350,68.0,35.0,90.0,14.0,0.0
16351,88.0,0.0,90.0,10.0,0.0
16352,88.0,0.0,90.0,4.0,0.0
16353,85.0,5.0,90.0,4.0,0.0
16354,64.0,0.0,90.0,7.0,0.0
16355,85.0,0.0,90.0,10.0,0.0
16356,64.0,0.0,90.0,14.0,0.0
16357,64.0,0.0,90.0,13.0,0.0
16358,73.0,0.0,60.0,12.0,0.0
16359,70.0,0.0,60.0,11.0,0.0
16360,73.0,0.0,60.0,6.0,0.0
16361,70.0,135.0,60.0,5.0,0.0
16362,64.0,0.0,120.0,13.0,0.0
16363,64.0,0.0,120.0,14.0,0.0
16364,70.0,0.0,240.0,6.0,0.0
16365,73.0,0.0,240.0,5.0,0.0
16366,73.0,85.0,240.0,11.0,0.0
16367,85.0,0.0,120.0,10.0,0.0
16368,70.0,0.0,240.0,12.0,0.0
16369,64.0,0.0,120.0,7.0,0.0
16370,85.0,100.0,120.0,4.0,0.0
16371,87.0,0.0,90.0,10.0,0.0
16372,66.0,0.0,90.0,13.0,0.0
16373,66.0,35.0,90.0,14.0,0.0
16374,87.0,0.0,90.0,4.0,0.0
16375,66.0,0.0,90.0,7.0,0.0
16376,63.0,0.0,90.0,13.0,0.0
16377,83.0,0.0,90.0,4.0,0.0
16378,63.0,0.0,90.0,14.0,0.0
16379,83.0,5.0,90.0,10.0,0.0
16380,63.0,0.0,90.0,7.0,0.0
16381,66.0,0.0,60.0,12.0,0.0
16382,66.0,0.0,60.0,6.0,0.0
16383,78.0,0.0,60.0,5.0,0.0
16384,78.0,135.0,60.0,11.0,0.0
16385,63.0,0.0,120.0,13.0,0.0
16386,78.0,0.0,120.0,11.0,0.0
16387,63.0,0.0,120.0,14.0,0.0
16388,78.0,0.0,120.0,5.0,0.0
16389,83.0,0.0,240.0,4.0,0.0
16390,71.0,0.0,240.0,6.0,0.0
16391,83.0,85.0,240.0,10.0,0.0
16392,71.0,0.0,240.0,12.0,0.0
16393,63.0,120.0,120.0,7.0,0.0
16394,65.0,0.0,120.0,7.0,0.0
16395,65.0,15.0,120.0,13.0,0.0
16396,80.0,0.0,120.0,11.0,0.0
16397,80.0,0.0,120.0,5.0,0.0
16398,65.0,0.0,120.0,14.0,0.0
16399,66.0,0.0,120.0,13.0,0.0
16400,78.0,5.0,90.0,5.0,0.0
16401,66.0,120.0,120.0,7.0,0.0
16402,66.0,0.0,120.0,14.0,0.0
16403,78.0,0.0,90.0,11.0,0.0
16404,83.0,0.0,60.0,4.0,0.0
16405,83.0,0.0,60.0,10.0,0.0
16406,75.0,15.0,60.0,6.0,0.0
16407,75.0,0.0,60.0,12.0,0.0
16408,68.0,100.0,120.0,13.0,0.0
16409,68.0,0.0,120.0,7.0,0.0
16410,77.0,0.0,120.0,5.0,0.0
16411,68.0,0.0,120.0,14.0,0.0
16412,77.0,0.0,120.0,11.0,0.0
16413,71.0,0.0,120.0,6.0,0.0
16414,83.0,0.0,240.0,10.0,0.0
16415,83.0,85.0,240.0,4.0,0.0
16416,71.0,0.0,120.0,12.0,0.0
16417,70.0,0.0,90.0,14.0,0.0
16418,70.0,0.0,90.0,7.0,0.0
16419,78.0,0.0,90.0,11.0,0.0
16420,78.0,0.0,90.0,5.0,0.0
16421,70.0,20.0,90.0,13.0,0.0
16422,73.0,0.0,120.0,12.0,0.0
16423,73.0,15.0,120.0,6.0,0.0
16424,66.0,0.0,90.0,14.0,0.0
16425,66.0,5.0,90.0,13.0,0.0
16426,75.0,0.0,90.0,12.0,0.0
16427,75.0,0.0,90.0,5.0,0.0
16428,66.0,0.0,90.0,7.0,0.0
16429,75.0,0.0,90.0,11.0,0.0
16430,75.0,0.0,90.0,6.0,0.0
16431,83.0,0.0,60.0,4.0,0.0
16432,83.0,135.0,60.0,10.0,0.0
16433,83.0,0.0,240.0,4.0,0.0
16434,68.0,0.0,240.0,6.0,0.0
16435,66.0,0.0,120.0,13.0,0.0
16436,75.0,0.0,120.0,11.0,0.0
16437,66.0,0.0,120.0,14.0,0.0
16438,66.0,100.0,120.0,7.0,0.0
16439,83.0,0.0,240.0,10.0,0.0
16440,68.0,85.0,240.0,12.0,0.0
16441,75.0,0.0,120.0,5.0,0.0
16442,68.0,0.0,90.0,7.0,0.0
16443,68.0,0.0,90.0,13.0,0.0
16444,68.0,0.0,90.0,14.0,0.0
16445,77.0,35.0,90.0,5.0,0.0
16446,77.0,0.0,90.0,11.0,0.0
16447,73.0,0.0,90.0,11.0,0.0
16448,73.0,0.0,90.0,5.0,0.0
16449,65.0,0.0,90.0,13.0,0.0
16450,65.0,5.0,90.0,14.0,0.0
16451,65.0,0.0,90.0,7.0,0.0
16452,83.0,135.0,60.0,4.0,0.0
16453,68.0,0.0,60.0,12.0,0.0
16454,83.0,0.0,60.0,10.0,0.0
16455,68.0,0.0,60.0,6.0,0.0
16456,65.0,90.0,240.0,13.0,0.0
16457,68.0,0.0,360.0,12.0,0.0
16458,73.0,0.0,240.0,11.0,0.0
16459,73.0,0.0,240.0,5.0,0.0
16460,65.0,0.0,240.0,7.0,0.0
16461,68.0,0.0,360.0,6.0,0.0
16462,83.0,120.0,120.0,4.0,0.0
16463,83.0,0.0,120.0,10.0,0.0
16464,65.0,0.0,240.0,14.0,0.0
16465,80.0,15.0,120.0,10.0,0.0
16466,80.0,0.0,120.0,4.0,0.0
16467,82.0,120.0,120.0,10.0,0.0
16468,82.0,0.0,120.0,4.0,0.0
16469,65.0,0.0,60.0,13.0,0.0
16470,65.0,15.0,60.0,14.0,0.0
16471,65.0,0.0,60.0,7.0,0.0
16472,85.0,0.0,60.0,11.0,0.0
16473,85.0,0.0,60.0,5.0,0.0
16474,83.0,0.0,120.0,10.0,0.0
16475,80.0,85.0,240.0,5.0,0.0
16476,65.0,0.0,240.0,13.0,0.0
16477,65.0,0.0,240.0,7.0,0.0
16478,65.0,0.0,240.0,14.0,0.0
16479,83.0,100.0,120.0,4.0,0.0
16480,80.0,0.0,240.0,11.0,0.0
16481,85.0,0.0,90.0,10.0,0.0
16482,85.0,35.0,90.0,4.0,0.0
16483,82.0,5.0,90.0,10.0,0.0
16484,82.0,0.0,90.0,4.0,0.0
16485,77.0,0.0,60.0,11.0,0.0
16486,73.0,0.0,60.0,12.0,0.0
16487,73.0,135.0,60.0,6.0,0.0
16488,65.0,0.0,60.0,7.0,0.0
16489,65.0,0.0,60.0,14.0,0.0
16490,77.0,0.0,60.0,5.0,0.0
16491,65.0,0.0,60.0,13.0,0.0
16492,65.0,0.0,240.0,14.0,0.0
16493,83.0,120.0,120.0,4.0,0.0
16494,65.0,85.0,240.0,7.0,0.0
16495,68.0,0.0,240.0,12.0,0.0
16496,65.0,0.0,240.0,13.0,0.0
16497,83.0,0.0,120.0,10.0,0.0
16498,73.0,0.0,240.0,5.0,0.0
16499,73.0,0.0,240.0,11.0,0.0
16500,68.0,0.0,240.0,6.0,0.0
16501,82.0,15.0,120.0,4.0,0.0
16502,82.0,0.0,120.0,10.0,0.0
16503,80.0,0.0,90.0,10.0,0.0
16504,80.0,5.0,90.0,4.0,0.0
16505,73.0,135.0,60.0,5.0,0.0
16506,65.0,0.0,60.0,14.0,0.0
16507,73.0,0.0,60.0,12.0,0.0
16508,73.0,0.0,60.0,6.0,0.0
16509,73.0,0.0,60.0,11.0,0.0
16510,65.0,0.0,60.0,13.0,0.0
16511,65.0,0.0,60.0,7.0,0.0
16512,66.0,0.0,240.0,7.0,0.0
16513,73.0,0.0,120.0,5.0,0.0
16514,66.0,0.0,120.0,6.0,0.0
16515,73.0,0.0,120.0,11.0,0.0
16516,66.0,85.0,240.0,13.0,0.0
16517,82.0,120.0,120.0,10.0,0.0
16518,66.0,0.0,240.0,14.0,0.0
16519,82.0,0.0,120.0,4.0,0.0
16520,66.0,0.0,120.0,12.0,0.0
16521,78.0,0.0,120.0,10.0,0.0
16522,78.0,0.0,120.0,4.0,0.0
16523,75.0,0.0,120.0,5.0,0.0
16524,75.0,15.0,120.0,11.0,0.0
16525,70.0,0.0,120.0,12.0,0.0
16526,70.0,0.0,120.0,6.0,0.0
16527,71.0,5.0,90.0,12.0,0.0
16528,77.0,0.0,90.0,11.0,0.0
16529,80.0,0.0,90.0,4.0,0.0
16530,80.0,0.0,90.0,10.0,0.0
16531,71.0,0.0,90.0,6.0,0.0
16532,77.0,0.0,90.0,5.0,0.0
16533,61.0,0.0,60.0,13.0,0.0
16534,61.0,135.0,60.0,7.0,0.0
16535,61.0,0.0,60.0,14.0,0.0
16536,61.0,0.0,120.0,14.0,0.0
16537,73.0,0.0,240.0,12.0,0.0
16538,61.0,0.0,120.0,7.0,0.0
16539,73.0,85.0,240.0,6.0,0.0
16540,61.0,100.0,120.0,13.0,0.0
16541,78.0,0.0,240.0,5.0,0.0
16542,82.0,0.0,120.0,4.0,0.0
16543,78.0,0.0,240.0,11.0,0.0
16544,82.0,0.0,120.0,10.0,0.0
16545,63.0,0.0,90.0,14.0,0.0
16546,63.0,35.0,90.0,7.0,0.0
16547,83.0,0.0,90.0,4.0,0.0
16548,83.0,0.0,90.0,10.0,0.0
16549,63.0,0.0,90.0,13.0,0.0
16550,59.0,0.0,90.0,14.0,0.0
16551,80.0,0.0,90.0,10.0,0.0
16552,59.0,5.0,90.0,7.0,0.0
16553,80.0,0.0,90.0,4.0,0.0
16554,59.0,0.0,90.0,13.0,0.0
16555,80.0,0.0,60.0,5.0,0.0
16556,77.0,0.0,60.0,6.0,0.0
16557,77.0,135.0,60.0,12.0,0.0
16558,80.0,0.0,60.0,11.0,0.0
16559,77.0,85.0,240.0,11.0,0.0
16560,80.0,0.0,120.0,4.0,0.0
16561,68.0,0.0,240.0,6.0,0.0
16562,80.0,0.0,120.0,10.0,0.0
16563,59.0,0.0,120.0,14.0,0.0
16564,68.0,0.0,240.0,12.0,0.0
16565,59.0,100.0,120.0,7.0,0.0
16566,77.0,0.0,240.0,5.0,0.0
16567,59.0,0.0,120.0,13.0,0.0
16568,61.0,0.0,90.0,13.0,0.0
16569,61.0,0.0,90.0,7.0,0.0
16570,82.0,0.0,90.0,4.0,0.0
16571,82.0,0.0,90.0,10.0,0.0
16572,61.0,35.0,90.0,14.0,0.0
16573,58.0,5.0,90.0,7.0,0.0
16574,58.0,0.0,90.0,13.0,0.0
16575,78.0,0.0,90.0,4.0,0.0
16576,58.0,0.0,90.0,14.0,0.0
16577,78.0,0.0,90.0,10.0,0.0
16578,70.0,0.0,60.0,12.0,0.0
16579,73.0,135.0,60.0,11.0,0.0
16580,70.0,0.0,60.0,6.0,0.0
16581,73.0,0.0,60.0,5.0,0.0
16582,78.0,85.0,240.0,4.0,0.0
16583,78.0,0.0,240.0,10.0,0.0
16584,58.0,0.0,120.0,14.0,0.0
16585,70.0,0.0,240.0,6.0,0.0
16586,58.0,0.0,120.0,7.0,0.0
16587,73.0,0.0,120.0,11.0,0.0
16588,70.0,0.0,240.0,12.0,0.0
16589,58.0,0.0,120.0,13.0,0.0
16590,73.0,120.0,120.0,5.0,0.0
16591,60.0,0.0,120.0,7.0,0.0
16592,75.0,0.0,120.0,11.0,0.0
16593,60.0,0.0,120.0,14.0,0.0
16594,60.0,15.0,120.0,13.0,0.0
16595,75.0,0.0,120.0,5.0,0.0
16596,61.0,0.0,120.0,7.0,0.0
16597,61.0,0.0,120.0,13.0,0.0
16598,61.0,120.0,120.0,14.0,0.0
16599,73.0,0.0,90.0,5.0,0.0
16600,73.0,5.0,90.0,11.0,0.0
16601,70.0,0.0,60.0,12.0,0.0
16602,78.0,0.0,60.0,4.0,0.0
16603,70.0,0.0,60.0,6.0,0.0
16604,78.0,15.0,60.0,10.0,0.0
16605,72.0,100.0,120.0,5.0,0.0
16606,72.0,0.0,120.0,11.0,0.0
16607,66.0,0.0,120.0,6.0,0.0
16608,78.0,0.0,240.0,10.0,0.0
16609,63.0,0.0,120.0,14.0,0.0
16610,63.0,0.0,120.0,13.0,0.0
16611,78.0,85.0,240.0,4.0,0.0
16612,63.0,0.0,120.0,7.0,0.0
16613,66.0,0.0,120.0,12.0,0.0
16614,68.0,15.0,120.0,6.0,0.0
16615,65.0,0.0,90.0,13.0,0.0
16616,68.0,0.0,120.0,12.0,0.0
16617,73.0,20.0,90.0,11.0,0.0
16618,65.0,0.0,90.0,14.0,0.0
16619,65.0,0.0,90.0,7.0,0.0
16620,73.0,0.0,90.0,5.0,0.0
16621,70.0,0.0,90.0,12.0,0.0
16622,70.0,0.0,90.0,11.0,0.0
16623,70.0,0.0,90.0,5.0,0.0
16624,70.0,5.0,90.0,6.0,0.0
16625,61.0,0.0,90.0,14.0,0.0
16626,61.0,0.0,90.0,7.0,0.0
16627,61.0,0.0,90.0,13.0,0.0
16628,78.0,0.0,60.0,4.0,0.0
16629,78.0,135.0,60.0,10.0,0.0
16630,75.0,0.0,240.0,6.0,0.0
16631,78.0,0.0,240.0,4.0,0.0
16632,61.0,0.0,120.0,7.0,0.0
16633,61.0,0.0,120.0,14.0,0.0
16634,70.0,0.0,120.0,5.0,0.0
16635,70.0,0.0,120.0,11.0,0.0
16636,61.0,100.0,120.0,13.0,0.0
16637,78.0,85.0,240.0,10.0,0.0
16638,63.0,0.0,240.0,12.0,0.0
16639,72.0,0.0,90.0,11.0,0.0
16640,63.0,35.0,90.0,13.0,0.0
16641,72.0,0.0,90.0,5.0,0.0
16642,63.0,0.0,90.0,7.0,0.0
16643,63.0,0.0,90.0,14.0,0.0
16644,68.0,0.0,90.0,11.0,0.0
16645,60.0,0.0,90.0,13.0,0.0
16646,60.0,0.0,90.0,14.0,0.0
16647,68.0,0.0,90.0,5.0,0.0
16648,60.0,5.0,90.0,7.0,0.0
16649,78.0,0.0,60.0,10.0,0.0
16650,75.0,135.0,60.0,6.0,0.0
16651,75.0,0.0,60.0,12.0,0.0
16652,78.0,0.0,60.0,4.0,0.0
16653,75.0,0.0,360.0,12.0,0.0
16654,60.0,0.0,240.0,7.0,0.0
16655,68.0,0.0,360.0,11.0,0.0
16656,60.0,90.0,240.0,14.0,0.0
16657,68.0,0.0,360.0,5.0,0.0
16658,60.0,0.0,240.0,13.0,0.0
16659,75.0,0.0,360.0,6.0,0.0
16660,78.0,0.0,120.0,4.0,0.0
16661,78.0,120.0,120.0,10.0,0.0
16662,75.0,0.0,120.0,4.0,0.0
16663,75.0,15.0,120.0,10.0,0.0
16664,77.0,0.0,120.0,4.0,0.0
16665,77.0,120.0,120.0,10.0,0.0
16666,60.0,0.0,60.0,14.0,0.0
16667,60.0,0.0,60.0,13.0,0.0
16668,60.0,15.0,60.0,7.0,0.0
16669,78.0,0.0,120.0,4.0,0.0
16670,60.0,0.0,240.0,14.0,0.0
16671,60.0,85.0,240.0,13.0,0.0
16672,60.0,0.0,240.0,7.0,0.0
16673,78.0,100.0,120.0,10.0,0.0
16674,87.0,35.0,90.0,4.0,0.0
16675,87.0,0.0,90.0,10.0,0.0
16676,77.0,0.0,90.0,10.0,0.0
16677,77.0,5.0,90.0,4.0,0.0
16678,68.0,0.0,60.0,6.0,0.0
16679,80.0,135.0,60.0,5.0,0.0
16680,80.0,0.0,60.0,11.0,0.0
16681,60.0,0.0,60.0,7.0,0.0
16682,68.0,0.0,60.0,12.0,0.0
16683,60.0,0.0,60.0,14.0,0.0
16684,60.0,0.0,60.0,13.0,0.0
16685,75.0,85.0,240.0,11.0,0.0
16686,78.0,120.0,120.0,10.0,0.0
16687,75.0,0.0,240.0,5.0,0.0
16688,78.0,0.0,120.0,4.0,0.0
16689,60.0,0.0,240.0,14.0,0.0
16690,60.0,0.0,240.0,13.0,0.0
16691,68.0,0.0,240.0,6.0,0.0
16692,60.0,0.0,240.0,7.0,0.0
16693,68.0,0.0,240.0,12.0,0.0
16694,77.0,15.0,120.0,10.0,0.0
16695,77.0,0.0,120.0,4.0,0.0
16696,75.0,5.0,90.0,10.0,0.0
16697,75.0,0.0,90.0,4.0,0.0
16698,68.0,0.0,60.0,12.0,0.0
16699,75.0,0.0,60.0,11.0,0.0
16700,60.0,0.0,60.0,14.0,0.0
16701,68.0,0.0,60.0,6.0,0.0
16702,60.0,135.0,60.0,13.0,0.0
16703,60.0,0.0,60.0,7.0,0.0
16704,75.0,0.0,60.0,5.0,0.0
16705,77.0,0.0,120.0,10.0,0.0
16706,61.0,90.0,240.0,13.0,0.0
16707,61.0,0.0,240.0,14.0,0.0
16708,68.0,0.0,360.0,12.0,0.0
16709,77.0,120.0,120.0,4.0,0.0
16710,73.0,0.0,360.0,5.0,0.0
16711,68.0,0.0,360.0,6.0,0.0
16712,73.0,0.0,360.0,11.0,0.0
16713,61.0,0.0,240.0,7.0,0.0
16714,73.0,0.0,120.0,4.0,0.0
16715,73.0,15.0,120.0,10.0,0.0
16716,75.0,0.0,120.0,4.0,0.0
16717,75.0,120.0,120.0,10.0,0.0
16718,59.0,15.0,60.0,7.0,0.0
16719,59.0,0.0,60.0,14.0,0.0
16720,59.0,0.0,60.0,13.0,0.0
16721,76.0,0.0,120.0,4.0,0.0
16722,58.0,0.0,240.0,13.0,0.0
16723,58.0,0.0,240.0,14.0,0.0
16724,76.0,100.0,120.0,10.0,0.0
16725,58.0,85.0,240.0,7.0,0.0
16726,85.0,35.0,90.0,10.0,0.0
16727,85.0,0.0,90.0,4.0,0.0
16728,75.0,0.0,90.0,4.0,0.0
16729,75.0,5.0,90.0,10.0,0.0
16730,78.0,0.0,60.0,11.0,0.0
16731,58.0,0.0,60.0,13.0,0.0
16732,66.0,0.0,60.0,6.0,0.0
16733,58.0,135.0,60.0,7.0,0.0
16734,78.0,0.0,60.0,5.0,0.0
16735,58.0,0.0,60.0,14.0,0.0
16736,66.0,0.0,60.0,12.0,0.0
16737,73.0,0.0,240.0,11.0,0.0
16738,73.0,0.0,240.0,5.0,0.0
16739,66.0,85.0,240.0,12.0,0.0
16740,58.0,0.0,240.0,7.0,0.0
16741,58.0,0.0,240.0,13.0,0.0
16742,58.0,0.0,240.0,14.0,0.0
16743,76.0,0.0,120.0,10.0,0.0
16744,76.0,120.0,120.0,4.0,0.0
16745,66.0,0.0,240.0,6.0,0.0
16746,75.0,0.0,120.0,4.0,0.0
16747,75.0,15.0,120.0,10.0,0.0
16748,73.0,5.0,90.0,4.0,0.0
16749,73.0,0.0,90.0,10.0,0.0
16750,58.0,0.0,60.0,14.0,0.0
16751,66.0,0.0,60.0,6.0,0.0
16752,58.0,0.0,60.0,13.0,0.0
16753,58.0,0.0,60.0,7.0,0.0
16754,73.0,0.0,60.0,5.0,0.0
16755,73.0,0.0,60.0,11.0,0.0
16756,66.0,135.0,60.0,12.0,0.0
16757,75.0,85.0,240.0,10.0,0.0
16758,59.0,0.0,120.0,13.0,0.0
16759,66.0,0.0,120.0,6.0,0.0
16760,71.0,120.0,120.0,11.0,0.0
16761,59.0,0.0,120.0,7.0,0.0
16762,66.0,0.0,120.0,12.0,0.0
16763,71.0,0.0,120.0,5.0,0.0
16764,75.0,0.0,240.0,4.0,0.0
16765,59.0,0.0,120.0,14.0,0.0
16766,56.0,0.0,120.0,14.0,0.0
16767,56.0,0.0,120.0,7.0,0.0
16768,56.0,15.0,120.0,13.0,0.0
16769,58.0,5.0,90.0,13.0,0.0
16770,58.0,0.0,90.0,14.0,0.0
16771,58.0,0.0,90.0,7.0,0.0
16772,87.0,135.0,60.0,10.0,0.0
16773,87.0,0.0,60.0,4.0,0.0
16774,68.0,0.0,120.0,12.0,0.0
16775,87.0,0.0,120.0,10.0,0.0
16776,59.0,0.0,120.0,13.0,0.0
16777,59.0,0.0,120.0,7.0,0.0
16778,68.0,0.0,120.0,6.0,0.0
16779,77.0,100.0,120.0,11.0,0.0
16780,77.0,0.0,120.0,5.0,0.0
16781,59.0,0.0,120.0,14.0,0.0
16782,87.0,0.0,120.0,4.0,0.0
16783,88.0,0.0,90.0,10.0,0.0
16784,88.0,0.0,90.0,4.0,0.0
16785,61.0,120.0,90.0,13.0,0.0
16786,61.0,0.0,90.0,14.0,0.0
16787,61.0,0.0,90.0,7.0,0.0
16788,58.0,0.0,90.0,7.0,0.0
16789,85.0,0.0,90.0,4.0,0.0
16790,58.0,0.0,90.0,14.0,0.0
16791,85.0,0.0,90.0,10.0,0.0
16792,58.0,140.0,90.0,13.0,0.0
16793,85.0,0.0,120.0,4.0,0.0
16794,70.0,0.0,120.0,12.0,0.0
16795,79.0,0.0,120.0,11.0,0.0
16796,58.0,0.0,120.0,13.0,0.0
16797,58.0,0.0,120.0,14.0,0.0
16798,85.0,0.0,120.0,10.0,0.0
16799,70.0,0.0,120.0,6.0,0.0
16800,58.0,0.0,120.0,7.0,0.0
16801,79.0,100.0,120.0,5.0,0.0
16802,59.0,0.0,90.0,14.0,0.0
16803,59.0,0.0,90.0,7.0,0.0
16804,87.0,0.0,90.0,10.0,0.0
16805,87.0,0.0,90.0,4.0,0.0
16806,59.0,120.0,90.0,13.0,0.0
16807,56.0,0.0,90.0,7.0,0.0
16808,56.0,0.0,90.0,14.0,0.0
16809,83.0,120.0,90.0,4.0,0.0
16810,56.0,0.0,90.0,13.0,0.0
16811,83.0,0.0,90.0,10.0,0.0
16812,56.0,120.0,120.0,14.0,0.0
16813,56.0,0.0,240.0,7.0,0.0
16814,56.0,0.0,120.0,13.0,0.0
16815,63.0,0.0,120.0,12.0,0.0
16816,75.0,0.0,120.0,6.0,0.0
16817,80.0,90.0,240.0,11.0,0.0
16818,83.0,20.0,90.0,10.0,0.0
16819,80.0,0.0,240.0,5.0,0.0
16820,83.0,0.0,90.0,4.0,0.0
16821,80.0,15.0,120.0,10.0,0.0
16822,80.0,0.0,120.0,4.0,0.0
16823,82.0,0.0,120.0,4.0,0.0
16824,82.0,120.0,120.0,10.0,0.0
16825,80.0,15.0,60.0,5.0,0.0
16826,68.0,0.0,60.0,7.0,0.0
16827,80.0,0.0,60.0,11.0,0.0
16828,44.0,0.0,120.0,14.0,0.0
16829,84.0,0.0,120.0,4.0,0.0
16830,68.0,85.0,240.0,7.0,0.0
16831,44.0,0.0,120.0,13.0,0.0
16832,80.0,100.0,120.0,5.0,0.0
16833,75.0,0.0,120.0,12.0,0.0
16834,84.0,0.0,120.0,10.0,0.0
16835,75.0,0.0,120.0,6.0,0.0
16836,80.0,0.0,120.0,11.0,0.0
16837,85.0,0.0,90.0,4.0,0.0
16838,82.0,0.0,90.0,5.0,0.0
16839,82.0,0.0,90.0,11.0,0.0
16840,85.0,35.0,90.0,10.0,0.0
16841,78.0,0.0,90.0,11.0,0.0
16842,87.0,0.0,90.0,10.0,0.0
16843,78.0,5.0,90.0,5.0,0.0
16844,87.0,0.0,90.0,4.0,0.0
16845,68.0,135.0,60.0,7.0,0.0
16846,80.0,85.0,240.0,10.0,0.0
16847,72.0,0.0,120.0,6.0,0.0
16848,78.0,0.0,120.0,5.0,0.0
16849,56.0,0.0,120.0,14.0,0.0
16850,80.0,0.0,240.0,4.0,0.0
16851,56.0,0.0,120.0,13.0,0.0
16852,78.0,0.0,120.0,11.0,0.0
16853,68.0,0.0,120.0,7.0,0.0
16854,72.0,100.0,120.0,12.0,0.0
16855,80.0,35.0,90.0,5.0,0.0
16856,80.0,0.0,90.0,11.0,0.0
16857,77.0,5.0,90.0,5.0,0.0
16858,77.0,0.0,90.0,11.0,0.0
16859,84.0,0.0,60.0,4.0,0.0
16860,84.0,135.0,60.0,10.0,0.0
16861,77.0,0.0,120.0,11.0,0.0
16862,73.0,0.0,120.0,10.0,0.0
16863,73.0,0.0,120.0,4.0,0.0
16864,68.0,0.0,120.0,6.0,0.0
16865,68.0,120.0,120.0,12.0,0.0
16866,77.0,0.0,120.0,5.0,0.0
16867,61.0,0.0,120.0,13.0,0.0
16868,61.0,0.0,120.0,14.0,0.0
16869,73.0,0.0,120.0,11.0,0.0
16870,73.0,0.0,120.0,5.0,0.0
16871,77.0,0.0,120.0,10.0,0.0
16872,77.0,100.0,120.0,4.0,0.0
16873,80.0,0.0,90.0,10.0,0.0
16874,80.0,5.0,90.0,4.0,0.0
16875,75.0,0.0,120.0,5.0,0.0
16876,75.0,120.0,120.0,11.0,0.0
16877,61.0,15.0,60.0,7.0,0.0
16878,80.0,0.0,120.0,6.0,0.0
16879,80.0,0.0,120.0,1.0,0.0
16880,85.0,0.0,120.0,10.0,0.0
16881,73.0,0.0,120.0,2.0,0.0
16882,77.0,0.0,120.0,5.0,0.0
16883,61.0,85.0,240.0,7.0,0.0
16884,85.0,0.0,120.0,0.0,0.0
16885,49.0,100.0,120.0,3.0,0.0
16886,77.0,0.0,120.0,11.0,0.0
16887,49.0,0.0,120.0,13.0,0.0
16888,49.0,0.0,120.0,14.0,0.0
16889,68.0,0.0,120.0,12.0,0.0
16890,85.0,0.0,120.0,4.0,0.0
16891,78.0,0.0,90.0,11.0,0.0
16892,87.0,35.0,90.0,4.0,0.0
16893,78.0,0.0,90.0,5.0,0.0
16894,87.0,0.0,90.0,10.0,0.0
16895,80.0,0.0,90.0,5.0,0.0
16896,80.0,0.0,90.0,11.0,0.0
16897,83.0,5.0,90.0,4.0,0.0
16898,83.0,0.0,90.0,10.0,0.0
16899,61.0,135.0,60.0,7.0,0.0
16900,83.0,100.0,120.0,10.0,0.0
16901,77.0,0.0,120.0,6.0,0.0
16902,73.0,0.0,120.0,2.0,0.0
16903,61.0,0.0,120.0,13.0,0.0
16904,83.0,0.0,120.0,4.0,0.0
16905,49.0,0.0,120.0,3.0,0.0
16906,73.0,85.0,240.0,5.0,0.0
16907,83.0,0.0,120.0,0.0,0.0
16908,68.0,0.0,120.0,12.0,0.0
16909,80.0,0.0,120.0,1.0,0.0
16910,61.0,0.0,120.0,7.0,0.0
16911,73.0,0.0,240.0,11.0,0.0
16912,61.0,0.0,120.0,14.0,0.0
16913,85.0,0.0,90.0,10.0,0.0
16914,85.0,35.0,90.0,4.0,0.0
16915,82.0,0.0,90.0,10.0,0.0
16916,82.0,5.0,90.0,4.0,0.0
16917,77.0,135.0,60.0,11.0,0.0
16918,77.0,0.0,60.0,5.0,0.0
16919,73.0,0.0,120.0,2.0,0.0
16920,66.0,120.0,120.0,13.0,0.0
16921,82.0,0.0,120.0,10.0,0.0
16922,54.0,0.0,120.0,3.0,0.0
16923,78.0,0.0,120.0,1.0,0.0
16924,82.0,0.0,120.0,0.0,0.0
16925,73.0,0.0,120.0,6.0,0.0
16926,82.0,0.0,120.0,4.0,0.0
16927,66.0,0.0,120.0,12.0,0.0
16928,66.0,0.0,120.0,11.0,0.0
16929,66.0,0.0,120.0,5.0,0.0
16930,66.0,0.0,120.0,14.0,0.0
16931,70.0,0.0,120.0,11.0,0.0
16932,70.0,0.0,120.0,5.0,0.0
16933,78.0,0.0,120.0,10.0,0.0
16934,78.0,100.0,120.0,4.0,0.0
16935,80.0,0.0,120.0,4.0,0.0
16936,73.0,5.0,90.0,11.0,0.0
16937,73.0,0.0,90.0,5.0,0.0
16938,80.0,120.0,120.0,10.0,0.0
16939,66.0,15.0,60.0,7.0,0.0
16940,73.0,0.0,120.0,6.0,0.0
16941,73.0,0.0,120.0,12.0,0.0
16942,82.0,0.0,120.0,4.0,0.0
16943,66.0,85.0,240.0,7.0,0.0
16944,42.0,100.0,120.0,14.0,0.0
16945,78.0,0.0,120.0,11.0,0.0
16946,78.0,0.0,120.0,5.0,0.0
16947,82.0,0.0,120.0,10.0,0.0
16948,82.0,0.0,120.0,0.0,0.0
16949,42.0,0.0,120.0,13.0,0.0
16950,78.0,0.0,120.0,1.0,0.0
16951,83.0,35.0,90.0,4.0,0.0
16952,80.0,0.0,90.0,11.0,0.0
16953,83.0,0.0,90.0,10.0,0.0
16954,80.0,0.0,90.0,5.0,0.0
16955,85.0,5.0,90.0,4.0,0.0
16956,76.0,0.0,90.0,5.0,0.0
16957,85.0,0.0,90.0,10.0,0.0
16958,76.0,0.0,90.0,11.0,0.0
16959,66.0,135.0,60.0,7.0,0.0
16960,54.0,0.0,120.0,14.0,0.0
16961,76.0,100.0,120.0,11.0,0.0
16962,85.0,0.0,120.0,0.0,0.0
16963,78.0,0.0,240.0,10.0,0.0
16964,76.0,0.0,120.0,5.0,0.0
16965,54.0,0.0,120.0,13.0,0.0
16966,70.0,0.0,120.0,12.0,0.0
16967,70.0,0.0,120.0,6.0,0.0
16968,82.0,0.0,120.0,1.0,0.0
16969,66.0,0.0,120.0,7.0,0.0
16970,78.0,85.0,240.0,4.0,0.0
16971,78.0,35.0,90.0,11.0,0.0
16972,78.0,0.0,90.0,5.0,0.0
16973,75.0,0.0,90.0,5.0,0.0
16974,75.0,5.0,90.0,11.0,0.0
16975,82.0,135.0,60.0,10.0,0.0
16976,82.0,0.0,60.0,4.0,0.0
16977,75.0,0.0,120.0,11.0,0.0
16978,59.0,0.0,120.0,13.0,0.0
16979,75.0,0.0,120.0,5.0,0.0
16980,71.0,0.0,120.0,10.0,0.0
16981,66.0,0.0,120.0,12.0,0.0
16982,71.0,0.0,120.0,4.0,0.0
16983,66.0,0.0,120.0,6.0,0.0
16984,87.0,120.0,120.0,0.0,0.0
16985,59.0,0.0,120.0,14.0,0.0
16986,83.0,0.0,120.0,1.0,0.0
16987,71.0,0.0,120.0,11.0,0.0
16988,75.0,0.0,120.0,4.0,0.0
16989,75.0,100.0,120.0,10.0,0.0
16990,71.0,0.0,120.0,5.0,0.0
16991,75.0,0.0,90.0,5.0,0.0
16992,78.0,0.0,90.0,4.0,0.0
16993,75.0,5.0,90.0,11.0,0.0
16994,78.0,0.0,90.0,10.0,0.0
16995,59.0,135.0,60.0,7.0,0.0
16996,80.0,100.0,120.0,1.0,0.0
16997,80.0,0.0,120.0,5.0,0.0
16998,80.0,0.0,120.0,11.0,0.0
16999,83.0,0.0,120.0,0.0,0.0
17000,83.0,0.0,120.0,10.0,0.0
17001,56.0,85.0,240.0,7.0,0.0
17002,83.0,0.0,120.0,4.0,0.0
17003,85.0,0.0,90.0,4.0,0.0
17004,85.0,35.0,90.0,10.0,0.0
17005,82.0,0.0,90.0,5.0,0.0
17006,82.0,0.0,90.0,11.0,0.0
17007,82.0,0.0,90.0,10.0,0.0
17008,82.0,5.0,90.0,4.0,0.0
17009,78.0,0.0,90.0,11.0,0.0
17010,78.0,0.0,90.0,5.0,0.0
17011,56.0,0.0,60.0,14.0,0.0
17012,71.0,0.0,60.0,12.0,0.0
17013,71.0,135.0,60.0,6.0,0.0
17014,56.0,0.0,60.0,13.0,0.0
17015,56.0,0.0,60.0,7.0,0.0
17016,82.0,0.0,120.0,10.0,0.0
17017,78.0,0.0,120.0,1.0,0.0
17018,78.0,0.0,120.0,11.0,0.0
17019,58.0,0.0,240.0,14.0,0.0
17020,78.0,0.0,120.0,5.0,0.0
17021,73.0,0.0,240.0,6.0,0.0
17022,58.0,0.0,240.0,7.0,0.0
17023,82.0,0.0,120.0,0.0,0.0
17024,73.0,0.0,240.0,12.0,0.0
17025,58.0,85.0,240.0,13.0,0.0
17026,82.0,100.0,120.0,4.0,0.0
17027,80.0,0.0,90.0,5.0,0.0
17028,83.0,0.0,90.0,10.0,0.0
17029,80.0,0.0,90.0,11.0,0.0
17030,83.0,35.0,90.0,4.0,0.0
17031,80.0,0.0,90.0,4.0,0.0
17032,80.0,5.0,90.0,10.0,0.0
17033,77.0,0.0,90.0,11.0,0.0
17034,77.0,0.0,90.0,5.0,0.0
17035,68.0,135.0,60.0,6.0,0.0
17036,59.0,0.0,60.0,13.0,0.0
17037,68.0,0.0,60.0,12.0,0.0
17038,59.0,0.0,60.0,7.0,0.0
17039,59.0,0.0,60.0,14.0,0.0
17040,61.0,120.0,120.0,13.0,0.0
17041,80.0,0.0,120.0,10.0,0.0
17042,80.0,0.0,120.0,4.0,0.0
17043,77.0,0.0,120.0,11.0,0.0
17044,73.0,0.0,120.0,1.0,0.0
17045,61.0,0.0,120.0,14.0,0.0
17046,61.0,85.0,240.0,7.0,0.0
17047,80.0,0.0,120.0,0.0,0.0
17048,77.0,0.0,120.0,5.0,0.0
17049,73.0,0.0,120.0,6.0,0.0
17050,73.0,0.0,120.0,12.0,0.0
17051,78.0,0.0,120.0,11.0,0.0
17052,82.0,0.0,120.0,10.0,0.0
17053,78.0,15.0,120.0,5.0,0.0
17054,82.0,0.0,120.0,4.0,0.0
17055,80.0,5.0,90.0,11.0,0.0
17056,83.0,120.0,120.0,10.0,0.0
17057,83.0,0.0,120.0,4.0,0.0
17058,80.0,0.0,90.0,5.0,0.0
17059,59.0,15.0,60.0,7.0,0.0
17060,85.0,0.0,120.0,0.0,0.0
17061,85.0,0.0,120.0,4.0,0.0
17062,82.0,0.0,120.0,5.0,0.0
17063,85.0,0.0,120.0,10.0,0.0
17064,82.0,0.0,120.0,11.0,0.0
17065,58.0,85.0,240.0,7.0,0.0
17066,82.0,100.0,120.0,1.0,0.0
17067,83.0,0.0,90.0,11.0,0.0
17068,87.0,35.0,90.0,4.0,0.0
17069,83.0,0.0,90.0,5.0,0.0
17070,87.0,0.0,90.0,10.0,0.0
17071,80.0,0.0,90.0,11.0,0.0
17072,80.0,5.0,90.0,5.0,0.0
17073,83.0,0.0,90.0,4.0,0.0
17074,83.0,0.0,90.0,10.0,0.0
17075,73.0,0.0,60.0,12.0,0.0
17076,58.0,135.0,60.0,14.0,0.0
17077,58.0,0.0,60.0,13.0,0.0
17078,58.0,0.0,60.0,7.0,0.0
17079,73.0,0.0,60.0,6.0,0.0
17080,80.0,0.0,120.0,1.0,0.0
17081,80.0,0.0,120.0,11.0,0.0
17082,83.0,0.0,120.0,4.0,0.0
17083,75.0,85.0,240.0,12.0,0.0
17084,59.0,0.0,240.0,7.0,0.0
17085,75.0,0.0,240.0,6.0,0.0
17086,83.0,0.0,120.0,10.0,0.0
17087,59.0,0.0,240.0,14.0,0.0
17088,80.0,100.0,120.0,5.0,0.0
17089,83.0,0.0,120.0,0.0,0.0
17090,59.0,0.0,240.0,13.0,0.0
17091,82.0,0.0,90.0,11.0,0.0
17092,82.0,35.0,90.0,5.0,0.0
17093,85.0,0.0,90.0,4.0,0.0
17094,85.0,0.0,90.0,10.0,0.0
17095,78.0,0.0,90.0,5.0,0.0
17096,82.0,0.0,90.0,4.0,0.0
17097,82.0,5.0,90.0,10.0,0.0
17098,78.0,0.0,90.0,11.0,0.0
17099,61.0,0.0,60.0,13.0,0.0
17100,70.0,0.0,60.0,6.0,0.0
17101,61.0,135.0,60.0,7.0,0.0
17102,61.0,0.0,60.0,14.0,0.0
17103,70.0,0.0,60.0,12.0,0.0
17104,78.0,0.0,120.0,5.0,0.0
17105,82.0,0.0,120.0,4.0,0.0
17106,63.0,0.0,120.0,7.0,0.0
17107,63.0,0.0,120.0,14.0,0.0
17108,78.0,0.0,120.0,11.0,0.0
17109,82.0,0.0,120.0,10.0,0.0
17110,78.0,0.0,120.0,1.0,0.0
17111,75.0,0.0,120.0,6.0,0.0
17112,82.0,120.0,120.0,0.0,0.0
17113,63.0,0.0,120.0,13.0,0.0
17114,75.0,0.0,120.0,12.0,0.0
17115,83.0,120.0,120.0,10.0,0.0
17116,83.0,0.0,120.0,4.0,0.0
17117,85.0,0.0,120.0,10.0,0.0
17118,85.0,120.0,120.0,4.0,0.0
17119,59.0,0.0,120.0,14.0,0.0
17120,59.0,0.0,120.0,7.0,0.0
17121,87.0,100.0,120.0,10.0,0.0
17122,80.0,0.0,120.0,1.0,0.0
17123,59.0,0.0,120.0,13.0,0.0
17124,87.0,0.0,120.0,4.0,0.0
17125,87.0,0.0,120.0,0.0,0.0
17126,88.0,120.0,90.0,4.0,0.0
17127,88.0,0.0,90.0,10.0,0.0
17128,85.0,0.0,90.0,10.0,0.0
17129,85.0,5.0,90.0,4.0,0.0
17130,68.0,0.0,60.0,6.0,0.0
17131,68.0,135.0,60.0,12.0,0.0
17132,77.0,0.0,60.0,5.0,0.0
17133,77.0,0.0,60.0,11.0,0.0
17134,73.0,0.0,240.0,6.0,0.0
17135,58.0,0.0,120.0,13.0,0.0
17136,82.0,0.0,120.0,1.0,0.0
17137,85.0,100.0,120.0,0.0,0.0
17138,70.0,0.0,240.0,12.0,0.0
17139,58.0,0.0,120.0,7.0,0.0
17140,85.0,0.0,120.0,4.0,0.0
17141,58.0,0.0,120.0,14.0,0.0
17142,85.0,0.0,120.0,10.0,0.0
17143,77.0,85.0,240.0,11.0,0.0
17144,77.0,0.0,240.0,5.0,0.0
17145,87.0,0.0,90.0,4.0,0.0
17146,87.0,35.0,90.0,10.0,0.0
17147,83.0,5.0,90.0,4.0,0.0
17148,83.0,0.0,90.0,10.0,0.0
17149,79.0,0.0,60.0,5.0,0.0
17150,79.0,0.0,60.0,11.0,0.0
17151,70.0,0.0,60.0,12.0,0.0
17152,75.0,135.0,60.0,6.0,0.0
17153,56.0,120.0,120.0,13.0,0.0
17154,80.0,0.0,240.0,5.0,0.0
17155,83.0,0.0,240.0,4.0,0.0
17156,63.0,0.0,240.0,12.0,0.0
17157,83.0,0.0,240.0,0.0,0.0
17158,83.0,0.0,240.0,10.0,0.0
17159,80.0,85.0,240.0,11.0,0.0
17160,75.0,0.0,240.0,6.0,0.0
17161,56.0,0.0,120.0,7.0,0.0
17162,87.0,0.0,240.0,1.0,0.0
17163,56.0,0.0,120.0,14.0,0.0
17164,59.0,15.0,120.0,7.0,0.0
17165,59.0,0.0,120.0,13.0,0.0
17166,59.0,0.0,120.0,14.0,0.0
17167,63.0,0.0,90.0,14.0,0.0
17168,63.0,0.0,90.0,13.0,0.0
17169,63.0,5.0,90.0,7.0,0.0
17170,75.0,135.0,60.0,12.0,0.0
17171,80.0,0.0,60.0,5.0,0.0
17172,83.0,0.0,60.0,10.0,0.0
17173,83.0,0.0,60.0,1.0,0.0
17174,75.0,0.0,60.0,6.0,0.0
17175,80.0,0.0,60.0,0.0,0.0
17176,80.0,0.0,60.0,11.0,0.0
17177,83.0,0.0,60.0,4.0,0.0
17178,80.0,0.0,240.0,11.0,0.0
17179,83.0,0.0,840.0,0.0,0.0
17180,83.0,0.0,240.0,10.0,0.0
17181,80.0,100.0,840.0,1.0,0.0
17182,68.0,100.0,120.0,14.0,0.0
17183,68.0,0.0,120.0,7.0,0.0
17184,68.0,0.0,120.0,13.0,0.0
17185,75.0,85.0,240.0,6.0,0.0
17186,83.0,0.0,240.0,4.0,0.0
17187,75.0,0.0,240.0,12.0,0.0
17188,80.0,0.0,240.0,5.0,0.0
17189,70.0,0.0,90.0,13.0,0.0
17190,70.0,0.0,90.0,14.0,0.0
17191,70.0,35.0,90.0,7.0,0.0
17192,66.0,0.0,90.0,13.0,0.0
17193,66.0,0.0,90.0,14.0,0.0
17194,66.0,5.0,90.0,7.0,0.0
17195,83.0,0.0,60.0,10.0,0.0
17196,80.0,0.0,60.0,5.0,0.0
17197,75.0,0.0,60.0,12.0,0.0
17198,80.0,0.0,60.0,11.0,0.0
17199,75.0,135.0,60.0,6.0,0.0
17200,83.0,0.0,60.0,4.0,0.0
17201,83.0,85.0,240.0,4.0,0.0
17202,66.0,0.0,120.0,7.0,0.0
17203,66.0,0.0,120.0,14.0,0.0
17204,66.0,100.0,120.0,13.0,0.0
17205,75.0,0.0,240.0,6.0,0.0
17206,80.0,0.0,240.0,5.0,0.0
17207,80.0,0.0,240.0,11.0,0.0
17208,75.0,0.0,240.0,12.0,0.0
17209,83.0,0.0,240.0,10.0,0.0
17210,68.0,0.0,90.0,7.0,0.0
17211,68.0,0.0,90.0,14.0,0.0
17212,68.0,35.0,90.0,13.0,0.0
17213,65.0,0.0,90.0,13.0,0.0
17214,65.0,0.0,90.0,14.0,0.0
17215,65.0,5.0,90.0,7.0,0.0
17216,75.0,0.0,60.0,6.0,0.0
17217,80.0,0.0,60.0,11.0,0.0
17218,83.0,0.0,60.0,4.0,0.0
17219,80.0,0.0,60.0,5.0,0.0
17220,83.0,135.0,60.0,10.0,0.0
17221,75.0,0.0,60.0,12.0,0.0
17222,73.0,85.0,240.0,6.0,0.0
17223,65.0,0.0,120.0,13.0,0.0
17224,80.0,0.0,120.0,11.0,0.0
17225,83.0,0.0,120.0,10.0,0.0
17226,83.0,0.0,120.0,4.0,0.0
17227,73.0,0.0,240.0,12.0,0.0
17228,65.0,0.0,120.0,14.0,0.0
17229,65.0,0.0,120.0,7.0,0.0
17230,80.0,0.0,120.0,5.0,0.0
17231,80.0,0.0,90.0,4.0,0.0
17232,77.0,0.0,90.0,5.0,0.0
17233,73.0,0.0,90.0,1.0,0.0
17234,80.0,0.0,90.0,10.0,0.0
17235,77.0,35.0,90.0,11.0,0.0
17236,80.0,0.0,90.0,0.0,0.0
17237,78.0,0.0,90.0,11.0,0.0
17238,82.0,5.0,90.0,10.0,0.0
17239,78.0,0.0,90.0,1.0,0.0
17240,82.0,0.0,90.0,4.0,0.0
17241,82.0,0.0,90.0,0.0,0.0
17242,78.0,0.0,90.0,5.0,0.0
17243,49.0,0.0,60.0,3.0,0.0
17244,73.0,0.0,60.0,2.0,0.0
17245,73.0,0.0,60.0,6.0,0.0
17246,73.0,135.0,60.0,12.0,0.0
17247,80.0,100.0,120.0,5.0,0.0
17248,73.0,0.0,240.0,12.0,0.0
17249,83.0,0.0,120.0,4.0,0.0
17250,49.0,0.0,240.0,3.0,0.0
17251,80.0,0.0,120.0,1.0,0.0
17252,83.0,0.0,120.0,0.0,0.0
17253,73.0,85.0,240.0,2.0,0.0
17254,80.0,0.0,120.0,11.0,0.0
17255,83.0,0.0,120.0,10.0,0.0
17256,73.0,0.0,240.0,6.0,0.0
17257,85.0,0.0,90.0,0.0,0.0
17258,73.0,0.0,90.0,1.0,0.0
17259,85.0,0.0,90.0,4.0,0.0
17260,77.0,0.0,90.0,11.0,0.0
17261,77.0,35.0,90.0,5.0,0.0
17262,92.0,0.0,90.0,10.0,0.0
17263,78.0,0.0,90.0,1.0,0.0
17264,78.0,0.0,90.0,5.0,0.0
17265,82.0,5.0,90.0,4.0,0.0
17266,82.0,0.0,90.0,10.0,0.0
17267,82.0,0.0,90.0,0.0,0.0
17268,78.0,0.0,90.0,11.0,0.0
17269,49.0,0.0,60.0,3.0,0.0
17270,61.0,0.0,60.0,14.0,0.0
17271,73.0,0.0,60.0,12.0,0.0
17272,61.0,0.0,60.0,7.0,0.0
17273,73.0,0.0,60.0,2.0,0.0
17274,73.0,135.0,60.0,6.0,0.0
17275,61.0,0.0,60.0,13.0,0.0
17276,83.0,0.0,120.0,0.0,0.0
17277,49.0,0.0,240.0,3.0,0.0
17278,73.0,85.0,240.0,2.0,0.0
17279,80.0,100.0,120.0,5.0,0.0
17280,80.0,0.0,120.0,1.0,0.0
17281,83.0,0.0,120.0,10.0,0.0
17282,58.0,0.0,240.0,7.0,0.0
17283,80.0,0.0,120.0,11.0,0.0
17284,83.0,0.0,120.0,4.0,0.0
17285,73.0,0.0,240.0,12.0,0.0
17286,73.0,0.0,240.0,6.0,0.0
17287,58.0,0.0,240.0,13.0,0.0
17288,58.0,0.0,240.0,14.0,0.0
17289,78.0,0.0,90.0,1.0,0.0
17290,82.0,0.0,90.0,4.0,0.0
17291,78.0,0.0,90.0,11.0,0.0
17292,82.0,35.0,90.0,10.0,0.0
17293,78.0,0.0,90.0,5.0,0.0
17294,82.0,0.0,90.0,0.0,0.0
17295,80.0,0.0,90.0,0.0,0.0
17296,80.0,5.0,90.0,4.0,0.0
17297,77.0,0.0,90.0,1.0,0.0
17298,80.0,0.0,90.0,10.0,0.0
17299,77.0,0.0,90.0,11.0,0.0
17300,77.0,0.0,90.0,5.0,0.0
17301,73.0,135.0,60.0,6.0,0.0
17302,61.0,0.0,60.0,14.0,0.0
17303,73.0,0.0,60.0,12.0,0.0
17304,49.0,0.0,60.0,3.0,0.0
17305,61.0,0.0,60.0,7.0,0.0
17306,61.0,0.0,60.0,13.0,0.0
17307,73.0,0.0,60.0,2.0,0.0
17308,73.0,0.0,240.0,2.0,0.0
17309,54.0,85.0,240.0,13.0,0.0
17310,54.0,100.0,120.0,3.0,0.0
17311,54.0,0.0,240.0,7.0,0.0
17312,82.0,0.0,120.0,0.0,0.0
17313,78.0,0.0,240.0,5.0,0.0
17314,54.0,0.0,240.0,14.0,0.0
17315,78.0,0.0,240.0,11.0,0.0
17316,78.0,0.0,240.0,1.0,0.0
17317,73.0,0.0,240.0,6.0,0.0
17318,73.0,0.0,240.0,12.0,0.0
17319,82.0,0.0,120.0,10.0,0.0
17320,82.0,0.0,120.0,4.0,0.0
17321,85.0,35.0,90.0,4.0,0.0
17322,85.0,0.0,90.0,0.0,0.0
17323,85.0,0.0,90.0,10.0,0.0
17324,83.0,0.0,90.0,10.0,0.0
17325,83.0,0.0,90.0,4.0,0.0
17326,83.0,5.0,90.0,0.0,0.0
17327,73.0,0.0,60.0,12.0,0.0
17328,56.0,0.0,60.0,13.0,0.0
17329,56.0,0.0,60.0,7.0,0.0
17330,80.0,0.0,60.0,2.0,0.0
17331,73.0,0.0,60.0,1.0,0.0
17332,56.0,0.0,60.0,14.0,0.0
17333,73.0,0.0,60.0,6.0,0.0
17334,77.0,0.0,60.0,5.0,0.0
17335,77.0,270.0,60.0,11.0,0.0
17336,70.0,0.0,240.0,1.0,0.0
17337,85.0,0.0,240.0,0.0,0.0
17338,78.0,90.0,240.0,5.0,0.0
17339,73.0,0.0,240.0,6.0,0.0
17340,58.0,0.0,240.0,7.0,0.0
17341,85.0,0.0,240.0,10.0,0.0
17342,85.0,0.0,240.0,4.0,0.0
17343,78.0,0.0,240.0,11.0,0.0
17344,58.0,0.0,240.0,13.0,0.0
17345,58.0,0.0,240.0,14.0,0.0
17346,73.0,0.0,240.0,12.0,0.0
17347,78.0,0.0,240.0,2.0,0.0
17348,75.0,0.0,60.0,11.0,0.0
17349,59.0,0.0,60.0,7.0,0.0
17350,78.0,0.0,60.0,4.0,0.0
17351,87.0,0.0,60.0,0.0,0.0
17352,54.0,0.0,60.0,3.0,0.0
17353,59.0,0.0,60.0,14.0,0.0
17354,71.0,0.0,60.0,12.0,0.0
17355,78.0,0.0,60.0,2.0,0.0
17356,66.0,0.0,60.0,1.0,0.0
17357,71.0,0.0,60.0,6.0,0.0
17358,59.0,0.0,60.0,13.0,0.0
17359,78.0,0.0,60.0,10.0,0.0
17360,75.0,270.0,60.0,5.0,0.0
17361,78.0,0.0,240.0,2.0,0.0
17362,73.0,90.0,240.0,5.0,0.0
17363,61.0,0.0,240.0,7.0,0.0
17364,68.0,0.0,240.0,12.0,0.0
17365,61.0,0.0,240.0,13.0,0.0
17366,80.0,0.0,240.0,0.0,0.0
17367,73.0,0.0,240.0,11.0,0.0
17368,73.0,0.0,240.0,1.0,0.0
17369,61.0,0.0,240.0,14.0,0.0
17370,73.0,0.0,240.0,10.0,0.0
17371,49.0,0.0,240.0,3.0,0.0
17372,68.0,0.0,240.0,6.0,0.0
17373,73.0,0.0,240.0,4.0,0.0
17374,77.0,0.0,60.0,10.0,0.0
17375,68.0,0.0,60.0,12.0,0.0
17376,77.0,0.0,60.0,4.0,0.0
17377,49.0,0.0,60.0,3.0,0.0
17378,49.0,0.0,60.0,7.0,0.0
17379,80.0,0.0,60.0,1.0,0.0
17380,73.0,0.0,60.0,11.0,0.0
17381,49.0,0.0,60.0,13.0,0.0
17382,49.0,0.0,60.0,14.0,0.0
17383,73.0,0.0,60.0,5.0,0.0
17384,73.0,0.0,60.0,2.0,0.0
17385,85.0,0.0,60.0,0.0,0.0
17386,68.0,135.0,60.0,6.0,0.0
17387,78.0,0.0,120.0,1.0,0.0
17388,54.0,0.0,240.0,7.0,0.0
17389,54.0,90.0,240.0,13.0,0.0
17390,73.0,0.0,120.0,5.0,0.0
17391,73.0,0.0,120.0,11.0,0.0
17392,78.0,0.0,120.0,4.0,0.0
17393,82.0,135.0,120.0,0.0,0.0
17394,73.0,0.0,120.0,2.0,0.0
17395,54.0,0.0,240.0,14.0,0.0
17396,70.0,0.0,120.0,6.0,0.0
17397,54.0,0.0,120.0,3.0,0.0
17398,70.0,0.0,120.0,12.0,0.0
17399,78.0,0.0,120.0,10.0,0.0
17400,58.0,0.0,60.0,13.0,0.0
17401,61.0,135.0,60.0,7.0,0.0
17402,58.0,0.0,60.0,14.0,0.0
17403,61.0,0.0,120.0,7.0,0.0
17404,82.0,100.0,120.0,10.0,0.0
17405,73.0,0.0,120.0,12.0,0.0
17406,73.0,0.0,120.0,6.0,0.0
17407,82.0,0.0,120.0,4.0,0.0
17408,78.0,0.0,120.0,11.0,0.0
17409,58.0,0.0,120.0,13.0,0.0
17410,78.0,0.0,120.0,5.0,0.0
17411,58.0,0.0,120.0,14.0,0.0
17412,59.0,0.0,90.0,13.0,0.0
17413,63.0,120.0,90.0,7.0,0.0
17414,59.0,0.0,90.0,14.0,0.0
17415,56.0,0.0,90.0,13.0,0.0
17416,59.0,0.0,90.0,7.0,0.0
17417,56.0,140.0,90.0,14.0,0.0
17418,85.0,0.0,120.0,4.0,0.0
17419,85.0,0.0,120.0,10.0,0.0
17420,77.0,0.0,120.0,12.0,0.0
17421,59.0,0.0,120.0,7.0,0.0
17422,80.0,0.0,120.0,5.0,0.0
17423,77.0,100.0,120.0,6.0,0.0
17424,56.0,0.0,120.0,13.0,0.0
17425,56.0,0.0,120.0,14.0,0.0
17426,80.0,0.0,120.0,11.0,0.0
17427,58.0,120.0,90.0,13.0,0.0
17428,61.0,0.0,90.0,7.0,0.0
17429,58.0,0.0,90.0,14.0,0.0
17430,54.0,0.0,90.0,13.0,0.0
17431,54.0,140.0,90.0,14.0,0.0
17432,58.0,0.0,90.0,7.0,0.0
17433,90.0,0.0,120.0,4.0,0.0
17434,78.0,0.0,120.0,2.0,0.0
17435,85.0,0.0,120.0,11.0,0.0
17436,54.0,0.0,120.0,13.0,0.0
17437,54.0,0.0,120.0,3.0,0.0
17438,82.0,120.0,120.0,6.0,0.0
17439,85.0,0.0,120.0,5.0,0.0
17440,85.0,0.0,120.0,0.0,0.0
17441,58.0,0.0,120.0,7.0,0.0
17442,73.0,0.0,120.0,12.0,0.0
17443,82.0,0.0,120.0,1.0,0.0
17444,54.0,0.0,120.0,14.0,0.0
17445,90.0,0.0,120.0,10.0,0.0
17446,59.0,0.0,120.0,7.0,0.0
17447,56.0,0.0,120.0,13.0,0.0
17448,56.0,100.0,120.0,14.0,0.0
17449,58.0,0.0,90.0,13.0,0.0
17450,58.0,0.0,90.0,14.0,0.0
17451,61.0,140.0,90.0,7.0,0.0
17452,78.0,0.0,120.0,11.0,0.0
17453,73.0,0.0,120.0,6.0,0.0
17454,82.0,0.0,120.0,4.0,0.0
17455,73.0,0.0,120.0,12.0,0.0
17456,58.0,100.0,120.0,14.0,0.0
17457,78.0,0.0,120.0,5.0,0.0
17458,61.0,0.0,120.0,7.0,0.0
17459,82.0,0.0,120.0,10.0,0.0
17460,58.0,0.0,120.0,13.0,0.0
17461,59.0,0.0,90.0,13.0,0.0
17462,63.0,0.0,90.0,7.0,0.0
17463,59.0,120.0,90.0,14.0,0.0
17464,56.0,0.0,90.0,14.0,0.0
17465,59.0,0.0,90.0,7.0,0.0
17466,56.0,140.0,90.0,13.0,0.0
17467,56.0,0.0,120.0,14.0,0.0
17468,80.0,0.0,120.0,11.0,0.0
17469,56.0,100.0,120.0,13.0,0.0
17470,85.0,0.0,120.0,4.0,0.0
17471,59.0,0.0,120.0,7.0,0.0
17472,77.0,0.0,120.0,12.0,0.0
17473,77.0,0.0,120.0,6.0,0.0
17474,85.0,0.0,120.0,10.0,0.0
17475,80.0,0.0,120.0,5.0,0.0
17476,61.0,120.0,90.0,7.0,0.0
17477,58.0,0.0,90.0,14.0,0.0
17478,58.0,0.0,90.0,13.0,0.0
17479,54.0,0.0,90.0,14.0,0.0
17480,58.0,0.0,90.0,7.0,0.0
17481,54.0,194.0,90.0,13.0,0.0
17482,70.0,60.0,180.0,6.0,0.0
17483,70.0,0.0,240.0,12.0,0.0
17484,90.0,0.0,240.0,0.0,0.0
17485,58.0,0.0,240.0,7.0,0.0
17486,78.0,0.0,300.0,10.0,0.0
17487,85.0,0.0,240.0,1.0,0.0
17488,78.0,60.0,300.0,4.0,0.0
17489,73.0,0.0,180.0,5.0,0.0
17490,54.0,234.0,480.0,13.0,0.0
17491,82.0,0.0,240.0,2.0,0.0
17492,54.0,0.0,480.0,14.0,0.0
17493,73.0,0.0,240.0,11.0,0.0
17494,54.0,54.0,240.0,3.0,0.0
17495,73.0,6.0,60.0,6.0,0.0
17496,82.0,0.0,60.0,5.0,0.0
17497,82.0,60.0,180.0,5.0,0.0
17498,73.0,0.0,180.0,6.0,0.0
17499,77.0,0.0,60.0,10.0,0.0
17500,77.0,60.0,60.0,4.0,0.0
17501,78.0,0.0,60.0,10.0,0.0
17502,78.0,0.0,60.0,4.0,0.0
17503,73.0,0.0,60.0,10.0,0.0
17504,70.0,0.0,60.0,6.0,0.0
17505,78.0,6.0,60.0,5.0,0.0
17506,73.0,0.0,60.0,4.0,0.0
17507,82.0,60.0,540.0,10.0,0.0
17508,54.0,0.0,300.0,7.0,0.0
17509,66.0,0.0,480.0,6.0,0.0
17510,54.0,60.0,300.0,14.0,0.0
17511,54.0,0.0,300.0,13.0,0.0
17512,82.0,0.0,540.0,4.0,0.0
17513,73.0,54.0,480.0,5.0,0.0
17514,78.0,60.0,60.0,11.0,0.0
17515,73.0,0.0,60.0,12.0,0.0
17516,78.0,0.0,180.0,11.0,0.0
17517,73.0,60.0,180.0,12.0,0.0
17518,56.0,60.0,60.0,13.0,0.0
17519,56.0,0.0,60.0,7.0,0.0
17520,56.0,0.0,60.0,14.0,0.0
17521,58.0,0.0,60.0,14.0,0.0
17522,58.0,0.0,60.0,7.0,0.0
17523,58.0,0.0,60.0,13.0,0.0
17524,54.0,0.0,60.0,7.0,0.0
17525,73.0,0.0,60.0,11.0,0.0
17526,54.0,6.0,60.0,13.0,0.0
17527,54.0,0.0,60.0,14.0,0.0
17528,70.0,0.0,60.0,12.0,0.0
17529,73.0,0.0,480.0,11.0,0.0
17530,64.0,0.0,780.0,7.0,0.0
17531,64.0,234.0,480.0,14.0,0.0
17532,66.0,0.0,480.0,12.0,0.0
17533,64.0,0.0,480.0,13.0,0.0
17534,80.0,0.0,60.0,4.0,0.0
17535,80.0,60.0,60.0,10.0,0.0
17536,78.0,60.0,60.0,4.0,0.0
17537,78.0,0.0,60.0,10.0,0.0
17538,78.0,60.0,60.0,6.0,0.0
17539,80.0,0.0,60.0,4.0,0.0
17540,80.0,0.0,60.0,10.0,0.0
17541,85.0,0.0,60.0,5.0,0.0
17542,85.0,60.0,180.0,5.0,0.0
17543,82.0,60.0,60.0,10.0,0.0
17544,82.0,0.0,60.0,4.0,0.0
17545,78.0,0.0,180.0,6.0,0.0
17546,80.0,0.0,60.0,10.0,0.0
17547,80.0,60.0,60.0,4.0,0.0
17548,82.0,0.0,60.0,4.0,0.0
17549,82.0,0.0,60.0,10.0,0.0
17550,73.0,6.0,60.0,6.0,0.0
17551,78.0,0.0,60.0,4.0,0.0
17552,82.0,0.0,60.0,5.0,0.0
17553,78.0,0.0,60.0,10.0,0.0
17554,85.0,0.0,540.0,10.0,0.0
17555,85.0,60.0,540.0,4.0,0.0
17556,64.0,0.0,300.0,13.0,0.0
17557,70.0,54.0,480.0,6.0,0.0
17558,64.0,60.0,300.0,14.0,0.0
17559,78.0,0.0,480.0,5.0,0.0
17560,82.0,60.0,60.0,11.0,0.0
17561,78.0,0.0,60.0,12.0,0.0
17562,78.0,0.0,180.0,12.0,0.0
17563,82.0,0.0,180.0,11.0,0.0
17564,63.0,0.0,60.0,13.0,0.0
17565,63.0,60.0,60.0,14.0,0.0
17566,63.0,0.0,60.0,7.0,0.0
17567,64.0,0.0,60.0,14.0,0.0
17568,64.0,0.0,60.0,13.0,0.0
17569,64.0,60.0,60.0,7.0,0.0
17570,76.0,6.0,60.0,11.0,0.0
17571,61.0,0.0,60.0,13.0,0.0
17572,73.0,0.0,60.0,12.0,0.0
17573,61.0,0.0,60.0,7.0,0.0
17574,61.0,0.0,60.0,14.0,0.0
17575,67.0,0.0,540.0,14.0,0.0
17576,67.0,60.0,540.0,7.0,0.0
17577,67.0,0.0,540.0,13.0,0.0
17578,76.0,54.0,480.0,11.0,0.0
17579,70.0,0.0,480.0,12.0,0.0
17580,83.0,60.0,60.0,10.0,0.0
17581,83.0,0.0,60.0,4.0,0.0
17582,82.0,0.0,60.0,10.0,0.0
17583,82.0,60.0,60.0,4.0,0.0
17584,76.0,0.0,60.0,5.0,0.0
17585,83.0,60.0,60.0,10.0,0.0
17586,70.0,0.0,60.0,6.0,0.0
17587,83.0,0.0,60.0,4.0,0.0
17588,70.0,0.0,180.0,6.0,0.0
17589,85.0,0.0,60.0,10.0,0.0
17590,85.0,60.0,60.0,4.0,0.0
17591,76.0,60.0,180.0,5.0,0.0
17592,83.0,0.0,60.0,10.0,0.0
17593,83.0,60.0,60.0,4.0,0.0
17594,85.0,0.0,60.0,10.0,0.0
17595,85.0,0.0,60.0,4.0,0.0
17596,73.0,0.0,60.0,5.0,0.0
17597,76.0,0.0,60.0,6.0,0.0
17598,82.0,6.0,60.0,10.0,0.0
17599,82.0,0.0,60.0,4.0,0.0
17600,82.0,54.0,240.0,5.0,0.0
17601,75.0,60.0,180.0,4.0,0.0
17602,75.0,0.0,240.0,6.0,0.0
17603,75.0,0.0,180.0,10.0,0.0
17604,65.0,60.0,60.0,13.0,0.0
17605,65.0,0.0,60.0,14.0,0.0
17606,65.0,0.0,60.0,7.0,0.0
17607,63.0,0.0,60.0,7.0,0.0
17608,63.0,0.0,60.0,13.0,0.0
17609,63.0,0.0,60.0,14.0,0.0
17610,65.0,0.0,60.0,14.0,0.0
17611,65.0,0.0,60.0,13.0,0.0
17612,70.0,0.0,60.0,12.0,0.0
17613,65.0,0.0,60.0,7.0,0.0
17614,85.0,0.0,60.0,10.0,0.0
17615,85.0,6.0,60.0,4.0,0.0
17616,82.0,0.0,60.0,11.0,0.0
17617,87.0,56.0,180.0,4.0,0.0
17618,67.0,0.0,60.0,7.0,0.0
17619,87.0,0.0,180.0,10.0,0.0
17620,67.0,0.0,180.0,12.0,0.0
17621,67.0,60.0,60.0,14.0,0.0
17622,82.0,0.0,180.0,11.0,0.0
17623,67.0,0.0,60.0,13.0,0.0
17624,65.0,0.0,60.0,13.0,0.0
17625,65.0,60.0,60.0,14.0,0.0
17626,65.0,0.0,60.0,7.0,0.0
17627,67.0,0.0,60.0,13.0,0.0
17628,67.0,0.0,60.0,14.0,0.0
17629,75.0,0.0,120.0,6.0,0.0
17630,82.0,4.0,120.0,5.0,0.0
17631,67.0,0.0,60.0,7.0,0.0
17632,79.0,0.0,60.0,11.0,0.0
17633,63.0,0.0,60.0,14.0,0.0
17634,82.0,0.0,60.0,4.0,0.0
17635,63.0,0.0,60.0,13.0,0.0
17636,63.0,0.0,60.0,7.0,0.0
17637,82.0,0.0,60.0,10.0,0.0
17638,75.0,116.0,60.0,12.0,0.0
17639,80.0,0.0,120.0,5.0,0.0
17640,83.0,0.0,1080.0,4.0,0.0
17641,68.0,60.0,180.0,14.0,0.0
17642,75.0,0.0,960.0,12.0,0.0
17643,83.0,64.0,1080.0,10.0,0.0
17644,68.0,0.0,180.0,7.0,0.0
17645,80.0,64.0,120.0,11.0,0.0
17646,68.0,0.0,180.0,13.0,0.0
17647,75.0,110.0,960.0,6.0,0.0
17648,68.0,0.0,60.0,5.0,0.0
17649,68.0,0.0,60.0,11.0,0.0
17650,63.0,60.0,60.0,7.0,0.0
17651,70.0,0.0,60.0,11.0,0.0
17652,63.0,0.0,60.0,14.0,0.0
17653,70.0,0.0,60.0,5.0,0.0
17654,63.0,0.0,60.0,13.0,0.0
17655,71.0,60.0,60.0,11.0,0.0
17656,63.0,60.0,180.0,7.0,0.0
17657,63.0,0.0,180.0,13.0,0.0
17658,63.0,0.0,180.0,14.0,0.0
17659,71.0,0.0,60.0,5.0,0.0
17660,73.0,0.0,60.0,5.0,0.0
17661,73.0,60.0,60.0,11.0,0.0
17662,75.0,0.0,60.0,11.0,0.0
17663,75.0,0.0,60.0,5.0,0.0
17664,59.0,0.0,60.0,13.0,0.0
17665,59.0,0.0,60.0,14.0,0.0
17666,77.0,0.0,60.0,5.0,0.0
17667,77.0,0.0,60.0,11.0,0.0
17668,59.0,60.0,60.0,7.0,0.0
17669,59.0,60.0,180.0,13.0,0.0
17670,59.0,0.0,180.0,7.0,0.0
17671,78.0,60.0,60.0,11.0,0.0
17672,59.0,0.0,180.0,14.0,0.0
17673,78.0,0.0,60.0,5.0,0.0
17674,77.0,60.0,60.0,11.0,0.0
17675,77.0,0.0,60.0,5.0,0.0
17676,75.0,0.0,60.0,5.0,0.0
17677,75.0,0.0,60.0,11.0,0.0
17678,77.0,0.0,60.0,5.0,0.0
17679,77.0,60.0,60.0,11.0,0.0
17680,56.0,0.0,60.0,14.0,0.0
17681,56.0,0.0,60.0,7.0,0.0
17682,56.0,0.0,60.0,13.0,0.0
17683,56.0,0.0,180.0,14.0,0.0
17684,78.0,0.0,60.0,11.0,0.0
17685,56.0,60.0,180.0,13.0,0.0
17686,78.0,60.0,60.0,5.0,0.0
17687,56.0,0.0,180.0,7.0,0.0
17688,75.0,60.0,60.0,11.0,0.0
17689,75.0,0.0,60.0,5.0,0.0
17690,80.0,0.0,60.0,5.0,0.0
17691,80.0,0.0,60.0,11.0,0.0
17692,49.0,6.0,60.0,7.0,0.0
17693,49.0,0.0,60.0,13.0,0.0
17694,75.0,0.0,60.0,5.0,0.0
17695,49.0,0.0,60.0,14.0,0.0
17696,75.0,0.0,60.0,11.0,0.0
17697,49.0,0.0,180.0,7.0,0.0
17698,77.0,0.0,960.0,5.0,0.0
17699,77.0,0.0,660.0,11.0,0.0
17700,49.0,0.0,180.0,13.0,0.0
17701,49.0,0.0,180.0,14.0,0.0
17702,83.0,54.0,60.0,6.0,0.0
17703,65.0,0.0,60.0,12.0,0.0
17704,73.0,0.0,60.0,4.0,0.0
17705,73.0,6.0,60.0,10.0,0.0
17706,75.0,0.0,60.0,10.0,0.0
17707,66.0,0.0,60.0,12.0,0.0
17708,61.0,6.0,60.0,13.0,0.0
17709,75.0,0.0,60.0,4.0,0.0
17710,61.0,0.0,60.0,7.0,0.0
17711,82.0,54.0,60.0,6.0,0.0
17712,61.0,0.0,60.0,14.0,0.0
17713,68.0,6.0,60.0,12.0,0.0
17714,77.0,0.0,60.0,10.0,0.0
17715,61.0,0.0,180.0,13.0,0.0
17716,80.0,54.0,60.0,6.0,0.0
17717,77.0,0.0,60.0,4.0,0.0
17718,61.0,0.0,180.0,7.0,0.0
17719,61.0,0.0,180.0,14.0,0.0
17720,70.0,0.0,60.0,12.0,0.0
17721,78.0,0.0,60.0,10.0,0.0
17722,78.0,6.0,60.0,4.0,0.0
17723,78.0,54.0,60.0,6.0,0.0
17724,77.0,54.0,60.0,6.0,0.0
17725,80.0,0.0,60.0,4.0,0.0
17726,71.0,6.0,60.0,12.0,0.0
17727,80.0,0.0,60.0,10.0,0.0
17728,56.0,6.0,60.0,14.0,0.0
17729,56.0,0.0,60.0,13.0,0.0
17730,82.0,0.0,60.0,10.0,0.0
17731,82.0,0.0,60.0,4.0,0.0
17732,68.0,0.0,60.0,12.0,0.0
17733,75.0,54.0,60.0,6.0,0.0
17734,56.0,0.0,60.0,7.0,0.0
17735,56.0,6.0,180.0,13.0,0.0
17736,83.0,6.0,60.0,10.0,0.0
17737,73.0,0.0,60.0,12.0,0.0
17738,83.0,0.0,60.0,4.0,0.0
17739,56.0,0.0,180.0,7.0,0.0
17740,56.0,0.0,180.0,14.0,0.0
17741,73.0,54.0,60.0,6.0,0.0
17742,75.0,0.0,60.0,12.0,0.0
17743,75.0,54.0,60.0,6.0,0.0
17744,82.0,0.0,60.0,10.0,0.0
17745,82.0,6.0,60.0,4.0,0.0
17746,80.0,0.0,60.0,4.0,0.0
17747,80.0,0.0,60.0,10.0,0.0
17748,77.0,0.0,60.0,12.0,0.0
17749,77.0,54.0,60.0,6.0,0.0
17750,82.0,0.0,60.0,10.0,0.0
17751,53.0,0.0,60.0,7.0,0.0
17752,78.0,54.0,60.0,6.0,0.0
17753,53.0,0.0,60.0,14.0,0.0
17754,53.0,0.0,60.0,13.0,0.0
17755,78.0,0.0,60.0,12.0,0.0
17756,82.0,6.0,60.0,4.0,0.0
17757,73.0,0.0,60.0,11.0,0.0
17758,83.0,6.0,60.0,4.0,0.0
17759,53.0,0.0,180.0,14.0,0.0
17760,80.0,0.0,60.0,12.0,0.0
17761,83.0,0.0,60.0,10.0,0.0
17762,73.0,6.0,180.0,11.0,0.0
17763,53.0,0.0,180.0,13.0,0.0
17764,53.0,0.0,180.0,7.0,0.0
17765,80.0,54.0,60.0,6.0,0.0
17766,80.0,0.0,60.0,10.0,0.0
17767,80.0,0.0,60.0,4.0,0.0
17768,78.0,6.0,60.0,12.0,0.0
17769,78.0,54.0,60.0,6.0,0.0
17770,80.0,54.0,60.0,6.0,0.0
17771,85.0,0.0,60.0,4.0,0.0
17772,80.0,0.0,60.0,12.0,0.0
17773,85.0,0.0,60.0,10.0,0.0
17774,49.0,0.0,60.0,13.0,0.0
17775,77.0,0.0,60.0,6.0,0.0
17776,80.0,0.0,60.0,10.0,0.0
17777,49.0,54.0,60.0,3.0,0.0
17778,49.0,0.0,60.0,7.0,0.0
17779,89.0,6.0,60.0,0.0,0.0
17780,77.0,0.0,60.0,12.0,0.0
17781,80.0,0.0,60.0,4.0,0.0
17782,85.0,0.0,60.0,1.0,0.0
17783,80.0,0.0,60.0,2.0,0.0
17784,49.0,0.0,60.0,14.0,0.0
17785,77.0,0.0,60.0,11.0,0.0
17786,85.0,0.0,240.0,1.0,0.0
17787,78.0,0.0,480.0,11.0,0.0
17788,54.0,54.0,240.0,3.0,0.0
17789,78.0,60.0,180.0,6.0,0.0
17790,54.0,0.0,180.0,13.0,0.0
17791,90.0,0.0,240.0,0.0,0.0
17792,73.0,54.0,480.0,12.0,0.0
17793,54.0,0.0,180.0,7.0,0.0
17794,82.0,0.0,300.0,4.0,0.0
17795,54.0,0.0,180.0,14.0,0.0
17796,82.0,60.0,60.0,10.0,0.0
17797,82.0,0.0,240.0,2.0,0.0
17798,85.0,60.0,60.0,10.0,0.0
17799,78.0,0.0,60.0,10.0,0.0
17800,49.0,0.0,60.0,14.0,0.0
17801,49.0,0.0,60.0,13.0,0.0
17802,70.0,0.0,60.0,6.0,0.0
17803,80.0,0.0,60.0,10.0,0.0
17804,49.0,0.0,60.0,7.0,0.0
17805,73.0,6.0,60.0,5.0,0.0
17806,49.0,0.0,180.0,14.0,0.0
17807,49.0,0.0,180.0,7.0,0.0
17808,49.0,0.0,180.0,13.0,0.0
17809,70.0,0.0,180.0,6.0,0.0
17810,82.0,60.0,60.0,10.0,0.0
17811,73.0,0.0,180.0,5.0,0.0
17812,83.0,0.0,60.0,10.0,0.0
17813,80.0,60.0,60.0,4.0,0.0
17814,85.0,0.0,60.0,10.0,0.0
17815,82.0,60.0,60.0,4.0,0.0
17816,87.0,6.0,60.0,10.0,0.0
17817,46.0,0.0,60.0,13.0,0.0
17818,78.0,0.0,60.0,4.0,0.0
17819,73.0,0.0,60.0,6.0,0.0
17820,46.0,0.0,60.0,7.0,0.0
17821,78.0,0.0,60.0,5.0,0.0
17822,46.0,0.0,60.0,14.0,0.0
17823,46.0,60.0,180.0,7.0,0.0
17824,46.0,0.0,180.0,13.0,0.0
17825,85.0,60.0,780.0,4.0,0.0
17826,46.0,0.0,180.0,14.0,0.0
17827,88.0,60.0,60.0,10.0,0.0
17828,82.0,0.0,480.0,5.0,0.0
17829,78.0,174.0,480.0,6.0,0.0
17830,87.0,60.0,60.0,10.0,0.0
17831,85.0,0.0,60.0,10.0,0.0
17832,42.0,0.0,60.0,7.0,0.0
17833,42.0,0.0,60.0,14.0,0.0
17834,87.0,0.0,60.0,10.0,0.0
17835,42.0,0.0,60.0,13.0,0.0
17836,70.0,0.0,60.0,12.0,0.0
17837,85.0,60.0,60.0,11.0,0.0
17838,88.0,60.0,60.0,10.0,0.0
17839,70.0,0.0,180.0,12.0,0.0
17840,42.0,0.0,180.0,13.0,0.0
17841,42.0,60.0,180.0,7.0,0.0
17842,42.0,0.0,180.0,14.0,0.0
17843,85.0,0.0,180.0,11.0,0.0
17844,85.0,60.0,60.0,10.0,0.0
17845,90.0,0.0,60.0,10.0,0.0
17846,54.0,0.0,60.0,3.0,0.0
17847,46.0,0.0,60.0,7.0,0.0
17848,82.0,0.0,60.0,11.0,0.0
17849,78.0,0.0,60.0,2.0,0.0
17850,82.0,0.0,60.0,1.0,0.0
17851,85.0,0.0,60.0,10.0,0.0
17852,85.0,0.0,60.0,0.0,0.0
17853,66.0,0.0,60.0,12.0,0.0
17854,46.0,6.0,60.0,14.0,0.0
17855,46.0,0.0,60.0,13.0,0.0
17856,87.0,174.0,480.0,10.0,0.0
17857,78.0,0.0,480.0,11.0,0.0
17858,78.0,0.0,240.0,1.0,0.0
17859,87.0,0.0,240.0,0.0,0.0
17860,66.0,0.0,240.0,2.0,0.0
17861,71.0,0.0,480.0,12.0,0.0
17862,47.0,60.0,180.0,13.0,0.0
17863,47.0,0.0,180.0,14.0,0.0
17864,47.0,0.0,180.0,7.0,0.0
17865,54.0,54.0,240.0,3.0,0.0
17866,82.0,0.0,60.0,5.0,0.0
17867,51.0,6.0,60.0,13.0,0.0
17868,51.0,0.0,60.0,7.0,0.0
17869,51.0,0.0,60.0,14.0,0.0
17870,78.0,0.0,60.0,6.0,0.0
17871,51.0,0.0,180.0,7.0,0.0
17872,51.0,0.0,180.0,13.0,0.0
17873,82.0,0.0,180.0,5.0,0.0
17874,51.0,0.0,180.0,14.0,0.0
17875,78.0,60.0,180.0,6.0,0.0
17876,83.0,60.0,60.0,4.0,0.0
17877,85.0,0.0,60.0,4.0,0.0
17878,56.0,0.0,60.0,14.0,0.0
17879,79.0,0.0,60.0,5.0,0.0
17880,76.0,0.0,60.0,6.0,0.0
17881,56.0,0.0,60.0,7.0,0.0
17882,56.0,6.0,60.0,13.0,0.0
17883,82.0,0.0,60.0,4.0,0.0
17884,56.0,60.0,180.0,14.0,0.0
17885,87.0,60.0,300.0,10.0,0.0
17886,83.0,60.0,780.0,4.0,0.0
17887,56.0,0.0,180.0,13.0,0.0
17888,75.0,174.0,480.0,6.0,0.0
17889,80.0,0.0,480.0,5.0,0.0
17890,56.0,0.0,180.0,7.0,0.0
17891,80.0,0.0,60.0,11.0,0.0
17892,59.0,0.0,60.0,13.0,0.0
17893,59.0,0.0,60.0,7.0,0.0
17894,59.0,0.0,60.0,14.0,0.0
17895,71.0,60.0,60.0,12.0,0.0
17896,59.0,0.0,180.0,7.0,0.0
17897,59.0,0.0,180.0,13.0,0.0
17898,59.0,0.0,180.0,14.0,0.0
17899,80.0,0.0,180.0,11.0,0.0
17900,71.0,0.0,180.0,12.0,0.0
17901,85.0,60.0,60.0,10.0,0.0
17902,87.0,60.0,60.0,10.0,0.0
17903,75.0,0.0,60.0,12.0,0.0
17904,56.0,6.0,60.0,13.0,0.0
17905,56.0,0.0,60.0,14.0,0.0
17906,80.0,0.0,60.0,2.0,0.0
17907,80.0,0.0,60.0,1.0,0.0
17908,75.0,0.0,60.0,11.0,0.0
17909,83.0,0.0,60.0,10.0,0.0
17910,49.0,0.0,60.0,3.0,0.0
17911,83.0,0.0,60.0,0.0,0.0
17912,56.0,0.0,60.0,7.0,0.0
17913,53.0,0.0,180.0,7.0,0.0
17914,80.0,0.0,240.0,1.0,0.0
17915,85.0,0.0,240.0,0.0,0.0
17916,49.0,0.0,240.0,3.0,0.0
17917,80.0,54.0,480.0,11.0,0.0
17918,73.0,54.0,240.0,2.0,0.0
17919,68.0,0.0,480.0,12.0,0.0
17920,53.0,60.0,180.0,14.0,0.0
17921,85.0,4.0,600.0,10.0,0.0
17922,53.0,0.0,180.0,13.0,0.0
17923,49.0,0.0,60.0,14.0,0.0
17924,49.0,0.0,60.0,7.0,0.0
17925,80.0,0.0,60.0,5.0,0.0
17926,49.0,0.0,60.0,13.0,0.0
17927,77.0,6.0,60.0,6.0,0.0
17928,77.0,0.0,180.0,6.0,0.0
17929,49.0,0.0,180.0,14.0,0.0
17930,49.0,0.0,180.0,13.0,0.0
17931,49.0,60.0,180.0,7.0,0.0
17932,80.0,0.0,180.0,5.0,0.0
17933,82.0,60.0,60.0,4.0,0.0
17934,83.0,0.0,60.0,4.0,0.0
17935,53.0,0.0,60.0,14.0,0.0
17936,80.0,0.0,60.0,4.0,0.0
17937,73.0,0.0,60.0,6.0,0.0
17938,53.0,0.0,60.0,7.0,0.0
17939,77.0,0.0,60.0,5.0,0.0
17940,53.0,6.0,60.0,13.0,0.0
17941,54.0,56.0,780.0,7.0,0.0
17942,54.0,294.0,480.0,13.0,0.0
17943,54.0,0.0,480.0,14.0,0.0
17944,73.0,0.0,240.0,5.0,0.0
17945,66.0,54.0,240.0,6.0,0.0
17946,82.0,56.0,60.0,4.0,0.0
17947,85.0,60.0,60.0,4.0,0.0
17948,90.0,0.0,60.0,4.0,0.0
17949,90.0,60.0,60.0,10.0,0.0
17950,73.0,0.0,60.0,12.0,0.0
17951,89.0,0.0,60.0,10.0,0.0
17952,82.0,0.0,60.0,11.0,0.0
17953,89.0,6.0,60.0,4.0,0.0
17954,82.0,0.0,180.0,11.0,0.0
17955,87.0,60.0,60.0,10.0,0.0
17956,78.0,0.0,180.0,12.0,0.0
17957,87.0,0.0,60.0,4.0,0.0
17958,85.0,0.0,60.0,10.0,0.0
17959,85.0,60.0,60.0,4.0,0.0
17960,83.0,56.0,60.0,4.0,0.0
17961,83.0,0.0,60.0,10.0,0.0
17962,73.0,4.0,120.0,6.0,0.0
17963,78.0,0.0,120.0,5.0,0.0
17964,73.0,0.0,60.0,2.0,0.0
17965,82.0,6.0,60.0,10.0,0.0
17966,78.0,0.0,60.0,11.0,0.0
17967,82.0,0.0,60.0,0.0,0.0
17968,78.0,0.0,60.0,1.0,0.0
17969,73.0,0.0,60.0,12.0,0.0
17970,54.0,0.0,60.0,3.0,0.0
17971,82.0,0.0,60.0,4.0,0.0
17972,80.0,0.0,360.0,1.0,0.0
17973,75.0,0.0,360.0,12.0,0.0
17974,80.0,4.0,360.0,2.0,0.0
17975,83.0,0.0,360.0,4.0,0.0
17976,54.0,0.0,300.0,13.0,0.0
17977,80.0,0.0,360.0,11.0,0.0
17978,83.0,0.0,360.0,10.0,0.0
17979,54.0,40.0,360.0,3.0,0.0
17980,54.0,0.0,300.0,14.0,0.0
17981,80.0,0.0,360.0,5.0,0.0
17982,75.0,0.0,360.0,6.0,0.0
17983,83.0,0.0,360.0,0.0,0.0
17984,53.0,0.0,60.0,13.0,0.0
17985,53.0,6.0,60.0,14.0,0.0
17986,53.0,0.0,60.0,7.0,0.0
17987,83.0,0.0,120.0,10.0,0.0
17988,54.0,26.0,60.0,14.0,0.0
17989,80.0,0.0,120.0,5.0,0.0
17990,75.0,0.0,120.0,6.0,0.0
17991,80.0,0.0,120.0,1.0,0.0
17992,75.0,0.0,120.0,12.0,0.0
17993,54.0,14.0,40.0,3.0,0.0
17994,83.0,0.0,120.0,0.0,0.0
17995,83.0,0.0,120.0,4.0,0.0
17996,80.0,0.0,120.0,11.0,0.0
17997,54.0,0.0,60.0,13.0,0.0
17998,80.0,4.0,120.0,2.0,0.0
17999,54.0,0.0,60.0,7.0,0.0
18000,54.0,30.0,40.0,3.0,0.0
18001,51.0,0.0,60.0,7.0,0.0
18002,51.0,0.0,60.0,14.0,0.0
18003,51.0,6.0,60.0,13.0,0.0
18004,54.0,174.0,40.0,3.0,0.0
18005,49.0,174.0,240.0,3.0,0.0
18006,80.0,0.0,240.0,11.0,0.0
18007,83.0,0.0,180.0,0.0,0.0
18008,53.0,0.0,240.0,7.0,0.0
18009,53.0,0.0,240.0,13.0,0.0
18010,80.0,0.0,240.0,5.0,0.0
18011,83.0,0.0,180.0,10.0,0.0
18012,83.0,56.0,180.0,4.0,0.0
18013,73.0,0.0,240.0,2.0,0.0
18014,73.0,0.0,240.0,6.0,0.0
18015,73.0,0.0,240.0,12.0,0.0
18016,80.0,4.0,240.0,1.0,0.0
18017,53.0,0.0,240.0,14.0,0.0
18018,80.0,0.0,60.0,10.0,0.0
18019,80.0,6.0,60.0,4.0,0.0
18020,80.0,0.0,60.0,0.0,0.0
18021,49.0,0.0,240.0,14.0,0.0
18022,73.0,0.0,240.0,12.0,0.0
18023,77.0,0.0,240.0,11.0,0.0
18024,49.0,4.0,240.0,13.0,0.0
18025,85.0,0.0,180.0,0.0,0.0
18026,77.0,0.0,240.0,5.0,0.0
18027,68.0,0.0,240.0,6.0,0.0
18028,49.0,0.0,240.0,7.0,0.0
18029,85.0,56.0,180.0,10.0,0.0
18030,85.0,0.0,180.0,4.0,0.0
18031,49.0,174.0,240.0,3.0,0.0
18032,80.0,0.0,240.0,1.0,0.0
18033,73.0,0.0,240.0,2.0,0.0
18034,80.0,0.0,60.0,4.0,0.0
18035,80.0,0.0,60.0,0.0,0.0
18036,80.0,6.0,60.0,10.0,0.0
18037,54.0,0.0,540.0,13.0,0.0
18038,82.0,4.0,240.0,4.0,0.0
18039,73.0,54.0,480.0,5.0,0.0
18040,78.0,0.0,180.0,11.0,0.0
18041,73.0,56.0,180.0,12.0,0.0
18042,54.0,60.0,540.0,7.0,0.0
18043,82.0,0.0,240.0,10.0,0.0
18044,78.0,0.0,240.0,1.0,0.0
18045,54.0,0.0,480.0,3.0,0.0
18046,82.0,0.0,240.0,0.0,0.0
18047,66.0,0.0,480.0,6.0,0.0
18048,73.0,0.0,240.0,2.0,0.0
18049,54.0,0.0,540.0,14.0,0.0
18050,73.0,0.0,60.0,11.0,0.0
18051,70.0,180.0,60.0,12.0,0.0
18052,70.0,56.0,180.0,12.0,0.0
18053,73.0,0.0,180.0,11.0,0.0
18054,78.0,0.0,240.0,4.0,0.0
18055,78.0,0.0,240.0,10.0,0.0
18056,70.0,0.0,240.0,2.0,0.0
18057,73.0,0.0,240.0,1.0,0.0
18058,78.0,4.0,240.0,0.0,0.0
18059,70.0,6.0,60.0,11.0,0.0
18060,66.0,0.0,60.0,12.0,0.0
18061,66.0,54.0,480.0,12.0,0.0
18062,70.0,0.0,480.0,11.0,0.0
18063,75.0,60.0,540.0,10.0,0.0
18064,75.0,0.0,540.0,4.0,0.0
18065,54.0,60.0,60.0,14.0,0.0
18066,54.0,0.0,60.0,13.0,0.0
18067,54.0,0.0,60.0,7.0,0.0
18068,56.0,0.0,60.0,14.0,0.0
18069,56.0,60.0,60.0,7.0,0.0
18070,56.0,0.0,60.0,13.0,0.0
18071,66.0,0.0,60.0,6.0,0.0
18072,58.0,0.0,60.0,13.0,0.0
18073,75.0,0.0,60.0,5.0,0.0
18074,58.0,0.0,60.0,7.0,0.0
18075,58.0,60.0,60.0,14.0,0.0
18076,59.0,0.0,60.0,14.0,0.0
18077,59.0,0.0,60.0,13.0,0.0
18078,59.0,60.0,60.0,7.0,0.0
18079,75.0,38.0,180.0,5.0,0.0
18080,66.0,0.0,180.0,6.0,0.0
18081,58.0,0.0,60.0,13.0,0.0
18082,58.0,0.0,60.0,14.0,0.0
18083,58.0,60.0,60.0,7.0,0.0
18084,59.0,0.0,60.0,13.0,0.0
18085,59.0,0.0,60.0,7.0,0.0
18086,59.0,0.0,60.0,14.0,0.0
18087,56.0,0.0,30.0,13.0,0.0
18088,56.0,22.0,30.0,7.0,0.0
18089,56.0,0.0,30.0,14.0,0.0
18090,71.0,0.0,60.0,5.0,0.0
18091,68.0,6.0,60.0,6.0,0.0
18092,54.0,0.0,20.0,14.0,0.0
18093,54.0,0.0,20.0,7.0,0.0
18094,54.0,0.0,20.0,13.0,0.0
18095,53.0,0.0,360.0,7.0,0.0
18096,68.0,0.0,360.0,6.0,0.0
18097,53.0,4.0,360.0,13.0,0.0
18098,53.0,0.0,360.0,14.0,0.0
18099,68.0,0.0,360.0,5.0,0.0
18100,75.0,0.0,60.0,10.0,0.0
18101,75.0,60.0,60.0,4.0,0.0
18102,77.0,60.0,60.0,4.0,0.0
18103,77.0,0.0,60.0,10.0,0.0
18104,78.0,0.0,60.0,10.0,0.0
18105,68.0,0.0,60.0,12.0,0.0
18106,78.0,0.0,60.0,4.0,0.0
18107,71.0,60.0,60.0,11.0,0.0
18108,80.0,56.0,60.0,4.0,0.0
18109,68.0,0.0,180.0,12.0,0.0
18110,80.0,0.0,60.0,10.0,0.0
18111,71.0,56.0,180.0,11.0,0.0
18112,78.0,0.0,60.0,10.0,0.0
18113,78.0,60.0,60.0,4.0,0.0
18114,71.0,0.0,120.0,6.0,0.0
18115,68.0,0.0,120.0,5.0,0.0
18116,80.0,0.0,60.0,10.0,0.0
18117,51.0,0.0,120.0,13.0,0.0
18118,51.0,0.0,120.0,7.0,0.0
18119,51.0,4.0,120.0,14.0,0.0
18120,80.0,0.0,60.0,4.0,0.0
18121,71.0,180.0,60.0,12.0,0.0
18122,68.0,0.0,60.0,11.0,0.0
18123,77.0,0.0,60.0,4.0,0.0
18124,77.0,0.0,60.0,10.0,0.0
18125,50.0,4.0,240.0,7.0,0.0
18126,50.0,0.0,240.0,14.0,0.0
18127,70.0,0.0,240.0,6.0,0.0
18128,70.0,0.0,240.0,11.0,0.0
18129,50.0,0.0,240.0,13.0,0.0
18130,70.0,56.0,180.0,4.0,0.0
18131,70.0,0.0,180.0,10.0,0.0
18132,65.0,0.0,240.0,12.0,0.0
18133,70.0,0.0,240.0,5.0,0.0
18134,80.0,180.0,60.0,4.0,0.0
18135,80.0,0.0,60.0,10.0,0.0
18136,78.0,56.0,180.0,4.0,0.0
18137,74.0,0.0,240.0,11.0,0.0
18138,46.0,4.0,240.0,7.0,0.0
18139,70.0,0.0,240.0,12.0,0.0
18140,46.0,0.0,240.0,14.0,0.0
18141,46.0,0.0,240.0,13.0,0.0
18142,70.0,0.0,240.0,6.0,0.0
18143,78.0,0.0,180.0,10.0,0.0
18144,74.0,0.0,240.0,5.0,0.0
18145,77.0,0.0,60.0,4.0,0.0
18146,77.0,180.0,60.0,10.0,0.0
18147,78.0,60.0,300.0,4.0,0.0
18148,75.0,54.0,480.0,11.0,0.0
18149,70.0,0.0,180.0,6.0,0.0
18150,51.0,0.0,540.0,14.0,0.0
18151,51.0,60.0,540.0,13.0,0.0
18152,75.0,60.0,180.0,5.0,0.0
18153,78.0,0.0,300.0,10.0,0.0
18154,70.0,0.0,480.0,12.0,0.0
18155,51.0,0.0,540.0,7.0,0.0
18156,70.0,0.0,60.0,5.0,0.0
18157,75.0,60.0,60.0,6.0,0.0
18158,70.0,0.0,180.0,5.0,0.0
18159,75.0,0.0,180.0,6.0,0.0
18160,77.0,60.0,60.0,10.0,0.0
18161,77.0,0.0,60.0,4.0,0.0
18162,78.0,0.0,60.0,4.0,0.0
18163,78.0,60.0,60.0,10.0,0.0
18164,70.0,0.0,60.0,6.0,0.0
18165,75.0,0.0,60.0,4.0,0.0
18166,66.0,6.0,60.0,5.0,0.0
18167,75.0,0.0,60.0,10.0,0.0
18168,71.0,60.0,540.0,4.0,0.0
18169,71.0,0.0,540.0,10.0,0.0
18170,66.0,54.0,480.0,5.0,0.0
18171,66.0,0.0,480.0,6.0,0.0
18172,49.0,0.0,60.0,13.0,0.0
18173,49.0,60.0,60.0,7.0,0.0
18174,49.0,0.0,60.0,14.0,0.0
18175,51.0,0.0,60.0,7.0,0.0
18176,51.0,60.0,60.0,13.0,0.0
18177,51.0,0.0,60.0,14.0,0.0
18178,70.0,60.0,60.0,11.0,0.0
18179,53.0,0.0,60.0,14.0,0.0
18180,53.0,0.0,60.0,7.0,0.0
18181,66.0,0.0,60.0,12.0,0.0
18182,53.0,0.0,60.0,13.0,0.0
18183,70.0,0.0,180.0,11.0,0.0
18184,54.0,60.0,60.0,7.0,0.0
18185,63.0,60.0,180.0,12.0,0.0
18186,54.0,0.0,60.0,14.0,0.0
18187,54.0,0.0,60.0,13.0,0.0
18188,53.0,60.0,60.0,13.0,0.0
18189,53.0,0.0,60.0,14.0,0.0
18190,53.0,0.0,60.0,7.0,0.0
18191,54.0,0.0,60.0,14.0,0.0
18192,54.0,0.0,60.0,7.0,0.0
18193,54.0,0.0,60.0,13.0,0.0
18194,51.0,6.0,60.0,13.0,0.0
18195,66.0,0.0,60.0,11.0,0.0
18196,63.0,0.0,60.0,12.0,0.0
18197,51.0,0.0,60.0,7.0,0.0
18198,51.0,0.0,60.0,14.0,0.0
18199,68.0,0.0,360.0,11.0,0.0
18200,61.0,64.0,360.0,12.0,0.0
18201,53.0,60.0,180.0,13.0,0.0
18202,53.0,0.0,180.0,14.0,0.0
18203,53.0,0.0,180.0,7.0,0.0
18204,70.0,60.0,60.0,10.0,0.0
18205,70.0,0.0,60.0,4.0,0.0
18206,71.0,0.0,60.0,10.0,0.0
18207,71.0,0.0,60.0,4.0,0.0
18208,71.0,0.0,60.0,5.0,0.0
18209,68.0,116.0,60.0,6.0,0.0
18210,49.0,0.0,60.0,7.0,0.0
18211,49.0,0.0,60.0,14.0,0.0
18212,68.0,0.0,60.0,10.0,0.0
18213,49.0,0.0,60.0,13.0,0.0
18214,68.0,0.0,60.0,4.0,0.0
18215,70.0,0.0,180.0,5.0,0.0
18216,66.0,56.0,180.0,6.0,0.0
18217,54.0,0.0,180.0,14.0,0.0
18218,70.0,0.0,180.0,4.0,0.0
18219,70.0,0.0,180.0,10.0,0.0
18220,54.0,0.0,180.0,7.0,0.0
18221,54.0,0.0,180.0,13.0,0.0
18222,66.0,0.0,60.0,11.0,0.0
18223,61.0,4.0,120.0,12.0,0.0
18224,56.0,0.0,60.0,13.0,0.0
18225,56.0,0.0,60.0,7.0,0.0
18226,65.0,0.0,60.0,11.0,0.0
18227,56.0,180.0,60.0,14.0,0.0
18228,71.0,0.0,60.0,6.0,0.0
18229,71.0,0.0,60.0,4.0,0.0
18230,71.0,0.0,60.0,10.0,0.0
18231,68.0,0.0,60.0,5.0,0.0
18232,73.0,0.0,180.0,4.0,0.0
18233,70.0,0.0,180.0,6.0,0.0
18234,58.0,0.0,180.0,14.0,0.0
18235,73.0,0.0,180.0,10.0,0.0
18236,66.0,0.0,180.0,11.0,0.0
18237,58.0,0.0,180.0,13.0,0.0
18238,58.0,60.0,180.0,7.0,0.0
18239,66.0,0.0,180.0,5.0,0.0
18240,66.0,0.0,180.0,12.0,0.0
18241,66.0,0.0,60.0,11.0,0.0
18242,59.0,0.0,60.0,14.0,0.0
18243,71.0,0.0,60.0,12.0,0.0
18244,59.0,0.0,60.0,13.0,0.0
18245,75.0,0.0,60.0,10.0,0.0
18246,66.0,0.0,60.0,5.0,0.0
18247,66.0,180.0,60.0,6.0,0.0
18248,75.0,0.0,60.0,4.0,0.0
18249,59.0,0.0,60.0,7.0,0.0
18250,68.0,0.0,180.0,11.0,0.0
18251,56.0,0.0,180.0,13.0,0.0
18252,56.0,0.0,180.0,14.0,0.0
18253,68.0,0.0,180.0,5.0,0.0
18254,71.0,0.0,180.0,12.0,0.0
18255,77.0,60.0,180.0,10.0,0.0
18256,56.0,0.0,180.0,7.0,0.0
18257,77.0,0.0,180.0,4.0,0.0
18258,71.0,0.0,180.0,6.0,0.0
18259,70.0,0.0,60.0,5.0,0.0
18260,73.0,0.0,60.0,6.0,0.0
18261,54.0,0.0,60.0,14.0,0.0
18262,78.0,0.0,60.0,10.0,0.0
18263,54.0,0.0,60.0,13.0,0.0
18264,73.0,0.0,60.0,12.0,0.0
18265,70.0,60.0,60.0,11.0,0.0
18266,54.0,0.0,60.0,7.0,0.0
18267,78.0,0.0,60.0,4.0,0.0
18268,77.0,60.0,60.0,4.0,0.0
18269,49.0,0.0,480.0,13.0,0.0
18270,49.0,0.0,480.0,14.0,0.0
18271,49.0,0.0,900.0,7.0,0.0
18272,65.0,0.0,180.0,11.0,0.0
18273,73.0,0.0,180.0,12.0,0.0
18274,68.0,0.0,480.0,5.0,0.0
18275,68.0,60.0,300.0,10.0,0.0
18276,73.0,54.0,480.0,6.0,0.0
18277,78.0,60.0,60.0,4.0,0.0
18278,80.0,60.0,60.0,4.0,0.0
18279,71.0,0.0,60.0,11.0,0.0
18280,65.0,0.0,60.0,12.0,0.0
18281,77.0,60.0,60.0,4.0,0.0
18282,71.0,0.0,180.0,11.0,0.0
18283,73.0,60.0,300.0,4.0,0.0
18284,65.0,60.0,180.0,12.0,0.0
18285,66.0,60.0,60.0,10.0,0.0
18286,68.0,0.0,60.0,10.0,0.0
18287,61.0,0.0,60.0,12.0,0.0
18288,68.0,6.0,60.0,11.0,0.0
18289,65.0,0.0,60.0,10.0,0.0
18290,61.0,0.0,480.0,12.0,0.0
18291,49.0,0.0,420.0,13.0,0.0
18292,49.0,0.0,420.0,14.0,0.0
18293,65.0,54.0,480.0,11.0,0.0
18294,71.0,60.0,300.0,10.0,0.0
18295,75.0,60.0,60.0,4.0,0.0
18296,77.0,60.0,60.0,4.0,0.0
18297,68.0,60.0,60.0,6.0,0.0
18298,77.0,0.0,60.0,5.0,0.0
18299,73.0,0.0,60.0,4.0,0.0
18300,77.0,60.0,180.0,5.0,0.0
18301,80.0,60.0,300.0,4.0,0.0
18302,71.0,0.0,180.0,6.0,0.0
18303,70.0,60.0,60.0,10.0,0.0
18304,71.0,0.0,60.0,10.0,0.0
18305,49.0,0.0,60.0,14.0,0.0
18306,68.0,0.0,60.0,10.0,0.0
18307,49.0,6.0,60.0,13.0,0.0
18308,49.0,0.0,60.0,7.0,0.0
18309,73.0,0.0,60.0,5.0,0.0
18310,77.0,0.0,60.0,6.0,0.0
18311,70.0,0.0,480.0,5.0,0.0
18312,49.0,0.0,900.0,7.0,0.0
18313,49.0,0.0,480.0,14.0,0.0
18314,73.0,0.0,480.0,6.0,0.0
18315,70.0,60.0,300.0,10.0,0.0
18316,49.0,54.0,480.0,13.0,0.0
18317,78.0,60.0,60.0,4.0,0.0
18318,80.0,60.0,60.0,4.0,0.0
18319,77.0,60.0,60.0,4.0,0.0
18320,73.0,0.0,60.0,11.0,0.0
18321,61.0,0.0,60.0,12.0,0.0
18322,66.0,0.0,180.0,12.0,0.0
18323,78.0,60.0,300.0,4.0,0.0
18324,73.0,0.0,180.0,11.0,0.0
18325,68.0,60.0,60.0,10.0,0.0
18326,70.0,60.0,60.0,10.0,0.0
18327,70.0,6.0,60.0,11.0,0.0
18328,61.0,0.0,60.0,12.0,0.0
18329,66.0,0.0,60.0,10.0,0.0
18330,49.0,0.0,420.0,14.0,0.0
18331,66.0,54.0,480.0,11.0,0.0
18332,49.0,0.0,420.0,13.0,0.0
18333,70.0,0.0,480.0,12.0,0.0
18334,73.0,60.0,300.0,10.0,0.0
18335,77.0,60.0,60.0,4.0,0.0
18336,78.0,60.0,60.0,4.0,0.0
18337,73.0,0.0,60.0,4.0,0.0
18338,70.0,0.0,60.0,6.0,0.0
18339,78.0,60.0,60.0,5.0,0.0
18340,78.0,0.0,180.0,5.0,0.0
18341,82.0,60.0,300.0,4.0,0.0
18342,73.0,60.0,180.0,6.0,0.0
18343,71.0,60.0,60.0,10.0,0.0
18344,73.0,0.0,60.0,10.0,0.0
18345,73.0,0.0,60.0,5.0,0.0
18346,78.0,0.0,60.0,6.0,0.0
18347,49.0,6.0,60.0,7.0,0.0
18348,49.0,0.0,60.0,14.0,0.0
18349,49.0,0.0,60.0,13.0,0.0
18350,70.0,0.0,60.0,10.0,0.0
18351,49.0,0.0,480.0,14.0,0.0
18352,71.0,60.0,300.0,10.0,0.0
18353,77.0,54.0,480.0,6.0,0.0
18354,49.0,0.0,480.0,13.0,0.0
18355,49.0,0.0,900.0,7.0,0.0
18356,74.0,0.0,480.0,5.0,0.0
18357,80.0,60.0,60.0,4.0,0.0
18358,82.0,60.0,60.0,4.0,0.0
18359,71.0,0.0,60.0,12.0,0.0
18360,74.0,0.0,60.0,11.0,0.0
18361,78.0,60.0,60.0,4.0,0.0
18362,74.0,60.0,180.0,11.0,0.0
18363,65.0,0.0,180.0,12.0,0.0
18364,80.0,60.0,300.0,4.0,0.0
18365,70.0,60.0,60.0,10.0,0.0
18366,71.0,0.0,60.0,10.0,0.0
18367,68.0,0.0,60.0,12.0,0.0
18368,71.0,6.0,60.0,11.0,0.0
18369,68.0,0.0,60.0,10.0,0.0
18370,49.0,0.0,420.0,14.0,0.0
18371,49.0,60.0,420.0,13.0,0.0
18372,74.0,60.0,300.0,10.0,0.0
18373,68.0,54.0,480.0,11.0,0.0
18374,71.0,0.0,480.0,12.0,0.0
18375,78.0,60.0,60.0,4.0,0.0
18376,80.0,60.0,60.0,4.0,0.0
18377,80.0,0.0,60.0,5.0,0.0
18378,77.0,0.0,60.0,4.0,0.0
18379,71.0,60.0,60.0,6.0,0.0
18380,80.0,0.0,180.0,5.0,0.0
18381,83.0,60.0,300.0,4.0,0.0
18382,77.0,0.0,180.0,6.0,0.0
18383,73.0,60.0,60.0,10.0,0.0
18384,74.0,0.0,60.0,10.0,0.0
18385,49.0,0.0,60.0,13.0,0.0
18386,80.0,0.0,60.0,6.0,0.0
18387,49.0,0.0,60.0,14.0,0.0
18388,77.0,6.0,60.0,5.0,0.0
18389,49.0,0.0,60.0,7.0,0.0
18390,71.0,0.0,60.0,10.0,0.0
18391,78.0,54.0,240.0,6.0,0.0
18392,49.0,0.0,900.0,7.0,0.0
18393,49.0,0.0,480.0,13.0,0.0
18394,73.0,0.0,240.0,5.0,0.0
18395,73.0,60.0,300.0,10.0,0.0
18396,49.0,54.0,480.0,14.0,0.0
18397,81.0,60.0,60.0,4.0,0.0
18398,83.0,60.0,60.0,4.0,0.0
18399,65.0,0.0,60.0,12.0,0.0
18400,80.0,0.0,60.0,4.0,0.0
18401,71.0,6.0,60.0,11.0,0.0
18402,66.0,0.0,240.0,12.0,0.0
18403,69.0,0.0,240.0,11.0,0.0
18404,81.0,60.0,300.0,4.0,0.0
18405,71.0,60.0,60.0,10.0,0.0
18406,73.0,60.0,60.0,10.0,0.0
18407,73.0,0.0,60.0,5.0,0.0
18408,78.0,0.0,60.0,6.0,0.0
18409,69.0,6.0,60.0,10.0,0.0
18410,71.0,60.0,300.0,10.0,0.0
18411,71.0,54.0,240.0,5.0,0.0
18412,49.0,0.0,420.0,13.0,0.0
18413,75.0,0.0,240.0,6.0,0.0
18414,49.0,0.0,420.0,14.0,0.0
18415,80.0,60.0,60.0,4.0,0.0
18416,81.0,60.0,60.0,4.0,0.0
18417,66.0,0.0,60.0,12.0,0.0
18418,78.0,6.0,60.0,4.0,0.0
18419,69.0,0.0,60.0,11.0,0.0
18420,65.0,54.0,240.0,12.0,0.0
18421,80.0,60.0,300.0,4.0,0.0
18422,68.0,0.0,240.0,11.0,0.0
18423,69.0,60.0,60.0,10.0,0.0
18424,71.0,60.0,60.0,10.0,0.0
18425,49.0,0.0,60.0,13.0,0.0
18426,71.0,0.0,60.0,5.0,0.0
18427,49.0,0.0,60.0,7.0,0.0
18428,68.0,6.0,60.0,10.0,0.0
18429,49.0,0.0,60.0,14.0,0.0
18430,77.0,0.0,60.0,6.0,0.0
18431,49.0,0.0,540.0,14.0,0.0
18432,49.0,60.0,540.0,13.0,0.0
18433,49.0,0.0,540.0,7.0,0.0
18434,69.0,0.0,300.0,10.0,0.0
18435,69.0,0.0,480.0,5.0,0.0
18436,73.0,54.0,480.0,6.0,0.0
18437,78.0,60.0,60.0,4.0,0.0
18438,80.0,60.0,60.0,4.0,0.0
18439,77.0,60.0,60.0,4.0,0.0
18440,68.0,0.0,60.0,11.0,0.0
18441,61.0,0.0,60.0,12.0,0.0
18442,78.0,60.0,60.0,4.0,0.0
18443,66.0,0.0,180.0,11.0,0.0
18444,61.0,0.0,180.0,12.0,0.0
18445,68.0,0.0,60.0,10.0,0.0
18446,77.0,60.0,60.0,4.0,0.0
18447,78.0,60.0,60.0,4.0,0.0
18448,69.0,0.0,60.0,10.0,0.0
18449,75.0,0.0,60.0,4.0,0.0
18450,69.0,0.0,60.0,11.0,0.0
18451,66.0,0.0,60.0,12.0,0.0
18452,66.0,6.0,60.0,10.0,0.0
18453,76.0,0.0,540.0,4.0,0.0
18454,70.0,0.0,660.0,12.0,0.0
18455,76.0,60.0,540.0,10.0,0.0
18456,73.0,0.0,660.0,11.0,0.0
18457,51.0,0.0,60.0,7.0,0.0
18458,51.0,60.0,60.0,14.0,0.0
18459,51.0,0.0,60.0,13.0,0.0
18460,49.0,0.0,60.0,14.0,0.0
18461,49.0,0.0,60.0,13.0,0.0
18462,49.0,60.0,60.0,7.0,0.0
18463,47.0,60.0,60.0,14.0,0.0
18464,66.0,0.0,60.0,6.0,0.0
18465,73.0,0.0,60.0,5.0,0.0
18466,47.0,0.0,60.0,7.0,0.0
18467,47.0,0.0,60.0,13.0,0.0
18468,73.0,0.0,180.0,6.0,0.0
18469,46.0,0.0,60.0,7.0,0.0
18470,66.0,60.0,180.0,5.0,0.0
18471,46.0,60.0,60.0,13.0,0.0
18472,46.0,0.0,60.0,14.0,0.0
18473,44.0,0.0,60.0,14.0,0.0
18474,44.0,0.0,60.0,13.0,0.0
18475,44.0,60.0,60.0,7.0,0.0
18476,46.0,0.0,60.0,14.0,0.0
18477,46.0,0.0,60.0,13.0,0.0
18478,46.0,0.0,60.0,7.0,0.0
18479,42.0,0.0,60.0,13.0,0.0
18480,78.0,0.0,60.0,6.0,0.0
18481,70.0,0.0,60.0,5.0,0.0
18482,42.0,60.0,60.0,14.0,0.0
18483,42.0,0.0,60.0,7.0,0.0
18484,51.0,0.0,540.0,7.0,0.0
18485,78.0,0.0,180.0,6.0,0.0
18486,51.0,0.0,540.0,13.0,0.0
18487,51.0,60.0,540.0,14.0,0.0
18488,70.0,0.0,180.0,5.0,0.0
18489,75.0,60.0,60.0,10.0,0.0
18490,75.0,0.0,60.0,4.0,0.0
18491,76.0,60.0,60.0,10.0,0.0
18492,76.0,0.0,60.0,4.0,0.0
18493,73.0,0.0,60.0,4.0,0.0
18494,73.0,0.0,60.0,10.0,0.0
18495,66.0,0.0,60.0,12.0,0.0
18496,73.0,0.0,60.0,5.0,0.0
18497,76.0,180.0,60.0,6.0,0.0
18498,70.0,0.0,60.0,11.0,0.0
18499,71.0,0.0,180.0,11.0,0.0
18500,75.0,0.0,180.0,6.0,0.0
18501,66.0,0.0,180.0,12.0,0.0
18502,71.0,0.0,180.0,5.0,0.0
18503,75.0,0.0,180.0,4.0,0.0
18504,75.0,60.0,180.0,10.0,0.0
18505,65.0,60.0,60.0,12.0,0.0
18506,68.0,0.0,60.0,11.0,0.0
18507,77.0,0.0,60.0,4.0,0.0
18508,68.0,0.0,60.0,5.0,0.0
18509,71.0,0.0,60.0,6.0,0.0
18510,77.0,0.0,60.0,10.0,0.0
18511,78.0,0.0,360.0,10.0,0.0
18512,70.0,0.0,180.0,5.0,0.0
18513,70.0,0.0,180.0,11.0,0.0
18514,78.0,0.0,360.0,4.0,0.0
18515,63.0,4.0,360.0,12.0,0.0
18516,70.0,0.0,180.0,6.0,0.0
18517,52.0,0.0,60.0,7.0,0.0
18518,52.0,0.0,60.0,13.0,0.0
18519,52.0,60.0,60.0,14.0,0.0
18520,51.0,60.0,60.0,13.0,0.0
18521,51.0,0.0,60.0,14.0,0.0
18522,51.0,0.0,60.0,7.0,0.0
18523,49.0,0.0,60.0,7.0,0.0
18524,70.0,0.0,60.0,6.0,0.0
18525,49.0,0.0,60.0,13.0,0.0
18526,66.0,0.0,60.0,5.0,0.0
18527,66.0,60.0,60.0,11.0,0.0
18528,49.0,0.0,60.0,14.0,0.0
18529,68.0,0.0,180.0,11.0,0.0
18530,47.0,0.0,60.0,14.0,0.0
18531,47.0,56.0,60.0,7.0,0.0
18532,75.0,0.0,180.0,6.0,0.0
18533,68.0,0.0,180.0,5.0,0.0
18534,47.0,0.0,60.0,13.0,0.0
18535,46.0,60.0,60.0,13.0,0.0
18536,46.0,0.0,60.0,14.0,0.0
18537,46.0,0.0,60.0,7.0,0.0
18538,47.0,56.0,60.0,13.0,0.0
18539,80.0,4.0,120.0,10.0,0.0
18540,80.0,0.0,120.0,4.0,0.0
18541,47.0,0.0,60.0,14.0,0.0
18542,71.0,0.0,120.0,12.0,0.0
18543,47.0,0.0,60.0,7.0,0.0
18544,75.0,0.0,60.0,5.0,0.0
18545,44.0,0.0,60.0,13.0,0.0
18546,44.0,180.0,60.0,7.0,0.0
18547,44.0,0.0,60.0,14.0,0.0
18548,71.0,0.0,60.0,6.0,0.0
18549,75.0,0.0,60.0,11.0,0.0
18550,80.0,0.0,180.0,5.0,0.0
18551,73.0,0.0,180.0,12.0,0.0
18552,53.0,0.0,180.0,14.0,0.0
18553,53.0,0.0,180.0,7.0,0.0
18554,53.0,0.0,180.0,13.0,0.0
18555,80.0,0.0,180.0,11.0,0.0
18556,73.0,60.0,180.0,10.0,0.0
18557,73.0,0.0,180.0,4.0,0.0
18558,73.0,0.0,180.0,6.0,0.0
18559,77.0,0.0,60.0,5.0,0.0
18560,49.0,0.0,60.0,13.0,0.0
18561,83.0,0.0,60.0,4.0,0.0
18562,49.0,0.0,60.0,14.0,0.0
18563,80.0,0.0,60.0,1.0,0.0
18564,49.0,0.0,60.0,7.0,0.0
18565,85.0,0.0,60.0,0.0,0.0
18566,83.0,6.0,60.0,10.0,0.0
18567,49.0,174.0,60.0,3.0,0.0
18568,73.0,0.0,60.0,6.0,0.0
18569,73.0,0.0,60.0,2.0,0.0
18570,77.0,0.0,60.0,11.0,0.0
18571,73.0,0.0,60.0,12.0,0.0
18572,54.0,0.0,180.0,14.0,0.0
18573,73.0,0.0,180.0,6.0,0.0
18574,82.0,0.0,180.0,1.0,0.0
18575,54.0,54.0,180.0,3.0,0.0
18576,66.0,0.0,180.0,2.0,0.0
18577,54.0,0.0,180.0,13.0,0.0
18578,78.0,6.0,180.0,5.0,0.0
18579,73.0,0.0,180.0,12.0,0.0
18580,54.0,0.0,180.0,7.0,0.0
18581,85.0,0.0,180.0,0.0,0.0
18582,82.0,0.0,180.0,10.0,0.0
18583,78.0,0.0,180.0,11.0,0.0
18584,82.0,0.0,180.0,4.0,0.0
18585,80.0,0.0,60.0,10.0,0.0
18586,71.0,0.0,60.0,12.0,0.0
18587,47.0,6.0,60.0,14.0,0.0
18588,66.0,0.0,60.0,2.0,0.0
18589,54.0,15.0,60.0,3.0,0.0
18590,47.0,0.0,60.0,13.0,0.0
18591,47.0,0.0,60.0,7.0,0.0
18592,75.0,0.0,60.0,5.0,0.0
18593,87.0,0.0,60.0,0.0,0.0
18594,71.0,0.0,60.0,6.0,0.0
18595,83.0,0.0,60.0,1.0,0.0
18596,80.0,0.0,60.0,4.0,0.0
18597,75.0,0.0,60.0,11.0,0.0
18598,73.0,0.0,360.0,2.0,0.0
18599,49.0,10.0,240.0,13.0,0.0
18600,80.0,10.0,360.0,1.0,0.0
18601,77.0,0.0,15.0,4.0,0.0
18602,49.0,0.0,180.0,3.0,0.0
18603,68.0,15.0,15.0,6.0,0.0
18604,68.0,0.0,360.0,12.0,0.0
18605,73.0,0.0,360.0,11.0,0.0
18606,49.0,0.0,240.0,14.0,0.0
18607,73.0,0.0,240.0,5.0,0.0
18608,77.0,0.0,15.0,10.0,0.0
18609,49.0,0.0,240.0,7.0,0.0
18610,85.0,0.0,240.0,0.0,0.0
18611,78.0,15.0,15.0,4.0,0.0
18612,78.0,0.0,15.0,10.0,0.0
18613,70.0,0.0,15.0,6.0,0.0
18614,77.0,0.0,15.0,10.0,0.0
18615,77.0,0.0,15.0,4.0,0.0
18616,68.0,15.0,15.0,6.0,0.0
18617,78.0,0.0,15.0,10.0,0.0
18618,78.0,15.0,15.0,4.0,0.0
18619,70.0,0.0,15.0,6.0,0.0
18620,77.0,15.0,15.0,4.0,0.0
18621,77.0,0.0,15.0,10.0,0.0
18622,68.0,0.0,15.0,6.0,0.0
18623,70.0,0.0,15.0,6.0,0.0
18624,78.0,0.0,15.0,10.0,0.0
18625,78.0,15.0,15.0,4.0,0.0
18626,77.0,0.0,15.0,10.0,0.0
18627,77.0,0.0,15.0,4.0,0.0
18628,68.0,15.0,15.0,6.0,0.0
18629,70.0,0.0,15.0,6.0,0.0
18630,78.0,0.0,15.0,10.0,0.0
18631,78.0,15.0,15.0,4.0,0.0
18632,77.0,0.0,15.0,10.0,0.0
18633,68.0,0.0,15.0,6.0,0.0
18634,77.0,15.0,15.0,4.0,0.0
18635,78.0,0.0,15.0,4.0,0.0
18636,78.0,0.0,15.0,10.0,0.0
18637,70.0,15.0,15.0,6.0,0.0
18638,68.0,15.0,15.0,6.0,0.0
18639,77.0,0.0,15.0,10.0,0.0
18640,77.0,0.0,15.0,4.0,0.0
18641,78.0,0.0,15.0,10.0,0.0
18642,78.0,0.0,15.0,4.0,0.0
18643,70.0,15.0,15.0,6.0,0.0
18644,77.0,0.0,15.0,4.0,0.0
18645,68.0,15.0,15.0,6.0,0.0
18646,77.0,0.0,15.0,10.0,0.0
18647,49.0,0.0,60.0,3.0,0.0
18648,78.0,0.0,15.0,10.0,0.0
18649,78.0,0.0,15.0,4.0,0.0
18650,70.0,15.0,15.0,6.0,0.0
18651,68.0,5.0,15.0,6.0,0.0
18652,77.0,0.0,15.0,4.0,0.0
18653,77.0,0.0,15.0,10.0,0.0
18654,78.0,0.0,15.0,4.0,0.0
18655,70.0,15.0,15.0,6.0,0.0
18656,78.0,0.0,15.0,10.0,0.0
18657,49.0,0.0,240.0,14.0,0.0
18658,73.0,0.0,240.0,5.0,0.0
18659,49.0,0.0,180.0,3.0,0.0
18660,49.0,0.0,240.0,13.0,0.0
18661,77.0,0.0,15.0,4.0,0.0
18662,83.0,0.0,15.0,0.0,0.0
18663,77.0,0.0,15.0,10.0,0.0
18664,49.0,0.0,240.0,7.0,0.0
18665,68.0,15.0,15.0,6.0,0.0
18666,78.0,0.0,15.0,10.0,0.0
18667,78.0,15.0,15.0,4.0,0.0
18668,70.0,0.0,15.0,6.0,0.0
18669,85.0,0.0,15.0,0.0,0.0
18670,68.0,0.0,15.0,6.0,0.0
18671,77.0,15.0,15.0,10.0,0.0
18672,77.0,0.0,15.0,4.0,0.0
18673,83.0,0.0,15.0,0.0,0.0
18674,70.0,15.0,15.0,6.0,0.0
18675,85.0,0.0,15.0,0.0,0.0
18676,78.0,0.0,15.0,10.0,0.0
18677,78.0,0.0,15.0,4.0,0.0
18678,68.0,0.0,15.0,6.0,0.0
18679,83.0,0.0,15.0,0.0,0.0
18680,77.0,0.0,15.0,10.0,0.0
18681,77.0,15.0,15.0,4.0,0.0
18682,70.0,0.0,15.0,6.0,0.0
18683,78.0,15.0,15.0,10.0,0.0
18684,85.0,0.0,15.0,0.0,0.0
18685,78.0,0.0,15.0,4.0,0.0
18686,83.0,5.0,15.0,0.0,0.0
18687,75.0,0.0,15.0,10.0,0.0
18688,75.0,0.0,15.0,4.0,0.0
18689,66.0,0.0,15.0,6.0,0.0
18690,77.0,15.0,15.0,10.0,0.0
18691,68.0,0.0,15.0,6.0,0.0
18692,85.0,0.0,15.0,0.0,0.0
18693,77.0,0.0,15.0,4.0,0.0
18694,70.0,0.0,120.0,6.0,0.0
18695,78.0,4.0,120.0,10.0,0.0
18696,73.0,0.0,120.0,2.0,0.0
18697,78.0,0.0,120.0,4.0,0.0
18698,70.0,0.0,120.0,12.0,0.0
18699,73.0,0.0,120.0,11.0,0.0
18700,78.0,0.0,120.0,1.0,0.0
18701,83.0,15.0,15.0,0.0,0.0
18702,85.0,15.0,15.0,0.0,0.0
18703,82.0,15.0,15.0,0.0,0.0
18704,83.0,50.0,15.0,0.0,0.0
18705,49.0,720.0,60.0,3.0,0.0
18706,82.0,6.0,60.0,0.0,0.0
18707,42.0,0.0,960.0,14.0,0.0
18708,42.0,0.0,960.0,13.0,0.0
18709,42.0,0.0,960.0,7.0,0.0
18710,73.0,0.0,960.0,11.0,0.0
18711,78.0,0.0,960.0,10.0,0.0
18712,73.0,0.0,960.0,2.0,0.0
18713,73.0,0.0,960.0,5.0,0.0
18714,54.0,721.0,960.0,3.0,0.0
18715,70.0,240.0,720.0,12.0,0.0
18716,82.0,0.0,960.0,0.0,0.0
18717,78.0,0.0,960.0,1.0,0.0
18718,78.0,0.0,960.0,4.0,0.0
18719,70.0,0.0,960.0,6.0,0.0
