,note,step,duration,channel,velocity
0,34.0,13.0,60.0,11.0,64.0
1,70.0,1.0,120.0,13.0,64.0
2,46.0,6.0,90.0,15.0,64.0
3,58.0,7.0,90.0,4.0,64.0
4,46.0,96.0,120.0,7.0,64.0
5,58.0,2.0,120.0,14.0,64.0
6,70.0,1.0,90.0,1.0,64.0
7,46.0,6.0,60.0,12.0,64.0
8,65.0,3.0,60.0,12.0,64.0
9,70.0,10.0,90.0,12.0,64.0
10,62.0,7.0,60.0,12.0,64.0
11,69.0,84.0,120.0,13.0,64.0
12,69.0,26.0,90.0,1.0,64.0
13,70.0,37.0,90.0,13.0,64.0
14,62.0,11.0,600.0,12.0,64.0
15,70.0,5.0,150.0,1.0,64.0
16,65.0,6.0,570.0,12.0,64.0
17,46.0,2.0,180.0,7.0,64.0
18,70.0,6.0,540.0,12.0,64.0
19,62.0,35.0,120.0,14.0,64.0
20,62.0,35.0,150.0,4.0,64.0
21,46.0,61.0,180.0,15.0,64.0
22,34.0,1.0,180.0,11.0,64.0
23,46.0,60.0,240.0,12.0,64.0
24,65.0,13.0,120.0,14.0,64.0
25,65.0,0.0,90.0,4.0,64.0
26,58.0,17.0,90.0,7.0,64.0
27,65.0,1.0,90.0,1.0,64.0
28,65.0,1.0,90.0,13.0,64.0
29,58.0,81.0,120.0,15.0,64.0
30,58.0,17.0,60.0,12.0,64.0
31,46.0,4.0,60.0,11.0,64.0
32,63.0,83.0,120.0,13.0,64.0
33,63.0,20.0,90.0,1.0,64.0
34,65.0,1.0,90.0,13.0,64.0
35,65.0,156.0,150.0,1.0,64.0
36,62.0,7.0,90.0,4.0,64.0
37,62.0,2.0,90.0,14.0,64.0
38,58.0,24.0,120.0,15.0,64.0
39,58.0,1.0,90.0,7.0,64.0
40,46.0,15.0,90.0,11.0,64.0
41,58.0,0.0,60.0,12.0,64.0
42,58.0,8.0,90.0,4.0,64.0
43,58.0,91.0,120.0,14.0,64.0
44,46.0,0.0,90.0,7.0,64.0
45,70.0,6.0,90.0,13.0,64.0
46,46.0,12.0,90.0,15.0,64.0
47,46.0,4.0,60.0,12.0,64.0
48,65.0,1.0,60.0,12.0,64.0
49,62.0,6.0,60.0,12.0,64.0
50,70.0,4.0,90.0,1.0,64.0
51,70.0,8.0,60.0,12.0,64.0
52,34.0,8.0,60.0,11.0,64.0
53,69.0,89.0,120.0,13.0,64.0
54,69.0,11.0,90.0,1.0,64.0
55,70.0,88.0,90.0,13.0,64.0
56,62.0,5.0,150.0,14.0,64.0
57,62.0,23.0,510.0,12.0,64.0
58,65.0,27.0,480.0,12.0,64.0
59,46.0,51.0,180.0,7.0,64.0
60,70.0,7.0,450.0,12.0,64.0
61,46.0,19.0,180.0,15.0,64.0
62,62.0,0.0,150.0,4.0,64.0
63,46.0,66.0,240.0,12.0,64.0
64,34.0,3.0,150.0,11.0,64.0
65,70.0,7.0,150.0,1.0,64.0
66,65.0,2.0,90.0,14.0,64.0
67,65.0,1.0,90.0,4.0,64.0
68,62.0,99.0,120.0,13.0,64.0
69,58.0,10.0,90.0,15.0,64.0
70,58.0,8.0,90.0,7.0,64.0
71,62.0,4.0,90.0,1.0,64.0
72,58.0,15.0,60.0,12.0,64.0
73,46.0,2.0,90.0,11.0,64.0
74,60.0,18.0,120.0,13.0,64.0
75,60.0,14.0,90.0,1.0,64.0
76,62.0,171.0,150.0,1.0,64.0
77,62.0,28.0,60.0,13.0,64.0
78,62.0,11.0,120.0,14.0,64.0
79,58.0,15.0,120.0,15.0,64.0
80,58.0,1.0,60.0,12.0,64.0
81,62.0,7.0,90.0,4.0,64.0
82,58.0,9.0,90.0,7.0,64.0
83,46.0,0.0,90.0,11.0,64.0
84,58.0,10.0,90.0,14.0,64.0
85,58.0,90.0,120.0,4.0,64.0
86,46.0,2.0,90.0,15.0,64.0
87,46.0,17.0,90.0,7.0,64.0
88,46.0,5.0,60.0,12.0,64.0
89,70.0,0.0,120.0,13.0,64.0
90,70.0,9.0,60.0,12.0,64.0
91,65.0,0.0,60.0,12.0,64.0
92,62.0,1.0,60.0,12.0,64.0
93,70.0,6.0,90.0,1.0,64.0
94,34.0,9.0,60.0,11.0,64.0
95,69.0,68.0,150.0,13.0,64.0
96,69.0,49.0,90.0,1.0,64.0
97,62.0,0.0,180.0,14.0,64.0
98,46.0,33.0,180.0,7.0,64.0
99,70.0,11.0,150.0,1.0,64.0
100,46.0,8.0,180.0,15.0,64.0
101,62.0,3.0,240.0,12.0,64.0
102,62.0,8.0,150.0,4.0,64.0
103,65.0,83.0,240.0,12.0,64.0
104,46.0,17.0,210.0,12.0,64.0
105,70.0,2.0,210.0,12.0,64.0
106,70.0,62.0,90.0,13.0,64.0
107,34.0,8.0,180.0,11.0,64.0
108,65.0,8.0,90.0,14.0,64.0
109,65.0,7.0,90.0,4.0,64.0
110,58.0,6.0,90.0,13.0,64.0
111,46.0,60.0,120.0,11.0,64.0
112,58.0,1.0,90.0,7.0,64.0
113,58.0,8.0,90.0,15.0,64.0
114,58.0,4.0,90.0,1.0,64.0
115,58.0,0.0,90.0,12.0,64.0
116,62.0,0.0,90.0,12.0,64.0
117,60.0,33.0,60.0,13.0,64.0
118,45.0,75.0,120.0,11.0,64.0
119,57.0,1.0,90.0,7.0,64.0
120,60.0,24.0,90.0,12.0,64.0
121,60.0,2.0,90.0,1.0,64.0
122,57.0,0.0,90.0,12.0,64.0
123,57.0,9.0,90.0,15.0,64.0
124,62.0,90.0,150.0,1.0,64.0
125,62.0,4.0,90.0,13.0,64.0
126,55.0,10.0,120.0,15.0,64.0
127,58.0,10.0,120.0,12.0,64.0
128,55.0,0.0,120.0,12.0,64.0
129,55.0,9.0,120.0,7.0,64.0
130,70.0,5.0,90.0,14.0,64.0
131,43.0,10.0,90.0,11.0,64.0
132,70.0,5.0,90.0,4.0,64.0
133,74.0,4.0,120.0,14.0,64.0
134,74.0,66.0,120.0,4.0,64.0
135,64.0,2.0,90.0,1.0,64.0
136,64.0,6.0,90.0,13.0,64.0
137,60.0,51.0,120.0,7.0,64.0
138,72.0,17.0,90.0,4.0,64.0
139,72.0,5.0,120.0,14.0,64.0
140,48.0,7.0,60.0,11.0,64.0
141,70.0,5.0,60.0,12.0,64.0
142,67.0,9.0,60.0,12.0,64.0
143,64.0,4.0,60.0,12.0,64.0
144,60.0,3.0,120.0,15.0,64.0
145,60.0,2.0,90.0,12.0,64.0
146,70.0,161.0,60.0,4.0,64.0
147,70.0,14.0,60.0,14.0,64.0
148,69.0,10.0,120.0,4.0,64.0
149,41.0,0.0,180.0,11.0,64.0
150,65.0,3.0,120.0,13.0,64.0
151,53.0,10.0,210.0,12.0,64.0
152,60.0,10.0,120.0,12.0,64.0
153,69.0,17.0,90.0,14.0,64.0
154,53.0,30.0,180.0,7.0,64.0
155,65.0,2.0,120.0,1.0,64.0
156,53.0,10.0,180.0,15.0,64.0
157,65.0,8.0,120.0,12.0,64.0
158,69.0,28.0,120.0,12.0,64.0
159,64.0,4.0,120.0,1.0,64.0
160,64.0,85.0,120.0,13.0,64.0
161,65.0,14.0,90.0,13.0,64.0
162,65.0,2.0,90.0,1.0,64.0
163,65.0,1.0,120.0,4.0,64.0
164,65.0,7.0,90.0,14.0,64.0
165,65.0,2.0,90.0,7.0,64.0
166,53.0,1.0,90.0,11.0,64.0
167,65.0,56.0,90.0,15.0,64.0
168,65.0,7.0,90.0,12.0,64.0
169,69.0,3.0,60.0,12.0,64.0
170,72.0,1.0,60.0,12.0,64.0
171,77.0,3.0,60.0,12.0,64.0
172,67.0,25.0,60.0,13.0,64.0
173,67.0,11.0,90.0,1.0,64.0
174,64.0,8.0,120.0,12.0,64.0
175,64.0,15.0,90.0,7.0,64.0
176,52.0,69.0,120.0,11.0,64.0
177,64.0,5.0,90.0,15.0,64.0
178,65.0,10.0,90.0,13.0,64.0
179,65.0,13.0,90.0,12.0,64.0
180,65.0,0.0,90.0,15.0,64.0
181,65.0,12.0,90.0,1.0,64.0
182,65.0,54.0,120.0,7.0,64.0
183,53.0,6.0,90.0,11.0,64.0
184,69.0,31.0,60.0,13.0,64.0
185,69.0,112.0,60.0,1.0,64.0
186,74.0,68.0,120.0,14.0,64.0
187,65.0,3.0,90.0,13.0,64.0
188,65.0,1.0,90.0,1.0,64.0
189,74.0,1.0,90.0,4.0,64.0
190,74.0,0.0,60.0,12.0,64.0
191,53.0,2.0,90.0,12.0,64.0
192,53.0,3.0,90.0,15.0,64.0
193,70.0,4.0,60.0,12.0,64.0
194,65.0,11.0,60.0,12.0,64.0
195,41.0,2.0,90.0,11.0,64.0
196,53.0,6.0,90.0,7.0,64.0
197,70.0,135.0,90.0,1.0,64.0
198,70.0,13.0,60.0,13.0,64.0
199,65.0,3.0,150.0,13.0,64.0
200,69.0,31.0,90.0,14.0,64.0
201,53.0,3.0,120.0,15.0,64.0
202,41.0,23.0,180.0,11.0,64.0
203,65.0,0.0,210.0,12.0,64.0
204,69.0,20.0,300.0,12.0,64.0
205,72.0,17.0,270.0,12.0,64.0
206,53.0,18.0,210.0,12.0,64.0
207,69.0,25.0,90.0,4.0,64.0
208,53.0,23.0,180.0,7.0,64.0
209,65.0,31.0,120.0,1.0,64.0
210,64.0,4.0,90.0,13.0,64.0
211,64.0,38.0,120.0,1.0,64.0
212,65.0,7.0,120.0,14.0,64.0
213,65.0,8.0,90.0,13.0,64.0
214,65.0,47.0,120.0,4.0,64.0
215,53.0,5.0,90.0,11.0,64.0
216,65.0,12.0,60.0,15.0,64.0
217,65.0,3.0,90.0,7.0,64.0
218,65.0,6.0,90.0,1.0,64.0
219,65.0,3.0,90.0,12.0,64.0
220,67.0,28.0,60.0,13.0,64.0
221,52.0,20.0,120.0,11.0,64.0
222,64.0,11.0,60.0,15.0,64.0
223,64.0,27.0,90.0,7.0,64.0
224,67.0,10.0,90.0,1.0,64.0
225,64.0,43.0,120.0,12.0,64.0
226,65.0,7.0,60.0,13.0,64.0
227,65.0,9.0,90.0,15.0,64.0
228,53.0,2.0,90.0,11.0,64.0
229,65.0,67.0,90.0,1.0,64.0
230,65.0,13.0,60.0,12.0,64.0
231,65.0,1.0,90.0,7.0,64.0
232,72.0,27.0,60.0,13.0,64.0
233,72.0,119.0,60.0,1.0,64.0
234,65.0,8.0,60.0,13.0,64.0
235,65.0,4.0,90.0,1.0,64.0
236,41.0,0.0,90.0,11.0,64.0
237,53.0,11.0,90.0,15.0,64.0
238,70.0,5.0,90.0,14.0,64.0
239,64.0,1.0,90.0,12.0,64.0
240,53.0,3.0,90.0,12.0,64.0
241,70.0,1.0,90.0,12.0,64.0
242,67.0,1.0,60.0,12.0,64.0
243,70.0,3.0,90.0,4.0,64.0
244,53.0,51.0,90.0,7.0,64.0
245,74.0,176.0,90.0,1.0,64.0
246,74.0,24.0,60.0,13.0,64.0
247,65.0,9.0,120.0,13.0,64.0
248,69.0,8.0,120.0,14.0,64.0
249,41.0,1.0,180.0,11.0,64.0
250,69.0,4.0,120.0,4.0,64.0
251,53.0,50.0,180.0,7.0,64.0
252,53.0,17.0,150.0,15.0,64.0
253,65.0,1.0,210.0,12.0,64.0
254,65.0,17.0,120.0,1.0,64.0
255,53.0,60.0,240.0,12.0,64.0
256,69.0,11.0,390.0,12.0,64.0
257,72.0,4.0,360.0,12.0,64.0
258,64.0,25.0,120.0,13.0,64.0
259,64.0,2.0,90.0,1.0,64.0
260,65.0,17.0,90.0,13.0,64.0
261,65.0,3.0,120.0,14.0,64.0
262,65.0,34.0,120.0,4.0,64.0
263,65.0,6.0,90.0,1.0,64.0
264,65.0,7.0,90.0,15.0,64.0
265,53.0,0.0,90.0,11.0,64.0
266,65.0,9.0,90.0,7.0,64.0
267,65.0,1.0,90.0,12.0,64.0
268,52.0,63.0,150.0,11.0,64.0
269,67.0,25.0,60.0,13.0,64.0
270,64.0,23.0,120.0,15.0,64.0
271,67.0,25.0,60.0,1.0,64.0
272,64.0,12.0,90.0,7.0,64.0
273,64.0,5.0,90.0,12.0,64.0
274,65.0,6.0,90.0,15.0,64.0
275,65.0,1.0,90.0,13.0,64.0
276,65.0,53.0,120.0,1.0,64.0
277,65.0,10.0,90.0,7.0,64.0
278,53.0,4.0,90.0,11.0,64.0
279,65.0,4.0,60.0,12.0,64.0
280,75.0,49.0,60.0,13.0,64.0
281,75.0,90.0,90.0,1.0,64.0
282,65.0,10.0,60.0,13.0,64.0
283,65.0,3.0,90.0,1.0,64.0
284,45.0,5.0,60.0,11.0,64.0
285,72.0,2.0,60.0,14.0,64.0
286,57.0,4.0,90.0,15.0,64.0
287,72.0,12.0,90.0,4.0,64.0
288,65.0,3.0,60.0,12.0,64.0
289,72.0,0.0,60.0,12.0,64.0
290,57.0,63.0,90.0,7.0,64.0
291,57.0,8.0,60.0,12.0,64.0
292,77.0,208.0,90.0,1.0,64.0
293,77.0,20.0,60.0,13.0,64.0
294,74.0,12.0,240.0,13.0,64.0
295,74.0,1.0,210.0,1.0,64.0
296,65.0,8.0,210.0,4.0,64.0
297,58.0,14.0,210.0,15.0,64.0
298,65.0,38.0,150.0,14.0,64.0
299,46.0,3.0,180.0,11.0,64.0
300,58.0,4.0,180.0,7.0,64.0
301,65.0,7.0,240.0,12.0,64.0
302,70.0,84.0,240.0,12.0,64.0
303,58.0,1.0,210.0,12.0,64.0
304,43.0,9.0,90.0,11.0,64.0
305,63.0,0.0,90.0,14.0,64.0
306,55.0,70.0,120.0,7.0,64.0
307,72.0,10.0,90.0,13.0,64.0
308,55.0,2.0,120.0,15.0,64.0
309,63.0,4.0,90.0,4.0,64.0
310,72.0,16.0,90.0,12.0,64.0
311,72.0,0.0,90.0,1.0,64.0
312,55.0,0.0,90.0,12.0,64.0
313,70.0,21.0,90.0,13.0,64.0
314,62.0,14.0,90.0,14.0,64.0
315,62.0,4.0,90.0,4.0,64.0
316,70.0,0.0,90.0,1.0,64.0
317,74.0,93.0,90.0,12.0,64.0
318,72.0,11.0,180.0,13.0,64.0
319,63.0,18.0,180.0,14.0,64.0
320,72.0,1.0,210.0,1.0,64.0
321,39.0,2.0,90.0,11.0,64.0
322,51.0,61.0,120.0,7.0,64.0
323,63.0,16.0,180.0,4.0,64.0
324,51.0,1.0,90.0,15.0,64.0
325,75.0,10.0,90.0,12.0,64.0
326,67.0,108.0,210.0,12.0,64.0
327,51.0,12.0,90.0,12.0,64.0
328,70.0,2.0,90.0,13.0,64.0
329,53.0,4.0,120.0,7.0,64.0
330,41.0,5.0,90.0,11.0,64.0
331,53.0,2.0,90.0,15.0,64.0
332,65.0,3.0,120.0,12.0,64.0
333,62.0,3.0,120.0,14.0,64.0
334,69.0,63.0,120.0,12.0,64.0
335,62.0,0.0,90.0,4.0,64.0
336,70.0,18.0,90.0,1.0,64.0
337,53.0,7.0,90.0,12.0,64.0
338,69.0,8.0,60.0,13.0,64.0
339,63.0,3.0,90.0,12.0,64.0
340,69.0,176.0,90.0,1.0,64.0
341,60.0,0.0,90.0,4.0,64.0
342,60.0,11.0,90.0,14.0,64.0
343,70.0,33.0,180.0,13.0,64.0
344,58.0,12.0,210.0,4.0,64.0
345,70.0,1.0,210.0,1.0,64.0
346,43.0,10.0,180.0,11.0,64.0
347,55.0,18.0,210.0,7.0,64.0
348,55.0,2.0,210.0,15.0,64.0
349,70.0,8.0,240.0,12.0,64.0
350,55.0,79.0,240.0,12.0,64.0
351,62.0,6.0,240.0,12.0,64.0
352,58.0,16.0,120.0,14.0,64.0
353,70.0,5.0,90.0,4.0,64.0
354,69.0,3.0,90.0,13.0,64.0
355,70.0,98.0,120.0,14.0,64.0
356,53.0,1.0,90.0,7.0,64.0
357,69.0,1.0,90.0,1.0,64.0
358,41.0,0.0,90.0,11.0,64.0
359,53.0,1.0,90.0,15.0,64.0
360,53.0,9.0,90.0,12.0,64.0
361,67.0,1.0,120.0,13.0,64.0
362,51.0,1.0,90.0,7.0,64.0
363,67.0,14.0,90.0,1.0,64.0
364,51.0,1.0,90.0,15.0,64.0
365,39.0,88.0,90.0,11.0,64.0
366,51.0,2.0,90.0,12.0,64.0
367,65.0,21.0,90.0,13.0,64.0
368,70.0,11.0,90.0,4.0,64.0
369,70.0,1.0,120.0,14.0,64.0
370,50.0,9.0,180.0,7.0,64.0
371,50.0,4.0,210.0,12.0,64.0
372,65.0,26.0,90.0,1.0,64.0
373,50.0,43.0,120.0,15.0,64.0
374,38.0,8.0,180.0,11.0,64.0
375,70.0,12.0,60.0,13.0,64.0
376,70.0,94.0,90.0,1.0,64.0
377,65.0,17.0,60.0,13.0,64.0
378,58.0,9.0,120.0,14.0,64.0
379,58.0,2.0,90.0,4.0,64.0
380,63.0,3.0,120.0,12.0,64.0
381,70.0,10.0,90.0,12.0,64.0
382,48.0,36.0,120.0,15.0,64.0
383,48.0,2.0,90.0,7.0,64.0
384,65.0,2.0,60.0,1.0,64.0
385,36.0,5.0,120.0,11.0,64.0
386,48.0,8.0,90.0,12.0,64.0
387,62.0,5.0,90.0,12.0,64.0
388,70.0,22.0,60.0,13.0,64.0
389,70.0,17.0,60.0,1.0,64.0
390,46.0,200.0,90.0,7.0,64.0
391,34.0,1.0,90.0,11.0,64.0
392,46.0,1.0,90.0,12.0,64.0
393,46.0,3.0,60.0,15.0,64.0
394,67.0,9.0,210.0,13.0,64.0
395,58.0,4.0,180.0,14.0,64.0
396,51.0,1.0,180.0,7.0,64.0
397,58.0,1.0,180.0,4.0,64.0
398,67.0,25.0,210.0,1.0,64.0
399,51.0,18.0,240.0,12.0,64.0
400,39.0,20.0,180.0,11.0,64.0
401,51.0,6.0,180.0,15.0,64.0
402,70.0,60.0,240.0,12.0,64.0
403,63.0,9.0,240.0,12.0,64.0
404,65.0,8.0,90.0,13.0,64.0
405,70.0,1.0,90.0,4.0,64.0
406,70.0,2.0,90.0,14.0,64.0
407,38.0,1.0,90.0,11.0,64.0
408,50.0,5.0,90.0,15.0,64.0
409,50.0,3.0,90.0,7.0,64.0
410,65.0,5.0,90.0,1.0,64.0
411,50.0,102.0,90.0,12.0,64.0
412,63.0,0.0,120.0,13.0,64.0
413,48.0,0.0,90.0,15.0,64.0
414,48.0,2.0,90.0,7.0,64.0
415,36.0,99.0,90.0,11.0,64.0
416,63.0,8.0,90.0,1.0,64.0
417,48.0,0.0,90.0,12.0,64.0
418,62.0,21.0,90.0,13.0,64.0
419,46.0,25.0,180.0,7.0,64.0
420,46.0,19.0,180.0,15.0,64.0
421,62.0,2.0,120.0,1.0,64.0
422,34.0,9.0,150.0,11.0,64.0
423,70.0,2.0,90.0,4.0,64.0
424,70.0,10.0,90.0,14.0,64.0
425,46.0,35.0,120.0,12.0,64.0
426,70.0,6.0,60.0,13.0,64.0
427,70.0,82.0,60.0,1.0,64.0
428,62.0,13.0,60.0,13.0,64.0
429,58.0,10.0,120.0,14.0,64.0
430,58.0,37.0,120.0,4.0,64.0
431,62.0,0.0,90.0,1.0,64.0
432,70.0,16.0,60.0,12.0,64.0
433,46.0,7.0,90.0,11.0,64.0
434,65.0,3.0,60.0,12.0,64.0
435,58.0,7.0,90.0,7.0,64.0
436,62.0,7.0,60.0,12.0,64.0
437,58.0,1.0,90.0,12.0,64.0
438,58.0,1.0,90.0,15.0,64.0
439,70.0,31.0,60.0,13.0,64.0
440,57.0,4.0,90.0,15.0,64.0
441,70.0,19.0,60.0,1.0,64.0
442,45.0,2.0,90.0,11.0,64.0
443,57.0,2.0,90.0,12.0,64.0
444,57.0,196.0,90.0,7.0,64.0
445,63.0,1.0,210.0,1.0,64.0
446,63.0,5.0,210.0,13.0,64.0
447,55.0,112.0,210.0,7.0,64.0
448,55.0,2.0,210.0,12.0,64.0
449,58.0,4.0,210.0,4.0,64.0
450,55.0,9.0,180.0,15.0,64.0
451,58.0,14.0,180.0,14.0,64.0
452,70.0,0.0,360.0,12.0,64.0
453,63.0,41.0,360.0,12.0,64.0
454,43.0,8.0,180.0,11.0,64.0
455,62.0,1.0,90.0,13.0,64.0
456,70.0,2.0,90.0,14.0,64.0
457,41.0,9.0,90.0,11.0,64.0
458,53.0,5.0,90.0,12.0,64.0
459,53.0,4.0,90.0,15.0,64.0
460,53.0,1.0,90.0,7.0,64.0
461,70.0,15.0,120.0,4.0,64.0
462,62.0,19.0,90.0,1.0,64.0
463,60.0,10.0,60.0,13.0,64.0
464,60.0,22.0,90.0,1.0,64.0
465,39.0,3.0,90.0,11.0,64.0
466,51.0,16.0,120.0,12.0,64.0
467,51.0,69.0,120.0,15.0,64.0
468,51.0,12.0,90.0,7.0,64.0
469,58.0,2.0,90.0,1.0,64.0
470,58.0,21.0,90.0,13.0,64.0
471,50.0,3.0,120.0,7.0,64.0
472,38.0,6.0,90.0,11.0,64.0
473,70.0,4.0,120.0,14.0,64.0
474,50.0,59.0,120.0,15.0,64.0
475,50.0,11.0,90.0,12.0,64.0
476,70.0,12.0,120.0,4.0,64.0
477,70.0,0.0,60.0,13.0,64.0
478,70.0,115.0,60.0,1.0,64.0
479,60.0,14.0,60.0,13.0,64.0
480,60.0,3.0,120.0,1.0,64.0
481,52.0,2.0,90.0,15.0,64.0
482,58.0,0.0,90.0,14.0,64.0
483,70.0,65.0,120.0,12.0,64.0
484,58.0,1.0,90.0,4.0,64.0
485,40.0,5.0,90.0,11.0,64.0
486,52.0,8.0,90.0,7.0,64.0
487,52.0,14.0,60.0,12.0,64.0
488,70.0,28.0,60.0,13.0,64.0
489,70.0,21.0,90.0,1.0,64.0
490,72.0,85.0,90.0,12.0,64.0
491,62.0,37.0,60.0,13.0,64.0
492,58.0,5.0,150.0,14.0,64.0
493,58.0,14.0,210.0,4.0,64.0
494,53.0,29.0,150.0,15.0,64.0
495,65.0,2.0,210.0,12.0,64.0
496,53.0,18.0,210.0,12.0,64.0
497,41.0,4.0,180.0,11.0,64.0
498,62.0,29.0,90.0,1.0,64.0
499,74.0,10.0,330.0,12.0,64.0
500,70.0,58.0,210.0,12.0,64.0
501,53.0,8.0,150.0,7.0,64.0
502,70.0,5.0,60.0,13.0,64.0
503,70.0,10.0,60.0,1.0,64.0
504,64.0,27.0,60.0,13.0,64.0
505,64.0,13.0,90.0,1.0,64.0
506,70.0,3.0,120.0,14.0,64.0
507,29.0,5.0,120.0,11.0,64.0
508,70.0,3.0,120.0,4.0,64.0
509,41.0,53.0,120.0,15.0,64.0
510,41.0,0.0,90.0,7.0,64.0
511,41.0,13.0,60.0,12.0,64.0
512,64.0,43.0,180.0,12.0,64.0
513,72.0,11.0,90.0,12.0,64.0
514,70.0,13.0,60.0,13.0,64.0
515,70.0,4.0,60.0,1.0,64.0
516,70.0,77.0,60.0,12.0,64.0
517,72.0,5.0,120.0,12.0,64.0
518,69.0,10.0,90.0,14.0,64.0
519,65.0,1.0,120.0,1.0,64.0
520,69.0,2.0,120.0,4.0,64.0
521,65.0,4.0,90.0,13.0,64.0
522,65.0,8.0,120.0,12.0,64.0
523,41.0,1.0,90.0,15.0,64.0
524,29.0,40.0,120.0,11.0,64.0
525,41.0,14.0,90.0,7.0,64.0
526,41.0,5.0,90.0,12.0,64.0
527,69.0,126.0,60.0,1.0,64.0
528,69.0,12.0,60.0,13.0,64.0
529,65.0,3.0,90.0,1.0,64.0
530,70.0,4.0,90.0,14.0,64.0
531,65.0,13.0,60.0,13.0,64.0
532,41.0,10.0,120.0,11.0,64.0
533,70.0,5.0,120.0,4.0,64.0
534,53.0,7.0,90.0,12.0,64.0
535,70.0,20.0,150.0,12.0,64.0
536,60.0,11.0,120.0,12.0,64.0
537,65.0,22.0,120.0,12.0,64.0
538,53.0,11.0,90.0,7.0,64.0
539,53.0,4.0,120.0,15.0,64.0
540,43.0,20.0,90.0,11.0,64.0
541,70.0,3.0,90.0,1.0,64.0
542,64.0,103.0,120.0,12.0,64.0
543,70.0,7.0,60.0,13.0,64.0
544,55.0,8.0,90.0,12.0,64.0
545,55.0,7.0,90.0,7.0,64.0
546,55.0,0.0,90.0,15.0,64.0
547,72.0,1.0,90.0,14.0,64.0
548,65.0,14.0,90.0,1.0,64.0
549,65.0,4.0,90.0,13.0,64.0
550,72.0,17.0,120.0,4.0,64.0
551,57.0,5.0,210.0,12.0,64.0
552,57.0,30.0,120.0,15.0,64.0
553,45.0,6.0,150.0,11.0,64.0
554,57.0,10.0,150.0,7.0,64.0
555,60.0,10.0,210.0,12.0,64.0
556,65.0,2.0,210.0,12.0,64.0
557,69.0,86.0,210.0,12.0,64.0
558,72.0,24.0,60.0,1.0,64.0
559,72.0,20.0,60.0,13.0,64.0
560,74.0,6.0,90.0,14.0,64.0
561,65.0,20.0,90.0,1.0,64.0
562,65.0,2.0,90.0,13.0,64.0
563,74.0,1.0,120.0,4.0,64.0
564,46.0,6.0,120.0,11.0,64.0
565,58.0,6.0,120.0,15.0,64.0
566,58.0,43.0,120.0,7.0,64.0
567,58.0,5.0,120.0,12.0,64.0
568,74.0,131.0,90.0,1.0,64.0
569,74.0,25.0,60.0,13.0,64.0
570,75.0,4.0,90.0,14.0,64.0
571,75.0,22.0,120.0,4.0,64.0
572,65.0,16.0,90.0,1.0,64.0
573,65.0,4.0,90.0,13.0,64.0
574,60.0,44.0,150.0,15.0,64.0
575,60.0,6.0,120.0,7.0,64.0
576,48.0,6.0,120.0,11.0,64.0
577,60.0,6.0,120.0,12.0,64.0
578,75.0,114.0,90.0,1.0,64.0
579,75.0,2.0,60.0,13.0,64.0
580,77.0,2.0,90.0,14.0,64.0
581,77.0,58.0,120.0,4.0,64.0
582,65.0,10.0,90.0,1.0,64.0
583,45.0,2.0,90.0,11.0,64.0
584,57.0,22.0,120.0,15.0,64.0
585,65.0,3.0,60.0,13.0,64.0
586,65.0,4.0,60.0,12.0,64.0
587,72.0,8.0,60.0,12.0,64.0
588,57.0,10.0,90.0,7.0,64.0
589,57.0,2.0,90.0,12.0,64.0
590,77.0,2.0,90.0,1.0,64.0
591,77.0,203.0,60.0,13.0,64.0
592,74.0,6.0,180.0,14.0,64.0
593,74.0,6.0,210.0,1.0,64.0
594,74.0,11.0,210.0,4.0,64.0
595,58.0,9.0,180.0,7.0,64.0
596,46.0,2.0,210.0,11.0,64.0
597,58.0,9.0,210.0,15.0,64.0
598,74.0,13.0,180.0,13.0,64.0
599,74.0,18.0,150.0,12.0,64.0
600,65.0,74.0,240.0,12.0,64.0
601,58.0,23.0,210.0,12.0,64.0
602,72.0,10.0,90.0,14.0,64.0
603,63.0,2.0,120.0,7.0,64.0
604,72.0,2.0,90.0,13.0,64.0
605,63.0,0.0,90.0,15.0,64.0
606,51.0,3.0,90.0,11.0,64.0
607,70.0,86.0,90.0,12.0,64.0
608,72.0,2.0,90.0,4.0,64.0
609,72.0,5.0,90.0,1.0,64.0
610,67.0,2.0,90.0,12.0,64.0
611,63.0,0.0,90.0,12.0,64.0
612,70.0,111.0,120.0,13.0,64.0
613,70.0,11.0,90.0,1.0,64.0
614,70.0,4.0,90.0,14.0,64.0
615,70.0,10.0,90.0,4.0,64.0
616,65.0,173.0,120.0,13.0,64.0
617,65.0,0.0,90.0,14.0,64.0
618,65.0,2.0,90.0,15.0,64.0
619,65.0,2.0,90.0,1.0,64.0
620,65.0,14.0,120.0,7.0,64.0
621,65.0,0.0,90.0,4.0,64.0
622,53.0,13.0,90.0,11.0,64.0
623,70.0,1.0,90.0,12.0,64.0
624,65.0,0.0,90.0,12.0,64.0
625,69.0,20.0,60.0,14.0,64.0
626,69.0,0.0,120.0,13.0,64.0
627,69.0,1.0,90.0,4.0,64.0
628,69.0,4.0,90.0,1.0,64.0
629,53.0,325.0,90.0,15.0,64.0
630,53.0,0.0,90.0,7.0,64.0
631,41.0,7.0,60.0,11.0,64.0
632,69.0,2.0,90.0,12.0,64.0
633,63.0,0.0,90.0,12.0,64.0
634,60.0,9.0,90.0,12.0,64.0
635,53.0,4.0,90.0,12.0,64.0
636,70.0,7.0,240.0,4.0,64.0
637,70.0,23.0,180.0,14.0,64.0
638,70.0,27.0,240.0,13.0,64.0
639,58.0,25.0,210.0,7.0,64.0
640,58.0,0.0,210.0,15.0,64.0
641,46.0,6.0,210.0,11.0,64.0
642,70.0,1.0,210.0,1.0,64.0
643,58.0,44.0,270.0,12.0,64.0
644,70.0,0.0,270.0,12.0,64.0
645,69.0,6.0,90.0,14.0,64.0
646,69.0,4.0,90.0,4.0,64.0
647,69.0,1.0,90.0,1.0,64.0
648,69.0,95.0,90.0,13.0,64.0
649,57.0,4.0,60.0,7.0,64.0
650,45.0,4.0,60.0,11.0,64.0
651,57.0,3.0,90.0,15.0,64.0
652,69.0,8.0,60.0,12.0,64.0
653,57.0,0.0,60.0,12.0,64.0
654,67.0,1.0,90.0,14.0,64.0
655,67.0,1.0,90.0,4.0,64.0
656,67.0,1.0,90.0,13.0,64.0
657,67.0,7.0,90.0,1.0,64.0
658,55.0,2.0,90.0,7.0,64.0
659,55.0,1.0,90.0,15.0,64.0
660,43.0,2.0,90.0,11.0,64.0
661,67.0,0.0,90.0,12.0,64.0
662,55.0,102.0,90.0,12.0,64.0
663,65.0,1.0,90.0,14.0,64.0
664,65.0,3.0,90.0,1.0,64.0
665,65.0,0.0,90.0,13.0,64.0
666,53.0,6.0,90.0,15.0,64.0
667,53.0,5.0,90.0,7.0,64.0
668,65.0,76.0,90.0,4.0,64.0
669,53.0,6.0,90.0,12.0,64.0
670,41.0,1.0,60.0,11.0,64.0
671,65.0,0.0,90.0,12.0,64.0
672,63.0,17.0,60.0,1.0,64.0
673,63.0,71.0,120.0,14.0,64.0
674,63.0,0.0,90.0,4.0,64.0
675,63.0,2.0,90.0,13.0,64.0
676,63.0,9.0,90.0,12.0,64.0
677,51.0,0.0,90.0,12.0,64.0
678,51.0,4.0,90.0,15.0,64.0
679,51.0,7.0,90.0,7.0,64.0
680,39.0,0.0,60.0,11.0,64.0
681,62.0,23.0,60.0,1.0,64.0
682,62.0,3.0,90.0,4.0,64.0
683,62.0,3.0,90.0,14.0,64.0
684,50.0,0.0,90.0,15.0,64.0
685,50.0,0.0,90.0,12.0,64.0
686,62.0,2.0,90.0,12.0,64.0
687,62.0,7.0,90.0,13.0,64.0
688,50.0,1.0,90.0,7.0,64.0
689,38.0,73.0,90.0,11.0,64.0
690,60.0,12.0,60.0,1.0,64.0
691,60.0,10.0,60.0,4.0,64.0
692,60.0,15.0,90.0,14.0,64.0
693,60.0,10.0,90.0,12.0,64.0
694,48.0,0.0,90.0,12.0,64.0
695,48.0,173.0,120.0,7.0,64.0
696,60.0,10.0,60.0,13.0,64.0
697,48.0,3.0,90.0,15.0,64.0
698,36.0,0.0,90.0,11.0,64.0
699,62.0,6.0,180.0,4.0,64.0
700,62.0,32.0,150.0,14.0,64.0
701,62.0,0.0,240.0,12.0,64.0
702,50.0,77.0,240.0,12.0,64.0
703,62.0,24.0,240.0,1.0,64.0
704,50.0,10.0,210.0,7.0,64.0
705,62.0,0.0,180.0,13.0,64.0
706,50.0,5.0,180.0,15.0,64.0
707,38.0,19.0,210.0,11.0,64.0
708,60.0,1.0,90.0,14.0,64.0
709,60.0,2.0,90.0,4.0,64.0
710,48.0,4.0,90.0,15.0,64.0
711,48.0,2.0,90.0,7.0,64.0
712,36.0,2.0,90.0,11.0,64.0
713,60.0,5.0,90.0,13.0,64.0
714,48.0,5.0,60.0,12.0,64.0
715,60.0,0.0,60.0,12.0,64.0
716,60.0,89.0,90.0,1.0,64.0
717,58.0,4.0,90.0,4.0,64.0
718,58.0,2.0,90.0,1.0,64.0
719,58.0,4.0,90.0,14.0,64.0
720,46.0,2.0,90.0,12.0,64.0
721,58.0,0.0,90.0,12.0,64.0
722,46.0,8.0,90.0,7.0,64.0
723,46.0,6.0,90.0,15.0,64.0
724,58.0,1.0,120.0,13.0,64.0
725,34.0,84.0,90.0,11.0,64.0
726,53.0,3.0,90.0,12.0,64.0
727,65.0,0.0,90.0,12.0,64.0
728,65.0,8.0,90.0,1.0,64.0
729,41.0,190.0,120.0,11.0,64.0
730,53.0,2.0,90.0,15.0,64.0
731,65.0,15.0,90.0,4.0,64.0
732,65.0,6.0,60.0,14.0,64.0
733,65.0,3.0,60.0,13.0,64.0
734,53.0,4.0,90.0,7.0,64.0
735,41.0,2.0,90.0,12.0,64.0
736,53.0,0.0,90.0,12.0,64.0
737,53.0,0.0,90.0,14.0,64.0
738,41.0,347.0,90.0,7.0,64.0
739,65.0,8.0,60.0,13.0,64.0
740,53.0,6.0,90.0,4.0,64.0
741,41.0,7.0,60.0,15.0,64.0
742,29.0,5.0,90.0,11.0,64.0
743,65.0,9.0,60.0,1.0,64.0
744,46.0,1.0,480.0,7.0,64.0
745,58.0,87.0,210.0,4.0,64.0
746,58.0,35.0,510.0,13.0,64.0
747,46.0,17.0,480.0,15.0,64.0
748,34.0,1.0,480.0,11.0,64.0
749,58.0,14.0,210.0,14.0,64.0
750,46.0,198.0,540.0,12.0,64.0
751,58.0,0.0,540.0,12.0,64.0
752,58.0,130.0,330.0,1.0,64.0
753,65.0,29.0,90.0,14.0,64.0
754,65.0,22.0,60.0,4.0,64.0
755,70.0,37.0,240.0,14.0,64.0
756,70.0,1.0,240.0,4.0,64.0
757,58.0,3.0,60.0,12.0,64.0
758,65.0,9.0,60.0,12.0,64.0
759,62.0,4.0,60.0,12.0,64.0
760,82.0,107.0,90.0,1.0,64.0
761,74.0,0.0,90.0,3.0,64.0
762,77.0,5.0,90.0,2.0,64.0
763,53.0,14.0,60.0,15.0,64.0
764,53.0,2.0,60.0,12.0,64.0
765,53.0,3.0,90.0,7.0,64.0
766,41.0,7.0,60.0,11.0,64.0
767,81.0,172.0,90.0,1.0,64.0
768,72.0,1.0,90.0,3.0,64.0
769,75.0,5.0,90.0,2.0,64.0
770,82.0,109.0,180.0,1.0,64.0
771,77.0,1.0,150.0,2.0,64.0
772,74.0,13.0,150.0,3.0,64.0
773,46.0,129.0,510.0,12.0,64.0
774,34.0,31.0,270.0,11.0,64.0
775,46.0,26.0,300.0,7.0,64.0
776,46.0,9.0,240.0,15.0,64.0
777,58.0,2.0,420.0,12.0,64.0
778,62.0,3.0,390.0,12.0,64.0
779,65.0,16.0,360.0,12.0,64.0
780,77.0,1.0,90.0,1.0,64.0
781,70.0,0.0,90.0,3.0,64.0
782,74.0,112.0,90.0,2.0,64.0
783,75.0,1.0,90.0,1.0,64.0
784,69.0,26.0,90.0,3.0,64.0
785,72.0,0.0,90.0,2.0,64.0
786,74.0,5.0,150.0,2.0,64.0
787,77.0,170.0,180.0,1.0,64.0
788,70.0,15.0,150.0,3.0,64.0
789,65.0,75.0,120.0,6.0,64.0
790,74.0,0.0,90.0,4.0,64.0
791,70.0,37.0,90.0,5.0,64.0
792,72.0,1.0,90.0,4.0,64.0
793,69.0,29.0,90.0,5.0,64.0
794,63.0,145.0,120.0,6.0,64.0
795,74.0,186.0,150.0,4.0,64.0
796,70.0,5.0,150.0,5.0,64.0
797,65.0,2.0,150.0,6.0,64.0
798,70.0,34.0,90.0,4.0,64.0
799,65.0,0.0,90.0,5.0,64.0
800,62.0,79.0,120.0,6.0,64.0
801,69.0,0.0,90.0,4.0,64.0
802,63.0,19.0,90.0,5.0,64.0
803,60.0,155.0,120.0,6.0,64.0
804,62.0,1.0,150.0,6.0,64.0
805,65.0,2.0,150.0,5.0,64.0
806,70.0,189.0,150.0,4.0,64.0
807,65.0,0.0,90.0,7.0,64.0
808,62.0,0.0,90.0,8.0,64.0
809,58.0,112.0,90.0,10.0,64.0
810,57.0,1.0,90.0,10.0,64.0
811,60.0,0.0,90.0,8.0,64.0
812,63.0,138.0,90.0,7.0,64.0
813,58.0,21.0,150.0,10.0,64.0
814,58.0,53.0,150.0,8.0,64.0
815,62.0,22.0,120.0,7.0,64.0
816,63.0,111.0,90.0,7.0,64.0
817,34.0,2.0,90.0,11.0,64.0
818,62.0,5.0,90.0,7.0,64.0
819,53.0,10.0,90.0,8.0,64.0
820,46.0,5.0,120.0,15.0,64.0
821,65.0,4.0,180.0,12.0,64.0
822,77.0,4.0,90.0,1.0,64.0
823,77.0,26.0,150.0,13.0,64.0
824,62.0,27.0,120.0,14.0,64.0
825,70.0,20.0,180.0,12.0,64.0
826,62.0,7.0,180.0,12.0,64.0
827,46.0,2.0,90.0,12.0,64.0
828,62.0,13.0,90.0,4.0,64.0
829,36.0,4.0,90.0,11.0,64.0
830,60.0,7.0,60.0,7.0,64.0
831,48.0,2.0,120.0,15.0,64.0
832,48.0,71.0,120.0,12.0,64.0
833,63.0,6.0,120.0,14.0,64.0
834,63.0,18.0,90.0,4.0,64.0
835,58.0,5.0,120.0,7.0,64.0
836,38.0,1.0,90.0,11.0,64.0
837,50.0,11.0,120.0,15.0,64.0
838,65.0,85.0,120.0,4.0,64.0
839,65.0,3.0,90.0,14.0,64.0
840,50.0,0.0,60.0,12.0,64.0
841,82.0,13.0,90.0,1.0,64.0
842,82.0,2.0,90.0,13.0,64.0
843,62.0,10.0,60.0,12.0,64.0
844,65.0,10.0,90.0,12.0,64.0
845,58.0,4.0,60.0,12.0,64.0
846,86.0,18.0,90.0,13.0,64.0
847,86.0,68.0,90.0,1.0,64.0
848,84.0,5.0,90.0,13.0,64.0
849,52.0,2.0,60.0,15.0,64.0
850,40.0,10.0,60.0,11.0,64.0
851,84.0,4.0,90.0,1.0,64.0
852,67.0,1.0,60.0,14.0,64.0
853,52.0,7.0,90.0,7.0,64.0
854,67.0,80.0,90.0,4.0,64.0
855,52.0,12.0,60.0,12.0,64.0
856,60.0,2.0,60.0,12.0,64.0
857,67.0,2.0,60.0,12.0,64.0
858,82.0,13.0,90.0,13.0,64.0
859,82.0,166.0,90.0,1.0,64.0
860,53.0,5.0,210.0,7.0,64.0
861,81.0,29.0,180.0,13.0,64.0
862,53.0,34.0,300.0,15.0,64.0
863,81.0,7.0,120.0,1.0,64.0
864,41.0,34.0,270.0,11.0,64.0
865,60.0,2.0,210.0,14.0,64.0
866,69.0,1.0,480.0,12.0,64.0
867,60.0,92.0,480.0,12.0,64.0
868,53.0,9.0,300.0,12.0,64.0
869,60.0,46.0,120.0,4.0,64.0
870,84.0,44.0,90.0,1.0,64.0
871,77.0,4.0,90.0,1.0,64.0
872,77.0,2.0,90.0,4.0,64.0
873,69.0,76.0,120.0,6.0,64.0
874,72.0,27.0,90.0,5.0,64.0
875,79.0,8.0,90.0,1.0,64.0
876,76.0,2.0,90.0,4.0,64.0
877,70.0,26.0,90.0,5.0,64.0
878,67.0,15.0,120.0,6.0,64.0
879,81.0,41.0,120.0,1.0,64.0
880,77.0,2.0,150.0,4.0,64.0
881,72.0,0.0,150.0,5.0,64.0
882,65.0,62.0,150.0,6.0,64.0
883,82.0,98.0,90.0,1.0,64.0
884,84.0,48.0,90.0,1.0,64.0
885,48.0,1.0,90.0,11.0,64.0
886,60.0,6.0,90.0,7.0,64.0
887,79.0,67.0,150.0,2.0,64.0
888,60.0,2.0,60.0,12.0,64.0
889,76.0,1.0,60.0,3.0,64.0
890,67.0,5.0,60.0,12.0,64.0
891,76.0,5.0,90.0,12.0,64.0
892,60.0,0.0,60.0,15.0,64.0
893,82.0,153.0,90.0,1.0,64.0
894,81.0,4.0,210.0,1.0,64.0
895,77.0,5.0,210.0,3.0,64.0
896,81.0,74.0,120.0,2.0,64.0
897,65.0,15.0,210.0,15.0,64.0
898,65.0,27.0,240.0,7.0,64.0
899,53.0,12.0,180.0,11.0,64.0
900,65.0,72.0,270.0,12.0,64.0
901,69.0,32.0,450.0,12.0,64.0
902,77.0,75.0,480.0,12.0,64.0
903,72.0,5.0,450.0,12.0,64.0
904,84.0,11.0,60.0,2.0,64.0
905,89.0,46.0,150.0,1.0,64.0
906,69.0,2.0,90.0,6.0,64.0
907,77.0,2.0,90.0,4.0,64.0
908,72.0,8.0,90.0,5.0,64.0
909,77.0,35.0,90.0,2.0,64.0
910,79.0,20.0,90.0,2.0,64.0
911,67.0,8.0,90.0,6.0,64.0
912,76.0,1.0,90.0,4.0,64.0
913,70.0,7.0,90.0,5.0,64.0
914,81.0,44.0,120.0,2.0,64.0
915,65.0,7.0,150.0,6.0,64.0
916,72.0,2.0,150.0,5.0,64.0
917,77.0,54.0,150.0,4.0,64.0
918,82.0,91.0,90.0,2.0,64.0
919,84.0,12.0,90.0,2.0,64.0
920,88.0,83.0,120.0,1.0,64.0
921,48.0,7.0,90.0,11.0,64.0
922,60.0,3.0,60.0,15.0,64.0
923,60.0,7.0,90.0,7.0,64.0
924,79.0,15.0,90.0,3.0,64.0
925,60.0,2.0,60.0,12.0,64.0
926,64.0,10.0,60.0,12.0,64.0
927,67.0,4.0,60.0,12.0,64.0
928,82.0,151.0,90.0,2.0,64.0
929,81.0,8.0,150.0,2.0,64.0
930,89.0,57.0,150.0,1.0,64.0
931,65.0,1.0,480.0,12.0,64.0
932,41.0,28.0,270.0,11.0,64.0
933,69.0,75.0,480.0,12.0,64.0
934,60.0,4.0,480.0,12.0,64.0
935,53.0,35.0,240.0,7.0,64.0
936,53.0,6.0,210.0,15.0,64.0
937,81.0,35.0,90.0,3.0,64.0
938,53.0,43.0,270.0,12.0,64.0
939,84.0,10.0,90.0,3.0,64.0
940,84.0,5.0,90.0,1.0,64.0
941,89.0,38.0,150.0,2.0,64.0
942,77.0,2.0,90.0,4.0,64.0
943,77.0,0.0,90.0,3.0,64.0
944,72.0,10.0,90.0,5.0,64.0
945,69.0,48.0,90.0,6.0,64.0
946,79.0,15.0,90.0,3.0,64.0
947,67.0,24.0,120.0,6.0,64.0
948,76.0,2.0,90.0,4.0,64.0
949,70.0,13.0,90.0,5.0,64.0
950,77.0,2.0,90.0,1.0,64.0
951,81.0,56.0,90.0,3.0,64.0
952,65.0,3.0,150.0,6.0,64.0
953,72.0,7.0,150.0,5.0,64.0
954,77.0,53.0,150.0,4.0,64.0
955,82.0,79.0,90.0,3.0,64.0
956,79.0,0.0,90.0,1.0,64.0
957,48.0,13.0,120.0,7.0,64.0
958,72.0,9.0,90.0,4.0,64.0
959,72.0,7.0,90.0,14.0,64.0
960,36.0,1.0,60.0,11.0,64.0
961,88.0,89.0,120.0,2.0,64.0
962,48.0,21.0,30.0,15.0,64.0
963,48.0,1.0,60.0,12.0,64.0
964,84.0,10.0,90.0,3.0,64.0
965,72.0,8.0,60.0,12.0,64.0
966,64.0,1.0,60.0,12.0,64.0
967,67.0,3.0,60.0,12.0,64.0
968,82.0,177.0,90.0,3.0,64.0
969,29.0,14.0,150.0,11.0,64.0
970,41.0,3.0,180.0,7.0,64.0
971,89.0,12.0,180.0,2.0,64.0
972,72.0,7.0,210.0,4.0,64.0
973,81.0,6.0,210.0,13.0,64.0
974,53.0,45.0,240.0,12.0,64.0
975,81.0,7.0,210.0,1.0,64.0
976,72.0,7.0,180.0,14.0,64.0
977,69.0,5.0,210.0,12.0,64.0
978,41.0,25.0,180.0,15.0,64.0
979,65.0,3.0,270.0,12.0,64.0
980,60.0,43.0,270.0,12.0,64.0
981,50.0,13.0,90.0,15.0,64.0
982,50.0,70.0,120.0,7.0,64.0
983,79.0,4.0,90.0,13.0,64.0
984,38.0,1.0,90.0,11.0,64.0
985,50.0,7.0,180.0,12.0,64.0
986,79.0,1.0,90.0,1.0,64.0
987,67.0,0.0,120.0,12.0,64.0
988,70.0,4.0,90.0,4.0,64.0
989,70.0,10.0,90.0,14.0,64.0
990,77.0,13.0,90.0,13.0,64.0
991,69.0,3.0,60.0,14.0,64.0
992,69.0,0.0,90.0,4.0,64.0
993,77.0,28.0,90.0,1.0,64.0
994,69.0,91.0,120.0,12.0,64.0
995,34.0,20.0,120.0,11.0,64.0
996,46.0,1.0,90.0,15.0,64.0
997,46.0,61.0,120.0,7.0,64.0
998,79.0,3.0,180.0,13.0,64.0
999,70.0,8.0,180.0,14.0,64.0
1000,70.0,78.0,240.0,12.0,64.0
1001,70.0,11.0,180.0,4.0,64.0
1002,79.0,27.0,210.0,1.0,64.0
1003,46.0,15.0,90.0,12.0,64.0
1004,36.0,5.0,90.0,11.0,64.0
1005,48.0,17.0,120.0,7.0,64.0
1006,48.0,9.0,60.0,15.0,64.0
1007,69.0,1.0,90.0,14.0,64.0
1008,77.0,19.0,90.0,1.0,64.0
1009,69.0,0.0,90.0,4.0,64.0
1010,48.0,7.0,60.0,12.0,64.0
1011,77.0,2.0,90.0,13.0,64.0
1012,69.0,67.0,120.0,12.0,64.0
1013,67.0,9.0,90.0,14.0,64.0
1014,76.0,6.0,120.0,13.0,64.0
1015,67.0,1.0,90.0,4.0,64.0
1016,76.0,9.0,90.0,1.0,64.0
1017,67.0,185.0,120.0,12.0,64.0
1018,38.0,4.0,240.0,11.0,64.0
1019,65.0,9.0,180.0,14.0,64.0
1020,77.0,3.0,210.0,13.0,64.0
1021,65.0,16.0,180.0,4.0,64.0
1022,62.0,5.0,450.0,12.0,64.0
1023,50.0,23.0,210.0,7.0,64.0
1024,77.0,7.0,180.0,1.0,64.0
1025,50.0,0.0,210.0,15.0,64.0
1026,50.0,83.0,240.0,12.0,64.0
1027,65.0,4.0,450.0,12.0,64.0
1028,69.0,122.0,450.0,12.0,64.0
1029,76.0,1.0,90.0,13.0,64.0
1030,77.0,71.0,90.0,14.0,64.0
1031,77.0,15.0,60.0,4.0,64.0
1032,48.0,0.0,60.0,15.0,64.0
1033,48.0,1.0,90.0,7.0,64.0
1034,36.0,0.0,60.0,11.0,64.0
1035,76.0,6.0,90.0,1.0,64.0
1036,48.0,6.0,90.0,12.0,64.0
1037,34.0,18.0,90.0,11.0,64.0
1038,74.0,2.0,90.0,13.0,64.0
1039,46.0,11.0,90.0,15.0,64.0
1040,46.0,2.0,90.0,7.0,64.0
1041,74.0,0.0,90.0,1.0,64.0
1042,46.0,2.0,90.0,12.0,64.0
1043,33.0,12.0,180.0,11.0,64.0
1044,77.0,19.0,150.0,14.0,64.0
1045,72.0,3.0,90.0,13.0,64.0
1046,45.0,10.0,180.0,7.0,64.0
1047,72.0,21.0,90.0,1.0,64.0
1048,77.0,19.0,120.0,4.0,64.0
1049,45.0,6.0,180.0,15.0,64.0
1050,45.0,3.0,180.0,12.0,64.0
1051,77.0,7.0,90.0,13.0,64.0
1052,77.0,111.0,90.0,1.0,64.0
1053,72.0,5.0,90.0,1.0,64.0
1054,72.0,3.0,90.0,13.0,64.0
1055,65.0,1.0,90.0,14.0,64.0
1056,31.0,5.0,90.0,11.0,64.0
1057,65.0,75.0,90.0,4.0,64.0
1058,43.0,7.0,90.0,7.0,64.0
1059,43.0,1.0,60.0,15.0,64.0
1060,60.0,7.0,60.0,12.0,64.0
1061,69.0,0.0,60.0,12.0,64.0
1062,43.0,2.0,60.0,12.0,64.0
1063,29.0,17.0,90.0,11.0,64.0
1064,77.0,2.0,90.0,1.0,64.0
1065,77.0,4.0,60.0,13.0,64.0
1066,41.0,7.0,90.0,15.0,64.0
1067,41.0,8.0,90.0,7.0,64.0
1068,41.0,173.0,90.0,12.0,64.0
1069,34.0,5.0,210.0,11.0,64.0
1070,46.0,12.0,210.0,15.0,64.0
1071,74.0,77.0,210.0,1.0,64.0
1072,65.0,22.0,150.0,14.0,64.0
1073,46.0,16.0,180.0,7.0,64.0
1074,65.0,7.0,180.0,4.0,64.0
1075,46.0,7.0,210.0,12.0,64.0
1076,74.0,4.0,210.0,13.0,64.0
1077,62.0,12.0,390.0,12.0,64.0
1078,65.0,4.0,360.0,12.0,64.0
1079,70.0,6.0,390.0,12.0,64.0
1080,33.0,8.0,60.0,11.0,64.0
1081,77.0,3.0,60.0,4.0,64.0
1082,45.0,4.0,60.0,15.0,64.0
1083,77.0,5.0,60.0,14.0,64.0
1084,72.0,2.0,90.0,13.0,64.0
1085,45.0,2.0,90.0,7.0,64.0
1086,72.0,47.0,90.0,1.0,64.0
1087,45.0,14.0,60.0,12.0,64.0
1088,31.0,15.0,60.0,11.0,64.0
1089,43.0,25.0,60.0,15.0,64.0
1090,43.0,2.0,90.0,7.0,64.0
1091,70.0,2.0,90.0,13.0,64.0
1092,70.0,11.0,90.0,1.0,64.0
1093,43.0,82.0,90.0,12.0,64.0
1094,29.0,7.0,150.0,11.0,64.0
1095,77.0,13.0,120.0,4.0,64.0
1096,41.0,2.0,60.0,7.0,64.0
1097,41.0,9.0,60.0,12.0,64.0
1098,60.0,5.0,90.0,12.0,64.0
1099,41.0,17.0,90.0,15.0,64.0
1100,65.0,4.0,90.0,12.0,64.0
1101,69.0,0.0,90.0,12.0,64.0
1102,77.0,48.0,150.0,14.0,64.0
1103,69.0,16.0,90.0,1.0,64.0
1104,69.0,1.0,90.0,13.0,64.0
1105,77.0,2.0,60.0,13.0,64.0
1106,77.0,116.0,60.0,1.0,64.0
1107,72.0,8.0,60.0,12.0,64.0
1108,65.0,5.0,90.0,4.0,64.0
1109,69.0,1.0,90.0,1.0,64.0
1110,69.0,2.0,90.0,12.0,64.0
1111,65.0,2.0,90.0,15.0,64.0
1112,69.0,9.0,90.0,13.0,64.0
1113,53.0,2.0,90.0,11.0,64.0
1114,65.0,4.0,90.0,14.0,64.0
1115,65.0,75.0,90.0,12.0,64.0
1116,65.0,7.0,90.0,7.0,64.0
1117,52.0,6.0,90.0,11.0,64.0
1118,77.0,19.0,90.0,1.0,64.0
1119,64.0,3.0,90.0,15.0,64.0
1120,64.0,167.0,120.0,12.0,64.0
1121,77.0,2.0,60.0,13.0,64.0
1122,64.0,14.0,90.0,7.0,64.0
1123,50.0,19.0,180.0,11.0,64.0
1124,62.0,4.0,150.0,15.0,64.0
1125,62.0,49.0,240.0,12.0,64.0
1126,70.0,44.0,270.0,12.0,64.0
1127,65.0,4.0,270.0,12.0,64.0
1128,62.0,12.0,180.0,7.0,64.0
1129,70.0,11.0,210.0,1.0,64.0
1130,65.0,6.0,150.0,14.0,64.0
1131,65.0,5.0,180.0,4.0,64.0
1132,70.0,16.0,180.0,13.0,64.0
1133,60.0,6.0,120.0,15.0,64.0
1134,48.0,2.0,120.0,11.0,64.0
1135,69.0,2.0,90.0,13.0,64.0
1136,77.0,7.0,90.0,4.0,64.0
1137,77.0,0.0,90.0,14.0,64.0
1138,69.0,54.0,120.0,12.0,64.0
1139,60.0,10.0,90.0,12.0,64.0
1140,60.0,1.0,90.0,7.0,64.0
1141,69.0,11.0,90.0,1.0,64.0
1142,46.0,11.0,90.0,11.0,64.0
1143,58.0,24.0,60.0,15.0,64.0
1144,70.0,78.0,120.0,12.0,64.0
1145,67.0,1.0,90.0,13.0,64.0
1146,58.0,6.0,120.0,12.0,64.0
1147,58.0,2.0,90.0,7.0,64.0
1148,67.0,12.0,90.0,1.0,64.0
1149,45.0,6.0,150.0,11.0,64.0
1150,72.0,13.0,90.0,12.0,64.0
1151,57.0,8.0,150.0,7.0,64.0
1152,57.0,13.0,150.0,15.0,64.0
1153,65.0,2.0,120.0,1.0,64.0
1154,77.0,1.0,90.0,14.0,64.0
1155,77.0,51.0,150.0,4.0,64.0
1156,57.0,8.0,90.0,12.0,64.0
1157,65.0,32.0,90.0,13.0,64.0
1158,77.0,0.0,90.0,13.0,64.0
1159,77.0,107.0,60.0,1.0,64.0
1160,47.0,7.0,90.0,11.0,64.0
1161,59.0,70.0,120.0,7.0,64.0
1162,67.0,6.0,90.0,13.0,64.0
1163,65.0,3.0,90.0,14.0,64.0
1164,65.0,2.0,90.0,4.0,64.0
1165,59.0,1.0,90.0,15.0,64.0
1166,74.0,9.0,60.0,12.0,64.0
1167,65.0,1.0,90.0,12.0,64.0
1168,59.0,8.0,60.0,12.0,64.0
1169,67.0,14.0,90.0,1.0,64.0
1170,77.0,2.0,60.0,13.0,64.0
1171,77.0,122.0,60.0,1.0,64.0
1172,60.0,68.0,240.0,12.0,64.0
1173,65.0,11.0,120.0,4.0,64.0
1174,48.0,3.0,150.0,11.0,64.0
1175,69.0,26.0,60.0,13.0,64.0
1176,60.0,11.0,150.0,7.0,64.0
1177,65.0,26.0,150.0,14.0,64.0
1178,69.0,31.0,90.0,1.0,64.0
1179,60.0,12.0,150.0,15.0,64.0
1180,69.0,13.0,300.0,12.0,64.0
1181,65.0,3.0,210.0,12.0,64.0
1182,77.0,19.0,90.0,13.0,64.0
1183,77.0,15.0,60.0,1.0,64.0
1184,36.0,4.0,120.0,11.0,64.0
1185,71.0,10.0,60.0,13.0,64.0
1186,77.0,3.0,120.0,4.0,64.0
1187,71.0,17.0,90.0,1.0,64.0
1188,77.0,38.0,180.0,14.0,64.0
1189,48.0,2.0,90.0,15.0,64.0
1190,67.0,0.0,120.0,12.0,64.0
1191,48.0,47.0,120.0,7.0,64.0
1192,48.0,10.0,60.0,12.0,64.0
1193,65.0,78.0,120.0,12.0,64.0
1194,77.0,32.0,90.0,13.0,64.0
1195,77.0,6.0,90.0,1.0,64.0
1196,36.0,3.0,120.0,11.0,64.0
1197,76.0,34.0,180.0,4.0,64.0
1198,67.0,15.0,90.0,12.0,64.0
1199,48.0,2.0,120.0,7.0,64.0
1200,76.0,33.0,120.0,14.0,64.0
1201,72.0,14.0,120.0,1.0,64.0
1202,48.0,5.0,90.0,15.0,64.0
1203,48.0,7.0,60.0,12.0,64.0
1204,72.0,7.0,90.0,13.0,64.0
1205,76.0,103.0,90.0,1.0,64.0
1206,76.0,4.0,60.0,13.0,64.0
1207,74.0,61.0,120.0,4.0,64.0
1208,74.0,5.0,90.0,14.0,64.0
1209,60.0,1.0,90.0,15.0,64.0
1210,72.0,0.0,90.0,1.0,64.0
1211,67.0,20.0,60.0,12.0,64.0
1212,72.0,3.0,90.0,13.0,64.0
1213,65.0,11.0,60.0,12.0,64.0
1214,60.0,0.0,90.0,7.0,64.0
1215,60.0,0.0,90.0,12.0,64.0
1216,48.0,24.0,90.0,11.0,64.0
1217,50.0,1.0,90.0,11.0,64.0
1218,62.0,123.0,90.0,12.0,64.0
1219,62.0,4.0,90.0,7.0,64.0
1220,62.0,8.0,60.0,15.0,64.0
1221,77.0,2.0,90.0,1.0,64.0
1222,77.0,8.0,90.0,13.0,64.0
1223,52.0,9.0,180.0,11.0,64.0
1224,64.0,5.0,180.0,7.0,64.0
1225,64.0,8.0,150.0,15.0,64.0
1226,72.0,29.0,120.0,1.0,64.0
1227,72.0,17.0,90.0,13.0,64.0
1228,72.0,19.0,180.0,14.0,64.0
1229,64.0,42.0,210.0,12.0,64.0
1230,72.0,11.0,150.0,4.0,64.0
1231,67.0,11.0,270.0,12.0,64.0
1232,72.0,53.0,270.0,12.0,64.0
1233,79.0,25.0,90.0,1.0,64.0
1234,79.0,1.0,90.0,13.0,64.0
1235,65.0,5.0,90.0,15.0,64.0
1236,53.0,1.0,90.0,11.0,64.0
1237,65.0,16.0,120.0,7.0,64.0
1238,72.0,8.0,120.0,1.0,64.0
1239,65.0,6.0,90.0,14.0,64.0
1240,72.0,11.0,90.0,13.0,64.0
1241,65.0,57.0,120.0,4.0,64.0
1242,65.0,2.0,120.0,12.0,64.0
1243,81.0,1.0,90.0,1.0,64.0
1244,81.0,135.0,60.0,13.0,64.0
1245,55.0,1.0,120.0,11.0,64.0
1246,72.0,6.0,120.0,1.0,64.0
1247,67.0,1.0,90.0,15.0,64.0
1248,64.0,4.0,90.0,14.0,64.0
1249,72.0,4.0,90.0,13.0,64.0
1250,67.0,20.0,120.0,7.0,64.0
1251,64.0,40.0,150.0,4.0,64.0
1252,67.0,21.0,90.0,12.0,64.0
1253,82.0,9.0,90.0,1.0,64.0
1254,82.0,103.0,60.0,13.0,64.0
1255,72.0,2.0,90.0,1.0,64.0
1256,72.0,20.0,90.0,13.0,64.0
1257,52.0,1.0,90.0,11.0,64.0
1258,64.0,1.0,90.0,15.0,64.0
1259,64.0,61.0,120.0,7.0,64.0
1260,67.0,4.0,90.0,4.0,64.0
1261,67.0,1.0,90.0,14.0,64.0
1262,72.0,3.0,60.0,12.0,64.0
1263,67.0,16.0,60.0,12.0,64.0
1264,64.0,13.0,60.0,12.0,64.0
1265,84.0,18.0,90.0,1.0,64.0
1266,84.0,187.0,90.0,13.0,64.0
1267,81.0,3.0,180.0,13.0,64.0
1268,69.0,15.0,240.0,12.0,64.0
1269,81.0,18.0,210.0,1.0,64.0
1270,72.0,58.0,240.0,12.0,64.0
1271,65.0,3.0,210.0,12.0,64.0
1272,65.0,16.0,210.0,4.0,64.0
1273,53.0,2.0,150.0,11.0,64.0
1274,65.0,25.0,150.0,7.0,64.0
1275,65.0,19.0,150.0,15.0,64.0
1276,65.0,13.0,180.0,14.0,64.0
1277,58.0,0.0,90.0,15.0,64.0
1278,79.0,9.0,90.0,13.0,64.0
1279,74.0,1.0,90.0,12.0,64.0
1280,58.0,2.0,90.0,7.0,64.0
1281,70.0,65.0,120.0,12.0,64.0
1282,65.0,21.0,120.0,12.0,64.0
1283,58.0,13.0,60.0,12.0,64.0
1284,46.0,0.0,90.0,11.0,64.0
1285,67.0,1.0,90.0,4.0,64.0
1286,79.0,8.0,90.0,1.0,64.0
1287,67.0,1.0,90.0,14.0,64.0
1288,77.0,4.0,120.0,13.0,64.0
1289,69.0,14.0,90.0,12.0,64.0
1290,69.0,0.0,90.0,4.0,64.0
1291,77.0,11.0,90.0,1.0,64.0
1292,69.0,74.0,120.0,14.0,64.0
1293,72.0,4.0,90.0,1.0,64.0
1294,67.0,28.0,120.0,4.0,64.0
1295,67.0,175.0,150.0,14.0,64.0
1296,72.0,1.0,90.0,13.0,64.0
1297,60.0,1.0,60.0,15.0,64.0
1298,60.0,13.0,60.0,12.0,64.0
1299,48.0,6.0,90.0,11.0,64.0
1300,67.0,12.0,60.0,12.0,64.0
1301,60.0,12.0,90.0,7.0,64.0
1302,64.0,6.0,90.0,12.0,64.0
1303,48.0,1.0,90.0,15.0,64.0
1304,72.0,2.0,90.0,4.0,64.0
1305,76.0,1.0,90.0,13.0,64.0
1306,72.0,2.0,90.0,14.0,64.0
1307,76.0,5.0,90.0,1.0,64.0
1308,67.0,3.0,60.0,12.0,64.0
1309,48.0,1.0,60.0,12.0,64.0
1310,48.0,23.0,90.0,7.0,64.0
1311,36.0,241.0,120.0,11.0,64.0
1312,72.0,6.0,60.0,12.0,64.0
1313,41.0,7.0,120.0,10.0,64.0
1314,53.0,58.0,180.0,12.0,64.0
1315,65.0,28.0,240.0,12.0,64.0
1316,77.0,28.0,270.0,13.0,64.0
1317,41.0,13.0,120.0,15.0,64.0
1318,77.0,15.0,270.0,1.0,64.0
1319,69.0,0.0,450.0,12.0,64.0
1320,69.0,11.0,360.0,4.0,64.0
1321,29.0,7.0,180.0,11.0,64.0
1322,72.0,7.0,450.0,12.0,64.0
1323,69.0,21.0,300.0,14.0,64.0
1324,41.0,36.0,120.0,7.0,64.0
1325,65.0,0.0,90.0,7.0,64.0
1326,53.0,17.0,90.0,10.0,64.0
1327,65.0,1.0,60.0,15.0,64.0
1328,65.0,5.0,90.0,12.0,64.0
1329,41.0,57.0,90.0,11.0,64.0
1330,51.0,1.0,90.0,10.0,64.0
1331,63.0,21.0,90.0,7.0,64.0
1332,63.0,19.0,60.0,15.0,64.0
1333,39.0,3.0,90.0,11.0,64.0
1334,63.0,88.0,90.0,12.0,64.0
1335,38.0,4.0,90.0,11.0,64.0
1336,50.0,6.0,90.0,10.0,64.0
1337,62.0,12.0,90.0,15.0,64.0
1338,62.0,66.0,120.0,7.0,64.0
1339,62.0,6.0,90.0,12.0,64.0
1340,39.0,5.0,90.0,11.0,64.0
1341,51.0,3.0,60.0,10.0,64.0
1342,63.0,16.0,60.0,15.0,64.0
1343,63.0,19.0,90.0,7.0,64.0
1344,63.0,68.0,90.0,12.0,64.0
1345,38.0,9.0,60.0,11.0,64.0
1346,50.0,3.0,60.0,10.0,64.0
1347,62.0,14.0,60.0,15.0,64.0
1348,62.0,0.0,60.0,7.0,64.0
1349,65.0,6.0,60.0,12.0,64.0
1350,70.0,3.0,90.0,12.0,64.0
1351,62.0,12.0,90.0,12.0,64.0
1352,82.0,1.0,90.0,1.0,64.0
1353,77.0,65.0,90.0,2.0,64.0
1354,74.0,0.0,90.0,3.0,64.0
1355,36.0,7.0,60.0,11.0,64.0
1356,60.0,0.0,90.0,7.0,64.0
1357,48.0,16.0,60.0,10.0,64.0
1358,60.0,10.0,60.0,15.0,64.0
1359,81.0,4.0,90.0,1.0,64.0
1360,60.0,11.0,90.0,12.0,64.0
1361,72.0,176.0,90.0,3.0,64.0
1362,75.0,0.0,90.0,2.0,64.0
1363,58.0,9.0,360.0,12.0,64.0
1364,34.0,35.0,180.0,11.0,64.0
1365,82.0,3.0,150.0,1.0,64.0
1366,46.0,37.0,210.0,10.0,64.0
1367,58.0,55.0,270.0,15.0,64.0
1368,74.0,7.0,150.0,3.0,64.0
1369,58.0,36.0,240.0,7.0,64.0
1370,77.0,8.0,150.0,2.0,64.0
1371,62.0,0.0,450.0,12.0,64.0
1372,65.0,0.0,420.0,12.0,64.0
1373,70.0,2.0,390.0,12.0,64.0
1374,77.0,1.0,90.0,1.0,64.0
1375,74.0,0.0,90.0,2.0,64.0
1376,70.0,110.0,90.0,3.0,64.0
1377,75.0,1.0,90.0,1.0,64.0
1378,69.0,173.0,90.0,3.0,64.0
1379,72.0,0.0,90.0,2.0,64.0
1380,77.0,175.0,180.0,1.0,64.0
1381,74.0,6.0,150.0,2.0,64.0
1382,70.0,9.0,150.0,3.0,64.0
1383,65.0,1.0,90.0,6.0,64.0
1384,74.0,2.0,90.0,4.0,64.0
1385,70.0,111.0,90.0,5.0,64.0
1386,63.0,145.0,150.0,6.0,64.0
1387,72.0,1.0,90.0,4.0,64.0
1388,69.0,29.0,90.0,5.0,64.0
1389,74.0,169.0,180.0,4.0,64.0
1390,65.0,5.0,150.0,6.0,64.0
1391,70.0,18.0,150.0,5.0,64.0
1392,62.0,105.0,90.0,6.0,64.0
1393,70.0,2.0,90.0,4.0,64.0
1394,65.0,5.0,90.0,5.0,64.0
1395,60.0,167.0,90.0,6.0,64.0
1396,69.0,3.0,90.0,4.0,64.0
1397,63.0,2.0,90.0,5.0,64.0
1398,62.0,5.0,150.0,6.0,64.0
1399,65.0,13.0,150.0,5.0,64.0
1400,70.0,179.0,150.0,4.0,64.0
1401,58.0,112.0,90.0,7.0,64.0
1402,65.0,0.0,90.0,8.0,64.0
1403,62.0,0.0,90.0,10.0,64.0
1404,60.0,1.0,90.0,10.0,64.0
1405,57.0,0.0,90.0,7.0,64.0
1406,63.0,136.0,90.0,8.0,64.0
1407,58.0,5.0,120.0,10.0,64.0
1408,58.0,18.0,90.0,7.0,64.0
1409,62.0,91.0,120.0,8.0,64.0
1410,63.0,107.0,90.0,8.0,64.0
1411,65.0,0.0,120.0,4.0,64.0
1412,34.0,4.0,90.0,11.0,64.0
1413,46.0,1.0,90.0,15.0,64.0
1414,70.0,18.0,120.0,12.0,64.0
1415,74.0,12.0,120.0,13.0,64.0
1416,46.0,13.0,90.0,12.0,64.0
1417,62.0,0.0,90.0,8.0,64.0
1418,46.0,1.0,90.0,7.0,64.0
1419,53.0,10.0,90.0,10.0,64.0
1420,74.0,7.0,90.0,1.0,64.0
1421,65.0,56.0,150.0,14.0,64.0
1422,36.0,1.0,120.0,11.0,64.0
1423,69.0,18.0,120.0,12.0,64.0
1424,48.0,5.0,90.0,15.0,64.0
1425,75.0,11.0,120.0,13.0,64.0
1426,48.0,2.0,90.0,7.0,64.0
1427,60.0,0.0,90.0,8.0,64.0
1428,48.0,71.0,120.0,12.0,64.0
1429,75.0,7.0,90.0,1.0,64.0
1430,38.0,6.0,120.0,11.0,64.0
1431,58.0,7.0,150.0,8.0,64.0
1432,77.0,5.0,90.0,1.0,64.0
1433,50.0,1.0,90.0,12.0,64.0
1434,50.0,20.0,120.0,7.0,64.0
1435,50.0,0.0,120.0,15.0,64.0
1436,77.0,54.0,150.0,13.0,64.0
1437,70.0,4.0,90.0,4.0,64.0
1438,70.0,18.0,90.0,14.0,64.0
1439,70.0,5.0,90.0,12.0,64.0
1440,74.0,12.0,90.0,14.0,64.0
1441,74.0,89.0,90.0,4.0,64.0
1442,72.0,5.0,120.0,14.0,64.0
1443,40.0,8.0,90.0,11.0,64.0
1444,72.0,7.0,90.0,4.0,64.0
1445,52.0,0.0,120.0,15.0,64.0
1446,52.0,8.0,120.0,7.0,64.0
1447,79.0,5.0,90.0,1.0,64.0
1448,79.0,95.0,120.0,13.0,64.0
1449,67.0,7.0,60.0,12.0,64.0
1450,60.0,5.0,60.0,12.0,64.0
1451,58.0,1.0,60.0,12.0,64.0
1452,52.0,6.0,60.0,12.0,64.0
1453,70.0,116.0,120.0,14.0,64.0
1454,70.0,13.0,90.0,4.0,64.0
1455,41.0,28.0,240.0,11.0,64.0
1456,72.0,13.0,180.0,13.0,64.0
1457,53.0,5.0,210.0,15.0,64.0
1458,53.0,25.0,240.0,7.0,64.0
1459,69.0,3.0,180.0,14.0,64.0
1460,69.0,59.0,90.0,4.0,64.0
1461,72.0,28.0,150.0,1.0,64.0
1462,53.0,57.0,270.0,12.0,64.0
1463,57.0,9.0,480.0,12.0,64.0
1464,60.0,15.0,480.0,12.0,64.0
1465,65.0,40.0,450.0,12.0,64.0
1466,72.0,19.0,90.0,4.0,64.0
1467,65.0,98.0,120.0,4.0,64.0
1468,89.0,1.0,90.0,1.0,64.0
1469,81.0,0.0,90.0,3.0,64.0
1470,84.0,14.0,90.0,2.0,64.0
1471,88.0,1.0,90.0,1.0,64.0
1472,79.0,11.0,90.0,3.0,64.0
1473,82.0,0.0,90.0,2.0,64.0
1474,67.0,54.0,90.0,4.0,64.0
1475,89.0,2.0,150.0,1.0,64.0
1476,84.0,5.0,150.0,2.0,64.0
1477,69.0,50.0,90.0,4.0,64.0
1478,77.0,48.0,150.0,3.0,64.0
1479,70.0,80.0,90.0,4.0,64.0
1480,72.0,24.0,120.0,4.0,64.0
1481,48.0,18.0,60.0,11.0,64.0
1482,64.0,14.0,120.0,6.0,64.0
1483,60.0,8.0,60.0,15.0,64.0
1484,60.0,5.0,90.0,7.0,64.0
1485,67.0,90.0,120.0,5.0,64.0
1486,60.0,1.0,60.0,12.0,64.0
1487,67.0,1.0,60.0,12.0,64.0
1488,72.0,1.0,60.0,12.0,64.0
1489,70.0,144.0,120.0,4.0,64.0
1490,69.0,21.0,180.0,4.0,64.0
1491,65.0,41.0,240.0,15.0,64.0
1492,65.0,0.0,240.0,6.0,64.0
1493,65.0,64.0,270.0,12.0,64.0
1494,65.0,9.0,180.0,7.0,64.0
1495,53.0,5.0,210.0,11.0,64.0
1496,69.0,84.0,510.0,12.0,64.0
1497,72.0,29.0,480.0,12.0,64.0
1498,69.0,52.0,90.0,5.0,64.0
1499,72.0,34.0,90.0,5.0,64.0
1500,65.0,48.0,120.0,5.0,64.0
1501,77.0,44.0,150.0,4.0,64.0
1502,89.0,1.0,90.0,1.0,64.0
1503,81.0,0.0,90.0,3.0,64.0
1504,84.0,16.0,90.0,2.0,64.0
1505,67.0,4.0,90.0,5.0,64.0
1506,79.0,1.0,90.0,3.0,64.0
1507,88.0,0.0,90.0,1.0,64.0
1508,82.0,23.0,90.0,2.0,64.0
1509,69.0,38.0,120.0,5.0,64.0
1510,77.0,2.0,150.0,3.0,64.0
1511,84.0,14.0,150.0,2.0,64.0
1512,89.0,59.0,150.0,1.0,64.0
1513,70.0,78.0,120.0,5.0,64.0
1514,60.0,5.0,60.0,15.0,64.0
1515,72.0,23.0,120.0,5.0,64.0
1516,60.0,2.0,60.0,7.0,64.0
1517,76.0,46.0,120.0,4.0,64.0
1518,60.0,0.0,60.0,12.0,64.0
1519,67.0,55.0,180.0,6.0,64.0
1520,48.0,32.0,60.0,11.0,64.0
1521,67.0,3.0,60.0,12.0,64.0
1522,72.0,5.0,60.0,12.0,64.0
1523,70.0,132.0,120.0,5.0,64.0
1524,53.0,18.0,210.0,7.0,64.0
1525,69.0,46.0,180.0,5.0,64.0
1526,53.0,4.0,240.0,15.0,64.0
1527,77.0,11.0,150.0,4.0,64.0
1528,41.0,39.0,240.0,11.0,64.0
1529,69.0,83.0,510.0,12.0,64.0
1530,53.0,60.0,270.0,12.0,64.0
1531,72.0,11.0,480.0,12.0,64.0
1532,69.0,37.0,90.0,6.0,64.0
1533,72.0,1.0,90.0,6.0,64.0
1534,72.0,17.0,120.0,4.0,64.0
1535,65.0,38.0,120.0,6.0,64.0
1536,89.0,1.0,90.0,1.0,64.0
1537,77.0,48.0,150.0,5.0,64.0
1538,84.0,0.0,90.0,2.0,64.0
1539,81.0,9.0,90.0,3.0,64.0
1540,67.0,33.0,120.0,6.0,64.0
1541,88.0,1.0,90.0,1.0,64.0
1542,79.0,14.0,90.0,3.0,64.0
1543,82.0,0.0,90.0,2.0,64.0
1544,65.0,39.0,120.0,4.0,64.0
1545,69.0,1.0,120.0,6.0,64.0
1546,77.0,2.0,150.0,3.0,64.0
1547,84.0,1.0,150.0,2.0,64.0
1548,89.0,63.0,150.0,1.0,64.0
1549,70.0,79.0,90.0,6.0,64.0
1550,36.0,1.0,60.0,11.0,64.0
1551,48.0,1.0,60.0,15.0,64.0
1552,48.0,9.0,90.0,7.0,64.0
1553,72.0,0.0,120.0,6.0,64.0
1554,65.0,9.0,60.0,12.0,64.0
1555,69.0,5.0,60.0,12.0,64.0
1556,77.0,22.0,90.0,4.0,64.0
1557,72.0,3.0,60.0,12.0,64.0
1558,77.0,81.0,120.0,14.0,64.0
1559,48.0,9.0,60.0,12.0,64.0
1560,76.0,37.0,90.0,4.0,64.0
1561,70.0,158.0,120.0,6.0,64.0
1562,76.0,2.0,120.0,14.0,64.0
1563,29.0,8.0,180.0,11.0,64.0
1564,77.0,5.0,180.0,4.0,64.0
1565,41.0,22.0,180.0,15.0,64.0
1566,77.0,3.0,150.0,14.0,64.0
1567,69.0,34.0,180.0,6.0,64.0
1568,41.0,2.0,180.0,7.0,64.0
1569,41.0,71.0,240.0,12.0,64.0
1570,69.0,1.0,420.0,12.0,64.0
1571,72.0,0.0,420.0,12.0,64.0
1572,65.0,14.0,420.0,12.0,64.0
1573,53.0,11.0,60.0,7.0,64.0
1574,53.0,5.0,60.0,12.0,64.0
1575,77.0,6.0,120.0,13.0,64.0
1576,72.0,9.0,120.0,14.0,64.0
1577,72.0,18.0,90.0,4.0,64.0
1578,77.0,79.0,120.0,1.0,64.0
1579,53.0,8.0,60.0,15.0,64.0
1580,41.0,12.0,60.0,11.0,64.0
1581,70.0,78.0,120.0,14.0,64.0
1582,70.0,2.0,90.0,4.0,64.0
1583,72.0,15.0,120.0,14.0,64.0
1584,72.0,154.0,150.0,4.0,64.0
1585,53.0,4.0,90.0,7.0,64.0
1586,53.0,2.0,60.0,15.0,64.0
1587,41.0,29.0,90.0,11.0,64.0
1588,53.0,8.0,60.0,12.0,64.0
1589,81.0,15.0,120.0,13.0,64.0
1590,81.0,5.0,120.0,1.0,64.0
1591,41.0,2.0,90.0,7.0,64.0
1592,29.0,10.0,90.0,11.0,64.0
1593,41.0,2.0,90.0,15.0,64.0
1594,84.0,9.0,120.0,13.0,64.0
1595,84.0,8.0,120.0,1.0,64.0
1596,77.0,88.0,120.0,14.0,64.0
1597,41.0,10.0,60.0,12.0,64.0
1598,69.0,3.0,60.0,12.0,64.0
1599,65.0,9.0,60.0,12.0,64.0
1600,72.0,5.0,60.0,12.0,64.0
1601,77.0,8.0,90.0,4.0,64.0
1602,76.0,116.0,120.0,14.0,64.0
1603,76.0,36.0,90.0,4.0,64.0
1604,41.0,49.0,180.0,7.0,64.0
1605,77.0,8.0,180.0,4.0,64.0
1606,77.0,33.0,120.0,14.0,64.0
1607,29.0,5.0,150.0,11.0,64.0
1608,41.0,2.0,180.0,15.0,64.0
1609,81.0,1.0,150.0,13.0,64.0
1610,69.0,3.0,480.0,12.0,64.0
1611,72.0,59.0,480.0,12.0,64.0
1612,65.0,6.0,480.0,12.0,64.0
1613,81.0,16.0,180.0,1.0,64.0
1614,41.0,70.0,210.0,12.0,64.0
1615,41.0,3.0,90.0,11.0,64.0
1616,53.0,4.0,90.0,7.0,64.0
1617,77.0,2.0,120.0,1.0,64.0
1618,77.0,3.0,90.0,13.0,64.0
1619,69.0,8.0,90.0,4.0,64.0
1620,53.0,18.0,60.0,15.0,64.0
1621,53.0,6.0,60.0,12.0,64.0
1622,69.0,100.0,90.0,14.0,64.0
1623,67.0,30.0,90.0,4.0,64.0
1624,67.0,1.0,120.0,14.0,64.0
1625,41.0,17.0,120.0,11.0,64.0
1626,69.0,158.0,150.0,4.0,64.0
1627,53.0,4.0,60.0,15.0,64.0
1628,53.0,16.0,60.0,7.0,64.0
1629,81.0,2.0,90.0,13.0,64.0
1630,69.0,12.0,120.0,14.0,64.0
1631,81.0,23.0,120.0,1.0,64.0
1632,53.0,0.0,60.0,12.0,64.0
1633,29.0,11.0,90.0,11.0,64.0
1634,41.0,5.0,60.0,7.0,64.0
1635,84.0,94.0,120.0,1.0,64.0
1636,41.0,3.0,60.0,12.0,64.0
1637,84.0,13.0,90.0,13.0,64.0
1638,41.0,5.0,90.0,15.0,64.0
1639,77.0,5.0,90.0,4.0,64.0
1640,65.0,4.0,60.0,12.0,64.0
1641,69.0,6.0,60.0,12.0,64.0
1642,77.0,1.0,120.0,14.0,64.0
1643,72.0,1.0,60.0,12.0,64.0
1644,76.0,133.0,120.0,14.0,64.0
1645,76.0,36.0,90.0,4.0,64.0
1646,29.0,4.0,150.0,11.0,64.0
1647,77.0,4.0,150.0,4.0,64.0
1648,41.0,2.0,150.0,7.0,64.0
1649,77.0,1.0,150.0,14.0,64.0
1650,65.0,11.0,210.0,12.0,64.0
1651,41.0,24.0,150.0,15.0,64.0
1652,69.0,97.0,240.0,12.0,64.0
1653,81.0,33.0,180.0,1.0,64.0
1654,41.0,2.0,210.0,12.0,64.0
1655,72.0,18.0,210.0,12.0,64.0
1656,81.0,1.0,120.0,13.0,64.0
1657,65.0,8.0,120.0,14.0,64.0
1658,41.0,3.0,90.0,11.0,64.0
1659,72.0,73.0,120.0,1.0,64.0
1660,53.0,1.0,90.0,7.0,64.0
1661,72.0,1.0,90.0,13.0,64.0
1662,65.0,7.0,90.0,4.0,64.0
1663,53.0,1.0,90.0,15.0,64.0
1664,65.0,0.0,90.0,12.0,64.0
1665,53.0,21.0,90.0,12.0,64.0
1666,40.0,4.0,120.0,11.0,64.0
1667,67.0,12.0,120.0,14.0,64.0
1668,52.0,11.0,120.0,15.0,64.0
1669,52.0,1.0,90.0,7.0,64.0
1670,67.0,9.0,90.0,4.0,64.0
1671,52.0,63.0,120.0,12.0,64.0
1672,67.0,0.0,120.0,12.0,64.0
1673,38.0,8.0,120.0,11.0,64.0
1674,69.0,66.0,150.0,4.0,64.0
1675,69.0,13.0,120.0,14.0,64.0
1676,50.0,1.0,90.0,7.0,64.0
1677,77.0,3.0,90.0,13.0,64.0
1678,65.0,4.0,60.0,12.0,64.0
1679,69.0,0.0,60.0,12.0,64.0
1680,50.0,11.0,60.0,15.0,64.0
1681,77.0,27.0,90.0,1.0,64.0
1682,50.0,1.0,120.0,12.0,64.0
1683,81.0,93.0,90.0,1.0,64.0
1684,81.0,4.0,90.0,13.0,64.0
1685,43.0,0.0,60.0,11.0,64.0
1686,55.0,16.0,90.0,7.0,64.0
1687,71.0,4.0,120.0,4.0,64.0
1688,79.0,4.0,90.0,1.0,64.0
1689,79.0,5.0,90.0,13.0,64.0
1690,55.0,1.0,60.0,15.0,64.0
1691,67.0,9.0,60.0,12.0,64.0
1692,62.0,2.0,60.0,12.0,64.0
1693,71.0,85.0,120.0,14.0,64.0
1694,71.0,3.0,60.0,12.0,64.0
1695,55.0,2.0,90.0,12.0,64.0
1696,77.0,157.0,90.0,13.0,64.0
1697,77.0,13.0,90.0,1.0,64.0
1698,36.0,14.0,270.0,11.0,64.0
1699,76.0,32.0,210.0,1.0,64.0
1700,48.0,60.0,270.0,7.0,64.0
1701,76.0,11.0,210.0,13.0,64.0
1702,72.0,10.0,150.0,14.0,64.0
1703,72.0,24.0,180.0,4.0,64.0
1704,48.0,19.0,240.0,15.0,64.0
1705,48.0,1.0,270.0,12.0,64.0
1706,76.0,41.0,120.0,2.0,64.0
1707,64.0,90.0,480.0,12.0,64.0
1708,67.0,12.0,450.0,12.0,64.0
1709,72.0,7.0,450.0,12.0,64.0
1710,79.0,3.0,90.0,2.0,64.0
1711,76.0,2.0,90.0,4.0,64.0
1712,72.0,10.0,90.0,5.0,64.0
1713,72.0,17.0,90.0,2.0,64.0
1714,67.0,84.0,120.0,6.0,64.0
1715,74.0,2.0,90.0,4.0,64.0
1716,74.0,2.0,90.0,2.0,64.0
1717,71.0,5.0,90.0,5.0,64.0
1718,65.0,19.0,120.0,6.0,64.0
1719,76.0,42.0,120.0,2.0,64.0
1720,72.0,8.0,150.0,4.0,64.0
1721,67.0,1.0,150.0,6.0,64.0
1722,72.0,68.0,150.0,5.0,64.0
1723,77.0,65.0,90.0,2.0,64.0
1724,79.0,16.0,120.0,2.0,64.0
1725,36.0,17.0,90.0,11.0,64.0
1726,48.0,2.0,60.0,12.0,64.0
1727,48.0,1.0,90.0,7.0,64.0
1728,72.0,88.0,120.0,3.0,64.0
1729,48.0,13.0,60.0,15.0,64.0
1730,76.0,19.0,60.0,1.0,64.0
1731,81.0,141.0,90.0,2.0,64.0
1732,82.0,54.0,300.0,2.0,64.0
1733,62.0,86.0,510.0,12.0,64.0
1734,55.0,11.0,240.0,7.0,64.0
1735,74.0,33.0,240.0,1.0,64.0
1736,55.0,3.0,210.0,15.0,64.0
1737,70.0,94.0,90.0,3.0,64.0
1738,55.0,7.0,270.0,12.0,64.0
1739,43.0,15.0,210.0,11.0,64.0
1740,67.0,7.0,480.0,12.0,64.0
1741,70.0,8.0,450.0,12.0,64.0
1742,74.0,12.0,90.0,3.0,64.0
1743,67.0,96.0,120.0,6.0,64.0
1744,74.0,2.0,90.0,4.0,64.0
1745,70.0,10.0,90.0,5.0,64.0
1746,67.0,4.0,90.0,3.0,64.0
1747,66.0,4.0,120.0,6.0,64.0
1748,69.0,30.0,90.0,3.0,64.0
1749,72.0,3.0,90.0,4.0,64.0
1750,69.0,0.0,90.0,5.0,64.0
1751,74.0,1.0,150.0,4.0,64.0
1752,67.0,3.0,150.0,6.0,64.0
1753,70.0,39.0,120.0,3.0,64.0
1754,67.0,62.0,150.0,5.0,64.0
1755,72.0,65.0,90.0,3.0,64.0
1756,43.0,20.0,60.0,11.0,64.0
1757,55.0,4.0,60.0,15.0,64.0
1758,74.0,114.0,90.0,3.0,64.0
1759,55.0,20.0,60.0,7.0,64.0
1760,82.0,2.0,90.0,2.0,64.0
1761,79.0,8.0,90.0,1.0,64.0
1762,55.0,10.0,60.0,12.0,64.0
1763,76.0,131.0,90.0,3.0,64.0
1764,62.0,3.0,480.0,12.0,64.0
1765,50.0,4.0,240.0,15.0,64.0
1766,77.0,3.0,240.0,3.0,64.0
1767,50.0,3.0,270.0,7.0,64.0
1768,81.0,1.0,240.0,2.0,64.0
1769,77.0,94.0,120.0,1.0,64.0
1770,38.0,25.0,240.0,11.0,64.0
1771,50.0,60.0,270.0,12.0,64.0
1772,65.0,13.0,480.0,12.0,64.0
1773,69.0,71.0,450.0,12.0,64.0
1774,81.0,37.0,90.0,1.0,64.0
1775,74.0,4.0,90.0,1.0,64.0
1776,65.0,79.0,120.0,6.0,64.0
1777,74.0,2.0,90.0,4.0,64.0
1778,69.0,25.0,90.0,5.0,64.0
1779,76.0,7.0,90.0,1.0,64.0
1780,64.0,34.0,120.0,6.0,64.0
1781,72.0,1.0,90.0,4.0,64.0
1782,67.0,23.0,90.0,5.0,64.0
1783,69.0,1.0,150.0,5.0,64.0
1784,74.0,0.0,150.0,4.0,64.0
1785,62.0,80.0,150.0,6.0,64.0
1786,77.0,28.0,120.0,1.0,64.0
1787,79.0,87.0,90.0,1.0,64.0
1788,38.0,3.0,90.0,11.0,64.0
1789,50.0,3.0,90.0,7.0,64.0
1790,50.0,2.0,90.0,15.0,64.0
1791,50.0,1.0,90.0,12.0,64.0
1792,81.0,1.0,90.0,1.0,64.0
1793,65.0,12.0,60.0,12.0,64.0
1794,62.0,3.0,60.0,12.0,64.0
1795,69.0,4.0,90.0,12.0,64.0
1796,77.0,1.0,90.0,3.0,64.0
1797,81.0,106.0,90.0,2.0,64.0
1798,82.0,157.0,90.0,1.0,64.0
1799,84.0,5.0,150.0,1.0,64.0
1800,45.0,7.0,120.0,11.0,64.0
1801,57.0,85.0,210.0,12.0,64.0
1802,57.0,41.0,150.0,7.0,64.0
1803,72.0,15.0,300.0,12.0,64.0
1804,81.0,12.0,120.0,2.0,64.0
1805,76.0,11.0,150.0,3.0,64.0
1806,64.0,9.0,300.0,12.0,64.0
1807,57.0,7.0,150.0,15.0,64.0
1808,69.0,11.0,270.0,12.0,64.0
1809,50.0,8.0,90.0,11.0,64.0
1810,69.0,3.0,120.0,6.0,64.0
1811,81.0,3.0,120.0,2.0,64.0
1812,84.0,1.0,120.0,1.0,64.0
1813,62.0,2.0,90.0,15.0,64.0
1814,77.0,0.0,90.0,4.0,64.0
1815,62.0,3.0,90.0,7.0,64.0
1816,74.0,0.0,90.0,5.0,64.0
1817,77.0,7.0,90.0,3.0,64.0
1818,62.0,82.0,90.0,12.0,64.0
1819,48.0,13.0,120.0,11.0,64.0
1820,70.0,67.0,120.0,6.0,64.0
1821,60.0,26.0,90.0,15.0,64.0
1822,76.0,1.0,90.0,4.0,64.0
1823,76.0,0.0,90.0,5.0,64.0
1824,60.0,2.0,90.0,7.0,64.0
1825,60.0,0.0,90.0,12.0,64.0
1826,50.0,23.0,90.0,11.0,64.0
1827,69.0,10.0,150.0,6.0,64.0
1828,62.0,21.0,120.0,7.0,64.0
1829,77.0,36.0,150.0,4.0,64.0
1830,74.0,0.0,150.0,5.0,64.0
1831,62.0,9.0,60.0,15.0,64.0
1832,81.0,87.0,240.0,2.0,64.0
1833,84.0,20.0,210.0,1.0,64.0
1834,62.0,14.0,90.0,12.0,64.0
1835,77.0,23.0,180.0,3.0,64.0
1836,55.0,1.0,120.0,15.0,64.0
1837,43.0,17.0,120.0,11.0,64.0
1838,77.0,1.0,90.0,4.0,64.0
1839,70.0,0.0,120.0,6.0,64.0
1840,70.0,19.0,60.0,12.0,64.0
1841,65.0,8.0,60.0,12.0,64.0
1842,74.0,1.0,90.0,5.0,64.0
1843,55.0,1.0,90.0,7.0,64.0
1844,82.0,1.0,90.0,1.0,64.0
1845,79.0,0.0,90.0,2.0,64.0
1846,74.0,0.0,90.0,3.0,64.0
1847,55.0,93.0,120.0,12.0,64.0
1848,41.0,1.0,120.0,11.0,64.0
1849,53.0,35.0,120.0,15.0,64.0
1850,53.0,2.0,90.0,7.0,64.0
1851,81.0,1.0,90.0,1.0,64.0
1852,77.0,0.0,90.0,2.0,64.0
1853,76.0,3.0,90.0,3.0,64.0
1854,53.0,49.0,120.0,12.0,64.0
1855,55.0,5.0,60.0,15.0,64.0
1856,43.0,15.0,90.0,11.0,64.0
1857,79.0,26.0,180.0,2.0,64.0
1858,55.0,66.0,90.0,7.0,64.0
1859,77.0,32.0,210.0,4.0,64.0
1860,74.0,21.0,240.0,5.0,64.0
1861,82.0,0.0,150.0,1.0,64.0
1862,74.0,10.0,150.0,3.0,64.0
1863,70.0,9.0,180.0,6.0,64.0
1864,55.0,16.0,180.0,12.0,64.0
1865,62.0,72.0,270.0,12.0,64.0
1866,70.0,33.0,390.0,12.0,64.0
1867,65.0,11.0,420.0,12.0,64.0
1868,60.0,6.0,90.0,15.0,64.0
1869,48.0,4.0,90.0,11.0,64.0
1870,82.0,4.0,120.0,1.0,64.0
1871,79.0,4.0,120.0,2.0,64.0
1872,67.0,0.0,120.0,6.0,64.0
1873,72.0,3.0,90.0,5.0,64.0
1874,76.0,0.0,90.0,4.0,64.0
1875,60.0,0.0,90.0,7.0,64.0
1876,76.0,4.0,90.0,3.0,64.0
1877,60.0,47.0,90.0,12.0,64.0
1878,46.0,11.0,120.0,11.0,64.0
1879,69.0,77.0,120.0,6.0,64.0
1880,58.0,6.0,120.0,15.0,64.0
1881,74.0,1.0,90.0,4.0,64.0
1882,74.0,4.0,90.0,5.0,64.0
1883,58.0,0.0,90.0,7.0,64.0
1884,58.0,2.0,90.0,12.0,64.0
1885,48.0,11.0,90.0,11.0,64.0
1886,60.0,56.0,120.0,7.0,64.0
1887,60.0,17.0,90.0,15.0,64.0
1888,72.0,12.0,210.0,5.0,64.0
1889,76.0,10.0,210.0,4.0,64.0
1890,67.0,89.0,240.0,6.0,64.0
1891,76.0,34.0,150.0,3.0,64.0
1892,82.0,2.0,210.0,1.0,64.0
1893,79.0,2.0,210.0,2.0,64.0
1894,60.0,7.0,90.0,12.0,64.0
1895,77.0,2.0,120.0,4.0,64.0
1896,65.0,0.0,90.0,12.0,64.0
1897,69.0,12.0,90.0,12.0,64.0
1898,69.0,6.0,120.0,6.0,64.0
1899,60.0,15.0,60.0,12.0,64.0
1900,72.0,0.0,90.0,5.0,64.0
1901,53.0,0.0,90.0,7.0,64.0
1902,53.0,60.0,120.0,15.0,64.0
1903,53.0,8.0,90.0,12.0,64.0
1904,81.0,1.0,90.0,1.0,64.0
1905,77.0,0.0,90.0,2.0,64.0
1906,72.0,9.0,90.0,3.0,64.0
1907,41.0,2.0,90.0,11.0,64.0
1908,40.0,1.0,120.0,11.0,64.0
1909,72.0,24.0,90.0,4.0,64.0
1910,70.0,3.0,120.0,6.0,64.0
1911,52.0,132.0,150.0,15.0,64.0
1912,70.0,1.0,90.0,5.0,64.0
1913,52.0,2.0,90.0,7.0,64.0
1914,52.0,12.0,120.0,12.0,64.0
1915,79.0,1.0,90.0,1.0,64.0
1916,79.0,24.0,90.0,2.0,64.0
1917,74.0,0.0,90.0,3.0,64.0
1918,53.0,4.0,150.0,7.0,64.0
1919,69.0,3.0,210.0,6.0,64.0
1920,65.0,2.0,210.0,4.0,64.0
1921,72.0,10.0,210.0,5.0,64.0
1922,41.0,36.0,150.0,11.0,64.0
1923,77.0,9.0,180.0,2.0,64.0
1924,81.0,12.0,210.0,1.0,64.0
1925,53.0,70.0,240.0,12.0,64.0
1926,53.0,5.0,150.0,15.0,64.0
1927,69.0,2.0,330.0,12.0,64.0
1928,65.0,1.0,330.0,12.0,64.0
1929,72.0,1.0,180.0,3.0,64.0
1930,60.0,1.0,180.0,12.0,64.0
1931,74.0,12.0,60.0,2.0,64.0
1932,58.0,10.0,90.0,7.0,64.0
1933,67.0,0.0,90.0,5.0,64.0
1934,46.0,9.0,60.0,11.0,64.0
1935,58.0,6.0,90.0,15.0,64.0
1936,62.0,6.0,150.0,6.0,64.0
1937,58.0,60.0,150.0,12.0,64.0
1938,67.0,1.0,90.0,4.0,64.0
1939,79.0,1.0,90.0,1.0,64.0
1940,70.0,4.0,90.0,3.0,64.0
1941,62.0,41.0,90.0,12.0,64.0
1942,69.0,1.0,90.0,4.0,64.0
1943,69.0,0.0,90.0,3.0,64.0
1944,77.0,94.0,90.0,1.0,64.0
1945,70.0,179.0,150.0,4.0,64.0
1946,60.0,9.0,90.0,7.0,64.0
1947,60.0,4.0,60.0,15.0,64.0
1948,67.0,2.0,90.0,3.0,64.0
1949,72.0,9.0,60.0,2.0,64.0
1950,48.0,2.0,90.0,11.0,64.0
1951,64.0,5.0,120.0,6.0,64.0
1952,67.0,18.0,90.0,5.0,64.0
1953,70.0,4.0,90.0,12.0,64.0
1954,67.0,0.0,90.0,12.0,64.0
1955,65.0,3.0,90.0,12.0,64.0
1956,60.0,1.0,90.0,12.0,64.0
1957,72.0,2.0,90.0,1.0,64.0
1958,48.0,1.0,90.0,7.0,64.0
1959,70.0,183.0,150.0,4.0,64.0
1960,64.0,2.0,120.0,6.0,64.0
1961,48.0,8.0,90.0,15.0,64.0
1962,76.0,12.0,60.0,1.0,64.0
1963,36.0,25.0,120.0,11.0,64.0
1964,72.0,1.0,60.0,2.0,64.0
1965,67.0,3.0,90.0,3.0,64.0
1966,67.0,3.0,90.0,5.0,64.0
1967,67.0,6.0,90.0,12.0,64.0
1968,60.0,1.0,90.0,12.0,64.0
1969,48.0,6.0,90.0,12.0,64.0
1970,64.0,1.0,90.0,12.0,64.0
1971,41.0,6.0,90.0,7.0,64.0
1972,60.0,2.0,150.0,6.0,64.0
1973,41.0,12.0,60.0,15.0,64.0
1974,41.0,45.0,90.0,11.0,64.0
1975,69.0,10.0,150.0,4.0,64.0
1976,72.0,10.0,240.0,2.0,64.0
1977,77.0,16.0,120.0,1.0,64.0
1978,69.0,11.0,210.0,3.0,64.0
1979,65.0,33.0,150.0,5.0,64.0
1980,53.0,18.0,180.0,12.0,64.0
1981,60.0,72.0,240.0,12.0,64.0
1982,65.0,20.0,210.0,12.0,64.0
1983,69.0,5.0,210.0,12.0,64.0
1984,76.0,0.0,120.0,1.0,64.0
1985,77.0,3.0,90.0,1.0,64.0
1986,60.0,2.0,120.0,6.0,64.0
1987,65.0,0.0,90.0,15.0,64.0
1988,53.0,8.0,120.0,11.0,64.0
1989,69.0,4.0,120.0,4.0,64.0
1990,65.0,5.0,90.0,7.0,64.0
1991,65.0,75.0,120.0,5.0,64.0
1992,77.0,10.0,90.0,12.0,64.0
1993,72.0,2.0,60.0,12.0,64.0
1994,52.0,1.0,150.0,11.0,64.0
1995,64.0,17.0,120.0,15.0,64.0
1996,79.0,5.0,90.0,1.0,64.0
1997,64.0,19.0,90.0,7.0,64.0
1998,64.0,62.0,120.0,12.0,64.0
1999,69.0,45.0,150.0,4.0,64.0
2000,65.0,4.0,90.0,15.0,64.0
2001,77.0,1.0,120.0,1.0,64.0
2002,65.0,14.0,120.0,7.0,64.0
2003,53.0,9.0,60.0,11.0,64.0
2004,60.0,109.0,210.0,6.0,64.0
2005,65.0,11.0,60.0,12.0,64.0
2006,65.0,31.0,120.0,5.0,64.0
2007,69.0,11.0,90.0,12.0,64.0
2008,72.0,0.0,90.0,12.0,64.0
2009,81.0,8.0,90.0,1.0,64.0
2010,77.0,28.0,60.0,1.0,64.0
2011,77.0,4.0,120.0,13.0,64.0
2012,70.0,9.0,120.0,4.0,64.0
2013,62.0,43.0,150.0,6.0,64.0
2014,65.0,7.0,120.0,5.0,64.0
2015,77.0,24.0,90.0,2.0,64.0
2016,82.0,26.0,90.0,1.0,64.0
2017,76.0,119.0,120.0,13.0,64.0
2018,76.0,23.0,90.0,2.0,64.0
2019,77.0,16.0,120.0,13.0,64.0
2020,77.0,22.0,120.0,1.0,64.0
2021,72.0,8.0,180.0,4.0,64.0
2022,77.0,20.0,150.0,2.0,64.0
2023,65.0,6.0,180.0,5.0,64.0
2024,57.0,49.0,180.0,6.0,64.0
2025,76.0,99.0,120.0,1.0,64.0
2026,65.0,0.0,120.0,5.0,64.0
2027,77.0,0.0,90.0,1.0,64.0
2028,53.0,5.0,120.0,11.0,64.0
2029,72.0,3.0,120.0,4.0,64.0
2030,65.0,4.0,120.0,15.0,64.0
2031,57.0,47.0,150.0,6.0,64.0
2032,65.0,8.0,90.0,7.0,64.0
2033,65.0,30.0,120.0,12.0,64.0
2034,72.0,3.0,60.0,12.0,64.0
2035,69.0,12.0,90.0,12.0,64.0
2036,52.0,4.0,120.0,11.0,64.0
2037,79.0,3.0,90.0,1.0,64.0
2038,64.0,73.0,120.0,15.0,64.0
2039,64.0,28.0,90.0,7.0,64.0
2040,64.0,3.0,120.0,12.0,64.0
2041,65.0,1.0,90.0,15.0,64.0
2042,72.0,57.0,120.0,4.0,64.0
2043,57.0,26.0,180.0,6.0,64.0
2044,77.0,2.0,120.0,1.0,64.0
2045,65.0,13.0,120.0,5.0,64.0
2046,65.0,9.0,90.0,7.0,64.0
2047,53.0,1.0,90.0,11.0,64.0
2048,65.0,16.0,90.0,12.0,64.0
2049,69.0,0.0,90.0,12.0,64.0
2050,72.0,4.0,60.0,12.0,64.0
2051,84.0,108.0,90.0,1.0,64.0
2052,58.0,70.0,120.0,6.0,64.0
2053,74.0,2.0,120.0,4.0,64.0
2054,65.0,10.0,120.0,5.0,64.0
2055,77.0,25.0,60.0,1.0,64.0
2056,77.0,1.0,120.0,13.0,64.0
2057,77.0,18.0,90.0,2.0,64.0
2058,86.0,12.0,90.0,1.0,64.0
2059,76.0,114.0,120.0,13.0,64.0
2060,76.0,40.0,90.0,2.0,64.0
2061,60.0,38.0,210.0,6.0,64.0
2062,77.0,27.0,150.0,2.0,64.0
2063,77.0,3.0,150.0,13.0,64.0
2064,65.0,4.0,150.0,4.0,64.0
2065,65.0,31.0,180.0,14.0,64.0
2066,81.0,20.0,120.0,1.0,64.0
2067,79.0,5.0,120.0,1.0,64.0
2068,64.0,83.0,120.0,4.0,64.0
2069,53.0,15.0,120.0,15.0,64.0
2070,81.0,0.0,90.0,1.0,64.0
2071,53.0,0.0,90.0,7.0,64.0
2072,72.0,7.0,90.0,3.0,64.0
2073,65.0,6.0,90.0,4.0,64.0
2074,77.0,0.0,90.0,2.0,64.0
2075,41.0,69.0,120.0,11.0,64.0
2076,72.0,5.0,90.0,12.0,64.0
2077,69.0,1.0,90.0,12.0,64.0
2078,53.0,11.0,90.0,12.0,64.0
2079,82.0,6.0,90.0,1.0,64.0
2080,52.0,66.0,120.0,15.0,64.0
2081,52.0,3.0,90.0,7.0,64.0
2082,40.0,13.0,90.0,11.0,64.0
2083,52.0,2.0,90.0,12.0,64.0
2084,67.0,5.0,90.0,4.0,64.0
2085,53.0,13.0,90.0,12.0,64.0
2086,41.0,9.0,60.0,11.0,64.0
2087,72.0,38.0,150.0,3.0,64.0
2088,81.0,9.0,120.0,1.0,64.0
2089,53.0,3.0,90.0,15.0,64.0
2090,53.0,15.0,90.0,7.0,64.0
2091,69.0,4.0,90.0,12.0,64.0
2092,60.0,0.0,90.0,12.0,64.0
2093,65.0,1.0,90.0,4.0,64.0
2094,77.0,38.0,120.0,2.0,64.0
2095,69.0,4.0,60.0,4.0,64.0
2096,72.0,122.0,60.0,1.0,64.0
2097,65.0,20.0,90.0,4.0,64.0
2098,74.0,16.0,120.0,3.0,64.0
2099,65.0,72.0,120.0,14.0,64.0
2100,77.0,2.0,120.0,2.0,64.0
2101,82.0,6.0,90.0,1.0,64.0
2102,70.0,2.0,90.0,4.0,64.0
2103,74.0,49.0,90.0,1.0,64.0
2104,64.0,123.0,120.0,14.0,64.0
2105,72.0,65.0,180.0,3.0,64.0
2106,65.0,12.0,120.0,4.0,64.0
2107,77.0,6.0,150.0,2.0,64.0
2108,65.0,11.0,150.0,14.0,64.0
2109,81.0,1.0,150.0,1.0,64.0
2110,64.0,34.0,120.0,4.0,64.0
2111,79.0,63.0,120.0,1.0,64.0
2112,41.0,15.0,120.0,11.0,64.0
2113,65.0,1.0,90.0,4.0,64.0
2114,72.0,2.0,90.0,3.0,64.0
2115,53.0,0.0,120.0,15.0,64.0
2116,69.0,3.0,90.0,12.0,64.0
2117,77.0,9.0,90.0,2.0,64.0
2118,60.0,6.0,90.0,12.0,64.0
2119,81.0,1.0,90.0,1.0,64.0
2120,53.0,6.0,90.0,7.0,64.0
2121,53.0,82.0,120.0,12.0,64.0
2122,40.0,14.0,120.0,11.0,64.0
2123,52.0,1.0,120.0,15.0,64.0
2124,67.0,6.0,90.0,4.0,64.0
2125,52.0,2.0,90.0,7.0,64.0
2126,82.0,2.0,90.0,1.0,64.0
2127,52.0,87.0,120.0,12.0,64.0
2128,53.0,1.0,120.0,7.0,64.0
2129,41.0,7.0,90.0,11.0,64.0
2130,53.0,3.0,90.0,15.0,64.0
2131,53.0,1.0,90.0,12.0,64.0
2132,65.0,7.0,90.0,4.0,64.0
2133,72.0,20.0,180.0,3.0,64.0
2134,57.0,3.0,90.0,12.0,64.0
2135,81.0,3.0,90.0,1.0,64.0
2136,77.0,1.0,90.0,2.0,64.0
2137,60.0,73.0,90.0,12.0,64.0
2138,72.0,117.0,90.0,4.0,64.0
2139,75.0,7.0,90.0,1.0,64.0
2140,65.0,0.0,90.0,4.0,64.0
2141,74.0,18.0,90.0,3.0,64.0
2142,82.0,14.0,90.0,1.0,64.0
2143,77.0,11.0,120.0,2.0,64.0
2144,65.0,67.0,120.0,14.0,64.0
2145,74.0,52.0,90.0,4.0,64.0
2146,64.0,91.0,120.0,14.0,64.0
2147,74.0,5.0,60.0,1.0,64.0
2148,75.0,13.0,120.0,4.0,64.0
2149,65.0,19.0,120.0,3.0,64.0
2150,72.0,3.0,120.0,1.0,64.0
2151,65.0,95.0,150.0,14.0,64.0
2152,77.0,17.0,90.0,2.0,64.0
2153,74.0,63.0,150.0,4.0,64.0
2154,70.0,4.0,120.0,1.0,64.0
2155,75.0,21.0,90.0,4.0,64.0
2156,65.0,1.0,120.0,3.0,64.0
2157,65.0,6.0,120.0,15.0,64.0
2158,77.0,5.0,90.0,2.0,64.0
2159,65.0,1.0,90.0,7.0,64.0
2160,60.0,2.0,90.0,6.0,64.0
2161,72.0,4.0,90.0,1.0,64.0
2162,69.0,30.0,150.0,12.0,64.0
2163,72.0,0.0,150.0,12.0,64.0
2164,65.0,3.0,90.0,12.0,64.0
2165,65.0,7.0,90.0,5.0,64.0
2166,53.0,46.0,120.0,11.0,64.0
2167,77.0,8.0,90.0,4.0,64.0
2168,51.0,2.0,90.0,11.0,64.0
2169,63.0,61.0,120.0,15.0,64.0
2170,63.0,9.0,90.0,7.0,64.0
2171,63.0,7.0,120.0,12.0,64.0
2172,74.0,10.0,90.0,1.0,64.0
2173,65.0,3.0,90.0,7.0,64.0
2174,53.0,15.0,60.0,11.0,64.0
2175,65.0,9.0,90.0,15.0,64.0
2176,75.0,63.0,150.0,4.0,64.0
2177,65.0,1.0,60.0,12.0,64.0
2178,65.0,2.0,120.0,3.0,64.0
2179,72.0,1.0,120.0,1.0,64.0
2180,77.0,0.0,90.0,12.0,64.0
2181,69.0,0.0,90.0,12.0,64.0
2182,72.0,13.0,90.0,12.0,64.0
2183,77.0,7.0,90.0,2.0,64.0
2184,60.0,3.0,90.0,6.0,64.0
2185,65.0,31.0,90.0,5.0,64.0
2186,74.0,41.0,120.0,4.0,64.0
2187,82.0,48.0,90.0,1.0,64.0
2188,53.0,2.0,90.0,7.0,64.0
2189,41.0,11.0,60.0,11.0,64.0
2190,77.0,3.0,90.0,3.0,64.0
2191,72.0,15.0,90.0,1.0,64.0
2192,75.0,3.0,90.0,4.0,64.0
2193,53.0,9.0,60.0,15.0,64.0
2194,72.0,1.0,90.0,2.0,64.0
2195,53.0,4.0,90.0,12.0,64.0
2196,75.0,1.0,60.0,12.0,64.0
2197,72.0,0.0,60.0,12.0,64.0
2198,69.0,0.0,60.0,12.0,64.0
2199,65.0,83.0,90.0,6.0,64.0
2200,69.0,2.0,90.0,5.0,64.0
2201,81.0,16.0,60.0,1.0,64.0
2202,72.0,158.0,90.0,4.0,64.0
2203,34.0,5.0,180.0,11.0,64.0
2204,46.0,2.0,150.0,7.0,64.0
2205,46.0,8.0,120.0,15.0,64.0
2206,77.0,10.0,180.0,3.0,64.0
2207,82.0,5.0,180.0,1.0,64.0
2208,70.0,25.0,150.0,2.0,64.0
2209,65.0,4.0,180.0,5.0,64.0
2210,46.0,0.0,180.0,12.0,64.0
2211,65.0,14.0,120.0,6.0,64.0
2212,74.0,0.0,180.0,12.0,64.0
2213,74.0,39.0,180.0,4.0,64.0
2214,69.0,63.0,120.0,2.0,64.0
2215,46.0,3.0,90.0,11.0,64.0
2216,58.0,8.0,90.0,15.0,64.0
2217,65.0,35.0,180.0,6.0,64.0
2218,70.0,2.0,90.0,2.0,64.0
2219,77.0,37.0,60.0,12.0,64.0
2220,74.0,0.0,60.0,12.0,64.0
2221,58.0,1.0,90.0,7.0,64.0
2222,74.0,6.0,150.0,4.0,64.0
2223,70.0,42.0,120.0,5.0,64.0
2224,58.0,14.0,90.0,12.0,64.0
2225,45.0,9.0,120.0,11.0,64.0
2226,57.0,11.0,120.0,15.0,64.0
2227,72.0,2.0,90.0,2.0,64.0
2228,57.0,1.0,90.0,7.0,64.0
2229,57.0,62.0,120.0,12.0,64.0
2230,58.0,4.0,90.0,7.0,64.0
2231,58.0,13.0,90.0,15.0,64.0
2232,65.0,67.0,240.0,6.0,64.0
2233,46.0,18.0,60.0,11.0,64.0
2234,70.0,3.0,90.0,2.0,64.0
2235,58.0,50.0,90.0,12.0,64.0
2236,74.0,25.0,210.0,4.0,64.0
2237,74.0,2.0,60.0,12.0,64.0
2238,70.0,56.0,150.0,5.0,64.0
2239,65.0,0.0,60.0,12.0,64.0
2240,74.0,16.0,90.0,2.0,64.0
2241,70.0,32.0,60.0,2.0,64.0
2242,67.0,15.0,180.0,6.0,64.0
2243,70.0,15.0,120.0,5.0,64.0
2244,75.0,3.0,180.0,4.0,64.0
2245,70.0,30.0,120.0,13.0,64.0
2246,70.0,20.0,90.0,1.0,64.0
2247,75.0,30.0,60.0,2.0,64.0
2248,69.0,152.0,120.0,13.0,64.0
2249,69.0,20.0,90.0,1.0,64.0
2250,70.0,8.0,180.0,5.0,64.0
2251,70.0,6.0,150.0,13.0,64.0
2252,77.0,43.0,180.0,4.0,64.0
2253,70.0,2.0,150.0,2.0,64.0
2254,62.0,12.0,180.0,6.0,64.0
2255,70.0,13.0,150.0,1.0,64.0
2256,69.0,100.0,120.0,2.0,64.0
2257,46.0,1.0,120.0,11.0,64.0
2258,70.0,2.0,90.0,2.0,64.0
2259,70.0,5.0,120.0,5.0,64.0
2260,58.0,5.0,120.0,15.0,64.0
2261,77.0,67.0,120.0,4.0,64.0
2262,62.0,6.0,120.0,6.0,64.0
2263,58.0,12.0,90.0,7.0,64.0
2264,58.0,5.0,120.0,12.0,64.0
2265,74.0,0.0,90.0,12.0,64.0
2266,65.0,8.0,90.0,12.0,64.0
2267,45.0,0.0,90.0,11.0,64.0
2268,72.0,10.0,90.0,2.0,64.0
2269,57.0,1.0,90.0,15.0,64.0
2270,57.0,19.0,90.0,7.0,64.0
2271,57.0,51.0,120.0,12.0,64.0
2272,46.0,22.0,60.0,11.0,64.0
2273,58.0,5.0,90.0,12.0,64.0
2274,58.0,2.0,60.0,15.0,64.0
2275,70.0,13.0,90.0,2.0,64.0
2276,70.0,74.0,120.0,5.0,64.0
2277,77.0,87.0,240.0,4.0,64.0
2278,62.0,26.0,210.0,6.0,64.0
2279,62.0,13.0,60.0,12.0,64.0
2280,70.0,0.0,60.0,12.0,64.0
2281,58.0,36.0,90.0,7.0,64.0
2282,77.0,0.0,90.0,2.0,64.0
2283,70.0,26.0,120.0,13.0,64.0
2284,70.0,21.0,90.0,2.0,64.0
2285,63.0,20.0,150.0,6.0,64.0
2286,79.0,10.0,210.0,4.0,64.0
2287,70.0,19.0,120.0,5.0,64.0
2288,70.0,9.0,90.0,1.0,64.0
2289,79.0,29.0,60.0,2.0,64.0
2290,69.0,127.0,120.0,13.0,64.0
2291,69.0,34.0,90.0,1.0,64.0
2292,70.0,55.0,150.0,13.0,64.0
2293,77.0,22.0,240.0,4.0,64.0
2294,70.0,4.0,150.0,1.0,64.0
2295,65.0,25.0,210.0,6.0,64.0
2296,74.0,3.0,120.0,2.0,64.0
2297,58.0,3.0,120.0,5.0,64.0
2298,72.0,69.0,120.0,2.0,64.0
2299,57.0,2.0,120.0,5.0,64.0
2300,74.0,8.0,90.0,2.0,64.0
2301,46.0,2.0,120.0,15.0,64.0
2302,34.0,8.0,120.0,11.0,64.0
2303,70.0,47.0,150.0,1.0,64.0
2304,70.0,14.0,90.0,12.0,64.0
2305,62.0,0.0,90.0,12.0,64.0
2306,65.0,4.0,120.0,3.0,64.0
2307,46.0,6.0,90.0,7.0,64.0
2308,58.0,19.0,90.0,5.0,64.0
2309,46.0,9.0,120.0,12.0,64.0
2310,75.0,3.0,90.0,2.0,64.0
2311,45.0,20.0,90.0,15.0,64.0
2312,33.0,15.0,90.0,11.0,64.0
2313,45.0,3.0,90.0,7.0,64.0
2314,60.0,5.0,90.0,5.0,64.0
2315,45.0,53.0,120.0,12.0,64.0
2316,34.0,11.0,60.0,11.0,64.0
2317,74.0,16.0,90.0,2.0,64.0
2318,70.0,38.0,150.0,1.0,64.0
2319,46.0,3.0,60.0,15.0,64.0
2320,58.0,18.0,90.0,5.0,64.0
2321,65.0,13.0,180.0,3.0,64.0
2322,62.0,2.0,60.0,12.0,64.0
2323,65.0,0.0,60.0,12.0,64.0
2324,46.0,20.0,120.0,7.0,64.0
2325,46.0,20.0,60.0,12.0,64.0
2326,65.0,22.0,90.0,2.0,64.0
2327,62.0,99.0,90.0,5.0,64.0
2328,75.0,15.0,90.0,2.0,64.0
2329,58.0,10.0,90.0,5.0,64.0
2330,70.0,2.0,120.0,1.0,64.0
2331,67.0,49.0,120.0,3.0,64.0
2332,58.0,6.0,120.0,14.0,64.0
2333,58.0,26.0,90.0,4.0,64.0
2334,63.0,5.0,90.0,5.0,64.0
2335,67.0,24.0,90.0,2.0,64.0
2336,57.0,113.0,120.0,14.0,64.0
2337,57.0,28.0,90.0,4.0,64.0
2338,65.0,20.0,210.0,3.0,64.0
2339,58.0,27.0,120.0,5.0,64.0
2340,74.0,2.0,120.0,2.0,64.0
2341,70.0,41.0,150.0,1.0,64.0
2342,58.0,5.0,150.0,4.0,64.0
2343,58.0,10.0,120.0,14.0,64.0
2344,57.0,25.0,120.0,5.0,64.0
2345,72.0,74.0,120.0,2.0,64.0
2346,58.0,3.0,120.0,5.0,64.0
2347,74.0,17.0,90.0,2.0,64.0
2348,70.0,9.0,120.0,1.0,64.0
2349,65.0,39.0,150.0,3.0,64.0
2350,46.0,2.0,120.0,15.0,64.0
2351,34.0,2.0,120.0,11.0,64.0
2352,65.0,0.0,60.0,12.0,64.0
2353,62.0,2.0,60.0,12.0,64.0
2354,46.0,14.0,90.0,7.0,64.0
2355,46.0,13.0,120.0,12.0,64.0
2356,33.0,17.0,60.0,11.0,64.0
2357,75.0,5.0,90.0,2.0,64.0
2358,60.0,11.0,90.0,5.0,64.0
2359,45.0,54.0,120.0,15.0,64.0
2360,45.0,27.0,90.0,7.0,64.0
2361,45.0,4.0,120.0,12.0,64.0
2362,34.0,9.0,60.0,11.0,64.0
2363,74.0,16.0,90.0,2.0,64.0
2364,58.0,9.0,90.0,5.0,64.0
2365,65.0,101.0,210.0,3.0,64.0
2366,46.0,16.0,90.0,15.0,64.0
2367,70.0,36.0,120.0,1.0,64.0
2368,46.0,24.0,150.0,7.0,64.0
2369,46.0,8.0,60.0,12.0,64.0
2370,62.0,0.0,60.0,12.0,64.0
2371,53.0,2.0,60.0,12.0,64.0
2372,65.0,15.0,90.0,5.0,64.0
2373,68.0,21.0,60.0,2.0,64.0
2374,75.0,11.0,90.0,2.0,64.0
2375,58.0,16.0,90.0,5.0,64.0
2376,67.0,37.0,150.0,3.0,64.0
2377,58.0,32.0,120.0,14.0,64.0
2378,70.0,11.0,90.0,1.0,64.0
2379,58.0,6.0,90.0,4.0,64.0
2380,67.0,16.0,90.0,5.0,64.0
2381,57.0,107.0,120.0,14.0,64.0
2382,67.0,11.0,90.0,2.0,64.0
2383,57.0,32.0,90.0,4.0,64.0
2384,68.0,32.0,120.0,5.0,64.0
2385,58.0,5.0,120.0,14.0,64.0
2386,65.0,5.0,120.0,2.0,64.0
2387,58.0,39.0,180.0,3.0,64.0
2388,58.0,35.0,150.0,4.0,64.0
2389,70.0,4.0,120.0,1.0,64.0
2390,67.0,17.0,120.0,5.0,64.0
2391,63.0,72.0,120.0,2.0,64.0
2392,68.0,10.0,90.0,5.0,64.0
2393,65.0,8.0,90.0,2.0,64.0
2394,58.0,6.0,120.0,15.0,64.0
2395,62.0,0.0,180.0,12.0,64.0
2396,65.0,7.0,180.0,12.0,64.0
2397,58.0,12.0,90.0,12.0,64.0
2398,58.0,39.0,120.0,3.0,64.0
2399,70.0,4.0,120.0,1.0,64.0
2400,58.0,17.0,120.0,4.0,64.0
2401,58.0,1.0,90.0,7.0,64.0
2402,46.0,3.0,120.0,11.0,64.0
2403,70.0,10.0,120.0,5.0,64.0
2404,44.0,5.0,120.0,11.0,64.0
2405,56.0,10.0,90.0,12.0,64.0
2406,56.0,81.0,120.0,15.0,64.0
2407,56.0,8.0,90.0,7.0,64.0
2408,75.0,13.0,60.0,2.0,64.0
2409,68.0,0.0,90.0,12.0,64.0
2410,65.0,0.0,90.0,12.0,64.0
2411,62.0,0.0,90.0,12.0,64.0
2412,58.0,16.0,90.0,12.0,64.0
2413,58.0,2.0,90.0,7.0,64.0
2414,58.0,0.0,90.0,15.0,64.0
2415,68.0,57.0,120.0,5.0,64.0
2416,65.0,4.0,90.0,2.0,64.0
2417,46.0,8.0,90.0,11.0,64.0
2418,70.0,17.0,90.0,1.0,64.0
2419,58.0,4.0,120.0,3.0,64.0
2420,58.0,2.0,120.0,4.0,64.0
2421,67.0,38.0,150.0,5.0,64.0
2422,75.0,76.0,60.0,2.0,64.0
2423,34.0,15.0,60.0,11.0,64.0
2424,46.0,3.0,90.0,15.0,64.0
2425,65.0,10.0,90.0,2.0,64.0
2426,65.0,3.0,90.0,1.0,64.0
2427,58.0,8.0,120.0,3.0,64.0
2428,68.0,12.0,90.0,5.0,64.0
2429,62.0,64.0,120.0,4.0,64.0
2430,74.0,2.0,60.0,12.0,64.0
2431,65.0,0.0,60.0,12.0,64.0
2432,68.0,0.0,60.0,12.0,64.0
2433,46.0,6.0,60.0,12.0,64.0
2434,46.0,1.0,90.0,7.0,64.0
2435,74.0,20.0,60.0,2.0,64.0
2436,65.0,122.0,90.0,5.0,64.0
2437,51.0,58.0,390.0,7.0,64.0
2438,39.0,43.0,450.0,11.0,64.0
2439,51.0,1.0,330.0,15.0,64.0
2440,63.0,6.0,90.0,1.0,64.0
2441,67.0,76.0,120.0,5.0,64.0
2442,58.0,10.0,90.0,3.0,64.0
2443,75.0,0.0,120.0,2.0,64.0
2444,58.0,29.0,90.0,4.0,64.0
2445,51.0,68.0,510.0,12.0,64.0
2446,67.0,37.0,480.0,12.0,64.0
2447,70.0,0.0,480.0,12.0,64.0
2448,75.0,2.0,480.0,12.0,64.0
2449,62.0,5.0,90.0,14.0,64.0
2450,62.0,7.0,90.0,4.0,64.0
2451,70.0,91.0,90.0,1.0,64.0
2452,70.0,6.0,90.0,13.0,64.0
2453,63.0,7.0,90.0,4.0,64.0
2454,63.0,1.0,90.0,14.0,64.0
2455,72.0,9.0,90.0,13.0,64.0
2456,72.0,37.0,90.0,1.0,64.0
2457,74.0,1.0,90.0,1.0,64.0
2458,65.0,3.0,60.0,4.0,64.0
2459,65.0,4.0,90.0,14.0,64.0
2460,74.0,2.0,90.0,13.0,64.0
2461,67.0,9.0,120.0,4.0,64.0
2462,75.0,72.0,240.0,1.0,64.0
2463,75.0,13.0,210.0,13.0,64.0
2464,67.0,77.0,120.0,14.0,64.0
2465,65.0,4.0,120.0,14.0,64.0
2466,38.0,2.0,90.0,11.0,64.0
2467,68.0,0.0,120.0,12.0,64.0
2468,65.0,8.0,120.0,12.0,64.0
2469,50.0,0.0,120.0,12.0,64.0
2470,50.0,8.0,90.0,7.0,64.0
2471,65.0,5.0,90.0,4.0,64.0
2472,50.0,3.0,90.0,15.0,64.0
2473,39.0,2.0,90.0,11.0,64.0
2474,63.0,0.0,120.0,12.0,64.0
2475,67.0,61.0,120.0,12.0,64.0
2476,51.0,0.0,120.0,12.0,64.0
2477,67.0,1.0,90.0,14.0,64.0
2478,51.0,13.0,60.0,7.0,64.0
2479,51.0,2.0,60.0,15.0,64.0
2480,67.0,27.0,90.0,4.0,64.0
2481,41.0,0.0,90.0,11.0,64.0
2482,53.0,117.0,120.0,12.0,64.0
2483,65.0,0.0,120.0,12.0,64.0
2484,62.0,0.0,120.0,12.0,64.0
2485,68.0,23.0,90.0,4.0,64.0
2486,53.0,5.0,60.0,7.0,64.0
2487,68.0,18.0,60.0,14.0,64.0
2488,53.0,8.0,60.0,15.0,64.0
2489,63.0,0.0,120.0,12.0,64.0
2490,55.0,12.0,120.0,12.0,64.0
2491,55.0,195.0,150.0,7.0,64.0
2492,43.0,8.0,120.0,11.0,64.0
2493,70.0,9.0,150.0,4.0,64.0
2494,70.0,1.0,120.0,14.0,64.0
2495,55.0,8.0,90.0,15.0,64.0
2496,48.0,29.0,120.0,11.0,64.0
2497,63.0,0.0,90.0,6.0,64.0
2498,70.0,62.0,150.0,4.0,64.0
2499,60.0,7.0,120.0,15.0,64.0
2500,60.0,1.0,90.0,7.0,64.0
2501,87.0,0.0,90.0,1.0,64.0
2502,67.0,1.0,90.0,5.0,64.0
2503,60.0,2.0,90.0,12.0,64.0
2504,84.0,10.0,90.0,2.0,64.0
2505,79.0,0.0,90.0,3.0,64.0
2506,46.0,11.0,120.0,11.0,64.0
2507,58.0,87.0,120.0,15.0,64.0
2508,58.0,1.0,120.0,12.0,64.0
2509,58.0,2.0,90.0,7.0,64.0
2510,86.0,1.0,90.0,1.0,64.0
2511,80.0,5.0,90.0,3.0,64.0
2512,86.0,0.0,90.0,2.0,64.0
2513,48.0,15.0,120.0,11.0,64.0
2514,60.0,12.0,90.0,7.0,64.0
2515,67.0,4.0,180.0,5.0,64.0
2516,87.0,6.0,150.0,1.0,64.0
2517,63.0,12.0,180.0,6.0,64.0
2518,60.0,25.0,90.0,15.0,64.0
2519,60.0,9.0,180.0,12.0,64.0
2520,75.0,12.0,180.0,12.0,64.0
2521,72.0,1.0,180.0,12.0,64.0
2522,67.0,2.0,210.0,12.0,64.0
2523,70.0,116.0,210.0,4.0,64.0
2524,79.0,27.0,150.0,3.0,64.0
2525,84.0,11.0,120.0,2.0,64.0
2526,41.0,10.0,120.0,11.0,64.0
2527,87.0,9.0,90.0,1.0,64.0
2528,53.0,1.0,90.0,15.0,64.0
2529,53.0,0.0,90.0,7.0,64.0
2530,65.0,1.0,90.0,5.0,64.0
2531,80.0,18.0,90.0,3.0,64.0
2532,68.0,0.0,90.0,4.0,64.0
2533,84.0,1.0,120.0,2.0,64.0
2534,53.0,0.0,90.0,12.0,64.0
2535,60.0,81.0,90.0,6.0,64.0
2536,39.0,18.0,150.0,11.0,64.0
2537,51.0,6.0,120.0,15.0,64.0
2538,62.0,11.0,120.0,6.0,64.0
2539,51.0,1.0,90.0,7.0,64.0
2540,67.0,1.0,90.0,5.0,64.0
2541,67.0,24.0,90.0,4.0,64.0
2542,51.0,37.0,150.0,12.0,64.0
2543,41.0,20.0,120.0,11.0,64.0
2544,65.0,16.0,150.0,5.0,64.0
2545,53.0,24.0,90.0,7.0,64.0
2546,53.0,30.0,60.0,15.0,64.0
2547,87.0,3.0,210.0,1.0,64.0
2548,84.0,4.0,210.0,2.0,64.0
2549,68.0,1.0,210.0,12.0,64.0
2550,53.0,6.0,120.0,12.0,64.0
2551,75.0,107.0,210.0,12.0,64.0
2552,72.0,2.0,210.0,12.0,64.0
2553,60.0,8.0,150.0,6.0,64.0
2554,80.0,2.0,150.0,3.0,64.0
2555,68.0,47.0,150.0,4.0,64.0
2556,58.0,8.0,120.0,12.0,64.0
2557,62.0,1.0,90.0,6.0,64.0
2558,58.0,0.0,90.0,7.0,64.0
2559,46.0,79.0,120.0,11.0,64.0
2560,58.0,4.0,90.0,15.0,64.0
2561,65.0,1.0,90.0,5.0,64.0
2562,86.0,0.0,90.0,1.0,64.0
2563,82.0,0.0,90.0,2.0,64.0
2564,77.0,8.0,90.0,3.0,64.0
2565,68.0,12.0,90.0,4.0,64.0
2566,56.0,19.0,120.0,12.0,64.0
2567,56.0,78.0,120.0,15.0,64.0
2568,44.0,2.0,120.0,11.0,64.0
2569,56.0,1.0,90.0,7.0,64.0
2570,84.0,1.0,90.0,1.0,64.0
2571,79.0,11.0,90.0,3.0,64.0
2572,84.0,0.0,90.0,2.0,64.0
2573,58.0,20.0,90.0,15.0,64.0
2574,46.0,20.0,120.0,11.0,64.0
2575,58.0,5.0,210.0,12.0,64.0
2576,86.0,1.0,150.0,1.0,64.0
2577,82.0,11.0,150.0,2.0,64.0
2578,74.0,106.0,210.0,12.0,64.0
2579,68.0,3.0,210.0,12.0,64.0
2580,65.0,1.0,210.0,12.0,64.0
2581,62.0,18.0,180.0,6.0,64.0
2582,68.0,12.0,210.0,4.0,64.0
2583,58.0,16.0,90.0,7.0,64.0
2584,65.0,12.0,180.0,5.0,64.0
2585,77.0,25.0,150.0,3.0,64.0
2586,39.0,2.0,90.0,11.0,64.0
2587,51.0,1.0,90.0,7.0,64.0
2588,63.0,1.0,90.0,5.0,64.0
2589,82.0,1.0,90.0,2.0,64.0
2590,79.0,0.0,90.0,3.0,64.0
2591,51.0,22.0,120.0,15.0,64.0
2592,86.0,5.0,90.0,1.0,64.0
2593,67.0,6.0,90.0,4.0,64.0
2594,51.0,12.0,90.0,12.0,64.0
2595,58.0,68.0,120.0,6.0,64.0
2596,38.0,42.0,150.0,11.0,64.0
2597,50.0,1.0,90.0,7.0,64.0
2598,65.0,1.0,90.0,5.0,64.0
2599,65.0,27.0,90.0,4.0,64.0
2600,50.0,24.0,120.0,15.0,64.0
2601,50.0,4.0,120.0,12.0,64.0
2602,60.0,2.0,120.0,6.0,64.0
2603,39.0,16.0,150.0,11.0,64.0
2604,85.0,15.0,210.0,1.0,64.0
2605,63.0,8.0,150.0,5.0,64.0
2606,82.0,103.0,240.0,2.0,64.0
2607,51.0,42.0,60.0,15.0,64.0
2608,73.0,1.0,210.0,12.0,64.0
2609,67.0,3.0,210.0,12.0,64.0
2610,51.0,26.0,120.0,12.0,64.0
2611,70.0,6.0,210.0,12.0,64.0
2612,79.0,2.0,180.0,3.0,64.0
2613,51.0,11.0,120.0,7.0,64.0
2614,67.0,1.0,150.0,4.0,64.0
2615,58.0,32.0,150.0,6.0,64.0
2616,84.0,10.0,90.0,1.0,64.0
2617,56.0,2.0,90.0,7.0,64.0
2618,56.0,3.0,90.0,15.0,64.0
2619,80.0,0.0,90.0,2.0,64.0
2620,75.0,6.0,90.0,3.0,64.0
2621,63.0,1.0,90.0,5.0,64.0
2622,60.0,2.0,120.0,6.0,64.0
2623,44.0,29.0,120.0,11.0,64.0
2624,56.0,7.0,90.0,12.0,64.0
2625,72.0,0.0,90.0,12.0,64.0
2626,67.0,53.0,120.0,4.0,64.0
2627,43.0,8.0,120.0,11.0,64.0
2628,55.0,20.0,120.0,15.0,64.0
2629,55.0,2.0,90.0,7.0,64.0
2630,82.0,0.0,90.0,2.0,64.0
2631,77.0,8.0,90.0,3.0,64.0
2632,82.0,10.0,90.0,1.0,64.0
2633,55.0,98.0,120.0,12.0,64.0
2634,44.0,30.0,570.0,11.0,64.0
2635,56.0,0.0,540.0,15.0,64.0
2636,84.0,21.0,120.0,1.0,64.0
2637,56.0,12.0,540.0,7.0,64.0
2638,75.0,1.0,150.0,3.0,64.0
2639,80.0,34.0,150.0,2.0,64.0
2640,56.0,3.0,540.0,12.0,64.0
2641,67.0,9.0,210.0,4.0,64.0
2642,63.0,32.0,180.0,5.0,64.0
2643,60.0,11.0,90.0,6.0,64.0
2644,60.0,5.0,480.0,12.0,64.0
2645,63.0,14.0,450.0,12.0,64.0
2646,68.0,11.0,420.0,12.0,64.0
2647,82.0,112.0,90.0,1.0,64.0
2648,72.0,20.0,360.0,12.0,64.0
2649,65.0,3.0,150.0,5.0,64.0
2650,80.0,3.0,90.0,1.0,64.0
2651,72.0,25.0,90.0,2.0,64.0
2652,77.0,0.0,90.0,3.0,64.0
2653,65.0,12.0,90.0,4.0,64.0
2654,60.0,69.0,120.0,6.0,64.0
2655,63.0,46.0,90.0,4.0,64.0
2656,79.0,4.0,90.0,1.0,64.0
2657,70.0,6.0,120.0,3.0,64.0
2658,74.0,22.0,120.0,2.0,64.0
2659,53.0,9.0,150.0,6.0,64.0
2660,77.0,9.0,120.0,1.0,64.0
2661,65.0,38.0,150.0,5.0,64.0
2662,62.0,6.0,120.0,4.0,64.0
2663,58.0,3.0,90.0,15.0,64.0
2664,46.0,3.0,90.0,11.0,64.0
2665,58.0,3.0,90.0,7.0,64.0
2666,58.0,4.0,90.0,12.0,64.0
2667,74.0,10.0,90.0,1.0,64.0
2668,58.0,87.0,90.0,4.0,64.0
2669,44.0,6.0,90.0,11.0,64.0
2670,62.0,5.0,120.0,4.0,64.0
2671,56.0,1.0,90.0,15.0,64.0
2672,56.0,6.0,60.0,7.0,64.0
2673,58.0,24.0,180.0,12.0,64.0
2674,62.0,0.0,180.0,12.0,64.0
2675,56.0,6.0,90.0,12.0,64.0
2676,74.0,31.0,120.0,2.0,64.0
2677,70.0,7.0,120.0,3.0,64.0
2678,58.0,4.0,90.0,6.0,64.0
2679,70.0,18.0,90.0,1.0,64.0
2680,65.0,17.0,150.0,5.0,64.0
2681,43.0,1.0,90.0,11.0,64.0
2682,55.0,7.0,60.0,15.0,64.0
2683,55.0,10.0,60.0,7.0,64.0
2684,63.0,83.0,90.0,4.0,64.0
2685,72.0,0.0,90.0,1.0,64.0
2686,55.0,2.0,90.0,12.0,64.0
2687,41.0,18.0,90.0,11.0,64.0
2688,53.0,7.0,60.0,15.0,64.0
2689,65.0,7.0,120.0,4.0,64.0
2690,74.0,1.0,90.0,1.0,64.0
2691,58.0,3.0,90.0,6.0,64.0
2692,65.0,43.0,120.0,5.0,64.0
2693,53.0,3.0,90.0,7.0,64.0
2694,62.0,0.0,90.0,12.0,64.0
2695,58.0,0.0,90.0,12.0,64.0
2696,65.0,9.0,90.0,12.0,64.0
2697,70.0,1.0,120.0,3.0,64.0
2698,74.0,20.0,120.0,2.0,64.0
2699,53.0,4.0,90.0,12.0,64.0
2700,67.0,14.0,90.0,4.0,64.0
2701,39.0,1.0,60.0,11.0,64.0
2702,51.0,3.0,60.0,15.0,64.0
2703,75.0,2.0,90.0,1.0,64.0
2704,72.0,48.0,120.0,2.0,64.0
2705,51.0,18.0,60.0,7.0,64.0
2706,51.0,23.0,90.0,12.0,64.0
2707,38.0,11.0,60.0,11.0,64.0
2708,58.0,7.0,90.0,6.0,64.0
2709,68.0,11.0,90.0,4.0,64.0
2710,65.0,3.0,120.0,5.0,64.0
2711,50.0,3.0,60.0,15.0,64.0
2712,70.0,0.0,90.0,12.0,64.0
2713,62.0,4.0,90.0,12.0,64.0
2714,65.0,0.0,90.0,12.0,64.0
2715,50.0,8.0,60.0,7.0,64.0
2716,70.0,51.0,120.0,3.0,64.0
2717,50.0,8.0,90.0,12.0,64.0
2718,77.0,13.0,90.0,1.0,64.0
2719,74.0,2.0,90.0,2.0,64.0
2720,36.0,1.0,60.0,11.0,64.0
2721,70.0,18.0,90.0,4.0,64.0
2722,48.0,4.0,60.0,15.0,64.0
2723,48.0,15.0,60.0,7.0,64.0
2724,48.0,87.0,90.0,12.0,64.0
2725,75.0,9.0,90.0,2.0,64.0
2726,79.0,6.0,90.0,1.0,64.0
2727,65.0,27.0,240.0,5.0,64.0
2728,72.0,39.0,120.0,4.0,64.0
2729,34.0,4.0,180.0,11.0,64.0
2730,58.0,20.0,90.0,6.0,64.0
2731,77.0,12.0,150.0,2.0,64.0
2732,46.0,6.0,240.0,12.0,64.0
2733,46.0,7.0,150.0,7.0,64.0
2734,80.0,7.0,120.0,1.0,64.0
2735,46.0,8.0,150.0,15.0,64.0
2736,65.0,30.0,150.0,3.0,64.0
2737,68.0,22.0,240.0,12.0,64.0
2738,65.0,0.0,240.0,12.0,64.0
2739,74.0,0.0,240.0,12.0,64.0
2740,74.0,16.0,90.0,4.0,64.0
2741,82.0,2.0,90.0,1.0,64.0
2742,80.0,21.0,60.0,1.0,64.0
2743,75.0,19.0,60.0,4.0,64.0
2744,67.0,1.0,150.0,5.0,64.0
2745,58.0,2.0,90.0,6.0,64.0
2746,39.0,1.0,90.0,11.0,64.0
2747,51.0,1.0,60.0,15.0,64.0
2748,51.0,18.0,90.0,7.0,64.0
2749,70.0,2.0,90.0,2.0,64.0
2750,63.0,20.0,90.0,3.0,64.0
2751,51.0,1.0,60.0,12.0,64.0
2752,75.0,11.0,120.0,12.0,64.0
2753,67.0,6.0,90.0,12.0,64.0
2754,79.0,7.0,60.0,1.0,64.0
2755,80.0,28.0,60.0,1.0,64.0
2756,77.0,43.0,90.0,4.0,64.0
2757,82.0,84.0,90.0,1.0,64.0
2758,46.0,2.0,90.0,11.0,64.0
2759,58.0,2.0,90.0,6.0,64.0
2760,75.0,6.0,90.0,4.0,64.0
2761,58.0,7.0,60.0,7.0,64.0
2762,68.0,12.0,150.0,5.0,64.0
2763,58.0,16.0,90.0,15.0,64.0
2764,70.0,23.0,120.0,2.0,64.0
2765,79.0,10.0,120.0,1.0,64.0
2766,58.0,5.0,60.0,12.0,64.0
2767,65.0,11.0,90.0,3.0,64.0
2768,65.0,4.0,60.0,12.0,64.0
2769,75.0,0.0,60.0,12.0,64.0
2770,68.0,0.0,60.0,12.0,64.0
2771,74.0,6.0,60.0,4.0,64.0
2772,77.0,25.0,60.0,1.0,64.0
2773,75.0,19.0,60.0,4.0,64.0
2774,79.0,19.0,60.0,1.0,64.0
2775,74.0,17.0,60.0,4.0,64.0
2776,77.0,36.0,60.0,1.0,64.0
2777,75.0,6.0,90.0,4.0,64.0
2778,34.0,7.0,90.0,11.0,64.0
2779,79.0,14.0,60.0,1.0,64.0
2780,46.0,1.0,90.0,15.0,64.0
2781,46.0,3.0,90.0,7.0,64.0
2782,58.0,12.0,90.0,6.0,64.0
2783,70.0,26.0,120.0,2.0,64.0
2784,65.0,21.0,90.0,3.0,64.0
2785,46.0,2.0,60.0,12.0,64.0
2786,68.0,13.0,60.0,12.0,64.0
2787,65.0,0.0,60.0,12.0,64.0
2788,74.0,0.0,60.0,12.0,64.0
2789,68.0,36.0,120.0,5.0,64.0
2790,74.0,1.0,120.0,4.0,64.0
2791,77.0,1.0,60.0,1.0,64.0
2792,75.0,19.0,90.0,1.0,64.0
2793,75.0,169.0,60.0,4.0,64.0
2794,39.0,4.0,420.0,11.0,64.0
2795,51.0,3.0,330.0,7.0,64.0
2796,51.0,3.0,330.0,15.0,64.0
2797,58.0,0.0,270.0,6.0,64.0
2798,75.0,46.0,390.0,12.0,64.0
2799,75.0,42.0,270.0,4.0,64.0
2800,70.0,2.0,390.0,12.0,64.0
2801,63.0,9.0,360.0,12.0,64.0
2802,67.0,10.0,390.0,12.0,64.0
2803,70.0,2.0,120.0,2.0,64.0
2804,51.0,9.0,300.0,12.0,64.0
2805,75.0,92.0,120.0,1.0,64.0
2806,67.0,13.0,120.0,3.0,64.0
2807,67.0,0.0,270.0,5.0,64.0
2808,74.0,6.0,120.0,1.0,64.0
2809,68.0,16.0,120.0,2.0,64.0
2810,65.0,20.0,120.0,3.0,64.0
2811,75.0,39.0,90.0,1.0,64.0
2812,70.0,3.0,90.0,2.0,64.0
2813,67.0,6.0,90.0,3.0,64.0
2814,77.0,114.0,90.0,1.0,64.0
2815,68.0,1.0,90.0,3.0,64.0
2816,72.0,3.0,90.0,2.0,64.0
2817,75.0,98.0,90.0,1.0,64.0
2818,67.0,11.0,90.0,3.0,64.0
2819,70.0,2.0,90.0,2.0,64.0
2820,70.0,2.0,90.0,3.0,64.0
2821,75.0,104.0,90.0,2.0,64.0
2822,79.0,10.0,90.0,1.0,64.0
2823,63.0,15.0,120.0,4.0,64.0
2824,77.0,6.0,90.0,1.0,64.0
2825,74.0,2.0,90.0,2.0,64.0
2826,68.0,11.0,90.0,3.0,64.0
2827,63.0,10.0,120.0,15.0,64.0
2828,68.0,5.0,60.0,12.0,64.0
2829,63.0,5.0,90.0,12.0,64.0
2830,63.0,1.0,90.0,7.0,64.0
2831,63.0,3.0,90.0,14.0,64.0
2832,51.0,44.0,120.0,11.0,64.0
2833,80.0,11.0,90.0,1.0,64.0
2834,77.0,9.0,90.0,2.0,64.0
2835,72.0,14.0,90.0,3.0,64.0
2836,62.0,92.0,150.0,15.0,64.0
2837,62.0,28.0,90.0,12.0,64.0
2838,62.0,11.0,90.0,7.0,64.0
2839,50.0,7.0,120.0,11.0,64.0
2840,79.0,10.0,120.0,1.0,64.0
2841,63.0,1.0,120.0,12.0,64.0
2842,75.0,12.0,120.0,2.0,64.0
2843,70.0,9.0,120.0,3.0,64.0
2844,63.0,1.0,120.0,7.0,64.0
2845,51.0,2.0,120.0,11.0,64.0
2846,67.0,6.0,240.0,12.0,64.0
2847,67.0,1.0,150.0,14.0,64.0
2848,63.0,1.0,120.0,15.0,64.0
2849,67.0,85.0,150.0,4.0,64.0
2850,77.0,59.0,150.0,1.0,64.0
2851,68.0,8.0,120.0,3.0,64.0
2852,74.0,5.0,120.0,2.0,64.0
2853,75.0,2.0,120.0,2.0,64.0
2854,70.0,6.0,90.0,3.0,64.0
2855,70.0,8.0,90.0,4.0,64.0
2856,70.0,10.0,60.0,14.0,64.0
2857,58.0,5.0,90.0,12.0,64.0
2858,58.0,13.0,90.0,15.0,64.0
2859,75.0,1.0,60.0,12.0,64.0
2860,79.0,1.0,90.0,1.0,64.0
2861,58.0,2.0,90.0,7.0,64.0
2862,46.0,84.0,120.0,11.0,64.0
2863,44.0,2.0,120.0,11.0,64.0
2864,56.0,55.0,150.0,15.0,64.0
2865,72.0,3.0,90.0,3.0,64.0
2866,77.0,4.0,90.0,2.0,64.0
2867,56.0,25.0,120.0,12.0,64.0
2868,56.0,17.0,90.0,7.0,64.0
2869,80.0,3.0,90.0,1.0,64.0
2870,46.0,4.0,90.0,11.0,64.0
2871,58.0,3.0,120.0,15.0,64.0
2872,75.0,11.0,90.0,2.0,64.0
2873,67.0,7.0,60.0,14.0,64.0
2874,58.0,74.0,120.0,7.0,64.0
2875,79.0,7.0,120.0,1.0,64.0
2876,58.0,1.0,90.0,12.0,64.0
2877,70.0,0.0,90.0,3.0,64.0
2878,67.0,7.0,90.0,4.0,64.0
2879,70.0,8.0,60.0,12.0,64.0
2880,79.0,18.0,60.0,2.0,64.0
2881,75.0,103.0,90.0,3.0,64.0
2882,82.0,1.0,90.0,1.0,64.0
2883,77.0,6.0,90.0,2.0,64.0
2884,63.0,1.0,90.0,14.0,64.0
2885,63.0,10.0,120.0,12.0,64.0
2886,70.0,8.0,90.0,3.0,64.0
2887,80.0,1.0,60.0,1.0,64.0
2888,63.0,11.0,120.0,15.0,64.0
2889,68.0,9.0,60.0,12.0,64.0
2890,63.0,12.0,90.0,7.0,64.0
2891,63.0,2.0,90.0,4.0,64.0
2892,51.0,53.0,120.0,11.0,64.0
2893,84.0,9.0,90.0,1.0,64.0
2894,80.0,7.0,90.0,2.0,64.0
2895,62.0,19.0,120.0,12.0,64.0
2896,77.0,8.0,90.0,3.0,64.0
2897,62.0,65.0,150.0,15.0,64.0
2898,62.0,29.0,90.0,7.0,64.0
2899,50.0,1.0,120.0,11.0,64.0
2900,79.0,4.0,150.0,2.0,64.0
2901,63.0,7.0,120.0,7.0,64.0
2902,63.0,20.0,180.0,12.0,64.0
2903,63.0,17.0,120.0,15.0,64.0
2904,82.0,23.0,150.0,1.0,64.0
2905,70.0,6.0,120.0,3.0,64.0
2906,67.0,14.0,150.0,14.0,64.0
2907,67.0,29.0,210.0,12.0,64.0
2908,51.0,27.0,60.0,11.0,64.0
2909,67.0,1.0,150.0,4.0,64.0
2910,77.0,11.0,120.0,2.0,64.0
2911,75.0,22.0,90.0,3.0,64.0
2912,80.0,44.0,150.0,1.0,64.0
2913,43.0,7.0,120.0,11.0,64.0
2914,55.0,0.0,90.0,15.0,64.0
2915,70.0,5.0,90.0,3.0,64.0
2916,70.0,14.0,60.0,14.0,64.0
2917,79.0,1.0,90.0,2.0,64.0
2918,55.0,2.0,90.0,7.0,64.0
2919,75.0,2.0,90.0,12.0,64.0
2920,70.0,7.0,60.0,4.0,64.0
2921,55.0,15.0,90.0,12.0,64.0
2922,82.0,80.0,90.0,1.0,64.0
2923,41.0,7.0,120.0,11.0,64.0
2924,53.0,57.0,120.0,15.0,64.0
2925,74.0,8.0,90.0,3.0,64.0
2926,53.0,9.0,90.0,7.0,64.0
2927,80.0,0.0,90.0,2.0,64.0
2928,53.0,12.0,90.0,12.0,64.0
2929,84.0,5.0,90.0,1.0,64.0
2930,43.0,14.0,90.0,11.0,64.0
2931,55.0,2.0,120.0,15.0,64.0
2932,55.0,82.0,120.0,7.0,64.0
2933,79.0,1.0,90.0,2.0,64.0
2934,70.0,1.0,120.0,3.0,64.0
2935,82.0,5.0,120.0,1.0,64.0
2936,67.0,1.0,90.0,14.0,64.0
2937,55.0,6.0,60.0,12.0,64.0
2938,67.0,15.0,90.0,4.0,64.0
2939,70.0,8.0,60.0,12.0,64.0
2940,80.0,106.0,90.0,2.0,64.0
2941,75.0,16.0,90.0,3.0,64.0
2942,84.0,1.0,90.0,1.0,64.0
2943,63.0,2.0,90.0,4.0,64.0
2944,79.0,10.0,90.0,2.0,64.0
2945,82.0,0.0,90.0,1.0,64.0
2946,70.0,3.0,90.0,3.0,64.0
2947,63.0,0.0,120.0,15.0,64.0
2948,63.0,4.0,90.0,14.0,64.0
2949,63.0,23.0,90.0,7.0,64.0
2950,67.0,63.0,120.0,12.0,64.0
2951,63.0,5.0,120.0,12.0,64.0
2952,51.0,5.0,120.0,11.0,64.0
2953,77.0,7.0,90.0,2.0,64.0
2954,62.0,78.0,150.0,15.0,64.0
2955,80.0,6.0,60.0,1.0,64.0
2956,74.0,4.0,90.0,3.0,64.0
2957,62.0,32.0,90.0,7.0,64.0
2958,65.0,11.0,120.0,12.0,64.0
2959,50.0,6.0,150.0,11.0,64.0
2960,62.0,5.0,120.0,12.0,64.0
2961,63.0,17.0,150.0,7.0,64.0
2962,70.0,76.0,150.0,4.0,64.0
2963,75.0,3.0,150.0,2.0,64.0
2964,79.0,6.0,120.0,1.0,64.0
2965,70.0,5.0,120.0,3.0,64.0
2966,63.0,4.0,120.0,15.0,64.0
2967,51.0,14.0,90.0,11.0,64.0
2968,67.0,0.0,150.0,12.0,64.0
2969,70.0,1.0,120.0,14.0,64.0
2970,63.0,1.0,150.0,12.0,64.0
2971,72.0,71.0,120.0,3.0,64.0
2972,80.0,3.0,120.0,1.0,64.0
2973,77.0,5.0,120.0,2.0,64.0
2974,79.0,1.0,90.0,1.0,64.0
2975,70.0,1.0,90.0,3.0,64.0
2976,75.0,15.0,90.0,2.0,64.0
2977,39.0,60.0,120.0,11.0,64.0
2978,51.0,4.0,90.0,15.0,64.0
2979,51.0,0.0,90.0,7.0,64.0
2980,70.0,12.0,60.0,14.0,64.0
2981,75.0,11.0,90.0,12.0,64.0
2982,51.0,0.0,90.0,12.0,64.0
2983,70.0,2.0,60.0,4.0,64.0
2984,41.0,2.0,90.0,11.0,64.0
2985,70.0,6.0,60.0,4.0,64.0
2986,77.0,2.0,90.0,1.0,64.0
2987,53.0,11.0,120.0,15.0,64.0
2988,68.0,12.0,90.0,3.0,64.0
2989,74.0,4.0,90.0,2.0,64.0
2990,53.0,27.0,90.0,7.0,64.0
2991,70.0,10.0,60.0,14.0,64.0
2992,53.0,70.0,120.0,12.0,64.0
2993,43.0,3.0,90.0,11.0,64.0
2994,70.0,10.0,180.0,4.0,64.0
2995,55.0,23.0,150.0,7.0,64.0
2996,70.0,14.0,180.0,14.0,64.0
2997,75.0,13.0,90.0,1.0,64.0
2998,55.0,16.0,120.0,15.0,64.0
2999,70.0,24.0,150.0,3.0,64.0
3000,75.0,3.0,180.0,2.0,64.0
3001,55.0,6.0,90.0,12.0,64.0
3002,70.0,9.0,90.0,12.0,64.0
3003,79.0,103.0,90.0,1.0,64.0
3004,45.0,2.0,90.0,11.0,64.0
3005,57.0,1.0,60.0,12.0,64.0
3006,77.0,2.0,90.0,1.0,64.0
3007,65.0,2.0,90.0,3.0,64.0
3008,57.0,87.0,120.0,15.0,64.0
3009,72.0,12.0,90.0,2.0,64.0
3010,65.0,16.0,60.0,12.0,64.0
3011,72.0,0.0,60.0,12.0,64.0
3012,57.0,11.0,90.0,7.0,64.0
3013,75.0,131.0,90.0,1.0,64.0
3014,46.0,30.0,120.0,11.0,64.0
3015,74.0,2.0,90.0,1.0,64.0
3016,70.0,2.0,90.0,2.0,64.0
3017,58.0,11.0,150.0,7.0,64.0
3018,58.0,4.0,120.0,15.0,64.0
3019,58.0,2.0,150.0,12.0,64.0
3020,65.0,3.0,90.0,3.0,64.0
3021,62.0,11.0,120.0,6.0,64.0
3022,65.0,29.0,210.0,12.0,64.0
3023,74.0,0.0,210.0,12.0,64.0
3024,70.0,46.0,150.0,4.0,64.0
3025,65.0,3.0,120.0,5.0,64.0
3026,60.0,4.0,120.0,6.0,64.0
3027,69.0,74.0,120.0,4.0,64.0
3028,63.0,7.0,120.0,5.0,64.0
3029,34.0,14.0,60.0,11.0,64.0
3030,62.0,1.0,90.0,6.0,64.0
3031,65.0,0.0,90.0,2.0,64.0
3032,70.0,1.0,90.0,1.0,64.0
3033,62.0,3.0,90.0,3.0,64.0
3034,46.0,82.0,120.0,7.0,64.0
3035,70.0,0.0,90.0,4.0,64.0
3036,46.0,4.0,90.0,15.0,64.0
3037,65.0,3.0,90.0,5.0,64.0
3038,46.0,5.0,90.0,12.0,64.0
3039,74.0,9.0,90.0,12.0,64.0
3040,65.0,0.0,90.0,12.0,64.0
3041,72.0,8.0,90.0,4.0,64.0
3042,67.0,4.0,60.0,5.0,64.0
3043,63.0,124.0,90.0,6.0,64.0
3044,70.0,7.0,90.0,4.0,64.0
3045,65.0,65.0,120.0,5.0,64.0
3046,62.0,27.0,90.0,6.0,64.0
3047,74.0,6.0,90.0,4.0,64.0
3048,70.0,116.0,90.0,5.0,64.0
3049,65.0,2.0,60.0,6.0,64.0
3050,46.0,24.0,120.0,11.0,64.0
3051,63.0,7.0,60.0,6.0,64.0
3052,58.0,6.0,120.0,15.0,64.0
3053,72.0,2.0,90.0,4.0,64.0
3054,69.0,7.0,90.0,5.0,64.0
3055,58.0,47.0,150.0,1.0,64.0
3056,58.0,3.0,120.0,12.0,64.0
3057,63.0,7.0,90.0,12.0,64.0
3058,58.0,4.0,90.0,13.0,64.0
3059,58.0,8.0,90.0,7.0,64.0
3060,75.0,3.0,90.0,4.0,64.0
3061,45.0,6.0,120.0,11.0,64.0
3062,57.0,81.0,150.0,15.0,64.0
3063,57.0,12.0,120.0,12.0,64.0
3064,72.0,12.0,90.0,5.0,64.0
3065,67.0,6.0,60.0,6.0,64.0
3066,57.0,22.0,90.0,7.0,64.0
3067,46.0,3.0,90.0,11.0,64.0
3068,58.0,6.0,150.0,15.0,64.0
3069,65.0,6.0,120.0,6.0,64.0
3070,58.0,25.0,90.0,12.0,64.0
3071,74.0,6.0,150.0,4.0,64.0
3072,62.0,11.0,210.0,12.0,64.0
3073,70.0,6.0,120.0,5.0,64.0
3074,62.0,60.0,150.0,1.0,64.0
3075,58.0,4.0,120.0,7.0,64.0
3076,62.0,12.0,120.0,13.0,64.0
3077,63.0,6.0,120.0,6.0,64.0
3078,72.0,69.0,120.0,4.0,64.0
3079,69.0,9.0,120.0,5.0,64.0
3080,65.0,0.0,90.0,1.0,64.0
3081,65.0,3.0,120.0,13.0,64.0
3082,53.0,2.0,120.0,15.0,64.0
3083,65.0,11.0,60.0,6.0,64.0
3084,41.0,87.0,120.0,11.0,64.0
3085,74.0,3.0,90.0,4.0,64.0
3086,70.0,2.0,90.0,12.0,64.0
3087,70.0,6.0,90.0,5.0,64.0
3088,53.0,1.0,90.0,12.0,64.0
3089,53.0,6.0,90.0,7.0,64.0
3090,39.0,18.0,120.0,11.0,64.0
3091,51.0,69.0,150.0,15.0,64.0
3092,51.0,18.0,90.0,7.0,64.0
3093,51.0,2.0,120.0,12.0,64.0
3094,75.0,10.0,60.0,4.0,64.0
3095,67.0,1.0,90.0,6.0,64.0
3096,72.0,3.0,90.0,5.0,64.0
3097,41.0,3.0,90.0,11.0,64.0
3098,53.0,7.0,120.0,15.0,64.0
3099,74.0,17.0,90.0,4.0,64.0
3100,62.0,5.0,120.0,1.0,64.0
3101,62.0,5.0,120.0,13.0,64.0
3102,53.0,3.0,120.0,7.0,64.0
3103,53.0,1.0,90.0,12.0,64.0
3104,65.0,1.0,60.0,12.0,64.0
3105,65.0,4.0,90.0,6.0,64.0
3106,70.0,67.0,120.0,5.0,64.0
3107,77.0,5.0,90.0,4.0,64.0
3108,74.0,111.0,90.0,5.0,64.0
3109,70.0,8.0,60.0,6.0,64.0
3110,46.0,18.0,120.0,11.0,64.0
3111,58.0,2.0,120.0,15.0,64.0
3112,58.0,3.0,90.0,13.0,64.0
3113,65.0,0.0,90.0,6.0,64.0
3114,58.0,1.0,90.0,1.0,64.0
3115,75.0,3.0,90.0,4.0,64.0
3116,72.0,8.0,60.0,5.0,64.0
3117,58.0,64.0,120.0,12.0,64.0
3118,58.0,6.0,90.0,7.0,64.0
3119,63.0,10.0,60.0,12.0,64.0
3120,45.0,8.0,120.0,11.0,64.0
3121,79.0,6.0,90.0,4.0,64.0
3122,57.0,29.0,120.0,15.0,64.0
3123,75.0,0.0,90.0,5.0,64.0
3124,69.0,7.0,60.0,6.0,64.0
3125,57.0,12.0,90.0,7.0,64.0
3126,57.0,66.0,120.0,12.0,64.0
3127,46.0,9.0,120.0,11.0,64.0
3128,58.0,24.0,90.0,15.0,64.0
3129,62.0,37.0,180.0,13.0,64.0
3130,62.0,1.0,150.0,1.0,64.0
3131,58.0,20.0,150.0,7.0,64.0
3132,65.0,10.0,120.0,6.0,64.0
3133,77.0,2.0,120.0,4.0,64.0
3134,74.0,16.0,120.0,5.0,64.0
3135,58.0,4.0,180.0,12.0,64.0
3136,62.0,6.0,240.0,12.0,64.0
3137,70.0,39.0,90.0,6.0,64.0
3138,75.0,7.0,120.0,4.0,64.0
3139,72.0,62.0,120.0,5.0,64.0
3140,65.0,5.0,90.0,13.0,64.0
3141,65.0,6.0,90.0,1.0,64.0
3142,65.0,5.0,90.0,6.0,64.0
3143,38.0,2.0,120.0,11.0,64.0
3144,50.0,77.0,120.0,15.0,64.0
3145,77.0,5.0,90.0,4.0,64.0
3146,74.0,1.0,90.0,5.0,64.0
3147,50.0,9.0,90.0,7.0,64.0
3148,70.0,1.0,90.0,12.0,64.0
3149,50.0,4.0,90.0,12.0,64.0
3150,36.0,20.0,120.0,11.0,64.0
3151,48.0,73.0,120.0,15.0,64.0
3152,69.0,9.0,60.0,6.0,64.0
3153,48.0,13.0,90.0,7.0,64.0
3154,79.0,2.0,90.0,4.0,64.0
3155,75.0,10.0,60.0,5.0,64.0
3156,48.0,3.0,120.0,12.0,64.0
3157,38.0,4.0,120.0,11.0,64.0
3158,62.0,0.0,90.0,13.0,64.0
3159,50.0,6.0,120.0,7.0,64.0
3160,50.0,2.0,90.0,15.0,64.0
3161,62.0,3.0,90.0,1.0,64.0
3162,65.0,0.0,90.0,6.0,64.0
3163,77.0,16.0,120.0,4.0,64.0
3164,65.0,13.0,90.0,12.0,64.0
3165,50.0,12.0,90.0,12.0,64.0
3166,74.0,66.0,120.0,5.0,64.0
3167,70.0,23.0,90.0,6.0,64.0
3168,79.0,7.0,90.0,4.0,64.0
3169,75.0,88.0,120.0,5.0,64.0
3170,58.0,5.0,120.0,1.0,64.0
3171,58.0,1.0,90.0,13.0,64.0
3172,46.0,3.0,120.0,11.0,64.0
3173,65.0,1.0,90.0,6.0,64.0
3174,77.0,10.0,90.0,4.0,64.0
3175,58.0,5.0,120.0,15.0,64.0
3176,74.0,7.0,90.0,5.0,64.0
3177,58.0,5.0,90.0,7.0,64.0
3178,62.0,68.0,120.0,12.0,64.0
3179,58.0,0.0,120.0,12.0,64.0
3180,45.0,21.0,120.0,11.0,64.0
3181,75.0,1.0,90.0,4.0,64.0
3182,57.0,10.0,120.0,15.0,64.0
3183,69.0,17.0,60.0,6.0,64.0
3184,57.0,12.0,90.0,7.0,64.0
3185,57.0,71.0,120.0,12.0,64.0
3186,60.0,0.0,120.0,12.0,64.0
3187,72.0,8.0,90.0,5.0,64.0
3188,46.0,23.0,120.0,11.0,64.0
3189,74.0,6.0,150.0,4.0,64.0
3190,58.0,10.0,150.0,7.0,64.0
3191,58.0,7.0,120.0,15.0,64.0
3192,65.0,0.0,150.0,13.0,64.0
3193,65.0,5.0,120.0,6.0,64.0
3194,70.0,8.0,120.0,5.0,64.0
3195,58.0,41.0,150.0,12.0,64.0
3196,65.0,6.0,120.0,1.0,64.0
3197,62.0,19.0,180.0,12.0,64.0
3198,75.0,56.0,120.0,4.0,64.0
3199,72.0,29.0,90.0,5.0,64.0
3200,67.0,6.0,120.0,6.0,64.0
3201,34.0,4.0,120.0,11.0,64.0
3202,65.0,0.0,90.0,6.0,64.0
3203,46.0,5.0,90.0,15.0,64.0
3204,74.0,3.0,90.0,4.0,64.0
3205,70.0,2.0,90.0,5.0,64.0
3206,65.0,20.0,60.0,13.0,64.0
3207,46.0,6.0,90.0,7.0,64.0
3208,70.0,9.0,60.0,12.0,64.0
3209,65.0,3.0,90.0,1.0,64.0
3210,46.0,51.0,90.0,12.0,64.0
3211,36.0,14.0,120.0,11.0,64.0
3212,65.0,29.0,60.0,13.0,64.0
3213,48.0,35.0,120.0,15.0,64.0
3214,48.0,2.0,90.0,7.0,64.0
3215,63.0,18.0,60.0,6.0,64.0
3216,72.0,1.0,90.0,4.0,64.0
3217,65.0,7.0,90.0,1.0,64.0
3218,69.0,0.0,90.0,5.0,64.0
3219,48.0,64.0,150.0,12.0,64.0
3220,38.0,2.0,120.0,11.0,64.0
3221,65.0,31.0,180.0,13.0,64.0
3222,50.0,3.0,120.0,7.0,64.0
3223,65.0,8.0,210.0,1.0,64.0
3224,50.0,3.0,90.0,15.0,64.0
3225,65.0,21.0,120.0,6.0,64.0
3226,70.0,15.0,90.0,4.0,64.0
3227,70.0,29.0,150.0,5.0,64.0
3228,65.0,3.0,90.0,12.0,64.0
3229,50.0,2.0,90.0,12.0,64.0
3230,74.0,98.0,90.0,4.0,64.0
3231,52.0,0.0,90.0,7.0,64.0
3232,52.0,3.0,90.0,15.0,64.0
3233,60.0,10.0,90.0,6.0,64.0
3234,40.0,14.0,90.0,11.0,64.0
3235,72.0,5.0,60.0,4.0,64.0
3236,67.0,102.0,120.0,5.0,64.0
3237,67.0,0.0,60.0,12.0,64.0
3238,72.0,8.0,60.0,12.0,64.0
3239,52.0,1.0,90.0,12.0,64.0
3240,70.0,143.0,90.0,4.0,64.0
3241,65.0,44.0,510.0,12.0,64.0
3242,41.0,12.0,150.0,11.0,64.0
3243,53.0,30.0,120.0,7.0,64.0
3244,60.0,44.0,180.0,6.0,64.0
3245,53.0,16.0,150.0,15.0,64.0
3246,69.0,0.0,180.0,4.0,64.0
3247,65.0,9.0,180.0,5.0,64.0
3248,53.0,10.0,180.0,12.0,64.0
3249,69.0,1.0,450.0,12.0,64.0
3250,72.0,5.0,420.0,12.0,64.0
3251,52.0,4.0,120.0,7.0,64.0
3252,52.0,66.0,120.0,15.0,64.0
3253,41.0,28.0,150.0,11.0,64.0
3254,53.0,5.0,90.0,7.0,64.0
3255,53.0,29.0,60.0,15.0,64.0
3256,77.0,8.0,90.0,1.0,64.0
3257,53.0,16.0,180.0,12.0,64.0
3258,69.0,7.0,90.0,3.0,64.0
3259,72.0,36.0,90.0,2.0,64.0
3260,55.0,8.0,60.0,15.0,64.0
3261,55.0,10.0,60.0,7.0,64.0
3262,76.0,7.0,90.0,1.0,64.0
3263,67.0,8.0,90.0,3.0,64.0
3264,70.0,30.0,90.0,2.0,64.0
3265,41.0,2.0,180.0,11.0,64.0
3266,53.0,26.0,60.0,15.0,64.0
3267,53.0,52.0,90.0,7.0,64.0
3268,69.0,2.0,150.0,3.0,64.0
3269,72.0,3.0,150.0,2.0,64.0
3270,77.0,29.0,150.0,1.0,64.0
3271,53.0,103.0,180.0,12.0,64.0
3272,57.0,19.0,60.0,15.0,64.0
3273,57.0,4.0,60.0,7.0,64.0
3274,41.0,43.0,150.0,11.0,64.0
3275,53.0,3.0,90.0,7.0,64.0
3276,53.0,26.0,60.0,15.0,64.0
3277,58.0,31.0,120.0,6.0,64.0
3278,64.0,4.0,90.0,5.0,64.0
3279,67.0,7.0,90.0,4.0,64.0
3280,53.0,148.0,180.0,12.0,64.0
3281,58.0,10.0,60.0,15.0,64.0
3282,58.0,4.0,60.0,7.0,64.0
3283,60.0,61.0,540.0,12.0,64.0
3284,41.0,4.0,210.0,11.0,64.0
3285,53.0,5.0,150.0,7.0,64.0
3286,65.0,5.0,480.0,12.0,64.0
3287,60.0,34.0,150.0,6.0,64.0
3288,53.0,35.0,90.0,15.0,64.0
3289,69.0,14.0,180.0,4.0,64.0
3290,65.0,1.0,180.0,5.0,64.0
3291,53.0,37.0,180.0,12.0,64.0
3292,69.0,1.0,480.0,12.0,64.0
3293,52.0,71.0,120.0,15.0,64.0
3294,52.0,3.0,120.0,7.0,64.0
3295,53.0,27.0,90.0,15.0,64.0
3296,53.0,5.0,60.0,7.0,64.0
3297,41.0,49.0,120.0,11.0,64.0
3298,53.0,2.0,180.0,12.0,64.0
3299,77.0,8.0,90.0,1.0,64.0
3300,69.0,7.0,90.0,3.0,64.0
3301,72.0,18.0,90.0,2.0,64.0
3302,55.0,21.0,90.0,7.0,64.0
3303,55.0,8.0,60.0,15.0,64.0
3304,76.0,7.0,90.0,1.0,64.0
3305,67.0,8.0,90.0,3.0,64.0
3306,70.0,17.0,90.0,2.0,64.0
3307,69.0,8.0,150.0,3.0,64.0
3308,41.0,17.0,120.0,11.0,64.0
3309,72.0,3.0,150.0,2.0,64.0
3310,77.0,27.0,150.0,1.0,64.0
3311,53.0,24.0,60.0,15.0,64.0
3312,53.0,23.0,90.0,7.0,64.0
3313,53.0,1.0,180.0,12.0,64.0
3314,60.0,133.0,60.0,7.0,64.0
3315,60.0,7.0,60.0,15.0,64.0
3316,53.0,3.0,90.0,7.0,64.0
3317,53.0,10.0,90.0,15.0,64.0
3318,41.0,53.0,120.0,11.0,64.0
3319,53.0,3.0,180.0,12.0,64.0
3320,62.0,9.0,90.0,6.0,64.0
3321,67.0,16.0,120.0,5.0,64.0
3322,70.0,12.0,90.0,4.0,64.0
3323,62.0,4.0,60.0,7.0,64.0
3324,62.0,176.0,60.0,15.0,64.0
3325,57.0,9.0,540.0,12.0,64.0
3326,60.0,1.0,540.0,12.0,64.0
3327,53.0,37.0,120.0,7.0,64.0
3328,53.0,33.0,180.0,12.0,64.0
3329,53.0,6.0,120.0,15.0,64.0
3330,41.0,4.0,180.0,11.0,64.0
3331,63.0,12.0,180.0,6.0,64.0
3332,69.0,8.0,150.0,5.0,64.0
3333,72.0,1.0,180.0,4.0,64.0
3334,65.0,36.0,510.0,12.0,64.0
3335,52.0,86.0,120.0,7.0,64.0
3336,52.0,2.0,120.0,15.0,64.0
3337,53.0,29.0,90.0,15.0,64.0
3338,53.0,1.0,60.0,7.0,64.0
3339,53.0,12.0,150.0,12.0,64.0
3340,75.0,8.0,90.0,1.0,64.0
3341,41.0,1.0,90.0,11.0,64.0
3342,69.0,6.0,90.0,3.0,64.0
3343,72.0,53.0,90.0,2.0,64.0
3344,55.0,6.0,60.0,15.0,64.0
3345,55.0,27.0,60.0,7.0,64.0
3346,74.0,8.0,90.0,1.0,64.0
3347,70.0,7.0,90.0,3.0,64.0
3348,70.0,38.0,90.0,2.0,64.0
3349,69.0,19.0,150.0,3.0,64.0
3350,75.0,2.0,180.0,1.0,64.0
3351,41.0,0.0,120.0,11.0,64.0
3352,53.0,14.0,90.0,15.0,64.0
3353,53.0,9.0,90.0,7.0,64.0
3354,72.0,21.0,150.0,2.0,64.0
3355,53.0,41.0,90.0,12.0,64.0
3356,63.0,118.0,60.0,7.0,64.0
3357,63.0,5.0,60.0,15.0,64.0
3358,65.0,1.0,90.0,6.0,64.0
3359,53.0,7.0,60.0,11.0,64.0
3360,53.0,21.0,90.0,7.0,64.0
3361,53.0,6.0,60.0,15.0,64.0
3362,74.0,3.0,90.0,12.0,64.0
3363,65.0,7.0,120.0,12.0,64.0
3364,60.0,1.0,90.0,5.0,64.0
3365,69.0,0.0,90.0,4.0,64.0
3366,74.0,1.0,90.0,1.0,64.0
3367,65.0,7.0,90.0,3.0,64.0
3368,70.0,57.0,90.0,2.0,64.0
3369,75.0,10.0,90.0,12.0,64.0
3370,65.0,13.0,60.0,7.0,64.0
3371,65.0,9.0,60.0,15.0,64.0
3372,72.0,24.0,90.0,1.0,64.0
3373,69.0,145.0,90.0,2.0,64.0
3374,50.0,19.0,210.0,11.0,64.0
3375,65.0,23.0,150.0,3.0,64.0
3376,70.0,0.0,150.0,2.0,64.0
3377,62.0,9.0,180.0,7.0,64.0
3378,58.0,11.0,150.0,6.0,64.0
3379,62.0,13.0,180.0,15.0,64.0
3380,62.0,5.0,150.0,5.0,64.0
3381,65.0,3.0,150.0,4.0,64.0
3382,77.0,45.0,210.0,1.0,64.0
3383,62.0,79.0,240.0,12.0,64.0
3384,77.0,0.0,240.0,12.0,64.0
3385,65.0,2.0,120.0,3.0,64.0
3386,60.0,2.0,120.0,15.0,64.0
3387,65.0,1.0,120.0,4.0,64.0
3388,62.0,1.0,120.0,5.0,64.0
3389,58.0,58.0,120.0,6.0,64.0
3390,75.0,5.0,90.0,1.0,64.0
3391,48.0,14.0,120.0,11.0,64.0
3392,75.0,0.0,90.0,12.0,64.0
3393,60.0,4.0,90.0,12.0,64.0
3394,60.0,1.0,90.0,7.0,64.0
3395,70.0,2.0,90.0,2.0,64.0
3396,46.0,21.0,90.0,11.0,64.0
3397,58.0,9.0,120.0,15.0,64.0
3398,58.0,2.0,90.0,7.0,64.0
3399,74.0,16.0,90.0,1.0,64.0
3400,74.0,110.0,120.0,12.0,64.0
3401,58.0,0.0,120.0,12.0,64.0
3402,75.0,1.0,240.0,1.0,64.0
3403,60.0,4.0,210.0,7.0,64.0
3404,48.0,11.0,180.0,11.0,64.0
3405,60.0,5.0,210.0,15.0,64.0
3406,60.0,4.0,210.0,5.0,64.0
3407,72.0,4.0,210.0,4.0,64.0
3408,51.0,17.0,150.0,6.0,64.0
3409,63.0,60.0,90.0,3.0,64.0
3410,69.0,20.0,210.0,2.0,64.0
3411,60.0,0.0,240.0,12.0,64.0
3412,75.0,96.0,240.0,12.0,64.0
3413,65.0,8.0,90.0,4.0,64.0
3414,65.0,7.0,120.0,3.0,64.0
3415,60.0,2.0,120.0,6.0,64.0
3416,46.0,85.0,120.0,11.0,64.0
3417,58.0,2.0,120.0,15.0,64.0
3418,58.0,2.0,90.0,7.0,64.0
3419,62.0,3.0,90.0,5.0,64.0
3420,74.0,6.0,90.0,12.0,64.0
3421,58.0,0.0,90.0,12.0,64.0
3422,70.0,2.0,90.0,2.0,64.0
3423,74.0,4.0,90.0,1.0,64.0
3424,45.0,4.0,120.0,11.0,64.0
3425,57.0,104.0,120.0,12.0,64.0
3426,72.0,0.0,120.0,12.0,64.0
3427,57.0,8.0,120.0,15.0,64.0
3428,57.0,1.0,90.0,7.0,64.0
3429,63.0,1.0,90.0,5.0,64.0
3430,72.0,15.0,90.0,1.0,64.0
3431,72.0,4.0,90.0,2.0,64.0
3432,62.0,4.0,120.0,5.0,64.0
3433,70.0,3.0,150.0,2.0,64.0
3434,58.0,118.0,210.0,7.0,64.0
3435,53.0,22.0,120.0,6.0,64.0
3436,65.0,5.0,150.0,3.0,64.0
3437,70.0,0.0,150.0,4.0,64.0
3438,46.0,33.0,180.0,11.0,64.0
3439,74.0,15.0,120.0,1.0,64.0
3440,58.0,20.0,150.0,15.0,64.0
3441,58.0,11.0,210.0,12.0,64.0
3442,62.0,5.0,690.0,12.0,64.0
3443,65.0,37.0,630.0,12.0,64.0
3444,70.0,27.0,600.0,12.0,64.0
3445,46.0,86.0,120.0,11.0,64.0
3446,77.0,5.0,120.0,4.0,64.0
3447,74.0,0.0,90.0,5.0,64.0
3448,70.0,14.0,90.0,6.0,64.0
3449,62.0,1.0,90.0,7.0,64.0
3450,53.0,0.0,90.0,10.0,64.0
3451,58.0,0.0,90.0,8.0,64.0
3452,58.0,2.0,210.0,12.0,64.0
3453,70.0,4.0,90.0,1.0,64.0
3454,57.0,1.0,90.0,8.0,64.0
3455,60.0,0.0,90.0,7.0,64.0
3456,51.0,119.0,90.0,10.0,64.0
3457,58.0,2.0,150.0,8.0,64.0
3458,62.0,8.0,150.0,7.0,64.0
3459,74.0,3.0,120.0,4.0,64.0
3460,70.0,16.0,90.0,5.0,64.0
3461,65.0,12.0,90.0,6.0,64.0
3462,53.0,5.0,120.0,10.0,64.0
3463,46.0,5.0,120.0,11.0,64.0
3464,58.0,128.0,210.0,12.0,64.0
3465,46.0,6.0,120.0,11.0,64.0
3466,70.0,83.0,120.0,4.0,64.0
3467,62.0,7.0,90.0,6.0,64.0
3468,65.0,3.0,90.0,1.0,64.0
3469,65.0,3.0,120.0,5.0,64.0
3470,58.0,0.0,90.0,10.0,64.0
3471,65.0,5.0,90.0,7.0,64.0
3472,62.0,0.0,90.0,8.0,64.0
3473,58.0,167.0,210.0,12.0,64.0
3474,65.0,5.0,90.0,13.0,64.0
3475,63.0,0.0,90.0,7.0,64.0
3476,57.0,1.0,90.0,10.0,64.0
3477,60.0,0.0,90.0,8.0,64.0
3478,65.0,2.0,150.0,7.0,64.0
3479,62.0,23.0,150.0,13.0,64.0
3480,58.0,1.0,180.0,10.0,64.0
3481,62.0,141.0,660.0,12.0,64.0
3482,65.0,9.0,660.0,12.0,64.0
3483,70.0,6.0,630.0,12.0,64.0
3484,46.0,142.0,180.0,11.0,64.0
3485,62.0,23.0,150.0,8.0,64.0
3486,62.0,5.0,120.0,1.0,64.0
3487,58.0,3.0,180.0,12.0,64.0
3488,58.0,16.0,180.0,12.0,64.0
3489,58.0,7.0,90.0,13.0,64.0
3490,70.0,2.0,90.0,4.0,64.0
3491,65.0,10.0,90.0,5.0,64.0
3492,62.0,11.0,120.0,6.0,64.0
3493,58.0,9.0,120.0,1.0,64.0
3494,46.0,57.0,120.0,11.0,64.0
3495,69.0,3.0,90.0,4.0,64.0
3496,63.0,34.0,90.0,5.0,64.0
3497,60.0,120.0,120.0,6.0,64.0
3498,70.0,9.0,150.0,4.0,64.0
3499,65.0,1.0,150.0,5.0,64.0
3500,62.0,18.0,150.0,6.0,64.0
3501,58.0,11.0,180.0,12.0,64.0
3502,46.0,16.0,120.0,11.0,64.0
3503,46.0,43.0,120.0,11.0,64.0
3504,74.0,2.0,90.0,4.0,64.0
3505,70.0,27.0,90.0,5.0,64.0
3506,58.0,38.0,150.0,12.0,64.0
3507,65.0,3.0,120.0,6.0,64.0
3508,72.0,2.0,90.0,4.0,64.0
3509,69.0,33.0,90.0,5.0,64.0
3510,63.0,152.0,120.0,6.0,64.0
3511,74.0,16.0,180.0,4.0,64.0
3512,46.0,154.0,180.0,11.0,64.0
3513,65.0,46.0,570.0,12.0,64.0
3514,65.0,0.0,150.0,6.0,64.0
3515,70.0,8.0,540.0,12.0,64.0
3516,74.0,19.0,540.0,12.0,64.0
3517,70.0,12.0,150.0,5.0,64.0
3518,58.0,0.0,180.0,12.0,64.0
3519,58.0,11.0,180.0,12.0,64.0
3520,77.0,1.0,90.0,1.0,64.0
3521,74.0,0.0,90.0,2.0,64.0
3522,70.0,10.0,90.0,3.0,64.0
3523,46.0,85.0,90.0,11.0,64.0
3524,75.0,6.0,90.0,1.0,64.0
3525,69.0,1.0,90.0,3.0,64.0
3526,72.0,89.0,90.0,2.0,64.0
3527,70.0,12.0,150.0,3.0,64.0
3528,77.0,35.0,150.0,1.0,64.0
3529,46.0,3.0,90.0,11.0,64.0
3530,74.0,1.0,150.0,2.0,64.0
3531,58.0,128.0,180.0,12.0,64.0
3532,46.0,5.0,90.0,11.0,64.0
3533,58.0,1.0,90.0,15.0,64.0
3534,58.0,52.0,150.0,12.0,64.0
3535,82.0,1.0,90.0,1.0,64.0
3536,58.0,19.0,60.0,7.0,64.0
3537,77.0,54.0,90.0,2.0,64.0
3538,74.0,0.0,90.0,3.0,64.0
3539,81.0,6.0,90.0,1.0,64.0
3540,72.0,1.0,90.0,3.0,64.0
3541,75.0,161.0,90.0,2.0,64.0
3542,74.0,11.0,150.0,3.0,64.0
3543,82.0,21.0,180.0,1.0,64.0
3544,77.0,7.0,150.0,2.0,64.0
3545,58.0,2.0,150.0,15.0,64.0
3546,58.0,7.0,150.0,7.0,64.0
3547,46.0,55.0,180.0,11.0,64.0
3548,58.0,86.0,240.0,12.0,64.0
3549,70.0,89.0,480.0,12.0,64.0
3550,77.0,3.0,450.0,12.0,64.0
3551,74.0,25.0,450.0,12.0,64.0
3552,46.0,13.0,90.0,15.0,64.0
3553,34.0,3.0,90.0,11.0,64.0
3554,46.0,1.0,90.0,7.0,64.0
3555,46.0,57.0,150.0,12.0,64.0
3556,77.0,0.0,90.0,1.0,64.0
3557,74.0,46.0,90.0,2.0,64.0
3558,70.0,0.0,90.0,3.0,64.0
3559,75.0,6.0,90.0,1.0,64.0
3560,69.0,1.0,90.0,3.0,64.0
3561,72.0,10.0,90.0,2.0,64.0
3562,74.0,11.0,150.0,2.0,64.0
3563,77.0,167.0,180.0,1.0,64.0
3564,34.0,1.0,150.0,11.0,64.0
3565,70.0,13.0,150.0,3.0,64.0
3566,46.0,11.0,90.0,15.0,64.0
3567,46.0,2.0,90.0,7.0,64.0
3568,46.0,25.0,90.0,12.0,64.0
3569,46.0,14.0,120.0,11.0,64.0
3570,58.0,4.0,90.0,7.0,64.0
3571,58.0,6.0,90.0,15.0,64.0
3572,58.0,0.0,90.0,12.0,64.0
3573,65.0,2.0,90.0,5.0,64.0
3574,70.0,9.0,90.0,4.0,64.0
3575,62.0,88.0,120.0,6.0,64.0
3576,60.0,143.0,120.0,6.0,64.0
3577,63.0,2.0,90.0,5.0,64.0
3578,69.0,33.0,90.0,4.0,64.0
3579,58.0,45.0,180.0,7.0,64.0
3580,70.0,2.0,150.0,4.0,64.0
3581,58.0,76.0,240.0,12.0,64.0
3582,62.0,2.0,150.0,6.0,64.0
3583,58.0,3.0,150.0,15.0,64.0
3584,65.0,17.0,150.0,5.0,64.0
3585,46.0,29.0,210.0,11.0,64.0
3586,34.0,7.0,90.0,11.0,64.0
3587,46.0,3.0,90.0,7.0,64.0
3588,46.0,1.0,90.0,15.0,64.0
3589,46.0,4.0,90.0,12.0,64.0
3590,58.0,2.0,90.0,5.0,64.0
3591,53.0,83.0,120.0,6.0,64.0
3592,62.0,28.0,90.0,4.0,64.0
3593,57.0,2.0,90.0,5.0,64.0
3594,51.0,88.0,120.0,6.0,64.0
3595,60.0,23.0,90.0,4.0,64.0
3596,34.0,3.0,90.0,11.0,64.0
3597,53.0,2.0,150.0,6.0,64.0
3598,58.0,3.0,150.0,5.0,64.0
3599,62.0,187.0,150.0,4.0,64.0
3600,46.0,44.0,90.0,7.0,64.0
3601,46.0,9.0,90.0,15.0,64.0
3602,46.0,6.0,90.0,12.0,64.0
3603,46.0,6.0,120.0,11.0,64.0
3604,70.0,87.0,120.0,14.0,64.0
3605,82.0,1.0,120.0,13.0,64.0
3606,58.0,2.0,90.0,7.0,64.0
3607,82.0,0.0,90.0,1.0,64.0
3608,70.0,5.0,90.0,4.0,64.0
3609,58.0,4.0,90.0,12.0,64.0
3610,82.0,0.0,90.0,12.0,64.0
3611,58.0,8.0,90.0,15.0,64.0
3612,45.0,8.0,120.0,11.0,64.0
3613,81.0,4.0,150.0,13.0,64.0
3614,69.0,16.0,120.0,14.0,64.0
3615,57.0,1.0,90.0,7.0,64.0
3616,57.0,7.0,120.0,15.0,64.0
3617,69.0,1.0,90.0,4.0,64.0
3618,81.0,12.0,90.0,1.0,64.0
3619,57.0,0.0,120.0,12.0,64.0
3620,81.0,98.0,120.0,12.0,64.0
3621,46.0,2.0,150.0,11.0,64.0
3622,70.0,7.0,150.0,4.0,64.0
3623,70.0,6.0,150.0,14.0,64.0
3624,82.0,157.0,180.0,13.0,64.0
3625,58.0,15.0,120.0,7.0,64.0
3626,82.0,21.0,150.0,1.0,64.0
3627,58.0,0.0,120.0,12.0,64.0
3628,82.0,5.0,120.0,12.0,64.0
3629,58.0,1.0,120.0,15.0,64.0
3630,34.0,6.0,120.0,11.0,64.0
3631,70.0,94.0,120.0,13.0,64.0
3632,46.0,6.0,90.0,15.0,64.0
3633,58.0,2.0,90.0,14.0,64.0
3634,46.0,1.0,90.0,7.0,64.0
3635,70.0,0.0,90.0,1.0,64.0
3636,58.0,3.0,90.0,4.0,64.0
3637,46.0,0.0,90.0,12.0,64.0
3638,70.0,7.0,90.0,12.0,64.0
3639,36.0,7.0,150.0,11.0,64.0
3640,48.0,60.0,150.0,15.0,64.0
3641,72.0,5.0,120.0,13.0,64.0
3642,60.0,0.0,120.0,14.0,64.0
3643,48.0,1.0,90.0,7.0,64.0
3644,48.0,16.0,120.0,12.0,64.0
3645,60.0,1.0,90.0,4.0,64.0
3646,72.0,0.0,120.0,12.0,64.0
3647,72.0,17.0,90.0,1.0,64.0
3648,38.0,20.0,120.0,11.0,64.0
3649,50.0,13.0,120.0,7.0,64.0
3650,74.0,5.0,120.0,13.0,64.0
3651,74.0,1.0,90.0,1.0,64.0
3652,62.0,182.0,120.0,14.0,64.0
3653,62.0,1.0,120.0,4.0,64.0
3654,50.0,6.0,90.0,15.0,64.0
3655,74.0,3.0,60.0,12.0,64.0
3656,50.0,0.0,60.0,12.0,64.0
3657,40.0,4.0,120.0,11.0,64.0
3658,52.0,1.0,90.0,7.0,64.0
3659,52.0,7.0,90.0,15.0,64.0
3660,76.0,2.0,90.0,1.0,64.0
3661,76.0,213.0,120.0,13.0,64.0
3662,76.0,8.0,60.0,12.0,64.0
3663,72.0,0.0,60.0,12.0,64.0
3664,70.0,0.0,60.0,12.0,64.0
3665,52.0,0.0,60.0,12.0,64.0
3666,67.0,0.0,60.0,12.0,64.0
3667,64.0,11.0,90.0,4.0,64.0
3668,64.0,18.0,90.0,14.0,64.0
3669,41.0,11.0,180.0,11.0,64.0
3670,53.0,2.0,120.0,7.0,64.0
3671,53.0,2.0,150.0,15.0,64.0
3672,65.0,10.0,120.0,14.0,64.0
3673,53.0,72.0,180.0,12.0,64.0
3674,77.0,11.0,150.0,1.0,64.0
3675,69.0,10.0,120.0,3.0,64.0
3676,69.0,6.0,90.0,12.0,64.0
3677,77.0,9.0,90.0,12.0,64.0
3678,72.0,4.0,90.0,12.0,64.0
3679,65.0,11.0,150.0,4.0,64.0
3680,72.0,4.0,120.0,2.0,64.0
3681,67.0,7.0,120.0,3.0,64.0
3682,76.0,75.0,120.0,1.0,64.0
3683,70.0,2.0,120.0,2.0,64.0
3684,41.0,2.0,90.0,7.0,64.0
3685,41.0,5.0,90.0,15.0,64.0
3686,29.0,28.0,90.0,11.0,64.0
3687,77.0,1.0,90.0,1.0,64.0
3688,69.0,2.0,90.0,3.0,64.0
3689,41.0,1.0,90.0,12.0,64.0
3690,72.0,0.0,90.0,2.0,64.0
3691,65.0,0.0,90.0,12.0,64.0
3692,69.0,0.0,90.0,12.0,64.0
3693,72.0,0.0,90.0,12.0,64.0
3694,77.0,2.0,90.0,4.0,64.0
3695,72.0,1.0,90.0,5.0,64.0
3696,69.0,65.0,120.0,6.0,64.0
3697,76.0,2.0,90.0,4.0,64.0
3698,79.0,14.0,60.0,1.0,64.0
3699,74.0,30.0,90.0,2.0,64.0
3700,70.0,1.0,90.0,3.0,64.0
3701,70.0,4.0,90.0,5.0,64.0
3702,67.0,60.0,120.0,6.0,64.0
3703,41.0,22.0,90.0,7.0,64.0
3704,41.0,7.0,60.0,15.0,64.0
3705,29.0,2.0,120.0,11.0,64.0
3706,77.0,8.0,150.0,4.0,64.0
3707,77.0,5.0,90.0,1.0,64.0
3708,69.0,0.0,90.0,3.0,64.0
3709,72.0,12.0,90.0,2.0,64.0
3710,41.0,34.0,120.0,12.0,64.0
3711,72.0,4.0,150.0,5.0,64.0
3712,69.0,36.0,150.0,6.0,64.0
3713,72.0,8.0,90.0,3.0,64.0
3714,75.0,84.0,90.0,2.0,64.0
3715,81.0,13.0,60.0,1.0,64.0
3716,53.0,0.0,90.0,11.0,64.0
3717,70.0,4.0,90.0,3.0,64.0
3718,65.0,69.0,120.0,12.0,64.0
3719,77.0,5.0,90.0,1.0,64.0
3720,65.0,11.0,90.0,15.0,64.0
3721,74.0,13.0,90.0,2.0,64.0
3722,70.0,9.0,60.0,12.0,64.0
3723,74.0,5.0,60.0,12.0,64.0
3724,77.0,1.0,60.0,12.0,64.0
3725,65.0,2.0,90.0,7.0,64.0
3726,52.0,36.0,120.0,11.0,64.0
3727,82.0,15.0,90.0,1.0,64.0
3728,64.0,6.0,150.0,15.0,64.0
3729,74.0,3.0,90.0,3.0,64.0
3730,64.0,85.0,150.0,12.0,64.0
3731,77.0,12.0,90.0,2.0,64.0
3732,64.0,3.0,90.0,7.0,64.0
3733,53.0,3.0,180.0,11.0,64.0
3734,77.0,5.0,120.0,1.0,64.0
3735,65.0,66.0,150.0,12.0,64.0
3736,69.0,0.0,120.0,3.0,64.0
3737,65.0,19.0,90.0,15.0,64.0
3738,65.0,12.0,150.0,7.0,64.0
3739,72.0,10.0,120.0,2.0,64.0
3740,69.0,6.0,120.0,12.0,64.0
3741,77.0,0.0,120.0,12.0,64.0
3742,72.0,3.0,120.0,12.0,64.0
3743,76.0,8.0,120.0,1.0,64.0
3744,70.0,23.0,120.0,2.0,64.0
3745,67.0,54.0,120.0,3.0,64.0
3746,72.0,4.0,90.0,2.0,64.0
3747,53.0,3.0,60.0,12.0,64.0
3748,77.0,0.0,90.0,1.0,64.0
3749,53.0,6.0,90.0,15.0,64.0
3750,41.0,19.0,90.0,11.0,64.0
3751,53.0,2.0,90.0,7.0,64.0
3752,69.0,2.0,90.0,3.0,64.0
3753,57.0,75.0,120.0,6.0,64.0
3754,81.0,5.0,90.0,12.0,64.0
3755,72.0,0.0,90.0,12.0,64.0
3756,77.0,6.0,90.0,12.0,64.0
3757,60.0,1.0,90.0,5.0,64.0
3758,65.0,0.0,90.0,4.0,64.0
3759,74.0,3.0,90.0,2.0,64.0
3760,79.0,5.0,90.0,1.0,64.0
3761,70.0,9.0,90.0,3.0,64.0
3762,55.0,65.0,120.0,6.0,64.0
3763,64.0,37.0,90.0,4.0,64.0
3764,58.0,0.0,90.0,5.0,64.0
3765,29.0,5.0,120.0,11.0,64.0
3766,65.0,3.0,150.0,4.0,64.0
3767,60.0,1.0,150.0,5.0,64.0
3768,69.0,4.0,120.0,3.0,64.0
3769,57.0,45.0,150.0,6.0,64.0
3770,72.0,32.0,120.0,2.0,64.0
3771,41.0,2.0,90.0,7.0,64.0
3772,41.0,2.0,60.0,12.0,64.0
3773,41.0,15.0,90.0,15.0,64.0
3774,77.0,10.0,90.0,1.0,64.0
3775,65.0,93.0,90.0,3.0,64.0
3776,81.0,8.0,60.0,2.0,64.0
3777,84.0,13.0,90.0,1.0,64.0
3778,41.0,5.0,120.0,11.0,64.0
3779,70.0,1.0,90.0,3.0,64.0
3780,77.0,1.0,90.0,1.0,64.0
3781,72.0,3.0,120.0,2.0,64.0
3782,53.0,77.0,120.0,12.0,64.0
3783,53.0,2.0,90.0,15.0,64.0
3784,82.0,19.0,60.0,12.0,64.0
3785,77.0,5.0,60.0,12.0,64.0
3786,74.0,8.0,60.0,12.0,64.0
3787,53.0,5.0,90.0,7.0,64.0
3788,40.0,24.0,120.0,11.0,64.0
3789,86.0,7.0,90.0,1.0,64.0
3790,52.0,85.0,150.0,15.0,64.0
3791,82.0,9.0,90.0,2.0,64.0
3792,67.0,4.0,90.0,3.0,64.0
3793,52.0,16.0,120.0,12.0,64.0
3794,52.0,6.0,90.0,7.0,64.0
3795,41.0,5.0,150.0,11.0,64.0
3796,53.0,7.0,150.0,7.0,64.0
3797,53.0,63.0,180.0,12.0,64.0
3798,77.0,6.0,120.0,1.0,64.0
3799,69.0,2.0,120.0,3.0,64.0
3800,72.0,7.0,120.0,2.0,64.0
3801,53.0,25.0,90.0,15.0,64.0
3802,81.0,3.0,150.0,12.0,64.0
3803,72.0,3.0,150.0,12.0,64.0
3804,77.0,6.0,150.0,12.0,64.0
3805,76.0,1.0,120.0,1.0,64.0
3806,67.0,67.0,120.0,3.0,64.0
3807,70.0,14.0,120.0,2.0,64.0
3808,29.0,5.0,90.0,11.0,64.0
3809,41.0,1.0,120.0,7.0,64.0
3810,77.0,4.0,60.0,1.0,64.0
3811,69.0,4.0,90.0,5.0,64.0
3812,72.0,79.0,120.0,2.0,64.0
3813,41.0,4.0,90.0,15.0,64.0
3814,41.0,4.0,60.0,12.0,64.0
3815,69.0,1.0,90.0,3.0,64.0
3816,72.0,12.0,90.0,4.0,64.0
3817,65.0,3.0,90.0,6.0,64.0
3818,72.0,4.0,90.0,12.0,64.0
3819,69.0,0.0,90.0,12.0,64.0
3820,77.0,1.0,90.0,12.0,64.0
3821,79.0,12.0,90.0,1.0,64.0
3822,70.0,10.0,90.0,3.0,64.0
3823,74.0,96.0,90.0,2.0,64.0
3824,29.0,8.0,120.0,11.0,64.0
3825,41.0,2.0,90.0,7.0,64.0
3826,69.0,14.0,120.0,3.0,64.0
3827,65.0,0.0,90.0,5.0,64.0
3828,72.0,74.0,120.0,2.0,64.0
3829,41.0,4.0,60.0,15.0,64.0
3830,69.0,0.0,90.0,4.0,64.0
3831,60.0,4.0,90.0,6.0,64.0
3832,41.0,8.0,90.0,12.0,64.0
3833,77.0,3.0,90.0,1.0,64.0
3834,72.0,7.0,60.0,3.0,64.0
3835,87.0,103.0,90.0,1.0,64.0
3836,82.0,4.0,90.0,2.0,64.0
3837,45.0,1.0,90.0,11.0,64.0
3838,57.0,1.0,120.0,7.0,64.0
3839,81.0,0.0,90.0,2.0,64.0
3840,77.0,2.0,90.0,1.0,64.0
3841,65.0,3.0,90.0,4.0,64.0
3842,69.0,8.0,60.0,12.0,64.0
3843,72.0,3.0,60.0,12.0,64.0
3844,57.0,3.0,90.0,6.0,64.0
3845,60.0,78.0,90.0,5.0,64.0
3846,77.0,3.0,60.0,12.0,64.0
3847,57.0,9.0,90.0,15.0,64.0
3848,57.0,6.0,60.0,12.0,64.0
3849,77.0,1.0,90.0,3.0,64.0
3850,89.0,31.0,90.0,1.0,64.0
3851,84.0,3.0,90.0,2.0,64.0
3852,81.0,179.0,90.0,3.0,64.0
3853,46.0,1.0,210.0,11.0,64.0
3854,58.0,8.0,150.0,7.0,64.0
3855,86.0,13.0,240.0,1.0,64.0
3856,58.0,2.0,180.0,15.0,64.0
3857,58.0,89.0,240.0,12.0,64.0
3858,65.0,18.0,150.0,5.0,64.0
3859,70.0,4.0,210.0,4.0,64.0
3860,53.0,6.0,180.0,6.0,64.0
3861,82.0,1.0,180.0,12.0,64.0
3862,74.0,2.0,180.0,12.0,64.0
3863,77.0,9.0,180.0,12.0,64.0
3864,86.0,19.0,210.0,13.0,64.0
3865,55.0,5.0,120.0,7.0,64.0
3866,55.0,9.0,90.0,15.0,64.0
3867,43.0,6.0,90.0,11.0,64.0
3868,84.0,4.0,120.0,13.0,64.0
3869,74.0,3.0,90.0,12.0,64.0
3870,55.0,0.0,210.0,12.0,64.0
3871,58.0,82.0,120.0,6.0,64.0
3872,70.0,0.0,90.0,12.0,64.0
3873,84.0,0.0,90.0,1.0,64.0
3874,72.0,8.0,90.0,4.0,64.0
3875,67.0,0.0,90.0,5.0,64.0
3876,74.0,11.0,90.0,4.0,64.0
3877,82.0,115.0,120.0,13.0,64.0
3878,82.0,12.0,90.0,1.0,64.0
3879,51.0,2.0,150.0,7.0,64.0
3880,39.0,33.0,120.0,11.0,64.0
3881,51.0,0.0,120.0,15.0,64.0
3882,75.0,16.0,210.0,4.0,64.0
3883,84.0,105.0,210.0,13.0,64.0
3884,84.0,7.0,210.0,1.0,64.0
3885,63.0,53.0,150.0,6.0,64.0
3886,51.0,3.0,120.0,12.0,64.0
3887,67.0,6.0,90.0,5.0,64.0
3888,53.0,4.0,120.0,7.0,64.0
3889,41.0,11.0,90.0,11.0,64.0
3890,53.0,2.0,90.0,12.0,64.0
3891,53.0,2.0,90.0,15.0,64.0
3892,63.0,78.0,120.0,6.0,64.0
3893,74.0,23.0,90.0,12.0,64.0
3894,82.0,4.0,90.0,13.0,64.0
3895,65.0,1.0,90.0,5.0,64.0
3896,74.0,0.0,90.0,4.0,64.0
3897,82.0,0.0,90.0,1.0,64.0
3898,72.0,3.0,90.0,12.0,64.0
3899,81.0,153.0,120.0,13.0,64.0
3900,81.0,17.0,90.0,1.0,64.0
3901,72.0,0.0,90.0,4.0,64.0
3902,55.0,3.0,210.0,7.0,64.0
3903,82.0,27.0,240.0,1.0,64.0
3904,43.0,0.0,210.0,11.0,64.0
3905,62.0,4.0,150.0,6.0,64.0
3906,82.0,9.0,210.0,13.0,64.0
3907,55.0,73.0,240.0,12.0,64.0
3908,74.0,6.0,150.0,12.0,64.0
3909,70.0,10.0,150.0,4.0,64.0
3910,70.0,12.0,150.0,12.0,64.0
3911,55.0,29.0,180.0,15.0,64.0
3912,70.0,10.0,150.0,14.0,64.0
3913,53.0,9.0,90.0,15.0,64.0
3914,53.0,1.0,90.0,7.0,64.0
3915,41.0,2.0,90.0,11.0,64.0
3916,81.0,8.0,90.0,1.0,64.0
3917,58.0,6.0,90.0,4.0,64.0
3918,81.0,87.0,120.0,13.0,64.0
3919,62.0,0.0,60.0,12.0,64.0
3920,70.0,2.0,60.0,12.0,64.0
3921,53.0,0.0,60.0,12.0,64.0
3922,58.0,2.0,90.0,14.0,64.0
3923,39.0,7.0,90.0,11.0,64.0
3924,79.0,11.0,90.0,13.0,64.0
3925,51.0,2.0,90.0,7.0,64.0
3926,79.0,8.0,90.0,1.0,64.0
3927,51.0,1.0,90.0,15.0,64.0
3928,51.0,95.0,120.0,12.0,64.0
3929,50.0,11.0,180.0,7.0,64.0
3930,77.0,1.0,90.0,1.0,64.0
3931,77.0,9.0,90.0,13.0,64.0
3932,50.0,11.0,210.0,12.0,64.0
3933,50.0,10.0,180.0,15.0,64.0
3934,58.0,78.0,90.0,4.0,64.0
3935,58.0,6.0,90.0,14.0,64.0
3936,38.0,1.0,180.0,11.0,64.0
3937,82.0,3.0,60.0,13.0,64.0
3938,82.0,79.0,90.0,1.0,64.0
3939,77.0,6.0,60.0,13.0,64.0
3940,48.0,8.0,90.0,15.0,64.0
3941,77.0,6.0,60.0,1.0,64.0
3942,70.0,4.0,90.0,4.0,64.0
3943,70.0,7.0,90.0,14.0,64.0
3944,77.0,1.0,60.0,12.0,64.0
3945,48.0,3.0,90.0,7.0,64.0
3946,70.0,14.0,60.0,12.0,64.0
3947,48.0,1.0,90.0,12.0,64.0
3948,36.0,79.0,90.0,11.0,64.0
3949,34.0,7.0,90.0,11.0,64.0
3950,82.0,6.0,90.0,1.0,64.0
3951,46.0,6.0,60.0,15.0,64.0
3952,82.0,2.0,60.0,13.0,64.0
3953,46.0,164.0,90.0,7.0,64.0
3954,46.0,5.0,90.0,12.0,64.0
3955,51.0,4.0,180.0,7.0,64.0
3956,79.0,107.0,210.0,1.0,64.0
3957,51.0,24.0,180.0,15.0,64.0
3958,79.0,1.0,180.0,12.0,64.0
3959,70.0,8.0,120.0,14.0,64.0
3960,70.0,12.0,150.0,12.0,64.0
3961,79.0,2.0,210.0,13.0,64.0
3962,39.0,1.0,210.0,11.0,64.0
3963,70.0,25.0,120.0,4.0,64.0
3964,51.0,8.0,210.0,12.0,64.0
3965,50.0,7.0,90.0,15.0,64.0
3966,50.0,1.0,90.0,7.0,64.0
3967,77.0,4.0,90.0,13.0,64.0
3968,58.0,4.0,90.0,4.0,64.0
3969,77.0,1.0,90.0,1.0,64.0
3970,50.0,4.0,90.0,12.0,64.0
3971,58.0,1.0,90.0,14.0,64.0
3972,77.0,4.0,90.0,12.0,64.0
3973,70.0,65.0,90.0,12.0,64.0
3974,38.0,4.0,90.0,11.0,64.0
3975,36.0,1.0,90.0,11.0,64.0
3976,48.0,26.0,60.0,15.0,64.0
3977,75.0,0.0,90.0,13.0,64.0
3978,48.0,2.0,90.0,7.0,64.0
3979,48.0,2.0,90.0,12.0,64.0
3980,75.0,114.0,90.0,1.0,64.0
3981,34.0,3.0,120.0,11.0,64.0
3982,74.0,17.0,90.0,13.0,64.0
3983,46.0,44.0,150.0,7.0,64.0
3984,46.0,10.0,90.0,12.0,64.0
3985,46.0,17.0,120.0,15.0,64.0
3986,74.0,4.0,120.0,1.0,64.0
3987,58.0,8.0,120.0,14.0,64.0
3988,58.0,8.0,120.0,4.0,64.0
3989,82.0,9.0,90.0,13.0,64.0
3990,82.0,110.0,90.0,1.0,64.0
3991,74.0,2.0,90.0,13.0,64.0
3992,74.0,5.0,90.0,1.0,64.0
3993,58.0,2.0,90.0,15.0,64.0
3994,74.0,1.0,60.0,12.0,64.0
3995,65.0,7.0,90.0,12.0,64.0
3996,46.0,68.0,90.0,11.0,64.0
3997,58.0,6.0,90.0,7.0,64.0
3998,58.0,3.0,90.0,12.0,64.0
3999,70.0,6.0,90.0,4.0,64.0
4000,70.0,1.0,60.0,14.0,64.0
4001,45.0,4.0,90.0,11.0,64.0
4002,57.0,0.0,60.0,15.0,64.0
4003,82.0,29.0,60.0,13.0,64.0
4004,82.0,0.0,60.0,1.0,64.0
4005,57.0,170.0,120.0,12.0,64.0
4006,57.0,14.0,90.0,7.0,64.0
4007,55.0,18.0,210.0,7.0,64.0
4008,43.0,2.0,210.0,11.0,64.0
4009,55.0,21.0,180.0,15.0,64.0
4010,75.0,4.0,240.0,13.0,64.0
4011,55.0,4.0,210.0,12.0,64.0
4012,70.0,12.0,150.0,14.0,64.0
4013,70.0,92.0,240.0,12.0,64.0
4014,75.0,10.0,210.0,1.0,64.0
4015,70.0,2.0,150.0,4.0,64.0
4016,75.0,2.0,210.0,12.0,64.0
4017,53.0,1.0,90.0,15.0,64.0
4018,58.0,6.0,90.0,14.0,64.0
4019,74.0,1.0,90.0,13.0,64.0
4020,41.0,0.0,90.0,11.0,64.0
4021,58.0,1.0,90.0,4.0,64.0
4022,53.0,1.0,90.0,7.0,64.0
4023,53.0,4.0,90.0,12.0,64.0
4024,74.0,5.0,90.0,1.0,64.0
4025,70.0,4.0,90.0,12.0,64.0
4026,74.0,80.0,90.0,12.0,64.0
4027,39.0,7.0,90.0,11.0,64.0
4028,51.0,8.0,90.0,15.0,64.0
4029,72.0,11.0,90.0,13.0,64.0
4030,51.0,0.0,90.0,12.0,64.0
4031,51.0,2.0,90.0,7.0,64.0
4032,72.0,108.0,90.0,1.0,64.0
4033,38.0,9.0,120.0,11.0,64.0
4034,50.0,31.0,120.0,15.0,64.0
4035,50.0,8.0,90.0,12.0,64.0
4036,70.0,55.0,150.0,13.0,64.0
4037,58.0,5.0,90.0,14.0,64.0
4038,58.0,9.0,120.0,4.0,64.0
4039,70.0,4.0,120.0,1.0,64.0
4040,50.0,7.0,90.0,7.0,64.0
4041,82.0,98.0,90.0,1.0,64.0
4042,40.0,28.0,120.0,11.0,64.0
4043,72.0,2.0,90.0,1.0,64.0
4044,70.0,9.0,90.0,14.0,64.0
4045,52.0,2.0,90.0,15.0,64.0
4046,72.0,81.0,120.0,13.0,64.0
4047,67.0,5.0,60.0,12.0,64.0
4048,52.0,3.0,60.0,12.0,64.0
4049,70.0,9.0,60.0,4.0,64.0
4050,72.0,1.0,60.0,12.0,64.0
4051,52.0,4.0,90.0,7.0,64.0
4052,82.0,132.0,90.0,1.0,64.0
4053,41.0,4.0,180.0,11.0,64.0
4054,53.0,10.0,120.0,7.0,64.0
4055,70.0,57.0,270.0,12.0,64.0
4056,65.0,1.0,360.0,12.0,64.0
4057,53.0,10.0,150.0,15.0,64.0
4058,74.0,26.0,90.0,1.0,64.0
4059,74.0,7.0,150.0,13.0,64.0
4060,74.0,6.0,240.0,12.0,64.0
4061,65.0,2.0,150.0,14.0,64.0
4062,65.0,35.0,150.0,4.0,64.0
4063,53.0,2.0,150.0,12.0,64.0
4064,82.0,57.0,90.0,1.0,64.0
4065,29.0,1.0,120.0,11.0,64.0
4066,41.0,6.0,120.0,7.0,64.0
4067,67.0,10.0,120.0,14.0,64.0
4068,76.0,16.0,90.0,1.0,64.0
4069,76.0,73.0,120.0,13.0,64.0
4070,41.0,6.0,90.0,15.0,64.0
4071,67.0,0.0,120.0,4.0,64.0
4072,72.0,0.0,120.0,12.0,64.0
4073,41.0,8.0,60.0,12.0,64.0
4074,82.0,11.0,90.0,1.0,64.0
4075,70.0,106.0,90.0,12.0,64.0
4076,29.0,22.0,120.0,11.0,64.0
4077,41.0,6.0,120.0,7.0,64.0
4078,69.0,66.0,150.0,14.0,64.0
4079,41.0,10.0,90.0,15.0,64.0
4080,69.0,6.0,120.0,4.0,64.0
4081,77.0,1.0,120.0,1.0,64.0
4082,77.0,8.0,210.0,13.0,64.0
4083,41.0,7.0,90.0,12.0,64.0
4084,72.0,6.0,90.0,12.0,64.0
4085,81.0,122.0,90.0,1.0,64.0
4086,41.0,6.0,90.0,11.0,64.0
4087,77.0,12.0,120.0,1.0,64.0
4088,53.0,1.0,90.0,15.0,64.0
4089,65.0,82.0,120.0,14.0,64.0
4090,53.0,2.0,90.0,7.0,64.0
4091,65.0,0.0,90.0,12.0,64.0
4092,53.0,1.0,90.0,12.0,64.0
4093,65.0,0.0,90.0,4.0,64.0
4094,65.0,5.0,90.0,2.0,64.0
4095,43.0,6.0,90.0,11.0,64.0
4096,55.0,1.0,90.0,15.0,64.0
4097,82.0,5.0,90.0,1.0,64.0
4098,67.0,102.0,120.0,14.0,64.0
4099,55.0,0.0,90.0,7.0,64.0
4100,67.0,2.0,90.0,4.0,64.0
4101,67.0,23.0,90.0,2.0,64.0
4102,55.0,0.0,120.0,12.0,64.0
4103,67.0,0.0,120.0,12.0,64.0
4104,45.0,12.0,180.0,11.0,64.0
4105,57.0,13.0,150.0,7.0,64.0
4106,77.0,29.0,90.0,1.0,64.0
4107,69.0,20.0,120.0,4.0,64.0
4108,57.0,8.0,150.0,15.0,64.0
4109,69.0,9.0,180.0,14.0,64.0
4110,69.0,0.0,180.0,12.0,64.0
4111,57.0,1.0,180.0,12.0,64.0
4112,69.0,5.0,180.0,2.0,64.0
4113,84.0,123.0,90.0,1.0,64.0
4114,58.0,4.0,120.0,7.0,64.0
4115,46.0,15.0,90.0,11.0,64.0
4116,77.0,2.0,90.0,1.0,64.0
4117,70.0,0.0,90.0,4.0,64.0
4118,58.0,96.0,120.0,15.0,64.0
4119,70.0,2.0,120.0,14.0,64.0
4120,70.0,0.0,90.0,12.0,64.0
4121,58.0,1.0,90.0,12.0,64.0
4122,70.0,4.0,90.0,2.0,64.0
4123,86.0,126.0,90.0,1.0,64.0
4124,77.0,13.0,120.0,1.0,64.0
4125,60.0,10.0,120.0,7.0,64.0
4126,48.0,6.0,90.0,11.0,64.0
4127,72.0,80.0,120.0,14.0,64.0
4128,60.0,6.0,90.0,15.0,64.0
4129,72.0,2.0,90.0,4.0,64.0
4130,60.0,0.0,90.0,12.0,64.0
4131,72.0,0.0,90.0,12.0,64.0
4132,72.0,2.0,90.0,2.0,64.0
4133,87.0,98.0,90.0,1.0,64.0
4134,41.0,0.0,90.0,11.0,64.0
4135,53.0,1.0,90.0,7.0,64.0
4136,77.0,12.0,120.0,1.0,64.0
4137,53.0,3.0,90.0,15.0,64.0
4138,72.0,0.0,60.0,12.0,64.0
4139,65.0,0.0,60.0,12.0,64.0
4140,77.0,78.0,120.0,3.0,64.0
4141,60.0,0.0,60.0,6.0,64.0
4142,57.0,5.0,60.0,12.0,64.0
4143,72.0,14.0,90.0,4.0,64.0
4144,69.0,12.0,60.0,5.0,64.0
4145,81.0,7.0,90.0,2.0,64.0
4146,89.0,175.0,90.0,1.0,64.0
4147,86.0,5.0,210.0,1.0,64.0
4148,58.0,12.0,150.0,7.0,64.0
4149,46.0,21.0,180.0,11.0,64.0
4150,70.0,8.0,210.0,4.0,64.0
4151,58.0,30.0,150.0,15.0,64.0
4152,77.0,5.0,210.0,3.0,64.0
4153,62.0,6.0,180.0,6.0,64.0
4154,58.0,6.0,210.0,12.0,64.0
4155,70.0,79.0,240.0,12.0,64.0
4156,65.0,0.0,240.0,12.0,64.0
4157,82.0,13.0,240.0,2.0,64.0
4158,65.0,6.0,180.0,5.0,64.0
4159,51.0,9.0,90.0,7.0,64.0
4160,63.0,3.0,120.0,6.0,64.0
4161,72.0,5.0,120.0,4.0,64.0
4162,39.0,6.0,90.0,11.0,64.0
4163,51.0,2.0,90.0,15.0,64.0
4164,51.0,4.0,120.0,12.0,64.0
4165,84.0,3.0,90.0,1.0,64.0
4166,67.0,57.0,150.0,5.0,64.0
4167,75.0,9.0,90.0,3.0,64.0
4168,79.0,1.0,120.0,2.0,64.0
4169,67.0,0.0,90.0,12.0,64.0
4170,72.0,20.0,90.0,12.0,64.0
4171,82.0,10.0,90.0,1.0,64.0
4172,74.0,23.0,90.0,3.0,64.0
4173,74.0,78.0,120.0,12.0,64.0
4174,77.0,34.0,120.0,1.0,64.0
4175,72.0,7.0,120.0,3.0,64.0
4176,63.0,3.0,120.0,6.0,64.0
4177,53.0,3.0,90.0,7.0,64.0
4178,53.0,5.0,90.0,12.0,64.0
4179,41.0,2.0,90.0,11.0,64.0
4180,72.0,2.0,90.0,4.0,64.0
4181,53.0,6.0,90.0,15.0,64.0
4182,65.0,9.0,60.0,12.0,64.0
4183,70.0,0.0,60.0,12.0,64.0
4184,72.0,0.0,60.0,12.0,64.0
4185,69.0,3.0,90.0,5.0,64.0
4186,77.0,166.0,150.0,2.0,64.0
4187,63.0,6.0,90.0,6.0,64.0
4188,65.0,221.0,120.0,5.0,64.0
4189,72.0,4.0,90.0,4.0,64.0
4190,41.0,4.0,90.0,7.0,64.0
4191,29.0,3.0,60.0,11.0,64.0
4192,81.0,6.0,90.0,13.0,64.0
4193,81.0,15.0,90.0,1.0,64.0
4194,41.0,0.0,90.0,15.0,64.0
4195,63.0,0.0,60.0,12.0,64.0
4196,72.0,6.0,60.0,12.0,64.0
4197,69.0,0.0,60.0,12.0,64.0
4198,41.0,7.0,60.0,12.0,64.0
4199,31.0,5.0,480.0,11.0,64.0
4200,43.0,8.0,510.0,7.0,64.0
4201,62.0,110.0,90.0,6.0,64.0
4202,82.0,5.0,240.0,1.0,64.0
4203,43.0,15.0,360.0,15.0,64.0
4204,70.0,98.0,240.0,14.0,64.0
4205,70.0,7.0,210.0,4.0,64.0
4206,82.0,3.0,210.0,13.0,64.0
4207,43.0,52.0,510.0,12.0,64.0
4208,55.0,6.0,420.0,12.0,64.0
4209,58.0,3.0,450.0,12.0,64.0
4210,62.0,11.0,360.0,12.0,64.0
4211,70.0,11.0,90.0,6.0,64.0
4212,67.0,16.0,360.0,12.0,64.0
4213,70.0,6.0,330.0,12.0,64.0
4214,81.0,3.0,90.0,1.0,64.0
4215,81.0,2.0,90.0,13.0,64.0
4216,69.0,16.0,90.0,4.0,64.0
4217,69.0,88.0,120.0,14.0,64.0
4218,79.0,7.0,90.0,1.0,64.0
4219,79.0,1.0,90.0,13.0,64.0
4220,67.0,0.0,90.0,4.0,64.0
4221,67.0,5.0,90.0,14.0,64.0
4222,65.0,1.0,90.0,4.0,64.0
4223,77.0,2.0,90.0,13.0,64.0
4224,77.0,5.0,90.0,1.0,64.0
4225,65.0,84.0,90.0,14.0,64.0
4226,75.0,13.0,60.0,13.0,64.0
4227,63.0,5.0,90.0,4.0,64.0
4228,75.0,89.0,90.0,1.0,64.0
4229,63.0,4.0,90.0,14.0,64.0
4230,33.0,13.0,90.0,11.0,64.0
4231,74.0,1.0,90.0,13.0,64.0
4232,74.0,0.0,90.0,1.0,64.0
4233,62.0,90.0,90.0,4.0,64.0
4234,45.0,1.0,60.0,15.0,64.0
4235,62.0,1.0,90.0,14.0,64.0
4236,45.0,6.0,90.0,7.0,64.0
4237,62.0,0.0,90.0,12.0,64.0
4238,45.0,12.0,60.0,12.0,64.0
4239,65.0,2.0,90.0,12.0,64.0
4240,60.0,4.0,90.0,4.0,64.0
4241,72.0,2.0,90.0,13.0,64.0
4242,60.0,181.0,120.0,12.0,64.0
4243,60.0,10.0,60.0,14.0,64.0
4244,72.0,23.0,90.0,1.0,64.0
4245,34.0,9.0,180.0,11.0,64.0
4246,62.0,0.0,240.0,12.0,64.0
4247,65.0,10.0,240.0,12.0,64.0
4248,62.0,14.0,210.0,4.0,64.0
4249,62.0,11.0,180.0,14.0,64.0
4250,74.0,8.0,180.0,13.0,64.0
4251,74.0,13.0,210.0,1.0,64.0
4252,46.0,74.0,240.0,12.0,64.0
4253,46.0,1.0,180.0,15.0,64.0
4254,46.0,1.0,180.0,7.0,64.0
4255,39.0,4.0,120.0,11.0,64.0
4256,67.0,5.0,90.0,12.0,64.0
4257,70.0,0.0,90.0,12.0,64.0
4258,72.0,9.0,60.0,13.0,64.0
4259,39.0,7.0,90.0,15.0,64.0
4260,39.0,4.0,90.0,7.0,64.0
4261,60.0,83.0,90.0,14.0,64.0
4262,51.0,1.0,90.0,12.0,64.0
4263,72.0,6.0,90.0,1.0,64.0
4264,60.0,0.0,90.0,4.0,64.0
4265,70.0,19.0,90.0,13.0,64.0
4266,58.0,73.0,120.0,14.0,64.0
4267,58.0,1.0,90.0,4.0,64.0
4268,70.0,13.0,90.0,1.0,64.0
4269,41.0,189.0,120.0,11.0,64.0
4270,77.0,3.0,120.0,13.0,64.0
4271,65.0,7.0,90.0,14.0,64.0
4272,65.0,6.0,90.0,4.0,64.0
4273,41.0,4.0,60.0,15.0,64.0
4274,77.0,1.0,90.0,1.0,64.0
4275,41.0,15.0,60.0,7.0,64.0
4276,53.0,8.0,60.0,12.0,64.0
4277,70.0,0.0,60.0,12.0,64.0
4278,65.0,7.0,60.0,12.0,64.0
4279,29.0,2.0,90.0,11.0,64.0
4280,65.0,349.0,90.0,13.0,64.0
4281,53.0,0.0,60.0,15.0,64.0
4282,65.0,0.0,90.0,1.0,64.0
4283,53.0,0.0,90.0,4.0,64.0
4284,53.0,16.0,60.0,14.0,64.0
4285,41.0,10.0,60.0,12.0,64.0
4286,53.0,2.0,90.0,7.0,64.0
4287,69.0,6.0,30.0,12.0,64.0
4288,63.0,0.0,30.0,12.0,64.0
4289,46.0,7.0,210.0,11.0,64.0
4290,70.0,11.0,270.0,1.0,64.0
4291,70.0,41.0,300.0,13.0,64.0
4292,70.0,4.0,210.0,4.0,64.0
4293,70.0,9.0,210.0,14.0,64.0
4294,58.0,14.0,240.0,7.0,64.0
4295,58.0,11.0,210.0,15.0,64.0
4296,58.0,0.0,240.0,12.0,64.0
4297,70.0,30.0,240.0,12.0,64.0
4298,57.0,6.0,120.0,15.0,64.0
4299,69.0,10.0,90.0,4.0,64.0
4300,45.0,9.0,90.0,11.0,64.0
4301,57.0,5.0,120.0,12.0,64.0
4302,69.0,0.0,120.0,12.0,64.0
4303,69.0,4.0,90.0,14.0,64.0
4304,57.0,65.0,120.0,7.0,64.0
4305,55.0,10.0,90.0,15.0,64.0
4306,43.0,13.0,60.0,11.0,64.0
4307,67.0,3.0,90.0,4.0,64.0
4308,55.0,2.0,90.0,7.0,64.0
4309,67.0,24.0,90.0,14.0,64.0
4310,55.0,73.0,120.0,12.0,64.0
4311,67.0,0.0,120.0,12.0,64.0
4312,41.0,15.0,90.0,11.0,64.0
4313,65.0,11.0,120.0,14.0,64.0
4314,53.0,4.0,90.0,15.0,64.0
4315,65.0,8.0,90.0,4.0,64.0
4316,65.0,0.0,120.0,12.0,64.0
4317,53.0,59.0,120.0,12.0,64.0
4318,53.0,9.0,90.0,7.0,64.0
4319,39.0,5.0,60.0,11.0,64.0
4320,51.0,13.0,60.0,7.0,64.0
4321,63.0,3.0,90.0,14.0,64.0
4322,51.0,4.0,90.0,15.0,64.0
4323,63.0,4.0,90.0,4.0,64.0
4324,51.0,67.0,90.0,12.0,64.0
4325,63.0,0.0,90.0,12.0,64.0
4326,70.0,19.0,90.0,1.0,64.0
4327,38.0,6.0,60.0,11.0,64.0
4328,62.0,12.0,90.0,14.0,64.0
4329,62.0,3.0,60.0,4.0,64.0
4330,50.0,13.0,60.0,15.0,64.0
4331,50.0,1.0,90.0,7.0,64.0
4332,50.0,9.0,90.0,12.0,64.0
4333,62.0,0.0,90.0,12.0,64.0
4334,65.0,67.0,90.0,1.0,64.0
4335,36.0,18.0,60.0,11.0,64.0
4336,60.0,3.0,90.0,4.0,64.0
4337,60.0,0.0,90.0,14.0,64.0
4338,48.0,11.0,90.0,7.0,64.0
4339,48.0,3.0,60.0,15.0,64.0
4340,67.0,141.0,90.0,1.0,64.0
4341,48.0,11.0,90.0,12.0,64.0
4342,60.0,0.0,90.0,12.0,64.0
4343,58.0,6.0,120.0,14.0,64.0
4344,58.0,8.0,120.0,4.0,64.0
4345,34.0,70.0,270.0,11.0,64.0
4346,46.0,38.0,180.0,15.0,64.0
4347,46.0,7.0,240.0,7.0,64.0
4348,74.0,0.0,120.0,3.0,64.0
4349,77.0,52.0,120.0,2.0,64.0
4350,46.0,61.0,510.0,12.0,64.0
4351,68.0,10.0,120.0,1.0,64.0
4352,58.0,3.0,450.0,12.0,64.0
4353,62.0,7.0,450.0,12.0,64.0
4354,65.0,17.0,390.0,12.0,64.0
4355,67.0,5.0,120.0,1.0,64.0
4356,72.0,1.0,120.0,3.0,64.0
4357,68.0,16.0,360.0,12.0,64.0
4358,75.0,23.0,90.0,2.0,64.0
4359,68.0,6.0,90.0,1.0,64.0
4360,58.0,67.0,120.0,4.0,64.0
4361,58.0,22.0,120.0,14.0,64.0
4362,74.0,14.0,90.0,3.0,64.0
4363,77.0,1.0,120.0,2.0,64.0
4364,77.0,30.0,90.0,1.0,64.0
4365,58.0,50.0,150.0,4.0,64.0
4366,58.0,37.0,90.0,14.0,64.0
4367,74.0,6.0,90.0,1.0,64.0
4368,68.0,129.0,60.0,1.0,64.0
4369,65.0,19.0,90.0,1.0,64.0
4370,58.0,59.0,120.0,4.0,64.0
4371,58.0,18.0,90.0,14.0,64.0
4372,58.0,185.0,90.0,1.0,64.0
4373,34.0,23.0,150.0,11.0,64.0
4374,46.0,22.0,210.0,15.0,64.0
4375,46.0,6.0,240.0,7.0,64.0
4376,58.0,51.0,150.0,4.0,64.0
4377,58.0,3.0,120.0,14.0,64.0
4378,46.0,60.0,510.0,12.0,64.0
4379,74.0,7.0,120.0,3.0,64.0
4380,77.0,1.0,120.0,2.0,64.0
4381,68.0,0.0,120.0,1.0,64.0
4382,72.0,97.0,120.0,3.0,64.0
4383,67.0,0.0,120.0,1.0,64.0
4384,75.0,17.0,90.0,2.0,64.0
4385,58.0,10.0,120.0,14.0,64.0
4386,58.0,23.0,120.0,4.0,64.0
4387,68.0,3.0,90.0,1.0,64.0
4388,74.0,43.0,150.0,3.0,64.0
4389,77.0,14.0,150.0,2.0,64.0
4390,77.0,70.0,60.0,1.0,64.0
4391,58.0,13.0,90.0,4.0,64.0
4392,58.0,5.0,90.0,14.0,64.0
4393,74.0,89.0,90.0,1.0,64.0
4394,68.0,129.0,60.0,1.0,64.0
4395,65.0,12.0,90.0,1.0,64.0
4396,58.0,91.0,90.0,4.0,64.0
4397,58.0,0.0,90.0,14.0,64.0
4398,58.0,131.0,90.0,1.0,64.0
4399,58.0,12.0,600.0,12.0,64.0
4400,63.0,24.0,570.0,12.0,64.0
4401,34.0,0.0,180.0,11.0,64.0
4402,46.0,13.0,210.0,15.0,64.0
4403,58.0,36.0,180.0,4.0,64.0
4404,46.0,52.0,270.0,7.0,64.0
4405,58.0,6.0,180.0,14.0,64.0
4406,75.0,2.0,120.0,2.0,64.0
4407,67.0,1.0,120.0,1.0,64.0
4408,46.0,25.0,480.0,12.0,64.0
4409,70.0,38.0,120.0,3.0,64.0
4410,65.0,50.0,60.0,12.0,64.0
4411,67.0,22.0,450.0,12.0,64.0
4412,65.0,12.0,120.0,1.0,64.0
4413,69.0,11.0,120.0,3.0,64.0
4414,74.0,13.0,90.0,2.0,64.0
4415,67.0,22.0,90.0,1.0,64.0
4416,70.0,14.0,120.0,3.0,64.0
4417,75.0,69.0,120.0,2.0,64.0
4418,58.0,17.0,90.0,14.0,64.0
4419,58.0,6.0,120.0,4.0,64.0
4420,75.0,44.0,90.0,1.0,64.0
4421,70.0,11.0,90.0,1.0,64.0
4422,58.0,78.0,90.0,4.0,64.0
4423,58.0,5.0,90.0,14.0,64.0
4424,67.0,132.0,60.0,1.0,64.0
4425,63.0,15.0,90.0,1.0,64.0
4426,58.0,66.0,120.0,4.0,64.0
4427,58.0,23.0,90.0,14.0,64.0
4428,58.0,180.0,60.0,1.0,64.0
4429,34.0,21.0,180.0,11.0,64.0
4430,58.0,40.0,180.0,4.0,64.0
4431,46.0,81.0,480.0,12.0,64.0
4432,46.0,6.0,240.0,15.0,64.0
4433,67.0,15.0,120.0,1.0,64.0
4434,70.0,1.0,120.0,3.0,64.0
4435,58.0,21.0,150.0,14.0,64.0
4436,75.0,9.0,120.0,2.0,64.0
4437,46.0,1.0,240.0,7.0,64.0
4438,65.0,17.0,120.0,1.0,64.0
4439,69.0,62.0,150.0,3.0,64.0
4440,74.0,6.0,90.0,2.0,64.0
4441,67.0,15.0,90.0,1.0,64.0
4442,75.0,52.0,150.0,2.0,64.0
4443,58.0,11.0,90.0,14.0,64.0
4444,70.0,15.0,90.0,3.0,64.0
4445,58.0,22.0,120.0,4.0,64.0
4446,75.0,58.0,60.0,1.0,64.0
4447,70.0,21.0,90.0,1.0,64.0
4448,58.0,1.0,90.0,14.0,64.0
4449,58.0,77.0,120.0,4.0,64.0
4450,67.0,131.0,90.0,1.0,64.0
4451,63.0,41.0,90.0,1.0,64.0
4452,58.0,5.0,90.0,14.0,64.0
4453,58.0,60.0,120.0,4.0,64.0
4454,58.0,178.0,90.0,1.0,64.0
4455,60.0,2.0,600.0,12.0,64.0
4456,63.0,12.0,570.0,12.0,64.0
4457,46.0,4.0,240.0,15.0,64.0
4458,34.0,7.0,180.0,11.0,64.0
4459,46.0,47.0,480.0,12.0,64.0
4460,72.0,19.0,120.0,2.0,64.0
4461,63.0,4.0,120.0,3.0,64.0
4462,46.0,8.0,240.0,7.0,64.0
4463,58.0,9.0,150.0,14.0,64.0
4464,58.0,55.0,180.0,4.0,64.0
4465,69.0,3.0,120.0,1.0,64.0
4466,65.0,13.0,540.0,12.0,64.0
4467,69.0,7.0,510.0,12.0,64.0
4468,67.0,75.0,120.0,1.0,64.0
4469,62.0,10.0,120.0,3.0,64.0
4470,70.0,2.0,90.0,2.0,64.0
4471,63.0,10.0,90.0,3.0,64.0
4472,69.0,7.0,90.0,1.0,64.0
4473,72.0,78.0,120.0,2.0,64.0
4474,58.0,4.0,90.0,14.0,64.0
4475,58.0,27.0,90.0,4.0,64.0
4476,75.0,39.0,90.0,1.0,64.0
4477,58.0,77.0,120.0,4.0,64.0
4478,58.0,9.0,90.0,14.0,64.0
4479,72.0,16.0,90.0,1.0,64.0
4480,69.0,130.0,60.0,1.0,64.0
4481,58.0,24.0,90.0,14.0,64.0
4482,58.0,82.0,120.0,4.0,64.0
4483,63.0,11.0,90.0,1.0,64.0
4484,60.0,164.0,90.0,1.0,64.0
4485,34.0,42.0,150.0,11.0,64.0
4486,46.0,3.0,240.0,15.0,64.0
4487,58.0,44.0,180.0,4.0,64.0
4488,46.0,87.0,240.0,7.0,64.0
4489,58.0,5.0,120.0,14.0,64.0
4490,63.0,4.0,120.0,3.0,64.0
4491,69.0,0.0,120.0,1.0,64.0
4492,72.0,8.0,120.0,2.0,64.0
4493,46.0,47.0,510.0,12.0,64.0
4494,67.0,4.0,120.0,1.0,64.0
4495,62.0,2.0,120.0,3.0,64.0
4496,70.0,12.0,90.0,2.0,64.0
4497,69.0,20.0,120.0,1.0,64.0
4498,63.0,26.0,120.0,3.0,64.0
4499,58.0,8.0,90.0,14.0,64.0
4500,58.0,2.0,120.0,4.0,64.0
4501,72.0,56.0,150.0,2.0,64.0
4502,75.0,72.0,90.0,1.0,64.0
4503,58.0,13.0,90.0,14.0,64.0
4504,72.0,28.0,90.0,1.0,64.0
4505,58.0,59.0,120.0,4.0,64.0
4506,69.0,129.0,60.0,1.0,64.0
4507,58.0,2.0,90.0,14.0,64.0
4508,63.0,20.0,90.0,1.0,64.0
4509,58.0,100.0,90.0,4.0,64.0
4510,60.0,155.0,90.0,1.0,64.0
4511,58.0,55.0,180.0,14.0,64.0
4512,58.0,21.0,150.0,4.0,64.0
4513,58.0,1.0,210.0,12.0,64.0
4514,70.0,11.0,120.0,2.0,64.0
4515,62.0,11.0,120.0,1.0,64.0
4516,58.0,3.0,120.0,15.0,64.0
4517,62.0,5.0,120.0,3.0,64.0
4518,58.0,1.0,150.0,7.0,64.0
4519,70.0,4.0,240.0,12.0,64.0
4520,65.0,2.0,360.0,12.0,64.0
4521,62.0,1.0,360.0,12.0,64.0
4522,46.0,3.0,120.0,11.0,64.0
4523,69.0,78.0,120.0,2.0,64.0
4524,60.0,7.0,90.0,3.0,64.0
4525,65.0,5.0,90.0,1.0,64.0
4526,58.0,2.0,90.0,4.0,64.0
4527,62.0,9.0,90.0,3.0,64.0
4528,58.0,28.0,150.0,14.0,64.0
4529,70.0,5.0,90.0,2.0,64.0
4530,57.0,24.0,150.0,12.0,64.0
4531,72.0,0.0,150.0,12.0,64.0
4532,45.0,23.0,90.0,11.0,64.0
4533,57.0,5.0,120.0,15.0,64.0
4534,67.0,0.0,90.0,1.0,64.0
4535,57.0,13.0,120.0,7.0,64.0
4536,64.0,13.0,60.0,3.0,64.0
4537,72.0,3.0,90.0,2.0,64.0
4538,69.0,93.0,60.0,1.0,64.0
4539,74.0,3.0,120.0,2.0,64.0
4540,58.0,21.0,180.0,14.0,64.0
4541,43.0,4.0,120.0,11.0,64.0
4542,65.0,4.0,120.0,3.0,64.0
4543,58.0,16.0,90.0,4.0,64.0
4544,67.0,29.0,60.0,12.0,64.0
4545,55.0,0.0,90.0,12.0,64.0
4546,70.0,9.0,120.0,1.0,64.0
4547,70.0,1.0,60.0,12.0,64.0
4548,74.0,1.0,60.0,12.0,64.0
4549,55.0,4.0,90.0,15.0,64.0
4550,55.0,52.0,120.0,7.0,64.0
4551,64.0,5.0,90.0,3.0,64.0
4552,72.0,15.0,90.0,2.0,64.0
4553,72.0,73.0,90.0,1.0,64.0
4554,65.0,1.0,90.0,3.0,64.0
4555,70.0,4.0,90.0,2.0,64.0
4556,60.0,6.0,120.0,14.0,64.0
4557,60.0,8.0,90.0,4.0,64.0
4558,67.0,2.0,60.0,12.0,64.0
4559,64.0,7.0,60.0,12.0,64.0
4560,60.0,74.0,120.0,7.0,64.0
4561,74.0,5.0,90.0,1.0,64.0
4562,60.0,17.0,60.0,12.0,64.0
4563,72.0,1.0,60.0,12.0,64.0
4564,48.0,6.0,90.0,11.0,64.0
4565,60.0,4.0,90.0,15.0,64.0
4566,72.0,11.0,90.0,2.0,64.0
4567,67.0,10.0,90.0,3.0,64.0
4568,76.0,134.0,90.0,1.0,64.0
4569,69.0,6.0,210.0,3.0,64.0
4570,69.0,12.0,240.0,2.0,64.0
4571,60.0,9.0,90.0,14.0,64.0
4572,53.0,0.0,240.0,7.0,64.0
4573,77.0,83.0,120.0,1.0,64.0
4574,69.0,11.0,450.0,12.0,64.0
4575,53.0,18.0,240.0,12.0,64.0
4576,60.0,7.0,90.0,4.0,64.0
4577,41.0,65.0,240.0,11.0,64.0
4578,53.0,1.0,180.0,15.0,64.0
4579,65.0,0.0,390.0,12.0,64.0
4580,57.0,1.0,360.0,12.0,64.0
4581,60.0,1.0,330.0,12.0,64.0
4582,77.0,9.0,90.0,14.0,64.0
4583,77.0,16.0,90.0,4.0,64.0
4584,55.0,0.0,300.0,12.0,64.0
4585,76.0,1.0,90.0,14.0,64.0
4586,76.0,7.0,90.0,4.0,64.0
4587,52.0,20.0,90.0,12.0,64.0
4588,52.0,4.0,90.0,7.0,64.0
4589,65.0,4.0,90.0,1.0,64.0
4590,52.0,6.0,90.0,15.0,64.0
4591,40.0,71.0,90.0,11.0,64.0
4592,74.0,2.0,120.0,14.0,64.0
4593,74.0,1.0,90.0,4.0,64.0
4594,50.0,1.0,90.0,7.0,64.0
4595,50.0,7.0,90.0,12.0,64.0
4596,50.0,1.0,60.0,15.0,64.0
4597,38.0,94.0,90.0,11.0,64.0
4598,72.0,84.0,120.0,14.0,64.0
4599,72.0,6.0,90.0,4.0,64.0
4600,48.0,7.0,90.0,7.0,64.0
4601,36.0,8.0,90.0,11.0,64.0
4602,48.0,2.0,90.0,12.0,64.0
4603,48.0,0.0,90.0,15.0,64.0
4604,34.0,8.0,90.0,11.0,64.0
4605,70.0,3.0,90.0,14.0,64.0
4606,46.0,2.0,60.0,7.0,64.0
4607,70.0,4.0,60.0,4.0,64.0
4608,46.0,12.0,90.0,12.0,64.0
4609,77.0,72.0,90.0,2.0,64.0
4610,46.0,1.0,60.0,15.0,64.0
4611,45.0,8.0,60.0,7.0,64.0
4612,33.0,8.0,90.0,11.0,64.0
4613,69.0,2.0,90.0,14.0,64.0
4614,69.0,5.0,60.0,4.0,64.0
4615,45.0,15.0,90.0,12.0,64.0
4616,72.0,67.0,90.0,2.0,64.0
4617,45.0,13.0,60.0,15.0,64.0
4618,31.0,23.0,90.0,11.0,64.0
4619,43.0,0.0,90.0,7.0,64.0
4620,67.0,3.0,90.0,14.0,64.0
4621,43.0,0.0,90.0,12.0,64.0
4622,67.0,6.0,90.0,4.0,64.0
4623,74.0,149.0,90.0,2.0,64.0
4624,43.0,14.0,60.0,15.0,64.0
4625,30.0,30.0,210.0,11.0,64.0
4626,42.0,92.0,270.0,7.0,64.0
4627,42.0,17.0,510.0,12.0,64.0
4628,66.0,12.0,150.0,4.0,64.0
4629,66.0,1.0,120.0,14.0,64.0
4630,81.0,11.0,120.0,1.0,64.0
4631,75.0,22.0,120.0,2.0,64.0
4632,72.0,3.0,120.0,3.0,64.0
4633,42.0,47.0,180.0,15.0,64.0
4634,60.0,11.0,480.0,12.0,64.0
4635,63.0,4.0,450.0,12.0,64.0
4636,69.0,3.0,450.0,12.0,64.0
4637,70.0,1.0,120.0,3.0,64.0
4638,72.0,53.0,420.0,12.0,64.0
4639,79.0,3.0,120.0,1.0,64.0
4640,74.0,0.0,120.0,2.0,64.0
4641,72.0,2.0,120.0,3.0,64.0
4642,66.0,26.0,120.0,14.0,64.0
4643,75.0,1.0,90.0,2.0,64.0
4644,66.0,4.0,120.0,4.0,64.0
4645,81.0,67.0,120.0,1.0,64.0
4646,84.0,53.0,90.0,2.0,64.0
4647,66.0,9.0,120.0,14.0,64.0
4648,66.0,78.0,120.0,4.0,64.0
4649,81.0,12.0,90.0,2.0,64.0
4650,78.0,120.0,90.0,2.0,64.0
4651,75.0,38.0,90.0,2.0,64.0
4652,66.0,3.0,120.0,14.0,64.0
4653,66.0,71.0,120.0,4.0,64.0
4654,72.0,156.0,90.0,2.0,64.0
4655,33.0,47.0,150.0,11.0,64.0
4656,69.0,10.0,120.0,3.0,64.0
4657,45.0,52.0,210.0,15.0,64.0
4658,69.0,14.0,120.0,14.0,64.0
4659,45.0,92.0,480.0,12.0,64.0
4660,69.0,4.0,150.0,4.0,64.0
4661,45.0,1.0,240.0,7.0,64.0
4662,84.0,5.0,120.0,1.0,64.0
4663,75.0,3.0,120.0,2.0,64.0
4664,67.0,61.0,150.0,3.0,64.0
4665,74.0,7.0,120.0,2.0,64.0
4666,82.0,5.0,120.0,1.0,64.0
4667,69.0,0.0,120.0,3.0,64.0
4668,69.0,19.0,90.0,14.0,64.0
4669,69.0,23.0,120.0,4.0,64.0
4670,75.0,19.0,90.0,2.0,64.0
4671,84.0,68.0,120.0,1.0,64.0
4672,84.0,31.0,90.0,2.0,64.0
4673,69.0,95.0,120.0,4.0,64.0
4674,69.0,14.0,90.0,14.0,64.0
4675,81.0,6.0,90.0,2.0,64.0
4676,78.0,121.0,90.0,2.0,64.0
4677,69.0,82.0,150.0,4.0,64.0
4678,69.0,38.0,90.0,14.0,64.0
4679,75.0,9.0,90.0,2.0,64.0
4680,72.0,131.0,90.0,2.0,64.0
4681,57.0,3.0,570.0,12.0,64.0
4682,69.0,7.0,120.0,3.0,64.0
4683,62.0,1.0,540.0,12.0,64.0
4684,36.0,1.0,150.0,11.0,64.0
4685,48.0,11.0,210.0,15.0,64.0
4686,72.0,1.0,150.0,4.0,64.0
4687,72.0,72.0,150.0,14.0,64.0
4688,78.0,20.0,120.0,1.0,64.0
4689,48.0,18.0,480.0,12.0,64.0
4690,74.0,0.0,120.0,2.0,64.0
4691,66.0,4.0,510.0,12.0,64.0
4692,48.0,47.0,270.0,7.0,64.0
4693,69.0,7.0,480.0,12.0,64.0
4694,74.0,46.0,450.0,12.0,64.0
4695,67.0,7.0,150.0,3.0,64.0
4696,76.0,25.0,120.0,1.0,64.0
4697,72.0,25.0,120.0,2.0,64.0
4698,69.0,19.0,90.0,3.0,64.0
4699,78.0,6.0,120.0,1.0,64.0
4700,72.0,96.0,120.0,4.0,64.0
4701,72.0,1.0,90.0,14.0,64.0
4702,74.0,6.0,90.0,2.0,64.0
4703,84.0,37.0,90.0,2.0,64.0
4704,72.0,80.0,120.0,4.0,64.0
4705,81.0,7.0,120.0,2.0,64.0
4706,72.0,19.0,90.0,14.0,64.0
4707,78.0,124.0,60.0,2.0,64.0
4708,74.0,27.0,90.0,2.0,64.0
4709,72.0,78.0,120.0,4.0,64.0
4710,72.0,21.0,90.0,14.0,64.0
4711,69.0,141.0,90.0,2.0,64.0
4712,60.0,45.0,300.0,7.0,64.0
4713,72.0,39.0,150.0,4.0,64.0
4714,60.0,29.0,210.0,15.0,64.0
4715,69.0,13.0,120.0,3.0,64.0
4716,78.0,0.0,120.0,1.0,64.0
4717,60.0,67.0,510.0,12.0,64.0
4718,72.0,17.0,90.0,14.0,64.0
4719,74.0,2.0,120.0,2.0,64.0
4720,48.0,20.0,150.0,11.0,64.0
4721,67.0,8.0,120.0,3.0,64.0
4722,72.0,35.0,150.0,2.0,64.0
4723,76.0,23.0,120.0,1.0,64.0
4724,69.0,0.0,120.0,3.0,64.0
4725,72.0,92.0,120.0,4.0,64.0
4726,72.0,9.0,90.0,14.0,64.0
4727,78.0,10.0,120.0,1.0,64.0
4728,74.0,13.0,90.0,2.0,64.0
4729,84.0,44.0,90.0,2.0,64.0
4730,72.0,21.0,90.0,14.0,64.0
4731,72.0,106.0,120.0,4.0,64.0
4732,81.0,4.0,120.0,2.0,64.0
4733,78.0,106.0,90.0,2.0,64.0
4734,72.0,98.0,120.0,4.0,64.0
4735,72.0,14.0,90.0,14.0,64.0
4736,74.0,11.0,90.0,2.0,64.0
4737,69.0,141.0,90.0,2.0,64.0
4738,62.0,4.0,570.0,12.0,64.0
4739,42.0,12.0,240.0,11.0,64.0
4740,66.0,5.0,540.0,12.0,64.0
4741,75.0,1.0,150.0,3.0,64.0
4742,54.0,6.0,210.0,15.0,64.0
4743,66.0,49.0,150.0,4.0,64.0
4744,81.0,19.0,120.0,1.0,64.0
4745,54.0,26.0,270.0,7.0,64.0
4746,66.0,0.0,120.0,14.0,64.0
4747,54.0,33.0,480.0,12.0,64.0
4748,72.0,25.0,120.0,2.0,64.0
4749,69.0,36.0,480.0,12.0,64.0
4750,72.0,1.0,450.0,12.0,64.0
4751,79.0,20.0,120.0,1.0,64.0
4752,74.0,3.0,120.0,3.0,64.0
4753,70.0,37.0,120.0,2.0,64.0
4754,75.0,8.0,120.0,3.0,64.0
4755,81.0,15.0,60.0,1.0,64.0
4756,72.0,2.0,120.0,2.0,64.0
4757,66.0,20.0,90.0,14.0,64.0
4758,66.0,90.0,120.0,4.0,64.0
4759,81.0,34.0,90.0,2.0,64.0
4760,66.0,91.0,120.0,4.0,64.0
4761,66.0,17.0,90.0,14.0,64.0
4762,78.0,6.0,90.0,2.0,64.0
4763,74.0,126.0,90.0,2.0,64.0
4764,66.0,81.0,120.0,4.0,64.0
4765,72.0,10.0,90.0,2.0,64.0
4766,66.0,7.0,90.0,14.0,64.0
4767,69.0,154.0,60.0,2.0,64.0
4768,38.0,15.0,240.0,11.0,64.0
4769,81.0,7.0,120.0,1.0,64.0
4770,78.0,18.0,120.0,3.0,64.0
4771,62.0,0.0,120.0,4.0,64.0
4772,50.0,3.0,210.0,15.0,64.0
4773,50.0,79.0,600.0,12.0,64.0
4774,62.0,64.0,120.0,14.0,64.0
4775,50.0,45.0,300.0,7.0,64.0
4776,72.0,13.0,120.0,2.0,64.0
4777,79.0,19.0,120.0,1.0,64.0
4778,76.0,5.0,150.0,3.0,64.0
4779,70.0,50.0,120.0,2.0,64.0
4780,81.0,3.0,150.0,1.0,64.0
4781,78.0,71.0,150.0,3.0,64.0
4782,62.0,1.0,90.0,4.0,64.0
4783,72.0,14.0,90.0,2.0,64.0
4784,62.0,20.0,90.0,14.0,64.0
4785,81.0,125.0,90.0,2.0,64.0
4786,62.0,17.0,120.0,4.0,64.0
4787,78.0,2.0,90.0,2.0,64.0
4788,62.0,11.0,90.0,14.0,64.0
4789,74.0,135.0,90.0,2.0,64.0
4790,72.0,0.0,90.0,2.0,64.0
4791,62.0,3.0,90.0,4.0,64.0
4792,62.0,8.0,90.0,14.0,64.0
4793,79.0,1.0,90.0,1.0,64.0
4794,74.0,110.0,90.0,3.0,64.0
4795,69.0,2.0,90.0,2.0,64.0
4796,72.0,0.0,90.0,3.0,64.0
4797,78.0,156.0,90.0,1.0,64.0
4798,74.0,13.0,150.0,3.0,64.0
4799,62.0,6.0,270.0,4.0,64.0
4800,79.0,1.0,180.0,1.0,64.0
4801,70.0,15.0,150.0,2.0,64.0
4802,62.0,8.0,210.0,14.0,64.0
4803,43.0,33.0,150.0,11.0,64.0
4804,55.0,58.0,210.0,15.0,64.0
4805,55.0,11.0,180.0,12.0,64.0
4806,67.0,14.0,480.0,12.0,64.0
4807,62.0,5.0,480.0,12.0,64.0
4808,70.0,79.0,510.0,12.0,64.0
4809,55.0,58.0,270.0,7.0,64.0
4810,43.0,8.0,120.0,11.0,64.0
4811,70.0,68.0,120.0,2.0,64.0
4812,67.0,0.0,90.0,3.0,64.0
4813,74.0,13.0,90.0,1.0,64.0
4814,55.0,32.0,180.0,12.0,64.0
4815,72.0,1.0,90.0,1.0,64.0
4816,66.0,12.0,90.0,3.0,64.0
4817,69.0,20.0,90.0,2.0,64.0
4818,43.0,35.0,150.0,11.0,64.0
4819,67.0,9.0,150.0,3.0,64.0
4820,74.0,16.0,180.0,1.0,64.0
4821,70.0,15.0,150.0,2.0,64.0
4822,55.0,144.0,180.0,12.0,64.0
4823,43.0,15.0,120.0,11.0,64.0
4824,62.0,82.0,90.0,6.0,64.0
4825,55.0,24.0,180.0,12.0,64.0
4826,70.0,2.0,90.0,4.0,64.0
4827,67.0,4.0,90.0,5.0,64.0
4828,60.0,159.0,120.0,6.0,64.0
4829,69.0,2.0,90.0,4.0,64.0
4830,66.0,9.0,90.0,5.0,64.0
4831,43.0,1.0,180.0,11.0,64.0
4832,70.0,1.0,150.0,4.0,64.0
4833,62.0,6.0,150.0,6.0,64.0
4834,67.0,44.0,150.0,5.0,64.0
4835,55.0,145.0,180.0,12.0,64.0
4836,67.0,2.0,480.0,12.0,64.0
4837,62.0,75.0,480.0,12.0,64.0
4838,58.0,4.0,480.0,12.0,64.0
4839,43.0,1.0,120.0,11.0,64.0
4840,55.0,40.0,180.0,12.0,64.0
4841,58.0,59.0,120.0,6.0,64.0
4842,67.0,2.0,90.0,4.0,64.0
4843,62.0,12.0,90.0,5.0,64.0
4844,57.0,16.0,120.0,6.0,64.0
4845,66.0,2.0,90.0,4.0,64.0
4846,60.0,14.0,90.0,5.0,64.0
4847,43.0,61.0,120.0,11.0,64.0
4848,67.0,9.0,180.0,4.0,64.0
4849,58.0,8.0,150.0,6.0,64.0
4850,55.0,177.0,150.0,12.0,64.0
4851,62.0,0.0,150.0,5.0,64.0
4852,43.0,10.0,120.0,11.0,64.0
4853,55.0,99.0,120.0,12.0,64.0
4854,55.0,0.0,90.0,8.0,64.0
4855,58.0,3.0,90.0,7.0,64.0
4856,62.0,0.0,90.0,10.0,64.0
4857,42.0,18.0,120.0,11.0,64.0
4858,57.0,0.0,90.0,7.0,64.0
4859,54.0,0.0,90.0,8.0,64.0
4860,60.0,7.0,90.0,10.0,64.0
4861,54.0,101.0,120.0,12.0,64.0
4862,43.0,17.0,120.0,11.0,64.0
4863,58.0,173.0,180.0,10.0,64.0
4864,55.0,8.0,150.0,7.0,64.0
4865,55.0,3.0,90.0,8.0,64.0
4866,55.0,18.0,90.0,12.0,64.0
4867,58.0,0.0,150.0,12.0,64.0
4868,62.0,17.0,150.0,12.0,64.0
4869,31.0,5.0,120.0,11.0,64.0
4870,67.0,78.0,120.0,13.0,64.0
4871,43.0,1.0,90.0,7.0,64.0
4872,67.0,1.0,90.0,1.0,64.0
4873,43.0,17.0,90.0,15.0,64.0
4874,55.0,0.0,90.0,4.0,64.0
4875,55.0,1.0,90.0,14.0,64.0
4876,43.0,7.0,90.0,12.0,64.0
4877,67.0,0.0,90.0,12.0,64.0
4878,33.0,8.0,120.0,11.0,64.0
4879,45.0,9.0,120.0,15.0,64.0
4880,45.0,2.0,90.0,7.0,64.0
4881,69.0,3.0,120.0,12.0,64.0
4882,69.0,98.0,120.0,13.0,64.0
4883,45.0,0.0,120.0,12.0,64.0
4884,69.0,0.0,90.0,1.0,64.0
4885,57.0,4.0,90.0,4.0,64.0
4886,57.0,12.0,90.0,14.0,64.0
4887,34.0,7.0,150.0,11.0,64.0
4888,70.0,7.0,120.0,1.0,64.0
4889,46.0,18.0,150.0,7.0,64.0
4890,58.0,1.0,120.0,14.0,64.0
4891,70.0,12.0,120.0,13.0,64.0
4892,46.0,170.0,150.0,15.0,64.0
4893,46.0,1.0,150.0,12.0,64.0
4894,70.0,2.0,120.0,12.0,64.0
4895,58.0,11.0,90.0,4.0,64.0
4896,48.0,11.0,120.0,7.0,64.0
4897,60.0,5.0,90.0,14.0,64.0
4898,60.0,4.0,120.0,4.0,64.0
4899,72.0,0.0,90.0,12.0,64.0
4900,48.0,8.0,90.0,12.0,64.0
4901,72.0,1.0,120.0,1.0,64.0
4902,48.0,1.0,90.0,15.0,64.0
4903,72.0,9.0,90.0,13.0,64.0
4904,36.0,239.0,120.0,11.0,64.0
4905,50.0,28.0,120.0,7.0,64.0
4906,38.0,20.0,210.0,11.0,64.0
4907,62.0,2.0,180.0,14.0,64.0
4908,62.0,17.0,210.0,4.0,64.0
4909,74.0,10.0,150.0,1.0,64.0
4910,74.0,28.0,150.0,13.0,64.0
4911,50.0,0.0,150.0,12.0,64.0
4912,50.0,4.0,150.0,15.0,64.0
4913,54.0,7.0,510.0,12.0,64.0
4914,57.0,2.0,510.0,12.0,64.0
4915,60.0,7.0,480.0,12.0,64.0
4916,62.0,4.0,480.0,12.0,64.0
4917,49.0,7.0,120.0,7.0,64.0
4918,49.0,72.0,120.0,15.0,64.0
4919,50.0,5.0,90.0,7.0,64.0
4920,50.0,3.0,180.0,12.0,64.0
4921,38.0,24.0,150.0,11.0,64.0
4922,50.0,21.0,60.0,15.0,64.0
4923,78.0,1.0,90.0,1.0,64.0
4924,69.0,57.0,90.0,3.0,64.0
4925,72.0,0.0,90.0,2.0,64.0
4926,52.0,17.0,90.0,7.0,64.0
4927,52.0,11.0,60.0,15.0,64.0
4928,76.0,1.0,90.0,1.0,64.0
4929,70.0,0.0,90.0,2.0,64.0
4930,67.0,97.0,90.0,3.0,64.0
4931,38.0,23.0,150.0,11.0,64.0
4932,50.0,36.0,90.0,7.0,64.0
4933,69.0,1.0,150.0,3.0,64.0
4934,50.0,0.0,60.0,15.0,64.0
4935,72.0,1.0,150.0,2.0,64.0
4936,78.0,33.0,150.0,1.0,64.0
4937,50.0,8.0,180.0,12.0,64.0
4938,54.0,109.0,90.0,7.0,64.0
4939,54.0,4.0,60.0,15.0,64.0
4940,38.0,1.0,120.0,11.0,64.0
4941,50.0,29.0,90.0,7.0,64.0
4942,50.0,5.0,60.0,15.0,64.0
4943,50.0,1.0,180.0,12.0,64.0
4944,81.0,0.0,90.0,1.0,64.0
4945,72.0,0.0,90.0,3.0,64.0
4946,78.0,81.0,90.0,2.0,64.0
4947,55.0,26.0,90.0,7.0,64.0
4948,55.0,4.0,60.0,15.0,64.0
4949,70.0,1.0,90.0,3.0,64.0
4950,79.0,0.0,90.0,1.0,64.0
4951,76.0,160.0,90.0,2.0,64.0
4952,57.0,10.0,570.0,12.0,64.0
4953,38.0,1.0,180.0,11.0,64.0
4954,72.0,0.0,150.0,3.0,64.0
4955,60.0,5.0,570.0,12.0,64.0
4956,50.0,9.0,150.0,7.0,64.0
4957,50.0,9.0,150.0,15.0,64.0
4958,78.0,33.0,150.0,2.0,64.0
4959,81.0,43.0,180.0,1.0,64.0
4960,50.0,10.0,180.0,12.0,64.0
4961,62.0,4.0,540.0,12.0,64.0
4962,66.0,57.0,540.0,12.0,64.0
4963,49.0,69.0,120.0,7.0,64.0
4964,49.0,4.0,120.0,15.0,64.0
4965,50.0,4.0,90.0,7.0,64.0
4966,50.0,22.0,90.0,15.0,64.0
4967,66.0,62.0,120.0,6.0,64.0
4968,50.0,4.0,180.0,12.0,64.0
4969,72.0,17.0,90.0,4.0,64.0
4970,69.0,0.0,90.0,5.0,64.0
4971,38.0,2.0,90.0,11.0,64.0
4972,52.0,23.0,90.0,7.0,64.0
4973,52.0,6.0,60.0,15.0,64.0
4974,70.0,1.0,90.0,4.0,64.0
4975,67.0,53.0,120.0,6.0,64.0
4976,67.0,34.0,90.0,5.0,64.0
4977,38.0,2.0,90.0,11.0,64.0
4978,72.0,3.0,180.0,4.0,64.0
4979,50.0,7.0,90.0,7.0,64.0
4980,50.0,2.0,60.0,15.0,64.0
4981,69.0,2.0,150.0,5.0,64.0
4982,66.0,16.0,150.0,6.0,64.0
4983,50.0,15.0,150.0,12.0,64.0
4984,57.0,110.0,90.0,7.0,64.0
4985,57.0,9.0,60.0,15.0,64.0
4986,50.0,27.0,90.0,7.0,64.0
4987,38.0,7.0,90.0,11.0,64.0
4988,50.0,3.0,60.0,15.0,64.0
4989,66.0,57.0,120.0,6.0,64.0
4990,50.0,1.0,180.0,12.0,64.0
4991,72.0,1.0,90.0,5.0,64.0
4992,75.0,20.0,90.0,4.0,64.0
4993,58.0,33.0,90.0,7.0,64.0
4994,58.0,2.0,60.0,15.0,64.0
4995,67.0,127.0,150.0,6.0,64.0
4996,74.0,0.0,90.0,4.0,64.0
4997,70.0,43.0,90.0,5.0,64.0
4998,60.0,12.0,480.0,12.0,64.0
4999,62.0,0.0,510.0,12.0,64.0
5000,38.0,5.0,180.0,11.0,64.0
5001,50.0,3.0,150.0,7.0,64.0
5002,75.0,5.0,180.0,4.0,64.0
5003,66.0,7.0,480.0,12.0,64.0
5004,50.0,4.0,150.0,15.0,64.0
5005,66.0,5.0,150.0,6.0,64.0
5006,72.0,16.0,150.0,5.0,64.0
5007,50.0,52.0,180.0,12.0,64.0
5008,69.0,5.0,450.0,12.0,64.0
5009,49.0,91.0,120.0,7.0,64.0
5010,49.0,2.0,120.0,15.0,64.0
5011,50.0,6.0,90.0,7.0,64.0
5012,50.0,6.0,90.0,15.0,64.0
5013,38.0,3.0,120.0,11.0,64.0
5014,66.0,7.0,120.0,13.0,64.0
5015,50.0,22.0,150.0,12.0,64.0
5016,66.0,9.0,90.0,4.0,64.0
5017,66.0,42.0,120.0,14.0,64.0
5018,66.0,9.0,90.0,1.0,64.0
5019,52.0,15.0,90.0,7.0,64.0
5020,64.0,13.0,90.0,1.0,64.0
5021,52.0,5.0,60.0,15.0,64.0
5022,64.0,3.0,90.0,4.0,64.0
5023,64.0,1.0,120.0,13.0,64.0
5024,64.0,65.0,120.0,14.0,64.0
5025,66.0,38.0,150.0,4.0,64.0
5026,50.0,14.0,90.0,7.0,64.0
5027,50.0,1.0,90.0,15.0,64.0
5028,38.0,3.0,90.0,11.0,64.0
5029,66.0,5.0,90.0,1.0,64.0
5030,66.0,7.0,90.0,13.0,64.0
5031,66.0,34.0,90.0,14.0,64.0
5032,50.0,1.0,90.0,12.0,64.0
5033,60.0,13.0,60.0,7.0,64.0
5034,60.0,113.0,90.0,15.0,64.0
5035,50.0,11.0,90.0,7.0,64.0
5036,50.0,9.0,90.0,11.0,64.0
5037,50.0,1.0,60.0,15.0,64.0
5038,74.0,4.0,120.0,4.0,64.0
5039,74.0,49.0,120.0,14.0,64.0
5040,62.0,0.0,90.0,12.0,64.0
5041,74.0,24.0,90.0,12.0,64.0
5042,86.0,5.0,90.0,13.0,64.0
5043,86.0,3.0,90.0,1.0,64.0
5044,62.0,252.0,60.0,7.0,64.0
5045,62.0,0.0,60.0,15.0,64.0
5046,46.0,11.0,210.0,11.0,64.0
5047,58.0,2.0,240.0,7.0,64.0
5048,58.0,3.0,210.0,15.0,64.0
5049,82.0,0.0,210.0,1.0,64.0
5050,82.0,1.0,210.0,13.0,64.0
5051,70.0,9.0,210.0,4.0,64.0
5052,70.0,16.0,180.0,14.0,64.0
5053,70.0,0.0,210.0,12.0,64.0
5054,58.0,106.0,210.0,12.0,64.0
5055,57.0,1.0,90.0,15.0,64.0
5056,81.0,1.0,90.0,13.0,64.0
5057,57.0,0.0,90.0,7.0,64.0
5058,57.0,0.0,90.0,12.0,64.0
5059,69.0,2.0,90.0,12.0,64.0
5060,69.0,7.0,90.0,4.0,64.0
5061,69.0,2.0,90.0,14.0,64.0
5062,45.0,5.0,90.0,11.0,64.0
5063,81.0,71.0,90.0,1.0,64.0
5064,43.0,16.0,90.0,11.0,64.0
5065,55.0,0.0,90.0,15.0,64.0
5066,79.0,1.0,90.0,13.0,64.0
5067,79.0,12.0,90.0,1.0,64.0
5068,67.0,0.0,90.0,12.0,64.0
5069,55.0,2.0,90.0,12.0,64.0
5070,67.0,190.0,90.0,14.0,64.0
5071,55.0,1.0,90.0,7.0,64.0
5072,67.0,11.0,90.0,4.0,64.0
5073,45.0,11.0,210.0,11.0,64.0
5074,57.0,1.0,240.0,7.0,64.0
5075,57.0,9.0,180.0,15.0,64.0
5076,81.0,9.0,210.0,1.0,64.0
5077,81.0,16.0,240.0,13.0,64.0
5078,69.0,1.0,180.0,14.0,64.0
5079,69.0,20.0,180.0,4.0,64.0
5080,69.0,0.0,240.0,12.0,64.0
5081,57.0,97.0,240.0,12.0,64.0
5082,55.0,0.0,90.0,15.0,64.0
5083,67.0,67.0,120.0,14.0,64.0
5084,55.0,1.0,90.0,7.0,64.0
5085,67.0,0.0,90.0,4.0,64.0
5086,79.0,1.0,90.0,1.0,64.0
5087,79.0,2.0,90.0,13.0,64.0
5088,43.0,5.0,90.0,11.0,64.0
5089,67.0,0.0,90.0,12.0,64.0
5090,55.0,8.0,90.0,12.0,64.0
5091,42.0,9.0,90.0,11.0,64.0
5092,54.0,1.0,90.0,15.0,64.0
5093,66.0,0.0,90.0,14.0,64.0
5094,78.0,2.0,90.0,13.0,64.0
5095,78.0,6.0,60.0,1.0,64.0
5096,54.0,1.0,90.0,7.0,64.0
5097,66.0,340.0,90.0,4.0,64.0
5098,66.0,12.0,60.0,12.0,64.0
5099,54.0,0.0,60.0,12.0,64.0
5100,63.0,3.0,300.0,15.0,64.0
5101,63.0,16.0,330.0,7.0,64.0
5102,75.0,2.0,330.0,4.0,64.0
5103,87.0,3.0,300.0,13.0,64.0
5104,75.0,2.0,300.0,14.0,64.0
5105,51.0,99.0,330.0,11.0,64.0
5106,87.0,2.0,330.0,1.0,64.0
5107,75.0,0.0,330.0,12.0,64.0
5108,63.0,3.0,330.0,12.0,64.0
5109,86.0,7.0,90.0,13.0,64.0
5110,62.0,97.0,90.0,15.0,64.0
5111,62.0,2.0,90.0,7.0,64.0
5112,74.0,7.0,90.0,14.0,64.0
5113,74.0,3.0,90.0,4.0,64.0
5114,86.0,1.0,90.0,1.0,64.0
5115,74.0,2.0,60.0,12.0,64.0
5116,62.0,0.0,60.0,12.0,64.0
5117,50.0,2.0,90.0,11.0,64.0
5118,84.0,0.0,90.0,13.0,64.0
5119,72.0,1.0,90.0,4.0,64.0
5120,72.0,3.0,90.0,14.0,64.0
5121,60.0,5.0,90.0,15.0,64.0
5122,60.0,70.0,120.0,7.0,64.0
5123,84.0,17.0,90.0,1.0,64.0
5124,60.0,0.0,60.0,12.0,64.0
5125,72.0,5.0,60.0,12.0,64.0
5126,48.0,1.0,90.0,11.0,64.0
5127,46.0,6.0,90.0,11.0,64.0
5128,82.0,3.0,90.0,13.0,64.0
5129,70.0,1.0,60.0,14.0,64.0
5130,70.0,4.0,90.0,4.0,64.0
5131,58.0,4.0,90.0,15.0,64.0
5132,82.0,0.0,90.0,1.0,64.0
5133,58.0,82.0,90.0,7.0,64.0
5134,70.0,2.0,90.0,12.0,64.0
5135,58.0,0.0,90.0,12.0,64.0
5136,45.0,18.0,60.0,11.0,64.0
5137,81.0,3.0,60.0,13.0,64.0
5138,69.0,7.0,90.0,14.0,64.0
5139,69.0,2.0,60.0,4.0,64.0
5140,57.0,3.0,90.0,15.0,64.0
5141,57.0,87.0,90.0,12.0,64.0
5142,69.0,0.0,90.0,12.0,64.0
5143,81.0,4.0,90.0,1.0,64.0
5144,57.0,1.0,90.0,7.0,64.0
5145,43.0,11.0,90.0,11.0,64.0
5146,67.0,0.0,90.0,4.0,64.0
5147,79.0,5.0,90.0,13.0,64.0
5148,67.0,2.0,90.0,14.0,64.0
5149,55.0,8.0,90.0,15.0,64.0
5150,67.0,5.0,90.0,12.0,64.0
5151,55.0,0.0,90.0,12.0,64.0
5152,79.0,169.0,90.0,1.0,64.0
5153,55.0,1.0,60.0,7.0,64.0
5154,42.0,18.0,150.0,11.0,64.0
5155,54.0,19.0,180.0,15.0,64.0
5156,69.0,10.0,150.0,14.0,64.0
5157,54.0,22.0,180.0,7.0,64.0
5158,86.0,1.0,210.0,1.0,64.0
5159,69.0,0.0,180.0,4.0,64.0
5160,86.0,13.0,210.0,13.0,64.0
5161,54.0,77.0,240.0,12.0,64.0
5162,69.0,0.0,240.0,12.0,64.0
5163,74.0,16.0,210.0,12.0,64.0
5164,43.0,2.0,120.0,11.0,64.0
5165,55.0,3.0,120.0,15.0,64.0
5166,74.0,5.0,120.0,14.0,64.0
5167,55.0,88.0,120.0,7.0,64.0
5168,74.0,6.0,120.0,4.0,64.0
5169,55.0,0.0,60.0,12.0,64.0
5170,74.0,0.0,60.0,12.0,64.0
5171,67.0,30.0,60.0,12.0,64.0
5172,84.0,3.0,120.0,13.0,64.0
5173,84.0,7.0,90.0,1.0,64.0
5174,82.0,103.0,90.0,13.0,64.0
5175,82.0,0.0,90.0,1.0,64.0
5176,36.0,25.0,120.0,11.0,64.0
5177,48.0,10.0,90.0,15.0,64.0
5178,72.0,6.0,210.0,4.0,64.0
5179,81.0,47.0,150.0,13.0,64.0
5180,72.0,93.0,210.0,14.0,64.0
5181,81.0,5.0,210.0,1.0,64.0
5182,48.0,8.0,90.0,12.0,64.0
5183,48.0,5.0,120.0,7.0,64.0
5184,67.0,29.0,120.0,12.0,64.0
5185,69.0,0.0,120.0,12.0,64.0
5186,38.0,3.0,90.0,11.0,64.0
5187,50.0,3.0,90.0,15.0,64.0
5188,50.0,6.0,120.0,7.0,64.0
5189,70.0,9.0,120.0,14.0,64.0
5190,69.0,4.0,60.0,12.0,64.0
5191,66.0,4.0,60.0,12.0,64.0
5192,50.0,9.0,90.0,12.0,64.0
5193,74.0,13.0,60.0,12.0,64.0
5194,79.0,84.0,120.0,13.0,64.0
5195,70.0,4.0,90.0,4.0,64.0
5196,79.0,9.0,90.0,1.0,64.0
5197,78.0,121.0,120.0,13.0,64.0
5198,69.0,11.0,120.0,14.0,64.0
5199,69.0,1.0,90.0,4.0,64.0
5200,78.0,17.0,90.0,1.0,64.0
5201,31.0,15.0,330.0,11.0,64.0
5202,79.0,31.0,150.0,13.0,64.0
5203,67.0,112.0,480.0,12.0,64.0
5204,79.0,46.0,180.0,1.0,64.0
5205,62.0,0.0,480.0,12.0,64.0
5206,43.0,20.0,300.0,15.0,64.0
5207,70.0,3.0,480.0,12.0,64.0
5208,43.0,9.0,300.0,7.0,64.0
5209,70.0,25.0,120.0,4.0,64.0
5210,43.0,3.0,450.0,12.0,64.0
5211,74.0,72.0,90.0,4.0,64.0
5212,67.0,94.0,90.0,4.0,64.0
5213,79.0,1.0,90.0,1.0,64.0
5214,74.0,0.0,90.0,2.0,64.0
5215,70.0,3.0,90.0,3.0,64.0
5216,69.0,15.0,90.0,4.0,64.0
5217,78.0,1.0,90.0,1.0,64.0
5218,69.0,0.0,90.0,3.0,64.0
5219,72.0,19.0,90.0,2.0,64.0
5220,70.0,41.0,120.0,4.0,64.0
5221,67.0,4.0,150.0,3.0,64.0
5222,79.0,1.0,150.0,1.0,64.0
5223,74.0,45.0,150.0,2.0,64.0
5224,72.0,91.0,90.0,4.0,64.0
5225,74.0,14.0,90.0,4.0,64.0
5226,50.0,4.0,60.0,15.0,64.0
5227,50.0,28.0,60.0,7.0,64.0
5228,50.0,3.0,60.0,12.0,64.0
5229,38.0,2.0,60.0,11.0,64.0
5230,66.0,49.0,120.0,6.0,64.0
5231,74.0,7.0,60.0,12.0,64.0
5232,69.0,0.0,60.0,12.0,64.0
5233,69.0,59.0,150.0,5.0,64.0
5234,72.0,126.0,120.0,4.0,64.0
5235,70.0,1.0,180.0,4.0,64.0
5236,55.0,7.0,240.0,7.0,64.0
5237,55.0,69.0,240.0,15.0,64.0
5238,70.0,0.0,300.0,12.0,64.0
5239,67.0,0.0,300.0,12.0,64.0
5240,62.0,42.0,150.0,6.0,64.0
5241,62.0,4.0,300.0,12.0,64.0
5242,43.0,5.0,240.0,11.0,64.0
5243,55.0,82.0,510.0,12.0,64.0
5244,70.0,65.0,90.0,5.0,64.0
5245,74.0,27.0,90.0,5.0,64.0
5246,79.0,55.0,150.0,4.0,64.0
5247,70.0,25.0,120.0,6.0,64.0
5248,67.0,15.0,90.0,5.0,64.0
5249,79.0,1.0,90.0,1.0,64.0
5250,74.0,21.0,90.0,2.0,64.0
5251,70.0,0.0,90.0,3.0,64.0
5252,69.0,11.0,90.0,5.0,64.0
5253,78.0,1.0,90.0,1.0,64.0
5254,69.0,0.0,90.0,3.0,64.0
5255,72.0,61.0,90.0,2.0,64.0
5256,70.0,35.0,120.0,5.0,64.0
5257,74.0,4.0,150.0,2.0,64.0
5258,79.0,54.0,150.0,1.0,64.0
5259,67.0,0.0,150.0,3.0,64.0
5260,72.0,84.0,90.0,5.0,64.0
5261,78.0,57.0,120.0,4.0,64.0
5262,62.0,16.0,60.0,7.0,64.0
5263,78.0,0.0,60.0,12.0,64.0
5264,72.0,7.0,60.0,12.0,64.0
5265,62.0,0.0,60.0,12.0,64.0
5266,50.0,5.0,60.0,11.0,64.0
5267,69.0,0.0,60.0,12.0,64.0
5268,74.0,2.0,90.0,5.0,64.0
5269,62.0,25.0,90.0,15.0,64.0
5270,69.0,22.0,180.0,6.0,64.0
5271,72.0,168.0,90.0,5.0,64.0
5272,55.0,10.0,270.0,11.0,64.0
5273,70.0,31.0,180.0,5.0,64.0
5274,67.0,59.0,270.0,7.0,64.0
5275,67.0,4.0,270.0,15.0,64.0
5276,79.0,21.0,180.0,4.0,64.0
5277,70.0,0.0,330.0,12.0,64.0
5278,79.0,2.0,330.0,12.0,64.0
5279,67.0,92.0,480.0,12.0,64.0
5280,70.0,44.0,90.0,6.0,64.0
5281,74.0,37.0,90.0,6.0,64.0
5282,74.0,16.0,150.0,4.0,64.0
5283,67.0,16.0,90.0,6.0,64.0
5284,79.0,47.0,150.0,5.0,64.0
5285,79.0,1.0,90.0,1.0,64.0
5286,70.0,0.0,90.0,3.0,64.0
5287,74.0,34.0,90.0,2.0,64.0
5288,69.0,15.0,90.0,6.0,64.0
5289,78.0,1.0,90.0,1.0,64.0
5290,72.0,46.0,90.0,2.0,64.0
5291,69.0,0.0,90.0,3.0,64.0
5292,70.0,3.0,120.0,6.0,64.0
5293,67.0,36.0,120.0,4.0,64.0
5294,74.0,2.0,150.0,2.0,64.0
5295,67.0,4.0,150.0,3.0,64.0
5296,79.0,48.0,150.0,1.0,64.0
5297,72.0,87.0,90.0,6.0,64.0
5298,74.0,28.0,90.0,6.0,64.0
5299,50.0,0.0,90.0,11.0,64.0
5300,69.0,78.0,120.0,4.0,64.0
5301,62.0,8.0,90.0,15.0,64.0
5302,62.0,3.0,60.0,7.0,64.0
5303,66.0,0.0,60.0,12.0,64.0
5304,69.0,0.0,60.0,12.0,64.0
5305,74.0,21.0,60.0,12.0,64.0
5306,78.0,4.0,90.0,5.0,64.0
5307,62.0,8.0,60.0,12.0,64.0
5308,72.0,147.0,90.0,6.0,64.0
5309,70.0,34.0,120.0,6.0,64.0
5310,79.0,8.0,180.0,5.0,64.0
5311,70.0,4.0,180.0,4.0,64.0
5312,55.0,4.0,120.0,15.0,64.0
5313,74.0,2.0,210.0,12.0,64.0
5314,79.0,59.0,240.0,12.0,64.0
5315,70.0,0.0,210.0,12.0,64.0
5316,55.0,1.0,90.0,7.0,64.0
5317,55.0,14.0,120.0,12.0,64.0
5318,43.0,6.0,90.0,11.0,64.0
5319,45.0,31.0,60.0,11.0,64.0
5320,57.0,9.0,60.0,15.0,64.0
5321,57.0,3.0,60.0,7.0,64.0
5322,57.0,14.0,90.0,12.0,64.0
5323,46.0,13.0,60.0,11.0,64.0
5324,58.0,3.0,60.0,7.0,64.0
5325,58.0,1.0,60.0,15.0,64.0
5326,79.0,11.0,90.0,6.0,64.0
5327,67.0,11.0,120.0,4.0,64.0
5328,67.0,0.0,60.0,12.0,64.0
5329,58.0,0.0,60.0,12.0,64.0
5330,74.0,14.0,60.0,12.0,64.0
5331,70.0,0.0,60.0,12.0,64.0
5332,74.0,34.0,120.0,5.0,64.0
5333,79.0,1.0,90.0,1.0,64.0
5334,74.0,0.0,90.0,2.0,64.0
5335,70.0,11.0,90.0,3.0,64.0
5336,45.0,5.0,60.0,11.0,64.0
5337,57.0,9.0,60.0,15.0,64.0
5338,57.0,17.0,60.0,7.0,64.0
5339,81.0,2.0,90.0,1.0,64.0
5340,72.0,0.0,90.0,2.0,64.0
5341,72.0,86.0,90.0,3.0,64.0
5342,57.0,24.0,60.0,12.0,64.0
5343,43.0,2.0,90.0,11.0,64.0
5344,55.0,10.0,60.0,15.0,64.0
5345,55.0,2.0,90.0,7.0,64.0
5346,62.0,12.0,90.0,4.0,64.0
5347,82.0,38.0,120.0,1.0,64.0
5348,74.0,7.0,150.0,3.0,64.0
5349,70.0,0.0,60.0,12.0,64.0
5350,55.0,19.0,60.0,12.0,64.0
5351,62.0,0.0,60.0,12.0,64.0
5352,67.0,0.0,60.0,12.0,64.0
5353,67.0,3.0,120.0,5.0,64.0
5354,70.0,3.0,90.0,6.0,64.0
5355,70.0,17.0,150.0,2.0,64.0
5356,41.0,5.0,60.0,11.0,64.0
5357,53.0,17.0,60.0,15.0,64.0
5358,53.0,2.0,90.0,7.0,64.0
5359,53.0,1.0,90.0,12.0,64.0
5360,81.0,73.0,90.0,1.0,64.0
5361,40.0,12.0,60.0,11.0,64.0
5362,52.0,5.0,60.0,7.0,64.0
5363,52.0,21.0,60.0,15.0,64.0
5364,71.0,13.0,90.0,5.0,64.0
5365,74.0,8.0,90.0,6.0,64.0
5366,79.0,3.0,90.0,1.0,64.0
5367,58.0,0.0,60.0,12.0,64.0
5368,52.0,7.0,60.0,12.0,64.0
5369,67.0,0.0,60.0,12.0,64.0
5370,62.0,0.0,60.0,12.0,64.0
5371,67.0,1.0,90.0,4.0,64.0
5372,74.0,0.0,90.0,3.0,64.0
5373,71.0,45.0,90.0,2.0,64.0
5374,38.0,20.0,60.0,11.0,64.0
5375,50.0,10.0,60.0,7.0,64.0
5376,50.0,11.0,60.0,15.0,64.0
5377,77.0,134.0,90.0,1.0,64.0
5378,50.0,10.0,60.0,12.0,64.0
5379,36.0,4.0,360.0,11.0,64.0
5380,48.0,15.0,330.0,7.0,64.0
5381,76.0,74.0,240.0,3.0,64.0
5382,72.0,8.0,240.0,2.0,64.0
5383,64.0,16.0,90.0,5.0,64.0
5384,67.0,5.0,90.0,6.0,64.0
5385,48.0,56.0,540.0,12.0,64.0
5386,64.0,1.0,510.0,12.0,64.0
5387,72.0,99.0,120.0,4.0,64.0
5388,76.0,6.0,120.0,1.0,64.0
5389,60.0,6.0,480.0,12.0,64.0
5390,48.0,0.0,240.0,15.0,64.0
5391,55.0,22.0,510.0,12.0,64.0
5392,79.0,16.0,90.0,1.0,64.0
5393,72.0,4.0,90.0,1.0,64.0
5394,67.0,2.0,90.0,5.0,64.0
5395,64.0,72.0,120.0,6.0,64.0
5396,72.0,22.0,90.0,4.0,64.0
5397,74.0,16.0,90.0,1.0,64.0
5398,65.0,2.0,90.0,5.0,64.0
5399,62.0,16.0,120.0,6.0,64.0
5400,71.0,31.0,90.0,4.0,64.0
5401,67.0,5.0,150.0,5.0,64.0
5402,76.0,42.0,90.0,1.0,64.0
5403,72.0,4.0,150.0,4.0,64.0
5404,60.0,55.0,150.0,6.0,64.0
5405,77.0,102.0,90.0,1.0,64.0
5406,43.0,1.0,90.0,15.0,64.0
5407,43.0,9.0,90.0,7.0,64.0
5408,71.0,13.0,90.0,3.0,64.0
5409,74.0,52.0,150.0,2.0,64.0
5410,43.0,1.0,60.0,12.0,64.0
5411,62.0,0.0,60.0,12.0,64.0
5412,59.0,0.0,60.0,12.0,64.0
5413,65.0,0.0,60.0,12.0,64.0
5414,31.0,4.0,60.0,11.0,64.0
5415,79.0,52.0,90.0,1.0,64.0
5416,77.0,137.0,90.0,1.0,64.0
5417,76.0,66.0,180.0,1.0,64.0
5418,48.0,43.0,300.0,7.0,64.0
5419,48.0,39.0,270.0,15.0,64.0
5420,36.0,12.0,240.0,11.0,64.0
5421,76.0,58.0,90.0,2.0,64.0
5422,67.0,8.0,240.0,3.0,64.0
5423,60.0,0.0,510.0,12.0,64.0
5424,48.0,63.0,510.0,12.0,64.0
5425,64.0,0.0,510.0,12.0,64.0
5426,55.0,0.0,510.0,12.0,64.0
5427,79.0,13.0,90.0,2.0,64.0
5428,64.0,45.0,120.0,6.0,64.0
5429,84.0,51.0,150.0,1.0,64.0
5430,72.0,3.0,90.0,2.0,64.0
5431,72.0,0.0,90.0,4.0,64.0
5432,67.0,9.0,90.0,5.0,64.0
5433,62.0,0.0,90.0,6.0,64.0
5434,74.0,4.0,90.0,2.0,64.0
5435,65.0,1.0,90.0,5.0,64.0
5436,71.0,68.0,90.0,4.0,64.0
5437,60.0,17.0,150.0,6.0,64.0
5438,76.0,31.0,120.0,2.0,64.0
5439,67.0,4.0,150.0,5.0,64.0
5440,72.0,71.0,150.0,4.0,64.0
5441,77.0,84.0,120.0,2.0,64.0
5442,55.0,3.0,90.0,15.0,64.0
5443,83.0,8.0,90.0,1.0,64.0
5444,55.0,6.0,90.0,7.0,64.0
5445,74.0,19.0,180.0,3.0,64.0
5446,55.0,10.0,60.0,12.0,64.0
5447,62.0,0.0,60.0,12.0,64.0
5448,71.0,0.0,60.0,12.0,64.0
5449,65.0,0.0,60.0,12.0,64.0
5450,79.0,82.0,90.0,2.0,64.0
5451,43.0,11.0,90.0,11.0,64.0
5452,77.0,142.0,90.0,2.0,64.0
5453,60.0,6.0,240.0,15.0,64.0
5454,84.0,29.0,150.0,1.0,64.0
5455,76.0,53.0,180.0,2.0,64.0
5456,60.0,37.0,300.0,7.0,64.0
5457,76.0,30.0,120.0,3.0,64.0
5458,60.0,0.0,450.0,12.0,64.0
5459,64.0,0.0,450.0,12.0,64.0
5460,67.0,1.0,450.0,12.0,64.0
5461,48.0,52.0,240.0,11.0,64.0
5462,72.0,0.0,450.0,12.0,64.0
5463,79.0,21.0,90.0,3.0,64.0
5464,64.0,59.0,120.0,6.0,64.0
5465,79.0,4.0,90.0,1.0,64.0
5466,84.0,37.0,180.0,2.0,64.0
5467,67.0,6.0,90.0,5.0,64.0
5468,72.0,6.0,90.0,3.0,64.0
5469,72.0,0.0,90.0,4.0,64.0
5470,62.0,0.0,120.0,6.0,64.0
5471,74.0,123.0,90.0,3.0,64.0
5472,71.0,1.0,90.0,4.0,64.0
5473,65.0,10.0,90.0,5.0,64.0
5474,60.0,1.0,150.0,6.0,64.0
5475,72.0,12.0,150.0,4.0,64.0
5476,76.0,15.0,90.0,3.0,64.0
5477,67.0,56.0,150.0,5.0,64.0
5478,72.0,26.0,120.0,1.0,64.0
5479,77.0,92.0,90.0,3.0,64.0
5480,55.0,34.0,90.0,7.0,64.0
5481,55.0,3.0,60.0,15.0,64.0
5482,83.0,4.0,120.0,2.0,64.0
5483,43.0,7.0,60.0,11.0,64.0
5484,79.0,0.0,60.0,3.0,64.0
5485,65.0,0.0,60.0,12.0,64.0
5486,62.0,1.0,60.0,12.0,64.0
5487,59.0,0.0,60.0,12.0,64.0
5488,74.0,88.0,120.0,1.0,64.0
5489,55.0,0.0,60.0,12.0,64.0
5490,77.0,127.0,90.0,3.0,64.0
5491,76.0,1.0,150.0,3.0,64.0
5492,84.0,4.0,120.0,2.0,64.0
5493,48.0,1.0,90.0,7.0,64.0
5494,48.0,18.0,90.0,15.0,64.0
5495,36.0,17.0,90.0,11.0,64.0
5496,76.0,21.0,120.0,1.0,64.0
5497,60.0,33.0,150.0,12.0,64.0
5498,48.0,0.0,150.0,12.0,64.0
5499,55.0,0.0,150.0,12.0,64.0
5500,64.0,0.0,150.0,12.0,64.0
5501,38.0,0.0,90.0,11.0,64.0
5502,50.0,40.0,60.0,15.0,64.0
5503,50.0,4.0,60.0,7.0,64.0
5504,50.0,36.0,120.0,12.0,64.0
5505,77.0,32.0,90.0,1.0,64.0
5506,40.0,25.0,60.0,11.0,64.0
5507,52.0,5.0,90.0,7.0,64.0
5508,52.0,2.0,60.0,15.0,64.0
5509,64.0,62.0,120.0,6.0,64.0
5510,84.0,5.0,120.0,3.0,64.0
5511,67.0,0.0,90.0,5.0,64.0
5512,72.0,1.0,90.0,4.0,64.0
5513,79.0,5.0,90.0,2.0,64.0
5514,60.0,4.0,90.0,12.0,64.0
5515,52.0,0.0,90.0,12.0,64.0
5516,67.0,0.0,90.0,12.0,64.0
5517,79.0,8.0,90.0,1.0,64.0
5518,38.0,3.0,60.0,11.0,64.0
5519,50.0,2.0,60.0,7.0,64.0
5520,65.0,59.0,120.0,6.0,64.0
5521,50.0,18.0,60.0,15.0,64.0
5522,69.0,0.0,90.0,5.0,64.0
5523,74.0,34.0,90.0,4.0,64.0
5524,77.0,8.0,90.0,1.0,64.0
5525,50.0,4.0,90.0,12.0,64.0
5526,36.0,13.0,90.0,11.0,64.0
5527,70.0,6.0,150.0,5.0,64.0
5528,76.0,0.0,150.0,4.0,64.0
5529,48.0,15.0,90.0,7.0,64.0
5530,67.0,33.0,150.0,6.0,64.0
5531,48.0,10.0,90.0,15.0,64.0
5532,72.0,8.0,120.0,2.0,64.0
5533,79.0,17.0,120.0,3.0,64.0
5534,76.0,4.0,90.0,1.0,64.0
5535,64.0,7.0,60.0,12.0,64.0
5536,67.0,0.0,60.0,12.0,64.0
5537,70.0,0.0,60.0,12.0,64.0
5538,48.0,0.0,60.0,12.0,64.0
5539,34.0,11.0,90.0,11.0,64.0
5540,46.0,10.0,90.0,7.0,64.0
5541,46.0,0.0,60.0,15.0,64.0
5542,79.0,90.0,90.0,1.0,64.0
5543,46.0,6.0,60.0,12.0,64.0
5544,33.0,4.0,90.0,11.0,64.0
5545,79.0,29.0,120.0,4.0,64.0
5546,45.0,7.0,60.0,7.0,64.0
5547,67.0,11.0,90.0,5.0,64.0
5548,45.0,6.0,60.0,15.0,64.0
5549,60.0,4.0,90.0,6.0,64.0
5550,76.0,0.0,60.0,12.0,64.0
5551,72.0,8.0,60.0,12.0,64.0
5552,45.0,0.0,60.0,12.0,64.0
5553,84.0,20.0,90.0,1.0,64.0
5554,76.0,6.0,60.0,3.0,64.0
5555,76.0,2.0,90.0,2.0,64.0
5556,31.0,32.0,90.0,11.0,64.0
5557,43.0,5.0,60.0,7.0,64.0
5558,43.0,6.0,60.0,15.0,64.0
5559,43.0,13.0,60.0,12.0,64.0
5560,82.0,131.0,90.0,1.0,64.0
5561,29.0,4.0,210.0,11.0,64.0
5562,41.0,64.0,90.0,7.0,64.0
5563,69.0,40.0,240.0,5.0,64.0
5564,65.0,11.0,210.0,6.0,64.0
5565,72.0,6.0,150.0,3.0,64.0
5566,81.0,27.0,180.0,1.0,64.0
5567,41.0,3.0,270.0,15.0,64.0
5568,72.0,73.0,270.0,4.0,64.0
5569,77.0,3.0,480.0,12.0,64.0
5570,41.0,49.0,540.0,12.0,64.0
5571,77.0,2.0,150.0,2.0,64.0
5572,72.0,2.0,450.0,12.0,64.0
5573,69.0,29.0,420.0,12.0,64.0
5574,60.0,11.0,90.0,7.0,64.0
5575,65.0,5.0,360.0,12.0,64.0
5576,53.0,0.0,90.0,7.0,64.0
5577,89.0,1.0,90.0,1.0,64.0
5578,84.0,0.0,90.0,2.0,64.0
5579,81.0,86.0,90.0,3.0,64.0
5580,55.0,26.0,60.0,7.0,64.0
5581,88.0,1.0,90.0,1.0,64.0
5582,79.0,0.0,90.0,3.0,64.0
5583,82.0,42.0,90.0,2.0,64.0
5584,57.0,50.0,120.0,7.0,64.0
5585,84.0,7.0,150.0,2.0,64.0
5586,77.0,0.0,150.0,3.0,64.0
5587,89.0,23.0,150.0,1.0,64.0
5588,58.0,120.0,60.0,7.0,64.0
5589,60.0,5.0,60.0,7.0,64.0
5590,36.0,5.0,60.0,11.0,64.0
5591,65.0,61.0,120.0,6.0,64.0
5592,48.0,1.0,90.0,8.0,64.0
5593,69.0,0.0,90.0,5.0,64.0
5594,48.0,25.0,60.0,12.0,64.0
5595,77.0,9.0,90.0,4.0,64.0
5596,58.0,42.0,60.0,7.0,64.0
5597,67.0,130.0,120.0,6.0,64.0
5598,70.0,1.0,90.0,5.0,64.0
5599,76.0,23.0,90.0,4.0,64.0
5600,57.0,7.0,150.0,7.0,64.0
5601,41.0,3.0,210.0,11.0,64.0
5602,72.0,1.0,150.0,5.0,64.0
5603,77.0,4.0,150.0,4.0,64.0
5604,69.0,51.0,150.0,6.0,64.0
5605,69.0,4.0,390.0,12.0,64.0
5606,72.0,41.0,390.0,12.0,64.0
5607,53.0,91.0,480.0,12.0,64.0
5608,53.0,16.0,120.0,8.0,64.0
5609,60.0,114.0,90.0,8.0,64.0
5610,65.0,2.0,150.0,7.0,64.0
5611,53.0,18.0,90.0,8.0,64.0
5612,89.0,1.0,90.0,1.0,64.0
5613,84.0,49.0,90.0,2.0,64.0
5614,81.0,0.0,90.0,3.0,64.0
5615,55.0,16.0,90.0,8.0,64.0
5616,79.0,0.0,90.0,3.0,64.0
5617,88.0,1.0,90.0,1.0,64.0
5618,82.0,51.0,90.0,2.0,64.0
5619,89.0,5.0,150.0,1.0,64.0
5620,57.0,27.0,120.0,8.0,64.0
5621,77.0,6.0,150.0,3.0,64.0
5622,84.0,48.0,150.0,2.0,64.0
5623,58.0,103.0,90.0,8.0,64.0
5624,60.0,78.0,120.0,7.0,64.0
5625,60.0,10.0,60.0,8.0,64.0
5626,60.0,22.0,60.0,12.0,64.0
5627,65.0,6.0,90.0,6.0,64.0
5628,48.0,2.0,90.0,11.0,64.0
5629,60.0,1.0,90.0,10.0,64.0
5630,77.0,0.0,90.0,4.0,64.0
5631,69.0,4.0,90.0,5.0,64.0
5632,58.0,25.0,90.0,8.0,64.0
5633,67.0,121.0,120.0,6.0,64.0
5634,76.0,22.0,90.0,4.0,64.0
5635,70.0,0.0,90.0,5.0,64.0
5636,57.0,60.0,180.0,8.0,64.0
5637,69.0,4.0,150.0,6.0,64.0
5638,53.0,2.0,210.0,11.0,64.0
5639,65.0,2.0,150.0,7.0,64.0
5640,77.0,2.0,150.0,4.0,64.0
5641,72.0,4.0,150.0,5.0,64.0
5642,65.0,78.0,510.0,12.0,64.0
5643,72.0,6.0,390.0,12.0,64.0
5644,69.0,41.0,390.0,12.0,64.0
5645,53.0,29.0,90.0,10.0,64.0
5646,60.0,107.0,90.0,10.0,64.0
5647,60.0,14.0,90.0,7.0,64.0
5648,65.0,36.0,120.0,8.0,64.0
5649,89.0,1.0,90.0,1.0,64.0
5650,84.0,0.0,90.0,2.0,64.0
5651,81.0,11.0,90.0,3.0,64.0
5652,53.0,18.0,90.0,10.0,64.0
5653,88.0,1.0,90.0,1.0,64.0
5654,82.0,7.0,90.0,2.0,64.0
5655,79.0,0.0,90.0,3.0,64.0
5656,55.0,43.0,90.0,10.0,64.0
5657,53.0,44.0,120.0,7.0,64.0
5658,77.0,2.0,150.0,3.0,64.0
5659,84.0,3.0,150.0,2.0,64.0
5660,89.0,57.0,150.0,1.0,64.0
5661,57.0,7.0,90.0,10.0,64.0
5662,58.0,109.0,90.0,10.0,64.0
5663,60.0,12.0,90.0,8.0,64.0
5664,60.0,3.0,90.0,10.0,64.0
5665,60.0,3.0,90.0,12.0,64.0
5666,48.0,5.0,90.0,7.0,64.0
5667,77.0,1.0,90.0,4.0,64.0
5668,65.0,99.0,90.0,6.0,64.0
5669,69.0,1.0,90.0,5.0,64.0
5670,48.0,4.0,60.0,11.0,64.0
5671,58.0,27.0,90.0,10.0,64.0
5672,67.0,100.0,120.0,6.0,64.0
5673,70.0,0.0,90.0,5.0,64.0
5674,76.0,2.0,90.0,4.0,64.0
5675,57.0,5.0,150.0,10.0,64.0
5676,41.0,29.0,90.0,7.0,64.0
5677,77.0,9.0,150.0,4.0,64.0
5678,53.0,3.0,480.0,12.0,64.0
5679,72.0,6.0,150.0,5.0,64.0
5680,69.0,2.0,510.0,12.0,64.0
5681,60.0,55.0,510.0,12.0,64.0
5682,65.0,13.0,120.0,8.0,64.0
5683,69.0,49.0,150.0,6.0,64.0
5684,41.0,46.0,240.0,11.0,64.0
5685,67.0,7.0,120.0,8.0,64.0
5686,58.0,17.0,120.0,10.0,64.0
5687,62.0,30.0,90.0,7.0,64.0
5688,57.0,86.0,90.0,10.0,64.0
5689,65.0,18.0,90.0,8.0,64.0
5690,60.0,15.0,60.0,7.0,64.0
5691,58.0,54.0,90.0,7.0,64.0
5692,55.0,14.0,60.0,10.0,64.0
5693,63.0,2.0,60.0,8.0,64.0
5694,53.0,4.0,90.0,10.0,64.0
5695,57.0,65.0,120.0,7.0,64.0
5696,62.0,43.0,90.0,8.0,64.0
5697,55.0,105.0,90.0,7.0,64.0
5698,51.0,5.0,90.0,10.0,64.0
5699,60.0,8.0,60.0,8.0,64.0
5700,53.0,6.0,90.0,7.0,64.0
5701,58.0,8.0,60.0,8.0,64.0
5702,77.0,31.0,120.0,13.0,64.0
5703,77.0,5.0,90.0,1.0,64.0
5704,50.0,4.0,90.0,10.0,64.0
5705,41.0,2.0,60.0,12.0,64.0
5706,65.0,1.0,60.0,12.0,64.0
5707,72.0,5.0,60.0,12.0,64.0
5708,69.0,0.0,60.0,12.0,64.0
5709,29.0,36.0,90.0,11.0,64.0
5710,51.0,34.0,60.0,7.0,64.0
5711,57.0,8.0,60.0,8.0,64.0
5712,48.0,136.0,90.0,10.0,64.0
5713,53.0,10.0,150.0,7.0,64.0
5714,46.0,4.0,120.0,10.0,64.0
5715,74.0,4.0,90.0,1.0,64.0
5716,58.0,37.0,150.0,8.0,64.0
5717,34.0,90.0,240.0,11.0,64.0
5718,46.0,17.0,480.0,12.0,64.0
5719,74.0,40.0,90.0,13.0,64.0
5720,65.0,43.0,510.0,12.0,64.0
5721,70.0,0.0,480.0,12.0,64.0
5722,74.0,5.0,480.0,12.0,64.0
5723,77.0,23.0,60.0,13.0,64.0
5724,77.0,24.0,90.0,1.0,64.0
5725,70.0,0.0,90.0,13.0,64.0
5726,50.0,0.0,90.0,10.0,64.0
5727,53.0,2.0,90.0,8.0,64.0
5728,58.0,0.0,90.0,7.0,64.0
5729,70.0,105.0,90.0,1.0,64.0
5730,72.0,39.0,90.0,13.0,64.0
5731,48.0,1.0,90.0,10.0,64.0
5732,72.0,5.0,90.0,1.0,64.0
5733,57.0,0.0,90.0,7.0,64.0
5734,51.0,4.0,90.0,8.0,64.0
5735,58.0,4.0,90.0,7.0,64.0
5736,74.0,17.0,120.0,1.0,64.0
5737,46.0,80.0,120.0,10.0,64.0
5738,53.0,12.0,90.0,8.0,64.0
5739,74.0,19.0,90.0,13.0,64.0
5740,75.0,8.0,90.0,13.0,64.0
5741,75.0,78.0,90.0,1.0,64.0
5742,29.0,8.0,90.0,11.0,64.0
5743,53.0,7.0,60.0,7.0,64.0
5744,77.0,1.0,90.0,1.0,64.0
5745,77.0,4.0,90.0,13.0,64.0
5746,41.0,7.0,60.0,12.0,64.0
5747,41.0,7.0,90.0,15.0,64.0
5748,60.0,70.0,120.0,4.0,64.0
5749,69.0,1.0,60.0,12.0,64.0
5750,65.0,4.0,60.0,12.0,64.0
5751,72.0,2.0,60.0,12.0,64.0
5752,53.0,1.0,60.0,6.0,64.0
5753,57.0,29.0,90.0,5.0,64.0
5754,75.0,147.0,90.0,1.0,64.0
5755,75.0,4.0,90.0,13.0,64.0
5756,46.0,24.0,300.0,7.0,64.0
5757,74.0,15.0,150.0,1.0,64.0
5758,62.0,11.0,120.0,4.0,64.0
5759,46.0,33.0,270.0,15.0,64.0
5760,74.0,2.0,150.0,13.0,64.0
5761,53.0,27.0,120.0,6.0,64.0
5762,58.0,44.0,150.0,5.0,64.0
5763,34.0,2.0,270.0,11.0,64.0
5764,65.0,47.0,510.0,12.0,64.0
5765,46.0,24.0,480.0,12.0,64.0
5766,62.0,3.0,510.0,12.0,64.0
5767,70.0,0.0,510.0,12.0,64.0
5768,65.0,2.0,90.0,4.0,64.0
5769,65.0,64.0,90.0,14.0,64.0
5770,58.0,6.0,60.0,4.0,64.0
5771,58.0,59.0,120.0,14.0,64.0
5772,82.0,1.0,90.0,1.0,64.0
5773,77.0,19.0,90.0,2.0,64.0
5774,74.0,0.0,90.0,3.0,64.0
5775,60.0,32.0,60.0,4.0,64.0
5776,60.0,2.0,90.0,14.0,64.0
5777,81.0,1.0,90.0,1.0,64.0
5778,75.0,0.0,90.0,2.0,64.0
5779,72.0,40.0,90.0,3.0,64.0
5780,62.0,33.0,90.0,4.0,64.0
5781,62.0,31.0,120.0,14.0,64.0
5782,77.0,2.0,150.0,2.0,64.0
5783,70.0,2.0,150.0,3.0,64.0
5784,82.0,31.0,150.0,1.0,64.0
5785,63.0,20.0,90.0,4.0,64.0
5786,63.0,87.0,90.0,14.0,64.0
5787,65.0,14.0,90.0,4.0,64.0
5788,65.0,12.0,90.0,14.0,64.0
5789,45.0,82.0,90.0,11.0,64.0
5790,57.0,2.0,60.0,7.0,64.0
5791,57.0,4.0,60.0,15.0,64.0
5792,63.0,4.0,60.0,12.0,64.0
5793,57.0,1.0,60.0,12.0,64.0
5794,65.0,0.0,60.0,12.0,64.0
5795,63.0,20.0,90.0,4.0,64.0
5796,63.0,129.0,90.0,14.0,64.0
5797,62.0,32.0,180.0,4.0,64.0
5798,62.0,0.0,150.0,14.0,64.0
5799,46.0,19.0,120.0,11.0,64.0
5800,62.0,8.0,450.0,12.0,64.0
5801,65.0,5.0,450.0,12.0,64.0
5802,58.0,22.0,120.0,12.0,64.0
5803,58.0,2.0,120.0,7.0,64.0
5804,58.0,25.0,60.0,15.0,64.0
5805,41.0,11.0,60.0,11.0,64.0
5806,53.0,106.0,90.0,12.0,64.0
5807,53.0,12.0,60.0,15.0,64.0
5808,53.0,5.0,60.0,7.0,64.0
5809,34.0,1.0,90.0,11.0,64.0
5810,46.0,1.0,60.0,12.0,64.0
5811,46.0,21.0,60.0,15.0,64.0
5812,62.0,2.0,90.0,6.0,64.0
5813,46.0,76.0,90.0,7.0,64.0
5814,70.0,1.0,90.0,4.0,64.0
5815,65.0,2.0,90.0,5.0,64.0
5816,36.0,6.0,90.0,11.0,64.0
5817,48.0,14.0,60.0,12.0,64.0
5818,69.0,1.0,90.0,4.0,64.0
5819,48.0,8.0,90.0,7.0,64.0
5820,60.0,98.0,120.0,6.0,64.0
5821,48.0,4.0,60.0,15.0,64.0
5822,63.0,9.0,90.0,5.0,64.0
5823,70.0,12.0,150.0,4.0,64.0
5824,38.0,15.0,90.0,11.0,64.0
5825,58.0,6.0,150.0,6.0,64.0
5826,50.0,7.0,120.0,12.0,64.0
5827,65.0,15.0,150.0,5.0,64.0
5828,50.0,4.0,90.0,15.0,64.0
5829,50.0,17.0,120.0,7.0,64.0
5830,39.0,31.0,60.0,11.0,64.0
5831,51.0,69.0,90.0,12.0,64.0
5832,51.0,8.0,90.0,15.0,64.0
5833,51.0,8.0,90.0,7.0,64.0
5834,41.0,10.0,60.0,11.0,64.0
5835,53.0,23.0,90.0,12.0,64.0
5836,53.0,21.0,60.0,15.0,64.0
5837,53.0,1.0,60.0,7.0,64.0
5838,82.0,1.0,90.0,1.0,64.0
5839,74.0,0.0,90.0,3.0,64.0
5840,74.0,57.0,90.0,2.0,64.0
5841,39.0,25.0,60.0,11.0,64.0
5842,51.0,2.0,90.0,7.0,64.0
5843,51.0,14.0,60.0,15.0,64.0
5844,51.0,14.0,90.0,12.0,64.0
5845,72.0,0.0,90.0,3.0,64.0
5846,81.0,1.0,90.0,1.0,64.0
5847,75.0,93.0,90.0,2.0,64.0
5848,38.0,20.0,90.0,11.0,64.0
5849,70.0,14.0,150.0,3.0,64.0
5850,62.0,38.0,510.0,12.0,64.0
5851,82.0,10.0,150.0,1.0,64.0
5852,50.0,5.0,90.0,7.0,64.0
5853,50.0,13.0,90.0,12.0,64.0
5854,50.0,32.0,90.0,15.0,64.0
5855,77.0,11.0,150.0,2.0,64.0
5856,65.0,4.0,450.0,12.0,64.0
5857,70.0,7.0,450.0,12.0,64.0
5858,41.0,13.0,60.0,11.0,64.0
5859,53.0,13.0,90.0,7.0,64.0
5860,53.0,70.0,90.0,12.0,64.0
5861,53.0,17.0,60.0,15.0,64.0
5862,34.0,20.0,60.0,11.0,64.0
5863,46.0,19.0,60.0,15.0,64.0
5864,46.0,50.0,120.0,7.0,64.0
5865,46.0,16.0,90.0,12.0,64.0
5866,77.0,1.0,90.0,1.0,64.0
5867,74.0,0.0,90.0,3.0,64.0
5868,74.0,13.0,90.0,2.0,64.0
5869,36.0,11.0,60.0,11.0,64.0
5870,48.0,42.0,90.0,7.0,64.0
5871,72.0,0.0,90.0,3.0,64.0
5872,75.0,1.0,90.0,1.0,64.0
5873,75.0,0.0,90.0,2.0,64.0
5874,48.0,23.0,60.0,15.0,64.0
5875,48.0,15.0,60.0,12.0,64.0
5876,38.0,36.0,90.0,11.0,64.0
5877,70.0,7.0,150.0,3.0,64.0
5878,74.0,3.0,150.0,2.0,64.0
5879,50.0,1.0,90.0,7.0,64.0
5880,77.0,24.0,150.0,1.0,64.0
5881,50.0,8.0,90.0,15.0,64.0
5882,50.0,34.0,90.0,12.0,64.0
5883,39.0,16.0,60.0,11.0,64.0
5884,51.0,7.0,90.0,7.0,64.0
5885,51.0,15.0,60.0,15.0,64.0
5886,51.0,77.0,90.0,12.0,64.0
5887,41.0,5.0,90.0,11.0,64.0
5888,53.0,15.0,60.0,7.0,64.0
5889,62.0,55.0,120.0,6.0,64.0
5890,53.0,9.0,60.0,15.0,64.0
5891,53.0,18.0,60.0,12.0,64.0
5892,70.0,0.0,90.0,5.0,64.0
5893,74.0,21.0,90.0,4.0,64.0
5894,39.0,3.0,60.0,11.0,64.0
5895,51.0,12.0,90.0,7.0,64.0
5896,63.0,79.0,120.0,6.0,64.0
5897,51.0,15.0,60.0,15.0,64.0
5898,69.0,1.0,90.0,5.0,64.0
5899,72.0,22.0,90.0,4.0,64.0
5900,51.0,6.0,90.0,12.0,64.0
5901,38.0,24.0,90.0,11.0,64.0
5902,65.0,2.0,150.0,6.0,64.0
5903,50.0,43.0,120.0,7.0,64.0
5904,74.0,1.0,150.0,4.0,64.0
5905,70.0,23.0,150.0,5.0,64.0
5906,50.0,3.0,90.0,15.0,64.0
5907,50.0,4.0,90.0,12.0,64.0
5908,39.0,15.0,60.0,11.0,64.0
5909,51.0,8.0,90.0,7.0,64.0
5910,51.0,81.0,90.0,12.0,64.0
5911,51.0,14.0,60.0,15.0,64.0
5912,41.0,4.0,60.0,11.0,64.0
5913,53.0,9.0,60.0,7.0,64.0
5914,53.0,29.0,60.0,12.0,64.0
5915,53.0,6.0,60.0,15.0,64.0
5916,74.0,0.0,180.0,12.0,64.0
5917,70.0,1.0,180.0,12.0,64.0
5918,58.0,54.0,120.0,6.0,64.0
5919,70.0,22.0,90.0,4.0,64.0
5920,62.0,0.0,90.0,5.0,64.0
5921,39.0,6.0,90.0,11.0,64.0
5922,51.0,2.0,60.0,12.0,64.0
5923,51.0,17.0,90.0,7.0,64.0
5924,51.0,11.0,60.0,15.0,64.0
5925,69.0,26.0,90.0,4.0,64.0
5926,63.0,0.0,90.0,5.0,64.0
5927,60.0,64.0,120.0,6.0,64.0
5928,38.0,2.0,60.0,11.0,64.0
5929,65.0,3.0,60.0,12.0,64.0
5930,70.0,2.0,60.0,12.0,64.0
5931,50.0,4.0,60.0,12.0,64.0
5932,62.0,3.0,150.0,6.0,64.0
5933,70.0,45.0,120.0,4.0,64.0
5934,50.0,5.0,90.0,7.0,64.0
5935,50.0,29.0,60.0,15.0,64.0
5936,65.0,22.0,150.0,5.0,64.0
5937,36.0,6.0,60.0,11.0,64.0
5938,48.0,7.0,60.0,12.0,64.0
5939,48.0,9.0,60.0,7.0,64.0
5940,48.0,5.0,60.0,15.0,64.0
5941,72.0,30.0,90.0,4.0,64.0
5942,72.0,1.0,90.0,14.0,64.0
5943,65.0,53.0,120.0,3.0,64.0
5944,34.0,14.0,90.0,11.0,64.0
5945,46.0,2.0,60.0,12.0,64.0
5946,46.0,0.0,60.0,15.0,64.0
5947,62.0,5.0,60.0,12.0,64.0
5948,70.0,13.0,90.0,4.0,64.0
5949,46.0,12.0,60.0,7.0,64.0
5950,70.0,2.0,60.0,14.0,64.0
5951,65.0,4.0,60.0,12.0,64.0
5952,67.0,42.0,90.0,3.0,64.0
5953,33.0,34.0,60.0,11.0,64.0
5954,45.0,9.0,60.0,12.0,64.0
5955,69.0,20.0,60.0,4.0,64.0
5956,69.0,144.0,90.0,3.0,64.0
5957,69.0,2.0,60.0,14.0,64.0
5958,45.0,4.0,60.0,15.0,64.0
5959,45.0,1.0,60.0,7.0,64.0
5960,31.0,6.0,270.0,11.0,64.0
5961,70.0,13.0,150.0,3.0,64.0
5962,64.0,10.0,750.0,12.0,64.0
5963,67.0,65.0,150.0,4.0,64.0
5964,43.0,23.0,210.0,15.0,64.0
5965,79.0,3.0,120.0,2.0,64.0
5966,88.0,12.0,120.0,1.0,64.0
5967,43.0,1.0,210.0,7.0,64.0
5968,43.0,55.0,390.0,12.0,64.0
5969,67.0,2.0,120.0,14.0,64.0
5970,61.0,3.0,660.0,12.0,64.0
5971,69.0,75.0,150.0,3.0,64.0
5972,77.0,10.0,120.0,2.0,64.0
5973,86.0,2.0,120.0,1.0,64.0
5974,58.0,57.0,600.0,12.0,64.0
5975,70.0,29.0,90.0,3.0,64.0
5976,67.0,2.0,120.0,4.0,64.0
5977,88.0,35.0,120.0,1.0,64.0
5978,67.0,6.0,120.0,14.0,64.0
5979,79.0,3.0,120.0,2.0,64.0
5980,79.0,117.0,90.0,3.0,64.0
5981,67.0,75.0,120.0,4.0,64.0
5982,67.0,6.0,120.0,14.0,64.0
5983,76.0,19.0,90.0,3.0,64.0
5984,73.0,59.0,60.0,3.0,64.0
5985,67.0,68.0,150.0,4.0,64.0
5986,70.0,40.0,90.0,3.0,64.0
5987,67.0,11.0,120.0,14.0,64.0
5988,67.0,145.0,90.0,3.0,64.0
5989,31.0,5.0,270.0,11.0,64.0
5990,43.0,7.0,240.0,7.0,64.0
5991,67.0,9.0,120.0,4.0,64.0
5992,88.0,4.0,120.0,1.0,64.0
5993,43.0,3.0,450.0,12.0,64.0
5994,43.0,42.0,210.0,15.0,64.0
5995,70.0,1.0,120.0,3.0,64.0
5996,79.0,15.0,90.0,2.0,64.0
5997,67.0,60.0,120.0,14.0,64.0
5998,77.0,1.0,120.0,2.0,64.0
5999,69.0,81.0,120.0,3.0,64.0
6000,86.0,1.0,120.0,1.0,64.0
6001,88.0,46.0,150.0,1.0,64.0
6002,67.0,12.0,120.0,4.0,64.0
6003,70.0,20.0,90.0,3.0,64.0
6004,67.0,5.0,120.0,14.0,64.0
6005,79.0,21.0,120.0,2.0,64.0
6006,79.0,124.0,90.0,3.0,64.0
6007,67.0,9.0,120.0,4.0,64.0
6008,76.0,19.0,90.0,3.0,64.0
6009,67.0,65.0,120.0,14.0,64.0
6010,73.0,138.0,60.0,3.0,64.0
6011,70.0,26.0,90.0,3.0,64.0
6012,67.0,102.0,120.0,4.0,64.0
6013,67.0,2.0,90.0,14.0,64.0
6014,67.0,152.0,90.0,3.0,64.0
6015,61.0,0.0,720.0,12.0,64.0
6016,55.0,39.0,450.0,12.0,64.0
6017,64.0,20.0,690.0,12.0,64.0
6018,43.0,56.0,270.0,11.0,64.0
6019,55.0,72.0,180.0,15.0,64.0
6020,67.0,5.0,120.0,4.0,64.0
6021,85.0,3.0,120.0,1.0,64.0
6022,55.0,1.0,240.0,7.0,64.0
6023,67.0,0.0,120.0,14.0,64.0
6024,64.0,5.0,120.0,2.0,64.0
6025,69.0,34.0,120.0,3.0,64.0
6026,67.0,10.0,600.0,12.0,64.0
6027,69.0,7.0,570.0,12.0,64.0
6028,83.0,2.0,120.0,1.0,64.0
6029,62.0,7.0,120.0,2.0,64.0
6030,67.0,23.0,120.0,3.0,64.0
6031,67.0,9.0,120.0,4.0,64.0
6032,64.0,8.0,90.0,2.0,64.0
6033,85.0,40.0,150.0,1.0,64.0
6034,67.0,26.0,120.0,14.0,64.0
6035,69.0,11.0,90.0,3.0,64.0
6036,79.0,111.0,90.0,3.0,64.0
6037,67.0,2.0,120.0,14.0,64.0
6038,67.0,50.0,120.0,4.0,64.0
6039,76.0,20.0,90.0,3.0,64.0
6040,73.0,139.0,90.0,3.0,64.0
6041,67.0,16.0,120.0,14.0,64.0
6042,67.0,78.0,120.0,4.0,64.0
6043,69.0,13.0,90.0,3.0,64.0
6044,64.0,143.0,90.0,3.0,64.0
6045,43.0,86.0,270.0,11.0,64.0
6046,67.0,9.0,120.0,14.0,64.0
6047,64.0,9.0,120.0,2.0,64.0
6048,85.0,4.0,120.0,1.0,64.0
6049,55.0,3.0,270.0,7.0,64.0
6050,67.0,31.0,120.0,4.0,64.0
6051,55.0,19.0,420.0,12.0,64.0
6052,55.0,83.0,150.0,15.0,64.0
6053,69.0,3.0,120.0,3.0,64.0
6054,62.0,7.0,150.0,2.0,64.0
6055,83.0,1.0,120.0,1.0,64.0
6056,67.0,0.0,150.0,3.0,64.0
6057,64.0,3.0,120.0,2.0,64.0
6058,67.0,0.0,120.0,14.0,64.0
6059,69.0,11.0,120.0,3.0,64.0
6060,85.0,57.0,120.0,1.0,64.0
6061,67.0,14.0,120.0,4.0,64.0
6062,79.0,117.0,90.0,3.0,64.0
6063,67.0,22.0,90.0,14.0,64.0
6064,76.0,3.0,90.0,3.0,64.0
6065,67.0,75.0,120.0,4.0,64.0
6066,73.0,128.0,60.0,3.0,64.0
6067,67.0,9.0,90.0,14.0,64.0
6068,69.0,17.0,90.0,3.0,64.0
6069,67.0,104.0,90.0,4.0,64.0
6070,64.0,131.0,90.0,3.0,64.0
6071,57.0,2.0,660.0,12.0,64.0
6072,37.0,61.0,300.0,11.0,64.0
6073,61.0,9.0,120.0,4.0,64.0
6074,61.0,16.0,90.0,14.0,64.0
6075,49.0,4.0,240.0,15.0,64.0
6076,49.0,75.0,480.0,12.0,64.0
6077,49.0,20.0,240.0,7.0,64.0
6078,67.0,114.0,120.0,3.0,64.0
6079,88.0,2.0,120.0,1.0,64.0
6080,82.0,0.0,120.0,2.0,64.0
6081,61.0,7.0,570.0,12.0,64.0
6082,64.0,85.0,510.0,12.0,64.0
6083,65.0,9.0,120.0,3.0,64.0
6084,86.0,3.0,120.0,1.0,64.0
6085,81.0,0.0,120.0,2.0,64.0
6086,67.0,8.0,420.0,12.0,64.0
6087,61.0,7.0,120.0,4.0,64.0
6088,82.0,10.0,150.0,2.0,64.0
6089,88.0,67.0,150.0,1.0,64.0
6090,67.0,4.0,90.0,3.0,64.0
6091,61.0,27.0,90.0,14.0,64.0
6092,76.0,40.0,90.0,3.0,64.0
6093,61.0,8.0,120.0,4.0,64.0
6094,61.0,8.0,90.0,14.0,64.0
6095,73.0,1.0,90.0,3.0,64.0
6096,69.0,114.0,90.0,3.0,64.0
6097,61.0,93.0,90.0,4.0,64.0
6098,67.0,16.0,90.0,3.0,64.0
6099,61.0,2.0,90.0,14.0,64.0
6100,64.0,155.0,90.0,3.0,64.0
6101,33.0,37.0,300.0,11.0,64.0
6102,45.0,17.0,240.0,15.0,64.0
6103,45.0,13.0,270.0,7.0,64.0
6104,57.0,4.0,120.0,4.0,64.0
6105,85.0,8.0,120.0,1.0,64.0
6106,76.0,3.0,120.0,2.0,64.0
6107,57.0,8.0,90.0,14.0,64.0
6108,45.0,74.0,510.0,12.0,64.0
6109,67.0,99.0,120.0,3.0,64.0
6110,83.0,2.0,120.0,1.0,64.0
6111,74.0,2.0,120.0,2.0,64.0
6112,65.0,30.0,120.0,3.0,64.0
6113,76.0,71.0,150.0,2.0,64.0
6114,57.0,5.0,120.0,4.0,64.0
6115,85.0,18.0,120.0,1.0,64.0
6116,67.0,18.0,90.0,3.0,64.0
6117,57.0,9.0,120.0,14.0,64.0
6118,76.0,55.0,90.0,3.0,64.0
6119,57.0,1.0,90.0,4.0,64.0
6120,57.0,93.0,120.0,14.0,64.0
6121,73.0,9.0,90.0,3.0,64.0
6122,69.0,128.0,90.0,3.0,64.0
6123,57.0,1.0,120.0,4.0,64.0
6124,57.0,9.0,90.0,14.0,64.0
6125,67.0,5.0,90.0,3.0,64.0
6126,86.0,0.0,90.0,1.0,64.0
6127,81.0,112.0,90.0,2.0,64.0
6128,64.0,165.0,90.0,3.0,64.0
6129,85.0,1.0,90.0,1.0,64.0
6130,79.0,1.0,90.0,2.0,64.0
6131,38.0,14.0,180.0,11.0,64.0
6132,81.0,6.0,150.0,2.0,64.0
6133,65.0,46.0,180.0,3.0,64.0
6134,62.0,1.0,180.0,4.0,64.0
6135,50.0,7.0,150.0,15.0,64.0
6136,86.0,2.0,150.0,1.0,64.0
6137,62.0,2.0,150.0,14.0,64.0
6138,50.0,78.0,210.0,12.0,64.0
6139,74.0,3.0,510.0,12.0,64.0
6140,69.0,4.0,480.0,12.0,64.0
6141,50.0,4.0,150.0,7.0,64.0
6142,65.0,37.0,510.0,12.0,64.0
6143,62.0,25.0,60.0,15.0,64.0
6144,77.0,8.0,120.0,4.0,64.0
6145,69.0,83.0,120.0,6.0,64.0
6146,62.0,11.0,90.0,7.0,64.0
6147,74.0,0.0,90.0,5.0,64.0
6148,81.0,0.0,90.0,1.0,64.0
6149,77.0,21.0,90.0,2.0,64.0
6150,74.0,0.0,90.0,3.0,64.0
6151,50.0,4.0,60.0,11.0,64.0
6152,62.0,1.0,60.0,12.0,64.0
6153,79.0,1.0,90.0,1.0,64.0
6154,73.0,0.0,90.0,3.0,64.0
6155,76.0,46.0,90.0,2.0,64.0
6156,74.0,3.0,150.0,3.0,64.0
6157,62.0,23.0,60.0,15.0,64.0
6158,77.0,4.0,150.0,2.0,64.0
6159,74.0,9.0,90.0,4.0,64.0
6160,50.0,27.0,120.0,11.0,64.0
6161,62.0,18.0,90.0,7.0,64.0
6162,69.0,2.0,90.0,5.0,64.0
6163,65.0,0.0,90.0,6.0,64.0
6164,81.0,139.0,150.0,1.0,64.0
6165,62.0,2.0,60.0,12.0,64.0
6166,69.0,0.0,90.0,4.0,64.0
6167,62.0,1.0,90.0,6.0,64.0
6168,65.0,110.0,90.0,5.0,64.0
6169,50.0,3.0,90.0,15.0,64.0
6170,50.0,5.0,90.0,7.0,64.0
6171,86.0,1.0,90.0,1.0,64.0
6172,81.0,0.0,90.0,2.0,64.0
6173,77.0,1.0,90.0,3.0,64.0
6174,38.0,4.0,90.0,11.0,64.0
6175,50.0,10.0,60.0,12.0,64.0
6176,65.0,1.0,30.0,12.0,64.0
6177,69.0,1.0,30.0,12.0,64.0
6178,74.0,25.0,30.0,12.0,64.0
6179,76.0,0.0,90.0,3.0,64.0
6180,85.0,1.0,90.0,1.0,64.0
6181,79.0,164.0,90.0,2.0,64.0
6182,77.0,2.0,150.0,3.0,64.0
6183,69.0,1.0,180.0,5.0,64.0
6184,74.0,0.0,150.0,4.0,64.0
6185,86.0,0.0,150.0,1.0,64.0
6186,81.0,2.0,150.0,2.0,64.0
6187,50.0,5.0,150.0,7.0,64.0
6188,65.0,29.0,150.0,6.0,64.0
6189,50.0,6.0,120.0,15.0,64.0
6190,74.0,3.0,510.0,12.0,64.0
6191,69.0,4.0,510.0,12.0,64.0
6192,65.0,38.0,510.0,12.0,64.0
6193,50.0,89.0,210.0,12.0,64.0
6194,38.0,44.0,180.0,11.0,64.0
6195,74.0,0.0,120.0,5.0,64.0
6196,69.0,9.0,90.0,6.0,64.0
6197,77.0,107.0,120.0,4.0,64.0
6198,62.0,8.0,90.0,15.0,64.0
6199,62.0,1.0,90.0,7.0,64.0
6200,77.0,1.0,90.0,1.0,64.0
6201,74.0,0.0,90.0,2.0,64.0
6202,69.0,5.0,90.0,3.0,64.0
6203,62.0,2.0,60.0,12.0,64.0
6204,50.0,4.0,60.0,11.0,64.0
6205,67.0,1.0,90.0,3.0,64.0
6206,76.0,0.0,90.0,1.0,64.0
6207,73.0,53.0,90.0,2.0,64.0
6208,77.0,3.0,150.0,1.0,64.0
6209,74.0,2.0,150.0,2.0,64.0
6210,62.0,7.0,90.0,7.0,64.0
6211,69.0,132.0,150.0,3.0,64.0
6212,74.0,8.0,90.0,4.0,64.0
6213,69.0,1.0,90.0,5.0,64.0
6214,65.0,10.0,90.0,6.0,64.0
6215,62.0,20.0,120.0,15.0,64.0
6216,50.0,16.0,120.0,11.0,64.0
6217,62.0,11.0,60.0,12.0,64.0
6218,69.0,2.0,90.0,4.0,64.0
6219,65.0,110.0,90.0,5.0,64.0
6220,62.0,2.0,90.0,6.0,64.0
6221,50.0,11.0,90.0,7.0,64.0
6222,50.0,5.0,90.0,15.0,64.0
6223,69.0,0.0,30.0,12.0,64.0
6224,65.0,2.0,30.0,12.0,64.0
6225,50.0,13.0,60.0,12.0,64.0
6226,74.0,23.0,30.0,12.0,64.0
6227,38.0,0.0,90.0,11.0,64.0
6228,86.0,1.0,90.0,1.0,64.0
6229,77.0,0.0,90.0,3.0,64.0
6230,81.0,2.0,90.0,2.0,64.0
6231,85.0,1.0,90.0,1.0,64.0
6232,79.0,0.0,90.0,2.0,64.0
6233,76.0,151.0,90.0,3.0,64.0
6234,77.0,1.0,150.0,3.0,64.0
6235,50.0,2.0,150.0,7.0,64.0
6236,81.0,1.0,150.0,2.0,64.0
6237,86.0,4.0,150.0,1.0,64.0
6238,65.0,9.0,150.0,6.0,64.0
6239,74.0,21.0,180.0,4.0,64.0
6240,38.0,4.0,120.0,11.0,64.0
6241,69.0,8.0,120.0,5.0,64.0
6242,50.0,16.0,150.0,15.0,64.0
6243,50.0,114.0,210.0,12.0,64.0
6244,69.0,9.0,180.0,12.0,64.0
6245,65.0,1.0,180.0,12.0,64.0
6246,74.0,22.0,180.0,12.0,64.0
6247,62.0,8.0,90.0,15.0,64.0
6248,74.0,1.0,90.0,13.0,64.0
6249,62.0,1.0,90.0,7.0,64.0
6250,74.0,0.0,90.0,1.0,64.0
6251,77.0,2.0,90.0,4.0,64.0
6252,77.0,25.0,90.0,14.0,64.0
6253,50.0,69.0,120.0,11.0,64.0
6254,65.0,0.0,300.0,12.0,64.0
6255,62.0,2.0,90.0,12.0,64.0
6256,69.0,14.0,300.0,12.0,64.0
6257,76.0,2.0,90.0,13.0,64.0
6258,48.0,2.0,90.0,11.0,64.0
6259,76.0,2.0,90.0,14.0,64.0
6260,60.0,14.0,90.0,15.0,64.0
6261,60.0,1.0,90.0,7.0,64.0
6262,76.0,1.0,90.0,4.0,64.0
6263,76.0,2.0,90.0,1.0,64.0
6264,60.0,97.0,90.0,12.0,64.0
6265,77.0,54.0,120.0,1.0,64.0
6266,74.0,12.0,210.0,4.0,64.0
6267,77.0,23.0,120.0,13.0,64.0
6268,46.0,7.0,210.0,11.0,64.0
6269,74.0,2.0,210.0,14.0,64.0
6270,58.0,1.0,210.0,15.0,64.0
6271,58.0,98.0,210.0,7.0,64.0
6272,58.0,22.0,180.0,12.0,64.0
6273,72.0,7.0,120.0,14.0,64.0
6274,57.0,14.0,90.0,12.0,64.0
6275,67.0,0.0,60.0,12.0,64.0
6276,64.0,4.0,60.0,12.0,64.0
6277,57.0,2.0,90.0,15.0,64.0
6278,79.0,23.0,120.0,13.0,64.0
6279,57.0,1.0,90.0,7.0,64.0
6280,72.0,6.0,90.0,4.0,64.0
6281,79.0,61.0,120.0,1.0,64.0
6282,45.0,2.0,90.0,11.0,64.0
6283,70.0,1.0,90.0,14.0,64.0
6284,43.0,6.0,90.0,11.0,64.0
6285,55.0,134.0,120.0,12.0,64.0
6286,55.0,5.0,90.0,15.0,64.0
6287,55.0,1.0,90.0,7.0,64.0
6288,70.0,12.0,90.0,4.0,64.0
6289,69.0,12.0,210.0,14.0,64.0
6290,69.0,2.0,210.0,4.0,64.0
6291,41.0,3.0,180.0,11.0,64.0
6292,53.0,3.0,210.0,12.0,64.0
6293,69.0,0.0,210.0,12.0,64.0
6294,81.0,70.0,120.0,13.0,64.0
6295,53.0,3.0,210.0,7.0,64.0
6296,53.0,13.0,180.0,15.0,64.0
6297,81.0,0.0,120.0,1.0,64.0
6298,62.0,56.0,270.0,12.0,64.0
6299,79.0,16.0,90.0,13.0,64.0
6300,79.0,27.0,120.0,1.0,64.0
6301,81.0,9.0,90.0,13.0,64.0
6302,81.0,6.0,90.0,1.0,64.0
6303,67.0,5.0,90.0,14.0,64.0
6304,52.0,0.0,90.0,7.0,64.0
6305,67.0,1.0,60.0,12.0,64.0
6306,67.0,5.0,90.0,4.0,64.0
6307,52.0,0.0,60.0,12.0,64.0
6308,40.0,77.0,90.0,11.0,64.0
6309,52.0,1.0,90.0,15.0,64.0
6310,82.0,1.0,90.0,13.0,64.0
6311,82.0,13.0,90.0,1.0,64.0
6312,38.0,0.0,120.0,11.0,64.0
6313,65.0,87.0,120.0,14.0,64.0
6314,50.0,0.0,60.0,12.0,64.0
6315,65.0,2.0,60.0,12.0,64.0
6316,50.0,1.0,90.0,7.0,64.0
6317,65.0,2.0,90.0,4.0,64.0
6318,50.0,21.0,60.0,15.0,64.0
6319,81.0,18.0,90.0,13.0,64.0
6320,64.0,24.0,120.0,4.0,64.0
6321,64.0,3.0,120.0,14.0,64.0
6322,49.0,5.0,150.0,7.0,64.0
6323,49.0,2.0,90.0,12.0,64.0
6324,81.0,14.0,90.0,1.0,64.0
6325,64.0,0.0,90.0,12.0,64.0
6326,49.0,9.0,120.0,15.0,64.0
6327,37.0,31.0,150.0,11.0,64.0
6328,57.0,6.0,90.0,12.0,64.0
6329,79.0,26.0,90.0,13.0,64.0
6330,79.0,108.0,90.0,1.0,64.0
6331,77.0,2.0,90.0,13.0,64.0
6332,45.0,2.0,90.0,7.0,64.0
6333,73.0,76.0,120.0,4.0,64.0
6334,73.0,3.0,90.0,14.0,64.0
6335,33.0,5.0,90.0,11.0,64.0
6336,77.0,6.0,90.0,1.0,64.0
6337,45.0,11.0,90.0,15.0,64.0
6338,64.0,0.0,60.0,12.0,64.0
6339,61.0,0.0,60.0,12.0,64.0
6340,45.0,6.0,60.0,12.0,64.0
6341,76.0,10.0,90.0,13.0,64.0
6342,76.0,123.0,90.0,1.0,64.0
6343,38.0,14.0,120.0,11.0,64.0
6344,77.0,18.0,90.0,13.0,64.0
6345,50.0,6.0,120.0,7.0,64.0
6346,74.0,17.0,90.0,14.0,64.0
6347,74.0,38.0,150.0,4.0,64.0
6348,65.0,0.0,210.0,12.0,64.0
6349,62.0,17.0,210.0,12.0,64.0
6350,50.0,5.0,120.0,15.0,64.0
6351,77.0,7.0,120.0,1.0,64.0
6352,50.0,7.0,180.0,12.0,64.0
6353,79.0,24.0,60.0,13.0,64.0
6354,79.0,71.0,90.0,1.0,64.0
6355,50.0,2.0,90.0,11.0,64.0
6356,77.0,10.0,60.0,13.0,64.0
6357,62.0,23.0,90.0,15.0,64.0
6358,62.0,2.0,90.0,7.0,64.0
6359,62.0,10.0,60.0,4.0,64.0
6360,62.0,11.0,90.0,14.0,64.0
6361,77.0,2.0,120.0,1.0,64.0
6362,69.0,21.0,210.0,12.0,64.0
6363,62.0,60.0,90.0,12.0,64.0
6364,65.0,56.0,240.0,12.0,64.0
6365,48.0,9.0,120.0,11.0,64.0
6366,79.0,14.0,60.0,13.0,64.0
6367,60.0,18.0,120.0,15.0,64.0
6368,60.0,10.0,90.0,7.0,64.0
6369,79.0,8.0,90.0,1.0,64.0
6370,60.0,1.0,120.0,12.0,64.0
6371,46.0,2.0,180.0,11.0,64.0
6372,58.0,18.0,240.0,7.0,64.0
6373,81.0,16.0,120.0,1.0,64.0
6374,62.0,20.0,120.0,4.0,64.0
6375,81.0,3.0,90.0,13.0,64.0
6376,58.0,15.0,150.0,15.0,64.0
6377,67.0,0.0,90.0,12.0,64.0
6378,74.0,18.0,90.0,12.0,64.0
6379,58.0,1.0,180.0,12.0,64.0
6380,62.0,8.0,90.0,14.0,64.0
6381,79.0,1.0,60.0,1.0,64.0
6382,79.0,16.0,60.0,13.0,64.0
6383,81.0,32.0,30.0,13.0,64.0
6384,81.0,10.0,60.0,1.0,64.0
6385,79.0,16.0,30.0,13.0,64.0
6386,79.0,23.0,60.0,1.0,64.0
6387,81.0,13.0,30.0,13.0,64.0
6388,74.0,7.0,90.0,4.0,64.0
6389,57.0,0.0,90.0,15.0,64.0
6390,45.0,2.0,90.0,11.0,64.0
6391,74.0,9.0,60.0,14.0,64.0
6392,65.0,0.0,60.0,12.0,64.0
6393,57.0,4.0,90.0,7.0,64.0
6394,74.0,0.0,60.0,12.0,64.0
6395,69.0,6.0,60.0,12.0,64.0
6396,57.0,18.0,90.0,12.0,64.0
6397,81.0,2.0,60.0,1.0,64.0
6398,79.0,16.0,30.0,13.0,64.0
6399,81.0,3.0,60.0,13.0,64.0
6400,79.0,15.0,60.0,1.0,64.0
6401,79.0,26.0,30.0,13.0,64.0
6402,43.0,16.0,90.0,11.0,64.0
6403,77.0,20.0,60.0,1.0,64.0
6404,55.0,4.0,90.0,15.0,64.0
6405,55.0,11.0,90.0,7.0,64.0
6406,55.0,8.0,90.0,12.0,64.0
6407,77.0,6.0,60.0,13.0,64.0
6408,79.0,32.0,90.0,1.0,64.0
6409,79.0,101.0,90.0,13.0,64.0
6410,62.0,9.0,390.0,12.0,64.0
6411,81.0,27.0,180.0,1.0,64.0
6412,74.0,4.0,150.0,4.0,64.0
6413,53.0,1.0,120.0,7.0,64.0
6414,53.0,3.0,120.0,15.0,64.0
6415,74.0,5.0,120.0,14.0,64.0
6416,65.0,2.0,360.0,12.0,64.0
6417,41.0,32.0,120.0,11.0,64.0
6418,53.0,2.0,120.0,12.0,64.0
6419,81.0,9.0,150.0,13.0,64.0
6420,69.0,7.0,330.0,12.0,64.0
6421,52.0,1.0,120.0,15.0,64.0
6422,52.0,46.0,120.0,7.0,64.0
6423,40.0,32.0,90.0,11.0,64.0
6424,52.0,17.0,120.0,12.0,64.0
6425,41.0,12.0,60.0,11.0,64.0
6426,53.0,8.0,60.0,7.0,64.0
6427,62.0,1.0,90.0,4.0,64.0
6428,53.0,9.0,90.0,15.0,64.0
6429,53.0,14.0,90.0,12.0,64.0
6430,86.0,4.0,90.0,1.0,64.0
6431,62.0,9.0,90.0,14.0,64.0
6432,86.0,38.0,120.0,13.0,64.0
6433,43.0,22.0,60.0,11.0,64.0
6434,55.0,16.0,90.0,7.0,64.0
6435,85.0,15.0,90.0,1.0,64.0
6436,55.0,6.0,90.0,12.0,64.0
6437,85.0,79.0,120.0,13.0,64.0
6438,55.0,0.0,60.0,15.0,64.0
6439,86.0,41.0,150.0,1.0,64.0
6440,41.0,10.0,90.0,11.0,64.0
6441,86.0,20.0,120.0,13.0,64.0
6442,62.0,5.0,120.0,4.0,64.0
6443,53.0,3.0,90.0,7.0,64.0
6444,53.0,15.0,90.0,15.0,64.0
6445,62.0,11.0,90.0,14.0,64.0
6446,53.0,2.0,90.0,12.0,64.0
6447,43.0,12.0,60.0,11.0,64.0
6448,55.0,7.0,60.0,15.0,64.0
6449,55.0,13.0,90.0,7.0,64.0
6450,55.0,85.0,90.0,12.0,64.0
6451,41.0,23.0,60.0,11.0,64.0
6452,65.0,0.0,90.0,12.0,64.0
6453,74.0,3.0,90.0,12.0,64.0
6454,69.0,0.0,90.0,12.0,64.0
6455,53.0,0.0,90.0,12.0,64.0
6456,53.0,8.0,90.0,15.0,64.0
6457,53.0,8.0,90.0,7.0,64.0
6458,74.0,1.0,90.0,4.0,64.0
6459,81.0,58.0,120.0,13.0,64.0
6460,74.0,0.0,90.0,14.0,64.0
6461,81.0,10.0,90.0,1.0,64.0
6462,40.0,24.0,60.0,11.0,64.0
6463,79.0,17.0,120.0,13.0,64.0
6464,52.0,137.0,120.0,12.0,64.0
6465,52.0,10.0,90.0,7.0,64.0
6466,52.0,11.0,60.0,15.0,64.0
6467,79.0,3.0,90.0,1.0,64.0
6468,38.0,7.0,150.0,11.0,64.0
6469,69.0,12.0,210.0,4.0,64.0
6470,50.0,18.0,120.0,7.0,64.0
6471,77.0,6.0,180.0,13.0,64.0
6472,69.0,0.0,210.0,14.0,64.0
6473,50.0,34.0,150.0,15.0,64.0
6474,69.0,73.0,270.0,12.0,64.0
6475,65.0,0.0,270.0,12.0,64.0
6476,50.0,48.0,210.0,12.0,64.0
6477,77.0,10.0,180.0,1.0,64.0
6478,46.0,2.0,90.0,11.0,64.0
6479,58.0,4.0,90.0,7.0,64.0
6480,58.0,4.0,120.0,15.0,64.0
6481,58.0,46.0,120.0,12.0,64.0
6482,76.0,0.0,90.0,1.0,64.0
6483,67.0,2.0,90.0,4.0,64.0
6484,67.0,0.0,90.0,14.0,64.0
6485,64.0,0.0,90.0,12.0,64.0
6486,67.0,25.0,90.0,12.0,64.0
6487,76.0,1.0,90.0,13.0,64.0
6488,74.0,29.0,60.0,13.0,64.0
6489,65.0,1.0,90.0,14.0,64.0
6490,65.0,1.0,90.0,4.0,64.0
6491,74.0,27.0,90.0,1.0,64.0
6492,65.0,73.0,120.0,12.0,64.0
6493,62.0,0.0,120.0,12.0,64.0
6494,43.0,30.0,90.0,11.0,64.0
6495,76.0,4.0,210.0,13.0,64.0
6496,76.0,52.0,210.0,1.0,64.0
6497,55.0,1.0,120.0,15.0,64.0
6498,55.0,1.0,120.0,7.0,64.0
6499,67.0,11.0,210.0,4.0,64.0
6500,67.0,4.0,180.0,14.0,64.0
6501,64.0,56.0,270.0,12.0,64.0
6502,67.0,0.0,270.0,12.0,64.0
6503,55.0,84.0,90.0,12.0,64.0
6504,45.0,0.0,90.0,11.0,64.0
6505,57.0,9.0,90.0,7.0,64.0
6506,57.0,4.0,90.0,15.0,64.0
6507,57.0,11.0,60.0,12.0,64.0
6508,74.0,0.0,90.0,13.0,64.0
6509,65.0,6.0,90.0,14.0,64.0
6510,65.0,3.0,90.0,4.0,64.0
6511,74.0,0.0,90.0,1.0,64.0
6512,62.0,92.0,90.0,12.0,64.0
6513,65.0,0.0,90.0,12.0,64.0
6514,73.0,3.0,90.0,13.0,64.0
6515,73.0,7.0,90.0,1.0,64.0
6516,64.0,5.0,90.0,4.0,64.0
6517,64.0,1.0,90.0,14.0,64.0
6518,61.0,328.0,90.0,12.0,64.0
6519,64.0,0.0,90.0,12.0,64.0
6520,70.0,0.0,360.0,12.0,64.0
6521,58.0,79.0,360.0,12.0,64.0
6522,70.0,5.0,360.0,4.0,64.0
6523,58.0,4.0,300.0,7.0,64.0
6524,46.0,1.0,300.0,11.0,64.0
6525,58.0,6.0,300.0,15.0,64.0
6526,82.0,4.0,300.0,13.0,64.0
6527,70.0,11.0,330.0,14.0,64.0
6528,82.0,15.0,300.0,1.0,64.0
6529,81.0,1.0,90.0,13.0,64.0
6530,69.0,1.0,60.0,14.0,64.0
6531,57.0,3.0,60.0,7.0,64.0
6532,69.0,11.0,90.0,4.0,64.0
6533,69.0,0.0,60.0,12.0,64.0
6534,57.0,10.0,60.0,12.0,64.0
6535,81.0,89.0,90.0,1.0,64.0
6536,57.0,6.0,60.0,15.0,64.0
6537,45.0,0.0,60.0,11.0,64.0
6538,79.0,12.0,90.0,13.0,64.0
6539,67.0,2.0,90.0,14.0,64.0
6540,55.0,3.0,90.0,7.0,64.0
6541,67.0,1.0,90.0,4.0,64.0
6542,55.0,6.0,90.0,12.0,64.0
6543,67.0,0.0,90.0,12.0,64.0
6544,55.0,13.0,60.0,15.0,64.0
6545,79.0,67.0,90.0,1.0,64.0
6546,43.0,2.0,60.0,11.0,64.0
6547,77.0,4.0,90.0,13.0,64.0
6548,53.0,3.0,60.0,15.0,64.0
6549,41.0,9.0,60.0,11.0,64.0
6550,77.0,2.0,60.0,1.0,64.0
6551,53.0,12.0,90.0,7.0,64.0
6552,65.0,7.0,90.0,14.0,64.0
6553,65.0,5.0,60.0,4.0,64.0
6554,65.0,77.0,90.0,12.0,64.0
6555,53.0,0.0,90.0,12.0,64.0
6556,76.0,13.0,90.0,13.0,64.0
6557,76.0,0.0,60.0,1.0,64.0
6558,64.0,0.0,60.0,14.0,64.0
6559,40.0,2.0,60.0,11.0,64.0
6560,64.0,0.0,90.0,4.0,64.0
6561,52.0,10.0,60.0,15.0,64.0
6562,52.0,23.0,90.0,7.0,64.0
6563,64.0,57.0,90.0,12.0,64.0
6564,52.0,0.0,90.0,12.0,64.0
6565,74.0,4.0,60.0,13.0,64.0
6566,74.0,20.0,60.0,1.0,64.0
6567,38.0,5.0,90.0,11.0,64.0
6568,62.0,18.0,90.0,14.0,64.0
6569,62.0,0.0,60.0,4.0,64.0
6570,50.0,1.0,60.0,15.0,64.0
6571,50.0,8.0,90.0,7.0,64.0
6572,62.0,149.0,90.0,12.0,64.0
6573,50.0,0.0,90.0,12.0,64.0
6574,81.0,3.0,330.0,1.0,64.0
6575,69.0,24.0,210.0,2.0,64.0
6576,65.0,16.0,180.0,3.0,64.0
6577,53.0,13.0,150.0,15.0,64.0
6578,53.0,6.0,120.0,7.0,64.0
6579,69.0,1.0,210.0,5.0,64.0
6580,65.0,5.0,210.0,6.0,64.0
6581,74.0,0.0,120.0,4.0,64.0
6582,41.0,27.0,120.0,11.0,64.0
6583,62.0,0.0,210.0,12.0,64.0
6584,69.0,78.0,210.0,12.0,64.0
6585,53.0,0.0,210.0,12.0,64.0
6586,70.0,37.0,150.0,3.0,64.0
6587,64.0,17.0,60.0,6.0,64.0
6588,74.0,29.0,120.0,4.0,64.0
6589,70.0,11.0,210.0,12.0,64.0
6590,55.0,0.0,210.0,12.0,64.0
6591,55.0,24.0,90.0,15.0,64.0
6592,55.0,8.0,90.0,7.0,64.0
6593,65.0,14.0,180.0,12.0,64.0
6594,67.0,3.0,90.0,5.0,64.0
6595,43.0,1.0,90.0,11.0,64.0
6596,74.0,7.0,90.0,2.0,64.0
6597,82.0,2.0,90.0,1.0,64.0
6598,65.0,109.0,90.0,5.0,64.0
6599,69.0,30.0,150.0,3.0,64.0
6600,64.0,35.0,180.0,5.0,64.0
6601,64.0,11.0,90.0,6.0,64.0
6602,64.0,0.0,90.0,12.0,64.0
6603,57.0,2.0,90.0,12.0,64.0
6604,69.0,0.0,90.0,12.0,64.0
6605,69.0,2.0,120.0,4.0,64.0
6606,57.0,8.0,90.0,15.0,64.0
6607,74.0,31.0,120.0,2.0,64.0
6608,57.0,2.0,120.0,7.0,64.0
6609,45.0,3.0,90.0,11.0,64.0
6610,77.0,7.0,120.0,1.0,64.0
6611,76.0,43.0,90.0,1.0,64.0
6612,77.0,34.0,60.0,1.0,64.0
6613,69.0,23.0,120.0,3.0,64.0
6614,73.0,2.0,90.0,2.0,64.0
6615,57.0,2.0,90.0,6.0,64.0
6616,45.0,10.0,90.0,15.0,64.0
6617,76.0,27.0,60.0,1.0,64.0
6618,45.0,1.0,120.0,7.0,64.0
6619,33.0,2.0,90.0,11.0,64.0
6620,64.0,0.0,90.0,5.0,64.0
6621,69.0,0.0,90.0,4.0,64.0
6622,45.0,13.0,60.0,12.0,64.0
6623,61.0,0.0,60.0,12.0,64.0
6624,64.0,0.0,60.0,12.0,64.0
6625,67.0,0.0,60.0,12.0,64.0
6626,77.0,5.0,60.0,1.0,64.0
6627,76.0,90.0,60.0,1.0,64.0
6628,74.0,138.0,90.0,1.0,64.0
6629,57.0,11.0,750.0,12.0,64.0
6630,38.0,29.0,150.0,11.0,64.0
6631,50.0,30.0,120.0,15.0,64.0
6632,74.0,7.0,210.0,2.0,64.0
6633,57.0,7.0,210.0,6.0,64.0
6634,50.0,10.0,180.0,7.0,64.0
6635,50.0,26.0,180.0,12.0,64.0
6636,65.0,6.0,270.0,3.0,64.0
6637,74.0,46.0,270.0,1.0,64.0
6638,69.0,23.0,210.0,4.0,64.0
6639,65.0,33.0,240.0,5.0,64.0
6640,62.0,1.0,720.0,12.0,64.0
6641,65.0,84.0,660.0,12.0,64.0
6642,53.0,59.0,90.0,10.0,64.0
6643,50.0,11.0,180.0,12.0,64.0
6644,62.0,0.0,90.0,7.0,64.0
6645,57.0,0.0,90.0,8.0,64.0
6646,38.0,42.0,150.0,11.0,64.0
6647,61.0,0.0,90.0,7.0,64.0
6648,52.0,0.0,90.0,10.0,64.0
6649,55.0,141.0,90.0,8.0,64.0
6650,57.0,25.0,120.0,8.0,64.0
6651,62.0,35.0,150.0,7.0,64.0
6652,53.0,1.0,120.0,10.0,64.0
6653,50.0,51.0,180.0,12.0,64.0
6654,38.0,19.0,150.0,11.0,64.0
6655,50.0,18.0,180.0,12.0,64.0
6656,57.0,0.0,90.0,10.0,64.0
6657,38.0,37.0,150.0,11.0,64.0
6658,65.0,0.0,90.0,7.0,64.0
6659,62.0,57.0,90.0,8.0,64.0
6660,61.0,0.0,90.0,8.0,64.0
6661,55.0,0.0,90.0,10.0,64.0
6662,64.0,155.0,90.0,7.0,64.0
6663,62.0,29.0,570.0,12.0,64.0
6664,65.0,21.0,150.0,7.0,64.0
6665,62.0,22.0,120.0,8.0,64.0
6666,38.0,19.0,180.0,11.0,64.0
6667,57.0,7.0,120.0,10.0,64.0
6668,50.0,143.0,180.0,12.0,64.0
6669,65.0,26.0,510.0,12.0,64.0
6670,69.0,6.0,540.0,12.0,64.0
6671,38.0,5.0,120.0,11.0,64.0
6672,50.0,30.0,180.0,12.0,64.0
6673,62.0,58.0,120.0,6.0,64.0
6674,69.0,2.0,90.0,4.0,64.0
6675,65.0,18.0,90.0,5.0,64.0
6676,61.0,47.0,120.0,6.0,64.0
6677,67.0,1.0,90.0,4.0,64.0
6678,64.0,25.0,90.0,5.0,64.0
6679,38.0,41.0,120.0,11.0,64.0
6680,65.0,6.0,150.0,5.0,64.0
6681,69.0,26.0,150.0,4.0,64.0
6682,62.0,10.0,150.0,6.0,64.0
6683,50.0,150.0,180.0,12.0,64.0
6684,38.0,29.0,120.0,11.0,64.0
6685,50.0,31.0,180.0,12.0,64.0
6686,74.0,2.0,90.0,4.0,64.0
6687,69.0,5.0,90.0,5.0,64.0
6688,65.0,45.0,120.0,6.0,64.0
6689,73.0,3.0,90.0,4.0,64.0
6690,67.0,27.0,90.0,5.0,64.0
6691,64.0,146.0,120.0,6.0,64.0
6692,65.0,25.0,570.0,12.0,64.0
6693,38.0,19.0,180.0,11.0,64.0
6694,69.0,11.0,150.0,5.0,64.0
6695,74.0,2.0,180.0,4.0,64.0
6696,50.0,134.0,210.0,12.0,64.0
6697,65.0,26.0,150.0,6.0,64.0
6698,69.0,27.0,510.0,12.0,64.0
6699,74.0,9.0,540.0,12.0,64.0
6700,69.0,2.0,90.0,3.0,64.0
6701,38.0,33.0,90.0,11.0,64.0
6702,50.0,69.0,120.0,12.0,64.0
6703,77.0,1.0,90.0,1.0,64.0
6704,74.0,10.0,90.0,2.0,64.0
6705,76.0,1.0,90.0,1.0,64.0
6706,73.0,1.0,90.0,2.0,64.0
6707,67.0,67.0,90.0,3.0,64.0
6708,74.0,4.0,150.0,2.0,64.0
6709,77.0,140.0,150.0,1.0,64.0
6710,69.0,4.0,150.0,3.0,64.0
6711,38.0,37.0,90.0,11.0,64.0
6712,50.0,4.0,90.0,12.0,64.0
6713,65.0,8.0,60.0,12.0,64.0
6714,69.0,36.0,60.0,12.0,64.0
6715,62.0,2.0,30.0,12.0,64.0
6716,74.0,0.0,90.0,3.0,64.0
6717,50.0,1.0,90.0,7.0,64.0
6718,50.0,1.0,90.0,12.0,64.0
6719,38.0,103.0,90.0,11.0,64.0
6720,81.0,1.0,90.0,1.0,64.0
6721,77.0,4.0,90.0,2.0,64.0
6722,50.0,4.0,90.0,15.0,64.0
6723,40.0,0.0,120.0,11.0,64.0
6724,52.0,109.0,120.0,12.0,64.0
6725,52.0,1.0,90.0,7.0,64.0
6726,52.0,4.0,120.0,15.0,64.0
6727,79.0,1.0,90.0,1.0,64.0
6728,76.0,1.0,90.0,2.0,64.0
6729,73.0,14.0,90.0,3.0,64.0
6730,81.0,12.0,150.0,1.0,64.0
6731,41.0,4.0,120.0,11.0,64.0
6732,74.0,0.0,150.0,2.0,64.0
6733,53.0,12.0,120.0,12.0,64.0
6734,53.0,10.0,90.0,15.0,64.0
6735,74.0,128.0,150.0,3.0,64.0
6736,69.0,0.0,270.0,12.0,64.0
6737,62.0,50.0,270.0,12.0,64.0
6738,65.0,5.0,270.0,12.0,64.0
6739,53.0,15.0,120.0,7.0,64.0
6740,46.0,3.0,120.0,11.0,64.0
6741,77.0,9.0,120.0,2.0,64.0
6742,81.0,1.0,90.0,1.0,64.0
6743,58.0,1.0,90.0,7.0,64.0
6744,65.0,0.0,90.0,5.0,64.0
6745,74.0,1.0,90.0,4.0,64.0
6746,74.0,5.0,90.0,3.0,64.0
6747,62.0,84.0,120.0,6.0,64.0
6748,58.0,4.0,90.0,15.0,64.0
6749,58.0,6.0,90.0,12.0,64.0
6750,45.0,11.0,120.0,11.0,64.0
6751,64.0,87.0,120.0,6.0,64.0
6752,57.0,1.0,90.0,7.0,64.0
6753,57.0,6.0,90.0,15.0,64.0
6754,67.0,2.0,90.0,5.0,64.0
6755,73.0,0.0,90.0,4.0,64.0
6756,57.0,6.0,120.0,12.0,64.0
6757,46.0,10.0,120.0,11.0,64.0
6758,58.0,21.0,90.0,12.0,64.0
6759,62.0,18.0,180.0,6.0,64.0
6760,74.0,20.0,150.0,4.0,64.0
6761,65.0,26.0,150.0,5.0,64.0
6762,77.0,3.0,180.0,2.0,64.0
6763,58.0,2.0,120.0,7.0,64.0
6764,58.0,17.0,120.0,15.0,64.0
6765,74.0,3.0,180.0,3.0,64.0
6766,81.0,95.0,210.0,1.0,64.0
6767,67.0,1.0,120.0,6.0,64.0
6768,64.0,1.0,60.0,12.0,64.0
6769,52.0,1.0,90.0,7.0,64.0
6770,79.0,1.0,90.0,1.0,64.0
6771,70.0,0.0,90.0,5.0,64.0
6772,67.0,5.0,60.0,12.0,64.0
6773,62.0,33.0,60.0,12.0,64.0
6774,52.0,0.0,90.0,15.0,64.0
6775,74.0,0.0,90.0,4.0,64.0
6776,70.0,0.0,90.0,3.0,64.0
6777,76.0,4.0,90.0,2.0,64.0
6778,52.0,14.0,90.0,12.0,64.0
6779,40.0,91.0,90.0,11.0,64.0
6780,38.0,12.0,120.0,11.0,64.0
6781,50.0,2.0,90.0,7.0,64.0
6782,50.0,97.0,120.0,12.0,64.0
6783,50.0,13.0,120.0,15.0,64.0
6784,72.0,1.0,90.0,3.0,64.0
6785,77.0,0.0,90.0,1.0,64.0
6786,77.0,16.0,90.0,2.0,64.0
6787,70.0,1.0,150.0,3.0,64.0
6788,79.0,41.0,180.0,1.0,64.0
6789,52.0,12.0,150.0,7.0,64.0
6790,67.0,2.0,210.0,6.0,64.0
6791,76.0,12.0,150.0,2.0,64.0
6792,40.0,8.0,120.0,11.0,64.0
6793,52.0,12.0,120.0,15.0,64.0
6794,70.0,2.0,210.0,5.0,64.0
6795,52.0,7.0,120.0,12.0,64.0
6796,74.0,129.0,210.0,4.0,64.0
6797,64.0,5.0,480.0,12.0,64.0
6798,67.0,3.0,480.0,12.0,64.0
6799,62.0,72.0,480.0,12.0,64.0
6800,73.0,1.0,90.0,4.0,64.0
6801,57.0,3.0,120.0,12.0,64.0
6802,64.0,5.0,120.0,6.0,64.0
6803,57.0,1.0,90.0,7.0,64.0
6804,57.0,3.0,120.0,15.0,64.0
6805,64.0,1.0,90.0,5.0,64.0
6806,69.0,6.0,90.0,3.0,64.0
6807,79.0,8.0,90.0,1.0,64.0
6808,76.0,6.0,120.0,2.0,64.0
6809,45.0,74.0,120.0,11.0,64.0
6810,55.0,13.0,120.0,15.0,64.0
6811,71.0,0.0,90.0,4.0,64.0
6812,55.0,2.0,90.0,7.0,64.0
6813,55.0,9.0,120.0,12.0,64.0
6814,65.0,20.0,90.0,5.0,64.0
6815,65.0,5.0,90.0,6.0,64.0
6816,43.0,1.0,150.0,11.0,64.0
6817,76.0,7.0,210.0,2.0,64.0
6818,57.0,20.0,120.0,7.0,64.0
6819,57.0,7.0,180.0,12.0,64.0
6820,64.0,1.0,180.0,5.0,64.0
6821,57.0,2.0,90.0,15.0,64.0
6822,73.0,3.0,180.0,4.0,64.0
6823,79.0,89.0,210.0,1.0,64.0
6824,64.0,3.0,180.0,6.0,64.0
6825,45.0,60.0,120.0,11.0,64.0
6826,69.0,7.0,180.0,3.0,64.0
6827,69.0,8.0,90.0,5.0,64.0
6828,74.0,9.0,90.0,4.0,64.0
6829,65.0,2.0,120.0,6.0,64.0
6830,50.0,1.0,90.0,7.0,64.0
6831,77.0,1.0,90.0,1.0,64.0
6832,50.0,1.0,120.0,15.0,64.0
6833,74.0,3.0,90.0,2.0,64.0
6834,38.0,82.0,120.0,11.0,64.0
6835,69.0,0.0,90.0,3.0,64.0
6836,50.0,13.0,90.0,12.0,64.0
6837,65.0,1.0,30.0,12.0,64.0
6838,69.0,35.0,30.0,12.0,64.0
6839,37.0,8.0,120.0,11.0,64.0
6840,67.0,132.0,120.0,6.0,64.0
6841,64.0,1.0,90.0,5.0,64.0
6842,69.0,4.0,120.0,4.0,64.0
6843,49.0,1.0,90.0,7.0,64.0
6844,49.0,7.0,120.0,15.0,64.0
6845,76.0,1.0,90.0,1.0,64.0
6846,76.0,0.0,90.0,2.0,64.0
6847,70.0,12.0,90.0,3.0,64.0
6848,49.0,1.0,120.0,12.0,64.0
6849,69.0,15.0,180.0,5.0,64.0
6850,38.0,12.0,150.0,11.0,64.0
6851,65.0,34.0,210.0,6.0,64.0
6852,50.0,0.0,150.0,15.0,64.0
6853,50.0,2.0,150.0,7.0,64.0
6854,62.0,2.0,150.0,4.0,64.0
6855,50.0,75.0,240.0,12.0,64.0
6856,62.0,13.0,180.0,12.0,64.0
6857,65.0,2.0,150.0,12.0,64.0
6858,69.0,3.0,150.0,12.0,64.0
6859,77.0,6.0,330.0,1.0,64.0
6860,69.0,9.0,150.0,3.0,64.0
6861,74.0,0.0,300.0,2.0,64.0
6862,43.0,8.0,90.0,11.0,64.0
6863,62.0,4.0,90.0,5.0,64.0
6864,65.0,7.0,60.0,12.0,64.0
6865,70.0,3.0,90.0,12.0,64.0
6866,62.0,3.0,60.0,12.0,64.0
6867,67.0,13.0,120.0,6.0,64.0
6868,55.0,13.0,90.0,7.0,64.0
6869,55.0,5.0,90.0,15.0,64.0
6870,70.0,15.0,120.0,4.0,64.0
6871,55.0,52.0,150.0,12.0,64.0
6872,70.0,2.0,90.0,3.0,64.0
6873,76.0,17.0,60.0,1.0,64.0
6874,76.0,90.0,90.0,2.0,64.0
6875,45.0,0.0,90.0,11.0,64.0
6876,74.0,19.0,150.0,2.0,64.0
6877,77.0,48.0,180.0,1.0,64.0
6878,62.0,26.0,90.0,12.0,64.0
6879,65.0,6.0,60.0,12.0,64.0
6880,69.0,5.0,90.0,12.0,64.0
6881,57.0,1.0,120.0,7.0,64.0
6882,69.0,7.0,120.0,5.0,64.0
6883,64.0,5.0,120.0,4.0,64.0
6884,57.0,1.0,60.0,15.0,64.0
6885,67.0,19.0,120.0,6.0,64.0
6886,57.0,4.0,90.0,12.0,64.0
6887,69.0,1.0,90.0,3.0,64.0
6888,73.0,8.0,60.0,2.0,64.0
6889,76.0,29.0,60.0,1.0,64.0
6890,77.0,28.0,60.0,1.0,64.0
6891,74.0,8.0,60.0,2.0,64.0
6892,33.0,5.0,90.0,11.0,64.0
6893,45.0,2.0,90.0,7.0,64.0
6894,76.0,11.0,60.0,1.0,64.0
6895,45.0,2.0,90.0,15.0,64.0
6896,61.0,1.0,90.0,12.0,64.0
6897,73.0,17.0,60.0,2.0,64.0
6898,64.0,0.0,60.0,12.0,64.0
6899,69.0,0.0,90.0,4.0,64.0
6900,64.0,6.0,90.0,5.0,64.0
6901,61.0,39.0,120.0,6.0,64.0
6902,69.0,1.0,60.0,12.0,64.0
6903,45.0,6.0,90.0,12.0,64.0
6904,69.0,2.0,90.0,3.0,64.0
6905,77.0,9.0,60.0,1.0,64.0
6906,74.0,8.0,60.0,2.0,64.0
6907,76.0,3.0,60.0,1.0,64.0
6908,73.0,41.0,60.0,2.0,64.0
6909,74.0,153.0,90.0,1.0,64.0
6910,74.0,17.0,60.0,2.0,64.0
6911,38.0,13.0,180.0,11.0,64.0
6912,74.0,9.0,330.0,1.0,64.0
6913,57.0,44.0,270.0,6.0,64.0
6914,69.0,3.0,270.0,3.0,64.0
6915,50.0,81.0,180.0,7.0,64.0
6916,50.0,4.0,150.0,15.0,64.0
6917,65.0,4.0,270.0,4.0,64.0
6918,65.0,0.0,240.0,14.0,64.0
6919,50.0,10.0,240.0,12.0,64.0
6920,57.0,27.0,120.0,12.0,64.0
6921,65.0,5.0,120.0,12.0,64.0
6922,62.0,0.0,120.0,12.0,64.0
6923,74.0,3.0,240.0,2.0,64.0
6924,70.0,1.0,120.0,12.0,64.0
6925,39.0,31.0,90.0,11.0,64.0
6926,51.0,85.0,120.0,7.0,64.0
6927,51.0,8.0,90.0,15.0,64.0
6928,51.0,30.0,180.0,12.0,64.0
6929,69.0,77.0,720.0,12.0,64.0
6930,67.0,86.0,90.0,12.0,64.0
6931,38.0,0.0,90.0,11.0,64.0
6932,50.0,9.0,90.0,7.0,64.0
6933,50.0,83.0,120.0,12.0,64.0
6934,50.0,15.0,90.0,15.0,64.0
6935,65.0,5.0,90.0,12.0,64.0
6936,67.0,117.0,90.0,12.0,64.0
6937,65.0,54.0,240.0,12.0,64.0
6938,36.0,12.0,90.0,11.0,64.0
6939,48.0,13.0,90.0,12.0,64.0
6940,48.0,79.0,90.0,7.0,64.0
6941,48.0,2.0,90.0,15.0,64.0
6942,70.0,4.0,90.0,2.0,64.0
6943,63.0,30.0,90.0,12.0,64.0
6944,69.0,9.0,90.0,2.0,64.0
6945,62.0,1.0,420.0,12.0,64.0
6946,58.0,41.0,120.0,14.0,64.0
6947,34.0,16.0,390.0,11.0,64.0
6948,46.0,83.0,480.0,12.0,64.0
6949,58.0,110.0,150.0,4.0,64.0
6950,70.0,9.0,150.0,2.0,64.0
6951,70.0,33.0,420.0,1.0,64.0
6952,46.0,11.0,270.0,15.0,64.0
6953,46.0,37.0,270.0,7.0,64.0
6954,58.0,25.0,360.0,12.0,64.0
6955,53.0,3.0,330.0,12.0,64.0
6956,57.0,27.0,120.0,14.0,64.0
6957,57.0,19.0,90.0,4.0,64.0
6958,65.0,8.0,90.0,2.0,64.0
6959,63.0,36.0,90.0,2.0,64.0
6960,74.0,25.0,420.0,1.0,64.0
6961,58.0,7.0,90.0,14.0,64.0
6962,58.0,55.0,90.0,4.0,64.0
6963,65.0,168.0,150.0,2.0,64.0
6964,60.0,6.0,90.0,14.0,64.0
6965,60.0,12.0,90.0,4.0,64.0
6966,70.0,88.0,90.0,2.0,64.0
6967,69.0,142.0,90.0,2.0,64.0
6968,62.0,3.0,150.0,4.0,64.0
6969,77.0,31.0,540.0,1.0,64.0
6970,70.0,179.0,150.0,2.0,64.0
6971,62.0,29.0,120.0,14.0,64.0
6972,63.0,10.0,90.0,14.0,64.0
6973,63.0,4.0,90.0,4.0,64.0
6974,62.0,113.0,90.0,2.0,64.0
6975,60.0,77.0,90.0,2.0,64.0
6976,62.0,63.0,90.0,4.0,64.0
6977,62.0,178.0,150.0,2.0,64.0
6978,62.0,5.0,90.0,14.0,64.0
6979,60.0,9.0,90.0,14.0,64.0
6980,60.0,4.0,90.0,4.0,64.0
6981,77.0,103.0,90.0,1.0,64.0
6982,70.0,10.0,90.0,2.0,64.0
6983,69.0,174.0,90.0,2.0,64.0
6984,58.0,28.0,150.0,14.0,64.0
6985,70.0,9.0,150.0,2.0,64.0
6986,58.0,137.0,180.0,4.0,64.0
6987,74.0,1.0,180.0,1.0,64.0
6988,57.0,17.0,90.0,4.0,64.0
6989,57.0,1.0,90.0,14.0,64.0
6990,58.0,87.0,90.0,2.0,64.0
6991,77.0,26.0,180.0,1.0,64.0
6992,60.0,119.0,90.0,2.0,64.0
6993,55.0,6.0,90.0,4.0,64.0
6994,55.0,8.0,90.0,14.0,64.0
6995,82.0,120.0,90.0,1.0,64.0
6996,62.0,3.0,90.0,2.0,64.0
6997,86.0,85.0,120.0,1.0,64.0
6998,60.0,6.0,90.0,4.0,64.0
6999,84.0,94.0,120.0,1.0,64.0
7000,60.0,16.0,90.0,14.0,64.0
7001,64.0,9.0,90.0,2.0,64.0
7002,82.0,171.0,90.0,1.0,64.0
7003,81.0,11.0,120.0,1.0,64.0
7004,65.0,85.0,150.0,4.0,64.0
7005,65.0,13.0,300.0,2.0,64.0
7006,65.0,3.0,150.0,14.0,64.0
7007,82.0,88.0,120.0,1.0,64.0
7008,84.0,17.0,90.0,1.0,64.0
7009,53.0,91.0,90.0,4.0,64.0
7010,53.0,2.0,90.0,14.0,64.0
7011,82.0,119.0,90.0,1.0,64.0
7012,81.0,85.0,120.0,1.0,64.0
7013,57.0,7.0,90.0,14.0,64.0
7014,57.0,25.0,90.0,4.0,64.0
7015,79.0,113.0,90.0,1.0,64.0
7016,60.0,24.0,60.0,14.0,64.0
7017,60.0,103.0,90.0,4.0,64.0
7018,77.0,2.0,90.0,1.0,64.0
7019,76.0,143.0,90.0,1.0,64.0
7020,65.0,40.0,180.0,14.0,64.0
7021,77.0,9.0,180.0,1.0,64.0
7022,65.0,42.0,210.0,4.0,64.0
7023,65.0,52.0,390.0,2.0,64.0
7024,69.0,0.0,270.0,12.0,64.0
7025,53.0,64.0,270.0,12.0,64.0
7026,53.0,30.0,90.0,15.0,64.0
7027,53.0,39.0,120.0,7.0,64.0
7028,52.0,60.0,90.0,7.0,64.0
7029,52.0,14.0,90.0,15.0,64.0
7030,67.0,0.0,240.0,12.0,64.0
7031,52.0,88.0,240.0,12.0,64.0
7032,72.0,1.0,90.0,1.0,64.0
7033,70.0,23.0,90.0,1.0,64.0
7034,69.0,21.0,420.0,2.0,64.0
7035,53.0,59.0,90.0,7.0,64.0
7036,53.0,13.0,90.0,15.0,64.0
7037,53.0,0.0,210.0,12.0,64.0
7038,69.0,86.0,210.0,12.0,64.0
7039,72.0,72.0,150.0,1.0,64.0
7040,55.0,23.0,90.0,7.0,64.0
7041,64.0,106.0,240.0,12.0,64.0
7042,55.0,0.0,240.0,12.0,64.0
7043,55.0,3.0,60.0,15.0,64.0
7044,77.0,92.0,90.0,1.0,64.0
7045,76.0,28.0,90.0,1.0,64.0
7046,57.0,92.0,150.0,7.0,64.0
7047,72.0,62.0,480.0,2.0,64.0
7048,77.0,1.0,150.0,1.0,64.0
7049,65.0,74.0,240.0,12.0,64.0
7050,57.0,0.0,240.0,12.0,64.0
7051,57.0,42.0,90.0,15.0,64.0
7052,58.0,111.0,120.0,7.0,64.0
7053,58.0,24.0,60.0,15.0,64.0
7054,64.0,19.0,240.0,12.0,64.0
7055,58.0,0.0,240.0,12.0,64.0
7056,69.0,2.0,90.0,1.0,64.0
7057,67.0,16.0,90.0,1.0,64.0
7058,57.0,36.0,120.0,7.0,64.0
7059,57.0,42.0,60.0,15.0,64.0
7060,69.0,93.0,150.0,1.0,64.0
7061,65.0,0.0,240.0,12.0,64.0
7062,57.0,76.0,240.0,12.0,64.0
7063,72.0,110.0,120.0,2.0,64.0
7064,55.0,4.0,90.0,7.0,64.0
7065,67.0,117.0,240.0,12.0,64.0
7066,55.0,0.0,240.0,12.0,64.0
7067,55.0,19.0,60.0,15.0,64.0
7068,77.0,3.0,90.0,1.0,64.0
7069,76.0,35.0,90.0,1.0,64.0
7070,77.0,25.0,150.0,1.0,64.0
7071,69.0,40.0,210.0,2.0,64.0
7072,53.0,30.0,180.0,7.0,64.0
7073,53.0,22.0,120.0,15.0,64.0
7074,53.0,61.0,240.0,12.0,64.0
7075,69.0,0.0,240.0,12.0,64.0
7076,52.0,3.0,90.0,7.0,64.0
7077,52.0,25.0,60.0,15.0,64.0
7078,52.0,0.0,90.0,12.0,64.0
7079,67.0,9.0,90.0,12.0,64.0
7080,72.0,86.0,210.0,2.0,64.0
7081,65.0,113.0,90.0,1.0,64.0
7082,67.0,2.0,90.0,1.0,64.0
7083,50.0,0.0,90.0,12.0,64.0
7084,65.0,24.0,90.0,12.0,64.0
7085,50.0,11.0,60.0,15.0,64.0
7086,50.0,6.0,60.0,7.0,64.0
7087,69.0,0.0,90.0,1.0,64.0
7088,77.0,119.0,90.0,2.0,64.0
7089,81.0,87.0,90.0,2.0,64.0
7090,79.0,2.0,90.0,2.0,64.0
7091,55.0,7.0,90.0,7.0,64.0
7092,55.0,10.0,60.0,15.0,64.0
7093,62.0,0.0,90.0,12.0,64.0
7094,55.0,21.0,90.0,12.0,64.0
7095,71.0,87.0,90.0,1.0,64.0
7096,77.0,171.0,90.0,2.0,64.0
7097,48.0,20.0,300.0,7.0,64.0
7098,76.0,115.0,120.0,2.0,64.0
7099,48.0,1.0,240.0,15.0,64.0
7100,72.0,62.0,390.0,1.0,64.0
7101,64.0,0.0,450.0,12.0,64.0
7102,48.0,107.0,450.0,12.0,64.0
7103,77.0,74.0,120.0,2.0,64.0
7104,79.0,46.0,90.0,2.0,64.0
7105,77.0,25.0,90.0,2.0,64.0
7106,76.0,103.0,90.0,2.0,64.0
7107,74.0,99.0,90.0,2.0,64.0
7108,72.0,10.0,90.0,2.0,64.0
7109,48.0,2.0,60.0,15.0,64.0
7110,76.0,109.0,90.0,1.0,64.0
7111,48.0,2.0,90.0,7.0,64.0
7112,48.0,0.0,60.0,12.0,64.0
7113,64.0,6.0,60.0,12.0,64.0
7114,67.0,9.0,60.0,12.0,64.0
7115,70.0,181.0,90.0,2.0,64.0
7116,60.0,76.0,390.0,12.0,64.0
7117,65.0,10.0,360.0,12.0,64.0
7118,53.0,63.0,150.0,7.0,64.0
7119,69.0,13.0,150.0,2.0,64.0
7120,53.0,2.0,150.0,15.0,64.0
7121,53.0,40.0,210.0,12.0,64.0
7122,77.0,7.0,120.0,1.0,64.0
7123,69.0,0.0,360.0,12.0,64.0
7124,67.0,46.0,150.0,2.0,64.0
7125,76.0,4.0,120.0,1.0,64.0
7126,41.0,8.0,60.0,15.0,64.0
7127,41.0,18.0,90.0,7.0,64.0
7128,41.0,10.0,90.0,12.0,64.0
7129,69.0,8.0,90.0,2.0,64.0
7130,77.0,7.0,90.0,1.0,64.0
7131,70.0,5.0,90.0,2.0,64.0
7132,79.0,88.0,90.0,1.0,64.0
7133,45.0,4.0,90.0,7.0,64.0
7134,45.0,27.0,60.0,12.0,64.0
7135,69.0,16.0,90.0,2.0,64.0
7136,45.0,1.0,60.0,15.0,64.0
7137,77.0,93.0,120.0,1.0,64.0
7138,72.0,94.0,90.0,2.0,64.0
7139,81.0,0.0,90.0,1.0,64.0
7140,48.0,1.0,60.0,7.0,64.0
7141,48.0,16.0,60.0,15.0,64.0
7142,76.0,100.0,90.0,1.0,64.0
7143,67.0,7.0,90.0,2.0,64.0
7144,48.0,1.0,60.0,12.0,64.0
7145,64.0,6.0,60.0,12.0,64.0
7146,67.0,0.0,60.0,12.0,64.0
7147,79.0,170.0,90.0,1.0,64.0
7148,70.0,16.0,60.0,2.0,64.0
7149,53.0,36.0,210.0,15.0,64.0
7150,60.0,4.0,480.0,12.0,64.0
7151,53.0,17.0,300.0,7.0,64.0
7152,77.0,78.0,120.0,1.0,64.0
7153,69.0,12.0,300.0,2.0,64.0
7154,65.0,1.0,480.0,12.0,64.0
7155,69.0,104.0,480.0,12.0,64.0
7156,53.0,2.0,480.0,12.0,64.0
7157,79.0,51.0,120.0,1.0,64.0
7158,81.0,125.0,90.0,1.0,64.0
7159,79.0,18.0,90.0,1.0,64.0
7160,77.0,95.0,120.0,1.0,64.0
7161,75.0,101.0,90.0,1.0,64.0
7162,74.0,2.0,90.0,1.0,64.0
7163,53.0,2.0,90.0,15.0,64.0
7164,53.0,13.0,60.0,12.0,64.0
7165,53.0,4.0,60.0,7.0,64.0
7166,69.0,119.0,60.0,2.0,64.0
7167,72.0,152.0,90.0,1.0,64.0
7168,65.0,0.0,510.0,12.0,64.0
7169,58.0,21.0,240.0,12.0,64.0
7170,70.0,2.0,510.0,12.0,64.0
7171,58.0,24.0,120.0,15.0,64.0
7172,74.0,42.0,510.0,12.0,64.0
7173,58.0,61.0,150.0,7.0,64.0
7174,74.0,4.0,120.0,1.0,64.0
7175,70.0,26.0,120.0,2.0,64.0
7176,72.0,12.0,120.0,1.0,64.0
7177,69.0,56.0,120.0,2.0,64.0
7178,46.0,4.0,90.0,15.0,64.0
7179,46.0,13.0,90.0,7.0,64.0
7180,46.0,2.0,60.0,12.0,64.0
7181,74.0,108.0,90.0,1.0,64.0
7182,70.0,2.0,90.0,2.0,64.0
7183,72.0,3.0,90.0,2.0,64.0
7184,75.0,53.0,90.0,1.0,64.0
7185,50.0,12.0,60.0,15.0,64.0
7186,50.0,6.0,60.0,7.0,64.0
7187,70.0,14.0,90.0,2.0,64.0
7188,50.0,1.0,60.0,12.0,64.0
7189,74.0,103.0,90.0,1.0,64.0
7190,74.0,8.0,90.0,2.0,64.0
7191,77.0,84.0,90.0,1.0,64.0
7192,53.0,6.0,60.0,7.0,64.0
7193,72.0,105.0,90.0,1.0,64.0
7194,53.0,8.0,60.0,15.0,64.0
7195,69.0,0.0,60.0,2.0,64.0
7196,53.0,9.0,60.0,12.0,64.0
7197,69.0,3.0,30.0,12.0,64.0
7198,72.0,2.0,60.0,12.0,64.0
7199,75.0,173.0,60.0,1.0,64.0
7200,72.0,5.0,60.0,2.0,64.0
7201,58.0,41.0,300.0,7.0,64.0
7202,58.0,4.0,240.0,15.0,64.0
7203,74.0,2.0,120.0,1.0,64.0
7204,70.0,107.0,120.0,2.0,64.0
7205,65.0,1.0,480.0,12.0,64.0
7206,70.0,84.0,510.0,12.0,64.0
7207,58.0,4.0,300.0,12.0,64.0
7208,74.0,5.0,480.0,12.0,64.0
7209,72.0,43.0,120.0,2.0,64.0
7210,75.0,1.0,120.0,1.0,64.0
7211,58.0,88.0,120.0,6.0,64.0
7212,77.0,1.0,90.0,1.0,64.0
7213,74.0,9.0,90.0,2.0,64.0
7214,70.0,6.0,90.0,4.0,64.0
7215,62.0,16.0,90.0,5.0,64.0
7216,60.0,25.0,120.0,6.0,64.0
7217,69.0,0.0,90.0,4.0,64.0
7218,75.0,6.0,90.0,1.0,64.0
7219,63.0,19.0,90.0,5.0,64.0
7220,72.0,2.0,90.0,2.0,64.0
7221,62.0,4.0,150.0,6.0,64.0
7222,70.0,1.0,150.0,4.0,64.0
7223,65.0,65.0,150.0,5.0,64.0
7224,74.0,3.0,120.0,1.0,64.0
7225,70.0,31.0,120.0,2.0,64.0
7226,72.0,9.0,90.0,1.0,64.0
7227,69.0,88.0,90.0,2.0,64.0
7228,50.0,12.0,60.0,15.0,64.0
7229,67.0,1.0,90.0,2.0,64.0
7230,50.0,12.0,90.0,7.0,64.0
7231,70.0,88.0,90.0,1.0,64.0
7232,50.0,8.0,60.0,12.0,64.0
7233,66.0,25.0,60.0,2.0,64.0
7234,69.0,141.0,90.0,1.0,64.0
7235,55.0,20.0,120.0,15.0,64.0
7236,55.0,44.0,180.0,7.0,64.0
7237,55.0,22.0,240.0,12.0,64.0
7238,67.0,41.0,150.0,2.0,64.0
7239,62.0,8.0,540.0,12.0,64.0
7240,70.0,2.0,510.0,12.0,64.0
7241,67.0,2.0,510.0,12.0,64.0
7242,70.0,9.0,120.0,1.0,64.0
7243,69.0,43.0,150.0,1.0,64.0
7244,66.0,20.0,120.0,2.0,64.0
7245,43.0,7.0,90.0,15.0,64.0
7246,43.0,8.0,90.0,7.0,64.0
7247,70.0,98.0,90.0,1.0,64.0
7248,43.0,3.0,60.0,12.0,64.0
7249,67.0,3.0,90.0,2.0,64.0
7250,72.0,94.0,60.0,1.0,64.0
7251,69.0,2.0,60.0,2.0,64.0
7252,46.0,5.0,60.0,15.0,64.0
7253,46.0,19.0,90.0,7.0,64.0
7254,67.0,101.0,90.0,2.0,64.0
7255,70.0,5.0,90.0,1.0,64.0
7256,46.0,6.0,60.0,12.0,64.0
7257,70.0,90.0,90.0,2.0,64.0
7258,74.0,4.0,60.0,1.0,64.0
7259,50.0,11.0,60.0,7.0,64.0
7260,50.0,1.0,60.0,15.0,64.0
7261,69.0,12.0,90.0,1.0,64.0
7262,66.0,98.0,90.0,2.0,64.0
7263,50.0,1.0,60.0,12.0,64.0
7264,66.0,2.0,30.0,12.0,64.0
7265,69.0,9.0,30.0,12.0,64.0
7266,69.0,5.0,60.0,2.0,64.0
7267,72.0,176.0,60.0,1.0,64.0
7268,55.0,1.0,240.0,15.0,64.0
7269,55.0,22.0,300.0,7.0,64.0
7270,70.0,98.0,120.0,1.0,64.0
7271,55.0,12.0,300.0,12.0,64.0
7272,67.0,10.0,120.0,2.0,64.0
7273,67.0,94.0,480.0,12.0,64.0
7274,70.0,0.0,480.0,12.0,64.0
7275,62.0,0.0,480.0,12.0,64.0
7276,72.0,58.0,120.0,1.0,64.0
7277,69.0,0.0,120.0,2.0,64.0
7278,67.0,6.0,90.0,4.0,64.0
7279,55.0,97.0,90.0,6.0,64.0
7280,74.0,0.0,90.0,1.0,64.0
7281,70.0,8.0,90.0,2.0,64.0
7282,58.0,10.0,90.0,5.0,64.0
7283,57.0,22.0,120.0,6.0,64.0
7284,66.0,5.0,90.0,4.0,64.0
7285,69.0,0.0,90.0,2.0,64.0
7286,60.0,11.0,90.0,5.0,64.0
7287,72.0,0.0,90.0,1.0,64.0
7288,58.0,2.0,150.0,6.0,64.0
7289,62.0,4.0,150.0,5.0,64.0
7290,67.0,48.0,150.0,4.0,64.0
7291,67.0,44.0,90.0,2.0,64.0
7292,70.0,1.0,90.0,1.0,64.0
7293,65.0,107.0,90.0,2.0,64.0
7294,68.0,2.0,90.0,1.0,64.0
7295,46.0,5.0,90.0,15.0,64.0
7296,63.0,8.0,90.0,2.0,64.0
7297,67.0,8.0,90.0,1.0,64.0
7298,46.0,25.0,90.0,7.0,64.0
7299,62.0,4.0,60.0,12.0,64.0
7300,70.0,65.0,120.0,12.0,64.0
7301,46.0,5.0,60.0,12.0,64.0
7302,65.0,6.0,90.0,1.0,64.0
7303,62.0,22.0,60.0,2.0,64.0
7304,68.0,121.0,90.0,12.0,64.0
7305,67.0,22.0,120.0,1.0,64.0
7306,51.0,3.0,180.0,7.0,64.0
7307,51.0,34.0,150.0,15.0,64.0
7308,67.0,22.0,180.0,12.0,64.0
7309,58.0,6.0,180.0,12.0,64.0
7310,51.0,21.0,210.0,12.0,64.0
7311,63.0,25.0,120.0,2.0,64.0
7312,70.0,4.0,90.0,1.0,64.0
7313,62.0,69.0,90.0,2.0,64.0
7314,53.0,13.0,60.0,15.0,64.0
7315,53.0,73.0,120.0,7.0,64.0
7316,60.0,3.0,90.0,2.0,64.0
7317,53.0,3.0,180.0,12.0,64.0
7318,69.0,33.0,90.0,1.0,64.0
7319,60.0,3.0,180.0,12.0,64.0
7320,69.0,118.0,180.0,12.0,64.0
7321,63.0,4.0,90.0,2.0,64.0
7322,72.0,6.0,90.0,1.0,64.0
7323,46.0,52.0,150.0,12.0,64.0
7324,62.0,8.0,120.0,2.0,64.0
7325,46.0,5.0,90.0,15.0,64.0
7326,70.0,1.0,90.0,1.0,64.0
7327,46.0,33.0,120.0,7.0,64.0
7328,62.0,3.0,60.0,12.0,64.0
7329,70.0,3.0,90.0,12.0,64.0
7330,65.0,13.0,90.0,12.0,64.0
7331,74.0,105.0,90.0,1.0,64.0
7332,65.0,11.0,90.0,2.0,64.0
7333,72.0,15.0,90.0,1.0,64.0
7334,63.0,5.0,90.0,2.0,64.0
7335,51.0,8.0,90.0,7.0,64.0
7336,51.0,1.0,90.0,15.0,64.0
7337,51.0,51.0,120.0,12.0,64.0
7338,67.0,0.0,90.0,12.0,64.0
7339,72.0,32.0,90.0,12.0,64.0
7340,70.0,18.0,90.0,1.0,64.0
7341,62.0,132.0,90.0,2.0,64.0
7342,69.0,9.0,90.0,1.0,64.0
7343,53.0,29.0,150.0,15.0,64.0
7344,53.0,39.0,180.0,7.0,64.0
7345,60.0,34.0,90.0,2.0,64.0
7346,60.0,11.0,270.0,12.0,64.0
7347,53.0,43.0,210.0,12.0,64.0
7348,69.0,0.0,90.0,12.0,64.0
7349,62.0,2.0,90.0,2.0,64.0
7350,70.0,17.0,90.0,1.0,64.0
7351,74.0,40.0,120.0,12.0,64.0
7352,63.0,14.0,90.0,2.0,64.0
7353,51.0,78.0,120.0,7.0,64.0
7354,72.0,28.0,90.0,1.0,64.0
7355,51.0,1.0,120.0,15.0,64.0
7356,51.0,117.0,210.0,12.0,64.0
7357,72.0,5.0,90.0,12.0,64.0
7358,65.0,0.0,90.0,2.0,64.0
7359,74.0,8.0,90.0,1.0,64.0
7360,70.0,6.0,60.0,12.0,64.0
7361,50.0,13.0,210.0,12.0,64.0
7362,67.0,5.0,90.0,2.0,64.0
7363,50.0,70.0,120.0,7.0,64.0
7364,50.0,11.0,120.0,15.0,64.0
7365,75.0,10.0,90.0,1.0,64.0
7366,69.0,4.0,90.0,12.0,64.0
7367,69.0,2.0,90.0,2.0,64.0
7368,77.0,11.0,90.0,1.0,64.0
7369,67.0,105.0,90.0,12.0,64.0
7370,48.0,4.0,120.0,12.0,64.0
7371,70.0,5.0,90.0,2.0,64.0
7372,48.0,3.0,120.0,7.0,64.0
7373,48.0,2.0,90.0,15.0,64.0
7374,70.0,67.0,120.0,14.0,64.0
7375,70.0,6.0,90.0,4.0,64.0
7376,65.0,20.0,90.0,12.0,64.0
7377,75.0,5.0,90.0,1.0,64.0
7378,72.0,11.0,90.0,2.0,64.0
7379,69.0,12.0,90.0,4.0,64.0
7380,63.0,25.0,90.0,12.0,64.0
7381,77.0,1.0,90.0,1.0,64.0
7382,69.0,80.0,120.0,14.0,64.0
7383,70.0,8.0,150.0,4.0,64.0
7384,74.0,57.0,90.0,1.0,64.0
7385,46.0,39.0,180.0,7.0,64.0
7386,46.0,12.0,180.0,15.0,64.0
7387,34.0,9.0,150.0,11.0,64.0
7388,65.0,11.0,210.0,2.0,64.0
7389,58.0,24.0,420.0,6.0,64.0
7390,58.0,7.0,420.0,3.0,64.0
7391,70.0,8.0,150.0,14.0,64.0
7392,46.0,12.0,210.0,12.0,64.0
7393,62.0,20.0,480.0,12.0,64.0
7394,65.0,2.0,450.0,12.0,64.0
7395,70.0,26.0,450.0,12.0,64.0
7396,82.0,56.0,90.0,1.0,64.0
7397,58.0,9.0,60.0,15.0,64.0
7398,58.0,19.0,60.0,7.0,64.0
7399,46.0,2.0,60.0,11.0,64.0
7400,65.0,3.0,90.0,14.0,64.0
7401,65.0,8.0,90.0,4.0,64.0
7402,58.0,11.0,60.0,12.0,64.0
7403,81.0,70.0,90.0,1.0,64.0
7404,63.0,1.0,90.0,4.0,64.0
7405,79.0,24.0,90.0,1.0,64.0
7406,63.0,18.0,120.0,14.0,64.0
7407,77.0,28.0,120.0,1.0,64.0
7408,46.0,24.0,90.0,11.0,64.0
7409,65.0,73.0,150.0,4.0,64.0
7410,58.0,3.0,60.0,7.0,64.0
7411,62.0,25.0,420.0,6.0,64.0
7412,58.0,5.0,60.0,15.0,64.0
7413,62.0,14.0,450.0,3.0,64.0
7414,65.0,1.0,150.0,14.0,64.0
7415,58.0,14.0,90.0,12.0,64.0
7416,75.0,81.0,90.0,1.0,64.0
7417,34.0,6.0,90.0,11.0,64.0
7418,46.0,23.0,90.0,7.0,64.0
7419,46.0,3.0,60.0,15.0,64.0
7420,74.0,2.0,90.0,1.0,64.0
7421,46.0,1.0,60.0,12.0,64.0
7422,70.0,54.0,90.0,14.0,64.0
7423,65.0,6.0,30.0,12.0,64.0
7424,62.0,5.0,60.0,12.0,64.0
7425,70.0,1.0,60.0,12.0,64.0
7426,70.0,11.0,90.0,4.0,64.0
7427,70.0,0.0,90.0,2.0,64.0
7428,72.0,4.0,90.0,1.0,64.0
7429,69.0,113.0,120.0,14.0,64.0
7430,69.0,9.0,90.0,4.0,64.0
7431,72.0,9.0,60.0,2.0,64.0
7432,70.0,10.0,150.0,4.0,64.0
7433,65.0,38.0,420.0,6.0,64.0
7434,46.0,5.0,150.0,7.0,64.0
7435,65.0,23.0,480.0,3.0,64.0
7436,46.0,49.0,180.0,15.0,64.0
7437,70.0,4.0,150.0,14.0,64.0
7438,70.0,31.0,120.0,1.0,64.0
7439,34.0,20.0,150.0,11.0,64.0
7440,74.0,9.0,90.0,2.0,64.0
7441,46.0,65.0,240.0,12.0,64.0
7442,65.0,4.0,510.0,12.0,64.0
7443,62.0,33.0,510.0,12.0,64.0
7444,70.0,3.0,510.0,12.0,64.0
7445,75.0,0.0,120.0,2.0,64.0
7446,67.0,11.0,90.0,1.0,64.0
7447,58.0,4.0,60.0,7.0,64.0
7448,58.0,2.0,60.0,15.0,64.0
7449,77.0,1.0,90.0,2.0,64.0
7450,65.0,43.0,120.0,1.0,64.0
7451,46.0,13.0,60.0,11.0,64.0
7452,62.0,11.0,90.0,14.0,64.0
7453,58.0,17.0,60.0,12.0,64.0
7454,62.0,1.0,90.0,4.0,64.0
7455,60.0,16.0,120.0,14.0,64.0
7456,63.0,15.0,90.0,1.0,64.0
7457,79.0,20.0,60.0,2.0,64.0
7458,60.0,4.0,90.0,4.0,64.0
7459,62.0,1.0,120.0,4.0,64.0
7460,46.0,20.0,90.0,11.0,64.0
7461,58.0,2.0,90.0,7.0,64.0
7462,62.0,82.0,120.0,14.0,64.0
7463,58.0,1.0,60.0,15.0,64.0
7464,62.0,22.0,90.0,1.0,64.0
7465,77.0,2.0,90.0,2.0,64.0
7466,58.0,0.0,60.0,12.0,64.0
7467,60.0,5.0,90.0,1.0,64.0
7468,75.0,100.0,60.0,2.0,64.0
7469,34.0,6.0,90.0,11.0,64.0
7470,46.0,7.0,90.0,15.0,64.0
7471,46.0,5.0,90.0,7.0,64.0
7472,58.0,3.0,90.0,1.0,64.0
7473,65.0,11.0,120.0,6.0,64.0
7474,74.0,11.0,90.0,2.0,64.0
7475,70.0,6.0,120.0,14.0,64.0
7476,46.0,0.0,60.0,12.0,64.0
7477,65.0,60.0,120.0,3.0,64.0
7478,70.0,2.0,60.0,12.0,64.0
7479,65.0,0.0,60.0,12.0,64.0
7480,62.0,0.0,60.0,12.0,64.0
7481,70.0,9.0,90.0,4.0,64.0
7482,72.0,26.0,60.0,2.0,64.0
7483,69.0,108.0,120.0,14.0,64.0
7484,60.0,1.0,90.0,1.0,64.0
7485,69.0,7.0,90.0,4.0,64.0
7486,34.0,28.0,90.0,11.0,64.0
7487,46.0,1.0,150.0,7.0,64.0
7488,70.0,14.0,180.0,14.0,64.0
7489,70.0,19.0,150.0,4.0,64.0
7490,46.0,9.0,150.0,15.0,64.0
7491,70.0,6.0,180.0,2.0,64.0
7492,62.0,17.0,180.0,6.0,64.0
7493,62.0,19.0,120.0,1.0,64.0
7494,62.0,2.0,180.0,3.0,64.0
7495,46.0,3.0,240.0,12.0,64.0
7496,70.0,40.0,180.0,12.0,64.0
7497,62.0,30.0,240.0,12.0,64.0
7498,65.0,4.0,180.0,12.0,64.0
7499,63.0,15.0,120.0,1.0,64.0
7500,46.0,44.0,60.0,11.0,64.0
7501,74.0,33.0,180.0,2.0,64.0
7502,58.0,0.0,90.0,14.0,64.0
7503,65.0,4.0,180.0,6.0,64.0
7504,58.0,8.0,90.0,15.0,64.0
7505,65.0,15.0,150.0,3.0,64.0
7506,58.0,1.0,90.0,7.0,64.0
7507,58.0,4.0,90.0,4.0,64.0
7508,62.0,36.0,90.0,1.0,64.0
7509,70.0,3.0,90.0,12.0,64.0
7510,74.0,0.0,90.0,12.0,64.0
7511,58.0,0.0,90.0,12.0,64.0
7512,65.0,0.0,90.0,12.0,64.0
7513,45.0,7.0,90.0,11.0,64.0
7514,60.0,14.0,120.0,14.0,64.0
7515,57.0,68.0,120.0,15.0,64.0
7516,57.0,1.0,90.0,7.0,64.0
7517,60.0,2.0,90.0,1.0,64.0
7518,60.0,8.0,90.0,4.0,64.0
7519,57.0,3.0,90.0,12.0,64.0
7520,43.0,9.0,90.0,11.0,64.0
7521,62.0,21.0,120.0,4.0,64.0
7522,62.0,6.0,150.0,14.0,64.0
7523,55.0,5.0,90.0,15.0,64.0
7524,79.0,1.0,90.0,2.0,64.0
7525,70.0,6.0,90.0,6.0,64.0
7526,58.0,66.0,150.0,1.0,64.0
7527,55.0,2.0,90.0,12.0,64.0
7528,70.0,13.0,90.0,3.0,64.0
7529,55.0,2.0,90.0,7.0,64.0
7530,62.0,11.0,60.0,12.0,64.0
7531,65.0,4.0,90.0,12.0,64.0
7532,70.0,1.0,90.0,12.0,64.0
7533,74.0,82.0,120.0,6.0,64.0
7534,82.0,5.0,90.0,2.0,64.0
7535,74.0,3.0,90.0,3.0,64.0
7536,48.0,8.0,90.0,11.0,64.0
7537,64.0,91.0,120.0,14.0,64.0
7538,72.0,1.0,90.0,6.0,64.0
7539,60.0,1.0,90.0,7.0,64.0
7540,64.0,4.0,120.0,4.0,64.0
7541,60.0,1.0,90.0,15.0,64.0
7542,72.0,13.0,90.0,3.0,64.0
7543,60.0,8.0,60.0,12.0,64.0
7544,64.0,12.0,90.0,12.0,64.0
7545,82.0,3.0,120.0,1.0,64.0
7546,81.0,4.0,90.0,2.0,64.0
7547,67.0,1.0,60.0,12.0,64.0
7548,70.0,0.0,60.0,12.0,64.0
7549,70.0,18.0,90.0,6.0,64.0
7550,70.0,76.0,120.0,3.0,64.0
7551,79.0,6.0,90.0,2.0,64.0
7552,53.0,3.0,150.0,11.0,64.0
7553,65.0,11.0,180.0,15.0,64.0
7554,65.0,3.0,120.0,7.0,64.0
7555,81.0,1.0,120.0,1.0,64.0
7556,77.0,52.0,120.0,3.0,64.0
7557,65.0,46.0,60.0,5.0,64.0
7558,77.0,5.0,120.0,2.0,64.0
7559,72.0,63.0,270.0,12.0,64.0
7560,69.0,3.0,120.0,6.0,64.0
7561,65.0,5.0,120.0,4.0,64.0
7562,65.0,3.0,240.0,12.0,64.0
7563,69.0,4.0,240.0,12.0,64.0
7564,72.0,30.0,120.0,5.0,64.0
7565,65.0,3.0,90.0,6.0,64.0
7566,69.0,1.0,90.0,3.0,64.0
7567,75.0,10.0,90.0,4.0,64.0
7568,77.0,11.0,90.0,1.0,64.0
7569,72.0,7.0,90.0,2.0,64.0
7570,51.0,0.0,120.0,11.0,64.0
7571,69.0,8.0,90.0,5.0,64.0
7572,60.0,3.0,120.0,6.0,64.0
7573,63.0,2.0,90.0,7.0,64.0
7574,65.0,1.0,120.0,4.0,64.0
7575,72.0,1.0,90.0,3.0,64.0
7576,63.0,43.0,150.0,15.0,64.0
7577,77.0,5.0,90.0,2.0,64.0
7578,81.0,37.0,90.0,1.0,64.0
7579,63.0,94.0,210.0,12.0,64.0
7580,72.0,1.0,90.0,5.0,64.0
7581,65.0,10.0,90.0,6.0,64.0
7582,75.0,1.0,60.0,4.0,64.0
7583,69.0,8.0,90.0,3.0,64.0
7584,77.0,13.0,90.0,1.0,64.0
7585,72.0,3.0,90.0,2.0,64.0
7586,50.0,3.0,120.0,11.0,64.0
7587,65.0,3.0,90.0,5.0,64.0
7588,60.0,10.0,120.0,6.0,64.0
7589,65.0,34.0,120.0,4.0,64.0
7590,62.0,40.0,150.0,15.0,64.0
7591,62.0,0.0,120.0,7.0,64.0
7592,81.0,1.0,90.0,1.0,64.0
7593,72.0,13.0,90.0,3.0,64.0
7594,77.0,3.0,90.0,2.0,64.0
7595,62.0,98.0,210.0,12.0,64.0
7596,65.0,4.0,90.0,6.0,64.0
7597,72.0,5.0,90.0,5.0,64.0
7598,75.0,6.0,90.0,4.0,64.0
7599,77.0,14.0,90.0,1.0,64.0
7600,69.0,2.0,90.0,3.0,64.0
7601,72.0,5.0,60.0,2.0,64.0
7602,65.0,22.0,120.0,4.0,64.0
7603,69.0,3.0,90.0,5.0,64.0
7604,60.0,2.0,120.0,6.0,64.0
7605,48.0,1.0,90.0,11.0,64.0
7606,60.0,90.0,240.0,12.0,64.0
7607,60.0,5.0,90.0,7.0,64.0
7608,60.0,56.0,150.0,15.0,64.0
7609,81.0,9.0,120.0,1.0,64.0
7610,72.0,2.0,90.0,3.0,64.0
7611,77.0,13.0,90.0,2.0,64.0
7612,72.0,0.0,90.0,5.0,64.0
7613,75.0,2.0,90.0,4.0,64.0
7614,65.0,9.0,90.0,6.0,64.0
7615,77.0,32.0,90.0,1.0,64.0
7616,69.0,1.0,90.0,3.0,64.0
7617,72.0,2.0,60.0,2.0,64.0
7618,46.0,10.0,150.0,11.0,64.0
7619,58.0,99.0,240.0,12.0,64.0
7620,62.0,12.0,90.0,5.0,64.0
7621,58.0,14.0,150.0,15.0,64.0
7622,65.0,0.0,120.0,4.0,64.0
7623,58.0,5.0,90.0,6.0,64.0
7624,80.0,7.0,120.0,1.0,64.0
7625,58.0,29.0,150.0,7.0,64.0
7626,74.0,0.0,450.0,12.0,64.0
7627,68.0,1.0,450.0,12.0,64.0
7628,74.0,2.0,90.0,3.0,64.0
7629,70.0,2.0,450.0,12.0,64.0
7630,65.0,29.0,450.0,12.0,64.0
7631,74.0,14.0,120.0,2.0,64.0
7632,65.0,7.0,90.0,6.0,64.0
7633,70.0,6.0,60.0,5.0,64.0
7634,70.0,1.0,90.0,3.0,64.0
7635,74.0,3.0,90.0,4.0,64.0
7636,77.0,26.0,90.0,1.0,64.0
7637,70.0,2.0,60.0,2.0,64.0
7638,62.0,5.0,90.0,5.0,64.0
7639,58.0,15.0,120.0,6.0,64.0
7640,65.0,3.0,120.0,4.0,64.0
7641,56.0,71.0,270.0,12.0,64.0
7642,44.0,4.0,90.0,11.0,64.0
7643,80.0,12.0,90.0,1.0,64.0
7644,56.0,47.0,120.0,15.0,64.0
7645,74.0,1.0,90.0,3.0,64.0
7646,56.0,3.0,90.0,7.0,64.0
7647,74.0,0.0,90.0,2.0,64.0
7648,65.0,12.0,60.0,6.0,64.0
7649,70.0,2.0,90.0,5.0,64.0
7650,74.0,11.0,60.0,4.0,64.0
7651,77.0,12.0,90.0,1.0,64.0
7652,70.0,2.0,90.0,3.0,64.0
7653,70.0,7.0,90.0,2.0,64.0
7654,43.0,3.0,90.0,11.0,64.0
7655,58.0,7.0,120.0,6.0,64.0
7656,62.0,8.0,90.0,5.0,64.0
7657,65.0,64.0,120.0,4.0,64.0
7658,80.0,5.0,90.0,1.0,64.0
7659,55.0,8.0,120.0,15.0,64.0
7660,55.0,1.0,90.0,7.0,64.0
7661,74.0,2.0,120.0,3.0,64.0
7662,55.0,98.0,240.0,12.0,64.0
7663,74.0,1.0,90.0,2.0,64.0
7664,65.0,5.0,90.0,6.0,64.0
7665,70.0,2.0,60.0,5.0,64.0
7666,74.0,6.0,90.0,4.0,64.0
7667,77.0,3.0,90.0,1.0,64.0
7668,70.0,19.0,90.0,3.0,64.0
7669,70.0,12.0,90.0,2.0,64.0
7670,58.0,9.0,120.0,6.0,64.0
7671,62.0,3.0,90.0,5.0,64.0
7672,65.0,7.0,120.0,4.0,64.0
7673,41.0,2.0,90.0,11.0,64.0
7674,53.0,3.0,120.0,15.0,64.0
7675,53.0,16.0,180.0,12.0,64.0
7676,80.0,1.0,90.0,1.0,64.0
7677,53.0,7.0,90.0,7.0,64.0
7678,74.0,51.0,120.0,3.0,64.0
7679,74.0,3.0,120.0,2.0,64.0
7680,70.0,8.0,90.0,5.0,64.0
7681,65.0,4.0,60.0,6.0,64.0
7682,74.0,113.0,90.0,4.0,64.0
7683,70.0,3.0,90.0,3.0,64.0
7684,77.0,1.0,90.0,1.0,64.0
7685,70.0,1.0,90.0,2.0,64.0
7686,63.0,21.0,90.0,5.0,64.0
7687,58.0,4.0,120.0,6.0,64.0
7688,67.0,10.0,120.0,4.0,64.0
7689,63.0,13.0,180.0,15.0,64.0
7690,63.0,19.0,150.0,7.0,64.0
7691,63.0,78.0,240.0,12.0,64.0
7692,51.0,20.0,120.0,11.0,64.0
7693,75.0,9.0,90.0,2.0,64.0
7694,73.0,4.0,510.0,12.0,64.0
7695,70.0,3.0,540.0,12.0,64.0
7696,79.0,11.0,120.0,1.0,64.0
7697,75.0,25.0,540.0,12.0,64.0
7698,70.0,2.0,120.0,3.0,64.0
7699,67.0,0.0,510.0,12.0,64.0
7700,70.0,4.0,90.0,5.0,64.0
7701,67.0,3.0,60.0,6.0,64.0
7702,73.0,34.0,90.0,4.0,64.0
7703,70.0,3.0,90.0,2.0,64.0
7704,67.0,0.0,90.0,3.0,64.0
7705,75.0,7.0,60.0,1.0,64.0
7706,58.0,13.0,90.0,6.0,64.0
7707,67.0,61.0,120.0,4.0,64.0
7708,63.0,1.0,90.0,5.0,64.0
7709,61.0,7.0,120.0,15.0,64.0
7710,75.0,3.0,120.0,2.0,64.0
7711,61.0,6.0,90.0,7.0,64.0
7712,70.0,2.0,120.0,3.0,64.0
7713,79.0,6.0,90.0,1.0,64.0
7714,61.0,52.0,240.0,12.0,64.0
7715,49.0,5.0,90.0,11.0,64.0
7716,70.0,3.0,90.0,5.0,64.0
7717,67.0,16.0,60.0,6.0,64.0
7718,73.0,0.0,90.0,4.0,64.0
7719,67.0,3.0,90.0,3.0,64.0
7720,70.0,30.0,90.0,2.0,64.0
7721,75.0,0.0,90.0,1.0,64.0
7722,48.0,0.0,90.0,11.0,64.0
7723,63.0,21.0,90.0,5.0,64.0
7724,58.0,3.0,90.0,6.0,64.0
7725,60.0,1.0,90.0,7.0,64.0
7726,67.0,5.0,120.0,4.0,64.0
7727,79.0,8.0,90.0,1.0,64.0
7728,60.0,83.0,240.0,12.0,64.0
7729,60.0,63.0,120.0,15.0,64.0
7730,70.0,4.0,120.0,3.0,64.0
7731,75.0,0.0,120.0,2.0,64.0
7732,70.0,1.0,90.0,5.0,64.0
7733,67.0,7.0,60.0,6.0,64.0
7734,73.0,7.0,90.0,4.0,64.0
7735,75.0,0.0,90.0,1.0,64.0
7736,67.0,25.0,90.0,3.0,64.0
7737,70.0,8.0,90.0,2.0,64.0
7738,58.0,87.0,240.0,12.0,64.0
7739,79.0,6.0,90.0,1.0,64.0
7740,67.0,4.0,120.0,4.0,64.0
7741,63.0,10.0,90.0,5.0,64.0
7742,58.0,7.0,90.0,6.0,64.0
7743,58.0,57.0,120.0,15.0,64.0
7744,58.0,8.0,90.0,7.0,64.0
7745,70.0,1.0,120.0,3.0,64.0
7746,75.0,10.0,120.0,2.0,64.0
7747,46.0,2.0,90.0,11.0,64.0
7748,70.0,11.0,60.0,5.0,64.0
7749,67.0,2.0,90.0,6.0,64.0
7750,67.0,0.0,90.0,3.0,64.0
7751,75.0,8.0,60.0,1.0,64.0
7752,73.0,2.0,90.0,4.0,64.0
7753,70.0,39.0,90.0,2.0,64.0
7754,64.0,14.0,90.0,5.0,64.0
7755,57.0,97.0,240.0,12.0,64.0
7756,57.0,9.0,180.0,15.0,64.0
7757,73.0,0.0,150.0,3.0,64.0
7758,79.0,5.0,120.0,1.0,64.0
7759,57.0,11.0,120.0,7.0,64.0
7760,61.0,10.0,90.0,6.0,64.0
7761,69.0,6.0,120.0,4.0,64.0
7762,45.0,30.0,120.0,11.0,64.0
7763,76.0,0.0,120.0,2.0,64.0
7764,69.0,2.0,480.0,12.0,64.0
7765,73.0,50.0,510.0,12.0,64.0
7766,64.0,11.0,480.0,12.0,64.0
7767,67.0,3.0,480.0,12.0,64.0
7768,64.0,21.0,60.0,6.0,64.0
7769,69.0,3.0,60.0,5.0,64.0
7770,69.0,5.0,90.0,3.0,64.0
7771,73.0,21.0,90.0,4.0,64.0
7772,73.0,2.0,90.0,2.0,64.0
7773,76.0,1.0,90.0,1.0,64.0
7774,64.0,11.0,90.0,5.0,64.0
7775,43.0,3.0,90.0,11.0,64.0
7776,55.0,14.0,120.0,15.0,64.0
7777,61.0,5.0,120.0,6.0,64.0
7778,69.0,1.0,120.0,4.0,64.0
7779,55.0,3.0,90.0,7.0,64.0
7780,55.0,4.0,240.0,12.0,64.0
7781,73.0,46.0,120.0,3.0,64.0
7782,79.0,10.0,90.0,1.0,64.0
7783,76.0,0.0,90.0,2.0,64.0
7784,69.0,7.0,60.0,5.0,64.0
7785,64.0,5.0,60.0,6.0,64.0
7786,73.0,10.0,90.0,2.0,64.0
7787,76.0,2.0,90.0,1.0,64.0
7788,73.0,5.0,60.0,4.0,64.0
7789,69.0,39.0,90.0,3.0,64.0
7790,41.0,11.0,90.0,11.0,64.0
7791,64.0,5.0,90.0,5.0,64.0
7792,69.0,6.0,120.0,4.0,64.0
7793,61.0,1.0,120.0,6.0,64.0
7794,79.0,18.0,90.0,1.0,64.0
7795,53.0,6.0,120.0,15.0,64.0
7796,53.0,1.0,120.0,7.0,64.0
7797,76.0,1.0,120.0,2.0,64.0
7798,73.0,51.0,120.0,3.0,64.0
7799,53.0,101.0,210.0,12.0,64.0
7800,64.0,15.0,60.0,6.0,64.0
7801,69.0,4.0,60.0,5.0,64.0
7802,73.0,3.0,90.0,4.0,64.0
7803,76.0,17.0,90.0,1.0,64.0
7804,73.0,4.0,90.0,2.0,64.0
7805,69.0,2.0,90.0,3.0,64.0
7806,69.0,9.0,120.0,4.0,64.0
7807,64.0,7.0,90.0,5.0,64.0
7808,52.0,2.0,120.0,15.0,64.0
7809,61.0,0.0,120.0,6.0,64.0
7810,52.0,1.0,90.0,7.0,64.0
7811,52.0,41.0,150.0,12.0,64.0
7812,79.0,8.0,90.0,1.0,64.0
7813,40.0,7.0,90.0,11.0,64.0
7814,76.0,3.0,120.0,2.0,64.0
7815,73.0,24.0,120.0,3.0,64.0
7816,64.0,6.0,60.0,6.0,64.0
7817,73.0,7.0,90.0,4.0,64.0
7818,69.0,0.0,60.0,5.0,64.0
7819,73.0,1.0,90.0,2.0,64.0
7820,69.0,120.0,90.0,3.0,64.0
7821,76.0,1.0,90.0,1.0,64.0
7822,69.0,11.0,120.0,4.0,64.0
7823,62.0,16.0,90.0,6.0,64.0
7824,66.0,8.0,90.0,5.0,64.0
7825,62.0,14.0,180.0,15.0,64.0
7826,62.0,71.0,240.0,12.0,64.0
7827,74.0,11.0,120.0,2.0,64.0
7828,78.0,6.0,90.0,1.0,64.0
7829,62.0,0.0,120.0,7.0,64.0
7830,69.0,1.0,120.0,3.0,64.0
7831,69.0,1.0,510.0,12.0,64.0
7832,50.0,42.0,120.0,11.0,64.0
7833,66.0,3.0,510.0,12.0,64.0
7834,72.0,55.0,510.0,12.0,64.0
7835,66.0,2.0,60.0,6.0,64.0
7836,69.0,6.0,90.0,5.0,64.0
7837,72.0,9.0,90.0,4.0,64.0
7838,69.0,8.0,90.0,2.0,64.0
7839,74.0,21.0,90.0,1.0,64.0
7840,66.0,3.0,60.0,3.0,64.0
7841,60.0,47.0,120.0,15.0,64.0
7842,62.0,1.0,90.0,6.0,64.0
7843,66.0,22.0,60.0,5.0,64.0
7844,69.0,4.0,120.0,4.0,64.0
7845,74.0,5.0,90.0,2.0,64.0
7846,48.0,4.0,90.0,11.0,64.0
7847,78.0,4.0,90.0,1.0,64.0
7848,60.0,33.0,240.0,12.0,64.0
7849,69.0,18.0,90.0,3.0,64.0
7850,60.0,0.0,90.0,7.0,64.0
7851,66.0,23.0,60.0,6.0,64.0
7852,69.0,8.0,60.0,5.0,64.0
7853,66.0,1.0,90.0,3.0,64.0
7854,69.0,10.0,90.0,2.0,64.0
7855,72.0,5.0,90.0,4.0,64.0
7856,74.0,10.0,90.0,1.0,64.0
7857,58.0,5.0,120.0,15.0,64.0
7858,66.0,4.0,90.0,5.0,64.0
7859,62.0,2.0,90.0,6.0,64.0
7860,46.0,6.0,90.0,11.0,64.0
7861,58.0,0.0,240.0,12.0,64.0
7862,78.0,1.0,90.0,1.0,64.0
7863,69.0,2.0,120.0,4.0,64.0
7864,69.0,13.0,90.0,3.0,64.0
7865,74.0,9.0,90.0,2.0,64.0
7866,58.0,60.0,120.0,7.0,64.0
7867,66.0,1.0,60.0,6.0,64.0
7868,69.0,8.0,60.0,5.0,64.0
7869,72.0,5.0,60.0,4.0,64.0
7870,66.0,23.0,90.0,3.0,64.0
7871,69.0,90.0,120.0,2.0,64.0
7872,74.0,12.0,90.0,1.0,64.0
7873,57.0,3.0,120.0,15.0,64.0
7874,57.0,106.0,240.0,12.0,64.0
7875,69.0,85.0,120.0,4.0,64.0
7876,66.0,0.0,90.0,5.0,64.0
7877,62.0,4.0,90.0,6.0,64.0
7878,78.0,2.0,90.0,1.0,64.0
7879,45.0,5.0,90.0,11.0,64.0
7880,69.0,2.0,90.0,3.0,64.0
7881,74.0,3.0,90.0,2.0,64.0
7882,57.0,5.0,90.0,7.0,64.0
7883,72.0,9.0,90.0,4.0,64.0
7884,69.0,13.0,90.0,2.0,64.0
7885,66.0,1.0,60.0,6.0,64.0
7886,66.0,7.0,60.0,3.0,64.0
7887,69.0,0.0,60.0,5.0,64.0
7888,74.0,0.0,90.0,1.0,64.0
7889,55.0,29.0,150.0,15.0,64.0
7890,67.0,19.0,120.0,4.0,64.0
7891,55.0,89.0,240.0,12.0,64.0
7892,71.0,21.0,120.0,3.0,64.0
7893,74.0,1.0,120.0,2.0,64.0
7894,55.0,5.0,150.0,7.0,64.0
7895,43.0,1.0,150.0,11.0,64.0
7896,62.0,2.0,90.0,5.0,64.0
7897,77.0,15.0,90.0,1.0,64.0
7898,71.0,0.0,600.0,12.0,64.0
7899,67.0,41.0,600.0,12.0,64.0
7900,65.0,6.0,600.0,12.0,64.0
7901,62.0,2.0,600.0,12.0,64.0
7902,59.0,3.0,90.0,6.0,64.0
7903,71.0,5.0,90.0,2.0,64.0
7904,71.0,17.0,90.0,4.0,64.0
7905,67.0,18.0,60.0,5.0,64.0
7906,67.0,1.0,60.0,3.0,64.0
7907,62.0,4.0,60.0,6.0,64.0
7908,74.0,4.0,90.0,1.0,64.0
7909,53.0,8.0,120.0,15.0,64.0
7910,62.0,9.0,90.0,5.0,64.0
7911,53.0,104.0,240.0,12.0,64.0
7912,74.0,3.0,90.0,2.0,64.0
7913,71.0,11.0,120.0,3.0,64.0
7914,67.0,52.0,120.0,4.0,64.0
7915,53.0,3.0,90.0,7.0,64.0
7916,59.0,2.0,90.0,6.0,64.0
7917,77.0,3.0,90.0,1.0,64.0
7918,41.0,1.0,90.0,11.0,64.0
7919,67.0,15.0,60.0,5.0,64.0
7920,62.0,9.0,60.0,6.0,64.0
7921,71.0,12.0,90.0,4.0,64.0
7922,71.0,2.0,90.0,2.0,64.0
7923,67.0,9.0,90.0,3.0,64.0
7924,74.0,5.0,90.0,1.0,64.0
7925,51.0,84.0,240.0,12.0,64.0
7926,51.0,11.0,120.0,15.0,64.0
7927,39.0,6.0,90.0,11.0,64.0
7928,62.0,1.0,90.0,5.0,64.0
7929,67.0,8.0,120.0,4.0,64.0
7930,74.0,2.0,90.0,2.0,64.0
7931,59.0,0.0,90.0,6.0,64.0
7932,51.0,12.0,120.0,7.0,64.0
7933,71.0,2.0,120.0,3.0,64.0
7934,77.0,0.0,90.0,1.0,64.0
7935,67.0,2.0,60.0,5.0,64.0
7936,71.0,2.0,90.0,4.0,64.0
7937,62.0,13.0,60.0,6.0,64.0
7938,71.0,6.0,90.0,2.0,64.0
7939,67.0,32.0,90.0,3.0,64.0
7940,74.0,1.0,90.0,1.0,64.0
7941,62.0,6.0,90.0,5.0,64.0
7942,50.0,23.0,90.0,15.0,64.0
7943,67.0,1.0,120.0,4.0,64.0
7944,50.0,82.0,240.0,12.0,64.0
7945,50.0,4.0,90.0,7.0,64.0
7946,74.0,2.0,90.0,2.0,64.0
7947,59.0,1.0,90.0,6.0,64.0
7948,77.0,3.0,90.0,1.0,64.0
7949,38.0,1.0,90.0,11.0,64.0
7950,71.0,68.0,120.0,3.0,64.0
7951,67.0,2.0,90.0,5.0,64.0
7952,71.0,16.0,120.0,4.0,64.0
7953,71.0,3.0,90.0,2.0,64.0
7954,67.0,6.0,90.0,3.0,64.0
7955,62.0,1.0,90.0,6.0,64.0
7956,74.0,29.0,90.0,1.0,64.0
7957,36.0,4.0,120.0,11.0,64.0
7958,48.0,14.0,180.0,15.0,64.0
7959,63.0,4.0,90.0,5.0,64.0
7960,48.0,24.0,150.0,7.0,64.0
7961,67.0,11.0,120.0,4.0,64.0
7962,60.0,2.0,120.0,6.0,64.0
7963,72.0,5.0,90.0,2.0,64.0
7964,75.0,6.0,90.0,1.0,64.0
7965,67.0,20.0,120.0,3.0,64.0
7966,48.0,104.0,210.0,12.0,64.0
7967,67.0,2.0,480.0,12.0,64.0
7968,63.0,65.0,480.0,12.0,64.0
7969,72.0,1.0,480.0,12.0,64.0
7970,63.0,4.0,90.0,6.0,64.0
7971,72.0,1.0,90.0,4.0,64.0
7972,67.0,13.0,60.0,5.0,64.0
7973,63.0,11.0,90.0,3.0,64.0
7974,67.0,2.0,90.0,2.0,64.0
7975,72.0,16.0,90.0,1.0,64.0
7976,46.0,5.0,270.0,12.0,64.0
7977,63.0,1.0,90.0,5.0,64.0
7978,67.0,75.0,120.0,4.0,64.0
7979,46.0,1.0,90.0,7.0,64.0
7980,60.0,1.0,90.0,6.0,64.0
7981,75.0,0.0,90.0,1.0,64.0
7982,67.0,4.0,120.0,3.0,64.0
7983,46.0,12.0,90.0,15.0,64.0
7984,72.0,2.0,90.0,2.0,64.0
7985,34.0,0.0,90.0,11.0,64.0
7986,67.0,4.0,60.0,5.0,64.0
7987,63.0,2.0,60.0,6.0,64.0
7988,63.0,13.0,90.0,3.0,64.0
7989,72.0,2.0,60.0,4.0,64.0
7990,72.0,3.0,90.0,1.0,64.0
7991,67.0,41.0,90.0,2.0,64.0
7992,32.0,7.0,90.0,11.0,64.0
7993,75.0,2.0,90.0,1.0,64.0
7994,63.0,0.0,90.0,5.0,64.0
7995,44.0,1.0,90.0,7.0,64.0
7996,60.0,3.0,90.0,6.0,64.0
7997,67.0,69.0,120.0,4.0,64.0
7998,67.0,1.0,120.0,3.0,64.0
7999,44.0,5.0,90.0,15.0,64.0
8000,44.0,54.0,270.0,12.0,64.0
8001,72.0,8.0,90.0,2.0,64.0
8002,63.0,1.0,90.0,6.0,64.0
8003,63.0,4.0,60.0,3.0,64.0
8004,72.0,51.0,90.0,1.0,64.0
8005,72.0,12.0,90.0,4.0,64.0
8006,67.0,11.0,60.0,5.0,64.0
8007,67.0,3.0,60.0,2.0,64.0
8008,31.0,0.0,90.0,11.0,64.0
8009,43.0,6.0,90.0,7.0,64.0
8010,67.0,5.0,90.0,3.0,64.0
8011,67.0,62.0,120.0,4.0,64.0
8012,63.0,2.0,90.0,5.0,64.0
8013,60.0,12.0,90.0,6.0,64.0
8014,75.0,2.0,90.0,1.0,64.0
8015,72.0,5.0,90.0,2.0,64.0
8016,43.0,4.0,180.0,12.0,64.0
8017,43.0,8.0,90.0,15.0,64.0
8018,63.0,116.0,90.0,3.0,64.0
8019,67.0,9.0,60.0,5.0,64.0
8020,72.0,14.0,60.0,4.0,64.0
8021,67.0,2.0,90.0,2.0,64.0
8022,63.0,0.0,60.0,6.0,64.0
8023,72.0,3.0,90.0,1.0,64.0
8024,29.0,1.0,360.0,11.0,64.0
8025,41.0,16.0,330.0,7.0,64.0
8026,65.0,27.0,90.0,4.0,64.0
8027,65.0,12.0,120.0,14.0,64.0
8028,65.0,10.0,120.0,3.0,64.0
8029,73.0,96.0,150.0,1.0,64.0
8030,68.0,8.0,120.0,2.0,64.0
8031,41.0,98.0,480.0,12.0,64.0
8032,61.0,7.0,780.0,12.0,64.0
8033,41.0,1.0,240.0,15.0,64.0
8034,65.0,7.0,690.0,12.0,64.0
8035,67.0,66.0,150.0,2.0,64.0
8036,72.0,16.0,120.0,1.0,64.0
8037,68.0,0.0,630.0,12.0,64.0
8038,63.0,6.0,120.0,3.0,64.0
8039,73.0,22.0,540.0,12.0,64.0
8040,73.0,14.0,120.0,1.0,64.0
8041,65.0,92.0,120.0,3.0,64.0
8042,68.0,3.0,120.0,2.0,64.0
8043,65.0,0.0,120.0,14.0,64.0
8044,65.0,1.0,90.0,4.0,64.0
8045,80.0,25.0,90.0,1.0,64.0
8046,65.0,10.0,90.0,14.0,64.0
8047,77.0,3.0,90.0,1.0,64.0
8048,65.0,84.0,120.0,4.0,64.0
8049,73.0,77.0,90.0,1.0,64.0
8050,68.0,40.0,90.0,1.0,64.0
8051,65.0,0.0,120.0,14.0,64.0
8052,65.0,70.0,120.0,4.0,64.0
8053,65.0,161.0,60.0,1.0,64.0
8054,68.0,2.0,120.0,2.0,64.0
8055,65.0,29.0,90.0,14.0,64.0
8056,65.0,6.0,120.0,3.0,64.0
8057,65.0,9.0,120.0,4.0,64.0
8058,73.0,102.0,120.0,1.0,64.0
8059,67.0,28.0,120.0,2.0,64.0
8060,63.0,1.0,120.0,3.0,64.0
8061,72.0,59.0,150.0,1.0,64.0
8062,65.0,7.0,90.0,14.0,64.0
8063,65.0,1.0,90.0,3.0,64.0
8064,68.0,3.0,90.0,2.0,64.0
8065,65.0,5.0,90.0,4.0,64.0
8066,73.0,93.0,90.0,1.0,64.0
8067,80.0,127.0,90.0,1.0,64.0
8068,65.0,15.0,90.0,14.0,64.0
8069,77.0,1.0,90.0,1.0,64.0
8070,65.0,82.0,90.0,4.0,64.0
8071,73.0,122.0,60.0,1.0,64.0
8072,68.0,24.0,90.0,1.0,64.0
8073,65.0,81.0,90.0,14.0,64.0
8074,65.0,6.0,90.0,4.0,64.0
8075,65.0,159.0,60.0,1.0,64.0
8076,63.0,11.0,840.0,12.0,64.0
8077,30.0,7.0,360.0,11.0,64.0
8078,66.0,14.0,810.0,12.0,64.0
8079,69.0,4.0,120.0,3.0,64.0
8080,72.0,95.0,150.0,2.0,64.0
8081,66.0,33.0,90.0,14.0,64.0
8082,75.0,4.0,120.0,1.0,64.0
8083,42.0,97.0,480.0,12.0,64.0
8084,66.0,3.0,120.0,4.0,64.0
8085,42.0,48.0,270.0,15.0,64.0
8086,42.0,17.0,300.0,7.0,64.0
8087,69.0,0.0,780.0,12.0,64.0
8088,72.0,15.0,660.0,12.0,64.0
8089,70.0,0.0,120.0,2.0,64.0
8090,67.0,18.0,120.0,3.0,64.0
8091,74.0,10.0,120.0,1.0,64.0
8092,75.0,2.0,90.0,1.0,64.0
8093,72.0,0.0,120.0,2.0,64.0
8094,66.0,103.0,120.0,4.0,64.0
8095,69.0,7.0,90.0,3.0,64.0
8096,66.0,6.0,90.0,14.0,64.0
8097,81.0,18.0,90.0,1.0,64.0
8098,66.0,101.0,90.0,4.0,64.0
8099,66.0,2.0,90.0,14.0,64.0
8100,75.0,2.0,90.0,1.0,64.0
8101,72.0,101.0,90.0,1.0,64.0
8102,66.0,76.0,120.0,4.0,64.0
8103,69.0,1.0,90.0,1.0,64.0
8104,66.0,10.0,90.0,14.0,64.0
8105,66.0,149.0,60.0,1.0,64.0
8106,66.0,23.0,120.0,4.0,64.0
8107,66.0,15.0,90.0,14.0,64.0
8108,72.0,5.0,120.0,2.0,64.0
8109,69.0,4.0,120.0,3.0,64.0
8110,75.0,95.0,120.0,1.0,64.0
8111,70.0,77.0,120.0,2.0,64.0
8112,67.0,7.0,120.0,3.0,64.0
8113,74.0,3.0,120.0,1.0,64.0
8114,66.0,15.0,90.0,4.0,64.0
8115,66.0,6.0,90.0,14.0,64.0
8116,75.0,3.0,90.0,1.0,64.0
8117,69.0,98.0,120.0,3.0,64.0
8118,72.0,11.0,120.0,2.0,64.0
8119,81.0,91.0,90.0,1.0,64.0
8120,66.0,11.0,120.0,4.0,64.0
8121,66.0,29.0,60.0,14.0,64.0
8122,75.0,91.0,90.0,1.0,64.0
8123,72.0,116.0,60.0,1.0,64.0
8124,66.0,90.0,120.0,4.0,64.0
8125,66.0,20.0,90.0,14.0,64.0
8126,69.0,6.0,90.0,1.0,64.0
8127,66.0,147.0,60.0,1.0,64.0
8128,31.0,3.0,390.0,11.0,64.0
8129,62.0,47.0,660.0,12.0,64.0
8130,43.0,43.0,270.0,7.0,64.0
8131,65.0,11.0,600.0,12.0,64.0
8132,67.0,6.0,120.0,4.0,64.0
8133,43.0,3.0,240.0,15.0,64.0
8134,67.0,28.0,90.0,14.0,64.0
8135,74.0,0.0,120.0,2.0,64.0
8136,43.0,60.0,480.0,12.0,64.0
8137,71.0,4.0,120.0,3.0,64.0
8138,77.0,108.0,120.0,1.0,64.0
8139,67.0,15.0,600.0,12.0,64.0
8140,71.0,0.0,540.0,12.0,64.0
8141,72.0,1.0,120.0,2.0,64.0
8142,75.0,14.0,120.0,1.0,64.0
8143,69.0,9.0,120.0,3.0,64.0
8144,67.0,17.0,120.0,4.0,64.0
8145,67.0,8.0,60.0,14.0,64.0
8146,77.0,30.0,90.0,1.0,64.0
8147,74.0,83.0,120.0,2.0,64.0
8148,71.0,2.0,120.0,3.0,64.0
8149,83.0,40.0,90.0,1.0,64.0
8150,67.0,14.0,120.0,4.0,64.0
8151,67.0,25.0,90.0,14.0,64.0
8152,77.0,8.0,90.0,1.0,64.0
8153,74.0,118.0,90.0,1.0,64.0
8154,71.0,25.0,90.0,1.0,64.0
8155,67.0,5.0,90.0,14.0,64.0
8156,67.0,84.0,120.0,4.0,64.0
8157,67.0,119.0,90.0,1.0,64.0
8158,67.0,50.0,60.0,14.0,64.0
8159,67.0,11.0,120.0,4.0,64.0
8160,74.0,93.0,150.0,2.0,64.0
8161,77.0,5.0,120.0,1.0,64.0
8162,71.0,7.0,120.0,3.0,64.0
8163,75.0,7.0,120.0,1.0,64.0
8164,69.0,15.0,120.0,3.0,64.0
8165,72.0,49.0,120.0,2.0,64.0
8166,77.0,36.0,90.0,1.0,64.0
8167,67.0,7.0,60.0,14.0,64.0
8168,71.0,19.0,120.0,3.0,64.0
8169,67.0,10.0,120.0,4.0,64.0
8170,74.0,81.0,120.0,2.0,64.0
8171,83.0,93.0,90.0,1.0,64.0
8172,67.0,21.0,60.0,14.0,64.0
8173,77.0,12.0,90.0,1.0,64.0
8174,67.0,86.0,90.0,4.0,64.0
8175,74.0,126.0,60.0,1.0,64.0
8176,71.0,24.0,90.0,1.0,64.0
8177,67.0,2.0,90.0,14.0,64.0
8178,67.0,79.0,90.0,4.0,64.0
8179,67.0,144.0,60.0,1.0,64.0
8180,63.0,12.0,720.0,12.0,64.0
8181,31.0,5.0,390.0,11.0,64.0
8182,43.0,1.0,270.0,15.0,64.0
8183,66.0,42.0,90.0,14.0,64.0
8184,43.0,75.0,480.0,12.0,64.0
8185,43.0,9.0,300.0,7.0,64.0
8186,66.0,104.0,150.0,4.0,64.0
8187,72.0,1.0,120.0,3.0,64.0
8188,81.0,14.0,120.0,2.0,64.0
8189,75.0,2.0,120.0,1.0,64.0
8190,66.0,6.0,690.0,12.0,64.0
8191,69.0,68.0,630.0,12.0,64.0
8192,72.0,7.0,570.0,12.0,64.0
8193,79.0,50.0,150.0,2.0,64.0
8194,71.0,13.0,120.0,3.0,64.0
8195,74.0,2.0,120.0,1.0,64.0
8196,66.0,3.0,90.0,14.0,64.0
8197,66.0,4.0,120.0,4.0,64.0
8198,75.0,27.0,90.0,1.0,64.0
8199,72.0,23.0,120.0,3.0,64.0
8200,81.0,73.0,120.0,2.0,64.0
8201,84.0,26.0,90.0,1.0,64.0
8202,66.0,18.0,90.0,14.0,64.0
8203,66.0,75.0,120.0,4.0,64.0
8204,81.0,27.0,90.0,1.0,64.0
8205,75.0,8.0,90.0,1.0,64.0
8206,72.0,25.0,60.0,1.0,64.0
8207,66.0,73.0,120.0,4.0,64.0
8208,66.0,35.0,90.0,14.0,64.0
8209,66.0,121.0,90.0,1.0,64.0
8210,66.0,5.0,120.0,4.0,64.0
8211,75.0,3.0,120.0,1.0,64.0
8212,66.0,42.0,60.0,14.0,64.0
8213,72.0,121.0,120.0,3.0,64.0
8214,81.0,4.0,120.0,2.0,64.0
8215,74.0,4.0,120.0,1.0,64.0
8216,71.0,12.0,120.0,3.0,64.0
8217,79.0,50.0,150.0,2.0,64.0
8218,75.0,4.0,120.0,1.0,64.0
8219,66.0,17.0,120.0,4.0,64.0
8220,66.0,31.0,60.0,14.0,64.0
8221,72.0,7.0,120.0,3.0,64.0
8222,81.0,90.0,120.0,2.0,64.0
8223,84.0,83.0,90.0,1.0,64.0
8224,66.0,86.0,120.0,4.0,64.0
8225,66.0,30.0,60.0,14.0,64.0
8226,81.0,10.0,90.0,1.0,64.0
8227,69.0,53.0,120.0,12.0,64.0
8228,75.0,10.0,90.0,1.0,64.0
8229,63.0,54.0,90.0,12.0,64.0
8230,72.0,13.0,90.0,1.0,64.0
8231,66.0,3.0,90.0,14.0,64.0
8232,66.0,15.0,120.0,4.0,64.0
8233,62.0,31.0,90.0,12.0,64.0
8234,63.0,67.0,60.0,12.0,64.0
8235,66.0,7.0,90.0,1.0,64.0
8236,60.0,108.0,60.0,12.0,64.0
8237,62.0,19.0,510.0,12.0,64.0
8238,31.0,10.0,360.0,11.0,64.0
8239,67.0,39.0,90.0,14.0,64.0
8240,43.0,91.0,360.0,7.0,64.0
8241,77.0,11.0,120.0,3.0,64.0
8242,43.0,8.0,510.0,12.0,64.0
8243,67.0,14.0,120.0,4.0,64.0
8244,43.0,18.0,210.0,15.0,64.0
8245,74.0,15.0,120.0,1.0,64.0
8246,79.0,62.0,150.0,2.0,64.0
8247,65.0,7.0,480.0,12.0,64.0
8248,67.0,6.0,450.0,12.0,64.0
8249,72.0,17.0,450.0,12.0,64.0
8250,75.0,61.0,120.0,3.0,64.0
8251,72.0,7.0,120.0,1.0,64.0
8252,80.0,9.0,90.0,2.0,64.0
8253,67.0,24.0,60.0,14.0,64.0
8254,77.0,1.0,120.0,3.0,64.0
8255,67.0,2.0,90.0,4.0,64.0
8256,79.0,14.0,90.0,2.0,64.0
8257,74.0,6.0,90.0,1.0,64.0
8258,84.0,26.0,90.0,1.0,64.0
8259,67.0,34.0,60.0,14.0,64.0
8260,67.0,6.0,90.0,4.0,64.0
8261,80.0,107.0,90.0,1.0,64.0
8262,77.0,93.0,90.0,1.0,64.0
8263,74.0,23.0,90.0,1.0,64.0
8264,67.0,19.0,60.0,14.0,64.0
8265,67.0,91.0,120.0,4.0,64.0
8266,67.0,115.0,90.0,1.0,64.0
8267,67.0,11.0,120.0,4.0,64.0
8268,67.0,40.0,60.0,14.0,64.0
8269,77.0,6.0,120.0,3.0,64.0
8270,79.0,93.0,120.0,2.0,64.0
8271,74.0,13.0,120.0,1.0,64.0
8272,75.0,2.0,120.0,3.0,64.0
8273,72.0,65.0,120.0,1.0,64.0
8274,80.0,6.0,90.0,2.0,64.0
8275,67.0,3.0,120.0,4.0,64.0
8276,67.0,15.0,60.0,14.0,64.0
8277,74.0,22.0,90.0,1.0,64.0
8278,77.0,105.0,120.0,3.0,64.0
8279,79.0,12.0,90.0,2.0,64.0
8280,84.0,82.0,90.0,1.0,64.0
8281,67.0,105.0,90.0,4.0,64.0
8282,67.0,35.0,60.0,14.0,64.0
8283,80.0,0.0,90.0,1.0,64.0
8284,77.0,108.0,90.0,1.0,64.0
8285,74.0,26.0,90.0,1.0,64.0
8286,67.0,100.0,120.0,4.0,64.0
8287,67.0,9.0,60.0,14.0,64.0
8288,67.0,116.0,90.0,1.0,64.0
8289,62.0,5.0,510.0,12.0,64.0
8290,31.0,30.0,450.0,11.0,64.0
8291,65.0,1.0,480.0,12.0,64.0
8292,67.0,99.0,150.0,4.0,64.0
8293,67.0,40.0,90.0,14.0,64.0
8294,43.0,10.0,300.0,7.0,64.0
8295,43.0,82.0,480.0,12.0,64.0
8296,83.0,7.0,120.0,2.0,64.0
8297,43.0,22.0,270.0,15.0,64.0
8298,77.0,6.0,120.0,3.0,64.0
8299,74.0,3.0,120.0,1.0,64.0
8300,67.0,1.0,450.0,12.0,64.0
8301,71.0,14.0,420.0,12.0,64.0
8302,81.0,0.0,120.0,2.0,64.0
8303,72.0,10.0,120.0,1.0,64.0
8304,75.0,39.0,120.0,3.0,64.0
8305,74.0,20.0,90.0,1.0,64.0
8306,67.0,37.0,120.0,4.0,64.0
8307,77.0,10.0,150.0,3.0,64.0
8308,83.0,24.0,150.0,2.0,64.0
8309,67.0,5.0,60.0,14.0,64.0
8310,83.0,19.0,90.0,1.0,64.0
8311,67.0,70.0,120.0,4.0,64.0
8312,77.0,20.0,90.0,1.0,64.0
8313,67.0,12.0,90.0,14.0,64.0
8314,74.0,118.0,60.0,1.0,64.0
8315,71.0,14.0,90.0,1.0,64.0
8316,67.0,84.0,120.0,4.0,64.0
8317,67.0,27.0,90.0,14.0,64.0
8318,67.0,135.0,90.0,1.0,64.0
8319,67.0,35.0,90.0,14.0,64.0
8320,77.0,115.0,120.0,3.0,64.0
8321,67.0,2.0,120.0,4.0,64.0
8322,83.0,1.0,120.0,2.0,64.0
8323,74.0,2.0,120.0,1.0,64.0
8324,75.0,0.0,120.0,3.0,64.0
8325,72.0,16.0,120.0,1.0,64.0
8326,81.0,55.0,150.0,2.0,64.0
8327,77.0,82.0,150.0,3.0,64.0
8328,74.0,10.0,120.0,1.0,64.0
8329,83.0,7.0,120.0,2.0,64.0
8330,67.0,35.0,60.0,14.0,64.0
8331,67.0,7.0,90.0,4.0,64.0
8332,83.0,93.0,90.0,1.0,64.0
8333,67.0,41.0,60.0,14.0,64.0
8334,67.0,3.0,90.0,4.0,64.0
8335,77.0,116.0,90.0,1.0,64.0
8336,74.0,84.0,90.0,1.0,64.0
8337,67.0,108.0,120.0,4.0,64.0
8338,67.0,25.0,90.0,1.0,64.0
8339,67.0,13.0,60.0,14.0,64.0
8340,83.0,126.0,90.0,1.0,64.0
8341,36.0,2.0,240.0,11.0,64.0
8342,67.0,42.0,120.0,14.0,64.0
8343,67.0,2.0,180.0,4.0,64.0
8344,84.0,1.0,180.0,1.0,64.0
8345,63.0,16.0,180.0,6.0,64.0
8346,75.0,4.0,180.0,3.0,64.0
8347,67.0,1.0,270.0,12.0,64.0
8348,48.0,0.0,240.0,7.0,64.0
8349,48.0,34.0,90.0,15.0,64.0
8350,84.0,32.0,210.0,2.0,64.0
8351,48.0,49.0,240.0,12.0,64.0
8352,72.0,31.0,270.0,12.0,64.0
8353,63.0,1.0,270.0,12.0,64.0
8354,72.0,113.0,90.0,4.0,64.0
8355,80.0,0.0,90.0,1.0,64.0
8356,60.0,20.0,60.0,12.0,64.0
8357,48.0,2.0,60.0,11.0,64.0
8358,79.0,96.0,90.0,1.0,64.0
8359,71.0,0.0,90.0,4.0,64.0
8360,80.0,1.0,150.0,1.0,64.0
8361,48.0,69.0,90.0,11.0,64.0
8362,72.0,152.0,150.0,4.0,64.0
8363,60.0,8.0,60.0,12.0,64.0
8364,36.0,7.0,60.0,11.0,64.0
8365,48.0,32.0,60.0,12.0,64.0
8366,60.0,3.0,90.0,5.0,64.0
8367,75.0,109.0,90.0,2.0,64.0
8368,59.0,4.0,90.0,5.0,64.0
8369,74.0,171.0,90.0,2.0,64.0
8370,36.0,61.0,180.0,11.0,64.0
8371,60.0,9.0,150.0,5.0,64.0
8372,75.0,19.0,150.0,2.0,64.0
8373,48.0,63.0,210.0,12.0,64.0
8374,48.0,31.0,90.0,11.0,64.0
8375,56.0,4.0,120.0,6.0,64.0
8376,60.0,9.0,60.0,12.0,64.0
8377,72.0,112.0,90.0,3.0,64.0
8378,55.0,73.0,120.0,6.0,64.0
8379,71.0,22.0,90.0,3.0,64.0
8380,48.0,3.0,90.0,11.0,64.0
8381,56.0,13.0,150.0,6.0,64.0
8382,72.0,151.0,150.0,3.0,64.0
8383,60.0,59.0,60.0,12.0,64.0
8384,36.0,0.0,90.0,11.0,64.0
8385,63.0,4.0,90.0,6.0,64.0
8386,72.0,3.0,90.0,5.0,64.0
8387,87.0,1.0,90.0,1.0,64.0
8388,72.0,1.0,90.0,4.0,64.0
8389,75.0,1.0,90.0,3.0,64.0
8390,68.0,0.0,60.0,12.0,64.0
8391,60.0,320.0,90.0,7.0,64.0
8392,63.0,2.0,60.0,12.0,64.0
8393,72.0,4.0,60.0,12.0,64.0
8394,60.0,5.0,60.0,15.0,64.0
8395,80.0,1.0,60.0,2.0,64.0
8396,48.0,4.0,60.0,12.0,64.0
8397,34.0,23.0,210.0,11.0,64.0
8398,46.0,26.0,150.0,15.0,64.0
8399,62.0,0.0,300.0,12.0,64.0
8400,70.0,6.0,300.0,12.0,64.0
8401,65.0,4.0,300.0,12.0,64.0
8402,74.0,0.0,180.0,4.0,64.0
8403,86.0,6.0,180.0,1.0,64.0
8404,46.0,0.0,180.0,7.0,64.0
8405,70.0,0.0,180.0,6.0,64.0
8406,77.0,11.0,180.0,3.0,64.0
8407,80.0,0.0,180.0,2.0,64.0
8408,65.0,0.0,180.0,5.0,64.0
8409,46.0,72.0,210.0,12.0,64.0
8410,46.0,29.0,60.0,11.0,64.0
8411,58.0,3.0,60.0,12.0,64.0
8412,79.0,112.0,90.0,1.0,64.0
8413,70.0,0.0,90.0,4.0,64.0
8414,69.0,1.0,90.0,4.0,64.0
8415,77.0,90.0,90.0,1.0,64.0
8416,46.0,8.0,90.0,11.0,64.0
8417,70.0,2.0,150.0,4.0,64.0
8418,79.0,144.0,150.0,1.0,64.0
8419,58.0,70.0,60.0,12.0,64.0
8420,34.0,26.0,90.0,11.0,64.0
8421,46.0,24.0,60.0,12.0,64.0
8422,58.0,4.0,90.0,5.0,64.0
8423,74.0,109.0,90.0,2.0,64.0
8424,57.0,4.0,90.0,5.0,64.0
8425,72.0,161.0,90.0,2.0,64.0
8426,58.0,19.0,150.0,5.0,64.0
8427,34.0,31.0,210.0,11.0,64.0
8428,74.0,45.0,150.0,2.0,64.0
8429,46.0,75.0,210.0,12.0,64.0
8430,55.0,112.0,90.0,6.0,64.0
8431,46.0,27.0,60.0,11.0,64.0
8432,70.0,1.0,90.0,3.0,64.0
8433,58.0,9.0,60.0,12.0,64.0
8434,53.0,68.0,120.0,6.0,64.0
8435,69.0,21.0,90.0,3.0,64.0
8436,46.0,64.0,90.0,11.0,64.0
8437,55.0,7.0,150.0,6.0,64.0
8438,70.0,136.0,150.0,3.0,64.0
8439,58.0,16.0,60.0,12.0,64.0
8440,34.0,1.0,90.0,11.0,64.0
8441,70.0,11.0,60.0,4.0,64.0
8442,58.0,4.0,60.0,15.0,64.0
8443,70.0,4.0,60.0,5.0,64.0
8444,58.0,5.0,60.0,7.0,64.0
8445,86.0,2.0,60.0,1.0,64.0
8446,62.0,341.0,90.0,6.0,64.0
8447,74.0,2.0,60.0,3.0,64.0
8448,46.0,1.0,30.0,12.0,64.0
8449,79.0,1.0,60.0,2.0,64.0
8450,67.0,1.0,60.0,12.0,64.0
8451,70.0,3.0,60.0,12.0,64.0
8452,62.0,4.0,60.0,12.0,64.0
8453,32.0,4.0,210.0,11.0,64.0
8454,44.0,1.0,180.0,15.0,64.0
8455,68.0,18.0,330.0,12.0,64.0
8456,63.0,2.0,300.0,12.0,64.0
8457,63.0,6.0,180.0,5.0,64.0
8458,72.0,0.0,180.0,4.0,64.0
8459,84.0,27.0,180.0,1.0,64.0
8460,60.0,4.0,300.0,12.0,64.0
8461,75.0,0.0,180.0,3.0,64.0
8462,79.0,0.0,180.0,2.0,64.0
8463,44.0,0.0,180.0,7.0,64.0
8464,68.0,0.0,180.0,6.0,64.0
8465,44.0,84.0,210.0,12.0,64.0
8466,44.0,4.0,60.0,11.0,64.0
8467,77.0,112.0,90.0,1.0,64.0
8468,68.0,0.0,90.0,4.0,64.0
8469,56.0,4.0,60.0,12.0,64.0
8470,67.0,1.0,90.0,4.0,64.0
8471,76.0,95.0,90.0,1.0,64.0
8472,44.0,65.0,90.0,11.0,64.0
8473,68.0,13.0,150.0,4.0,64.0
8474,77.0,148.0,150.0,1.0,64.0
8475,56.0,6.0,60.0,12.0,64.0
8476,32.0,25.0,90.0,11.0,64.0
8477,44.0,13.0,60.0,12.0,64.0
8478,56.0,3.0,90.0,5.0,64.0
8479,72.0,109.0,90.0,2.0,64.0
8480,55.0,4.0,90.0,5.0,64.0
8481,71.0,170.0,90.0,2.0,64.0
8482,32.0,15.0,210.0,11.0,64.0
8483,56.0,5.0,150.0,5.0,64.0
8484,72.0,57.0,150.0,2.0,64.0
8485,44.0,88.0,210.0,12.0,64.0
8486,53.0,96.0,120.0,6.0,64.0
8487,44.0,28.0,60.0,11.0,64.0
8488,56.0,4.0,60.0,12.0,64.0
8489,68.0,17.0,90.0,3.0,64.0
8490,52.0,94.0,120.0,6.0,64.0
8491,67.0,4.0,90.0,3.0,64.0
8492,53.0,17.0,150.0,6.0,64.0
8493,44.0,59.0,90.0,11.0,64.0
8494,68.0,145.0,150.0,3.0,64.0
8495,56.0,7.0,60.0,12.0,64.0
8496,32.0,5.0,90.0,11.0,64.0
8497,72.0,4.0,60.0,4.0,64.0
8498,60.0,3.0,60.0,6.0,64.0
8499,56.0,3.0,60.0,7.0,64.0
8500,77.0,1.0,60.0,2.0,64.0
8501,72.0,0.0,60.0,3.0,64.0
8502,84.0,0.0,60.0,1.0,64.0
8503,56.0,3.0,60.0,15.0,64.0
8504,44.0,0.0,60.0,12.0,64.0
8505,60.0,0.0,60.0,12.0,64.0
8506,68.0,2.0,60.0,5.0,64.0
8507,68.0,297.0,60.0,12.0,64.0
8508,65.0,1.0,60.0,12.0,64.0
8509,31.0,0.0,210.0,11.0,64.0
8510,43.0,15.0,120.0,15.0,64.0
8511,83.0,5.0,180.0,1.0,64.0
8512,77.0,41.0,210.0,2.0,64.0
8513,74.0,3.0,180.0,3.0,64.0
8514,67.0,2.0,180.0,6.0,64.0
8515,62.0,11.0,180.0,5.0,64.0
8516,67.0,7.0,180.0,4.0,64.0
8517,43.0,22.0,150.0,7.0,64.0
8518,59.0,4.0,480.0,12.0,64.0
8519,43.0,52.0,240.0,12.0,64.0
8520,62.0,6.0,450.0,12.0,64.0
8521,67.0,4.0,420.0,12.0,64.0
8522,55.0,15.0,60.0,15.0,64.0
8523,62.0,90.0,120.0,6.0,64.0
8524,65.0,0.0,90.0,5.0,64.0
8525,71.0,0.0,90.0,4.0,64.0
8526,77.0,1.0,90.0,1.0,64.0
8527,71.0,0.0,90.0,3.0,64.0
8528,74.0,21.0,90.0,2.0,64.0
8529,55.0,26.0,60.0,7.0,64.0
8530,43.0,0.0,90.0,11.0,64.0
8531,55.0,2.0,60.0,12.0,64.0
8532,63.0,61.0,120.0,6.0,64.0
8533,67.0,1.0,90.0,5.0,64.0
8534,72.0,0.0,90.0,4.0,64.0
8535,75.0,1.0,90.0,1.0,64.0
8536,72.0,14.0,90.0,2.0,64.0
8537,69.0,0.0,90.0,3.0,64.0
8538,71.0,10.0,180.0,4.0,64.0
8539,65.0,104.0,180.0,5.0,64.0
8540,62.0,8.0,180.0,6.0,64.0
8541,71.0,2.0,150.0,3.0,64.0
8542,77.0,0.0,150.0,1.0,64.0
8543,74.0,15.0,150.0,2.0,64.0
8544,43.0,53.0,90.0,11.0,64.0
8545,55.0,2.0,60.0,7.0,64.0
8546,55.0,7.0,60.0,15.0,64.0
8547,55.0,25.0,60.0,12.0,64.0
8548,43.0,1.0,60.0,7.0,64.0
8549,59.0,5.0,60.0,12.0,64.0
8550,62.0,1.0,60.0,12.0,64.0
8551,67.0,11.0,60.0,12.0,64.0
8552,31.0,8.0,90.0,11.0,64.0
8553,43.0,22.0,60.0,15.0,64.0
8554,65.0,99.0,120.0,6.0,64.0
8555,43.0,2.0,60.0,12.0,64.0
8556,74.0,1.0,90.0,4.0,64.0
8557,74.0,0.0,90.0,1.0,64.0
8558,71.0,1.0,90.0,5.0,64.0
8559,71.0,0.0,90.0,2.0,64.0
8560,65.0,12.0,90.0,3.0,64.0
8561,67.0,116.0,120.0,6.0,64.0
8562,75.0,0.0,90.0,4.0,64.0
8563,72.0,1.0,90.0,5.0,64.0
8564,72.0,1.0,90.0,1.0,64.0
8565,63.0,0.0,90.0,3.0,64.0
8566,69.0,26.0,90.0,2.0,64.0
8567,65.0,0.0,180.0,6.0,64.0
8568,74.0,38.0,180.0,4.0,64.0
8569,31.0,15.0,180.0,11.0,64.0
8570,43.0,2.0,180.0,7.0,64.0
8571,71.0,3.0,180.0,5.0,64.0
8572,71.0,2.0,150.0,2.0,64.0
8573,43.0,34.0,120.0,15.0,64.0
8574,74.0,0.0,150.0,1.0,64.0
8575,65.0,17.0,150.0,3.0,64.0
8576,59.0,7.0,480.0,12.0,64.0
8577,43.0,76.0,210.0,12.0,64.0
8578,62.0,3.0,450.0,12.0,64.0
8579,67.0,10.0,420.0,12.0,64.0
8580,55.0,3.0,60.0,12.0,64.0
8581,55.0,20.0,60.0,7.0,64.0
8582,55.0,7.0,60.0,15.0,64.0
8583,43.0,7.0,90.0,11.0,64.0
8584,77.0,1.0,90.0,4.0,64.0
8585,74.0,0.0,90.0,5.0,64.0
8586,71.0,0.0,90.0,1.0,64.0
8587,71.0,110.0,90.0,6.0,64.0
8588,65.0,0.0,90.0,2.0,64.0
8589,62.0,1.0,90.0,3.0,64.0
8590,72.0,58.0,150.0,6.0,64.0
8591,79.0,1.0,90.0,4.0,64.0
8592,75.0,0.0,90.0,5.0,64.0
8593,69.0,1.0,90.0,1.0,64.0
8594,63.0,17.0,90.0,2.0,64.0
8595,60.0,0.0,90.0,3.0,64.0
8596,43.0,22.0,120.0,11.0,64.0
8597,74.0,21.0,120.0,5.0,64.0
8598,71.0,5.0,150.0,6.0,64.0
8599,77.0,3.0,150.0,4.0,64.0
8600,55.0,19.0,60.0,7.0,64.0
8601,55.0,7.0,90.0,15.0,64.0
8602,71.0,3.0,150.0,1.0,64.0
8603,62.0,4.0,150.0,3.0,64.0
8604,55.0,6.0,90.0,12.0,64.0
8605,65.0,126.0,150.0,2.0,64.0
8606,41.0,12.0,120.0,11.0,64.0
8607,53.0,1.0,60.0,7.0,64.0
8608,53.0,2.0,60.0,15.0,64.0
8609,67.0,8.0,90.0,5.0,64.0
8610,59.0,3.0,30.0,12.0,64.0
8611,62.0,8.0,30.0,12.0,64.0
8612,71.0,6.0,90.0,4.0,64.0
8613,62.0,0.0,90.0,6.0,64.0
8614,71.0,104.0,120.0,3.0,64.0
8615,67.0,18.0,60.0,12.0,64.0
8616,79.0,3.0,90.0,1.0,64.0
8617,74.0,11.0,60.0,2.0,64.0
8618,53.0,152.0,210.0,12.0,64.0
8619,51.0,7.0,150.0,7.0,64.0
8620,51.0,15.0,150.0,15.0,64.0
8621,67.0,3.0,150.0,5.0,64.0
8622,72.0,8.0,150.0,4.0,64.0
8623,60.0,69.0,180.0,6.0,64.0
8624,39.0,1.0,150.0,11.0,64.0
8625,72.0,7.0,300.0,1.0,64.0
8626,79.0,2.0,150.0,2.0,64.0
8627,67.0,1.0,150.0,3.0,64.0
8628,63.0,0.0,240.0,12.0,64.0
8629,67.0,0.0,240.0,12.0,64.0
8630,60.0,0.0,240.0,12.0,64.0
8631,51.0,68.0,240.0,12.0,64.0
8632,72.0,7.0,90.0,2.0,64.0
8633,41.0,3.0,90.0,11.0,64.0
8634,53.0,3.0,90.0,7.0,64.0
8635,68.0,4.0,90.0,4.0,64.0
8636,65.0,87.0,90.0,5.0,64.0
8637,60.0,1.0,90.0,6.0,64.0
8638,53.0,7.0,90.0,15.0,64.0
8639,53.0,0.0,90.0,12.0,64.0
8640,72.0,2.0,90.0,12.0,64.0
8641,68.0,0.0,90.0,12.0,64.0
8642,62.0,0.0,90.0,12.0,64.0
8643,68.0,1.0,90.0,3.0,64.0
8644,74.0,124.0,60.0,1.0,64.0
8645,43.0,2.0,90.0,11.0,64.0
8646,67.0,2.0,90.0,6.0,64.0
8647,65.0,10.0,90.0,5.0,64.0
8648,62.0,31.0,120.0,4.0,64.0
8649,72.0,40.0,150.0,2.0,64.0
8650,55.0,2.0,90.0,7.0,64.0
8651,67.0,5.0,90.0,3.0,64.0
8652,55.0,3.0,60.0,15.0,64.0
8653,75.0,4.0,120.0,1.0,64.0
8654,55.0,0.0,60.0,12.0,64.0
8655,62.0,0.0,60.0,12.0,64.0
8656,72.0,0.0,60.0,12.0,64.0
8657,67.0,9.0,60.0,12.0,64.0
8658,74.0,16.0,60.0,1.0,64.0
8659,71.0,24.0,60.0,2.0,64.0
8660,75.0,8.0,60.0,1.0,64.0
8661,72.0,32.0,60.0,2.0,64.0
8662,74.0,7.0,60.0,1.0,64.0
8663,71.0,22.0,60.0,2.0,64.0
8664,31.0,5.0,90.0,11.0,64.0
8665,65.0,0.0,90.0,5.0,64.0
8666,67.0,3.0,90.0,6.0,64.0
8667,62.0,2.0,90.0,4.0,64.0
8668,43.0,3.0,90.0,7.0,64.0
8669,75.0,25.0,30.0,1.0,64.0
8670,43.0,1.0,60.0,15.0,64.0
8671,67.0,15.0,90.0,3.0,64.0
8672,43.0,0.0,60.0,12.0,64.0
8673,71.0,0.0,60.0,12.0,64.0
8674,62.0,0.0,60.0,12.0,64.0
8675,65.0,1.0,60.0,12.0,64.0
8676,72.0,6.0,60.0,2.0,64.0
8677,74.0,4.0,30.0,1.0,64.0
8678,71.0,15.0,90.0,2.0,64.0
8679,75.0,21.0,30.0,1.0,64.0
8680,74.0,43.0,30.0,1.0,64.0
8681,72.0,21.0,60.0,2.0,64.0
8682,72.0,139.0,60.0,1.0,64.0
8683,36.0,47.0,390.0,11.0,64.0
8684,48.0,24.0,300.0,7.0,64.0
8685,67.0,19.0,240.0,3.0,64.0
8686,67.0,18.0,120.0,6.0,64.0
8687,72.0,11.0,240.0,2.0,64.0
8688,48.0,1.0,270.0,15.0,64.0
8689,72.0,83.0,150.0,4.0,64.0
8690,63.0,11.0,120.0,5.0,64.0
8691,72.0,63.0,510.0,12.0,64.0
8692,63.0,0.0,510.0,12.0,64.0
8693,48.0,0.0,510.0,12.0,64.0
8694,72.0,30.0,240.0,1.0,64.0
8695,65.0,3.0,120.0,5.0,64.0
8696,62.0,9.0,90.0,6.0,64.0
8697,71.0,1.0,120.0,4.0,64.0
8698,67.0,51.0,90.0,5.0,64.0
8699,63.0,8.0,90.0,6.0,64.0
8700,72.0,4.0,90.0,4.0,64.0
8701,74.0,21.0,90.0,4.0,64.0
8702,65.0,8.0,90.0,6.0,64.0
8703,68.0,60.0,90.0,5.0,64.0
8704,63.0,13.0,120.0,6.0,64.0
8705,72.0,2.0,120.0,4.0,64.0
8706,67.0,76.0,120.0,5.0,64.0
8707,67.0,17.0,90.0,6.0,64.0
8708,75.0,5.0,90.0,4.0,64.0
8709,72.0,96.0,90.0,5.0,64.0
8710,65.0,1.0,120.0,6.0,64.0
8711,71.0,4.0,90.0,5.0,64.0
8712,74.0,5.0,90.0,4.0,64.0
8713,48.0,65.0,120.0,11.0,64.0
8714,60.0,9.0,60.0,15.0,64.0
8715,60.0,3.0,90.0,1.0,64.0
8716,60.0,5.0,60.0,13.0,64.0
8717,60.0,11.0,90.0,7.0,64.0
8718,60.0,5.0,90.0,12.0,64.0
8719,68.0,24.0,90.0,6.0,64.0
8720,47.0,5.0,120.0,11.0,64.0
8721,74.0,3.0,90.0,5.0,64.0
8722,77.0,4.0,90.0,4.0,64.0
8723,59.0,2.0,90.0,7.0,64.0
8724,59.0,21.0,60.0,15.0,64.0
8725,59.0,80.0,120.0,12.0,64.0
8726,60.0,7.0,120.0,7.0,64.0
8727,48.0,13.0,90.0,11.0,64.0
8728,67.0,4.0,120.0,6.0,64.0
8729,72.0,4.0,120.0,5.0,64.0
8730,75.0,16.0,150.0,4.0,64.0
8731,60.0,20.0,90.0,12.0,64.0
8732,63.0,65.0,150.0,13.0,64.0
8733,60.0,6.0,90.0,15.0,64.0
8734,63.0,5.0,150.0,1.0,64.0
8735,67.0,2.0,480.0,12.0,64.0
8736,72.0,62.0,480.0,12.0,64.0
8737,63.0,1.0,480.0,12.0,64.0
8738,65.0,3.0,120.0,6.0,64.0
8739,71.0,11.0,120.0,5.0,64.0
8740,74.0,94.0,120.0,4.0,64.0
8741,67.0,1.0,120.0,6.0,64.0
8742,72.0,5.0,120.0,5.0,64.0
8743,75.0,4.0,90.0,4.0,64.0
8744,67.0,3.0,90.0,1.0,64.0
8745,55.0,10.0,120.0,15.0,64.0
8746,43.0,58.0,120.0,11.0,64.0
8747,55.0,3.0,90.0,7.0,64.0
8748,55.0,6.0,90.0,12.0,64.0
8749,67.0,3.0,90.0,13.0,64.0
8750,41.0,2.0,120.0,11.0,64.0
8751,68.0,2.0,90.0,6.0,64.0
8752,53.0,9.0,90.0,7.0,64.0
8753,74.0,22.0,90.0,5.0,64.0
8754,53.0,25.0,60.0,15.0,64.0
8755,53.0,2.0,120.0,12.0,64.0
8756,77.0,3.0,90.0,4.0,64.0
8757,55.0,89.0,120.0,7.0,64.0
8758,63.0,10.0,90.0,1.0,64.0
8759,63.0,8.0,60.0,13.0,64.0
8760,67.0,3.0,120.0,6.0,64.0
8761,43.0,12.0,90.0,11.0,64.0
8762,55.0,1.0,90.0,15.0,64.0
8763,72.0,1.0,120.0,5.0,64.0
8764,75.0,8.0,90.0,4.0,64.0
8765,55.0,1.0,60.0,12.0,64.0
8766,75.0,0.0,90.0,5.0,64.0
8767,79.0,10.0,90.0,4.0,64.0
8768,72.0,91.0,90.0,6.0,64.0
8769,74.0,1.0,90.0,5.0,64.0
8770,67.0,17.0,120.0,6.0,64.0
8771,60.0,12.0,90.0,1.0,64.0
8772,60.0,3.0,90.0,15.0,64.0
8773,77.0,17.0,60.0,4.0,64.0
8774,60.0,10.0,60.0,13.0,64.0
8775,60.0,6.0,90.0,7.0,64.0
8776,48.0,61.0,120.0,11.0,64.0
8777,60.0,2.0,90.0,12.0,64.0
8778,77.0,2.0,90.0,5.0,64.0
8779,74.0,4.0,90.0,6.0,64.0
8780,47.0,18.0,120.0,11.0,64.0
8781,80.0,9.0,90.0,4.0,64.0
8782,59.0,17.0,90.0,15.0,64.0
8783,59.0,12.0,90.0,7.0,64.0
8784,59.0,67.0,120.0,12.0,64.0
8785,60.0,6.0,150.0,7.0,64.0
8786,67.0,6.0,120.0,6.0,64.0
8787,63.0,49.0,150.0,13.0,64.0
8788,60.0,12.0,90.0,15.0,64.0
8789,79.0,2.0,120.0,4.0,64.0
8790,75.0,15.0,120.0,5.0,64.0
8791,48.0,7.0,90.0,11.0,64.0
8792,63.0,3.0,150.0,1.0,64.0
8793,67.0,1.0,480.0,12.0,64.0
8794,72.0,53.0,480.0,12.0,64.0
8795,63.0,1.0,480.0,12.0,64.0
8796,60.0,18.0,90.0,12.0,64.0
8797,72.0,31.0,90.0,6.0,64.0
8798,74.0,70.0,120.0,5.0,64.0
8799,77.0,17.0,120.0,4.0,64.0
8800,67.0,11.0,120.0,6.0,64.0
8801,79.0,11.0,90.0,4.0,64.0
8802,75.0,2.0,90.0,5.0,64.0
8803,51.0,0.0,90.0,15.0,64.0
8804,67.0,0.0,90.0,1.0,64.0
8805,39.0,72.0,120.0,11.0,64.0
8806,67.0,4.0,60.0,13.0,64.0
8807,51.0,9.0,90.0,7.0,64.0
8808,51.0,1.0,90.0,12.0,64.0
8809,71.0,9.0,90.0,6.0,64.0
8810,38.0,6.0,90.0,11.0,64.0
8811,80.0,5.0,60.0,4.0,64.0
8812,77.0,23.0,120.0,5.0,64.0
8813,50.0,2.0,90.0,15.0,64.0
8814,50.0,12.0,90.0,7.0,64.0
8815,50.0,6.0,120.0,12.0,64.0
8816,39.0,12.0,90.0,11.0,64.0
8817,51.0,64.0,150.0,7.0,64.0
8818,67.0,5.0,120.0,6.0,64.0
8819,51.0,2.0,150.0,15.0,64.0
8820,79.0,18.0,120.0,4.0,64.0
8821,63.0,2.0,120.0,1.0,64.0
8822,51.0,28.0,90.0,12.0,64.0
8823,63.0,4.0,90.0,13.0,64.0
8824,75.0,1.0,120.0,5.0,64.0
8825,72.0,16.0,90.0,6.0,64.0
8826,77.0,4.0,90.0,5.0,64.0
8827,80.0,93.0,120.0,4.0,64.0
8828,75.0,6.0,90.0,5.0,64.0
8829,67.0,7.0,120.0,6.0,64.0
8830,79.0,13.0,90.0,4.0,64.0
8831,48.0,71.0,120.0,11.0,64.0
8832,60.0,1.0,60.0,13.0,64.0
8833,60.0,7.0,90.0,15.0,64.0
8834,60.0,5.0,90.0,1.0,64.0
8835,60.0,0.0,90.0,7.0,64.0
8836,60.0,7.0,90.0,12.0,64.0
8837,47.0,15.0,120.0,11.0,64.0
8838,71.0,2.0,90.0,6.0,64.0
8839,74.0,1.0,90.0,5.0,64.0
8840,77.0,13.0,90.0,4.0,64.0
8841,59.0,4.0,120.0,15.0,64.0
8842,59.0,19.0,90.0,7.0,64.0
8843,59.0,83.0,120.0,12.0,64.0
8844,60.0,7.0,150.0,7.0,64.0
8845,67.0,3.0,150.0,6.0,64.0
8846,72.0,11.0,120.0,5.0,64.0
8847,48.0,11.0,120.0,11.0,64.0
8848,75.0,8.0,120.0,4.0,64.0
8849,67.0,44.0,150.0,13.0,64.0
8850,60.0,3.0,90.0,15.0,64.0
8851,67.0,11.0,90.0,1.0,64.0
8852,60.0,4.0,120.0,12.0,64.0
8853,63.0,17.0,180.0,12.0,64.0
8854,67.0,3.0,180.0,12.0,64.0
8855,72.0,4.0,180.0,12.0,64.0
8856,68.0,9.0,120.0,6.0,64.0
8857,77.0,18.0,90.0,4.0,64.0
8858,74.0,48.0,120.0,5.0,64.0
8859,72.0,14.0,120.0,5.0,64.0
8860,67.0,6.0,90.0,6.0,64.0
8861,36.0,51.0,120.0,11.0,64.0
8862,75.0,14.0,60.0,4.0,64.0
8863,48.0,3.0,90.0,15.0,64.0
8864,72.0,4.0,180.0,12.0,64.0
8865,75.0,0.0,180.0,12.0,64.0
8866,67.0,17.0,60.0,13.0,64.0
8867,48.0,4.0,90.0,7.0,64.0
8868,67.0,6.0,60.0,1.0,64.0
8869,48.0,2.0,90.0,12.0,64.0
8870,38.0,51.0,120.0,11.0,64.0
8871,71.0,3.0,90.0,5.0,64.0
8872,65.0,3.0,90.0,6.0,64.0
8873,50.0,6.0,90.0,15.0,64.0
8874,67.0,22.0,60.0,13.0,64.0
8875,74.0,5.0,60.0,4.0,64.0
8876,50.0,0.0,90.0,7.0,64.0
8877,67.0,1.0,60.0,1.0,64.0
8878,50.0,70.0,150.0,12.0,64.0
8879,40.0,3.0,120.0,11.0,64.0
8880,52.0,1.0,120.0,7.0,64.0
8881,52.0,8.0,150.0,15.0,64.0
8882,67.0,25.0,150.0,6.0,64.0
8883,67.0,33.0,180.0,1.0,64.0
8884,72.0,13.0,150.0,5.0,64.0
8885,67.0,3.0,150.0,13.0,64.0
8886,72.0,22.0,90.0,4.0,64.0
8887,72.0,0.0,120.0,12.0,64.0
8888,75.0,7.0,120.0,12.0,64.0
8889,52.0,1.0,150.0,12.0,64.0
8890,75.0,106.0,90.0,4.0,64.0
8891,42.0,2.0,90.0,11.0,64.0
8892,54.0,1.0,120.0,7.0,64.0
8893,62.0,9.0,90.0,6.0,64.0
8894,54.0,3.0,90.0,15.0,64.0
8895,74.0,12.0,90.0,4.0,64.0
8896,69.0,0.0,90.0,5.0,64.0
8897,69.0,0.0,90.0,12.0,64.0
8898,72.0,89.0,90.0,12.0,64.0
8899,54.0,2.0,90.0,12.0,64.0
8900,72.0,131.0,60.0,4.0,64.0
8901,43.0,1.0,120.0,11.0,64.0
8902,55.0,2.0,120.0,7.0,64.0
8903,62.0,7.0,120.0,6.0,64.0
8904,67.0,1.0,120.0,5.0,64.0
8905,55.0,1.0,120.0,15.0,64.0
8906,70.0,2.0,120.0,4.0,64.0
8907,55.0,67.0,180.0,12.0,64.0
8908,74.0,8.0,120.0,2.0,64.0
8909,70.0,15.0,150.0,3.0,64.0
8910,62.0,10.0,90.0,12.0,64.0
8911,79.0,17.0,120.0,1.0,64.0
8912,67.0,2.0,90.0,12.0,64.0
8913,70.0,19.0,90.0,12.0,64.0
8914,78.0,22.0,120.0,1.0,64.0
8915,72.0,6.0,120.0,2.0,64.0
8916,69.0,63.0,120.0,3.0,64.0
8917,62.0,2.0,120.0,5.0,64.0
8918,70.0,8.0,150.0,12.0,64.0
8919,67.0,2.0,90.0,4.0,64.0
8920,43.0,2.0,90.0,7.0,64.0
8921,31.0,3.0,90.0,11.0,64.0
8922,79.0,3.0,90.0,1.0,64.0
8923,58.0,2.0,90.0,6.0,64.0
8924,74.0,0.0,90.0,2.0,64.0
8925,43.0,6.0,90.0,15.0,64.0
8926,70.0,27.0,120.0,3.0,64.0
8927,43.0,10.0,90.0,12.0,64.0
8928,74.0,0.0,120.0,12.0,64.0
8929,79.0,65.0,120.0,12.0,64.0
8930,75.0,1.0,90.0,2.0,64.0
8931,81.0,2.0,90.0,1.0,64.0
8932,72.0,117.0,90.0,3.0,64.0
8933,74.0,5.0,90.0,2.0,64.0
8934,70.0,89.0,90.0,3.0,64.0
8935,79.0,5.0,90.0,1.0,64.0
8936,74.0,5.0,90.0,3.0,64.0
8937,82.0,107.0,90.0,1.0,64.0
8938,79.0,5.0,90.0,2.0,64.0
8939,81.0,1.0,90.0,1.0,64.0
8940,72.0,2.0,90.0,3.0,64.0
8941,78.0,6.0,90.0,2.0,64.0
8942,55.0,7.0,90.0,12.0,64.0
8943,55.0,18.0,90.0,15.0,64.0
8944,67.0,2.0,90.0,4.0,64.0
8945,43.0,63.0,120.0,11.0,64.0
8946,67.0,15.0,60.0,14.0,64.0
8947,55.0,1.0,90.0,7.0,64.0
8948,75.0,0.0,90.0,3.0,64.0
8949,42.0,4.0,120.0,11.0,64.0
8950,54.0,1.0,120.0,12.0,64.0
8951,81.0,22.0,60.0,2.0,64.0
8952,54.0,118.0,120.0,15.0,64.0
8953,54.0,6.0,90.0,7.0,64.0
8954,84.0,12.0,90.0,1.0,64.0
8955,70.0,3.0,150.0,14.0,64.0
8956,55.0,81.0,180.0,12.0,64.0
8957,74.0,11.0,120.0,3.0,64.0
8958,55.0,1.0,120.0,15.0,64.0
8959,43.0,6.0,120.0,11.0,64.0
8960,79.0,7.0,120.0,2.0,64.0
8961,70.0,1.0,480.0,12.0,64.0
8962,67.0,0.0,480.0,12.0,64.0
8963,70.0,4.0,120.0,4.0,64.0
8964,55.0,25.0,150.0,7.0,64.0
8965,82.0,0.0,120.0,1.0,64.0
8966,62.0,52.0,480.0,12.0,64.0
8967,72.0,38.0,150.0,3.0,64.0
8968,81.0,8.0,120.0,1.0,64.0
8969,78.0,1.0,120.0,2.0,64.0
8970,74.0,20.0,60.0,14.0,64.0
8971,82.0,14.0,90.0,1.0,64.0
8972,74.0,4.0,90.0,4.0,64.0
8973,74.0,87.0,120.0,3.0,64.0
8974,38.0,1.0,120.0,11.0,64.0
8975,79.0,3.0,90.0,2.0,64.0
8976,50.0,7.0,90.0,15.0,64.0
8977,50.0,1.0,90.0,7.0,64.0
8978,50.0,14.0,90.0,12.0,64.0
8979,36.0,12.0,120.0,11.0,64.0
8980,75.0,2.0,90.0,3.0,64.0
8981,48.0,3.0,90.0,7.0,64.0
8982,81.0,3.0,90.0,2.0,64.0
8983,84.0,2.0,90.0,1.0,64.0
8984,48.0,16.0,120.0,15.0,64.0
8985,48.0,5.0,120.0,12.0,64.0
8986,38.0,6.0,120.0,11.0,64.0
8987,70.0,24.0,60.0,14.0,64.0
8988,70.0,0.0,90.0,4.0,64.0
8989,74.0,1.0,90.0,3.0,64.0
8990,50.0,82.0,120.0,7.0,64.0
8991,79.0,2.0,90.0,2.0,64.0
8992,50.0,1.0,90.0,15.0,64.0
8993,82.0,1.0,90.0,1.0,64.0
8994,50.0,13.0,90.0,12.0,64.0
8995,82.0,2.0,90.0,2.0,64.0
8996,86.0,4.0,90.0,1.0,64.0
8997,79.0,111.0,90.0,3.0,64.0
8998,81.0,6.0,90.0,2.0,64.0
8999,67.0,12.0,90.0,14.0,64.0
9000,74.0,4.0,90.0,3.0,64.0
9001,84.0,2.0,90.0,1.0,64.0
9002,67.0,3.0,90.0,4.0,64.0
9003,55.0,7.0,120.0,15.0,64.0
9004,55.0,8.0,120.0,12.0,64.0
9005,43.0,71.0,120.0,11.0,64.0
9006,55.0,11.0,90.0,7.0,64.0
9007,42.0,32.0,120.0,11.0,64.0
9008,84.0,2.0,90.0,2.0,64.0
9009,81.0,5.0,90.0,3.0,64.0
9010,87.0,8.0,90.0,1.0,64.0
9011,54.0,73.0,150.0,12.0,64.0
9012,54.0,11.0,90.0,7.0,64.0
9013,54.0,8.0,90.0,15.0,64.0
9014,70.0,2.0,510.0,12.0,64.0
9015,67.0,0.0,510.0,12.0,64.0
9016,62.0,64.0,510.0,12.0,64.0
9017,55.0,11.0,120.0,7.0,64.0
9018,74.0,9.0,120.0,3.0,64.0
9019,43.0,13.0,90.0,11.0,64.0
9020,70.0,5.0,150.0,4.0,64.0
9021,86.0,2.0,120.0,1.0,64.0
9022,70.0,38.0,180.0,14.0,64.0
9023,82.0,7.0,120.0,2.0,64.0
9024,55.0,3.0,150.0,15.0,64.0
9025,55.0,20.0,150.0,12.0,64.0
9026,79.0,52.0,90.0,3.0,64.0
9027,84.0,68.0,150.0,1.0,64.0
9028,81.0,0.0,120.0,2.0,64.0
9029,74.0,2.0,90.0,4.0,64.0
9030,86.0,1.0,90.0,1.0,64.0
9031,74.0,64.0,120.0,3.0,64.0
9032,74.0,5.0,90.0,14.0,64.0
9033,82.0,7.0,90.0,2.0,64.0
9034,46.0,6.0,90.0,15.0,64.0
9035,34.0,0.0,90.0,11.0,64.0
9036,46.0,1.0,90.0,7.0,64.0
9037,46.0,1.0,90.0,12.0,64.0
9038,33.0,14.0,120.0,11.0,64.0
9039,78.0,2.0,90.0,3.0,64.0
9040,84.0,6.0,90.0,2.0,64.0
9041,45.0,31.0,60.0,15.0,64.0
9042,45.0,3.0,90.0,7.0,64.0
9043,45.0,23.0,120.0,12.0,64.0
9044,87.0,2.0,90.0,1.0,64.0
9045,34.0,1.0,90.0,11.0,64.0
9046,46.0,64.0,150.0,7.0,64.0
9047,74.0,2.0,120.0,3.0,64.0
9048,82.0,4.0,120.0,2.0,64.0
9049,46.0,27.0,120.0,12.0,64.0
9050,70.0,5.0,90.0,14.0,64.0
9051,70.0,11.0,90.0,4.0,64.0
9052,46.0,12.0,90.0,15.0,64.0
9053,86.0,1.0,90.0,1.0,64.0
9054,84.0,89.0,120.0,2.0,64.0
9055,87.0,23.0,90.0,1.0,64.0
9056,79.0,3.0,90.0,3.0,64.0
9057,86.0,6.0,90.0,1.0,64.0
9058,74.0,0.0,90.0,3.0,64.0
9059,82.0,10.0,90.0,2.0,64.0
9060,67.0,4.0,90.0,14.0,64.0
9061,55.0,9.0,120.0,12.0,64.0
9062,67.0,3.0,90.0,4.0,64.0
9063,43.0,1.0,120.0,11.0,64.0
9064,55.0,77.0,120.0,15.0,64.0
9065,55.0,4.0,90.0,7.0,64.0
9066,42.0,21.0,120.0,11.0,64.0
9067,84.0,13.0,90.0,1.0,64.0
9068,81.0,3.0,90.0,2.0,64.0
9069,78.0,1.0,90.0,3.0,64.0
9070,54.0,51.0,120.0,12.0,64.0
9071,54.0,3.0,90.0,7.0,64.0
9072,54.0,15.0,120.0,15.0,64.0
9073,43.0,38.0,90.0,11.0,64.0
9074,74.0,7.0,150.0,3.0,64.0
9075,70.0,8.0,210.0,12.0,64.0
9076,67.0,7.0,210.0,12.0,64.0
9077,62.0,7.0,180.0,12.0,64.0
9078,74.0,2.0,150.0,14.0,64.0
9079,55.0,2.0,120.0,7.0,64.0
9080,74.0,0.0,150.0,4.0,64.0
9081,55.0,28.0,150.0,12.0,64.0
9082,79.0,19.0,150.0,2.0,64.0
9083,82.0,27.0,90.0,1.0,64.0
9084,55.0,7.0,120.0,15.0,64.0
9085,84.0,22.0,90.0,1.0,64.0
9086,75.0,52.0,120.0,3.0,64.0
9087,81.0,10.0,120.0,2.0,64.0
9088,82.0,5.0,90.0,1.0,64.0
9089,74.0,65.0,120.0,3.0,64.0
9090,31.0,2.0,90.0,11.0,64.0
9091,43.0,9.0,90.0,15.0,64.0
9092,79.0,5.0,90.0,2.0,64.0
9093,74.0,3.0,90.0,4.0,64.0
9094,43.0,0.0,90.0,7.0,64.0
9095,74.0,3.0,90.0,12.0,64.0
9096,74.0,23.0,60.0,14.0,64.0
9097,43.0,0.0,90.0,12.0,64.0
9098,33.0,5.0,120.0,11.0,64.0
9099,45.0,5.0,120.0,15.0,64.0
9100,74.0,8.0,90.0,4.0,64.0
9101,74.0,25.0,60.0,14.0,64.0
9102,72.0,6.0,90.0,3.0,64.0
9103,81.0,7.0,90.0,1.0,64.0
9104,45.0,102.0,120.0,12.0,64.0
9105,72.0,0.0,120.0,12.0,64.0
9106,45.0,2.0,90.0,7.0,64.0
9107,78.0,0.0,90.0,2.0,64.0
9108,34.0,20.0,150.0,11.0,64.0
9109,46.0,3.0,150.0,15.0,64.0
9110,74.0,33.0,150.0,4.0,64.0
9111,74.0,21.0,180.0,14.0,64.0
9112,46.0,0.0,150.0,7.0,64.0
9113,74.0,10.0,150.0,3.0,64.0
9114,79.0,26.0,90.0,1.0,64.0
9115,70.0,8.0,120.0,12.0,64.0
9116,46.0,0.0,120.0,12.0,64.0
9117,79.0,2.0,150.0,2.0,64.0
9118,82.0,99.0,90.0,1.0,64.0
9119,67.0,1.0,90.0,12.0,64.0
9120,70.0,2.0,90.0,12.0,64.0
9121,75.0,1.0,90.0,12.0,64.0
9122,36.0,0.0,90.0,11.0,64.0
9123,48.0,3.0,60.0,12.0,64.0
9124,48.0,1.0,120.0,7.0,64.0
9125,75.0,1.0,60.0,2.0,64.0
9126,81.0,5.0,90.0,1.0,64.0
9127,48.0,85.0,120.0,15.0,64.0
9128,69.0,25.0,60.0,3.0,64.0
9129,79.0,147.0,90.0,1.0,64.0
9130,78.0,6.0,120.0,1.0,64.0
9131,74.0,11.0,120.0,2.0,64.0
9132,50.0,7.0,90.0,7.0,64.0
9133,69.0,1.0,90.0,3.0,64.0
9134,74.0,4.0,480.0,12.0,64.0
9135,50.0,77.0,120.0,12.0,64.0
9136,38.0,3.0,120.0,11.0,64.0
9137,50.0,2.0,90.0,15.0,64.0
9138,66.0,3.0,480.0,12.0,64.0
9139,69.0,22.0,450.0,12.0,64.0
9140,36.0,10.0,90.0,11.0,64.0
9141,48.0,26.0,120.0,15.0,64.0
9142,48.0,11.0,90.0,7.0,64.0
9143,48.0,32.0,120.0,12.0,64.0
9144,38.0,25.0,60.0,11.0,64.0
9145,50.0,12.0,90.0,15.0,64.0
9146,62.0,6.0,90.0,4.0,64.0
9147,62.0,5.0,90.0,14.0,64.0
9148,50.0,4.0,60.0,7.0,64.0
9149,66.0,4.0,120.0,3.0,64.0
9150,69.0,5.0,90.0,2.0,64.0
9151,50.0,2.0,90.0,12.0,64.0
9152,74.0,48.0,90.0,1.0,64.0
9153,39.0,17.0,60.0,11.0,64.0
9154,51.0,1.0,90.0,15.0,64.0
9155,51.0,2.0,90.0,7.0,64.0
9156,60.0,26.0,90.0,4.0,64.0
9157,60.0,20.0,60.0,14.0,64.0
9158,51.0,23.0,90.0,12.0,64.0
9159,38.0,25.0,60.0,11.0,64.0
9160,50.0,17.0,60.0,15.0,64.0
9161,50.0,1.0,90.0,7.0,64.0
9162,62.0,29.0,120.0,4.0,64.0
9163,62.0,27.0,90.0,14.0,64.0
9164,50.0,5.0,90.0,12.0,64.0
9165,39.0,36.0,60.0,11.0,64.0
9166,51.0,12.0,60.0,15.0,64.0
9167,63.0,45.0,90.0,4.0,64.0
9168,51.0,0.0,90.0,7.0,64.0
9169,63.0,17.0,60.0,14.0,64.0
9170,51.0,10.0,90.0,12.0,64.0
9171,38.0,36.0,60.0,11.0,64.0
9172,62.0,17.0,90.0,4.0,64.0
9173,50.0,3.0,60.0,15.0,64.0
9174,50.0,12.0,60.0,7.0,64.0
9175,62.0,1.0,60.0,14.0,64.0
9176,50.0,5.0,90.0,12.0,64.0
9177,82.0,34.0,120.0,13.0,64.0
9178,62.0,2.0,60.0,12.0,64.0
9179,65.0,1.0,60.0,12.0,64.0
9180,70.0,0.0,60.0,12.0,64.0
9181,82.0,17.0,90.0,1.0,64.0
9182,36.0,22.0,60.0,11.0,64.0
9183,60.0,2.0,90.0,4.0,64.0
9184,48.0,18.0,60.0,15.0,64.0
9185,48.0,6.0,90.0,7.0,64.0
9186,60.0,2.0,60.0,14.0,64.0
9187,48.0,12.0,90.0,12.0,64.0
9188,81.0,140.0,90.0,13.0,64.0
9189,81.0,7.0,90.0,1.0,64.0
9190,62.0,1.0,540.0,12.0,64.0
9191,46.0,18.0,390.0,7.0,64.0
9192,82.0,47.0,180.0,1.0,64.0
9193,46.0,11.0,420.0,15.0,64.0
9194,58.0,4.0,120.0,4.0,64.0
9195,34.0,25.0,360.0,11.0,64.0
9196,58.0,15.0,120.0,14.0,64.0
9197,46.0,20.0,510.0,12.0,64.0
9198,82.0,27.0,120.0,13.0,64.0
9199,65.0,3.0,510.0,12.0,64.0
9200,70.0,36.0,480.0,12.0,64.0
9201,57.0,71.0,120.0,4.0,64.0
9202,57.0,35.0,90.0,14.0,64.0
9203,58.0,15.0,90.0,4.0,64.0
9204,58.0,6.0,90.0,14.0,64.0
9205,77.0,16.0,90.0,1.0,64.0
9206,77.0,20.0,120.0,13.0,64.0
9207,60.0,10.0,90.0,4.0,64.0
9208,60.0,13.0,60.0,14.0,64.0
9209,75.0,22.0,90.0,1.0,64.0
9210,75.0,39.0,120.0,13.0,64.0
9211,58.0,3.0,90.0,4.0,64.0
9212,77.0,43.0,150.0,1.0,64.0
9213,58.0,27.0,90.0,14.0,64.0
9214,77.0,25.0,120.0,13.0,64.0
9215,62.0,121.0,90.0,4.0,64.0
9216,62.0,4.0,60.0,14.0,64.0
9217,60.0,6.0,90.0,4.0,64.0
9218,53.0,1.0,90.0,15.0,64.0
9219,60.0,4.0,90.0,14.0,64.0
9220,53.0,8.0,90.0,12.0,64.0
9221,82.0,0.0,90.0,13.0,64.0
9222,53.0,81.0,120.0,7.0,64.0
9223,82.0,12.0,90.0,1.0,64.0
9224,41.0,4.0,60.0,11.0,64.0
9225,63.0,1.0,90.0,4.0,64.0
9226,81.0,145.0,90.0,13.0,64.0
9227,63.0,19.0,60.0,14.0,64.0
9228,81.0,4.0,90.0,1.0,64.0
9229,62.0,2.0,330.0,12.0,64.0
9230,82.0,47.0,180.0,1.0,64.0
9231,82.0,1.0,150.0,13.0,64.0
9232,46.0,5.0,120.0,11.0,64.0
9233,65.0,2.0,300.0,12.0,64.0
9234,62.0,7.0,120.0,14.0,64.0
9235,58.0,1.0,120.0,15.0,64.0
9236,62.0,12.0,120.0,4.0,64.0
9237,58.0,2.0,120.0,7.0,64.0
9238,58.0,13.0,120.0,12.0,64.0
9239,70.0,1.0,270.0,12.0,64.0
9240,45.0,22.0,90.0,11.0,64.0
9241,60.0,29.0,150.0,4.0,64.0
9242,57.0,6.0,120.0,15.0,64.0
9243,57.0,7.0,120.0,7.0,64.0
9244,60.0,2.0,120.0,14.0,64.0
9245,57.0,15.0,150.0,12.0,64.0
9246,46.0,20.0,60.0,11.0,64.0
9247,62.0,3.0,90.0,4.0,64.0
9248,58.0,13.0,90.0,15.0,64.0
9249,62.0,2.0,90.0,14.0,64.0
9250,74.0,9.0,120.0,13.0,64.0
9251,58.0,6.0,90.0,7.0,64.0
9252,74.0,10.0,90.0,1.0,64.0
9253,58.0,48.0,90.0,12.0,64.0
9254,48.0,30.0,60.0,11.0,64.0
9255,63.0,12.0,90.0,4.0,64.0
9256,60.0,0.0,90.0,15.0,64.0
9257,72.0,7.0,90.0,1.0,64.0
9258,72.0,13.0,90.0,13.0,64.0
9259,63.0,4.0,60.0,14.0,64.0
9260,60.0,6.0,90.0,7.0,64.0
9261,60.0,67.0,90.0,12.0,64.0
9262,46.0,16.0,90.0,11.0,64.0
9263,62.0,3.0,90.0,4.0,64.0
9264,58.0,6.0,90.0,15.0,64.0
9265,74.0,28.0,150.0,1.0,64.0
9266,74.0,23.0,120.0,13.0,64.0
9267,62.0,4.0,90.0,14.0,64.0
9268,58.0,14.0,90.0,7.0,64.0
9269,58.0,17.0,90.0,12.0,64.0
9270,50.0,13.0,60.0,11.0,64.0
9271,65.0,3.0,90.0,4.0,64.0
9272,62.0,17.0,90.0,7.0,64.0
9273,62.0,8.0,90.0,15.0,64.0
9274,65.0,9.0,60.0,14.0,64.0
9275,62.0,75.0,90.0,12.0,64.0
9276,48.0,15.0,60.0,11.0,64.0
9277,82.0,1.0,90.0,13.0,64.0
9278,63.0,9.0,90.0,14.0,64.0
9279,60.0,4.0,90.0,15.0,64.0
9280,63.0,6.0,90.0,4.0,64.0
9281,60.0,4.0,90.0,7.0,64.0
9282,60.0,61.0,90.0,12.0,64.0
9283,82.0,2.0,90.0,1.0,64.0
9284,51.0,19.0,60.0,11.0,64.0
9285,81.0,3.0,120.0,13.0,64.0
9286,63.0,9.0,60.0,15.0,64.0
9287,67.0,16.0,90.0,4.0,64.0
9288,67.0,3.0,60.0,14.0,64.0
9289,63.0,2.0,60.0,7.0,64.0
9290,81.0,15.0,90.0,1.0,64.0
9291,63.0,87.0,120.0,12.0,64.0
9292,50.0,20.0,90.0,11.0,64.0
9293,82.0,22.0,120.0,13.0,64.0
9294,62.0,15.0,90.0,15.0,64.0
9295,82.0,14.0,180.0,1.0,64.0
9296,65.0,1.0,120.0,4.0,64.0
9297,62.0,2.0,120.0,7.0,64.0
9298,65.0,3.0,120.0,14.0,64.0
9299,62.0,12.0,120.0,12.0,64.0
9300,70.0,1.0,510.0,12.0,64.0
9301,51.0,9.0,60.0,11.0,64.0
9302,63.0,17.0,60.0,15.0,64.0
9303,63.0,3.0,90.0,7.0,64.0
9304,67.0,14.0,90.0,14.0,64.0
9305,67.0,28.0,90.0,4.0,64.0
9306,63.0,26.0,120.0,12.0,64.0
9307,50.0,19.0,60.0,11.0,64.0
9308,62.0,18.0,60.0,15.0,64.0
9309,65.0,14.0,60.0,14.0,64.0
9310,62.0,8.0,90.0,7.0,64.0
9311,70.0,2.0,90.0,13.0,64.0
9312,62.0,36.0,120.0,12.0,64.0
9313,65.0,1.0,90.0,4.0,64.0
9314,70.0,14.0,90.0,1.0,64.0
9315,48.0,30.0,60.0,11.0,64.0
9316,63.0,2.0,90.0,14.0,64.0
9317,60.0,16.0,60.0,15.0,64.0
9318,72.0,12.0,120.0,13.0,64.0
9319,60.0,3.0,90.0,7.0,64.0
9320,63.0,12.0,90.0,4.0,64.0
9321,72.0,18.0,90.0,1.0,64.0
9322,63.0,32.0,120.0,12.0,64.0
9323,60.0,0.0,120.0,12.0,64.0
9324,46.0,25.0,60.0,11.0,64.0
9325,74.0,54.0,90.0,13.0,64.0
9326,58.0,4.0,90.0,15.0,64.0
9327,58.0,4.0,90.0,7.0,64.0
9328,74.0,24.0,150.0,1.0,64.0
9329,62.0,2.0,90.0,14.0,64.0
9330,62.0,10.0,90.0,4.0,64.0
9331,58.0,0.0,90.0,12.0,64.0
9332,65.0,12.0,30.0,12.0,64.0
9333,50.0,4.0,60.0,11.0,64.0
9334,62.0,3.0,90.0,7.0,64.0
9335,62.0,15.0,60.0,15.0,64.0
9336,70.0,2.0,90.0,4.0,64.0
9337,70.0,14.0,60.0,14.0,64.0
9338,62.0,0.0,90.0,12.0,64.0
9339,65.0,73.0,90.0,12.0,64.0
9340,48.0,21.0,60.0,11.0,64.0
9341,60.0,3.0,90.0,7.0,64.0
9342,60.0,18.0,60.0,15.0,64.0
9343,69.0,1.0,90.0,14.0,64.0
9344,69.0,1.0,90.0,4.0,64.0
9345,76.0,9.0,90.0,13.0,64.0
9346,76.0,59.0,90.0,1.0,64.0
9347,64.0,4.0,90.0,12.0,64.0
9348,60.0,0.0,90.0,12.0,64.0
9349,46.0,24.0,60.0,11.0,64.0
9350,58.0,6.0,90.0,7.0,64.0
9351,58.0,8.0,60.0,15.0,64.0
9352,67.0,4.0,60.0,14.0,64.0
9353,67.0,11.0,90.0,4.0,64.0
9354,67.0,0.0,90.0,12.0,64.0
9355,58.0,84.0,90.0,12.0,64.0
9356,45.0,23.0,60.0,11.0,64.0
9357,57.0,2.0,90.0,7.0,64.0
9358,57.0,10.0,90.0,15.0,64.0
9359,77.0,3.0,120.0,1.0,64.0
9360,65.0,1.0,60.0,4.0,64.0
9361,77.0,66.0,120.0,13.0,64.0
9362,65.0,12.0,90.0,14.0,64.0
9363,57.0,10.0,90.0,12.0,64.0
9364,65.0,8.0,180.0,12.0,64.0
9365,50.0,1.0,90.0,11.0,64.0
9366,62.0,15.0,90.0,7.0,64.0
9367,62.0,6.0,90.0,15.0,64.0
9368,77.0,7.0,90.0,4.0,64.0
9369,77.0,1.0,60.0,14.0,64.0
9370,62.0,76.0,90.0,12.0,64.0
9371,48.0,12.0,90.0,11.0,64.0
9372,60.0,9.0,90.0,7.0,64.0
9373,60.0,8.0,60.0,15.0,64.0
9374,76.0,6.0,90.0,4.0,64.0
9375,76.0,5.0,90.0,14.0,64.0
9376,65.0,15.0,120.0,13.0,64.0
9377,69.0,0.0,120.0,12.0,64.0
9378,60.0,55.0,120.0,12.0,64.0
9379,65.0,9.0,90.0,1.0,64.0
9380,46.0,9.0,60.0,11.0,64.0
9381,58.0,8.0,90.0,7.0,64.0
9382,58.0,10.0,60.0,15.0,64.0
9383,74.0,1.0,90.0,14.0,64.0
9384,74.0,10.0,90.0,4.0,64.0
9385,58.0,83.0,90.0,12.0,64.0
9386,45.0,23.0,60.0,11.0,64.0
9387,72.0,5.0,90.0,4.0,64.0
9388,57.0,1.0,90.0,7.0,64.0
9389,57.0,12.0,90.0,15.0,64.0
9390,72.0,6.0,90.0,14.0,64.0
9391,57.0,70.0,90.0,12.0,64.0
9392,46.0,4.0,90.0,11.0,64.0
9393,74.0,4.0,90.0,4.0,64.0
9394,58.0,17.0,60.0,15.0,64.0
9395,58.0,11.0,90.0,7.0,64.0
9396,74.0,11.0,90.0,14.0,64.0
9397,58.0,27.0,120.0,12.0,64.0
9398,77.0,27.0,90.0,2.0,64.0
9399,45.0,11.0,60.0,11.0,64.0
9400,72.0,1.0,90.0,4.0,64.0
9401,57.0,14.0,60.0,7.0,64.0
9402,57.0,14.0,60.0,15.0,64.0
9403,67.0,6.0,90.0,12.0,64.0
9404,64.0,0.0,90.0,12.0,64.0
9405,57.0,7.0,90.0,12.0,64.0
9406,72.0,10.0,90.0,14.0,64.0
9407,60.0,2.0,60.0,12.0,64.0
9408,72.0,58.0,90.0,2.0,64.0
9409,43.0,18.0,60.0,11.0,64.0
9410,55.0,24.0,90.0,7.0,64.0
9411,55.0,0.0,60.0,15.0,64.0
9412,70.0,6.0,60.0,4.0,64.0
9413,55.0,125.0,120.0,12.0,64.0
9414,70.0,6.0,60.0,14.0,64.0
9415,74.0,18.0,90.0,2.0,64.0
9416,53.0,3.0,240.0,7.0,64.0
9417,53.0,4.0,210.0,15.0,64.0
9418,72.0,4.0,120.0,4.0,64.0
9419,69.0,46.0,180.0,14.0,64.0
9420,41.0,9.0,210.0,11.0,64.0
9421,75.0,2.0,150.0,2.0,64.0
9422,72.0,25.0,150.0,3.0,64.0
9423,60.0,2.0,510.0,12.0,64.0
9424,81.0,22.0,120.0,1.0,64.0
9425,53.0,82.0,360.0,12.0,64.0
9426,63.0,0.0,480.0,12.0,64.0
9427,69.0,48.0,450.0,12.0,64.0
9428,79.0,21.0,120.0,1.0,64.0
9429,74.0,57.0,150.0,2.0,64.0
9430,70.0,12.0,120.0,3.0,64.0
9431,75.0,9.0,90.0,2.0,64.0
9432,72.0,1.0,90.0,4.0,64.0
9433,81.0,1.0,120.0,1.0,64.0
9434,72.0,34.0,90.0,3.0,64.0
9435,69.0,6.0,60.0,5.0,64.0
9436,65.0,8.0,90.0,6.0,64.0
9437,84.0,51.0,90.0,2.0,64.0
9438,81.0,90.0,90.0,2.0,64.0
9439,65.0,1.0,90.0,6.0,64.0
9440,72.0,7.0,90.0,4.0,64.0
9441,69.0,1.0,90.0,5.0,64.0
9442,75.0,114.0,60.0,2.0,64.0
9443,72.0,26.0,60.0,2.0,64.0
9444,72.0,13.0,90.0,4.0,64.0
9445,65.0,77.0,90.0,6.0,64.0
9446,69.0,1.0,90.0,5.0,64.0
9447,65.0,147.0,60.0,2.0,64.0
9448,41.0,2.0,270.0,11.0,64.0
9449,72.0,11.0,90.0,4.0,64.0
9450,65.0,9.0,90.0,6.0,64.0
9451,69.0,18.0,90.0,5.0,64.0
9452,53.0,64.0,480.0,12.0,64.0
9453,53.0,28.0,240.0,7.0,64.0
9454,53.0,41.0,270.0,15.0,64.0
9455,72.0,109.0,120.0,3.0,64.0
9456,81.0,7.0,120.0,1.0,64.0
9457,75.0,8.0,120.0,2.0,64.0
9458,74.0,0.0,120.0,2.0,64.0
9459,79.0,4.0,120.0,1.0,64.0
9460,70.0,2.0,120.0,3.0,64.0
9461,75.0,3.0,90.0,2.0,64.0
9462,65.0,2.0,90.0,6.0,64.0
9463,72.0,5.0,90.0,3.0,64.0
9464,72.0,13.0,90.0,4.0,64.0
9465,69.0,32.0,90.0,5.0,64.0
9466,81.0,85.0,120.0,1.0,64.0
9467,84.0,32.0,90.0,2.0,64.0
9468,72.0,17.0,90.0,4.0,64.0
9469,65.0,1.0,90.0,6.0,64.0
9470,69.0,8.0,90.0,5.0,64.0
9471,81.0,93.0,90.0,2.0,64.0
9472,75.0,114.0,90.0,2.0,64.0
9473,72.0,24.0,60.0,2.0,64.0
9474,72.0,1.0,90.0,4.0,64.0
9475,65.0,4.0,90.0,6.0,64.0
9476,69.0,81.0,90.0,5.0,64.0
9477,65.0,174.0,60.0,2.0,64.0
9478,62.0,17.0,540.0,12.0,64.0
9479,65.0,5.0,510.0,12.0,64.0
9480,46.0,48.0,270.0,15.0,64.0
9481,65.0,7.0,150.0,6.0,64.0
9482,74.0,6.0,120.0,2.0,64.0
9483,46.0,17.0,450.0,12.0,64.0
9484,74.0,14.0,120.0,4.0,64.0
9485,46.0,0.0,240.0,7.0,64.0
9486,70.0,31.0,150.0,5.0,64.0
9487,77.0,23.0,120.0,3.0,64.0
9488,34.0,55.0,180.0,11.0,64.0
9489,80.0,2.0,120.0,1.0,64.0
9490,68.0,55.0,480.0,12.0,64.0
9491,72.0,11.0,120.0,2.0,64.0
9492,79.0,2.0,150.0,1.0,64.0
9493,75.0,14.0,150.0,3.0,64.0
9494,80.0,4.0,90.0,1.0,64.0
9495,65.0,4.0,90.0,5.0,64.0
9496,74.0,88.0,120.0,2.0,64.0
9497,74.0,15.0,90.0,4.0,64.0
9498,58.0,13.0,90.0,6.0,64.0
9499,77.0,1.0,90.0,3.0,64.0
9500,89.0,9.0,90.0,1.0,64.0
9501,65.0,76.0,120.0,5.0,64.0
9502,86.0,10.0,90.0,1.0,64.0
9503,58.0,7.0,90.0,6.0,64.0
9504,74.0,23.0,60.0,4.0,64.0
9505,80.0,117.0,60.0,1.0,64.0
9506,77.0,9.0,60.0,1.0,64.0
9507,74.0,26.0,90.0,4.0,64.0
9508,65.0,56.0,120.0,5.0,64.0
9509,58.0,25.0,90.0,6.0,64.0
9510,70.0,132.0,60.0,1.0,64.0
9511,74.0,35.0,90.0,4.0,64.0
9512,34.0,13.0,270.0,11.0,64.0
9513,46.0,36.0,270.0,15.0,64.0
9514,58.0,19.0,120.0,6.0,64.0
9515,74.0,3.0,120.0,2.0,64.0
9516,46.0,9.0,270.0,7.0,64.0
9517,77.0,1.0,120.0,3.0,64.0
9518,65.0,0.0,90.0,5.0,64.0
9519,46.0,65.0,480.0,12.0,64.0
9520,80.0,110.0,120.0,1.0,64.0
9521,75.0,12.0,120.0,3.0,64.0
9522,72.0,9.0,120.0,2.0,64.0
9523,79.0,1.0,120.0,1.0,64.0
9524,74.0,10.0,90.0,4.0,64.0
9525,80.0,3.0,120.0,1.0,64.0
9526,58.0,3.0,90.0,6.0,64.0
9527,77.0,107.0,120.0,3.0,64.0
9528,74.0,0.0,90.0,2.0,64.0
9529,65.0,7.0,90.0,5.0,64.0
9530,89.0,47.0,90.0,1.0,64.0
9531,74.0,1.0,90.0,4.0,64.0
9532,65.0,8.0,90.0,5.0,64.0
9533,58.0,2.0,90.0,6.0,64.0
9534,86.0,99.0,90.0,1.0,64.0
9535,80.0,109.0,60.0,1.0,64.0
9536,58.0,1.0,90.0,6.0,64.0
9537,65.0,99.0,90.0,5.0,64.0
9538,77.0,24.0,60.0,1.0,64.0
9539,74.0,4.0,90.0,4.0,64.0
9540,70.0,124.0,60.0,1.0,64.0
9541,62.0,22.0,570.0,12.0,64.0
9542,35.0,27.0,270.0,11.0,64.0
9543,79.0,6.0,150.0,1.0,64.0
9544,74.0,42.0,90.0,4.0,64.0
9545,67.0,11.0,120.0,5.0,64.0
9546,47.0,5.0,270.0,15.0,64.0
9547,62.0,40.0,180.0,6.0,64.0
9548,47.0,27.0,480.0,12.0,64.0
9549,47.0,51.0,270.0,7.0,64.0
9550,77.0,50.0,120.0,3.0,64.0
9551,74.0,1.0,120.0,2.0,64.0
9552,65.0,18.0,540.0,12.0,64.0
9553,67.0,2.0,510.0,12.0,64.0
9554,80.0,6.0,120.0,1.0,64.0
9555,72.0,17.0,120.0,2.0,64.0
9556,75.0,2.0,120.0,3.0,64.0
9557,59.0,1.0,120.0,6.0,64.0
9558,67.0,2.0,120.0,5.0,64.0
9559,74.0,7.0,90.0,4.0,64.0
9560,77.0,2.0,90.0,3.0,64.0
9561,79.0,97.0,120.0,1.0,64.0
9562,74.0,4.0,120.0,2.0,64.0
9563,86.0,47.0,90.0,3.0,64.0
9564,59.0,15.0,90.0,6.0,64.0
9565,67.0,1.0,90.0,5.0,64.0
9566,74.0,7.0,90.0,4.0,64.0
9567,83.0,98.0,90.0,3.0,64.0
9568,77.0,123.0,90.0,3.0,64.0
9569,67.0,88.0,120.0,5.0,64.0
9570,74.0,3.0,90.0,4.0,64.0
9571,59.0,6.0,90.0,6.0,64.0
9572,74.0,5.0,90.0,3.0,64.0
9573,67.0,149.0,60.0,3.0,64.0
9574,74.0,3.0,120.0,4.0,64.0
9575,35.0,39.0,300.0,11.0,64.0
9576,59.0,23.0,120.0,6.0,64.0
9577,47.0,13.0,270.0,7.0,64.0
9578,67.0,0.0,90.0,5.0,64.0
9579,47.0,28.0,540.0,12.0,64.0
9580,74.0,2.0,120.0,2.0,64.0
9581,47.0,14.0,270.0,15.0,64.0
9582,77.0,18.0,120.0,3.0,64.0
9583,79.0,99.0,150.0,1.0,64.0
9584,75.0,8.0,120.0,3.0,64.0
9585,72.0,3.0,150.0,2.0,64.0
9586,80.0,7.0,120.0,1.0,64.0
9587,74.0,7.0,90.0,4.0,64.0
9588,77.0,84.0,120.0,3.0,64.0
9589,59.0,12.0,90.0,6.0,64.0
9590,67.0,7.0,120.0,5.0,64.0
9591,79.0,1.0,120.0,1.0,64.0
9592,74.0,11.0,120.0,2.0,64.0
9593,86.0,91.0,90.0,3.0,64.0
9594,74.0,0.0,90.0,4.0,64.0
9595,59.0,8.0,90.0,6.0,64.0
9596,67.0,93.0,120.0,5.0,64.0
9597,83.0,14.0,90.0,3.0,64.0
9598,77.0,121.0,90.0,3.0,64.0
9599,74.0,13.0,120.0,4.0,64.0
9600,59.0,11.0,90.0,6.0,64.0
9601,74.0,2.0,90.0,3.0,64.0
9602,67.0,78.0,120.0,5.0,64.0
9603,67.0,173.0,90.0,3.0,64.0
9604,58.0,71.0,570.0,12.0,64.0
9605,36.0,35.0,270.0,11.0,64.0
9606,64.0,3.0,510.0,12.0,64.0
9607,48.0,38.0,300.0,15.0,64.0
9608,72.0,24.0,210.0,2.0,64.0
9609,67.0,18.0,120.0,6.0,64.0
9610,79.0,6.0,150.0,1.0,64.0
9611,70.0,17.0,150.0,4.0,64.0
9612,48.0,34.0,480.0,12.0,64.0
9613,48.0,5.0,270.0,7.0,64.0
9614,76.0,44.0,150.0,3.0,64.0
9615,76.0,9.0,120.0,5.0,64.0
9616,67.0,4.0,510.0,12.0,64.0
9617,65.0,2.0,120.0,6.0,64.0
9618,74.0,12.0,120.0,5.0,64.0
9619,69.0,2.0,120.0,4.0,64.0
9620,79.0,34.0,180.0,1.0,64.0
9621,67.0,21.0,120.0,6.0,64.0
9622,70.0,24.0,90.0,4.0,64.0
9623,76.0,28.0,150.0,5.0,64.0
9624,72.0,28.0,210.0,2.0,64.0
9625,76.0,7.0,150.0,3.0,64.0
9626,79.0,9.0,90.0,4.0,64.0
9627,76.0,11.0,150.0,3.0,64.0
9628,79.0,27.0,180.0,1.0,64.0
9629,72.0,4.0,180.0,2.0,64.0
9630,76.0,47.0,120.0,4.0,64.0
9631,70.0,122.0,90.0,4.0,64.0
9632,79.0,10.0,180.0,1.0,64.0
9633,67.0,78.0,90.0,4.0,64.0
9634,76.0,22.0,150.0,3.0,64.0
9635,72.0,21.0,180.0,2.0,64.0
9636,60.0,146.0,90.0,4.0,64.0
9637,36.0,33.0,270.0,11.0,64.0
9638,79.0,7.0,180.0,1.0,64.0
9639,67.0,7.0,120.0,6.0,64.0
9640,72.0,13.0,180.0,2.0,64.0
9641,48.0,76.0,510.0,12.0,64.0
9642,76.0,14.0,180.0,3.0,64.0
9643,76.0,15.0,120.0,5.0,64.0
9644,48.0,8.0,300.0,7.0,64.0
9645,48.0,25.0,300.0,15.0,64.0
9646,70.0,28.0,120.0,4.0,64.0
9647,74.0,20.0,90.0,5.0,64.0
9648,65.0,18.0,120.0,6.0,64.0
9649,69.0,17.0,120.0,4.0,64.0
9650,76.0,24.0,150.0,5.0,64.0
9651,67.0,23.0,120.0,6.0,64.0
9652,79.0,15.0,180.0,1.0,64.0
9653,72.0,21.0,180.0,2.0,64.0
9654,76.0,8.0,180.0,3.0,64.0
9655,70.0,31.0,90.0,4.0,64.0
9656,79.0,64.0,60.0,4.0,64.0
9657,76.0,9.0,180.0,3.0,64.0
9658,79.0,10.0,150.0,1.0,64.0
9659,72.0,27.0,180.0,2.0,64.0
9660,76.0,53.0,90.0,4.0,64.0
9661,70.0,118.0,90.0,4.0,64.0
9662,67.0,82.0,90.0,4.0,64.0
9663,76.0,10.0,180.0,3.0,64.0
9664,79.0,6.0,150.0,1.0,64.0
9665,72.0,11.0,180.0,2.0,64.0
9666,60.0,153.0,90.0,4.0,64.0
9667,60.0,3.0,540.0,12.0,64.0
9668,33.0,22.0,300.0,11.0,64.0
9669,63.0,6.0,510.0,12.0,64.0
9670,75.0,16.0,120.0,6.0,64.0
9671,75.0,24.0,210.0,2.0,64.0
9672,72.0,23.0,120.0,4.0,64.0
9673,45.0,60.0,300.0,7.0,64.0
9674,66.0,14.0,480.0,12.0,64.0
9675,72.0,1.0,180.0,3.0,64.0
9676,66.0,46.0,150.0,5.0,64.0
9677,45.0,12.0,210.0,15.0,64.0
9678,84.0,9.0,180.0,1.0,64.0
9679,45.0,77.0,480.0,12.0,64.0
9680,74.0,4.0,150.0,6.0,64.0
9681,70.0,4.0,120.0,4.0,64.0
9682,65.0,27.0,120.0,5.0,64.0
9683,75.0,25.0,120.0,6.0,64.0
9684,72.0,31.0,150.0,4.0,64.0
9685,84.0,7.0,180.0,1.0,64.0
9686,72.0,2.0,180.0,3.0,64.0
9687,75.0,6.0,180.0,2.0,64.0
9688,66.0,1.0,120.0,5.0,64.0
9689,75.0,54.0,60.0,5.0,64.0
9690,84.0,16.0,180.0,1.0,64.0
9691,72.0,59.0,90.0,5.0,64.0
9692,75.0,7.0,180.0,2.0,64.0
9693,72.0,18.0,150.0,3.0,64.0
9694,69.0,95.0,90.0,5.0,64.0
9695,66.0,103.0,60.0,5.0,64.0
9696,84.0,4.0,180.0,1.0,64.0
9697,72.0,12.0,150.0,3.0,64.0
9698,75.0,10.0,180.0,2.0,64.0
9699,63.0,173.0,90.0,5.0,64.0
9700,33.0,2.0,270.0,11.0,64.0
9701,84.0,46.0,210.0,1.0,64.0
9702,45.0,8.0,390.0,7.0,64.0
9703,72.0,17.0,180.0,3.0,64.0
9704,66.0,50.0,120.0,5.0,64.0
9705,75.0,1.0,180.0,2.0,64.0
9706,45.0,69.0,270.0,15.0,64.0
9707,45.0,88.0,480.0,12.0,64.0
9708,75.0,4.0,120.0,6.0,64.0
9709,72.0,4.0,120.0,4.0,64.0
9710,74.0,1.0,120.0,6.0,64.0
9711,65.0,7.0,120.0,5.0,64.0
9712,70.0,9.0,120.0,4.0,64.0
9713,75.0,9.0,150.0,6.0,64.0
9714,84.0,13.0,180.0,1.0,64.0
9715,72.0,9.0,150.0,3.0,64.0
9716,66.0,51.0,90.0,5.0,64.0
9717,75.0,11.0,180.0,2.0,64.0
9718,72.0,2.0,150.0,4.0,64.0
9719,75.0,55.0,60.0,5.0,64.0
9720,72.0,21.0,150.0,3.0,64.0
9721,84.0,22.0,180.0,1.0,64.0
9722,75.0,99.0,210.0,2.0,64.0
9723,72.0,60.0,90.0,5.0,64.0
9724,69.0,6.0,90.0,5.0,64.0
9725,66.0,106.0,60.0,5.0,64.0
9726,84.0,7.0,180.0,1.0,64.0
9727,72.0,0.0,180.0,3.0,64.0
9728,75.0,3.0,180.0,2.0,64.0
9729,63.0,181.0,60.0,5.0,64.0
9730,59.0,62.0,540.0,12.0,64.0
9731,32.0,27.0,270.0,11.0,64.0
9732,83.0,32.0,210.0,1.0,64.0
9733,77.0,40.0,120.0,4.0,64.0
9734,68.0,0.0,120.0,5.0,64.0
9735,62.0,3.0,120.0,6.0,64.0
9736,44.0,1.0,510.0,12.0,64.0
9737,77.0,0.0,210.0,2.0,64.0
9738,44.0,39.0,270.0,15.0,64.0
9739,74.0,39.0,150.0,3.0,64.0
9740,44.0,3.0,300.0,7.0,64.0
9741,62.0,4.0,510.0,12.0,64.0
9742,65.0,0.0,480.0,12.0,64.0
9743,70.0,12.0,120.0,5.0,64.0
9744,60.0,7.0,120.0,6.0,64.0
9745,75.0,2.0,120.0,4.0,64.0
9746,68.0,3.0,150.0,5.0,64.0
9747,62.0,40.0,90.0,6.0,64.0
9748,77.0,11.0,120.0,4.0,64.0
9749,83.0,10.0,180.0,1.0,64.0
9750,77.0,15.0,180.0,2.0,64.0
9751,74.0,44.0,120.0,3.0,64.0
9752,71.0,66.0,90.0,6.0,64.0
9753,74.0,32.0,120.0,3.0,64.0
9754,68.0,33.0,90.0,6.0,64.0
9755,83.0,13.0,150.0,1.0,64.0
9756,77.0,23.0,180.0,2.0,64.0
9757,65.0,121.0,90.0,6.0,64.0
9758,74.0,23.0,150.0,3.0,64.0
9759,62.0,57.0,90.0,6.0,64.0
9760,83.0,16.0,150.0,1.0,64.0
9761,77.0,161.0,180.0,2.0,64.0
9762,56.0,1.0,90.0,6.0,64.0
9763,32.0,12.0,270.0,11.0,64.0
9764,77.0,49.0,150.0,4.0,64.0
9765,83.0,8.0,180.0,1.0,64.0
9766,74.0,3.0,150.0,3.0,64.0
9767,77.0,40.0,210.0,2.0,64.0
9768,62.0,23.0,120.0,6.0,64.0
9769,68.0,12.0,90.0,5.0,64.0
9770,44.0,25.0,600.0,12.0,64.0
9771,44.0,0.0,330.0,15.0,64.0
9772,44.0,17.0,330.0,7.0,64.0
9773,70.0,1.0,120.0,5.0,64.0
9774,60.0,0.0,120.0,6.0,64.0
9775,75.0,78.0,120.0,4.0,64.0
9776,62.0,15.0,90.0,6.0,64.0
9777,68.0,50.0,150.0,5.0,64.0
9778,74.0,8.0,120.0,3.0,64.0
9779,77.0,3.0,120.0,4.0,64.0
9780,77.0,9.0,180.0,2.0,64.0
9781,83.0,8.0,180.0,1.0,64.0
9782,71.0,144.0,60.0,6.0,64.0
9783,74.0,6.0,120.0,3.0,64.0
9784,83.0,37.0,150.0,1.0,64.0
9785,77.0,3.0,150.0,2.0,64.0
9786,68.0,25.0,90.0,6.0,64.0
9787,65.0,102.0,90.0,6.0,64.0
9788,62.0,81.0,60.0,6.0,64.0
9789,83.0,4.0,150.0,1.0,64.0
9790,74.0,12.0,150.0,3.0,64.0
9791,77.0,34.0,150.0,2.0,64.0
9792,56.0,166.0,90.0,6.0,64.0
9793,40.0,49.0,180.0,11.0,64.0
9794,40.0,18.0,150.0,12.0,64.0
9795,58.0,1.0,600.0,12.0,64.0
9796,40.0,2.0,120.0,15.0,64.0
9797,79.0,10.0,120.0,2.0,64.0
9798,73.0,6.0,120.0,3.0,64.0
9799,61.0,3.0,600.0,12.0,64.0
9800,55.0,1.0,600.0,12.0,64.0
9801,82.0,4.0,120.0,1.0,64.0
9802,40.0,8.0,120.0,7.0,64.0
9803,55.0,14.0,150.0,6.0,64.0
9804,81.0,5.0,150.0,1.0,64.0
9805,72.0,19.0,150.0,3.0,64.0
9806,77.0,1.0,120.0,2.0,64.0
9807,41.0,14.0,120.0,15.0,64.0
9808,41.0,14.0,90.0,7.0,64.0
9809,79.0,0.0,120.0,2.0,64.0
9810,40.0,47.0,60.0,15.0,64.0
9811,73.0,18.0,120.0,3.0,64.0
9812,82.0,20.0,120.0,1.0,64.0
9813,40.0,21.0,30.0,7.0,64.0
9814,40.0,51.0,150.0,12.0,64.0
9815,40.0,4.0,120.0,11.0,64.0
9816,61.0,14.0,60.0,15.0,64.0
9817,61.0,93.0,90.0,7.0,64.0
9818,40.0,26.0,180.0,12.0,64.0
9819,40.0,2.0,120.0,11.0,64.0
9820,67.0,44.0,120.0,6.0,64.0
9821,58.0,44.0,60.0,15.0,64.0
9822,73.0,3.0,120.0,4.0,64.0
9823,70.0,6.0,120.0,5.0,64.0
9824,58.0,1.0,90.0,7.0,64.0
9825,68.0,71.0,120.0,6.0,64.0
9826,75.0,2.0,120.0,4.0,64.0
9827,55.0,5.0,90.0,15.0,64.0
9828,72.0,2.0,120.0,5.0,64.0
9829,55.0,34.0,90.0,7.0,64.0
9830,40.0,0.0,120.0,11.0,64.0
9831,73.0,25.0,120.0,4.0,64.0
9832,67.0,9.0,90.0,6.0,64.0
9833,52.0,8.0,90.0,15.0,64.0
9834,52.0,12.0,90.0,7.0,64.0
9835,70.0,48.0,120.0,5.0,64.0
9836,40.0,12.0,180.0,12.0,64.0
9837,46.0,12.0,60.0,7.0,64.0
9838,46.0,162.0,60.0,15.0,64.0
9839,40.0,6.0,180.0,11.0,64.0
9840,73.0,5.0,120.0,3.0,64.0
9841,79.0,3.0,120.0,2.0,64.0
9842,40.0,61.0,180.0,12.0,64.0
9843,82.0,34.0,120.0,1.0,64.0
9844,40.0,4.0,120.0,7.0,64.0
9845,40.0,3.0,120.0,15.0,64.0
9846,77.0,3.0,120.0,2.0,64.0
9847,72.0,0.0,120.0,3.0,64.0
9848,81.0,25.0,150.0,1.0,64.0
9849,41.0,11.0,120.0,7.0,64.0
9850,41.0,9.0,120.0,15.0,64.0
9851,40.0,17.0,120.0,11.0,64.0
9852,79.0,8.0,120.0,2.0,64.0
9853,73.0,8.0,120.0,3.0,64.0
9854,40.0,44.0,60.0,15.0,64.0
9855,82.0,36.0,120.0,1.0,64.0
9856,40.0,14.0,30.0,7.0,64.0
9857,40.0,15.0,180.0,12.0,64.0
9858,61.0,131.0,60.0,7.0,64.0
9859,61.0,3.0,60.0,15.0,64.0
9860,40.0,7.0,120.0,11.0,64.0
9861,73.0,37.0,150.0,4.0,64.0
9862,67.0,8.0,90.0,6.0,64.0
9863,58.0,1.0,90.0,7.0,64.0
9864,70.0,19.0,120.0,5.0,64.0
9865,40.0,14.0,180.0,12.0,64.0
9866,58.0,21.0,90.0,15.0,64.0
9867,68.0,2.0,120.0,6.0,64.0
9868,75.0,7.0,120.0,4.0,64.0
9869,55.0,19.0,90.0,7.0,64.0
9870,72.0,74.0,120.0,5.0,64.0
9871,55.0,13.0,60.0,15.0,64.0
9872,40.0,3.0,120.0,11.0,64.0
9873,67.0,18.0,120.0,6.0,64.0
9874,73.0,5.0,120.0,4.0,64.0
9875,52.0,11.0,60.0,7.0,64.0
9876,52.0,31.0,90.0,15.0,64.0
9877,70.0,57.0,150.0,5.0,64.0
9878,40.0,3.0,210.0,12.0,64.0
9879,46.0,155.0,90.0,7.0,64.0
9880,46.0,17.0,60.0,15.0,64.0
9881,41.0,13.0,180.0,11.0,64.0
9882,82.0,9.0,120.0,1.0,64.0
9883,77.0,6.0,120.0,2.0,64.0
9884,41.0,20.0,210.0,12.0,64.0
9885,41.0,16.0,120.0,15.0,64.0
9886,73.0,2.0,120.0,3.0,64.0
9887,41.0,32.0,150.0,7.0,64.0
9888,53.0,1.0,570.0,12.0,64.0
9889,58.0,0.0,570.0,12.0,64.0
9890,61.0,2.0,570.0,12.0,64.0
9891,75.0,2.0,150.0,2.0,64.0
9892,81.0,1.0,150.0,1.0,64.0
9893,42.0,10.0,90.0,15.0,64.0
9894,42.0,20.0,90.0,7.0,64.0
9895,72.0,35.0,120.0,3.0,64.0
9896,77.0,20.0,90.0,2.0,64.0
9897,41.0,25.0,90.0,15.0,64.0
9898,82.0,31.0,150.0,1.0,64.0
9899,73.0,8.0,120.0,3.0,64.0
9900,41.0,26.0,60.0,7.0,64.0
9901,41.0,3.0,180.0,12.0,64.0
9902,41.0,24.0,120.0,11.0,64.0
9903,61.0,5.0,60.0,15.0,64.0
9904,61.0,146.0,60.0,7.0,64.0
9905,41.0,2.0,120.0,11.0,64.0
9906,58.0,3.0,90.0,15.0,64.0
9907,73.0,34.0,120.0,4.0,64.0
9908,58.0,2.0,90.0,7.0,64.0
9909,65.0,24.0,120.0,6.0,64.0
9910,70.0,1.0,90.0,5.0,64.0
9911,41.0,27.0,150.0,12.0,64.0
9912,53.0,33.0,90.0,15.0,64.0
9913,66.0,4.0,120.0,6.0,64.0
9914,72.0,62.0,120.0,5.0,64.0
9915,75.0,2.0,120.0,4.0,64.0
9916,53.0,1.0,60.0,7.0,64.0
9917,41.0,12.0,120.0,11.0,64.0
9918,73.0,11.0,120.0,4.0,64.0
9919,49.0,13.0,60.0,15.0,64.0
9920,70.0,59.0,120.0,5.0,64.0
9921,49.0,17.0,60.0,7.0,64.0
9922,65.0,3.0,90.0,6.0,64.0
9923,41.0,9.0,180.0,12.0,64.0
9924,46.0,20.0,60.0,15.0,64.0
9925,46.0,161.0,90.0,7.0,64.0
9926,41.0,11.0,180.0,11.0,64.0
9927,41.0,5.0,120.0,15.0,64.0
9928,73.0,2.0,120.0,3.0,64.0
9929,77.0,2.0,120.0,2.0,64.0
9930,41.0,45.0,120.0,7.0,64.0
9931,82.0,1.0,120.0,1.0,64.0
9932,41.0,39.0,180.0,12.0,64.0
9933,42.0,4.0,120.0,15.0,64.0
9934,72.0,4.0,120.0,3.0,64.0
9935,75.0,20.0,150.0,2.0,64.0
9936,81.0,4.0,120.0,1.0,64.0
9937,42.0,16.0,120.0,7.0,64.0
9938,73.0,0.0,120.0,3.0,64.0
9939,77.0,12.0,120.0,2.0,64.0
9940,41.0,48.0,60.0,15.0,64.0
9941,41.0,35.0,30.0,7.0,64.0
9942,82.0,38.0,150.0,1.0,64.0
9943,41.0,11.0,120.0,11.0,64.0
9944,41.0,9.0,180.0,12.0,64.0
9945,61.0,4.0,60.0,7.0,64.0
9946,61.0,143.0,60.0,15.0,64.0
9947,41.0,4.0,120.0,11.0,64.0
9948,73.0,32.0,120.0,4.0,64.0
9949,65.0,11.0,120.0,6.0,64.0
9950,41.0,24.0,150.0,12.0,64.0
9951,58.0,2.0,90.0,7.0,64.0
9952,70.0,13.0,120.0,5.0,64.0
9953,58.0,9.0,90.0,15.0,64.0
9954,66.0,10.0,120.0,6.0,64.0
9955,53.0,29.0,60.0,15.0,64.0
9956,53.0,1.0,60.0,7.0,64.0
9957,72.0,80.0,120.0,5.0,64.0
9958,75.0,0.0,120.0,4.0,64.0
9959,41.0,9.0,120.0,11.0,64.0
9960,49.0,1.0,90.0,7.0,64.0
9961,49.0,22.0,90.0,15.0,64.0
9962,65.0,4.0,90.0,6.0,64.0
9963,73.0,19.0,120.0,4.0,64.0
9964,70.0,62.0,120.0,5.0,64.0
9965,41.0,10.0,180.0,12.0,64.0
9966,46.0,167.0,90.0,7.0,64.0
9967,46.0,3.0,60.0,15.0,64.0
9968,41.0,23.0,180.0,11.0,64.0
9969,79.0,23.0,150.0,2.0,64.0
9970,41.0,13.0,180.0,12.0,64.0
9971,82.0,8.0,120.0,1.0,64.0
9972,41.0,15.0,120.0,15.0,64.0
9973,76.0,2.0,120.0,3.0,64.0
9974,41.0,6.0,120.0,7.0,64.0
9975,61.0,3.0,570.0,12.0,64.0
9976,52.0,0.0,570.0,12.0,64.0
9977,55.0,4.0,540.0,12.0,64.0
9978,58.0,0.0,570.0,12.0,64.0
9979,81.0,4.0,150.0,1.0,64.0
9980,73.0,8.0,120.0,3.0,64.0
9981,42.0,26.0,90.0,15.0,64.0
9982,42.0,10.0,120.0,7.0,64.0
9983,78.0,24.0,150.0,2.0,64.0
9984,41.0,28.0,120.0,11.0,64.0
9985,76.0,2.0,120.0,3.0,64.0
9986,82.0,39.0,150.0,1.0,64.0
9987,41.0,40.0,60.0,15.0,64.0
9988,41.0,16.0,30.0,7.0,64.0
9989,79.0,18.0,120.0,2.0,64.0
9990,41.0,133.0,180.0,12.0,64.0
9991,64.0,4.0,60.0,15.0,64.0
9992,64.0,1.0,60.0,7.0,64.0
9993,41.0,9.0,120.0,11.0,64.0
9994,73.0,48.0,120.0,4.0,64.0
9995,61.0,0.0,90.0,15.0,64.0
9996,61.0,1.0,90.0,7.0,64.0
9997,70.0,13.0,120.0,5.0,64.0
9998,67.0,16.0,90.0,6.0,64.0
9999,41.0,10.0,180.0,12.0,64.0
10000,75.0,7.0,120.0,4.0,64.0
10001,58.0,19.0,90.0,15.0,64.0
10002,65.0,12.0,90.0,6.0,64.0
10003,72.0,58.0,120.0,5.0,64.0
10004,58.0,6.0,60.0,7.0,64.0
10005,41.0,18.0,120.0,11.0,64.0
10006,73.0,1.0,120.0,4.0,64.0
10007,70.0,54.0,120.0,5.0,64.0
10008,67.0,5.0,90.0,6.0,64.0
10009,55.0,12.0,90.0,7.0,64.0
10010,55.0,23.0,60.0,15.0,64.0
10011,41.0,11.0,150.0,12.0,64.0
10012,52.0,180.0,60.0,7.0,64.0
10013,52.0,2.0,60.0,15.0,64.0
10014,41.0,23.0,180.0,11.0,64.0
10015,41.0,0.0,150.0,7.0,64.0
10016,79.0,29.0,150.0,2.0,64.0
10017,41.0,35.0,180.0,12.0,64.0
10018,76.0,2.0,120.0,3.0,64.0
10019,41.0,3.0,120.0,15.0,64.0
10020,82.0,16.0,120.0,1.0,64.0
10021,81.0,18.0,120.0,1.0,64.0
10022,42.0,0.0,120.0,7.0,64.0
10023,73.0,10.0,120.0,3.0,64.0
10024,42.0,11.0,120.0,15.0,64.0
10025,78.0,12.0,150.0,2.0,64.0
10026,41.0,35.0,90.0,11.0,64.0
10027,76.0,2.0,120.0,3.0,64.0
10028,41.0,24.0,30.0,7.0,64.0
10029,82.0,38.0,150.0,1.0,64.0
10030,41.0,32.0,60.0,15.0,64.0
10031,79.0,9.0,120.0,2.0,64.0
10032,41.0,6.0,180.0,12.0,64.0
10033,64.0,3.0,60.0,7.0,64.0
10034,64.0,121.0,60.0,15.0,64.0
10035,41.0,33.0,120.0,11.0,64.0
10036,61.0,11.0,60.0,7.0,64.0
10037,70.0,6.0,120.0,5.0,64.0
10038,73.0,46.0,120.0,4.0,64.0
10039,41.0,8.0,180.0,12.0,64.0
10040,61.0,1.0,90.0,15.0,64.0
10041,67.0,5.0,120.0,6.0,64.0
10042,72.0,8.0,120.0,5.0,64.0
10043,75.0,59.0,120.0,4.0,64.0
10044,58.0,31.0,60.0,7.0,64.0
10045,65.0,7.0,90.0,6.0,64.0
10046,58.0,8.0,60.0,15.0,64.0
10047,41.0,5.0,120.0,11.0,64.0
10048,55.0,10.0,60.0,7.0,64.0
10049,70.0,35.0,150.0,5.0,64.0
10050,55.0,23.0,60.0,15.0,64.0
10051,73.0,22.0,120.0,4.0,64.0
10052,67.0,23.0,90.0,6.0,64.0
10053,41.0,7.0,180.0,12.0,64.0
10054,52.0,3.0,60.0,7.0,64.0
10055,52.0,180.0,60.0,15.0,64.0
10056,41.0,26.0,180.0,11.0,64.0
10057,58.0,3.0,570.0,12.0,64.0
10058,53.0,0.0,570.0,12.0,64.0
10059,61.0,7.0,570.0,12.0,64.0
10060,73.0,3.0,120.0,3.0,64.0
10061,41.0,36.0,180.0,12.0,64.0
10062,82.0,12.0,120.0,1.0,64.0
10063,41.0,6.0,150.0,7.0,64.0
10064,77.0,8.0,120.0,2.0,64.0
10065,41.0,0.0,150.0,15.0,64.0
10066,81.0,29.0,120.0,1.0,64.0
10067,72.0,2.0,120.0,3.0,64.0
10068,42.0,28.0,90.0,7.0,64.0
10069,75.0,0.0,120.0,2.0,64.0
10070,42.0,6.0,120.0,15.0,64.0
10071,41.0,49.0,90.0,11.0,64.0
10072,73.0,18.0,150.0,3.0,64.0
10073,82.0,5.0,150.0,1.0,64.0
10074,41.0,37.0,30.0,7.0,64.0
10075,41.0,38.0,150.0,12.0,64.0
10076,77.0,2.0,120.0,2.0,64.0
10077,41.0,8.0,60.0,15.0,64.0
10078,65.0,111.0,90.0,7.0,64.0
10079,65.0,0.0,60.0,15.0,64.0
10080,41.0,18.0,90.0,11.0,64.0
10081,73.0,7.0,120.0,4.0,64.0
10082,61.0,2.0,90.0,7.0,64.0
10083,41.0,9.0,180.0,12.0,64.0
10084,65.0,47.0,120.0,6.0,64.0
10085,70.0,5.0,120.0,5.0,64.0
10086,61.0,18.0,90.0,15.0,64.0
10087,75.0,4.0,120.0,4.0,64.0
10088,72.0,39.0,120.0,5.0,64.0
10089,58.0,26.0,90.0,7.0,64.0
10090,66.0,12.0,120.0,6.0,64.0
10091,58.0,18.0,60.0,15.0,64.0
10092,41.0,22.0,90.0,11.0,64.0
10093,73.0,10.0,120.0,4.0,64.0
10094,53.0,20.0,60.0,7.0,64.0
10095,65.0,14.0,120.0,6.0,64.0
10096,70.0,27.0,120.0,5.0,64.0
10097,53.0,15.0,60.0,15.0,64.0
10098,41.0,185.0,180.0,12.0,64.0
10099,49.0,23.0,60.0,7.0,64.0
10100,49.0,1.0,60.0,15.0,64.0
10101,41.0,6.0,180.0,11.0,64.0
10102,41.0,56.0,180.0,12.0,64.0
10103,82.0,3.0,120.0,1.0,64.0
10104,41.0,31.0,120.0,7.0,64.0
10105,73.0,5.0,120.0,3.0,64.0
10106,77.0,10.0,120.0,2.0,64.0
10107,41.0,4.0,120.0,15.0,64.0
10108,81.0,14.0,120.0,1.0,64.0
10109,72.0,27.0,150.0,3.0,64.0
10110,75.0,5.0,150.0,2.0,64.0
10111,42.0,8.0,120.0,7.0,64.0
10112,42.0,2.0,120.0,15.0,64.0
10113,41.0,38.0,90.0,11.0,64.0
10114,82.0,28.0,150.0,1.0,64.0
10115,73.0,18.0,120.0,3.0,64.0
10116,77.0,0.0,120.0,2.0,64.0
10117,41.0,13.0,180.0,12.0,64.0
10118,41.0,30.0,30.0,7.0,64.0
10119,41.0,12.0,60.0,15.0,64.0
10120,65.0,11.0,60.0,7.0,64.0
10121,65.0,100.0,60.0,15.0,64.0
10122,41.0,19.0,120.0,11.0,64.0
10123,41.0,10.0,180.0,12.0,64.0
10124,61.0,18.0,60.0,15.0,64.0
10125,70.0,56.0,120.0,5.0,64.0
10126,73.0,5.0,120.0,4.0,64.0
10127,61.0,22.0,90.0,7.0,64.0
10128,65.0,1.0,120.0,6.0,64.0
10129,75.0,25.0,90.0,4.0,64.0
10130,72.0,55.0,120.0,5.0,64.0
10131,58.0,14.0,90.0,15.0,64.0
10132,66.0,5.0,90.0,6.0,64.0
10133,58.0,9.0,60.0,7.0,64.0
10134,41.0,6.0,120.0,11.0,64.0
10135,73.0,68.0,120.0,4.0,64.0
10136,70.0,16.0,90.0,5.0,64.0
10137,53.0,13.0,60.0,7.0,64.0
10138,53.0,22.0,60.0,15.0,64.0
10139,65.0,3.0,120.0,6.0,64.0
10140,41.0,12.0,180.0,12.0,64.0
10141,49.0,1.0,60.0,7.0,64.0
10142,49.0,167.0,60.0,15.0,64.0
10143,29.0,4.0,180.0,11.0,64.0
10144,51.0,2.0,570.0,12.0,64.0
10145,57.0,1.0,570.0,12.0,64.0
10146,60.0,3.0,570.0,12.0,64.0
10147,41.0,42.0,150.0,7.0,64.0
10148,41.0,3.0,120.0,15.0,64.0
10149,72.0,0.0,120.0,3.0,64.0
10150,41.0,35.0,180.0,12.0,64.0
10151,75.0,4.0,120.0,2.0,64.0
10152,81.0,2.0,120.0,1.0,64.0
10153,42.0,3.0,90.0,7.0,64.0
10154,42.0,27.0,90.0,15.0,64.0
10155,70.0,21.0,120.0,3.0,64.0
10156,74.0,4.0,120.0,2.0,64.0
10157,82.0,16.0,150.0,1.0,64.0
10158,41.0,16.0,60.0,7.0,64.0
10159,29.0,19.0,120.0,11.0,64.0
10160,41.0,28.0,60.0,15.0,64.0
10161,41.0,25.0,180.0,12.0,64.0
10162,72.0,28.0,150.0,3.0,64.0
10163,75.0,10.0,120.0,2.0,64.0
10164,81.0,26.0,90.0,1.0,64.0
10165,66.0,95.0,90.0,7.0,64.0
10166,66.0,5.0,90.0,15.0,64.0
10167,29.0,22.0,90.0,11.0,64.0
10168,63.0,11.0,90.0,7.0,64.0
10169,41.0,40.0,150.0,12.0,64.0
10170,72.0,26.0,120.0,4.0,64.0
10171,63.0,19.0,120.0,6.0,64.0
10172,63.0,7.0,90.0,15.0,64.0
10173,69.0,12.0,90.0,5.0,64.0
10174,70.0,58.0,120.0,5.0,64.0
10175,65.0,0.0,120.0,6.0,64.0
10176,73.0,13.0,120.0,4.0,64.0
10177,60.0,13.0,90.0,7.0,64.0
10178,60.0,8.0,90.0,15.0,64.0
10179,29.0,10.0,90.0,11.0,64.0
10180,69.0,40.0,120.0,5.0,64.0
10181,57.0,1.0,60.0,7.0,64.0
10182,63.0,9.0,120.0,6.0,64.0
10183,72.0,26.0,90.0,4.0,64.0
10184,57.0,16.0,60.0,15.0,64.0
10185,41.0,16.0,150.0,12.0,64.0
10186,53.0,187.0,90.0,7.0,64.0
10187,53.0,1.0,60.0,15.0,64.0
10188,29.0,9.0,150.0,11.0,64.0
10189,41.0,38.0,180.0,12.0,64.0
10190,75.0,0.0,120.0,2.0,64.0
10191,41.0,29.0,150.0,7.0,64.0
10192,81.0,6.0,120.0,1.0,64.0
10193,41.0,12.0,120.0,15.0,64.0
10194,72.0,3.0,120.0,3.0,64.0
10195,42.0,5.0,90.0,15.0,64.0
10196,74.0,16.0,120.0,2.0,64.0
10197,70.0,1.0,120.0,3.0,64.0
10198,42.0,25.0,90.0,7.0,64.0
10199,82.0,26.0,150.0,1.0,64.0
10200,29.0,53.0,120.0,11.0,64.0
10201,41.0,11.0,60.0,15.0,64.0
10202,75.0,29.0,150.0,2.0,64.0
10203,41.0,23.0,180.0,12.0,64.0
10204,72.0,13.0,120.0,3.0,64.0
10205,41.0,4.0,60.0,7.0,64.0
10206,81.0,7.0,120.0,1.0,64.0
10207,66.0,105.0,60.0,7.0,64.0
10208,66.0,1.0,60.0,15.0,64.0
10209,29.0,20.0,120.0,11.0,64.0
10210,41.0,18.0,180.0,12.0,64.0
10211,63.0,27.0,90.0,7.0,64.0
10212,72.0,39.0,120.0,4.0,64.0
10213,63.0,19.0,120.0,6.0,64.0
10214,63.0,5.0,60.0,15.0,64.0
10215,69.0,6.0,90.0,5.0,64.0
10216,65.0,4.0,120.0,6.0,64.0
10217,70.0,73.0,120.0,5.0,64.0
10218,73.0,6.0,120.0,4.0,64.0
10219,60.0,7.0,60.0,15.0,64.0
10220,60.0,31.0,90.0,7.0,64.0
10221,29.0,1.0,120.0,11.0,64.0
10222,57.0,14.0,90.0,7.0,64.0
10223,69.0,1.0,90.0,5.0,64.0
10224,63.0,36.0,90.0,6.0,64.0
10225,57.0,3.0,90.0,15.0,64.0
10226,72.0,0.0,90.0,4.0,64.0
10227,41.0,65.0,120.0,12.0,64.0
10228,53.0,12.0,90.0,7.0,64.0
10229,53.0,186.0,90.0,15.0,64.0
10230,73.0,5.0,210.0,2.0,64.0
10231,34.0,21.0,180.0,11.0,64.0
10232,65.0,1.0,180.0,5.0,64.0
10233,73.0,9.0,150.0,4.0,64.0
10234,65.0,4.0,180.0,6.0,64.0
10235,46.0,4.0,210.0,15.0,64.0
10236,82.0,8.0,150.0,1.0,64.0
10237,70.0,9.0,150.0,3.0,64.0
10238,46.0,45.0,210.0,7.0,64.0
10239,46.0,13.0,270.0,12.0,64.0
10240,58.0,18.0,210.0,12.0,64.0
10241,46.0,27.0,60.0,11.0,64.0
10242,70.0,2.0,90.0,4.0,64.0
10243,78.0,110.0,90.0,1.0,64.0
10244,58.0,27.0,60.0,12.0,64.0
10245,69.0,3.0,90.0,4.0,64.0
10246,77.0,91.0,90.0,1.0,64.0
10247,46.0,73.0,90.0,11.0,64.0
10248,78.0,150.0,150.0,1.0,64.0
10249,70.0,0.0,150.0,4.0,64.0
10250,58.0,8.0,60.0,12.0,64.0
10251,34.0,16.0,90.0,11.0,64.0
10252,46.0,27.0,60.0,12.0,64.0
10253,58.0,3.0,90.0,5.0,64.0
10254,73.0,109.0,90.0,2.0,64.0
10255,57.0,4.0,90.0,5.0,64.0
10256,72.0,165.0,90.0,2.0,64.0
10257,34.0,71.0,210.0,11.0,64.0
10258,73.0,3.0,150.0,2.0,64.0
10259,58.0,31.0,150.0,5.0,64.0
10260,46.0,54.0,240.0,12.0,64.0
10261,46.0,22.0,90.0,11.0,64.0
10262,54.0,2.0,120.0,6.0,64.0
10263,58.0,19.0,60.0,12.0,64.0
10264,70.0,113.0,90.0,3.0,64.0
10265,53.0,43.0,150.0,6.0,64.0
10266,69.0,34.0,90.0,3.0,64.0
10267,54.0,13.0,150.0,6.0,64.0
10268,46.0,48.0,90.0,11.0,64.0
10269,58.0,35.0,60.0,12.0,64.0
10270,70.0,141.0,150.0,3.0,64.0
10271,61.0,2.0,90.0,6.0,64.0
10272,46.0,1.0,60.0,12.0,64.0
10273,70.0,1.0,60.0,4.0,64.0
10274,85.0,4.0,90.0,1.0,64.0
10275,78.0,2.0,60.0,2.0,64.0
10276,58.0,2.0,60.0,15.0,64.0
10277,70.0,12.0,60.0,5.0,64.0
10278,73.0,2.0,60.0,3.0,64.0
10279,34.0,325.0,90.0,11.0,64.0
10280,73.0,9.0,30.0,12.0,64.0
10281,66.0,1.0,30.0,12.0,64.0
10282,70.0,0.0,30.0,12.0,64.0
10283,58.0,6.0,60.0,7.0,64.0
10284,32.0,5.0,240.0,11.0,64.0
10285,68.0,12.0,180.0,6.0,64.0
10286,84.0,0.0,180.0,1.0,64.0
10287,72.0,6.0,180.0,4.0,64.0
10288,44.0,35.0,210.0,15.0,64.0
10289,63.0,7.0,180.0,5.0,64.0
10290,78.0,0.0,210.0,2.0,64.0
10291,44.0,7.0,210.0,7.0,64.0
10292,75.0,4.0,180.0,3.0,64.0
10293,72.0,44.0,240.0,12.0,64.0
10294,68.0,0.0,240.0,12.0,64.0
10295,66.0,6.0,240.0,12.0,64.0
10296,44.0,3.0,240.0,12.0,64.0
10297,44.0,16.0,90.0,11.0,64.0
10298,77.0,112.0,90.0,1.0,64.0
10299,68.0,0.0,90.0,4.0,64.0
10300,56.0,20.0,60.0,12.0,64.0
10301,67.0,1.0,90.0,4.0,64.0
10302,76.0,88.0,90.0,1.0,64.0
10303,68.0,5.0,150.0,4.0,64.0
10304,44.0,56.0,90.0,11.0,64.0
10305,77.0,148.0,150.0,1.0,64.0
10306,56.0,28.0,60.0,12.0,64.0
10307,32.0,20.0,90.0,11.0,64.0
10308,44.0,20.0,60.0,12.0,64.0
10309,56.0,3.0,90.0,5.0,64.0
10310,72.0,110.0,90.0,2.0,64.0
10311,55.0,3.0,90.0,5.0,64.0
10312,70.0,176.0,90.0,2.0,64.0
10313,32.0,51.0,210.0,11.0,64.0
10314,56.0,1.0,150.0,5.0,64.0
10315,72.0,58.0,150.0,2.0,64.0
10316,44.0,46.0,240.0,12.0,64.0
10317,44.0,28.0,90.0,11.0,64.0
10318,53.0,3.0,90.0,6.0,64.0
10319,68.0,113.0,90.0,3.0,64.0
10320,56.0,4.0,60.0,12.0,64.0
10321,51.0,50.0,150.0,6.0,64.0
10322,67.0,33.0,90.0,3.0,64.0
10323,44.0,53.0,90.0,11.0,64.0
10324,53.0,16.0,150.0,6.0,64.0
10325,56.0,25.0,60.0,12.0,64.0
10326,68.0,139.0,150.0,3.0,64.0
10327,32.0,1.0,90.0,11.0,64.0
10328,68.0,1.0,90.0,4.0,64.0
10329,68.0,2.0,60.0,5.0,64.0
10330,77.0,0.0,90.0,2.0,64.0
10331,68.0,6.0,60.0,12.0,64.0
10332,60.0,1.0,90.0,6.0,64.0
10333,84.0,325.0,90.0,1.0,64.0
10334,72.0,6.0,60.0,12.0,64.0
10335,72.0,3.0,60.0,3.0,64.0
10336,56.0,3.0,60.0,7.0,64.0
10337,56.0,1.0,60.0,15.0,64.0
10338,44.0,4.0,60.0,12.0,64.0
10339,65.0,2.0,60.0,12.0,64.0
10340,30.0,3.0,240.0,11.0,64.0
10341,73.0,35.0,270.0,3.0,64.0
10342,66.0,22.0,240.0,6.0,64.0
10343,42.0,7.0,210.0,7.0,64.0
10344,70.0,19.0,180.0,4.0,64.0
10345,82.0,16.0,180.0,1.0,64.0
10346,61.0,13.0,150.0,5.0,64.0
10347,77.0,7.0,210.0,2.0,64.0
10348,66.0,2.0,240.0,12.0,64.0
10349,70.0,7.0,240.0,12.0,64.0
10350,65.0,1.0,240.0,12.0,64.0
10351,42.0,2.0,180.0,15.0,64.0
10352,42.0,1.0,240.0,12.0,64.0
10353,42.0,16.0,90.0,11.0,64.0
10354,75.0,112.0,90.0,1.0,64.0
10355,66.0,0.0,90.0,4.0,64.0
10356,54.0,24.0,60.0,12.0,64.0
10357,65.0,1.0,90.0,4.0,64.0
10358,74.0,80.0,90.0,1.0,64.0
10359,75.0,1.0,150.0,1.0,64.0
10360,42.0,46.0,90.0,11.0,64.0
10361,66.0,137.0,150.0,4.0,64.0
10362,54.0,45.0,60.0,12.0,64.0
10363,30.0,18.0,90.0,11.0,64.0
10364,42.0,38.0,60.0,12.0,64.0
10365,54.0,3.0,90.0,5.0,64.0
10366,70.0,109.0,90.0,2.0,64.0
10367,53.0,4.0,90.0,5.0,64.0
10368,69.0,171.0,90.0,2.0,64.0
10369,30.0,55.0,240.0,11.0,64.0
10370,70.0,6.0,150.0,2.0,64.0
10371,54.0,62.0,150.0,5.0,64.0
10372,42.0,42.0,240.0,12.0,64.0
10373,42.0,17.0,90.0,11.0,64.0
10374,51.0,100.0,120.0,6.0,64.0
10375,66.0,13.0,90.0,3.0,64.0
10376,54.0,14.0,60.0,12.0,64.0
10377,53.0,74.0,120.0,6.0,64.0
10378,65.0,13.0,90.0,3.0,64.0
10379,51.0,23.0,150.0,6.0,64.0
10380,42.0,36.0,120.0,11.0,64.0
10381,66.0,150.0,150.0,3.0,64.0
10382,54.0,31.0,60.0,12.0,64.0
10383,30.0,2.0,90.0,11.0,64.0
10384,75.0,0.0,60.0,2.0,64.0
10385,82.0,33.0,90.0,1.0,64.0
10386,54.0,1.0,60.0,15.0,64.0
10387,70.0,0.0,60.0,3.0,64.0
10388,42.0,3.0,60.0,12.0,64.0
10389,58.0,6.0,60.0,6.0,64.0
10390,70.0,232.0,120.0,4.0,64.0
10391,66.0,1.0,60.0,5.0,64.0
10392,66.0,4.0,60.0,12.0,64.0
10393,70.0,3.0,60.0,12.0,64.0
10394,54.0,3.0,60.0,7.0,64.0
10395,63.0,1.0,60.0,12.0,64.0
10396,29.0,17.0,330.0,11.0,64.0
10397,41.0,78.0,240.0,15.0,64.0
10398,81.0,30.0,180.0,1.0,64.0
10399,60.0,13.0,210.0,5.0,64.0
10400,41.0,3.0,240.0,7.0,64.0
10401,65.0,20.0,210.0,6.0,64.0
10402,65.0,20.0,150.0,3.0,64.0
10403,75.0,1.0,180.0,2.0,64.0
10404,41.0,39.0,480.0,12.0,64.0
10405,72.0,46.0,90.0,4.0,64.0
10406,60.0,58.0,510.0,12.0,64.0
10407,63.0,0.0,450.0,12.0,64.0
10408,69.0,4.0,420.0,12.0,64.0
10409,69.0,2.0,90.0,4.0,64.0
10410,65.0,15.0,120.0,4.0,64.0
10411,84.0,1.0,90.0,1.0,64.0
10412,75.0,12.0,90.0,3.0,64.0
10413,81.0,85.0,120.0,2.0,64.0
10414,67.0,20.0,90.0,4.0,64.0
10415,82.0,0.0,90.0,1.0,64.0
10416,73.0,9.0,90.0,3.0,64.0
10417,82.0,7.0,120.0,2.0,64.0
10418,84.0,4.0,150.0,1.0,64.0
10419,75.0,1.0,150.0,3.0,64.0
10420,81.0,78.0,150.0,2.0,64.0
10421,69.0,34.0,120.0,4.0,64.0
10422,70.0,60.0,120.0,4.0,64.0
10423,41.0,19.0,90.0,11.0,64.0
10424,72.0,92.0,120.0,4.0,64.0
10425,53.0,4.0,90.0,15.0,64.0
10426,53.0,18.0,120.0,7.0,64.0
10427,69.0,22.0,60.0,6.0,64.0
10428,65.0,2.0,90.0,5.0,64.0
10429,53.0,11.0,30.0,12.0,64.0
10430,73.0,140.0,90.0,4.0,64.0
10431,60.0,1.0,540.0,12.0,64.0
10432,29.0,3.0,360.0,11.0,64.0
10433,75.0,24.0,330.0,4.0,64.0
10434,63.0,74.0,510.0,12.0,64.0
10435,41.0,56.0,270.0,15.0,64.0
10436,41.0,34.0,210.0,7.0,64.0
10437,69.0,5.0,210.0,6.0,64.0
10438,41.0,19.0,480.0,12.0,64.0
10439,60.0,80.0,90.0,5.0,64.0
10440,69.0,2.0,480.0,12.0,64.0
10441,63.0,23.0,90.0,5.0,64.0
10442,57.0,92.0,120.0,5.0,64.0
10443,87.0,1.0,90.0,1.0,64.0
10444,84.0,20.0,90.0,2.0,64.0
10445,81.0,0.0,90.0,3.0,64.0
10446,58.0,26.0,90.0,5.0,64.0
10447,85.0,1.0,90.0,1.0,64.0
10448,79.0,5.0,90.0,3.0,64.0
10449,82.0,0.0,90.0,2.0,64.0
10450,60.0,50.0,90.0,5.0,64.0
10451,87.0,2.0,150.0,1.0,64.0
10452,81.0,1.0,150.0,2.0,64.0
10453,77.0,40.0,150.0,3.0,64.0
10454,61.0,112.0,90.0,5.0,64.0
10455,41.0,7.0,90.0,11.0,64.0
10456,63.0,6.0,90.0,5.0,64.0
10457,53.0,4.0,90.0,15.0,64.0
10458,53.0,1.0,90.0,7.0,64.0
10459,69.0,4.0,90.0,6.0,64.0
10460,53.0,12.0,60.0,12.0,64.0
10461,72.0,91.0,90.0,4.0,64.0
10462,65.0,161.0,90.0,5.0,64.0
10463,39.0,18.0,360.0,11.0,64.0
10464,66.0,5.0,510.0,12.0,64.0
10465,66.0,63.0,300.0,5.0,64.0
10466,39.0,1.0,270.0,15.0,64.0
10467,39.0,35.0,240.0,7.0,64.0
10468,69.0,11.0,270.0,4.0,64.0
10469,39.0,5.0,480.0,12.0,64.0
10470,69.0,2.0,480.0,12.0,64.0
10471,72.0,74.0,90.0,6.0,64.0
10472,72.0,85.0,480.0,12.0,64.0
10473,65.0,44.0,60.0,6.0,64.0
10474,60.0,89.0,120.0,6.0,64.0
10475,90.0,1.0,90.0,1.0,64.0
10476,84.0,0.0,90.0,3.0,64.0
10477,87.0,5.0,90.0,2.0,64.0
10478,89.0,1.0,90.0,1.0,64.0
10479,61.0,37.0,90.0,6.0,64.0
10480,82.0,0.0,90.0,3.0,64.0
10481,85.0,3.0,90.0,2.0,64.0
10482,90.0,1.0,150.0,1.0,64.0
10483,81.0,3.0,150.0,3.0,64.0
10484,84.0,63.0,150.0,2.0,64.0
10485,63.0,32.0,120.0,6.0,64.0
10486,65.0,113.0,90.0,6.0,64.0
10487,67.0,23.0,120.0,6.0,64.0
10488,51.0,6.0,90.0,15.0,64.0
10489,72.0,0.0,60.0,12.0,64.0
10490,51.0,1.0,90.0,7.0,64.0
10491,51.0,2.0,60.0,12.0,64.0
10492,72.0,6.0,90.0,4.0,64.0
10493,60.0,8.0,60.0,5.0,64.0
10494,39.0,80.0,120.0,11.0,64.0
10495,69.0,127.0,90.0,6.0,64.0
10496,70.0,1.0,240.0,6.0,64.0
10497,49.0,5.0,90.0,15.0,64.0
10498,61.0,56.0,270.0,5.0,64.0
10499,65.0,32.0,240.0,4.0,64.0
10500,49.0,0.0,120.0,12.0,64.0
10501,77.0,0.0,120.0,12.0,64.0
10502,70.0,11.0,120.0,12.0,64.0
10503,49.0,13.0,90.0,7.0,64.0
10504,37.0,62.0,120.0,11.0,64.0
10505,53.0,14.0,60.0,15.0,64.0
10506,53.0,12.0,90.0,12.0,64.0
10507,53.0,26.0,60.0,7.0,64.0
10508,41.0,11.0,120.0,11.0,64.0
10509,46.0,1.0,90.0,15.0,64.0
10510,89.0,1.0,90.0,1.0,64.0
10511,82.0,0.0,90.0,3.0,64.0
10512,46.0,0.0,90.0,12.0,64.0
10513,73.0,3.0,90.0,12.0,64.0
10514,65.0,0.0,90.0,12.0,64.0
10515,85.0,1.0,90.0,2.0,64.0
10516,34.0,12.0,90.0,11.0,64.0
10517,46.0,89.0,90.0,7.0,64.0
10518,36.0,8.0,120.0,11.0,64.0
10519,87.0,1.0,90.0,1.0,64.0
10520,81.0,0.0,90.0,3.0,64.0
10521,48.0,4.0,90.0,15.0,64.0
10522,87.0,7.0,90.0,2.0,64.0
10523,48.0,103.0,120.0,12.0,64.0
10524,48.0,7.0,60.0,7.0,64.0
10525,89.0,2.0,150.0,1.0,64.0
10526,82.0,0.0,150.0,3.0,64.0
10527,37.0,1.0,120.0,11.0,64.0
10528,85.0,60.0,150.0,2.0,64.0
10529,49.0,2.0,90.0,15.0,64.0
10530,49.0,38.0,90.0,12.0,64.0
10531,49.0,7.0,90.0,7.0,64.0
10532,39.0,5.0,90.0,11.0,64.0
10533,51.0,4.0,90.0,15.0,64.0
10534,51.0,99.0,90.0,12.0,64.0
10535,51.0,1.0,90.0,7.0,64.0
10536,41.0,3.0,90.0,11.0,64.0
10537,53.0,0.0,120.0,12.0,64.0
10538,75.0,72.0,120.0,12.0,64.0
10539,69.0,0.0,120.0,12.0,64.0
10540,53.0,17.0,60.0,15.0,64.0
10541,69.0,5.0,90.0,6.0,64.0
10542,53.0,5.0,90.0,7.0,64.0
10543,72.0,0.0,90.0,5.0,64.0
10544,75.0,8.0,90.0,4.0,64.0
10545,43.0,7.0,60.0,11.0,64.0
10546,67.0,11.0,120.0,6.0,64.0
10547,55.0,16.0,60.0,15.0,64.0
10548,73.0,1.0,90.0,4.0,64.0
10549,70.0,20.0,90.0,5.0,64.0
10550,55.0,89.0,120.0,12.0,64.0
10551,55.0,4.0,60.0,7.0,64.0
10552,65.0,10.0,150.0,6.0,64.0
10553,72.0,0.0,150.0,5.0,64.0
10554,45.0,3.0,120.0,11.0,64.0
10555,57.0,19.0,90.0,15.0,64.0
10556,75.0,30.0,150.0,4.0,64.0
10557,65.0,22.0,120.0,12.0,64.0
10558,72.0,0.0,120.0,12.0,64.0
10559,57.0,0.0,120.0,12.0,64.0
10560,57.0,6.0,120.0,7.0,64.0
10561,48.0,40.0,90.0,11.0,64.0
10562,60.0,5.0,60.0,15.0,64.0
10563,60.0,8.0,60.0,7.0,64.0
10564,60.0,77.0,120.0,12.0,64.0
10565,53.0,22.0,60.0,15.0,64.0
10566,41.0,5.0,90.0,11.0,64.0
10567,53.0,0.0,60.0,7.0,64.0
10568,53.0,0.0,90.0,12.0,64.0
10569,63.0,77.0,90.0,12.0,64.0
10570,69.0,0.0,90.0,12.0,64.0
10571,87.0,1.0,90.0,1.0,64.0
10572,81.0,0.0,90.0,3.0,64.0
10573,84.0,0.0,90.0,2.0,64.0
10574,43.0,19.0,60.0,11.0,64.0
10575,55.0,13.0,90.0,15.0,64.0
10576,55.0,3.0,90.0,7.0,64.0
10577,55.0,68.0,120.0,12.0,64.0
10578,79.0,0.0,90.0,3.0,64.0
10579,85.0,1.0,90.0,1.0,64.0
10580,82.0,24.0,90.0,2.0,64.0
10581,45.0,17.0,90.0,11.0,64.0
10582,77.0,10.0,150.0,3.0,64.0
10583,84.0,1.0,150.0,2.0,64.0
10584,57.0,10.0,60.0,15.0,64.0
10585,87.0,29.0,150.0,1.0,64.0
10586,57.0,19.0,90.0,7.0,64.0
10587,57.0,25.0,120.0,12.0,64.0
10588,46.0,14.0,90.0,11.0,64.0
10589,58.0,7.0,60.0,7.0,64.0
10590,58.0,30.0,90.0,15.0,64.0
10591,58.0,66.0,90.0,12.0,64.0
10592,48.0,23.0,60.0,11.0,64.0
10593,60.0,15.0,90.0,7.0,64.0
10594,63.0,9.0,120.0,6.0,64.0
10595,60.0,6.0,90.0,15.0,64.0
10596,66.0,58.0,120.0,12.0,64.0
10597,72.0,0.0,120.0,12.0,64.0
10598,60.0,0.0,120.0,12.0,64.0
10599,72.0,1.0,90.0,4.0,64.0
10600,69.0,13.0,90.0,5.0,64.0
10601,49.0,7.0,60.0,11.0,64.0
10602,61.0,18.0,120.0,6.0,64.0
10603,61.0,3.0,60.0,7.0,64.0
10604,61.0,21.0,60.0,15.0,64.0
10605,61.0,78.0,120.0,12.0,64.0
10606,70.0,2.0,90.0,4.0,64.0
10607,67.0,12.0,90.0,5.0,64.0
10608,60.0,6.0,150.0,6.0,64.0
10609,65.0,5.0,150.0,5.0,64.0
10610,63.0,14.0,90.0,15.0,64.0
10611,69.0,34.0,150.0,4.0,64.0
10612,63.0,6.0,120.0,7.0,64.0
10613,51.0,10.0,90.0,11.0,64.0
10614,69.0,26.0,90.0,12.0,64.0
10615,63.0,0.0,90.0,12.0,64.0
10616,48.0,19.0,60.0,11.0,64.0
10617,60.0,15.0,90.0,15.0,64.0
10618,60.0,19.0,90.0,7.0,64.0
10619,60.0,64.0,120.0,12.0,64.0
10620,45.0,11.0,60.0,11.0,64.0
10621,57.0,30.0,60.0,7.0,64.0
10622,57.0,1.0,90.0,15.0,64.0
10623,57.0,0.0,90.0,12.0,64.0
10624,66.0,88.0,90.0,12.0,64.0
10625,63.0,0.0,90.0,12.0,64.0
10626,84.0,1.0,90.0,1.0,64.0
10627,78.0,3.0,90.0,2.0,64.0
10628,75.0,0.0,90.0,3.0,64.0
10629,46.0,1.0,90.0,11.0,64.0
10630,58.0,20.0,90.0,7.0,64.0
10631,58.0,0.0,60.0,15.0,64.0
10632,58.0,100.0,120.0,12.0,64.0
10633,82.0,0.0,90.0,1.0,64.0
10634,73.0,1.0,90.0,3.0,64.0
10635,77.0,13.0,90.0,2.0,64.0
10636,72.0,12.0,150.0,3.0,64.0
10637,81.0,1.0,90.0,1.0,64.0
10638,48.0,3.0,90.0,11.0,64.0
10639,60.0,0.0,120.0,7.0,64.0
10640,60.0,18.0,90.0,15.0,64.0
10641,75.0,29.0,150.0,2.0,64.0
10642,60.0,28.0,120.0,12.0,64.0
10643,49.0,26.0,60.0,11.0,64.0
10644,61.0,34.0,90.0,15.0,64.0
10645,61.0,4.0,60.0,7.0,64.0
10646,61.0,54.0,120.0,12.0,64.0
10647,51.0,6.0,60.0,11.0,64.0
10648,63.0,7.0,90.0,15.0,64.0
10649,63.0,12.0,60.0,7.0,64.0
10650,77.0,4.0,90.0,1.0,64.0
10651,77.0,2.0,60.0,4.0,64.0
10652,77.0,48.0,120.0,12.0,64.0
10653,63.0,0.0,120.0,12.0,64.0
10654,77.0,24.0,90.0,13.0,64.0
10655,77.0,8.0,60.0,14.0,64.0
10656,53.0,25.0,60.0,11.0,64.0
10657,65.0,71.0,90.0,15.0,64.0
10658,65.0,2.0,90.0,7.0,64.0
10659,65.0,271.0,150.0,12.0,64.0
10660,66.0,5.0,300.0,7.0,64.0
10661,54.0,1.0,300.0,11.0,64.0
10662,66.0,6.0,300.0,15.0,64.0
10663,78.0,3.0,300.0,13.0,64.0
10664,78.0,21.0,330.0,14.0,64.0
10665,78.0,4.0,300.0,4.0,64.0
10666,78.0,6.0,300.0,1.0,64.0
10667,78.0,0.0,330.0,12.0,64.0
10668,66.0,100.0,330.0,12.0,64.0
10669,77.0,4.0,90.0,14.0,64.0
10670,77.0,2.0,90.0,13.0,64.0
10671,77.0,1.0,90.0,1.0,64.0
10672,65.0,11.0,90.0,7.0,64.0
10673,65.0,0.0,90.0,15.0,64.0
10674,65.0,5.0,90.0,12.0,64.0
10675,77.0,0.0,90.0,12.0,64.0
10676,77.0,12.0,90.0,4.0,64.0
10677,53.0,81.0,90.0,11.0,64.0
10678,75.0,70.0,120.0,12.0,64.0
10679,63.0,0.0,120.0,12.0,64.0
10680,75.0,2.0,90.0,14.0,64.0
10681,75.0,4.0,90.0,13.0,64.0
10682,75.0,11.0,90.0,1.0,64.0
10683,63.0,1.0,90.0,15.0,64.0
10684,63.0,4.0,90.0,7.0,64.0
10685,75.0,8.0,60.0,4.0,64.0
10686,51.0,5.0,90.0,11.0,64.0
10687,61.0,32.0,90.0,15.0,64.0
10688,61.0,0.0,120.0,12.0,64.0
10689,73.0,73.0,120.0,12.0,64.0
10690,73.0,5.0,60.0,14.0,64.0
10691,73.0,4.0,60.0,13.0,64.0
10692,73.0,2.0,60.0,1.0,64.0
10693,61.0,5.0,60.0,7.0,64.0
10694,73.0,1.0,90.0,4.0,64.0
10695,49.0,5.0,60.0,11.0,64.0
10696,72.0,6.0,90.0,4.0,64.0
10697,60.0,3.0,90.0,7.0,64.0
10698,72.0,88.0,90.0,14.0,64.0
10699,60.0,2.0,90.0,15.0,64.0
10700,72.0,7.0,60.0,13.0,64.0
10701,72.0,2.0,90.0,1.0,64.0
10702,48.0,1.0,90.0,11.0,64.0
10703,60.0,0.0,90.0,12.0,64.0
10704,72.0,5.0,90.0,12.0,64.0
10705,46.0,8.0,90.0,11.0,64.0
10706,70.0,3.0,90.0,1.0,64.0
10707,70.0,1.0,90.0,14.0,64.0
10708,58.0,4.0,90.0,7.0,64.0
10709,70.0,1.0,90.0,4.0,64.0
10710,70.0,4.0,90.0,12.0,64.0
10711,58.0,0.0,90.0,12.0,64.0
10712,58.0,167.0,90.0,15.0,64.0
10713,70.0,5.0,90.0,13.0,64.0
10714,45.0,6.0,150.0,11.0,64.0
10715,57.0,1.0,150.0,7.0,64.0
10716,77.0,16.0,240.0,1.0,64.0
10717,57.0,9.0,210.0,15.0,64.0
10718,72.0,12.0,210.0,4.0,64.0
10719,72.0,50.0,150.0,14.0,64.0
10720,77.0,4.0,210.0,13.0,64.0
10721,57.0,0.0,240.0,12.0,64.0
10722,72.0,0.0,240.0,12.0,64.0
10723,65.0,96.0,240.0,12.0,64.0
10724,58.0,9.0,90.0,7.0,64.0
10725,70.0,0.0,210.0,12.0,64.0
10726,58.0,3.0,210.0,12.0,64.0
10727,63.0,0.0,210.0,12.0,64.0
10728,46.0,85.0,120.0,11.0,64.0
10729,65.0,9.0,90.0,14.0,64.0
10730,65.0,3.0,120.0,4.0,64.0
10731,58.0,4.0,120.0,15.0,64.0
10732,75.0,2.0,90.0,1.0,64.0
10733,75.0,3.0,90.0,13.0,64.0
10734,73.0,4.0,90.0,13.0,64.0
10735,73.0,102.0,90.0,1.0,64.0
10736,65.0,13.0,90.0,7.0,64.0
10737,63.0,1.0,210.0,4.0,64.0
10738,63.0,0.0,90.0,12.0,64.0
10739,70.0,17.0,90.0,12.0,64.0
10740,53.0,0.0,90.0,12.0,64.0
10741,65.0,2.0,120.0,15.0,64.0
10742,72.0,115.0,210.0,1.0,64.0
10743,63.0,3.0,210.0,14.0,64.0
10744,41.0,69.0,120.0,11.0,64.0
10745,72.0,19.0,180.0,13.0,64.0
10746,53.0,10.0,90.0,7.0,64.0
10747,29.0,1.0,90.0,11.0,64.0
10748,62.0,84.0,90.0,14.0,64.0
10749,70.0,5.0,90.0,13.0,64.0
10750,70.0,6.0,90.0,1.0,64.0
10751,62.0,0.0,90.0,4.0,64.0
10752,53.0,2.0,90.0,15.0,64.0
10753,70.0,9.0,60.0,12.0,64.0
10754,41.0,0.0,60.0,12.0,64.0
10755,62.0,0.0,60.0,12.0,64.0
10756,69.0,10.0,90.0,13.0,64.0
10757,60.0,132.0,120.0,14.0,64.0
10758,60.0,2.0,90.0,4.0,64.0
10759,69.0,22.0,60.0,1.0,64.0
10760,70.0,7.0,150.0,1.0,64.0
10761,70.0,5.0,150.0,13.0,64.0
10762,46.0,23.0,120.0,15.0,64.0
10763,34.0,10.0,150.0,11.0,64.0
10764,46.0,92.0,150.0,7.0,64.0
10765,65.0,0.0,540.0,12.0,64.0
10766,70.0,2.0,540.0,12.0,64.0
10767,62.0,0.0,540.0,12.0,64.0
10768,62.0,3.0,150.0,4.0,64.0
10769,62.0,2.0,150.0,14.0,64.0
10770,46.0,38.0,240.0,12.0,64.0
10771,58.0,22.0,60.0,15.0,64.0
10772,65.0,1.0,90.0,4.0,64.0
10773,58.0,14.0,60.0,7.0,64.0
10774,65.0,4.0,90.0,14.0,64.0
10775,65.0,113.0,90.0,1.0,64.0
10776,46.0,0.0,60.0,11.0,64.0
10777,65.0,1.0,90.0,13.0,64.0
10778,58.0,1.0,60.0,12.0,64.0
10779,63.0,78.0,90.0,13.0,64.0
10780,63.0,14.0,90.0,1.0,64.0
10781,65.0,161.0,150.0,1.0,64.0
10782,65.0,25.0,120.0,13.0,64.0
10783,46.0,3.0,90.0,11.0,64.0
10784,58.0,11.0,60.0,15.0,64.0
10785,62.0,3.0,90.0,4.0,64.0
10786,58.0,6.0,90.0,7.0,64.0
10787,62.0,29.0,90.0,14.0,64.0
10788,58.0,0.0,60.0,12.0,64.0
10789,34.0,5.0,90.0,11.0,64.0
10790,46.0,0.0,60.0,15.0,64.0
10791,70.0,5.0,90.0,13.0,64.0
10792,46.0,1.0,90.0,7.0,64.0
10793,58.0,23.0,90.0,14.0,64.0
10794,58.0,66.0,120.0,4.0,64.0
10795,46.0,4.0,60.0,12.0,64.0
10796,65.0,1.0,60.0,12.0,64.0
10797,70.0,9.0,60.0,12.0,64.0
10798,62.0,1.0,60.0,12.0,64.0
10799,70.0,5.0,90.0,1.0,64.0
10800,69.0,166.0,90.0,13.0,64.0
10801,69.0,13.0,60.0,1.0,64.0
10802,34.0,11.0,150.0,11.0,64.0
10803,70.0,7.0,180.0,13.0,64.0
10804,70.0,5.0,150.0,1.0,64.0
10805,62.0,2.0,150.0,14.0,64.0
10806,46.0,24.0,120.0,15.0,64.0
10807,62.0,56.0,180.0,4.0,64.0
10808,62.0,23.0,510.0,12.0,64.0
10809,65.0,27.0,480.0,12.0,64.0
10810,46.0,17.0,180.0,7.0,64.0
10811,70.0,10.0,450.0,12.0,64.0
10812,46.0,46.0,240.0,12.0,64.0
10813,58.0,20.0,60.0,15.0,64.0
10814,65.0,5.0,90.0,4.0,64.0
10815,46.0,1.0,90.0,11.0,64.0
10816,65.0,5.0,90.0,14.0,64.0
10817,58.0,9.0,60.0,7.0,64.0
10818,58.0,8.0,60.0,12.0,64.0
10819,62.0,12.0,90.0,1.0,64.0
10820,62.0,101.0,90.0,13.0,64.0
10821,60.0,14.0,90.0,1.0,64.0
10822,60.0,15.0,120.0,13.0,64.0
10823,62.0,159.0,150.0,1.0,64.0
10824,46.0,2.0,90.0,11.0,64.0
10825,62.0,10.0,120.0,13.0,64.0
10826,62.0,7.0,90.0,4.0,64.0
10827,62.0,6.0,90.0,14.0,64.0
10828,58.0,17.0,60.0,15.0,64.0
10829,58.0,8.0,60.0,12.0,64.0
10830,58.0,33.0,90.0,7.0,64.0
10831,34.0,0.0,60.0,11.0,64.0
10832,58.0,1.0,90.0,4.0,64.0
10833,46.0,17.0,60.0,15.0,64.0
10834,58.0,1.0,90.0,14.0,64.0
10835,46.0,5.0,60.0,12.0,64.0
10836,65.0,0.0,60.0,12.0,64.0
10837,62.0,1.0,60.0,12.0,64.0
10838,70.0,6.0,60.0,12.0,64.0
10839,46.0,9.0,90.0,7.0,64.0
10840,70.0,106.0,90.0,1.0,64.0
10841,70.0,3.0,90.0,13.0,64.0
10842,69.0,131.0,120.0,13.0,64.0
10843,69.0,15.0,90.0,1.0,64.0
10844,34.0,9.0,150.0,11.0,64.0
10845,70.0,13.0,120.0,13.0,64.0
10846,70.0,3.0,150.0,1.0,64.0
10847,62.0,1.0,150.0,4.0,64.0
10848,62.0,3.0,240.0,12.0,64.0
10849,62.0,8.0,150.0,14.0,64.0
10850,65.0,70.0,240.0,12.0,64.0
10851,46.0,17.0,210.0,12.0,64.0
10852,70.0,2.0,210.0,12.0,64.0
10853,46.0,14.0,120.0,15.0,64.0
10854,46.0,53.0,150.0,7.0,64.0
10855,65.0,42.0,150.0,4.0,64.0
10856,65.0,9.0,120.0,14.0,64.0
10857,58.0,23.0,60.0,15.0,64.0
10858,58.0,0.0,90.0,7.0,64.0
10859,58.0,15.0,120.0,13.0,64.0
10860,58.0,15.0,90.0,1.0,64.0
10861,46.0,4.0,90.0,11.0,64.0
10862,58.0,1.0,90.0,12.0,64.0
10863,62.0,0.0,90.0,12.0,64.0
10864,45.0,4.0,120.0,11.0,64.0
10865,60.0,97.0,120.0,13.0,64.0
10866,57.0,30.0,60.0,15.0,64.0
10867,57.0,2.0,90.0,7.0,64.0
10868,60.0,6.0,90.0,12.0,64.0
10869,57.0,0.0,90.0,12.0,64.0
10870,60.0,7.0,90.0,1.0,64.0
10871,43.0,19.0,120.0,11.0,64.0
10872,55.0,4.0,90.0,15.0,64.0
10873,62.0,5.0,120.0,1.0,64.0
10874,58.0,0.0,120.0,12.0,64.0
10875,62.0,2.0,120.0,13.0,64.0
10876,55.0,10.0,120.0,12.0,64.0
10877,70.0,0.0,90.0,14.0,64.0
10878,70.0,7.0,90.0,4.0,64.0
10879,55.0,95.0,120.0,7.0,64.0
10880,74.0,4.0,120.0,4.0,64.0
10881,74.0,63.0,120.0,14.0,64.0
10882,72.0,94.0,120.0,14.0,64.0
10883,72.0,3.0,90.0,4.0,64.0
10884,48.0,4.0,90.0,11.0,64.0
10885,60.0,2.0,60.0,15.0,64.0
10886,64.0,6.0,90.0,13.0,64.0
10887,60.0,6.0,90.0,7.0,64.0
10888,70.0,8.0,60.0,12.0,64.0
10889,64.0,4.0,60.0,12.0,64.0
10890,64.0,3.0,90.0,1.0,64.0
10891,67.0,7.0,60.0,12.0,64.0
10892,60.0,6.0,90.0,12.0,64.0
10893,70.0,20.0,90.0,4.0,64.0
10894,70.0,135.0,120.0,14.0,64.0
10895,69.0,4.0,120.0,14.0,64.0
10896,69.0,8.0,150.0,4.0,64.0
10897,41.0,12.0,120.0,11.0,64.0
10898,53.0,58.0,150.0,7.0,64.0
10899,65.0,4.0,120.0,13.0,64.0
10900,53.0,10.0,210.0,12.0,64.0
10901,60.0,5.0,120.0,12.0,64.0
10902,53.0,5.0,120.0,15.0,64.0
10903,65.0,0.0,120.0,1.0,64.0
10904,65.0,8.0,120.0,12.0,64.0
10905,69.0,2.0,120.0,12.0,64.0
10906,64.0,10.0,120.0,13.0,64.0
10907,64.0,86.0,120.0,1.0,64.0
10908,65.0,2.0,90.0,14.0,64.0
10909,65.0,0.0,90.0,1.0,64.0
10910,65.0,2.0,90.0,13.0,64.0
10911,65.0,7.0,90.0,15.0,64.0
10912,65.0,0.0,90.0,4.0,64.0
10913,65.0,2.0,90.0,7.0,64.0
10914,53.0,88.0,90.0,11.0,64.0
10915,65.0,4.0,90.0,12.0,64.0
10916,69.0,3.0,60.0,12.0,64.0
10917,72.0,1.0,60.0,12.0,64.0
10918,77.0,1.0,60.0,12.0,64.0
10919,52.0,19.0,120.0,11.0,64.0
10920,64.0,7.0,90.0,15.0,64.0
10921,64.0,67.0,120.0,12.0,64.0
10922,64.0,2.0,90.0,7.0,64.0
10923,67.0,4.0,90.0,1.0,64.0
10924,67.0,4.0,60.0,13.0,64.0
10925,53.0,16.0,90.0,11.0,64.0
10926,65.0,4.0,60.0,15.0,64.0
10927,65.0,4.0,90.0,1.0,64.0
10928,65.0,8.0,90.0,7.0,64.0
10929,65.0,5.0,90.0,12.0,64.0
10930,65.0,99.0,90.0,13.0,64.0
10931,69.0,6.0,90.0,1.0,64.0
10932,69.0,106.0,90.0,13.0,64.0
10933,65.0,1.0,90.0,1.0,64.0
10934,65.0,1.0,90.0,13.0,64.0
10935,53.0,6.0,60.0,15.0,64.0
10936,74.0,0.0,60.0,12.0,64.0
10937,53.0,2.0,90.0,12.0,64.0
10938,65.0,5.0,60.0,12.0,64.0
10939,70.0,0.0,60.0,12.0,64.0
10940,53.0,5.0,90.0,7.0,64.0
10941,74.0,88.0,90.0,14.0,64.0
10942,41.0,0.0,60.0,11.0,64.0
10943,74.0,6.0,90.0,4.0,64.0
10944,70.0,6.0,60.0,1.0,64.0
10945,70.0,172.0,60.0,13.0,64.0
10946,41.0,5.0,150.0,11.0,64.0
10947,53.0,10.0,120.0,15.0,64.0
10948,53.0,67.0,150.0,7.0,64.0
10949,69.0,1.0,150.0,14.0,64.0
10950,65.0,11.0,150.0,1.0,64.0
10951,65.0,28.0,240.0,12.0,64.0
10952,69.0,28.0,300.0,12.0,64.0
10953,72.0,17.0,270.0,12.0,64.0
10954,65.0,5.0,120.0,13.0,64.0
10955,53.0,12.0,210.0,12.0,64.0
10956,69.0,1.0,120.0,4.0,64.0
10957,64.0,5.0,120.0,13.0,64.0
10958,64.0,11.0,120.0,1.0,64.0
10959,65.0,5.0,90.0,14.0,64.0
10960,65.0,1.0,90.0,13.0,64.0
10961,65.0,1.0,90.0,1.0,64.0
10962,65.0,9.0,90.0,15.0,64.0
10963,53.0,7.0,90.0,11.0,64.0
10964,65.0,2.0,90.0,7.0,64.0
10965,65.0,3.0,90.0,4.0,64.0
10966,65.0,83.0,90.0,12.0,64.0
10967,52.0,4.0,90.0,11.0,64.0
10968,64.0,7.0,90.0,15.0,64.0
10969,67.0,2.0,90.0,13.0,64.0
10970,64.0,48.0,90.0,7.0,64.0
10971,67.0,7.0,90.0,1.0,64.0
10972,64.0,34.0,120.0,12.0,64.0
10973,53.0,14.0,60.0,11.0,64.0
10974,65.0,2.0,60.0,15.0,64.0
10975,65.0,98.0,90.0,7.0,64.0
10976,65.0,0.0,90.0,13.0,64.0
10977,65.0,2.0,90.0,1.0,64.0
10978,65.0,23.0,60.0,12.0,64.0
10979,72.0,104.0,90.0,1.0,64.0
10980,72.0,2.0,60.0,13.0,64.0
10981,41.0,7.0,60.0,11.0,64.0
10982,65.0,1.0,90.0,1.0,64.0
10983,53.0,9.0,60.0,15.0,64.0
10984,65.0,0.0,90.0,13.0,64.0
10985,53.0,1.0,90.0,7.0,64.0
10986,70.0,17.0,90.0,12.0,64.0
10987,53.0,3.0,90.0,12.0,64.0
10988,64.0,1.0,90.0,12.0,64.0
10989,67.0,1.0,60.0,12.0,64.0
10990,70.0,3.0,90.0,4.0,64.0
10991,70.0,85.0,90.0,14.0,64.0
10992,74.0,5.0,60.0,1.0,64.0
10993,74.0,167.0,60.0,13.0,64.0
10994,53.0,4.0,150.0,7.0,64.0
10995,41.0,71.0,150.0,11.0,64.0
10996,69.0,9.0,120.0,4.0,64.0
10997,53.0,1.0,120.0,15.0,64.0
10998,69.0,9.0,120.0,14.0,64.0
10999,65.0,7.0,210.0,12.0,64.0
11000,65.0,2.0,150.0,1.0,64.0
11001,65.0,9.0,120.0,13.0,64.0
11002,53.0,80.0,240.0,12.0,64.0
11003,69.0,50.0,390.0,12.0,64.0
11004,72.0,4.0,360.0,12.0,64.0
11005,64.0,1.0,120.0,13.0,64.0
11006,64.0,18.0,120.0,1.0,64.0
11007,65.0,6.0,90.0,14.0,64.0
11008,65.0,2.0,90.0,13.0,64.0
11009,65.0,32.0,120.0,1.0,64.0
11010,65.0,0.0,90.0,4.0,64.0
11011,65.0,1.0,90.0,15.0,64.0
11012,65.0,4.0,90.0,7.0,64.0
11013,53.0,6.0,90.0,11.0,64.0
11014,65.0,6.0,90.0,12.0,64.0
11015,52.0,3.0,120.0,11.0,64.0
11016,64.0,8.0,90.0,15.0,64.0
11017,67.0,7.0,90.0,13.0,64.0
11018,67.0,4.0,90.0,1.0,64.0
11019,64.0,1.0,90.0,7.0,64.0
11020,64.0,82.0,90.0,12.0,64.0
11021,53.0,8.0,90.0,11.0,64.0
11022,65.0,4.0,120.0,7.0,64.0
11023,65.0,6.0,60.0,15.0,64.0
11024,65.0,73.0,120.0,1.0,64.0
11025,65.0,10.0,90.0,13.0,64.0
11026,65.0,16.0,60.0,12.0,64.0
11027,75.0,19.0,60.0,1.0,64.0
11028,75.0,100.0,90.0,13.0,64.0
11029,65.0,5.0,90.0,1.0,64.0
11030,57.0,6.0,90.0,15.0,64.0
11031,65.0,4.0,90.0,13.0,64.0
11032,45.0,1.0,90.0,11.0,64.0
11033,72.0,3.0,90.0,14.0,64.0
11034,72.0,2.0,90.0,4.0,64.0
11035,72.0,7.0,60.0,12.0,64.0
11036,65.0,6.0,60.0,12.0,64.0
11037,57.0,95.0,90.0,7.0,64.0
11038,57.0,3.0,60.0,12.0,64.0
11039,77.0,13.0,90.0,1.0,64.0
11040,77.0,162.0,90.0,13.0,64.0
11041,46.0,23.0,180.0,11.0,64.0
11042,58.0,26.0,180.0,7.0,64.0
11043,74.0,0.0,240.0,1.0,64.0
11044,65.0,6.0,210.0,14.0,64.0
11045,65.0,3.0,240.0,12.0,64.0
11046,65.0,4.0,240.0,4.0,64.0
11047,58.0,22.0,120.0,15.0,64.0
11048,70.0,79.0,240.0,12.0,64.0
11049,58.0,14.0,210.0,12.0,64.0
11050,74.0,11.0,210.0,13.0,64.0
11051,43.0,3.0,90.0,11.0,64.0
11052,55.0,20.0,90.0,15.0,64.0
11053,55.0,82.0,120.0,7.0,64.0
11054,63.0,2.0,90.0,14.0,64.0
11055,55.0,16.0,90.0,12.0,64.0
11056,72.0,0.0,90.0,12.0,64.0
11057,63.0,2.0,90.0,4.0,64.0
11058,72.0,0.0,90.0,1.0,64.0
11059,72.0,1.0,90.0,13.0,64.0
11060,62.0,5.0,90.0,14.0,64.0
11061,70.0,5.0,90.0,13.0,64.0
11062,62.0,1.0,90.0,4.0,64.0
11063,70.0,18.0,90.0,1.0,64.0
11064,74.0,89.0,90.0,12.0,64.0
11065,39.0,4.0,90.0,11.0,64.0
11066,63.0,3.0,210.0,4.0,64.0
11067,63.0,3.0,210.0,14.0,64.0
11068,72.0,1.0,210.0,13.0,64.0
11069,51.0,80.0,120.0,7.0,64.0
11070,72.0,2.0,210.0,1.0,64.0
11071,51.0,3.0,90.0,15.0,64.0
11072,51.0,11.0,90.0,12.0,64.0
11073,75.0,29.0,90.0,12.0,64.0
11074,67.0,99.0,210.0,12.0,64.0
11075,41.0,14.0,90.0,11.0,64.0
11076,53.0,16.0,120.0,7.0,64.0
11077,53.0,2.0,90.0,15.0,64.0
11078,65.0,6.0,120.0,12.0,64.0
11079,70.0,6.0,90.0,13.0,64.0
11080,69.0,71.0,120.0,12.0,64.0
11081,62.0,5.0,90.0,14.0,64.0
11082,62.0,0.0,90.0,4.0,64.0
11083,70.0,0.0,90.0,1.0,64.0
11084,53.0,4.0,90.0,12.0,64.0
11085,60.0,5.0,90.0,14.0,64.0
11086,63.0,1.0,90.0,12.0,64.0
11087,69.0,7.0,90.0,13.0,64.0
11088,60.0,1.0,90.0,4.0,64.0
11089,69.0,177.0,90.0,1.0,64.0
11090,58.0,21.0,150.0,4.0,64.0
11091,58.0,26.0,180.0,14.0,64.0
11092,55.0,8.0,210.0,7.0,64.0
11093,70.0,12.0,240.0,1.0,64.0
11094,55.0,7.0,210.0,15.0,64.0
11095,70.0,8.0,210.0,13.0,64.0
11096,43.0,9.0,180.0,11.0,64.0
11097,70.0,8.0,240.0,12.0,64.0
11098,55.0,60.0,240.0,12.0,64.0
11099,62.0,6.0,240.0,12.0,64.0
11100,70.0,11.0,60.0,4.0,64.0
11101,70.0,7.0,90.0,14.0,64.0
11102,53.0,1.0,90.0,7.0,64.0
11103,53.0,6.0,60.0,15.0,64.0
11104,69.0,2.0,90.0,1.0,64.0
11105,69.0,3.0,90.0,13.0,64.0
11106,53.0,3.0,90.0,12.0,64.0
11107,41.0,79.0,90.0,11.0,64.0
11108,39.0,15.0,90.0,11.0,64.0
11109,51.0,7.0,60.0,15.0,64.0
11110,51.0,1.0,90.0,7.0,64.0
11111,67.0,15.0,90.0,1.0,64.0
11112,67.0,3.0,90.0,13.0,64.0
11113,51.0,100.0,90.0,12.0,64.0
11114,38.0,14.0,180.0,11.0,64.0
11115,50.0,4.0,180.0,7.0,64.0
11116,65.0,49.0,90.0,1.0,64.0
11117,70.0,2.0,90.0,14.0,64.0
11118,70.0,6.0,90.0,4.0,64.0
11119,50.0,20.0,150.0,15.0,64.0
11120,65.0,11.0,90.0,13.0,64.0
11121,50.0,99.0,210.0,12.0,64.0
11122,70.0,11.0,90.0,1.0,64.0
11123,70.0,5.0,60.0,13.0,64.0
11124,65.0,4.0,90.0,1.0,64.0
11125,65.0,9.0,60.0,13.0,64.0
11126,48.0,3.0,60.0,15.0,64.0
11127,63.0,67.0,120.0,12.0,64.0
11128,70.0,2.0,90.0,12.0,64.0
11129,58.0,10.0,90.0,14.0,64.0
11130,48.0,1.0,90.0,7.0,64.0
11131,58.0,2.0,60.0,4.0,64.0
11132,48.0,17.0,90.0,12.0,64.0
11133,36.0,1.0,90.0,11.0,64.0
11134,34.0,3.0,90.0,11.0,64.0
11135,62.0,5.0,90.0,12.0,64.0
11136,70.0,9.0,60.0,1.0,64.0
11137,70.0,5.0,60.0,13.0,64.0
11138,46.0,3.0,90.0,15.0,64.0
11139,46.0,183.0,90.0,7.0,64.0
11140,46.0,1.0,90.0,12.0,64.0
11141,67.0,12.0,240.0,1.0,64.0
11142,51.0,14.0,180.0,7.0,64.0
11143,67.0,5.0,210.0,13.0,64.0
11144,51.0,18.0,240.0,12.0,64.0
11145,51.0,16.0,180.0,15.0,64.0
11146,58.0,11.0,150.0,14.0,64.0
11147,70.0,66.0,240.0,12.0,64.0
11148,58.0,13.0,150.0,4.0,64.0
11149,63.0,9.0,240.0,12.0,64.0
11150,39.0,12.0,210.0,11.0,64.0
11151,70.0,1.0,90.0,4.0,64.0
11152,50.0,1.0,90.0,7.0,64.0
11153,65.0,2.0,90.0,1.0,64.0
11154,70.0,7.0,90.0,14.0,64.0
11155,65.0,7.0,90.0,13.0,64.0
11156,50.0,1.0,90.0,15.0,64.0
11157,50.0,24.0,90.0,12.0,64.0
11158,38.0,53.0,90.0,11.0,64.0
11159,63.0,7.0,90.0,13.0,64.0
11160,48.0,18.0,60.0,15.0,64.0
11161,48.0,1.0,90.0,7.0,64.0
11162,63.0,8.0,90.0,1.0,64.0
11163,36.0,1.0,60.0,11.0,64.0
11164,48.0,110.0,90.0,12.0,64.0
11165,62.0,15.0,90.0,1.0,64.0
11166,34.0,24.0,150.0,11.0,64.0
11167,46.0,33.0,150.0,7.0,64.0
11168,62.0,2.0,90.0,13.0,64.0
11169,46.0,7.0,120.0,15.0,64.0
11170,70.0,6.0,90.0,14.0,64.0
11171,70.0,1.0,120.0,4.0,64.0
11172,46.0,15.0,120.0,12.0,64.0
11173,70.0,100.0,90.0,1.0,64.0
11174,70.0,10.0,60.0,13.0,64.0
11175,62.0,9.0,60.0,13.0,64.0
11176,62.0,0.0,90.0,1.0,64.0
11177,58.0,1.0,90.0,14.0,64.0
11178,70.0,0.0,60.0,12.0,64.0
11179,58.0,13.0,90.0,4.0,64.0
11180,65.0,3.0,60.0,12.0,64.0
11181,58.0,2.0,60.0,15.0,64.0
11182,58.0,4.0,90.0,7.0,64.0
11183,62.0,7.0,60.0,12.0,64.0
11184,58.0,1.0,90.0,12.0,64.0
11185,46.0,70.0,60.0,11.0,64.0
11186,70.0,7.0,60.0,1.0,64.0
11187,45.0,12.0,90.0,11.0,64.0
11188,57.0,4.0,60.0,15.0,64.0
11189,57.0,2.0,90.0,12.0,64.0
11190,57.0,205.0,90.0,7.0,64.0
11191,70.0,12.0,60.0,13.0,64.0
11192,55.0,6.0,210.0,12.0,64.0
11193,55.0,101.0,240.0,15.0,64.0
11194,43.0,1.0,210.0,11.0,64.0
11195,70.0,0.0,360.0,12.0,64.0
11196,63.0,49.0,360.0,12.0,64.0
11197,58.0,3.0,180.0,4.0,64.0
11198,63.0,3.0,210.0,1.0,64.0
11199,55.0,2.0,210.0,7.0,64.0
11200,58.0,26.0,180.0,14.0,64.0
11201,63.0,8.0,210.0,13.0,64.0
11202,53.0,0.0,90.0,12.0,64.0
11203,70.0,6.0,90.0,4.0,64.0
11204,62.0,2.0,90.0,13.0,64.0
11205,53.0,1.0,90.0,7.0,64.0
11206,62.0,7.0,90.0,1.0,64.0
11207,53.0,31.0,90.0,15.0,64.0
11208,70.0,4.0,90.0,14.0,64.0
11209,41.0,1.0,90.0,11.0,64.0
11210,39.0,10.0,60.0,11.0,64.0
11211,51.0,92.0,120.0,12.0,64.0
11212,51.0,2.0,90.0,7.0,64.0
11213,60.0,13.0,90.0,1.0,64.0
11214,51.0,1.0,60.0,15.0,64.0
11215,60.0,13.0,60.0,13.0,64.0
11216,38.0,45.0,150.0,11.0,64.0
11217,50.0,14.0,90.0,15.0,64.0
11218,50.0,25.0,120.0,7.0,64.0
11219,58.0,6.0,90.0,1.0,64.0
11220,70.0,11.0,120.0,14.0,64.0
11221,70.0,1.0,90.0,4.0,64.0
11222,58.0,7.0,90.0,13.0,64.0
11223,50.0,3.0,90.0,12.0,64.0
11224,70.0,14.0,60.0,13.0,64.0
11225,70.0,102.0,90.0,1.0,64.0
11226,52.0,12.0,60.0,15.0,64.0
11227,60.0,5.0,90.0,13.0,64.0
11228,40.0,80.0,120.0,11.0,64.0
11229,60.0,6.0,90.0,1.0,64.0
11230,58.0,6.0,90.0,4.0,64.0
11231,52.0,5.0,90.0,7.0,64.0
11232,70.0,2.0,120.0,12.0,64.0
11233,58.0,2.0,90.0,14.0,64.0
11234,52.0,9.0,60.0,12.0,64.0
11235,70.0,6.0,60.0,13.0,64.0
11236,70.0,26.0,90.0,1.0,64.0
11237,72.0,114.0,90.0,12.0,64.0
11238,53.0,3.0,150.0,15.0,64.0
11239,41.0,12.0,150.0,11.0,64.0
11240,53.0,1.0,150.0,7.0,64.0
11241,62.0,39.0,90.0,1.0,64.0
11242,53.0,18.0,210.0,12.0,64.0
11243,65.0,2.0,210.0,12.0,64.0
11244,62.0,4.0,90.0,13.0,64.0
11245,58.0,19.0,180.0,4.0,64.0
11246,58.0,22.0,150.0,14.0,64.0
11247,74.0,85.0,240.0,12.0,64.0
11248,70.0,7.0,210.0,12.0,64.0
11249,70.0,2.0,60.0,1.0,64.0
11250,70.0,10.0,60.0,13.0,64.0
11251,29.0,21.0,90.0,11.0,64.0
11252,64.0,1.0,90.0,1.0,64.0
11253,41.0,3.0,90.0,7.0,64.0
11254,70.0,3.0,120.0,14.0,64.0
11255,64.0,2.0,90.0,13.0,64.0
11256,41.0,0.0,60.0,15.0,64.0
11257,70.0,7.0,120.0,4.0,64.0
11258,72.0,74.0,120.0,12.0,64.0
11259,41.0,9.0,60.0,12.0,64.0
11260,64.0,1.0,180.0,12.0,64.0
11261,70.0,89.0,120.0,12.0,64.0
11262,70.0,18.0,90.0,1.0,64.0
11263,70.0,1.0,90.0,13.0,64.0
11264,29.0,11.0,90.0,11.0,64.0
11265,72.0,18.0,120.0,12.0,64.0
11266,41.0,8.0,90.0,7.0,64.0
11267,65.0,8.0,120.0,12.0,64.0
11268,69.0,5.0,150.0,4.0,64.0
11269,41.0,12.0,90.0,15.0,64.0
11270,65.0,12.0,90.0,1.0,64.0
11271,65.0,1.0,120.0,13.0,64.0
11272,41.0,5.0,90.0,12.0,64.0
11273,69.0,55.0,150.0,14.0,64.0
11274,69.0,111.0,90.0,1.0,64.0
11275,69.0,11.0,90.0,13.0,64.0
11276,70.0,10.0,150.0,4.0,64.0
11277,70.0,6.0,150.0,14.0,64.0
11278,65.0,4.0,90.0,13.0,64.0
11279,53.0,6.0,90.0,12.0,64.0
11280,70.0,36.0,150.0,12.0,64.0
11281,65.0,7.0,90.0,1.0,64.0
11282,60.0,8.0,120.0,12.0,64.0
11283,65.0,6.0,120.0,12.0,64.0
11284,53.0,3.0,90.0,7.0,64.0
11285,53.0,20.0,90.0,15.0,64.0
11286,41.0,3.0,120.0,11.0,64.0
11287,64.0,105.0,120.0,12.0,64.0
11288,43.0,2.0,90.0,11.0,64.0
11289,55.0,8.0,90.0,12.0,64.0
11290,55.0,3.0,90.0,7.0,64.0
11291,70.0,7.0,90.0,13.0,64.0
11292,55.0,4.0,90.0,15.0,64.0
11293,70.0,5.0,90.0,1.0,64.0
11294,57.0,15.0,150.0,7.0,64.0
11295,72.0,10.0,150.0,4.0,64.0
11296,57.0,5.0,210.0,12.0,64.0
11297,65.0,9.0,90.0,1.0,64.0
11298,65.0,33.0,90.0,13.0,64.0
11299,57.0,2.0,120.0,15.0,64.0
11300,72.0,8.0,150.0,14.0,64.0
11301,60.0,10.0,210.0,12.0,64.0
11302,65.0,2.0,210.0,12.0,64.0
11303,45.0,30.0,150.0,11.0,64.0
11304,69.0,100.0,210.0,12.0,64.0
11305,72.0,9.0,90.0,1.0,64.0
11306,72.0,8.0,90.0,13.0,64.0
11307,74.0,51.0,150.0,4.0,64.0
11308,58.0,1.0,120.0,7.0,64.0
11309,74.0,3.0,120.0,14.0,64.0
11310,65.0,2.0,90.0,1.0,64.0
11311,65.0,5.0,90.0,13.0,64.0
11312,58.0,13.0,90.0,15.0,64.0
11313,58.0,21.0,120.0,12.0,64.0
11314,46.0,3.0,120.0,11.0,64.0
11315,74.0,118.0,90.0,1.0,64.0
11316,74.0,14.0,60.0,13.0,64.0
11317,75.0,26.0,180.0,4.0,64.0
11318,48.0,2.0,120.0,11.0,64.0
11319,60.0,13.0,90.0,15.0,64.0
11320,60.0,33.0,120.0,7.0,64.0
11321,75.0,9.0,150.0,14.0,64.0
11322,65.0,7.0,90.0,1.0,64.0
11323,65.0,10.0,90.0,13.0,64.0
11324,60.0,7.0,120.0,12.0,64.0
11325,75.0,23.0,60.0,13.0,64.0
11326,75.0,94.0,90.0,1.0,64.0
11327,77.0,41.0,150.0,4.0,64.0
11328,65.0,0.0,90.0,13.0,64.0
11329,57.0,34.0,120.0,7.0,64.0
11330,65.0,2.0,90.0,1.0,64.0
11331,45.0,5.0,90.0,11.0,64.0
11332,77.0,9.0,150.0,14.0,64.0
11333,65.0,9.0,60.0,12.0,64.0
11334,57.0,13.0,90.0,15.0,64.0
11335,72.0,5.0,60.0,12.0,64.0
11336,57.0,6.0,90.0,12.0,64.0
11337,77.0,20.0,60.0,13.0,64.0
11338,77.0,173.0,90.0,1.0,64.0
11339,74.0,13.0,210.0,14.0,64.0
11340,74.0,2.0,210.0,1.0,64.0
11341,74.0,14.0,210.0,13.0,64.0
11342,74.0,23.0,240.0,4.0,64.0
11343,62.0,3.0,150.0,12.0,64.0
11344,65.0,61.0,240.0,12.0,64.0
11345,58.0,8.0,150.0,7.0,64.0
11346,58.0,9.0,150.0,15.0,64.0
11347,46.0,34.0,150.0,11.0,64.0
11348,58.0,0.0,210.0,12.0,64.0
11349,63.0,0.0,120.0,7.0,64.0
11350,72.0,1.0,90.0,14.0,64.0
11351,63.0,19.0,60.0,15.0,64.0
11352,72.0,8.0,90.0,13.0,64.0
11353,70.0,84.0,90.0,12.0,64.0
11354,72.0,1.0,90.0,4.0,64.0
11355,72.0,0.0,90.0,1.0,64.0
11356,51.0,1.0,90.0,11.0,64.0
11357,67.0,9.0,90.0,12.0,64.0
11358,63.0,0.0,90.0,12.0,64.0
11359,70.0,0.0,90.0,13.0,64.0
11360,70.0,82.0,90.0,14.0,64.0
11361,70.0,11.0,90.0,4.0,64.0
11362,70.0,17.0,60.0,1.0,64.0
11363,65.0,6.0,120.0,4.0,64.0
11364,65.0,5.0,90.0,13.0,64.0
11365,65.0,34.0,90.0,1.0,64.0
11366,53.0,4.0,90.0,11.0,64.0
11367,65.0,23.0,60.0,15.0,64.0
11368,65.0,171.0,120.0,14.0,64.0
11369,65.0,0.0,90.0,7.0,64.0
11370,70.0,1.0,90.0,12.0,64.0
11371,65.0,0.0,90.0,12.0,64.0
11372,69.0,1.0,90.0,1.0,64.0
11373,69.0,4.0,60.0,13.0,64.0
11374,69.0,248.0,90.0,14.0,64.0
11375,41.0,1.0,90.0,11.0,64.0
11376,69.0,2.0,90.0,12.0,64.0
11377,63.0,0.0,90.0,12.0,64.0
11378,53.0,7.0,60.0,15.0,64.0
11379,69.0,6.0,60.0,4.0,64.0
11380,60.0,6.0,90.0,12.0,64.0
11381,53.0,3.0,90.0,7.0,64.0
11382,53.0,4.0,90.0,12.0,64.0
11383,34.0,4.0,180.0,11.0,64.0
11384,70.0,12.0,210.0,14.0,64.0
11385,70.0,4.0,210.0,4.0,64.0
11386,70.0,36.0,210.0,13.0,64.0
11387,70.0,0.0,510.0,12.0,64.0
11388,58.0,0.0,120.0,7.0,64.0
11389,70.0,77.0,270.0,1.0,64.0
11390,62.0,32.0,510.0,12.0,64.0
11391,65.0,1.0,510.0,12.0,64.0
11392,46.0,24.0,180.0,12.0,64.0
11393,46.0,71.0,90.0,15.0,64.0
11394,50.0,46.0,90.0,10.0,64.0
11395,58.0,0.0,90.0,7.0,64.0
11396,53.0,0.0,90.0,8.0,64.0
11397,34.0,19.0,120.0,11.0,64.0
11398,46.0,48.0,150.0,12.0,64.0
11399,57.0,75.0,90.0,7.0,64.0
11400,48.0,0.0,90.0,10.0,64.0
11401,51.0,0.0,90.0,8.0,64.0
11402,50.0,9.0,90.0,10.0,64.0
11403,53.0,67.0,90.0,8.0,64.0
11404,34.0,3.0,150.0,11.0,64.0
11405,58.0,14.0,150.0,7.0,64.0
11406,46.0,166.0,150.0,12.0,64.0
11407,34.0,19.0,150.0,11.0,64.0
11408,46.0,52.0,150.0,12.0,64.0
11409,62.0,0.0,90.0,7.0,64.0
11410,58.0,0.0,90.0,8.0,64.0
11411,53.0,41.0,90.0,10.0,64.0
11412,57.0,1.0,90.0,8.0,64.0
11413,60.0,0.0,90.0,7.0,64.0
11414,51.0,169.0,90.0,10.0,64.0
11415,34.0,3.0,180.0,11.0,64.0
11416,53.0,6.0,600.0,12.0,64.0
11417,58.0,11.0,150.0,8.0,64.0
11418,62.0,135.0,210.0,7.0,64.0
11419,53.0,20.0,120.0,10.0,64.0
11420,46.0,30.0,180.0,12.0,64.0
11421,58.0,12.0,540.0,12.0,64.0
11422,62.0,26.0,510.0,12.0,64.0
11423,34.0,2.0,150.0,11.0,64.0
11424,58.0,31.0,120.0,6.0,64.0
11425,46.0,47.0,150.0,12.0,64.0
11426,65.0,0.0,90.0,4.0,64.0
11427,62.0,33.0,90.0,5.0,64.0
11428,57.0,99.0,120.0,6.0,64.0
11429,63.0,32.0,90.0,4.0,64.0
11430,60.0,1.0,90.0,5.0,64.0
11431,58.0,2.0,150.0,6.0,64.0
11432,62.0,0.0,150.0,5.0,64.0
11433,65.0,6.0,150.0,4.0,64.0
11434,34.0,0.0,120.0,11.0,64.0
11435,46.0,183.0,150.0,12.0,64.0
11436,34.0,47.0,120.0,11.0,64.0
11437,46.0,48.0,180.0,12.0,64.0
11438,62.0,4.0,120.0,6.0,64.0
11439,70.0,0.0,90.0,4.0,64.0
11440,65.0,14.0,90.0,5.0,64.0
11441,60.0,149.0,120.0,6.0,64.0
11442,69.0,0.0,90.0,4.0,64.0
11443,63.0,29.0,90.0,5.0,64.0
11444,58.0,3.0,570.0,12.0,64.0
11445,62.0,1.0,180.0,6.0,64.0
11446,70.0,12.0,180.0,4.0,64.0
11447,65.0,15.0,150.0,5.0,64.0
11448,34.0,145.0,180.0,11.0,64.0
11449,46.0,16.0,150.0,12.0,64.0
11450,62.0,13.0,510.0,12.0,64.0
11451,65.0,19.0,510.0,12.0,64.0
11452,46.0,55.0,150.0,12.0,64.0
11453,34.0,29.0,120.0,11.0,64.0
11454,74.0,1.0,90.0,1.0,64.0
11455,65.0,0.0,90.0,3.0,64.0
11456,70.0,28.0,90.0,2.0,64.0
11457,63.0,0.0,90.0,3.0,64.0
11458,72.0,1.0,90.0,1.0,64.0
11459,69.0,96.0,90.0,2.0,64.0
11460,74.0,3.0,150.0,1.0,64.0
11461,34.0,38.0,120.0,11.0,64.0
11462,65.0,9.0,150.0,3.0,64.0
11463,46.0,176.0,150.0,12.0,64.0
11464,70.0,9.0,150.0,2.0,64.0
11465,34.0,60.0,120.0,11.0,64.0
11466,46.0,43.0,180.0,12.0,64.0
11467,77.0,1.0,90.0,1.0,64.0
11468,70.0,0.0,90.0,3.0,64.0
11469,74.0,9.0,90.0,2.0,64.0
11470,69.0,1.0,90.0,3.0,64.0
11471,75.0,0.0,90.0,1.0,64.0
11472,72.0,170.0,90.0,2.0,64.0
11473,74.0,3.0,150.0,2.0,64.0
11474,77.0,16.0,180.0,1.0,64.0
11475,34.0,7.0,150.0,11.0,64.0
11476,70.0,9.0,150.0,3.0,64.0
11477,62.0,3.0,540.0,12.0,64.0
11478,46.0,161.0,180.0,12.0,64.0
11479,65.0,5.0,480.0,12.0,64.0
11480,70.0,59.0,450.0,12.0,64.0
11481,34.0,51.0,120.0,11.0,64.0
11482,46.0,46.0,150.0,12.0,64.0
11483,82.0,1.0,90.0,1.0,64.0
11484,74.0,15.0,90.0,3.0,64.0
11485,77.0,0.0,90.0,2.0,64.0
11486,81.0,1.0,90.0,1.0,64.0
11487,72.0,0.0,90.0,3.0,64.0
11488,75.0,68.0,90.0,2.0,64.0
11489,74.0,2.0,150.0,3.0,64.0
11490,34.0,37.0,120.0,11.0,64.0
11491,82.0,155.0,180.0,1.0,64.0
11492,77.0,18.0,150.0,2.0,64.0
11493,46.0,1.0,150.0,12.0,64.0
11494,34.0,53.0,120.0,11.0,64.0
11495,46.0,53.0,150.0,12.0,64.0
11496,65.0,10.0,90.0,14.0,64.0
11497,65.0,8.0,90.0,4.0,64.0
11498,86.0,1.0,90.0,1.0,64.0
11499,77.0,6.0,90.0,3.0,64.0
11500,82.0,0.0,90.0,2.0,64.0
11501,84.0,1.0,90.0,1.0,64.0
11502,81.0,171.0,90.0,2.0,64.0
11503,75.0,0.0,90.0,3.0,64.0
11504,34.0,8.0,150.0,11.0,64.0
11505,65.0,1.0,480.0,12.0,64.0
11506,70.0,4.0,210.0,14.0,64.0
11507,86.0,113.0,210.0,1.0,64.0
11508,77.0,6.0,150.0,3.0,64.0
11509,46.0,35.0,180.0,12.0,64.0
11510,70.0,6.0,210.0,4.0,64.0
11511,82.0,18.0,150.0,2.0,64.0
11512,70.0,0.0,420.0,12.0,64.0
11513,74.0,96.0,390.0,12.0,64.0
11514,34.0,6.0,120.0,11.0,64.0
11515,69.0,11.0,90.0,14.0,64.0
11516,46.0,42.0,150.0,12.0,64.0
11517,69.0,3.0,90.0,4.0,64.0
11518,84.0,43.0,120.0,1.0,64.0
11519,67.0,0.0,90.0,14.0,64.0
11520,67.0,18.0,90.0,4.0,64.0
11521,82.0,5.0,90.0,1.0,64.0
11522,34.0,9.0,90.0,11.0,64.0
11523,65.0,6.0,90.0,4.0,64.0
11524,65.0,46.0,90.0,14.0,64.0
11525,81.0,7.0,90.0,1.0,64.0
11526,46.0,35.0,150.0,12.0,64.0
11527,63.0,14.0,90.0,4.0,64.0
11528,79.0,90.0,90.0,1.0,64.0
11529,63.0,15.0,60.0,14.0,64.0
11530,34.0,5.0,120.0,11.0,64.0
11531,62.0,7.0,90.0,4.0,64.0
11532,62.0,2.0,90.0,14.0,64.0
11533,77.0,1.0,90.0,1.0,64.0
11534,46.0,37.0,150.0,12.0,64.0
11535,70.0,54.0,90.0,3.0,64.0
11536,70.0,9.0,60.0,12.0,64.0
11537,77.0,5.0,90.0,2.0,64.0
11538,65.0,0.0,60.0,12.0,64.0
11539,62.0,12.0,60.0,12.0,64.0
11540,75.0,4.0,90.0,1.0,64.0
11541,60.0,123.0,90.0,4.0,64.0
11542,60.0,4.0,90.0,14.0,64.0
11543,34.0,29.0,180.0,11.0,64.0
11544,58.0,15.0,90.0,4.0,64.0
11545,74.0,47.0,90.0,1.0,64.0
11546,74.0,81.0,240.0,3.0,64.0
11547,82.0,20.0,210.0,2.0,64.0
11548,58.0,7.0,150.0,14.0,64.0
11549,46.0,14.0,180.0,12.0,64.0
11550,58.0,41.0,480.0,12.0,64.0
11551,62.0,3.0,450.0,12.0,64.0
11552,65.0,1.0,450.0,12.0,64.0
11553,62.0,12.0,90.0,4.0,64.0
11554,77.0,0.0,90.0,1.0,64.0
11555,53.0,7.0,90.0,6.0,64.0
11556,63.0,2.0,90.0,4.0,64.0
11557,75.0,9.0,90.0,1.0,64.0
11558,55.0,5.0,90.0,6.0,64.0
11559,81.0,2.0,90.0,2.0,64.0
11560,34.0,2.0,90.0,11.0,64.0
11561,46.0,50.0,150.0,12.0,64.0
11562,60.0,4.0,90.0,5.0,64.0
11563,72.0,48.0,90.0,3.0,64.0
11564,65.0,0.0,90.0,4.0,64.0
11565,57.0,3.0,90.0,6.0,64.0
11566,62.0,8.0,90.0,5.0,64.0
11567,74.0,4.0,90.0,1.0,64.0
11568,79.0,59.0,90.0,2.0,64.0
11569,70.0,1.0,90.0,3.0,64.0
11570,34.0,2.0,90.0,11.0,64.0
11571,67.0,6.0,90.0,4.0,64.0
11572,58.0,14.0,120.0,6.0,64.0
11573,72.0,3.0,120.0,1.0,64.0
11574,63.0,2.0,90.0,5.0,64.0
11575,77.0,0.0,90.0,2.0,64.0
11576,69.0,11.0,90.0,3.0,64.0
11577,46.0,82.0,120.0,12.0,64.0
11578,69.0,3.0,90.0,4.0,64.0
11579,65.0,0.0,90.0,5.0,64.0
11580,75.0,5.0,90.0,2.0,64.0
11581,60.0,0.0,90.0,6.0,64.0
11582,70.0,0.0,90.0,1.0,64.0
11583,67.0,91.0,90.0,3.0,64.0
11584,41.0,2.0,90.0,11.0,64.0
11585,70.0,1.0,120.0,4.0,64.0
11586,67.0,10.0,90.0,5.0,64.0
11587,65.0,1.0,90.0,3.0,64.0
11588,62.0,4.0,90.0,6.0,64.0
11589,69.0,1.0,90.0,1.0,64.0
11590,74.0,7.0,90.0,2.0,64.0
11591,53.0,0.0,90.0,12.0,64.0
11592,65.0,2.0,90.0,12.0,64.0
11593,53.0,13.0,60.0,15.0,64.0
11594,53.0,96.0,90.0,7.0,64.0
11595,72.0,124.0,120.0,4.0,64.0
11596,69.0,3.0,90.0,5.0,64.0
11597,72.0,8.0,90.0,2.0,64.0
11598,63.0,0.0,90.0,3.0,64.0
11599,63.0,1.0,90.0,6.0,64.0
11600,67.0,10.0,90.0,1.0,64.0
11601,74.0,6.0,120.0,4.0,64.0
11602,70.0,6.0,210.0,5.0,64.0
11603,62.0,73.0,120.0,3.0,64.0
11604,46.0,3.0,240.0,11.0,64.0
11605,58.0,1.0,210.0,15.0,64.0
11606,70.0,12.0,210.0,2.0,64.0
11607,58.0,0.0,270.0,12.0,64.0
11608,70.0,37.0,270.0,12.0,64.0
11609,65.0,10.0,90.0,1.0,64.0
11610,58.0,20.0,240.0,7.0,64.0
11611,65.0,12.0,120.0,6.0,64.0
11612,70.0,2.0,90.0,13.0,64.0
11613,70.0,0.0,90.0,1.0,64.0
11614,70.0,22.0,90.0,4.0,64.0
11615,57.0,7.0,60.0,15.0,64.0
11616,69.0,22.0,60.0,13.0,64.0
11617,69.0,4.0,90.0,14.0,64.0
11618,69.0,4.0,90.0,4.0,64.0
11619,69.0,8.0,90.0,1.0,64.0
11620,57.0,3.0,90.0,7.0,64.0
11621,45.0,14.0,90.0,11.0,64.0
11622,57.0,0.0,90.0,12.0,64.0
11623,69.0,68.0,90.0,12.0,64.0
11624,67.0,23.0,90.0,4.0,64.0
11625,67.0,0.0,60.0,1.0,64.0
11626,67.0,4.0,90.0,14.0,64.0
11627,55.0,0.0,60.0,15.0,64.0
11628,67.0,10.0,60.0,13.0,64.0
11629,43.0,9.0,90.0,11.0,64.0
11630,55.0,4.0,90.0,7.0,64.0
11631,55.0,0.0,120.0,12.0,64.0
11632,67.0,66.0,120.0,12.0,64.0
11633,65.0,5.0,90.0,4.0,64.0
11634,65.0,5.0,90.0,1.0,64.0
11635,53.0,1.0,90.0,15.0,64.0
11636,65.0,5.0,120.0,14.0,64.0
11637,65.0,7.0,60.0,13.0,64.0
11638,53.0,18.0,60.0,7.0,64.0
11639,41.0,63.0,120.0,11.0,64.0
11640,65.0,0.0,90.0,12.0,64.0
11641,53.0,9.0,90.0,12.0,64.0
11642,51.0,15.0,60.0,15.0,64.0
11643,63.0,15.0,90.0,14.0,64.0
11644,63.0,1.0,90.0,1.0,64.0
11645,63.0,3.0,90.0,4.0,64.0
11646,51.0,3.0,90.0,7.0,64.0
11647,63.0,1.0,60.0,13.0,64.0
11648,39.0,4.0,90.0,11.0,64.0
11649,51.0,0.0,90.0,12.0,64.0
11650,63.0,81.0,90.0,12.0,64.0
11651,50.0,4.0,60.0,15.0,64.0
11652,62.0,7.0,90.0,14.0,64.0
11653,62.0,3.0,90.0,4.0,64.0
11654,62.0,2.0,90.0,1.0,64.0
11655,50.0,7.0,90.0,7.0,64.0
11656,38.0,18.0,90.0,11.0,64.0
11657,62.0,5.0,60.0,13.0,64.0
11658,50.0,60.0,120.0,12.0,64.0
11659,62.0,0.0,120.0,12.0,64.0
11660,60.0,4.0,60.0,1.0,64.0
11661,48.0,11.0,60.0,15.0,64.0
11662,60.0,4.0,90.0,4.0,64.0
11663,48.0,13.0,60.0,7.0,64.0
11664,60.0,1.0,60.0,14.0,64.0
11665,60.0,0.0,60.0,13.0,64.0
11666,36.0,20.0,90.0,11.0,64.0
11667,60.0,0.0,90.0,12.0,64.0
11668,48.0,191.0,90.0,12.0,64.0
11669,62.0,4.0,180.0,14.0,64.0
11670,50.0,12.0,180.0,15.0,64.0
11671,50.0,9.0,180.0,7.0,64.0
11672,62.0,11.0,210.0,4.0,64.0
11673,62.0,4.0,210.0,1.0,64.0
11674,62.0,4.0,210.0,13.0,64.0
11675,62.0,83.0,240.0,12.0,64.0
11676,50.0,0.0,240.0,12.0,64.0
11677,38.0,19.0,210.0,11.0,64.0
11678,48.0,0.0,90.0,15.0,64.0
11679,60.0,3.0,90.0,14.0,64.0
11680,60.0,13.0,90.0,13.0,64.0
11681,36.0,2.0,90.0,11.0,64.0
11682,48.0,1.0,90.0,7.0,64.0
11683,60.0,3.0,90.0,4.0,64.0
11684,60.0,8.0,90.0,1.0,64.0
11685,48.0,77.0,90.0,12.0,64.0
11686,60.0,0.0,90.0,12.0,64.0
11687,46.0,8.0,90.0,15.0,64.0
11688,58.0,0.0,90.0,14.0,64.0
11689,34.0,97.0,120.0,11.0,64.0
11690,46.0,1.0,90.0,7.0,64.0
11691,58.0,17.0,90.0,4.0,64.0
11692,58.0,6.0,60.0,1.0,64.0
11693,58.0,7.0,90.0,13.0,64.0
11694,58.0,1.0,90.0,12.0,64.0
11695,46.0,0.0,90.0,12.0,64.0
11696,65.0,3.0,90.0,1.0,64.0
11697,53.0,6.0,120.0,7.0,64.0
11698,41.0,4.0,90.0,11.0,64.0
11699,65.0,7.0,90.0,14.0,64.0
11700,65.0,0.0,90.0,4.0,64.0
11701,65.0,3.0,90.0,13.0,64.0
11702,53.0,210.0,120.0,15.0,64.0
11703,65.0,0.0,90.0,12.0,64.0
11704,53.0,1.0,90.0,12.0,64.0
11705,65.0,10.0,90.0,1.0,64.0
11706,29.0,1063.0,120.0,11.0,64.0
11707,53.0,1.0,90.0,4.0,64.0
11708,41.0,9.0,90.0,7.0,64.0
11709,41.0,0.0,60.0,15.0,64.0
11710,53.0,23.0,90.0,14.0,64.0
11711,65.0,3.0,60.0,13.0,64.0
11712,41.0,3.0,60.0,12.0,64.0
11713,53.0,0.0,60.0,12.0,64.0
11714,58.0,1.0,960.0,4.0,64.0
11715,46.0,21.0,960.0,15.0,64.0
11716,58.0,9.0,930.0,13.0,64.0
11717,58.0,1.0,960.0,14.0,64.0
11718,58.0,0.0,930.0,1.0,64.0
11719,46.0,4.0,930.0,7.0,64.0
11720,34.0,44.0,960.0,11.0,64.0
11721,46.0,0.0,990.0,12.0,64.0
11722,58.0,1853.0,990.0,12.0,64.0
