,note,step,duration,channel,velocity
0,60.0,384.0,330.0,4.0,0.0
1,56.0,0.0,330.0,4.0,0.0
2,44.0,0.0,330.0,3.0,0.0
3,51.0,0.0,330.0,2.0,0.0
4,56.0,0.0,330.0,1.0,0.0
5,51.0,0.0,330.0,7.0,0.0
6,44.0,0.0,330.0,7.0,0.0
7,51.0,0.0,330.0,5.0,0.0
8,44.0,0.0,330.0,5.0,0.0
9,56.0,0.0,330.0,6.0,0.0
10,60.0,0.0,330.0,6.0,0.0
11,60.0,0.0,330.0,0.0,0.0
12,56.0,0.0,330.0,4.0,0.0
13,65.0,0.0,330.0,6.0,0.0
14,49.0,0.0,330.0,5.0,0.0
15,65.0,384.0,330.0,0.0,0.0
16,49.0,0.0,330.0,3.0,0.0
17,49.0,0.0,330.0,2.0,0.0
18,56.0,0.0,330.0,1.0,0.0
19,65.0,0.0,330.0,4.0,0.0
20,49.0,0.0,330.0,7.0,0.0
21,56.0,0.0,330.0,6.0,0.0
22,48.0,0.0,330.0,3.0,0.0
23,48.0,0.0,330.0,7.0,0.0
24,51.0,240.0,330.0,7.0,0.0
25,63.0,0.0,330.0,4.0,0.0
26,51.0,0.0,330.0,5.0,0.0
27,48.0,0.0,330.0,5.0,0.0
28,56.0,0.0,330.0,4.0,0.0
29,56.0,0.0,330.0,1.0,0.0
30,51.0,0.0,330.0,2.0,0.0
31,56.0,0.0,330.0,6.0,0.0
32,63.0,0.0,330.0,6.0,0.0
33,63.0,0.0,330.0,0.0,0.0
34,41.0,0.0,180.0,3.0,0.0
35,56.0,0.0,180.0,6.0,0.0
36,61.0,0.0,330.0,6.0,0.0
37,41.0,144.0,180.0,5.0,0.0
38,53.0,0.0,180.0,2.0,0.0
39,56.0,0.0,180.0,1.0,0.0
40,53.0,0.0,180.0,5.0,0.0
41,53.0,0.0,180.0,7.0,0.0
42,61.0,0.0,330.0,4.0,0.0
43,56.0,0.0,180.0,4.0,0.0
44,61.0,0.0,330.0,0.0,0.0
45,41.0,0.0,180.0,7.0,0.0
46,58.0,0.0,150.0,4.0,0.0
47,51.0,0.0,150.0,2.0,0.0
48,58.0,0.0,150.0,0.0,0.0
49,51.0,0.0,150.0,5.0,0.0
50,43.0,240.0,150.0,5.0,0.0
51,43.0,0.0,150.0,3.0,0.0
52,58.0,0.0,150.0,1.0,0.0
53,58.0,0.0,150.0,6.0,0.0
54,43.0,0.0,150.0,7.0,0.0
55,51.0,0.0,150.0,7.0,0.0
56,51.0,0.0,330.0,7.0,0.0
57,58.0,0.0,180.0,6.0,0.0
58,51.0,0.0,330.0,5.0,0.0
59,44.0,384.0,330.0,3.0,0.0
60,58.0,144.0,180.0,4.0,0.0
61,58.0,0.0,180.0,1.0,0.0
62,60.0,0.0,330.0,0.0,0.0
63,44.0,0.0,330.0,5.0,0.0
64,44.0,0.0,330.0,7.0,0.0
65,51.0,0.0,330.0,2.0,0.0
66,60.0,0.0,330.0,6.0,0.0
67,60.0,0.0,330.0,4.0,0.0
68,56.0,0.0,150.0,6.0,0.0
69,56.0,0.0,150.0,1.0,0.0
70,56.0,0.0,150.0,0.0,0.0
71,56.0,0.0,150.0,4.0,0.0
72,53.0,336.0,390.0,7.0,0.0
73,39.0,0.0,330.0,7.0,0.0
74,53.0,0.0,390.0,5.0,0.0
75,53.0,0.0,390.0,2.0,0.0
76,56.0,0.0,390.0,6.0,0.0
77,58.0,0.0,720.0,6.0,0.0
78,39.0,0.0,330.0,3.0,0.0
79,56.0,0.0,390.0,4.0,0.0
80,58.0,0.0,720.0,4.0,0.0
81,39.0,48.0,330.0,5.0,0.0
82,58.0,0.0,720.0,0.0,0.0
83,56.0,0.0,390.0,1.0,0.0
84,41.0,0.0,330.0,7.0,0.0
85,55.0,0.0,390.0,6.0,0.0
86,41.0,0.0,330.0,5.0,0.0
87,55.0,336.0,390.0,0.0,0.0
88,55.0,0.0,390.0,4.0,0.0
89,55.0,0.0,390.0,1.0,0.0
90,51.0,0.0,330.0,7.0,0.0
91,51.0,0.0,330.0,2.0,0.0
92,51.0,0.0,330.0,5.0,0.0
93,41.0,48.0,330.0,3.0,0.0
94,56.0,0.0,330.0,1.0,0.0
95,60.0,0.0,330.0,0.0,0.0
96,51.0,0.0,330.0,5.0,0.0
97,56.0,0.0,330.0,6.0,0.0
98,44.0,0.0,330.0,3.0,0.0
99,60.0,0.0,330.0,4.0,0.0
100,44.0,384.0,330.0,5.0,0.0
101,44.0,0.0,330.0,7.0,0.0
102,51.0,0.0,330.0,7.0,0.0
103,51.0,0.0,330.0,2.0,0.0
104,60.0,0.0,330.0,6.0,0.0
105,56.0,0.0,330.0,4.0,0.0
106,58.0,0.0,330.0,4.0,0.0
107,67.0,0.0,330.0,4.0,0.0
108,67.0,0.0,330.0,6.0,0.0
109,67.0,240.0,330.0,0.0,0.0
110,43.0,0.0,330.0,3.0,0.0
111,52.0,0.0,330.0,5.0,0.0
112,52.0,0.0,330.0,7.0,0.0
113,43.0,0.0,330.0,7.0,0.0
114,52.0,0.0,330.0,2.0,0.0
115,43.0,0.0,330.0,5.0,0.0
116,58.0,0.0,330.0,1.0,0.0
117,58.0,0.0,330.0,6.0,0.0
118,41.0,144.0,180.0,7.0,0.0
119,48.0,48.0,330.0,7.0,0.0
120,56.0,0.0,180.0,4.0,0.0
121,68.0,0.0,330.0,4.0,0.0
122,48.0,0.0,330.0,5.0,0.0
123,41.0,0.0,180.0,5.0,0.0
124,48.0,0.0,330.0,2.0,0.0
125,68.0,0.0,330.0,0.0,0.0
126,56.0,0.0,180.0,1.0,0.0
127,68.0,0.0,330.0,6.0,0.0
128,41.0,0.0,180.0,3.0,0.0
129,56.0,0.0,180.0,6.0,0.0
130,43.0,0.0,180.0,5.0,0.0
131,43.0,0.0,180.0,3.0,0.0
132,58.0,0.0,180.0,4.0,0.0
133,58.0,0.0,180.0,1.0,0.0
134,43.0,192.0,180.0,2.0,0.0
135,58.0,0.0,180.0,0.0,0.0
136,58.0,0.0,180.0,6.0,0.0
137,43.0,0.0,180.0,7.0,0.0
138,44.0,144.0,180.0,7.0,0.0
139,53.0,0.0,330.0,7.0,0.0
140,68.0,0.0,330.0,4.0,0.0
141,60.0,0.0,330.0,4.0,0.0
142,44.0,0.0,180.0,3.0,0.0
143,68.0,240.0,330.0,0.0,0.0
144,60.0,0.0,330.0,1.0,0.0
145,68.0,0.0,330.0,6.0,0.0
146,60.0,0.0,330.0,6.0,0.0
147,53.0,0.0,330.0,2.0,0.0
148,44.0,0.0,180.0,5.0,0.0
149,53.0,0.0,330.0,5.0,0.0
150,46.0,0.0,150.0,5.0,0.0
151,46.0,0.0,150.0,2.0,0.0
152,46.0,0.0,150.0,3.0,0.0
153,46.0,0.0,150.0,7.0,0.0
154,48.0,0.0,330.0,3.0,0.0
155,53.0,0.0,330.0,2.0,0.0
156,60.0,48.0,330.0,4.0,0.0
157,67.0,0.0,180.0,4.0,0.0
158,60.0,0.0,330.0,1.0,0.0
159,60.0,0.0,330.0,6.0,0.0
160,67.0,0.0,180.0,6.0,0.0
161,48.0,0.0,330.0,7.0,0.0
162,53.0,0.0,330.0,7.0,0.0
163,67.0,144.0,180.0,0.0,0.0
164,53.0,0.0,330.0,5.0,0.0
165,48.0,0.0,330.0,5.0,0.0
166,65.0,192.0,180.0,4.0,0.0
167,65.0,0.0,180.0,6.0,0.0
168,65.0,0.0,180.0,1.0,0.0
169,65.0,0.0,180.0,0.0,0.0
170,60.0,0.0,180.0,6.0,0.0
171,67.0,0.0,330.0,6.0,0.0
172,48.0,48.0,330.0,3.0,0.0
173,60.0,144.0,180.0,1.0,0.0
174,67.0,0.0,330.0,0.0,0.0
175,36.0,0.0,330.0,7.0,0.0
176,52.0,0.0,330.0,2.0,0.0
177,52.0,0.0,330.0,5.0,0.0
178,48.0,0.0,330.0,5.0,0.0
179,36.0,0.0,330.0,5.0,0.0
180,52.0,0.0,330.0,7.0,0.0
181,48.0,0.0,330.0,7.0,0.0
182,67.0,0.0,330.0,4.0,0.0
183,60.0,0.0,180.0,4.0,0.0
184,58.0,1104.0,180.0,1.0,0.0
185,58.0,0.0,180.0,4.0,0.0
186,58.0,0.0,180.0,0.0,0.0
187,58.0,0.0,180.0,6.0,0.0
188,41.0,0.0,1110.0,3.0,0.0
189,53.0,0.0,1110.0,5.0,0.0
190,41.0,0.0,1110.0,5.0,0.0
191,65.0,0.0,1110.0,4.0,0.0
192,56.0,0.0,1110.0,4.0,0.0
193,53.0,0.0,1110.0,7.0,0.0
194,41.0,0.0,1110.0,7.0,0.0
195,65.0,0.0,1110.0,0.0,0.0
196,53.0,0.0,1110.0,2.0,0.0
197,65.0,0.0,1110.0,6.0,0.0
198,56.0,384.0,1110.0,1.0,0.0
199,56.0,0.0,1110.0,6.0,0.0
200,44.0,0.0,330.0,5.0,0.0
201,51.0,0.0,330.0,5.0,0.0
202,56.0,0.0,330.0,1.0,0.0
203,44.0,384.0,330.0,7.0,0.0
204,56.0,0.0,330.0,6.0,0.0
205,56.0,0.0,330.0,4.0,0.0
206,51.0,0.0,330.0,7.0,0.0
207,60.0,0.0,330.0,0.0,0.0
208,44.0,0.0,330.0,3.0,0.0
209,51.0,0.0,330.0,2.0,0.0
210,60.0,0.0,330.0,6.0,0.0
211,60.0,0.0,330.0,4.0,0.0
212,49.0,0.0,330.0,3.0,0.0
213,49.0,0.0,330.0,2.0,0.0
214,65.0,0.0,330.0,0.0,0.0
215,56.0,0.0,330.0,4.0,0.0
216,65.0,0.0,330.0,4.0,0.0
217,65.0,0.0,330.0,6.0,0.0
218,56.0,0.0,330.0,6.0,0.0
219,49.0,384.0,330.0,7.0,0.0
220,49.0,0.0,330.0,5.0,0.0
221,56.0,0.0,330.0,1.0,0.0
222,48.0,0.0,330.0,3.0,0.0
223,63.0,0.0,330.0,4.0,0.0
224,56.0,240.0,330.0,4.0,0.0
225,51.0,0.0,330.0,7.0,0.0
226,51.0,0.0,330.0,2.0,0.0
227,56.0,0.0,330.0,6.0,0.0
228,56.0,0.0,330.0,1.0,0.0
229,51.0,0.0,330.0,5.0,0.0
230,48.0,0.0,330.0,5.0,0.0
231,63.0,0.0,330.0,0.0,0.0
232,48.0,0.0,330.0,7.0,0.0
233,63.0,0.0,330.0,6.0,0.0
234,41.0,0.0,180.0,7.0,0.0
235,41.0,0.0,180.0,3.0,0.0
236,61.0,0.0,330.0,6.0,0.0
237,53.0,0.0,180.0,7.0,0.0
238,53.0,0.0,180.0,2.0,0.0
239,56.0,0.0,180.0,4.0,0.0
240,61.0,0.0,330.0,4.0,0.0
241,56.0,0.0,180.0,6.0,0.0
242,53.0,0.0,180.0,5.0,0.0
243,41.0,0.0,180.0,5.0,0.0
244,56.0,144.0,180.0,1.0,0.0
245,61.0,0.0,330.0,0.0,0.0
246,43.0,0.0,150.0,7.0,0.0
247,51.0,0.0,150.0,7.0,0.0
248,43.0,0.0,150.0,5.0,0.0
249,43.0,0.0,150.0,3.0,0.0
250,51.0,0.0,150.0,5.0,0.0
251,51.0,0.0,150.0,2.0,0.0
252,58.0,0.0,150.0,4.0,0.0
253,58.0,240.0,150.0,1.0,0.0
254,58.0,0.0,150.0,6.0,0.0
255,58.0,0.0,150.0,0.0,0.0
256,51.0,0.0,330.0,5.0,0.0
257,60.0,0.0,330.0,0.0,0.0
258,44.0,0.0,330.0,5.0,0.0
259,58.0,144.0,180.0,4.0,0.0
260,58.0,0.0,180.0,1.0,0.0
261,51.0,0.0,330.0,7.0,0.0
262,44.0,0.0,330.0,7.0,0.0
263,58.0,0.0,180.0,6.0,0.0
264,44.0,384.0,330.0,3.0,0.0
265,60.0,0.0,330.0,4.0,0.0
266,51.0,0.0,330.0,2.0,0.0
267,60.0,0.0,330.0,6.0,0.0
268,56.0,0.0,150.0,1.0,0.0
269,56.0,0.0,150.0,0.0,0.0
270,56.0,0.0,150.0,6.0,0.0
271,56.0,0.0,150.0,4.0,0.0
272,53.0,0.0,390.0,7.0,0.0
273,39.0,48.0,330.0,7.0,0.0
274,39.0,0.0,330.0,5.0,0.0
275,53.0,0.0,390.0,5.0,0.0
276,39.0,0.0,330.0,3.0,0.0
277,53.0,0.0,390.0,2.0,0.0
278,56.0,0.0,390.0,1.0,0.0
279,58.0,0.0,720.0,4.0,0.0
280,58.0,0.0,720.0,0.0,0.0
281,56.0,336.0,390.0,6.0,0.0
282,58.0,0.0,720.0,6.0,0.0
283,56.0,0.0,390.0,4.0,0.0
284,51.0,0.0,330.0,5.0,0.0
285,51.0,48.0,330.0,2.0,0.0
286,55.0,0.0,390.0,0.0,0.0
287,41.0,0.0,330.0,3.0,0.0
288,41.0,0.0,330.0,5.0,0.0
289,55.0,336.0,390.0,1.0,0.0
290,55.0,0.0,390.0,4.0,0.0
291,51.0,0.0,330.0,7.0,0.0
292,41.0,0.0,330.0,7.0,0.0
293,55.0,0.0,390.0,6.0,0.0
294,44.0,384.0,330.0,3.0,0.0
295,51.0,0.0,330.0,5.0,0.0
296,60.0,0.0,330.0,6.0,0.0
297,44.0,0.0,330.0,7.0,0.0
298,51.0,0.0,330.0,7.0,0.0
299,56.0,0.0,330.0,4.0,0.0
300,44.0,0.0,330.0,5.0,0.0
301,60.0,0.0,330.0,4.0,0.0
302,56.0,0.0,330.0,6.0,0.0
303,60.0,0.0,330.0,0.0,0.0
304,56.0,0.0,330.0,1.0,0.0
305,51.0,0.0,330.0,2.0,0.0
306,58.0,0.0,330.0,1.0,0.0
307,52.0,0.0,330.0,5.0,0.0
308,43.0,0.0,330.0,3.0,0.0
309,43.0,240.0,330.0,5.0,0.0
310,67.0,0.0,330.0,0.0,0.0
311,67.0,0.0,330.0,6.0,0.0
312,52.0,0.0,330.0,2.0,0.0
313,43.0,0.0,330.0,7.0,0.0
314,67.0,0.0,330.0,4.0,0.0
315,58.0,0.0,330.0,4.0,0.0
316,52.0,0.0,330.0,7.0,0.0
317,58.0,0.0,330.0,6.0,0.0
318,68.0,48.0,330.0,6.0,0.0
319,56.0,144.0,180.0,4.0,0.0
320,48.0,0.0,330.0,7.0,0.0
321,41.0,0.0,180.0,7.0,0.0
322,48.0,0.0,330.0,2.0,0.0
323,56.0,0.0,180.0,6.0,0.0
324,41.0,0.0,180.0,5.0,0.0
325,56.0,0.0,180.0,1.0,0.0
326,41.0,0.0,180.0,3.0,0.0
327,68.0,0.0,330.0,0.0,0.0
328,68.0,0.0,330.0,4.0,0.0
329,48.0,0.0,330.0,5.0,0.0
330,58.0,0.0,180.0,6.0,0.0
331,58.0,192.0,180.0,1.0,0.0
332,43.0,0.0,180.0,7.0,0.0
333,43.0,0.0,180.0,2.0,0.0
334,58.0,0.0,180.0,0.0,0.0
335,58.0,0.0,180.0,4.0,0.0
336,43.0,0.0,180.0,3.0,0.0
337,43.0,0.0,180.0,5.0,0.0
338,53.0,0.0,330.0,2.0,0.0
339,68.0,0.0,330.0,6.0,0.0
340,60.0,0.0,330.0,6.0,0.0
341,53.0,0.0,330.0,7.0,0.0
342,53.0,0.0,330.0,5.0,0.0
343,44.0,144.0,180.0,7.0,0.0
344,68.0,240.0,330.0,0.0,0.0
345,60.0,0.0,330.0,1.0,0.0
346,44.0,0.0,180.0,3.0,0.0
347,44.0,0.0,180.0,5.0,0.0
348,68.0,0.0,330.0,4.0,0.0
349,60.0,0.0,330.0,4.0,0.0
350,46.0,0.0,150.0,3.0,0.0
351,46.0,0.0,150.0,7.0,0.0
352,46.0,0.0,150.0,5.0,0.0
353,46.0,0.0,150.0,2.0,0.0
354,60.0,0.0,330.0,4.0,0.0
355,53.0,0.0,330.0,7.0,0.0
356,48.0,0.0,330.0,7.0,0.0
357,48.0,0.0,330.0,3.0,0.0
358,67.0,0.0,180.0,4.0,0.0
359,53.0,0.0,330.0,5.0,0.0
360,67.0,0.0,180.0,0.0,0.0
361,67.0,144.0,180.0,6.0,0.0
362,60.0,0.0,330.0,1.0,0.0
363,60.0,0.0,330.0,6.0,0.0
364,53.0,0.0,330.0,2.0,0.0
365,48.0,48.0,330.0,5.0,0.0
366,65.0,0.0,180.0,1.0,0.0
367,65.0,0.0,180.0,4.0,0.0
368,65.0,192.0,180.0,6.0,0.0
369,65.0,0.0,180.0,0.0,0.0
370,48.0,0.0,330.0,5.0,0.0
371,67.0,0.0,330.0,0.0,0.0
372,60.0,0.0,180.0,4.0,0.0
373,36.0,0.0,330.0,5.0,0.0
374,60.0,0.0,180.0,1.0,0.0
375,67.0,0.0,330.0,4.0,0.0
376,48.0,48.0,330.0,3.0,0.0
377,52.0,0.0,330.0,2.0,0.0
378,67.0,0.0,330.0,6.0,0.0
379,36.0,0.0,330.0,7.0,0.0
380,48.0,0.0,330.0,7.0,0.0
381,52.0,0.0,330.0,7.0,0.0
382,52.0,0.0,330.0,5.0,0.0
383,60.0,144.0,180.0,6.0,0.0
384,58.0,0.0,180.0,1.0,0.0
385,58.0,0.0,180.0,6.0,0.0
386,58.0,0.0,180.0,0.0,0.0
387,58.0,1104.0,180.0,4.0,0.0
388,53.0,240.0,1110.0,7.0,0.0
389,41.0,0.0,1110.0,7.0,0.0
390,53.0,0.0,1110.0,2.0,0.0
391,41.0,0.0,1110.0,3.0,0.0
392,65.0,0.0,1110.0,6.0,0.0
393,56.0,0.0,1110.0,4.0,0.0
394,56.0,0.0,1110.0,1.0,0.0
395,65.0,0.0,1110.0,4.0,0.0
396,65.0,0.0,1110.0,0.0,0.0
397,41.0,0.0,1110.0,5.0,0.0
398,53.0,0.0,1110.0,5.0,0.0
399,56.0,0.0,1110.0,6.0,0.0
400,68.0,0.0,330.0,0.0,0.0
401,53.0,0.0,330.0,5.0,0.0
402,60.0,0.0,330.0,5.0,0.0
403,53.0,48.0,330.0,7.0,0.0
404,60.0,0.0,330.0,2.0,0.0
405,53.0,0.0,330.0,3.0,0.0
406,60.0,0.0,330.0,7.0,0.0
407,65.0,0.0,180.0,1.0,0.0
408,65.0,0.0,180.0,4.0,0.0
409,68.0,0.0,330.0,4.0,0.0
410,65.0,144.0,180.0,6.0,0.0
411,68.0,0.0,330.0,6.0,0.0
412,63.0,0.0,180.0,1.0,0.0
413,63.0,0.0,180.0,0.0,0.0
414,63.0,192.0,180.0,6.0,0.0
415,63.0,0.0,180.0,4.0,0.0
416,46.0,0.0,330.0,7.0,0.0
417,46.0,0.0,330.0,3.0,0.0
418,61.0,0.0,330.0,1.0,0.0
419,58.0,0.0,180.0,2.0,0.0
420,46.0,0.0,330.0,5.0,0.0
421,58.0,144.0,180.0,5.0,0.0
422,58.0,0.0,180.0,7.0,0.0
423,67.0,0.0,180.0,0.0,0.0
424,67.0,0.0,180.0,6.0,0.0
425,61.0,0.0,330.0,6.0,0.0
426,61.0,0.0,330.0,4.0,0.0
427,67.0,0.0,180.0,4.0,0.0
428,65.0,0.0,180.0,4.0,0.0
429,56.0,0.0,150.0,3.0,0.0
430,65.0,192.0,180.0,6.0,0.0
431,56.0,48.0,150.0,7.0,0.0
432,56.0,0.0,150.0,5.0,0.0
433,65.0,0.0,180.0,0.0,0.0
434,65.0,0.0,180.0,1.0,0.0
435,56.0,0.0,150.0,2.0,0.0
436,55.0,0.0,330.0,7.0,0.0
437,55.0,48.0,330.0,2.0,0.0
438,60.0,0.0,180.0,1.0,0.0
439,63.0,0.0,330.0,0.0,0.0
440,48.0,0.0,330.0,5.0,0.0
441,60.0,0.0,180.0,6.0,0.0
442,63.0,0.0,330.0,6.0,0.0
443,55.0,0.0,330.0,5.0,0.0
444,60.0,144.0,180.0,4.0,0.0
445,48.0,0.0,330.0,7.0,0.0
446,48.0,0.0,330.0,3.0,0.0
447,63.0,0.0,330.0,4.0,0.0
448,58.0,192.0,180.0,0.0,0.0
449,58.0,0.0,180.0,6.0,0.0
450,58.0,0.0,180.0,1.0,0.0
451,58.0,0.0,180.0,4.0,0.0
452,56.0,0.0,330.0,1.0,0.0
453,53.0,0.0,180.0,2.0,0.0
454,56.0,0.0,330.0,4.0,0.0
455,65.0,240.0,330.0,4.0,0.0
456,49.0,144.0,180.0,3.0,0.0
457,65.0,0.0,330.0,6.0,0.0
458,49.0,0.0,180.0,5.0,0.0
459,53.0,0.0,180.0,5.0,0.0
460,56.0,0.0,330.0,6.0,0.0
461,49.0,0.0,180.0,7.0,0.0
462,53.0,0.0,180.0,7.0,0.0
463,65.0,0.0,330.0,0.0,0.0
464,51.0,0.0,150.0,2.0,0.0
465,48.0,0.0,150.0,5.0,0.0
466,48.0,0.0,150.0,3.0,0.0
467,51.0,0.0,150.0,5.0,0.0
468,51.0,0.0,150.0,7.0,0.0
469,48.0,0.0,150.0,7.0,0.0
470,61.0,432.0,330.0,1.0,0.0
471,67.0,0.0,330.0,4.0,0.0
472,61.0,0.0,330.0,4.0,0.0
473,67.0,0.0,330.0,0.0,0.0
474,49.0,0.0,180.0,2.0,0.0
475,49.0,144.0,180.0,7.0,0.0
476,61.0,0.0,330.0,6.0,0.0
477,67.0,0.0,330.0,6.0,0.0
478,46.0,0.0,330.0,3.0,0.0
479,46.0,0.0,330.0,7.0,0.0
480,51.0,0.0,150.0,3.0,0.0
481,51.0,0.0,150.0,7.0,0.0
482,51.0,0.0,150.0,2.0,0.0
483,68.0,48.0,720.0,4.0,0.0
484,61.0,0.0,390.0,1.0,0.0
485,61.0,192.0,390.0,6.0,0.0
486,68.0,0.0,720.0,6.0,0.0
487,61.0,0.0,390.0,4.0,0.0
488,44.0,0.0,720.0,3.0,0.0
489,68.0,0.0,720.0,0.0,0.0
490,53.0,0.0,390.0,2.0,0.0
491,53.0,0.0,390.0,7.0,0.0
492,44.0,0.0,720.0,7.0,0.0
493,51.0,0.0,180.0,2.0,0.0
494,60.0,0.0,180.0,1.0,0.0
495,51.0,144.0,180.0,7.0,0.0
496,60.0,0.0,180.0,0.0,0.0
497,60.0,0.0,180.0,6.0,0.0
498,51.0,0.0,180.0,5.0,0.0
499,51.0,0.0,180.0,3.0,0.0
500,60.0,0.0,180.0,4.0,0.0
501,58.0,0.0,180.0,4.0,0.0
502,58.0,336.0,180.0,1.0,0.0
503,49.0,0.0,180.0,2.0,0.0
504,49.0,0.0,180.0,3.0,0.0
505,49.0,0.0,180.0,7.0,0.0
506,58.0,0.0,180.0,0.0,0.0
507,58.0,0.0,180.0,6.0,0.0
508,68.0,0.0,330.0,0.0,0.0
509,51.0,0.0,330.0,7.0,0.0
510,60.0,0.0,330.0,1.0,0.0
511,51.0,0.0,330.0,5.0,0.0
512,44.0,0.0,330.0,3.0,0.0
513,44.0,0.0,330.0,7.0,0.0
514,51.0,0.0,330.0,2.0,0.0
515,60.0,384.0,330.0,6.0,0.0
516,68.0,0.0,330.0,6.0,0.0
517,60.0,0.0,330.0,4.0,0.0
518,68.0,0.0,330.0,4.0,0.0
519,44.0,0.0,330.0,5.0,0.0
520,44.0,0.0,330.0,7.0,0.0
521,56.0,0.0,330.0,7.0,0.0
522,56.0,0.0,330.0,5.0,0.0
523,60.0,384.0,330.0,6.0,0.0
524,44.0,0.0,330.0,3.0,0.0
525,44.0,0.0,330.0,5.0,0.0
526,63.0,0.0,330.0,0.0,0.0
527,60.0,0.0,330.0,1.0,0.0
528,56.0,0.0,330.0,2.0,0.0
529,60.0,0.0,330.0,4.0,0.0
530,63.0,0.0,330.0,4.0,0.0
531,63.0,0.0,330.0,6.0,0.0
532,61.0,0.0,330.0,6.0,0.0
533,65.0,0.0,330.0,4.0,0.0
534,61.0,0.0,330.0,1.0,0.0
535,49.0,0.0,330.0,7.0,0.0
536,65.0,0.0,330.0,0.0,0.0
537,65.0,0.0,330.0,6.0,0.0
538,56.0,0.0,330.0,7.0,0.0
539,61.0,0.0,330.0,4.0,0.0
540,49.0,240.0,330.0,3.0,0.0
541,56.0,0.0,330.0,2.0,0.0
542,56.0,0.0,330.0,5.0,0.0
543,49.0,0.0,330.0,5.0,0.0
544,56.0,144.0,180.0,2.0,0.0
545,63.0,0.0,330.0,6.0,0.0
546,60.0,0.0,330.0,6.0,0.0
547,60.0,0.0,330.0,4.0,0.0
548,63.0,0.0,330.0,4.0,0.0
549,44.0,0.0,330.0,3.0,0.0
550,44.0,0.0,330.0,5.0,0.0
551,56.0,0.0,180.0,5.0,0.0
552,63.0,0.0,330.0,0.0,0.0
553,60.0,0.0,330.0,1.0,0.0
554,44.0,0.0,330.0,7.0,0.0
555,56.0,0.0,180.0,7.0,0.0
556,55.0,0.0,150.0,7.0,0.0
557,55.0,0.0,150.0,5.0,0.0
558,55.0,0.0,150.0,2.0,0.0
559,55.0,240.0,150.0,3.0,0.0
560,61.0,0.0,330.0,6.0,0.0
561,53.0,0.0,330.0,7.0,0.0
562,61.0,0.0,330.0,0.0,0.0
563,60.0,240.0,330.0,1.0,0.0
564,46.0,0.0,180.0,3.0,0.0
565,53.0,0.0,330.0,2.0,0.0
566,60.0,0.0,330.0,4.0,0.0
567,61.0,0.0,330.0,4.0,0.0
568,53.0,0.0,330.0,5.0,0.0
569,46.0,0.0,180.0,7.0,0.0
570,60.0,0.0,330.0,6.0,0.0
571,46.0,144.0,180.0,5.0,0.0
572,48.0,0.0,150.0,5.0,0.0
573,48.0,0.0,150.0,3.0,0.0
574,48.0,0.0,150.0,7.0,0.0
575,48.0,0.0,150.0,2.0,0.0
576,61.0,1152.0,330.0,4.0,0.0
577,58.0,0.0,330.0,4.0,0.0
578,49.0,0.0,180.0,7.0,0.0
579,58.0,0.0,330.0,1.0,0.0
580,49.0,0.0,180.0,3.0,0.0
581,53.0,0.0,330.0,7.0,0.0
582,53.0,0.0,330.0,5.0,0.0
583,61.0,0.0,330.0,6.0,0.0
584,58.0,0.0,330.0,6.0,0.0
585,53.0,0.0,330.0,2.0,0.0
586,49.0,144.0,180.0,5.0,0.0
587,61.0,0.0,330.0,0.0,0.0
588,51.0,0.0,150.0,3.0,0.0
589,51.0,0.0,150.0,2.0,0.0
590,51.0,0.0,150.0,7.0,0.0
591,51.0,0.0,150.0,5.0,0.0
592,57.0,0.0,1110.0,1.0,0.0
593,53.0,0.0,1110.0,3.0,0.0
594,53.0,0.0,1110.0,2.0,0.0
595,57.0,0.0,1110.0,4.0,0.0
596,60.0,384.0,1110.0,4.0,0.0
597,53.0,0.0,1110.0,7.0,0.0
598,60.0,0.0,1110.0,0.0,0.0
599,60.0,0.0,1110.0,6.0,0.0
600,57.0,0.0,1110.0,6.0,0.0
601,53.0,0.0,1110.0,5.0,0.0
602,58.0,0.0,330.0,4.0,0.0
603,68.0,0.0,330.0,4.0,0.0
604,50.0,0.0,330.0,3.0,0.0
605,58.0,0.0,330.0,1.0,0.0
606,68.0,0.0,330.0,6.0,0.0
607,58.0,0.0,330.0,6.0,0.0
608,53.0,0.0,330.0,7.0,0.0
609,53.0,240.0,330.0,5.0,0.0
610,68.0,0.0,330.0,0.0,0.0
611,50.0,0.0,330.0,5.0,0.0
612,53.0,0.0,330.0,2.0,0.0
613,50.0,0.0,330.0,7.0,0.0
614,51.0,240.0,330.0,3.0,0.0
615,58.0,0.0,330.0,6.0,0.0
616,67.0,144.0,180.0,6.0,0.0
617,58.0,0.0,330.0,4.0,0.0
618,58.0,0.0,330.0,1.0,0.0
619,51.0,0.0,330.0,5.0,0.0
620,51.0,0.0,330.0,7.0,0.0
621,51.0,0.0,330.0,2.0,0.0
622,67.0,0.0,180.0,4.0,0.0
623,67.0,0.0,180.0,0.0,0.0
624,68.0,0.0,150.0,0.0,0.0
625,68.0,0.0,150.0,4.0,0.0
626,68.0,0.0,150.0,6.0,0.0
627,68.0,0.0,150.0,1.0,0.0
628,51.0,0.0,180.0,2.0,0.0
629,70.0,0.0,330.0,6.0,0.0
630,58.0,0.0,330.0,1.0,0.0
631,51.0,144.0,180.0,7.0,0.0
632,46.0,0.0,330.0,7.0,0.0
633,70.0,240.0,330.0,0.0,0.0
634,46.0,0.0,330.0,5.0,0.0
635,46.0,0.0,330.0,3.0,0.0
636,58.0,0.0,330.0,6.0,0.0
637,58.0,0.0,330.0,4.0,0.0
638,70.0,0.0,330.0,4.0,0.0
639,51.0,0.0,180.0,5.0,0.0
640,50.0,0.0,150.0,5.0,0.0
641,50.0,0.0,150.0,3.0,0.0
642,50.0,0.0,150.0,7.0,0.0
643,50.0,0.0,150.0,2.0,0.0
644,51.0,0.0,180.0,7.0,0.0
645,51.0,144.0,180.0,5.0,0.0
646,48.0,0.0,180.0,5.0,0.0
647,68.0,0.0,330.0,0.0,0.0
648,60.0,0.0,330.0,1.0,0.0
649,48.0,0.0,180.0,7.0,0.0
650,51.0,0.0,180.0,2.0,0.0
651,60.0,0.0,330.0,4.0,0.0
652,60.0,0.0,330.0,6.0,0.0
653,68.0,0.0,330.0,6.0,0.0
654,48.0,0.0,180.0,3.0,0.0
655,68.0,0.0,330.0,4.0,0.0
656,53.0,0.0,150.0,2.0,0.0
657,53.0,0.0,150.0,5.0,0.0
658,50.0,240.0,150.0,3.0,0.0
659,50.0,0.0,150.0,5.0,0.0
660,50.0,0.0,150.0,7.0,0.0
661,53.0,0.0,150.0,7.0,0.0
662,58.0,0.0,330.0,4.0,0.0
663,67.0,0.0,330.0,4.0,0.0
664,58.0,0.0,330.0,6.0,0.0
665,55.0,0.0,180.0,5.0,0.0
666,67.0,0.0,330.0,6.0,0.0
667,58.0,0.0,330.0,1.0,0.0
668,67.0,0.0,330.0,0.0,0.0
669,55.0,0.0,180.0,2.0,0.0
670,51.0,0.0,180.0,7.0,0.0
671,55.0,0.0,180.0,7.0,0.0
672,51.0,0.0,150.0,2.0,0.0
673,51.0,144.0,15.0,3.0,0.0
674,51.0,0.0,15.0,5.0,0.0
675,51.0,240.0,150.0,7.0,0.0
676,65.0,0.0,720.0,4.0,0.0
677,60.0,0.0,390.0,4.0,0.0
678,44.0,0.0,390.0,3.0,0.0
679,60.0,0.0,390.0,6.0,0.0
680,48.0,0.0,180.0,2.0,0.0
681,44.0,0.0,390.0,7.0,0.0
682,48.0,0.0,180.0,7.0,0.0
683,65.0,384.0,720.0,0.0,0.0
684,65.0,0.0,720.0,6.0,0.0
685,60.0,0.0,390.0,1.0,0.0
686,48.0,192.0,180.0,5.0,0.0
687,44.0,0.0,390.0,5.0,0.0
688,53.0,336.0,180.0,2.0,0.0
689,53.0,0.0,180.0,7.0,0.0
690,53.0,0.0,180.0,3.0,0.0
691,53.0,0.0,180.0,5.0,0.0
692,50.0,0.0,330.0,7.0,0.0
693,58.0,0.0,330.0,4.0,0.0
694,46.0,0.0,330.0,7.0,0.0
695,58.0,0.0,330.0,0.0,0.0
696,46.0,0.0,330.0,3.0,0.0
697,50.0,0.0,330.0,2.0,0.0
698,58.0,0.0,330.0,1.0,0.0
699,50.0,0.0,330.0,5.0,0.0
700,46.0,0.0,330.0,5.0,0.0
701,58.0,0.0,330.0,6.0,0.0
702,51.0,0.0,330.0,7.0,0.0
703,39.0,0.0,330.0,7.0,0.0
704,39.0,0.0,330.0,3.0,0.0
705,58.0,0.0,330.0,1.0,0.0
706,39.0,0.0,330.0,5.0,0.0
707,51.0,0.0,330.0,5.0,0.0
708,58.0,240.0,330.0,4.0,0.0
709,51.0,0.0,330.0,2.0,0.0
710,58.0,0.0,330.0,6.0,0.0
711,67.0,0.0,330.0,6.0,0.0
712,67.0,0.0,330.0,4.0,0.0
713,67.0,0.0,330.0,0.0,0.0
714,60.0,0.0,330.0,6.0,0.0
715,44.0,144.0,180.0,5.0,0.0
716,51.0,0.0,330.0,5.0,0.0
717,56.0,0.0,330.0,4.0,0.0
718,60.0,0.0,330.0,4.0,0.0
719,51.0,0.0,330.0,2.0,0.0
720,44.0,0.0,180.0,7.0,0.0
721,51.0,0.0,330.0,7.0,0.0
722,56.0,0.0,330.0,6.0,0.0
723,44.0,0.0,180.0,3.0,0.0
724,56.0,0.0,330.0,1.0,0.0
725,60.0,240.0,330.0,0.0,0.0
726,43.0,0.0,150.0,2.0,0.0
727,43.0,0.0,150.0,3.0,0.0
728,43.0,0.0,150.0,5.0,0.0
729,43.0,0.0,150.0,7.0,0.0
730,61.0,0.0,330.0,6.0,0.0
731,56.0,144.0,180.0,1.0,0.0
732,56.0,0.0,180.0,4.0,0.0
733,41.0,0.0,330.0,3.0,0.0
734,56.0,0.0,180.0,6.0,0.0
735,61.0,0.0,330.0,4.0,0.0
736,41.0,0.0,330.0,7.0,0.0
737,49.0,0.0,330.0,7.0,0.0
738,61.0,0.0,330.0,0.0,0.0
739,49.0,0.0,330.0,2.0,0.0
740,41.0,0.0,330.0,5.0,0.0
741,49.0,0.0,330.0,5.0,0.0
742,55.0,0.0,150.0,0.0,0.0
743,55.0,0.0,150.0,6.0,0.0
744,55.0,384.0,150.0,4.0,0.0
745,55.0,0.0,150.0,1.0,0.0
746,39.0,0.0,330.0,3.0,0.0
747,39.0,0.0,330.0,7.0,0.0
748,60.0,0.0,330.0,0.0,0.0
749,51.0,0.0,330.0,7.0,0.0
750,51.0,0.0,330.0,2.0,0.0
751,56.0,0.0,330.0,1.0,0.0
752,60.0,384.0,330.0,4.0,0.0
753,51.0,0.0,330.0,5.0,0.0
754,39.0,0.0,330.0,5.0,0.0
755,56.0,0.0,330.0,6.0,0.0
756,60.0,0.0,330.0,6.0,0.0
757,56.0,0.0,330.0,4.0,0.0
758,53.0,0.0,330.0,2.0,0.0
759,53.0,0.0,330.0,7.0,0.0
760,37.0,0.0,330.0,7.0,0.0
761,56.0,0.0,330.0,1.0,0.0
762,58.0,0.0,330.0,0.0,0.0
763,58.0,0.0,330.0,4.0,0.0
764,37.0,0.0,330.0,5.0,0.0
765,53.0,0.0,330.0,5.0,0.0
766,58.0,0.0,330.0,6.0,0.0
767,56.0,0.0,330.0,4.0,0.0
768,56.0,240.0,330.0,6.0,0.0
769,37.0,0.0,330.0,3.0,0.0
770,39.0,0.0,330.0,3.0,0.0
771,63.0,0.0,330.0,4.0,0.0
772,39.0,0.0,330.0,7.0,0.0
773,46.0,0.0,180.0,7.0,0.0
774,55.0,0.0,330.0,1.0,0.0
775,55.0,1152.0,330.0,4.0,0.0
776,46.0,144.0,180.0,5.0,0.0
777,39.0,0.0,330.0,5.0,0.0
778,63.0,0.0,330.0,0.0,0.0
779,63.0,0.0,330.0,6.0,0.0
780,55.0,0.0,330.0,6.0,0.0
781,46.0,0.0,180.0,2.0,0.0
782,51.0,0.0,150.0,7.0,0.0
783,51.0,0.0,150.0,2.0,0.0
784,51.0,0.0,150.0,5.0,0.0
785,51.0,0.0,150.0,3.0,0.0
786,51.0,0.0,1110.0,5.0,0.0
787,51.0,0.0,1110.0,2.0,0.0
788,51.0,0.0,1110.0,7.0,0.0
789,44.0,0.0,1110.0,7.0,0.0
790,60.0,0.0,1110.0,6.0,0.0
791,56.0,0.0,1110.0,4.0,0.0
792,56.0,768.0,1110.0,6.0,0.0
793,60.0,0.0,1110.0,4.0,0.0
794,44.0,0.0,1110.0,5.0,0.0
795,60.0,0.0,1110.0,0.0,0.0
796,56.0,0.0,1110.0,1.0,0.0
797,44.0,0.0,1110.0,3.0,0.0
798,51.0,0.0,330.0,5.0,0.0
799,44.0,0.0,330.0,5.0,0.0
800,51.0,0.0,330.0,2.0,0.0
801,60.0,0.0,330.0,0.0,0.0
802,44.0,0.0,330.0,3.0,0.0
803,56.0,0.0,330.0,6.0,0.0
804,60.0,0.0,330.0,6.0,0.0
805,56.0,0.0,330.0,4.0,0.0
806,51.0,0.0,330.0,7.0,0.0
807,44.0,384.0,330.0,7.0,0.0
808,60.0,0.0,330.0,4.0,0.0
809,56.0,0.0,330.0,1.0,0.0
810,49.0,0.0,330.0,5.0,0.0
811,65.0,0.0,330.0,4.0,0.0
812,49.0,0.0,330.0,2.0,0.0
813,65.0,0.0,330.0,6.0,0.0
814,56.0,0.0,330.0,6.0,0.0
815,56.0,0.0,330.0,4.0,0.0
816,49.0,0.0,330.0,3.0,0.0
817,65.0,384.0,330.0,0.0,0.0
818,56.0,0.0,330.0,1.0,0.0
819,49.0,0.0,330.0,7.0,0.0
820,63.0,0.0,330.0,6.0,0.0
821,63.0,0.0,330.0,0.0,0.0
822,48.0,0.0,330.0,3.0,0.0
823,51.0,240.0,330.0,7.0,0.0
824,48.0,0.0,330.0,7.0,0.0
825,51.0,0.0,330.0,2.0,0.0
826,48.0,0.0,330.0,5.0,0.0
827,63.0,0.0,330.0,4.0,0.0
828,56.0,0.0,330.0,4.0,0.0
829,51.0,0.0,330.0,5.0,0.0
830,56.0,0.0,330.0,1.0,0.0
831,56.0,0.0,330.0,6.0,0.0
832,53.0,0.0,180.0,7.0,0.0
833,61.0,0.0,330.0,6.0,0.0
834,61.0,240.0,330.0,0.0,0.0
835,41.0,0.0,180.0,7.0,0.0
836,41.0,144.0,180.0,3.0,0.0
837,56.0,0.0,180.0,1.0,0.0
838,56.0,0.0,180.0,4.0,0.0
839,53.0,0.0,180.0,2.0,0.0
840,41.0,0.0,180.0,5.0,0.0
841,53.0,0.0,180.0,5.0,0.0
842,61.0,0.0,330.0,4.0,0.0
843,56.0,0.0,180.0,6.0,0.0
844,51.0,0.0,150.0,7.0,0.0
845,43.0,0.0,150.0,7.0,0.0
846,58.0,0.0,150.0,1.0,0.0
847,43.0,0.0,150.0,5.0,0.0
848,51.0,0.0,150.0,5.0,0.0
849,58.0,0.0,150.0,4.0,0.0
850,58.0,0.0,150.0,0.0,0.0
851,51.0,0.0,150.0,2.0,0.0
852,43.0,0.0,150.0,3.0,0.0
853,58.0,0.0,150.0,6.0,0.0
854,51.0,0.0,330.0,2.0,0.0
855,60.0,0.0,330.0,6.0,0.0
856,58.0,144.0,180.0,6.0,0.0
857,44.0,0.0,330.0,3.0,0.0
858,44.0,0.0,330.0,5.0,0.0
859,44.0,0.0,330.0,7.0,0.0
860,51.0,0.0,330.0,7.0,0.0
861,51.0,0.0,330.0,5.0,0.0
862,58.0,0.0,180.0,1.0,0.0
863,60.0,0.0,330.0,0.0,0.0
864,60.0,384.0,330.0,4.0,0.0
865,58.0,0.0,180.0,4.0,0.0
866,56.0,0.0,150.0,1.0,0.0
867,56.0,0.0,150.0,4.0,0.0
868,56.0,0.0,150.0,6.0,0.0
869,56.0,0.0,150.0,0.0,0.0
870,58.0,0.0,720.0,4.0,0.0
871,56.0,0.0,390.0,4.0,0.0
872,39.0,0.0,330.0,5.0,0.0
873,53.0,0.0,390.0,5.0,0.0
874,58.0,0.0,720.0,6.0,0.0
875,58.0,0.0,720.0,0.0,0.0
876,56.0,0.0,390.0,6.0,0.0
877,39.0,48.0,330.0,3.0,0.0
878,56.0,336.0,390.0,1.0,0.0
879,53.0,0.0,390.0,7.0,0.0
880,53.0,0.0,390.0,2.0,0.0
881,39.0,0.0,330.0,7.0,0.0
882,55.0,0.0,390.0,1.0,0.0
883,55.0,336.0,390.0,6.0,0.0
884,55.0,0.0,390.0,4.0,0.0
885,41.0,48.0,330.0,5.0,0.0
886,51.0,0.0,330.0,5.0,0.0
887,41.0,0.0,330.0,7.0,0.0
888,51.0,0.0,330.0,7.0,0.0
889,55.0,0.0,390.0,0.0,0.0
890,51.0,0.0,330.0,2.0,0.0
891,41.0,0.0,330.0,3.0,0.0
892,51.0,0.0,330.0,2.0,0.0
893,44.0,0.0,330.0,3.0,0.0
894,44.0,0.0,330.0,7.0,0.0
895,56.0,0.0,330.0,1.0,0.0
896,51.0,0.0,330.0,7.0,0.0
897,56.0,0.0,330.0,4.0,0.0
898,60.0,0.0,330.0,4.0,0.0
899,44.0,0.0,330.0,5.0,0.0
900,60.0,0.0,330.0,0.0,0.0
901,51.0,0.0,330.0,5.0,0.0
902,60.0,384.0,330.0,6.0,0.0
903,56.0,0.0,330.0,6.0,0.0
904,52.0,0.0,330.0,5.0,0.0
905,58.0,0.0,330.0,1.0,0.0
906,67.0,0.0,330.0,0.0,0.0
907,43.0,0.0,330.0,3.0,0.0
908,43.0,0.0,330.0,5.0,0.0
909,67.0,0.0,330.0,4.0,0.0
910,52.0,0.0,330.0,2.0,0.0
911,43.0,0.0,330.0,7.0,0.0
912,52.0,240.0,330.0,7.0,0.0
913,58.0,0.0,330.0,4.0,0.0
914,58.0,0.0,330.0,6.0,0.0
915,67.0,0.0,330.0,6.0,0.0
916,56.0,144.0,180.0,1.0,0.0
917,41.0,0.0,180.0,7.0,0.0
918,48.0,0.0,330.0,7.0,0.0
919,48.0,0.0,330.0,5.0,0.0
920,41.0,0.0,180.0,5.0,0.0
921,41.0,0.0,180.0,3.0,0.0
922,68.0,48.0,330.0,0.0,0.0
923,68.0,0.0,330.0,4.0,0.0
924,56.0,0.0,180.0,4.0,0.0
925,48.0,0.0,330.0,2.0,0.0
926,68.0,0.0,330.0,6.0,0.0
927,56.0,0.0,180.0,6.0,0.0
928,43.0,0.0,180.0,2.0,0.0
929,43.0,192.0,180.0,7.0,0.0
930,58.0,0.0,180.0,6.0,0.0
931,58.0,0.0,180.0,0.0,0.0
932,43.0,0.0,180.0,5.0,0.0
933,58.0,0.0,180.0,4.0,0.0
934,58.0,0.0,180.0,1.0,0.0
935,43.0,0.0,180.0,3.0,0.0
936,60.0,240.0,330.0,4.0,0.0
937,68.0,0.0,330.0,6.0,0.0
938,60.0,0.0,330.0,6.0,0.0
939,44.0,0.0,180.0,5.0,0.0
940,44.0,144.0,180.0,3.0,0.0
941,53.0,0.0,330.0,5.0,0.0
942,60.0,0.0,330.0,1.0,0.0
943,68.0,0.0,330.0,4.0,0.0
944,68.0,0.0,330.0,0.0,0.0
945,44.0,0.0,180.0,7.0,0.0
946,53.0,0.0,330.0,7.0,0.0
947,53.0,0.0,330.0,2.0,0.0
948,46.0,0.0,150.0,5.0,0.0
949,46.0,0.0,150.0,2.0,0.0
950,46.0,0.0,150.0,7.0,0.0
951,46.0,0.0,150.0,3.0,0.0
952,53.0,0.0,330.0,2.0,0.0
953,67.0,144.0,180.0,6.0,0.0
954,60.0,48.0,330.0,6.0,0.0
955,48.0,0.0,330.0,3.0,0.0
956,67.0,0.0,180.0,4.0,0.0
957,60.0,0.0,330.0,4.0,0.0
958,60.0,0.0,330.0,1.0,0.0
959,53.0,0.0,330.0,7.0,0.0
960,48.0,0.0,330.0,7.0,0.0
961,67.0,0.0,180.0,0.0,0.0
962,53.0,0.0,330.0,5.0,0.0
963,48.0,0.0,330.0,5.0,0.0
964,65.0,0.0,180.0,0.0,0.0
965,65.0,0.0,180.0,6.0,0.0
966,65.0,0.0,180.0,1.0,0.0
967,65.0,192.0,180.0,4.0,0.0
968,67.0,0.0,330.0,6.0,0.0
969,60.0,0.0,180.0,6.0,0.0
970,36.0,48.0,330.0,5.0,0.0
971,52.0,0.0,330.0,5.0,0.0
972,48.0,0.0,330.0,5.0,0.0
973,60.0,144.0,180.0,1.0,0.0
974,36.0,0.0,330.0,7.0,0.0
975,48.0,0.0,330.0,3.0,0.0
976,52.0,0.0,330.0,2.0,0.0
977,48.0,0.0,330.0,7.0,0.0
978,67.0,0.0,330.0,0.0,0.0
979,67.0,0.0,330.0,4.0,0.0
980,60.0,0.0,180.0,4.0,0.0
981,52.0,0.0,330.0,7.0,0.0
982,58.0,0.0,180.0,4.0,0.0
983,58.0,0.0,180.0,6.0,0.0
984,58.0,1104.0,180.0,0.0,0.0
985,58.0,0.0,180.0,1.0,0.0
986,56.0,0.0,1110.0,6.0,0.0
987,65.0,384.0,1110.0,6.0,0.0
988,56.0,0.0,1110.0,1.0,0.0
989,41.0,0.0,1110.0,3.0,0.0
990,65.0,0.0,1110.0,0.0,0.0
991,41.0,0.0,1110.0,7.0,0.0
992,53.0,0.0,1110.0,5.0,0.0
993,41.0,0.0,1110.0,5.0,0.0
994,65.0,0.0,1110.0,4.0,0.0
995,53.0,0.0,1110.0,2.0,0.0
996,56.0,0.0,1110.0,4.0,0.0
997,53.0,0.0,1110.0,7.0,0.0
998,51.0,0.0,330.0,2.0,0.0
999,44.0,0.0,330.0,5.0,0.0
1000,60.0,0.0,330.0,4.0,0.0
1001,56.0,0.0,330.0,4.0,0.0
1002,44.0,0.0,330.0,3.0,0.0
1003,60.0,0.0,330.0,0.0,0.0
1004,51.0,0.0,330.0,5.0,0.0
1005,51.0,0.0,330.0,7.0,0.0
1006,56.0,0.0,330.0,1.0,0.0
1007,56.0,0.0,330.0,6.0,0.0
1008,60.0,0.0,330.0,6.0,0.0
1009,44.0,384.0,330.0,7.0,0.0
1010,49.0,0.0,330.0,2.0,0.0
1011,49.0,0.0,330.0,5.0,0.0
1012,65.0,384.0,330.0,4.0,0.0
1013,65.0,0.0,330.0,0.0,0.0
1014,49.0,0.0,330.0,3.0,0.0
1015,56.0,0.0,330.0,1.0,0.0
1016,65.0,0.0,330.0,6.0,0.0
1017,56.0,0.0,330.0,6.0,0.0
1018,56.0,0.0,330.0,4.0,0.0
1019,49.0,0.0,330.0,7.0,0.0
1020,51.0,0.0,330.0,5.0,0.0
1021,51.0,0.0,330.0,7.0,0.0
1022,63.0,0.0,330.0,0.0,0.0
1023,56.0,0.0,330.0,6.0,0.0
1024,63.0,0.0,330.0,6.0,0.0
1025,51.0,0.0,330.0,2.0,0.0
1026,56.0,0.0,330.0,1.0,0.0
1027,56.0,0.0,330.0,4.0,0.0
1028,63.0,0.0,330.0,4.0,0.0
1029,48.0,0.0,330.0,5.0,0.0
1030,48.0,240.0,330.0,3.0,0.0
1031,48.0,0.0,330.0,7.0,0.0
1032,56.0,0.0,180.0,1.0,0.0
1033,61.0,0.0,330.0,0.0,0.0
1034,61.0,0.0,330.0,6.0,0.0
1035,53.0,0.0,180.0,2.0,0.0
1036,56.0,0.0,180.0,4.0,0.0
1037,61.0,0.0,330.0,4.0,0.0
1038,41.0,0.0,180.0,7.0,0.0
1039,56.0,0.0,180.0,6.0,0.0
1040,53.0,0.0,180.0,5.0,0.0
1041,41.0,0.0,180.0,5.0,0.0
1042,53.0,0.0,180.0,7.0,0.0
1043,41.0,144.0,180.0,3.0,0.0
1044,58.0,0.0,150.0,0.0,0.0
1045,51.0,0.0,150.0,2.0,0.0
1046,58.0,0.0,150.0,6.0,0.0
1047,43.0,0.0,150.0,5.0,0.0
1048,51.0,0.0,150.0,7.0,0.0
1049,43.0,240.0,150.0,7.0,0.0
1050,51.0,0.0,150.0,5.0,0.0
1051,58.0,0.0,150.0,1.0,0.0
1052,43.0,0.0,150.0,3.0,0.0
1053,58.0,0.0,150.0,4.0,0.0
1054,51.0,0.0,330.0,2.0,0.0
1055,44.0,0.0,330.0,3.0,0.0
1056,58.0,0.0,180.0,1.0,0.0
1057,44.0,0.0,330.0,7.0,0.0
1058,58.0,0.0,180.0,4.0,0.0
1059,51.0,0.0,330.0,5.0,0.0
1060,51.0,0.0,330.0,7.0,0.0
1061,60.0,0.0,330.0,0.0,0.0
1062,60.0,384.0,330.0,6.0,0.0
1063,58.0,144.0,180.0,6.0,0.0
1064,44.0,0.0,330.0,5.0,0.0
1065,60.0,0.0,330.0,4.0,0.0
1066,56.0,0.0,150.0,1.0,0.0
1067,56.0,0.0,150.0,4.0,0.0
1068,56.0,0.0,150.0,0.0,0.0
1069,56.0,0.0,150.0,6.0,0.0
1070,39.0,48.0,330.0,5.0,0.0
1071,53.0,0.0,390.0,5.0,0.0
1072,53.0,336.0,390.0,2.0,0.0
1073,56.0,0.0,390.0,1.0,0.0
1074,53.0,0.0,390.0,7.0,0.0
1075,39.0,0.0,330.0,7.0,0.0
1076,56.0,0.0,390.0,6.0,0.0
1077,58.0,0.0,720.0,4.0,0.0
1078,56.0,0.0,390.0,4.0,0.0
1079,58.0,0.0,720.0,0.0,0.0
1080,58.0,0.0,720.0,6.0,0.0
1081,39.0,0.0,330.0,3.0,0.0
1082,55.0,0.0,390.0,0.0,0.0
1083,41.0,0.0,330.0,7.0,0.0
1084,51.0,0.0,330.0,7.0,0.0
1085,55.0,336.0,390.0,6.0,0.0
1086,51.0,0.0,330.0,5.0,0.0
1087,55.0,0.0,390.0,1.0,0.0
1088,41.0,0.0,330.0,5.0,0.0
1089,55.0,0.0,390.0,4.0,0.0
1090,41.0,48.0,330.0,3.0,0.0
1091,51.0,0.0,330.0,2.0,0.0
1092,60.0,0.0,330.0,0.0,0.0
1093,51.0,0.0,330.0,7.0,0.0
1094,44.0,384.0,330.0,3.0,0.0
1095,56.0,0.0,330.0,1.0,0.0
1096,56.0,0.0,330.0,4.0,0.0
1097,44.0,0.0,330.0,7.0,0.0
1098,51.0,0.0,330.0,2.0,0.0
1099,51.0,0.0,330.0,5.0,0.0
1100,44.0,0.0,330.0,5.0,0.0
1101,56.0,0.0,330.0,6.0,0.0
1102,60.0,0.0,330.0,6.0,0.0
1103,60.0,0.0,330.0,4.0,0.0
1104,58.0,0.0,330.0,4.0,0.0
1105,67.0,0.0,330.0,4.0,0.0
1106,67.0,0.0,330.0,6.0,0.0
1107,58.0,0.0,330.0,6.0,0.0
1108,67.0,0.0,330.0,0.0,0.0
1109,43.0,240.0,330.0,5.0,0.0
1110,52.0,0.0,330.0,5.0,0.0
1111,43.0,0.0,330.0,3.0,0.0
1112,52.0,0.0,330.0,7.0,0.0
1113,43.0,0.0,330.0,7.0,0.0
1114,52.0,0.0,330.0,2.0,0.0
1115,58.0,0.0,330.0,1.0,0.0
1116,68.0,0.0,330.0,6.0,0.0
1117,68.0,0.0,330.0,4.0,0.0
1118,41.0,0.0,180.0,7.0,0.0
1119,48.0,0.0,330.0,2.0,0.0
1120,41.0,0.0,180.0,3.0,0.0
1121,41.0,0.0,180.0,5.0,0.0
1122,56.0,0.0,180.0,4.0,0.0
1123,48.0,48.0,330.0,7.0,0.0
1124,56.0,144.0,180.0,1.0,0.0
1125,56.0,0.0,180.0,6.0,0.0
1126,68.0,0.0,330.0,0.0,0.0
1127,48.0,0.0,330.0,5.0,0.0
1128,58.0,0.0,180.0,4.0,0.0
1129,58.0,0.0,180.0,6.0,0.0
1130,43.0,0.0,180.0,7.0,0.0
1131,43.0,0.0,180.0,5.0,0.0
1132,58.0,0.0,180.0,1.0,0.0
1133,43.0,0.0,180.0,3.0,0.0
1134,58.0,0.0,180.0,0.0,0.0
1135,43.0,192.0,180.0,2.0,0.0
1136,68.0,0.0,330.0,4.0,0.0
1137,44.0,0.0,180.0,5.0,0.0
1138,60.0,0.0,330.0,4.0,0.0
1139,44.0,144.0,180.0,7.0,0.0
1140,53.0,0.0,330.0,7.0,0.0
1141,60.0,0.0,330.0,6.0,0.0
1142,68.0,0.0,330.0,6.0,0.0
1143,60.0,0.0,330.0,1.0,0.0
1144,53.0,240.0,330.0,5.0,0.0
1145,68.0,0.0,330.0,0.0,0.0
1146,44.0,0.0,180.0,3.0,0.0
1147,53.0,0.0,330.0,2.0,0.0
1148,46.0,0.0,150.0,3.0,0.0
1149,46.0,0.0,150.0,5.0,0.0
1150,46.0,0.0,150.0,2.0,0.0
1151,46.0,0.0,150.0,7.0,0.0
1152,48.0,48.0,330.0,7.0,0.0
1153,53.0,0.0,330.0,7.0,0.0
1154,48.0,0.0,330.0,3.0,0.0
1155,60.0,0.0,330.0,1.0,0.0
1156,48.0,0.0,330.0,5.0,0.0
1157,53.0,0.0,330.0,5.0,0.0
1158,53.0,0.0,330.0,2.0,0.0
1159,60.0,0.0,330.0,6.0,0.0
1160,67.0,144.0,180.0,6.0,0.0
1161,67.0,0.0,180.0,0.0,0.0
1162,60.0,0.0,330.0,4.0,0.0
1163,67.0,0.0,180.0,4.0,0.0
1164,65.0,192.0,180.0,6.0,0.0
1165,65.0,0.0,180.0,1.0,0.0
1166,65.0,0.0,180.0,4.0,0.0
1167,65.0,0.0,180.0,0.0,0.0
1168,48.0,0.0,330.0,5.0,0.0
1169,60.0,0.0,180.0,1.0,0.0
1170,52.0,0.0,330.0,2.0,0.0
1171,48.0,0.0,330.0,7.0,0.0
1172,52.0,0.0,330.0,5.0,0.0
1173,60.0,144.0,180.0,4.0,0.0
1174,67.0,48.0,330.0,4.0,0.0
1175,60.0,0.0,180.0,6.0,0.0
1176,67.0,0.0,330.0,6.0,0.0
1177,48.0,0.0,330.0,3.0,0.0
1178,36.0,0.0,330.0,7.0,0.0
1179,36.0,0.0,330.0,5.0,0.0
1180,67.0,0.0,330.0,0.0,0.0
1181,52.0,0.0,330.0,7.0,0.0
1182,58.0,0.0,180.0,6.0,0.0
1183,58.0,1104.0,180.0,0.0,0.0
1184,58.0,0.0,180.0,1.0,0.0
1185,58.0,0.0,180.0,4.0,0.0
1186,65.0,0.0,1110.0,4.0,0.0
1187,56.0,0.0,1110.0,6.0,0.0
1188,65.0,0.0,1110.0,6.0,0.0
1189,56.0,0.0,1110.0,4.0,0.0
1190,56.0,0.0,1110.0,1.0,0.0
1191,65.0,0.0,1110.0,0.0,0.0
1192,53.0,0.0,1110.0,5.0,0.0
1193,41.0,240.0,1110.0,5.0,0.0
1194,53.0,0.0,1110.0,7.0,0.0
1195,41.0,0.0,1110.0,7.0,0.0
1196,53.0,0.0,1110.0,2.0,0.0
1197,41.0,0.0,1110.0,3.0,0.0
1198,68.0,0.0,330.0,4.0,0.0
1199,65.0,0.0,180.0,4.0,0.0
1200,53.0,0.0,330.0,3.0,0.0
1201,53.0,48.0,330.0,7.0,0.0
1202,65.0,144.0,180.0,1.0,0.0
1203,68.0,0.0,330.0,0.0,0.0
1204,68.0,0.0,330.0,6.0,0.0
1205,65.0,0.0,180.0,6.0,0.0
1206,60.0,0.0,330.0,7.0,0.0
1207,53.0,0.0,330.0,5.0,0.0
1208,60.0,0.0,330.0,5.0,0.0
1209,60.0,0.0,330.0,2.0,0.0
1210,63.0,0.0,180.0,0.0,0.0
1211,63.0,192.0,180.0,6.0,0.0
1212,63.0,0.0,180.0,4.0,0.0
1213,63.0,0.0,180.0,1.0,0.0
1214,46.0,0.0,330.0,3.0,0.0
1215,67.0,0.0,180.0,0.0,0.0
1216,61.0,0.0,330.0,1.0,0.0
1217,46.0,0.0,330.0,7.0,0.0
1218,58.0,0.0,180.0,7.0,0.0
1219,61.0,0.0,330.0,4.0,0.0
1220,61.0,48.0,330.0,6.0,0.0
1221,67.0,0.0,180.0,6.0,0.0
1222,58.0,144.0,180.0,2.0,0.0
1223,67.0,0.0,180.0,4.0,0.0
1224,58.0,0.0,180.0,5.0,0.0
1225,46.0,0.0,330.0,5.0,0.0
1226,65.0,0.0,180.0,0.0,0.0
1227,65.0,0.0,180.0,4.0,0.0
1228,56.0,0.0,150.0,3.0,0.0
1229,56.0,0.0,150.0,7.0,0.0
1230,56.0,0.0,150.0,5.0,0.0
1231,65.0,192.0,180.0,6.0,0.0
1232,56.0,0.0,150.0,2.0,0.0
1233,65.0,0.0,180.0,1.0,0.0
1234,48.0,0.0,330.0,5.0,0.0
1235,60.0,0.0,180.0,1.0,0.0
1236,55.0,0.0,330.0,2.0,0.0
1237,63.0,0.0,330.0,4.0,0.0
1238,60.0,144.0,180.0,4.0,0.0
1239,55.0,0.0,330.0,5.0,0.0
1240,55.0,0.0,330.0,7.0,0.0
1241,48.0,48.0,330.0,3.0,0.0
1242,63.0,0.0,330.0,6.0,0.0
1243,60.0,0.0,180.0,6.0,0.0
1244,63.0,0.0,330.0,0.0,0.0
1245,48.0,0.0,330.0,7.0,0.0
1246,58.0,0.0,180.0,1.0,0.0
1247,58.0,0.0,180.0,0.0,0.0
1248,58.0,192.0,180.0,4.0,0.0
1249,58.0,0.0,180.0,6.0,0.0
1250,65.0,0.0,330.0,6.0,0.0
1251,56.0,0.0,330.0,6.0,0.0
1252,49.0,0.0,180.0,7.0,0.0
1253,56.0,0.0,330.0,1.0,0.0
1254,49.0,0.0,180.0,5.0,0.0
1255,65.0,0.0,330.0,0.0,0.0
1256,53.0,0.0,180.0,5.0,0.0
1257,53.0,0.0,180.0,7.0,0.0
1258,49.0,0.0,180.0,3.0,0.0
1259,65.0,0.0,330.0,4.0,0.0
1260,56.0,0.0,330.0,4.0,0.0
1261,53.0,144.0,180.0,2.0,0.0
1262,48.0,0.0,150.0,7.0,0.0
1263,48.0,0.0,150.0,5.0,0.0
1264,51.0,0.0,150.0,5.0,0.0
1265,51.0,0.0,150.0,7.0,0.0
1266,48.0,0.0,150.0,3.0,0.0
1267,51.0,240.0,150.0,2.0,0.0
1268,61.0,0.0,330.0,6.0,0.0
1269,61.0,0.0,330.0,1.0,0.0
1270,49.0,0.0,180.0,5.0,0.0
1271,67.0,0.0,330.0,6.0,0.0
1272,46.0,0.0,330.0,5.0,0.0
1273,67.0,0.0,330.0,0.0,0.0
1274,46.0,0.0,330.0,7.0,0.0
1275,67.0,0.0,330.0,4.0,0.0
1276,49.0,0.0,180.0,7.0,0.0
1277,46.0,0.0,330.0,3.0,0.0
1278,49.0,144.0,180.0,2.0,0.0
1279,61.0,0.0,330.0,4.0,0.0
1280,51.0,432.0,150.0,7.0,0.0
1281,51.0,0.0,150.0,3.0,0.0
1282,51.0,0.0,150.0,2.0,0.0
1283,51.0,0.0,150.0,5.0,0.0
1284,44.0,0.0,720.0,7.0,0.0
1285,53.0,0.0,390.0,5.0,0.0
1286,44.0,0.0,720.0,5.0,0.0
1287,53.0,0.0,390.0,7.0,0.0
1288,44.0,0.0,720.0,3.0,0.0
1289,61.0,0.0,390.0,4.0,0.0
1290,68.0,0.0,720.0,4.0,0.0
1291,68.0,0.0,720.0,0.0,0.0
1292,68.0,48.0,720.0,6.0,0.0
1293,61.0,0.0,390.0,6.0,0.0
1294,61.0,0.0,390.0,1.0,0.0
1295,53.0,192.0,390.0,2.0,0.0
1296,51.0,0.0,180.0,5.0,0.0
1297,60.0,0.0,180.0,6.0,0.0
1298,60.0,0.0,180.0,0.0,0.0
1299,60.0,0.0,180.0,1.0,0.0
1300,51.0,0.0,180.0,2.0,0.0
1301,60.0,144.0,180.0,4.0,0.0
1302,51.0,0.0,180.0,3.0,0.0
1303,51.0,0.0,180.0,7.0,0.0
1304,49.0,0.0,180.0,5.0,0.0
1305,58.0,0.0,180.0,0.0,0.0
1306,58.0,0.0,180.0,1.0,0.0
1307,49.0,0.0,180.0,2.0,0.0
1308,49.0,336.0,180.0,3.0,0.0
1309,49.0,0.0,180.0,7.0,0.0
1310,58.0,0.0,180.0,6.0,0.0
1311,58.0,0.0,180.0,4.0,0.0
1312,60.0,0.0,330.0,4.0,0.0
1313,60.0,384.0,330.0,6.0,0.0
1314,68.0,0.0,330.0,4.0,0.0
1315,44.0,0.0,330.0,3.0,0.0
1316,68.0,0.0,330.0,0.0,0.0
1317,51.0,0.0,330.0,2.0,0.0
1318,60.0,0.0,330.0,1.0,0.0
1319,51.0,0.0,330.0,5.0,0.0
1320,68.0,0.0,330.0,6.0,0.0
1321,51.0,0.0,330.0,7.0,0.0
1322,44.0,0.0,330.0,7.0,0.0
1323,44.0,0.0,330.0,5.0,0.0
1324,63.0,0.0,330.0,6.0,0.0
1325,44.0,0.0,330.0,3.0,0.0
1326,60.0,0.0,330.0,6.0,0.0
1327,63.0,0.0,330.0,4.0,0.0
1328,56.0,0.0,330.0,5.0,0.0
1329,60.0,0.0,330.0,1.0,0.0
1330,63.0,0.0,330.0,0.0,0.0
1331,56.0,0.0,330.0,2.0,0.0
1332,44.0,0.0,330.0,7.0,0.0
1333,56.0,0.0,330.0,7.0,0.0
1334,44.0,0.0,330.0,5.0,0.0
1335,60.0,384.0,330.0,4.0,0.0
1336,65.0,0.0,330.0,0.0,0.0
1337,56.0,0.0,330.0,5.0,0.0
1338,49.0,0.0,330.0,5.0,0.0
1339,61.0,240.0,330.0,1.0,0.0
1340,65.0,0.0,330.0,4.0,0.0
1341,49.0,0.0,330.0,7.0,0.0
1342,56.0,0.0,330.0,7.0,0.0
1343,56.0,0.0,330.0,2.0,0.0
1344,61.0,0.0,330.0,6.0,0.0
1345,65.0,0.0,330.0,6.0,0.0
1346,61.0,0.0,330.0,4.0,0.0
1347,49.0,0.0,330.0,3.0,0.0
1348,44.0,0.0,330.0,3.0,0.0
1349,63.0,0.0,330.0,4.0,0.0
1350,56.0,144.0,180.0,2.0,0.0
1351,63.0,240.0,330.0,0.0,0.0
1352,60.0,0.0,330.0,4.0,0.0
1353,60.0,0.0,330.0,6.0,0.0
1354,60.0,0.0,330.0,1.0,0.0
1355,63.0,0.0,330.0,6.0,0.0
1356,56.0,0.0,180.0,5.0,0.0
1357,44.0,0.0,330.0,5.0,0.0
1358,44.0,0.0,330.0,7.0,0.0
1359,56.0,0.0,180.0,7.0,0.0
1360,55.0,0.0,150.0,3.0,0.0
1361,55.0,0.0,150.0,5.0,0.0
1362,55.0,0.0,150.0,7.0,0.0
1363,55.0,0.0,150.0,2.0,0.0
1364,46.0,0.0,180.0,7.0,0.0
1365,53.0,0.0,330.0,7.0,0.0
1366,60.0,0.0,330.0,4.0,0.0
1367,61.0,0.0,330.0,6.0,0.0
1368,61.0,0.0,330.0,0.0,0.0
1369,46.0,144.0,180.0,5.0,0.0
1370,60.0,0.0,330.0,1.0,0.0
1371,53.0,0.0,330.0,5.0,0.0
1372,46.0,0.0,180.0,3.0,0.0
1373,53.0,0.0,330.0,2.0,0.0
1374,61.0,0.0,330.0,4.0,0.0
1375,60.0,0.0,330.0,6.0,0.0
1376,48.0,0.0,150.0,3.0,0.0
1377,48.0,0.0,150.0,5.0,0.0
1378,48.0,240.0,150.0,2.0,0.0
1379,48.0,0.0,150.0,7.0,0.0
1380,61.0,0.0,330.0,4.0,0.0
1381,49.0,0.0,180.0,7.0,0.0
1382,61.0,0.0,330.0,0.0,0.0
1383,58.0,0.0,330.0,1.0,0.0
1384,49.0,0.0,180.0,5.0,0.0
1385,53.0,0.0,330.0,2.0,0.0
1386,58.0,0.0,330.0,4.0,0.0
1387,61.0,0.0,330.0,6.0,0.0
1388,53.0,0.0,330.0,7.0,0.0
1389,58.0,0.0,330.0,6.0,0.0
1390,49.0,144.0,180.0,3.0,0.0
1391,53.0,0.0,330.0,5.0,0.0
1392,51.0,0.0,150.0,2.0,0.0
1393,51.0,0.0,150.0,7.0,0.0
1394,51.0,0.0,150.0,5.0,0.0
1395,51.0,1152.0,150.0,3.0,0.0
1396,57.0,0.0,1110.0,4.0,0.0
1397,60.0,0.0,1110.0,4.0,0.0
1398,53.0,0.0,1110.0,7.0,0.0
1399,53.0,0.0,1110.0,5.0,0.0
1400,57.0,384.0,1110.0,1.0,0.0
1401,53.0,0.0,1110.0,3.0,0.0
1402,60.0,0.0,1110.0,6.0,0.0
1403,57.0,0.0,1110.0,6.0,0.0
1404,60.0,0.0,1110.0,0.0,0.0
1405,53.0,0.0,1110.0,2.0,0.0
1406,53.0,0.0,330.0,7.0,0.0
1407,58.0,0.0,330.0,1.0,0.0
1408,53.0,0.0,330.0,2.0,0.0
1409,68.0,0.0,330.0,6.0,0.0
1410,58.0,0.0,330.0,6.0,0.0
1411,58.0,0.0,330.0,4.0,0.0
1412,68.0,240.0,330.0,4.0,0.0
1413,50.0,0.0,330.0,3.0,0.0
1414,50.0,0.0,330.0,5.0,0.0
1415,53.0,0.0,330.0,5.0,0.0
1416,68.0,0.0,330.0,0.0,0.0
1417,50.0,0.0,330.0,7.0,0.0
1418,58.0,0.0,330.0,1.0,0.0
1419,67.0,0.0,180.0,6.0,0.0
1420,58.0,240.0,330.0,4.0,0.0
1421,51.0,0.0,330.0,3.0,0.0
1422,58.0,0.0,330.0,6.0,0.0
1423,67.0,144.0,180.0,4.0,0.0
1424,67.0,0.0,180.0,0.0,0.0
1425,51.0,0.0,330.0,7.0,0.0
1426,51.0,0.0,330.0,2.0,0.0
1427,51.0,0.0,330.0,5.0,0.0
1428,68.0,0.0,150.0,1.0,0.0
1429,68.0,0.0,150.0,6.0,0.0
1430,68.0,0.0,150.0,4.0,0.0
1431,68.0,0.0,150.0,0.0,0.0
1432,51.0,144.0,180.0,7.0,0.0
1433,46.0,0.0,330.0,7.0,0.0
1434,70.0,0.0,330.0,0.0,0.0
1435,58.0,0.0,330.0,4.0,0.0
1436,46.0,0.0,330.0,3.0,0.0
1437,58.0,0.0,330.0,6.0,0.0
1438,70.0,0.0,330.0,6.0,0.0
1439,58.0,240.0,330.0,1.0,0.0
1440,51.0,0.0,180.0,5.0,0.0
1441,46.0,0.0,330.0,5.0,0.0
1442,51.0,0.0,180.0,2.0,0.0
1443,70.0,0.0,330.0,4.0,0.0
1444,50.0,0.0,150.0,2.0,0.0
1445,50.0,0.0,150.0,3.0,0.0
1446,50.0,0.0,150.0,5.0,0.0
1447,50.0,0.0,150.0,7.0,0.0
1448,68.0,0.0,330.0,0.0,0.0
1449,68.0,240.0,330.0,4.0,0.0
1450,60.0,0.0,330.0,4.0,0.0
1451,48.0,0.0,180.0,7.0,0.0
1452,48.0,0.0,180.0,5.0,0.0
1453,68.0,0.0,330.0,6.0,0.0
1454,60.0,0.0,330.0,6.0,0.0
1455,51.0,0.0,180.0,2.0,0.0
1456,60.0,0.0,330.0,1.0,0.0
1457,51.0,0.0,180.0,7.0,0.0
1458,51.0,0.0,180.0,5.0,0.0
1459,48.0,144.0,180.0,3.0,0.0
1460,53.0,0.0,150.0,2.0,0.0
1461,50.0,0.0,150.0,7.0,0.0
1462,50.0,0.0,150.0,3.0,0.0
1463,53.0,0.0,150.0,7.0,0.0
1464,50.0,0.0,150.0,5.0,0.0
1465,53.0,0.0,150.0,5.0,0.0
1466,67.0,0.0,330.0,6.0,0.0
1467,58.0,0.0,330.0,6.0,0.0
1468,58.0,0.0,330.0,1.0,0.0
1469,58.0,0.0,330.0,4.0,0.0
1470,67.0,0.0,330.0,4.0,0.0
1471,67.0,240.0,330.0,0.0,0.0
1472,55.0,0.0,180.0,2.0,0.0
1473,51.0,0.0,180.0,7.0,0.0
1474,55.0,0.0,180.0,7.0,0.0
1475,55.0,144.0,180.0,5.0,0.0
1476,51.0,0.0,150.0,7.0,0.0
1477,51.0,0.0,15.0,3.0,0.0
1478,51.0,0.0,15.0,5.0,0.0
1479,51.0,0.0,150.0,2.0,0.0
1480,65.0,0.0,720.0,6.0,0.0
1481,48.0,0.0,180.0,5.0,0.0
1482,44.0,0.0,390.0,5.0,0.0
1483,44.0,336.0,390.0,3.0,0.0
1484,60.0,0.0,390.0,6.0,0.0
1485,44.0,0.0,390.0,7.0,0.0
1486,48.0,0.0,180.0,7.0,0.0
1487,60.0,0.0,390.0,4.0,0.0
1488,65.0,0.0,720.0,4.0,0.0
1489,48.0,192.0,180.0,2.0,0.0
1490,65.0,0.0,720.0,0.0,0.0
1491,60.0,0.0,390.0,1.0,0.0
1492,53.0,0.0,180.0,7.0,0.0
1493,53.0,0.0,180.0,3.0,0.0
1494,53.0,0.0,180.0,5.0,0.0
1495,53.0,0.0,180.0,2.0,0.0
1496,50.0,0.0,330.0,7.0,0.0
1497,46.0,0.0,330.0,7.0,0.0
1498,58.0,384.0,330.0,1.0,0.0
1499,58.0,0.0,330.0,0.0,0.0
1500,50.0,0.0,330.0,2.0,0.0
1501,46.0,0.0,330.0,3.0,0.0
1502,58.0,0.0,330.0,6.0,0.0
1503,58.0,0.0,330.0,4.0,0.0
1504,46.0,0.0,330.0,5.0,0.0
1505,50.0,0.0,330.0,5.0,0.0
1506,51.0,0.0,330.0,7.0,0.0
1507,58.0,0.0,330.0,4.0,0.0
1508,67.0,0.0,330.0,4.0,0.0
1509,58.0,0.0,330.0,6.0,0.0
1510,67.0,240.0,330.0,6.0,0.0
1511,39.0,0.0,330.0,5.0,0.0
1512,58.0,0.0,330.0,1.0,0.0
1513,51.0,0.0,330.0,5.0,0.0
1514,51.0,0.0,330.0,2.0,0.0
1515,39.0,0.0,330.0,3.0,0.0
1516,67.0,0.0,330.0,0.0,0.0
1517,39.0,0.0,330.0,7.0,0.0
1518,44.0,0.0,180.0,3.0,0.0
1519,60.0,0.0,330.0,6.0,0.0
1520,60.0,0.0,330.0,0.0,0.0
1521,56.0,0.0,330.0,1.0,0.0
1522,60.0,0.0,330.0,4.0,0.0
1523,44.0,144.0,180.0,5.0,0.0
1524,51.0,0.0,330.0,2.0,0.0
1525,51.0,0.0,330.0,5.0,0.0
1526,44.0,0.0,180.0,7.0,0.0
1527,51.0,0.0,330.0,7.0,0.0
1528,56.0,0.0,330.0,6.0,0.0
1529,56.0,0.0,330.0,4.0,0.0
1530,43.0,0.0,150.0,2.0,0.0
1531,43.0,240.0,150.0,3.0,0.0
1532,43.0,0.0,150.0,7.0,0.0
1533,43.0,0.0,150.0,5.0,0.0
1534,49.0,0.0,330.0,7.0,0.0
1535,56.0,0.0,180.0,4.0,0.0
1536,61.0,0.0,330.0,4.0,0.0
1537,41.0,384.0,330.0,3.0,0.0
1538,56.0,144.0,180.0,1.0,0.0
1539,61.0,0.0,330.0,6.0,0.0
1540,56.0,0.0,180.0,6.0,0.0
1541,61.0,0.0,330.0,0.0,0.0
1542,49.0,0.0,330.0,5.0,0.0
1543,49.0,0.0,330.0,2.0,0.0
1544,41.0,0.0,330.0,7.0,0.0
1545,41.0,0.0,330.0,5.0,0.0
1546,55.0,0.0,150.0,0.0,0.0
1547,55.0,0.0,150.0,6.0,0.0
1548,55.0,0.0,150.0,4.0,0.0
1549,55.0,0.0,150.0,1.0,0.0
1550,56.0,384.0,330.0,6.0,0.0
1551,56.0,0.0,330.0,1.0,0.0
1552,56.0,0.0,330.0,4.0,0.0
1553,60.0,0.0,330.0,4.0,0.0
1554,60.0,0.0,330.0,6.0,0.0
1555,39.0,0.0,330.0,5.0,0.0
1556,39.0,0.0,330.0,3.0,0.0
1557,51.0,0.0,330.0,5.0,0.0
1558,51.0,0.0,330.0,7.0,0.0
1559,39.0,0.0,330.0,7.0,0.0
1560,60.0,0.0,330.0,0.0,0.0
1561,51.0,0.0,330.0,2.0,0.0
1562,37.0,0.0,330.0,3.0,0.0
1563,58.0,0.0,330.0,6.0,0.0
1564,53.0,0.0,330.0,2.0,0.0
1565,53.0,0.0,330.0,7.0,0.0
1566,56.0,0.0,330.0,6.0,0.0
1567,37.0,0.0,330.0,7.0,0.0
1568,58.0,0.0,330.0,0.0,0.0
1569,37.0,0.0,330.0,5.0,0.0
1570,53.0,0.0,330.0,5.0,0.0
1571,56.0,240.0,330.0,1.0,0.0
1572,56.0,0.0,330.0,4.0,0.0
1573,58.0,0.0,330.0,4.0,0.0
1574,63.0,0.0,330.0,6.0,0.0
1575,46.0,0.0,180.0,2.0,0.0
1576,55.0,0.0,330.0,4.0,0.0
1577,63.0,0.0,330.0,4.0,0.0
1578,39.0,0.0,330.0,3.0,0.0
1579,46.0,144.0,180.0,7.0,0.0
1580,55.0,0.0,330.0,6.0,0.0
1581,39.0,0.0,330.0,7.0,0.0
1582,55.0,0.0,330.0,1.0,0.0
1583,46.0,0.0,180.0,5.0,0.0
1584,39.0,0.0,330.0,5.0,0.0
1585,63.0,0.0,330.0,0.0,0.0
1586,51.0,0.0,150.0,5.0,0.0
1587,51.0,0.0,150.0,2.0,0.0
1588,51.0,0.0,150.0,3.0,0.0
1589,51.0,1152.0,150.0,7.0,0.0
1590,44.0,0.0,1110.0,7.0,0.0
1591,60.0,0.0,1110.0,6.0,0.0
1592,56.0,0.0,1110.0,6.0,0.0
1593,51.0,0.0,1110.0,7.0,0.0
1594,44.0,0.0,1110.0,3.0,0.0
1595,51.0,0.0,1110.0,2.0,0.0
1596,60.0,0.0,1110.0,0.0,0.0
1597,56.0,0.0,1110.0,1.0,0.0
1598,56.0,0.0,1110.0,4.0,0.0
1599,60.0,0.0,1110.0,4.0,0.0
1600,51.0,0.0,1110.0,5.0,0.0
1601,44.0,0.0,1110.0,5.0,0.0
