,note,step,duration,channel,velocity
0,65.0,3.0,120.0,4.0,64.0
1,65.0,6.0,120.0,5.0,64.0
2,58.0,0.0,90.0,2.0,64.0
3,65.0,9.0,90.0,0.0,64.0
4,58.0,18.0,120.0,8.0,64.0
5,58.0,91.0,660.0,10.0,64.0
6,65.0,11.0,150.0,6.0,64.0
7,62.0,25.0,90.0,1.0,64.0
8,62.0,124.0,150.0,7.0,64.0
9,46.0,6.0,60.0,3.0,64.0
10,74.0,0.0,60.0,1.0,64.0
11,77.0,5.0,60.0,5.0,64.0
12,77.0,0.0,40.0,4.0,64.0
13,77.0,11.0,60.0,6.0,64.0
14,58.0,53.0,90.0,2.0,64.0
15,46.0,2.0,60.0,3.0,64.0
16,77.0,9.0,60.0,0.0,64.0
17,74.0,7.0,60.0,7.0,64.0
18,58.0,7.0,60.0,8.0,64.0
19,70.0,19.0,40.0,1.0,64.0
20,74.0,2.0,60.0,5.0,64.0
21,74.0,2.0,60.0,4.0,64.0
22,74.0,2.0,60.0,6.0,64.0
23,74.0,7.0,60.0,0.0,64.0
24,70.0,200.0,60.0,7.0,64.0
25,72.0,9.0,270.0,1.0,64.0
26,75.0,6.0,270.0,5.0,64.0
27,72.0,2.0,270.0,7.0,64.0
28,65.0,11.0,300.0,2.0,64.0
29,75.0,4.0,270.0,4.0,64.0
30,75.0,1.0,270.0,6.0,64.0
31,41.0,36.0,120.0,3.0,64.0
32,75.0,97.0,300.0,0.0,64.0
33,65.0,14.0,270.0,8.0,64.0
34,57.0,6.0,60.0,10.0,64.0
35,55.0,142.0,60.0,10.0,64.0
36,57.0,14.0,90.0,10.0,64.0
37,60.0,14.0,150.0,7.0,64.0
38,65.0,35.0,120.0,1.0,64.0
39,65.0,5.0,90.0,2.0,64.0
40,65.0,11.0,90.0,0.0,64.0
41,65.0,2.0,150.0,4.0,64.0
42,41.0,2.0,90.0,3.0,64.0
43,65.0,7.0,150.0,6.0,64.0
44,65.0,13.0,150.0,5.0,64.0
45,65.0,109.0,150.0,8.0,64.0
46,53.0,0.0,90.0,10.0,64.0
47,65.0,18.0,90.0,2.0,64.0
48,72.0,1.0,60.0,7.0,64.0
49,75.0,6.0,40.0,6.0,64.0
50,75.0,4.0,60.0,4.0,64.0
51,75.0,4.0,40.0,5.0,64.0
52,75.0,10.0,60.0,0.0,64.0
53,72.0,2.0,60.0,1.0,64.0
54,41.0,61.0,90.0,3.0,64.0
55,65.0,4.0,60.0,8.0,64.0
56,72.0,2.0,40.0,4.0,64.0
57,65.0,0.0,60.0,1.0,64.0
58,72.0,5.0,40.0,5.0,64.0
59,72.0,7.0,40.0,0.0,64.0
60,69.0,180.0,60.0,7.0,64.0
61,72.0,2.0,40.0,6.0,64.0
62,58.0,76.0,180.0,10.0,64.0
63,58.0,5.0,270.0,2.0,64.0
64,70.0,14.0,300.0,7.0,64.0
65,74.0,18.0,300.0,0.0,64.0
66,74.0,2.0,270.0,4.0,64.0
67,46.0,76.0,90.0,3.0,64.0
68,65.0,7.0,240.0,1.0,64.0
69,74.0,4.0,270.0,6.0,64.0
70,74.0,7.0,270.0,5.0,64.0
71,65.0,2.0,270.0,8.0,64.0
72,46.0,83.0,90.0,10.0,64.0
73,48.0,182.0,60.0,10.0,64.0
74,50.0,2.0,180.0,10.0,64.0
75,65.0,5.0,180.0,4.0,64.0
76,65.0,18.0,150.0,6.0,64.0
77,58.0,59.0,90.0,7.0,64.0
78,65.0,0.0,90.0,8.0,64.0
79,65.0,87.0,150.0,5.0,64.0
80,72.0,18.0,40.0,6.0,64.0
81,72.0,8.0,60.0,4.0,64.0
82,51.0,36.0,60.0,10.0,64.0
83,57.0,42.0,90.0,8.0,64.0
84,60.0,10.0,90.0,7.0,64.0
85,72.0,1.0,40.0,5.0,64.0
86,69.0,18.0,40.0,6.0,64.0
87,69.0,5.0,60.0,4.0,64.0
88,48.0,4.0,60.0,10.0,64.0
89,69.0,151.0,60.0,5.0,64.0
90,53.0,18.0,90.0,7.0,64.0
91,70.0,101.0,180.0,6.0,64.0
92,70.0,3.0,180.0,4.0,64.0
93,50.0,69.0,120.0,10.0,64.0
94,62.0,5.0,90.0,8.0,64.0
95,70.0,6.0,180.0,5.0,64.0
96,58.0,11.0,90.0,7.0,64.0
97,69.0,10.0,60.0,4.0,64.0
98,69.0,2.0,90.0,6.0,64.0
99,69.0,22.0,60.0,5.0,64.0
100,60.0,68.0,90.0,8.0,64.0
101,51.0,7.0,90.0,10.0,64.0
102,67.0,6.0,60.0,4.0,64.0
103,67.0,5.0,60.0,6.0,64.0
104,67.0,104.0,60.0,5.0,64.0
105,65.0,15.0,60.0,4.0,64.0
106,65.0,18.0,60.0,6.0,64.0
107,65.0,5.0,60.0,5.0,64.0
108,58.0,6.0,90.0,7.0,64.0
109,62.0,1.0,90.0,8.0,64.0
110,53.0,74.0,90.0,10.0,64.0
111,67.0,13.0,60.0,4.0,64.0
112,67.0,121.0,90.0,6.0,64.0
113,67.0,3.0,60.0,5.0,64.0
114,57.0,7.0,60.0,7.0,64.0
115,63.0,191.0,90.0,6.0,64.0
116,63.0,3.0,90.0,4.0,64.0
117,60.0,13.0,60.0,8.0,64.0
118,41.0,0.0,60.0,10.0,64.0
119,63.0,2.0,90.0,5.0,64.0
120,63.0,23.0,60.0,4.0,64.0
121,63.0,9.0,90.0,6.0,64.0
122,63.0,6.0,60.0,5.0,64.0
123,46.0,32.0,210.0,10.0,64.0
124,53.0,2.0,270.0,7.0,64.0
125,58.0,1.0,300.0,8.0,64.0
126,62.0,4.0,60.0,4.0,64.0
127,62.0,7.0,40.0,5.0,64.0
128,62.0,63.0,40.0,6.0,64.0
129,63.0,28.0,60.0,4.0,64.0
130,63.0,13.0,90.0,6.0,64.0
131,63.0,2.0,90.0,5.0,64.0
132,62.0,2.0,90.0,4.0,64.0
133,62.0,0.0,90.0,5.0,64.0
134,62.0,54.0,90.0,6.0,64.0
135,60.0,7.0,90.0,4.0,64.0
136,60.0,35.0,90.0,5.0,64.0
137,60.0,4.0,60.0,6.0,64.0
138,50.0,28.0,90.0,10.0,64.0
139,58.0,26.0,60.0,4.0,64.0
140,58.0,8.0,40.0,6.0,64.0
141,58.0,42.0,40.0,5.0,64.0
142,53.0,139.0,90.0,10.0,64.0
143,65.0,2.0,150.0,4.0,64.0
144,65.0,11.0,150.0,6.0,64.0
145,65.0,6.0,150.0,5.0,64.0
146,62.0,117.0,150.0,7.0,64.0
147,58.0,19.0,120.0,8.0,64.0
148,62.0,3.0,150.0,1.0,64.0
149,58.0,9.0,90.0,2.0,64.0
150,65.0,4.0,90.0,0.0,64.0
151,58.0,77.0,630.0,10.0,64.0
152,46.0,5.0,90.0,3.0,64.0
153,77.0,3.0,60.0,6.0,64.0
154,77.0,6.0,40.0,5.0,64.0
155,74.0,2.0,40.0,1.0,64.0
156,74.0,11.0,60.0,7.0,64.0
157,77.0,7.0,60.0,0.0,64.0
158,77.0,18.0,40.0,4.0,64.0
159,58.0,63.0,60.0,8.0,64.0
160,46.0,0.0,60.0,3.0,64.0
161,58.0,3.0,60.0,2.0,64.0
162,74.0,5.0,60.0,6.0,64.0
163,74.0,6.0,40.0,5.0,64.0
164,74.0,7.0,60.0,0.0,64.0
165,70.0,0.0,40.0,1.0,64.0
166,70.0,213.0,60.0,7.0,64.0
167,74.0,9.0,60.0,4.0,64.0
168,75.0,5.0,300.0,0.0,64.0
169,75.0,2.0,300.0,6.0,64.0
170,75.0,11.0,240.0,4.0,64.0
171,75.0,4.0,270.0,5.0,64.0
172,65.0,14.0,300.0,8.0,64.0
173,72.0,7.0,270.0,1.0,64.0
174,65.0,5.0,270.0,2.0,64.0
175,72.0,6.0,270.0,7.0,64.0
176,41.0,25.0,120.0,3.0,64.0
177,57.0,112.0,60.0,10.0,64.0
178,55.0,149.0,90.0,10.0,64.0
179,65.0,117.0,180.0,4.0,64.0
180,57.0,8.0,90.0,10.0,64.0
181,65.0,1.0,180.0,5.0,64.0
182,65.0,39.0,120.0,8.0,64.0
183,65.0,12.0,150.0,6.0,64.0
184,65.0,13.0,150.0,1.0,64.0
185,65.0,3.0,90.0,2.0,64.0
186,65.0,11.0,90.0,0.0,64.0
187,41.0,4.0,90.0,3.0,64.0
188,60.0,1.0,150.0,7.0,64.0
189,72.0,2.0,60.0,7.0,64.0
190,75.0,2.0,60.0,0.0,64.0
191,53.0,16.0,90.0,10.0,64.0
192,65.0,2.0,60.0,2.0,64.0
193,75.0,11.0,60.0,6.0,64.0
194,65.0,21.0,90.0,8.0,64.0
195,75.0,0.0,40.0,5.0,64.0
196,75.0,5.0,60.0,4.0,64.0
197,41.0,44.0,90.0,3.0,64.0
198,72.0,2.0,60.0,1.0,64.0
199,69.0,7.0,60.0,7.0,64.0
200,72.0,3.0,40.0,0.0,64.0
201,65.0,5.0,60.0,1.0,64.0
202,72.0,2.0,60.0,5.0,64.0
203,72.0,166.0,60.0,6.0,64.0
204,72.0,2.0,40.0,4.0,64.0
205,74.0,2.0,300.0,0.0,64.0
206,58.0,8.0,270.0,2.0,64.0
207,65.0,1.0,270.0,1.0,64.0
208,65.0,54.0,300.0,8.0,64.0
209,46.0,144.0,120.0,3.0,64.0
210,70.0,4.0,270.0,7.0,64.0
211,58.0,22.0,90.0,10.0,64.0
212,74.0,4.0,270.0,6.0,64.0
213,74.0,5.0,270.0,4.0,64.0
214,74.0,1.0,270.0,5.0,64.0
215,57.0,219.0,120.0,10.0,64.0
216,55.0,18.0,90.0,10.0,64.0
217,76.0,22.0,150.0,5.0,64.0
218,67.0,8.0,90.0,8.0,64.0
219,76.0,90.0,180.0,6.0,64.0
220,76.0,10.0,180.0,4.0,64.0
221,70.0,50.0,90.0,7.0,64.0
222,79.0,6.0,60.0,5.0,64.0
223,79.0,12.0,40.0,4.0,64.0
224,67.0,11.0,90.0,7.0,64.0
225,64.0,38.0,90.0,8.0,64.0
226,79.0,26.0,60.0,6.0,64.0
227,60.0,10.0,90.0,10.0,64.0
228,76.0,9.0,40.0,5.0,64.0
229,76.0,20.0,40.0,4.0,64.0
230,76.0,158.0,40.0,6.0,64.0
231,77.0,22.0,180.0,4.0,64.0
232,77.0,4.0,180.0,5.0,64.0
233,60.0,79.0,90.0,8.0,64.0
234,72.0,9.0,210.0,7.0,64.0
235,77.0,0.0,180.0,6.0,64.0
236,57.0,80.0,210.0,10.0,64.0
237,76.0,11.0,60.0,4.0,64.0
238,55.0,1.0,90.0,10.0,64.0
239,76.0,9.0,60.0,5.0,64.0
240,76.0,12.0,60.0,6.0,64.0
241,70.0,25.0,60.0,7.0,64.0
242,60.0,60.0,90.0,8.0,64.0
243,74.0,1.0,60.0,4.0,64.0
244,53.0,11.0,60.0,10.0,64.0
245,74.0,0.0,60.0,5.0,64.0
246,74.0,0.0,60.0,6.0,64.0
247,69.0,123.0,60.0,7.0,64.0
248,72.0,0.0,90.0,4.0,64.0
249,72.0,20.0,90.0,5.0,64.0
250,72.0,12.0,60.0,6.0,64.0
251,52.0,20.0,120.0,10.0,64.0
252,67.0,5.0,90.0,7.0,64.0
253,60.0,43.0,90.0,8.0,64.0
254,74.0,0.0,60.0,4.0,64.0
255,74.0,155.0,60.0,6.0,64.0
256,74.0,0.0,60.0,5.0,64.0
257,48.0,9.0,90.0,10.0,64.0
258,70.0,5.0,90.0,4.0,64.0
259,70.0,2.0,90.0,5.0,64.0
260,70.0,2.0,90.0,6.0,64.0
261,64.0,6.0,90.0,7.0,64.0
262,60.0,221.0,90.0,8.0,64.0
263,69.0,0.0,180.0,4.0,64.0
264,69.0,7.0,180.0,5.0,64.0
265,53.0,83.0,90.0,10.0,64.0
266,65.0,7.0,180.0,7.0,64.0
267,69.0,97.0,180.0,6.0,64.0
268,60.0,2.0,150.0,8.0,64.0
269,74.0,7.0,60.0,4.0,64.0
270,74.0,2.0,60.0,5.0,64.0
271,74.0,40.0,60.0,6.0,64.0
272,46.0,7.0,90.0,10.0,64.0
273,65.0,19.0,120.0,7.0,64.0
274,58.0,31.0,90.0,8.0,64.0
275,70.0,7.0,60.0,4.0,64.0
276,70.0,167.0,60.0,6.0,64.0
277,70.0,1.0,60.0,5.0,64.0
278,72.0,11.0,180.0,4.0,64.0
279,45.0,0.0,90.0,10.0,64.0
280,72.0,14.0,180.0,5.0,64.0
281,72.0,115.0,180.0,6.0,64.0
282,53.0,5.0,90.0,8.0,64.0
283,65.0,67.0,90.0,7.0,64.0
284,65.0,10.0,90.0,7.0,64.0
285,50.0,22.0,90.0,10.0,64.0
286,70.0,6.0,60.0,4.0,64.0
287,70.0,0.0,60.0,5.0,64.0
288,53.0,65.0,90.0,8.0,64.0
289,70.0,2.0,60.0,6.0,64.0
290,69.0,0.0,60.0,4.0,64.0
291,69.0,115.0,60.0,5.0,64.0
292,69.0,4.0,40.0,6.0,64.0
293,67.0,37.0,60.0,4.0,64.0
294,62.0,2.0,180.0,7.0,64.0
295,67.0,10.0,90.0,6.0,64.0
296,67.0,5.0,90.0,5.0,64.0
297,46.0,52.0,90.0,10.0,64.0
298,58.0,108.0,180.0,8.0,64.0
299,69.0,14.0,60.0,4.0,64.0
300,69.0,11.0,60.0,6.0,64.0
301,69.0,4.0,60.0,5.0,64.0
302,65.0,8.0,60.0,4.0,64.0
303,65.0,19.0,60.0,5.0,64.0
304,65.0,7.0,90.0,6.0,64.0
305,62.0,0.0,120.0,7.0,64.0
306,43.0,205.0,90.0,10.0,64.0
307,58.0,18.0,90.0,8.0,64.0
308,57.0,9.0,90.0,8.0,64.0
309,60.0,4.0,90.0,4.0,64.0
310,60.0,1.0,90.0,5.0,64.0
311,60.0,217.0,90.0,7.0,64.0
312,60.0,4.0,90.0,6.0,64.0
313,48.0,4.0,90.0,10.0,64.0
314,64.0,7.0,60.0,4.0,64.0
315,55.0,2.0,90.0,8.0,64.0
316,36.0,6.0,60.0,10.0,64.0
317,64.0,14.0,90.0,6.0,64.0
318,64.0,409.0,90.0,5.0,64.0
319,60.0,5.0,60.0,7.0,64.0
320,65.0,11.0,240.0,4.0,64.0
321,65.0,18.0,270.0,5.0,64.0
322,65.0,0.0,270.0,6.0,64.0
323,41.0,2.0,270.0,10.0,64.0
324,60.0,286.0,270.0,7.0,64.0
325,57.0,2.0,270.0,8.0,64.0
326,58.0,2.0,90.0,2.0,64.0
327,58.0,1.0,150.0,8.0,64.0
328,62.0,16.0,150.0,7.0,64.0
329,46.0,46.0,90.0,3.0,64.0
330,65.0,121.0,150.0,4.0,64.0
331,65.0,3.0,120.0,0.0,64.0
332,65.0,0.0,150.0,6.0,64.0
333,65.0,6.0,150.0,5.0,64.0
334,58.0,146.0,570.0,10.0,64.0
335,62.0,1.0,120.0,1.0,64.0
336,74.0,18.0,60.0,7.0,64.0
337,77.0,1.0,60.0,5.0,64.0
338,77.0,4.0,60.0,0.0,64.0
339,46.0,3.0,90.0,3.0,64.0
340,58.0,70.0,90.0,2.0,64.0
341,77.0,5.0,60.0,4.0,64.0
342,74.0,1.0,60.0,1.0,64.0
343,77.0,0.0,60.0,6.0,64.0
344,58.0,2.0,60.0,8.0,64.0
345,74.0,8.0,40.0,5.0,64.0
346,70.0,2.0,60.0,7.0,64.0
347,74.0,4.0,40.0,0.0,64.0
348,70.0,3.0,40.0,1.0,64.0
349,74.0,0.0,60.0,6.0,64.0
350,74.0,171.0,60.0,4.0,64.0
351,65.0,4.0,270.0,2.0,64.0
352,74.0,4.0,120.0,5.0,64.0
353,65.0,18.0,270.0,8.0,64.0
354,74.0,5.0,120.0,4.0,64.0
355,41.0,0.0,120.0,3.0,64.0
356,70.0,6.0,90.0,7.0,64.0
357,70.0,3.0,90.0,1.0,64.0
358,74.0,3.0,120.0,6.0,64.0
359,74.0,7.0,90.0,0.0,64.0
360,72.0,10.0,210.0,7.0,64.0
361,75.0,0.0,180.0,4.0,64.0
362,72.0,85.0,210.0,1.0,64.0
363,75.0,1.0,180.0,5.0,64.0
364,75.0,3.0,180.0,0.0,64.0
365,75.0,14.0,180.0,6.0,64.0
366,57.0,7.0,60.0,10.0,64.0
367,55.0,164.0,90.0,10.0,64.0
368,41.0,7.0,90.0,3.0,64.0
369,60.0,5.0,150.0,7.0,64.0
370,57.0,6.0,120.0,10.0,64.0
371,65.0,2.0,150.0,5.0,64.0
372,65.0,23.0,120.0,2.0,64.0
373,65.0,1.0,150.0,6.0,64.0
374,65.0,5.0,120.0,4.0,64.0
375,65.0,28.0,150.0,1.0,64.0
376,65.0,99.0,180.0,8.0,64.0
377,65.0,8.0,120.0,0.0,64.0
378,72.0,3.0,60.0,7.0,64.0
379,75.0,5.0,40.0,5.0,64.0
380,75.0,5.0,60.0,4.0,64.0
381,75.0,4.0,60.0,6.0,64.0
382,53.0,5.0,90.0,10.0,64.0
383,72.0,0.0,40.0,1.0,64.0
384,75.0,21.0,60.0,0.0,64.0
385,65.0,9.0,90.0,2.0,64.0
386,65.0,4.0,90.0,8.0,64.0
387,41.0,55.0,90.0,3.0,64.0
388,69.0,184.0,60.0,7.0,64.0
389,72.0,5.0,40.0,5.0,64.0
390,65.0,3.0,40.0,1.0,64.0
391,72.0,4.0,60.0,4.0,64.0
392,72.0,0.0,40.0,0.0,64.0
393,72.0,1.0,40.0,6.0,64.0
394,58.0,62.0,180.0,10.0,64.0
395,69.0,16.0,120.0,7.0,64.0
396,72.0,1.0,120.0,4.0,64.0
397,65.0,6.0,240.0,1.0,64.0
398,72.0,0.0,120.0,6.0,64.0
399,58.0,36.0,240.0,2.0,64.0
400,72.0,52.0,120.0,5.0,64.0
401,65.0,20.0,270.0,8.0,64.0
402,72.0,2.0,120.0,0.0,64.0
403,46.0,6.0,120.0,3.0,64.0
404,74.0,1.0,210.0,5.0,64.0
405,70.0,5.0,210.0,7.0,64.0
406,74.0,74.0,210.0,6.0,64.0
407,74.0,7.0,210.0,0.0,64.0
408,74.0,4.0,180.0,4.0,64.0
409,46.0,1.0,60.0,10.0,64.0
410,48.0,180.0,60.0,10.0,64.0
411,50.0,9.0,180.0,10.0,64.0
412,58.0,23.0,90.0,7.0,64.0
413,65.0,45.0,120.0,8.0,64.0
414,65.0,4.0,150.0,6.0,64.0
415,65.0,0.0,150.0,5.0,64.0
416,65.0,106.0,150.0,4.0,64.0
417,72.0,2.0,60.0,6.0,64.0
418,72.0,4.0,60.0,5.0,64.0
419,72.0,27.0,40.0,4.0,64.0
420,60.0,67.0,90.0,7.0,64.0
421,51.0,12.0,60.0,10.0,64.0
422,57.0,2.0,90.0,8.0,64.0
423,69.0,7.0,60.0,4.0,64.0
424,69.0,14.0,60.0,6.0,64.0
425,69.0,0.0,60.0,5.0,64.0
426,48.0,159.0,60.0,10.0,64.0
427,53.0,5.0,120.0,7.0,64.0
428,50.0,63.0,120.0,10.0,64.0
429,70.0,1.0,180.0,4.0,64.0
430,70.0,115.0,180.0,5.0,64.0
431,70.0,6.0,180.0,6.0,64.0
432,62.0,13.0,150.0,8.0,64.0
433,58.0,12.0,120.0,7.0,64.0
434,69.0,7.0,60.0,4.0,64.0
435,51.0,4.0,90.0,10.0,64.0
436,69.0,4.0,90.0,6.0,64.0
437,60.0,68.0,90.0,8.0,64.0
438,69.0,11.0,60.0,5.0,64.0
439,67.0,15.0,60.0,4.0,64.0
440,67.0,3.0,90.0,6.0,64.0
441,67.0,124.0,90.0,5.0,64.0
442,65.0,14.0,90.0,4.0,64.0
443,65.0,5.0,90.0,5.0,64.0
444,65.0,10.0,120.0,6.0,64.0
445,58.0,6.0,90.0,7.0,64.0
446,62.0,1.0,60.0,8.0,64.0
447,53.0,65.0,90.0,10.0,64.0
448,67.0,3.0,90.0,4.0,64.0
449,67.0,118.0,90.0,6.0,64.0
450,67.0,9.0,60.0,5.0,64.0
451,63.0,2.0,120.0,5.0,64.0
452,63.0,7.0,90.0,4.0,64.0
453,63.0,189.0,120.0,6.0,64.0
454,60.0,8.0,90.0,8.0,64.0
455,57.0,11.0,90.0,7.0,64.0
456,41.0,8.0,60.0,10.0,64.0
457,63.0,10.0,60.0,4.0,64.0
458,63.0,8.0,60.0,5.0,64.0
459,63.0,12.0,90.0,6.0,64.0
460,58.0,20.0,270.0,8.0,64.0
461,46.0,18.0,180.0,10.0,64.0
462,53.0,15.0,240.0,7.0,64.0
463,62.0,2.0,40.0,4.0,64.0
464,62.0,7.0,40.0,5.0,64.0
465,62.0,74.0,40.0,6.0,64.0
466,63.0,4.0,90.0,5.0,64.0
467,63.0,20.0,90.0,6.0,64.0
468,63.0,9.0,60.0,4.0,64.0
469,62.0,25.0,90.0,4.0,64.0
470,62.0,3.0,90.0,5.0,64.0
471,62.0,18.0,90.0,6.0,64.0
472,60.0,3.0,90.0,4.0,64.0
473,60.0,78.0,90.0,6.0,64.0
474,60.0,7.0,60.0,5.0,64.0
475,50.0,11.0,60.0,10.0,64.0
476,53.0,151.0,60.0,10.0,64.0
477,58.0,3.0,60.0,4.0,64.0
478,58.0,4.0,40.0,5.0,64.0
479,58.0,7.0,40.0,6.0,64.0
480,58.0,7.0,180.0,8.0,64.0
481,58.0,102.0,660.0,10.0,64.0
482,46.0,22.0,90.0,3.0,64.0
483,65.0,11.0,150.0,5.0,64.0
484,62.0,95.0,180.0,7.0,64.0
485,65.0,6.0,150.0,6.0,64.0
486,65.0,11.0,180.0,4.0,64.0
487,58.0,33.0,90.0,2.0,64.0
488,65.0,12.0,120.0,0.0,64.0
489,62.0,1.0,150.0,1.0,64.0
490,77.0,0.0,60.0,6.0,64.0
491,77.0,2.0,60.0,0.0,64.0
492,77.0,4.0,60.0,5.0,64.0
493,74.0,3.0,60.0,1.0,64.0
494,46.0,6.0,60.0,3.0,64.0
495,77.0,18.0,60.0,4.0,64.0
496,58.0,9.0,90.0,2.0,64.0
497,74.0,7.0,60.0,7.0,64.0
498,58.0,65.0,90.0,8.0,64.0
499,70.0,1.0,60.0,1.0,64.0
500,74.0,2.0,60.0,4.0,64.0
501,70.0,171.0,60.0,7.0,64.0
502,74.0,0.0,60.0,6.0,64.0
503,74.0,8.0,40.0,5.0,64.0
504,74.0,5.0,60.0,0.0,64.0
505,74.0,39.0,150.0,4.0,64.0
506,74.0,9.0,120.0,5.0,64.0
507,70.0,8.0,120.0,1.0,64.0
508,70.0,0.0,120.0,7.0,64.0
509,65.0,0.0,270.0,2.0,64.0
510,41.0,2.0,120.0,3.0,64.0
511,74.0,4.0,120.0,6.0,64.0
512,74.0,4.0,120.0,0.0,64.0
513,65.0,13.0,270.0,8.0,64.0
514,75.0,85.0,210.0,6.0,64.0
515,75.0,5.0,180.0,4.0,64.0
516,72.0,0.0,180.0,1.0,64.0
517,72.0,9.0,180.0,7.0,64.0
518,75.0,8.0,150.0,0.0,64.0
519,75.0,3.0,210.0,5.0,64.0
520,57.0,13.0,60.0,10.0,64.0
521,55.0,146.0,90.0,10.0,64.0
522,65.0,21.0,150.0,6.0,64.0
523,60.0,2.0,150.0,7.0,64.0
524,65.0,6.0,150.0,4.0,64.0
525,65.0,119.0,180.0,5.0,64.0
526,57.0,9.0,90.0,10.0,64.0
527,65.0,1.0,180.0,1.0,64.0
528,41.0,45.0,90.0,3.0,64.0
529,65.0,5.0,150.0,8.0,64.0
530,65.0,0.0,120.0,2.0,64.0
531,65.0,1.0,120.0,0.0,64.0
532,72.0,0.0,60.0,7.0,64.0
533,53.0,6.0,90.0,10.0,64.0
534,75.0,0.0,60.0,4.0,64.0
535,75.0,4.0,60.0,6.0,64.0
536,75.0,6.0,60.0,5.0,64.0
537,72.0,3.0,40.0,1.0,64.0
538,75.0,14.0,60.0,0.0,64.0
539,65.0,65.0,90.0,2.0,64.0
540,41.0,5.0,60.0,3.0,64.0
541,65.0,7.0,60.0,8.0,64.0
542,65.0,1.0,60.0,1.0,64.0
543,72.0,2.0,40.0,6.0,64.0
544,69.0,0.0,60.0,7.0,64.0
545,72.0,7.0,40.0,4.0,64.0
546,72.0,176.0,60.0,0.0,64.0
547,72.0,1.0,40.0,5.0,64.0
548,58.0,0.0,120.0,10.0,64.0
549,69.0,3.0,120.0,7.0,64.0
550,72.0,3.0,120.0,6.0,64.0
551,72.0,0.0,120.0,4.0,64.0
552,46.0,18.0,90.0,3.0,64.0
553,65.0,19.0,240.0,1.0,64.0
554,65.0,15.0,300.0,8.0,64.0
555,72.0,7.0,120.0,5.0,64.0
556,58.0,15.0,270.0,2.0,64.0
557,72.0,113.0,120.0,0.0,64.0
558,74.0,21.0,180.0,4.0,64.0
559,70.0,9.0,180.0,7.0,64.0
560,74.0,0.0,210.0,6.0,64.0
561,74.0,16.0,210.0,5.0,64.0
562,74.0,5.0,210.0,0.0,64.0
563,57.0,220.0,120.0,10.0,64.0
564,55.0,2.0,90.0,10.0,64.0
565,76.0,9.0,180.0,6.0,64.0
566,76.0,13.0,150.0,5.0,64.0
567,67.0,36.0,90.0,8.0,64.0
568,76.0,106.0,180.0,4.0,64.0
569,70.0,37.0,120.0,7.0,64.0
570,79.0,4.0,60.0,6.0,64.0
571,60.0,8.0,90.0,10.0,64.0
572,79.0,9.0,40.0,5.0,64.0
573,79.0,23.0,60.0,4.0,64.0
574,67.0,69.0,90.0,7.0,64.0
575,64.0,1.0,90.0,8.0,64.0
576,76.0,5.0,40.0,5.0,64.0
577,76.0,15.0,40.0,6.0,64.0
578,76.0,234.0,60.0,4.0,64.0
579,60.0,14.0,180.0,8.0,64.0
580,57.0,2.0,210.0,10.0,64.0
581,77.0,2.0,180.0,6.0,64.0
582,77.0,5.0,180.0,5.0,64.0
583,72.0,111.0,180.0,7.0,64.0
584,77.0,0.0,180.0,4.0,64.0
585,55.0,2.0,90.0,10.0,64.0
586,76.0,1.0,60.0,6.0,64.0
587,76.0,11.0,60.0,4.0,64.0
588,70.0,27.0,90.0,7.0,64.0
589,76.0,1.0,60.0,5.0,64.0
590,60.0,58.0,90.0,8.0,64.0
591,53.0,10.0,60.0,10.0,64.0
592,74.0,0.0,60.0,4.0,64.0
593,69.0,129.0,60.0,7.0,64.0
594,74.0,4.0,60.0,5.0,64.0
595,74.0,0.0,60.0,6.0,64.0
596,52.0,4.0,120.0,10.0,64.0
597,72.0,1.0,60.0,5.0,64.0
598,67.0,63.0,120.0,7.0,64.0
599,72.0,9.0,60.0,4.0,64.0
600,72.0,16.0,90.0,6.0,64.0
601,60.0,3.0,90.0,8.0,64.0
602,74.0,151.0,60.0,4.0,64.0
603,74.0,5.0,60.0,5.0,64.0
604,74.0,4.0,60.0,6.0,64.0
605,48.0,7.0,90.0,10.0,64.0
606,70.0,1.0,120.0,4.0,64.0
607,70.0,1.0,90.0,5.0,64.0
608,60.0,6.0,90.0,8.0,64.0
609,70.0,247.0,90.0,6.0,64.0
610,64.0,1.0,90.0,7.0,64.0
611,69.0,15.0,180.0,5.0,64.0
612,69.0,7.0,180.0,4.0,64.0
613,69.0,101.0,180.0,6.0,64.0
614,53.0,14.0,90.0,10.0,64.0
615,65.0,22.0,120.0,7.0,64.0
616,60.0,23.0,120.0,8.0,64.0
617,74.0,2.0,60.0,6.0,64.0
618,74.0,40.0,60.0,4.0,64.0
619,74.0,3.0,60.0,5.0,64.0
620,46.0,27.0,90.0,10.0,64.0
621,58.0,0.0,90.0,8.0,64.0
622,65.0,36.0,120.0,7.0,64.0
623,70.0,2.0,60.0,5.0,64.0
624,70.0,151.0,60.0,6.0,64.0
625,70.0,5.0,60.0,4.0,64.0
626,53.0,18.0,90.0,8.0,64.0
627,72.0,13.0,180.0,4.0,64.0
628,45.0,7.0,90.0,10.0,64.0
629,72.0,102.0,180.0,6.0,64.0
630,65.0,65.0,90.0,7.0,64.0
631,72.0,2.0,180.0,5.0,64.0
632,70.0,15.0,60.0,4.0,64.0
633,70.0,7.0,60.0,5.0,64.0
634,50.0,0.0,90.0,10.0,64.0
635,65.0,61.0,90.0,7.0,64.0
636,53.0,4.0,90.0,8.0,64.0
637,70.0,32.0,60.0,6.0,64.0
638,69.0,5.0,60.0,4.0,64.0
639,69.0,13.0,60.0,5.0,64.0
640,69.0,142.0,60.0,6.0,64.0
641,67.0,0.0,90.0,4.0,64.0
642,67.0,20.0,90.0,5.0,64.0
643,67.0,5.0,90.0,6.0,64.0
644,62.0,4.0,120.0,7.0,64.0
645,46.0,50.0,120.0,10.0,64.0
646,58.0,4.0,180.0,8.0,64.0
647,69.0,11.0,60.0,4.0,64.0
648,69.0,115.0,90.0,6.0,64.0
649,69.0,7.0,60.0,5.0,64.0
650,65.0,17.0,90.0,4.0,64.0
651,58.0,1.0,90.0,8.0,64.0
652,65.0,2.0,90.0,6.0,64.0
653,65.0,19.0,90.0,5.0,64.0
654,62.0,4.0,90.0,7.0,64.0
655,43.0,200.0,90.0,10.0,64.0
656,60.0,15.0,90.0,4.0,64.0
657,57.0,7.0,90.0,8.0,64.0
658,60.0,9.0,90.0,6.0,64.0
659,60.0,201.0,90.0,7.0,64.0
660,60.0,0.0,60.0,5.0,64.0
661,48.0,2.0,90.0,10.0,64.0
662,55.0,16.0,60.0,8.0,64.0
663,36.0,4.0,90.0,10.0,64.0
664,64.0,2.0,60.0,4.0,64.0
665,64.0,0.0,60.0,5.0,64.0
666,60.0,390.0,90.0,7.0,64.0
667,64.0,11.0,90.0,6.0,64.0
668,65.0,4.0,240.0,4.0,64.0
669,65.0,20.0,240.0,5.0,64.0
670,57.0,4.0,270.0,8.0,64.0
671,65.0,320.0,270.0,6.0,64.0
672,41.0,0.0,270.0,10.0,64.0
673,60.0,1.0,240.0,7.0,64.0
674,60.0,25.0,150.0,7.0,64.0
675,57.0,5.0,120.0,8.0,64.0
676,41.0,13.0,120.0,10.0,64.0
677,72.0,3.0,150.0,4.0,64.0
678,72.0,5.0,150.0,6.0,64.0
679,72.0,136.0,150.0,5.0,64.0
680,60.0,5.0,60.0,6.0,64.0
681,72.0,41.0,90.0,7.0,64.0
682,53.0,0.0,90.0,8.0,64.0
683,60.0,0.0,60.0,5.0,64.0
684,60.0,26.0,60.0,4.0,64.0
685,45.0,43.0,120.0,10.0,64.0
686,63.0,12.0,60.0,6.0,64.0
687,63.0,181.0,90.0,4.0,64.0
688,63.0,10.0,60.0,5.0,64.0
689,62.0,15.0,270.0,6.0,64.0
690,72.0,52.0,180.0,7.0,64.0
691,53.0,36.0,240.0,8.0,64.0
692,62.0,0.0,270.0,4.0,64.0
693,62.0,39.0,300.0,5.0,64.0
694,46.0,51.0,120.0,10.0,64.0
695,62.0,9.0,90.0,7.0,64.0
696,55.0,38.0,90.0,8.0,64.0
697,45.0,56.0,120.0,10.0,64.0
698,60.0,112.0,90.0,7.0,64.0
699,57.0,5.0,90.0,8.0,64.0
700,62.0,30.0,90.0,7.0,64.0
701,70.0,136.0,180.0,4.0,64.0
702,43.0,15.0,90.0,10.0,64.0
703,70.0,22.0,150.0,5.0,64.0
704,70.0,6.0,150.0,6.0,64.0
705,58.0,34.0,120.0,8.0,64.0
706,62.0,2.0,90.0,5.0,64.0
707,62.0,4.0,90.0,4.0,64.0
708,62.0,5.0,90.0,6.0,64.0
709,74.0,12.0,60.0,7.0,64.0
710,46.0,54.0,90.0,10.0,64.0
711,55.0,2.0,90.0,8.0,64.0
712,65.0,2.0,40.0,4.0,64.0
713,65.0,27.0,40.0,5.0,64.0
714,65.0,185.0,60.0,6.0,64.0
715,74.0,85.0,210.0,7.0,64.0
716,63.0,0.0,270.0,4.0,64.0
717,63.0,14.0,270.0,5.0,64.0
718,63.0,61.0,300.0,6.0,64.0
719,48.0,74.0,120.0,10.0,64.0
720,55.0,2.0,330.0,8.0,64.0
721,46.0,53.0,120.0,10.0,64.0
722,63.0,5.0,120.0,7.0,64.0
723,62.0,176.0,60.0,7.0,64.0
724,69.0,1.0,180.0,4.0,64.0
725,63.0,10.0,120.0,7.0,64.0
726,48.0,36.0,120.0,10.0,64.0
727,69.0,123.0,150.0,6.0,64.0
728,69.0,8.0,150.0,5.0,64.0
729,60.0,4.0,90.0,8.0,64.0
730,66.0,2.0,60.0,6.0,64.0
731,66.0,45.0,60.0,5.0,64.0
732,66.0,0.0,60.0,4.0,64.0
733,62.0,14.0,90.0,7.0,64.0
734,50.0,34.0,120.0,10.0,64.0
735,60.0,18.0,90.0,8.0,64.0
736,69.0,7.0,60.0,5.0,64.0
737,69.0,4.0,60.0,4.0,64.0
738,69.0,180.0,60.0,6.0,64.0
739,67.0,2.0,180.0,5.0,64.0
740,67.0,135.0,180.0,6.0,64.0
741,67.0,4.0,180.0,4.0,64.0
742,58.0,16.0,120.0,8.0,64.0
743,51.0,36.0,120.0,10.0,64.0
744,67.0,0.0,120.0,7.0,64.0
745,69.0,36.0,90.0,4.0,64.0
746,50.0,8.0,120.0,10.0,64.0
747,69.0,1.0,90.0,5.0,64.0
748,62.0,54.0,120.0,8.0,64.0
749,69.0,0.0,60.0,6.0,64.0
750,66.0,7.0,120.0,7.0,64.0
751,70.0,11.0,90.0,4.0,64.0
752,70.0,9.0,90.0,6.0,64.0
753,70.0,90.0,90.0,5.0,64.0
754,69.0,5.0,60.0,4.0,64.0
755,69.0,17.0,90.0,6.0,64.0
756,69.0,14.0,60.0,5.0,64.0
757,67.0,12.0,90.0,7.0,64.0
758,60.0,52.0,120.0,8.0,64.0
759,51.0,15.0,90.0,10.0,64.0
760,67.0,2.0,60.0,4.0,64.0
761,67.0,12.0,60.0,5.0,64.0
762,67.0,135.0,60.0,6.0,64.0
763,75.0,0.0,120.0,4.0,64.0
764,48.0,11.0,90.0,10.0,64.0
765,58.0,5.0,90.0,8.0,64.0
766,75.0,9.0,120.0,5.0,64.0
767,67.0,11.0,90.0,7.0,64.0
768,75.0,180.0,120.0,6.0,64.0
769,77.0,17.0,60.0,4.0,64.0
770,67.0,47.0,180.0,7.0,64.0
771,50.0,7.0,180.0,10.0,64.0
772,77.0,1.0,60.0,6.0,64.0
773,57.0,85.0,330.0,8.0,64.0
774,77.0,43.0,60.0,5.0,64.0
775,75.0,42.0,60.0,4.0,64.0
776,75.0,0.0,60.0,6.0,64.0
777,75.0,2.0,150.0,5.0,64.0
778,77.0,9.0,60.0,6.0,64.0
779,77.0,0.0,60.0,4.0,64.0
780,77.0,5.0,40.0,5.0,64.0
781,75.0,2.0,90.0,6.0,64.0
782,75.0,72.0,90.0,4.0,64.0
783,74.0,5.0,120.0,5.0,64.0
784,74.0,6.0,90.0,6.0,64.0
785,74.0,5.0,90.0,4.0,64.0
786,52.0,18.0,60.0,10.0,64.0
787,66.0,9.0,90.0,7.0,64.0
788,54.0,158.0,90.0,10.0,64.0
789,62.0,0.0,150.0,6.0,64.0
790,62.0,4.0,150.0,4.0,64.0
791,62.0,40.0,150.0,5.0,64.0
792,55.0,5.0,120.0,10.0,64.0
793,55.0,22.0,120.0,8.0,64.0
794,62.0,115.0,180.0,0.0,64.0
795,58.0,5.0,90.0,7.0,64.0
796,74.0,4.0,60.0,4.0,64.0
797,53.0,4.0,90.0,10.0,64.0
798,74.0,5.0,60.0,6.0,64.0
799,70.0,3.0,60.0,7.0,64.0
800,74.0,18.0,60.0,5.0,64.0
801,74.0,9.0,60.0,0.0,64.0
802,55.0,59.0,90.0,8.0,64.0
803,70.0,5.0,60.0,4.0,64.0
804,70.0,3.0,60.0,6.0,64.0
805,70.0,202.0,60.0,5.0,64.0
806,70.0,1.0,40.0,0.0,64.0
807,72.0,0.0,270.0,4.0,64.0
808,52.0,61.0,120.0,10.0,64.0
809,72.0,45.0,270.0,6.0,64.0
810,72.0,5.0,270.0,5.0,64.0
811,70.0,70.0,180.0,7.0,64.0
812,55.0,6.0,180.0,8.0,64.0
813,72.0,28.0,330.0,0.0,64.0
814,57.0,67.0,120.0,10.0,64.0
815,69.0,4.0,90.0,7.0,64.0
816,54.0,13.0,60.0,8.0,64.0
817,67.0,16.0,90.0,7.0,64.0
818,57.0,123.0,90.0,8.0,64.0
819,54.0,29.0,120.0,10.0,64.0
820,69.0,19.0,90.0,7.0,64.0
821,62.0,2.0,150.0,5.0,64.0
822,62.0,1.0,150.0,6.0,64.0
823,62.0,13.0,90.0,8.0,64.0
824,62.0,12.0,120.0,4.0,64.0
825,62.0,148.0,150.0,0.0,64.0
826,66.0,7.0,90.0,7.0,64.0
827,72.0,8.0,60.0,5.0,64.0
828,72.0,0.0,60.0,6.0,64.0
829,72.0,24.0,60.0,4.0,64.0
830,50.0,48.0,120.0,10.0,64.0
831,62.0,11.0,90.0,8.0,64.0
832,72.0,1.0,60.0,0.0,64.0
833,69.0,2.0,60.0,6.0,64.0
834,69.0,6.0,60.0,5.0,64.0
835,69.0,0.0,60.0,4.0,64.0
836,74.0,174.0,40.0,0.0,64.0
837,67.0,20.0,120.0,7.0,64.0
838,70.0,18.0,150.0,5.0,64.0
839,70.0,129.0,180.0,4.0,64.0
840,70.0,8.0,150.0,6.0,64.0
841,55.0,9.0,120.0,10.0,64.0
842,62.0,14.0,120.0,8.0,64.0
843,70.0,43.0,300.0,0.0,64.0
844,58.0,4.0,90.0,7.0,64.0
845,67.0,6.0,60.0,6.0,64.0
846,67.0,7.0,60.0,5.0,64.0
847,67.0,0.0,60.0,4.0,64.0
848,51.0,54.0,120.0,10.0,64.0
849,63.0,1.0,120.0,8.0,64.0
850,70.0,1.0,90.0,4.0,64.0
851,70.0,8.0,60.0,6.0,64.0
852,70.0,119.0,90.0,5.0,64.0
853,69.0,2.0,90.0,5.0,64.0
854,60.0,2.0,180.0,7.0,64.0
855,69.0,56.0,90.0,6.0,64.0
856,69.0,4.0,60.0,4.0,64.0
857,48.0,9.0,150.0,10.0,64.0
858,63.0,25.0,120.0,8.0,64.0
859,66.0,0.0,60.0,5.0,64.0
860,66.0,5.0,60.0,4.0,64.0
861,66.0,128.0,60.0,6.0,64.0
862,67.0,84.0,120.0,6.0,64.0
863,67.0,3.0,90.0,4.0,64.0
864,67.0,3.0,90.0,5.0,64.0
865,62.0,16.0,60.0,7.0,64.0
866,46.0,6.0,90.0,10.0,64.0
867,62.0,6.0,60.0,8.0,64.0
868,63.0,16.0,90.0,7.0,64.0
869,45.0,11.0,90.0,10.0,64.0
870,60.0,122.0,90.0,8.0,64.0
871,62.0,17.0,90.0,7.0,64.0
872,74.0,9.0,210.0,4.0,64.0
873,74.0,116.0,210.0,5.0,64.0
874,46.0,57.0,120.0,10.0,64.0
875,74.0,0.0,180.0,6.0,64.0
876,58.0,20.0,120.0,8.0,64.0
877,48.0,3.0,120.0,10.0,64.0
878,67.0,10.0,90.0,7.0,64.0
879,75.0,8.0,90.0,6.0,64.0
880,75.0,16.0,90.0,4.0,64.0
881,75.0,0.0,90.0,5.0,64.0
882,57.0,85.0,120.0,8.0,64.0
883,74.0,7.0,90.0,4.0,64.0
884,74.0,0.0,90.0,6.0,64.0
885,74.0,123.0,90.0,5.0,64.0
886,50.0,2.0,90.0,10.0,64.0
887,72.0,7.0,90.0,4.0,64.0
888,72.0,15.0,90.0,6.0,64.0
889,67.0,60.0,120.0,7.0,64.0
890,72.0,1.0,90.0,5.0,64.0
891,57.0,12.0,120.0,8.0,64.0
892,70.0,97.0,90.0,5.0,64.0
893,70.0,20.0,90.0,6.0,64.0
894,70.0,3.0,90.0,4.0,64.0
895,38.0,6.0,90.0,10.0,64.0
896,69.0,1.0,90.0,6.0,64.0
897,66.0,17.0,90.0,7.0,64.0
898,69.0,0.0,90.0,4.0,64.0
899,69.0,11.0,60.0,5.0,64.0
900,62.0,63.0,90.0,8.0,64.0
901,70.0,5.0,90.0,6.0,64.0
902,70.0,9.0,60.0,5.0,64.0
903,70.0,225.0,60.0,4.0,64.0
904,43.0,92.0,180.0,10.0,64.0
905,67.0,9.0,270.0,5.0,64.0
906,67.0,21.0,270.0,6.0,64.0
907,62.0,6.0,270.0,7.0,64.0
908,67.0,3.0,240.0,4.0,64.0
909,58.0,88.0,300.0,8.0,64.0
910,53.0,31.0,60.0,10.0,64.0
911,50.0,175.0,90.0,10.0,64.0
912,51.0,52.0,660.0,10.0,64.0
913,67.0,9.0,180.0,5.0,64.0
914,63.0,118.0,180.0,7.0,64.0
915,67.0,4.0,180.0,4.0,64.0
916,58.0,70.0,90.0,8.0,64.0
917,67.0,0.0,180.0,6.0,64.0
918,79.0,1.0,90.0,5.0,64.0
919,63.0,67.0,90.0,8.0,64.0
920,79.0,1.0,60.0,6.0,64.0
921,70.0,7.0,60.0,7.0,64.0
922,79.0,17.0,60.0,4.0,64.0
923,75.0,17.0,60.0,5.0,64.0
924,67.0,220.0,60.0,7.0,64.0
925,75.0,0.0,60.0,6.0,64.0
926,75.0,2.0,60.0,4.0,64.0
927,77.0,16.0,270.0,5.0,64.0
928,77.0,4.0,270.0,4.0,64.0
929,60.0,52.0,210.0,8.0,64.0
930,77.0,11.0,300.0,6.0,64.0
931,68.0,14.0,270.0,7.0,64.0
932,50.0,43.0,90.0,10.0,64.0
933,59.0,61.0,90.0,8.0,64.0
934,48.0,39.0,90.0,10.0,64.0
935,60.0,131.0,90.0,8.0,64.0
936,47.0,30.0,120.0,10.0,64.0
937,67.0,13.0,180.0,5.0,64.0
938,62.0,20.0,150.0,7.0,64.0
939,67.0,114.0,180.0,4.0,64.0
940,62.0,16.0,90.0,8.0,64.0
941,67.0,0.0,150.0,6.0,64.0
942,74.0,2.0,60.0,7.0,64.0
943,59.0,77.0,90.0,8.0,64.0
944,77.0,3.0,60.0,5.0,64.0
945,77.0,1.0,60.0,6.0,64.0
946,77.0,29.0,60.0,4.0,64.0
947,43.0,4.0,90.0,10.0,64.0
948,71.0,0.0,60.0,7.0,64.0
949,74.0,13.0,60.0,5.0,64.0
950,74.0,2.0,60.0,4.0,64.0
951,74.0,244.0,60.0,6.0,64.0
952,72.0,0.0,300.0,7.0,64.0
953,75.0,9.0,270.0,5.0,64.0
954,75.0,2.0,300.0,6.0,64.0
955,75.0,47.0,300.0,4.0,64.0
956,55.0,86.0,330.0,8.0,64.0
957,48.0,90.0,180.0,10.0,64.0
958,50.0,2.0,90.0,10.0,64.0
959,51.0,153.0,90.0,10.0,64.0
960,53.0,4.0,90.0,10.0,64.0
961,60.0,11.0,90.0,7.0,64.0
962,53.0,31.0,120.0,8.0,64.0
963,69.0,6.0,180.0,6.0,64.0
964,69.0,5.0,180.0,4.0,64.0
965,69.0,4.0,150.0,5.0,64.0
966,72.0,11.0,120.0,1.0,64.0
967,65.0,119.0,180.0,0.0,64.0
968,41.0,3.0,90.0,3.0,64.0
969,65.0,23.0,120.0,2.0,64.0
970,72.0,4.0,90.0,7.0,64.0
971,45.0,1.0,90.0,10.0,64.0
972,75.0,0.0,60.0,6.0,64.0
973,75.0,20.0,90.0,5.0,64.0
974,75.0,23.0,60.0,4.0,64.0
975,53.0,5.0,120.0,8.0,64.0
976,75.0,6.0,60.0,0.0,64.0
977,72.0,2.0,120.0,1.0,64.0
978,41.0,3.0,90.0,3.0,64.0
979,65.0,31.0,90.0,2.0,64.0
980,72.0,6.0,40.0,4.0,64.0
981,72.0,157.0,60.0,6.0,64.0
982,72.0,7.0,60.0,5.0,64.0
983,72.0,10.0,60.0,0.0,64.0
984,74.0,2.0,180.0,5.0,64.0
985,74.0,16.0,180.0,4.0,64.0
986,46.0,9.0,120.0,10.0,64.0
987,65.0,7.0,120.0,8.0,64.0
988,70.0,40.0,120.0,7.0,64.0
989,74.0,5.0,150.0,6.0,64.0
990,74.0,31.0,180.0,0.0,64.0
991,46.0,5.0,90.0,3.0,64.0
992,70.0,85.0,210.0,1.0,64.0
993,65.0,2.0,180.0,2.0,64.0
994,72.0,6.0,60.0,6.0,64.0
995,43.0,19.0,120.0,10.0,64.0
996,62.0,8.0,90.0,7.0,64.0
997,72.0,5.0,60.0,4.0,64.0
998,72.0,0.0,90.0,5.0,64.0
999,67.0,47.0,120.0,8.0,64.0
1000,72.0,17.0,60.0,0.0,64.0
1001,70.0,3.0,60.0,6.0,64.0
1002,70.0,2.0,60.0,4.0,64.0
1003,70.0,17.0,60.0,5.0,64.0
1004,70.0,106.0,60.0,0.0,64.0
1005,72.0,1.0,60.0,4.0,64.0
1006,72.0,8.0,60.0,6.0,64.0
1007,72.0,9.0,90.0,5.0,64.0
1008,67.0,44.0,120.0,7.0,64.0
1009,39.0,0.0,120.0,10.0,64.0
1010,60.0,4.0,120.0,8.0,64.0
1011,72.0,19.0,60.0,0.0,64.0
1012,46.0,18.0,90.0,3.0,64.0
1013,79.0,74.0,210.0,1.0,64.0
1014,70.0,28.0,180.0,2.0,64.0
1015,69.0,5.0,60.0,6.0,64.0
1016,69.0,3.0,60.0,4.0,64.0
1017,69.0,6.0,60.0,5.0,64.0
1018,74.0,19.0,60.0,0.0,64.0
1019,70.0,48.0,150.0,6.0,64.0
1020,70.0,2.0,120.0,4.0,64.0
1021,70.0,11.0,90.0,5.0,64.0
1022,40.0,2.0,90.0,10.0,64.0
1023,67.0,2.0,90.0,7.0,64.0
1024,72.0,24.0,60.0,0.0,64.0
1025,60.0,21.0,90.0,8.0,64.0
1026,74.0,107.0,60.0,0.0,64.0
1027,70.0,9.0,60.0,6.0,64.0
1028,70.0,2.0,60.0,4.0,64.0
1029,70.0,39.0,60.0,5.0,64.0
1030,65.0,2.0,270.0,7.0,64.0
1031,41.0,48.0,180.0,10.0,64.0
1032,72.0,0.0,150.0,0.0,64.0
1033,60.0,32.0,330.0,8.0,64.0
1034,65.0,48.0,480.0,2.0,64.0
1035,77.0,16.0,450.0,1.0,64.0
1036,69.0,6.0,60.0,6.0,64.0
1037,41.0,27.0,90.0,3.0,64.0
1038,69.0,9.0,60.0,4.0,64.0
1039,69.0,18.0,40.0,5.0,64.0
1040,70.0,17.0,90.0,4.0,64.0
1041,70.0,11.0,60.0,6.0,64.0
1042,70.0,1.0,60.0,5.0,64.0
1043,69.0,24.0,90.0,6.0,64.0
1044,69.0,5.0,90.0,5.0,64.0
1045,69.0,20.0,120.0,4.0,64.0
1046,67.0,7.0,90.0,6.0,64.0
1047,67.0,4.0,60.0,5.0,64.0
1048,67.0,23.0,60.0,4.0,64.0
1049,43.0,43.0,90.0,10.0,64.0
1050,65.0,1.0,150.0,0.0,64.0
1051,65.0,18.0,60.0,6.0,64.0
1052,45.0,1.0,60.0,10.0,64.0
1053,65.0,18.0,60.0,5.0,64.0
1054,65.0,51.0,60.0,4.0,64.0
1055,46.0,15.0,90.0,10.0,64.0
1056,77.0,2.0,150.0,6.0,64.0
1057,65.0,14.0,90.0,7.0,64.0
1058,77.0,12.0,150.0,5.0,64.0
1059,62.0,49.0,90.0,8.0,64.0
1060,77.0,15.0,150.0,4.0,64.0
1061,48.0,124.0,90.0,10.0,64.0
1062,50.0,24.0,450.0,10.0,64.0
1063,65.0,9.0,60.0,6.0,64.0
1064,77.0,22.0,60.0,7.0,64.0
1065,65.0,3.0,60.0,5.0,64.0
1066,58.0,77.0,90.0,8.0,64.0
1067,65.0,0.0,90.0,4.0,64.0
1068,68.0,4.0,60.0,6.0,64.0
1069,68.0,25.0,60.0,5.0,64.0
1070,68.0,223.0,60.0,4.0,64.0
1071,67.0,50.0,300.0,6.0,64.0
1072,67.0,2.0,270.0,5.0,64.0
1073,75.0,75.0,210.0,7.0,64.0
1074,58.0,75.0,330.0,8.0,64.0
1075,67.0,2.0,270.0,4.0,64.0
1076,48.0,11.0,90.0,10.0,64.0
1077,63.0,4.0,90.0,7.0,64.0
1078,62.0,119.0,90.0,7.0,64.0
1079,46.0,2.0,60.0,10.0,64.0
1080,48.0,43.0,90.0,10.0,64.0
1081,63.0,24.0,120.0,7.0,64.0
1082,75.0,15.0,150.0,6.0,64.0
1083,75.0,2.0,150.0,5.0,64.0
1084,75.0,10.0,120.0,4.0,64.0
1085,55.0,27.0,90.0,8.0,64.0
1086,50.0,115.0,90.0,10.0,64.0
1087,51.0,4.0,420.0,10.0,64.0
1088,67.0,18.0,60.0,6.0,64.0
1089,67.0,9.0,60.0,5.0,64.0
1090,67.0,16.0,90.0,4.0,64.0
1091,60.0,13.0,90.0,7.0,64.0
1092,60.0,45.0,90.0,8.0,64.0
1093,70.0,16.0,60.0,6.0,64.0
1094,70.0,212.0,90.0,4.0,64.0
1095,70.0,18.0,60.0,5.0,64.0
1096,69.0,104.0,180.0,6.0,64.0
1097,65.0,13.0,300.0,7.0,64.0
1098,69.0,2.0,180.0,5.0,64.0
1099,69.0,16.0,150.0,4.0,64.0
1100,60.0,10.0,300.0,8.0,64.0
1101,72.0,16.0,60.0,6.0,64.0
1102,48.0,74.0,120.0,10.0,64.0
1103,72.0,8.0,90.0,4.0,64.0
1104,72.0,5.0,60.0,5.0,64.0
1105,69.0,4.0,60.0,6.0,64.0
1106,69.0,11.0,60.0,4.0,64.0
1107,69.0,153.0,60.0,5.0,64.0
1108,65.0,1.0,180.0,6.0,64.0
1109,45.0,1.0,120.0,10.0,64.0
1110,65.0,14.0,120.0,2.0,64.0
1111,65.0,17.0,150.0,4.0,64.0
1112,65.0,4.0,150.0,5.0,64.0
1113,72.0,4.0,90.0,7.0,64.0
1114,60.0,8.0,90.0,8.0,64.0
1115,72.0,6.0,120.0,1.0,64.0
1116,65.0,156.0,120.0,0.0,64.0
1117,41.0,1.0,60.0,3.0,64.0
1118,41.0,5.0,120.0,10.0,64.0
1119,65.0,11.0,120.0,2.0,64.0
1120,75.0,2.0,90.0,6.0,64.0
1121,75.0,9.0,90.0,5.0,64.0
1122,69.0,4.0,90.0,7.0,64.0
1123,75.0,9.0,90.0,4.0,64.0
1124,65.0,18.0,120.0,8.0,64.0
1125,75.0,2.0,60.0,0.0,64.0
1126,72.0,41.0,120.0,1.0,64.0
1127,41.0,3.0,60.0,3.0,64.0
1128,72.0,6.0,60.0,6.0,64.0
1129,72.0,3.0,60.0,5.0,64.0
1130,72.0,132.0,60.0,4.0,64.0
1131,72.0,2.0,60.0,0.0,64.0
1132,46.0,3.0,120.0,10.0,64.0
1133,65.0,22.0,120.0,2.0,64.0
1134,74.0,0.0,90.0,6.0,64.0
1135,65.0,0.0,90.0,8.0,64.0
1136,74.0,11.0,90.0,4.0,64.0
1137,70.0,38.0,150.0,1.0,64.0
1138,70.0,13.0,120.0,7.0,64.0
1139,74.0,3.0,90.0,5.0,64.0
1140,74.0,7.0,60.0,0.0,64.0
1141,46.0,9.0,90.0,3.0,64.0
1142,72.0,2.0,90.0,6.0,64.0
1143,63.0,101.0,90.0,8.0,64.0
1144,72.0,2.0,60.0,5.0,64.0
1145,72.0,0.0,60.0,4.0,64.0
1146,72.0,8.0,60.0,0.0,64.0
1147,70.0,2.0,90.0,6.0,64.0
1148,51.0,5.0,120.0,10.0,64.0
1149,62.0,14.0,90.0,8.0,64.0
1150,70.0,2.0,90.0,5.0,64.0
1151,62.0,15.0,60.0,2.0,64.0
1152,67.0,9.0,90.0,7.0,64.0
1153,70.0,5.0,60.0,0.0,64.0
1154,70.0,0.0,90.0,4.0,64.0
1155,70.0,49.0,90.0,1.0,64.0
1156,72.0,2.0,60.0,6.0,64.0
1157,63.0,11.0,90.0,8.0,64.0
1158,72.0,9.0,60.0,5.0,64.0
1159,72.0,2.0,60.0,0.0,64.0
1160,72.0,16.0,60.0,4.0,64.0
1161,58.0,102.0,90.0,2.0,64.0
1162,53.0,0.0,90.0,10.0,64.0
1163,65.0,4.0,90.0,6.0,64.0
1164,60.0,30.0,120.0,8.0,64.0
1165,65.0,0.0,90.0,7.0,64.0
1166,74.0,12.0,90.0,0.0,64.0
1167,65.0,1.0,90.0,5.0,64.0
1168,65.0,49.0,150.0,2.0,64.0
1169,65.0,24.0,60.0,1.0,64.0
1170,65.0,2.0,90.0,4.0,64.0
1171,41.0,2.0,60.0,3.0,64.0
1172,72.0,8.0,60.0,0.0,64.0
1173,62.0,4.0,60.0,1.0,64.0
1174,74.0,93.0,60.0,0.0,64.0
1175,72.0,3.0,120.0,0.0,64.0
1176,41.0,4.0,90.0,10.0,64.0
1177,65.0,3.0,90.0,1.0,64.0
1178,69.0,5.0,90.0,6.0,64.0
1179,60.0,9.0,90.0,8.0,64.0
1180,65.0,16.0,60.0,2.0,64.0
1181,65.0,9.0,90.0,7.0,64.0
1182,69.0,11.0,90.0,4.0,64.0
1183,41.0,1.0,60.0,3.0,64.0
1184,69.0,50.0,90.0,5.0,64.0
1185,70.0,145.0,60.0,0.0,64.0
1186,65.0,5.0,60.0,2.0,64.0
1187,62.0,11.0,480.0,1.0,64.0
1188,46.0,192.0,60.0,3.0,64.0
1189,46.0,25.0,330.0,10.0,64.0
1190,70.0,7.0,270.0,4.0,64.0
1191,70.0,4.0,240.0,6.0,64.0
1192,65.0,20.0,270.0,7.0,64.0
1193,65.0,90.0,480.0,2.0,64.0
1194,70.0,20.0,270.0,5.0,64.0
1195,62.0,7.0,300.0,8.0,64.0
1196,70.0,137.0,330.0,0.0,64.0
1197,41.0,7.0,120.0,10.0,64.0
1198,60.0,2.0,90.0,7.0,64.0
1199,72.0,13.0,150.0,6.0,64.0
1200,57.0,45.0,120.0,8.0,64.0
1201,72.0,5.0,150.0,5.0,64.0
1202,72.0,128.0,150.0,4.0,64.0
1203,60.0,1.0,60.0,4.0,64.0
1204,45.0,1.0,120.0,10.0,64.0
1205,53.0,57.0,120.0,8.0,64.0
1206,72.0,17.0,90.0,7.0,64.0
1207,60.0,19.0,60.0,6.0,64.0
1208,60.0,8.0,60.0,5.0,64.0
1209,63.0,14.0,60.0,5.0,64.0
1210,63.0,3.0,60.0,4.0,64.0
1211,63.0,178.0,60.0,6.0,64.0
1212,63.0,2.0,150.0,4.0,64.0
1213,46.0,4.0,120.0,10.0,64.0
1214,63.0,2.0,120.0,5.0,64.0
1215,63.0,54.0,150.0,6.0,64.0
1216,72.0,38.0,180.0,7.0,64.0
1217,53.0,22.0,210.0,8.0,64.0
1218,64.0,12.0,40.0,6.0,64.0
1219,62.0,7.0,180.0,6.0,64.0
1220,62.0,23.0,150.0,4.0,64.0
1221,62.0,51.0,180.0,5.0,64.0
1222,45.0,90.0,120.0,10.0,64.0
1223,62.0,9.0,90.0,7.0,64.0
1224,55.0,7.0,90.0,8.0,64.0
1225,60.0,123.0,90.0,7.0,64.0
1226,57.0,3.0,90.0,8.0,64.0
1227,70.0,20.0,150.0,4.0,64.0
1228,70.0,25.0,120.0,5.0,64.0
1229,70.0,146.0,180.0,6.0,64.0
1230,43.0,4.0,120.0,10.0,64.0
1231,62.0,23.0,90.0,7.0,64.0
1232,58.0,7.0,120.0,8.0,64.0
1233,62.0,2.0,90.0,6.0,64.0
1234,62.0,7.0,90.0,4.0,64.0
1235,62.0,9.0,90.0,5.0,64.0
1236,74.0,9.0,90.0,7.0,64.0
1237,55.0,29.0,90.0,8.0,64.0
1238,46.0,21.0,120.0,10.0,64.0
1239,65.0,25.0,40.0,5.0,64.0
1240,65.0,0.0,60.0,4.0,64.0
1241,65.0,177.0,60.0,6.0,64.0
1242,65.0,18.0,120.0,5.0,64.0
1243,65.0,47.0,150.0,6.0,64.0
1244,65.0,2.0,150.0,4.0,64.0
1245,74.0,63.0,180.0,7.0,64.0
1246,48.0,14.0,120.0,10.0,64.0
1247,55.0,6.0,300.0,8.0,64.0
1248,63.0,30.0,210.0,5.0,64.0
1249,63.0,30.0,180.0,6.0,64.0
1250,63.0,29.0,150.0,4.0,64.0
1251,46.0,7.0,120.0,10.0,64.0
1252,63.0,49.0,120.0,7.0,64.0
1253,62.0,176.0,60.0,7.0,64.0
1254,48.0,13.0,120.0,10.0,64.0
1255,63.0,6.0,120.0,7.0,64.0
1256,69.0,4.0,150.0,5.0,64.0
1257,69.0,129.0,180.0,4.0,64.0
1258,69.0,11.0,150.0,6.0,64.0
1259,60.0,35.0,120.0,8.0,64.0
1260,66.0,0.0,90.0,5.0,64.0
1261,66.0,5.0,60.0,4.0,64.0
1262,50.0,38.0,120.0,10.0,64.0
1263,66.0,35.0,60.0,6.0,64.0
1264,62.0,22.0,90.0,7.0,64.0
1265,60.0,1.0,120.0,8.0,64.0
1266,69.0,7.0,60.0,5.0,64.0
1267,69.0,2.0,60.0,6.0,64.0
1268,69.0,178.0,60.0,4.0,64.0
1269,51.0,8.0,120.0,10.0,64.0
1270,67.0,17.0,180.0,6.0,64.0
1271,58.0,3.0,120.0,8.0,64.0
1272,67.0,130.0,180.0,4.0,64.0
1273,67.0,47.0,120.0,7.0,64.0
1274,67.0,1.0,180.0,5.0,64.0
1275,50.0,8.0,120.0,10.0,64.0
1276,69.0,1.0,120.0,6.0,64.0
1277,62.0,4.0,120.0,8.0,64.0
1278,66.0,81.0,120.0,7.0,64.0
1279,69.0,3.0,90.0,5.0,64.0
1280,69.0,20.0,90.0,4.0,64.0
1281,70.0,83.0,90.0,6.0,64.0
1282,70.0,7.0,90.0,5.0,64.0
1283,70.0,3.0,90.0,4.0,64.0
1284,69.0,19.0,60.0,6.0,64.0
1285,69.0,3.0,90.0,5.0,64.0
1286,51.0,2.0,120.0,10.0,64.0
1287,67.0,21.0,90.0,7.0,64.0
1288,69.0,9.0,60.0,4.0,64.0
1289,60.0,69.0,90.0,8.0,64.0
1290,67.0,6.0,90.0,5.0,64.0
1291,67.0,125.0,90.0,6.0,64.0
1292,67.0,3.0,60.0,4.0,64.0
1293,48.0,2.0,90.0,10.0,64.0
1294,75.0,11.0,90.0,6.0,64.0
1295,75.0,8.0,90.0,5.0,64.0
1296,58.0,5.0,90.0,8.0,64.0
1297,67.0,11.0,60.0,7.0,64.0
1298,75.0,192.0,90.0,4.0,64.0
1299,67.0,3.0,210.0,7.0,64.0
1300,77.0,0.0,60.0,6.0,64.0
1301,77.0,51.0,60.0,5.0,64.0
1302,77.0,0.0,60.0,4.0,64.0
1303,50.0,25.0,210.0,10.0,64.0
1304,57.0,81.0,360.0,8.0,64.0
1305,75.0,2.0,60.0,6.0,64.0
1306,75.0,46.0,60.0,5.0,64.0
1307,75.0,0.0,60.0,4.0,64.0
1308,77.0,7.0,60.0,5.0,64.0
1309,77.0,2.0,60.0,6.0,64.0
1310,77.0,33.0,60.0,4.0,64.0
1311,75.0,2.0,90.0,5.0,64.0
1312,75.0,4.0,90.0,6.0,64.0
1313,75.0,79.0,90.0,4.0,64.0
1314,66.0,1.0,120.0,7.0,64.0
1315,74.0,26.0,90.0,6.0,64.0
1316,74.0,9.0,120.0,5.0,64.0
1317,74.0,3.0,120.0,4.0,64.0
1318,52.0,4.0,60.0,10.0,64.0
1319,54.0,126.0,90.0,10.0,64.0
1320,58.0,7.0,90.0,7.0,64.0
1321,55.0,36.0,90.0,8.0,64.0
1322,62.0,1.0,180.0,6.0,64.0
1323,55.0,38.0,120.0,10.0,64.0
1324,62.0,13.0,150.0,5.0,64.0
1325,62.0,3.0,150.0,4.0,64.0
1326,62.0,135.0,150.0,0.0,64.0
1327,53.0,5.0,120.0,10.0,64.0
1328,70.0,4.0,60.0,7.0,64.0
1329,74.0,8.0,90.0,6.0,64.0
1330,74.0,5.0,90.0,5.0,64.0
1331,55.0,50.0,90.0,8.0,64.0
1332,74.0,13.0,90.0,4.0,64.0
1333,74.0,4.0,60.0,0.0,64.0
1334,70.0,9.0,60.0,5.0,64.0
1335,70.0,10.0,60.0,6.0,64.0
1336,70.0,2.0,40.0,4.0,64.0
1337,70.0,174.0,60.0,0.0,64.0
1338,52.0,7.0,120.0,10.0,64.0
1339,70.0,22.0,210.0,7.0,64.0
1340,70.0,2.0,120.0,6.0,64.0
1341,70.0,66.0,120.0,5.0,64.0
1342,70.0,4.0,120.0,4.0,64.0
1343,55.0,95.0,210.0,8.0,64.0
1344,70.0,7.0,120.0,0.0,64.0
1345,72.0,1.0,210.0,6.0,64.0
1346,72.0,0.0,210.0,5.0,64.0
1347,72.0,4.0,210.0,4.0,64.0
1348,72.0,10.0,210.0,0.0,64.0
1349,57.0,45.0,120.0,10.0,64.0
1350,69.0,22.0,90.0,7.0,64.0
1351,54.0,6.0,60.0,8.0,64.0
1352,67.0,45.0,60.0,7.0,64.0
1353,57.0,135.0,90.0,8.0,64.0
1354,62.0,2.0,150.0,6.0,64.0
1355,69.0,11.0,150.0,7.0,64.0
1356,54.0,12.0,120.0,10.0,64.0
1357,62.0,9.0,120.0,4.0,64.0
1358,62.0,15.0,90.0,8.0,64.0
1359,62.0,2.0,120.0,5.0,64.0
1360,62.0,137.0,120.0,0.0,64.0
1361,67.0,1.0,60.0,7.0,64.0
1362,72.0,17.0,60.0,4.0,64.0
1363,72.0,9.0,90.0,6.0,64.0
1364,72.0,16.0,90.0,5.0,64.0
1365,62.0,22.0,90.0,8.0,64.0
1366,50.0,40.0,120.0,10.0,64.0
1367,72.0,3.0,60.0,0.0,64.0
1368,66.0,5.0,60.0,7.0,64.0
1369,69.0,9.0,60.0,4.0,64.0
1370,69.0,2.0,60.0,6.0,64.0
1371,69.0,173.0,60.0,5.0,64.0
1372,74.0,3.0,60.0,0.0,64.0
1373,67.0,2.0,120.0,7.0,64.0
1374,70.0,6.0,180.0,6.0,64.0
1375,62.0,31.0,120.0,8.0,64.0
1376,70.0,3.0,180.0,4.0,64.0
1377,70.0,128.0,180.0,5.0,64.0
1378,55.0,0.0,120.0,10.0,64.0
1379,72.0,30.0,120.0,0.0,64.0
1380,70.0,1.0,210.0,0.0,64.0
1381,58.0,0.0,90.0,7.0,64.0
1382,67.0,2.0,90.0,6.0,64.0
1383,67.0,23.0,90.0,5.0,64.0
1384,67.0,5.0,60.0,4.0,64.0
1385,51.0,7.0,90.0,10.0,64.0
1386,63.0,70.0,90.0,8.0,64.0
1387,70.0,132.0,90.0,6.0,64.0
1388,70.0,1.0,60.0,5.0,64.0
1389,70.0,4.0,60.0,4.0,64.0
1390,60.0,0.0,180.0,7.0,64.0
1391,69.0,72.0,90.0,6.0,64.0
1392,69.0,10.0,90.0,4.0,64.0
1393,69.0,2.0,90.0,5.0,64.0
1394,48.0,2.0,180.0,10.0,64.0
1395,63.0,99.0,180.0,8.0,64.0
1396,66.0,8.0,60.0,6.0,64.0
1397,66.0,10.0,60.0,4.0,64.0
1398,66.0,18.0,60.0,5.0,64.0
1399,67.0,72.0,120.0,6.0,64.0
1400,67.0,2.0,90.0,4.0,64.0
1401,67.0,13.0,90.0,5.0,64.0
1402,62.0,25.0,60.0,7.0,64.0
1403,46.0,2.0,90.0,10.0,64.0
1404,62.0,7.0,90.0,8.0,64.0
1405,63.0,17.0,90.0,7.0,64.0
1406,45.0,124.0,90.0,10.0,64.0
1407,60.0,1.0,90.0,8.0,64.0
1408,74.0,5.0,210.0,6.0,64.0
1409,62.0,31.0,90.0,7.0,64.0
1410,74.0,119.0,210.0,5.0,64.0
1411,58.0,21.0,120.0,8.0,64.0
1412,74.0,4.0,180.0,4.0,64.0
1413,46.0,47.0,120.0,10.0,64.0
1414,67.0,7.0,90.0,7.0,64.0
1415,75.0,0.0,90.0,6.0,64.0
1416,48.0,10.0,120.0,10.0,64.0
1417,75.0,4.0,90.0,5.0,64.0
1418,75.0,18.0,90.0,4.0,64.0
1419,57.0,69.0,120.0,8.0,64.0
1420,74.0,7.0,90.0,6.0,64.0
1421,74.0,4.0,60.0,5.0,64.0
1422,74.0,129.0,60.0,4.0,64.0
1423,72.0,2.0,120.0,6.0,64.0
1424,67.0,7.0,90.0,7.0,64.0
1425,50.0,7.0,90.0,10.0,64.0
1426,57.0,18.0,90.0,8.0,64.0
1427,72.0,2.0,90.0,4.0,64.0
1428,72.0,52.0,120.0,5.0,64.0
1429,70.0,18.0,60.0,6.0,64.0
1430,70.0,108.0,60.0,4.0,64.0
1431,70.0,2.0,60.0,5.0,64.0
1432,69.0,13.0,90.0,6.0,64.0
1433,66.0,5.0,90.0,7.0,64.0
1434,38.0,3.0,90.0,10.0,64.0
1435,69.0,14.0,90.0,5.0,64.0
1436,69.0,1.0,60.0,4.0,64.0
1437,62.0,83.0,90.0,8.0,64.0
1438,70.0,4.0,90.0,6.0,64.0
1439,70.0,200.0,60.0,5.0,64.0
1440,70.0,1.0,60.0,4.0,64.0
1441,62.0,11.0,300.0,7.0,64.0
1442,43.0,123.0,150.0,10.0,64.0
1443,67.0,7.0,270.0,6.0,64.0
1444,67.0,9.0,270.0,5.0,64.0
1445,58.0,63.0,330.0,8.0,64.0
1446,67.0,5.0,270.0,4.0,64.0
1447,53.0,45.0,60.0,10.0,64.0
1448,50.0,171.0,60.0,10.0,64.0
1449,63.0,0.0,180.0,7.0,64.0
1450,51.0,29.0,690.0,10.0,64.0
1451,67.0,7.0,180.0,6.0,64.0
1452,58.0,79.0,90.0,8.0,64.0
1453,67.0,132.0,180.0,5.0,64.0
1454,67.0,2.0,150.0,4.0,64.0
1455,79.0,9.0,60.0,6.0,64.0
1456,79.0,9.0,90.0,5.0,64.0
1457,63.0,81.0,90.0,8.0,64.0
1458,70.0,1.0,60.0,7.0,64.0
1459,79.0,2.0,60.0,4.0,64.0
1460,75.0,2.0,60.0,6.0,64.0
1461,67.0,2.0,60.0,7.0,64.0
1462,75.0,190.0,60.0,4.0,64.0
1463,75.0,2.0,60.0,5.0,64.0
1464,75.0,4.0,120.0,6.0,64.0
1465,60.0,65.0,210.0,8.0,64.0
1466,75.0,4.0,120.0,5.0,64.0
1467,67.0,5.0,120.0,7.0,64.0
1468,75.0,59.0,120.0,4.0,64.0
1469,77.0,15.0,210.0,6.0,64.0
1470,68.0,25.0,180.0,7.0,64.0
1471,77.0,11.0,210.0,4.0,64.0
1472,77.0,3.0,210.0,5.0,64.0
1473,50.0,4.0,60.0,10.0,64.0
1474,59.0,73.0,90.0,8.0,64.0
1475,48.0,35.0,60.0,10.0,64.0
1476,60.0,126.0,90.0,8.0,64.0
1477,67.0,7.0,150.0,5.0,64.0
1478,67.0,111.0,180.0,6.0,64.0
1479,67.0,13.0,150.0,4.0,64.0
1480,62.0,30.0,90.0,8.0,64.0
1481,62.0,9.0,150.0,7.0,64.0
1482,47.0,20.0,120.0,10.0,64.0
1483,77.0,0.0,60.0,5.0,64.0
1484,77.0,8.0,60.0,4.0,64.0
1485,74.0,3.0,60.0,7.0,64.0
1486,77.0,29.0,60.0,6.0,64.0
1487,59.0,47.0,120.0,8.0,64.0
1488,43.0,18.0,90.0,10.0,64.0
1489,74.0,7.0,60.0,5.0,64.0
1490,74.0,5.0,60.0,4.0,64.0
1491,71.0,193.0,60.0,7.0,64.0
1492,74.0,0.0,60.0,6.0,64.0
1493,74.0,7.0,120.0,4.0,64.0
1494,74.0,2.0,120.0,5.0,64.0
1495,48.0,113.0,210.0,10.0,64.0
1496,74.0,74.0,120.0,6.0,64.0
1497,55.0,2.0,360.0,8.0,64.0
1498,71.0,0.0,120.0,7.0,64.0
1499,75.0,9.0,210.0,6.0,64.0
1500,75.0,16.0,210.0,5.0,64.0
1501,75.0,2.0,210.0,4.0,64.0
1502,72.0,83.0,240.0,7.0,64.0
1503,50.0,2.0,60.0,10.0,64.0
1504,51.0,159.0,90.0,10.0,64.0
1505,69.0,7.0,180.0,6.0,64.0
1506,53.0,8.0,120.0,10.0,64.0
1507,69.0,0.0,180.0,5.0,64.0
1508,53.0,2.0,120.0,8.0,64.0
1509,60.0,21.0,120.0,7.0,64.0
1510,65.0,12.0,150.0,0.0,64.0
1511,72.0,11.0,120.0,1.0,64.0
1512,69.0,128.0,180.0,4.0,64.0
1513,41.0,3.0,90.0,3.0,64.0
1514,65.0,12.0,120.0,2.0,64.0
1515,75.0,2.0,90.0,6.0,64.0
1516,45.0,11.0,120.0,10.0,64.0
1517,75.0,6.0,60.0,5.0,64.0
1518,53.0,11.0,120.0,8.0,64.0
1519,72.0,21.0,90.0,7.0,64.0
1520,75.0,2.0,60.0,4.0,64.0
1521,75.0,1.0,60.0,0.0,64.0
1522,72.0,2.0,120.0,1.0,64.0
1523,41.0,6.0,90.0,3.0,64.0
1524,65.0,34.0,90.0,2.0,64.0
1525,72.0,6.0,60.0,6.0,64.0
1526,72.0,1.0,60.0,5.0,64.0
1527,72.0,9.0,60.0,4.0,64.0
1528,72.0,149.0,60.0,0.0,64.0
1529,74.0,6.0,180.0,5.0,64.0
1530,65.0,9.0,120.0,8.0,64.0
1531,70.0,12.0,90.0,7.0,64.0
1532,74.0,3.0,180.0,6.0,64.0
1533,74.0,15.0,180.0,4.0,64.0
1534,46.0,45.0,120.0,10.0,64.0
1535,74.0,33.0,180.0,0.0,64.0
1536,46.0,4.0,90.0,3.0,64.0
1537,70.0,73.0,210.0,1.0,64.0
1538,65.0,2.0,180.0,2.0,64.0
1539,72.0,15.0,60.0,6.0,64.0
1540,67.0,16.0,120.0,8.0,64.0
1541,62.0,7.0,90.0,7.0,64.0
1542,72.0,1.0,90.0,5.0,64.0
1543,43.0,51.0,120.0,10.0,64.0
1544,72.0,22.0,90.0,4.0,64.0
1545,72.0,5.0,60.0,0.0,64.0
1546,70.0,2.0,90.0,6.0,64.0
1547,70.0,0.0,60.0,5.0,64.0
1548,70.0,8.0,60.0,4.0,64.0
1549,70.0,116.0,60.0,0.0,64.0
1550,72.0,8.0,90.0,6.0,64.0
1551,72.0,3.0,60.0,5.0,64.0
1552,60.0,20.0,120.0,8.0,64.0
1553,39.0,43.0,120.0,10.0,64.0
1554,67.0,11.0,90.0,7.0,64.0
1555,72.0,2.0,60.0,4.0,64.0
1556,72.0,12.0,60.0,0.0,64.0
1557,46.0,5.0,90.0,3.0,64.0
1558,70.0,28.0,180.0,2.0,64.0
1559,79.0,66.0,210.0,1.0,64.0
1560,69.0,12.0,60.0,5.0,64.0
1561,69.0,6.0,60.0,6.0,64.0
1562,74.0,0.0,60.0,0.0,64.0
1563,69.0,13.0,60.0,4.0,64.0
1564,70.0,2.0,120.0,6.0,64.0
1565,70.0,60.0,120.0,5.0,64.0
1566,40.0,12.0,90.0,10.0,64.0
1567,72.0,21.0,60.0,0.0,64.0
1568,67.0,4.0,90.0,7.0,64.0
1569,70.0,5.0,90.0,4.0,64.0
1570,60.0,11.0,90.0,8.0,64.0
1571,74.0,86.0,60.0,0.0,64.0
1572,70.0,11.0,60.0,6.0,64.0
1573,41.0,33.0,210.0,10.0,64.0
1574,70.0,36.0,60.0,5.0,64.0
1575,70.0,7.0,60.0,4.0,64.0
1576,72.0,25.0,15.0,6.0,64.0
1577,72.0,7.0,120.0,0.0,64.0
1578,65.0,9.0,300.0,7.0,64.0
1579,60.0,27.0,360.0,8.0,64.0
1580,65.0,62.0,480.0,2.0,64.0
1581,77.0,16.0,450.0,1.0,64.0
1582,41.0,32.0,90.0,3.0,64.0
1583,69.0,15.0,40.0,6.0,64.0
1584,69.0,1.0,60.0,4.0,64.0
1585,69.0,5.0,60.0,5.0,64.0
1586,70.0,10.0,60.0,6.0,64.0
1587,70.0,4.0,60.0,5.0,64.0
1588,70.0,25.0,60.0,4.0,64.0
1589,69.0,13.0,90.0,6.0,64.0
1590,69.0,34.0,90.0,5.0,64.0
1591,69.0,1.0,90.0,4.0,64.0
1592,67.0,15.0,60.0,6.0,64.0
1593,67.0,5.0,60.0,5.0,64.0
1594,67.0,22.0,60.0,4.0,64.0
1595,43.0,34.0,90.0,10.0,64.0
1596,65.0,7.0,120.0,0.0,64.0
1597,65.0,20.0,60.0,6.0,64.0
1598,45.0,9.0,60.0,10.0,64.0
1599,65.0,3.0,60.0,5.0,64.0
1600,65.0,50.0,60.0,4.0,64.0
1601,46.0,6.0,90.0,10.0,64.0
1602,77.0,16.0,150.0,6.0,64.0
1603,65.0,16.0,90.0,7.0,64.0
1604,77.0,0.0,150.0,4.0,64.0
1605,77.0,31.0,150.0,5.0,64.0
1606,62.0,34.0,90.0,8.0,64.0
1607,48.0,128.0,60.0,10.0,64.0
1608,58.0,1.0,90.0,8.0,64.0
1609,77.0,1.0,90.0,7.0,64.0
1610,50.0,14.0,420.0,10.0,64.0
1611,65.0,0.0,60.0,6.0,64.0
1612,65.0,8.0,60.0,4.0,64.0
1613,65.0,92.0,60.0,5.0,64.0
1614,68.0,2.0,60.0,6.0,64.0
1615,68.0,5.0,60.0,4.0,64.0
1616,68.0,170.0,60.0,5.0,64.0
1617,68.0,23.0,120.0,6.0,64.0
1618,75.0,98.0,210.0,7.0,64.0
1619,68.0,2.0,120.0,4.0,64.0
1620,68.0,43.0,120.0,5.0,64.0
1621,58.0,14.0,360.0,8.0,64.0
1622,67.0,9.0,240.0,6.0,64.0
1623,67.0,19.0,180.0,4.0,64.0
1624,67.0,17.0,180.0,5.0,64.0
1625,63.0,42.0,120.0,7.0,64.0
1626,48.0,3.0,90.0,10.0,64.0
1627,62.0,25.0,60.0,7.0,64.0
1628,46.0,128.0,90.0,10.0,64.0
1629,48.0,27.0,90.0,10.0,64.0
1630,63.0,52.0,120.0,7.0,64.0
1631,75.0,11.0,150.0,6.0,64.0
1632,55.0,2.0,90.0,8.0,64.0
1633,75.0,5.0,150.0,4.0,64.0
1634,75.0,22.0,150.0,5.0,64.0
1635,50.0,101.0,90.0,10.0,64.0
1636,60.0,3.0,90.0,7.0,64.0
1637,67.0,18.0,60.0,6.0,64.0
1638,51.0,40.0,420.0,10.0,64.0
1639,67.0,6.0,60.0,4.0,64.0
1640,67.0,79.0,60.0,5.0,64.0
1641,60.0,3.0,60.0,8.0,64.0
1642,70.0,26.0,60.0,6.0,64.0
1643,70.0,167.0,60.0,5.0,64.0
1644,70.0,5.0,60.0,4.0,64.0
1645,70.0,18.0,120.0,6.0,64.0
1646,65.0,6.0,360.0,7.0,64.0
1647,60.0,12.0,330.0,8.0,64.0
1648,70.0,2.0,120.0,4.0,64.0
1649,70.0,20.0,120.0,5.0,64.0
1650,69.0,21.0,90.0,6.0,64.0
1651,69.0,7.0,90.0,4.0,64.0
1652,69.0,87.0,90.0,5.0,64.0
1653,48.0,52.0,120.0,10.0,64.0
1654,72.0,20.0,90.0,6.0,64.0
1655,72.0,9.0,60.0,5.0,64.0
1656,72.0,5.0,90.0,4.0,64.0
1657,69.0,25.0,90.0,6.0,64.0
1658,69.0,9.0,60.0,5.0,64.0
1659,69.0,125.0,90.0,4.0,64.0
1660,65.0,3.0,150.0,6.0,64.0
1661,65.0,3.0,120.0,2.0,64.0
1662,45.0,11.0,120.0,10.0,64.0
1663,72.0,18.0,90.0,7.0,64.0
1664,60.0,2.0,90.0,8.0,64.0
1665,65.0,30.0,150.0,5.0,64.0
1666,65.0,11.0,120.0,4.0,64.0
1667,72.0,9.0,120.0,1.0,64.0
1668,65.0,148.0,150.0,0.0,64.0
1669,41.0,9.0,60.0,3.0,64.0
1670,41.0,4.0,120.0,10.0,64.0
1671,65.0,17.0,120.0,2.0,64.0
1672,69.0,3.0,90.0,7.0,64.0
1673,75.0,2.0,90.0,6.0,64.0
1674,65.0,13.0,120.0,8.0,64.0
1675,72.0,57.0,120.0,1.0,64.0
1676,75.0,0.0,90.0,4.0,64.0
1677,75.0,4.0,90.0,5.0,64.0
1678,41.0,1.0,60.0,3.0,64.0
1679,75.0,2.0,60.0,0.0,64.0
1680,72.0,4.0,60.0,6.0,64.0
1681,72.0,2.0,60.0,4.0,64.0
1682,72.0,7.0,60.0,0.0,64.0
1683,72.0,118.0,60.0,5.0,64.0
1684,46.0,18.0,120.0,10.0,64.0
1685,65.0,22.0,120.0,2.0,64.0
1686,70.0,6.0,90.0,7.0,64.0
1687,74.0,13.0,90.0,6.0,64.0
1688,70.0,44.0,150.0,1.0,64.0
1689,65.0,0.0,90.0,8.0,64.0
1690,74.0,1.0,90.0,4.0,64.0
1691,46.0,1.0,90.0,3.0,64.0
1692,74.0,0.0,90.0,5.0,64.0
1693,74.0,3.0,60.0,0.0,64.0
1694,72.0,3.0,60.0,6.0,64.0
1695,72.0,0.0,60.0,4.0,64.0
1696,63.0,87.0,90.0,8.0,64.0
1697,72.0,5.0,90.0,5.0,64.0
1698,72.0,12.0,60.0,0.0,64.0
1699,70.0,10.0,90.0,6.0,64.0
1700,51.0,7.0,120.0,10.0,64.0
1701,67.0,1.0,90.0,7.0,64.0
1702,62.0,9.0,60.0,2.0,64.0
1703,70.0,13.0,90.0,4.0,64.0
1704,62.0,0.0,90.0,8.0,64.0
1705,70.0,57.0,90.0,1.0,64.0
1706,70.0,6.0,90.0,5.0,64.0
1707,70.0,6.0,90.0,0.0,64.0
1708,63.0,8.0,90.0,8.0,64.0
1709,72.0,13.0,60.0,6.0,64.0
1710,72.0,9.0,60.0,4.0,64.0
1711,58.0,5.0,90.0,2.0,64.0
1712,72.0,2.0,60.0,5.0,64.0
1713,72.0,97.0,60.0,0.0,64.0
1714,65.0,2.0,90.0,7.0,64.0
1715,65.0,13.0,90.0,6.0,64.0
1716,65.0,5.0,90.0,4.0,64.0
1717,65.0,23.0,150.0,2.0,64.0
1718,60.0,11.0,120.0,8.0,64.0
1719,53.0,11.0,90.0,10.0,64.0
1720,65.0,16.0,60.0,1.0,64.0
1721,65.0,2.0,90.0,5.0,64.0
1722,41.0,1.0,60.0,3.0,64.0
1723,74.0,22.0,90.0,0.0,64.0
1724,72.0,26.0,40.0,0.0,64.0
1725,62.0,28.0,60.0,1.0,64.0
1726,74.0,69.0,60.0,0.0,64.0
1727,72.0,7.0,120.0,0.0,64.0
1728,41.0,1.0,90.0,10.0,64.0
1729,65.0,3.0,90.0,1.0,64.0
1730,69.0,11.0,90.0,6.0,64.0
1731,65.0,16.0,60.0,2.0,64.0
1732,65.0,4.0,90.0,7.0,64.0
1733,69.0,0.0,90.0,4.0,64.0
1734,60.0,63.0,90.0,8.0,64.0
1735,69.0,2.0,90.0,5.0,64.0
1736,41.0,4.0,60.0,3.0,64.0
1737,65.0,22.0,60.0,2.0,64.0
1738,70.0,128.0,60.0,0.0,64.0
1739,70.0,7.0,270.0,6.0,64.0
1740,46.0,7.0,270.0,10.0,64.0
1741,70.0,15.0,240.0,4.0,64.0
1742,62.0,11.0,480.0,1.0,64.0
1743,46.0,168.0,60.0,3.0,64.0
1744,65.0,15.0,270.0,7.0,64.0
1745,62.0,166.0,300.0,8.0,64.0
1746,70.0,20.0,240.0,5.0,64.0
1747,65.0,116.0,480.0,2.0,64.0
1748,70.0,14.0,270.0,0.0,64.0
1749,70.0,3.0,120.0,4.0,64.0
1750,70.0,6.0,120.0,6.0,64.0
1751,70.0,7.0,120.0,5.0,64.0
1752,70.0,12.0,180.0,1.0,64.0
1753,70.0,2.0,180.0,2.0,64.0
1754,70.0,10.0,180.0,0.0,64.0
1755,58.0,12.0,120.0,10.0,64.0
1756,70.0,35.0,120.0,8.0,64.0
1757,70.0,4.0,120.0,7.0,64.0
1758,69.0,4.0,120.0,4.0,64.0
1759,69.0,3.0,120.0,6.0,64.0
1760,69.0,2.0,90.0,5.0,64.0
1761,57.0,11.0,90.0,10.0,64.0
1762,69.0,64.0,120.0,7.0,64.0
1763,69.0,15.0,90.0,8.0,64.0
1764,70.0,27.0,90.0,4.0,64.0
1765,70.0,0.0,120.0,6.0,64.0
1766,70.0,11.0,90.0,5.0,64.0
1767,58.0,7.0,120.0,10.0,64.0
1768,70.0,6.0,120.0,0.0,64.0
1769,70.0,191.0,150.0,1.0,64.0
1770,70.0,23.0,120.0,2.0,64.0
1771,70.0,0.0,120.0,8.0,64.0
1772,70.0,2.0,90.0,7.0,64.0
1773,62.0,16.0,120.0,4.0,64.0
1774,62.0,4.0,120.0,6.0,64.0
1775,62.0,8.0,120.0,8.0,64.0
1776,50.0,9.0,90.0,10.0,64.0
1777,62.0,20.0,180.0,2.0,64.0
1778,62.0,8.0,150.0,0.0,64.0
1779,62.0,32.0,120.0,5.0,64.0
1780,62.0,4.0,120.0,7.0,64.0
1781,62.0,7.0,150.0,1.0,64.0
1782,60.0,106.0,120.0,4.0,64.0
1783,60.0,4.0,120.0,6.0,64.0
1784,48.0,4.0,120.0,10.0,64.0
1785,60.0,5.0,90.0,8.0,64.0
1786,60.0,5.0,120.0,5.0,64.0
1787,60.0,2.0,120.0,7.0,64.0
1788,62.0,12.0,120.0,4.0,64.0
1789,62.0,6.0,120.0,6.0,64.0
1790,50.0,9.0,120.0,10.0,64.0
1791,62.0,2.0,120.0,8.0,64.0
1792,62.0,1.0,120.0,5.0,64.0
1793,62.0,2.0,120.0,2.0,64.0
1794,62.0,4.0,120.0,7.0,64.0
1795,62.0,1.0,120.0,1.0,64.0
1796,62.0,215.0,120.0,0.0,64.0
1797,65.0,3.0,120.0,5.0,64.0
1798,65.0,1.0,120.0,4.0,64.0
1799,53.0,1.0,120.0,10.0,64.0
1800,65.0,11.0,120.0,8.0,64.0
1801,65.0,9.0,180.0,0.0,64.0
1802,65.0,7.0,180.0,2.0,64.0
1803,65.0,58.0,120.0,6.0,64.0
1804,65.0,2.0,180.0,1.0,64.0
1805,65.0,0.0,120.0,7.0,64.0
1806,63.0,6.0,120.0,5.0,64.0
1807,51.0,0.0,120.0,10.0,64.0
1808,63.0,1.0,120.0,4.0,64.0
1809,63.0,5.0,120.0,8.0,64.0
1810,63.0,2.0,120.0,6.0,64.0
1811,63.0,103.0,120.0,7.0,64.0
1812,65.0,3.0,90.0,5.0,64.0
1813,65.0,10.0,90.0,4.0,64.0
1814,65.0,3.0,120.0,6.0,64.0
1815,65.0,9.0,120.0,8.0,64.0
1816,53.0,2.0,90.0,10.0,64.0
1817,65.0,1.0,120.0,7.0,64.0
1818,65.0,8.0,90.0,2.0,64.0
1819,65.0,225.0,120.0,1.0,64.0
1820,65.0,1.0,90.0,0.0,64.0
1821,58.0,21.0,270.0,4.0,64.0
1822,58.0,38.0,300.0,5.0,64.0
1823,58.0,2.0,270.0,6.0,64.0
1824,58.0,150.0,120.0,8.0,64.0
1825,58.0,26.0,300.0,7.0,64.0
1826,58.0,1.0,330.0,0.0,64.0
1827,46.0,30.0,360.0,10.0,64.0
1828,58.0,103.0,420.0,1.0,64.0
1829,58.0,45.0,390.0,2.0,64.0
1830,60.0,31.0,120.0,8.0,64.0
1831,65.0,14.0,90.0,5.0,64.0
1832,62.0,18.0,120.0,8.0,64.0
1833,70.0,33.0,90.0,4.0,64.0
1834,70.0,38.0,120.0,6.0,64.0
1835,65.0,3.0,90.0,7.0,64.0
1836,72.0,40.0,90.0,4.0,64.0
1837,72.0,81.0,90.0,6.0,64.0
1838,74.0,30.0,90.0,4.0,64.0
1839,58.0,20.0,90.0,8.0,64.0
1840,70.0,6.0,420.0,5.0,64.0
1841,74.0,68.0,120.0,6.0,64.0
1842,70.0,140.0,390.0,7.0,64.0
1843,70.0,20.0,90.0,4.0,64.0
1844,70.0,117.0,90.0,6.0,64.0
1845,63.0,72.0,120.0,8.0,64.0
1846,72.0,16.0,90.0,4.0,64.0
1847,72.0,6.0,90.0,6.0,64.0
1848,60.0,7.0,90.0,8.0,64.0
1849,72.0,0.0,90.0,6.0,64.0
1850,72.0,12.0,90.0,4.0,64.0
1851,69.0,93.0,90.0,7.0,64.0
1852,69.0,5.0,90.0,5.0,64.0
1853,67.0,100.0,120.0,5.0,64.0
1854,67.0,24.0,90.0,7.0,64.0
1855,65.0,2.0,120.0,8.0,64.0
1856,69.0,11.0,90.0,7.0,64.0
1857,69.0,26.0,120.0,5.0,64.0
1858,72.0,18.0,60.0,4.0,64.0
1859,72.0,54.0,120.0,6.0,64.0
1860,70.0,4.0,90.0,5.0,64.0
1861,70.0,23.0,90.0,7.0,64.0
1862,74.0,0.0,90.0,4.0,64.0
1863,74.0,78.0,90.0,6.0,64.0
1864,53.0,7.0,60.0,8.0,64.0
1865,75.0,5.0,60.0,4.0,64.0
1866,72.0,13.0,90.0,5.0,64.0
1867,72.0,22.0,90.0,7.0,64.0
1868,75.0,63.0,90.0,6.0,64.0
1869,72.0,12.0,60.0,4.0,64.0
1870,69.0,1.0,60.0,5.0,64.0
1871,72.0,134.0,90.0,6.0,64.0
1872,69.0,15.0,60.0,7.0,64.0
1873,58.0,12.0,90.0,8.0,64.0
1874,70.0,2.0,120.0,5.0,64.0
1875,70.0,2.0,90.0,7.0,64.0
1876,74.0,3.0,90.0,4.0,64.0
1877,74.0,195.0,90.0,6.0,64.0
1878,70.0,5.0,90.0,4.0,64.0
1879,62.0,23.0,60.0,8.0,64.0
1880,70.0,0.0,90.0,6.0,64.0
1881,65.0,2.0,90.0,5.0,64.0
1882,65.0,270.0,90.0,7.0,64.0
1883,70.0,6.0,120.0,8.0,64.0
1884,70.0,2.0,210.0,1.0,64.0
1885,70.0,2.0,120.0,7.0,64.0
1886,70.0,5.0,120.0,5.0,64.0
1887,70.0,7.0,120.0,4.0,64.0
1888,70.0,1.0,180.0,2.0,64.0
1889,70.0,19.0,180.0,0.0,64.0
1890,70.0,11.0,120.0,6.0,64.0
1891,58.0,36.0,120.0,10.0,64.0
1892,69.0,7.0,90.0,8.0,64.0
1893,69.0,0.0,120.0,5.0,64.0
1894,69.0,5.0,90.0,4.0,64.0
1895,69.0,2.0,120.0,6.0,64.0
1896,69.0,4.0,90.0,7.0,64.0
1897,57.0,95.0,90.0,10.0,64.0
1898,70.0,0.0,90.0,8.0,64.0
1899,70.0,0.0,90.0,5.0,64.0
1900,70.0,5.0,90.0,4.0,64.0
1901,70.0,3.0,120.0,2.0,64.0
1902,70.0,11.0,90.0,6.0,64.0
1903,70.0,3.0,120.0,1.0,64.0
1904,70.0,214.0,120.0,0.0,64.0
1905,70.0,22.0,90.0,7.0,64.0
1906,58.0,11.0,120.0,10.0,64.0
1907,62.0,6.0,120.0,8.0,64.0
1908,62.0,3.0,180.0,2.0,64.0
1909,62.0,13.0,180.0,0.0,64.0
1910,62.0,1.0,120.0,6.0,64.0
1911,62.0,7.0,120.0,7.0,64.0
1912,62.0,1.0,120.0,5.0,64.0
1913,62.0,4.0,120.0,4.0,64.0
1914,62.0,5.0,180.0,1.0,64.0
1915,50.0,40.0,120.0,10.0,64.0
1916,60.0,15.0,90.0,7.0,64.0
1917,60.0,6.0,120.0,6.0,64.0
1918,60.0,110.0,120.0,5.0,64.0
1919,60.0,6.0,120.0,4.0,64.0
1920,60.0,3.0,90.0,8.0,64.0
1921,48.0,4.0,120.0,10.0,64.0
1922,62.0,3.0,120.0,6.0,64.0
1923,62.0,2.0,120.0,7.0,64.0
1924,62.0,4.0,90.0,8.0,64.0
1925,62.0,23.0,120.0,4.0,64.0
1926,62.0,4.0,120.0,5.0,64.0
1927,62.0,4.0,120.0,0.0,64.0
1928,62.0,211.0,150.0,2.0,64.0
1929,62.0,5.0,120.0,1.0,64.0
1930,50.0,2.0,120.0,10.0,64.0
1931,65.0,12.0,180.0,0.0,64.0
1932,65.0,9.0,180.0,1.0,64.0
1933,65.0,0.0,120.0,8.0,64.0
1934,65.0,7.0,120.0,4.0,64.0
1935,65.0,1.0,120.0,6.0,64.0
1936,65.0,8.0,180.0,2.0,64.0
1937,65.0,2.0,120.0,5.0,64.0
1938,65.0,11.0,120.0,7.0,64.0
1939,53.0,39.0,120.0,10.0,64.0
1940,63.0,4.0,90.0,6.0,64.0
1941,63.0,99.0,120.0,8.0,64.0
1942,63.0,1.0,90.0,4.0,64.0
1943,63.0,1.0,90.0,7.0,64.0
1944,63.0,5.0,90.0,5.0,64.0
1945,51.0,0.0,90.0,10.0,64.0
1946,65.0,11.0,90.0,6.0,64.0
1947,65.0,2.0,90.0,2.0,64.0
1948,65.0,5.0,90.0,8.0,64.0
1949,65.0,6.0,90.0,4.0,64.0
1950,65.0,239.0,120.0,5.0,64.0
1951,65.0,1.0,90.0,0.0,64.0
1952,65.0,2.0,90.0,1.0,64.0
1953,65.0,1.0,90.0,7.0,64.0
1954,53.0,3.0,90.0,10.0,64.0
1955,58.0,23.0,450.0,7.0,64.0
1956,58.0,146.0,90.0,8.0,64.0
1957,58.0,25.0,270.0,4.0,64.0
1958,58.0,24.0,300.0,6.0,64.0
1959,58.0,9.0,360.0,2.0,64.0
1960,58.0,28.0,420.0,5.0,64.0
1961,58.0,86.0,480.0,1.0,64.0
1962,58.0,5.0,300.0,0.0,64.0
1963,46.0,50.0,300.0,10.0,64.0
1964,60.0,15.0,150.0,8.0,64.0
1965,62.0,52.0,150.0,8.0,64.0
1966,60.0,7.0,120.0,8.0,64.0
1967,58.0,61.0,120.0,8.0,64.0
1968,74.0,17.0,150.0,4.0,64.0
1969,74.0,3.0,150.0,6.0,64.0
1970,57.0,61.0,90.0,8.0,64.0
1971,72.0,24.0,120.0,4.0,64.0
1972,72.0,47.0,120.0,6.0,64.0
1973,55.0,59.0,90.0,8.0,64.0
1974,70.0,22.0,150.0,4.0,64.0
1975,70.0,43.0,120.0,6.0,64.0
1976,53.0,36.0,120.0,8.0,64.0
1977,69.0,11.0,120.0,4.0,64.0
1978,69.0,102.0,120.0,6.0,64.0
1979,52.0,37.0,120.0,8.0,64.0
1980,67.0,0.0,120.0,4.0,64.0
1981,67.0,11.0,150.0,7.0,64.0
1982,67.0,6.0,90.0,6.0,64.0
1983,67.0,97.0,150.0,5.0,64.0
1984,65.0,6.0,150.0,7.0,64.0
1985,65.0,75.0,120.0,5.0,64.0
1986,67.0,1.0,120.0,8.0,64.0
1987,64.0,9.0,120.0,7.0,64.0
1988,67.0,4.0,120.0,4.0,64.0
1989,67.0,13.0,90.0,6.0,64.0
1990,64.0,81.0,120.0,5.0,64.0
1991,62.0,18.0,120.0,7.0,64.0
1992,65.0,104.0,120.0,8.0,64.0
1993,62.0,13.0,120.0,5.0,64.0
1994,64.0,4.0,150.0,8.0,64.0
1995,60.0,22.0,120.0,7.0,64.0
1996,60.0,1.0,120.0,5.0,64.0
1997,67.0,29.0,120.0,4.0,64.0
1998,67.0,67.0,150.0,6.0,64.0
1999,62.0,92.0,150.0,8.0,64.0
2000,69.0,18.0,120.0,6.0,64.0
2001,69.0,0.0,90.0,4.0,64.0
2002,60.0,17.0,120.0,8.0,64.0
2003,70.0,5.0,90.0,4.0,64.0
2004,70.0,23.0,90.0,6.0,64.0
2005,60.0,0.0,120.0,7.0,64.0
2006,60.0,64.0,120.0,5.0,64.0
2007,58.0,7.0,120.0,8.0,64.0
2008,67.0,6.0,90.0,4.0,64.0
2009,67.0,115.0,120.0,6.0,64.0
2010,57.0,29.0,120.0,8.0,64.0
2011,72.0,34.0,120.0,4.0,64.0
2012,60.0,58.0,150.0,5.0,64.0
2013,72.0,2.0,90.0,6.0,64.0
2014,60.0,9.0,120.0,7.0,64.0
2015,58.0,9.0,120.0,8.0,64.0
2016,62.0,9.0,120.0,7.0,64.0
2017,62.0,95.0,120.0,5.0,64.0
2018,60.0,56.0,150.0,8.0,64.0
2019,64.0,9.0,90.0,7.0,64.0
2020,60.0,5.0,90.0,4.0,64.0
2021,64.0,18.0,90.0,5.0,64.0
2022,60.0,9.0,120.0,6.0,64.0
2023,58.0,107.0,150.0,8.0,64.0
2024,60.0,43.0,90.0,7.0,64.0
2025,60.0,18.0,90.0,5.0,64.0
2026,57.0,45.0,150.0,8.0,64.0
2027,65.0,30.0,570.0,5.0,64.0
2028,65.0,1.0,120.0,7.0,64.0
2029,72.0,50.0,150.0,4.0,64.0
2030,72.0,2.0,120.0,6.0,64.0
2031,55.0,53.0,120.0,8.0,64.0
2032,70.0,11.0,150.0,4.0,64.0
2033,70.0,57.0,150.0,6.0,64.0
2034,53.0,0.0,120.0,8.0,64.0
2035,53.0,45.0,90.0,7.0,64.0
2036,69.0,54.0,120.0,4.0,64.0
2037,69.0,4.0,120.0,6.0,64.0
2038,52.0,18.0,90.0,8.0,64.0
2039,67.0,23.0,90.0,4.0,64.0
2040,67.0,105.0,120.0,6.0,64.0
2041,50.0,7.0,150.0,8.0,64.0
2042,65.0,9.0,120.0,4.0,64.0
2043,65.0,2.0,120.0,6.0,64.0
2044,65.0,99.0,150.0,7.0,64.0
2045,64.0,99.0,150.0,7.0,64.0
2046,64.0,0.0,120.0,5.0,64.0
2047,62.0,6.0,120.0,5.0,64.0
2048,62.0,9.0,120.0,7.0,64.0
2049,65.0,52.0,120.0,8.0,64.0
2050,65.0,15.0,90.0,4.0,64.0
2051,65.0,1.0,90.0,6.0,64.0
2052,60.0,27.0,90.0,5.0,64.0
2053,60.0,7.0,90.0,7.0,64.0
2054,64.0,121.0,120.0,8.0,64.0
2055,58.0,20.0,120.0,5.0,64.0
2056,62.0,13.0,150.0,8.0,64.0
2057,58.0,19.0,120.0,7.0,64.0
2058,65.0,2.0,150.0,6.0,64.0
2059,65.0,74.0,150.0,4.0,64.0
2060,67.0,7.0,120.0,6.0,64.0
2061,60.0,9.0,120.0,8.0,64.0
2062,67.0,90.0,120.0,4.0,64.0
2063,69.0,10.0,120.0,6.0,64.0
2064,58.0,67.0,120.0,8.0,64.0
2065,69.0,11.0,120.0,4.0,64.0
2066,58.0,0.0,90.0,7.0,64.0
2067,58.0,2.0,90.0,5.0,64.0
2068,65.0,14.0,90.0,6.0,64.0
2069,65.0,18.0,90.0,4.0,64.0
2070,57.0,101.0,120.0,8.0,64.0
2071,70.0,22.0,90.0,6.0,64.0
2072,55.0,25.0,120.0,8.0,64.0
2073,58.0,4.0,150.0,5.0,64.0
2074,70.0,16.0,90.0,4.0,64.0
2075,58.0,48.0,120.0,7.0,64.0
2076,60.0,69.0,120.0,5.0,64.0
2077,57.0,16.0,90.0,8.0,64.0
2078,60.0,16.0,90.0,7.0,64.0
2079,62.0,4.0,90.0,7.0,64.0
2080,58.0,14.0,90.0,6.0,64.0
2081,62.0,69.0,90.0,5.0,64.0
2082,58.0,2.0,90.0,4.0,64.0
2083,58.0,3.0,90.0,8.0,64.0
2084,58.0,12.0,60.0,7.0,64.0
2085,58.0,194.0,60.0,5.0,64.0
2086,55.0,6.0,60.0,8.0,64.0
2087,70.0,6.0,120.0,7.0,64.0
2088,70.0,7.0,240.0,0.0,64.0
2089,70.0,13.0,120.0,8.0,64.0
2090,70.0,1.0,120.0,6.0,64.0
2091,58.0,2.0,120.0,10.0,64.0
2092,70.0,2.0,120.0,4.0,64.0
2093,70.0,52.0,120.0,5.0,64.0
2094,69.0,2.0,90.0,7.0,64.0
2095,69.0,12.0,90.0,8.0,64.0
2096,69.0,11.0,90.0,6.0,64.0
2097,69.0,78.0,120.0,4.0,64.0
2098,69.0,11.0,120.0,5.0,64.0
2099,57.0,5.0,120.0,10.0,64.0
2100,70.0,73.0,120.0,8.0,64.0
2101,70.0,3.0,90.0,6.0,64.0
2102,70.0,4.0,90.0,7.0,64.0
2103,70.0,2.0,90.0,4.0,64.0
2104,58.0,0.0,90.0,10.0,64.0
2105,70.0,7.0,90.0,5.0,64.0
2106,65.0,181.0,60.0,0.0,64.0
2107,64.0,7.0,120.0,6.0,64.0
2108,52.0,0.0,120.0,10.0,64.0
2109,64.0,9.0,120.0,8.0,64.0
2110,70.0,60.0,270.0,0.0,64.0
2111,64.0,3.0,120.0,7.0,64.0
2112,64.0,1.0,120.0,4.0,64.0
2113,64.0,59.0,120.0,5.0,64.0
2114,62.0,7.0,90.0,6.0,64.0
2115,62.0,7.0,120.0,8.0,64.0
2116,50.0,12.0,120.0,10.0,64.0
2117,62.0,6.0,90.0,7.0,64.0
2118,62.0,9.0,120.0,4.0,64.0
2119,62.0,30.0,120.0,5.0,64.0
2120,64.0,15.0,90.0,6.0,64.0
2121,52.0,5.0,120.0,10.0,64.0
2122,64.0,11.0,120.0,8.0,64.0
2123,64.0,4.0,120.0,7.0,64.0
2124,64.0,9.0,90.0,4.0,64.0
2125,64.0,42.0,120.0,5.0,64.0
2126,72.0,141.0,60.0,0.0,64.0
2127,55.0,11.0,120.0,10.0,64.0
2128,67.0,0.0,120.0,8.0,64.0
2129,70.0,47.0,60.0,0.0,64.0
2130,67.0,2.0,120.0,7.0,64.0
2131,67.0,2.0,120.0,6.0,64.0
2132,67.0,44.0,120.0,5.0,64.0
2133,67.0,5.0,120.0,4.0,64.0
2134,53.0,10.0,90.0,10.0,64.0
2135,65.0,0.0,120.0,4.0,64.0
2136,65.0,13.0,90.0,8.0,64.0
2137,65.0,7.0,120.0,6.0,64.0
2138,65.0,4.0,120.0,7.0,64.0
2139,65.0,77.0,120.0,5.0,64.0
2140,72.0,12.0,60.0,0.0,64.0
2141,55.0,2.0,90.0,10.0,64.0
2142,67.0,2.0,90.0,7.0,64.0
2143,67.0,100.0,90.0,8.0,64.0
2144,67.0,9.0,90.0,6.0,64.0
2145,67.0,0.0,90.0,4.0,64.0
2146,67.0,4.0,60.0,5.0,64.0
2147,70.0,7.0,60.0,0.0,64.0
2148,72.0,348.0,60.0,0.0,64.0
2149,67.0,111.0,390.0,8.0,64.0
2150,70.0,4.0,360.0,5.0,64.0
2151,48.0,36.0,2220.0,10.0,64.0
2152,76.0,38.0,300.0,6.0,64.0
2153,76.0,23.0,270.0,4.0,64.0
2154,70.0,110.0,480.0,0.0,64.0
2155,70.0,16.0,360.0,7.0,64.0
2156,60.0,27.0,180.0,8.0,64.0
2157,64.0,5.0,210.0,7.0,64.0
2158,67.0,33.0,120.0,6.0,64.0
2159,64.0,27.0,210.0,5.0,64.0
2160,67.0,23.0,120.0,4.0,64.0
2161,65.0,11.0,120.0,6.0,64.0
2162,65.0,94.0,120.0,4.0,64.0
2163,60.0,17.0,180.0,8.0,64.0
2164,67.0,0.0,120.0,6.0,64.0
2165,67.0,57.0,120.0,4.0,64.0
2166,64.0,4.0,180.0,7.0,64.0
2167,64.0,192.0,180.0,5.0,64.0
2168,70.0,2.0,90.0,6.0,64.0
2169,70.0,1.0,60.0,4.0,64.0
2170,60.0,38.0,180.0,8.0,64.0
2171,65.0,11.0,180.0,7.0,64.0
2172,69.0,4.0,150.0,6.0,64.0
2173,69.0,14.0,150.0,4.0,64.0
2174,65.0,52.0,180.0,5.0,64.0
2175,67.0,6.0,150.0,6.0,64.0
2176,67.0,70.0,150.0,4.0,64.0
2177,60.0,2.0,210.0,8.0,64.0
2178,69.0,81.0,120.0,6.0,64.0
2179,69.0,3.0,90.0,4.0,64.0
2180,65.0,143.0,210.0,5.0,64.0
2181,65.0,6.0,180.0,7.0,64.0
2182,72.0,0.0,60.0,4.0,64.0
2183,72.0,19.0,90.0,6.0,64.0
2184,71.0,18.0,120.0,4.0,64.0
2185,62.0,7.0,180.0,8.0,64.0
2186,65.0,5.0,180.0,7.0,64.0
2187,62.0,33.0,180.0,5.0,64.0
2188,71.0,54.0,120.0,6.0,64.0
2189,69.0,14.0,120.0,4.0,64.0
2190,69.0,108.0,120.0,6.0,64.0
2191,71.0,30.0,120.0,6.0,64.0
2192,71.0,4.0,120.0,4.0,64.0
2193,62.0,7.0,150.0,5.0,64.0
2194,62.0,175.0,150.0,8.0,64.0
2195,65.0,3.0,150.0,7.0,64.0
2196,74.0,3.0,60.0,4.0,64.0
2197,74.0,3.0,60.0,6.0,64.0
2198,79.0,4.0,210.0,6.0,64.0
2199,79.0,47.0,150.0,4.0,64.0
2200,64.0,7.0,120.0,8.0,64.0
2201,64.0,16.0,90.0,5.0,64.0
2202,67.0,38.0,120.0,7.0,64.0
2203,77.0,30.0,120.0,6.0,64.0
2204,65.0,5.0,90.0,8.0,64.0
2205,65.0,4.0,90.0,5.0,64.0
2206,69.0,9.0,120.0,7.0,64.0
2207,77.0,49.0,150.0,4.0,64.0
2208,76.0,10.0,120.0,6.0,64.0
2209,67.0,8.0,120.0,8.0,64.0
2210,67.0,74.0,150.0,5.0,64.0
2211,70.0,2.0,90.0,7.0,64.0
2212,76.0,12.0,120.0,4.0,64.0
2213,74.0,9.0,120.0,6.0,64.0
2214,74.0,110.0,120.0,4.0,64.0
2215,72.0,2.0,120.0,6.0,64.0
2216,72.0,12.0,210.0,1.0,64.0
2217,69.0,13.0,120.0,8.0,64.0
2218,72.0,14.0,90.0,4.0,64.0
2219,69.0,7.0,90.0,7.0,64.0
2220,72.0,6.0,180.0,0.0,64.0
2221,69.0,11.0,120.0,5.0,64.0
2222,72.0,15.0,210.0,2.0,64.0
2223,53.0,57.0,120.0,10.0,64.0
2224,52.0,70.0,120.0,10.0,64.0
2225,77.0,12.0,60.0,6.0,64.0
2226,72.0,1.0,150.0,0.0,64.0
2227,72.0,14.0,150.0,1.0,64.0
2228,53.0,14.0,120.0,10.0,64.0
2229,65.0,23.0,90.0,8.0,64.0
2230,77.0,17.0,60.0,4.0,64.0
2231,72.0,10.0,120.0,7.0,64.0
2232,72.0,4.0,120.0,5.0,64.0
2233,72.0,164.0,150.0,2.0,64.0
2234,45.0,59.0,150.0,10.0,64.0
2235,72.0,18.0,90.0,6.0,64.0
2236,65.0,22.0,120.0,8.0,64.0
2237,69.0,7.0,90.0,7.0,64.0
2238,77.0,3.0,180.0,0.0,64.0
2239,77.0,10.0,180.0,1.0,64.0
2240,72.0,9.0,90.0,4.0,64.0
2241,65.0,11.0,210.0,5.0,64.0
2242,77.0,9.0,180.0,2.0,64.0
2243,43.0,99.0,120.0,10.0,64.0
2244,77.0,6.0,150.0,0.0,64.0
2245,60.0,2.0,120.0,8.0,64.0
2246,45.0,13.0,120.0,10.0,64.0
2247,77.0,12.0,150.0,1.0,64.0
2248,77.0,47.0,150.0,2.0,64.0
2249,77.0,23.0,90.0,6.0,64.0
2250,77.0,5.0,60.0,4.0,64.0
2251,65.0,3.0,120.0,7.0,64.0
2252,65.0,115.0,180.0,5.0,64.0
2253,62.0,0.0,60.0,8.0,64.0
2254,48.0,11.0,120.0,10.0,64.0
2255,72.0,6.0,210.0,1.0,64.0
2256,65.0,2.0,180.0,5.0,64.0
2257,72.0,47.0,210.0,0.0,64.0
2258,72.0,5.0,180.0,2.0,64.0
2259,70.0,33.0,90.0,6.0,64.0
2260,67.0,4.0,60.0,7.0,64.0
2261,70.0,10.0,60.0,4.0,64.0
2262,69.0,4.0,60.0,4.0,64.0
2263,60.0,7.0,60.0,8.0,64.0
2264,69.0,0.0,60.0,6.0,64.0
2265,65.0,43.0,60.0,7.0,64.0
2266,46.0,8.0,90.0,10.0,64.0
2267,62.0,0.0,60.0,8.0,64.0
2268,67.0,9.0,60.0,7.0,64.0
2269,70.0,0.0,60.0,6.0,64.0
2270,70.0,0.0,60.0,4.0,64.0
2271,60.0,4.0,90.0,8.0,64.0
2272,69.0,0.0,90.0,4.0,64.0
2273,65.0,5.0,90.0,7.0,64.0
2274,69.0,53.0,90.0,6.0,64.0
2275,48.0,11.0,120.0,10.0,64.0
2276,58.0,2.0,90.0,8.0,64.0
2277,67.0,5.0,90.0,6.0,64.0
2278,72.0,4.0,120.0,1.0,64.0
2279,72.0,0.0,120.0,0.0,64.0
2280,64.0,49.0,120.0,5.0,64.0
2281,67.0,14.0,90.0,4.0,64.0
2282,64.0,9.0,90.0,7.0,64.0
2283,72.0,12.0,120.0,2.0,64.0
2284,60.0,0.0,90.0,8.0,64.0
2285,69.0,11.0,60.0,6.0,64.0
2286,69.0,18.0,60.0,4.0,64.0
2287,65.0,289.0,90.0,7.0,64.0
2288,41.0,31.0,300.0,10.0,64.0
2289,65.0,2.0,300.0,6.0,64.0
2290,57.0,0.0,300.0,8.0,64.0
2291,65.0,20.0,240.0,5.0,64.0
2292,65.0,3.0,270.0,0.0,64.0
2293,65.0,5.0,330.0,2.0,64.0
2294,65.0,4.0,270.0,4.0,64.0
2295,65.0,275.0,330.0,1.0,64.0
2296,60.0,16.0,270.0,7.0,64.0
2297,70.0,1.0,120.0,6.0,64.0
2298,70.0,3.0,120.0,8.0,64.0
2299,70.0,8.0,120.0,7.0,64.0
2300,58.0,0.0,120.0,10.0,64.0
2301,70.0,15.0,180.0,0.0,64.0
2302,70.0,0.0,120.0,5.0,64.0
2303,70.0,53.0,120.0,4.0,64.0
2304,70.0,11.0,180.0,2.0,64.0
2305,70.0,7.0,180.0,1.0,64.0
2306,69.0,3.0,120.0,6.0,64.0
2307,69.0,2.0,120.0,7.0,64.0
2308,57.0,0.0,120.0,10.0,64.0
2309,69.0,0.0,90.0,8.0,64.0
2310,69.0,0.0,90.0,5.0,64.0
2311,69.0,103.0,120.0,4.0,64.0
2312,70.0,0.0,90.0,7.0,64.0
2313,70.0,4.0,90.0,6.0,64.0
2314,70.0,33.0,120.0,0.0,64.0
2315,70.0,8.0,120.0,5.0,64.0
2316,58.0,7.0,90.0,10.0,64.0
2317,70.0,0.0,90.0,8.0,64.0
2318,70.0,7.0,90.0,4.0,64.0
2319,70.0,4.0,120.0,1.0,64.0
2320,70.0,217.0,120.0,2.0,64.0
2321,62.0,2.0,120.0,8.0,64.0
2322,62.0,1.0,120.0,6.0,64.0
2323,62.0,6.0,180.0,0.0,64.0
2324,62.0,1.0,120.0,5.0,64.0
2325,50.0,8.0,120.0,10.0,64.0
2326,62.0,52.0,120.0,4.0,64.0
2327,62.0,1.0,120.0,7.0,64.0
2328,62.0,14.0,180.0,1.0,64.0
2329,62.0,4.0,180.0,2.0,64.0
2330,60.0,4.0,120.0,6.0,64.0
2331,48.0,2.0,120.0,10.0,64.0
2332,60.0,2.0,90.0,5.0,64.0
2333,60.0,0.0,90.0,8.0,64.0
2334,60.0,5.0,120.0,7.0,64.0
2335,60.0,123.0,120.0,4.0,64.0
2336,62.0,2.0,120.0,5.0,64.0
2337,62.0,4.0,120.0,4.0,64.0
2338,62.0,0.0,120.0,6.0,64.0
2339,62.0,14.0,120.0,8.0,64.0
2340,62.0,2.0,120.0,7.0,64.0
2341,50.0,5.0,120.0,10.0,64.0
2342,62.0,8.0,120.0,0.0,64.0
2343,62.0,4.0,120.0,1.0,64.0
2344,62.0,212.0,120.0,2.0,64.0
2345,65.0,1.0,210.0,0.0,64.0
2346,65.0,2.0,120.0,8.0,64.0
2347,65.0,0.0,120.0,6.0,64.0
2348,65.0,3.0,120.0,7.0,64.0
2349,53.0,65.0,120.0,10.0,64.0
2350,65.0,13.0,120.0,5.0,64.0
2351,65.0,0.0,180.0,1.0,64.0
2352,65.0,0.0,90.0,4.0,64.0
2353,65.0,2.0,180.0,2.0,64.0
2354,63.0,121.0,120.0,8.0,64.0
2355,63.0,4.0,90.0,5.0,64.0
2356,63.0,3.0,90.0,7.0,64.0
2357,63.0,0.0,90.0,6.0,64.0
2358,63.0,0.0,90.0,4.0,64.0
2359,51.0,1.0,90.0,10.0,64.0
2360,65.0,0.0,120.0,4.0,64.0
2361,65.0,1.0,90.0,0.0,64.0
2362,53.0,0.0,90.0,10.0,64.0
2363,65.0,2.0,120.0,8.0,64.0
2364,65.0,11.0,90.0,5.0,64.0
2365,65.0,3.0,90.0,6.0,64.0
2366,65.0,0.0,90.0,1.0,64.0
2367,65.0,4.0,90.0,7.0,64.0
2368,65.0,246.0,120.0,2.0,64.0
2369,58.0,170.0,120.0,8.0,64.0
2370,58.0,7.0,300.0,6.0,64.0
2371,58.0,5.0,330.0,7.0,64.0
2372,58.0,39.0,300.0,5.0,64.0
2373,58.0,3.0,300.0,4.0,64.0
2374,58.0,82.0,480.0,1.0,64.0
2375,58.0,1.0,330.0,0.0,64.0
2376,58.0,80.0,360.0,2.0,64.0
2377,46.0,45.0,420.0,10.0,64.0
2378,60.0,27.0,120.0,8.0,64.0
2379,62.0,22.0,120.0,8.0,64.0
2380,65.0,2.0,90.0,5.0,64.0
2381,65.0,13.0,90.0,7.0,64.0
2382,70.0,1.0,120.0,4.0,64.0
2383,70.0,72.0,120.0,6.0,64.0
2384,72.0,18.0,90.0,4.0,64.0
2385,72.0,115.0,120.0,6.0,64.0
2386,58.0,4.0,120.0,8.0,64.0
2387,74.0,86.0,120.0,6.0,64.0
2388,74.0,4.0,90.0,4.0,64.0
2389,70.0,20.0,390.0,5.0,64.0
2390,70.0,121.0,420.0,7.0,64.0
2391,70.0,14.0,90.0,4.0,64.0
2392,70.0,108.0,90.0,6.0,64.0
2393,63.0,59.0,120.0,8.0,64.0
2394,72.0,26.0,90.0,4.0,64.0
2395,72.0,5.0,90.0,6.0,64.0
2396,60.0,29.0,90.0,8.0,64.0
2397,69.0,54.0,150.0,5.0,64.0
2398,72.0,1.0,90.0,4.0,64.0
2399,72.0,26.0,90.0,6.0,64.0
2400,69.0,19.0,120.0,7.0,64.0
2401,67.0,12.0,90.0,5.0,64.0
2402,67.0,125.0,120.0,7.0,64.0
2403,65.0,8.0,120.0,8.0,64.0
2404,69.0,5.0,120.0,7.0,64.0
2405,69.0,8.0,120.0,5.0,64.0
2406,72.0,72.0,120.0,4.0,64.0
2407,72.0,3.0,90.0,6.0,64.0
2408,74.0,5.0,90.0,6.0,64.0
2409,74.0,94.0,90.0,4.0,64.0
2410,70.0,5.0,90.0,5.0,64.0
2411,70.0,0.0,90.0,7.0,64.0
2412,53.0,14.0,60.0,8.0,64.0
2413,75.0,72.0,120.0,6.0,64.0
2414,75.0,6.0,90.0,4.0,64.0
2415,72.0,7.0,90.0,7.0,64.0
2416,72.0,14.0,90.0,5.0,64.0
2417,72.0,0.0,90.0,4.0,64.0
2418,72.0,131.0,90.0,6.0,64.0
2419,69.0,9.0,60.0,7.0,64.0
2420,69.0,6.0,60.0,5.0,64.0
2421,70.0,2.0,90.0,5.0,64.0
2422,70.0,2.0,90.0,7.0,64.0
2423,74.0,210.0,90.0,4.0,64.0
2424,58.0,5.0,90.0,8.0,64.0
2425,74.0,4.0,90.0,6.0,64.0
2426,65.0,12.0,90.0,7.0,64.0
2427,62.0,11.0,60.0,8.0,64.0
2428,65.0,6.0,90.0,5.0,64.0
2429,70.0,15.0,90.0,4.0,64.0
2430,70.0,257.0,120.0,6.0,64.0
2431,70.0,12.0,150.0,6.0,64.0
2432,70.0,4.0,120.0,7.0,64.0
2433,70.0,2.0,180.0,0.0,64.0
2434,70.0,1.0,120.0,8.0,64.0
2435,70.0,7.0,180.0,1.0,64.0
2436,70.0,9.0,120.0,4.0,64.0
2437,70.0,4.0,180.0,2.0,64.0
2438,70.0,8.0,120.0,5.0,64.0
2439,58.0,41.0,120.0,10.0,64.0
2440,69.0,6.0,90.0,7.0,64.0
2441,69.0,1.0,120.0,8.0,64.0
2442,69.0,4.0,90.0,5.0,64.0
2443,69.0,2.0,120.0,4.0,64.0
2444,69.0,2.0,120.0,6.0,64.0
2445,57.0,100.0,90.0,10.0,64.0
2446,70.0,0.0,90.0,6.0,64.0
2447,70.0,0.0,90.0,5.0,64.0
2448,70.0,17.0,120.0,2.0,64.0
2449,70.0,0.0,150.0,1.0,64.0
2450,70.0,218.0,150.0,0.0,64.0
2451,70.0,6.0,90.0,4.0,64.0
2452,70.0,11.0,90.0,7.0,64.0
2453,70.0,0.0,90.0,8.0,64.0
2454,58.0,18.0,90.0,10.0,64.0
2455,62.0,1.0,180.0,0.0,64.0
2456,62.0,6.0,120.0,4.0,64.0
2457,62.0,46.0,120.0,7.0,64.0
2458,62.0,6.0,180.0,1.0,64.0
2459,62.0,25.0,180.0,2.0,64.0
2460,62.0,3.0,120.0,5.0,64.0
2461,62.0,2.0,120.0,6.0,64.0
2462,62.0,2.0,120.0,8.0,64.0
2463,50.0,5.0,120.0,10.0,64.0
2464,60.0,108.0,120.0,4.0,64.0
2465,60.0,4.0,120.0,6.0,64.0
2466,60.0,3.0,120.0,5.0,64.0
2467,60.0,2.0,120.0,7.0,64.0
2468,60.0,0.0,90.0,8.0,64.0
2469,48.0,5.0,120.0,10.0,64.0
2470,62.0,5.0,120.0,6.0,64.0
2471,62.0,9.0,120.0,4.0,64.0
2472,62.0,205.0,150.0,0.0,64.0
2473,62.0,2.0,90.0,7.0,64.0
2474,62.0,7.0,150.0,1.0,64.0
2475,62.0,0.0,90.0,5.0,64.0
2476,62.0,2.0,120.0,2.0,64.0
2477,50.0,18.0,120.0,10.0,64.0
2478,62.0,2.0,90.0,8.0,64.0
2479,65.0,3.0,180.0,1.0,64.0
2480,65.0,1.0,210.0,0.0,64.0
2481,65.0,1.0,120.0,7.0,64.0
2482,65.0,2.0,90.0,5.0,64.0
2483,65.0,22.0,120.0,8.0,64.0
2484,65.0,12.0,180.0,2.0,64.0
2485,65.0,2.0,120.0,6.0,64.0
2486,53.0,6.0,90.0,10.0,64.0
2487,65.0,45.0,120.0,4.0,64.0
2488,63.0,9.0,120.0,5.0,64.0
2489,63.0,5.0,90.0,7.0,64.0
2490,63.0,11.0,120.0,8.0,64.0
2491,63.0,0.0,120.0,6.0,64.0
2492,51.0,2.0,90.0,10.0,64.0
2493,63.0,83.0,120.0,4.0,64.0
2494,65.0,6.0,120.0,5.0,64.0
2495,65.0,4.0,90.0,1.0,64.0
2496,65.0,5.0,90.0,7.0,64.0
2497,65.0,0.0,120.0,0.0,64.0
2498,65.0,243.0,120.0,6.0,64.0
2499,65.0,1.0,90.0,8.0,64.0
2500,53.0,16.0,60.0,10.0,64.0
2501,65.0,2.0,90.0,2.0,64.0
2502,65.0,2.0,90.0,4.0,64.0
2503,58.0,86.0,120.0,8.0,64.0
2504,58.0,68.0,300.0,6.0,64.0
2505,58.0,63.0,480.0,7.0,64.0
2506,58.0,2.0,270.0,4.0,64.0
2507,58.0,63.0,360.0,1.0,64.0
2508,58.0,12.0,360.0,0.0,64.0
2509,58.0,24.0,420.0,2.0,64.0
2510,58.0,16.0,450.0,5.0,64.0
2511,46.0,9.0,450.0,10.0,64.0
2512,60.0,85.0,90.0,8.0,64.0
2513,62.0,4.0,120.0,8.0,64.0
2514,60.0,0.0,120.0,8.0,64.0
2515,58.0,104.0,90.0,8.0,64.0
2516,74.0,6.0,150.0,6.0,64.0
2517,74.0,37.0,150.0,4.0,64.0
2518,57.0,33.0,120.0,8.0,64.0
2519,72.0,9.0,120.0,4.0,64.0
2520,72.0,63.0,120.0,6.0,64.0
2521,55.0,43.0,90.0,8.0,64.0
2522,70.0,18.0,120.0,4.0,64.0
2523,70.0,58.0,120.0,6.0,64.0
2524,53.0,21.0,120.0,8.0,64.0
2525,69.0,29.0,120.0,4.0,64.0
2526,69.0,83.0,120.0,6.0,64.0
2527,52.0,36.0,120.0,8.0,64.0
2528,67.0,5.0,120.0,6.0,64.0
2529,67.0,16.0,120.0,4.0,64.0
2530,67.0,9.0,150.0,7.0,64.0
2531,67.0,108.0,150.0,5.0,64.0
2532,65.0,67.0,150.0,5.0,64.0
2533,65.0,2.0,150.0,7.0,64.0
2534,67.0,9.0,120.0,8.0,64.0
2535,67.0,2.0,120.0,4.0,64.0
2536,67.0,19.0,120.0,6.0,64.0
2537,64.0,13.0,120.0,5.0,64.0
2538,64.0,59.0,120.0,7.0,64.0
2539,65.0,17.0,120.0,8.0,64.0
2540,62.0,126.0,120.0,7.0,64.0
2541,62.0,12.0,90.0,5.0,64.0
2542,64.0,2.0,150.0,8.0,64.0
2543,60.0,7.0,120.0,7.0,64.0
2544,60.0,13.0,120.0,5.0,64.0
2545,67.0,83.0,120.0,4.0,64.0
2546,67.0,12.0,120.0,6.0,64.0
2547,62.0,6.0,120.0,8.0,64.0
2548,69.0,108.0,120.0,4.0,64.0
2549,69.0,9.0,120.0,6.0,64.0
2550,60.0,9.0,120.0,8.0,64.0
2551,70.0,5.0,120.0,6.0,64.0
2552,70.0,0.0,120.0,4.0,64.0
2553,60.0,4.0,120.0,5.0,64.0
2554,60.0,59.0,120.0,7.0,64.0
2555,58.0,4.0,90.0,8.0,64.0
2556,67.0,3.0,90.0,6.0,64.0
2557,67.0,126.0,90.0,4.0,64.0
2558,57.0,33.0,90.0,8.0,64.0
2559,72.0,19.0,120.0,6.0,64.0
2560,60.0,16.0,120.0,7.0,64.0
2561,72.0,13.0,120.0,4.0,64.0
2562,60.0,43.0,150.0,5.0,64.0
2563,58.0,18.0,120.0,8.0,64.0
2564,62.0,26.0,120.0,7.0,64.0
2565,62.0,81.0,120.0,5.0,64.0
2566,60.0,12.0,120.0,8.0,64.0
2567,60.0,0.0,90.0,6.0,64.0
2568,64.0,9.0,90.0,7.0,64.0
2569,60.0,7.0,90.0,4.0,64.0
2570,64.0,74.0,120.0,5.0,64.0
2571,60.0,34.0,90.0,7.0,64.0
2572,58.0,117.0,120.0,8.0,64.0
2573,60.0,11.0,90.0,5.0,64.0
2574,57.0,13.0,120.0,8.0,64.0
2575,65.0,27.0,120.0,7.0,64.0
2576,65.0,20.0,570.0,5.0,64.0
2577,72.0,12.0,120.0,6.0,64.0
2578,72.0,18.0,150.0,4.0,64.0
2579,55.0,78.0,60.0,8.0,64.0
2580,70.0,20.0,150.0,6.0,64.0
2581,70.0,28.0,150.0,4.0,64.0
2582,53.0,42.0,90.0,8.0,64.0
2583,69.0,17.0,120.0,6.0,64.0
2584,53.0,12.0,90.0,7.0,64.0
2585,69.0,46.0,120.0,4.0,64.0
2586,52.0,26.0,90.0,8.0,64.0
2587,67.0,28.0,90.0,6.0,64.0
2588,67.0,108.0,120.0,4.0,64.0
2589,50.0,9.0,150.0,8.0,64.0
2590,65.0,6.0,120.0,6.0,64.0
2591,65.0,9.0,120.0,4.0,64.0
2592,65.0,72.0,120.0,7.0,64.0
2593,64.0,54.0,120.0,5.0,64.0
2594,64.0,54.0,150.0,7.0,64.0
2595,62.0,30.0,120.0,5.0,64.0
2596,65.0,2.0,120.0,6.0,64.0
2597,65.0,20.0,120.0,8.0,64.0
2598,62.0,0.0,120.0,7.0,64.0
2599,65.0,34.0,120.0,4.0,64.0
2600,60.0,23.0,90.0,5.0,64.0
2601,64.0,11.0,90.0,8.0,64.0
2602,60.0,130.0,90.0,7.0,64.0
2603,62.0,1.0,150.0,8.0,64.0
2604,65.0,5.0,120.0,6.0,64.0
2605,58.0,21.0,120.0,5.0,64.0
2606,58.0,32.0,120.0,7.0,64.0
2607,65.0,52.0,120.0,4.0,64.0
2608,67.0,27.0,150.0,6.0,64.0
2609,60.0,20.0,120.0,8.0,64.0
2610,67.0,42.0,120.0,4.0,64.0
2611,58.0,31.0,90.0,8.0,64.0
2612,69.0,14.0,120.0,6.0,64.0
2613,58.0,10.0,90.0,7.0,64.0
2614,69.0,61.0,120.0,4.0,64.0
2615,58.0,17.0,90.0,5.0,64.0
2616,65.0,2.0,90.0,6.0,64.0
2617,57.0,32.0,90.0,8.0,64.0
2618,65.0,98.0,90.0,4.0,64.0
2619,70.0,26.0,120.0,6.0,64.0
2620,55.0,2.0,120.0,8.0,64.0
2621,70.0,31.0,120.0,4.0,64.0
2622,58.0,30.0,150.0,5.0,64.0
2623,58.0,20.0,120.0,7.0,64.0
2624,57.0,31.0,90.0,8.0,64.0
2625,60.0,23.0,120.0,7.0,64.0
2626,60.0,56.0,120.0,5.0,64.0
2627,58.0,4.0,90.0,6.0,64.0
2628,58.0,16.0,60.0,8.0,64.0
2629,62.0,10.0,90.0,7.0,64.0
2630,58.0,15.0,90.0,4.0,64.0
2631,62.0,47.0,90.0,5.0,64.0
2632,55.0,10.0,60.0,8.0,64.0
2633,58.0,11.0,60.0,7.0,64.0
2634,58.0,175.0,60.0,5.0,64.0
2635,70.0,20.0,120.0,8.0,64.0
2636,58.0,5.0,120.0,10.0,64.0
2637,70.0,5.0,120.0,6.0,64.0
2638,70.0,4.0,210.0,0.0,64.0
2639,70.0,2.0,120.0,7.0,64.0
2640,70.0,43.0,120.0,5.0,64.0
2641,70.0,4.0,120.0,4.0,64.0
2642,69.0,11.0,90.0,8.0,64.0
2643,57.0,25.0,90.0,10.0,64.0
2644,69.0,0.0,120.0,6.0,64.0
2645,69.0,1.0,120.0,7.0,64.0
2646,69.0,11.0,90.0,5.0,64.0
2647,69.0,87.0,120.0,4.0,64.0
2648,70.0,2.0,120.0,8.0,64.0
2649,58.0,4.0,90.0,10.0,64.0
2650,70.0,0.0,90.0,6.0,64.0
2651,70.0,0.0,90.0,5.0,64.0
2652,70.0,3.0,90.0,4.0,64.0
2653,70.0,85.0,90.0,7.0,64.0
2654,65.0,172.0,60.0,0.0,64.0
2655,52.0,24.0,120.0,10.0,64.0
2656,64.0,1.0,120.0,8.0,64.0
2657,64.0,2.0,120.0,6.0,64.0
2658,70.0,75.0,270.0,0.0,64.0
2659,64.0,3.0,120.0,4.0,64.0
2660,64.0,4.0,120.0,7.0,64.0
2661,64.0,54.0,120.0,5.0,64.0
2662,50.0,7.0,90.0,10.0,64.0
2663,62.0,24.0,90.0,8.0,64.0
2664,62.0,7.0,120.0,7.0,64.0
2665,62.0,23.0,150.0,6.0,64.0
2666,62.0,12.0,120.0,4.0,64.0
2667,62.0,2.0,120.0,5.0,64.0
2668,52.0,12.0,120.0,10.0,64.0
2669,64.0,1.0,120.0,8.0,64.0
2670,64.0,11.0,120.0,6.0,64.0
2671,64.0,4.0,120.0,7.0,64.0
2672,64.0,56.0,120.0,5.0,64.0
2673,64.0,0.0,90.0,4.0,64.0
2674,72.0,117.0,60.0,0.0,64.0
2675,55.0,12.0,120.0,10.0,64.0
2676,67.0,0.0,120.0,8.0,64.0
2677,70.0,58.0,60.0,0.0,64.0
2678,67.0,0.0,120.0,7.0,64.0
2679,67.0,4.0,120.0,6.0,64.0
2680,67.0,5.0,120.0,5.0,64.0
2681,67.0,34.0,120.0,4.0,64.0
2682,65.0,67.0,120.0,7.0,64.0
2683,65.0,11.0,90.0,8.0,64.0
2684,53.0,14.0,90.0,10.0,64.0
2685,65.0,11.0,120.0,5.0,64.0
2686,65.0,6.0,120.0,6.0,64.0
2687,65.0,0.0,120.0,4.0,64.0
2688,72.0,13.0,60.0,0.0,64.0
2689,55.0,7.0,90.0,10.0,64.0
2690,67.0,4.0,90.0,7.0,64.0
2691,67.0,7.0,90.0,8.0,64.0
2692,70.0,14.0,60.0,0.0,64.0
2693,67.0,60.0,120.0,5.0,64.0
2694,67.0,0.0,90.0,6.0,64.0
2695,67.0,16.0,90.0,4.0,64.0
2696,72.0,123.0,60.0,0.0,64.0
2697,72.0,48.0,60.0,0.0,64.0
2698,67.0,0.0,360.0,8.0,64.0
2699,70.0,122.0,360.0,5.0,64.0
2700,76.0,34.0,330.0,6.0,64.0
2701,48.0,50.0,2190.0,10.0,64.0
2702,76.0,43.0,270.0,4.0,64.0
2703,70.0,4.0,330.0,7.0,64.0
2704,70.0,56.0,60.0,0.0,64.0
2705,72.0,125.0,60.0,0.0,64.0
2706,70.0,117.0,330.0,0.0,64.0
2707,60.0,20.0,180.0,8.0,64.0
2708,67.0,22.0,120.0,6.0,64.0
2709,64.0,2.0,180.0,5.0,64.0
2710,64.0,29.0,180.0,7.0,64.0
2711,67.0,34.0,120.0,4.0,64.0
2712,65.0,9.0,120.0,6.0,64.0
2713,65.0,91.0,120.0,4.0,64.0
2714,67.0,20.0,120.0,6.0,64.0
2715,60.0,39.0,150.0,8.0,64.0
2716,64.0,5.0,150.0,5.0,64.0
2717,67.0,15.0,90.0,4.0,64.0
2718,64.0,5.0,120.0,7.0,64.0
2719,70.0,6.0,60.0,6.0,64.0
2720,70.0,189.0,60.0,4.0,64.0
2721,60.0,41.0,150.0,8.0,64.0
2722,69.0,4.0,150.0,6.0,64.0
2723,65.0,43.0,210.0,7.0,64.0
2724,65.0,8.0,180.0,5.0,64.0
2725,69.0,18.0,120.0,4.0,64.0
2726,67.0,7.0,150.0,6.0,64.0
2727,67.0,77.0,150.0,4.0,64.0
2728,69.0,40.0,120.0,6.0,64.0
2729,60.0,36.0,150.0,8.0,64.0
2730,69.0,0.0,90.0,4.0,64.0
2731,65.0,4.0,180.0,5.0,64.0
2732,65.0,16.0,180.0,7.0,64.0
2733,72.0,3.0,90.0,6.0,64.0
2734,72.0,155.0,90.0,4.0,64.0
2735,62.0,5.0,150.0,8.0,64.0
2736,71.0,12.0,120.0,4.0,64.0
2737,71.0,37.0,120.0,6.0,64.0
2738,62.0,29.0,210.0,5.0,64.0
2739,65.0,29.0,150.0,7.0,64.0
2740,69.0,110.0,120.0,6.0,64.0
2741,69.0,12.0,120.0,4.0,64.0
2742,71.0,32.0,120.0,4.0,64.0
2743,71.0,2.0,120.0,6.0,64.0
2744,65.0,3.0,150.0,7.0,64.0
2745,62.0,4.0,150.0,5.0,64.0
2746,62.0,2.0,120.0,8.0,64.0
2747,74.0,169.0,60.0,4.0,64.0
2748,74.0,8.0,60.0,6.0,64.0
2749,79.0,25.0,180.0,4.0,64.0
2750,79.0,18.0,150.0,6.0,64.0
2751,64.0,8.0,120.0,8.0,64.0
2752,64.0,30.0,90.0,5.0,64.0
2753,67.0,30.0,120.0,7.0,64.0
2754,65.0,42.0,120.0,5.0,64.0
2755,65.0,8.0,90.0,8.0,64.0
2756,69.0,13.0,90.0,7.0,64.0
2757,77.0,26.0,150.0,4.0,64.0
2758,77.0,4.0,150.0,6.0,64.0
2759,67.0,4.0,150.0,5.0,64.0
2760,76.0,0.0,120.0,6.0,64.0
2761,67.0,8.0,120.0,8.0,64.0
2762,70.0,21.0,90.0,7.0,64.0
2763,76.0,60.0,120.0,4.0,64.0
2764,74.0,24.0,90.0,6.0,64.0
2765,74.0,112.0,120.0,4.0,64.0
2766,72.0,16.0,120.0,6.0,64.0
2767,69.0,27.0,120.0,5.0,64.0
2768,72.0,3.0,90.0,4.0,64.0
2769,69.0,0.0,120.0,7.0,64.0
2770,69.0,4.0,90.0,8.0,64.0
2771,72.0,1.0,210.0,1.0,64.0
2772,72.0,15.0,210.0,2.0,64.0
2773,72.0,0.0,180.0,0.0,64.0
2774,53.0,72.0,120.0,10.0,64.0
2775,52.0,88.0,120.0,10.0,64.0
2776,72.0,7.0,120.0,5.0,64.0
2777,77.0,2.0,90.0,6.0,64.0
2778,72.0,12.0,120.0,7.0,64.0
2779,65.0,7.0,90.0,8.0,64.0
2780,72.0,35.0,150.0,0.0,64.0
2781,53.0,7.0,120.0,10.0,64.0
2782,77.0,29.0,90.0,4.0,64.0
2783,72.0,146.0,180.0,2.0,64.0
2784,72.0,9.0,180.0,1.0,64.0
2785,69.0,0.0,90.0,7.0,64.0
2786,65.0,21.0,120.0,8.0,64.0
2787,72.0,24.0,90.0,6.0,64.0
2788,45.0,45.0,150.0,10.0,64.0
2789,65.0,3.0,180.0,5.0,64.0
2790,77.0,6.0,180.0,0.0,64.0
2791,72.0,5.0,90.0,4.0,64.0
2792,77.0,27.0,180.0,1.0,64.0
2793,77.0,0.0,180.0,2.0,64.0
2794,43.0,99.0,120.0,10.0,64.0
2795,65.0,130.0,180.0,5.0,64.0
2796,60.0,31.0,90.0,8.0,64.0
2797,77.0,16.0,150.0,0.0,64.0
2798,65.0,5.0,120.0,7.0,64.0
2799,45.0,21.0,150.0,10.0,64.0
2800,77.0,9.0,60.0,6.0,64.0
2801,77.0,0.0,150.0,1.0,64.0
2802,77.0,2.0,120.0,2.0,64.0
2803,77.0,9.0,60.0,4.0,64.0
2804,65.0,2.0,210.0,5.0,64.0
2805,62.0,16.0,120.0,8.0,64.0
2806,72.0,0.0,210.0,0.0,64.0
2807,67.0,18.0,60.0,7.0,64.0
2808,72.0,0.0,210.0,2.0,64.0
2809,72.0,8.0,210.0,1.0,64.0
2810,48.0,9.0,120.0,10.0,64.0
2811,70.0,4.0,60.0,6.0,64.0
2812,70.0,18.0,60.0,4.0,64.0
2813,65.0,18.0,60.0,7.0,64.0
2814,69.0,21.0,90.0,6.0,64.0
2815,69.0,0.0,60.0,4.0,64.0
2816,60.0,4.0,60.0,8.0,64.0
2817,67.0,18.0,60.0,7.0,64.0
2818,46.0,25.0,90.0,10.0,64.0
2819,70.0,4.0,60.0,6.0,64.0
2820,70.0,9.0,60.0,4.0,64.0
2821,62.0,5.0,60.0,8.0,64.0
2822,65.0,5.0,90.0,7.0,64.0
2823,69.0,12.0,90.0,4.0,64.0
2824,60.0,2.0,60.0,8.0,64.0
2825,69.0,53.0,60.0,6.0,64.0
2826,64.0,1.0,90.0,7.0,64.0
2827,67.0,15.0,90.0,4.0,64.0
2828,64.0,42.0,120.0,5.0,64.0
2829,67.0,2.0,90.0,6.0,64.0
2830,48.0,9.0,90.0,10.0,64.0
2831,58.0,6.0,90.0,8.0,64.0
2832,72.0,12.0,90.0,0.0,64.0
2833,72.0,3.0,120.0,2.0,64.0
2834,72.0,7.0,120.0,1.0,64.0
2835,60.0,317.0,90.0,8.0,64.0
2836,69.0,12.0,60.0,4.0,64.0
2837,65.0,0.0,90.0,7.0,64.0
2838,69.0,4.0,60.0,6.0,64.0
2839,57.0,25.0,300.0,8.0,64.0
2840,65.0,7.0,270.0,6.0,64.0
2841,60.0,2.0,300.0,7.0,64.0
2842,65.0,0.0,270.0,4.0,64.0
2843,65.0,13.0,240.0,5.0,64.0
2844,41.0,31.0,300.0,10.0,64.0
2845,65.0,22.0,330.0,2.0,64.0
2846,65.0,5.0,330.0,1.0,64.0
2847,65.0,256.0,360.0,0.0,64.0
2848,65.0,2.0,120.0,7.0,64.0
2849,53.0,7.0,120.0,10.0,64.0
2850,65.0,4.0,120.0,6.0,64.0
2851,65.0,82.0,120.0,8.0,64.0
2852,72.0,18.0,270.0,0.0,64.0
2853,52.0,4.0,120.0,10.0,64.0
2854,64.0,50.0,150.0,6.0,64.0
2855,64.0,10.0,120.0,7.0,64.0
2856,64.0,17.0,120.0,8.0,64.0
2857,65.0,16.0,90.0,6.0,64.0
2858,65.0,2.0,90.0,7.0,64.0
2859,53.0,8.0,90.0,10.0,64.0
2860,65.0,102.0,90.0,8.0,64.0
2861,77.0,162.0,60.0,0.0,64.0
2862,57.0,13.0,120.0,6.0,64.0
2863,57.0,0.0,120.0,8.0,64.0
2864,57.0,2.0,120.0,7.0,64.0
2865,45.0,70.0,120.0,10.0,64.0
2866,72.0,17.0,270.0,0.0,64.0
2867,55.0,0.0,120.0,6.0,64.0
2868,55.0,4.0,120.0,7.0,64.0
2869,43.0,86.0,120.0,10.0,64.0
2870,55.0,12.0,90.0,8.0,64.0
2871,57.0,16.0,120.0,6.0,64.0
2872,45.0,85.0,120.0,10.0,64.0
2873,57.0,9.0,120.0,7.0,64.0
2874,57.0,5.0,120.0,8.0,64.0
2875,74.0,120.0,60.0,0.0,64.0
2876,60.0,18.0,120.0,6.0,64.0
2877,60.0,8.0,120.0,7.0,64.0
2878,48.0,1.0,120.0,10.0,64.0
2879,60.0,56.0,120.0,8.0,64.0
2880,72.0,9.0,60.0,0.0,64.0
2881,58.0,13.0,90.0,6.0,64.0
2882,58.0,8.0,120.0,7.0,64.0
2883,46.0,79.0,120.0,10.0,64.0
2884,58.0,3.0,90.0,8.0,64.0
2885,74.0,9.0,60.0,0.0,64.0
2886,60.0,29.0,90.0,6.0,64.0
2887,60.0,2.0,90.0,7.0,64.0
2888,48.0,1.0,90.0,10.0,64.0
2889,60.0,105.0,90.0,8.0,64.0
2890,72.0,0.0,60.0,0.0,64.0
2891,74.0,127.0,60.0,0.0,64.0
2892,53.0,56.0,300.0,7.0,64.0
2893,53.0,117.0,360.0,6.0,64.0
2894,53.0,7.0,270.0,8.0,64.0
2895,41.0,99.0,450.0,10.0,64.0
2896,74.0,49.0,60.0,0.0,64.0
2897,72.0,45.0,40.0,0.0,64.0
2898,74.0,36.0,40.0,0.0,64.0
2899,72.0,52.0,30.0,0.0,64.0
2900,74.0,6.0,60.0,0.0,64.0
2901,72.0,10.0,300.0,0.0,64.0
2902,75.0,18.0,90.0,6.0,64.0
2903,75.0,13.0,120.0,4.0,64.0
2904,72.0,9.0,60.0,7.0,64.0
2905,72.0,20.0,120.0,5.0,64.0
2906,66.0,92.0,120.0,8.0,64.0
2907,64.0,99.0,120.0,8.0,64.0
2908,74.0,14.0,390.0,6.0,64.0
2909,70.0,0.0,390.0,7.0,64.0
2910,66.0,288.0,90.0,8.0,64.0
2911,74.0,7.0,360.0,4.0,64.0
2912,70.0,87.0,390.0,5.0,64.0
2913,67.0,0.0,120.0,8.0,64.0
2914,66.0,84.0,120.0,8.0,64.0
2915,72.0,10.0,420.0,6.0,64.0
2916,67.0,283.0,90.0,8.0,64.0
2917,69.0,2.0,390.0,5.0,64.0
2918,72.0,2.0,390.0,4.0,64.0
2919,69.0,37.0,390.0,7.0,64.0
2920,60.0,29.0,120.0,8.0,64.0
2921,58.0,120.0,120.0,8.0,64.0
2922,60.0,66.0,90.0,8.0,64.0
2923,70.0,90.0,210.0,6.0,64.0
2924,67.0,3.0,180.0,7.0,64.0
2925,67.0,1.0,180.0,5.0,64.0
2926,70.0,29.0,150.0,4.0,64.0
2927,72.0,19.0,60.0,6.0,64.0
2928,62.0,29.0,90.0,8.0,64.0
2929,69.0,9.0,60.0,7.0,64.0
2930,72.0,6.0,60.0,4.0,64.0
2931,69.0,11.0,60.0,5.0,64.0
2932,70.0,5.0,60.0,6.0,64.0
2933,67.0,2.0,60.0,7.0,64.0
2934,67.0,15.0,60.0,5.0,64.0
2935,70.0,1.0,60.0,4.0,64.0
2936,72.0,39.0,60.0,6.0,64.0
2937,69.0,15.0,90.0,7.0,64.0
2938,69.0,30.0,90.0,5.0,64.0
2939,72.0,0.0,60.0,4.0,64.0
2940,70.0,22.0,90.0,6.0,64.0
2941,67.0,2.0,90.0,7.0,64.0
2942,70.0,3.0,90.0,4.0,64.0
2943,67.0,76.0,60.0,5.0,64.0
2944,69.0,13.0,120.0,6.0,64.0
2945,66.0,0.0,120.0,7.0,64.0
2946,50.0,11.0,90.0,8.0,64.0
2947,66.0,245.0,120.0,5.0,64.0
2948,69.0,3.0,120.0,4.0,64.0
2949,70.0,7.0,120.0,6.0,64.0
2950,67.0,7.0,870.0,7.0,64.0
2951,62.0,0.0,1770.0,8.0,64.0
2952,70.0,5.0,120.0,4.0,64.0
2953,67.0,113.0,900.0,5.0,64.0
2954,55.0,81.0,120.0,10.0,64.0
2955,74.0,5.0,270.0,0.0,64.0
2956,69.0,4.0,120.0,6.0,64.0
2957,54.0,13.0,120.0,10.0,64.0
2958,69.0,63.0,120.0,4.0,64.0
2959,70.0,22.0,120.0,6.0,64.0
2960,70.0,7.0,120.0,4.0,64.0
2961,55.0,56.0,90.0,10.0,64.0
2962,74.0,2.0,60.0,6.0,64.0
2963,74.0,37.0,60.0,4.0,64.0
2964,79.0,142.0,60.0,0.0,64.0
2965,74.0,16.0,120.0,6.0,64.0
2966,74.0,2.0,120.0,4.0,64.0
2967,46.0,105.0,120.0,10.0,64.0
2968,74.0,20.0,240.0,0.0,64.0
2969,72.0,46.0,150.0,6.0,64.0
2970,45.0,15.0,150.0,10.0,64.0
2971,72.0,5.0,120.0,4.0,64.0
2972,46.0,63.0,120.0,10.0,64.0
2973,74.0,6.0,90.0,6.0,64.0
2974,74.0,23.0,90.0,4.0,64.0
2975,79.0,4.0,60.0,6.0,64.0
2976,79.0,11.0,60.0,4.0,64.0
2977,75.0,9.0,60.0,0.0,64.0
2978,79.0,28.0,120.0,6.0,64.0
2979,69.0,24.0,390.0,7.0,64.0
2980,79.0,2.0,90.0,4.0,64.0
2981,69.0,120.0,420.0,5.0,64.0
2982,50.0,36.0,120.0,10.0,64.0
2983,74.0,20.0,60.0,0.0,64.0
2984,75.0,13.0,60.0,6.0,64.0
2985,75.0,11.0,60.0,4.0,64.0
2986,48.0,90.0,120.0,10.0,64.0
2987,75.0,36.0,60.0,0.0,64.0
2988,77.0,32.0,120.0,6.0,64.0
2989,50.0,42.0,90.0,10.0,64.0
2990,77.0,0.0,60.0,4.0,64.0
2991,74.0,3.0,60.0,0.0,64.0
2992,75.0,7.0,60.0,0.0,64.0
2993,75.0,53.0,60.0,0.0,64.0
2994,71.0,2.0,360.0,7.0,64.0
2995,77.0,5.0,360.0,6.0,64.0
2996,77.0,7.0,360.0,4.0,64.0
2997,43.0,68.0,450.0,10.0,64.0
2998,71.0,74.0,360.0,5.0,64.0
2999,74.0,36.0,60.0,0.0,64.0
3000,75.0,41.0,40.0,0.0,64.0
3001,74.0,50.0,30.0,0.0,64.0
3002,75.0,125.0,60.0,0.0,64.0
3003,74.0,56.0,300.0,0.0,64.0
3004,60.0,4.0,90.0,8.0,64.0
3005,72.0,5.0,90.0,7.0,64.0
3006,72.0,47.0,90.0,5.0,64.0
3007,75.0,3.0,120.0,4.0,64.0
3008,75.0,81.0,120.0,6.0,64.0
3009,74.0,92.0,120.0,4.0,64.0
3010,74.0,0.0,90.0,6.0,64.0
3011,72.0,20.0,90.0,6.0,64.0
3012,66.0,9.0,120.0,7.0,64.0
3013,72.0,11.0,90.0,4.0,64.0
3014,66.0,2.0,120.0,5.0,64.0
3015,57.0,72.0,120.0,8.0,64.0
3016,75.0,144.0,90.0,6.0,64.0
3017,75.0,0.0,90.0,4.0,64.0
3018,74.0,0.0,90.0,6.0,64.0
3019,67.0,4.0,90.0,5.0,64.0
3020,67.0,5.0,90.0,7.0,64.0
3021,58.0,225.0,90.0,8.0,64.0
3022,74.0,3.0,90.0,4.0,64.0
3023,58.0,7.0,120.0,7.0,64.0
3024,67.0,4.0,90.0,6.0,64.0
3025,51.0,193.0,120.0,8.0,64.0
3026,58.0,3.0,120.0,5.0,64.0
3027,67.0,11.0,90.0,4.0,64.0
3028,60.0,2.0,90.0,7.0,64.0
3029,69.0,23.0,60.0,6.0,64.0
3030,48.0,11.0,90.0,8.0,64.0
3031,63.0,220.0,120.0,5.0,64.0
3032,69.0,16.0,60.0,4.0,64.0
3033,66.0,0.0,90.0,6.0,64.0
3034,62.0,386.0,90.0,5.0,64.0
3035,57.0,3.0,90.0,7.0,64.0
3036,66.0,7.0,90.0,4.0,64.0
3037,50.0,2.0,90.0,8.0,64.0
3038,67.0,27.0,240.0,6.0,64.0
3039,67.0,36.0,270.0,4.0,64.0
3040,58.0,1.0,300.0,7.0,64.0
3041,55.0,24.0,300.0,8.0,64.0
3042,58.0,284.0,330.0,5.0,64.0
3043,53.0,7.0,810.0,8.0,64.0
3044,58.0,25.0,1770.0,7.0,64.0
3045,65.0,4.0,240.0,0.0,64.0
3046,58.0,18.0,1770.0,5.0,64.0
3047,58.0,3.0,210.0,2.0,64.0
3048,62.0,83.0,120.0,4.0,64.0
3049,46.0,4.0,120.0,10.0,64.0
3050,62.0,9.0,120.0,6.0,64.0
3051,62.0,15.0,240.0,1.0,64.0
3052,60.0,61.0,150.0,6.0,64.0
3053,45.0,17.0,120.0,10.0,64.0
3054,60.0,2.0,150.0,4.0,64.0
3055,62.0,20.0,120.0,6.0,64.0
3056,62.0,0.0,120.0,4.0,64.0
3057,70.0,3.0,120.0,0.0,64.0
3058,46.0,4.0,90.0,10.0,64.0
3059,62.0,19.0,120.0,2.0,64.0
3060,65.0,51.0,120.0,1.0,64.0
3061,63.0,134.0,120.0,6.0,64.0
3062,63.0,9.0,90.0,4.0,64.0
3063,65.0,14.0,120.0,6.0,64.0
3064,65.0,18.0,120.0,4.0,64.0
3065,70.0,2.0,210.0,0.0,64.0
3066,62.0,10.0,210.0,2.0,64.0
3067,38.0,90.0,120.0,10.0,64.0
3068,65.0,2.0,210.0,1.0,64.0
3069,63.0,11.0,150.0,6.0,64.0
3070,63.0,9.0,120.0,4.0,64.0
3071,36.0,72.0,150.0,10.0,64.0
3072,65.0,26.0,120.0,6.0,64.0
3073,65.0,1.0,120.0,4.0,64.0
3074,38.0,5.0,120.0,10.0,64.0
3075,65.0,3.0,120.0,2.0,64.0
3076,70.0,13.0,120.0,1.0,64.0
3077,74.0,24.0,120.0,0.0,64.0
3078,67.0,13.0,90.0,6.0,64.0
3079,67.0,148.0,90.0,4.0,64.0
3080,68.0,14.0,120.0,6.0,64.0
3081,68.0,14.0,120.0,4.0,64.0
3082,50.0,5.0,840.0,8.0,64.0
3083,41.0,82.0,120.0,10.0,64.0
3084,65.0,5.0,180.0,2.0,64.0
3085,70.0,3.0,180.0,1.0,64.0
3086,74.0,2.0,180.0,0.0,64.0
3087,67.0,23.0,120.0,6.0,64.0
3088,67.0,56.0,150.0,4.0,64.0
3089,39.0,4.0,90.0,10.0,64.0
3090,68.0,12.0,120.0,6.0,64.0
3091,41.0,25.0,60.0,10.0,64.0
3092,68.0,1.0,120.0,4.0,64.0
3093,70.0,12.0,120.0,2.0,64.0
3094,77.0,29.0,120.0,0.0,64.0
3095,74.0,15.0,90.0,1.0,64.0
3096,70.0,21.0,90.0,6.0,64.0
3097,70.0,166.0,60.0,4.0,64.0
3098,68.0,34.0,120.0,6.0,64.0
3099,34.0,51.0,450.0,10.0,64.0
3100,68.0,83.0,120.0,4.0,64.0
3101,70.0,3.0,450.0,2.0,64.0
3102,77.0,6.0,450.0,0.0,64.0
3103,74.0,69.0,450.0,1.0,64.0
3104,67.0,29.0,150.0,6.0,64.0
3105,67.0,73.0,120.0,4.0,64.0
3106,68.0,9.0,120.0,6.0,64.0
3107,68.0,8.0,90.0,4.0,64.0
3108,74.0,24.0,60.0,6.0,64.0
3109,74.0,16.0,60.0,4.0,64.0
3110,68.0,7.0,120.0,6.0,64.0
3111,65.0,9.0,90.0,5.0,64.0
3112,65.0,15.0,90.0,7.0,64.0
3113,62.0,29.0,120.0,8.0,64.0
3114,68.0,88.0,150.0,4.0,64.0
3115,67.0,20.0,150.0,6.0,64.0
3116,67.0,77.0,120.0,4.0,64.0
3117,68.0,5.0,120.0,6.0,64.0
3118,58.0,62.0,120.0,8.0,64.0
3119,65.0,4.0,90.0,7.0,64.0
3120,68.0,1.0,90.0,4.0,64.0
3121,65.0,40.0,420.0,5.0,64.0
3122,77.0,25.0,60.0,6.0,64.0
3123,77.0,175.0,60.0,4.0,64.0
3124,67.0,18.0,120.0,6.0,64.0
3125,63.0,18.0,150.0,8.0,64.0
3126,65.0,5.0,210.0,7.0,64.0
3127,67.0,32.0,150.0,4.0,64.0
3128,65.0,27.0,150.0,6.0,64.0
3129,65.0,45.0,120.0,4.0,64.0
3130,67.0,11.0,90.0,6.0,64.0
3131,67.0,34.0,90.0,4.0,64.0
3132,60.0,34.0,120.0,8.0,64.0
3133,63.0,5.0,120.0,5.0,64.0
3134,63.0,17.0,90.0,7.0,64.0
3135,77.0,24.0,90.0,6.0,64.0
3136,62.0,19.0,90.0,7.0,64.0
3137,77.0,18.0,90.0,4.0,64.0
3138,62.0,107.0,90.0,5.0,64.0
3139,75.0,34.0,120.0,6.0,64.0
3140,60.0,3.0,120.0,7.0,64.0
3141,57.0,4.0,120.0,8.0,64.0
3142,75.0,9.0,90.0,4.0,64.0
3143,60.0,43.0,120.0,5.0,64.0
3144,74.0,6.0,90.0,6.0,64.0
3145,74.0,106.0,90.0,4.0,64.0
3146,72.0,3.0,120.0,6.0,64.0
3147,65.0,27.0,90.0,7.0,64.0
3148,58.0,4.0,90.0,8.0,64.0
3149,65.0,77.0,90.0,5.0,64.0
3150,72.0,0.0,90.0,4.0,64.0
3151,70.0,27.0,60.0,6.0,64.0
3152,70.0,146.0,90.0,4.0,64.0
3153,53.0,32.0,240.0,8.0,64.0
3154,69.0,20.0,120.0,6.0,64.0
3155,65.0,4.0,120.0,7.0,64.0
3156,69.0,7.0,120.0,4.0,64.0
3157,65.0,79.0,120.0,5.0,64.0
3158,63.0,20.0,150.0,7.0,64.0
3159,63.0,67.0,150.0,5.0,64.0
3160,62.0,6.0,120.0,7.0,64.0
3161,55.0,3.0,90.0,8.0,64.0
3162,62.0,70.0,120.0,5.0,64.0
3163,65.0,18.0,90.0,6.0,64.0
3164,65.0,2.0,90.0,4.0,64.0
3165,60.0,24.0,120.0,7.0,64.0
3166,57.0,14.0,90.0,8.0,64.0
3167,60.0,117.0,120.0,5.0,64.0
3168,58.0,36.0,120.0,7.0,64.0
3169,58.0,3.0,120.0,8.0,64.0
3170,58.0,7.0,150.0,5.0,64.0
3171,74.0,4.0,150.0,6.0,64.0
3172,74.0,38.0,150.0,4.0,64.0
3173,57.0,52.0,90.0,8.0,64.0
3174,72.0,9.0,120.0,6.0,64.0
3175,72.0,78.0,120.0,4.0,64.0
3176,55.0,23.0,120.0,8.0,64.0
3177,70.0,12.0,120.0,6.0,64.0
3178,58.0,3.0,120.0,7.0,64.0
3179,70.0,33.0,120.0,4.0,64.0
3180,58.0,8.0,90.0,5.0,64.0
3181,53.0,50.0,90.0,8.0,64.0
3182,69.0,126.0,120.0,6.0,64.0
3183,69.0,0.0,120.0,4.0,64.0
3184,67.0,13.0,120.0,6.0,64.0
3185,51.0,3.0,150.0,8.0,64.0
3186,67.0,16.0,120.0,4.0,64.0
3187,58.0,22.0,120.0,7.0,64.0
3188,58.0,68.0,120.0,5.0,64.0
3189,60.0,26.0,120.0,7.0,64.0
3190,60.0,84.0,120.0,5.0,64.0
3191,62.0,11.0,120.0,7.0,64.0
3192,67.0,5.0,120.0,6.0,64.0
3193,58.0,6.0,120.0,8.0,64.0
3194,62.0,75.0,120.0,5.0,64.0
3195,67.0,11.0,90.0,4.0,64.0
3196,58.0,15.0,90.0,7.0,64.0
3197,58.0,135.0,90.0,5.0,64.0
3198,60.0,16.0,120.0,8.0,64.0
3199,63.0,3.0,90.0,7.0,64.0
3200,67.0,12.0,120.0,6.0,64.0
3201,63.0,8.0,120.0,5.0,64.0
3202,67.0,80.0,120.0,4.0,64.0
3203,69.0,23.0,120.0,6.0,64.0
3204,69.0,90.0,120.0,4.0,64.0
3205,70.0,6.0,120.0,6.0,64.0
3206,55.0,61.0,120.0,8.0,64.0
3207,70.0,8.0,90.0,4.0,64.0
3208,63.0,3.0,90.0,7.0,64.0
3209,63.0,3.0,90.0,5.0,64.0
3210,67.0,23.0,60.0,6.0,64.0
3211,67.0,168.0,90.0,4.0,64.0
3212,72.0,12.0,120.0,6.0,64.0
3213,63.0,18.0,390.0,7.0,64.0
3214,57.0,4.0,120.0,8.0,64.0
3215,72.0,75.0,120.0,4.0,64.0
3216,63.0,7.0,360.0,5.0,64.0
3217,70.0,18.0,120.0,6.0,64.0
3218,70.0,66.0,120.0,4.0,64.0
3219,55.0,15.0,90.0,8.0,64.0
3220,69.0,26.0,120.0,6.0,64.0
3221,53.0,30.0,90.0,8.0,64.0
3222,69.0,18.0,120.0,4.0,64.0
3223,67.0,26.0,90.0,6.0,64.0
3224,51.0,9.0,90.0,8.0,64.0
3225,67.0,124.0,90.0,4.0,64.0
3226,65.0,16.0,120.0,6.0,64.0
3227,53.0,5.0,120.0,8.0,64.0
3228,65.0,17.0,120.0,4.0,64.0
3229,62.0,63.0,120.0,7.0,64.0
3230,70.0,4.0,210.0,0.0,64.0
3231,70.0,5.0,210.0,1.0,64.0
3232,70.0,3.0,180.0,2.0,64.0
3233,46.0,0.0,120.0,10.0,64.0
3234,62.0,0.0,120.0,5.0,64.0
3235,45.0,108.0,120.0,10.0,64.0
3236,70.0,20.0,90.0,6.0,64.0
3237,50.0,0.0,120.0,8.0,64.0
3238,65.0,0.0,120.0,7.0,64.0
3239,46.0,2.0,120.0,10.0,64.0
3240,70.0,10.0,150.0,2.0,64.0
3241,70.0,11.0,90.0,4.0,64.0
3242,70.0,3.0,150.0,0.0,64.0
3243,70.0,167.0,180.0,1.0,64.0
3244,65.0,48.0,90.0,5.0,64.0
3245,46.0,7.0,120.0,8.0,64.0
3246,62.0,4.0,120.0,7.0,64.0
3247,65.0,9.0,120.0,6.0,64.0
3248,65.0,4.0,120.0,4.0,64.0
3249,38.0,5.0,120.0,10.0,64.0
3250,62.0,3.0,210.0,0.0,64.0
3251,65.0,92.0,120.0,5.0,64.0
3252,62.0,91.0,210.0,1.0,64.0
3253,62.0,3.0,210.0,2.0,64.0
3254,36.0,5.0,120.0,10.0,64.0
3255,38.0,33.0,120.0,10.0,64.0
3256,53.0,3.0,120.0,8.0,64.0
3257,70.0,7.0,90.0,4.0,64.0
3258,70.0,8.0,90.0,6.0,64.0
3259,58.0,34.0,120.0,7.0,64.0
3260,62.0,2.0,120.0,5.0,64.0
3261,62.0,9.0,150.0,0.0,64.0
3262,62.0,0.0,150.0,1.0,64.0
3263,62.0,122.0,150.0,2.0,64.0
3264,63.0,15.0,60.0,6.0,64.0
3265,53.0,7.0,180.0,8.0,64.0
3266,60.0,0.0,60.0,7.0,64.0
3267,63.0,9.0,60.0,5.0,64.0
3268,63.0,19.0,90.0,4.0,64.0
3269,41.0,11.0,120.0,10.0,64.0
3270,65.0,10.0,180.0,2.0,64.0
3271,65.0,6.0,210.0,0.0,64.0
3272,65.0,3.0,210.0,1.0,64.0
3273,62.0,4.0,60.0,6.0,64.0
3274,58.0,14.0,60.0,7.0,64.0
3275,62.0,2.0,60.0,5.0,64.0
3276,62.0,25.0,60.0,4.0,64.0
3277,63.0,11.0,90.0,6.0,64.0
3278,60.0,16.0,60.0,7.0,64.0
3279,39.0,6.0,120.0,10.0,64.0
3280,63.0,6.0,60.0,5.0,64.0
3281,63.0,9.0,60.0,4.0,64.0
3282,62.0,0.0,90.0,6.0,64.0
3283,58.0,32.0,90.0,7.0,64.0
3284,62.0,6.0,90.0,5.0,64.0
3285,62.0,41.0,90.0,4.0,64.0
3286,60.0,2.0,90.0,6.0,64.0
3287,41.0,6.0,90.0,10.0,64.0
3288,57.0,4.0,90.0,7.0,64.0
3289,60.0,21.0,90.0,5.0,64.0
3290,51.0,7.0,90.0,8.0,64.0
3291,60.0,3.0,90.0,4.0,64.0
3292,65.0,41.0,120.0,2.0,64.0
3293,65.0,8.0,90.0,1.0,64.0
3294,65.0,4.0,90.0,0.0,64.0
3295,53.0,13.0,90.0,8.0,64.0
3296,62.0,5.0,60.0,6.0,64.0
3297,62.0,2.0,60.0,5.0,64.0
3298,58.0,3.0,60.0,7.0,64.0
3299,62.0,320.0,60.0,4.0,64.0
3300,58.0,0.0,300.0,6.0,64.0
3301,34.0,10.0,300.0,10.0,64.0
3302,53.0,31.0,300.0,7.0,64.0
3303,50.0,17.0,270.0,8.0,64.0
3304,58.0,20.0,330.0,5.0,64.0
3305,58.0,0.0,300.0,4.0,64.0
3306,58.0,1.0,300.0,0.0,64.0
3307,58.0,10.0,300.0,2.0,64.0
3308,58.0,250.0,330.0,1.0,64.0
3309,53.0,7.0,120.0,10.0,64.0
3310,65.0,7.0,120.0,7.0,64.0
3311,65.0,7.0,120.0,6.0,64.0
3312,65.0,62.0,120.0,8.0,64.0
3313,72.0,5.0,270.0,0.0,64.0
3314,52.0,14.0,120.0,10.0,64.0
3315,64.0,9.0,90.0,7.0,64.0
3316,64.0,81.0,120.0,6.0,64.0
3317,64.0,2.0,90.0,8.0,64.0
3318,53.0,8.0,120.0,10.0,64.0
3319,65.0,13.0,90.0,7.0,64.0
3320,65.0,3.0,90.0,6.0,64.0
3321,65.0,102.0,90.0,8.0,64.0
3322,77.0,159.0,60.0,0.0,64.0
3323,57.0,9.0,120.0,7.0,64.0
3324,57.0,3.0,120.0,8.0,64.0
3325,45.0,13.0,120.0,10.0,64.0
3326,57.0,59.0,120.0,6.0,64.0
3327,72.0,25.0,300.0,0.0,64.0
3328,55.0,7.0,120.0,7.0,64.0
3329,43.0,18.0,120.0,10.0,64.0
3330,55.0,70.0,150.0,6.0,64.0
3331,55.0,15.0,90.0,8.0,64.0
3332,45.0,88.0,120.0,10.0,64.0
3333,57.0,7.0,90.0,7.0,64.0
3334,57.0,8.0,120.0,6.0,64.0
3335,57.0,7.0,120.0,8.0,64.0
3336,74.0,122.0,60.0,0.0,64.0
3337,60.0,4.0,120.0,6.0,64.0
3338,60.0,14.0,90.0,7.0,64.0
3339,48.0,4.0,120.0,10.0,64.0
3340,60.0,72.0,120.0,8.0,64.0
3341,72.0,13.0,60.0,0.0,64.0
3342,58.0,2.0,120.0,7.0,64.0
3343,58.0,13.0,120.0,6.0,64.0
3344,46.0,83.0,120.0,10.0,64.0
3345,58.0,7.0,90.0,8.0,64.0
3346,74.0,3.0,60.0,0.0,64.0
3347,60.0,13.0,90.0,7.0,64.0
3348,60.0,1.0,90.0,6.0,64.0
3349,48.0,7.0,90.0,10.0,64.0
3350,60.0,102.0,90.0,8.0,64.0
3351,72.0,6.0,60.0,0.0,64.0
3352,74.0,141.0,60.0,0.0,64.0
3353,53.0,27.0,300.0,7.0,64.0
3354,53.0,174.0,330.0,6.0,64.0
3355,53.0,4.0,270.0,8.0,64.0
3356,41.0,60.0,480.0,10.0,64.0
3357,74.0,50.0,90.0,0.0,64.0
3358,72.0,40.0,40.0,0.0,64.0
3359,74.0,37.0,60.0,0.0,64.0
3360,72.0,55.0,30.0,0.0,64.0
3361,74.0,3.0,60.0,0.0,64.0
3362,72.0,23.0,300.0,0.0,64.0
3363,72.0,5.0,120.0,5.0,64.0
3364,75.0,14.0,90.0,6.0,64.0
3365,66.0,5.0,120.0,8.0,64.0
3366,72.0,16.0,90.0,7.0,64.0
3367,75.0,75.0,120.0,4.0,64.0
3368,64.0,135.0,90.0,8.0,64.0
3369,66.0,272.0,90.0,8.0,64.0
3370,74.0,20.0,390.0,6.0,64.0
3371,70.0,5.0,360.0,7.0,64.0
3372,70.0,79.0,390.0,5.0,64.0
3373,74.0,12.0,360.0,4.0,64.0
3374,67.0,6.0,120.0,8.0,64.0
3375,66.0,80.0,150.0,8.0,64.0
3376,72.0,32.0,450.0,6.0,64.0
3377,67.0,293.0,90.0,8.0,64.0
3378,72.0,28.0,390.0,4.0,64.0
3379,69.0,13.0,420.0,5.0,64.0
3380,69.0,8.0,360.0,7.0,64.0
3381,60.0,5.0,120.0,8.0,64.0
3382,58.0,130.0,120.0,8.0,64.0
3383,70.0,5.0,180.0,4.0,64.0
3384,67.0,92.0,210.0,5.0,64.0
3385,70.0,9.0,180.0,6.0,64.0
3386,67.0,7.0,180.0,7.0,64.0
3387,60.0,58.0,120.0,8.0,64.0
3388,72.0,0.0,60.0,6.0,64.0
3389,69.0,18.0,60.0,7.0,64.0
3390,69.0,5.0,60.0,5.0,64.0
3391,72.0,11.0,60.0,4.0,64.0
3392,62.0,13.0,90.0,8.0,64.0
3393,70.0,24.0,60.0,6.0,64.0
3394,67.0,1.0,60.0,7.0,64.0
3395,70.0,0.0,60.0,4.0,64.0
3396,67.0,14.0,60.0,5.0,64.0
3397,72.0,36.0,60.0,6.0,64.0
3398,69.0,8.0,90.0,7.0,64.0
3399,69.0,29.0,90.0,5.0,64.0
3400,72.0,14.0,60.0,4.0,64.0
3401,70.0,18.0,90.0,6.0,64.0
3402,67.0,16.0,90.0,7.0,64.0
3403,67.0,68.0,90.0,5.0,64.0
3404,70.0,2.0,90.0,4.0,64.0
3405,69.0,10.0,120.0,6.0,64.0
3406,66.0,3.0,90.0,7.0,64.0
3407,66.0,4.0,120.0,5.0,64.0
3408,69.0,225.0,120.0,4.0,64.0
3409,50.0,23.0,90.0,8.0,64.0
3410,70.0,29.0,120.0,6.0,64.0
3411,67.0,6.0,900.0,7.0,64.0
3412,67.0,6.0,870.0,5.0,64.0
3413,55.0,78.0,120.0,10.0,64.0
3414,70.0,1.0,120.0,4.0,64.0
3415,62.0,89.0,1770.0,8.0,64.0
3416,74.0,9.0,300.0,0.0,64.0
3417,69.0,11.0,120.0,6.0,64.0
3418,54.0,64.0,120.0,10.0,64.0
3419,69.0,9.0,120.0,4.0,64.0
3420,70.0,8.0,120.0,6.0,64.0
3421,70.0,9.0,120.0,4.0,64.0
3422,55.0,52.0,90.0,10.0,64.0
3423,74.0,16.0,60.0,6.0,64.0
3424,74.0,38.0,60.0,4.0,64.0
3425,79.0,140.0,60.0,0.0,64.0
3426,74.0,6.0,120.0,6.0,64.0
3427,74.0,7.0,120.0,4.0,64.0
3428,46.0,102.0,120.0,10.0,64.0
3429,74.0,2.0,270.0,0.0,64.0
3430,72.0,61.0,150.0,6.0,64.0
3431,45.0,6.0,120.0,10.0,64.0
3432,72.0,9.0,120.0,4.0,64.0
3433,46.0,66.0,120.0,10.0,64.0
3434,74.0,7.0,90.0,6.0,64.0
3435,74.0,22.0,60.0,4.0,64.0
3436,79.0,9.0,60.0,6.0,64.0
3437,79.0,28.0,60.0,4.0,64.0
3438,75.0,117.0,60.0,0.0,64.0
3439,79.0,23.0,120.0,6.0,64.0
3440,69.0,24.0,390.0,7.0,64.0
3441,50.0,7.0,120.0,10.0,64.0
3442,79.0,51.0,120.0,4.0,64.0
3443,69.0,140.0,390.0,5.0,64.0
3444,74.0,2.0,60.0,0.0,64.0
3445,48.0,78.0,150.0,10.0,64.0
3446,75.0,9.0,90.0,6.0,64.0
3447,75.0,10.0,60.0,4.0,64.0
3448,75.0,41.0,60.0,0.0,64.0
3449,50.0,9.0,90.0,10.0,64.0
3450,77.0,6.0,90.0,6.0,64.0
3451,77.0,55.0,90.0,4.0,64.0
3452,74.0,0.0,60.0,0.0,64.0
3453,75.0,2.0,60.0,0.0,64.0
3454,75.0,50.0,90.0,0.0,64.0
3455,71.0,13.0,390.0,7.0,64.0
3456,43.0,29.0,480.0,10.0,64.0
3457,71.0,2.0,360.0,5.0,64.0
3458,77.0,18.0,330.0,4.0,64.0
3459,77.0,10.0,360.0,6.0,64.0
3460,74.0,40.0,60.0,0.0,64.0
3461,75.0,32.0,40.0,0.0,64.0
3462,74.0,56.0,40.0,0.0,64.0
3463,75.0,99.0,60.0,0.0,64.0
3464,74.0,77.0,270.0,0.0,64.0
3465,60.0,7.0,120.0,8.0,64.0
3466,75.0,9.0,120.0,6.0,64.0
3467,72.0,7.0,90.0,7.0,64.0
3468,72.0,24.0,90.0,5.0,64.0
3469,75.0,57.0,120.0,4.0,64.0
3470,74.0,51.0,90.0,6.0,64.0
3471,74.0,52.0,120.0,4.0,64.0
3472,72.0,19.0,90.0,6.0,64.0
3473,66.0,58.0,120.0,7.0,64.0
3474,57.0,24.0,90.0,8.0,64.0
3475,72.0,7.0,60.0,4.0,64.0
3476,66.0,2.0,120.0,5.0,64.0
3477,75.0,14.0,90.0,6.0,64.0
3478,75.0,135.0,60.0,4.0,64.0
3479,58.0,0.0,120.0,8.0,64.0
3480,74.0,7.0,90.0,6.0,64.0
3481,67.0,4.0,90.0,7.0,64.0
3482,67.0,223.0,120.0,5.0,64.0
3483,74.0,9.0,90.0,4.0,64.0
3484,58.0,0.0,90.0,7.0,64.0
3485,51.0,194.0,120.0,8.0,64.0
3486,67.0,2.0,90.0,6.0,64.0
3487,58.0,9.0,120.0,5.0,64.0
3488,67.0,20.0,90.0,4.0,64.0
3489,69.0,17.0,90.0,6.0,64.0
3490,48.0,8.0,90.0,8.0,64.0
3491,69.0,12.0,90.0,4.0,64.0
3492,60.0,3.0,90.0,7.0,64.0
3493,63.0,210.0,90.0,5.0,64.0
3494,57.0,6.0,90.0,7.0,64.0
3495,66.0,13.0,90.0,6.0,64.0
3496,66.0,396.0,120.0,4.0,64.0
3497,62.0,7.0,90.0,5.0,64.0
3498,50.0,5.0,60.0,8.0,64.0
3499,67.0,2.0,270.0,6.0,64.0
3500,58.0,12.0,270.0,7.0,64.0
3501,67.0,19.0,240.0,4.0,64.0
3502,55.0,3.0,270.0,8.0,64.0
3503,58.0,306.0,270.0,5.0,64.0
3504,53.0,17.0,810.0,8.0,64.0
3505,46.0,29.0,120.0,10.0,64.0
3506,58.0,3.0,1770.0,5.0,64.0
3507,58.0,0.0,1800.0,7.0,64.0
3508,58.0,15.0,210.0,2.0,64.0
3509,62.0,1.0,120.0,4.0,64.0
3510,62.0,56.0,120.0,6.0,64.0
3511,62.0,0.0,240.0,1.0,64.0
3512,65.0,9.0,210.0,0.0,64.0
3513,45.0,30.0,90.0,10.0,64.0
3514,60.0,31.0,150.0,6.0,64.0
3515,60.0,39.0,180.0,4.0,64.0
3516,46.0,13.0,150.0,10.0,64.0
3517,62.0,31.0,90.0,6.0,64.0
3518,62.0,1.0,120.0,4.0,64.0
3519,62.0,5.0,120.0,2.0,64.0
3520,65.0,56.0,120.0,1.0,64.0
3521,70.0,4.0,90.0,0.0,64.0
3522,63.0,7.0,90.0,6.0,64.0
3523,63.0,148.0,90.0,4.0,64.0
3524,65.0,5.0,120.0,6.0,64.0
3525,65.0,27.0,120.0,4.0,64.0
3526,38.0,78.0,150.0,10.0,64.0
3527,62.0,6.0,210.0,2.0,64.0
3528,65.0,2.0,210.0,1.0,64.0
3529,70.0,2.0,210.0,0.0,64.0
3530,63.0,9.0,120.0,6.0,64.0
3531,36.0,6.0,120.0,10.0,64.0
3532,63.0,68.0,120.0,4.0,64.0
3533,65.0,19.0,120.0,6.0,64.0
3534,38.0,3.0,120.0,10.0,64.0
3535,65.0,2.0,120.0,4.0,64.0
3536,65.0,0.0,120.0,2.0,64.0
3537,70.0,44.0,120.0,1.0,64.0
3538,74.0,9.0,90.0,0.0,64.0
3539,67.0,16.0,90.0,6.0,64.0
3540,67.0,148.0,90.0,4.0,64.0
3541,68.0,18.0,120.0,6.0,64.0
3542,41.0,82.0,120.0,10.0,64.0
3543,68.0,0.0,120.0,4.0,64.0
3544,50.0,19.0,870.0,8.0,64.0
3545,65.0,10.0,180.0,2.0,64.0
3546,70.0,0.0,180.0,1.0,64.0
3547,74.0,41.0,210.0,0.0,64.0
3548,67.0,1.0,120.0,6.0,64.0
3549,39.0,4.0,120.0,10.0,64.0
3550,67.0,56.0,150.0,4.0,64.0
3551,68.0,11.0,120.0,6.0,64.0
3552,41.0,7.0,90.0,10.0,64.0
3553,70.0,9.0,120.0,2.0,64.0
3554,68.0,47.0,120.0,4.0,64.0
3555,74.0,6.0,90.0,1.0,64.0
3556,77.0,10.0,90.0,0.0,64.0
3557,70.0,11.0,90.0,6.0,64.0
3558,70.0,178.0,60.0,4.0,64.0
3559,68.0,13.0,120.0,6.0,64.0
3560,34.0,5.0,480.0,10.0,64.0
3561,68.0,110.0,120.0,4.0,64.0
3562,77.0,52.0,510.0,0.0,64.0
3563,70.0,9.0,450.0,2.0,64.0
3564,74.0,24.0,450.0,1.0,64.0
3565,67.0,19.0,150.0,6.0,64.0
3566,67.0,80.0,150.0,4.0,64.0
3567,68.0,25.0,120.0,6.0,64.0
3568,68.0,26.0,120.0,4.0,64.0
3569,74.0,0.0,60.0,6.0,64.0
3570,74.0,58.0,40.0,4.0,64.0
3571,68.0,5.0,120.0,6.0,64.0
3572,65.0,11.0,90.0,5.0,64.0
3573,65.0,34.0,90.0,7.0,64.0
3574,68.0,95.0,150.0,4.0,64.0
3575,62.0,17.0,120.0,8.0,64.0
3576,67.0,23.0,150.0,6.0,64.0
3577,67.0,58.0,150.0,4.0,64.0
3578,68.0,16.0,90.0,6.0,64.0
3579,58.0,0.0,90.0,8.0,64.0
3580,65.0,22.0,450.0,5.0,64.0
3581,68.0,41.0,120.0,4.0,64.0
3582,65.0,22.0,90.0,7.0,64.0
3583,77.0,22.0,60.0,6.0,64.0
3584,77.0,183.0,60.0,4.0,64.0
3585,67.0,17.0,150.0,6.0,64.0
3586,65.0,17.0,210.0,7.0,64.0
3587,67.0,42.0,150.0,4.0,64.0
3588,63.0,9.0,120.0,8.0,64.0
3589,65.0,41.0,150.0,6.0,64.0
3590,65.0,18.0,150.0,4.0,64.0
3591,67.0,23.0,60.0,6.0,64.0
3592,60.0,7.0,120.0,8.0,64.0
3593,63.0,31.0,90.0,7.0,64.0
3594,67.0,13.0,60.0,4.0,64.0
3595,63.0,41.0,120.0,5.0,64.0
3596,77.0,24.0,60.0,6.0,64.0
3597,62.0,16.0,120.0,7.0,64.0
3598,77.0,16.0,90.0,4.0,64.0
3599,62.0,110.0,90.0,5.0,64.0
3600,75.0,9.0,120.0,6.0,64.0
3601,60.0,11.0,90.0,7.0,64.0
3602,57.0,3.0,120.0,8.0,64.0
3603,75.0,0.0,120.0,4.0,64.0
3604,60.0,81.0,120.0,5.0,64.0
3605,74.0,114.0,90.0,6.0,64.0
3606,74.0,1.0,90.0,4.0,64.0
3607,58.0,26.0,90.0,8.0,64.0
3608,72.0,9.0,120.0,6.0,64.0
3609,72.0,3.0,120.0,4.0,64.0
3610,65.0,6.0,120.0,7.0,64.0
3611,65.0,61.0,120.0,5.0,64.0
3612,70.0,5.0,90.0,6.0,64.0
3613,70.0,157.0,60.0,4.0,64.0
3614,69.0,20.0,120.0,6.0,64.0
3615,53.0,41.0,210.0,8.0,64.0
3616,69.0,28.0,120.0,4.0,64.0
3617,65.0,51.0,150.0,7.0,64.0
3618,65.0,2.0,120.0,5.0,64.0
3619,63.0,18.0,120.0,7.0,64.0
3620,63.0,72.0,150.0,5.0,64.0
3621,62.0,21.0,120.0,7.0,64.0
3622,55.0,9.0,90.0,8.0,64.0
3623,65.0,2.0,90.0,6.0,64.0
3624,65.0,2.0,90.0,4.0,64.0
3625,62.0,70.0,120.0,5.0,64.0
3626,60.0,27.0,120.0,7.0,64.0
3627,57.0,8.0,90.0,8.0,64.0
3628,60.0,108.0,120.0,5.0,64.0
3629,58.0,19.0,120.0,7.0,64.0
3630,58.0,18.0,120.0,8.0,64.0
3631,74.0,13.0,150.0,6.0,64.0
3632,74.0,22.0,150.0,4.0,64.0
3633,58.0,18.0,120.0,5.0,64.0
3634,57.0,57.0,90.0,8.0,64.0
3635,72.0,11.0,120.0,6.0,64.0
3636,72.0,50.0,120.0,4.0,64.0
3637,55.0,47.0,90.0,8.0,64.0
3638,70.0,5.0,120.0,6.0,64.0
3639,70.0,36.0,120.0,4.0,64.0
3640,58.0,11.0,120.0,5.0,64.0
3641,58.0,6.0,120.0,7.0,64.0
3642,53.0,36.0,90.0,8.0,64.0
3643,69.0,129.0,120.0,6.0,64.0
3644,69.0,7.0,90.0,4.0,64.0
3645,51.0,0.0,150.0,8.0,64.0
3646,67.0,19.0,120.0,6.0,64.0
3647,67.0,12.0,120.0,4.0,64.0
3648,58.0,65.0,120.0,5.0,64.0
3649,58.0,9.0,120.0,7.0,64.0
3650,60.0,108.0,120.0,5.0,64.0
3651,60.0,31.0,90.0,7.0,64.0
3652,62.0,0.0,120.0,7.0,64.0
3653,58.0,7.0,120.0,8.0,64.0
3654,67.0,0.0,90.0,6.0,64.0
3655,62.0,104.0,120.0,5.0,64.0
3656,67.0,2.0,90.0,4.0,64.0
3657,58.0,121.0,120.0,7.0,64.0
3658,58.0,9.0,120.0,5.0,64.0
3659,63.0,2.0,120.0,7.0,64.0
3660,60.0,14.0,90.0,8.0,64.0
3661,63.0,12.0,120.0,5.0,64.0
3662,67.0,13.0,120.0,6.0,64.0
3663,67.0,94.0,120.0,4.0,64.0
3664,69.0,25.0,120.0,6.0,64.0
3665,69.0,81.0,150.0,4.0,64.0
3666,70.0,2.0,120.0,6.0,64.0
3667,70.0,63.0,120.0,4.0,64.0
3668,55.0,11.0,120.0,8.0,64.0
3669,63.0,1.0,90.0,7.0,64.0
3670,63.0,9.0,90.0,5.0,64.0
3671,67.0,160.0,90.0,6.0,64.0
3672,67.0,6.0,90.0,4.0,64.0
3673,72.0,18.0,150.0,6.0,64.0
3674,72.0,72.0,150.0,4.0,64.0
3675,57.0,18.0,120.0,8.0,64.0
3676,63.0,28.0,360.0,7.0,64.0
3677,63.0,17.0,390.0,5.0,64.0
3678,70.0,18.0,150.0,6.0,64.0
3679,55.0,20.0,90.0,8.0,64.0
3680,70.0,64.0,150.0,4.0,64.0
3681,69.0,16.0,120.0,6.0,64.0
3682,69.0,6.0,150.0,4.0,64.0
3683,53.0,31.0,90.0,8.0,64.0
3684,67.0,19.0,120.0,6.0,64.0
3685,51.0,18.0,90.0,8.0,64.0
3686,67.0,110.0,120.0,4.0,64.0
3687,65.0,11.0,120.0,6.0,64.0
3688,62.0,0.0,120.0,7.0,64.0
3689,53.0,8.0,120.0,8.0,64.0
3690,65.0,5.0,120.0,4.0,64.0
3691,62.0,14.0,120.0,5.0,64.0
3692,46.0,64.0,120.0,10.0,64.0
3693,70.0,7.0,180.0,2.0,64.0
3694,70.0,3.0,210.0,1.0,64.0
3695,70.0,21.0,180.0,0.0,64.0
3696,45.0,98.0,120.0,10.0,64.0
3697,50.0,0.0,120.0,8.0,64.0
3698,46.0,47.0,120.0,10.0,64.0
3699,65.0,7.0,120.0,7.0,64.0
3700,70.0,5.0,90.0,6.0,64.0
3701,70.0,10.0,150.0,2.0,64.0
3702,70.0,13.0,90.0,4.0,64.0
3703,70.0,15.0,180.0,1.0,64.0
3704,65.0,3.0,90.0,5.0,64.0
3705,70.0,166.0,180.0,0.0,64.0
3706,62.0,7.0,120.0,7.0,64.0
3707,46.0,6.0,120.0,8.0,64.0
3708,38.0,9.0,120.0,10.0,64.0
3709,65.0,6.0,120.0,6.0,64.0
3710,65.0,4.0,90.0,4.0,64.0
3711,62.0,3.0,210.0,2.0,64.0
3712,62.0,8.0,210.0,1.0,64.0
3713,65.0,74.0,120.0,5.0,64.0
3714,62.0,86.0,210.0,0.0,64.0
3715,36.0,9.0,120.0,10.0,64.0
3716,38.0,21.0,120.0,10.0,64.0
3717,53.0,2.0,120.0,8.0,64.0
3718,70.0,27.0,90.0,6.0,64.0
3719,70.0,8.0,60.0,4.0,64.0
3720,58.0,0.0,120.0,7.0,64.0
3721,62.0,35.0,120.0,5.0,64.0
3722,62.0,19.0,150.0,1.0,64.0
3723,62.0,0.0,150.0,2.0,64.0
3724,62.0,115.0,180.0,0.0,64.0
3725,55.0,0.0,90.0,8.0,64.0
3726,63.0,39.0,90.0,4.0,64.0
3727,63.0,0.0,60.0,5.0,64.0
3728,63.0,7.0,60.0,6.0,64.0
3729,60.0,6.0,60.0,7.0,64.0
3730,41.0,49.0,120.0,10.0,64.0
3731,65.0,6.0,180.0,2.0,64.0
3732,65.0,2.0,210.0,1.0,64.0
3733,65.0,23.0,210.0,0.0,64.0
3734,58.0,1.0,60.0,7.0,64.0
3735,62.0,2.0,60.0,4.0,64.0
3736,62.0,1.0,60.0,6.0,64.0
3737,53.0,6.0,60.0,8.0,64.0
3738,62.0,1.0,60.0,5.0,64.0
3739,60.0,5.0,90.0,7.0,64.0
3740,39.0,10.0,120.0,10.0,64.0
3741,63.0,6.0,60.0,6.0,64.0
3742,63.0,11.0,90.0,5.0,64.0
3743,55.0,5.0,60.0,8.0,64.0
3744,63.0,3.0,90.0,4.0,64.0
3745,62.0,1.0,90.0,6.0,64.0
3746,53.0,0.0,90.0,8.0,64.0
3747,62.0,14.0,90.0,5.0,64.0
3748,58.0,11.0,90.0,7.0,64.0
3749,62.0,31.0,90.0,4.0,64.0
3750,51.0,9.0,90.0,8.0,64.0
3751,60.0,1.0,90.0,6.0,64.0
3752,60.0,25.0,90.0,5.0,64.0
3753,57.0,6.0,90.0,7.0,64.0
3754,41.0,11.0,120.0,10.0,64.0
3755,65.0,51.0,120.0,2.0,64.0
3756,60.0,2.0,90.0,4.0,64.0
3757,65.0,0.0,90.0,1.0,64.0
3758,65.0,1.0,90.0,0.0,64.0
3759,53.0,2.0,60.0,8.0,64.0
3760,62.0,3.0,60.0,5.0,64.0
3761,62.0,6.0,60.0,6.0,64.0
3762,58.0,19.0,60.0,7.0,64.0
3763,62.0,310.0,60.0,4.0,64.0
3764,50.0,14.0,300.0,8.0,64.0
3765,58.0,14.0,300.0,5.0,64.0
3766,58.0,18.0,270.0,6.0,64.0
3767,34.0,4.0,300.0,10.0,64.0
3768,53.0,1.0,300.0,7.0,64.0
3769,58.0,1.0,300.0,4.0,64.0
3770,58.0,27.0,300.0,2.0,64.0
3771,58.0,225.0,330.0,1.0,64.0
3772,58.0,3.0,330.0,0.0,64.0
3773,65.0,3.0,120.0,4.0,64.0
3774,58.0,0.0,90.0,2.0,64.0
3775,65.0,6.0,120.0,5.0,64.0
3776,65.0,9.0,90.0,0.0,64.0
3777,58.0,18.0,120.0,8.0,64.0
3778,58.0,91.0,660.0,10.0,64.0
3779,65.0,11.0,150.0,6.0,64.0
3780,62.0,124.0,150.0,7.0,64.0
3781,62.0,25.0,90.0,1.0,64.0
3782,46.0,6.0,60.0,3.0,64.0
3783,74.0,5.0,60.0,1.0,64.0
3784,77.0,0.0,60.0,5.0,64.0
3785,77.0,11.0,60.0,6.0,64.0
3786,77.0,0.0,40.0,4.0,64.0
3787,58.0,53.0,90.0,2.0,64.0
3788,46.0,2.0,60.0,3.0,64.0
3789,77.0,9.0,60.0,0.0,64.0
3790,74.0,7.0,60.0,7.0,64.0
3791,58.0,7.0,60.0,8.0,64.0
3792,70.0,19.0,40.0,1.0,64.0
3793,74.0,2.0,60.0,5.0,64.0
3794,74.0,2.0,60.0,4.0,64.0
3795,74.0,2.0,60.0,6.0,64.0
3796,74.0,7.0,60.0,0.0,64.0
3797,70.0,200.0,60.0,7.0,64.0
3798,72.0,9.0,270.0,1.0,64.0
3799,72.0,2.0,270.0,7.0,64.0
3800,75.0,6.0,270.0,5.0,64.0
3801,65.0,11.0,300.0,2.0,64.0
3802,75.0,4.0,270.0,4.0,64.0
3803,75.0,1.0,270.0,6.0,64.0
3804,41.0,36.0,120.0,3.0,64.0
3805,75.0,97.0,300.0,0.0,64.0
3806,65.0,14.0,270.0,8.0,64.0
3807,57.0,6.0,60.0,10.0,64.0
3808,55.0,142.0,60.0,10.0,64.0
3809,57.0,14.0,90.0,10.0,64.0
3810,60.0,14.0,150.0,7.0,64.0
3811,65.0,35.0,120.0,1.0,64.0
3812,65.0,5.0,90.0,2.0,64.0
3813,65.0,11.0,90.0,0.0,64.0
3814,65.0,2.0,150.0,4.0,64.0
3815,41.0,2.0,90.0,3.0,64.0
3816,65.0,7.0,150.0,6.0,64.0
3817,65.0,13.0,150.0,5.0,64.0
3818,65.0,109.0,150.0,8.0,64.0
3819,53.0,18.0,90.0,10.0,64.0
3820,65.0,0.0,90.0,2.0,64.0
3821,72.0,1.0,60.0,7.0,64.0
3822,75.0,6.0,40.0,6.0,64.0
3823,75.0,4.0,60.0,4.0,64.0
3824,75.0,4.0,40.0,5.0,64.0
3825,75.0,10.0,60.0,0.0,64.0
3826,72.0,2.0,60.0,1.0,64.0
3827,41.0,61.0,90.0,3.0,64.0
3828,65.0,4.0,60.0,8.0,64.0
3829,72.0,2.0,40.0,4.0,64.0
3830,65.0,0.0,60.0,1.0,64.0
3831,72.0,5.0,40.0,5.0,64.0
3832,72.0,7.0,40.0,0.0,64.0
3833,69.0,180.0,60.0,7.0,64.0
3834,72.0,2.0,40.0,6.0,64.0
3835,58.0,5.0,270.0,2.0,64.0
3836,58.0,76.0,180.0,10.0,64.0
3837,70.0,14.0,300.0,7.0,64.0
3838,74.0,18.0,300.0,0.0,64.0
3839,74.0,2.0,270.0,4.0,64.0
3840,46.0,76.0,90.0,3.0,64.0
3841,65.0,7.0,240.0,1.0,64.0
3842,74.0,4.0,270.0,6.0,64.0
3843,74.0,7.0,270.0,5.0,64.0
3844,65.0,2.0,270.0,8.0,64.0
3845,46.0,83.0,90.0,10.0,64.0
3846,48.0,182.0,60.0,10.0,64.0
3847,50.0,2.0,180.0,10.0,64.0
3848,65.0,5.0,180.0,4.0,64.0
3849,65.0,18.0,150.0,6.0,64.0
3850,65.0,59.0,90.0,8.0,64.0
3851,58.0,0.0,90.0,7.0,64.0
3852,65.0,87.0,150.0,5.0,64.0
3853,72.0,18.0,40.0,6.0,64.0
3854,72.0,8.0,60.0,4.0,64.0
3855,51.0,36.0,60.0,10.0,64.0
3856,57.0,42.0,90.0,8.0,64.0
3857,72.0,1.0,40.0,5.0,64.0
3858,60.0,10.0,90.0,7.0,64.0
3859,69.0,18.0,40.0,6.0,64.0
3860,69.0,5.0,60.0,4.0,64.0
3861,48.0,4.0,60.0,10.0,64.0
3862,69.0,151.0,60.0,5.0,64.0
3863,53.0,18.0,90.0,7.0,64.0
3864,50.0,69.0,120.0,10.0,64.0
3865,70.0,101.0,180.0,6.0,64.0
3866,70.0,3.0,180.0,4.0,64.0
3867,62.0,5.0,90.0,8.0,64.0
3868,70.0,6.0,180.0,5.0,64.0
3869,58.0,11.0,90.0,7.0,64.0
3870,69.0,10.0,60.0,4.0,64.0
3871,69.0,22.0,60.0,5.0,64.0
3872,69.0,2.0,90.0,6.0,64.0
3873,60.0,68.0,90.0,8.0,64.0
3874,51.0,7.0,90.0,10.0,64.0
3875,67.0,6.0,60.0,4.0,64.0
3876,67.0,5.0,60.0,6.0,64.0
3877,67.0,104.0,60.0,5.0,64.0
3878,65.0,15.0,60.0,4.0,64.0
3879,65.0,18.0,60.0,6.0,64.0
3880,58.0,6.0,90.0,7.0,64.0
3881,65.0,5.0,60.0,5.0,64.0
3882,62.0,1.0,90.0,8.0,64.0
3883,53.0,74.0,90.0,10.0,64.0
3884,67.0,13.0,60.0,4.0,64.0
3885,67.0,121.0,90.0,6.0,64.0
3886,67.0,3.0,60.0,5.0,64.0
3887,57.0,7.0,60.0,7.0,64.0
3888,63.0,191.0,90.0,6.0,64.0
3889,63.0,3.0,90.0,4.0,64.0
3890,60.0,13.0,60.0,8.0,64.0
3891,41.0,0.0,60.0,10.0,64.0
3892,63.0,2.0,90.0,5.0,64.0
3893,63.0,23.0,60.0,4.0,64.0
3894,63.0,9.0,90.0,6.0,64.0
3895,63.0,6.0,60.0,5.0,64.0
3896,46.0,32.0,210.0,10.0,64.0
3897,53.0,2.0,270.0,7.0,64.0
3898,58.0,1.0,300.0,8.0,64.0
3899,62.0,4.0,60.0,4.0,64.0
3900,62.0,7.0,40.0,5.0,64.0
3901,62.0,63.0,40.0,6.0,64.0
3902,63.0,28.0,60.0,4.0,64.0
3903,63.0,13.0,90.0,6.0,64.0
3904,63.0,2.0,90.0,5.0,64.0
3905,62.0,2.0,90.0,4.0,64.0
3906,62.0,0.0,90.0,5.0,64.0
3907,62.0,54.0,90.0,6.0,64.0
3908,60.0,7.0,90.0,4.0,64.0
3909,60.0,35.0,90.0,5.0,64.0
3910,60.0,4.0,60.0,6.0,64.0
3911,50.0,28.0,90.0,10.0,64.0
3912,58.0,26.0,60.0,4.0,64.0
3913,58.0,8.0,40.0,6.0,64.0
3914,58.0,42.0,40.0,5.0,64.0
3915,53.0,139.0,90.0,10.0,64.0
3916,65.0,2.0,150.0,4.0,64.0
3917,65.0,11.0,150.0,6.0,64.0
3918,65.0,6.0,150.0,5.0,64.0
3919,62.0,117.0,150.0,7.0,64.0
3920,58.0,19.0,120.0,8.0,64.0
3921,62.0,3.0,150.0,1.0,64.0
3922,58.0,9.0,90.0,2.0,64.0
3923,65.0,4.0,90.0,0.0,64.0
3924,58.0,77.0,630.0,10.0,64.0
3925,46.0,5.0,90.0,3.0,64.0
3926,77.0,3.0,60.0,6.0,64.0
3927,77.0,6.0,40.0,5.0,64.0
3928,74.0,2.0,40.0,1.0,64.0
3929,74.0,11.0,60.0,7.0,64.0
3930,77.0,7.0,60.0,0.0,64.0
3931,77.0,18.0,40.0,4.0,64.0
3932,58.0,63.0,60.0,8.0,64.0
3933,46.0,0.0,60.0,3.0,64.0
3934,58.0,3.0,60.0,2.0,64.0
3935,74.0,0.0,60.0,6.0,64.0
3936,74.0,6.0,40.0,5.0,64.0
3937,74.0,7.0,60.0,0.0,64.0
3938,70.0,5.0,40.0,1.0,64.0
3939,74.0,9.0,60.0,4.0,64.0
3940,70.0,213.0,60.0,7.0,64.0
3941,75.0,2.0,300.0,6.0,64.0
3942,75.0,5.0,300.0,0.0,64.0
3943,75.0,11.0,240.0,4.0,64.0
3944,75.0,4.0,270.0,5.0,64.0
3945,65.0,14.0,300.0,8.0,64.0
3946,72.0,7.0,270.0,1.0,64.0
3947,65.0,5.0,270.0,2.0,64.0
3948,72.0,6.0,270.0,7.0,64.0
3949,41.0,25.0,120.0,3.0,64.0
3950,57.0,112.0,60.0,10.0,64.0
3951,55.0,149.0,90.0,10.0,64.0
3952,65.0,117.0,180.0,4.0,64.0
3953,57.0,8.0,90.0,10.0,64.0
3954,65.0,1.0,180.0,5.0,64.0
3955,65.0,39.0,120.0,8.0,64.0
3956,65.0,12.0,150.0,6.0,64.0
3957,65.0,13.0,150.0,1.0,64.0
3958,65.0,3.0,90.0,2.0,64.0
3959,41.0,4.0,90.0,3.0,64.0
3960,65.0,11.0,90.0,0.0,64.0
3961,60.0,1.0,150.0,7.0,64.0
3962,72.0,2.0,60.0,7.0,64.0
3963,75.0,2.0,60.0,0.0,64.0
3964,53.0,16.0,90.0,10.0,64.0
3965,65.0,2.0,60.0,2.0,64.0
3966,75.0,11.0,60.0,6.0,64.0
3967,65.0,21.0,90.0,8.0,64.0
3968,75.0,0.0,40.0,5.0,64.0
3969,75.0,5.0,60.0,4.0,64.0
3970,41.0,44.0,90.0,3.0,64.0
3971,72.0,2.0,60.0,1.0,64.0
3972,69.0,7.0,60.0,7.0,64.0
3973,72.0,3.0,40.0,0.0,64.0
3974,65.0,5.0,60.0,1.0,64.0
3975,72.0,2.0,60.0,5.0,64.0
3976,72.0,166.0,60.0,6.0,64.0
3977,72.0,2.0,40.0,4.0,64.0
3978,74.0,2.0,300.0,0.0,64.0
3979,58.0,8.0,270.0,2.0,64.0
3980,65.0,1.0,270.0,1.0,64.0
3981,46.0,144.0,120.0,3.0,64.0
3982,65.0,54.0,300.0,8.0,64.0
3983,70.0,4.0,270.0,7.0,64.0
3984,74.0,4.0,270.0,6.0,64.0
3985,58.0,22.0,90.0,10.0,64.0
3986,74.0,5.0,270.0,4.0,64.0
3987,74.0,1.0,270.0,5.0,64.0
3988,57.0,219.0,120.0,10.0,64.0
3989,55.0,18.0,90.0,10.0,64.0
3990,76.0,22.0,150.0,5.0,64.0
3991,76.0,90.0,180.0,6.0,64.0
3992,67.0,8.0,90.0,8.0,64.0
3993,76.0,10.0,180.0,4.0,64.0
3994,70.0,50.0,90.0,7.0,64.0
3995,79.0,6.0,60.0,5.0,64.0
3996,79.0,12.0,40.0,4.0,64.0
3997,67.0,11.0,90.0,7.0,64.0
3998,79.0,26.0,60.0,6.0,64.0
3999,64.0,38.0,90.0,8.0,64.0
4000,60.0,10.0,90.0,10.0,64.0
4001,76.0,9.0,40.0,5.0,64.0
4002,76.0,20.0,40.0,4.0,64.0
4003,76.0,158.0,40.0,6.0,64.0
4004,77.0,22.0,180.0,4.0,64.0
4005,77.0,4.0,180.0,5.0,64.0
4006,72.0,9.0,210.0,7.0,64.0
4007,60.0,79.0,90.0,8.0,64.0
4008,77.0,0.0,180.0,6.0,64.0
4009,57.0,80.0,210.0,10.0,64.0
4010,76.0,11.0,60.0,4.0,64.0
4011,55.0,1.0,90.0,10.0,64.0
4012,76.0,9.0,60.0,5.0,64.0
4013,76.0,12.0,60.0,6.0,64.0
4014,70.0,25.0,60.0,7.0,64.0
4015,60.0,60.0,90.0,8.0,64.0
4016,74.0,1.0,60.0,4.0,64.0
4017,53.0,11.0,60.0,10.0,64.0
4018,74.0,0.0,60.0,5.0,64.0
4019,74.0,0.0,60.0,6.0,64.0
4020,69.0,123.0,60.0,7.0,64.0
4021,72.0,0.0,90.0,4.0,64.0
4022,72.0,20.0,90.0,5.0,64.0
4023,72.0,12.0,60.0,6.0,64.0
4024,52.0,20.0,120.0,10.0,64.0
4025,67.0,5.0,90.0,7.0,64.0
4026,60.0,43.0,90.0,8.0,64.0
4027,74.0,155.0,60.0,4.0,64.0
4028,74.0,0.0,60.0,6.0,64.0
4029,74.0,0.0,60.0,5.0,64.0
4030,48.0,9.0,90.0,10.0,64.0
4031,70.0,5.0,90.0,4.0,64.0
4032,70.0,2.0,90.0,5.0,64.0
4033,70.0,2.0,90.0,6.0,64.0
4034,64.0,6.0,90.0,7.0,64.0
4035,60.0,221.0,90.0,8.0,64.0
4036,69.0,0.0,180.0,4.0,64.0
4037,69.0,7.0,180.0,5.0,64.0
4038,53.0,83.0,90.0,10.0,64.0
4039,65.0,7.0,180.0,7.0,64.0
4040,69.0,97.0,180.0,6.0,64.0
4041,60.0,2.0,150.0,8.0,64.0
4042,74.0,7.0,60.0,4.0,64.0
4043,74.0,2.0,60.0,5.0,64.0
4044,74.0,40.0,60.0,6.0,64.0
4045,46.0,7.0,90.0,10.0,64.0
4046,65.0,19.0,120.0,7.0,64.0
4047,58.0,31.0,90.0,8.0,64.0
4048,70.0,7.0,60.0,4.0,64.0
4049,70.0,167.0,60.0,6.0,64.0
4050,70.0,1.0,60.0,5.0,64.0
4051,72.0,11.0,180.0,4.0,64.0
4052,45.0,5.0,90.0,10.0,64.0
4053,72.0,14.0,180.0,5.0,64.0
4054,72.0,115.0,180.0,6.0,64.0
4055,53.0,0.0,90.0,8.0,64.0
4056,65.0,67.0,90.0,7.0,64.0
4057,65.0,10.0,90.0,7.0,64.0
4058,50.0,22.0,90.0,10.0,64.0
4059,70.0,0.0,60.0,4.0,64.0
4060,70.0,6.0,60.0,5.0,64.0
4061,53.0,65.0,90.0,8.0,64.0
4062,70.0,2.0,60.0,6.0,64.0
4063,69.0,0.0,60.0,4.0,64.0
4064,69.0,115.0,60.0,5.0,64.0
4065,69.0,4.0,40.0,6.0,64.0
4066,67.0,37.0,60.0,4.0,64.0
4067,62.0,2.0,180.0,7.0,64.0
4068,67.0,10.0,90.0,6.0,64.0
4069,67.0,5.0,90.0,5.0,64.0
4070,46.0,52.0,90.0,10.0,64.0
4071,58.0,108.0,180.0,8.0,64.0
4072,69.0,14.0,60.0,4.0,64.0
4073,69.0,11.0,60.0,6.0,64.0
4074,69.0,4.0,60.0,5.0,64.0
4075,65.0,8.0,60.0,4.0,64.0
4076,65.0,19.0,60.0,5.0,64.0
4077,65.0,7.0,90.0,6.0,64.0
4078,62.0,0.0,120.0,7.0,64.0
4079,43.0,205.0,90.0,10.0,64.0
4080,58.0,18.0,90.0,8.0,64.0
4081,60.0,4.0,90.0,4.0,64.0
4082,57.0,9.0,90.0,8.0,64.0
4083,60.0,1.0,90.0,5.0,64.0
4084,60.0,217.0,90.0,7.0,64.0
4085,60.0,4.0,90.0,6.0,64.0
4086,48.0,4.0,90.0,10.0,64.0
4087,64.0,7.0,60.0,4.0,64.0
4088,55.0,2.0,90.0,8.0,64.0
4089,36.0,6.0,60.0,10.0,64.0
4090,64.0,409.0,90.0,5.0,64.0
4091,64.0,14.0,90.0,6.0,64.0
4092,60.0,5.0,60.0,7.0,64.0
4093,65.0,11.0,240.0,4.0,64.0
4094,65.0,18.0,270.0,5.0,64.0
4095,65.0,2.0,270.0,6.0,64.0
4096,41.0,2.0,270.0,10.0,64.0
4097,60.0,286.0,270.0,7.0,64.0
4098,57.0,0.0,270.0,8.0,64.0
4099,58.0,2.0,90.0,2.0,64.0
4100,58.0,1.0,150.0,8.0,64.0
4101,62.0,16.0,150.0,7.0,64.0
4102,46.0,46.0,90.0,3.0,64.0
4103,65.0,121.0,150.0,4.0,64.0
4104,65.0,3.0,120.0,0.0,64.0
4105,65.0,6.0,150.0,5.0,64.0
4106,65.0,1.0,150.0,6.0,64.0
4107,58.0,0.0,570.0,10.0,64.0
4108,62.0,0.0,120.0,1.0,64.0
4109,74.0,18.0,60.0,7.0,64.0
4110,77.0,1.0,60.0,5.0,64.0
4111,77.0,4.0,60.0,0.0,64.0
4112,58.0,70.0,90.0,2.0,64.0
4113,46.0,3.0,90.0,3.0,64.0
4114,77.0,5.0,60.0,4.0,64.0
4115,74.0,1.0,60.0,1.0,64.0
4116,77.0,0.0,60.0,6.0,64.0
4117,58.0,2.0,60.0,8.0,64.0
4118,74.0,8.0,40.0,5.0,64.0
4119,70.0,2.0,60.0,7.0,64.0
4120,74.0,4.0,40.0,0.0,64.0
4121,70.0,3.0,40.0,1.0,64.0
4122,74.0,0.0,60.0,6.0,64.0
4123,74.0,171.0,60.0,4.0,64.0
4124,65.0,4.0,270.0,2.0,64.0
4125,74.0,4.0,120.0,5.0,64.0
4126,65.0,0.0,270.0,8.0,64.0
4127,74.0,5.0,120.0,4.0,64.0
4128,41.0,146.0,120.0,3.0,64.0
4129,70.0,6.0,90.0,7.0,64.0
4130,74.0,3.0,120.0,6.0,64.0
4131,70.0,3.0,90.0,1.0,64.0
4132,74.0,7.0,90.0,0.0,64.0
4133,72.0,10.0,210.0,7.0,64.0
4134,75.0,18.0,180.0,4.0,64.0
4135,72.0,85.0,210.0,1.0,64.0
4136,75.0,1.0,180.0,5.0,64.0
4137,75.0,3.0,180.0,0.0,64.0
4138,75.0,14.0,180.0,6.0,64.0
4139,57.0,7.0,60.0,10.0,64.0
4140,55.0,164.0,90.0,10.0,64.0
4141,41.0,7.0,90.0,3.0,64.0
4142,60.0,5.0,150.0,7.0,64.0
4143,57.0,6.0,120.0,10.0,64.0
4144,65.0,2.0,150.0,5.0,64.0
4145,65.0,1.0,150.0,6.0,64.0
4146,65.0,23.0,120.0,2.0,64.0
4147,65.0,5.0,120.0,4.0,64.0
4148,65.0,28.0,150.0,1.0,64.0
4149,65.0,99.0,180.0,8.0,64.0
4150,65.0,8.0,120.0,0.0,64.0
4151,72.0,3.0,60.0,7.0,64.0
4152,75.0,5.0,40.0,5.0,64.0
4153,75.0,0.0,60.0,4.0,64.0
4154,75.0,4.0,60.0,6.0,64.0
4155,53.0,5.0,90.0,10.0,64.0
4156,72.0,5.0,40.0,1.0,64.0
4157,75.0,21.0,60.0,0.0,64.0
4158,65.0,9.0,90.0,2.0,64.0
4159,65.0,4.0,90.0,8.0,64.0
4160,41.0,55.0,90.0,3.0,64.0
4161,69.0,184.0,60.0,7.0,64.0
4162,72.0,5.0,40.0,5.0,64.0
4163,65.0,0.0,40.0,1.0,64.0
4164,72.0,4.0,60.0,4.0,64.0
4165,72.0,3.0,40.0,0.0,64.0
4166,72.0,1.0,40.0,6.0,64.0
4167,58.0,62.0,180.0,10.0,64.0
4168,69.0,16.0,120.0,7.0,64.0
4169,65.0,6.0,240.0,1.0,64.0
4170,72.0,1.0,120.0,4.0,64.0
4171,72.0,0.0,120.0,6.0,64.0
4172,58.0,36.0,240.0,2.0,64.0
4173,72.0,52.0,120.0,5.0,64.0
4174,65.0,20.0,270.0,8.0,64.0
4175,72.0,2.0,120.0,0.0,64.0
4176,46.0,6.0,120.0,3.0,64.0
4177,74.0,1.0,210.0,5.0,64.0
4178,74.0,74.0,210.0,6.0,64.0
4179,70.0,5.0,210.0,7.0,64.0
4180,74.0,7.0,210.0,0.0,64.0
4181,74.0,4.0,180.0,4.0,64.0
4182,46.0,1.0,60.0,10.0,64.0
4183,48.0,180.0,60.0,10.0,64.0
4184,50.0,9.0,180.0,10.0,64.0
4185,58.0,23.0,90.0,7.0,64.0
4186,65.0,45.0,120.0,8.0,64.0
4187,65.0,0.0,150.0,6.0,64.0
4188,65.0,4.0,150.0,5.0,64.0
4189,65.0,106.0,150.0,4.0,64.0
4190,72.0,2.0,60.0,6.0,64.0
4191,72.0,4.0,60.0,5.0,64.0
4192,60.0,67.0,90.0,7.0,64.0
4193,72.0,27.0,40.0,4.0,64.0
4194,57.0,2.0,90.0,8.0,64.0
4195,51.0,12.0,60.0,10.0,64.0
4196,69.0,14.0,60.0,6.0,64.0
4197,69.0,7.0,60.0,4.0,64.0
4198,69.0,0.0,60.0,5.0,64.0
4199,48.0,159.0,60.0,10.0,64.0
4200,53.0,5.0,120.0,7.0,64.0
4201,50.0,63.0,120.0,10.0,64.0
4202,70.0,1.0,180.0,4.0,64.0
4203,70.0,115.0,180.0,5.0,64.0
4204,70.0,6.0,180.0,6.0,64.0
4205,62.0,13.0,150.0,8.0,64.0
4206,58.0,12.0,120.0,7.0,64.0
4207,69.0,7.0,60.0,4.0,64.0
4208,69.0,4.0,90.0,6.0,64.0
4209,51.0,4.0,90.0,10.0,64.0
4210,69.0,11.0,60.0,5.0,64.0
4211,60.0,68.0,90.0,8.0,64.0
4212,67.0,15.0,60.0,4.0,64.0
4213,67.0,3.0,90.0,6.0,64.0
4214,67.0,124.0,90.0,5.0,64.0
4215,65.0,14.0,90.0,4.0,64.0
4216,65.0,5.0,90.0,5.0,64.0
4217,65.0,10.0,120.0,6.0,64.0
4218,58.0,6.0,90.0,7.0,64.0
4219,62.0,1.0,60.0,8.0,64.0
4220,53.0,65.0,90.0,10.0,64.0
4221,67.0,3.0,90.0,4.0,64.0
4222,67.0,118.0,90.0,6.0,64.0
4223,67.0,9.0,60.0,5.0,64.0
4224,63.0,2.0,120.0,5.0,64.0
4225,63.0,7.0,90.0,4.0,64.0
4226,63.0,189.0,120.0,6.0,64.0
4227,60.0,8.0,90.0,8.0,64.0
4228,57.0,11.0,90.0,7.0,64.0
4229,41.0,8.0,60.0,10.0,64.0
4230,63.0,10.0,60.0,4.0,64.0
4231,63.0,8.0,60.0,5.0,64.0
4232,63.0,12.0,90.0,6.0,64.0
4233,58.0,20.0,270.0,8.0,64.0
4234,46.0,18.0,180.0,10.0,64.0
4235,53.0,15.0,240.0,7.0,64.0
4236,62.0,2.0,40.0,4.0,64.0
4237,62.0,7.0,40.0,5.0,64.0
4238,62.0,74.0,40.0,6.0,64.0
4239,63.0,4.0,90.0,5.0,64.0
4240,63.0,20.0,90.0,6.0,64.0
4241,63.0,9.0,60.0,4.0,64.0
4242,62.0,25.0,90.0,4.0,64.0
4243,62.0,18.0,90.0,6.0,64.0
4244,62.0,3.0,90.0,5.0,64.0
4245,60.0,3.0,90.0,4.0,64.0
4246,60.0,78.0,90.0,6.0,64.0
4247,60.0,7.0,60.0,5.0,64.0
4248,50.0,11.0,60.0,10.0,64.0
4249,53.0,151.0,60.0,10.0,64.0
4250,58.0,3.0,60.0,4.0,64.0
4251,58.0,4.0,40.0,5.0,64.0
4252,58.0,7.0,40.0,6.0,64.0
4253,58.0,7.0,180.0,8.0,64.0
4254,58.0,102.0,660.0,10.0,64.0
4255,46.0,22.0,90.0,3.0,64.0
4256,62.0,95.0,180.0,7.0,64.0
4257,65.0,6.0,150.0,6.0,64.0
4258,65.0,11.0,150.0,5.0,64.0
4259,65.0,11.0,180.0,4.0,64.0
4260,58.0,33.0,90.0,2.0,64.0
4261,65.0,12.0,120.0,0.0,64.0
4262,62.0,1.0,150.0,1.0,64.0
4263,77.0,3.0,60.0,6.0,64.0
4264,77.0,2.0,60.0,0.0,64.0
4265,77.0,4.0,60.0,5.0,64.0
4266,74.0,0.0,60.0,1.0,64.0
4267,46.0,6.0,60.0,3.0,64.0
4268,77.0,18.0,60.0,4.0,64.0
4269,58.0,9.0,90.0,2.0,64.0
4270,74.0,7.0,60.0,7.0,64.0
4271,58.0,65.0,90.0,8.0,64.0
4272,70.0,1.0,60.0,1.0,64.0
4273,74.0,2.0,60.0,4.0,64.0
4274,70.0,171.0,60.0,7.0,64.0
4275,74.0,8.0,40.0,5.0,64.0
4276,74.0,0.0,60.0,6.0,64.0
4277,74.0,5.0,60.0,0.0,64.0
4278,74.0,39.0,150.0,4.0,64.0
4279,74.0,9.0,120.0,5.0,64.0
4280,70.0,8.0,120.0,1.0,64.0
4281,70.0,4.0,120.0,7.0,64.0
4282,65.0,0.0,270.0,2.0,64.0
4283,41.0,2.0,120.0,3.0,64.0
4284,74.0,4.0,120.0,6.0,64.0
4285,74.0,0.0,120.0,0.0,64.0
4286,65.0,13.0,270.0,8.0,64.0
4287,75.0,0.0,180.0,4.0,64.0
4288,75.0,85.0,210.0,6.0,64.0
4289,72.0,5.0,180.0,1.0,64.0
4290,72.0,9.0,180.0,7.0,64.0
4291,75.0,8.0,150.0,0.0,64.0
4292,75.0,3.0,210.0,5.0,64.0
4293,57.0,13.0,60.0,10.0,64.0
4294,55.0,146.0,90.0,10.0,64.0
4295,65.0,21.0,150.0,6.0,64.0
4296,60.0,2.0,150.0,7.0,64.0
4297,65.0,0.0,150.0,4.0,64.0
4298,65.0,119.0,180.0,5.0,64.0
4299,57.0,9.0,90.0,10.0,64.0
4300,65.0,1.0,180.0,1.0,64.0
4301,41.0,45.0,90.0,3.0,64.0
4302,65.0,5.0,150.0,8.0,64.0
4303,65.0,6.0,120.0,2.0,64.0
4304,65.0,1.0,120.0,0.0,64.0
4305,72.0,0.0,60.0,7.0,64.0
4306,53.0,6.0,90.0,10.0,64.0
4307,75.0,3.0,60.0,4.0,64.0
4308,75.0,4.0,60.0,6.0,64.0
4309,75.0,6.0,60.0,5.0,64.0
4310,72.0,0.0,40.0,1.0,64.0
4311,75.0,14.0,60.0,0.0,64.0
4312,65.0,65.0,90.0,2.0,64.0
4313,41.0,5.0,60.0,3.0,64.0
4314,65.0,7.0,60.0,8.0,64.0
4315,65.0,1.0,60.0,1.0,64.0
4316,72.0,2.0,40.0,6.0,64.0
4317,69.0,0.0,60.0,7.0,64.0
4318,72.0,7.0,40.0,4.0,64.0
4319,72.0,176.0,60.0,0.0,64.0
4320,72.0,1.0,40.0,5.0,64.0
4321,69.0,3.0,120.0,7.0,64.0
4322,58.0,0.0,120.0,10.0,64.0
4323,72.0,3.0,120.0,4.0,64.0
4324,72.0,0.0,120.0,6.0,64.0
4325,65.0,19.0,240.0,1.0,64.0
4326,46.0,18.0,90.0,3.0,64.0
4327,72.0,7.0,120.0,5.0,64.0
4328,65.0,15.0,300.0,8.0,64.0
4329,58.0,15.0,270.0,2.0,64.0
4330,72.0,113.0,120.0,0.0,64.0
4331,74.0,21.0,180.0,4.0,64.0
4332,70.0,9.0,180.0,7.0,64.0
4333,74.0,16.0,210.0,6.0,64.0
4334,74.0,0.0,210.0,5.0,64.0
4335,74.0,5.0,210.0,0.0,64.0
4336,57.0,220.0,120.0,10.0,64.0
4337,55.0,2.0,90.0,10.0,64.0
4338,76.0,9.0,180.0,6.0,64.0
4339,76.0,13.0,150.0,5.0,64.0
4340,67.0,36.0,90.0,8.0,64.0
4341,76.0,106.0,180.0,4.0,64.0
4342,70.0,37.0,120.0,7.0,64.0
4343,79.0,4.0,60.0,6.0,64.0
4344,60.0,8.0,90.0,10.0,64.0
4345,79.0,9.0,40.0,5.0,64.0
4346,79.0,23.0,60.0,4.0,64.0
4347,67.0,69.0,90.0,7.0,64.0
4348,64.0,1.0,90.0,8.0,64.0
4349,76.0,5.0,40.0,5.0,64.0
4350,76.0,15.0,40.0,6.0,64.0
4351,76.0,234.0,60.0,4.0,64.0
4352,60.0,14.0,180.0,8.0,64.0
4353,57.0,2.0,210.0,10.0,64.0
4354,77.0,2.0,180.0,6.0,64.0
4355,77.0,5.0,180.0,5.0,64.0
4356,72.0,111.0,180.0,7.0,64.0
4357,77.0,0.0,180.0,4.0,64.0
4358,55.0,2.0,90.0,10.0,64.0
4359,76.0,1.0,60.0,6.0,64.0
4360,70.0,27.0,90.0,7.0,64.0
4361,76.0,11.0,60.0,4.0,64.0
4362,76.0,1.0,60.0,5.0,64.0
4363,60.0,58.0,90.0,8.0,64.0
4364,53.0,10.0,60.0,10.0,64.0
4365,74.0,0.0,60.0,4.0,64.0
4366,69.0,129.0,60.0,7.0,64.0
4367,74.0,0.0,60.0,5.0,64.0
4368,74.0,4.0,60.0,6.0,64.0
4369,52.0,4.0,120.0,10.0,64.0
4370,72.0,1.0,60.0,5.0,64.0
4371,72.0,9.0,60.0,4.0,64.0
4372,67.0,63.0,120.0,7.0,64.0
4373,72.0,16.0,90.0,6.0,64.0
4374,60.0,3.0,90.0,8.0,64.0
4375,74.0,5.0,60.0,5.0,64.0
4376,74.0,151.0,60.0,4.0,64.0
4377,74.0,4.0,60.0,6.0,64.0
4378,48.0,7.0,90.0,10.0,64.0
4379,70.0,1.0,120.0,4.0,64.0
4380,70.0,1.0,90.0,5.0,64.0
4381,60.0,6.0,90.0,8.0,64.0
4382,70.0,247.0,90.0,6.0,64.0
4383,64.0,1.0,90.0,7.0,64.0
4384,69.0,15.0,180.0,5.0,64.0
4385,69.0,7.0,180.0,4.0,64.0
4386,69.0,101.0,180.0,6.0,64.0
4387,53.0,14.0,90.0,10.0,64.0
4388,65.0,22.0,120.0,7.0,64.0
4389,60.0,23.0,120.0,8.0,64.0
4390,74.0,2.0,60.0,6.0,64.0
4391,74.0,40.0,60.0,4.0,64.0
4392,74.0,3.0,60.0,5.0,64.0
4393,46.0,27.0,90.0,10.0,64.0
4394,58.0,0.0,90.0,8.0,64.0
4395,65.0,36.0,120.0,7.0,64.0
4396,70.0,2.0,60.0,5.0,64.0
4397,70.0,151.0,60.0,6.0,64.0
4398,70.0,5.0,60.0,4.0,64.0
4399,53.0,18.0,90.0,8.0,64.0
4400,45.0,7.0,90.0,10.0,64.0
4401,72.0,13.0,180.0,4.0,64.0
4402,72.0,102.0,180.0,6.0,64.0
4403,65.0,65.0,90.0,7.0,64.0
4404,72.0,2.0,180.0,5.0,64.0
4405,70.0,15.0,60.0,4.0,64.0
4406,70.0,7.0,60.0,5.0,64.0
4407,50.0,4.0,90.0,10.0,64.0
4408,65.0,61.0,90.0,7.0,64.0
4409,53.0,0.0,90.0,8.0,64.0
4410,70.0,32.0,60.0,6.0,64.0
4411,69.0,5.0,60.0,4.0,64.0
4412,69.0,13.0,60.0,5.0,64.0
4413,69.0,142.0,60.0,6.0,64.0
4414,67.0,5.0,90.0,4.0,64.0
4415,67.0,20.0,90.0,5.0,64.0
4416,67.0,0.0,90.0,6.0,64.0
4417,62.0,4.0,120.0,7.0,64.0
4418,46.0,50.0,120.0,10.0,64.0
4419,58.0,4.0,180.0,8.0,64.0
4420,69.0,11.0,60.0,4.0,64.0
4421,69.0,115.0,90.0,6.0,64.0
4422,69.0,7.0,60.0,5.0,64.0
4423,65.0,17.0,90.0,4.0,64.0
4424,58.0,1.0,90.0,8.0,64.0
4425,65.0,2.0,90.0,6.0,64.0
4426,65.0,19.0,90.0,5.0,64.0
4427,62.0,4.0,90.0,7.0,64.0
4428,43.0,200.0,90.0,10.0,64.0
4429,60.0,15.0,90.0,4.0,64.0
4430,57.0,7.0,90.0,8.0,64.0
4431,60.0,9.0,90.0,6.0,64.0
4432,60.0,0.0,60.0,5.0,64.0
4433,60.0,201.0,90.0,7.0,64.0
4434,48.0,2.0,90.0,10.0,64.0
4435,55.0,16.0,60.0,8.0,64.0
4436,36.0,4.0,90.0,10.0,64.0
4437,64.0,2.0,60.0,4.0,64.0
4438,64.0,0.0,60.0,5.0,64.0
4439,64.0,11.0,90.0,6.0,64.0
4440,60.0,390.0,90.0,7.0,64.0
4441,65.0,4.0,240.0,4.0,64.0
4442,65.0,20.0,240.0,5.0,64.0
4443,65.0,320.0,270.0,6.0,64.0
4444,57.0,4.0,270.0,8.0,64.0
4445,41.0,0.0,270.0,10.0,64.0
4446,60.0,1.0,240.0,7.0,64.0
4447,60.0,25.0,150.0,7.0,64.0
4448,57.0,5.0,120.0,8.0,64.0
4449,41.0,13.0,120.0,10.0,64.0
4450,72.0,3.0,150.0,4.0,64.0
4451,72.0,5.0,150.0,6.0,64.0
4452,72.0,136.0,150.0,5.0,64.0
4453,60.0,5.0,60.0,6.0,64.0
4454,72.0,0.0,90.0,7.0,64.0
4455,53.0,41.0,90.0,8.0,64.0
4456,60.0,0.0,60.0,5.0,64.0
4457,60.0,26.0,60.0,4.0,64.0
4458,45.0,43.0,120.0,10.0,64.0
4459,63.0,12.0,60.0,6.0,64.0
4460,63.0,181.0,90.0,4.0,64.0
4461,63.0,10.0,60.0,5.0,64.0
4462,62.0,15.0,270.0,6.0,64.0
4463,72.0,52.0,180.0,7.0,64.0
4464,53.0,36.0,240.0,8.0,64.0
4465,62.0,0.0,270.0,4.0,64.0
4466,62.0,39.0,300.0,5.0,64.0
4467,46.0,51.0,120.0,10.0,64.0
4468,62.0,9.0,90.0,7.0,64.0
4469,55.0,38.0,90.0,8.0,64.0
4470,45.0,56.0,120.0,10.0,64.0
4471,60.0,112.0,90.0,7.0,64.0
4472,57.0,5.0,90.0,8.0,64.0
4473,62.0,30.0,90.0,7.0,64.0
4474,70.0,136.0,180.0,4.0,64.0
4475,43.0,15.0,90.0,10.0,64.0
4476,70.0,22.0,150.0,5.0,64.0
4477,70.0,6.0,150.0,6.0,64.0
4478,58.0,34.0,120.0,8.0,64.0
4479,62.0,2.0,90.0,5.0,64.0
4480,62.0,4.0,90.0,4.0,64.0
4481,62.0,5.0,90.0,6.0,64.0
4482,74.0,12.0,60.0,7.0,64.0
4483,46.0,54.0,90.0,10.0,64.0
4484,55.0,2.0,90.0,8.0,64.0
4485,65.0,2.0,40.0,4.0,64.0
4486,65.0,27.0,40.0,5.0,64.0
4487,65.0,185.0,60.0,6.0,64.0
4488,74.0,85.0,210.0,7.0,64.0
4489,63.0,0.0,270.0,4.0,64.0
4490,63.0,14.0,270.0,5.0,64.0
4491,63.0,61.0,300.0,6.0,64.0
4492,48.0,74.0,120.0,10.0,64.0
4493,55.0,2.0,330.0,8.0,64.0
4494,46.0,53.0,120.0,10.0,64.0
4495,63.0,5.0,120.0,7.0,64.0
4496,62.0,176.0,60.0,7.0,64.0
4497,69.0,1.0,180.0,4.0,64.0
4498,63.0,10.0,120.0,7.0,64.0
4499,48.0,36.0,120.0,10.0,64.0
4500,69.0,123.0,150.0,6.0,64.0
4501,69.0,8.0,150.0,5.0,64.0
4502,60.0,4.0,90.0,8.0,64.0
4503,66.0,0.0,60.0,6.0,64.0
4504,66.0,45.0,60.0,5.0,64.0
4505,66.0,2.0,60.0,4.0,64.0
4506,62.0,14.0,90.0,7.0,64.0
4507,50.0,34.0,120.0,10.0,64.0
4508,60.0,18.0,90.0,8.0,64.0
4509,69.0,7.0,60.0,5.0,64.0
4510,69.0,180.0,60.0,6.0,64.0
4511,69.0,4.0,60.0,4.0,64.0
4512,67.0,2.0,180.0,5.0,64.0
4513,67.0,135.0,180.0,6.0,64.0
4514,67.0,4.0,180.0,4.0,64.0
4515,58.0,16.0,120.0,8.0,64.0
4516,51.0,36.0,120.0,10.0,64.0
4517,67.0,0.0,120.0,7.0,64.0
4518,69.0,36.0,90.0,4.0,64.0
4519,50.0,8.0,120.0,10.0,64.0
4520,69.0,0.0,90.0,5.0,64.0
4521,62.0,54.0,120.0,8.0,64.0
4522,66.0,7.0,120.0,7.0,64.0
4523,69.0,1.0,60.0,6.0,64.0
4524,70.0,11.0,90.0,4.0,64.0
4525,70.0,9.0,90.0,6.0,64.0
4526,70.0,90.0,90.0,5.0,64.0
4527,69.0,5.0,60.0,4.0,64.0
4528,69.0,17.0,90.0,6.0,64.0
4529,69.0,14.0,60.0,5.0,64.0
4530,67.0,12.0,90.0,7.0,64.0
4531,60.0,52.0,120.0,8.0,64.0
4532,51.0,15.0,90.0,10.0,64.0
4533,67.0,2.0,60.0,4.0,64.0
4534,67.0,12.0,60.0,5.0,64.0
4535,67.0,135.0,60.0,6.0,64.0
4536,75.0,9.0,120.0,4.0,64.0
4537,58.0,5.0,90.0,8.0,64.0
4538,48.0,11.0,90.0,10.0,64.0
4539,75.0,0.0,120.0,5.0,64.0
4540,67.0,11.0,90.0,7.0,64.0
4541,75.0,180.0,120.0,6.0,64.0
4542,77.0,17.0,60.0,4.0,64.0
4543,67.0,47.0,180.0,7.0,64.0
4544,50.0,7.0,180.0,10.0,64.0
4545,77.0,1.0,60.0,6.0,64.0
4546,57.0,85.0,330.0,8.0,64.0
4547,77.0,43.0,60.0,5.0,64.0
4548,75.0,0.0,60.0,6.0,64.0
4549,75.0,42.0,60.0,4.0,64.0
4550,75.0,2.0,150.0,5.0,64.0
4551,77.0,9.0,60.0,6.0,64.0
4552,77.0,0.0,60.0,4.0,64.0
4553,77.0,5.0,40.0,5.0,64.0
4554,75.0,2.0,90.0,6.0,64.0
4555,75.0,72.0,90.0,4.0,64.0
4556,74.0,5.0,120.0,5.0,64.0
4557,74.0,6.0,90.0,6.0,64.0
4558,74.0,5.0,90.0,4.0,64.0
4559,52.0,18.0,60.0,10.0,64.0
4560,66.0,9.0,90.0,7.0,64.0
4561,54.0,158.0,90.0,10.0,64.0
4562,62.0,0.0,150.0,6.0,64.0
4563,62.0,4.0,150.0,4.0,64.0
4564,62.0,40.0,150.0,5.0,64.0
4565,55.0,5.0,120.0,10.0,64.0
4566,62.0,115.0,180.0,0.0,64.0
4567,55.0,22.0,120.0,8.0,64.0
4568,58.0,5.0,90.0,7.0,64.0
4569,74.0,4.0,60.0,4.0,64.0
4570,53.0,4.0,90.0,10.0,64.0
4571,74.0,5.0,60.0,6.0,64.0
4572,74.0,18.0,60.0,5.0,64.0
4573,70.0,3.0,60.0,7.0,64.0
4574,74.0,9.0,60.0,0.0,64.0
4575,55.0,59.0,90.0,8.0,64.0
4576,70.0,5.0,60.0,4.0,64.0
4577,70.0,3.0,60.0,6.0,64.0
4578,70.0,202.0,60.0,5.0,64.0
4579,70.0,1.0,40.0,0.0,64.0
4580,72.0,0.0,270.0,4.0,64.0
4581,52.0,61.0,120.0,10.0,64.0
4582,72.0,45.0,270.0,6.0,64.0
4583,72.0,5.0,270.0,5.0,64.0
4584,70.0,70.0,180.0,7.0,64.0
4585,55.0,6.0,180.0,8.0,64.0
4586,72.0,28.0,330.0,0.0,64.0
4587,57.0,67.0,120.0,10.0,64.0
4588,69.0,4.0,90.0,7.0,64.0
4589,54.0,13.0,60.0,8.0,64.0
4590,67.0,16.0,90.0,7.0,64.0
4591,57.0,123.0,90.0,8.0,64.0
4592,54.0,29.0,120.0,10.0,64.0
4593,69.0,19.0,90.0,7.0,64.0
4594,62.0,2.0,150.0,5.0,64.0
4595,62.0,1.0,150.0,6.0,64.0
4596,62.0,13.0,90.0,8.0,64.0
4597,62.0,12.0,120.0,4.0,64.0
4598,62.0,148.0,150.0,0.0,64.0
4599,66.0,7.0,90.0,7.0,64.0
4600,72.0,24.0,60.0,4.0,64.0
4601,72.0,8.0,60.0,6.0,64.0
4602,72.0,0.0,60.0,5.0,64.0
4603,50.0,48.0,120.0,10.0,64.0
4604,62.0,11.0,90.0,8.0,64.0
4605,72.0,1.0,60.0,0.0,64.0
4606,69.0,6.0,60.0,5.0,64.0
4607,69.0,2.0,60.0,6.0,64.0
4608,69.0,0.0,60.0,4.0,64.0
4609,74.0,174.0,40.0,0.0,64.0
4610,67.0,20.0,120.0,7.0,64.0
4611,70.0,18.0,150.0,5.0,64.0
4612,70.0,129.0,180.0,4.0,64.0
4613,70.0,8.0,150.0,6.0,64.0
4614,55.0,9.0,120.0,10.0,64.0
4615,62.0,14.0,120.0,8.0,64.0
4616,70.0,43.0,300.0,0.0,64.0
4617,58.0,4.0,90.0,7.0,64.0
4618,67.0,6.0,60.0,6.0,64.0
4619,67.0,0.0,60.0,5.0,64.0
4620,67.0,7.0,60.0,4.0,64.0
4621,51.0,54.0,120.0,10.0,64.0
4622,63.0,1.0,120.0,8.0,64.0
4623,70.0,8.0,60.0,6.0,64.0
4624,70.0,1.0,90.0,4.0,64.0
4625,70.0,119.0,90.0,5.0,64.0
4626,60.0,2.0,180.0,7.0,64.0
4627,69.0,2.0,90.0,5.0,64.0
4628,69.0,56.0,90.0,6.0,64.0
4629,69.0,4.0,60.0,4.0,64.0
4630,48.0,9.0,150.0,10.0,64.0
4631,63.0,25.0,120.0,8.0,64.0
4632,66.0,5.0,60.0,5.0,64.0
4633,66.0,0.0,60.0,4.0,64.0
4634,66.0,128.0,60.0,6.0,64.0
4635,67.0,84.0,120.0,6.0,64.0
4636,67.0,3.0,90.0,4.0,64.0
4637,67.0,3.0,90.0,5.0,64.0
4638,62.0,16.0,60.0,7.0,64.0
4639,46.0,6.0,90.0,10.0,64.0
4640,62.0,6.0,60.0,8.0,64.0
4641,63.0,16.0,90.0,7.0,64.0
4642,45.0,11.0,90.0,10.0,64.0
4643,60.0,122.0,90.0,8.0,64.0
4644,62.0,17.0,90.0,7.0,64.0
4645,74.0,0.0,210.0,4.0,64.0
4646,74.0,116.0,210.0,5.0,64.0
4647,46.0,57.0,120.0,10.0,64.0
4648,74.0,9.0,180.0,6.0,64.0
4649,58.0,20.0,120.0,8.0,64.0
4650,48.0,3.0,120.0,10.0,64.0
4651,67.0,10.0,90.0,7.0,64.0
4652,75.0,8.0,90.0,6.0,64.0
4653,75.0,0.0,90.0,5.0,64.0
4654,75.0,16.0,90.0,4.0,64.0
4655,57.0,85.0,120.0,8.0,64.0
4656,74.0,0.0,90.0,4.0,64.0
4657,74.0,7.0,90.0,6.0,64.0
4658,74.0,123.0,90.0,5.0,64.0
4659,50.0,2.0,90.0,10.0,64.0
4660,72.0,7.0,90.0,4.0,64.0
4661,72.0,15.0,90.0,6.0,64.0
4662,67.0,60.0,120.0,7.0,64.0
4663,72.0,1.0,90.0,5.0,64.0
4664,57.0,12.0,120.0,8.0,64.0
4665,70.0,97.0,90.0,5.0,64.0
4666,70.0,20.0,90.0,6.0,64.0
4667,70.0,3.0,90.0,4.0,64.0
4668,69.0,0.0,90.0,6.0,64.0
4669,38.0,6.0,90.0,10.0,64.0
4670,66.0,17.0,90.0,7.0,64.0
4671,69.0,1.0,90.0,4.0,64.0
4672,69.0,11.0,60.0,5.0,64.0
4673,62.0,63.0,90.0,8.0,64.0
4674,70.0,5.0,90.0,6.0,64.0
4675,70.0,9.0,60.0,5.0,64.0
4676,70.0,225.0,60.0,4.0,64.0
4677,43.0,92.0,180.0,10.0,64.0
4678,67.0,21.0,270.0,6.0,64.0
4679,67.0,9.0,270.0,5.0,64.0
4680,62.0,6.0,270.0,7.0,64.0
4681,67.0,3.0,240.0,4.0,64.0
4682,58.0,88.0,300.0,8.0,64.0
4683,53.0,31.0,60.0,10.0,64.0
4684,50.0,175.0,90.0,10.0,64.0
4685,51.0,52.0,660.0,10.0,64.0
4686,67.0,0.0,180.0,5.0,64.0
4687,63.0,118.0,180.0,7.0,64.0
4688,67.0,4.0,180.0,4.0,64.0
4689,67.0,9.0,180.0,6.0,64.0
4690,58.0,70.0,90.0,8.0,64.0
4691,79.0,1.0,90.0,5.0,64.0
4692,63.0,67.0,90.0,8.0,64.0
4693,79.0,1.0,60.0,6.0,64.0
4694,70.0,7.0,60.0,7.0,64.0
4695,79.0,17.0,60.0,4.0,64.0
4696,75.0,17.0,60.0,5.0,64.0
4697,67.0,220.0,60.0,7.0,64.0
4698,75.0,0.0,60.0,6.0,64.0
4699,75.0,2.0,60.0,4.0,64.0
4700,77.0,16.0,270.0,5.0,64.0
4701,77.0,4.0,270.0,4.0,64.0
4702,60.0,52.0,210.0,8.0,64.0
4703,77.0,11.0,300.0,6.0,64.0
4704,68.0,14.0,270.0,7.0,64.0
4705,50.0,43.0,90.0,10.0,64.0
4706,59.0,61.0,90.0,8.0,64.0
4707,48.0,39.0,90.0,10.0,64.0
4708,60.0,131.0,90.0,8.0,64.0
4709,47.0,30.0,120.0,10.0,64.0
4710,62.0,20.0,150.0,7.0,64.0
4711,67.0,13.0,180.0,5.0,64.0
4712,67.0,114.0,180.0,4.0,64.0
4713,62.0,16.0,90.0,8.0,64.0
4714,67.0,0.0,150.0,6.0,64.0
4715,74.0,2.0,60.0,7.0,64.0
4716,77.0,3.0,60.0,5.0,64.0
4717,59.0,77.0,90.0,8.0,64.0
4718,77.0,29.0,60.0,4.0,64.0
4719,77.0,1.0,60.0,6.0,64.0
4720,43.0,4.0,90.0,10.0,64.0
4721,71.0,0.0,60.0,7.0,64.0
4722,74.0,13.0,60.0,5.0,64.0
4723,74.0,2.0,60.0,4.0,64.0
4724,74.0,244.0,60.0,6.0,64.0
4725,72.0,9.0,300.0,7.0,64.0
4726,75.0,0.0,270.0,5.0,64.0
4727,75.0,2.0,300.0,6.0,64.0
4728,75.0,47.0,300.0,4.0,64.0
4729,55.0,86.0,330.0,8.0,64.0
4730,48.0,90.0,180.0,10.0,64.0
4731,50.0,2.0,90.0,10.0,64.0
4732,51.0,153.0,90.0,10.0,64.0
4733,53.0,4.0,90.0,10.0,64.0
4734,60.0,11.0,90.0,7.0,64.0
4735,69.0,6.0,180.0,6.0,64.0
4736,53.0,31.0,120.0,8.0,64.0
4737,69.0,5.0,180.0,4.0,64.0
4738,72.0,11.0,120.0,1.0,64.0
4739,69.0,4.0,150.0,5.0,64.0
4740,65.0,119.0,180.0,0.0,64.0
4741,41.0,3.0,90.0,3.0,64.0
4742,65.0,23.0,120.0,2.0,64.0
4743,72.0,4.0,90.0,7.0,64.0
4744,45.0,1.0,90.0,10.0,64.0
4745,75.0,23.0,60.0,6.0,64.0
4746,75.0,20.0,90.0,5.0,64.0
4747,75.0,0.0,60.0,4.0,64.0
4748,53.0,5.0,120.0,8.0,64.0
4749,75.0,6.0,60.0,0.0,64.0
4750,72.0,2.0,120.0,1.0,64.0
4751,41.0,3.0,90.0,3.0,64.0
4752,65.0,31.0,90.0,2.0,64.0
4753,72.0,6.0,40.0,4.0,64.0
4754,72.0,7.0,60.0,5.0,64.0
4755,72.0,157.0,60.0,6.0,64.0
4756,72.0,10.0,60.0,0.0,64.0
4757,74.0,16.0,180.0,4.0,64.0
4758,74.0,2.0,180.0,5.0,64.0
4759,46.0,9.0,120.0,10.0,64.0
4760,65.0,7.0,120.0,8.0,64.0
4761,70.0,40.0,120.0,7.0,64.0
4762,74.0,5.0,150.0,6.0,64.0
4763,74.0,31.0,180.0,0.0,64.0
4764,46.0,5.0,90.0,3.0,64.0
4765,70.0,85.0,210.0,1.0,64.0
4766,65.0,2.0,180.0,2.0,64.0
4767,43.0,19.0,120.0,10.0,64.0
4768,62.0,0.0,90.0,7.0,64.0
4769,72.0,6.0,60.0,6.0,64.0
4770,72.0,5.0,60.0,4.0,64.0
4771,72.0,8.0,90.0,5.0,64.0
4772,67.0,47.0,120.0,8.0,64.0
4773,72.0,17.0,60.0,0.0,64.0
4774,70.0,3.0,60.0,6.0,64.0
4775,70.0,2.0,60.0,4.0,64.0
4776,70.0,17.0,60.0,5.0,64.0
4777,70.0,106.0,60.0,0.0,64.0
4778,72.0,1.0,60.0,4.0,64.0
4779,72.0,8.0,60.0,6.0,64.0
4780,72.0,9.0,90.0,5.0,64.0
4781,67.0,0.0,120.0,7.0,64.0
4782,39.0,44.0,120.0,10.0,64.0
4783,60.0,4.0,120.0,8.0,64.0
4784,72.0,19.0,60.0,0.0,64.0
4785,46.0,18.0,90.0,3.0,64.0
4786,70.0,28.0,180.0,2.0,64.0
4787,79.0,74.0,210.0,1.0,64.0
4788,69.0,5.0,60.0,6.0,64.0
4789,69.0,3.0,60.0,4.0,64.0
4790,69.0,6.0,60.0,5.0,64.0
4791,74.0,19.0,60.0,0.0,64.0
4792,70.0,48.0,150.0,6.0,64.0
4793,70.0,2.0,120.0,4.0,64.0
4794,70.0,11.0,90.0,5.0,64.0
4795,40.0,2.0,90.0,10.0,64.0
4796,67.0,2.0,90.0,7.0,64.0
4797,72.0,24.0,60.0,0.0,64.0
4798,60.0,21.0,90.0,8.0,64.0
4799,74.0,107.0,60.0,0.0,64.0
4800,70.0,9.0,60.0,6.0,64.0
4801,70.0,2.0,60.0,4.0,64.0
4802,70.0,39.0,60.0,5.0,64.0
4803,65.0,2.0,270.0,7.0,64.0
4804,41.0,48.0,180.0,10.0,64.0
4805,72.0,0.0,150.0,0.0,64.0
4806,65.0,48.0,480.0,2.0,64.0
4807,60.0,32.0,330.0,8.0,64.0
4808,77.0,16.0,450.0,1.0,64.0
4809,41.0,27.0,90.0,3.0,64.0
4810,69.0,6.0,60.0,6.0,64.0
4811,69.0,9.0,60.0,4.0,64.0
4812,69.0,18.0,40.0,5.0,64.0
4813,70.0,17.0,90.0,4.0,64.0
4814,70.0,11.0,60.0,6.0,64.0
4815,70.0,1.0,60.0,5.0,64.0
4816,69.0,24.0,90.0,6.0,64.0
4817,69.0,5.0,90.0,5.0,64.0
4818,69.0,20.0,120.0,4.0,64.0
4819,67.0,7.0,90.0,6.0,64.0
4820,67.0,4.0,60.0,5.0,64.0
4821,67.0,23.0,60.0,4.0,64.0
4822,43.0,43.0,90.0,10.0,64.0
4823,65.0,1.0,150.0,0.0,64.0
4824,65.0,18.0,60.0,6.0,64.0
4825,45.0,1.0,60.0,10.0,64.0
4826,65.0,18.0,60.0,5.0,64.0
4827,65.0,51.0,60.0,4.0,64.0
4828,46.0,15.0,90.0,10.0,64.0
4829,77.0,2.0,150.0,6.0,64.0
4830,65.0,14.0,90.0,7.0,64.0
4831,77.0,12.0,150.0,5.0,64.0
4832,62.0,49.0,90.0,8.0,64.0
4833,77.0,15.0,150.0,4.0,64.0
4834,48.0,124.0,90.0,10.0,64.0
4835,50.0,24.0,450.0,10.0,64.0
4836,65.0,9.0,60.0,6.0,64.0
4837,77.0,22.0,60.0,7.0,64.0
4838,65.0,3.0,60.0,5.0,64.0
4839,58.0,0.0,90.0,8.0,64.0
4840,65.0,77.0,90.0,4.0,64.0
4841,68.0,4.0,60.0,6.0,64.0
4842,68.0,25.0,60.0,5.0,64.0
4843,68.0,223.0,60.0,4.0,64.0
4844,67.0,50.0,300.0,6.0,64.0
4845,67.0,2.0,270.0,5.0,64.0
4846,75.0,75.0,210.0,7.0,64.0
4847,58.0,75.0,330.0,8.0,64.0
4848,67.0,2.0,270.0,4.0,64.0
4849,48.0,11.0,90.0,10.0,64.0
4850,63.0,4.0,90.0,7.0,64.0
4851,62.0,119.0,90.0,7.0,64.0
4852,46.0,2.0,60.0,10.0,64.0
4853,48.0,43.0,90.0,10.0,64.0
4854,63.0,24.0,120.0,7.0,64.0
4855,75.0,15.0,150.0,6.0,64.0
4856,75.0,2.0,150.0,5.0,64.0
4857,75.0,10.0,120.0,4.0,64.0
4858,55.0,27.0,90.0,8.0,64.0
4859,50.0,115.0,90.0,10.0,64.0
4860,51.0,4.0,420.0,10.0,64.0
4861,67.0,18.0,60.0,6.0,64.0
4862,67.0,9.0,60.0,5.0,64.0
4863,67.0,16.0,90.0,4.0,64.0
4864,60.0,13.0,90.0,7.0,64.0
4865,60.0,45.0,90.0,8.0,64.0
4866,70.0,16.0,60.0,6.0,64.0
4867,70.0,212.0,90.0,4.0,64.0
4868,70.0,18.0,60.0,5.0,64.0
4869,69.0,104.0,180.0,6.0,64.0
4870,65.0,13.0,300.0,7.0,64.0
4871,69.0,2.0,180.0,5.0,64.0
4872,69.0,16.0,150.0,4.0,64.0
4873,60.0,10.0,300.0,8.0,64.0
4874,72.0,16.0,60.0,6.0,64.0
4875,48.0,74.0,120.0,10.0,64.0
4876,72.0,8.0,90.0,4.0,64.0
4877,72.0,5.0,60.0,5.0,64.0
4878,69.0,4.0,60.0,6.0,64.0
4879,69.0,11.0,60.0,4.0,64.0
4880,69.0,153.0,60.0,5.0,64.0
4881,65.0,1.0,180.0,6.0,64.0
4882,45.0,1.0,120.0,10.0,64.0
4883,65.0,14.0,120.0,2.0,64.0
4884,65.0,17.0,150.0,4.0,64.0
4885,65.0,4.0,150.0,5.0,64.0
4886,72.0,4.0,90.0,7.0,64.0
4887,60.0,8.0,90.0,8.0,64.0
4888,72.0,6.0,120.0,1.0,64.0
4889,65.0,156.0,120.0,0.0,64.0
4890,41.0,1.0,60.0,3.0,64.0
4891,41.0,5.0,120.0,10.0,64.0
4892,65.0,11.0,120.0,2.0,64.0
4893,75.0,2.0,90.0,6.0,64.0
4894,75.0,9.0,90.0,5.0,64.0
4895,69.0,4.0,90.0,7.0,64.0
4896,75.0,9.0,90.0,4.0,64.0
4897,65.0,18.0,120.0,8.0,64.0
4898,75.0,2.0,60.0,0.0,64.0
4899,72.0,41.0,120.0,1.0,64.0
4900,41.0,3.0,60.0,3.0,64.0
4901,72.0,6.0,60.0,6.0,64.0
4902,72.0,3.0,60.0,5.0,64.0
4903,72.0,132.0,60.0,4.0,64.0
4904,72.0,2.0,60.0,0.0,64.0
4905,46.0,3.0,120.0,10.0,64.0
4906,65.0,22.0,120.0,2.0,64.0
4907,74.0,7.0,90.0,6.0,64.0
4908,65.0,0.0,90.0,8.0,64.0
4909,74.0,11.0,90.0,4.0,64.0
4910,70.0,38.0,150.0,1.0,64.0
4911,70.0,13.0,120.0,7.0,64.0
4912,74.0,3.0,90.0,5.0,64.0
4913,74.0,0.0,60.0,0.0,64.0
4914,46.0,9.0,90.0,3.0,64.0
4915,72.0,2.0,90.0,6.0,64.0
4916,72.0,2.0,60.0,5.0,64.0
4917,63.0,101.0,90.0,8.0,64.0
4918,72.0,0.0,60.0,4.0,64.0
4919,72.0,8.0,60.0,0.0,64.0
4920,70.0,2.0,90.0,6.0,64.0
4921,51.0,5.0,120.0,10.0,64.0
4922,62.0,0.0,90.0,8.0,64.0
4923,70.0,2.0,90.0,5.0,64.0
4924,62.0,15.0,60.0,2.0,64.0
4925,67.0,9.0,90.0,7.0,64.0
4926,70.0,5.0,60.0,0.0,64.0
4927,70.0,14.0,90.0,4.0,64.0
4928,70.0,49.0,90.0,1.0,64.0
4929,72.0,2.0,60.0,6.0,64.0
4930,63.0,11.0,90.0,8.0,64.0
4931,72.0,9.0,60.0,5.0,64.0
4932,72.0,2.0,60.0,0.0,64.0
4933,72.0,16.0,60.0,4.0,64.0
4934,58.0,102.0,90.0,2.0,64.0
4935,53.0,0.0,90.0,10.0,64.0
4936,60.0,30.0,120.0,8.0,64.0
4937,65.0,4.0,90.0,6.0,64.0
4938,65.0,0.0,90.0,7.0,64.0
4939,74.0,12.0,90.0,0.0,64.0
4940,65.0,1.0,90.0,5.0,64.0
4941,65.0,49.0,150.0,2.0,64.0
4942,65.0,24.0,60.0,1.0,64.0
4943,65.0,2.0,90.0,4.0,64.0
4944,41.0,2.0,60.0,3.0,64.0
4945,72.0,8.0,60.0,0.0,64.0
4946,62.0,4.0,60.0,1.0,64.0
4947,74.0,93.0,60.0,0.0,64.0
4948,72.0,3.0,120.0,0.0,64.0
4949,41.0,4.0,90.0,10.0,64.0
4950,65.0,3.0,90.0,1.0,64.0
4951,69.0,5.0,90.0,6.0,64.0
4952,60.0,9.0,90.0,8.0,64.0
4953,65.0,16.0,60.0,2.0,64.0
4954,65.0,9.0,90.0,7.0,64.0
4955,69.0,11.0,90.0,4.0,64.0
4956,41.0,1.0,60.0,3.0,64.0
4957,69.0,50.0,90.0,5.0,64.0
4958,70.0,145.0,60.0,0.0,64.0
4959,65.0,5.0,60.0,2.0,64.0
4960,62.0,11.0,480.0,1.0,64.0
4961,70.0,7.0,270.0,4.0,64.0
4962,46.0,25.0,330.0,10.0,64.0
4963,46.0,192.0,60.0,3.0,64.0
4964,70.0,4.0,240.0,6.0,64.0
4965,65.0,20.0,270.0,7.0,64.0
4966,70.0,20.0,270.0,5.0,64.0
4967,65.0,90.0,480.0,2.0,64.0
4968,62.0,7.0,300.0,8.0,64.0
4969,70.0,137.0,330.0,0.0,64.0
4970,41.0,7.0,120.0,10.0,64.0
4971,60.0,2.0,90.0,7.0,64.0
4972,72.0,13.0,150.0,6.0,64.0
4973,57.0,45.0,120.0,8.0,64.0
4974,72.0,5.0,150.0,5.0,64.0
4975,72.0,128.0,150.0,4.0,64.0
4976,60.0,1.0,60.0,4.0,64.0
4977,45.0,1.0,120.0,10.0,64.0
4978,53.0,57.0,120.0,8.0,64.0
4979,60.0,19.0,60.0,6.0,64.0
4980,72.0,17.0,90.0,7.0,64.0
4981,60.0,8.0,60.0,5.0,64.0
4982,63.0,14.0,60.0,5.0,64.0
4983,63.0,3.0,60.0,4.0,64.0
4984,63.0,178.0,60.0,6.0,64.0
4985,63.0,2.0,150.0,4.0,64.0
4986,46.0,4.0,120.0,10.0,64.0
4987,63.0,2.0,120.0,5.0,64.0
4988,63.0,54.0,150.0,6.0,64.0
4989,72.0,38.0,180.0,7.0,64.0
4990,53.0,22.0,210.0,8.0,64.0
4991,64.0,12.0,40.0,6.0,64.0
4992,62.0,7.0,180.0,6.0,64.0
4993,62.0,23.0,150.0,4.0,64.0
4994,62.0,51.0,180.0,5.0,64.0
4995,45.0,90.0,120.0,10.0,64.0
4996,62.0,9.0,90.0,7.0,64.0
4997,55.0,7.0,90.0,8.0,64.0
4998,60.0,123.0,90.0,7.0,64.0
4999,57.0,3.0,90.0,8.0,64.0
5000,70.0,20.0,150.0,4.0,64.0
5001,70.0,25.0,120.0,5.0,64.0
5002,70.0,146.0,180.0,6.0,64.0
5003,43.0,4.0,120.0,10.0,64.0
5004,58.0,7.0,120.0,8.0,64.0
5005,62.0,23.0,90.0,7.0,64.0
5006,62.0,2.0,90.0,6.0,64.0
5007,62.0,7.0,90.0,4.0,64.0
5008,62.0,9.0,90.0,5.0,64.0
5009,74.0,9.0,90.0,7.0,64.0
5010,55.0,29.0,90.0,8.0,64.0
5011,46.0,21.0,120.0,10.0,64.0
5012,65.0,25.0,40.0,5.0,64.0
5013,65.0,177.0,60.0,4.0,64.0
5014,65.0,0.0,60.0,6.0,64.0
5015,65.0,18.0,120.0,5.0,64.0
5016,65.0,2.0,150.0,4.0,64.0
5017,65.0,47.0,150.0,6.0,64.0
5018,74.0,63.0,180.0,7.0,64.0
5019,48.0,14.0,120.0,10.0,64.0
5020,55.0,6.0,300.0,8.0,64.0
5021,63.0,30.0,210.0,5.0,64.0
5022,63.0,30.0,180.0,6.0,64.0
5023,63.0,29.0,150.0,4.0,64.0
5024,46.0,7.0,120.0,10.0,64.0
5025,63.0,49.0,120.0,7.0,64.0
5026,62.0,176.0,60.0,7.0,64.0
5027,48.0,13.0,120.0,10.0,64.0
5028,63.0,6.0,120.0,7.0,64.0
5029,69.0,4.0,150.0,5.0,64.0
5030,69.0,11.0,150.0,6.0,64.0
5031,69.0,129.0,180.0,4.0,64.0
5032,60.0,35.0,120.0,8.0,64.0
5033,66.0,5.0,90.0,5.0,64.0
5034,66.0,0.0,60.0,4.0,64.0
5035,66.0,35.0,60.0,6.0,64.0
5036,50.0,38.0,120.0,10.0,64.0
5037,62.0,22.0,90.0,7.0,64.0
5038,60.0,1.0,120.0,8.0,64.0
5039,69.0,7.0,60.0,5.0,64.0
5040,69.0,2.0,60.0,6.0,64.0
5041,69.0,178.0,60.0,4.0,64.0
5042,51.0,8.0,120.0,10.0,64.0
5043,67.0,17.0,180.0,6.0,64.0
5044,58.0,3.0,120.0,8.0,64.0
5045,67.0,130.0,180.0,4.0,64.0
5046,67.0,47.0,120.0,7.0,64.0
5047,67.0,1.0,180.0,5.0,64.0
5048,50.0,8.0,120.0,10.0,64.0
5049,69.0,1.0,120.0,6.0,64.0
5050,62.0,4.0,120.0,8.0,64.0
5051,66.0,81.0,120.0,7.0,64.0
5052,69.0,3.0,90.0,5.0,64.0
5053,69.0,20.0,90.0,4.0,64.0
5054,70.0,83.0,90.0,6.0,64.0
5055,70.0,7.0,90.0,5.0,64.0
5056,70.0,3.0,90.0,4.0,64.0
5057,69.0,19.0,60.0,6.0,64.0
5058,69.0,3.0,90.0,5.0,64.0
5059,51.0,2.0,120.0,10.0,64.0
5060,67.0,21.0,90.0,7.0,64.0
5061,69.0,9.0,60.0,4.0,64.0
5062,60.0,69.0,90.0,8.0,64.0
5063,67.0,6.0,90.0,5.0,64.0
5064,67.0,125.0,90.0,6.0,64.0
5065,67.0,3.0,60.0,4.0,64.0
5066,48.0,2.0,90.0,10.0,64.0
5067,75.0,11.0,90.0,6.0,64.0
5068,75.0,8.0,90.0,5.0,64.0
5069,58.0,5.0,90.0,8.0,64.0
5070,67.0,11.0,60.0,7.0,64.0
5071,75.0,192.0,90.0,4.0,64.0
5072,77.0,0.0,60.0,5.0,64.0
5073,67.0,3.0,210.0,7.0,64.0
5074,77.0,51.0,60.0,6.0,64.0
5075,77.0,0.0,60.0,4.0,64.0
5076,50.0,25.0,210.0,10.0,64.0
5077,57.0,81.0,360.0,8.0,64.0
5078,75.0,2.0,60.0,6.0,64.0
5079,75.0,0.0,60.0,5.0,64.0
5080,75.0,46.0,60.0,4.0,64.0
5081,77.0,7.0,60.0,5.0,64.0
5082,77.0,2.0,60.0,6.0,64.0
5083,77.0,33.0,60.0,4.0,64.0
5084,75.0,4.0,90.0,6.0,64.0
5085,75.0,2.0,90.0,5.0,64.0
5086,75.0,79.0,90.0,4.0,64.0
5087,66.0,1.0,120.0,7.0,64.0
5088,74.0,26.0,90.0,6.0,64.0
5089,74.0,9.0,120.0,5.0,64.0
5090,74.0,3.0,120.0,4.0,64.0
5091,52.0,4.0,60.0,10.0,64.0
5092,54.0,126.0,90.0,10.0,64.0
5093,58.0,7.0,90.0,7.0,64.0
5094,55.0,36.0,90.0,8.0,64.0
5095,62.0,1.0,180.0,6.0,64.0
5096,55.0,38.0,120.0,10.0,64.0
5097,62.0,13.0,150.0,5.0,64.0
5098,62.0,3.0,150.0,4.0,64.0
5099,62.0,135.0,150.0,0.0,64.0
5100,53.0,5.0,120.0,10.0,64.0
5101,70.0,4.0,60.0,7.0,64.0
5102,74.0,8.0,90.0,6.0,64.0
5103,74.0,5.0,90.0,5.0,64.0
5104,55.0,50.0,90.0,8.0,64.0
5105,74.0,13.0,90.0,4.0,64.0
5106,74.0,4.0,60.0,0.0,64.0
5107,70.0,9.0,60.0,5.0,64.0
5108,70.0,10.0,60.0,6.0,64.0
5109,70.0,2.0,40.0,4.0,64.0
5110,70.0,174.0,60.0,0.0,64.0
5111,52.0,7.0,120.0,10.0,64.0
5112,70.0,22.0,210.0,7.0,64.0
5113,70.0,2.0,120.0,6.0,64.0
5114,70.0,4.0,120.0,4.0,64.0
5115,70.0,66.0,120.0,5.0,64.0
5116,55.0,95.0,210.0,8.0,64.0
5117,70.0,7.0,120.0,0.0,64.0
5118,72.0,0.0,210.0,6.0,64.0
5119,72.0,1.0,210.0,5.0,64.0
5120,72.0,4.0,210.0,4.0,64.0
5121,72.0,10.0,210.0,0.0,64.0
5122,57.0,45.0,120.0,10.0,64.0
5123,69.0,22.0,90.0,7.0,64.0
5124,54.0,6.0,60.0,8.0,64.0
5125,67.0,45.0,60.0,7.0,64.0
5126,57.0,135.0,90.0,8.0,64.0
5127,69.0,11.0,150.0,7.0,64.0
5128,62.0,2.0,150.0,6.0,64.0
5129,54.0,12.0,120.0,10.0,64.0
5130,62.0,9.0,120.0,4.0,64.0
5131,62.0,15.0,90.0,8.0,64.0
5132,62.0,2.0,120.0,5.0,64.0
5133,62.0,137.0,120.0,0.0,64.0
5134,67.0,1.0,60.0,7.0,64.0
5135,72.0,17.0,60.0,4.0,64.0
5136,72.0,9.0,90.0,6.0,64.0
5137,72.0,16.0,90.0,5.0,64.0
5138,62.0,22.0,90.0,8.0,64.0
5139,50.0,40.0,120.0,10.0,64.0
5140,72.0,3.0,60.0,0.0,64.0
5141,66.0,5.0,60.0,7.0,64.0
5142,69.0,9.0,60.0,4.0,64.0
5143,69.0,2.0,60.0,6.0,64.0
5144,69.0,173.0,60.0,5.0,64.0
5145,74.0,3.0,60.0,0.0,64.0
5146,67.0,0.0,120.0,7.0,64.0
5147,70.0,6.0,180.0,6.0,64.0
5148,62.0,31.0,120.0,8.0,64.0
5149,70.0,3.0,180.0,4.0,64.0
5150,70.0,128.0,180.0,5.0,64.0
5151,55.0,2.0,120.0,10.0,64.0
5152,72.0,30.0,120.0,0.0,64.0
5153,70.0,1.0,210.0,0.0,64.0
5154,58.0,0.0,90.0,7.0,64.0
5155,67.0,2.0,90.0,6.0,64.0
5156,67.0,23.0,90.0,5.0,64.0
5157,67.0,5.0,60.0,4.0,64.0
5158,51.0,7.0,90.0,10.0,64.0
5159,63.0,70.0,90.0,8.0,64.0
5160,70.0,132.0,90.0,6.0,64.0
5161,70.0,1.0,60.0,5.0,64.0
5162,70.0,4.0,60.0,4.0,64.0
5163,60.0,8.0,180.0,7.0,64.0
5164,69.0,72.0,90.0,6.0,64.0
5165,69.0,10.0,90.0,4.0,64.0
5166,69.0,2.0,90.0,5.0,64.0
5167,63.0,99.0,180.0,8.0,64.0
5168,48.0,2.0,180.0,10.0,64.0
5169,66.0,0.0,60.0,6.0,64.0
5170,66.0,10.0,60.0,4.0,64.0
5171,66.0,18.0,60.0,5.0,64.0
5172,67.0,72.0,120.0,6.0,64.0
5173,67.0,2.0,90.0,4.0,64.0
5174,67.0,13.0,90.0,5.0,64.0
5175,46.0,2.0,90.0,10.0,64.0
5176,62.0,25.0,60.0,7.0,64.0
5177,62.0,7.0,90.0,8.0,64.0
5178,63.0,17.0,90.0,7.0,64.0
5179,45.0,124.0,90.0,10.0,64.0
5180,60.0,1.0,90.0,8.0,64.0
5181,74.0,5.0,210.0,6.0,64.0
5182,62.0,31.0,90.0,7.0,64.0
5183,74.0,119.0,210.0,5.0,64.0
5184,58.0,21.0,120.0,8.0,64.0
5185,74.0,4.0,180.0,4.0,64.0
5186,46.0,47.0,120.0,10.0,64.0
5187,67.0,7.0,90.0,7.0,64.0
5188,75.0,0.0,90.0,6.0,64.0
5189,48.0,10.0,120.0,10.0,64.0
5190,75.0,4.0,90.0,5.0,64.0
5191,75.0,18.0,90.0,4.0,64.0
5192,57.0,69.0,120.0,8.0,64.0
5193,74.0,7.0,90.0,6.0,64.0
5194,74.0,4.0,60.0,5.0,64.0
5195,74.0,129.0,60.0,4.0,64.0
5196,72.0,2.0,120.0,6.0,64.0
5197,67.0,7.0,90.0,7.0,64.0
5198,50.0,7.0,90.0,10.0,64.0
5199,57.0,18.0,90.0,8.0,64.0
5200,72.0,2.0,90.0,4.0,64.0
5201,72.0,52.0,120.0,5.0,64.0
5202,70.0,18.0,60.0,6.0,64.0
5203,70.0,108.0,60.0,4.0,64.0
5204,70.0,2.0,60.0,5.0,64.0
5205,69.0,13.0,90.0,6.0,64.0
5206,66.0,5.0,90.0,7.0,64.0
5207,38.0,3.0,90.0,10.0,64.0
5208,69.0,14.0,90.0,5.0,64.0
5209,69.0,1.0,60.0,4.0,64.0
5210,62.0,83.0,90.0,8.0,64.0
5211,70.0,4.0,90.0,6.0,64.0
5212,70.0,200.0,60.0,5.0,64.0
5213,70.0,1.0,60.0,4.0,64.0
5214,62.0,11.0,300.0,7.0,64.0
5215,43.0,123.0,150.0,10.0,64.0
5216,67.0,7.0,270.0,6.0,64.0
5217,67.0,9.0,270.0,5.0,64.0
5218,58.0,63.0,330.0,8.0,64.0
5219,67.0,5.0,270.0,4.0,64.0
5220,53.0,45.0,60.0,10.0,64.0
5221,50.0,171.0,60.0,10.0,64.0
5222,63.0,0.0,180.0,7.0,64.0
5223,51.0,29.0,690.0,10.0,64.0
5224,67.0,7.0,180.0,6.0,64.0
5225,58.0,79.0,90.0,8.0,64.0
5226,67.0,132.0,180.0,5.0,64.0
5227,67.0,2.0,150.0,4.0,64.0
5228,79.0,9.0,60.0,6.0,64.0
5229,79.0,9.0,90.0,5.0,64.0
5230,63.0,81.0,90.0,8.0,64.0
5231,70.0,1.0,60.0,7.0,64.0
5232,79.0,2.0,60.0,4.0,64.0
5233,75.0,2.0,60.0,6.0,64.0
5234,67.0,2.0,60.0,7.0,64.0
5235,75.0,190.0,60.0,4.0,64.0
5236,75.0,2.0,60.0,5.0,64.0
5237,75.0,4.0,120.0,6.0,64.0
5238,60.0,65.0,210.0,8.0,64.0
5239,75.0,4.0,120.0,5.0,64.0
5240,67.0,5.0,120.0,7.0,64.0
5241,75.0,59.0,120.0,4.0,64.0
5242,77.0,15.0,210.0,6.0,64.0
5243,68.0,25.0,180.0,7.0,64.0
5244,77.0,11.0,210.0,4.0,64.0
5245,77.0,3.0,210.0,5.0,64.0
5246,50.0,4.0,60.0,10.0,64.0
5247,59.0,73.0,90.0,8.0,64.0
5248,48.0,35.0,60.0,10.0,64.0
5249,60.0,126.0,90.0,8.0,64.0
5250,67.0,7.0,150.0,5.0,64.0
5251,67.0,111.0,180.0,6.0,64.0
5252,67.0,13.0,150.0,4.0,64.0
5253,62.0,30.0,90.0,8.0,64.0
5254,62.0,9.0,150.0,7.0,64.0
5255,47.0,20.0,120.0,10.0,64.0
5256,77.0,8.0,60.0,4.0,64.0
5257,77.0,0.0,60.0,5.0,64.0
5258,74.0,3.0,60.0,7.0,64.0
5259,77.0,29.0,60.0,6.0,64.0
5260,59.0,47.0,120.0,8.0,64.0
5261,43.0,18.0,90.0,10.0,64.0
5262,74.0,7.0,60.0,5.0,64.0
5263,74.0,5.0,60.0,4.0,64.0
5264,74.0,193.0,60.0,6.0,64.0
5265,71.0,0.0,60.0,7.0,64.0
5266,74.0,7.0,120.0,4.0,64.0
5267,74.0,2.0,120.0,5.0,64.0
5268,48.0,113.0,210.0,10.0,64.0
5269,74.0,0.0,120.0,6.0,64.0
5270,55.0,2.0,360.0,8.0,64.0
5271,71.0,74.0,120.0,7.0,64.0
5272,75.0,9.0,210.0,6.0,64.0
5273,75.0,16.0,210.0,5.0,64.0
5274,75.0,2.0,210.0,4.0,64.0
5275,72.0,83.0,240.0,7.0,64.0
5276,50.0,2.0,60.0,10.0,64.0
5277,51.0,159.0,90.0,10.0,64.0
5278,69.0,7.0,180.0,6.0,64.0
5279,53.0,8.0,120.0,10.0,64.0
5280,69.0,128.0,180.0,5.0,64.0
5281,53.0,2.0,120.0,8.0,64.0
5282,60.0,21.0,120.0,7.0,64.0
5283,65.0,12.0,150.0,0.0,64.0
5284,69.0,0.0,180.0,4.0,64.0
5285,72.0,11.0,120.0,1.0,64.0
5286,41.0,3.0,90.0,3.0,64.0
5287,65.0,12.0,120.0,2.0,64.0
5288,75.0,2.0,90.0,6.0,64.0
5289,45.0,11.0,120.0,10.0,64.0
5290,75.0,6.0,60.0,5.0,64.0
5291,53.0,11.0,120.0,8.0,64.0
5292,72.0,21.0,90.0,7.0,64.0
5293,75.0,2.0,60.0,4.0,64.0
5294,75.0,1.0,60.0,0.0,64.0
5295,72.0,2.0,120.0,1.0,64.0
5296,41.0,6.0,90.0,3.0,64.0
5297,65.0,34.0,90.0,2.0,64.0
5298,72.0,6.0,60.0,6.0,64.0
5299,72.0,1.0,60.0,5.0,64.0
5300,72.0,9.0,60.0,4.0,64.0
5301,72.0,149.0,60.0,0.0,64.0
5302,65.0,9.0,120.0,8.0,64.0
5303,74.0,6.0,180.0,5.0,64.0
5304,70.0,12.0,90.0,7.0,64.0
5305,74.0,3.0,180.0,6.0,64.0
5306,74.0,15.0,180.0,4.0,64.0
5307,46.0,45.0,120.0,10.0,64.0
5308,74.0,33.0,180.0,0.0,64.0
5309,46.0,4.0,90.0,3.0,64.0
5310,70.0,73.0,210.0,1.0,64.0
5311,65.0,2.0,180.0,2.0,64.0
5312,72.0,15.0,60.0,6.0,64.0
5313,67.0,16.0,120.0,8.0,64.0
5314,62.0,7.0,90.0,7.0,64.0
5315,43.0,51.0,120.0,10.0,64.0
5316,72.0,1.0,90.0,5.0,64.0
5317,72.0,22.0,90.0,4.0,64.0
5318,72.0,5.0,60.0,0.0,64.0
5319,70.0,2.0,90.0,6.0,64.0
5320,70.0,8.0,60.0,5.0,64.0
5321,70.0,0.0,60.0,4.0,64.0
5322,70.0,116.0,60.0,0.0,64.0
5323,72.0,8.0,90.0,6.0,64.0
5324,72.0,3.0,60.0,5.0,64.0
5325,60.0,20.0,120.0,8.0,64.0
5326,67.0,11.0,90.0,7.0,64.0
5327,39.0,43.0,120.0,10.0,64.0
5328,72.0,2.0,60.0,4.0,64.0
5329,72.0,12.0,60.0,0.0,64.0
5330,46.0,5.0,90.0,3.0,64.0
5331,70.0,28.0,180.0,2.0,64.0
5332,79.0,66.0,210.0,1.0,64.0
5333,69.0,12.0,60.0,5.0,64.0
5334,69.0,6.0,60.0,6.0,64.0
5335,74.0,0.0,60.0,0.0,64.0
5336,69.0,13.0,60.0,4.0,64.0
5337,70.0,2.0,120.0,6.0,64.0
5338,70.0,60.0,120.0,5.0,64.0
5339,40.0,12.0,90.0,10.0,64.0
5340,72.0,21.0,60.0,0.0,64.0
5341,67.0,4.0,90.0,7.0,64.0
5342,70.0,5.0,90.0,4.0,64.0
5343,60.0,11.0,90.0,8.0,64.0
5344,74.0,86.0,60.0,0.0,64.0
5345,70.0,11.0,60.0,6.0,64.0
5346,41.0,33.0,210.0,10.0,64.0
5347,70.0,36.0,60.0,5.0,64.0
5348,70.0,7.0,60.0,4.0,64.0
5349,72.0,25.0,15.0,6.0,64.0
5350,72.0,7.0,120.0,0.0,64.0
5351,65.0,9.0,300.0,7.0,64.0
5352,60.0,27.0,360.0,8.0,64.0
5353,65.0,62.0,480.0,2.0,64.0
5354,77.0,16.0,450.0,1.0,64.0
5355,41.0,32.0,90.0,3.0,64.0
5356,69.0,15.0,40.0,6.0,64.0
5357,69.0,1.0,60.0,4.0,64.0
5358,69.0,5.0,60.0,5.0,64.0
5359,70.0,10.0,60.0,6.0,64.0
5360,70.0,4.0,60.0,5.0,64.0
5361,70.0,25.0,60.0,4.0,64.0
5362,69.0,13.0,90.0,6.0,64.0
5363,69.0,34.0,90.0,5.0,64.0
5364,69.0,1.0,90.0,4.0,64.0
5365,67.0,15.0,60.0,6.0,64.0
5366,67.0,5.0,60.0,5.0,64.0
5367,67.0,22.0,60.0,4.0,64.0
5368,43.0,34.0,90.0,10.0,64.0
5369,65.0,7.0,120.0,0.0,64.0
5370,65.0,20.0,60.0,6.0,64.0
5371,45.0,9.0,60.0,10.0,64.0
5372,65.0,3.0,60.0,5.0,64.0
5373,65.0,50.0,60.0,4.0,64.0
5374,46.0,6.0,90.0,10.0,64.0
5375,77.0,16.0,150.0,6.0,64.0
5376,65.0,16.0,90.0,7.0,64.0
5377,77.0,0.0,150.0,4.0,64.0
5378,77.0,31.0,150.0,5.0,64.0
5379,62.0,34.0,90.0,8.0,64.0
5380,48.0,128.0,60.0,10.0,64.0
5381,77.0,1.0,90.0,7.0,64.0
5382,58.0,1.0,90.0,8.0,64.0
5383,50.0,14.0,420.0,10.0,64.0
5384,65.0,8.0,60.0,6.0,64.0
5385,65.0,0.0,60.0,4.0,64.0
5386,65.0,92.0,60.0,5.0,64.0
5387,68.0,2.0,60.0,6.0,64.0
5388,68.0,5.0,60.0,4.0,64.0
5389,68.0,170.0,60.0,5.0,64.0
5390,68.0,23.0,120.0,6.0,64.0
5391,75.0,98.0,210.0,7.0,64.0
5392,68.0,2.0,120.0,4.0,64.0
5393,68.0,43.0,120.0,5.0,64.0
5394,58.0,14.0,360.0,8.0,64.0
5395,67.0,9.0,240.0,6.0,64.0
5396,67.0,19.0,180.0,4.0,64.0
5397,67.0,17.0,180.0,5.0,64.0
5398,63.0,42.0,120.0,7.0,64.0
5399,48.0,3.0,90.0,10.0,64.0
5400,62.0,25.0,60.0,7.0,64.0
5401,46.0,128.0,90.0,10.0,64.0
5402,48.0,27.0,90.0,10.0,64.0
5403,63.0,52.0,120.0,7.0,64.0
5404,75.0,11.0,150.0,6.0,64.0
5405,55.0,2.0,90.0,8.0,64.0
5406,75.0,5.0,150.0,4.0,64.0
5407,75.0,22.0,150.0,5.0,64.0
5408,50.0,101.0,90.0,10.0,64.0
5409,60.0,3.0,90.0,7.0,64.0
5410,67.0,18.0,60.0,6.0,64.0
5411,51.0,40.0,420.0,10.0,64.0
5412,67.0,6.0,60.0,4.0,64.0
5413,60.0,3.0,60.0,8.0,64.0
5414,67.0,79.0,60.0,5.0,64.0
5415,70.0,26.0,60.0,6.0,64.0
5416,70.0,167.0,60.0,5.0,64.0
5417,70.0,5.0,60.0,4.0,64.0
5418,70.0,18.0,120.0,6.0,64.0
5419,65.0,6.0,360.0,7.0,64.0
5420,60.0,12.0,330.0,8.0,64.0
5421,70.0,2.0,120.0,4.0,64.0
5422,70.0,20.0,120.0,5.0,64.0
5423,69.0,21.0,90.0,6.0,64.0
5424,69.0,7.0,90.0,4.0,64.0
5425,69.0,87.0,90.0,5.0,64.0
5426,48.0,52.0,120.0,10.0,64.0
5427,72.0,20.0,90.0,6.0,64.0
5428,72.0,9.0,60.0,5.0,64.0
5429,72.0,5.0,90.0,4.0,64.0
5430,69.0,25.0,90.0,6.0,64.0
5431,69.0,9.0,60.0,5.0,64.0
5432,69.0,125.0,90.0,4.0,64.0
5433,65.0,3.0,150.0,6.0,64.0
5434,65.0,3.0,120.0,2.0,64.0
5435,45.0,11.0,120.0,10.0,64.0
5436,72.0,18.0,90.0,7.0,64.0
5437,60.0,2.0,90.0,8.0,64.0
5438,65.0,30.0,150.0,5.0,64.0
5439,65.0,11.0,120.0,4.0,64.0
5440,72.0,9.0,120.0,1.0,64.0
5441,65.0,148.0,150.0,0.0,64.0
5442,41.0,9.0,60.0,3.0,64.0
5443,41.0,4.0,120.0,10.0,64.0
5444,65.0,17.0,120.0,2.0,64.0
5445,69.0,3.0,90.0,7.0,64.0
5446,75.0,2.0,90.0,6.0,64.0
5447,65.0,13.0,120.0,8.0,64.0
5448,72.0,57.0,120.0,1.0,64.0
5449,75.0,0.0,90.0,4.0,64.0
5450,75.0,4.0,90.0,5.0,64.0
5451,41.0,1.0,60.0,3.0,64.0
5452,75.0,2.0,60.0,0.0,64.0
5453,72.0,4.0,60.0,6.0,64.0
5454,72.0,2.0,60.0,4.0,64.0
5455,72.0,7.0,60.0,0.0,64.0
5456,72.0,118.0,60.0,5.0,64.0
5457,46.0,18.0,120.0,10.0,64.0
5458,65.0,22.0,120.0,2.0,64.0
5459,70.0,6.0,90.0,7.0,64.0
5460,74.0,13.0,90.0,6.0,64.0
5461,70.0,44.0,150.0,1.0,64.0
5462,65.0,0.0,90.0,8.0,64.0
5463,74.0,1.0,90.0,4.0,64.0
5464,46.0,1.0,90.0,3.0,64.0
5465,74.0,0.0,90.0,5.0,64.0
5466,74.0,3.0,60.0,0.0,64.0
5467,72.0,0.0,60.0,6.0,64.0
5468,72.0,3.0,60.0,4.0,64.0
5469,63.0,87.0,90.0,8.0,64.0
5470,72.0,5.0,90.0,5.0,64.0
5471,72.0,12.0,60.0,0.0,64.0
5472,70.0,10.0,90.0,6.0,64.0
5473,51.0,7.0,120.0,10.0,64.0
5474,67.0,1.0,90.0,7.0,64.0
5475,62.0,9.0,60.0,2.0,64.0
5476,70.0,13.0,90.0,4.0,64.0
5477,62.0,0.0,90.0,8.0,64.0
5478,70.0,57.0,90.0,1.0,64.0
5479,70.0,6.0,90.0,5.0,64.0
5480,70.0,6.0,90.0,0.0,64.0
5481,63.0,8.0,90.0,8.0,64.0
5482,72.0,9.0,60.0,4.0,64.0
5483,72.0,13.0,60.0,6.0,64.0
5484,58.0,5.0,90.0,2.0,64.0
5485,72.0,2.0,60.0,5.0,64.0
5486,72.0,97.0,60.0,0.0,64.0
5487,65.0,2.0,90.0,7.0,64.0
5488,65.0,13.0,90.0,6.0,64.0
5489,65.0,5.0,90.0,4.0,64.0
5490,65.0,23.0,150.0,2.0,64.0
5491,60.0,11.0,120.0,8.0,64.0
5492,53.0,11.0,90.0,10.0,64.0
5493,65.0,16.0,60.0,1.0,64.0
5494,65.0,2.0,90.0,5.0,64.0
5495,41.0,1.0,60.0,3.0,64.0
5496,74.0,22.0,90.0,0.0,64.0
5497,72.0,26.0,40.0,0.0,64.0
5498,62.0,28.0,60.0,1.0,64.0
5499,74.0,69.0,60.0,0.0,64.0
5500,72.0,7.0,120.0,0.0,64.0
5501,41.0,1.0,90.0,10.0,64.0
5502,65.0,3.0,90.0,1.0,64.0
5503,69.0,11.0,90.0,6.0,64.0
5504,65.0,16.0,60.0,2.0,64.0
5505,65.0,4.0,90.0,7.0,64.0
5506,69.0,0.0,90.0,4.0,64.0
5507,60.0,63.0,90.0,8.0,64.0
5508,69.0,2.0,90.0,5.0,64.0
5509,41.0,4.0,60.0,3.0,64.0
5510,65.0,22.0,60.0,2.0,64.0
5511,70.0,128.0,60.0,0.0,64.0
5512,70.0,7.0,270.0,6.0,64.0
5513,46.0,7.0,270.0,10.0,64.0
5514,62.0,11.0,480.0,1.0,64.0
5515,70.0,15.0,240.0,4.0,64.0
5516,46.0,168.0,60.0,3.0,64.0
5517,65.0,15.0,270.0,7.0,64.0
5518,70.0,20.0,240.0,5.0,64.0
5519,62.0,166.0,300.0,8.0,64.0
5520,65.0,0.0,480.0,2.0,64.0
5521,70.0,14.0,270.0,0.0,64.0
