,note,step,duration,channel,velocity
0,42.0,1024.0,2040.0,2.0,0.0
1,58.0,0.0,1020.0,0.0,0.0
2,58.0,256.0,1020.0,0.0,0.0
3,61.0,256.0,270.0,0.0,0.0
4,59.0,256.0,270.0,0.0,0.0
5,58.0,256.0,270.0,0.0,0.0
6,59.0,1024.0,270.0,0.0,0.0
7,54.0,0.0,15.0,2.0,0.0
8,58.0,512.0,1530.0,0.0,0.0
9,58.0,0.0,1020.0,2.0,0.0
10,54.0,512.0,510.0,0.0,0.0
11,54.0,512.0,3060.0,2.0,0.0
12,63.0,512.0,510.0,0.0,0.0
13,58.0,512.0,510.0,0.0,0.0
14,66.0,512.0,510.0,0.0,0.0
15,58.0,512.0,510.0,0.0,0.0
16,60.0,256.0,510.0,0.0,0.0
17,56.0,256.0,270.0,0.0,0.0
18,51.0,0.0,270.0,0.0,0.0
19,44.0,512.0,510.0,0.0,0.0
20,52.0,0.0,510.0,2.0,0.0
21,51.0,512.0,510.0,2.0,0.0
22,56.0,0.0,510.0,0.0,0.0
23,52.0,0.0,3060.0,2.0,0.0
24,61.0,512.0,510.0,0.0,0.0
25,56.0,512.0,510.0,0.0,0.0
26,64.0,512.0,510.0,0.0,0.0
27,56.0,512.0,510.0,0.0,0.0
28,58.0,256.0,510.0,0.0,0.0
29,54.0,256.0,270.0,0.0,0.0
30,49.0,512.0,270.0,0.0,0.0
31,51.0,0.0,510.0,2.0,0.0
32,42.0,512.0,510.0,0.0,0.0
33,49.0,512.0,510.0,2.0,0.0
34,54.0,0.0,510.0,0.0,0.0
35,59.0,512.0,510.0,0.0,0.0
36,51.0,512.0,1020.0,2.0,0.0
37,54.0,0.0,510.0,0.0,0.0
38,63.0,512.0,510.0,0.0,0.0
39,54.0,512.0,510.0,0.0,0.0
40,53.0,0.0,1020.0,2.0,0.0
41,56.0,512.0,510.0,0.0,0.0
42,49.0,512.0,510.0,0.0,0.0
43,59.0,512.0,510.0,0.0,0.0
44,56.0,512.0,510.0,0.0,0.0
45,58.0,512.0,510.0,0.0,0.0
46,54.0,0.0,1020.0,2.0,0.0
47,54.0,512.0,510.0,0.0,0.0
48,61.0,512.0,510.0,0.0,0.0
49,42.0,0.0,1020.0,2.0,0.0
50,54.0,256.0,510.0,0.0,0.0
51,49.0,512.0,1020.0,2.0,0.0
52,56.0,256.0,270.0,0.0,0.0
53,54.0,256.0,270.0,0.0,0.0
54,53.0,256.0,270.0,0.0,0.0
55,51.0,0.0,270.0,0.0,0.0
56,49.0,512.0,510.0,0.0,0.0
57,53.0,512.0,1020.0,2.0,0.0
58,56.0,0.0,510.0,0.0,0.0
59,59.0,512.0,510.0,0.0,0.0
60,49.0,0.0,3060.0,2.0,0.0
61,56.0,512.0,510.0,0.0,0.0
62,65.0,512.0,510.0,0.0,0.0
63,56.0,256.0,510.0,0.0,0.0
64,58.0,256.0,270.0,0.0,0.0
65,56.0,256.0,270.0,0.0,0.0
66,54.0,256.0,270.0,0.0,0.0
67,53.0,512.0,270.0,0.0,0.0
68,58.0,512.0,1020.0,2.0,0.0
69,54.0,512.0,510.0,0.0,0.0
70,58.0,0.0,510.0,0.0,0.0
71,49.0,0.0,3060.0,2.0,0.0
72,61.0,512.0,510.0,0.0,0.0
73,58.0,512.0,510.0,0.0,0.0
74,66.0,512.0,510.0,0.0,0.0
75,58.0,256.0,510.0,0.0,0.0
76,59.0,256.0,270.0,0.0,0.0
77,58.0,256.0,270.0,0.0,0.0
78,56.0,256.0,270.0,0.0,0.0
79,54.0,512.0,270.0,0.0,0.0
80,56.0,512.0,510.0,0.0,0.0
81,56.0,0.0,1020.0,2.0,0.0
82,59.0,512.0,510.0,0.0,0.0
83,49.0,0.0,3060.0,2.0,0.0
84,65.0,512.0,510.0,0.0,0.0
85,59.0,512.0,510.0,0.0,0.0
86,68.0,512.0,510.0,0.0,0.0
87,59.0,256.0,510.0,0.0,0.0
88,61.0,256.0,270.0,0.0,0.0
89,59.0,256.0,270.0,0.0,0.0
90,58.0,256.0,270.0,0.0,0.0
91,56.0,512.0,270.0,0.0,0.0
92,54.0,256.0,1020.0,2.0,0.0
93,58.0,512.0,510.0,0.0,0.0
94,61.0,0.0,510.0,0.0,0.0
95,66.0,256.0,270.0,0.0,0.0
96,51.0,0.0,1020.0,2.0,0.0
97,58.0,256.0,270.0,0.0,0.0
98,66.0,256.0,270.0,0.0,0.0
99,58.0,256.0,270.0,0.0,0.0
100,56.0,256.0,270.0,0.0,0.0
101,47.0,256.0,510.0,2.0,0.0
102,66.0,0.0,270.0,0.0,0.0
103,56.0,256.0,270.0,0.0,0.0
104,44.0,256.0,510.0,2.0,0.0
105,66.0,0.0,270.0,0.0,0.0
106,65.0,256.0,270.0,0.0,0.0
107,49.0,256.0,1020.0,2.0,0.0
108,56.0,256.0,270.0,0.0,0.0
109,65.0,256.0,270.0,0.0,0.0
110,56.0,0.0,270.0,0.0,0.0
111,46.0,0.0,510.0,2.0,0.0
112,54.0,256.0,270.0,0.0,0.0
113,64.0,256.0,270.0,0.0,0.0
114,42.0,256.0,510.0,2.0,0.0
115,54.0,256.0,270.0,0.0,0.0
116,64.0,0.0,270.0,0.0,0.0
117,47.0,256.0,1020.0,2.0,0.0
118,63.0,256.0,270.0,0.0,0.0
119,54.0,256.0,270.0,0.0,0.0
120,63.0,256.0,270.0,0.0,0.0
121,54.0,0.0,270.0,0.0,0.0
122,53.0,256.0,270.0,0.0,0.0
123,44.0,256.0,510.0,2.0,0.0
124,63.0,0.0,270.0,0.0,0.0
125,53.0,256.0,270.0,0.0,0.0
126,41.0,256.0,510.0,2.0,0.0
127,63.0,0.0,270.0,0.0,0.0
128,61.0,256.0,270.0,0.0,0.0
129,46.0,0.0,1020.0,2.0,0.0
130,53.0,256.0,270.0,0.0,0.0
131,61.0,256.0,270.0,0.0,0.0
132,53.0,256.0,270.0,0.0,0.0
133,42.0,0.0,510.0,2.0,0.0
134,51.0,256.0,270.0,0.0,0.0
135,54.0,256.0,270.0,0.0,0.0
136,56.0,256.0,270.0,0.0,0.0
137,39.0,256.0,510.0,2.0,0.0
138,58.0,0.0,270.0,0.0,0.0
139,44.0,256.0,1020.0,2.0,0.0
140,59.0,256.0,270.0,0.0,0.0
141,51.0,256.0,270.0,0.0,0.0
142,59.0,256.0,270.0,0.0,0.0
143,51.0,0.0,270.0,0.0,0.0
144,49.0,256.0,270.0,0.0,0.0
145,41.0,256.0,510.0,2.0,0.0
146,59.0,0.0,270.0,0.0,0.0
147,49.0,256.0,270.0,0.0,0.0
148,37.0,0.0,510.0,2.0,0.0
149,59.0,256.0,270.0,0.0,0.0
150,42.0,256.0,1020.0,2.0,0.0
151,58.0,256.0,270.0,0.0,0.0
152,49.0,256.0,270.0,0.0,0.0
153,58.0,256.0,270.0,0.0,0.0
154,49.0,0.0,270.0,0.0,0.0
155,39.0,0.0,1020.0,2.0,0.0
156,47.0,256.0,270.0,0.0,0.0
157,58.0,256.0,270.0,0.0,0.0
158,47.0,256.0,270.0,0.0,0.0
159,58.0,256.0,270.0,0.0,0.0
160,41.0,256.0,1020.0,2.0,0.0
161,47.0,256.0,270.0,0.0,0.0
162,56.0,256.0,270.0,0.0,0.0
163,47.0,256.0,270.0,0.0,0.0
164,56.0,0.0,270.0,0.0,0.0
165,44.0,0.0,1020.0,2.0,0.0
166,47.0,256.0,270.0,0.0,0.0
167,54.0,256.0,270.0,0.0,0.0
168,47.0,256.0,270.0,0.0,0.0
169,54.0,256.0,270.0,0.0,0.0
170,37.0,256.0,2040.0,2.0,0.0
171,47.0,256.0,270.0,0.0,0.0
172,53.0,256.0,270.0,0.0,0.0
173,46.0,256.0,270.0,0.0,0.0
174,53.0,256.0,270.0,0.0,0.0
175,47.0,256.0,270.0,0.0,0.0
176,53.0,256.0,270.0,0.0,0.0
177,51.0,256.0,270.0,0.0,0.0
178,53.0,0.0,270.0,0.0,0.0
179,49.0,256.0,270.0,0.0,0.0
180,53.0,256.0,270.0,0.0,0.0
181,47.0,256.0,270.0,0.0,0.0
182,53.0,256.0,270.0,0.0,0.0
183,46.0,256.0,270.0,0.0,0.0
184,49.0,0.0,1020.0,2.0,0.0
185,53.0,256.0,270.0,0.0,0.0
186,47.0,256.0,270.0,0.0,0.0
187,53.0,256.0,270.0,0.0,0.0
188,54.0,0.0,1020.0,2.0,0.0
189,46.0,256.0,270.0,0.0,0.0
190,49.0,256.0,270.0,0.0,0.0
191,51.0,256.0,270.0,0.0,0.0
192,53.0,256.0,270.0,0.0,0.0
193,51.0,256.0,510.0,2.0,0.0
194,54.0,256.0,270.0,0.0,0.0
195,56.0,0.0,270.0,0.0,0.0
196,47.0,0.0,510.0,2.0,0.0
197,58.0,256.0,270.0,0.0,0.0
198,59.0,512.0,270.0,0.0,0.0
199,46.0,512.0,1020.0,2.0,0.0
200,61.0,256.0,510.0,0.0,0.0
201,58.0,256.0,270.0,0.0,0.0
202,54.0,0.0,270.0,0.0,0.0
203,49.0,512.0,510.0,0.0,0.0
204,49.0,0.0,1020.0,2.0,0.0
205,53.0,1024.0,510.0,0.0,0.0
206,42.0,1024.0,1020.0,2.0,0.0
207,42.0,0.0,1020.0,0.0,0.0
208,58.0,1024.0,1020.0,0.0,0.0
209,58.0,256.0,1020.0,0.0,0.0
210,61.0,256.0,270.0,0.0,0.0
211,54.0,0.0,1020.0,2.0,0.0
212,59.0,256.0,270.0,0.0,0.0
213,58.0,256.0,270.0,0.0,0.0
214,59.0,1024.0,270.0,0.0,0.0
215,54.0,512.0,1020.0,2.0,0.0
216,70.0,0.0,15.0,1.0,0.0
217,58.0,512.0,1530.0,0.0,0.0
218,58.0,0.0,1020.0,2.0,0.0
219,54.0,512.0,510.0,0.0,0.0
220,73.0,512.0,2040.0,1.0,0.0
221,54.0,0.0,1020.0,2.0,0.0
222,58.0,512.0,510.0,0.0,0.0
223,54.0,512.0,510.0,0.0,0.0
224,52.0,0.0,510.0,2.0,0.0
225,61.0,512.0,510.0,0.0,0.0
226,54.0,0.0,510.0,0.0,0.0
227,51.0,0.0,510.0,2.0,0.0
228,70.0,0.0,2040.0,1.0,0.0
229,52.0,512.0,1020.0,2.0,0.0
230,54.0,256.0,510.0,0.0,0.0
231,49.0,256.0,270.0,0.0,0.0
232,46.0,0.0,270.0,0.0,0.0
233,42.0,512.0,510.0,0.0,0.0
234,51.0,0.0,510.0,2.0,0.0
235,61.0,512.0,1020.0,0.0,0.0
236,49.0,512.0,510.0,2.0,0.0
237,66.0,0.0,2040.0,1.0,0.0
238,51.0,512.0,1020.0,2.0,0.0
239,54.0,0.0,510.0,0.0,0.0
240,47.0,0.0,1020.0,2.0,0.0
241,63.0,512.0,510.0,0.0,0.0
242,59.0,512.0,510.0,0.0,0.0
243,52.0,0.0,1020.0,2.0,0.0
244,68.0,512.0,2040.0,1.0,0.0
245,56.0,256.0,510.0,0.0,0.0
246,52.0,256.0,270.0,0.0,0.0
247,49.0,512.0,270.0,0.0,0.0
248,40.0,512.0,510.0,0.0,0.0
249,49.0,0.0,1020.0,2.0,0.0
250,64.0,512.0,1020.0,0.0,0.0
251,54.0,512.0,1020.0,2.0,0.0
252,70.0,0.0,2040.0,1.0,0.0
253,61.0,0.0,510.0,0.0,0.0
254,66.0,512.0,510.0,0.0,0.0
255,42.0,512.0,1020.0,2.0,0.0
256,61.0,0.0,510.0,0.0,0.0
257,71.0,512.0,4110.0,1.0,0.0
258,63.0,256.0,510.0,0.0,0.0
259,47.0,512.0,1020.0,2.0,0.0
260,59.0,256.0,270.0,0.0,0.0
261,54.0,0.0,270.0,0.0,0.0
262,47.0,512.0,510.0,0.0,0.0
263,54.0,512.0,510.0,0.0,0.0
264,59.0,512.0,510.0,0.0,0.0
265,51.0,0.0,1020.0,2.0,0.0
266,54.0,512.0,510.0,0.0,0.0
267,63.0,512.0,510.0,0.0,0.0
268,54.0,0.0,510.0,0.0,0.0
269,56.0,512.0,510.0,0.0,0.0
270,53.0,0.0,1020.0,2.0,0.0
271,49.0,512.0,510.0,0.0,0.0
272,59.0,512.0,510.0,0.0,0.0
273,56.0,512.0,510.0,0.0,0.0
274,58.0,512.0,510.0,0.0,0.0
275,54.0,512.0,1020.0,2.0,0.0
276,54.0,0.0,510.0,0.0,0.0
277,42.0,0.0,1020.0,2.0,0.0
278,61.0,512.0,510.0,0.0,0.0
279,54.0,256.0,510.0,0.0,0.0
280,49.0,0.0,1020.0,2.0,0.0
281,56.0,256.0,270.0,0.0,0.0
282,54.0,256.0,270.0,0.0,0.0
283,53.0,256.0,270.0,0.0,0.0
284,51.0,512.0,270.0,0.0,0.0
285,53.0,512.0,1020.0,2.0,0.0
286,49.0,512.0,510.0,0.0,0.0
287,56.0,0.0,510.0,0.0,0.0
288,49.0,0.0,3060.0,2.0,0.0
289,59.0,512.0,510.0,0.0,0.0
290,56.0,512.0,510.0,0.0,0.0
291,65.0,512.0,510.0,0.0,0.0
292,56.0,256.0,510.0,0.0,0.0
293,58.0,256.0,270.0,0.0,0.0
294,56.0,256.0,270.0,0.0,0.0
295,54.0,256.0,270.0,0.0,0.0
296,53.0,512.0,270.0,0.0,0.0
297,58.0,512.0,1020.0,2.0,0.0
298,54.0,512.0,510.0,0.0,0.0
299,58.0,0.0,510.0,0.0,0.0
300,49.0,512.0,3060.0,2.0,0.0
301,61.0,512.0,510.0,0.0,0.0
302,70.0,0.0,2040.0,1.0,0.0
303,58.0,512.0,510.0,0.0,0.0
304,66.0,512.0,510.0,0.0,0.0
305,58.0,256.0,510.0,0.0,0.0
306,68.0,256.0,2040.0,1.0,0.0
307,59.0,256.0,270.0,0.0,0.0
308,58.0,256.0,270.0,0.0,0.0
309,56.0,256.0,270.0,0.0,0.0
310,54.0,0.0,270.0,0.0,0.0
311,53.0,512.0,510.0,0.0,0.0
312,50.0,0.0,1020.0,2.0,0.0
313,58.0,0.0,510.0,0.0,0.0
314,66.0,256.0,270.0,0.0,0.0
315,51.0,0.0,1020.0,2.0,0.0
316,66.0,0.0,2040.0,1.0,0.0
317,58.0,256.0,270.0,0.0,0.0
318,66.0,256.0,270.0,0.0,0.0
319,58.0,256.0,270.0,0.0,0.0
320,49.0,256.0,1020.0,2.0,0.0
321,64.0,256.0,270.0,0.0,0.0
322,58.0,256.0,270.0,0.0,0.0
323,64.0,256.0,270.0,0.0,0.0
324,58.0,0.0,270.0,0.0,0.0
325,47.0,0.0,1020.0,2.0,0.0
326,66.0,256.0,1020.0,1.0,0.0
327,63.0,256.0,270.0,0.0,0.0
328,59.0,256.0,270.0,0.0,0.0
329,63.0,256.0,270.0,0.0,0.0
330,59.0,0.0,270.0,0.0,0.0
331,46.0,0.0,510.0,2.0,0.0
332,65.0,256.0,270.0,0.0,0.0
333,68.0,256.0,1020.0,1.0,0.0
334,59.0,256.0,270.0,0.0,0.0
335,44.0,0.0,510.0,2.0,0.0
336,65.0,256.0,270.0,0.0,0.0
337,59.0,0.0,270.0,0.0,0.0
338,42.0,0.0,1020.0,2.0,0.0
339,66.0,256.0,270.0,0.0,0.0
340,70.0,256.0,2040.0,1.0,0.0
341,65.0,256.0,270.0,0.0,0.0
342,63.0,256.0,270.0,0.0,0.0
343,61.0,256.0,270.0,0.0,0.0
344,59.0,256.0,270.0,0.0,0.0
345,46.0,0.0,1020.0,2.0,0.0
346,58.0,256.0,270.0,0.0,0.0
347,56.0,256.0,270.0,0.0,0.0
348,54.0,0.0,270.0,0.0,0.0
349,63.0,256.0,270.0,0.0,0.0
350,47.0,0.0,1020.0,2.0,0.0
351,68.0,256.0,1020.0,1.0,0.0
352,61.0,256.0,270.0,0.0,0.0
353,59.0,256.0,270.0,0.0,0.0
354,58.0,0.0,270.0,0.0,0.0
355,56.0,256.0,270.0,0.0,0.0
356,66.0,0.0,1020.0,1.0,0.0
357,51.0,0.0,1020.0,2.0,0.0
358,54.0,256.0,270.0,0.0,0.0
359,53.0,256.0,270.0,0.0,0.0
360,51.0,256.0,270.0,0.0,0.0
361,49.0,0.0,1020.0,2.0,0.0
362,68.0,0.0,2040.0,1.0,0.0
363,53.0,256.0,270.0,0.0,0.0
364,54.0,256.0,270.0,0.0,0.0
365,56.0,256.0,270.0,0.0,0.0
366,58.0,512.0,270.0,0.0,0.0
367,37.0,0.0,1020.0,2.0,0.0
368,59.0,512.0,510.0,0.0,0.0
369,56.0,512.0,510.0,0.0,0.0
370,42.0,512.0,1020.0,2.0,0.0
371,66.0,0.0,4110.0,1.0,0.0
372,58.0,512.0,510.0,0.0,0.0
373,54.0,0.0,510.0,0.0,0.0
374,61.0,512.0,510.0,0.0,0.0
375,46.0,256.0,1020.0,2.0,0.0
376,52.0,0.0,510.0,0.0,0.0
377,51.0,256.0,270.0,0.0,0.0
378,47.0,0.0,1020.0,2.0,0.0
379,49.0,256.0,270.0,0.0,0.0
380,47.0,256.0,270.0,0.0,0.0
381,46.0,512.0,270.0,0.0,0.0
382,47.0,512.0,510.0,0.0,0.0
383,51.0,0.0,1020.0,2.0,0.0
384,54.0,512.0,510.0,0.0,0.0
385,44.0,0.0,1020.0,2.0,0.0
386,59.0,512.0,510.0,0.0,0.0
387,56.0,512.0,510.0,0.0,0.0
388,47.0,256.0,1020.0,2.0,0.0
389,63.0,512.0,510.0,0.0,0.0
390,54.0,0.0,510.0,0.0,0.0
391,53.0,256.0,270.0,0.0,0.0
392,49.0,0.0,1020.0,2.0,0.0
393,51.0,256.0,270.0,0.0,0.0
394,49.0,256.0,270.0,0.0,0.0
395,48.0,256.0,270.0,0.0,0.0
396,51.0,0.0,1020.0,2.0,0.0
397,49.0,256.0,270.0,0.0,0.0
398,51.0,256.0,270.0,0.0,0.0
399,53.0,256.0,270.0,0.0,0.0
400,54.0,256.0,270.0,0.0,0.0
401,53.0,256.0,1020.0,2.0,0.0
402,56.0,256.0,270.0,0.0,0.0
403,47.0,256.0,270.0,0.0,0.0
404,56.0,256.0,270.0,0.0,0.0
405,47.0,0.0,270.0,0.0,0.0
406,58.0,256.0,270.0,0.0,0.0
407,54.0,0.0,1020.0,2.0,0.0
408,47.0,256.0,270.0,0.0,0.0
409,58.0,256.0,270.0,0.0,0.0
410,47.0,256.0,270.0,0.0,0.0
411,53.0,0.0,1020.0,2.0,0.0
412,56.0,256.0,270.0,0.0,0.0
413,47.0,256.0,270.0,0.0,0.0
414,56.0,256.0,270.0,0.0,0.0
415,47.0,256.0,270.0,0.0,0.0
416,54.0,256.0,270.0,0.0,0.0
417,51.0,0.0,1020.0,2.0,0.0
418,47.0,256.0,270.0,0.0,0.0
419,54.0,256.0,270.0,0.0,0.0
420,47.0,256.0,270.0,0.0,0.0
421,49.0,256.0,2040.0,2.0,0.0
422,47.0,256.0,270.0,0.0,0.0
423,53.0,256.0,270.0,0.0,0.0
424,46.0,256.0,270.0,0.0,0.0
425,53.0,256.0,270.0,0.0,0.0
426,47.0,256.0,270.0,0.0,0.0
427,53.0,256.0,270.0,0.0,0.0
428,51.0,256.0,270.0,0.0,0.0
429,53.0,0.0,270.0,0.0,0.0
430,49.0,256.0,270.0,0.0,0.0
431,53.0,256.0,270.0,0.0,0.0
432,47.0,256.0,270.0,0.0,0.0
433,53.0,256.0,270.0,0.0,0.0
434,49.0,256.0,1020.0,2.0,0.0
435,46.0,256.0,270.0,0.0,0.0
436,53.0,256.0,270.0,0.0,0.0
437,47.0,256.0,270.0,0.0,0.0
438,53.0,0.0,270.0,0.0,0.0
439,46.0,256.0,270.0,0.0,0.0
440,54.0,0.0,1020.0,2.0,0.0
441,49.0,256.0,270.0,0.0,0.0
442,51.0,256.0,270.0,0.0,0.0
443,53.0,256.0,270.0,0.0,0.0
444,51.0,256.0,510.0,2.0,0.0
445,54.0,256.0,270.0,0.0,0.0
446,56.0,0.0,270.0,0.0,0.0
447,47.0,512.0,510.0,2.0,0.0
448,58.0,256.0,270.0,0.0,0.0
449,59.0,0.0,270.0,0.0,0.0
450,61.0,256.0,510.0,0.0,0.0
451,46.0,0.0,1020.0,2.0,0.0
452,58.0,256.0,270.0,0.0,0.0
453,54.0,512.0,270.0,0.0,0.0
454,49.0,1024.0,1020.0,2.0,0.0
455,49.0,512.0,510.0,0.0,0.0
456,53.0,0.0,510.0,0.0,0.0
457,42.0,1024.0,1020.0,0.0,0.0
458,42.0,1024.0,2040.0,2.0,0.0
459,61.0,0.0,1020.0,0.0,0.0
460,61.0,256.0,1020.0,0.0,0.0
461,70.0,0.0,2040.0,1.0,0.0
462,54.0,0.0,1020.0,2.0,0.0
463,65.0,256.0,270.0,0.0,0.0
464,63.0,256.0,270.0,0.0,0.0
465,62.0,256.0,270.0,0.0,0.0
466,63.0,1024.0,270.0,0.0,0.0
467,53.0,0.0,1020.0,2.0,0.0
468,68.0,0.0,2040.0,1.0,0.0
469,62.0,512.0,1020.0,0.0,0.0
470,56.0,512.0,510.0,2.0,0.0
471,53.0,0.0,510.0,2.0,0.0
472,50.0,256.0,1020.0,2.0,0.0
473,70.0,0.0,2040.0,1.0,0.0
474,53.0,1024.0,15.0,0.0,0.0
475,56.0,256.0,270.0,0.0,0.0
476,46.0,512.0,1020.0,2.0,0.0
477,54.0,256.0,270.0,0.0,0.0
478,53.0,256.0,270.0,0.0,0.0
479,54.0,0.0,270.0,0.0,0.0
480,66.0,512.0,2040.0,1.0,0.0
481,51.0,512.0,510.0,0.0,0.0
482,51.0,0.0,1020.0,2.0,0.0
483,46.0,512.0,510.0,0.0,0.0
484,54.0,512.0,510.0,0.0,0.0
485,51.0,0.0,510.0,0.0,0.0
486,59.0,512.0,510.0,0.0,0.0
487,44.0,512.0,1020.0,2.0,0.0
488,63.0,0.0,2040.0,1.0,0.0
489,56.0,0.0,510.0,0.0,0.0
490,63.0,512.0,510.0,0.0,0.0
491,54.0,512.0,510.0,0.0,0.0
492,65.0,0.0,2040.0,1.0,0.0
493,49.0,512.0,1020.0,2.0,0.0
494,53.0,512.0,510.0,0.0,0.0
495,49.0,0.0,510.0,0.0,0.0
496,56.0,512.0,510.0,0.0,0.0
497,47.0,256.0,510.0,0.0,0.0
498,51.0,256.0,1020.0,2.0,0.0
499,66.0,256.0,2040.0,1.0,0.0
500,46.0,256.0,270.0,0.0,0.0
501,50.0,256.0,270.0,0.0,0.0
502,51.0,256.0,270.0,0.0,0.0
503,53.0,0.0,270.0,0.0,0.0
504,54.0,256.0,270.0,0.0,0.0
505,56.0,256.0,270.0,0.0,0.0
506,58.0,256.0,270.0,0.0,0.0
507,60.0,0.0,270.0,0.0,0.0
508,68.0,0.0,4110.0,1.0,0.0
509,44.0,0.0,1020.0,2.0,0.0
510,61.0,256.0,270.0,0.0,0.0
511,60.0,256.0,270.0,0.0,0.0
512,58.0,256.0,270.0,0.0,0.0
513,60.0,256.0,270.0,0.0,0.0
514,48.0,0.0,1020.0,2.0,0.0
515,56.0,256.0,270.0,0.0,0.0
516,66.0,256.0,270.0,0.0,0.0
517,56.0,256.0,270.0,0.0,0.0
518,66.0,256.0,270.0,0.0,0.0
519,49.0,256.0,1020.0,2.0,0.0
520,65.0,256.0,270.0,0.0,0.0
521,56.0,256.0,270.0,0.0,0.0
522,65.0,256.0,270.0,0.0,0.0
523,56.0,0.0,270.0,0.0,0.0
524,54.0,256.0,270.0,0.0,0.0
525,51.0,256.0,510.0,2.0,0.0
526,65.0,0.0,270.0,0.0,0.0
527,54.0,256.0,270.0,0.0,0.0
528,53.0,256.0,510.0,2.0,0.0
529,65.0,0.0,270.0,0.0,0.0
530,63.0,256.0,270.0,0.0,0.0
531,54.0,0.0,1020.0,2.0,0.0
532,54.0,256.0,270.0,0.0,0.0
533,63.0,256.0,270.0,0.0,0.0
534,54.0,256.0,270.0,0.0,0.0
535,53.0,256.0,270.0,0.0,0.0
536,56.0,0.0,1020.0,2.0,0.0
537,63.0,256.0,270.0,0.0,0.0
538,53.0,256.0,270.0,0.0,0.0
539,63.0,256.0,270.0,0.0,0.0
540,58.0,0.0,1020.0,2.0,0.0
541,61.0,256.0,270.0,0.0,0.0
542,53.0,256.0,270.0,0.0,0.0
543,61.0,256.0,270.0,0.0,0.0
544,53.0,256.0,270.0,0.0,0.0
545,54.0,0.0,1020.0,2.0,0.0
546,51.0,256.0,270.0,0.0,0.0
547,61.0,256.0,270.0,0.0,0.0
548,53.0,256.0,270.0,0.0,0.0
549,61.0,256.0,270.0,0.0,0.0
550,54.0,256.0,270.0,0.0,0.0
551,56.0,0.0,2040.0,2.0,0.0
552,60.0,256.0,270.0,0.0,0.0
553,53.0,256.0,270.0,0.0,0.0
554,60.0,256.0,270.0,0.0,0.0
555,54.0,256.0,270.0,0.0,0.0
556,60.0,256.0,270.0,0.0,0.0
557,58.0,256.0,270.0,0.0,0.0
558,60.0,256.0,270.0,0.0,0.0
559,56.0,256.0,270.0,0.0,0.0
560,60.0,256.0,270.0,0.0,0.0
561,54.0,256.0,270.0,0.0,0.0
562,60.0,256.0,270.0,0.0,0.0
563,53.0,256.0,270.0,0.0,0.0
564,44.0,0.0,1020.0,2.0,0.0
565,60.0,256.0,270.0,0.0,0.0
566,54.0,256.0,270.0,0.0,0.0
567,60.0,256.0,270.0,0.0,0.0
568,53.0,256.0,270.0,0.0,0.0
569,49.0,0.0,1020.0,2.0,0.0
570,56.0,256.0,270.0,0.0,0.0
571,58.0,256.0,270.0,0.0,0.0
572,60.0,256.0,270.0,0.0,0.0
573,61.0,256.0,270.0,0.0,0.0
574,41.0,0.0,510.0,2.0,0.0
575,63.0,256.0,270.0,0.0,0.0
576,39.0,0.0,510.0,2.0,0.0
577,65.0,256.0,270.0,0.0,0.0
578,66.0,256.0,270.0,0.0,0.0
579,70.0,1024.0,2040.0,1.0,0.0
580,65.0,256.0,270.0,0.0,0.0
581,38.0,256.0,1020.0,2.0,0.0
582,63.0,256.0,270.0,0.0,0.0
583,62.0,256.0,270.0,0.0,0.0
584,60.0,0.0,270.0,0.0,0.0
585,58.0,256.0,270.0,0.0,0.0
586,46.0,0.0,1020.0,2.0,0.0
587,56.0,256.0,270.0,0.0,0.0
588,54.0,256.0,270.0,0.0,0.0
589,53.0,0.0,270.0,0.0,0.0
590,51.0,0.0,1020.0,0.0,0.0
591,48.0,1024.0,1020.0,2.0,0.0
592,68.0,512.0,2040.0,1.0,0.0
593,58.0,0.0,1020.0,0.0,0.0
594,50.0,0.0,1020.0,2.0,0.0
595,51.0,512.0,510.0,2.0,0.0
596,66.0,0.0,2040.0,1.0,0.0
597,58.0,0.0,1020.0,0.0,0.0
598,50.0,256.0,510.0,2.0,0.0
599,51.0,256.0,510.0,2.0,0.0
600,61.0,256.0,270.0,0.0,0.0
601,59.0,0.0,270.0,0.0,0.0
602,53.0,0.0,510.0,2.0,0.0
603,58.0,256.0,270.0,0.0,0.0
604,59.0,256.0,270.0,0.0,0.0
605,58.0,256.0,270.0,0.0,0.0
606,54.0,512.0,2550.0,2.0,0.0
607,66.0,256.0,1020.0,1.0,0.0
608,54.0,256.0,270.0,0.0,0.0
609,58.0,256.0,270.0,0.0,0.0
610,54.0,0.0,270.0,0.0,0.0
611,59.0,256.0,270.0,0.0,0.0
612,68.0,0.0,1020.0,1.0,0.0
613,54.0,256.0,270.0,0.0,0.0
614,59.0,256.0,270.0,0.0,0.0
615,54.0,512.0,270.0,0.0,0.0
616,70.0,0.0,2040.0,1.0,0.0
617,61.0,0.0,510.0,0.0,0.0
618,54.0,256.0,510.0,0.0,0.0
619,53.0,0.0,510.0,2.0,0.0
620,66.0,256.0,270.0,0.0,0.0
621,51.0,256.0,510.0,2.0,0.0
622,64.0,0.0,270.0,0.0,0.0
623,63.0,256.0,270.0,0.0,0.0
624,49.0,512.0,510.0,2.0,0.0
625,64.0,0.0,270.0,0.0,0.0
626,63.0,512.0,510.0,0.0,0.0
627,68.0,0.0,1020.0,1.0,0.0
628,47.0,0.0,510.0,2.0,0.0
629,49.0,0.0,510.0,2.0,0.0
630,53.0,512.0,510.0,0.0,0.0
631,66.0,0.0,1020.0,1.0,0.0
632,54.0,512.0,2040.0,0.0,0.0
633,51.0,512.0,510.0,2.0,0.0
634,49.0,512.0,510.0,2.0,0.0
635,47.0,512.0,510.0,2.0,0.0
636,68.0,0.0,2040.0,1.0,0.0
637,44.0,0.0,510.0,2.0,0.0
638,49.0,512.0,510.0,2.0,0.0
639,53.0,512.0,1020.0,0.0,0.0
640,47.0,0.0,510.0,2.0,0.0
641,54.0,512.0,510.0,0.0,0.0
642,66.0,256.0,4110.0,1.0,0.0
643,46.0,512.0,1020.0,2.0,0.0
644,49.0,0.0,510.0,0.0,0.0
645,58.0,512.0,510.0,0.0,0.0
646,42.0,0.0,1020.0,2.0,0.0
647,52.0,256.0,510.0,0.0,0.0
648,51.0,256.0,270.0,0.0,0.0
649,47.0,0.0,1020.0,2.0,0.0
650,49.0,256.0,270.0,0.0,0.0
651,47.0,256.0,270.0,0.0,0.0
652,46.0,256.0,270.0,0.0,0.0
653,51.0,0.0,1020.0,2.0,0.0
654,44.0,256.0,270.0,0.0,0.0
655,39.0,256.0,270.0,0.0,0.0
656,44.0,256.0,270.0,0.0,0.0
657,39.0,0.0,270.0,0.0,0.0
658,49.0,256.0,1020.0,2.0,0.0
659,52.0,256.0,270.0,0.0,0.0
660,42.0,256.0,270.0,0.0,0.0
661,52.0,256.0,270.0,0.0,0.0
662,42.0,0.0,270.0,0.0,0.0
663,51.0,256.0,270.0,0.0,0.0
664,47.0,256.0,1020.0,2.0,0.0
665,42.0,256.0,270.0,0.0,0.0
666,51.0,256.0,270.0,0.0,0.0
667,42.0,0.0,270.0,0.0,0.0
668,49.0,256.0,270.0,0.0,0.0
669,52.0,0.0,1020.0,2.0,0.0
670,42.0,256.0,270.0,0.0,0.0
671,49.0,256.0,270.0,0.0,0.0
672,42.0,256.0,270.0,0.0,0.0
673,51.0,0.0,1020.0,2.0,0.0
674,47.0,256.0,270.0,0.0,0.0
675,42.0,256.0,270.0,0.0,0.0
676,47.0,256.0,270.0,0.0,0.0
677,42.0,256.0,270.0,0.0,0.0
678,49.0,256.0,2040.0,2.0,0.0
679,40.0,256.0,270.0,0.0,0.0
680,46.0,256.0,270.0,0.0,0.0
681,39.0,256.0,270.0,0.0,0.0
682,46.0,256.0,270.0,0.0,0.0
683,40.0,256.0,270.0,0.0,0.0
684,46.0,256.0,270.0,0.0,0.0
685,44.0,256.0,270.0,0.0,0.0
686,46.0,0.0,270.0,0.0,0.0
687,42.0,256.0,270.0,0.0,0.0
688,46.0,256.0,270.0,0.0,0.0
689,40.0,256.0,270.0,0.0,0.0
690,46.0,256.0,270.0,0.0,0.0
691,39.0,256.0,270.0,0.0,0.0
692,42.0,0.0,1020.0,2.0,0.0
693,46.0,256.0,270.0,0.0,0.0
694,40.0,256.0,270.0,0.0,0.0
695,46.0,256.0,270.0,0.0,0.0
696,39.0,256.0,270.0,0.0,0.0
697,47.0,256.0,1530.0,2.0,0.0
698,42.0,256.0,270.0,0.0,0.0
699,44.0,256.0,270.0,0.0,0.0
700,46.0,256.0,270.0,0.0,0.0
701,47.0,256.0,270.0,0.0,0.0
702,49.0,0.0,270.0,0.0,0.0
703,51.0,256.0,270.0,0.0,0.0
704,49.0,256.0,510.0,2.0,0.0
705,53.0,0.0,270.0,0.0,0.0
706,51.0,0.0,510.0,2.0,0.0
707,54.0,256.0,270.0,0.0,0.0
708,56.0,256.0,270.0,0.0,0.0
709,49.0,0.0,510.0,2.0,0.0
710,58.0,256.0,270.0,0.0,0.0
711,59.0,256.0,270.0,0.0,0.0
712,51.0,256.0,510.0,2.0,0.0
713,61.0,256.0,270.0,0.0,0.0
714,59.0,0.0,270.0,0.0,0.0
715,53.0,1024.0,510.0,2.0,0.0
716,58.0,256.0,270.0,0.0,0.0
717,59.0,0.0,270.0,0.0,0.0
718,54.0,512.0,1020.0,2.0,0.0
719,58.0,512.0,1530.0,0.0,0.0
720,58.0,0.0,1020.0,2.0,0.0
721,54.0,512.0,510.0,0.0,0.0
722,54.0,0.0,3060.0,2.0,0.0
723,63.0,512.0,510.0,0.0,0.0
724,58.0,512.0,510.0,0.0,0.0
725,66.0,512.0,510.0,0.0,0.0
726,58.0,512.0,510.0,0.0,0.0
727,60.0,256.0,510.0,0.0,0.0
728,56.0,256.0,270.0,0.0,0.0
729,51.0,512.0,270.0,0.0,0.0
730,44.0,512.0,510.0,0.0,0.0
731,52.0,0.0,510.0,2.0,0.0
732,51.0,512.0,510.0,2.0,0.0
733,56.0,0.0,510.0,0.0,0.0
734,52.0,0.0,3060.0,2.0,0.0
735,61.0,512.0,510.0,0.0,0.0
736,56.0,512.0,510.0,0.0,0.0
737,64.0,512.0,510.0,0.0,0.0
738,56.0,512.0,510.0,0.0,0.0
739,58.0,256.0,510.0,0.0,0.0
740,54.0,256.0,270.0,0.0,0.0
741,49.0,512.0,270.0,0.0,0.0
742,42.0,0.0,510.0,0.0,0.0
743,51.0,512.0,510.0,2.0,0.0
744,49.0,0.0,510.0,2.0,0.0
745,54.0,512.0,510.0,0.0,0.0
746,51.0,0.0,1020.0,2.0,0.0
747,59.0,512.0,510.0,0.0,0.0
748,54.0,512.0,510.0,0.0,0.0
749,63.0,512.0,510.0,0.0,0.0
750,54.0,512.0,510.0,0.0,0.0
751,53.0,512.0,1020.0,2.0,0.0
752,56.0,512.0,510.0,0.0,0.0
753,49.0,0.0,510.0,0.0,0.0
754,59.0,512.0,510.0,0.0,0.0
755,56.0,512.0,510.0,0.0,0.0
756,54.0,0.0,1020.0,2.0,0.0
757,58.0,512.0,510.0,0.0,0.0
758,54.0,512.0,510.0,0.0,0.0
759,61.0,512.0,510.0,0.0,0.0
760,42.0,256.0,1020.0,2.0,0.0
761,54.0,0.0,510.0,0.0,0.0
762,49.0,512.0,1020.0,2.0,0.0
763,56.0,256.0,270.0,0.0,0.0
764,54.0,256.0,270.0,0.0,0.0
765,53.0,256.0,270.0,0.0,0.0
766,51.0,0.0,270.0,0.0,0.0
767,53.0,0.0,1020.0,2.0,0.0
768,49.0,512.0,510.0,0.0,0.0
769,56.0,512.0,510.0,0.0,0.0
770,49.0,512.0,3060.0,2.0,0.0
771,59.0,512.0,510.0,0.0,0.0
772,56.0,512.0,510.0,0.0,0.0
773,65.0,512.0,510.0,0.0,0.0
774,56.0,256.0,510.0,0.0,0.0
775,58.0,256.0,270.0,0.0,0.0
776,56.0,256.0,270.0,0.0,0.0
777,54.0,256.0,270.0,0.0,0.0
778,53.0,0.0,270.0,0.0,0.0
779,58.0,512.0,1020.0,2.0,0.0
780,54.0,512.0,510.0,0.0,0.0
781,58.0,0.0,510.0,0.0,0.0
782,61.0,512.0,510.0,0.0,0.0
783,49.0,0.0,3060.0,2.0,0.0
784,58.0,512.0,510.0,0.0,0.0
785,66.0,512.0,510.0,0.0,0.0
786,58.0,256.0,510.0,0.0,0.0
787,59.0,256.0,270.0,0.0,0.0
788,58.0,256.0,270.0,0.0,0.0
789,56.0,256.0,270.0,0.0,0.0
790,54.0,512.0,270.0,0.0,0.0
791,56.0,0.0,1020.0,2.0,0.0
792,56.0,512.0,510.0,0.0,0.0
793,59.0,512.0,510.0,0.0,0.0
794,49.0,0.0,3060.0,2.0,0.0
795,65.0,512.0,510.0,0.0,0.0
796,59.0,512.0,510.0,0.0,0.0
797,68.0,512.0,510.0,0.0,0.0
798,59.0,256.0,510.0,0.0,0.0
799,61.0,256.0,270.0,0.0,0.0
800,59.0,256.0,270.0,0.0,0.0
801,58.0,256.0,270.0,0.0,0.0
802,56.0,512.0,270.0,0.0,0.0
803,54.0,256.0,1020.0,2.0,0.0
804,58.0,512.0,510.0,0.0,0.0
805,61.0,0.0,510.0,0.0,0.0
806,66.0,256.0,270.0,0.0,0.0
807,51.0,0.0,1020.0,2.0,0.0
808,58.0,256.0,270.0,0.0,0.0
809,66.0,256.0,270.0,0.0,0.0
810,58.0,256.0,270.0,0.0,0.0
811,56.0,256.0,270.0,0.0,0.0
812,47.0,0.0,510.0,2.0,0.0
813,66.0,256.0,270.0,0.0,0.0
814,44.0,256.0,510.0,2.0,0.0
815,56.0,256.0,270.0,0.0,0.0
816,66.0,0.0,270.0,0.0,0.0
817,65.0,256.0,270.0,0.0,0.0
818,49.0,256.0,1020.0,2.0,0.0
819,56.0,256.0,270.0,0.0,0.0
820,65.0,256.0,270.0,0.0,0.0
821,56.0,0.0,270.0,0.0,0.0
822,54.0,256.0,270.0,0.0,0.0
823,46.0,256.0,510.0,2.0,0.0
824,64.0,0.0,270.0,0.0,0.0
825,54.0,256.0,270.0,0.0,0.0
826,42.0,256.0,510.0,2.0,0.0
827,64.0,0.0,270.0,0.0,0.0
828,63.0,256.0,270.0,0.0,0.0
829,47.0,0.0,1020.0,2.0,0.0
830,54.0,256.0,270.0,0.0,0.0
831,63.0,256.0,270.0,0.0,0.0
832,54.0,256.0,270.0,0.0,0.0
833,44.0,256.0,510.0,2.0,0.0
834,53.0,256.0,270.0,0.0,0.0
835,63.0,0.0,270.0,0.0,0.0
836,53.0,256.0,270.0,0.0,0.0
837,41.0,256.0,510.0,2.0,0.0
838,63.0,0.0,270.0,0.0,0.0
839,61.0,256.0,270.0,0.0,0.0
840,46.0,0.0,1020.0,2.0,0.0
841,53.0,256.0,270.0,0.0,0.0
842,61.0,256.0,270.0,0.0,0.0
843,53.0,256.0,270.0,0.0,0.0
844,51.0,256.0,270.0,0.0,0.0
845,42.0,256.0,510.0,2.0,0.0
846,54.0,0.0,270.0,0.0,0.0
847,39.0,0.0,510.0,2.0,0.0
848,56.0,256.0,270.0,0.0,0.0
849,58.0,256.0,270.0,0.0,0.0
850,59.0,256.0,270.0,0.0,0.0
851,44.0,0.0,1020.0,2.0,0.0
852,51.0,256.0,270.0,0.0,0.0
853,59.0,256.0,270.0,0.0,0.0
854,51.0,256.0,270.0,0.0,0.0
855,41.0,256.0,510.0,2.0,0.0
856,49.0,256.0,270.0,0.0,0.0
857,59.0,0.0,270.0,0.0,0.0
858,49.0,256.0,270.0,0.0,0.0
859,37.0,0.0,510.0,2.0,0.0
860,59.0,256.0,270.0,0.0,0.0
861,42.0,0.0,1020.0,2.0,0.0
862,58.0,256.0,270.0,0.0,0.0
863,49.0,256.0,270.0,0.0,0.0
864,58.0,256.0,270.0,0.0,0.0
865,49.0,256.0,270.0,0.0,0.0
866,47.0,256.0,270.0,0.0,0.0
867,39.0,256.0,1020.0,2.0,0.0
868,58.0,256.0,270.0,0.0,0.0
869,47.0,256.0,270.0,0.0,0.0
870,58.0,0.0,270.0,0.0,0.0
871,41.0,256.0,1020.0,2.0,0.0
872,47.0,256.0,270.0,0.0,0.0
873,56.0,256.0,270.0,0.0,0.0
874,47.0,256.0,270.0,0.0,0.0
875,56.0,0.0,270.0,0.0,0.0
876,47.0,256.0,270.0,0.0,0.0
877,44.0,0.0,1020.0,2.0,0.0
878,54.0,256.0,270.0,0.0,0.0
879,47.0,256.0,270.0,0.0,0.0
880,54.0,256.0,270.0,0.0,0.0
881,47.0,256.0,270.0,0.0,0.0
882,37.0,256.0,2040.0,2.0,0.0
883,53.0,256.0,270.0,0.0,0.0
884,46.0,256.0,270.0,0.0,0.0
885,53.0,256.0,270.0,0.0,0.0
886,47.0,256.0,270.0,0.0,0.0
887,53.0,256.0,270.0,0.0,0.0
888,51.0,256.0,270.0,0.0,0.0
889,53.0,0.0,270.0,0.0,0.0
890,49.0,256.0,270.0,0.0,0.0
891,53.0,256.0,270.0,0.0,0.0
892,47.0,256.0,270.0,0.0,0.0
893,53.0,256.0,270.0,0.0,0.0
894,49.0,0.0,1020.0,2.0,0.0
895,46.0,256.0,270.0,0.0,0.0
896,53.0,256.0,270.0,0.0,0.0
897,47.0,256.0,270.0,0.0,0.0
898,53.0,256.0,270.0,0.0,0.0
899,54.0,256.0,1020.0,2.0,0.0
900,46.0,256.0,270.0,0.0,0.0
901,49.0,256.0,270.0,0.0,0.0
902,51.0,256.0,270.0,0.0,0.0
903,53.0,0.0,270.0,0.0,0.0
904,51.0,0.0,510.0,2.0,0.0
905,54.0,256.0,270.0,0.0,0.0
906,56.0,256.0,270.0,0.0,0.0
907,47.0,512.0,510.0,2.0,0.0
908,58.0,256.0,270.0,0.0,0.0
909,59.0,0.0,270.0,0.0,0.0
910,61.0,256.0,510.0,0.0,0.0
911,46.0,512.0,1020.0,2.0,0.0
912,58.0,256.0,270.0,0.0,0.0
913,54.0,0.0,270.0,0.0,0.0
914,49.0,1024.0,1020.0,2.0,0.0
915,49.0,512.0,510.0,0.0,0.0
916,53.0,0.0,510.0,0.0,0.0
917,42.0,0.0,1020.0,2.0,0.0
918,42.0,1024.0,1020.0,0.0,0.0
919,58.0,1024.0,1020.0,0.0,0.0
920,58.0,256.0,1020.0,0.0,0.0
921,70.0,0.0,2040.0,1.0,0.0
922,61.0,256.0,270.0,0.0,0.0
923,59.0,256.0,270.0,0.0,0.0
924,58.0,256.0,270.0,0.0,0.0
925,59.0,1024.0,270.0,0.0,0.0
926,54.0,0.0,15.0,2.0,0.0
927,70.0,0.0,2040.0,1.0,0.0
928,58.0,512.0,1530.0,0.0,0.0
929,58.0,512.0,1020.0,2.0,0.0
930,54.0,0.0,510.0,0.0,0.0
931,54.0,0.0,1020.0,2.0,0.0
932,58.0,512.0,510.0,0.0,0.0
933,73.0,0.0,2040.0,1.0,0.0
934,54.0,512.0,510.0,0.0,0.0
935,61.0,0.0,510.0,0.0,0.0
936,52.0,512.0,510.0,2.0,0.0
937,51.0,512.0,510.0,2.0,0.0
938,54.0,0.0,15.0,0.0,0.0
939,70.0,512.0,2040.0,1.0,0.0
940,52.0,512.0,1020.0,2.0,0.0
941,49.0,256.0,270.0,0.0,0.0
942,46.0,0.0,270.0,0.0,0.0
943,42.0,512.0,510.0,0.0,0.0
944,51.0,0.0,510.0,2.0,0.0
945,61.0,512.0,1020.0,0.0,0.0
946,49.0,0.0,510.0,2.0,0.0
947,51.0,0.0,1020.0,2.0,0.0
948,66.0,0.0,2040.0,1.0,0.0
949,54.0,512.0,510.0,0.0,0.0
950,63.0,512.0,510.0,0.0,0.0
951,47.0,512.0,1020.0,2.0,0.0
952,59.0,0.0,510.0,0.0,0.0
953,56.0,256.0,510.0,0.0,0.0
954,68.0,0.0,2040.0,1.0,0.0
955,52.0,512.0,1020.0,2.0,0.0
956,52.0,256.0,270.0,0.0,0.0
957,49.0,0.0,270.0,0.0,0.0
958,40.0,512.0,510.0,0.0,0.0
959,49.0,512.0,1020.0,2.0,0.0
960,64.0,512.0,1020.0,0.0,0.0
961,70.0,0.0,2040.0,1.0,0.0
962,54.0,0.0,1020.0,2.0,0.0
963,61.0,512.0,510.0,0.0,0.0
964,42.0,0.0,1020.0,2.0,0.0
965,66.0,512.0,510.0,0.0,0.0
966,61.0,512.0,510.0,0.0,0.0
967,63.0,256.0,510.0,0.0,0.0
968,71.0,0.0,4110.0,1.0,0.0
969,47.0,0.0,1020.0,2.0,0.0
970,59.0,256.0,270.0,0.0,0.0
971,54.0,512.0,270.0,0.0,0.0
972,47.0,512.0,510.0,0.0,0.0
973,54.0,512.0,510.0,0.0,0.0
974,59.0,512.0,510.0,0.0,0.0
975,51.0,512.0,1020.0,2.0,0.0
976,54.0,0.0,510.0,0.0,0.0
977,63.0,512.0,510.0,0.0,0.0
978,54.0,512.0,510.0,0.0,0.0
979,56.0,512.0,510.0,0.0,0.0
980,53.0,512.0,1020.0,2.0,0.0
981,49.0,0.0,510.0,0.0,0.0
982,59.0,512.0,510.0,0.0,0.0
983,56.0,512.0,510.0,0.0,0.0
984,58.0,512.0,510.0,0.0,0.0
985,54.0,0.0,1020.0,2.0,0.0
986,54.0,512.0,510.0,0.0,0.0
987,42.0,0.0,1020.0,2.0,0.0
988,61.0,512.0,510.0,0.0,0.0
989,54.0,256.0,510.0,0.0,0.0
990,49.0,0.0,1020.0,2.0,0.0
991,56.0,256.0,270.0,0.0,0.0
992,54.0,256.0,270.0,0.0,0.0
993,53.0,256.0,270.0,0.0,0.0
994,51.0,512.0,270.0,0.0,0.0
995,53.0,512.0,1020.0,2.0,0.0
996,49.0,512.0,510.0,0.0,0.0
997,56.0,0.0,510.0,0.0,0.0
998,49.0,512.0,3060.0,2.0,0.0
999,59.0,512.0,510.0,0.0,0.0
1000,56.0,512.0,510.0,0.0,0.0
1001,65.0,512.0,510.0,0.0,0.0
1002,56.0,256.0,510.0,0.0,0.0
1003,58.0,256.0,270.0,0.0,0.0
1004,56.0,256.0,270.0,0.0,0.0
1005,54.0,256.0,270.0,0.0,0.0
1006,53.0,0.0,270.0,0.0,0.0
1007,54.0,512.0,510.0,0.0,0.0
1008,58.0,512.0,1020.0,2.0,0.0
1009,58.0,0.0,510.0,0.0,0.0
1010,49.0,0.0,3060.0,2.0,0.0
1011,70.0,0.0,2040.0,1.0,0.0
1012,61.0,512.0,510.0,0.0,0.0
1013,58.0,512.0,510.0,0.0,0.0
1014,66.0,512.0,510.0,0.0,0.0
1015,58.0,256.0,510.0,0.0,0.0
1016,68.0,0.0,2040.0,1.0,0.0
1017,59.0,256.0,270.0,0.0,0.0
1018,58.0,256.0,270.0,0.0,0.0
1019,56.0,256.0,270.0,0.0,0.0
1020,54.0,512.0,270.0,0.0,0.0
1021,50.0,256.0,1020.0,2.0,0.0
1022,53.0,512.0,510.0,0.0,0.0
1023,58.0,0.0,510.0,0.0,0.0
1024,51.0,0.0,1020.0,2.0,0.0
1025,66.0,256.0,270.0,0.0,0.0
1026,66.0,0.0,2040.0,1.0,0.0
1027,58.0,256.0,270.0,0.0,0.0
1028,66.0,256.0,270.0,0.0,0.0
1029,58.0,256.0,270.0,0.0,0.0
1030,49.0,0.0,1020.0,2.0,0.0
1031,64.0,256.0,270.0,0.0,0.0
1032,58.0,256.0,270.0,0.0,0.0
1033,64.0,256.0,270.0,0.0,0.0
1034,58.0,256.0,270.0,0.0,0.0
1035,66.0,0.0,1020.0,1.0,0.0
1036,47.0,0.0,1020.0,2.0,0.0
1037,63.0,256.0,270.0,0.0,0.0
1038,59.0,256.0,270.0,0.0,0.0
1039,63.0,256.0,270.0,0.0,0.0
1040,59.0,256.0,270.0,0.0,0.0
1041,68.0,256.0,1020.0,1.0,0.0
1042,46.0,0.0,510.0,2.0,0.0
1043,65.0,256.0,270.0,0.0,0.0
1044,59.0,256.0,270.0,0.0,0.0
1045,44.0,0.0,510.0,2.0,0.0
1046,65.0,256.0,270.0,0.0,0.0
1047,59.0,0.0,270.0,0.0,0.0
1048,66.0,256.0,270.0,0.0,0.0
1049,70.0,0.0,2040.0,1.0,0.0
1050,42.0,0.0,1020.0,2.0,0.0
1051,65.0,256.0,270.0,0.0,0.0
1052,63.0,256.0,270.0,0.0,0.0
1053,61.0,256.0,270.0,0.0,0.0
1054,46.0,0.0,1020.0,2.0,0.0
1055,59.0,256.0,270.0,0.0,0.0
1056,58.0,256.0,270.0,0.0,0.0
1057,56.0,256.0,270.0,0.0,0.0
1058,54.0,256.0,270.0,0.0,0.0
1059,68.0,0.0,1020.0,1.0,0.0
1060,47.0,0.0,1020.0,2.0,0.0
1061,63.0,256.0,270.0,0.0,0.0
1062,61.0,256.0,270.0,0.0,0.0
1063,59.0,256.0,270.0,0.0,0.0
1064,58.0,256.0,270.0,0.0,0.0
1065,66.0,0.0,1020.0,1.0,0.0
1066,51.0,256.0,1020.0,2.0,0.0
1067,56.0,256.0,270.0,0.0,0.0
1068,54.0,256.0,270.0,0.0,0.0
1069,53.0,256.0,270.0,0.0,0.0
1070,51.0,0.0,270.0,0.0,0.0
1071,68.0,512.0,2040.0,1.0,0.0
1072,53.0,256.0,270.0,0.0,0.0
1073,49.0,0.0,1020.0,2.0,0.0
1074,54.0,256.0,270.0,0.0,0.0
1075,56.0,256.0,270.0,0.0,0.0
1076,58.0,512.0,270.0,0.0,0.0
1077,59.0,512.0,510.0,0.0,0.0
1078,37.0,0.0,1020.0,2.0,0.0
1079,56.0,0.0,510.0,0.0,0.0
1080,66.0,0.0,4110.0,1.0,0.0
1081,42.0,512.0,1020.0,2.0,0.0
1082,58.0,512.0,510.0,0.0,0.0
1083,54.0,0.0,510.0,0.0,0.0
1084,61.0,512.0,510.0,0.0,0.0
1085,46.0,256.0,1020.0,2.0,0.0
1086,52.0,0.0,510.0,0.0,0.0
1087,51.0,256.0,270.0,0.0,0.0
1088,47.0,512.0,1020.0,2.0,0.0
1089,49.0,256.0,270.0,0.0,0.0
1090,47.0,256.0,270.0,0.0,0.0
1091,46.0,0.0,270.0,0.0,0.0
1092,51.0,0.0,1020.0,2.0,0.0
1093,47.0,512.0,510.0,0.0,0.0
1094,54.0,512.0,510.0,0.0,0.0
1095,44.0,0.0,1020.0,2.0,0.0
1096,59.0,512.0,510.0,0.0,0.0
1097,56.0,512.0,510.0,0.0,0.0
1098,47.0,0.0,1020.0,2.0,0.0
1099,63.0,512.0,510.0,0.0,0.0
1100,54.0,256.0,510.0,0.0,0.0
1101,53.0,256.0,270.0,0.0,0.0
1102,49.0,256.0,1020.0,2.0,0.0
1103,51.0,256.0,270.0,0.0,0.0
1104,49.0,256.0,270.0,0.0,0.0
1105,48.0,0.0,270.0,0.0,0.0
1106,49.0,256.0,270.0,0.0,0.0
1107,51.0,0.0,1020.0,2.0,0.0
1108,51.0,256.0,270.0,0.0,0.0
1109,53.0,256.0,270.0,0.0,0.0
1110,54.0,256.0,270.0,0.0,0.0
1111,53.0,0.0,1020.0,2.0,0.0
1112,56.0,256.0,270.0,0.0,0.0
1113,47.0,256.0,270.0,0.0,0.0
1114,56.0,256.0,270.0,0.0,0.0
1115,47.0,256.0,270.0,0.0,0.0
1116,58.0,256.0,270.0,0.0,0.0
1117,54.0,256.0,1020.0,2.0,0.0
1118,47.0,256.0,270.0,0.0,0.0
1119,58.0,256.0,270.0,0.0,0.0
1120,47.0,0.0,270.0,0.0,0.0
1121,53.0,256.0,1020.0,2.0,0.0
1122,56.0,256.0,270.0,0.0,0.0
1123,47.0,256.0,270.0,0.0,0.0
1124,56.0,256.0,270.0,0.0,0.0
1125,47.0,0.0,270.0,0.0,0.0
1126,51.0,0.0,1020.0,2.0,0.0
1127,54.0,256.0,270.0,0.0,0.0
1128,47.0,256.0,270.0,0.0,0.0
1129,54.0,256.0,270.0,0.0,0.0
1130,47.0,256.0,270.0,0.0,0.0
1131,49.0,256.0,2040.0,2.0,0.0
1132,47.0,256.0,270.0,0.0,0.0
1133,53.0,256.0,270.0,0.0,0.0
1134,46.0,256.0,270.0,0.0,0.0
1135,53.0,256.0,270.0,0.0,0.0
1136,47.0,256.0,270.0,0.0,0.0
1137,53.0,256.0,270.0,0.0,0.0
1138,51.0,256.0,270.0,0.0,0.0
1139,53.0,0.0,270.0,0.0,0.0
1140,49.0,256.0,270.0,0.0,0.0
1141,53.0,256.0,270.0,0.0,0.0
1142,47.0,256.0,270.0,0.0,0.0
1143,53.0,256.0,270.0,0.0,0.0
1144,46.0,256.0,270.0,0.0,0.0
1145,49.0,256.0,1020.0,2.0,0.0
1146,53.0,256.0,270.0,0.0,0.0
1147,47.0,256.0,270.0,0.0,0.0
1148,53.0,0.0,270.0,0.0,0.0
1149,46.0,256.0,270.0,0.0,0.0
1150,54.0,0.0,1020.0,2.0,0.0
1151,49.0,256.0,270.0,0.0,0.0
1152,51.0,256.0,270.0,0.0,0.0
1153,53.0,256.0,270.0,0.0,0.0
1154,54.0,256.0,270.0,0.0,0.0
1155,51.0,0.0,510.0,2.0,0.0
1156,56.0,256.0,270.0,0.0,0.0
1157,58.0,256.0,270.0,0.0,0.0
1158,47.0,0.0,510.0,2.0,0.0
1159,59.0,512.0,270.0,0.0,0.0
1160,61.0,256.0,510.0,0.0,0.0
1161,46.0,512.0,1020.0,2.0,0.0
1162,58.0,256.0,270.0,0.0,0.0
1163,54.0,0.0,270.0,0.0,0.0
1164,49.0,512.0,510.0,0.0,0.0
1165,49.0,1024.0,1020.0,2.0,0.0
1166,53.0,0.0,510.0,0.0,0.0
1167,42.0,1024.0,1020.0,0.0,0.0
1168,42.0,0.0,2040.0,2.0,0.0
1169,61.0,1024.0,15.0,0.0,0.0
1170,70.0,1024.0,2040.0,1.0,0.0
1171,65.0,256.0,270.0,0.0,0.0
1172,54.0,0.0,1020.0,2.0,0.0
1173,63.0,256.0,270.0,0.0,0.0
1174,62.0,256.0,270.0,0.0,0.0
1175,63.0,0.0,270.0,0.0,0.0
1176,53.0,512.0,1020.0,2.0,0.0
1177,62.0,0.0,1020.0,0.0,0.0
1178,68.0,1024.0,2040.0,1.0,0.0
1179,56.0,512.0,510.0,2.0,0.0
1180,53.0,0.0,1020.0,0.0,0.0
1181,53.0,0.0,510.0,2.0,0.0
1182,50.0,0.0,1020.0,2.0,0.0
1183,53.0,256.0,1020.0,0.0,0.0
1184,70.0,512.0,2040.0,1.0,0.0
1185,56.0,256.0,270.0,0.0,0.0
1186,46.0,0.0,1020.0,2.0,0.0
1187,54.0,256.0,270.0,0.0,0.0
1188,53.0,256.0,270.0,0.0,0.0
1189,54.0,0.0,270.0,0.0,0.0
1190,51.0,512.0,1020.0,2.0,0.0
1191,66.0,512.0,2040.0,1.0,0.0
1192,51.0,512.0,510.0,0.0,0.0
1193,46.0,0.0,510.0,0.0,0.0
1194,54.0,512.0,510.0,0.0,0.0
1195,51.0,0.0,510.0,0.0,0.0
1196,44.0,512.0,1020.0,2.0,0.0
1197,63.0,0.0,2040.0,1.0,0.0
1198,59.0,512.0,510.0,0.0,0.0
1199,56.0,0.0,510.0,0.0,0.0
1200,63.0,512.0,510.0,0.0,0.0
1201,54.0,512.0,510.0,0.0,0.0
1202,53.0,512.0,510.0,0.0,0.0
1203,65.0,256.0,2040.0,1.0,0.0
1204,49.0,0.0,1020.0,2.0,0.0
1205,49.0,512.0,510.0,0.0,0.0
1206,56.0,512.0,510.0,0.0,0.0
1207,47.0,0.0,510.0,0.0,0.0
1208,46.0,256.0,270.0,0.0,0.0
1209,51.0,256.0,1020.0,2.0,0.0
1210,66.0,256.0,2040.0,1.0,0.0
1211,50.0,256.0,270.0,0.0,0.0
1212,51.0,256.0,270.0,0.0,0.0
1213,53.0,0.0,270.0,0.0,0.0
1214,54.0,256.0,270.0,0.0,0.0
1215,56.0,256.0,270.0,0.0,0.0
1216,58.0,256.0,270.0,0.0,0.0
1217,60.0,0.0,270.0,0.0,0.0
1218,44.0,256.0,1020.0,2.0,0.0
1219,68.0,0.0,4110.0,1.0,0.0
1220,61.0,256.0,270.0,0.0,0.0
1221,60.0,256.0,270.0,0.0,0.0
1222,58.0,256.0,270.0,0.0,0.0
1223,60.0,0.0,270.0,0.0,0.0
1224,48.0,0.0,1020.0,2.0,0.0
1225,56.0,256.0,270.0,0.0,0.0
1226,66.0,256.0,270.0,0.0,0.0
1227,56.0,256.0,270.0,0.0,0.0
1228,66.0,256.0,270.0,0.0,0.0
1229,65.0,256.0,270.0,0.0,0.0
1230,49.0,0.0,1020.0,2.0,0.0
1231,56.0,256.0,270.0,0.0,0.0
1232,65.0,256.0,270.0,0.0,0.0
1233,56.0,256.0,270.0,0.0,0.0
1234,51.0,256.0,510.0,2.0,0.0
1235,54.0,256.0,270.0,0.0,0.0
1236,65.0,0.0,270.0,0.0,0.0
1237,54.0,256.0,270.0,0.0,0.0
1238,53.0,256.0,510.0,2.0,0.0
1239,65.0,0.0,270.0,0.0,0.0
1240,63.0,256.0,270.0,0.0,0.0
1241,54.0,256.0,1020.0,2.0,0.0
1242,54.0,256.0,270.0,0.0,0.0
1243,63.0,256.0,270.0,0.0,0.0
1244,54.0,0.0,270.0,0.0,0.0
1245,56.0,0.0,1020.0,2.0,0.0
1246,53.0,256.0,270.0,0.0,0.0
1247,63.0,256.0,270.0,0.0,0.0
1248,53.0,256.0,270.0,0.0,0.0
1249,63.0,256.0,270.0,0.0,0.0
1250,61.0,256.0,270.0,0.0,0.0
1251,58.0,256.0,1020.0,2.0,0.0
1252,53.0,256.0,270.0,0.0,0.0
1253,61.0,256.0,270.0,0.0,0.0
1254,53.0,0.0,270.0,0.0,0.0
1255,51.0,256.0,270.0,0.0,0.0
1256,54.0,256.0,1020.0,2.0,0.0
1257,61.0,256.0,270.0,0.0,0.0
1258,53.0,256.0,270.0,0.0,0.0
1259,61.0,0.0,270.0,0.0,0.0
1260,54.0,256.0,270.0,0.0,0.0
1261,56.0,256.0,2040.0,2.0,0.0
1262,60.0,256.0,270.0,0.0,0.0
1263,53.0,256.0,270.0,0.0,0.0
1264,60.0,256.0,270.0,0.0,0.0
1265,54.0,256.0,270.0,0.0,0.0
1266,60.0,256.0,270.0,0.0,0.0
1267,58.0,256.0,270.0,0.0,0.0
1268,60.0,0.0,270.0,0.0,0.0
1269,56.0,256.0,270.0,0.0,0.0
1270,60.0,256.0,270.0,0.0,0.0
1271,54.0,256.0,270.0,0.0,0.0
1272,60.0,256.0,270.0,0.0,0.0
1273,53.0,256.0,270.0,0.0,0.0
1274,44.0,256.0,1020.0,2.0,0.0
1275,60.0,256.0,270.0,0.0,0.0
1276,54.0,256.0,270.0,0.0,0.0
1277,60.0,0.0,270.0,0.0,0.0
1278,53.0,256.0,270.0,0.0,0.0
1279,49.0,256.0,1020.0,2.0,0.0
1280,56.0,256.0,270.0,0.0,0.0
1281,58.0,256.0,270.0,0.0,0.0
1282,60.0,0.0,270.0,0.0,0.0
1283,41.0,0.0,510.0,2.0,0.0
1284,61.0,256.0,270.0,0.0,0.0
1285,63.0,256.0,270.0,0.0,0.0
1286,39.0,256.0,510.0,2.0,0.0
1287,65.0,256.0,270.0,0.0,0.0
1288,66.0,0.0,270.0,0.0,0.0
1289,65.0,256.0,270.0,0.0,0.0
1290,70.0,0.0,2040.0,1.0,0.0
1291,38.0,256.0,1020.0,2.0,0.0
1292,63.0,256.0,270.0,0.0,0.0
1293,62.0,256.0,270.0,0.0,0.0
1294,60.0,0.0,270.0,0.0,0.0
1295,58.0,256.0,270.0,0.0,0.0
1296,46.0,1024.0,1020.0,2.0,0.0
1297,56.0,256.0,270.0,0.0,0.0
1298,54.0,256.0,270.0,0.0,0.0
1299,53.0,0.0,270.0,0.0,0.0
1300,51.0,0.0,1020.0,0.0,0.0
1301,68.0,0.0,2040.0,1.0,0.0
1302,48.0,1024.0,1020.0,2.0,0.0
1303,50.0,512.0,1020.0,2.0,0.0
1304,58.0,0.0,15.0,0.0,0.0
1305,66.0,256.0,2040.0,1.0,0.0
1306,51.0,512.0,510.0,2.0,0.0
1307,50.0,256.0,510.0,2.0,0.0
1308,61.0,256.0,270.0,0.0,0.0
1309,51.0,256.0,510.0,2.0,0.0
1310,59.0,0.0,270.0,0.0,0.0
1311,58.0,256.0,270.0,0.0,0.0
1312,53.0,0.0,510.0,2.0,0.0
1313,59.0,0.0,270.0,0.0,0.0
1314,54.0,0.0,2550.0,2.0,0.0
1315,66.0,256.0,1020.0,1.0,0.0
1316,58.0,256.0,270.0,0.0,0.0
1317,54.0,256.0,270.0,0.0,0.0
1318,58.0,256.0,270.0,0.0,0.0
1319,54.0,0.0,270.0,0.0,0.0
1320,59.0,256.0,270.0,0.0,0.0
1321,68.0,512.0,1020.0,1.0,0.0
1322,54.0,256.0,270.0,0.0,0.0
1323,59.0,256.0,270.0,0.0,0.0
1324,54.0,0.0,270.0,0.0,0.0
1325,61.0,512.0,510.0,0.0,0.0
1326,70.0,0.0,2040.0,1.0,0.0
1327,53.0,0.0,510.0,2.0,0.0
1328,54.0,256.0,510.0,0.0,0.0
1329,51.0,256.0,510.0,2.0,0.0
1330,66.0,256.0,270.0,0.0,0.0
1331,64.0,0.0,270.0,0.0,0.0
1332,49.0,512.0,510.0,2.0,0.0
1333,63.0,256.0,270.0,0.0,0.0
1334,64.0,0.0,270.0,0.0,0.0
1335,63.0,512.0,510.0,0.0,0.0
1336,68.0,0.0,1020.0,1.0,0.0
1337,47.0,0.0,510.0,2.0,0.0
1338,49.0,512.0,510.0,2.0,0.0
1339,53.0,0.0,510.0,0.0,0.0
1340,66.0,0.0,1020.0,1.0,0.0
1341,54.0,0.0,2040.0,0.0,0.0
1342,51.0,512.0,510.0,2.0,0.0
1343,49.0,512.0,510.0,2.0,0.0
1344,68.0,0.0,2040.0,1.0,0.0
1345,47.0,512.0,510.0,2.0,0.0
1346,44.0,512.0,510.0,2.0,0.0
1347,53.0,512.0,1020.0,0.0,0.0
1348,49.0,512.0,510.0,2.0,0.0
1349,47.0,0.0,510.0,2.0,0.0
1350,66.0,256.0,4110.0,1.0,0.0
1351,46.0,0.0,1020.0,2.0,0.0
1352,54.0,512.0,510.0,0.0,0.0
1353,49.0,512.0,510.0,0.0,0.0
1354,42.0,256.0,1020.0,2.0,0.0
1355,58.0,512.0,510.0,0.0,0.0
1356,52.0,0.0,510.0,0.0,0.0
1357,51.0,256.0,270.0,0.0,0.0
1358,47.0,256.0,1020.0,2.0,0.0
1359,49.0,256.0,270.0,0.0,0.0
1360,47.0,256.0,270.0,0.0,0.0
1361,46.0,0.0,270.0,0.0,0.0
1362,51.0,0.0,1020.0,2.0,0.0
1363,44.0,256.0,270.0,0.0,0.0
1364,39.0,256.0,270.0,0.0,0.0
1365,44.0,256.0,270.0,0.0,0.0
1366,39.0,0.0,270.0,0.0,0.0
1367,49.0,256.0,1020.0,2.0,0.0
1368,52.0,256.0,270.0,0.0,0.0
1369,42.0,256.0,270.0,0.0,0.0
1370,52.0,256.0,270.0,0.0,0.0
1371,42.0,0.0,270.0,0.0,0.0
1372,51.0,256.0,270.0,0.0,0.0
1373,47.0,256.0,1020.0,2.0,0.0
1374,42.0,256.0,270.0,0.0,0.0
1375,51.0,256.0,270.0,0.0,0.0
1376,42.0,0.0,270.0,0.0,0.0
1377,49.0,256.0,270.0,0.0,0.0
1378,52.0,256.0,1020.0,2.0,0.0
1379,42.0,256.0,270.0,0.0,0.0
1380,49.0,256.0,270.0,0.0,0.0
1381,42.0,0.0,270.0,0.0,0.0
1382,47.0,256.0,270.0,0.0,0.0
1383,51.0,256.0,1020.0,2.0,0.0
1384,42.0,256.0,270.0,0.0,0.0
1385,47.0,256.0,270.0,0.0,0.0
1386,42.0,0.0,270.0,0.0,0.0
1387,40.0,256.0,270.0,0.0,0.0
1388,49.0,256.0,2040.0,2.0,0.0
1389,46.0,256.0,270.0,0.0,0.0
1390,39.0,256.0,270.0,0.0,0.0
1391,46.0,256.0,270.0,0.0,0.0
1392,40.0,256.0,270.0,0.0,0.0
1393,46.0,256.0,270.0,0.0,0.0
1394,44.0,256.0,270.0,0.0,0.0
1395,46.0,0.0,270.0,0.0,0.0
1396,42.0,256.0,270.0,0.0,0.0
1397,46.0,256.0,270.0,0.0,0.0
1398,40.0,256.0,270.0,0.0,0.0
1399,46.0,256.0,270.0,0.0,0.0
1400,39.0,256.0,270.0,0.0,0.0
1401,42.0,256.0,1020.0,2.0,0.0
1402,46.0,256.0,270.0,0.0,0.0
1403,40.0,256.0,270.0,0.0,0.0
1404,46.0,0.0,270.0,0.0,0.0
1405,39.0,256.0,270.0,0.0,0.0
1406,47.0,0.0,1530.0,2.0,0.0
1407,42.0,256.0,270.0,0.0,0.0
1408,44.0,256.0,270.0,0.0,0.0
1409,46.0,256.0,270.0,0.0,0.0
1410,47.0,256.0,270.0,0.0,0.0
1411,49.0,256.0,270.0,0.0,0.0
1412,49.0,0.0,510.0,2.0,0.0
1413,51.0,256.0,270.0,0.0,0.0
1414,53.0,256.0,270.0,0.0,0.0
1415,54.0,256.0,270.0,0.0,0.0
1416,51.0,0.0,510.0,2.0,0.0
1417,56.0,256.0,270.0,0.0,0.0
1418,49.0,0.0,510.0,2.0,0.0
1419,58.0,256.0,270.0,0.0,0.0
1420,59.0,256.0,270.0,0.0,0.0
1421,61.0,256.0,270.0,0.0,0.0
1422,51.0,256.0,510.0,2.0,0.0
1423,59.0,0.0,270.0,0.0,0.0
1424,58.0,256.0,270.0,0.0,0.0
1425,53.0,512.0,510.0,2.0,0.0
1426,59.0,0.0,270.0,0.0,0.0
1427,58.0,256.0,780.0,0.0,0.0
1428,54.0,256.0,510.0,2.0,0.0
1429,52.0,0.0,510.0,2.0,0.0
1430,54.0,256.0,270.0,0.0,0.0
1431,51.0,0.0,510.0,2.0,0.0
1432,56.0,256.0,270.0,0.0,0.0
1433,58.0,256.0,270.0,0.0,0.0
1434,59.0,256.0,270.0,0.0,0.0
1435,49.0,0.0,510.0,2.0,0.0
1436,61.0,256.0,270.0,0.0,0.0
1437,63.0,256.0,270.0,0.0,0.0
1438,47.0,256.0,1020.0,2.0,0.0
1439,64.0,256.0,270.0,0.0,0.0
1440,63.0,256.0,270.0,0.0,0.0
1441,61.0,0.0,270.0,0.0,0.0
1442,51.0,256.0,1020.0,2.0,0.0
1443,59.0,256.0,270.0,0.0,0.0
1444,58.0,256.0,270.0,0.0,0.0
1445,56.0,256.0,270.0,0.0,0.0
1446,54.0,0.0,270.0,0.0,0.0
1447,49.0,512.0,1020.0,2.0,0.0
1448,56.0,256.0,270.0,0.0,0.0
1449,54.0,256.0,270.0,0.0,0.0
1450,53.0,256.0,270.0,0.0,0.0
1451,51.0,0.0,270.0,0.0,0.0
1452,49.0,512.0,510.0,0.0,0.0
1453,53.0,512.0,1020.0,2.0,0.0
1454,56.0,0.0,510.0,0.0,0.0
1455,49.0,512.0,3060.0,2.0,0.0
1456,59.0,512.0,510.0,0.0,0.0
1457,56.0,512.0,510.0,0.0,0.0
1458,65.0,512.0,510.0,0.0,0.0
1459,56.0,256.0,510.0,0.0,0.0
1460,58.0,256.0,270.0,0.0,0.0
1461,56.0,256.0,270.0,0.0,0.0
1462,54.0,256.0,270.0,0.0,0.0
1463,53.0,0.0,270.0,0.0,0.0
1464,54.0,512.0,510.0,0.0,0.0
1465,58.0,0.0,1020.0,2.0,0.0
1466,58.0,512.0,510.0,0.0,0.0
1467,49.0,512.0,3060.0,2.0,0.0
1468,61.0,512.0,510.0,0.0,0.0
1469,58.0,512.0,510.0,0.0,0.0
1470,66.0,512.0,510.0,0.0,0.0
1471,58.0,256.0,510.0,0.0,0.0
1472,59.0,256.0,270.0,0.0,0.0
1473,58.0,256.0,270.0,0.0,0.0
1474,56.0,256.0,270.0,0.0,0.0
1475,54.0,0.0,270.0,0.0,0.0
1476,56.0,512.0,510.0,0.0,0.0
1477,56.0,0.0,1020.0,2.0,0.0
1478,59.0,512.0,510.0,0.0,0.0
1479,49.0,512.0,3060.0,2.0,0.0
1480,65.0,512.0,510.0,0.0,0.0
1481,59.0,512.0,510.0,0.0,0.0
1482,68.0,512.0,510.0,0.0,0.0
1483,59.0,256.0,510.0,0.0,0.0
1484,61.0,256.0,270.0,0.0,0.0
1485,59.0,256.0,270.0,0.0,0.0
1486,58.0,256.0,270.0,0.0,0.0
1487,56.0,0.0,270.0,0.0,0.0
1488,58.0,512.0,510.0,0.0,0.0
1489,54.0,0.0,1020.0,2.0,0.0
1490,61.0,256.0,510.0,0.0,0.0
1491,51.0,0.0,1020.0,2.0,0.0
1492,66.0,256.0,270.0,0.0,0.0
1493,58.0,256.0,270.0,0.0,0.0
1494,66.0,256.0,270.0,0.0,0.0
1495,58.0,256.0,270.0,0.0,0.0
1496,47.0,0.0,510.0,2.0,0.0
1497,56.0,256.0,270.0,0.0,0.0
1498,66.0,256.0,270.0,0.0,0.0
1499,44.0,256.0,510.0,2.0,0.0
1500,56.0,256.0,270.0,0.0,0.0
1501,66.0,0.0,270.0,0.0,0.0
1502,65.0,256.0,270.0,0.0,0.0
1503,49.0,0.0,1020.0,2.0,0.0
1504,56.0,256.0,270.0,0.0,0.0
1505,65.0,256.0,270.0,0.0,0.0
1506,56.0,256.0,270.0,0.0,0.0
1507,54.0,256.0,270.0,0.0,0.0
1508,46.0,0.0,510.0,2.0,0.0
1509,64.0,256.0,270.0,0.0,0.0
1510,42.0,0.0,510.0,2.0,0.0
1511,54.0,256.0,270.0,0.0,0.0
1512,64.0,256.0,270.0,0.0,0.0
1513,63.0,256.0,270.0,0.0,0.0
1514,47.0,256.0,1020.0,2.0,0.0
1515,54.0,256.0,270.0,0.0,0.0
1516,63.0,256.0,270.0,0.0,0.0
1517,54.0,0.0,270.0,0.0,0.0
1518,44.0,256.0,510.0,2.0,0.0
1519,53.0,256.0,270.0,0.0,0.0
1520,63.0,0.0,270.0,0.0,0.0
1521,41.0,0.0,510.0,2.0,0.0
1522,53.0,256.0,270.0,0.0,0.0
1523,63.0,256.0,270.0,0.0,0.0
1524,61.0,256.0,270.0,0.0,0.0
1525,46.0,256.0,1020.0,2.0,0.0
1526,53.0,256.0,270.0,0.0,0.0
1527,61.0,256.0,270.0,0.0,0.0
1528,53.0,0.0,270.0,0.0,0.0
1529,51.0,256.0,270.0,0.0,0.0
1530,42.0,0.0,510.0,2.0,0.0
1531,54.0,256.0,270.0,0.0,0.0
1532,39.0,0.0,510.0,2.0,0.0
1533,56.0,256.0,270.0,0.0,0.0
1534,58.0,256.0,270.0,0.0,0.0
1535,59.0,256.0,270.0,0.0,0.0
1536,44.0,0.0,1020.0,2.0,0.0
1537,51.0,256.0,270.0,0.0,0.0
1538,59.0,256.0,270.0,0.0,0.0
1539,51.0,256.0,270.0,0.0,0.0
1540,41.0,0.0,510.0,2.0,0.0
1541,49.0,256.0,270.0,0.0,0.0
1542,59.0,256.0,270.0,0.0,0.0
1543,49.0,256.0,270.0,0.0,0.0
1544,37.0,0.0,510.0,2.0,0.0
1545,59.0,256.0,270.0,0.0,0.0
1546,58.0,256.0,270.0,0.0,0.0
1547,42.0,0.0,1020.0,2.0,0.0
1548,49.0,256.0,270.0,0.0,0.0
1549,58.0,256.0,270.0,0.0,0.0
1550,49.0,256.0,270.0,0.0,0.0
1551,39.0,0.0,1020.0,2.0,0.0
1552,47.0,256.0,270.0,0.0,0.0
1553,58.0,256.0,270.0,0.0,0.0
1554,47.0,256.0,270.0,0.0,0.0
1555,58.0,256.0,270.0,0.0,0.0
1556,47.0,256.0,270.0,0.0,0.0
1557,41.0,256.0,1020.0,2.0,0.0
1558,56.0,256.0,270.0,0.0,0.0
1559,47.0,256.0,270.0,0.0,0.0
1560,56.0,0.0,270.0,0.0,0.0
1561,47.0,256.0,270.0,0.0,0.0
1562,44.0,0.0,1020.0,2.0,0.0
1563,54.0,256.0,270.0,0.0,0.0
1564,47.0,256.0,270.0,0.0,0.0
1565,54.0,256.0,270.0,0.0,0.0
1566,37.0,0.0,2040.0,2.0,0.0
1567,47.0,256.0,270.0,0.0,0.0
1568,53.0,256.0,270.0,0.0,0.0
1569,46.0,256.0,270.0,0.0,0.0
1570,53.0,256.0,270.0,0.0,0.0
1571,47.0,256.0,270.0,0.0,0.0
1572,53.0,256.0,270.0,0.0,0.0
1573,51.0,256.0,270.0,0.0,0.0
1574,53.0,256.0,270.0,0.0,0.0
1575,49.0,256.0,270.0,0.0,0.0
1576,53.0,256.0,270.0,0.0,0.0
1577,47.0,256.0,270.0,0.0,0.0
1578,53.0,256.0,270.0,0.0,0.0
1579,49.0,256.0,1020.0,2.0,0.0
1580,46.0,256.0,270.0,0.0,0.0
1581,53.0,256.0,270.0,0.0,0.0
1582,47.0,256.0,270.0,0.0,0.0
1583,53.0,0.0,270.0,0.0,0.0
1584,46.0,256.0,270.0,0.0,0.0
1585,54.0,256.0,1020.0,2.0,0.0
1586,49.0,256.0,270.0,0.0,0.0
1587,51.0,256.0,270.0,0.0,0.0
1588,53.0,0.0,270.0,0.0,0.0
1589,54.0,256.0,270.0,0.0,0.0
1590,51.0,256.0,510.0,2.0,0.0
1591,56.0,0.0,270.0,0.0,0.0
1592,58.0,256.0,270.0,0.0,0.0
1593,47.0,0.0,510.0,2.0,0.0
1594,59.0,512.0,270.0,0.0,0.0
1595,46.0,512.0,1020.0,2.0,0.0
1596,61.0,256.0,510.0,0.0,0.0
1597,58.0,256.0,270.0,0.0,0.0
1598,54.0,0.0,270.0,0.0,0.0
1599,49.0,4096.0,1020.0,2.0,0.0
1600,49.0,512.0,510.0,0.0,0.0
1601,53.0,0.0,510.0,0.0,0.0
1602,42.0,0.0,4110.0,0.0,0.0
1603,42.0,0.0,4110.0,2.0,0.0
