,note,step,duration,channel,velocity
0,52.0,0.0,60.0,6.0,64.0
1,76.0,6.0,30.0,4.0,64.0
2,68.0,3.0,60.0,2.0,64.0
3,76.0,2.0,60.0,0.0,64.0
4,71.0,184.0,60.0,1.0,64.0
5,52.0,9.0,60.0,3.0,64.0
6,76.0,2.0,30.0,5.0,64.0
7,76.0,3.0,150.0,0.0,64.0
8,52.0,112.0,540.0,6.0,64.0
9,76.0,16.0,120.0,4.0,64.0
10,68.0,5.0,120.0,2.0,64.0
11,71.0,80.0,360.0,1.0,64.0
12,76.0,96.0,150.0,5.0,64.0
13,52.0,25.0,480.0,3.0,64.0
14,66.0,8.0,120.0,2.0,64.0
15,75.0,4.0,120.0,4.0,64.0
16,75.0,8.0,150.0,0.0,64.0
17,75.0,88.0,150.0,5.0,64.0
18,76.0,7.0,120.0,4.0,64.0
19,68.0,5.0,120.0,2.0,64.0
20,76.0,4.0,120.0,5.0,64.0
21,76.0,13.0,120.0,0.0,64.0
22,69.0,3.0,120.0,2.0,64.0
23,78.0,6.0,120.0,4.0,64.0
24,78.0,27.0,120.0,5.0,64.0
25,78.0,10.0,120.0,0.0,64.0
26,71.0,8.0,180.0,2.0,64.0
27,80.0,11.0,180.0,4.0,64.0
28,80.0,17.0,180.0,0.0,64.0
29,80.0,91.0,210.0,5.0,64.0
30,76.0,39.0,300.0,1.0,64.0
31,64.0,11.0,90.0,3.0,64.0
32,64.0,60.0,90.0,6.0,64.0
33,73.0,5.0,60.0,2.0,64.0
34,81.0,8.0,60.0,0.0,64.0
35,81.0,7.0,60.0,4.0,64.0
36,81.0,106.0,60.0,5.0,64.0
37,59.0,5.0,90.0,3.0,64.0
38,76.0,11.0,60.0,1.0,64.0
39,71.0,8.0,60.0,2.0,64.0
40,80.0,3.0,60.0,0.0,64.0
41,59.0,8.0,90.0,6.0,64.0
42,80.0,7.0,60.0,4.0,64.0
43,80.0,5.0,60.0,5.0,64.0
44,75.0,7.0,60.0,1.0,64.0
45,69.0,2.0,60.0,2.0,64.0
46,78.0,6.0,60.0,0.0,64.0
47,78.0,9.0,60.0,4.0,64.0
48,78.0,41.0,60.0,5.0,64.0
49,76.0,6.0,90.0,1.0,64.0
50,71.0,8.0,60.0,2.0,64.0
51,80.0,2.0,60.0,0.0,64.0
52,80.0,3.0,60.0,4.0,64.0
53,80.0,42.0,60.0,5.0,64.0
54,75.0,12.0,90.0,1.0,64.0
55,69.0,6.0,90.0,2.0,64.0
56,78.0,0.0,60.0,0.0,64.0
57,78.0,7.0,60.0,4.0,64.0
58,78.0,61.0,60.0,5.0,64.0
59,61.0,2.0,90.0,3.0,64.0
60,61.0,100.0,60.0,6.0,64.0
61,76.0,5.0,60.0,1.0,64.0
62,68.0,9.0,60.0,2.0,64.0
63,76.0,10.0,60.0,0.0,64.0
64,76.0,7.0,60.0,5.0,64.0
65,76.0,157.0,60.0,4.0,64.0
66,68.0,74.0,150.0,2.0,64.0
67,56.0,2.0,120.0,3.0,64.0
68,76.0,7.0,120.0,1.0,64.0
69,56.0,19.0,120.0,6.0,64.0
70,83.0,9.0,630.0,5.0,64.0
71,83.0,11.0,660.0,0.0,64.0
72,83.0,29.0,600.0,4.0,64.0
73,57.0,9.0,120.0,3.0,64.0
74,66.0,75.0,150.0,2.0,64.0
75,57.0,18.0,120.0,6.0,64.0
76,75.0,9.0,120.0,1.0,64.0
77,56.0,10.0,120.0,6.0,64.0
78,56.0,10.0,90.0,3.0,64.0
79,76.0,15.0,120.0,1.0,64.0
80,68.0,78.0,120.0,2.0,64.0
81,69.0,115.0,150.0,2.0,64.0
82,54.0,34.0,120.0,3.0,64.0
83,78.0,4.0,90.0,1.0,64.0
84,54.0,2.0,90.0,6.0,64.0
85,80.0,135.0,210.0,1.0,64.0
86,71.0,4.0,120.0,2.0,64.0
87,52.0,16.0,120.0,3.0,64.0
88,52.0,4.0,120.0,6.0,64.0
89,71.0,0.0,120.0,2.0,64.0
90,78.0,2.0,90.0,1.0,64.0
91,62.0,73.0,90.0,6.0,64.0
92,62.0,2.0,90.0,3.0,64.0
93,81.0,7.0,90.0,5.0,64.0
94,81.0,1.0,90.0,4.0,64.0
95,81.0,3.0,90.0,0.0,64.0
96,76.0,16.0,90.0,1.0,64.0
97,80.0,3.0,90.0,5.0,64.0
98,80.0,122.0,90.0,0.0,64.0
99,80.0,6.0,90.0,4.0,64.0
100,73.0,13.0,90.0,2.0,64.0
101,78.0,4.0,240.0,1.0,64.0
102,61.0,126.0,90.0,3.0,64.0
103,81.0,11.0,240.0,5.0,64.0
104,61.0,9.0,90.0,6.0,64.0
105,81.0,11.0,240.0,0.0,64.0
106,81.0,54.0,240.0,4.0,64.0
107,74.0,22.0,90.0,2.0,64.0
108,59.0,16.0,90.0,6.0,64.0
109,59.0,65.0,90.0,3.0,64.0
110,80.0,153.0,60.0,1.0,64.0
111,83.0,3.0,60.0,5.0,64.0
112,83.0,2.0,60.0,4.0,64.0
113,83.0,6.0,60.0,0.0,64.0
114,76.0,81.0,120.0,2.0,64.0
115,57.0,8.0,120.0,3.0,64.0
116,57.0,9.0,90.0,6.0,64.0
117,85.0,48.0,300.0,5.0,64.0
118,81.0,62.0,180.0,1.0,64.0
119,85.0,24.0,240.0,0.0,64.0
120,85.0,9.0,270.0,4.0,64.0
121,56.0,7.0,120.0,6.0,64.0
122,64.0,0.0,120.0,2.0,64.0
123,73.0,5.0,120.0,1.0,64.0
124,56.0,56.0,120.0,3.0,64.0
125,83.0,6.0,60.0,0.0,64.0
126,83.0,2.0,60.0,5.0,64.0
127,83.0,148.0,60.0,4.0,64.0
128,54.0,7.0,90.0,6.0,64.0
129,75.0,9.0,90.0,1.0,64.0
130,54.0,99.0,120.0,3.0,64.0
131,81.0,10.0,210.0,0.0,64.0
132,66.0,6.0,90.0,2.0,64.0
133,81.0,17.0,210.0,5.0,64.0
134,81.0,84.0,210.0,4.0,64.0
135,51.0,5.0,90.0,6.0,64.0
136,78.0,7.0,90.0,1.0,64.0
137,51.0,83.0,120.0,3.0,64.0
138,59.0,3.0,90.0,2.0,64.0
139,80.0,2.0,90.0,0.0,64.0
140,80.0,4.0,90.0,5.0,64.0
141,80.0,8.0,90.0,4.0,64.0
142,78.0,3.0,90.0,0.0,64.0
143,78.0,9.0,90.0,5.0,64.0
144,78.0,111.0,90.0,4.0,64.0
145,52.0,7.0,90.0,6.0,64.0
146,71.0,17.0,90.0,1.0,64.0
147,80.0,17.0,240.0,0.0,64.0
148,64.0,5.0,90.0,2.0,64.0
149,52.0,133.0,90.0,3.0,64.0
150,80.0,52.0,240.0,5.0,64.0
151,80.0,11.0,240.0,4.0,64.0
152,45.0,5.0,120.0,6.0,64.0
153,73.0,17.0,90.0,1.0,64.0
154,45.0,8.0,90.0,3.0,64.0
155,64.0,61.0,90.0,2.0,64.0
156,81.0,10.0,60.0,0.0,64.0
157,81.0,3.0,60.0,5.0,64.0
158,81.0,194.0,60.0,4.0,64.0
159,47.0,2.0,150.0,6.0,64.0
160,47.0,14.0,120.0,3.0,64.0
161,66.0,14.0,570.0,1.0,64.0
162,71.0,13.0,600.0,2.0,64.0
163,76.0,0.0,150.0,4.0,64.0
164,76.0,95.0,150.0,5.0,64.0
165,76.0,11.0,120.0,0.0,64.0
166,75.0,81.0,120.0,5.0,64.0
167,75.0,5.0,120.0,4.0,64.0
168,75.0,0.0,120.0,0.0,64.0
169,59.0,13.0,120.0,6.0,64.0
170,59.0,14.0,120.0,3.0,64.0
171,73.0,6.0,120.0,5.0,64.0
172,73.0,13.0,120.0,4.0,64.0
173,73.0,92.0,120.0,0.0,64.0
174,71.0,82.0,120.0,4.0,64.0
175,71.0,2.0,120.0,5.0,64.0
176,71.0,6.0,120.0,0.0,64.0
177,57.0,17.0,120.0,3.0,64.0
178,57.0,12.0,120.0,6.0,64.0
179,73.0,0.0,120.0,4.0,64.0
180,73.0,100.0,150.0,5.0,64.0
181,73.0,9.0,120.0,0.0,64.0
182,75.0,75.0,150.0,4.0,64.0
183,75.0,2.0,120.0,0.0,64.0
184,75.0,15.0,120.0,5.0,64.0
185,56.0,18.0,120.0,3.0,64.0
186,56.0,20.0,150.0,6.0,64.0
187,76.0,3.0,150.0,5.0,64.0
188,76.0,2.0,150.0,0.0,64.0
189,64.0,2.0,90.0,2.0,64.0
190,76.0,22.0,150.0,4.0,64.0
191,71.0,4.0,120.0,1.0,64.0
192,78.0,139.0,60.0,0.0,64.0
193,78.0,2.0,60.0,5.0,64.0
194,78.0,1.0,60.0,4.0,64.0
195,57.0,0.0,120.0,3.0,64.0
196,80.0,17.0,90.0,5.0,64.0
197,64.0,2.0,120.0,2.0,64.0
198,57.0,9.0,120.0,6.0,64.0
199,80.0,11.0,90.0,0.0,64.0
200,80.0,5.0,90.0,4.0,64.0
201,73.0,6.0,120.0,1.0,64.0
202,78.0,5.0,30.0,5.0,64.0
203,78.0,37.0,60.0,0.0,64.0
204,78.0,16.0,30.0,4.0,64.0
205,80.0,5.0,60.0,5.0,64.0
206,80.0,13.0,60.0,4.0,64.0
207,80.0,15.0,60.0,0.0,64.0
208,78.0,3.0,30.0,5.0,64.0
209,78.0,11.0,30.0,4.0,64.0
210,78.0,37.0,30.0,0.0,64.0
211,59.0,4.0,90.0,3.0,64.0
212,80.0,30.0,60.0,5.0,64.0
213,80.0,3.0,30.0,4.0,64.0
214,59.0,0.0,120.0,6.0,64.0
215,63.0,2.0,90.0,2.0,64.0
216,71.0,5.0,90.0,1.0,64.0
217,80.0,27.0,60.0,0.0,64.0
218,78.0,7.0,90.0,5.0,64.0
219,78.0,58.0,90.0,4.0,64.0
220,78.0,20.0,60.0,0.0,64.0
221,76.0,14.0,90.0,5.0,64.0
222,76.0,1.0,90.0,0.0,64.0
223,76.0,18.0,90.0,4.0,64.0
224,78.0,11.0,60.0,0.0,64.0
225,78.0,13.0,60.0,5.0,64.0
226,78.0,80.0,60.0,4.0,64.0
227,52.0,17.0,90.0,6.0,64.0
228,80.0,44.0,300.0,0.0,64.0
229,71.0,18.0,150.0,1.0,64.0
230,52.0,27.0,120.0,3.0,64.0
231,80.0,6.0,270.0,4.0,64.0
232,64.0,108.0,150.0,2.0,64.0
233,80.0,14.0,240.0,5.0,64.0
234,56.0,8.0,90.0,6.0,64.0
235,72.0,65.0,120.0,1.0,64.0
236,63.0,4.0,90.0,2.0,64.0
237,56.0,12.0,90.0,3.0,64.0
238,78.0,12.0,60.0,5.0,64.0
239,78.0,0.0,60.0,4.0,64.0
240,78.0,143.0,60.0,0.0,64.0
241,49.0,17.0,90.0,6.0,64.0
242,73.0,3.0,120.0,1.0,64.0
243,76.0,4.0,210.0,5.0,64.0
244,76.0,16.0,210.0,4.0,64.0
245,49.0,97.0,120.0,3.0,64.0
246,61.0,20.0,90.0,2.0,64.0
247,76.0,86.0,210.0,0.0,64.0
248,61.0,5.0,120.0,2.0,64.0
249,70.0,4.0,90.0,1.0,64.0
250,54.0,56.0,120.0,6.0,64.0
251,75.0,5.0,90.0,5.0,64.0
252,75.0,5.0,60.0,4.0,64.0
253,75.0,17.0,90.0,0.0,64.0
254,54.0,8.0,90.0,3.0,64.0
255,56.0,9.0,90.0,6.0,64.0
256,73.0,2.0,60.0,0.0,64.0
257,73.0,4.0,90.0,5.0,64.0
258,73.0,14.0,90.0,4.0,64.0
259,56.0,137.0,90.0,3.0,64.0
260,54.0,105.0,120.0,6.0,64.0
261,71.0,1.0,270.0,1.0,64.0
262,66.0,4.0,300.0,2.0,64.0
263,75.0,14.0,270.0,5.0,64.0
264,75.0,17.0,240.0,0.0,64.0
265,54.0,6.0,90.0,3.0,64.0
266,75.0,18.0,270.0,4.0,64.0
267,52.0,17.0,120.0,6.0,64.0
268,52.0,24.0,120.0,3.0,64.0
269,51.0,15.0,90.0,6.0,64.0
270,51.0,77.0,90.0,3.0,64.0
271,49.0,2.0,90.0,6.0,64.0
272,64.0,3.0,90.0,2.0,64.0
273,76.0,2.0,60.0,0.0,64.0
274,49.0,137.0,90.0,3.0,64.0
275,76.0,24.0,60.0,4.0,64.0
276,76.0,1.0,30.0,5.0,64.0
277,73.0,9.0,60.0,1.0,64.0
278,51.0,5.0,150.0,6.0,64.0
279,51.0,4.0,120.0,3.0,64.0
280,66.0,166.0,150.0,1.0,64.0
281,71.0,35.0,90.0,2.0,64.0
282,78.0,4.0,300.0,0.0,64.0
283,78.0,24.0,300.0,5.0,64.0
284,78.0,7.0,300.0,4.0,64.0
285,52.0,79.0,120.0,6.0,64.0
286,71.0,7.0,90.0,1.0,64.0
287,52.0,9.0,120.0,3.0,64.0
288,64.0,121.0,390.0,2.0,64.0
289,80.0,111.0,90.0,5.0,64.0
290,80.0,3.0,90.0,4.0,64.0
291,80.0,2.0,90.0,0.0,64.0
292,82.0,2.0,90.0,0.0,64.0
293,49.0,28.0,150.0,6.0,64.0
294,49.0,19.0,120.0,3.0,64.0
295,82.0,13.0,60.0,5.0,64.0
296,73.0,14.0,120.0,1.0,64.0
297,82.0,25.0,90.0,4.0,64.0
298,47.0,228.0,120.0,6.0,64.0
299,75.0,20.0,90.0,1.0,64.0
300,47.0,5.0,120.0,3.0,64.0
301,83.0,17.0,60.0,0.0,64.0
302,83.0,2.0,60.0,4.0,64.0
303,66.0,11.0,60.0,2.0,64.0
304,83.0,2.0,60.0,5.0,64.0
305,46.0,21.0,120.0,6.0,64.0
306,46.0,34.0,120.0,3.0,64.0
307,73.0,24.0,270.0,4.0,64.0
308,73.0,26.0,300.0,0.0,64.0
309,73.0,7.0,300.0,5.0,64.0
310,73.0,87.0,180.0,1.0,64.0
311,66.0,26.0,150.0,2.0,64.0
312,47.0,25.0,120.0,6.0,64.0
313,66.0,7.0,120.0,2.0,64.0
314,71.0,44.0,120.0,1.0,64.0
315,47.0,6.0,120.0,3.0,64.0
316,75.0,11.0,90.0,5.0,64.0
317,75.0,156.0,90.0,0.0,64.0
318,75.0,1.0,60.0,4.0,64.0
319,44.0,0.0,150.0,6.0,64.0
320,71.0,109.0,120.0,1.0,64.0
321,76.0,20.0,240.0,5.0,64.0
322,76.0,11.0,240.0,0.0,64.0
323,68.0,10.0,120.0,2.0,64.0
324,44.0,8.0,120.0,3.0,64.0
325,76.0,57.0,240.0,4.0,64.0
326,73.0,8.0,120.0,1.0,64.0
327,46.0,15.0,90.0,3.0,64.0
328,46.0,54.0,90.0,6.0,64.0
329,66.0,1.0,90.0,2.0,64.0
330,78.0,27.0,60.0,5.0,64.0
331,78.0,3.0,90.0,0.0,64.0
332,78.0,171.0,60.0,4.0,64.0
333,71.0,13.0,120.0,1.0,64.0
334,76.0,8.0,150.0,5.0,64.0
335,47.0,16.0,120.0,6.0,64.0
336,76.0,5.0,150.0,0.0,64.0
337,76.0,29.0,150.0,4.0,64.0
338,47.0,4.0,150.0,3.0,64.0
339,66.0,45.0,180.0,2.0,64.0
340,75.0,9.0,120.0,5.0,64.0
341,75.0,4.0,120.0,0.0,64.0
342,75.0,51.0,120.0,4.0,64.0
343,68.0,14.0,120.0,1.0,64.0
344,73.0,13.0,120.0,5.0,64.0
345,73.0,6.0,120.0,0.0,64.0
346,64.0,29.0,60.0,2.0,64.0
347,52.0,4.0,120.0,3.0,64.0
348,52.0,2.0,90.0,6.0,64.0
349,73.0,39.0,120.0,4.0,64.0
350,63.0,6.0,90.0,2.0,64.0
351,71.0,3.0,60.0,0.0,64.0
352,71.0,8.0,60.0,5.0,64.0
353,71.0,150.0,60.0,4.0,64.0
354,54.0,13.0,120.0,6.0,64.0
355,71.0,2.0,120.0,5.0,64.0
356,54.0,7.0,90.0,3.0,64.0
357,71.0,27.0,120.0,0.0,64.0
358,66.0,46.0,360.0,1.0,64.0
359,71.0,2.0,90.0,4.0,64.0
360,61.0,0.0,390.0,2.0,64.0
361,70.0,6.0,60.0,4.0,64.0
362,70.0,15.0,60.0,5.0,64.0
363,70.0,52.0,60.0,0.0,64.0
364,71.0,14.0,60.0,4.0,64.0
365,71.0,13.0,90.0,5.0,64.0
366,71.0,75.0,90.0,0.0,64.0
367,70.0,2.0,150.0,4.0,64.0
368,70.0,5.0,150.0,5.0,64.0
369,70.0,1.0,120.0,0.0,64.0
370,42.0,5.0,90.0,3.0,64.0
371,42.0,23.0,90.0,6.0,64.0
372,71.0,4.0,60.0,5.0,64.0
373,71.0,5.0,60.0,4.0,64.0
374,71.0,1051.0,60.0,0.0,64.0
375,47.0,0.0,990.0,6.0,64.0
376,66.0,332.0,1020.0,1.0,64.0
377,71.0,21.0,990.0,4.0,64.0
378,71.0,11.0,990.0,5.0,64.0
379,71.0,4.0,1020.0,0.0,64.0
380,63.0,9.0,990.0,2.0,64.0
381,47.0,2.0,1020.0,3.0,64.0
382,76.0,6.0,60.0,0.0,64.0
383,76.0,11.0,60.0,5.0,64.0
384,76.0,5.0,60.0,4.0,64.0
385,71.0,4.0,60.0,1.0,64.0
386,52.0,5.0,60.0,6.0,64.0
387,52.0,193.0,60.0,3.0,64.0
388,68.0,0.0,60.0,2.0,64.0
389,76.0,2.0,150.0,4.0,64.0
390,71.0,37.0,330.0,1.0,64.0
391,76.0,10.0,150.0,5.0,64.0
392,76.0,0.0,150.0,0.0,64.0
393,52.0,62.0,570.0,6.0,64.0
394,68.0,96.0,150.0,2.0,64.0
395,52.0,64.0,510.0,3.0,64.0
396,75.0,7.0,150.0,4.0,64.0
397,75.0,57.0,150.0,5.0,64.0
398,75.0,2.0,120.0,0.0,64.0
399,66.0,2.0,150.0,2.0,64.0
400,68.0,2.0,150.0,2.0,64.0
401,76.0,3.0,120.0,4.0,64.0
402,76.0,93.0,120.0,5.0,64.0
403,76.0,12.0,120.0,0.0,64.0
404,69.0,2.0,120.0,2.0,64.0
405,78.0,10.0,120.0,4.0,64.0
406,78.0,0.0,120.0,5.0,64.0
407,78.0,50.0,120.0,0.0,64.0
408,80.0,15.0,180.0,4.0,64.0
409,76.0,99.0,240.0,1.0,64.0
410,71.0,1.0,210.0,2.0,64.0
411,80.0,45.0,210.0,5.0,64.0
412,80.0,1.0,180.0,0.0,64.0
413,64.0,36.0,120.0,3.0,64.0
414,64.0,22.0,90.0,6.0,64.0
415,73.0,6.0,60.0,2.0,64.0
416,81.0,20.0,60.0,4.0,64.0
417,81.0,90.0,90.0,0.0,64.0
418,81.0,8.0,60.0,5.0,64.0
419,71.0,7.0,60.0,2.0,64.0
420,76.0,11.0,60.0,1.0,64.0
421,59.0,0.0,90.0,6.0,64.0
422,80.0,15.0,60.0,4.0,64.0
423,59.0,16.0,120.0,3.0,64.0
424,80.0,12.0,60.0,5.0,64.0
425,80.0,3.0,60.0,0.0,64.0
426,69.0,7.0,60.0,2.0,64.0
427,75.0,13.0,60.0,1.0,64.0
428,78.0,2.0,60.0,4.0,64.0
429,78.0,5.0,60.0,5.0,64.0
430,78.0,19.0,60.0,0.0,64.0
431,71.0,8.0,90.0,2.0,64.0
432,76.0,0.0,90.0,1.0,64.0
433,80.0,10.0,60.0,4.0,64.0
434,80.0,32.0,60.0,5.0,64.0
435,80.0,17.0,60.0,0.0,64.0
436,78.0,9.0,90.0,4.0,64.0
437,69.0,7.0,90.0,2.0,64.0
438,75.0,17.0,120.0,1.0,64.0
439,78.0,19.0,90.0,5.0,64.0
440,78.0,36.0,90.0,0.0,64.0
441,61.0,11.0,60.0,6.0,64.0
442,61.0,94.0,90.0,3.0,64.0
443,76.0,2.0,60.0,1.0,64.0
444,68.0,11.0,60.0,2.0,64.0
445,76.0,12.0,60.0,5.0,64.0
446,76.0,2.0,60.0,4.0,64.0
447,76.0,161.0,60.0,0.0,64.0
448,83.0,11.0,600.0,4.0,64.0
449,76.0,9.0,120.0,1.0,64.0
450,56.0,20.0,120.0,6.0,64.0
451,68.0,59.0,150.0,2.0,64.0
452,56.0,0.0,120.0,3.0,64.0
453,83.0,11.0,660.0,5.0,64.0
454,83.0,21.0,630.0,0.0,64.0
455,57.0,31.0,90.0,6.0,64.0
456,75.0,20.0,120.0,1.0,64.0
457,57.0,0.0,90.0,3.0,64.0
458,66.0,69.0,120.0,2.0,64.0
459,56.0,4.0,90.0,6.0,64.0
460,56.0,20.0,90.0,3.0,64.0
461,76.0,18.0,120.0,1.0,64.0
462,68.0,62.0,120.0,2.0,64.0
463,69.0,116.0,150.0,2.0,64.0
464,54.0,5.0,90.0,6.0,64.0
465,78.0,39.0,90.0,1.0,64.0
466,54.0,2.0,90.0,3.0,64.0
467,80.0,100.0,210.0,1.0,64.0
468,52.0,2.0,120.0,6.0,64.0
469,52.0,15.0,120.0,3.0,64.0
470,71.0,32.0,150.0,2.0,64.0
471,78.0,31.0,60.0,1.0,64.0
472,62.0,13.0,120.0,6.0,64.0
473,71.0,4.0,120.0,2.0,64.0
474,81.0,4.0,90.0,0.0,64.0
475,81.0,1.0,90.0,5.0,64.0
476,62.0,7.0,90.0,3.0,64.0
477,81.0,46.0,120.0,4.0,64.0
478,76.0,36.0,60.0,1.0,64.0
479,80.0,6.0,120.0,0.0,64.0
480,80.0,3.0,120.0,5.0,64.0
481,80.0,108.0,90.0,4.0,64.0
482,73.0,16.0,120.0,2.0,64.0
483,61.0,11.0,90.0,6.0,64.0
484,78.0,9.0,240.0,1.0,64.0
485,81.0,2.0,240.0,5.0,64.0
486,81.0,40.0,270.0,0.0,64.0
487,81.0,25.0,240.0,4.0,64.0
488,61.0,130.0,90.0,3.0,64.0
489,74.0,7.0,90.0,2.0,64.0
490,59.0,10.0,90.0,6.0,64.0
491,59.0,80.0,90.0,3.0,64.0
492,80.0,11.0,60.0,1.0,64.0
493,83.0,14.0,60.0,4.0,64.0
494,83.0,7.0,60.0,5.0,64.0
495,83.0,127.0,90.0,0.0,64.0
496,57.0,20.0,120.0,6.0,64.0
497,76.0,4.0,120.0,2.0,64.0
498,81.0,146.0,150.0,1.0,64.0
499,57.0,21.0,120.0,3.0,64.0
500,85.0,4.0,270.0,4.0,64.0
501,85.0,19.0,270.0,5.0,64.0
502,85.0,43.0,270.0,0.0,64.0
503,56.0,38.0,150.0,6.0,64.0
504,73.0,9.0,120.0,1.0,64.0
505,64.0,0.0,90.0,2.0,64.0
506,56.0,15.0,120.0,3.0,64.0
507,83.0,19.0,60.0,5.0,64.0
508,83.0,4.0,60.0,4.0,64.0
509,83.0,130.0,60.0,0.0,64.0
510,54.0,5.0,90.0,6.0,64.0
511,54.0,1.0,90.0,3.0,64.0
512,75.0,113.0,120.0,1.0,64.0
513,66.0,7.0,90.0,2.0,64.0
514,81.0,110.0,210.0,5.0,64.0
515,81.0,2.0,210.0,4.0,64.0
516,81.0,9.0,210.0,0.0,64.0
517,59.0,0.0,120.0,2.0,64.0
518,51.0,8.0,120.0,6.0,64.0
519,78.0,0.0,90.0,1.0,64.0
520,51.0,5.0,90.0,3.0,64.0
521,80.0,6.0,90.0,4.0,64.0
522,80.0,79.0,90.0,5.0,64.0
523,80.0,1.0,90.0,0.0,64.0
524,78.0,14.0,90.0,4.0,64.0
525,78.0,3.0,60.0,0.0,64.0
526,78.0,110.0,90.0,5.0,64.0
527,71.0,9.0,90.0,1.0,64.0
528,52.0,7.0,90.0,6.0,64.0
529,52.0,4.0,90.0,3.0,64.0
530,64.0,160.0,90.0,2.0,64.0
531,80.0,7.0,240.0,4.0,64.0
532,80.0,51.0,270.0,0.0,64.0
533,80.0,4.0,240.0,5.0,64.0
534,45.0,9.0,90.0,6.0,64.0
535,45.0,87.0,90.0,3.0,64.0
536,73.0,6.0,90.0,1.0,64.0
537,64.0,0.0,90.0,2.0,64.0
538,81.0,4.0,60.0,0.0,64.0
539,81.0,18.0,60.0,5.0,64.0
540,81.0,167.0,60.0,4.0,64.0
541,47.0,23.0,150.0,3.0,64.0
542,66.0,7.0,630.0,1.0,64.0
543,47.0,5.0,150.0,6.0,64.0
544,71.0,4.0,630.0,2.0,64.0
545,76.0,11.0,120.0,5.0,64.0
546,76.0,2.0,150.0,0.0,64.0
547,76.0,81.0,150.0,4.0,64.0
548,75.0,5.0,120.0,5.0,64.0
549,75.0,78.0,150.0,0.0,64.0
550,75.0,14.0,120.0,4.0,64.0
551,59.0,6.0,120.0,3.0,64.0
552,59.0,21.0,120.0,6.0,64.0
553,73.0,10.0,150.0,5.0,64.0
554,73.0,7.0,120.0,4.0,64.0
555,73.0,79.0,150.0,0.0,64.0
556,71.0,12.0,120.0,4.0,64.0
557,71.0,95.0,120.0,5.0,64.0
558,71.0,10.0,120.0,0.0,64.0
559,57.0,7.0,150.0,6.0,64.0
560,57.0,24.0,120.0,3.0,64.0
561,73.0,1.0,150.0,0.0,64.0
562,73.0,1.0,150.0,4.0,64.0
563,73.0,98.0,150.0,5.0,64.0
564,75.0,74.0,150.0,0.0,64.0
565,75.0,14.0,120.0,4.0,64.0
566,75.0,0.0,120.0,5.0,64.0
567,56.0,15.0,120.0,3.0,64.0
568,56.0,19.0,120.0,6.0,64.0
569,71.0,17.0,150.0,1.0,64.0
570,76.0,0.0,150.0,4.0,64.0
571,76.0,1.0,150.0,5.0,64.0
572,76.0,32.0,150.0,0.0,64.0
573,64.0,0.0,90.0,2.0,64.0
574,78.0,2.0,60.0,4.0,64.0
575,78.0,1.0,60.0,5.0,64.0
576,78.0,137.0,60.0,0.0,64.0
577,73.0,18.0,120.0,1.0,64.0
578,80.0,9.0,90.0,4.0,64.0
579,64.0,4.0,120.0,2.0,64.0
580,57.0,4.0,90.0,3.0,64.0
581,57.0,3.0,120.0,6.0,64.0
582,80.0,11.0,90.0,5.0,64.0
583,80.0,0.0,90.0,0.0,64.0
584,78.0,15.0,60.0,4.0,64.0
585,78.0,7.0,60.0,5.0,64.0
586,78.0,36.0,60.0,0.0,64.0
587,80.0,9.0,60.0,4.0,64.0
588,80.0,8.0,60.0,5.0,64.0
589,80.0,20.0,60.0,0.0,64.0
590,78.0,11.0,30.0,4.0,64.0
591,78.0,9.0,30.0,5.0,64.0
592,78.0,42.0,30.0,0.0,64.0
593,59.0,6.0,90.0,3.0,64.0
594,59.0,1.0,90.0,6.0,64.0
595,71.0,2.0,120.0,1.0,64.0
596,80.0,18.0,60.0,4.0,64.0
597,63.0,2.0,120.0,2.0,64.0
598,80.0,2.0,60.0,5.0,64.0
599,80.0,24.0,60.0,0.0,64.0
600,78.0,16.0,60.0,4.0,64.0
601,78.0,47.0,90.0,5.0,64.0
602,78.0,17.0,60.0,0.0,64.0
603,76.0,7.0,90.0,4.0,64.0
604,76.0,10.0,120.0,5.0,64.0
605,76.0,17.0,90.0,0.0,64.0
606,78.0,13.0,90.0,4.0,64.0
607,78.0,10.0,60.0,0.0,64.0
608,78.0,96.0,60.0,5.0,64.0
609,71.0,106.0,180.0,1.0,64.0
610,52.0,43.0,120.0,3.0,64.0
611,80.0,48.0,300.0,0.0,64.0
612,52.0,8.0,90.0,6.0,64.0
613,64.0,4.0,150.0,2.0,64.0
614,80.0,2.0,240.0,4.0,64.0
615,80.0,16.0,240.0,5.0,64.0
616,72.0,67.0,120.0,1.0,64.0
617,63.0,2.0,90.0,2.0,64.0
618,56.0,12.0,90.0,6.0,64.0
619,56.0,6.0,90.0,3.0,64.0
620,78.0,3.0,60.0,5.0,64.0
621,78.0,6.0,60.0,0.0,64.0
622,78.0,159.0,60.0,4.0,64.0
623,61.0,4.0,120.0,2.0,64.0
624,73.0,7.0,120.0,1.0,64.0
625,49.0,14.0,120.0,6.0,64.0
626,49.0,104.0,120.0,3.0,64.0
627,76.0,4.0,210.0,5.0,64.0
628,76.0,83.0,240.0,0.0,64.0
629,76.0,10.0,210.0,4.0,64.0
630,61.0,21.0,90.0,2.0,64.0
631,75.0,5.0,90.0,5.0,64.0
632,54.0,13.0,120.0,6.0,64.0
633,70.0,3.0,90.0,1.0,64.0
634,54.0,42.0,120.0,3.0,64.0
635,75.0,8.0,90.0,4.0,64.0
636,75.0,1.0,90.0,0.0,64.0
637,56.0,9.0,60.0,3.0,64.0
638,56.0,15.0,90.0,6.0,64.0
639,73.0,2.0,60.0,0.0,64.0
640,73.0,0.0,60.0,5.0,64.0
641,73.0,124.0,90.0,4.0,64.0
642,54.0,7.0,90.0,3.0,64.0
643,54.0,115.0,90.0,6.0,64.0
644,66.0,9.0,300.0,2.0,64.0
645,71.0,9.0,270.0,1.0,64.0
646,75.0,8.0,270.0,0.0,64.0
647,75.0,4.0,270.0,4.0,64.0
648,75.0,9.0,270.0,5.0,64.0
649,52.0,18.0,90.0,3.0,64.0
650,52.0,36.0,120.0,6.0,64.0
651,51.0,79.0,90.0,3.0,64.0
652,51.0,22.0,90.0,6.0,64.0
653,49.0,7.0,90.0,3.0,64.0
654,49.0,5.0,90.0,6.0,64.0
655,64.0,139.0,90.0,2.0,64.0
656,73.0,6.0,60.0,1.0,64.0
657,76.0,8.0,30.0,0.0,64.0
658,76.0,11.0,60.0,4.0,64.0
659,76.0,8.0,60.0,5.0,64.0
660,51.0,153.0,150.0,6.0,64.0
661,66.0,15.0,150.0,1.0,64.0
662,51.0,16.0,120.0,3.0,64.0
663,78.0,9.0,300.0,4.0,64.0
664,78.0,6.0,300.0,0.0,64.0
665,71.0,16.0,90.0,2.0,64.0
666,78.0,29.0,300.0,5.0,64.0
667,71.0,74.0,150.0,1.0,64.0
668,52.0,2.0,120.0,6.0,64.0
669,52.0,18.0,120.0,3.0,64.0
670,64.0,174.0,360.0,2.0,64.0
671,80.0,6.0,90.0,0.0,64.0
672,80.0,11.0,90.0,4.0,64.0
673,80.0,115.0,90.0,5.0,64.0
674,73.0,7.0,150.0,1.0,64.0
675,49.0,8.0,150.0,6.0,64.0
676,49.0,0.0,120.0,3.0,64.0
677,82.0,13.0,90.0,0.0,64.0
678,82.0,7.0,90.0,4.0,64.0
679,82.0,13.0,90.0,5.0,64.0
680,47.0,18.0,120.0,3.0,64.0
681,47.0,244.0,120.0,6.0,64.0
682,75.0,0.0,90.0,1.0,64.0
683,83.0,2.0,60.0,0.0,64.0
684,83.0,6.0,60.0,4.0,64.0
685,66.0,13.0,60.0,2.0,64.0
686,83.0,4.0,60.0,5.0,64.0
687,73.0,135.0,180.0,1.0,64.0
688,46.0,5.0,120.0,3.0,64.0
689,46.0,11.0,120.0,6.0,64.0
690,66.0,31.0,120.0,2.0,64.0
691,73.0,4.0,300.0,4.0,64.0
692,73.0,20.0,300.0,5.0,64.0
693,73.0,6.0,300.0,0.0,64.0
694,47.0,9.0,120.0,6.0,64.0
695,71.0,0.0,120.0,1.0,64.0
696,47.0,12.0,120.0,3.0,64.0
697,66.0,77.0,120.0,2.0,64.0
698,75.0,3.0,90.0,4.0,64.0
699,75.0,2.0,60.0,5.0,64.0
700,75.0,125.0,60.0,0.0,64.0
701,44.0,25.0,120.0,3.0,64.0
702,44.0,20.0,90.0,6.0,64.0
703,71.0,105.0,150.0,1.0,64.0
704,68.0,14.0,90.0,2.0,64.0
705,76.0,5.0,240.0,4.0,64.0
706,76.0,3.0,240.0,5.0,64.0
707,76.0,50.0,240.0,0.0,64.0
708,46.0,26.0,90.0,6.0,64.0
709,73.0,53.0,120.0,1.0,64.0
710,46.0,15.0,90.0,3.0,64.0
711,66.0,3.0,90.0,2.0,64.0
712,78.0,6.0,60.0,0.0,64.0
713,78.0,3.0,60.0,4.0,64.0
714,78.0,171.0,60.0,5.0,64.0
715,71.0,9.0,120.0,1.0,64.0
716,47.0,17.0,120.0,6.0,64.0
717,47.0,20.0,120.0,3.0,64.0
718,76.0,7.0,150.0,0.0,64.0
719,76.0,8.0,150.0,4.0,64.0
720,66.0,57.0,180.0,2.0,64.0
721,76.0,21.0,150.0,5.0,64.0
722,75.0,55.0,150.0,0.0,64.0
723,75.0,11.0,120.0,4.0,64.0
724,75.0,5.0,120.0,5.0,64.0
725,68.0,13.0,90.0,1.0,64.0
726,73.0,2.0,120.0,4.0,64.0
727,73.0,7.0,120.0,5.0,64.0
728,64.0,5.0,90.0,2.0,64.0
729,73.0,42.0,120.0,0.0,64.0
730,52.0,17.0,90.0,6.0,64.0
731,52.0,7.0,120.0,3.0,64.0
732,71.0,4.0,60.0,5.0,64.0
733,71.0,8.0,60.0,4.0,64.0
734,71.0,1.0,60.0,0.0,64.0
735,63.0,147.0,60.0,2.0,64.0
736,54.0,1.0,90.0,6.0,64.0
737,71.0,18.0,120.0,0.0,64.0
738,71.0,9.0,90.0,4.0,64.0
739,66.0,9.0,360.0,1.0,64.0
740,71.0,15.0,90.0,5.0,64.0
741,63.0,3.0,90.0,2.0,64.0
742,54.0,1.0,120.0,3.0,64.0
743,70.0,3.0,60.0,4.0,64.0
744,70.0,7.0,30.0,5.0,64.0
745,61.0,18.0,60.0,2.0,64.0
746,70.0,26.0,60.0,0.0,64.0
747,63.0,36.0,60.0,2.0,64.0
748,71.0,43.0,150.0,4.0,64.0
749,71.0,2.0,90.0,5.0,64.0
750,71.0,37.0,90.0,0.0,64.0
751,70.0,2.0,60.0,4.0,64.0
752,61.0,12.0,30.0,2.0,64.0
753,70.0,5.0,150.0,5.0,64.0
754,70.0,18.0,150.0,0.0,64.0
755,63.0,1.0,60.0,2.0,64.0
756,42.0,11.0,90.0,6.0,64.0
757,42.0,15.0,90.0,3.0,64.0
758,61.0,1016.0,180.0,2.0,64.0
759,70.0,26.0,120.0,4.0,64.0
760,71.0,18.0,60.0,5.0,64.0
761,71.0,2.0,60.0,0.0,64.0
762,71.0,15.0,60.0,4.0,64.0
763,47.0,38.0,990.0,3.0,64.0
764,66.0,1.0,1020.0,1.0,64.0
765,71.0,3.0,990.0,5.0,64.0
766,63.0,48.0,990.0,2.0,64.0
767,71.0,0.0,990.0,4.0,64.0
768,71.0,1.0,990.0,0.0,64.0
769,47.0,292.0,1050.0,6.0,64.0
770,59.0,3.0,60.0,3.0,64.0
771,78.0,2.0,60.0,5.0,64.0
772,71.0,2.0,60.0,2.0,64.0
773,78.0,11.0,60.0,4.0,64.0
774,59.0,2.0,60.0,6.0,64.0
775,78.0,175.0,60.0,0.0,64.0
776,75.0,2.0,60.0,1.0,64.0
777,71.0,27.0,390.0,2.0,64.0
778,78.0,10.0,150.0,5.0,64.0
779,59.0,12.0,210.0,6.0,64.0
780,78.0,21.0,120.0,4.0,64.0
781,78.0,32.0,150.0,0.0,64.0
782,59.0,39.0,180.0,3.0,64.0
783,75.0,4.0,120.0,1.0,64.0
784,76.0,8.0,120.0,4.0,64.0
785,76.0,4.0,120.0,5.0,64.0
786,76.0,53.0,120.0,0.0,64.0
787,73.0,12.0,120.0,1.0,64.0
788,57.0,7.0,60.0,3.0,64.0
789,78.0,1.0,120.0,5.0,64.0
790,78.0,3.0,120.0,4.0,64.0
791,75.0,2.0,120.0,1.0,64.0
792,57.0,44.0,60.0,6.0,64.0
793,78.0,11.0,120.0,0.0,64.0
794,56.0,29.0,60.0,3.0,64.0
795,56.0,16.0,90.0,6.0,64.0
796,80.0,15.0,90.0,4.0,64.0
797,80.0,0.0,120.0,5.0,64.0
798,77.0,186.0,120.0,1.0,64.0
799,80.0,9.0,90.0,0.0,64.0
800,54.0,20.0,510.0,6.0,64.0
801,54.0,5.0,510.0,3.0,64.0
802,81.0,12.0,180.0,0.0,64.0
803,81.0,11.0,180.0,4.0,64.0
804,78.0,2.0,180.0,1.0,64.0
805,73.0,191.0,210.0,2.0,64.0
806,81.0,14.0,180.0,5.0,64.0
807,83.0,2.0,60.0,0.0,64.0
808,83.0,2.0,60.0,4.0,64.0
809,83.0,88.0,60.0,5.0,64.0
810,74.0,3.0,60.0,2.0,64.0
811,81.0,2.0,60.0,0.0,64.0
812,81.0,9.0,60.0,4.0,64.0
813,73.0,11.0,60.0,2.0,64.0
814,81.0,33.0,60.0,5.0,64.0
815,74.0,29.0,180.0,1.0,64.0
816,80.0,2.0,60.0,0.0,64.0
817,80.0,6.0,60.0,4.0,64.0
818,71.0,7.0,60.0,2.0,64.0
819,80.0,44.0,60.0,5.0,64.0
820,81.0,0.0,60.0,0.0,64.0
821,73.0,14.0,60.0,2.0,64.0
822,53.0,0.0,90.0,6.0,64.0
823,53.0,6.0,90.0,3.0,64.0
824,81.0,11.0,60.0,5.0,64.0
825,81.0,0.0,60.0,4.0,64.0
826,80.0,5.0,90.0,0.0,64.0
827,71.0,46.0,120.0,2.0,64.0
828,80.0,45.0,60.0,4.0,64.0
829,80.0,4.0,60.0,5.0,64.0
830,54.0,102.0,120.0,6.0,64.0
831,54.0,2.0,120.0,3.0,64.0
832,56.0,3.0,90.0,3.0,64.0
833,56.0,12.0,90.0,6.0,64.0
834,78.0,1.0,90.0,0.0,64.0
835,78.0,6.0,90.0,5.0,64.0
836,78.0,137.0,90.0,4.0,64.0
837,57.0,67.0,120.0,3.0,64.0
838,85.0,164.0,600.0,0.0,64.0
839,57.0,2.0,120.0,6.0,64.0
840,78.0,23.0,180.0,2.0,64.0
841,73.0,18.0,180.0,1.0,64.0
842,85.0,5.0,600.0,5.0,64.0
843,85.0,9.0,570.0,4.0,64.0
844,59.0,37.0,120.0,3.0,64.0
845,59.0,70.0,150.0,6.0,64.0
846,57.0,5.0,90.0,3.0,64.0
847,57.0,82.0,120.0,6.0,64.0
848,78.0,7.0,90.0,1.0,64.0
849,73.0,2.0,90.0,2.0,64.0
850,71.0,16.0,120.0,2.0,64.0
851,56.0,10.0,90.0,3.0,64.0
852,56.0,122.0,120.0,6.0,64.0
853,77.0,11.0,60.0,1.0,64.0
854,78.0,31.0,1560.0,1.0,64.0
855,69.0,9.0,120.0,2.0,64.0
856,54.0,4.0,120.0,3.0,64.0
857,54.0,2.0,120.0,6.0,64.0
858,73.0,29.0,60.0,2.0,64.0
859,64.0,14.0,90.0,6.0,64.0
860,64.0,9.0,90.0,3.0,64.0
861,83.0,76.0,120.0,4.0,64.0
862,83.0,1.0,60.0,5.0,64.0
863,83.0,10.0,90.0,0.0,64.0
864,81.0,6.0,90.0,4.0,64.0
865,81.0,4.0,90.0,0.0,64.0
866,81.0,103.0,90.0,5.0,64.0
867,66.0,40.0,90.0,2.0,64.0
868,83.0,41.0,180.0,4.0,64.0
869,83.0,66.0,240.0,0.0,64.0
870,62.0,66.0,120.0,6.0,64.0
871,62.0,13.0,90.0,3.0,64.0
872,83.0,26.0,210.0,5.0,64.0
873,70.0,11.0,90.0,2.0,64.0
874,61.0,7.0,90.0,3.0,64.0
875,61.0,56.0,90.0,6.0,64.0
876,85.0,19.0,60.0,5.0,64.0
877,85.0,4.0,60.0,0.0,64.0
878,85.0,186.0,60.0,4.0,64.0
879,86.0,4.0,270.0,5.0,64.0
880,59.0,5.0,120.0,3.0,64.0
881,86.0,59.0,270.0,0.0,64.0
882,59.0,89.0,120.0,6.0,64.0
883,71.0,53.0,510.0,2.0,64.0
884,86.0,16.0,240.0,4.0,64.0
885,57.0,19.0,90.0,3.0,64.0
886,57.0,16.0,120.0,6.0,64.0
887,59.0,14.0,90.0,3.0,64.0
888,59.0,59.0,120.0,6.0,64.0
889,85.0,4.0,60.0,4.0,64.0
890,85.0,1.0,60.0,5.0,64.0
891,61.0,43.0,120.0,3.0,64.0
892,85.0,62.0,60.0,0.0,64.0
893,61.0,4.0,120.0,6.0,64.0
894,83.0,0.0,180.0,5.0,64.0
895,83.0,1.0,180.0,0.0,64.0
896,62.0,8.0,120.0,6.0,64.0
897,62.0,62.0,120.0,3.0,64.0
898,83.0,117.0,180.0,4.0,64.0
899,73.0,18.0,90.0,2.0,64.0
900,81.0,11.0,60.0,4.0,64.0
901,53.0,9.0,120.0,3.0,64.0
902,53.0,45.0,120.0,6.0,64.0
903,81.0,0.0,90.0,0.0,64.0
904,73.0,7.0,120.0,1.0,64.0
905,81.0,15.0,60.0,5.0,64.0
906,80.0,3.0,60.0,0.0,64.0
907,80.0,12.0,90.0,4.0,64.0
908,80.0,139.0,90.0,5.0,64.0
909,81.0,17.0,240.0,0.0,64.0
910,54.0,15.0,90.0,6.0,64.0
911,66.0,2.0,90.0,2.0,64.0
912,73.0,117.0,120.0,1.0,64.0
913,81.0,21.0,240.0,4.0,64.0
914,54.0,12.0,90.0,3.0,64.0
915,81.0,57.0,270.0,5.0,64.0
916,47.0,2.0,90.0,3.0,64.0
917,62.0,13.0,90.0,2.0,64.0
918,47.0,73.0,90.0,6.0,64.0
919,71.0,7.0,90.0,1.0,64.0
920,83.0,156.0,90.0,0.0,64.0
921,83.0,6.0,60.0,4.0,64.0
922,83.0,0.0,60.0,5.0,64.0
923,78.0,2.0,150.0,0.0,64.0
924,61.0,4.0,480.0,2.0,64.0
925,49.0,15.0,90.0,3.0,64.0
926,68.0,57.0,630.0,1.0,64.0
927,49.0,16.0,120.0,6.0,64.0
928,78.0,3.0,120.0,4.0,64.0
929,78.0,103.0,120.0,5.0,64.0
930,77.0,14.0,120.0,0.0,64.0
931,77.0,62.0,150.0,4.0,64.0
932,77.0,8.0,150.0,5.0,64.0
933,75.0,11.0,120.0,0.0,64.0
934,75.0,123.0,150.0,5.0,64.0
935,75.0,0.0,150.0,4.0,64.0
936,61.0,16.0,90.0,3.0,64.0
937,61.0,16.0,120.0,6.0,64.0
938,73.0,7.0,150.0,0.0,64.0
939,73.0,64.0,150.0,5.0,64.0
940,73.0,1.0,120.0,4.0,64.0
941,59.0,13.0,90.0,3.0,64.0
942,75.0,9.0,150.0,0.0,64.0
943,75.0,1.0,150.0,4.0,64.0
944,59.0,31.0,120.0,6.0,64.0
945,75.0,17.0,150.0,5.0,64.0
946,77.0,7.0,90.0,4.0,64.0
947,77.0,9.0,120.0,0.0,64.0
948,77.0,88.0,120.0,5.0,64.0
949,57.0,10.0,120.0,3.0,64.0
950,78.0,4.0,120.0,4.0,64.0
951,78.0,55.0,120.0,5.0,64.0
952,57.0,3.0,120.0,6.0,64.0
953,78.0,2.0,120.0,0.0,64.0
954,73.0,15.0,90.0,2.0,64.0
955,78.0,4.0,90.0,1.0,64.0
956,80.0,7.0,90.0,4.0,64.0
957,80.0,1.0,90.0,0.0,64.0
958,80.0,120.0,90.0,5.0,64.0
959,81.0,12.0,90.0,4.0,64.0
960,81.0,22.0,90.0,0.0,64.0
961,59.0,0.0,120.0,3.0,64.0
962,78.0,5.0,120.0,1.0,64.0
963,74.0,5.0,120.0,2.0,64.0
964,59.0,1.0,120.0,6.0,64.0
965,81.0,6.0,90.0,5.0,64.0
966,80.0,12.0,60.0,4.0,64.0
967,80.0,22.0,60.0,0.0,64.0
968,80.0,13.0,60.0,5.0,64.0
969,81.0,15.0,60.0,4.0,64.0
970,81.0,18.0,60.0,0.0,64.0
971,81.0,4.0,30.0,5.0,64.0
972,80.0,9.0,30.0,4.0,64.0
973,80.0,19.0,30.0,0.0,64.0
974,80.0,46.0,30.0,5.0,64.0
975,81.0,0.0,60.0,4.0,64.0
976,81.0,25.0,60.0,0.0,64.0
977,61.0,4.0,120.0,6.0,64.0
978,73.0,16.0,60.0,2.0,64.0
979,61.0,3.0,90.0,3.0,64.0
980,81.0,3.0,60.0,5.0,64.0
981,77.0,2.0,90.0,1.0,64.0
982,80.0,11.0,60.0,0.0,64.0
983,80.0,69.0,90.0,4.0,64.0
984,80.0,4.0,60.0,5.0,64.0
985,78.0,9.0,90.0,0.0,64.0
986,78.0,32.0,90.0,4.0,64.0
987,78.0,6.0,90.0,5.0,64.0
988,80.0,0.0,90.0,0.0,64.0
989,80.0,2.0,60.0,5.0,64.0
990,80.0,106.0,60.0,4.0,64.0
991,81.0,7.0,270.0,0.0,64.0
992,81.0,76.0,270.0,5.0,64.0
993,54.0,153.0,120.0,6.0,64.0
994,54.0,4.0,90.0,3.0,64.0
995,81.0,1.0,240.0,4.0,64.0
996,78.0,2.0,90.0,1.0,64.0
997,73.0,2.0,60.0,2.0,64.0
998,57.0,1.0,90.0,3.0,64.0
999,57.0,76.0,90.0,6.0,64.0
1000,73.0,25.0,330.0,1.0,64.0
1001,66.0,11.0,300.0,2.0,64.0
1002,80.0,2.0,60.0,4.0,64.0
1003,80.0,3.0,60.0,5.0,64.0
1004,80.0,135.0,60.0,0.0,64.0
1005,51.0,17.0,120.0,6.0,64.0
1006,51.0,76.0,120.0,3.0,64.0
1007,78.0,105.0,210.0,0.0,64.0
1008,78.0,2.0,210.0,5.0,64.0
1009,78.0,6.0,180.0,4.0,64.0
1010,72.0,20.0,90.0,1.0,64.0
1011,76.0,7.0,90.0,0.0,64.0
1012,56.0,2.0,120.0,3.0,64.0
1013,76.0,8.0,90.0,5.0,64.0
1014,56.0,13.0,120.0,6.0,64.0
1015,76.0,16.0,120.0,4.0,64.0
1016,68.0,33.0,120.0,2.0,64.0
1017,75.0,6.0,90.0,0.0,64.0
1018,75.0,15.0,90.0,4.0,64.0
1019,57.0,104.0,90.0,6.0,64.0
1020,57.0,5.0,90.0,3.0,64.0
1021,75.0,3.0,60.0,5.0,64.0
1022,56.0,67.0,120.0,6.0,64.0
1023,56.0,20.0,90.0,3.0,64.0
1024,76.0,2.0,270.0,0.0,64.0
1025,73.0,6.0,240.0,1.0,64.0
1026,76.0,42.0,300.0,5.0,64.0
1027,76.0,14.0,270.0,4.0,64.0
1028,69.0,24.0,60.0,2.0,64.0
1029,68.0,9.0,60.0,2.0,64.0
1030,54.0,31.0,90.0,3.0,64.0
1031,54.0,7.0,120.0,6.0,64.0
1032,69.0,17.0,90.0,2.0,64.0
1033,68.0,18.0,90.0,2.0,64.0
1034,52.0,24.0,90.0,3.0,64.0
1035,52.0,53.0,120.0,6.0,64.0
1036,78.0,12.0,60.0,0.0,64.0
1037,51.0,1.0,90.0,6.0,64.0
1038,78.0,8.0,60.0,4.0,64.0
1039,51.0,139.0,90.0,3.0,64.0
1040,75.0,17.0,60.0,1.0,64.0
1041,78.0,3.0,60.0,5.0,64.0
1042,66.0,4.0,60.0,2.0,64.0
1043,80.0,8.0,270.0,0.0,64.0
1044,68.0,2.0,120.0,1.0,64.0
1045,52.0,35.0,120.0,6.0,64.0
1046,80.0,74.0,270.0,5.0,64.0
1047,80.0,10.0,270.0,4.0,64.0
1048,52.0,5.0,90.0,3.0,64.0
1049,73.0,109.0,150.0,2.0,64.0
1050,73.0,2.0,120.0,1.0,64.0
1051,54.0,71.0,120.0,6.0,64.0
1052,66.0,8.0,300.0,2.0,64.0
1053,54.0,5.0,90.0,3.0,64.0
1054,82.0,7.0,90.0,0.0,64.0
1055,82.0,110.0,90.0,4.0,64.0
1056,82.0,0.0,90.0,5.0,64.0
1057,84.0,9.0,90.0,0.0,64.0
1058,51.0,189.0,120.0,3.0,64.0
1059,51.0,0.0,120.0,6.0,64.0
1060,75.0,4.0,120.0,1.0,64.0
1061,84.0,29.0,60.0,4.0,64.0
1062,84.0,3.0,60.0,5.0,64.0
1063,49.0,8.0,120.0,3.0,64.0
1064,76.0,2.0,90.0,1.0,64.0
1065,85.0,2.0,60.0,0.0,64.0
1066,49.0,213.0,120.0,6.0,64.0
1067,85.0,11.0,60.0,5.0,64.0
1068,68.0,20.0,90.0,2.0,64.0
1069,85.0,18.0,60.0,4.0,64.0
1070,75.0,48.0,300.0,0.0,64.0
1071,48.0,4.0,90.0,3.0,64.0
1072,75.0,162.0,120.0,1.0,64.0
1073,75.0,2.0,270.0,4.0,64.0
1074,75.0,9.0,270.0,5.0,64.0
1075,48.0,0.0,90.0,6.0,64.0
1076,68.0,5.0,90.0,2.0,64.0
1077,49.0,56.0,120.0,6.0,64.0
1078,49.0,11.0,90.0,3.0,64.0
1079,73.0,18.0,90.0,1.0,64.0
1080,68.0,2.0,90.0,2.0,64.0
1081,76.0,7.0,90.0,0.0,64.0
1082,76.0,9.0,60.0,4.0,64.0
1083,76.0,123.0,60.0,5.0,64.0
1084,78.0,21.0,240.0,0.0,64.0
1085,46.0,127.0,120.0,6.0,64.0
1086,61.0,2.0,90.0,2.0,64.0
1087,46.0,15.0,90.0,3.0,64.0
1088,78.0,6.0,240.0,4.0,64.0
1089,73.0,18.0,60.0,1.0,64.0
1090,78.0,68.0,240.0,5.0,64.0
1091,48.0,11.0,90.0,3.0,64.0
1092,68.0,11.0,90.0,2.0,64.0
1093,75.0,123.0,360.0,1.0,64.0
1094,48.0,58.0,90.0,6.0,64.0
1095,80.0,14.0,60.0,0.0,64.0
1096,80.0,5.0,60.0,5.0,64.0
1097,80.0,166.0,60.0,4.0,64.0
1098,76.0,21.0,270.0,0.0,64.0
1099,49.0,0.0,120.0,6.0,64.0
1100,68.0,3.0,120.0,2.0,64.0
1101,49.0,9.0,120.0,3.0,64.0
1102,76.0,11.0,270.0,5.0,64.0
1103,76.0,55.0,270.0,4.0,64.0
1104,69.0,35.0,120.0,2.0,64.0
1105,73.0,18.0,120.0,1.0,64.0
1106,54.0,2.0,120.0,6.0,64.0
1107,54.0,9.0,90.0,3.0,64.0
1108,75.0,9.0,60.0,1.0,64.0
1109,75.0,10.0,60.0,0.0,64.0
1110,75.0,11.0,60.0,4.0,64.0
1111,75.0,103.0,60.0,5.0,64.0
1112,73.0,1.0,120.0,1.0,64.0
1113,56.0,2.0,90.0,3.0,64.0
1114,56.0,0.0,90.0,6.0,64.0
1115,76.0,5.0,60.0,4.0,64.0
1116,68.0,4.0,90.0,2.0,64.0
1117,76.0,28.0,60.0,5.0,64.0
1118,76.0,5.0,90.0,0.0,64.0
1119,75.0,23.0,60.0,4.0,64.0
1120,75.0,5.0,60.0,5.0,64.0
1121,72.0,35.0,30.0,1.0,64.0
1122,76.0,3.0,60.0,4.0,64.0
1123,76.0,28.0,60.0,5.0,64.0
1124,75.0,3.0,60.0,0.0,64.0
1125,73.0,31.0,60.0,1.0,64.0
1126,75.0,7.0,150.0,4.0,64.0
1127,75.0,1.0,150.0,5.0,64.0
1128,76.0,62.0,60.0,0.0,64.0
1129,72.0,4.0,150.0,1.0,64.0
1130,75.0,0.0,120.0,0.0,64.0
1131,44.0,7.0,60.0,3.0,64.0
1132,44.0,64.0,90.0,6.0,64.0
1133,66.0,20.0,60.0,2.0,64.0
1134,68.0,18.0,60.0,1.0,64.0
1135,73.0,0.0,90.0,0.0,64.0
1136,73.0,174.0,60.0,5.0,64.0
1137,73.0,3.0,60.0,4.0,64.0
1138,73.0,115.0,600.0,0.0,64.0
1139,49.0,98.0,120.0,3.0,64.0
1140,49.0,12.0,120.0,6.0,64.0
1141,68.0,12.0,540.0,1.0,64.0
1142,73.0,15.0,540.0,5.0,64.0
1143,73.0,8.0,510.0,4.0,64.0
1144,64.0,2.0,540.0,2.0,64.0
1145,48.0,6.0,120.0,6.0,64.0
1146,48.0,130.0,120.0,3.0,64.0
1147,49.0,15.0,120.0,6.0,64.0
1148,49.0,111.0,120.0,3.0,64.0
1149,51.0,11.0,120.0,6.0,64.0
1150,51.0,44.0,120.0,3.0,64.0
1151,52.0,1.0,90.0,6.0,64.0
1152,52.0,18.0,90.0,3.0,64.0
1153,75.0,59.0,120.0,4.0,64.0
1154,75.0,1.0,120.0,5.0,64.0
1155,66.0,8.0,120.0,2.0,64.0
1156,75.0,7.0,120.0,0.0,64.0
1157,64.0,29.0,90.0,2.0,64.0
1158,76.0,32.0,150.0,4.0,64.0
1159,76.0,11.0,150.0,0.0,64.0
1160,76.0,7.0,90.0,5.0,64.0
1161,73.0,17.0,120.0,1.0,64.0
1162,56.0,11.0,90.0,3.0,64.0
1163,56.0,0.0,90.0,6.0,64.0
1164,63.0,19.0,90.0,2.0,64.0
1165,78.0,7.0,90.0,0.0,64.0
1166,78.0,11.0,90.0,4.0,64.0
1167,78.0,104.0,120.0,5.0,64.0
1168,75.0,25.0,90.0,1.0,64.0
1169,61.0,6.0,120.0,2.0,64.0
1170,80.0,0.0,120.0,0.0,64.0
1171,80.0,7.0,120.0,4.0,64.0
1172,80.0,62.0,120.0,5.0,64.0
1173,76.0,9.0,90.0,1.0,64.0
1174,61.0,2.0,180.0,3.0,64.0
1175,61.0,22.0,210.0,6.0,64.0
1176,81.0,7.0,120.0,5.0,64.0
1177,75.0,16.0,120.0,1.0,64.0
1178,81.0,9.0,90.0,0.0,64.0
1179,81.0,6.0,90.0,4.0,64.0
1180,83.0,9.0,60.0,4.0,64.0
1181,83.0,21.0,90.0,5.0,64.0
1182,83.0,24.0,60.0,0.0,64.0
1183,76.0,26.0,90.0,1.0,64.0
1184,59.0,6.0,90.0,3.0,64.0
1185,59.0,0.0,90.0,6.0,64.0
1186,81.0,2.0,150.0,4.0,64.0
1187,73.0,1.0,90.0,2.0,64.0
1188,81.0,16.0,60.0,0.0,64.0
1189,81.0,14.0,60.0,5.0,64.0
1190,83.0,4.0,60.0,4.0,64.0
1191,83.0,22.0,60.0,5.0,64.0
1192,83.0,5.0,60.0,0.0,64.0
1193,78.0,16.0,90.0,1.0,64.0
1194,81.0,14.0,60.0,0.0,64.0
1195,81.0,6.0,60.0,5.0,64.0
1196,57.0,7.0,90.0,6.0,64.0
1197,57.0,0.0,90.0,3.0,64.0
1198,80.0,22.0,90.0,0.0,64.0
1199,80.0,10.0,90.0,4.0,64.0
1200,80.0,23.0,30.0,5.0,64.0
1201,81.0,0.0,60.0,4.0,64.0
1202,81.0,73.0,60.0,0.0,64.0
1203,83.0,46.0,300.0,5.0,64.0
1204,80.0,2.0,90.0,1.0,64.0
1205,56.0,15.0,90.0,6.0,64.0
1206,56.0,43.0,90.0,3.0,64.0
1207,83.0,15.0,240.0,0.0,64.0
1208,71.0,66.0,150.0,2.0,64.0
1209,83.0,7.0,270.0,4.0,64.0
1210,54.0,4.0,120.0,6.0,64.0
1211,54.0,38.0,120.0,3.0,64.0
1212,56.0,9.0,90.0,3.0,64.0
1213,56.0,58.0,120.0,6.0,64.0
1214,76.0,9.0,90.0,1.0,64.0
1215,59.0,9.0,90.0,2.0,64.0
1216,81.0,2.0,60.0,5.0,64.0
1217,57.0,12.0,90.0,3.0,64.0
1218,81.0,2.0,60.0,4.0,64.0
1219,81.0,24.0,60.0,0.0,64.0
1220,57.0,2.0,90.0,6.0,64.0
1221,61.0,122.0,90.0,2.0,64.0
1222,80.0,28.0,210.0,5.0,64.0
1223,59.0,2.0,120.0,3.0,64.0
1224,71.0,11.0,120.0,1.0,64.0
1225,80.0,115.0,240.0,4.0,64.0
1226,80.0,3.0,180.0,0.0,64.0
1227,59.0,82.0,120.0,6.0,64.0
1228,62.0,11.0,90.0,2.0,64.0
1229,52.0,6.0,120.0,3.0,64.0
1230,78.0,51.0,150.0,5.0,64.0
1231,68.0,2.0,120.0,1.0,64.0
1232,52.0,1.0,120.0,6.0,64.0
1233,78.0,3.0,120.0,0.0,64.0
1234,78.0,9.0,90.0,4.0,64.0
1235,59.0,13.0,120.0,2.0,64.0
1236,76.0,117.0,120.0,0.0,64.0
1237,76.0,3.0,90.0,5.0,64.0
1238,76.0,29.0,90.0,4.0,64.0
1239,74.0,5.0,90.0,0.0,64.0
1240,69.0,7.0,90.0,1.0,64.0
1241,74.0,10.0,120.0,5.0,64.0
1242,74.0,5.0,120.0,4.0,64.0
1243,54.0,5.0,90.0,3.0,64.0
1244,54.0,75.0,120.0,6.0,64.0
1245,66.0,2.0,90.0,2.0,64.0
1246,73.0,32.0,120.0,0.0,64.0
1247,73.0,66.0,150.0,5.0,64.0
1248,73.0,15.0,90.0,4.0,64.0
1249,74.0,0.0,120.0,0.0,64.0
1250,74.0,1.0,120.0,5.0,64.0
1251,74.0,86.0,120.0,4.0,64.0
1252,56.0,9.0,60.0,3.0,64.0
1253,64.0,12.0,90.0,2.0,64.0
1254,71.0,7.0,90.0,1.0,64.0
1255,56.0,6.0,60.0,6.0,64.0
1256,71.0,163.0,120.0,0.0,64.0
1257,71.0,3.0,90.0,5.0,64.0
1258,71.0,12.0,90.0,4.0,64.0
1259,73.0,2.0,300.0,0.0,64.0
1260,73.0,62.0,300.0,5.0,64.0
1261,73.0,16.0,300.0,4.0,64.0
1262,69.0,4.0,570.0,1.0,64.0
1263,57.0,11.0,120.0,3.0,64.0
1264,57.0,101.0,120.0,6.0,64.0
1265,64.0,8.0,540.0,2.0,64.0
1266,56.0,0.0,120.0,3.0,64.0
1267,56.0,47.0,120.0,6.0,64.0
1268,57.0,19.0,120.0,3.0,64.0
1269,57.0,32.0,150.0,6.0,64.0
1270,71.0,8.0,60.0,0.0,64.0
1271,71.0,12.0,90.0,4.0,64.0
1272,59.0,22.0,90.0,3.0,64.0
1273,71.0,19.0,60.0,5.0,64.0
1274,59.0,78.0,120.0,6.0,64.0
1275,61.0,11.0,120.0,3.0,64.0
1276,69.0,1.0,120.0,4.0,64.0
1277,69.0,12.0,90.0,0.0,64.0
1278,61.0,92.0,120.0,6.0,64.0
1279,69.0,22.0,90.0,5.0,64.0
1280,62.0,21.0,120.0,3.0,64.0
1281,62.0,55.0,120.0,6.0,64.0
1282,61.0,28.0,120.0,3.0,64.0
1283,61.0,109.0,150.0,6.0,64.0
1284,65.0,0.0,90.0,2.0,64.0
1285,68.0,12.0,90.0,1.0,64.0
1286,73.0,7.0,60.0,4.0,64.0
1287,73.0,13.0,60.0,0.0,64.0
1288,73.0,6.0,60.0,5.0,64.0
1289,59.0,1.0,150.0,3.0,64.0
1290,59.0,92.0,120.0,6.0,64.0
1291,57.0,11.0,120.0,3.0,64.0
1292,57.0,93.0,120.0,6.0,64.0
1293,78.0,8.0,240.0,0.0,64.0
1294,78.0,42.0,270.0,4.0,64.0
1295,73.0,2.0,90.0,1.0,64.0
1296,66.0,11.0,90.0,2.0,64.0
1297,78.0,17.0,240.0,5.0,64.0
1298,56.0,39.0,120.0,6.0,64.0
1299,56.0,7.0,120.0,3.0,64.0
1300,54.0,9.0,120.0,3.0,64.0
1301,54.0,65.0,120.0,6.0,64.0
1302,61.0,13.0,90.0,2.0,64.0
1303,73.0,7.0,60.0,1.0,64.0
1304,80.0,9.0,90.0,0.0,64.0
1305,53.0,112.0,120.0,6.0,64.0
1306,80.0,25.0,60.0,4.0,64.0
1307,53.0,2.0,90.0,3.0,64.0
1308,80.0,3.0,60.0,5.0,64.0
1309,81.0,3.0,270.0,0.0,64.0
1310,54.0,14.0,90.0,3.0,64.0
1311,73.0,19.0,480.0,1.0,64.0
1312,81.0,5.0,240.0,4.0,64.0
1313,54.0,150.0,90.0,6.0,64.0
1314,81.0,74.0,240.0,5.0,64.0
1315,66.0,69.0,480.0,2.0,64.0
1316,56.0,13.0,90.0,3.0,64.0
1317,56.0,71.0,90.0,6.0,64.0
1318,83.0,14.0,60.0,0.0,64.0
1319,83.0,5.0,90.0,4.0,64.0
1320,83.0,55.0,90.0,5.0,64.0
1321,85.0,14.0,150.0,0.0,64.0
1322,57.0,33.0,120.0,6.0,64.0
1323,85.0,1.0,150.0,4.0,64.0
1324,57.0,13.0,90.0,3.0,64.0
1325,85.0,107.0,150.0,5.0,64.0
1326,83.0,23.0,150.0,4.0,64.0
1327,83.0,5.0,150.0,0.0,64.0
1328,83.0,17.0,180.0,5.0,64.0
1329,66.0,31.0,90.0,2.0,64.0
1330,73.0,2.0,90.0,1.0,64.0
1331,54.0,9.0,120.0,3.0,64.0
1332,81.0,11.0,180.0,4.0,64.0
1333,81.0,12.0,150.0,0.0,64.0
1334,54.0,35.0,120.0,6.0,64.0
1335,81.0,63.0,150.0,5.0,64.0
1336,80.0,2.0,120.0,4.0,64.0
1337,80.0,17.0,120.0,0.0,64.0
1338,80.0,77.0,120.0,5.0,64.0
1339,78.0,5.0,120.0,4.0,64.0
1340,78.0,5.0,120.0,0.0,64.0
1341,68.0,10.0,90.0,1.0,64.0
1342,56.0,14.0,120.0,3.0,64.0
1343,59.0,0.0,90.0,2.0,64.0
1344,78.0,21.0,120.0,5.0,64.0
1345,56.0,73.0,120.0,6.0,64.0
1346,76.0,27.0,150.0,4.0,64.0
1347,76.0,7.0,120.0,0.0,64.0
1348,76.0,63.0,150.0,5.0,64.0
1349,75.0,1.0,120.0,4.0,64.0
1350,75.0,2.0,120.0,0.0,64.0
1351,66.0,31.0,90.0,1.0,64.0
1352,57.0,2.0,120.0,3.0,64.0
1353,75.0,26.0,120.0,5.0,64.0
1354,57.0,12.0,90.0,6.0,64.0
1355,61.0,2.0,90.0,2.0,64.0
1356,76.0,9.0,60.0,0.0,64.0
1357,76.0,36.0,60.0,4.0,64.0
1358,76.0,72.0,60.0,5.0,64.0
1359,76.0,15.0,60.0,0.0,64.0
1360,76.0,26.0,60.0,4.0,64.0
1361,59.0,7.0,90.0,3.0,64.0
1362,59.0,6.0,120.0,6.0,64.0
1363,66.0,10.0,390.0,1.0,64.0
1364,59.0,10.0,120.0,2.0,64.0
1365,76.0,10.0,60.0,5.0,64.0
1366,75.0,13.0,60.0,0.0,64.0
1367,75.0,11.0,60.0,4.0,64.0
1368,75.0,22.0,60.0,5.0,64.0
1369,76.0,10.0,60.0,0.0,64.0
1370,76.0,32.0,60.0,4.0,64.0
1371,58.0,104.0,120.0,2.0,64.0
1372,76.0,30.0,60.0,5.0,64.0
1373,75.0,6.0,210.0,0.0,64.0
1374,75.0,8.0,210.0,4.0,64.0
1375,75.0,1.0,180.0,5.0,64.0
1376,47.0,5.0,90.0,6.0,64.0
1377,47.0,5.0,120.0,3.0,64.0
1378,59.0,38.0,120.0,2.0,64.0
1379,76.0,11.0,60.0,0.0,64.0
1380,76.0,1.0,90.0,4.0,64.0
1381,76.0,26.0,60.0,5.0,64.0
1382,61.0,129.0,90.0,2.0,64.0
1383,78.0,31.0,180.0,0.0,64.0
1384,78.0,106.0,210.0,5.0,64.0
1385,63.0,9.0,90.0,2.0,64.0
1386,78.0,12.0,180.0,4.0,64.0
1387,59.0,10.0,90.0,6.0,64.0
1388,59.0,49.0,120.0,3.0,64.0
1389,71.0,8.0,360.0,1.0,64.0
1390,64.0,28.0,90.0,2.0,64.0
1391,61.0,3.0,90.0,3.0,64.0
1392,61.0,9.0,120.0,6.0,64.0
1393,76.0,8.0,90.0,5.0,64.0
1394,76.0,76.0,120.0,0.0,64.0
1395,76.0,3.0,90.0,4.0,64.0
1396,75.0,133.0,120.0,0.0,64.0
1397,75.0,3.0,90.0,5.0,64.0
1398,75.0,3.0,90.0,4.0,64.0
1399,59.0,5.0,120.0,3.0,64.0
1400,66.0,22.0,300.0,2.0,64.0
1401,59.0,11.0,120.0,6.0,64.0
1402,73.0,8.0,120.0,5.0,64.0
1403,73.0,0.0,120.0,0.0,64.0
1404,73.0,81.0,120.0,4.0,64.0
1405,63.0,2.0,300.0,1.0,64.0
1406,71.0,32.0,120.0,5.0,64.0
1407,71.0,4.0,120.0,0.0,64.0
1408,71.0,52.0,120.0,4.0,64.0
1409,73.0,30.0,120.0,5.0,64.0
1410,57.0,2.0,90.0,6.0,64.0
1411,57.0,19.0,90.0,3.0,64.0
1412,73.0,47.0,120.0,0.0,64.0
1413,73.0,4.0,120.0,4.0,64.0
1414,75.0,12.0,90.0,5.0,64.0
1415,75.0,1.0,60.0,4.0,64.0
1416,75.0,71.0,90.0,0.0,64.0
1417,56.0,4.0,120.0,6.0,64.0
1418,76.0,4.0,120.0,4.0,64.0
1419,76.0,8.0,90.0,5.0,64.0
1420,56.0,2.0,120.0,3.0,64.0
1421,76.0,12.0,120.0,0.0,64.0
1422,68.0,102.0,120.0,2.0,64.0
1423,75.0,72.0,20.0,0.0,64.0
1424,71.0,58.0,360.0,1.0,64.0
1425,75.0,93.0,120.0,5.0,64.0
1426,66.0,3.0,120.0,2.0,64.0
1427,75.0,1.0,120.0,4.0,64.0
1428,75.0,3.0,120.0,0.0,64.0
1429,76.0,6.0,120.0,0.0,64.0
1430,68.0,7.0,120.0,2.0,64.0
1431,76.0,7.0,120.0,4.0,64.0
1432,76.0,14.0,90.0,5.0,64.0
1433,54.0,11.0,120.0,6.0,64.0
1434,54.0,3.0,120.0,3.0,64.0
1435,69.0,161.0,120.0,2.0,64.0
1436,78.0,12.0,90.0,0.0,64.0
1437,78.0,1.0,90.0,5.0,64.0
1438,78.0,9.0,90.0,4.0,64.0
1439,80.0,97.0,210.0,0.0,64.0
1440,71.0,20.0,210.0,2.0,64.0
1441,52.0,35.0,150.0,3.0,64.0
1442,52.0,8.0,150.0,6.0,64.0
1443,80.0,5.0,180.0,4.0,64.0
1444,80.0,1.0,180.0,5.0,64.0
1445,76.0,27.0,300.0,1.0,64.0
1446,64.0,65.0,120.0,6.0,64.0
1447,64.0,4.0,90.0,3.0,64.0
1448,73.0,2.0,90.0,2.0,64.0
1449,81.0,9.0,60.0,4.0,64.0
1450,81.0,105.0,60.0,0.0,64.0
1451,81.0,1.0,60.0,5.0,64.0
1452,71.0,2.0,60.0,2.0,64.0
1453,76.0,5.0,60.0,1.0,64.0
1454,59.0,55.0,120.0,6.0,64.0
1455,80.0,15.0,60.0,4.0,64.0
1456,80.0,0.0,60.0,5.0,64.0
1457,59.0,0.0,90.0,3.0,64.0
1458,80.0,24.0,60.0,0.0,64.0
1459,75.0,1.0,60.0,1.0,64.0
1460,78.0,2.0,60.0,4.0,64.0
1461,78.0,1.0,60.0,5.0,64.0
1462,69.0,14.0,30.0,2.0,64.0
1463,78.0,11.0,210.0,0.0,64.0
1464,71.0,49.0,90.0,2.0,64.0
1465,76.0,1.0,90.0,1.0,64.0
1466,80.0,2.0,60.0,4.0,64.0
1467,80.0,5.0,60.0,0.0,64.0
1468,80.0,5.0,60.0,5.0,64.0
1469,69.0,39.0,150.0,2.0,64.0
1470,75.0,0.0,120.0,1.0,64.0
1471,78.0,2.0,60.0,5.0,64.0
1472,78.0,34.0,60.0,4.0,64.0
1473,61.0,9.0,60.0,3.0,64.0
1474,61.0,96.0,60.0,6.0,64.0
1475,76.0,15.0,60.0,1.0,64.0
1476,68.0,6.0,60.0,2.0,64.0
1477,76.0,12.0,60.0,0.0,64.0
1478,76.0,124.0,90.0,4.0,64.0
1479,76.0,11.0,60.0,5.0,64.0
1480,56.0,78.0,150.0,3.0,64.0
1481,68.0,17.0,120.0,2.0,64.0
1482,76.0,22.0,90.0,1.0,64.0
1483,83.0,37.0,630.0,0.0,64.0
1484,56.0,9.0,120.0,6.0,64.0
1485,83.0,2.0,630.0,5.0,64.0
1486,83.0,36.0,600.0,4.0,64.0
1487,75.0,4.0,120.0,1.0,64.0
1488,54.0,2.0,120.0,3.0,64.0
1489,69.0,87.0,150.0,2.0,64.0
1490,54.0,20.0,120.0,6.0,64.0
1491,76.0,6.0,120.0,1.0,64.0
1492,56.0,3.0,120.0,6.0,64.0
1493,56.0,53.0,120.0,3.0,64.0
1494,68.0,20.0,120.0,2.0,64.0
1495,78.0,20.0,90.0,1.0,64.0
1496,57.0,139.0,120.0,6.0,64.0
1497,66.0,9.0,60.0,2.0,64.0
1498,57.0,4.0,90.0,3.0,64.0
1499,80.0,10.0,240.0,1.0,64.0
1500,59.0,4.0,120.0,3.0,64.0
1501,59.0,5.0,120.0,6.0,64.0
1502,64.0,7.0,120.0,2.0,64.0
1503,61.0,8.0,90.0,3.0,64.0
1504,61.0,84.0,120.0,6.0,64.0
1505,62.0,2.0,120.0,3.0,64.0
1506,62.0,2.0,120.0,6.0,64.0
1507,71.0,9.0,120.0,2.0,64.0
1508,81.0,7.0,90.0,0.0,64.0
1509,78.0,35.0,60.0,1.0,64.0
1510,81.0,6.0,90.0,4.0,64.0
1511,81.0,65.0,90.0,5.0,64.0
1512,80.0,18.0,90.0,0.0,64.0
1513,76.0,10.0,90.0,1.0,64.0
1514,80.0,0.0,90.0,4.0,64.0
1515,80.0,134.0,90.0,5.0,64.0
1516,73.0,2.0,120.0,2.0,64.0
1517,81.0,6.0,240.0,0.0,64.0
1518,61.0,16.0,120.0,3.0,64.0
1519,61.0,108.0,120.0,6.0,64.0
1520,78.0,75.0,240.0,1.0,64.0
1521,81.0,4.0,240.0,4.0,64.0
1522,81.0,14.0,240.0,5.0,64.0
1523,74.0,20.0,90.0,2.0,64.0
1524,59.0,11.0,120.0,6.0,64.0
1525,59.0,52.0,120.0,3.0,64.0
1526,83.0,7.0,90.0,0.0,64.0
1527,83.0,19.0,90.0,4.0,64.0
1528,80.0,124.0,90.0,1.0,64.0
1529,83.0,6.0,60.0,5.0,64.0
1530,85.0,23.0,270.0,0.0,64.0
1531,76.0,1.0,90.0,2.0,64.0
1532,85.0,11.0,270.0,5.0,64.0
1533,85.0,48.0,270.0,4.0,64.0
1534,81.0,37.0,90.0,1.0,64.0
1535,57.0,115.0,120.0,3.0,64.0
1536,57.0,0.0,120.0,6.0,64.0
1537,64.0,7.0,90.0,2.0,64.0
1538,56.0,17.0,90.0,3.0,64.0
1539,73.0,40.0,390.0,1.0,64.0
1540,56.0,63.0,90.0,6.0,64.0
1541,83.0,5.0,90.0,0.0,64.0
1542,83.0,162.0,90.0,4.0,64.0
1543,83.0,10.0,60.0,5.0,64.0
1544,81.0,13.0,210.0,0.0,64.0
1545,66.0,3.0,330.0,2.0,64.0
1546,81.0,99.0,240.0,5.0,64.0
1547,81.0,27.0,180.0,4.0,64.0
1548,54.0,24.0,120.0,3.0,64.0
1549,54.0,11.0,90.0,6.0,64.0
1550,80.0,2.0,90.0,4.0,64.0
1551,80.0,12.0,90.0,0.0,64.0
1552,75.0,2.0,90.0,1.0,64.0
1553,80.0,32.0,90.0,5.0,64.0
1554,59.0,44.0,120.0,3.0,64.0
1555,59.0,3.0,120.0,6.0,64.0
1556,78.0,17.0,90.0,0.0,64.0
1557,78.0,1.0,90.0,4.0,64.0
1558,78.0,10.0,90.0,5.0,64.0
1559,61.0,46.0,90.0,3.0,64.0
1560,61.0,76.0,120.0,6.0,64.0
1561,59.0,4.0,150.0,3.0,64.0
1562,71.0,36.0,90.0,2.0,64.0
1563,80.0,7.0,240.0,0.0,64.0
1564,80.0,0.0,240.0,5.0,64.0
1565,80.0,20.0,240.0,4.0,64.0
1566,59.0,86.0,120.0,6.0,64.0
1567,76.0,47.0,270.0,1.0,64.0
1568,57.0,27.0,120.0,3.0,64.0
1569,57.0,6.0,120.0,6.0,64.0
1570,56.0,33.0,120.0,3.0,64.0
1571,69.0,47.0,120.0,2.0,64.0
1572,56.0,4.0,90.0,6.0,64.0
1573,54.0,7.0,120.0,3.0,64.0
1574,81.0,4.0,60.0,0.0,64.0
1575,81.0,0.0,60.0,5.0,64.0
1576,81.0,11.0,60.0,4.0,64.0
1577,78.0,20.0,60.0,1.0,64.0
1578,54.0,100.0,90.0,6.0,64.0
1579,56.0,15.0,90.0,3.0,64.0
1580,83.0,21.0,270.0,0.0,64.0
1581,68.0,11.0,120.0,2.0,64.0
1582,83.0,52.0,270.0,5.0,64.0
1583,83.0,1.0,270.0,4.0,64.0
1584,56.0,35.0,90.0,6.0,64.0
1585,76.0,7.0,60.0,1.0,64.0
1586,75.0,60.0,60.0,1.0,64.0
1587,76.0,50.0,60.0,1.0,64.0
1588,75.0,56.0,150.0,1.0,64.0
1589,66.0,2.0,90.0,2.0,64.0
1590,59.0,0.0,90.0,3.0,64.0
1591,59.0,8.0,90.0,6.0,64.0
1592,76.0,17.0,60.0,1.0,64.0
1593,81.0,8.0,60.0,5.0,64.0
1594,81.0,144.0,60.0,0.0,64.0
1595,81.0,2.0,60.0,4.0,64.0
1596,76.0,22.0,180.0,1.0,64.0
1597,64.0,9.0,90.0,2.0,64.0
1598,80.0,20.0,90.0,5.0,64.0
1599,80.0,6.0,120.0,0.0,64.0
1600,64.0,4.0,120.0,3.0,64.0
1601,80.0,16.0,120.0,4.0,64.0
1602,64.0,24.0,150.0,6.0,64.0
1603,78.0,4.0,90.0,0.0,64.0
1604,78.0,21.0,90.0,5.0,64.0
1605,63.0,9.0,90.0,3.0,64.0
1606,78.0,40.0,90.0,4.0,64.0
1607,63.0,55.0,120.0,6.0,64.0
1608,61.0,33.0,150.0,3.0,64.0
1609,68.0,16.0,90.0,2.0,64.0
1610,80.0,4.0,120.0,0.0,64.0
1611,80.0,10.0,90.0,5.0,64.0
1612,80.0,3.0,90.0,4.0,64.0
1613,76.0,16.0,90.0,1.0,64.0
1614,61.0,32.0,150.0,6.0,64.0
1615,59.0,17.0,120.0,3.0,64.0
1616,76.0,14.0,90.0,5.0,64.0
1617,76.0,13.0,90.0,0.0,64.0
1618,76.0,3.0,90.0,4.0,64.0
1619,59.0,78.0,120.0,6.0,64.0
1620,57.0,9.0,120.0,3.0,64.0
1621,57.0,12.0,120.0,6.0,64.0
1622,75.0,26.0,90.0,1.0,64.0
1623,78.0,35.0,270.0,5.0,64.0
1624,69.0,3.0,240.0,2.0,64.0
1625,78.0,5.0,240.0,4.0,64.0
1626,78.0,0.0,240.0,0.0,64.0
1627,73.0,61.0,60.0,1.0,64.0
1628,56.0,14.0,120.0,3.0,64.0
1629,56.0,30.0,120.0,6.0,64.0
1630,75.0,29.0,60.0,1.0,64.0
1631,73.0,34.0,120.0,1.0,64.0
1632,54.0,8.0,120.0,3.0,64.0
1633,54.0,79.0,120.0,6.0,64.0
1634,52.0,12.0,120.0,3.0,64.0
1635,52.0,130.0,120.0,6.0,64.0
1636,80.0,2.0,60.0,5.0,64.0
1637,80.0,13.0,90.0,4.0,64.0
1638,80.0,1.0,60.0,0.0,64.0
1639,73.0,6.0,60.0,1.0,64.0
1640,68.0,0.0,60.0,2.0,64.0
1641,81.0,26.0,240.0,0.0,64.0
1642,73.0,13.0,150.0,1.0,64.0
1643,54.0,20.0,90.0,6.0,64.0
1644,54.0,31.0,120.0,3.0,64.0
1645,81.0,16.0,270.0,5.0,64.0
1646,81.0,40.0,270.0,4.0,64.0
1647,66.0,60.0,150.0,2.0,64.0
1648,71.0,13.0,90.0,1.0,64.0
1649,64.0,71.0,90.0,2.0,64.0
1650,69.0,7.0,180.0,1.0,64.0
1651,61.0,5.0,120.0,3.0,64.0
1652,61.0,17.0,120.0,6.0,64.0
1653,63.0,7.0,90.0,2.0,64.0
1654,80.0,0.0,60.0,0.0,64.0
1655,80.0,2.0,60.0,5.0,64.0
1656,80.0,55.0,60.0,4.0,64.0
1657,59.0,31.0,120.0,3.0,64.0
1658,59.0,75.0,150.0,6.0,64.0
1659,71.0,2.0,90.0,1.0,64.0
1660,61.0,6.0,120.0,2.0,64.0
1661,57.0,10.0,150.0,3.0,64.0
1662,78.0,8.0,120.0,5.0,64.0
1663,78.0,18.0,120.0,0.0,64.0
1664,57.0,28.0,150.0,6.0,64.0
1665,78.0,10.0,150.0,4.0,64.0
1666,73.0,24.0,180.0,1.0,64.0
1667,76.0,14.0,90.0,0.0,64.0
1668,56.0,20.0,120.0,3.0,64.0
1669,76.0,7.0,120.0,5.0,64.0
1670,76.0,2.0,90.0,4.0,64.0
1671,56.0,61.0,120.0,6.0,64.0
1672,75.0,4.0,150.0,0.0,64.0
1673,54.0,2.0,120.0,3.0,64.0
1674,75.0,81.0,150.0,5.0,64.0
1675,66.0,18.0,90.0,2.0,64.0
1676,69.0,16.0,90.0,1.0,64.0
1677,54.0,9.0,90.0,6.0,64.0
1678,75.0,6.0,120.0,4.0,64.0
1679,52.0,29.0,150.0,3.0,64.0
1680,76.0,2.0,120.0,0.0,64.0
1681,68.0,6.0,120.0,1.0,64.0
1682,52.0,49.0,150.0,6.0,64.0
1683,76.0,4.0,120.0,5.0,64.0
1684,76.0,12.0,90.0,4.0,64.0
1685,51.0,1.0,120.0,3.0,64.0
1686,59.0,21.0,90.0,2.0,64.0
1687,51.0,11.0,150.0,6.0,64.0
1688,78.0,17.0,120.0,0.0,64.0
1689,69.0,16.0,90.0,1.0,64.0
1690,78.0,2.0,120.0,5.0,64.0
1691,78.0,83.0,120.0,4.0,64.0
1692,49.0,2.0,150.0,3.0,64.0
1693,75.0,4.0,120.0,0.0,64.0
1694,75.0,8.0,120.0,5.0,64.0
1695,49.0,76.0,120.0,6.0,64.0
1696,75.0,11.0,120.0,4.0,64.0
1697,47.0,7.0,120.0,3.0,64.0
1698,76.0,25.0,120.0,0.0,64.0
1699,47.0,18.0,150.0,6.0,64.0
1700,76.0,8.0,120.0,5.0,64.0
1701,64.0,0.0,90.0,2.0,64.0
1702,76.0,15.0,120.0,4.0,64.0
1703,73.0,0.0,90.0,1.0,64.0
1704,78.0,0.0,90.0,0.0,64.0
1705,45.0,7.0,60.0,3.0,64.0
1706,78.0,2.0,90.0,5.0,64.0
1707,45.0,24.0,60.0,6.0,64.0
1708,78.0,328.0,60.0,4.0,64.0
1709,57.0,39.0,570.0,3.0,64.0
1710,71.0,29.0,300.0,0.0,64.0
1711,71.0,6.0,300.0,5.0,64.0
1712,71.0,175.0,300.0,4.0,64.0
1713,57.0,7.0,570.0,6.0,64.0
1714,63.0,21.0,480.0,2.0,64.0
1715,66.0,6.0,510.0,1.0,64.0
1716,73.0,6.0,120.0,0.0,64.0
1717,73.0,1.0,120.0,4.0,64.0
1718,73.0,19.0,120.0,5.0,64.0
1719,75.0,6.0,120.0,0.0,64.0
1720,75.0,1.0,90.0,5.0,64.0
1721,75.0,119.0,120.0,4.0,64.0
1722,76.0,10.0,120.0,5.0,64.0
1723,76.0,9.0,120.0,0.0,64.0
1724,76.0,70.0,120.0,4.0,64.0
1725,78.0,0.0,90.0,5.0,64.0
1726,78.0,75.0,120.0,0.0,64.0
1727,78.0,14.0,90.0,1.0,64.0
1728,78.0,9.0,120.0,4.0,64.0
1729,51.0,2.0,90.0,3.0,64.0
1730,59.0,4.0,90.0,2.0,64.0
1731,51.0,5.0,90.0,6.0,64.0
1732,80.0,113.0,90.0,0.0,64.0
1733,80.0,2.0,90.0,4.0,64.0
1734,80.0,9.0,60.0,5.0,64.0
1735,81.0,6.0,120.0,0.0,64.0
1736,75.0,4.0,90.0,1.0,64.0
1737,81.0,5.0,90.0,4.0,64.0
1738,81.0,8.0,90.0,5.0,64.0
1739,47.0,4.0,120.0,6.0,64.0
1740,66.0,12.0,90.0,2.0,64.0
1741,47.0,66.0,90.0,3.0,64.0
1742,78.0,117.0,90.0,0.0,64.0
1743,78.0,16.0,90.0,4.0,64.0
1744,78.0,3.0,60.0,5.0,64.0
1745,83.0,4.0,120.0,0.0,64.0
1746,78.0,4.0,90.0,1.0,64.0
1747,63.0,5.0,90.0,2.0,64.0
1748,83.0,27.0,90.0,4.0,64.0
1749,83.0,223.0,120.0,5.0,64.0
1750,51.0,1.0,120.0,6.0,64.0
1751,51.0,4.0,120.0,3.0,64.0
1752,59.0,93.0,180.0,2.0,64.0
1753,52.0,4.0,120.0,6.0,64.0
1754,80.0,9.0,270.0,0.0,64.0
1755,76.0,12.0,270.0,1.0,64.0
1756,52.0,44.0,120.0,3.0,64.0
1757,80.0,63.0,270.0,5.0,64.0
1758,80.0,16.0,270.0,4.0,64.0
1759,71.0,5.0,120.0,2.0,64.0
1760,47.0,2.0,120.0,6.0,64.0
1761,47.0,49.0,120.0,3.0,64.0
1762,75.0,1.0,90.0,1.0,64.0
1763,69.0,130.0,90.0,2.0,64.0
1764,78.0,1.0,90.0,0.0,64.0
1765,78.0,11.0,60.0,5.0,64.0
1766,78.0,23.0,60.0,4.0,64.0
1767,76.0,13.0,120.0,1.0,64.0
1768,76.0,4.0,120.0,5.0,64.0
1769,76.0,2.0,120.0,0.0,64.0
1770,76.0,9.0,120.0,4.0,64.0
1771,49.0,3.0,90.0,6.0,64.0
1772,68.0,64.0,120.0,2.0,64.0
1773,49.0,6.0,90.0,3.0,64.0
1774,75.0,6.0,90.0,0.0,64.0
1775,75.0,124.0,90.0,5.0,64.0
1776,75.0,10.0,90.0,4.0,64.0
1777,76.0,12.0,120.0,0.0,64.0
1778,76.0,4.0,90.0,4.0,64.0
1779,73.0,2.0,90.0,1.0,64.0
1780,76.0,8.0,120.0,5.0,64.0
1781,45.0,9.0,90.0,3.0,64.0
1782,45.0,0.0,90.0,6.0,64.0
1783,66.0,45.0,90.0,2.0,64.0
1784,73.0,17.0,90.0,0.0,64.0
1785,73.0,19.0,60.0,4.0,64.0
1786,73.0,107.0,90.0,5.0,64.0
1787,73.0,11.0,90.0,1.0,64.0
1788,76.0,12.0,120.0,4.0,64.0
1789,76.0,7.0,90.0,0.0,64.0
1790,47.0,30.0,330.0,6.0,64.0
1791,68.0,5.0,60.0,2.0,64.0
1792,47.0,15.0,330.0,3.0,64.0
1793,76.0,16.0,90.0,5.0,64.0
1794,71.0,5.0,60.0,1.0,64.0
1795,66.0,4.0,60.0,2.0,64.0
1796,75.0,10.0,60.0,0.0,64.0
1797,75.0,12.0,60.0,5.0,64.0
1798,75.0,16.0,30.0,4.0,64.0
1799,73.0,13.0,60.0,1.0,64.0
1800,68.0,0.0,60.0,2.0,64.0
1801,76.0,2.0,60.0,0.0,64.0
1802,76.0,11.0,60.0,5.0,64.0
1803,76.0,9.0,30.0,4.0,64.0
1804,71.0,11.0,30.0,1.0,64.0
1805,66.0,10.0,60.0,2.0,64.0
1806,75.0,0.0,180.0,0.0,64.0
1807,75.0,17.0,30.0,5.0,64.0
1808,73.0,3.0,60.0,1.0,64.0
1809,75.0,15.0,30.0,4.0,64.0
1810,68.0,18.0,60.0,2.0,64.0
1811,76.0,19.0,60.0,5.0,64.0
1812,76.0,2.0,30.0,0.0,64.0
1813,76.0,23.0,60.0,4.0,64.0
1814,71.0,11.0,120.0,1.0,64.0
1815,66.0,22.0,150.0,2.0,64.0
1816,75.0,5.0,120.0,5.0,64.0
1817,75.0,20.0,90.0,4.0,64.0
1818,76.0,1.0,60.0,0.0,64.0
1819,76.0,11.0,60.0,5.0,64.0
1820,76.0,996.0,60.0,4.0,64.0
1821,76.0,3.0,990.0,5.0,64.0
1822,76.0,3.0,960.0,0.0,64.0
1823,76.0,12.0,960.0,4.0,64.0
1824,71.0,0.0,990.0,1.0,64.0
1825,40.0,358.0,990.0,6.0,64.0
1826,40.0,8.0,960.0,3.0,64.0
1827,68.0,24.0,930.0,2.0,64.0
1828,59.0,3.0,60.0,3.0,64.0
1829,78.0,2.0,60.0,5.0,64.0
1830,71.0,2.0,60.0,2.0,64.0
1831,78.0,11.0,60.0,4.0,64.0
1832,59.0,2.0,60.0,6.0,64.0
1833,78.0,175.0,60.0,0.0,64.0
1834,75.0,2.0,60.0,1.0,64.0
1835,71.0,27.0,390.0,2.0,64.0
1836,78.0,10.0,150.0,5.0,64.0
1837,59.0,12.0,210.0,6.0,64.0
1838,78.0,21.0,120.0,4.0,64.0
1839,78.0,32.0,150.0,0.0,64.0
1840,59.0,39.0,180.0,3.0,64.0
1841,75.0,4.0,120.0,1.0,64.0
1842,76.0,8.0,120.0,4.0,64.0
1843,76.0,4.0,120.0,5.0,64.0
1844,76.0,53.0,120.0,0.0,64.0
1845,73.0,12.0,120.0,1.0,64.0
1846,57.0,7.0,60.0,3.0,64.0
1847,78.0,1.0,120.0,5.0,64.0
1848,75.0,2.0,120.0,1.0,64.0
1849,78.0,3.0,120.0,4.0,64.0
1850,57.0,44.0,60.0,6.0,64.0
1851,78.0,11.0,120.0,0.0,64.0
1852,56.0,29.0,60.0,3.0,64.0
1853,56.0,16.0,90.0,6.0,64.0
1854,80.0,15.0,90.0,4.0,64.0
1855,80.0,186.0,120.0,5.0,64.0
1856,77.0,0.0,120.0,1.0,64.0
1857,80.0,9.0,90.0,0.0,64.0
1858,54.0,20.0,510.0,6.0,64.0
1859,54.0,5.0,510.0,3.0,64.0
1860,81.0,12.0,180.0,0.0,64.0
1861,81.0,11.0,180.0,4.0,64.0
1862,78.0,2.0,180.0,1.0,64.0
1863,73.0,191.0,210.0,2.0,64.0
1864,81.0,14.0,180.0,5.0,64.0
1865,83.0,2.0,60.0,0.0,64.0
1866,83.0,2.0,60.0,4.0,64.0
1867,83.0,88.0,60.0,5.0,64.0
1868,74.0,3.0,60.0,2.0,64.0
1869,81.0,2.0,60.0,0.0,64.0
1870,81.0,9.0,60.0,4.0,64.0
1871,73.0,11.0,60.0,2.0,64.0
1872,81.0,33.0,60.0,5.0,64.0
1873,74.0,29.0,180.0,1.0,64.0
1874,80.0,2.0,60.0,0.0,64.0
1875,80.0,6.0,60.0,4.0,64.0
1876,71.0,7.0,60.0,2.0,64.0
1877,80.0,44.0,60.0,5.0,64.0
1878,81.0,0.0,60.0,0.0,64.0
1879,73.0,14.0,60.0,2.0,64.0
1880,53.0,0.0,90.0,6.0,64.0
1881,53.0,6.0,90.0,3.0,64.0
1882,81.0,11.0,60.0,5.0,64.0
1883,81.0,0.0,60.0,4.0,64.0
1884,80.0,5.0,90.0,0.0,64.0
1885,71.0,46.0,120.0,2.0,64.0
1886,80.0,45.0,60.0,4.0,64.0
1887,80.0,4.0,60.0,5.0,64.0
1888,54.0,102.0,120.0,6.0,64.0
1889,54.0,2.0,120.0,3.0,64.0
1890,56.0,3.0,90.0,3.0,64.0
1891,56.0,12.0,90.0,6.0,64.0
1892,78.0,1.0,90.0,0.0,64.0
1893,78.0,6.0,90.0,5.0,64.0
1894,78.0,137.0,90.0,4.0,64.0
1895,57.0,67.0,120.0,3.0,64.0
1896,85.0,164.0,600.0,0.0,64.0
1897,57.0,2.0,120.0,6.0,64.0
1898,78.0,23.0,180.0,2.0,64.0
1899,73.0,18.0,180.0,1.0,64.0
1900,85.0,5.0,600.0,5.0,64.0
1901,85.0,9.0,570.0,4.0,64.0
1902,59.0,37.0,120.0,3.0,64.0
1903,59.0,70.0,150.0,6.0,64.0
1904,57.0,82.0,120.0,6.0,64.0
1905,57.0,5.0,90.0,3.0,64.0
1906,78.0,7.0,90.0,1.0,64.0
1907,73.0,2.0,90.0,2.0,64.0
1908,71.0,16.0,120.0,2.0,64.0
1909,56.0,10.0,90.0,3.0,64.0
1910,56.0,122.0,120.0,6.0,64.0
1911,77.0,11.0,60.0,1.0,64.0
1912,78.0,31.0,1560.0,1.0,64.0
1913,69.0,9.0,120.0,2.0,64.0
1914,54.0,4.0,120.0,3.0,64.0
1915,54.0,2.0,120.0,6.0,64.0
1916,73.0,29.0,60.0,2.0,64.0
1917,64.0,14.0,90.0,6.0,64.0
1918,64.0,9.0,90.0,3.0,64.0
1919,83.0,76.0,120.0,4.0,64.0
1920,83.0,1.0,60.0,5.0,64.0
1921,83.0,10.0,90.0,0.0,64.0
1922,81.0,6.0,90.0,4.0,64.0
1923,81.0,4.0,90.0,0.0,64.0
1924,81.0,103.0,90.0,5.0,64.0
1925,66.0,40.0,90.0,2.0,64.0
1926,83.0,41.0,180.0,4.0,64.0
1927,83.0,66.0,240.0,0.0,64.0
1928,62.0,66.0,120.0,6.0,64.0
1929,62.0,13.0,90.0,3.0,64.0
1930,83.0,26.0,210.0,5.0,64.0
1931,70.0,11.0,90.0,2.0,64.0
1932,61.0,7.0,90.0,3.0,64.0
1933,61.0,56.0,90.0,6.0,64.0
1934,85.0,19.0,60.0,5.0,64.0
1935,85.0,4.0,60.0,0.0,64.0
1936,85.0,186.0,60.0,4.0,64.0
1937,86.0,4.0,270.0,5.0,64.0
1938,59.0,5.0,120.0,3.0,64.0
1939,59.0,89.0,120.0,6.0,64.0
1940,86.0,59.0,270.0,0.0,64.0
1941,71.0,53.0,510.0,2.0,64.0
1942,86.0,16.0,240.0,4.0,64.0
1943,57.0,19.0,90.0,3.0,64.0
1944,57.0,16.0,120.0,6.0,64.0
1945,59.0,14.0,90.0,3.0,64.0
1946,59.0,59.0,120.0,6.0,64.0
1947,85.0,4.0,60.0,4.0,64.0
1948,85.0,1.0,60.0,5.0,64.0
1949,61.0,43.0,120.0,3.0,64.0
1950,61.0,4.0,120.0,6.0,64.0
1951,85.0,62.0,60.0,0.0,64.0
1952,83.0,0.0,180.0,5.0,64.0
1953,62.0,8.0,120.0,6.0,64.0
1954,83.0,1.0,180.0,0.0,64.0
1955,62.0,62.0,120.0,3.0,64.0
1956,83.0,117.0,180.0,4.0,64.0
1957,73.0,18.0,90.0,2.0,64.0
1958,81.0,11.0,60.0,4.0,64.0
1959,53.0,9.0,120.0,3.0,64.0
1960,53.0,45.0,120.0,6.0,64.0
1961,81.0,15.0,90.0,0.0,64.0
1962,73.0,7.0,120.0,1.0,64.0
1963,81.0,0.0,60.0,5.0,64.0
1964,80.0,3.0,60.0,0.0,64.0
1965,80.0,12.0,90.0,4.0,64.0
1966,80.0,139.0,90.0,5.0,64.0
1967,81.0,17.0,240.0,0.0,64.0
1968,54.0,15.0,90.0,6.0,64.0
1969,66.0,2.0,90.0,2.0,64.0
1970,73.0,117.0,120.0,1.0,64.0
1971,81.0,21.0,240.0,4.0,64.0
1972,54.0,12.0,90.0,3.0,64.0
1973,81.0,57.0,270.0,5.0,64.0
1974,47.0,2.0,90.0,3.0,64.0
1975,62.0,13.0,90.0,2.0,64.0
1976,47.0,73.0,90.0,6.0,64.0
1977,71.0,7.0,90.0,1.0,64.0
1978,83.0,156.0,90.0,0.0,64.0
1979,83.0,6.0,60.0,4.0,64.0
1980,83.0,0.0,60.0,5.0,64.0
1981,78.0,2.0,150.0,0.0,64.0
1982,49.0,15.0,90.0,3.0,64.0
1983,61.0,4.0,480.0,2.0,64.0
1984,49.0,16.0,120.0,6.0,64.0
1985,68.0,57.0,630.0,1.0,64.0
1986,78.0,3.0,120.0,4.0,64.0
1987,78.0,103.0,120.0,5.0,64.0
1988,77.0,14.0,120.0,0.0,64.0
1989,77.0,62.0,150.0,4.0,64.0
1990,77.0,8.0,150.0,5.0,64.0
1991,75.0,11.0,120.0,0.0,64.0
1992,75.0,0.0,150.0,5.0,64.0
1993,75.0,123.0,150.0,4.0,64.0
1994,61.0,16.0,90.0,3.0,64.0
1995,61.0,16.0,120.0,6.0,64.0
1996,73.0,7.0,150.0,0.0,64.0
1997,73.0,64.0,150.0,5.0,64.0
1998,73.0,1.0,120.0,4.0,64.0
1999,59.0,13.0,90.0,3.0,64.0
2000,75.0,9.0,150.0,0.0,64.0
2001,75.0,1.0,150.0,4.0,64.0
2002,59.0,31.0,120.0,6.0,64.0
2003,75.0,17.0,150.0,5.0,64.0
2004,77.0,9.0,120.0,0.0,64.0
2005,77.0,7.0,90.0,4.0,64.0
2006,77.0,88.0,120.0,5.0,64.0
2007,57.0,10.0,120.0,3.0,64.0
2008,78.0,4.0,120.0,4.0,64.0
2009,78.0,55.0,120.0,5.0,64.0
2010,57.0,3.0,120.0,6.0,64.0
2011,78.0,2.0,120.0,0.0,64.0
2012,73.0,15.0,90.0,2.0,64.0
2013,78.0,4.0,90.0,1.0,64.0
2014,80.0,7.0,90.0,4.0,64.0
2015,80.0,1.0,90.0,0.0,64.0
2016,80.0,120.0,90.0,5.0,64.0
2017,81.0,12.0,90.0,4.0,64.0
2018,81.0,22.0,90.0,0.0,64.0
2019,59.0,0.0,120.0,3.0,64.0
2020,78.0,5.0,120.0,1.0,64.0
2021,74.0,5.0,120.0,2.0,64.0
2022,59.0,1.0,120.0,6.0,64.0
2023,81.0,6.0,90.0,5.0,64.0
2024,80.0,12.0,60.0,4.0,64.0
2025,80.0,22.0,60.0,0.0,64.0
2026,80.0,13.0,60.0,5.0,64.0
2027,81.0,15.0,60.0,4.0,64.0
2028,81.0,18.0,60.0,0.0,64.0
2029,81.0,4.0,30.0,5.0,64.0
2030,80.0,9.0,30.0,4.0,64.0
2031,80.0,19.0,30.0,0.0,64.0
2032,80.0,46.0,30.0,5.0,64.0
2033,81.0,0.0,60.0,4.0,64.0
2034,81.0,25.0,60.0,0.0,64.0
2035,61.0,4.0,120.0,6.0,64.0
2036,73.0,16.0,60.0,2.0,64.0
2037,61.0,3.0,90.0,3.0,64.0
2038,81.0,3.0,60.0,5.0,64.0
2039,77.0,2.0,90.0,1.0,64.0
2040,80.0,11.0,60.0,0.0,64.0
2041,80.0,69.0,90.0,4.0,64.0
2042,80.0,4.0,60.0,5.0,64.0
2043,78.0,9.0,90.0,0.0,64.0
2044,78.0,32.0,90.0,4.0,64.0
2045,78.0,6.0,90.0,5.0,64.0
2046,80.0,0.0,90.0,0.0,64.0
2047,80.0,2.0,60.0,5.0,64.0
2048,80.0,106.0,60.0,4.0,64.0
2049,81.0,7.0,270.0,0.0,64.0
2050,81.0,76.0,270.0,5.0,64.0
2051,54.0,153.0,120.0,6.0,64.0
2052,54.0,4.0,90.0,3.0,64.0
2053,81.0,1.0,240.0,4.0,64.0
2054,78.0,2.0,90.0,1.0,64.0
2055,73.0,2.0,60.0,2.0,64.0
2056,57.0,1.0,90.0,3.0,64.0
2057,57.0,76.0,90.0,6.0,64.0
2058,73.0,25.0,330.0,1.0,64.0
2059,66.0,11.0,300.0,2.0,64.0
2060,80.0,3.0,60.0,5.0,64.0
2061,80.0,2.0,60.0,4.0,64.0
2062,80.0,135.0,60.0,0.0,64.0
2063,51.0,17.0,120.0,6.0,64.0
2064,51.0,76.0,120.0,3.0,64.0
2065,78.0,105.0,210.0,0.0,64.0
2066,78.0,2.0,210.0,5.0,64.0
2067,78.0,6.0,180.0,4.0,64.0
2068,72.0,20.0,90.0,1.0,64.0
2069,76.0,7.0,90.0,0.0,64.0
2070,56.0,2.0,120.0,3.0,64.0
2071,76.0,8.0,90.0,5.0,64.0
2072,56.0,13.0,120.0,6.0,64.0
2073,76.0,16.0,120.0,4.0,64.0
2074,68.0,33.0,120.0,2.0,64.0
2075,75.0,6.0,90.0,0.0,64.0
2076,75.0,15.0,90.0,4.0,64.0
2077,57.0,104.0,90.0,6.0,64.0
2078,57.0,5.0,90.0,3.0,64.0
2079,75.0,3.0,60.0,5.0,64.0
2080,56.0,20.0,90.0,3.0,64.0
2081,56.0,67.0,120.0,6.0,64.0
2082,76.0,2.0,270.0,0.0,64.0
2083,73.0,6.0,240.0,1.0,64.0
2084,76.0,42.0,300.0,5.0,64.0
2085,76.0,14.0,270.0,4.0,64.0
2086,69.0,24.0,60.0,2.0,64.0
2087,68.0,9.0,60.0,2.0,64.0
2088,54.0,31.0,90.0,3.0,64.0
2089,54.0,7.0,120.0,6.0,64.0
2090,69.0,17.0,90.0,2.0,64.0
2091,68.0,18.0,90.0,2.0,64.0
2092,52.0,24.0,90.0,3.0,64.0
2093,52.0,53.0,120.0,6.0,64.0
2094,78.0,12.0,60.0,0.0,64.0
2095,51.0,1.0,90.0,6.0,64.0
2096,78.0,8.0,60.0,4.0,64.0
2097,51.0,139.0,90.0,3.0,64.0
2098,75.0,17.0,60.0,1.0,64.0
2099,78.0,3.0,60.0,5.0,64.0
2100,66.0,4.0,60.0,2.0,64.0
2101,80.0,8.0,270.0,0.0,64.0
2102,68.0,2.0,120.0,1.0,64.0
2103,52.0,35.0,120.0,6.0,64.0
2104,80.0,74.0,270.0,5.0,64.0
2105,80.0,10.0,270.0,4.0,64.0
2106,52.0,5.0,90.0,3.0,64.0
2107,73.0,109.0,150.0,2.0,64.0
2108,54.0,71.0,120.0,6.0,64.0
2109,73.0,2.0,120.0,1.0,64.0
2110,66.0,8.0,300.0,2.0,64.0
2111,54.0,5.0,90.0,3.0,64.0
2112,82.0,7.0,90.0,0.0,64.0
2113,82.0,110.0,90.0,4.0,64.0
2114,82.0,0.0,90.0,5.0,64.0
2115,84.0,9.0,90.0,0.0,64.0
2116,51.0,189.0,120.0,3.0,64.0
2117,75.0,4.0,120.0,1.0,64.0
2118,51.0,0.0,120.0,6.0,64.0
2119,84.0,29.0,60.0,4.0,64.0
2120,84.0,3.0,60.0,5.0,64.0
2121,49.0,8.0,120.0,3.0,64.0
2122,76.0,2.0,90.0,1.0,64.0
2123,85.0,2.0,60.0,0.0,64.0
2124,49.0,213.0,120.0,6.0,64.0
2125,85.0,11.0,60.0,5.0,64.0
2126,68.0,20.0,90.0,2.0,64.0
2127,85.0,18.0,60.0,4.0,64.0
2128,75.0,48.0,300.0,0.0,64.0
2129,48.0,4.0,90.0,3.0,64.0
2130,75.0,162.0,120.0,1.0,64.0
2131,75.0,2.0,270.0,4.0,64.0
2132,75.0,9.0,270.0,5.0,64.0
2133,48.0,0.0,90.0,6.0,64.0
2134,68.0,5.0,90.0,2.0,64.0
2135,49.0,56.0,120.0,6.0,64.0
2136,49.0,11.0,90.0,3.0,64.0
2137,73.0,18.0,90.0,1.0,64.0
2138,68.0,2.0,90.0,2.0,64.0
2139,76.0,7.0,90.0,0.0,64.0
2140,76.0,9.0,60.0,4.0,64.0
2141,76.0,123.0,60.0,5.0,64.0
2142,78.0,21.0,240.0,0.0,64.0
2143,46.0,127.0,120.0,6.0,64.0
2144,46.0,15.0,90.0,3.0,64.0
2145,78.0,6.0,240.0,4.0,64.0
2146,61.0,2.0,90.0,2.0,64.0
2147,73.0,18.0,60.0,1.0,64.0
2148,78.0,68.0,240.0,5.0,64.0
2149,48.0,11.0,90.0,3.0,64.0
2150,68.0,11.0,90.0,2.0,64.0
2151,75.0,123.0,360.0,1.0,64.0
2152,48.0,58.0,90.0,6.0,64.0
2153,80.0,14.0,60.0,0.0,64.0
2154,80.0,5.0,60.0,5.0,64.0
2155,80.0,166.0,60.0,4.0,64.0
2156,76.0,21.0,270.0,0.0,64.0
2157,49.0,0.0,120.0,6.0,64.0
2158,49.0,9.0,120.0,3.0,64.0
2159,68.0,3.0,120.0,2.0,64.0
2160,76.0,11.0,270.0,5.0,64.0
2161,76.0,55.0,270.0,4.0,64.0
2162,69.0,35.0,120.0,2.0,64.0
2163,73.0,18.0,120.0,1.0,64.0
2164,54.0,2.0,120.0,6.0,64.0
2165,54.0,9.0,90.0,3.0,64.0
2166,75.0,9.0,60.0,1.0,64.0
2167,75.0,10.0,60.0,0.0,64.0
2168,75.0,11.0,60.0,4.0,64.0
2169,75.0,103.0,60.0,5.0,64.0
2170,73.0,1.0,120.0,1.0,64.0
2171,56.0,4.0,90.0,6.0,64.0
2172,56.0,2.0,90.0,3.0,64.0
2173,76.0,5.0,60.0,4.0,64.0
2174,68.0,0.0,90.0,2.0,64.0
2175,76.0,28.0,60.0,5.0,64.0
2176,76.0,5.0,90.0,0.0,64.0
2177,75.0,23.0,60.0,4.0,64.0
2178,75.0,5.0,60.0,5.0,64.0
2179,72.0,35.0,30.0,1.0,64.0
2180,76.0,3.0,60.0,4.0,64.0
2181,76.0,28.0,60.0,5.0,64.0
2182,75.0,3.0,60.0,0.0,64.0
2183,73.0,31.0,60.0,1.0,64.0
2184,75.0,7.0,150.0,4.0,64.0
2185,75.0,1.0,150.0,5.0,64.0
2186,76.0,62.0,60.0,0.0,64.0
2187,72.0,4.0,150.0,1.0,64.0
2188,75.0,0.0,120.0,0.0,64.0
2189,44.0,7.0,60.0,3.0,64.0
2190,44.0,64.0,90.0,6.0,64.0
2191,66.0,20.0,60.0,2.0,64.0
2192,68.0,18.0,60.0,1.0,64.0
2193,73.0,3.0,90.0,0.0,64.0
2194,73.0,174.0,60.0,5.0,64.0
2195,73.0,0.0,60.0,4.0,64.0
2196,73.0,115.0,600.0,0.0,64.0
2197,49.0,98.0,120.0,3.0,64.0
2198,49.0,12.0,120.0,6.0,64.0
2199,68.0,12.0,540.0,1.0,64.0
2200,73.0,15.0,540.0,5.0,64.0
2201,73.0,8.0,510.0,4.0,64.0
2202,64.0,2.0,540.0,2.0,64.0
2203,48.0,6.0,120.0,6.0,64.0
2204,48.0,130.0,120.0,3.0,64.0
2205,49.0,15.0,120.0,6.0,64.0
2206,49.0,111.0,120.0,3.0,64.0
2207,51.0,11.0,120.0,6.0,64.0
2208,51.0,44.0,120.0,3.0,64.0
2209,52.0,1.0,90.0,6.0,64.0
2210,52.0,18.0,90.0,3.0,64.0
2211,75.0,59.0,120.0,4.0,64.0
2212,75.0,1.0,120.0,5.0,64.0
2213,66.0,8.0,120.0,2.0,64.0
2214,75.0,7.0,120.0,0.0,64.0
2215,64.0,29.0,90.0,2.0,64.0
2216,76.0,32.0,150.0,4.0,64.0
2217,76.0,11.0,150.0,0.0,64.0
2218,76.0,0.0,90.0,5.0,64.0
2219,73.0,17.0,120.0,1.0,64.0
2220,56.0,7.0,90.0,6.0,64.0
2221,56.0,11.0,90.0,3.0,64.0
2222,63.0,19.0,90.0,2.0,64.0
2223,78.0,7.0,90.0,0.0,64.0
2224,78.0,11.0,90.0,4.0,64.0
2225,78.0,104.0,120.0,5.0,64.0
2226,75.0,25.0,90.0,1.0,64.0
2227,61.0,6.0,120.0,2.0,64.0
2228,80.0,7.0,120.0,0.0,64.0
2229,80.0,0.0,120.0,4.0,64.0
2230,80.0,62.0,120.0,5.0,64.0
2231,76.0,9.0,90.0,1.0,64.0
2232,61.0,2.0,180.0,3.0,64.0
2233,61.0,22.0,210.0,6.0,64.0
2234,81.0,7.0,120.0,5.0,64.0
2235,75.0,16.0,120.0,1.0,64.0
2236,81.0,9.0,90.0,0.0,64.0
2237,81.0,6.0,90.0,4.0,64.0
2238,83.0,9.0,60.0,4.0,64.0
2239,83.0,21.0,90.0,5.0,64.0
2240,83.0,24.0,60.0,0.0,64.0
2241,76.0,0.0,90.0,1.0,64.0
2242,59.0,6.0,90.0,3.0,64.0
2243,59.0,26.0,90.0,6.0,64.0
2244,81.0,2.0,150.0,4.0,64.0
2245,73.0,1.0,90.0,2.0,64.0
2246,81.0,16.0,60.0,0.0,64.0
2247,81.0,14.0,60.0,5.0,64.0
2248,83.0,4.0,60.0,4.0,64.0
2249,83.0,22.0,60.0,5.0,64.0
2250,83.0,5.0,60.0,0.0,64.0
2251,78.0,16.0,90.0,1.0,64.0
2252,81.0,14.0,60.0,0.0,64.0
2253,81.0,6.0,60.0,5.0,64.0
2254,57.0,0.0,90.0,3.0,64.0
2255,57.0,7.0,90.0,6.0,64.0
2256,80.0,10.0,90.0,4.0,64.0
2257,80.0,22.0,90.0,0.0,64.0
2258,80.0,23.0,30.0,5.0,64.0
2259,81.0,73.0,60.0,4.0,64.0
2260,81.0,0.0,60.0,0.0,64.0
2261,83.0,46.0,300.0,5.0,64.0
2262,80.0,2.0,90.0,1.0,64.0
2263,56.0,15.0,90.0,6.0,64.0
2264,56.0,43.0,90.0,3.0,64.0
2265,83.0,15.0,240.0,0.0,64.0
2266,71.0,66.0,150.0,2.0,64.0
2267,83.0,7.0,270.0,4.0,64.0
2268,54.0,4.0,120.0,6.0,64.0
2269,54.0,38.0,120.0,3.0,64.0
2270,56.0,58.0,120.0,6.0,64.0
2271,56.0,9.0,90.0,3.0,64.0
2272,76.0,9.0,90.0,1.0,64.0
2273,59.0,9.0,90.0,2.0,64.0
2274,81.0,2.0,60.0,5.0,64.0
2275,57.0,12.0,90.0,3.0,64.0
2276,81.0,2.0,60.0,4.0,64.0
2277,81.0,24.0,60.0,0.0,64.0
2278,57.0,2.0,90.0,6.0,64.0
2279,61.0,122.0,90.0,2.0,64.0
2280,80.0,28.0,210.0,5.0,64.0
2281,59.0,2.0,120.0,3.0,64.0
2282,71.0,11.0,120.0,1.0,64.0
2283,80.0,115.0,240.0,4.0,64.0
2284,80.0,3.0,180.0,0.0,64.0
2285,59.0,82.0,120.0,6.0,64.0
2286,62.0,11.0,90.0,2.0,64.0
2287,52.0,6.0,120.0,3.0,64.0
2288,78.0,51.0,150.0,5.0,64.0
2289,68.0,2.0,120.0,1.0,64.0
2290,78.0,3.0,120.0,0.0,64.0
2291,52.0,1.0,120.0,6.0,64.0
2292,78.0,9.0,90.0,4.0,64.0
2293,59.0,13.0,120.0,2.0,64.0
2294,76.0,117.0,120.0,0.0,64.0
2295,76.0,3.0,90.0,5.0,64.0
2296,76.0,29.0,90.0,4.0,64.0
2297,69.0,7.0,90.0,1.0,64.0
2298,74.0,5.0,90.0,0.0,64.0
2299,74.0,10.0,120.0,5.0,64.0
2300,74.0,5.0,120.0,4.0,64.0
2301,54.0,5.0,90.0,3.0,64.0
2302,54.0,75.0,120.0,6.0,64.0
2303,66.0,2.0,90.0,2.0,64.0
2304,73.0,32.0,120.0,0.0,64.0
2305,73.0,66.0,150.0,5.0,64.0
2306,73.0,15.0,90.0,4.0,64.0
2307,74.0,0.0,120.0,0.0,64.0
2308,74.0,1.0,120.0,5.0,64.0
2309,74.0,86.0,120.0,4.0,64.0
2310,56.0,9.0,60.0,3.0,64.0
2311,64.0,12.0,90.0,2.0,64.0
2312,71.0,7.0,90.0,1.0,64.0
2313,56.0,6.0,60.0,6.0,64.0
2314,71.0,163.0,120.0,0.0,64.0
2315,71.0,3.0,90.0,5.0,64.0
2316,71.0,12.0,90.0,4.0,64.0
2317,73.0,2.0,300.0,0.0,64.0
2318,73.0,62.0,300.0,5.0,64.0
2319,73.0,16.0,300.0,4.0,64.0
2320,69.0,4.0,570.0,1.0,64.0
2321,57.0,11.0,120.0,3.0,64.0
2322,57.0,101.0,120.0,6.0,64.0
2323,64.0,8.0,540.0,2.0,64.0
2324,56.0,0.0,120.0,3.0,64.0
2325,56.0,47.0,120.0,6.0,64.0
2326,57.0,19.0,120.0,3.0,64.0
2327,57.0,32.0,150.0,6.0,64.0
2328,71.0,8.0,60.0,0.0,64.0
2329,71.0,12.0,90.0,4.0,64.0
2330,59.0,22.0,90.0,3.0,64.0
2331,71.0,19.0,60.0,5.0,64.0
2332,59.0,78.0,120.0,6.0,64.0
2333,61.0,11.0,120.0,3.0,64.0
2334,69.0,1.0,120.0,4.0,64.0
2335,69.0,12.0,90.0,0.0,64.0
2336,61.0,92.0,120.0,6.0,64.0
2337,69.0,22.0,90.0,5.0,64.0
2338,62.0,21.0,120.0,3.0,64.0
2339,62.0,55.0,120.0,6.0,64.0
2340,61.0,109.0,150.0,6.0,64.0
2341,61.0,28.0,120.0,3.0,64.0
2342,65.0,12.0,90.0,2.0,64.0
2343,68.0,0.0,90.0,1.0,64.0
2344,73.0,7.0,60.0,4.0,64.0
2345,73.0,13.0,60.0,0.0,64.0
2346,73.0,6.0,60.0,5.0,64.0
2347,59.0,1.0,150.0,3.0,64.0
2348,59.0,92.0,120.0,6.0,64.0
2349,57.0,11.0,120.0,3.0,64.0
2350,57.0,93.0,120.0,6.0,64.0
2351,78.0,8.0,240.0,0.0,64.0
2352,78.0,42.0,270.0,4.0,64.0
2353,73.0,2.0,90.0,1.0,64.0
2354,66.0,11.0,90.0,2.0,64.0
2355,78.0,17.0,240.0,5.0,64.0
2356,56.0,39.0,120.0,6.0,64.0
2357,56.0,7.0,120.0,3.0,64.0
2358,54.0,9.0,120.0,3.0,64.0
2359,54.0,65.0,120.0,6.0,64.0
2360,61.0,13.0,90.0,2.0,64.0
2361,73.0,7.0,60.0,1.0,64.0
2362,80.0,9.0,90.0,0.0,64.0
2363,53.0,112.0,120.0,6.0,64.0
2364,80.0,25.0,60.0,4.0,64.0
2365,53.0,2.0,90.0,3.0,64.0
2366,80.0,3.0,60.0,5.0,64.0
2367,81.0,3.0,270.0,0.0,64.0
2368,54.0,14.0,90.0,3.0,64.0
2369,73.0,19.0,480.0,1.0,64.0
2370,81.0,5.0,240.0,4.0,64.0
2371,54.0,150.0,90.0,6.0,64.0
2372,81.0,74.0,240.0,5.0,64.0
2373,66.0,69.0,480.0,2.0,64.0
2374,56.0,13.0,90.0,3.0,64.0
2375,56.0,71.0,90.0,6.0,64.0
2376,83.0,14.0,60.0,0.0,64.0
2377,83.0,5.0,90.0,4.0,64.0
2378,83.0,55.0,90.0,5.0,64.0
2379,85.0,14.0,150.0,0.0,64.0
2380,57.0,33.0,120.0,6.0,64.0
2381,85.0,1.0,150.0,4.0,64.0
2382,57.0,13.0,90.0,3.0,64.0
2383,85.0,107.0,150.0,5.0,64.0
2384,83.0,23.0,150.0,4.0,64.0
2385,83.0,5.0,150.0,0.0,64.0
2386,83.0,17.0,180.0,5.0,64.0
2387,66.0,31.0,90.0,2.0,64.0
2388,73.0,2.0,90.0,1.0,64.0
2389,54.0,9.0,120.0,3.0,64.0
2390,81.0,11.0,180.0,4.0,64.0
2391,81.0,12.0,150.0,0.0,64.0
2392,54.0,35.0,120.0,6.0,64.0
2393,81.0,63.0,150.0,5.0,64.0
2394,80.0,2.0,120.0,4.0,64.0
2395,80.0,17.0,120.0,0.0,64.0
2396,80.0,77.0,120.0,5.0,64.0
2397,78.0,5.0,120.0,4.0,64.0
2398,78.0,5.0,120.0,0.0,64.0
2399,68.0,10.0,90.0,1.0,64.0
2400,56.0,14.0,120.0,3.0,64.0
2401,59.0,0.0,90.0,2.0,64.0
2402,78.0,21.0,120.0,5.0,64.0
2403,56.0,73.0,120.0,6.0,64.0
2404,76.0,7.0,120.0,0.0,64.0
2405,76.0,27.0,150.0,4.0,64.0
2406,76.0,63.0,150.0,5.0,64.0
2407,75.0,1.0,120.0,4.0,64.0
2408,75.0,2.0,120.0,0.0,64.0
2409,66.0,31.0,90.0,1.0,64.0
2410,57.0,2.0,120.0,3.0,64.0
2411,75.0,26.0,120.0,5.0,64.0
2412,57.0,12.0,90.0,6.0,64.0
2413,61.0,2.0,90.0,2.0,64.0
2414,76.0,9.0,60.0,0.0,64.0
2415,76.0,36.0,60.0,4.0,64.0
2416,76.0,72.0,60.0,5.0,64.0
2417,76.0,15.0,60.0,0.0,64.0
2418,76.0,26.0,60.0,4.0,64.0
2419,59.0,7.0,90.0,3.0,64.0
2420,59.0,6.0,120.0,6.0,64.0
2421,66.0,10.0,390.0,1.0,64.0
2422,59.0,10.0,120.0,2.0,64.0
2423,76.0,10.0,60.0,5.0,64.0
2424,75.0,13.0,60.0,0.0,64.0
2425,75.0,11.0,60.0,4.0,64.0
2426,75.0,22.0,60.0,5.0,64.0
2427,76.0,10.0,60.0,0.0,64.0
2428,76.0,32.0,60.0,4.0,64.0
2429,58.0,104.0,120.0,2.0,64.0
2430,76.0,30.0,60.0,5.0,64.0
2431,75.0,6.0,210.0,0.0,64.0
2432,75.0,8.0,210.0,4.0,64.0
2433,75.0,1.0,180.0,5.0,64.0
2434,47.0,5.0,90.0,6.0,64.0
2435,59.0,38.0,120.0,2.0,64.0
2436,47.0,5.0,120.0,3.0,64.0
2437,76.0,11.0,60.0,0.0,64.0
2438,76.0,1.0,90.0,4.0,64.0
2439,76.0,26.0,60.0,5.0,64.0
2440,61.0,129.0,90.0,2.0,64.0
2441,78.0,31.0,180.0,0.0,64.0
2442,78.0,106.0,210.0,5.0,64.0
2443,78.0,12.0,180.0,4.0,64.0
2444,63.0,9.0,90.0,2.0,64.0
2445,59.0,10.0,90.0,6.0,64.0
2446,59.0,49.0,120.0,3.0,64.0
2447,71.0,8.0,360.0,1.0,64.0
2448,64.0,28.0,90.0,2.0,64.0
2449,61.0,3.0,90.0,3.0,64.0
2450,61.0,9.0,120.0,6.0,64.0
2451,76.0,76.0,120.0,0.0,64.0
2452,76.0,8.0,90.0,5.0,64.0
2453,76.0,3.0,90.0,4.0,64.0
2454,75.0,133.0,120.0,0.0,64.0
2455,75.0,3.0,90.0,5.0,64.0
2456,75.0,3.0,90.0,4.0,64.0
2457,59.0,5.0,120.0,3.0,64.0
2458,66.0,22.0,300.0,2.0,64.0
2459,59.0,11.0,120.0,6.0,64.0
2460,73.0,8.0,120.0,5.0,64.0
2461,73.0,0.0,120.0,0.0,64.0
2462,73.0,81.0,120.0,4.0,64.0
2463,63.0,2.0,300.0,1.0,64.0
2464,71.0,32.0,120.0,5.0,64.0
2465,71.0,4.0,120.0,0.0,64.0
2466,71.0,52.0,120.0,4.0,64.0
2467,73.0,30.0,120.0,5.0,64.0
2468,57.0,2.0,90.0,6.0,64.0
2469,57.0,19.0,90.0,3.0,64.0
2470,73.0,4.0,120.0,4.0,64.0
2471,73.0,47.0,120.0,0.0,64.0
2472,75.0,12.0,90.0,5.0,64.0
2473,75.0,71.0,90.0,0.0,64.0
2474,75.0,1.0,60.0,4.0,64.0
2475,56.0,4.0,120.0,6.0,64.0
2476,76.0,4.0,120.0,4.0,64.0
2477,76.0,8.0,90.0,5.0,64.0
2478,56.0,2.0,120.0,3.0,64.0
2479,76.0,12.0,120.0,0.0,64.0
2480,68.0,102.0,120.0,2.0,64.0
2481,75.0,72.0,20.0,0.0,64.0
2482,71.0,58.0,360.0,1.0,64.0
2483,75.0,93.0,120.0,5.0,64.0
2484,66.0,3.0,120.0,2.0,64.0
2485,75.0,1.0,120.0,4.0,64.0
2486,75.0,3.0,120.0,0.0,64.0
2487,76.0,6.0,120.0,0.0,64.0
2488,68.0,7.0,120.0,2.0,64.0
2489,76.0,7.0,120.0,4.0,64.0
2490,76.0,14.0,90.0,5.0,64.0
2491,54.0,11.0,120.0,6.0,64.0
2492,54.0,3.0,120.0,3.0,64.0
2493,69.0,161.0,120.0,2.0,64.0
2494,78.0,12.0,90.0,0.0,64.0
2495,78.0,1.0,90.0,5.0,64.0
2496,78.0,9.0,90.0,4.0,64.0
2497,80.0,97.0,210.0,0.0,64.0
2498,71.0,20.0,210.0,2.0,64.0
2499,52.0,8.0,150.0,6.0,64.0
2500,52.0,35.0,150.0,3.0,64.0
2501,80.0,5.0,180.0,4.0,64.0
2502,80.0,1.0,180.0,5.0,64.0
2503,76.0,27.0,300.0,1.0,64.0
2504,64.0,65.0,120.0,6.0,64.0
2505,64.0,4.0,90.0,3.0,64.0
2506,73.0,2.0,90.0,2.0,64.0
2507,81.0,9.0,60.0,4.0,64.0
2508,81.0,105.0,60.0,0.0,64.0
2509,81.0,1.0,60.0,5.0,64.0
2510,71.0,2.0,60.0,2.0,64.0
2511,76.0,5.0,60.0,1.0,64.0
2512,59.0,55.0,120.0,6.0,64.0
2513,80.0,0.0,60.0,4.0,64.0
2514,80.0,15.0,60.0,5.0,64.0
2515,59.0,0.0,90.0,3.0,64.0
2516,80.0,24.0,60.0,0.0,64.0
2517,75.0,1.0,60.0,1.0,64.0
2518,78.0,2.0,60.0,4.0,64.0
2519,78.0,1.0,60.0,5.0,64.0
2520,69.0,14.0,30.0,2.0,64.0
2521,78.0,11.0,210.0,0.0,64.0
2522,76.0,1.0,90.0,1.0,64.0
2523,71.0,49.0,90.0,2.0,64.0
2524,80.0,2.0,60.0,4.0,64.0
2525,80.0,5.0,60.0,0.0,64.0
2526,80.0,5.0,60.0,5.0,64.0
2527,69.0,0.0,150.0,2.0,64.0
2528,75.0,39.0,120.0,1.0,64.0
2529,78.0,2.0,60.0,5.0,64.0
2530,78.0,34.0,60.0,4.0,64.0
2531,61.0,9.0,60.0,3.0,64.0
2532,61.0,96.0,60.0,6.0,64.0
2533,76.0,15.0,60.0,1.0,64.0
2534,68.0,6.0,60.0,2.0,64.0
2535,76.0,12.0,60.0,0.0,64.0
2536,76.0,124.0,90.0,4.0,64.0
2537,76.0,11.0,60.0,5.0,64.0
2538,56.0,78.0,150.0,3.0,64.0
2539,68.0,17.0,120.0,2.0,64.0
2540,76.0,22.0,90.0,1.0,64.0
2541,83.0,37.0,630.0,0.0,64.0
2542,56.0,9.0,120.0,6.0,64.0
2543,83.0,2.0,630.0,5.0,64.0
2544,83.0,36.0,600.0,4.0,64.0
2545,75.0,4.0,120.0,1.0,64.0
2546,54.0,2.0,120.0,3.0,64.0
2547,69.0,87.0,150.0,2.0,64.0
2548,54.0,20.0,120.0,6.0,64.0
2549,76.0,6.0,120.0,1.0,64.0
2550,56.0,3.0,120.0,6.0,64.0
2551,56.0,53.0,120.0,3.0,64.0
2552,68.0,20.0,120.0,2.0,64.0
2553,78.0,20.0,90.0,1.0,64.0
2554,57.0,139.0,120.0,6.0,64.0
2555,66.0,9.0,60.0,2.0,64.0
2556,57.0,4.0,90.0,3.0,64.0
2557,80.0,10.0,240.0,1.0,64.0
2558,59.0,4.0,120.0,3.0,64.0
2559,59.0,5.0,120.0,6.0,64.0
2560,64.0,7.0,120.0,2.0,64.0
2561,61.0,84.0,120.0,6.0,64.0
2562,61.0,8.0,90.0,3.0,64.0
2563,62.0,2.0,120.0,3.0,64.0
2564,62.0,2.0,120.0,6.0,64.0
2565,71.0,9.0,120.0,2.0,64.0
2566,81.0,7.0,90.0,0.0,64.0
2567,78.0,35.0,60.0,1.0,64.0
2568,81.0,6.0,90.0,4.0,64.0
2569,81.0,65.0,90.0,5.0,64.0
2570,80.0,18.0,90.0,0.0,64.0
2571,76.0,0.0,90.0,1.0,64.0
2572,80.0,10.0,90.0,4.0,64.0
2573,80.0,134.0,90.0,5.0,64.0
2574,73.0,2.0,120.0,2.0,64.0
2575,81.0,6.0,240.0,0.0,64.0
2576,61.0,16.0,120.0,3.0,64.0
2577,61.0,108.0,120.0,6.0,64.0
2578,78.0,75.0,240.0,1.0,64.0
2579,81.0,4.0,240.0,4.0,64.0
2580,81.0,14.0,240.0,5.0,64.0
2581,74.0,20.0,90.0,2.0,64.0
2582,59.0,11.0,120.0,6.0,64.0
2583,59.0,52.0,120.0,3.0,64.0
2584,83.0,7.0,90.0,0.0,64.0
2585,83.0,19.0,90.0,4.0,64.0
2586,80.0,124.0,90.0,1.0,64.0
2587,83.0,6.0,60.0,5.0,64.0
2588,85.0,23.0,270.0,0.0,64.0
2589,76.0,1.0,90.0,2.0,64.0
2590,85.0,11.0,270.0,5.0,64.0
2591,85.0,48.0,270.0,4.0,64.0
2592,81.0,37.0,90.0,1.0,64.0
2593,57.0,0.0,120.0,3.0,64.0
2594,57.0,115.0,120.0,6.0,64.0
2595,64.0,7.0,90.0,2.0,64.0
2596,73.0,40.0,390.0,1.0,64.0
2597,56.0,17.0,90.0,3.0,64.0
2598,56.0,63.0,90.0,6.0,64.0
2599,83.0,5.0,90.0,0.0,64.0
2600,83.0,162.0,90.0,4.0,64.0
2601,83.0,10.0,60.0,5.0,64.0
2602,81.0,13.0,210.0,0.0,64.0
2603,66.0,3.0,330.0,2.0,64.0
2604,81.0,99.0,240.0,5.0,64.0
2605,81.0,27.0,180.0,4.0,64.0
2606,54.0,11.0,90.0,6.0,64.0
2607,54.0,24.0,120.0,3.0,64.0
2608,80.0,12.0,90.0,0.0,64.0
2609,80.0,2.0,90.0,4.0,64.0
2610,75.0,2.0,90.0,1.0,64.0
2611,80.0,32.0,90.0,5.0,64.0
2612,59.0,44.0,120.0,3.0,64.0
2613,59.0,3.0,120.0,6.0,64.0
2614,78.0,17.0,90.0,0.0,64.0
2615,78.0,1.0,90.0,4.0,64.0
2616,78.0,10.0,90.0,5.0,64.0
2617,61.0,46.0,90.0,3.0,64.0
2618,61.0,76.0,120.0,6.0,64.0
2619,59.0,4.0,150.0,3.0,64.0
2620,71.0,36.0,90.0,2.0,64.0
2621,80.0,7.0,240.0,0.0,64.0
2622,80.0,6.0,240.0,5.0,64.0
2623,80.0,20.0,240.0,4.0,64.0
2624,59.0,86.0,120.0,6.0,64.0
2625,76.0,47.0,270.0,1.0,64.0
2626,57.0,27.0,120.0,3.0,64.0
2627,57.0,0.0,120.0,6.0,64.0
2628,56.0,33.0,120.0,3.0,64.0
2629,69.0,47.0,120.0,2.0,64.0
2630,56.0,4.0,90.0,6.0,64.0
2631,54.0,7.0,120.0,3.0,64.0
2632,81.0,4.0,60.0,0.0,64.0
2633,81.0,0.0,60.0,5.0,64.0
2634,81.0,11.0,60.0,4.0,64.0
2635,78.0,20.0,60.0,1.0,64.0
2636,54.0,100.0,90.0,6.0,64.0
2637,56.0,15.0,90.0,3.0,64.0
2638,83.0,21.0,270.0,0.0,64.0
2639,68.0,11.0,120.0,2.0,64.0
2640,83.0,52.0,270.0,5.0,64.0
2641,83.0,1.0,270.0,4.0,64.0
2642,56.0,35.0,90.0,6.0,64.0
2643,76.0,7.0,60.0,1.0,64.0
2644,75.0,60.0,60.0,1.0,64.0
2645,76.0,50.0,60.0,1.0,64.0
2646,75.0,56.0,150.0,1.0,64.0
2647,66.0,0.0,90.0,2.0,64.0
2648,59.0,2.0,90.0,3.0,64.0
2649,59.0,8.0,90.0,6.0,64.0
2650,76.0,17.0,60.0,1.0,64.0
2651,81.0,8.0,60.0,5.0,64.0
2652,81.0,144.0,60.0,0.0,64.0
2653,81.0,2.0,60.0,4.0,64.0
2654,76.0,22.0,180.0,1.0,64.0
2655,64.0,9.0,90.0,2.0,64.0
2656,80.0,20.0,90.0,5.0,64.0
2657,80.0,6.0,120.0,0.0,64.0
2658,64.0,4.0,120.0,3.0,64.0
2659,80.0,16.0,120.0,4.0,64.0
2660,64.0,24.0,150.0,6.0,64.0
2661,78.0,21.0,90.0,5.0,64.0
2662,78.0,4.0,90.0,0.0,64.0
2663,63.0,9.0,90.0,3.0,64.0
2664,78.0,40.0,90.0,4.0,64.0
2665,63.0,55.0,120.0,6.0,64.0
2666,61.0,33.0,150.0,3.0,64.0
2667,68.0,16.0,90.0,2.0,64.0
2668,80.0,4.0,120.0,0.0,64.0
2669,80.0,10.0,90.0,5.0,64.0
2670,80.0,3.0,90.0,4.0,64.0
2671,76.0,16.0,90.0,1.0,64.0
2672,61.0,32.0,150.0,6.0,64.0
2673,59.0,17.0,120.0,3.0,64.0
2674,76.0,14.0,90.0,5.0,64.0
2675,76.0,13.0,90.0,0.0,64.0
2676,76.0,3.0,90.0,4.0,64.0
2677,59.0,78.0,120.0,6.0,64.0
2678,57.0,9.0,120.0,3.0,64.0
2679,57.0,12.0,120.0,6.0,64.0
2680,75.0,26.0,90.0,1.0,64.0
2681,78.0,35.0,270.0,5.0,64.0
2682,69.0,3.0,240.0,2.0,64.0
2683,78.0,5.0,240.0,4.0,64.0
2684,78.0,0.0,240.0,0.0,64.0
2685,73.0,61.0,60.0,1.0,64.0
2686,56.0,14.0,120.0,3.0,64.0
2687,56.0,30.0,120.0,6.0,64.0
2688,75.0,29.0,60.0,1.0,64.0
2689,73.0,34.0,120.0,1.0,64.0
2690,54.0,8.0,120.0,3.0,64.0
2691,54.0,79.0,120.0,6.0,64.0
2692,52.0,12.0,120.0,3.0,64.0
2693,52.0,130.0,120.0,6.0,64.0
2694,80.0,13.0,90.0,4.0,64.0
2695,80.0,2.0,60.0,5.0,64.0
2696,80.0,1.0,60.0,0.0,64.0
2697,73.0,6.0,60.0,1.0,64.0
2698,68.0,0.0,60.0,2.0,64.0
2699,81.0,26.0,240.0,0.0,64.0
2700,54.0,31.0,120.0,3.0,64.0
2701,73.0,13.0,150.0,1.0,64.0
2702,54.0,20.0,90.0,6.0,64.0
2703,81.0,16.0,270.0,5.0,64.0
2704,81.0,40.0,270.0,4.0,64.0
2705,66.0,60.0,150.0,2.0,64.0
2706,71.0,13.0,90.0,1.0,64.0
2707,64.0,71.0,90.0,2.0,64.0
2708,69.0,7.0,180.0,1.0,64.0
2709,61.0,5.0,120.0,3.0,64.0
2710,61.0,17.0,120.0,6.0,64.0
2711,63.0,7.0,90.0,2.0,64.0
2712,80.0,2.0,60.0,0.0,64.0
2713,80.0,0.0,60.0,5.0,64.0
2714,80.0,55.0,60.0,4.0,64.0
2715,59.0,31.0,120.0,3.0,64.0
2716,59.0,75.0,150.0,6.0,64.0
2717,71.0,2.0,90.0,1.0,64.0
2718,61.0,6.0,120.0,2.0,64.0
2719,57.0,10.0,150.0,3.0,64.0
2720,78.0,8.0,120.0,5.0,64.0
2721,78.0,18.0,120.0,0.0,64.0
2722,57.0,28.0,150.0,6.0,64.0
2723,78.0,10.0,150.0,4.0,64.0
2724,73.0,24.0,180.0,1.0,64.0
2725,76.0,14.0,90.0,0.0,64.0
2726,56.0,20.0,120.0,3.0,64.0
2727,76.0,7.0,120.0,5.0,64.0
2728,76.0,2.0,90.0,4.0,64.0
2729,56.0,61.0,120.0,6.0,64.0
2730,75.0,4.0,150.0,0.0,64.0
2731,75.0,81.0,150.0,5.0,64.0
2732,54.0,2.0,120.0,3.0,64.0
2733,66.0,18.0,90.0,2.0,64.0
2734,69.0,16.0,90.0,1.0,64.0
2735,54.0,9.0,90.0,6.0,64.0
2736,75.0,6.0,120.0,4.0,64.0
2737,52.0,29.0,150.0,3.0,64.0
2738,76.0,2.0,120.0,0.0,64.0
2739,68.0,6.0,120.0,1.0,64.0
2740,52.0,49.0,150.0,6.0,64.0
2741,76.0,4.0,120.0,5.0,64.0
2742,76.0,12.0,90.0,4.0,64.0
2743,51.0,1.0,120.0,3.0,64.0
2744,59.0,21.0,90.0,2.0,64.0
2745,51.0,11.0,150.0,6.0,64.0
2746,78.0,17.0,120.0,0.0,64.0
2747,69.0,16.0,90.0,1.0,64.0
2748,78.0,2.0,120.0,5.0,64.0
2749,78.0,83.0,120.0,4.0,64.0
2750,49.0,2.0,150.0,3.0,64.0
2751,75.0,4.0,120.0,0.0,64.0
2752,75.0,8.0,120.0,5.0,64.0
2753,49.0,76.0,120.0,6.0,64.0
2754,75.0,11.0,120.0,4.0,64.0
2755,47.0,0.0,120.0,3.0,64.0
2756,76.0,25.0,120.0,0.0,64.0
2757,47.0,18.0,150.0,6.0,64.0
2758,76.0,8.0,120.0,5.0,64.0
2759,64.0,7.0,90.0,2.0,64.0
2760,76.0,15.0,120.0,4.0,64.0
2761,73.0,0.0,90.0,1.0,64.0
2762,78.0,24.0,90.0,0.0,64.0
2763,45.0,7.0,60.0,3.0,64.0
2764,78.0,2.0,90.0,5.0,64.0
2765,45.0,0.0,60.0,6.0,64.0
2766,78.0,328.0,60.0,4.0,64.0
2767,57.0,39.0,570.0,3.0,64.0
2768,71.0,29.0,300.0,0.0,64.0
2769,71.0,6.0,300.0,5.0,64.0
2770,71.0,175.0,300.0,4.0,64.0
2771,57.0,7.0,570.0,6.0,64.0
2772,63.0,21.0,480.0,2.0,64.0
2773,66.0,6.0,510.0,1.0,64.0
2774,73.0,6.0,120.0,0.0,64.0
2775,73.0,1.0,120.0,4.0,64.0
2776,73.0,19.0,120.0,5.0,64.0
2777,75.0,6.0,120.0,0.0,64.0
2778,75.0,1.0,90.0,5.0,64.0
2779,75.0,119.0,120.0,4.0,64.0
2780,76.0,10.0,120.0,5.0,64.0
2781,76.0,9.0,120.0,0.0,64.0
2782,76.0,70.0,120.0,4.0,64.0
2783,78.0,0.0,90.0,5.0,64.0
2784,78.0,75.0,120.0,0.0,64.0
2785,78.0,14.0,90.0,1.0,64.0
2786,78.0,9.0,120.0,4.0,64.0
2787,51.0,2.0,90.0,3.0,64.0
2788,59.0,4.0,90.0,2.0,64.0
2789,51.0,5.0,90.0,6.0,64.0
2790,80.0,113.0,90.0,0.0,64.0
2791,80.0,2.0,90.0,4.0,64.0
2792,80.0,9.0,60.0,5.0,64.0
2793,81.0,6.0,120.0,0.0,64.0
2794,81.0,5.0,90.0,4.0,64.0
2795,75.0,4.0,90.0,1.0,64.0
2796,81.0,8.0,90.0,5.0,64.0
2797,47.0,4.0,120.0,6.0,64.0
2798,66.0,12.0,90.0,2.0,64.0
2799,47.0,66.0,90.0,3.0,64.0
2800,78.0,117.0,90.0,0.0,64.0
2801,78.0,16.0,90.0,4.0,64.0
2802,78.0,3.0,60.0,5.0,64.0
2803,78.0,4.0,90.0,1.0,64.0
2804,83.0,4.0,120.0,0.0,64.0
2805,63.0,5.0,90.0,2.0,64.0
2806,83.0,27.0,90.0,4.0,64.0
2807,83.0,223.0,120.0,5.0,64.0
2808,51.0,1.0,120.0,6.0,64.0
2809,51.0,4.0,120.0,3.0,64.0
2810,59.0,93.0,180.0,2.0,64.0
2811,80.0,9.0,270.0,0.0,64.0
2812,52.0,4.0,120.0,6.0,64.0
2813,76.0,12.0,270.0,1.0,64.0
2814,52.0,44.0,120.0,3.0,64.0
2815,80.0,63.0,270.0,5.0,64.0
2816,80.0,16.0,270.0,4.0,64.0
2817,71.0,5.0,120.0,2.0,64.0
2818,47.0,2.0,120.0,6.0,64.0
2819,47.0,49.0,120.0,3.0,64.0
2820,75.0,1.0,90.0,1.0,64.0
2821,69.0,130.0,90.0,2.0,64.0
2822,78.0,1.0,90.0,0.0,64.0
2823,78.0,11.0,60.0,5.0,64.0
2824,78.0,23.0,60.0,4.0,64.0
2825,76.0,13.0,120.0,1.0,64.0
2826,76.0,4.0,120.0,5.0,64.0
2827,76.0,2.0,120.0,0.0,64.0
2828,76.0,9.0,120.0,4.0,64.0
2829,49.0,3.0,90.0,6.0,64.0
2830,68.0,64.0,120.0,2.0,64.0
2831,49.0,6.0,90.0,3.0,64.0
2832,75.0,6.0,90.0,0.0,64.0
2833,75.0,124.0,90.0,5.0,64.0
2834,75.0,10.0,90.0,4.0,64.0
2835,76.0,12.0,120.0,0.0,64.0
2836,76.0,4.0,90.0,4.0,64.0
2837,73.0,0.0,90.0,1.0,64.0
2838,76.0,8.0,120.0,5.0,64.0
2839,45.0,9.0,90.0,3.0,64.0
2840,45.0,2.0,90.0,6.0,64.0
2841,66.0,45.0,90.0,2.0,64.0
2842,73.0,17.0,90.0,0.0,64.0
2843,73.0,19.0,60.0,4.0,64.0
2844,73.0,107.0,90.0,5.0,64.0
2845,73.0,11.0,90.0,1.0,64.0
2846,76.0,12.0,120.0,4.0,64.0
2847,76.0,7.0,90.0,0.0,64.0
2848,68.0,5.0,60.0,2.0,64.0
2849,47.0,30.0,330.0,6.0,64.0
2850,47.0,15.0,330.0,3.0,64.0
2851,76.0,16.0,90.0,5.0,64.0
2852,66.0,4.0,60.0,2.0,64.0
2853,71.0,5.0,60.0,1.0,64.0
2854,75.0,10.0,60.0,0.0,64.0
2855,75.0,12.0,60.0,5.0,64.0
2856,75.0,16.0,30.0,4.0,64.0
2857,73.0,13.0,60.0,1.0,64.0
2858,68.0,0.0,60.0,2.0,64.0
2859,76.0,2.0,60.0,0.0,64.0
2860,76.0,11.0,60.0,5.0,64.0
2861,76.0,9.0,30.0,4.0,64.0
2862,71.0,11.0,30.0,1.0,64.0
2863,66.0,10.0,60.0,2.0,64.0
2864,75.0,0.0,180.0,0.0,64.0
2865,75.0,17.0,30.0,5.0,64.0
2866,73.0,3.0,60.0,1.0,64.0
2867,75.0,15.0,30.0,4.0,64.0
2868,68.0,18.0,60.0,2.0,64.0
2869,76.0,19.0,60.0,5.0,64.0
2870,76.0,2.0,30.0,0.0,64.0
2871,71.0,11.0,120.0,1.0,64.0
2872,76.0,23.0,60.0,4.0,64.0
2873,66.0,22.0,150.0,2.0,64.0
2874,75.0,5.0,120.0,5.0,64.0
2875,75.0,20.0,90.0,4.0,64.0
2876,76.0,1.0,60.0,0.0,64.0
2877,76.0,11.0,60.0,5.0,64.0
2878,76.0,996.0,60.0,4.0,64.0
2879,76.0,3.0,990.0,5.0,64.0
2880,76.0,3.0,960.0,0.0,64.0
2881,76.0,12.0,960.0,4.0,64.0
2882,71.0,0.0,990.0,1.0,64.0
2883,40.0,0.0,990.0,6.0,64.0
2884,68.0,24.0,930.0,2.0,64.0
2885,40.0,8.0,960.0,3.0,64.0
