,note,step,duration,channel,velocity
0,63.0,0.0,1020.0,2.0,0.0
1,72.0,0.0,1020.0,1.0,0.0
2,56.0,0.0,1020.0,3.0,0.0
3,80.0,1024.0,1020.0,0.0,0.0
4,72.0,0.0,1020.0,1.0,0.0
5,63.0,0.0,1020.0,2.0,0.0
6,56.0,1024.0,1020.0,3.0,0.0
7,80.0,0.0,1020.0,0.0,0.0
8,61.0,512.0,1020.0,3.0,0.0
9,73.0,0.0,1020.0,1.0,0.0
10,80.0,0.0,1020.0,0.0,0.0
11,64.0,0.0,1020.0,2.0,0.0
12,75.0,0.0,1020.0,1.0,0.0
13,80.0,512.0,1020.0,0.0,0.0
14,63.0,512.0,510.0,2.0,0.0
15,59.0,0.0,1020.0,3.0,0.0
16,64.0,0.0,510.0,2.0,0.0
17,66.0,512.0,510.0,2.0,0.0
18,57.0,0.0,1020.0,3.0,0.0
19,78.0,0.0,1020.0,0.0,0.0
20,68.0,512.0,510.0,2.0,0.0
21,73.0,0.0,15.0,1.0,0.0
22,56.0,512.0,510.0,3.0,0.0
23,76.0,0.0,1020.0,0.0,0.0
24,69.0,0.0,1020.0,2.0,0.0
25,54.0,0.0,510.0,3.0,0.0
26,56.0,0.0,2040.0,3.0,0.0
27,75.0,0.0,2040.0,0.0,0.0
28,63.0,512.0,2040.0,2.0,0.0
29,72.0,0.0,2040.0,1.0,0.0
30,76.0,0.0,1020.0,0.0,0.0
31,61.0,1024.0,1020.0,3.0,0.0
32,68.0,512.0,510.0,1.0,0.0
33,61.0,0.0,1020.0,2.0,0.0
34,70.0,0.0,510.0,1.0,0.0
35,62.0,0.0,1020.0,2.0,0.0
36,59.0,0.0,1020.0,3.0,0.0
37,78.0,0.0,1020.0,0.0,0.0
38,62.0,0.0,1020.0,2.0,0.0
39,71.0,1024.0,15.0,1.0,0.0
40,53.0,0.0,15.0,3.0,0.0
41,80.0,0.0,15.0,0.0,0.0
42,61.0,0.0,1020.0,2.0,0.0
43,69.0,512.0,510.0,1.0,0.0
44,68.0,0.0,510.0,1.0,0.0
45,61.0,0.0,2040.0,2.0,0.0
46,78.0,1024.0,1020.0,0.0,0.0
47,69.0,0.0,1020.0,1.0,0.0
48,54.0,0.0,1020.0,3.0,0.0
49,49.0,0.0,1020.0,3.0,0.0
50,68.0,0.0,1020.0,1.0,0.0
51,76.0,2048.0,1020.0,0.0,0.0
52,75.0,1024.0,2040.0,0.0,0.0
53,56.0,0.0,2040.0,3.0,0.0
54,60.0,0.0,2040.0,2.0,0.0
55,68.0,0.0,15.0,1.0,0.0
56,61.0,0.0,1020.0,3.0,0.0
57,73.0,1024.0,1020.0,0.0,0.0
58,64.0,0.0,1020.0,2.0,0.0
59,68.0,0.0,15.0,1.0,0.0
60,60.0,0.0,1020.0,3.0,0.0
61,63.0,0.0,1020.0,2.0,0.0
62,75.0,512.0,1020.0,0.0,0.0
63,61.0,0.0,1020.0,3.0,0.0
64,68.0,0.0,15.0,1.0,0.0
65,61.0,512.0,510.0,2.0,0.0
66,76.0,0.0,1020.0,0.0,0.0
67,63.0,0.0,510.0,2.0,0.0
68,64.0,512.0,510.0,2.0,0.0
69,57.0,0.0,1020.0,3.0,0.0
70,69.0,0.0,1020.0,1.0,0.0
71,66.0,512.0,510.0,2.0,0.0
72,68.0,0.0,1020.0,2.0,0.0
73,53.0,0.0,1020.0,3.0,0.0
74,68.0,0.0,1020.0,1.0,0.0
75,73.0,0.0,15.0,0.0,0.0
76,71.0,1024.0,510.0,0.0,0.0
77,66.0,0.0,1020.0,1.0,0.0
78,54.0,0.0,1020.0,3.0,0.0
79,61.0,2048.0,1020.0,2.0,0.0
80,69.0,0.0,1020.0,0.0,0.0
81,49.0,0.0,2040.0,3.0,0.0
82,61.0,0.0,2040.0,2.0,0.0
83,68.0,0.0,2040.0,0.0,0.0
84,65.0,1024.0,2040.0,1.0,0.0
85,69.0,0.0,1020.0,0.0,0.0
86,54.0,1024.0,1020.0,3.0,0.0
87,61.0,0.0,1020.0,2.0,0.0
88,66.0,0.0,1020.0,1.0,0.0
89,68.0,1024.0,1020.0,1.0,0.0
90,64.0,0.0,1020.0,2.0,0.0
91,52.0,0.0,1020.0,3.0,0.0
92,71.0,0.0,1020.0,0.0,0.0
93,73.0,0.0,1020.0,0.0,0.0
94,45.0,0.0,1020.0,3.0,0.0
95,67.0,1024.0,1020.0,1.0,0.0
96,64.0,0.0,15.0,2.0,0.0
97,46.0,0.0,1020.0,3.0,0.0
98,73.0,512.0,1020.0,0.0,0.0
99,66.0,0.0,15.0,1.0,0.0
100,47.0,0.0,1020.0,3.0,0.0
101,62.0,512.0,510.0,2.0,0.0
102,71.0,1024.0,1020.0,0.0,0.0
103,64.0,0.0,510.0,2.0,0.0
104,69.0,0.0,1020.0,0.0,0.0
105,48.0,0.0,1020.0,3.0,0.0
106,66.0,2048.0,1020.0,2.0,0.0
107,68.0,0.0,2040.0,0.0,0.0
108,49.0,1024.0,2040.0,3.0,0.0
109,65.0,0.0,2040.0,1.0,0.0
110,66.0,512.0,1020.0,1.0,0.0
111,61.0,0.0,15.0,2.0,0.0
112,73.0,0.0,1020.0,0.0,0.0
113,57.0,0.0,1020.0,3.0,0.0
114,72.0,0.0,1020.0,0.0,0.0
115,63.0,0.0,1020.0,2.0,0.0
116,56.0,512.0,510.0,3.0,0.0
117,54.0,1024.0,510.0,3.0,0.0
118,73.0,0.0,1020.0,0.0,0.0
119,68.0,0.0,15.0,1.0,0.0
120,64.0,0.0,1020.0,2.0,0.0
121,52.0,0.0,1020.0,3.0,0.0
122,75.0,1024.0,1020.0,0.0,0.0
123,66.0,0.0,1020.0,2.0,0.0
124,51.0,0.0,1020.0,3.0,0.0
125,70.0,512.0,510.0,1.0,0.0
126,72.0,0.0,510.0,1.0,0.0
127,68.0,0.0,1020.0,2.0,0.0
128,76.0,0.0,1020.0,0.0,0.0
129,73.0,0.0,1020.0,1.0,0.0
130,49.0,512.0,1020.0,3.0,0.0
131,66.0,0.0,1020.0,2.0,0.0
132,75.0,0.0,1020.0,0.0,0.0
133,71.0,0.0,1020.0,1.0,0.0
134,51.0,512.0,510.0,3.0,0.0
135,52.0,2048.0,510.0,3.0,0.0
136,70.0,0.0,2040.0,1.0,0.0
137,73.0,1024.0,2040.0,0.0,0.0
138,54.0,0.0,2040.0,3.0,0.0
139,66.0,0.0,2040.0,2.0,0.0
140,71.0,0.0,1020.0,1.0,0.0
141,55.0,1024.0,1020.0,3.0,0.0
142,64.0,0.0,1020.0,2.0,0.0
143,76.0,0.0,1020.0,0.0,0.0
144,54.0,0.0,1020.0,3.0,0.0
145,62.0,1024.0,1020.0,2.0,0.0
146,78.0,0.0,1020.0,0.0,0.0
147,71.0,0.0,1020.0,1.0,0.0
148,53.0,0.0,1020.0,3.0,0.0
149,80.0,0.0,1020.0,0.0,0.0
150,71.0,0.0,1020.0,1.0,0.0
151,61.0,512.0,15.0,2.0,0.0
152,54.0,512.0,510.0,3.0,0.0
153,80.0,512.0,1020.0,0.0,0.0
154,56.0,0.0,510.0,3.0,0.0
155,61.0,0.0,15.0,2.0,0.0
156,78.0,0.0,1020.0,0.0,0.0
157,57.0,512.0,510.0,3.0,0.0
158,69.0,0.0,15.0,1.0,0.0
159,63.0,0.0,510.0,2.0,0.0
160,59.0,512.0,510.0,3.0,0.0
161,68.0,512.0,510.0,1.0,0.0
162,76.0,0.0,1020.0,0.0,0.0
163,61.0,2048.0,1020.0,3.0,0.0
164,64.0,0.0,1020.0,2.0,0.0
165,70.0,0.0,510.0,1.0,0.0
166,59.0,0.0,2040.0,3.0,0.0
167,75.0,0.0,2040.0,0.0,0.0
168,71.0,0.0,2040.0,1.0,0.0
169,58.0,0.0,1020.0,3.0,0.0
170,66.0,512.0,15.0,2.0,0.0
171,73.0,0.0,1020.0,0.0,0.0
172,73.0,0.0,1020.0,1.0,0.0
173,64.0,1024.0,510.0,2.0,0.0
174,60.0,0.0,1020.0,3.0,0.0
175,75.0,0.0,1020.0,0.0,0.0
176,63.0,512.0,1020.0,2.0,0.0
177,76.0,0.0,1020.0,0.0,0.0
178,61.0,512.0,510.0,2.0,0.0
179,68.0,0.0,15.0,1.0,0.0
180,61.0,0.0,1020.0,3.0,0.0
181,63.0,512.0,510.0,2.0,0.0
182,68.0,0.0,15.0,1.0,0.0
183,64.0,0.0,510.0,2.0,0.0
184,49.0,512.0,510.0,3.0,0.0
185,66.0,0.0,510.0,2.0,0.0
186,51.0,0.0,510.0,3.0,0.0
187,68.0,0.0,1020.0,2.0,0.0
188,53.0,0.0,1020.0,3.0,0.0
189,73.0,512.0,15.0,0.0,0.0
190,61.0,1024.0,1020.0,1.0,0.0
191,71.0,0.0,510.0,0.0,0.0
192,54.0,0.0,1020.0,3.0,0.0
193,69.0,0.0,1020.0,0.0,0.0
194,66.0,0.0,1020.0,1.0,0.0
195,65.0,0.0,2040.0,1.0,0.0
196,49.0,1024.0,2040.0,3.0,0.0
197,68.0,0.0,2040.0,0.0,0.0
198,61.0,2048.0,15.0,2.0,0.0
199,66.0,0.0,1020.0,1.0,0.0
200,61.0,0.0,15.0,2.0,0.0
201,54.0,0.0,1020.0,3.0,0.0
202,69.0,0.0,1020.0,0.0,0.0
203,68.0,0.0,1020.0,1.0,0.0
204,71.0,0.0,1020.0,0.0,0.0
205,52.0,512.0,1020.0,3.0,0.0
206,45.0,512.0,510.0,3.0,0.0
207,64.0,0.0,15.0,2.0,0.0
208,69.0,0.0,1020.0,1.0,0.0
209,47.0,0.0,510.0,3.0,0.0
210,64.0,0.0,15.0,2.0,0.0
211,49.0,512.0,510.0,3.0,0.0
212,73.0,512.0,15.0,0.0,0.0
213,69.0,0.0,1020.0,1.0,0.0
214,51.0,0.0,510.0,3.0,0.0
215,52.0,0.0,1020.0,3.0,0.0
216,64.0,0.0,15.0,2.0,0.0
217,71.0,1024.0,1020.0,0.0,0.0
218,68.0,0.0,1020.0,1.0,0.0
219,63.0,0.0,510.0,2.0,0.0
220,54.0,0.0,1020.0,3.0,0.0
221,69.0,0.0,1020.0,0.0,0.0
222,66.0,0.0,2040.0,1.0,0.0
223,61.0,1024.0,1020.0,2.0,0.0
224,60.0,1024.0,1020.0,2.0,0.0
225,68.0,0.0,6150.0,0.0,0.0
226,56.0,0.0,6150.0,3.0,0.0
227,64.0,0.0,1020.0,1.0,0.0
228,61.0,4096.0,1020.0,2.0,0.0
229,63.0,0.0,4110.0,1.0,0.0
230,60.0,1.0,4110.0,2.0,0.0
