,note,step,duration,channel,velocity
0,39.0,0.0,480.0,3.0,0.0
1,46.0,120.0,480.0,3.0,0.0
2,43.0,0.0,480.0,3.0,0.0
3,51.0,0.0,480.0,2.0,0.0
4,63.0,60.0,60.0,0.0,0.0
5,65.0,60.0,60.0,0.0,0.0
6,67.0,60.0,60.0,0.0,0.0
7,68.0,60.0,60.0,0.0,0.0
8,70.0,60.0,60.0,0.0,0.0
9,72.0,60.0,60.0,0.0,0.0
10,74.0,360.0,60.0,0.0,0.0
11,75.0,120.0,360.0,0.0,0.0
12,70.0,360.0,120.0,0.0,0.0
13,67.0,120.0,360.0,0.0,0.0
14,55.0,0.0,120.0,2.0,0.0
15,63.0,0.0,120.0,0.0,0.0
16,51.0,60.0,120.0,3.0,0.0
17,50.0,60.0,540.0,3.0,0.0
18,70.0,60.0,60.0,0.0,0.0
19,53.0,60.0,480.0,2.0,0.0
20,68.0,360.0,60.0,0.0,0.0
21,70.0,0.0,600.0,0.0,0.0
22,46.0,60.0,60.0,3.0,0.0
23,48.0,60.0,60.0,3.0,0.0
24,50.0,60.0,60.0,3.0,0.0
25,72.0,0.0,240.0,0.0,0.0
26,51.0,60.0,60.0,3.0,0.0
27,53.0,60.0,60.0,3.0,0.0
28,55.0,60.0,60.0,3.0,0.0
29,56.0,120.0,60.0,3.0,0.0
30,58.0,20.0,360.0,3.0,0.0
31,70.0,60.0,120.0,0.0,0.0
32,68.0,60.0,60.0,0.0,0.0
33,67.0,60.0,60.0,0.0,0.0
34,68.0,40.0,60.0,0.0,0.0
35,70.0,20.0,40.0,0.0,0.0
36,68.0,40.0,40.0,0.0,0.0
37,53.0,20.0,120.0,3.0,0.0
38,70.0,40.0,40.0,0.0,0.0
39,68.0,20.0,40.0,0.0,0.0
40,70.0,40.0,40.0,0.0,0.0
41,50.0,60.0,360.0,3.0,0.0
42,68.0,40.0,40.0,0.0,0.0
43,70.0,40.0,40.0,0.0,0.0
44,68.0,40.0,40.0,0.0,0.0
45,70.0,40.0,40.0,0.0,0.0
46,68.0,40.0,40.0,0.0,0.0
47,70.0,30.0,40.0,0.0,0.0
48,68.0,70.0,30.0,0.0,0.0
49,67.0,0.0,60.0,0.0,0.0
50,68.0,60.0,60.0,0.0,0.0
51,46.0,0.0,120.0,3.0,0.0
52,70.0,360.0,60.0,0.0,0.0
53,48.0,120.0,720.0,3.0,0.0
54,63.0,60.0,360.0,0.0,0.0
55,75.0,60.0,60.0,0.0,0.0
56,74.0,240.0,60.0,0.0,0.0
57,75.0,120.0,360.0,0.0,0.0
58,51.0,60.0,240.0,3.0,0.0
59,72.0,0.0,120.0,0.0,0.0
60,70.0,60.0,120.0,0.0,0.0
61,50.0,60.0,60.0,3.0,0.0
62,48.0,0.0,60.0,3.0,0.0
63,46.0,60.0,60.0,3.0,0.0
64,69.0,40.0,240.0,0.0,0.0
65,48.0,40.0,60.0,3.0,0.0
66,50.0,40.0,40.0,3.0,0.0
67,48.0,40.0,40.0,3.0,0.0
68,50.0,0.0,40.0,3.0,0.0
69,79.0,0.0,120.0,0.0,0.0
70,48.0,40.0,40.0,3.0,0.0
71,50.0,40.0,40.0,3.0,0.0
72,48.0,40.0,40.0,3.0,0.0
73,77.0,0.0,360.0,0.0,0.0
74,50.0,40.0,40.0,3.0,0.0
75,48.0,40.0,40.0,3.0,0.0
76,50.0,40.0,40.0,3.0,0.0
77,48.0,40.0,40.0,3.0,0.0
78,50.0,100.0,40.0,3.0,0.0
79,48.0,60.0,90.0,3.0,0.0
80,46.0,60.0,60.0,3.0,0.0
81,75.0,0.0,120.0,0.0,0.0
82,48.0,60.0,60.0,3.0,0.0
83,50.0,60.0,60.0,3.0,0.0
84,70.0,240.0,480.0,1.0,0.0
85,75.0,60.0,60.0,0.0,0.0
86,46.0,40.0,360.0,3.0,0.0
87,74.0,60.0,60.0,0.0,0.0
88,72.0,60.0,60.0,0.0,0.0
89,74.0,40.0,60.0,0.0,0.0
90,75.0,40.0,40.0,0.0,0.0
91,74.0,40.0,40.0,0.0,0.0
92,75.0,0.0,40.0,0.0,0.0
93,74.0,20.0,40.0,0.0,0.0
94,56.0,20.0,60.0,3.0,0.0
95,75.0,40.0,40.0,0.0,0.0
96,55.0,0.0,60.0,3.0,0.0
97,74.0,120.0,270.0,0.0,0.0
98,56.0,120.0,360.0,3.0,0.0
99,53.0,120.0,120.0,3.0,0.0
100,75.0,0.0,15.0,0.0,0.0
101,50.0,120.0,360.0,3.0,0.0
102,77.0,20.0,1140.0,0.0,0.0
103,60.0,360.0,120.0,3.0,0.0
104,58.0,120.0,360.0,3.0,0.0
105,56.0,60.0,120.0,3.0,0.0
106,56.0,60.0,60.0,3.0,0.0
107,55.0,60.0,60.0,3.0,0.0
108,53.0,60.0,60.0,3.0,0.0
109,55.0,40.0,60.0,3.0,0.0
110,56.0,20.0,40.0,3.0,0.0
111,55.0,40.0,40.0,3.0,0.0
112,77.0,0.0,60.0,0.0,0.0
113,56.0,40.0,40.0,3.0,0.0
114,55.0,20.0,40.0,3.0,0.0
115,75.0,20.0,60.0,0.0,0.0
116,56.0,40.0,40.0,3.0,0.0
117,74.0,240.0,60.0,0.0,0.0
118,55.0,120.0,270.0,3.0,0.0
119,75.0,120.0,360.0,0.0,0.0
120,55.0,120.0,240.0,3.0,0.0
121,70.0,0.0,1080.0,0.0,0.0
122,55.0,60.0,300.0,3.0,0.0
123,72.0,60.0,120.0,1.0,0.0
124,73.0,60.0,60.0,1.0,0.0
125,72.0,60.0,60.0,1.0,0.0
126,73.0,120.0,480.0,1.0,0.0
127,56.0,60.0,60.0,3.0,0.0
128,55.0,60.0,60.0,3.0,0.0
129,53.0,240.0,60.0,3.0,0.0
130,55.0,120.0,360.0,3.0,0.0
131,75.0,0.0,240.0,1.0,0.0
132,51.0,60.0,120.0,3.0,0.0
133,68.0,60.0,240.0,0.0,0.0
134,73.0,0.0,120.0,1.0,0.0
135,56.0,60.0,60.0,3.0,0.0
136,55.0,120.0,60.0,3.0,0.0
137,56.0,0.0,660.0,3.0,0.0
138,72.0,60.0,180.0,1.0,0.0
139,70.0,60.0,60.0,1.0,0.0
140,68.0,60.0,60.0,1.0,0.0
141,67.0,300.0,60.0,1.0,0.0
142,68.0,60.0,300.0,1.0,0.0
143,58.0,60.0,60.0,3.0,0.0
144,67.0,0.0,60.0,1.0,0.0
145,65.0,0.0,60.0,1.0,0.0
146,56.0,60.0,60.0,3.0,0.0
147,63.0,300.0,60.0,1.0,0.0
148,55.0,0.0,60.0,3.0,0.0
149,56.0,60.0,300.0,3.0,0.0
150,55.0,60.0,60.0,3.0,0.0
151,65.0,0.0,15.0,1.0,0.0
152,53.0,60.0,60.0,3.0,0.0
153,51.0,0.0,60.0,3.0,0.0
154,53.0,60.0,300.0,3.0,0.0
155,75.0,60.0,60.0,0.0,0.0
156,74.0,180.0,60.0,0.0,0.0
157,75.0,0.0,240.0,0.0,0.0
158,51.0,60.0,60.0,3.0,0.0
159,50.0,60.0,60.0,3.0,0.0
160,75.0,0.0,120.0,0.0,0.0
161,48.0,480.0,60.0,3.0,0.0
162,67.0,0.0,510.0,2.0,0.0
163,70.0,60.0,480.0,1.0,0.0
164,46.0,60.0,1080.0,3.0,0.0
165,75.0,60.0,540.0,0.0,0.0
166,79.0,60.0,60.0,0.0,0.0
167,77.0,60.0,60.0,0.0,0.0
168,75.0,60.0,60.0,0.0,0.0
169,74.0,60.0,60.0,0.0,0.0
170,72.0,60.0,60.0,0.0,0.0
171,70.0,60.0,60.0,0.0,0.0
172,68.0,120.0,60.0,0.0,0.0
173,77.0,0.0,360.0,0.0,0.0
174,44.0,60.0,60.0,3.0,0.0
175,43.0,60.0,60.0,3.0,0.0
176,41.0,60.0,60.0,3.0,0.0
177,39.0,60.0,60.0,3.0,0.0
178,38.0,60.0,60.0,3.0,0.0
179,68.0,0.0,120.0,0.0,0.0
180,36.0,120.0,60.0,3.0,0.0
181,34.0,120.0,120.0,3.0,0.0
182,77.0,120.0,360.0,0.0,0.0
183,38.0,120.0,120.0,3.0,0.0
184,41.0,0.0,120.0,3.0,0.0
185,68.0,60.0,120.0,0.0,0.0
186,46.0,0.0,120.0,3.0,0.0
187,39.0,60.0,120.0,3.0,0.0
188,68.0,60.0,60.0,0.0,0.0
189,67.0,0.0,60.0,0.0,0.0
190,46.0,0.0,120.0,3.0,0.0
191,65.0,60.0,60.0,0.0,0.0
192,67.0,40.0,60.0,0.0,0.0
193,68.0,40.0,40.0,0.0,0.0
194,48.0,0.0,120.0,3.0,0.0
195,67.0,40.0,40.0,0.0,0.0
196,68.0,40.0,40.0,0.0,0.0
197,50.0,120.0,120.0,3.0,0.0
198,67.0,40.0,40.0,0.0,0.0
199,68.0,40.0,40.0,0.0,0.0
200,67.0,60.0,330.0,0.0,0.0
201,51.0,120.0,120.0,3.0,0.0
202,50.0,60.0,120.0,3.0,0.0
203,51.0,0.0,120.0,3.0,0.0
204,65.0,60.0,60.0,0.0,0.0
205,63.0,60.0,60.0,0.0,0.0
206,53.0,0.0,120.0,3.0,0.0
207,62.0,60.0,60.0,0.0,0.0
208,63.0,0.0,120.0,0.0,0.0
209,56.0,60.0,60.0,3.0,0.0
210,55.0,60.0,60.0,3.0,0.0
211,56.0,60.0,60.0,3.0,0.0
212,70.0,40.0,120.0,0.0,0.0
213,55.0,0.0,60.0,3.0,0.0
214,56.0,40.0,40.0,3.0,0.0
215,72.0,0.0,120.0,0.0,0.0
216,55.0,40.0,40.0,3.0,0.0
217,56.0,40.0,40.0,3.0,0.0
218,74.0,120.0,120.0,0.0,0.0
219,55.0,40.0,40.0,3.0,0.0
220,56.0,40.0,40.0,3.0,0.0
221,55.0,60.0,330.0,3.0,0.0
222,75.0,120.0,120.0,0.0,0.0
223,74.0,60.0,120.0,0.0,0.0
224,75.0,0.0,120.0,0.0,0.0
225,53.0,60.0,60.0,3.0,0.0
226,77.0,120.0,120.0,0.0,0.0
227,51.0,60.0,60.0,3.0,0.0
228,50.0,0.0,60.0,3.0,0.0
229,51.0,120.0,120.0,3.0,0.0
230,79.0,60.0,300.0,0.0,0.0
231,55.0,60.0,120.0,3.0,0.0
232,57.0,0.0,120.0,3.0,0.0
233,77.0,60.0,60.0,0.0,0.0
234,59.0,0.0,120.0,3.0,0.0
235,75.0,60.0,60.0,0.0,0.0
236,74.0,120.0,60.0,0.0,0.0
237,60.0,120.0,120.0,3.0,0.0
238,75.0,60.0,300.0,0.0,0.0
239,59.0,60.0,120.0,3.0,0.0
240,60.0,0.0,120.0,3.0,0.0
241,74.0,60.0,60.0,0.0,0.0
242,72.0,60.0,60.0,0.0,0.0
243,62.0,0.0,120.0,3.0,0.0
244,71.0,360.0,60.0,0.0,0.0
245,63.0,0.0,360.0,3.0,0.0
246,72.0,120.0,360.0,0.0,0.0
247,67.0,40.0,120.0,0.0,0.0
248,51.0,0.0,120.0,3.0,0.0
249,69.0,40.0,40.0,0.0,0.0
250,63.0,120.0,360.0,3.0,0.0
251,67.0,280.0,40.0,0.0,0.0
252,69.0,0.0,270.0,0.0,0.0
253,67.0,0.0,120.0,1.0,0.0
254,63.0,0.0,15.0,3.0,0.0
255,70.0,120.0,15.0,0.0,0.0
256,65.0,300.0,480.0,1.0,0.0
257,69.0,60.0,180.0,0.0,0.0
258,72.0,60.0,60.0,0.0,0.0
259,74.0,60.0,60.0,0.0,0.0
260,75.0,0.0,60.0,0.0,0.0
261,63.0,60.0,60.0,3.0,0.0
262,62.0,60.0,60.0,3.0,0.0
263,77.0,300.0,120.0,1.0,0.0
264,77.0,0.0,15.0,0.0,0.0
265,60.0,0.0,60.0,3.0,0.0
266,77.0,0.0,15.0,0.0,0.0
267,71.0,0.0,360.0,1.0,0.0
268,62.0,60.0,300.0,3.0,0.0
269,55.0,60.0,60.0,3.0,0.0
270,74.0,300.0,120.0,1.0,0.0
271,57.0,60.0,60.0,3.0,0.0
272,59.0,0.0,60.0,3.0,0.0
273,60.0,60.0,360.0,3.0,0.0
274,67.0,0.0,960.0,1.0,0.0
275,77.0,0.0,60.0,0.0,0.0
276,75.0,60.0,60.0,0.0,0.0
277,74.0,300.0,60.0,0.0,0.0
278,75.0,60.0,300.0,0.0,0.0
279,60.0,0.0,15.0,3.0,0.0
280,74.0,60.0,60.0,0.0,0.0
281,72.0,60.0,60.0,0.0,0.0
282,71.0,300.0,60.0,0.0,0.0
283,72.0,60.0,360.0,0.0,0.0
284,56.0,0.0,60.0,3.0,0.0
285,79.0,60.0,120.0,0.0,0.0
286,55.0,60.0,60.0,3.0,0.0
287,53.0,0.0,60.0,3.0,0.0
288,67.0,0.0,960.0,1.0,0.0
289,72.0,60.0,60.0,0.0,0.0
290,52.0,0.0,360.0,3.0,0.0
291,70.0,60.0,60.0,0.0,0.0
292,68.0,60.0,60.0,0.0,0.0
293,70.0,40.0,60.0,0.0,0.0
294,72.0,40.0,40.0,0.0,0.0
295,70.0,40.0,40.0,0.0,0.0
296,72.0,40.0,40.0,0.0,0.0
297,55.0,40.0,120.0,3.0,0.0
298,70.0,40.0,40.0,0.0,0.0
299,72.0,40.0,40.0,0.0,0.0
300,70.0,0.0,40.0,0.0,0.0
301,72.0,200.0,40.0,0.0,0.0
302,48.0,120.0,360.0,3.0,0.0
303,70.0,120.0,210.0,0.0,0.0
304,69.0,0.0,120.0,0.0,0.0
305,67.0,300.0,120.0,0.0,0.0
306,52.0,0.0,120.0,3.0,0.0
307,53.0,40.0,600.0,3.0,0.0
308,65.0,40.0,480.0,1.0,0.0
309,69.0,60.0,300.0,0.0,0.0
310,70.0,60.0,60.0,0.0,0.0
311,69.0,60.0,60.0,0.0,0.0
312,70.0,0.0,60.0,0.0,0.0
313,72.0,40.0,40.0,0.0,0.0
314,67.0,360.0,480.0,1.0,0.0
315,70.0,40.0,40.0,0.0,0.0
316,72.0,0.0,40.0,0.0,0.0
317,41.0,20.0,60.0,3.0,0.0
318,70.0,20.0,40.0,0.0,0.0
319,72.0,40.0,40.0,0.0,0.0
320,43.0,0.0,60.0,3.0,0.0
321,70.0,60.0,40.0,0.0,0.0
322,72.0,0.0,60.0,0.0,0.0
323,45.0,60.0,60.0,3.0,0.0
324,70.0,0.0,60.0,0.0,0.0
325,46.0,60.0,60.0,3.0,0.0
326,48.0,0.0,60.0,3.0,0.0
327,69.0,60.0,60.0,0.0,0.0
328,50.0,0.0,60.0,3.0,0.0
329,70.0,0.0,60.0,0.0,0.0
330,51.0,120.0,360.0,3.0,0.0
331,69.0,60.0,480.0,1.0,0.0
332,72.0,60.0,540.0,0.0,0.0
333,48.0,0.0,120.0,3.0,0.0
334,45.0,60.0,360.0,3.0,0.0
335,70.0,60.0,60.0,0.0,0.0
336,69.0,60.0,60.0,0.0,0.0
337,67.0,60.0,60.0,0.0,0.0
338,65.0,60.0,60.0,0.0,0.0
339,63.0,0.0,60.0,0.0,0.0
340,62.0,60.0,60.0,0.0,0.0
341,41.0,0.0,120.0,3.0,0.0
342,60.0,360.0,60.0,0.0,0.0
343,58.0,120.0,360.0,0.0,0.0
344,50.0,60.0,780.0,3.0,0.0
345,62.0,60.0,120.0,0.0,0.0
346,65.0,60.0,60.0,0.0,0.0
347,63.0,180.0,60.0,0.0,0.0
348,65.0,60.0,240.0,0.0,0.0
349,51.0,0.0,60.0,3.0,0.0
350,67.0,300.0,120.0,0.0,0.0
351,50.0,60.0,60.0,3.0,0.0
352,48.0,0.0,60.0,3.0,0.0
353,46.0,60.0,300.0,3.0,0.0
354,62.0,300.0,480.0,2.0,0.0
355,65.0,0.0,480.0,1.0,0.0
356,44.0,60.0,60.0,3.0,0.0
357,43.0,60.0,60.0,3.0,0.0
358,41.0,0.0,60.0,3.0,0.0
359,39.0,60.0,300.0,3.0,0.0
360,68.0,0.0,15.0,0.0,0.0
361,46.0,0.0,60.0,3.0,0.0
362,48.0,0.0,60.0,3.0,0.0
363,67.0,60.0,60.0,0.0,0.0
364,50.0,60.0,60.0,3.0,0.0
365,65.0,0.0,60.0,0.0,0.0
366,67.0,60.0,300.0,0.0,0.0
367,51.0,60.0,60.0,3.0,0.0
368,50.0,180.0,60.0,3.0,0.0
369,51.0,60.0,240.0,3.0,0.0
370,69.0,0.0,60.0,0.0,0.0
371,39.0,60.0,120.0,3.0,0.0
372,70.0,60.0,60.0,0.0,0.0
373,72.0,0.0,15.0,0.0,0.0
374,70.0,60.0,60.0,0.0,0.0
375,72.0,120.0,60.0,0.0,0.0
376,70.0,60.0,120.0,0.0,0.0
377,69.0,0.0,60.0,0.0,0.0
378,55.0,0.0,120.0,2.0,0.0
379,51.0,60.0,15.0,3.0,0.0
380,70.0,60.0,60.0,0.0,0.0
381,72.0,300.0,60.0,0.0,0.0
382,51.0,0.0,15.0,3.0,0.0
383,65.0,60.0,300.0,0.0,0.0
384,57.0,0.0,480.0,2.0,0.0
385,72.0,60.0,60.0,0.0,0.0
386,74.0,60.0,60.0,0.0,0.0
387,75.0,300.0,60.0,0.0,0.0
388,77.0,0.0,360.0,0.0,0.0
389,51.0,60.0,60.0,3.0,0.0
390,50.0,60.0,60.0,3.0,0.0
391,69.0,180.0,120.0,0.0,0.0
392,48.0,0.0,60.0,3.0,0.0
393,50.0,60.0,180.0,3.0,0.0
394,70.0,0.0,480.0,0.0,0.0
395,46.0,60.0,60.0,3.0,0.0
396,48.0,60.0,60.0,3.0,0.0
397,50.0,60.0,60.0,3.0,0.0
398,51.0,60.0,60.0,3.0,0.0
399,53.0,60.0,60.0,3.0,0.0
400,55.0,120.0,360.0,3.0,0.0
401,72.0,60.0,60.0,0.0,0.0
402,70.0,60.0,60.0,0.0,0.0
403,69.0,60.0,60.0,0.0,0.0
404,70.0,120.0,60.0,0.0,0.0
405,72.0,60.0,240.0,0.0,0.0
406,51.0,0.0,120.0,3.0,0.0
407,74.0,60.0,60.0,0.0,0.0
408,53.0,240.0,480.0,3.0,0.0
409,69.0,0.0,960.0,1.0,0.0
410,72.0,60.0,60.0,0.0,0.0
411,70.0,60.0,60.0,0.0,0.0
412,72.0,40.0,60.0,0.0,0.0
413,74.0,40.0,40.0,0.0,0.0
414,72.0,40.0,40.0,0.0,0.0
415,74.0,40.0,40.0,0.0,0.0
416,72.0,40.0,40.0,0.0,0.0
417,74.0,40.0,40.0,0.0,0.0
418,72.0,240.0,270.0,0.0,0.0
419,41.0,0.0,480.0,3.0,0.0
420,70.0,600.0,240.0,0.0,0.0
421,62.0,0.0,1920.0,1.0,0.0
422,34.0,60.0,600.0,3.0,0.0
423,65.0,0.0,1920.0,2.0,0.0
424,70.0,480.0,1920.0,0.0,0.0
425,46.0,60.0,60.0,3.0,0.0
426,48.0,60.0,60.0,3.0,0.0
427,50.0,60.0,60.0,3.0,0.0
428,51.0,60.0,60.0,3.0,0.0
429,53.0,60.0,60.0,3.0,0.0
430,55.0,360.0,60.0,3.0,0.0
431,56.0,120.0,360.0,3.0,0.0
432,53.0,360.0,120.0,3.0,0.0
433,50.0,120.0,360.0,3.0,0.0
434,46.0,0.0,15.0,3.0,0.0
435,43.0,0.0,480.0,3.0,0.0
436,51.0,0.0,480.0,2.0,0.0
437,39.0,0.0,480.0,3.0,0.0
438,63.0,60.0,60.0,0.0,0.0
439,65.0,60.0,60.0,0.0,0.0
440,67.0,60.0,60.0,0.0,0.0
441,68.0,60.0,60.0,0.0,0.0
442,70.0,60.0,60.0,0.0,0.0
443,72.0,60.0,60.0,0.0,0.0
444,74.0,360.0,60.0,0.0,0.0
445,75.0,120.0,360.0,0.0,0.0
446,70.0,360.0,120.0,0.0,0.0
447,67.0,120.0,360.0,0.0,0.0
448,55.0,60.0,120.0,2.0,0.0
449,63.0,0.0,120.0,0.0,0.0
450,51.0,0.0,120.0,3.0,0.0
451,53.0,60.0,480.0,2.0,0.0
452,50.0,60.0,540.0,3.0,0.0
453,70.0,60.0,60.0,0.0,0.0
454,68.0,360.0,60.0,0.0,0.0
455,70.0,60.0,600.0,0.0,0.0
456,46.0,60.0,60.0,3.0,0.0
457,48.0,60.0,60.0,3.0,0.0
458,50.0,0.0,60.0,3.0,0.0
459,51.0,60.0,60.0,3.0,0.0
460,72.0,0.0,240.0,0.0,0.0
461,53.0,60.0,60.0,3.0,0.0
462,55.0,60.0,60.0,3.0,0.0
463,56.0,120.0,60.0,3.0,0.0
464,70.0,60.0,120.0,0.0,0.0
465,58.0,20.0,360.0,3.0,0.0
466,68.0,60.0,60.0,0.0,0.0
467,67.0,60.0,60.0,0.0,0.0
468,68.0,40.0,60.0,0.0,0.0
469,70.0,20.0,40.0,0.0,0.0
470,68.0,40.0,40.0,0.0,0.0
471,53.0,20.0,120.0,3.0,0.0
472,70.0,40.0,40.0,0.0,0.0
473,68.0,20.0,40.0,0.0,0.0
474,70.0,40.0,40.0,0.0,0.0
475,50.0,60.0,360.0,3.0,0.0
476,68.0,40.0,40.0,0.0,0.0
477,70.0,40.0,40.0,0.0,0.0
478,68.0,40.0,40.0,0.0,0.0
479,70.0,40.0,40.0,0.0,0.0
480,68.0,40.0,40.0,0.0,0.0
481,70.0,30.0,40.0,0.0,0.0
482,68.0,70.0,30.0,0.0,0.0
483,67.0,0.0,60.0,0.0,0.0
484,46.0,0.0,120.0,3.0,0.0
485,68.0,60.0,60.0,0.0,0.0
486,70.0,360.0,60.0,0.0,0.0
487,63.0,60.0,360.0,0.0,0.0
488,48.0,120.0,720.0,3.0,0.0
489,75.0,60.0,60.0,0.0,0.0
490,74.0,240.0,60.0,0.0,0.0
491,75.0,120.0,360.0,0.0,0.0
492,51.0,0.0,240.0,3.0,0.0
493,72.0,60.0,120.0,0.0,0.0
494,70.0,0.0,120.0,0.0,0.0
495,50.0,60.0,60.0,3.0,0.0
496,48.0,60.0,60.0,3.0,0.0
497,46.0,60.0,60.0,3.0,0.0
498,69.0,0.0,240.0,0.0,0.0
499,48.0,40.0,60.0,3.0,0.0
500,50.0,40.0,40.0,3.0,0.0
501,48.0,40.0,40.0,3.0,0.0
502,50.0,40.0,40.0,3.0,0.0
503,48.0,40.0,40.0,3.0,0.0
504,79.0,0.0,120.0,0.0,0.0
505,50.0,40.0,40.0,3.0,0.0
506,48.0,40.0,40.0,3.0,0.0
507,50.0,40.0,40.0,3.0,0.0
508,77.0,60.0,360.0,0.0,0.0
509,48.0,40.0,40.0,3.0,0.0
510,50.0,40.0,40.0,3.0,0.0
511,48.0,40.0,40.0,3.0,0.0
512,50.0,100.0,40.0,3.0,0.0
513,48.0,60.0,90.0,3.0,0.0
514,46.0,0.0,60.0,3.0,0.0
515,48.0,60.0,60.0,3.0,0.0
516,50.0,0.0,60.0,3.0,0.0
517,46.0,0.0,360.0,3.0,0.0
518,75.0,60.0,15.0,0.0,0.0
519,70.0,240.0,480.0,1.0,0.0
520,74.0,60.0,60.0,0.0,0.0
521,72.0,60.0,60.0,0.0,0.0
522,74.0,40.0,60.0,0.0,0.0
523,75.0,40.0,40.0,0.0,0.0
524,74.0,40.0,40.0,0.0,0.0
525,75.0,40.0,40.0,0.0,0.0
526,56.0,20.0,60.0,3.0,0.0
527,74.0,20.0,40.0,0.0,0.0
528,75.0,40.0,40.0,0.0,0.0
529,55.0,0.0,60.0,3.0,0.0
530,74.0,120.0,270.0,0.0,0.0
531,56.0,120.0,360.0,3.0,0.0
532,75.0,120.0,240.0,0.0,0.0
533,53.0,0.0,120.0,3.0,0.0
534,50.0,120.0,360.0,3.0,0.0
535,75.0,240.0,120.0,0.0,0.0
536,60.0,360.0,120.0,3.0,0.0
537,58.0,120.0,360.0,3.0,0.0
538,56.0,60.0,15.0,3.0,0.0
539,55.0,60.0,60.0,3.0,0.0
540,53.0,60.0,60.0,3.0,0.0
541,55.0,40.0,60.0,3.0,0.0
542,56.0,20.0,40.0,3.0,0.0
543,55.0,40.0,40.0,3.0,0.0
544,77.0,20.0,15.0,0.0,0.0
545,56.0,0.0,40.0,3.0,0.0
546,75.0,20.0,60.0,0.0,0.0
547,55.0,20.0,40.0,3.0,0.0
548,56.0,40.0,40.0,3.0,0.0
549,74.0,240.0,60.0,0.0,0.0
550,55.0,120.0,270.0,3.0,0.0
551,75.0,120.0,360.0,0.0,0.0
552,70.0,0.0,1080.0,0.0,0.0
553,55.0,120.0,15.0,3.0,0.0
554,72.0,60.0,120.0,1.0,0.0
555,73.0,60.0,60.0,1.0,0.0
556,72.0,60.0,60.0,1.0,0.0
557,73.0,120.0,480.0,1.0,0.0
558,56.0,60.0,60.0,3.0,0.0
559,55.0,60.0,60.0,3.0,0.0
560,53.0,240.0,60.0,3.0,0.0
561,55.0,120.0,360.0,3.0,0.0
562,75.0,0.0,240.0,1.0,0.0
563,51.0,60.0,120.0,3.0,0.0
564,73.0,0.0,120.0,1.0,0.0
565,68.0,60.0,240.0,0.0,0.0
566,56.0,60.0,60.0,3.0,0.0
567,55.0,120.0,60.0,3.0,0.0
568,56.0,60.0,660.0,3.0,0.0
569,72.0,60.0,180.0,1.0,0.0
570,70.0,60.0,60.0,1.0,0.0
571,68.0,60.0,60.0,1.0,0.0
572,67.0,300.0,60.0,1.0,0.0
573,68.0,0.0,300.0,1.0,0.0
574,67.0,0.0,60.0,1.0,0.0
575,58.0,60.0,60.0,3.0,0.0
576,65.0,60.0,60.0,1.0,0.0
577,56.0,0.0,60.0,3.0,0.0
578,55.0,0.0,60.0,3.0,0.0
579,63.0,300.0,60.0,1.0,0.0
580,56.0,60.0,300.0,3.0,0.0
581,55.0,60.0,60.0,3.0,0.0
582,65.0,0.0,15.0,1.0,0.0
583,53.0,60.0,60.0,3.0,0.0
584,51.0,0.0,60.0,3.0,0.0
585,53.0,60.0,300.0,3.0,0.0
586,75.0,60.0,60.0,0.0,0.0
587,74.0,180.0,60.0,0.0,0.0
588,75.0,60.0,240.0,0.0,0.0
589,51.0,0.0,60.0,3.0,0.0
590,75.0,0.0,120.0,0.0,0.0
591,50.0,60.0,60.0,3.0,0.0
592,48.0,480.0,60.0,3.0,0.0
593,67.0,60.0,510.0,2.0,0.0
594,70.0,0.0,480.0,1.0,0.0
595,46.0,60.0,1080.0,3.0,0.0
596,75.0,60.0,540.0,0.0,0.0
597,79.0,60.0,60.0,0.0,0.0
598,77.0,60.0,60.0,0.0,0.0
599,75.0,60.0,60.0,0.0,0.0
600,74.0,60.0,60.0,0.0,0.0
601,72.0,60.0,60.0,0.0,0.0
602,70.0,60.0,60.0,0.0,0.0
603,68.0,120.0,60.0,0.0,0.0
604,77.0,60.0,360.0,0.0,0.0
605,44.0,60.0,60.0,3.0,0.0
606,43.0,60.0,60.0,3.0,0.0
607,41.0,60.0,60.0,3.0,0.0
608,39.0,0.0,60.0,3.0,0.0
609,38.0,60.0,60.0,3.0,0.0
610,68.0,120.0,120.0,0.0,0.0
611,36.0,0.0,60.0,3.0,0.0
612,34.0,120.0,120.0,3.0,0.0
613,77.0,120.0,360.0,0.0,0.0
614,38.0,120.0,120.0,3.0,0.0
615,41.0,0.0,120.0,3.0,0.0
616,46.0,0.0,120.0,3.0,0.0
617,68.0,60.0,15.0,0.0,0.0
618,39.0,0.0,120.0,3.0,0.0
619,67.0,60.0,60.0,0.0,0.0
620,65.0,60.0,60.0,0.0,0.0
621,46.0,40.0,120.0,3.0,0.0
622,67.0,0.0,60.0,0.0,0.0
623,68.0,40.0,40.0,0.0,0.0
624,48.0,0.0,120.0,3.0,0.0
625,67.0,40.0,40.0,0.0,0.0
626,68.0,40.0,40.0,0.0,0.0
627,67.0,40.0,40.0,0.0,0.0
628,50.0,120.0,120.0,3.0,0.0
629,68.0,40.0,40.0,0.0,0.0
630,67.0,60.0,330.0,0.0,0.0
631,51.0,120.0,120.0,3.0,0.0
632,50.0,60.0,120.0,3.0,0.0
633,51.0,0.0,120.0,3.0,0.0
634,65.0,60.0,60.0,0.0,0.0
635,53.0,0.0,120.0,3.0,0.0
636,63.0,60.0,60.0,0.0,0.0
637,62.0,60.0,60.0,0.0,0.0
638,56.0,60.0,60.0,3.0,0.0
639,63.0,0.0,120.0,0.0,0.0
640,55.0,60.0,60.0,3.0,0.0
641,70.0,40.0,120.0,0.0,0.0
642,56.0,60.0,60.0,3.0,0.0
643,55.0,0.0,60.0,3.0,0.0
644,72.0,40.0,120.0,0.0,0.0
645,56.0,40.0,40.0,3.0,0.0
646,55.0,40.0,40.0,3.0,0.0
647,56.0,0.0,40.0,3.0,0.0
648,74.0,120.0,120.0,0.0,0.0
649,55.0,40.0,40.0,3.0,0.0
650,56.0,40.0,40.0,3.0,0.0
651,55.0,60.0,330.0,3.0,0.0
652,75.0,120.0,120.0,0.0,0.0
653,74.0,60.0,120.0,0.0,0.0
654,75.0,0.0,120.0,0.0,0.0
655,53.0,60.0,60.0,3.0,0.0
656,77.0,0.0,120.0,0.0,0.0
657,51.0,60.0,60.0,3.0,0.0
658,50.0,120.0,60.0,3.0,0.0
659,79.0,60.0,300.0,0.0,0.0
660,51.0,120.0,120.0,3.0,0.0
661,55.0,60.0,120.0,3.0,0.0
662,57.0,0.0,120.0,3.0,0.0
663,77.0,60.0,60.0,0.0,0.0
664,59.0,120.0,120.0,3.0,0.0
665,75.0,60.0,60.0,0.0,0.0
666,74.0,0.0,60.0,0.0,0.0
667,60.0,120.0,120.0,3.0,0.0
668,75.0,60.0,300.0,0.0,0.0
669,59.0,60.0,120.0,3.0,0.0
670,60.0,0.0,120.0,3.0,0.0
671,74.0,60.0,60.0,0.0,0.0
672,62.0,0.0,120.0,3.0,0.0
673,72.0,60.0,60.0,0.0,0.0
674,71.0,360.0,60.0,0.0,0.0
675,63.0,0.0,360.0,3.0,0.0
676,72.0,120.0,360.0,0.0,0.0
677,67.0,40.0,120.0,0.0,0.0
678,51.0,0.0,120.0,3.0,0.0
679,69.0,40.0,40.0,0.0,0.0
680,67.0,280.0,40.0,0.0,0.0
681,69.0,0.0,270.0,0.0,0.0
682,67.0,0.0,120.0,1.0,0.0
683,63.0,120.0,15.0,3.0,0.0
684,70.0,0.0,15.0,0.0,0.0
685,65.0,300.0,480.0,1.0,0.0
686,69.0,60.0,180.0,0.0,0.0
687,72.0,60.0,60.0,0.0,0.0
688,74.0,60.0,60.0,0.0,0.0
689,75.0,0.0,60.0,0.0,0.0
690,63.0,60.0,15.0,3.0,0.0
691,77.0,0.0,15.0,0.0,0.0
692,62.0,60.0,60.0,3.0,0.0
693,77.0,0.0,120.0,1.0,0.0
694,60.0,0.0,60.0,3.0,0.0
695,71.0,0.0,360.0,1.0,0.0
696,62.0,60.0,300.0,3.0,0.0
697,77.0,300.0,15.0,0.0,0.0
698,55.0,60.0,60.0,3.0,0.0
699,74.0,0.0,120.0,1.0,0.0
700,57.0,60.0,60.0,3.0,0.0
701,59.0,300.0,60.0,3.0,0.0
702,67.0,300.0,960.0,1.0,0.0
703,77.0,0.0,60.0,0.0,0.0
704,60.0,60.0,15.0,3.0,0.0
705,75.0,60.0,60.0,0.0,0.0
706,74.0,300.0,60.0,0.0,0.0
707,60.0,0.0,15.0,3.0,0.0
708,75.0,60.0,300.0,0.0,0.0
709,74.0,60.0,60.0,0.0,0.0
710,72.0,60.0,60.0,0.0,0.0
711,71.0,0.0,60.0,0.0,0.0
712,72.0,60.0,360.0,0.0,0.0
713,56.0,0.0,60.0,3.0,0.0
714,55.0,60.0,60.0,3.0,0.0
715,79.0,60.0,120.0,0.0,0.0
716,53.0,0.0,60.0,3.0,0.0
717,67.0,0.0,960.0,1.0,0.0
718,72.0,60.0,60.0,0.0,0.0
719,52.0,0.0,360.0,3.0,0.0
720,70.0,60.0,60.0,0.0,0.0
721,68.0,60.0,60.0,0.0,0.0
722,70.0,40.0,60.0,0.0,0.0
723,72.0,40.0,40.0,0.0,0.0
724,70.0,40.0,40.0,0.0,0.0
725,72.0,40.0,40.0,0.0,0.0
726,70.0,40.0,40.0,0.0,0.0
727,55.0,0.0,120.0,3.0,0.0
728,72.0,40.0,40.0,0.0,0.0
729,70.0,40.0,40.0,0.0,0.0
730,48.0,120.0,360.0,3.0,0.0
731,72.0,200.0,40.0,0.0,0.0
732,70.0,120.0,210.0,0.0,0.0
733,69.0,0.0,120.0,0.0,0.0
734,67.0,0.0,120.0,0.0,0.0
735,52.0,300.0,120.0,3.0,0.0
736,69.0,60.0,300.0,0.0,0.0
737,53.0,0.0,600.0,3.0,0.0
738,65.0,0.0,480.0,1.0,0.0
739,70.0,60.0,60.0,0.0,0.0
740,69.0,60.0,60.0,0.0,0.0
741,70.0,40.0,60.0,0.0,0.0
742,72.0,40.0,40.0,0.0,0.0
743,67.0,0.0,480.0,1.0,0.0
744,70.0,40.0,40.0,0.0,0.0
745,72.0,40.0,40.0,0.0,0.0
746,70.0,20.0,40.0,0.0,0.0
747,41.0,20.0,60.0,3.0,0.0
748,72.0,40.0,40.0,0.0,0.0
749,43.0,60.0,60.0,3.0,0.0
750,70.0,0.0,40.0,0.0,0.0
751,72.0,0.0,60.0,0.0,0.0
752,45.0,60.0,60.0,3.0,0.0
753,70.0,0.0,60.0,0.0,0.0
754,46.0,60.0,60.0,3.0,0.0
755,48.0,0.0,60.0,3.0,0.0
756,69.0,60.0,60.0,0.0,0.0
757,50.0,0.0,60.0,3.0,0.0
758,70.0,360.0,60.0,0.0,0.0
759,51.0,120.0,360.0,3.0,0.0
760,69.0,60.0,480.0,1.0,0.0
761,72.0,60.0,540.0,0.0,0.0
762,48.0,0.0,120.0,3.0,0.0
763,45.0,0.0,360.0,3.0,0.0
764,70.0,60.0,60.0,0.0,0.0
765,69.0,60.0,60.0,0.0,0.0
766,67.0,60.0,60.0,0.0,0.0
767,65.0,60.0,60.0,0.0,0.0
768,63.0,60.0,60.0,0.0,0.0
769,62.0,60.0,60.0,0.0,0.0
770,41.0,360.0,120.0,3.0,0.0
771,60.0,0.0,60.0,0.0,0.0
772,58.0,120.0,360.0,0.0,0.0
773,50.0,60.0,780.0,3.0,0.0
774,62.0,60.0,120.0,0.0,0.0
775,65.0,60.0,60.0,0.0,0.0
776,63.0,180.0,60.0,0.0,0.0
777,65.0,60.0,240.0,0.0,0.0
778,51.0,0.0,60.0,3.0,0.0
779,50.0,60.0,60.0,3.0,0.0
780,67.0,0.0,120.0,0.0,0.0
781,48.0,300.0,60.0,3.0,0.0
782,62.0,300.0,480.0,2.0,0.0
783,68.0,60.0,780.0,0.0,0.0
784,65.0,0.0,480.0,1.0,0.0
785,46.0,60.0,300.0,3.0,0.0
786,44.0,60.0,60.0,3.0,0.0
787,43.0,60.0,60.0,3.0,0.0
788,41.0,0.0,60.0,3.0,0.0
789,39.0,0.0,300.0,3.0,0.0
790,46.0,60.0,60.0,3.0,0.0
791,68.0,0.0,60.0,0.0,0.0
792,67.0,60.0,60.0,0.0,0.0
793,48.0,0.0,60.0,3.0,0.0
794,50.0,0.0,60.0,3.0,0.0
795,65.0,60.0,60.0,0.0,0.0
796,51.0,60.0,60.0,3.0,0.0
797,67.0,60.0,300.0,0.0,0.0
798,50.0,180.0,60.0,3.0,0.0
799,51.0,60.0,240.0,3.0,0.0
800,69.0,0.0,60.0,0.0,0.0
801,70.0,60.0,60.0,0.0,0.0
802,39.0,0.0,120.0,3.0,0.0
803,72.0,60.0,15.0,0.0,0.0
804,70.0,60.0,60.0,0.0,0.0
805,72.0,120.0,60.0,0.0,0.0
806,70.0,60.0,120.0,0.0,0.0
807,69.0,0.0,60.0,0.0,0.0
808,55.0,0.0,120.0,2.0,0.0
809,70.0,60.0,60.0,0.0,0.0
810,51.0,60.0,15.0,3.0,0.0
811,72.0,0.0,60.0,0.0,0.0
812,57.0,300.0,480.0,2.0,0.0
813,65.0,60.0,300.0,0.0,0.0
814,51.0,300.0,15.0,3.0,0.0
815,72.0,60.0,60.0,0.0,0.0
816,74.0,60.0,60.0,0.0,0.0
817,75.0,0.0,60.0,0.0,0.0
818,77.0,0.0,360.0,0.0,0.0
819,51.0,60.0,15.0,3.0,0.0
820,50.0,60.0,60.0,3.0,0.0
821,69.0,0.0,120.0,0.0,0.0
822,48.0,180.0,60.0,3.0,0.0
823,70.0,60.0,480.0,0.0,0.0
824,50.0,60.0,180.0,3.0,0.0
825,46.0,60.0,60.0,3.0,0.0
826,48.0,60.0,60.0,3.0,0.0
827,50.0,60.0,60.0,3.0,0.0
828,51.0,60.0,60.0,3.0,0.0
829,53.0,0.0,60.0,3.0,0.0
830,55.0,120.0,360.0,3.0,0.0
831,72.0,60.0,60.0,0.0,0.0
832,70.0,60.0,60.0,0.0,0.0
833,69.0,60.0,60.0,0.0,0.0
834,70.0,120.0,60.0,0.0,0.0
835,72.0,60.0,240.0,0.0,0.0
836,51.0,0.0,120.0,3.0,0.0
837,69.0,240.0,960.0,1.0,0.0
838,53.0,240.0,480.0,3.0,0.0
839,74.0,60.0,60.0,0.0,0.0
840,72.0,60.0,60.0,0.0,0.0
841,70.0,60.0,60.0,0.0,0.0
842,72.0,40.0,60.0,0.0,0.0
843,74.0,40.0,40.0,0.0,0.0
844,72.0,40.0,40.0,0.0,0.0
845,74.0,40.0,40.0,0.0,0.0
846,72.0,40.0,40.0,0.0,0.0
847,74.0,40.0,40.0,0.0,0.0
848,72.0,240.0,270.0,0.0,0.0
849,41.0,0.0,480.0,3.0,0.0
850,70.0,0.0,240.0,0.0,0.0
851,34.0,0.0,480.0,3.0,0.0
852,70.0,120.0,240.0,0.0,0.0
853,77.0,120.0,120.0,0.0,0.0
854,75.0,120.0,120.0,0.0,0.0
855,74.0,120.0,120.0,0.0,0.0
856,72.0,240.0,120.0,0.0,0.0
857,74.0,60.0,240.0,0.0,0.0
858,70.0,0.0,120.0,1.0,0.0
859,77.0,60.0,60.0,0.0,0.0
860,75.0,60.0,60.0,0.0,0.0
861,68.0,0.0,120.0,1.0,0.0
862,74.0,60.0,60.0,0.0,0.0
863,75.0,120.0,60.0,0.0,0.0
864,77.0,0.0,240.0,0.0,0.0
865,67.0,120.0,120.0,1.0,0.0
866,65.0,120.0,120.0,1.0,0.0
867,70.0,120.0,120.0,0.0,0.0
868,67.0,120.0,240.0,1.0,0.0
869,74.0,0.0,120.0,0.0,0.0
870,68.0,0.0,240.0,1.0,0.0
871,72.0,120.0,120.0,0.0,0.0
872,75.0,120.0,120.0,0.0,0.0
873,74.0,120.0,120.0,0.0,0.0
874,70.0,120.0,240.0,1.0,0.0
875,77.0,0.0,120.0,0.0,0.0
876,75.0,120.0,240.0,0.0,0.0
877,63.0,120.0,120.0,1.0,0.0
878,67.0,0.0,120.0,1.0,0.0
879,65.0,120.0,120.0,1.0,0.0
880,74.0,120.0,240.0,0.0,0.0
881,68.0,0.0,120.0,1.0,0.0
882,67.0,120.0,120.0,1.0,0.0
883,75.0,240.0,240.0,0.0,0.0
884,70.0,0.0,120.0,1.0,0.0
885,72.0,120.0,240.0,0.0,0.0
886,68.0,120.0,840.0,1.0,0.0
887,65.0,120.0,120.0,2.0,0.0
888,71.0,0.0,240.0,0.0,0.0
889,63.0,120.0,120.0,2.0,0.0
890,62.0,120.0,120.0,2.0,0.0
891,72.0,120.0,240.0,0.0,0.0
892,60.0,0.0,120.0,2.0,0.0
893,62.0,0.0,240.0,2.0,0.0
894,77.0,0.0,960.0,0.0,0.0
895,75.0,120.0,120.0,1.0,0.0
896,63.0,120.0,240.0,2.0,0.0
897,74.0,120.0,120.0,1.0,0.0
898,72.0,0.0,120.0,1.0,0.0
899,71.0,120.0,120.0,1.0,0.0
900,65.0,120.0,240.0,2.0,0.0
901,72.0,0.0,120.0,1.0,0.0
902,67.0,120.0,840.0,1.0,0.0
903,59.0,120.0,120.0,2.0,0.0
904,62.0,120.0,120.0,2.0,0.0
905,75.0,0.0,120.0,0.0,0.0
906,60.0,120.0,120.0,2.0,0.0
907,72.0,120.0,120.0,0.0,0.0
908,63.0,0.0,120.0,2.0,0.0
909,62.0,120.0,120.0,2.0,0.0
910,74.0,0.0,120.0,0.0,0.0
911,71.0,120.0,120.0,0.0,0.0
912,65.0,0.0,120.0,2.0,0.0
913,63.0,120.0,240.0,2.0,0.0
914,79.0,120.0,840.0,0.0,0.0
915,69.0,0.0,120.0,1.0,0.0
916,62.0,0.0,240.0,2.0,0.0
917,71.0,0.0,120.0,1.0,0.0
918,55.0,120.0,120.0,3.0,0.0
919,72.0,120.0,120.0,1.0,0.0
920,53.0,0.0,120.0,3.0,0.0
921,51.0,0.0,120.0,3.0,0.0
922,74.0,120.0,120.0,1.0,0.0
923,50.0,0.0,120.0,3.0,0.0
924,71.0,120.0,120.0,1.0,0.0
925,51.0,120.0,240.0,3.0,0.0
926,72.0,0.0,240.0,1.0,0.0
927,80.0,0.0,120.0,0.0,0.0
928,53.0,0.0,240.0,3.0,0.0
929,60.0,120.0,240.0,2.0,0.0
930,79.0,120.0,120.0,0.0,0.0
931,77.0,0.0,120.0,0.0,0.0
932,75.0,120.0,120.0,0.0,0.0
933,55.0,120.0,240.0,3.0,0.0
934,59.0,0.0,240.0,2.0,0.0
935,74.0,0.0,120.0,0.0,0.0
936,48.0,120.0,120.0,3.0,0.0
937,75.0,0.0,120.0,0.0,0.0
938,60.0,120.0,1200.0,2.0,0.0
939,51.0,0.0,120.0,3.0,0.0
940,72.0,120.0,120.0,0.0,0.0
941,50.0,0.0,120.0,3.0,0.0
942,77.0,120.0,120.0,0.0,0.0
943,53.0,0.0,120.0,3.0,0.0
944,72.0,120.0,120.0,0.0,0.0
945,51.0,120.0,120.0,3.0,0.0
946,79.0,0.0,120.0,0.0,0.0
947,72.0,0.0,120.0,0.0,0.0
948,55.0,120.0,120.0,3.0,0.0
949,53.0,120.0,240.0,3.0,0.0
950,80.0,120.0,120.0,0.0,0.0
951,79.0,0.0,120.0,0.0,0.0
952,77.0,120.0,120.0,0.0,0.0
953,55.0,0.0,240.0,3.0,0.0
954,75.0,0.0,120.0,0.0,0.0
955,74.0,120.0,120.0,0.0,0.0
956,56.0,0.0,240.0,3.0,0.0
957,72.0,120.0,120.0,0.0,0.0
958,65.0,120.0,240.0,1.0,0.0
959,70.0,120.0,120.0,0.0,0.0
960,50.0,0.0,120.0,3.0,0.0
961,53.0,0.0,120.0,3.0,0.0
962,74.0,0.0,120.0,0.0,0.0
963,72.0,0.0,120.0,0.0,0.0
964,67.0,120.0,240.0,1.0,0.0
965,51.0,120.0,120.0,3.0,0.0
966,75.0,0.0,120.0,0.0,0.0
967,55.0,0.0,120.0,3.0,0.0
968,53.0,120.0,120.0,3.0,0.0
969,74.0,0.0,120.0,0.0,0.0
970,68.0,0.0,240.0,1.0,0.0
971,56.0,0.0,120.0,3.0,0.0
972,77.0,120.0,120.0,0.0,0.0
973,55.0,0.0,240.0,3.0,0.0
974,70.0,0.0,240.0,1.0,0.0
975,75.0,120.0,120.0,0.0,0.0
976,77.0,60.0,120.0,0.0,0.0
977,56.0,60.0,240.0,3.0,0.0
978,72.0,0.0,240.0,1.0,0.0
979,79.0,60.0,60.0,0.0,0.0
980,77.0,60.0,60.0,0.0,0.0
981,79.0,60.0,60.0,0.0,0.0
982,77.0,0.0,60.0,0.0,0.0
983,74.0,120.0,240.0,1.0,0.0
984,58.0,0.0,240.0,3.0,0.0
985,79.0,60.0,60.0,0.0,0.0
986,77.0,60.0,60.0,0.0,0.0
987,75.0,60.0,60.0,0.0,0.0
988,77.0,0.0,60.0,0.0,0.0
989,79.0,0.0,480.0,0.0,0.0
990,51.0,120.0,120.0,3.0,0.0
991,75.0,120.0,480.0,1.0,0.0
992,55.0,120.0,120.0,3.0,0.0
993,53.0,120.0,120.0,3.0,0.0
994,56.0,0.0,120.0,3.0,0.0
995,55.0,120.0,120.0,3.0,0.0
996,75.0,0.0,240.0,0.0,0.0
997,70.0,240.0,240.0,1.0,0.0
998,58.0,0.0,120.0,3.0,0.0
999,56.0,0.0,240.0,3.0,0.0
1000,63.0,240.0,240.0,1.0,0.0
1001,72.0,0.0,240.0,0.0,0.0
1002,65.0,0.0,240.0,1.0,0.0
1003,74.0,0.0,240.0,0.0,0.0
1004,53.0,240.0,240.0,3.0,0.0
1005,62.0,0.0,240.0,1.0,0.0
1006,71.0,0.0,240.0,0.0,0.0
1007,55.0,240.0,240.0,3.0,0.0
1008,72.0,0.0,480.0,0.0,0.0
1009,63.0,60.0,240.0,1.0,0.0
1010,48.0,0.0,240.0,3.0,0.0
1011,60.0,60.0,120.0,2.0,0.0
1012,65.0,60.0,60.0,1.0,0.0
1013,64.0,0.0,60.0,1.0,0.0
1014,65.0,60.0,60.0,1.0,0.0
1015,58.0,60.0,120.0,2.0,0.0
1016,64.0,0.0,60.0,1.0,0.0
1017,56.0,60.0,120.0,2.0,0.0
1018,65.0,60.0,60.0,1.0,0.0
1019,64.0,0.0,60.0,1.0,0.0
1020,55.0,240.0,120.0,2.0,0.0
1021,62.0,60.0,60.0,1.0,0.0
1022,64.0,0.0,60.0,1.0,0.0
1023,65.0,0.0,480.0,1.0,0.0
1024,56.0,120.0,240.0,2.0,0.0
1025,58.0,0.0,240.0,2.0,0.0
1026,72.0,120.0,120.0,0.0,0.0
1027,70.0,120.0,120.0,0.0,0.0
1028,60.0,120.0,240.0,2.0,0.0
1029,68.0,120.0,120.0,0.0,0.0
1030,64.0,0.0,240.0,1.0,0.0
1031,67.0,0.0,120.0,0.0,0.0
1032,53.0,120.0,120.0,2.0,0.0
1033,65.0,120.0,240.0,1.0,0.0
1034,68.0,0.0,240.0,0.0,0.0
1035,56.0,0.0,120.0,2.0,0.0
1036,63.0,0.0,480.0,1.0,0.0
1037,70.0,120.0,240.0,0.0,0.0
1038,55.0,120.0,120.0,2.0,0.0
1039,58.0,0.0,120.0,2.0,0.0
1040,72.0,120.0,240.0,0.0,0.0
1041,57.0,120.0,120.0,2.0,0.0
1042,60.0,0.0,120.0,2.0,0.0
1043,65.0,120.0,120.0,0.0,0.0
1044,62.0,0.0,240.0,1.0,0.0
1045,58.0,0.0,960.0,2.0,0.0
1046,68.0,120.0,120.0,0.0,0.0
1047,67.0,120.0,120.0,0.0,0.0
1048,63.0,120.0,240.0,1.0,0.0
1049,70.0,0.0,120.0,0.0,0.0
1050,60.0,0.0,240.0,1.0,0.0
1051,69.0,120.0,120.0,0.0,0.0
1052,72.0,60.0,120.0,0.0,0.0
1053,62.0,0.0,120.0,1.0,0.0
1054,70.0,60.0,60.0,0.0,0.0
1055,72.0,120.0,60.0,0.0,0.0
1056,74.0,60.0,120.0,0.0,0.0
1057,46.0,0.0,120.0,3.0,0.0
1058,75.0,60.0,60.0,0.0,0.0
1059,74.0,60.0,60.0,0.0,0.0
1060,44.0,30.0,120.0,3.0,0.0
1061,72.0,60.0,60.0,0.0,0.0
1062,74.0,0.0,60.0,0.0,0.0
1063,75.0,30.0,30.0,0.0,0.0
1064,43.0,0.0,120.0,3.0,0.0
1065,74.0,30.0,30.0,0.0,0.0
1066,75.0,30.0,30.0,0.0,0.0
1067,74.0,60.0,30.0,0.0,0.0
1068,41.0,0.0,120.0,3.0,0.0
1069,72.0,60.0,60.0,0.0,0.0
1070,74.0,240.0,60.0,0.0,0.0
1071,75.0,0.0,240.0,0.0,0.0
1072,43.0,120.0,240.0,3.0,0.0
1073,74.0,120.0,120.0,0.0,0.0
1074,51.0,120.0,240.0,2.0,0.0
1075,44.0,0.0,240.0,3.0,0.0
1076,72.0,0.0,120.0,0.0,0.0
1077,70.0,120.0,120.0,0.0,0.0
1078,50.0,0.0,240.0,2.0,0.0
1079,46.0,0.0,240.0,3.0,0.0
1080,68.0,120.0,120.0,0.0,0.0
1081,51.0,0.0,960.0,2.0,0.0
1082,67.0,0.0,120.0,0.0,0.0
1083,39.0,120.0,120.0,3.0,0.0
1084,70.0,0.0,120.0,0.0,0.0
1085,43.0,120.0,120.0,3.0,0.0
1086,68.0,120.0,120.0,0.0,0.0
1087,41.0,0.0,120.0,3.0,0.0
1088,44.0,0.0,120.0,3.0,0.0
1089,72.0,120.0,120.0,0.0,0.0
1090,43.0,120.0,120.0,3.0,0.0
1091,70.0,0.0,120.0,0.0,0.0
1092,46.0,0.0,120.0,3.0,0.0
1093,73.0,120.0,120.0,0.0,0.0
1094,72.0,120.0,840.0,0.0,0.0
1095,44.0,120.0,120.0,3.0,0.0
1096,43.0,120.0,120.0,3.0,0.0
1097,41.0,120.0,120.0,3.0,0.0
1098,62.0,0.0,240.0,1.0,0.0
1099,39.0,60.0,120.0,3.0,0.0
1100,65.0,60.0,60.0,1.0,0.0
1101,38.0,0.0,120.0,3.0,0.0
1102,63.0,60.0,60.0,1.0,0.0
1103,36.0,0.0,120.0,3.0,0.0
1104,62.0,60.0,60.0,1.0,0.0
1105,63.0,120.0,60.0,1.0,0.0
1106,38.0,0.0,240.0,3.0,0.0
1107,65.0,60.0,240.0,1.0,0.0
1108,70.0,0.0,120.0,0.0,0.0
1109,68.0,0.0,120.0,0.0,0.0
1110,41.0,60.0,60.0,3.0,0.0
1111,39.0,60.0,60.0,3.0,0.0
1112,38.0,60.0,60.0,3.0,0.0
1113,67.0,120.0,120.0,0.0,0.0
1114,39.0,0.0,60.0,3.0,0.0
1115,41.0,0.0,240.0,3.0,0.0
1116,68.0,120.0,120.0,0.0,0.0
1117,74.0,120.0,120.0,0.0,0.0
1118,77.0,120.0,120.0,0.0,0.0
1119,34.0,0.0,120.0,3.0,0.0
1120,38.0,0.0,120.0,3.0,0.0
1121,70.0,120.0,120.0,0.0,0.0
1122,68.0,120.0,120.0,0.0,0.0
1123,36.0,0.0,120.0,3.0,0.0
1124,39.0,0.0,120.0,3.0,0.0
1125,67.0,120.0,120.0,0.0,0.0
1126,38.0,0.0,120.0,3.0,0.0
1127,68.0,120.0,120.0,0.0,0.0
1128,41.0,0.0,120.0,3.0,0.0
1129,65.0,120.0,120.0,0.0,0.0
1130,39.0,60.0,240.0,3.0,0.0
1131,67.0,120.0,120.0,0.0,0.0
1132,72.0,0.0,120.0,0.0,0.0
1133,70.0,0.0,120.0,0.0,0.0
1134,43.0,60.0,60.0,3.0,0.0
1135,41.0,60.0,60.0,3.0,0.0
1136,68.0,120.0,120.0,0.0,0.0
1137,39.0,60.0,60.0,3.0,0.0
1138,41.0,0.0,60.0,3.0,0.0
1139,70.0,120.0,120.0,0.0,0.0
1140,43.0,120.0,240.0,3.0,0.0
1141,76.0,0.0,120.0,0.0,0.0
1142,79.0,0.0,120.0,0.0,0.0
1143,36.0,120.0,120.0,3.0,0.0
1144,40.0,120.0,120.0,3.0,0.0
1145,72.0,0.0,120.0,0.0,0.0
1146,70.0,0.0,120.0,0.0,0.0
1147,38.0,120.0,120.0,3.0,0.0
1148,68.0,120.0,120.0,0.0,0.0
1149,41.0,0.0,120.0,3.0,0.0
1150,40.0,120.0,120.0,3.0,0.0
1151,70.0,0.0,120.0,0.0,0.0
1152,43.0,0.0,120.0,3.0,0.0
1153,67.0,120.0,120.0,0.0,0.0
1154,41.0,120.0,120.0,3.0,0.0
1155,68.0,0.0,840.0,0.0,0.0
1156,63.0,0.0,120.0,1.0,0.0
1157,48.0,120.0,120.0,3.0,0.0
1158,62.0,0.0,120.0,1.0,0.0
1159,53.0,120.0,120.0,3.0,0.0
1160,63.0,120.0,120.0,1.0,0.0
1161,51.0,0.0,120.0,3.0,0.0
1162,65.0,0.0,120.0,1.0,0.0
1163,50.0,120.0,120.0,3.0,0.0
1164,62.0,0.0,120.0,1.0,0.0
1165,48.0,120.0,120.0,3.0,0.0
1166,50.0,120.0,120.0,3.0,0.0
1167,58.0,120.0,840.0,1.0,0.0
1168,51.0,120.0,120.0,3.0,0.0
1169,67.0,0.0,120.0,0.0,0.0
1170,65.0,120.0,120.0,0.0,0.0
1171,50.0,0.0,120.0,3.0,0.0
1172,67.0,0.0,120.0,0.0,0.0
1173,48.0,120.0,120.0,3.0,0.0
1174,68.0,120.0,120.0,0.0,0.0
1175,46.0,0.0,120.0,3.0,0.0
1176,44.0,0.0,120.0,3.0,0.0
1177,65.0,120.0,120.0,0.0,0.0
1178,43.0,0.0,120.0,3.0,0.0
1179,70.0,120.0,480.0,0.0,0.0
1180,62.0,120.0,120.0,1.0,0.0
1181,46.0,0.0,120.0,3.0,0.0
1182,60.0,120.0,120.0,1.0,0.0
1183,44.0,0.0,120.0,3.0,0.0
1184,48.0,0.0,120.0,3.0,0.0
1185,63.0,0.0,120.0,1.0,0.0
1186,46.0,120.0,120.0,3.0,0.0
1187,62.0,240.0,240.0,1.0,0.0
1188,67.0,0.0,240.0,0.0,0.0
1189,50.0,0.0,120.0,3.0,0.0
1190,63.0,240.0,240.0,0.0,0.0
1191,48.0,0.0,240.0,3.0,0.0
1192,55.0,0.0,240.0,1.0,0.0
1193,56.0,240.0,240.0,1.0,0.0
1194,65.0,0.0,240.0,0.0,0.0
1195,44.0,0.0,240.0,3.0,0.0
1196,62.0,120.0,240.0,0.0,0.0
1197,46.0,0.0,240.0,3.0,0.0
1198,53.0,0.0,240.0,1.0,0.0
1199,55.0,0.0,480.0,1.0,0.0
1200,63.0,0.0,480.0,0.0,0.0
1201,39.0,120.0,120.0,3.0,0.0
1202,38.0,120.0,120.0,3.0,0.0
1203,39.0,120.0,120.0,3.0,0.0
1204,41.0,120.0,120.0,3.0,0.0
1205,43.0,120.0,120.0,3.0,0.0
1206,44.0,240.0,120.0,3.0,0.0
1207,46.0,120.0,240.0,3.0,0.0
1208,34.0,0.0,240.0,3.0,0.0
1209,77.0,120.0,120.0,0.0,0.0
1210,75.0,120.0,120.0,0.0,0.0
1211,74.0,120.0,120.0,0.0,0.0
1212,72.0,240.0,120.0,0.0,0.0
1213,74.0,60.0,240.0,0.0,0.0
1214,70.0,0.0,120.0,1.0,0.0
1215,77.0,60.0,60.0,0.0,0.0
1216,75.0,60.0,60.0,0.0,0.0
1217,74.0,60.0,60.0,0.0,0.0
1218,68.0,120.0,120.0,1.0,0.0
1219,75.0,0.0,60.0,0.0,0.0
1220,77.0,120.0,240.0,0.0,0.0
1221,67.0,120.0,120.0,1.0,0.0
1222,65.0,0.0,120.0,1.0,0.0
1223,67.0,120.0,240.0,1.0,0.0
1224,70.0,120.0,120.0,0.0,0.0
1225,74.0,0.0,120.0,0.0,0.0
1226,72.0,120.0,120.0,0.0,0.0
1227,68.0,0.0,240.0,1.0,0.0
1228,75.0,120.0,120.0,0.0,0.0
1229,70.0,0.0,240.0,1.0,0.0
1230,74.0,120.0,120.0,0.0,0.0
1231,77.0,120.0,120.0,0.0,0.0
1232,75.0,120.0,240.0,0.0,0.0
1233,63.0,120.0,120.0,1.0,0.0
1234,67.0,0.0,120.0,1.0,0.0
1235,74.0,0.0,240.0,0.0,0.0
1236,65.0,120.0,120.0,1.0,0.0
1237,68.0,120.0,120.0,1.0,0.0
1238,75.0,240.0,240.0,0.0,0.0
1239,67.0,120.0,120.0,1.0,0.0
1240,70.0,0.0,120.0,1.0,0.0
1241,68.0,120.0,840.0,1.0,0.0
1242,72.0,120.0,240.0,0.0,0.0
1243,65.0,120.0,120.0,2.0,0.0
1244,71.0,120.0,240.0,0.0,0.0
1245,63.0,0.0,120.0,2.0,0.0
1246,62.0,120.0,120.0,2.0,0.0
1247,72.0,120.0,240.0,0.0,0.0
1248,60.0,0.0,120.0,2.0,0.0
1249,77.0,0.0,960.0,0.0,0.0
1250,62.0,0.0,240.0,2.0,0.0
1251,75.0,120.0,120.0,1.0,0.0
1252,63.0,120.0,240.0,2.0,0.0
1253,74.0,120.0,120.0,1.0,0.0
1254,72.0,0.0,120.0,1.0,0.0
1255,65.0,0.0,240.0,2.0,0.0
1256,71.0,120.0,120.0,1.0,0.0
1257,72.0,120.0,120.0,1.0,0.0
1258,67.0,120.0,840.0,1.0,0.0
1259,59.0,120.0,120.0,2.0,0.0
1260,62.0,120.0,120.0,2.0,0.0
1261,75.0,120.0,120.0,0.0,0.0
1262,60.0,0.0,120.0,2.0,0.0
1263,63.0,0.0,120.0,2.0,0.0
1264,72.0,120.0,120.0,0.0,0.0
1265,62.0,0.0,120.0,2.0,0.0
1266,74.0,120.0,120.0,0.0,0.0
1267,71.0,120.0,120.0,0.0,0.0
1268,65.0,0.0,120.0,2.0,0.0
1269,79.0,120.0,840.0,0.0,0.0
1270,63.0,0.0,240.0,2.0,0.0
1271,69.0,120.0,120.0,1.0,0.0
1272,55.0,0.0,120.0,3.0,0.0
1273,62.0,0.0,240.0,2.0,0.0
1274,71.0,120.0,120.0,1.0,0.0
1275,53.0,0.0,120.0,3.0,0.0
1276,72.0,120.0,120.0,1.0,0.0
1277,74.0,0.0,120.0,1.0,0.0
1278,51.0,120.0,120.0,3.0,0.0
1279,71.0,0.0,120.0,1.0,0.0
1280,50.0,120.0,120.0,3.0,0.0
1281,51.0,120.0,240.0,3.0,0.0
1282,72.0,0.0,240.0,1.0,0.0
1283,80.0,0.0,120.0,0.0,0.0
1284,53.0,0.0,240.0,3.0,0.0
1285,60.0,0.0,240.0,2.0,0.0
1286,79.0,120.0,120.0,0.0,0.0
1287,77.0,120.0,120.0,0.0,0.0
1288,55.0,120.0,240.0,3.0,0.0
1289,59.0,0.0,240.0,2.0,0.0
1290,75.0,120.0,120.0,0.0,0.0
1291,74.0,0.0,120.0,0.0,0.0
1292,75.0,0.0,120.0,0.0,0.0
1293,60.0,0.0,1200.0,2.0,0.0
1294,48.0,120.0,120.0,3.0,0.0
1295,72.0,120.0,120.0,0.0,0.0
1296,51.0,0.0,120.0,3.0,0.0
1297,50.0,0.0,120.0,3.0,0.0
1298,77.0,120.0,120.0,0.0,0.0
1299,53.0,120.0,120.0,3.0,0.0
1300,72.0,0.0,120.0,0.0,0.0
1301,79.0,120.0,120.0,0.0,0.0
1302,51.0,0.0,120.0,3.0,0.0
1303,55.0,0.0,120.0,3.0,0.0
1304,72.0,120.0,120.0,0.0,0.0
1305,80.0,120.0,120.0,0.0,0.0
1306,53.0,0.0,240.0,3.0,0.0
1307,79.0,120.0,120.0,0.0,0.0
1308,55.0,0.0,240.0,3.0,0.0
1309,77.0,120.0,120.0,0.0,0.0
1310,75.0,120.0,120.0,0.0,0.0
1311,56.0,0.0,240.0,3.0,0.0
1312,74.0,120.0,120.0,0.0,0.0
1313,72.0,120.0,120.0,0.0,0.0
1314,50.0,0.0,120.0,3.0,0.0
1315,70.0,120.0,120.0,0.0,0.0
1316,65.0,0.0,240.0,1.0,0.0
1317,74.0,120.0,120.0,0.0,0.0
1318,53.0,0.0,120.0,3.0,0.0
1319,67.0,0.0,240.0,1.0,0.0
1320,72.0,120.0,120.0,0.0,0.0
1321,51.0,0.0,120.0,3.0,0.0
1322,55.0,0.0,120.0,3.0,0.0
1323,75.0,120.0,120.0,0.0,0.0
1324,68.0,0.0,240.0,1.0,0.0
1325,53.0,120.0,120.0,3.0,0.0
1326,74.0,0.0,120.0,0.0,0.0
1327,77.0,120.0,120.0,0.0,0.0
1328,56.0,0.0,120.0,3.0,0.0
1329,75.0,120.0,120.0,0.0,0.0
1330,55.0,60.0,240.0,3.0,0.0
1331,70.0,0.0,240.0,1.0,0.0
1332,77.0,0.0,120.0,0.0,0.0
1333,72.0,0.0,240.0,1.0,0.0
1334,79.0,60.0,60.0,0.0,0.0
1335,56.0,60.0,240.0,3.0,0.0
1336,77.0,60.0,60.0,0.0,0.0
1337,79.0,60.0,60.0,0.0,0.0
1338,77.0,0.0,60.0,0.0,0.0
1339,58.0,0.0,240.0,3.0,0.0
1340,74.0,120.0,240.0,1.0,0.0
1341,79.0,60.0,60.0,0.0,0.0
1342,77.0,60.0,60.0,0.0,0.0
1343,75.0,60.0,60.0,0.0,0.0
1344,77.0,0.0,60.0,0.0,0.0
1345,75.0,0.0,480.0,1.0,0.0
1346,79.0,120.0,480.0,0.0,0.0
1347,51.0,120.0,120.0,3.0,0.0
1348,55.0,120.0,120.0,3.0,0.0
1349,53.0,120.0,120.0,3.0,0.0
1350,56.0,0.0,120.0,3.0,0.0
1351,70.0,0.0,240.0,1.0,0.0
1352,75.0,240.0,240.0,0.0,0.0
1353,55.0,120.0,120.0,3.0,0.0
1354,58.0,0.0,120.0,3.0,0.0
1355,56.0,0.0,240.0,3.0,0.0
1356,63.0,0.0,240.0,1.0,0.0
1357,72.0,240.0,240.0,0.0,0.0
1358,65.0,240.0,240.0,1.0,0.0
1359,53.0,0.0,240.0,3.0,0.0
1360,74.0,0.0,240.0,0.0,0.0
1361,62.0,240.0,240.0,1.0,0.0
1362,71.0,0.0,240.0,0.0,0.0
1363,55.0,0.0,240.0,3.0,0.0
1364,48.0,60.0,240.0,3.0,0.0
1365,63.0,0.0,240.0,1.0,0.0
1366,72.0,60.0,480.0,0.0,0.0
1367,65.0,60.0,60.0,1.0,0.0
1368,60.0,60.0,120.0,2.0,0.0
1369,64.0,0.0,60.0,1.0,0.0
1370,65.0,60.0,60.0,1.0,0.0
1371,58.0,0.0,120.0,2.0,0.0
1372,64.0,0.0,60.0,1.0,0.0
1373,56.0,60.0,120.0,2.0,0.0
1374,65.0,60.0,60.0,1.0,0.0
1375,64.0,0.0,60.0,1.0,0.0
1376,55.0,240.0,120.0,2.0,0.0
1377,62.0,60.0,60.0,1.0,0.0
1378,64.0,0.0,60.0,1.0,0.0
1379,65.0,0.0,480.0,1.0,0.0
1380,56.0,120.0,240.0,2.0,0.0
1381,72.0,120.0,120.0,0.0,0.0
1382,58.0,0.0,240.0,2.0,0.0
1383,70.0,120.0,120.0,0.0,0.0
1384,60.0,0.0,240.0,2.0,0.0
1385,64.0,0.0,240.0,1.0,0.0
1386,68.0,120.0,120.0,0.0,0.0
1387,67.0,120.0,120.0,0.0,0.0
1388,53.0,120.0,120.0,2.0,0.0
1389,65.0,120.0,240.0,1.0,0.0
1390,68.0,0.0,240.0,0.0,0.0
1391,56.0,0.0,120.0,2.0,0.0
1392,55.0,120.0,120.0,2.0,0.0
1393,70.0,0.0,240.0,0.0,0.0
1394,63.0,120.0,480.0,1.0,0.0
1395,58.0,120.0,120.0,2.0,0.0
1396,72.0,0.0,240.0,0.0,0.0
1397,57.0,120.0,120.0,2.0,0.0
1398,60.0,0.0,120.0,2.0,0.0
1399,58.0,60.0,960.0,2.0,0.0
1400,65.0,120.0,120.0,0.0,0.0
1401,62.0,120.0,240.0,1.0,0.0
1402,68.0,0.0,120.0,0.0,0.0
1403,67.0,120.0,120.0,0.0,0.0
1404,63.0,0.0,240.0,1.0,0.0
1405,70.0,120.0,120.0,0.0,0.0
1406,60.0,60.0,240.0,1.0,0.0
1407,69.0,120.0,120.0,0.0,0.0
1408,72.0,0.0,120.0,0.0,0.0
1409,70.0,60.0,60.0,0.0,0.0
1410,62.0,0.0,120.0,1.0,0.0
1411,72.0,120.0,60.0,0.0,0.0
1412,74.0,0.0,120.0,0.0,0.0
1413,75.0,60.0,60.0,0.0,0.0
1414,46.0,0.0,120.0,3.0,0.0
1415,74.0,60.0,60.0,0.0,0.0
1416,72.0,60.0,60.0,0.0,0.0
1417,44.0,0.0,120.0,3.0,0.0
1418,74.0,30.0,60.0,0.0,0.0
1419,43.0,60.0,120.0,3.0,0.0
1420,75.0,30.0,30.0,0.0,0.0
1421,74.0,30.0,30.0,0.0,0.0
1422,75.0,30.0,30.0,0.0,0.0
1423,74.0,0.0,30.0,0.0,0.0
1424,72.0,60.0,60.0,0.0,0.0
1425,41.0,0.0,120.0,3.0,0.0
1426,74.0,240.0,60.0,0.0,0.0
1427,75.0,120.0,240.0,0.0,0.0
1428,43.0,0.0,240.0,3.0,0.0
1429,44.0,120.0,240.0,3.0,0.0
1430,51.0,0.0,240.0,2.0,0.0
1431,74.0,120.0,120.0,0.0,0.0
1432,72.0,0.0,120.0,0.0,0.0
1433,50.0,120.0,240.0,2.0,0.0
1434,70.0,120.0,120.0,0.0,0.0
1435,46.0,0.0,240.0,3.0,0.0
1436,68.0,0.0,120.0,0.0,0.0
1437,39.0,0.0,120.0,3.0,0.0
1438,67.0,120.0,120.0,0.0,0.0
1439,51.0,120.0,960.0,2.0,0.0
1440,70.0,120.0,120.0,0.0,0.0
1441,43.0,0.0,120.0,3.0,0.0
1442,41.0,120.0,120.0,3.0,0.0
1443,68.0,0.0,120.0,0.0,0.0
1444,72.0,0.0,120.0,0.0,0.0
1445,44.0,120.0,120.0,3.0,0.0
1446,43.0,0.0,120.0,3.0,0.0
1447,70.0,120.0,120.0,0.0,0.0
1448,73.0,120.0,120.0,0.0,0.0
1449,46.0,0.0,120.0,3.0,0.0
1450,72.0,120.0,840.0,0.0,0.0
1451,44.0,120.0,120.0,3.0,0.0
1452,43.0,0.0,120.0,3.0,0.0
1453,41.0,120.0,120.0,3.0,0.0
1454,62.0,0.0,240.0,1.0,0.0
1455,39.0,60.0,120.0,3.0,0.0
1456,65.0,60.0,60.0,1.0,0.0
1457,38.0,0.0,120.0,3.0,0.0
1458,63.0,60.0,60.0,1.0,0.0
1459,36.0,0.0,120.0,3.0,0.0
1460,62.0,60.0,60.0,1.0,0.0
1461,63.0,120.0,60.0,1.0,0.0
1462,65.0,0.0,240.0,1.0,0.0
1463,38.0,60.0,240.0,3.0,0.0
1464,70.0,0.0,120.0,0.0,0.0
1465,41.0,60.0,60.0,3.0,0.0
1466,68.0,0.0,120.0,0.0,0.0
1467,39.0,60.0,60.0,3.0,0.0
1468,67.0,0.0,120.0,0.0,0.0
1469,38.0,60.0,60.0,3.0,0.0
1470,39.0,120.0,60.0,3.0,0.0
1471,41.0,0.0,240.0,3.0,0.0
1472,68.0,120.0,120.0,0.0,0.0
1473,74.0,120.0,120.0,0.0,0.0
1474,34.0,120.0,120.0,3.0,0.0
1475,77.0,0.0,120.0,0.0,0.0
1476,38.0,0.0,120.0,3.0,0.0
1477,70.0,120.0,120.0,0.0,0.0
1478,36.0,0.0,120.0,3.0,0.0
1479,68.0,120.0,120.0,0.0,0.0
1480,39.0,0.0,120.0,3.0,0.0
1481,67.0,120.0,120.0,0.0,0.0
1482,38.0,120.0,120.0,3.0,0.0
1483,68.0,0.0,120.0,0.0,0.0
1484,41.0,120.0,120.0,3.0,0.0
1485,65.0,0.0,120.0,0.0,0.0
1486,67.0,120.0,120.0,0.0,0.0
1487,39.0,60.0,240.0,3.0,0.0
1488,72.0,0.0,120.0,0.0,0.0
1489,70.0,60.0,120.0,0.0,0.0
1490,43.0,60.0,60.0,3.0,0.0
1491,41.0,0.0,60.0,3.0,0.0
1492,39.0,60.0,60.0,3.0,0.0
1493,68.0,120.0,120.0,0.0,0.0
1494,41.0,0.0,60.0,3.0,0.0
1495,70.0,120.0,120.0,0.0,0.0
1496,43.0,120.0,240.0,3.0,0.0
1497,76.0,0.0,120.0,0.0,0.0
1498,79.0,120.0,120.0,0.0,0.0
1499,36.0,0.0,120.0,3.0,0.0
1500,40.0,0.0,120.0,3.0,0.0
1501,72.0,120.0,120.0,0.0,0.0
1502,38.0,0.0,120.0,3.0,0.0
1503,70.0,120.0,120.0,0.0,0.0
1504,41.0,0.0,120.0,3.0,0.0
1505,68.0,120.0,120.0,0.0,0.0
1506,40.0,0.0,120.0,3.0,0.0
1507,70.0,120.0,120.0,0.0,0.0
1508,43.0,120.0,120.0,3.0,0.0
1509,67.0,0.0,120.0,0.0,0.0
1510,68.0,120.0,840.0,0.0,0.0
1511,41.0,120.0,120.0,3.0,0.0
1512,63.0,120.0,120.0,1.0,0.0
1513,48.0,0.0,120.0,3.0,0.0
1514,53.0,120.0,120.0,3.0,0.0
1515,62.0,0.0,120.0,1.0,0.0
1516,51.0,120.0,120.0,3.0,0.0
1517,63.0,0.0,120.0,1.0,0.0
1518,50.0,0.0,120.0,3.0,0.0
1519,65.0,120.0,120.0,1.0,0.0
1520,62.0,0.0,120.0,1.0,0.0
1521,48.0,120.0,120.0,3.0,0.0
1522,58.0,0.0,840.0,1.0,0.0
1523,50.0,0.0,120.0,3.0,0.0
1524,51.0,0.0,120.0,3.0,0.0
1525,67.0,120.0,120.0,0.0,0.0
1526,50.0,0.0,120.0,3.0,0.0
1527,65.0,120.0,120.0,0.0,0.0
1528,48.0,0.0,120.0,3.0,0.0
1529,67.0,120.0,120.0,0.0,0.0
1530,46.0,0.0,120.0,3.0,0.0
1531,68.0,120.0,120.0,0.0,0.0
1532,44.0,0.0,120.0,3.0,0.0
1533,65.0,120.0,120.0,0.0,0.0
1534,43.0,120.0,120.0,3.0,0.0
1535,70.0,120.0,480.0,0.0,0.0
1536,62.0,0.0,120.0,1.0,0.0
1537,46.0,120.0,120.0,3.0,0.0
1538,60.0,0.0,120.0,1.0,0.0
1539,44.0,120.0,120.0,3.0,0.0
1540,63.0,0.0,120.0,1.0,0.0
1541,48.0,0.0,120.0,3.0,0.0
1542,62.0,0.0,240.0,1.0,0.0
1543,46.0,120.0,120.0,3.0,0.0
1544,67.0,240.0,240.0,0.0,0.0
1545,50.0,0.0,120.0,3.0,0.0
1546,55.0,240.0,240.0,1.0,0.0
1547,63.0,0.0,240.0,0.0,0.0
1548,48.0,0.0,240.0,3.0,0.0
1549,44.0,0.0,240.0,3.0,0.0
1550,65.0,0.0,240.0,0.0,0.0
1551,56.0,240.0,240.0,1.0,0.0
1552,46.0,0.0,240.0,3.0,0.0
1553,62.0,0.0,240.0,0.0,0.0
1554,53.0,1920.0,240.0,1.0,0.0
1555,39.0,0.0,1920.0,3.0,0.0
1556,63.0,0.0,1920.0,0.0,0.0
1557,58.0,0.0,1920.0,1.0,0.0
1558,55.0,0.0,1920.0,2.0,0.0
