,note,step,duration,channel,velocity
0,54.0,0.0,2040.0,8.0,0.0
1,54.0,0.0,2040.0,14.0,0.0
2,42.0,2048.0,2040.0,15.0,0.0
3,54.0,0.0,2040.0,13.0,0.0
4,54.0,0.0,2040.0,4.0,0.0
5,56.0,0.0,2040.0,4.0,0.0
6,56.0,0.0,2040.0,8.0,0.0
7,56.0,0.0,2040.0,14.0,0.0
8,56.0,2048.0,2040.0,13.0,0.0
9,44.0,0.0,2040.0,15.0,0.0
10,46.0,0.0,2040.0,15.0,0.0
11,58.0,2048.0,2040.0,8.0,0.0
12,61.0,0.0,2040.0,7.0,0.0
13,58.0,0.0,2040.0,4.0,0.0
14,61.0,0.0,2040.0,12.0,0.0
15,58.0,0.0,2040.0,13.0,0.0
16,58.0,0.0,2040.0,14.0,0.0
17,59.0,0.0,2040.0,4.0,0.0
18,63.0,0.0,2040.0,7.0,0.0
19,59.0,0.0,2040.0,8.0,0.0
20,59.0,1024.0,2040.0,13.0,0.0
21,47.0,0.0,2040.0,15.0,0.0
22,63.0,0.0,2040.0,12.0,0.0
23,59.0,0.0,2040.0,14.0,0.0
24,58.0,0.0,1020.0,14.0,0.0
25,65.0,0.0,2040.0,12.0,0.0
26,46.0,0.0,1020.0,15.0,0.0
27,65.0,1024.0,2040.0,7.0,0.0
28,58.0,1024.0,1020.0,8.0,0.0
29,58.0,0.0,1020.0,13.0,0.0
30,58.0,0.0,1020.0,4.0,0.0
31,56.0,0.0,1020.0,14.0,0.0
32,56.0,0.0,1020.0,13.0,0.0
33,56.0,0.0,1020.0,8.0,0.0
34,44.0,0.0,1020.0,15.0,0.0
35,56.0,0.0,1020.0,4.0,0.0
36,66.0,0.0,2040.0,12.0,0.0
37,46.0,1024.0,1020.0,15.0,0.0
38,58.0,0.0,1020.0,4.0,0.0
39,58.0,0.0,1020.0,14.0,0.0
40,66.0,0.0,2040.0,7.0,0.0
41,58.0,0.0,1020.0,8.0,0.0
42,58.0,0.0,1020.0,13.0,0.0
43,54.0,1024.0,1020.0,8.0,0.0
44,54.0,0.0,1020.0,4.0,0.0
45,54.0,0.0,1020.0,14.0,0.0
46,42.0,0.0,1020.0,15.0,0.0
47,54.0,0.0,1020.0,13.0,0.0
48,66.0,0.0,2040.0,11.0,0.0
49,59.0,0.0,4110.0,14.0,0.0
50,65.0,1024.0,1020.0,12.0,0.0
51,66.0,0.0,2040.0,3.0,0.0
52,59.0,0.0,4110.0,4.0,0.0
53,59.0,0.0,4110.0,8.0,0.0
54,65.0,0.0,1020.0,7.0,0.0
55,59.0,0.0,4110.0,13.0,0.0
56,47.0,0.0,4110.0,15.0,0.0
57,66.0,0.0,2040.0,6.0,0.0
58,66.0,0.0,2040.0,2.0,0.0
59,63.0,0.0,1020.0,7.0,0.0
60,63.0,1024.0,1020.0,12.0,0.0
61,68.0,0.0,2040.0,3.0,0.0
62,68.0,0.0,2040.0,11.0,0.0
63,65.0,1024.0,1020.0,7.0,0.0
64,68.0,2048.0,2040.0,6.0,0.0
65,68.0,0.0,2040.0,2.0,0.0
66,65.0,0.0,1020.0,12.0,0.0
67,61.0,0.0,1020.0,12.0,0.0
68,61.0,0.0,1020.0,7.0,0.0
69,73.0,2048.0,2040.0,5.0,0.0
70,70.0,0.0,2040.0,2.0,0.0
71,73.0,0.0,2040.0,10.0,0.0
72,66.0,0.0,4110.0,12.0,0.0
73,58.0,0.0,2040.0,8.0,0.0
74,70.0,0.0,2040.0,11.0,0.0
75,46.0,0.0,2040.0,15.0,0.0
76,70.0,0.0,2040.0,6.0,0.0
77,73.0,0.0,2040.0,3.0,0.0
78,58.0,0.0,2040.0,14.0,0.0
79,70.0,0.0,2040.0,3.0,0.0
80,58.0,0.0,2040.0,13.0,0.0
81,66.0,1024.0,4110.0,7.0,0.0
82,58.0,0.0,2040.0,4.0,0.0
83,73.0,0.0,2040.0,2.0,0.0
84,71.0,0.0,2040.0,2.0,0.0
85,75.0,0.0,2040.0,2.0,0.0
86,56.0,1024.0,4110.0,13.0,0.0
87,75.0,0.0,2040.0,10.0,0.0
88,44.0,0.0,4110.0,15.0,0.0
89,75.0,0.0,2040.0,3.0,0.0
90,56.0,0.0,4110.0,14.0,0.0
91,71.0,0.0,2040.0,6.0,0.0
92,56.0,0.0,4110.0,4.0,0.0
93,71.0,0.0,2040.0,11.0,0.0
94,75.0,0.0,2040.0,5.0,0.0
95,56.0,0.0,4110.0,8.0,0.0
96,71.0,0.0,2040.0,3.0,0.0
97,70.0,0.0,1020.0,11.0,0.0
98,77.0,0.0,2040.0,5.0,0.0
99,77.0,0.0,2040.0,10.0,0.0
100,77.0,0.0,2040.0,3.0,0.0
101,65.0,0.0,2040.0,12.0,0.0
102,70.0,1024.0,1020.0,6.0,0.0
103,70.0,0.0,1020.0,3.0,0.0
104,77.0,0.0,2040.0,2.0,0.0
105,65.0,0.0,2040.0,7.0,0.0
106,70.0,0.0,1020.0,2.0,0.0
107,68.0,0.0,1020.0,2.0,0.0
108,68.0,0.0,1020.0,11.0,0.0
109,68.0,0.0,1020.0,3.0,0.0
110,68.0,0.0,1020.0,6.0,0.0
111,78.0,0.0,2040.0,10.0,0.0
112,63.0,0.0,4110.0,12.0,0.0
113,70.0,0.0,1020.0,2.0,0.0
114,78.0,1024.0,2040.0,3.0,0.0
115,54.0,0.0,4110.0,8.0,0.0
116,70.0,0.0,1020.0,11.0,0.0
117,70.0,1024.0,1020.0,3.0,0.0
118,70.0,0.0,1020.0,6.0,0.0
119,78.0,0.0,2040.0,5.0,0.0
120,63.0,0.0,4110.0,7.0,0.0
121,78.0,0.0,2040.0,2.0,0.0
122,54.0,1024.0,4110.0,14.0,0.0
123,54.0,0.0,4110.0,4.0,0.0
124,42.0,0.0,4110.0,15.0,0.0
125,54.0,0.0,4110.0,13.0,0.0
126,66.0,0.0,1020.0,6.0,0.0
127,66.0,0.0,1020.0,2.0,0.0
128,66.0,0.0,1020.0,3.0,0.0
129,66.0,0.0,1020.0,11.0,0.0
130,77.0,0.0,1020.0,3.0,0.0
131,77.0,0.0,1020.0,2.0,0.0
132,71.0,0.0,4110.0,2.0,0.0
133,77.0,1024.0,1020.0,5.0,0.0
134,71.0,0.0,4110.0,11.0,0.0
135,77.0,0.0,1020.0,10.0,0.0
136,71.0,0.0,4110.0,3.0,0.0
137,71.0,0.0,4110.0,6.0,0.0
138,75.0,0.0,1020.0,5.0,0.0
139,75.0,0.0,1020.0,3.0,0.0
140,75.0,0.0,1020.0,2.0,0.0
141,75.0,0.0,1020.0,10.0,0.0
142,77.0,0.0,1020.0,10.0,0.0
143,77.0,0.0,1020.0,2.0,0.0
144,77.0,0.0,1020.0,5.0,0.0
145,61.0,0.0,4110.0,12.0,0.0
146,61.0,0.0,4110.0,7.0,0.0
147,77.0,1024.0,1020.0,3.0,0.0
148,61.0,0.0,4110.0,4.0,0.0
149,49.0,0.0,4110.0,15.0,0.0
150,61.0,0.0,4110.0,8.0,0.0
151,61.0,0.0,4110.0,14.0,0.0
152,73.0,0.0,1020.0,10.0,0.0
153,73.0,0.0,1020.0,5.0,0.0
154,73.0,0.0,1020.0,2.0,0.0
155,73.0,2048.0,1020.0,3.0,0.0
156,70.0,0.0,2040.0,11.0,0.0
157,70.0,0.0,2040.0,6.0,0.0
158,70.0,0.0,2040.0,2.0,0.0
159,78.0,2048.0,4110.0,3.0,0.0
160,78.0,0.0,4110.0,5.0,0.0
161,78.0,0.0,4110.0,2.0,0.0
162,70.0,2048.0,2040.0,3.0,0.0
163,78.0,0.0,4110.0,10.0,0.0
164,68.0,0.0,2040.0,4.0,0.0
165,68.0,2048.0,4110.0,11.0,0.0
166,68.0,0.0,2040.0,14.0,0.0
167,68.0,0.0,2040.0,8.0,0.0
168,56.0,0.0,2040.0,15.0,0.0
169,68.0,0.0,4110.0,2.0,0.0
170,68.0,0.0,4110.0,3.0,0.0
171,68.0,0.0,4110.0,6.0,0.0
172,49.0,0.0,4110.0,15.0,0.0
173,61.0,0.0,4110.0,14.0,0.0
174,61.0,2048.0,4110.0,8.0,0.0
175,61.0,0.0,4110.0,4.0,0.0
176,77.0,0.0,2040.0,10.0,0.0
177,77.0,0.0,2040.0,5.0,0.0
178,77.0,0.0,2040.0,2.0,0.0
179,61.0,0.0,4110.0,13.0,0.0
180,77.0,0.0,2040.0,3.0,0.0
181,75.0,0.0,4110.0,3.0,0.0
182,66.0,0.0,4110.0,6.0,0.0
183,75.0,0.0,4110.0,5.0,0.0
184,66.0,0.0,4110.0,3.0,0.0
185,66.0,0.0,4110.0,2.0,0.0
186,75.0,0.0,4110.0,10.0,0.0
187,75.0,0.0,4110.0,2.0,0.0
188,66.0,0.0,4110.0,11.0,0.0
189,60.0,1024.0,2040.0,8.0,0.0
190,60.0,0.0,2040.0,14.0,0.0
191,60.0,0.0,2040.0,4.0,0.0
192,66.0,0.0,4110.0,7.0,0.0
193,60.0,0.0,2040.0,13.0,0.0
194,66.0,0.0,4110.0,12.0,0.0
195,48.0,0.0,2040.0,15.0,0.0
196,73.0,0.0,4110.0,5.0,0.0
197,61.0,0.0,1020.0,13.0,0.0
198,61.0,0.0,1020.0,14.0,0.0
199,73.0,0.0,4110.0,3.0,0.0
200,61.0,0.0,1020.0,4.0,0.0
201,73.0,0.0,4110.0,2.0,0.0
202,49.0,0.0,1020.0,15.0,0.0
203,73.0,0.0,4110.0,10.0,0.0
204,61.0,512.0,1020.0,8.0,0.0
205,59.0,512.0,510.0,4.0,0.0
206,59.0,0.0,510.0,14.0,0.0
207,47.0,0.0,510.0,15.0,0.0
208,59.0,0.0,510.0,13.0,0.0
209,59.0,0.0,510.0,8.0,0.0
210,58.0,0.0,510.0,13.0,0.0
211,46.0,0.0,510.0,15.0,0.0
212,58.0,0.0,510.0,8.0,0.0
213,58.0,512.0,510.0,4.0,0.0
214,58.0,0.0,510.0,14.0,0.0
215,56.0,512.0,510.0,14.0,0.0
216,56.0,0.0,510.0,8.0,0.0
217,56.0,0.0,510.0,4.0,0.0
218,65.0,0.0,2040.0,12.0,0.0
219,56.0,0.0,510.0,13.0,0.0
220,44.0,0.0,510.0,15.0,0.0
221,65.0,512.0,2040.0,7.0,0.0
222,58.0,512.0,510.0,13.0,0.0
223,46.0,0.0,510.0,15.0,0.0
224,58.0,0.0,510.0,4.0,0.0
225,58.0,0.0,510.0,14.0,0.0
226,58.0,0.0,510.0,8.0,0.0
227,42.0,0.0,510.0,15.0,0.0
228,54.0,0.0,510.0,4.0,0.0
229,54.0,0.0,510.0,8.0,0.0
230,54.0,512.0,510.0,13.0,0.0
231,54.0,0.0,510.0,14.0,0.0
232,56.0,0.0,510.0,14.0,0.0
233,56.0,0.0,510.0,13.0,0.0
234,56.0,0.0,510.0,8.0,0.0
235,56.0,0.0,510.0,4.0,0.0
236,44.0,0.0,510.0,15.0,0.0
237,66.0,0.0,1020.0,12.0,0.0
238,46.0,512.0,510.0,15.0,0.0
239,58.0,0.0,510.0,4.0,0.0
240,58.0,0.0,510.0,14.0,0.0
241,58.0,0.0,510.0,8.0,0.0
242,58.0,0.0,510.0,13.0,0.0
243,66.0,0.0,1020.0,7.0,0.0
244,56.0,0.0,510.0,14.0,0.0
245,56.0,512.0,510.0,13.0,0.0
246,56.0,0.0,510.0,8.0,0.0
247,56.0,0.0,510.0,4.0,0.0
248,44.0,0.0,510.0,15.0,0.0
249,58.0,0.0,510.0,14.0,0.0
250,65.0,0.0,510.0,12.0,0.0
251,58.0,0.0,510.0,4.0,0.0
252,65.0,0.0,510.0,7.0,0.0
253,58.0,512.0,510.0,8.0,0.0
254,46.0,0.0,510.0,15.0,0.0
255,58.0,0.0,510.0,13.0,0.0
256,59.0,0.0,510.0,13.0,0.0
257,47.0,0.0,510.0,15.0,0.0
258,63.0,0.0,510.0,7.0,0.0
259,59.0,512.0,510.0,14.0,0.0
260,59.0,0.0,510.0,4.0,0.0
261,59.0,0.0,510.0,8.0,0.0
262,63.0,0.0,510.0,12.0,0.0
263,46.0,0.0,510.0,15.0,0.0
264,58.0,0.0,510.0,4.0,0.0
265,61.0,0.0,510.0,12.0,0.0
266,58.0,512.0,510.0,13.0,0.0
267,58.0,0.0,510.0,14.0,0.0
268,58.0,0.0,510.0,8.0,0.0
269,61.0,0.0,510.0,7.0,0.0
270,73.0,0.0,4110.0,2.0,0.0
271,73.0,512.0,4110.0,6.0,0.0
272,73.0,0.0,4110.0,3.0,0.0
273,73.0,0.0,4110.0,11.0,0.0
274,47.0,0.0,510.0,15.0,0.0
275,59.0,0.0,510.0,4.0,0.0
276,59.0,0.0,510.0,13.0,0.0
277,63.0,0.0,510.0,7.0,0.0
278,59.0,512.0,510.0,14.0,0.0
279,59.0,0.0,510.0,8.0,0.0
280,63.0,0.0,510.0,12.0,0.0
281,59.0,0.0,510.0,7.0,0.0
282,58.0,512.0,510.0,8.0,0.0
283,59.0,0.0,510.0,12.0,0.0
284,58.0,0.0,510.0,4.0,0.0
285,58.0,0.0,510.0,13.0,0.0
286,58.0,0.0,510.0,14.0,0.0
287,46.0,0.0,510.0,15.0,0.0
288,56.0,0.0,510.0,4.0,0.0
289,56.0,0.0,510.0,14.0,0.0
290,56.0,0.0,510.0,13.0,0.0
291,61.0,0.0,510.0,7.0,0.0
292,61.0,0.0,510.0,12.0,0.0
293,56.0,512.0,510.0,8.0,0.0
294,44.0,0.0,510.0,15.0,0.0
295,54.0,512.0,1020.0,14.0,0.0
296,54.0,0.0,1020.0,13.0,0.0
297,63.0,0.0,510.0,7.0,0.0
298,54.0,0.0,1020.0,4.0,0.0
299,63.0,512.0,510.0,12.0,0.0
300,54.0,0.0,1020.0,8.0,0.0
301,42.0,0.0,1020.0,15.0,0.0
302,61.0,0.0,510.0,7.0,0.0
303,61.0,0.0,510.0,12.0,0.0
304,51.0,0.0,1020.0,8.0,0.0
305,51.0,0.0,1020.0,4.0,0.0
306,51.0,0.0,1020.0,13.0,0.0
307,39.0,0.0,1020.0,15.0,0.0
308,63.0,512.0,510.0,7.0,0.0
309,51.0,0.0,1020.0,14.0,0.0
310,63.0,0.0,510.0,12.0,0.0
311,65.0,0.0,510.0,12.0,0.0
312,65.0,0.0,510.0,7.0,0.0
313,56.0,0.0,2040.0,13.0,0.0
314,78.0,512.0,4110.0,5.0,0.0
315,72.0,0.0,2040.0,3.0,0.0
316,63.0,0.0,510.0,12.0,0.0
317,63.0,512.0,510.0,7.0,0.0
318,78.0,0.0,4110.0,10.0,0.0
319,72.0,0.0,2040.0,11.0,0.0
320,72.0,0.0,2040.0,2.0,0.0
321,78.0,0.0,4110.0,3.0,0.0
322,56.0,0.0,2040.0,4.0,0.0
323,44.0,1024.0,2040.0,15.0,0.0
324,56.0,0.0,2040.0,8.0,0.0
325,72.0,0.0,2040.0,6.0,0.0
326,78.0,0.0,4110.0,2.0,0.0
327,56.0,0.0,2040.0,14.0,0.0
328,66.0,512.0,510.0,12.0,0.0
329,66.0,0.0,510.0,7.0,0.0
330,65.0,0.0,510.0,7.0,0.0
331,65.0,512.0,510.0,12.0,0.0
332,63.0,0.0,510.0,7.0,0.0
333,63.0,0.0,510.0,12.0,0.0
334,49.0,0.0,2040.0,14.0,0.0
335,61.0,0.0,1020.0,7.0,0.0
336,73.0,0.0,1020.0,6.0,0.0
337,73.0,512.0,1020.0,2.0,0.0
338,73.0,0.0,1020.0,11.0,0.0
339,49.0,0.0,2040.0,4.0,0.0
340,49.0,0.0,4110.0,13.0,0.0
341,73.0,0.0,1020.0,3.0,0.0
342,49.0,0.0,2040.0,8.0,0.0
343,61.0,0.0,1020.0,12.0,0.0
344,37.0,0.0,2040.0,15.0,0.0
345,71.0,0.0,510.0,3.0,0.0
346,71.0,512.0,510.0,2.0,0.0
347,56.0,0.0,1020.0,7.0,0.0
348,71.0,0.0,510.0,11.0,0.0
349,56.0,0.0,1020.0,12.0,0.0
350,71.0,0.0,510.0,6.0,0.0
351,70.0,0.0,510.0,3.0,0.0
352,70.0,0.0,510.0,2.0,0.0
353,70.0,0.0,510.0,11.0,0.0
354,70.0,0.0,510.0,6.0,0.0
355,77.0,0.0,2040.0,10.0,0.0
356,68.0,0.0,510.0,3.0,0.0
357,61.0,0.0,2040.0,14.0,0.0
358,49.0,0.0,2040.0,15.0,0.0
359,61.0,0.0,2040.0,4.0,0.0
360,61.0,0.0,2040.0,7.0,0.0
361,61.0,0.0,2040.0,12.0,0.0
362,61.0,0.0,2040.0,8.0,0.0
363,68.0,0.0,510.0,11.0,0.0
364,68.0,512.0,510.0,2.0,0.0
365,77.0,0.0,2040.0,2.0,0.0
366,68.0,0.0,510.0,6.0,0.0
367,77.0,512.0,2040.0,3.0,0.0
368,77.0,0.0,2040.0,5.0,0.0
369,70.0,0.0,510.0,6.0,0.0
370,70.0,0.0,510.0,11.0,0.0
371,70.0,0.0,510.0,3.0,0.0
372,70.0,512.0,510.0,2.0,0.0
373,66.0,0.0,510.0,11.0,0.0
374,66.0,0.0,510.0,2.0,0.0
375,66.0,0.0,510.0,3.0,0.0
376,66.0,512.0,510.0,6.0,0.0
377,68.0,0.0,510.0,11.0,0.0
378,68.0,0.0,510.0,2.0,0.0
379,68.0,0.0,510.0,6.0,0.0
380,68.0,0.0,510.0,3.0,0.0
381,54.0,0.0,2040.0,4.0,0.0
382,54.0,0.0,4110.0,7.0,0.0
383,54.0,0.0,4110.0,12.0,0.0
384,78.0,0.0,1020.0,10.0,0.0
385,78.0,0.0,1020.0,5.0,0.0
386,54.0,512.0,2040.0,8.0,0.0
387,70.0,0.0,510.0,2.0,0.0
388,70.0,0.0,510.0,11.0,0.0
389,78.0,0.0,1020.0,2.0,0.0
390,70.0,0.0,510.0,6.0,0.0
391,70.0,512.0,510.0,3.0,0.0
392,42.0,0.0,2040.0,15.0,0.0
393,78.0,0.0,1020.0,3.0,0.0
394,54.0,0.0,2040.0,14.0,0.0
395,68.0,512.0,510.0,2.0,0.0
396,68.0,0.0,510.0,6.0,0.0
397,68.0,0.0,510.0,11.0,0.0
398,68.0,0.0,510.0,3.0,0.0
399,77.0,0.0,510.0,2.0,0.0
400,77.0,512.0,510.0,3.0,0.0
401,70.0,0.0,510.0,11.0,0.0
402,70.0,0.0,510.0,3.0,0.0
403,77.0,0.0,510.0,5.0,0.0
404,70.0,0.0,510.0,2.0,0.0
405,77.0,0.0,510.0,10.0,0.0
406,70.0,0.0,510.0,6.0,0.0
407,71.0,0.0,510.0,3.0,0.0
408,75.0,0.0,510.0,10.0,0.0
409,71.0,0.0,510.0,11.0,0.0
410,75.0,0.0,510.0,2.0,0.0
411,75.0,0.0,510.0,5.0,0.0
412,71.0,0.0,510.0,6.0,0.0
413,75.0,0.0,510.0,3.0,0.0
414,71.0,0.0,510.0,2.0,0.0
415,73.0,0.0,510.0,10.0,0.0
416,73.0,0.0,510.0,2.0,0.0
417,70.0,0.0,510.0,2.0,0.0
418,70.0,0.0,510.0,11.0,0.0
419,73.0,0.0,510.0,5.0,0.0
420,70.0,512.0,510.0,3.0,0.0
421,66.0,0.0,2040.0,14.0,0.0
422,54.0,0.0,2040.0,15.0,0.0
423,70.0,0.0,510.0,6.0,0.0
424,66.0,0.0,2040.0,8.0,0.0
425,73.0,0.0,510.0,3.0,0.0
426,66.0,0.0,2040.0,4.0,0.0
427,75.0,0.0,510.0,10.0,0.0
428,71.0,0.0,510.0,2.0,0.0
429,75.0,512.0,510.0,2.0,0.0
430,75.0,0.0,510.0,5.0,0.0
431,71.0,0.0,510.0,11.0,0.0
432,71.0,0.0,510.0,6.0,0.0
433,75.0,0.0,510.0,3.0,0.0
434,71.0,0.0,510.0,3.0,0.0
435,70.0,0.0,510.0,3.0,0.0
436,70.0,512.0,510.0,2.0,0.0
437,71.0,0.0,510.0,5.0,0.0
438,71.0,0.0,510.0,10.0,0.0
439,70.0,0.0,510.0,11.0,0.0
440,71.0,0.0,510.0,2.0,0.0
441,71.0,0.0,510.0,3.0,0.0
442,70.0,0.0,510.0,6.0,0.0
443,73.0,0.0,510.0,5.0,0.0
444,68.0,0.0,510.0,11.0,0.0
445,73.0,0.0,510.0,3.0,0.0
446,68.0,0.0,510.0,3.0,0.0
447,73.0,0.0,510.0,10.0,0.0
448,73.0,0.0,510.0,2.0,0.0
449,68.0,512.0,510.0,6.0,0.0
450,68.0,0.0,510.0,2.0,0.0
451,59.0,0.0,2040.0,14.0,0.0
452,75.0,512.0,510.0,3.0,0.0
453,75.0,0.0,510.0,10.0,0.0
454,75.0,0.0,510.0,2.0,0.0
455,59.0,0.0,2040.0,8.0,0.0
456,66.0,0.0,1020.0,11.0,0.0
457,47.0,0.0,2040.0,15.0,0.0
458,75.0,0.0,510.0,5.0,0.0
459,59.0,0.0,2040.0,4.0,0.0
460,66.0,0.0,1530.0,2.0,0.0
461,66.0,0.0,1530.0,3.0,0.0
462,66.0,0.0,510.0,6.0,0.0
463,65.0,512.0,510.0,6.0,0.0
464,73.0,0.0,510.0,2.0,0.0
465,73.0,0.0,510.0,5.0,0.0
466,73.0,0.0,510.0,10.0,0.0
467,73.0,0.0,510.0,3.0,0.0
468,75.0,0.0,510.0,10.0,0.0
469,66.0,0.0,510.0,6.0,0.0
470,63.0,0.0,1020.0,11.0,0.0
471,75.0,0.0,510.0,5.0,0.0
472,75.0,512.0,510.0,2.0,0.0
473,75.0,0.0,510.0,3.0,0.0
474,76.0,0.0,510.0,2.0,0.0
475,68.0,0.0,510.0,3.0,0.0
476,76.0,512.0,510.0,10.0,0.0
477,76.0,0.0,510.0,3.0,0.0
478,68.0,0.0,510.0,2.0,0.0
479,76.0,0.0,510.0,5.0,0.0
480,68.0,0.0,510.0,6.0,0.0
481,70.0,0.0,2040.0,11.0,0.0
482,70.0,0.0,2040.0,3.0,0.0
483,70.0,0.0,2040.0,2.0,0.0
484,75.0,512.0,510.0,3.0,0.0
485,54.0,0.0,2040.0,14.0,0.0
486,54.0,0.0,2040.0,4.0,0.0
487,70.0,0.0,2040.0,6.0,0.0
488,54.0,0.0,2040.0,8.0,0.0
489,75.0,0.0,510.0,2.0,0.0
490,54.0,0.0,2040.0,13.0,0.0
491,42.0,0.0,2040.0,15.0,0.0
492,75.0,0.0,510.0,5.0,0.0
493,75.0,0.0,510.0,10.0,0.0
494,76.0,0.0,510.0,5.0,0.0
495,76.0,0.0,510.0,10.0,0.0
496,76.0,0.0,510.0,2.0,0.0
497,76.0,512.0,510.0,3.0,0.0
498,75.0,512.0,510.0,2.0,0.0
499,75.0,0.0,510.0,3.0,0.0
500,75.0,0.0,510.0,5.0,0.0
501,75.0,0.0,510.0,10.0,0.0
502,73.0,0.0,510.0,5.0,0.0
503,73.0,0.0,510.0,10.0,0.0
504,73.0,1024.0,510.0,2.0,0.0
505,73.0,0.0,510.0,3.0,0.0
506,71.0,0.0,1020.0,3.0,0.0
507,63.0,2048.0,2040.0,11.0,0.0
508,63.0,0.0,2040.0,6.0,0.0
509,56.0,0.0,2040.0,4.0,0.0
510,56.0,0.0,2040.0,8.0,0.0
511,44.0,0.0,2040.0,15.0,0.0
512,56.0,0.0,2040.0,13.0,0.0
513,71.0,0.0,1020.0,5.0,0.0
514,71.0,1024.0,1020.0,10.0,0.0
515,56.0,0.0,2040.0,14.0,0.0
516,63.0,0.0,2040.0,3.0,0.0
517,63.0,0.0,2040.0,2.0,0.0
518,71.0,0.0,1020.0,2.0,0.0
519,68.0,0.0,1020.0,10.0,0.0
520,68.0,0.0,1020.0,5.0,0.0
521,68.0,0.0,1020.0,2.0,0.0
522,68.0,0.0,1020.0,3.0,0.0
523,58.0,0.0,2040.0,8.0,0.0
524,73.0,0.0,2040.0,10.0,0.0
525,46.0,0.0,2040.0,15.0,0.0
526,61.0,0.0,2040.0,7.0,0.0
527,58.0,0.0,2040.0,4.0,0.0
528,73.0,0.0,2040.0,2.0,0.0
529,58.0,0.0,2040.0,14.0,0.0
530,73.0,2048.0,2040.0,5.0,0.0
531,73.0,0.0,2040.0,3.0,0.0
532,58.0,0.0,2040.0,13.0,0.0
533,61.0,0.0,2040.0,12.0,0.0
534,63.0,0.0,2040.0,12.0,0.0
535,66.0,0.0,2040.0,10.0,0.0
536,66.0,1024.0,2040.0,3.0,0.0
537,59.0,0.0,2040.0,4.0,0.0
538,59.0,0.0,2040.0,14.0,0.0
539,63.0,0.0,2040.0,7.0,0.0
540,47.0,0.0,2040.0,15.0,0.0
541,66.0,0.0,2040.0,2.0,0.0
542,59.0,0.0,2040.0,13.0,0.0
543,59.0,0.0,2040.0,8.0,0.0
544,66.0,0.0,2040.0,5.0,0.0
545,58.0,0.0,1020.0,8.0,0.0
546,65.0,1024.0,2040.0,7.0,0.0
547,58.0,0.0,1020.0,4.0,0.0
548,58.0,0.0,1020.0,13.0,0.0
549,58.0,0.0,1020.0,14.0,0.0
550,65.0,0.0,2040.0,12.0,0.0
551,46.0,1024.0,1020.0,15.0,0.0
552,56.0,0.0,1020.0,8.0,0.0
553,56.0,0.0,1020.0,4.0,0.0
554,56.0,0.0,1020.0,14.0,0.0
555,44.0,0.0,1020.0,15.0,0.0
556,56.0,0.0,1020.0,13.0,0.0
557,58.0,0.0,1020.0,14.0,0.0
558,58.0,0.0,1020.0,8.0,0.0
559,66.0,0.0,2040.0,12.0,0.0
560,58.0,1024.0,1020.0,4.0,0.0
561,46.0,0.0,1020.0,15.0,0.0
562,66.0,0.0,2040.0,7.0,0.0
563,58.0,0.0,1020.0,13.0,0.0
564,51.0,0.0,1020.0,13.0,0.0
565,51.0,0.0,1020.0,14.0,0.0
566,39.0,0.0,1020.0,15.0,0.0
567,51.0,1024.0,1020.0,8.0,0.0
568,51.0,0.0,1020.0,4.0,0.0
569,65.0,0.0,1020.0,12.0,0.0
570,65.0,1024.0,1020.0,7.0,0.0
571,63.0,0.0,3060.0,4.0,0.0
572,63.0,0.0,3060.0,13.0,0.0
573,63.0,0.0,3060.0,14.0,0.0
574,51.0,1024.0,3060.0,15.0,0.0
575,66.0,0.0,2040.0,3.0,0.0
576,66.0,1024.0,2040.0,2.0,0.0
577,63.0,0.0,3060.0,8.0,0.0
578,66.0,0.0,2040.0,11.0,0.0
579,66.0,0.0,2040.0,6.0,0.0
580,63.0,0.0,1020.0,12.0,0.0
581,63.0,0.0,1020.0,7.0,0.0
582,65.0,0.0,1020.0,12.0,0.0
583,68.0,0.0,2040.0,6.0,0.0
584,68.0,0.0,2040.0,2.0,0.0
585,65.0,0.0,1020.0,7.0,0.0
586,68.0,0.0,2040.0,3.0,0.0
587,68.0,1024.0,2040.0,11.0,0.0
588,58.0,0.0,1020.0,7.0,0.0
589,61.0,0.0,2040.0,4.0,0.0
590,61.0,0.0,2040.0,8.0,0.0
591,58.0,0.0,1020.0,12.0,0.0
592,61.0,1024.0,2040.0,13.0,0.0
593,61.0,0.0,2040.0,14.0,0.0
594,49.0,0.0,2040.0,15.0,0.0
595,70.0,0.0,2040.0,6.0,0.0
596,73.0,0.0,2040.0,2.0,0.0
597,70.0,0.0,2040.0,3.0,0.0
598,70.0,0.0,3060.0,12.0,0.0
599,70.0,0.0,3060.0,7.0,0.0
600,70.0,0.0,2040.0,2.0,0.0
601,70.0,0.0,2040.0,11.0,0.0
602,73.0,0.0,2040.0,3.0,0.0
603,73.0,0.0,2040.0,5.0,0.0
604,73.0,1024.0,2040.0,10.0,0.0
605,66.0,0.0,1020.0,4.0,0.0
606,66.0,0.0,1020.0,14.0,0.0
607,66.0,0.0,1020.0,8.0,0.0
608,54.0,0.0,1020.0,15.0,0.0
609,66.0,0.0,1020.0,13.0,0.0
610,75.0,0.0,2040.0,2.0,0.0
611,59.0,0.0,1020.0,8.0,0.0
612,71.0,0.0,2040.0,3.0,0.0
613,47.0,0.0,1020.0,15.0,0.0
614,59.0,1024.0,1020.0,13.0,0.0
615,71.0,0.0,2040.0,6.0,0.0
616,59.0,0.0,1020.0,14.0,0.0
617,71.0,0.0,2040.0,11.0,0.0
618,71.0,0.0,2040.0,2.0,0.0
619,75.0,0.0,2040.0,3.0,0.0
620,75.0,0.0,2040.0,10.0,0.0
621,59.0,0.0,1020.0,4.0,0.0
622,75.0,0.0,2040.0,5.0,0.0
623,63.0,0.0,1020.0,8.0,0.0
624,68.0,0.0,2040.0,7.0,0.0
625,63.0,0.0,1020.0,13.0,0.0
626,51.0,0.0,1020.0,15.0,0.0
627,63.0,0.0,1020.0,14.0,0.0
628,63.0,1024.0,1020.0,4.0,0.0
629,68.0,0.0,2040.0,12.0,0.0
630,77.0,0.0,2040.0,2.0,0.0
631,61.0,0.0,1020.0,14.0,0.0
632,77.0,0.0,2040.0,10.0,0.0
633,70.0,0.0,1020.0,2.0,0.0
634,61.0,0.0,1020.0,8.0,0.0
635,49.0,0.0,1020.0,15.0,0.0
636,77.0,0.0,2040.0,3.0,0.0
637,61.0,0.0,1020.0,4.0,0.0
638,70.0,0.0,1020.0,3.0,0.0
639,70.0,0.0,1020.0,11.0,0.0
640,77.0,0.0,2040.0,5.0,0.0
641,70.0,0.0,1020.0,6.0,0.0
642,61.0,1024.0,1020.0,13.0,0.0
643,73.0,0.0,1020.0,12.0,0.0
644,47.0,0.0,1020.0,15.0,0.0
645,59.0,0.0,1020.0,8.0,0.0
646,59.0,0.0,1020.0,13.0,0.0
647,68.0,0.0,1020.0,6.0,0.0
648,68.0,0.0,1020.0,11.0,0.0
649,59.0,1024.0,1020.0,4.0,0.0
650,68.0,0.0,1020.0,3.0,0.0
651,68.0,0.0,1020.0,2.0,0.0
652,73.0,0.0,1020.0,7.0,0.0
653,59.0,0.0,1020.0,14.0,0.0
654,58.0,0.0,4620.0,14.0,0.0
655,78.0,0.0,2040.0,10.0,0.0
656,58.0,0.0,4110.0,13.0,0.0
657,66.0,0.0,1020.0,12.0,0.0
658,78.0,0.0,2040.0,5.0,0.0
659,70.0,0.0,2040.0,3.0,0.0
660,66.0,0.0,1020.0,7.0,0.0
661,46.0,512.0,4620.0,15.0,0.0
662,70.0,1024.0,1020.0,11.0,0.0
663,70.0,0.0,2040.0,6.0,0.0
664,78.0,0.0,2040.0,3.0,0.0
665,58.0,0.0,4620.0,8.0,0.0
666,70.0,0.0,2040.0,2.0,0.0
667,78.0,0.0,2040.0,2.0,0.0
668,58.0,0.0,4620.0,4.0,0.0
669,70.0,0.0,1020.0,12.0,0.0
670,70.0,0.0,1020.0,7.0,0.0
671,63.0,1024.0,1020.0,11.0,0.0
672,77.0,1024.0,1020.0,3.0,0.0
673,68.0,0.0,1020.0,7.0,0.0
674,68.0,0.0,1020.0,12.0,0.0
675,77.0,0.0,1020.0,10.0,0.0
676,75.0,0.0,3060.0,6.0,0.0
677,77.0,0.0,1020.0,5.0,0.0
678,77.0,0.0,1020.0,2.0,0.0
679,75.0,0.0,3060.0,11.0,0.0
680,66.0,512.0,1020.0,7.0,0.0
681,75.0,0.0,1020.0,2.0,0.0
682,75.0,0.0,1020.0,10.0,0.0
683,75.0,0.0,1020.0,5.0,0.0
684,66.0,0.0,1020.0,12.0,0.0
685,75.0,0.0,1020.0,3.0,0.0
686,65.0,1024.0,4110.0,12.0,0.0
687,77.0,0.0,1020.0,2.0,0.0
688,65.0,0.0,4110.0,7.0,0.0
689,77.0,0.0,1020.0,10.0,0.0
690,77.0,0.0,1020.0,3.0,0.0
691,77.0,0.0,1020.0,5.0,0.0
692,56.0,0.0,510.0,14.0,0.0
693,56.0,512.0,510.0,8.0,0.0
694,44.0,0.0,510.0,15.0,0.0
695,56.0,0.0,510.0,4.0,0.0
696,73.0,0.0,2040.0,6.0,0.0
697,58.0,0.0,510.0,14.0,0.0
698,73.0,0.0,2040.0,3.0,0.0
699,46.0,0.0,510.0,15.0,0.0
700,58.0,0.0,510.0,4.0,0.0
701,70.0,0.0,1020.0,2.0,0.0
702,70.0,0.0,1020.0,5.0,0.0
703,73.0,0.0,2040.0,11.0,0.0
704,70.0,0.0,1020.0,3.0,0.0
705,70.0,512.0,1020.0,10.0,0.0
706,73.0,0.0,2040.0,2.0,0.0
707,58.0,512.0,510.0,8.0,0.0
708,59.0,0.0,510.0,4.0,0.0
709,47.0,0.0,510.0,15.0,0.0
710,59.0,0.0,510.0,8.0,0.0
711,59.0,0.0,510.0,14.0,0.0
712,58.0,0.0,510.0,14.0,0.0
713,82.0,0.0,3060.0,3.0,0.0
714,58.0,512.0,510.0,4.0,0.0
715,46.0,0.0,510.0,15.0,0.0
716,58.0,0.0,510.0,8.0,0.0
717,82.0,0.0,3060.0,2.0,0.0
718,82.0,0.0,3060.0,5.0,0.0
719,82.0,0.0,3060.0,10.0,0.0
720,44.0,512.0,510.0,15.0,0.0
721,56.0,0.0,510.0,14.0,0.0
722,56.0,0.0,510.0,4.0,0.0
723,56.0,0.0,510.0,8.0,0.0
724,54.0,512.0,510.0,8.0,0.0
725,78.0,0.0,1020.0,11.0,0.0
726,78.0,0.0,1020.0,6.0,0.0
727,54.0,0.0,510.0,14.0,0.0
728,78.0,0.0,1020.0,3.0,0.0
729,54.0,0.0,510.0,4.0,0.0
730,42.0,0.0,510.0,15.0,0.0
731,78.0,0.0,1020.0,2.0,0.0
732,41.0,0.0,510.0,15.0,0.0
733,53.0,0.0,510.0,4.0,0.0
734,53.0,0.0,510.0,8.0,0.0
735,53.0,0.0,510.0,14.0,0.0
736,71.0,0.0,1020.0,3.0,0.0
737,71.0,0.0,1020.0,11.0,0.0
738,51.0,0.0,2040.0,4.0,0.0
739,51.0,0.0,2040.0,14.0,0.0
740,71.0,0.0,1020.0,6.0,0.0
741,71.0,512.0,1020.0,2.0,0.0
742,39.0,0.0,2040.0,15.0,0.0
743,51.0,0.0,2040.0,8.0,0.0
744,75.0,1024.0,1020.0,6.0,0.0
745,80.0,512.0,510.0,10.0,0.0
746,75.0,0.0,1020.0,11.0,0.0
747,75.0,0.0,1020.0,5.0,0.0
748,75.0,0.0,1020.0,2.0,0.0
749,75.0,0.0,1020.0,3.0,0.0
750,78.0,0.0,510.0,10.0,0.0
751,73.0,0.0,1020.0,11.0,0.0
752,73.0,1024.0,1020.0,3.0,0.0
753,73.0,0.0,1020.0,2.0,0.0
754,53.0,0.0,2040.0,4.0,0.0
755,41.0,0.0,2040.0,15.0,0.0
756,80.0,0.0,3060.0,2.0,0.0
757,80.0,0.0,3060.0,3.0,0.0
758,80.0,0.0,3060.0,5.0,0.0
759,80.0,0.0,3060.0,10.0,0.0
760,53.0,0.0,2040.0,8.0,0.0
761,53.0,0.0,2040.0,14.0,0.0
762,73.0,0.0,1020.0,6.0,0.0
763,71.0,0.0,1020.0,2.0,0.0
764,71.0,1024.0,1020.0,6.0,0.0
765,71.0,0.0,1020.0,11.0,0.0
766,71.0,0.0,1020.0,3.0,0.0
767,70.0,0.0,4110.0,3.0,0.0
768,42.0,0.0,1020.0,15.0,0.0
769,70.0,0.0,4110.0,11.0,0.0
770,54.0,0.0,1020.0,8.0,0.0
771,66.0,1024.0,4110.0,12.0,0.0
772,70.0,0.0,4110.0,2.0,0.0
773,66.0,0.0,4110.0,7.0,0.0
774,54.0,0.0,1020.0,4.0,0.0
775,54.0,1024.0,1020.0,14.0,0.0
776,70.0,0.0,4110.0,6.0,0.0
777,46.0,0.0,1020.0,15.0,0.0
778,78.0,0.0,2040.0,10.0,0.0
779,58.0,0.0,1020.0,4.0,0.0
780,78.0,0.0,2040.0,5.0,0.0
781,58.0,1024.0,1020.0,8.0,0.0
782,58.0,0.0,1020.0,14.0,0.0
783,78.0,0.0,2040.0,3.0,0.0
784,78.0,1024.0,2040.0,2.0,0.0
785,51.0,0.0,4110.0,15.0,0.0
786,63.0,0.0,4110.0,4.0,0.0
787,63.0,0.0,4110.0,14.0,0.0
788,63.0,0.0,4110.0,13.0,0.0
789,63.0,0.0,4110.0,8.0,0.0
790,83.0,0.0,1020.0,3.0,0.0
791,83.0,0.0,1020.0,5.0,0.0
792,83.0,0.0,1020.0,10.0,0.0
793,83.0,0.0,1020.0,2.0,0.0
794,77.0,1024.0,1020.0,2.0,0.0
795,68.0,0.0,2040.0,7.0,0.0
796,77.0,0.0,1020.0,3.0,0.0
797,77.0,0.0,1020.0,10.0,0.0
798,77.0,0.0,1020.0,5.0,0.0
799,68.0,1024.0,2040.0,12.0,0.0
800,80.0,0.0,1020.0,2.0,0.0
801,80.0,0.0,1020.0,3.0,0.0
802,80.0,0.0,1020.0,5.0,0.0
803,80.0,0.0,1020.0,10.0,0.0
804,78.0,0.0,1020.0,5.0,0.0
805,78.0,0.0,1020.0,10.0,0.0
806,78.0,1024.0,1020.0,2.0,0.0
807,50.0,0.0,2040.0,15.0,0.0
808,62.0,0.0,2040.0,13.0,0.0
809,70.0,0.0,2040.0,7.0,0.0
810,62.0,512.0,2040.0,4.0,0.0
811,78.0,0.0,1020.0,3.0,0.0
812,62.0,0.0,2040.0,14.0,0.0
813,62.0,0.0,2040.0,8.0,0.0
814,70.0,0.0,2040.0,12.0,0.0
815,77.0,0.0,1020.0,10.0,0.0
816,77.0,0.0,1020.0,2.0,0.0
817,77.0,0.0,1020.0,5.0,0.0
818,77.0,0.0,1020.0,3.0,0.0
819,71.0,0.0,2040.0,12.0,0.0
820,51.0,0.0,510.0,15.0,0.0
821,75.0,512.0,4110.0,2.0,0.0
822,63.0,0.0,510.0,14.0,0.0
823,71.0,0.0,2040.0,7.0,0.0
824,63.0,0.0,510.0,13.0,0.0
825,63.0,512.0,510.0,8.0,0.0
826,75.0,0.0,4110.0,5.0,0.0
827,75.0,0.0,4110.0,10.0,0.0
828,75.0,0.0,4110.0,3.0,0.0
829,63.0,0.0,510.0,4.0,0.0
830,65.0,0.0,510.0,14.0,0.0
831,53.0,512.0,510.0,15.0,0.0
832,65.0,0.0,510.0,4.0,0.0
833,65.0,0.0,510.0,13.0,0.0
834,65.0,0.0,510.0,8.0,0.0
835,61.0,512.0,510.0,4.0,0.0
836,61.0,0.0,510.0,14.0,0.0
837,61.0,0.0,510.0,8.0,0.0
838,61.0,0.0,510.0,13.0,0.0
839,49.0,0.0,510.0,15.0,0.0
840,63.0,0.0,510.0,4.0,0.0
841,51.0,0.0,510.0,15.0,0.0
842,63.0,512.0,510.0,13.0,0.0
843,63.0,0.0,510.0,8.0,0.0
844,63.0,0.0,510.0,14.0,0.0
845,65.0,0.0,510.0,4.0,0.0
846,53.0,0.0,510.0,15.0,0.0
847,65.0,0.0,510.0,13.0,0.0
848,70.0,0.0,1020.0,12.0,0.0
849,70.0,0.0,1020.0,7.0,0.0
850,65.0,512.0,510.0,8.0,0.0
851,65.0,0.0,510.0,14.0,0.0
852,66.0,0.0,510.0,8.0,0.0
853,66.0,0.0,510.0,14.0,0.0
854,66.0,0.0,510.0,13.0,0.0
855,54.0,512.0,510.0,15.0,0.0
856,66.0,0.0,510.0,4.0,0.0
857,63.0,0.0,510.0,4.0,0.0
858,68.0,0.0,1020.0,12.0,0.0
859,68.0,0.0,1020.0,7.0,0.0
860,63.0,0.0,510.0,8.0,0.0
861,63.0,0.0,510.0,13.0,0.0
862,51.0,512.0,510.0,15.0,0.0
863,63.0,0.0,510.0,14.0,0.0
864,65.0,0.0,510.0,4.0,0.0
865,65.0,0.0,510.0,13.0,0.0
866,65.0,0.0,510.0,8.0,0.0
867,53.0,0.0,510.0,15.0,0.0
868,65.0,0.0,510.0,14.0,0.0
869,66.0,0.0,510.0,4.0,0.0
870,73.0,0.0,4110.0,6.0,0.0
871,66.0,0.0,510.0,8.0,0.0
872,73.0,0.0,4110.0,2.0,0.0
873,66.0,0.0,510.0,14.0,0.0
874,66.0,512.0,510.0,13.0,0.0
875,73.0,0.0,4110.0,3.0,0.0
876,73.0,0.0,4110.0,11.0,0.0
877,54.0,0.0,510.0,15.0,0.0
878,70.0,0.0,1020.0,12.0,0.0
879,70.0,512.0,1020.0,7.0,0.0
880,53.0,0.0,510.0,15.0,0.0
881,65.0,0.0,510.0,14.0,0.0
882,65.0,0.0,510.0,4.0,0.0
883,65.0,0.0,510.0,13.0,0.0
884,65.0,0.0,510.0,8.0,0.0
885,66.0,0.0,510.0,14.0,0.0
886,66.0,0.0,510.0,4.0,0.0
887,54.0,0.0,510.0,15.0,0.0
888,66.0,0.0,1020.0,7.0,0.0
889,66.0,0.0,1020.0,12.0,0.0
890,66.0,0.0,510.0,13.0,0.0
891,66.0,512.0,510.0,8.0,0.0
892,56.0,0.0,510.0,15.0,0.0
893,68.0,0.0,510.0,14.0,0.0
894,68.0,512.0,510.0,13.0,0.0
895,68.0,0.0,510.0,8.0,0.0
896,68.0,0.0,510.0,4.0,0.0
897,73.0,0.0,4110.0,7.0,0.0
898,73.0,0.0,4110.0,12.0,0.0
899,66.0,0.0,510.0,4.0,0.0
900,66.0,0.0,510.0,8.0,0.0
901,54.0,0.0,510.0,15.0,0.0
902,66.0,0.0,510.0,14.0,0.0
903,66.0,512.0,510.0,13.0,0.0
904,68.0,0.0,510.0,4.0,0.0
905,68.0,0.0,510.0,14.0,0.0
906,56.0,0.0,510.0,15.0,0.0
907,68.0,512.0,510.0,13.0,0.0
908,68.0,0.0,510.0,8.0,0.0
909,54.0,512.0,510.0,15.0,0.0
910,66.0,0.0,510.0,14.0,0.0
911,66.0,0.0,510.0,4.0,0.0
912,66.0,0.0,510.0,13.0,0.0
913,66.0,0.0,510.0,8.0,0.0
914,65.0,0.0,510.0,13.0,0.0
915,65.0,0.0,510.0,4.0,0.0
916,65.0,0.0,510.0,14.0,0.0
917,53.0,0.0,510.0,15.0,0.0
918,65.0,2048.0,510.0,8.0,0.0
919,75.0,0.0,2040.0,2.0,0.0
920,63.0,0.0,5130.0,14.0,0.0
921,63.0,0.0,5130.0,8.0,0.0
922,75.0,2048.0,2040.0,3.0,0.0
923,75.0,0.0,2040.0,6.0,0.0
924,63.0,1024.0,5130.0,4.0,0.0
925,51.0,0.0,5130.0,15.0,0.0
926,63.0,0.0,5130.0,13.0,0.0
927,75.0,0.0,2040.0,11.0,0.0
928,71.0,0.0,2040.0,12.0,0.0
929,71.0,0.0,2040.0,7.0,0.0
930,77.0,0.0,2040.0,11.0,0.0
931,77.0,0.0,2040.0,2.0,0.0
932,77.0,1024.0,2040.0,6.0,0.0
933,77.0,0.0,2040.0,3.0,0.0
934,70.0,0.0,4110.0,7.0,0.0
935,70.0,0.0,4110.0,12.0,0.0
936,78.0,0.0,4110.0,10.0,0.0
937,78.0,0.0,2040.0,6.0,0.0
938,78.0,0.0,2040.0,11.0,0.0
939,78.0,0.0,2040.0,3.0,0.0
940,78.0,1024.0,2040.0,2.0,0.0
941,78.0,0.0,4110.0,0.0,0.0
942,78.0,0.0,4110.0,5.0,0.0
943,53.0,0.0,1020.0,15.0,0.0
944,65.0,0.0,1020.0,8.0,0.0
945,65.0,0.0,1020.0,13.0,0.0
946,65.0,0.0,1020.0,14.0,0.0
947,65.0,0.0,1020.0,4.0,0.0
948,66.0,0.0,2040.0,8.0,0.0
949,66.0,0.0,2040.0,4.0,0.0
950,66.0,0.0,2040.0,13.0,0.0
951,77.0,1024.0,1020.0,6.0,0.0
952,77.0,0.0,1020.0,2.0,0.0
953,77.0,0.0,1020.0,3.0,0.0
954,77.0,0.0,1020.0,11.0,0.0
955,66.0,0.0,2040.0,14.0,0.0
956,54.0,0.0,2040.0,15.0,0.0
957,75.0,0.0,1020.0,3.0,0.0
958,75.0,1024.0,1020.0,11.0,0.0
959,75.0,0.0,1020.0,6.0,0.0
960,75.0,0.0,1020.0,2.0,0.0
961,80.0,0.0,2040.0,0.0,0.0
962,80.0,0.0,2040.0,2.0,0.0
963,68.0,0.0,2040.0,7.0,0.0
964,80.0,0.0,2040.0,3.0,0.0
965,49.0,0.0,2040.0,15.0,0.0
966,80.0,1024.0,2040.0,5.0,0.0
967,77.0,1024.0,1020.0,2.0,0.0
968,61.0,0.0,2040.0,8.0,0.0
969,61.0,0.0,2040.0,4.0,0.0
970,61.0,0.0,2040.0,14.0,0.0
971,77.0,0.0,1020.0,6.0,0.0
972,61.0,0.0,2040.0,13.0,0.0
973,68.0,0.0,2040.0,12.0,0.0
974,77.0,0.0,1020.0,3.0,0.0
975,80.0,0.0,2040.0,10.0,0.0
976,77.0,0.0,1020.0,11.0,0.0
977,73.0,0.0,1020.0,11.0,0.0
978,73.0,0.0,1020.0,6.0,0.0
979,73.0,0.0,1020.0,2.0,0.0
980,73.0,0.0,1020.0,3.0,0.0
981,61.0,0.0,2040.0,7.0,0.0
982,78.0,0.0,4110.0,6.0,0.0
983,61.0,0.0,2040.0,12.0,0.0
984,82.0,0.0,2040.0,0.0,0.0
985,78.0,0.0,4110.0,3.0,0.0
986,59.0,0.0,1020.0,14.0,0.0
987,78.0,0.0,4110.0,2.0,0.0
988,82.0,0.0,2040.0,3.0,0.0
989,59.0,1024.0,1020.0,8.0,0.0
990,82.0,0.0,2040.0,2.0,0.0
991,47.0,0.0,1020.0,15.0,0.0
992,59.0,0.0,1020.0,4.0,0.0
993,82.0,0.0,2040.0,10.0,0.0
994,82.0,0.0,2040.0,5.0,0.0
995,59.0,0.0,1020.0,13.0,0.0
996,78.0,0.0,4110.0,11.0,0.0
997,58.0,0.0,1020.0,13.0,0.0
998,58.0,0.0,1020.0,4.0,0.0
999,58.0,0.0,1020.0,14.0,0.0
1000,46.0,0.0,1020.0,15.0,0.0
1001,58.0,2048.0,1020.0,8.0,0.0
1002,56.0,0.0,2040.0,4.0,0.0
1003,56.0,0.0,2040.0,13.0,0.0
1004,63.0,0.0,2040.0,12.0,0.0
1005,63.0,0.0,2040.0,7.0,0.0
1006,83.0,0.0,2040.0,0.0,0.0
1007,56.0,0.0,2040.0,8.0,0.0
1008,44.0,0.0,2040.0,15.0,0.0
1009,83.0,0.0,2040.0,10.0,0.0
1010,83.0,0.0,2040.0,2.0,0.0
1011,83.0,0.0,2040.0,3.0,0.0
1012,83.0,0.0,2040.0,5.0,0.0
1013,56.0,1024.0,2040.0,14.0,0.0
1014,65.0,0.0,2040.0,12.0,0.0
1015,61.0,0.0,2040.0,8.0,0.0
1016,77.0,0.0,2040.0,2.0,0.0
1017,77.0,1024.0,2040.0,6.0,0.0
1018,82.0,0.0,1020.0,2.0,0.0
1019,61.0,0.0,2040.0,4.0,0.0
1020,61.0,0.0,2040.0,13.0,0.0
1021,77.0,0.0,2040.0,11.0,0.0
1022,82.0,1024.0,1020.0,10.0,0.0
1023,82.0,0.0,1020.0,3.0,0.0
1024,65.0,0.0,2040.0,7.0,0.0
1025,82.0,0.0,1020.0,0.0,0.0
1026,77.0,0.0,2040.0,3.0,0.0
1027,82.0,0.0,1020.0,5.0,0.0
1028,61.0,0.0,2040.0,14.0,0.0
1029,49.0,0.0,2040.0,15.0,0.0
1030,80.0,0.0,1020.0,5.0,0.0
1031,80.0,0.0,1020.0,2.0,0.0
1032,80.0,0.0,1020.0,0.0,0.0
1033,80.0,0.0,1020.0,3.0,0.0
1034,80.0,0.0,1020.0,10.0,0.0
1035,75.0,0.0,4110.0,2.0,0.0
1036,54.0,0.0,2040.0,14.0,0.0
1037,42.0,0.0,2040.0,15.0,0.0
1038,82.0,0.0,1020.0,3.0,0.0
1039,82.0,0.0,1020.0,0.0,0.0
1040,66.0,0.0,2040.0,12.0,0.0
1041,75.0,0.0,4110.0,11.0,0.0
1042,82.0,0.0,1020.0,2.0,0.0
1043,54.0,0.0,2040.0,4.0,0.0
1044,66.0,0.0,2040.0,7.0,0.0
1045,54.0,0.0,2040.0,8.0,0.0
1046,75.0,0.0,4110.0,3.0,0.0
1047,82.0,1024.0,1020.0,5.0,0.0
1048,75.0,0.0,4110.0,6.0,0.0
1049,82.0,0.0,1020.0,10.0,0.0
1050,54.0,1024.0,2040.0,13.0,0.0
1051,78.0,0.0,1020.0,10.0,0.0
1052,78.0,0.0,1020.0,2.0,0.0
1053,78.0,0.0,1020.0,5.0,0.0
1054,78.0,0.0,1020.0,3.0,0.0
1055,78.0,0.0,1020.0,0.0,0.0
1056,65.0,1024.0,1020.0,7.0,0.0
1057,83.0,0.0,4110.0,0.0,0.0
1058,65.0,0.0,1020.0,12.0,0.0
1059,83.0,0.0,4110.0,10.0,0.0
1060,56.0,1024.0,2040.0,8.0,0.0
1061,83.0,0.0,4110.0,5.0,0.0
1062,44.0,0.0,2040.0,15.0,0.0
1063,56.0,0.0,2040.0,4.0,0.0
1064,56.0,0.0,2040.0,14.0,0.0
1065,56.0,0.0,2040.0,13.0,0.0
1066,83.0,0.0,4110.0,2.0,0.0
1067,83.0,0.0,4110.0,3.0,0.0
1068,63.0,0.0,1020.0,12.0,0.0
1069,63.0,0.0,1020.0,7.0,0.0
1070,65.0,1024.0,1020.0,7.0,0.0
1071,73.0,0.0,2040.0,11.0,0.0
1072,73.0,1024.0,2040.0,3.0,0.0
1073,37.0,0.0,6150.0,15.0,0.0
1074,73.0,0.0,2040.0,2.0,0.0
1075,49.0,0.0,6150.0,4.0,0.0
1076,73.0,0.0,2040.0,6.0,0.0
1077,65.0,0.0,1020.0,12.0,0.0
1078,49.0,0.0,6150.0,13.0,0.0
1079,49.0,0.0,6150.0,14.0,0.0
1080,49.0,512.0,6150.0,8.0,0.0
1081,61.0,0.0,1020.0,12.0,0.0
1082,61.0,0.0,1020.0,7.0,0.0
1083,82.0,0.0,1020.0,5.0,0.0
1084,66.0,0.0,4110.0,12.0,0.0
1085,66.0,0.0,2040.0,2.0,0.0
1086,82.0,2048.0,2040.0,0.0,0.0
1087,82.0,0.0,1020.0,3.0,0.0
1088,66.0,0.0,2040.0,6.0,0.0
1089,66.0,0.0,2040.0,11.0,0.0
1090,66.0,0.0,4110.0,7.0,0.0
1091,66.0,0.0,2040.0,3.0,0.0
1092,82.0,0.0,1020.0,5.0,0.0
1093,82.0,0.0,15.0,10.0,0.0
1094,82.0,0.0,1020.0,3.0,0.0
1095,82.0,1024.0,15.0,2.0,0.0
1096,80.0,0.0,4110.0,2.0,0.0
1097,80.0,0.0,4110.0,10.0,0.0
1098,68.0,0.0,2040.0,11.0,0.0
1099,80.0,512.0,4110.0,0.0,0.0
1100,68.0,0.0,2040.0,6.0,0.0
1101,80.0,0.0,4110.0,3.0,0.0
1102,68.0,0.0,2040.0,3.0,0.0
1103,68.0,0.0,2040.0,2.0,0.0
1104,80.0,0.0,4110.0,5.0,0.0
1105,50.0,0.0,510.0,13.0,0.0
1106,70.0,0.0,2040.0,11.0,0.0
1107,38.0,0.0,510.0,15.0,0.0
1108,50.0,0.0,510.0,14.0,0.0
1109,70.0,0.0,2040.0,3.0,0.0
1110,50.0,0.0,510.0,4.0,0.0
1111,70.0,0.0,2040.0,6.0,0.0
1112,70.0,0.0,2040.0,2.0,0.0
1113,65.0,0.0,2040.0,7.0,0.0
1114,65.0,0.0,2040.0,12.0,0.0
1115,50.0,512.0,510.0,8.0,0.0
1116,51.0,0.0,510.0,4.0,0.0
1117,51.0,0.0,510.0,13.0,0.0
1118,39.0,0.0,510.0,15.0,0.0
1119,51.0,512.0,510.0,14.0,0.0
1120,51.0,0.0,510.0,8.0,0.0
1121,48.0,0.0,510.0,8.0,0.0
1122,48.0,0.0,510.0,13.0,0.0
1123,48.0,0.0,510.0,4.0,0.0
1124,48.0,0.0,510.0,14.0,0.0
1125,36.0,512.0,510.0,15.0,0.0
1126,50.0,0.0,510.0,13.0,0.0
1127,50.0,0.0,510.0,4.0,0.0
1128,50.0,0.0,510.0,14.0,0.0
1129,50.0,0.0,510.0,8.0,0.0
1130,38.0,0.0,510.0,15.0,0.0
1131,51.0,512.0,510.0,8.0,0.0
1132,51.0,0.0,510.0,14.0,0.0
1133,71.0,0.0,2040.0,11.0,0.0
1134,78.0,0.0,4110.0,5.0,0.0
1135,63.0,0.0,4110.0,7.0,0.0
1136,71.0,0.0,2040.0,2.0,0.0
1137,78.0,0.0,4110.0,10.0,0.0
1138,51.0,0.0,510.0,4.0,0.0
1139,71.0,0.0,2040.0,6.0,0.0
1140,71.0,0.0,2040.0,3.0,0.0
1141,78.0,0.0,4110.0,2.0,0.0
1142,51.0,0.0,510.0,13.0,0.0
1143,63.0,512.0,4110.0,12.0,0.0
1144,78.0,0.0,4110.0,3.0,0.0
1145,39.0,0.0,510.0,15.0,0.0
1146,78.0,0.0,4110.0,0.0,0.0
1147,53.0,0.0,510.0,4.0,0.0
1148,53.0,0.0,510.0,14.0,0.0
1149,53.0,512.0,510.0,8.0,0.0
1150,53.0,0.0,510.0,13.0,0.0
1151,41.0,0.0,510.0,15.0,0.0
1152,38.0,512.0,510.0,15.0,0.0
1153,50.0,0.0,510.0,13.0,0.0
1154,50.0,0.0,510.0,14.0,0.0
1155,50.0,0.0,510.0,4.0,0.0
1156,50.0,0.0,510.0,8.0,0.0
1157,51.0,0.0,510.0,14.0,0.0
1158,39.0,0.0,510.0,15.0,0.0
1159,51.0,0.0,510.0,8.0,0.0
1160,51.0,512.0,510.0,4.0,0.0
1161,51.0,0.0,510.0,13.0,0.0
1162,53.0,0.0,510.0,4.0,0.0
1163,53.0,0.0,510.0,13.0,0.0
1164,41.0,0.0,510.0,15.0,0.0
1165,70.0,0.0,1020.0,6.0,0.0
1166,70.0,512.0,1020.0,11.0,0.0
1167,70.0,0.0,1020.0,3.0,0.0
1168,53.0,0.0,510.0,8.0,0.0
1169,53.0,512.0,510.0,14.0,0.0
1170,70.0,0.0,1020.0,2.0,0.0
1171,54.0,0.0,510.0,4.0,0.0
1172,54.0,0.0,510.0,8.0,0.0
1173,42.0,0.0,510.0,15.0,0.0
1174,54.0,0.0,510.0,14.0,0.0
1175,54.0,0.0,510.0,13.0,0.0
1176,51.0,512.0,510.0,8.0,0.0
1177,51.0,0.0,510.0,4.0,0.0
1178,68.0,0.0,1020.0,6.0,0.0
1179,68.0,0.0,1020.0,3.0,0.0
1180,68.0,0.0,1020.0,2.0,0.0
1181,51.0,0.0,510.0,13.0,0.0
1182,51.0,0.0,510.0,14.0,0.0
1183,68.0,0.0,1020.0,11.0,0.0
1184,39.0,0.0,510.0,15.0,0.0
1185,53.0,0.0,510.0,14.0,0.0
1186,41.0,0.0,510.0,15.0,0.0
1187,53.0,0.0,510.0,4.0,0.0
1188,53.0,0.0,510.0,8.0,0.0
1189,53.0,0.0,510.0,13.0,0.0
1190,70.0,0.0,1020.0,6.0,0.0
1191,61.0,0.0,2040.0,7.0,0.0
1192,70.0,0.0,1020.0,2.0,0.0
1193,54.0,512.0,510.0,4.0,0.0
1194,54.0,0.0,510.0,14.0,0.0
1195,70.0,0.0,1020.0,3.0,0.0
1196,42.0,0.0,510.0,15.0,0.0
1197,54.0,0.0,510.0,13.0,0.0
1198,70.0,0.0,1020.0,11.0,0.0
1199,61.0,0.0,2040.0,12.0,0.0
1200,54.0,0.0,510.0,8.0,0.0
1201,53.0,512.0,510.0,8.0,0.0
1202,53.0,0.0,510.0,13.0,0.0
1203,41.0,0.0,510.0,15.0,0.0
1204,53.0,0.0,510.0,4.0,0.0
1205,53.0,0.0,510.0,14.0,0.0
1206,54.0,512.0,510.0,14.0,0.0
1207,54.0,0.0,510.0,13.0,0.0
1208,54.0,0.0,510.0,4.0,0.0
1209,66.0,0.0,1020.0,11.0,0.0
1210,66.0,0.0,1020.0,2.0,0.0
1211,42.0,0.0,510.0,15.0,0.0
1212,66.0,0.0,1020.0,6.0,0.0
1213,66.0,0.0,1020.0,3.0,0.0
1214,54.0,0.0,510.0,8.0,0.0
1215,56.0,0.0,510.0,4.0,0.0
1216,44.0,0.0,510.0,15.0,0.0
1217,56.0,0.0,510.0,8.0,0.0
1218,56.0,0.0,510.0,14.0,0.0
1219,56.0,512.0,510.0,13.0,0.0
1220,73.0,0.0,4110.0,6.0,0.0
1221,52.0,0.0,510.0,14.0,0.0
1222,73.0,0.0,4110.0,11.0,0.0
1223,40.0,0.0,510.0,15.0,0.0
1224,68.0,0.0,2040.0,7.0,0.0
1225,73.0,0.0,4110.0,3.0,0.0
1226,52.0,0.0,510.0,4.0,0.0
1227,73.0,0.0,4110.0,2.0,0.0
1228,52.0,512.0,510.0,13.0,0.0
1229,52.0,0.0,510.0,8.0,0.0
1230,51.0,0.0,510.0,8.0,0.0
1231,51.0,0.0,510.0,14.0,0.0
1232,51.0,512.0,510.0,13.0,0.0
1233,39.0,0.0,510.0,15.0,0.0
1234,51.0,0.0,510.0,4.0,0.0
1235,52.0,512.0,510.0,8.0,0.0
1236,68.0,0.0,15.0,12.0,0.0
1237,52.0,0.0,510.0,13.0,0.0
1238,52.0,0.0,510.0,4.0,0.0
1239,40.0,0.0,510.0,15.0,0.0
1240,52.0,0.0,510.0,14.0,0.0
1241,54.0,0.0,510.0,8.0,0.0
1242,54.0,0.0,510.0,14.0,0.0
1243,54.0,0.0,510.0,4.0,0.0
1244,54.0,512.0,510.0,13.0,0.0
1245,42.0,0.0,510.0,15.0,0.0
1246,51.0,0.0,510.0,8.0,0.0
1247,67.0,512.0,1020.0,12.0,0.0
1248,51.0,0.0,510.0,14.0,0.0
1249,51.0,0.0,510.0,4.0,0.0
1250,67.0,0.0,2040.0,7.0,0.0
1251,39.0,512.0,510.0,15.0,0.0
1252,53.0,0.0,510.0,8.0,0.0
1253,53.0,0.0,510.0,14.0,0.0
1254,41.0,0.0,510.0,15.0,0.0
1255,53.0,0.0,510.0,4.0,0.0
1256,55.0,512.0,510.0,4.0,0.0
1257,55.0,0.0,510.0,14.0,0.0
1258,55.0,0.0,510.0,8.0,0.0
1259,51.0,0.0,15.0,13.0,0.0
1260,43.0,0.0,510.0,15.0,0.0
1261,63.0,1024.0,2040.0,12.0,0.0
1262,51.0,0.0,510.0,8.0,0.0
1263,51.0,0.0,510.0,4.0,0.0
1264,39.0,0.0,510.0,15.0,0.0
1265,51.0,1024.0,510.0,14.0,0.0
1266,80.0,0.0,4110.0,5.0,0.0
1267,80.0,0.0,4110.0,3.0,0.0
1268,80.0,1024.0,4110.0,2.0,0.0
1269,71.0,0.0,2040.0,11.0,0.0
1270,56.0,0.0,2040.0,13.0,0.0
1271,71.0,0.0,2040.0,2.0,0.0
1272,80.0,0.0,4110.0,10.0,0.0
1273,71.0,0.0,2040.0,6.0,0.0
1274,71.0,2048.0,2040.0,3.0,0.0
1275,56.0,0.0,2040.0,8.0,0.0
1276,63.0,0.0,2040.0,7.0,0.0
1277,56.0,0.0,2040.0,4.0,0.0
1278,56.0,0.0,2040.0,14.0,0.0
1279,44.0,0.0,2040.0,15.0,0.0
1280,63.0,0.0,1020.0,12.0,0.0
1281,70.0,0.0,4110.0,2.0,0.0
1282,37.0,0.0,2040.0,15.0,0.0
1283,49.0,0.0,2040.0,14.0,0.0
1284,64.0,0.0,2040.0,12.0,0.0
1285,49.0,0.0,2040.0,13.0,0.0
1286,70.0,0.0,4110.0,11.0,0.0
1287,64.0,0.0,2040.0,7.0,0.0
1288,49.0,0.0,2040.0,8.0,0.0
1289,70.0,0.0,4110.0,3.0,0.0
1290,70.0,0.0,4110.0,6.0,0.0
1291,49.0,0.0,2040.0,4.0,0.0
1292,51.0,0.0,2040.0,8.0,0.0
1293,51.0,1024.0,2040.0,4.0,0.0
1294,79.0,0.0,2040.0,10.0,0.0
1295,39.0,0.0,2040.0,15.0,0.0
1296,51.0,0.0,2040.0,13.0,0.0
1297,63.0,0.0,2040.0,12.0,0.0
1298,63.0,1024.0,1020.0,7.0,0.0
1299,51.0,0.0,2040.0,14.0,0.0
1300,79.0,0.0,2040.0,5.0,0.0
1301,79.0,0.0,2040.0,3.0,0.0
1302,79.0,0.0,2040.0,2.0,0.0
1303,61.0,0.0,1020.0,7.0,0.0
1304,44.0,0.0,2040.0,14.0,0.0
1305,80.0,0.0,1020.0,10.0,0.0
1306,44.0,0.0,2040.0,8.0,0.0
1307,56.0,0.0,2040.0,13.0,0.0
1308,68.0,0.0,2040.0,2.0,0.0
1309,68.0,0.0,2040.0,6.0,0.0
1310,68.0,0.0,2040.0,3.0,0.0
1311,32.0,0.0,2040.0,15.0,0.0
1312,80.0,512.0,1020.0,5.0,0.0
1313,59.0,512.0,2040.0,7.0,0.0
1314,59.0,0.0,2040.0,12.0,0.0
1315,44.0,0.0,2040.0,4.0,0.0
1316,80.0,0.0,1020.0,3.0,0.0
1317,68.0,0.0,2040.0,11.0,0.0
1318,80.0,0.0,1020.0,2.0,0.0
1319,78.0,0.0,510.0,3.0,0.0
1320,78.0,0.0,510.0,2.0,0.0
1321,78.0,0.0,510.0,10.0,0.0
1322,78.0,512.0,510.0,5.0,0.0
1323,76.0,0.0,510.0,3.0,0.0
1324,76.0,0.0,510.0,10.0,0.0
1325,76.0,0.0,510.0,5.0,0.0
1326,76.0,0.0,510.0,2.0,0.0
1327,75.0,0.0,510.0,3.0,0.0
1328,71.0,0.0,4110.0,11.0,0.0
1329,75.0,512.0,510.0,10.0,0.0
1330,71.0,0.0,4110.0,6.0,0.0
1331,71.0,0.0,4110.0,3.0,0.0
1332,71.0,512.0,4110.0,8.0,0.0
1333,71.0,0.0,4110.0,14.0,0.0
1334,75.0,0.0,510.0,2.0,0.0
1335,59.0,0.0,4110.0,15.0,0.0
1336,71.0,0.0,4110.0,4.0,0.0
1337,71.0,0.0,4110.0,2.0,0.0
1338,75.0,0.0,510.0,5.0,0.0
1339,76.0,0.0,510.0,3.0,0.0
1340,76.0,0.0,510.0,2.0,0.0
1341,76.0,512.0,510.0,10.0,0.0
1342,76.0,0.0,510.0,5.0,0.0
1343,73.0,0.0,510.0,5.0,0.0
1344,73.0,0.0,510.0,2.0,0.0
1345,73.0,0.0,510.0,3.0,0.0
1346,73.0,512.0,510.0,10.0,0.0
1347,75.0,0.0,510.0,2.0,0.0
1348,75.0,0.0,510.0,10.0,0.0
1349,75.0,512.0,510.0,3.0,0.0
1350,75.0,0.0,510.0,5.0,0.0
1351,76.0,0.0,510.0,2.0,0.0
1352,76.0,512.0,510.0,5.0,0.0
1353,76.0,0.0,510.0,10.0,0.0
1354,76.0,0.0,510.0,3.0,0.0
1355,75.0,512.0,510.0,3.0,0.0
1356,75.0,0.0,510.0,2.0,0.0
1357,75.0,0.0,510.0,5.0,0.0
1358,75.0,0.0,510.0,10.0,0.0
1359,76.0,512.0,510.0,5.0,0.0
1360,76.0,0.0,510.0,2.0,0.0
1361,76.0,0.0,510.0,10.0,0.0
1362,76.0,0.0,510.0,3.0,0.0
1363,78.0,0.0,510.0,5.0,0.0
1364,78.0,0.0,510.0,2.0,0.0
1365,78.0,0.0,510.0,10.0,0.0
1366,78.0,0.0,510.0,3.0,0.0
1367,70.0,0.0,2040.0,14.0,0.0
1368,70.0,0.0,2040.0,11.0,0.0
1369,70.0,0.0,2040.0,2.0,0.0
1370,76.0,0.0,510.0,2.0,0.0
1371,70.0,0.0,2040.0,6.0,0.0
1372,76.0,512.0,510.0,5.0,0.0
1373,76.0,0.0,510.0,10.0,0.0
1374,76.0,0.0,510.0,3.0,0.0
1375,70.0,0.0,2040.0,3.0,0.0
1376,58.0,0.0,2040.0,15.0,0.0
1377,70.0,0.0,2040.0,8.0,0.0
1378,70.0,0.0,2040.0,4.0,0.0
1379,80.0,512.0,510.0,2.0,0.0
1380,80.0,0.0,510.0,3.0,0.0
1381,80.0,0.0,510.0,5.0,0.0
1382,80.0,0.0,510.0,10.0,0.0
1383,78.0,0.0,510.0,10.0,0.0
1384,78.0,0.0,510.0,5.0,0.0
1385,78.0,0.0,510.0,3.0,0.0
1386,78.0,512.0,510.0,2.0,0.0
1387,76.0,1024.0,510.0,5.0,0.0
1388,76.0,0.0,510.0,2.0,0.0
1389,76.0,0.0,510.0,3.0,0.0
1390,76.0,0.0,510.0,10.0,0.0
1391,71.0,0.0,1020.0,3.0,0.0
1392,71.0,0.0,1020.0,4.0,0.0
1393,75.0,0.0,1020.0,3.0,0.0
1394,75.0,0.0,1020.0,2.0,0.0
1395,71.0,0.0,1020.0,11.0,0.0
1396,59.0,0.0,1020.0,15.0,0.0
1397,71.0,0.0,1020.0,14.0,0.0
1398,71.0,0.0,1020.0,2.0,0.0
1399,75.0,512.0,1020.0,10.0,0.0
1400,71.0,0.0,1020.0,6.0,0.0
1401,75.0,0.0,1020.0,5.0,0.0
1402,71.0,0.0,1020.0,8.0,0.0
1403,70.0,0.0,510.0,4.0,0.0
1404,70.0,0.0,510.0,11.0,0.0
1405,77.0,512.0,1020.0,5.0,0.0
1406,70.0,0.0,510.0,14.0,0.0
1407,70.0,0.0,510.0,2.0,0.0
1408,77.0,0.0,1020.0,2.0,0.0
1409,77.0,0.0,1020.0,3.0,0.0
1410,58.0,0.0,510.0,15.0,0.0
1411,70.0,512.0,510.0,3.0,0.0
1412,70.0,0.0,510.0,6.0,0.0
1413,77.0,0.0,1020.0,10.0,0.0
1414,70.0,0.0,510.0,8.0,0.0
1415,68.0,0.0,510.0,4.0,0.0
1416,68.0,0.0,510.0,11.0,0.0
1417,68.0,0.0,510.0,6.0,0.0
1418,68.0,0.0,510.0,8.0,0.0
1419,68.0,0.0,510.0,2.0,0.0
1420,68.0,0.0,510.0,3.0,0.0
1421,68.0,0.0,510.0,14.0,0.0
1422,56.0,0.0,510.0,15.0,0.0
1423,78.0,0.0,2040.0,10.0,0.0
1424,63.0,512.0,4110.0,8.0,0.0
1425,63.0,0.0,4110.0,14.0,0.0
1426,63.0,0.0,4110.0,7.0,0.0
1427,63.0,0.0,4110.0,12.0,0.0
1428,66.0,0.0,510.0,11.0,0.0
1429,66.0,512.0,510.0,6.0,0.0
1430,63.0,0.0,4110.0,4.0,0.0
1431,78.0,0.0,2040.0,2.0,0.0
1432,51.0,0.0,4110.0,15.0,0.0
1433,78.0,0.0,2040.0,3.0,0.0
1434,66.0,0.0,510.0,2.0,0.0
1435,78.0,0.0,2040.0,5.0,0.0
1436,66.0,0.0,510.0,3.0,0.0
1437,68.0,512.0,510.0,6.0,0.0
1438,68.0,0.0,510.0,11.0,0.0
1439,68.0,0.0,510.0,3.0,0.0
1440,68.0,0.0,510.0,2.0,0.0
1441,65.0,0.0,510.0,2.0,0.0
1442,65.0,0.0,510.0,3.0,0.0
1443,65.0,0.0,510.0,11.0,0.0
1444,65.0,512.0,510.0,6.0,0.0
1445,66.0,0.0,510.0,3.0,0.0
1446,66.0,512.0,510.0,6.0,0.0
1447,66.0,0.0,510.0,2.0,0.0
1448,66.0,0.0,510.0,11.0,0.0
1449,68.0,0.0,510.0,6.0,0.0
1450,71.0,0.0,1020.0,2.0,0.0
1451,71.0,0.0,1020.0,10.0,0.0
1452,71.0,512.0,1020.0,5.0,0.0
1453,68.0,0.0,510.0,3.0,0.0
1454,68.0,0.0,510.0,2.0,0.0
1455,68.0,512.0,510.0,11.0,0.0
1456,71.0,0.0,1020.0,3.0,0.0
1457,66.0,0.0,510.0,2.0,0.0
1458,66.0,0.0,510.0,6.0,0.0
1459,66.0,0.0,510.0,3.0,0.0
1460,66.0,0.0,510.0,11.0,0.0
1461,68.0,0.0,510.0,11.0,0.0
1462,68.0,0.0,510.0,2.0,0.0
1463,68.0,512.0,510.0,3.0,0.0
1464,68.0,0.0,1020.0,5.0,0.0
1465,68.0,0.0,510.0,6.0,0.0
1466,70.0,0.0,510.0,6.0,0.0
1467,70.0,0.0,510.0,3.0,0.0
1468,70.0,0.0,510.0,2.0,0.0
1469,70.0,0.0,510.0,11.0,0.0
1470,62.0,1024.0,2040.0,7.0,0.0
1471,77.0,0.0,4110.0,10.0,0.0
1472,68.0,0.0,15.0,2.0,0.0
1473,68.0,0.0,510.0,11.0,0.0
1474,68.0,0.0,15.0,3.0,0.0
1475,68.0,0.0,510.0,6.0,0.0
1476,62.0,0.0,2040.0,8.0,0.0
1477,62.0,0.0,2040.0,12.0,0.0
1478,77.0,0.0,4110.0,3.0,0.0
1479,77.0,0.0,4110.0,2.0,0.0
1480,62.0,0.0,2040.0,14.0,0.0
1481,62.0,0.0,2040.0,4.0,0.0
1482,50.0,0.0,2040.0,15.0,0.0
1483,77.0,512.0,4110.0,5.0,0.0
1484,71.0,0.0,510.0,11.0,0.0
1485,71.0,0.0,510.0,2.0,0.0
1486,71.0,512.0,510.0,3.0,0.0
1487,71.0,0.0,510.0,6.0,0.0
1488,70.0,0.0,510.0,2.0,0.0
1489,70.0,0.0,510.0,3.0,0.0
1490,70.0,512.0,510.0,11.0,0.0
1491,70.0,0.0,510.0,6.0,0.0
1492,68.0,0.0,510.0,11.0,0.0
1493,68.0,0.0,510.0,2.0,0.0
1494,68.0,0.0,510.0,3.0,0.0
1495,68.0,0.0,510.0,6.0,0.0
1496,66.0,0.0,1020.0,6.0,0.0
1497,51.0,0.0,1020.0,15.0,0.0
1498,66.0,0.0,1020.0,11.0,0.0
1499,63.0,0.0,1020.0,14.0,0.0
1500,63.0,0.0,1020.0,8.0,0.0
1501,63.0,0.0,1020.0,12.0,0.0
1502,63.0,0.0,1020.0,7.0,0.0
1503,63.0,0.0,1020.0,4.0,0.0
1504,66.0,512.0,1020.0,3.0,0.0
1505,66.0,0.0,1020.0,2.0,0.0
1506,61.0,0.0,510.0,14.0,0.0
1507,68.0,0.0,1020.0,2.0,0.0
1508,61.0,512.0,510.0,8.0,0.0
1509,49.0,0.0,510.0,15.0,0.0
1510,68.0,0.0,1020.0,11.0,0.0
1511,61.0,0.0,510.0,7.0,0.0
1512,68.0,0.0,1020.0,6.0,0.0
1513,61.0,0.0,510.0,12.0,0.0
1514,61.0,0.0,510.0,4.0,0.0
1515,68.0,0.0,1020.0,3.0,0.0
1516,59.0,0.0,510.0,8.0,0.0
1517,47.0,0.0,510.0,15.0,0.0
1518,59.0,0.0,510.0,12.0,0.0
1519,59.0,0.0,510.0,14.0,0.0
1520,59.0,0.0,510.0,7.0,0.0
1521,59.0,0.0,510.0,4.0,0.0
1522,54.0,0.0,4110.0,4.0,0.0
1523,54.0,0.0,4110.0,14.0,0.0
1524,70.0,0.0,2040.0,3.0,0.0
1525,42.0,0.0,4110.0,15.0,0.0
1526,58.0,512.0,510.0,12.0,0.0
1527,75.0,0.0,1020.0,10.0,0.0
1528,70.0,0.0,2040.0,6.0,0.0
1529,75.0,0.0,1020.0,2.0,0.0
1530,58.0,0.0,510.0,7.0,0.0
1531,70.0,0.0,2040.0,2.0,0.0
1532,75.0,0.0,1020.0,5.0,0.0
1533,70.0,0.0,2040.0,11.0,0.0
1534,54.0,512.0,4110.0,8.0,0.0
1535,54.0,0.0,4110.0,13.0,0.0
1536,75.0,512.0,1020.0,3.0,0.0
1537,59.0,0.0,510.0,7.0,0.0
1538,59.0,0.0,510.0,12.0,0.0
1539,56.0,0.0,510.0,12.0,0.0
1540,56.0,512.0,510.0,7.0,0.0
1541,58.0,0.0,510.0,12.0,0.0
1542,58.0,512.0,510.0,7.0,0.0
1543,80.0,0.0,2040.0,5.0,0.0
1544,63.0,0.0,2040.0,6.0,0.0
1545,59.0,0.0,510.0,12.0,0.0
1546,80.0,0.0,2040.0,2.0,0.0
1547,68.0,0.0,4110.0,3.0,0.0
1548,68.0,0.0,4110.0,2.0,0.0
1549,80.0,0.0,2040.0,3.0,0.0
1550,63.0,0.0,1020.0,11.0,0.0
1551,59.0,512.0,510.0,7.0,0.0
1552,58.0,0.0,510.0,7.0,0.0
1553,58.0,0.0,510.0,12.0,0.0
1554,59.0,0.0,510.0,12.0,0.0
1555,59.0,512.0,510.0,7.0,0.0
1556,80.0,512.0,15.0,10.0,0.0
1557,61.0,0.0,510.0,12.0,0.0
1558,61.0,0.0,510.0,7.0,0.0
1559,68.0,0.0,3060.0,6.0,0.0
1560,73.0,0.0,4110.0,5.0,0.0
1561,59.0,512.0,510.0,12.0,0.0
1562,59.0,0.0,510.0,7.0,0.0
1563,73.0,0.0,4110.0,2.0,0.0
1564,53.0,0.0,2040.0,4.0,0.0
1565,68.0,0.0,3060.0,11.0,0.0
1566,53.0,0.0,2040.0,13.0,0.0
1567,41.0,0.0,2040.0,15.0,0.0
1568,73.0,0.0,4110.0,3.0,0.0
1569,53.0,0.0,2040.0,8.0,0.0
1570,53.0,1024.0,2040.0,14.0,0.0
1571,63.0,0.0,510.0,7.0,0.0
1572,63.0,512.0,510.0,12.0,0.0
1573,61.0,0.0,510.0,12.0,0.0
1574,61.0,512.0,510.0,7.0,0.0
1575,59.0,0.0,510.0,7.0,0.0
1576,59.0,0.0,510.0,12.0,0.0
1577,54.0,0.0,1020.0,13.0,0.0
1578,70.0,0.0,2040.0,3.0,0.0
1579,58.0,0.0,1020.0,7.0,0.0
1580,54.0,0.0,1020.0,4.0,0.0
1581,54.0,0.0,1020.0,14.0,0.0
1582,73.0,0.0,15.0,10.0,0.0
1583,70.0,512.0,2040.0,2.0,0.0
1584,58.0,0.0,1020.0,12.0,0.0
1585,54.0,0.0,1020.0,8.0,0.0
1586,42.0,0.0,1020.0,15.0,0.0
1587,59.0,0.0,1020.0,7.0,0.0
1588,53.0,0.0,510.0,13.0,0.0
1589,41.0,0.0,510.0,15.0,0.0
1590,66.0,0.0,1020.0,11.0,0.0
1591,66.0,0.0,1020.0,6.0,0.0
1592,53.0,0.0,510.0,8.0,0.0
1593,53.0,512.0,510.0,4.0,0.0
1594,53.0,0.0,510.0,14.0,0.0
1595,59.0,0.0,1020.0,12.0,0.0
1596,51.0,0.0,510.0,8.0,0.0
1597,51.0,0.0,510.0,13.0,0.0
1598,51.0,0.0,510.0,14.0,0.0
1599,39.0,0.0,510.0,15.0,0.0
1600,51.0,0.0,510.0,4.0,0.0
1601,65.0,0.0,1020.0,11.0,0.0
1602,37.0,0.0,510.0,15.0,0.0
1603,82.0,0.0,4110.0,2.0,0.0
1604,61.0,0.0,2040.0,7.0,0.0
1605,65.0,0.0,1020.0,6.0,0.0
1606,49.0,512.0,510.0,8.0,0.0
1607,82.0,0.0,4110.0,5.0,0.0
1608,49.0,0.0,510.0,13.0,0.0
1609,49.0,0.0,510.0,4.0,0.0
1610,61.0,0.0,2040.0,12.0,0.0
1611,82.0,0.0,4110.0,3.0,0.0
1612,49.0,0.0,510.0,14.0,0.0
1613,82.0,512.0,4110.0,10.0,0.0
1614,51.0,512.0,510.0,14.0,0.0
1615,51.0,0.0,510.0,13.0,0.0
1616,39.0,0.0,510.0,15.0,0.0
1617,51.0,0.0,510.0,4.0,0.0
1618,51.0,0.0,510.0,8.0,0.0
1619,48.0,512.0,510.0,13.0,0.0
1620,77.0,0.0,1020.0,2.0,0.0
1621,48.0,0.0,510.0,4.0,0.0
1622,73.0,0.0,1020.0,6.0,0.0
1623,36.0,0.0,510.0,15.0,0.0
1624,48.0,0.0,510.0,14.0,0.0
1625,48.0,0.0,510.0,8.0,0.0
1626,77.0,0.0,1020.0,3.0,0.0
1627,73.0,0.0,1020.0,11.0,0.0
1628,49.0,0.0,510.0,13.0,0.0
1629,49.0,0.0,510.0,8.0,0.0
1630,49.0,0.0,510.0,14.0,0.0
1631,49.0,512.0,510.0,4.0,0.0
1632,37.0,0.0,510.0,15.0,0.0
1633,51.0,512.0,510.0,8.0,0.0
1634,51.0,0.0,510.0,14.0,0.0
1635,78.0,0.0,1020.0,3.0,0.0
1636,51.0,0.0,510.0,13.0,0.0
1637,54.0,0.0,1020.0,7.0,0.0
1638,78.0,0.0,1020.0,2.0,0.0
1639,54.0,0.0,1020.0,12.0,0.0
1640,72.0,0.0,4110.0,11.0,0.0
1641,39.0,0.0,510.0,15.0,0.0
1642,72.0,0.0,4110.0,6.0,0.0
1643,51.0,0.0,510.0,4.0,0.0
1644,49.0,0.0,510.0,14.0,0.0
1645,49.0,0.0,510.0,13.0,0.0
1646,49.0,0.0,510.0,4.0,0.0
1647,49.0,0.0,510.0,8.0,0.0
1648,37.0,512.0,510.0,15.0,0.0
1649,51.0,0.0,510.0,13.0,0.0
1650,51.0,0.0,510.0,4.0,0.0
1651,66.0,0.0,1020.0,12.0,0.0
1652,66.0,0.0,1020.0,7.0,0.0
1653,51.0,0.0,510.0,8.0,0.0
1654,51.0,512.0,510.0,14.0,0.0
1655,75.0,0.0,1020.0,2.0,0.0
1656,39.0,0.0,510.0,15.0,0.0
1657,75.0,0.0,1020.0,3.0,0.0
1658,53.0,0.0,510.0,4.0,0.0
1659,53.0,0.0,510.0,14.0,0.0
1660,53.0,0.0,510.0,13.0,0.0
1661,41.0,0.0,510.0,15.0,0.0
1662,53.0,0.0,510.0,8.0,0.0
1663,81.0,0.0,2040.0,2.0,0.0
1664,72.0,1024.0,2040.0,3.0,0.0
1665,65.0,0.0,1020.0,12.0,0.0
1666,65.0,0.0,3060.0,7.0,0.0
1667,51.0,0.0,510.0,4.0,0.0
1668,81.0,0.0,2040.0,5.0,0.0
1669,39.0,0.0,510.0,15.0,0.0
1670,81.0,0.0,2040.0,3.0,0.0
1671,72.0,0.0,2040.0,2.0,0.0
1672,51.0,512.0,510.0,13.0,0.0
1673,51.0,0.0,510.0,8.0,0.0
1674,51.0,0.0,510.0,14.0,0.0
1675,81.0,0.0,2040.0,10.0,0.0
1676,54.0,512.0,510.0,13.0,0.0
1677,42.0,0.0,510.0,15.0,0.0
1678,54.0,0.0,510.0,14.0,0.0
1679,54.0,0.0,510.0,4.0,0.0
1680,54.0,0.0,510.0,8.0,0.0
1681,53.0,0.0,510.0,4.0,0.0
1682,65.0,0.0,1020.0,12.0,0.0
1683,53.0,512.0,510.0,14.0,0.0
1684,41.0,0.0,510.0,15.0,0.0
1685,53.0,0.0,510.0,8.0,0.0
1686,53.0,0.0,510.0,13.0,0.0
1687,51.0,0.0,510.0,13.0,0.0
1688,51.0,0.0,510.0,8.0,0.0
1689,51.0,0.0,510.0,4.0,0.0
1690,39.0,0.0,510.0,15.0,0.0
1691,51.0,0.0,510.0,14.0,0.0
1692,49.0,512.0,1020.0,14.0,0.0
1693,49.0,0.0,1020.0,8.0,0.0
1694,70.0,0.0,2040.0,11.0,0.0
1695,82.0,0.0,1020.0,2.0,0.0
1696,70.0,0.0,2040.0,2.0,0.0
1697,82.0,0.0,1020.0,10.0,0.0
1698,49.0,0.0,1020.0,13.0,0.0
1699,37.0,0.0,1020.0,15.0,0.0
1700,82.0,0.0,1020.0,3.0,0.0
1701,82.0,0.0,1020.0,5.0,0.0
1702,70.0,0.0,2040.0,3.0,0.0
1703,65.0,0.0,1020.0,12.0,0.0
1704,70.0,0.0,2040.0,6.0,0.0
1705,49.0,0.0,1020.0,4.0,0.0
1706,80.0,512.0,510.0,2.0,0.0
1707,66.0,0.0,1020.0,12.0,0.0
1708,51.0,0.0,1020.0,4.0,0.0
1709,51.0,0.0,1020.0,13.0,0.0
1710,80.0,0.0,510.0,10.0,0.0
1711,66.0,0.0,1020.0,7.0,0.0
1712,80.0,0.0,510.0,3.0,0.0
1713,51.0,0.0,1020.0,8.0,0.0
1714,39.0,0.0,1020.0,15.0,0.0
1715,80.0,0.0,510.0,5.0,0.0
1716,51.0,0.0,1020.0,14.0,0.0
1717,78.0,512.0,510.0,3.0,0.0
1718,78.0,0.0,510.0,10.0,0.0
1719,78.0,0.0,510.0,2.0,0.0
1720,78.0,0.0,510.0,5.0,0.0
1721,68.0,0.0,2040.0,12.0,0.0
1722,53.0,0.0,2040.0,8.0,0.0
1723,77.0,0.0,510.0,10.0,0.0
1724,53.0,0.0,2040.0,4.0,0.0
1725,77.0,512.0,510.0,5.0,0.0
1726,53.0,0.0,2040.0,14.0,0.0
1727,41.0,512.0,2040.0,15.0,0.0
1728,68.0,0.0,2040.0,7.0,0.0
1729,77.0,0.0,510.0,3.0,0.0
1730,53.0,0.0,2040.0,13.0,0.0
1731,77.0,0.0,510.0,2.0,0.0
1732,78.0,512.0,510.0,3.0,0.0
1733,78.0,0.0,510.0,5.0,0.0
1734,78.0,0.0,510.0,10.0,0.0
1735,78.0,0.0,510.0,2.0,0.0
1736,75.0,0.0,510.0,10.0,0.0
1737,75.0,512.0,510.0,5.0,0.0
1738,75.0,0.0,510.0,3.0,0.0
1739,75.0,0.0,510.0,2.0,0.0
1740,77.0,0.0,510.0,2.0,0.0
1741,77.0,0.0,510.0,3.0,0.0
1742,77.0,0.0,510.0,10.0,0.0
1743,77.0,0.0,510.0,5.0,0.0
1744,78.0,0.0,510.0,2.0,0.0
1745,78.0,0.0,510.0,3.0,0.0
1746,46.0,512.0,1020.0,13.0,0.0
1747,78.0,512.0,510.0,10.0,0.0
1748,46.0,0.0,1020.0,14.0,0.0
1749,61.0,0.0,2040.0,7.0,0.0
1750,46.0,0.0,1020.0,4.0,0.0
1751,61.0,0.0,2040.0,12.0,0.0
1752,46.0,0.0,1020.0,8.0,0.0
1753,34.0,0.0,1020.0,15.0,0.0
1754,78.0,0.0,510.0,5.0,0.0
1755,77.0,0.0,510.0,5.0,0.0
1756,77.0,0.0,510.0,3.0,0.0
1757,77.0,0.0,510.0,10.0,0.0
1758,77.0,0.0,510.0,2.0,0.0
1759,58.0,0.0,1020.0,14.0,0.0
1760,78.0,512.0,510.0,5.0,0.0
1761,78.0,0.0,510.0,3.0,0.0
1762,78.0,0.0,510.0,2.0,0.0
1763,46.0,0.0,1020.0,15.0,0.0
1764,58.0,0.0,1020.0,8.0,0.0
1765,78.0,0.0,510.0,10.0,0.0
1766,58.0,512.0,1020.0,4.0,0.0
1767,80.0,0.0,510.0,2.0,0.0
1768,80.0,0.0,510.0,3.0,0.0
1769,80.0,0.0,510.0,10.0,0.0
1770,80.0,0.0,510.0,5.0,0.0
1771,78.0,512.0,510.0,2.0,0.0
1772,66.0,0.0,2040.0,11.0,0.0
1773,63.0,0.0,3060.0,14.0,0.0
1774,66.0,0.0,2040.0,2.0,0.0
1775,66.0,1024.0,2040.0,6.0,0.0
1776,51.0,0.0,3060.0,15.0,0.0
1777,63.0,0.0,3060.0,8.0,0.0
1778,78.0,0.0,510.0,5.0,0.0
1779,66.0,0.0,2040.0,3.0,0.0
1780,63.0,1024.0,3060.0,4.0,0.0
1781,78.0,0.0,510.0,3.0,0.0
1782,63.0,0.0,3060.0,13.0,0.0
1783,78.0,0.0,510.0,10.0,0.0
1784,82.0,0.0,510.0,3.0,0.0
1785,82.0,512.0,510.0,10.0,0.0
1786,82.0,0.0,510.0,2.0,0.0
1787,82.0,0.0,510.0,5.0,0.0
1788,80.0,0.0,510.0,10.0,0.0
1789,80.0,512.0,510.0,5.0,0.0
1790,80.0,0.0,510.0,3.0,0.0
1791,80.0,0.0,510.0,2.0,0.0
1792,78.0,0.0,510.0,10.0,0.0
1793,78.0,0.0,510.0,2.0,0.0
1794,78.0,0.0,510.0,3.0,0.0
1795,78.0,0.0,510.0,5.0,0.0
1796,77.0,0.0,2040.0,3.0,0.0
1797,68.0,0.0,2040.0,11.0,0.0
1798,68.0,1024.0,2040.0,3.0,0.0
1799,68.0,0.0,2040.0,6.0,0.0
1800,77.0,0.0,2040.0,2.0,0.0
1801,77.0,0.0,2040.0,5.0,0.0
1802,68.0,0.0,2040.0,2.0,0.0
1803,61.0,0.0,1020.0,4.0,0.0
1804,61.0,0.0,1020.0,13.0,0.0
1805,77.0,0.0,15.0,10.0,0.0
1806,61.0,0.0,1020.0,8.0,0.0
1807,61.0,0.0,1020.0,14.0,0.0
1808,49.0,0.0,1020.0,15.0,0.0
1809,61.0,0.0,2040.0,12.0,0.0
1810,59.0,0.0,1020.0,8.0,0.0
1811,59.0,0.0,1020.0,4.0,0.0
1812,82.0,0.0,2040.0,5.0,0.0
1813,47.0,0.0,1020.0,15.0,0.0
1814,59.0,1024.0,1020.0,14.0,0.0
1815,61.0,0.0,2040.0,7.0,0.0
1816,59.0,0.0,1020.0,13.0,0.0
1817,82.0,0.0,2040.0,3.0,0.0
1818,70.0,0.0,2040.0,2.0,0.0
1819,82.0,2048.0,2040.0,2.0,0.0
1820,82.0,0.0,2040.0,10.0,0.0
1821,70.0,0.0,2040.0,11.0,0.0
1822,70.0,0.0,2040.0,6.0,0.0
1823,70.0,0.0,2040.0,3.0,0.0
1824,58.0,0.0,1020.0,13.0,0.0
1825,58.0,0.0,1020.0,4.0,0.0
1826,58.0,0.0,1020.0,14.0,0.0
1827,46.0,0.0,1020.0,15.0,0.0
1828,58.0,0.0,1020.0,8.0,0.0
1829,71.0,0.0,2040.0,6.0,0.0
1830,56.0,0.0,2040.0,4.0,0.0
1831,75.0,0.0,2040.0,5.0,0.0
1832,71.0,0.0,2040.0,3.0,0.0
1833,75.0,0.0,2040.0,3.0,0.0
1834,71.0,1024.0,2040.0,2.0,0.0
1835,56.0,0.0,2040.0,13.0,0.0
1836,63.0,0.0,2040.0,12.0,0.0
1837,63.0,0.0,2040.0,7.0,0.0
1838,71.0,0.0,2040.0,11.0,0.0
1839,56.0,0.0,2040.0,14.0,0.0
1840,75.0,0.0,2040.0,10.0,0.0
1841,44.0,0.0,2040.0,15.0,0.0
1842,56.0,0.0,2040.0,8.0,0.0
1843,75.0,0.0,2040.0,2.0,0.0
1844,49.0,0.0,2040.0,15.0,0.0
1845,65.0,0.0,2040.0,7.0,0.0
1846,61.0,1024.0,2040.0,8.0,0.0
1847,65.0,0.0,2040.0,12.0,0.0
1848,61.0,0.0,2040.0,14.0,0.0
1849,70.0,1024.0,1020.0,2.0,0.0
1850,61.0,0.0,2040.0,13.0,0.0
1851,70.0,0.0,1020.0,11.0,0.0
1852,61.0,0.0,2040.0,4.0,0.0
1853,70.0,0.0,1020.0,6.0,0.0
1854,70.0,0.0,1020.0,3.0,0.0
1855,68.0,0.0,1020.0,11.0,0.0
1856,68.0,0.0,1020.0,6.0,0.0
1857,68.0,0.0,1020.0,2.0,0.0
1858,68.0,0.0,1020.0,3.0,0.0
1859,70.0,0.0,1020.0,3.0,0.0
1860,54.0,0.0,2040.0,13.0,0.0
1861,70.0,0.0,1020.0,11.0,0.0
1862,54.0,0.0,1020.0,14.0,0.0
1863,70.0,1024.0,1020.0,2.0,0.0
1864,54.0,0.0,1020.0,4.0,0.0
1865,66.0,0.0,2040.0,12.0,0.0
1866,66.0,0.0,2040.0,7.0,0.0
1867,54.0,0.0,1020.0,8.0,0.0
1868,70.0,0.0,1020.0,6.0,0.0
1869,42.0,0.0,1020.0,15.0,0.0
1870,66.0,1024.0,1020.0,3.0,0.0
1871,66.0,0.0,1020.0,6.0,0.0
1872,66.0,0.0,1020.0,11.0,0.0
1873,66.0,0.0,1020.0,8.0,0.0
1874,66.0,0.0,1020.0,2.0,0.0
1875,66.0,0.0,1020.0,4.0,0.0
1876,54.0,0.0,1020.0,15.0,0.0
1877,66.0,0.0,1020.0,14.0,0.0
1878,78.0,1024.0,2040.0,10.0,0.0
1879,53.0,0.0,1020.0,15.0,0.0
1880,65.0,0.0,1020.0,4.0,0.0
1881,71.0,0.0,4110.0,6.0,0.0
1882,65.0,0.0,1020.0,14.0,0.0
1883,78.0,0.0,2040.0,0.0,0.0
1884,65.0,0.0,1020.0,7.0,0.0
1885,65.0,1024.0,1020.0,8.0,0.0
1886,78.0,0.0,2040.0,3.0,0.0
1887,78.0,0.0,2040.0,2.0,0.0
1888,78.0,0.0,2040.0,5.0,0.0
1889,65.0,0.0,1020.0,12.0,0.0
1890,71.0,0.0,4110.0,2.0,0.0
1891,71.0,0.0,4110.0,11.0,0.0
1892,71.0,0.0,4110.0,3.0,0.0
1893,63.0,0.0,1020.0,12.0,0.0
1894,63.0,0.0,1020.0,4.0,0.0
1895,63.0,0.0,1020.0,14.0,0.0
1896,63.0,0.0,1020.0,8.0,0.0
1897,51.0,0.0,1020.0,15.0,0.0
1898,63.0,0.0,1020.0,7.0,0.0
1899,53.0,0.0,1020.0,15.0,0.0
1900,65.0,0.0,1020.0,4.0,0.0
1901,80.0,0.0,2040.0,5.0,0.0
1902,65.0,0.0,1020.0,7.0,0.0
1903,80.0,2048.0,2040.0,0.0,0.0
1904,65.0,0.0,1020.0,14.0,0.0
1905,80.0,0.0,2040.0,2.0,0.0
1906,80.0,0.0,2040.0,3.0,0.0
1907,65.0,1024.0,1020.0,12.0,0.0
1908,80.0,0.0,2040.0,10.0,0.0
1909,65.0,0.0,1020.0,8.0,0.0
1910,61.0,0.0,1020.0,7.0,0.0
1911,49.0,0.0,1020.0,15.0,0.0
1912,61.0,0.0,1020.0,14.0,0.0
1913,61.0,0.0,1020.0,4.0,0.0
1914,61.0,0.0,1020.0,8.0,0.0
1915,61.0,0.0,1020.0,12.0,0.0
1916,70.0,0.0,2040.0,3.0,0.0
1917,66.0,0.0,4110.0,14.0,0.0
1918,82.0,0.0,2040.0,10.0,0.0
1919,66.0,1024.0,4110.0,12.0,0.0
1920,82.0,0.0,2040.0,5.0,0.0
1921,70.0,0.0,2040.0,11.0,0.0
1922,66.0,0.0,4110.0,8.0,0.0
1923,82.0,0.0,2040.0,0.0,0.0
1924,66.0,0.0,4110.0,7.0,0.0
1925,82.0,0.0,2040.0,3.0,0.0
1926,82.0,0.0,2040.0,2.0,0.0
1927,70.0,2048.0,2040.0,2.0,0.0
1928,66.0,0.0,4110.0,4.0,0.0
1929,70.0,0.0,2040.0,6.0,0.0
1930,54.0,0.0,4110.0,15.0,0.0
1931,83.0,0.0,2040.0,5.0,0.0
1932,83.0,0.0,2040.0,3.0,0.0
1933,83.0,0.0,2040.0,2.0,0.0
1934,68.0,0.0,4110.0,3.0,0.0
1935,83.0,0.0,2040.0,10.0,0.0
1936,68.0,0.0,4110.0,11.0,0.0
1937,83.0,0.0,2040.0,0.0,0.0
1938,68.0,0.0,4110.0,6.0,0.0
1939,68.0,0.0,4110.0,2.0,0.0
1940,82.0,0.0,1020.0,0.0,0.0
1941,64.0,0.0,4110.0,8.0,0.0
1942,64.0,0.0,4110.0,7.0,0.0
1943,52.0,0.0,4110.0,15.0,0.0
1944,82.0,0.0,1020.0,3.0,0.0
1945,82.0,0.0,1020.0,5.0,0.0
1946,64.0,2048.0,4110.0,4.0,0.0
1947,64.0,0.0,4110.0,14.0,0.0
1948,82.0,1024.0,1020.0,10.0,0.0
1949,64.0,0.0,1020.0,12.0,0.0
1950,82.0,0.0,1020.0,2.0,0.0
1951,80.0,0.0,1020.0,5.0,0.0
1952,80.0,0.0,1020.0,10.0,0.0
1953,80.0,0.0,1020.0,0.0,0.0
1954,80.0,0.0,1020.0,2.0,0.0
1955,80.0,0.0,1020.0,3.0,0.0
1956,66.0,0.0,2040.0,3.0,0.0
1957,66.0,0.0,2040.0,2.0,0.0
1958,82.0,0.0,1020.0,5.0,0.0
1959,82.0,1024.0,1020.0,0.0,0.0
1960,66.0,0.0,2040.0,11.0,0.0
1961,66.0,0.0,2040.0,6.0,0.0
1962,82.0,0.0,1020.0,3.0,0.0
1963,82.0,0.0,1020.0,10.0,0.0
1964,64.0,1024.0,15.0,12.0,0.0
1965,82.0,0.0,1020.0,2.0,0.0
1966,78.0,0.0,1020.0,10.0,0.0
1967,78.0,0.0,1020.0,0.0,0.0
1968,78.0,0.0,1020.0,3.0,0.0
1969,78.0,0.0,1020.0,5.0,0.0
1970,78.0,0.0,1020.0,2.0,0.0
1971,83.0,0.0,4110.0,2.0,0.0
1972,83.0,0.0,4110.0,10.0,0.0
1973,63.0,0.0,2040.0,7.0,0.0
1974,83.0,1024.0,4110.0,0.0,0.0
1975,83.0,0.0,4110.0,3.0,0.0
1976,63.0,2048.0,2040.0,8.0,0.0
1977,63.0,0.0,2040.0,12.0,0.0
1978,83.0,0.0,4110.0,5.0,0.0
1979,51.0,0.0,2040.0,15.0,0.0
1980,63.0,0.0,2040.0,14.0,0.0
1981,63.0,0.0,2040.0,4.0,0.0
1982,54.0,0.0,4110.0,4.0,0.0
1983,54.0,0.0,4110.0,13.0,0.0
1984,54.0,0.0,4110.0,14.0,0.0
1985,61.0,0.0,4110.0,14.0,0.0
1986,61.0,0.0,4110.0,12.0,0.0
1987,49.0,0.0,4110.0,15.0,0.0
1988,42.0,0.0,4110.0,15.0,0.0
1989,61.0,0.0,4110.0,7.0,0.0
1990,54.0,0.0,4110.0,8.0,0.0
1991,61.0,0.0,4110.0,8.0,0.0
1992,61.0,0.0,4110.0,4.0,0.0
1993,78.0,0.0,2040.0,11.0,0.0
1994,78.0,0.0,2040.0,3.0,0.0
1995,82.0,0.0,2040.0,3.0,0.0
1996,82.0,0.0,2040.0,5.0,0.0
1997,82.0,0.0,2040.0,10.0,0.0
1998,82.0,1024.0,2040.0,0.0,0.0
1999,82.0,0.0,2040.0,2.0,0.0
2000,78.0,0.0,15.0,2.0,0.0
2001,78.0,1024.0,15.0,6.0,0.0
2002,78.0,0.0,1020.0,3.0,0.0
2003,78.0,0.0,1020.0,11.0,0.0
2004,80.0,0.0,2040.0,2.0,0.0
2005,80.0,0.0,2040.0,0.0,0.0
2006,80.0,0.0,2040.0,5.0,0.0
2007,56.0,0.0,2040.0,4.0,0.0
2008,80.0,0.0,2040.0,10.0,0.0
2009,56.0,0.0,2040.0,14.0,0.0
2010,77.0,0.0,2040.0,2.0,0.0
2011,56.0,0.0,2040.0,8.0,0.0
2012,77.0,0.0,2040.0,6.0,0.0
2013,80.0,0.0,2040.0,3.0,0.0
2014,77.0,512.0,2040.0,3.0,0.0
2015,56.0,0.0,2040.0,13.0,0.0
2016,77.0,1024.0,1020.0,11.0,0.0
2017,44.0,0.0,2040.0,15.0,0.0
2018,77.0,0.0,1020.0,11.0,0.0
2019,58.0,0.0,2040.0,4.0,0.0
2020,46.0,0.0,2040.0,15.0,0.0
2021,78.0,0.0,510.0,6.0,0.0
2022,78.0,0.0,510.0,11.0,0.0
2023,58.0,0.0,2040.0,14.0,0.0
2024,58.0,0.0,2040.0,13.0,0.0
2025,58.0,0.0,2040.0,8.0,0.0
2026,78.0,0.0,3060.0,5.0,0.0
2027,78.0,0.0,4110.0,0.0,0.0
2028,61.0,0.0,2040.0,7.0,0.0
2029,78.0,0.0,3060.0,10.0,0.0
2030,78.0,512.0,510.0,2.0,0.0
2031,61.0,0.0,2040.0,12.0,0.0
2032,78.0,0.0,510.0,3.0,0.0
2033,77.0,0.0,510.0,11.0,0.0
2034,77.0,512.0,510.0,3.0,0.0
2035,77.0,0.0,510.0,6.0,0.0
2036,77.0,0.0,510.0,2.0,0.0
2037,75.0,0.0,510.0,2.0,0.0
2038,75.0,0.0,510.0,6.0,0.0
2039,75.0,512.0,510.0,3.0,0.0
2040,75.0,0.0,510.0,11.0,0.0
2041,73.0,0.0,510.0,3.0,0.0
2042,73.0,1024.0,510.0,11.0,0.0
2043,73.0,0.0,510.0,2.0,0.0
2044,73.0,0.0,510.0,6.0,0.0
2045,59.0,0.0,2040.0,8.0,0.0
2046,59.0,0.0,2040.0,13.0,0.0
2047,63.0,0.0,2040.0,12.0,0.0
2048,59.0,0.0,2040.0,14.0,0.0
2049,59.0,0.0,2040.0,4.0,0.0
2050,71.0,0.0,1020.0,2.0,0.0
2051,71.0,0.0,1020.0,6.0,0.0
2052,63.0,1024.0,2040.0,7.0,0.0
2053,71.0,1024.0,1020.0,3.0,0.0
2054,47.0,0.0,2040.0,15.0,0.0
2055,71.0,0.0,1020.0,11.0,0.0
2056,66.0,0.0,1020.0,11.0,0.0
2057,75.0,1024.0,2040.0,5.0,0.0
2058,75.0,0.0,2040.0,3.0,0.0
2059,66.0,0.0,1020.0,6.0,0.0
2060,75.0,0.0,2040.0,10.0,0.0
2061,66.0,0.0,1020.0,2.0,0.0
2062,66.0,0.0,1020.0,3.0,0.0
2063,71.0,0.0,3060.0,6.0,0.0
2064,58.0,0.0,1020.0,8.0,0.0
2065,71.0,0.0,3060.0,3.0,0.0
2066,58.0,0.0,1020.0,13.0,0.0
2067,71.0,0.0,3060.0,2.0,0.0
2068,46.0,0.0,1020.0,15.0,0.0
2069,58.0,0.0,1020.0,14.0,0.0
2070,71.0,0.0,3060.0,11.0,0.0
2071,58.0,0.0,1020.0,4.0,0.0
2072,65.0,0.0,2040.0,12.0,0.0
2073,65.0,0.0,2040.0,7.0,0.0
2074,56.0,0.0,1020.0,4.0,0.0
2075,56.0,0.0,1020.0,8.0,0.0
2076,56.0,1024.0,1020.0,13.0,0.0
2077,75.0,0.0,15.0,2.0,0.0
2078,44.0,0.0,1020.0,15.0,0.0
2079,75.0,0.0,1020.0,5.0,0.0
2080,56.0,0.0,1020.0,14.0,0.0
2081,75.0,0.0,1020.0,3.0,0.0
2082,75.0,0.0,1020.0,10.0,0.0
2083,58.0,0.0,1020.0,4.0,0.0
2084,66.0,0.0,2040.0,12.0,0.0
2085,58.0,0.0,1020.0,14.0,0.0
2086,73.0,0.0,2040.0,3.0,0.0
2087,46.0,1024.0,1020.0,15.0,0.0
2088,73.0,0.0,2040.0,5.0,0.0
2089,66.0,0.0,2040.0,7.0,0.0
2090,73.0,1024.0,2040.0,2.0,0.0
2091,58.0,0.0,1020.0,8.0,0.0
2092,58.0,0.0,1020.0,13.0,0.0
2093,73.0,0.0,15.0,10.0,0.0
2094,42.0,0.0,1020.0,15.0,0.0
2095,54.0,0.0,1020.0,4.0,0.0
2096,54.0,0.0,1020.0,14.0,0.0
2097,54.0,0.0,1020.0,13.0,0.0
2098,70.0,0.0,1020.0,6.0,0.0
2099,70.0,0.0,1020.0,3.0,0.0
2100,70.0,0.0,1020.0,11.0,0.0
2101,70.0,0.0,1020.0,2.0,0.0
2102,54.0,0.0,1020.0,8.0,0.0
2103,75.0,0.0,2040.0,10.0,0.0
2104,59.0,2048.0,4110.0,4.0,0.0
2105,47.0,0.0,4110.0,15.0,0.0
2106,59.0,0.0,4110.0,13.0,0.0
2107,66.0,0.0,2040.0,11.0,0.0
2108,59.0,0.0,4110.0,14.0,0.0
2109,65.0,1024.0,1020.0,7.0,0.0
2110,75.0,0.0,2040.0,5.0,0.0
2111,66.0,0.0,2040.0,6.0,0.0
2112,59.0,0.0,4110.0,8.0,0.0
2113,66.0,0.0,2040.0,2.0,0.0
2114,66.0,0.0,2040.0,3.0,0.0
2115,75.0,0.0,2040.0,3.0,0.0
2116,75.0,0.0,2040.0,2.0,0.0
2117,65.0,0.0,1020.0,12.0,0.0
2118,63.0,1024.0,1020.0,12.0,0.0
2119,63.0,0.0,1020.0,7.0,0.0
2120,68.0,0.0,2040.0,6.0,0.0
2121,68.0,0.0,2040.0,11.0,0.0
2122,65.0,0.0,1020.0,7.0,0.0
2123,68.0,0.0,1020.0,10.0,0.0
2124,68.0,0.0,1020.0,2.0,0.0
2125,68.0,0.0,1020.0,5.0,0.0
2126,65.0,1024.0,1020.0,12.0,0.0
2127,68.0,0.0,1020.0,3.0,0.0
2128,61.0,0.0,1020.0,7.0,0.0
2129,61.0,0.0,1020.0,12.0,0.0
2130,66.0,0.0,4110.0,12.0,0.0
2131,73.0,0.0,2040.0,10.0,0.0
2132,73.0,0.0,2040.0,3.0,0.0
2133,66.0,0.0,4110.0,7.0,0.0
2134,58.0,0.0,2040.0,14.0,0.0
2135,70.0,0.0,2040.0,3.0,0.0
2136,58.0,0.0,2040.0,8.0,0.0
2137,70.0,2048.0,2040.0,6.0,0.0
2138,73.0,0.0,2040.0,5.0,0.0
2139,70.0,0.0,2040.0,2.0,0.0
2140,58.0,0.0,2040.0,13.0,0.0
2141,46.0,0.0,2040.0,15.0,0.0
2142,58.0,0.0,2040.0,4.0,0.0
2143,70.0,0.0,2040.0,11.0,0.0
2144,73.0,0.0,2040.0,2.0,0.0
2145,75.0,0.0,2040.0,5.0,0.0
2146,56.0,0.0,2040.0,14.0,0.0
2147,71.0,0.0,2040.0,11.0,0.0
2148,44.0,0.0,2040.0,15.0,0.0
2149,71.0,0.0,2040.0,2.0,0.0
2150,56.0,0.0,2040.0,4.0,0.0
2151,71.0,1024.0,2040.0,3.0,0.0
2152,71.0,0.0,2040.0,6.0,0.0
2153,56.0,0.0,2040.0,8.0,0.0
2154,75.0,0.0,2040.0,3.0,0.0
2155,75.0,0.0,2040.0,2.0,0.0
2156,56.0,0.0,2040.0,13.0,0.0
2157,75.0,0.0,2040.0,10.0,0.0
2158,61.0,0.0,2040.0,4.0,0.0
2159,77.0,0.0,2040.0,5.0,0.0
2160,61.0,0.0,2040.0,14.0,0.0
2161,70.0,1024.0,1020.0,6.0,0.0
2162,61.0,0.0,2040.0,8.0,0.0
2163,77.0,0.0,2040.0,2.0,0.0
2164,77.0,0.0,2040.0,3.0,0.0
2165,65.0,0.0,2040.0,7.0,0.0
2166,49.0,1024.0,2040.0,15.0,0.0
2167,61.0,0.0,2040.0,13.0,0.0
2168,77.0,0.0,2040.0,10.0,0.0
2169,70.0,0.0,1020.0,2.0,0.0
2170,70.0,0.0,1020.0,3.0,0.0
2171,65.0,0.0,2040.0,12.0,0.0
2172,70.0,0.0,1020.0,11.0,0.0
2173,68.0,0.0,1020.0,3.0,0.0
2174,68.0,0.0,1020.0,2.0,0.0
2175,68.0,0.0,1020.0,11.0,0.0
2176,68.0,0.0,1020.0,6.0,0.0
2177,70.0,0.0,1020.0,3.0,0.0
2178,78.0,0.0,2040.0,5.0,0.0
2179,78.0,0.0,2040.0,2.0,0.0
2180,70.0,0.0,1020.0,11.0,0.0
2181,61.0,0.0,1020.0,7.0,0.0
2182,54.0,0.0,1020.0,8.0,0.0
2183,70.0,0.0,1020.0,6.0,0.0
2184,70.0,1024.0,1020.0,2.0,0.0
2185,78.0,0.0,2040.0,3.0,0.0
2186,54.0,0.0,1020.0,4.0,0.0
2187,54.0,0.0,1020.0,14.0,0.0
2188,54.0,0.0,1020.0,13.0,0.0
2189,42.0,0.0,1020.0,15.0,0.0
2190,63.0,0.0,1020.0,12.0,0.0
2191,78.0,0.0,2040.0,10.0,0.0
2192,58.0,0.0,1020.0,4.0,0.0
2193,58.0,0.0,1020.0,8.0,0.0
2194,66.0,0.0,1020.0,3.0,0.0
2195,46.0,0.0,1020.0,15.0,0.0
2196,66.0,0.0,1020.0,11.0,0.0
2197,70.0,1024.0,1020.0,12.0,0.0
2198,70.0,0.0,1020.0,7.0,0.0
2199,58.0,0.0,1020.0,14.0,0.0
2200,66.0,0.0,1020.0,6.0,0.0
2201,66.0,0.0,1020.0,2.0,0.0
2202,63.0,1024.0,3060.0,4.0,0.0
2203,71.0,0.0,4110.0,2.0,0.0
2204,71.0,0.0,4110.0,11.0,0.0
2205,63.0,0.0,3060.0,8.0,0.0
2206,71.0,0.0,4110.0,6.0,0.0
2207,77.0,0.0,1020.0,10.0,0.0
2208,51.0,0.0,3060.0,15.0,0.0
2209,63.0,0.0,3060.0,13.0,0.0
2210,77.0,0.0,1020.0,2.0,0.0
2211,77.0,0.0,1020.0,3.0,0.0
2212,68.0,1024.0,1020.0,7.0,0.0
2213,71.0,0.0,4110.0,3.0,0.0
2214,77.0,0.0,1020.0,5.0,0.0
2215,68.0,0.0,1020.0,12.0,0.0
2216,78.0,1024.0,2040.0,0.0,0.0
2217,63.0,0.0,3060.0,14.0,0.0
2218,75.0,0.0,1020.0,2.0,0.0
2219,75.0,0.0,1020.0,10.0,0.0
2220,66.0,0.0,1020.0,12.0,0.0
2221,75.0,0.0,1020.0,5.0,0.0
2222,75.0,0.0,1020.0,3.0,0.0
2223,66.0,0.0,1020.0,7.0,0.0
2224,65.0,0.0,1020.0,7.0,0.0
2225,77.0,0.0,1020.0,2.0,0.0
2226,80.0,0.0,2040.0,0.0,0.0
2227,77.0,0.0,1020.0,10.0,0.0
2228,65.0,0.0,1020.0,12.0,0.0
2229,77.0,0.0,1020.0,5.0,0.0
2230,77.0,0.0,1020.0,3.0,0.0
2231,68.0,0.0,1020.0,12.0,0.0
2232,73.0,0.0,1020.0,3.0,0.0
2233,73.0,1024.0,1020.0,2.0,0.0
2234,73.0,0.0,1020.0,10.0,0.0
2235,65.0,0.0,1020.0,8.0,0.0
2236,65.0,0.0,1020.0,14.0,0.0
2237,65.0,0.0,1020.0,13.0,0.0
2238,73.0,0.0,1020.0,5.0,0.0
2239,53.0,0.0,1020.0,15.0,0.0
2240,65.0,0.0,1020.0,4.0,0.0
2241,68.0,0.0,1020.0,7.0,0.0
2242,82.0,0.0,2040.0,0.0,0.0
2243,66.0,0.0,1020.0,8.0,0.0
2244,66.0,1024.0,1020.0,7.0,0.0
2245,66.0,0.0,1020.0,12.0,0.0
2246,70.0,0.0,2040.0,3.0,0.0
2247,78.0,0.0,4110.0,3.0,0.0
2248,70.0,0.0,2040.0,11.0,0.0
2249,78.0,0.0,4110.0,5.0,0.0
2250,66.0,0.0,1020.0,4.0,0.0
2251,66.0,0.0,1020.0,13.0,0.0
2252,70.0,0.0,2040.0,6.0,0.0
2253,78.0,0.0,4110.0,10.0,0.0
2254,70.0,0.0,2040.0,2.0,0.0
2255,85.0,0.0,2040.0,0.0,0.0
2256,78.0,0.0,4110.0,2.0,0.0
2257,54.0,0.0,1020.0,15.0,0.0
2258,66.0,0.0,1020.0,14.0,0.0
2259,70.0,0.0,1020.0,12.0,0.0
2260,63.0,0.0,1020.0,4.0,0.0
2261,51.0,0.0,1020.0,15.0,0.0
2262,63.0,0.0,1020.0,14.0,0.0
2263,63.0,0.0,1020.0,13.0,0.0
2264,70.0,0.0,1020.0,7.0,0.0
2265,63.0,1024.0,1020.0,8.0,0.0
2266,59.0,0.0,1020.0,13.0,0.0
2267,59.0,0.0,1020.0,14.0,0.0
2268,47.0,1024.0,1020.0,15.0,0.0
2269,63.0,0.0,2040.0,7.0,0.0
2270,68.0,0.0,4110.0,6.0,0.0
2271,68.0,0.0,4110.0,3.0,0.0
2272,68.0,0.0,4110.0,2.0,0.0
2273,83.0,0.0,2040.0,0.0,0.0
2274,87.0,0.0,2040.0,0.0,0.0
2275,63.0,0.0,2040.0,12.0,0.0
2276,59.0,0.0,1020.0,8.0,0.0
2277,59.0,0.0,1020.0,4.0,0.0
2278,68.0,0.0,4110.0,11.0,0.0
2279,56.0,0.0,1020.0,14.0,0.0
2280,44.0,0.0,1020.0,15.0,0.0
2281,56.0,0.0,1020.0,13.0,0.0
2282,56.0,1024.0,1020.0,4.0,0.0
2283,56.0,0.0,1020.0,8.0,0.0
2284,61.0,0.0,2040.0,8.0,0.0
2285,77.0,0.0,2040.0,3.0,0.0
2286,77.0,0.0,2040.0,10.0,0.0
2287,49.0,0.0,2040.0,15.0,0.0
2288,89.0,0.0,2040.0,0.0,0.0
2289,77.0,0.0,2040.0,2.0,0.0
2290,82.0,1024.0,1020.0,0.0,0.0
2291,61.0,0.0,2040.0,13.0,0.0
2292,77.0,0.0,2040.0,5.0,0.0
2293,61.0,0.0,2040.0,14.0,0.0
2294,61.0,0.0,4110.0,7.0,0.0
2295,61.0,0.0,4110.0,12.0,0.0
2296,61.0,1024.0,2040.0,4.0,0.0
2297,80.0,0.0,1020.0,0.0,0.0
2298,75.0,1024.0,4110.0,10.0,0.0
2299,66.0,0.0,4110.0,6.0,0.0
2300,54.0,0.0,4110.0,14.0,0.0
2301,75.0,0.0,4110.0,2.0,0.0
2302,90.0,0.0,2040.0,0.0,0.0
2303,75.0,0.0,4110.0,5.0,0.0
2304,42.0,0.0,4110.0,15.0,0.0
2305,54.0,0.0,2040.0,13.0,0.0
2306,82.0,1024.0,1020.0,0.0,0.0
2307,54.0,0.0,4110.0,4.0,0.0
2308,66.0,0.0,4110.0,3.0,0.0
2309,66.0,0.0,4110.0,11.0,0.0
2310,54.0,0.0,4110.0,8.0,0.0
2311,75.0,0.0,4110.0,3.0,0.0
2312,66.0,0.0,4110.0,2.0,0.0
2313,78.0,1024.0,1020.0,0.0,0.0
2314,59.0,0.0,2040.0,12.0,0.0
2315,89.0,1024.0,1020.0,0.0,0.0
2316,83.0,2048.0,4110.0,0.0,0.0
2317,59.0,0.0,2040.0,7.0,0.0
2318,87.0,0.0,1020.0,0.0,0.0
2319,61.0,0.0,2040.0,7.0,0.0
2320,61.0,0.0,2040.0,12.0,0.0
2321,73.0,0.0,4110.0,2.0,0.0
2322,73.0,0.0,4110.0,3.0,0.0
2323,89.0,1024.0,1020.0,0.0,0.0
2324,61.0,0.0,2040.0,8.0,0.0
2325,49.0,0.0,2040.0,15.0,0.0
2326,73.0,0.0,4110.0,10.0,0.0
2327,73.0,0.0,4110.0,5.0,0.0
2328,61.0,0.0,2040.0,4.0,0.0
2329,61.0,0.0,2040.0,14.0,0.0
2330,85.0,0.0,1020.0,0.0,0.0
2331,63.0,2048.0,2040.0,4.0,0.0
2332,66.0,0.0,2040.0,2.0,0.0
2333,90.0,0.0,4110.0,0.0,0.0
2334,51.0,0.0,2040.0,15.0,0.0
2335,66.0,0.0,2040.0,11.0,0.0
2336,66.0,0.0,2040.0,6.0,0.0
2337,63.0,0.0,2040.0,14.0,0.0
2338,63.0,0.0,2040.0,12.0,0.0
2339,66.0,0.0,2040.0,3.0,0.0
2340,82.0,0.0,2040.0,0.0,0.0
2341,63.0,0.0,2040.0,7.0,0.0
2342,63.0,0.0,2040.0,8.0,0.0
2343,59.0,0.0,2040.0,8.0,0.0
2344,68.0,0.0,2040.0,6.0,0.0
2345,68.0,0.0,2040.0,11.0,0.0
2346,59.0,0.0,2040.0,7.0,0.0
2347,59.0,0.0,2040.0,14.0,0.0
2348,47.0,0.0,2040.0,15.0,0.0
2349,68.0,2048.0,2040.0,2.0,0.0
2350,59.0,0.0,2040.0,12.0,0.0
2351,80.0,2048.0,4110.0,0.0,0.0
2352,68.0,0.0,2040.0,3.0,0.0
2353,59.0,0.0,2040.0,4.0,0.0
2354,61.0,0.0,2040.0,4.0,0.0
2355,70.0,0.0,2040.0,3.0,0.0
2356,49.0,0.0,2040.0,15.0,0.0
2357,61.0,0.0,2040.0,14.0,0.0
2358,70.0,0.0,2040.0,11.0,0.0
2359,61.0,0.0,2040.0,12.0,0.0
2360,70.0,0.0,2040.0,6.0,0.0
2361,61.0,0.0,2040.0,8.0,0.0
2362,70.0,0.0,2040.0,2.0,0.0
2363,61.0,0.0,2040.0,7.0,0.0
2364,89.0,0.0,2040.0,0.0,0.0
2365,63.0,1024.0,2040.0,12.0,0.0
2366,71.0,0.0,2040.0,2.0,0.0
2367,63.0,0.0,2040.0,14.0,0.0
2368,51.0,0.0,2040.0,15.0,0.0
2369,71.0,0.0,2040.0,3.0,0.0
2370,63.0,0.0,2040.0,7.0,0.0
2371,87.0,0.0,4110.0,0.0,0.0
2372,63.0,0.0,2040.0,8.0,0.0
2373,63.0,0.0,2040.0,4.0,0.0
2374,78.0,0.0,2040.0,0.0,0.0
2375,71.0,0.0,2040.0,6.0,0.0
2376,71.0,0.0,2040.0,11.0,0.0
2377,65.0,0.0,2040.0,7.0,0.0
2378,70.0,1024.0,1020.0,3.0,0.0
2379,65.0,0.0,2040.0,12.0,0.0
2380,70.0,0.0,1020.0,11.0,0.0
2381,65.0,0.0,2040.0,8.0,0.0
2382,70.0,0.0,1020.0,6.0,0.0
2383,53.0,0.0,2040.0,15.0,0.0
2384,65.0,0.0,2040.0,14.0,0.0
2385,70.0,0.0,1020.0,2.0,0.0
2386,65.0,1024.0,2040.0,4.0,0.0
2387,68.0,0.0,1020.0,11.0,0.0
2388,68.0,0.0,1020.0,6.0,0.0
2389,68.0,0.0,1020.0,3.0,0.0
2390,68.0,0.0,1020.0,2.0,0.0
2391,70.0,0.0,1020.0,6.0,0.0
2392,78.0,1024.0,4110.0,0.0,0.0
2393,85.0,0.0,1020.0,0.0,0.0
2394,78.0,0.0,4110.0,5.0,0.0
2395,66.0,0.0,2040.0,12.0,0.0
2396,78.0,0.0,4110.0,10.0,0.0
2397,66.0,0.0,2040.0,14.0,0.0
2398,78.0,0.0,4110.0,2.0,0.0
2399,70.0,0.0,1020.0,2.0,0.0
2400,70.0,0.0,1020.0,11.0,0.0
2401,54.0,0.0,2040.0,15.0,0.0
2402,66.0,0.0,2040.0,7.0,0.0
2403,66.0,0.0,2040.0,4.0,0.0
2404,78.0,0.0,4110.0,3.0,0.0
2405,66.0,1024.0,2040.0,8.0,0.0
2406,70.0,512.0,1020.0,3.0,0.0
2407,66.0,0.0,1020.0,2.0,0.0
2408,66.0,0.0,1020.0,11.0,0.0
2409,66.0,0.0,1020.0,3.0,0.0
2410,83.0,512.0,510.0,0.0,0.0
2411,66.0,0.0,1020.0,6.0,0.0
2412,82.0,0.0,510.0,0.0,0.0
2413,53.0,0.0,1020.0,15.0,0.0
2414,83.0,2048.0,4110.0,0.0,0.0
2415,71.0,0.0,4110.0,2.0,0.0
2416,71.0,0.0,4110.0,11.0,0.0
2417,65.0,0.0,1020.0,12.0,0.0
2418,71.0,0.0,4110.0,3.0,0.0
2419,65.0,1024.0,1020.0,4.0,0.0
2420,71.0,0.0,4110.0,6.0,0.0
2421,65.0,0.0,1020.0,7.0,0.0
2422,65.0,0.0,1020.0,14.0,0.0
2423,65.0,0.0,1020.0,8.0,0.0
2424,63.0,0.0,1020.0,8.0,0.0
2425,63.0,0.0,1020.0,12.0,0.0
2426,51.0,0.0,1020.0,15.0,0.0
2427,63.0,0.0,1020.0,4.0,0.0
2428,63.0,0.0,1020.0,7.0,0.0
2429,63.0,0.0,1020.0,14.0,0.0
2430,65.0,0.0,1020.0,12.0,0.0
2431,37.0,0.0,4110.0,15.0,0.0
2432,49.0,0.0,4110.0,13.0,0.0
2433,49.0,0.0,4110.0,1.0,0.0
2434,65.0,1024.0,1020.0,7.0,0.0
2435,49.0,0.0,4110.0,14.0,0.0
2436,49.0,0.0,4110.0,4.0,0.0
2437,73.0,0.0,4110.0,0.0,0.0
2438,80.0,0.0,2040.0,2.0,0.0
2439,80.0,0.0,2040.0,10.0,0.0
2440,80.0,0.0,2040.0,5.0,0.0
2441,49.0,0.0,4110.0,8.0,0.0
2442,80.0,0.0,2040.0,0.0,0.0
2443,80.0,0.0,2040.0,3.0,0.0
2444,61.0,0.0,1020.0,7.0,0.0
2445,61.0,0.0,1020.0,12.0,0.0
2446,70.0,0.0,3060.0,2.0,0.0
2447,82.0,0.0,2040.0,3.0,0.0
2448,82.0,0.0,2040.0,2.0,0.0
2449,70.0,0.0,3060.0,3.0,0.0
2450,66.0,0.0,3060.0,7.0,0.0
2451,66.0,0.0,3060.0,12.0,0.0
2452,70.0,0.0,3060.0,6.0,0.0
2453,82.0,1024.0,2040.0,5.0,0.0
2454,82.0,0.0,2040.0,10.0,0.0
2455,70.0,512.0,3060.0,11.0,0.0
2456,82.0,0.0,2040.0,0.0,0.0
2457,51.0,0.0,2040.0,14.0,0.0
2458,51.0,0.0,2040.0,13.0,0.0
2459,51.0,0.0,2040.0,8.0,0.0
2460,83.0,0.0,2040.0,0.0,0.0
2461,51.0,0.0,2040.0,4.0,0.0
2462,66.0,1024.0,2040.0,0.0,0.0
2463,83.0,0.0,2040.0,5.0,0.0
2464,83.0,0.0,2040.0,2.0,0.0
2465,83.0,0.0,2040.0,10.0,0.0
2466,83.0,0.0,2040.0,3.0,0.0
2467,39.0,0.0,2040.0,15.0,0.0
2468,54.0,0.0,2040.0,1.0,0.0
2469,68.0,0.0,510.0,6.0,0.0
2470,68.0,0.0,510.0,3.0,0.0
2471,80.0,0.0,510.0,0.0,0.0
2472,68.0,0.0,510.0,2.0,0.0
2473,65.0,0.0,510.0,7.0,0.0
2474,68.0,512.0,510.0,11.0,0.0
2475,65.0,0.0,510.0,12.0,0.0
2476,66.0,0.0,510.0,3.0,0.0
2477,63.0,0.0,510.0,7.0,0.0
2478,66.0,0.0,510.0,11.0,0.0
2479,63.0,0.0,510.0,12.0,0.0
2480,78.0,0.0,510.0,0.0,0.0
2481,66.0,0.0,510.0,6.0,0.0
2482,66.0,0.0,510.0,2.0,0.0
2483,85.0,0.0,3060.0,0.0,0.0
2484,82.0,1024.0,1020.0,10.0,0.0
2485,41.0,0.0,2040.0,15.0,0.0
2486,82.0,0.0,1020.0,0.0,0.0
2487,53.0,0.0,2040.0,8.0,0.0
2488,49.0,0.0,2040.0,1.0,0.0
2489,73.0,0.0,3060.0,3.0,0.0
2490,53.0,0.0,2040.0,14.0,0.0
2491,73.0,0.0,3060.0,11.0,0.0
2492,53.0,1024.0,2040.0,4.0,0.0
2493,82.0,0.0,1020.0,5.0,0.0
2494,68.0,0.0,3060.0,7.0,0.0
2495,53.0,0.0,2040.0,13.0,0.0
2496,82.0,0.0,1020.0,3.0,0.0
2497,73.0,0.0,3060.0,2.0,0.0
2498,73.0,0.0,3060.0,6.0,0.0
2499,82.0,0.0,1020.0,2.0,0.0
2500,68.0,0.0,3060.0,12.0,0.0
2501,80.0,0.0,1020.0,3.0,0.0
2502,80.0,0.0,1020.0,0.0,0.0
2503,80.0,0.0,1020.0,5.0,0.0
2504,80.0,0.0,1020.0,2.0,0.0
2505,80.0,0.0,1020.0,10.0,0.0
2506,73.0,0.0,1020.0,0.0,0.0
2507,82.0,0.0,1020.0,3.0,0.0
2508,82.0,0.0,1020.0,5.0,0.0
2509,82.0,0.0,1020.0,0.0,0.0
2510,54.0,0.0,2040.0,14.0,0.0
2511,42.0,0.0,2040.0,15.0,0.0
2512,54.0,0.0,2040.0,13.0,0.0
2513,73.0,0.0,2040.0,0.0,0.0
2514,54.0,0.0,2040.0,4.0,0.0
2515,82.0,512.0,1020.0,2.0,0.0
2516,82.0,0.0,1020.0,10.0,0.0
2517,54.0,0.0,2040.0,8.0,0.0
2518,54.0,0.0,2040.0,1.0,0.0
2519,78.0,0.0,1020.0,5.0,0.0
2520,61.0,0.0,1020.0,7.0,0.0
2521,78.0,0.0,1020.0,3.0,0.0
2522,71.0,0.0,510.0,2.0,0.0
2523,83.0,0.0,510.0,0.0,0.0
2524,61.0,1024.0,1020.0,12.0,0.0
2525,71.0,0.0,510.0,11.0,0.0
2526,78.0,0.0,1020.0,10.0,0.0
2527,78.0,0.0,1020.0,2.0,0.0
2528,71.0,512.0,510.0,3.0,0.0
2529,71.0,0.0,510.0,6.0,0.0
2530,70.0,0.0,510.0,11.0,0.0
2531,70.0,0.0,510.0,2.0,0.0
2532,70.0,0.0,510.0,6.0,0.0
2533,70.0,0.0,510.0,3.0,0.0
2534,82.0,0.0,510.0,0.0,0.0
2535,53.0,0.0,1020.0,4.0,0.0
2536,53.0,0.0,1020.0,13.0,0.0
2537,83.0,0.0,4110.0,3.0,0.0
2538,83.0,0.0,4110.0,2.0,0.0
2539,75.0,0.0,2040.0,3.0,0.0
2540,53.0,0.0,1020.0,14.0,0.0
2541,83.0,0.0,4110.0,5.0,0.0
2542,83.0,0.0,4110.0,0.0,0.0
2543,78.0,0.0,15.0,0.0,0.0
2544,75.0,0.0,2040.0,2.0,0.0
2545,87.0,0.0,2040.0,0.0,0.0
2546,66.0,1024.0,2040.0,7.0,0.0
2547,75.0,0.0,2040.0,11.0,0.0
2548,54.0,0.0,2040.0,1.0,0.0
2549,75.0,0.0,2040.0,6.0,0.0
2550,53.0,1024.0,1020.0,8.0,0.0
2551,66.0,0.0,2040.0,12.0,0.0
2552,83.0,0.0,4110.0,10.0,0.0
2553,41.0,0.0,1020.0,15.0,0.0
2554,39.0,0.0,1020.0,15.0,0.0
2555,51.0,0.0,1020.0,4.0,0.0
2556,51.0,0.0,1020.0,13.0,0.0
2557,51.0,0.0,1020.0,8.0,0.0
2558,51.0,0.0,1020.0,14.0,0.0
2559,53.0,0.0,1020.0,14.0,0.0
2560,73.0,0.0,4110.0,3.0,0.0
2561,53.0,1024.0,1020.0,4.0,0.0
2562,73.0,0.0,4110.0,2.0,0.0
2563,68.0,0.0,2040.0,12.0,0.0
2564,73.0,0.0,4110.0,6.0,0.0
2565,80.0,0.0,2040.0,0.0,0.0
2566,41.0,0.0,1020.0,15.0,0.0
2567,85.0,0.0,4110.0,0.0,0.0
2568,73.0,0.0,2040.0,11.0,0.0
2569,68.0,0.0,2040.0,7.0,0.0
2570,53.0,0.0,1020.0,13.0,0.0
2571,53.0,0.0,1020.0,8.0,0.0
2572,49.0,0.0,2040.0,1.0,0.0
2573,37.0,0.0,1020.0,15.0,0.0
2574,49.0,1024.0,1020.0,8.0,0.0
2575,49.0,0.0,1020.0,4.0,0.0
2576,49.0,0.0,1020.0,14.0,0.0
2577,49.0,0.0,1020.0,13.0,0.0
2578,73.0,2048.0,2040.0,11.0,0.0
2579,54.0,1024.0,4110.0,13.0,0.0
2580,42.0,0.0,4110.0,15.0,0.0
2581,54.0,0.0,4110.0,1.0,0.0
2582,78.0,0.0,2040.0,0.0,0.0
2583,82.0,0.0,2040.0,3.0,0.0
2584,66.0,0.0,1020.0,12.0,0.0
2585,82.0,0.0,2040.0,2.0,0.0
2586,54.0,0.0,4110.0,4.0,0.0
2587,82.0,0.0,2040.0,5.0,0.0
2588,66.0,1024.0,1020.0,7.0,0.0
2589,54.0,0.0,4110.0,14.0,0.0
2590,54.0,0.0,4110.0,8.0,0.0
2591,82.0,0.0,2040.0,0.0,0.0
2592,82.0,0.0,2040.0,10.0,0.0
2593,65.0,0.0,1020.0,7.0,0.0
2594,65.0,0.0,1020.0,12.0,0.0
2595,80.0,0.0,4110.0,10.0,0.0
2596,84.0,0.0,2040.0,0.0,0.0
2597,80.0,0.0,4110.0,5.0,0.0
2598,80.0,0.0,4110.0,3.0,0.0
2599,80.0,1024.0,3060.0,0.0,0.0
2600,63.0,0.0,2040.0,12.0,0.0
2601,72.0,0.0,2040.0,3.0,0.0
2602,72.0,0.0,2040.0,11.0,0.0
2603,63.0,0.0,2040.0,7.0,0.0
2604,80.0,0.0,4110.0,2.0,0.0
2605,72.0,0.0,2040.0,2.0,0.0
2606,72.0,0.0,2040.0,6.0,0.0
2607,85.0,0.0,4110.0,0.0,0.0
2608,65.0,0.0,2040.0,12.0,0.0
2609,53.0,256.0,2040.0,14.0,0.0
2610,41.0,0.0,2040.0,15.0,0.0
2611,73.0,0.0,4110.0,6.0,0.0
2612,65.0,0.0,2040.0,7.0,0.0
2613,53.0,0.0,2040.0,4.0,0.0
2614,73.0,0.0,4110.0,11.0,0.0
2615,73.0,0.0,4110.0,2.0,0.0
2616,73.0,0.0,4110.0,3.0,0.0
2617,53.0,0.0,2040.0,13.0,0.0
2618,49.0,0.0,2040.0,1.0,0.0
2619,53.0,0.0,2040.0,8.0,0.0
2620,73.0,0.0,1020.0,0.0,0.0
2621,70.0,0.0,2040.0,0.0,0.0
2622,78.0,0.0,2040.0,3.0,0.0
2623,51.0,0.0,4110.0,4.0,0.0
2624,66.0,0.0,1020.0,7.0,0.0
2625,66.0,256.0,1020.0,12.0,0.0
2626,78.0,256.0,270.0,0.0,0.0
2627,56.0,0.0,4110.0,4.0,0.0
2628,39.0,0.0,4110.0,15.0,0.0
2629,54.0,512.0,3060.0,1.0,0.0
2630,78.0,0.0,2040.0,10.0,0.0
2631,51.0,0.0,4110.0,13.0,0.0
2632,44.0,0.0,4110.0,15.0,0.0
2633,51.0,512.0,4110.0,14.0,0.0
2634,56.0,0.0,4110.0,14.0,0.0
2635,56.0,0.0,4110.0,8.0,0.0
2636,51.0,0.0,4110.0,8.0,0.0
2637,80.0,256.0,270.0,0.0,0.0
2638,78.0,256.0,270.0,0.0,0.0
2639,80.0,0.0,270.0,0.0,0.0
2640,65.0,0.0,1020.0,7.0,0.0
2641,78.0,256.0,270.0,0.0,0.0
2642,65.0,205.0,1020.0,12.0,0.0
2643,80.0,256.0,270.0,0.0,0.0
2644,78.0,256.0,270.0,0.0,0.0
2645,80.0,0.0,270.0,0.0,0.0
2646,66.0,0.0,2040.0,0.0,0.0
2647,78.0,0.0,4110.0,10.0,0.0
2648,78.0,0.0,15.0,2.0,0.0
2649,72.0,0.0,2040.0,3.0,0.0
2650,72.0,0.0,2040.0,11.0,0.0
2651,78.0,0.0,15.0,5.0,0.0
2652,72.0,0.0,2040.0,2.0,0.0
2653,72.0,0.0,2040.0,6.0,0.0
2654,63.0,0.0,2040.0,7.0,0.0
2655,78.0,0.0,4110.0,3.0,0.0
2656,84.0,0.0,2040.0,0.0,0.0
2657,63.0,0.0,2040.0,12.0,0.0
2658,78.0,205.0,210.0,0.0,0.0
2659,80.0,204.0,210.0,0.0,0.0
2660,78.0,205.0,210.0,0.0,0.0
2661,80.0,205.0,210.0,0.0,0.0
2662,78.0,0.0,210.0,0.0,0.0
2663,77.0,512.0,510.0,0.0,0.0
2664,54.0,0.0,1020.0,1.0,0.0
2665,78.0,0.0,510.0,0.0,0.0
2666,73.0,512.0,510.0,6.0,0.0
2667,73.0,0.0,510.0,2.0,0.0
2668,49.0,0.0,2040.0,13.0,0.0
2669,73.0,0.0,510.0,11.0,0.0
2670,68.0,0.0,3060.0,7.0,0.0
2671,49.0,0.0,2040.0,4.0,0.0
2672,68.0,512.0,3060.0,12.0,0.0
2673,37.0,0.0,2040.0,15.0,0.0
2674,80.0,0.0,4110.0,0.0,0.0
2675,49.0,0.0,4110.0,1.0,0.0
2676,73.0,0.0,4110.0,0.0,0.0
2677,49.0,0.0,2040.0,8.0,0.0
2678,49.0,0.0,2040.0,14.0,0.0
2679,85.0,0.0,4110.0,0.0,0.0
2680,73.0,0.0,510.0,3.0,0.0
2681,68.0,512.0,510.0,6.0,0.0
2682,68.0,0.0,510.0,2.0,0.0
2683,68.0,0.0,510.0,11.0,0.0
2684,68.0,0.0,510.0,3.0,0.0
2685,70.0,0.0,510.0,6.0,0.0
2686,70.0,0.0,510.0,11.0,0.0
2687,70.0,0.0,510.0,3.0,0.0
2688,70.0,512.0,510.0,2.0,0.0
2689,72.0,512.0,510.0,2.0,0.0
2690,72.0,0.0,510.0,6.0,0.0
2691,72.0,0.0,510.0,3.0,0.0
2692,72.0,0.0,510.0,11.0,0.0
2693,61.0,512.0,4110.0,4.0,0.0
2694,73.0,0.0,510.0,11.0,0.0
2695,77.0,0.0,2040.0,2.0,0.0
2696,61.0,0.0,4110.0,14.0,0.0
2697,49.0,0.0,4110.0,15.0,0.0
2698,77.0,0.0,2040.0,10.0,0.0
2699,61.0,0.0,4110.0,8.0,0.0
2700,61.0,0.0,4110.0,13.0,0.0
2701,73.0,0.0,510.0,3.0,0.0
2702,77.0,0.0,2040.0,3.0,0.0
2703,77.0,0.0,2040.0,5.0,0.0
2704,73.0,512.0,510.0,6.0,0.0
2705,73.0,0.0,510.0,2.0,0.0
2706,75.0,0.0,510.0,11.0,0.0
2707,75.0,0.0,510.0,3.0,0.0
2708,75.0,0.0,510.0,6.0,0.0
2709,75.0,0.0,510.0,2.0,0.0
2710,72.0,512.0,510.0,6.0,0.0
2711,72.0,0.0,510.0,11.0,0.0
2712,68.0,0.0,1020.0,7.0,0.0
2713,72.0,0.0,510.0,3.0,0.0
2714,72.0,0.0,510.0,2.0,0.0
2715,68.0,0.0,1020.0,12.0,0.0
2716,73.0,0.0,510.0,3.0,0.0
2717,73.0,0.0,510.0,2.0,0.0
2718,73.0,0.0,510.0,11.0,0.0
2719,73.0,512.0,510.0,6.0,0.0
2720,75.0,0.0,1020.0,2.0,0.0
2721,70.0,0.0,1020.0,7.0,0.0
2722,78.0,0.0,510.0,10.0,0.0
2723,78.0,512.0,510.0,5.0,0.0
2724,78.0,0.0,510.0,2.0,0.0
2725,70.0,0.0,1020.0,12.0,0.0
2726,78.0,0.0,510.0,3.0,0.0
2727,75.0,0.0,1020.0,3.0,0.0
2728,75.0,0.0,1020.0,11.0,0.0
2729,75.0,0.0,1020.0,6.0,0.0
2730,80.0,512.0,510.0,5.0,0.0
2731,80.0,0.0,510.0,10.0,0.0
2732,80.0,0.0,510.0,2.0,0.0
2733,80.0,0.0,510.0,3.0,0.0
2734,78.0,512.0,510.0,3.0,0.0
2735,78.0,0.0,510.0,10.0,0.0
2736,70.0,0.0,1020.0,11.0,0.0
2737,70.0,0.0,1020.0,2.0,0.0
2738,70.0,0.0,1020.0,6.0,0.0
2739,70.0,0.0,1020.0,3.0,0.0
2740,66.0,0.0,1020.0,7.0,0.0
2741,78.0,0.0,510.0,2.0,0.0
2742,78.0,0.0,510.0,5.0,0.0
2743,66.0,0.0,1020.0,12.0,0.0
2744,77.0,0.0,510.0,10.0,0.0
2745,77.0,0.0,510.0,2.0,0.0
2746,77.0,0.0,510.0,5.0,0.0
2747,77.0,0.0,510.0,3.0,0.0
2748,60.0,0.0,2040.0,14.0,0.0
2749,75.0,512.0,510.0,10.0,0.0
2750,68.0,0.0,4110.0,7.0,0.0
2751,75.0,0.0,510.0,2.0,0.0
2752,48.0,0.0,2040.0,15.0,0.0
2753,75.0,0.0,3060.0,6.0,0.0
2754,75.0,0.0,3060.0,11.0,0.0
2755,60.0,0.0,2040.0,8.0,0.0
2756,75.0,0.0,510.0,3.0,0.0
2757,75.0,0.0,510.0,5.0,0.0
2758,68.0,0.0,3060.0,12.0,0.0
2759,60.0,0.0,2040.0,13.0,0.0
2760,60.0,0.0,2040.0,4.0,0.0
2761,77.0,512.0,510.0,2.0,0.0
2762,77.0,0.0,510.0,3.0,0.0
2763,77.0,0.0,510.0,5.0,0.0
2764,77.0,0.0,510.0,10.0,0.0
2765,73.0,0.0,510.0,2.0,0.0
2766,73.0,0.0,510.0,3.0,0.0
2767,73.0,512.0,510.0,5.0,0.0
2768,73.0,0.0,510.0,10.0,0.0
2769,75.0,0.0,510.0,2.0,0.0
2770,75.0,512.0,510.0,3.0,0.0
2771,75.0,0.0,510.0,5.0,0.0
2772,75.0,0.0,510.0,10.0,0.0
2773,77.0,0.0,510.0,5.0,0.0
2774,61.0,0.0,510.0,13.0,0.0
2775,61.0,0.0,510.0,8.0,0.0
2776,77.0,0.0,510.0,10.0,0.0
2777,61.0,512.0,510.0,14.0,0.0
2778,49.0,0.0,510.0,15.0,0.0
2779,61.0,0.0,510.0,4.0,0.0
2780,77.0,0.0,510.0,2.0,0.0
2781,77.0,0.0,510.0,3.0,0.0
2782,78.0,0.0,510.0,3.0,0.0
2783,63.0,0.0,510.0,4.0,0.0
2784,63.0,0.0,510.0,8.0,0.0
2785,78.0,0.0,510.0,5.0,0.0
2786,63.0,0.0,510.0,13.0,0.0
2787,78.0,0.0,510.0,10.0,0.0
2788,51.0,0.0,510.0,15.0,0.0
2789,78.0,512.0,510.0,2.0,0.0
2790,63.0,0.0,510.0,14.0,0.0
2791,61.0,0.0,510.0,14.0,0.0
2792,68.0,0.0,1020.0,6.0,0.0
2793,68.0,0.0,1020.0,12.0,0.0
2794,61.0,0.0,510.0,13.0,0.0
2795,68.0,0.0,1020.0,11.0,0.0
2796,75.0,0.0,15.0,3.0,0.0
2797,75.0,512.0,510.0,5.0,0.0
2798,75.0,0.0,510.0,10.0,0.0
2799,61.0,0.0,510.0,8.0,0.0
2800,68.0,0.0,1020.0,2.0,0.0
2801,68.0,0.0,1020.0,3.0,0.0
2802,61.0,0.0,510.0,4.0,0.0
2803,75.0,0.0,510.0,2.0,0.0
2804,49.0,0.0,510.0,15.0,0.0
2805,77.0,512.0,510.0,10.0,0.0
2806,59.0,0.0,510.0,8.0,0.0
2807,77.0,0.0,510.0,2.0,0.0
2808,59.0,0.0,510.0,13.0,0.0
2809,59.0,0.0,510.0,14.0,0.0
2810,59.0,0.0,510.0,4.0,0.0
2811,77.0,0.0,510.0,3.0,0.0
2812,77.0,0.0,510.0,5.0,0.0
2813,47.0,0.0,510.0,15.0,0.0
2814,58.0,0.0,510.0,8.0,0.0
2815,70.0,0.0,2040.0,7.0,0.0
2816,70.0,0.0,2040.0,12.0,0.0
2817,79.0,0.0,510.0,3.0,0.0
2818,73.0,0.0,2040.0,11.0,0.0
2819,46.0,0.0,510.0,15.0,0.0
2820,79.0,0.0,510.0,5.0,0.0
2821,79.0,0.0,510.0,2.0,0.0
2822,58.0,0.0,510.0,4.0,0.0
2823,79.0,512.0,510.0,10.0,0.0
2824,73.0,0.0,510.0,3.0,0.0
2825,58.0,0.0,510.0,14.0,0.0
2826,73.0,0.0,510.0,6.0,0.0
2827,58.0,0.0,510.0,13.0,0.0
2828,73.0,0.0,510.0,2.0,0.0
2829,75.0,0.0,510.0,6.0,0.0
2830,59.0,0.0,510.0,14.0,0.0
2831,59.0,0.0,510.0,13.0,0.0
2832,75.0,0.0,510.0,3.0,0.0
2833,80.0,0.0,510.0,2.0,0.0
2834,80.0,0.0,510.0,10.0,0.0
2835,59.0,0.0,510.0,4.0,0.0
2836,80.0,0.0,510.0,3.0,0.0
2837,59.0,512.0,510.0,8.0,0.0
2838,47.0,0.0,510.0,15.0,0.0
2839,80.0,0.0,510.0,5.0,0.0
2840,75.0,0.0,510.0,2.0,0.0
2841,77.0,0.0,510.0,5.0,0.0
2842,77.0,0.0,510.0,10.0,0.0
2843,56.0,0.0,510.0,4.0,0.0
2844,77.0,0.0,510.0,3.0,0.0
2845,56.0,0.0,510.0,14.0,0.0
2846,56.0,512.0,510.0,13.0,0.0
2847,72.0,0.0,510.0,3.0,0.0
2848,56.0,0.0,510.0,8.0,0.0
2849,77.0,0.0,510.0,2.0,0.0
2850,44.0,0.0,510.0,15.0,0.0
2851,72.0,0.0,510.0,2.0,0.0
2852,72.0,0.0,510.0,6.0,0.0
2853,58.0,0.0,510.0,14.0,0.0
2854,79.0,0.0,510.0,2.0,0.0
2855,58.0,0.0,510.0,8.0,0.0
2856,79.0,0.0,510.0,3.0,0.0
2857,46.0,0.0,510.0,15.0,0.0
2858,79.0,512.0,510.0,5.0,0.0
2859,73.0,0.0,510.0,2.0,0.0
2860,79.0,0.0,510.0,10.0,0.0
2861,58.0,0.0,510.0,4.0,0.0
2862,73.0,0.0,510.0,3.0,0.0
2863,73.0,0.0,510.0,6.0,0.0
2864,58.0,0.0,510.0,13.0,0.0
2865,75.0,0.0,510.0,6.0,0.0
2866,68.0,0.0,1020.0,11.0,0.0
2867,63.0,0.0,2040.0,7.0,0.0
2868,60.0,0.0,510.0,4.0,0.0
2869,63.0,0.0,2040.0,12.0,0.0
2870,60.0,0.0,510.0,8.0,0.0
2871,48.0,0.0,510.0,15.0,0.0
2872,60.0,0.0,510.0,13.0,0.0
2873,60.0,512.0,510.0,14.0,0.0
2874,75.0,0.0,510.0,2.0,0.0
2875,80.0,0.0,5130.0,2.0,0.0
2876,75.0,0.0,510.0,3.0,0.0
2877,80.0,0.0,5130.0,5.0,0.0
2878,80.0,512.0,5130.0,3.0,0.0
2879,80.0,0.0,5130.0,10.0,0.0
2880,77.0,0.0,510.0,2.0,0.0
2881,49.0,0.0,510.0,15.0,0.0
2882,61.0,0.0,510.0,8.0,0.0
2883,77.0,0.0,510.0,6.0,0.0
2884,61.0,0.0,510.0,14.0,0.0
2885,61.0,512.0,510.0,4.0,0.0
2886,61.0,0.0,510.0,13.0,0.0
2887,77.0,0.0,510.0,3.0,0.0
2888,58.0,0.0,510.0,14.0,0.0
2889,58.0,0.0,510.0,13.0,0.0
2890,73.0,512.0,510.0,2.0,0.0
2891,73.0,0.0,510.0,6.0,0.0
2892,46.0,0.0,510.0,15.0,0.0
2893,58.0,0.0,510.0,4.0,0.0
2894,58.0,0.0,510.0,8.0,0.0
2895,73.0,0.0,510.0,3.0,0.0
2896,75.0,0.0,510.0,2.0,0.0
2897,60.0,0.0,510.0,14.0,0.0
2898,60.0,0.0,510.0,13.0,0.0
2899,60.0,0.0,510.0,8.0,0.0
2900,60.0,512.0,510.0,4.0,0.0
2901,75.0,0.0,510.0,3.0,0.0
2902,48.0,0.0,510.0,15.0,0.0
2903,75.0,0.0,510.0,6.0,0.0
2904,77.0,0.0,3060.0,11.0,0.0
2905,77.0,0.0,3060.0,6.0,0.0
2906,77.0,0.0,3060.0,3.0,0.0
2907,62.0,0.0,510.0,4.0,0.0
2908,62.0,0.0,510.0,14.0,0.0
2909,62.0,512.0,510.0,13.0,0.0
2910,70.0,512.0,2550.0,12.0,0.0
2911,50.0,0.0,510.0,15.0,0.0
2912,62.0,0.0,510.0,8.0,0.0
2913,77.0,0.0,3060.0,2.0,0.0
2914,70.0,0.0,2550.0,7.0,0.0
2915,63.0,512.0,510.0,8.0,0.0
2916,63.0,0.0,510.0,4.0,0.0
2917,51.0,0.0,510.0,15.0,0.0
2918,63.0,0.0,510.0,13.0,0.0
2919,63.0,0.0,510.0,14.0,0.0
2920,60.0,512.0,510.0,8.0,0.0
2921,60.0,0.0,510.0,14.0,0.0
2922,48.0,0.0,510.0,15.0,0.0
2923,60.0,0.0,510.0,13.0,0.0
2924,60.0,0.0,510.0,4.0,0.0
2925,62.0,0.0,510.0,13.0,0.0
2926,62.0,0.0,510.0,4.0,0.0
2927,62.0,512.0,510.0,8.0,0.0
2928,62.0,0.0,510.0,14.0,0.0
2929,50.0,0.0,510.0,15.0,0.0
2930,63.0,0.0,5130.0,4.0,0.0
2931,51.0,512.0,5130.0,15.0,0.0
2932,63.0,0.0,5130.0,13.0,0.0
2933,63.0,0.0,5130.0,14.0,0.0
2934,63.0,0.0,5130.0,8.0,0.0
2935,71.0,0.0,510.0,7.0,0.0
2936,71.0,0.0,510.0,12.0,0.0
2937,75.0,0.0,510.0,2.0,0.0
2938,78.0,0.0,510.0,10.0,0.0
2939,70.0,512.0,510.0,12.0,0.0
2940,70.0,0.0,510.0,7.0,0.0
2941,78.0,0.0,510.0,5.0,0.0
2942,75.0,0.0,510.0,11.0,0.0
2943,78.0,0.0,510.0,2.0,0.0
2944,78.0,0.0,510.0,3.0,0.0
2945,75.0,0.0,510.0,6.0,0.0
2946,75.0,0.0,510.0,3.0,0.0
2947,77.0,0.0,510.0,3.0,0.0
2948,77.0,0.0,510.0,5.0,0.0
2949,74.0,0.0,510.0,11.0,0.0
2950,77.0,0.0,510.0,10.0,0.0
2951,77.0,0.0,510.0,2.0,0.0
2952,68.0,0.0,510.0,7.0,0.0
2953,73.0,0.0,510.0,3.0,0.0
2954,73.0,0.0,510.0,2.0,0.0
2955,68.0,512.0,510.0,12.0,0.0
2956,73.0,0.0,510.0,6.0,0.0
2957,75.0,0.0,4110.0,2.0,0.0
2958,78.0,0.0,510.0,2.0,0.0
2959,78.0,0.0,510.0,5.0,0.0
2960,78.0,0.0,510.0,3.0,0.0
2961,75.0,0.0,4110.0,3.0,0.0
2962,70.0,0.0,1020.0,7.0,0.0
2963,70.0,0.0,1020.0,12.0,0.0
2964,75.0,0.0,4110.0,6.0,0.0
2965,75.0,0.0,3060.0,11.0,0.0
2966,78.0,512.0,510.0,10.0,0.0
2967,80.0,0.0,510.0,2.0,0.0
2968,80.0,0.0,510.0,3.0,0.0
2969,80.0,0.0,510.0,5.0,0.0
2970,80.0,512.0,510.0,10.0,0.0
2971,82.0,0.0,510.0,10.0,0.0
2972,66.0,0.0,3060.0,7.0,0.0
2973,66.0,1024.0,1020.0,12.0,0.0
2974,82.0,512.0,510.0,5.0,0.0
2975,82.0,0.0,510.0,3.0,0.0
2976,82.0,0.0,510.0,2.0,0.0
2977,78.0,0.0,510.0,10.0,0.0
2978,78.0,0.0,510.0,3.0,0.0
2979,78.0,0.0,510.0,2.0,0.0
2980,78.0,0.0,510.0,5.0,0.0
2981,83.0,0.0,6150.0,2.0,0.0
2982,83.0,0.0,6150.0,10.0,0.0
2983,83.0,0.0,6150.0,3.0,0.0
2984,66.0,0.0,2040.0,12.0,0.0
2985,83.0,1024.0,6150.0,5.0,0.0
2986,75.0,512.0,1020.0,11.0,0.0
2987,61.0,0.0,510.0,8.0,0.0
2988,49.0,0.0,510.0,15.0,0.0
2989,61.0,0.0,510.0,4.0,0.0
2990,61.0,0.0,510.0,13.0,0.0
2991,61.0,512.0,510.0,14.0,0.0
2992,59.0,0.0,510.0,4.0,0.0
2993,59.0,0.0,510.0,14.0,0.0
2994,59.0,0.0,510.0,13.0,0.0
2995,59.0,0.0,510.0,8.0,0.0
2996,47.0,0.0,510.0,15.0,0.0
2997,68.0,0.0,2040.0,2.0,0.0
2998,68.0,0.0,2040.0,3.0,0.0
2999,61.0,0.0,510.0,13.0,0.0
3000,65.0,0.0,1020.0,12.0,0.0
3001,61.0,0.0,510.0,8.0,0.0
3002,61.0,0.0,510.0,4.0,0.0
3003,61.0,0.0,510.0,14.0,0.0
3004,65.0,0.0,510.0,7.0,0.0
3005,68.0,0.0,2040.0,11.0,0.0
3006,68.0,0.0,2040.0,6.0,0.0
3007,49.0,512.0,510.0,15.0,0.0
3008,63.0,0.0,510.0,14.0,0.0
3009,63.0,512.0,510.0,13.0,0.0
3010,63.0,0.0,510.0,4.0,0.0
3011,63.0,0.0,510.0,7.0,0.0
3012,51.0,0.0,510.0,15.0,0.0
3013,63.0,0.0,510.0,8.0,0.0
3014,61.0,0.0,1020.0,12.0,0.0
3015,65.0,0.0,510.0,4.0,0.0
3016,53.0,0.0,510.0,15.0,0.0
3017,65.0,512.0,510.0,13.0,0.0
3018,65.0,0.0,510.0,7.0,0.0
3019,65.0,0.0,510.0,14.0,0.0
3020,65.0,0.0,510.0,8.0,0.0
3021,61.0,0.0,510.0,4.0,0.0
3022,61.0,512.0,510.0,8.0,0.0
3023,49.0,0.0,510.0,15.0,0.0
3024,61.0,0.0,510.0,13.0,0.0
3025,66.0,0.0,510.0,7.0,0.0
3026,61.0,0.0,510.0,14.0,0.0
3027,66.0,0.0,2040.0,6.0,0.0
3028,54.0,0.0,1020.0,15.0,0.0
3029,66.0,0.0,2040.0,2.0,0.0
3030,66.0,0.0,1020.0,13.0,0.0
3031,66.0,0.0,2040.0,3.0,0.0
3032,66.0,1024.0,1020.0,4.0,0.0
3033,66.0,0.0,1020.0,14.0,0.0
3034,66.0,0.0,1020.0,8.0,0.0
3035,68.0,512.0,510.0,7.0,0.0
3036,65.0,0.0,510.0,7.0,0.0
3037,49.0,0.0,1020.0,15.0,0.0
3038,61.0,0.0,1020.0,14.0,0.0
3039,61.0,0.0,1020.0,8.0,0.0
3040,61.0,1024.0,2040.0,7.0,0.0
3041,61.0,0.0,1020.0,4.0,0.0
3042,61.0,0.0,1020.0,13.0,0.0
3043,70.0,0.0,2040.0,0.0,0.0
3044,66.0,0.0,4110.0,4.0,0.0
3045,78.0,0.0,2040.0,0.0,0.0
3046,82.0,0.0,2040.0,3.0,0.0
3047,66.0,0.0,4110.0,13.0,0.0
3048,82.0,2048.0,2040.0,5.0,0.0
3049,66.0,0.0,15.0,11.0,0.0
3050,54.0,0.0,4110.0,15.0,0.0
3051,54.0,0.0,4110.0,1.0,0.0
3052,66.0,0.0,4110.0,14.0,0.0
3053,66.0,0.0,2040.0,3.0,0.0
3054,66.0,0.0,2040.0,6.0,0.0
3055,66.0,0.0,2040.0,2.0,0.0
3056,82.0,0.0,2040.0,2.0,0.0
3057,61.0,0.0,15.0,12.0,0.0
3058,82.0,0.0,2040.0,10.0,0.0
3059,66.0,0.0,4110.0,8.0,0.0
3060,80.0,0.0,8190.0,3.0,0.0
3061,68.0,0.0,2040.0,3.0,0.0
3062,80.0,0.0,2040.0,0.0,0.0
3063,68.0,0.0,2040.0,6.0,0.0
3064,68.0,2048.0,2040.0,2.0,0.0
3065,73.0,0.0,4110.0,0.0,0.0
3066,80.0,0.0,8190.0,10.0,0.0
3067,68.0,0.0,2040.0,11.0,0.0
3068,80.0,0.0,8190.0,2.0,0.0
3069,80.0,0.0,8190.0,5.0,0.0
3070,70.0,0.0,2040.0,11.0,0.0
3071,64.0,0.0,2040.0,14.0,0.0
3072,82.0,1024.0,2040.0,0.0,0.0
3073,85.0,0.0,2040.0,0.0,0.0
3074,61.0,0.0,2040.0,7.0,0.0
3075,61.0,0.0,2040.0,12.0,0.0
3076,64.0,0.0,2040.0,13.0,0.0
3077,49.0,0.0,2040.0,1.0,0.0
3078,70.0,0.0,2040.0,3.0,0.0
3079,52.0,0.0,2040.0,15.0,0.0
3080,70.0,0.0,2040.0,2.0,0.0
3081,64.0,0.0,2040.0,4.0,0.0
3082,64.0,0.0,2040.0,8.0,0.0
3083,70.0,0.0,2040.0,6.0,0.0
3084,71.0,0.0,2040.0,11.0,0.0
3085,63.0,0.0,6150.0,14.0,0.0
3086,63.0,0.0,2040.0,7.0,0.0
3087,71.0,0.0,2040.0,2.0,0.0
3088,80.0,1024.0,1020.0,0.0,0.0
3089,63.0,0.0,6150.0,8.0,0.0
3090,63.0,512.0,6150.0,13.0,0.0
3091,87.0,0.0,2040.0,0.0,0.0
3092,63.0,0.0,6150.0,4.0,0.0
3093,63.0,0.0,2040.0,12.0,0.0
3094,71.0,0.0,2040.0,6.0,0.0
3095,51.0,0.0,6150.0,15.0,0.0
3096,71.0,1024.0,2040.0,3.0,0.0
3097,82.0,0.0,1020.0,0.0,0.0
3098,65.0,0.0,2040.0,7.0,0.0
3099,83.0,0.0,15.0,0.0,0.0
3100,82.0,0.0,1020.0,0.0,0.0
3101,65.0,0.0,2040.0,12.0,0.0
3102,70.0,0.0,1020.0,2.0,0.0
3103,70.0,0.0,1020.0,3.0,0.0
3104,70.0,0.0,1020.0,11.0,0.0
3105,89.0,0.0,2040.0,0.0,0.0
3106,70.0,0.0,1020.0,6.0,0.0
3107,80.0,0.0,1020.0,0.0,0.0
3108,68.0,0.0,1020.0,11.0,0.0
3109,68.0,0.0,1020.0,2.0,0.0
3110,68.0,0.0,1020.0,6.0,0.0
3111,68.0,0.0,1020.0,3.0,0.0
3112,85.0,1024.0,1020.0,0.0,0.0
3113,78.0,0.0,2040.0,10.0,0.0
3114,70.0,512.0,1020.0,11.0,0.0
3115,70.0,0.0,1020.0,6.0,0.0
3116,70.0,0.0,1020.0,3.0,0.0
3117,90.0,512.0,4620.0,0.0,0.0
3118,78.0,0.0,2040.0,3.0,0.0
3119,70.0,0.0,1020.0,2.0,0.0
3120,78.0,0.0,2040.0,2.0,0.0
3121,78.0,0.0,2040.0,5.0,0.0
3122,82.0,0.0,1020.0,0.0,0.0
3123,66.0,0.0,2040.0,7.0,0.0
3124,66.0,0.0,2040.0,12.0,0.0
3125,87.0,0.0,15.0,0.0,0.0
3126,75.0,0.0,2040.0,11.0,0.0
3127,75.0,0.0,2040.0,2.0,0.0
3128,75.0,0.0,2040.0,3.0,0.0
3129,82.0,0.0,1020.0,0.0,0.0
3130,54.0,512.0,15.0,1.0,0.0
3131,68.0,0.0,1020.0,12.0,0.0
3132,54.0,0.0,15.0,1.0,0.0
3133,61.0,0.0,2040.0,8.0,0.0
3134,49.0,0.0,2040.0,15.0,0.0
3135,61.0,0.0,2040.0,13.0,0.0
3136,68.0,512.0,1020.0,7.0,0.0
3137,61.0,0.0,2040.0,4.0,0.0
3138,61.0,0.0,2040.0,14.0,0.0
3139,85.0,0.0,510.0,0.0,0.0
3140,78.0,0.0,1020.0,3.0,0.0
3141,70.0,0.0,1020.0,12.0,0.0
3142,75.0,0.0,15.0,6.0,0.0
3143,78.0,0.0,1020.0,5.0,0.0
3144,75.0,0.0,1020.0,11.0,0.0
3145,75.0,0.0,1020.0,3.0,0.0
3146,70.0,0.0,1020.0,7.0,0.0
3147,78.0,0.0,1020.0,0.0,0.0
3148,75.0,512.0,1020.0,2.0,0.0
3149,78.0,0.0,1020.0,10.0,0.0
3150,78.0,0.0,1020.0,2.0,0.0
3151,84.0,512.0,510.0,0.0,0.0
3152,82.0,0.0,510.0,0.0,0.0
3153,60.0,0.0,4110.0,14.0,0.0
3154,80.0,0.0,5130.0,0.0,0.0
3155,60.0,1024.0,4110.0,8.0,0.0
3156,68.0,0.0,1020.0,11.0,0.0
3157,80.0,0.0,2550.0,5.0,0.0
3158,80.0,0.0,2550.0,10.0,0.0
3159,68.0,0.0,1020.0,6.0,0.0
3160,63.0,0.0,2040.0,12.0,0.0
3161,80.0,512.0,2550.0,3.0,0.0
3162,63.0,0.0,2040.0,7.0,0.0
3163,68.0,512.0,1020.0,3.0,0.0
3164,60.0,0.0,4110.0,4.0,0.0
3165,48.0,0.0,4110.0,15.0,0.0
3166,60.0,0.0,4110.0,13.0,0.0
3167,54.0,0.0,15.0,1.0,0.0
3168,68.0,0.0,1020.0,2.0,0.0
3169,80.0,0.0,2550.0,2.0,0.0
3170,89.0,0.0,510.0,0.0,0.0
3171,72.0,0.0,1020.0,11.0,0.0
3172,87.0,512.0,510.0,0.0,0.0
3173,72.0,0.0,1020.0,2.0,0.0
3174,72.0,0.0,1020.0,3.0,0.0
3175,72.0,0.0,1020.0,6.0,0.0
3176,85.0,512.0,510.0,0.0,0.0
3177,68.0,0.0,3060.0,7.0,0.0
3178,75.0,0.0,3060.0,6.0,0.0
3179,75.0,0.0,3060.0,3.0,0.0
3180,75.0,0.0,3060.0,11.0,0.0
3181,75.0,0.0,3060.0,2.0,0.0
3182,84.0,0.0,2040.0,0.0,0.0
3183,68.0,0.0,3060.0,12.0,0.0
3184,87.0,0.0,3060.0,0.0,0.0
3185,82.0,512.0,510.0,2.0,0.0
3186,82.0,0.0,510.0,10.0,0.0
3187,82.0,0.0,510.0,3.0,0.0
3188,82.0,0.0,510.0,5.0,0.0
3189,54.0,0.0,1020.0,1.0,0.0
3190,80.0,0.0,510.0,5.0,0.0
3191,80.0,0.0,510.0,3.0,0.0
3192,80.0,512.0,510.0,2.0,0.0
3193,80.0,0.0,510.0,10.0,0.0
3194,78.0,0.0,510.0,3.0,0.0
3195,78.0,0.0,510.0,10.0,0.0
3196,78.0,0.0,510.0,5.0,0.0
3197,78.0,0.0,510.0,2.0,0.0
3198,89.0,0.0,1020.0,0.0,0.0
3199,77.0,512.0,1020.0,10.0,0.0
3200,77.0,0.0,1020.0,2.0,0.0
3201,61.0,0.0,3060.0,4.0,0.0
3202,77.0,0.0,1020.0,5.0,0.0
3203,49.0,0.0,3060.0,15.0,0.0
3204,49.0,0.0,1020.0,1.0,0.0
3205,61.0,0.0,3060.0,8.0,0.0
3206,61.0,512.0,3060.0,14.0,0.0
3207,77.0,0.0,1020.0,3.0,0.0
3208,73.0,0.0,1020.0,2.0,0.0
3209,65.0,0.0,2040.0,7.0,0.0
3210,61.0,0.0,15.0,13.0,0.0
3211,73.0,0.0,1020.0,5.0,0.0
3212,68.0,1024.0,1020.0,2.0,0.0
3213,85.0,512.0,510.0,0.0,0.0
3214,68.0,0.0,1020.0,3.0,0.0
3215,68.0,0.0,1020.0,6.0,0.0
3216,65.0,0.0,2040.0,12.0,0.0
3217,68.0,0.0,1020.0,11.0,0.0
3218,73.0,0.0,1020.0,3.0,0.0
3219,80.0,0.0,1020.0,0.0,0.0
3220,73.0,0.0,1020.0,10.0,0.0
3221,83.0,0.0,510.0,0.0,0.0
3222,82.0,0.0,4110.0,10.0,0.0
3223,82.0,0.0,4110.0,0.0,0.0
3224,82.0,0.0,4110.0,5.0,0.0
3225,82.0,0.0,4110.0,3.0,0.0
3226,85.0,0.0,4110.0,0.0,0.0
3227,73.0,0.0,4110.0,3.0,0.0
3228,82.0,0.0,4110.0,2.0,0.0
3229,73.0,0.0,4110.0,2.0,0.0
3230,73.0,0.0,3060.0,11.0,0.0
3231,73.0,0.0,4110.0,6.0,0.0
3232,42.0,0.0,1020.0,15.0,0.0
3233,54.0,0.0,1020.0,8.0,0.0
3234,54.0,0.0,1020.0,13.0,0.0
3235,78.0,0.0,1020.0,0.0,0.0
3236,66.0,512.0,510.0,12.0,0.0
3237,54.0,0.0,1020.0,14.0,0.0
3238,54.0,0.0,1020.0,1.0,0.0
3239,66.0,0.0,1020.0,7.0,0.0
3240,54.0,1024.0,1020.0,4.0,0.0
3241,65.0,0.0,510.0,12.0,0.0
3242,47.0,0.0,1020.0,15.0,0.0
3243,59.0,1024.0,1020.0,8.0,0.0
3244,63.0,0.0,1020.0,7.0,0.0
3245,78.0,0.0,1020.0,0.0,0.0
3246,59.0,0.0,1020.0,14.0,0.0
3247,59.0,0.0,1020.0,13.0,0.0
3248,63.0,0.0,1020.0,12.0,0.0
3249,59.0,0.0,1020.0,4.0,0.0
3250,54.0,0.0,1020.0,1.0,0.0
3251,46.0,0.0,1020.0,15.0,0.0
3252,58.0,0.0,1020.0,4.0,0.0
3253,58.0,1024.0,1020.0,8.0,0.0
3254,61.0,0.0,1020.0,12.0,0.0
3255,61.0,0.0,1020.0,7.0,0.0
3256,66.0,0.0,1020.0,11.0,0.0
3257,58.0,0.0,1020.0,13.0,0.0
3258,58.0,0.0,1020.0,14.0,0.0
3259,71.0,0.0,3060.0,2.0,0.0
3260,80.0,0.0,3060.0,0.0,0.0
3261,71.0,0.0,3060.0,3.0,0.0
3262,71.0,512.0,3060.0,6.0,0.0
3263,83.0,0.0,3060.0,0.0,0.0
3264,59.0,0.0,1020.0,14.0,0.0
3265,80.0,0.0,3060.0,10.0,0.0
3266,59.0,0.0,1020.0,13.0,0.0
3267,80.0,0.0,3060.0,5.0,0.0
3268,63.0,1024.0,1020.0,12.0,0.0
3269,59.0,0.0,1020.0,4.0,0.0
3270,71.0,0.0,3060.0,11.0,0.0
3271,80.0,0.0,3060.0,3.0,0.0
3272,80.0,0.0,3060.0,2.0,0.0
3273,59.0,0.0,1020.0,8.0,0.0
3274,63.0,0.0,1020.0,7.0,0.0
3275,47.0,0.0,1020.0,15.0,0.0
3276,59.0,0.0,1020.0,7.0,0.0
3277,56.0,0.0,1020.0,4.0,0.0
3278,44.0,0.0,1020.0,15.0,0.0
3279,56.0,1024.0,1020.0,13.0,0.0
3280,56.0,0.0,1020.0,14.0,0.0
3281,56.0,0.0,1020.0,8.0,0.0
3282,59.0,0.0,1020.0,12.0,0.0
3283,61.0,0.0,1020.0,12.0,0.0
3284,58.0,0.0,3060.0,4.0,0.0
3285,49.0,0.0,1020.0,1.0,0.0
3286,46.0,0.0,3060.0,15.0,0.0
3287,58.0,0.0,3060.0,8.0,0.0
3288,73.0,0.0,1020.0,0.0,0.0
3289,61.0,0.0,1020.0,7.0,0.0
3290,58.0,0.0,3060.0,14.0,0.0
3291,58.0,1024.0,3060.0,13.0,0.0
3292,73.0,0.0,1020.0,3.0,0.0
3293,73.0,0.0,1020.0,2.0,0.0
3294,63.0,0.0,510.0,12.0,0.0
3295,70.0,0.0,510.0,11.0,0.0
3296,73.0,0.0,1020.0,5.0,0.0
3297,73.0,0.0,1020.0,0.0,0.0
3298,70.0,0.0,510.0,3.0,0.0
3299,70.0,512.0,510.0,2.0,0.0
3300,82.0,0.0,510.0,0.0,0.0
3301,63.0,0.0,510.0,7.0,0.0
3302,73.0,0.0,1020.0,10.0,0.0
3303,70.0,0.0,510.0,6.0,0.0
3304,68.0,0.0,510.0,2.0,0.0
3305,65.0,0.0,510.0,12.0,0.0
3306,80.0,0.0,510.0,0.0,0.0
3307,68.0,0.0,510.0,11.0,0.0
3308,68.0,1024.0,510.0,3.0,0.0
3309,65.0,0.0,510.0,7.0,0.0
3310,68.0,0.0,510.0,6.0,0.0
3311,78.0,0.0,3060.0,5.0,0.0
3312,66.0,0.0,1020.0,7.0,0.0
3313,70.0,0.0,1020.0,11.0,0.0
3314,78.0,0.0,3060.0,10.0,0.0
3315,70.0,0.0,1020.0,6.0,0.0
3316,82.0,0.0,1020.0,0.0,0.0
3317,70.0,0.0,1020.0,2.0,0.0
3318,78.0,0.0,3060.0,0.0,0.0
3319,66.0,0.0,1020.0,12.0,0.0
3320,78.0,0.0,3060.0,3.0,0.0
3321,78.0,0.0,3060.0,2.0,0.0
3322,70.0,0.0,1020.0,3.0,0.0
3323,59.0,0.0,1020.0,13.0,0.0
3324,63.0,0.0,1020.0,7.0,0.0
3325,47.0,0.0,1020.0,15.0,0.0
3326,63.0,0.0,1020.0,12.0,0.0
3327,59.0,0.0,1020.0,14.0,0.0
3328,66.0,0.0,1020.0,0.0,0.0
3329,59.0,0.0,1020.0,4.0,0.0
3330,75.0,0.0,1020.0,6.0,0.0
3331,75.0,0.0,1020.0,11.0,0.0
3332,54.0,1024.0,1020.0,1.0,0.0
3333,59.0,0.0,1020.0,8.0,0.0
3334,75.0,0.0,1020.0,3.0,0.0
3335,75.0,0.0,1020.0,2.0,0.0
3336,87.0,0.0,1020.0,0.0,0.0
3337,82.0,0.0,2040.0,0.0,0.0
3338,70.0,0.0,1020.0,11.0,0.0
3339,61.0,0.0,2040.0,14.0,0.0
3340,61.0,0.0,2040.0,4.0,0.0
3341,61.0,0.0,2040.0,7.0,0.0
3342,70.0,0.0,1020.0,6.0,0.0
3343,70.0,0.0,1020.0,2.0,0.0
3344,70.0,0.0,1020.0,3.0,0.0
3345,49.0,0.0,2040.0,15.0,0.0
3346,61.0,0.0,2040.0,8.0,0.0
3347,61.0,8192.0,4110.0,12.0,0.0
3348,61.0,0.0,2040.0,13.0,0.0
3349,73.0,0.0,1020.0,0.0,0.0
3350,49.0,512.0,15.0,1.0,0.0
3351,68.0,0.0,510.0,3.0,0.0
3352,68.0,0.0,510.0,2.0,0.0
3353,68.0,0.0,510.0,11.0,0.0
3354,77.0,0.0,510.0,10.0,0.0
3355,77.0,0.0,510.0,5.0,0.0
3356,77.0,0.0,510.0,2.0,0.0
3357,77.0,0.0,510.0,3.0,0.0
3358,68.0,0.0,510.0,6.0,0.0
3359,49.0,0.0,15.0,1.0,0.0
3360,66.0,0.0,510.0,6.0,0.0
3361,75.0,0.0,510.0,2.0,0.0
3362,66.0,0.0,510.0,11.0,0.0
3363,66.0,0.0,510.0,2.0,0.0
3364,73.0,0.0,15.0,0.0,0.0
3365,66.0,0.0,510.0,3.0,0.0
3366,75.0,0.0,510.0,5.0,0.0
3367,75.0,819.0,510.0,3.0,0.0
3368,75.0,0.0,510.0,10.0,0.0
3369,73.0,0.0,15.0,0.0,0.0
3370,68.0,0.0,1830.0,3.0,0.0
3371,77.0,0.0,1830.0,2.0,0.0
3372,68.0,0.0,1830.0,2.0,0.0
3373,49.0,0.0,1830.0,8.0,0.0
3374,77.0,0.0,1830.0,5.0,0.0
3375,49.0,0.0,1830.0,13.0,0.0
3376,68.0,0.0,1830.0,6.0,0.0
3377,68.0,205.0,1830.0,11.0,0.0
3378,80.0,0.0,1830.0,0.0,0.0
3379,49.0,0.0,15.0,1.0,0.0
3380,37.0,0.0,1830.0,15.0,0.0
3381,49.0,0.0,1830.0,14.0,0.0
3382,77.0,0.0,1830.0,10.0,0.0
3383,61.0,0.0,1830.0,7.0,0.0
3384,73.0,0.0,810.0,0.0,0.0
3385,77.0,0.0,1830.0,3.0,0.0
3386,49.0,0.0,1830.0,4.0,0.0
3387,73.0,0.0,810.0,0.0,0.0
3388,49.0,0.0,810.0,1.0,0.0
3389,30.0,0.0,8190.0,15.0,0.0
3390,78.0,8192.0,8190.0,2.0,0.0
3391,70.0,0.0,8190.0,0.0,0.0
3392,61.0,0.0,8190.0,7.0,0.0
3393,70.0,0.0,8190.0,6.0,0.0
3394,78.0,0.0,8190.0,10.0,0.0
3395,70.0,0.0,8190.0,3.0,0.0
3396,78.0,0.0,8190.0,5.0,0.0
3397,42.0,0.0,8190.0,14.0,0.0
3398,70.0,0.0,8190.0,11.0,0.0
3399,78.0,0.0,8190.0,3.0,0.0
3400,61.0,0.0,8190.0,12.0,0.0
3401,70.0,0.0,8190.0,2.0,0.0
3402,78.0,0.0,8190.0,0.0,0.0
3403,54.0,0.0,8190.0,13.0,0.0
3404,42.0,0.0,8190.0,8.0,0.0
3405,73.0,0.0,8190.0,0.0,0.0
3406,54.0,0.0,8190.0,1.0,0.0
3407,42.0,0.0,8190.0,4.0,0.0
