,note,step,duration,channel,velocity
0,54.0,60.0,60.0,7.0,0.0
1,66.0,0.0,60.0,8.0,0.0
2,54.0,0.0,60.0,5.0,0.0
3,66.0,0.0,60.0,1.0,0.0
4,54.0,0.0,60.0,10.0,0.0
5,66.0,0.0,60.0,4.0,0.0
6,66.0,0.0,60.0,6.0,0.0
7,54.0,0.0,60.0,3.0,0.0
8,66.0,0.0,60.0,2.0,0.0
9,66.0,0.0,60.0,0.0,0.0
10,68.0,0.0,60.0,6.0,0.0
11,68.0,0.0,60.0,8.0,0.0
12,68.0,0.0,60.0,2.0,0.0
13,68.0,0.0,60.0,0.0,0.0
14,68.0,0.0,60.0,1.0,0.0
15,56.0,0.0,60.0,10.0,0.0
16,56.0,0.0,60.0,3.0,0.0
17,56.0,0.0,60.0,5.0,0.0
18,68.0,0.0,60.0,4.0,0.0
19,56.0,60.0,60.0,7.0,0.0
20,69.0,0.0,60.0,0.0,0.0
21,69.0,0.0,60.0,2.0,0.0
22,69.0,0.0,60.0,1.0,0.0
23,69.0,0.0,60.0,6.0,0.0
24,69.0,0.0,15.0,4.0,0.0
25,69.0,0.0,60.0,0.0,0.0
26,69.0,0.0,60.0,2.0,0.0
27,69.0,0.0,15.0,8.0,0.0
28,57.0,0.0,15.0,10.0,0.0
29,57.0,0.0,15.0,7.0,0.0
30,57.0,60.0,15.0,3.0,0.0
31,69.0,0.0,60.0,6.0,0.0
32,57.0,0.0,15.0,5.0,0.0
33,69.0,60.0,60.0,1.0,0.0
34,59.0,0.0,60.0,10.0,0.0
35,71.0,0.0,60.0,1.0,0.0
36,71.0,0.0,60.0,0.0,0.0
37,71.0,0.0,60.0,8.0,0.0
38,59.0,0.0,60.0,7.0,0.0
39,71.0,0.0,60.0,4.0,0.0
40,59.0,60.0,60.0,3.0,0.0
41,59.0,0.0,60.0,5.0,0.0
42,71.0,0.0,60.0,2.0,0.0
43,71.0,0.0,60.0,6.0,0.0
44,73.0,0.0,60.0,4.0,0.0
45,73.0,0.0,60.0,8.0,0.0
46,61.0,0.0,60.0,10.0,0.0
47,61.0,0.0,60.0,7.0,0.0
48,73.0,0.0,60.0,1.0,0.0
49,73.0,0.0,60.0,6.0,0.0
50,61.0,0.0,60.0,3.0,0.0
51,73.0,0.0,15.0,2.0,0.0
52,73.0,0.0,60.0,6.0,0.0
53,61.0,0.0,15.0,5.0,0.0
54,61.0,0.0,60.0,3.0,0.0
55,73.0,60.0,15.0,0.0,0.0
56,73.0,0.0,60.0,8.0,0.0
57,73.0,0.0,60.0,4.0,0.0
58,61.0,0.0,60.0,7.0,0.0
59,73.0,60.0,60.0,1.0,0.0
60,61.0,0.0,60.0,10.0,0.0
61,74.0,0.0,60.0,1.0,0.0
62,74.0,0.0,60.0,8.0,0.0
63,74.0,0.0,60.0,0.0,0.0
64,62.0,0.0,60.0,3.0,0.0
65,74.0,60.0,60.0,6.0,0.0
66,74.0,0.0,60.0,2.0,0.0
67,74.0,0.0,60.0,4.0,0.0
68,62.0,0.0,60.0,10.0,0.0
69,62.0,0.0,60.0,5.0,0.0
70,62.0,0.0,60.0,7.0,0.0
71,73.0,0.0,60.0,0.0,0.0
72,73.0,0.0,60.0,8.0,0.0
73,73.0,0.0,60.0,2.0,0.0
74,61.0,0.0,60.0,7.0,0.0
75,73.0,0.0,60.0,4.0,0.0
76,61.0,0.0,60.0,5.0,0.0
77,61.0,0.0,60.0,3.0,0.0
78,73.0,0.0,60.0,1.0,0.0
79,61.0,0.0,60.0,10.0,0.0
80,73.0,30.0,60.0,6.0,0.0
81,59.0,0.0,30.0,7.0,0.0
82,59.0,0.0,30.0,3.0,0.0
83,71.0,30.0,30.0,4.0,0.0
84,59.0,0.0,30.0,10.0,0.0
85,71.0,0.0,30.0,2.0,0.0
86,71.0,0.0,30.0,1.0,0.0
87,71.0,0.0,30.0,0.0,0.0
88,59.0,0.0,30.0,5.0,0.0
89,71.0,0.0,30.0,6.0,0.0
90,71.0,0.0,30.0,8.0,0.0
91,69.0,0.0,30.0,8.0,0.0
92,69.0,0.0,30.0,1.0,0.0
93,69.0,0.0,30.0,2.0,0.0
94,57.0,0.0,30.0,5.0,0.0
95,57.0,0.0,30.0,10.0,0.0
96,57.0,0.0,30.0,7.0,0.0
97,69.0,0.0,30.0,6.0,0.0
98,57.0,0.0,30.0,3.0,0.0
99,69.0,0.0,30.0,4.0,0.0
100,69.0,30.0,30.0,0.0,0.0
101,68.0,0.0,30.0,8.0,0.0
102,68.0,0.0,30.0,6.0,0.0
103,56.0,30.0,30.0,5.0,0.0
104,68.0,0.0,30.0,2.0,0.0
105,68.0,0.0,30.0,4.0,0.0
106,68.0,0.0,30.0,1.0,0.0
107,68.0,0.0,30.0,0.0,0.0
108,56.0,0.0,30.0,3.0,0.0
109,56.0,0.0,30.0,7.0,0.0
110,56.0,0.0,30.0,10.0,0.0
111,54.0,60.0,30.0,10.0,0.0
112,66.0,0.0,30.0,4.0,0.0
113,66.0,0.0,30.0,0.0,0.0
114,66.0,0.0,30.0,8.0,0.0
115,54.0,0.0,30.0,3.0,0.0
116,66.0,0.0,30.0,2.0,0.0
117,66.0,0.0,30.0,1.0,0.0
118,54.0,0.0,30.0,7.0,0.0
119,66.0,0.0,30.0,6.0,0.0
120,54.0,0.0,30.0,5.0,0.0
121,65.0,0.0,60.0,0.0,0.0
122,65.0,0.0,60.0,4.0,0.0
123,65.0,0.0,60.0,2.0,0.0
124,65.0,0.0,60.0,1.0,0.0
125,53.0,0.0,60.0,7.0,0.0
126,65.0,0.0,60.0,6.0,0.0
127,53.0,0.0,60.0,3.0,0.0
128,65.0,30.0,60.0,8.0,0.0
129,53.0,0.0,60.0,10.0,0.0
130,53.0,0.0,60.0,5.0,0.0
131,61.0,0.0,30.0,1.0,0.0
132,61.0,0.0,30.0,4.0,0.0
133,61.0,0.0,30.0,6.0,0.0
134,49.0,0.0,30.0,7.0,0.0
135,61.0,0.0,30.0,0.0,0.0
136,49.0,0.0,30.0,5.0,0.0
137,61.0,0.0,30.0,2.0,0.0
138,49.0,30.0,30.0,3.0,0.0
139,49.0,0.0,30.0,10.0,0.0
140,61.0,0.0,30.0,8.0,0.0
141,51.0,0.0,30.0,5.0,0.0
142,51.0,0.0,30.0,10.0,0.0
143,63.0,0.0,30.0,4.0,0.0
144,63.0,0.0,30.0,1.0,0.0
145,63.0,0.0,30.0,6.0,0.0
146,63.0,0.0,30.0,8.0,0.0
147,63.0,30.0,30.0,2.0,0.0
148,51.0,0.0,30.0,7.0,0.0
149,51.0,0.0,30.0,3.0,0.0
150,63.0,0.0,30.0,0.0,0.0
151,65.0,0.0,30.0,1.0,0.0
152,53.0,0.0,30.0,10.0,0.0
153,65.0,0.0,30.0,8.0,0.0
154,65.0,0.0,30.0,0.0,0.0
155,53.0,0.0,30.0,7.0,0.0
156,65.0,30.0,30.0,4.0,0.0
157,53.0,0.0,30.0,5.0,0.0
158,65.0,0.0,30.0,2.0,0.0
159,53.0,0.0,30.0,3.0,0.0
160,65.0,0.0,30.0,6.0,0.0
161,66.0,0.0,30.0,8.0,0.0
162,66.0,0.0,30.0,6.0,0.0
163,66.0,0.0,30.0,1.0,0.0
164,66.0,0.0,30.0,0.0,0.0
165,54.0,0.0,30.0,5.0,0.0
166,54.0,0.0,30.0,10.0,0.0
167,54.0,60.0,30.0,3.0,0.0
168,54.0,0.0,30.0,7.0,0.0
169,66.0,0.0,30.0,2.0,0.0
170,66.0,0.0,30.0,4.0,0.0
171,56.0,0.0,60.0,10.0,0.0
172,68.0,0.0,60.0,1.0,0.0
173,68.0,0.0,60.0,8.0,0.0
174,68.0,0.0,15.0,2.0,0.0
175,56.0,0.0,15.0,5.0,0.0
176,56.0,0.0,15.0,7.0,0.0
177,56.0,0.0,15.0,3.0,0.0
178,68.0,0.0,60.0,1.0,0.0
179,68.0,0.0,15.0,6.0,0.0
180,68.0,0.0,15.0,4.0,0.0
181,68.0,0.0,60.0,8.0,0.0
182,68.0,60.0,15.0,0.0,0.0
183,56.0,0.0,60.0,10.0,0.0
184,69.0,0.0,60.0,0.0,0.0
185,69.0,0.0,60.0,4.0,0.0
186,57.0,0.0,60.0,7.0,0.0
187,57.0,0.0,60.0,10.0,0.0
188,57.0,0.0,60.0,5.0,0.0
189,57.0,0.0,60.0,3.0,0.0
190,69.0,0.0,60.0,1.0,0.0
191,69.0,0.0,60.0,2.0,0.0
192,69.0,60.0,60.0,8.0,0.0
193,69.0,0.0,60.0,6.0,0.0
194,68.0,0.0,60.0,6.0,0.0
195,56.0,0.0,60.0,3.0,0.0
196,68.0,0.0,60.0,2.0,0.0
197,56.0,0.0,60.0,7.0,0.0
198,68.0,30.0,60.0,4.0,0.0
199,56.0,0.0,60.0,10.0,0.0
200,68.0,0.0,60.0,0.0,0.0
201,56.0,0.0,60.0,5.0,0.0
202,68.0,0.0,60.0,1.0,0.0
203,68.0,0.0,60.0,8.0,0.0
204,61.0,0.0,30.0,4.0,0.0
205,49.0,0.0,30.0,3.0,0.0
206,61.0,0.0,30.0,1.0,0.0
207,61.0,0.0,30.0,6.0,0.0
208,61.0,0.0,30.0,0.0,0.0
209,49.0,0.0,30.0,5.0,0.0
210,49.0,30.0,30.0,10.0,0.0
211,61.0,0.0,30.0,2.0,0.0
212,61.0,0.0,30.0,8.0,0.0
213,49.0,0.0,30.0,7.0,0.0
214,51.0,30.0,30.0,7.0,0.0
215,63.0,0.0,30.0,0.0,0.0
216,63.0,0.0,30.0,8.0,0.0
217,63.0,0.0,30.0,4.0,0.0
218,63.0,0.0,30.0,1.0,0.0
219,51.0,0.0,30.0,5.0,0.0
220,63.0,0.0,30.0,6.0,0.0
221,51.0,0.0,30.0,3.0,0.0
222,51.0,0.0,30.0,10.0,0.0
223,63.0,0.0,30.0,2.0,0.0
224,65.0,0.0,30.0,6.0,0.0
225,65.0,0.0,30.0,4.0,0.0
226,53.0,0.0,30.0,10.0,0.0
227,53.0,0.0,30.0,7.0,0.0
228,65.0,0.0,30.0,1.0,0.0
229,53.0,0.0,30.0,5.0,0.0
230,65.0,0.0,30.0,2.0,0.0
231,53.0,0.0,30.0,3.0,0.0
232,65.0,30.0,30.0,0.0,0.0
233,65.0,0.0,30.0,8.0,0.0
234,54.0,60.0,30.0,10.0,0.0
235,66.0,0.0,30.0,6.0,0.0
236,54.0,0.0,30.0,7.0,0.0
237,66.0,0.0,30.0,8.0,0.0
238,54.0,0.0,30.0,3.0,0.0
239,66.0,0.0,30.0,1.0,0.0
240,66.0,0.0,30.0,2.0,0.0
241,54.0,0.0,30.0,5.0,0.0
242,66.0,0.0,30.0,4.0,0.0
243,66.0,0.0,30.0,0.0,0.0
244,56.0,0.0,60.0,7.0,0.0
245,68.0,0.0,60.0,8.0,0.0
246,68.0,0.0,60.0,2.0,0.0
247,68.0,0.0,60.0,0.0,0.0
248,56.0,0.0,60.0,3.0,0.0
249,56.0,0.0,15.0,10.0,0.0
250,68.0,0.0,60.0,8.0,0.0
251,68.0,0.0,15.0,6.0,0.0
252,68.0,0.0,15.0,4.0,0.0
253,56.0,0.0,15.0,5.0,0.0
254,56.0,0.0,60.0,7.0,0.0
255,56.0,0.0,60.0,3.0,0.0
256,68.0,0.0,60.0,0.0,0.0
257,68.0,60.0,15.0,1.0,0.0
258,68.0,0.0,60.0,2.0,0.0
259,69.0,0.0,60.0,6.0,0.0
260,57.0,0.0,60.0,10.0,0.0
261,57.0,0.0,60.0,3.0,0.0
262,69.0,0.0,60.0,8.0,0.0
263,69.0,0.0,60.0,0.0,0.0
264,69.0,0.0,60.0,2.0,0.0
265,57.0,0.0,60.0,5.0,0.0
266,69.0,0.0,60.0,1.0,0.0
267,57.0,60.0,60.0,7.0,0.0
268,69.0,0.0,60.0,4.0,0.0
269,68.0,0.0,60.0,2.0,0.0
270,56.0,0.0,60.0,5.0,0.0
271,56.0,0.0,60.0,10.0,0.0
272,68.0,0.0,60.0,0.0,0.0
273,68.0,0.0,60.0,4.0,0.0
274,68.0,0.0,60.0,8.0,0.0
275,56.0,30.0,60.0,3.0,0.0
276,56.0,0.0,60.0,7.0,0.0
277,68.0,0.0,60.0,1.0,0.0
278,68.0,0.0,60.0,6.0,0.0
279,61.0,0.0,30.0,8.0,0.0
280,49.0,0.0,30.0,10.0,0.0
281,61.0,0.0,30.0,1.0,0.0
282,49.0,0.0,30.0,5.0,0.0
283,61.0,0.0,30.0,4.0,0.0
284,61.0,0.0,30.0,2.0,0.0
285,61.0,30.0,30.0,6.0,0.0
286,61.0,0.0,30.0,0.0,0.0
287,49.0,0.0,30.0,7.0,0.0
288,49.0,0.0,30.0,3.0,0.0
289,51.0,30.0,30.0,5.0,0.0
290,63.0,0.0,30.0,1.0,0.0
291,51.0,0.0,30.0,3.0,0.0
292,51.0,0.0,30.0,7.0,0.0
293,63.0,0.0,30.0,0.0,0.0
294,63.0,0.0,30.0,2.0,0.0
295,63.0,0.0,30.0,4.0,0.0
296,63.0,0.0,30.0,8.0,0.0
297,51.0,0.0,30.0,10.0,0.0
298,63.0,0.0,30.0,6.0,0.0
299,53.0,0.0,30.0,3.0,0.0
300,53.0,0.0,30.0,10.0,0.0
301,53.0,0.0,30.0,7.0,0.0
302,65.0,30.0,30.0,1.0,0.0
303,65.0,0.0,30.0,4.0,0.0
304,53.0,0.0,30.0,5.0,0.0
305,65.0,0.0,30.0,2.0,0.0
306,65.0,0.0,30.0,8.0,0.0
307,65.0,0.0,30.0,0.0,0.0
308,65.0,0.0,30.0,6.0,0.0
309,66.0,0.0,30.0,0.0,0.0
310,66.0,0.0,30.0,6.0,0.0
311,54.0,0.0,30.0,5.0,0.0
312,66.0,0.0,30.0,4.0,0.0
313,66.0,0.0,30.0,2.0,0.0
314,54.0,0.0,30.0,10.0,0.0
315,54.0,0.0,30.0,7.0,0.0
316,66.0,30.0,30.0,8.0,0.0
317,54.0,0.0,30.0,3.0,0.0
318,66.0,0.0,30.0,1.0,0.0
319,56.0,0.0,30.0,3.0,0.0
320,68.0,0.0,30.0,2.0,0.0
321,68.0,0.0,30.0,0.0,0.0
322,68.0,0.0,30.0,8.0,0.0
323,68.0,0.0,30.0,4.0,0.0
324,68.0,0.0,30.0,1.0,0.0
325,68.0,30.0,30.0,6.0,0.0
326,56.0,0.0,30.0,10.0,0.0
327,56.0,0.0,30.0,7.0,0.0
328,56.0,0.0,30.0,5.0,0.0
329,54.0,0.0,30.0,3.0,0.0
330,66.0,30.0,30.0,0.0,0.0
331,54.0,0.0,30.0,5.0,0.0
332,66.0,0.0,30.0,2.0,0.0
333,66.0,0.0,30.0,8.0,0.0
334,66.0,0.0,30.0,1.0,0.0
335,54.0,0.0,30.0,10.0,0.0
336,66.0,0.0,30.0,4.0,0.0
337,54.0,0.0,30.0,7.0,0.0
338,66.0,0.0,30.0,6.0,0.0
339,65.0,0.0,30.0,1.0,0.0
340,65.0,0.0,30.0,8.0,0.0
341,53.0,0.0,30.0,3.0,0.0
342,65.0,0.0,30.0,6.0,0.0
343,53.0,0.0,30.0,5.0,0.0
344,53.0,0.0,30.0,10.0,0.0
345,65.0,30.0,30.0,0.0,0.0
346,65.0,0.0,30.0,2.0,0.0
347,65.0,0.0,30.0,4.0,0.0
348,53.0,0.0,30.0,7.0,0.0
349,66.0,0.0,30.0,6.0,0.0
350,54.0,30.0,30.0,10.0,0.0
351,54.0,0.0,30.0,7.0,0.0
352,54.0,0.0,30.0,5.0,0.0
353,66.0,0.0,30.0,1.0,0.0
354,66.0,0.0,30.0,4.0,0.0
355,66.0,0.0,30.0,8.0,0.0
356,66.0,0.0,30.0,2.0,0.0
357,54.0,0.0,30.0,3.0,0.0
358,66.0,0.0,30.0,0.0,0.0
359,56.0,0.0,30.0,7.0,0.0
360,68.0,0.0,30.0,1.0,0.0
361,68.0,0.0,30.0,2.0,0.0
362,68.0,0.0,30.0,4.0,0.0
363,56.0,0.0,30.0,3.0,0.0
364,68.0,0.0,30.0,8.0,0.0
365,56.0,0.0,30.0,5.0,0.0
366,68.0,0.0,30.0,6.0,0.0
367,68.0,0.0,30.0,0.0,0.0
368,56.0,30.0,30.0,10.0,0.0
369,57.0,0.0,30.0,3.0,0.0
370,69.0,0.0,30.0,6.0,0.0
371,69.0,0.0,30.0,2.0,0.0
372,69.0,30.0,30.0,1.0,0.0
373,69.0,0.0,30.0,0.0,0.0
374,57.0,0.0,30.0,7.0,0.0
375,69.0,0.0,30.0,8.0,0.0
376,69.0,0.0,30.0,4.0,0.0
377,57.0,0.0,30.0,10.0,0.0
378,57.0,0.0,30.0,5.0,0.0
379,59.0,0.0,30.0,5.0,0.0
380,59.0,0.0,30.0,10.0,0.0
381,71.0,30.0,30.0,4.0,0.0
382,71.0,0.0,30.0,2.0,0.0
383,71.0,0.0,30.0,0.0,0.0
384,71.0,0.0,30.0,8.0,0.0
385,59.0,0.0,30.0,7.0,0.0
386,59.0,0.0,30.0,3.0,0.0
387,71.0,0.0,30.0,6.0,0.0
388,71.0,0.0,30.0,1.0,0.0
389,57.0,0.0,30.0,5.0,0.0
390,69.0,0.0,30.0,2.0,0.0
391,57.0,0.0,30.0,7.0,0.0
392,69.0,30.0,30.0,0.0,0.0
393,57.0,0.0,30.0,10.0,0.0
394,69.0,0.0,30.0,1.0,0.0
395,69.0,0.0,30.0,6.0,0.0
396,69.0,0.0,30.0,8.0,0.0
397,69.0,0.0,30.0,4.0,0.0
398,57.0,0.0,30.0,3.0,0.0
399,56.0,0.0,30.0,10.0,0.0
400,56.0,0.0,30.0,7.0,0.0
401,56.0,0.0,30.0,5.0,0.0
402,68.0,0.0,30.0,8.0,0.0
403,56.0,0.0,30.0,3.0,0.0
404,68.0,0.0,30.0,1.0,0.0
405,68.0,0.0,30.0,6.0,0.0
406,68.0,30.0,30.0,0.0,0.0
407,68.0,0.0,30.0,4.0,0.0
408,68.0,0.0,30.0,2.0,0.0
409,69.0,0.0,30.0,4.0,0.0
410,69.0,0.0,30.0,8.0,0.0
411,57.0,0.0,30.0,5.0,0.0
412,57.0,0.0,30.0,3.0,0.0
413,57.0,0.0,30.0,10.0,0.0
414,69.0,0.0,30.0,1.0,0.0
415,57.0,0.0,30.0,7.0,0.0
416,69.0,0.0,30.0,0.0,0.0
417,69.0,0.0,30.0,6.0,0.0
418,69.0,30.0,30.0,2.0,0.0
419,71.0,0.0,30.0,6.0,0.0
420,71.0,0.0,30.0,1.0,0.0
421,71.0,0.0,30.0,0.0,0.0
422,59.0,0.0,30.0,7.0,0.0
423,71.0,0.0,30.0,4.0,0.0
424,71.0,0.0,30.0,8.0,0.0
425,59.0,30.0,30.0,10.0,0.0
426,59.0,0.0,30.0,3.0,0.0
427,71.0,0.0,30.0,2.0,0.0
428,59.0,0.0,30.0,5.0,0.0
429,73.0,0.0,30.0,1.0,0.0
430,73.0,0.0,30.0,0.0,0.0
431,73.0,0.0,30.0,4.0,0.0
432,61.0,0.0,30.0,3.0,0.0
433,73.0,0.0,30.0,8.0,0.0
434,61.0,0.0,30.0,5.0,0.0
435,73.0,30.0,30.0,2.0,0.0
436,73.0,0.0,30.0,6.0,0.0
437,61.0,0.0,30.0,10.0,0.0
438,61.0,0.0,30.0,7.0,0.0
439,74.0,0.0,30.0,0.0,0.0
440,62.0,0.0,30.0,10.0,0.0
441,62.0,0.0,30.0,3.0,0.0
442,74.0,0.0,30.0,6.0,0.0
443,62.0,0.0,30.0,7.0,0.0
444,74.0,0.0,30.0,4.0,0.0
445,74.0,0.0,30.0,8.0,0.0
446,62.0,0.0,30.0,5.0,0.0
447,74.0,0.0,30.0,2.0,0.0
448,74.0,30.0,30.0,1.0,0.0
449,73.0,0.0,30.0,6.0,0.0
450,73.0,0.0,30.0,4.0,0.0
451,73.0,0.0,30.0,0.0,0.0
452,61.0,0.0,30.0,10.0,0.0
453,73.0,0.0,30.0,8.0,0.0
454,61.0,30.0,30.0,3.0,0.0
455,73.0,0.0,30.0,2.0,0.0
456,73.0,0.0,30.0,1.0,0.0
457,61.0,0.0,30.0,5.0,0.0
458,61.0,0.0,30.0,7.0,0.0
459,59.0,0.0,30.0,5.0,0.0
460,71.0,0.0,30.0,6.0,0.0
461,71.0,0.0,30.0,4.0,0.0
462,71.0,0.0,30.0,2.0,0.0
463,71.0,0.0,30.0,8.0,0.0
464,71.0,30.0,30.0,0.0,0.0
465,59.0,0.0,30.0,10.0,0.0
466,71.0,0.0,30.0,1.0,0.0
467,59.0,0.0,30.0,7.0,0.0
468,59.0,0.0,30.0,3.0,0.0
469,57.0,0.0,30.0,3.0,0.0
470,57.0,0.0,30.0,5.0,0.0
471,69.0,0.0,30.0,6.0,0.0
472,69.0,30.0,30.0,4.0,0.0
473,69.0,0.0,30.0,8.0,0.0
474,69.0,0.0,30.0,1.0,0.0
475,57.0,0.0,30.0,7.0,0.0
476,57.0,0.0,30.0,10.0,0.0
477,69.0,0.0,30.0,2.0,0.0
478,69.0,0.0,30.0,0.0,0.0
479,68.0,0.0,30.0,1.0,0.0
480,56.0,0.0,30.0,5.0,0.0
481,56.0,0.0,30.0,3.0,0.0
482,56.0,30.0,30.0,7.0,0.0
483,68.0,0.0,30.0,6.0,0.0
484,68.0,0.0,30.0,0.0,0.0
485,68.0,0.0,30.0,8.0,0.0
486,56.0,0.0,30.0,10.0,0.0
487,68.0,0.0,30.0,2.0,0.0
488,68.0,0.0,30.0,4.0,0.0
489,66.0,0.0,30.0,8.0,0.0
490,66.0,0.0,30.0,1.0,0.0
491,54.0,0.0,30.0,3.0,0.0
492,66.0,0.0,30.0,0.0,0.0
493,54.0,0.0,30.0,10.0,0.0
494,54.0,0.0,30.0,5.0,0.0
495,66.0,0.0,30.0,6.0,0.0
496,54.0,0.0,30.0,7.0,0.0
497,66.0,0.0,30.0,2.0,0.0
498,66.0,30.0,30.0,4.0,0.0
499,53.0,30.0,30.0,10.0,0.0
500,53.0,0.0,30.0,5.0,0.0
501,65.0,0.0,30.0,0.0,0.0
502,53.0,0.0,30.0,7.0,0.0
503,65.0,0.0,30.0,6.0,0.0
504,65.0,0.0,30.0,2.0,0.0
505,65.0,0.0,30.0,8.0,0.0
506,65.0,0.0,30.0,1.0,0.0
507,53.0,0.0,30.0,3.0,0.0
508,65.0,0.0,30.0,4.0,0.0
509,68.0,30.0,30.0,0.0,0.0
510,68.0,0.0,30.0,4.0,0.0
511,68.0,0.0,30.0,1.0,0.0
512,68.0,0.0,30.0,8.0,0.0
513,56.0,0.0,30.0,5.0,0.0
514,56.0,0.0,30.0,7.0,0.0
515,56.0,0.0,30.0,10.0,0.0
516,68.0,0.0,30.0,6.0,0.0
517,68.0,0.0,30.0,2.0,0.0
518,56.0,0.0,30.0,3.0,0.0
519,49.0,0.0,30.0,7.0,0.0
520,61.0,0.0,30.0,2.0,0.0
521,61.0,0.0,30.0,1.0,0.0
522,49.0,0.0,30.0,10.0,0.0
523,61.0,0.0,30.0,8.0,0.0
524,49.0,0.0,30.0,5.0,0.0
525,61.0,0.0,30.0,4.0,0.0
526,49.0,30.0,30.0,3.0,0.0
527,61.0,0.0,30.0,6.0,0.0
528,61.0,0.0,30.0,0.0,0.0
529,53.0,0.0,30.0,5.0,0.0
530,65.0,0.0,30.0,2.0,0.0
531,65.0,0.0,30.0,6.0,0.0
532,65.0,60.0,30.0,0.0,0.0
533,53.0,0.0,30.0,7.0,0.0
534,65.0,0.0,30.0,8.0,0.0
535,65.0,0.0,30.0,4.0,0.0
536,53.0,0.0,30.0,3.0,0.0
537,65.0,0.0,30.0,1.0,0.0
538,53.0,0.0,30.0,10.0,0.0
539,54.0,0.0,60.0,10.0,0.0
540,54.0,0.0,60.0,7.0,0.0
541,66.0,0.0,60.0,4.0,0.0
542,66.0,0.0,60.0,8.0,0.0
543,66.0,0.0,60.0,2.0,0.0
544,54.0,0.0,60.0,5.0,0.0
545,66.0,0.0,60.0,6.0,0.0
546,66.0,0.0,60.0,0.0,0.0
547,54.0,60.0,60.0,3.0,0.0
548,66.0,0.0,60.0,1.0,0.0
549,59.0,0.0,30.0,0.0,0.0
550,59.0,60.0,30.0,6.0,0.0
551,59.0,0.0,30.0,2.0,0.0
552,47.0,0.0,30.0,7.0,0.0
553,47.0,0.0,30.0,5.0,0.0
554,59.0,0.0,30.0,4.0,0.0
555,59.0,0.0,30.0,1.0,0.0
556,47.0,0.0,30.0,10.0,0.0
557,47.0,0.0,30.0,3.0,0.0
558,59.0,0.0,30.0,8.0,0.0
559,49.0,0.0,60.0,5.0,0.0
560,61.0,0.0,60.0,1.0,0.0
561,61.0,0.0,60.0,4.0,0.0
562,61.0,0.0,15.0,0.0,0.0
563,61.0,0.0,15.0,2.0,0.0
564,61.0,0.0,15.0,6.0,0.0
565,61.0,0.0,60.0,1.0,0.0
566,61.0,0.0,60.0,4.0,0.0
567,49.0,0.0,15.0,7.0,0.0
568,61.0,60.0,15.0,8.0,0.0
569,49.0,0.0,15.0,3.0,0.0
570,49.0,0.0,15.0,10.0,0.0
571,49.0,0.0,60.0,5.0,0.0
572,42.0,0.0,60.0,7.0,0.0
573,54.0,0.0,60.0,5.0,0.0
574,66.0,0.0,60.0,1.0,0.0
575,42.0,0.0,60.0,5.0,0.0
576,42.0,0.0,60.0,3.0,0.0
577,54.0,0.0,60.0,7.0,0.0
578,54.0,30.0,60.0,10.0,0.0
579,66.0,0.0,60.0,2.0,0.0
580,42.0,0.0,60.0,10.0,0.0
581,66.0,0.0,60.0,0.0,0.0
582,66.0,0.0,30.0,6.0,0.0
583,78.0,0.0,60.0,0.0,0.0
584,78.0,15.0,60.0,4.0,0.0
585,69.0,30.0,30.0,6.0,0.0
586,73.0,0.0,30.0,6.0,0.0
587,78.0,0.0,30.0,6.0,0.0
588,80.0,0.0,60.0,0.0,0.0
589,81.0,15.0,15.0,4.0,0.0
590,80.0,15.0,15.0,4.0,0.0
591,77.0,0.0,30.0,6.0,0.0
592,78.0,15.0,15.0,4.0,0.0
593,80.0,60.0,15.0,4.0,0.0
594,81.0,0.0,60.0,4.0,0.0
595,78.0,0.0,60.0,6.0,0.0
596,66.0,0.0,30.0,8.0,0.0
597,54.0,0.0,60.0,5.0,0.0
598,69.0,30.0,30.0,8.0,0.0
599,78.0,15.0,60.0,1.0,0.0
600,54.0,0.0,60.0,7.0,0.0
601,81.0,30.0,15.0,0.0,0.0
602,54.0,0.0,60.0,3.0,0.0
603,73.0,0.0,60.0,6.0,0.0
604,69.0,0.0,60.0,6.0,0.0
605,73.0,0.0,60.0,2.0,0.0
606,81.0,0.0,60.0,4.0,0.0
607,54.0,0.0,60.0,10.0,0.0
608,73.0,0.0,30.0,8.0,0.0
609,56.0,0.0,60.0,3.0,0.0
610,68.0,0.0,60.0,6.0,0.0
611,71.0,0.0,60.0,6.0,0.0
612,56.0,0.0,60.0,5.0,0.0
613,78.0,0.0,30.0,8.0,0.0
614,85.0,15.0,15.0,4.0,0.0
615,56.0,0.0,60.0,10.0,0.0
616,77.0,0.0,60.0,1.0,0.0
617,83.0,0.0,60.0,0.0,0.0
618,56.0,30.0,60.0,7.0,0.0
619,68.0,0.0,60.0,2.0,0.0
620,83.0,15.0,15.0,4.0,0.0
621,77.0,0.0,30.0,8.0,0.0
622,81.0,15.0,15.0,4.0,0.0
623,83.0,0.0,15.0,4.0,0.0
624,57.0,0.0,60.0,3.0,0.0
625,66.0,0.0,60.0,2.0,0.0
626,57.0,0.0,60.0,5.0,0.0
627,85.0,0.0,60.0,4.0,0.0
628,66.0,0.0,60.0,6.0,0.0
629,69.0,30.0,30.0,6.0,0.0
630,78.0,0.0,60.0,1.0,0.0
631,78.0,0.0,30.0,8.0,0.0
632,57.0,0.0,60.0,7.0,0.0
633,76.0,0.0,30.0,8.0,0.0
634,73.0,0.0,30.0,6.0,0.0
635,78.0,0.0,60.0,2.0,0.0
636,57.0,30.0,60.0,7.0,0.0
637,85.0,0.0,60.0,4.0,0.0
638,71.0,30.0,30.0,6.0,0.0
639,57.0,0.0,60.0,5.0,0.0
640,74.0,0.0,30.0,8.0,0.0
641,85.0,0.0,15.0,0.0,0.0
642,57.0,0.0,60.0,3.0,0.0
643,66.0,0.0,60.0,1.0,0.0
644,57.0,30.0,15.0,10.0,0.0
645,73.0,0.0,30.0,8.0,0.0
646,69.0,0.0,30.0,6.0,0.0
647,59.0,0.0,60.0,7.0,0.0
648,68.0,30.0,30.0,6.0,0.0
649,86.0,0.0,60.0,4.0,0.0
650,59.0,0.0,60.0,3.0,0.0
651,71.0,0.0,30.0,8.0,0.0
652,66.0,30.0,60.0,2.0,0.0
653,86.0,0.0,60.0,0.0,0.0
654,59.0,0.0,60.0,5.0,0.0
655,71.0,0.0,60.0,1.0,0.0
656,59.0,0.0,60.0,10.0,0.0
657,66.0,0.0,30.0,6.0,0.0
658,69.0,0.0,30.0,8.0,0.0
659,68.0,0.0,60.0,8.0,0.0
660,68.0,30.0,60.0,1.0,0.0
661,85.0,0.0,60.0,0.0,0.0
662,65.0,30.0,30.0,6.0,0.0
663,61.0,0.0,60.0,3.0,0.0
664,65.0,0.0,60.0,2.0,0.0
665,85.0,0.0,60.0,4.0,0.0
666,63.0,0.0,30.0,6.0,0.0
667,61.0,0.0,15.0,5.0,0.0
668,83.0,0.0,30.0,0.0,0.0
669,61.0,0.0,15.0,7.0,0.0
670,61.0,0.0,60.0,3.0,0.0
671,83.0,0.0,30.0,4.0,0.0
672,65.0,30.0,30.0,6.0,0.0
673,61.0,0.0,15.0,10.0,0.0
674,65.0,0.0,60.0,2.0,0.0
675,73.0,0.0,60.0,1.0,0.0
676,81.0,0.0,30.0,0.0,0.0
677,81.0,0.0,30.0,4.0,0.0
678,66.0,0.0,30.0,6.0,0.0
679,62.0,0.0,60.0,7.0,0.0
680,66.0,0.0,60.0,2.0,0.0
681,65.0,15.0,30.0,6.0,0.0
682,71.0,0.0,60.0,1.0,0.0
683,80.0,0.0,30.0,4.0,0.0
684,80.0,0.0,30.0,0.0,0.0
685,62.0,0.0,60.0,3.0,0.0
686,62.0,0.0,60.0,5.0,0.0
687,73.0,0.0,15.0,8.0,0.0
688,62.0,0.0,60.0,10.0,0.0
689,71.0,0.0,15.0,8.0,0.0
690,78.0,30.0,30.0,0.0,0.0
691,78.0,0.0,30.0,4.0,0.0
692,66.0,0.0,30.0,6.0,0.0
693,73.0,15.0,15.0,8.0,0.0
694,71.0,0.0,15.0,8.0,0.0
695,68.0,0.0,30.0,6.0,0.0
696,77.0,30.0,30.0,0.0,0.0
697,73.0,0.0,60.0,8.0,0.0
698,61.0,0.0,60.0,5.0,0.0
699,61.0,0.0,60.0,10.0,0.0
700,77.0,0.0,30.0,4.0,0.0
701,61.0,0.0,60.0,3.0,0.0
702,61.0,0.0,60.0,7.0,0.0
703,75.0,0.0,30.0,4.0,0.0
704,75.0,0.0,30.0,0.0,0.0
705,69.0,30.0,30.0,6.0,0.0
706,73.0,0.0,30.0,4.0,0.0
707,68.0,0.0,15.0,2.0,0.0
708,59.0,0.0,30.0,5.0,0.0
709,59.0,0.0,30.0,7.0,0.0
710,73.0,0.0,15.0,1.0,0.0
711,59.0,0.0,30.0,10.0,0.0
712,73.0,0.0,30.0,0.0,0.0
713,68.0,30.0,30.0,6.0,0.0
714,59.0,0.0,30.0,3.0,0.0
715,65.0,0.0,30.0,8.0,0.0
716,57.0,0.0,30.0,5.0,0.0
717,75.0,0.0,30.0,0.0,0.0
718,57.0,0.0,30.0,10.0,0.0
719,57.0,0.0,30.0,3.0,0.0
720,75.0,30.0,30.0,4.0,0.0
721,57.0,0.0,30.0,7.0,0.0
722,66.0,0.0,30.0,8.0,0.0
723,66.0,0.0,30.0,6.0,0.0
724,68.0,0.0,30.0,8.0,0.0
725,56.0,0.0,30.0,5.0,0.0
726,56.0,0.0,30.0,3.0,0.0
727,73.0,0.0,15.0,1.0,0.0
728,56.0,0.0,30.0,10.0,0.0
729,56.0,0.0,30.0,7.0,0.0
730,77.0,0.0,30.0,0.0,0.0
731,65.0,30.0,30.0,6.0,0.0
732,77.0,0.0,30.0,4.0,0.0
733,54.0,0.0,30.0,10.0,0.0
734,69.0,0.0,30.0,8.0,0.0
735,78.0,0.0,30.0,4.0,0.0
736,54.0,0.0,30.0,5.0,0.0
737,63.0,0.0,30.0,6.0,0.0
738,54.0,0.0,30.0,3.0,0.0
739,54.0,0.0,30.0,7.0,0.0
740,78.0,30.0,30.0,0.0,0.0
741,53.0,0.0,60.0,3.0,0.0
742,61.0,0.0,60.0,6.0,0.0
743,68.0,0.0,15.0,2.0,0.0
744,73.0,0.0,60.0,1.0,0.0
745,71.0,30.0,30.0,8.0,0.0
746,80.0,0.0,60.0,4.0,0.0
747,53.0,0.0,60.0,5.0,0.0
748,80.0,0.0,60.0,0.0,0.0
749,53.0,0.0,60.0,7.0,0.0
750,53.0,30.0,60.0,10.0,0.0
751,73.0,0.0,30.0,8.0,0.0
752,49.0,30.0,60.0,5.0,0.0
753,77.0,0.0,60.0,1.0,0.0
754,80.0,0.0,60.0,4.0,0.0
755,77.0,0.0,60.0,6.0,0.0
756,71.0,0.0,60.0,6.0,0.0
757,49.0,0.0,60.0,7.0,0.0
758,49.0,0.0,60.0,3.0,0.0
759,71.0,30.0,30.0,8.0,0.0
760,49.0,0.0,60.0,10.0,0.0
761,80.0,0.0,60.0,0.0,0.0
762,69.0,0.0,30.0,8.0,0.0
763,54.0,0.0,60.0,7.0,0.0
764,54.0,0.0,60.0,10.0,0.0
765,78.0,0.0,60.0,6.0,0.0
766,73.0,0.0,15.0,6.0,0.0
767,69.0,0.0,60.0,6.0,0.0
768,81.0,0.0,60.0,4.0,0.0
769,68.0,30.0,30.0,8.0,0.0
770,54.0,0.0,60.0,3.0,0.0
771,78.0,0.0,60.0,1.0,0.0
772,73.0,0.0,15.0,2.0,0.0
773,81.0,0.0,60.0,0.0,0.0
774,54.0,0.0,60.0,5.0,0.0
775,66.0,0.0,30.0,8.0,0.0
776,65.0,30.0,30.0,8.0,0.0
777,80.0,0.0,60.0,4.0,0.0
778,49.0,0.0,60.0,10.0,0.0
779,80.0,0.0,60.0,0.0,0.0
780,49.0,0.0,60.0,7.0,0.0
781,49.0,0.0,60.0,5.0,0.0
782,73.0,0.0,60.0,6.0,0.0
783,77.0,0.0,60.0,6.0,0.0
784,49.0,0.0,60.0,3.0,0.0
785,80.0,30.0,60.0,1.0,0.0
786,80.0,0.0,60.0,6.0,0.0
787,80.0,0.0,60.0,2.0,0.0
788,63.0,0.0,30.0,8.0,0.0
789,53.0,0.0,60.0,7.0,0.0
790,61.0,0.0,30.0,6.0,0.0
791,61.0,0.0,30.0,2.0,0.0
792,53.0,0.0,60.0,10.0,0.0
793,61.0,0.0,30.0,1.0,0.0
794,61.0,0.0,30.0,4.0,0.0
795,53.0,0.0,60.0,5.0,0.0
796,61.0,0.0,30.0,0.0,0.0
797,53.0,0.0,60.0,3.0,0.0
798,61.0,30.0,30.0,8.0,0.0
799,63.0,0.0,30.0,8.0,0.0
800,63.0,0.0,30.0,2.0,0.0
801,63.0,0.0,30.0,6.0,0.0
802,63.0,30.0,30.0,0.0,0.0
803,63.0,0.0,30.0,4.0,0.0
804,63.0,0.0,30.0,1.0,0.0
805,65.0,0.0,30.0,8.0,0.0
806,65.0,0.0,30.0,2.0,0.0
807,65.0,30.0,30.0,1.0,0.0
808,65.0,0.0,30.0,6.0,0.0
809,56.0,0.0,60.0,7.0,0.0
810,56.0,0.0,60.0,3.0,0.0
811,56.0,0.0,60.0,5.0,0.0
812,65.0,0.0,30.0,4.0,0.0
813,56.0,60.0,60.0,10.0,0.0
814,65.0,0.0,30.0,0.0,0.0
815,66.0,0.0,30.0,6.0,0.0
816,66.0,0.0,30.0,4.0,0.0
817,66.0,0.0,30.0,0.0,0.0
818,66.0,0.0,30.0,8.0,0.0
819,66.0,0.0,30.0,1.0,0.0
820,66.0,0.0,30.0,2.0,0.0
821,61.0,0.0,60.0,10.0,0.0
822,68.0,0.0,60.0,1.0,0.0
823,61.0,0.0,60.0,5.0,0.0
824,61.0,0.0,60.0,3.0,0.0
825,61.0,0.0,60.0,7.0,0.0
826,61.0,0.0,60.0,8.0,0.0
827,68.0,0.0,15.0,8.0,0.0
828,65.0,0.0,60.0,3.0,0.0
829,59.0,0.0,30.0,10.0,0.0
830,59.0,0.0,30.0,5.0,0.0
831,65.0,0.0,60.0,8.0,0.0
832,59.0,30.0,30.0,7.0,0.0
833,65.0,0.0,60.0,6.0,0.0
834,68.0,0.0,60.0,1.0,0.0
835,68.0,0.0,15.0,0.0,0.0
836,68.0,0.0,15.0,6.0,0.0
837,61.0,0.0,60.0,6.0,0.0
838,68.0,0.0,15.0,4.0,0.0
839,65.0,0.0,60.0,4.0,0.0
840,68.0,30.0,15.0,2.0,0.0
841,57.0,0.0,30.0,10.0,0.0
842,57.0,0.0,30.0,5.0,0.0
843,57.0,0.0,30.0,7.0,0.0
844,66.0,0.0,60.0,3.0,0.0
845,66.0,0.0,60.0,6.0,0.0
846,56.0,0.0,30.0,7.0,0.0
847,61.0,0.0,15.0,4.0,0.0
848,66.0,0.0,60.0,4.0,0.0
849,61.0,0.0,60.0,8.0,0.0
850,69.0,0.0,60.0,8.0,0.0
851,56.0,30.0,30.0,10.0,0.0
852,69.0,0.0,60.0,1.0,0.0
853,56.0,0.0,30.0,5.0,0.0
854,66.0,0.0,60.0,8.0,0.0
855,69.0,0.0,60.0,4.0,0.0
856,61.0,0.0,60.0,6.0,0.0
857,69.0,0.0,60.0,0.0,0.0
858,69.0,0.0,60.0,2.0,0.0
859,69.0,0.0,60.0,6.0,0.0
860,54.0,0.0,30.0,5.0,0.0
861,54.0,0.0,30.0,7.0,0.0
862,54.0,0.0,30.0,10.0,0.0
863,61.0,30.0,60.0,7.0,0.0
864,68.0,0.0,60.0,1.0,0.0
865,61.0,0.0,60.0,10.0,0.0
866,65.0,0.0,60.0,8.0,0.0
867,68.0,0.0,60.0,8.0,0.0
868,68.0,0.0,60.0,2.0,0.0
869,61.0,0.0,60.0,5.0,0.0
870,63.0,0.0,60.0,6.0,0.0
871,68.0,0.0,60.0,6.0,0.0
872,65.0,0.0,60.0,4.0,0.0
873,68.0,0.0,60.0,0.0,0.0
874,68.0,30.0,30.0,4.0,0.0
875,73.0,0.0,30.0,4.0,0.0
876,61.0,0.0,15.0,3.0,0.0
877,76.0,30.0,30.0,4.0,0.0
878,73.0,15.0,60.0,1.0,0.0
879,73.0,0.0,60.0,6.0,0.0
880,80.0,0.0,30.0,4.0,0.0
881,85.0,15.0,30.0,4.0,0.0
882,75.0,0.0,60.0,1.0,0.0
883,76.0,15.0,15.0,6.0,0.0
884,61.0,0.0,60.0,3.0,0.0
885,75.0,0.0,15.0,6.0,0.0
886,84.0,0.0,30.0,4.0,0.0
887,73.0,15.0,15.0,6.0,0.0
888,75.0,60.0,15.0,6.0,0.0
889,61.0,0.0,60.0,3.0,0.0
890,85.0,0.0,60.0,4.0,0.0
891,73.0,0.0,30.0,8.0,0.0
892,76.0,0.0,15.0,6.0,0.0
893,61.0,0.0,60.0,5.0,0.0
894,49.0,15.0,60.0,3.0,0.0
895,68.0,0.0,60.0,2.0,0.0
896,76.0,30.0,30.0,8.0,0.0
897,76.0,30.0,15.0,1.0,0.0
898,76.0,0.0,60.0,4.0,0.0
899,61.0,0.0,60.0,10.0,0.0
900,80.0,0.0,60.0,4.0,0.0
901,85.0,0.0,60.0,0.0,0.0
902,49.0,0.0,60.0,7.0,0.0
903,80.0,0.0,30.0,8.0,0.0
904,84.0,0.0,60.0,0.0,0.0
905,78.0,0.0,60.0,4.0,0.0
906,51.0,0.0,60.0,7.0,0.0
907,75.0,0.0,60.0,4.0,0.0
908,75.0,30.0,60.0,2.0,0.0
909,80.0,15.0,15.0,6.0,0.0
910,63.0,0.0,60.0,10.0,0.0
911,63.0,0.0,60.0,5.0,0.0
912,85.0,0.0,30.0,8.0,0.0
913,51.0,0.0,60.0,3.0,0.0
914,78.0,0.0,60.0,1.0,0.0
915,78.0,15.0,15.0,6.0,0.0
916,76.0,15.0,15.0,6.0,0.0
917,84.0,0.0,30.0,8.0,0.0
918,78.0,0.0,15.0,6.0,0.0
919,85.0,0.0,60.0,0.0,0.0
920,76.0,0.0,30.0,4.0,0.0
921,80.0,0.0,60.0,6.0,0.0
922,73.0,0.0,60.0,4.0,0.0
923,52.0,0.0,60.0,3.0,0.0
924,64.0,0.0,60.0,5.0,0.0
925,85.0,30.0,30.0,8.0,0.0
926,80.0,0.0,30.0,4.0,0.0
927,83.0,0.0,30.0,8.0,0.0
928,52.0,0.0,15.0,7.0,0.0
929,80.0,0.0,60.0,6.0,0.0
930,73.0,0.0,60.0,0.0,0.0
931,80.0,0.0,15.0,1.0,0.0
932,64.0,0.0,60.0,5.0,0.0
933,52.0,0.0,60.0,3.0,0.0
934,64.0,0.0,15.0,10.0,0.0
935,73.0,30.0,15.0,2.0,0.0
936,81.0,0.0,30.0,8.0,0.0
937,78.0,30.0,30.0,4.0,0.0
938,80.0,0.0,30.0,8.0,0.0
939,76.0,30.0,30.0,4.0,0.0
940,81.0,0.0,60.0,6.0,0.0
941,54.0,0.0,60.0,7.0,0.0
942,66.0,30.0,60.0,10.0,0.0
943,54.0,0.0,60.0,3.0,0.0
944,81.0,0.0,60.0,1.0,0.0
945,66.0,0.0,60.0,5.0,0.0
946,75.0,0.0,30.0,4.0,0.0
947,73.0,0.0,15.0,2.0,0.0
948,78.0,0.0,60.0,0.0,0.0
949,78.0,30.0,30.0,8.0,0.0
950,73.0,0.0,30.0,4.0,0.0
951,76.0,0.0,30.0,8.0,0.0
952,75.0,0.0,60.0,8.0,0.0
953,72.0,30.0,60.0,2.0,0.0
954,72.0,30.0,30.0,4.0,0.0
955,75.0,0.0,60.0,0.0,0.0
956,80.0,0.0,60.0,6.0,0.0
957,80.0,0.0,60.0,1.0,0.0
958,56.0,0.0,60.0,3.0,0.0
959,70.0,0.0,30.0,4.0,0.0
960,80.0,0.0,60.0,8.0,0.0
961,56.0,0.0,60.0,3.0,0.0
962,68.0,0.0,15.0,10.0,0.0
963,56.0,0.0,15.0,7.0,0.0
964,72.0,0.0,30.0,4.0,0.0
965,80.0,0.0,60.0,0.0,0.0
966,68.0,0.0,15.0,5.0,0.0
967,72.0,0.0,60.0,2.0,0.0
968,78.0,30.0,30.0,6.0,0.0
969,78.0,0.0,30.0,1.0,0.0
970,73.0,0.0,30.0,4.0,0.0
971,76.0,15.0,30.0,1.0,0.0
972,76.0,0.0,30.0,6.0,0.0
973,78.0,0.0,60.0,0.0,0.0
974,57.0,0.0,60.0,3.0,0.0
975,75.0,0.0,30.0,6.0,0.0
976,69.0,0.0,60.0,5.0,0.0
977,73.0,0.0,60.0,2.0,0.0
978,72.0,0.0,30.0,4.0,0.0
979,57.0,30.0,60.0,7.0,0.0
980,69.0,0.0,60.0,10.0,0.0
981,80.0,15.0,15.0,8.0,0.0
982,75.0,15.0,30.0,1.0,0.0
983,78.0,0.0,15.0,8.0,0.0
984,73.0,0.0,30.0,1.0,0.0
985,76.0,15.0,15.0,8.0,0.0
986,73.0,0.0,30.0,6.0,0.0
987,73.0,0.0,30.0,4.0,0.0
988,78.0,0.0,15.0,8.0,0.0
989,75.0,0.0,30.0,4.0,0.0
990,56.0,0.0,60.0,7.0,0.0
991,72.0,0.0,30.0,1.0,0.0
992,80.0,0.0,60.0,8.0,0.0
993,75.0,0.0,60.0,2.0,0.0
994,68.0,0.0,60.0,5.0,0.0
995,56.0,0.0,60.0,3.0,0.0
996,68.0,0.0,60.0,10.0,0.0
997,72.0,30.0,30.0,6.0,0.0
998,76.0,0.0,30.0,4.0,0.0
999,70.0,30.0,30.0,1.0,0.0
1000,70.0,0.0,30.0,6.0,0.0
1001,54.0,0.0,30.0,7.0,0.0
1002,75.0,0.0,30.0,4.0,0.0
1003,68.0,0.0,30.0,6.0,0.0
1004,54.0,30.0,30.0,3.0,0.0
1005,68.0,0.0,30.0,1.0,0.0
1006,66.0,0.0,30.0,10.0,0.0
1007,72.0,0.0,30.0,8.0,0.0
1008,80.0,0.0,15.0,0.0,0.0
1009,66.0,0.0,30.0,5.0,0.0
1010,75.0,0.0,60.0,2.0,0.0
1011,73.0,0.0,30.0,8.0,0.0
1012,70.0,0.0,30.0,6.0,0.0
1013,70.0,0.0,30.0,1.0,0.0
1014,64.0,0.0,30.0,10.0,0.0
1015,52.0,30.0,30.0,3.0,0.0
1016,52.0,0.0,30.0,7.0,0.0
1017,73.0,0.0,30.0,4.0,0.0
1018,64.0,0.0,30.0,5.0,0.0
1019,80.0,0.0,15.0,0.0,0.0
1020,72.0,0.0,30.0,1.0,0.0
1021,63.0,30.0,30.0,5.0,0.0
1022,51.0,0.0,30.0,7.0,0.0
1023,63.0,0.0,30.0,10.0,0.0
1024,51.0,0.0,30.0,3.0,0.0
1025,75.0,0.0,30.0,8.0,0.0
1026,72.0,0.0,30.0,4.0,0.0
1027,72.0,0.0,30.0,6.0,0.0
1028,75.0,0.0,60.0,2.0,0.0
1029,76.0,0.0,30.0,8.0,0.0
1030,49.0,0.0,30.0,7.0,0.0
1031,73.0,0.0,30.0,6.0,0.0
1032,61.0,0.0,30.0,10.0,0.0
1033,49.0,0.0,30.0,3.0,0.0
1034,70.0,0.0,30.0,4.0,0.0
1035,73.0,30.0,30.0,1.0,0.0
1036,61.0,0.0,30.0,5.0,0.0
1037,60.0,0.0,60.0,10.0,0.0
1038,78.0,30.0,30.0,8.0,0.0
1039,60.0,0.0,60.0,5.0,0.0
1040,48.0,0.0,60.0,3.0,0.0
1041,80.0,30.0,60.0,0.0,0.0
1042,68.0,0.0,60.0,4.0,0.0
1043,48.0,0.0,60.0,7.0,0.0
1044,68.0,0.0,60.0,2.0,0.0
1045,80.0,0.0,30.0,8.0,0.0
1046,75.0,0.0,15.0,1.0,0.0
1047,44.0,0.0,60.0,3.0,0.0
1048,72.0,0.0,60.0,6.0,0.0
1049,75.0,0.0,15.0,6.0,0.0
1050,56.0,0.0,60.0,5.0,0.0
1051,84.0,0.0,60.0,4.0,0.0
1052,56.0,0.0,60.0,10.0,0.0
1053,44.0,0.0,60.0,7.0,0.0
1054,78.0,30.0,30.0,8.0,0.0
1055,84.0,0.0,60.0,0.0,0.0
1056,68.0,0.0,60.0,2.0,0.0
1057,76.0,0.0,30.0,8.0,0.0
1058,49.0,0.0,60.0,7.0,0.0
1059,61.0,30.0,60.0,5.0,0.0
1060,87.0,15.0,15.0,4.0,0.0
1061,49.0,0.0,60.0,3.0,0.0
1062,85.0,0.0,60.0,0.0,0.0
1063,61.0,0.0,60.0,10.0,0.0
1064,76.0,0.0,60.0,6.0,0.0
1065,75.0,15.0,30.0,8.0,0.0
1066,76.0,0.0,60.0,1.0,0.0
1067,68.0,0.0,60.0,6.0,0.0
1068,85.0,0.0,15.0,4.0,0.0
1069,73.0,0.0,30.0,8.0,0.0
1070,84.0,15.0,15.0,4.0,0.0
1071,85.0,0.0,15.0,4.0,0.0
1072,72.0,0.0,60.0,8.0,0.0
1073,87.0,0.0,60.0,0.0,0.0
1074,68.0,0.0,15.0,2.0,0.0
1075,44.0,0.0,60.0,7.0,0.0
1076,87.0,15.0,60.0,4.0,0.0
1077,44.0,0.0,60.0,3.0,0.0
1078,56.0,0.0,60.0,10.0,0.0
1079,75.0,0.0,60.0,1.0,0.0
1080,72.0,0.0,30.0,6.0,0.0
1081,75.0,30.0,30.0,6.0,0.0
1082,68.0,0.0,30.0,5.0,0.0
1083,69.0,0.0,30.0,5.0,0.0
1084,68.0,0.0,30.0,6.0,0.0
1085,80.0,0.0,60.0,4.0,0.0
1086,80.0,0.0,60.0,0.0,0.0
1087,72.0,0.0,60.0,4.0,0.0
1088,73.0,15.0,15.0,8.0,0.0
1089,68.0,15.0,30.0,5.0,0.0
1090,56.0,0.0,60.0,3.0,0.0
1091,72.0,0.0,30.0,6.0,0.0
1092,63.0,0.0,60.0,2.0,0.0
1093,68.0,0.0,60.0,10.0,0.0
1094,72.0,0.0,60.0,1.0,0.0
1095,63.0,0.0,60.0,7.0,0.0
1096,72.0,0.0,15.0,8.0,0.0
1097,73.0,15.0,15.0,8.0,0.0
1098,75.0,0.0,30.0,6.0,0.0
1099,66.0,0.0,30.0,5.0,0.0
1100,72.0,15.0,15.0,8.0,0.0
1101,75.0,0.0,15.0,4.0,0.0
1102,80.0,0.0,30.0,6.0,0.0
1103,44.0,0.0,60.0,3.0,0.0
1104,60.0,0.0,60.0,7.0,0.0
1105,64.0,15.0,30.0,5.0,0.0
1106,56.0,0.0,60.0,10.0,0.0
1107,73.0,15.0,15.0,8.0,0.0
1108,72.0,0.0,15.0,8.0,0.0
1109,70.0,15.0,15.0,8.0,0.0
1110,78.0,0.0,30.0,6.0,0.0
1111,63.0,0.0,30.0,5.0,0.0
1112,72.0,0.0,15.0,8.0,0.0
1113,56.0,15.0,60.0,7.0,0.0
1114,73.0,0.0,60.0,1.0,0.0
1115,49.0,0.0,60.0,3.0,0.0
1116,61.0,0.0,60.0,5.0,0.0
1117,64.0,0.0,60.0,2.0,0.0
1118,61.0,0.0,30.0,10.0,0.0
1119,73.0,0.0,60.0,8.0,0.0
1120,80.0,0.0,60.0,0.0,0.0
1121,76.0,0.0,30.0,4.0,0.0
1122,80.0,0.0,15.0,4.0,0.0
1123,68.0,30.0,15.0,4.0,0.0
1124,76.0,0.0,60.0,6.0,0.0
1125,62.0,0.0,30.0,10.0,0.0
1126,73.0,0.0,30.0,4.0,0.0
1127,77.0,0.0,60.0,0.0,0.0
1128,78.0,15.0,15.0,6.0,0.0
1129,77.0,0.0,30.0,4.0,0.0
1130,61.0,0.0,60.0,7.0,0.0
1131,68.0,0.0,60.0,1.0,0.0
1132,68.0,0.0,60.0,5.0,0.0
1133,61.0,0.0,60.0,2.0,0.0
1134,65.0,0.0,60.0,8.0,0.0
1135,68.0,0.0,60.0,8.0,0.0
1136,73.0,0.0,60.0,8.0,0.0
1137,61.0,0.0,60.0,3.0,0.0
1138,61.0,15.0,30.0,10.0,0.0
1139,77.0,0.0,15.0,6.0,0.0
1140,59.0,15.0,30.0,10.0,0.0
1141,78.0,15.0,15.0,6.0,0.0
1142,80.0,0.0,30.0,4.0,0.0
1143,77.0,0.0,15.0,6.0,0.0
1144,49.0,0.0,60.0,7.0,0.0
1145,49.0,0.0,60.0,3.0,0.0
1146,65.0,29.0,60.0,5.0,0.0
1147,85.0,0.0,30.0,4.0,0.0
1148,73.0,0.0,60.0,8.0,0.0
1149,68.0,0.0,60.0,8.0,0.0
1150,78.0,15.0,15.0,6.0,0.0
1151,57.0,0.0,30.0,10.0,0.0
1152,77.0,15.0,15.0,6.0,0.0
1153,75.0,15.0,15.0,6.0,0.0
1154,83.0,0.0,30.0,4.0,0.0
1155,56.0,0.0,30.0,10.0,0.0
1156,77.0,0.0,15.0,6.0,0.0
1157,78.0,15.0,60.0,1.0,0.0
1158,78.0,0.0,60.0,6.0,0.0
1159,66.0,0.0,30.0,7.0,0.0
1160,69.0,30.0,30.0,8.0,0.0
1161,61.0,0.0,15.0,8.0,0.0
1162,73.0,0.0,30.0,8.0,0.0
1163,54.0,0.0,60.0,10.0,0.0
1164,81.0,0.0,60.0,4.0,0.0
1165,69.0,0.0,60.0,2.0,0.0
1166,42.0,0.0,60.0,3.0,0.0
1167,85.0,0.0,60.0,0.0,0.0
1168,61.0,0.0,60.0,5.0,0.0
1169,68.0,0.0,30.0,7.0,0.0
1170,66.0,0.0,30.0,8.0,0.0
1171,78.0,0.0,60.0,6.0,0.0
1172,78.0,0.0,60.0,0.0,0.0
1173,54.0,0.0,60.0,3.0,0.0
1174,66.0,0.0,60.0,5.0,0.0
1175,66.0,0.0,30.0,7.0,0.0
1176,73.0,0.0,60.0,6.0,0.0
1177,82.0,15.0,15.0,4.0,0.0
1178,61.0,0.0,60.0,10.0,0.0
1179,70.0,15.0,30.0,8.0,0.0
1180,70.0,0.0,60.0,6.0,0.0
1181,70.0,0.0,60.0,1.0,0.0
1182,73.0,0.0,60.0,2.0,0.0
1183,83.0,0.0,15.0,4.0,0.0
1184,64.0,0.0,30.0,7.0,0.0
1185,82.0,15.0,15.0,4.0,0.0
1186,73.0,15.0,30.0,8.0,0.0
1187,83.0,0.0,15.0,4.0,0.0
1188,54.0,0.0,60.0,5.0,0.0
1189,78.0,0.0,30.0,8.0,0.0
1190,58.0,0.0,60.0,10.0,0.0
1191,42.0,0.0,60.0,3.0,0.0
1192,73.0,0.0,60.0,6.0,0.0
1193,82.0,15.0,15.0,4.0,0.0
1194,78.0,0.0,60.0,6.0,0.0
1195,63.0,15.0,30.0,7.0,0.0
1196,66.0,0.0,60.0,6.0,0.0
1197,83.0,0.0,15.0,4.0,0.0
1198,61.0,0.0,30.0,7.0,0.0
1199,80.0,15.0,15.0,4.0,0.0
1200,76.0,0.0,30.0,8.0,0.0
1201,82.0,30.0,15.0,4.0,0.0
1202,74.0,0.0,60.0,8.0,0.0
1203,71.0,30.0,30.0,5.0,0.0
1204,66.0,0.0,30.0,6.0,0.0
1205,78.0,0.0,30.0,6.0,0.0
1206,74.0,0.0,30.0,6.0,0.0
1207,71.0,15.0,60.0,1.0,0.0
1208,62.0,0.0,60.0,2.0,0.0
1209,59.0,0.0,60.0,7.0,0.0
1210,78.0,0.0,60.0,0.0,0.0
1211,54.0,0.0,60.0,10.0,0.0
1212,83.0,0.0,60.0,4.0,0.0
1213,47.0,0.0,60.0,3.0,0.0
1214,71.0,0.0,30.0,6.0,0.0
1215,73.0,0.0,30.0,5.0,0.0
1216,75.0,15.0,30.0,6.0,0.0
1217,66.0,0.0,60.0,7.0,0.0
1218,83.0,15.0,60.0,4.0,0.0
1219,78.0,0.0,60.0,4.0,0.0
1220,75.0,0.0,60.0,4.0,0.0
1221,59.0,0.0,60.0,2.0,0.0
1222,71.0,0.0,30.0,5.0,0.0
1223,59.0,0.0,60.0,3.0,0.0
1224,59.0,0.0,60.0,10.0,0.0
1225,76.0,15.0,15.0,8.0,0.0
1226,75.0,0.0,60.0,0.0,0.0
1227,66.0,0.0,60.0,1.0,0.0
1228,75.0,0.0,15.0,8.0,0.0
1229,76.0,15.0,15.0,8.0,0.0
1230,78.0,0.0,30.0,6.0,0.0
1231,69.0,0.0,30.0,5.0,0.0
1232,75.0,0.0,15.0,8.0,0.0
1233,78.0,0.0,60.0,4.0,0.0
1234,68.0,15.0,30.0,5.0,0.0
1235,47.0,0.0,60.0,10.0,0.0
1236,63.0,0.0,60.0,7.0,0.0
1237,83.0,0.0,60.0,4.0,0.0
1238,71.0,0.0,60.0,4.0,0.0
1239,76.0,15.0,15.0,8.0,0.0
1240,83.0,0.0,30.0,6.0,0.0
1241,47.0,0.0,60.0,3.0,0.0
1242,75.0,0.0,15.0,8.0,0.0
1243,73.0,15.0,15.0,8.0,0.0
1244,66.0,0.0,30.0,5.0,0.0
1245,81.0,0.0,30.0,6.0,0.0
1246,75.0,30.0,15.0,8.0,0.0
1247,80.0,0.0,30.0,4.0,0.0
1248,71.0,0.0,30.0,4.0,0.0
1249,83.0,30.0,30.0,4.0,0.0
1250,76.0,0.0,60.0,1.0,0.0
1251,80.0,0.0,60.0,6.0,0.0
1252,59.0,0.0,60.0,7.0,0.0
1253,52.0,0.0,60.0,3.0,0.0
1254,76.0,0.0,60.0,8.0,0.0
1255,68.0,0.0,60.0,2.0,0.0
1256,83.0,15.0,60.0,0.0,0.0
1257,64.0,0.0,60.0,5.0,0.0
1258,64.0,0.0,30.0,10.0,0.0
1259,66.0,0.0,30.0,10.0,0.0
1260,76.0,0.0,30.0,4.0,0.0
1261,76.0,0.0,60.0,0.0,0.0
1262,71.0,0.0,60.0,8.0,0.0
1263,71.0,0.0,60.0,2.0,0.0
1264,76.0,0.0,60.0,8.0,0.0
1265,64.0,0.0,60.0,7.0,0.0
1266,81.0,15.0,15.0,6.0,0.0
1267,68.0,0.0,60.0,8.0,0.0
1268,80.0,0.0,30.0,4.0,0.0
1269,71.0,0.0,60.0,5.0,0.0
1270,64.0,0.0,30.0,10.0,0.0
1271,68.0,0.0,60.0,1.0,0.0
1272,64.0,0.0,60.0,3.0,0.0
1273,80.0,15.0,15.0,6.0,0.0
1274,83.0,15.0,30.0,4.0,0.0
1275,62.0,0.0,30.0,10.0,0.0
1276,81.0,15.0,15.0,6.0,0.0
1277,80.0,0.0,15.0,6.0,0.0
1278,76.0,0.0,60.0,8.0,0.0
1279,52.0,0.0,60.0,3.0,0.0
1280,81.0,15.0,15.0,6.0,0.0
1281,64.0,0.0,60.0,8.0,0.0
1282,71.0,0.0,60.0,8.0,0.0
1283,61.0,15.0,30.0,10.0,0.0
1284,52.0,0.0,60.0,7.0,0.0
1285,88.0,0.0,30.0,4.0,0.0
1286,68.0,0.0,60.0,5.0,0.0
1287,80.0,0.0,15.0,6.0,0.0
1288,87.0,0.0,30.0,4.0,0.0
1289,78.0,15.0,15.0,6.0,0.0
1290,59.0,0.0,30.0,10.0,0.0
1291,80.0,30.0,15.0,6.0,0.0
1292,64.0,0.0,60.0,5.0,0.0
1293,81.0,0.0,60.0,6.0,0.0
1294,57.0,0.0,60.0,3.0,0.0
1295,85.0,0.0,30.0,4.0,0.0
1296,69.0,0.0,60.0,2.0,0.0
1297,76.0,0.0,60.0,1.0,0.0
1298,76.0,0.0,30.0,8.0,0.0
1299,85.0,0.0,30.0,0.0,0.0
1300,57.0,0.0,60.0,10.0,0.0
1301,57.0,0.0,60.0,7.0,0.0
1302,73.0,0.0,30.0,8.0,0.0
1303,64.0,30.0,30.0,8.0,0.0
1304,75.0,0.0,30.0,8.0,0.0
1305,84.0,0.0,30.0,4.0,0.0
1306,84.0,30.0,30.0,0.0,0.0
1307,61.0,30.0,60.0,5.0,0.0
1308,73.0,0.0,60.0,6.0,0.0
1309,76.0,0.0,60.0,6.0,0.0
1310,81.0,0.0,60.0,6.0,0.0
1311,85.0,30.0,30.0,0.0,0.0
1312,56.0,0.0,60.0,10.0,0.0
1313,69.0,0.0,60.0,2.0,0.0
1314,76.0,0.0,60.0,1.0,0.0
1315,76.0,0.0,30.0,8.0,0.0
1316,56.0,0.0,60.0,3.0,0.0
1317,85.0,0.0,30.0,4.0,0.0
1318,56.0,0.0,60.0,7.0,0.0
1319,88.0,0.0,30.0,4.0,0.0
1320,73.0,0.0,30.0,8.0,0.0
1321,88.0,0.0,30.0,0.0,0.0
1322,75.0,0.0,60.0,6.0,0.0
1323,81.0,0.0,60.0,6.0,0.0
1324,87.0,0.0,30.0,0.0,0.0
1325,78.0,0.0,60.0,6.0,0.0
1326,81.0,30.0,60.0,1.0,0.0
1327,69.0,0.0,60.0,2.0,0.0
1328,87.0,0.0,30.0,4.0,0.0
1329,54.0,0.0,60.0,10.0,0.0
1330,54.0,0.0,60.0,7.0,0.0
1331,54.0,0.0,60.0,3.0,0.0
1332,66.0,0.0,60.0,5.0,0.0
1333,69.0,30.0,30.0,8.0,0.0
1334,85.0,0.0,30.0,0.0,0.0
1335,85.0,0.0,30.0,4.0,0.0
1336,78.0,0.0,30.0,8.0,0.0
1337,84.0,0.0,30.0,4.0,0.0
1338,68.0,0.0,60.0,5.0,0.0
1339,84.0,0.0,30.0,0.0,0.0
1340,56.0,0.0,60.0,10.0,0.0
1341,80.0,0.0,60.0,1.0,0.0
1342,80.0,0.0,60.0,6.0,0.0
1343,75.0,29.0,30.0,8.0,0.0
1344,56.0,0.0,30.0,7.0,0.0
1345,63.0,0.0,60.0,2.0,0.0
1346,72.0,0.0,60.0,6.0,0.0
1347,56.0,30.0,60.0,3.0,0.0
1348,75.0,1.0,60.0,6.0,0.0
1349,68.0,0.0,30.0,7.0,0.0
1350,76.0,0.0,30.0,8.0,0.0
1351,82.0,0.0,30.0,4.0,0.0
1352,82.0,0.0,30.0,0.0,0.0
1353,80.0,30.0,30.0,0.0,0.0
1354,66.0,0.0,30.0,5.0,0.0
1355,72.0,0.0,60.0,2.0,0.0
1356,75.0,0.0,30.0,8.0,0.0
1357,54.0,0.0,30.0,3.0,0.0
1358,75.0,0.0,60.0,1.0,0.0
1359,66.0,0.0,30.0,7.0,0.0
1360,80.0,0.0,30.0,4.0,0.0
1361,54.0,0.0,30.0,10.0,0.0
1362,72.0,0.0,30.0,6.0,0.0
1363,52.0,0.0,30.0,3.0,0.0
1364,82.0,0.0,30.0,0.0,0.0
1365,73.0,0.0,30.0,8.0,0.0
1366,73.0,0.0,30.0,6.0,0.0
1367,82.0,0.0,30.0,4.0,0.0
1368,64.0,30.0,30.0,5.0,0.0
1369,64.0,0.0,30.0,7.0,0.0
1370,52.0,0.0,30.0,10.0,0.0
1371,80.0,0.0,60.0,1.0,0.0
1372,51.0,30.0,30.0,3.0,0.0
1373,84.0,0.0,30.0,4.0,0.0
1374,75.0,0.0,30.0,6.0,0.0
1375,63.0,0.0,30.0,5.0,0.0
1376,72.0,0.0,30.0,8.0,0.0
1377,75.0,0.0,60.0,2.0,0.0
1378,51.0,0.0,30.0,10.0,0.0
1379,84.0,0.0,30.0,0.0,0.0
1380,63.0,0.0,30.0,7.0,0.0
1381,70.0,0.0,30.0,8.0,0.0
1382,49.0,0.0,30.0,3.0,0.0
1383,85.0,30.0,30.0,4.0,0.0
1384,85.0,0.0,30.0,0.0,0.0
1385,61.0,0.0,30.0,7.0,0.0
1386,76.0,0.0,30.0,6.0,0.0
1387,61.0,0.0,30.0,5.0,0.0
1388,49.0,0.0,30.0,10.0,0.0
1389,48.0,0.0,60.0,3.0,0.0
1390,60.0,0.0,60.0,5.0,0.0
1391,87.0,0.0,60.0,4.0,0.0
1392,68.0,0.0,60.0,8.0,0.0
1393,80.0,30.0,60.0,1.0,0.0
1394,87.0,0.0,60.0,0.0,0.0
1395,78.0,0.0,60.0,2.0,0.0
1396,60.0,0.0,60.0,7.0,0.0
1397,48.0,0.0,60.0,10.0,0.0
1398,78.0,30.0,30.0,6.0,0.0
1399,80.0,0.0,30.0,6.0,0.0
1400,87.0,0.0,60.0,0.0,0.0
1401,56.0,30.0,60.0,7.0,0.0
1402,44.0,0.0,60.0,10.0,0.0
1403,72.0,0.0,60.0,2.0,0.0
1404,44.0,0.0,60.0,3.0,0.0
1405,87.0,0.0,60.0,4.0,0.0
1406,78.0,30.0,30.0,6.0,0.0
1407,84.0,0.0,60.0,8.0,0.0
1408,80.0,0.0,60.0,8.0,0.0
1409,78.0,0.0,60.0,8.0,0.0
1410,56.0,0.0,60.0,5.0,0.0
1411,84.0,0.0,60.0,4.0,0.0
1412,80.0,0.0,60.0,4.0,0.0
1413,80.0,0.0,60.0,1.0,0.0
1414,76.0,0.0,30.0,6.0,0.0
1415,68.0,0.0,60.0,2.0,0.0
1416,75.0,30.0,30.0,6.0,0.0
1417,85.0,0.0,60.0,8.0,0.0
1418,80.0,0.0,60.0,8.0,0.0
1419,76.0,0.0,60.0,8.0,0.0
1420,49.0,0.0,60.0,3.0,0.0
1421,61.0,0.0,60.0,7.0,0.0
1422,80.0,0.0,60.0,1.0,0.0
1423,61.0,0.0,60.0,5.0,0.0
1424,88.0,0.0,60.0,0.0,0.0
1425,49.0,0.0,60.0,10.0,0.0
1426,80.0,0.0,60.0,4.0,0.0
1427,85.0,60.0,60.0,4.0,0.0
1428,88.0,0.0,60.0,4.0,0.0
1429,73.0,0.0,30.0,6.0,0.0
1430,72.0,0.0,60.0,4.0,0.0
1431,80.0,0.0,60.0,8.0,0.0
1432,84.0,0.0,60.0,8.0,0.0
1433,87.0,0.0,60.0,8.0,0.0
1434,72.0,0.0,60.0,6.0,0.0
1435,80.0,0.0,60.0,1.0,0.0
1436,68.0,0.0,60.0,7.0,0.0
1437,56.0,0.0,60.0,10.0,0.0
1438,87.0,30.0,60.0,4.0,0.0
1439,72.0,0.0,60.0,2.0,0.0
1440,87.0,0.0,60.0,0.0,0.0
1441,80.0,0.0,60.0,4.0,0.0
1442,68.0,0.0,60.0,5.0,0.0
1443,44.0,0.0,60.0,3.0,0.0
1444,90.0,0.0,60.0,4.0,0.0
1445,56.0,0.0,30.0,5.0,0.0
1446,44.0,0.0,30.0,3.0,0.0
1447,90.0,0.0,60.0,0.0,0.0
1448,44.0,30.0,30.0,10.0,0.0
1449,56.0,0.0,30.0,7.0,0.0
1450,58.0,30.0,30.0,7.0,0.0
1451,58.0,0.0,30.0,5.0,0.0
1452,46.0,0.0,30.0,3.0,0.0
1453,46.0,0.0,30.0,10.0,0.0
1454,90.0,0.0,60.0,4.0,0.0
1455,60.0,0.0,30.0,5.0,0.0
1456,48.0,0.0,30.0,10.0,0.0
1457,48.0,0.0,30.0,3.0,0.0
1458,60.0,30.0,30.0,7.0,0.0
1459,90.0,0.0,60.0,0.0,0.0
1460,49.0,30.0,30.0,3.0,0.0
1461,61.0,0.0,30.0,7.0,0.0
1462,49.0,0.0,30.0,10.0,0.0
1463,61.0,0.0,30.0,5.0,0.0
1464,63.0,30.0,30.0,5.0,0.0
1465,51.0,0.0,30.0,3.0,0.0
1466,63.0,0.0,30.0,7.0,0.0
1467,84.0,0.0,60.0,4.0,0.0
1468,51.0,0.0,30.0,10.0,0.0
1469,84.0,0.0,60.0,0.0,0.0
1470,61.0,30.0,30.0,5.0,0.0
1471,49.0,0.0,30.0,3.0,0.0
1472,61.0,0.0,30.0,7.0,0.0
1473,49.0,0.0,30.0,10.0,0.0
1474,78.0,0.0,60.0,2.0,0.0
1475,87.0,0.0,60.0,4.0,0.0
1476,48.0,0.0,30.0,10.0,0.0
1477,87.0,0.0,60.0,0.0,0.0
1478,60.0,30.0,30.0,7.0,0.0
1479,78.0,30.0,60.0,8.0,0.0
1480,60.0,0.0,30.0,5.0,0.0
1481,48.0,0.0,30.0,3.0,0.0
1482,61.0,0.0,30.0,7.0,0.0
1483,61.0,0.0,30.0,5.0,0.0
1484,49.0,0.0,30.0,10.0,0.0
1485,49.0,0.0,30.0,3.0,0.0
1486,51.0,0.0,30.0,3.0,0.0
1487,87.0,0.0,60.0,4.0,0.0
1488,51.0,0.0,30.0,10.0,0.0
1489,78.0,0.0,60.0,2.0,0.0
1490,63.0,0.0,30.0,7.0,0.0
1491,63.0,30.0,30.0,5.0,0.0
1492,78.0,0.0,60.0,8.0,0.0
1493,87.0,0.0,60.0,0.0,0.0
1494,64.0,0.0,30.0,7.0,0.0
1495,52.0,0.0,30.0,3.0,0.0
1496,64.0,30.0,30.0,5.0,0.0
1497,52.0,0.0,30.0,10.0,0.0
1498,54.0,0.0,30.0,10.0,0.0
1499,54.0,0.0,30.0,3.0,0.0
1500,66.0,0.0,30.0,7.0,0.0
1501,80.0,0.0,60.0,0.0,0.0
1502,80.0,0.0,60.0,4.0,0.0
1503,72.0,0.0,60.0,8.0,0.0
1504,66.0,30.0,30.0,5.0,0.0
1505,72.0,0.0,60.0,2.0,0.0
1506,52.0,0.0,30.0,10.0,0.0
1507,64.0,30.0,30.0,7.0,0.0
1508,52.0,0.0,30.0,3.0,0.0
1509,64.0,0.0,30.0,5.0,0.0
1510,63.0,0.0,30.0,5.0,0.0
1511,75.0,0.0,60.0,8.0,0.0
1512,84.0,0.0,60.0,0.0,0.0
1513,51.0,30.0,30.0,10.0,0.0
1514,63.0,0.0,30.0,7.0,0.0
1515,51.0,0.0,30.0,3.0,0.0
1516,84.0,0.0,60.0,4.0,0.0
1517,78.0,0.0,60.0,6.0,0.0
1518,78.0,0.0,60.0,1.0,0.0
1519,75.0,0.0,60.0,2.0,0.0
1520,52.0,0.0,30.0,3.0,0.0
1521,52.0,0.0,30.0,10.0,0.0
1522,64.0,30.0,30.0,5.0,0.0
1523,64.0,0.0,30.0,7.0,0.0
1524,78.0,0.0,60.0,1.0,0.0
1525,84.0,0.0,60.0,4.0,0.0
1526,54.0,30.0,30.0,3.0,0.0
1527,75.0,0.0,60.0,2.0,0.0
1528,66.0,0.0,30.0,7.0,0.0
1529,66.0,0.0,30.0,5.0,0.0
1530,54.0,0.0,30.0,10.0,0.0
1531,75.0,0.0,60.0,8.0,0.0
1532,84.0,0.0,60.0,0.0,0.0
1533,78.0,30.0,60.0,6.0,0.0
1534,56.0,0.0,30.0,3.0,0.0
1535,68.0,0.0,30.0,7.0,0.0
1536,56.0,0.0,30.0,10.0,0.0
1537,68.0,0.0,30.0,5.0,0.0
1538,57.0,0.0,30.0,10.0,0.0
1539,69.0,0.0,30.0,7.0,0.0
1540,75.0,0.0,60.0,4.0,0.0
1541,72.0,0.0,60.0,1.0,0.0
1542,57.0,0.0,30.0,3.0,0.0
1543,72.0,0.0,60.0,6.0,0.0
1544,66.0,0.0,60.0,8.0,0.0
1545,66.0,0.0,60.0,2.0,0.0
1546,69.0,30.0,30.0,5.0,0.0
1547,75.0,0.0,60.0,0.0,0.0
1548,56.0,0.0,30.0,3.0,0.0
1549,56.0,30.0,30.0,10.0,0.0
1550,68.0,0.0,30.0,7.0,0.0
1551,68.0,0.0,30.0,5.0,0.0
1552,78.0,0.0,60.0,0.0,0.0
1553,54.0,0.0,30.0,3.0,0.0
1554,78.0,0.0,60.0,4.0,0.0
1555,66.0,30.0,30.0,7.0,0.0
1556,66.0,0.0,30.0,5.0,0.0
1557,75.0,0.0,60.0,1.0,0.0
1558,54.0,0.0,30.0,10.0,0.0
1559,69.0,0.0,60.0,2.0,0.0
1560,75.0,0.0,60.0,6.0,0.0
1561,69.0,0.0,60.0,8.0,0.0
1562,64.0,0.0,30.0,5.0,0.0
1563,64.0,0.0,30.0,7.0,0.0
1564,52.0,30.0,30.0,3.0,0.0
1565,52.0,0.0,30.0,10.0,0.0
1566,51.0,0.0,30.0,3.0,0.0
1567,63.0,0.0,30.0,7.0,0.0
1568,78.0,0.0,60.0,0.0,0.0
1569,69.0,0.0,60.0,2.0,0.0
1570,78.0,0.0,60.0,4.0,0.0
1571,75.0,0.0,60.0,6.0,0.0
1572,75.0,0.0,60.0,1.0,0.0
1573,51.0,0.0,30.0,10.0,0.0
1574,63.0,30.0,30.0,5.0,0.0
1575,69.0,0.0,60.0,8.0,0.0
1576,49.0,0.0,30.0,10.0,0.0
1577,49.0,30.0,30.0,3.0,0.0
1578,61.0,0.0,30.0,7.0,0.0
1579,61.0,0.0,30.0,5.0,0.0
1580,60.0,0.0,30.0,5.0,0.0
1581,48.0,0.0,30.0,10.0,0.0
1582,75.0,0.0,60.0,1.0,0.0
1583,68.0,0.0,30.0,6.0,0.0
1584,48.0,0.0,30.0,3.0,0.0
1585,68.0,0.0,30.0,4.0,0.0
1586,63.0,30.0,30.0,8.0,0.0
1587,60.0,0.0,30.0,7.0,0.0
1588,63.0,0.0,60.0,2.0,0.0
1589,68.0,0.0,30.0,0.0,0.0
1590,63.0,0.0,30.0,5.0,0.0
1591,72.0,0.0,30.0,0.0,0.0
1592,51.0,30.0,30.0,3.0,0.0
1593,68.0,0.0,30.0,8.0,0.0
1594,75.0,0.0,30.0,6.0,0.0
1595,51.0,0.0,30.0,10.0,0.0
1596,72.0,0.0,30.0,4.0,0.0
1597,63.0,0.0,30.0,7.0,0.0
1598,72.0,0.0,30.0,6.0,0.0
1599,72.0,0.0,60.0,2.0,0.0
1600,75.0,0.0,30.0,4.0,0.0
1601,68.0,0.0,30.0,5.0,0.0
1602,44.0,0.0,30.0,3.0,0.0
1603,75.0,0.0,60.0,1.0,0.0
1604,56.0,0.0,30.0,7.0,0.0
1605,75.0,0.0,30.0,0.0,0.0
1606,72.0,0.0,30.0,8.0,0.0
1607,44.0,30.0,30.0,10.0,0.0
1608,48.0,0.0,30.0,3.0,0.0
1609,78.0,0.0,30.0,4.0,0.0
1610,75.0,0.0,30.0,8.0,0.0
1611,78.0,0.0,30.0,0.0,0.0
1612,68.0,0.0,30.0,6.0,0.0
1613,48.0,0.0,30.0,10.0,0.0
1614,60.0,0.0,30.0,5.0,0.0
1615,60.0,60.0,30.0,7.0,0.0
1616,61.0,0.0,60.0,5.0,0.0
1617,73.0,0.0,60.0,1.0,0.0
1618,61.0,0.0,60.0,7.0,0.0
1619,68.0,0.0,60.0,2.0,0.0
1620,76.0,0.0,60.0,4.0,0.0
1621,80.0,0.0,60.0,6.0,0.0
1622,76.0,0.0,60.0,0.0,0.0
1623,73.0,60.0,60.0,8.0,0.0
1624,49.0,0.0,60.0,10.0,0.0
1625,49.0,0.0,60.0,3.0,0.0
1626,69.0,0.0,30.0,8.0,0.0
1627,75.0,0.0,30.0,4.0,0.0
1628,85.0,0.0,30.0,1.0,0.0
1629,54.0,60.0,30.0,5.0,0.0
1630,54.0,0.0,30.0,7.0,0.0
1631,42.0,0.0,30.0,10.0,0.0
1632,85.0,0.0,30.0,6.0,0.0
1633,69.0,0.0,30.0,2.0,0.0
1634,42.0,0.0,30.0,3.0,0.0
1635,75.0,0.0,30.0,0.0,0.0
1636,44.0,0.0,60.0,3.0,0.0
1637,44.0,30.0,60.0,10.0,0.0
1638,56.0,0.0,60.0,7.0,0.0
1639,84.0,0.0,90.0,6.0,0.0
1640,75.0,0.0,90.0,4.0,0.0
1641,56.0,0.0,60.0,5.0,0.0
1642,68.0,0.0,60.0,8.0,0.0
1643,84.0,30.0,90.0,1.0,0.0
1644,75.0,0.0,90.0,0.0,0.0
1645,68.0,0.0,60.0,2.0,0.0
1646,66.0,30.0,60.0,2.0,0.0
1647,66.0,0.0,60.0,8.0,0.0
1648,44.0,0.0,60.0,5.0,0.0
1649,56.0,0.0,60.0,10.0,0.0
1650,44.0,0.0,60.0,3.0,0.0
1651,44.0,0.0,60.0,7.0,0.0
1652,85.0,0.0,30.0,1.0,0.0
1653,73.0,0.0,30.0,0.0,0.0
1654,73.0,0.0,30.0,4.0,0.0
1655,85.0,0.0,30.0,6.0,0.0
1656,49.0,0.0,30.0,7.0,0.0
1657,49.0,0.0,120.0,10.0,0.0
1658,49.0,0.0,120.0,3.0,0.0
1659,85.0,0.0,60.0,6.0,0.0
1660,73.0,0.0,60.0,4.0,0.0
1661,73.0,0.0,60.0,0.0,0.0
1662,64.0,30.0,30.0,8.0,0.0
1663,85.0,0.0,60.0,1.0,0.0
1664,64.0,0.0,60.0,2.0,0.0
1665,49.0,0.0,60.0,5.0,0.0
1666,61.0,30.0,30.0,7.0,0.0
1667,61.0,0.0,30.0,8.0,0.0
1668,64.0,0.0,30.0,8.0,0.0
1669,73.0,0.0,60.0,5.0,0.0
1670,56.0,30.0,30.0,7.0,0.0
1671,61.0,0.0,30.0,7.0,0.0
1672,68.0,30.0,30.0,8.0,0.0
1673,52.0,0.0,30.0,7.0,0.0
1674,64.0,30.0,30.0,8.0,0.0
1675,68.0,0.0,60.0,5.0,0.0
1676,61.0,0.0,30.0,8.0,0.0
1677,56.0,30.0,30.0,7.0,0.0
1678,49.0,0.0,120.0,7.0,0.0
1679,64.0,0.0,60.0,1.0,0.0
1680,49.0,0.0,120.0,10.0,0.0
1681,64.0,0.0,30.0,5.0,0.0
1682,49.0,0.0,120.0,3.0,0.0
1683,68.0,30.0,30.0,8.0,0.0
1684,61.0,0.0,60.0,2.0,0.0
1685,68.0,0.0,60.0,0.0,0.0
1686,61.0,30.0,30.0,6.0,0.0
1687,64.0,0.0,30.0,8.0,0.0
1688,68.0,0.0,30.0,5.0,0.0
1689,64.0,30.0,30.0,6.0,0.0
1690,61.0,0.0,30.0,5.0,0.0
1691,68.0,0.0,30.0,8.0,0.0
1692,68.0,0.0,30.0,6.0,0.0
1693,73.0,0.0,30.0,8.0,0.0
1694,63.0,30.0,30.0,5.0,0.0
1695,64.0,0.0,30.0,5.0,0.0
1696,68.0,30.0,30.0,8.0,0.0
1697,64.0,0.0,30.0,6.0,0.0
1698,61.0,0.0,30.0,6.0,0.0
1699,64.0,30.0,30.0,8.0,0.0
1700,66.0,0.0,30.0,5.0,0.0
1701,68.0,0.0,60.0,5.0,0.0
1702,56.0,0.0,60.0,2.0,0.0
1703,73.0,0.0,30.0,8.0,0.0
1704,68.0,30.0,30.0,6.0,0.0
1705,61.0,0.0,60.0,1.0,0.0
1706,64.0,0.0,60.0,0.0,0.0
1707,73.0,0.0,30.0,4.0,0.0
1708,68.0,0.0,30.0,8.0,0.0
1709,64.0,30.0,30.0,6.0,0.0
1710,61.0,0.0,60.0,5.0,0.0
1711,73.0,0.0,30.0,8.0,0.0
1712,61.0,0.0,60.0,10.0,0.0
1713,61.0,0.0,60.0,3.0,0.0
1714,68.0,0.0,30.0,6.0,0.0
1715,61.0,0.0,60.0,7.0,0.0
1716,76.0,30.0,30.0,4.0,0.0
1717,76.0,30.0,30.0,8.0,0.0
1718,80.0,0.0,30.0,4.0,0.0
1719,73.0,0.0,30.0,6.0,0.0
1720,59.0,0.0,60.0,7.0,0.0
1721,68.0,0.0,30.0,6.0,0.0
1722,59.0,0.0,60.0,3.0,0.0
1723,76.0,0.0,30.0,4.0,0.0
1724,59.0,0.0,60.0,5.0,0.0
1725,59.0,0.0,60.0,10.0,0.0
1726,73.0,30.0,30.0,8.0,0.0
1727,68.0,0.0,30.0,8.0,0.0
1728,73.0,30.0,30.0,4.0,0.0
1729,64.0,0.0,30.0,6.0,0.0
1730,76.0,30.0,30.0,6.0,0.0
1731,57.0,0.0,60.0,5.0,0.0
1732,73.0,0.0,30.0,8.0,0.0
1733,57.0,0.0,60.0,10.0,0.0
1734,85.0,29.0,60.0,4.0,0.0
1735,57.0,0.0,60.0,3.0,0.0
1736,57.0,0.0,60.0,7.0,0.0
1737,73.0,0.0,30.0,6.0,0.0
1738,65.0,1.0,30.0,8.0,0.0
1739,83.0,0.0,30.0,4.0,0.0
1740,85.0,29.0,60.0,4.0,0.0
1741,81.0,0.0,30.0,4.0,0.0
1742,57.0,0.0,60.0,3.0,0.0
1743,57.0,0.0,60.0,7.0,0.0
1744,69.0,0.0,60.0,2.0,0.0
1745,57.0,1.0,60.0,5.0,0.0
1746,78.0,0.0,60.0,1.0,0.0
1747,85.0,0.0,60.0,0.0,0.0
1748,66.0,30.0,30.0,8.0,0.0
1749,75.0,0.0,30.0,6.0,0.0
1750,57.0,0.0,60.0,10.0,0.0
1751,77.0,0.0,30.0,6.0,0.0
1752,80.0,0.0,30.0,4.0,0.0
1753,68.0,0.0,30.0,8.0,0.0
1754,71.0,0.0,60.0,2.0,0.0
1755,77.0,0.0,60.0,1.0,0.0
1756,56.0,0.0,60.0,3.0,0.0
1757,69.0,30.0,30.0,8.0,0.0
1758,83.0,0.0,60.0,0.0,0.0
1759,56.0,0.0,60.0,10.0,0.0
1760,83.0,29.0,60.0,4.0,0.0
1761,78.0,0.0,30.0,4.0,0.0
1762,78.0,0.0,30.0,6.0,0.0
1763,56.0,0.0,60.0,7.0,0.0
1764,56.0,1.0,60.0,5.0,0.0
1765,71.0,0.0,30.0,8.0,0.0
1766,77.0,0.0,30.0,4.0,0.0
1767,80.0,0.0,30.0,6.0,0.0
1768,81.0,0.0,60.0,6.0,0.0
1769,78.0,30.0,30.0,4.0,0.0
1770,54.0,0.0,30.0,10.0,0.0
1771,81.0,0.0,30.0,4.0,0.0
1772,54.0,0.0,60.0,7.0,0.0
1773,81.0,30.0,60.0,0.0,0.0
1774,73.0,0.0,60.0,2.0,0.0
1775,78.0,0.0,60.0,1.0,0.0
1776,73.0,0.0,60.0,8.0,0.0
1777,54.0,0.0,60.0,5.0,0.0
1778,54.0,0.0,120.0,3.0,0.0
1779,66.0,0.0,30.0,4.0,0.0
1780,66.0,0.0,30.0,10.0,0.0
1781,66.0,30.0,60.0,7.0,0.0
1782,69.0,0.0,30.0,4.0,0.0
1783,61.0,30.0,30.0,10.0,0.0
1784,73.0,0.0,30.0,4.0,0.0
1785,66.0,0.0,30.0,10.0,0.0
1786,57.0,0.0,30.0,10.0,0.0
1787,61.0,30.0,60.0,7.0,0.0
1788,69.0,30.0,30.0,4.0,0.0
1789,61.0,0.0,30.0,10.0,0.0
1790,66.0,0.0,30.0,4.0,0.0
1791,54.0,0.0,60.0,5.0,0.0
1792,57.0,30.0,30.0,7.0,0.0
1793,69.0,0.0,60.0,2.0,0.0
1794,54.0,30.0,120.0,10.0,0.0
1795,73.0,0.0,30.0,4.0,0.0
1796,54.0,0.0,120.0,3.0,0.0
1797,73.0,0.0,60.0,1.0,0.0
1798,78.0,0.0,60.0,0.0,0.0
1799,69.0,30.0,30.0,4.0,0.0
1800,61.0,0.0,30.0,7.0,0.0
1801,66.0,0.0,30.0,8.0,0.0
1802,54.0,0.0,30.0,7.0,0.0
1803,73.0,0.0,30.0,4.0,0.0
1804,69.0,30.0,30.0,8.0,0.0
1805,56.0,0.0,30.0,7.0,0.0
1806,78.0,0.0,30.0,4.0,0.0
1807,73.0,0.0,30.0,8.0,0.0
1808,73.0,30.0,30.0,4.0,0.0
1809,57.0,0.0,30.0,7.0,0.0
1810,69.0,0.0,30.0,8.0,0.0
1811,59.0,30.0,30.0,7.0,0.0
1812,66.0,0.0,30.0,8.0,0.0
1813,69.0,0.0,30.0,4.0,0.0
1814,73.0,30.0,30.0,8.0,0.0
1815,73.0,0.0,60.0,0.0,0.0
1816,69.0,0.0,60.0,1.0,0.0
1817,78.0,0.0,30.0,4.0,0.0
1818,66.0,0.0,60.0,2.0,0.0
1819,61.0,0.0,60.0,7.0,0.0
1820,78.0,0.0,30.0,6.0,0.0
1821,73.0,0.0,30.0,4.0,0.0
1822,69.0,30.0,30.0,8.0,0.0
1823,66.0,30.0,60.0,10.0,0.0
1824,54.0,0.0,60.0,7.0,0.0
1825,54.0,0.0,60.0,3.0,0.0
1826,81.0,30.0,30.0,6.0,0.0
1827,73.0,0.0,30.0,8.0,0.0
1828,66.0,0.0,60.0,5.0,0.0
1829,78.0,0.0,30.0,4.0,0.0
1830,81.0,0.0,30.0,4.0,0.0
1831,85.0,0.0,30.0,6.0,0.0
1832,78.0,0.0,30.0,8.0,0.0
1833,81.0,30.0,30.0,6.0,0.0
1834,52.0,0.0,60.0,3.0,0.0
1835,73.0,0.0,30.0,8.0,0.0
1836,78.0,0.0,30.0,4.0,0.0
1837,64.0,0.0,60.0,10.0,0.0
1838,64.0,30.0,60.0,5.0,0.0
1839,52.0,0.0,60.0,7.0,0.0
1840,73.0,0.0,30.0,4.0,0.0
1841,78.0,0.0,30.0,6.0,0.0
1842,69.0,0.0,30.0,8.0,0.0
1843,50.0,0.0,60.0,7.0,0.0
1844,90.0,29.0,60.0,6.0,0.0
1845,62.0,0.0,60.0,5.0,0.0
1846,81.0,30.0,30.0,8.0,0.0
1847,50.0,0.0,60.0,3.0,0.0
1848,78.0,0.0,30.0,4.0,0.0
1849,62.0,0.0,60.0,10.0,0.0
1850,78.0,1.0,30.0,8.0,0.0
1851,88.0,0.0,30.0,6.0,0.0
1852,70.0,0.0,30.0,4.0,0.0
1853,50.0,0.0,60.0,3.0,0.0
1854,71.0,0.0,30.0,4.0,0.0
1855,90.0,0.0,60.0,0.0,0.0
1856,83.0,0.0,60.0,1.0,0.0
1857,86.0,0.0,30.0,6.0,0.0
1858,62.0,0.0,60.0,5.0,0.0
1859,90.0,29.0,60.0,6.0,0.0
1860,62.0,1.0,60.0,10.0,0.0
1861,50.0,0.0,60.0,7.0,0.0
1862,74.0,0.0,60.0,2.0,0.0
1863,80.0,30.0,30.0,8.0,0.0
1864,82.0,0.0,30.0,8.0,0.0
1865,85.0,0.0,30.0,6.0,0.0
1866,73.0,0.0,30.0,4.0,0.0
1867,61.0,1.0,60.0,10.0,0.0
1868,83.0,0.0,30.0,8.0,0.0
1869,88.0,0.0,60.0,0.0,0.0
1870,82.0,0.0,60.0,1.0,0.0
1871,88.0,15.0,60.0,6.0,0.0
1872,83.0,0.0,30.0,6.0,0.0
1873,61.0,0.0,60.0,5.0,0.0
1874,74.0,30.0,30.0,4.0,0.0
1875,49.0,0.0,60.0,7.0,0.0
1876,76.0,0.0,60.0,2.0,0.0
1877,49.0,0.0,60.0,3.0,0.0
1878,85.0,0.0,30.0,8.0,0.0
1879,76.0,0.0,30.0,4.0,0.0
1880,82.0,0.0,30.0,6.0,0.0
1881,86.0,0.0,60.0,0.0,0.0
1882,86.0,10.0,20.0,6.0,0.0
1883,83.0,14.0,60.0,6.0,0.0
1884,47.0,10.0,30.0,7.0,0.0
1885,78.0,0.0,60.0,2.0,0.0
1886,59.0,9.0,210.0,10.0,0.0
1887,86.0,0.0,30.0,8.0,0.0
1888,78.0,4.0,15.0,4.0,0.0
1889,47.0,1.0,60.0,3.0,0.0
1890,83.0,0.0,60.0,1.0,0.0
1891,59.0,0.0,60.0,5.0,0.0
1892,71.0,0.0,15.0,4.0,0.0
1893,88.0,5.0,20.0,6.0,0.0
1894,85.0,0.0,30.0,8.0,0.0
1895,73.0,15.0,15.0,4.0,0.0
1896,59.0,0.0,30.0,7.0,0.0
1897,86.0,0.0,20.0,6.0,0.0
1898,74.0,0.0,15.0,4.0,0.0
1899,47.0,0.0,60.0,3.0,0.0
1900,88.0,15.0,15.0,6.0,0.0
1901,76.0,0.0,15.0,4.0,0.0
1902,83.0,0.0,60.0,8.0,0.0
1903,62.0,0.0,30.0,7.0,0.0
1904,86.0,15.0,15.0,6.0,0.0
1905,78.0,0.0,15.0,4.0,0.0
1906,88.0,15.0,15.0,6.0,0.0
1907,80.0,0.0,15.0,4.0,0.0
1908,66.0,10.0,30.0,7.0,0.0
1909,86.0,0.0,15.0,6.0,0.0
1910,81.0,0.0,15.0,4.0,0.0
1911,83.0,5.0,15.0,4.0,0.0
1912,81.0,10.0,60.0,8.0,0.0
1913,47.0,0.0,60.0,3.0,0.0
1914,88.0,5.0,15.0,6.0,0.0
1915,62.0,10.0,30.0,7.0,0.0
1916,86.0,10.0,15.0,6.0,0.0
1917,81.0,0.0,15.0,4.0,0.0
1918,88.0,0.0,15.0,6.0,0.0
1919,80.0,5.0,15.0,4.0,0.0
1920,59.0,0.0,30.0,7.0,0.0
1921,86.0,5.0,15.0,6.0,0.0
1922,88.0,10.0,15.0,6.0,0.0
1923,78.0,0.0,15.0,4.0,0.0
1924,86.0,0.0,15.0,6.0,0.0
1925,52.0,0.0,60.0,3.0,0.0
1926,80.0,5.0,15.0,4.0,0.0
1927,80.0,0.0,20.0,8.0,0.0
1928,88.0,5.0,15.0,6.0,0.0
1929,80.0,0.0,60.0,1.0,0.0
1930,64.0,14.0,210.0,7.0,0.0
1931,86.0,0.0,60.0,0.0,0.0
1932,76.0,15.0,60.0,2.0,0.0
1933,86.0,10.0,15.0,6.0,0.0
1934,64.0,0.0,15.0,4.0,0.0
1935,81.0,5.0,20.0,8.0,0.0
1936,88.0,1.0,15.0,6.0,0.0
1937,85.0,15.0,15.0,6.0,0.0
1938,52.0,0.0,30.0,10.0,0.0
1939,66.0,0.0,15.0,4.0,0.0
1940,80.0,0.0,20.0,8.0,0.0
1941,83.0,0.0,15.0,6.0,0.0
1942,68.0,0.0,15.0,4.0,0.0
1943,52.0,0.0,60.0,3.0,0.0
1944,81.0,0.0,15.0,8.0,0.0
1945,69.0,15.0,15.0,4.0,0.0
1946,56.0,0.0,30.0,10.0,0.0
1947,88.0,0.0,60.0,6.0,0.0
1948,80.0,15.0,15.0,8.0,0.0
1949,71.0,0.0,15.0,4.0,0.0
1950,81.0,0.0,15.0,8.0,0.0
1951,73.0,15.0,15.0,4.0,0.0
1952,59.0,0.0,30.0,10.0,0.0
1953,80.0,0.0,15.0,8.0,0.0
1954,74.0,10.0,15.0,4.0,0.0
1955,52.0,0.0,60.0,3.0,0.0
1956,86.0,15.0,60.0,6.0,0.0
1957,76.0,5.0,15.0,4.0,0.0
1958,81.0,5.0,15.0,8.0,0.0
1959,56.0,10.0,30.0,10.0,0.0
1960,80.0,10.0,15.0,8.0,0.0
1961,74.0,0.0,15.0,4.0,0.0
1962,81.0,0.0,15.0,8.0,0.0
1963,80.0,5.0,15.0,8.0,0.0
1964,73.0,5.0,15.0,4.0,0.0
1965,52.0,0.0,30.0,10.0,0.0
1966,81.0,10.0,15.0,8.0,0.0
1967,71.0,0.0,15.0,4.0,0.0
1968,80.0,0.0,15.0,8.0,0.0
1969,73.0,0.0,15.0,4.0,0.0
1970,85.0,0.0,60.0,0.0,0.0
1971,80.0,0.0,60.0,1.0,0.0
1972,57.0,9.0,210.0,10.0,0.0
1973,76.0,0.0,60.0,2.0,0.0
1974,45.0,10.0,60.0,3.0,0.0
1975,81.0,15.0,15.0,8.0,0.0
1976,86.0,0.0,15.0,6.0,0.0
1977,85.0,1.0,15.0,6.0,0.0
1978,80.0,0.0,15.0,8.0,0.0
1979,69.0,0.0,15.0,4.0,0.0
1980,78.0,0.0,15.0,8.0,0.0
1981,86.0,0.0,15.0,6.0,0.0
1982,57.0,0.0,30.0,7.0,0.0
1983,71.0,15.0,15.0,4.0,0.0
1984,73.0,0.0,15.0,4.0,0.0
1985,76.0,0.0,15.0,8.0,0.0
1986,85.0,0.0,15.0,6.0,0.0
1987,74.0,5.0,15.0,4.0,0.0
1988,61.0,10.0,30.0,7.0,0.0
1989,45.0,0.0,60.0,3.0,0.0
1990,81.0,10.0,60.0,8.0,0.0
1991,86.0,5.0,15.0,6.0,0.0
1992,85.0,10.0,15.0,6.0,0.0
1993,76.0,0.0,15.0,4.0,0.0
1994,86.0,0.0,15.0,6.0,0.0
1995,78.0,5.0,15.0,4.0,0.0
1996,85.0,5.0,15.0,6.0,0.0
1997,64.0,0.0,30.0,7.0,0.0
1998,86.0,10.0,15.0,6.0,0.0
1999,80.0,0.0,15.0,4.0,0.0
2000,85.0,0.0,15.0,6.0,0.0
2001,61.0,0.0,30.0,7.0,0.0
2002,80.0,15.0,60.0,8.0,0.0
2003,45.0,0.0,60.0,3.0,0.0
2004,81.0,5.0,15.0,4.0,0.0
2005,86.0,5.0,15.0,6.0,0.0
2006,85.0,10.0,15.0,6.0,0.0
2007,80.0,10.0,15.0,4.0,0.0
2008,86.0,0.0,15.0,6.0,0.0
2009,57.0,0.0,30.0,7.0,0.0
2010,85.0,5.0,15.0,6.0,0.0
2011,78.0,5.0,15.0,4.0,0.0
2012,86.0,10.0,15.0,6.0,0.0
2013,76.0,0.0,15.0,4.0,0.0
2014,85.0,0.0,15.0,6.0,0.0
2015,50.0,0.0,60.0,3.0,0.0
2016,62.0,9.0,210.0,7.0,0.0
2017,86.0,5.0,15.0,6.0,0.0
2018,85.0,0.0,60.0,0.0,0.0
2019,74.0,15.0,60.0,2.0,0.0
2020,78.0,10.0,20.0,8.0,0.0
2021,78.0,0.0,15.0,4.0,0.0
2022,78.0,0.0,60.0,1.0,0.0
2023,62.0,1.0,15.0,4.0,0.0
2024,85.0,0.0,15.0,6.0,0.0
2025,80.0,5.0,20.0,8.0,0.0
2026,83.0,0.0,15.0,6.0,0.0
2027,64.0,15.0,15.0,4.0,0.0
2028,50.0,0.0,30.0,10.0,0.0
2029,78.0,0.0,20.0,8.0,0.0
2030,66.0,0.0,15.0,4.0,0.0
2031,81.0,0.0,15.0,6.0,0.0
2032,54.0,0.0,30.0,10.0,0.0
2033,80.0,0.0,15.0,8.0,0.0
2034,86.0,0.0,60.0,6.0,0.0
2035,68.0,15.0,15.0,4.0,0.0
2036,50.0,0.0,60.0,3.0,0.0
2037,69.0,15.0,15.0,4.0,0.0
2038,78.0,0.0,15.0,8.0,0.0
2039,71.0,0.0,15.0,4.0,0.0
2040,57.0,0.0,30.0,10.0,0.0
2041,80.0,15.0,15.0,8.0,0.0
2042,78.0,10.0,15.0,8.0,0.0
2043,73.0,0.0,15.0,4.0,0.0
2044,80.0,5.0,15.0,8.0,0.0
2045,74.0,5.0,15.0,4.0,0.0
2046,54.0,0.0,30.0,10.0,0.0
2047,50.0,0.0,60.0,3.0,0.0
2048,85.0,0.0,60.0,6.0,0.0
2049,78.0,10.0,15.0,8.0,0.0
2050,73.0,10.0,15.0,4.0,0.0
2051,80.0,0.0,15.0,8.0,0.0
2052,50.0,15.0,30.0,10.0,0.0
2053,71.0,5.0,15.0,4.0,0.0
2054,78.0,5.0,15.0,8.0,0.0
2055,80.0,10.0,15.0,8.0,0.0
2056,69.0,0.0,15.0,4.0,0.0
2057,78.0,0.0,15.0,8.0,0.0
2058,71.0,0.0,15.0,4.0,0.0
2059,74.0,15.0,60.0,2.0,0.0
2060,85.0,10.0,20.0,6.0,0.0
2061,83.0,0.0,60.0,0.0,0.0
2062,78.0,0.0,60.0,1.0,0.0
2063,44.0,0.0,60.0,3.0,0.0
2064,56.0,9.0,210.0,10.0,0.0
2065,80.0,5.0,15.0,8.0,0.0
2066,78.0,0.0,15.0,8.0,0.0
2067,68.0,1.0,15.0,4.0,0.0
2068,83.0,5.0,20.0,6.0,0.0
2069,56.0,0.0,30.0,7.0,0.0
2070,69.0,15.0,15.0,4.0,0.0
2071,77.0,0.0,15.0,8.0,0.0
2072,85.0,0.0,20.0,6.0,0.0
2073,71.0,0.0,15.0,4.0,0.0
2074,75.0,0.0,15.0,8.0,0.0
2075,73.0,0.0,15.0,4.0,0.0
2076,83.0,15.0,15.0,6.0,0.0
2077,44.0,0.0,60.0,3.0,0.0
2078,80.0,0.0,60.0,8.0,0.0
2079,59.0,15.0,30.0,7.0,0.0
2080,75.0,0.0,15.0,4.0,0.0
2081,85.0,0.0,15.0,6.0,0.0
2082,62.0,15.0,30.0,7.0,0.0
2083,77.0,0.0,15.0,4.0,0.0
2084,83.0,15.0,15.0,6.0,0.0
2085,78.0,0.0,15.0,4.0,0.0
2086,85.0,0.0,15.0,6.0,0.0
2087,59.0,15.0,30.0,7.0,0.0
2088,44.0,0.0,60.0,3.0,0.0
2089,78.0,15.0,60.0,8.0,0.0
2090,83.0,0.0,15.0,6.0,0.0
2091,80.0,15.0,15.0,4.0,0.0
2092,78.0,0.0,15.0,4.0,0.0
2093,85.0,0.0,15.0,6.0,0.0
2094,56.0,0.0,30.0,7.0,0.0
2095,77.0,0.0,15.0,4.0,0.0
2096,83.0,15.0,15.0,6.0,0.0
2097,85.0,0.0,15.0,6.0,0.0
2098,75.0,0.0,15.0,4.0,0.0
2099,77.0,0.0,15.0,4.0,0.0
2100,85.0,5.0,15.0,6.0,0.0
2101,49.0,0.0,60.0,3.0,0.0
2102,73.0,0.0,60.0,2.0,0.0
2103,77.0,0.0,60.0,1.0,0.0
2104,83.0,0.0,60.0,0.0,0.0
2105,61.0,0.0,240.0,7.0,0.0
2106,77.0,10.0,20.0,8.0,0.0
2107,83.0,0.0,15.0,6.0,0.0
2108,61.0,1.0,15.0,4.0,0.0
2109,78.0,5.0,20.0,8.0,0.0
2110,81.0,0.0,15.0,6.0,0.0
2111,49.0,0.0,30.0,10.0,0.0
2112,63.0,15.0,15.0,4.0,0.0
2113,77.0,0.0,20.0,8.0,0.0
2114,65.0,0.0,15.0,4.0,0.0
2115,80.0,15.0,15.0,6.0,0.0
2116,49.0,15.0,60.0,3.0,0.0
2117,53.0,0.0,30.0,10.0,0.0
2118,66.0,0.0,15.0,4.0,0.0
2119,85.0,0.0,60.0,6.0,0.0
2120,78.0,15.0,15.0,8.0,0.0
2121,77.0,0.0,15.0,8.0,0.0
2122,68.0,15.0,15.0,4.0,0.0
2123,56.0,0.0,30.0,10.0,0.0
2124,69.0,0.0,15.0,4.0,0.0
2125,78.0,15.0,15.0,8.0,0.0
2126,71.0,0.0,15.0,4.0,0.0
2127,77.0,0.0,15.0,8.0,0.0
2128,73.0,0.0,15.0,4.0,0.0
2129,49.0,0.0,60.0,3.0,0.0
2130,78.0,15.0,15.0,8.0,0.0
2131,83.0,0.0,60.0,6.0,0.0
2132,53.0,15.0,30.0,10.0,0.0
2133,71.0,0.0,15.0,4.0,0.0
2134,77.0,0.0,15.0,8.0,0.0
2135,49.0,30.0,30.0,10.0,0.0
2136,75.0,15.0,15.0,8.0,0.0
2137,69.0,0.0,15.0,4.0,0.0
2138,68.0,0.0,15.0,4.0,0.0
2139,77.0,0.0,15.0,8.0,0.0
2140,78.0,0.0,60.0,1.0,0.0
2141,73.0,0.0,60.0,2.0,0.0
2142,81.0,0.0,120.0,6.0,0.0
2143,54.0,0.0,60.0,10.0,0.0
2144,69.0,30.0,30.0,4.0,0.0
2145,54.0,30.0,60.0,3.0,0.0
2146,54.0,0.0,120.0,5.0,0.0
2147,78.0,0.0,60.0,8.0,0.0
2148,81.0,0.0,60.0,0.0,0.0
2149,66.0,0.0,30.0,4.0,0.0
2150,69.0,30.0,30.0,4.0,0.0
2151,45.0,30.0,60.0,3.0,0.0
2152,45.0,0.0,60.0,10.0,0.0
2153,66.0,0.0,60.0,2.0,0.0
2154,66.0,0.0,60.0,7.0,0.0
2155,66.0,0.0,60.0,8.0,0.0
2156,73.0,0.0,30.0,4.0,0.0
2157,61.0,0.0,60.0,7.0,0.0
2158,49.0,0.0,60.0,10.0,0.0
2159,68.0,0.0,60.0,2.0,0.0
2160,68.0,0.0,60.0,8.0,0.0
2161,78.0,30.0,30.0,4.0,0.0
2162,49.0,0.0,60.0,3.0,0.0
2163,77.0,60.0,30.0,4.0,0.0
2164,57.0,0.0,60.0,7.0,0.0
2165,42.0,0.0,60.0,10.0,0.0
2166,69.0,0.0,60.0,8.0,0.0
2167,42.0,30.0,60.0,3.0,0.0
2168,78.0,0.0,60.0,4.0,0.0
2169,69.0,0.0,60.0,2.0,0.0
2170,66.0,0.0,30.0,6.0,0.0
2171,54.0,0.0,60.0,10.0,0.0
2172,69.0,0.0,60.0,2.0,0.0
2173,78.0,0.0,60.0,1.0,0.0
2174,81.0,30.0,60.0,4.0,0.0
2175,69.0,30.0,30.0,6.0,0.0
2176,54.0,0.0,60.0,7.0,0.0
2177,85.0,0.0,60.0,4.0,0.0
2178,69.0,0.0,60.0,8.0,0.0
2179,54.0,0.0,60.0,3.0,0.0
2180,85.0,0.0,60.0,0.0,0.0
2181,54.0,0.0,60.0,5.0,0.0
2182,73.0,0.0,30.0,6.0,0.0
2183,71.0,0.0,60.0,2.0,0.0
2184,80.0,0.0,60.0,4.0,0.0
2185,83.0,0.0,60.0,4.0,0.0
2186,78.0,30.0,30.0,6.0,0.0
2187,85.0,0.0,60.0,0.0,0.0
2188,56.0,0.0,60.0,7.0,0.0
2189,71.0,0.0,60.0,8.0,0.0
2190,77.0,30.0,60.0,1.0,0.0
2191,56.0,0.0,60.0,10.0,0.0
2192,56.0,0.0,60.0,5.0,0.0
2193,56.0,0.0,60.0,3.0,0.0
2194,77.0,0.0,30.0,6.0,0.0
2195,73.0,0.0,60.0,2.0,0.0
2196,57.0,0.0,60.0,3.0,0.0
2197,57.0,0.0,60.0,5.0,0.0
2198,78.0,0.0,60.0,1.0,0.0
2199,73.0,0.0,60.0,8.0,0.0
2200,81.0,0.0,30.0,4.0,0.0
2201,78.0,30.0,30.0,6.0,0.0
2202,78.0,0.0,30.0,4.0,0.0
2203,57.0,0.0,60.0,7.0,0.0
2204,85.0,0.0,60.0,0.0,0.0
2205,57.0,0.0,60.0,10.0,0.0
2206,85.0,0.0,30.0,4.0,0.0
2207,76.0,30.0,30.0,6.0,0.0
2208,57.0,30.0,60.0,3.0,0.0
2209,73.0,0.0,60.0,8.0,0.0
2210,57.0,0.0,60.0,10.0,0.0
2211,74.0,0.0,30.0,6.0,0.0
2212,83.0,30.0,30.0,0.0,0.0
2213,57.0,0.0,60.0,5.0,0.0
2214,57.0,0.0,60.0,7.0,0.0
2215,83.0,0.0,30.0,4.0,0.0
2216,73.0,0.0,60.0,2.0,0.0
2217,66.0,0.0,60.0,1.0,0.0
2218,73.0,0.0,30.0,6.0,0.0
2219,81.0,0.0,30.0,4.0,0.0
2220,81.0,0.0,30.0,0.0,0.0
2221,80.0,0.0,30.0,0.0,0.0
2222,80.0,0.0,30.0,4.0,0.0
2223,74.0,0.0,60.0,2.0,0.0
2224,71.0,0.0,60.0,1.0,0.0
2225,59.0,0.0,60.0,10.0,0.0
2226,74.0,0.0,60.0,8.0,0.0
2227,59.0,0.0,60.0,5.0,0.0
2228,59.0,30.0,60.0,3.0,0.0
2229,71.0,30.0,30.0,6.0,0.0
2230,59.0,0.0,60.0,7.0,0.0
2231,69.0,0.0,30.0,6.0,0.0
2232,78.0,0.0,30.0,4.0,0.0
2233,78.0,0.0,30.0,0.0,0.0
2234,68.0,0.0,60.0,6.0,0.0
2235,77.0,30.0,30.0,4.0,0.0
2236,61.0,0.0,60.0,5.0,0.0
2237,61.0,30.0,60.0,3.0,0.0
2238,61.0,0.0,60.0,7.0,0.0
2239,68.0,0.0,60.0,1.0,0.0
2240,61.0,0.0,60.0,10.0,0.0
2241,73.0,0.0,60.0,8.0,0.0
2242,73.0,0.0,60.0,2.0,0.0
2243,77.0,0.0,60.0,0.0,0.0
2244,75.0,0.0,30.0,4.0,0.0
2245,71.0,30.0,30.0,2.0,0.0
2246,61.0,0.0,60.0,5.0,0.0
2247,71.0,0.0,30.0,8.0,0.0
2248,85.0,0.0,60.0,1.0,0.0
2249,61.0,0.0,60.0,7.0,0.0
2250,61.0,0.0,60.0,10.0,0.0
2251,77.0,0.0,60.0,0.0,0.0
2252,77.0,0.0,30.0,4.0,0.0
2253,61.0,0.0,60.0,3.0,0.0
2254,85.0,0.0,60.0,6.0,0.0
2255,78.0,0.0,30.0,4.0,0.0
2256,69.0,0.0,30.0,2.0,0.0
2257,69.0,16.0,30.0,8.0,0.0
2258,68.0,0.0,30.0,2.0,0.0
2259,62.0,0.0,60.0,3.0,0.0
2260,62.0,0.0,60.0,10.0,0.0
2261,78.0,0.0,60.0,0.0,0.0
2262,83.0,14.0,15.0,6.0,0.0
2263,62.0,0.0,60.0,7.0,0.0
2264,68.0,0.0,30.0,8.0,0.0
2265,62.0,1.0,60.0,5.0,0.0
2266,83.0,0.0,60.0,1.0,0.0
2267,77.0,1.0,30.0,4.0,0.0
2268,85.0,29.0,15.0,6.0,0.0
2269,66.0,0.0,30.0,2.0,0.0
2270,66.0,0.0,30.0,8.0,0.0
2271,83.0,29.0,30.0,6.0,0.0
2272,78.0,0.0,30.0,4.0,0.0
2273,61.0,0.0,60.0,3.0,0.0
2274,65.0,0.0,30.0,2.0,0.0
2275,61.0,0.0,60.0,7.0,0.0
2276,61.0,0.0,60.0,10.0,0.0
2277,80.0,0.0,240.0,0.0,0.0
2278,85.0,0.0,60.0,6.0,0.0
2279,85.0,0.0,240.0,1.0,0.0
2280,65.0,0.0,30.0,8.0,0.0
2281,80.0,30.0,30.0,4.0,0.0
2282,61.0,0.0,60.0,5.0,0.0
2283,63.0,30.0,30.0,2.0,0.0
2284,81.0,0.0,30.0,4.0,0.0
2285,63.0,0.0,30.0,8.0,0.0
2286,59.0,0.0,30.0,10.0,0.0
2287,77.0,0.0,30.0,6.0,0.0
2288,59.0,0.0,30.0,7.0,0.0
2289,61.0,0.0,30.0,8.0,0.0
2290,59.0,0.0,30.0,3.0,0.0
2291,59.0,0.0,30.0,5.0,0.0
2292,80.0,30.0,30.0,4.0,0.0
2293,61.0,0.0,30.0,2.0,0.0
2294,78.0,0.0,30.0,6.0,0.0
2295,57.0,0.0,30.0,5.0,0.0
2296,57.0,0.0,30.0,7.0,0.0
2297,57.0,30.0,30.0,10.0,0.0
2298,63.0,0.0,30.0,2.0,0.0
2299,63.0,0.0,30.0,8.0,0.0
2300,78.0,0.0,30.0,4.0,0.0
2301,57.0,0.0,30.0,3.0,0.0
2302,56.0,0.0,30.0,10.0,0.0
2303,77.0,0.0,30.0,4.0,0.0
2304,56.0,0.0,30.0,5.0,0.0
2305,56.0,0.0,30.0,7.0,0.0
2306,80.0,0.0,30.0,6.0,0.0
2307,65.0,0.0,30.0,8.0,0.0
2308,65.0,0.0,30.0,2.0,0.0
2309,56.0,30.0,30.0,3.0,0.0
2310,54.0,0.0,30.0,5.0,0.0
2311,81.0,30.0,30.0,6.0,0.0
2312,75.0,0.0,30.0,4.0,0.0
2313,54.0,0.0,30.0,10.0,0.0
2314,54.0,0.0,30.0,7.0,0.0
2315,66.0,0.0,30.0,2.0,0.0
2316,54.0,0.0,30.0,3.0,0.0
2317,66.0,0.0,30.0,8.0,0.0
2318,53.0,0.0,60.0,7.0,0.0
2319,68.0,0.0,60.0,2.0,0.0
2320,83.0,30.0,30.0,6.0,0.0
2321,53.0,0.0,60.0,10.0,0.0
2322,68.0,0.0,60.0,8.0,0.0
2323,53.0,0.0,60.0,5.0,0.0
2324,53.0,30.0,60.0,3.0,0.0
2325,73.0,0.0,30.0,4.0,0.0
2326,85.0,0.0,30.0,6.0,0.0
2327,68.0,0.0,30.0,4.0,0.0
2328,49.0,0.0,60.0,10.0,0.0
2329,68.0,0.0,60.0,2.0,0.0
2330,49.0,0.0,60.0,7.0,0.0
2331,83.0,30.0,30.0,6.0,0.0
2332,68.0,0.0,60.0,8.0,0.0
2333,73.0,30.0,60.0,1.0,0.0
2334,77.0,0.0,60.0,0.0,0.0
2335,49.0,0.0,60.0,5.0,0.0
2336,49.0,0.0,60.0,3.0,0.0
2337,73.0,0.0,30.0,4.0,0.0
2338,81.0,0.0,30.0,6.0,0.0
2339,75.0,0.0,30.0,4.0,0.0
2340,69.0,0.0,60.0,2.0,0.0
2341,54.0,0.0,60.0,7.0,0.0
2342,69.0,30.0,60.0,8.0,0.0
2343,78.0,0.0,60.0,0.0,0.0
2344,54.0,0.0,60.0,5.0,0.0
2345,80.0,0.0,30.0,6.0,0.0
2346,73.0,30.0,30.0,4.0,0.0
2347,54.0,0.0,60.0,10.0,0.0
2348,54.0,0.0,60.0,3.0,0.0
2349,73.0,0.0,60.0,1.0,0.0
2350,75.0,0.0,30.0,4.0,0.0
2351,78.0,0.0,30.0,6.0,0.0
2352,49.0,0.0,420.0,5.0,0.0
2353,49.0,0.0,360.0,3.0,0.0
2354,69.0,0.0,30.0,8.0,0.0
2355,49.0,9.0,390.0,7.0,0.0
2356,77.0,0.0,30.0,6.0,0.0
2357,77.0,0.0,60.0,0.0,0.0
2358,77.0,30.0,30.0,4.0,0.0
2359,68.0,30.0,60.0,2.0,0.0
2360,73.0,0.0,120.0,1.0,0.0
2361,68.0,30.0,60.0,8.0,0.0
2362,68.0,0.0,30.0,6.0,0.0
2363,78.0,0.0,30.0,4.0,0.0
2364,77.0,0.0,30.0,4.0,0.0
2365,73.0,0.0,30.0,0.0,0.0
2366,73.0,0.0,30.0,6.0,0.0
2367,68.0,0.0,60.0,2.0,0.0
2368,66.0,0.0,30.0,8.0,0.0
2369,75.0,30.0,30.0,0.0,0.0
2370,75.0,0.0,30.0,6.0,0.0
2371,75.0,0.0,30.0,4.0,0.0
2372,73.0,0.0,60.0,2.0,0.0
2373,77.0,0.0,30.0,0.0,0.0
2374,65.0,0.0,30.0,8.0,0.0
2375,73.0,0.0,30.0,6.0,0.0
2376,77.0,30.0,30.0,4.0,0.0
2377,78.0,0.0,30.0,0.0,0.0
2378,63.0,0.0,30.0,8.0,0.0
2379,78.0,0.0,30.0,4.0,0.0
2380,75.0,30.0,30.0,6.0,0.0
2381,80.0,0.0,60.0,0.0,0.0
2382,80.0,0.0,60.0,4.0,0.0
2383,77.0,0.0,60.0,2.0,0.0
2384,61.0,0.0,30.0,8.0,0.0
2385,77.0,30.0,30.0,6.0,0.0
2386,78.0,0.0,30.0,6.0,0.0
2387,68.0,30.0,30.0,8.0,0.0
2388,73.0,30.0,30.0,1.0,0.0
2389,80.0,0.0,60.0,0.0,0.0
2390,68.0,0.0,60.0,2.0,0.0
2391,77.0,0.0,30.0,6.0,0.0
2392,80.0,15.0,60.0,4.0,0.0
2393,73.0,0.0,30.0,8.0,0.0
2394,75.0,0.0,30.0,1.0,0.0
2395,75.0,0.0,30.0,8.0,0.0
2396,75.0,0.0,30.0,6.0,0.0
2397,81.0,0.0,60.0,0.0,0.0
2398,73.0,0.0,30.0,8.0,0.0
2399,77.0,0.0,30.0,1.0,0.0
2400,77.0,0.0,30.0,6.0,0.0
2401,73.0,0.0,60.0,2.0,0.0
2402,83.0,15.0,15.0,4.0,0.0
2403,81.0,15.0,15.0,4.0,0.0
2404,80.0,15.0,15.0,4.0,0.0
2405,78.0,0.0,30.0,1.0,0.0
2406,75.0,20.0,30.0,8.0,0.0
2407,78.0,0.0,30.0,6.0,0.0
2408,81.0,0.0,15.0,4.0,0.0
2409,80.0,1.0,60.0,1.0,0.0
2410,78.0,0.0,20.0,8.0,0.0
2411,77.0,0.0,60.0,2.0,0.0
2412,81.0,11.0,20.0,6.0,0.0
2413,83.0,0.0,60.0,0.0,0.0
2414,85.0,0.0,20.0,4.0,0.0
2415,83.0,20.0,20.0,4.0,0.0
2416,77.0,0.0,20.0,8.0,0.0
2417,80.0,0.0,20.0,6.0,0.0
2418,51.0,0.0,30.0,7.0,0.0
2419,85.0,0.0,20.0,4.0,0.0
2420,78.0,0.0,20.0,8.0,0.0
2421,81.0,0.0,20.0,6.0,0.0
2422,49.0,14.0,15.0,10.0,0.0
2423,49.0,15.0,30.0,3.0,0.0
2424,53.0,0.0,30.0,7.0,0.0
2425,83.0,0.0,15.0,4.0,0.0
2426,80.0,15.0,15.0,6.0,0.0
2427,77.0,0.0,15.0,8.0,0.0
2428,71.0,0.0,60.0,5.0,0.0
2429,85.0,0.0,15.0,4.0,0.0
2430,81.0,0.0,15.0,6.0,0.0
2431,78.0,0.0,15.0,8.0,0.0
2432,80.0,0.0,15.0,6.0,0.0
2433,51.0,0.0,30.0,10.0,0.0
2434,77.0,0.0,15.0,8.0,0.0
2435,51.0,0.0,30.0,3.0,0.0
2436,83.0,15.0,15.0,4.0,0.0
2437,54.0,0.0,30.0,7.0,0.0
2438,81.0,0.0,15.0,6.0,0.0
2439,85.0,0.0,15.0,4.0,0.0
2440,78.0,10.0,15.0,8.0,0.0
2441,77.0,0.0,15.0,8.0,0.0
2442,53.0,0.0,30.0,3.0,0.0
2443,80.0,5.0,15.0,6.0,0.0
2444,71.0,0.0,60.0,5.0,0.0
2445,53.0,0.0,30.0,10.0,0.0
2446,83.0,5.0,15.0,4.0,0.0
2447,56.0,0.0,30.0,7.0,0.0
2448,81.0,10.0,15.0,6.0,0.0
2449,78.0,0.0,15.0,8.0,0.0
2450,85.0,10.0,15.0,4.0,0.0
2451,77.0,0.0,15.0,8.0,0.0
2452,80.0,0.0,15.0,6.0,0.0
2453,83.0,5.0,15.0,4.0,0.0
2454,78.0,0.0,15.0,8.0,0.0
2455,54.0,0.0,30.0,10.0,0.0
2456,81.0,5.0,15.0,6.0,0.0
2457,57.0,0.0,30.0,7.0,0.0
2458,54.0,10.0,30.0,3.0,0.0
2459,77.0,10.0,15.0,8.0,0.0
2460,80.0,0.0,15.0,6.0,0.0
2461,85.0,0.0,15.0,4.0,0.0
2462,78.0,0.0,15.0,8.0,0.0
2463,81.0,0.0,15.0,6.0,0.0
2464,77.0,10.0,15.0,8.0,0.0
2465,80.0,0.0,60.0,0.0,0.0
2466,73.0,0.0,60.0,2.0,0.0
2467,56.0,10.0,30.0,3.0,0.0
2468,83.0,0.0,15.0,4.0,0.0
2469,56.0,0.0,30.0,10.0,0.0
2470,59.0,0.0,60.0,7.0,0.0
2471,80.0,0.0,15.0,6.0,0.0
2472,77.0,0.0,60.0,1.0,0.0
2473,65.0,0.0,60.0,5.0,0.0
2474,78.0,10.0,15.0,8.0,0.0
2475,81.0,0.0,15.0,6.0,0.0
2476,85.0,0.0,15.0,4.0,0.0
2477,83.0,0.0,15.0,4.0,0.0
2478,77.0,0.0,15.0,8.0,0.0
2479,80.0,0.0,15.0,6.0,0.0
2480,54.0,0.0,30.0,10.0,0.0
2481,81.0,0.0,15.0,6.0,0.0
2482,85.0,10.0,15.0,4.0,0.0
2483,78.0,0.0,15.0,8.0,0.0
2484,54.0,0.0,30.0,3.0,0.0
2485,77.0,10.0,15.0,8.0,0.0
2486,80.0,0.0,15.0,6.0,0.0
2487,83.0,0.0,15.0,4.0,0.0
2488,81.0,0.0,15.0,6.0,0.0
2489,78.0,10.0,15.0,8.0,0.0
2490,85.0,0.0,15.0,4.0,0.0
2491,53.0,0.0,30.0,3.0,0.0
2492,80.0,0.0,15.0,6.0,0.0
2493,68.0,0.0,60.0,5.0,0.0
2494,71.0,0.0,60.0,7.0,0.0
2495,83.0,0.0,15.0,4.0,0.0
2496,77.0,10.0,15.0,8.0,0.0
2497,53.0,10.0,30.0,10.0,0.0
2498,81.0,0.0,15.0,6.0,0.0
2499,78.0,10.0,15.0,8.0,0.0
2500,85.0,0.0,15.0,4.0,0.0
2501,77.0,0.0,15.0,8.0,0.0
2502,83.0,0.0,15.0,4.0,0.0
2503,80.0,0.0,15.0,6.0,0.0
2504,78.0,0.0,15.0,8.0,0.0
2505,54.0,10.0,30.0,3.0,0.0
2506,85.0,10.0,15.0,4.0,0.0
2507,54.0,0.0,30.0,10.0,0.0
2508,81.0,0.0,15.0,6.0,0.0
2509,80.0,10.0,15.0,6.0,0.0
2510,83.0,0.0,15.0,4.0,0.0
2511,77.0,0.0,15.0,8.0,0.0
2512,85.0,0.0,15.0,4.0,0.0
2513,81.0,0.0,15.0,6.0,0.0
2514,78.0,0.0,15.0,8.0,0.0
2515,83.0,0.0,15.0,4.0,0.0
2516,68.0,0.0,60.0,5.0,0.0
2517,56.0,0.0,30.0,3.0,0.0
2518,56.0,10.0,30.0,10.0,0.0
2519,71.0,0.0,60.0,7.0,0.0
2520,77.0,0.0,15.0,8.0,0.0
2521,80.0,10.0,15.0,6.0,0.0
2522,85.0,0.0,15.0,4.0,0.0
2523,81.0,10.0,15.0,6.0,0.0
2524,78.0,0.0,15.0,8.0,0.0
2525,83.0,0.0,15.0,4.0,0.0
2526,80.0,0.0,15.0,6.0,0.0
2527,77.0,0.0,15.0,8.0,0.0
2528,81.0,0.0,15.0,6.0,0.0
2529,85.0,0.0,15.0,4.0,0.0
2530,57.0,0.0,30.0,10.0,0.0
2531,57.0,0.0,30.0,3.0,0.0
2532,78.0,10.0,15.0,8.0,0.0
2533,77.0,0.0,15.0,8.0,0.0
2534,80.0,10.0,15.0,6.0,0.0
2535,83.0,0.0,15.0,4.0,0.0
2536,85.0,0.0,15.0,4.0,0.0
2537,81.0,10.0,15.0,6.0,0.0
2538,78.0,0.0,15.0,8.0,0.0
2539,77.0,10.0,15.0,8.0,0.0
2540,68.0,0.0,60.0,2.0,0.0
2541,80.0,0.0,15.0,6.0,0.0
2542,59.0,0.0,60.0,10.0,0.0
2543,73.0,0.0,60.0,1.0,0.0
2544,77.0,0.0,60.0,0.0,0.0
2545,61.0,0.0,60.0,5.0,0.0
2546,83.0,0.0,15.0,4.0,0.0
2547,59.0,0.0,30.0,3.0,0.0
2548,65.0,0.0,60.0,7.0,0.0
2549,78.0,0.0,15.0,8.0,0.0
2550,85.0,0.0,15.0,4.0,0.0
2551,81.0,10.0,15.0,6.0,0.0
2552,80.0,0.0,15.0,6.0,0.0
2553,77.0,10.0,15.0,8.0,0.0
2554,83.0,0.0,15.0,4.0,0.0
2555,81.0,10.0,15.0,6.0,0.0
2556,57.0,0.0,30.0,3.0,0.0
2557,78.0,0.0,15.0,8.0,0.0
2558,85.0,0.0,15.0,4.0,0.0
2559,83.0,10.0,15.0,4.0,0.0
2560,80.0,0.0,15.0,6.0,0.0
2561,77.0,0.0,15.0,8.0,0.0
2562,81.0,0.0,15.0,6.0,0.0
2563,78.0,10.0,15.0,8.0,0.0
2564,85.0,0.0,15.0,4.0,0.0
2565,83.0,0.0,15.0,4.0,0.0
2566,80.0,10.0,15.0,6.0,0.0
2567,65.0,0.0,60.0,5.0,0.0
2568,56.0,10.0,30.0,3.0,0.0
2569,68.0,0.0,60.0,7.0,0.0
2570,77.0,0.0,15.0,8.0,0.0
2571,71.0,10.0,60.0,10.0,0.0
2572,81.0,0.0,15.0,6.0,0.0
2573,85.0,0.0,15.0,4.0,0.0
2574,78.0,10.0,15.0,8.0,0.0
2575,83.0,0.0,15.0,4.0,0.0
2576,80.0,0.0,15.0,6.0,0.0
2577,77.0,0.0,15.0,8.0,0.0
2578,78.0,0.0,15.0,8.0,0.0
2579,85.0,10.0,15.0,4.0,0.0
2580,81.0,0.0,15.0,6.0,0.0
2581,57.0,0.0,30.0,3.0,0.0
2582,83.0,10.0,15.0,4.0,0.0
2583,80.0,0.0,15.0,6.0,0.0
2584,77.0,0.0,15.0,8.0,0.0
2585,81.0,0.0,15.0,6.0,0.0
2586,78.0,0.0,15.0,8.0,0.0
2587,85.0,0.0,15.0,4.0,0.0
2588,77.0,0.0,15.0,8.0,0.0
2589,68.0,0.0,60.0,7.0,0.0
2590,83.0,0.0,15.0,4.0,0.0
2591,59.0,0.0,30.0,3.0,0.0
2592,65.0,0.0,60.0,5.0,0.0
2593,71.0,0.0,60.0,10.0,0.0
2594,80.0,10.0,15.0,6.0,0.0
2595,81.0,10.0,15.0,6.0,0.0
2596,85.0,0.0,15.0,4.0,0.0
2597,78.0,0.0,15.0,8.0,0.0
2598,83.0,0.0,15.0,4.0,0.0
2599,80.0,0.0,15.0,6.0,0.0
2600,77.0,10.0,15.0,8.0,0.0
2601,81.0,10.0,15.0,6.0,0.0
2602,78.0,0.0,15.0,8.0,0.0
2603,61.0,0.0,30.0,3.0,0.0
2604,85.0,0.0,15.0,4.0,0.0
2605,80.0,0.0,15.0,6.0,0.0
2606,77.0,0.0,15.0,8.0,0.0
2607,83.0,10.0,15.0,4.0,0.0
2608,81.0,0.0,15.0,6.0,0.0
2609,85.0,0.0,15.0,4.0,0.0
2610,78.0,10.0,15.0,8.0,0.0
2611,83.0,0.0,15.0,4.0,0.0
2612,80.0,10.0,15.0,6.0,0.0
2613,80.0,0.0,60.0,0.0,0.0
2614,77.0,0.0,15.0,8.0,0.0
2615,71.0,0.0,60.0,2.0,0.0
2616,62.0,0.0,30.0,3.0,0.0
2617,65.0,0.0,60.0,10.0,0.0
2618,77.0,0.0,60.0,1.0,0.0
2619,59.0,0.0,60.0,7.0,0.0
2620,56.0,0.0,60.0,5.0,0.0
2621,81.0,10.0,15.0,6.0,0.0
2622,78.0,0.0,15.0,8.0,0.0
2623,85.0,0.0,15.0,4.0,0.0
2624,80.0,0.0,15.0,6.0,0.0
2625,83.0,0.0,15.0,4.0,0.0
2626,77.0,10.0,15.0,8.0,0.0
2627,78.0,0.0,15.0,8.0,0.0
2628,85.0,0.0,15.0,4.0,0.0
2629,61.0,0.0,30.0,3.0,0.0
2630,81.0,10.0,15.0,6.0,0.0
2631,80.0,0.0,15.0,6.0,0.0
2632,83.0,10.0,15.0,4.0,0.0
2633,77.0,0.0,15.0,8.0,0.0
2634,78.0,10.0,15.0,8.0,0.0
2635,81.0,0.0,15.0,6.0,0.0
2636,85.0,0.0,15.0,4.0,0.0
2637,59.0,0.0,30.0,3.0,0.0
2638,62.0,0.0,60.0,7.0,0.0
2639,59.0,10.0,60.0,5.0,0.0
2640,83.0,0.0,15.0,4.0,0.0
2641,80.0,10.0,15.0,6.0,0.0
2642,77.0,0.0,15.0,8.0,0.0
2643,68.0,0.0,60.0,10.0,0.0
2644,85.0,0.0,15.0,4.0,0.0
2645,78.0,0.0,15.0,8.0,0.0
2646,81.0,10.0,15.0,6.0,0.0
2647,83.0,0.0,15.0,4.0,0.0
2648,80.0,0.0,15.0,6.0,0.0
2649,77.0,10.0,15.0,8.0,0.0
2650,81.0,0.0,15.0,6.0,0.0
2651,78.0,0.0,15.0,8.0,0.0
2652,57.0,0.0,30.0,3.0,0.0
2653,85.0,10.0,15.0,4.0,0.0
2654,80.0,0.0,15.0,6.0,0.0
2655,77.0,10.0,15.0,8.0,0.0
2656,83.0,0.0,15.0,4.0,0.0
2657,85.0,0.0,15.0,4.0,0.0
2658,81.0,0.0,15.0,6.0,0.0
2659,78.0,0.0,15.0,8.0,0.0
2660,68.0,0.0,60.0,10.0,0.0
2661,77.0,10.0,15.0,8.0,0.0
2662,59.0,0.0,60.0,5.0,0.0
2663,83.0,0.0,15.0,4.0,0.0
2664,62.0,0.0,60.0,7.0,0.0
2665,56.0,0.0,30.0,3.0,0.0
2666,80.0,0.0,15.0,6.0,0.0
2667,78.0,0.0,15.0,8.0,0.0
2668,85.0,10.0,15.0,4.0,0.0
2669,81.0,0.0,15.0,6.0,0.0
2670,80.0,0.0,15.0,6.0,0.0
2671,77.0,10.0,15.0,8.0,0.0
2672,83.0,0.0,15.0,4.0,0.0
2673,78.0,0.0,15.0,8.0,0.0
2674,54.0,0.0,30.0,3.0,0.0
2675,85.0,10.0,15.0,4.0,0.0
2676,81.0,0.0,15.0,6.0,0.0
2677,80.0,10.0,15.0,6.0,0.0
2678,77.0,0.0,15.0,8.0,0.0
2679,83.0,0.0,15.0,4.0,0.0
2680,81.0,0.0,15.0,6.0,0.0
2681,78.0,0.0,15.0,8.0,0.0
2682,85.0,30.0,15.0,4.0,0.0
2683,61.0,0.0,30.0,10.0,0.0
2684,73.0,0.0,90.0,2.0,0.0
2685,80.0,0.0,90.0,1.0,0.0
2686,77.0,0.0,90.0,8.0,0.0
2687,53.0,29.0,30.0,7.0,0.0
2688,83.0,1.0,90.0,4.0,0.0
2689,80.0,0.0,90.0,6.0,0.0
2690,83.0,0.0,90.0,0.0,0.0
2691,53.0,0.0,30.0,3.0,0.0
2692,49.0,1.0,30.0,5.0,0.0
2693,53.0,0.0,30.0,5.0,0.0
2694,56.0,29.0,30.0,7.0,0.0
2695,56.0,0.0,30.0,10.0,0.0
2696,56.0,1.0,30.0,3.0,0.0
2697,56.0,0.0,30.0,5.0,0.0
2698,49.0,0.0,30.0,3.0,0.0
2699,59.0,29.0,30.0,7.0,0.0
2700,53.0,0.0,30.0,10.0,0.0
2701,86.0,0.0,30.0,6.0,0.0
2702,80.0,0.0,30.0,8.0,0.0
2703,77.0,0.0,30.0,1.0,0.0
2704,47.0,0.0,30.0,3.0,0.0
2705,86.0,0.0,30.0,0.0,0.0
2706,68.0,1.0,30.0,2.0,0.0
2707,49.0,0.0,30.0,10.0,0.0
2708,77.0,0.0,30.0,4.0,0.0
2709,56.0,59.0,30.0,7.0,0.0
2710,59.0,0.0,30.0,5.0,0.0
2711,85.0,0.0,60.0,0.0,0.0
2712,78.0,0.0,60.0,1.0,0.0
2713,45.0,0.0,60.0,3.0,0.0
2714,85.0,0.0,60.0,6.0,0.0
2715,78.0,0.0,60.0,4.0,0.0
2716,69.0,1.0,60.0,2.0,0.0
2717,57.0,0.0,60.0,10.0,0.0
2718,57.0,59.0,60.0,7.0,0.0
2719,57.0,0.0,60.0,5.0,0.0
2720,73.0,0.0,60.0,8.0,0.0
2721,74.0,0.0,30.0,8.0,0.0
2722,59.0,0.0,30.0,5.0,0.0
2723,78.0,0.0,30.0,0.0,0.0
2724,74.0,0.0,30.0,2.0,0.0
2725,47.0,0.0,30.0,3.0,0.0
2726,80.0,0.0,30.0,1.0,0.0
2727,59.0,0.0,30.0,10.0,0.0
2728,78.0,0.0,30.0,6.0,0.0
2729,80.0,0.0,30.0,4.0,0.0
2730,59.0,30.0,30.0,7.0,0.0
2731,77.0,0.0,90.0,6.0,0.0
2732,80.0,30.0,90.0,4.0,0.0
2733,80.0,0.0,90.0,1.0,0.0
2734,73.0,30.0,30.0,8.0,0.0
2735,49.0,0.0,60.0,3.0,0.0
2736,61.0,0.0,60.0,10.0,0.0
2737,61.0,0.0,60.0,7.0,0.0
2738,73.0,0.0,60.0,2.0,0.0
2739,77.0,0.0,90.0,0.0,0.0
2740,61.0,30.0,60.0,5.0,0.0
2741,68.0,0.0,30.0,8.0,0.0
2742,49.0,0.0,60.0,5.0,0.0
2743,59.0,0.0,60.0,10.0,0.0
2744,56.0,0.0,60.0,7.0,0.0
2745,47.0,0.0,60.0,3.0,0.0
2746,65.0,0.0,30.0,8.0,0.0
2747,73.0,0.0,60.0,2.0,0.0
2748,78.0,0.0,30.0,1.0,0.0
2749,78.0,0.0,30.0,0.0,0.0
2750,61.0,0.0,30.0,8.0,0.0
2751,78.0,0.0,30.0,6.0,0.0
2752,78.0,30.0,30.0,4.0,0.0
2753,76.0,0.0,180.0,2.0,0.0
2754,78.0,0.0,60.0,4.0,0.0
2755,58.0,0.0,30.0,7.0,0.0
2756,46.0,30.0,60.0,5.0,0.0
2757,58.0,0.0,120.0,10.0,0.0
2758,46.0,29.0,120.0,3.0,0.0
2759,78.0,0.0,60.0,1.0,0.0
2760,78.0,0.0,360.0,0.0,0.0
2761,78.0,0.0,120.0,6.0,0.0
2762,73.0,30.0,30.0,8.0,0.0
2763,61.0,0.0,30.0,7.0,0.0
2764,66.0,0.0,30.0,8.0,0.0
2765,70.0,0.0,30.0,8.0,0.0
2766,78.0,0.0,60.0,4.0,0.0
2767,76.0,0.0,60.0,4.0,0.0
2768,73.0,0.0,60.0,4.0,0.0
2769,66.0,30.0,30.0,7.0,0.0
2770,49.0,0.0,60.0,5.0,0.0
2771,73.0,0.0,30.0,8.0,0.0
2772,70.0,1.0,30.0,7.0,0.0
2773,73.0,0.0,60.0,4.0,0.0
2774,66.0,30.0,30.0,7.0,0.0
2775,78.0,0.0,60.0,4.0,0.0
2776,70.0,0.0,30.0,8.0,0.0
2777,54.0,0.0,60.0,5.0,0.0
2778,76.0,60.0,60.0,4.0,0.0
2779,66.0,0.0,30.0,8.0,0.0
2780,61.0,0.0,30.0,7.0,0.0
2781,71.0,0.0,60.0,4.0,0.0
2782,78.0,0.0,60.0,4.0,0.0
2783,62.0,0.0,120.0,7.0,0.0
2784,74.0,0.0,60.0,4.0,0.0
2785,47.0,29.0,120.0,3.0,0.0
2786,74.0,60.0,180.0,2.0,0.0
2787,78.0,1.0,120.0,8.0,0.0
2788,47.0,30.0,60.0,5.0,0.0
2789,78.0,29.0,900.0,1.0,0.0
2790,54.0,0.0,30.0,10.0,0.0
2791,71.0,0.0,30.0,6.0,0.0
2792,78.0,0.0,60.0,4.0,0.0
2793,54.0,0.0,60.0,5.0,0.0
2794,71.0,0.0,60.0,4.0,0.0
2795,74.0,0.0,60.0,4.0,0.0
2796,74.0,0.0,30.0,6.0,0.0
2797,59.0,30.0,30.0,10.0,0.0
2798,62.0,0.0,30.0,10.0,0.0
2799,78.0,0.0,30.0,6.0,0.0
2800,59.0,30.0,30.0,10.0,0.0
2801,59.0,0.0,60.0,5.0,0.0
2802,74.0,0.0,60.0,4.0,0.0
2803,78.0,0.0,60.0,4.0,0.0
2804,74.0,0.0,30.0,6.0,0.0
2805,71.0,0.0,30.0,6.0,0.0
2806,54.0,0.0,30.0,10.0,0.0
2807,68.0,0.0,120.0,6.0,0.0
2808,48.0,0.0,60.0,5.0,0.0
2809,60.0,1.0,120.0,10.0,0.0
2810,48.0,29.0,120.0,3.0,0.0
2811,80.0,30.0,60.0,4.0,0.0
2812,78.0,0.0,60.0,4.0,0.0
2813,75.0,0.0,60.0,4.0,0.0
2814,80.0,0.0,180.0,0.0,0.0
2815,75.0,0.0,180.0,2.0,0.0
2816,72.0,0.0,30.0,8.0,0.0
2817,56.0,0.0,30.0,7.0,0.0
2818,51.0,0.0,60.0,5.0,0.0
2819,75.0,0.0,30.0,8.0,0.0
2820,78.0,0.0,60.0,4.0,0.0
2821,75.0,0.0,60.0,4.0,0.0
2822,60.0,30.0,30.0,7.0,0.0
2823,80.0,0.0,60.0,4.0,0.0
2824,63.0,0.0,30.0,7.0,0.0
2825,80.0,0.0,30.0,8.0,0.0
2826,56.0,0.0,60.0,5.0,0.0
2827,75.0,60.0,60.0,4.0,0.0
2828,60.0,0.0,30.0,7.0,0.0
2829,75.0,30.0,30.0,8.0,0.0
2830,78.0,0.0,60.0,4.0,0.0
2831,80.0,0.0,60.0,4.0,0.0
2832,56.0,0.0,30.0,7.0,0.0
2833,72.0,0.0,30.0,8.0,0.0
2834,73.0,0.0,180.0,2.0,0.0
2835,61.0,0.0,120.0,7.0,0.0
2836,81.0,0.0,120.0,8.0,0.0
2837,78.0,0.0,60.0,4.0,0.0
2838,73.0,0.0,60.0,4.0,0.0
2839,49.0,0.0,60.0,5.0,0.0
2840,81.0,0.0,60.0,4.0,0.0
2841,81.0,0.0,180.0,0.0,0.0
2842,49.0,29.0,120.0,3.0,0.0
2843,69.0,0.0,30.0,6.0,0.0
2844,54.0,30.0,30.0,10.0,0.0
2845,81.0,0.0,60.0,4.0,0.0
2846,73.0,0.0,30.0,6.0,0.0
2847,57.0,30.0,30.0,10.0,0.0
2848,54.0,0.0,60.0,5.0,0.0
2849,73.0,0.0,60.0,4.0,0.0
2850,78.0,0.0,60.0,4.0,0.0
2851,61.0,1.0,30.0,10.0,0.0
2852,78.0,0.0,30.0,6.0,0.0
2853,73.0,0.0,30.0,6.0,0.0
2854,81.0,0.0,60.0,4.0,0.0
2855,78.0,0.0,60.0,4.0,0.0
2856,73.0,60.0,60.0,4.0,0.0
2857,57.0,0.0,60.0,5.0,0.0
2858,57.0,30.0,30.0,10.0,0.0
2859,54.0,0.0,30.0,10.0,0.0
2860,69.0,0.0,30.0,6.0,0.0
2861,66.0,0.0,120.0,6.0,0.0
2862,50.0,29.0,120.0,3.0,0.0
2863,83.0,0.0,180.0,0.0,0.0
2864,71.0,0.0,180.0,2.0,0.0
2865,71.0,30.0,60.0,4.0,0.0
2866,62.0,0.0,120.0,10.0,0.0
2867,83.0,0.0,60.0,4.0,0.0
2868,78.0,0.0,60.0,4.0,0.0
2869,50.0,0.0,60.0,5.0,0.0
2870,59.0,0.0,30.0,7.0,0.0
2871,66.0,0.0,30.0,8.0,0.0
2872,71.0,0.0,60.0,4.0,0.0
2873,71.0,0.0,30.0,8.0,0.0
2874,62.0,30.0,30.0,7.0,0.0
2875,78.0,0.0,60.0,4.0,0.0
2876,83.0,0.0,60.0,4.0,0.0
2877,54.0,0.0,60.0,5.0,0.0
2878,74.0,0.0,30.0,8.0,0.0
2879,66.0,1.0,30.0,7.0,0.0
2880,62.0,0.0,30.0,7.0,0.0
2881,71.0,30.0,30.0,8.0,0.0
2882,71.0,0.0,60.0,4.0,0.0
2883,78.0,0.0,60.0,4.0,0.0
2884,83.0,0.0,60.0,4.0,0.0
2885,59.0,0.0,60.0,5.0,0.0
2886,59.0,60.0,30.0,7.0,0.0
2887,66.0,0.0,30.0,8.0,0.0
2888,69.0,0.0,180.0,2.0,0.0
2889,78.0,0.0,120.0,8.0,0.0
2890,51.0,30.0,60.0,5.0,0.0
2891,51.0,29.0,120.0,3.0,0.0
2892,57.0,0.0,120.0,7.0,0.0
2893,84.0,0.0,180.0,0.0,0.0
2894,60.0,0.0,30.0,10.0,0.0
2895,78.0,0.0,30.0,6.0,0.0
2896,78.0,0.0,30.0,4.0,0.0
2897,75.0,0.0,30.0,6.0,0.0
2898,84.0,30.0,30.0,4.0,0.0
2899,54.0,0.0,60.0,5.0,0.0
2900,63.0,0.0,30.0,10.0,0.0
2901,87.0,0.0,30.0,4.0,0.0
2902,72.0,1.0,30.0,6.0,0.0
2903,66.0,0.0,30.0,10.0,0.0
2904,57.0,0.0,60.0,5.0,0.0
2905,75.0,0.0,30.0,6.0,0.0
2906,63.0,0.0,30.0,10.0,0.0
2907,84.0,30.0,30.0,4.0,0.0
2908,78.0,1.0,30.0,6.0,0.0
2909,78.0,0.0,30.0,4.0,0.0
2910,60.0,0.0,30.0,10.0,0.0
2911,80.0,0.0,60.0,1.0,0.0
2912,53.0,30.0,30.0,5.0,0.0
2913,56.0,0.0,60.0,10.0,0.0
2914,85.0,0.0,30.0,4.0,0.0
2915,68.0,30.0,60.0,2.0,0.0
2916,53.0,0.0,30.0,3.0,0.0
2917,80.0,0.0,60.0,6.0,0.0
2918,85.0,0.0,30.0,0.0,0.0
2919,80.0,0.0,30.0,4.0,0.0
2920,80.0,0.0,30.0,0.0,0.0
2921,62.0,0.0,30.0,3.0,0.0
2922,59.0,0.0,30.0,7.0,0.0
2923,62.0,0.0,30.0,5.0,0.0
2924,77.0,0.0,30.0,8.0,0.0
2925,81.0,0.0,30.0,4.0,0.0
2926,61.0,0.0,30.0,3.0,0.0
2927,78.0,0.0,30.0,8.0,0.0
2928,57.0,0.0,30.0,7.0,0.0
2929,81.0,0.0,30.0,0.0,0.0
2930,61.0,30.0,30.0,5.0,0.0
2931,59.0,0.0,30.0,5.0,0.0
2932,56.0,0.0,30.0,7.0,0.0
2933,56.0,0.0,30.0,10.0,0.0
2934,80.0,0.0,30.0,8.0,0.0
2935,77.0,0.0,30.0,4.0,0.0
2936,77.0,0.0,30.0,0.0,0.0
2937,86.0,0.0,30.0,1.0,0.0
2938,59.0,0.0,30.0,3.0,0.0
2939,86.0,30.0,30.0,6.0,0.0
2940,85.0,0.0,60.0,6.0,0.0
2941,85.0,0.0,30.0,1.0,0.0
2942,57.0,0.0,30.0,7.0,0.0
2943,78.0,0.0,60.0,4.0,0.0
2944,78.0,0.0,60.0,0.0,0.0
2945,73.0,0.0,60.0,8.0,0.0
2946,57.0,0.0,30.0,3.0,0.0
2947,57.0,0.0,30.0,5.0,0.0
2948,57.0,30.0,30.0,10.0,0.0
2949,66.0,0.0,30.0,3.0,0.0
2950,66.0,0.0,30.0,5.0,0.0
2951,61.0,0.0,30.0,7.0,0.0
2952,54.0,0.0,30.0,10.0,0.0
2953,81.0,0.0,30.0,1.0,0.0
2954,66.0,30.0,30.0,2.0,0.0
2955,62.0,0.0,30.0,3.0,0.0
2956,62.0,0.0,30.0,10.0,0.0
2957,78.0,30.0,30.0,1.0,0.0
2958,69.0,0.0,30.0,2.0,0.0
2959,54.0,0.0,30.0,7.0,0.0
2960,62.0,0.0,30.0,5.0,0.0
2961,80.0,0.0,30.0,1.0,0.0
2962,80.0,0.0,30.0,4.0,0.0
2963,74.0,0.0,30.0,8.0,0.0
2964,59.0,0.0,30.0,7.0,0.0
2965,59.0,0.0,30.0,3.0,0.0
2966,59.0,0.0,30.0,5.0,0.0
2967,78.0,0.0,30.0,6.0,0.0
2968,80.0,0.0,30.0,0.0,0.0
2969,74.0,60.0,30.0,2.0,0.0
2970,59.0,0.0,30.0,10.0,0.0
2971,61.0,0.0,60.0,10.0,0.0
2972,77.0,0.0,90.0,6.0,0.0
2973,61.0,0.0,60.0,3.0,0.0
2974,61.0,0.0,60.0,5.0,0.0
2975,77.0,30.0,90.0,1.0,0.0
2976,73.0,30.0,60.0,8.0,0.0
2977,73.0,0.0,60.0,2.0,0.0
2978,61.0,0.0,60.0,7.0,0.0
2979,80.0,0.0,90.0,0.0,0.0
2980,80.0,0.0,90.0,4.0,0.0
2981,71.0,0.0,60.0,8.0,0.0
2982,65.0,0.0,60.0,8.0,0.0
2983,49.0,0.0,60.0,10.0,0.0
2984,49.0,0.0,60.0,5.0,0.0
2985,49.0,0.0,60.0,3.0,0.0
2986,71.0,0.0,60.0,2.0,0.0
2987,68.0,0.0,60.0,8.0,0.0
2988,49.0,0.0,60.0,7.0,0.0
2989,78.0,0.0,30.0,1.0,0.0
2990,78.0,0.0,60.0,6.0,0.0
2991,78.0,30.0,30.0,0.0,0.0
2992,78.0,0.0,30.0,4.0,0.0
2993,54.0,0.0,120.0,10.0,0.0
2994,54.0,0.0,120.0,5.0,0.0
2995,42.0,0.0,120.0,7.0,0.0
2996,78.0,0.0,60.0,1.0,0.0
2997,78.0,0.0,60.0,0.0,0.0
2998,69.0,30.0,60.0,2.0,0.0
2999,42.0,0.0,120.0,3.0,0.0
3000,66.0,0.0,120.0,8.0,0.0
3001,69.0,0.0,120.0,8.0,0.0
3002,61.0,0.0,120.0,8.0,0.0
3003,78.0,30.0,30.0,4.0,0.0
3004,78.0,0.0,120.0,6.0,0.0
3005,73.0,0.0,30.0,4.0,0.0
3006,66.0,0.0,60.0,2.0,0.0
3007,81.0,0.0,60.0,0.0,0.0
3008,71.0,30.0,30.0,4.0,0.0
3009,73.0,0.0,60.0,1.0,0.0
3010,69.0,30.0,30.0,4.0,0.0
3011,69.0,0.0,60.0,1.0,0.0
3012,68.0,30.0,30.0,4.0,0.0
3013,85.0,30.0,60.0,0.0,0.0
3014,61.0,0.0,60.0,2.0,0.0
3015,66.0,0.0,30.0,4.0,0.0
3016,56.0,0.0,60.0,3.0,0.0
3017,71.0,0.0,60.0,1.0,0.0
3018,73.0,0.0,60.0,0.0,0.0
3019,65.0,0.0,60.0,2.0,0.0
3020,65.0,30.0,30.0,4.0,0.0
3021,62.0,0.0,30.0,5.0,0.0
3022,68.0,30.0,30.0,4.0,0.0
3023,71.0,30.0,30.0,4.0,0.0
3024,61.0,0.0,30.0,5.0,0.0
3025,53.0,0.0,60.0,3.0,0.0
3026,74.0,0.0,30.0,4.0,0.0
3027,59.0,30.0,30.0,5.0,0.0
3028,73.0,30.0,30.0,4.0,0.0
3029,57.0,0.0,30.0,5.0,0.0
3030,49.0,0.0,60.0,3.0,0.0
3031,56.0,0.0,30.0,5.0,0.0
3032,71.0,30.0,30.0,4.0,0.0
3033,54.0,30.0,120.0,3.0,0.0
3034,54.0,0.0,120.0,5.0,0.0
3035,73.0,0.0,60.0,0.0,0.0
3036,66.0,0.0,60.0,2.0,0.0
3037,69.0,30.0,60.0,1.0,0.0
3038,69.0,30.0,30.0,4.0,0.0
3039,73.0,0.0,30.0,4.0,0.0
3040,69.0,0.0,60.0,2.0,0.0
3041,71.0,30.0,30.0,4.0,0.0
3042,78.0,0.0,60.0,0.0,0.0
3043,73.0,0.0,60.0,1.0,0.0
3044,69.0,0.0,30.0,4.0,0.0
3045,78.0,0.0,60.0,1.0,0.0
3046,73.0,0.0,60.0,2.0,0.0
3047,81.0,0.0,60.0,0.0,0.0
3048,68.0,30.0,30.0,4.0,0.0
3049,66.0,30.0,30.0,4.0,0.0
3050,63.0,0.0,60.0,3.0,0.0
3051,72.0,30.0,60.0,0.0,0.0
3052,81.0,0.0,60.0,1.0,0.0
3053,72.0,30.0,30.0,4.0,0.0
3054,78.0,0.0,60.0,2.0,0.0
3055,69.0,0.0,30.0,5.0,0.0
3056,75.0,0.0,30.0,4.0,0.0
3057,60.0,0.0,60.0,3.0,0.0
3058,68.0,0.0,30.0,5.0,0.0
3059,78.0,30.0,30.0,4.0,0.0
3060,81.0,0.0,30.0,4.0,0.0
3061,66.0,30.0,30.0,5.0,0.0
3062,64.0,0.0,30.0,5.0,0.0
3063,56.0,0.0,60.0,3.0,0.0
3064,80.0,30.0,30.0,4.0,0.0
3065,78.0,0.0,30.0,4.0,0.0
3066,63.0,30.0,30.0,5.0,0.0
3067,76.0,30.0,30.0,4.0,0.0
3068,61.0,0.0,120.0,3.0,0.0
3069,80.0,0.0,60.0,0.0,0.0
3070,64.0,0.0,60.0,2.0,0.0
3071,61.0,0.0,120.0,5.0,0.0
3072,73.0,0.0,60.0,1.0,0.0
3073,80.0,30.0,30.0,4.0,0.0
3074,68.0,0.0,60.0,2.0,0.0
3075,78.0,30.0,30.0,4.0,0.0
3076,76.0,30.0,60.0,1.0,0.0
3077,85.0,0.0,60.0,0.0,0.0
3078,76.0,0.0,30.0,4.0,0.0
3079,75.0,30.0,30.0,4.0,0.0
3080,80.0,0.0,60.0,1.0,0.0
3081,88.0,0.0,60.0,0.0,0.0
3082,73.0,30.0,60.0,2.0,0.0
3083,73.0,0.0,30.0,4.0,0.0
3084,79.0,0.0,60.0,0.0,0.0
3085,85.0,30.0,60.0,1.0,0.0
3086,76.0,0.0,60.0,2.0,0.0
3087,58.0,0.0,60.0,3.0,0.0
3088,79.0,30.0,30.0,4.0,0.0
3089,82.0,0.0,30.0,4.0,0.0
3090,76.0,0.0,30.0,5.0,0.0
3091,55.0,0.0,60.0,3.0,0.0
3092,85.0,0.0,30.0,4.0,0.0
3093,75.0,30.0,30.0,5.0,0.0
3094,88.0,0.0,30.0,4.0,0.0
3095,73.0,30.0,30.0,5.0,0.0
3096,51.0,0.0,60.0,3.0,0.0
3097,87.0,30.0,30.0,4.0,0.0
3098,72.0,0.0,30.0,5.0,0.0
3099,85.0,0.0,30.0,4.0,0.0
3100,70.0,30.0,30.0,5.0,0.0
3101,80.0,0.0,60.0,0.0,0.0
3102,56.0,0.0,120.0,3.0,0.0
3103,75.0,0.0,60.0,2.0,0.0
3104,84.0,0.0,60.0,1.0,0.0
3105,84.0,30.0,30.0,4.0,0.0
3106,68.0,0.0,60.0,5.0,0.0
3107,80.0,30.0,30.0,4.0,0.0
3108,87.0,30.0,30.0,4.0,0.0
3109,72.0,0.0,60.0,2.0,0.0
3110,87.0,0.0,60.0,1.0,0.0
3111,78.0,0.0,60.0,0.0,0.0
3112,72.0,30.0,60.0,5.0,0.0
3113,81.0,0.0,30.0,4.0,0.0
3114,80.0,30.0,30.0,4.0,0.0
3115,75.0,30.0,60.0,5.0,0.0
3116,78.0,0.0,30.0,4.0,0.0
3117,76.0,30.0,30.0,4.0,0.0
3118,56.0,0.0,120.0,3.0,0.0
3119,76.0,0.0,60.0,0.0,0.0
3120,73.0,0.0,60.0,5.0,0.0
3121,80.0,0.0,60.0,1.0,0.0
3122,73.0,0.0,60.0,2.0,0.0
3123,80.0,30.0,30.0,4.0,0.0
3124,76.0,30.0,60.0,2.0,0.0
3125,85.0,0.0,60.0,0.0,0.0
3126,64.0,0.0,60.0,5.0,0.0
3127,68.0,0.0,60.0,1.0,0.0
3128,85.0,30.0,30.0,4.0,0.0
3129,80.0,0.0,30.0,4.0,0.0
3130,78.0,30.0,30.0,4.0,0.0
3131,61.0,30.0,60.0,5.0,0.0
3132,76.0,0.0,30.0,4.0,0.0
3133,56.0,30.0,60.0,3.0,0.0
3134,75.0,0.0,30.0,4.0,0.0
3135,68.0,0.0,60.0,1.0,0.0
3136,75.0,0.0,60.0,2.0,0.0
3137,68.0,30.0,30.0,5.0,0.0
3138,85.0,0.0,60.0,0.0,0.0
3139,85.0,0.0,30.0,4.0,0.0
3140,69.0,0.0,30.0,5.0,0.0
3141,84.0,30.0,30.0,4.0,0.0
3142,68.0,0.0,60.0,2.0,0.0
3143,68.0,0.0,30.0,5.0,0.0
3144,84.0,30.0,60.0,0.0,0.0
3145,68.0,0.0,60.0,3.0,0.0
3146,75.0,0.0,60.0,1.0,0.0
3147,87.0,0.0,30.0,4.0,0.0
3148,66.0,0.0,30.0,5.0,0.0
3149,64.0,0.0,30.0,5.0,0.0
3150,80.0,30.0,30.0,4.0,0.0
3151,60.0,30.0,60.0,3.0,0.0
3152,63.0,0.0,30.0,5.0,0.0
3153,78.0,0.0,30.0,4.0,0.0
3154,61.0,0.0,30.0,5.0,0.0
3155,85.0,0.0,60.0,0.0,0.0
3156,61.0,0.0,60.0,3.0,0.0
3157,76.0,30.0,30.0,4.0,0.0
3158,76.0,0.0,60.0,1.0,0.0
3159,68.0,30.0,60.0,2.0,0.0
3160,68.0,0.0,30.0,5.0,0.0
3161,85.0,0.0,30.0,4.0,0.0
3162,54.0,30.0,60.0,3.0,0.0
3163,85.0,0.0,60.0,0.0,0.0
3164,69.0,0.0,60.0,2.0,0.0
3165,75.0,0.0,60.0,1.0,0.0
3166,66.0,30.0,30.0,5.0,0.0
3167,75.0,0.0,30.0,4.0,0.0
3168,64.0,0.0,30.0,5.0,0.0
3169,85.0,0.0,30.0,4.0,0.0
3170,83.0,0.0,60.0,0.0,0.0
3171,83.0,0.0,30.0,4.0,0.0
3172,56.0,0.0,60.0,3.0,0.0
3173,75.0,30.0,60.0,1.0,0.0
3174,63.0,30.0,30.0,5.0,0.0
3175,68.0,0.0,60.0,2.0,0.0
3176,75.0,0.0,30.0,4.0,0.0
3177,68.0,0.0,30.0,5.0,0.0
3178,77.0,0.0,60.0,0.0,0.0
3179,73.0,0.0,60.0,1.0,0.0
3180,71.0,0.0,60.0,5.0,0.0
3181,68.0,0.0,60.0,2.0,0.0
3182,77.0,30.0,30.0,4.0,0.0
3183,49.0,0.0,120.0,3.0,0.0
3184,73.0,30.0,30.0,4.0,0.0
3185,80.0,30.0,30.0,4.0,0.0
3186,80.0,0.0,60.0,0.0,0.0
3187,71.0,30.0,60.0,1.0,0.0
3188,65.0,0.0,60.0,2.0,0.0
3189,61.0,0.0,60.0,5.0,0.0
3190,74.0,0.0,30.0,4.0,0.0
3191,65.0,0.0,60.0,5.0,0.0
3192,73.0,30.0,30.0,4.0,0.0
3193,71.0,30.0,30.0,4.0,0.0
3194,69.0,0.0,60.0,1.0,0.0
3195,69.0,30.0,30.0,4.0,0.0
3196,49.0,0.0,120.0,3.0,0.0
3197,73.0,0.0,60.0,0.0,0.0
3198,66.0,0.0,60.0,5.0,0.0
3199,66.0,0.0,60.0,2.0,0.0
3200,73.0,30.0,30.0,4.0,0.0
3201,57.0,0.0,60.0,5.0,0.0
3202,61.0,0.0,60.0,0.0,0.0
3203,78.0,30.0,30.0,4.0,0.0
3204,69.0,0.0,60.0,2.0,0.0
3205,78.0,0.0,60.0,1.0,0.0
3206,73.0,30.0,30.0,4.0,0.0
3207,54.0,30.0,60.0,5.0,0.0
3208,71.0,30.0,30.0,4.0,0.0
3209,69.0,0.0,30.0,4.0,0.0
3210,61.0,0.0,30.0,5.0,0.0
3211,68.0,0.0,60.0,2.0,0.0
3212,78.0,0.0,60.0,1.0,0.0
3213,61.0,0.0,60.0,0.0,0.0
3214,68.0,30.0,30.0,4.0,0.0
3215,49.0,30.0,60.0,3.0,0.0
3216,62.0,0.0,30.0,5.0,0.0
3217,78.0,0.0,30.0,4.0,0.0
3218,77.0,0.0,30.0,4.0,0.0
3219,61.0,30.0,60.0,2.0,0.0
3220,68.0,0.0,60.0,0.0,0.0
3221,61.0,30.0,30.0,5.0,0.0
3222,77.0,0.0,60.0,1.0,0.0
3223,61.0,0.0,60.0,3.0,0.0
3224,80.0,0.0,30.0,4.0,0.0
3225,59.0,0.0,30.0,5.0,0.0
3226,57.0,0.0,30.0,5.0,0.0
3227,53.0,0.0,60.0,3.0,0.0
3228,73.0,30.0,30.0,4.0,0.0
3229,71.0,30.0,30.0,4.0,0.0
3230,56.0,0.0,30.0,5.0,0.0
3231,69.0,0.0,30.0,4.0,0.0
3232,78.0,0.0,60.0,1.0,0.0
3233,54.0,30.0,60.0,3.0,0.0
3234,61.0,0.0,60.0,2.0,0.0
3235,54.0,30.0,30.0,5.0,0.0
3236,69.0,0.0,60.0,0.0,0.0
3237,61.0,0.0,30.0,5.0,0.0
3238,78.0,0.0,30.0,4.0,0.0
3239,68.0,0.0,60.0,0.0,0.0
3240,78.0,0.0,60.0,1.0,0.0
3241,47.0,0.0,60.0,3.0,0.0
3242,68.0,0.0,30.0,4.0,0.0
3243,62.0,0.0,60.0,2.0,0.0
3244,59.0,30.0,30.0,5.0,0.0
3245,78.0,0.0,30.0,4.0,0.0
3246,57.0,30.0,30.0,5.0,0.0
3247,56.0,0.0,30.0,5.0,0.0
3248,61.0,0.0,60.0,2.0,0.0
3249,76.0,0.0,60.0,1.0,0.0
3250,68.0,30.0,60.0,0.0,0.0
3251,49.0,0.0,60.0,3.0,0.0
3252,76.0,30.0,30.0,4.0,0.0
3253,61.0,0.0,30.0,5.0,0.0
3254,68.0,0.0,30.0,4.0,0.0
3255,70.0,0.0,60.0,1.0,0.0
3256,66.0,0.0,60.0,0.0,0.0
3257,54.0,0.0,60.0,3.0,0.0
3258,61.0,0.0,60.0,2.0,0.0
3259,70.0,0.0,30.0,4.0,0.0
3260,64.0,30.0,30.0,5.0,0.0
3261,67.0,30.0,30.0,5.0,0.0
3262,73.0,0.0,30.0,4.0,0.0
3263,73.0,30.0,60.0,2.0,0.0
3264,76.0,0.0,60.0,0.0,0.0
3265,58.0,0.0,60.0,3.0,0.0
3266,66.0,0.0,30.0,5.0,0.0
3267,66.0,0.0,60.0,1.0,0.0
3268,76.0,30.0,30.0,4.0,0.0
3269,64.0,0.0,30.0,5.0,0.0
3270,79.0,0.0,30.0,4.0,0.0
3271,78.0,30.0,30.0,4.0,0.0
3272,62.0,0.0,30.0,5.0,0.0
3273,54.0,0.0,60.0,3.0,0.0
3274,76.0,30.0,30.0,4.0,0.0
3275,61.0,0.0,30.0,5.0,0.0
3276,71.0,0.0,60.0,2.0,0.0
3277,74.0,0.0,60.0,0.0,0.0
3278,78.0,0.0,60.0,1.0,0.0
3279,59.0,0.0,60.0,3.0,0.0
3280,59.0,0.0,60.0,5.0,0.0
3281,74.0,30.0,30.0,4.0,0.0
3282,78.0,30.0,30.0,4.0,0.0
3283,83.0,30.0,30.0,4.0,0.0
3284,83.0,30.0,60.0,1.0,0.0
3285,66.0,0.0,60.0,5.0,0.0
3286,66.0,0.0,60.0,2.0,0.0
3287,62.0,0.0,60.0,3.0,0.0
3288,71.0,0.0,60.0,0.0,0.0
3289,85.0,0.0,30.0,4.0,0.0
3290,86.0,30.0,30.0,4.0,0.0
3291,71.0,0.0,120.0,5.0,0.0
3292,59.0,30.0,60.0,3.0,0.0
3293,81.0,0.0,30.0,4.0,0.0
3294,79.0,30.0,30.0,4.0,0.0
3295,79.0,0.0,60.0,0.0,0.0
3296,71.0,0.0,60.0,1.0,0.0
3297,52.0,0.0,60.0,3.0,0.0
3298,64.0,30.0,60.0,2.0,0.0
3299,83.0,0.0,30.0,4.0,0.0
3300,71.0,30.0,60.0,2.0,0.0
3301,76.0,0.0,30.0,4.0,0.0
3302,76.0,0.0,60.0,0.0,0.0
3303,73.0,30.0,30.0,5.0,0.0
3304,55.0,0.0,60.0,3.0,0.0
3305,76.0,0.0,60.0,1.0,0.0
3306,86.0,0.0,30.0,4.0,0.0
3307,74.0,0.0,30.0,5.0,0.0
3308,85.0,30.0,30.0,4.0,0.0
3309,52.0,30.0,60.0,3.0,0.0
3310,79.0,0.0,60.0,1.0,0.0
3311,76.0,0.0,120.0,5.0,0.0
3312,67.0,0.0,60.0,2.0,0.0
3313,85.0,0.0,60.0,0.0,0.0
3314,83.0,0.0,30.0,4.0,0.0
3315,61.0,0.0,60.0,2.0,0.0
3316,82.0,0.0,60.0,0.0,0.0
3317,54.0,29.0,120.0,3.0,0.0
3318,78.0,0.0,60.0,1.0,0.0
3319,82.0,30.0,30.0,4.0,0.0
3320,78.0,30.0,30.0,4.0,0.0
3321,85.0,30.0,30.0,4.0,0.0
3322,70.0,0.0,60.0,2.0,0.0
3323,78.0,0.0,60.0,0.0,0.0
3324,66.0,0.0,60.0,5.0,0.0
3325,85.0,0.0,60.0,1.0,0.0
3326,79.0,1.0,30.0,4.0,0.0
3327,78.0,30.0,30.0,4.0,0.0
3328,70.0,0.0,60.0,5.0,0.0
3329,76.0,30.0,30.0,4.0,0.0
3330,71.0,0.0,60.0,5.0,0.0
3331,54.0,29.0,120.0,3.0,0.0
3332,78.0,0.0,60.0,0.0,0.0
3333,74.0,0.0,60.0,1.0,0.0
3334,71.0,0.0,60.0,2.0,0.0
3335,74.0,30.0,30.0,4.0,0.0
3336,78.0,30.0,30.0,4.0,0.0
3337,83.0,30.0,30.0,4.0,0.0
3338,62.0,0.0,60.0,5.0,0.0
3339,74.0,0.0,60.0,2.0,0.0
3340,83.0,0.0,60.0,0.0,0.0
3341,78.0,0.0,60.0,1.0,0.0
3342,78.0,1.0,30.0,4.0,0.0
3343,76.0,30.0,30.0,4.0,0.0
3344,59.0,0.0,60.0,5.0,0.0
3345,74.0,30.0,30.0,4.0,0.0
3346,61.0,0.0,60.0,2.0,0.0
3347,83.0,0.0,60.0,0.0,0.0
3348,54.0,0.0,60.0,3.0,0.0
3349,73.0,0.0,30.0,4.0,0.0
3350,66.0,30.0,30.0,5.0,0.0
3351,78.0,0.0,60.0,1.0,0.0
3352,67.0,30.0,30.0,5.0,0.0
3353,83.0,0.0,30.0,4.0,0.0
3354,66.0,0.0,60.0,2.0,0.0
3355,73.0,30.0,60.0,1.0,0.0
3356,66.0,0.0,60.0,3.0,0.0
3357,66.0,30.0,30.0,5.0,0.0
3358,82.0,0.0,60.0,0.0,0.0
3359,82.0,0.0,30.0,4.0,0.0
3360,85.0,0.0,30.0,4.0,0.0
3361,64.0,0.0,30.0,5.0,0.0
3362,78.0,0.0,30.0,4.0,0.0
3363,62.0,30.0,30.0,5.0,0.0
3364,58.0,0.0,60.0,3.0,0.0
3365,76.0,30.0,30.0,4.0,0.0
3366,61.0,0.0,30.0,5.0,0.0
3367,83.0,30.0,60.0,0.0,0.0
3368,59.0,30.0,30.0,5.0,0.0
3369,74.0,0.0,30.0,4.0,0.0
3370,59.0,0.0,60.0,3.0,0.0
3371,66.0,0.0,60.0,2.0,0.0
3372,74.0,0.0,60.0,1.0,0.0
3373,83.0,0.0,30.0,4.0,0.0
3374,62.0,0.0,30.0,5.0,0.0
3375,73.0,30.0,60.0,1.0,0.0
3376,73.0,0.0,30.0,4.0,0.0
3377,64.0,30.0,30.0,5.0,0.0
3378,67.0,0.0,60.0,2.0,0.0
3379,52.0,0.0,60.0,3.0,0.0
3380,83.0,0.0,60.0,0.0,0.0
3381,62.0,0.0,30.0,5.0,0.0
3382,83.0,0.0,30.0,4.0,0.0
3383,54.0,0.0,60.0,3.0,0.0
3384,82.0,30.0,30.0,4.0,0.0
3385,73.0,0.0,60.0,1.0,0.0
3386,61.0,0.0,30.0,5.0,0.0
3387,82.0,0.0,60.0,0.0,0.0
3388,66.0,30.0,60.0,2.0,0.0
3389,73.0,0.0,30.0,4.0,0.0
3390,66.0,0.0,30.0,5.0,0.0
3391,76.0,0.0,30.0,4.0,0.0
3392,66.0,0.0,60.0,2.0,0.0
3393,59.0,0.0,30.0,5.0,0.0
3394,59.0,0.0,60.0,3.0,0.0
3395,81.0,0.0,60.0,0.0,0.0
3396,75.0,30.0,30.0,4.0,0.0
3397,75.0,0.0,60.0,1.0,0.0
3398,66.0,0.0,30.0,5.0,0.0
3399,81.0,30.0,30.0,4.0,0.0
3400,80.0,0.0,60.0,0.0,0.0
3401,64.0,0.0,60.0,2.0,0.0
3402,68.0,30.0,30.0,5.0,0.0
3403,64.0,0.0,60.0,3.0,0.0
3404,76.0,0.0,30.0,4.0,0.0
3405,76.0,0.0,60.0,1.0,0.0
3406,81.0,0.0,30.0,4.0,0.0
3407,63.0,30.0,30.0,5.0,0.0
3408,64.0,0.0,30.0,5.0,0.0
3409,80.0,30.0,30.0,4.0,0.0
3410,52.0,0.0,60.0,3.0,0.0
3411,56.0,30.0,30.0,5.0,0.0
3412,71.0,0.0,30.0,4.0,0.0
3413,74.0,0.0,30.0,4.0,0.0
3414,57.0,0.0,30.0,5.0,0.0
3415,73.0,30.0,30.0,4.0,0.0
3416,57.0,0.0,60.0,3.0,0.0
3417,79.0,0.0,60.0,0.0,0.0
3418,73.0,0.0,60.0,1.0,0.0
3419,64.0,30.0,60.0,2.0,0.0
3420,64.0,0.0,30.0,5.0,0.0
3421,79.0,0.0,30.0,4.0,0.0
3422,66.0,0.0,30.0,5.0,0.0
3423,78.0,0.0,60.0,0.0,0.0
3424,74.0,0.0,60.0,1.0,0.0
3425,74.0,30.0,30.0,4.0,0.0
3426,62.0,30.0,60.0,2.0,0.0
3427,62.0,0.0,60.0,3.0,0.0
3428,79.0,0.0,30.0,4.0,0.0
3429,61.0,0.0,30.0,5.0,0.0
3430,78.0,30.0,30.0,4.0,0.0
3431,62.0,0.0,30.0,5.0,0.0
3432,50.0,0.0,60.0,3.0,0.0
3433,54.0,0.0,30.0,5.0,0.0
3434,69.0,30.0,30.0,4.0,0.0
3435,56.0,0.0,30.0,5.0,0.0
3436,71.0,0.0,60.0,1.0,0.0
3437,78.0,0.0,60.0,0.0,0.0
3438,71.0,30.0,30.0,4.0,0.0
3439,62.0,0.0,60.0,2.0,0.0
3440,56.0,30.0,60.0,3.0,0.0
3441,62.0,0.0,30.0,5.0,0.0
3442,78.0,0.0,30.0,4.0,0.0
3443,73.0,0.0,30.0,4.0,0.0
3444,77.0,0.0,60.0,0.0,0.0
3445,61.0,30.0,30.0,5.0,0.0
3446,61.0,0.0,60.0,2.0,0.0
3447,73.0,0.0,60.0,1.0,0.0
3448,61.0,30.0,60.0,3.0,0.0
3449,59.0,0.0,30.0,5.0,0.0
3450,78.0,0.0,30.0,4.0,0.0
3451,49.0,0.0,60.0,3.0,0.0
3452,61.0,0.0,30.0,5.0,0.0
3453,77.0,30.0,30.0,4.0,0.0
3454,68.0,0.0,30.0,4.0,0.0
3455,53.0,30.0,30.0,5.0,0.0
3456,61.0,0.0,60.0,2.0,0.0
3457,70.0,0.0,60.0,1.0,0.0
3458,70.0,0.0,30.0,4.0,0.0
3459,54.0,0.0,60.0,3.0,0.0
3460,54.0,30.0,30.0,5.0,0.0
3461,76.0,0.0,60.0,0.0,0.0
3462,61.0,30.0,30.0,5.0,0.0
3463,76.0,0.0,30.0,4.0,0.0
3464,59.0,30.0,60.0,2.0,0.0
3465,74.0,0.0,30.0,4.0,0.0
3466,59.0,30.0,30.0,5.0,0.0
3467,59.0,0.0,60.0,3.0,0.0
3468,71.0,0.0,60.0,1.0,0.0
3469,74.0,0.0,60.0,0.0,0.0
3470,78.0,0.0,30.0,4.0,0.0
3471,54.0,0.0,30.0,5.0,0.0
3472,83.0,30.0,30.0,4.0,0.0
3473,47.0,0.0,60.0,3.0,0.0
3474,50.0,0.0,30.0,5.0,0.0
3475,47.0,0.0,30.0,5.0,0.0
3476,86.0,30.0,30.0,4.0,0.0
3477,80.0,0.0,30.0,4.0,0.0
3478,80.0,0.0,60.0,0.0,0.0
3479,71.0,30.0,60.0,1.0,0.0
3480,52.0,0.0,60.0,3.0,0.0
3481,52.0,30.0,30.0,5.0,0.0
3482,64.0,0.0,60.0,2.0,0.0
3483,76.0,0.0,30.0,4.0,0.0
3484,59.0,0.0,30.0,5.0,0.0
3485,64.0,0.0,60.0,1.0,0.0
3486,83.0,0.0,60.0,0.0,0.0
3487,83.0,0.0,30.0,4.0,0.0
3488,56.0,0.0,60.0,3.0,0.0
3489,59.0,0.0,60.0,2.0,0.0
3490,56.0,30.0,30.0,5.0,0.0
3491,52.0,30.0,30.0,5.0,0.0
3492,74.0,0.0,30.0,4.0,0.0
3493,64.0,30.0,30.0,5.0,0.0
3494,73.0,0.0,30.0,4.0,0.0
3495,56.0,30.0,30.0,5.0,0.0
3496,71.0,0.0,30.0,4.0,0.0
3497,72.0,30.0,30.0,4.0,0.0
3498,57.0,0.0,60.0,3.0,0.0
3499,81.0,0.0,60.0,0.0,0.0
3500,64.0,0.0,60.0,2.0,0.0
3501,57.0,0.0,30.0,5.0,0.0
3502,72.0,0.0,60.0,1.0,0.0
3503,81.0,30.0,30.0,4.0,0.0
3504,60.0,0.0,30.0,5.0,0.0
3505,64.0,0.0,60.0,3.0,0.0
3506,81.0,0.0,60.0,0.0,0.0
3507,64.0,0.0,60.0,2.0,0.0
3508,71.0,0.0,60.0,1.0,0.0
3509,64.0,30.0,30.0,5.0,0.0
3510,71.0,0.0,30.0,4.0,0.0
3511,81.0,30.0,30.0,4.0,0.0
3512,63.0,0.0,30.0,5.0,0.0
3513,64.0,0.0,120.0,5.0,0.0
3514,71.0,0.0,60.0,1.0,0.0
3515,64.0,30.0,60.0,2.0,0.0
3516,80.0,30.0,30.0,4.0,0.0
3517,52.0,0.0,60.0,3.0,0.0
3518,80.0,0.0,60.0,0.0,0.0
3519,77.0,0.0,30.0,4.0,0.0
3520,64.0,0.0,60.0,2.0,0.0
3521,71.0,0.0,60.0,1.0,0.0
3522,83.0,0.0,60.0,0.0,0.0
3523,74.0,30.0,30.0,4.0,0.0
3524,44.0,30.0,60.0,3.0,0.0
3525,71.0,0.0,30.0,4.0,0.0
3526,52.0,0.0,60.0,5.0,0.0
3527,64.0,0.0,60.0,2.0,0.0
3528,74.0,0.0,60.0,0.0,0.0
3529,71.0,0.0,60.0,1.0,0.0
3530,68.0,30.0,30.0,4.0,0.0
3531,44.0,30.0,60.0,3.0,0.0
3532,71.0,0.0,30.0,4.0,0.0
3533,64.0,30.0,30.0,4.0,0.0
3534,44.0,30.0,60.0,3.0,0.0
3535,62.0,0.0,30.0,4.0,0.0
3536,61.0,30.0,30.0,4.0,0.0
3537,45.0,0.0,60.0,3.0,0.0
3538,64.0,30.0,30.0,4.0,0.0
3539,54.0,0.0,60.0,3.0,0.0
3540,69.0,30.0,30.0,4.0,0.0
3541,73.0,30.0,30.0,4.0,0.0
3542,49.0,0.0,60.0,3.0,0.0
3543,76.0,30.0,30.0,4.0,0.0
3544,80.0,30.0,30.0,4.0,0.0
3545,81.0,30.0,30.0,4.0,0.0
3546,50.0,0.0,30.0,3.0,0.0
3547,62.0,0.0,30.0,5.0,0.0
3548,74.0,60.0,30.0,4.0,0.0
3549,52.0,0.0,60.0,3.0,0.0
3550,64.0,30.0,60.0,5.0,0.0
3551,71.0,30.0,90.0,4.0,0.0
3552,68.0,0.0,90.0,4.0,0.0
3553,40.0,0.0,60.0,3.0,0.0
3554,52.0,60.0,60.0,5.0,0.0
3555,69.0,0.0,30.0,4.0,0.0
3556,45.0,0.0,120.0,3.0,0.0
3557,69.0,0.0,60.0,4.0,0.0
3558,57.0,30.0,30.0,5.0,0.0
3559,81.0,0.0,60.0,0.0,0.0
3560,81.0,0.0,60.0,6.0,0.0
3561,81.0,0.0,60.0,4.0,0.0
3562,81.0,15.0,60.0,8.0,0.0
3563,61.0,30.0,30.0,5.0,0.0
3564,64.0,0.0,30.0,5.0,0.0
3565,85.0,0.0,15.0,6.0,0.0
3566,69.0,0.0,30.0,5.0,0.0
3567,85.0,15.0,15.0,4.0,0.0
3568,85.0,0.0,15.0,8.0,0.0
3569,83.0,0.0,60.0,0.0,0.0
3570,83.0,0.0,15.0,8.0,0.0
3571,83.0,0.0,15.0,6.0,0.0
3572,83.0,15.0,15.0,4.0,0.0
3573,81.0,0.0,15.0,6.0,0.0
3574,68.0,0.0,30.0,5.0,0.0
3575,81.0,0.0,15.0,4.0,0.0
3576,81.0,15.0,15.0,8.0,0.0
3577,83.0,0.0,15.0,4.0,0.0
3578,83.0,60.0,15.0,6.0,0.0
3579,83.0,0.0,15.0,8.0,0.0
3580,85.0,30.0,60.0,0.0,0.0
3581,85.0,0.0,60.0,6.0,0.0
3582,85.0,0.0,60.0,4.0,0.0
3583,69.0,0.0,60.0,5.0,0.0
3584,85.0,0.0,60.0,8.0,0.0
3585,57.0,0.0,30.0,7.0,0.0
3586,61.0,0.0,60.0,5.0,0.0
3587,69.0,0.0,60.0,2.0,0.0
3588,76.0,15.0,60.0,1.0,0.0
3589,85.0,0.0,60.0,6.0,0.0
3590,85.0,0.0,60.0,4.0,0.0
3591,85.0,0.0,60.0,0.0,0.0
3592,64.0,0.0,60.0,5.0,0.0
3593,57.0,30.0,30.0,10.0,0.0
3594,45.0,0.0,60.0,3.0,0.0
3595,61.0,0.0,30.0,7.0,0.0
3596,85.0,0.0,60.0,8.0,0.0
3597,56.0,0.0,30.0,10.0,0.0
3598,64.0,0.0,30.0,7.0,0.0
3599,47.0,30.0,60.0,3.0,0.0
3600,62.0,0.0,60.0,5.0,0.0
3601,68.0,0.0,60.0,2.0,0.0
3602,57.0,0.0,30.0,10.0,0.0
3603,59.0,0.0,60.0,5.0,0.0
3604,86.0,0.0,60.0,0.0,0.0
3605,88.0,0.0,15.0,8.0,0.0
3606,88.0,0.0,15.0,4.0,0.0
3607,71.0,0.0,60.0,1.0,0.0
3608,88.0,15.0,15.0,6.0,0.0
3609,69.0,0.0,30.0,7.0,0.0
3610,86.0,15.0,15.0,4.0,0.0
3611,86.0,0.0,15.0,6.0,0.0
3612,86.0,0.0,15.0,8.0,0.0
3613,85.0,0.0,15.0,6.0,0.0
3614,85.0,15.0,15.0,4.0,0.0
3615,85.0,0.0,15.0,8.0,0.0
3616,68.0,0.0,30.0,7.0,0.0
3617,59.0,0.0,30.0,10.0,0.0
3618,86.0,0.0,15.0,6.0,0.0
3619,86.0,0.0,15.0,8.0,0.0
3620,86.0,0.0,15.0,4.0,0.0
3621,69.0,0.0,60.0,2.0,0.0
3622,88.0,30.0,60.0,6.0,0.0
3623,61.0,0.0,30.0,10.0,0.0
3624,69.0,0.0,30.0,7.0,0.0
3625,49.0,0.0,60.0,3.0,0.0
3626,88.0,0.0,60.0,8.0,0.0
3627,64.0,0.0,60.0,1.0,0.0
3628,88.0,0.0,60.0,4.0,0.0
3629,88.0,0.0,60.0,0.0,0.0
3630,57.0,30.0,30.0,5.0,0.0
3631,61.0,0.0,30.0,5.0,0.0
3632,68.0,0.0,30.0,7.0,0.0
3633,64.0,0.0,30.0,5.0,0.0
3634,59.0,0.0,30.0,10.0,0.0
3635,88.0,30.0,60.0,8.0,0.0
3636,88.0,0.0,60.0,4.0,0.0
3637,62.0,30.0,30.0,5.0,0.0
3638,66.0,0.0,30.0,7.0,0.0
3639,49.0,0.0,60.0,3.0,0.0
3640,57.0,0.0,30.0,10.0,0.0
3641,73.0,0.0,60.0,2.0,0.0
3642,88.0,0.0,60.0,6.0,0.0
3643,88.0,0.0,60.0,0.0,0.0
3644,69.0,0.0,60.0,1.0,0.0
3645,61.0,0.0,30.0,5.0,0.0
3646,64.0,0.0,30.0,7.0,0.0
3647,59.0,0.0,30.0,10.0,0.0
3648,62.0,30.0,30.0,7.0,0.0
3649,66.0,0.0,60.0,2.0,0.0
3650,90.0,0.0,60.0,4.0,0.0
3651,90.0,0.0,60.0,0.0,0.0
3652,69.0,0.0,60.0,1.0,0.0
3653,61.0,0.0,30.0,10.0,0.0
3654,90.0,0.0,60.0,8.0,0.0
3655,90.0,0.0,60.0,6.0,0.0
3656,50.0,0.0,60.0,3.0,0.0
3657,59.0,0.0,30.0,5.0,0.0
3658,62.0,30.0,30.0,10.0,0.0
3659,61.0,0.0,30.0,7.0,0.0
3660,57.0,0.0,30.0,5.0,0.0
3661,76.0,0.0,60.0,1.0,0.0
3662,56.0,30.0,30.0,5.0,0.0
3663,52.0,0.0,60.0,3.0,0.0
3664,88.0,0.0,60.0,0.0,0.0
3665,88.0,0.0,60.0,4.0,0.0
3666,59.0,0.0,30.0,7.0,0.0
3667,64.0,30.0,60.0,10.0,0.0
3668,88.0,0.0,60.0,8.0,0.0
3669,68.0,0.0,60.0,2.0,0.0
3670,88.0,0.0,60.0,6.0,0.0
3671,54.0,0.0,30.0,5.0,0.0
3672,61.0,0.0,30.0,7.0,0.0
3673,86.0,30.0,30.0,6.0,0.0
3674,86.0,0.0,30.0,0.0,0.0
3675,52.0,0.0,60.0,3.0,0.0
3676,86.0,0.0,30.0,4.0,0.0
3677,76.0,0.0,60.0,1.0,0.0
3678,59.0,0.0,30.0,7.0,0.0
3679,68.0,0.0,60.0,2.0,0.0
3680,86.0,0.0,30.0,8.0,0.0
3681,56.0,0.0,30.0,5.0,0.0
3682,64.0,0.0,60.0,10.0,0.0
3683,85.0,30.0,30.0,0.0,0.0
3684,85.0,0.0,30.0,8.0,0.0
3685,85.0,0.0,30.0,4.0,0.0
3686,85.0,0.0,30.0,6.0,0.0
3687,57.0,0.0,30.0,5.0,0.0
3688,57.0,0.0,30.0,7.0,0.0
3689,54.0,0.0,60.0,3.0,0.0
3690,66.0,0.0,60.0,10.0,0.0
3691,66.0,0.0,60.0,2.0,0.0
3692,83.0,0.0,30.0,6.0,0.0
3693,83.0,0.0,30.0,4.0,0.0
3694,56.0,0.0,30.0,5.0,0.0
3695,83.0,30.0,30.0,8.0,0.0
3696,74.0,30.0,60.0,1.0,0.0
3697,83.0,0.0,30.0,0.0,0.0
3698,59.0,0.0,30.0,7.0,0.0
3699,81.0,0.0,30.0,8.0,0.0
3700,81.0,0.0,30.0,6.0,0.0
3701,61.0,0.0,30.0,7.0,0.0
3702,81.0,0.0,30.0,0.0,0.0
3703,57.0,0.0,30.0,5.0,0.0
3704,81.0,0.0,30.0,4.0,0.0
3705,52.0,0.0,60.0,3.0,0.0
3706,76.0,0.0,60.0,1.0,0.0
3707,80.0,0.0,30.0,4.0,0.0
3708,80.0,0.0,30.0,8.0,0.0
3709,59.0,0.0,60.0,5.0,0.0
3710,62.0,0.0,30.0,7.0,0.0
3711,80.0,30.0,30.0,6.0,0.0
3712,80.0,0.0,30.0,0.0,0.0
3713,59.0,0.0,60.0,2.0,0.0
3714,64.0,0.0,60.0,10.0,0.0
3715,78.0,0.0,30.0,0.0,0.0
3716,78.0,30.0,30.0,4.0,0.0
3717,69.0,0.0,30.0,7.0,0.0
3718,78.0,0.0,30.0,8.0,0.0
3719,78.0,0.0,30.0,6.0,0.0
3720,71.0,0.0,30.0,5.0,0.0
3721,50.0,0.0,30.0,3.0,0.0
3722,76.0,30.0,30.0,8.0,0.0
3723,76.0,0.0,30.0,4.0,0.0
3724,68.0,0.0,30.0,7.0,0.0
3725,76.0,0.0,60.0,1.0,0.0
3726,76.0,0.0,30.0,6.0,0.0
3727,76.0,0.0,30.0,0.0,0.0
3728,71.0,0.0,60.0,2.0,0.0
3729,62.0,0.0,30.0,10.0,0.0
3730,49.0,0.0,30.0,3.0,0.0
3731,78.0,0.0,30.0,0.0,0.0
3732,78.0,0.0,30.0,4.0,0.0
3733,78.0,30.0,30.0,6.0,0.0
3734,61.0,0.0,30.0,10.0,0.0
3735,66.0,0.0,30.0,7.0,0.0
3736,69.0,0.0,30.0,5.0,0.0
3737,78.0,0.0,30.0,8.0,0.0
3738,80.0,0.0,30.0,6.0,0.0
3739,80.0,0.0,30.0,4.0,0.0
3740,71.0,30.0,60.0,2.0,0.0
3741,47.0,0.0,30.0,3.0,0.0
3742,76.0,0.0,60.0,1.0,0.0
3743,59.0,0.0,30.0,10.0,0.0
3744,68.0,0.0,30.0,5.0,0.0
3745,80.0,0.0,30.0,8.0,0.0
3746,80.0,0.0,30.0,0.0,0.0
3747,64.0,30.0,30.0,7.0,0.0
3748,66.0,0.0,30.0,7.0,0.0
3749,81.0,0.0,30.0,6.0,0.0
3750,81.0,0.0,30.0,4.0,0.0
3751,57.0,0.0,30.0,10.0,0.0
3752,66.0,0.0,30.0,5.0,0.0
3753,81.0,0.0,30.0,8.0,0.0
3754,45.0,0.0,30.0,3.0,0.0
3755,81.0,0.0,30.0,0.0,0.0
3756,83.0,0.0,60.0,4.0,0.0
3757,83.0,0.0,60.0,0.0,0.0
3758,71.0,0.0,60.0,2.0,0.0
3759,83.0,30.0,60.0,8.0,0.0
3760,83.0,0.0,60.0,6.0,0.0
3761,44.0,0.0,60.0,3.0,0.0
3762,68.0,30.0,30.0,7.0,0.0
3763,56.0,0.0,60.0,10.0,0.0
3764,76.0,0.0,60.0,1.0,0.0
3765,64.0,0.0,30.0,5.0,0.0
3766,66.0,0.0,30.0,5.0,0.0
3767,69.0,0.0,30.0,7.0,0.0
3768,40.0,0.0,60.0,3.0,0.0
3769,83.0,0.0,60.0,8.0,0.0
3770,83.0,0.0,60.0,6.0,0.0
3771,68.0,30.0,30.0,7.0,0.0
3772,52.0,0.0,60.0,10.0,0.0
3773,76.0,30.0,60.0,2.0,0.0
3774,80.0,0.0,60.0,1.0,0.0
3775,83.0,0.0,60.0,4.0,0.0
3776,64.0,0.0,30.0,5.0,0.0
3777,83.0,0.0,60.0,0.0,0.0
3778,66.0,0.0,30.0,7.0,0.0
3779,62.0,0.0,30.0,5.0,0.0
3780,85.0,0.0,60.0,4.0,0.0
3781,85.0,0.0,60.0,0.0,0.0
3782,81.0,60.0,60.0,1.0,0.0
3783,85.0,0.0,60.0,6.0,0.0
3784,45.0,0.0,60.0,3.0,0.0
3785,64.0,30.0,30.0,7.0,0.0
3786,76.0,0.0,60.0,2.0,0.0
3787,85.0,0.0,60.0,8.0,0.0
3788,61.0,0.0,30.0,5.0,0.0
3789,57.0,0.0,60.0,10.0,0.0
3790,66.0,0.0,30.0,7.0,0.0
3791,62.0,0.0,30.0,5.0,0.0
3792,76.0,0.0,60.0,2.0,0.0
3793,83.0,0.0,60.0,6.0,0.0
3794,83.0,30.0,60.0,8.0,0.0
3795,64.0,0.0,60.0,5.0,0.0
3796,52.0,0.0,60.0,3.0,0.0
3797,52.0,0.0,60.0,10.0,0.0
3798,83.0,0.0,60.0,4.0,0.0
3799,68.0,0.0,60.0,7.0,0.0
3800,83.0,0.0,60.0,0.0,0.0
3801,80.0,0.0,60.0,1.0,0.0
3802,56.0,0.0,60.0,10.0,0.0
3803,64.0,0.0,30.0,6.0,0.0
3804,56.0,0.0,60.0,5.0,0.0
3805,64.0,0.0,30.0,2.0,0.0
3806,64.0,0.0,30.0,1.0,0.0
3807,64.0,30.0,30.0,0.0,0.0
3808,56.0,0.0,60.0,3.0,0.0
3809,64.0,0.0,30.0,4.0,0.0
3810,56.0,0.0,60.0,7.0,0.0
3811,64.0,0.0,30.0,8.0,0.0
3812,66.0,0.0,30.0,4.0,0.0
3813,66.0,0.0,30.0,1.0,0.0
3814,66.0,0.0,30.0,0.0,0.0
3815,66.0,0.0,30.0,2.0,0.0
3816,66.0,0.0,30.0,8.0,0.0
3817,66.0,30.0,30.0,6.0,0.0
3818,59.0,0.0,60.0,5.0,0.0
3819,68.0,0.0,30.0,2.0,0.0
3820,59.0,0.0,60.0,10.0,0.0
3821,68.0,30.0,30.0,4.0,0.0
3822,68.0,0.0,30.0,6.0,0.0
3823,68.0,0.0,30.0,0.0,0.0
3824,59.0,0.0,60.0,3.0,0.0
3825,59.0,0.0,60.0,7.0,0.0
3826,68.0,0.0,30.0,8.0,0.0
3827,68.0,0.0,30.0,1.0,0.0
3828,69.0,60.0,30.0,6.0,0.0
3829,69.0,0.0,30.0,4.0,0.0
3830,69.0,0.0,30.0,8.0,0.0
3831,69.0,0.0,30.0,0.0,0.0
3832,69.0,0.0,30.0,2.0,0.0
3833,69.0,0.0,30.0,1.0,0.0
3834,71.0,0.0,60.0,6.0,0.0
3835,71.0,0.0,60.0,4.0,0.0
3836,71.0,0.0,60.0,8.0,0.0
3837,71.0,0.0,60.0,0.0,0.0
3838,64.0,0.0,60.0,10.0,0.0
3839,64.0,0.0,60.0,3.0,0.0
3840,64.0,0.0,60.0,5.0,0.0
3841,71.0,0.0,60.0,1.0,0.0
3842,71.0,0.0,60.0,2.0,0.0
3843,64.0,30.0,60.0,7.0,0.0
3844,68.0,0.0,60.0,8.0,0.0
3845,71.0,0.0,60.0,1.0,0.0
3846,71.0,0.0,60.0,0.0,0.0
3847,68.0,0.0,60.0,4.0,0.0
3848,64.0,0.0,60.0,8.0,0.0
3849,62.0,30.0,30.0,7.0,0.0
3850,68.0,0.0,60.0,6.0,0.0
3851,62.0,0.0,30.0,5.0,0.0
3852,64.0,0.0,60.0,6.0,0.0
3853,62.0,0.0,30.0,10.0,0.0
3854,68.0,0.0,60.0,3.0,0.0
3855,71.0,0.0,60.0,2.0,0.0
3856,64.0,0.0,60.0,4.0,0.0
3857,61.0,0.0,30.0,5.0,0.0
3858,61.0,0.0,30.0,7.0,0.0
3859,61.0,30.0,30.0,10.0,0.0
3860,73.0,0.0,60.0,2.0,0.0
3861,64.0,0.0,60.0,6.0,0.0
3862,73.0,0.0,60.0,6.0,0.0
3863,73.0,0.0,60.0,0.0,0.0
3864,64.0,0.0,60.0,4.0,0.0
3865,69.0,0.0,60.0,4.0,0.0
3866,73.0,0.0,60.0,4.0,0.0
3867,69.0,0.0,60.0,6.0,0.0
3868,73.0,0.0,60.0,8.0,0.0
3869,69.0,0.0,60.0,8.0,0.0
3870,59.0,0.0,30.0,7.0,0.0
3871,59.0,30.0,30.0,10.0,0.0
3872,64.0,0.0,60.0,8.0,0.0
3873,59.0,0.0,30.0,5.0,0.0
3874,73.0,30.0,60.0,1.0,0.0
3875,69.0,0.0,60.0,3.0,0.0
3876,57.0,0.0,30.0,5.0,0.0
3877,57.0,0.0,30.0,7.0,0.0
3878,57.0,0.0,30.0,10.0,0.0
3879,68.0,0.0,60.0,6.0,0.0
3880,64.0,0.0,60.0,3.0,0.0
3881,71.0,30.0,60.0,0.0,0.0
3882,71.0,0.0,60.0,2.0,0.0
3883,64.0,0.0,60.0,7.0,0.0
3884,71.0,0.0,60.0,1.0,0.0
3885,71.0,0.0,60.0,8.0,0.0
3886,71.0,0.0,60.0,6.0,0.0
3887,64.0,0.0,60.0,5.0,0.0
3888,64.0,0.0,60.0,10.0,0.0
3889,68.0,30.0,30.0,4.0,0.0
3890,71.0,0.0,30.0,4.0,0.0
3891,68.0,0.0,60.0,8.0,0.0
3892,76.0,0.0,30.0,4.0,0.0
3893,64.0,0.0,60.0,2.0,0.0
3894,88.0,0.0,60.0,0.0,0.0
3895,64.0,0.0,60.0,5.0,0.0
3896,64.0,16.0,60.0,8.0,0.0
3897,64.0,0.0,60.0,6.0,0.0
3898,80.0,30.0,30.0,4.0,0.0
3899,83.0,0.0,30.0,4.0,0.0
3900,66.0,0.0,60.0,5.0,0.0
3901,66.0,14.0,15.0,6.0,0.0
3902,66.0,0.0,60.0,2.0,0.0
3903,88.0,1.0,30.0,4.0,0.0
3904,66.0,60.0,60.0,8.0,0.0
3905,87.0,0.0,60.0,0.0,0.0
3906,68.0,29.0,15.0,6.0,0.0
3907,87.0,0.0,30.0,4.0,0.0
3908,66.0,0.0,30.0,6.0,0.0
3909,68.0,0.0,60.0,10.0,0.0
3910,68.0,0.0,60.0,6.0,0.0
3911,88.0,30.0,60.0,4.0,0.0
3912,88.0,0.0,60.0,0.0,0.0
3913,68.0,0.0,60.0,2.0,0.0
3914,68.0,0.0,60.0,5.0,0.0
3915,76.0,0.0,30.0,8.0,0.0
3916,83.0,0.0,60.0,4.0,0.0
3917,88.0,15.0,60.0,1.0,0.0
3918,52.0,0.0,60.0,7.0,0.0
3919,68.0,0.0,60.0,5.0,0.0
3920,80.0,30.0,30.0,8.0,0.0
3921,68.0,0.0,60.0,10.0,0.0
3922,52.0,0.0,60.0,3.0,0.0
3923,68.0,0.0,60.0,2.0,0.0
3924,68.0,0.0,60.0,6.0,0.0
3925,64.0,0.0,60.0,10.0,0.0
3926,83.0,0.0,60.0,0.0,0.0
3927,83.0,0.0,30.0,8.0,0.0
3928,81.0,30.0,60.0,0.0,0.0
3929,87.0,0.0,60.0,1.0,0.0
3930,54.0,0.0,60.0,7.0,0.0
3931,54.0,0.0,60.0,3.0,0.0
3932,69.0,0.0,60.0,5.0,0.0
3933,71.0,15.0,15.0,6.0,0.0
3934,81.0,0.0,60.0,4.0,0.0
3935,69.0,0.0,60.0,10.0,0.0
3936,66.0,0.0,60.0,10.0,0.0
3937,69.0,0.0,60.0,2.0,0.0
3938,88.0,15.0,30.0,8.0,0.0
3939,69.0,0.0,15.0,6.0,0.0
3940,68.0,15.0,15.0,6.0,0.0
3941,87.0,0.0,30.0,8.0,0.0
3942,69.0,0.0,15.0,6.0,0.0
3943,80.0,0.0,30.0,4.0,0.0
3944,71.0,0.0,60.0,5.0,0.0
3945,56.0,0.0,60.0,7.0,0.0
3946,71.0,0.0,60.0,2.0,0.0
3947,68.0,30.0,60.0,10.0,0.0
3948,56.0,0.0,60.0,3.0,0.0
3949,88.0,30.0,30.0,8.0,0.0
3950,71.0,0.0,60.0,10.0,0.0
3951,80.0,0.0,30.0,0.0,0.0
3952,88.0,0.0,30.0,1.0,0.0
3953,71.0,0.0,60.0,6.0,0.0
3954,86.0,0.0,30.0,8.0,0.0
3955,83.0,0.0,30.0,0.0,0.0
3956,86.0,0.0,30.0,1.0,0.0
3957,83.0,0.0,30.0,4.0,0.0
3958,71.0,0.0,60.0,6.0,0.0
3959,71.0,0.0,60.0,5.0,0.0
3960,56.0,0.0,60.0,7.0,0.0
3961,81.0,0.0,30.0,0.0,0.0
3962,71.0,0.0,60.0,2.0,0.0
3963,68.0,0.0,60.0,10.0,0.0
3964,56.0,30.0,60.0,3.0,0.0
3965,81.0,0.0,30.0,4.0,0.0
3966,85.0,0.0,30.0,1.0,0.0
3967,71.0,0.0,60.0,10.0,0.0
3968,85.0,30.0,30.0,8.0,0.0
3969,80.0,0.0,30.0,4.0,0.0
3970,80.0,0.0,30.0,0.0,0.0
3971,83.0,0.0,30.0,8.0,0.0
3972,83.0,0.0,30.0,1.0,0.0
3973,57.0,0.0,60.0,3.0,0.0
3974,78.0,0.0,30.0,4.0,0.0
3975,57.0,0.0,60.0,7.0,0.0
3976,81.0,0.0,90.0,1.0,0.0
3977,73.0,0.0,60.0,6.0,0.0
3978,73.0,0.0,60.0,10.0,0.0
3979,81.0,0.0,30.0,8.0,0.0
3980,73.0,0.0,60.0,2.0,0.0
3981,78.0,30.0,30.0,0.0,0.0
3982,69.0,0.0,60.0,10.0,0.0
3983,73.0,30.0,60.0,5.0,0.0
3984,80.0,0.0,30.0,8.0,0.0
3985,76.0,0.0,30.0,4.0,0.0
3986,76.0,0.0,30.0,0.0,0.0
3987,59.0,30.0,60.0,7.0,0.0
3988,71.0,0.0,60.0,6.0,0.0
3989,59.0,0.0,60.0,3.0,0.0
3990,75.0,0.0,30.0,4.0,0.0
3991,81.0,0.0,30.0,8.0,0.0
3992,71.0,0.0,60.0,5.0,0.0
3993,71.0,0.0,60.0,2.0,0.0
3994,75.0,30.0,30.0,0.0,0.0
3995,71.0,0.0,60.0,10.0,0.0
3996,80.0,0.0,30.0,1.0,0.0
3997,76.0,0.0,30.0,0.0,0.0
3998,80.0,0.0,30.0,8.0,0.0
3999,73.0,0.0,30.0,4.0,0.0
4000,59.0,0.0,60.0,7.0,0.0
4001,59.0,0.0,60.0,3.0,0.0
4002,78.0,0.0,30.0,0.0,0.0
4003,78.0,0.0,30.0,1.0,0.0
4004,69.0,0.0,30.0,10.0,0.0
4005,69.0,0.0,30.0,6.0,0.0
4006,75.0,30.0,30.0,4.0,0.0
4007,69.0,0.0,30.0,5.0,0.0
4008,78.0,0.0,30.0,8.0,0.0
4009,69.0,0.0,30.0,2.0,0.0
4010,68.0,0.0,30.0,2.0,0.0
4011,76.0,30.0,30.0,4.0,0.0
4012,68.0,0.0,30.0,10.0,0.0
4013,68.0,0.0,30.0,6.0,0.0
4014,76.0,0.0,30.0,1.0,0.0
4015,76.0,0.0,30.0,8.0,0.0
4016,80.0,0.0,30.0,0.0,0.0
4017,68.0,0.0,30.0,5.0,0.0
4018,66.0,0.0,30.0,10.0,0.0
4019,81.0,0.0,60.0,0.0,0.0
4020,66.0,0.0,30.0,2.0,0.0
4021,78.0,0.0,30.0,8.0,0.0
4022,75.0,0.0,30.0,1.0,0.0
4023,75.0,30.0,30.0,4.0,0.0
4024,66.0,0.0,30.0,5.0,0.0
4025,66.0,0.0,30.0,6.0,0.0
4026,61.0,0.0,60.0,3.0,0.0
4027,61.0,0.0,60.0,7.0,0.0
4028,64.0,0.0,30.0,2.0,0.0
4029,81.0,0.0,30.0,8.0,0.0
4030,64.0,0.0,30.0,10.0,0.0
4031,64.0,0.0,30.0,6.0,0.0
4032,64.0,30.0,30.0,5.0,0.0
4033,76.0,0.0,30.0,4.0,0.0
4034,76.0,0.0,30.0,1.0,0.0
4035,63.0,0.0,30.0,6.0,0.0
4036,63.0,0.0,30.0,5.0,0.0
4037,59.0,0.0,60.0,7.0,0.0
4038,71.0,0.0,30.0,0.0,0.0
4039,63.0,0.0,30.0,10.0,0.0
4040,78.0,30.0,30.0,1.0,0.0
4041,63.0,0.0,30.0,2.0,0.0
4042,78.0,0.0,30.0,4.0,0.0
4043,59.0,0.0,60.0,3.0,0.0
4044,71.0,0.0,30.0,8.0,0.0
4045,76.0,0.0,30.0,4.0,0.0
4046,61.0,0.0,30.0,2.0,0.0
4047,73.0,0.0,30.0,0.0,0.0
4048,73.0,0.0,30.0,8.0,0.0
4049,61.0,0.0,30.0,5.0,0.0
4050,61.0,30.0,30.0,10.0,0.0
4051,76.0,0.0,30.0,1.0,0.0
4052,61.0,0.0,30.0,6.0,0.0
4053,59.0,0.0,30.0,2.0,0.0
4054,59.0,0.0,30.0,10.0,0.0
4055,59.0,0.0,30.0,5.0,0.0
4056,57.0,0.0,30.0,7.0,0.0
4057,75.0,0.0,30.0,4.0,0.0
4058,75.0,30.0,30.0,0.0,0.0
4059,75.0,0.0,30.0,8.0,0.0
4060,57.0,0.0,30.0,3.0,0.0
4061,75.0,0.0,30.0,1.0,0.0
4062,59.0,0.0,30.0,6.0,0.0
4063,76.0,0.0,30.0,8.0,0.0
4064,76.0,0.0,30.0,0.0,0.0
4065,56.0,0.0,30.0,3.0,0.0
4066,61.0,0.0,30.0,5.0,0.0
4067,73.0,0.0,30.0,1.0,0.0
4068,61.0,0.0,30.0,6.0,0.0
4069,61.0,0.0,30.0,2.0,0.0
4070,61.0,0.0,30.0,10.0,0.0
4071,56.0,30.0,30.0,7.0,0.0
4072,73.0,0.0,30.0,4.0,0.0
4073,54.0,0.0,30.0,3.0,0.0
4074,78.0,0.0,30.0,8.0,0.0
4075,63.0,0.0,30.0,10.0,0.0
4076,71.0,0.0,30.0,4.0,0.0
4077,63.0,0.0,30.0,5.0,0.0
4078,63.0,0.0,30.0,6.0,0.0
4079,54.0,30.0,30.0,7.0,0.0
4080,63.0,0.0,30.0,2.0,0.0
4081,78.0,0.0,60.0,0.0,0.0
4082,71.0,0.0,120.0,1.0,0.0
4083,64.0,0.0,30.0,5.0,0.0
4084,80.0,0.0,30.0,8.0,0.0
4085,52.0,0.0,30.0,3.0,0.0
4086,64.0,0.0,30.0,6.0,0.0
4087,64.0,0.0,30.0,10.0,0.0
4088,52.0,0.0,30.0,7.0,0.0
4089,73.0,0.0,30.0,4.0,0.0
4090,64.0,30.0,30.0,2.0,0.0
4091,66.0,30.0,60.0,10.0,0.0
4092,51.0,0.0,60.0,7.0,0.0
4093,66.0,0.0,60.0,5.0,0.0
4094,75.0,30.0,30.0,4.0,0.0
4095,66.0,0.0,60.0,2.0,0.0
4096,51.0,0.0,60.0,3.0,0.0
4097,66.0,0.0,60.0,6.0,0.0
4098,66.0,0.0,60.0,0.0,0.0
4099,81.0,0.0,30.0,8.0,0.0
4100,85.0,0.0,30.0,8.0,0.0
4101,76.0,0.0,30.0,4.0,0.0
4102,66.0,0.0,60.0,2.0,0.0
4103,78.0,0.0,60.0,0.0,0.0
4104,63.0,0.0,60.0,10.0,0.0
4105,66.0,0.0,60.0,10.0,0.0
4106,71.0,0.0,60.0,1.0,0.0
4107,66.0,0.0,60.0,6.0,0.0
4108,66.0,0.0,60.0,5.0,0.0
4109,47.0,0.0,60.0,3.0,0.0
4110,47.0,0.0,60.0,7.0,0.0
4111,83.0,0.0,30.0,8.0,0.0
4112,75.0,30.0,30.0,4.0,0.0
4113,81.0,0.0,30.0,8.0,0.0
4114,73.0,30.0,30.0,4.0,0.0
4115,52.0,0.0,60.0,3.0,0.0
4116,68.0,0.0,60.0,2.0,0.0
4117,52.0,0.0,60.0,7.0,0.0
4118,76.0,30.0,60.0,0.0,0.0
4119,71.0,0.0,60.0,1.0,0.0
4120,68.0,0.0,60.0,10.0,0.0
4121,64.0,0.0,60.0,10.0,0.0
4122,68.0,0.0,60.0,5.0,0.0
4123,80.0,30.0,30.0,8.0,0.0
4124,71.0,0.0,30.0,4.0,0.0
4125,68.0,0.0,60.0,6.0,0.0
4126,73.0,0.0,30.0,4.0,0.0
4127,81.0,0.0,30.0,8.0,0.0
4128,66.0,15.0,60.0,5.0,0.0
4129,66.0,0.0,60.0,6.0,0.0
4130,71.0,0.0,60.0,1.0,0.0
4131,75.0,0.0,60.0,0.0,0.0
4132,83.0,0.0,60.0,8.0,0.0
4133,75.0,0.0,30.0,4.0,0.0
4134,59.0,30.0,30.0,7.0,0.0
4135,47.0,0.0,60.0,3.0,0.0
4136,66.0,0.0,60.0,2.0,0.0
4137,59.0,0.0,60.0,10.0,0.0
4138,66.0,0.0,60.0,10.0,0.0
4139,71.0,0.0,30.0,4.0,0.0
4140,61.0,0.0,30.0,7.0,0.0
4141,66.0,0.0,60.0,1.0,0.0
4142,75.0,0.0,30.0,4.0,0.0
4143,71.0,0.0,60.0,0.0,0.0
4144,63.0,0.0,60.0,6.0,0.0
4145,66.0,0.0,60.0,6.0,0.0
4146,71.0,0.0,60.0,6.0,0.0
4147,59.0,15.0,30.0,7.0,0.0
4148,59.0,0.0,60.0,10.0,0.0
4149,59.0,0.0,60.0,3.0,0.0
4150,76.0,15.0,15.0,8.0,0.0
4151,63.0,0.0,60.0,2.0,0.0
4152,66.0,0.0,60.0,5.0,0.0
4153,75.0,0.0,15.0,8.0,0.0
4154,78.0,0.0,30.0,4.0,0.0
4155,76.0,15.0,15.0,8.0,0.0
4156,57.0,15.0,30.0,7.0,0.0
4157,75.0,0.0,15.0,8.0,0.0
4158,71.0,0.0,60.0,6.0,0.0
4159,63.0,0.0,60.0,5.0,0.0
4160,83.0,0.0,30.0,4.0,0.0
4161,47.0,0.0,60.0,10.0,0.0
4162,56.0,0.0,30.0,7.0,0.0
4163,59.0,30.0,60.0,6.0,0.0
4164,66.0,0.0,60.0,6.0,0.0
4165,47.0,0.0,60.0,3.0,0.0
4166,76.0,15.0,15.0,8.0,0.0
4167,75.0,15.0,15.0,8.0,0.0
4168,54.0,0.0,30.0,7.0,0.0
4169,81.0,0.0,30.0,4.0,0.0
4170,73.0,15.0,15.0,8.0,0.0
4171,75.0,0.0,15.0,8.0,0.0
4172,83.0,0.0,60.0,0.0,0.0
4173,80.0,0.0,60.0,4.0,0.0
4174,64.0,0.0,60.0,2.0,0.0
4175,68.0,0.0,30.0,6.0,0.0
4176,76.0,0.0,60.0,8.0,0.0
4177,68.0,0.0,60.0,1.0,0.0
4178,52.0,0.0,60.0,3.0,0.0
4179,71.0,30.0,30.0,6.0,0.0
4180,59.0,0.0,30.0,6.0,0.0
4181,52.0,0.0,60.0,7.0,0.0
4182,59.0,15.0,60.0,5.0,0.0
4183,64.0,0.0,30.0,10.0,0.0
4184,66.0,0.0,30.0,10.0,0.0
4185,64.0,0.0,30.0,6.0,0.0
4186,76.0,0.0,60.0,1.0,0.0
4187,71.0,0.0,60.0,2.0,0.0
4188,59.0,0.0,60.0,7.0,0.0
4189,71.0,0.0,60.0,8.0,0.0
4190,76.0,0.0,60.0,8.0,0.0
4191,68.0,0.0,60.0,8.0,0.0
4192,81.0,15.0,15.0,4.0,0.0
4193,64.0,0.0,60.0,3.0,0.0
4194,68.0,0.0,30.0,6.0,0.0
4195,80.0,0.0,60.0,0.0,0.0
4196,64.0,0.0,30.0,10.0,0.0
4197,64.0,15.0,60.0,5.0,0.0
4198,80.0,15.0,15.0,4.0,0.0
4199,62.0,0.0,30.0,10.0,0.0
4200,81.0,15.0,15.0,4.0,0.0
4201,71.0,0.0,30.0,6.0,0.0
4202,80.0,0.0,15.0,4.0,0.0
4203,71.0,0.0,60.0,8.0,0.0
4204,52.0,0.0,60.0,5.0,0.0
4205,52.0,0.0,60.0,3.0,0.0
4206,56.0,0.0,60.0,7.0,0.0
4207,76.0,0.0,60.0,8.0,0.0
4208,76.0,0.0,30.0,6.0,0.0
4209,64.0,0.0,60.0,8.0,0.0
4210,61.0,15.0,30.0,10.0,0.0
4211,81.0,15.0,15.0,4.0,0.0
4212,80.0,0.0,15.0,4.0,0.0
4213,59.0,0.0,30.0,10.0,0.0
4214,74.0,0.0,30.0,6.0,0.0
4215,78.0,15.0,15.0,4.0,0.0
4216,80.0,30.0,15.0,4.0,0.0
4217,69.0,0.0,30.0,5.0,0.0
4218,57.0,0.0,60.0,10.0,0.0
4219,45.0,0.0,60.0,3.0,0.0
4220,76.0,0.0,60.0,1.0,0.0
4221,73.0,0.0,30.0,8.0,0.0
4222,81.0,0.0,60.0,0.0,0.0
4223,52.0,0.0,60.0,7.0,0.0
4224,73.0,0.0,60.0,6.0,0.0
4225,76.0,30.0,30.0,8.0,0.0
4226,64.0,0.0,30.0,8.0,0.0
4227,81.0,0.0,60.0,4.0,0.0
4228,73.0,0.0,60.0,2.0,0.0
4229,71.0,0.0,30.0,5.0,0.0
4230,69.0,15.0,30.0,8.0,0.0
4231,73.0,0.0,60.0,4.0,0.0
4232,73.0,0.0,60.0,1.0,0.0
4233,74.0,15.0,15.0,6.0,0.0
4234,73.0,0.0,30.0,8.0,0.0
4235,64.0,0.0,60.0,10.0,0.0
4236,76.0,0.0,60.0,0.0,0.0
4237,57.0,0.0,60.0,7.0,0.0
4238,69.0,0.0,60.0,2.0,0.0
4239,57.0,0.0,60.0,3.0,0.0
4240,76.0,0.0,60.0,4.0,0.0
4241,69.0,15.0,30.0,5.0,0.0
4242,81.0,0.0,60.0,4.0,0.0
4243,73.0,0.0,15.0,6.0,0.0
4244,74.0,15.0,15.0,6.0,0.0
4245,76.0,0.0,30.0,8.0,0.0
4246,67.0,0.0,30.0,5.0,0.0
4247,73.0,15.0,15.0,6.0,0.0
4248,81.0,0.0,30.0,8.0,0.0
4249,45.0,0.0,60.0,7.0,0.0
4250,69.0,30.0,60.0,4.0,0.0
4251,45.0,0.0,60.0,3.0,0.0
4252,66.0,0.0,30.0,5.0,0.0
4253,81.0,0.0,60.0,4.0,0.0
4254,61.0,0.0,60.0,10.0,0.0
4255,74.0,15.0,15.0,6.0,0.0
4256,76.0,0.0,60.0,4.0,0.0
4257,73.0,15.0,15.0,6.0,0.0
4258,79.0,0.0,30.0,8.0,0.0
4259,64.0,0.0,30.0,5.0,0.0
4260,71.0,15.0,15.0,6.0,0.0
4261,73.0,0.0,15.0,6.0,0.0
4262,69.0,0.0,60.0,2.0,0.0
4263,78.0,0.0,60.0,8.0,0.0
4264,62.0,0.0,60.0,5.0,0.0
4265,74.0,0.0,60.0,6.0,0.0
4266,57.0,0.0,60.0,10.0,0.0
4267,69.0,0.0,30.0,4.0,0.0
4268,78.0,0.0,60.0,0.0,0.0
4269,78.0,0.0,30.0,4.0,0.0
4270,81.0,0.0,30.0,4.0,0.0
4271,50.0,15.0,60.0,3.0,0.0
4272,62.0,30.0,30.0,7.0,0.0
4273,74.0,0.0,60.0,1.0,0.0
4274,74.0,0.0,30.0,4.0,0.0
4275,64.0,0.0,30.0,7.0,0.0
4276,69.0,0.0,60.0,5.0,0.0
4277,62.0,0.0,30.0,7.0,0.0
4278,80.0,15.0,15.0,8.0,0.0
4279,66.0,0.0,60.0,2.0,0.0
4280,69.0,0.0,30.0,1.0,0.0
4281,62.0,0.0,60.0,3.0,0.0
4282,78.0,0.0,30.0,4.0,0.0
4283,74.0,15.0,30.0,0.0,0.0
4284,74.0,0.0,60.0,6.0,0.0
4285,62.0,15.0,60.0,10.0,0.0
4286,78.0,0.0,15.0,8.0,0.0
4287,61.0,0.0,30.0,7.0,0.0
4288,74.0,0.0,30.0,1.0,0.0
4289,78.0,0.0,30.0,0.0,0.0
4290,80.0,15.0,15.0,8.0,0.0
4291,81.0,0.0,30.0,4.0,0.0
4292,78.0,0.0,15.0,8.0,0.0
4293,50.0,0.0,60.0,10.0,0.0
4294,62.0,15.0,30.0,7.0,0.0
4295,83.0,0.0,30.0,0.0,0.0
4296,50.0,0.0,60.0,3.0,0.0
4297,62.0,0.0,60.0,2.0,0.0
4298,66.0,0.0,60.0,5.0,0.0
4299,80.0,15.0,15.0,8.0,0.0
4300,86.0,0.0,30.0,4.0,0.0
4301,74.0,0.0,60.0,6.0,0.0
4302,78.0,0.0,60.0,1.0,0.0
4303,78.0,0.0,15.0,8.0,0.0
4304,86.0,0.0,30.0,0.0,0.0
4305,76.0,15.0,15.0,8.0,0.0
4306,83.0,0.0,30.0,4.0,0.0
4307,66.0,30.0,30.0,7.0,0.0
4308,78.0,0.0,15.0,8.0,0.0
4309,59.0,0.0,60.0,2.0,0.0
4310,62.0,0.0,90.0,10.0,0.0
4311,62.0,30.0,90.0,3.0,0.0
4312,80.0,0.0,90.0,8.0,0.0
4313,64.0,0.0,90.0,7.0,0.0
4314,76.0,0.0,60.0,1.0,0.0
4315,62.0,0.0,90.0,5.0,0.0
4316,80.0,30.0,30.0,0.0,0.0
4317,80.0,0.0,30.0,4.0,0.0
4318,83.0,0.0,90.0,6.0,0.0
4319,83.0,30.0,30.0,4.0,0.0
4320,83.0,0.0,30.0,0.0,0.0
4321,76.0,0.0,60.0,1.0,0.0
4322,71.0,0.0,60.0,2.0,0.0
4323,88.0,0.0,30.0,0.0,0.0
4324,88.0,0.0,30.0,4.0,0.0
4325,59.0,0.0,30.0,3.0,0.0
4326,59.0,60.0,30.0,7.0,0.0
4327,59.0,0.0,30.0,5.0,0.0
4328,83.0,0.0,30.0,8.0,0.0
4329,80.0,0.0,30.0,4.0,0.0
4330,74.0,0.0,30.0,6.0,0.0
4331,80.0,0.0,30.0,0.0,0.0
4332,59.0,0.0,30.0,10.0,0.0
4333,76.0,0.0,60.0,8.0,0.0
4334,76.0,0.0,60.0,1.0,0.0
4335,61.0,0.0,60.0,5.0,0.0
4336,61.0,0.0,60.0,3.0,0.0
4337,69.0,0.0,60.0,2.0,0.0
4338,61.0,0.0,60.0,7.0,0.0
4339,61.0,0.0,60.0,10.0,0.0
4340,73.0,0.0,60.0,6.0,0.0
4341,81.0,0.0,60.0,0.0,0.0
4342,81.0,60.0,60.0,4.0,0.0
4343,62.0,0.0,30.0,10.0,0.0
4344,86.0,0.0,30.0,0.0,0.0
4345,86.0,0.0,30.0,4.0,0.0
4346,81.0,0.0,30.0,6.0,0.0
4347,62.0,0.0,30.0,5.0,0.0
4348,62.0,0.0,30.0,7.0,0.0
4349,62.0,0.0,30.0,3.0,0.0
4350,78.0,60.0,30.0,8.0,0.0
4351,69.0,0.0,30.0,2.0,0.0
4352,78.0,0.0,30.0,1.0,0.0
4353,64.0,0.0,60.0,7.0,0.0
4354,76.0,30.0,60.0,2.0,0.0
4355,64.0,0.0,60.0,10.0,0.0
4356,64.0,0.0,60.0,5.0,0.0
4357,83.0,0.0,90.0,0.0,0.0
4358,80.0,0.0,90.0,6.0,0.0
4359,64.0,0.0,60.0,3.0,0.0
4360,76.0,0.0,60.0,8.0,0.0
4361,83.0,30.0,90.0,4.0,0.0
4362,80.0,0.0,90.0,1.0,0.0
4363,68.0,0.0,60.0,8.0,0.0
4364,74.0,0.0,60.0,8.0,0.0
4365,71.0,30.0,60.0,8.0,0.0
4366,52.0,0.0,60.0,7.0,0.0
4367,52.0,0.0,60.0,3.0,0.0
4368,74.0,0.0,60.0,2.0,0.0
4369,52.0,0.0,60.0,10.0,0.0
4370,52.0,0.0,60.0,5.0,0.0
4371,81.0,0.0,30.0,4.0,0.0
4372,81.0,0.0,30.0,0.0,0.0
4373,81.0,0.0,30.0,1.0,0.0
4374,81.0,0.0,30.0,6.0,0.0
4375,69.0,0.0,120.0,8.0,0.0
4376,81.0,0.0,60.0,1.0,0.0
4377,45.0,30.0,60.0,7.0,0.0
4378,64.0,0.0,120.0,8.0,0.0
4379,81.0,0.0,120.0,6.0,0.0
4380,73.0,0.0,120.0,8.0,0.0
4381,57.0,0.0,30.0,10.0,0.0
4382,81.0,0.0,60.0,0.0,0.0
4383,57.0,0.0,60.0,5.0,0.0
4384,73.0,0.0,60.0,2.0,0.0
4385,81.0,30.0,30.0,4.0,0.0
4386,57.0,0.0,60.0,3.0,0.0
4387,69.0,0.0,30.0,10.0,0.0
4388,69.0,0.0,30.0,4.0,0.0
4389,73.0,0.0,30.0,4.0,0.0
4390,64.0,0.0,30.0,5.0,0.0
4391,64.0,30.0,30.0,10.0,0.0
4392,45.0,0.0,60.0,3.0,0.0
4393,57.0,0.0,60.0,7.0,0.0
4394,69.0,30.0,30.0,10.0,0.0
4395,76.0,0.0,30.0,4.0,0.0
4396,62.0,0.0,30.0,5.0,0.0
4397,61.0,0.0,30.0,10.0,0.0
4398,81.0,0.0,30.0,4.0,0.0
4399,59.0,0.0,60.0,7.0,0.0
4400,47.0,30.0,60.0,3.0,0.0
4401,61.0,30.0,30.0,5.0,0.0
4402,80.0,0.0,30.0,4.0,0.0
4403,62.0,0.0,30.0,5.0,0.0
4404,64.0,0.0,30.0,10.0,0.0
4405,73.0,0.0,60.0,2.0,0.0
4406,49.0,0.0,60.0,3.0,0.0
4407,81.0,0.0,60.0,0.0,0.0
4408,61.0,0.0,60.0,7.0,0.0
4409,57.0,30.0,30.0,10.0,0.0
4410,81.0,0.0,60.0,4.0,0.0
4411,76.0,0.0,60.0,1.0,0.0
4412,61.0,0.0,30.0,5.0,0.0
4413,64.0,30.0,30.0,5.0,0.0
4414,64.0,0.0,30.0,10.0,0.0
4415,69.0,0.0,30.0,6.0,0.0
4416,76.0,0.0,60.0,4.0,0.0
4417,73.0,30.0,30.0,6.0,0.0
4418,76.0,0.0,60.0,8.0,0.0
4419,69.0,0.0,30.0,5.0,0.0
4420,49.0,0.0,60.0,3.0,0.0
4421,61.0,0.0,60.0,7.0,0.0
4422,61.0,0.0,30.0,10.0,0.0
4423,57.0,30.0,30.0,10.0,0.0
4424,73.0,0.0,30.0,5.0,0.0
4425,76.0,0.0,30.0,6.0,0.0
4426,50.0,0.0,60.0,3.0,0.0
4427,62.0,0.0,60.0,7.0,0.0
4428,81.0,0.0,30.0,6.0,0.0
4429,74.0,0.0,30.0,8.0,0.0
4430,71.0,30.0,30.0,5.0,0.0
4431,54.0,0.0,30.0,10.0,0.0
4432,69.0,0.0,30.0,5.0,0.0
4433,73.0,0.0,30.0,8.0,0.0
4434,57.0,0.0,30.0,10.0,0.0
4435,78.0,30.0,30.0,6.0,0.0
4436,64.0,30.0,30.0,7.0,0.0
4437,80.0,30.0,60.0,0.0,0.0
4438,80.0,0.0,120.0,6.0,0.0
4439,52.0,29.0,120.0,3.0,0.0
4440,71.0,0.0,30.0,8.0,0.0
4441,68.0,0.0,60.0,5.0,0.0
4442,71.0,0.0,60.0,2.0,0.0
4443,52.0,0.0,120.0,10.0,0.0
4444,76.0,0.0,60.0,1.0,0.0
4445,64.0,0.0,30.0,8.0,0.0
4446,64.0,0.0,30.0,7.0,0.0
4447,59.0,30.0,30.0,7.0,0.0
4448,68.0,0.0,30.0,8.0,0.0
4449,76.0,1.0,60.0,1.0,0.0
4450,80.0,0.0,60.0,4.0,0.0
4451,76.0,0.0,60.0,5.0,0.0
4452,76.0,0.0,60.0,0.0,0.0
4453,76.0,0.0,60.0,2.0,0.0
4454,64.0,0.0,30.0,7.0,0.0
4455,71.0,0.0,30.0,8.0,0.0
4456,83.0,0.0,60.0,4.0,0.0
4457,68.0,30.0,30.0,8.0,0.0
4458,56.0,0.0,30.0,7.0,0.0
4459,71.0,0.0,60.0,5.0,0.0
4460,71.0,0.0,60.0,1.0,0.0
4461,71.0,0.0,60.0,0.0,0.0
4462,71.0,0.0,60.0,2.0,0.0
4463,59.0,30.0,30.0,7.0,0.0
4464,64.0,0.0,30.0,8.0,0.0
4465,68.0,0.0,60.0,2.0,0.0
4466,71.0,0.0,30.0,8.0,0.0
4467,68.0,0.0,60.0,1.0,0.0
4468,52.0,0.0,120.0,7.0,0.0
4469,52.0,0.0,120.0,10.0,0.0
4470,68.0,0.0,60.0,0.0,0.0
4471,40.0,29.0,120.0,3.0,0.0
4472,68.0,30.0,30.0,5.0,0.0
4473,88.0,0.0,60.0,4.0,0.0
4474,71.0,0.0,30.0,5.0,0.0
4475,68.0,30.0,30.0,8.0,0.0
4476,64.0,0.0,30.0,6.0,0.0
4477,68.0,0.0,30.0,6.0,0.0
4478,71.0,0.0,30.0,8.0,0.0
4479,64.0,0.0,30.0,0.0,0.0
4480,64.0,0.0,30.0,1.0,0.0
4481,64.0,30.0,30.0,2.0,0.0
4482,64.0,0.0,30.0,5.0,0.0
4483,76.0,0.0,30.0,8.0,0.0
4484,66.0,1.0,30.0,1.0,0.0
4485,66.0,0.0,30.0,2.0,0.0
4486,66.0,0.0,30.0,5.0,0.0
4487,66.0,0.0,30.0,0.0,0.0
4488,71.0,0.0,30.0,6.0,0.0
4489,71.0,0.0,30.0,8.0,0.0
4490,68.0,0.0,30.0,5.0,0.0
4491,68.0,30.0,30.0,2.0,0.0
4492,68.0,0.0,30.0,6.0,0.0
4493,68.0,0.0,30.0,0.0,0.0
4494,68.0,0.0,30.0,1.0,0.0
4495,69.0,0.0,30.0,1.0,0.0
4496,68.0,0.0,30.0,8.0,0.0
4497,69.0,0.0,30.0,5.0,0.0
4498,69.0,0.0,30.0,0.0,0.0
4499,69.0,0.0,30.0,2.0,0.0
4500,64.0,20.0,30.0,6.0,0.0
4501,71.0,0.0,60.0,2.0,0.0
4502,68.0,15.0,60.0,6.0,0.0
4503,71.0,0.0,60.0,1.0,0.0
4504,71.0,0.0,60.0,5.0,0.0
4505,71.0,0.0,60.0,0.0,0.0
4506,76.0,20.0,20.0,8.0,0.0
4507,74.0,20.0,20.0,8.0,0.0
4508,76.0,0.0,20.0,8.0,0.0
4509,74.0,15.0,15.0,8.0,0.0
4510,68.0,0.0,60.0,10.0,0.0
4511,80.0,0.0,30.0,4.0,0.0
4512,56.0,0.0,60.0,3.0,0.0
4513,68.0,0.0,60.0,7.0,0.0
4514,83.0,0.0,120.0,0.0,0.0
4515,74.0,0.0,120.0,1.0,0.0
4516,77.0,0.0,30.0,6.0,0.0
4517,68.0,0.0,180.0,2.0,0.0
4518,68.0,0.0,60.0,5.0,0.0
4519,76.0,15.0,15.0,8.0,0.0
4520,74.0,15.0,15.0,8.0,0.0
4521,81.0,10.0,30.0,4.0,0.0
4522,78.0,0.0,30.0,6.0,0.0
4523,76.0,0.0,15.0,8.0,0.0
4524,77.0,0.0,30.0,6.0,0.0
4525,54.0,0.0,60.0,3.0,0.0
4526,66.0,0.0,60.0,10.0,0.0
4527,66.0,0.0,60.0,7.0,0.0
4528,74.0,10.0,15.0,8.0,0.0
4529,66.0,0.0,60.0,5.0,0.0
4530,80.0,10.0,30.0,4.0,0.0
4531,76.0,10.0,15.0,8.0,0.0
4532,74.0,0.0,15.0,8.0,0.0
4533,76.0,10.0,15.0,8.0,0.0
4534,78.0,0.0,30.0,6.0,0.0
4535,81.0,30.0,30.0,4.0,0.0
4536,74.0,10.0,15.0,8.0,0.0
4537,76.0,0.0,15.0,8.0,0.0
4538,80.0,0.0,30.0,6.0,0.0
4539,65.0,0.0,60.0,7.0,0.0
4540,65.0,0.0,60.0,10.0,0.0
4541,74.0,30.0,30.0,8.0,0.0
4542,83.0,0.0,30.0,4.0,0.0
4543,65.0,0.0,60.0,5.0,0.0
4544,53.0,0.0,60.0,3.0,0.0
4545,73.0,30.0,30.0,8.0,0.0
4546,73.0,0.0,30.0,1.0,0.0
4547,73.0,0.0,30.0,4.0,0.0
4548,81.0,0.0,30.0,6.0,0.0
4549,73.0,0.0,30.0,0.0,0.0
4550,68.0,0.0,60.0,2.0,0.0
4551,63.0,30.0,60.0,10.0,0.0
4552,77.0,0.0,30.0,0.0,0.0
4553,68.0,0.0,60.0,5.0,0.0
4554,80.0,0.0,30.0,6.0,0.0
4555,83.0,0.0,60.0,8.0,0.0
4556,77.0,30.0,30.0,4.0,0.0
4557,63.0,0.0,60.0,7.0,0.0
4558,51.0,0.0,60.0,3.0,0.0
4559,83.0,0.0,60.0,1.0,0.0
4560,80.0,0.0,30.0,4.0,0.0
4561,80.0,0.0,30.0,0.0,0.0
4562,78.0,0.0,30.0,6.0,0.0
4563,80.0,0.0,30.0,6.0,0.0
4564,77.0,0.0,60.0,8.0,0.0
4565,77.0,0.0,60.0,1.0,0.0
4566,68.0,0.0,60.0,2.0,0.0
4567,61.0,0.0,60.0,7.0,0.0
4568,49.0,0.0,60.0,3.0,0.0
4569,85.0,0.0,30.0,4.0,0.0
4570,85.0,30.0,30.0,0.0,0.0
4571,61.0,0.0,60.0,10.0,0.0
4572,61.0,30.0,60.0,5.0,0.0
4573,83.0,0.0,30.0,0.0,0.0
4574,77.0,0.0,30.0,6.0,0.0
4575,83.0,0.0,30.0,4.0,0.0
4576,66.0,0.0,60.0,2.0,0.0
4577,81.0,0.0,60.0,0.0,0.0
4578,66.0,0.0,60.0,10.0,0.0
4579,66.0,30.0,30.0,5.0,0.0
4580,66.0,0.0,60.0,7.0,0.0
4581,78.0,0.0,120.0,8.0,0.0
4582,78.0,0.0,60.0,1.0,0.0
4583,81.0,0.0,60.0,4.0,0.0
4584,73.0,0.0,30.0,6.0,0.0
4585,54.0,0.0,60.0,3.0,0.0
4586,66.0,0.0,30.0,6.0,0.0
4587,78.0,30.0,30.0,5.0,0.0
4588,73.0,0.0,30.0,5.0,0.0
4589,69.0,0.0,30.0,6.0,0.0
4590,61.0,30.0,30.0,7.0,0.0
4591,42.0,0.0,60.0,3.0,0.0
4592,54.0,0.0,60.0,10.0,0.0
4593,78.0,30.0,30.0,5.0,0.0
4594,73.0,0.0,30.0,6.0,0.0
4595,59.0,0.0,30.0,7.0,0.0
4596,56.0,0.0,60.0,10.0,0.0
4597,44.0,0.0,60.0,3.0,0.0
4598,57.0,30.0,30.0,7.0,0.0
4599,69.0,0.0,30.0,5.0,0.0
4600,78.0,0.0,30.0,6.0,0.0
4601,59.0,0.0,30.0,7.0,0.0
4602,73.0,0.0,30.0,5.0,0.0
4603,77.0,30.0,30.0,6.0,0.0
4604,73.0,0.0,60.0,2.0,0.0
4605,45.0,0.0,60.0,3.0,0.0
4606,78.0,0.0,60.0,1.0,0.0
4607,78.0,0.0,60.0,6.0,0.0
4608,57.0,0.0,60.0,10.0,0.0
4609,66.0,0.0,30.0,5.0,0.0
4610,81.0,0.0,60.0,0.0,0.0
4611,57.0,30.0,30.0,7.0,0.0
4612,73.0,30.0,30.0,5.0,0.0
4613,61.0,0.0,30.0,7.0,0.0
4614,66.0,0.0,30.0,8.0,0.0
4615,57.0,0.0,60.0,10.0,0.0
4616,85.0,0.0,60.0,6.0,0.0
4617,69.0,0.0,30.0,5.0,0.0
4618,69.0,30.0,30.0,8.0,0.0
4619,45.0,0.0,60.0,3.0,0.0
4620,85.0,0.0,60.0,4.0,0.0
4621,66.0,0.0,30.0,7.0,0.0
4622,73.0,0.0,30.0,8.0,0.0
4623,66.0,0.0,30.0,5.0,0.0
4624,69.0,30.0,30.0,7.0,0.0
4625,83.0,0.0,30.0,4.0,0.0
4626,59.0,30.0,60.0,10.0,0.0
4627,62.0,30.0,30.0,5.0,0.0
4628,86.0,30.0,90.0,6.0,0.0
4629,78.0,0.0,30.0,8.0,0.0
4630,47.0,0.0,60.0,3.0,0.0
4631,68.0,0.0,30.0,7.0,0.0
4632,66.0,0.0,30.0,5.0,0.0
4633,81.0,0.0,30.0,4.0,0.0
4634,66.0,0.0,30.0,7.0,0.0
4635,80.0,0.0,30.0,8.0,0.0
4636,80.0,0.0,60.0,0.0,0.0
4637,80.0,0.0,30.0,4.0,0.0
4638,73.0,0.0,60.0,2.0,0.0
4639,73.0,0.0,60.0,7.0,0.0
4640,49.0,0.0,120.0,3.0,0.0
4641,77.0,30.0,120.0,8.0,0.0
4642,77.0,0.0,60.0,1.0,0.0
4643,61.0,0.0,30.0,10.0,0.0
4644,61.0,0.0,120.0,5.0,0.0
4645,73.0,30.0,30.0,10.0,0.0
4646,73.0,0.0,30.0,4.0,0.0
4647,85.0,0.0,30.0,6.0,0.0
4648,73.0,0.0,60.0,2.0,0.0
4649,73.0,0.0,60.0,1.0,0.0
4650,77.0,0.0,60.0,6.0,0.0
4651,73.0,0.0,60.0,7.0,0.0
4652,77.0,0.0,30.0,4.0,0.0
4653,73.0,0.0,60.0,0.0,0.0
4654,68.0,30.0,30.0,10.0,0.0
4655,73.0,0.0,30.0,10.0,0.0
4656,80.0,0.0,30.0,4.0,0.0
4657,68.0,0.0,60.0,7.0,0.0
4658,65.0,0.0,30.0,10.0,0.0
4659,77.0,30.0,30.0,4.0,0.0
4660,68.0,0.0,60.0,0.0,0.0
4661,80.0,0.0,60.0,6.0,0.0
4662,68.0,0.0,60.0,2.0,0.0
4663,68.0,0.0,60.0,1.0,0.0
4664,68.0,30.0,30.0,10.0,0.0
4665,73.0,0.0,30.0,4.0,0.0
4666,65.0,0.0,60.0,2.0,0.0
4667,85.0,0.0,120.0,6.0,0.0
4668,65.0,0.0,60.0,0.0,0.0
4669,61.0,0.0,120.0,3.0,0.0
4670,65.0,0.0,60.0,1.0,0.0
4671,65.0,29.0,30.0,7.0,0.0
4672,80.0,1.0,30.0,4.0,0.0
4673,61.0,0.0,120.0,5.0,0.0
4674,61.0,0.0,120.0,10.0,0.0
4675,73.0,1.0,30.0,8.0,0.0
4676,68.0,29.0,30.0,7.0,0.0
4677,77.0,0.0,30.0,4.0,0.0
4678,80.0,0.0,30.0,4.0,0.0
4679,61.0,29.0,30.0,7.0,0.0
4680,61.0,0.0,30.0,0.0,0.0
4681,61.0,1.0,30.0,1.0,0.0
4682,61.0,0.0,30.0,2.0,0.0
4683,77.0,0.0,30.0,8.0,0.0
4684,63.0,1.0,30.0,0.0,0.0
4685,83.0,0.0,30.0,4.0,0.0
4686,63.0,0.0,30.0,2.0,0.0
4687,80.0,0.0,30.0,8.0,0.0
4688,63.0,0.0,30.0,1.0,0.0
4689,63.0,29.0,30.0,7.0,0.0
4690,65.0,0.0,30.0,2.0,0.0
4691,65.0,1.0,30.0,0.0,0.0
4692,77.0,0.0,30.0,8.0,0.0
4693,65.0,29.0,30.0,7.0,0.0
4694,65.0,0.0,30.0,1.0,0.0
4695,80.0,0.0,30.0,4.0,0.0
4696,77.0,0.0,30.0,4.0,0.0
4697,66.0,0.0,30.0,2.0,0.0
4698,66.0,0.0,30.0,0.0,0.0
4699,66.0,59.0,30.0,7.0,0.0
4700,66.0,0.0,30.0,1.0,0.0
4701,73.0,1.0,30.0,8.0,0.0
4702,68.0,0.0,60.0,0.0,0.0
4703,68.0,0.0,60.0,7.0,0.0
4704,85.0,0.0,60.0,8.0,0.0
4705,68.0,0.0,60.0,2.0,0.0
4706,68.0,0.0,60.0,1.0,0.0
4707,73.0,20.0,60.0,4.0,0.0
4708,79.0,0.0,120.0,1.0,0.0
4709,61.0,0.0,60.0,7.0,0.0
4710,49.0,0.0,60.0,3.0,0.0
4711,73.0,10.0,30.0,6.0,0.0
4712,85.0,0.0,120.0,0.0,0.0
4713,82.0,0.0,30.0,4.0,0.0
4714,79.0,10.0,20.0,8.0,0.0
4715,61.0,15.0,60.0,10.0,0.0
4716,76.0,0.0,180.0,2.0,0.0
4717,61.0,0.0,60.0,5.0,0.0
4718,81.0,20.0,20.0,8.0,0.0
4719,83.0,0.0,30.0,4.0,0.0
4720,74.0,0.0,30.0,6.0,0.0
4721,79.0,0.0,20.0,8.0,0.0
4722,59.0,30.0,60.0,10.0,0.0
4723,47.0,0.0,60.0,3.0,0.0
4724,59.0,0.0,60.0,5.0,0.0
4725,73.0,15.0,30.0,6.0,0.0
4726,59.0,0.0,60.0,7.0,0.0
4727,82.0,0.0,30.0,4.0,0.0
4728,81.0,15.0,15.0,8.0,0.0
4729,79.0,0.0,15.0,8.0,0.0
4730,83.0,0.0,30.0,4.0,0.0
4731,81.0,15.0,15.0,8.0,0.0
4732,74.0,0.0,30.0,6.0,0.0
4733,79.0,0.0,15.0,8.0,0.0
4734,58.0,0.0,60.0,7.0,0.0
4735,58.0,30.0,60.0,5.0,0.0
4736,79.0,0.0,30.0,8.0,0.0
4737,46.0,0.0,60.0,3.0,0.0
4738,76.0,0.0,30.0,6.0,0.0
4739,85.0,30.0,30.0,4.0,0.0
4740,58.0,0.0,60.0,10.0,0.0
4741,78.0,0.0,30.0,8.0,0.0
4742,66.0,0.0,30.0,6.0,0.0
4743,78.0,0.0,30.0,1.0,0.0
4744,86.0,0.0,30.0,0.0,0.0
4745,86.0,0.0,30.0,4.0,0.0
4746,44.0,0.0,60.0,3.0,0.0
4747,88.0,0.0,60.0,8.0,0.0
4748,85.0,30.0,30.0,0.0,0.0
4749,70.0,0.0,30.0,6.0,0.0
4750,88.0,0.0,60.0,1.0,0.0
4751,61.0,0.0,60.0,7.0,0.0
4752,73.0,0.0,60.0,2.0,0.0
4753,56.0,0.0,60.0,10.0,0.0
4754,56.0,0.0,60.0,5.0,0.0
4755,85.0,0.0,30.0,4.0,0.0
4756,83.0,0.0,30.0,0.0,0.0
4757,83.0,30.0,30.0,4.0,0.0
4758,73.0,0.0,30.0,6.0,0.0
4759,42.0,30.0,60.0,3.0,0.0
4760,54.0,0.0,60.0,7.0,0.0
4761,54.0,0.0,60.0,10.0,0.0
4762,85.0,30.0,30.0,0.0,0.0
4763,85.0,0.0,30.0,4.0,0.0
4764,82.0,0.0,60.0,1.0,0.0
4765,78.0,0.0,30.0,6.0,0.0
4766,78.0,0.0,60.0,2.0,0.0
4767,82.0,0.0,60.0,8.0,0.0
4768,54.0,0.0,60.0,5.0,0.0
4769,82.0,0.0,30.0,0.0,0.0
4770,82.0,0.0,30.0,4.0,0.0
4771,76.0,0.0,30.0,6.0,0.0
4772,59.0,0.0,60.0,10.0,0.0
4773,78.0,30.0,60.0,2.0,0.0
4774,74.0,30.0,30.0,6.0,0.0
4775,47.0,0.0,60.0,3.0,0.0
4776,59.0,0.0,60.0,5.0,0.0
4777,83.0,0.0,60.0,1.0,0.0
4778,78.0,0.0,60.0,4.0,0.0
4779,83.0,0.0,60.0,8.0,0.0
4780,47.0,0.0,60.0,7.0,0.0
4781,86.0,0.0,60.0,0.0,0.0
4782,78.0,0.0,30.0,6.0,0.0
4783,74.0,0.0,60.0,10.0,0.0
4784,59.0,0.0,60.0,7.0,0.0
4785,86.0,14.0,120.0,4.0,0.0
4786,66.0,0.0,60.0,5.0,0.0
4787,71.0,30.0,30.0,6.0,0.0
4788,59.0,0.0,60.0,3.0,0.0
4789,74.0,30.0,30.0,6.0,0.0
4790,57.0,0.0,60.0,7.0,0.0
4791,57.0,0.0,60.0,3.0,0.0
4792,78.0,30.0,30.0,6.0,0.0
4793,73.0,0.0,60.0,10.0,0.0
4794,71.0,16.0,60.0,5.0,0.0
4795,74.0,0.0,30.0,6.0,0.0
4796,71.0,0.0,60.0,2.0,0.0
4797,71.0,0.0,30.0,10.0,0.0
4798,86.0,0.0,60.0,0.0,0.0
4799,55.0,0.0,60.0,7.0,0.0
4800,55.0,0.0,60.0,3.0,0.0
4801,76.0,0.0,30.0,6.0,0.0
4802,76.0,0.0,60.0,1.0,0.0
4803,64.0,0.0,60.0,5.0,0.0
4804,85.0,15.0,15.0,4.0,0.0
4805,83.0,15.0,15.0,4.0,0.0
4806,79.0,0.0,30.0,6.0,0.0
4807,76.0,0.0,30.0,10.0,0.0
4808,81.0,15.0,15.0,4.0,0.0
4809,59.0,0.0,60.0,7.0,0.0
4810,52.0,0.0,60.0,3.0,0.0
4811,71.0,0.0,30.0,10.0,0.0
4812,83.0,29.0,150.0,8.0,0.0
4813,71.0,0.0,30.0,6.0,0.0
4814,79.0,15.0,15.0,4.0,0.0
4815,67.0,0.0,60.0,5.0,0.0
4816,78.0,30.0,15.0,4.0,0.0
4817,69.0,30.0,30.0,10.0,0.0
4818,76.0,0.0,30.0,4.0,0.0
4819,76.0,0.0,30.0,6.0,0.0
4820,79.0,0.0,30.0,6.0,0.0
4821,71.0,0.0,60.0,5.0,0.0
4822,52.0,0.0,60.0,7.0,0.0
4823,88.0,0.0,30.0,4.0,0.0
4824,67.0,30.0,30.0,10.0,0.0
4825,66.0,0.0,30.0,10.0,0.0
4826,86.0,0.0,30.0,4.0,0.0
4827,83.0,30.0,30.0,6.0,0.0
4828,69.0,30.0,60.0,2.0,0.0
4829,64.0,0.0,60.0,5.0,0.0
4830,79.0,1.0,30.0,6.0,0.0
4831,76.0,0.0,60.0,1.0,0.0
4832,85.0,18.0,180.0,4.0,0.0
4833,85.0,0.0,60.0,0.0,0.0
4834,64.0,0.0,60.0,10.0,0.0
4835,76.0,0.0,30.0,6.0,0.0
4836,79.0,0.0,30.0,8.0,0.0
4837,76.0,0.0,30.0,8.0,0.0
4838,57.0,0.0,60.0,3.0,0.0
4839,61.0,30.0,60.0,10.0,0.0
4840,67.0,0.0,60.0,5.0,0.0
4841,57.0,0.0,60.0,7.0,0.0
4842,73.0,30.0,30.0,6.0,0.0
4843,73.0,0.0,30.0,8.0,0.0
4844,76.0,0.0,30.0,6.0,0.0
4845,55.0,0.0,60.0,3.0,0.0
4846,73.0,0.0,60.0,5.0,0.0
4847,69.0,15.0,90.0,10.0,0.0
4848,76.0,30.0,30.0,8.0,0.0
4849,55.0,12.0,60.0,7.0,0.0
4850,81.0,0.0,30.0,6.0,0.0
4851,79.0,0.0,30.0,8.0,0.0
4852,76.0,0.0,30.0,6.0,0.0
4853,54.0,0.0,60.0,3.0,0.0
4854,74.0,0.0,60.0,1.0,0.0
4855,54.0,0.0,60.0,7.0,0.0
4856,74.0,0.0,30.0,6.0,0.0
4857,62.0,0.0,60.0,5.0,0.0
4858,69.0,0.0,60.0,2.0,0.0
4859,85.0,15.0,60.0,0.0,0.0
4860,81.0,29.0,210.0,8.0,0.0
4861,83.0,0.0,15.0,4.0,0.0
4862,81.0,15.0,15.0,4.0,0.0
4863,74.0,0.0,30.0,10.0,0.0
4864,78.0,0.0,30.0,6.0,0.0
4865,79.0,0.0,15.0,4.0,0.0
4866,69.0,0.0,30.0,10.0,0.0
4867,57.0,0.0,60.0,7.0,0.0
4868,66.0,0.0,60.0,5.0,0.0
4869,69.0,30.0,30.0,6.0,0.0
4870,78.0,15.0,15.0,4.0,0.0
4871,50.0,0.0,60.0,3.0,0.0
4872,76.0,0.0,15.0,4.0,0.0
4873,74.0,0.0,30.0,6.0,0.0
4874,74.0,0.0,30.0,4.0,0.0
4875,67.0,30.0,30.0,10.0,0.0
4876,78.0,0.0,30.0,6.0,0.0
4877,66.0,30.0,30.0,10.0,0.0
4878,86.0,0.0,30.0,4.0,0.0
4879,69.0,0.0,60.0,5.0,0.0
4880,50.0,0.0,60.0,7.0,0.0
4881,81.0,0.0,30.0,6.0,0.0
4882,64.0,30.0,30.0,10.0,0.0
4883,85.0,0.0,30.0,4.0,0.0
4884,83.0,14.0,180.0,4.0,0.0
4885,74.0,0.0,60.0,1.0,0.0
4886,62.0,0.0,60.0,5.0,0.0
4887,83.0,0.0,60.0,0.0,0.0
4888,67.0,30.0,60.0,2.0,0.0
4889,62.0,0.0,60.0,10.0,0.0
4890,78.0,1.0,30.0,6.0,0.0
4891,78.0,0.0,30.0,8.0,0.0
4892,74.0,0.0,30.0,6.0,0.0
4893,66.0,0.0,60.0,5.0,0.0
4894,74.0,0.0,30.0,8.0,0.0
4895,55.0,0.0,60.0,10.0,0.0
4896,71.0,30.0,30.0,6.0,0.0
4897,55.0,0.0,60.0,3.0,0.0
4898,55.0,0.0,60.0,7.0,0.0
4899,74.0,30.0,30.0,6.0,0.0
4900,71.0,0.0,30.0,8.0,0.0
4901,71.0,0.0,60.0,5.0,0.0
4902,54.0,0.0,60.0,3.0,0.0
4903,67.0,0.0,90.0,10.0,0.0
4904,74.0,30.0,30.0,8.0,0.0
4905,54.0,0.0,60.0,7.0,0.0
4906,79.0,0.0,30.0,6.0,0.0
4907,74.0,0.0,30.0,6.0,0.0
4908,78.0,16.0,30.0,8.0,0.0
4909,73.0,0.0,30.0,6.0,0.0
4910,73.0,0.0,60.0,1.0,0.0
4911,83.0,0.0,60.0,0.0,0.0
4912,52.0,0.0,60.0,7.0,0.0
4913,79.0,29.0,210.0,8.0,0.0
4914,67.0,0.0,60.0,2.0,0.0
4915,52.0,0.0,60.0,3.0,0.0
4916,61.0,0.0,60.0,5.0,0.0
4917,81.0,15.0,15.0,4.0,0.0
4918,76.0,0.0,30.0,6.0,0.0
4919,79.0,15.0,15.0,4.0,0.0
4920,73.0,0.0,30.0,10.0,0.0
4921,78.0,15.0,15.0,4.0,0.0
4922,49.0,0.0,60.0,3.0,0.0
4923,67.0,0.0,30.0,10.0,0.0
4924,76.0,15.0,15.0,4.0,0.0
4925,70.0,30.0,30.0,6.0,0.0
4926,64.0,0.0,60.0,5.0,0.0
4927,55.0,0.0,60.0,7.0,0.0
4928,74.0,0.0,15.0,4.0,0.0
4929,66.0,0.0,30.0,10.0,0.0
4930,73.0,30.0,30.0,4.0,0.0
4931,73.0,0.0,30.0,6.0,0.0
4932,64.0,0.0,30.0,10.0,0.0
4933,49.0,30.0,60.0,7.0,0.0
4934,76.0,0.0,30.0,6.0,0.0
4935,67.0,0.0,60.0,5.0,0.0
4936,85.0,30.0,30.0,4.0,0.0
4937,79.0,0.0,30.0,6.0,0.0
4938,83.0,0.0,30.0,4.0,0.0
4939,62.0,0.0,30.0,10.0,0.0
4940,82.0,0.0,120.0,4.0,0.0
4941,73.0,0.0,60.0,1.0,0.0
4942,61.0,0.0,60.0,5.0,0.0
4943,66.0,0.0,60.0,2.0,0.0
4944,61.0,0.0,60.0,10.0,0.0
4945,76.0,1.0,30.0,6.0,0.0
4946,82.0,0.0,60.0,0.0,0.0
4947,76.0,30.0,30.0,8.0,0.0
4948,73.0,0.0,30.0,6.0,0.0
4949,54.0,0.0,60.0,7.0,0.0
4950,54.0,0.0,60.0,10.0,0.0
4951,54.0,0.0,60.0,3.0,0.0
4952,73.0,0.0,30.0,8.0,0.0
4953,70.0,30.0,30.0,6.0,0.0
4954,64.0,0.0,60.0,5.0,0.0
4955,73.0,30.0,30.0,6.0,0.0
4956,70.0,0.0,30.0,8.0,0.0
4957,52.0,0.0,60.0,7.0,0.0
4958,52.0,0.0,60.0,3.0,0.0
4959,66.0,15.0,90.0,10.0,0.0
4960,73.0,0.0,30.0,8.0,0.0
4961,78.0,30.0,30.0,6.0,0.0
4962,81.0,14.0,60.0,4.0,0.0
4963,69.0,16.0,60.0,5.0,0.0
4964,76.0,0.0,30.0,8.0,0.0
4965,73.0,0.0,30.0,6.0,0.0
4966,51.0,15.0,60.0,3.0,0.0
4967,71.0,0.0,60.0,1.0,0.0
4968,51.0,0.0,60.0,7.0,0.0
4969,59.0,0.0,60.0,5.0,0.0
4970,71.0,0.0,30.0,6.0,0.0
4971,66.0,0.0,60.0,2.0,0.0
4972,81.0,0.0,60.0,0.0,0.0
4973,78.0,30.0,180.0,8.0,0.0
4974,79.0,0.0,15.0,4.0,0.0
4975,75.0,0.0,30.0,6.0,0.0
4976,78.0,15.0,15.0,4.0,0.0
4977,71.0,0.0,30.0,10.0,0.0
4978,76.0,0.0,15.0,4.0,0.0
4979,66.0,0.0,30.0,10.0,0.0
4980,47.0,0.0,60.0,3.0,0.0
4981,75.0,15.0,15.0,4.0,0.0
4982,66.0,0.0,30.0,6.0,0.0
4983,63.0,0.0,60.0,5.0,0.0
4984,54.0,0.0,60.0,7.0,0.0
4985,73.0,30.0,15.0,4.0,0.0
4986,71.0,0.0,30.0,4.0,0.0
4987,64.0,0.0,30.0,10.0,0.0
4988,71.0,30.0,30.0,6.0,0.0
4989,75.0,0.0,30.0,6.0,0.0
4990,47.0,0.0,60.0,7.0,0.0
4991,66.0,0.0,60.0,5.0,0.0
4992,63.0,0.0,30.0,10.0,0.0
4993,83.0,30.0,30.0,4.0,0.0
4994,59.0,0.0,30.0,10.0,0.0
4995,81.0,0.0,30.0,4.0,0.0
4996,78.0,0.0,30.0,6.0,0.0
4997,52.0,0.0,60.0,3.0,0.0
4998,64.0,29.0,1080.0,2.0,0.0
4999,79.0,0.0,60.0,8.0,0.0
5000,79.0,30.0,30.0,4.0,0.0
5001,79.0,0.0,360.0,0.0,0.0
5002,71.0,0.0,360.0,1.0,0.0
5003,64.0,0.0,60.0,10.0,0.0
5004,76.0,0.0,60.0,6.0,0.0
5005,52.0,0.0,120.0,7.0,0.0
5006,76.0,30.0,30.0,4.0,0.0
5007,59.0,0.0,30.0,5.0,0.0
5008,79.0,0.0,60.0,6.0,0.0
5009,64.0,0.0,60.0,3.0,0.0
5010,64.0,0.0,30.0,5.0,0.0
5011,71.0,30.0,30.0,4.0,0.0
5012,76.0,0.0,60.0,8.0,0.0
5013,59.0,30.0,30.0,10.0,0.0
5014,67.0,0.0,30.0,5.0,0.0
5015,76.0,0.0,30.0,4.0,0.0
5016,71.0,0.0,60.0,8.0,0.0
5017,52.0,30.0,60.0,3.0,0.0
5018,83.0,0.0,60.0,6.0,0.0
5019,64.0,0.0,30.0,5.0,0.0
5020,79.0,30.0,30.0,4.0,0.0
5021,64.0,0.0,30.0,10.0,0.0
5022,67.0,0.0,30.0,10.0,0.0
5023,83.0,0.0,30.0,4.0,0.0
5024,63.0,0.0,30.0,5.0,0.0
5025,64.0,0.0,30.0,5.0,0.0
5026,79.0,30.0,30.0,4.0,0.0
5027,76.0,0.0,60.0,6.0,0.0
5028,52.0,0.0,120.0,3.0,0.0
5029,71.0,30.0,60.0,10.0,0.0
5030,64.0,0.0,60.0,7.0,0.0
5031,79.0,0.0,60.0,8.0,0.0
5032,76.0,0.0,30.0,4.0,0.0
5033,59.0,0.0,30.0,5.0,0.0
5034,79.0,0.0,60.0,6.0,0.0
5035,52.0,0.0,60.0,7.0,0.0
5036,64.0,0.0,30.0,5.0,0.0
5037,71.0,30.0,30.0,4.0,0.0
5038,76.0,0.0,60.0,8.0,0.0
5039,67.0,30.0,30.0,5.0,0.0
5040,76.0,0.0,30.0,4.0,0.0
5041,59.0,0.0,30.0,10.0,0.0
5042,71.0,0.0,60.0,8.0,0.0
5043,79.0,0.0,30.0,4.0,0.0
5044,64.0,0.0,30.0,5.0,0.0
5045,83.0,0.0,60.0,6.0,0.0
5046,64.0,30.0,30.0,10.0,0.0
5047,64.0,0.0,60.0,7.0,0.0
5048,67.0,30.0,30.0,10.0,0.0
5049,83.0,0.0,30.0,4.0,0.0
5050,63.0,0.0,30.0,5.0,0.0
5051,64.0,0.0,60.0,10.0,0.0
5052,76.0,0.0,60.0,6.0,0.0
5053,79.0,0.0,60.0,8.0,0.0
5054,84.0,0.0,360.0,0.0,0.0
5055,52.0,0.0,60.0,3.0,0.0
5056,64.0,0.0,30.0,5.0,0.0
5057,64.0,30.0,120.0,7.0,0.0
5058,79.0,30.0,30.0,4.0,0.0
5059,67.0,30.0,180.0,1.0,0.0
5060,60.0,0.0,30.0,5.0,0.0
5061,76.0,30.0,30.0,4.0,0.0
5062,64.0,30.0,30.0,5.0,0.0
5063,76.0,0.0,60.0,8.0,0.0
5064,72.0,0.0,30.0,4.0,0.0
5065,79.0,0.0,60.0,6.0,0.0
5066,64.0,0.0,60.0,3.0,0.0
5067,60.0,0.0,30.0,10.0,0.0
5068,67.0,0.0,30.0,5.0,0.0
5069,76.0,0.0,30.0,4.0,0.0
5070,64.0,0.0,30.0,10.0,0.0
5071,84.0,0.0,60.0,6.0,0.0
5072,79.0,0.0,30.0,4.0,0.0
5073,72.0,0.0,60.0,8.0,0.0
5074,64.0,30.0,30.0,5.0,0.0
5075,52.0,0.0,60.0,3.0,0.0
5076,67.0,0.0,30.0,10.0,0.0
5077,84.0,0.0,30.0,4.0,0.0
5078,63.0,0.0,30.0,5.0,0.0
5079,79.0,0.0,60.0,8.0,0.0
5080,52.0,0.0,120.0,3.0,0.0
5081,76.0,0.0,60.0,6.0,0.0
5082,79.0,30.0,180.0,1.0,0.0
5083,79.0,0.0,30.0,4.0,0.0
5084,64.0,0.0,60.0,7.0,0.0
5085,72.0,0.0,60.0,10.0,0.0
5086,64.0,30.0,30.0,5.0,0.0
5087,60.0,30.0,30.0,5.0,0.0
5088,76.0,0.0,30.0,4.0,0.0
5089,52.0,0.0,60.0,7.0,0.0
5090,72.0,30.0,30.0,4.0,0.0
5091,76.0,0.0,60.0,8.0,0.0
5092,79.0,0.0,60.0,6.0,0.0
5093,64.0,0.0,30.0,5.0,0.0
5094,67.0,30.0,30.0,5.0,0.0
5095,60.0,0.0,30.0,10.0,0.0
5096,76.0,0.0,30.0,4.0,0.0
5097,84.0,0.0,60.0,6.0,0.0
5098,64.0,0.0,30.0,10.0,0.0
5099,64.0,30.0,30.0,5.0,0.0
5100,79.0,0.0,30.0,4.0,0.0
5101,72.0,0.0,60.0,8.0,0.0
5102,64.0,0.0,60.0,7.0,0.0
5103,63.0,0.0,30.0,5.0,0.0
5104,67.0,0.0,30.0,10.0,0.0
5105,84.0,0.0,30.0,4.0,0.0
5106,82.0,0.0,360.0,0.0,0.0
5107,79.0,30.0,30.0,4.0,0.0
5108,82.0,0.0,60.0,8.0,0.0
5109,64.0,0.0,30.0,5.0,0.0
5110,64.0,0.0,120.0,7.0,0.0
5111,64.0,0.0,60.0,10.0,0.0
5112,73.0,0.0,60.0,6.0,0.0
5113,73.0,0.0,360.0,1.0,0.0
5114,52.0,0.0,60.0,3.0,0.0
5115,76.0,0.0,30.0,4.0,0.0
5116,61.0,30.0,30.0,5.0,0.0
5117,64.0,0.0,30.0,5.0,0.0
5118,64.0,30.0,60.0,3.0,0.0
5119,76.0,0.0,60.0,8.0,0.0
5120,79.0,0.0,60.0,6.0,0.0
5121,73.0,30.0,30.0,4.0,0.0
5122,76.0,0.0,30.0,4.0,0.0
5123,67.0,0.0,30.0,5.0,0.0
5124,61.0,0.0,30.0,10.0,0.0
5125,64.0,0.0,30.0,10.0,0.0
5126,79.0,30.0,30.0,4.0,0.0
5127,82.0,0.0,60.0,6.0,0.0
5128,64.0,0.0,30.0,5.0,0.0
5129,52.0,0.0,60.0,3.0,0.0
5130,73.0,0.0,60.0,8.0,0.0
5131,67.0,30.0,30.0,10.0,0.0
5132,63.0,0.0,30.0,5.0,0.0
5133,82.0,0.0,30.0,4.0,0.0
5134,79.0,30.0,30.0,4.0,0.0
5135,64.0,0.0,30.0,5.0,0.0
5136,73.0,30.0,60.0,6.0,0.0
5137,64.0,0.0,60.0,7.0,0.0
5138,73.0,0.0,60.0,10.0,0.0
5139,82.0,0.0,60.0,8.0,0.0
5140,52.0,0.0,120.0,3.0,0.0
5141,76.0,0.0,30.0,4.0,0.0
5142,61.0,0.0,30.0,5.0,0.0
5143,73.0,0.0,30.0,4.0,0.0
5144,76.0,0.0,60.0,8.0,0.0
5145,64.0,30.0,30.0,5.0,0.0
5146,79.0,0.0,60.0,6.0,0.0
5147,52.0,0.0,60.0,7.0,0.0
5148,61.0,0.0,30.0,10.0,0.0
5149,76.0,30.0,30.0,4.0,0.0
5150,67.0,0.0,30.0,5.0,0.0
5151,64.0,0.0,30.0,10.0,0.0
5152,79.0,30.0,30.0,4.0,0.0
5153,64.0,0.0,60.0,7.0,0.0
5154,73.0,0.0,60.0,8.0,0.0
5155,82.0,0.0,60.0,6.0,0.0
5156,64.0,0.0,30.0,5.0,0.0
5157,67.0,0.0,30.0,10.0,0.0
5158,82.0,1.0,30.0,4.0,0.0
5159,63.0,0.0,30.0,5.0,0.0
5160,83.0,0.0,360.0,0.0,0.0
5161,83.0,30.0,60.0,8.0,0.0
5162,65.0,0.0,120.0,7.0,0.0
5163,65.0,0.0,30.0,5.0,0.0
5164,74.0,0.0,360.0,1.0,0.0
5165,74.0,0.0,60.0,6.0,0.0
5166,62.0,0.0,60.0,10.0,0.0
5167,65.0,0.0,360.0,2.0,0.0
5168,53.0,0.0,60.0,3.0,0.0
5169,80.0,30.0,30.0,4.0,0.0
5170,62.0,0.0,30.0,5.0,0.0
5171,77.0,0.0,30.0,4.0,0.0
5172,65.0,0.0,60.0,3.0,0.0
5173,74.0,30.0,30.0,4.0,0.0
5174,80.0,0.0,60.0,8.0,0.0
5175,80.0,0.0,60.0,6.0,0.0
5176,65.0,0.0,30.0,5.0,0.0
5177,77.0,0.0,30.0,4.0,0.0
5178,62.0,30.0,30.0,10.0,0.0
5179,68.0,0.0,30.0,5.0,0.0
5180,53.0,0.0,60.0,3.0,0.0
5181,65.0,30.0,30.0,5.0,0.0
5182,83.0,0.0,60.0,6.0,0.0
5183,65.0,0.0,30.0,10.0,0.0
5184,80.0,0.0,30.0,4.0,0.0
5185,74.0,0.0,60.0,8.0,0.0
5186,64.0,0.0,30.0,5.0,0.0
5187,83.0,30.0,30.0,4.0,0.0
5188,68.0,0.0,30.0,10.0,0.0
5189,74.0,0.0,60.0,10.0,0.0
5190,53.0,0.0,120.0,3.0,0.0
5191,65.0,30.0,30.0,5.0,0.0
5192,65.0,0.0,60.0,7.0,0.0
5193,74.0,30.0,60.0,6.0,0.0
5194,80.0,0.0,30.0,4.0,0.0
5195,83.0,0.0,60.0,8.0,0.0
5196,62.0,0.0,30.0,5.0,0.0
5197,77.0,0.0,30.0,4.0,0.0
5198,53.0,0.0,60.0,7.0,0.0
5199,65.0,30.0,30.0,5.0,0.0
5200,74.0,0.0,30.0,4.0,0.0
5201,80.0,0.0,60.0,6.0,0.0
5202,80.0,30.0,60.0,8.0,0.0
5203,62.0,0.0,30.0,10.0,0.0
5204,77.0,0.0,30.0,4.0,0.0
5205,68.0,0.0,30.0,5.0,0.0
5206,65.0,0.0,30.0,10.0,0.0
5207,65.0,0.0,30.0,5.0,0.0
5208,83.0,0.0,60.0,6.0,0.0
5209,74.0,0.0,60.0,8.0,0.0
5210,65.0,0.0,60.0,7.0,0.0
5211,80.0,30.0,30.0,4.0,0.0
5212,68.0,0.0,30.0,10.0,0.0
5213,83.0,0.0,30.0,4.0,0.0
5214,64.0,30.0,30.0,5.0,0.0
5215,66.0,0.0,60.0,10.0,0.0
5216,76.0,0.0,60.0,6.0,0.0
5217,66.0,0.0,360.0,2.0,0.0
5218,82.0,30.0,30.0,4.0,0.0
5219,66.0,0.0,30.0,5.0,0.0
5220,85.0,30.0,60.0,8.0,0.0
5221,66.0,0.0,120.0,7.0,0.0
5222,73.0,0.0,360.0,1.0,0.0
5223,82.0,0.0,360.0,0.0,0.0
5224,54.0,0.0,60.0,3.0,0.0
5225,64.0,0.0,30.0,5.0,0.0
5226,79.0,0.0,30.0,4.0,0.0
5227,66.0,0.0,30.0,5.0,0.0
5228,82.0,0.0,60.0,6.0,0.0
5229,76.0,30.0,30.0,4.0,0.0
5230,66.0,0.0,60.0,3.0,0.0
5231,82.0,0.0,60.0,8.0,0.0
5232,79.0,30.0,30.0,4.0,0.0
5233,70.0,0.0,30.0,5.0,0.0
5234,64.0,0.0,30.0,10.0,0.0
5235,85.0,0.0,60.0,6.0,0.0
5236,54.0,0.0,60.0,3.0,0.0
5237,66.0,0.0,30.0,10.0,0.0
5238,82.0,0.0,30.0,4.0,0.0
5239,76.0,0.0,60.0,8.0,0.0
5240,66.0,30.0,30.0,5.0,0.0
5241,65.0,0.0,30.0,5.0,0.0
5242,70.0,0.0,30.0,10.0,0.0
5243,85.0,30.0,30.0,4.0,0.0
5244,66.0,0.0,60.0,7.0,0.0
5245,54.0,0.0,120.0,3.0,0.0
5246,76.0,0.0,60.0,6.0,0.0
5247,73.0,30.0,60.0,10.0,0.0
5248,85.0,0.0,60.0,8.0,0.0
5249,82.0,30.0,30.0,4.0,0.0
5250,66.0,0.0,30.0,5.0,0.0
5251,64.0,0.0,30.0,5.0,0.0
5252,79.0,0.0,30.0,4.0,0.0
5253,54.0,30.0,60.0,7.0,0.0
5254,66.0,30.0,30.0,5.0,0.0
5255,82.0,0.0,60.0,6.0,0.0
5256,82.0,0.0,60.0,8.0,0.0
5257,76.0,0.0,30.0,4.0,0.0
5258,64.0,0.0,30.0,10.0,0.0
5259,79.0,0.0,30.0,4.0,0.0
5260,70.0,0.0,30.0,5.0,0.0
5261,82.0,0.0,30.0,4.0,0.0
5262,66.0,0.0,30.0,10.0,0.0
5263,76.0,0.0,60.0,8.0,0.0
5264,85.0,0.0,60.0,6.0,0.0
5265,66.0,0.0,60.0,7.0,0.0
5266,66.0,30.0,30.0,5.0,0.0
5267,85.0,0.0,30.0,4.0,0.0
5268,70.0,0.0,30.0,10.0,0.0
5269,65.0,30.0,30.0,5.0,0.0
5270,68.0,30.0,30.0,5.0,0.0
5271,68.0,0.0,120.0,7.0,0.0
5272,54.0,0.0,60.0,3.0,0.0
5273,71.0,0.0,60.0,10.0,0.0
5274,86.0,0.0,360.0,0.0,0.0
5275,86.0,0.0,60.0,8.0,0.0
5276,71.0,30.0,180.0,1.0,0.0
5277,77.0,0.0,60.0,6.0,0.0
5278,83.0,0.0,30.0,4.0,0.0
5279,59.0,0.0,360.0,2.0,0.0
5280,80.0,30.0,30.0,4.0,0.0
5281,65.0,0.0,30.0,5.0,0.0
5282,66.0,0.0,60.0,3.0,0.0
5283,83.0,0.0,60.0,8.0,0.0
5284,83.0,0.0,60.0,6.0,0.0
5285,68.0,0.0,30.0,5.0,0.0
5286,77.0,30.0,30.0,4.0,0.0
5287,80.0,30.0,30.0,4.0,0.0
5288,71.0,0.0,30.0,5.0,0.0
5289,65.0,0.0,30.0,10.0,0.0
5290,83.0,30.0,30.0,4.0,0.0
5291,86.0,0.0,60.0,6.0,0.0
5292,77.0,0.0,60.0,8.0,0.0
5293,54.0,0.0,60.0,3.0,0.0
5294,68.0,0.0,30.0,10.0,0.0
5295,68.0,0.0,30.0,5.0,0.0
5296,71.0,0.0,30.0,10.0,0.0
5297,86.0,0.0,30.0,4.0,0.0
5298,67.0,0.0,30.0,5.0,0.0
5299,83.0,30.0,30.0,4.0,0.0
5300,68.0,0.0,30.0,5.0,0.0
5301,86.0,30.0,60.0,8.0,0.0
5302,83.0,0.0,180.0,1.0,0.0
5303,68.0,0.0,60.0,10.0,0.0
5304,68.0,0.0,60.0,7.0,0.0
5305,77.0,0.0,60.0,6.0,0.0
5306,54.0,0.0,120.0,3.0,0.0
5307,65.0,0.0,30.0,5.0,0.0
5308,80.0,0.0,30.0,4.0,0.0
5309,83.0,0.0,60.0,6.0,0.0
5310,83.0,0.0,60.0,8.0,0.0
5311,56.0,0.0,60.0,7.0,0.0
5312,77.0,0.0,30.0,4.0,0.0
5313,68.0,30.0,30.0,5.0,0.0
5314,80.0,0.0,30.0,4.0,0.0
5315,65.0,30.0,30.0,10.0,0.0
5316,71.0,0.0,30.0,5.0,0.0
5317,68.0,0.0,60.0,7.0,0.0
5318,77.0,0.0,60.0,8.0,0.0
5319,86.0,0.0,60.0,6.0,0.0
5320,68.0,30.0,30.0,5.0,0.0
5321,83.0,0.0,30.0,4.0,0.0
5322,68.0,0.0,30.0,10.0,0.0
5323,71.0,0.0,30.0,10.0,0.0
5324,86.0,0.0,30.0,4.0,0.0
5325,67.0,30.0,30.0,5.0,0.0
5326,66.0,0.0,60.0,10.0,0.0
5327,54.0,0.0,60.0,3.0,0.0
5328,85.0,0.0,60.0,8.0,0.0
5329,66.0,0.0,360.0,2.0,0.0
5330,82.0,0.0,360.0,1.0,0.0
5331,85.0,0.0,360.0,0.0,0.0
5332,85.0,30.0,30.0,4.0,0.0
5333,70.0,0.0,30.0,5.0,0.0
5334,66.0,0.0,120.0,7.0,0.0
5335,82.0,0.0,60.0,6.0,0.0
5336,66.0,30.0,30.0,5.0,0.0
5337,82.0,0.0,30.0,4.0,0.0
5338,82.0,0.0,60.0,8.0,0.0
5339,70.0,0.0,30.0,5.0,0.0
5340,85.0,0.0,60.0,6.0,0.0
5341,66.0,0.0,60.0,3.0,0.0
5342,79.0,30.0,30.0,4.0,0.0
5343,73.0,30.0,30.0,5.0,0.0
5344,82.0,0.0,30.0,4.0,0.0
5345,66.0,0.0,30.0,10.0,0.0
5346,54.0,0.0,60.0,3.0,0.0
5347,88.0,0.0,60.0,6.0,0.0
5348,70.0,0.0,30.0,10.0,0.0
5349,70.0,30.0,30.0,5.0,0.0
5350,78.0,30.0,60.0,8.0,0.0
5351,85.0,0.0,30.0,4.0,0.0
5352,69.0,0.0,30.0,5.0,0.0
5353,88.0,0.0,30.0,4.0,0.0
5354,73.0,0.0,30.0,10.0,0.0
5355,70.0,30.0,30.0,5.0,0.0
5356,85.0,0.0,30.0,4.0,0.0
5357,85.0,0.0,60.0,8.0,0.0
5358,54.0,0.0,120.0,3.0,0.0
5359,76.0,0.0,60.0,10.0,0.0
5360,82.0,0.0,60.0,6.0,0.0
5361,66.0,0.0,60.0,7.0,0.0
5362,66.0,0.0,30.0,5.0,0.0
5363,82.0,30.0,30.0,4.0,0.0
5364,70.0,30.0,30.0,5.0,0.0
5365,54.0,0.0,60.0,7.0,0.0
5366,82.0,0.0,60.0,8.0,0.0
5367,79.0,0.0,30.0,4.0,0.0
5368,85.0,0.0,60.0,6.0,0.0
5369,66.0,0.0,30.0,10.0,0.0
5370,73.0,30.0,30.0,5.0,0.0
5371,82.0,0.0,30.0,4.0,0.0
5372,78.0,0.0,60.0,8.0,0.0
5373,70.0,30.0,30.0,10.0,0.0
5374,88.0,0.0,60.0,6.0,0.0
5375,66.0,0.0,60.0,7.0,0.0
5376,85.0,0.0,30.0,4.0,0.0
5377,70.0,0.0,30.0,5.0,0.0
5378,66.0,30.0,30.0,5.0,0.0
5379,73.0,0.0,30.0,10.0,0.0
5380,88.0,0.0,30.0,4.0,0.0
5381,86.0,30.0,30.0,4.0,0.0
5382,71.0,0.0,60.0,5.0,0.0
5383,78.0,0.0,60.0,8.0,0.0
5384,83.0,0.0,60.0,8.0,0.0
5385,86.0,0.0,60.0,8.0,0.0
5386,83.0,30.0,60.0,1.0,0.0
5387,86.0,0.0,60.0,0.0,0.0
5388,71.0,0.0,60.0,7.0,0.0
5389,71.0,0.0,60.0,10.0,0.0
5390,66.0,0.0,60.0,2.0,0.0
5391,82.0,0.0,30.0,4.0,0.0
5392,83.0,0.0,60.0,6.0,0.0
5393,59.0,0.0,60.0,5.0,0.0
5394,78.0,0.0,60.0,6.0,0.0
5395,86.0,0.0,60.0,6.0,0.0
5396,59.0,15.0,60.0,10.0,0.0
5397,59.0,0.0,60.0,7.0,0.0
5398,47.0,0.0,60.0,3.0,0.0
5399,83.0,15.0,30.0,4.0,0.0
5400,81.0,15.0,15.0,4.0,0.0
5401,79.0,0.0,15.0,4.0,0.0
5402,61.0,0.0,60.0,10.0,0.0
5403,82.0,0.0,60.0,1.0,0.0
5404,78.0,15.0,15.0,4.0,0.0
5405,61.0,30.0,60.0,7.0,0.0
5406,76.0,0.0,60.0,2.0,0.0
5407,85.0,0.0,60.0,0.0,0.0
5408,61.0,0.0,60.0,5.0,0.0
5409,49.0,0.0,60.0,3.0,0.0
5410,76.0,15.0,15.0,4.0,0.0
5411,74.0,15.0,15.0,4.0,0.0
5412,73.0,0.0,15.0,4.0,0.0
5413,62.0,0.0,60.0,10.0,0.0
5414,83.0,0.0,60.0,8.0,0.0
5415,78.0,0.0,60.0,8.0,0.0
5416,86.0,0.0,60.0,8.0,0.0
5417,62.0,30.0,60.0,7.0,0.0
5418,50.0,0.0,60.0,3.0,0.0
5419,71.0,30.0,30.0,4.0,0.0
5420,62.0,0.0,60.0,5.0,0.0
5421,74.0,0.0,30.0,4.0,0.0
5422,62.0,0.0,60.0,5.0,0.0
5423,78.0,30.0,30.0,4.0,0.0
5424,62.0,0.0,60.0,7.0,0.0
5425,78.0,0.0,60.0,6.0,0.0
5426,83.0,0.0,60.0,6.0,0.0
5427,50.0,0.0,60.0,3.0,0.0
5428,74.0,30.0,60.0,6.0,0.0
5429,62.0,0.0,60.0,10.0,0.0
5430,83.0,0.0,30.0,4.0,0.0
5431,64.0,0.0,60.0,10.0,0.0
5432,64.0,0.0,60.0,7.0,0.0
5433,83.0,0.0,60.0,0.0,0.0
5434,52.0,0.0,60.0,3.0,0.0
5435,73.0,30.0,60.0,2.0,0.0
5436,79.0,0.0,60.0,1.0,0.0
5437,64.0,0.0,60.0,5.0,0.0
5438,73.0,30.0,30.0,4.0,0.0
5439,83.0,0.0,30.0,4.0,0.0
5440,66.0,0.0,60.0,10.0,0.0
5441,66.0,0.0,60.0,7.0,0.0
5442,73.0,0.0,60.0,8.0,0.0
5443,82.0,30.0,60.0,8.0,0.0
5444,82.0,30.0,30.0,4.0,0.0
5445,78.0,0.0,60.0,8.0,0.0
5446,54.0,0.0,60.0,3.0,0.0
5447,66.0,0.0,60.0,5.0,0.0
5448,78.0,0.0,30.0,4.0,0.0
5449,54.0,0.0,60.0,3.0,0.0
5450,66.0,0.0,60.0,10.0,0.0
5451,73.0,0.0,60.0,6.0,0.0
5452,82.0,30.0,60.0,6.0,0.0
5453,76.0,30.0,30.0,4.0,0.0
5454,66.0,0.0,60.0,7.0,0.0
5455,66.0,0.0,60.0,5.0,0.0
5456,78.0,0.0,60.0,6.0,0.0
5457,74.0,0.0,30.0,4.0,0.0
5458,67.0,30.0,60.0,7.0,0.0
5459,76.0,30.0,30.0,4.0,0.0
5460,76.0,0.0,60.0,1.0,0.0
5461,67.0,0.0,60.0,10.0,0.0
5462,67.0,0.0,60.0,5.0,0.0
5463,71.0,0.0,60.0,2.0,0.0
5464,83.0,0.0,60.0,0.0,0.0
5465,55.0,0.0,60.0,3.0,0.0
5466,71.0,0.0,30.0,4.0,0.0
5467,54.0,30.0,60.0,3.0,0.0
5468,70.0,30.0,30.0,4.0,0.0
5469,82.0,0.0,60.0,8.0,0.0
5470,78.0,0.0,60.0,8.0,0.0
5471,73.0,0.0,60.0,8.0,0.0
5472,66.0,0.0,60.0,5.0,0.0
5473,66.0,0.0,60.0,7.0,0.0
5474,66.0,0.0,60.0,10.0,0.0
5475,73.0,0.0,30.0,4.0,0.0
5476,76.0,30.0,30.0,4.0,0.0
5477,64.0,0.0,30.0,7.0,0.0
5478,73.0,0.0,60.0,6.0,0.0
5479,82.0,30.0,60.0,6.0,0.0
5480,64.0,0.0,30.0,5.0,0.0
5481,78.0,0.0,60.0,6.0,0.0
5482,52.0,0.0,30.0,3.0,0.0
5483,64.0,0.0,30.0,10.0,0.0
5484,79.0,0.0,30.0,4.0,0.0
5485,62.0,0.0,30.0,5.0,0.0
5486,62.0,0.0,30.0,7.0,0.0
5487,50.0,0.0,30.0,3.0,0.0
5488,62.0,0.0,30.0,10.0,0.0
5489,61.0,0.0,30.0,10.0,0.0
5490,61.0,0.0,30.0,7.0,0.0
5491,61.0,0.0,30.0,5.0,0.0
5492,79.0,0.0,60.0,1.0,0.0
5493,76.0,30.0,60.0,2.0,0.0
5494,49.0,30.0,30.0,3.0,0.0
5495,76.0,0.0,30.0,4.0,0.0
5496,83.0,0.0,60.0,0.0,0.0
5497,47.0,0.0,30.0,3.0,0.0
5498,59.0,0.0,30.0,7.0,0.0
5499,73.0,0.0,30.0,4.0,0.0
5500,59.0,0.0,30.0,10.0,0.0
5501,59.0,0.0,30.0,5.0,0.0
5502,46.0,30.0,60.0,3.0,0.0
5503,58.0,0.0,60.0,7.0,0.0
5504,67.0,30.0,30.0,4.0,0.0
5505,58.0,0.0,60.0,10.0,0.0
5506,58.0,0.0,60.0,5.0,0.0
5507,76.0,0.0,60.0,8.0,0.0
5508,79.0,0.0,60.0,8.0,0.0
5509,85.0,0.0,60.0,8.0,0.0
5510,70.0,0.0,30.0,4.0,0.0
5511,42.0,0.0,30.0,3.0,0.0
5512,54.0,0.0,30.0,7.0,0.0
5513,54.0,0.0,30.0,10.0,0.0
5514,82.0,0.0,60.0,6.0,0.0
5515,78.0,0.0,60.0,6.0,0.0
5516,85.0,0.0,60.0,6.0,0.0
5517,54.0,0.0,30.0,5.0,0.0
5518,73.0,30.0,30.0,4.0,0.0
5519,44.0,0.0,30.0,3.0,0.0
5520,56.0,0.0,30.0,5.0,0.0
5521,56.0,0.0,30.0,10.0,0.0
5522,76.0,0.0,30.0,4.0,0.0
5523,56.0,30.0,30.0,7.0,0.0
5524,58.0,0.0,30.0,7.0,0.0
5525,58.0,0.0,30.0,5.0,0.0
5526,85.0,30.0,60.0,0.0,0.0
5527,58.0,30.0,30.0,10.0,0.0
5528,46.0,0.0,30.0,3.0,0.0
5529,78.0,0.0,60.0,1.0,0.0
5530,76.0,0.0,60.0,2.0,0.0
5531,73.0,0.0,30.0,4.0,0.0
5532,47.0,0.0,30.0,3.0,0.0
5533,70.0,0.0,30.0,4.0,0.0
5534,59.0,0.0,30.0,7.0,0.0
5535,59.0,0.0,30.0,10.0,0.0
5536,59.0,0.0,30.0,5.0,0.0
5537,61.0,0.0,60.0,7.0,0.0
5538,61.0,30.0,60.0,10.0,0.0
5539,76.0,0.0,60.0,8.0,0.0
5540,73.0,0.0,60.0,8.0,0.0
5541,49.0,0.0,60.0,3.0,0.0
5542,61.0,0.0,60.0,5.0,0.0
5543,67.0,30.0,30.0,4.0,0.0
5544,82.0,0.0,60.0,8.0,0.0
5545,70.0,0.0,30.0,4.0,0.0
5546,61.0,0.0,60.0,7.0,0.0
5547,61.0,30.0,60.0,10.0,0.0
5548,49.0,0.0,60.0,3.0,0.0
5549,73.0,30.0,30.0,4.0,0.0
5550,82.0,0.0,60.0,6.0,0.0
5551,76.0,0.0,60.0,6.0,0.0
5552,73.0,0.0,60.0,6.0,0.0
5553,61.0,0.0,60.0,5.0,0.0
5554,76.0,0.0,30.0,4.0,0.0
5555,62.0,0.0,60.0,5.0,0.0
5556,71.0,30.0,30.0,4.0,0.0
5557,74.0,0.0,60.0,2.0,0.0
5558,62.0,0.0,60.0,10.0,0.0
5559,50.0,0.0,60.0,3.0,0.0
5560,83.0,0.0,60.0,0.0,0.0
5561,78.0,0.0,60.0,1.0,0.0
5562,62.0,30.0,60.0,7.0,0.0
5563,74.0,0.0,30.0,4.0,0.0
5564,61.0,0.0,60.0,7.0,0.0
5565,73.0,0.0,60.0,8.0,0.0
5566,82.0,0.0,60.0,8.0,0.0
5567,76.0,30.0,60.0,8.0,0.0
5568,49.0,0.0,60.0,3.0,0.0
5569,61.0,0.0,60.0,10.0,0.0
5570,61.0,0.0,60.0,5.0,0.0
5571,64.0,30.0,30.0,4.0,0.0
5572,67.0,0.0,30.0,4.0,0.0
5573,82.0,0.0,60.0,6.0,0.0
5574,70.0,0.0,30.0,4.0,0.0
5575,54.0,0.0,30.0,5.0,0.0
5576,73.0,0.0,60.0,6.0,0.0
5577,76.0,0.0,60.0,6.0,0.0
5578,54.0,0.0,30.0,10.0,0.0
5579,54.0,0.0,30.0,7.0,0.0
5580,42.0,30.0,30.0,3.0,0.0
5581,56.0,0.0,30.0,10.0,0.0
5582,56.0,0.0,30.0,7.0,0.0
5583,73.0,0.0,30.0,4.0,0.0
5584,44.0,0.0,30.0,3.0,0.0
5585,56.0,30.0,30.0,5.0,0.0
5586,46.0,0.0,30.0,3.0,0.0
5587,58.0,0.0,30.0,7.0,0.0
5588,70.0,30.0,30.0,4.0,0.0
5589,85.0,0.0,60.0,0.0,0.0
5590,79.0,0.0,60.0,1.0,0.0
5591,58.0,0.0,30.0,5.0,0.0
5592,76.0,0.0,60.0,2.0,0.0
5593,58.0,0.0,30.0,10.0,0.0
5594,47.0,0.0,30.0,3.0,0.0
5595,59.0,30.0,30.0,5.0,0.0
5596,59.0,0.0,30.0,10.0,0.0
5597,59.0,0.0,30.0,7.0,0.0
5598,67.0,0.0,30.0,4.0,0.0
5599,64.0,30.0,30.0,4.0,0.0
5600,73.0,0.0,60.0,8.0,0.0
5601,61.0,0.0,60.0,5.0,0.0
5602,61.0,0.0,60.0,10.0,0.0
5603,82.0,0.0,60.0,8.0,0.0
5604,76.0,0.0,60.0,8.0,0.0
5605,61.0,0.0,60.0,7.0,0.0
5606,49.0,30.0,60.0,3.0,0.0
5607,67.0,0.0,30.0,4.0,0.0
5608,61.0,0.0,60.0,10.0,0.0
5609,61.0,0.0,60.0,7.0,0.0
5610,76.0,0.0,60.0,6.0,0.0
5611,82.0,0.0,60.0,6.0,0.0
5612,61.0,30.0,60.0,5.0,0.0
5613,70.0,30.0,30.0,4.0,0.0
5614,49.0,0.0,60.0,3.0,0.0
5615,73.0,0.0,60.0,6.0,0.0
5616,73.0,0.0,30.0,4.0,0.0
5617,83.0,0.0,60.0,0.0,0.0
5618,66.0,30.0,30.0,4.0,0.0
5619,74.0,0.0,60.0,2.0,0.0
5620,62.0,0.0,60.0,10.0,0.0
5621,62.0,0.0,60.0,7.0,0.0
5622,62.0,0.0,60.0,5.0,0.0
5623,78.0,0.0,60.0,1.0,0.0
5624,50.0,30.0,60.0,3.0,0.0
5625,71.0,0.0,30.0,4.0,0.0
5626,73.0,0.0,60.0,6.0,0.0
5627,76.0,0.0,60.0,6.0,0.0
5628,61.0,0.0,60.0,7.0,0.0
5629,67.0,30.0,30.0,4.0,0.0
5630,82.0,0.0,30.0,8.0,0.0
5631,76.0,29.0,120.0,8.0,0.0
5632,49.0,0.0,60.0,3.0,0.0
5633,61.0,30.0,60.0,10.0,0.0
5634,61.0,0.0,60.0,5.0,0.0
5635,83.0,0.0,30.0,8.0,0.0
5636,64.0,0.0,30.0,4.0,0.0
5637,66.0,0.0,60.0,2.0,0.0
5638,58.0,0.0,60.0,10.0,0.0
5639,61.0,30.0,30.0,4.0,0.0
5640,73.0,0.0,60.0,1.0,0.0
5641,78.0,0.0,30.0,0.0,0.0
5642,46.0,1.0,60.0,3.0,0.0
5643,85.0,0.0,60.0,8.0,0.0
5644,76.0,0.0,30.0,0.0,0.0
5645,64.0,0.0,30.0,4.0,0.0
5646,58.0,0.0,30.0,5.0,0.0
5647,58.0,30.0,30.0,4.0,0.0
5648,42.0,30.0,60.0,3.0,0.0
5649,54.0,0.0,30.0,5.0,0.0
5650,73.0,0.0,60.0,2.0,0.0
5651,70.0,0.0,60.0,6.0,0.0
5652,73.0,0.0,60.0,6.0,0.0
5653,78.0,0.0,60.0,0.0,0.0
5654,54.0,0.0,60.0,7.0,0.0
5655,76.0,0.0,60.0,1.0,0.0
5656,58.0,0.0,30.0,5.0,0.0
5657,64.0,0.0,30.0,4.0,0.0
5658,47.0,0.0,60.0,3.0,0.0
5659,62.0,0.0,30.0,4.0,0.0
5660,66.0,0.0,60.0,6.0,0.0
5661,83.0,30.0,30.0,8.0,0.0
5662,74.0,29.0,120.0,8.0,0.0
5663,59.0,0.0,60.0,7.0,0.0
5664,74.0,0.0,60.0,6.0,0.0
5665,59.0,30.0,60.0,5.0,0.0
5666,59.0,0.0,60.0,10.0,0.0
5667,82.0,0.0,30.0,8.0,0.0
5668,66.0,0.0,30.0,4.0,0.0
5669,83.0,1.0,60.0,8.0,0.0
5670,59.0,0.0,30.0,4.0,0.0
5671,71.0,0.0,60.0,2.0,0.0
5672,43.0,0.0,60.0,3.0,0.0
5673,74.0,0.0,60.0,1.0,0.0
5674,79.0,30.0,30.0,0.0,0.0
5675,55.0,0.0,60.0,10.0,0.0
5676,59.0,0.0,30.0,5.0,0.0
5677,78.0,0.0,30.0,0.0,0.0
5678,62.0,0.0,30.0,4.0,0.0
5679,79.0,0.0,60.0,0.0,0.0
5680,79.0,0.0,60.0,6.0,0.0
5681,71.0,0.0,60.0,6.0,0.0
5682,52.0,0.0,60.0,7.0,0.0
5683,74.0,0.0,60.0,1.0,0.0
5684,64.0,0.0,30.0,4.0,0.0
5685,40.0,30.0,60.0,3.0,0.0
5686,55.0,30.0,30.0,5.0,0.0
5687,71.0,0.0,60.0,2.0,0.0
5688,67.0,0.0,30.0,4.0,0.0
5689,52.0,0.0,30.0,5.0,0.0
5690,57.0,0.0,60.0,10.0,0.0
5691,57.0,0.0,60.0,7.0,0.0
5692,76.0,0.0,60.0,6.0,0.0
5693,73.0,0.0,60.0,6.0,0.0
5694,73.0,29.0,120.0,8.0,0.0
5695,45.0,0.0,60.0,3.0,0.0
5696,81.0,0.0,30.0,8.0,0.0
5697,57.0,0.0,60.0,5.0,0.0
5698,61.0,30.0,30.0,4.0,0.0
5699,64.0,0.0,30.0,4.0,0.0
5700,80.0,30.0,30.0,8.0,0.0
5701,73.0,0.0,60.0,1.0,0.0
5702,81.0,0.0,60.0,8.0,0.0
5703,81.0,30.0,30.0,0.0,0.0
5704,57.0,0.0,30.0,4.0,0.0
5705,69.0,0.0,60.0,2.0,0.0
5706,45.0,1.0,60.0,10.0,0.0
5707,57.0,0.0,60.0,3.0,0.0
5708,59.0,0.0,30.0,5.0,0.0
5709,64.0,0.0,30.0,4.0,0.0
5710,79.0,0.0,30.0,0.0,0.0
5711,64.0,0.0,60.0,2.0,0.0
5712,81.0,0.0,60.0,6.0,0.0
5713,72.0,0.0,60.0,6.0,0.0
5714,55.0,0.0,60.0,3.0,0.0
5715,55.0,0.0,60.0,7.0,0.0
5716,57.0,30.0,30.0,5.0,0.0
5717,66.0,0.0,30.0,4.0,0.0
5718,72.0,0.0,60.0,1.0,0.0
5719,81.0,0.0,60.0,0.0,0.0
5720,67.0,0.0,30.0,4.0,0.0
5721,55.0,30.0,30.0,5.0,0.0
5722,54.0,30.0,60.0,10.0,0.0
5723,69.0,29.0,120.0,8.0,0.0
5724,72.0,0.0,60.0,6.0,0.0
5725,69.0,30.0,30.0,4.0,0.0
5726,54.0,0.0,60.0,5.0,0.0
5727,54.0,0.0,60.0,3.0,0.0
5728,54.0,0.0,60.0,7.0,0.0
5729,75.0,0.0,30.0,8.0,0.0
5730,75.0,0.0,60.0,6.0,0.0
5731,76.0,0.0,30.0,8.0,0.0
5732,66.0,0.0,30.0,4.0,0.0
5733,63.0,0.0,30.0,4.0,0.0
5734,83.0,30.0,30.0,0.0,0.0
5735,71.0,0.0,60.0,1.0,0.0
5736,59.0,0.0,60.0,10.0,0.0
5737,78.0,0.0,60.0,8.0,0.0
5738,63.0,0.0,60.0,2.0,0.0
5739,59.0,0.0,60.0,3.0,0.0
5740,66.0,1.0,30.0,4.0,0.0
5741,54.0,0.0,30.0,5.0,0.0
5742,81.0,0.0,30.0,0.0,0.0
5743,51.0,0.0,30.0,5.0,0.0
5744,83.0,0.0,60.0,0.0,0.0
5745,47.0,0.0,60.0,7.0,0.0
5746,78.0,0.0,60.0,6.0,0.0
5747,71.0,0.0,60.0,6.0,0.0
5748,66.0,0.0,60.0,2.0,0.0
5749,59.0,30.0,30.0,4.0,0.0
5750,47.0,0.0,60.0,3.0,0.0
5751,75.0,30.0,60.0,1.0,0.0
5752,47.0,0.0,30.0,5.0,0.0
5753,69.0,0.0,30.0,4.0,0.0
5754,52.0,30.0,60.0,5.0,0.0
5755,52.0,0.0,60.0,3.0,0.0
5756,52.0,0.0,60.0,7.0,0.0
5757,67.0,29.0,120.0,8.0,0.0
5758,76.0,0.0,30.0,8.0,0.0
5759,71.0,0.0,60.0,6.0,0.0
5760,76.0,0.0,60.0,6.0,0.0
5761,67.0,30.0,30.0,4.0,0.0
5762,52.0,0.0,60.0,10.0,0.0
5763,71.0,0.0,30.0,4.0,0.0
5764,75.0,0.0,30.0,8.0,0.0
5765,64.0,0.0,60.0,2.0,0.0
5766,64.0,0.0,60.0,3.0,0.0
5767,40.0,0.0,60.0,10.0,0.0
5768,76.0,0.0,60.0,8.0,0.0
5769,64.0,0.0,30.0,4.0,0.0
5770,71.0,0.0,60.0,1.0,0.0
5771,79.0,30.0,30.0,0.0,0.0
5772,71.0,1.0,30.0,4.0,0.0
5773,78.0,0.0,30.0,0.0,0.0
5774,54.0,0.0,30.0,5.0,0.0
5775,62.0,0.0,60.0,3.0,0.0
5776,50.0,0.0,60.0,7.0,0.0
5777,73.0,0.0,30.0,4.0,0.0
5778,59.0,0.0,60.0,2.0,0.0
5779,79.0,0.0,60.0,6.0,0.0
5780,79.0,0.0,60.0,0.0,0.0
5781,76.0,30.0,60.0,1.0,0.0
5782,52.0,30.0,30.0,5.0,0.0
5783,76.0,0.0,60.0,6.0,0.0
5784,74.0,0.0,30.0,4.0,0.0
5785,50.0,0.0,30.0,5.0,0.0
5786,76.0,29.0,120.0,8.0,0.0
5787,82.0,30.0,30.0,8.0,0.0
5788,79.0,0.0,60.0,6.0,0.0
5789,76.0,0.0,30.0,4.0,0.0
5790,70.0,0.0,60.0,6.0,0.0
5791,49.0,0.0,60.0,10.0,0.0
5792,49.0,0.0,60.0,5.0,0.0
5793,49.0,0.0,60.0,7.0,0.0
5794,61.0,30.0,60.0,3.0,0.0
5795,83.0,0.0,30.0,8.0,0.0
5796,73.0,0.0,30.0,4.0,0.0
5797,78.0,30.0,30.0,0.0,0.0
5798,70.0,1.0,60.0,1.0,0.0
5799,70.0,0.0,30.0,4.0,0.0
5800,54.0,0.0,60.0,10.0,0.0
5801,85.0,0.0,60.0,8.0,0.0
5802,66.0,0.0,60.0,2.0,0.0
5803,66.0,0.0,60.0,3.0,0.0
5804,73.0,0.0,30.0,4.0,0.0
5805,49.0,0.0,30.0,5.0,0.0
5806,76.0,0.0,30.0,0.0,0.0
5807,66.0,30.0,30.0,4.0,0.0
5808,54.0,30.0,60.0,3.0,0.0
5809,78.0,0.0,60.0,0.0,0.0
5810,78.0,0.0,60.0,6.0,0.0
5811,76.0,0.0,60.0,6.0,0.0
5812,70.0,0.0,60.0,2.0,0.0
5813,42.0,0.0,60.0,7.0,0.0
5814,73.0,0.0,60.0,1.0,0.0
5815,46.0,0.0,30.0,5.0,0.0
5816,42.0,0.0,30.0,5.0,0.0
5817,76.0,0.0,30.0,4.0,0.0
5818,74.0,0.0,30.0,4.0,0.0
5819,74.0,30.0,60.0,6.0,0.0
5820,78.0,0.0,60.0,6.0,0.0
5821,47.0,0.0,60.0,5.0,0.0
5822,83.0,30.0,30.0,8.0,0.0
5823,74.0,29.0,120.0,8.0,0.0
5824,47.0,0.0,60.0,10.0,0.0
5825,47.0,0.0,60.0,7.0,0.0
5826,47.0,0.0,60.0,3.0,0.0
5827,82.0,0.0,30.0,8.0,0.0
5828,78.0,0.0,30.0,4.0,0.0
5829,71.0,30.0,30.0,1.0,0.0
5830,71.0,0.0,30.0,4.0,0.0
5831,59.0,0.0,60.0,10.0,0.0
5832,66.0,1.0,60.0,2.0,0.0
5833,74.0,0.0,30.0,0.0,0.0
5834,59.0,0.0,60.0,3.0,0.0
5835,83.0,0.0,60.0,8.0,0.0
5836,73.0,0.0,30.0,5.0,0.0
5837,73.0,0.0,30.0,0.0,0.0
5838,78.0,0.0,30.0,4.0,0.0
5839,70.0,0.0,30.0,1.0,0.0
5840,71.0,0.0,60.0,1.0,0.0
5841,57.0,0.0,60.0,3.0,0.0
5842,80.0,0.0,30.0,4.0,0.0
5843,71.0,30.0,30.0,5.0,0.0
5844,74.0,0.0,60.0,6.0,0.0
5845,83.0,0.0,60.0,6.0,0.0
5846,59.0,0.0,60.0,2.0,0.0
5847,57.0,0.0,60.0,7.0,0.0
5848,74.0,30.0,60.0,0.0,0.0
5849,69.0,0.0,30.0,5.0,0.0
5850,81.0,0.0,30.0,4.0,0.0
5851,56.0,0.0,60.0,10.0,0.0
5852,83.0,30.0,30.0,4.0,0.0
5853,71.0,29.0,120.0,8.0,0.0
5854,77.0,0.0,30.0,8.0,0.0
5855,74.0,0.0,60.0,6.0,0.0
5856,77.0,30.0,60.0,6.0,0.0
5857,68.0,0.0,30.0,5.0,0.0
5858,56.0,0.0,60.0,3.0,0.0
5859,56.0,0.0,60.0,7.0,0.0
5860,71.0,0.0,30.0,5.0,0.0
5861,80.0,0.0,30.0,4.0,0.0
5862,78.0,0.0,30.0,8.0,0.0
5863,71.0,0.0,60.0,1.0,0.0
5864,61.0,0.0,60.0,3.0,0.0
5865,73.0,0.0,30.0,0.0,0.0
5866,80.0,0.0,60.0,8.0,0.0
5867,77.0,30.0,30.0,4.0,0.0
5868,68.0,0.0,30.0,5.0,0.0
5869,61.0,0.0,60.0,2.0,0.0
5870,61.0,1.0,60.0,10.0,0.0
5871,71.0,0.0,30.0,5.0,0.0
5872,80.0,0.0,30.0,4.0,0.0
5873,71.0,0.0,30.0,0.0,0.0
5874,71.0,0.0,60.0,1.0,0.0
5875,73.0,0.0,60.0,0.0,0.0
5876,73.0,30.0,30.0,4.0,0.0
5877,65.0,0.0,30.0,5.0,0.0
5878,49.0,0.0,60.0,7.0,0.0
5879,65.0,0.0,60.0,2.0,0.0
5880,49.0,0.0,60.0,3.0,0.0
5881,80.0,0.0,60.0,6.0,0.0
5882,73.0,0.0,60.0,6.0,0.0
5883,68.0,30.0,30.0,5.0,0.0
5884,83.0,0.0,30.0,4.0,0.0
5885,54.0,1.0,60.0,3.0,0.0
5886,54.0,0.0,60.0,10.0,0.0
5887,78.0,0.0,30.0,8.0,0.0
5888,73.0,0.0,60.0,6.0,0.0
5889,81.0,30.0,30.0,4.0,0.0
5890,69.0,29.0,60.0,8.0,0.0
5891,81.0,0.0,60.0,6.0,0.0
5892,66.0,0.0,30.0,5.0,0.0
5893,54.0,0.0,60.0,7.0,0.0
5894,69.0,0.0,30.0,5.0,0.0
5895,77.0,0.0,30.0,8.0,0.0
5896,85.0,0.0,30.0,4.0,0.0
5897,73.0,0.0,60.0,0.0,0.0
5898,69.0,0.0,60.0,1.0,0.0
5899,61.0,0.0,60.0,2.0,0.0
5900,78.0,30.0,30.0,4.0,0.0
5901,78.0,30.0,60.0,8.0,0.0
5902,61.0,0.0,30.0,5.0,0.0
5903,73.0,0.0,60.0,8.0,0.0
5904,57.0,0.0,60.0,10.0,0.0
5905,57.0,0.0,60.0,3.0,0.0
5906,66.0,0.0,30.0,5.0,0.0
5907,81.0,0.0,30.0,4.0,0.0
5908,69.0,30.0,30.0,5.0,0.0
5909,69.0,0.0,60.0,1.0,0.0
5910,76.0,0.0,60.0,6.0,0.0
5911,81.0,0.0,60.0,6.0,0.0
5912,82.0,0.0,30.0,4.0,0.0
5913,54.0,0.0,60.0,7.0,0.0
5914,54.0,0.0,60.0,3.0,0.0
5915,57.0,0.0,60.0,2.0,0.0
5916,78.0,0.0,60.0,0.0,0.0
5917,67.0,0.0,30.0,5.0,0.0
5918,76.0,30.0,30.0,4.0,0.0
5919,71.0,0.0,30.0,8.0,0.0
5920,81.0,0.0,60.0,6.0,0.0
5921,75.0,0.0,30.0,4.0,0.0
5922,59.0,0.0,60.0,7.0,0.0
5923,78.0,29.0,120.0,8.0,0.0
5924,59.0,0.0,60.0,3.0,0.0
5925,66.0,30.0,30.0,5.0,0.0
5926,59.0,0.0,60.0,10.0,0.0
5927,75.0,0.0,60.0,6.0,0.0
5928,78.0,0.0,30.0,4.0,0.0
5929,72.0,30.0,30.0,8.0,0.0
5930,69.0,0.0,30.0,5.0,0.0
5931,66.0,30.0,30.0,5.0,0.0
5932,75.0,0.0,30.0,0.0,0.0
5933,59.0,0.0,60.0,2.0,0.0
5934,69.0,0.0,60.0,1.0,0.0
5935,69.0,0.0,60.0,8.0,0.0
5936,51.0,0.0,60.0,10.0,0.0
5937,47.0,0.0,60.0,3.0,0.0
5938,71.0,0.0,30.0,4.0,0.0
5939,73.0,0.0,30.0,0.0,0.0
5940,69.0,0.0,30.0,5.0,0.0
5941,78.0,1.0,30.0,4.0,0.0
5942,69.0,0.0,60.0,1.0,0.0
5943,83.0,0.0,30.0,4.0,0.0
5944,63.0,30.0,30.0,5.0,0.0
5945,59.0,0.0,60.0,3.0,0.0
5946,71.0,0.0,60.0,6.0,0.0
5947,78.0,0.0,60.0,6.0,0.0
5948,63.0,0.0,60.0,2.0,0.0
5949,71.0,0.0,60.0,0.0,0.0
5950,47.0,30.0,60.0,7.0,0.0
5951,81.0,0.0,30.0,4.0,0.0
5952,66.0,0.0,30.0,5.0,0.0
5953,79.0,30.0,30.0,4.0,0.0
5954,64.0,0.0,30.0,5.0,0.0
5955,76.0,0.0,30.0,8.0,0.0
5956,52.0,0.0,60.0,7.0,0.0
5957,79.0,0.0,60.0,6.0,0.0
5958,71.0,0.0,60.0,6.0,0.0
5959,52.0,0.0,60.0,10.0,0.0
5960,67.0,29.0,120.0,8.0,0.0
5961,52.0,0.0,60.0,3.0,0.0
5962,67.0,0.0,30.0,5.0,0.0
5963,75.0,30.0,30.0,8.0,0.0
5964,83.0,0.0,30.0,4.0,0.0
5965,76.0,0.0,30.0,4.0,0.0
5966,71.0,0.0,60.0,0.0,0.0
5967,55.0,0.0,60.0,3.0,0.0
5968,76.0,0.0,60.0,8.0,0.0
5969,67.0,1.0,60.0,1.0,0.0
5970,55.0,0.0,60.0,10.0,0.0
5971,59.0,30.0,30.0,5.0,0.0
5972,59.0,0.0,60.0,2.0,0.0
5973,79.0,0.0,30.0,4.0,0.0
5974,64.0,0.0,30.0,5.0,0.0
5975,76.0,0.0,60.0,0.0,0.0
5976,74.0,0.0,60.0,6.0,0.0
5977,80.0,0.0,60.0,6.0,0.0
5978,52.0,0.0,60.0,7.0,0.0
5979,67.0,0.0,60.0,1.0,0.0
5980,67.0,0.0,30.0,5.0,0.0
5981,52.0,0.0,60.0,3.0,0.0
5982,59.0,30.0,60.0,2.0,0.0
5983,83.0,30.0,30.0,4.0,0.0
5984,66.0,0.0,30.0,5.0,0.0
5985,74.0,0.0,30.0,4.0,0.0
5986,57.0,0.0,60.0,10.0,0.0
5987,73.0,30.0,30.0,4.0,0.0
5988,76.0,29.0,120.0,8.0,0.0
5989,69.0,0.0,30.0,8.0,0.0
5990,73.0,0.0,60.0,6.0,0.0
5991,64.0,0.0,30.0,5.0,0.0
5992,57.0,0.0,60.0,3.0,0.0
5993,79.0,0.0,60.0,6.0,0.0
5994,57.0,0.0,60.0,7.0,0.0
5995,71.0,0.0,30.0,8.0,0.0
5996,67.0,0.0,30.0,5.0,0.0
5997,76.0,30.0,30.0,4.0,0.0
5998,67.0,0.0,60.0,1.0,0.0
5999,45.0,0.0,60.0,3.0,0.0
6000,67.0,0.0,60.0,8.0,0.0
6001,57.0,0.0,60.0,2.0,0.0
6002,49.0,0.0,60.0,10.0,0.0
6003,64.0,0.0,30.0,5.0,0.0
6004,69.0,0.0,30.0,4.0,0.0
6005,73.0,30.0,30.0,0.0,0.0
6006,67.0,1.0,30.0,5.0,0.0
6007,76.0,0.0,30.0,4.0,0.0
6008,71.0,0.0,30.0,0.0,0.0
6009,67.0,0.0,60.0,1.0,0.0
6010,57.0,0.0,60.0,3.0,0.0
6011,73.0,0.0,60.0,6.0,0.0
6012,45.0,0.0,60.0,7.0,0.0
6013,61.0,0.0,30.0,5.0,0.0
6014,61.0,0.0,60.0,2.0,0.0
6015,69.0,0.0,60.0,0.0,0.0
6016,81.0,30.0,30.0,4.0,0.0
6017,76.0,0.0,60.0,6.0,0.0
6018,79.0,0.0,30.0,4.0,0.0
6019,64.0,30.0,30.0,5.0,0.0
6020,62.0,30.0,30.0,5.0,0.0
6021,78.0,0.0,60.0,6.0,0.0
6022,69.0,0.0,60.0,6.0,0.0
6023,50.0,0.0,60.0,10.0,0.0
6024,50.0,1.0,60.0,7.0,0.0
6025,78.0,0.0,30.0,4.0,0.0
6026,50.0,0.0,60.0,3.0,0.0
6027,66.0,29.0,60.0,8.0,0.0
6028,74.0,0.0,30.0,8.0,0.0
6029,81.0,0.0,30.0,4.0,0.0
6030,66.0,0.0,30.0,5.0,0.0
6031,73.0,0.0,30.0,8.0,0.0
6032,69.0,0.0,60.0,0.0,0.0
6033,74.0,0.0,30.0,4.0,0.0
6034,74.0,0.0,60.0,8.0,0.0
6035,66.0,0.0,60.0,1.0,0.0
6036,54.0,0.0,60.0,10.0,0.0
6037,69.0,30.0,60.0,8.0,0.0
6038,54.0,0.0,60.0,3.0,0.0
6039,57.0,30.0,30.0,5.0,0.0
6040,62.0,0.0,60.0,2.0,0.0
6041,62.0,0.0,30.0,5.0,0.0
6042,78.0,0.0,30.0,4.0,0.0
6043,57.0,30.0,60.0,2.0,0.0
6044,50.0,0.0,60.0,7.0,0.0
6045,69.0,0.0,60.0,6.0,0.0
6046,66.0,0.0,60.0,1.0,0.0
6047,74.0,0.0,60.0,0.0,0.0
6048,78.0,0.0,60.0,6.0,0.0
6049,50.0,0.0,60.0,3.0,0.0
6050,81.0,0.0,30.0,4.0,0.0
6051,66.0,30.0,30.0,5.0,0.0
6052,72.0,0.0,30.0,4.0,0.0
6053,64.0,0.0,30.0,5.0,0.0
6054,71.0,30.0,30.0,8.0,0.0
6055,74.0,29.0,120.0,8.0,0.0
6056,55.0,0.0,60.0,7.0,0.0
6057,77.0,0.0,60.0,6.0,0.0
6058,62.0,0.0,60.0,5.0,0.0
6059,71.0,0.0,60.0,6.0,0.0
6060,71.0,0.0,30.0,4.0,0.0
6061,55.0,0.0,60.0,10.0,0.0
6062,55.0,0.0,60.0,3.0,0.0
6063,70.0,0.0,30.0,8.0,0.0
6064,74.0,30.0,30.0,4.0,0.0
6065,47.0,0.0,60.0,10.0,0.0
6066,67.0,30.0,30.0,4.0,0.0
6067,59.0,0.0,60.0,2.0,0.0
6068,74.0,0.0,60.0,0.0,0.0
6069,59.0,0.0,60.0,3.0,0.0
6070,59.0,0.0,60.0,5.0,0.0
6071,71.0,0.0,60.0,8.0,0.0
6072,67.0,1.0,60.0,1.0,0.0
6073,71.0,0.0,30.0,4.0,0.0
6074,66.0,0.0,60.0,1.0,0.0
6075,54.0,0.0,60.0,7.0,0.0
6076,78.0,0.0,60.0,0.0,0.0
6077,78.0,0.0,60.0,6.0,0.0
6078,74.0,0.0,60.0,6.0,0.0
6079,74.0,30.0,30.0,4.0,0.0
6080,57.0,0.0,60.0,3.0,0.0
6081,59.0,0.0,60.0,2.0,0.0
6082,54.0,0.0,60.0,5.0,0.0
6083,66.0,30.0,30.0,4.0,0.0
6084,59.0,0.0,60.0,7.0,0.0
6085,80.0,0.0,60.0,6.0,0.0
6086,74.0,0.0,60.0,6.0,0.0
6087,56.0,0.0,60.0,3.0,0.0
6088,71.0,29.0,120.0,8.0,0.0
6089,62.0,30.0,60.0,10.0,0.0
6090,59.0,0.0,30.0,5.0,0.0
6091,65.0,0.0,30.0,4.0,0.0
6092,68.0,30.0,30.0,8.0,0.0
6093,66.0,0.0,30.0,8.0,0.0
6094,68.0,0.0,30.0,4.0,0.0
6095,62.0,0.0,30.0,5.0,0.0
6096,53.0,0.0,60.0,3.0,0.0
6097,68.0,1.0,60.0,2.0,0.0
6098,53.0,0.0,60.0,10.0,0.0
6099,73.0,0.0,60.0,1.0,0.0
6100,80.0,0.0,60.0,0.0,0.0
6101,61.0,30.0,30.0,5.0,0.0
6102,71.0,0.0,30.0,4.0,0.0
6103,68.0,0.0,60.0,8.0,0.0
6104,59.0,0.0,30.0,5.0,0.0
6105,74.0,0.0,30.0,4.0,0.0
6106,58.0,0.0,30.0,5.0,0.0
6107,53.0,0.0,60.0,7.0,0.0
6108,73.0,0.0,60.0,6.0,0.0
6109,49.0,30.0,60.0,3.0,0.0
6110,73.0,30.0,30.0,4.0,0.0
6111,80.0,0.0,60.0,6.0,0.0
6112,77.0,0.0,60.0,1.0,0.0
6113,68.0,0.0,60.0,2.0,0.0
6114,85.0,0.0,60.0,0.0,0.0
6115,56.0,0.0,30.0,5.0,0.0
6116,71.0,0.0,30.0,4.0,0.0
6117,54.0,0.0,30.0,5.0,0.0
6118,70.0,30.0,30.0,4.0,0.0
6119,54.0,0.0,60.0,10.0,0.0
6120,58.0,30.0,60.0,7.0,0.0
6121,79.0,0.0,60.0,6.0,0.0
6122,73.0,0.0,60.0,6.0,0.0
6123,70.0,0.0,60.0,8.0,0.0
6124,66.0,0.0,60.0,8.0,0.0
6125,54.0,0.0,60.0,3.0,0.0
6126,55.0,0.0,30.0,5.0,0.0
6127,73.0,0.0,30.0,4.0,0.0
6128,61.0,0.0,60.0,8.0,0.0
6129,66.0,0.0,60.0,2.0,0.0
6130,76.0,0.0,30.0,4.0,0.0
6131,46.0,0.0,60.0,3.0,0.0
6132,54.0,30.0,30.0,5.0,0.0
6133,46.0,0.0,60.0,10.0,0.0
6134,78.0,0.0,60.0,1.0,0.0
6135,66.0,30.0,60.0,8.0,0.0
6136,85.0,0.0,60.0,0.0,0.0
6137,52.0,0.0,30.0,5.0,0.0
6138,79.0,0.0,30.0,4.0,0.0
6139,78.0,30.0,30.0,4.0,0.0
6140,54.0,30.0,60.0,7.0,0.0
6141,76.0,0.0,60.0,0.0,0.0
6142,42.0,0.0,60.0,3.0,0.0
6143,66.0,0.0,60.0,8.0,0.0
6144,70.0,0.0,60.0,8.0,0.0
6145,50.0,0.0,30.0,5.0,0.0
6146,78.0,0.0,60.0,1.0,0.0
6147,61.0,0.0,60.0,2.0,0.0
6148,78.0,0.0,60.0,6.0,0.0
6149,76.0,0.0,60.0,6.0,0.0
6150,42.0,0.0,60.0,10.0,0.0
6151,49.0,0.0,30.0,5.0,0.0
6152,76.0,0.0,30.0,4.0,0.0
6153,47.0,30.0,60.0,3.0,0.0
6154,66.0,0.0,60.0,1.0,0.0
6155,62.0,0.0,60.0,2.0,0.0
6156,71.0,0.0,60.0,8.0,0.0
6157,74.0,30.0,30.0,4.0,0.0
6158,66.0,0.0,60.0,8.0,0.0
6159,47.0,0.0,60.0,10.0,0.0
6160,74.0,0.0,60.0,6.0,0.0
6161,78.0,0.0,60.0,6.0,0.0
6162,47.0,0.0,60.0,5.0,0.0
6163,59.0,0.0,60.0,7.0,0.0
6164,74.0,0.0,60.0,0.0,0.0
6165,70.0,0.0,30.0,4.0,0.0
6166,50.0,0.0,60.0,5.0,0.0
6167,71.0,30.0,30.0,4.0,0.0
6168,50.0,30.0,60.0,3.0,0.0
6169,66.0,0.0,30.0,4.0,0.0
6170,55.0,30.0,60.0,5.0,0.0
6171,55.0,0.0,60.0,3.0,0.0
6172,64.0,30.0,30.0,4.0,0.0
6173,62.0,0.0,30.0,4.0,0.0
6174,52.0,30.0,60.0,5.0,0.0
6175,61.0,30.0,30.0,4.0,0.0
6176,52.0,0.0,60.0,3.0,0.0
6177,59.0,0.0,30.0,4.0,0.0
6178,54.0,30.0,30.0,4.0,0.0
6179,54.0,0.0,60.0,3.0,0.0
6180,54.0,0.0,60.0,5.0,0.0
6181,59.0,30.0,30.0,4.0,0.0
6182,42.0,0.0,60.0,5.0,0.0
6183,42.0,30.0,60.0,3.0,0.0
6184,71.0,30.0,30.0,4.0,0.0
6185,70.0,0.0,30.0,4.0,0.0
6186,47.0,0.0,120.0,3.0,0.0
6187,71.0,30.0,30.0,4.0,0.0
6188,47.0,30.0,60.0,5.0,0.0
6189,71.0,0.0,30.0,4.0,0.0
6190,59.0,0.0,60.0,8.0,0.0
6191,59.0,0.0,60.0,2.0,0.0
6192,59.0,0.0,60.0,7.0,0.0
6193,74.0,30.0,30.0,4.0,0.0
6194,59.0,0.0,60.0,5.0,0.0
6195,83.0,30.0,60.0,0.0,0.0
6196,78.0,0.0,30.0,4.0,0.0
6197,61.0,0.0,60.0,8.0,0.0
6198,83.0,30.0,30.0,4.0,0.0
6199,82.0,60.0,60.0,0.0,0.0
6200,61.0,0.0,60.0,5.0,0.0
6201,61.0,0.0,60.0,7.0,0.0
6202,61.0,0.0,60.0,2.0,0.0
6203,82.0,0.0,30.0,4.0,0.0
6204,62.0,30.0,60.0,8.0,0.0
6205,62.0,0.0,60.0,2.0,0.0
6206,83.0,0.0,60.0,0.0,0.0
6207,83.0,0.0,60.0,4.0,0.0
6208,62.0,0.0,60.0,7.0,0.0
6209,62.0,0.0,60.0,5.0,0.0
6210,71.0,0.0,30.0,6.0,0.0
6211,86.0,0.0,60.0,0.0,0.0
6212,62.0,0.0,60.0,2.0,0.0
6213,47.0,30.0,60.0,10.0,0.0
6214,59.0,0.0,60.0,7.0,0.0
6215,62.0,0.0,60.0,7.0,0.0
6216,74.0,30.0,30.0,6.0,0.0
6217,62.0,0.0,60.0,8.0,0.0
6218,83.0,0.0,60.0,1.0,0.0
6219,90.0,0.0,60.0,4.0,0.0
6220,47.0,0.0,60.0,3.0,0.0
6221,86.0,0.0,60.0,4.0,0.0
6222,62.0,0.0,60.0,5.0,0.0
6223,78.0,0.0,30.0,6.0,0.0
6224,49.0,0.0,60.0,10.0,0.0
6225,82.0,0.0,60.0,1.0,0.0
6226,64.0,0.0,60.0,2.0,0.0
6227,83.0,30.0,30.0,6.0,0.0
6228,85.0,0.0,60.0,4.0,0.0
6229,49.0,0.0,60.0,3.0,0.0
6230,61.0,0.0,60.0,7.0,0.0
6231,64.0,0.0,60.0,7.0,0.0
6232,64.0,30.0,60.0,5.0,0.0
6233,88.0,0.0,60.0,4.0,0.0
6234,85.0,0.0,60.0,0.0,0.0
6235,64.0,0.0,60.0,8.0,0.0
6236,82.0,0.0,30.0,6.0,0.0
6237,50.0,0.0,60.0,10.0,0.0
6238,78.0,29.0,30.0,0.0,0.0
6239,62.0,0.0,60.0,7.0,0.0
6240,66.0,0.0,60.0,7.0,0.0
6241,86.0,0.0,30.0,4.0,0.0
6242,66.0,0.0,60.0,5.0,0.0
6243,83.0,0.0,30.0,4.0,0.0
6244,50.0,1.0,60.0,3.0,0.0
6245,83.0,0.0,30.0,6.0,0.0
6246,66.0,0.0,60.0,8.0,0.0
6247,83.0,1.0,30.0,1.0,0.0
6248,66.0,0.0,60.0,2.0,0.0
6249,90.0,29.0,30.0,0.0,0.0
6250,90.0,0.0,30.0,4.0,0.0
6251,81.0,0.0,30.0,6.0,0.0
6252,81.0,0.0,30.0,1.0,0.0
6253,66.0,0.0,60.0,8.0,0.0
6254,88.0,0.0,30.0,4.0,0.0
6255,79.0,1.0,30.0,6.0,0.0
6256,88.0,29.0,30.0,0.0,0.0
6257,66.0,1.0,60.0,2.0,0.0
6258,79.0,0.0,30.0,1.0,0.0
6259,50.0,0.0,60.0,10.0,0.0
6260,62.0,0.0,60.0,7.0,0.0
6261,66.0,0.0,60.0,7.0,0.0
6262,50.0,0.0,60.0,3.0,0.0
6263,66.0,0.0,60.0,5.0,0.0
6264,78.0,0.0,30.0,1.0,0.0
6265,86.0,0.0,30.0,4.0,0.0
6266,86.0,29.0,30.0,0.0,0.0
6267,78.0,0.0,30.0,6.0,0.0
6268,85.0,29.0,30.0,0.0,0.0
6269,76.0,0.0,90.0,1.0,0.0
6270,67.0,1.0,60.0,5.0,0.0
6271,67.0,0.0,60.0,8.0,0.0
6272,85.0,0.0,30.0,4.0,0.0
6273,67.0,0.0,60.0,7.0,0.0
6274,52.0,0.0,60.0,3.0,0.0
6275,64.0,0.0,60.0,7.0,0.0
6276,52.0,0.0,60.0,10.0,0.0
6277,76.0,1.0,30.0,6.0,0.0
6278,67.0,0.0,60.0,2.0,0.0
6279,74.0,0.0,30.0,6.0,0.0
6280,83.0,29.0,30.0,0.0,0.0
6281,83.0,0.0,30.0,4.0,0.0
6282,66.0,0.0,60.0,7.0,0.0
6283,54.0,0.0,60.0,3.0,0.0
6284,82.0,29.0,30.0,0.0,0.0
6285,66.0,0.0,60.0,5.0,0.0
6286,54.0,0.0,60.0,10.0,0.0
6287,76.0,0.0,30.0,6.0,0.0
6288,66.0,1.0,60.0,8.0,0.0
6289,66.0,0.0,60.0,2.0,0.0
6290,82.0,1.0,30.0,4.0,0.0
6291,74.0,0.0,30.0,6.0,0.0
6292,83.0,29.0,30.0,0.0,0.0
6293,74.0,0.0,30.0,1.0,0.0
6294,80.0,0.0,30.0,4.0,0.0
6295,85.0,29.0,30.0,0.0,0.0
6296,73.0,0.0,30.0,6.0,0.0
6297,82.0,1.0,30.0,4.0,0.0
6298,73.0,0.0,30.0,1.0,0.0
6299,64.0,0.0,30.0,7.0,0.0
6300,64.0,0.0,30.0,8.0,0.0
6301,54.0,0.0,60.0,10.0,0.0
6302,54.0,0.0,60.0,3.0,0.0
6303,64.0,0.0,30.0,5.0,0.0
6304,64.0,0.0,30.0,2.0,0.0
6305,86.0,29.0,30.0,0.0,0.0
6306,71.0,0.0,30.0,6.0,0.0
6307,62.0,0.0,30.0,5.0,0.0
6308,62.0,1.0,30.0,7.0,0.0
6309,62.0,0.0,30.0,2.0,0.0
6310,62.0,0.0,30.0,8.0,0.0
6311,71.0,0.0,30.0,1.0,0.0
6312,83.0,0.0,30.0,4.0,0.0
6313,82.0,0.0,30.0,4.0,0.0
6314,55.0,0.0,60.0,3.0,0.0
6315,61.0,0.0,30.0,7.0,0.0
6316,73.0,0.0,30.0,1.0,0.0
6317,73.0,0.0,30.0,6.0,0.0
6318,61.0,0.0,30.0,5.0,0.0
6319,88.0,0.0,60.0,0.0,0.0
6320,55.0,0.0,60.0,10.0,0.0
6321,61.0,30.0,30.0,2.0,0.0
6322,61.0,0.0,30.0,8.0,0.0
6323,74.0,0.0,30.0,1.0,0.0
6324,59.0,0.0,30.0,5.0,0.0
6325,74.0,0.0,30.0,6.0,0.0
6326,83.0,0.0,30.0,4.0,0.0
6327,59.0,0.0,30.0,8.0,0.0
6328,59.0,30.0,30.0,7.0,0.0
6329,59.0,0.0,30.0,2.0,0.0
6330,85.0,0.0,30.0,4.0,0.0
6331,58.0,0.0,60.0,8.0,0.0
6332,76.0,0.0,180.0,1.0,0.0
6333,54.0,0.0,60.0,10.0,0.0
6334,76.0,30.0,30.0,6.0,0.0
6335,58.0,0.0,60.0,2.0,0.0
6336,54.0,0.0,60.0,3.0,0.0
6337,58.0,30.0,60.0,7.0,0.0
6338,58.0,0.0,60.0,5.0,0.0
6339,86.0,0.0,30.0,0.0,0.0
6340,79.0,0.0,30.0,6.0,0.0
6341,83.0,0.0,30.0,4.0,0.0
6342,52.0,0.0,30.0,10.0,0.0
6343,54.0,0.0,30.0,2.0,0.0
6344,52.0,0.0,30.0,3.0,0.0
6345,70.0,0.0,30.0,6.0,0.0
6346,54.0,0.0,30.0,8.0,0.0
6347,54.0,0.0,30.0,5.0,0.0
6348,82.0,30.0,30.0,4.0,0.0
6349,54.0,0.0,30.0,7.0,0.0
6350,85.0,0.0,30.0,0.0,0.0
6351,56.0,0.0,30.0,7.0,0.0
6352,71.0,0.0,30.0,6.0,0.0
6353,56.0,0.0,30.0,5.0,0.0
6354,83.0,0.0,30.0,0.0,0.0
6355,56.0,30.0,30.0,8.0,0.0
6356,56.0,0.0,30.0,2.0,0.0
6357,80.0,0.0,30.0,4.0,0.0
6358,50.0,0.0,30.0,3.0,0.0
6359,50.0,0.0,30.0,10.0,0.0
6360,82.0,0.0,30.0,0.0,0.0
6361,49.0,0.0,30.0,10.0,0.0
6362,58.0,0.0,30.0,8.0,0.0
6363,78.0,0.0,30.0,4.0,0.0
6364,58.0,0.0,30.0,5.0,0.0
6365,73.0,0.0,30.0,6.0,0.0
6366,58.0,30.0,30.0,2.0,0.0
6367,58.0,0.0,30.0,7.0,0.0
6368,49.0,0.0,30.0,3.0,0.0
6369,74.0,0.0,30.0,6.0,0.0
6370,47.0,0.0,30.0,10.0,0.0
6371,59.0,0.0,30.0,8.0,0.0
6372,59.0,0.0,30.0,2.0,0.0
6373,47.0,0.0,30.0,3.0,0.0
6374,80.0,0.0,30.0,4.0,0.0
6375,59.0,0.0,30.0,7.0,0.0
6376,80.0,30.0,30.0,0.0,0.0
6377,59.0,0.0,30.0,5.0,0.0
6378,61.0,0.0,60.0,5.0,0.0
6379,46.0,0.0,60.0,10.0,0.0
6380,61.0,0.0,60.0,8.0,0.0
6381,61.0,0.0,60.0,7.0,0.0
6382,46.0,30.0,60.0,3.0,0.0
6383,82.0,0.0,30.0,4.0,0.0
6384,61.0,0.0,60.0,2.0,0.0
6385,76.0,30.0,30.0,6.0,0.0
6386,78.0,0.0,240.0,0.0,0.0
6387,79.0,0.0,30.0,6.0,0.0
6388,74.0,0.0,30.0,1.0,0.0
6389,83.0,0.0,30.0,4.0,0.0
6390,78.0,0.0,30.0,6.0,0.0
6391,61.0,0.0,60.0,8.0,0.0
6392,73.0,30.0,30.0,1.0,0.0
6393,61.0,0.0,60.0,5.0,0.0
6394,42.0,0.0,60.0,10.0,0.0
6395,42.0,0.0,60.0,3.0,0.0
6396,82.0,0.0,30.0,4.0,0.0
6397,61.0,0.0,60.0,7.0,0.0
6398,61.0,30.0,60.0,2.0,0.0
6399,76.0,0.0,30.0,6.0,0.0
6400,80.0,0.0,30.0,4.0,0.0
6401,71.0,0.0,30.0,1.0,0.0
6402,62.0,0.0,60.0,8.0,0.0
6403,62.0,0.0,60.0,5.0,0.0
6404,62.0,0.0,60.0,7.0,0.0
6405,47.0,0.0,60.0,10.0,0.0
6406,78.0,0.0,30.0,6.0,0.0
6407,47.0,0.0,60.0,3.0,0.0
6408,78.0,30.0,30.0,4.0,0.0
6409,70.0,0.0,30.0,1.0,0.0
6410,62.0,0.0,60.0,2.0,0.0
6411,74.0,0.0,30.0,6.0,0.0
6412,80.0,30.0,30.0,4.0,0.0
6413,71.0,0.0,30.0,1.0,0.0
6414,61.0,0.0,60.0,7.0,0.0
6415,61.0,0.0,60.0,2.0,0.0
6416,42.0,0.0,60.0,10.0,0.0
6417,54.0,30.0,60.0,3.0,0.0
6418,82.0,30.0,30.0,4.0,0.0
6419,61.0,0.0,60.0,5.0,0.0
6420,76.0,0.0,60.0,6.0,0.0
6421,61.0,0.0,60.0,8.0,0.0
6422,73.0,0.0,60.0,1.0,0.0
6423,85.0,0.0,30.0,4.0,0.0
6424,66.0,0.0,30.0,8.0,0.0
6425,42.0,0.0,30.0,10.0,0.0
6426,74.0,0.0,30.0,6.0,0.0
6427,54.0,0.0,30.0,2.0,0.0
6428,78.0,0.0,30.0,4.0,0.0
6429,54.0,0.0,30.0,5.0,0.0
6430,66.0,0.0,30.0,1.0,0.0
6431,42.0,0.0,30.0,3.0,0.0
6432,54.0,30.0,30.0,7.0,0.0
6433,66.0,0.0,30.0,0.0,0.0
6434,56.0,30.0,30.0,5.0,0.0
6435,68.0,0.0,30.0,1.0,0.0
6436,68.0,0.0,30.0,0.0,0.0
6437,68.0,0.0,30.0,8.0,0.0
6438,56.0,0.0,30.0,2.0,0.0
6439,44.0,0.0,30.0,10.0,0.0
6440,80.0,0.0,30.0,4.0,0.0
6441,76.0,0.0,30.0,6.0,0.0
6442,56.0,0.0,30.0,7.0,0.0
6443,44.0,0.0,30.0,3.0,0.0
6444,58.0,30.0,30.0,5.0,0.0
6445,46.0,0.0,30.0,3.0,0.0
6446,70.0,0.0,30.0,8.0,0.0
6447,46.0,0.0,30.0,10.0,0.0
6448,58.0,0.0,30.0,2.0,0.0
6449,82.0,0.0,30.0,4.0,0.0
6450,70.0,0.0,30.0,0.0,0.0
6451,77.0,0.0,30.0,6.0,0.0
6452,70.0,0.0,30.0,1.0,0.0
6453,58.0,0.0,30.0,7.0,0.0
6454,71.0,0.0,30.0,8.0,0.0
6455,71.0,0.0,30.0,0.0,0.0
6456,59.0,0.0,30.0,2.0,0.0
6457,47.0,0.0,30.0,10.0,0.0
6458,59.0,0.0,30.0,5.0,0.0
6459,83.0,60.0,30.0,4.0,0.0
6460,71.0,0.0,30.0,1.0,0.0
6461,47.0,0.0,30.0,3.0,0.0
6462,80.0,0.0,30.0,6.0,0.0
6463,59.0,0.0,30.0,7.0,0.0
6464,61.0,0.0,60.0,2.0,0.0
6465,73.0,0.0,60.0,1.0,0.0
6466,85.0,0.0,60.0,4.0,0.0
6467,73.0,0.0,60.0,6.0,0.0
6468,49.0,0.0,60.0,10.0,0.0
6469,49.0,30.0,60.0,3.0,0.0
6470,61.0,0.0,60.0,5.0,0.0
6471,73.0,0.0,60.0,8.0,0.0
6472,73.0,0.0,60.0,0.0,0.0
6473,61.0,0.0,60.0,7.0,0.0
6474,61.0,0.0,60.0,2.0,0.0
6475,73.0,0.0,60.0,6.0,0.0
6476,73.0,0.0,60.0,0.0,0.0
6477,61.0,0.0,60.0,5.0,0.0
6478,61.0,0.0,60.0,7.0,0.0
6479,85.0,30.0,30.0,4.0,0.0
6480,73.0,0.0,60.0,1.0,0.0
6481,73.0,0.0,60.0,8.0,0.0
6482,49.0,0.0,60.0,3.0,0.0
6483,49.0,10.0,60.0,10.0,0.0
6484,86.0,0.0,30.0,4.0,0.0
6485,74.0,0.0,60.0,6.0,0.0
6486,86.0,10.0,15.0,4.0,0.0
6487,62.0,0.0,60.0,2.0,0.0
6488,50.0,0.0,60.0,3.0,0.0
6489,74.0,0.0,60.0,1.0,0.0
6490,62.0,0.0,60.0,5.0,0.0
6491,74.0,0.0,60.0,8.0,0.0
6492,50.0,0.0,60.0,10.0,0.0
6493,74.0,0.0,60.0,0.0,0.0
6494,62.0,0.0,60.0,7.0,0.0
6495,88.0,10.0,15.0,4.0,0.0
6496,86.0,15.0,15.0,4.0,0.0
6497,85.0,15.0,15.0,4.0,0.0
6498,86.0,20.0,15.0,4.0,0.0
6499,88.0,10.0,30.0,4.0,0.0
6500,61.0,0.0,60.0,5.0,0.0
6501,73.0,0.0,60.0,1.0,0.0
6502,46.0,15.0,60.0,3.0,0.0
6503,62.0,0.0,20.0,7.0,0.0
6504,61.0,0.0,60.0,2.0,0.0
6505,69.0,10.0,20.0,8.0,0.0
6506,73.0,0.0,60.0,0.0,0.0
6507,46.0,0.0,60.0,10.0,0.0
6508,78.0,0.0,20.0,6.0,0.0
6509,67.0,20.0,20.0,8.0,0.0
6510,61.0,0.0,20.0,7.0,0.0
6511,76.0,0.0,20.0,6.0,0.0
6512,85.0,0.0,30.0,4.0,0.0
6513,69.0,0.0,20.0,8.0,0.0
6514,78.0,0.0,20.0,6.0,0.0
6515,62.0,0.0,20.0,7.0,0.0
6516,46.0,0.0,60.0,10.0,0.0
6517,61.0,10.0,60.0,5.0,0.0
6518,67.0,15.0,15.0,8.0,0.0
6519,61.0,0.0,15.0,7.0,0.0
6520,82.0,0.0,30.0,4.0,0.0
6521,46.0,0.0,60.0,3.0,0.0
6522,76.0,0.0,15.0,6.0,0.0
6523,62.0,15.0,15.0,7.0,0.0
6524,78.0,0.0,15.0,6.0,0.0
6525,69.0,0.0,15.0,8.0,0.0
6526,67.0,0.0,15.0,8.0,0.0
6527,83.0,0.0,30.0,4.0,0.0
6528,61.0,0.0,15.0,7.0,0.0
6529,76.0,15.0,15.0,6.0,0.0
6530,62.0,0.0,15.0,7.0,0.0
6531,78.0,0.0,15.0,6.0,0.0
6532,69.0,0.0,15.0,8.0,0.0
6533,46.0,0.0,60.0,10.0,0.0
6534,61.0,0.0,60.0,5.0,0.0
6535,85.0,10.0,30.0,4.0,0.0
6536,76.0,0.0,15.0,6.0,0.0
6537,46.0,0.0,60.0,3.0,0.0
6538,61.0,0.0,15.0,7.0,0.0
6539,67.0,10.0,15.0,8.0,0.0
6540,78.0,10.0,15.0,6.0,0.0
6541,69.0,0.0,15.0,8.0,0.0
6542,62.0,0.0,15.0,7.0,0.0
6543,61.0,0.0,15.0,7.0,0.0
6544,67.0,0.0,15.0,8.0,0.0
6545,76.0,0.0,15.0,6.0,0.0
6546,69.0,10.0,15.0,8.0,0.0
6547,79.0,0.0,30.0,4.0,0.0
6548,78.0,0.0,15.0,6.0,0.0
6549,62.0,0.0,15.0,7.0,0.0
6550,61.0,0.0,15.0,7.0,0.0
6551,76.0,10.0,15.0,6.0,0.0
6552,67.0,0.0,15.0,8.0,0.0
6553,69.0,0.0,15.0,8.0,0.0
6554,62.0,10.0,15.0,7.0,0.0
6555,78.0,0.0,15.0,6.0,0.0
6556,67.0,10.0,15.0,8.0,0.0
6557,61.0,0.0,60.0,5.0,0.0
6558,67.0,0.0,60.0,2.0,0.0
6559,76.0,0.0,30.0,4.0,0.0
6560,61.0,0.0,15.0,7.0,0.0
6561,46.0,0.0,60.0,10.0,0.0
6562,76.0,0.0,60.0,0.0,0.0
6563,46.0,0.0,60.0,3.0,0.0
6564,76.0,0.0,15.0,6.0,0.0
6565,73.0,0.0,60.0,1.0,0.0
6566,62.0,10.0,15.0,7.0,0.0
6567,69.0,0.0,15.0,8.0,0.0
6568,78.0,0.0,15.0,6.0,0.0
6569,67.0,0.0,15.0,8.0,0.0
6570,76.0,10.0,15.0,6.0,0.0
6571,61.0,0.0,15.0,7.0,0.0
6572,78.0,0.0,30.0,4.0,0.0
6573,69.0,0.0,15.0,8.0,0.0
6574,62.0,0.0,15.0,7.0,0.0
6575,78.0,10.0,15.0,6.0,0.0
6576,67.0,0.0,15.0,8.0,0.0
6577,61.0,10.0,15.0,7.0,0.0
6578,76.0,0.0,15.0,6.0,0.0
6579,78.0,0.0,15.0,6.0,0.0
6580,62.0,10.0,15.0,7.0,0.0
6581,69.0,0.0,15.0,8.0,0.0
6582,76.0,10.0,15.0,6.0,0.0
6583,79.0,0.0,30.0,4.0,0.0
6584,46.0,0.0,60.0,3.0,0.0
6585,46.0,0.0,60.0,10.0,0.0
6586,61.0,0.0,15.0,7.0,0.0
6587,67.0,0.0,15.0,8.0,0.0
6588,61.0,0.0,60.0,5.0,0.0
6589,62.0,10.0,15.0,7.0,0.0
6590,78.0,0.0,15.0,6.0,0.0
6591,69.0,0.0,15.0,8.0,0.0
6592,61.0,10.0,15.0,7.0,0.0
6593,67.0,0.0,15.0,8.0,0.0
6594,76.0,0.0,15.0,6.0,0.0
6595,78.0,0.0,15.0,6.0,0.0
6596,62.0,10.0,15.0,7.0,0.0
6597,69.0,0.0,15.0,8.0,0.0
6598,76.0,0.0,30.0,4.0,0.0
6599,61.0,10.0,15.0,7.0,0.0
6600,76.0,0.0,15.0,6.0,0.0
6601,67.0,0.0,15.0,8.0,0.0
6602,78.0,0.0,15.0,6.0,0.0
6603,69.0,10.0,15.0,8.0,0.0
6604,62.0,0.0,15.0,7.0,0.0
6605,46.0,0.0,60.0,3.0,0.0
6606,67.0,10.0,15.0,8.0,0.0
6607,46.0,10.0,60.0,10.0,0.0
6608,73.0,10.0,30.0,4.0,0.0
6609,76.0,0.0,15.0,6.0,0.0
6610,61.0,0.0,15.0,7.0,0.0
6611,61.0,0.0,60.0,5.0,0.0
6612,62.0,10.0,15.0,7.0,0.0
6613,69.0,0.0,15.0,8.0,0.0
6614,78.0,0.0,15.0,6.0,0.0
6615,61.0,0.0,15.0,7.0,0.0
6616,67.0,0.0,15.0,8.0,0.0
6617,76.0,0.0,15.0,6.0,0.0
6618,62.0,0.0,15.0,7.0,0.0
6619,78.0,0.0,15.0,6.0,0.0
6620,74.0,0.0,30.0,4.0,0.0
6621,69.0,10.0,15.0,8.0,0.0
6622,76.0,10.0,15.0,6.0,0.0
6623,61.0,0.0,15.0,7.0,0.0
6624,67.0,0.0,15.0,8.0,0.0
6625,62.0,0.0,15.0,7.0,0.0
6626,78.0,0.0,15.0,6.0,0.0
6627,69.0,0.0,15.0,8.0,0.0
6628,46.0,10.0,60.0,3.0,0.0
6629,61.0,0.0,60.0,5.0,0.0
6630,46.0,0.0,60.0,10.0,0.0
6631,76.0,0.0,30.0,4.0,0.0
6632,61.0,0.0,60.0,2.0,0.0
6633,76.0,0.0,60.0,1.0,0.0
6634,79.0,0.0,60.0,0.0,0.0
6635,76.0,10.0,15.0,6.0,0.0
6636,67.0,0.0,15.0,8.0,0.0
6637,61.0,0.0,15.0,7.0,0.0
6638,78.0,0.0,15.0,6.0,0.0
6639,62.0,10.0,15.0,7.0,0.0
6640,69.0,0.0,15.0,8.0,0.0
6641,76.0,10.0,15.0,6.0,0.0
6642,67.0,0.0,15.0,8.0,0.0
6643,61.0,0.0,15.0,7.0,0.0
6644,62.0,10.0,15.0,7.0,0.0
6645,78.0,0.0,15.0,6.0,0.0
6646,73.0,0.0,30.0,4.0,0.0
6647,69.0,0.0,15.0,8.0,0.0
6648,76.0,0.0,15.0,6.0,0.0
6649,61.0,0.0,15.0,7.0,0.0
6650,67.0,10.0,15.0,8.0,0.0
6651,78.0,0.0,15.0,6.0,0.0
6652,69.0,0.0,15.0,8.0,0.0
6653,62.0,0.0,15.0,7.0,0.0
6654,61.0,0.0,60.0,5.0,0.0
6655,46.0,0.0,60.0,3.0,0.0
6656,61.0,0.0,15.0,7.0,0.0
6657,46.0,0.0,60.0,10.0,0.0
6658,70.0,0.0,30.0,4.0,0.0
6659,76.0,0.0,15.0,6.0,0.0
6660,67.0,10.0,15.0,8.0,0.0
6661,62.0,0.0,15.0,7.0,0.0
6662,69.0,10.0,15.0,8.0,0.0
6663,78.0,0.0,15.0,6.0,0.0
6664,76.0,10.0,15.0,6.0,0.0
6665,61.0,0.0,15.0,7.0,0.0
6666,67.0,0.0,15.0,8.0,0.0
6667,78.0,0.0,15.0,6.0,0.0
6668,62.0,10.0,15.0,7.0,0.0
6669,71.0,0.0,30.0,4.0,0.0
6670,69.0,0.0,15.0,8.0,0.0
6671,76.0,10.0,15.0,6.0,0.0
6672,61.0,0.0,15.0,7.0,0.0
6673,67.0,0.0,15.0,8.0,0.0
6674,62.0,10.0,15.0,7.0,0.0
6675,69.0,0.0,15.0,8.0,0.0
6676,78.0,0.0,15.0,6.0,0.0
6677,46.0,0.0,60.0,10.0,0.0
6678,73.0,0.0,30.0,4.0,0.0
6679,61.0,5.0,15.0,7.0,0.0
6680,61.0,0.0,60.0,5.0,0.0
6681,67.0,0.0,30.0,8.0,0.0
6682,46.0,1.0,60.0,3.0,0.0
6683,76.0,5.0,15.0,6.0,0.0
6684,78.0,10.0,15.0,6.0,0.0
6685,62.0,15.0,15.0,7.0,0.0
6686,76.0,0.0,15.0,6.0,0.0
6687,59.0,1.0,15.0,7.0,0.0
6688,66.0,0.0,15.0,8.0,0.0
6689,70.0,0.0,30.0,4.0,0.0
6690,74.0,14.0,15.0,6.0,0.0
6691,67.0,0.0,15.0,8.0,0.0
6692,61.0,0.0,15.0,7.0,0.0
6693,76.0,29.0,15.0,6.0,0.0
6694,62.0,0.0,60.0,5.0,0.0
6695,62.0,0.0,60.0,7.0,0.0
6696,78.0,0.0,60.0,0.0,0.0
6697,66.0,0.0,60.0,2.0,0.0
6698,50.0,0.0,60.0,3.0,0.0
6699,66.0,0.0,60.0,8.0,0.0
6700,71.0,15.0,60.0,1.0,0.0
6701,66.0,15.0,30.0,4.0,0.0
6702,78.0,0.0,60.0,6.0,0.0
6703,50.0,0.0,60.0,10.0,0.0
6704,68.0,15.0,15.0,4.0,0.0
6705,70.0,0.0,15.0,4.0,0.0
6706,62.0,0.0,60.0,5.0,0.0
6707,66.0,0.0,60.0,5.0,0.0
6708,71.0,15.0,15.0,4.0,0.0
6709,66.0,0.0,15.0,6.0,0.0
6710,70.0,15.0,15.0,4.0,0.0
6711,68.0,0.0,15.0,6.0,0.0
6712,71.0,15.0,15.0,4.0,0.0
6713,73.0,15.0,15.0,4.0,0.0
6714,70.0,0.0,15.0,6.0,0.0
6715,61.0,15.0,60.0,5.0,0.0
6716,64.0,0.0,60.0,5.0,0.0
6717,71.0,15.0,15.0,6.0,0.0
6718,74.0,0.0,15.0,4.0,0.0
6719,70.0,0.0,15.0,6.0,0.0
6720,73.0,15.0,15.0,4.0,0.0
6721,74.0,0.0,15.0,4.0,0.0
6722,71.0,15.0,15.0,6.0,0.0
6723,73.0,0.0,15.0,6.0,0.0
6724,76.0,0.0,15.0,4.0,0.0
6725,59.0,0.0,60.0,5.0,0.0
6726,74.0,0.0,30.0,6.0,0.0
6727,78.0,15.0,15.0,4.0,0.0
6728,62.0,0.0,60.0,5.0,0.0
6729,71.0,15.0,15.0,4.0,0.0
6730,73.0,15.0,15.0,4.0,0.0
6731,78.0,0.0,30.0,6.0,0.0
6732,74.0,15.0,15.0,4.0,0.0
6733,71.0,0.0,30.0,6.0,0.0
6734,54.0,15.0,60.0,5.0,0.0
6735,62.0,0.0,60.0,5.0,0.0
6736,76.0,15.0,15.0,4.0,0.0
6737,78.0,0.0,15.0,4.0,0.0
6738,70.0,15.0,15.0,8.0,0.0
6739,80.0,15.0,15.0,4.0,0.0
6740,74.0,0.0,30.0,6.0,0.0
6741,71.0,0.0,15.0,8.0,0.0
6742,82.0,0.0,15.0,4.0,0.0
6743,73.0,0.0,15.0,8.0,0.0
6744,74.0,15.0,15.0,8.0,0.0
6745,61.0,0.0,60.0,5.0,0.0
6746,52.0,30.0,60.0,5.0,0.0
6747,78.0,0.0,30.0,6.0,0.0
6748,83.0,0.0,15.0,4.0,0.0
6749,82.0,0.0,15.0,4.0,0.0
6750,73.0,15.0,15.0,8.0,0.0
6751,83.0,0.0,15.0,4.0,0.0
6752,82.0,0.0,30.0,6.0,0.0
6753,74.0,15.0,15.0,8.0,0.0
6754,85.0,0.0,15.0,4.0,0.0
6755,76.0,0.0,15.0,8.0,0.0
6756,78.0,0.0,60.0,8.0,0.0
6757,50.0,30.0,30.0,5.0,0.0
6758,86.0,0.0,30.0,4.0,0.0
6759,54.0,0.0,30.0,5.0,0.0
6760,59.0,0.0,30.0,5.0,0.0
6761,83.0,30.0,60.0,6.0,0.0
6762,83.0,0.0,30.0,4.0,0.0
6763,52.0,0.0,30.0,5.0,0.0
6764,78.0,0.0,60.0,0.0,0.0
6765,66.0,0.0,60.0,7.0,0.0
6766,78.0,0.0,60.0,1.0,0.0
6767,54.0,0.0,60.0,5.0,0.0
6768,78.0,0.0,30.0,4.0,0.0
6769,54.0,0.0,60.0,3.0,0.0
6770,73.0,0.0,60.0,8.0,0.0
6771,73.0,0.0,60.0,2.0,0.0
6772,66.0,0.0,60.0,8.0,0.0
6773,71.0,0.0,60.0,8.0,0.0
6774,54.0,0.0,60.0,10.0,0.0
6775,78.0,30.0,30.0,6.0,0.0
6776,83.0,30.0,30.0,4.0,0.0
6777,79.0,0.0,30.0,6.0,0.0
6778,73.0,20.0,60.0,8.0,0.0
6779,76.0,0.0,60.0,2.0,0.0
6780,54.0,0.0,60.0,7.0,0.0
6781,78.0,0.0,30.0,6.0,0.0
6782,78.0,0.0,60.0,1.0,0.0
6783,61.0,0.0,60.0,8.0,0.0
6784,42.0,0.0,60.0,10.0,0.0
6785,70.0,0.0,60.0,8.0,0.0
6786,42.0,0.0,60.0,3.0,0.0
6787,82.0,0.0,60.0,0.0,0.0
6788,42.0,0.0,60.0,5.0,0.0
6789,73.0,30.0,30.0,4.0,0.0
6790,82.0,0.0,30.0,4.0,0.0
6791,76.0,0.0,30.0,6.0,0.0
6792,62.0,0.0,30.0,8.0,0.0
6793,66.0,0.0,30.0,8.0,0.0
6794,74.0,10.0,20.0,6.0,0.0
6795,78.0,0.0,180.0,1.0,0.0
6796,47.0,0.0,60.0,5.0,0.0
6797,83.0,0.0,30.0,4.0,0.0
6798,59.0,0.0,60.0,7.0,0.0
6799,71.0,10.0,30.0,8.0,0.0
6800,83.0,0.0,360.0,0.0,0.0
6801,74.0,29.0,420.0,2.0,0.0
6802,47.0,15.0,60.0,10.0,0.0
6803,47.0,0.0,60.0,3.0,0.0
6804,76.0,20.0,20.0,6.0,0.0
6805,71.0,0.0,30.0,4.0,0.0
6806,66.0,0.0,30.0,8.0,0.0
6807,74.0,0.0,20.0,6.0,0.0
6808,74.0,0.0,30.0,4.0,0.0
6809,59.0,10.0,60.0,3.0,0.0
6810,76.0,15.0,15.0,6.0,0.0
6811,71.0,0.0,60.0,7.0,0.0
6812,71.0,0.0,30.0,8.0,0.0
6813,74.0,15.0,15.0,6.0,0.0
6814,74.0,0.0,30.0,8.0,0.0
6815,76.0,15.0,15.0,6.0,0.0
6816,78.0,0.0,30.0,4.0,0.0
6817,74.0,0.0,15.0,6.0,0.0
6818,76.0,10.0,15.0,6.0,0.0
6819,74.0,0.0,30.0,4.0,0.0
6820,71.0,10.0,30.0,8.0,0.0
6821,57.0,0.0,60.0,3.0,0.0
6822,69.0,0.0,60.0,7.0,0.0
6823,74.0,10.0,15.0,6.0,0.0
6824,76.0,0.0,15.0,6.0,0.0
6825,66.0,10.0,30.0,8.0,0.0
6826,71.0,0.0,30.0,4.0,0.0
6827,74.0,10.0,15.0,6.0,0.0
6828,76.0,10.0,15.0,6.0,0.0
6829,74.0,0.0,15.0,6.0,0.0
6830,83.0,29.0,210.0,4.0,0.0
6831,56.0,0.0,60.0,3.0,0.0
6832,68.0,10.0,60.0,7.0,0.0
6833,71.0,0.0,30.0,8.0,0.0
6834,76.0,10.0,15.0,6.0,0.0
6835,77.0,10.0,120.0,1.0,0.0
6836,74.0,10.0,15.0,6.0,0.0
6837,76.0,10.0,15.0,6.0,0.0
6838,74.0,10.0,15.0,6.0,0.0
6839,65.0,0.0,30.0,8.0,0.0
6840,59.0,0.0,30.0,5.0,0.0
6841,76.0,10.0,15.0,6.0,0.0
6842,74.0,0.0,15.0,6.0,0.0
6843,56.0,0.0,60.0,3.0,0.0
6844,68.0,0.0,60.0,7.0,0.0
6845,76.0,10.0,15.0,6.0,0.0
6846,62.0,10.0,30.0,5.0,0.0
6847,71.0,0.0,30.0,8.0,0.0
6848,74.0,10.0,15.0,6.0,0.0
6849,76.0,0.0,15.0,6.0,0.0
6850,74.0,0.0,30.0,8.0,0.0
6851,66.0,0.0,30.0,5.0,0.0
6852,74.0,10.0,15.0,6.0,0.0
6853,76.0,10.0,15.0,6.0,0.0
6854,74.0,0.0,15.0,6.0,0.0
6855,62.0,10.0,30.0,5.0,0.0
6856,78.0,0.0,60.0,1.0,0.0
6857,66.0,0.0,60.0,7.0,0.0
6858,54.0,0.0,60.0,3.0,0.0
6859,71.0,0.0,30.0,8.0,0.0
6860,76.0,10.0,15.0,6.0,0.0
6861,74.0,10.0,15.0,6.0,0.0
6862,76.0,0.0,15.0,6.0,0.0
6863,66.0,0.0,30.0,8.0,0.0
6864,74.0,10.0,15.0,6.0,0.0
6865,59.0,0.0,30.0,5.0,0.0
6866,76.0,10.0,15.0,6.0,0.0
6867,74.0,10.0,15.0,6.0,0.0
6868,71.0,1.0,30.0,8.0,0.0
6869,65.0,0.0,60.0,7.0,0.0
6870,68.0,0.0,60.0,5.0,0.0
6871,53.0,0.0,60.0,3.0,0.0
6872,76.0,10.0,15.0,6.0,0.0
6873,80.0,0.0,60.0,1.0,0.0
6874,74.0,10.0,15.0,6.0,0.0
6875,76.0,0.0,15.0,6.0,0.0
6876,73.0,1.0,30.0,4.0,0.0
6877,73.0,0.0,30.0,0.0,0.0
6878,66.0,0.0,30.0,8.0,0.0
6879,65.0,0.0,30.0,6.0,0.0
6880,77.0,0.0,30.0,0.0,0.0
6881,61.0,0.0,60.0,5.0,0.0
6882,68.0,0.0,30.0,6.0,0.0
6883,77.0,30.0,30.0,4.0,0.0
6884,61.0,30.0,60.0,10.0,0.0
6885,61.0,0.0,60.0,3.0,0.0
6886,61.0,0.0,60.0,7.0,0.0
6887,73.0,0.0,30.0,8.0,0.0
6888,80.0,0.0,30.0,0.0,0.0
6889,80.0,0.0,30.0,4.0,0.0
6890,77.0,0.0,30.0,8.0,0.0
6891,71.0,0.0,30.0,6.0,0.0
6892,59.0,0.0,60.0,10.0,0.0
6893,68.0,30.0,30.0,6.0,0.0
6894,77.0,0.0,30.0,4.0,0.0
6895,77.0,0.0,30.0,0.0,0.0
6896,59.0,0.0,60.0,5.0,0.0
6897,59.0,0.0,60.0,3.0,0.0
6898,73.0,0.0,30.0,8.0,0.0
6899,59.0,0.0,60.0,7.0,0.0
6900,68.0,0.0,30.0,8.0,0.0
6901,73.0,30.0,30.0,4.0,0.0
6902,65.0,0.0,30.0,6.0,0.0
6903,73.0,0.0,30.0,0.0,0.0
6904,57.0,0.0,60.0,7.0,0.0
6905,57.0,0.0,60.0,10.0,0.0
6906,66.0,30.0,30.0,6.0,0.0
6907,85.0,0.0,60.0,0.0,0.0
6908,57.0,0.0,60.0,3.0,0.0
6909,57.0,0.0,60.0,5.0,0.0
6910,85.0,0.0,60.0,4.0,0.0
6911,73.0,0.0,30.0,8.0,0.0
6912,69.0,30.0,30.0,6.0,0.0
6913,61.0,0.0,30.0,8.0,0.0
6914,73.0,30.0,30.0,6.0,0.0
6915,57.0,0.0,60.0,10.0,0.0
6916,85.0,0.0,60.0,0.0,0.0
6917,65.0,0.0,30.0,8.0,0.0
6918,85.0,30.0,60.0,4.0,0.0
6919,57.0,0.0,60.0,7.0,0.0
6920,57.0,0.0,60.0,3.0,0.0
6921,57.0,0.0,60.0,5.0,0.0
6922,69.0,0.0,60.0,2.0,0.0
6923,73.0,0.0,60.0,1.0,0.0
6924,68.0,0.0,30.0,8.0,0.0
6925,65.0,0.0,30.0,6.0,0.0
6926,56.0,0.0,60.0,10.0,0.0
6927,77.0,0.0,60.0,1.0,0.0
6928,68.0,0.0,30.0,6.0,0.0
6929,56.0,21.0,60.0,3.0,0.0
6930,56.0,0.0,60.0,7.0,0.0
6931,83.0,0.0,60.0,0.0,0.0
6932,83.0,0.0,60.0,4.0,0.0
6933,65.0,30.0,30.0,8.0,0.0
6934,71.0,0.0,60.0,2.0,0.0
6935,56.0,0.0,60.0,5.0,0.0
6936,73.0,0.0,30.0,6.0,0.0
6937,61.0,0.0,30.0,8.0,0.0
6938,54.0,0.0,120.0,7.0,0.0
6939,54.0,0.0,30.0,10.0,0.0
6940,73.0,0.0,180.0,2.0,0.0
6941,81.0,0.0,360.0,0.0,0.0
6942,78.0,29.0,420.0,1.0,0.0
6943,81.0,9.0,20.0,4.0,0.0
6944,73.0,1.0,120.0,8.0,0.0
6945,54.0,1.0,60.0,5.0,0.0
6946,54.0,0.0,60.0,3.0,0.0
6947,61.0,11.0,30.0,6.0,0.0
6948,83.0,19.0,20.0,4.0,0.0
6949,61.0,0.0,30.0,10.0,0.0
6950,66.0,0.0,30.0,6.0,0.0
6951,81.0,15.0,20.0,4.0,0.0
6952,66.0,0.0,30.0,10.0,0.0
6953,69.0,1.0,30.0,6.0,0.0
6954,83.0,14.0,15.0,4.0,0.0
6955,54.0,0.0,60.0,3.0,0.0
6956,66.0,0.0,60.0,5.0,0.0
6957,81.0,15.0,15.0,4.0,0.0
6958,73.0,0.0,30.0,6.0,0.0
6959,69.0,0.0,30.0,10.0,0.0
6960,83.0,14.0,15.0,4.0,0.0
6961,81.0,15.0,15.0,4.0,0.0
6962,66.0,1.0,30.0,10.0,0.0
6963,69.0,0.0,30.0,6.0,0.0
6964,52.0,0.0,60.0,3.0,0.0
6965,83.0,14.0,15.0,4.0,0.0
6966,64.0,0.0,60.0,5.0,0.0
6967,81.0,15.0,15.0,4.0,0.0
6968,66.0,0.0,30.0,6.0,0.0
6969,83.0,14.0,15.0,4.0,0.0
6970,61.0,1.0,30.0,10.0,0.0
6971,81.0,9.0,15.0,4.0,0.0
6972,51.0,0.0,60.0,3.0,0.0
6973,78.0,29.0,210.0,6.0,0.0
6974,72.0,0.0,120.0,2.0,0.0
6975,63.0,10.0,60.0,5.0,0.0
6976,83.0,10.0,15.0,4.0,0.0
6977,66.0,0.0,30.0,10.0,0.0
6978,81.0,10.0,15.0,4.0,0.0
6979,83.0,10.0,15.0,4.0,0.0
6980,81.0,10.0,15.0,4.0,0.0
6981,60.0,0.0,30.0,10.0,0.0
6982,54.0,0.0,30.0,7.0,0.0
6983,83.0,10.0,15.0,4.0,0.0
6984,81.0,0.0,15.0,4.0,0.0
6985,51.0,0.0,60.0,3.0,0.0
6986,57.0,0.0,30.0,7.0,0.0
6987,83.0,10.0,15.0,4.0,0.0
6988,66.0,10.0,30.0,10.0,0.0
6989,63.0,0.0,60.0,5.0,0.0
6990,81.0,10.0,15.0,4.0,0.0
6991,83.0,0.0,15.0,4.0,0.0
6992,81.0,10.0,15.0,4.0,0.0
6993,61.0,0.0,30.0,7.0,0.0
6994,69.0,10.0,30.0,10.0,0.0
6995,83.0,10.0,15.0,4.0,0.0
6996,81.0,0.0,15.0,4.0,0.0
6997,73.0,0.0,60.0,2.0,0.0
6998,49.0,0.0,60.0,3.0,0.0
6999,66.0,0.0,30.0,10.0,0.0
7000,57.0,0.0,30.0,7.0,0.0
7001,83.0,10.0,15.0,4.0,0.0
7002,61.0,0.0,60.0,5.0,0.0
7003,81.0,10.0,15.0,4.0,0.0
7004,83.0,10.0,15.0,4.0,0.0
7005,61.0,0.0,30.0,10.0,0.0
7006,81.0,10.0,15.0,4.0,0.0
7007,54.0,15.0,30.0,7.0,0.0
7008,83.0,10.0,15.0,4.0,0.0
7009,81.0,0.0,15.0,4.0,0.0
7010,75.0,1.0,60.0,2.0,0.0
7011,46.0,0.0,60.0,3.0,0.0
7012,60.0,0.0,60.0,5.0,0.0
7013,66.0,0.0,60.0,10.0,0.0
7014,83.0,15.0,15.0,4.0,0.0
7015,63.0,0.0,60.0,7.0,0.0
7016,81.0,1.0,15.0,4.0,0.0
7017,63.0,0.0,30.0,8.0,0.0
7018,72.0,0.0,30.0,4.0,0.0
7019,68.0,0.0,30.0,6.0,0.0
7020,68.0,0.0,30.0,0.0,0.0
7021,56.0,0.0,60.0,10.0,0.0
7022,72.0,0.0,30.0,6.0,0.0
7023,56.0,0.0,60.0,3.0,0.0
7024,56.0,0.0,60.0,7.0,0.0
7025,72.0,30.0,30.0,0.0,0.0
7026,56.0,0.0,60.0,5.0,0.0
7027,68.0,0.0,30.0,8.0,0.0
7028,75.0,0.0,30.0,4.0,0.0
7029,78.0,30.0,30.0,4.0,0.0
7030,72.0,0.0,30.0,8.0,0.0
7031,75.0,0.0,30.0,6.0,0.0
7032,75.0,0.0,30.0,0.0,0.0
7033,68.0,30.0,30.0,8.0,0.0
7034,72.0,0.0,30.0,6.0,0.0
7035,54.0,0.0,60.0,7.0,0.0
7036,72.0,0.0,30.0,0.0,0.0
7037,54.0,30.0,60.0,5.0,0.0
7038,75.0,0.0,30.0,4.0,0.0
7039,54.0,0.0,60.0,10.0,0.0
7040,54.0,0.0,60.0,3.0,0.0
7041,68.0,0.0,30.0,0.0,0.0
7042,72.0,0.0,30.0,4.0,0.0
7043,68.0,0.0,30.0,6.0,0.0
7044,63.0,0.0,30.0,8.0,0.0
7045,53.0,0.0,60.0,7.0,0.0
7046,53.0,0.0,60.0,5.0,0.0
7047,80.0,0.0,60.0,0.0,0.0
7048,53.0,0.0,60.0,10.0,0.0
7049,53.0,0.0,60.0,3.0,0.0
7050,73.0,30.0,30.0,4.0,0.0
7051,80.0,0.0,60.0,6.0,0.0
7052,68.0,0.0,30.0,8.0,0.0
7053,68.0,0.0,30.0,8.0,0.0
7054,77.0,30.0,30.0,4.0,0.0
7055,53.0,0.0,60.0,3.0,0.0
7056,68.0,0.0,60.0,1.0,0.0
7057,80.0,0.0,30.0,4.0,0.0
7058,80.0,0.0,60.0,0.0,0.0
7059,53.0,0.0,60.0,5.0,0.0
7060,53.0,30.0,60.0,7.0,0.0
7061,53.0,0.0,60.0,10.0,0.0
7062,65.0,0.0,60.0,2.0,0.0
7063,80.0,0.0,60.0,6.0,0.0
7064,72.0,30.0,30.0,8.0,0.0
7065,72.0,0.0,30.0,4.0,0.0
7066,75.0,0.0,30.0,8.0,0.0
7067,51.0,0.0,60.0,7.0,0.0
7068,51.0,0.0,60.0,5.0,0.0
7069,51.0,0.0,60.0,10.0,0.0
7070,78.0,0.0,60.0,6.0,0.0
7071,72.0,30.0,30.0,8.0,0.0
7072,66.0,0.0,60.0,2.0,0.0
7073,78.0,0.0,60.0,0.0,0.0
7074,51.0,0.0,60.0,3.0,0.0
7075,72.0,0.0,60.0,1.0,0.0
7076,75.0,0.0,30.0,4.0,0.0
7077,68.0,0.0,30.0,8.0,0.0
7078,80.0,30.0,30.0,4.0,0.0
7079,77.0,0.0,30.0,6.0,0.0
7080,49.0,0.0,60.0,5.0,0.0
7081,77.0,0.0,60.0,0.0,0.0
7082,80.0,30.0,30.0,8.0,0.0
7083,49.0,0.0,60.0,3.0,0.0
7084,49.0,0.0,60.0,7.0,0.0
7085,68.0,0.0,60.0,4.0,0.0
7086,68.0,0.0,60.0,2.0,0.0
7087,49.0,0.0,60.0,10.0,0.0
7088,73.0,0.0,60.0,1.0,0.0
7089,73.0,0.0,30.0,6.0,0.0
7090,77.0,30.0,30.0,8.0,0.0
7091,76.0,0.0,30.0,6.0,0.0
7092,76.0,0.0,120.0,4.0,0.0
7093,61.0,0.0,60.0,10.0,0.0
7094,61.0,30.0,60.0,3.0,0.0
7095,68.0,0.0,60.0,7.0,0.0
7096,73.0,30.0,30.0,8.0,0.0
7097,80.0,0.0,30.0,6.0,0.0
7098,76.0,0.0,30.0,8.0,0.0
7099,85.0,0.0,30.0,6.0,0.0
7100,59.0,0.0,60.0,3.0,0.0
7101,66.0,0.0,60.0,7.0,0.0
7102,61.0,0.0,60.0,5.0,0.0
7103,59.0,0.0,60.0,10.0,0.0
7104,80.0,30.0,30.0,8.0,0.0
7105,85.0,30.0,30.0,8.0,0.0
7106,83.0,0.0,30.0,6.0,0.0
7107,85.0,29.0,210.0,6.0,0.0
7108,58.0,0.0,60.0,3.0,0.0
7109,58.0,0.0,60.0,10.0,0.0
7110,76.0,1.0,30.0,8.0,0.0
7111,76.0,1.0,60.0,0.0,0.0
7112,54.0,0.0,60.0,5.0,0.0
7113,66.0,0.0,60.0,2.0,0.0
7114,61.0,14.0,30.0,7.0,0.0
7115,73.0,0.0,60.0,1.0,0.0
7116,74.0,0.0,15.0,4.0,0.0
7117,82.0,0.0,30.0,8.0,0.0
7118,64.0,14.0,30.0,7.0,0.0
7119,73.0,15.0,15.0,4.0,0.0
7120,71.0,0.0,15.0,4.0,0.0
7121,58.0,0.0,60.0,5.0,0.0
7122,54.0,0.0,60.0,3.0,0.0
7123,70.0,15.0,15.0,4.0,0.0
7124,73.0,0.0,30.0,8.0,0.0
7125,61.0,1.0,60.0,10.0,0.0
7126,61.0,29.0,30.0,7.0,0.0
7127,68.0,1.0,15.0,4.0,0.0
7128,58.0,29.0,30.0,7.0,0.0
7129,76.0,0.0,30.0,8.0,0.0
7130,66.0,0.0,30.0,4.0,0.0
7131,78.0,0.0,30.0,4.0,0.0
7132,61.0,1.0,60.0,5.0,0.0
7133,54.0,0.0,60.0,10.0,0.0
7134,82.0,1.0,30.0,8.0,0.0
7135,54.0,29.0,30.0,7.0,0.0
7136,85.0,0.0,30.0,8.0,0.0
7137,58.0,29.0,30.0,7.0,0.0
7138,76.0,0.0,30.0,4.0,0.0
7139,59.0,0.0,60.0,7.0,0.0
7140,75.0,30.0,60.0,0.0,0.0
7141,75.0,0.0,60.0,4.0,0.0
7142,66.0,0.0,60.0,2.0,0.0
7143,54.0,0.0,60.0,5.0,0.0
7144,75.0,1.0,30.0,8.0,0.0
7145,47.0,0.0,60.0,10.0,0.0
7146,71.0,0.0,60.0,1.0,0.0
7147,71.0,0.0,30.0,6.0,0.0
7148,78.0,0.0,30.0,8.0,0.0
7149,71.0,30.0,30.0,8.0,0.0
7150,74.0,14.0,120.0,4.0,0.0
7151,59.0,0.0,60.0,10.0,0.0
7152,59.0,0.0,60.0,5.0,0.0
7153,59.0,0.0,60.0,3.0,0.0
7154,74.0,0.0,30.0,6.0,0.0
7155,66.0,0.0,60.0,7.0,0.0
7156,78.0,0.0,30.0,6.0,0.0
7157,74.0,30.0,30.0,8.0,0.0
7158,78.0,0.0,30.0,8.0,0.0
7159,62.0,0.0,60.0,5.0,0.0
7160,62.0,0.0,60.0,7.0,0.0
7161,57.0,0.0,60.0,3.0,0.0
7162,57.0,16.0,60.0,10.0,0.0
7163,83.0,30.0,30.0,6.0,0.0
7164,81.0,0.0,30.0,6.0,0.0
7165,83.0,0.0,30.0,8.0,0.0
7166,74.0,0.0,60.0,0.0,0.0
7167,71.0,15.0,60.0,1.0,0.0
7168,83.0,29.0,210.0,6.0,0.0
7169,52.0,0.0,60.0,5.0,0.0
7170,59.0,0.0,30.0,7.0,0.0
7171,56.0,0.0,60.0,10.0,0.0
7172,74.0,15.0,30.0,8.0,0.0
7173,56.0,0.0,60.0,3.0,0.0
7174,64.0,0.0,60.0,2.0,0.0
7175,73.0,0.0,15.0,4.0,0.0
7176,80.0,0.0,30.0,8.0,0.0
7177,62.0,0.0,30.0,7.0,0.0
7178,71.0,15.0,15.0,4.0,0.0
7179,69.0,0.0,15.0,4.0,0.0
7180,59.0,0.0,60.0,10.0,0.0
7181,59.0,30.0,30.0,7.0,0.0
7182,71.0,0.0,30.0,8.0,0.0
7183,56.0,0.0,60.0,5.0,0.0
7184,68.0,15.0,15.0,4.0,0.0
7185,52.0,0.0,60.0,3.0,0.0
7186,66.0,0.0,15.0,4.0,0.0
7187,74.0,0.0,30.0,8.0,0.0
7188,56.0,30.0,30.0,7.0,0.0
7189,64.0,0.0,30.0,4.0,0.0
7190,59.0,0.0,60.0,5.0,0.0
7191,52.0,30.0,30.0,7.0,0.0
7192,76.0,0.0,30.0,4.0,0.0
7193,80.0,0.0,30.0,8.0,0.0
7194,52.0,0.0,60.0,10.0,0.0
7195,74.0,0.0,30.0,4.0,0.0
7196,83.0,30.0,30.0,8.0,0.0
7197,56.0,0.0,30.0,7.0,0.0
7198,64.0,0.0,60.0,2.0,0.0
7199,73.0,0.0,60.0,4.0,0.0
7200,52.0,0.0,60.0,5.0,0.0
7201,45.0,0.0,60.0,10.0,0.0
7202,73.0,1.0,30.0,8.0,0.0
7203,69.0,0.0,60.0,1.0,0.0
7204,57.0,0.0,60.0,7.0,0.0
7205,73.0,0.0,60.0,0.0,0.0
7206,69.0,30.0,30.0,6.0,0.0
7207,76.0,0.0,30.0,8.0,0.0
7208,69.0,30.0,30.0,8.0,0.0
7209,57.0,0.0,60.0,3.0,0.0
7210,64.0,0.0,60.0,7.0,0.0
7211,73.0,0.0,30.0,6.0,0.0
7212,57.0,30.0,60.0,10.0,0.0
7213,57.0,0.0,60.0,5.0,0.0
7214,85.0,14.0,120.0,4.0,0.0
7215,73.0,0.0,30.0,8.0,0.0
7216,76.0,0.0,30.0,6.0,0.0
7217,56.0,0.0,60.0,3.0,0.0
7218,61.0,16.0,60.0,7.0,0.0
7219,56.0,0.0,60.0,10.0,0.0
7220,76.0,30.0,30.0,8.0,0.0
7221,61.0,0.0,60.0,5.0,0.0
7222,81.0,0.0,30.0,6.0,0.0
7223,80.0,0.0,30.0,6.0,0.0
7224,81.0,0.0,30.0,8.0,0.0
7225,57.0,0.0,30.0,7.0,0.0
7226,73.0,0.0,30.0,8.0,0.0
7227,50.0,0.0,60.0,5.0,0.0
7228,54.0,0.0,60.0,10.0,0.0
7229,81.0,0.0,60.0,1.0,0.0
7230,66.0,0.0,60.0,2.0,0.0
7231,54.0,0.0,60.0,3.0,0.0
7232,81.0,29.0,210.0,6.0,0.0
7233,85.0,0.0,60.0,0.0,0.0
7234,83.0,15.0,15.0,4.0,0.0
7235,78.0,0.0,30.0,8.0,0.0
7236,81.0,15.0,15.0,4.0,0.0
7237,61.0,15.0,30.0,7.0,0.0
7238,80.0,0.0,15.0,4.0,0.0
7239,78.0,15.0,15.0,4.0,0.0
7240,54.0,0.0,60.0,5.0,0.0
7241,57.0,0.0,60.0,10.0,0.0
7242,69.0,0.0,30.0,8.0,0.0
7243,50.0,0.0,60.0,3.0,0.0
7244,57.0,0.0,30.0,7.0,0.0
7245,76.0,30.0,15.0,4.0,0.0
7246,54.0,30.0,30.0,7.0,0.0
7247,73.0,0.0,30.0,8.0,0.0
7248,74.0,0.0,30.0,4.0,0.0
7249,78.0,0.0,30.0,8.0,0.0
7250,86.0,0.0,30.0,4.0,0.0
7251,50.0,0.0,60.0,10.0,0.0
7252,50.0,30.0,30.0,7.0,0.0
7253,57.0,30.0,60.0,5.0,0.0
7254,81.0,0.0,30.0,8.0,0.0
7255,54.0,0.0,30.0,7.0,0.0
7256,85.0,0.0,30.0,4.0,0.0
7257,83.0,14.0,180.0,4.0,0.0
7258,71.0,1.0,30.0,8.0,0.0
7259,83.0,0.0,60.0,0.0,0.0
7260,56.0,0.0,60.0,7.0,0.0
7261,44.0,0.0,60.0,10.0,0.0
7262,50.0,0.0,60.0,5.0,0.0
7263,71.0,0.0,60.0,2.0,0.0
7264,80.0,0.0,60.0,1.0,0.0
7265,74.0,0.0,30.0,8.0,0.0
7266,68.0,30.0,30.0,6.0,0.0
7267,68.0,0.0,30.0,8.0,0.0
7268,56.0,30.0,60.0,5.0,0.0
7269,71.0,30.0,30.0,6.0,0.0
7270,62.0,0.0,60.0,7.0,0.0
7271,56.0,0.0,60.0,3.0,0.0
7272,56.0,0.0,60.0,10.0,0.0
7273,71.0,0.0,30.0,8.0,0.0
7274,74.0,0.0,30.0,6.0,0.0
7275,54.0,0.0,60.0,10.0,0.0
7276,59.0,0.0,60.0,7.0,0.0
7277,74.0,0.0,30.0,8.0,0.0
7278,59.0,0.0,60.0,5.0,0.0
7279,80.0,30.0,30.0,6.0,0.0
7280,54.0,16.0,60.0,3.0,0.0
7281,80.0,0.0,30.0,8.0,0.0
7282,78.0,0.0,30.0,6.0,0.0
7283,53.0,0.0,60.0,3.0,0.0
7284,83.0,0.0,60.0,0.0,0.0
7285,80.0,0.0,30.0,6.0,0.0
7286,49.0,0.0,60.0,5.0,0.0
7287,73.0,0.0,60.0,2.0,0.0
7288,56.0,0.0,60.0,7.0,0.0
7289,53.0,0.0,60.0,10.0,0.0
7290,80.0,0.0,60.0,1.0,0.0
7291,71.0,15.0,30.0,8.0,0.0
7292,81.0,0.0,15.0,4.0,0.0
7293,85.0,0.0,30.0,6.0,0.0
7294,77.0,0.0,30.0,8.0,0.0
7295,80.0,15.0,15.0,4.0,0.0
7296,78.0,15.0,15.0,4.0,0.0
7297,77.0,15.0,15.0,4.0,0.0
7298,80.0,0.0,30.0,6.0,0.0
7299,68.0,30.0,30.0,8.0,0.0
7300,56.0,0.0,60.0,10.0,0.0
7301,59.0,0.0,60.0,7.0,0.0
7302,49.0,0.0,60.0,3.0,0.0
7303,53.0,0.0,60.0,5.0,0.0
7304,75.0,0.0,15.0,4.0,0.0
7305,77.0,0.0,30.0,6.0,0.0
7306,73.0,30.0,30.0,4.0,0.0
7307,71.0,0.0,30.0,8.0,0.0
7308,56.0,0.0,60.0,5.0,0.0
7309,73.0,0.0,30.0,6.0,0.0
7310,77.0,30.0,30.0,8.0,0.0
7311,61.0,30.0,60.0,7.0,0.0
7312,85.0,0.0,30.0,4.0,0.0
7313,49.0,0.0,60.0,10.0,0.0
7314,80.0,0.0,30.0,8.0,0.0
7315,83.0,0.0,30.0,4.0,0.0
7316,77.0,0.0,30.0,6.0,0.0
7317,78.0,0.0,60.0,6.0,0.0
7318,81.0,30.0,60.0,0.0,0.0
7319,54.0,0.0,60.0,7.0,0.0
7320,42.0,0.0,60.0,7.0,0.0
7321,42.0,0.0,60.0,5.0,0.0
7322,78.0,0.0,60.0,1.0,0.0
7323,42.0,14.0,1080.0,3.0,0.0
7324,42.0,0.0,60.0,10.0,0.0
7325,73.0,0.0,60.0,2.0,0.0
7326,81.0,30.0,30.0,4.0,0.0
7327,78.0,0.0,60.0,8.0,0.0
7328,78.0,0.0,30.0,4.0,0.0
7329,54.0,30.0,60.0,5.0,0.0
7330,77.0,30.0,30.0,4.0,0.0
7331,78.0,0.0,30.0,4.0,0.0
7332,83.0,30.0,30.0,4.0,0.0
7333,56.0,0.0,60.0,5.0,0.0
7334,78.0,30.0,30.0,4.0,0.0
7335,85.0,30.0,30.0,4.0,0.0
7336,78.0,30.0,60.0,6.0,0.0
7337,69.0,0.0,60.0,6.0,0.0
7338,78.0,0.0,60.0,8.0,0.0
7339,57.0,0.0,60.0,5.0,0.0
7340,54.0,0.0,60.0,10.0,0.0
7341,81.0,0.0,60.0,8.0,0.0
7342,73.0,0.0,60.0,8.0,0.0
7343,78.0,0.0,30.0,4.0,0.0
7344,71.0,0.0,60.0,6.0,0.0
7345,80.0,0.0,60.0,6.0,0.0
7346,56.0,30.0,60.0,5.0,0.0
7347,83.0,30.0,30.0,4.0,0.0
7348,78.0,0.0,30.0,4.0,0.0
7349,81.0,0.0,60.0,6.0,0.0
7350,73.0,0.0,60.0,6.0,0.0
7351,54.0,30.0,60.0,5.0,0.0
7352,81.0,30.0,30.0,4.0,0.0
7353,78.0,0.0,30.0,4.0,0.0
7354,71.0,0.0,60.0,2.0,0.0
7355,77.0,0.0,60.0,1.0,0.0
7356,83.0,30.0,30.0,4.0,0.0
7357,80.0,30.0,60.0,0.0,0.0
7358,54.0,0.0,60.0,7.0,0.0
7359,42.0,0.0,60.0,7.0,0.0
7360,78.0,0.0,30.0,4.0,0.0
7361,56.0,30.0,60.0,5.0,0.0
7362,77.0,30.0,30.0,4.0,0.0
7363,78.0,0.0,30.0,4.0,0.0
7364,57.0,0.0,60.0,5.0,0.0
7365,85.0,30.0,30.0,4.0,0.0
7366,78.0,30.0,30.0,4.0,0.0
7367,54.0,0.0,60.0,10.0,0.0
7368,59.0,0.0,60.0,5.0,0.0
7369,86.0,30.0,30.0,4.0,0.0
7370,80.0,0.0,60.0,8.0,0.0
7371,71.0,0.0,60.0,8.0,0.0
7372,77.0,0.0,60.0,8.0,0.0
7373,71.0,0.0,60.0,6.0,0.0
7374,80.0,30.0,60.0,6.0,0.0
7375,78.0,0.0,30.0,4.0,0.0
7376,73.0,0.0,60.0,6.0,0.0
7377,81.0,30.0,60.0,6.0,0.0
7378,85.0,30.0,30.0,4.0,0.0
7379,57.0,0.0,60.0,5.0,0.0
7380,78.0,0.0,30.0,4.0,0.0
7381,74.0,0.0,60.0,6.0,0.0
7382,56.0,0.0,60.0,5.0,0.0
7383,83.0,30.0,30.0,4.0,0.0
7384,83.0,30.0,60.0,6.0,0.0
7385,78.0,0.0,30.0,4.0,0.0
7386,78.0,0.0,60.0,0.0,0.0
7387,85.0,30.0,30.0,4.0,0.0
7388,42.0,0.0,60.0,7.0,0.0
7389,73.0,0.0,60.0,1.0,0.0
7390,54.0,30.0,60.0,7.0,0.0
7391,69.0,0.0,60.0,2.0,0.0
7392,78.0,0.0,30.0,4.0,0.0
7393,57.0,0.0,60.0,5.0,0.0
7394,77.0,30.0,30.0,4.0,0.0
7395,78.0,30.0,30.0,4.0,0.0
7396,59.0,0.0,60.0,5.0,0.0
7397,86.0,30.0,30.0,4.0,0.0
7398,78.0,30.0,30.0,4.0,0.0
7399,73.0,0.0,60.0,6.0,0.0
7400,73.0,0.0,60.0,8.0,0.0
7401,78.0,0.0,60.0,8.0,0.0
7402,54.0,0.0,60.0,10.0,0.0
7403,61.0,0.0,60.0,5.0,0.0
7404,88.0,30.0,30.0,4.0,0.0
7405,82.0,0.0,60.0,6.0,0.0
7406,70.0,30.0,60.0,8.0,0.0
7407,78.0,0.0,30.0,4.0,0.0
7408,59.0,0.0,60.0,5.0,0.0
7409,83.0,0.0,60.0,6.0,0.0
7410,74.0,30.0,60.0,6.0,0.0
7411,86.0,30.0,30.0,4.0,0.0
7412,78.0,0.0,30.0,4.0,0.0
7413,85.0,30.0,30.0,4.0,0.0
7414,76.0,0.0,60.0,6.0,0.0
7415,85.0,0.0,60.0,6.0,0.0
7416,58.0,1.0,60.0,5.0,0.0
7417,78.0,0.0,30.0,4.0,0.0
7418,59.0,0.0,60.0,5.0,0.0
7419,83.0,0.0,60.0,6.0,0.0
7420,47.0,0.0,60.0,7.0,0.0
7421,74.0,0.0,60.0,1.0,0.0
7422,86.0,15.0,15.0,4.0,0.0
7423,74.0,0.0,60.0,6.0,0.0
7424,71.0,0.0,60.0,2.0,0.0
7425,47.0,0.0,60.0,3.0,0.0
7426,78.0,15.0,60.0,0.0,0.0
7427,78.0,0.0,60.0,6.0,0.0
7428,83.0,15.0,15.0,4.0,0.0
7429,78.0,15.0,15.0,4.0,0.0
7430,74.0,0.0,15.0,4.0,0.0
7431,59.0,0.0,60.0,3.0,0.0
7432,71.0,0.0,60.0,2.0,0.0
7433,78.0,0.0,60.0,0.0,0.0
7434,71.0,15.0,15.0,4.0,0.0
7435,74.0,0.0,60.0,1.0,0.0
7436,74.0,15.0,15.0,4.0,0.0
7437,78.0,15.0,15.0,4.0,0.0
7438,83.0,15.0,15.0,4.0,0.0
7439,74.0,15.0,60.0,1.0,0.0
7440,71.0,0.0,60.0,2.0,0.0
7441,78.0,0.0,60.0,0.0,0.0
7442,86.0,15.0,15.0,4.0,0.0
7443,90.0,15.0,15.0,4.0,0.0
7444,86.0,15.0,15.0,4.0,0.0
7445,83.0,0.0,15.0,4.0,0.0
7446,78.0,15.0,60.0,0.0,0.0
7447,73.0,0.0,60.0,1.0,0.0
7448,45.0,0.0,60.0,3.0,0.0
7449,66.0,0.0,60.0,2.0,0.0
7450,85.0,15.0,15.0,4.0,0.0
7451,81.0,15.0,15.0,4.0,0.0
7452,78.0,15.0,15.0,4.0,0.0
7453,73.0,0.0,15.0,4.0,0.0
7454,57.0,0.0,60.0,3.0,0.0
7455,78.0,0.0,60.0,0.0,0.0
7456,69.0,15.0,15.0,4.0,0.0
7457,73.0,0.0,60.0,1.0,0.0
7458,66.0,15.0,60.0,2.0,0.0
7459,73.0,15.0,15.0,4.0,0.0
7460,78.0,15.0,15.0,4.0,0.0
7461,81.0,0.0,15.0,4.0,0.0
7462,66.0,0.0,60.0,2.0,0.0
7463,78.0,0.0,60.0,0.0,0.0
7464,73.0,0.0,60.0,1.0,0.0
7465,85.0,15.0,15.0,4.0,0.0
7466,90.0,15.0,15.0,4.0,0.0
7467,85.0,15.0,15.0,4.0,0.0
7468,81.0,15.0,15.0,4.0,0.0
7469,83.0,15.0,15.0,4.0,0.0
7470,68.0,15.0,60.0,2.0,0.0
7471,71.0,0.0,60.0,1.0,0.0
7472,44.0,0.0,60.0,3.0,0.0
7473,77.0,0.0,60.0,0.0,0.0
7474,80.0,15.0,15.0,4.0,0.0
7475,77.0,15.0,15.0,4.0,0.0
7476,73.0,0.0,15.0,4.0,0.0
7477,77.0,0.0,60.0,0.0,0.0
7478,56.0,15.0,60.0,3.0,0.0
7479,71.0,0.0,60.0,1.0,0.0
7480,68.0,0.0,60.0,2.0,0.0
7481,68.0,15.0,15.0,4.0,0.0
7482,73.0,15.0,15.0,4.0,0.0
7483,77.0,15.0,15.0,4.0,0.0
7484,80.0,0.0,15.0,4.0,0.0
7485,83.0,15.0,15.0,4.0,0.0
7486,68.0,15.0,60.0,2.0,0.0
7487,71.0,0.0,60.0,1.0,0.0
7488,77.0,0.0,60.0,0.0,0.0
7489,86.0,15.0,15.0,4.0,0.0
7490,83.0,15.0,15.0,4.0,0.0
7491,80.0,0.0,15.0,4.0,0.0
7492,78.0,15.0,60.0,0.0,0.0
7493,69.0,0.0,60.0,1.0,0.0
7494,61.0,0.0,60.0,2.0,0.0
7495,42.0,0.0,60.0,3.0,0.0
7496,81.0,15.0,15.0,4.0,0.0
7497,85.0,15.0,15.0,4.0,0.0
7498,81.0,15.0,15.0,4.0,0.0
7499,78.0,0.0,15.0,4.0,0.0
7500,54.0,0.0,60.0,3.0,0.0
7501,80.0,15.0,15.0,4.0,0.0
7502,83.0,15.0,15.0,4.0,0.0
7503,80.0,15.0,15.0,4.0,0.0
7504,77.0,15.0,15.0,4.0,0.0
7505,78.0,15.0,15.0,4.0,0.0
7506,81.0,15.0,15.0,4.0,0.0
7507,78.0,15.0,15.0,4.0,0.0
7508,73.0,15.0,15.0,4.0,0.0
7509,74.0,15.0,15.0,4.0,0.0
7510,71.0,15.0,15.0,4.0,0.0
7511,69.0,15.0,15.0,4.0,0.0
7512,68.0,15.0,15.0,4.0,0.0
7513,73.0,15.0,15.0,4.0,0.0
7514,69.0,15.0,15.0,4.0,0.0
7515,68.0,15.0,15.0,4.0,0.0
7516,66.0,15.0,15.0,4.0,0.0
7517,71.0,15.0,15.0,4.0,0.0
7518,68.0,15.0,15.0,4.0,0.0
7519,66.0,15.0,15.0,4.0,0.0
7520,65.0,15.0,15.0,4.0,0.0
7521,69.0,15.0,15.0,4.0,0.0
7522,66.0,15.0,15.0,4.0,0.0
7523,64.0,15.0,15.0,4.0,0.0
7524,62.0,15.0,15.0,4.0,0.0
7525,61.0,15.0,15.0,5.0,0.0
7526,59.0,15.0,15.0,5.0,0.0
7527,57.0,15.0,15.0,5.0,0.0
7528,56.0,15.0,15.0,5.0,0.0
7529,54.0,15.0,15.0,5.0,0.0
7530,52.0,15.0,15.0,5.0,0.0
7531,51.0,15.0,15.0,5.0,0.0
7532,49.0,15.0,15.0,5.0,0.0
7533,69.0,29.0,360.0,2.0,0.0
7534,48.0,0.0,360.0,3.0,0.0
7535,48.0,15.0,15.0,5.0,0.0
7536,78.0,0.0,360.0,1.0,0.0
7537,78.0,0.0,360.0,0.0,0.0
7538,51.0,15.0,15.0,5.0,0.0
7539,54.0,15.0,15.0,5.0,0.0
7540,57.0,15.0,15.0,5.0,0.0
7541,63.0,15.0,15.0,4.0,0.0
7542,66.0,15.0,15.0,4.0,0.0
7543,69.0,15.0,15.0,4.0,0.0
7544,72.0,15.0,15.0,4.0,0.0
7545,66.0,15.0,15.0,4.0,0.0
7546,69.0,15.0,15.0,4.0,0.0
7547,63.0,15.0,15.0,4.0,0.0
7548,66.0,15.0,15.0,4.0,0.0
7549,60.0,15.0,15.0,4.0,0.0
7550,63.0,15.0,15.0,4.0,0.0
7551,66.0,15.0,15.0,4.0,0.0
7552,69.0,15.0,15.0,4.0,0.0
7553,72.0,15.0,15.0,4.0,0.0
7554,75.0,15.0,15.0,4.0,0.0
7555,78.0,15.0,15.0,4.0,0.0
7556,81.0,15.0,15.0,4.0,0.0
7557,87.0,15.0,15.0,4.0,0.0
7558,81.0,15.0,15.0,4.0,0.0
7559,80.0,15.0,15.0,4.0,0.0
7560,78.0,1.0,15.0,4.0,0.0
7561,73.0,0.0,60.0,1.0,0.0
7562,49.0,0.0,60.0,10.0,0.0
7563,77.0,0.0,60.0,0.0,0.0
7564,68.0,0.0,60.0,2.0,0.0
7565,61.0,0.0,60.0,10.0,0.0
7566,77.0,30.0,30.0,4.0,0.0
7567,49.0,14.0,1080.0,3.0,0.0
7568,73.0,30.0,30.0,4.0,0.0
7569,61.0,0.0,60.0,5.0,0.0
7570,72.0,30.0,30.0,4.0,0.0
7571,73.0,30.0,30.0,4.0,0.0
7572,63.0,30.0,60.0,5.0,0.0
7573,78.0,30.0,30.0,4.0,0.0
7574,73.0,0.0,30.0,4.0,0.0
7575,65.0,30.0,60.0,5.0,0.0
7576,68.0,0.0,60.0,6.0,0.0
7577,61.0,0.0,60.0,7.0,0.0
7578,80.0,0.0,60.0,8.0,0.0
7579,77.0,0.0,60.0,6.0,0.0
7580,73.0,0.0,60.0,6.0,0.0
7581,71.0,0.0,60.0,8.0,0.0
7582,80.0,30.0,30.0,4.0,0.0
7583,73.0,0.0,30.0,4.0,0.0
7584,81.0,0.0,60.0,8.0,0.0
7585,78.0,30.0,30.0,4.0,0.0
7586,63.0,0.0,60.0,5.0,0.0
7587,73.0,30.0,60.0,8.0,0.0
7588,73.0,0.0,30.0,4.0,0.0
7589,61.0,0.0,60.0,5.0,0.0
7590,77.0,30.0,30.0,4.0,0.0
7591,83.0,0.0,60.0,8.0,0.0
7592,74.0,0.0,60.0,8.0,0.0
7593,73.0,30.0,30.0,4.0,0.0
7594,78.0,0.0,60.0,0.0,0.0
7595,49.0,0.0,60.0,10.0,0.0
7596,78.0,30.0,30.0,4.0,0.0
7597,73.0,0.0,60.0,1.0,0.0
7598,69.0,0.0,60.0,2.0,0.0
7599,61.0,0.0,60.0,10.0,0.0
7600,73.0,30.0,30.0,4.0,0.0
7601,63.0,0.0,60.0,5.0,0.0
7602,72.0,30.0,30.0,4.0,0.0
7603,73.0,30.0,30.0,4.0,0.0
7604,65.0,30.0,60.0,5.0,0.0
7605,80.0,30.0,30.0,4.0,0.0
7606,73.0,0.0,30.0,4.0,0.0
7607,69.0,0.0,60.0,8.0,0.0
7608,61.0,0.0,60.0,7.0,0.0
7609,78.0,0.0,60.0,8.0,0.0
7610,66.0,0.0,60.0,5.0,0.0
7611,81.0,30.0,30.0,4.0,0.0
7612,78.0,0.0,60.0,6.0,0.0
7613,73.0,0.0,60.0,6.0,0.0
7614,69.0,0.0,60.0,6.0,0.0
7615,73.0,30.0,30.0,4.0,0.0
7616,80.0,0.0,60.0,8.0,0.0
7617,71.0,0.0,60.0,8.0,0.0
7618,65.0,0.0,60.0,5.0,0.0
7619,80.0,30.0,30.0,4.0,0.0
7620,73.0,30.0,30.0,4.0,0.0
7621,78.0,30.0,30.0,4.0,0.0
7622,81.0,0.0,60.0,8.0,0.0
7623,73.0,0.0,60.0,8.0,0.0
7624,63.0,0.0,60.0,5.0,0.0
7625,73.0,30.0,30.0,4.0,0.0
7626,65.0,30.0,60.0,2.0,0.0
7627,80.0,0.0,60.0,0.0,0.0
7628,61.0,0.0,60.0,10.0,0.0
7629,49.0,0.0,60.0,10.0,0.0
7630,73.0,0.0,60.0,1.0,0.0
7631,80.0,30.0,30.0,4.0,0.0
7632,73.0,0.0,30.0,4.0,0.0
7633,65.0,0.0,60.0,5.0,0.0
7634,72.0,30.0,30.0,4.0,0.0
7635,73.0,30.0,30.0,4.0,0.0
7636,81.0,30.0,30.0,4.0,0.0
7637,66.0,30.0,60.0,5.0,0.0
7638,73.0,0.0,30.0,4.0,0.0
7639,77.0,0.0,60.0,8.0,0.0
7640,83.0,30.0,30.0,4.0,0.0
7641,68.0,0.0,60.0,5.0,0.0
7642,68.0,0.0,60.0,8.0,0.0
7643,73.0,0.0,60.0,6.0,0.0
7644,77.0,30.0,60.0,6.0,0.0
7645,61.0,0.0,60.0,7.0,0.0
7646,80.0,0.0,60.0,6.0,0.0
7647,73.0,0.0,30.0,4.0,0.0
7648,81.0,30.0,30.0,4.0,0.0
7649,66.0,0.0,60.0,5.0,0.0
7650,69.0,0.0,60.0,8.0,0.0
7651,78.0,30.0,60.0,8.0,0.0
7652,73.0,0.0,30.0,4.0,0.0
7653,65.0,0.0,60.0,5.0,0.0
7654,71.0,0.0,60.0,8.0,0.0
7655,80.0,1.0,60.0,8.0,0.0
7656,80.0,30.0,30.0,4.0,0.0
7657,73.0,0.0,30.0,4.0,0.0
7658,81.0,0.0,60.0,0.0,0.0
7659,81.0,15.0,15.0,4.0,0.0
7660,49.0,0.0,60.0,3.0,0.0
7661,66.0,0.0,60.0,2.0,0.0
7662,73.0,15.0,60.0,1.0,0.0
7663,66.0,14.0,60.0,5.0,0.0
7664,77.0,16.0,15.0,4.0,0.0
7665,78.0,0.0,30.0,4.0,0.0
7666,73.0,0.0,15.0,5.0,0.0
7667,78.0,0.0,60.0,6.0,0.0
7668,49.0,0.0,60.0,3.0,0.0
7669,61.0,0.0,60.0,7.0,0.0
7670,73.0,0.0,60.0,6.0,0.0
7671,85.0,15.0,15.0,4.0,0.0
7672,69.0,15.0,60.0,6.0,0.0
7673,69.0,14.0,60.0,5.0,0.0
7674,77.0,16.0,15.0,4.0,0.0
7675,78.0,0.0,30.0,4.0,0.0
7676,73.0,0.0,15.0,5.0,0.0
7677,81.0,15.0,15.0,4.0,0.0
7678,73.0,0.0,60.0,8.0,0.0
7679,69.0,15.0,60.0,8.0,0.0
7680,66.0,0.0,60.0,8.0,0.0
7681,49.0,0.0,60.0,10.0,0.0
7682,49.0,0.0,60.0,3.0,0.0
7683,66.0,14.0,60.0,5.0,0.0
7684,77.0,16.0,15.0,4.0,0.0
7685,78.0,0.0,30.0,4.0,0.0
7686,73.0,0.0,15.0,5.0,0.0
7687,77.0,0.0,60.0,1.0,0.0
7688,80.0,15.0,15.0,4.0,0.0
7689,71.0,14.0,60.0,5.0,0.0
7690,71.0,15.0,60.0,2.0,0.0
7691,49.0,0.0,60.0,3.0,0.0
7692,80.0,0.0,60.0,0.0,0.0
7693,74.0,16.0,15.0,4.0,0.0
7694,77.0,0.0,30.0,4.0,0.0
7695,73.0,0.0,15.0,5.0,0.0
7696,68.0,0.0,60.0,6.0,0.0
7697,49.0,0.0,60.0,3.0,0.0
7698,83.0,15.0,15.0,4.0,0.0
7699,73.0,0.0,60.0,6.0,0.0
7700,61.0,15.0,60.0,7.0,0.0
7701,77.0,0.0,60.0,6.0,0.0
7702,68.0,14.0,60.0,5.0,0.0
7703,74.0,16.0,15.0,4.0,0.0
7704,77.0,0.0,30.0,4.0,0.0
7705,73.0,0.0,15.0,5.0,0.0
7706,49.0,0.0,60.0,3.0,0.0
7707,71.0,14.0,60.0,5.0,0.0
7708,71.0,0.0,60.0,8.0,0.0
7709,49.0,15.0,60.0,10.0,0.0
7710,65.0,0.0,60.0,8.0,0.0
7711,68.0,0.0,60.0,8.0,0.0
7712,80.0,15.0,15.0,4.0,0.0
7713,74.0,16.0,15.0,4.0,0.0
7714,77.0,0.0,30.0,4.0,0.0
7715,73.0,0.0,15.0,5.0,0.0
7716,69.0,14.0,60.0,5.0,0.0
7717,49.0,0.0,60.0,3.0,0.0
7718,78.0,15.0,15.0,4.0,0.0
7719,78.0,0.0,60.0,0.0,0.0
7720,69.0,15.0,60.0,2.0,0.0
7721,75.0,0.0,60.0,1.0,0.0
7722,73.0,16.0,15.0,4.0,0.0
7723,75.0,0.0,30.0,4.0,0.0
7724,72.0,0.0,15.0,5.0,0.0
7725,61.0,0.0,60.0,7.0,0.0
7726,66.0,14.0,60.0,5.0,0.0
7727,49.0,0.0,60.0,3.0,0.0
7728,81.0,15.0,15.0,4.0,0.0
7729,75.0,0.0,60.0,6.0,0.0
7730,72.0,0.0,60.0,6.0,0.0
7731,66.0,0.0,60.0,6.0,0.0
7732,73.0,16.0,15.0,4.0,0.0
7733,75.0,0.0,30.0,4.0,0.0
7734,72.0,15.0,15.0,5.0,0.0
7735,66.0,0.0,60.0,8.0,0.0
7736,61.0,0.0,60.0,8.0,0.0
7737,49.0,0.0,60.0,10.0,0.0
7738,69.0,0.0,60.0,8.0,0.0
7739,49.0,15.0,60.0,3.0,0.0
7740,78.0,15.0,15.0,4.0,0.0
7741,69.0,14.0,60.0,5.0,0.0
7742,73.0,16.0,15.0,4.0,0.0
7743,75.0,0.0,30.0,4.0,0.0
7744,72.0,0.0,15.0,5.0,0.0
7745,77.0,15.0,15.0,4.0,0.0
7746,73.0,0.0,60.0,1.0,0.0
7747,77.0,0.0,60.0,0.0,0.0
7748,68.0,0.0,60.0,2.0,0.0
7749,68.0,14.0,60.0,5.0,0.0
7750,49.0,15.0,60.0,3.0,0.0
7751,72.0,16.0,15.0,4.0,0.0
7752,73.0,0.0,30.0,4.0,0.0
7753,71.0,0.0,15.0,5.0,0.0
7754,61.0,0.0,60.0,7.0,0.0
7755,80.0,15.0,15.0,4.0,0.0
7756,65.0,14.0,60.0,5.0,0.0
7757,65.0,0.0,60.0,6.0,0.0
7758,49.0,15.0,60.0,3.0,0.0
7759,68.0,0.0,60.0,6.0,0.0
7760,73.0,0.0,60.0,6.0,0.0
7761,72.0,16.0,15.0,4.0,0.0
7762,73.0,0.0,30.0,4.0,0.0
7763,71.0,0.0,15.0,5.0,0.0
7764,49.0,0.0,60.0,10.0,0.0
7765,68.0,0.0,60.0,8.0,0.0
7766,68.0,14.0,60.0,5.0,0.0
7767,77.0,15.0,15.0,4.0,0.0
7768,49.0,0.0,60.0,3.0,0.0
7769,65.0,0.0,60.0,8.0,0.0
7770,61.0,0.0,60.0,8.0,0.0
7771,72.0,16.0,15.0,4.0,0.0
7772,73.0,0.0,30.0,4.0,0.0
7773,71.0,15.0,15.0,5.0,0.0
7774,49.0,0.0,60.0,3.0,0.0
7775,66.0,0.0,60.0,2.0,0.0
7776,72.0,15.0,60.0,1.0,0.0
7777,66.0,14.0,60.0,5.0,0.0
7778,76.0,0.0,60.0,0.0,0.0
7779,75.0,15.0,15.0,4.0,0.0
7780,72.0,16.0,15.0,4.0,0.0
7781,73.0,0.0,30.0,4.0,0.0
7782,69.0,0.0,15.0,5.0,0.0
7783,63.0,14.0,60.0,5.0,0.0
7784,49.0,0.0,60.0,3.0,0.0
7785,61.0,15.0,60.0,7.0,0.0
7786,72.0,0.0,60.0,6.0,0.0
7787,78.0,15.0,15.0,4.0,0.0
7788,68.0,0.0,60.0,6.0,0.0
7789,63.0,0.0,60.0,6.0,0.0
7790,72.0,16.0,15.0,4.0,0.0
7791,73.0,0.0,30.0,4.0,0.0
7792,69.0,0.0,15.0,5.0,0.0
7793,76.0,15.0,15.0,4.0,0.0
7794,49.0,0.0,60.0,3.0,0.0
7795,49.0,0.0,60.0,10.0,0.0
7796,66.0,14.0,60.0,5.0,0.0
7797,60.0,0.0,60.0,8.0,0.0
7798,63.0,0.0,60.0,8.0,0.0
7799,66.0,0.0,60.0,8.0,0.0
7800,72.0,16.0,15.0,4.0,0.0
7801,73.0,15.0,30.0,4.0,0.0
7802,69.0,0.0,15.0,5.0,0.0
7803,77.0,15.0,15.0,4.0,0.0
7804,68.0,14.0,60.0,5.0,0.0
7805,68.0,0.0,60.0,2.0,0.0
7806,49.0,0.0,60.0,3.0,0.0
7807,71.0,0.0,60.0,1.0,0.0
7808,77.0,0.0,60.0,0.0,0.0
7809,73.0,16.0,15.0,4.0,0.0
7810,74.0,0.0,30.0,4.0,0.0
7811,71.0,15.0,15.0,5.0,0.0
7812,65.0,0.0,60.0,6.0,0.0
7813,71.0,0.0,60.0,6.0,0.0
7814,68.0,15.0,60.0,6.0,0.0
7815,80.0,15.0,15.0,4.0,0.0
7816,49.0,0.0,60.0,3.0,0.0
7817,61.0,0.0,60.0,7.0,0.0
7818,65.0,14.0,60.0,5.0,0.0
7819,73.0,16.0,15.0,4.0,0.0
7820,74.0,0.0,30.0,4.0,0.0
7821,71.0,0.0,15.0,5.0,0.0
7822,68.0,0.0,60.0,8.0,0.0
7823,59.0,0.0,60.0,8.0,0.0
7824,65.0,0.0,60.0,8.0,0.0
7825,49.0,0.0,60.0,10.0,0.0
7826,77.0,15.0,15.0,4.0,0.0
7827,49.0,0.0,60.0,3.0,0.0
7828,61.0,14.0,60.0,5.0,0.0
7829,73.0,16.0,15.0,4.0,0.0
7830,74.0,0.0,30.0,4.0,0.0
7831,71.0,15.0,15.0,5.0,0.0
7832,69.0,0.0,180.0,1.0,0.0
7833,50.0,1.0,60.0,3.0,0.0
7834,62.0,14.0,60.0,4.0,0.0
7835,69.0,0.0,60.0,4.0,0.0
7836,66.0,0.0,180.0,2.0,0.0
7837,78.0,15.0,15.0,4.0,0.0
7838,78.0,14.0,180.0,0.0,0.0
7839,76.0,15.0,15.0,4.0,0.0
7840,74.0,15.0,15.0,4.0,0.0
7841,73.0,0.0,15.0,4.0,0.0
7842,50.0,15.0,60.0,3.0,0.0
7843,62.0,0.0,60.0,7.0,0.0
7844,66.0,0.0,60.0,6.0,0.0
7845,69.0,0.0,60.0,6.0,0.0
7846,71.0,15.0,15.0,4.0,0.0
7847,69.0,15.0,15.0,4.0,0.0
7848,68.0,15.0,15.0,4.0,0.0
7849,66.0,0.0,15.0,4.0,0.0
7850,81.0,0.0,60.0,8.0,0.0
7851,78.0,0.0,60.0,8.0,0.0
7852,50.0,0.0,60.0,7.0,0.0
7853,50.0,0.0,60.0,10.0,0.0
7854,64.0,15.0,15.0,4.0,0.0
7855,69.0,1.0,60.0,6.0,0.0
7856,78.0,0.0,60.0,6.0,0.0
7857,50.0,0.0,60.0,3.0,0.0
7858,62.0,15.0,15.0,4.0,0.0
7859,61.0,15.0,15.0,4.0,0.0
7860,59.0,0.0,15.0,4.0,0.0
7861,63.0,0.0,180.0,2.0,0.0
7862,84.0,14.0,180.0,0.0,0.0
7863,51.0,0.0,60.0,10.0,0.0
7864,51.0,15.0,60.0,3.0,0.0
7865,72.0,0.0,60.0,8.0,0.0
7866,78.0,0.0,60.0,8.0,0.0
7867,78.0,0.0,180.0,1.0,0.0
7868,57.0,15.0,15.0,5.0,0.0
7869,56.0,15.0,15.0,5.0,0.0
7870,54.0,15.0,15.0,5.0,0.0
7871,52.0,0.0,15.0,5.0,0.0
7872,66.0,0.0,60.0,6.0,0.0
7873,63.0,15.0,60.0,7.0,0.0
7874,51.0,0.0,60.0,3.0,0.0
7875,51.0,15.0,15.0,5.0,0.0
7876,72.0,0.0,60.0,6.0,0.0
7877,49.0,15.0,15.0,5.0,0.0
7878,48.0,15.0,15.0,5.0,0.0
7879,46.0,0.0,15.0,5.0,0.0
7880,51.0,0.0,60.0,3.0,0.0
7881,44.0,15.0,15.0,5.0,0.0
7882,78.0,0.0,60.0,6.0,0.0
7883,51.0,0.0,60.0,10.0,0.0
7884,72.0,0.0,60.0,6.0,0.0
7885,78.0,0.0,60.0,8.0,0.0
7886,84.0,1.0,60.0,8.0,0.0
7887,87.0,0.0,60.0,8.0,0.0
7888,51.0,0.0,60.0,7.0,0.0
7889,57.0,15.0,15.0,5.0,0.0
7890,56.0,15.0,15.0,5.0,0.0
7891,54.0,0.0,15.0,5.0,0.0
7892,49.0,0.0,60.0,10.0,0.0
7893,65.0,0.0,60.0,2.0,0.0
7894,49.0,0.0,60.0,3.0,0.0
7895,77.0,0.0,60.0,8.0,0.0
7896,85.0,0.0,60.0,0.0,0.0
7897,80.0,0.0,60.0,1.0,0.0
7898,53.0,15.0,15.0,5.0,0.0
7899,80.0,15.0,60.0,8.0,0.0
7900,51.0,15.0,15.0,5.0,0.0
7901,49.0,15.0,15.0,5.0,0.0
7902,51.0,0.0,15.0,5.0,0.0
7903,73.0,0.0,60.0,0.0,0.0
7904,61.0,0.0,60.0,3.0,0.0
7905,73.0,0.0,60.0,2.0,0.0
7906,68.0,0.0,60.0,6.0,0.0
7907,53.0,15.0,15.0,5.0,0.0
7908,77.0,0.0,60.0,6.0,0.0
7909,61.0,0.0,60.0,7.0,0.0
7910,73.0,15.0,60.0,1.0,0.0
7911,49.0,0.0,60.0,10.0,0.0
7912,61.0,0.0,60.0,10.0,0.0
7913,73.0,0.0,60.0,6.0,0.0
7914,54.0,15.0,15.0,5.0,0.0
7915,56.0,15.0,15.0,5.0,0.0
7916,57.0,0.0,15.0,5.0,0.0
7917,80.0,0.0,60.0,8.0,0.0
7918,59.0,0.0,60.0,7.0,0.0
7919,71.0,0.0,60.0,1.0,0.0
7920,71.0,0.0,60.0,0.0,0.0
7921,77.0,0.0,60.0,6.0,0.0
7922,73.0,0.0,60.0,6.0,0.0
7923,47.0,0.0,60.0,10.0,0.0
7924,59.0,0.0,60.0,10.0,0.0
7925,80.0,0.0,60.0,6.0,0.0
7926,68.0,0.0,60.0,8.0,0.0
7927,77.0,15.0,60.0,8.0,0.0
7928,59.0,15.0,15.0,5.0,0.0
7929,59.0,0.0,60.0,3.0,0.0
7930,71.0,0.0,60.0,2.0,0.0
7931,61.0,15.0,15.0,5.0,0.0
7932,63.0,15.0,15.0,5.0,0.0
7933,65.0,0.0,15.0,5.0,0.0
7934,69.0,15.0,60.0,2.0,0.0
7935,57.0,0.0,60.0,3.0,0.0
7936,57.0,0.0,60.0,7.0,0.0
7937,45.0,0.0,60.0,10.0,0.0
7938,57.0,0.0,60.0,10.0,0.0
7939,69.0,0.0,60.0,0.0,0.0
7940,66.0,0.0,60.0,8.0,0.0
7941,73.0,0.0,60.0,8.0,0.0
7942,66.0,15.0,15.0,4.0,0.0
7943,69.0,0.0,60.0,1.0,0.0
7944,68.0,15.0,15.0,4.0,0.0
7945,69.0,15.0,15.0,4.0,0.0
7946,71.0,0.0,15.0,4.0,0.0
7947,73.0,0.0,60.0,6.0,0.0
7948,78.0,0.0,60.0,6.0,0.0
7949,73.0,15.0,15.0,4.0,0.0
7950,69.0,0.0,60.0,0.0,0.0
7951,69.0,0.0,60.0,1.0,0.0
7952,57.0,15.0,60.0,3.0,0.0
7953,69.0,0.0,60.0,2.0,0.0
7954,45.0,0.0,60.0,10.0,0.0
7955,57.0,0.0,60.0,10.0,0.0
7956,57.0,0.0,60.0,7.0,0.0
7957,75.0,15.0,15.0,4.0,0.0
7958,77.0,15.0,15.0,4.0,0.0
7959,78.0,0.0,15.0,4.0,0.0
7960,56.0,0.0,60.0,3.0,0.0
7961,68.0,0.0,60.0,8.0,0.0
7962,68.0,0.0,60.0,1.0,0.0
7963,71.0,0.0,60.0,8.0,0.0
7964,80.0,15.0,15.0,4.0,0.0
7965,77.0,0.0,60.0,6.0,0.0
7966,73.0,0.0,60.0,6.0,0.0
7967,73.0,0.0,60.0,8.0,0.0
7968,77.0,0.0,60.0,8.0,0.0
7969,68.0,0.0,60.0,2.0,0.0
7970,44.0,0.0,60.0,10.0,0.0
7971,56.0,0.0,60.0,10.0,0.0
7972,56.0,15.0,60.0,7.0,0.0
7973,83.0,0.0,60.0,6.0,0.0
7974,68.0,0.0,60.0,0.0,0.0
7975,83.0,15.0,15.0,4.0,0.0
7976,81.0,15.0,15.0,4.0,0.0
7977,80.0,0.0,15.0,4.0,0.0
7978,81.0,15.0,15.0,4.0,0.0
7979,69.0,0.0,60.0,8.0,0.0
7980,73.0,0.0,60.0,8.0,0.0
7981,78.0,0.0,60.0,8.0,0.0
7982,66.0,0.0,60.0,0.0,0.0
7983,78.0,0.0,60.0,6.0,0.0
7984,73.0,0.0,60.0,6.0,0.0
7985,54.0,0.0,60.0,3.0,0.0
7986,54.0,15.0,60.0,7.0,0.0
7987,54.0,0.0,60.0,10.0,0.0
7988,81.0,0.0,60.0,6.0,0.0
7989,66.0,0.0,60.0,1.0,0.0
7990,42.0,0.0,60.0,10.0,0.0
7991,66.0,0.0,60.0,2.0,0.0
7992,78.0,15.0,15.0,4.0,0.0
7993,81.0,15.0,15.0,4.0,0.0
7994,85.0,0.0,15.0,4.0,0.0
7995,90.0,15.0,15.0,4.0,0.0
7996,86.0,15.0,15.0,4.0,0.0
7997,84.0,15.0,15.0,4.0,0.0
7998,57.0,15.0,30.0,3.0,0.0
7999,81.0,0.0,15.0,4.0,0.0
8000,62.0,30.0,60.0,3.0,0.0
8001,78.0,15.0,15.0,4.0,0.0
8002,74.0,15.0,15.0,4.0,0.0
8003,72.0,15.0,15.0,4.0,0.0
8004,69.0,0.0,15.0,4.0,0.0
8005,66.0,30.0,30.0,4.0,0.0
8006,78.0,0.0,30.0,4.0,0.0
8007,60.0,0.0,30.0,3.0,0.0
8008,60.0,0.0,30.0,5.0,0.0
8009,69.0,60.0,30.0,4.0,0.0
8010,61.0,0.0,120.0,5.0,0.0
8011,68.0,0.0,90.0,4.0,0.0
8012,77.0,30.0,90.0,4.0,0.0
8013,61.0,30.0,60.0,3.0,0.0
8014,49.0,0.0,60.0,3.0,0.0
8015,69.0,15.0,30.0,4.0,0.0
8016,78.0,0.0,30.0,4.0,0.0
8017,66.0,15.0,60.0,5.0,0.0
8018,69.0,15.0,15.0,4.0,0.0
8019,78.0,0.0,15.0,4.0,0.0
8020,54.0,0.0,60.0,3.0,0.0
8021,90.0,15.0,15.0,4.0,0.0
8022,66.0,0.0,30.0,6.0,0.0
8023,89.0,15.0,15.0,4.0,0.0
8024,87.0,0.0,15.0,4.0,0.0
8025,78.0,14.0,60.0,6.0,0.0
8026,69.0,0.0,30.0,6.0,0.0
8027,45.0,1.0,60.0,3.0,0.0
8028,78.0,0.0,60.0,0.0,0.0
8029,78.0,0.0,60.0,8.0,0.0
8030,85.0,15.0,15.0,4.0,0.0
8031,90.0,15.0,15.0,4.0,0.0
8032,89.0,15.0,15.0,4.0,0.0
8033,73.0,0.0,30.0,6.0,0.0
8034,87.0,0.0,15.0,4.0,0.0
8035,80.0,0.0,60.0,0.0,0.0
8036,80.0,0.0,60.0,8.0,0.0
8037,85.0,15.0,15.0,4.0,0.0
8038,80.0,14.0,60.0,6.0,0.0
8039,78.0,0.0,30.0,6.0,0.0
8040,49.0,0.0,60.0,3.0,0.0
8041,83.0,15.0,15.0,4.0,0.0
8042,81.0,15.0,15.0,4.0,0.0
8043,77.0,0.0,30.0,6.0,0.0
8044,80.0,1.0,15.0,4.0,0.0
8045,78.0,15.0,15.0,4.0,0.0
8046,81.0,0.0,60.0,8.0,0.0
8047,81.0,15.0,60.0,6.0,0.0
8048,81.0,0.0,60.0,0.0,0.0
8049,42.0,0.0,60.0,3.0,0.0
8050,78.0,0.0,60.0,6.0,0.0
8051,78.0,15.0,15.0,4.0,0.0
8052,77.0,15.0,15.0,4.0,0.0
8053,66.0,0.0,30.0,10.0,0.0
8054,75.0,0.0,15.0,4.0,0.0
8055,73.0,0.0,60.0,2.0,0.0
8056,69.0,0.0,60.0,6.0,0.0
8057,78.0,15.0,60.0,1.0,0.0
8058,81.0,0.0,60.0,6.0,0.0
8059,81.0,0.0,60.0,0.0,0.0
8060,54.0,0.0,60.0,5.0,0.0
8061,78.0,0.0,60.0,8.0,0.0
8062,81.0,0.0,60.0,8.0,0.0
8063,54.0,0.0,60.0,3.0,0.0
8064,73.0,15.0,15.0,4.0,0.0
8065,73.0,0.0,60.0,6.0,0.0
8066,69.0,0.0,30.0,10.0,0.0
8067,78.0,15.0,15.0,4.0,0.0
8068,73.0,0.0,30.0,10.0,0.0
8069,77.0,15.0,15.0,4.0,0.0
8070,75.0,0.0,15.0,4.0,0.0
8071,83.0,0.0,60.0,0.0,0.0
8072,80.0,0.0,60.0,8.0,0.0
8073,68.0,0.0,60.0,2.0,0.0
8074,56.0,0.0,60.0,5.0,0.0
8075,77.0,0.0,60.0,1.0,0.0
8076,78.0,0.0,30.0,10.0,0.0
8077,71.0,0.0,60.0,6.0,0.0
8078,56.0,30.0,60.0,3.0,0.0
8079,83.0,0.0,60.0,6.0,0.0
8080,68.0,0.0,60.0,6.0,0.0
8081,73.0,15.0,15.0,4.0,0.0
8082,83.0,0.0,60.0,8.0,0.0
8083,71.0,15.0,15.0,4.0,0.0
8084,69.0,15.0,15.0,4.0,0.0
8085,77.0,0.0,30.0,10.0,0.0
8086,68.0,0.0,15.0,4.0,0.0
8087,66.0,0.0,60.0,4.0,0.0
8088,81.0,0.0,60.0,8.0,0.0
8089,66.0,0.0,60.0,2.0,0.0
8090,57.0,0.0,60.0,3.0,0.0
8091,66.0,0.0,30.0,7.0,0.0
8092,69.0,0.0,30.0,7.0,0.0
8093,85.0,30.0,60.0,8.0,0.0
8094,85.0,0.0,60.0,0.0,0.0
8095,57.0,0.0,60.0,5.0,0.0
8096,78.0,30.0,30.0,10.0,0.0
8097,78.0,0.0,60.0,1.0,0.0
8098,85.0,0.0,60.0,6.0,0.0
8099,76.0,0.0,30.0,10.0,0.0
8100,73.0,0.0,30.0,7.0,0.0
8101,57.0,0.0,60.0,3.0,0.0
8102,66.0,0.0,60.0,1.0,0.0
8103,85.0,0.0,60.0,0.0,0.0
8104,85.0,30.0,60.0,8.0,0.0
8105,74.0,0.0,30.0,10.0,0.0
8106,71.0,30.0,30.0,7.0,0.0
8107,78.0,0.0,60.0,2.0,0.0
8108,85.0,0.0,60.0,6.0,0.0
8109,57.0,0.0,60.0,5.0,0.0
8110,73.0,0.0,30.0,10.0,0.0
8111,69.0,0.0,30.0,7.0,0.0
8112,71.0,0.0,60.0,1.0,0.0
8113,86.0,0.0,60.0,8.0,0.0
8114,66.0,0.0,60.0,2.0,0.0
8115,68.0,30.0,30.0,7.0,0.0
8116,59.0,0.0,60.0,3.0,0.0
8117,86.0,0.0,60.0,0.0,0.0
8118,71.0,0.0,30.0,10.0,0.0
8119,59.0,30.0,60.0,5.0,0.0
8120,86.0,0.0,60.0,6.0,0.0
8121,66.0,0.0,30.0,7.0,0.0
8122,69.0,0.0,30.0,10.0,0.0
8123,61.0,0.0,60.0,3.0,0.0
8124,85.0,0.0,60.0,0.0,0.0
8125,68.0,0.0,60.0,4.0,0.0
8126,73.0,0.0,60.0,4.0,0.0
8127,65.0,0.0,60.0,4.0,0.0
8128,68.0,0.0,60.0,1.0,0.0
8129,85.0,0.0,60.0,8.0,0.0
8130,65.0,30.0,30.0,7.0,0.0
8131,65.0,0.0,60.0,2.0,0.0
8132,85.0,0.0,60.0,6.0,0.0
8133,71.0,0.0,30.0,10.0,0.0
8134,61.0,0.0,60.0,5.0,0.0
8135,63.0,30.0,30.0,7.0,0.0
8136,69.0,0.0,30.0,10.0,0.0
8137,61.0,0.0,60.0,5.0,0.0
8138,65.0,0.0,60.0,2.0,0.0
8139,73.0,0.0,60.0,1.0,0.0
8140,83.0,30.0,30.0,8.0,0.0
8141,68.0,0.0,30.0,10.0,0.0
8142,83.0,0.0,30.0,6.0,0.0
8143,83.0,0.0,30.0,0.0,0.0
8144,65.0,0.0,30.0,7.0,0.0
8145,61.0,0.0,60.0,3.0,0.0
8146,81.0,0.0,30.0,6.0,0.0
8147,81.0,0.0,30.0,0.0,0.0
8148,66.0,0.0,30.0,10.0,0.0
8149,66.0,0.0,30.0,7.0,0.0
8150,81.0,30.0,30.0,8.0,0.0
8151,65.0,0.0,30.0,7.0,0.0
8152,80.0,0.0,30.0,6.0,0.0
8153,71.0,0.0,60.0,1.0,0.0
8154,80.0,30.0,30.0,8.0,0.0
8155,62.0,0.0,60.0,3.0,0.0
8156,68.0,0.0,30.0,10.0,0.0
8157,66.0,0.0,60.0,2.0,0.0
8158,80.0,0.0,30.0,0.0,0.0
8159,62.0,30.0,60.0,5.0,0.0
8160,66.0,0.0,30.0,7.0,0.0
8161,78.0,0.0,30.0,6.0,0.0
8162,78.0,0.0,30.0,8.0,0.0
8163,78.0,0.0,30.0,0.0,0.0
8164,69.0,0.0,30.0,10.0,0.0
8165,77.0,0.0,30.0,0.0,0.0
8166,68.0,30.0,60.0,4.0,0.0
8167,71.0,0.0,60.0,10.0,0.0
8168,73.0,0.0,60.0,1.0,0.0
8169,77.0,0.0,60.0,4.0,0.0
8170,73.0,0.0,60.0,4.0,0.0
8171,68.0,0.0,60.0,2.0,0.0
8172,68.0,0.0,90.0,7.0,0.0
8173,77.0,30.0,30.0,8.0,0.0
8174,61.0,0.0,60.0,3.0,0.0
8175,61.0,0.0,60.0,5.0,0.0
8176,77.0,0.0,30.0,6.0,0.0
8177,75.0,0.0,30.0,0.0,0.0
8178,75.0,0.0,30.0,8.0,0.0
8179,75.0,0.0,30.0,6.0,0.0
8180,73.0,30.0,30.0,8.0,0.0
8181,59.0,0.0,30.0,5.0,0.0
8182,73.0,30.0,60.0,1.0,0.0
8183,59.0,0.0,30.0,3.0,0.0
8184,73.0,0.0,30.0,6.0,0.0
8185,73.0,0.0,30.0,0.0,0.0
8186,68.0,0.0,60.0,2.0,0.0
8187,65.0,0.0,30.0,10.0,0.0
8188,66.0,0.0,30.0,10.0,0.0
8189,75.0,0.0,30.0,6.0,0.0
8190,66.0,0.0,30.0,7.0,0.0
8191,75.0,0.0,30.0,0.0,0.0
8192,57.0,0.0,30.0,5.0,0.0
8193,75.0,0.0,30.0,8.0,0.0
8194,57.0,0.0,30.0,3.0,0.0
8195,77.0,0.0,30.0,8.0,0.0
8196,77.0,0.0,30.0,6.0,0.0
8197,68.0,0.0,60.0,2.0,0.0
8198,65.0,0.0,30.0,7.0,0.0
8199,73.0,0.0,60.0,1.0,0.0
8200,56.0,0.0,30.0,5.0,0.0
8201,68.0,0.0,30.0,10.0,0.0
8202,56.0,30.0,30.0,3.0,0.0
8203,77.0,0.0,30.0,0.0,0.0
8204,78.0,0.0,30.0,8.0,0.0
8205,54.0,0.0,30.0,5.0,0.0
8206,69.0,30.0,30.0,10.0,0.0
8207,63.0,0.0,30.0,7.0,0.0
8208,78.0,0.0,30.0,0.0,0.0
8209,78.0,0.0,30.0,6.0,0.0
8210,54.0,0.0,30.0,3.0,0.0
8211,53.0,0.0,60.0,5.0,0.0
8212,73.0,0.0,60.0,1.0,0.0
8213,61.0,0.0,30.0,7.0,0.0
8214,80.0,0.0,60.0,8.0,0.0
8215,77.0,0.0,60.0,4.0,0.0
8216,68.0,0.0,60.0,2.0,0.0
8217,80.0,0.0,60.0,6.0,0.0
8218,71.0,30.0,30.0,10.0,0.0
8219,73.0,0.0,60.0,4.0,0.0
8220,80.0,0.0,60.0,0.0,0.0
8221,53.0,30.0,60.0,3.0,0.0
8222,80.0,0.0,60.0,4.0,0.0
8223,74.0,0.0,30.0,10.0,0.0
8224,59.0,0.0,30.0,7.0,0.0
8225,80.0,0.0,60.0,8.0,0.0
8226,77.0,0.0,60.0,8.0,0.0
8227,73.0,30.0,30.0,10.0,0.0
8228,49.0,0.0,60.0,5.0,0.0
8229,80.0,0.0,60.0,0.0,0.0
8230,61.0,0.0,30.0,7.0,0.0
8231,77.0,0.0,60.0,1.0,0.0
8232,73.0,0.0,60.0,2.0,0.0
8233,77.0,0.0,60.0,6.0,0.0
8234,80.0,0.0,60.0,6.0,0.0
8235,49.0,0.0,60.0,3.0,0.0
8236,71.0,0.0,30.0,10.0,0.0
8237,62.0,30.0,30.0,7.0,0.0
8238,78.0,0.0,60.0,8.0,0.0
8239,81.0,0.0,60.0,8.0,0.0
8240,69.0,0.0,30.0,10.0,0.0
8241,54.0,0.0,60.0,5.0,0.0
8242,81.0,15.0,60.0,0.0,0.0
8243,78.0,0.0,60.0,1.0,0.0
8244,54.0,0.0,60.0,3.0,0.0
8245,78.0,0.0,60.0,6.0,0.0
8246,61.0,30.0,30.0,7.0,0.0
8247,81.0,0.0,60.0,6.0,0.0
8248,73.0,0.0,60.0,2.0,0.0
8249,63.0,0.0,30.0,7.0,0.0
8250,71.0,0.0,30.0,10.0,0.0
8251,80.0,0.0,60.0,6.0,0.0
8252,85.0,0.0,60.0,4.0,0.0
8253,77.0,0.0,60.0,1.0,0.0
8254,49.0,0.0,60.0,3.0,0.0
8255,73.0,0.0,60.0,10.0,0.0
8256,77.0,15.0,60.0,4.0,0.0
8257,73.0,0.0,60.0,6.0,0.0
8258,80.0,0.0,60.0,4.0,0.0
8259,65.0,0.0,60.0,7.0,0.0
8260,61.0,15.0,15.0,5.0,0.0
8261,80.0,0.0,60.0,8.0,0.0
8262,77.0,0.0,60.0,8.0,0.0
8263,73.0,0.0,60.0,8.0,0.0
8264,73.0,0.0,60.0,2.0,0.0
8265,80.0,0.0,60.0,0.0,0.0
8266,49.0,15.0,15.0,5.0,0.0
8267,51.0,15.0,15.0,5.0,0.0
8268,53.0,0.0,15.0,5.0,0.0
8269,61.0,0.0,30.0,6.0,0.0
8270,61.0,0.0,30.0,8.0,0.0
8271,54.0,15.0,15.0,5.0,0.0
8272,49.0,0.0,30.0,7.0,0.0
8273,49.0,15.0,30.0,10.0,0.0
8274,56.0,0.0,15.0,5.0,0.0
8275,57.0,15.0,15.0,5.0,0.0
8276,51.0,0.0,30.0,10.0,0.0
8277,63.0,0.0,30.0,6.0,0.0
8278,51.0,15.0,30.0,7.0,0.0
8279,63.0,0.0,30.0,8.0,0.0
8280,59.0,0.0,15.0,5.0,0.0
8281,65.0,0.0,30.0,8.0,0.0
8282,65.0,0.0,30.0,6.0,0.0
8283,61.0,15.0,15.0,5.0,0.0
8284,53.0,0.0,30.0,7.0,0.0
8285,53.0,15.0,30.0,10.0,0.0
8286,63.0,0.0,15.0,4.0,0.0
8287,54.0,0.0,30.0,7.0,0.0
8288,54.0,0.0,30.0,10.0,0.0
8289,66.0,15.0,30.0,6.0,0.0
8290,66.0,0.0,30.0,8.0,0.0
8291,65.0,15.0,15.0,4.0,0.0
8292,66.0,0.0,15.0,4.0,0.0
8293,68.0,15.0,15.0,4.0,0.0
8294,56.0,0.0,60.0,7.0,0.0
8295,73.0,15.0,60.0,2.0,0.0
8296,49.0,0.0,60.0,3.0,0.0
8297,68.0,0.0,60.0,8.0,0.0
8298,68.0,0.0,60.0,6.0,0.0
8299,56.0,0.0,60.0,10.0,0.0
8300,61.0,15.0,15.0,4.0,0.0
8301,63.0,15.0,15.0,4.0,0.0
8302,65.0,0.0,15.0,4.0,0.0
8303,68.0,0.0,60.0,6.0,0.0
8304,66.0,15.0,15.0,4.0,0.0
8305,68.0,0.0,60.0,8.0,0.0
8306,56.0,0.0,60.0,10.0,0.0
8307,56.0,15.0,60.0,7.0,0.0
8308,68.0,15.0,15.0,4.0,0.0
8309,69.0,15.0,15.0,4.0,0.0
8310,71.0,0.0,15.0,4.0,0.0
8311,57.0,0.0,60.0,7.0,0.0
8312,69.0,0.0,60.0,8.0,0.0
8313,57.0,0.0,60.0,10.0,0.0
8314,69.0,15.0,60.0,6.0,0.0
8315,73.0,15.0,15.0,4.0,0.0
8316,75.0,15.0,15.0,4.0,0.0
8317,77.0,15.0,15.0,4.0,0.0
8318,78.0,0.0,15.0,4.0,0.0
8319,68.0,0.0,120.0,6.0,0.0
8320,77.0,0.0,60.0,2.0,0.0
8321,56.0,0.0,120.0,7.0,0.0
8322,49.0,0.0,60.0,3.0,0.0
8323,80.0,15.0,60.0,1.0,0.0
8324,68.0,15.0,30.0,8.0,0.0
8325,80.0,15.0,15.0,4.0,0.0
8326,56.0,0.0,60.0,10.0,0.0
8327,73.0,0.0,15.0,4.0,0.0
8328,73.0,0.0,30.0,8.0,0.0
8329,75.0,15.0,15.0,4.0,0.0
8330,77.0,0.0,15.0,4.0,0.0
8331,61.0,0.0,60.0,3.0,0.0
8332,78.0,15.0,15.0,4.0,0.0
8333,77.0,15.0,30.0,8.0,0.0
8334,68.0,15.0,60.0,10.0,0.0
8335,80.0,0.0,15.0,4.0,0.0
8336,81.0,15.0,15.0,4.0,0.0
8337,80.0,0.0,30.0,8.0,0.0
8338,83.0,0.0,15.0,4.0,0.0
8339,49.0,0.0,60.0,3.0,0.0
8340,65.0,0.0,60.0,10.0,0.0
8341,85.0,0.0,30.0,8.0,0.0
8342,85.0,15.0,15.0,4.0,0.0
8343,83.0,15.0,15.0,4.0,0.0
8344,83.0,0.0,30.0,8.0,0.0
8345,81.0,15.0,15.0,4.0,0.0
8346,80.0,15.0,15.0,4.0,0.0
8347,54.0,0.0,60.0,3.0,0.0
8348,81.0,0.0,60.0,1.0,0.0
8349,81.0,10.0,20.0,8.0,0.0
8350,61.0,0.0,60.0,10.0,0.0
8351,85.0,0.0,60.0,0.0,0.0
8352,78.0,0.0,60.0,2.0,0.0
8353,81.0,5.0,15.0,4.0,0.0
8354,78.0,10.0,15.0,4.0,0.0
8355,83.0,5.0,20.0,8.0,0.0
8356,80.0,15.0,15.0,4.0,0.0
8357,78.0,15.0,30.0,6.0,0.0
8358,81.0,0.0,20.0,8.0,0.0
8359,81.0,0.0,15.0,4.0,0.0
8360,66.0,0.0,60.0,3.0,0.0
8361,83.0,0.0,15.0,8.0,0.0
8362,57.0,0.0,60.0,10.0,0.0
8363,83.0,15.0,15.0,4.0,0.0
8364,73.0,0.0,60.0,7.0,0.0
8365,81.0,15.0,30.0,6.0,0.0
8366,81.0,0.0,15.0,8.0,0.0
8367,85.0,0.0,15.0,4.0,0.0
8368,87.0,15.0,15.0,4.0,0.0
8369,85.0,10.0,30.0,6.0,0.0
8370,83.0,0.0,15.0,8.0,0.0
8371,89.0,0.0,15.0,4.0,0.0
8372,81.0,0.0,15.0,8.0,0.0
8373,54.0,0.0,60.0,10.0,0.0
8374,90.0,5.0,15.0,4.0,0.0
8375,90.0,0.0,30.0,6.0,0.0
8376,83.0,5.0,15.0,8.0,0.0
8377,69.0,15.0,60.0,7.0,0.0
8378,54.0,0.0,60.0,3.0,0.0
8379,81.0,10.0,15.0,8.0,0.0
8380,88.0,10.0,15.0,4.0,0.0
8381,83.0,0.0,15.0,8.0,0.0
8382,86.0,5.0,15.0,4.0,0.0
8383,88.0,0.0,30.0,6.0,0.0
8384,81.0,5.0,15.0,8.0,0.0
8385,83.0,10.0,15.0,8.0,0.0
8386,85.0,0.0,15.0,4.0,0.0
8387,81.0,0.0,15.0,8.0,0.0
8388,86.0,5.0,15.0,4.0,0.0
8389,81.0,0.0,60.0,1.0,0.0
8390,86.0,15.0,60.0,0.0,0.0
8391,47.0,0.0,60.0,3.0,0.0
8392,86.0,10.0,20.0,6.0,0.0
8393,78.0,0.0,60.0,2.0,0.0
8394,83.0,0.0,15.0,8.0,0.0
8395,59.0,9.0,210.0,10.0,0.0
8396,66.0,10.0,30.0,7.0,0.0
8397,71.0,0.0,15.0,4.0,0.0
8398,81.0,0.0,15.0,8.0,0.0
8399,88.0,5.0,20.0,6.0,0.0
8400,73.0,0.0,15.0,4.0,0.0
8401,59.0,0.0,30.0,7.0,0.0
8402,80.0,15.0,15.0,8.0,0.0
8403,86.0,0.0,20.0,6.0,0.0
8404,74.0,0.0,15.0,4.0,0.0
8405,78.0,0.0,15.0,8.0,0.0
8406,62.0,0.0,30.0,7.0,0.0
8407,76.0,0.0,15.0,4.0,0.0
8408,59.0,10.0,60.0,3.0,0.0
8409,83.0,0.0,60.0,8.0,0.0
8410,88.0,15.0,15.0,6.0,0.0
8411,78.0,0.0,15.0,4.0,0.0
8412,86.0,15.0,15.0,6.0,0.0
8413,66.0,0.0,30.0,7.0,0.0
8414,80.0,0.0,15.0,4.0,0.0
8415,88.0,15.0,15.0,6.0,0.0
8416,81.0,0.0,15.0,4.0,0.0
8417,86.0,0.0,15.0,6.0,0.0
8418,88.0,5.0,15.0,6.0,0.0
8419,81.0,0.0,60.0,8.0,0.0
8420,47.0,0.0,60.0,3.0,0.0
8421,83.0,5.0,15.0,4.0,0.0
8422,62.0,0.0,30.0,7.0,0.0
8423,86.0,10.0,15.0,6.0,0.0
8424,81.0,0.0,15.0,4.0,0.0
8425,88.0,10.0,15.0,6.0,0.0
8426,59.0,0.0,30.0,7.0,0.0
8427,86.0,5.0,15.0,6.0,0.0
8428,80.0,5.0,15.0,4.0,0.0
8429,88.0,10.0,15.0,6.0,0.0
8430,78.0,0.0,15.0,4.0,0.0
8431,86.0,15.0,15.0,6.0,0.0
8432,80.0,0.0,15.0,4.0,0.0
8433,86.0,0.0,60.0,0.0,0.0
8434,80.0,0.0,60.0,1.0,0.0
8435,80.0,10.0,20.0,8.0,0.0
8436,52.0,15.0,60.0,3.0,0.0
8437,76.0,0.0,60.0,2.0,0.0
8438,88.0,5.0,15.0,6.0,0.0
8439,64.0,9.0,210.0,7.0,0.0
8440,86.0,0.0,15.0,6.0,0.0
8441,64.0,1.0,15.0,4.0,0.0
8442,81.0,5.0,20.0,8.0,0.0
8443,66.0,15.0,15.0,4.0,0.0
8444,85.0,0.0,15.0,6.0,0.0
8445,52.0,0.0,30.0,10.0,0.0
8446,80.0,0.0,20.0,8.0,0.0
8447,68.0,0.0,15.0,4.0,0.0
8448,83.0,0.0,15.0,6.0,0.0
8449,81.0,15.0,15.0,8.0,0.0
8450,56.0,0.0,30.0,10.0,0.0
8451,64.0,0.0,60.0,3.0,0.0
8452,88.0,10.0,60.0,6.0,0.0
8453,69.0,0.0,15.0,4.0,0.0
8454,71.0,0.0,15.0,4.0,0.0
8455,80.0,15.0,15.0,8.0,0.0
8456,73.0,15.0,15.0,4.0,0.0
8457,81.0,0.0,15.0,8.0,0.0
8458,59.0,0.0,30.0,10.0,0.0
8459,80.0,0.0,15.0,8.0,0.0
8460,74.0,0.0,15.0,4.0,0.0
8461,52.0,0.0,60.0,3.0,0.0
8462,56.0,0.0,30.0,10.0,0.0
8463,81.0,5.0,15.0,8.0,0.0
8464,76.0,5.0,15.0,4.0,0.0
8465,86.0,0.0,60.0,6.0,0.0
8466,80.0,10.0,15.0,8.0,0.0
8467,74.0,10.0,15.0,4.0,0.0
8468,81.0,0.0,15.0,8.0,0.0
8469,80.0,5.0,15.0,8.0,0.0
8470,52.0,0.0,30.0,10.0,0.0
8471,73.0,5.0,15.0,4.0,0.0
8472,81.0,10.0,15.0,8.0,0.0
8473,71.0,0.0,15.0,4.0,0.0
8474,80.0,15.0,15.0,8.0,0.0
8475,73.0,5.0,15.0,4.0,0.0
8476,81.0,0.0,15.0,8.0,0.0
8477,85.0,10.0,20.0,6.0,0.0
8478,45.0,0.0,60.0,3.0,0.0
8479,80.0,0.0,60.0,1.0,0.0
8480,85.0,0.0,60.0,0.0,0.0
8481,76.0,15.0,60.0,2.0,0.0
8482,57.0,9.0,210.0,10.0,0.0
8483,80.0,1.0,15.0,8.0,0.0
8484,57.0,0.0,15.0,4.0,0.0
8485,86.0,5.0,20.0,6.0,0.0
8486,59.0,0.0,15.0,4.0,0.0
8487,57.0,0.0,30.0,7.0,0.0
8488,78.0,15.0,15.0,8.0,0.0
8489,85.0,0.0,20.0,6.0,0.0
8490,76.0,0.0,15.0,8.0,0.0
8491,61.0,0.0,15.0,4.0,0.0
8492,81.0,10.0,60.0,8.0,0.0
8493,62.0,15.0,15.0,4.0,0.0
8494,57.0,0.0,60.0,3.0,0.0
8495,61.0,0.0,30.0,7.0,0.0
8496,86.0,0.0,15.0,6.0,0.0
8497,64.0,0.0,15.0,4.0,0.0
8498,85.0,15.0,15.0,6.0,0.0
8499,64.0,0.0,30.0,7.0,0.0
8500,66.0,15.0,15.0,4.0,0.0
8501,86.0,0.0,15.0,6.0,0.0
8502,85.0,0.0,15.0,6.0,0.0
8503,68.0,0.0,15.0,4.0,0.0
8504,69.0,5.0,15.0,4.0,0.0
8505,45.0,0.0,60.0,3.0,0.0
8506,80.0,0.0,60.0,8.0,0.0
8507,61.0,0.0,30.0,7.0,0.0
8508,86.0,5.0,15.0,6.0,0.0
8509,85.0,10.0,15.0,6.0,0.0
8510,68.0,0.0,15.0,4.0,0.0
8511,86.0,10.0,15.0,6.0,0.0
8512,57.0,15.0,30.0,7.0,0.0
8513,85.0,5.0,15.0,6.0,0.0
8514,66.0,5.0,15.0,4.0,0.0
8515,86.0,10.0,15.0,6.0,0.0
8516,64.0,0.0,15.0,4.0,0.0
8517,85.0,0.0,15.0,6.0,0.0
8518,50.0,0.0,60.0,3.0,0.0
8519,78.0,10.0,20.0,8.0,0.0
8520,78.0,0.0,60.0,1.0,0.0
8521,86.0,5.0,15.0,6.0,0.0
8522,66.0,0.0,15.0,4.0,0.0
8523,74.0,0.0,60.0,2.0,0.0
8524,62.0,9.0,210.0,7.0,0.0
8525,85.0,0.0,60.0,0.0,0.0
8526,50.0,1.0,15.0,5.0,0.0
8527,85.0,0.0,15.0,6.0,0.0
8528,80.0,5.0,20.0,8.0,0.0
8529,83.0,15.0,15.0,6.0,0.0
8530,50.0,0.0,30.0,10.0,0.0
8531,52.0,0.0,15.0,5.0,0.0
8532,78.0,0.0,20.0,8.0,0.0
8533,54.0,15.0,15.0,5.0,0.0
8534,81.0,0.0,15.0,6.0,0.0
8535,86.0,0.0,60.0,6.0,0.0
8536,54.0,15.0,30.0,10.0,0.0
8537,80.0,0.0,15.0,8.0,0.0
8538,56.0,15.0,15.0,5.0,0.0
8539,62.0,0.0,60.0,3.0,0.0
8540,57.0,0.0,15.0,5.0,0.0
8541,78.0,0.0,15.0,8.0,0.0
8542,80.0,0.0,15.0,8.0,0.0
8543,57.0,10.0,30.0,10.0,0.0
8544,59.0,15.0,15.0,5.0,0.0
8545,78.0,0.0,15.0,8.0,0.0
8546,61.0,0.0,15.0,5.0,0.0
8547,80.0,5.0,15.0,8.0,0.0
8548,54.0,0.0,30.0,10.0,0.0
8549,50.0,0.0,60.0,3.0,0.0
8550,85.0,15.0,60.0,6.0,0.0
8551,62.0,5.0,15.0,5.0,0.0
8552,78.0,10.0,15.0,8.0,0.0
8553,61.0,10.0,15.0,5.0,0.0
8554,80.0,0.0,15.0,8.0,0.0
8555,59.0,5.0,15.0,5.0,0.0
8556,50.0,0.0,30.0,10.0,0.0
8557,78.0,5.0,15.0,8.0,0.0
8558,80.0,10.0,15.0,8.0,0.0
8559,57.0,0.0,15.0,5.0,0.0
8560,78.0,0.0,15.0,8.0,0.0
8561,56.0,14.0,210.0,10.0,0.0
8562,78.0,0.0,60.0,1.0,0.0
8563,83.0,0.0,60.0,0.0,0.0
8564,80.0,0.0,15.0,8.0,0.0
8565,44.0,0.0,60.0,3.0,0.0
8566,59.0,5.0,15.0,5.0,0.0
8567,83.0,10.0,20.0,6.0,0.0
8568,74.0,15.0,60.0,2.0,0.0
8569,78.0,0.0,15.0,8.0,0.0
8570,44.0,1.0,15.0,5.0,0.0
8571,85.0,5.0,20.0,6.0,0.0
8572,77.0,0.0,15.0,8.0,0.0
8573,45.0,15.0,15.0,5.0,0.0
8574,56.0,0.0,30.0,7.0,0.0
8575,83.0,0.0,20.0,6.0,0.0
8576,75.0,0.0,15.0,8.0,0.0
8577,47.0,0.0,15.0,5.0,0.0
8578,80.0,0.0,60.0,8.0,0.0
8579,59.0,0.0,30.0,7.0,0.0
8580,85.0,15.0,15.0,6.0,0.0
8581,56.0,0.0,60.0,3.0,0.0
8582,49.0,0.0,15.0,5.0,0.0
8583,83.0,0.0,15.0,6.0,0.0
8584,51.0,15.0,15.0,5.0,0.0
8585,62.0,0.0,30.0,7.0,0.0
8586,53.0,15.0,15.0,5.0,0.0
8587,85.0,0.0,15.0,6.0,0.0
8588,54.0,0.0,15.0,5.0,0.0
8589,83.0,10.0,15.0,6.0,0.0
8590,85.0,5.0,15.0,6.0,0.0
8591,78.0,0.0,60.0,8.0,0.0
8592,59.0,0.0,30.0,7.0,0.0
8593,44.0,0.0,60.0,3.0,0.0
8594,56.0,5.0,15.0,5.0,0.0
8595,83.0,10.0,15.0,6.0,0.0
8596,54.0,10.0,15.0,5.0,0.0
8597,85.0,0.0,15.0,6.0,0.0
8598,53.0,5.0,15.0,5.0,0.0
8599,56.0,15.0,30.0,7.0,0.0
8600,83.0,5.0,15.0,6.0,0.0
8601,85.0,10.0,15.0,6.0,0.0
8602,51.0,0.0,15.0,5.0,0.0
8603,83.0,0.0,15.0,6.0,0.0
8604,49.0,0.0,60.0,3.0,0.0
8605,61.0,0.0,240.0,7.0,0.0
8606,83.0,10.0,60.0,0.0,0.0
8607,85.0,0.0,15.0,6.0,0.0
8608,73.0,0.0,60.0,2.0,0.0
8609,77.0,0.0,60.0,1.0,0.0
8610,53.0,15.0,15.0,5.0,0.0
8611,78.0,0.0,15.0,8.0,0.0
8612,49.0,1.0,15.0,5.0,0.0
8613,77.0,0.0,15.0,8.0,0.0
8614,83.0,0.0,15.0,6.0,0.0
8615,78.0,15.0,15.0,8.0,0.0
8616,81.0,0.0,15.0,6.0,0.0
8617,49.0,0.0,30.0,10.0,0.0
8618,51.0,0.0,15.0,5.0,0.0
8619,53.0,0.0,15.0,5.0,0.0
8620,80.0,0.0,15.0,6.0,0.0
8621,77.0,0.0,15.0,8.0,0.0
8622,61.0,0.0,60.0,3.0,0.0
8623,53.0,0.0,30.0,10.0,0.0
8624,85.0,10.0,60.0,6.0,0.0
8625,78.0,5.0,15.0,8.0,0.0
8626,54.0,5.0,15.0,5.0,0.0
8627,77.0,10.0,15.0,8.0,0.0
8628,56.0,10.0,15.0,5.0,0.0
8629,78.0,0.0,15.0,8.0,0.0
8630,56.0,0.0,30.0,10.0,0.0
8631,57.0,5.0,15.0,5.0,0.0
8632,77.0,5.0,15.0,8.0,0.0
8633,78.0,10.0,15.0,8.0,0.0
8634,59.0,0.0,15.0,5.0,0.0
8635,77.0,0.0,15.0,8.0,0.0
8636,78.0,5.0,15.0,8.0,0.0
8637,53.0,10.0,30.0,10.0,0.0
8638,49.0,15.0,60.0,3.0,0.0
8639,61.0,5.0,15.0,5.0,0.0
8640,83.0,0.0,60.0,6.0,0.0
8641,77.0,10.0,15.0,8.0,0.0
8642,59.0,0.0,15.0,5.0,0.0
8643,78.0,0.0,15.0,8.0,0.0
8644,49.0,0.0,30.0,10.0,0.0
8645,57.0,5.0,15.0,5.0,0.0
8646,77.0,5.0,15.0,8.0,0.0
8647,78.0,10.0,15.0,8.0,0.0
8648,56.0,0.0,15.0,5.0,0.0
8649,77.0,0.0,15.0,8.0,0.0
8650,78.0,0.0,60.0,1.0,0.0
8651,73.0,0.0,60.0,2.0,0.0
8652,57.0,15.0,15.0,5.0,0.0
8653,81.0,0.0,60.0,6.0,0.0
8654,54.0,0.0,60.0,10.0,0.0
8655,78.0,15.0,60.0,8.0,0.0
8656,81.0,0.0,60.0,0.0,0.0
8657,42.0,0.0,60.0,3.0,0.0
8658,54.0,15.0,15.0,5.0,0.0
8659,56.0,15.0,15.0,5.0,0.0
8660,57.0,0.0,15.0,5.0,0.0
8661,74.0,0.0,60.0,1.0,0.0
8662,90.0,0.0,60.0,8.0,0.0
8663,59.0,15.0,15.0,4.0,0.0
8664,66.0,0.0,60.0,2.0,0.0
8665,57.0,0.0,60.0,10.0,0.0
8666,62.0,0.0,60.0,7.0,0.0
8667,90.0,0.0,60.0,6.0,0.0
8668,90.0,0.0,60.0,0.0,0.0
8669,54.0,15.0,60.0,3.0,0.0
8670,61.0,15.0,15.0,4.0,0.0
8671,63.0,15.0,15.0,4.0,0.0
8672,65.0,0.0,15.0,4.0,0.0
8673,42.0,0.0,60.0,3.0,0.0
8674,66.0,0.0,60.0,2.0,0.0
8675,69.0,0.0,60.0,1.0,0.0
8676,88.0,0.0,60.0,6.0,0.0
8677,61.0,0.0,60.0,10.0,0.0
8678,66.0,15.0,15.0,4.0,0.0
8679,61.0,0.0,60.0,7.0,0.0
8680,88.0,15.0,60.0,8.0,0.0
8681,88.0,0.0,60.0,0.0,0.0
8682,68.0,15.0,15.0,4.0,0.0
8683,69.0,15.0,15.0,4.0,0.0
8684,68.0,0.0,15.0,4.0,0.0
8685,67.0,15.0,60.0,2.0,0.0
8686,67.0,15.0,15.0,4.0,0.0
8687,86.0,0.0,60.0,8.0,0.0
8688,86.0,0.0,60.0,6.0,0.0
8689,86.0,0.0,60.0,0.0,0.0
8690,59.0,0.0,60.0,7.0,0.0
8691,62.0,0.0,60.0,10.0,0.0
8692,47.0,0.0,60.0,3.0,0.0
8693,71.0,0.0,60.0,1.0,0.0
8694,66.0,15.0,15.0,4.0,0.0
8695,67.0,15.0,15.0,4.0,0.0
8696,71.0,0.0,15.0,4.0,0.0
8697,85.0,0.0,60.0,0.0,0.0
8698,64.0,0.0,60.0,10.0,0.0
8699,67.0,15.0,15.0,4.0,0.0
8700,49.0,0.0,60.0,3.0,0.0
8701,85.0,0.0,60.0,8.0,0.0
8702,76.0,0.0,60.0,1.0,0.0
8703,85.0,0.0,60.0,6.0,0.0
8704,61.0,15.0,60.0,7.0,0.0
8705,67.0,0.0,60.0,2.0,0.0
8706,66.0,15.0,15.0,4.0,0.0
8707,67.0,15.0,15.0,4.0,0.0
8708,71.0,0.0,15.0,4.0,0.0
8709,62.0,0.0,60.0,7.0,0.0
8710,62.0,0.0,60.0,10.0,0.0
8711,50.0,0.0,60.0,3.0,0.0
8712,83.0,0.0,60.0,8.0,0.0
8713,83.0,0.0,60.0,6.0,0.0
8714,66.0,15.0,15.0,4.0,0.0
8715,66.0,0.0,60.0,2.0,0.0
8716,83.0,20.0,60.0,0.0,0.0
8717,78.0,0.0,60.0,1.0,0.0
8718,65.0,15.0,15.0,4.0,0.0
8719,66.0,15.0,15.0,4.0,0.0
8720,71.0,0.0,15.0,4.0,0.0
8721,83.0,0.0,120.0,6.0,0.0
8722,80.0,0.0,60.0,1.0,0.0
8723,61.0,14.0,60.0,5.0,0.0
8724,66.0,0.0,20.0,5.0,0.0
8725,83.0,0.0,60.0,0.0,0.0
8726,57.0,0.0,20.0,7.0,0.0
8727,62.0,20.0,20.0,10.0,0.0
8728,83.0,0.0,120.0,8.0,0.0
8729,73.0,1.0,60.0,2.0,0.0
8730,56.0,0.0,20.0,7.0,0.0
8731,61.0,20.0,20.0,10.0,0.0
8732,65.0,0.0,20.0,5.0,0.0
8733,57.0,0.0,20.0,7.0,0.0
8734,62.0,0.0,20.0,10.0,0.0
8735,66.0,0.0,20.0,5.0,0.0
8736,61.0,15.0,15.0,10.0,0.0
8737,56.0,0.0,15.0,7.0,0.0
8738,65.0,0.0,15.0,5.0,0.0
8739,49.0,15.0,30.0,3.0,0.0
8740,83.0,10.0,60.0,4.0,0.0
8741,66.0,0.0,15.0,5.0,0.0
8742,57.0,0.0,15.0,7.0,0.0
8743,62.0,0.0,15.0,10.0,0.0
8744,56.0,0.0,15.0,7.0,0.0
8745,51.0,0.0,30.0,3.0,0.0
8746,65.0,0.0,15.0,5.0,0.0
8747,61.0,15.0,15.0,10.0,0.0
8748,57.0,0.0,15.0,7.0,0.0
8749,66.0,0.0,15.0,5.0,0.0
8750,62.0,0.0,15.0,10.0,0.0
8751,61.0,5.0,15.0,10.0,0.0
8752,56.0,0.0,15.0,7.0,0.0
8753,65.0,5.0,15.0,5.0,0.0
8754,53.0,0.0,30.0,3.0,0.0
8755,83.0,10.0,60.0,4.0,0.0
8756,57.0,10.0,15.0,7.0,0.0
8757,62.0,0.0,15.0,10.0,0.0
8758,66.0,10.0,15.0,5.0,0.0
8759,61.0,0.0,15.0,10.0,0.0
8760,56.0,0.0,15.0,7.0,0.0
8761,65.0,5.0,15.0,5.0,0.0
8762,54.0,0.0,30.0,3.0,0.0
8763,57.0,0.0,15.0,7.0,0.0
8764,62.0,5.0,15.0,10.0,0.0
8765,56.0,10.0,15.0,7.0,0.0
8766,61.0,0.0,15.0,10.0,0.0
8767,66.0,0.0,15.0,5.0,0.0
8768,57.0,0.0,15.0,7.0,0.0
8769,62.0,0.0,15.0,10.0,0.0
8770,56.0,0.0,30.0,3.0,0.0
8771,61.0,0.0,15.0,10.0,0.0
8772,80.0,0.0,60.0,0.0,0.0
8773,77.0,0.0,60.0,1.0,0.0
8774,65.0,0.0,15.0,5.0,0.0
8775,56.0,10.0,15.0,7.0,0.0
8776,73.0,0.0,60.0,2.0,0.0
8777,77.0,0.0,60.0,4.0,0.0
8778,62.0,0.0,15.0,10.0,0.0
8779,57.0,10.0,15.0,7.0,0.0
8780,66.0,0.0,15.0,5.0,0.0
8781,65.0,0.0,15.0,5.0,0.0
8782,56.0,10.0,15.0,7.0,0.0
8783,61.0,0.0,15.0,10.0,0.0
8784,54.0,10.0,30.0,3.0,0.0
8785,62.0,0.0,15.0,10.0,0.0
8786,66.0,0.0,15.0,5.0,0.0
8787,57.0,10.0,15.0,7.0,0.0
8788,61.0,0.0,15.0,10.0,0.0
8789,56.0,0.0,15.0,7.0,0.0
8790,65.0,10.0,15.0,5.0,0.0
8791,66.0,0.0,15.0,5.0,0.0
8792,57.0,0.0,15.0,7.0,0.0
8793,62.0,0.0,15.0,10.0,0.0
8794,80.0,0.0,60.0,4.0,0.0
8795,56.0,0.0,15.0,7.0,0.0
8796,53.0,0.0,30.0,3.0,0.0
8797,83.0,0.0,60.0,6.0,0.0
8798,61.0,0.0,15.0,10.0,0.0
8799,65.0,10.0,15.0,5.0,0.0
8800,57.0,10.0,15.0,7.0,0.0
8801,66.0,0.0,15.0,5.0,0.0
8802,62.0,0.0,15.0,10.0,0.0
8803,61.0,10.0,15.0,10.0,0.0
8804,56.0,0.0,15.0,7.0,0.0
8805,65.0,0.0,15.0,5.0,0.0
8806,62.0,0.0,15.0,10.0,0.0
8807,57.0,0.0,15.0,7.0,0.0
8808,54.0,0.0,30.0,3.0,0.0
8809,66.0,10.0,15.0,5.0,0.0
8810,61.0,0.0,15.0,10.0,0.0
8811,65.0,0.0,15.0,5.0,0.0
8812,56.0,10.0,15.0,7.0,0.0
8813,57.0,0.0,15.0,7.0,0.0
8814,62.0,10.0,15.0,10.0,0.0
8815,66.0,0.0,15.0,5.0,0.0
8816,65.0,0.0,15.0,5.0,0.0
8817,61.0,0.0,15.0,10.0,0.0
8818,80.0,0.0,60.0,4.0,0.0
8819,56.0,0.0,30.0,3.0,0.0
8820,56.0,10.0,15.0,7.0,0.0
8821,83.0,0.0,60.0,6.0,0.0
8822,62.0,0.0,15.0,10.0,0.0
8823,57.0,10.0,15.0,7.0,0.0
8824,66.0,0.0,15.0,5.0,0.0
8825,61.0,0.0,15.0,10.0,0.0
8826,56.0,0.0,15.0,7.0,0.0
8827,65.0,10.0,15.0,5.0,0.0
8828,57.0,10.0,15.0,7.0,0.0
8829,66.0,0.0,15.0,5.0,0.0
8830,57.0,10.0,30.0,3.0,0.0
8831,62.0,0.0,15.0,10.0,0.0
8832,65.0,0.0,15.0,5.0,0.0
8833,61.0,0.0,15.0,10.0,0.0
8834,56.0,10.0,15.0,7.0,0.0
8835,62.0,0.0,15.0,10.0,0.0
8836,66.0,0.0,15.0,5.0,0.0
8837,57.0,0.0,15.0,7.0,0.0
8838,77.0,0.0,60.0,6.0,0.0
8839,68.0,0.0,60.0,2.0,0.0
8840,73.0,0.0,60.0,1.0,0.0
8841,77.0,0.0,60.0,0.0,0.0
8842,61.0,10.0,15.0,10.0,0.0
8843,71.0,0.0,60.0,4.0,0.0
8844,59.0,0.0,30.0,3.0,0.0
8845,56.0,0.0,15.0,7.0,0.0
8846,65.0,0.0,15.0,5.0,0.0
8847,62.0,10.0,15.0,10.0,0.0
8848,57.0,0.0,15.0,7.0,0.0
8849,66.0,0.0,15.0,5.0,0.0
8850,65.0,0.0,15.0,5.0,0.0
8851,56.0,0.0,15.0,7.0,0.0
8852,61.0,10.0,15.0,10.0,0.0
8853,66.0,0.0,15.0,5.0,0.0
8854,57.0,0.0,30.0,3.0,0.0
8855,62.0,10.0,15.0,10.0,0.0
8856,57.0,0.0,15.0,7.0,0.0
8857,65.0,0.0,15.0,5.0,0.0
8858,61.0,0.0,15.0,10.0,0.0
8859,56.0,10.0,15.0,7.0,0.0
8860,62.0,0.0,15.0,10.0,0.0
8861,66.0,0.0,15.0,5.0,0.0
8862,57.0,10.0,15.0,7.0,0.0
8863,56.0,10.0,15.0,7.0,0.0
8864,65.0,0.0,15.0,5.0,0.0
8865,61.0,0.0,15.0,10.0,0.0
8866,83.0,0.0,60.0,8.0,0.0
8867,74.0,0.0,60.0,4.0,0.0
8868,56.0,10.0,30.0,3.0,0.0
8869,80.0,0.0,60.0,6.0,0.0
8870,62.0,0.0,15.0,10.0,0.0
8871,57.0,10.0,15.0,7.0,0.0
8872,66.0,0.0,15.0,5.0,0.0
8873,65.0,0.0,15.0,5.0,0.0
8874,61.0,0.0,15.0,10.0,0.0
8875,56.0,0.0,15.0,7.0,0.0
8876,62.0,0.0,15.0,10.0,0.0
8877,66.0,10.0,15.0,5.0,0.0
8878,57.0,0.0,30.0,3.0,0.0
8879,57.0,0.0,15.0,7.0,0.0
8880,61.0,10.0,15.0,10.0,0.0
8881,65.0,0.0,15.0,5.0,0.0
8882,56.0,0.0,15.0,7.0,0.0
8883,57.0,10.0,15.0,7.0,0.0
8884,66.0,0.0,15.0,5.0,0.0
8885,62.0,0.0,15.0,10.0,0.0
8886,83.0,0.0,60.0,8.0,0.0
8887,59.0,0.0,30.0,3.0,0.0
8888,74.0,0.0,60.0,4.0,0.0
8889,80.0,0.0,60.0,6.0,0.0
8890,61.0,10.0,30.0,10.0,0.0
8891,56.0,10.0,15.0,7.0,0.0
8892,65.0,0.0,15.0,5.0,0.0
8893,57.0,10.0,15.0,7.0,0.0
8894,66.0,0.0,15.0,5.0,0.0
8895,65.0,0.0,15.0,5.0,0.0
8896,56.0,0.0,15.0,7.0,0.0
8897,59.0,5.0,15.0,10.0,0.0
8898,66.0,5.0,15.0,5.0,0.0
8899,57.0,0.0,15.0,7.0,0.0
8900,61.0,10.0,30.0,3.0,0.0
8901,65.0,0.0,15.0,5.0,0.0
8902,56.0,10.0,15.0,7.0,0.0
8903,61.0,0.0,15.0,10.0,0.0
8904,66.0,0.0,15.0,5.0,0.0
8905,57.0,0.0,15.0,7.0,0.0
8906,71.0,0.0,60.0,6.0,0.0
8907,62.0,10.0,30.0,3.0,0.0
8908,56.0,0.0,15.0,7.0,0.0
8909,62.0,0.0,15.0,10.0,0.0
8910,80.0,0.0,60.0,0.0,0.0
8911,77.0,0.0,60.0,8.0,0.0
8912,77.0,0.0,60.0,1.0,0.0
8913,68.0,0.0,60.0,4.0,0.0
8914,71.0,0.0,60.0,2.0,0.0
8915,65.0,10.0,15.0,5.0,0.0
8916,64.0,0.0,15.0,10.0,0.0
8917,57.0,10.0,15.0,7.0,0.0
8918,66.0,0.0,15.0,5.0,0.0
8919,65.0,0.0,15.0,5.0,0.0
8920,56.0,0.0,15.0,7.0,0.0
8921,62.0,0.0,15.0,10.0,0.0
8922,66.0,0.0,15.0,5.0,0.0
8923,64.0,0.0,15.0,10.0,0.0
8924,61.0,0.0,30.0,3.0,0.0
8925,57.0,10.0,15.0,7.0,0.0
8926,56.0,10.0,15.0,7.0,0.0
8927,62.0,0.0,15.0,10.0,0.0
8928,65.0,0.0,15.0,5.0,0.0
8929,66.0,10.0,15.0,5.0,0.0
8930,64.0,0.0,15.0,10.0,0.0
8931,57.0,0.0,15.0,7.0,0.0
8932,71.0,0.0,60.0,4.0,0.0
8933,62.0,10.0,15.0,10.0,0.0
8934,74.0,0.0,60.0,6.0,0.0
8935,80.0,0.0,60.0,8.0,0.0
8936,65.0,0.0,15.0,5.0,0.0
8937,59.0,0.0,30.0,3.0,0.0
8938,56.0,0.0,15.0,7.0,0.0
8939,66.0,0.0,15.0,5.0,0.0
8940,57.0,0.0,15.0,7.0,0.0
8941,64.0,10.0,15.0,10.0,0.0
8942,56.0,10.0,15.0,7.0,0.0
8943,62.0,0.0,15.0,10.0,0.0
8944,65.0,0.0,15.0,5.0,0.0
8945,64.0,0.0,15.0,10.0,0.0
8946,66.0,0.0,15.0,5.0,0.0
8947,57.0,0.0,30.0,3.0,0.0
8948,57.0,10.0,15.0,7.0,0.0
8949,62.0,10.0,15.0,10.0,0.0
8950,65.0,0.0,15.0,5.0,0.0
8951,56.0,0.0,15.0,7.0,0.0
8952,57.0,10.0,15.0,7.0,0.0
8953,66.0,0.0,15.0,5.0,0.0
8954,64.0,0.0,15.0,10.0,0.0
8955,62.0,0.0,30.0,10.0,0.0
8956,74.0,0.0,60.0,6.0,0.0
8957,71.0,0.0,60.0,4.0,0.0
8958,65.0,10.0,15.0,5.0,0.0
8959,56.0,0.0,30.0,3.0,0.0
8960,80.0,0.0,60.0,8.0,0.0
8961,56.0,0.0,15.0,7.0,0.0
8962,66.0,10.0,15.0,5.0,0.0
8963,57.0,0.0,15.0,7.0,0.0
8964,56.0,0.0,15.0,7.0,0.0
8965,65.0,10.0,15.0,5.0,0.0
8966,66.0,5.0,15.0,5.0,0.0
8967,57.0,0.0,15.0,7.0,0.0
8968,61.0,5.0,15.0,10.0,0.0
8969,54.0,0.0,30.0,3.0,0.0
8970,65.0,10.0,15.0,5.0,0.0
8971,56.0,0.0,15.0,7.0,0.0
8972,59.0,30.0,15.0,10.0,0.0
8973,66.0,0.0,15.0,5.0,0.0
8974,57.0,0.0,15.0,7.0,0.0
8975,73.0,0.0,90.0,2.0,0.0
8976,68.0,0.0,30.0,6.0,0.0
8977,53.0,30.0,30.0,3.0,0.0
8978,80.0,0.0,90.0,1.0,0.0
8979,73.0,0.0,30.0,8.0,0.0
8980,56.0,0.0,30.0,7.0,0.0
8981,61.0,0.0,60.0,4.0,0.0
8982,83.0,0.0,90.0,0.0,0.0
8983,61.0,0.0,30.0,10.0,0.0
8984,65.0,0.0,30.0,5.0,0.0
8985,73.0,0.0,30.0,6.0,0.0
8986,53.0,0.0,30.0,10.0,0.0
8987,53.0,30.0,30.0,7.0,0.0
8988,68.0,0.0,30.0,5.0,0.0
8989,80.0,0.0,30.0,8.0,0.0
8990,56.0,0.0,30.0,3.0,0.0
8991,77.0,30.0,30.0,8.0,0.0
8992,77.0,0.0,30.0,6.0,0.0
8993,61.0,0.0,30.0,5.0,0.0
8994,49.0,0.0,30.0,10.0,0.0
8995,49.0,0.0,30.0,3.0,0.0
8996,49.0,0.0,30.0,7.0,0.0
8997,53.0,0.0,30.0,10.0,0.0
8998,73.0,0.0,30.0,2.0,0.0
8999,80.0,0.0,30.0,6.0,0.0
9000,53.0,0.0,30.0,3.0,0.0
9001,53.0,0.0,30.0,7.0,0.0
9002,83.0,0.0,30.0,4.0,0.0
9003,73.0,0.0,30.0,8.0,0.0
9004,65.0,0.0,30.0,5.0,0.0
9005,80.0,60.0,30.0,0.0,0.0
9006,73.0,0.0,30.0,1.0,0.0
9007,78.0,0.0,60.0,6.0,0.0
9008,54.0,0.0,60.0,3.0,0.0
9009,81.0,0.0,60.0,4.0,0.0
9010,81.0,0.0,60.0,0.0,0.0
9011,54.0,0.0,60.0,7.0,0.0
9012,54.0,0.0,60.0,10.0,0.0
9013,78.0,0.0,60.0,1.0,0.0
9014,73.0,60.0,60.0,2.0,0.0
9015,85.0,0.0,60.0,8.0,0.0
9016,66.0,0.0,60.0,5.0,0.0
9017,78.0,0.0,30.0,2.0,0.0
9018,59.0,0.0,30.0,5.0,0.0
9019,59.0,0.0,30.0,3.0,0.0
9020,78.0,0.0,30.0,6.0,0.0
9021,59.0,0.0,30.0,7.0,0.0
9022,80.0,0.0,30.0,1.0,0.0
9023,80.0,0.0,30.0,4.0,0.0
9024,83.0,0.0,30.0,0.0,0.0
9025,59.0,0.0,30.0,10.0,0.0
9026,74.0,60.0,30.0,8.0,0.0
9027,77.0,30.0,90.0,1.0,0.0
9028,77.0,0.0,90.0,6.0,0.0
9029,61.0,0.0,60.0,3.0,0.0
9030,80.0,0.0,90.0,4.0,0.0
9031,61.0,30.0,60.0,10.0,0.0
9032,61.0,0.0,60.0,7.0,0.0
9033,61.0,0.0,60.0,5.0,0.0
9034,73.0,0.0,60.0,2.0,0.0
9035,80.0,0.0,90.0,0.0,0.0
9036,73.0,0.0,60.0,8.0,0.0
9037,71.0,0.0,60.0,8.0,0.0
9038,49.0,0.0,60.0,3.0,0.0
9039,49.0,0.0,60.0,10.0,0.0
9040,71.0,0.0,60.0,2.0,0.0
9041,65.0,0.0,60.0,8.0,0.0
9042,49.0,0.0,60.0,7.0,0.0
9043,49.0,0.0,60.0,5.0,0.0
9044,78.0,60.0,30.0,4.0,0.0
9045,78.0,0.0,30.0,0.0,0.0
9046,78.0,0.0,30.0,1.0,0.0
9047,78.0,0.0,30.0,6.0,0.0
9048,78.0,0.0,60.0,4.0,0.0
9049,78.0,0.0,60.0,1.0,0.0
9050,42.0,0.0,60.0,7.0,0.0
9051,69.0,0.0,60.0,8.0,0.0
9052,78.0,0.0,60.0,0.0,0.0
9053,78.0,0.0,60.0,6.0,0.0
9054,61.0,0.0,60.0,8.0,0.0
9055,69.0,60.0,60.0,2.0,0.0
9056,42.0,0.0,60.0,5.0,0.0
9057,42.0,0.0,60.0,3.0,0.0
9058,42.0,0.0,60.0,10.0,0.0
9059,66.0,0.0,60.0,4.0,0.0
9060,66.0,0.0,60.0,6.0,0.0
9061,66.0,60.0,60.0,2.0,0.0
9062,54.0,0.0,60.0,3.0,0.0
9063,54.0,0.0,60.0,5.0,0.0
9064,54.0,0.0,60.0,10.0,0.0
9065,66.0,0.0,60.0,1.0,0.0
9066,66.0,0.0,60.0,0.0,0.0
9067,54.0,0.0,60.0,7.0,0.0
9068,66.0,0.0,60.0,8.0,0.0
9069,68.0,0.0,60.0,0.0,0.0
9070,68.0,0.0,60.0,8.0,0.0
9071,56.0,0.0,60.0,7.0,0.0
9072,56.0,0.0,60.0,3.0,0.0
9073,56.0,60.0,60.0,10.0,0.0
9074,68.0,0.0,60.0,4.0,0.0
9075,68.0,0.0,60.0,6.0,0.0
9076,68.0,0.0,60.0,1.0,0.0
9077,68.0,0.0,60.0,2.0,0.0
9078,56.0,0.0,60.0,5.0,0.0
9079,57.0,0.0,60.0,10.0,0.0
9080,69.0,0.0,60.0,0.0,0.0
9081,69.0,0.0,60.0,6.0,0.0
9082,69.0,0.0,60.0,4.0,0.0
9083,69.0,0.0,60.0,1.0,0.0
9084,57.0,0.0,60.0,7.0,0.0
9085,69.0,0.0,60.0,2.0,0.0
9086,57.0,0.0,60.0,5.0,0.0
9087,69.0,0.0,60.0,8.0,0.0
9088,57.0,60.0,60.0,3.0,0.0
9089,57.0,0.0,60.0,5.0,0.0
9090,57.0,0.0,60.0,3.0,0.0
9091,69.0,0.0,60.0,1.0,0.0
9092,69.0,0.0,60.0,8.0,0.0
9093,69.0,0.0,60.0,4.0,0.0
9094,69.0,0.0,60.0,0.0,0.0
9095,57.0,0.0,60.0,10.0,0.0
9096,69.0,60.0,60.0,6.0,0.0
9097,57.0,0.0,60.0,7.0,0.0
9098,69.0,0.0,60.0,2.0,0.0
9099,59.0,60.0,60.0,10.0,0.0
9100,71.0,0.0,60.0,1.0,0.0
9101,71.0,0.0,60.0,8.0,0.0
9102,71.0,0.0,60.0,0.0,0.0
9103,71.0,0.0,60.0,4.0,0.0
9104,59.0,0.0,60.0,5.0,0.0
9105,71.0,0.0,60.0,6.0,0.0
9106,71.0,0.0,60.0,2.0,0.0
9107,59.0,0.0,60.0,3.0,0.0
9108,59.0,0.0,60.0,7.0,0.0
9109,73.0,0.0,60.0,8.0,0.0
9110,61.0,0.0,60.0,10.0,0.0
9111,61.0,0.0,60.0,7.0,0.0
9112,61.0,60.0,60.0,3.0,0.0
9113,73.0,0.0,60.0,1.0,0.0
9114,73.0,0.0,60.0,0.0,0.0
9115,73.0,0.0,60.0,4.0,0.0
9116,73.0,0.0,60.0,2.0,0.0
9117,73.0,0.0,60.0,6.0,0.0
9118,61.0,0.0,60.0,5.0,0.0
9119,73.0,0.0,60.0,8.0,0.0
9120,61.0,0.0,60.0,7.0,0.0
9121,73.0,0.0,60.0,6.0,0.0
9122,61.0,0.0,60.0,3.0,0.0
9123,61.0,60.0,60.0,10.0,0.0
9124,73.0,0.0,60.0,4.0,0.0
9125,61.0,0.0,60.0,5.0,0.0
9126,73.0,0.0,60.0,0.0,0.0
9127,73.0,0.0,60.0,1.0,0.0
9128,73.0,0.0,60.0,2.0,0.0
9129,74.0,0.0,60.0,4.0,0.0
9130,62.0,60.0,60.0,5.0,0.0
9131,62.0,0.0,60.0,3.0,0.0
9132,74.0,0.0,60.0,2.0,0.0
9133,62.0,0.0,60.0,10.0,0.0
9134,74.0,0.0,60.0,0.0,0.0
9135,74.0,0.0,60.0,1.0,0.0
9136,62.0,0.0,60.0,7.0,0.0
9137,74.0,0.0,60.0,8.0,0.0
9138,74.0,0.0,60.0,6.0,0.0
9139,73.0,30.0,60.0,8.0,0.0
9140,61.0,0.0,60.0,5.0,0.0
9141,73.0,0.0,60.0,2.0,0.0
9142,61.0,0.0,60.0,10.0,0.0
9143,73.0,0.0,60.0,6.0,0.0
9144,73.0,0.0,60.0,0.0,0.0
9145,73.0,0.0,60.0,4.0,0.0
9146,61.0,0.0,60.0,7.0,0.0
9147,73.0,0.0,60.0,1.0,0.0
9148,61.0,0.0,60.0,3.0,0.0
9149,71.0,0.0,30.0,0.0,0.0
9150,71.0,0.0,30.0,2.0,0.0
9151,71.0,0.0,30.0,4.0,0.0
9152,71.0,0.0,30.0,8.0,0.0
9153,71.0,30.0,30.0,6.0,0.0
9154,71.0,0.0,30.0,1.0,0.0
9155,59.0,0.0,30.0,5.0,0.0
9156,59.0,0.0,30.0,10.0,0.0
9157,59.0,0.0,30.0,3.0,0.0
9158,59.0,0.0,30.0,7.0,0.0
9159,57.0,0.0,30.0,5.0,0.0
9160,69.0,0.0,30.0,2.0,0.0
9161,69.0,0.0,30.0,1.0,0.0
9162,69.0,0.0,30.0,6.0,0.0
9163,69.0,0.0,30.0,4.0,0.0
9164,57.0,0.0,30.0,7.0,0.0
9165,69.0,0.0,30.0,0.0,0.0
9166,57.0,30.0,30.0,10.0,0.0
9167,57.0,0.0,30.0,3.0,0.0
9168,69.0,0.0,30.0,8.0,0.0
9169,68.0,30.0,30.0,0.0,0.0
9170,68.0,0.0,30.0,6.0,0.0
9171,56.0,0.0,30.0,10.0,0.0
9172,68.0,0.0,30.0,8.0,0.0
9173,68.0,0.0,30.0,2.0,0.0
9174,56.0,0.0,30.0,5.0,0.0
9175,68.0,0.0,30.0,4.0,0.0
9176,56.0,0.0,30.0,3.0,0.0
9177,56.0,0.0,30.0,7.0,0.0
9178,68.0,0.0,30.0,1.0,0.0
9179,66.0,0.0,30.0,4.0,0.0
9180,66.0,0.0,30.0,8.0,0.0
9181,54.0,0.0,30.0,7.0,0.0
9182,66.0,0.0,30.0,0.0,0.0
9183,66.0,0.0,30.0,2.0,0.0
9184,66.0,0.0,30.0,1.0,0.0
9185,54.0,60.0,30.0,10.0,0.0
9186,54.0,0.0,30.0,3.0,0.0
9187,54.0,0.0,30.0,5.0,0.0
9188,66.0,0.0,30.0,6.0,0.0
9189,65.0,0.0,60.0,2.0,0.0
9190,65.0,0.0,60.0,6.0,0.0
9191,53.0,0.0,60.0,5.0,0.0
9192,53.0,0.0,60.0,10.0,0.0
9193,65.0,0.0,60.0,8.0,0.0
9194,53.0,0.0,60.0,7.0,0.0
9195,65.0,0.0,60.0,1.0,0.0
9196,65.0,0.0,60.0,0.0,0.0
9197,53.0,0.0,60.0,3.0,0.0
9198,65.0,30.0,60.0,4.0,0.0
9199,49.0,1.0,30.0,7.0,0.0
9200,61.0,0.0,30.0,8.0,0.0
9201,49.0,0.0,30.0,5.0,0.0
9202,61.0,0.0,30.0,6.0,0.0
9203,61.0,0.0,30.0,0.0,0.0
9204,61.0,29.0,30.0,1.0,0.0
9205,61.0,0.0,30.0,4.0,0.0
9206,49.0,0.0,30.0,10.0,0.0
9207,61.0,0.0,30.0,2.0,0.0
9208,49.0,0.0,30.0,3.0,0.0
9209,63.0,29.0,30.0,0.0,0.0
9210,51.0,0.0,30.0,5.0,0.0
9211,63.0,0.0,30.0,2.0,0.0
9212,63.0,0.0,30.0,1.0,0.0
9213,63.0,0.0,30.0,8.0,0.0
9214,51.0,0.0,30.0,7.0,0.0
9215,63.0,1.0,30.0,4.0,0.0
9216,51.0,0.0,30.0,10.0,0.0
9217,51.0,0.0,30.0,3.0,0.0
9218,63.0,0.0,30.0,6.0,0.0
9219,53.0,0.0,30.0,7.0,0.0
9220,65.0,0.0,30.0,8.0,0.0
9221,65.0,0.0,30.0,6.0,0.0
9222,65.0,0.0,30.0,2.0,0.0
9223,53.0,1.0,30.0,10.0,0.0
9224,53.0,0.0,30.0,3.0,0.0
9225,65.0,0.0,30.0,0.0,0.0
9226,65.0,0.0,30.0,4.0,0.0
9227,53.0,0.0,30.0,5.0,0.0
9228,65.0,29.0,30.0,1.0,0.0
9229,66.0,0.0,30.0,6.0,0.0
9230,66.0,59.0,30.0,1.0,0.0
9231,66.0,0.0,30.0,2.0,0.0
9232,66.0,0.0,30.0,0.0,0.0
9233,66.0,0.0,30.0,8.0,0.0
9234,54.0,0.0,30.0,7.0,0.0
9235,54.0,0.0,30.0,5.0,0.0
9236,54.0,1.0,30.0,3.0,0.0
9237,54.0,0.0,30.0,10.0,0.0
9238,66.0,0.0,30.0,4.0,0.0
9239,68.0,0.0,60.0,8.0,0.0
9240,56.0,0.0,60.0,7.0,0.0
9241,56.0,0.0,60.0,5.0,0.0
9242,56.0,0.0,60.0,10.0,0.0
9243,68.0,0.0,60.0,4.0,0.0
9244,68.0,0.0,60.0,1.0,0.0
9245,68.0,0.0,60.0,2.0,0.0
9246,68.0,0.0,60.0,6.0,0.0
9247,56.0,0.0,60.0,3.0,0.0
9248,68.0,60.0,60.0,0.0,0.0
9249,56.0,0.0,60.0,5.0,0.0
9250,68.0,0.0,60.0,6.0,0.0
9251,68.0,0.0,60.0,0.0,0.0
9252,68.0,0.0,60.0,2.0,0.0
9253,56.0,60.0,60.0,7.0,0.0
9254,68.0,0.0,60.0,1.0,0.0
9255,68.0,0.0,60.0,4.0,0.0
9256,56.0,0.0,60.0,3.0,0.0
9257,68.0,0.0,60.0,8.0,0.0
9258,56.0,0.0,60.0,10.0,0.0
9259,57.0,0.0,60.0,3.0,0.0
9260,69.0,0.0,60.0,6.0,0.0
9261,57.0,0.0,60.0,7.0,0.0
9262,69.0,0.0,60.0,0.0,0.0
9263,69.0,0.0,60.0,4.0,0.0
9264,69.0,60.0,60.0,2.0,0.0
9265,69.0,0.0,60.0,8.0,0.0
9266,69.0,0.0,60.0,1.0,0.0
9267,57.0,0.0,60.0,10.0,0.0
9268,57.0,0.0,60.0,5.0,0.0
9269,68.0,0.0,60.0,6.0,0.0
9270,56.0,0.0,60.0,7.0,0.0
9271,68.0,0.0,60.0,0.0,0.0
9272,68.0,0.0,60.0,4.0,0.0
9273,56.0,30.0,60.0,3.0,0.0
9274,56.0,0.0,60.0,10.0,0.0
9275,56.0,0.0,60.0,5.0,0.0
9276,68.0,0.0,60.0,1.0,0.0
9277,68.0,0.0,60.0,2.0,0.0
9278,68.0,0.0,60.0,8.0,0.0
9279,49.0,0.0,30.0,3.0,0.0
9280,61.0,0.0,30.0,1.0,0.0
9281,49.0,30.0,30.0,5.0,0.0
9282,61.0,0.0,30.0,0.0,0.0
9283,49.0,0.0,30.0,7.0,0.0
9284,61.0,0.0,30.0,6.0,0.0
9285,61.0,0.0,30.0,4.0,0.0
9286,49.0,0.0,30.0,10.0,0.0
9287,61.0,0.0,30.0,8.0,0.0
9288,61.0,0.0,30.0,2.0,0.0
9289,63.0,0.0,30.0,0.0,0.0
9290,63.0,30.0,30.0,1.0,0.0
9291,63.0,0.0,30.0,6.0,0.0
9292,51.0,0.0,30.0,10.0,0.0
9293,63.0,0.0,30.0,2.0,0.0
9294,63.0,0.0,30.0,8.0,0.0
9295,63.0,0.0,30.0,4.0,0.0
9296,51.0,0.0,30.0,5.0,0.0
9297,51.0,0.0,30.0,7.0,0.0
9298,51.0,0.0,30.0,3.0,0.0
9299,53.0,0.0,30.0,3.0,0.0
9300,65.0,0.0,30.0,6.0,0.0
9301,65.0,0.0,30.0,8.0,0.0
9302,65.0,0.0,30.0,0.0,0.0
9303,65.0,0.0,30.0,1.0,0.0
9304,53.0,0.0,30.0,5.0,0.0
9305,53.0,0.0,30.0,7.0,0.0
9306,65.0,0.0,30.0,2.0,0.0
9307,65.0,0.0,30.0,4.0,0.0
9308,53.0,30.0,30.0,10.0,0.0
9309,54.0,0.0,30.0,3.0,0.0
9310,66.0,0.0,30.0,0.0,0.0
9311,66.0,0.0,30.0,1.0,0.0
9312,66.0,0.0,30.0,6.0,0.0
9313,66.0,60.0,30.0,8.0,0.0
9314,54.0,0.0,30.0,5.0,0.0
9315,54.0,0.0,30.0,7.0,0.0
9316,54.0,0.0,30.0,10.0,0.0
9317,66.0,0.0,30.0,4.0,0.0
9318,66.0,0.0,30.0,2.0,0.0
9319,68.0,60.0,60.0,8.0,0.0
9320,68.0,0.0,60.0,0.0,0.0
9321,68.0,0.0,60.0,2.0,0.0
9322,56.0,0.0,60.0,10.0,0.0
9323,68.0,0.0,60.0,4.0,0.0
9324,56.0,0.0,60.0,3.0,0.0
9325,56.0,0.0,60.0,7.0,0.0
9326,56.0,0.0,60.0,5.0,0.0
9327,68.0,0.0,60.0,1.0,0.0
9328,68.0,0.0,60.0,6.0,0.0
9329,56.0,0.0,60.0,5.0,0.0
9330,68.0,0.0,60.0,2.0,0.0
9331,68.0,60.0,60.0,1.0,0.0
9332,68.0,0.0,60.0,4.0,0.0
9333,68.0,0.0,60.0,0.0,0.0
9334,68.0,0.0,60.0,6.0,0.0
9335,56.0,0.0,60.0,3.0,0.0
9336,56.0,0.0,60.0,7.0,0.0
9337,68.0,0.0,60.0,8.0,0.0
9338,56.0,0.0,60.0,10.0,0.0
9339,57.0,0.0,60.0,10.0,0.0
9340,57.0,0.0,60.0,5.0,0.0
9341,57.0,60.0,60.0,3.0,0.0
9342,69.0,0.0,60.0,4.0,0.0
9343,69.0,0.0,60.0,1.0,0.0
9344,69.0,0.0,60.0,6.0,0.0
9345,69.0,0.0,60.0,2.0,0.0
9346,57.0,0.0,60.0,7.0,0.0
9347,69.0,0.0,60.0,8.0,0.0
9348,69.0,0.0,60.0,0.0,0.0
9349,68.0,0.0,60.0,0.0,0.0
9350,68.0,0.0,60.0,8.0,0.0
9351,56.0,0.0,60.0,10.0,0.0
9352,56.0,0.0,60.0,5.0,0.0
9353,56.0,0.0,60.0,3.0,0.0
9354,68.0,0.0,60.0,6.0,0.0
9355,68.0,0.0,60.0,2.0,0.0
9356,68.0,0.0,60.0,1.0,0.0
9357,68.0,30.0,60.0,4.0,0.0
9358,56.0,0.0,60.0,7.0,0.0
9359,61.0,0.0,30.0,0.0,0.0
9360,61.0,0.0,30.0,2.0,0.0
9361,61.0,0.0,30.0,1.0,0.0
9362,49.0,0.0,30.0,10.0,0.0
9363,49.0,0.0,30.0,7.0,0.0
9364,61.0,0.0,30.0,6.0,0.0
9365,61.0,0.0,30.0,8.0,0.0
9366,61.0,0.0,30.0,4.0,0.0
9367,49.0,0.0,30.0,3.0,0.0
9368,49.0,30.0,30.0,5.0,0.0
9369,51.0,0.0,30.0,3.0,0.0
9370,63.0,0.0,30.0,2.0,0.0
9371,63.0,0.0,30.0,6.0,0.0
9372,63.0,0.0,30.0,4.0,0.0
9373,63.0,0.0,30.0,8.0,0.0
9374,51.0,0.0,30.0,5.0,0.0
9375,63.0,0.0,30.0,1.0,0.0
9376,63.0,0.0,30.0,0.0,0.0
9377,51.0,0.0,30.0,10.0,0.0
9378,51.0,30.0,30.0,7.0,0.0
9379,65.0,0.0,30.0,2.0,0.0
9380,65.0,0.0,30.0,4.0,0.0
9381,65.0,0.0,30.0,6.0,0.0
9382,53.0,0.0,30.0,10.0,0.0
9383,65.0,0.0,30.0,8.0,0.0
9384,53.0,0.0,30.0,3.0,0.0
9385,53.0,0.0,30.0,7.0,0.0
9386,53.0,0.0,30.0,5.0,0.0
9387,65.0,30.0,30.0,0.0,0.0
9388,65.0,0.0,30.0,1.0,0.0
9389,66.0,0.0,30.0,4.0,0.0
9390,66.0,0.0,30.0,1.0,0.0
9391,54.0,0.0,30.0,5.0,0.0
9392,66.0,0.0,30.0,2.0,0.0
9393,66.0,30.0,30.0,6.0,0.0
9394,66.0,0.0,30.0,8.0,0.0
9395,54.0,0.0,30.0,10.0,0.0
9396,66.0,0.0,30.0,0.0,0.0
9397,54.0,0.0,30.0,7.0,0.0
9398,54.0,0.0,30.0,3.0,0.0
9399,56.0,0.0,30.0,3.0,0.0
9400,68.0,0.0,30.0,2.0,0.0
9401,68.0,0.0,30.0,8.0,0.0
9402,68.0,0.0,30.0,1.0,0.0
9403,68.0,0.0,30.0,6.0,0.0
9404,56.0,0.0,30.0,7.0,0.0
9405,56.0,30.0,30.0,10.0,0.0
9406,56.0,0.0,30.0,5.0,0.0
9407,68.0,0.0,30.0,0.0,0.0
9408,68.0,0.0,30.0,4.0,0.0
9409,54.0,0.0,30.0,5.0,0.0
9410,66.0,0.0,30.0,1.0,0.0
9411,66.0,0.0,30.0,8.0,0.0
9412,54.0,0.0,30.0,3.0,0.0
9413,66.0,0.0,30.0,6.0,0.0
9414,66.0,0.0,30.0,4.0,0.0
9415,66.0,0.0,30.0,2.0,0.0
9416,54.0,0.0,30.0,10.0,0.0
9417,66.0,30.0,30.0,0.0,0.0
9418,54.0,0.0,30.0,7.0,0.0
9419,65.0,0.0,30.0,2.0,0.0
9420,65.0,0.0,30.0,6.0,0.0
9421,65.0,30.0,30.0,1.0,0.0
9422,53.0,0.0,30.0,7.0,0.0
9423,53.0,0.0,30.0,5.0,0.0
9424,53.0,0.0,30.0,3.0,0.0
9425,65.0,0.0,30.0,8.0,0.0
9426,65.0,0.0,30.0,0.0,0.0
9427,53.0,0.0,30.0,10.0,0.0
9428,65.0,0.0,30.0,4.0,0.0
9429,66.0,0.0,30.0,4.0,0.0
9430,54.0,0.0,30.0,7.0,0.0
9431,54.0,0.0,30.0,3.0,0.0
9432,66.0,0.0,30.0,2.0,0.0
9433,66.0,0.0,30.0,1.0,0.0
9434,66.0,0.0,30.0,8.0,0.0
9435,54.0,0.0,30.0,10.0,0.0
9436,66.0,0.0,30.0,0.0,0.0
9437,54.0,30.0,30.0,5.0,0.0
9438,66.0,0.0,30.0,6.0,0.0
9439,56.0,0.0,30.0,10.0,0.0
9440,56.0,0.0,30.0,7.0,0.0
9441,68.0,0.0,30.0,6.0,0.0
9442,68.0,30.0,30.0,1.0,0.0
9443,68.0,0.0,30.0,0.0,0.0
9444,56.0,0.0,30.0,5.0,0.0
9445,56.0,0.0,30.0,3.0,0.0
9446,68.0,0.0,30.0,8.0,0.0
9447,68.0,0.0,30.0,2.0,0.0
9448,68.0,0.0,30.0,4.0,0.0
9449,57.0,0.0,30.0,7.0,0.0
9450,69.0,0.0,30.0,2.0,0.0
9451,69.0,0.0,30.0,6.0,0.0
9452,69.0,0.0,30.0,0.0,0.0
9453,69.0,0.0,30.0,1.0,0.0
9454,69.0,0.0,30.0,8.0,0.0
9455,69.0,0.0,30.0,4.0,0.0
9456,57.0,30.0,30.0,10.0,0.0
9457,57.0,0.0,30.0,5.0,0.0
9458,57.0,0.0,30.0,3.0,0.0
9459,71.0,0.0,30.0,8.0,0.0
9460,71.0,0.0,30.0,1.0,0.0
9461,71.0,0.0,30.0,4.0,0.0
9462,59.0,0.0,30.0,10.0,0.0
9463,59.0,0.0,30.0,7.0,0.0
9464,59.0,0.0,30.0,5.0,0.0
9465,71.0,0.0,30.0,2.0,0.0
9466,71.0,30.0,30.0,6.0,0.0
9467,59.0,0.0,30.0,3.0,0.0
9468,71.0,0.0,30.0,0.0,0.0
9469,57.0,0.0,30.0,10.0,0.0
9470,57.0,0.0,30.0,3.0,0.0
9471,69.0,0.0,30.0,6.0,0.0
9472,69.0,0.0,30.0,8.0,0.0
9473,69.0,30.0,30.0,2.0,0.0
9474,69.0,0.0,30.0,4.0,0.0
9475,69.0,0.0,30.0,1.0,0.0
9476,57.0,0.0,30.0,7.0,0.0
9477,69.0,0.0,30.0,0.0,0.0
9478,57.0,0.0,30.0,5.0,0.0
9479,56.0,0.0,30.0,10.0,0.0
9480,56.0,0.0,30.0,7.0,0.0
9481,68.0,0.0,30.0,0.0,0.0
9482,68.0,0.0,30.0,6.0,0.0
9483,68.0,0.0,30.0,2.0,0.0
9484,56.0,0.0,30.0,5.0,0.0
9485,68.0,0.0,30.0,8.0,0.0
9486,68.0,0.0,30.0,4.0,0.0
9487,56.0,0.0,30.0,3.0,0.0
9488,68.0,30.0,30.0,1.0,0.0
9489,69.0,30.0,30.0,1.0,0.0
9490,57.0,0.0,30.0,5.0,0.0
9491,69.0,0.0,30.0,6.0,0.0
9492,69.0,0.0,30.0,4.0,0.0
9493,57.0,0.0,30.0,3.0,0.0
9494,69.0,0.0,30.0,8.0,0.0
9495,69.0,0.0,30.0,0.0,0.0
9496,57.0,0.0,30.0,10.0,0.0
9497,57.0,0.0,30.0,7.0,0.0
9498,69.0,0.0,30.0,2.0,0.0
9499,71.0,0.0,30.0,2.0,0.0
9500,71.0,0.0,30.0,1.0,0.0
9501,71.0,0.0,30.0,8.0,0.0
9502,71.0,0.0,30.0,6.0,0.0
9503,71.0,0.0,30.0,4.0,0.0
9504,59.0,0.0,30.0,7.0,0.0
9505,71.0,0.0,30.0,0.0,0.0
9506,59.0,0.0,30.0,5.0,0.0
9507,59.0,30.0,30.0,3.0,0.0
9508,59.0,0.0,30.0,10.0,0.0
9509,73.0,0.0,30.0,4.0,0.0
9510,73.0,0.0,30.0,8.0,0.0
9511,73.0,0.0,30.0,6.0,0.0
9512,61.0,30.0,30.0,10.0,0.0
9513,61.0,0.0,30.0,5.0,0.0
9514,73.0,0.0,30.0,2.0,0.0
9515,73.0,0.0,30.0,0.0,0.0
9516,61.0,0.0,30.0,7.0,0.0
9517,73.0,0.0,30.0,1.0,0.0
9518,61.0,0.0,30.0,3.0,0.0
9519,62.0,0.0,30.0,3.0,0.0
9520,74.0,30.0,30.0,4.0,0.0
9521,74.0,0.0,30.0,6.0,0.0
9522,74.0,0.0,30.0,2.0,0.0
9523,74.0,0.0,30.0,1.0,0.0
9524,74.0,0.0,30.0,8.0,0.0
9525,62.0,0.0,30.0,7.0,0.0
9526,62.0,0.0,30.0,10.0,0.0
9527,62.0,0.0,30.0,5.0,0.0
9528,74.0,0.0,30.0,0.0,0.0
9529,73.0,0.0,30.0,0.0,0.0
9530,61.0,0.0,30.0,5.0,0.0
9531,61.0,0.0,30.0,7.0,0.0
9532,73.0,30.0,30.0,8.0,0.0
9533,61.0,0.0,30.0,10.0,0.0
9534,73.0,0.0,30.0,1.0,0.0
9535,73.0,0.0,30.0,2.0,0.0
9536,61.0,0.0,30.0,3.0,0.0
9537,73.0,0.0,30.0,6.0,0.0
9538,73.0,0.0,30.0,4.0,0.0
9539,71.0,30.0,30.0,1.0,0.0
9540,71.0,0.0,30.0,0.0,0.0
9541,71.0,0.0,30.0,6.0,0.0
9542,59.0,0.0,30.0,3.0,0.0
9543,71.0,0.0,30.0,2.0,0.0
9544,71.0,0.0,30.0,8.0,0.0
9545,59.0,0.0,30.0,7.0,0.0
9546,71.0,0.0,30.0,4.0,0.0
9547,59.0,0.0,30.0,10.0,0.0
9548,59.0,0.0,30.0,5.0,0.0
9549,57.0,0.0,30.0,7.0,0.0
9550,69.0,0.0,30.0,6.0,0.0
9551,69.0,0.0,30.0,4.0,0.0
9552,69.0,0.0,30.0,8.0,0.0
9553,57.0,0.0,30.0,3.0,0.0
9554,69.0,0.0,30.0,0.0,0.0
9555,57.0,0.0,30.0,5.0,0.0
9556,69.0,0.0,30.0,2.0,0.0
9557,69.0,30.0,30.0,1.0,0.0
9558,57.0,0.0,30.0,10.0,0.0
9559,68.0,0.0,30.0,4.0,0.0
9560,56.0,0.0,30.0,5.0,0.0
9561,68.0,0.0,30.0,2.0,0.0
9562,68.0,0.0,30.0,0.0,0.0
9563,56.0,30.0,30.0,10.0,0.0
9564,56.0,0.0,30.0,3.0,0.0
9565,68.0,0.0,30.0,8.0,0.0
9566,56.0,0.0,30.0,7.0,0.0
9567,68.0,0.0,30.0,1.0,0.0
9568,68.0,0.0,30.0,6.0,0.0
9569,54.0,0.0,30.0,3.0,0.0
9570,66.0,0.0,30.0,4.0,0.0
9571,66.0,30.0,30.0,8.0,0.0
9572,66.0,0.0,30.0,6.0,0.0
9573,66.0,0.0,30.0,1.0,0.0
9574,54.0,0.0,30.0,10.0,0.0
9575,66.0,0.0,30.0,2.0,0.0
9576,54.0,0.0,30.0,5.0,0.0
9577,66.0,0.0,30.0,0.0,0.0
9578,54.0,0.0,30.0,7.0,0.0
9579,65.0,0.0,30.0,8.0,0.0
9580,65.0,0.0,30.0,6.0,0.0
9581,53.0,0.0,30.0,5.0,0.0
9582,65.0,0.0,30.0,1.0,0.0
9583,53.0,0.0,30.0,3.0,0.0
9584,65.0,0.0,30.0,4.0,0.0
9585,53.0,0.0,30.0,7.0,0.0
9586,65.0,0.0,30.0,0.0,0.0
9587,53.0,0.0,30.0,10.0,0.0
9588,65.0,30.0,30.0,2.0,0.0
9589,56.0,0.0,30.0,10.0,0.0
9590,68.0,0.0,30.0,2.0,0.0
9591,56.0,0.0,30.0,7.0,0.0
9592,56.0,0.0,30.0,5.0,0.0
9593,68.0,0.0,30.0,6.0,0.0
9594,68.0,30.0,30.0,1.0,0.0
9595,68.0,0.0,30.0,4.0,0.0
9596,68.0,0.0,30.0,0.0,0.0
9597,56.0,0.0,30.0,3.0,0.0
9598,68.0,0.0,30.0,8.0,0.0
9599,61.0,0.0,30.0,6.0,0.0
9600,61.0,0.0,30.0,2.0,0.0
9601,61.0,0.0,30.0,8.0,0.0
9602,49.0,0.0,30.0,5.0,0.0
9603,61.0,0.0,30.0,4.0,0.0
9604,49.0,0.0,30.0,7.0,0.0
9605,61.0,0.0,30.0,0.0,0.0
9606,61.0,0.0,30.0,1.0,0.0
9607,49.0,30.0,30.0,10.0,0.0
9608,49.0,0.0,30.0,3.0,0.0
9609,65.0,0.0,30.0,0.0,0.0
9610,53.0,0.0,30.0,7.0,0.0
9611,53.0,0.0,30.0,10.0,0.0
9612,65.0,0.0,30.0,8.0,0.0
9613,65.0,60.0,30.0,4.0,0.0
9614,65.0,0.0,30.0,1.0,0.0
9615,65.0,0.0,30.0,2.0,0.0
9616,53.0,0.0,30.0,3.0,0.0
9617,65.0,0.0,30.0,6.0,0.0
9618,53.0,0.0,30.0,5.0,0.0
9619,66.0,0.0,60.0,6.0,0.0
9620,66.0,0.0,60.0,4.0,0.0
9621,66.0,0.0,60.0,1.0,0.0
9622,54.0,0.0,60.0,7.0,0.0
9623,54.0,0.0,60.0,10.0,0.0
9624,54.0,60.0,60.0,5.0,0.0
9625,54.0,0.0,60.0,3.0,0.0
9626,66.0,0.0,60.0,8.0,0.0
9627,66.0,0.0,60.0,2.0,0.0
9628,66.0,0.0,60.0,0.0,0.0
9629,47.0,0.0,30.0,3.0,0.0
9630,47.0,0.0,30.0,7.0,0.0
9631,59.0,60.0,30.0,0.0,0.0
9632,59.0,0.0,30.0,8.0,0.0
9633,59.0,0.0,30.0,1.0,0.0
9634,59.0,0.0,30.0,6.0,0.0
9635,47.0,0.0,30.0,5.0,0.0
9636,59.0,0.0,30.0,4.0,0.0
9637,47.0,0.0,30.0,10.0,0.0
9638,59.0,0.0,30.0,2.0,0.0
9639,61.0,0.0,60.0,0.0,0.0
9640,49.0,0.0,60.0,5.0,0.0
9641,61.0,0.0,60.0,1.0,0.0
9642,49.0,0.0,60.0,3.0,0.0
9643,61.0,60.0,60.0,6.0,0.0
9644,49.0,0.0,60.0,10.0,0.0
9645,61.0,0.0,60.0,8.0,0.0
9646,61.0,0.0,60.0,4.0,0.0
9647,61.0,0.0,60.0,2.0,0.0
9648,49.0,0.0,60.0,7.0,0.0
9649,49.0,0.0,60.0,10.0,0.0
9650,49.0,180.0,60.0,3.0,0.0
9651,61.0,0.0,60.0,0.0,0.0
9652,61.0,0.0,60.0,2.0,0.0
9653,49.0,0.0,60.0,5.0,0.0
9654,61.0,0.0,60.0,8.0,0.0
9655,61.0,0.0,60.0,4.0,0.0
9656,49.0,0.0,60.0,7.0,0.0
9657,61.0,0.0,60.0,1.0,0.0
9658,61.0,0.0,60.0,6.0,0.0
9659,66.0,0.0,180.0,4.0,0.0
9660,66.0,0.0,180.0,8.0,0.0
9661,42.0,0.0,180.0,10.0,0.0
9662,54.0,0.0,180.0,10.0,0.0
9663,66.0,0.0,180.0,1.0,0.0
9664,66.0,0.0,180.0,6.0,0.0
9665,42.0,0.0,180.0,5.0,0.0
9666,42.0,0.0,180.0,3.0,0.0
9667,54.0,0.0,180.0,2.0,0.0
9668,66.0,0.0,180.0,0.0,0.0
9669,42.0,196.0,180.0,7.0,0.0
9670,54.0,0.0,180.0,7.0,0.0
9671,54.0,0.0,180.0,5.0,0.0
9672,61.0,0.0,60.0,10.0,0.0
9673,64.0,0.0,60.0,10.0,0.0
9674,57.0,0.0,60.0,10.0,0.0
9675,61.0,0.0,60.0,5.0,0.0
9676,81.0,0.0,15.0,6.0,0.0
9677,64.0,0.0,60.0,5.0,0.0
9678,57.0,0.0,60.0,5.0,0.0
9679,81.0,0.0,15.0,8.0,0.0
9680,57.0,0.0,60.0,7.0,0.0
9681,57.0,0.0,30.0,3.0,0.0
9682,64.0,16.0,60.0,7.0,0.0
9683,61.0,0.0,60.0,7.0,0.0
9684,81.0,1.0,90.0,0.0,0.0
9685,81.0,15.0,15.0,4.0,0.0
9686,80.0,29.0,15.0,8.0,0.0
9687,80.0,0.0,15.0,6.0,0.0
9688,80.0,0.0,15.0,4.0,0.0
9689,81.0,0.0,60.0,4.0,0.0
9690,81.0,14.0,60.0,6.0,0.0
9691,81.0,0.0,60.0,8.0,0.0
9692,69.0,29.0,30.0,2.0,0.0
9693,73.0,0.0,30.0,1.0,0.0
9694,57.0,0.0,30.0,3.0,0.0
9695,76.0,0.0,30.0,4.0,0.0
9696,76.0,0.0,30.0,0.0,0.0
9697,76.0,30.0,30.0,6.0,0.0
9698,76.0,0.0,30.0,8.0,0.0
9699,74.0,0.0,30.0,1.0,0.0
9700,76.0,1.0,30.0,6.0,0.0
9701,69.0,60.0,30.0,2.0,0.0
9702,76.0,0.0,30.0,0.0,0.0
9703,76.0,0.0,30.0,8.0,0.0
9704,76.0,0.0,30.0,4.0,0.0
9705,57.0,0.0,30.0,3.0,0.0
9706,78.0,0.0,90.0,0.0,0.0
9707,78.0,0.0,90.0,4.0,0.0
9708,78.0,0.0,90.0,8.0,0.0
9709,78.0,0.0,90.0,6.0,0.0
9710,59.0,0.0,60.0,7.0,0.0
9711,62.0,0.0,60.0,10.0,0.0
9712,59.0,0.0,60.0,10.0,0.0
9713,68.0,0.0,60.0,10.0,0.0
9714,62.0,0.0,60.0,5.0,0.0
9715,68.0,0.0,60.0,5.0,0.0
9716,62.0,11.0,60.0,7.0,0.0
9717,59.0,0.0,60.0,5.0,0.0
9718,68.0,0.0,60.0,7.0,0.0
9719,57.0,29.0,30.0,3.0,0.0
9720,68.0,0.0,30.0,2.0,0.0
9721,57.0,0.0,30.0,3.0,0.0
9722,76.0,0.0,15.0,6.0,0.0
9723,76.0,10.0,15.0,8.0,0.0
9724,76.0,1.0,30.0,0.0,0.0
9725,71.0,0.0,30.0,1.0,0.0
9726,76.0,0.0,15.0,4.0,0.0
9727,78.0,0.0,15.0,8.0,0.0
9728,78.0,0.0,15.0,6.0,0.0
9729,78.0,9.0,15.0,4.0,0.0
9730,76.0,0.0,15.0,6.0,0.0
9731,76.0,0.0,15.0,8.0,0.0
9732,76.0,29.0,15.0,4.0,0.0
9733,74.0,0.0,30.0,6.0,0.0
9734,74.0,30.0,30.0,0.0,0.0
9735,74.0,0.0,30.0,4.0,0.0
9736,74.0,0.0,30.0,8.0,0.0
9737,68.0,0.0,30.0,1.0,0.0
9738,73.0,0.0,30.0,6.0,0.0
9739,64.0,0.0,30.0,2.0,0.0
9740,57.0,29.0,30.0,3.0,0.0
9741,73.0,0.0,30.0,0.0,0.0
9742,73.0,0.0,30.0,8.0,0.0
9743,73.0,1.0,30.0,4.0,0.0
9744,74.0,0.0,30.0,6.0,0.0
9745,74.0,0.0,30.0,8.0,0.0
9746,74.0,30.0,30.0,4.0,0.0
9747,74.0,0.0,30.0,0.0,0.0
9748,69.0,30.0,60.0,7.0,0.0
9749,57.0,0.0,60.0,10.0,0.0
9750,74.0,0.0,30.0,4.0,0.0
9751,64.0,0.0,60.0,10.0,0.0
9752,69.0,0.0,60.0,10.0,0.0
9753,57.0,8.0,30.0,3.0,0.0
9754,74.0,1.0,30.0,0.0,0.0
9755,74.0,0.0,30.0,8.0,0.0
9756,74.0,0.0,30.0,6.0,0.0
9757,69.0,0.0,60.0,5.0,0.0
9758,57.0,0.0,60.0,7.0,0.0
9759,57.0,0.0,60.0,5.0,0.0
9760,64.0,0.0,60.0,5.0,0.0
9761,64.0,0.0,60.0,7.0,0.0
9762,73.0,1.0,60.0,0.0,0.0
9763,73.0,0.0,15.0,8.0,0.0
9764,73.0,7.0,15.0,4.0,0.0
9765,73.0,0.0,15.0,6.0,0.0
9766,74.0,14.0,15.0,6.0,0.0
9767,74.0,0.0,15.0,8.0,0.0
9768,74.0,0.0,15.0,4.0,0.0
9769,73.0,0.0,60.0,6.0,0.0
9770,73.0,0.0,60.0,8.0,0.0
9771,73.0,29.0,60.0,4.0,0.0
9772,64.0,0.0,30.0,2.0,0.0
9773,69.0,0.0,30.0,1.0,0.0
9774,57.0,0.0,30.0,3.0,0.0
9775,74.0,0.0,30.0,6.0,0.0
9776,74.0,31.0,30.0,8.0,0.0
9777,74.0,0.0,30.0,0.0,0.0
9778,74.0,0.0,30.0,4.0,0.0
9779,76.0,0.0,60.0,8.0,0.0
9780,73.0,29.0,30.0,1.0,0.0
9781,76.0,0.0,60.0,6.0,0.0
9782,76.0,0.0,60.0,0.0,0.0
9783,69.0,0.0,30.0,2.0,0.0
9784,57.0,0.0,30.0,3.0,0.0
9785,76.0,30.0,60.0,4.0,0.0
9786,57.0,0.0,60.0,10.0,0.0
9787,64.0,30.0,60.0,7.0,0.0
9788,69.0,0.0,30.0,0.0,0.0
9789,69.0,0.0,30.0,6.0,0.0
9790,69.0,0.0,30.0,4.0,0.0
9791,64.0,0.0,60.0,10.0,0.0
9792,64.0,0.0,60.0,5.0,0.0
9793,61.0,0.0,60.0,5.0,0.0
9794,57.0,0.0,60.0,7.0,0.0
9795,57.0,0.0,60.0,5.0,0.0
9796,57.0,29.0,30.0,3.0,0.0
9797,61.0,0.0,60.0,7.0,0.0
9798,69.0,1.0,30.0,8.0,0.0
9799,61.0,0.0,60.0,10.0,0.0
9800,73.0,1.0,30.0,4.0,0.0
9801,73.0,0.0,30.0,6.0,0.0
9802,73.0,0.0,30.0,8.0,0.0
9803,76.0,0.0,30.0,1.0,0.0
9804,73.0,0.0,30.0,0.0,0.0
9805,57.0,0.0,30.0,3.0,0.0
9806,69.0,59.0,30.0,2.0,0.0
9807,76.0,0.0,30.0,6.0,0.0
9808,73.0,38.0,30.0,2.0,0.0
9809,76.0,0.0,30.0,8.0,0.0
9810,76.0,0.0,30.0,4.0,0.0
9811,57.0,0.0,30.0,3.0,0.0
9812,81.0,0.0,30.0,1.0,0.0
9813,76.0,1.0,30.0,0.0,0.0
9814,57.0,30.0,60.0,5.0,0.0
9815,66.0,0.0,60.0,5.0,0.0
9816,63.0,0.0,60.0,5.0,0.0
9817,57.0,29.0,30.0,3.0,0.0
9818,83.0,0.0,15.0,6.0,0.0
9819,66.0,0.0,60.0,7.0,0.0
9820,63.0,0.0,60.0,7.0,0.0
9821,57.0,0.0,60.0,7.0,0.0
9822,57.0,0.0,60.0,10.0,0.0
9823,83.0,1.0,90.0,0.0,0.0
9824,66.0,0.0,60.0,10.0,0.0
9825,63.0,0.0,60.0,10.0,0.0
9826,83.0,7.0,15.0,4.0,0.0
9827,83.0,0.0,15.0,8.0,0.0
9828,81.0,0.0,15.0,8.0,0.0
9829,81.0,0.0,15.0,6.0,0.0
9830,81.0,15.0,15.0,4.0,0.0
9831,83.0,0.0,60.0,4.0,0.0
9832,83.0,0.0,60.0,6.0,0.0
9833,83.0,0.0,60.0,8.0,0.0
9834,66.0,29.0,30.0,2.0,0.0
9835,57.0,0.0,30.0,3.0,0.0
9836,75.0,0.0,30.0,1.0,0.0
9837,78.0,0.0,30.0,6.0,0.0
9838,78.0,0.0,30.0,0.0,0.0
9839,78.0,0.0,30.0,4.0,0.0
9840,78.0,30.0,30.0,8.0,0.0
9841,64.0,0.0,30.0,2.0,0.0
9842,78.0,0.0,30.0,6.0,0.0
9843,57.0,60.0,30.0,3.0,0.0
9844,78.0,0.0,30.0,8.0,0.0
9845,78.0,0.0,30.0,0.0,0.0
9846,76.0,0.0,30.0,1.0,0.0
9847,78.0,1.0,30.0,4.0,0.0
9848,79.0,0.0,90.0,8.0,0.0
9849,79.0,0.0,90.0,0.0,0.0
9850,79.0,0.0,90.0,6.0,0.0
9851,79.0,0.0,90.0,4.0,0.0
9852,64.0,0.0,60.0,7.0,0.0
9853,58.0,0.0,60.0,5.0,0.0
9854,61.0,30.0,60.0,7.0,0.0
9855,58.0,29.0,30.0,3.0,0.0
9856,61.0,0.0,60.0,5.0,0.0
9857,64.0,0.0,60.0,10.0,0.0
9858,61.0,0.0,60.0,10.0,0.0
9859,58.0,0.0,60.0,10.0,0.0
9860,64.0,0.0,60.0,5.0,0.0
9861,58.0,0.0,60.0,7.0,0.0
9862,78.0,0.0,30.0,4.0,0.0
9863,78.0,0.0,30.0,0.0,0.0
9864,78.0,0.0,30.0,6.0,0.0
9865,73.0,0.0,30.0,1.0,0.0
9866,78.0,1.0,30.0,8.0,0.0
9867,58.0,0.0,30.0,3.0,0.0
9868,66.0,29.0,30.0,2.0,0.0
9869,76.0,0.0,30.0,6.0,0.0
9870,76.0,0.0,30.0,4.0,0.0
9871,76.0,0.0,30.0,0.0,0.0
9872,76.0,30.0,30.0,8.0,0.0
9873,75.0,0.0,30.0,6.0,0.0
9874,75.0,0.0,30.0,4.0,0.0
9875,73.0,0.0,30.0,1.0,0.0
9876,75.0,0.0,30.0,8.0,0.0
9877,66.0,0.0,30.0,2.0,0.0
9878,75.0,1.0,30.0,0.0,0.0
9879,58.0,29.0,30.0,3.0,0.0
9880,76.0,0.0,30.0,6.0,0.0
9881,76.0,0.0,30.0,8.0,0.0
9882,76.0,30.0,30.0,0.0,0.0
9883,76.0,0.0,30.0,4.0,0.0
9884,59.0,8.0,30.0,3.0,0.0
9885,66.0,0.0,60.0,7.0,0.0
9886,59.0,0.0,60.0,7.0,0.0
9887,59.0,30.0,60.0,10.0,0.0
9888,76.0,0.0,30.0,4.0,0.0
9889,66.0,0.0,60.0,10.0,0.0
9890,66.0,0.0,60.0,5.0,0.0
9891,59.0,0.0,60.0,5.0,0.0
9892,76.0,1.0,30.0,8.0,0.0
9893,71.0,0.0,60.0,5.0,0.0
9894,71.0,0.0,60.0,10.0,0.0
9895,71.0,0.0,60.0,7.0,0.0
9896,76.0,0.0,30.0,6.0,0.0
9897,76.0,0.0,30.0,0.0,0.0
9898,75.0,0.0,15.0,8.0,0.0
9899,75.0,0.0,15.0,6.0,0.0
9900,75.0,1.0,60.0,0.0,0.0
9901,75.0,7.0,15.0,4.0,0.0
9902,76.0,0.0,15.0,6.0,0.0
9903,76.0,14.0,15.0,4.0,0.0
9904,76.0,0.0,15.0,8.0,0.0
9905,75.0,0.0,60.0,4.0,0.0
9906,75.0,0.0,60.0,8.0,0.0
9907,75.0,29.0,60.0,6.0,0.0
9908,66.0,0.0,30.0,2.0,0.0
9909,71.0,0.0,30.0,1.0,0.0
9910,59.0,0.0,30.0,3.0,0.0
9911,76.0,0.0,30.0,6.0,0.0
9912,76.0,0.0,30.0,0.0,0.0
9913,76.0,31.0,30.0,4.0,0.0
9914,76.0,0.0,30.0,8.0,0.0
9915,59.0,0.0,30.0,3.0,0.0
9916,78.0,30.0,60.0,8.0,0.0
9917,71.0,0.0,30.0,2.0,0.0
9918,78.0,0.0,60.0,0.0,0.0
9919,75.0,29.0,30.0,1.0,0.0
9920,78.0,0.0,60.0,4.0,0.0
9921,78.0,0.0,60.0,6.0,0.0
9922,66.0,0.0,60.0,7.0,0.0
9923,59.0,29.0,30.0,3.0,0.0
9924,71.0,0.0,30.0,6.0,0.0
9925,71.0,1.0,30.0,8.0,0.0
9926,63.0,30.0,60.0,5.0,0.0
9927,59.0,0.0,60.0,5.0,0.0
9928,59.0,0.0,60.0,10.0,0.0
9929,63.0,0.0,60.0,10.0,0.0
9930,71.0,0.0,30.0,0.0,0.0
9931,71.0,0.0,30.0,4.0,0.0
9932,59.0,0.0,60.0,7.0,0.0
9933,66.0,0.0,60.0,10.0,0.0
9934,66.0,0.0,60.0,5.0,0.0
9935,63.0,0.0,60.0,7.0,0.0
9936,75.0,0.0,30.0,6.0,0.0
9937,78.0,0.0,30.0,1.0,0.0
9938,71.0,0.0,30.0,2.0,0.0
9939,75.0,0.0,30.0,8.0,0.0
9940,59.0,59.0,30.0,3.0,0.0
9941,75.0,0.0,30.0,4.0,0.0
9942,75.0,1.0,30.0,0.0,0.0
9943,78.0,0.0,30.0,6.0,0.0
9944,78.0,1.0,30.0,4.0,0.0
9945,59.0,0.0,30.0,3.0,0.0
9946,83.0,59.0,30.0,1.0,0.0
9947,78.0,0.0,30.0,8.0,0.0
9948,78.0,0.0,30.0,0.0,0.0
9949,75.0,0.0,30.0,2.0,0.0
9950,60.0,0.0,60.0,7.0,0.0
9951,87.0,0.0,30.0,6.0,0.0
9952,63.0,0.0,60.0,10.0,0.0
9953,87.0,1.0,30.0,8.0,0.0
9954,66.0,0.0,60.0,10.0,0.0
9955,60.0,29.0,30.0,3.0,0.0
9956,87.0,0.0,30.0,0.0,0.0
9957,63.0,0.0,60.0,7.0,0.0
9958,66.0,0.0,60.0,7.0,0.0
9959,66.0,0.0,60.0,5.0,0.0
9960,63.0,0.0,60.0,5.0,0.0
9961,60.0,30.0,60.0,5.0,0.0
9962,87.0,0.0,30.0,4.0,0.0
9963,60.0,0.0,60.0,10.0,0.0
9964,88.0,0.0,30.0,4.0,0.0
9965,88.0,0.0,30.0,0.0,0.0
9966,88.0,0.0,30.0,8.0,0.0
9967,88.0,0.0,30.0,6.0,0.0
9968,90.0,0.0,30.0,6.0,0.0
9969,90.0,1.0,30.0,8.0,0.0
9970,90.0,0.0,30.0,0.0,0.0
9971,90.0,0.0,30.0,4.0,0.0
9972,60.0,29.0,30.0,3.0,0.0
9973,80.0,0.0,30.0,1.0,0.0
9974,75.0,0.0,30.0,2.0,0.0
9975,80.0,0.0,30.0,8.0,0.0
9976,80.0,0.0,30.0,4.0,0.0
9977,80.0,0.0,30.0,6.0,0.0
9978,80.0,30.0,30.0,0.0,0.0
9979,63.0,0.0,30.0,2.0,0.0
9980,60.0,60.0,30.0,3.0,0.0
9981,80.0,0.0,30.0,4.0,0.0
9982,80.0,0.0,30.0,8.0,0.0
9983,80.0,1.0,30.0,6.0,0.0
9984,78.0,0.0,30.0,1.0,0.0
9985,80.0,0.0,30.0,0.0,0.0
9986,81.0,0.0,90.0,0.0,0.0
9987,81.0,0.0,90.0,8.0,0.0
9988,81.0,0.0,90.0,6.0,0.0
9989,81.0,0.0,90.0,4.0,0.0
9990,64.0,0.0,60.0,5.0,0.0
9991,61.0,0.0,60.0,7.0,0.0
9992,64.0,0.0,60.0,7.0,0.0
9993,73.0,0.0,60.0,7.0,0.0
9994,73.0,9.0,60.0,5.0,0.0
9995,73.0,0.0,60.0,10.0,0.0
9996,61.0,0.0,60.0,10.0,0.0
9997,64.0,0.0,60.0,10.0,0.0
9998,61.0,29.0,30.0,3.0,0.0
9999,61.0,0.0,60.0,5.0,0.0
10000,80.0,1.0,30.0,0.0,0.0
10001,80.0,0.0,15.0,4.0,0.0
10002,80.0,7.0,15.0,6.0,0.0
10003,80.0,0.0,15.0,8.0,0.0
10004,61.0,0.0,30.0,3.0,0.0
10005,68.0,0.0,30.0,2.0,0.0
10006,76.0,29.0,30.0,1.0,0.0
10007,81.0,14.0,15.0,8.0,0.0
10008,81.0,0.0,15.0,4.0,0.0
10009,81.0,0.0,15.0,6.0,0.0
10010,80.0,0.0,15.0,4.0,0.0
10011,80.0,0.0,15.0,8.0,0.0
10012,80.0,0.0,15.0,6.0,0.0
10013,78.0,0.0,30.0,4.0,0.0
10014,78.0,0.0,30.0,8.0,0.0
10015,78.0,0.0,30.0,0.0,0.0
10016,78.0,30.0,30.0,6.0,0.0
10017,80.0,0.0,30.0,8.0,0.0
10018,80.0,0.0,30.0,6.0,0.0
10019,76.0,29.0,30.0,1.0,0.0
10020,61.0,0.0,30.0,3.0,0.0
10021,80.0,1.0,30.0,0.0,0.0
10022,80.0,0.0,30.0,4.0,0.0
10023,73.0,0.0,30.0,2.0,0.0
10024,81.0,0.0,30.0,6.0,0.0
10025,81.0,0.0,30.0,4.0,0.0
10026,81.0,30.0,30.0,0.0,0.0
10027,81.0,0.0,30.0,8.0,0.0
10028,56.0,30.0,60.0,5.0,0.0
10029,59.0,0.0,60.0,5.0,0.0
10030,83.0,0.0,30.0,0.0,0.0
10031,83.0,0.0,30.0,8.0,0.0
10032,64.0,0.0,60.0,5.0,0.0
10033,83.0,0.0,30.0,4.0,0.0
10034,56.0,0.0,60.0,10.0,0.0
10035,59.0,0.0,60.0,10.0,0.0
10036,64.0,0.0,60.0,10.0,0.0
10037,56.0,0.0,60.0,7.0,0.0
10038,64.0,0.0,60.0,7.0,0.0
10039,59.0,0.0,60.0,7.0,0.0
10040,56.0,29.0,30.0,3.0,0.0
10041,83.0,1.0,30.0,6.0,0.0
10042,75.0,0.0,30.0,4.0,0.0
10043,75.0,0.0,30.0,6.0,0.0
10044,75.0,0.0,30.0,0.0,0.0
10045,75.0,0.0,30.0,8.0,0.0
10046,71.0,0.0,30.0,1.0,0.0
10047,76.0,0.0,30.0,0.0,0.0
10048,56.0,0.0,30.0,3.0,0.0
10049,76.0,0.0,30.0,8.0,0.0
10050,76.0,1.0,30.0,6.0,0.0
10051,64.0,29.0,30.0,2.0,0.0
10052,76.0,0.0,30.0,4.0,0.0
10053,71.0,31.0,30.0,8.0,0.0
10054,71.0,0.0,30.0,6.0,0.0
10055,71.0,0.0,30.0,0.0,0.0
10056,71.0,0.0,30.0,4.0,0.0
10057,74.0,0.0,120.0,6.0,0.0
10058,74.0,0.0,120.0,0.0,0.0
10059,56.0,0.0,30.0,3.0,0.0
10060,74.0,0.0,120.0,8.0,0.0
10061,74.0,0.0,120.0,4.0,0.0
10062,64.0,0.0,30.0,2.0,0.0
10063,71.0,60.0,30.0,1.0,0.0
10064,64.0,30.0,60.0,10.0,0.0
10065,58.0,0.0,60.0,5.0,0.0
10066,58.0,0.0,60.0,10.0,0.0
10067,67.0,0.0,60.0,5.0,0.0
10068,67.0,0.0,60.0,10.0,0.0
10069,64.0,0.0,60.0,5.0,0.0
10070,64.0,0.0,60.0,7.0,0.0
10071,67.0,0.0,60.0,7.0,0.0
10072,58.0,29.0,30.0,3.0,0.0
10073,58.0,0.0,60.0,7.0,0.0
10074,58.0,0.0,30.0,3.0,0.0
10075,73.0,0.0,30.0,8.0,0.0
10076,73.0,0.0,30.0,4.0,0.0
10077,73.0,0.0,30.0,6.0,0.0
10078,73.0,1.0,30.0,0.0,0.0
10079,67.0,29.0,30.0,2.0,0.0
10080,76.0,0.0,30.0,1.0,0.0
10081,75.0,0.0,30.0,0.0,0.0
10082,75.0,0.0,30.0,4.0,0.0
10083,75.0,30.0,30.0,8.0,0.0
10084,75.0,0.0,30.0,6.0,0.0
10085,73.0,0.0,30.0,1.0,0.0
10086,76.0,1.0,30.0,8.0,0.0
10087,67.0,0.0,30.0,2.0,0.0
10088,76.0,0.0,30.0,4.0,0.0
10089,76.0,0.0,30.0,0.0,0.0
10090,76.0,0.0,30.0,6.0,0.0
10091,58.0,29.0,30.0,3.0,0.0
10092,78.0,0.0,30.0,6.0,0.0
10093,78.0,0.0,30.0,0.0,0.0
10094,78.0,0.0,30.0,8.0,0.0
10095,78.0,30.0,30.0,4.0,0.0
10096,59.0,29.0,30.0,3.0,0.0
10097,67.0,0.0,60.0,7.0,0.0
10098,78.0,0.0,30.0,6.0,0.0
10099,78.0,0.0,30.0,4.0,0.0
10100,59.0,0.0,60.0,10.0,0.0
10101,59.0,0.0,60.0,7.0,0.0
10102,78.0,1.0,30.0,0.0,0.0
10103,64.0,30.0,60.0,10.0,0.0
10104,67.0,0.0,60.0,10.0,0.0
10105,67.0,0.0,60.0,5.0,0.0
10106,64.0,0.0,60.0,5.0,0.0
10107,59.0,0.0,60.0,5.0,0.0
10108,78.0,0.0,30.0,8.0,0.0
10109,64.0,0.0,60.0,7.0,0.0
10110,79.0,0.0,60.0,8.0,0.0
10111,79.0,0.0,60.0,0.0,0.0
10112,79.0,0.0,60.0,6.0,0.0
10113,79.0,1.0,60.0,4.0,0.0
10114,59.0,29.0,30.0,3.0,0.0
10115,75.0,0.0,30.0,1.0,0.0
10116,66.0,0.0,30.0,2.0,0.0
10117,84.0,31.0,30.0,4.0,0.0
10118,84.0,0.0,30.0,8.0,0.0
10119,84.0,0.0,30.0,6.0,0.0
10120,84.0,0.0,30.0,0.0,0.0
10121,83.0,0.0,120.0,6.0,0.0
10122,59.0,60.0,30.0,3.0,0.0
10123,76.0,0.0,30.0,1.0,0.0
10124,83.0,0.0,120.0,0.0,0.0
10125,83.0,0.0,120.0,4.0,0.0
10126,67.0,0.0,30.0,2.0,0.0
10127,83.0,0.0,120.0,8.0,0.0
10128,66.0,0.0,60.0,5.0,0.0
10129,59.0,0.0,60.0,5.0,0.0
10130,69.0,0.0,60.0,5.0,0.0
10131,59.0,0.0,60.0,10.0,0.0
10132,66.0,0.0,60.0,10.0,0.0
10133,47.0,29.0,30.0,3.0,0.0
10134,59.0,30.0,60.0,7.0,0.0
10135,66.0,0.0,60.0,7.0,0.0
10136,69.0,0.0,60.0,7.0,0.0
10137,69.0,0.0,60.0,10.0,0.0
10138,76.0,0.0,30.0,0.0,0.0
10139,76.0,0.0,30.0,6.0,0.0
10140,47.0,0.0,30.0,3.0,0.0
10141,66.0,0.0,30.0,2.0,0.0
10142,71.0,59.0,30.0,1.0,0.0
10143,76.0,1.0,30.0,8.0,0.0
10144,76.0,0.0,30.0,4.0,0.0
10145,75.0,0.0,60.0,4.0,0.0
10146,75.0,0.0,60.0,6.0,0.0
10147,75.0,0.0,60.0,8.0,0.0
10148,75.0,1.0,60.0,0.0,0.0
10149,47.0,0.0,30.0,3.0,0.0
10150,66.0,0.0,30.0,2.0,0.0
10151,69.0,29.0,30.0,1.0,0.0
10152,76.0,31.0,30.0,0.0,0.0
10153,76.0,0.0,30.0,8.0,0.0
10154,76.0,0.0,30.0,4.0,0.0
10155,76.0,0.0,30.0,6.0,0.0
10156,76.0,0.0,90.0,4.0,0.0
10157,68.0,0.0,60.0,5.0,0.0
10158,64.0,0.0,60.0,5.0,0.0
10159,68.0,0.0,60.0,7.0,0.0
10160,64.0,0.0,60.0,7.0,0.0
10161,64.0,0.0,60.0,10.0,0.0
10162,68.0,30.0,60.0,10.0,0.0
10163,76.0,0.0,90.0,0.0,0.0
10164,52.0,14.0,120.0,3.0,0.0
10165,68.0,0.0,30.0,1.0,0.0
10166,64.0,29.0,30.0,2.0,0.0
10167,76.0,0.0,90.0,8.0,0.0
10168,76.0,1.0,90.0,6.0,0.0
10169,59.0,15.0,30.0,2.0,0.0
10170,64.0,0.0,30.0,1.0,0.0
10171,68.0,0.0,30.0,6.0,0.0
10172,68.0,0.0,30.0,8.0,0.0
10173,68.0,31.0,30.0,0.0,0.0
10174,68.0,0.0,30.0,4.0,0.0
10175,57.0,29.0,30.0,2.0,0.0
10176,71.0,0.0,60.0,6.0,0.0
10177,71.0,46.0,60.0,8.0,0.0
10178,71.0,0.0,60.0,0.0,0.0
10179,71.0,0.0,60.0,4.0,0.0
10180,63.0,0.0,30.0,1.0,0.0
10181,64.0,0.0,120.0,8.0,0.0
10182,64.0,0.0,120.0,6.0,0.0
10183,59.0,16.0,120.0,1.0,0.0
10184,64.0,0.0,120.0,0.0,0.0
10185,56.0,15.0,60.0,2.0,0.0
10186,64.0,0.0,120.0,4.0,0.0
10187,54.0,14.0,15.0,3.0,0.0
10188,66.0,0.0,30.0,10.0,0.0
10189,66.0,1.0,30.0,7.0,0.0
10190,66.0,0.0,30.0,5.0,0.0
10191,52.0,14.0,15.0,3.0,0.0
10192,64.0,0.0,30.0,10.0,0.0
10193,64.0,16.0,30.0,7.0,0.0
10194,64.0,0.0,30.0,5.0,0.0
10195,62.0,0.0,30.0,5.0,0.0
10196,62.0,0.0,30.0,7.0,0.0
10197,62.0,0.0,30.0,10.0,0.0
10198,50.0,14.0,15.0,3.0,0.0
10199,61.0,0.0,30.0,5.0,0.0
10200,61.0,0.0,30.0,7.0,0.0
10201,61.0,16.0,30.0,10.0,0.0
10202,49.0,14.0,15.0,3.0,0.0
10203,47.0,14.0,15.0,3.0,0.0
10204,59.0,0.0,30.0,5.0,0.0
10205,59.0,0.0,30.0,7.0,0.0
10206,59.0,30.0,30.0,10.0,0.0
10207,57.0,0.0,30.0,7.0,0.0
10208,81.0,1.0,30.0,4.0,0.0
10209,57.0,0.0,60.0,5.0,0.0
10210,73.0,29.0,30.0,8.0,0.0
10211,45.0,29.0,60.0,3.0,0.0
10212,76.0,0.0,30.0,8.0,0.0
10213,57.0,0.0,30.0,10.0,0.0
10214,80.0,1.0,30.0,4.0,0.0
10215,81.0,1.0,30.0,4.0,0.0
10216,73.0,0.0,30.0,6.0,0.0
10217,76.0,29.0,30.0,6.0,0.0
10218,57.0,30.0,60.0,5.0,0.0
10219,45.0,0.0,30.0,7.0,0.0
10220,76.0,0.0,30.0,4.0,0.0
10221,71.0,0.0,30.0,6.0,0.0
10222,71.0,0.0,30.0,8.0,0.0
10223,74.0,0.0,30.0,8.0,0.0
10224,57.0,0.0,60.0,5.0,0.0
10225,74.0,0.0,30.0,6.0,0.0
10226,57.0,29.0,30.0,10.0,0.0
10227,78.0,1.0,30.0,4.0,0.0
10228,80.0,30.0,30.0,4.0,0.0
10229,45.0,0.0,30.0,10.0,0.0
10230,64.0,0.0,30.0,8.0,0.0
10231,81.0,1.0,30.0,4.0,0.0
10232,73.0,0.0,30.0,8.0,0.0
10233,57.0,0.0,60.0,5.0,0.0
10234,57.0,29.0,30.0,7.0,0.0
10235,78.0,30.0,30.0,4.0,0.0
10236,57.0,0.0,60.0,5.0,0.0
10237,76.0,1.0,30.0,4.0,0.0
10238,76.0,0.0,30.0,6.0,0.0
10239,73.0,0.0,30.0,6.0,0.0
10240,45.0,29.0,30.0,7.0,0.0
10241,74.0,30.0,30.0,4.0,0.0
10242,80.0,0.0,30.0,6.0,0.0
10243,71.0,0.0,30.0,6.0,0.0
10244,57.0,0.0,30.0,10.0,0.0
10245,57.0,30.0,60.0,5.0,0.0
10246,71.0,0.0,30.0,8.0,0.0
10247,73.0,1.0,30.0,4.0,0.0
10248,80.0,29.0,30.0,8.0,0.0
10249,74.0,0.0,30.0,4.0,0.0
10250,81.0,0.0,30.0,8.0,0.0
10251,57.0,1.0,60.0,5.0,0.0
10252,45.0,29.0,60.0,3.0,0.0
10253,45.0,29.0,30.0,10.0,0.0
10254,57.0,0.0,30.0,7.0,0.0
10255,73.0,1.0,30.0,4.0,0.0
10256,76.0,0.0,30.0,8.0,0.0
10257,74.0,0.0,30.0,4.0,0.0
10258,45.0,0.0,30.0,7.0,0.0
10259,81.0,29.0,30.0,6.0,0.0
10260,73.0,0.0,30.0,6.0,0.0
10261,76.0,1.0,30.0,4.0,0.0
10262,57.0,0.0,60.0,5.0,0.0
10263,81.0,30.0,30.0,4.0,0.0
10264,57.0,0.0,60.0,5.0,0.0
10265,69.0,0.0,30.0,8.0,0.0
10266,57.0,0.0,30.0,10.0,0.0
10267,73.0,1.0,30.0,4.0,0.0
10268,76.0,0.0,30.0,6.0,0.0
10269,69.0,29.0,30.0,6.0,0.0
10270,76.0,0.0,30.0,8.0,0.0
10271,71.0,30.0,30.0,4.0,0.0
10272,64.0,0.0,30.0,8.0,0.0
10273,57.0,0.0,60.0,5.0,0.0
10274,45.0,0.0,30.0,10.0,0.0
10275,73.0,29.0,30.0,8.0,0.0
10276,69.0,1.0,30.0,4.0,0.0
10277,57.0,0.0,30.0,7.0,0.0
10278,71.0,30.0,30.0,4.0,0.0
10279,76.0,0.0,30.0,6.0,0.0
10280,69.0,29.0,30.0,6.0,0.0
10281,73.0,1.0,30.0,4.0,0.0
10282,57.0,0.0,60.0,5.0,0.0
10283,45.0,0.0,30.0,7.0,0.0
10284,74.0,30.0,30.0,4.0,0.0
10285,76.0,1.0,30.0,4.0,0.0
10286,57.0,29.0,30.0,10.0,0.0
10287,64.0,0.0,30.0,6.0,0.0
10288,69.0,0.0,30.0,8.0,0.0
10289,57.0,30.0,60.0,5.0,0.0
10290,73.0,0.0,30.0,6.0,0.0
10291,73.0,0.0,30.0,8.0,0.0
10292,78.0,0.0,30.0,4.0,0.0
10293,45.0,0.0,30.0,10.0,0.0
10294,75.0,0.0,30.0,8.0,0.0
10295,57.0,29.0,30.0,7.0,0.0
10296,66.0,0.0,30.0,8.0,0.0
10297,83.0,1.0,30.0,4.0,0.0
10298,57.0,0.0,60.0,5.0,0.0
10299,45.0,29.0,60.0,3.0,0.0
10300,81.0,1.0,30.0,4.0,0.0
10301,83.0,1.0,30.0,4.0,0.0
10302,45.0,0.0,30.0,7.0,0.0
10303,78.0,0.0,30.0,6.0,0.0
10304,75.0,29.0,30.0,6.0,0.0
10305,57.0,0.0,60.0,5.0,0.0
10306,75.0,30.0,30.0,4.0,0.0
10307,76.0,1.0,30.0,4.0,0.0
10308,57.0,0.0,60.0,5.0,0.0
10309,83.0,0.0,30.0,6.0,0.0
10310,75.0,0.0,30.0,8.0,0.0
10311,83.0,29.0,30.0,8.0,0.0
10312,57.0,0.0,30.0,10.0,0.0
10313,71.0,0.0,30.0,6.0,0.0
10314,78.0,30.0,30.0,4.0,0.0
10315,79.0,1.0,30.0,4.0,0.0
10316,58.0,0.0,60.0,5.0,0.0
10317,46.0,29.0,60.0,3.0,0.0
10318,80.0,0.0,30.0,8.0,0.0
10319,76.0,0.0,30.0,8.0,0.0
10320,46.0,0.0,30.0,10.0,0.0
10321,58.0,29.0,30.0,7.0,0.0
10322,85.0,1.0,30.0,4.0,0.0
10323,79.0,1.0,30.0,4.0,0.0
10324,58.0,0.0,60.0,5.0,0.0
10325,73.0,0.0,30.0,6.0,0.0
10326,76.0,29.0,30.0,6.0,0.0
10327,46.0,0.0,30.0,7.0,0.0
10328,78.0,30.0,30.0,4.0,0.0
10329,58.0,0.0,30.0,10.0,0.0
10330,73.0,0.0,30.0,8.0,0.0
10331,66.0,0.0,30.0,8.0,0.0
10332,76.0,1.0,30.0,4.0,0.0
10333,58.0,30.0,60.0,5.0,0.0
10334,73.0,0.0,30.0,6.0,0.0
10335,66.0,29.0,30.0,6.0,0.0
10336,78.0,0.0,30.0,4.0,0.0
10337,59.0,1.0,60.0,5.0,0.0
10338,75.0,1.0,30.0,4.0,0.0
10339,47.0,29.0,60.0,3.0,0.0
10340,66.0,29.0,30.0,8.0,0.0
10341,59.0,0.0,30.0,7.0,0.0
10342,47.0,0.0,30.0,10.0,0.0
10343,71.0,0.0,30.0,8.0,0.0
10344,76.0,0.0,30.0,4.0,0.0
10345,71.0,0.0,30.0,6.0,0.0
10346,78.0,1.0,30.0,4.0,0.0
10347,47.0,29.0,30.0,7.0,0.0
10348,75.0,0.0,30.0,6.0,0.0
10349,59.0,0.0,60.0,5.0,0.0
10350,83.0,30.0,30.0,4.0,0.0
10351,71.0,29.0,30.0,6.0,0.0
10352,78.0,0.0,30.0,8.0,0.0
10353,78.0,0.0,30.0,6.0,0.0
10354,59.0,0.0,30.0,10.0,0.0
10355,71.0,0.0,30.0,8.0,0.0
10356,59.0,30.0,60.0,5.0,0.0
10357,75.0,1.0,30.0,4.0,0.0
10358,73.0,0.0,30.0,4.0,0.0
10359,59.0,0.0,60.0,5.0,0.0
10360,47.0,0.0,30.0,10.0,0.0
10361,59.0,0.0,30.0,7.0,0.0
10362,83.0,29.0,30.0,8.0,0.0
10363,75.0,0.0,30.0,8.0,0.0
10364,71.0,1.0,30.0,4.0,0.0
10365,73.0,30.0,30.0,4.0,0.0
10366,75.0,1.0,30.0,4.0,0.0
10367,71.0,0.0,30.0,6.0,0.0
10368,78.0,0.0,30.0,6.0,0.0
10369,59.0,30.0,60.0,5.0,0.0
10370,47.0,29.0,30.0,7.0,0.0
10371,76.0,0.0,30.0,4.0,0.0
10372,78.0,1.0,30.0,4.0,0.0
10373,59.0,29.0,30.0,10.0,0.0
10374,66.0,0.0,30.0,6.0,0.0
10375,75.0,0.0,30.0,8.0,0.0
10376,59.0,30.0,60.0,5.0,0.0
10377,71.0,0.0,30.0,8.0,0.0
10378,75.0,0.0,30.0,6.0,0.0
10379,80.0,0.0,30.0,4.0,0.0
10380,75.0,0.0,30.0,8.0,0.0
10381,78.0,29.0,30.0,8.0,0.0
10382,81.0,1.0,30.0,4.0,0.0
10383,60.0,0.0,30.0,7.0,0.0
10384,48.0,0.0,30.0,10.0,0.0
10385,60.0,1.0,60.0,5.0,0.0
10386,48.0,29.0,60.0,3.0,0.0
10387,87.0,0.0,30.0,4.0,0.0
10388,88.0,1.0,30.0,4.0,0.0
10389,60.0,0.0,60.0,5.0,0.0
10390,75.0,0.0,30.0,6.0,0.0
10391,48.0,29.0,30.0,7.0,0.0
10392,80.0,0.0,30.0,6.0,0.0
10393,90.0,30.0,30.0,4.0,0.0
10394,60.0,30.0,60.0,5.0,0.0
10395,60.0,0.0,30.0,10.0,0.0
10396,75.0,0.0,30.0,8.0,0.0
10397,68.0,0.0,30.0,8.0,0.0
10398,78.0,29.0,30.0,6.0,0.0
10399,75.0,0.0,30.0,6.0,0.0
10400,80.0,1.0,30.0,4.0,0.0
10401,78.0,0.0,30.0,4.0,0.0
10402,61.0,0.0,30.0,7.0,0.0
10403,68.0,0.0,30.0,8.0,0.0
10404,61.0,1.0,60.0,5.0,0.0
10405,76.0,1.0,30.0,4.0,0.0
10406,49.0,29.0,30.0,10.0,0.0
10407,73.0,0.0,30.0,8.0,0.0
10408,49.0,29.0,60.0,3.0,0.0
10409,78.0,0.0,30.0,4.0,0.0
10410,76.0,0.0,30.0,6.0,0.0
10411,80.0,1.0,30.0,4.0,0.0
10412,49.0,0.0,30.0,7.0,0.0
10413,73.0,29.0,30.0,6.0,0.0
10414,61.0,0.0,60.0,5.0,0.0
10415,75.0,30.0,30.0,4.0,0.0
10416,76.0,1.0,30.0,4.0,0.0
10417,73.0,0.0,30.0,6.0,0.0
10418,73.0,0.0,30.0,8.0,0.0
10419,76.0,0.0,30.0,8.0,0.0
10420,61.0,29.0,30.0,10.0,0.0
10421,61.0,0.0,60.0,5.0,0.0
10422,81.0,0.0,30.0,6.0,0.0
10423,80.0,30.0,30.0,4.0,0.0
10424,56.0,1.0,60.0,5.0,0.0
10425,83.0,1.0,30.0,4.0,0.0
10426,44.0,0.0,30.0,10.0,0.0
10427,76.0,0.0,30.0,8.0,0.0
10428,74.0,0.0,30.0,8.0,0.0
10429,44.0,29.0,60.0,3.0,0.0
10430,56.0,29.0,30.0,7.0,0.0
10431,73.0,0.0,30.0,4.0,0.0
10432,76.0,0.0,30.0,6.0,0.0
10433,74.0,1.0,30.0,4.0,0.0
10434,83.0,0.0,30.0,6.0,0.0
10435,44.0,29.0,30.0,7.0,0.0
10436,56.0,30.0,60.0,5.0,0.0
10437,71.0,0.0,30.0,4.0,0.0
10438,56.0,0.0,60.0,5.0,0.0
10439,71.0,0.0,30.0,6.0,0.0
10440,74.0,0.0,30.0,6.0,0.0
10441,69.0,1.0,30.0,4.0,0.0
10442,56.0,29.0,30.0,10.0,0.0
10443,74.0,0.0,30.0,8.0,0.0
10444,71.0,0.0,30.0,8.0,0.0
10445,68.0,30.0,30.0,4.0,0.0
10446,46.0,0.0,30.0,10.0,0.0
10447,46.0,29.0,60.0,3.0,0.0
10448,73.0,1.0,30.0,4.0,0.0
10449,58.0,29.0,30.0,7.0,0.0
10450,66.0,0.0,30.0,8.0,0.0
10451,73.0,0.0,30.0,8.0,0.0
10452,58.0,1.0,60.0,5.0,0.0
10453,66.0,0.0,30.0,4.0,0.0
10454,73.0,0.0,30.0,6.0,0.0
10455,46.0,29.0,30.0,7.0,0.0
10456,64.0,0.0,30.0,6.0,0.0
10457,58.0,30.0,60.0,5.0,0.0
10458,67.0,1.0,30.0,4.0,0.0
10459,70.0,0.0,30.0,4.0,0.0
10460,58.0,0.0,60.0,5.0,0.0
10461,76.0,0.0,30.0,8.0,0.0
10462,58.0,0.0,30.0,10.0,0.0
10463,67.0,0.0,30.0,6.0,0.0
10464,79.0,0.0,30.0,8.0,0.0
10465,76.0,29.0,30.0,6.0,0.0
10466,73.0,1.0,30.0,4.0,0.0
10467,76.0,30.0,30.0,4.0,0.0
10468,59.0,0.0,60.0,5.0,0.0
10469,70.0,1.0,30.0,4.0,0.0
10470,59.0,29.0,30.0,7.0,0.0
10471,79.0,0.0,30.0,8.0,0.0
10472,47.0,29.0,60.0,3.0,0.0
10473,76.0,0.0,30.0,8.0,0.0
10474,47.0,0.0,30.0,10.0,0.0
10475,71.0,1.0,30.0,4.0,0.0
10476,59.0,0.0,60.0,5.0,0.0
10477,47.0,0.0,30.0,7.0,0.0
10478,66.0,1.0,30.0,4.0,0.0
10479,75.0,29.0,30.0,6.0,0.0
10480,71.0,0.0,30.0,6.0,0.0
10481,67.0,30.0,30.0,4.0,0.0
10482,70.0,0.0,30.0,6.0,0.0
10483,79.0,29.0,30.0,6.0,0.0
10484,76.0,0.0,30.0,8.0,0.0
10485,63.0,1.0,30.0,4.0,0.0
10486,59.0,0.0,60.0,5.0,0.0
10487,73.0,0.0,30.0,8.0,0.0
10488,59.0,0.0,30.0,10.0,0.0
10489,64.0,30.0,30.0,4.0,0.0
10490,59.0,29.0,30.0,7.0,0.0
10491,47.0,29.0,60.0,3.0,0.0
10492,47.0,1.0,60.0,5.0,0.0
10493,59.0,1.0,30.0,4.0,0.0
10494,47.0,0.0,30.0,10.0,0.0
10495,75.0,0.0,30.0,8.0,0.0
10496,66.0,0.0,30.0,8.0,0.0
10497,66.0,0.0,30.0,4.0,0.0
10498,69.0,1.0,30.0,4.0,0.0
10499,47.0,0.0,30.0,7.0,0.0
10500,47.0,30.0,60.0,5.0,0.0
10501,78.0,0.0,30.0,6.0,0.0
10502,75.0,29.0,30.0,6.0,0.0
10503,71.0,0.0,30.0,4.0,0.0
10504,47.0,0.0,60.0,5.0,0.0
10505,76.0,1.0,30.0,4.0,0.0
10506,66.0,0.0,30.0,8.0,0.0
10507,71.0,29.0,30.0,8.0,0.0
10508,78.0,0.0,30.0,6.0,0.0
10509,81.0,0.0,30.0,6.0,0.0
10510,59.0,0.0,30.0,10.0,0.0
10511,75.0,30.0,30.0,4.0,0.0
10512,52.0,29.0,60.0,7.0,0.0
10513,40.0,0.0,60.0,3.0,0.0
10514,47.0,0.0,120.0,5.0,0.0
10515,64.0,29.0,30.0,8.0,0.0
10516,68.0,0.0,30.0,8.0,0.0
10517,52.0,0.0,30.0,10.0,0.0
10518,76.0,1.0,30.0,4.0,0.0
10519,73.0,1.0,30.0,4.0,0.0
10520,71.0,1.0,30.0,4.0,0.0
10521,76.0,0.0,30.0,6.0,0.0
10522,80.0,29.0,30.0,6.0,0.0
10523,69.0,30.0,30.0,4.0,0.0
10524,76.0,0.0,30.0,6.0,0.0
10525,71.0,0.0,30.0,8.0,0.0
10526,71.0,29.0,30.0,6.0,0.0
10527,64.0,0.0,30.0,8.0,0.0
10528,68.0,1.0,30.0,4.0,0.0
10529,66.0,60.0,30.0,4.0,0.0
10530,71.0,0.0,120.0,6.0,0.0
10531,68.0,0.0,120.0,6.0,0.0
10532,64.0,30.0,60.0,4.0,0.0
10533,68.0,0.0,120.0,8.0,0.0
10534,76.0,0.0,120.0,8.0,0.0
10535,66.0,0.0,30.0,10.0,0.0
10536,66.0,0.0,30.0,7.0,0.0
10537,66.0,0.0,30.0,5.0,0.0
10538,64.0,0.0,30.0,10.0,0.0
10539,64.0,0.0,30.0,5.0,0.0
10540,64.0,1.0,30.0,7.0,0.0
10541,52.0,29.0,30.0,3.0,0.0
10542,62.0,0.0,30.0,10.0,0.0
10543,62.0,30.0,30.0,7.0,0.0
10544,62.0,0.0,30.0,5.0,0.0
10545,50.0,29.0,30.0,3.0,0.0
10546,61.0,0.0,30.0,7.0,0.0
10547,61.0,1.0,30.0,5.0,0.0
10548,61.0,0.0,30.0,10.0,0.0
10549,59.0,0.0,30.0,7.0,0.0
10550,59.0,31.0,30.0,5.0,0.0
10551,59.0,0.0,30.0,10.0,0.0
10552,61.0,0.0,60.0,10.0,0.0
10553,49.0,29.0,30.0,3.0,0.0
10554,64.0,0.0,60.0,7.0,0.0
10555,69.0,0.0,90.0,6.0,0.0
10556,61.0,0.0,60.0,7.0,0.0
10557,64.0,30.0,60.0,10.0,0.0
10558,69.0,0.0,90.0,4.0,0.0
10559,69.0,0.0,90.0,0.0,0.0
10560,61.0,0.0,60.0,5.0,0.0
10561,64.0,0.0,60.0,5.0,0.0
10562,69.0,1.0,90.0,8.0,0.0
10563,49.0,0.0,30.0,3.0,0.0
10564,64.0,0.0,30.0,2.0,0.0
10565,69.0,30.0,30.0,1.0,0.0
10566,73.0,0.0,30.0,4.0,0.0
10567,73.0,30.0,30.0,8.0,0.0
10568,73.0,0.0,30.0,6.0,0.0
10569,73.0,0.0,30.0,0.0,0.0
10570,69.0,60.0,30.0,2.0,0.0
10571,76.0,30.0,120.0,6.0,0.0
10572,76.0,0.0,120.0,4.0,0.0
10573,76.0,0.0,120.0,8.0,0.0
10574,73.0,0.0,30.0,1.0,0.0
10575,49.0,0.0,30.0,3.0,0.0
10576,76.0,0.0,120.0,0.0,0.0
10577,67.0,0.0,60.0,10.0,0.0
10578,71.0,0.0,60.0,7.0,0.0
10579,67.0,1.0,60.0,7.0,0.0
10580,59.0,0.0,60.0,7.0,0.0
10581,59.0,0.0,60.0,10.0,0.0
10582,59.0,0.0,60.0,5.0,0.0
10583,67.0,0.0,60.0,5.0,0.0
10584,71.0,0.0,60.0,5.0,0.0
10585,47.0,29.0,30.0,3.0,0.0
10586,71.0,0.0,60.0,10.0,0.0
10587,79.0,10.0,60.0,4.0,0.0
10588,79.0,0.0,60.0,0.0,0.0
10589,79.0,0.0,60.0,8.0,0.0
10590,79.0,0.0,60.0,6.0,0.0
10591,71.0,30.0,30.0,2.0,0.0
10592,74.0,0.0,30.0,1.0,0.0
10593,47.0,0.0,30.0,3.0,0.0
10594,78.0,10.0,15.0,4.0,0.0
10595,78.0,0.0,15.0,8.0,0.0
10596,62.0,0.0,30.0,2.0,0.0
10597,47.0,0.0,30.0,3.0,0.0
10598,71.0,0.0,30.0,1.0,0.0
10599,78.0,0.0,15.0,6.0,0.0
10600,78.0,0.0,30.0,0.0,0.0
10601,79.0,0.0,15.0,8.0,0.0
10602,79.0,0.0,15.0,6.0,0.0
10603,79.0,10.0,15.0,4.0,0.0
10604,78.0,30.0,15.0,4.0,0.0
10605,78.0,0.0,15.0,8.0,0.0
10606,78.0,0.0,15.0,6.0,0.0
10607,79.0,0.0,15.0,8.0,0.0
10608,46.0,0.0,30.0,3.0,0.0
10609,79.0,0.0,15.0,0.0,0.0
10610,58.0,0.0,60.0,7.0,0.0
10611,61.0,0.0,60.0,5.0,0.0
10612,61.0,31.0,60.0,7.0,0.0
10613,79.0,0.0,15.0,6.0,0.0
10614,66.0,0.0,60.0,7.0,0.0
10615,66.0,0.0,60.0,10.0,0.0
10616,66.0,0.0,60.0,5.0,0.0
10617,58.0,0.0,60.0,5.0,0.0
10618,58.0,0.0,60.0,10.0,0.0
10619,79.0,30.0,15.0,4.0,0.0
10620,61.0,0.0,60.0,10.0,0.0
10621,78.0,0.0,60.0,0.0,0.0
10622,78.0,0.0,60.0,4.0,0.0
10623,78.0,0.0,60.0,8.0,0.0
10624,78.0,0.0,60.0,6.0,0.0
10625,46.0,30.0,30.0,3.0,0.0
10626,66.0,0.0,30.0,2.0,0.0
10627,73.0,0.0,30.0,1.0,0.0
10628,82.0,0.0,30.0,8.0,0.0
10629,82.0,30.0,30.0,6.0,0.0
10630,82.0,0.0,30.0,0.0,0.0
10631,82.0,0.0,30.0,4.0,0.0
10632,85.0,0.0,120.0,0.0,0.0
10633,66.0,0.0,30.0,2.0,0.0
10634,76.0,60.0,30.0,1.0,0.0
10635,46.0,0.0,30.0,3.0,0.0
10636,85.0,30.0,120.0,8.0,0.0
10637,85.0,0.0,120.0,4.0,0.0
10638,85.0,0.0,120.0,6.0,0.0
10639,54.0,0.0,60.0,5.0,0.0
10640,66.0,0.0,60.0,10.0,0.0
10641,66.0,1.0,60.0,5.0,0.0
10642,61.0,0.0,60.0,7.0,0.0
10643,58.0,0.0,60.0,10.0,0.0
10644,42.0,29.0,30.0,3.0,0.0
10645,58.0,0.0,60.0,5.0,0.0
10646,61.0,0.0,60.0,5.0,0.0
10647,54.0,0.0,60.0,10.0,0.0
10648,61.0,0.0,60.0,10.0,0.0
10649,66.0,0.0,60.0,7.0,0.0
10650,58.0,0.0,60.0,7.0,0.0
10651,54.0,0.0,60.0,7.0,0.0
10652,78.0,0.0,30.0,1.0,0.0
10653,86.0,0.0,30.0,4.0,0.0
10654,86.0,30.0,30.0,8.0,0.0
10655,42.0,0.0,30.0,3.0,0.0
10656,70.0,0.0,30.0,2.0,0.0
10657,86.0,0.0,30.0,0.0,0.0
10658,86.0,0.0,30.0,6.0,0.0
10659,85.0,0.0,30.0,0.0,0.0
10660,85.0,0.0,30.0,6.0,0.0
10661,85.0,30.0,30.0,8.0,0.0
10662,85.0,0.0,30.0,4.0,0.0
10663,42.0,0.0,30.0,3.0,0.0
10664,73.0,0.0,30.0,2.0,0.0
10665,83.0,0.0,30.0,4.0,0.0
10666,70.0,0.0,30.0,1.0,0.0
10667,83.0,30.0,30.0,0.0,0.0
10668,83.0,0.0,30.0,6.0,0.0
10669,83.0,0.0,30.0,8.0,0.0
10670,85.0,0.0,30.0,6.0,0.0
10671,85.0,0.0,30.0,4.0,0.0
10672,85.0,0.0,15.0,8.0,0.0
10673,66.0,0.0,60.0,5.0,0.0
10674,62.0,0.0,60.0,5.0,0.0
10675,59.0,0.0,60.0,5.0,0.0
10676,66.0,0.0,60.0,7.0,0.0
10677,62.0,0.0,60.0,7.0,0.0
10678,59.0,0.0,60.0,7.0,0.0
10679,66.0,0.0,60.0,10.0,0.0
10680,59.0,31.0,60.0,10.0,0.0
10681,85.0,0.0,30.0,4.0,0.0
10682,85.0,30.0,15.0,0.0,0.0
10683,85.0,0.0,30.0,6.0,0.0
10684,62.0,0.0,60.0,10.0,0.0
10685,47.0,0.0,30.0,3.0,0.0
10686,86.0,0.0,60.0,4.0,0.0
10687,86.0,0.0,60.0,8.0,0.0
10688,86.0,0.0,60.0,6.0,0.0
10689,86.0,0.0,60.0,0.0,0.0
10690,78.0,0.0,30.0,1.0,0.0
10691,47.0,0.0,30.0,3.0,0.0
10692,71.0,30.0,30.0,2.0,0.0
10693,83.0,30.0,30.0,4.0,0.0
10694,83.0,0.0,30.0,0.0,0.0
10695,83.0,0.0,30.0,6.0,0.0
10696,83.0,0.0,30.0,8.0,0.0
10697,81.0,0.0,30.0,0.0,0.0
10698,81.0,0.0,30.0,8.0,0.0
10699,81.0,0.0,30.0,4.0,0.0
10700,81.0,0.0,30.0,6.0,0.0
10701,47.0,60.0,30.0,3.0,0.0
10702,66.0,0.0,30.0,2.0,0.0
10703,74.0,0.0,30.0,1.0,0.0
10704,81.0,0.0,30.0,4.0,0.0
10705,81.0,0.0,30.0,8.0,0.0
10706,64.0,0.0,60.0,5.0,0.0
10707,81.0,29.0,30.0,0.0,0.0
10708,81.0,0.0,30.0,6.0,0.0
10709,52.0,0.0,60.0,10.0,0.0
10710,59.0,0.0,60.0,5.0,0.0
10711,52.0,0.0,30.0,3.0,0.0
10712,64.0,0.0,60.0,7.0,0.0
10713,59.0,0.0,60.0,7.0,0.0
10714,52.0,0.0,60.0,5.0,0.0
10715,52.0,0.0,60.0,7.0,0.0
10716,64.0,1.0,60.0,10.0,0.0
10717,59.0,0.0,60.0,10.0,0.0
10718,79.0,30.0,30.0,0.0,0.0
10719,79.0,0.0,30.0,6.0,0.0
10720,79.0,0.0,30.0,4.0,0.0
10721,79.0,0.0,30.0,8.0,0.0
10722,85.0,0.0,30.0,6.0,0.0
10723,85.0,15.0,30.0,4.0,0.0
10724,67.0,0.0,30.0,2.0,0.0
10725,85.0,0.0,30.0,8.0,0.0
10726,85.0,0.0,30.0,0.0,0.0
10727,76.0,0.0,30.0,1.0,0.0
10728,52.0,0.0,30.0,3.0,0.0
10729,86.0,0.0,15.0,0.0,0.0
10730,86.0,0.0,15.0,6.0,0.0
10731,86.0,15.0,15.0,8.0,0.0
10732,86.0,0.0,15.0,4.0,0.0
10733,88.0,30.0,15.0,0.0,0.0
10734,88.0,0.0,15.0,4.0,0.0
10735,88.0,0.0,15.0,6.0,0.0
10736,88.0,0.0,15.0,8.0,0.0
10737,79.0,0.0,30.0,1.0,0.0
10738,86.0,0.0,30.0,4.0,0.0
10739,52.0,0.0,30.0,3.0,0.0
10740,86.0,0.0,30.0,6.0,0.0
10741,86.0,0.0,30.0,8.0,0.0
10742,86.0,0.0,30.0,0.0,0.0
10743,76.0,30.0,30.0,2.0,0.0
10744,85.0,30.0,30.0,8.0,0.0
10745,85.0,0.0,30.0,0.0,0.0
10746,85.0,0.0,30.0,4.0,0.0
10747,85.0,0.0,30.0,6.0,0.0
10748,61.0,31.0,60.0,5.0,0.0
10749,58.0,0.0,60.0,7.0,0.0
10750,54.0,0.0,60.0,7.0,0.0
10751,83.0,0.0,30.0,6.0,0.0
10752,58.0,0.0,60.0,5.0,0.0
10753,54.0,0.0,60.0,5.0,0.0
10754,83.0,0.0,30.0,4.0,0.0
10755,61.0,0.0,60.0,7.0,0.0
10756,54.0,0.0,60.0,10.0,0.0
10757,83.0,0.0,30.0,0.0,0.0
10758,61.0,0.0,60.0,10.0,0.0
10759,58.0,0.0,60.0,10.0,0.0
10760,54.0,0.0,30.0,3.0,0.0
10761,83.0,29.0,30.0,8.0,0.0
10762,82.0,0.0,60.0,0.0,0.0
10763,82.0,30.0,60.0,6.0,0.0
10764,82.0,0.0,60.0,4.0,0.0
10765,82.0,0.0,60.0,8.0,0.0
10766,73.0,0.0,30.0,2.0,0.0
10767,78.0,0.0,30.0,1.0,0.0
10768,54.0,0.0,30.0,3.0,0.0
10769,85.0,0.0,30.0,6.0,0.0
10770,85.0,0.0,30.0,0.0,0.0
10771,85.0,0.0,30.0,4.0,0.0
10772,85.0,30.0,30.0,8.0,0.0
10773,79.0,0.0,120.0,4.0,0.0
10774,54.0,0.0,30.0,3.0,0.0
10775,79.0,0.0,120.0,8.0,0.0
10776,73.0,0.0,30.0,1.0,0.0
10777,70.0,60.0,30.0,2.0,0.0
10778,79.0,0.0,120.0,0.0,0.0
10779,79.0,30.0,120.0,6.0,0.0
10780,58.0,0.0,60.0,7.0,0.0
10781,64.0,0.0,60.0,10.0,0.0
10782,61.0,0.0,60.0,10.0,0.0
10783,58.0,0.0,60.0,10.0,0.0
10784,64.0,1.0,60.0,7.0,0.0
10785,61.0,0.0,60.0,7.0,0.0
10786,64.0,0.0,60.0,5.0,0.0
10787,61.0,0.0,60.0,5.0,0.0
10788,58.0,0.0,60.0,5.0,0.0
10789,58.0,29.0,30.0,3.0,0.0
10790,73.0,0.0,30.0,1.0,0.0
10791,78.0,0.0,30.0,8.0,0.0
10792,78.0,0.0,30.0,4.0,0.0
10793,61.0,0.0,30.0,2.0,0.0
10794,78.0,30.0,30.0,0.0,0.0
10795,78.0,0.0,30.0,6.0,0.0
10796,58.0,0.0,30.0,3.0,0.0
10797,76.0,0.0,30.0,6.0,0.0
10798,76.0,0.0,30.0,0.0,0.0
10799,76.0,30.0,30.0,8.0,0.0
10800,76.0,0.0,30.0,4.0,0.0
10801,74.0,0.0,30.0,4.0,0.0
10802,70.0,0.0,30.0,1.0,0.0
10803,66.0,30.0,30.0,2.0,0.0
10804,74.0,0.0,30.0,6.0,0.0
10805,58.0,0.0,30.0,3.0,0.0
10806,74.0,0.0,30.0,0.0,0.0
10807,74.0,0.0,30.0,8.0,0.0
10808,73.0,0.0,30.0,4.0,0.0
10809,73.0,30.0,30.0,6.0,0.0
10810,73.0,0.0,30.0,8.0,0.0
10811,73.0,0.0,30.0,4.0,0.0
10812,71.0,0.0,60.0,7.0,0.0
10813,66.0,0.0,60.0,7.0,0.0
10814,73.0,29.0,30.0,8.0,0.0
10815,73.0,0.0,15.0,0.0,0.0
10816,59.0,0.0,60.0,5.0,0.0
10817,66.0,0.0,60.0,5.0,0.0
10818,71.0,0.0,60.0,5.0,0.0
10819,59.0,0.0,30.0,3.0,0.0
10820,71.0,0.0,60.0,10.0,0.0
10821,66.0,1.0,60.0,10.0,0.0
10822,59.0,0.0,60.0,10.0,0.0
10823,73.0,0.0,30.0,6.0,0.0
10824,59.0,0.0,60.0,7.0,0.0
10825,74.0,0.0,30.0,0.0,0.0
10826,74.0,0.0,30.0,8.0,0.0
10827,74.0,30.0,30.0,6.0,0.0
10828,74.0,0.0,30.0,4.0,0.0
10829,59.0,0.0,30.0,3.0,0.0
10830,71.0,0.0,30.0,1.0,0.0
10831,66.0,30.0,30.0,2.0,0.0
10832,78.0,0.0,30.0,6.0,0.0
10833,78.0,0.0,30.0,8.0,0.0
10834,78.0,30.0,30.0,0.0,0.0
10835,78.0,0.0,30.0,4.0,0.0
10836,83.0,0.0,90.0,4.0,0.0
10837,62.0,0.0,30.0,2.0,0.0
10838,59.0,60.0,30.0,3.0,0.0
10839,83.0,29.0,90.0,0.0,0.0
10840,83.0,0.0,90.0,8.0,0.0
10841,66.0,0.0,30.0,1.0,0.0
10842,83.0,0.0,90.0,6.0,0.0
10843,71.0,0.0,60.0,5.0,0.0
10844,71.0,0.0,60.0,10.0,0.0
10845,71.0,0.0,60.0,7.0,0.0
10846,66.0,0.0,60.0,7.0,0.0
10847,66.0,0.0,60.0,10.0,0.0
10848,66.0,1.0,60.0,5.0,0.0
10849,62.0,0.0,60.0,5.0,0.0
10850,62.0,0.0,60.0,10.0,0.0
10851,62.0,0.0,60.0,7.0,0.0
10852,62.0,0.0,30.0,3.0,0.0
10853,80.0,0.0,30.0,6.0,0.0
10854,80.0,0.0,30.0,8.0,0.0
10855,80.0,0.0,30.0,0.0,0.0
10856,80.0,30.0,30.0,4.0,0.0
10857,66.0,0.0,30.0,1.0,0.0
10858,81.0,30.0,30.0,6.0,0.0
10859,71.0,0.0,30.0,2.0,0.0
10860,81.0,0.0,30.0,0.0,0.0
10861,81.0,0.0,30.0,8.0,0.0
10862,81.0,0.0,30.0,4.0,0.0
10863,62.0,0.0,30.0,3.0,0.0
10864,83.0,30.0,30.0,8.0,0.0
10865,83.0,0.0,30.0,4.0,0.0
10866,83.0,0.0,30.0,0.0,0.0
10867,83.0,0.0,30.0,6.0,0.0
10868,85.0,0.0,30.0,6.0,0.0
10869,78.0,30.0,30.0,1.0,0.0
10870,66.0,0.0,30.0,2.0,0.0
10871,85.0,0.0,30.0,0.0,0.0
10872,85.0,0.0,30.0,4.0,0.0
10873,85.0,0.0,30.0,8.0,0.0
10874,62.0,0.0,30.0,3.0,0.0
10875,86.0,0.0,30.0,8.0,0.0
10876,86.0,0.0,30.0,4.0,0.0
10877,86.0,0.0,30.0,6.0,0.0
10878,86.0,30.0,30.0,0.0,0.0
10879,78.0,0.0,30.0,4.0,0.0
10880,78.0,29.0,30.0,8.0,0.0
10881,78.0,0.0,30.0,6.0,0.0
10882,61.0,0.0,60.0,7.0,0.0
10883,61.0,0.0,30.0,3.0,0.0
10884,73.0,0.0,60.0,5.0,0.0
10885,78.0,0.0,30.0,0.0,0.0
10886,68.0,31.0,60.0,7.0,0.0
10887,73.0,0.0,60.0,10.0,0.0
10888,73.0,0.0,60.0,7.0,0.0
10889,61.0,0.0,60.0,10.0,0.0
10890,61.0,0.0,60.0,5.0,0.0
10891,68.0,0.0,60.0,5.0,0.0
10892,68.0,0.0,60.0,10.0,0.0
10893,77.0,0.0,60.0,4.0,0.0
10894,77.0,0.0,60.0,0.0,0.0
10895,77.0,0.0,60.0,6.0,0.0
10896,77.0,0.0,60.0,8.0,0.0
10897,73.0,30.0,30.0,2.0,0.0
10898,80.0,0.0,30.0,1.0,0.0
10899,61.0,0.0,30.0,3.0,0.0
10900,80.0,0.0,30.0,8.0,0.0
10901,80.0,30.0,30.0,4.0,0.0
10902,80.0,0.0,30.0,0.0,0.0
10903,80.0,0.0,30.0,6.0,0.0
10904,71.0,0.0,90.0,4.0,0.0
10905,61.0,0.0,30.0,3.0,0.0
10906,71.0,0.0,90.0,6.0,0.0
10907,68.0,0.0,30.0,1.0,0.0
10908,71.0,0.0,90.0,8.0,0.0
10909,71.0,29.0,90.0,0.0,0.0
10910,65.0,60.0,30.0,2.0,0.0
10911,53.0,0.0,60.0,5.0,0.0
10912,56.0,0.0,60.0,5.0,0.0
10913,61.0,0.0,60.0,5.0,0.0
10914,61.0,0.0,60.0,10.0,0.0
10915,56.0,0.0,60.0,10.0,0.0
10916,53.0,0.0,60.0,10.0,0.0
10917,53.0,0.0,30.0,3.0,0.0
10918,53.0,0.0,60.0,7.0,0.0
10919,56.0,0.0,60.0,7.0,0.0
10920,61.0,1.0,60.0,7.0,0.0
10921,74.0,0.0,30.0,6.0,0.0
10922,74.0,0.0,30.0,8.0,0.0
10923,74.0,0.0,30.0,4.0,0.0
10924,74.0,30.0,30.0,0.0,0.0
10925,73.0,0.0,30.0,6.0,0.0
10926,53.0,30.0,30.0,3.0,0.0
10927,73.0,0.0,30.0,8.0,0.0
10928,73.0,0.0,30.0,4.0,0.0
10929,73.0,0.0,30.0,0.0,0.0
10930,61.0,0.0,30.0,2.0,0.0
10931,68.0,0.0,30.0,1.0,0.0
10932,71.0,0.0,30.0,0.0,0.0
10933,71.0,0.0,30.0,8.0,0.0
10934,71.0,0.0,30.0,6.0,0.0
10935,71.0,30.0,30.0,4.0,0.0
10936,53.0,0.0,30.0,3.0,0.0
10937,61.0,0.0,30.0,2.0,0.0
10938,69.0,0.0,30.0,0.0,0.0
10939,69.0,0.0,30.0,4.0,0.0
10940,69.0,0.0,30.0,8.0,0.0
10941,71.0,30.0,30.0,1.0,0.0
10942,69.0,0.0,30.0,6.0,0.0
10943,68.0,0.0,30.0,4.0,0.0
10944,68.0,0.0,30.0,0.0,0.0
10945,68.0,0.0,30.0,4.0,0.0
10946,57.0,0.0,60.0,7.0,0.0
10947,54.0,0.0,60.0,10.0,0.0
10948,61.0,0.0,60.0,7.0,0.0
10949,54.0,0.0,60.0,7.0,0.0
10950,57.0,0.0,60.0,10.0,0.0
10951,61.0,0.0,60.0,10.0,0.0
10952,68.0,0.0,30.0,0.0,0.0
10953,68.0,0.0,15.0,6.0,0.0
10954,57.0,0.0,60.0,5.0,0.0
10955,68.0,30.0,15.0,8.0,0.0
10956,61.0,31.0,60.0,5.0,0.0
10957,54.0,0.0,60.0,5.0,0.0
10958,54.0,29.0,30.0,3.0,0.0
10959,69.0,0.0,60.0,8.0,0.0
10960,69.0,0.0,60.0,0.0,0.0
10961,69.0,30.0,60.0,4.0,0.0
10962,69.0,0.0,60.0,6.0,0.0
10963,54.0,0.0,30.0,3.0,0.0
10964,69.0,0.0,30.0,1.0,0.0
10965,61.0,0.0,30.0,2.0,0.0
10966,73.0,0.0,30.0,0.0,0.0
10967,73.0,0.0,30.0,6.0,0.0
10968,73.0,30.0,30.0,8.0,0.0
10969,73.0,0.0,30.0,4.0,0.0
10970,78.0,0.0,90.0,4.0,0.0
10971,73.0,60.0,30.0,2.0,0.0
10972,78.0,0.0,90.0,0.0,0.0
10973,78.0,0.0,90.0,8.0,0.0
10974,78.0,29.0,90.0,6.0,0.0
10975,69.0,0.0,30.0,1.0,0.0
10976,54.0,0.0,30.0,3.0,0.0
10977,49.0,0.0,30.0,3.0,0.0
10978,49.0,0.0,60.0,5.0,0.0
10979,56.0,0.0,60.0,5.0,0.0
10980,61.0,0.0,60.0,5.0,0.0
10981,49.0,1.0,60.0,7.0,0.0
10982,56.0,0.0,60.0,7.0,0.0
10983,61.0,0.0,60.0,7.0,0.0
10984,61.0,0.0,60.0,10.0,0.0
10985,56.0,0.0,60.0,10.0,0.0
10986,49.0,0.0,60.0,10.0,0.0
10987,77.0,0.0,30.0,4.0,0.0
10988,77.0,0.0,30.0,8.0,0.0
10989,77.0,0.0,30.0,6.0,0.0
10990,77.0,30.0,30.0,0.0,0.0
10991,73.0,15.0,30.0,1.0,0.0
10992,49.0,0.0,30.0,3.0,0.0
10993,78.0,0.0,30.0,6.0,0.0
10994,78.0,0.0,30.0,8.0,0.0
10995,69.0,0.0,30.0,2.0,0.0
10996,78.0,0.0,30.0,4.0,0.0
10997,78.0,0.0,30.0,0.0,0.0
10998,80.0,0.0,15.0,8.0,0.0
10999,80.0,0.0,15.0,0.0,0.0
11000,80.0,0.0,15.0,4.0,0.0
11001,80.0,15.0,15.0,6.0,0.0
11002,81.0,30.0,15.0,0.0,0.0
11003,81.0,0.0,15.0,4.0,0.0
11004,81.0,0.0,15.0,6.0,0.0
11005,81.0,0.0,15.0,8.0,0.0
11006,49.0,0.0,30.0,3.0,0.0
11007,80.0,0.0,30.0,6.0,0.0
11008,80.0,0.0,30.0,0.0,0.0
11009,80.0,0.0,30.0,8.0,0.0
11010,80.0,0.0,30.0,4.0,0.0
11011,71.0,30.0,30.0,1.0,0.0
11012,65.0,0.0,30.0,2.0,0.0
11013,61.0,0.0,60.0,5.0,0.0
11014,61.0,0.0,60.0,10.0,0.0
11015,69.0,0.0,30.0,1.0,0.0
11016,78.0,0.0,15.0,4.0,0.0
11017,54.0,0.0,60.0,5.0,0.0
11018,66.0,0.0,30.0,2.0,0.0
11019,61.0,0.0,60.0,7.0,0.0
11020,78.0,0.0,15.0,8.0,0.0
11021,57.0,0.0,60.0,7.0,0.0
11022,54.0,0.0,60.0,7.0,0.0
11023,78.0,0.0,15.0,0.0,0.0
11024,57.0,31.0,60.0,5.0,0.0
11025,42.0,29.0,30.0,3.0,0.0
11026,57.0,0.0,60.0,10.0,0.0
11027,54.0,0.0,60.0,10.0,0.0
11028,78.0,30.0,15.0,6.0,0.0
11029,42.0,0.0,30.0,3.0,0.0
11030,66.0,0.0,30.0,1.0,0.0
11031,61.0,0.0,30.0,2.0,0.0
11032,69.0,0.0,30.0,0.0,0.0
11033,69.0,0.0,30.0,4.0,0.0
11034,69.0,0.0,30.0,6.0,0.0
11035,69.0,25.0,30.0,8.0,0.0
11036,65.0,0.0,30.0,1.0,0.0
11037,59.0,0.0,30.0,2.0,0.0
11038,42.0,35.0,30.0,3.0,0.0
11039,73.0,0.0,60.0,0.0,0.0
11040,73.0,25.0,60.0,8.0,0.0
11041,73.0,0.0,60.0,4.0,0.0
11042,73.0,0.0,60.0,6.0,0.0
11043,61.0,5.0,60.0,1.0,0.0
11044,57.0,0.0,60.0,2.0,0.0
11045,42.0,29.0,30.0,3.0,0.0
11046,66.0,0.0,60.0,6.0,0.0
11047,66.0,0.0,60.0,8.0,0.0
11048,66.0,24.0,60.0,4.0,0.0
11049,66.0,0.0,60.0,0.0,0.0
11050,61.0,0.0,30.0,10.0,0.0
11051,61.0,1.0,30.0,5.0,0.0
11052,61.0,0.0,30.0,7.0,0.0
11053,66.0,29.0,30.0,3.0,0.0
11054,66.0,1.0,30.0,10.0,0.0
11055,66.0,0.0,30.0,5.0,0.0
11056,66.0,0.0,30.0,7.0,0.0
11057,69.0,30.0,30.0,5.0,0.0
11058,69.0,0.0,30.0,10.0,0.0
11059,69.0,0.0,30.0,7.0,0.0
11060,64.0,29.0,30.0,3.0,0.0
11061,66.0,0.0,30.0,7.0,0.0
11062,66.0,1.0,30.0,10.0,0.0
11063,66.0,0.0,30.0,5.0,0.0
11064,61.0,0.0,30.0,10.0,0.0
11065,61.0,0.0,30.0,7.0,0.0
11066,61.0,9.0,30.0,5.0,0.0
11067,66.0,0.0,60.0,10.0,0.0
11068,63.0,0.0,60.0,10.0,0.0
11069,63.0,0.0,60.0,7.0,0.0
11070,63.0,29.0,30.0,3.0,0.0
11071,63.0,0.0,60.0,5.0,0.0
11072,66.0,0.0,60.0,5.0,0.0
11073,71.0,1.0,90.0,0.0,0.0
11074,71.0,7.0,15.0,4.0,0.0
11075,71.0,0.0,15.0,8.0,0.0
11076,66.0,30.0,60.0,7.0,0.0
11077,71.0,0.0,15.0,6.0,0.0
11078,69.0,0.0,15.0,6.0,0.0
11079,69.0,15.0,15.0,8.0,0.0
11080,69.0,0.0,15.0,4.0,0.0
11081,71.0,0.0,60.0,8.0,0.0
11082,71.0,0.0,60.0,4.0,0.0
11083,71.0,0.0,60.0,6.0,0.0
11084,71.0,0.0,30.0,1.0,0.0
11085,66.0,29.0,30.0,2.0,0.0
11086,63.0,0.0,30.0,3.0,0.0
11087,75.0,0.0,30.0,6.0,0.0
11088,75.0,0.0,30.0,8.0,0.0
11089,75.0,0.0,30.0,4.0,0.0
11090,75.0,31.0,30.0,0.0,0.0
11091,75.0,0.0,30.0,1.0,0.0
11092,78.0,31.0,120.0,8.0,0.0
11093,78.0,0.0,120.0,0.0,0.0
11094,71.0,60.0,30.0,2.0,0.0
11095,78.0,0.0,120.0,4.0,0.0
11096,63.0,0.0,30.0,3.0,0.0
11097,78.0,0.0,120.0,6.0,0.0
11098,63.0,0.0,60.0,5.0,0.0
11099,66.0,0.0,60.0,5.0,0.0
11100,71.0,0.0,60.0,5.0,0.0
11101,71.0,0.0,60.0,10.0,0.0
11102,63.0,0.0,60.0,7.0,0.0
11103,63.0,0.0,60.0,10.0,0.0
11104,71.0,0.0,60.0,7.0,0.0
11105,66.0,0.0,60.0,10.0,0.0
11106,63.0,29.0,30.0,3.0,0.0
11107,66.0,0.0,60.0,7.0,0.0
11108,81.0,9.0,60.0,4.0,0.0
11109,81.0,0.0,60.0,0.0,0.0
11110,78.0,0.0,30.0,1.0,0.0
11111,71.0,29.0,30.0,2.0,0.0
11112,81.0,0.0,60.0,6.0,0.0
11113,63.0,0.0,30.0,3.0,0.0
11114,81.0,0.0,60.0,8.0,0.0
11115,80.0,1.0,30.0,0.0,0.0
11116,80.0,0.0,15.0,4.0,0.0
11117,63.0,0.0,30.0,3.0,0.0
11118,80.0,0.0,15.0,8.0,0.0
11119,71.0,0.0,30.0,1.0,0.0
11120,80.0,7.0,15.0,6.0,0.0
11121,66.0,0.0,30.0,2.0,0.0
11122,81.0,0.0,15.0,4.0,0.0
11123,81.0,0.0,15.0,8.0,0.0
11124,81.0,14.0,15.0,6.0,0.0
11125,80.0,0.0,15.0,8.0,0.0
11126,80.0,29.0,15.0,4.0,0.0
11127,80.0,0.0,15.0,6.0,0.0
11128,81.0,30.0,30.0,8.0,0.0
11129,81.0,0.0,30.0,6.0,0.0
11130,81.0,0.0,30.0,0.0,0.0
11131,81.0,0.0,30.0,4.0,0.0
11132,71.0,30.0,60.0,10.0,0.0
11133,81.0,0.0,30.0,8.0,0.0
11134,81.0,0.0,30.0,0.0,0.0
11135,71.0,0.0,60.0,5.0,0.0
11136,64.0,0.0,60.0,5.0,0.0
11137,62.0,0.0,60.0,5.0,0.0
11138,62.0,0.0,60.0,7.0,0.0
11139,81.0,0.0,30.0,6.0,0.0
11140,81.0,1.0,30.0,4.0,0.0
11141,62.0,0.0,60.0,10.0,0.0
11142,71.0,0.0,60.0,7.0,0.0
11143,64.0,0.0,60.0,7.0,0.0
11144,62.0,29.0,30.0,3.0,0.0
11145,64.0,0.0,60.0,10.0,0.0
11146,80.0,0.0,60.0,6.0,0.0
11147,80.0,0.0,60.0,8.0,0.0
11148,80.0,0.0,60.0,4.0,0.0
11149,80.0,1.0,60.0,0.0,0.0
11150,76.0,29.0,30.0,1.0,0.0
11151,71.0,0.0,30.0,2.0,0.0
11152,62.0,0.0,30.0,3.0,0.0
11153,83.0,31.0,30.0,8.0,0.0
11154,83.0,0.0,30.0,0.0,0.0
11155,83.0,0.0,30.0,4.0,0.0
11156,83.0,0.0,30.0,6.0,0.0
11157,88.0,0.0,60.0,4.0,0.0
11158,80.0,0.0,30.0,1.0,0.0
11159,71.0,0.0,30.0,2.0,0.0
11160,88.0,30.0,60.0,8.0,0.0
11161,62.0,29.0,30.0,3.0,0.0
11162,88.0,0.0,60.0,6.0,0.0
11163,88.0,0.0,60.0,0.0,0.0
11164,68.0,0.0,60.0,10.0,0.0
11165,76.0,0.0,30.0,6.0,0.0
11166,76.0,1.0,30.0,4.0,0.0
11167,62.0,29.0,30.0,3.0,0.0
11168,76.0,0.0,30.0,8.0,0.0
11169,71.0,0.0,60.0,10.0,0.0
11170,71.0,0.0,60.0,7.0,0.0
11171,62.0,0.0,60.0,7.0,0.0
11172,68.0,0.0,60.0,7.0,0.0
11173,76.0,0.0,30.0,0.0,0.0
11174,71.0,0.0,60.0,5.0,0.0
11175,68.0,0.0,60.0,5.0,0.0
11176,62.0,0.0,60.0,5.0,0.0
11177,62.0,11.0,60.0,10.0,0.0
11178,78.0,0.0,30.0,8.0,0.0
11179,78.0,0.0,30.0,0.0,0.0
11180,78.0,0.0,30.0,6.0,0.0
11181,78.0,0.0,30.0,4.0,0.0
11182,71.0,8.0,30.0,2.0,0.0
11183,76.0,0.0,30.0,1.0,0.0
11184,62.0,0.0,30.0,3.0,0.0
11185,80.0,0.0,15.0,8.0,0.0
11186,80.0,0.0,15.0,4.0,0.0
11187,80.0,0.0,15.0,0.0,0.0
11188,80.0,10.0,15.0,6.0,0.0
11189,78.0,10.0,15.0,4.0,0.0
11190,78.0,0.0,15.0,0.0,0.0
11191,78.0,0.0,15.0,6.0,0.0
11192,78.0,0.0,15.0,8.0,0.0
11193,80.0,0.0,15.0,0.0,0.0
11194,80.0,0.0,15.0,8.0,0.0
11195,80.0,0.0,15.0,6.0,0.0
11196,80.0,0.0,15.0,4.0,0.0
11197,78.0,0.0,15.0,8.0,0.0
11198,78.0,0.0,15.0,6.0,0.0
11199,78.0,7.0,15.0,4.0,0.0
11200,78.0,0.0,15.0,0.0,0.0
11201,80.0,0.0,15.0,4.0,0.0
11202,80.0,0.0,15.0,6.0,0.0
11203,80.0,8.0,15.0,8.0,0.0
11204,80.0,0.0,15.0,0.0,0.0
11205,78.0,0.0,15.0,0.0,0.0
11206,78.0,0.0,15.0,4.0,0.0
11207,78.0,0.0,15.0,6.0,0.0
11208,78.0,7.0,15.0,8.0,0.0
11209,80.0,0.0,15.0,4.0,0.0
11210,80.0,0.0,15.0,6.0,0.0
11211,80.0,0.0,15.0,0.0,0.0
11212,80.0,10.0,15.0,8.0,0.0
11213,62.0,0.0,30.0,3.0,0.0
11214,78.0,0.0,15.0,0.0,0.0
11215,71.0,0.0,30.0,1.0,0.0
11216,78.0,0.0,15.0,6.0,0.0
11217,78.0,0.0,15.0,8.0,0.0
11218,68.0,0.0,30.0,2.0,0.0
11219,78.0,10.0,15.0,4.0,0.0
11220,80.0,10.0,15.0,6.0,0.0
11221,80.0,0.0,15.0,4.0,0.0
11222,80.0,0.0,15.0,0.0,0.0
11223,80.0,0.0,15.0,8.0,0.0
11224,78.0,0.0,15.0,4.0,0.0
11225,78.0,0.0,15.0,6.0,0.0
11226,78.0,14.0,15.0,0.0,0.0
11227,78.0,0.0,15.0,8.0,0.0
11228,76.0,15.0,15.0,4.0,0.0
11229,76.0,0.0,15.0,6.0,0.0
11230,76.0,0.0,15.0,8.0,0.0
11231,76.0,0.0,15.0,0.0,0.0
11232,78.0,0.0,15.0,6.0,0.0
11233,78.0,0.0,15.0,8.0,0.0
11234,78.0,0.0,15.0,0.0,0.0
11235,78.0,30.0,15.0,4.0,0.0
11236,64.0,0.0,60.0,5.0,0.0
11237,69.0,30.0,60.0,7.0,0.0
11238,78.0,0.0,30.0,6.0,0.0
11239,61.0,0.0,60.0,10.0,0.0
11240,64.0,0.0,60.0,10.0,0.0
11241,69.0,0.0,60.0,10.0,0.0
11242,61.0,29.0,30.0,3.0,0.0
11243,64.0,0.0,60.0,7.0,0.0
11244,69.0,0.0,60.0,5.0,0.0
11245,78.0,0.0,30.0,8.0,0.0
11246,61.0,0.0,60.0,7.0,0.0
11247,78.0,0.0,30.0,0.0,0.0
11248,61.0,0.0,60.0,5.0,0.0
11249,78.0,1.0,30.0,4.0,0.0
11250,79.0,0.0,60.0,4.0,0.0
11251,79.0,0.0,60.0,0.0,0.0
11252,79.0,0.0,60.0,6.0,0.0
11253,79.0,1.0,60.0,8.0,0.0
11254,69.0,0.0,30.0,1.0,0.0
11255,61.0,0.0,30.0,3.0,0.0
11256,64.0,29.0,30.0,2.0,0.0
11257,83.0,0.0,30.0,8.0,0.0
11258,83.0,31.0,30.0,0.0,0.0
11259,83.0,0.0,30.0,4.0,0.0
11260,83.0,0.0,30.0,6.0,0.0
11261,69.0,0.0,30.0,2.0,0.0
11262,81.0,0.0,120.0,4.0,0.0
11263,81.0,0.0,120.0,6.0,0.0
11264,61.0,60.0,30.0,3.0,0.0
11265,76.0,0.0,30.0,1.0,0.0
11266,81.0,30.0,120.0,8.0,0.0
11267,81.0,0.0,120.0,0.0,0.0
11268,69.0,0.0,60.0,5.0,0.0
11269,64.0,0.0,60.0,5.0,0.0
11270,61.0,0.0,60.0,5.0,0.0
11271,64.0,0.0,60.0,7.0,0.0
11272,61.0,29.0,30.0,3.0,0.0
11273,69.0,0.0,60.0,10.0,0.0
11274,64.0,0.0,60.0,10.0,0.0
11275,61.0,0.0,60.0,10.0,0.0
11276,69.0,0.0,60.0,7.0,0.0
11277,61.0,0.0,60.0,7.0,0.0
11278,61.0,0.0,30.0,3.0,0.0
11279,76.0,0.0,30.0,4.0,0.0
11280,76.0,0.0,30.0,0.0,0.0
11281,76.0,1.0,30.0,6.0,0.0
11282,76.0,0.0,30.0,8.0,0.0
11283,76.0,29.0,30.0,1.0,0.0
11284,69.0,0.0,30.0,2.0,0.0
11285,79.0,0.0,30.0,6.0,0.0
11286,79.0,0.0,30.0,8.0,0.0
11287,79.0,0.0,30.0,4.0,0.0
11288,79.0,30.0,30.0,0.0,0.0
11289,64.0,0.0,30.0,2.0,0.0
11290,78.0,0.0,30.0,4.0,0.0
11291,69.0,0.0,30.0,1.0,0.0
11292,78.0,0.0,30.0,6.0,0.0
11293,61.0,29.0,30.0,3.0,0.0
11294,78.0,0.0,30.0,0.0,0.0
11295,78.0,1.0,30.0,8.0,0.0
11296,79.0,0.0,30.0,8.0,0.0
11297,79.0,0.0,30.0,0.0,0.0
11298,79.0,30.0,30.0,4.0,0.0
11299,79.0,0.0,30.0,6.0,0.0
11300,79.0,0.0,30.0,0.0,0.0
11301,62.0,8.0,30.0,3.0,0.0
11302,79.0,0.0,30.0,6.0,0.0
11303,62.0,0.0,60.0,7.0,0.0
11304,66.0,0.0,60.0,10.0,0.0
11305,79.0,0.0,30.0,4.0,0.0
11306,69.0,0.0,60.0,5.0,0.0
11307,66.0,0.0,60.0,5.0,0.0
11308,69.0,0.0,60.0,10.0,0.0
11309,79.0,1.0,30.0,8.0,0.0
11310,62.0,30.0,60.0,5.0,0.0
11311,62.0,0.0,60.0,10.0,0.0
11312,69.0,0.0,60.0,7.0,0.0
11313,66.0,0.0,60.0,7.0,0.0
11314,78.0,0.0,15.0,4.0,0.0
11315,78.0,7.0,15.0,8.0,0.0
11316,78.0,1.0,60.0,0.0,0.0
11317,78.0,0.0,15.0,6.0,0.0
11318,76.0,0.0,15.0,6.0,0.0
11319,76.0,0.0,15.0,8.0,0.0
11320,76.0,14.0,15.0,4.0,0.0
11321,78.0,0.0,60.0,4.0,0.0
11322,78.0,0.0,60.0,8.0,0.0
11323,78.0,29.0,60.0,6.0,0.0
11324,62.0,0.0,30.0,3.0,0.0
11325,69.0,0.0,30.0,1.0,0.0
11326,62.0,0.0,30.0,2.0,0.0
11327,79.0,0.0,30.0,0.0,0.0
11328,79.0,0.0,30.0,8.0,0.0
11329,79.0,0.0,30.0,4.0,0.0
11330,79.0,31.0,30.0,6.0,0.0
11331,62.0,0.0,30.0,3.0,0.0
11332,81.0,0.0,60.0,0.0,0.0
11333,81.0,30.0,60.0,8.0,0.0
11334,81.0,0.0,60.0,6.0,0.0
11335,66.0,29.0,30.0,2.0,0.0
11336,74.0,0.0,30.0,1.0,0.0
11337,81.0,0.0,60.0,4.0,0.0
11338,69.0,0.0,60.0,5.0,0.0
11339,62.0,0.0,60.0,5.0,0.0
11340,79.0,0.0,30.0,6.0,0.0
11341,69.0,0.0,60.0,7.0,0.0
11342,62.0,0.0,60.0,7.0,0.0
11343,62.0,29.0,30.0,3.0,0.0
11344,79.0,1.0,30.0,0.0,0.0
11345,69.0,0.0,60.0,10.0,0.0
11346,62.0,0.0,60.0,10.0,0.0
11347,79.0,0.0,30.0,8.0,0.0
11348,79.0,0.0,30.0,4.0,0.0
11349,78.0,0.0,30.0,0.0,0.0
11350,78.0,0.0,30.0,6.0,0.0
11351,78.0,30.0,30.0,8.0,0.0
11352,78.0,0.0,30.0,4.0,0.0
11353,76.0,0.0,30.0,8.0,0.0
11354,76.0,1.0,30.0,6.0,0.0
11355,76.0,0.0,30.0,0.0,0.0
11356,66.0,0.0,30.0,2.0,0.0
11357,76.0,0.0,30.0,4.0,0.0
11358,62.0,0.0,30.0,3.0,0.0
11359,69.0,29.0,30.0,1.0,0.0
11360,74.0,0.0,30.0,8.0,0.0
11361,74.0,30.0,30.0,6.0,0.0
11362,74.0,0.0,30.0,0.0,0.0
11363,74.0,0.0,30.0,4.0,0.0
11364,73.0,0.0,30.0,6.0,0.0
11365,73.0,1.0,30.0,0.0,0.0
11366,62.0,0.0,30.0,3.0,0.0
11367,66.0,29.0,30.0,1.0,0.0
11368,73.0,0.0,30.0,4.0,0.0
11369,73.0,0.0,30.0,8.0,0.0
11370,62.0,0.0,30.0,2.0,0.0
11371,71.0,0.0,30.0,8.0,0.0
11372,71.0,0.0,30.0,4.0,0.0
11373,71.0,30.0,30.0,0.0,0.0
11374,71.0,0.0,30.0,6.0,0.0
11375,73.0,1.0,30.0,6.0,0.0
11376,73.0,0.0,30.0,8.0,0.0
11377,59.0,0.0,60.0,7.0,0.0
11378,56.0,0.0,60.0,7.0,0.0
11379,64.0,0.0,60.0,7.0,0.0
11380,64.0,30.0,60.0,5.0,0.0
11381,56.0,0.0,60.0,5.0,0.0
11382,73.0,0.0,30.0,0.0,0.0
11383,64.0,0.0,60.0,10.0,0.0
11384,59.0,0.0,60.0,10.0,0.0
11385,56.0,0.0,60.0,10.0,0.0
11386,73.0,0.0,30.0,4.0,0.0
11387,56.0,29.0,30.0,3.0,0.0
11388,59.0,0.0,60.0,5.0,0.0
11389,74.0,0.0,60.0,6.0,0.0
11390,74.0,1.0,60.0,4.0,0.0
11391,74.0,0.0,60.0,8.0,0.0
11392,74.0,0.0,60.0,0.0,0.0
11393,56.0,0.0,30.0,3.0,0.0
11394,64.0,0.0,30.0,1.0,0.0
11395,59.0,29.0,30.0,2.0,0.0
11396,76.0,0.0,30.0,6.0,0.0
11397,76.0,0.0,30.0,8.0,0.0
11398,76.0,0.0,30.0,4.0,0.0
11399,76.0,31.0,30.0,0.0,0.0
11400,74.0,0.0,90.0,4.0,0.0
11401,56.0,0.0,30.0,3.0,0.0
11402,64.0,0.0,30.0,2.0,0.0
11403,71.0,59.0,30.0,1.0,0.0
11404,74.0,0.0,90.0,0.0,0.0
11405,74.0,1.0,90.0,6.0,0.0
11406,74.0,0.0,90.0,8.0,0.0
11407,56.0,30.0,60.0,10.0,0.0
11408,64.0,0.0,60.0,7.0,0.0
11409,59.0,0.0,60.0,7.0,0.0
11410,56.0,0.0,60.0,7.0,0.0
11411,56.0,0.0,60.0,5.0,0.0
11412,59.0,0.0,60.0,10.0,0.0
11413,64.0,0.0,60.0,10.0,0.0
11414,59.0,0.0,60.0,5.0,0.0
11415,64.0,0.0,60.0,5.0,0.0
11416,56.0,29.0,30.0,3.0,0.0
11417,83.0,0.0,30.0,4.0,0.0
11418,83.0,0.0,30.0,6.0,0.0
11419,83.0,0.0,30.0,8.0,0.0
11420,83.0,0.0,30.0,0.0,0.0
11421,81.0,0.0,30.0,0.0,0.0
11422,81.0,0.0,30.0,6.0,0.0
11423,71.0,29.0,30.0,2.0,0.0
11424,81.0,1.0,30.0,8.0,0.0
11425,81.0,0.0,30.0,4.0,0.0
11426,56.0,0.0,30.0,3.0,0.0
11427,76.0,0.0,30.0,1.0,0.0
11428,80.0,30.0,30.0,6.0,0.0
11429,80.0,0.0,30.0,0.0,0.0
11430,80.0,0.0,30.0,8.0,0.0
11431,80.0,0.0,30.0,4.0,0.0
11432,78.0,1.0,30.0,0.0,0.0
11433,64.0,29.0,30.0,2.0,0.0
11434,71.0,0.0,30.0,1.0,0.0
11435,78.0,0.0,30.0,8.0,0.0
11436,78.0,0.0,30.0,6.0,0.0
11437,56.0,0.0,30.0,3.0,0.0
11438,78.0,0.0,30.0,4.0,0.0
11439,76.0,30.0,30.0,0.0,0.0
11440,76.0,0.0,30.0,8.0,0.0
11441,76.0,0.0,30.0,4.0,0.0
11442,76.0,0.0,30.0,6.0,0.0
11443,61.0,0.0,60.0,5.0,0.0
11444,64.0,0.0,60.0,10.0,0.0
11445,61.0,30.0,60.0,10.0,0.0
11446,57.0,0.0,60.0,10.0,0.0
11447,74.0,0.0,30.0,0.0,0.0
11448,74.0,1.0,30.0,6.0,0.0
11449,57.0,29.0,30.0,3.0,0.0
11450,64.0,0.0,60.0,5.0,0.0
11451,57.0,0.0,60.0,7.0,0.0
11452,61.0,0.0,60.0,7.0,0.0
11453,74.0,0.0,30.0,8.0,0.0
11454,64.0,0.0,60.0,7.0,0.0
11455,74.0,0.0,30.0,4.0,0.0
11456,57.0,0.0,60.0,5.0,0.0
11457,73.0,0.0,60.0,8.0,0.0
11458,73.0,0.0,60.0,0.0,0.0
11459,73.0,1.0,60.0,4.0,0.0
11460,73.0,0.0,60.0,6.0,0.0
11461,64.0,0.0,30.0,2.0,0.0
11462,73.0,29.0,30.0,1.0,0.0
11463,57.0,0.0,30.0,3.0,0.0
11464,76.0,0.0,30.0,0.0,0.0
11465,76.0,0.0,30.0,6.0,0.0
11466,76.0,31.0,30.0,8.0,0.0
11467,76.0,0.0,30.0,4.0,0.0
11468,81.0,0.0,90.0,0.0,0.0
11469,76.0,0.0,30.0,1.0,0.0
11470,81.0,0.0,90.0,6.0,0.0
11471,81.0,0.0,90.0,4.0,0.0
11472,81.0,1.0,90.0,8.0,0.0
11473,73.0,0.0,30.0,2.0,0.0
11474,57.0,59.0,30.0,3.0,0.0
11475,57.0,0.0,60.0,10.0,0.0
11476,64.0,0.0,60.0,5.0,0.0
11477,61.0,9.0,60.0,5.0,0.0
11478,57.0,29.0,30.0,3.0,0.0
11479,61.0,0.0,60.0,10.0,0.0
11480,61.0,0.0,60.0,7.0,0.0
11481,64.0,0.0,60.0,10.0,0.0
11482,57.0,0.0,60.0,7.0,0.0
11483,57.0,0.0,60.0,5.0,0.0
11484,64.0,0.0,60.0,7.0,0.0
11485,83.0,0.0,30.0,6.0,0.0
11486,83.0,0.0,30.0,0.0,0.0
11487,83.0,0.0,30.0,4.0,0.0
11488,83.0,0.0,30.0,8.0,0.0
11489,85.0,7.0,15.0,6.0,0.0
11490,85.0,0.0,15.0,8.0,0.0
11491,80.0,0.0,30.0,1.0,0.0
11492,57.0,0.0,30.0,3.0,0.0
11493,85.0,0.0,15.0,4.0,0.0
11494,74.0,0.0,30.0,2.0,0.0
11495,83.0,1.0,30.0,0.0,0.0
11496,83.0,8.0,15.0,6.0,0.0
11497,83.0,0.0,15.0,4.0,0.0
11498,83.0,0.0,15.0,8.0,0.0
11499,85.0,0.0,15.0,4.0,0.0
11500,85.0,6.0,15.0,8.0,0.0
11501,85.0,0.0,15.0,6.0,0.0
11502,83.0,0.0,15.0,6.0,0.0
11503,83.0,14.0,15.0,4.0,0.0
11504,83.0,0.0,15.0,8.0,0.0
11505,81.0,0.0,15.0,0.0,0.0
11506,81.0,0.0,15.0,8.0,0.0
11507,81.0,15.0,15.0,4.0,0.0
11508,81.0,0.0,15.0,6.0,0.0
11509,83.0,0.0,15.0,8.0,0.0
11510,83.0,31.0,15.0,6.0,0.0
11511,83.0,0.0,15.0,0.0,0.0
11512,83.0,0.0,15.0,4.0,0.0
11513,85.0,0.0,90.0,8.0,0.0
11514,85.0,0.0,90.0,4.0,0.0
11515,85.0,0.0,90.0,6.0,0.0
11516,81.0,0.0,30.0,1.0,0.0
11517,57.0,0.0,30.0,3.0,0.0
11518,76.0,59.0,30.0,2.0,0.0
11519,85.0,1.0,90.0,0.0,0.0
11520,63.0,0.0,60.0,7.0,0.0
11521,63.0,0.0,60.0,10.0,0.0
11522,54.0,0.0,60.0,7.0,0.0
11523,57.0,30.0,60.0,10.0,0.0
11524,54.0,0.0,60.0,5.0,0.0
11525,63.0,0.0,60.0,5.0,0.0
11526,54.0,0.0,60.0,10.0,0.0
11527,51.0,29.0,30.0,3.0,0.0
11528,57.0,0.0,60.0,7.0,0.0
11529,57.0,0.0,60.0,5.0,0.0
11530,83.0,0.0,30.0,6.0,0.0
11531,83.0,0.0,30.0,8.0,0.0
11532,83.0,0.0,30.0,4.0,0.0
11533,83.0,0.0,30.0,0.0,0.0
11534,78.0,29.0,30.0,1.0,0.0
11535,81.0,1.0,30.0,6.0,0.0
11536,73.0,0.0,30.0,2.0,0.0
11537,81.0,0.0,30.0,0.0,0.0
11538,81.0,0.0,30.0,8.0,0.0
11539,51.0,0.0,30.0,3.0,0.0
11540,81.0,0.0,30.0,4.0,0.0
11541,80.0,0.0,30.0,8.0,0.0
11542,80.0,0.0,30.0,4.0,0.0
11543,80.0,30.0,30.0,0.0,0.0
11544,80.0,0.0,30.0,6.0,0.0
11545,51.0,0.0,30.0,3.0,0.0
11546,81.0,0.0,30.0,6.0,0.0
11547,81.0,0.0,30.0,8.0,0.0
11548,73.0,29.0,30.0,1.0,0.0
11549,81.0,0.0,30.0,4.0,0.0
11550,66.0,0.0,30.0,2.0,0.0
11551,81.0,1.0,30.0,0.0,0.0
11552,78.0,0.0,30.0,6.0,0.0
11553,78.0,0.0,30.0,8.0,0.0
11554,78.0,31.0,30.0,4.0,0.0
11555,78.0,0.0,30.0,0.0,0.0
11556,59.0,0.0,60.0,7.0,0.0
11557,51.0,0.0,60.0,7.0,0.0
11558,51.0,0.0,60.0,5.0,0.0
11559,54.0,0.0,60.0,5.0,0.0
11560,54.0,30.0,60.0,7.0,0.0
11561,59.0,0.0,60.0,5.0,0.0
11562,59.0,0.0,60.0,10.0,0.0
11563,51.0,29.0,30.0,3.0,0.0
11564,71.0,0.0,90.0,4.0,0.0
11565,71.0,1.0,90.0,0.0,0.0
11566,51.0,0.0,60.0,10.0,0.0
11567,54.0,0.0,60.0,10.0,0.0
11568,71.0,0.0,90.0,8.0,0.0
11569,71.0,0.0,90.0,6.0,0.0
11570,51.0,0.0,30.0,3.0,0.0
11571,71.0,29.0,30.0,1.0,0.0
11572,66.0,0.0,30.0,2.0,0.0
11573,85.0,31.0,30.0,4.0,0.0
11574,85.0,0.0,30.0,0.0,0.0
11575,85.0,0.0,30.0,8.0,0.0
11576,85.0,0.0,30.0,6.0,0.0
11577,83.0,0.0,60.0,0.0,0.0
11578,78.0,0.0,30.0,1.0,0.0
11579,71.0,29.0,30.0,2.0,0.0
11580,83.0,0.0,60.0,4.0,0.0
11581,83.0,30.0,60.0,8.0,0.0
11582,51.0,0.0,30.0,3.0,0.0
11583,83.0,0.0,60.0,6.0,0.0
11584,52.0,0.0,60.0,10.0,0.0
11585,59.0,0.0,60.0,10.0,0.0
11586,64.0,0.0,60.0,10.0,0.0
11587,81.0,1.0,30.0,4.0,0.0
11588,81.0,0.0,30.0,6.0,0.0
11589,52.0,0.0,60.0,5.0,0.0
11590,64.0,0.0,60.0,5.0,0.0
11591,59.0,0.0,60.0,7.0,0.0
11592,52.0,29.0,30.0,3.0,0.0
11593,52.0,0.0,60.0,7.0,0.0
11594,81.0,0.0,30.0,0.0,0.0
11595,81.0,0.0,30.0,8.0,0.0
11596,59.0,0.0,60.0,5.0,0.0
11597,64.0,30.0,60.0,7.0,0.0
11598,80.0,1.0,60.0,4.0,0.0
11599,80.0,0.0,60.0,0.0,0.0
11600,80.0,0.0,60.0,6.0,0.0
11601,80.0,0.0,60.0,8.0,0.0
11602,52.0,0.0,30.0,3.0,0.0
11603,71.0,29.0,30.0,2.0,0.0
11604,76.0,0.0,30.0,1.0,0.0
11605,78.0,0.0,30.0,8.0,0.0
11606,78.0,0.0,30.0,0.0,0.0
11607,78.0,0.0,30.0,6.0,0.0
11608,78.0,31.0,30.0,4.0,0.0
11609,76.0,0.0,90.0,6.0,0.0
11610,71.0,0.0,30.0,1.0,0.0
11611,76.0,1.0,90.0,8.0,0.0
11612,68.0,0.0,30.0,2.0,0.0
11613,52.0,59.0,30.0,3.0,0.0
11614,76.0,0.0,90.0,4.0,0.0
11615,76.0,0.0,90.0,0.0,0.0
11616,59.0,0.0,60.0,7.0,0.0
11617,56.0,0.0,60.0,7.0,0.0
11618,52.0,0.0,60.0,7.0,0.0
11619,52.0,29.0,30.0,3.0,0.0
11620,56.0,0.0,60.0,5.0,0.0
11621,59.0,0.0,60.0,10.0,0.0
11622,59.0,0.0,60.0,5.0,0.0
11623,52.0,0.0,60.0,5.0,0.0
11624,52.0,0.0,60.0,10.0,0.0
11625,56.0,30.0,60.0,10.0,0.0
11626,78.0,0.0,30.0,8.0,0.0
11627,78.0,0.0,30.0,4.0,0.0
11628,78.0,0.0,30.0,6.0,0.0
11629,78.0,0.0,30.0,0.0,0.0
11630,76.0,0.0,30.0,1.0,0.0
11631,71.0,29.0,30.0,2.0,0.0
11632,52.0,0.0,30.0,3.0,0.0
11633,80.0,0.0,30.0,6.0,0.0
11634,80.0,0.0,30.0,0.0,0.0
11635,80.0,1.0,30.0,4.0,0.0
11636,80.0,0.0,30.0,8.0,0.0
11637,81.0,30.0,30.0,6.0,0.0
11638,81.0,0.0,30.0,4.0,0.0
11639,81.0,0.0,30.0,0.0,0.0
11640,81.0,0.0,30.0,8.0,0.0
11641,52.0,0.0,30.0,3.0,0.0
11642,80.0,29.0,30.0,1.0,0.0
11643,83.0,0.0,30.0,8.0,0.0
11644,83.0,0.0,30.0,6.0,0.0
11645,83.0,1.0,30.0,4.0,0.0
11646,64.0,0.0,30.0,2.0,0.0
11647,83.0,0.0,30.0,0.0,0.0
11648,85.0,30.0,30.0,6.0,0.0
11649,85.0,0.0,30.0,4.0,0.0
11650,85.0,0.0,30.0,8.0,0.0
11651,85.0,0.0,30.0,0.0,0.0
11652,56.0,0.0,60.0,5.0,0.0
11653,59.0,0.0,60.0,5.0,0.0
11654,52.0,29.0,30.0,3.0,0.0
11655,52.0,0.0,60.0,5.0,0.0
11656,85.0,0.0,30.0,0.0,0.0
11657,59.0,0.0,60.0,7.0,0.0
11658,85.0,1.0,30.0,6.0,0.0
11659,52.0,0.0,60.0,7.0,0.0
11660,59.0,0.0,60.0,10.0,0.0
11661,56.0,0.0,60.0,10.0,0.0
11662,52.0,0.0,60.0,10.0,0.0
11663,85.0,0.0,30.0,4.0,0.0
11664,85.0,0.0,30.0,8.0,0.0
11665,56.0,30.0,60.0,7.0,0.0
11666,86.0,0.0,60.0,0.0,0.0
11667,86.0,0.0,60.0,8.0,0.0
11668,86.0,0.0,60.0,4.0,0.0
11669,86.0,1.0,60.0,6.0,0.0
11670,80.0,29.0,30.0,1.0,0.0
11671,52.0,0.0,30.0,3.0,0.0
11672,64.0,0.0,30.0,2.0,0.0
11673,83.0,0.0,30.0,6.0,0.0
11674,83.0,0.0,30.0,4.0,0.0
11675,83.0,0.0,30.0,8.0,0.0
11676,83.0,30.0,30.0,0.0,0.0
11677,83.0,0.0,30.0,6.0,0.0
11678,64.0,0.0,30.0,2.0,0.0
11679,83.0,0.0,30.0,0.0,0.0
11680,83.0,1.0,30.0,4.0,0.0
11681,81.0,60.0,30.0,1.0,0.0
11682,52.0,0.0,30.0,3.0,0.0
11683,83.0,0.0,30.0,8.0,0.0
11684,85.0,0.0,90.0,4.0,0.0
11685,85.0,0.0,90.0,8.0,0.0
11686,85.0,0.0,90.0,0.0,0.0
11687,85.0,0.0,90.0,6.0,0.0
11688,57.0,0.0,60.0,5.0,0.0
11689,54.0,9.0,60.0,5.0,0.0
11690,52.0,0.0,60.0,5.0,0.0
11691,63.0,0.0,60.0,5.0,0.0
11692,57.0,0.0,60.0,7.0,0.0
11693,54.0,0.0,60.0,7.0,0.0
11694,52.0,0.0,60.0,10.0,0.0
11695,63.0,0.0,60.0,10.0,0.0
11696,52.0,0.0,60.0,7.0,0.0
11697,57.0,0.0,60.0,10.0,0.0
11698,54.0,0.0,60.0,10.0,0.0
11699,63.0,0.0,60.0,7.0,0.0
11700,52.0,29.0,30.0,3.0,0.0
11701,83.0,1.0,30.0,0.0,0.0
11702,83.0,0.0,15.0,8.0,0.0
11703,83.0,7.0,15.0,6.0,0.0
11704,52.0,0.0,30.0,3.0,0.0
11705,63.0,0.0,30.0,2.0,0.0
11706,78.0,0.0,30.0,1.0,0.0
11707,83.0,0.0,15.0,4.0,0.0
11708,85.0,0.0,15.0,8.0,0.0
11709,85.0,0.0,15.0,6.0,0.0
11710,85.0,14.0,15.0,4.0,0.0
11711,83.0,0.0,15.0,8.0,0.0
11712,83.0,29.0,15.0,6.0,0.0
11713,83.0,0.0,15.0,4.0,0.0
11714,81.0,0.0,30.0,6.0,0.0
11715,81.0,0.0,30.0,4.0,0.0
11716,81.0,0.0,30.0,8.0,0.0
11717,81.0,30.0,30.0,0.0,0.0
11718,66.0,29.0,30.0,2.0,0.0
11719,80.0,0.0,30.0,8.0,0.0
11720,80.0,0.0,30.0,4.0,0.0
11721,80.0,1.0,30.0,0.0,0.0
11722,80.0,0.0,30.0,6.0,0.0
11723,71.0,0.0,30.0,1.0,0.0
11724,52.0,0.0,30.0,3.0,0.0
11725,81.0,0.0,30.0,8.0,0.0
11726,81.0,30.0,30.0,6.0,0.0
11727,81.0,0.0,30.0,4.0,0.0
11728,81.0,0.0,30.0,0.0,0.0
11729,64.0,0.0,60.0,5.0,0.0
11730,52.0,0.0,60.0,10.0,0.0
11731,81.0,1.0,30.0,8.0,0.0
11732,59.0,0.0,60.0,5.0,0.0
11733,52.0,0.0,60.0,5.0,0.0
11734,81.0,0.0,30.0,0.0,0.0
11735,59.0,0.0,60.0,10.0,0.0
11736,81.0,0.0,30.0,6.0,0.0
11737,81.0,0.0,30.0,4.0,0.0
11738,52.0,29.0,30.0,3.0,0.0
11739,64.0,0.0,60.0,7.0,0.0
11740,59.0,30.0,60.0,7.0,0.0
11741,52.0,0.0,60.0,7.0,0.0
11742,64.0,0.0,60.0,10.0,0.0
11743,80.0,0.0,60.0,6.0,0.0
11744,80.0,1.0,60.0,0.0,0.0
11745,80.0,0.0,60.0,8.0,0.0
11746,80.0,0.0,60.0,4.0,0.0
11747,52.0,0.0,30.0,3.0,0.0
11748,71.0,0.0,30.0,1.0,0.0
11749,64.0,29.0,30.0,2.0,0.0
11750,81.0,0.0,30.0,8.0,0.0
11751,81.0,0.0,30.0,6.0,0.0
11752,81.0,31.0,30.0,4.0,0.0
11753,81.0,0.0,30.0,0.0,0.0
11754,83.0,30.0,60.0,4.0,0.0
11755,83.0,0.0,60.0,6.0,0.0
11756,52.0,29.0,30.0,3.0,0.0
11757,83.0,0.0,60.0,0.0,0.0
11758,68.0,0.0,30.0,2.0,0.0
11759,83.0,0.0,60.0,8.0,0.0
11760,76.0,0.0,30.0,1.0,0.0
11761,56.0,0.0,60.0,7.0,0.0
11762,59.0,30.0,60.0,7.0,0.0
11763,52.0,29.0,30.0,3.0,0.0
11764,76.0,1.0,30.0,4.0,0.0
11765,52.0,0.0,60.0,7.0,0.0
11766,76.0,0.0,30.0,8.0,0.0
11767,59.0,0.0,60.0,10.0,0.0
11768,52.0,0.0,60.0,10.0,0.0
11769,76.0,0.0,30.0,6.0,0.0
11770,52.0,0.0,60.0,5.0,0.0
11771,56.0,0.0,60.0,5.0,0.0
11772,59.0,0.0,60.0,5.0,0.0
11773,76.0,0.0,30.0,0.0,0.0
11774,56.0,0.0,60.0,10.0,0.0
11775,80.0,0.0,30.0,0.0,0.0
11776,80.0,0.0,30.0,4.0,0.0
11777,71.0,0.0,30.0,2.0,0.0
11778,52.0,59.0,30.0,3.0,0.0
11779,80.0,0.0,30.0,8.0,0.0
11780,80.0,1.0,30.0,6.0,0.0
11781,76.0,0.0,30.0,1.0,0.0
11782,80.0,0.0,30.0,1.0,0.0
11783,83.0,0.0,30.0,0.0,0.0
11784,83.0,0.0,30.0,4.0,0.0
11785,76.0,0.0,30.0,2.0,0.0
11786,83.0,1.0,30.0,6.0,0.0
11787,52.0,60.0,30.0,3.0,0.0
11788,83.0,0.0,30.0,8.0,0.0
11789,52.0,0.0,60.0,10.0,0.0
11790,61.0,0.0,60.0,5.0,0.0
11791,61.0,0.0,60.0,10.0,0.0
11792,52.0,0.0,60.0,5.0,0.0
11793,88.0,0.0,90.0,6.0,0.0
11794,88.0,0.0,90.0,8.0,0.0
11795,52.0,29.0,30.0,3.0,0.0
11796,57.0,0.0,60.0,5.0,0.0
11797,57.0,0.0,60.0,10.0,0.0
11798,88.0,0.0,90.0,0.0,0.0
11799,88.0,1.0,90.0,4.0,0.0
11800,61.0,0.0,60.0,7.0,0.0
11801,57.0,0.0,60.0,7.0,0.0
11802,52.0,30.0,60.0,7.0,0.0
11803,75.0,0.0,30.0,2.0,0.0
11804,81.0,29.0,30.0,1.0,0.0
11805,52.0,0.0,30.0,3.0,0.0
11806,85.0,0.0,30.0,0.0,0.0
11807,85.0,0.0,30.0,6.0,0.0
11808,85.0,0.0,30.0,8.0,0.0
11809,85.0,30.0,30.0,4.0,0.0
11810,85.0,1.0,30.0,4.0,0.0
11811,52.0,0.0,30.0,3.0,0.0
11812,85.0,0.0,30.0,0.0,0.0
11813,85.0,0.0,30.0,6.0,0.0
11814,80.0,60.0,30.0,1.0,0.0
11815,73.0,0.0,30.0,2.0,0.0
11816,85.0,0.0,30.0,8.0,0.0
11817,86.0,0.0,60.0,8.0,0.0
11818,86.0,29.0,60.0,4.0,0.0
11819,86.0,0.0,60.0,6.0,0.0
11820,86.0,0.0,60.0,0.0,0.0
11821,56.0,0.0,60.0,5.0,0.0
11822,59.0,0.0,60.0,5.0,0.0
11823,52.0,0.0,60.0,5.0,0.0
11824,52.0,0.0,60.0,7.0,0.0
11825,56.0,0.0,60.0,7.0,0.0
11826,56.0,0.0,60.0,10.0,0.0
11827,52.0,0.0,60.0,10.0,0.0
11828,59.0,0.0,60.0,7.0,0.0
11829,52.0,0.0,30.0,3.0,0.0
11830,59.0,0.0,60.0,10.0,0.0
11831,83.0,0.0,30.0,4.0,0.0
11832,83.0,30.0,30.0,0.0,0.0
11833,83.0,0.0,30.0,8.0,0.0
11834,83.0,0.0,30.0,6.0,0.0
11835,76.0,0.0,30.0,2.0,0.0
11836,52.0,29.0,30.0,3.0,0.0
11837,84.0,1.0,30.0,8.0,0.0
11838,81.0,0.0,30.0,1.0,0.0
11839,84.0,0.0,30.0,0.0,0.0
11840,84.0,0.0,30.0,4.0,0.0
11841,84.0,0.0,30.0,6.0,0.0
11842,81.0,0.0,30.0,6.0,0.0
11843,81.0,0.0,30.0,0.0,0.0
11844,81.0,30.0,30.0,4.0,0.0
11845,81.0,0.0,30.0,8.0,0.0
11846,52.0,0.0,30.0,3.0,0.0
11847,81.0,0.0,30.0,0.0,0.0
11848,81.0,1.0,30.0,8.0,0.0
11849,81.0,0.0,30.0,6.0,0.0
11850,76.0,0.0,30.0,2.0,0.0
11851,81.0,0.0,30.0,4.0,0.0
11852,80.0,59.0,30.0,1.0,0.0
11853,83.0,0.0,60.0,0.0,0.0
11854,83.0,0.0,60.0,6.0,0.0
11855,83.0,0.0,60.0,4.0,0.0
11856,83.0,1.0,60.0,8.0,0.0
11857,56.0,0.0,60.0,10.0,0.0
11858,52.0,29.0,30.0,3.0,0.0
11859,62.0,30.0,60.0,7.0,0.0
11860,62.0,0.0,60.0,5.0,0.0
11861,52.0,0.0,60.0,5.0,0.0
11862,62.0,0.0,60.0,10.0,0.0
11863,52.0,0.0,60.0,10.0,0.0
11864,56.0,0.0,60.0,7.0,0.0
11865,52.0,0.0,60.0,7.0,0.0
11866,56.0,0.0,60.0,5.0,0.0
11867,80.0,0.0,30.0,8.0,0.0
11868,80.0,0.0,30.0,0.0,0.0
11869,80.0,0.0,30.0,6.0,0.0
11870,80.0,0.0,30.0,4.0,0.0
11871,72.0,0.0,30.0,2.0,0.0
11872,81.0,0.0,30.0,8.0,0.0
11873,81.0,0.0,30.0,0.0,0.0
11874,76.0,29.0,30.0,1.0,0.0
11875,52.0,0.0,30.0,3.0,0.0
11876,81.0,1.0,30.0,6.0,0.0
11877,81.0,0.0,30.0,4.0,0.0
11878,76.0,30.0,30.0,4.0,0.0
11879,76.0,0.0,30.0,0.0,0.0
11880,76.0,0.0,30.0,8.0,0.0
11881,76.0,0.0,30.0,6.0,0.0
11882,77.0,1.0,30.0,6.0,0.0
11883,69.0,0.0,30.0,2.0,0.0
11884,52.0,29.0,30.0,3.0,0.0
11885,77.0,0.0,30.0,8.0,0.0
11886,72.0,0.0,30.0,1.0,0.0
11887,77.0,0.0,30.0,0.0,0.0
11888,77.0,0.0,30.0,4.0,0.0
11889,75.0,30.0,30.0,0.0,0.0
11890,75.0,0.0,30.0,8.0,0.0
11891,75.0,0.0,30.0,4.0,0.0
11892,75.0,0.0,30.0,6.0,0.0
11893,76.0,1.0,30.0,8.0,0.0
11894,76.0,0.0,30.0,4.0,0.0
11895,57.0,0.0,60.0,10.0,0.0
11896,60.0,0.0,60.0,10.0,0.0
11897,52.0,0.0,60.0,10.0,0.0
11898,52.0,29.0,30.0,3.0,0.0
11899,57.0,0.0,60.0,5.0,0.0
11900,60.0,0.0,60.0,5.0,0.0
11901,52.0,0.0,60.0,5.0,0.0
11902,76.0,0.0,30.0,0.0,0.0
11903,57.0,0.0,60.0,7.0,0.0
11904,60.0,0.0,60.0,7.0,0.0
11905,76.0,0.0,30.0,6.0,0.0
11906,52.0,30.0,60.0,7.0,0.0
11907,72.0,0.0,30.0,6.0,0.0
11908,72.0,0.0,30.0,8.0,0.0
11909,72.0,0.0,30.0,4.0,0.0
11910,72.0,0.0,30.0,0.0,0.0
11911,68.0,0.0,30.0,2.0,0.0
11912,74.0,1.0,30.0,8.0,0.0
11913,74.0,0.0,30.0,0.0,0.0
11914,52.0,0.0,30.0,3.0,0.0
11915,74.0,0.0,30.0,6.0,0.0
11916,71.0,29.0,30.0,1.0,0.0
11917,74.0,0.0,30.0,4.0,0.0
11918,71.0,0.0,30.0,4.0,0.0
11919,71.0,0.0,30.0,6.0,0.0
11920,71.0,0.0,30.0,0.0,0.0
11921,71.0,30.0,30.0,8.0,0.0
11922,72.0,0.0,30.0,8.0,0.0
11923,72.0,0.0,30.0,6.0,0.0
11924,69.0,29.0,30.0,1.0,0.0
11925,52.0,0.0,30.0,3.0,0.0
11926,72.0,1.0,30.0,0.0,0.0
11927,69.0,0.0,30.0,2.0,0.0
11928,72.0,0.0,30.0,4.0,0.0
11929,69.0,30.0,30.0,4.0,0.0
11930,69.0,0.0,30.0,6.0,0.0
11931,69.0,0.0,30.0,0.0,0.0
11932,69.0,0.0,30.0,8.0,0.0
11933,52.0,29.0,30.0,3.0,0.0
11934,70.0,0.0,30.0,0.0,0.0
11935,52.0,0.0,60.0,10.0,0.0
11936,62.0,30.0,60.0,10.0,0.0
11937,52.0,0.0,60.0,7.0,0.0
11938,62.0,0.0,60.0,5.0,0.0
11939,70.0,0.0,30.0,6.0,0.0
11940,70.0,0.0,30.0,8.0,0.0
11941,70.0,1.0,30.0,4.0,0.0
11942,62.0,0.0,60.0,7.0,0.0
11943,52.0,0.0,60.0,5.0,0.0
11944,68.0,0.0,30.0,0.0,0.0
11945,68.0,0.0,30.0,6.0,0.0
11946,68.0,0.0,30.0,8.0,0.0
11947,68.0,0.0,30.0,4.0,0.0
11948,69.0,0.0,30.0,2.0,0.0
11949,69.0,1.0,30.0,0.0,0.0
11950,69.0,0.0,30.0,6.0,0.0
11951,52.0,0.0,30.0,3.0,0.0
11952,69.0,0.0,30.0,8.0,0.0
11953,72.0,29.0,30.0,1.0,0.0
11954,69.0,0.0,30.0,4.0,0.0
11955,65.0,0.0,30.0,4.0,0.0
11956,65.0,0.0,30.0,6.0,0.0
11957,65.0,0.0,30.0,8.0,0.0
11958,65.0,30.0,30.0,0.0,0.0
11959,69.0,29.0,30.0,2.0,0.0
11960,72.0,0.0,30.0,1.0,0.0
11961,64.0,0.0,30.0,4.0,0.0
11962,64.0,0.0,30.0,6.0,0.0
11963,64.0,1.0,30.0,8.0,0.0
11964,52.0,0.0,30.0,3.0,0.0
11965,64.0,0.0,30.0,0.0,0.0
11966,63.0,0.0,30.0,0.0,0.0
11967,63.0,30.0,30.0,8.0,0.0
11968,63.0,0.0,30.0,4.0,0.0
11969,63.0,0.0,30.0,6.0,0.0
11970,56.0,0.0,60.0,7.0,0.0
11971,59.0,0.0,60.0,10.0,0.0
11972,56.0,30.0,60.0,10.0,0.0
11973,52.0,0.0,60.0,10.0,0.0
11974,52.0,0.0,60.0,5.0,0.0
11975,64.0,0.0,30.0,8.0,0.0
11976,64.0,1.0,30.0,6.0,0.0
11977,64.0,0.0,30.0,4.0,0.0
11978,56.0,0.0,60.0,5.0,0.0
11979,59.0,0.0,60.0,5.0,0.0
11980,59.0,0.0,60.0,7.0,0.0
11981,52.0,29.0,30.0,3.0,0.0
11982,64.0,0.0,30.0,0.0,0.0
11983,52.0,0.0,60.0,7.0,0.0
11984,84.0,0.0,30.0,8.0,0.0
11985,84.0,0.0,30.0,0.0,0.0
11986,84.0,0.0,30.0,4.0,0.0
11987,84.0,0.0,30.0,6.0,0.0
11988,76.0,0.0,30.0,1.0,0.0
11989,81.0,1.0,30.0,4.0,0.0
11990,81.0,0.0,30.0,6.0,0.0
11991,81.0,0.0,30.0,8.0,0.0
11992,81.0,0.0,30.0,0.0,0.0
11993,71.0,0.0,30.0,2.0,0.0
11994,52.0,8.0,30.0,3.0,0.0
11995,80.0,0.0,15.0,4.0,0.0
11996,80.0,0.0,15.0,8.0,0.0
11997,80.0,1.0,60.0,0.0,0.0
11998,80.0,7.0,15.0,6.0,0.0
11999,81.0,8.0,15.0,6.0,0.0
12000,81.0,0.0,15.0,4.0,0.0
12001,81.0,0.0,15.0,8.0,0.0
12002,80.0,0.0,15.0,4.0,0.0
12003,80.0,7.0,15.0,6.0,0.0
12004,80.0,0.0,15.0,8.0,0.0
12005,81.0,0.0,15.0,4.0,0.0
12006,81.0,0.0,15.0,6.0,0.0
12007,81.0,8.0,15.0,8.0,0.0
12008,74.0,0.0,30.0,1.0,0.0
12009,52.0,29.0,30.0,3.0,0.0
12010,80.0,0.0,15.0,4.0,0.0
12011,80.0,7.0,15.0,8.0,0.0
12012,71.0,0.0,30.0,2.0,0.0
12013,80.0,0.0,15.0,6.0,0.0
12014,81.0,8.0,15.0,4.0,0.0
12015,81.0,0.0,15.0,6.0,0.0
12016,81.0,0.0,15.0,8.0,0.0
12017,80.0,6.0,15.0,8.0,0.0
12018,80.0,0.0,15.0,6.0,0.0
12019,80.0,0.0,15.0,4.0,0.0
12020,81.0,30.0,30.0,4.0,0.0
12021,81.0,0.0,30.0,0.0,0.0
12022,81.0,0.0,30.0,8.0,0.0
12023,81.0,0.0,30.0,6.0,0.0
12024,53.0,0.0,60.0,10.0,0.0
12025,60.0,0.0,60.0,10.0,0.0
12026,64.0,0.0,60.0,10.0,0.0
12027,81.0,0.0,30.0,0.0,0.0
12028,60.0,0.0,60.0,5.0,0.0
12029,81.0,0.0,30.0,4.0,0.0
12030,81.0,0.0,30.0,8.0,0.0
12031,53.0,29.0,30.0,3.0,0.0
12032,64.0,0.0,60.0,5.0,0.0
12033,53.0,0.0,60.0,5.0,0.0
12034,81.0,1.0,30.0,6.0,0.0
12035,53.0,0.0,60.0,7.0,0.0
12036,60.0,0.0,60.0,7.0,0.0
12037,64.0,0.0,60.0,7.0,0.0
12038,80.0,0.0,30.0,4.0,0.0
12039,80.0,0.0,30.0,0.0,0.0
12040,80.0,30.0,30.0,8.0,0.0
12041,80.0,0.0,30.0,6.0,0.0
12042,81.0,1.0,30.0,8.0,0.0
12043,69.0,29.0,30.0,2.0,0.0
12044,81.0,0.0,30.0,4.0,0.0
12045,81.0,0.0,30.0,6.0,0.0
12046,53.0,0.0,30.0,3.0,0.0
12047,81.0,0.0,30.0,0.0,0.0
12048,72.0,0.0,30.0,1.0,0.0
12049,84.0,0.0,30.0,6.0,0.0
12050,84.0,0.0,30.0,0.0,0.0
12051,84.0,30.0,30.0,8.0,0.0
12052,84.0,0.0,30.0,4.0,0.0
12053,83.0,0.0,30.0,8.0,0.0
12054,53.0,0.0,30.0,3.0,0.0
12055,83.0,0.0,30.0,4.0,0.0
12056,74.0,29.0,30.0,1.0,0.0
12057,83.0,0.0,30.0,0.0,0.0
12058,83.0,1.0,30.0,6.0,0.0
12059,65.0,0.0,30.0,2.0,0.0
12060,80.0,0.0,30.0,4.0,0.0
12061,80.0,30.0,30.0,8.0,0.0
12062,80.0,0.0,30.0,0.0,0.0
12063,80.0,0.0,30.0,6.0,0.0
12064,81.0,1.0,30.0,6.0,0.0
12065,63.0,0.0,60.0,5.0,0.0
12066,54.0,29.0,30.0,3.0,0.0
12067,57.0,0.0,60.0,5.0,0.0
12068,54.0,0.0,60.0,5.0,0.0
12069,57.0,0.0,60.0,10.0,0.0
12070,54.0,0.0,60.0,10.0,0.0
12071,63.0,0.0,60.0,10.0,0.0
12072,57.0,0.0,60.0,7.0,0.0
12073,54.0,0.0,60.0,7.0,0.0
12074,81.0,0.0,30.0,4.0,0.0
12075,81.0,0.0,30.0,0.0,0.0
12076,81.0,0.0,30.0,8.0,0.0
12077,63.0,30.0,60.0,7.0,0.0
12078,78.0,0.0,30.0,8.0,0.0
12079,78.0,0.0,30.0,6.0,0.0
12080,78.0,0.0,30.0,4.0,0.0
12081,78.0,0.0,30.0,0.0,0.0
12082,76.0,1.0,30.0,6.0,0.0
12083,72.0,0.0,30.0,1.0,0.0
12084,76.0,0.0,30.0,0.0,0.0
12085,54.0,59.0,30.0,3.0,0.0
12086,76.0,0.0,30.0,4.0,0.0
12087,76.0,0.0,30.0,8.0,0.0
12088,69.0,0.0,30.0,2.0,0.0
12089,75.0,0.0,60.0,0.0,0.0
12090,75.0,1.0,60.0,4.0,0.0
12091,75.0,0.0,60.0,8.0,0.0
12092,75.0,0.0,60.0,6.0,0.0
12093,66.0,0.0,30.0,2.0,0.0
12094,69.0,0.0,30.0,1.0,0.0
12095,54.0,29.0,30.0,3.0,0.0
12096,76.0,0.0,30.0,0.0,0.0
12097,76.0,0.0,30.0,6.0,0.0
12098,76.0,0.0,30.0,4.0,0.0
12099,76.0,31.0,30.0,8.0,0.0
12100,86.0,0.0,90.0,8.0,0.0
12101,86.0,1.0,90.0,4.0,0.0
12102,56.0,0.0,60.0,10.0,0.0
12103,59.0,0.0,60.0,10.0,0.0
12104,64.0,0.0,60.0,10.0,0.0
12105,64.0,0.0,60.0,7.0,0.0
12106,59.0,0.0,60.0,7.0,0.0
12107,56.0,30.0,60.0,7.0,0.0
12108,59.0,0.0,60.0,5.0,0.0
12109,64.0,0.0,60.0,5.0,0.0
12110,56.0,29.0,30.0,3.0,0.0
12111,86.0,0.0,90.0,6.0,0.0
12112,86.0,0.0,90.0,0.0,0.0
12113,56.0,0.0,60.0,5.0,0.0
12114,56.0,0.0,30.0,3.0,0.0
12115,76.0,29.0,30.0,1.0,0.0
12116,71.0,0.0,30.0,2.0,0.0
12117,83.0,0.0,30.0,4.0,0.0
12118,83.0,0.0,30.0,0.0,0.0
12119,83.0,0.0,30.0,6.0,0.0
12120,83.0,31.0,30.0,8.0,0.0
12121,85.0,1.0,90.0,0.0,0.0
12122,57.0,0.0,60.0,7.0,0.0
12123,64.0,0.0,60.0,7.0,0.0
12124,64.0,30.0,60.0,10.0,0.0
12125,57.0,0.0,60.0,10.0,0.0
12126,57.0,0.0,60.0,5.0,0.0
12127,85.0,0.0,90.0,6.0,0.0
12128,85.0,0.0,90.0,4.0,0.0
12129,76.0,29.0,30.0,1.0,0.0
12130,64.0,0.0,60.0,5.0,0.0
12131,57.0,0.0,30.0,3.0,0.0
12132,85.0,0.0,90.0,8.0,0.0
12133,69.0,0.0,30.0,2.0,0.0
12134,66.0,11.0,60.0,10.0,0.0
12135,66.0,0.0,60.0,5.0,0.0
12136,66.0,0.0,60.0,7.0,0.0
12137,62.0,29.0,30.0,3.0,0.0
12138,62.0,0.0,60.0,10.0,0.0
12139,62.0,0.0,60.0,7.0,0.0
12140,62.0,0.0,60.0,5.0,0.0
12141,83.0,0.0,30.0,4.0,0.0
12142,83.0,0.0,30.0,0.0,0.0
12143,83.0,0.0,30.0,6.0,0.0
12144,83.0,0.0,30.0,8.0,0.0
12145,80.0,1.0,90.0,0.0,0.0
12146,81.0,10.0,15.0,8.0,0.0
12147,64.0,1.0,60.0,10.0,0.0
12148,81.0,0.0,15.0,6.0,0.0
12149,71.0,0.0,30.0,2.0,0.0
12150,81.0,0.0,15.0,4.0,0.0
12151,64.0,0.0,30.0,3.0,0.0
12152,76.0,0.0,30.0,1.0,0.0
12153,64.0,0.0,60.0,5.0,0.0
12154,64.0,0.0,60.0,7.0,0.0
12155,80.0,0.0,15.0,4.0,0.0
12156,80.0,10.0,15.0,6.0,0.0
12157,80.0,0.0,15.0,8.0,0.0
12158,81.0,0.0,15.0,4.0,0.0
12159,81.0,0.0,15.0,8.0,0.0
12160,81.0,8.0,15.0,6.0,0.0
12161,80.0,7.0,15.0,4.0,0.0
12162,80.0,0.0,15.0,8.0,0.0
12163,80.0,0.0,15.0,6.0,0.0
12164,81.0,0.0,15.0,4.0,0.0
12165,81.0,8.0,15.0,6.0,0.0
12166,81.0,0.0,15.0,8.0,0.0
12167,80.0,6.0,15.0,8.0,0.0
12168,80.0,0.0,15.0,4.0,0.0
12169,80.0,0.0,15.0,6.0,0.0
12170,81.0,10.0,15.0,8.0,0.0
12171,81.0,0.0,15.0,4.0,0.0
12172,81.0,0.0,15.0,6.0,0.0
12173,80.0,10.0,15.0,6.0,0.0
12174,52.0,0.0,60.0,7.0,0.0
12175,80.0,0.0,15.0,4.0,0.0
12176,80.0,0.0,15.0,8.0,0.0
12177,62.0,0.0,60.0,5.0,0.0
12178,52.0,0.0,60.0,10.0,0.0
12179,74.0,29.0,30.0,1.0,0.0
12180,71.0,0.0,30.0,2.0,0.0
12181,52.0,0.0,30.0,3.0,0.0
12182,52.0,0.0,60.0,5.0,0.0
12183,62.0,0.0,60.0,10.0,0.0
12184,62.0,0.0,60.0,7.0,0.0
12185,81.0,0.0,15.0,4.0,0.0
12186,81.0,0.0,15.0,6.0,0.0
12187,81.0,9.0,15.0,8.0,0.0
12188,80.0,0.0,15.0,8.0,0.0
12189,80.0,0.0,15.0,4.0,0.0
12190,80.0,0.0,15.0,6.0,0.0
12191,81.0,0.0,30.0,8.0,0.0
12192,81.0,9.0,30.0,4.0,0.0
12193,81.0,0.0,30.0,0.0,0.0
12194,81.0,0.0,30.0,6.0,0.0
12195,81.0,0.0,15.0,6.0,0.0
12196,73.0,29.0,30.0,1.0,0.0
12197,81.0,1.0,90.0,0.0,0.0
12198,57.0,0.0,60.0,10.0,0.0
12199,61.0,0.0,60.0,10.0,0.0
12200,57.0,30.0,120.0,3.0,0.0
12201,61.0,0.0,60.0,5.0,0.0
12202,81.0,7.0,15.0,4.0,0.0
12203,57.0,30.0,60.0,5.0,0.0
12204,81.0,0.0,15.0,8.0,0.0
12205,69.0,0.0,30.0,2.0,0.0
12206,61.0,0.0,60.0,7.0,0.0
12207,57.0,0.0,60.0,7.0,0.0
12208,80.0,0.0,15.0,8.0,0.0
12209,80.0,0.0,15.0,4.0,0.0
12210,80.0,15.0,15.0,6.0,0.0
12211,81.0,0.0,60.0,4.0,0.0
12212,81.0,0.0,60.0,8.0,0.0
12213,81.0,0.0,60.0,6.0,0.0
12214,64.0,0.0,30.0,2.0,0.0
12215,69.0,29.0,30.0,1.0,0.0
12216,73.0,0.0,30.0,8.0,0.0
12217,73.0,0.0,30.0,4.0,0.0
12218,73.0,0.0,30.0,0.0,0.0
12219,73.0,1.0,30.0,6.0,0.0
12220,68.0,0.0,30.0,1.0,0.0
12221,76.0,0.0,60.0,8.0,0.0
12222,76.0,0.0,60.0,4.0,0.0
12223,76.0,0.0,60.0,0.0,0.0
12224,76.0,30.0,60.0,6.0,0.0
12225,62.0,29.0,30.0,2.0,0.0
12226,69.0,0.0,30.0,6.0,0.0
12227,64.0,0.0,60.0,1.0,0.0
12228,69.0,1.0,120.0,0.0,0.0
12229,61.0,29.0,60.0,2.0,0.0
12230,69.0,0.0,30.0,8.0,0.0
12231,69.0,30.0,30.0,4.0,0.0
12232,69.0,0.0,30.0,7.0,0.0
12233,69.0,0.0,30.0,5.0,0.0
12234,69.0,1.0,30.0,10.0,0.0
12235,68.0,0.0,30.0,7.0,0.0
12236,56.0,29.0,30.0,3.0,0.0
12237,68.0,1.0,30.0,5.0,0.0
12238,68.0,0.0,30.0,10.0,0.0
12239,54.0,29.0,30.0,3.0,0.0
12240,66.0,0.0,30.0,5.0,0.0
12241,66.0,0.0,30.0,7.0,0.0
12242,66.0,0.0,30.0,10.0,0.0
12243,64.0,0.0,30.0,5.0,0.0
12244,64.0,1.0,30.0,7.0,0.0
12245,64.0,0.0,30.0,10.0,0.0
12246,52.0,29.0,30.0,3.0,0.0
12247,62.0,1.0,30.0,7.0,0.0
12248,62.0,0.0,30.0,10.0,0.0
12249,62.0,0.0,30.0,5.0,0.0
12250,50.0,29.0,30.0,3.0,0.0
12251,61.0,0.0,60.0,7.0,0.0
12252,69.0,30.0,30.0,4.0,0.0
12253,61.0,0.0,60.0,10.0,0.0
12254,64.0,0.0,60.0,8.0,0.0
12255,69.0,0.0,60.0,8.0,0.0
12256,61.0,1.0,60.0,5.0,0.0
12257,49.0,29.0,60.0,3.0,0.0
12258,71.0,0.0,30.0,4.0,0.0
12259,49.0,30.0,60.0,7.0,0.0
12260,69.0,0.0,60.0,6.0,0.0
12261,73.0,30.0,30.0,4.0,0.0
12262,61.0,0.0,60.0,5.0,0.0
12263,64.0,0.0,60.0,6.0,0.0
12264,74.0,0.0,30.0,4.0,0.0
12265,73.0,0.0,60.0,6.0,0.0
12266,69.0,0.0,60.0,6.0,0.0
12267,61.0,0.0,60.0,5.0,0.0
12268,64.0,0.0,60.0,8.0,0.0
12269,69.0,0.0,60.0,8.0,0.0
12270,61.0,0.0,60.0,10.0,0.0
12271,76.0,30.0,30.0,4.0,0.0
12272,78.0,30.0,30.0,4.0,0.0
12273,47.0,1.0,60.0,10.0,0.0
12274,71.0,0.0,60.0,8.0,0.0
12275,74.0,0.0,60.0,8.0,0.0
12276,47.0,29.0,60.0,3.0,0.0
12277,59.0,0.0,60.0,7.0,0.0
12278,59.0,0.0,60.0,5.0,0.0
12279,79.0,30.0,30.0,4.0,0.0
12280,78.0,0.0,30.0,4.0,0.0
12281,59.0,30.0,60.0,5.0,0.0
12282,74.0,0.0,60.0,6.0,0.0
12283,47.0,0.0,60.0,7.0,0.0
12284,79.0,30.0,30.0,4.0,0.0
12285,71.0,0.0,60.0,6.0,0.0
12286,83.0,0.0,30.0,4.0,0.0
12287,73.0,0.0,60.0,8.0,0.0
12288,73.0,0.0,60.0,6.0,0.0
12289,76.0,0.0,60.0,6.0,0.0
12290,59.0,30.0,60.0,5.0,0.0
12291,59.0,0.0,60.0,10.0,0.0
12292,64.0,0.0,60.0,8.0,0.0
12293,81.0,30.0,30.0,4.0,0.0
12294,79.0,0.0,30.0,4.0,0.0
12295,46.0,0.0,60.0,10.0,0.0
12296,78.0,30.0,30.0,4.0,0.0
12297,58.0,0.0,60.0,7.0,0.0
12298,46.0,29.0,60.0,3.0,0.0
12299,73.0,0.0,60.0,8.0,0.0
12300,66.0,1.0,60.0,8.0,0.0
12301,58.0,0.0,60.0,5.0,0.0
12302,80.0,0.0,30.0,4.0,0.0
12303,58.0,0.0,60.0,5.0,0.0
12304,46.0,0.0,60.0,7.0,0.0
12305,78.0,0.0,60.0,6.0,0.0
12306,73.0,30.0,60.0,6.0,0.0
12307,82.0,30.0,30.0,4.0,0.0
12308,83.0,0.0,30.0,4.0,0.0
12309,73.0,0.0,60.0,8.0,0.0
12310,66.0,30.0,60.0,8.0,0.0
12311,85.0,30.0,30.0,4.0,0.0
12312,58.0,0.0,60.0,5.0,0.0
12313,66.0,0.0,60.0,6.0,0.0
12314,76.0,0.0,60.0,6.0,0.0
12315,58.0,0.0,60.0,10.0,0.0
12316,86.0,0.0,30.0,4.0,0.0
12317,61.0,0.0,60.0,8.0,0.0
12318,54.0,0.0,60.0,7.0,0.0
12319,42.0,0.0,60.0,10.0,0.0
12320,70.0,0.0,60.0,8.0,0.0
12321,42.0,29.0,60.0,3.0,0.0
12322,76.0,30.0,30.0,4.0,0.0
12323,54.0,1.0,60.0,5.0,0.0
12324,74.0,0.0,30.0,4.0,0.0
12325,42.0,0.0,60.0,7.0,0.0
12326,73.0,30.0,60.0,6.0,0.0
12327,76.0,30.0,30.0,4.0,0.0
12328,70.0,0.0,60.0,6.0,0.0
12329,54.0,0.0,60.0,5.0,0.0
12330,85.0,0.0,30.0,4.0,0.0
12331,69.0,0.0,60.0,8.0,0.0
12332,54.0,0.0,60.0,5.0,0.0
12333,86.0,30.0,30.0,4.0,0.0
12334,54.0,0.0,60.0,10.0,0.0
12335,66.0,30.0,60.0,8.0,0.0
12336,70.0,0.0,60.0,6.0,0.0
12337,66.0,0.0,60.0,6.0,0.0
12338,88.0,0.0,30.0,4.0,0.0
12339,59.0,0.0,60.0,5.0,0.0
12340,66.0,1.0,60.0,8.0,0.0
12341,47.0,0.0,60.0,10.0,0.0
12342,86.0,30.0,30.0,4.0,0.0
12343,59.0,0.0,60.0,7.0,0.0
12344,71.0,0.0,60.0,8.0,0.0
12345,47.0,29.0,60.0,3.0,0.0
12346,85.0,0.0,30.0,4.0,0.0
12347,66.0,30.0,60.0,6.0,0.0
12348,74.0,0.0,60.0,6.0,0.0
12349,83.0,30.0,30.0,4.0,0.0
12350,59.0,0.0,60.0,5.0,0.0
12351,47.0,0.0,60.0,7.0,0.0
12352,85.0,0.0,30.0,4.0,0.0
12353,59.0,0.0,60.0,10.0,0.0
12354,59.0,0.0,60.0,5.0,0.0
12355,66.0,30.0,60.0,8.0,0.0
12356,78.0,0.0,60.0,6.0,0.0
12357,71.0,0.0,60.0,6.0,0.0
12358,74.0,0.0,60.0,8.0,0.0
12359,86.0,30.0,30.0,4.0,0.0
12360,81.0,0.0,30.0,4.0,0.0
12361,52.0,0.0,60.0,7.0,0.0
12362,52.0,0.0,60.0,5.0,0.0
12363,40.0,0.0,60.0,10.0,0.0
12364,71.0,0.0,60.0,8.0,0.0
12365,52.0,29.0,60.0,3.0,0.0
12366,64.0,1.0,60.0,8.0,0.0
12367,79.0,30.0,30.0,4.0,0.0
12368,78.0,0.0,30.0,4.0,0.0
12369,40.0,0.0,60.0,7.0,0.0
12370,52.0,0.0,60.0,5.0,0.0
12371,76.0,0.0,60.0,6.0,0.0
12372,71.0,30.0,60.0,6.0,0.0
12373,79.0,30.0,30.0,4.0,0.0
12374,88.0,0.0,30.0,4.0,0.0
12375,52.0,0.0,60.0,10.0,0.0
12376,52.0,0.0,60.0,5.0,0.0
12377,79.0,30.0,60.0,6.0,0.0
12378,85.0,30.0,30.0,4.0,0.0
12379,76.0,0.0,60.0,6.0,0.0
12380,67.0,0.0,60.0,8.0,0.0
12381,76.0,0.0,60.0,8.0,0.0
12382,86.0,0.0,30.0,4.0,0.0
12383,54.0,0.0,60.0,5.0,0.0
12384,82.0,30.0,30.0,4.0,0.0
12385,54.0,29.0,60.0,3.0,0.0
12386,42.0,0.0,60.0,10.0,0.0
12387,54.0,0.0,60.0,7.0,0.0
12388,73.0,1.0,60.0,8.0,0.0
12389,66.0,0.0,60.0,8.0,0.0
12390,83.0,0.0,30.0,4.0,0.0
12391,42.0,0.0,60.0,7.0,0.0
12392,85.0,30.0,30.0,4.0,0.0
12393,54.0,0.0,60.0,5.0,0.0
12394,70.0,30.0,60.0,6.0,0.0
12395,78.0,0.0,60.0,6.0,0.0
12396,76.0,0.0,30.0,4.0,0.0
12397,82.0,30.0,60.0,6.0,0.0
12398,78.0,30.0,30.0,4.0,0.0
12399,70.0,0.0,60.0,8.0,0.0
12400,54.0,0.0,60.0,5.0,0.0
12401,54.0,0.0,60.0,10.0,0.0
12402,73.0,0.0,60.0,8.0,0.0
12403,73.0,0.0,60.0,6.0,0.0
12404,79.0,0.0,30.0,4.0,0.0
12405,73.0,0.0,60.0,8.0,0.0
12406,78.0,0.0,60.0,8.0,0.0
12407,46.0,0.0,60.0,10.0,0.0
12408,58.0,0.0,60.0,7.0,0.0
12409,58.0,0.0,60.0,5.0,0.0
12410,73.0,30.0,30.0,4.0,0.0
12411,58.0,29.0,60.0,3.0,0.0
12412,74.0,1.0,30.0,4.0,0.0
12413,58.0,0.0,60.0,5.0,0.0
12414,85.0,0.0,60.0,6.0,0.0
12415,78.0,0.0,60.0,6.0,0.0
12416,76.0,30.0,30.0,4.0,0.0
12417,46.0,0.0,60.0,7.0,0.0
12418,79.0,30.0,30.0,4.0,0.0
12419,58.0,0.0,60.0,10.0,0.0
12420,73.0,0.0,60.0,6.0,0.0
12421,78.0,0.0,60.0,6.0,0.0
12422,58.0,0.0,60.0,5.0,0.0
12423,78.0,30.0,30.0,4.0,0.0
12424,66.0,0.0,60.0,8.0,0.0
12425,73.0,30.0,60.0,8.0,0.0
12426,76.0,0.0,30.0,4.0,0.0
12427,74.0,30.0,30.0,4.0,0.0
12428,59.0,0.0,60.0,5.0,0.0
12429,59.0,0.0,60.0,7.0,0.0
12430,71.0,0.0,60.0,8.0,0.0
12431,47.0,0.0,60.0,10.0,0.0
12432,59.0,29.0,60.0,3.0,0.0
12433,66.0,0.0,60.0,8.0,0.0
12434,73.0,1.0,30.0,4.0,0.0
12435,59.0,0.0,60.0,5.0,0.0
12436,74.0,30.0,30.0,4.0,0.0
12437,78.0,0.0,60.0,6.0,0.0
12438,74.0,0.0,60.0,6.0,0.0
12439,47.0,0.0,60.0,7.0,0.0
12440,78.0,30.0,30.0,4.0,0.0
12441,59.0,0.0,60.0,5.0,0.0
12442,80.0,30.0,30.0,4.0,0.0
12443,74.0,0.0,60.0,8.0,0.0
12444,71.0,0.0,60.0,8.0,0.0
12445,59.0,0.0,60.0,10.0,0.0
12446,74.0,0.0,60.0,6.0,0.0
12447,71.0,30.0,60.0,6.0,0.0
12448,81.0,0.0,30.0,4.0,0.0
12449,62.0,0.0,60.0,5.0,0.0
12450,83.0,30.0,30.0,4.0,0.0
12451,62.0,0.0,60.0,7.0,0.0
12452,62.0,29.0,60.0,3.0,0.0
12453,78.0,0.0,60.0,8.0,0.0
12454,50.0,0.0,60.0,10.0,0.0
12455,71.0,1.0,60.0,8.0,0.0
12456,80.0,0.0,30.0,4.0,0.0
12457,78.0,0.0,60.0,6.0,0.0
12458,71.0,0.0,60.0,6.0,0.0
12459,62.0,30.0,60.0,5.0,0.0
12460,50.0,0.0,60.0,7.0,0.0
12461,81.0,30.0,30.0,4.0,0.0
12462,83.0,0.0,30.0,4.0,0.0
12463,71.0,0.0,60.0,8.0,0.0
12464,66.0,0.0,60.0,8.0,0.0
12465,85.0,30.0,30.0,4.0,0.0
12466,62.0,0.0,60.0,10.0,0.0
12467,78.0,30.0,60.0,6.0,0.0
12468,83.0,0.0,60.0,6.0,0.0
12469,62.0,0.0,60.0,5.0,0.0
12470,86.0,0.0,30.0,4.0,0.0
12471,61.0,0.0,60.0,7.0,0.0
12472,61.0,29.0,60.0,3.0,0.0
12473,68.0,0.0,60.0,8.0,0.0
12474,77.0,30.0,30.0,4.0,0.0
12475,61.0,0.0,60.0,5.0,0.0
12476,49.0,0.0,60.0,10.0,0.0
12477,73.0,1.0,60.0,8.0,0.0
12478,80.0,0.0,30.0,4.0,0.0
12479,61.0,0.0,60.0,5.0,0.0
12480,49.0,0.0,60.0,7.0,0.0
12481,78.0,30.0,30.0,4.0,0.0
12482,80.0,0.0,60.0,6.0,0.0
12483,85.0,0.0,60.0,6.0,0.0
12484,77.0,30.0,30.0,4.0,0.0
12485,68.0,30.0,60.0,8.0,0.0
12486,77.0,0.0,60.0,8.0,0.0
12487,77.0,0.0,60.0,6.0,0.0
12488,80.0,0.0,60.0,6.0,0.0
12489,75.0,30.0,30.0,4.0,0.0
12490,61.0,0.0,60.0,10.0,0.0
12491,61.0,0.0,60.0,5.0,0.0
12492,73.0,0.0,30.0,4.0,0.0
12493,53.0,0.0,60.0,5.0,0.0
12494,53.0,29.0,60.0,3.0,0.0
12495,80.0,30.0,30.0,4.0,0.0
12496,65.0,0.0,60.0,7.0,0.0
12497,73.0,0.0,60.0,8.0,0.0
12498,68.0,0.0,60.0,8.0,0.0
12499,53.0,1.0,60.0,10.0,0.0
12500,74.0,0.0,30.0,4.0,0.0
12501,80.0,0.0,60.0,6.0,0.0
12502,73.0,0.0,60.0,6.0,0.0
12503,53.0,0.0,60.0,5.0,0.0
12504,53.0,0.0,60.0,7.0,0.0
12505,73.0,30.0,30.0,4.0,0.0
12506,71.0,30.0,30.0,4.0,0.0
12507,69.0,30.0,30.0,4.0,0.0
12508,74.0,0.0,60.0,6.0,0.0
12509,65.0,0.0,60.0,10.0,0.0
12510,74.0,0.0,60.0,8.0,0.0
12511,80.0,0.0,60.0,8.0,0.0
12512,83.0,0.0,60.0,6.0,0.0
12513,53.0,30.0,60.0,5.0,0.0
12514,68.0,0.0,30.0,4.0,0.0
12515,69.0,30.0,30.0,4.0,0.0
12516,54.0,0.0,60.0,10.0,0.0
12517,54.0,29.0,60.0,3.0,0.0
12518,78.0,0.0,60.0,8.0,0.0
12519,66.0,0.0,60.0,7.0,0.0
12520,54.0,0.0,60.0,5.0,0.0
12521,73.0,0.0,60.0,8.0,0.0
12522,68.0,1.0,30.0,4.0,0.0
12523,54.0,0.0,60.0,5.0,0.0
12524,81.0,30.0,60.0,6.0,0.0
12525,54.0,0.0,60.0,7.0,0.0
12526,69.0,30.0,30.0,4.0,0.0
12527,73.0,0.0,60.0,6.0,0.0
12528,73.0,0.0,30.0,4.0,0.0
12529,73.0,0.0,60.0,6.0,0.0
12530,73.0,0.0,60.0,8.0,0.0
12531,81.0,0.0,60.0,8.0,0.0
12532,69.0,0.0,60.0,6.0,0.0
12533,78.0,30.0,30.0,4.0,0.0
12534,54.0,0.0,60.0,5.0,0.0
12535,66.0,0.0,60.0,10.0,0.0
12536,77.0,30.0,30.0,4.0,0.0
12537,49.0,0.0,60.0,10.0,0.0
12538,61.0,0.0,60.0,7.0,0.0
12539,80.0,0.0,60.0,8.0,0.0
12540,73.0,0.0,60.0,8.0,0.0
12541,78.0,30.0,30.0,4.0,0.0
12542,49.0,29.0,60.0,3.0,0.0
12543,49.0,0.0,60.0,5.0,0.0
12544,80.0,1.0,30.0,4.0,0.0
12545,49.0,0.0,60.0,7.0,0.0
12546,73.0,0.0,60.0,6.0,0.0
12547,66.0,0.0,60.0,6.0,0.0
12548,81.0,30.0,30.0,4.0,0.0
12549,49.0,30.0,60.0,5.0,0.0
12550,83.0,0.0,30.0,4.0,0.0
12551,77.0,0.0,60.0,6.0,0.0
12552,68.0,0.0,60.0,6.0,0.0
12553,61.0,0.0,60.0,10.0,0.0
12554,85.0,30.0,30.0,4.0,0.0
12555,83.0,0.0,60.0,8.0,0.0
12556,49.0,0.0,60.0,5.0,0.0
12557,73.0,30.0,60.0,8.0,0.0
12558,77.0,30.0,60.0,4.0,0.0
12559,54.0,0.0,180.0,7.0,0.0
12560,81.0,0.0,60.0,8.0,0.0
12561,54.0,0.0,180.0,10.0,0.0
12562,42.0,29.0,120.0,3.0,0.0
12563,73.0,0.0,60.0,8.0,0.0
12564,54.0,29.0,210.0,5.0,0.0
12565,78.0,30.0,30.0,4.0,0.0
12566,69.0,30.0,30.0,4.0,0.0
12567,78.0,0.0,60.0,6.0,0.0
12568,69.0,0.0,60.0,6.0,0.0
12569,71.0,1.0,30.0,4.0,0.0
12570,81.0,0.0,60.0,8.0,0.0
12571,85.0,0.0,60.0,8.0,0.0
12572,73.0,30.0,30.0,4.0,0.0
12573,73.0,31.0,60.0,6.0,0.0
12574,66.0,0.0,60.0,6.0,0.0
12575,69.0,0.0,30.0,4.0,0.0
12576,85.0,30.0,120.0,8.0,0.0
12577,66.0,0.0,120.0,4.0,0.0
12578,69.0,0.0,120.0,6.0,0.0
12579,61.0,0.0,120.0,6.0,0.0
12580,90.0,0.0,120.0,8.0,0.0
12581,57.0,30.0,30.0,10.0,0.0
12582,61.0,0.0,30.0,5.0,0.0
12583,66.0,0.0,30.0,7.0,0.0
12584,57.0,0.0,30.0,5.0,0.0
12585,49.0,29.0,30.0,3.0,0.0
12586,64.0,0.0,30.0,7.0,0.0
12587,61.0,1.0,30.0,10.0,0.0
12588,59.0,0.0,30.0,5.0,0.0
12589,63.0,0.0,30.0,7.0,0.0
12590,59.0,0.0,30.0,10.0,0.0
12591,52.0,29.0,30.0,3.0,0.0
12592,61.0,0.0,30.0,7.0,0.0
12593,61.0,1.0,30.0,5.0,0.0
12594,57.0,0.0,30.0,10.0,0.0
12595,64.0,0.0,30.0,7.0,0.0
12596,61.0,0.0,30.0,10.0,0.0
12597,57.0,30.0,30.0,5.0,0.0
12598,78.0,0.0,60.0,8.0,0.0
12599,71.0,30.0,30.0,4.0,0.0
12600,51.0,0.0,60.0,5.0,0.0
12601,63.0,1.0,60.0,7.0,0.0
12602,83.0,0.0,60.0,8.0,0.0
12603,51.0,29.0,60.0,3.0,0.0
12604,51.0,0.0,60.0,10.0,0.0
12605,73.0,0.0,30.0,4.0,0.0
12606,66.0,0.0,60.0,6.0,0.0
12607,75.0,30.0,30.0,4.0,0.0
12608,51.0,0.0,60.0,5.0,0.0
12609,71.0,0.0,60.0,6.0,0.0
12610,51.0,30.0,60.0,7.0,0.0
12611,76.0,0.0,30.0,4.0,0.0
12612,51.0,0.0,60.0,5.0,0.0
12613,63.0,0.0,60.0,10.0,0.0
12614,71.0,0.0,60.0,8.0,0.0
12615,78.0,30.0,60.0,8.0,0.0
12616,78.0,30.0,30.0,4.0,0.0
12617,71.0,0.0,60.0,6.0,0.0
12618,75.0,0.0,60.0,6.0,0.0
12619,80.0,0.0,30.0,4.0,0.0
12620,81.0,30.0,30.0,4.0,0.0
12621,63.0,0.0,60.0,7.0,0.0
12622,66.0,0.0,60.0,8.0,0.0
12623,71.0,0.0,60.0,8.0,0.0
12624,51.0,0.0,60.0,10.0,0.0
12625,51.0,30.0,60.0,5.0,0.0
12626,80.0,0.0,30.0,4.0,0.0
12627,78.0,0.0,60.0,6.0,0.0
12628,71.0,0.0,60.0,6.0,0.0
12629,81.0,30.0,30.0,4.0,0.0
12630,51.0,0.0,60.0,5.0,0.0
12631,51.0,0.0,60.0,7.0,0.0
12632,85.0,30.0,30.0,4.0,0.0
12633,83.0,30.0,30.0,4.0,0.0
12634,71.0,30.0,60.0,8.0,0.0
12635,83.0,0.0,60.0,6.0,0.0
12636,78.0,0.0,60.0,8.0,0.0
12637,51.0,0.0,60.0,5.0,0.0
12638,63.0,0.0,60.0,10.0,0.0
12639,78.0,0.0,60.0,6.0,0.0
12640,81.0,0.0,30.0,4.0,0.0
12641,62.0,0.0,60.0,7.0,0.0
12642,50.0,0.0,60.0,5.0,0.0
12643,50.0,29.0,60.0,3.0,0.0
12644,80.0,30.0,30.0,4.0,0.0
12645,76.0,0.0,60.0,8.0,0.0
12646,71.0,0.0,60.0,8.0,0.0
12647,50.0,0.0,60.0,10.0,0.0
12648,81.0,1.0,30.0,4.0,0.0
12649,50.0,30.0,60.0,5.0,0.0
12650,76.0,0.0,60.0,6.0,0.0
12651,80.0,0.0,60.0,6.0,0.0
12652,50.0,0.0,60.0,7.0,0.0
12653,83.0,30.0,30.0,4.0,0.0
12654,85.0,0.0,30.0,4.0,0.0
12655,50.0,0.0,60.0,5.0,0.0
12656,86.0,30.0,30.0,4.0,0.0
12657,71.0,0.0,60.0,8.0,0.0
12658,71.0,0.0,60.0,6.0,0.0
12659,76.0,30.0,60.0,6.0,0.0
12660,80.0,0.0,60.0,8.0,0.0
12661,62.0,0.0,60.0,10.0,0.0
12662,88.0,0.0,30.0,4.0,0.0
12663,50.0,0.0,60.0,10.0,0.0
12664,76.0,0.0,60.0,8.0,0.0
12665,81.0,30.0,30.0,4.0,0.0
12666,83.0,30.0,60.0,8.0,0.0
12667,62.0,0.0,60.0,7.0,0.0
12668,50.0,0.0,60.0,5.0,0.0
12669,80.0,0.0,30.0,4.0,0.0
12670,50.0,0.0,60.0,7.0,0.0
12671,68.0,0.0,60.0,6.0,0.0
12672,71.0,0.0,60.0,6.0,0.0
12673,50.0,30.0,60.0,5.0,0.0
12674,78.0,30.0,30.0,4.0,0.0
12675,76.0,0.0,30.0,4.0,0.0
12676,83.0,0.0,60.0,8.0,0.0
12677,76.0,0.0,60.0,8.0,0.0
12678,71.0,0.0,60.0,6.0,0.0
12679,76.0,0.0,60.0,6.0,0.0
12680,79.0,30.0,30.0,4.0,0.0
12681,62.0,0.0,60.0,10.0,0.0
12682,50.0,30.0,60.0,5.0,0.0
12683,78.0,0.0,30.0,4.0,0.0
12684,49.0,1.0,60.0,10.0,0.0
12685,61.0,0.0,60.0,7.0,0.0
12686,76.0,0.0,60.0,8.0,0.0
12687,81.0,0.0,60.0,8.0,0.0
12688,49.0,0.0,60.0,5.0,0.0
12689,79.0,30.0,30.0,4.0,0.0
12690,49.0,29.0,60.0,3.0,0.0
12691,78.0,0.0,30.0,4.0,0.0
12692,69.0,0.0,60.0,6.0,0.0
12693,49.0,0.0,60.0,5.0,0.0
12694,76.0,0.0,60.0,6.0,0.0
12695,49.0,30.0,60.0,7.0,0.0
12696,79.0,30.0,30.0,4.0,0.0
12697,85.0,0.0,30.0,4.0,0.0
12698,61.0,0.0,60.0,10.0,0.0
12699,69.0,0.0,60.0,8.0,0.0
12700,76.0,0.0,60.0,8.0,0.0
12701,79.0,0.0,60.0,6.0,0.0
12702,86.0,30.0,30.0,4.0,0.0
12703,69.0,0.0,60.0,6.0,0.0
12704,49.0,0.0,60.0,5.0,0.0
12705,88.0,30.0,30.0,4.0,0.0
12706,57.0,1.0,60.0,7.0,0.0
12707,79.0,0.0,60.0,8.0,0.0
12708,76.0,0.0,60.0,8.0,0.0
12709,45.0,0.0,60.0,5.0,0.0
12710,86.0,30.0,30.0,4.0,0.0
12711,45.0,29.0,60.0,3.0,0.0
12712,45.0,0.0,60.0,10.0,0.0
12713,85.0,0.0,30.0,4.0,0.0
12714,73.0,0.0,60.0,6.0,0.0
12715,76.0,0.0,60.0,6.0,0.0
12716,45.0,0.0,60.0,5.0,0.0
12717,83.0,30.0,30.0,4.0,0.0
12718,45.0,0.0,60.0,7.0,0.0
12719,81.0,30.0,30.0,4.0,0.0
12720,88.0,30.0,30.0,4.0,0.0
12721,57.0,30.0,60.0,10.0,0.0
12722,81.0,0.0,60.0,8.0,0.0
12723,73.0,0.0,60.0,8.0,0.0
12724,45.0,0.0,60.0,5.0,0.0
12725,69.0,0.0,60.0,6.0,0.0
12726,73.0,0.0,60.0,6.0,0.0
12727,79.0,0.0,30.0,4.0,0.0
12728,62.0,0.0,60.0,7.0,0.0
12729,74.0,0.0,60.0,8.0,0.0
12730,81.0,0.0,60.0,8.0,0.0
12731,50.0,0.0,60.0,10.0,0.0
12732,54.0,29.0,60.0,3.0,0.0
12733,78.0,30.0,30.0,4.0,0.0
12734,50.0,1.0,60.0,5.0,0.0
12735,79.0,0.0,30.0,4.0,0.0
12736,81.0,30.0,30.0,4.0,0.0
12737,50.0,0.0,60.0,5.0,0.0
12738,50.0,30.0,60.0,7.0,0.0
12739,66.0,0.0,60.0,6.0,0.0
12740,74.0,0.0,60.0,6.0,0.0
12741,86.0,0.0,30.0,4.0,0.0
12742,78.0,0.0,60.0,6.0,0.0
12743,69.0,0.0,60.0,6.0,0.0
12744,50.0,0.0,60.0,5.0,0.0
12745,78.0,30.0,30.0,4.0,0.0
12746,81.0,0.0,60.0,8.0,0.0
12747,74.0,0.0,60.0,8.0,0.0
12748,62.0,30.0,60.0,10.0,0.0
12749,76.0,0.0,30.0,4.0,0.0
12750,74.0,30.0,30.0,4.0,0.0
12751,42.0,29.0,60.0,3.0,0.0
12752,54.0,0.0,60.0,7.0,0.0
12753,54.0,1.0,60.0,5.0,0.0
12754,86.0,0.0,60.0,8.0,0.0
12755,81.0,0.0,60.0,8.0,0.0
12756,54.0,0.0,60.0,10.0,0.0
12757,78.0,0.0,30.0,4.0,0.0
12758,81.0,30.0,60.0,6.0,0.0
12759,42.0,0.0,60.0,7.0,0.0
12760,54.0,0.0,60.0,5.0,0.0
12761,78.0,0.0,60.0,6.0,0.0
12762,76.0,30.0,30.0,4.0,0.0
12763,74.0,0.0,30.0,4.0,0.0
12764,78.0,0.0,60.0,8.0,0.0
12765,86.0,0.0,60.0,6.0,0.0
12766,81.0,0.0,60.0,6.0,0.0
12767,73.0,30.0,30.0,4.0,0.0
12768,69.0,0.0,60.0,8.0,0.0
12769,66.0,0.0,60.0,10.0,0.0
12770,54.0,0.0,60.0,5.0,0.0
12771,71.0,30.0,30.0,4.0,0.0
12772,74.0,30.0,30.0,4.0,0.0
12773,56.0,0.0,60.0,5.0,0.0
12774,44.0,29.0,60.0,3.0,0.0
12775,56.0,0.0,60.0,7.0,0.0
12776,76.0,0.0,60.0,8.0,0.0
12777,56.0,1.0,60.0,10.0,0.0
12778,71.0,0.0,60.0,8.0,0.0
12779,73.0,0.0,30.0,4.0,0.0
12780,76.0,0.0,60.0,6.0,0.0
12781,83.0,0.0,60.0,6.0,0.0
12782,74.0,30.0,30.0,4.0,0.0
12783,44.0,0.0,60.0,7.0,0.0
12784,56.0,30.0,60.0,5.0,0.0
12785,80.0,0.0,30.0,4.0,0.0
12786,71.0,0.0,60.0,8.0,0.0
12787,56.0,0.0,60.0,10.0,0.0
12788,64.0,0.0,60.0,8.0,0.0
12789,81.0,30.0,30.0,4.0,0.0
12790,74.0,0.0,60.0,6.0,0.0
12791,76.0,30.0,60.0,6.0,0.0
12792,56.0,0.0,60.0,5.0,0.0
12793,83.0,0.0,30.0,4.0,0.0
12794,52.0,1.0,60.0,7.0,0.0
12795,40.0,0.0,60.0,10.0,0.0
12796,52.0,0.0,60.0,5.0,0.0
12797,76.0,0.0,60.0,8.0,0.0
12798,71.0,0.0,60.0,8.0,0.0
12799,81.0,30.0,30.0,4.0,0.0
12800,40.0,29.0,60.0,3.0,0.0
12801,80.0,0.0,30.0,4.0,0.0
12802,52.0,0.0,60.0,5.0,0.0
12803,68.0,0.0,60.0,6.0,0.0
12804,78.0,30.0,30.0,4.0,0.0
12805,74.0,0.0,60.0,6.0,0.0
12806,40.0,30.0,60.0,7.0,0.0
12807,76.0,0.0,30.0,4.0,0.0
12808,52.0,0.0,60.0,10.0,0.0
12809,52.0,0.0,60.0,5.0,0.0
12810,74.0,0.0,60.0,6.0,0.0
12811,80.0,0.0,60.0,6.0,0.0
12812,83.0,30.0,30.0,4.0,0.0
12813,76.0,0.0,60.0,8.0,0.0
12814,68.0,0.0,60.0,8.0,0.0
12815,74.0,30.0,30.0,4.0,0.0
12816,45.0,29.0,60.0,3.0,0.0
12817,57.0,0.0,60.0,5.0,0.0
12818,73.0,30.0,30.0,4.0,0.0
12819,45.0,1.0,60.0,10.0,0.0
12820,57.0,0.0,60.0,7.0,0.0
12821,76.0,0.0,60.0,8.0,0.0
12822,69.0,0.0,60.0,8.0,0.0
12823,74.0,0.0,30.0,4.0,0.0
12824,76.0,30.0,30.0,4.0,0.0
12825,57.0,0.0,60.0,5.0,0.0
12826,73.0,0.0,60.0,6.0,0.0
12827,81.0,30.0,60.0,6.0,0.0
12828,45.0,0.0,60.0,7.0,0.0
12829,81.0,0.0,30.0,4.0,0.0
12830,73.0,30.0,30.0,4.0,0.0
12831,57.0,30.0,60.0,10.0,0.0
12832,76.0,0.0,60.0,6.0,0.0
12833,76.0,0.0,60.0,8.0,0.0
12834,57.0,0.0,60.0,5.0,0.0
12835,69.0,0.0,60.0,8.0,0.0
12836,69.0,0.0,60.0,6.0,0.0
12837,71.0,0.0,30.0,4.0,0.0
12838,81.0,0.0,60.0,8.0,0.0
12839,49.0,29.0,60.0,3.0,0.0
12840,76.0,0.0,60.0,8.0,0.0
12841,61.0,0.0,60.0,5.0,0.0
12842,69.0,30.0,30.0,4.0,0.0
12843,49.0,0.0,60.0,10.0,0.0
12844,61.0,1.0,60.0,7.0,0.0
12845,73.0,0.0,30.0,4.0,0.0
12846,49.0,0.0,60.0,7.0,0.0
12847,76.0,30.0,30.0,4.0,0.0
12848,61.0,0.0,60.0,5.0,0.0
12849,73.0,0.0,60.0,6.0,0.0
12850,69.0,30.0,60.0,6.0,0.0
12851,80.0,0.0,30.0,4.0,0.0
12852,64.0,0.0,60.0,6.0,0.0
12853,81.0,30.0,30.0,4.0,0.0
12854,76.0,30.0,60.0,8.0,0.0
12855,80.0,0.0,60.0,8.0,0.0
12856,61.0,0.0,60.0,5.0,0.0
12857,69.0,0.0,60.0,6.0,0.0
12858,61.0,0.0,60.0,10.0,0.0
12859,83.0,0.0,30.0,4.0,0.0
12860,71.0,0.0,60.0,8.0,0.0
12861,51.0,29.0,60.0,3.0,0.0
12862,51.0,0.0,60.0,5.0,0.0
12863,81.0,30.0,30.0,4.0,0.0
12864,78.0,0.0,60.0,8.0,0.0
12865,51.0,0.0,60.0,10.0,0.0
12866,63.0,1.0,60.0,7.0,0.0
12867,80.0,0.0,30.0,4.0,0.0
12868,81.0,30.0,30.0,4.0,0.0
12869,51.0,0.0,60.0,5.0,0.0
12870,51.0,30.0,60.0,7.0,0.0
12871,71.0,0.0,60.0,6.0,0.0
12872,66.0,0.0,60.0,6.0,0.0
12873,85.0,0.0,30.0,4.0,0.0
12874,75.0,0.0,60.0,6.0,0.0
12875,71.0,0.0,60.0,6.0,0.0
12876,78.0,30.0,60.0,8.0,0.0
12877,71.0,0.0,60.0,8.0,0.0
12878,78.0,30.0,30.0,4.0,0.0
12879,63.0,0.0,60.0,10.0,0.0
12880,51.0,0.0,60.0,5.0,0.0
12881,81.0,0.0,30.0,4.0,0.0
12882,75.0,30.0,30.0,4.0,0.0
12883,83.0,0.0,60.0,8.0,0.0
12884,47.0,0.0,60.0,10.0,0.0
12885,59.0,0.0,60.0,7.0,0.0
12886,47.0,1.0,60.0,5.0,0.0
12887,47.0,29.0,60.0,3.0,0.0
12888,78.0,0.0,60.0,8.0,0.0
12889,78.0,0.0,30.0,4.0,0.0
12890,81.0,30.0,30.0,4.0,0.0
12891,75.0,0.0,60.0,6.0,0.0
12892,71.0,0.0,60.0,6.0,0.0
12893,47.0,30.0,60.0,5.0,0.0
12894,47.0,0.0,60.0,7.0,0.0
12895,85.0,0.0,30.0,4.0,0.0
12896,47.0,0.0,60.0,5.0,0.0
12897,83.0,30.0,30.0,4.0,0.0
12898,75.0,0.0,60.0,6.0,0.0
12899,78.0,0.0,60.0,6.0,0.0
12900,71.0,0.0,60.0,8.0,0.0
12901,75.0,30.0,60.0,8.0,0.0
12902,59.0,0.0,60.0,10.0,0.0
12903,81.0,0.0,30.0,4.0,0.0
12904,52.0,0.0,60.0,5.0,0.0
12905,52.0,0.0,60.0,10.0,0.0
12906,52.0,0.0,60.0,7.0,0.0
12907,80.0,30.0,30.0,4.0,0.0
12908,52.0,29.0,60.0,3.0,0.0
12909,71.0,0.0,60.0,8.0,0.0
12910,76.0,1.0,60.0,8.0,0.0
12911,81.0,0.0,30.0,4.0,0.0
12912,80.0,0.0,60.0,6.0,0.0
12913,40.0,0.0,60.0,7.0,0.0
12914,52.0,30.0,60.0,5.0,0.0
12915,83.0,30.0,30.0,4.0,0.0
12916,76.0,0.0,60.0,6.0,0.0
12917,88.0,0.0,30.0,4.0,0.0
12918,80.0,30.0,30.0,4.0,0.0
12919,83.0,30.0,60.0,6.0,0.0
12920,76.0,0.0,60.0,8.0,0.0
12921,83.0,0.0,60.0,8.0,0.0
12922,76.0,0.0,60.0,6.0,0.0
12923,52.0,0.0,60.0,5.0,0.0
12924,64.0,0.0,60.0,10.0,0.0
12925,78.0,0.0,30.0,4.0,0.0
12926,80.0,0.0,60.0,8.0,0.0
12927,88.0,0.0,60.0,8.0,0.0
12928,52.0,0.0,60.0,7.0,0.0
12929,52.0,0.0,60.0,10.0,0.0
12930,76.0,30.0,30.0,4.0,0.0
12931,52.0,30.0,60.0,5.0,0.0
12932,78.0,0.0,30.0,4.0,0.0
12933,52.0,0.0,60.0,5.0,0.0
12934,71.0,0.0,60.0,6.0,0.0
12935,80.0,0.0,60.0,6.0,0.0
12936,40.0,30.0,60.0,7.0,0.0
12937,80.0,30.0,30.0,4.0,0.0
12938,81.0,0.0,30.0,4.0,0.0
12939,76.0,0.0,60.0,6.0,0.0
12940,68.0,0.0,60.0,6.0,0.0
12941,52.0,0.0,60.0,10.0,0.0
12942,76.0,0.0,60.0,8.0,0.0
12943,52.0,0.0,60.0,5.0,0.0
12944,83.0,30.0,30.0,4.0,0.0
12945,80.0,0.0,60.0,8.0,0.0
12946,85.0,30.0,30.0,4.0,0.0
12947,71.0,1.0,60.0,8.0,0.0
12948,52.0,0.0,60.0,7.0,0.0
12949,52.0,29.0,60.0,3.0,0.0
12950,52.0,0.0,60.0,5.0,0.0
12951,86.0,30.0,30.0,4.0,0.0
12952,40.0,0.0,60.0,10.0,0.0
12953,80.0,0.0,60.0,8.0,0.0
12954,85.0,0.0,30.0,4.0,0.0
12955,71.0,0.0,60.0,6.0,0.0
12956,80.0,0.0,60.0,6.0,0.0
12957,40.0,0.0,60.0,7.0,0.0
12958,52.0,30.0,60.0,5.0,0.0
12959,86.0,30.0,30.0,4.0,0.0
12960,83.0,0.0,30.0,4.0,0.0
12961,52.0,0.0,60.0,5.0,0.0
12962,76.0,0.0,60.0,8.0,0.0
12963,69.0,0.0,60.0,8.0,0.0
12964,81.0,0.0,60.0,6.0,0.0
12965,52.0,0.0,60.0,10.0,0.0
12966,76.0,30.0,60.0,6.0,0.0
12967,85.0,30.0,30.0,4.0,0.0
12968,83.0,0.0,30.0,4.0,0.0
12969,52.0,0.0,60.0,7.0,0.0
12970,69.0,30.0,60.0,8.0,0.0
12971,76.0,0.0,60.0,8.0,0.0
12972,52.0,0.0,60.0,5.0,0.0
12973,85.0,30.0,30.0,4.0,0.0
12974,40.0,0.0,60.0,10.0,0.0
12975,81.0,0.0,30.0,4.0,0.0
12976,76.0,30.0,60.0,6.0,0.0
12977,80.0,0.0,60.0,6.0,0.0
12978,52.0,0.0,60.0,5.0,0.0
12979,40.0,0.0,60.0,7.0,0.0
12980,83.0,30.0,30.0,4.0,0.0
12981,80.0,0.0,30.0,4.0,0.0
12982,72.0,0.0,60.0,8.0,0.0
12983,69.0,0.0,60.0,8.0,0.0
12984,52.0,0.0,60.0,10.0,0.0
12985,52.0,0.0,60.0,5.0,0.0
12986,75.0,30.0,60.0,6.0,0.0
12987,81.0,30.0,30.0,4.0,0.0
12988,78.0,0.0,60.0,6.0,0.0
12989,78.0,0.0,30.0,4.0,0.0
12990,80.0,30.0,30.0,4.0,0.0
12991,52.0,0.0,60.0,5.0,0.0
12992,52.0,29.0,60.0,3.0,0.0
12993,71.0,0.0,60.0,8.0,0.0
12994,40.0,0.0,60.0,10.0,0.0
12995,52.0,0.0,60.0,7.0,0.0
12996,64.0,1.0,60.0,8.0,0.0
12997,78.0,0.0,30.0,4.0,0.0
12998,80.0,30.0,30.0,4.0,0.0
12999,71.0,0.0,60.0,6.0,0.0
13000,52.0,0.0,60.0,5.0,0.0
13001,76.0,30.0,60.0,6.0,0.0
13002,40.0,0.0,60.0,7.0,0.0
13003,76.0,0.0,30.0,4.0,0.0
13004,78.0,30.0,60.0,8.0,0.0
13005,69.0,0.0,60.0,8.0,0.0
13006,52.0,0.0,60.0,5.0,0.0
13007,75.0,0.0,60.0,6.0,0.0
13008,69.0,0.0,60.0,6.0,0.0
13009,52.0,0.0,60.0,10.0,0.0
13010,78.0,30.0,30.0,4.0,0.0
13011,75.0,0.0,30.0,4.0,0.0
13012,71.0,30.0,60.0,8.0,0.0
13013,76.0,30.0,30.0,4.0,0.0
13014,52.0,0.0,60.0,5.0,0.0
13015,52.0,0.0,60.0,7.0,0.0
13016,40.0,0.0,60.0,10.0,0.0
13017,80.0,0.0,60.0,8.0,0.0
13018,80.0,0.0,30.0,4.0,0.0
13019,76.0,0.0,60.0,6.0,0.0
13020,52.0,0.0,60.0,5.0,0.0
13021,40.0,0.0,60.0,7.0,0.0
13022,68.0,30.0,60.0,6.0,0.0
13023,83.0,30.0,30.0,4.0,0.0
13024,76.0,0.0,30.0,4.0,0.0
13025,80.0,30.0,30.0,4.0,0.0
13026,74.0,0.0,60.0,8.0,0.0
13027,64.0,30.0,60.0,6.0,0.0
13028,83.0,0.0,60.0,8.0,0.0
13029,52.0,0.0,60.0,10.0,0.0
13030,52.0,0.0,60.0,5.0,0.0
13031,71.0,0.0,60.0,6.0,0.0
13032,83.0,0.0,30.0,4.0,0.0
13033,88.0,30.0,30.0,4.0,0.0
13034,81.0,1.0,60.0,8.0,0.0
13035,52.0,29.0,60.0,3.0,0.0
13036,52.0,0.0,60.0,7.0,0.0
13037,40.0,0.0,60.0,10.0,0.0
13038,52.0,0.0,60.0,5.0,0.0
13039,73.0,0.0,60.0,8.0,0.0
13040,86.0,0.0,30.0,4.0,0.0
13041,73.0,0.0,60.0,6.0,0.0
13042,52.0,0.0,60.0,5.0,0.0
13043,69.0,30.0,60.0,6.0,0.0
13044,88.0,30.0,30.0,4.0,0.0
13045,40.0,0.0,60.0,7.0,0.0
13046,85.0,0.0,30.0,4.0,0.0
13047,52.0,0.0,60.0,10.0,0.0
13048,52.0,0.0,60.0,5.0,0.0
13049,80.0,0.0,60.0,8.0,0.0
13050,76.0,0.0,60.0,8.0,0.0
13051,68.0,30.0,60.0,6.0,0.0
13052,86.0,30.0,30.0,4.0,0.0
13053,76.0,0.0,60.0,6.0,0.0
13054,85.0,0.0,30.0,4.0,0.0
13055,86.0,30.0,30.0,4.0,0.0
13056,52.0,0.0,60.0,7.0,0.0
13057,52.0,0.0,60.0,5.0,0.0
13058,80.0,30.0,60.0,8.0,0.0
13059,40.0,0.0,60.0,10.0,0.0
13060,71.0,0.0,60.0,8.0,0.0
13061,83.0,0.0,30.0,4.0,0.0
13062,69.0,0.0,60.0,6.0,0.0
13063,76.0,0.0,60.0,6.0,0.0
13064,84.0,30.0,30.0,4.0,0.0
13065,52.0,30.0,60.0,5.0,0.0
13066,40.0,0.0,60.0,7.0,0.0
13067,81.0,0.0,30.0,4.0,0.0
13068,52.0,30.0,60.0,10.0,0.0
13069,80.0,0.0,60.0,6.0,0.0
13070,76.0,0.0,60.0,8.0,0.0
13071,74.0,0.0,60.0,6.0,0.0
13072,83.0,30.0,30.0,4.0,0.0
13073,68.0,0.0,60.0,8.0,0.0
13074,52.0,0.0,60.0,5.0,0.0
13075,81.0,0.0,30.0,4.0,0.0
13076,52.0,0.0,60.0,5.0,0.0
13077,40.0,1.0,60.0,10.0,0.0
13078,68.0,0.0,60.0,8.0,0.0
13079,52.0,29.0,60.0,3.0,0.0
13080,76.0,0.0,60.0,8.0,0.0
13081,83.0,30.0,30.0,4.0,0.0
13082,52.0,0.0,60.0,7.0,0.0
13083,80.0,0.0,30.0,4.0,0.0
13084,52.0,0.0,60.0,5.0,0.0
13085,76.0,0.0,60.0,6.0,0.0
13086,40.0,30.0,60.0,7.0,0.0
13087,72.0,0.0,60.0,6.0,0.0
13088,81.0,30.0,30.0,4.0,0.0
13089,76.0,0.0,30.0,4.0,0.0
13090,72.0,30.0,60.0,8.0,0.0
13091,81.0,0.0,60.0,8.0,0.0
13092,52.0,0.0,60.0,5.0,0.0
13093,77.0,30.0,30.0,4.0,0.0
13094,52.0,0.0,60.0,10.0,0.0
13095,72.0,0.0,60.0,6.0,0.0
13096,69.0,0.0,60.0,6.0,0.0
13097,75.0,0.0,30.0,4.0,0.0
13098,40.0,0.0,60.0,10.0,0.0
13099,81.0,0.0,60.0,8.0,0.0
13100,52.0,0.0,60.0,5.0,0.0
13101,72.0,30.0,60.0,8.0,0.0
13102,76.0,30.0,30.0,4.0,0.0
13103,52.0,0.0,60.0,7.0,0.0
13104,84.0,0.0,30.0,4.0,0.0
13105,71.0,0.0,60.0,6.0,0.0
13106,80.0,0.0,60.0,6.0,0.0
13107,52.0,30.0,60.0,5.0,0.0
13108,74.0,30.0,30.0,4.0,0.0
13109,40.0,0.0,60.0,7.0,0.0
13110,83.0,0.0,30.0,4.0,0.0
13111,72.0,30.0,30.0,4.0,0.0
13112,76.0,0.0,60.0,6.0,0.0
13113,81.0,0.0,60.0,6.0,0.0
13114,52.0,0.0,60.0,5.0,0.0
13115,69.0,0.0,60.0,8.0,0.0
13116,76.0,0.0,60.0,8.0,0.0
13117,52.0,0.0,60.0,10.0,0.0
13118,81.0,30.0,30.0,4.0,0.0
13119,70.0,30.0,30.0,4.0,0.0
13120,40.0,0.0,60.0,10.0,0.0
13121,52.0,0.0,60.0,7.0,0.0
13122,52.0,0.0,60.0,5.0,0.0
13123,52.0,29.0,60.0,3.0,0.0
13124,74.0,1.0,60.0,8.0,0.0
13125,77.0,0.0,60.0,8.0,0.0
13126,74.0,0.0,30.0,4.0,0.0
13127,68.0,30.0,30.0,4.0,0.0
13128,52.0,30.0,60.0,5.0,0.0
13129,40.0,0.0,60.0,7.0,0.0
13130,74.0,0.0,60.0,6.0,0.0
13131,83.0,0.0,60.0,6.0,0.0
13132,69.0,0.0,30.0,4.0,0.0
13133,72.0,0.0,60.0,8.0,0.0
13134,78.0,0.0,60.0,8.0,0.0
13135,52.0,0.0,60.0,10.0,0.0
13136,81.0,0.0,60.0,6.0,0.0
13137,72.0,60.0,60.0,6.0,0.0
13138,63.0,30.0,30.0,4.0,0.0
13139,52.0,0.0,60.0,5.0,0.0
13140,64.0,0.0,30.0,4.0,0.0
13141,71.0,0.0,60.0,8.0,0.0
13142,40.0,0.0,60.0,10.0,0.0
13143,80.0,0.0,60.0,8.0,0.0
13144,52.0,0.0,60.0,5.0,0.0
13145,52.0,30.0,60.0,7.0,0.0
13146,84.0,0.0,30.0,4.0,0.0
13147,80.0,0.0,60.0,6.0,0.0
13148,83.0,30.0,30.0,4.0,0.0
13149,52.0,0.0,60.0,5.0,0.0
13150,76.0,0.0,60.0,6.0,0.0
13151,40.0,0.0,60.0,7.0,0.0
13152,86.0,30.0,30.0,4.0,0.0
13153,71.0,0.0,60.0,6.0,0.0
13154,74.0,0.0,60.0,8.0,0.0
13155,80.0,30.0,30.0,4.0,0.0
13156,52.0,0.0,60.0,10.0,0.0
13157,76.0,0.0,60.0,6.0,0.0
13158,83.0,30.0,60.0,8.0,0.0
13159,52.0,0.0,60.0,5.0,0.0
13160,81.0,0.0,30.0,4.0,0.0
13161,72.0,0.0,60.0,8.0,0.0
13162,69.0,30.0,30.0,4.0,0.0
13163,81.0,0.0,60.0,8.0,0.0
13164,41.0,0.0,60.0,10.0,0.0
13165,53.0,0.0,60.0,7.0,0.0
13166,53.0,29.0,90.0,3.0,0.0
13167,53.0,0.0,60.0,5.0,0.0
13168,81.0,30.0,30.0,4.0,0.0
13169,84.0,1.0,30.0,4.0,0.0
13170,53.0,30.0,60.0,5.0,0.0
13171,41.0,0.0,60.0,7.0,0.0
13172,76.0,0.0,60.0,6.0,0.0
13173,69.0,0.0,60.0,6.0,0.0
13174,81.0,0.0,30.0,4.0,0.0
13175,53.0,0.0,60.0,10.0,0.0
13176,69.0,0.0,60.0,8.0,0.0
13177,72.0,0.0,60.0,8.0,0.0
13178,80.0,30.0,30.0,4.0,0.0
13179,53.0,0.0,60.0,5.0,0.0
13180,72.0,30.0,60.0,6.0,0.0
13181,76.0,0.0,60.0,6.0,0.0
13182,81.0,0.0,30.0,4.0,0.0
13183,54.0,0.0,60.0,5.0,0.0
13184,42.0,0.0,60.0,10.0,0.0
13185,75.0,30.0,30.0,4.0,0.0
13186,66.0,0.0,60.0,8.0,0.0
13187,69.0,30.0,60.0,8.0,0.0
13188,54.0,0.0,60.0,7.0,0.0
13189,54.0,29.0,90.0,3.0,0.0
13190,78.0,0.0,30.0,4.0,0.0
13191,81.0,1.0,30.0,4.0,0.0
13192,54.0,30.0,60.0,5.0,0.0
13193,42.0,0.0,60.0,7.0,0.0
13194,72.0,0.0,60.0,6.0,0.0
13195,75.0,0.0,60.0,6.0,0.0
13196,84.0,0.0,30.0,4.0,0.0
13197,66.0,0.0,60.0,8.0,0.0
13198,69.0,0.0,60.0,8.0,0.0
13199,83.0,30.0,30.0,4.0,0.0
13200,72.0,0.0,60.0,6.0,0.0
13201,54.0,0.0,60.0,5.0,0.0
13202,75.0,0.0,60.0,6.0,0.0
13203,54.0,30.0,60.0,10.0,0.0
13204,81.0,0.0,30.0,4.0,0.0
13205,44.0,0.0,60.0,10.0,0.0
13206,56.0,0.0,60.0,7.0,0.0
13207,64.0,0.0,60.0,8.0,0.0
13208,86.0,30.0,30.0,4.0,0.0
13209,56.0,0.0,60.0,5.0,0.0
13210,56.0,29.0,60.0,3.0,0.0
13211,71.0,1.0,60.0,8.0,0.0
13212,83.0,0.0,30.0,4.0,0.0
13213,56.0,0.0,60.0,5.0,0.0
13214,44.0,30.0,60.0,7.0,0.0
13215,76.0,0.0,60.0,6.0,0.0
13216,71.0,0.0,60.0,6.0,0.0
13217,80.0,30.0,30.0,4.0,0.0
13218,76.0,0.0,30.0,4.0,0.0
13219,57.0,29.0,30.0,3.0,0.0
13220,85.0,1.0,30.0,4.0,0.0
13221,64.0,0.0,60.0,8.0,0.0
13222,73.0,0.0,60.0,8.0,0.0
13223,45.0,30.0,60.0,7.0,0.0
13224,57.0,0.0,60.0,10.0,0.0
13225,57.0,0.0,60.0,5.0,0.0
13226,76.0,0.0,60.0,6.0,0.0
13227,69.0,0.0,60.0,6.0,0.0
13228,81.0,0.0,30.0,4.0,0.0
13229,71.0,0.0,60.0,8.0,0.0
13230,78.0,1.0,30.0,4.0,0.0
13231,62.0,30.0,60.0,5.0,0.0
13232,50.0,29.0,30.0,3.0,0.0
13233,66.0,0.0,60.0,8.0,0.0
13234,62.0,0.0,60.0,10.0,0.0
13235,50.0,0.0,60.0,7.0,0.0
13236,83.0,0.0,30.0,4.0,0.0
13237,64.0,0.0,60.0,10.0,0.0
13238,73.0,30.0,60.0,6.0,0.0
13239,76.0,0.0,60.0,6.0,0.0
13240,52.0,0.0,60.0,7.0,0.0
13241,81.0,1.0,30.0,4.0,0.0
13242,52.0,29.0,30.0,3.0,0.0
13243,64.0,0.0,60.0,5.0,0.0
13244,80.0,0.0,30.0,4.0,0.0
13245,71.0,0.0,60.0,6.0,0.0
13246,74.0,0.0,60.0,6.0,0.0
13247,81.0,1.0,30.0,4.0,0.0
13248,52.0,0.0,60.0,5.0,0.0
13249,52.0,0.0,60.0,10.0,0.0
13250,40.0,29.0,30.0,3.0,0.0
13251,64.0,0.0,60.0,8.0,0.0
13252,40.0,0.0,60.0,7.0,0.0
13253,71.0,30.0,60.0,8.0,0.0
13254,80.0,30.0,60.0,4.0,0.0
13255,57.0,15.0,300.0,10.0,0.0
13256,45.0,29.0,120.0,3.0,0.0
13257,64.0,30.0,60.0,8.0,0.0
13258,57.0,29.0,210.0,5.0,0.0
13259,45.0,0.0,300.0,7.0,0.0
13260,73.0,0.0,60.0,8.0,0.0
13261,81.0,0.0,30.0,4.0,0.0
13262,73.0,30.0,30.0,4.0,0.0
13263,68.0,1.0,60.0,6.0,0.0
13264,71.0,0.0,60.0,6.0,0.0
13265,74.0,0.0,30.0,4.0,0.0
13266,69.0,0.0,60.0,6.0,0.0
13267,73.0,0.0,60.0,8.0,0.0
13268,76.0,30.0,30.0,4.0,0.0
13269,76.0,0.0,60.0,8.0,0.0
13270,64.0,0.0,60.0,6.0,0.0
13271,73.0,31.0,30.0,4.0,0.0
13272,69.0,15.0,120.0,4.0,0.0
13273,64.0,0.0,120.0,6.0,0.0
13274,73.0,1.0,120.0,8.0,0.0
13275,76.0,0.0,120.0,8.0,0.0
13276,61.0,0.0,120.0,6.0,0.0
13277,81.0,0.0,120.0,8.0,0.0
13278,52.0,30.0,30.0,5.0,0.0
13279,49.0,30.0,30.0,5.0,0.0
13280,52.0,0.0,30.0,5.0,0.0
13281,45.0,1.0,60.0,5.0,0.0
13282,68.0,15.0,15.0,4.0,0.0
13283,69.0,14.0,15.0,4.0,0.0
13284,71.0,9.0,15.0,4.0,0.0
13285,73.0,10.0,15.0,4.0,0.0
13286,74.0,10.0,15.0,4.0,0.0
13287,76.0,10.0,15.0,4.0,0.0
13288,73.0,10.0,15.0,4.0,0.0
13289,74.0,10.0,15.0,4.0,0.0
13290,76.0,10.0,15.0,4.0,0.0
13291,78.0,10.0,15.0,4.0,0.0
13292,80.0,10.0,15.0,4.0,0.0
13293,81.0,10.0,15.0,4.0,0.0
13294,76.0,10.0,15.0,4.0,0.0
13295,78.0,10.0,15.0,4.0,0.0
13296,80.0,10.0,15.0,4.0,0.0
13297,81.0,10.0,15.0,4.0,0.0
13298,83.0,10.0,15.0,4.0,0.0
13299,85.0,10.0,15.0,4.0,0.0
13300,80.0,10.0,15.0,4.0,0.0
13301,81.0,10.0,15.0,4.0,0.0
13302,83.0,10.0,15.0,4.0,0.0
13303,85.0,10.0,15.0,4.0,0.0
13304,86.0,10.0,15.0,4.0,0.0
13305,88.0,10.0,15.0,4.0,0.0
13306,90.0,10.0,15.0,4.0,0.0
13307,88.0,10.0,15.0,4.0,0.0
13308,86.0,10.0,15.0,4.0,0.0
13309,85.0,10.0,15.0,4.0,0.0
13310,86.0,10.0,15.0,4.0,0.0
13311,85.0,10.0,15.0,4.0,0.0
13312,83.0,10.0,15.0,4.0,0.0
13313,81.0,10.0,15.0,4.0,0.0
13314,80.0,10.0,15.0,4.0,0.0
13315,81.0,10.0,15.0,4.0,0.0
13316,83.0,10.0,15.0,4.0,0.0
13317,81.0,10.0,15.0,4.0,0.0
13318,80.0,10.0,15.0,4.0,0.0
13319,78.0,10.0,15.0,4.0,0.0
13320,77.0,10.0,15.0,4.0,0.0
13321,78.0,10.0,15.0,4.0,0.0
13322,74.0,10.0,15.0,4.0,0.0
13323,73.0,10.0,15.0,4.0,0.0
13324,71.0,10.0,15.0,4.0,0.0
13325,69.0,10.0,15.0,4.0,0.0
13326,68.0,10.0,15.0,4.0,0.0
13327,69.0,10.0,15.0,4.0,0.0
13328,71.0,10.0,15.0,4.0,0.0
13329,69.0,10.0,15.0,4.0,0.0
13330,68.0,10.0,15.0,4.0,0.0
13331,66.0,10.0,15.0,4.0,0.0
13332,65.0,10.0,15.0,4.0,0.0
13333,66.0,10.0,15.0,4.0,0.0
13334,69.0,10.0,15.0,4.0,0.0
13335,68.0,10.0,15.0,4.0,0.0
13336,66.0,10.0,15.0,4.0,0.0
13337,65.0,10.0,15.0,4.0,0.0
13338,66.0,10.0,15.0,4.0,0.0
13339,61.0,10.0,15.0,5.0,0.0
13340,66.0,10.0,15.0,5.0,0.0
13341,64.0,10.0,15.0,5.0,0.0
13342,62.0,10.0,15.0,5.0,0.0
13343,61.0,10.0,15.0,5.0,0.0
13344,59.0,10.0,15.0,5.0,0.0
13345,57.0,10.0,15.0,5.0,0.0
13346,62.0,10.0,15.0,5.0,0.0
13347,61.0,10.0,15.0,5.0,0.0
13348,59.0,10.0,15.0,5.0,0.0
13349,57.0,10.0,15.0,5.0,0.0
13350,56.0,10.0,15.0,5.0,0.0
13351,54.0,10.0,15.0,5.0,0.0
13352,57.0,10.0,15.0,5.0,0.0
13353,56.0,10.0,15.0,5.0,0.0
13354,54.0,10.0,15.0,5.0,0.0
13355,53.0,10.0,15.0,5.0,0.0
13356,54.0,191.0,15.0,5.0,0.0
13357,50.0,1.0,360.0,5.0,0.0
13358,78.0,0.0,15.0,4.0,0.0
13359,50.0,0.0,180.0,7.0,0.0
13360,69.0,0.0,30.0,1.0,0.0
13361,73.0,0.0,60.0,4.0,0.0
13362,69.0,0.0,60.0,2.0,0.0
13363,69.0,8.0,30.0,6.0,0.0
13364,78.0,10.0,15.0,0.0,0.0
13365,66.0,0.0,60.0,6.0,0.0
13366,50.0,0.0,180.0,10.0,0.0
13367,73.0,0.0,60.0,8.0,0.0
13368,69.0,0.0,60.0,8.0,0.0
13369,66.0,0.0,60.0,8.0,0.0
13370,50.0,359.0,180.0,3.0,0.0
13371,80.0,0.0,15.0,0.0,0.0
13372,80.0,10.0,15.0,4.0,0.0
13373,78.0,0.0,15.0,4.0,0.0
13374,78.0,0.0,15.0,0.0,0.0
13375,71.0,0.0,30.0,6.0,0.0
13376,80.0,0.0,15.0,4.0,0.0
13377,80.0,7.0,15.0,0.0,0.0
13378,71.0,0.0,30.0,1.0,0.0
13379,78.0,0.0,15.0,0.0,0.0
13380,78.0,8.0,15.0,4.0,0.0
13381,80.0,7.0,15.0,4.0,0.0
13382,80.0,0.0,15.0,0.0,0.0
13383,78.0,8.0,15.0,4.0,0.0
13384,78.0,0.0,15.0,0.0,0.0
13385,68.0,0.0,60.0,2.0,0.0
13386,73.0,5.0,15.0,1.0,0.0
13387,80.0,2.0,15.0,4.0,0.0
13388,71.0,0.0,120.0,4.0,0.0
13389,73.0,0.0,15.0,6.0,0.0
13390,71.0,0.0,30.0,8.0,0.0
13391,66.0,0.0,120.0,6.0,0.0
13392,80.0,0.0,15.0,0.0,0.0
13393,78.0,5.0,15.0,4.0,0.0
13394,78.0,0.0,15.0,0.0,0.0
13395,71.0,0.0,15.0,1.0,0.0
13396,71.0,3.0,15.0,6.0,0.0
13397,80.0,7.0,15.0,4.0,0.0
13398,80.0,0.0,15.0,0.0,0.0
13399,73.0,0.0,15.0,1.0,0.0
13400,73.0,0.0,15.0,6.0,0.0
13401,78.0,8.0,15.0,0.0,0.0
13402,78.0,0.0,15.0,4.0,0.0
13403,71.0,7.0,15.0,1.0,0.0
13404,71.0,0.0,15.0,6.0,0.0
13405,80.0,0.0,15.0,4.0,0.0
13406,69.0,0.0,30.0,8.0,0.0
13407,80.0,0.0,15.0,0.0,0.0
13408,78.0,0.0,15.0,4.0,0.0
13409,73.0,0.0,15.0,1.0,0.0
13410,78.0,0.0,15.0,0.0,0.0
13411,73.0,8.0,15.0,6.0,0.0
13412,80.0,0.0,15.0,4.0,0.0
13413,71.0,0.0,15.0,6.0,0.0
13414,71.0,0.0,15.0,1.0,0.0
13415,80.0,7.0,15.0,0.0,0.0
13416,73.0,0.0,15.0,6.0,0.0
13417,78.0,0.0,15.0,4.0,0.0
13418,78.0,0.0,15.0,0.0,0.0
13419,73.0,8.0,15.0,1.0,0.0
13420,71.0,0.0,15.0,1.0,0.0
13421,80.0,2.0,15.0,4.0,0.0
13422,71.0,5.0,15.0,6.0,0.0
13423,68.0,0.0,30.0,8.0,0.0
13424,80.0,0.0,15.0,0.0,0.0
13425,66.0,0.0,60.0,2.0,0.0
13426,78.0,0.0,15.0,4.0,0.0
13427,78.0,5.0,15.0,0.0,0.0
13428,73.0,0.0,15.0,1.0,0.0
13429,73.0,3.0,15.0,6.0,0.0
13430,80.0,0.0,15.0,0.0,0.0
13431,80.0,7.0,15.0,4.0,0.0
13432,71.0,0.0,15.0,6.0,0.0
13433,71.0,0.0,15.0,1.0,0.0
13434,78.0,0.0,15.0,4.0,0.0
13435,78.0,8.0,15.0,0.0,0.0
13436,66.0,0.0,30.0,8.0,0.0
13437,76.0,8.0,15.0,4.0,0.0
13438,73.0,0.0,30.0,6.0,0.0
13439,73.0,0.0,30.0,1.0,0.0
13440,80.0,7.0,15.0,0.0,0.0
13441,78.0,0.0,15.0,0.0,0.0
13442,80.0,6.0,15.0,0.0,0.0
13443,78.0,0.0,15.0,4.0,0.0
13444,78.0,0.0,15.0,0.0,0.0
13445,73.0,0.0,360.0,4.0,0.0
13446,73.0,0.0,360.0,1.0,0.0
13447,68.0,0.0,360.0,6.0,0.0
13448,61.0,0.0,360.0,10.0,0.0
13449,68.0,0.0,360.0,2.0,0.0
13450,77.0,0.0,360.0,0.0,0.0
13451,73.0,0.0,360.0,6.0,0.0
13452,68.0,0.0,360.0,8.0,0.0
13453,65.0,0.0,360.0,8.0,0.0
13454,77.0,419.0,360.0,4.0,0.0
13455,49.0,0.0,360.0,7.0,0.0
13456,49.0,1.0,360.0,5.0,0.0
13457,49.0,0.0,360.0,10.0,0.0
13458,49.0,0.0,360.0,3.0,0.0
13459,73.0,0.0,60.0,6.0,0.0
13460,54.0,0.0,60.0,7.0,0.0
13461,73.0,0.0,60.0,1.0,0.0
13462,54.0,120.0,60.0,3.0,0.0
13463,78.0,0.0,120.0,6.0,0.0
13464,78.0,60.0,120.0,1.0,0.0
13465,56.0,0.0,60.0,3.0,0.0
13466,56.0,0.0,60.0,7.0,0.0
13467,77.0,0.0,60.0,1.0,0.0
13468,77.0,60.0,60.0,6.0,0.0
13469,78.0,120.0,60.0,1.0,0.0
13470,78.0,0.0,60.0,6.0,0.0
13471,57.0,0.0,60.0,3.0,0.0
13472,57.0,0.0,60.0,7.0,0.0
13473,80.0,120.0,120.0,6.0,0.0
13474,80.0,0.0,120.0,1.0,0.0
13475,59.0,0.0,60.0,7.0,0.0
13476,59.0,0.0,60.0,3.0,0.0
13477,81.0,30.0,120.0,1.0,0.0
13478,81.0,0.0,120.0,6.0,0.0
13479,61.0,0.0,60.0,3.0,0.0
13480,61.0,0.0,60.0,7.0,0.0
13481,80.0,0.0,30.0,1.0,0.0
13482,80.0,30.0,30.0,6.0,0.0
13483,62.0,0.0,60.0,7.0,0.0
13484,62.0,0.0,60.0,3.0,0.0
13485,78.0,0.0,30.0,1.0,0.0
13486,78.0,30.0,30.0,6.0,0.0
13487,81.0,0.0,30.0,6.0,0.0
13488,81.0,30.0,30.0,1.0,0.0
13489,59.0,0.0,60.0,7.0,0.0
13490,59.0,0.0,60.0,3.0,0.0
13491,80.0,30.0,30.0,6.0,0.0
13492,80.0,0.0,30.0,1.0,0.0
13493,78.0,0.0,30.0,6.0,0.0
13494,78.0,30.0,30.0,1.0,0.0
13495,61.0,0.0,60.0,7.0,0.0
13496,61.0,0.0,60.0,3.0,0.0
13497,77.0,60.0,30.0,6.0,0.0
13498,77.0,0.0,30.0,1.0,0.0
13499,66.0,0.0,60.0,3.0,0.0
13500,66.0,0.0,60.0,7.0,0.0
13501,78.0,30.0,60.0,6.0,0.0
13502,78.0,0.0,60.0,1.0,0.0
13503,63.0,0.0,60.0,3.0,0.0
13504,80.0,30.0,30.0,6.0,0.0
13505,63.0,0.0,60.0,7.0,0.0
13506,80.0,0.0,30.0,1.0,0.0
13507,81.0,30.0,30.0,1.0,0.0
13508,81.0,0.0,30.0,6.0,0.0
13509,60.0,0.0,60.0,7.0,0.0
13510,80.0,0.0,30.0,6.0,0.0
13511,60.0,0.0,60.0,3.0,0.0
13512,80.0,30.0,30.0,1.0,0.0
13513,78.0,30.0,30.0,6.0,0.0
13514,78.0,0.0,30.0,1.0,0.0
13515,76.0,30.0,30.0,1.0,0.0
13516,56.0,0.0,60.0,7.0,0.0
13517,56.0,0.0,60.0,3.0,0.0
13518,76.0,0.0,30.0,6.0,0.0
13519,75.0,30.0,30.0,6.0,0.0
13520,75.0,0.0,30.0,1.0,0.0
13521,61.0,30.0,60.0,3.0,0.0
13522,76.0,30.0,30.0,1.0,0.0
13523,61.0,0.0,90.0,7.0,0.0
13524,80.0,0.0,60.0,0.0,0.0
13525,80.0,0.0,60.0,4.0,0.0
13526,61.0,0.0,60.0,5.0,0.0
13527,76.0,0.0,30.0,6.0,0.0
13528,78.0,0.0,30.0,6.0,0.0
13529,78.0,0.0,30.0,1.0,0.0
13530,85.0,0.0,120.0,4.0,0.0
13531,85.0,0.0,120.0,0.0,0.0
13532,75.0,0.0,30.0,1.0,0.0
13533,75.0,30.0,30.0,6.0,0.0
13534,76.0,0.0,30.0,1.0,0.0
13535,76.0,0.0,30.0,6.0,0.0
13536,73.0,30.0,30.0,7.0,0.0
13537,63.0,0.0,60.0,5.0,0.0
13538,63.0,30.0,60.0,3.0,0.0
13539,78.0,0.0,30.0,6.0,0.0
13540,69.0,0.0,30.0,7.0,0.0
13541,78.0,30.0,30.0,1.0,0.0
13542,80.0,0.0,30.0,6.0,0.0
13543,68.0,0.0,30.0,7.0,0.0
13544,80.0,0.0,30.0,1.0,0.0
13545,76.0,0.0,30.0,1.0,0.0
13546,76.0,30.0,30.0,6.0,0.0
13547,84.0,0.0,60.0,0.0,0.0
13548,84.0,0.0,60.0,4.0,0.0
13549,69.0,0.0,30.0,7.0,0.0
13550,66.0,30.0,30.0,7.0,0.0
13551,78.0,0.0,30.0,1.0,0.0
13552,78.0,0.0,30.0,6.0,0.0
13553,64.0,0.0,60.0,3.0,0.0
13554,85.0,0.0,60.0,0.0,0.0
13555,85.0,0.0,60.0,4.0,0.0
13556,64.0,0.0,60.0,5.0,0.0
13557,73.0,0.0,30.0,7.0,0.0
13558,80.0,30.0,30.0,1.0,0.0
13559,80.0,0.0,30.0,6.0,0.0
13560,68.0,30.0,30.0,7.0,0.0
13561,76.0,0.0,30.0,1.0,0.0
13562,76.0,0.0,30.0,6.0,0.0
13563,87.0,0.0,120.0,4.0,0.0
13564,66.0,30.0,30.0,7.0,0.0
13565,87.0,0.0,120.0,0.0,0.0
13566,75.0,0.0,30.0,6.0,0.0
13567,75.0,0.0,30.0,1.0,0.0
13568,73.0,30.0,30.0,1.0,0.0
13569,64.0,0.0,30.0,7.0,0.0
13570,73.0,0.0,30.0,6.0,0.0
13571,63.0,0.0,30.0,7.0,0.0
13572,66.0,0.0,60.0,5.0,0.0
13573,81.0,0.0,30.0,6.0,0.0
13574,66.0,0.0,60.0,3.0,0.0
13575,81.0,30.0,30.0,1.0,0.0
13576,78.0,30.0,30.0,6.0,0.0
13577,78.0,0.0,30.0,1.0,0.0
13578,69.0,0.0,30.0,7.0,0.0
13579,76.0,0.0,30.0,6.0,0.0
13580,68.0,0.0,30.0,7.0,0.0
13581,88.0,0.0,120.0,0.0,0.0
13582,76.0,30.0,30.0,1.0,0.0
13583,88.0,0.0,120.0,4.0,0.0
13584,66.0,0.0,30.0,7.0,0.0
13585,75.0,0.0,30.0,6.0,0.0
13586,75.0,30.0,30.0,1.0,0.0
13587,64.0,0.0,30.0,7.0,0.0
13588,84.0,30.0,30.0,6.0,0.0
13589,68.0,30.0,60.0,5.0,0.0
13590,68.0,0.0,60.0,3.0,0.0
13591,84.0,0.0,30.0,1.0,0.0
13592,80.0,0.0,30.0,1.0,0.0
13593,80.0,0.0,30.0,6.0,0.0
13594,68.0,0.0,30.0,7.0,0.0
13595,87.0,30.0,30.0,4.0,0.0
13596,69.0,0.0,60.0,3.0,0.0
13597,87.0,0.0,30.0,0.0,0.0
13598,69.0,30.0,60.0,5.0,0.0
13599,78.0,0.0,30.0,6.0,0.0
13600,78.0,0.0,30.0,1.0,0.0
13601,73.0,0.0,90.0,7.0,0.0
13602,85.0,0.0,30.0,4.0,0.0
13603,85.0,0.0,30.0,0.0,0.0
13604,76.0,0.0,30.0,6.0,0.0
13605,76.0,0.0,30.0,1.0,0.0
13606,88.0,0.0,30.0,4.0,0.0
13607,66.0,0.0,60.0,3.0,0.0
13608,81.0,0.0,30.0,1.0,0.0
13609,88.0,0.0,30.0,0.0,0.0
13610,81.0,30.0,30.0,6.0,0.0
13611,66.0,0.0,60.0,5.0,0.0
13612,87.0,0.0,30.0,0.0,0.0
13613,69.0,0.0,30.0,7.0,0.0
13614,78.0,30.0,30.0,1.0,0.0
13615,87.0,0.0,30.0,4.0,0.0
13616,78.0,0.0,30.0,6.0,0.0
13617,85.0,0.0,30.0,4.0,0.0
13618,68.0,0.0,30.0,7.0,0.0
13619,68.0,0.0,60.0,5.0,0.0
13620,85.0,0.0,30.0,0.0,0.0
13621,76.0,30.0,30.0,6.0,0.0
13622,68.0,0.0,60.0,3.0,0.0
13623,76.0,0.0,30.0,1.0,0.0
13624,75.0,0.0,30.0,1.0,0.0
13625,84.0,0.0,30.0,0.0,0.0
13626,75.0,0.0,30.0,6.0,0.0
13627,84.0,30.0,30.0,4.0,0.0
13628,66.0,0.0,30.0,7.0,0.0
13629,61.0,0.0,60.0,3.0,0.0
13630,76.0,0.0,60.0,1.0,0.0
13631,85.0,30.0,30.0,0.0,0.0
13632,61.0,0.0,60.0,5.0,0.0
13633,76.0,0.0,60.0,6.0,0.0
13634,85.0,0.0,30.0,4.0,0.0
13635,68.0,0.0,30.0,7.0,0.0
13636,87.0,0.0,30.0,4.0,0.0
13637,87.0,0.0,30.0,0.0,0.0
13638,66.0,30.0,30.0,7.0,0.0
13639,88.0,0.0,30.0,0.0,0.0
13640,64.0,0.0,30.0,7.0,0.0
13641,68.0,0.0,60.0,5.0,0.0
13642,73.0,30.0,60.0,6.0,0.0
13643,88.0,30.0,30.0,4.0,0.0
13644,73.0,0.0,60.0,1.0,0.0
13645,63.0,0.0,30.0,7.0,0.0
13646,90.0,0.0,30.0,0.0,0.0
13647,90.0,0.0,30.0,4.0,0.0
13648,76.0,0.0,60.0,6.0,0.0
13649,88.0,0.0,30.0,4.0,0.0
13650,88.0,0.0,30.0,0.0,0.0
13651,61.0,30.0,30.0,7.0,0.0
13652,76.0,0.0,60.0,1.0,0.0
13653,49.0,0.0,60.0,3.0,0.0
13654,73.0,0.0,60.0,5.0,0.0
13655,86.0,30.0,30.0,4.0,0.0
13656,86.0,0.0,30.0,0.0,0.0
13657,62.0,0.0,30.0,7.0,0.0
13658,79.0,30.0,90.0,6.0,0.0
13659,85.0,0.0,30.0,0.0,0.0
13660,85.0,0.0,30.0,4.0,0.0
13661,61.0,0.0,60.0,5.0,0.0
13662,79.0,0.0,90.0,1.0,0.0
13663,64.0,30.0,30.0,7.0,0.0
13664,83.0,0.0,30.0,0.0,0.0
13665,61.0,0.0,30.0,7.0,0.0
13666,83.0,30.0,30.0,4.0,0.0
13667,73.0,0.0,60.0,7.0,0.0
13668,82.0,0.0,30.0,4.0,0.0
13669,66.0,0.0,60.0,5.0,0.0
13670,54.0,0.0,60.0,3.0,0.0
13671,82.0,0.0,30.0,0.0,0.0
13672,76.0,0.0,30.0,1.0,0.0
13673,76.0,30.0,30.0,6.0,0.0
13674,70.0,0.0,60.0,7.0,0.0
13675,85.0,0.0,30.0,0.0,0.0
13676,78.0,0.0,30.0,1.0,0.0
13677,64.0,30.0,60.0,5.0,0.0
13678,85.0,0.0,30.0,4.0,0.0
13679,78.0,30.0,30.0,6.0,0.0
13680,79.0,0.0,30.0,6.0,0.0
13681,79.0,0.0,30.0,1.0,0.0
13682,62.0,0.0,60.0,5.0,0.0
13683,78.0,30.0,30.0,1.0,0.0
13684,78.0,0.0,30.0,6.0,0.0
13685,78.0,0.0,30.0,0.0,0.0
13686,66.0,0.0,60.0,3.0,0.0
13687,70.0,0.0,60.0,7.0,0.0
13688,78.0,0.0,30.0,4.0,0.0
13689,76.0,30.0,30.0,1.0,0.0
13690,76.0,0.0,30.0,6.0,0.0
13691,74.0,0.0,30.0,6.0,0.0
13692,66.0,0.0,60.0,7.0,0.0
13693,82.0,0.0,30.0,0.0,0.0
13694,61.0,0.0,60.0,5.0,0.0
13695,74.0,30.0,30.0,1.0,0.0
13696,82.0,0.0,30.0,4.0,0.0
13697,73.0,0.0,30.0,1.0,0.0
13698,73.0,30.0,30.0,6.0,0.0
13699,59.0,0.0,60.0,3.0,0.0
13700,66.0,30.0,30.0,7.0,0.0
13701,74.0,0.0,60.0,6.0,0.0
13702,83.0,0.0,30.0,0.0,0.0
13703,74.0,0.0,60.0,1.0,0.0
13704,59.0,0.0,60.0,5.0,0.0
13705,83.0,0.0,30.0,4.0,0.0
13706,85.0,30.0,30.0,0.0,0.0
13707,85.0,0.0,30.0,4.0,0.0
13708,64.0,0.0,30.0,7.0,0.0
13709,86.0,0.0,30.0,0.0,0.0
13710,86.0,30.0,30.0,4.0,0.0
13711,71.0,0.0,60.0,1.0,0.0
13712,66.0,0.0,60.0,5.0,0.0
13713,71.0,0.0,60.0,6.0,0.0
13714,62.0,0.0,30.0,7.0,0.0
13715,88.0,0.0,30.0,4.0,0.0
13716,61.0,0.0,30.0,7.0,0.0
13717,88.0,30.0,30.0,0.0,0.0
13718,74.0,0.0,60.0,6.0,0.0
13719,86.0,30.0,30.0,0.0,0.0
13720,47.0,0.0,60.0,3.0,0.0
13721,59.0,0.0,30.0,7.0,0.0
13722,74.0,0.0,60.0,1.0,0.0
13723,86.0,0.0,30.0,4.0,0.0
13724,71.0,0.0,60.0,5.0,0.0
13725,61.0,0.0,30.0,7.0,0.0
13726,85.0,30.0,30.0,0.0,0.0
13727,85.0,0.0,30.0,4.0,0.0
13728,78.0,0.0,90.0,6.0,0.0
13729,83.0,30.0,30.0,0.0,0.0
13730,62.0,0.0,30.0,7.0,0.0
13731,59.0,0.0,60.0,5.0,0.0
13732,83.0,0.0,30.0,4.0,0.0
13733,78.0,30.0,90.0,1.0,0.0
13734,81.0,0.0,30.0,0.0,0.0
13735,81.0,0.0,30.0,4.0,0.0
13736,59.0,30.0,30.0,7.0,0.0
13737,80.0,0.0,30.0,0.0,0.0
13738,52.0,0.0,60.0,3.0,0.0
13739,80.0,0.0,30.0,4.0,0.0
13740,64.0,0.0,60.0,5.0,0.0
13741,71.0,0.0,60.0,7.0,0.0
13742,74.0,30.0,30.0,1.0,0.0
13743,74.0,0.0,30.0,6.0,0.0
13744,83.0,0.0,30.0,0.0,0.0
13745,68.0,0.0,60.0,7.0,0.0
13746,76.0,30.0,30.0,6.0,0.0
13747,76.0,0.0,30.0,1.0,0.0
13748,83.0,0.0,30.0,4.0,0.0
13749,62.0,0.0,60.0,5.0,0.0
13750,78.0,0.0,30.0,6.0,0.0
13751,78.0,30.0,30.0,1.0,0.0
13752,61.0,30.0,60.0,5.0,0.0
13753,68.0,0.0,60.0,7.0,0.0
13754,76.0,0.0,30.0,6.0,0.0
13755,76.0,0.0,30.0,1.0,0.0
13756,64.0,0.0,60.0,3.0,0.0
13757,76.0,0.0,30.0,4.0,0.0
13758,76.0,30.0,30.0,0.0,0.0
13759,74.0,0.0,30.0,1.0,0.0
13760,74.0,0.0,30.0,6.0,0.0
13761,80.0,0.0,30.0,4.0,0.0
13762,73.0,0.0,30.0,1.0,0.0
13763,80.0,0.0,30.0,0.0,0.0
13764,59.0,30.0,60.0,5.0,0.0
13765,64.0,0.0,60.0,7.0,0.0
13766,73.0,30.0,30.0,6.0,0.0
13767,71.0,0.0,30.0,6.0,0.0
13768,71.0,0.0,30.0,1.0,0.0
13769,81.0,0.0,30.0,4.0,0.0
13770,57.0,0.0,60.0,3.0,0.0
13771,73.0,0.0,30.0,6.0,0.0
13772,57.0,30.0,60.0,5.0,0.0
13773,73.0,0.0,30.0,1.0,0.0
13774,64.0,0.0,60.0,7.0,0.0
13775,81.0,30.0,30.0,0.0,0.0
13776,76.0,0.0,30.0,6.0,0.0
13777,76.0,0.0,30.0,1.0,0.0
13778,69.0,0.0,120.0,7.0,0.0
13779,85.0,0.0,30.0,4.0,0.0
13780,74.0,30.0,30.0,1.0,0.0
13781,85.0,0.0,30.0,0.0,0.0
13782,69.0,0.0,120.0,3.0,0.0
13783,74.0,0.0,30.0,6.0,0.0
13784,69.0,30.0,60.0,5.0,0.0
13785,73.0,0.0,30.0,1.0,0.0
13786,73.0,0.0,30.0,6.0,0.0
13787,74.0,30.0,30.0,4.0,0.0
13788,74.0,0.0,30.0,0.0,0.0
13789,83.0,0.0,30.0,6.0,0.0
13790,66.0,30.0,60.0,5.0,0.0
13791,83.0,0.0,30.0,1.0,0.0
13792,74.0,0.0,30.0,6.0,0.0
13793,74.0,0.0,30.0,1.0,0.0
13794,83.0,0.0,30.0,4.0,0.0
13795,73.0,0.0,30.0,1.0,0.0
13796,68.0,0.0,60.0,5.0,0.0
13797,68.0,30.0,120.0,7.0,0.0
13798,73.0,30.0,30.0,6.0,0.0
13799,83.0,0.0,30.0,0.0,0.0
13800,68.0,0.0,120.0,3.0,0.0
13801,71.0,0.0,30.0,1.0,0.0
13802,71.0,30.0,30.0,6.0,0.0
13803,69.0,0.0,30.0,6.0,0.0
13804,73.0,0.0,30.0,0.0,0.0
13805,73.0,0.0,30.0,4.0,0.0
13806,69.0,30.0,30.0,1.0,0.0
13807,65.0,0.0,60.0,5.0,0.0
13808,73.0,0.0,30.0,6.0,0.0
13809,73.0,0.0,30.0,1.0,0.0
13810,81.0,0.0,30.0,4.0,0.0
13811,66.0,0.0,60.0,5.0,0.0
13812,71.0,0.0,30.0,6.0,0.0
13813,66.0,0.0,120.0,3.0,0.0
13814,81.0,0.0,30.0,0.0,0.0
13815,71.0,30.0,30.0,1.0,0.0
13816,66.0,30.0,120.0,7.0,0.0
13817,69.0,30.0,30.0,6.0,0.0
13818,69.0,0.0,30.0,1.0,0.0
13819,71.0,0.0,30.0,4.0,0.0
13820,80.0,0.0,30.0,1.0,0.0
13821,71.0,30.0,30.0,0.0,0.0
13822,63.0,0.0,60.0,5.0,0.0
13823,80.0,0.0,30.0,6.0,0.0
13824,71.0,0.0,30.0,6.0,0.0
13825,71.0,0.0,30.0,1.0,0.0
13826,80.0,30.0,30.0,0.0,0.0
13827,69.0,0.0,30.0,6.0,0.0
13828,65.0,30.0,60.0,7.0,0.0
13829,80.0,0.0,30.0,4.0,0.0
13830,65.0,0.0,60.0,3.0,0.0
13831,65.0,0.0,60.0,5.0,0.0
13832,69.0,0.0,30.0,1.0,0.0
13833,68.0,0.0,30.0,1.0,0.0
13834,68.0,0.0,30.0,6.0,0.0
13835,66.0,0.0,60.0,7.0,0.0
13836,66.0,0.0,30.0,6.0,0.0
13837,69.0,0.0,30.0,4.0,0.0
13838,69.0,0.0,30.0,0.0,0.0
13839,66.0,30.0,30.0,1.0,0.0
13840,66.0,30.0,60.0,3.0,0.0
13841,78.0,0.0,30.0,6.0,0.0
13842,78.0,0.0,30.0,1.0,0.0
13843,66.0,0.0,30.0,5.0,0.0
13844,62.0,30.0,60.0,7.0,0.0
13845,78.0,30.0,30.0,0.0,0.0
13846,80.0,0.0,30.0,1.0,0.0
13847,62.0,0.0,60.0,3.0,0.0
13848,80.0,0.0,30.0,6.0,0.0
13849,78.0,0.0,30.0,4.0,0.0
13850,65.0,0.0,30.0,5.0,0.0
13851,81.0,0.0,30.0,1.0,0.0
13852,81.0,0.0,30.0,6.0,0.0
13853,66.0,0.0,30.0,5.0,0.0
13854,59.0,0.0,60.0,7.0,0.0
13855,68.0,0.0,30.0,4.0,0.0
13856,71.0,30.0,30.0,1.0,0.0
13857,71.0,0.0,30.0,6.0,0.0
13858,59.0,30.0,60.0,3.0,0.0
13859,68.0,0.0,30.0,0.0,0.0
13860,62.0,0.0,30.0,5.0,0.0
13861,77.0,0.0,30.0,6.0,0.0
13862,77.0,0.0,30.0,1.0,0.0
13863,77.0,0.0,30.0,0.0,0.0
13864,61.0,0.0,30.0,5.0,0.0
13865,78.0,0.0,30.0,6.0,0.0
13866,61.0,0.0,60.0,3.0,0.0
13867,77.0,0.0,30.0,4.0,0.0
13868,61.0,0.0,120.0,7.0,0.0
13869,78.0,30.0,30.0,1.0,0.0
13870,80.0,0.0,30.0,1.0,0.0
13871,59.0,30.0,30.0,5.0,0.0
13872,80.0,0.0,30.0,6.0,0.0
13873,54.0,0.0,60.0,7.0,0.0
13874,61.0,0.0,60.0,2.0,0.0
13875,69.0,0.0,60.0,1.0,0.0
13876,78.0,0.0,30.0,4.0,0.0
13877,61.0,0.0,60.0,8.0,0.0
13878,54.0,0.0,60.0,10.0,0.0
13879,54.0,30.0,60.0,3.0,0.0
13880,78.0,0.0,30.0,0.0,0.0
13881,69.0,0.0,60.0,6.0,0.0
13882,57.0,30.0,30.0,5.0,0.0
13883,81.0,0.0,30.0,4.0,0.0
13884,81.0,0.0,30.0,0.0,0.0
13885,66.0,0.0,30.0,5.0,0.0
13886,80.0,0.0,30.0,0.0,0.0
13887,65.0,0.0,30.0,5.0,0.0
13888,80.0,30.0,30.0,4.0,0.0
13889,66.0,0.0,120.0,8.0,0.0
13890,66.0,30.0,120.0,2.0,0.0
13891,81.0,0.0,30.0,0.0,0.0
13892,66.0,30.0,30.0,5.0,0.0
13893,81.0,0.0,30.0,4.0,0.0
13894,59.0,0.0,60.0,7.0,0.0
13895,56.0,0.0,60.0,3.0,0.0
13896,68.0,0.0,60.0,1.0,0.0
13897,62.0,30.0,30.0,5.0,0.0
13898,68.0,0.0,60.0,6.0,0.0
13899,56.0,0.0,60.0,7.0,0.0
13900,83.0,0.0,30.0,4.0,0.0
13901,56.0,0.0,60.0,10.0,0.0
13902,83.0,0.0,30.0,0.0,0.0
13903,61.0,0.0,30.0,5.0,0.0
13904,85.0,0.0,30.0,4.0,0.0
13905,85.0,0.0,30.0,0.0,0.0
13906,62.0,30.0,30.0,5.0,0.0
13907,81.0,0.0,30.0,0.0,0.0
13908,65.0,0.0,60.0,2.0,0.0
13909,81.0,0.0,30.0,4.0,0.0
13910,65.0,30.0,60.0,8.0,0.0
13911,83.0,0.0,30.0,0.0,0.0
13912,59.0,0.0,30.0,5.0,0.0
13913,83.0,0.0,30.0,4.0,0.0
13914,57.0,30.0,60.0,10.0,0.0
13915,85.0,30.0,30.0,0.0,0.0
13916,57.0,0.0,60.0,7.0,0.0
13917,66.0,0.0,60.0,2.0,0.0
13918,66.0,0.0,60.0,1.0,0.0
13919,66.0,0.0,30.0,5.0,0.0
13920,66.0,0.0,60.0,6.0,0.0
13921,57.0,0.0,60.0,3.0,0.0
13922,85.0,0.0,30.0,4.0,0.0
13923,66.0,0.0,60.0,8.0,0.0
13924,81.0,0.0,30.0,0.0,0.0
13925,61.0,0.0,30.0,5.0,0.0
13926,81.0,0.0,30.0,4.0,0.0
13927,68.0,0.0,120.0,2.0,0.0
13928,59.0,0.0,30.0,7.0,0.0
13929,62.0,29.0,60.0,7.0,0.0
13930,80.0,30.0,30.0,0.0,0.0
13931,68.0,30.0,120.0,8.0,0.0
13932,80.0,0.0,30.0,4.0,0.0
13933,59.0,0.0,30.0,5.0,0.0
13934,57.0,0.0,30.0,5.0,0.0
13935,78.0,0.0,30.0,4.0,0.0
13936,78.0,0.0,30.0,0.0,0.0
13937,61.0,1.0,30.0,7.0,0.0
13938,59.0,0.0,60.0,7.0,0.0
13939,71.0,0.0,60.0,1.0,0.0
13940,59.0,0.0,60.0,10.0,0.0
13941,86.0,0.0,30.0,4.0,0.0
13942,59.0,0.0,60.0,3.0,0.0
13943,56.0,30.0,30.0,5.0,0.0
13944,86.0,0.0,30.0,0.0,0.0
13945,71.0,0.0,60.0,6.0,0.0
13946,62.0,0.0,30.0,5.0,0.0
13947,83.0,0.0,30.0,4.0,0.0
13948,83.0,0.0,30.0,0.0,0.0
13949,69.0,0.0,120.0,2.0,0.0
13950,69.0,0.0,120.0,8.0,0.0
13951,61.0,0.0,30.0,7.0,0.0
13952,81.0,30.0,30.0,0.0,0.0
13953,81.0,0.0,30.0,4.0,0.0
13954,61.0,0.0,30.0,5.0,0.0
13955,80.0,30.0,30.0,0.0,0.0
13956,62.0,0.0,30.0,7.0,0.0
13957,80.0,0.0,30.0,4.0,0.0
13958,59.0,0.0,30.0,5.0,0.0
13959,61.0,0.0,60.0,7.0,0.0
13960,69.0,0.0,60.0,6.0,0.0
13961,57.0,30.0,30.0,5.0,0.0
13962,69.0,0.0,60.0,1.0,0.0
13963,89.0,0.0,30.0,0.0,0.0
13964,61.0,0.0,60.0,10.0,0.0
13965,61.0,0.0,60.0,3.0,0.0
13966,89.0,0.0,30.0,4.0,0.0
13967,85.0,0.0,30.0,0.0,0.0
13968,61.0,0.0,30.0,5.0,0.0
13969,85.0,30.0,30.0,4.0,0.0
13970,68.0,0.0,30.0,8.0,0.0
13971,62.0,0.0,60.0,10.0,0.0
13972,62.0,30.0,30.0,7.0,0.0
13973,62.0,0.0,60.0,3.0,0.0
13974,68.0,0.0,30.0,2.0,0.0
13975,66.0,30.0,90.0,5.0,0.0
13976,74.0,30.0,120.0,6.0,0.0
13977,83.0,0.0,30.0,4.0,0.0
13978,83.0,0.0,30.0,0.0,0.0
13979,74.0,0.0,120.0,1.0,0.0
13980,61.0,0.0,30.0,7.0,0.0
13981,81.0,0.0,30.0,0.0,0.0
13982,81.0,0.0,30.0,4.0,0.0
13983,66.0,0.0,30.0,2.0,0.0
13984,66.0,30.0,30.0,8.0,0.0
13985,69.0,0.0,30.0,2.0,0.0
13986,59.0,0.0,60.0,10.0,0.0
13987,69.0,0.0,30.0,8.0,0.0
13988,86.0,0.0,30.0,4.0,0.0
13989,59.0,0.0,60.0,7.0,0.0
13990,59.0,0.0,60.0,3.0,0.0
13991,86.0,0.0,30.0,0.0,0.0
13992,83.0,0.0,30.0,0.0,0.0
13993,68.0,0.0,30.0,2.0,0.0
13994,83.0,0.0,30.0,4.0,0.0
13995,62.0,0.0,30.0,5.0,0.0
13996,68.0,0.0,30.0,8.0,0.0
13997,61.0,0.0,60.0,10.0,0.0
13998,61.0,0.0,60.0,3.0,0.0
13999,73.0,0.0,120.0,6.0,0.0
14000,73.0,0.0,120.0,1.0,0.0
14001,81.0,30.0,30.0,0.0,0.0
14002,66.0,0.0,30.0,2.0,0.0
14003,61.0,0.0,60.0,7.0,0.0
14004,81.0,0.0,30.0,4.0,0.0
14005,66.0,0.0,30.0,8.0,0.0
14006,61.0,0.0,30.0,5.0,0.0
14007,80.0,0.0,30.0,4.0,0.0
14008,65.0,0.0,30.0,8.0,0.0
14009,80.0,0.0,30.0,0.0,0.0
14010,59.0,0.0,30.0,5.0,0.0
14011,65.0,30.0,30.0,2.0,0.0
14012,54.0,0.0,60.0,10.0,0.0
14013,66.0,0.0,60.0,8.0,0.0
14014,66.0,0.0,60.0,2.0,0.0
14015,61.0,0.0,30.0,5.0,0.0
14016,81.0,30.0,30.0,0.0,0.0
14017,54.0,0.0,60.0,3.0,0.0
14018,54.0,30.0,60.0,7.0,0.0
14019,81.0,0.0,30.0,4.0,0.0
14020,57.0,0.0,30.0,5.0,0.0
14021,87.0,0.0,30.0,4.0,0.0
14022,87.0,0.0,30.0,0.0,0.0
14023,68.0,0.0,30.0,2.0,0.0
14024,72.0,0.0,30.0,6.0,0.0
14025,63.0,0.0,60.0,3.0,0.0
14026,88.0,0.0,30.0,4.0,0.0
14027,68.0,0.0,30.0,8.0,0.0
14028,56.0,0.0,30.0,5.0,0.0
14029,88.0,0.0,30.0,0.0,0.0
14030,63.0,30.0,60.0,10.0,0.0
14031,72.0,30.0,30.0,1.0,0.0
14032,90.0,0.0,30.0,4.0,0.0
14033,69.0,0.0,30.0,2.0,0.0
14034,73.0,0.0,30.0,1.0,0.0
14035,90.0,0.0,30.0,0.0,0.0
14036,54.0,0.0,30.0,5.0,0.0
14037,73.0,0.0,30.0,6.0,0.0
14038,69.0,0.0,30.0,8.0,0.0
14039,68.0,0.0,30.0,8.0,0.0
14040,48.0,0.0,60.0,7.0,0.0
14041,75.0,0.0,60.0,6.0,0.0
14042,60.0,30.0,60.0,10.0,0.0
14043,68.0,30.0,30.0,2.0,0.0
14044,75.0,0.0,60.0,1.0,0.0
14045,78.0,0.0,30.0,0.0,0.0
14046,78.0,0.0,30.0,4.0,0.0
14047,60.0,0.0,60.0,3.0,0.0
14048,63.0,0.0,30.0,5.0,0.0
14049,84.0,0.0,30.0,4.0,0.0
14050,66.0,0.0,30.0,8.0,0.0
14051,66.0,0.0,30.0,2.0,0.0
14052,84.0,0.0,30.0,0.0,0.0
14053,56.0,0.0,30.0,5.0,0.0
14054,73.0,30.0,30.0,1.0,0.0
14055,56.0,0.0,60.0,3.0,0.0
14056,85.0,0.0,30.0,0.0,0.0
14057,64.0,0.0,30.0,8.0,0.0
14058,58.0,0.0,30.0,5.0,0.0
14059,85.0,0.0,30.0,4.0,0.0
14060,64.0,0.0,30.0,2.0,0.0
14061,73.0,0.0,30.0,6.0,0.0
14062,56.0,0.0,60.0,10.0,0.0
14063,56.0,0.0,60.0,7.0,0.0
14064,87.0,0.0,30.0,4.0,0.0
14065,72.0,0.0,30.0,6.0,0.0
14066,87.0,0.0,30.0,0.0,0.0
14067,72.0,0.0,30.0,1.0,0.0
14068,63.0,0.0,30.0,2.0,0.0
14069,63.0,30.0,30.0,8.0,0.0
14070,60.0,0.0,30.0,5.0,0.0
14071,49.0,0.0,60.0,5.0,0.0
14072,56.0,0.0,60.0,5.0,0.0
14073,56.0,0.0,60.0,2.0,0.0
14074,64.0,0.0,60.0,2.0,0.0
14075,49.0,0.0,60.0,3.0,0.0
14076,56.0,0.0,60.0,7.0,0.0
14077,73.0,0.0,30.0,6.0,0.0
14078,76.0,0.0,60.0,4.0,0.0
14079,64.0,0.0,30.0,8.0,0.0
14080,76.0,0.0,60.0,0.0,0.0
14081,49.0,0.0,60.0,10.0,0.0
14082,56.0,30.0,60.0,10.0,0.0
14083,49.0,0.0,60.0,7.0,0.0
14084,73.0,30.0,30.0,1.0,0.0
14085,80.0,0.0,30.0,1.0,0.0
14086,76.0,0.0,30.0,8.0,0.0
14087,80.0,0.0,30.0,6.0,0.0
14088,81.0,0.0,30.0,6.0,0.0
14089,61.0,0.0,120.0,7.0,0.0
14090,61.0,29.0,120.0,10.0,0.0
14091,81.0,0.0,30.0,1.0,0.0
14092,61.0,0.0,120.0,5.0,0.0
14093,61.0,1.0,120.0,2.0,0.0
14094,75.0,30.0,30.0,8.0,0.0
14095,80.0,0.0,30.0,6.0,0.0
14096,80.0,0.0,30.0,1.0,0.0
14097,76.0,30.0,30.0,8.0,0.0
14098,78.0,0.0,30.0,8.0,0.0
14099,78.0,30.0,30.0,6.0,0.0
14100,51.0,0.0,60.0,7.0,0.0
14101,51.0,0.0,60.0,3.0,0.0
14102,51.0,0.0,60.0,5.0,0.0
14103,75.0,0.0,60.0,0.0,0.0
14104,51.0,0.0,60.0,10.0,0.0
14105,78.0,0.0,30.0,1.0,0.0
14106,75.0,0.0,60.0,4.0,0.0
14107,80.0,0.0,30.0,8.0,0.0
14108,76.0,0.0,30.0,6.0,0.0
14109,76.0,0.0,30.0,1.0,0.0
14110,60.0,0.0,60.0,7.0,0.0
14111,60.0,30.0,60.0,2.0,0.0
14112,60.0,0.0,60.0,5.0,0.0
14113,76.0,0.0,30.0,8.0,0.0
14114,80.0,30.0,30.0,6.0,0.0
14115,80.0,0.0,30.0,1.0,0.0
14116,60.0,0.0,60.0,10.0,0.0
14117,78.0,0.0,30.0,8.0,0.0
14118,78.0,0.0,30.0,6.0,0.0
14119,78.0,0.0,30.0,1.0,0.0
14120,61.0,0.0,60.0,10.0,0.0
14121,61.0,0.0,60.0,5.0,0.0
14122,52.0,0.0,60.0,3.0,0.0
14123,76.0,0.0,30.0,6.0,0.0
14124,52.0,0.0,60.0,10.0,0.0
14125,52.0,0.0,60.0,5.0,0.0
14126,52.0,0.0,60.0,7.0,0.0
14127,76.0,0.0,30.0,1.0,0.0
14128,61.0,0.0,60.0,2.0,0.0
14129,61.0,0.0,60.0,7.0,0.0
14130,80.0,30.0,30.0,8.0,0.0
14131,73.0,0.0,30.0,1.0,0.0
14132,73.0,0.0,30.0,6.0,0.0
14133,73.0,0.0,30.0,0.0,0.0
14134,73.0,30.0,30.0,4.0,0.0
14135,76.0,0.0,30.0,8.0,0.0
14136,63.0,1.0,120.0,2.0,0.0
14137,78.0,0.0,30.0,6.0,0.0
14138,63.0,0.0,120.0,7.0,0.0
14139,72.0,0.0,30.0,4.0,0.0
14140,72.0,0.0,30.0,0.0,0.0
14141,63.0,0.0,120.0,5.0,0.0
14142,78.0,30.0,30.0,1.0,0.0
14143,75.0,0.0,30.0,8.0,0.0
14144,63.0,29.0,120.0,10.0,0.0
14145,73.0,0.0,30.0,4.0,0.0
14146,76.0,0.0,30.0,6.0,0.0
14147,76.0,30.0,30.0,1.0,0.0
14148,73.0,0.0,30.0,8.0,0.0
14149,73.0,0.0,30.0,0.0,0.0
14150,75.0,0.0,30.0,4.0,0.0
14151,54.0,0.0,60.0,7.0,0.0
14152,81.0,0.0,30.0,8.0,0.0
14153,54.0,0.0,60.0,5.0,0.0
14154,54.0,0.0,60.0,10.0,0.0
14155,54.0,0.0,60.0,3.0,0.0
14156,75.0,0.0,30.0,6.0,0.0
14157,75.0,30.0,30.0,1.0,0.0
14158,75.0,0.0,30.0,0.0,0.0
14159,73.0,0.0,30.0,4.0,0.0
14160,78.0,0.0,30.0,6.0,0.0
14161,73.0,0.0,30.0,0.0,0.0
14162,78.0,0.0,30.0,8.0,0.0
14163,78.0,0.0,30.0,1.0,0.0
14164,64.0,0.0,120.0,5.0,0.0
14165,76.0,0.0,30.0,8.0,0.0
14166,64.0,0.0,120.0,10.0,0.0
14167,80.0,30.0,30.0,6.0,0.0
14168,80.0,0.0,30.0,1.0,0.0
14169,64.0,0.0,120.0,2.0,0.0
14170,72.0,0.0,30.0,0.0,0.0
14171,64.0,0.0,120.0,7.0,0.0
14172,72.0,0.0,30.0,4.0,0.0
14173,73.0,0.0,30.0,4.0,0.0
14174,78.0,30.0,30.0,1.0,0.0
14175,75.0,0.0,30.0,8.0,0.0
14176,73.0,0.0,30.0,0.0,0.0
14177,78.0,0.0,30.0,6.0,0.0
14178,76.0,30.0,30.0,4.0,0.0
14179,76.0,0.0,60.0,6.0,0.0
14180,56.0,0.0,60.0,3.0,0.0
14181,76.0,0.0,30.0,0.0,0.0
14182,76.0,0.0,60.0,1.0,0.0
14183,84.0,0.0,30.0,8.0,0.0
14184,56.0,0.0,60.0,10.0,0.0
14185,56.0,29.0,60.0,7.0,0.0
14186,56.0,0.0,60.0,5.0,0.0
14187,73.0,0.0,30.0,4.0,0.0
14188,80.0,1.0,30.0,8.0,0.0
14189,73.0,0.0,30.0,0.0,0.0
14190,57.0,0.0,60.0,3.0,0.0
14191,78.0,0.0,30.0,8.0,0.0
14192,72.0,0.0,30.0,4.0,0.0
14193,57.0,0.0,60.0,10.0,0.0
14194,63.0,0.0,30.0,10.0,0.0
14195,63.0,29.0,30.0,7.0,0.0
14196,63.0,0.0,30.0,2.0,0.0
14197,57.0,0.0,60.0,7.0,0.0
14198,57.0,0.0,60.0,5.0,0.0
14199,63.0,0.0,30.0,5.0,0.0
14200,85.0,0.0,60.0,1.0,0.0
14201,85.0,0.0,60.0,6.0,0.0
14202,72.0,1.0,30.0,0.0,0.0
14203,61.0,0.0,30.0,10.0,0.0
14204,61.0,0.0,30.0,2.0,0.0
14205,61.0,0.0,30.0,5.0,0.0
14206,73.0,1.0,30.0,4.0,0.0
14207,61.0,29.0,30.0,7.0,0.0
14208,76.0,0.0,30.0,8.0,0.0
14209,73.0,0.0,30.0,0.0,0.0
14210,81.0,0.0,30.0,4.0,0.0
14211,64.0,0.0,30.0,2.0,0.0
14212,54.0,0.0,60.0,3.0,0.0
14213,54.0,0.0,60.0,10.0,0.0
14214,64.0,0.0,30.0,10.0,0.0
14215,81.0,1.0,30.0,0.0,0.0
14216,81.0,0.0,30.0,8.0,0.0
14217,54.0,0.0,60.0,5.0,0.0
14218,64.0,29.0,30.0,5.0,0.0
14219,64.0,0.0,30.0,7.0,0.0
14220,54.0,0.0,60.0,7.0,0.0
14221,75.0,0.0,30.0,0.0,0.0
14222,63.0,0.0,30.0,5.0,0.0
14223,63.0,29.0,30.0,7.0,0.0
14224,75.0,0.0,30.0,4.0,0.0
14225,63.0,0.0,30.0,2.0,0.0
14226,63.0,0.0,30.0,10.0,0.0
14227,78.0,1.0,30.0,8.0,0.0
14228,80.0,30.0,90.0,6.0,0.0
14229,76.0,0.0,30.0,0.0,0.0
14230,61.0,0.0,30.0,2.0,0.0
14231,80.0,0.0,90.0,1.0,0.0
14232,61.0,29.0,30.0,5.0,0.0
14233,56.0,1.0,60.0,10.0,0.0
14234,76.0,0.0,30.0,8.0,0.0
14235,61.0,0.0,30.0,7.0,0.0
14236,56.0,0.0,60.0,7.0,0.0
14237,76.0,1.0,30.0,4.0,0.0
14238,56.0,0.0,60.0,3.0,0.0
14239,61.0,0.0,30.0,10.0,0.0
14240,56.0,0.0,60.0,5.0,0.0
14241,75.0,0.0,30.0,8.0,0.0
14242,78.0,0.0,30.0,0.0,0.0
14243,78.0,0.0,30.0,4.0,0.0
14244,60.0,0.0,30.0,5.0,0.0
14245,60.0,29.0,30.0,7.0,0.0
14246,60.0,0.0,30.0,2.0,0.0
14247,60.0,0.0,30.0,10.0,0.0
14248,76.0,0.0,60.0,8.0,0.0
14249,49.0,29.0,60.0,5.0,0.0
14250,61.0,0.0,60.0,5.0,0.0
14251,61.0,0.0,60.0,2.0,0.0
14252,76.0,1.0,60.0,4.0,0.0
14253,61.0,0.0,60.0,10.0,0.0
14254,61.0,0.0,60.0,7.0,0.0
14255,49.0,0.0,60.0,3.0,0.0
14256,49.0,0.0,60.0,7.0,0.0
14257,49.0,0.0,60.0,10.0,0.0
14258,76.0,0.0,60.0,0.0,0.0
14259,78.0,0.0,30.0,1.0,0.0
14260,78.0,0.0,30.0,6.0,0.0
14261,64.0,30.0,30.0,10.0,0.0
14262,76.0,0.0,30.0,6.0,0.0
14263,73.0,0.0,60.0,8.0,0.0
14264,64.0,0.0,30.0,5.0,0.0
14265,64.0,0.0,30.0,2.0,0.0
14266,76.0,0.0,30.0,1.0,0.0
14267,80.0,0.0,60.0,0.0,0.0
14268,80.0,30.0,60.0,4.0,0.0
14269,64.0,0.0,30.0,7.0,0.0
14270,63.0,0.0,30.0,2.0,0.0
14271,78.0,0.0,30.0,6.0,0.0
14272,63.0,0.0,30.0,7.0,0.0
14273,78.0,0.0,30.0,1.0,0.0
14274,63.0,0.0,30.0,10.0,0.0
14275,63.0,0.0,30.0,5.0,0.0
14276,61.0,0.0,30.0,2.0,0.0
14277,61.0,30.0,30.0,10.0,0.0
14278,61.0,0.0,30.0,7.0,0.0
14279,80.0,0.0,30.0,1.0,0.0
14280,80.0,0.0,30.0,6.0,0.0
14281,85.0,0.0,60.0,4.0,0.0
14282,76.0,0.0,60.0,8.0,0.0
14283,85.0,0.0,60.0,0.0,0.0
14284,61.0,0.0,30.0,5.0,0.0
14285,63.0,0.0,30.0,2.0,0.0
14286,78.0,30.0,30.0,1.0,0.0
14287,78.0,0.0,30.0,6.0,0.0
14288,63.0,0.0,30.0,7.0,0.0
14289,63.0,0.0,30.0,10.0,0.0
14290,63.0,0.0,30.0,5.0,0.0
14291,64.0,0.0,30.0,7.0,0.0
14292,80.0,30.0,30.0,6.0,0.0
14293,85.0,0.0,60.0,4.0,0.0
14294,80.0,0.0,30.0,1.0,0.0
14295,80.0,0.0,60.0,8.0,0.0
14296,64.0,0.0,30.0,2.0,0.0
14297,85.0,0.0,60.0,0.0,0.0
14298,64.0,0.0,30.0,5.0,0.0
14299,64.0,0.0,30.0,10.0,0.0
14300,66.0,0.0,30.0,2.0,0.0
14301,81.0,0.0,30.0,1.0,0.0
14302,66.0,0.0,30.0,7.0,0.0
14303,66.0,0.0,30.0,10.0,0.0
14304,66.0,30.0,30.0,5.0,0.0
14305,81.0,0.0,30.0,6.0,0.0
14306,68.0,30.0,30.0,10.0,0.0
14307,80.0,0.0,60.0,8.0,0.0
14308,85.0,0.0,60.0,0.0,0.0
14309,75.0,0.0,60.0,6.0,0.0
14310,68.0,0.0,30.0,2.0,0.0
14311,85.0,0.0,60.0,4.0,0.0
14312,68.0,0.0,30.0,7.0,0.0
14313,68.0,0.0,30.0,5.0,0.0
14314,75.0,0.0,60.0,1.0,0.0
14315,66.0,30.0,30.0,5.0,0.0
14316,66.0,0.0,30.0,2.0,0.0
14317,66.0,0.0,30.0,7.0,0.0
14318,66.0,0.0,30.0,10.0,0.0
14319,68.0,0.0,30.0,2.0,0.0
14320,83.0,0.0,30.0,4.0,0.0
14321,68.0,0.0,30.0,5.0,0.0
14322,75.0,0.0,60.0,1.0,0.0
14323,83.0,30.0,30.0,0.0,0.0
14324,68.0,0.0,30.0,7.0,0.0
14325,68.0,0.0,30.0,10.0,0.0
14326,75.0,0.0,60.0,6.0,0.0
14327,75.0,0.0,60.0,8.0,0.0
14328,81.0,30.0,30.0,4.0,0.0
14329,69.0,0.0,30.0,2.0,0.0
14330,69.0,0.0,30.0,7.0,0.0
14331,81.0,0.0,30.0,0.0,0.0
14332,69.0,0.0,30.0,10.0,0.0
14333,69.0,0.0,30.0,5.0,0.0
14334,80.0,0.0,30.0,4.0,0.0
14335,71.0,0.0,30.0,10.0,0.0
14336,83.0,0.0,60.0,1.0,0.0
14337,83.0,0.0,60.0,6.0,0.0
14338,71.0,0.0,30.0,7.0,0.0
14339,75.0,0.0,60.0,8.0,0.0
14340,80.0,30.0,30.0,0.0,0.0
14341,71.0,0.0,30.0,2.0,0.0
14342,71.0,0.0,30.0,5.0,0.0
14343,69.0,0.0,30.0,2.0,0.0
14344,78.0,0.0,30.0,4.0,0.0
14345,78.0,0.0,30.0,0.0,0.0
14346,69.0,0.0,30.0,7.0,0.0
14347,69.0,0.0,30.0,5.0,0.0
14348,69.0,30.0,30.0,10.0,0.0
14349,71.0,0.0,30.0,10.0,0.0
14350,71.0,0.0,30.0,5.0,0.0
14351,83.0,0.0,60.0,1.0,0.0
14352,71.0,0.0,30.0,2.0,0.0
14353,76.0,30.0,30.0,0.0,0.0
14354,83.0,0.0,60.0,6.0,0.0
14355,71.0,0.0,30.0,7.0,0.0
14356,80.0,0.0,60.0,8.0,0.0
14357,76.0,0.0,30.0,4.0,0.0
14358,68.0,0.0,30.0,5.0,0.0
14359,68.0,30.0,30.0,2.0,0.0
14360,74.0,0.0,30.0,4.0,0.0
14361,74.0,0.0,30.0,0.0,0.0
14362,68.0,0.0,30.0,7.0,0.0
14363,68.0,0.0,30.0,10.0,0.0
14364,69.0,0.0,30.0,10.0,0.0
14365,73.0,0.0,60.0,4.0,0.0
14366,69.0,0.0,30.0,7.0,0.0
14367,76.0,0.0,60.0,8.0,0.0
14368,69.0,0.0,30.0,5.0,0.0
14369,83.0,0.0,60.0,6.0,0.0
14370,73.0,0.0,60.0,0.0,0.0
14371,83.0,0.0,60.0,1.0,0.0
14372,69.0,30.0,30.0,2.0,0.0
14373,62.0,0.0,30.0,5.0,0.0
14374,62.0,0.0,30.0,2.0,0.0
14375,62.0,0.0,30.0,7.0,0.0
14376,62.0,30.0,30.0,10.0,0.0
14377,61.0,0.0,30.0,10.0,0.0
14378,61.0,0.0,30.0,5.0,0.0
14379,76.0,30.0,60.0,4.0,0.0
14380,61.0,0.0,30.0,7.0,0.0
14381,81.0,0.0,30.0,6.0,0.0
14382,81.0,0.0,30.0,1.0,0.0
14383,76.0,0.0,60.0,0.0,0.0
14384,61.0,30.0,30.0,2.0,0.0
14385,69.0,0.0,60.0,8.0,0.0
14386,59.0,0.0,30.0,7.0,0.0
14387,59.0,0.0,30.0,5.0,0.0
14388,80.0,0.0,30.0,6.0,0.0
14389,59.0,0.0,30.0,10.0,0.0
14390,80.0,0.0,30.0,1.0,0.0
14391,59.0,0.0,30.0,2.0,0.0
14392,81.0,30.0,60.0,0.0,0.0
14393,78.0,0.0,30.0,1.0,0.0
14394,57.0,0.0,30.0,5.0,0.0
14395,57.0,0.0,30.0,10.0,0.0
14396,73.0,0.0,60.0,8.0,0.0
14397,57.0,0.0,30.0,2.0,0.0
14398,57.0,30.0,30.0,7.0,0.0
14399,81.0,0.0,60.0,4.0,0.0
14400,78.0,0.0,30.0,6.0,0.0
14401,59.0,0.0,30.0,5.0,0.0
14402,59.0,0.0,30.0,2.0,0.0
14403,59.0,0.0,30.0,7.0,0.0
14404,59.0,0.0,30.0,10.0,0.0
14405,76.0,0.0,30.0,6.0,0.0
14406,76.0,0.0,30.0,1.0,0.0
14407,74.0,0.0,30.0,6.0,0.0
14408,81.0,0.0,60.0,0.0,0.0
14409,74.0,0.0,30.0,1.0,0.0
14410,61.0,0.0,30.0,5.0,0.0
14411,76.0,0.0,60.0,8.0,0.0
14412,61.0,0.0,30.0,2.0,0.0
14413,61.0,0.0,30.0,7.0,0.0
14414,61.0,30.0,30.0,10.0,0.0
14415,81.0,0.0,60.0,4.0,0.0
14416,73.0,30.0,30.0,1.0,0.0
14417,62.0,0.0,30.0,5.0,0.0
14418,62.0,0.0,30.0,7.0,0.0
14419,62.0,0.0,30.0,2.0,0.0
14420,62.0,0.0,30.0,10.0,0.0
14421,73.0,0.0,30.0,6.0,0.0
14422,81.0,0.0,60.0,0.0,0.0
14423,64.0,0.0,30.0,2.0,0.0
14424,64.0,30.0,30.0,7.0,0.0
14425,64.0,0.0,30.0,5.0,0.0
14426,71.0,0.0,60.0,1.0,0.0
14427,71.0,0.0,60.0,6.0,0.0
14428,76.0,0.0,60.0,8.0,0.0
14429,81.0,0.0,60.0,4.0,0.0
14430,64.0,0.0,30.0,10.0,0.0
14431,62.0,0.0,30.0,2.0,0.0
14432,62.0,0.0,30.0,5.0,0.0
14433,62.0,30.0,30.0,7.0,0.0
14434,62.0,0.0,30.0,10.0,0.0
14435,80.0,0.0,30.0,0.0,0.0
14436,71.0,0.0,60.0,6.0,0.0
14437,71.0,0.0,60.0,8.0,0.0
14438,64.0,0.0,30.0,5.0,0.0
14439,64.0,0.0,30.0,10.0,0.0
14440,71.0,0.0,60.0,1.0,0.0
14441,64.0,0.0,30.0,2.0,0.0
14442,80.0,0.0,30.0,4.0,0.0
14443,64.0,30.0,30.0,7.0,0.0
14444,78.0,0.0,30.0,4.0,0.0
14445,66.0,0.0,30.0,5.0,0.0
14446,66.0,0.0,30.0,10.0,0.0
14447,66.0,30.0,30.0,2.0,0.0
14448,66.0,0.0,30.0,7.0,0.0
14449,78.0,0.0,30.0,0.0,0.0
14450,68.0,0.0,30.0,5.0,0.0
14451,68.0,0.0,30.0,7.0,0.0
14452,76.0,30.0,30.0,4.0,0.0
14453,71.0,0.0,60.0,8.0,0.0
14454,76.0,0.0,30.0,0.0,0.0
14455,68.0,0.0,30.0,10.0,0.0
14456,80.0,0.0,60.0,1.0,0.0
14457,68.0,0.0,30.0,2.0,0.0
14458,80.0,0.0,60.0,6.0,0.0
14459,66.0,30.0,30.0,2.0,0.0
14460,74.0,0.0,30.0,0.0,0.0
14461,66.0,0.0,30.0,10.0,0.0
14462,66.0,0.0,30.0,7.0,0.0
14463,66.0,0.0,30.0,5.0,0.0
14464,74.0,0.0,30.0,4.0,0.0
14465,68.0,0.0,30.0,2.0,0.0
14466,80.0,0.0,60.0,8.0,0.0
14467,68.0,0.0,30.0,5.0,0.0
14468,68.0,30.0,30.0,7.0,0.0
14469,73.0,0.0,30.0,4.0,0.0
14470,80.0,0.0,60.0,1.0,0.0
14471,80.0,0.0,60.0,6.0,0.0
14472,73.0,0.0,30.0,0.0,0.0
14473,68.0,0.0,30.0,10.0,0.0
14474,65.0,0.0,30.0,2.0,0.0
14475,65.0,30.0,30.0,10.0,0.0
14476,77.0,0.0,30.0,0.0,0.0
14477,65.0,0.0,30.0,7.0,0.0
14478,65.0,0.0,30.0,5.0,0.0
14479,77.0,0.0,30.0,4.0,0.0
14480,80.0,0.0,60.0,1.0,0.0
14481,66.0,30.0,30.0,7.0,0.0
14482,66.0,0.0,30.0,2.0,0.0
14483,73.0,0.0,60.0,8.0,0.0
14484,69.0,0.0,60.0,0.0,0.0
14485,69.0,0.0,60.0,4.0,0.0
14486,66.0,0.0,30.0,5.0,0.0
14487,80.0,0.0,60.0,6.0,0.0
14488,66.0,0.0,30.0,10.0,0.0
14489,59.0,0.0,30.0,2.0,0.0
14490,59.0,0.0,30.0,5.0,0.0
14491,59.0,0.0,30.0,10.0,0.0
14492,59.0,30.0,30.0,7.0,0.0
14493,57.0,0.0,30.0,2.0,0.0
14494,66.0,30.0,60.0,8.0,0.0
14495,57.0,0.0,30.0,7.0,0.0
14496,57.0,0.0,30.0,10.0,0.0
14497,57.0,0.0,30.0,5.0,0.0
14498,73.0,0.0,60.0,4.0,0.0
14499,73.0,0.0,60.0,0.0,0.0
14500,78.0,0.0,30.0,6.0,0.0
14501,78.0,30.0,30.0,1.0,0.0
14502,56.0,0.0,30.0,2.0,0.0
14503,56.0,0.0,30.0,7.0,0.0
14504,56.0,0.0,30.0,5.0,0.0
14505,76.0,0.0,30.0,1.0,0.0
14506,56.0,0.0,30.0,10.0,0.0
14507,76.0,0.0,30.0,6.0,0.0
14508,69.0,30.0,60.0,8.0,0.0
14509,54.0,0.0,30.0,2.0,0.0
14510,54.0,0.0,30.0,7.0,0.0
14511,74.0,0.0,30.0,6.0,0.0
14512,54.0,0.0,30.0,5.0,0.0
14513,54.0,0.0,30.0,10.0,0.0
14514,74.0,30.0,30.0,1.0,0.0
14515,78.0,0.0,60.0,4.0,0.0
14516,78.0,0.0,60.0,0.0,0.0
14517,56.0,0.0,30.0,2.0,0.0
14518,56.0,0.0,30.0,7.0,0.0
14519,73.0,0.0,30.0,6.0,0.0
14520,73.0,0.0,30.0,1.0,0.0
14521,56.0,0.0,30.0,10.0,0.0
14522,56.0,0.0,30.0,5.0,0.0
14523,73.0,0.0,60.0,8.0,0.0
14524,57.0,0.0,30.0,7.0,0.0
14525,57.0,0.0,30.0,5.0,0.0
14526,71.0,0.0,30.0,6.0,0.0
14527,71.0,0.0,30.0,1.0,0.0
14528,78.0,0.0,60.0,0.0,0.0
14529,57.0,0.0,30.0,10.0,0.0
14530,57.0,30.0,30.0,2.0,0.0
14531,78.0,0.0,60.0,4.0,0.0
14532,59.0,21.0,30.0,7.0,0.0
14533,69.0,0.0,30.0,6.0,0.0
14534,69.0,0.0,30.0,1.0,0.0
14535,59.0,0.0,30.0,5.0,0.0
14536,59.0,0.0,30.0,2.0,0.0
14537,59.0,0.0,30.0,10.0,0.0
14538,68.0,0.0,30.0,1.0,0.0
14539,61.0,0.0,60.0,5.0,0.0
14540,49.0,0.0,60.0,5.0,0.0
14541,49.0,0.0,60.0,3.0,0.0
14542,77.0,0.0,30.0,4.0,0.0
14543,77.0,0.0,30.0,0.0,0.0
14544,74.0,9.0,20.0,8.0,0.0
14545,68.0,11.0,30.0,6.0,0.0
14546,49.0,1.0,60.0,10.0,0.0
14547,61.0,0.0,60.0,10.0,0.0
14548,49.0,0.0,60.0,7.0,0.0
14549,61.0,0.0,60.0,7.0,0.0
14550,61.0,0.0,60.0,2.0,0.0
14551,73.0,19.0,20.0,8.0,0.0
14552,80.0,0.0,30.0,4.0,0.0
14553,71.0,0.0,30.0,6.0,0.0
14554,71.0,0.0,30.0,1.0,0.0
14555,80.0,0.0,30.0,0.0,0.0
14556,74.0,7.0,20.0,8.0,0.0
14557,78.0,0.0,30.0,0.0,0.0
14558,54.0,1.0,120.0,10.0,0.0
14559,54.0,0.0,120.0,3.0,0.0
14560,54.0,0.0,120.0,7.0,0.0
14561,78.0,11.0,30.0,4.0,0.0
14562,69.0,0.0,30.0,1.0,0.0
14563,73.0,0.0,60.0,2.0,0.0
14564,54.0,0.0,120.0,5.0,0.0
14565,69.0,0.0,30.0,6.0,0.0
14566,73.0,7.0,15.0,8.0,0.0
14567,74.0,8.0,15.0,8.0,0.0
14568,73.0,7.0,15.0,8.0,0.0
14569,74.0,0.0,15.0,8.0,0.0
14570,73.0,10.0,15.0,8.0,0.0
14571,73.0,1.0,30.0,1.0,0.0
14572,73.0,0.0,30.0,6.0,0.0
14573,81.0,0.0,30.0,0.0,0.0
14574,81.0,0.0,30.0,4.0,0.0
14575,74.0,9.0,15.0,8.0,0.0
14576,73.0,10.0,15.0,8.0,0.0
14577,80.0,0.0,30.0,4.0,0.0
14578,71.0,1.0,30.0,1.0,0.0
14579,71.0,0.0,30.0,6.0,0.0
14580,80.0,0.0,30.0,0.0,0.0
14581,73.0,0.0,180.0,2.0,0.0
14582,74.0,10.0,15.0,8.0,0.0
14583,73.0,9.0,15.0,8.0,0.0
14584,74.0,10.0,15.0,8.0,0.0
14585,68.0,0.0,30.0,1.0,0.0
14586,73.0,10.0,15.0,8.0,0.0
14587,83.0,0.0,30.0,0.0,0.0
14588,83.0,0.0,30.0,4.0,0.0
14589,68.0,0.0,30.0,6.0,0.0
14590,74.0,9.0,15.0,8.0,0.0
14591,73.0,10.0,15.0,8.0,0.0
14592,81.0,1.0,30.0,4.0,0.0
14593,53.0,0.0,60.0,3.0,0.0
14594,73.0,0.0,30.0,6.0,0.0
14595,53.0,0.0,60.0,5.0,0.0
14596,53.0,0.0,60.0,7.0,0.0
14597,81.0,0.0,30.0,0.0,0.0
14598,74.0,10.0,15.0,8.0,0.0
14599,73.0,0.0,30.0,1.0,0.0
14600,53.0,0.0,60.0,10.0,0.0
14601,73.0,9.0,15.0,8.0,0.0
14602,74.0,10.0,15.0,8.0,0.0
14603,71.0,1.0,30.0,1.0,0.0
14604,80.0,0.0,30.0,0.0,0.0
14605,80.0,0.0,30.0,4.0,0.0
14606,71.0,0.0,30.0,6.0,0.0
14607,73.0,10.0,15.0,8.0,0.0
14608,74.0,9.0,15.0,8.0,0.0
14609,73.0,10.0,15.0,8.0,0.0
14610,54.0,0.0,60.0,3.0,0.0
14611,74.0,10.0,15.0,8.0,0.0
14612,69.0,0.0,30.0,6.0,0.0
14613,81.0,1.0,30.0,4.0,0.0
14614,81.0,0.0,30.0,0.0,0.0
14615,54.0,0.0,60.0,7.0,0.0
14616,69.0,0.0,30.0,1.0,0.0
14617,54.0,0.0,60.0,10.0,0.0
14618,54.0,0.0,60.0,5.0,0.0
14619,73.0,9.0,15.0,8.0,0.0
14620,74.0,10.0,15.0,8.0,0.0
14621,73.0,10.0,15.0,8.0,0.0
14622,81.0,1.0,30.0,6.0,0.0
14623,81.0,0.0,30.0,1.0,0.0
14624,78.0,0.0,30.0,0.0,0.0
14625,78.0,0.0,30.0,4.0,0.0
14626,74.0,9.0,15.0,8.0,0.0
14627,73.0,10.0,15.0,8.0,0.0
14628,56.0,0.0,120.0,10.0,0.0
14629,80.0,0.0,30.0,6.0,0.0
14630,77.0,1.0,30.0,4.0,0.0
14631,77.0,0.0,30.0,0.0,0.0
14632,73.0,0.0,60.0,2.0,0.0
14633,80.0,0.0,30.0,1.0,0.0
14634,56.0,0.0,120.0,7.0,0.0
14635,56.0,0.0,120.0,5.0,0.0
14636,74.0,10.0,15.0,8.0,0.0
14637,56.0,0.0,120.0,3.0,0.0
14638,73.0,9.0,15.0,8.0,0.0
14639,74.0,10.0,15.0,8.0,0.0
14640,73.0,10.0,15.0,8.0,0.0
14641,75.0,0.0,30.0,0.0,0.0
14642,75.0,1.0,30.0,4.0,0.0
14643,78.0,0.0,30.0,1.0,0.0
14644,78.0,0.0,30.0,6.0,0.0
14645,74.0,9.0,15.0,8.0,0.0
14646,73.0,10.0,15.0,8.0,0.0
14647,73.0,0.0,180.0,2.0,0.0
14648,77.0,0.0,30.0,6.0,0.0
14649,74.0,10.0,15.0,8.0,0.0
14650,83.0,1.0,30.0,0.0,0.0
14651,77.0,0.0,30.0,1.0,0.0
14652,83.0,0.0,30.0,4.0,0.0
14653,73.0,9.0,15.0,8.0,0.0
14654,74.0,10.0,15.0,8.0,0.0
14655,80.0,0.0,30.0,4.0,0.0
14656,73.0,10.0,15.0,8.0,0.0
14657,83.0,1.0,30.0,6.0,0.0
14658,83.0,0.0,30.0,1.0,0.0
14659,80.0,0.0,30.0,0.0,0.0
14660,74.0,9.0,15.0,8.0,0.0
14661,73.0,10.0,15.0,8.0,0.0
14662,78.0,1.0,30.0,4.0,0.0
14663,81.0,0.0,30.0,1.0,0.0
14664,78.0,0.0,30.0,0.0,0.0
14665,57.0,1.0,120.0,5.0,0.0
14666,57.0,0.0,120.0,7.0,0.0
14667,57.0,0.0,120.0,3.0,0.0
14668,81.0,0.0,30.0,6.0,0.0
14669,57.0,0.0,120.0,10.0,0.0
14670,74.0,10.0,15.0,8.0,0.0
14671,73.0,9.0,15.0,8.0,0.0
14672,74.0,10.0,15.0,8.0,0.0
14673,73.0,10.0,15.0,8.0,0.0
14674,80.0,0.0,30.0,1.0,0.0
14675,77.0,0.0,30.0,0.0,0.0
14676,80.0,1.0,30.0,6.0,0.0
14677,77.0,0.0,30.0,4.0,0.0
14678,74.0,9.0,15.0,8.0,0.0
14679,73.0,10.0,15.0,8.0,0.0
14680,85.0,1.0,30.0,4.0,0.0
14681,74.0,10.0,15.0,8.0,0.0
14682,85.0,0.0,30.0,0.0,0.0
14683,78.0,0.0,30.0,1.0,0.0
14684,78.0,0.0,30.0,6.0,0.0
14685,73.0,9.0,15.0,8.0,0.0
14686,74.0,10.0,15.0,8.0,0.0
14687,78.0,0.0,30.0,4.0,0.0
14688,81.0,0.0,30.0,6.0,0.0
14689,73.0,10.0,15.0,8.0,0.0
14690,78.0,0.0,30.0,0.0,0.0
14691,81.0,0.0,30.0,1.0,0.0
14692,74.0,9.0,15.0,8.0,0.0
14693,73.0,10.0,15.0,8.0,0.0
14694,56.0,0.0,30.0,5.0,0.0
14695,74.0,10.0,15.0,8.0,0.0
14696,83.0,1.0,30.0,6.0,0.0
14697,80.0,0.0,30.0,4.0,0.0
14698,73.0,0.0,60.0,2.0,0.0
14699,56.0,0.0,30.0,3.0,0.0
14700,56.0,0.0,30.0,10.0,0.0
14701,80.0,0.0,30.0,0.0,0.0
14702,83.0,0.0,30.0,1.0,0.0
14703,56.0,0.0,30.0,7.0,0.0
14704,73.0,9.0,15.0,8.0,0.0
14705,74.0,10.0,15.0,8.0,0.0
14706,54.0,0.0,30.0,7.0,0.0
14707,54.0,0.0,30.0,3.0,0.0
14708,85.0,0.0,30.0,1.0,0.0
14709,85.0,0.0,30.0,6.0,0.0
14710,54.0,0.0,30.0,10.0,0.0
14711,73.0,10.0,15.0,8.0,0.0
14712,81.0,0.0,30.0,4.0,0.0
14713,54.0,1.0,30.0,5.0,0.0
14714,81.0,0.0,30.0,0.0,0.0
14715,74.0,9.0,15.0,8.0,0.0
14716,73.0,10.0,15.0,8.0,0.0
14717,73.0,0.0,120.0,2.0,0.0
14718,57.0,0.0,30.0,5.0,0.0
14719,83.0,0.0,30.0,4.0,0.0
14720,74.0,10.0,15.0,8.0,0.0
14721,83.0,0.0,30.0,0.0,0.0
14722,57.0,0.0,30.0,7.0,0.0
14723,57.0,0.0,30.0,3.0,0.0
14724,77.0,0.0,30.0,1.0,0.0
14725,57.0,0.0,30.0,10.0,0.0
14726,77.0,1.0,30.0,6.0,0.0
14727,73.0,9.0,15.0,8.0,0.0
14728,74.0,10.0,15.0,8.0,0.0
14729,56.0,0.0,30.0,7.0,0.0
14730,56.0,0.0,30.0,3.0,0.0
14731,83.0,0.0,30.0,1.0,0.0
14732,73.0,10.0,15.0,8.0,0.0
14733,56.0,0.0,30.0,5.0,0.0
14734,77.0,0.0,30.0,0.0,0.0
14735,83.0,0.0,30.0,6.0,0.0
14736,56.0,0.0,30.0,10.0,0.0
14737,77.0,1.0,30.0,4.0,0.0
14738,74.0,9.0,15.0,8.0,0.0
14739,73.0,10.0,15.0,8.0,0.0
14740,54.0,0.0,30.0,5.0,0.0
14741,54.0,0.0,30.0,3.0,0.0
14742,81.0,0.0,30.0,1.0,0.0
14743,78.0,0.0,30.0,0.0,0.0
14744,54.0,0.0,30.0,10.0,0.0
14745,81.0,0.0,30.0,6.0,0.0
14746,78.0,1.0,30.0,4.0,0.0
14747,74.0,10.0,15.0,8.0,0.0
14748,54.0,0.0,30.0,7.0,0.0
14749,73.0,9.0,15.0,8.0,0.0
14750,74.0,10.0,15.0,8.0,0.0
14751,73.0,10.0,15.0,8.0,0.0
14752,53.0,0.0,30.0,5.0,0.0
14753,53.0,0.0,30.0,10.0,0.0
14754,80.0,1.0,30.0,6.0,0.0
14755,53.0,0.0,30.0,3.0,0.0
14756,80.0,0.0,30.0,0.0,0.0
14757,80.0,0.0,30.0,4.0,0.0
14758,53.0,0.0,30.0,7.0,0.0
14759,80.0,0.0,30.0,1.0,0.0
14760,74.0,9.0,15.0,8.0,0.0
14761,73.0,15.0,15.0,8.0,0.0
14762,81.0,0.0,60.0,4.0,0.0
14763,81.0,0.0,60.0,0.0,0.0
14764,54.0,0.0,60.0,5.0,0.0
14765,54.0,0.0,60.0,7.0,0.0
14766,54.0,0.0,60.0,10.0,0.0
14767,74.0,14.0,15.0,8.0,0.0
14768,78.0,1.0,30.0,1.0,0.0
14769,54.0,30.0,60.0,3.0,0.0
14770,78.0,0.0,30.0,6.0,0.0
14771,73.0,29.0,15.0,8.0,0.0
14772,71.0,0.0,30.0,8.0,0.0
14773,71.0,0.0,30.0,2.0,0.0
14774,80.0,0.0,30.0,1.0,0.0
14775,80.0,0.0,30.0,6.0,0.0
14776,78.0,0.0,30.0,4.0,0.0
14777,66.0,30.0,30.0,5.0,0.0
14778,73.0,0.0,30.0,2.0,0.0
14779,73.0,0.0,30.0,8.0,0.0
14780,78.0,0.0,30.0,0.0,0.0
14781,81.0,0.0,30.0,1.0,0.0
14782,61.0,0.0,60.0,7.0,0.0
14783,42.0,0.0,60.0,10.0,0.0
14784,81.0,0.0,30.0,6.0,0.0
14785,74.0,0.0,30.0,8.0,0.0
14786,74.0,0.0,30.0,2.0,0.0
14787,65.0,30.0,30.0,5.0,0.0
14788,83.0,0.0,30.0,1.0,0.0
14789,83.0,0.0,30.0,6.0,0.0
14790,80.0,0.0,30.0,4.0,0.0
14791,80.0,0.0,30.0,0.0,0.0
14792,81.0,0.0,30.0,6.0,0.0
14793,73.0,0.0,30.0,2.0,0.0
14794,73.0,30.0,30.0,8.0,0.0
14795,81.0,0.0,60.0,0.0,0.0
14796,81.0,0.0,30.0,1.0,0.0
14797,66.0,0.0,60.0,3.0,0.0
14798,66.0,0.0,60.0,5.0,0.0
14799,66.0,0.0,60.0,7.0,0.0
14800,81.0,30.0,60.0,4.0,0.0
14801,80.0,0.0,30.0,1.0,0.0
14802,71.0,0.0,30.0,2.0,0.0
14803,80.0,0.0,30.0,6.0,0.0
14804,71.0,0.0,30.0,8.0,0.0
14805,85.0,0.0,90.0,4.0,0.0
14806,78.0,0.0,30.0,1.0,0.0
14807,61.0,30.0,60.0,10.0,0.0
14808,69.0,0.0,30.0,8.0,0.0
14809,54.0,0.0,60.0,7.0,0.0
14810,69.0,0.0,30.0,2.0,0.0
14811,78.0,30.0,30.0,6.0,0.0
14812,85.0,0.0,90.0,0.0,0.0
14813,69.0,0.0,60.0,5.0,0.0
14814,68.0,0.0,30.0,8.0,0.0
14815,68.0,0.0,30.0,2.0,0.0
14816,76.0,0.0,30.0,1.0,0.0
14817,76.0,0.0,30.0,6.0,0.0
14818,74.0,30.0,30.0,5.0,0.0
14819,74.0,0.0,60.0,1.0,0.0
14820,66.0,0.0,60.0,8.0,0.0
14821,66.0,0.0,60.0,2.0,0.0
14822,74.0,0.0,60.0,6.0,0.0
14823,66.0,0.0,60.0,7.0,0.0
14824,59.0,30.0,60.0,3.0,0.0
14825,62.0,0.0,60.0,10.0,0.0
14826,81.0,0.0,30.0,4.0,0.0
14827,73.0,0.0,30.0,5.0,0.0
14828,81.0,0.0,30.0,0.0,0.0
14829,78.0,30.0,60.0,6.0,0.0
14830,83.0,0.0,30.0,0.0,0.0
14831,74.0,0.0,30.0,5.0,0.0
14832,83.0,30.0,30.0,4.0,0.0
14833,71.0,0.0,60.0,8.0,0.0
14834,78.0,0.0,60.0,1.0,0.0
14835,59.0,0.0,60.0,10.0,0.0
14836,71.0,0.0,60.0,2.0,0.0
14837,62.0,0.0,120.0,7.0,0.0
14838,76.0,0.0,30.0,5.0,0.0
14839,85.0,0.0,30.0,4.0,0.0
14840,85.0,0.0,30.0,0.0,0.0
14841,62.0,0.0,60.0,2.0,0.0
14842,71.0,0.0,60.0,6.0,0.0
14843,71.0,0.0,60.0,1.0,0.0
14844,66.0,0.0,60.0,8.0,0.0
14845,74.0,0.0,30.0,5.0,0.0
14846,83.0,0.0,30.0,0.0,0.0
14847,83.0,30.0,30.0,4.0,0.0
14848,47.0,0.0,60.0,3.0,0.0
14849,81.0,0.0,30.0,0.0,0.0
14850,81.0,0.0,30.0,4.0,0.0
14851,66.0,30.0,30.0,5.0,0.0
14852,68.0,30.0,30.0,5.0,0.0
14853,75.0,0.0,60.0,6.0,0.0
14854,47.0,0.0,60.0,10.0,0.0
14855,80.0,0.0,30.0,4.0,0.0
14856,71.0,0.0,90.0,8.0,0.0
14857,80.0,0.0,30.0,0.0,0.0
14858,59.0,0.0,60.0,7.0,0.0
14859,71.0,0.0,90.0,2.0,0.0
14860,75.0,0.0,60.0,1.0,0.0
14861,78.0,30.0,30.0,0.0,0.0
14862,78.0,0.0,30.0,4.0,0.0
14863,69.0,0.0,30.0,5.0,0.0
14864,71.0,0.0,60.0,5.0,0.0
14865,76.0,30.0,30.0,1.0,0.0
14866,76.0,0.0,30.0,6.0,0.0
14867,52.0,0.0,60.0,10.0,0.0
14868,52.0,0.0,60.0,7.0,0.0
14869,52.0,0.0,60.0,3.0,0.0
14870,80.0,0.0,60.0,0.0,0.0
14871,80.0,30.0,60.0,4.0,0.0
14872,69.0,0.0,30.0,8.0,0.0
14873,69.0,0.0,30.0,2.0,0.0
14874,78.0,0.0,30.0,6.0,0.0
14875,78.0,0.0,30.0,1.0,0.0
14876,71.0,0.0,30.0,2.0,0.0
14877,71.0,0.0,30.0,8.0,0.0
14878,40.0,0.0,60.0,10.0,0.0
14879,59.0,30.0,60.0,7.0,0.0
14880,80.0,0.0,30.0,1.0,0.0
14881,64.0,0.0,30.0,5.0,0.0
14882,76.0,0.0,30.0,0.0,0.0
14883,76.0,0.0,30.0,4.0,0.0
14884,80.0,30.0,30.0,6.0,0.0
14885,73.0,0.0,30.0,8.0,0.0
14886,78.0,0.0,30.0,4.0,0.0
14887,81.0,0.0,30.0,6.0,0.0
14888,63.0,0.0,30.0,5.0,0.0
14889,73.0,0.0,30.0,2.0,0.0
14890,81.0,0.0,30.0,1.0,0.0
14891,78.0,0.0,30.0,0.0,0.0
14892,64.0,0.0,60.0,7.0,0.0
14893,71.0,0.0,30.0,8.0,0.0
14894,80.0,30.0,60.0,0.0,0.0
14895,80.0,0.0,60.0,4.0,0.0
14896,80.0,0.0,30.0,6.0,0.0
14897,80.0,0.0,30.0,1.0,0.0
14898,64.0,0.0,60.0,5.0,0.0
14899,71.0,30.0,30.0,2.0,0.0
14900,64.0,0.0,60.0,3.0,0.0
14901,69.0,0.0,30.0,8.0,0.0
14902,78.0,0.0,30.0,6.0,0.0
14903,78.0,0.0,30.0,1.0,0.0
14904,69.0,0.0,30.0,2.0,0.0
14905,68.0,0.0,30.0,2.0,0.0
14906,83.0,30.0,90.0,4.0,0.0
14907,76.0,0.0,30.0,1.0,0.0
14908,83.0,0.0,90.0,0.0,0.0
14909,68.0,0.0,30.0,8.0,0.0
14910,68.0,0.0,60.0,5.0,0.0
14911,76.0,30.0,30.0,6.0,0.0
14912,59.0,30.0,60.0,10.0,0.0
14913,52.0,0.0,60.0,7.0,0.0
14914,74.0,0.0,30.0,6.0,0.0
14915,74.0,0.0,30.0,1.0,0.0
14916,66.0,0.0,30.0,2.0,0.0
14917,66.0,0.0,30.0,8.0,0.0
14918,73.0,0.0,30.0,5.0,0.0
14919,64.0,0.0,60.0,8.0,0.0
14920,64.0,0.0,60.0,7.0,0.0
14921,57.0,0.0,60.0,3.0,0.0
14922,73.0,0.0,60.0,6.0,0.0
14923,61.0,0.0,60.0,10.0,0.0
14924,64.0,0.0,60.0,2.0,0.0
14925,73.0,0.0,60.0,1.0,0.0
14926,80.0,30.0,30.0,4.0,0.0
14927,71.0,0.0,30.0,5.0,0.0
14928,80.0,0.0,30.0,0.0,0.0
14929,57.0,0.0,60.0,10.0,0.0
14930,81.0,30.0,30.0,0.0,0.0
14931,61.0,0.0,120.0,7.0,0.0
14932,73.0,0.0,30.0,5.0,0.0
14933,76.0,0.0,60.0,6.0,0.0
14934,69.0,0.0,60.0,8.0,0.0
14935,76.0,0.0,60.0,1.0,0.0
14936,81.0,0.0,30.0,4.0,0.0
14937,69.0,30.0,60.0,2.0,0.0
14938,83.0,0.0,30.0,4.0,0.0
14939,83.0,0.0,30.0,0.0,0.0
14940,74.0,0.0,30.0,5.0,0.0
14941,81.0,0.0,30.0,0.0,0.0
14942,81.0,30.0,30.0,4.0,0.0
14943,64.0,30.0,60.0,8.0,0.0
14944,45.0,0.0,60.0,3.0,0.0
14945,73.0,0.0,30.0,5.0,0.0
14946,61.0,0.0,60.0,2.0,0.0
14947,69.0,0.0,60.0,6.0,0.0
14948,69.0,0.0,60.0,1.0,0.0
14949,80.0,0.0,30.0,0.0,0.0
14950,65.0,0.0,30.0,5.0,0.0
14951,80.0,0.0,30.0,4.0,0.0
14952,78.0,0.0,30.0,4.0,0.0
14953,66.0,30.0,30.0,5.0,0.0
14954,57.0,0.0,60.0,7.0,0.0
14955,73.0,0.0,60.0,6.0,0.0
14956,78.0,0.0,30.0,0.0,0.0
14957,69.0,0.0,90.0,2.0,0.0
14958,69.0,30.0,90.0,8.0,0.0
14959,45.0,0.0,60.0,10.0,0.0
14960,73.0,0.0,60.0,1.0,0.0
14961,77.0,30.0,30.0,4.0,0.0
14962,77.0,0.0,30.0,0.0,0.0
14963,68.0,0.0,30.0,5.0,0.0
14964,50.0,0.0,60.0,3.0,0.0
14965,69.0,0.0,60.0,5.0,0.0
14966,50.0,0.0,60.0,7.0,0.0
14967,50.0,0.0,60.0,10.0,0.0
14968,74.0,0.0,30.0,1.0,0.0
14969,74.0,0.0,30.0,6.0,0.0
14970,78.0,0.0,60.0,4.0,0.0
14971,78.0,0.0,60.0,0.0,0.0
14972,76.0,0.0,30.0,1.0,0.0
14973,76.0,0.0,30.0,6.0,0.0
14974,67.0,0.0,30.0,2.0,0.0
14975,67.0,30.0,30.0,8.0,0.0
14976,74.0,0.0,30.0,0.0,0.0
14977,57.0,0.0,60.0,7.0,0.0
14978,62.0,0.0,30.0,5.0,0.0
14979,78.0,0.0,30.0,6.0,0.0
14980,62.0,0.0,60.0,10.0,0.0
14981,69.0,0.0,30.0,8.0,0.0
14982,74.0,0.0,30.0,4.0,0.0
14983,78.0,0.0,30.0,1.0,0.0
14984,69.0,30.0,30.0,2.0,0.0
14985,76.0,0.0,30.0,4.0,0.0
14986,79.0,0.0,30.0,6.0,0.0
14987,79.0,0.0,30.0,1.0,0.0
14988,61.0,0.0,30.0,5.0,0.0
14989,71.0,30.0,30.0,2.0,0.0
14990,76.0,0.0,30.0,0.0,0.0
14991,71.0,0.0,30.0,8.0,0.0
14992,69.0,30.0,30.0,2.0,0.0
14993,69.0,0.0,30.0,8.0,0.0
14994,62.0,30.0,60.0,3.0,0.0
14995,78.0,0.0,60.0,0.0,0.0
14996,62.0,0.0,60.0,5.0,0.0
14997,78.0,0.0,30.0,6.0,0.0
14998,78.0,0.0,60.0,4.0,0.0
14999,78.0,0.0,30.0,1.0,0.0
15000,62.0,0.0,60.0,7.0,0.0
15001,67.0,0.0,30.0,2.0,0.0
15002,76.0,0.0,30.0,6.0,0.0
15003,76.0,0.0,30.0,1.0,0.0
15004,67.0,0.0,30.0,8.0,0.0
15005,66.0,0.0,30.0,8.0,0.0
15006,81.0,0.0,90.0,0.0,0.0
15007,74.0,0.0,30.0,6.0,0.0
15008,66.0,30.0,30.0,2.0,0.0
15009,81.0,30.0,90.0,4.0,0.0
15010,50.0,0.0,60.0,7.0,0.0
15011,64.0,0.0,60.0,5.0,0.0
15012,74.0,0.0,30.0,1.0,0.0
15013,57.0,0.0,60.0,10.0,0.0
15014,73.0,0.0,30.0,6.0,0.0
15015,73.0,30.0,30.0,1.0,0.0
15016,64.0,0.0,30.0,8.0,0.0
15017,64.0,0.0,30.0,2.0,0.0
15018,62.0,0.0,60.0,8.0,0.0
15019,59.0,30.0,60.0,10.0,0.0
15020,62.0,0.0,60.0,7.0,0.0
15021,71.0,0.0,60.0,1.0,0.0
15022,71.0,0.0,60.0,6.0,0.0
15023,56.0,0.0,60.0,3.0,0.0
15024,71.0,0.0,30.0,5.0,0.0
15025,62.0,0.0,60.0,2.0,0.0
15026,78.0,0.0,30.0,4.0,0.0
15027,78.0,0.0,30.0,0.0,0.0
15028,69.0,0.0,30.0,5.0,0.0
15029,71.0,0.0,30.0,5.0,0.0
15030,71.0,30.0,60.0,8.0,0.0
15031,74.0,0.0,60.0,6.0,0.0
15032,56.0,0.0,60.0,10.0,0.0
15033,74.0,0.0,60.0,1.0,0.0
15034,80.0,30.0,30.0,0.0,0.0
15035,80.0,0.0,30.0,4.0,0.0
15036,71.0,0.0,60.0,2.0,0.0
15037,59.0,0.0,120.0,7.0,0.0
15038,81.0,0.0,30.0,4.0,0.0
15039,81.0,0.0,30.0,0.0,0.0
15040,73.0,0.0,30.0,5.0,0.0
15041,68.0,30.0,60.0,1.0,0.0
15042,44.0,0.0,60.0,3.0,0.0
15043,80.0,0.0,30.0,0.0,0.0
15044,59.0,0.0,60.0,2.0,0.0
15045,61.0,0.0,60.0,8.0,0.0
15046,80.0,0.0,30.0,4.0,0.0
15047,68.0,0.0,60.0,6.0,0.0
15048,71.0,30.0,30.0,5.0,0.0
15049,78.0,0.0,30.0,0.0,0.0
15050,78.0,0.0,30.0,4.0,0.0
15051,63.0,0.0,30.0,5.0,0.0
15052,71.0,0.0,90.0,1.0,0.0
15053,56.0,0.0,60.0,7.0,0.0
15054,68.0,0.0,90.0,8.0,0.0
15055,77.0,30.0,30.0,4.0,0.0
15056,68.0,0.0,90.0,2.0,0.0
15057,71.0,30.0,90.0,6.0,0.0
15058,44.0,0.0,60.0,10.0,0.0
15059,77.0,0.0,30.0,0.0,0.0
15060,65.0,0.0,30.0,5.0,0.0
15061,66.0,0.0,30.0,5.0,0.0
15062,75.0,0.0,30.0,0.0,0.0
15063,75.0,30.0,30.0,4.0,0.0
15064,77.0,0.0,30.0,0.0,0.0
15065,49.0,0.0,60.0,7.0,0.0
15066,77.0,0.0,30.0,4.0,0.0
15067,49.0,0.0,60.0,10.0,0.0
15068,68.0,0.0,60.0,5.0,0.0
15069,49.0,0.0,60.0,3.0,0.0
15070,75.0,0.0,30.0,4.0,0.0
15071,69.0,0.0,30.0,1.0,0.0
15072,66.0,0.0,30.0,8.0,0.0
15073,75.0,0.0,30.0,0.0,0.0
15074,69.0,30.0,30.0,6.0,0.0
15075,66.0,0.0,30.0,2.0,0.0
15076,61.0,0.0,90.0,10.0,0.0
15077,68.0,0.0,30.0,6.0,0.0
15078,68.0,0.0,30.0,8.0,0.0
15079,61.0,0.0,90.0,3.0,0.0
15080,56.0,0.0,60.0,7.0,0.0
15081,68.0,0.0,30.0,2.0,0.0
15082,77.0,0.0,30.0,4.0,0.0
15083,77.0,0.0,30.0,0.0,0.0
15084,61.0,30.0,60.0,5.0,0.0
15085,68.0,30.0,30.0,1.0,0.0
15086,69.0,0.0,30.0,8.0,0.0
15087,66.0,0.0,30.0,1.0,0.0
15088,78.0,0.0,30.0,0.0,0.0
15089,78.0,0.0,30.0,4.0,0.0
15090,69.0,0.0,30.0,2.0,0.0
15091,66.0,0.0,30.0,6.0,0.0
15092,71.0,0.0,30.0,2.0,0.0
15093,80.0,30.0,30.0,4.0,0.0
15094,65.0,0.0,30.0,6.0,0.0
15095,61.0,0.0,60.0,7.0,0.0
15096,71.0,0.0,30.0,8.0,0.0
15097,65.0,0.0,30.0,1.0,0.0
15098,73.0,0.0,30.0,5.0,0.0
15099,80.0,0.0,30.0,0.0,0.0
15100,77.0,0.0,30.0,0.0,0.0
15101,71.0,0.0,30.0,5.0,0.0
15102,74.0,0.0,30.0,1.0,0.0
15103,68.0,0.0,30.0,8.0,0.0
15104,59.0,0.0,30.0,3.0,0.0
15105,68.0,0.0,30.0,2.0,0.0
15106,77.0,0.0,30.0,4.0,0.0
15107,74.0,30.0,30.0,6.0,0.0
15108,59.0,0.0,30.0,10.0,0.0
15109,57.0,0.0,30.0,3.0,0.0
15110,69.0,0.0,30.0,5.0,0.0
15111,78.0,30.0,30.0,4.0,0.0
15112,78.0,0.0,30.0,0.0,0.0
15113,73.0,0.0,30.0,1.0,0.0
15114,49.0,0.0,60.0,7.0,0.0
15115,73.0,0.0,30.0,6.0,0.0
15116,57.0,0.0,30.0,10.0,0.0
15117,69.0,0.0,30.0,2.0,0.0
15118,69.0,0.0,30.0,8.0,0.0
15119,80.0,0.0,30.0,4.0,0.0
15120,71.0,0.0,30.0,1.0,0.0
15121,56.0,0.0,30.0,3.0,0.0
15122,71.0,0.0,30.0,2.0,0.0
15123,68.0,0.0,30.0,5.0,0.0
15124,71.0,0.0,30.0,6.0,0.0
15125,80.0,0.0,30.0,0.0,0.0
15126,71.0,0.0,30.0,8.0,0.0
15127,56.0,30.0,30.0,10.0,0.0
15128,69.0,29.0,30.0,6.0,0.0
15129,73.0,0.0,60.0,4.0,0.0
15130,69.0,0.0,60.0,1.0,0.0
15131,61.0,0.0,30.0,7.0,0.0
15132,66.0,0.0,30.0,5.0,0.0
15133,73.0,0.0,60.0,8.0,0.0
15134,57.0,1.0,30.0,10.0,0.0
15135,54.0,0.0,60.0,3.0,0.0
15136,73.0,0.0,60.0,0.0,0.0
15137,73.0,0.0,60.0,2.0,0.0
15138,59.0,0.0,30.0,7.0,0.0
15139,68.0,1.0,30.0,5.0,0.0
15140,73.0,29.0,30.0,6.0,0.0
15141,56.0,0.0,30.0,10.0,0.0
15142,78.0,0.0,120.0,4.0,0.0
15143,57.0,0.0,30.0,7.0,0.0
15144,78.0,29.0,120.0,8.0,0.0
15145,54.0,0.0,30.0,10.0,0.0
15146,78.0,0.0,120.0,6.0,0.0
15147,69.0,30.0,30.0,5.0,0.0
15148,78.0,0.0,120.0,0.0,0.0
15149,57.0,30.0,30.0,10.0,0.0
15150,61.0,0.0,30.0,7.0,0.0
15151,66.0,0.0,30.0,5.0,0.0
15152,59.0,30.0,30.0,7.0,0.0
15153,68.0,0.0,60.0,1.0,0.0
15154,71.0,0.0,60.0,2.0,0.0
15155,62.0,0.0,30.0,10.0,0.0
15156,56.0,0.0,60.0,3.0,0.0
15157,68.0,0.0,30.0,5.0,0.0
15158,69.0,0.0,30.0,5.0,0.0
15159,61.0,0.0,30.0,10.0,0.0
15160,57.0,1.0,30.0,7.0,0.0
15161,77.0,0.0,60.0,6.0,0.0
15162,59.0,0.0,30.0,10.0,0.0
15163,71.0,0.0,30.0,5.0,0.0
15164,77.0,0.0,60.0,0.0,0.0
15165,77.0,0.0,60.0,4.0,0.0
15166,56.0,30.0,30.0,7.0,0.0
15167,77.0,0.0,60.0,8.0,0.0
15168,68.0,30.0,30.0,5.0,0.0
15169,61.0,0.0,30.0,7.0,0.0
15170,61.0,0.0,30.0,10.0,0.0
15171,57.0,0.0,60.0,3.0,0.0
15172,69.0,0.0,60.0,2.0,0.0
15173,57.0,30.0,30.0,10.0,0.0
15174,78.0,0.0,60.0,6.0,0.0
15175,78.0,0.0,60.0,0.0,0.0
15176,69.0,0.0,30.0,5.0,0.0
15177,78.0,0.0,60.0,4.0,0.0
15178,73.0,30.0,60.0,1.0,0.0
15179,78.0,0.0,60.0,8.0,0.0
15180,54.0,0.0,30.0,7.0,0.0
15181,57.0,0.0,30.0,7.0,0.0
15182,73.0,0.0,30.0,5.0,0.0
15183,54.0,0.0,30.0,10.0,0.0
15184,80.0,0.0,120.0,0.0,0.0
15185,59.0,0.0,30.0,7.0,0.0
15186,62.0,0.0,30.0,10.0,0.0
15187,71.0,30.0,30.0,5.0,0.0
15188,80.0,0.0,120.0,6.0,0.0
15189,80.0,0.0,120.0,8.0,0.0
15190,80.0,0.0,120.0,4.0,0.0
15191,61.0,30.0,30.0,7.0,0.0
15192,61.0,0.0,30.0,10.0,0.0
15193,69.0,0.0,30.0,5.0,0.0
15194,74.0,0.0,60.0,2.0,0.0
15195,71.0,30.0,60.0,1.0,0.0
15196,62.0,30.0,30.0,7.0,0.0
15197,68.0,0.0,30.0,5.0,0.0
15198,59.0,0.0,30.0,10.0,0.0
15199,59.0,0.0,60.0,3.0,0.0
15200,62.0,0.0,30.0,10.0,0.0
15201,59.0,0.0,30.0,7.0,0.0
15202,66.0,0.0,30.0,5.0,0.0
15203,81.0,0.0,120.0,8.0,0.0
15204,81.0,30.0,120.0,0.0,0.0
15205,61.0,30.0,30.0,7.0,0.0
15206,61.0,0.0,30.0,10.0,0.0
15207,81.0,0.0,120.0,4.0,0.0
15208,81.0,0.0,120.0,6.0,0.0
15209,65.0,0.0,30.0,5.0,0.0
15210,59.0,0.0,30.0,10.0,0.0
15211,63.0,0.0,30.0,5.0,0.0
15212,63.0,30.0,30.0,7.0,0.0
15213,61.0,0.0,60.0,3.0,0.0
15214,61.0,0.0,60.0,5.0,0.0
15215,73.0,0.0,60.0,2.0,0.0
15216,65.0,0.0,60.0,1.0,0.0
15217,57.0,30.0,30.0,10.0,0.0
15218,65.0,0.0,30.0,7.0,0.0
15219,54.0,0.0,30.0,10.0,0.0
15220,61.0,0.0,30.0,7.0,0.0
15221,80.0,0.0,30.0,8.0,0.0
15222,66.0,0.0,60.0,7.0,0.0
15223,80.0,30.0,30.0,6.0,0.0
15224,80.0,0.0,30.0,4.0,0.0
15225,66.0,30.0,60.0,1.0,0.0
15226,62.0,0.0,60.0,3.0,0.0
15227,69.0,0.0,60.0,2.0,0.0
15228,62.0,0.0,60.0,5.0,0.0
15229,80.0,0.0,30.0,0.0,0.0
15230,62.0,0.0,60.0,10.0,0.0
15231,78.0,0.0,30.0,6.0,0.0
15232,78.0,0.0,30.0,8.0,0.0
15233,78.0,0.0,30.0,4.0,0.0
15234,78.0,0.0,30.0,0.0,0.0
15235,81.0,30.0,30.0,4.0,0.0
15236,81.0,0.0,30.0,8.0,0.0
15237,59.0,0.0,60.0,10.0,0.0
15238,59.0,0.0,60.0,5.0,0.0
15239,81.0,0.0,30.0,0.0,0.0
15240,59.0,0.0,60.0,3.0,0.0
15241,71.0,0.0,60.0,2.0,0.0
15242,74.0,0.0,60.0,1.0,0.0
15243,59.0,30.0,60.0,7.0,0.0
15244,81.0,0.0,30.0,6.0,0.0
15245,80.0,0.0,30.0,6.0,0.0
15246,80.0,0.0,30.0,8.0,0.0
15247,80.0,0.0,30.0,4.0,0.0
15248,80.0,0.0,30.0,0.0,0.0
15249,78.0,30.0,30.0,0.0,0.0
15250,73.0,0.0,60.0,1.0,0.0
15251,78.0,0.0,30.0,6.0,0.0
15252,78.0,0.0,30.0,8.0,0.0
15253,61.0,0.0,60.0,5.0,0.0
15254,78.0,0.0,30.0,4.0,0.0
15255,68.0,0.0,60.0,2.0,0.0
15256,61.0,0.0,60.0,3.0,0.0
15257,61.0,0.0,60.0,10.0,0.0
15258,61.0,0.0,60.0,7.0,0.0
15259,77.0,0.0,30.0,6.0,0.0
15260,77.0,0.0,30.0,8.0,0.0
15261,77.0,0.0,30.0,4.0,0.0
15262,77.0,30.0,30.0,0.0,0.0
15263,78.0,30.0,30.0,0.0,0.0
15264,78.0,0.0,30.0,4.0,0.0
15265,54.0,0.0,120.0,3.0,0.0
15266,78.0,0.0,30.0,6.0,0.0
15267,54.0,0.0,120.0,7.0,0.0
15268,66.0,0.0,120.0,5.0,0.0
15269,73.0,0.0,120.0,1.0,0.0
15270,69.0,0.0,120.0,2.0,0.0
15271,54.0,0.0,120.0,10.0,0.0
15272,78.0,0.0,30.0,8.0,0.0
15273,73.0,30.0,30.0,4.0,0.0
15274,73.0,0.0,30.0,8.0,0.0
15275,73.0,0.0,30.0,6.0,0.0
15276,73.0,0.0,30.0,0.0,0.0
15277,69.0,0.0,30.0,0.0,0.0
15278,69.0,30.0,30.0,8.0,0.0
15279,69.0,0.0,30.0,6.0,0.0
15280,69.0,0.0,30.0,4.0,0.0
15281,73.0,60.0,30.0,0.0,0.0
15282,73.0,0.0,30.0,8.0,0.0
15283,73.0,0.0,30.0,6.0,0.0
15284,73.0,0.0,30.0,4.0,0.0
15285,66.0,0.0,60.0,4.0,0.0
15286,66.0,0.0,60.0,8.0,0.0
15287,66.0,0.0,60.0,6.0,0.0
15288,66.0,30.0,60.0,0.0,0.0
15289,49.0,0.0,30.0,10.0,0.0
15290,49.0,0.0,30.0,7.0,0.0
15291,61.0,0.0,30.0,5.0,0.0
15292,57.0,0.0,30.0,5.0,0.0
15293,45.0,30.0,30.0,7.0,0.0
15294,45.0,0.0,30.0,10.0,0.0
15295,49.0,30.0,30.0,10.0,0.0
15296,49.0,0.0,30.0,7.0,0.0
15297,61.0,0.0,30.0,5.0,0.0
15298,42.0,0.0,60.0,7.0,0.0
15299,54.0,0.0,30.0,5.0,0.0
15300,73.0,30.0,30.0,4.0,0.0
15301,42.0,0.0,60.0,10.0,0.0
15302,69.0,0.0,30.0,4.0,0.0
15303,61.0,30.0,30.0,5.0,0.0
15304,68.0,0.0,30.0,4.0,0.0
15305,61.0,0.0,60.0,3.0,0.0
15306,59.0,30.0,30.0,5.0,0.0
15307,66.0,0.0,30.0,4.0,0.0
15308,61.0,30.0,30.0,5.0,0.0
15309,73.0,0.0,30.0,4.0,0.0
15310,66.0,0.0,180.0,3.0,0.0
15311,57.0,30.0,30.0,5.0,0.0
15312,61.0,0.0,30.0,5.0,0.0
15313,69.0,30.0,30.0,4.0,0.0
15314,68.0,30.0,30.0,4.0,0.0
15315,59.0,0.0,30.0,5.0,0.0
15316,61.0,0.0,30.0,5.0,0.0
15317,66.0,30.0,30.0,4.0,0.0
15318,56.0,0.0,30.0,5.0,0.0
15319,74.0,30.0,30.0,4.0,0.0
15320,71.0,30.0,30.0,4.0,0.0
15321,61.0,0.0,30.0,5.0,0.0
15322,73.0,0.0,30.0,4.0,0.0
15323,65.0,0.0,60.0,3.0,0.0
15324,59.0,30.0,30.0,5.0,0.0
15325,68.0,0.0,30.0,4.0,0.0
15326,61.0,30.0,30.0,5.0,0.0
15327,54.0,30.0,60.0,5.0,0.0
15328,66.0,0.0,60.0,3.0,0.0
15329,69.0,30.0,30.0,4.0,0.0
15330,66.0,0.0,30.0,4.0,0.0
15331,69.0,30.0,30.0,4.0,0.0
15332,73.0,30.0,30.0,4.0,0.0
15333,57.0,30.0,30.0,5.0,0.0
15334,78.0,0.0,30.0,4.0,0.0
15335,66.0,0.0,30.0,5.0,0.0
15336,75.0,30.0,30.0,4.0,0.0
15337,64.0,0.0,30.0,5.0,0.0
15338,73.0,30.0,30.0,4.0,0.0
15339,57.0,0.0,120.0,3.0,0.0
15340,72.0,0.0,30.0,4.0,0.0
15341,66.0,30.0,30.0,5.0,0.0
15342,63.0,30.0,30.0,5.0,0.0
15343,78.0,0.0,30.0,4.0,0.0
15344,75.0,0.0,30.0,4.0,0.0
15345,66.0,30.0,30.0,5.0,0.0
15346,54.0,30.0,60.0,3.0,0.0
15347,73.0,0.0,30.0,4.0,0.0
15348,64.0,30.0,30.0,5.0,0.0
15349,72.0,0.0,30.0,4.0,0.0
15350,66.0,0.0,30.0,5.0,0.0
15351,81.0,0.0,30.0,4.0,0.0
15352,60.0,30.0,30.0,5.0,0.0
15353,51.0,0.0,60.0,3.0,0.0
15354,78.0,30.0,30.0,4.0,0.0
15355,68.0,0.0,30.0,5.0,0.0
15356,80.0,0.0,30.0,4.0,0.0
15357,60.0,0.0,60.0,3.0,0.0
15358,66.0,30.0,30.0,5.0,0.0
15359,68.0,0.0,30.0,5.0,0.0
15360,75.0,30.0,30.0,4.0,0.0
15361,61.0,0.0,60.0,5.0,0.0
15362,76.0,30.0,30.0,4.0,0.0
15363,61.0,30.0,60.0,3.0,0.0
15364,73.0,0.0,30.0,4.0,0.0
15365,76.0,30.0,30.0,4.0,0.0
15366,80.0,30.0,30.0,4.0,0.0
15367,61.0,0.0,30.0,5.0,0.0
15368,85.0,30.0,30.0,4.0,0.0
15369,68.0,0.0,30.0,5.0,0.0
15370,76.0,30.0,30.0,4.0,0.0
15371,61.0,0.0,60.0,3.0,0.0
15372,66.0,0.0,30.0,5.0,0.0
15373,74.0,30.0,30.0,4.0,0.0
15374,68.0,0.0,30.0,5.0,0.0
15375,73.0,30.0,30.0,4.0,0.0
15376,85.0,30.0,30.0,4.0,0.0
15377,64.0,0.0,60.0,3.0,0.0
15378,59.0,0.0,30.0,5.0,0.0
15379,67.0,30.0,30.0,5.0,0.0
15380,76.0,0.0,30.0,4.0,0.0
15381,66.0,0.0,30.0,5.0,0.0
15382,74.0,30.0,30.0,4.0,0.0
15383,55.0,30.0,60.0,3.0,0.0
15384,73.0,0.0,30.0,4.0,0.0
15385,67.0,0.0,30.0,5.0,0.0
15386,85.0,0.0,30.0,4.0,0.0
15387,54.0,0.0,60.0,3.0,0.0
15388,58.0,30.0,30.0,5.0,0.0
15389,76.0,30.0,30.0,4.0,0.0
15390,66.0,0.0,30.0,5.0,0.0
15391,64.0,30.0,30.0,5.0,0.0
15392,78.0,0.0,30.0,4.0,0.0
15393,58.0,0.0,60.0,3.0,0.0
15394,73.0,0.0,30.0,4.0,0.0
15395,66.0,30.0,30.0,5.0,0.0
15396,74.0,30.0,30.0,4.0,0.0
15397,59.0,0.0,60.0,3.0,0.0
15398,59.0,0.0,60.0,5.0,0.0
15399,71.0,30.0,30.0,4.0,0.0
15400,74.0,30.0,30.0,4.0,0.0
15401,78.0,30.0,30.0,4.0,0.0
15402,83.0,30.0,30.0,4.0,0.0
15403,59.0,0.0,30.0,5.0,0.0
15404,66.0,0.0,30.0,5.0,0.0
15405,74.0,30.0,30.0,4.0,0.0
15406,64.0,30.0,30.0,5.0,0.0
15407,73.0,0.0,30.0,4.0,0.0
15408,59.0,30.0,60.0,3.0,0.0
15409,66.0,0.0,30.0,5.0,0.0
15410,71.0,0.0,30.0,4.0,0.0
15411,57.0,0.0,30.0,5.0,0.0
15412,83.0,30.0,30.0,4.0,0.0
15413,62.0,0.0,60.0,3.0,0.0
15414,66.0,30.0,30.0,5.0,0.0
15415,74.0,0.0,30.0,4.0,0.0
15416,64.0,0.0,30.0,5.0,0.0
15417,54.0,0.0,60.0,3.0,0.0
15418,73.0,30.0,30.0,4.0,0.0
15419,66.0,0.0,30.0,5.0,0.0
15420,71.0,30.0,30.0,4.0,0.0
15421,52.0,30.0,60.0,3.0,0.0
15422,56.0,30.0,30.0,5.0,0.0
15423,83.0,0.0,30.0,4.0,0.0
15424,74.0,0.0,30.0,4.0,0.0
15425,64.0,0.0,30.0,5.0,0.0
15426,76.0,30.0,30.0,4.0,0.0
15427,62.0,0.0,30.0,5.0,0.0
15428,56.0,30.0,60.0,3.0,0.0
15429,64.0,0.0,30.0,5.0,0.0
15430,71.0,0.0,30.0,4.0,0.0
15431,73.0,30.0,30.0,4.0,0.0
15432,57.0,0.0,60.0,3.0,0.0
15433,57.0,30.0,60.0,5.0,0.0
15434,69.0,0.0,30.0,4.0,0.0
15435,73.0,30.0,30.0,4.0,0.0
15436,74.0,30.0,30.0,4.0,0.0
15437,76.0,30.0,30.0,4.0,0.0
15438,81.0,0.0,30.0,4.0,0.0
15439,61.0,30.0,30.0,5.0,0.0
15440,59.0,0.0,30.0,5.0,0.0
15441,83.0,30.0,30.0,4.0,0.0
15442,57.0,0.0,60.0,3.0,0.0
15443,57.0,30.0,30.0,5.0,0.0
15444,85.0,0.0,30.0,4.0,0.0
15445,50.0,0.0,60.0,3.0,0.0
15446,62.0,0.0,30.0,5.0,0.0
15447,78.0,30.0,30.0,4.0,0.0
15448,73.0,0.0,30.0,4.0,0.0
15449,55.0,30.0,30.0,5.0,0.0
15450,74.0,0.0,30.0,4.0,0.0
15451,54.0,30.0,30.0,5.0,0.0
15452,76.0,0.0,30.0,4.0,0.0
15453,52.0,30.0,30.0,5.0,0.0
15454,50.0,0.0,30.0,5.0,0.0
15455,78.0,30.0,30.0,4.0,0.0
15456,62.0,0.0,30.0,5.0,0.0
15457,83.0,30.0,30.0,4.0,0.0
15458,61.0,0.0,30.0,5.0,0.0
15459,85.0,30.0,30.0,4.0,0.0
15460,59.0,30.0,60.0,3.0,0.0
15461,59.0,0.0,30.0,5.0,0.0
15462,86.0,0.0,30.0,4.0,0.0
15463,52.0,0.0,60.0,3.0,0.0
15464,80.0,0.0,30.0,4.0,0.0
15465,64.0,30.0,30.0,5.0,0.0
15466,75.0,0.0,30.0,4.0,0.0
15467,57.0,30.0,30.0,5.0,0.0
15468,76.0,30.0,30.0,4.0,0.0
15469,56.0,0.0,30.0,5.0,0.0
15470,54.0,0.0,30.0,5.0,0.0
15471,78.0,30.0,30.0,4.0,0.0
15472,80.0,0.0,30.0,4.0,0.0
15473,52.0,30.0,30.0,5.0,0.0
15474,64.0,0.0,30.0,5.0,0.0
15475,85.0,30.0,30.0,4.0,0.0
15476,62.0,0.0,30.0,5.0,0.0
15477,61.0,30.0,60.0,3.0,0.0
15478,86.0,30.0,30.0,4.0,0.0
15479,88.0,0.0,30.0,4.0,0.0
15480,61.0,0.0,30.0,5.0,0.0
15481,78.0,30.0,30.0,4.0,0.0
15482,50.0,0.0,60.0,3.0,0.0
15483,62.0,0.0,30.0,5.0,0.0
15484,83.0,0.0,30.0,4.0,0.0
15485,59.0,30.0,30.0,5.0,0.0
15486,85.0,0.0,30.0,4.0,0.0
15487,57.0,30.0,30.0,5.0,0.0
15488,59.0,0.0,60.0,3.0,0.0
15489,86.0,0.0,30.0,4.0,0.0
15490,56.0,30.0,30.0,5.0,0.0
15491,76.0,0.0,30.0,4.0,0.0
15492,49.0,30.0,60.0,3.0,0.0
15493,61.0,30.0,30.0,5.0,0.0
15494,57.0,0.0,30.0,5.0,0.0
15495,81.0,0.0,30.0,4.0,0.0
15496,57.0,30.0,60.0,3.0,0.0
15497,83.0,30.0,30.0,4.0,0.0
15498,56.0,0.0,30.0,5.0,0.0
15499,54.0,0.0,30.0,5.0,0.0
15500,85.0,0.0,30.0,4.0,0.0
15501,59.0,0.0,30.0,5.0,0.0
15502,74.0,30.0,30.0,4.0,0.0
15503,47.0,0.0,60.0,3.0,0.0
15504,56.0,0.0,30.0,5.0,0.0
15505,80.0,30.0,30.0,4.0,0.0
15506,56.0,0.0,60.0,3.0,0.0
15507,54.0,30.0,30.0,5.0,0.0
15508,81.0,0.0,30.0,4.0,0.0
15509,52.0,0.0,30.0,5.0,0.0
15510,83.0,30.0,30.0,4.0,0.0
15511,57.0,0.0,30.0,5.0,0.0
15512,45.0,0.0,60.0,3.0,0.0
15513,73.0,30.0,30.0,4.0,0.0
15514,76.0,0.0,30.0,4.0,0.0
15515,61.0,30.0,30.0,5.0,0.0
15516,57.0,30.0,30.0,3.0,0.0
15517,78.0,0.0,30.0,4.0,0.0
15518,63.0,0.0,30.0,5.0,0.0
15519,64.0,0.0,30.0,5.0,0.0
15520,56.0,30.0,30.0,3.0,0.0
15521,80.0,0.0,30.0,4.0,0.0
15522,81.0,0.0,30.0,4.0,0.0
15523,66.0,30.0,30.0,5.0,0.0
15524,54.0,30.0,60.0,3.0,0.0
15525,75.0,0.0,30.0,4.0,0.0
15526,57.0,0.0,30.0,5.0,0.0
15527,56.0,30.0,30.0,5.0,0.0
15528,76.0,0.0,30.0,4.0,0.0
15529,51.0,0.0,60.0,3.0,0.0
15530,78.0,0.0,30.0,4.0,0.0
15531,54.0,30.0,30.0,5.0,0.0
15532,56.0,30.0,60.0,3.0,0.0
15533,72.0,30.0,30.0,4.0,0.0
15534,56.0,0.0,60.0,5.0,0.0
15535,75.0,0.0,30.0,4.0,0.0
15536,76.0,30.0,30.0,4.0,0.0
15537,68.0,0.0,60.0,5.0,0.0
15538,78.0,30.0,30.0,4.0,0.0
15539,63.0,0.0,60.0,5.0,0.0
15540,44.0,0.0,60.0,3.0,0.0
15541,72.0,30.0,30.0,4.0,0.0
15542,66.0,30.0,30.0,4.0,0.0
15543,64.0,0.0,60.0,5.0,0.0
15544,68.0,30.0,30.0,4.0,0.0
15545,69.0,30.0,30.0,4.0,0.0
15546,56.0,0.0,60.0,3.0,0.0
15547,63.0,30.0,60.0,5.0,0.0
15548,66.0,30.0,30.0,4.0,0.0
15549,72.0,0.0,30.0,4.0,0.0
15550,61.0,30.0,60.0,5.0,0.0
15551,73.0,30.0,30.0,4.0,0.0
15552,75.0,0.0,30.0,4.0,0.0
15553,44.0,30.0,60.0,3.0,0.0
15554,60.0,0.0,60.0,5.0,0.0
15555,66.0,30.0,30.0,4.0,0.0
15556,63.0,0.0,30.0,4.0,0.0
15557,64.0,30.0,30.0,4.0,0.0
15558,58.0,30.0,60.0,5.0,0.0
15559,66.0,0.0,30.0,4.0,0.0
15560,60.0,0.0,60.0,5.0,0.0
15561,56.0,0.0,60.0,3.0,0.0
15562,63.0,30.0,30.0,4.0,0.0
15563,66.0,30.0,30.0,4.0,0.0
15564,56.0,0.0,60.0,5.0,0.0
15565,68.0,30.0,30.0,4.0,0.0
15566,69.0,30.0,30.0,4.0,0.0
15567,54.0,0.0,60.0,5.0,0.0
15568,63.0,30.0,30.0,4.0,0.0
15569,44.0,0.0,60.0,3.0,0.0
15570,60.0,30.0,30.0,4.0,0.0
15571,61.0,30.0,30.0,4.0,0.0
15572,52.0,30.0,60.0,5.0,0.0
15573,63.0,0.0,30.0,4.0,0.0
15574,51.0,30.0,60.0,5.0,0.0
15575,60.0,30.0,30.0,4.0,0.0
15576,81.0,0.0,30.0,4.0,0.0
15577,80.0,30.0,30.0,4.0,0.0
15578,60.0,30.0,60.0,5.0,0.0
15579,51.0,0.0,60.0,3.0,0.0
15580,78.0,0.0,30.0,4.0,0.0
15581,52.0,0.0,60.0,3.0,0.0
15582,76.0,30.0,30.0,4.0,0.0
15583,61.0,0.0,30.0,5.0,0.0
15584,63.0,30.0,30.0,5.0,0.0
15585,75.0,0.0,30.0,4.0,0.0
15586,73.0,0.0,30.0,4.0,0.0
15587,54.0,0.0,60.0,3.0,0.0
15588,64.0,30.0,30.0,5.0,0.0
15589,75.0,30.0,30.0,4.0,0.0
15590,66.0,0.0,30.0,5.0,0.0
15591,56.0,0.0,60.0,3.0,0.0
15592,68.0,30.0,30.0,4.0,0.0
15593,64.0,0.0,30.0,5.0,0.0
15594,61.0,30.0,30.0,5.0,0.0
15595,73.0,0.0,30.0,4.0,0.0
15596,75.0,0.0,30.0,4.0,0.0
15597,68.0,30.0,30.0,5.0,0.0
15598,44.0,30.0,60.0,3.0,0.0
15599,66.0,0.0,30.0,5.0,0.0
15600,72.0,0.0,30.0,4.0,0.0
15601,45.0,30.0,60.0,3.0,0.0
15602,73.0,30.0,30.0,4.0,0.0
15603,64.0,0.0,30.0,5.0,0.0
15604,76.0,0.0,30.0,4.0,0.0
15605,60.0,0.0,30.0,5.0,0.0
15606,46.0,30.0,60.0,3.0,0.0
15607,67.0,30.0,30.0,4.0,0.0
15608,61.0,0.0,90.0,5.0,0.0
15609,68.0,0.0,30.0,4.0,0.0
15610,75.0,30.0,30.0,4.0,0.0
15611,47.0,30.0,60.0,3.0,0.0
15612,78.0,0.0,30.0,4.0,0.0
15613,60.0,0.0,30.0,5.0,0.0
15614,48.0,30.0,60.0,3.0,0.0
15615,63.0,0.0,90.0,5.0,0.0
15616,67.0,30.0,30.0,4.0,0.0
15617,68.0,0.0,30.0,4.0,0.0
15618,76.0,30.0,30.0,4.0,0.0
15619,49.0,0.0,60.0,3.0,0.0
15620,80.0,0.0,30.0,4.0,0.0
15621,61.0,30.0,30.0,5.0,0.0
15622,69.0,30.0,90.0,5.0,0.0
15623,61.0,30.0,60.0,3.0,0.0
15624,72.0,30.0,30.0,4.0,0.0
15625,73.0,0.0,30.0,4.0,0.0
15626,62.0,0.0,60.0,3.0,0.0
15627,78.0,0.0,30.0,4.0,0.0
15628,81.0,30.0,30.0,4.0,0.0
15629,65.0,0.0,30.0,5.0,0.0
15630,66.0,0.0,90.0,5.0,0.0
15631,63.0,30.0,60.0,3.0,0.0
15632,72.0,30.0,30.0,4.0,0.0
15633,73.0,0.0,30.0,4.0,0.0
15634,80.0,30.0,30.0,4.0,0.0
15635,64.0,30.0,60.0,3.0,0.0
15636,83.0,0.0,30.0,4.0,0.0
15637,65.0,0.0,30.0,5.0,0.0
15638,68.0,0.0,90.0,5.0,0.0
15639,72.0,30.0,30.0,4.0,0.0
15640,65.0,0.0,60.0,3.0,0.0
15641,73.0,15.0,30.0,4.0,0.0
15642,81.0,15.0,15.0,4.0,0.0
15643,66.0,10.0,60.0,3.0,0.0
15644,83.0,15.0,15.0,4.0,0.0
15645,61.0,0.0,30.0,5.0,0.0
15646,81.0,15.0,15.0,4.0,0.0
15647,83.0,0.0,15.0,4.0,0.0
15648,54.0,0.0,60.0,3.0,0.0
15649,81.0,10.0,15.0,4.0,0.0
15650,63.0,0.0,30.0,5.0,0.0
15651,83.0,10.0,15.0,4.0,0.0
15652,81.0,10.0,15.0,4.0,0.0
15653,64.0,10.0,30.0,5.0,0.0
15654,83.0,10.0,15.0,4.0,0.0
15655,81.0,10.0,15.0,4.0,0.0
15656,83.0,0.0,15.0,4.0,0.0
15657,81.0,10.0,15.0,4.0,0.0
15658,66.0,0.0,30.0,5.0,0.0
15659,51.0,0.0,60.0,3.0,0.0
15660,83.0,10.0,15.0,4.0,0.0
15661,81.0,10.0,15.0,4.0,0.0
15662,69.0,10.0,30.0,5.0,0.0
15663,83.0,10.0,15.0,4.0,0.0
15664,81.0,10.0,15.0,4.0,0.0
15665,83.0,0.0,15.0,4.0,0.0
15666,63.0,0.0,30.0,5.0,0.0
15667,81.0,10.0,15.0,4.0,0.0
15668,54.0,30.0,60.0,3.0,0.0
15669,83.0,10.0,15.0,4.0,0.0
15670,81.0,10.0,15.0,4.0,0.0
15671,83.0,10.0,15.0,4.0,0.0
15672,66.0,0.0,30.0,5.0,0.0
15673,81.0,10.0,15.0,4.0,0.0
15674,83.0,0.0,15.0,4.0,0.0
15675,60.0,30.0,30.0,5.0,0.0
15676,56.0,29.0,1500.0,3.0,0.0
15677,81.0,0.0,30.0,4.0,0.0
15678,78.0,0.0,30.0,4.0,0.0
15679,69.0,30.0,30.0,5.0,0.0
15680,76.0,30.0,30.0,4.0,0.0
15681,68.0,0.0,30.0,5.0,0.0
15682,66.0,0.0,30.0,5.0,0.0
15683,75.0,30.0,30.0,4.0,0.0
15684,80.0,0.0,30.0,4.0,0.0
15685,64.0,30.0,30.0,5.0,0.0
15686,76.0,0.0,30.0,4.0,0.0
15687,68.0,30.0,30.0,5.0,0.0
15688,72.0,0.0,30.0,4.0,0.0
15689,66.0,30.0,30.0,5.0,0.0
15690,64.0,0.0,30.0,5.0,0.0
15691,73.0,30.0,30.0,4.0,0.0
15692,63.0,30.0,30.0,5.0,0.0
15693,78.0,0.0,30.0,4.0,0.0
15694,75.0,0.0,30.0,4.0,0.0
15695,66.0,30.0,30.0,5.0,0.0
15696,64.0,0.0,30.0,5.0,0.0
15697,73.0,30.0,30.0,4.0,0.0
15698,63.0,0.0,30.0,5.0,0.0
15699,72.0,30.0,30.0,4.0,0.0
15700,76.0,30.0,30.0,4.0,0.0
15701,61.0,0.0,30.0,5.0,0.0
15702,73.0,30.0,30.0,4.0,0.0
15703,64.0,0.0,30.0,5.0,0.0
15704,68.0,0.0,30.0,4.0,0.0
15705,63.0,30.0,30.0,5.0,0.0
15706,69.0,0.0,30.0,4.0,0.0
15707,61.0,30.0,30.0,5.0,0.0
15708,74.0,0.0,30.0,4.0,0.0
15709,59.0,30.0,30.0,5.0,0.0
15710,62.0,0.0,30.0,5.0,0.0
15711,71.0,30.0,30.0,4.0,0.0
15712,61.0,0.0,30.0,5.0,0.0
15713,69.0,30.0,30.0,4.0,0.0
15714,68.0,0.0,30.0,4.0,0.0
15715,59.0,30.0,30.0,5.0,0.0
15716,73.0,0.0,30.0,4.0,0.0
15717,57.0,30.0,30.0,5.0,0.0
15718,69.0,0.0,30.0,4.0,0.0
15719,61.0,30.0,30.0,5.0,0.0
15720,65.0,30.0,30.0,4.0,0.0
15721,59.0,0.0,30.0,5.0,0.0
15722,57.0,30.0,30.0,5.0,0.0
15723,66.0,0.0,30.0,4.0,0.0
15724,72.0,30.0,30.0,4.0,0.0
15725,56.0,0.0,60.0,5.0,0.0
15726,69.0,30.0,30.0,4.0,0.0
15727,65.0,30.0,30.0,4.0,0.0
15728,63.0,30.0,60.0,5.0,0.0
15729,66.0,0.0,30.0,4.0,0.0
15730,73.0,30.0,30.0,4.0,0.0
15731,64.0,30.0,60.0,5.0,0.0
15732,70.0,0.0,30.0,4.0,0.0
15733,58.0,0.0,60.0,5.0,0.0
15734,65.0,30.0,30.0,4.0,0.0
15735,66.0,30.0,30.0,4.0,0.0
15736,75.0,30.0,30.0,4.0,0.0
15737,60.0,0.0,60.0,5.0,0.0
15738,72.0,30.0,30.0,4.0,0.0
15739,69.0,30.0,30.0,4.0,0.0
15740,63.0,30.0,60.0,5.0,0.0
15741,68.0,0.0,30.0,4.0,0.0
15742,61.0,0.0,60.0,5.0,0.0
15743,66.0,30.0,30.0,4.0,0.0
15744,69.0,30.0,30.0,4.0,0.0
15745,60.0,0.0,60.0,5.0,0.0
15746,68.0,30.0,30.0,4.0,0.0
15747,66.0,30.0,30.0,4.0,0.0
15748,64.0,30.0,30.0,4.0,0.0
15749,61.0,0.0,60.0,5.0,0.0
15750,68.0,30.0,30.0,4.0,0.0
15751,64.0,0.0,60.0,5.0,0.0
15752,73.0,30.0,30.0,4.0,0.0
15753,76.0,30.0,30.0,4.0,0.0
15754,75.0,30.0,30.0,4.0,0.0
15755,58.0,0.0,60.0,5.0,0.0
15756,73.0,30.0,30.0,4.0,0.0
15757,79.0,30.0,30.0,4.0,0.0
15758,61.0,30.0,60.0,5.0,0.0
15759,80.0,0.0,30.0,4.0,0.0
15760,72.0,30.0,30.0,4.0,0.0
15761,63.0,1.0,60.0,5.0,0.0
15762,75.0,0.0,30.0,4.0,0.0
15763,78.0,30.0,30.0,4.0,0.0
15764,51.0,0.0,60.0,3.0,0.0
15765,58.0,30.0,60.0,5.0,0.0
15766,81.0,0.0,30.0,4.0,0.0
15767,48.0,0.0,60.0,3.0,0.0
15768,63.0,0.0,60.0,5.0,0.0
15769,80.0,30.0,30.0,4.0,0.0
15770,78.0,30.0,30.0,4.0,0.0
15771,68.0,30.0,90.0,5.0,0.0
15772,44.0,30.0,60.0,3.0,0.0
15773,84.0,30.0,30.0,4.0,0.0
15774,85.0,0.0,30.0,4.0,0.0
15775,80.0,0.0,60.0,8.0,0.0
15776,76.0,0.0,30.0,4.0,0.0
15777,80.0,0.0,60.0,0.0,0.0
15778,76.0,0.0,60.0,2.0,0.0
15779,80.0,0.0,60.0,1.0,0.0
15780,64.0,0.0,30.0,7.0,0.0
15781,80.0,0.0,60.0,6.0,0.0
15782,61.0,0.0,30.0,10.0,0.0
15783,49.0,0.0,60.0,3.0,0.0
15784,80.0,0.0,30.0,4.0,0.0
15785,63.0,30.0,30.0,7.0,0.0
15786,63.0,0.0,30.0,10.0,0.0
15787,66.0,0.0,30.0,5.0,0.0
15788,85.0,0.0,120.0,8.0,0.0
15789,64.0,30.0,30.0,5.0,0.0
15790,85.0,0.0,120.0,0.0,0.0
15791,64.0,0.0,30.0,10.0,0.0
15792,85.0,0.0,120.0,6.0,0.0
15793,61.0,0.0,30.0,7.0,0.0
15794,85.0,0.0,120.0,4.0,0.0
15795,64.0,30.0,30.0,7.0,0.0
15796,61.0,0.0,30.0,10.0,0.0
15797,68.0,0.0,30.0,5.0,0.0
15798,75.0,0.0,60.0,2.0,0.0
15799,78.0,30.0,60.0,1.0,0.0
15800,51.0,0.0,60.0,3.0,0.0
15801,69.0,0.0,30.0,7.0,0.0
15802,66.0,30.0,30.0,5.0,0.0
15803,63.0,0.0,30.0,10.0,0.0
15804,64.0,0.0,30.0,10.0,0.0
15805,64.0,0.0,30.0,5.0,0.0
15806,68.0,0.0,30.0,7.0,0.0
15807,66.0,0.0,30.0,10.0,0.0
15808,84.0,0.0,60.0,8.0,0.0
15809,66.0,0.0,30.0,7.0,0.0
15810,84.0,0.0,60.0,6.0,0.0
15811,84.0,0.0,60.0,0.0,0.0
15812,84.0,0.0,60.0,4.0,0.0
15813,63.0,30.0,30.0,5.0,0.0
15814,63.0,30.0,30.0,10.0,0.0
15815,68.0,0.0,30.0,5.0,0.0
15816,68.0,0.0,30.0,7.0,0.0
15817,61.0,30.0,30.0,5.0,0.0
15818,64.0,0.0,30.0,7.0,0.0
15819,85.0,0.0,60.0,0.0,0.0
15820,85.0,0.0,60.0,6.0,0.0
15821,85.0,0.0,60.0,4.0,0.0
15822,64.0,0.0,30.0,10.0,0.0
15823,85.0,30.0,60.0,8.0,0.0
15824,76.0,0.0,60.0,1.0,0.0
15825,52.0,0.0,60.0,3.0,0.0
15826,80.0,0.0,60.0,2.0,0.0
15827,61.0,0.0,30.0,7.0,0.0
15828,68.0,0.0,30.0,10.0,0.0
15829,64.0,0.0,30.0,5.0,0.0
15830,87.0,0.0,120.0,6.0,0.0
15831,87.0,0.0,120.0,0.0,0.0
15832,69.0,30.0,30.0,7.0,0.0
15833,87.0,0.0,120.0,4.0,0.0
15834,66.0,0.0,30.0,10.0,0.0
15835,87.0,0.0,120.0,8.0,0.0
15836,66.0,0.0,30.0,5.0,0.0
15837,64.0,0.0,30.0,10.0,0.0
15838,68.0,0.0,30.0,7.0,0.0
15839,68.0,30.0,30.0,5.0,0.0
15840,81.0,0.0,60.0,1.0,0.0
15841,66.0,30.0,30.0,7.0,0.0
15842,54.0,0.0,60.0,3.0,0.0
15843,63.0,0.0,30.0,10.0,0.0
15844,69.0,0.0,30.0,5.0,0.0
15845,78.0,0.0,60.0,2.0,0.0
15846,66.0,30.0,30.0,5.0,0.0
15847,69.0,0.0,30.0,7.0,0.0
15848,61.0,0.0,30.0,10.0,0.0
15849,88.0,0.0,120.0,6.0,0.0
15850,68.0,30.0,30.0,7.0,0.0
15851,60.0,0.0,30.0,10.0,0.0
15852,88.0,0.0,120.0,4.0,0.0
15853,88.0,0.0,120.0,0.0,0.0
15854,68.0,0.0,30.0,5.0,0.0
15855,88.0,0.0,120.0,8.0,0.0
15856,66.0,30.0,30.0,7.0,0.0
15857,58.0,0.0,30.0,10.0,0.0
15858,70.0,0.0,30.0,5.0,0.0
15859,80.0,0.0,60.0,1.0,0.0
15860,56.0,0.0,60.0,3.0,0.0
15861,72.0,30.0,30.0,5.0,0.0
15862,64.0,0.0,30.0,7.0,0.0
15863,72.0,30.0,60.0,2.0,0.0
15864,56.0,0.0,60.0,10.0,0.0
15865,68.0,0.0,30.0,5.0,0.0
15866,61.0,0.0,30.0,7.0,0.0
15867,87.0,0.0,30.0,0.0,0.0
15868,87.0,30.0,30.0,4.0,0.0
15869,76.0,0.0,60.0,1.0,0.0
15870,73.0,0.0,60.0,2.0,0.0
15871,69.0,0.0,60.0,7.0,0.0
15872,73.0,0.0,60.0,5.0,0.0
15873,87.0,0.0,30.0,8.0,0.0
15874,87.0,0.0,30.0,6.0,0.0
15875,57.0,0.0,60.0,10.0,0.0
15876,57.0,30.0,60.0,3.0,0.0
15877,85.0,0.0,30.0,6.0,0.0
15878,85.0,0.0,30.0,0.0,0.0
15879,85.0,0.0,30.0,4.0,0.0
15880,85.0,0.0,30.0,8.0,0.0
15881,88.0,0.0,30.0,8.0,0.0
15882,66.0,0.0,60.0,5.0,0.0
15883,66.0,0.0,60.0,7.0,0.0
15884,78.0,0.0,60.0,1.0,0.0
15885,69.0,0.0,60.0,2.0,0.0
15886,54.0,0.0,60.0,3.0,0.0
15887,88.0,0.0,30.0,6.0,0.0
15888,88.0,0.0,30.0,0.0,0.0
15889,88.0,30.0,30.0,4.0,0.0
15890,54.0,0.0,60.0,10.0,0.0
15891,87.0,0.0,30.0,0.0,0.0
15892,87.0,0.0,30.0,6.0,0.0
15893,87.0,30.0,30.0,4.0,0.0
15894,87.0,0.0,30.0,8.0,0.0
15895,85.0,0.0,30.0,8.0,0.0
15896,68.0,0.0,60.0,7.0,0.0
15897,68.0,0.0,60.0,5.0,0.0
15898,56.0,0.0,60.0,3.0,0.0
15899,75.0,0.0,60.0,1.0,0.0
15900,85.0,30.0,30.0,0.0,0.0
15901,85.0,0.0,30.0,6.0,0.0
15902,85.0,0.0,30.0,4.0,0.0
15903,68.0,30.0,60.0,2.0,0.0
15904,56.0,0.0,60.0,10.0,0.0
15905,84.0,0.0,30.0,4.0,0.0
15906,84.0,0.0,30.0,8.0,0.0
15907,84.0,0.0,30.0,0.0,0.0
15908,84.0,0.0,30.0,6.0,0.0
15909,49.0,0.0,120.0,3.0,0.0
15910,85.0,0.0,30.0,6.0,0.0
15911,61.0,0.0,120.0,5.0,0.0
15912,85.0,0.0,30.0,0.0,0.0
15913,85.0,0.0,30.0,8.0,0.0
15914,68.0,0.0,120.0,2.0,0.0
15915,76.0,0.0,120.0,1.0,0.0
15916,85.0,30.0,30.0,4.0,0.0
15917,49.0,0.0,120.0,10.0,0.0
15918,61.0,60.0,120.0,7.0,0.0
15919,80.0,30.0,30.0,0.0,0.0
15920,80.0,0.0,30.0,8.0,0.0
15921,80.0,0.0,30.0,4.0,0.0
15922,80.0,0.0,30.0,6.0,0.0
15923,76.0,0.0,30.0,6.0,0.0
15924,76.0,0.0,30.0,8.0,0.0
15925,76.0,0.0,30.0,4.0,0.0
15926,76.0,30.0,30.0,0.0,0.0
15927,80.0,0.0,30.0,6.0,0.0
15928,80.0,0.0,30.0,8.0,0.0
15929,80.0,0.0,30.0,0.0,0.0
15930,80.0,0.0,30.0,4.0,0.0
15931,73.0,30.0,60.0,4.0,0.0
15932,73.0,0.0,60.0,0.0,0.0
15933,73.0,0.0,60.0,8.0,0.0
15934,73.0,0.0,60.0,6.0,0.0
15935,56.0,0.0,30.0,10.0,0.0
15936,56.0,0.0,30.0,5.0,0.0
15937,56.0,0.0,30.0,7.0,0.0
15938,52.0,0.0,30.0,10.0,0.0
15939,52.0,30.0,30.0,5.0,0.0
15940,52.0,0.0,30.0,7.0,0.0
15941,56.0,0.0,30.0,5.0,0.0
15942,56.0,0.0,30.0,10.0,0.0
15943,56.0,30.0,30.0,7.0,0.0
15944,49.0,0.0,60.0,5.0,0.0
15945,49.0,30.0,60.0,10.0,0.0
15946,68.0,0.0,30.0,6.0,0.0
15947,49.0,30.0,30.0,7.0,0.0
15948,64.0,0.0,30.0,6.0,0.0
15949,56.0,0.0,30.0,7.0,0.0
15950,63.0,30.0,30.0,6.0,0.0
15951,54.0,0.0,30.0,7.0,0.0
15952,56.0,0.0,60.0,3.0,0.0
15953,61.0,30.0,30.0,6.0,0.0
15954,56.0,0.0,30.0,7.0,0.0
15955,61.0,0.0,180.0,3.0,0.0
15956,52.0,30.0,30.0,7.0,0.0
15957,68.0,0.0,30.0,6.0,0.0
15958,64.0,30.0,30.0,6.0,0.0
15959,56.0,0.0,30.0,7.0,0.0
15960,54.0,0.0,30.0,7.0,0.0
15961,63.0,30.0,30.0,6.0,0.0
15962,56.0,0.0,30.0,7.0,0.0
15963,61.0,30.0,30.0,6.0,0.0
15964,51.0,0.0,30.0,7.0,0.0
15965,69.0,30.0,30.0,6.0,0.0
15966,56.0,0.0,30.0,7.0,0.0
15967,66.0,30.0,30.0,6.0,0.0
15968,68.0,0.0,30.0,6.0,0.0
15969,60.0,0.0,60.0,3.0,0.0
15970,54.0,30.0,30.0,7.0,0.0
15971,63.0,30.0,30.0,6.0,0.0
15972,56.0,0.0,30.0,7.0,0.0
15973,64.0,30.0,30.0,6.0,0.0
15974,49.0,0.0,60.0,7.0,0.0
15975,61.0,30.0,60.0,3.0,0.0
15976,61.0,0.0,30.0,6.0,0.0
15977,64.0,30.0,30.0,6.0,0.0
15978,68.0,30.0,30.0,6.0,0.0
15979,50.0,30.0,30.0,7.0,0.0
15980,71.0,0.0,30.0,6.0,0.0
15981,59.0,0.0,30.0,7.0,0.0
15982,68.0,30.0,30.0,6.0,0.0
15983,62.0,0.0,120.0,3.0,0.0
15984,66.0,0.0,30.0,6.0,0.0
15985,57.0,30.0,30.0,7.0,0.0
15986,59.0,0.0,30.0,7.0,0.0
15987,65.0,30.0,30.0,6.0,0.0
15988,56.0,0.0,30.0,7.0,0.0
15989,71.0,30.0,30.0,6.0,0.0
15990,68.0,0.0,30.0,6.0,0.0
15991,59.0,30.0,30.0,7.0,0.0
15992,59.0,30.0,60.0,3.0,0.0
15993,57.0,30.0,30.0,7.0,0.0
15994,66.0,0.0,30.0,6.0,0.0
15995,59.0,0.0,30.0,7.0,0.0
15996,65.0,0.0,30.0,6.0,0.0
15997,53.0,0.0,30.0,7.0,0.0
15998,74.0,30.0,30.0,6.0,0.0
15999,56.0,0.0,60.0,3.0,0.0
16000,59.0,0.0,30.0,7.0,0.0
16001,71.0,30.0,30.0,6.0,0.0
16002,65.0,0.0,60.0,3.0,0.0
16003,57.0,30.0,30.0,7.0,0.0
16004,73.0,0.0,30.0,6.0,0.0
16005,68.0,0.0,30.0,6.0,0.0
16006,59.0,30.0,30.0,7.0,0.0
16007,69.0,30.0,30.0,6.0,0.0
16008,66.0,30.0,60.0,3.0,0.0
16009,54.0,0.0,60.0,7.0,0.0
16010,66.0,0.0,30.0,6.0,0.0
16011,69.0,30.0,30.0,6.0,0.0
16012,73.0,30.0,30.0,6.0,0.0
16013,78.0,0.0,30.0,6.0,0.0
16014,54.0,30.0,30.0,7.0,0.0
16015,69.0,0.0,30.0,6.0,0.0
16016,61.0,30.0,30.0,7.0,0.0
16017,59.0,30.0,30.0,7.0,0.0
16018,66.0,0.0,60.0,3.0,0.0
16019,67.0,0.0,30.0,6.0,0.0
16020,61.0,0.0,30.0,7.0,0.0
16021,66.0,30.0,30.0,6.0,0.0
16022,52.0,0.0,30.0,7.0,0.0
16023,69.0,0.0,60.0,3.0,0.0
16024,78.0,30.0,30.0,6.0,0.0
16025,69.0,30.0,30.0,6.0,0.0
16026,60.0,0.0,30.0,7.0,0.0
16027,67.0,30.0,30.0,6.0,0.0
16028,62.0,30.0,60.0,3.0,0.0
16029,59.0,0.0,30.0,7.0,0.0
16030,60.0,0.0,30.0,7.0,0.0
16031,66.0,0.0,30.0,6.0,0.0
16032,51.0,0.0,30.0,7.0,0.0
16033,78.0,30.0,30.0,6.0,0.0
16034,59.0,0.0,60.0,3.0,0.0
16035,69.0,0.0,30.0,6.0,0.0
16036,59.0,30.0,30.0,7.0,0.0
16037,71.0,0.0,30.0,6.0,0.0
16038,57.0,30.0,30.0,7.0,0.0
16039,63.0,0.0,60.0,3.0,0.0
16040,59.0,30.0,30.0,7.0,0.0
16041,66.0,0.0,30.0,6.0,0.0
16042,52.0,30.0,60.0,7.0,0.0
16043,67.0,30.0,30.0,6.0,0.0
16044,52.0,0.0,60.0,3.0,0.0
16045,64.0,0.0,30.0,6.0,0.0
16046,67.0,30.0,30.0,6.0,0.0
16047,71.0,30.0,30.0,6.0,0.0
16048,52.0,30.0,30.0,7.0,0.0
16049,76.0,0.0,30.0,6.0,0.0
16050,67.0,30.0,30.0,6.0,0.0
16051,59.0,0.0,30.0,7.0,0.0
16052,57.0,30.0,30.0,7.0,0.0
16053,66.0,0.0,30.0,6.0,0.0
16054,64.0,0.0,60.0,3.0,0.0
16055,59.0,30.0,30.0,7.0,0.0
16056,64.0,0.0,30.0,6.0,0.0
16057,50.0,30.0,30.0,7.0,0.0
16058,76.0,0.0,30.0,6.0,0.0
16059,67.0,30.0,60.0,3.0,0.0
16060,59.0,0.0,30.0,7.0,0.0
16061,67.0,0.0,30.0,6.0,0.0
16062,59.0,0.0,60.0,3.0,0.0
16063,66.0,0.0,30.0,6.0,0.0
16064,57.0,30.0,30.0,7.0,0.0
16065,64.0,30.0,30.0,6.0,0.0
16066,59.0,0.0,30.0,7.0,0.0
16067,76.0,0.0,30.0,6.0,0.0
16068,57.0,0.0,60.0,3.0,0.0
16069,49.0,30.0,30.0,7.0,0.0
16070,67.0,0.0,30.0,6.0,0.0
16071,57.0,30.0,30.0,7.0,0.0
16072,55.0,30.0,30.0,7.0,0.0
16073,69.0,0.0,30.0,6.0,0.0
16074,61.0,0.0,60.0,3.0,0.0
16075,64.0,30.0,30.0,6.0,0.0
16076,57.0,0.0,30.0,7.0,0.0
16077,50.0,30.0,60.0,7.0,0.0
16078,50.0,0.0,60.0,3.0,0.0
16079,66.0,30.0,30.0,6.0,0.0
16080,62.0,0.0,30.0,6.0,0.0
16081,66.0,30.0,30.0,6.0,0.0
16082,67.0,30.0,30.0,6.0,0.0
16083,69.0,30.0,30.0,6.0,0.0
16084,74.0,30.0,30.0,6.0,0.0
16085,54.0,0.0,30.0,7.0,0.0
16086,50.0,0.0,60.0,3.0,0.0
16087,52.0,0.0,30.0,7.0,0.0
16088,76.0,30.0,30.0,6.0,0.0
16089,50.0,0.0,30.0,7.0,0.0
16090,78.0,30.0,30.0,6.0,0.0
16091,71.0,30.0,30.0,6.0,0.0
16092,55.0,0.0,30.0,7.0,0.0
16093,43.0,30.0,60.0,3.0,0.0
16094,48.0,0.0,30.0,7.0,0.0
16095,66.0,0.0,30.0,6.0,0.0
16096,47.0,0.0,30.0,7.0,0.0
16097,67.0,30.0,30.0,6.0,0.0
16098,45.0,0.0,30.0,7.0,0.0
16099,69.0,30.0,30.0,6.0,0.0
16100,43.0,0.0,30.0,7.0,0.0
16101,71.0,30.0,30.0,6.0,0.0
16102,55.0,0.0,30.0,7.0,0.0
16103,76.0,30.0,30.0,6.0,0.0
16104,54.0,30.0,30.0,7.0,0.0
16105,78.0,0.0,30.0,6.0,0.0
16106,52.0,30.0,60.0,3.0,0.0
16107,52.0,0.0,30.0,7.0,0.0
16108,79.0,0.0,30.0,6.0,0.0
16109,57.0,30.0,30.0,7.0,0.0
16110,73.0,0.0,30.0,6.0,0.0
16111,45.0,30.0,60.0,3.0,0.0
16112,50.0,0.0,30.0,7.0,0.0
16113,68.0,0.0,30.0,6.0,0.0
16114,69.0,30.0,30.0,6.0,0.0
16115,49.0,0.0,30.0,7.0,0.0
16116,47.0,0.0,30.0,7.0,0.0
16117,71.0,30.0,30.0,6.0,0.0
16118,73.0,0.0,30.0,6.0,0.0
16119,45.0,30.0,30.0,7.0,0.0
16120,78.0,0.0,30.0,6.0,0.0
16121,57.0,30.0,30.0,7.0,0.0
16122,55.0,30.0,30.0,7.0,0.0
16123,66.0,30.0,60.0,3.0,0.0
16124,79.0,0.0,30.0,6.0,0.0
16125,81.0,0.0,30.0,6.0,0.0
16126,54.0,0.0,30.0,7.0,0.0
16127,71.0,30.0,30.0,6.0,0.0
16128,55.0,0.0,30.0,7.0,0.0
16129,55.0,30.0,60.0,3.0,0.0
16130,52.0,0.0,30.0,7.0,0.0
16131,76.0,0.0,30.0,6.0,0.0
16132,64.0,30.0,60.0,3.0,0.0
16133,78.0,0.0,30.0,6.0,0.0
16134,50.0,30.0,30.0,7.0,0.0
16135,79.0,0.0,30.0,6.0,0.0
16136,49.0,0.0,30.0,7.0,0.0
16137,54.0,30.0,30.0,7.0,0.0
16138,54.0,0.0,60.0,3.0,0.0
16139,69.0,0.0,30.0,6.0,0.0
16140,50.0,0.0,30.0,7.0,0.0
16141,74.0,30.0,30.0,6.0,0.0
16142,62.0,0.0,60.0,3.0,0.0
16143,49.0,30.0,30.0,7.0,0.0
16144,76.0,0.0,30.0,6.0,0.0
16145,47.0,30.0,30.0,7.0,0.0
16146,78.0,0.0,30.0,6.0,0.0
16147,52.0,0.0,30.0,7.0,0.0
16148,52.0,30.0,60.0,3.0,0.0
16149,67.0,30.0,30.0,6.0,0.0
16150,73.0,0.0,30.0,6.0,0.0
16151,49.0,0.0,30.0,7.0,0.0
16152,47.0,0.0,30.0,7.0,0.0
16153,61.0,0.0,60.0,3.0,0.0
16154,74.0,30.0,30.0,6.0,0.0
16155,76.0,30.0,30.0,6.0,0.0
16156,45.0,0.0,30.0,7.0,0.0
16157,50.0,30.0,30.0,7.0,0.0
16158,50.0,0.0,60.0,3.0,0.0
16159,66.0,0.0,30.0,6.0,0.0
16160,54.0,0.0,30.0,7.0,0.0
16161,81.0,30.0,30.0,6.0,0.0
16162,83.0,0.0,30.0,6.0,0.0
16163,56.0,30.0,30.0,7.0,0.0
16164,62.0,0.0,30.0,3.0,0.0
16165,85.0,0.0,30.0,6.0,0.0
16166,61.0,30.0,30.0,3.0,0.0
16167,57.0,0.0,30.0,7.0,0.0
16168,59.0,0.0,60.0,3.0,0.0
16169,86.0,30.0,30.0,6.0,0.0
16170,59.0,0.0,30.0,7.0,0.0
16171,80.0,30.0,30.0,6.0,0.0
16172,50.0,0.0,30.0,7.0,0.0
16173,49.0,0.0,30.0,7.0,0.0
16174,56.0,0.0,60.0,3.0,0.0
16175,81.0,30.0,30.0,6.0,0.0
16176,83.0,30.0,30.0,6.0,0.0
16177,47.0,0.0,30.0,7.0,0.0
16178,77.0,30.0,30.0,6.0,0.0
16179,49.0,0.0,60.0,7.0,0.0
16180,61.0,30.0,60.0,3.0,0.0
16181,80.0,0.0,30.0,6.0,0.0
16182,73.0,30.0,60.0,7.0,0.0
16183,81.0,30.0,30.0,6.0,0.0
16184,83.0,0.0,30.0,6.0,0.0
16185,77.0,30.0,30.0,6.0,0.0
16186,68.0,0.0,60.0,7.0,0.0
16187,49.0,0.0,60.0,3.0,0.0
16188,71.0,30.0,30.0,6.0,0.0
16189,73.0,30.0,30.0,6.0,0.0
16190,69.0,30.0,60.0,7.0,0.0
16191,74.0,0.0,30.0,6.0,0.0
16192,61.0,0.0,60.0,3.0,0.0
16193,68.0,30.0,60.0,7.0,0.0
16194,71.0,30.0,30.0,6.0,0.0
16195,77.0,0.0,30.0,6.0,0.0
16196,78.0,30.0,30.0,6.0,0.0
16197,66.0,30.0,60.0,7.0,0.0
16198,80.0,0.0,30.0,6.0,0.0
16199,49.0,0.0,60.0,3.0,0.0
16200,65.0,0.0,60.0,7.0,0.0
16201,71.0,30.0,30.0,6.0,0.0
16202,68.0,30.0,30.0,6.0,0.0
16203,63.0,30.0,60.0,7.0,0.0
16204,69.0,30.0,30.0,6.0,0.0
16205,71.0,0.0,30.0,6.0,0.0
16206,65.0,0.0,60.0,7.0,0.0
16207,68.0,30.0,30.0,6.0,0.0
16208,61.0,0.0,60.0,3.0,0.0
16209,71.0,30.0,30.0,6.0,0.0
16210,61.0,30.0,60.0,7.0,0.0
16211,73.0,30.0,30.0,6.0,0.0
16212,74.0,0.0,30.0,6.0,0.0
16213,49.0,30.0,60.0,3.0,0.0
16214,68.0,30.0,30.0,6.0,0.0
16215,59.0,0.0,60.0,7.0,0.0
16216,65.0,0.0,30.0,6.0,0.0
16217,57.0,0.0,60.0,7.0,0.0
16218,66.0,30.0,30.0,6.0,0.0
16219,68.0,30.0,30.0,6.0,0.0
16220,56.0,30.0,60.0,7.0,0.0
16221,65.0,30.0,30.0,6.0,0.0
16222,86.0,0.0,30.0,6.0,0.0
16223,44.0,0.0,60.0,3.0,0.0
16224,85.0,30.0,30.0,6.0,0.0
16225,65.0,30.0,60.0,7.0,0.0
16226,83.0,0.0,30.0,6.0,0.0
16227,81.0,30.0,30.0,6.0,0.0
16228,45.0,30.0,60.0,3.0,0.0
16229,66.0,0.0,30.0,7.0,0.0
16230,68.0,0.0,30.0,7.0,0.0
16231,80.0,0.0,30.0,6.0,0.0
16232,47.0,0.0,60.0,3.0,0.0
16233,78.0,30.0,30.0,6.0,0.0
16234,69.0,0.0,30.0,7.0,0.0
16235,71.0,0.0,30.0,7.0,0.0
16236,80.0,30.0,30.0,6.0,0.0
16237,69.0,0.0,30.0,7.0,0.0
16238,73.0,30.0,30.0,6.0,0.0
16239,49.0,30.0,60.0,3.0,0.0
16240,78.0,0.0,30.0,6.0,0.0
16241,66.0,0.0,30.0,7.0,0.0
16242,61.0,0.0,60.0,3.0,0.0
16243,80.0,0.0,30.0,6.0,0.0
16244,73.0,30.0,30.0,7.0,0.0
16245,71.0,0.0,30.0,7.0,0.0
16246,77.0,30.0,30.0,6.0,0.0
16247,62.0,0.0,60.0,3.0,0.0
16248,69.0,0.0,30.0,7.0,0.0
16249,78.0,30.0,30.0,6.0,0.0
16250,65.0,0.0,30.0,7.0,0.0
16251,81.0,30.0,30.0,6.0,0.0
16252,63.0,0.0,60.0,3.0,0.0
16253,66.0,0.0,90.0,7.0,0.0
16254,72.0,30.0,30.0,6.0,0.0
16255,73.0,30.0,30.0,6.0,0.0
16256,64.0,0.0,60.0,3.0,0.0
16257,80.0,30.0,30.0,6.0,0.0
16258,83.0,0.0,30.0,6.0,0.0
16259,65.0,30.0,30.0,7.0,0.0
16260,65.0,30.0,60.0,3.0,0.0
16261,72.0,30.0,30.0,6.0,0.0
16262,68.0,0.0,90.0,7.0,0.0
16263,73.0,0.0,30.0,6.0,0.0
16264,81.0,30.0,30.0,6.0,0.0
16265,66.0,0.0,60.0,3.0,0.0
16266,85.0,0.0,30.0,6.0,0.0
16267,66.0,30.0,30.0,7.0,0.0
16268,77.0,30.0,30.0,6.0,0.0
16269,74.0,0.0,90.0,7.0,0.0
16270,54.0,30.0,60.0,3.0,0.0
16271,78.0,0.0,30.0,6.0,0.0
16272,55.0,0.0,60.0,3.0,0.0
16273,83.0,30.0,30.0,6.0,0.0
16274,70.0,0.0,30.0,7.0,0.0
16275,86.0,30.0,30.0,6.0,0.0
16276,77.0,30.0,30.0,6.0,0.0
16277,56.0,30.0,60.0,3.0,0.0
16278,71.0,30.0,90.0,7.0,0.0
16279,78.0,0.0,30.0,6.0,0.0
16280,85.0,0.0,30.0,6.0,0.0
16281,57.0,0.0,60.0,3.0,0.0
16282,70.0,30.0,30.0,7.0,0.0
16283,88.0,0.0,30.0,6.0,0.0
16284,77.0,30.0,30.0,6.0,0.0
16285,58.0,15.0,60.0,3.0,0.0
16286,73.0,15.0,90.0,7.0,0.0
16287,78.0,0.0,30.0,6.0,0.0
16288,59.0,0.0,60.0,3.0,0.0
16289,86.0,15.0,15.0,6.0,0.0
16290,88.0,0.0,15.0,6.0,0.0
16291,86.0,15.0,15.0,6.0,0.0
16292,66.0,10.0,30.0,7.0,0.0
16293,88.0,0.0,15.0,6.0,0.0
16294,47.0,0.0,60.0,3.0,0.0
16295,68.0,0.0,30.0,7.0,0.0
16296,86.0,10.0,15.0,6.0,0.0
16297,88.0,10.0,15.0,6.0,0.0
16298,86.0,10.0,15.0,6.0,0.0
16299,88.0,10.0,15.0,6.0,0.0
16300,69.0,10.0,30.0,7.0,0.0
16301,86.0,10.0,15.0,6.0,0.0
16302,88.0,0.0,15.0,6.0,0.0
16303,86.0,10.0,15.0,6.0,0.0
16304,44.0,0.0,60.0,3.0,0.0
16305,71.0,10.0,30.0,7.0,0.0
16306,88.0,10.0,15.0,6.0,0.0
16307,86.0,0.0,15.0,6.0,0.0
16308,74.0,10.0,30.0,7.0,0.0
16309,88.0,10.0,15.0,6.0,0.0
16310,86.0,10.0,15.0,6.0,0.0
16311,88.0,0.0,15.0,6.0,0.0
16312,86.0,10.0,15.0,6.0,0.0
16313,47.0,1.0,60.0,3.0,0.0
16314,68.0,0.0,30.0,7.0,0.0
16315,88.0,10.0,15.0,6.0,0.0
16316,86.0,10.0,15.0,6.0,0.0
16317,88.0,10.0,15.0,6.0,0.0
16318,71.0,0.0,30.0,7.0,0.0
16319,86.0,10.0,15.0,6.0,0.0
16320,88.0,29.0,15.0,6.0,0.0
16321,49.0,4.0,1500.0,3.0,0.0
16322,65.0,0.0,30.0,7.0,0.0
16323,86.0,30.0,30.0,6.0,0.0
16324,74.0,5.0,30.0,7.0,0.0
16325,83.0,25.0,30.0,6.0,0.0
16326,73.0,5.0,30.0,7.0,0.0
16327,81.0,25.0,30.0,6.0,0.0
16328,71.0,5.0,30.0,7.0,0.0
16329,80.0,25.0,30.0,6.0,0.0
16330,69.0,5.0,30.0,7.0,0.0
16331,85.0,25.0,30.0,6.0,0.0
16332,73.0,5.0,30.0,7.0,0.0
16333,81.0,25.0,30.0,6.0,0.0
16334,71.0,5.0,30.0,7.0,0.0
16335,77.0,25.0,30.0,6.0,0.0
16336,69.0,5.0,30.0,7.0,0.0
16337,78.0,25.0,30.0,6.0,0.0
16338,68.0,5.0,30.0,7.0,0.0
16339,83.0,25.0,30.0,6.0,0.0
16340,71.0,5.0,30.0,7.0,0.0
16341,80.0,25.0,30.0,6.0,0.0
16342,69.0,5.0,30.0,7.0,0.0
16343,78.0,25.0,30.0,6.0,0.0
16344,68.0,5.0,30.0,7.0,0.0
16345,77.0,25.0,30.0,6.0,0.0
16346,66.0,5.0,30.0,7.0,0.0
16347,81.0,25.0,30.0,6.0,0.0
16348,69.0,5.0,30.0,7.0,0.0
16349,78.0,25.0,30.0,6.0,0.0
16350,68.0,5.0,30.0,7.0,0.0
16351,73.0,25.0,30.0,6.0,0.0
16352,66.0,5.0,30.0,7.0,0.0
16353,74.0,25.0,30.0,6.0,0.0
16354,64.0,5.0,30.0,7.0,0.0
16355,79.0,25.0,30.0,6.0,0.0
16356,67.0,5.0,30.0,7.0,0.0
16357,76.0,25.0,30.0,6.0,0.0
16358,66.0,5.0,30.0,7.0,0.0
16359,74.0,25.0,30.0,6.0,0.0
16360,64.0,5.0,30.0,7.0,0.0
16361,73.0,25.0,30.0,6.0,0.0
16362,62.0,5.0,30.0,7.0,0.0
16363,78.0,25.0,30.0,6.0,0.0
16364,66.0,5.0,30.0,7.0,0.0
16365,74.0,25.0,30.0,6.0,0.0
16366,64.0,5.0,30.0,7.0,0.0
16367,70.0,25.0,30.0,6.0,0.0
16368,62.0,5.0,30.0,7.0,0.0
16369,71.0,30.0,30.0,6.0,0.0
16370,61.0,5.0,60.0,7.0,0.0
16371,77.0,25.0,30.0,6.0,0.0
16372,74.0,30.0,30.0,6.0,0.0
16373,68.0,5.0,60.0,7.0,0.0
16374,70.0,25.0,30.0,6.0,0.0
16375,71.0,30.0,30.0,6.0,0.0
16376,69.0,5.0,60.0,7.0,0.0
16377,78.0,25.0,30.0,6.0,0.0
16378,75.0,30.0,30.0,6.0,0.0
16379,63.0,5.0,60.0,7.0,0.0
16380,72.0,25.0,30.0,6.0,0.0
16381,73.0,30.0,30.0,6.0,0.0
16382,65.0,5.0,60.0,7.0,0.0
16383,80.0,25.0,30.0,6.0,0.0
16384,77.0,30.0,30.0,6.0,0.0
16385,68.0,5.0,60.0,7.0,0.0
16386,74.0,25.0,30.0,6.0,0.0
16387,73.0,30.0,30.0,6.0,0.0
16388,66.0,5.0,60.0,7.0,0.0
16389,71.0,25.0,30.0,6.0,0.0
16390,74.0,30.0,30.0,6.0,0.0
16391,65.0,5.0,60.0,7.0,0.0
16392,73.0,25.0,30.0,6.0,0.0
16393,71.0,30.0,30.0,6.0,0.0
16394,66.0,5.0,60.0,7.0,0.0
16395,69.0,25.0,30.0,6.0,0.0
16396,73.0,30.0,30.0,6.0,0.0
16397,69.0,5.0,60.0,7.0,0.0
16398,78.0,25.0,30.0,6.0,0.0
16399,81.0,30.0,30.0,6.0,0.0
16400,63.0,5.0,60.0,7.0,0.0
16401,80.0,25.0,30.0,6.0,0.0
16402,78.0,30.0,30.0,6.0,0.0
16403,66.0,5.0,60.0,7.0,0.0
16404,84.0,25.0,30.0,6.0,0.0
16405,85.0,30.0,30.0,6.0,0.0
16406,68.0,1.0,60.0,7.0,0.0
16407,77.0,25.0,30.0,6.0,0.0
16408,80.0,30.0,30.0,6.0,0.0
16409,56.0,5.0,60.0,3.0,0.0
16410,65.0,0.0,60.0,7.0,0.0
16411,83.0,25.0,30.0,6.0,0.0
16412,86.0,30.0,30.0,6.0,0.0
16413,68.0,5.0,60.0,7.0,0.0
16414,53.0,0.0,60.0,3.0,0.0
16415,85.0,25.0,30.0,6.0,0.0
16416,83.0,30.0,30.0,6.0,0.0
16417,49.0,0.0,60.0,3.0,0.0
16418,73.0,5.0,60.0,7.0,0.0
16419,89.0,25.0,30.0,6.0,0.0
16420,90.0,25.0,30.0,6.0,0.0
16421,73.0,0.0,60.0,4.0,0.0
16422,81.0,0.0,60.0,6.0,0.0
16423,54.0,0.0,60.0,3.0,0.0
16424,66.0,0.0,60.0,7.0,0.0
16425,73.0,30.0,60.0,0.0,0.0
16426,61.0,30.0,30.0,5.0,0.0
16427,66.0,0.0,30.0,5.0,0.0
16428,68.0,30.0,30.0,5.0,0.0
16429,78.0,0.0,120.0,4.0,0.0
16430,78.0,0.0,120.0,0.0,0.0
16431,69.0,30.0,30.0,5.0,0.0
16432,80.0,0.0,60.0,6.0,0.0
16433,56.0,30.0,60.0,3.0,0.0
16434,61.0,30.0,30.0,5.0,0.0
16435,71.0,0.0,60.0,7.0,0.0
16436,68.0,0.0,30.0,5.0,0.0
16437,77.0,0.0,60.0,0.0,0.0
16438,69.0,30.0,30.0,5.0,0.0
16439,77.0,0.0,60.0,4.0,0.0
16440,71.0,30.0,30.0,5.0,0.0
16441,73.0,0.0,60.0,6.0,0.0
16442,78.0,0.0,60.0,4.0,0.0
16443,61.0,0.0,30.0,7.0,0.0
16444,61.0,30.0,30.0,5.0,0.0
16445,57.0,0.0,60.0,3.0,0.0
16446,73.0,0.0,60.0,1.0,0.0
16447,78.0,30.0,60.0,0.0,0.0
16448,69.0,0.0,30.0,5.0,0.0
16449,66.0,0.0,30.0,7.0,0.0
16450,68.0,30.0,30.0,7.0,0.0
16451,78.0,0.0,120.0,1.0,0.0
16452,78.0,0.0,120.0,6.0,0.0
16453,71.0,0.0,30.0,5.0,0.0
16454,73.0,0.0,30.0,5.0,0.0
16455,69.0,30.0,30.0,7.0,0.0
16456,80.0,0.0,60.0,0.0,0.0
16457,80.0,0.0,60.0,4.0,0.0
16458,59.0,0.0,60.0,3.0,0.0
16459,61.0,0.0,30.0,7.0,0.0
16460,61.0,30.0,30.0,5.0,0.0
16461,71.0,0.0,30.0,5.0,0.0
16462,68.0,30.0,30.0,7.0,0.0
16463,77.0,0.0,60.0,6.0,0.0
16464,77.0,30.0,60.0,1.0,0.0
16465,73.0,0.0,30.0,5.0,0.0
16466,69.0,30.0,30.0,7.0,0.0
16467,74.0,0.0,30.0,5.0,0.0
16468,71.0,0.0,30.0,7.0,0.0
16469,78.0,0.0,60.0,1.0,0.0
16470,61.0,0.0,30.0,7.0,0.0
16471,81.0,0.0,60.0,4.0,0.0
16472,61.0,30.0,30.0,5.0,0.0
16473,81.0,30.0,60.0,0.0,0.0
16474,66.0,0.0,60.0,3.0,0.0
16475,78.0,0.0,60.0,6.0,0.0
16476,69.0,0.0,30.0,7.0,0.0
16477,73.0,0.0,30.0,5.0,0.0
16478,80.0,0.0,30.0,4.0,0.0
16479,80.0,30.0,30.0,0.0,0.0
16480,71.0,0.0,30.0,5.0,0.0
16481,71.0,0.0,30.0,7.0,0.0
16482,78.0,0.0,30.0,4.0,0.0
16483,69.0,0.0,30.0,5.0,0.0
16484,78.0,0.0,30.0,0.0,0.0
16485,73.0,30.0,30.0,7.0,0.0
16486,77.0,0.0,30.0,4.0,0.0
16487,61.0,0.0,30.0,5.0,0.0
16488,77.0,0.0,30.0,0.0,0.0
16489,80.0,0.0,60.0,1.0,0.0
16490,80.0,0.0,60.0,6.0,0.0
16491,61.0,0.0,60.0,3.0,0.0
16492,61.0,30.0,30.0,7.0,0.0
16493,80.0,0.0,30.0,4.0,0.0
16494,71.0,30.0,30.0,5.0,0.0
16495,71.0,0.0,30.0,7.0,0.0
16496,80.0,0.0,30.0,0.0,0.0
16497,73.0,0.0,30.0,7.0,0.0
16498,78.0,0.0,30.0,0.0,0.0
16499,69.0,0.0,30.0,5.0,0.0
16500,78.0,30.0,30.0,4.0,0.0
16501,68.0,0.0,30.0,5.0,0.0
16502,77.0,0.0,30.0,0.0,0.0
16503,74.0,30.0,30.0,7.0,0.0
16504,77.0,0.0,30.0,4.0,0.0
16505,78.0,30.0,60.0,0.0,0.0
16506,57.0,0.0,60.0,3.0,0.0
16507,66.0,30.0,30.0,5.0,0.0
16508,81.0,0.0,60.0,6.0,0.0
16509,81.0,0.0,60.0,1.0,0.0
16510,61.0,0.0,30.0,7.0,0.0
16511,78.0,0.0,60.0,4.0,0.0
16512,73.0,0.0,30.0,7.0,0.0
16513,75.0,0.0,30.0,5.0,0.0
16514,71.0,30.0,30.0,7.0,0.0
16515,77.0,0.0,30.0,5.0,0.0
16516,80.0,0.0,30.0,6.0,0.0
16517,85.0,0.0,120.0,4.0,0.0
16518,80.0,0.0,30.0,1.0,0.0
16519,85.0,0.0,120.0,0.0,0.0
16520,78.0,0.0,30.0,6.0,0.0
16521,78.0,30.0,30.0,5.0,0.0
16522,78.0,0.0,30.0,1.0,0.0
16523,69.0,0.0,30.0,7.0,0.0
16524,61.0,0.0,30.0,7.0,0.0
16525,61.0,0.0,60.0,3.0,0.0
16526,77.0,0.0,30.0,1.0,0.0
16527,73.0,0.0,30.0,5.0,0.0
16528,77.0,30.0,30.0,6.0,0.0
16529,77.0,0.0,30.0,5.0,0.0
16530,80.0,0.0,30.0,1.0,0.0
16531,80.0,30.0,30.0,6.0,0.0
16532,71.0,0.0,30.0,7.0,0.0
16533,78.0,30.0,30.0,1.0,0.0
16534,83.0,0.0,60.0,0.0,0.0
16535,78.0,0.0,30.0,5.0,0.0
16536,78.0,0.0,30.0,6.0,0.0
16537,69.0,0.0,30.0,7.0,0.0
16538,83.0,0.0,60.0,4.0,0.0
16539,80.0,30.0,30.0,5.0,0.0
16540,68.0,0.0,30.0,7.0,0.0
16541,77.0,0.0,30.0,6.0,0.0
16542,77.0,0.0,30.0,1.0,0.0
16543,81.0,0.0,60.0,4.0,0.0
16544,78.0,0.0,60.0,1.0,0.0
16545,66.0,30.0,30.0,7.0,0.0
16546,54.0,30.0,60.0,3.0,0.0
16547,78.0,0.0,60.0,6.0,0.0
16548,81.0,0.0,60.0,0.0,0.0
16549,78.0,0.0,30.0,5.0,0.0
16550,73.0,0.0,30.0,5.0,0.0
16551,75.0,0.0,30.0,7.0,0.0
16552,71.0,30.0,30.0,5.0,0.0
16553,77.0,0.0,30.0,7.0,0.0
16554,85.0,0.0,120.0,1.0,0.0
16555,85.0,0.0,120.0,6.0,0.0
16556,69.0,30.0,30.0,5.0,0.0
16557,78.0,0.0,30.0,7.0,0.0
16558,49.0,0.0,60.0,3.0,0.0
16559,80.0,30.0,60.0,4.0,0.0
16560,73.0,0.0,30.0,7.0,0.0
16561,77.0,30.0,30.0,5.0,0.0
16562,80.0,0.0,60.0,0.0,0.0
16563,77.0,0.0,30.0,7.0,0.0
16564,71.0,0.0,30.0,5.0,0.0
16565,69.0,30.0,30.0,5.0,0.0
16566,83.0,0.0,60.0,1.0,0.0
16567,78.0,0.0,30.0,7.0,0.0
16568,83.0,0.0,60.0,6.0,0.0
16569,68.0,30.0,30.0,5.0,0.0
16570,80.0,0.0,30.0,7.0,0.0
16571,78.0,30.0,60.0,4.0,0.0
16572,42.0,0.0,60.0,3.0,0.0
16573,81.0,0.0,60.0,1.0,0.0
16574,81.0,0.0,60.0,6.0,0.0
16575,78.0,0.0,30.0,7.0,0.0
16576,69.0,30.0,30.0,5.0,0.0
16577,78.0,0.0,60.0,0.0,0.0
16578,66.0,0.0,30.0,5.0,0.0
16579,73.0,0.0,30.0,7.0,0.0
16580,68.0,30.0,30.0,5.0,0.0
16581,71.0,0.0,30.0,7.0,0.0
16582,86.0,0.0,120.0,0.0,0.0
16583,86.0,0.0,120.0,4.0,0.0
16584,54.0,30.0,60.0,3.0,0.0
16585,69.0,0.0,30.0,5.0,0.0
16586,69.0,0.0,30.0,7.0,0.0
16587,71.0,30.0,30.0,5.0,0.0
16588,56.0,30.0,60.0,3.0,0.0
16589,80.0,0.0,60.0,6.0,0.0
16590,76.0,0.0,30.0,7.0,0.0
16591,80.0,0.0,60.0,1.0,0.0
16592,71.0,0.0,30.0,7.0,0.0
16593,68.0,0.0,30.0,5.0,0.0
16594,85.0,0.0,60.0,0.0,0.0
16595,85.0,0.0,60.0,4.0,0.0
16596,73.0,0.0,30.0,7.0,0.0
16597,57.0,0.0,60.0,3.0,0.0
16598,64.0,30.0,30.0,5.0,0.0
16599,76.0,0.0,30.0,5.0,0.0
16600,69.0,30.0,30.0,7.0,0.0
16601,83.0,0.0,60.0,4.0,0.0
16602,78.0,0.0,60.0,1.0,0.0
16603,78.0,0.0,60.0,6.0,0.0
16604,83.0,0.0,60.0,0.0,0.0
16605,74.0,30.0,30.0,5.0,0.0
16606,50.0,0.0,60.0,3.0,0.0
16607,74.0,0.0,30.0,7.0,0.0
16608,71.0,0.0,30.0,7.0,0.0
16609,78.0,30.0,30.0,5.0,0.0
16610,81.0,0.0,30.0,0.0,0.0
16611,81.0,30.0,30.0,4.0,0.0
16612,86.0,30.0,120.0,1.0,0.0
16613,74.0,0.0,30.0,5.0,0.0
16614,78.0,0.0,30.0,7.0,0.0
16615,47.0,0.0,60.0,3.0,0.0
16616,86.0,0.0,120.0,6.0,0.0
16617,80.0,30.0,30.0,4.0,0.0
16618,74.0,0.0,30.0,7.0,0.0
16619,80.0,0.0,30.0,0.0,0.0
16620,71.0,0.0,30.0,5.0,0.0
16621,49.0,0.0,60.0,3.0,0.0
16622,64.0,0.0,60.0,5.0,0.0
16623,81.0,0.0,30.0,0.0,0.0
16624,81.0,0.0,30.0,4.0,0.0
16625,81.0,30.0,30.0,7.0,0.0
16626,69.0,0.0,30.0,7.0,0.0
16627,85.0,0.0,30.0,4.0,0.0
16628,85.0,0.0,30.0,0.0,0.0
16629,85.0,0.0,60.0,1.0,0.0
16630,83.0,0.0,30.0,0.0,0.0
16631,50.0,0.0,60.0,3.0,0.0
16632,85.0,30.0,60.0,6.0,0.0
16633,83.0,30.0,30.0,4.0,0.0
16634,74.0,0.0,90.0,7.0,0.0
16635,66.0,0.0,60.0,5.0,0.0
16636,81.0,0.0,30.0,0.0,0.0
16637,81.0,0.0,30.0,4.0,0.0
16638,83.0,0.0,30.0,6.0,0.0
16639,80.0,0.0,30.0,4.0,0.0
16640,59.0,0.0,60.0,5.0,0.0
16641,80.0,30.0,30.0,0.0,0.0
16642,83.0,0.0,30.0,1.0,0.0
16643,52.0,30.0,60.0,3.0,0.0
16644,81.0,0.0,30.0,6.0,0.0
16645,78.0,0.0,30.0,4.0,0.0
16646,73.0,0.0,30.0,7.0,0.0
16647,78.0,0.0,30.0,0.0,0.0
16648,81.0,0.0,30.0,1.0,0.0
16649,71.0,0.0,90.0,7.0,0.0
16650,80.0,0.0,30.0,1.0,0.0
16651,76.0,0.0,60.0,0.0,0.0
16652,61.0,0.0,30.0,5.0,0.0
16653,80.0,0.0,30.0,6.0,0.0
16654,76.0,0.0,30.0,4.0,0.0
16655,64.0,30.0,30.0,3.0,0.0
16656,62.0,0.0,30.0,3.0,0.0
16657,78.0,0.0,30.0,4.0,0.0
16658,62.0,0.0,30.0,5.0,0.0
16659,78.0,30.0,30.0,6.0,0.0
16660,78.0,0.0,30.0,1.0,0.0
16661,61.0,0.0,30.0,3.0,0.0
16662,64.0,0.0,30.0,5.0,0.0
16663,80.0,0.0,30.0,4.0,0.0
16664,76.0,0.0,60.0,1.0,0.0
16665,76.0,30.0,30.0,6.0,0.0
16666,78.0,0.0,30.0,6.0,0.0
16667,81.0,0.0,30.0,4.0,0.0
16668,62.0,30.0,30.0,5.0,0.0
16669,64.0,0.0,30.0,7.0,0.0
16670,59.0,0.0,30.0,3.0,0.0
16671,61.0,0.0,30.0,5.0,0.0
16672,57.0,0.0,30.0,3.0,0.0
16673,83.0,30.0,60.0,4.0,0.0
16674,66.0,30.0,30.0,7.0,0.0
16675,74.0,0.0,30.0,6.0,0.0
16676,59.0,0.0,30.0,5.0,0.0
16677,68.0,0.0,30.0,7.0,0.0
16678,76.0,0.0,30.0,6.0,0.0
16679,56.0,0.0,30.0,3.0,0.0
16680,61.0,30.0,30.0,5.0,0.0
16681,76.0,0.0,60.0,0.0,0.0
16682,57.0,0.0,60.0,3.0,0.0
16683,73.0,0.0,60.0,2.0,0.0
16684,69.0,0.0,30.0,7.0,0.0
16685,76.0,0.0,60.0,1.0,0.0
16686,64.0,0.0,30.0,10.0,0.0
16687,73.0,0.0,30.0,6.0,0.0
16688,76.0,30.0,60.0,4.0,0.0
16689,76.0,0.0,60.0,8.0,0.0
16690,76.0,0.0,30.0,6.0,0.0
16691,62.0,0.0,30.0,10.0,0.0
16692,71.0,0.0,30.0,7.0,0.0
16693,59.0,0.0,30.0,5.0,0.0
16694,73.0,0.0,30.0,7.0,0.0
16695,61.0,30.0,30.0,10.0,0.0
16696,81.0,0.0,120.0,8.0,0.0
16697,57.0,0.0,30.0,5.0,0.0
16698,81.0,0.0,120.0,4.0,0.0
16699,81.0,0.0,120.0,6.0,0.0
16700,81.0,0.0,120.0,0.0,0.0
16701,61.0,0.0,30.0,5.0,0.0
16702,64.0,0.0,30.0,10.0,0.0
16703,69.0,30.0,30.0,7.0,0.0
16704,74.0,0.0,60.0,1.0,0.0
16705,71.0,0.0,30.0,7.0,0.0
16706,71.0,0.0,60.0,2.0,0.0
16707,62.0,0.0,30.0,10.0,0.0
16708,59.0,0.0,60.0,3.0,0.0
16709,66.0,30.0,30.0,5.0,0.0
16710,61.0,0.0,30.0,10.0,0.0
16711,64.0,0.0,30.0,5.0,0.0
16712,73.0,30.0,30.0,7.0,0.0
16713,74.0,0.0,30.0,7.0,0.0
16714,80.0,0.0,60.0,6.0,0.0
16715,80.0,0.0,60.0,0.0,0.0
16716,62.0,0.0,30.0,5.0,0.0
16717,80.0,0.0,60.0,8.0,0.0
16718,80.0,0.0,60.0,4.0,0.0
16719,59.0,30.0,30.0,10.0,0.0
16720,64.0,0.0,30.0,10.0,0.0
16721,64.0,30.0,30.0,5.0,0.0
16722,71.0,0.0,30.0,7.0,0.0
16723,61.0,30.0,30.0,5.0,0.0
16724,73.0,0.0,60.0,1.0,0.0
16725,81.0,0.0,60.0,4.0,0.0
16726,81.0,0.0,60.0,0.0,0.0
16727,61.0,0.0,60.0,3.0,0.0
16728,81.0,0.0,60.0,6.0,0.0
16729,57.0,0.0,30.0,10.0,0.0
16730,73.0,0.0,30.0,7.0,0.0
16731,76.0,0.0,60.0,2.0,0.0
16732,81.0,30.0,60.0,8.0,0.0
16733,76.0,0.0,30.0,7.0,0.0
16734,57.0,0.0,30.0,5.0,0.0
16735,61.0,0.0,30.0,10.0,0.0
16736,62.0,0.0,30.0,10.0,0.0
16737,83.0,0.0,120.0,8.0,0.0
16738,83.0,0.0,120.0,0.0,0.0
16739,66.0,0.0,30.0,5.0,0.0
16740,83.0,0.0,120.0,6.0,0.0
16741,83.0,0.0,120.0,4.0,0.0
16742,74.0,30.0,30.0,7.0,0.0
16743,64.0,0.0,30.0,10.0,0.0
16744,64.0,30.0,30.0,5.0,0.0
16745,73.0,0.0,30.0,7.0,0.0
16746,71.0,30.0,30.0,7.0,0.0
16747,62.0,0.0,30.0,5.0,0.0
16748,66.0,0.0,30.0,10.0,0.0
16749,78.0,0.0,60.0,1.0,0.0
16750,74.0,0.0,60.0,2.0,0.0
16751,62.0,30.0,60.0,3.0,0.0
16752,62.0,0.0,30.0,10.0,0.0
16753,66.0,0.0,30.0,5.0,0.0
16754,69.0,0.0,30.0,7.0,0.0
16755,85.0,0.0,120.0,4.0,0.0
16756,85.0,0.0,120.0,0.0,0.0
16757,85.0,0.0,120.0,6.0,0.0
16758,68.0,30.0,30.0,7.0,0.0
16759,64.0,0.0,30.0,10.0,0.0
16760,64.0,0.0,30.0,5.0,0.0
16761,85.0,0.0,120.0,8.0,0.0
16762,62.0,0.0,30.0,5.0,0.0
16763,66.0,0.0,30.0,7.0,0.0
16764,66.0,30.0,30.0,10.0,0.0
16765,68.0,30.0,30.0,10.0,0.0
16766,76.0,0.0,60.0,1.0,0.0
16767,68.0,0.0,60.0,2.0,0.0
16768,64.0,0.0,60.0,3.0,0.0
16769,61.0,0.0,30.0,5.0,0.0
16770,64.0,0.0,60.0,7.0,0.0
16771,57.0,30.0,30.0,5.0,0.0
16772,64.0,0.0,30.0,10.0,0.0
16773,83.0,0.0,30.0,0.0,0.0
16774,83.0,0.0,30.0,6.0,0.0
16775,69.0,0.0,60.0,2.0,0.0
16776,83.0,30.0,30.0,8.0,0.0
16777,66.0,0.0,60.0,5.0,0.0
16778,69.0,0.0,60.0,10.0,0.0
16779,83.0,0.0,30.0,4.0,0.0
16780,66.0,0.0,60.0,7.0,0.0
16781,73.0,0.0,60.0,1.0,0.0
16782,66.0,0.0,60.0,3.0,0.0
16783,81.0,0.0,30.0,0.0,0.0
16784,81.0,0.0,30.0,8.0,0.0
16785,81.0,30.0,30.0,6.0,0.0
16786,81.0,0.0,30.0,4.0,0.0
16787,62.0,0.0,60.0,5.0,0.0
16788,62.0,0.0,60.0,10.0,0.0
16789,85.0,0.0,30.0,8.0,0.0
16790,74.0,0.0,60.0,1.0,0.0
16791,62.0,0.0,60.0,7.0,0.0
16792,85.0,0.0,30.0,4.0,0.0
16793,66.0,0.0,60.0,2.0,0.0
16794,62.0,0.0,60.0,3.0,0.0
16795,85.0,30.0,30.0,0.0,0.0
16796,85.0,0.0,30.0,6.0,0.0
16797,83.0,0.0,30.0,4.0,0.0
16798,83.0,0.0,30.0,0.0,0.0
16799,83.0,30.0,30.0,6.0,0.0
16800,83.0,0.0,30.0,8.0,0.0
16801,64.0,0.0,60.0,10.0,0.0
16802,71.0,0.0,60.0,1.0,0.0
16803,64.0,0.0,60.0,3.0,0.0
16804,81.0,0.0,30.0,4.0,0.0
16805,81.0,30.0,30.0,8.0,0.0
16806,64.0,0.0,60.0,7.0,0.0
16807,81.0,0.0,30.0,6.0,0.0
16808,64.0,0.0,60.0,2.0,0.0
16809,81.0,0.0,30.0,0.0,0.0
16810,64.0,0.0,60.0,5.0,0.0
16811,80.0,0.0,30.0,6.0,0.0
16812,80.0,0.0,30.0,0.0,0.0
16813,80.0,0.0,30.0,8.0,0.0
16814,80.0,30.0,30.0,4.0,0.0
16815,57.0,0.0,60.0,3.0,0.0
16816,81.0,0.0,60.0,6.0,0.0
16817,57.0,0.0,60.0,10.0,0.0
16818,57.0,1.0,30.0,5.0,0.0
16819,81.0,29.0,30.0,4.0,0.0
16820,73.0,0.0,60.0,1.0,0.0
16821,64.0,0.0,60.0,2.0,0.0
16822,57.0,1.0,60.0,7.0,0.0
16823,81.0,0.0,60.0,0.0,0.0
16824,81.0,0.0,60.0,8.0,0.0
16825,56.0,0.0,30.0,5.0,0.0
16826,76.0,29.0,30.0,4.0,0.0
16827,78.0,29.0,30.0,4.0,0.0
16828,57.0,1.0,30.0,5.0,0.0
16829,45.0,1.0,60.0,3.0,0.0
16830,59.0,0.0,30.0,5.0,0.0
16831,80.0,29.0,30.0,4.0,0.0
16832,61.0,1.0,30.0,5.0,0.0
16833,81.0,29.0,30.0,4.0,0.0
16834,44.0,0.0,60.0,3.0,0.0
16835,83.0,29.0,30.0,4.0,0.0
16836,63.0,1.0,30.0,5.0,0.0
16837,42.0,1.0,60.0,3.0,0.0
16838,85.0,29.0,30.0,4.0,0.0
16839,64.0,1.0,30.0,5.0,0.0
16840,87.0,29.0,30.0,4.0,0.0
16841,66.0,0.0,30.0,5.0,0.0
16842,52.0,0.0,60.0,7.0,0.0
16843,68.0,1.0,30.0,5.0,0.0
16844,52.0,0.0,60.0,10.0,0.0
16845,71.0,0.0,60.0,6.0,0.0
16846,68.0,1.0,60.0,6.0,0.0
16847,71.0,0.0,60.0,8.0,0.0
16848,71.0,0.0,60.0,1.0,0.0
16849,80.0,0.0,60.0,0.0,0.0
16850,88.0,29.0,30.0,4.0,0.0
16851,40.0,0.0,60.0,3.0,0.0
16852,71.0,0.0,60.0,2.0,0.0
16853,71.0,0.0,30.0,5.0,0.0
16854,87.0,29.0,30.0,4.0,0.0
16855,76.0,0.0,120.0,8.0,0.0
16856,76.0,0.0,120.0,6.0,0.0
16857,76.0,0.0,120.0,1.0,0.0
16858,69.0,1.0,30.0,5.0,0.0
16859,85.0,29.0,30.0,4.0,0.0
16860,64.0,0.0,60.0,7.0,0.0
16861,40.0,1.0,60.0,10.0,0.0
16862,83.0,29.0,30.0,4.0,0.0
16863,68.0,0.0,30.0,5.0,0.0
16864,69.0,0.0,60.0,2.0,0.0
16865,88.0,29.0,30.0,4.0,0.0
16866,78.0,0.0,60.0,0.0,0.0
16867,42.0,1.0,60.0,10.0,0.0
16868,42.0,0.0,60.0,3.0,0.0
16869,69.0,0.0,60.0,6.0,0.0
16870,69.0,0.0,60.0,8.0,0.0
16871,66.0,1.0,30.0,5.0,0.0
16872,66.0,0.0,60.0,7.0,0.0
16873,69.0,0.0,30.0,5.0,0.0
16874,85.0,29.0,30.0,4.0,0.0
16875,54.0,0.0,60.0,10.0,0.0
16876,54.0,0.0,60.0,7.0,0.0
16877,68.0,1.0,30.0,5.0,0.0
16878,75.0,1.0,60.0,6.0,0.0
16879,75.0,0.0,60.0,8.0,0.0
16880,75.0,0.0,60.0,1.0,0.0
16881,83.0,29.0,30.0,4.0,0.0
16882,66.0,0.0,30.0,5.0,0.0
16883,81.0,29.0,30.0,4.0,0.0
16884,44.0,0.0,60.0,3.0,0.0
16885,68.0,0.0,60.0,2.0,0.0
16886,64.0,1.0,30.0,5.0,0.0
16887,76.0,0.0,60.0,6.0,0.0
16888,71.0,0.0,60.0,8.0,0.0
16889,56.0,0.0,60.0,10.0,0.0
16890,76.0,0.0,60.0,8.0,0.0
16891,71.0,0.0,60.0,6.0,0.0
16892,56.0,0.0,60.0,7.0,0.0
16893,88.0,29.0,30.0,4.0,0.0
16894,76.0,1.0,60.0,1.0,0.0
16895,76.0,0.0,60.0,0.0,0.0
16896,83.0,29.0,30.0,4.0,0.0
16897,68.0,0.0,30.0,5.0,0.0
16898,81.0,29.0,30.0,4.0,0.0
16899,78.0,0.0,120.0,6.0,0.0
16900,73.0,1.0,30.0,5.0,0.0
16901,78.0,0.0,120.0,8.0,0.0
16902,78.0,0.0,120.0,1.0,0.0
16903,44.0,0.0,60.0,10.0,0.0
16904,68.0,0.0,60.0,7.0,0.0
16905,71.0,1.0,30.0,5.0,0.0
16906,80.0,29.0,30.0,4.0,0.0
16907,73.0,0.0,60.0,8.0,0.0
16908,73.0,0.0,60.0,6.0,0.0
16909,45.0,0.0,60.0,3.0,0.0
16910,69.0,1.0,30.0,5.0,0.0
16911,69.0,1.0,60.0,7.0,0.0
16912,88.0,29.0,30.0,4.0,0.0
16913,45.0,0.0,60.0,10.0,0.0
16914,66.0,0.0,60.0,2.0,0.0
16915,69.0,0.0,60.0,0.0,0.0
16916,66.0,0.0,30.0,5.0,0.0
16917,81.0,29.0,30.0,4.0,0.0
16918,57.0,0.0,60.0,10.0,0.0
16919,80.0,0.0,120.0,8.0,0.0
16920,64.0,1.0,30.0,5.0,0.0
16921,80.0,29.0,30.0,4.0,0.0
16922,80.0,0.0,120.0,6.0,0.0
16923,57.0,0.0,60.0,7.0,0.0
16924,80.0,0.0,120.0,1.0,0.0
16925,63.0,1.0,30.0,5.0,0.0
16926,78.0,29.0,30.0,4.0,0.0
16927,59.0,0.0,60.0,7.0,0.0
16928,71.0,0.0,60.0,6.0,0.0
16929,68.0,1.0,30.0,5.0,0.0
16930,68.0,0.0,60.0,0.0,0.0
16931,47.0,0.0,60.0,3.0,0.0
16932,71.0,0.0,60.0,8.0,0.0
16933,88.0,29.0,30.0,4.0,0.0
16934,59.0,0.0,60.0,2.0,0.0
16935,59.0,1.0,60.0,10.0,0.0
16936,59.0,0.0,30.0,5.0,0.0
16937,80.0,29.0,30.0,4.0,0.0
16938,78.0,29.0,30.0,8.0,0.0
16939,57.0,1.0,30.0,5.0,0.0
16940,68.0,0.0,60.0,8.0,0.0
16941,64.0,1.0,60.0,2.0,0.0
16942,78.0,0.0,30.0,6.0,0.0
16943,68.0,0.0,60.0,6.0,0.0
16944,49.0,0.0,60.0,3.0,0.0
16945,61.0,0.0,60.0,7.0,0.0
16946,78.0,0.0,30.0,1.0,0.0
16947,78.0,0.0,30.0,4.0,0.0
16948,68.0,0.0,60.0,0.0,0.0
16949,61.0,0.0,60.0,10.0,0.0
16950,76.0,0.0,30.0,4.0,0.0
16951,76.0,0.0,30.0,6.0,0.0
16952,76.0,0.0,30.0,1.0,0.0
16953,56.0,0.0,30.0,5.0,0.0
16954,76.0,29.0,30.0,8.0,0.0
16955,45.0,0.0,60.0,3.0,0.0
16956,61.0,1.0,60.0,2.0,0.0
16957,80.0,0.0,30.0,6.0,0.0
16958,80.0,0.0,30.0,4.0,0.0
16959,66.0,0.0,60.0,0.0,0.0
16960,57.0,0.0,60.0,7.0,0.0
16961,61.0,0.0,60.0,6.0,0.0
16962,80.0,1.0,30.0,1.0,0.0
16963,61.0,0.0,60.0,8.0,0.0
16964,80.0,29.0,30.0,8.0,0.0
16965,57.0,0.0,60.0,5.0,0.0
16966,57.0,0.0,60.0,10.0,0.0
16967,78.0,0.0,30.0,4.0,0.0
16968,78.0,0.0,30.0,1.0,0.0
16969,78.0,29.0,30.0,6.0,0.0
16970,78.0,0.0,30.0,8.0,0.0
16971,59.0,0.0,60.0,10.0,0.0
16972,66.0,1.0,60.0,6.0,0.0
16973,69.0,0.0,60.0,0.0,0.0
16974,59.0,0.0,60.0,5.0,0.0
16975,47.0,0.0,60.0,3.0,0.0
16976,76.0,1.0,30.0,1.0,0.0
16977,76.0,29.0,30.0,4.0,0.0
16978,76.0,0.0,30.0,6.0,0.0
16979,59.0,0.0,60.0,2.0,0.0
16980,66.0,0.0,60.0,8.0,0.0
16981,76.0,0.0,30.0,8.0,0.0
16982,59.0,0.0,60.0,7.0,0.0
16983,75.0,14.0,30.0,8.0,0.0
16984,75.0,0.0,30.0,4.0,0.0
16985,75.0,0.0,30.0,6.0,0.0
16986,75.0,0.0,30.0,1.0,0.0
16987,64.0,15.0,15.0,4.0,0.0
16988,76.0,0.0,60.0,4.0,0.0
16989,68.0,0.0,60.0,6.0,0.0
16990,52.0,0.0,60.0,7.0,0.0
16991,52.0,0.0,60.0,3.0,0.0
16992,68.0,14.0,60.0,8.0,0.0
16993,76.0,0.0,60.0,8.0,0.0
16994,76.0,0.0,60.0,1.0,0.0
16995,76.0,1.0,60.0,6.0,0.0
16996,59.0,0.0,60.0,2.0,0.0
16997,68.0,0.0,60.0,0.0,0.0
16998,52.0,0.0,60.0,10.0,0.0
16999,71.0,15.0,15.0,4.0,0.0
17000,73.0,15.0,15.0,4.0,0.0
17001,75.0,0.0,15.0,4.0,0.0
17002,76.0,15.0,15.0,4.0,0.0
17003,78.0,15.0,15.0,4.0,0.0
17004,80.0,15.0,15.0,4.0,0.0
17005,81.0,15.0,15.0,4.0,0.0
17006,80.0,15.0,15.0,4.0,0.0
17007,78.0,15.0,15.0,4.0,0.0
17008,76.0,15.0,15.0,4.0,0.0
17009,74.0,15.0,15.0,4.0,0.0
17010,73.0,15.0,15.0,4.0,0.0
17011,71.0,15.0,15.0,4.0,0.0
17012,70.0,15.0,15.0,4.0,0.0
17013,68.0,30.0,15.0,4.0,0.0
17014,73.0,0.0,60.0,6.0,0.0
17015,46.0,0.0,60.0,10.0,0.0
17016,78.0,0.0,60.0,1.0,0.0
17017,58.0,0.0,60.0,7.0,0.0
17018,46.0,0.0,60.0,3.0,0.0
17019,78.0,0.0,60.0,6.0,0.0
17020,73.0,0.0,60.0,8.0,0.0
17021,66.0,0.0,60.0,8.0,0.0
17022,73.0,0.0,60.0,2.0,0.0
17023,78.0,30.0,60.0,0.0,0.0
17024,88.0,30.0,30.0,4.0,0.0
17025,66.0,0.0,30.0,5.0,0.0
17026,73.0,0.0,30.0,5.0,0.0
17027,82.0,0.0,30.0,4.0,0.0
17028,73.0,0.0,60.0,2.0,0.0
17029,73.0,0.0,60.0,6.0,0.0
17030,46.0,0.0,60.0,3.0,0.0
17031,80.0,30.0,30.0,4.0,0.0
17032,46.0,30.0,60.0,10.0,0.0
17033,85.0,0.0,120.0,0.0,0.0
17034,78.0,0.0,60.0,6.0,0.0
17035,71.0,0.0,30.0,5.0,0.0
17036,73.0,0.0,60.0,8.0,0.0
17037,58.0,0.0,60.0,7.0,0.0
17038,78.0,0.0,60.0,1.0,0.0
17039,66.0,0.0,60.0,8.0,0.0
17040,70.0,0.0,30.0,5.0,0.0
17041,78.0,0.0,30.0,4.0,0.0
17042,78.0,0.0,60.0,6.0,0.0
17043,66.0,30.0,60.0,8.0,0.0
17044,78.0,0.0,60.0,1.0,0.0
17045,73.0,0.0,60.0,2.0,0.0
17046,88.0,0.0,30.0,4.0,0.0
17047,73.0,0.0,60.0,8.0,0.0
17048,46.0,0.0,60.0,10.0,0.0
17049,58.0,0.0,60.0,7.0,0.0
17050,46.0,0.0,60.0,3.0,0.0
17051,66.0,30.0,30.0,5.0,0.0
17052,73.0,0.0,60.0,6.0,0.0
17053,73.0,0.0,30.0,5.0,0.0
17054,82.0,0.0,30.0,4.0,0.0
17055,58.0,0.0,60.0,7.0,0.0
17056,78.0,0.0,60.0,1.0,0.0
17057,66.0,0.0,60.0,8.0,0.0
17058,73.0,0.0,60.0,2.0,0.0
17059,71.0,30.0,30.0,5.0,0.0
17060,88.0,0.0,60.0,0.0,0.0
17061,73.0,0.0,60.0,6.0,0.0
17062,78.0,0.0,60.0,6.0,0.0
17063,46.0,0.0,60.0,3.0,0.0
17064,46.0,15.0,60.0,10.0,0.0
17065,80.0,0.0,30.0,4.0,0.0
17066,73.0,0.0,60.0,8.0,0.0
17067,70.0,0.0,30.0,5.0,0.0
17068,78.0,0.0,30.0,4.0,0.0
17069,59.0,0.0,60.0,5.0,0.0
17070,59.0,15.0,15.0,6.0,0.0
17071,78.0,0.0,30.0,6.0,0.0
17072,74.0,0.0,30.0,6.0,0.0
17073,71.0,0.0,60.0,5.0,0.0
17074,47.0,0.0,60.0,10.0,0.0
17075,47.0,0.0,60.0,3.0,0.0
17076,86.0,15.0,60.0,4.0,0.0
17077,74.0,0.0,60.0,8.0,0.0
17078,71.0,0.0,60.0,2.0,0.0
17079,86.0,0.0,60.0,0.0,0.0
17080,71.0,0.0,60.0,8.0,0.0
17081,78.0,0.0,60.0,1.0,0.0
17082,70.0,15.0,15.0,6.0,0.0
17083,71.0,15.0,15.0,6.0,0.0
17084,73.0,0.0,15.0,6.0,0.0
17085,74.0,15.0,15.0,6.0,0.0
17086,76.0,15.0,15.0,6.0,0.0
17087,78.0,15.0,15.0,6.0,0.0
17088,79.0,15.0,15.0,6.0,0.0
17089,78.0,15.0,15.0,6.0,0.0
17090,76.0,15.0,15.0,6.0,0.0
17091,74.0,15.0,15.0,6.0,0.0
17092,73.0,15.0,15.0,6.0,0.0
17093,71.0,15.0,15.0,6.0,0.0
17094,69.0,15.0,15.0,6.0,0.0
17095,68.0,15.0,15.0,6.0,0.0
17096,66.0,30.0,15.0,6.0,0.0
17097,76.0,0.0,60.0,0.0,0.0
17098,76.0,0.0,60.0,1.0,0.0
17099,86.0,0.0,30.0,6.0,0.0
17100,71.0,0.0,60.0,4.0,0.0
17101,76.0,0.0,60.0,4.0,0.0
17102,56.0,0.0,60.0,5.0,0.0
17103,64.0,30.0,30.0,7.0,0.0
17104,44.0,0.0,60.0,10.0,0.0
17105,44.0,0.0,60.0,3.0,0.0
17106,71.0,30.0,60.0,8.0,0.0
17107,64.0,0.0,60.0,8.0,0.0
17108,71.0,0.0,60.0,2.0,0.0
17109,80.0,0.0,30.0,6.0,0.0
17110,71.0,0.0,30.0,7.0,0.0
17111,71.0,0.0,60.0,4.0,0.0
17112,71.0,0.0,60.0,8.0,0.0
17113,64.0,0.0,60.0,8.0,0.0
17114,83.0,0.0,120.0,0.0,0.0
17115,76.0,0.0,60.0,4.0,0.0
17116,71.0,0.0,60.0,2.0,0.0
17117,44.0,0.0,60.0,10.0,0.0
17118,56.0,0.0,60.0,5.0,0.0
17119,69.0,0.0,30.0,7.0,0.0
17120,78.0,30.0,30.0,6.0,0.0
17121,44.0,0.0,60.0,3.0,0.0
17122,76.0,30.0,60.0,1.0,0.0
17123,68.0,0.0,30.0,7.0,0.0
17124,76.0,0.0,30.0,6.0,0.0
17125,71.0,0.0,60.0,4.0,0.0
17126,76.0,0.0,60.0,4.0,0.0
17127,86.0,30.0,30.0,6.0,0.0
17128,71.0,0.0,60.0,8.0,0.0
17129,56.0,0.0,60.0,5.0,0.0
17130,71.0,0.0,60.0,2.0,0.0
17131,64.0,30.0,60.0,8.0,0.0
17132,64.0,0.0,30.0,7.0,0.0
17133,44.0,0.0,60.0,3.0,0.0
17134,76.0,0.0,60.0,1.0,0.0
17135,44.0,0.0,60.0,10.0,0.0
17136,71.0,0.0,30.0,7.0,0.0
17137,80.0,0.0,30.0,6.0,0.0
17138,56.0,0.0,60.0,5.0,0.0
17139,44.0,0.0,60.0,3.0,0.0
17140,71.0,0.0,60.0,2.0,0.0
17141,44.0,0.0,60.0,10.0,0.0
17142,76.0,0.0,60.0,4.0,0.0
17143,64.0,0.0,60.0,8.0,0.0
17144,71.0,0.0,60.0,8.0,0.0
17145,78.0,30.0,30.0,6.0,0.0
17146,69.0,0.0,30.0,7.0,0.0
17147,86.0,0.0,60.0,0.0,0.0
17148,71.0,0.0,60.0,4.0,0.0
17149,76.0,0.0,60.0,1.0,0.0
17150,68.0,15.0,30.0,7.0,0.0
17151,76.0,0.0,30.0,6.0,0.0
17152,69.0,0.0,60.0,2.0,0.0
17153,85.0,0.0,60.0,0.0,0.0
17154,76.0,15.0,60.0,1.0,0.0
17155,45.0,0.0,60.0,3.0,0.0
17156,85.0,0.0,60.0,6.0,0.0
17157,69.0,0.0,60.0,6.0,0.0
17158,76.0,0.0,60.0,4.0,0.0
17159,73.0,0.0,60.0,4.0,0.0
17160,73.0,15.0,30.0,8.0,0.0
17161,69.0,0.0,30.0,8.0,0.0
17162,57.0,0.0,60.0,5.0,0.0
17163,57.0,0.0,60.0,7.0,0.0
17164,45.0,15.0,15.0,10.0,0.0
17165,64.0,0.0,15.0,8.0,0.0
17166,66.0,15.0,15.0,8.0,0.0
17167,68.0,0.0,15.0,8.0,0.0
17168,69.0,15.0,15.0,8.0,0.0
17169,71.0,15.0,15.0,8.0,0.0
17170,73.0,15.0,15.0,8.0,0.0
17171,74.0,15.0,15.0,8.0,0.0
17172,73.0,15.0,15.0,8.0,0.0
17173,69.0,15.0,15.0,8.0,0.0
17174,68.0,15.0,15.0,8.0,0.0
17175,66.0,15.0,15.0,8.0,0.0
17176,64.0,15.0,15.0,8.0,0.0
17177,63.0,15.0,15.0,8.0,0.0
17178,61.0,15.0,15.0,8.0,0.0
17179,59.0,30.0,15.0,8.0,0.0
17180,69.0,0.0,60.0,6.0,0.0
17181,85.0,30.0,30.0,8.0,0.0
17182,57.0,0.0,30.0,10.0,0.0
17183,55.0,0.0,60.0,3.0,0.0
17184,69.0,0.0,60.0,2.0,0.0
17185,76.0,0.0,60.0,6.0,0.0
17186,55.0,0.0,60.0,7.0,0.0
17187,76.0,0.0,30.0,4.0,0.0
17188,85.0,0.0,60.0,0.0,0.0
17189,76.0,0.0,60.0,1.0,0.0
17190,55.0,0.0,60.0,5.0,0.0
17191,76.0,30.0,30.0,8.0,0.0
17192,73.0,0.0,30.0,4.0,0.0
17193,61.0,0.0,30.0,10.0,0.0
17194,69.0,0.0,60.0,6.0,0.0
17195,55.0,0.0,60.0,3.0,0.0
17196,62.0,0.0,30.0,10.0,0.0
17197,55.0,0.0,60.0,7.0,0.0
17198,55.0,0.0,60.0,5.0,0.0
17199,71.0,30.0,30.0,4.0,0.0
17200,76.0,0.0,60.0,6.0,0.0
17201,74.0,0.0,30.0,8.0,0.0
17202,64.0,30.0,30.0,10.0,0.0
17203,69.0,0.0,30.0,4.0,0.0
17204,73.0,0.0,30.0,8.0,0.0
17205,76.0,0.0,30.0,4.0,0.0
17206,71.0,0.0,60.0,2.0,0.0
17207,76.0,0.0,60.0,1.0,0.0
17208,55.0,0.0,60.0,7.0,0.0
17209,55.0,0.0,60.0,3.0,0.0
17210,71.0,30.0,60.0,6.0,0.0
17211,83.0,0.0,60.0,0.0,0.0
17212,55.0,0.0,30.0,10.0,0.0
17213,83.0,30.0,30.0,8.0,0.0
17214,76.0,0.0,60.0,6.0,0.0
17215,55.0,0.0,60.0,5.0,0.0
17216,79.0,0.0,30.0,4.0,0.0
17217,76.0,0.0,30.0,8.0,0.0
17218,61.0,0.0,30.0,10.0,0.0
17219,71.0,0.0,60.0,6.0,0.0
17220,76.0,0.0,60.0,6.0,0.0
17221,55.0,0.0,60.0,5.0,0.0
17222,55.0,0.0,60.0,3.0,0.0
17223,78.0,0.0,30.0,4.0,0.0
17224,62.0,0.0,30.0,10.0,0.0
17225,74.0,30.0,30.0,8.0,0.0
17226,64.0,30.0,30.0,10.0,0.0
17227,76.0,0.0,30.0,4.0,0.0
17228,73.0,0.0,30.0,8.0,0.0
17229,82.0,30.0,30.0,8.0,0.0
17230,54.0,0.0,30.0,7.0,0.0
17231,76.0,30.0,60.0,4.0,0.0
17232,73.0,0.0,60.0,2.0,0.0
17233,82.0,0.0,60.0,4.0,0.0
17234,85.0,0.0,60.0,4.0,0.0
17235,54.0,0.0,60.0,3.0,0.0
17236,54.0,0.0,60.0,5.0,0.0
17237,78.0,0.0,30.0,6.0,0.0
17238,82.0,0.0,60.0,0.0,0.0
17239,78.0,0.0,60.0,1.0,0.0
17240,54.0,0.0,60.0,10.0,0.0
17241,73.0,0.0,30.0,6.0,0.0
17242,58.0,0.0,30.0,7.0,0.0
17243,76.0,0.0,30.0,8.0,0.0
17244,71.0,0.0,30.0,6.0,0.0
17245,54.0,0.0,60.0,5.0,0.0
17246,54.0,0.0,60.0,10.0,0.0
17247,59.0,0.0,30.0,7.0,0.0
17248,54.0,0.0,60.0,3.0,0.0
17249,74.0,30.0,30.0,8.0,0.0
17250,70.0,0.0,30.0,6.0,0.0
17251,61.0,0.0,30.0,7.0,0.0
17252,73.0,30.0,30.0,8.0,0.0
17253,82.0,0.0,30.0,8.0,0.0
17254,52.0,0.0,60.0,10.0,0.0
17255,52.0,30.0,30.0,7.0,0.0
17256,52.0,30.0,60.0,5.0,0.0
17257,79.0,0.0,30.0,6.0,0.0
17258,52.0,0.0,60.0,3.0,0.0
17259,58.0,0.0,30.0,7.0,0.0
17260,76.0,0.0,30.0,8.0,0.0
17261,73.0,0.0,30.0,6.0,0.0
17262,74.0,30.0,30.0,8.0,0.0
17263,71.0,0.0,30.0,6.0,0.0
17264,52.0,0.0,60.0,5.0,0.0
17265,52.0,0.0,60.0,10.0,0.0
17266,52.0,0.0,60.0,3.0,0.0
17267,59.0,0.0,30.0,7.0,0.0
17268,61.0,0.0,30.0,7.0,0.0
17269,73.0,0.0,30.0,8.0,0.0
17270,70.0,30.0,30.0,6.0,0.0
17271,71.0,0.0,30.0,8.0,0.0
17272,51.0,0.0,60.0,3.0,0.0
17273,83.0,0.0,60.0,0.0,0.0
17274,51.0,0.0,60.0,7.0,0.0
17275,71.0,0.0,60.0,2.0,0.0
17276,51.0,0.0,60.0,10.0,0.0
17277,78.0,0.0,60.0,1.0,0.0
17278,51.0,0.0,30.0,5.0,0.0
17279,81.0,0.0,30.0,4.0,0.0
17280,78.0,30.0,30.0,6.0,0.0
17281,72.0,30.0,30.0,6.0,0.0
17282,81.0,0.0,30.0,8.0,0.0
17283,54.0,0.0,30.0,5.0,0.0
17284,87.0,0.0,30.0,4.0,0.0
17285,71.0,0.0,30.0,6.0,0.0
17286,51.0,0.0,60.0,7.0,0.0
17287,56.0,0.0,30.0,5.0,0.0
17288,88.0,0.0,30.0,4.0,0.0
17289,51.0,0.0,60.0,3.0,0.0
17290,80.0,30.0,30.0,8.0,0.0
17291,51.0,0.0,60.0,10.0,0.0
17292,78.0,0.0,30.0,8.0,0.0
17293,69.0,0.0,30.0,6.0,0.0
17294,57.0,0.0,30.0,5.0,0.0
17295,90.0,30.0,30.0,4.0,0.0
17296,51.0,0.0,60.0,10.0,0.0
17297,71.0,0.0,60.0,2.0,0.0
17298,59.0,0.0,30.0,5.0,0.0
17299,51.0,0.0,60.0,7.0,0.0
17300,81.0,0.0,30.0,4.0,0.0
17301,81.0,0.0,60.0,0.0,0.0
17302,71.0,30.0,30.0,8.0,0.0
17303,78.0,0.0,30.0,6.0,0.0
17304,51.0,0.0,60.0,3.0,0.0
17305,78.0,0.0,60.0,1.0,0.0
17306,87.0,0.0,30.0,4.0,0.0
17307,72.0,0.0,30.0,6.0,0.0
17308,57.0,0.0,30.0,5.0,0.0
17309,78.0,30.0,30.0,8.0,0.0
17310,51.0,0.0,60.0,10.0,0.0
17311,56.0,0.0,30.0,5.0,0.0
17312,51.0,15.0,60.0,3.0,0.0
17313,71.0,0.0,30.0,6.0,0.0
17314,88.0,30.0,30.0,4.0,0.0
17315,51.0,0.0,60.0,7.0,0.0
17316,76.0,0.0,30.0,8.0,0.0
17317,75.0,0.0,30.0,8.0,0.0
17318,69.0,0.0,30.0,6.0,0.0
17319,54.0,0.0,30.0,5.0,0.0
17320,90.0,0.0,30.0,4.0,0.0
17321,52.0,0.0,60.0,10.0,0.0
17322,71.0,15.0,60.0,2.0,0.0
17323,80.0,0.0,60.0,8.0,0.0
17324,52.0,0.0,60.0,7.0,0.0
17325,76.0,0.0,60.0,1.0,0.0
17326,80.0,0.0,60.0,4.0,0.0
17327,71.0,0.0,60.0,6.0,0.0
17328,52.0,0.0,60.0,3.0,0.0
17329,83.0,0.0,60.0,8.0,0.0
17330,52.0,15.0,15.0,5.0,0.0
17331,80.0,0.0,60.0,0.0,0.0
17332,68.0,0.0,60.0,6.0,0.0
17333,76.0,0.0,60.0,6.0,0.0
17334,59.0,15.0,15.0,5.0,0.0
17335,61.0,15.0,15.0,5.0,0.0
17336,63.0,0.0,15.0,5.0,0.0
17337,64.0,15.0,15.0,4.0,0.0
17338,52.0,0.0,60.0,10.0,0.0
17339,52.0,0.0,60.0,7.0,0.0
17340,52.0,15.0,60.0,3.0,0.0
17341,66.0,15.0,15.0,4.0,0.0
17342,68.0,15.0,15.0,4.0,0.0
17343,66.0,0.0,15.0,4.0,0.0
17344,68.0,15.0,15.0,4.0,0.0
17345,50.0,0.0,60.0,3.0,0.0
17346,50.0,0.0,60.0,7.0,0.0
17347,50.0,0.0,60.0,10.0,0.0
17348,69.0,15.0,15.0,4.0,0.0
17349,71.0,15.0,15.0,4.0,0.0
17350,73.0,15.0,15.0,4.0,0.0
17351,50.0,0.0,60.0,3.0,0.0
17352,50.0,0.0,60.0,10.0,0.0
17353,50.0,30.0,60.0,7.0,0.0
17354,74.0,15.0,15.0,4.0,0.0
17355,76.0,15.0,15.0,4.0,0.0
17356,78.0,15.0,15.0,4.0,0.0
17357,80.0,0.0,15.0,4.0,0.0
17358,81.0,30.0,30.0,8.0,0.0
17359,76.0,0.0,60.0,1.0,0.0
17360,76.0,0.0,30.0,6.0,0.0
17361,81.0,0.0,60.0,0.0,0.0
17362,49.0,0.0,60.0,7.0,0.0
17363,49.0,0.0,60.0,3.0,0.0
17364,73.0,0.0,60.0,2.0,0.0
17365,81.0,0.0,30.0,4.0,0.0
17366,49.0,0.0,60.0,10.0,0.0
17367,61.0,0.0,30.0,5.0,0.0
17368,85.0,0.0,30.0,4.0,0.0
17369,73.0,0.0,30.0,6.0,0.0
17370,76.0,0.0,30.0,8.0,0.0
17371,69.0,30.0,30.0,5.0,0.0
17372,71.0,0.0,30.0,5.0,0.0
17373,49.0,0.0,60.0,10.0,0.0
17374,49.0,0.0,60.0,7.0,0.0
17375,49.0,30.0,60.0,3.0,0.0
17376,71.0,0.0,30.0,6.0,0.0
17377,75.0,0.0,30.0,8.0,0.0
17378,87.0,30.0,30.0,4.0,0.0
17379,73.0,0.0,30.0,5.0,0.0
17380,73.0,0.0,30.0,8.0,0.0
17381,88.0,0.0,30.0,4.0,0.0
17382,69.0,0.0,30.0,6.0,0.0
17383,80.0,0.0,30.0,4.0,0.0
17384,71.0,30.0,30.0,8.0,0.0
17385,61.0,0.0,60.0,7.0,0.0
17386,80.0,0.0,60.0,0.0,0.0
17387,61.0,0.0,60.0,10.0,0.0
17388,76.0,0.0,60.0,1.0,0.0
17389,76.0,0.0,30.0,6.0,0.0
17390,71.0,0.0,30.0,5.0,0.0
17391,71.0,0.0,60.0,2.0,0.0
17392,61.0,0.0,60.0,3.0,0.0
17393,85.0,30.0,30.0,4.0,0.0
17394,68.0,0.0,30.0,5.0,0.0
17395,80.0,0.0,30.0,8.0,0.0
17396,71.0,0.0,30.0,6.0,0.0
17397,73.0,0.0,30.0,5.0,0.0
17398,79.0,0.0,30.0,8.0,0.0
17399,70.0,0.0,30.0,6.0,0.0
17400,61.0,0.0,60.0,7.0,0.0
17401,61.0,0.0,60.0,3.0,0.0
17402,61.0,0.0,60.0,10.0,0.0
17403,87.0,30.0,30.0,4.0,0.0
17404,68.0,0.0,30.0,6.0,0.0
17405,80.0,0.0,30.0,8.0,0.0
17406,71.0,0.0,30.0,5.0,0.0
17407,88.0,15.0,30.0,4.0,0.0
17408,79.0,15.0,15.0,4.0,0.0
17409,61.0,60.0,60.0,10.0,0.0
17410,61.0,0.0,60.0,3.0,0.0
17411,79.0,0.0,60.0,0.0,0.0
17412,61.0,0.0,60.0,7.0,0.0
17413,75.0,0.0,60.0,1.0,0.0
17414,67.0,0.0,60.0,6.0,0.0
17415,70.0,0.0,60.0,6.0,0.0
17416,75.0,0.0,60.0,6.0,0.0
17417,82.0,0.0,60.0,8.0,0.0
17418,70.0,0.0,60.0,2.0,0.0
17419,70.0,0.0,60.0,5.0,0.0
17420,88.0,15.0,15.0,4.0,0.0
17421,87.0,15.0,15.0,4.0,0.0
17422,85.0,0.0,15.0,4.0,0.0
17423,87.0,30.0,90.0,4.0,0.0
17424,61.0,0.0,60.0,5.0,0.0
17425,70.0,0.0,60.0,8.0,0.0
17426,67.0,0.0,60.0,8.0,0.0
17427,61.0,30.0,60.0,3.0,0.0
17428,68.0,0.0,60.0,2.0,0.0
17429,60.0,0.0,60.0,10.0,0.0
17430,60.0,0.0,60.0,3.0,0.0
17431,60.0,0.0,60.0,5.0,0.0
17432,68.0,0.0,60.0,8.0,0.0
17433,75.0,0.0,60.0,8.0,0.0
17434,75.0,0.0,60.0,1.0,0.0
17435,60.0,0.0,60.0,7.0,0.0
17436,78.0,0.0,60.0,0.0,0.0
17437,81.0,30.0,30.0,4.0,0.0
17438,80.0,30.0,30.0,4.0,0.0
17439,75.0,0.0,60.0,6.0,0.0
17440,68.0,0.0,60.0,6.0,0.0
17441,60.0,0.0,60.0,3.0,0.0
17442,63.0,15.0,60.0,5.0,0.0
17443,78.0,0.0,30.0,4.0,0.0
17444,68.0,0.0,60.0,2.0,0.0
17445,68.0,0.0,60.0,5.0,0.0
17446,73.0,60.0,60.0,1.0,0.0
17447,59.0,0.0,60.0,3.0,0.0
17448,59.0,0.0,60.0,10.0,0.0
17449,59.0,0.0,60.0,7.0,0.0
17450,77.0,15.0,15.0,4.0,0.0
17451,77.0,0.0,60.0,6.0,0.0
17452,68.0,0.0,60.0,6.0,0.0
17453,80.0,0.0,60.0,6.0,0.0
17454,73.0,0.0,60.0,6.0,0.0
17455,77.0,0.0,60.0,0.0,0.0
17456,86.0,15.0,15.0,4.0,0.0
17457,85.0,15.0,15.0,4.0,0.0
17458,83.0,0.0,15.0,4.0,0.0
17459,65.0,0.0,60.0,8.0,0.0
17460,68.0,30.0,60.0,8.0,0.0
17461,85.0,30.0,90.0,4.0,0.0
17462,59.0,0.0,60.0,5.0,0.0
17463,59.0,0.0,60.0,3.0,0.0
17464,76.0,0.0,60.0,0.0,0.0
17465,73.0,0.0,60.0,1.0,0.0
17466,73.0,30.0,60.0,8.0,0.0
17467,58.0,0.0,60.0,7.0,0.0
17468,66.0,0.0,60.0,8.0,0.0
17469,58.0,0.0,60.0,10.0,0.0
17470,58.0,0.0,60.0,5.0,0.0
17471,66.0,0.0,60.0,2.0,0.0
17472,58.0,0.0,60.0,3.0,0.0
17473,79.0,0.0,30.0,4.0,0.0
17474,73.0,0.0,60.0,6.0,0.0
17475,61.0,0.0,60.0,5.0,0.0
17476,66.0,0.0,60.0,6.0,0.0
17477,78.0,30.0,30.0,4.0,0.0
17478,58.0,15.0,60.0,3.0,0.0
17479,76.0,0.0,30.0,4.0,0.0
17480,75.0,15.0,30.0,4.0,0.0
17481,66.0,0.0,60.0,6.0,0.0
17482,75.0,0.0,60.0,6.0,0.0
17483,66.0,15.0,15.0,4.0,0.0
17484,78.0,0.0,60.0,6.0,0.0
17485,71.0,0.0,60.0,1.0,0.0
17486,57.0,0.0,60.0,7.0,0.0
17487,75.0,0.0,60.0,0.0,0.0
17488,57.0,0.0,60.0,10.0,0.0
17489,66.0,15.0,60.0,2.0,0.0
17490,71.0,0.0,60.0,6.0,0.0
17491,57.0,0.0,60.0,3.0,0.0
17492,71.0,0.0,15.0,4.0,0.0
17493,73.0,15.0,15.0,4.0,0.0
17494,75.0,0.0,15.0,4.0,0.0
17495,76.0,15.0,15.0,4.0,0.0
17496,63.0,0.0,60.0,8.0,0.0
17497,66.0,0.0,60.0,8.0,0.0
17498,57.0,0.0,60.0,3.0,0.0
17499,78.0,15.0,15.0,4.0,0.0
17500,80.0,15.0,15.0,4.0,0.0
17501,81.0,15.0,15.0,4.0,0.0
17502,71.0,0.0,60.0,1.0,0.0
17503,56.0,0.0,60.0,3.0,0.0
17504,83.0,15.0,15.0,4.0,0.0
17505,64.0,0.0,60.0,8.0,0.0
17506,71.0,0.0,60.0,8.0,0.0
17507,74.0,0.0,60.0,0.0,0.0
17508,56.0,0.0,60.0,7.0,0.0
17509,56.0,0.0,60.0,10.0,0.0
17510,64.0,0.0,60.0,2.0,0.0
17511,85.0,15.0,15.0,4.0,0.0
17512,83.0,15.0,15.0,4.0,0.0
17513,81.0,15.0,15.0,4.0,0.0
17514,71.0,0.0,60.0,6.0,0.0
17515,64.0,0.0,60.0,6.0,0.0
17516,56.0,15.0,60.0,3.0,0.0
17517,80.0,15.0,15.0,4.0,0.0
17518,78.0,15.0,15.0,4.0,0.0
17519,76.0,15.0,15.0,4.0,0.0
17520,75.0,0.0,15.0,4.0,0.0
17521,70.0,0.0,60.0,6.0,0.0
17522,55.0,0.0,60.0,7.0,0.0
17523,73.0,0.0,60.0,0.0,0.0
17524,55.0,0.0,60.0,3.0,0.0
17525,73.0,15.0,15.0,4.0,0.0
17526,73.0,0.0,60.0,6.0,0.0
17527,76.0,0.0,60.0,6.0,0.0
17528,55.0,15.0,60.0,10.0,0.0
17529,64.0,0.0,60.0,6.0,0.0
17530,64.0,0.0,60.0,2.0,0.0
17531,70.0,0.0,60.0,1.0,0.0
17532,70.0,15.0,15.0,4.0,0.0
17533,72.0,15.0,15.0,4.0,0.0
17534,73.0,0.0,15.0,4.0,0.0
17535,55.0,0.0,60.0,3.0,0.0
17536,64.0,15.0,60.0,8.0,0.0
17537,75.0,15.0,15.0,4.0,0.0
17538,61.0,0.0,60.0,8.0,0.0
17539,76.0,15.0,15.0,4.0,0.0
17540,78.0,15.0,15.0,4.0,0.0
17541,80.0,0.0,15.0,4.0,0.0
17542,69.0,0.0,60.0,1.0,0.0
17543,74.0,0.0,60.0,0.0,0.0
17544,66.0,0.0,60.0,8.0,0.0
17545,66.0,0.0,60.0,2.0,0.0
17546,81.0,15.0,15.0,4.0,0.0
17547,54.0,0.0,60.0,3.0,0.0
17548,54.0,0.0,60.0,10.0,0.0
17549,69.0,0.0,60.0,8.0,0.0
17550,54.0,0.0,60.0,7.0,0.0
17551,83.0,15.0,15.0,4.0,0.0
17552,81.0,15.0,15.0,4.0,0.0
17553,80.0,15.0,15.0,4.0,0.0
17554,54.0,0.0,60.0,3.0,0.0
17555,69.0,0.0,60.0,6.0,0.0
17556,78.0,15.0,60.0,6.0,0.0
17557,78.0,15.0,15.0,4.0,0.0
17558,76.0,15.0,15.0,4.0,0.0
17559,74.0,15.0,15.0,4.0,0.0
17560,73.0,0.0,15.0,4.0,0.0
17561,72.0,15.0,15.0,4.0,0.0
17562,54.0,0.0,60.0,3.0,0.0
17563,68.0,0.0,60.0,8.0,0.0
17564,63.0,0.0,60.0,8.0,0.0
17565,75.0,0.0,60.0,6.0,0.0
17566,68.0,0.0,60.0,1.0,0.0
17567,60.0,0.0,60.0,8.0,0.0
17568,54.0,0.0,60.0,7.0,0.0
17569,52.0,0.0,60.0,10.0,0.0
17570,72.0,0.0,60.0,0.0,0.0
17571,68.0,0.0,60.0,6.0,0.0
17572,63.0,15.0,60.0,2.0,0.0
17573,68.0,15.0,15.0,4.0,0.0
17574,70.0,15.0,15.0,4.0,0.0
17575,72.0,0.0,15.0,4.0,0.0
17576,73.0,15.0,15.0,4.0,0.0
17577,75.0,15.0,15.0,4.0,0.0
17578,76.0,15.0,15.0,4.0,0.0
17579,78.0,15.0,15.0,4.0,0.0
17580,80.0,15.0,15.0,4.0,0.0
17581,81.0,15.0,15.0,4.0,0.0
17582,80.0,15.0,15.0,4.0,0.0
17583,78.0,15.0,15.0,4.0,0.0
17584,76.0,15.0,15.0,4.0,0.0
17585,75.0,15.0,15.0,4.0,0.0
17586,73.0,15.0,15.0,4.0,0.0
17587,72.0,30.0,15.0,4.0,0.0
17588,76.0,0.0,60.0,1.0,0.0
17589,61.0,0.0,60.0,2.0,0.0
17590,64.0,0.0,60.0,7.0,0.0
17591,80.0,0.0,60.0,8.0,0.0
17592,73.0,0.0,60.0,8.0,0.0
17593,80.0,0.0,60.0,6.0,0.0
17594,80.0,30.0,60.0,0.0,0.0
17595,73.0,30.0,30.0,4.0,0.0
17596,73.0,0.0,60.0,6.0,0.0
17597,52.0,0.0,60.0,10.0,0.0
17598,52.0,0.0,60.0,3.0,0.0
17599,72.0,0.0,30.0,4.0,0.0
17600,56.0,0.0,30.0,5.0,0.0
17601,54.0,30.0,30.0,5.0,0.0
17602,85.0,0.0,120.0,8.0,0.0
17603,52.0,0.0,60.0,7.0,0.0
17604,85.0,0.0,120.0,0.0,0.0
17605,70.0,0.0,30.0,4.0,0.0
17606,85.0,0.0,120.0,6.0,0.0
17607,64.0,30.0,60.0,10.0,0.0
17608,68.0,0.0,30.0,4.0,0.0
17609,52.0,0.0,30.0,5.0,0.0
17610,78.0,0.0,60.0,6.0,0.0
17611,63.0,0.0,60.0,10.0,0.0
17612,51.0,0.0,30.0,5.0,0.0
17613,75.0,0.0,60.0,1.0,0.0
17614,78.0,0.0,60.0,8.0,0.0
17615,51.0,30.0,60.0,7.0,0.0
17616,51.0,0.0,60.0,3.0,0.0
17617,73.0,30.0,30.0,4.0,0.0
17618,69.0,0.0,60.0,2.0,0.0
17619,69.0,0.0,30.0,4.0,0.0
17620,54.0,0.0,30.0,5.0,0.0
17621,84.0,0.0,60.0,8.0,0.0
17622,51.0,0.0,60.0,10.0,0.0
17623,63.0,0.0,60.0,7.0,0.0
17624,84.0,30.0,60.0,0.0,0.0
17625,84.0,0.0,60.0,6.0,0.0
17626,52.0,0.0,30.0,5.0,0.0
17627,68.0,30.0,30.0,4.0,0.0
17628,66.0,0.0,30.0,4.0,0.0
17629,51.0,0.0,30.0,5.0,0.0
17630,85.0,0.0,60.0,0.0,0.0
17631,64.0,0.0,60.0,7.0,0.0
17632,52.0,0.0,60.0,3.0,0.0
17633,73.0,0.0,30.0,4.0,0.0
17634,68.0,0.0,60.0,2.0,0.0
17635,80.0,0.0,60.0,8.0,0.0
17636,52.0,0.0,60.0,10.0,0.0
17637,73.0,0.0,60.0,1.0,0.0
17638,49.0,30.0,30.0,5.0,0.0
17639,85.0,0.0,60.0,8.0,0.0
17640,85.0,0.0,60.0,6.0,0.0
17641,80.0,30.0,60.0,6.0,0.0
17642,52.0,0.0,30.0,5.0,0.0
17643,68.0,0.0,30.0,4.0,0.0
17644,87.0,0.0,120.0,8.0,0.0
17645,87.0,0.0,120.0,0.0,0.0
17646,66.0,30.0,30.0,4.0,0.0
17647,87.0,0.0,120.0,6.0,0.0
17648,52.0,0.0,60.0,7.0,0.0
17649,57.0,0.0,30.0,5.0,0.0
17650,64.0,0.0,60.0,10.0,0.0
17651,64.0,0.0,30.0,4.0,0.0
17652,56.0,30.0,30.0,5.0,0.0
17653,54.0,0.0,60.0,3.0,0.0
17654,73.0,0.0,30.0,4.0,0.0
17655,54.0,0.0,60.0,7.0,0.0
17656,81.0,30.0,60.0,8.0,0.0
17657,81.0,0.0,60.0,1.0,0.0
17658,73.0,0.0,60.0,2.0,0.0
17659,54.0,30.0,30.0,5.0,0.0
17660,66.0,0.0,60.0,10.0,0.0
17661,81.0,0.0,60.0,6.0,0.0
17662,66.0,0.0,30.0,4.0,0.0
17663,51.0,0.0,30.0,5.0,0.0
17664,61.0,0.0,30.0,5.0,0.0
17665,88.0,0.0,120.0,6.0,0.0
17666,66.0,0.0,60.0,7.0,0.0
17667,54.0,30.0,60.0,10.0,0.0
17668,88.0,0.0,120.0,8.0,0.0
17669,88.0,0.0,120.0,0.0,0.0
17670,64.0,30.0,30.0,4.0,0.0
17671,63.0,0.0,30.0,4.0,0.0
17672,60.0,0.0,30.0,5.0,0.0
17673,80.0,30.0,60.0,8.0,0.0
17674,68.0,0.0,60.0,7.0,0.0
17675,80.0,0.0,60.0,6.0,0.0
17676,56.0,0.0,60.0,10.0,0.0
17677,73.0,30.0,30.0,4.0,0.0
17678,68.0,0.0,60.0,2.0,0.0
17679,56.0,0.0,30.0,5.0,0.0
17680,78.0,0.0,60.0,1.0,0.0
17681,56.0,0.0,60.0,3.0,0.0
17682,68.0,0.0,30.0,4.0,0.0
17683,61.0,0.0,30.0,5.0,0.0
17684,66.0,30.0,30.0,4.0,0.0
17685,57.0,30.0,60.0,3.0,0.0
17686,81.0,0.0,60.0,1.0,0.0
17687,57.0,0.0,30.0,5.0,0.0
17688,87.0,0.0,30.0,0.0,0.0
17689,57.0,0.0,60.0,10.0,0.0
17690,69.0,0.0,60.0,7.0,0.0
17691,87.0,0.0,30.0,8.0,0.0
17692,61.0,0.0,60.0,2.0,0.0
17693,87.0,0.0,30.0,6.0,0.0
17694,85.0,0.0,30.0,0.0,0.0
17695,85.0,0.0,30.0,8.0,0.0
17696,64.0,0.0,30.0,4.0,0.0
17697,61.0,0.0,30.0,5.0,0.0
17698,85.0,0.0,30.0,6.0,0.0
17699,88.0,0.0,30.0,8.0,0.0
17700,54.0,0.0,60.0,3.0,0.0
17701,54.0,0.0,60.0,10.0,0.0
17702,66.0,0.0,60.0,7.0,0.0
17703,68.0,30.0,30.0,4.0,0.0
17704,88.0,0.0,30.0,6.0,0.0
17705,81.0,30.0,60.0,1.0,0.0
17706,61.0,0.0,60.0,2.0,0.0
17707,88.0,0.0,30.0,0.0,0.0
17708,54.0,0.0,60.0,5.0,0.0
17709,87.0,0.0,30.0,8.0,0.0
17710,66.0,0.0,30.0,4.0,0.0
17711,87.0,0.0,30.0,0.0,0.0
17712,87.0,0.0,30.0,6.0,0.0
17713,85.0,0.0,30.0,0.0,0.0
17714,68.0,0.0,60.0,2.0,0.0
17715,85.0,0.0,30.0,6.0,0.0
17716,85.0,30.0,30.0,8.0,0.0
17717,68.0,0.0,60.0,7.0,0.0
17718,80.0,0.0,60.0,1.0,0.0
17719,64.0,0.0,30.0,4.0,0.0
17720,56.0,0.0,60.0,5.0,0.0
17721,56.0,0.0,60.0,10.0,0.0
17722,56.0,0.0,60.0,3.0,0.0
17723,84.0,0.0,30.0,8.0,0.0
17724,84.0,0.0,30.0,0.0,0.0
17725,84.0,0.0,30.0,6.0,0.0
17726,63.0,20.0,30.0,4.0,0.0
17727,85.0,0.0,20.0,8.0,0.0
17728,57.0,0.0,30.0,5.0,0.0
17729,85.0,29.0,1020.0,0.0,0.0
17730,57.0,15.0,60.0,3.0,0.0
17731,73.0,0.0,60.0,2.0,0.0
17732,61.0,10.0,30.0,4.0,0.0
17733,76.0,0.0,60.0,1.0,0.0
17734,85.0,10.0,20.0,6.0,0.0
17735,57.0,0.0,60.0,7.0,0.0
17736,57.0,0.0,60.0,10.0,0.0
17737,86.0,0.0,20.0,6.0,0.0
17738,86.0,20.0,20.0,8.0,0.0
17739,64.0,0.0,30.0,4.0,0.0
17740,56.0,0.0,30.0,5.0,0.0
17741,85.0,0.0,20.0,6.0,0.0
17742,85.0,0.0,20.0,8.0,0.0
17743,86.0,15.0,15.0,6.0,0.0
17744,86.0,0.0,15.0,8.0,0.0
17745,54.0,15.0,30.0,5.0,0.0
17746,63.0,0.0,30.0,4.0,0.0
17747,85.0,0.0,15.0,6.0,0.0
17748,85.0,0.0,15.0,8.0,0.0
17749,86.0,0.0,15.0,6.0,0.0
17750,61.0,15.0,30.0,4.0,0.0
17751,86.0,15.0,15.0,8.0,0.0
17752,52.0,0.0,30.0,5.0,0.0
17753,85.0,0.0,15.0,8.0,0.0
17754,85.0,0.0,15.0,6.0,0.0
17755,86.0,0.0,15.0,6.0,0.0
17756,69.0,0.0,60.0,2.0,0.0
17757,78.0,16.0,60.0,1.0,0.0
17758,66.0,0.0,60.0,7.0,0.0
17759,54.0,0.0,60.0,3.0,0.0
17760,69.0,0.0,30.0,4.0,0.0
17761,54.0,0.0,60.0,10.0,0.0
17762,86.0,15.0,15.0,8.0,0.0
17763,54.0,15.0,30.0,5.0,0.0
17764,85.0,0.0,15.0,6.0,0.0
17765,85.0,0.0,15.0,8.0,0.0
17766,57.0,0.0,30.0,5.0,0.0
17767,66.0,0.0,30.0,4.0,0.0
17768,86.0,0.0,15.0,6.0,0.0
17769,86.0,15.0,15.0,8.0,0.0
17770,85.0,0.0,15.0,6.0,0.0
17771,85.0,0.0,15.0,8.0,0.0
17772,56.0,1.0,30.0,5.0,0.0
17773,64.0,0.0,30.0,4.0,0.0
17774,86.0,14.0,15.0,8.0,0.0
17775,86.0,0.0,15.0,6.0,0.0
17776,85.0,0.0,15.0,8.0,0.0
17777,85.0,15.0,15.0,6.0,0.0
17778,54.0,0.0,30.0,5.0,0.0
17779,63.0,1.0,30.0,4.0,0.0
17780,86.0,14.0,15.0,6.0,0.0
17781,86.0,0.0,15.0,8.0,0.0
17782,85.0,0.0,15.0,6.0,0.0
17783,85.0,16.0,15.0,8.0,0.0
17784,80.0,0.0,60.0,1.0,0.0
17785,68.0,0.0,30.0,4.0,0.0
17786,52.0,0.0,60.0,3.0,0.0
17787,64.0,0.0,60.0,7.0,0.0
17788,52.0,2.0,30.0,5.0,0.0
17789,52.0,0.0,60.0,10.0,0.0
17790,73.0,2.0,60.0,2.0,0.0
17791,86.0,0.0,15.0,6.0,0.0
17792,86.0,13.0,15.0,8.0,0.0
17793,85.0,15.0,15.0,8.0,0.0
17794,85.0,0.0,15.0,6.0,0.0
17795,64.0,0.0,30.0,4.0,0.0
17796,56.0,0.0,30.0,5.0,0.0
17797,86.0,0.0,15.0,8.0,0.0
17798,86.0,13.0,15.0,6.0,0.0
17799,85.0,0.0,15.0,8.0,0.0
17800,85.0,16.0,15.0,6.0,0.0
17801,54.0,0.0,30.0,5.0,0.0
17802,63.0,3.0,30.0,4.0,0.0
17803,86.0,12.0,15.0,8.0,0.0
17804,86.0,0.0,15.0,6.0,0.0
17805,85.0,0.0,15.0,6.0,0.0
17806,85.0,15.0,15.0,8.0,0.0
17807,61.0,3.0,30.0,4.0,0.0
17808,52.0,0.0,30.0,5.0,0.0
17809,86.0,0.0,15.0,8.0,0.0
17810,86.0,12.0,15.0,6.0,0.0
17811,85.0,0.0,15.0,6.0,0.0
17812,85.0,16.0,15.0,8.0,0.0
17813,51.0,4.0,30.0,5.0,0.0
17814,66.0,0.0,60.0,2.0,0.0
17815,66.0,0.0,30.0,4.0,0.0
17816,51.0,0.0,60.0,10.0,0.0
17817,81.0,0.0,60.0,1.0,0.0
17818,63.0,0.0,60.0,7.0,0.0
17819,51.0,0.0,60.0,3.0,0.0
17820,86.0,0.0,15.0,8.0,0.0
17821,86.0,11.0,15.0,6.0,0.0
17822,85.0,0.0,15.0,6.0,0.0
17823,85.0,15.0,15.0,8.0,0.0
17824,56.0,0.0,30.0,5.0,0.0
17825,64.0,4.0,30.0,4.0,0.0
17826,86.0,11.0,15.0,8.0,0.0
17827,86.0,0.0,15.0,6.0,0.0
17828,85.0,16.0,15.0,8.0,0.0
17829,85.0,0.0,15.0,6.0,0.0
17830,54.0,0.0,30.0,5.0,0.0
17831,63.0,5.0,30.0,4.0,0.0
17832,86.0,10.0,15.0,8.0,0.0
17833,86.0,0.0,15.0,6.0,0.0
17834,85.0,15.0,15.0,6.0,0.0
17835,85.0,0.0,15.0,8.0,0.0
17836,56.0,0.0,30.0,5.0,0.0
17837,61.0,5.0,30.0,4.0,0.0
17838,86.0,10.0,15.0,6.0,0.0
17839,86.0,0.0,15.0,8.0,0.0
17840,85.0,10.0,15.0,8.0,0.0
17841,85.0,0.0,15.0,6.0,0.0
17842,52.0,0.0,60.0,10.0,0.0
17843,73.0,0.0,60.0,2.0,0.0
17844,52.0,0.0,30.0,5.0,0.0
17845,64.0,0.0,60.0,7.0,0.0
17846,52.0,0.0,60.0,3.0,0.0
17847,80.0,0.0,60.0,1.0,0.0
17848,86.0,15.0,15.0,6.0,0.0
17849,86.0,0.0,15.0,8.0,0.0
17850,68.0,0.0,30.0,4.0,0.0
17851,85.0,15.0,15.0,8.0,0.0
17852,85.0,0.0,15.0,6.0,0.0
17853,86.0,0.0,15.0,6.0,0.0
17854,56.0,16.0,30.0,5.0,0.0
17855,86.0,15.0,15.0,8.0,0.0
17856,64.0,0.0,30.0,4.0,0.0
17857,85.0,0.0,15.0,6.0,0.0
17858,85.0,0.0,15.0,8.0,0.0
17859,63.0,0.0,30.0,4.0,0.0
17860,54.0,1.0,30.0,5.0,0.0
17861,86.0,0.0,15.0,8.0,0.0
17862,86.0,14.0,15.0,6.0,0.0
17863,85.0,15.0,15.0,8.0,0.0
17864,85.0,0.0,15.0,6.0,0.0
17865,52.0,1.0,30.0,5.0,0.0
17866,61.0,0.0,30.0,4.0,0.0
17867,86.0,14.0,15.0,6.0,0.0
17868,86.0,0.0,15.0,8.0,0.0
17869,85.0,0.0,15.0,6.0,0.0
17870,85.0,16.0,15.0,8.0,0.0
17871,54.0,2.0,60.0,10.0,0.0
17872,69.0,0.0,60.0,2.0,0.0
17873,78.0,0.0,60.0,1.0,0.0
17874,54.0,0.0,60.0,3.0,0.0
17875,69.0,0.0,30.0,4.0,0.0
17876,54.0,2.0,30.0,5.0,0.0
17877,66.0,0.0,60.0,7.0,0.0
17878,86.0,13.0,15.0,8.0,0.0
17879,86.0,0.0,15.0,6.0,0.0
17880,85.0,15.0,15.0,8.0,0.0
17881,85.0,0.0,15.0,6.0,0.0
17882,66.0,0.0,30.0,4.0,0.0
17883,57.0,0.0,30.0,5.0,0.0
17884,86.0,0.0,15.0,8.0,0.0
17885,86.0,13.0,15.0,6.0,0.0
17886,85.0,0.0,15.0,6.0,0.0
17887,85.0,16.0,15.0,8.0,0.0
17888,64.0,0.0,30.0,4.0,0.0
17889,56.0,3.0,30.0,5.0,0.0
17890,86.0,12.0,15.0,8.0,0.0
17891,86.0,0.0,15.0,6.0,0.0
17892,85.0,0.0,15.0,8.0,0.0
17893,85.0,15.0,15.0,6.0,0.0
17894,63.0,0.0,30.0,4.0,0.0
17895,54.0,3.0,30.0,5.0,0.0
17896,86.0,0.0,15.0,6.0,0.0
17897,86.0,12.0,15.0,8.0,0.0
17898,85.0,0.0,15.0,6.0,0.0
17899,85.0,16.0,15.0,8.0,0.0
17900,68.0,4.0,30.0,4.0,0.0
17901,73.0,4.0,60.0,2.0,0.0
17902,52.0,0.0,60.0,10.0,0.0
17903,64.0,0.0,60.0,7.0,0.0
17904,52.0,0.0,30.0,5.0,0.0
17905,52.0,0.0,60.0,3.0,0.0
17906,80.0,0.0,60.0,1.0,0.0
17907,86.0,11.0,15.0,8.0,0.0
17908,86.0,0.0,15.0,6.0,0.0
17909,85.0,0.0,15.0,6.0,0.0
17910,85.0,15.0,15.0,8.0,0.0
17911,56.0,0.0,30.0,5.0,0.0
17912,64.0,0.0,30.0,4.0,0.0
17913,86.0,11.0,15.0,6.0,0.0
17914,86.0,0.0,15.0,8.0,0.0
17915,85.0,0.0,15.0,6.0,0.0
17916,85.0,16.0,15.0,8.0,0.0
17917,54.0,0.0,30.0,5.0,0.0
17918,63.0,5.0,30.0,4.0,0.0
17919,86.0,0.0,15.0,8.0,0.0
17920,86.0,10.0,15.0,6.0,0.0
17921,85.0,15.0,15.0,6.0,0.0
17922,85.0,0.0,15.0,8.0,0.0
17923,52.0,5.0,30.0,5.0,0.0
17924,61.0,0.0,30.0,4.0,0.0
17925,86.0,0.0,15.0,6.0,0.0
17926,86.0,10.0,15.0,8.0,0.0
17927,85.0,0.0,15.0,6.0,0.0
17928,85.0,10.0,15.0,8.0,0.0
17929,86.0,15.0,15.0,6.0,0.0
17930,81.0,0.0,60.0,1.0,0.0
17931,51.0,15.0,30.0,5.0,0.0
17932,63.0,21.0,60.0,7.0,0.0
17933,51.0,0.0,60.0,3.0,0.0
17934,66.0,0.0,30.0,4.0,0.0
17935,66.0,0.0,60.0,2.0,0.0
17936,51.0,0.0,60.0,10.0,0.0
17937,86.0,0.0,15.0,8.0,0.0
17938,85.0,0.0,15.0,8.0,0.0
17939,85.0,0.0,15.0,6.0,0.0
17940,56.0,0.0,30.0,5.0,0.0
17941,86.0,0.0,15.0,8.0,0.0
17942,86.0,15.0,15.0,6.0,0.0
17943,64.0,0.0,30.0,4.0,0.0
17944,85.0,0.0,15.0,8.0,0.0
17945,85.0,0.0,15.0,6.0,0.0
17946,86.0,0.0,20.0,6.0,0.0
17947,86.0,9.0,20.0,8.0,0.0
17948,63.0,11.0,30.0,4.0,0.0
17949,54.0,0.0,30.0,5.0,0.0
17950,85.0,0.0,20.0,6.0,0.0
17951,85.0,19.0,20.0,8.0,0.0
17952,61.0,1.0,30.0,4.0,0.0
17953,56.0,0.0,30.0,5.0,0.0
17954,86.0,29.0,20.0,6.0,0.0
17955,86.0,0.0,20.0,8.0,0.0
17956,73.0,0.0,60.0,2.0,0.0
17957,52.0,0.0,60.0,3.0,0.0
17958,68.0,30.0,30.0,4.0,0.0
17959,52.0,0.0,60.0,10.0,0.0
17960,85.0,0.0,60.0,6.0,0.0
17961,64.0,0.0,60.0,7.0,0.0
17962,85.0,0.0,30.0,8.0,0.0
17963,52.0,0.0,60.0,5.0,0.0
17964,80.0,0.0,60.0,1.0,0.0
17965,60.0,0.0,30.0,4.0,0.0
17966,80.0,1.0,30.0,8.0,0.0
17967,54.0,0.0,60.0,3.0,0.0
17968,54.0,0.0,60.0,5.0,0.0
17969,81.0,30.0,30.0,8.0,0.0
17970,87.0,0.0,60.0,6.0,0.0
17971,66.0,0.0,60.0,7.0,0.0
17972,66.0,0.0,60.0,2.0,0.0
17973,61.0,0.0,30.0,4.0,0.0
17974,54.0,0.0,60.0,10.0,0.0
17975,81.0,30.0,60.0,1.0,0.0
17976,87.0,0.0,60.0,0.0,0.0
17977,78.0,0.0,30.0,8.0,0.0
17978,69.0,0.0,30.0,4.0,0.0
17979,80.0,0.0,60.0,6.0,0.0
17980,72.0,30.0,30.0,8.0,0.0
17981,80.0,0.0,60.0,0.0,0.0
17982,56.0,0.0,60.0,3.0,0.0
17983,80.0,0.0,60.0,1.0,0.0
17984,63.0,0.0,90.0,4.0,0.0
17985,56.0,0.0,60.0,5.0,0.0
17986,63.0,0.0,60.0,2.0,0.0
17987,68.0,0.0,60.0,7.0,0.0
17988,56.0,0.0,60.0,10.0,0.0
17989,75.0,30.0,30.0,8.0,0.0
17990,84.0,0.0,60.0,0.0,0.0
17991,68.0,0.0,60.0,2.0,0.0
17992,78.0,0.0,60.0,1.0,0.0
17993,44.0,0.0,60.0,3.0,0.0
17994,78.0,30.0,30.0,8.0,0.0
17995,44.0,30.0,60.0,5.0,0.0
17996,56.0,0.0,60.0,7.0,0.0
17997,84.0,0.0,60.0,6.0,0.0
17998,44.0,0.0,60.0,10.0,0.0
17999,61.0,0.0,30.0,4.0,0.0
18000,80.0,0.0,30.0,8.0,0.0
18001,49.0,0.0,60.0,5.0,0.0
18002,49.0,30.0,120.0,3.0,0.0
18003,49.0,0.0,60.0,10.0,0.0
18004,61.0,0.0,60.0,7.0,0.0
18005,76.0,30.0,30.0,8.0,0.0
18006,85.0,0.0,60.0,0.0,0.0
18007,85.0,0.0,60.0,6.0,0.0
18008,76.0,0.0,60.0,1.0,0.0
18009,61.0,0.0,60.0,4.0,0.0
18010,68.0,0.0,60.0,2.0,0.0
18011,72.0,30.0,30.0,8.0,0.0
18012,73.0,30.0,30.0,8.0,0.0
18013,52.0,0.0,60.0,10.0,0.0
18014,68.0,0.0,30.0,8.0,0.0
18015,54.0,30.0,60.0,10.0,0.0
18016,69.0,30.0,30.0,8.0,0.0
18017,66.0,0.0,30.0,8.0,0.0
18018,64.0,30.0,30.0,8.0,0.0
18019,60.0,30.0,60.0,10.0,0.0
18020,63.0,0.0,30.0,8.0,0.0
18021,49.0,0.0,120.0,3.0,0.0
18022,73.0,30.0,30.0,8.0,0.0
18023,64.0,29.0,60.0,8.0,0.0
18024,61.0,1.0,60.0,10.0,0.0
18025,68.0,0.0,30.0,8.0,0.0
18026,69.0,0.0,30.0,8.0,0.0
18027,49.0,30.0,30.0,10.0,0.0
18028,51.0,30.0,30.0,10.0,0.0
18029,66.0,0.0,30.0,8.0,0.0
18030,68.0,30.0,30.0,8.0,0.0
18031,52.0,0.0,60.0,10.0,0.0
18032,64.0,30.0,30.0,8.0,0.0
18033,54.0,30.0,60.0,10.0,0.0
18034,63.0,30.0,30.0,8.0,0.0
18035,61.0,0.0,30.0,8.0,0.0
18036,49.0,30.0,60.0,3.0,0.0
18037,56.0,0.0,30.0,10.0,0.0
18038,64.0,30.0,30.0,8.0,0.0
18039,61.0,0.0,30.0,10.0,0.0
18040,68.0,0.0,30.0,8.0,0.0
18041,73.0,0.0,30.0,8.0,0.0
18042,64.0,30.0,30.0,10.0,0.0
18043,51.0,0.0,60.0,3.0,0.0
18044,72.0,30.0,30.0,8.0,0.0
18045,63.0,0.0,30.0,10.0,0.0
18046,56.0,30.0,30.0,10.0,0.0
18047,52.0,0.0,60.0,3.0,0.0
18048,73.0,0.0,30.0,8.0,0.0
18049,76.0,0.0,30.0,8.0,0.0
18050,61.0,30.0,30.0,10.0,0.0
18051,75.0,0.0,30.0,8.0,0.0
18052,66.0,30.0,30.0,10.0,0.0
18053,54.0,0.0,60.0,3.0,0.0
18054,64.0,0.0,30.0,10.0,0.0
18055,73.0,30.0,30.0,8.0,0.0
18056,63.0,0.0,60.0,10.0,0.0
18057,72.0,30.0,30.0,8.0,0.0
18058,56.0,0.0,120.0,3.0,0.0
18059,78.0,30.0,30.0,8.0,0.0
18060,80.0,30.0,30.0,8.0,0.0
18061,60.0,0.0,60.0,10.0,0.0
18062,75.0,30.0,30.0,8.0,0.0
18063,61.0,0.0,60.0,10.0,0.0
18064,76.0,30.0,30.0,8.0,0.0
18065,73.0,30.0,30.0,8.0,0.0
18066,72.0,30.0,30.0,8.0,0.0
18067,67.0,30.0,60.0,10.0,0.0
18068,70.0,0.0,30.0,8.0,0.0
18069,68.0,0.0,60.0,10.0,0.0
18070,56.0,0.0,120.0,3.0,0.0
18071,72.0,29.0,60.0,8.0,0.0
18072,80.0,30.0,30.0,8.0,0.0
18073,75.0,1.0,30.0,8.0,0.0
18074,56.0,0.0,30.0,10.0,0.0
18075,76.0,30.0,30.0,8.0,0.0
18076,73.0,30.0,30.0,8.0,0.0
18077,58.0,0.0,30.0,10.0,0.0
18078,75.0,30.0,30.0,8.0,0.0
18079,60.0,30.0,60.0,10.0,0.0
18080,72.0,0.0,30.0,8.0,0.0
18081,61.0,30.0,60.0,10.0,0.0
18082,70.0,30.0,30.0,8.0,0.0
18083,68.0,0.0,30.0,8.0,0.0
18084,56.0,30.0,60.0,3.0,0.0
18085,63.0,0.0,30.0,10.0,0.0
18086,72.0,30.0,30.0,8.0,0.0
18087,75.0,0.0,30.0,8.0,0.0
18088,66.0,0.0,30.0,10.0,0.0
18089,78.0,0.0,30.0,8.0,0.0
18090,69.0,30.0,30.0,10.0,0.0
18091,51.0,30.0,60.0,3.0,0.0
18092,66.0,0.0,30.0,10.0,0.0
18093,81.0,0.0,30.0,8.0,0.0
18094,48.0,0.0,60.0,3.0,0.0
18095,80.0,0.0,30.0,8.0,0.0
18096,63.0,30.0,30.0,10.0,0.0
18097,78.0,30.0,30.0,8.0,0.0
18098,68.0,0.0,30.0,10.0,0.0
18099,72.0,0.0,30.0,10.0,0.0
18100,76.0,30.0,30.0,8.0,0.0
18101,44.0,30.0,60.0,3.0,0.0
18102,68.0,0.0,30.0,10.0,0.0
18103,75.0,0.0,30.0,8.0,0.0
18104,61.0,30.0,60.0,10.0,0.0
18105,76.0,30.0,30.0,8.0,0.0
18106,49.0,0.0,120.0,3.0,0.0
18107,80.0,0.0,30.0,8.0,0.0
18108,64.0,30.0,60.0,10.0,0.0
18109,73.0,30.0,30.0,8.0,0.0
18110,75.0,0.0,30.0,8.0,0.0
18111,76.0,30.0,30.0,8.0,0.0
18112,68.0,0.0,60.0,10.0,0.0
18113,78.0,30.0,30.0,8.0,0.0
18114,66.0,30.0,60.0,10.0,0.0
18115,80.0,30.0,30.0,8.0,0.0
18116,81.0,0.0,30.0,8.0,0.0
18117,49.0,0.0,120.0,3.0,0.0
18118,65.0,30.0,60.0,10.0,0.0
18119,83.0,30.0,30.0,8.0,0.0
18120,81.0,0.0,30.0,8.0,0.0
18121,83.0,30.0,30.0,8.0,0.0
18122,61.0,0.0,60.0,10.0,0.0
18123,78.0,30.0,30.0,8.0,0.0
18124,65.0,0.0,60.0,10.0,0.0
18125,80.0,30.0,30.0,8.0,0.0
18126,77.0,30.0,30.0,8.0,0.0
18127,68.0,30.0,60.0,10.0,0.0
18128,75.0,30.0,30.0,8.0,0.0
18129,73.0,0.0,30.0,8.0,0.0
18130,86.0,30.0,30.0,8.0,0.0
18131,49.0,0.0,120.0,3.0,0.0
18132,71.0,0.0,60.0,10.0,0.0
18133,80.0,30.0,30.0,8.0,0.0
18134,73.0,0.0,60.0,10.0,0.0
18135,81.0,30.0,30.0,8.0,0.0
18136,78.0,30.0,30.0,8.0,0.0
18137,71.0,0.0,60.0,10.0,0.0
18138,80.0,30.0,30.0,8.0,0.0
18139,77.0,30.0,30.0,8.0,0.0
18140,75.0,30.0,30.0,8.0,0.0
18141,69.0,30.0,60.0,10.0,0.0
18142,73.0,0.0,30.0,8.0,0.0
18143,61.0,30.0,60.0,3.0,0.0
18144,68.0,30.0,30.0,10.0,0.0
18145,77.0,0.0,30.0,8.0,0.0
18146,71.0,0.0,30.0,10.0,0.0
18147,80.0,0.0,30.0,8.0,0.0
18148,56.0,0.0,60.0,3.0,0.0
18149,74.0,0.0,30.0,10.0,0.0
18150,83.0,30.0,30.0,8.0,0.0
18151,71.0,0.0,30.0,10.0,0.0
18152,86.0,30.0,30.0,8.0,0.0
18153,85.0,30.0,30.0,8.0,0.0
18154,68.0,0.0,30.0,10.0,0.0
18155,53.0,0.0,60.0,3.0,0.0
18156,83.0,0.0,30.0,8.0,0.0
18157,73.0,30.0,30.0,10.0,0.0
18158,49.0,30.0,60.0,3.0,0.0
18159,77.0,0.0,30.0,10.0,0.0
18160,81.0,30.0,30.0,8.0,0.0
18161,73.0,0.0,30.0,10.0,0.0
18162,80.0,0.0,30.0,8.0,0.0
18163,66.0,30.0,60.0,10.0,0.0
18164,81.0,30.0,30.0,8.0,0.0
18165,54.0,30.0,120.0,3.0,0.0
18166,77.0,0.0,30.0,8.0,0.0
18167,78.0,30.0,30.0,8.0,0.0
18168,69.0,0.0,60.0,10.0,0.0
18169,73.0,0.0,30.0,8.0,0.0
18170,59.0,0.0,60.0,10.0,0.0
18171,74.0,30.0,30.0,8.0,0.0
18172,71.0,30.0,30.0,8.0,0.0
18173,62.0,30.0,60.0,10.0,0.0
18174,70.0,30.0,30.0,8.0,0.0
18175,71.0,0.0,30.0,8.0,0.0
18176,79.0,30.0,30.0,8.0,0.0
18177,54.0,30.0,120.0,3.0,0.0
18178,58.0,30.0,60.0,10.0,0.0
18179,74.0,0.0,30.0,8.0,0.0
18180,61.0,0.0,60.0,10.0,0.0
18181,76.0,30.0,30.0,8.0,0.0
18182,71.0,0.0,30.0,8.0,0.0
18183,73.0,30.0,30.0,8.0,0.0
18184,66.0,30.0,60.0,10.0,0.0
18185,70.0,0.0,30.0,8.0,0.0
18186,64.0,0.0,60.0,10.0,0.0
18187,68.0,30.0,30.0,8.0,0.0
18188,70.0,30.0,30.0,8.0,0.0
18189,62.0,30.0,60.0,10.0,0.0
18190,54.0,30.0,120.0,3.0,0.0
18191,78.0,30.0,30.0,8.0,0.0
18192,73.0,0.0,30.0,8.0,0.0
18193,74.0,30.0,30.0,8.0,0.0
18194,66.0,0.0,60.0,10.0,0.0
18195,70.0,0.0,30.0,8.0,0.0
18196,62.0,0.0,60.0,10.0,0.0
18197,71.0,30.0,30.0,8.0,0.0
18198,67.0,30.0,30.0,8.0,0.0
18199,59.0,0.0,60.0,10.0,0.0
18200,66.0,30.0,30.0,8.0,0.0
18201,67.0,30.0,30.0,8.0,0.0
18202,58.0,0.0,60.0,10.0,0.0
18203,54.0,30.0,120.0,3.0,0.0
18204,76.0,30.0,30.0,8.0,0.0
18205,71.0,30.0,30.0,8.0,0.0
18206,73.0,30.0,30.0,8.0,0.0
18207,64.0,0.0,60.0,10.0,0.0
18208,68.0,0.0,30.0,8.0,0.0
18209,70.0,30.0,30.0,8.0,0.0
18210,61.0,30.0,60.0,10.0,0.0
18211,66.0,0.0,30.0,8.0,0.0
18212,58.0,0.0,60.0,10.0,0.0
18213,65.0,30.0,30.0,8.0,0.0
18214,66.0,30.0,30.0,8.0,0.0
18215,54.0,0.0,30.0,10.0,0.0
18216,70.0,30.0,30.0,8.0,0.0
18217,73.0,0.0,30.0,8.0,0.0
18218,58.0,30.0,30.0,10.0,0.0
18219,76.0,0.0,30.0,8.0,0.0
18220,61.0,30.0,30.0,10.0,0.0
18221,54.0,0.0,60.0,3.0,0.0
18222,79.0,0.0,30.0,8.0,0.0
18223,64.0,30.0,30.0,10.0,0.0
18224,78.0,30.0,30.0,8.0,0.0
18225,54.0,30.0,60.0,3.0,0.0
18226,62.0,0.0,30.0,10.0,0.0
18227,76.0,0.0,30.0,8.0,0.0
18228,61.0,0.0,30.0,10.0,0.0
18229,54.0,0.0,60.0,3.0,0.0
18230,74.0,0.0,30.0,8.0,0.0
18231,59.0,30.0,30.0,10.0,0.0
18232,58.0,30.0,30.0,10.0,0.0
18233,73.0,0.0,30.0,8.0,0.0
18234,74.0,30.0,30.0,8.0,0.0
18235,59.0,0.0,30.0,10.0,0.0
18236,71.0,0.0,30.0,8.0,0.0
18237,54.0,30.0,30.0,10.0,0.0
18238,74.0,30.0,30.0,8.0,0.0
18239,59.0,0.0,30.0,10.0,0.0
18240,59.0,30.0,60.0,3.0,0.0
18241,62.0,0.0,30.0,10.0,0.0
18242,78.0,0.0,30.0,8.0,0.0
18243,59.0,0.0,60.0,3.0,0.0
18244,74.0,0.0,30.0,8.0,0.0
18245,66.0,30.0,30.0,10.0,0.0
18246,71.0,0.0,30.0,8.0,0.0
18247,62.0,30.0,30.0,10.0,0.0
18248,59.0,30.0,30.0,10.0,0.0
18249,74.0,0.0,30.0,8.0,0.0
18250,59.0,0.0,60.0,3.0,0.0
18251,69.0,0.0,30.0,8.0,0.0
18252,62.0,30.0,30.0,10.0,0.0
18253,52.0,0.0,30.0,10.0,0.0
18254,68.0,30.0,30.0,8.0,0.0
18255,56.0,0.0,30.0,10.0,0.0
18256,71.0,30.0,30.0,8.0,0.0
18257,59.0,0.0,30.0,10.0,0.0
18258,74.0,30.0,30.0,8.0,0.0
18259,52.0,0.0,60.0,3.0,0.0
18260,78.0,30.0,30.0,8.0,0.0
18261,62.0,0.0,30.0,10.0,0.0
18262,76.0,30.0,30.0,8.0,0.0
18263,61.0,0.0,30.0,10.0,0.0
18264,52.0,0.0,60.0,3.0,0.0
18265,59.0,30.0,30.0,10.0,0.0
18266,74.0,0.0,30.0,8.0,0.0
18267,57.0,30.0,30.0,10.0,0.0
18268,73.0,0.0,30.0,8.0,0.0
18269,52.0,0.0,60.0,3.0,0.0
18270,71.0,30.0,30.0,8.0,0.0
18271,56.0,0.0,30.0,10.0,0.0
18272,61.0,0.0,30.0,10.0,0.0
18273,73.0,30.0,30.0,8.0,0.0
18274,52.0,30.0,30.0,10.0,0.0
18275,69.0,0.0,30.0,8.0,0.0
18276,57.0,0.0,30.0,10.0,0.0
18277,73.0,30.0,30.0,8.0,0.0
18278,57.0,0.0,60.0,3.0,0.0
18279,61.0,0.0,30.0,10.0,0.0
18280,76.0,30.0,30.0,8.0,0.0
18281,64.0,30.0,30.0,10.0,0.0
18282,73.0,0.0,30.0,8.0,0.0
18283,57.0,0.0,60.0,3.0,0.0
18284,61.0,30.0,30.0,10.0,0.0
18285,69.0,0.0,30.0,8.0,0.0
18286,73.0,0.0,30.0,8.0,0.0
18287,57.0,30.0,30.0,10.0,0.0
18288,57.0,0.0,60.0,3.0,0.0
18289,67.0,30.0,30.0,8.0,0.0
18290,61.0,0.0,30.0,10.0,0.0
18291,66.0,0.0,60.0,8.0,0.0
18292,50.0,30.0,30.0,10.0,0.0
18293,57.0,30.0,30.0,10.0,0.0
18294,50.0,0.0,60.0,3.0,0.0
18295,78.0,0.0,30.0,8.0,0.0
18296,62.0,30.0,30.0,10.0,0.0
18297,64.0,0.0,30.0,10.0,0.0
18298,79.0,30.0,30.0,8.0,0.0
18299,81.0,0.0,60.0,8.0,0.0
18300,50.0,0.0,60.0,3.0,0.0
18301,66.0,30.0,30.0,10.0,0.0
18302,67.0,30.0,30.0,10.0,0.0
18303,82.0,30.0,120.0,8.0,0.0
18304,50.0,30.0,60.0,3.0,0.0
18305,66.0,30.0,30.0,10.0,0.0
18306,67.0,0.0,30.0,10.0,0.0
18307,66.0,30.0,30.0,10.0,0.0
18308,67.0,0.0,30.0,10.0,0.0
18309,51.0,30.0,60.0,3.0,0.0
18310,66.0,30.0,30.0,10.0,0.0
18311,83.0,0.0,60.0,8.0,0.0
18312,64.0,0.0,30.0,10.0,0.0
18313,51.0,0.0,60.0,3.0,0.0
18314,71.0,30.0,60.0,8.0,0.0
18315,63.0,30.0,30.0,10.0,0.0
18316,66.0,0.0,30.0,10.0,0.0
18317,51.0,30.0,60.0,3.0,0.0
18318,81.0,0.0,120.0,8.0,0.0
18319,59.0,30.0,30.0,10.0,0.0
18320,63.0,0.0,30.0,10.0,0.0
18321,52.0,30.0,30.0,10.0,0.0
18322,59.0,30.0,30.0,10.0,0.0
18323,64.0,0.0,30.0,10.0,0.0
18324,52.0,30.0,60.0,3.0,0.0
18325,80.0,30.0,30.0,8.0,0.0
18326,81.0,0.0,30.0,8.0,0.0
18327,66.0,0.0,30.0,10.0,0.0
18328,83.0,30.0,60.0,8.0,0.0
18329,52.0,0.0,60.0,3.0,0.0
18330,68.0,30.0,30.0,10.0,0.0
18331,69.0,0.0,30.0,10.0,0.0
18332,84.0,0.0,120.0,8.0,0.0
18333,52.0,0.0,60.0,3.0,0.0
18334,68.0,30.0,30.0,10.0,0.0
18335,69.0,30.0,30.0,10.0,0.0
18336,68.0,30.0,30.0,10.0,0.0
18337,69.0,30.0,30.0,10.0,0.0
18338,68.0,30.0,30.0,10.0,0.0
18339,85.0,0.0,60.0,8.0,0.0
18340,53.0,30.0,60.0,3.0,0.0
18341,66.0,0.0,30.0,10.0,0.0
18342,53.0,0.0,60.0,3.0,0.0
18343,73.0,0.0,60.0,8.0,0.0
18344,65.0,30.0,30.0,10.0,0.0
18345,68.0,30.0,30.0,10.0,0.0
18346,53.0,30.0,60.0,3.0,0.0
18347,61.0,30.0,30.0,10.0,0.0
18348,83.0,0.0,60.0,8.0,0.0
18349,65.0,0.0,30.0,10.0,0.0
18350,54.0,15.0,30.0,10.0,0.0
18351,81.0,0.0,30.0,8.0,0.0
18352,54.0,30.0,60.0,3.0,0.0
18353,86.0,15.0,15.0,8.0,0.0
18354,66.0,0.0,30.0,10.0,0.0
18355,85.0,0.0,15.0,8.0,0.0
18356,59.0,30.0,30.0,10.0,0.0
18357,86.0,0.0,30.0,8.0,0.0
18358,78.0,0.0,30.0,8.0,0.0
18359,62.0,30.0,30.0,10.0,0.0
18360,80.0,0.0,30.0,8.0,0.0
18361,51.0,0.0,60.0,3.0,0.0
18362,52.0,30.0,30.0,10.0,0.0
18363,76.0,30.0,30.0,8.0,0.0
18364,64.0,0.0,30.0,10.0,0.0
18365,57.0,30.0,30.0,10.0,0.0
18366,85.0,0.0,90.0,8.0,0.0
18367,61.0,30.0,30.0,10.0,0.0
18368,50.0,0.0,60.0,3.0,0.0
18369,50.0,15.0,30.0,10.0,0.0
18370,83.0,15.0,15.0,8.0,0.0
18371,62.0,0.0,30.0,10.0,0.0
18372,82.0,30.0,15.0,8.0,0.0
18373,56.0,0.0,30.0,10.0,0.0
18374,83.0,30.0,30.0,8.0,0.0
18375,59.0,30.0,30.0,10.0,0.0
18376,74.0,0.0,30.0,8.0,0.0
18377,76.0,0.0,30.0,8.0,0.0
18378,49.0,30.0,60.0,3.0,0.0
18379,49.0,30.0,30.0,10.0,0.0
18380,73.0,0.0,30.0,8.0,0.0
18381,61.0,0.0,30.0,10.0,0.0
18382,81.0,0.0,90.0,8.0,0.0
18383,54.0,30.0,30.0,10.0,0.0
18384,57.0,30.0,30.0,10.0,0.0
18385,47.0,0.0,60.0,3.0,0.0
18386,47.0,15.0,30.0,10.0,0.0
18387,59.0,30.0,30.0,10.0,0.0
18388,79.0,15.0,15.0,8.0,0.0
18389,78.0,0.0,15.0,8.0,0.0
18390,52.0,0.0,30.0,10.0,0.0
18391,79.0,30.0,30.0,8.0,0.0
18392,55.0,0.0,30.0,10.0,0.0
18393,71.0,30.0,30.0,8.0,0.0
18394,45.0,0.0,30.0,10.0,0.0
18395,73.0,30.0,30.0,8.0,0.0
18396,45.0,0.0,60.0,3.0,0.0
18397,69.0,30.0,30.0,8.0,0.0
18398,57.0,0.0,30.0,10.0,0.0
18399,78.0,15.0,90.0,8.0,0.0
18400,50.0,30.0,30.0,10.0,0.0
18401,54.0,30.0,30.0,10.0,0.0
18402,44.0,0.0,60.0,3.0,0.0
18403,44.0,0.0,30.0,10.0,0.0
18404,56.0,0.0,30.0,10.0,0.0
18405,77.0,15.0,15.0,8.0,0.0
18406,75.0,30.0,15.0,8.0,0.0
18407,49.0,0.0,30.0,10.0,0.0
18408,77.0,30.0,30.0,8.0,0.0
18409,53.0,0.0,30.0,10.0,0.0
18410,71.0,30.0,30.0,8.0,0.0
18411,69.0,0.0,30.0,8.0,0.0
18412,42.0,30.0,30.0,10.0,0.0
18413,42.0,0.0,60.0,3.0,0.0
18414,45.0,0.0,30.0,10.0,0.0
18415,78.0,30.0,30.0,8.0,0.0
18416,72.0,0.0,30.0,8.0,0.0
18417,44.0,30.0,30.0,10.0,0.0
18418,73.0,0.0,30.0,8.0,0.0
18419,42.0,30.0,30.0,10.0,0.0
18420,68.0,30.0,30.0,8.0,0.0
18421,49.0,30.0,60.0,10.0,0.0
18422,49.0,29.0,300.0,3.0,0.0
18423,77.0,0.0,30.0,8.0,0.0
18424,53.0,0.0,60.0,10.0,0.0
18425,72.0,30.0,30.0,8.0,0.0
18426,73.0,30.0,30.0,8.0,0.0
18427,66.0,30.0,30.0,8.0,0.0
18428,54.0,0.0,60.0,10.0,0.0
18429,81.0,30.0,30.0,8.0,0.0
18430,72.0,30.0,30.0,8.0,0.0
18431,57.0,30.0,60.0,10.0,0.0
18432,73.0,0.0,30.0,8.0,0.0
18433,65.0,30.0,30.0,8.0,0.0
18434,61.0,0.0,60.0,10.0,0.0
18435,80.0,1.0,30.0,8.0,0.0
18436,56.0,0.0,60.0,10.0,0.0
18437,51.0,0.0,60.0,3.0,0.0
18438,72.0,30.0,30.0,8.0,0.0
18439,73.0,30.0,30.0,8.0,0.0
18440,53.0,0.0,60.0,3.0,0.0
18441,53.0,30.0,60.0,10.0,0.0
18442,68.0,30.0,30.0,8.0,0.0
18443,74.0,0.0,30.0,8.0,0.0
18444,49.0,0.0,60.0,10.0,0.0
18445,73.0,30.0,30.0,8.0,0.0
18446,49.0,0.0,60.0,3.0,0.0
18447,71.0,30.0,30.0,8.0,0.0
18448,54.0,0.0,60.0,3.0,0.0
18449,54.0,30.0,30.0,10.0,0.0
18450,61.0,0.0,60.0,6.0,0.0
18451,61.0,0.0,60.0,0.0,0.0
18452,69.0,0.0,60.0,8.0,0.0
18453,54.0,30.0,30.0,7.0,0.0
18454,57.0,0.0,30.0,10.0,0.0
18455,56.0,30.0,30.0,7.0,0.0
18456,61.0,0.0,90.0,10.0,0.0
18457,66.0,0.0,120.0,6.0,0.0
18458,66.0,30.0,120.0,0.0,0.0
18459,57.0,30.0,30.0,7.0,0.0
18460,68.0,0.0,60.0,8.0,0.0
18461,49.0,0.0,60.0,3.0,0.0
18462,49.0,30.0,30.0,7.0,0.0
18463,56.0,0.0,30.0,7.0,0.0
18464,59.0,0.0,30.0,10.0,0.0
18465,65.0,0.0,60.0,0.0,0.0
18466,57.0,30.0,30.0,10.0,0.0
18467,57.0,0.0,30.0,7.0,0.0
18468,65.0,0.0,60.0,6.0,0.0
18469,59.0,0.0,30.0,7.0,0.0
18470,56.0,30.0,30.0,10.0,0.0
18471,45.0,0.0,60.0,3.0,0.0
18472,57.0,0.0,30.0,10.0,0.0
18473,61.0,30.0,60.0,8.0,0.0
18474,66.0,0.0,60.0,0.0,0.0
18475,49.0,30.0,30.0,7.0,0.0
18476,66.0,0.0,60.0,6.0,0.0
18477,61.0,0.0,60.0,1.0,0.0
18478,54.0,0.0,30.0,10.0,0.0
18479,57.0,0.0,30.0,7.0,0.0
18480,56.0,0.0,30.0,10.0,0.0
18481,66.0,0.0,120.0,1.0,0.0
18482,59.0,30.0,30.0,7.0,0.0
18483,66.0,0.0,120.0,8.0,0.0
18484,61.0,30.0,30.0,7.0,0.0
18485,57.0,0.0,30.0,10.0,0.0
18486,49.0,0.0,60.0,3.0,0.0
18487,68.0,30.0,60.0,6.0,0.0
18488,49.0,30.0,30.0,10.0,0.0
18489,68.0,0.0,60.0,0.0,0.0
18490,49.0,0.0,30.0,7.0,0.0
18491,56.0,0.0,30.0,10.0,0.0
18492,59.0,0.0,30.0,7.0,0.0
18493,65.0,0.0,60.0,8.0,0.0
18494,57.0,0.0,30.0,10.0,0.0
18495,65.0,30.0,60.0,1.0,0.0
18496,61.0,30.0,30.0,7.0,0.0
18497,59.0,0.0,30.0,10.0,0.0
18498,62.0,0.0,30.0,7.0,0.0
18499,49.0,0.0,30.0,7.0,0.0
18500,69.0,0.0,60.0,6.0,0.0
18501,42.0,0.0,60.0,3.0,0.0
18502,49.0,30.0,30.0,10.0,0.0
18503,66.0,0.0,60.0,1.0,0.0
18504,69.0,0.0,60.0,0.0,0.0
18505,66.0,30.0,60.0,8.0,0.0
18506,61.0,0.0,30.0,7.0,0.0
18507,57.0,0.0,30.0,10.0,0.0
18508,59.0,0.0,30.0,7.0,0.0
18509,68.0,0.0,30.0,0.0,0.0
18510,59.0,30.0,30.0,10.0,0.0
18511,68.0,0.0,30.0,6.0,0.0
18512,57.0,0.0,30.0,7.0,0.0
18513,66.0,30.0,30.0,6.0,0.0
18514,61.0,0.0,30.0,10.0,0.0
18515,66.0,0.0,30.0,0.0,0.0
18516,49.0,0.0,60.0,3.0,0.0
18517,68.0,0.0,60.0,1.0,0.0
18518,49.0,0.0,30.0,10.0,0.0
18519,49.0,30.0,30.0,7.0,0.0
18520,68.0,0.0,60.0,8.0,0.0
18521,65.0,0.0,30.0,6.0,0.0
18522,65.0,0.0,30.0,0.0,0.0
18523,68.0,30.0,30.0,6.0,0.0
18524,59.0,0.0,30.0,10.0,0.0
18525,68.0,0.0,30.0,0.0,0.0
18526,59.0,0.0,30.0,7.0,0.0
18527,57.0,0.0,30.0,7.0,0.0
18528,66.0,0.0,30.0,6.0,0.0
18529,61.0,30.0,30.0,10.0,0.0
18530,66.0,0.0,30.0,0.0,0.0
18531,65.0,0.0,30.0,6.0,0.0
18532,65.0,0.0,30.0,0.0,0.0
18533,62.0,30.0,30.0,10.0,0.0
18534,56.0,0.0,30.0,7.0,0.0
18535,66.0,0.0,60.0,0.0,0.0
18536,69.0,0.0,60.0,1.0,0.0
18537,69.0,0.0,60.0,8.0,0.0
18538,54.0,30.0,30.0,7.0,0.0
18539,49.0,0.0,30.0,10.0,0.0
18540,45.0,0.0,60.0,3.0,0.0
18541,66.0,30.0,60.0,6.0,0.0
18542,63.0,0.0,30.0,7.0,0.0
18543,61.0,0.0,30.0,10.0,0.0
18544,59.0,30.0,30.0,10.0,0.0
18545,68.0,0.0,30.0,1.0,0.0
18546,65.0,0.0,30.0,7.0,0.0
18547,68.0,0.0,30.0,8.0,0.0
18548,73.0,0.0,120.0,0.0,0.0
18549,73.0,0.0,120.0,6.0,0.0
18550,66.0,0.0,30.0,8.0,0.0
18551,57.0,0.0,30.0,10.0,0.0
18552,66.0,0.0,30.0,7.0,0.0
18553,66.0,30.0,30.0,1.0,0.0
18554,65.0,0.0,30.0,1.0,0.0
18555,49.0,0.0,30.0,10.0,0.0
18556,49.0,0.0,60.0,3.0,0.0
18557,65.0,0.0,30.0,8.0,0.0
18558,61.0,30.0,30.0,7.0,0.0
18559,68.0,0.0,30.0,1.0,0.0
18560,59.0,30.0,30.0,10.0,0.0
18561,65.0,0.0,30.0,7.0,0.0
18562,68.0,0.0,30.0,8.0,0.0
18563,66.0,30.0,30.0,7.0,0.0
18564,66.0,0.0,30.0,1.0,0.0
18565,71.0,0.0,60.0,0.0,0.0
18566,71.0,0.0,60.0,6.0,0.0
18567,66.0,0.0,30.0,8.0,0.0
18568,57.0,0.0,30.0,10.0,0.0
18569,65.0,0.0,30.0,1.0,0.0
18570,68.0,30.0,30.0,7.0,0.0
18571,65.0,0.0,30.0,8.0,0.0
18572,56.0,0.0,30.0,10.0,0.0
18573,61.0,30.0,30.0,7.0,0.0
18574,54.0,0.0,60.0,3.0,0.0
18575,69.0,0.0,60.0,6.0,0.0
18576,69.0,30.0,60.0,0.0,0.0
18577,66.0,0.0,60.0,8.0,0.0
18578,66.0,0.0,60.0,1.0,0.0
18579,54.0,0.0,30.0,10.0,0.0
18580,57.0,0.0,30.0,7.0,0.0
18581,63.0,0.0,30.0,10.0,0.0
18582,73.0,0.0,120.0,8.0,0.0
18583,65.0,30.0,30.0,10.0,0.0
18584,56.0,0.0,30.0,7.0,0.0
18585,73.0,0.0,120.0,1.0,0.0
18586,66.0,0.0,30.0,10.0,0.0
18587,54.0,30.0,30.0,7.0,0.0
18588,68.0,0.0,60.0,0.0,0.0
18589,61.0,0.0,30.0,10.0,0.0
18590,68.0,0.0,60.0,6.0,0.0
18591,53.0,30.0,60.0,3.0,0.0
18592,61.0,30.0,30.0,7.0,0.0
18593,59.0,0.0,30.0,7.0,0.0
18594,65.0,0.0,30.0,10.0,0.0
18595,66.0,0.0,30.0,10.0,0.0
18596,57.0,30.0,30.0,7.0,0.0
18597,71.0,30.0,60.0,1.0,0.0
18598,71.0,0.0,60.0,8.0,0.0
18599,68.0,0.0,30.0,10.0,0.0
18600,56.0,0.0,30.0,7.0,0.0
18601,66.0,30.0,60.0,0.0,0.0
18602,66.0,0.0,60.0,6.0,0.0
18603,69.0,0.0,60.0,1.0,0.0
18604,57.0,30.0,30.0,7.0,0.0
18605,54.0,0.0,60.0,3.0,0.0
18606,69.0,0.0,60.0,8.0,0.0
18607,61.0,0.0,30.0,10.0,0.0
18608,57.0,0.0,30.0,10.0,0.0
18609,61.0,0.0,30.0,7.0,0.0
18610,56.0,0.0,30.0,10.0,0.0
18611,78.0,0.0,120.0,6.0,0.0
18612,78.0,0.0,120.0,0.0,0.0
18613,59.0,30.0,30.0,7.0,0.0
18614,54.0,30.0,30.0,10.0,0.0
18615,61.0,0.0,30.0,7.0,0.0
18616,61.0,30.0,30.0,10.0,0.0
18617,68.0,0.0,60.0,8.0,0.0
18618,49.0,0.0,30.0,7.0,0.0
18619,49.0,0.0,60.0,3.0,0.0
18620,68.0,30.0,60.0,1.0,0.0
18621,62.0,0.0,30.0,10.0,0.0
18622,56.0,0.0,30.0,7.0,0.0
18623,61.0,30.0,90.0,7.0,0.0
18624,76.0,0.0,60.0,6.0,0.0
18625,61.0,30.0,30.0,10.0,0.0
18626,76.0,30.0,60.0,0.0,0.0
18627,59.0,0.0,30.0,10.0,0.0
18628,74.0,0.0,60.0,0.0,0.0
18629,58.0,0.0,30.0,10.0,0.0
18630,66.0,0.0,60.0,8.0,0.0
18631,50.0,0.0,60.0,3.0,0.0
18632,66.0,0.0,60.0,1.0,0.0
18633,74.0,0.0,60.0,6.0,0.0
18634,59.0,30.0,30.0,7.0,0.0
18635,59.0,0.0,30.0,10.0,0.0
18636,78.0,0.0,120.0,1.0,0.0
18637,78.0,0.0,120.0,8.0,0.0
18638,61.0,0.0,30.0,7.0,0.0
18639,58.0,30.0,30.0,10.0,0.0
18640,62.0,0.0,30.0,7.0,0.0
18641,59.0,30.0,30.0,10.0,0.0
18642,61.0,0.0,30.0,10.0,0.0
18643,46.0,0.0,60.0,3.0,0.0
18644,64.0,30.0,30.0,7.0,0.0
18645,73.0,0.0,60.0,0.0,0.0
18646,73.0,30.0,60.0,6.0,0.0
18647,54.0,0.0,30.0,10.0,0.0
18648,61.0,0.0,30.0,7.0,0.0
18649,58.0,30.0,30.0,7.0,0.0
18650,76.0,0.0,60.0,8.0,0.0
18651,66.0,0.0,90.0,10.0,0.0
18652,76.0,30.0,60.0,1.0,0.0
18653,61.0,0.0,30.0,7.0,0.0
18654,74.0,0.0,30.0,8.0,0.0
18655,59.0,0.0,30.0,5.0,0.0
18656,47.0,0.0,60.0,3.0,0.0
18657,54.0,0.0,30.0,7.0,0.0
18658,74.0,30.0,30.0,6.0,0.0
18659,78.0,30.0,60.0,2.0,0.0
18660,78.0,0.0,60.0,0.0,0.0
18661,74.0,0.0,60.0,1.0,0.0
18662,78.0,0.0,60.0,4.0,0.0
18663,58.0,0.0,30.0,10.0,0.0
18664,78.0,0.0,30.0,6.0,0.0
18665,78.0,0.0,30.0,8.0,0.0
18666,52.0,0.0,30.0,7.0,0.0
18667,61.0,0.0,30.0,5.0,0.0
18668,83.0,0.0,120.0,4.0,0.0
18669,83.0,0.0,120.0,0.0,0.0
18670,50.0,0.0,30.0,7.0,0.0
18671,83.0,0.0,120.0,8.0,0.0
18672,62.0,30.0,30.0,5.0,0.0
18673,59.0,0.0,30.0,10.0,0.0
18674,83.0,0.0,120.0,6.0,0.0
18675,62.0,0.0,30.0,10.0,0.0
18676,54.0,0.0,30.0,7.0,0.0
18677,59.0,30.0,30.0,5.0,0.0
18678,67.0,30.0,30.0,10.0,0.0
18679,61.0,0.0,30.0,5.0,0.0
18680,73.0,0.0,60.0,1.0,0.0
18681,49.0,0.0,60.0,3.0,0.0
18682,76.0,0.0,60.0,2.0,0.0
18683,52.0,0.0,30.0,7.0,0.0
18684,50.0,0.0,30.0,7.0,0.0
18685,62.0,0.0,30.0,5.0,0.0
18686,66.0,30.0,30.0,10.0,0.0
18687,82.0,30.0,60.0,0.0,0.0
18688,64.0,30.0,30.0,10.0,0.0
18689,82.0,0.0,60.0,8.0,0.0
18690,49.0,0.0,30.0,7.0,0.0
18691,82.0,0.0,60.0,4.0,0.0
18692,82.0,0.0,60.0,6.0,0.0
18693,64.0,0.0,30.0,5.0,0.0
18694,54.0,0.0,30.0,7.0,0.0
18695,66.0,0.0,30.0,10.0,0.0
18696,61.0,0.0,30.0,5.0,0.0
18697,83.0,0.0,60.0,0.0,0.0
18698,50.0,0.0,60.0,3.0,0.0
18699,47.0,0.0,30.0,7.0,0.0
18700,62.0,0.0,30.0,10.0,0.0
18701,78.0,30.0,60.0,1.0,0.0
18702,83.0,0.0,60.0,8.0,0.0
18703,62.0,30.0,30.0,5.0,0.0
18704,74.0,0.0,60.0,2.0,0.0
18705,83.0,0.0,60.0,4.0,0.0
18706,83.0,0.0,60.0,6.0,0.0
18707,50.0,0.0,30.0,7.0,0.0
18708,59.0,0.0,30.0,10.0,0.0
18709,66.0,0.0,30.0,5.0,0.0
18710,52.0,0.0,30.0,7.0,0.0
18711,85.0,0.0,120.0,4.0,0.0
18712,85.0,0.0,120.0,6.0,0.0
18713,85.0,0.0,120.0,0.0,0.0
18714,85.0,0.0,120.0,8.0,0.0
18715,64.0,0.0,30.0,5.0,0.0
18716,67.0,30.0,30.0,10.0,0.0
18717,66.0,30.0,30.0,10.0,0.0
18718,62.0,0.0,30.0,5.0,0.0
18719,54.0,0.0,30.0,7.0,0.0
18720,61.0,0.0,30.0,5.0,0.0
18721,52.0,0.0,60.0,3.0,0.0
18722,76.0,0.0,60.0,1.0,0.0
18723,55.0,0.0,30.0,7.0,0.0
18724,64.0,30.0,30.0,10.0,0.0
18725,67.0,0.0,60.0,2.0,0.0
18726,59.0,0.0,30.0,5.0,0.0
18727,52.0,0.0,30.0,7.0,0.0
18728,67.0,30.0,30.0,10.0,0.0
18729,54.0,30.0,30.0,7.0,0.0
18730,86.0,0.0,120.0,4.0,0.0
18731,86.0,0.0,120.0,6.0,0.0
18732,86.0,0.0,120.0,8.0,0.0
18733,58.0,0.0,30.0,5.0,0.0
18734,86.0,0.0,120.0,0.0,0.0
18735,66.0,0.0,30.0,10.0,0.0
18736,56.0,0.0,30.0,5.0,0.0
18737,56.0,0.0,30.0,7.0,0.0
18738,64.0,30.0,30.0,10.0,0.0
18739,58.0,30.0,30.0,7.0,0.0
18740,62.0,0.0,30.0,10.0,0.0
18741,54.0,0.0,60.0,3.0,0.0
18742,54.0,0.0,60.0,5.0,0.0
18743,66.0,0.0,60.0,2.0,0.0
18744,70.0,30.0,60.0,1.0,0.0
18745,54.0,0.0,30.0,7.0,0.0
18746,59.0,0.0,30.0,10.0,0.0
18747,85.0,0.0,30.0,0.0,0.0
18748,67.0,0.0,60.0,10.0,0.0
18749,85.0,30.0,30.0,6.0,0.0
18750,59.0,0.0,60.0,7.0,0.0
18751,85.0,0.0,30.0,4.0,0.0
18752,55.0,0.0,60.0,5.0,0.0
18753,55.0,0.0,60.0,3.0,0.0
18754,62.0,0.0,60.0,2.0,0.0
18755,85.0,0.0,30.0,8.0,0.0
18756,71.0,0.0,60.0,1.0,0.0
18757,83.0,0.0,30.0,6.0,0.0
18758,83.0,0.0,30.0,0.0,0.0
18759,83.0,30.0,30.0,4.0,0.0
18760,83.0,0.0,30.0,8.0,0.0
18761,64.0,0.0,60.0,10.0,0.0
18762,67.0,0.0,60.0,2.0,0.0
18763,86.0,0.0,30.0,6.0,0.0
18764,52.0,0.0,60.0,7.0,0.0
18765,86.0,0.0,30.0,4.0,0.0
18766,76.0,0.0,60.0,1.0,0.0
18767,86.0,30.0,30.0,0.0,0.0
18768,86.0,0.0,30.0,8.0,0.0
18769,52.0,0.0,60.0,5.0,0.0
18770,52.0,0.0,60.0,3.0,0.0
18771,85.0,0.0,30.0,0.0,0.0
18772,85.0,0.0,30.0,6.0,0.0
18773,85.0,30.0,30.0,8.0,0.0
18774,85.0,0.0,30.0,4.0,0.0
18775,73.0,0.0,60.0,1.0,0.0
18776,83.0,0.0,30.0,8.0,0.0
18777,83.0,0.0,30.0,4.0,0.0
18778,54.0,0.0,60.0,3.0,0.0
18779,66.0,0.0,60.0,10.0,0.0
18780,54.0,15.0,60.0,7.0,0.0
18781,66.0,0.0,60.0,2.0,0.0
18782,83.0,30.0,30.0,6.0,0.0
18783,54.0,0.0,60.0,5.0,0.0
18784,83.0,0.0,30.0,0.0,0.0
18785,82.0,0.0,30.0,4.0,0.0
18786,82.0,0.0,30.0,6.0,0.0
18787,82.0,0.0,30.0,0.0,0.0
18788,82.0,0.0,30.0,8.0,0.0
18789,59.0,0.0,60.0,10.0,0.0
18790,47.0,0.0,60.0,3.0,0.0
18791,74.0,0.0,60.0,1.0,0.0
18792,47.0,1.0,60.0,7.0,0.0
18793,83.0,14.0,60.0,0.0,0.0
18794,66.0,0.0,60.0,2.0,0.0
18795,83.0,14.0,30.0,4.0,0.0
18796,83.0,0.0,60.0,8.0,0.0
18797,59.0,15.0,15.0,4.0,0.0
18798,83.0,0.0,60.0,6.0,0.0
18799,66.0,1.0,15.0,4.0,0.0
18800,68.0,15.0,15.0,4.0,0.0
18801,70.0,0.0,15.0,4.0,0.0
18802,59.0,0.0,30.0,3.0,0.0
18803,71.0,15.0,15.0,4.0,0.0
18804,73.0,15.0,15.0,4.0,0.0
18805,74.0,15.0,15.0,4.0,0.0
18806,57.0,15.0,30.0,3.0,0.0
18807,76.0,0.0,15.0,4.0,0.0
18808,74.0,15.0,15.0,4.0,0.0
18809,56.0,15.0,30.0,3.0,0.0
18810,73.0,0.0,15.0,4.0,0.0
18811,71.0,15.0,15.0,4.0,0.0
18812,54.0,0.0,30.0,3.0,0.0
18813,69.0,15.0,15.0,4.0,0.0
18814,68.0,15.0,15.0,4.0,0.0
18815,52.0,15.0,30.0,3.0,0.0
18816,66.0,0.0,15.0,4.0,0.0
18817,50.0,30.0,30.0,3.0,0.0
18818,64.0,15.0,15.0,4.0,0.0
18819,62.0,0.0,15.0,4.0,0.0
18820,61.0,0.0,60.0,7.0,0.0
18821,76.0,0.0,60.0,0.0,0.0
18822,61.0,0.0,30.0,5.0,0.0
18823,76.0,0.0,60.0,8.0,0.0
18824,61.0,0.0,60.0,10.0,0.0
18825,76.0,0.0,60.0,6.0,0.0
18826,81.0,30.0,30.0,4.0,0.0
18827,69.0,30.0,60.0,2.0,0.0
18828,76.0,0.0,60.0,1.0,0.0
18829,49.0,0.0,60.0,3.0,0.0
18830,64.0,0.0,30.0,5.0,0.0
18831,80.0,0.0,30.0,4.0,0.0
18832,78.0,0.0,30.0,4.0,0.0
18833,81.0,0.0,120.0,6.0,0.0
18834,81.0,0.0,120.0,8.0,0.0
18835,81.0,0.0,120.0,0.0,0.0
18836,62.0,30.0,30.0,5.0,0.0
18837,76.0,30.0,30.0,4.0,0.0
18838,61.0,0.0,30.0,5.0,0.0
18839,59.0,0.0,30.0,5.0,0.0
18840,71.0,0.0,60.0,2.0,0.0
18841,59.0,0.0,60.0,7.0,0.0
18842,74.0,0.0,60.0,1.0,0.0
18843,59.0,0.0,60.0,10.0,0.0
18844,81.0,30.0,30.0,4.0,0.0
18845,47.0,0.0,60.0,3.0,0.0
18846,78.0,30.0,30.0,4.0,0.0
18847,62.0,0.0,30.0,5.0,0.0
18848,80.0,30.0,60.0,0.0,0.0
18849,61.0,30.0,30.0,5.0,0.0
18850,76.0,0.0,30.0,4.0,0.0
18851,80.0,0.0,60.0,6.0,0.0
18852,80.0,0.0,60.0,8.0,0.0
18853,74.0,0.0,30.0,4.0,0.0
18854,59.0,0.0,30.0,5.0,0.0
18855,81.0,0.0,60.0,6.0,0.0
18856,81.0,30.0,60.0,8.0,0.0
18857,81.0,0.0,60.0,0.0,0.0
18858,57.0,0.0,60.0,10.0,0.0
18859,57.0,0.0,30.0,5.0,0.0
18860,76.0,0.0,60.0,2.0,0.0
18861,45.0,0.0,60.0,3.0,0.0
18862,57.0,0.0,60.0,7.0,0.0
18863,73.0,0.0,60.0,1.0,0.0
18864,81.0,30.0,30.0,4.0,0.0
18865,76.0,0.0,30.0,4.0,0.0
18866,61.0,0.0,30.0,5.0,0.0
18867,83.0,0.0,120.0,0.0,0.0
18868,66.0,30.0,30.0,5.0,0.0
18869,74.0,0.0,30.0,4.0,0.0
18870,83.0,0.0,120.0,8.0,0.0
18871,83.0,0.0,120.0,6.0,0.0
18872,64.0,30.0,30.0,5.0,0.0
18873,73.0,0.0,30.0,4.0,0.0
18874,81.0,30.0,30.0,4.0,0.0
18875,56.0,0.0,60.0,10.0,0.0
18876,44.0,0.0,60.0,3.0,0.0
18877,74.0,0.0,60.0,2.0,0.0
18878,78.0,0.0,60.0,1.0,0.0
18879,56.0,0.0,60.0,7.0,0.0
18880,62.0,0.0,30.0,5.0,0.0
18881,59.0,0.0,30.0,5.0,0.0
18882,74.0,30.0,30.0,4.0,0.0
18883,73.0,0.0,30.0,4.0,0.0
18884,85.0,0.0,120.0,6.0,0.0
18885,85.0,30.0,120.0,8.0,0.0
18886,57.0,30.0,30.0,5.0,0.0
18887,85.0,0.0,120.0,0.0,0.0
18888,71.0,0.0,30.0,4.0,0.0
18889,56.0,30.0,30.0,5.0,0.0
18890,57.0,0.0,60.0,10.0,0.0
18891,73.0,0.0,60.0,2.0,0.0
18892,57.0,0.0,60.0,7.0,0.0
18893,76.0,0.0,60.0,1.0,0.0
18894,61.0,0.0,30.0,5.0,0.0
18895,45.0,0.0,60.0,3.0,0.0
18896,69.0,30.0,30.0,4.0,0.0
18897,85.0,0.0,30.0,4.0,0.0
18898,57.0,0.0,30.0,5.0,0.0
18899,54.0,0.0,60.0,7.0,0.0
18900,66.0,0.0,60.0,5.0,0.0
18901,83.0,0.0,30.0,0.0,0.0
18902,83.0,30.0,30.0,4.0,0.0
18903,83.0,0.0,30.0,6.0,0.0
18904,83.0,0.0,30.0,8.0,0.0
18905,54.0,0.0,60.0,10.0,0.0
18906,73.0,0.0,60.0,2.0,0.0
18907,78.0,0.0,60.0,1.0,0.0
18908,54.0,30.0,60.0,3.0,0.0
18909,81.0,0.0,30.0,6.0,0.0
18910,81.0,0.0,30.0,0.0,0.0
18911,81.0,0.0,30.0,8.0,0.0
18912,81.0,0.0,30.0,4.0,0.0
18913,50.0,0.0,60.0,3.0,0.0
18914,62.0,0.0,60.0,5.0,0.0
18915,50.0,0.0,60.0,10.0,0.0
18916,85.0,0.0,30.0,0.0,0.0
18917,85.0,0.0,30.0,6.0,0.0
18918,50.0,0.0,60.0,7.0,0.0
18919,74.0,0.0,60.0,2.0,0.0
18920,85.0,30.0,30.0,4.0,0.0
18921,78.0,0.0,60.0,1.0,0.0
18922,85.0,0.0,30.0,8.0,0.0
18923,83.0,0.0,30.0,4.0,0.0
18924,83.0,0.0,30.0,0.0,0.0
18925,83.0,30.0,30.0,6.0,0.0
18926,83.0,0.0,30.0,8.0,0.0
18927,81.0,0.0,30.0,4.0,0.0
18928,52.0,0.0,60.0,10.0,0.0
18929,71.0,0.0,60.0,2.0,0.0
18930,81.0,30.0,30.0,0.0,0.0
18931,76.0,0.0,60.0,1.0,0.0
18932,64.0,0.0,60.0,5.0,0.0
18933,52.0,0.0,60.0,7.0,0.0
18934,81.0,0.0,30.0,6.0,0.0
18935,52.0,0.0,60.0,3.0,0.0
18936,81.0,0.0,30.0,8.0,0.0
18937,80.0,0.0,30.0,8.0,0.0
18938,80.0,15.0,30.0,6.0,0.0
18939,80.0,0.0,30.0,4.0,0.0
18940,80.0,0.0,30.0,0.0,0.0
18941,57.0,15.0,15.0,6.0,0.0
18942,81.0,0.0,60.0,0.0,0.0
18943,81.0,0.0,60.0,8.0,0.0
18944,76.0,0.0,60.0,1.0,0.0
18945,81.0,0.0,60.0,6.0,0.0
18946,81.0,0.0,60.0,4.0,0.0
18947,57.0,15.0,60.0,5.0,0.0
18948,73.0,0.0,60.0,2.0,0.0
18949,45.0,0.0,60.0,10.0,0.0
18950,45.0,0.0,60.0,3.0,0.0
18951,64.0,15.0,15.0,6.0,0.0
18952,66.0,15.0,15.0,6.0,0.0
18953,68.0,0.0,15.0,6.0,0.0
18954,61.0,15.0,30.0,3.0,0.0
18955,69.0,15.0,15.0,6.0,0.0
18956,71.0,0.0,15.0,6.0,0.0
18957,59.0,0.0,30.0,3.0,0.0
18958,73.0,15.0,15.0,6.0,0.0
18959,74.0,15.0,15.0,6.0,0.0
18960,57.0,15.0,30.0,3.0,0.0
18961,73.0,15.0,15.0,6.0,0.0
18962,69.0,0.0,15.0,6.0,0.0
18963,71.0,15.0,15.0,6.0,0.0
18964,56.0,0.0,30.0,3.0,0.0
18965,73.0,15.0,15.0,6.0,0.0
18966,54.0,15.0,30.0,3.0,0.0
18967,74.0,15.0,15.0,6.0,0.0
18968,76.0,0.0,15.0,6.0,0.0
18969,78.0,15.0,15.0,6.0,0.0
18970,52.0,30.0,30.0,3.0,0.0
18971,80.0,0.0,15.0,6.0,0.0
18972,51.0,0.0,60.0,10.0,0.0
18973,51.0,0.0,60.0,5.0,0.0
18974,51.0,0.0,60.0,3.0,0.0
18975,71.0,0.0,60.0,4.0,0.0
18976,59.0,30.0,30.0,7.0,0.0
18977,71.0,0.0,60.0,8.0,0.0
18978,66.0,0.0,60.0,8.0,0.0
18979,81.0,0.0,30.0,6.0,0.0
18980,69.0,30.0,60.0,2.0,0.0
18981,78.0,0.0,60.0,4.0,0.0
18982,71.0,0.0,60.0,1.0,0.0
18983,71.0,0.0,60.0,0.0,0.0
18984,75.0,0.0,30.0,6.0,0.0
18985,66.0,0.0,30.0,7.0,0.0
18986,71.0,0.0,60.0,1.0,0.0
18987,51.0,0.0,60.0,10.0,0.0
18988,71.0,0.0,60.0,8.0,0.0
18989,66.0,0.0,60.0,8.0,0.0
18990,51.0,0.0,60.0,5.0,0.0
18991,69.0,0.0,60.0,2.0,0.0
18992,71.0,0.0,60.0,4.0,0.0
18993,78.0,0.0,60.0,4.0,0.0
18994,51.0,0.0,60.0,3.0,0.0
18995,78.0,0.0,120.0,0.0,0.0
18996,64.0,0.0,30.0,7.0,0.0
18997,73.0,30.0,30.0,6.0,0.0
18998,63.0,0.0,30.0,7.0,0.0
18999,71.0,30.0,30.0,6.0,0.0
19000,51.0,0.0,60.0,5.0,0.0
19001,71.0,0.0,60.0,1.0,0.0
19002,81.0,0.0,30.0,6.0,0.0
19003,51.0,0.0,60.0,3.0,0.0
19004,59.0,30.0,30.0,7.0,0.0
19005,78.0,0.0,60.0,4.0,0.0
19006,69.0,0.0,60.0,2.0,0.0
19007,51.0,0.0,60.0,10.0,0.0
19008,71.0,0.0,60.0,8.0,0.0
19009,71.0,0.0,60.0,4.0,0.0
19010,66.0,30.0,60.0,8.0,0.0
19011,75.0,0.0,30.0,6.0,0.0
19012,66.0,0.0,30.0,7.0,0.0
19013,69.0,0.0,60.0,8.0,0.0
19014,71.0,0.0,60.0,8.0,0.0
19015,71.0,0.0,60.0,4.0,0.0
19016,78.0,0.0,60.0,4.0,0.0
19017,73.0,0.0,30.0,6.0,0.0
19018,71.0,0.0,60.0,1.0,0.0
19019,81.0,0.0,60.0,0.0,0.0
19020,51.0,0.0,60.0,3.0,0.0
19021,69.0,0.0,60.0,2.0,0.0
19022,51.0,0.0,60.0,5.0,0.0
19023,51.0,0.0,60.0,10.0,0.0
19024,64.0,30.0,30.0,7.0,0.0
19025,63.0,15.0,30.0,7.0,0.0
19026,71.0,0.0,30.0,6.0,0.0
19027,64.0,0.0,60.0,7.0,0.0
19028,52.0,0.0,60.0,3.0,0.0
19029,52.0,0.0,60.0,5.0,0.0
19030,80.0,0.0,60.0,0.0,0.0
19031,76.0,0.0,60.0,4.0,0.0
19032,80.0,0.0,60.0,4.0,0.0
19033,71.0,15.0,30.0,8.0,0.0
19034,68.0,0.0,60.0,2.0,0.0
19035,52.0,0.0,60.0,7.0,0.0
19036,68.0,0.0,30.0,8.0,0.0
19037,71.0,0.0,60.0,1.0,0.0
19038,80.0,0.0,60.0,6.0,0.0
19039,52.0,15.0,15.0,10.0,0.0
19040,63.0,0.0,15.0,8.0,0.0
19041,64.0,15.0,15.0,8.0,0.0
19042,66.0,15.0,15.0,8.0,0.0
19043,68.0,15.0,15.0,8.0,0.0
19044,52.0,0.0,60.0,3.0,0.0
19045,69.0,15.0,15.0,8.0,0.0
19046,71.0,15.0,15.0,8.0,0.0
19047,73.0,15.0,15.0,8.0,0.0
19048,50.0,15.0,60.0,3.0,0.0
19049,71.0,15.0,15.0,8.0,0.0
19050,68.0,15.0,15.0,8.0,0.0
19051,69.0,15.0,15.0,8.0,0.0
19052,71.0,0.0,15.0,8.0,0.0
19053,50.0,30.0,60.0,3.0,0.0
19054,73.0,15.0,15.0,8.0,0.0
19055,74.0,15.0,15.0,8.0,0.0
19056,76.0,15.0,15.0,8.0,0.0
19057,78.0,0.0,15.0,8.0,0.0
19058,69.0,0.0,60.0,6.0,0.0
19059,76.0,0.0,60.0,6.0,0.0
19060,49.0,0.0,60.0,5.0,0.0
19061,49.0,0.0,60.0,3.0,0.0
19062,69.0,0.0,60.0,1.0,0.0
19063,64.0,0.0,60.0,4.0,0.0
19064,69.0,30.0,60.0,4.0,0.0
19065,69.0,0.0,60.0,0.0,0.0
19066,57.0,0.0,30.0,10.0,0.0
19067,49.0,0.0,60.0,7.0,0.0
19068,79.0,30.0,30.0,8.0,0.0
19069,64.0,0.0,60.0,2.0,0.0
19070,64.0,0.0,30.0,10.0,0.0
19071,73.0,0.0,30.0,8.0,0.0
19072,76.0,0.0,120.0,0.0,0.0
19073,69.0,0.0,60.0,1.0,0.0
19074,49.0,30.0,60.0,7.0,0.0
19075,71.0,0.0,30.0,8.0,0.0
19076,76.0,0.0,60.0,6.0,0.0
19077,69.0,0.0,60.0,6.0,0.0
19078,64.0,0.0,60.0,2.0,0.0
19079,69.0,0.0,60.0,4.0,0.0
19080,64.0,0.0,60.0,4.0,0.0
19081,49.0,0.0,60.0,3.0,0.0
19082,62.0,30.0,30.0,10.0,0.0
19083,49.0,0.0,60.0,5.0,0.0
19084,61.0,0.0,30.0,10.0,0.0
19085,69.0,0.0,30.0,8.0,0.0
19086,69.0,0.0,60.0,4.0,0.0
19087,69.0,0.0,60.0,1.0,0.0
19088,49.0,0.0,60.0,3.0,0.0
19089,57.0,30.0,30.0,10.0,0.0
19090,49.0,0.0,60.0,5.0,0.0
19091,76.0,0.0,60.0,6.0,0.0
19092,69.0,30.0,60.0,6.0,0.0
19093,49.0,0.0,60.0,7.0,0.0
19094,64.0,0.0,60.0,2.0,0.0
19095,64.0,0.0,60.0,4.0,0.0
19096,79.0,0.0,30.0,8.0,0.0
19097,73.0,0.0,30.0,8.0,0.0
19098,64.0,0.0,30.0,10.0,0.0
19099,62.0,0.0,30.0,10.0,0.0
19100,71.0,30.0,30.0,8.0,0.0
19101,49.0,0.0,60.0,7.0,0.0
19102,69.0,0.0,60.0,6.0,0.0
19103,76.0,0.0,60.0,6.0,0.0
19104,49.0,15.0,60.0,5.0,0.0
19105,69.0,0.0,60.0,4.0,0.0
19106,67.0,0.0,60.0,4.0,0.0
19107,49.0,0.0,60.0,3.0,0.0
19108,69.0,0.0,60.0,1.0,0.0
19109,79.0,0.0,60.0,0.0,0.0
19110,64.0,0.0,60.0,2.0,0.0
19111,69.0,0.0,30.0,8.0,0.0
19112,61.0,0.0,30.0,10.0,0.0
19113,50.0,0.0,60.0,7.0,0.0
19114,78.0,0.0,60.0,8.0,0.0
19115,78.0,0.0,60.0,0.0,0.0
19116,62.0,0.0,60.0,2.0,0.0
19117,69.0,0.0,60.0,1.0,0.0
19118,74.0,0.0,60.0,6.0,0.0
19119,50.0,0.0,60.0,10.0,0.0
19120,62.0,0.0,60.0,10.0,0.0
19121,66.0,0.0,30.0,4.0,0.0
19122,50.0,15.0,60.0,3.0,0.0
19123,50.0,15.0,15.0,5.0,0.0
19124,78.0,0.0,60.0,6.0,0.0
19125,69.0,14.0,30.0,4.0,0.0
19126,61.0,1.0,15.0,4.0,0.0
19127,62.0,15.0,15.0,4.0,0.0
19128,64.0,0.0,15.0,4.0,0.0
19129,50.0,15.0,60.0,3.0,0.0
19130,66.0,15.0,15.0,4.0,0.0
19131,67.0,15.0,15.0,4.0,0.0
19132,69.0,15.0,15.0,4.0,0.0
19133,71.0,0.0,15.0,4.0,0.0
19134,69.0,15.0,15.0,4.0,0.0
19135,62.0,15.0,60.0,3.0,0.0
19136,66.0,15.0,15.0,4.0,0.0
19137,67.0,15.0,15.0,4.0,0.0
19138,69.0,0.0,15.0,4.0,0.0
19139,71.0,15.0,15.0,4.0,0.0
19140,62.0,0.0,60.0,3.0,0.0
19141,73.0,15.0,15.0,4.0,0.0
19142,74.0,15.0,15.0,4.0,0.0
19143,76.0,30.0,15.0,4.0,0.0
19144,78.0,0.0,30.0,4.0,0.0
19145,69.0,0.0,30.0,8.0,0.0
19146,69.0,30.0,30.0,6.0,0.0
19147,60.0,0.0,60.0,3.0,0.0
19148,78.0,0.0,60.0,0.0,0.0
19149,48.0,0.0,60.0,10.0,0.0
19150,69.0,0.0,60.0,1.0,0.0
19151,48.0,0.0,60.0,7.0,0.0
19152,48.0,0.0,30.0,5.0,0.0
19153,62.0,0.0,60.0,2.0,0.0
19154,69.0,0.0,30.0,4.0,0.0
19155,66.0,30.0,30.0,6.0,0.0
19156,74.0,0.0,30.0,8.0,0.0
19157,60.0,0.0,30.0,5.0,0.0
19158,60.0,0.0,60.0,3.0,0.0
19159,59.0,0.0,30.0,5.0,0.0
19160,48.0,30.0,60.0,7.0,0.0
19161,48.0,0.0,60.0,10.0,0.0
19162,67.0,30.0,30.0,4.0,0.0
19163,64.0,0.0,30.0,6.0,0.0
19164,76.0,0.0,30.0,8.0,0.0
19165,66.0,0.0,30.0,4.0,0.0
19166,57.0,0.0,30.0,5.0,0.0
19167,62.0,0.0,30.0,6.0,0.0
19168,78.0,0.0,30.0,8.0,0.0
19169,78.0,0.0,30.0,4.0,0.0
19170,60.0,0.0,60.0,10.0,0.0
19171,64.0,0.0,60.0,2.0,0.0
19172,60.0,0.0,60.0,7.0,0.0
19173,48.0,0.0,60.0,3.0,0.0
19174,48.0,0.0,30.0,5.0,0.0
19175,69.0,0.0,30.0,6.0,0.0
19176,69.0,30.0,30.0,8.0,0.0
19177,76.0,30.0,60.0,0.0,0.0
19178,69.0,0.0,60.0,1.0,0.0
19179,72.0,0.0,30.0,6.0,0.0
19180,60.0,0.0,30.0,5.0,0.0
19181,69.0,0.0,30.0,4.0,0.0
19182,75.0,0.0,30.0,8.0,0.0
19183,76.0,0.0,30.0,8.0,0.0
19184,60.0,0.0,60.0,10.0,0.0
19185,71.0,0.0,30.0,6.0,0.0
19186,60.0,0.0,60.0,7.0,0.0
19187,67.0,0.0,30.0,4.0,0.0
19188,48.0,0.0,60.0,3.0,0.0
19189,59.0,30.0,30.0,5.0,0.0
19190,78.0,30.0,30.0,8.0,0.0
19191,69.0,0.0,30.0,6.0,0.0
19192,66.0,0.0,30.0,4.0,0.0
19193,57.0,0.0,30.0,5.0,0.0
19194,66.0,0.0,60.0,2.0,0.0
19195,75.0,0.0,60.0,8.0,0.0
19196,75.0,0.0,30.0,4.0,0.0
19197,83.0,0.0,60.0,8.0,0.0
19198,75.0,0.0,60.0,0.0,0.0
19199,69.0,0.0,60.0,6.0,0.0
19200,75.0,0.0,60.0,6.0,0.0
19201,78.0,0.0,60.0,6.0,0.0
19202,71.0,0.0,60.0,8.0,0.0
19203,59.0,0.0,60.0,10.0,0.0
19204,47.0,30.0,30.0,5.0,0.0
19205,71.0,0.0,60.0,1.0,0.0
19206,59.0,0.0,60.0,7.0,0.0
19207,47.0,0.0,60.0,3.0,0.0
19208,69.0,0.0,30.0,4.0,0.0
19209,60.0,30.0,30.0,5.0,0.0
19210,59.0,0.0,30.0,5.0,0.0
19211,67.0,30.0,30.0,4.0,0.0
19212,47.0,0.0,60.0,3.0,0.0
19213,57.0,0.0,30.0,5.0,0.0
19214,66.0,30.0,30.0,4.0,0.0
19215,63.0,0.0,30.0,5.0,0.0
19216,71.0,30.0,30.0,4.0,0.0
19217,45.0,0.0,60.0,3.0,0.0
19218,59.0,30.0,30.0,5.0,0.0
19219,75.0,0.0,30.0,4.0,0.0
19220,73.0,30.0,30.0,4.0,0.0
19221,45.0,30.0,60.0,3.0,0.0
19222,66.0,0.0,30.0,5.0,0.0
19223,57.0,0.0,30.0,5.0,0.0
19224,71.0,0.0,30.0,4.0,0.0
19225,56.0,30.0,60.0,7.0,0.0
19226,71.0,0.0,60.0,1.0,0.0
19227,76.0,0.0,60.0,0.0,0.0
19228,56.0,0.0,60.0,10.0,0.0
19229,64.0,0.0,60.0,2.0,0.0
19230,74.0,0.0,30.0,4.0,0.0
19231,44.0,0.0,60.0,3.0,0.0
19232,64.0,0.0,30.0,8.0,0.0
19233,56.0,0.0,30.0,5.0,0.0
19234,76.0,30.0,30.0,6.0,0.0
19235,71.0,0.0,30.0,6.0,0.0
19236,80.0,0.0,30.0,4.0,0.0
19237,59.0,0.0,30.0,5.0,0.0
19238,74.0,0.0,30.0,8.0,0.0
19239,61.0,0.0,30.0,5.0,0.0
19240,81.0,0.0,30.0,4.0,0.0
19241,56.0,0.0,60.0,10.0,0.0
19242,69.0,0.0,30.0,6.0,0.0
19243,73.0,30.0,30.0,8.0,0.0
19244,44.0,0.0,60.0,3.0,0.0
19245,56.0,0.0,60.0,7.0,0.0
19246,83.0,0.0,30.0,4.0,0.0
19247,71.0,30.0,30.0,8.0,0.0
19248,68.0,0.0,30.0,6.0,0.0
19249,62.0,0.0,30.0,5.0,0.0
19250,59.0,30.0,30.0,5.0,0.0
19251,74.0,0.0,60.0,0.0,0.0
19252,44.0,0.0,60.0,3.0,0.0
19253,64.0,0.0,30.0,8.0,0.0
19254,44.0,0.0,60.0,10.0,0.0
19255,44.0,30.0,60.0,7.0,0.0
19256,76.0,0.0,30.0,6.0,0.0
19257,71.0,0.0,60.0,1.0,0.0
19258,74.0,0.0,30.0,4.0,0.0
19259,64.0,0.0,60.0,2.0,0.0
19260,71.0,0.0,30.0,8.0,0.0
19261,71.0,0.0,30.0,6.0,0.0
19262,80.0,0.0,30.0,4.0,0.0
19263,62.0,0.0,30.0,5.0,0.0
19264,61.0,30.0,30.0,5.0,0.0
19265,73.0,0.0,30.0,8.0,0.0
19266,69.0,0.0,30.0,6.0,0.0
19267,44.0,0.0,60.0,10.0,0.0
19268,44.0,0.0,60.0,3.0,0.0
19269,81.0,0.0,30.0,4.0,0.0
19270,44.0,0.0,60.0,7.0,0.0
19271,83.0,0.0,30.0,4.0,0.0
19272,74.0,0.0,30.0,8.0,0.0
19273,59.0,0.0,30.0,5.0,0.0
19274,68.0,30.0,30.0,6.0,0.0
19275,57.0,0.0,30.0,5.0,0.0
19276,73.0,0.0,60.0,0.0,0.0
19277,64.0,0.0,60.0,2.0,0.0
19278,45.0,0.0,60.0,10.0,0.0
19279,45.0,0.0,60.0,3.0,0.0
19280,73.0,0.0,60.0,6.0,0.0
19281,45.0,0.0,60.0,7.0,0.0
19282,76.0,0.0,60.0,6.0,0.0
19283,81.0,0.0,60.0,8.0,0.0
19284,73.0,0.0,60.0,8.0,0.0
19285,76.0,0.0,60.0,8.0,0.0
19286,73.0,30.0,30.0,4.0,0.0
19287,69.0,0.0,60.0,1.0,0.0
19288,76.0,0.0,30.0,4.0,0.0
19289,61.0,30.0,30.0,5.0,0.0
19290,78.0,0.0,30.0,4.0,0.0
19291,45.0,0.0,60.0,3.0,0.0
19292,62.0,30.0,30.0,5.0,0.0
19293,79.0,0.0,30.0,4.0,0.0
19294,64.0,30.0,30.0,5.0,0.0
19295,69.0,0.0,30.0,4.0,0.0
19296,61.0,30.0,30.0,5.0,0.0
19297,43.0,0.0,60.0,3.0,0.0
19298,73.0,0.0,30.0,4.0,0.0
19299,64.0,30.0,30.0,5.0,0.0
19300,62.0,0.0,30.0,5.0,0.0
19301,71.0,30.0,30.0,4.0,0.0
19302,43.0,30.0,60.0,3.0,0.0
19303,61.0,0.0,30.0,5.0,0.0
19304,69.0,0.0,30.0,4.0,0.0
19305,74.0,30.0,60.0,0.0,0.0
19306,42.0,0.0,60.0,10.0,0.0
19307,66.0,0.0,60.0,2.0,0.0
19308,69.0,0.0,60.0,1.0,0.0
19309,42.0,0.0,60.0,3.0,0.0
19310,81.0,0.0,30.0,8.0,0.0
19311,74.0,0.0,30.0,4.0,0.0
19312,42.0,0.0,60.0,7.0,0.0
19313,54.0,0.0,30.0,5.0,0.0
19314,74.0,30.0,30.0,6.0,0.0
19315,78.0,0.0,30.0,8.0,0.0
19316,69.0,0.0,30.0,6.0,0.0
19317,62.0,0.0,30.0,5.0,0.0
19318,78.0,0.0,30.0,4.0,0.0
19319,68.0,0.0,30.0,6.0,0.0
19320,76.0,0.0,30.0,8.0,0.0
19321,42.0,0.0,60.0,3.0,0.0
19322,42.0,0.0,60.0,7.0,0.0
19323,80.0,0.0,30.0,4.0,0.0
19324,64.0,30.0,30.0,5.0,0.0
19325,42.0,30.0,60.0,10.0,0.0
19326,81.0,0.0,30.0,4.0,0.0
19327,66.0,0.0,30.0,6.0,0.0
19328,74.0,0.0,30.0,8.0,0.0
19329,66.0,0.0,30.0,5.0,0.0
19330,54.0,0.0,60.0,10.0,0.0
19331,73.0,0.0,60.0,0.0,0.0
19332,64.0,0.0,30.0,5.0,0.0
19333,81.0,0.0,30.0,8.0,0.0
19334,64.0,30.0,30.0,6.0,0.0
19335,73.0,0.0,30.0,4.0,0.0
19336,69.0,0.0,60.0,1.0,0.0
19337,54.0,30.0,60.0,3.0,0.0
19338,54.0,0.0,60.0,7.0,0.0
19339,64.0,0.0,60.0,2.0,0.0
19340,73.0,0.0,30.0,6.0,0.0
19341,76.0,0.0,30.0,8.0,0.0
19342,78.0,0.0,30.0,4.0,0.0
19343,61.0,0.0,30.0,5.0,0.0
19344,80.0,0.0,30.0,4.0,0.0
19345,54.0,0.0,60.0,7.0,0.0
19346,54.0,0.0,60.0,3.0,0.0
19347,54.0,0.0,60.0,10.0,0.0
19348,66.0,30.0,30.0,5.0,0.0
19349,75.0,0.0,30.0,8.0,0.0
19350,72.0,0.0,30.0,6.0,0.0
19351,73.0,15.0,30.0,8.0,0.0
19352,64.0,0.0,30.0,5.0,0.0
19353,81.0,0.0,30.0,4.0,0.0
19354,73.0,0.0,30.0,6.0,0.0
19355,75.0,0.0,60.0,6.0,0.0
19356,63.0,0.0,60.0,5.0,0.0
19357,54.0,0.0,60.0,10.0,0.0
19358,63.0,0.0,60.0,2.0,0.0
19359,54.0,0.0,60.0,7.0,0.0
19360,54.0,0.0,60.0,3.0,0.0
19361,72.0,15.0,15.0,4.0,0.0
19362,80.0,0.0,60.0,8.0,0.0
19363,75.0,0.0,60.0,8.0,0.0
19364,72.0,0.0,60.0,8.0,0.0
19365,72.0,0.0,60.0,0.0,0.0
19366,68.0,60.0,60.0,1.0,0.0
19367,81.0,15.0,15.0,4.0,0.0
19368,80.0,15.0,15.0,4.0,0.0
19369,78.0,0.0,15.0,4.0,0.0
19370,54.0,0.0,60.0,5.0,0.0
19371,80.0,30.0,90.0,4.0,0.0
19372,75.0,0.0,60.0,6.0,0.0
19373,72.0,0.0,60.0,6.0,0.0
19374,54.0,30.0,60.0,3.0,0.0
19375,68.0,0.0,60.0,1.0,0.0
19376,53.0,0.0,60.0,5.0,0.0
19377,61.0,0.0,60.0,2.0,0.0
19378,53.0,0.0,60.0,7.0,0.0
19379,53.0,0.0,60.0,10.0,0.0
19380,71.0,29.0,60.0,0.0,0.0
19381,73.0,0.0,60.0,6.0,0.0
19382,80.0,1.0,60.0,6.0,0.0
19383,53.0,0.0,60.0,3.0,0.0
19384,74.0,0.0,30.0,4.0,0.0
19385,61.0,0.0,60.0,8.0,0.0
19386,73.0,30.0,30.0,4.0,0.0
19387,56.0,15.0,60.0,5.0,0.0
19388,53.0,0.0,60.0,3.0,0.0
19389,68.0,0.0,60.0,8.0,0.0
19390,71.0,0.0,30.0,4.0,0.0
19391,52.0,0.0,60.0,3.0,0.0
19392,61.0,0.0,60.0,2.0,0.0
19393,70.0,59.0,60.0,0.0,0.0
19394,70.0,0.0,60.0,8.0,0.0
19395,66.0,0.0,60.0,8.0,0.0
19396,66.0,0.0,60.0,1.0,0.0
19397,73.0,1.0,60.0,8.0,0.0
19398,70.0,15.0,15.0,4.0,0.0
19399,52.0,0.0,60.0,7.0,0.0
19400,61.0,0.0,60.0,5.0,0.0
19401,61.0,0.0,60.0,8.0,0.0
19402,52.0,0.0,60.0,10.0,0.0
19403,79.0,15.0,15.0,4.0,0.0
19404,78.0,15.0,15.0,4.0,0.0
19405,76.0,0.0,15.0,4.0,0.0
19406,78.0,30.0,90.0,4.0,0.0
19407,70.0,30.0,60.0,6.0,0.0
19408,52.0,0.0,60.0,3.0,0.0
19409,52.0,0.0,60.0,5.0,0.0
19410,73.0,0.0,60.0,6.0,0.0
19411,78.0,0.0,60.0,6.0,0.0
19412,71.0,0.0,60.0,6.0,0.0
19413,51.0,0.0,60.0,5.0,0.0
19414,51.0,0.0,60.0,7.0,0.0
19415,51.0,0.0,60.0,10.0,0.0
19416,51.0,0.0,60.0,3.0,0.0
19417,66.0,0.0,60.0,1.0,0.0
19418,59.0,1.0,60.0,2.0,0.0
19419,69.0,29.0,60.0,0.0,0.0
19420,72.0,0.0,30.0,4.0,0.0
19421,66.0,0.0,60.0,8.0,0.0
19422,51.0,15.0,60.0,3.0,0.0
19423,54.0,0.0,60.0,5.0,0.0
19424,59.0,0.0,60.0,8.0,0.0
19425,71.0,30.0,30.0,4.0,0.0
19426,69.0,0.0,30.0,4.0,0.0
19427,59.0,0.0,15.0,4.0,0.0
19428,68.0,15.0,15.0,4.0,0.0
19429,68.0,14.0,60.0,0.0,0.0
19430,50.0,0.0,60.0,7.0,0.0
19431,71.0,0.0,60.0,8.0,0.0
19432,50.0,0.0,60.0,10.0,0.0
19433,50.0,1.0,60.0,3.0,0.0
19434,59.0,0.0,60.0,2.0,0.0
19435,68.0,0.0,60.0,8.0,0.0
19436,64.0,0.0,60.0,1.0,0.0
19437,59.0,0.0,60.0,8.0,0.0
19438,64.0,0.0,60.0,8.0,0.0
19439,64.0,15.0,15.0,4.0,0.0
19440,66.0,15.0,15.0,4.0,0.0
19441,68.0,0.0,15.0,4.0,0.0
19442,50.0,0.0,60.0,3.0,0.0
19443,68.0,0.0,60.0,6.0,0.0
19444,71.0,0.0,60.0,6.0,0.0
19445,69.0,15.0,15.0,4.0,0.0
19446,71.0,15.0,15.0,4.0,0.0
19447,73.0,15.0,15.0,4.0,0.0
19448,74.0,15.0,15.0,4.0,0.0
19449,76.0,15.0,15.0,4.0,0.0
19450,64.0,0.0,60.0,1.0,0.0
19451,57.0,1.0,60.0,2.0,0.0
19452,49.0,0.0,60.0,10.0,0.0
19453,49.0,0.0,60.0,7.0,0.0
19454,67.0,14.0,60.0,0.0,0.0
19455,49.0,0.0,60.0,3.0,0.0
19456,76.0,0.0,60.0,6.0,0.0
19457,69.0,0.0,60.0,6.0,0.0
19458,78.0,15.0,15.0,4.0,0.0
19459,76.0,15.0,15.0,4.0,0.0
19460,74.0,0.0,15.0,4.0,0.0
19461,64.0,0.0,60.0,8.0,0.0
19462,49.0,15.0,60.0,3.0,0.0
19463,57.0,0.0,60.0,8.0,0.0
19464,73.0,15.0,15.0,4.0,0.0
19465,71.0,15.0,15.0,4.0,0.0
19466,69.0,15.0,15.0,4.0,0.0
19467,68.0,0.0,15.0,4.0,0.0
19468,48.0,0.0,60.0,7.0,0.0
19469,48.0,0.0,60.0,10.0,0.0
19470,48.0,0.0,60.0,3.0,0.0
19471,66.0,14.0,60.0,0.0,0.0
19472,66.0,15.0,15.0,4.0,0.0
19473,57.0,0.0,60.0,8.0,0.0
19474,63.0,0.0,60.0,8.0,0.0
19475,66.0,1.0,60.0,8.0,0.0
19476,69.0,0.0,60.0,8.0,0.0
19477,57.0,0.0,60.0,2.0,0.0
19478,63.0,0.0,60.0,1.0,0.0
19479,63.0,15.0,15.0,4.0,0.0
19480,65.0,15.0,15.0,4.0,0.0
19481,66.0,0.0,15.0,4.0,0.0
19482,66.0,0.0,60.0,6.0,0.0
19483,69.0,0.0,60.0,6.0,0.0
19484,48.0,15.0,60.0,3.0,0.0
19485,68.0,15.0,15.0,4.0,0.0
19486,69.0,15.0,15.0,4.0,0.0
19487,71.0,15.0,15.0,4.0,0.0
19488,73.0,0.0,15.0,4.0,0.0
19489,59.0,0.0,60.0,2.0,0.0
19490,47.0,0.0,60.0,7.0,0.0
19491,67.0,14.0,60.0,0.0,0.0
19492,47.0,0.0,60.0,3.0,0.0
19493,62.0,1.0,60.0,1.0,0.0
19494,71.0,0.0,60.0,6.0,0.0
19495,74.0,0.0,60.0,6.0,0.0
19496,74.0,15.0,15.0,4.0,0.0
19497,47.0,0.0,60.0,10.0,0.0
19498,76.0,15.0,15.0,4.0,0.0
19499,74.0,15.0,15.0,4.0,0.0
19500,73.0,0.0,15.0,4.0,0.0
19501,71.0,0.0,60.0,8.0,0.0
19502,47.0,15.0,60.0,3.0,0.0
19503,71.0,15.0,15.0,4.0,0.0
19504,62.0,0.0,60.0,8.0,0.0
19505,69.0,15.0,15.0,4.0,0.0
19506,67.0,15.0,15.0,4.0,0.0
19507,66.0,0.0,15.0,4.0,0.0
19508,47.0,0.0,120.0,3.0,0.0
19509,47.0,15.0,120.0,7.0,0.0
19510,61.0,0.0,120.0,8.0,0.0
19511,68.0,0.0,120.0,6.0,0.0
19512,65.0,15.0,15.0,4.0,0.0
19513,56.0,0.0,60.0,2.0,0.0
19514,73.0,0.0,120.0,6.0,0.0
19515,65.0,0.0,120.0,6.0,0.0
19516,61.0,15.0,60.0,1.0,0.0
19517,68.0,0.0,120.0,8.0,0.0
19518,65.0,15.0,30.0,0.0,0.0
19519,47.0,0.0,120.0,10.0,0.0
19520,65.0,0.0,120.0,8.0,0.0
19521,63.0,0.0,15.0,4.0,0.0
19522,61.0,0.0,30.0,0.0,0.0
19523,61.0,15.0,15.0,4.0,0.0
19524,63.0,0.0,15.0,4.0,0.0
19525,65.0,15.0,30.0,0.0,0.0
19526,65.0,15.0,15.0,4.0,0.0
19527,66.0,0.0,15.0,4.0,0.0
19528,68.0,15.0,15.0,4.0,0.0
19529,68.0,0.0,30.0,0.0,0.0
19530,69.0,0.0,15.0,4.0,0.0
19531,71.0,15.0,15.0,4.0,0.0
19532,73.0,15.0,30.0,0.0,0.0
19533,73.0,0.0,15.0,4.0,0.0
19534,75.0,15.0,15.0,4.0,0.0
19535,77.0,15.0,30.0,0.0,0.0
19536,77.0,0.0,15.0,4.0,0.0
19537,78.0,15.0,15.0,4.0,0.0
19538,80.0,15.0,30.0,0.0,0.0
19539,80.0,0.0,15.0,4.0,0.0
19540,81.0,15.0,15.0,4.0,0.0
19541,83.0,30.0,30.0,0.0,0.0
19542,83.0,0.0,15.0,4.0,0.0
19543,57.0,0.0,30.0,5.0,0.0
19544,61.0,0.0,60.0,2.0,0.0
19545,45.0,0.0,60.0,10.0,0.0
19546,78.0,0.0,60.0,6.0,0.0
19547,85.0,0.0,30.0,4.0,0.0
19548,57.0,30.0,60.0,7.0,0.0
19549,85.0,30.0,30.0,0.0,0.0
19550,61.0,0.0,60.0,8.0,0.0
19551,45.0,0.0,60.0,3.0,0.0
19552,66.0,0.0,60.0,1.0,0.0
19553,78.0,0.0,30.0,0.0,0.0
19554,78.0,0.0,30.0,4.0,0.0
19555,66.0,0.0,30.0,5.0,0.0
19556,45.0,0.0,60.0,7.0,0.0
19557,66.0,0.0,120.0,2.0,0.0
19558,65.0,0.0,30.0,5.0,0.0
19559,57.0,30.0,60.0,10.0,0.0
19560,80.0,30.0,30.0,0.0,0.0
19561,80.0,0.0,30.0,4.0,0.0
19562,66.0,0.0,120.0,8.0,0.0
19563,81.0,0.0,30.0,0.0,0.0
19564,66.0,0.0,30.0,5.0,0.0
19565,81.0,0.0,30.0,4.0,0.0
19566,83.0,30.0,30.0,4.0,0.0
19567,44.0,0.0,60.0,3.0,0.0
19568,62.0,0.0,30.0,5.0,0.0
19569,83.0,0.0,30.0,0.0,0.0
19570,62.0,0.0,60.0,1.0,0.0
19571,80.0,0.0,60.0,6.0,0.0
19572,56.0,0.0,60.0,10.0,0.0
19573,44.0,30.0,60.0,7.0,0.0
19574,85.0,0.0,30.0,0.0,0.0
19575,61.0,0.0,30.0,5.0,0.0
19576,85.0,0.0,30.0,4.0,0.0
19577,44.0,0.0,60.0,10.0,0.0
19578,62.0,30.0,30.0,5.0,0.0
19579,56.0,30.0,60.0,7.0,0.0
19580,65.0,0.0,60.0,2.0,0.0
19581,65.0,0.0,60.0,8.0,0.0
19582,81.0,0.0,30.0,4.0,0.0
19583,81.0,0.0,30.0,0.0,0.0
19584,83.0,0.0,30.0,0.0,0.0
19585,83.0,0.0,30.0,4.0,0.0
19586,59.0,0.0,30.0,5.0,0.0
19587,57.0,0.0,60.0,7.0,0.0
19588,66.0,0.0,60.0,8.0,0.0
19589,85.0,0.0,30.0,4.0,0.0
19590,85.0,0.0,30.0,0.0,0.0
19591,66.0,0.0,60.0,2.0,0.0
19592,73.0,0.0,30.0,6.0,0.0
19593,45.0,0.0,60.0,3.0,0.0
19594,45.0,0.0,60.0,10.0,0.0
19595,66.0,30.0,30.0,5.0,0.0
19596,61.0,0.0,60.0,1.0,0.0
19597,78.0,0.0,30.0,6.0,0.0
19598,61.0,0.0,30.0,5.0,0.0
19599,81.0,0.0,30.0,0.0,0.0
19600,81.0,30.0,30.0,4.0,0.0
19601,80.0,0.0,30.0,4.0,0.0
19602,57.0,0.0,60.0,10.0,0.0
19603,68.0,0.0,120.0,2.0,0.0
19604,68.0,30.0,120.0,8.0,0.0
19605,80.0,30.0,30.0,0.0,0.0
19606,77.0,0.0,30.0,6.0,0.0
19607,59.0,0.0,30.0,5.0,0.0
19608,45.0,30.0,60.0,7.0,0.0
19609,78.0,0.0,30.0,0.0,0.0
19610,78.0,0.0,30.0,4.0,0.0
19611,78.0,0.0,30.0,6.0,0.0
19612,57.0,0.0,30.0,5.0,0.0
19613,56.0,30.0,30.0,5.0,0.0
19614,86.0,0.0,30.0,4.0,0.0
19615,59.0,0.0,60.0,10.0,0.0
19616,80.0,0.0,30.0,6.0,0.0
19617,47.0,0.0,60.0,7.0,0.0
19618,47.0,0.0,60.0,3.0,0.0
19619,71.0,0.0,60.0,1.0,0.0
19620,86.0,0.0,30.0,0.0,0.0
19621,62.0,0.0,30.0,5.0,0.0
19622,83.0,0.0,30.0,4.0,0.0
19623,78.0,0.0,30.0,6.0,0.0
19624,83.0,0.0,30.0,0.0,0.0
19625,81.0,0.0,30.0,4.0,0.0
19626,77.0,0.0,30.0,6.0,0.0
19627,81.0,30.0,30.0,0.0,0.0
19628,69.0,30.0,120.0,2.0,0.0
19629,69.0,0.0,120.0,8.0,0.0
19630,59.0,0.0,60.0,7.0,0.0
19631,47.0,30.0,60.0,10.0,0.0
19632,61.0,0.0,30.0,5.0,0.0
19633,80.0,0.0,30.0,4.0,0.0
19634,78.0,0.0,30.0,6.0,0.0
19635,59.0,0.0,30.0,5.0,0.0
19636,80.0,0.0,30.0,0.0,0.0
19637,57.0,0.0,30.0,5.0,0.0
19638,89.0,0.0,30.0,4.0,0.0
19639,61.0,0.0,60.0,7.0,0.0
19640,49.0,0.0,60.0,3.0,0.0
19641,69.0,0.0,60.0,1.0,0.0
19642,49.0,0.0,60.0,10.0,0.0
19643,81.0,30.0,30.0,6.0,0.0
19644,89.0,0.0,30.0,0.0,0.0
19645,85.0,0.0,30.0,0.0,0.0
19646,85.0,0.0,30.0,4.0,0.0
19647,61.0,0.0,30.0,5.0,0.0
19648,78.0,0.0,30.0,6.0,0.0
19649,62.0,0.0,60.0,7.0,0.0
19650,90.0,0.0,30.0,4.0,0.0
19651,83.0,0.0,30.0,6.0,0.0
19652,50.0,0.0,60.0,10.0,0.0
19653,50.0,0.0,60.0,3.0,0.0
19654,90.0,0.0,30.0,0.0,0.0
19655,74.0,0.0,120.0,1.0,0.0
19656,59.0,0.0,30.0,5.0,0.0
19657,68.0,30.0,30.0,8.0,0.0
19658,68.0,0.0,30.0,2.0,0.0
19659,78.0,0.0,30.0,0.0,0.0
19660,78.0,0.0,30.0,4.0,0.0
19661,66.0,30.0,30.0,2.0,0.0
19662,57.0,0.0,30.0,5.0,0.0
19663,66.0,0.0,30.0,8.0,0.0
19664,85.0,0.0,30.0,6.0,0.0
19665,59.0,30.0,60.0,5.0,0.0
19666,69.0,0.0,30.0,2.0,0.0
19667,47.0,0.0,60.0,3.0,0.0
19668,47.0,0.0,60.0,10.0,0.0
19669,69.0,0.0,30.0,8.0,0.0
19670,85.0,0.0,30.0,4.0,0.0
19671,85.0,0.0,30.0,0.0,0.0
19672,59.0,0.0,60.0,7.0,0.0
19673,86.0,30.0,30.0,6.0,0.0
19674,83.0,0.0,30.0,4.0,0.0
19675,68.0,0.0,30.0,8.0,0.0
19676,68.0,0.0,30.0,2.0,0.0
19677,83.0,0.0,30.0,0.0,0.0
19678,74.0,0.0,30.0,6.0,0.0
19679,81.0,30.0,30.0,0.0,0.0
19680,61.0,0.0,60.0,7.0,0.0
19681,73.0,0.0,60.0,1.0,0.0
19682,49.0,0.0,60.0,3.0,0.0
19683,73.0,0.0,30.0,6.0,0.0
19684,81.0,0.0,30.0,4.0,0.0
19685,49.0,0.0,60.0,10.0,0.0
19686,66.0,0.0,30.0,2.0,0.0
19687,61.0,0.0,60.0,5.0,0.0
19688,66.0,0.0,30.0,8.0,0.0
19689,71.0,0.0,30.0,6.0,0.0
19690,65.0,30.0,30.0,8.0,0.0
19691,80.0,0.0,30.0,4.0,0.0
19692,65.0,0.0,30.0,2.0,0.0
19693,80.0,0.0,30.0,0.0,0.0
19694,81.0,0.0,30.0,4.0,0.0
19695,42.0,0.0,60.0,10.0,0.0
19696,54.0,0.0,60.0,7.0,0.0
19697,81.0,0.0,60.0,0.0,0.0
19698,66.0,30.0,30.0,5.0,0.0
19699,69.0,0.0,60.0,6.0,0.0
19700,66.0,30.0,60.0,2.0,0.0
19701,73.0,0.0,60.0,1.0,0.0
19702,66.0,0.0,60.0,8.0,0.0
19703,42.0,0.0,60.0,3.0,0.0
19704,54.0,0.0,30.0,5.0,0.0
19705,73.0,0.0,30.0,4.0,0.0
19706,57.0,30.0,30.0,5.0,0.0
19707,78.0,0.0,30.0,4.0,0.0
19708,66.0,0.0,120.0,3.0,0.0
19709,81.0,30.0,30.0,4.0,0.0
19710,61.0,0.0,30.0,5.0,0.0
19711,66.0,0.0,30.0,5.0,0.0
19712,85.0,0.0,60.0,0.0,0.0
19713,85.0,30.0,30.0,4.0,0.0
19714,69.0,30.0,60.0,2.0,0.0
19715,73.0,0.0,60.0,1.0,0.0
19716,78.0,0.0,30.0,4.0,0.0
19717,61.0,0.0,30.0,5.0,0.0
19718,66.0,30.0,30.0,5.0,0.0
19719,64.0,0.0,60.0,3.0,0.0
19720,81.0,0.0,30.0,4.0,0.0
19721,69.0,30.0,30.0,5.0,0.0
19722,85.0,0.0,30.0,4.0,0.0
19723,74.0,30.0,30.0,5.0,0.0
19724,69.0,30.0,60.0,2.0,0.0
19725,74.0,0.0,60.0,1.0,0.0
19726,90.0,0.0,30.0,4.0,0.0
19727,62.0,0.0,60.0,3.0,0.0
19728,78.0,0.0,60.0,0.0,0.0
19729,86.0,0.0,30.0,4.0,0.0
19730,78.0,0.0,30.0,5.0,0.0
19731,78.0,30.0,60.0,6.0,0.0
19732,85.0,0.0,30.0,4.0,0.0
19733,76.0,30.0,30.0,5.0,0.0
19734,62.0,0.0,60.0,7.0,0.0
19735,69.0,0.0,60.0,6.0,0.0
19736,74.0,0.0,30.0,5.0,0.0
19737,83.0,0.0,30.0,4.0,0.0
19738,61.0,30.0,60.0,7.0,0.0
19739,82.0,0.0,60.0,6.0,0.0
19740,73.0,0.0,60.0,6.0,0.0
19741,88.0,0.0,30.0,4.0,0.0
19742,61.0,0.0,60.0,3.0,0.0
19743,73.0,30.0,30.0,5.0,0.0
19744,76.0,0.0,30.0,5.0,0.0
19745,85.0,0.0,30.0,4.0,0.0
19746,74.0,30.0,30.0,5.0,0.0
19747,49.0,30.0,60.0,7.0,0.0
19748,85.0,0.0,60.0,6.0,0.0
19749,76.0,0.0,60.0,6.0,0.0
19750,83.0,0.0,30.0,4.0,0.0
19751,73.0,0.0,30.0,5.0,0.0
19752,82.0,0.0,30.0,4.0,0.0
19753,78.0,0.0,60.0,6.0,0.0
19754,86.0,0.0,60.0,6.0,0.0
19755,71.0,0.0,60.0,2.0,0.0
19756,71.0,0.0,30.0,5.0,0.0
19757,86.0,0.0,60.0,0.0,0.0
19758,86.0,30.0,30.0,4.0,0.0
19759,47.0,0.0,60.0,3.0,0.0
19760,78.0,30.0,60.0,1.0,0.0
19761,47.0,0.0,60.0,7.0,0.0
19762,74.0,0.0,30.0,5.0,0.0
19763,83.0,0.0,30.0,4.0,0.0
19764,59.0,30.0,120.0,3.0,0.0
19765,81.0,0.0,30.0,4.0,0.0
19766,73.0,30.0,30.0,5.0,0.0
19767,80.0,0.0,30.0,4.0,0.0
19768,71.0,30.0,30.0,5.0,0.0
19769,66.0,30.0,30.0,5.0,0.0
19770,78.0,0.0,60.0,1.0,0.0
19771,90.0,0.0,60.0,0.0,0.0
19772,73.0,0.0,60.0,2.0,0.0
19773,85.0,0.0,30.0,4.0,0.0
19774,81.0,0.0,30.0,4.0,0.0
19775,73.0,0.0,30.0,5.0,0.0
19776,71.0,0.0,30.0,5.0,0.0
19777,80.0,30.0,30.0,4.0,0.0
19778,57.0,30.0,60.0,3.0,0.0
19779,69.0,0.0,30.0,5.0,0.0
19780,78.0,0.0,30.0,4.0,0.0
19781,83.0,30.0,30.0,4.0,0.0
19782,56.0,0.0,60.0,3.0,0.0
19783,68.0,0.0,30.0,5.0,0.0
19784,83.0,0.0,60.0,0.0,0.0
19785,76.0,0.0,60.0,2.0,0.0
19786,80.0,0.0,60.0,1.0,0.0
19787,80.0,30.0,30.0,4.0,0.0
19788,71.0,0.0,30.0,5.0,0.0
19789,71.0,30.0,60.0,8.0,0.0
19790,64.0,0.0,60.0,8.0,0.0
19791,69.0,30.0,30.0,5.0,0.0
19792,78.0,0.0,30.0,4.0,0.0
19793,56.0,0.0,60.0,10.0,0.0
19794,76.0,0.0,30.0,4.0,0.0
19795,68.0,0.0,30.0,5.0,0.0
19796,75.0,30.0,60.0,8.0,0.0
19797,54.0,0.0,60.0,3.0,0.0
19798,66.0,0.0,30.0,5.0,0.0
19799,54.0,0.0,60.0,10.0,0.0
19800,81.0,30.0,30.0,4.0,0.0
19801,66.0,0.0,60.0,8.0,0.0
19802,78.0,0.0,30.0,4.0,0.0
19803,69.0,0.0,30.0,5.0,0.0
19804,68.0,30.0,30.0,5.0,0.0
19805,42.0,0.0,60.0,10.0,0.0
19806,76.0,0.0,30.0,4.0,0.0
19807,69.0,0.0,60.0,8.0,0.0
19808,78.0,0.0,60.0,8.0,0.0
19809,66.0,30.0,30.0,5.0,0.0
19810,75.0,0.0,30.0,4.0,0.0
19811,40.0,0.0,60.0,10.0,0.0
19812,80.0,0.0,60.0,0.0,0.0
19813,71.0,0.0,60.0,1.0,0.0
19814,80.0,0.0,60.0,8.0,0.0
19815,64.0,0.0,60.0,2.0,0.0
19816,64.0,30.0,30.0,5.0,0.0
19817,52.0,30.0,60.0,3.0,0.0
19818,80.0,0.0,30.0,4.0,0.0
19819,71.0,0.0,60.0,8.0,0.0
19820,76.0,0.0,30.0,4.0,0.0
19821,68.0,0.0,30.0,5.0,0.0
19822,66.0,30.0,30.0,5.0,0.0
19823,75.0,0.0,30.0,4.0,0.0
19824,64.0,0.0,120.0,3.0,0.0
19825,73.0,0.0,30.0,4.0,0.0
19826,64.0,30.0,30.0,5.0,0.0
19827,66.0,0.0,60.0,2.0,0.0
19828,59.0,0.0,30.0,5.0,0.0
19829,78.0,30.0,30.0,4.0,0.0
19830,83.0,0.0,60.0,0.0,0.0
19831,71.0,30.0,60.0,1.0,0.0
19832,74.0,0.0,30.0,4.0,0.0
19833,66.0,0.0,30.0,5.0,0.0
19834,64.0,0.0,30.0,5.0,0.0
19835,62.0,0.0,60.0,3.0,0.0
19836,73.0,30.0,30.0,4.0,0.0
19837,62.0,0.0,30.0,5.0,0.0
19838,71.0,30.0,30.0,4.0,0.0
19839,76.0,0.0,30.0,4.0,0.0
19840,61.0,30.0,30.0,5.0,0.0
19841,73.0,0.0,60.0,1.0,0.0
19842,68.0,30.0,60.0,2.0,0.0
19843,61.0,0.0,60.0,3.0,0.0
19844,76.0,0.0,60.0,0.0,0.0
19845,73.0,0.0,30.0,4.0,0.0
19846,64.0,0.0,30.0,5.0,0.0
19847,76.0,0.0,60.0,6.0,0.0
19848,68.0,30.0,60.0,6.0,0.0
19849,61.0,0.0,60.0,7.0,0.0
19850,71.0,0.0,30.0,4.0,0.0
19851,62.0,30.0,30.0,5.0,0.0
19852,61.0,0.0,30.0,5.0,0.0
19853,69.0,0.0,30.0,4.0,0.0
19854,71.0,0.0,60.0,6.0,0.0
19855,80.0,0.0,60.0,6.0,0.0
19856,59.0,30.0,30.0,5.0,0.0
19857,59.0,30.0,60.0,3.0,0.0
19858,74.0,0.0,30.0,4.0,0.0
19859,59.0,0.0,60.0,7.0,0.0
19860,71.0,0.0,30.0,4.0,0.0
19861,62.0,0.0,30.0,5.0,0.0
19862,47.0,30.0,60.0,7.0,0.0
19863,83.0,0.0,60.0,6.0,0.0
19864,74.0,0.0,60.0,6.0,0.0
19865,69.0,0.0,30.0,4.0,0.0
19866,61.0,30.0,30.0,5.0,0.0
19867,68.0,0.0,30.0,4.0,0.0
19868,59.0,0.0,30.0,5.0,0.0
19869,76.0,0.0,60.0,6.0,0.0
19870,57.0,0.0,30.0,5.0,0.0
19871,45.0,0.0,60.0,7.0,0.0
19872,85.0,0.0,60.0,6.0,0.0
19873,69.0,0.0,60.0,2.0,0.0
19874,76.0,0.0,60.0,1.0,0.0
19875,73.0,30.0,30.0,4.0,0.0
19876,85.0,0.0,60.0,0.0,0.0
19877,45.0,0.0,60.0,3.0,0.0
19878,69.0,0.0,30.0,4.0,0.0
19879,61.0,30.0,30.0,5.0,0.0
19880,57.0,0.0,120.0,3.0,0.0
19881,59.0,0.0,30.0,5.0,0.0
19882,68.0,30.0,30.0,4.0,0.0
19883,57.0,0.0,30.0,5.0,0.0
19884,66.0,30.0,30.0,4.0,0.0
19885,52.0,30.0,30.0,5.0,0.0
19886,76.0,0.0,60.0,1.0,0.0
19887,71.0,0.0,30.0,4.0,0.0
19888,71.0,0.0,60.0,2.0,0.0
19889,88.0,0.0,60.0,0.0,0.0
19890,59.0,0.0,30.0,5.0,0.0
19891,67.0,30.0,30.0,4.0,0.0
19892,66.0,0.0,30.0,4.0,0.0
19893,57.0,30.0,30.0,5.0,0.0
19894,55.0,30.0,60.0,3.0,0.0
19895,64.0,0.0,30.0,4.0,0.0
19896,55.0,0.0,30.0,5.0,0.0
19897,81.0,0.0,60.0,0.0,0.0
19898,78.0,0.0,60.0,1.0,0.0
19899,69.0,30.0,30.0,4.0,0.0
19900,74.0,0.0,60.0,2.0,0.0
19901,54.0,0.0,30.0,5.0,0.0
19902,54.0,30.0,60.0,3.0,0.0
19903,57.0,0.0,30.0,5.0,0.0
19904,66.0,0.0,30.0,4.0,0.0
19905,64.0,30.0,30.0,4.0,0.0
19906,55.0,0.0,30.0,5.0,0.0
19907,69.0,0.0,60.0,8.0,0.0
19908,42.0,0.0,60.0,10.0,0.0
19909,62.0,0.0,60.0,8.0,0.0
19910,62.0,0.0,30.0,4.0,0.0
19911,54.0,30.0,30.0,5.0,0.0
19912,52.0,0.0,60.0,3.0,0.0
19913,67.0,0.0,30.0,4.0,0.0
19914,40.0,0.0,60.0,10.0,0.0
19915,52.0,30.0,30.0,5.0,0.0
19916,64.0,0.0,60.0,8.0,0.0
19917,73.0,0.0,60.0,8.0,0.0
19918,55.0,30.0,30.0,5.0,0.0
19919,64.0,0.0,30.0,4.0,0.0
19920,62.0,30.0,30.0,4.0,0.0
19921,76.0,0.0,60.0,8.0,0.0
19922,67.0,30.0,60.0,8.0,0.0
19923,54.0,0.0,30.0,5.0,0.0
19924,52.0,0.0,60.0,10.0,0.0
19925,52.0,0.0,30.0,5.0,0.0
19926,61.0,0.0,30.0,4.0,0.0
19927,66.0,30.0,30.0,4.0,0.0
19928,50.0,0.0,60.0,10.0,0.0
19929,69.0,0.0,60.0,8.0,0.0
19930,50.0,0.0,60.0,3.0,0.0
19931,50.0,0.0,30.0,5.0,0.0
19932,78.0,0.0,60.0,8.0,0.0
19933,69.0,0.0,60.0,1.0,0.0
19934,62.0,30.0,60.0,2.0,0.0
19935,78.0,0.0,60.0,0.0,0.0
19936,54.0,0.0,30.0,5.0,0.0
19937,62.0,0.0,30.0,4.0,0.0
19938,52.0,30.0,30.0,5.0,0.0
19939,62.0,0.0,120.0,3.0,0.0
19940,61.0,0.0,30.0,4.0,0.0
19941,59.0,0.0,30.0,4.0,0.0
19942,50.0,30.0,30.0,5.0,0.0
19943,64.0,0.0,30.0,4.0,0.0
19944,81.0,30.0,60.0,0.0,0.0
19945,45.0,30.0,30.0,5.0,0.0
19946,69.0,0.0,60.0,1.0,0.0
19947,64.0,0.0,60.0,2.0,0.0
19948,61.0,0.0,30.0,4.0,0.0
19949,52.0,0.0,30.0,5.0,0.0
19950,59.0,30.0,30.0,4.0,0.0
19951,61.0,0.0,60.0,3.0,0.0
19952,50.0,0.0,30.0,5.0,0.0
19953,49.0,30.0,30.0,5.0,0.0
19954,57.0,0.0,30.0,4.0,0.0
19955,62.0,0.0,30.0,4.0,0.0
19956,66.0,0.0,60.0,2.0,0.0
19957,74.0,30.0,60.0,0.0,0.0
19958,59.0,0.0,60.0,3.0,0.0
19959,47.0,30.0,30.0,5.0,0.0
19960,71.0,0.0,60.0,1.0,0.0
19961,50.0,0.0,30.0,5.0,0.0
19962,59.0,0.0,30.0,4.0,0.0
19963,49.0,0.0,30.0,5.0,0.0
19964,57.0,30.0,30.0,4.0,0.0
19965,59.0,30.0,60.0,7.0,0.0
19966,74.0,0.0,60.0,6.0,0.0
19967,66.0,0.0,60.0,6.0,0.0
19968,47.0,0.0,30.0,5.0,0.0
19969,56.0,0.0,30.0,4.0,0.0
19970,69.0,0.0,60.0,6.0,0.0
19971,78.0,0.0,60.0,6.0,0.0
19972,61.0,0.0,30.0,4.0,0.0
19973,57.0,0.0,60.0,7.0,0.0
19974,57.0,30.0,60.0,3.0,0.0
19975,45.0,30.0,30.0,5.0,0.0
19976,57.0,0.0,30.0,4.0,0.0
19977,49.0,0.0,30.0,5.0,0.0
19978,56.0,0.0,30.0,4.0,0.0
19979,73.0,0.0,60.0,6.0,0.0
19980,47.0,30.0,30.0,5.0,0.0
19981,81.0,0.0,60.0,6.0,0.0
19982,45.0,0.0,60.0,7.0,0.0
19983,54.0,0.0,30.0,4.0,0.0
19984,45.0,30.0,30.0,5.0,0.0
19985,44.0,0.0,60.0,7.0,0.0
19986,74.0,0.0,60.0,6.0,0.0
19987,59.0,30.0,30.0,5.0,0.0
19988,44.0,0.0,30.0,5.0,0.0
19989,45.0,0.0,60.0,3.0,0.0
19990,74.0,30.0,60.0,1.0,0.0
19991,65.0,0.0,60.0,2.0,0.0
19992,83.0,0.0,60.0,0.0,0.0
19993,83.0,0.0,60.0,6.0,0.0
19994,56.0,0.0,30.0,5.0,0.0
19995,47.0,0.0,30.0,5.0,0.0
19996,54.0,0.0,30.0,5.0,0.0
19997,45.0,30.0,30.0,5.0,0.0
19998,56.0,0.0,120.0,3.0,0.0
19999,44.0,0.0,30.0,5.0,0.0
20000,53.0,30.0,30.0,5.0,0.0
20001,86.0,0.0,60.0,0.0,0.0
20002,69.0,30.0,60.0,1.0,0.0
20003,42.0,0.0,30.0,5.0,0.0
20004,66.0,0.0,60.0,2.0,0.0
20005,57.0,30.0,30.0,5.0,0.0
20006,45.0,0.0,30.0,5.0,0.0
20007,54.0,0.0,30.0,5.0,0.0
20008,54.0,0.0,60.0,3.0,0.0
20009,53.0,0.0,30.0,5.0,0.0
20010,44.0,30.0,30.0,5.0,0.0
20011,42.0,0.0,30.0,5.0,0.0
20012,51.0,30.0,30.0,5.0,0.0
20013,80.0,0.0,60.0,0.0,0.0
20014,53.0,30.0,60.0,3.0,0.0
20015,68.0,0.0,60.0,2.0,0.0
20016,56.0,30.0,30.0,5.0,0.0
20017,41.0,0.0,30.0,5.0,0.0
20018,73.0,0.0,60.0,1.0,0.0
20019,44.0,0.0,30.0,5.0,0.0
20020,53.0,0.0,30.0,5.0,0.0
20021,51.0,30.0,30.0,5.0,0.0
20022,42.0,0.0,30.0,5.0,0.0
20023,68.0,0.0,60.0,8.0,0.0
20024,73.0,0.0,60.0,8.0,0.0
20025,53.0,30.0,60.0,10.0,0.0
20026,41.0,0.0,30.0,5.0,0.0
20027,49.0,0.0,30.0,5.0,0.0
20028,72.0,0.0,60.0,8.0,0.0
20029,51.0,0.0,60.0,3.0,0.0
20030,39.0,30.0,30.0,5.0,0.0
20031,54.0,0.0,30.0,5.0,0.0
20032,66.0,0.0,60.0,8.0,0.0
20033,51.0,0.0,60.0,10.0,0.0
20034,42.0,0.0,30.0,5.0,0.0
20035,51.0,30.0,30.0,5.0,0.0
20036,75.0,0.0,60.0,8.0,0.0
20037,63.0,15.0,60.0,10.0,0.0
20038,41.0,0.0,30.0,5.0,0.0
20039,66.0,0.0,60.0,8.0,0.0
20040,49.0,30.0,30.0,5.0,0.0
20041,48.0,0.0,30.0,5.0,0.0
20042,39.0,0.0,30.0,5.0,0.0
20043,56.0,15.0,15.0,5.0,0.0
20044,37.0,0.0,60.0,5.0,0.0
20045,77.0,0.0,60.0,8.0,0.0
20046,68.0,0.0,60.0,2.0,0.0
20047,61.0,0.0,60.0,10.0,0.0
20048,73.0,0.0,60.0,1.0,0.0
20049,68.0,0.0,60.0,8.0,0.0
20050,49.0,15.0,60.0,3.0,0.0
20051,77.0,0.0,60.0,0.0,0.0
20052,53.0,15.0,15.0,5.0,0.0
20053,49.0,15.0,15.0,5.0,0.0
20054,51.0,0.0,15.0,5.0,0.0
20055,53.0,15.0,15.0,5.0,0.0
20056,61.0,0.0,120.0,3.0,0.0
20057,54.0,15.0,15.0,5.0,0.0
20058,56.0,15.0,15.0,5.0,0.0
20059,57.0,15.0,15.0,5.0,0.0
20060,80.0,0.0,60.0,0.0,0.0
20061,68.0,15.0,60.0,1.0,0.0
20062,65.0,0.0,60.0,2.0,0.0
20063,59.0,15.0,15.0,5.0,0.0
20064,61.0,15.0,15.0,5.0,0.0
20065,63.0,15.0,15.0,5.0,0.0
20066,65.0,0.0,15.0,5.0,0.0
20067,66.0,15.0,15.0,5.0,0.0
20068,59.0,15.0,60.0,3.0,0.0
20069,68.0,15.0,15.0,5.0,0.0
20070,69.0,15.0,15.0,5.0,0.0
20071,71.0,0.0,15.0,5.0,0.0
20072,66.0,0.0,60.0,2.0,0.0
20073,57.0,15.0,60.0,3.0,0.0
20074,73.0,0.0,60.0,0.0,0.0
20075,69.0,0.0,60.0,1.0,0.0
20076,73.0,15.0,15.0,4.0,0.0
20077,69.0,15.0,15.0,4.0,0.0
20078,66.0,15.0,15.0,4.0,0.0
20079,68.0,0.0,15.0,4.0,0.0
20080,78.0,15.0,60.0,6.0,0.0
20081,73.0,0.0,60.0,6.0,0.0
20082,45.0,0.0,60.0,7.0,0.0
20083,69.0,15.0,15.0,4.0,0.0
20084,71.0,15.0,15.0,4.0,0.0
20085,73.0,15.0,15.0,4.0,0.0
20086,75.0,0.0,15.0,4.0,0.0
20087,77.0,0.0,60.0,6.0,0.0
20088,44.0,15.0,60.0,7.0,0.0
20089,56.0,0.0,60.0,3.0,0.0
20090,77.0,15.0,15.0,4.0,0.0
20091,71.0,0.0,60.0,6.0,0.0
20092,78.0,15.0,15.0,4.0,0.0
20093,80.0,15.0,15.0,4.0,0.0
20094,81.0,0.0,15.0,4.0,0.0
20095,83.0,15.0,15.0,4.0,0.0
20096,56.0,0.0,60.0,7.0,0.0
20097,77.0,0.0,60.0,6.0,0.0
20098,80.0,0.0,60.0,6.0,0.0
20099,85.0,15.0,15.0,4.0,0.0
20100,87.0,15.0,15.0,4.0,0.0
20101,89.0,30.0,15.0,4.0,0.0
20102,69.0,0.0,60.0,1.0,0.0
20103,57.0,30.0,30.0,10.0,0.0
20104,73.0,0.0,60.0,8.0,0.0
20105,73.0,30.0,60.0,6.0,0.0
20106,81.0,0.0,60.0,6.0,0.0
20107,90.0,0.0,60.0,4.0,0.0
20108,54.0,0.0,60.0,3.0,0.0
20109,61.0,0.0,30.0,7.0,0.0
20110,54.0,0.0,30.0,7.0,0.0
20111,73.0,0.0,60.0,0.0,0.0
20112,73.0,0.0,60.0,2.0,0.0
20113,66.0,0.0,30.0,5.0,0.0
20114,56.0,0.0,30.0,10.0,0.0
20115,68.0,0.0,30.0,5.0,0.0
20116,59.0,0.0,30.0,7.0,0.0
20117,78.0,30.0,120.0,6.0,0.0
20118,54.0,0.0,30.0,10.0,0.0
20119,69.0,0.0,30.0,5.0,0.0
20120,78.0,0.0,120.0,8.0,0.0
20121,78.0,0.0,120.0,0.0,0.0
20122,78.0,0.0,120.0,4.0,0.0
20123,57.0,30.0,30.0,7.0,0.0
20124,66.0,0.0,30.0,5.0,0.0
20125,57.0,0.0,30.0,10.0,0.0
20126,61.0,30.0,30.0,7.0,0.0
20127,62.0,0.0,30.0,10.0,0.0
20128,68.0,0.0,60.0,1.0,0.0
20129,71.0,0.0,60.0,2.0,0.0
20130,59.0,0.0,30.0,7.0,0.0
20131,56.0,0.0,60.0,3.0,0.0
20132,68.0,30.0,30.0,5.0,0.0
20133,57.0,0.0,30.0,7.0,0.0
20134,69.0,0.0,30.0,5.0,0.0
20135,61.0,0.0,30.0,10.0,0.0
20136,77.0,0.0,60.0,0.0,0.0
20137,56.0,0.0,30.0,7.0,0.0
20138,71.0,0.0,30.0,5.0,0.0
20139,59.0,30.0,30.0,10.0,0.0
20140,77.0,0.0,60.0,8.0,0.0
20141,77.0,30.0,60.0,6.0,0.0
20142,77.0,0.0,60.0,4.0,0.0
20143,68.0,0.0,30.0,5.0,0.0
20144,61.0,0.0,30.0,10.0,0.0
20145,61.0,0.0,30.0,7.0,0.0
20146,73.0,0.0,60.0,1.0,0.0
20147,78.0,0.0,60.0,0.0,0.0
20148,54.0,0.0,30.0,7.0,0.0
20149,57.0,0.0,60.0,3.0,0.0
20150,78.0,0.0,60.0,8.0,0.0
20151,78.0,0.0,60.0,4.0,0.0
20152,78.0,0.0,60.0,6.0,0.0
20153,69.0,30.0,60.0,2.0,0.0
20154,69.0,30.0,30.0,5.0,0.0
20155,57.0,0.0,30.0,10.0,0.0
20156,57.0,0.0,30.0,7.0,0.0
20157,73.0,0.0,30.0,5.0,0.0
20158,54.0,0.0,30.0,10.0,0.0
20159,80.0,0.0,120.0,4.0,0.0
20160,62.0,0.0,30.0,10.0,0.0
20161,80.0,0.0,120.0,6.0,0.0
20162,71.0,30.0,30.0,5.0,0.0
20163,80.0,0.0,120.0,0.0,0.0
20164,80.0,0.0,120.0,8.0,0.0
20165,59.0,0.0,30.0,7.0,0.0
20166,61.0,0.0,30.0,10.0,0.0
20167,61.0,0.0,30.0,7.0,0.0
20168,69.0,30.0,30.0,5.0,0.0
20169,59.0,30.0,30.0,10.0,0.0
20170,59.0,0.0,60.0,3.0,0.0
20171,68.0,0.0,30.0,5.0,0.0
20172,74.0,0.0,60.0,2.0,0.0
20173,62.0,0.0,30.0,7.0,0.0
20174,71.0,0.0,60.0,1.0,0.0
20175,59.0,0.0,30.0,7.0,0.0
20176,62.0,30.0,30.0,10.0,0.0
20177,66.0,0.0,30.0,5.0,0.0
20178,61.0,30.0,30.0,10.0,0.0
20179,61.0,0.0,30.0,7.0,0.0
20180,81.0,0.0,120.0,8.0,0.0
20181,81.0,0.0,120.0,6.0,0.0
20182,65.0,0.0,30.0,5.0,0.0
20183,81.0,0.0,120.0,4.0,0.0
20184,81.0,0.0,120.0,0.0,0.0
20185,63.0,30.0,30.0,5.0,0.0
20186,63.0,0.0,30.0,7.0,0.0
20187,59.0,0.0,30.0,10.0,0.0
20188,65.0,30.0,60.0,1.0,0.0
20189,57.0,0.0,30.0,10.0,0.0
20190,61.0,0.0,60.0,5.0,0.0
20191,61.0,0.0,60.0,3.0,0.0
20192,65.0,30.0,30.0,7.0,0.0
20193,73.0,0.0,60.0,2.0,0.0
20194,61.0,0.0,30.0,7.0,0.0
20195,54.0,0.0,30.0,10.0,0.0
20196,69.0,0.0,60.0,2.0,0.0
20197,62.0,0.0,60.0,3.0,0.0
20198,66.0,0.0,60.0,7.0,0.0
20199,80.0,0.0,30.0,0.0,0.0
20200,80.0,0.0,30.0,4.0,0.0
20201,80.0,30.0,30.0,8.0,0.0
20202,66.0,0.0,60.0,1.0,0.0
20203,62.0,30.0,60.0,5.0,0.0
20204,80.0,0.0,30.0,6.0,0.0
20205,62.0,0.0,60.0,10.0,0.0
20206,78.0,0.0,30.0,4.0,0.0
20207,78.0,0.0,30.0,0.0,0.0
20208,78.0,0.0,30.0,6.0,0.0
20209,78.0,0.0,30.0,8.0,0.0
20210,81.0,0.0,30.0,4.0,0.0
20211,59.0,0.0,60.0,10.0,0.0
20212,74.0,0.0,60.0,1.0,0.0
20213,59.0,0.0,60.0,5.0,0.0
20214,59.0,0.0,60.0,7.0,0.0
20215,81.0,0.0,30.0,6.0,0.0
20216,71.0,0.0,60.0,2.0,0.0
20217,59.0,0.0,60.0,3.0,0.0
20218,81.0,0.0,30.0,8.0,0.0
20219,81.0,30.0,30.0,0.0,0.0
20220,80.0,30.0,30.0,8.0,0.0
20221,80.0,0.0,30.0,0.0,0.0
20222,80.0,0.0,30.0,4.0,0.0
20223,80.0,0.0,30.0,6.0,0.0
20224,78.0,30.0,30.0,8.0,0.0
20225,78.0,0.0,30.0,0.0,0.0
20226,61.0,0.0,60.0,10.0,0.0
20227,68.0,30.0,60.0,2.0,0.0
20228,78.0,0.0,30.0,6.0,0.0
20229,61.0,0.0,60.0,5.0,0.0
20230,61.0,0.0,60.0,3.0,0.0
20231,73.0,0.0,60.0,1.0,0.0
20232,78.0,0.0,30.0,4.0,0.0
20233,61.0,0.0,60.0,7.0,0.0
20234,77.0,0.0,30.0,6.0,0.0
20235,77.0,0.0,30.0,0.0,0.0
20236,77.0,0.0,30.0,4.0,0.0
20237,77.0,0.0,30.0,8.0,0.0
20238,78.0,30.0,60.0,0.0,0.0
20239,78.0,0.0,30.0,6.0,0.0
20240,62.0,0.0,60.0,3.0,0.0
20241,66.0,0.0,60.0,2.0,0.0
20242,69.0,0.0,60.0,1.0,0.0
20243,57.0,0.0,60.0,10.0,0.0
20244,54.0,0.0,60.0,10.0,0.0
20245,50.0,0.0,60.0,10.0,0.0
20246,78.0,30.0,30.0,4.0,0.0
20247,78.0,0.0,60.0,8.0,0.0
20248,62.0,0.0,60.0,5.0,0.0
20249,54.0,0.0,60.0,7.0,0.0
20250,80.0,0.0,30.0,4.0,0.0
20251,76.0,0.0,30.0,6.0,0.0
20252,78.0,0.0,120.0,0.0,0.0
20253,62.0,0.0,60.0,7.0,0.0
20254,81.0,30.0,30.0,4.0,0.0
20255,74.0,0.0,30.0,6.0,0.0
20256,50.0,0.0,60.0,5.0,0.0
20257,78.0,30.0,120.0,8.0,0.0
20258,78.0,30.0,30.0,4.0,0.0
20259,73.0,0.0,30.0,6.0,0.0
20260,71.0,0.0,60.0,2.0,0.0
20261,51.0,0.0,60.0,5.0,0.0
20262,59.0,0.0,60.0,10.0,0.0
20263,83.0,30.0,30.0,4.0,0.0
20264,54.0,0.0,60.0,10.0,0.0
20265,78.0,0.0,60.0,1.0,0.0
20266,71.0,0.0,30.0,6.0,0.0
20267,63.0,0.0,60.0,7.0,0.0
20268,63.0,0.0,60.0,3.0,0.0
20269,51.0,0.0,60.0,10.0,0.0
20270,85.0,0.0,30.0,6.0,0.0
20271,81.0,0.0,30.0,4.0,0.0
20272,83.0,0.0,120.0,8.0,0.0
20273,51.0,0.0,60.0,7.0,0.0
20274,80.0,0.0,30.0,4.0,0.0
20275,83.0,0.0,120.0,0.0,0.0
20276,83.0,30.0,30.0,6.0,0.0
20277,63.0,0.0,60.0,5.0,0.0
20278,81.0,30.0,30.0,6.0,0.0
20279,78.0,0.0,30.0,4.0,0.0
20280,56.0,0.0,60.0,10.0,0.0
20281,59.0,0.0,60.0,10.0,0.0
20282,52.0,0.0,60.0,10.0,0.0
20283,64.0,30.0,60.0,5.0,0.0
20284,52.0,0.0,60.0,7.0,0.0
20285,80.0,0.0,30.0,4.0,0.0
20286,80.0,30.0,30.0,6.0,0.0
20287,64.0,0.0,60.0,3.0,0.0
20288,76.0,0.0,60.0,1.0,0.0
20289,71.0,0.0,60.0,2.0,0.0
20290,81.0,0.0,30.0,4.0,0.0
20291,78.0,0.0,30.0,6.0,0.0
20292,76.0,30.0,30.0,6.0,0.0
20293,52.0,30.0,60.0,5.0,0.0
20294,80.0,30.0,120.0,8.0,0.0
20295,83.0,0.0,30.0,4.0,0.0
20296,64.0,0.0,60.0,7.0,0.0
20297,80.0,0.0,120.0,0.0,0.0
20298,80.0,0.0,30.0,4.0,0.0
20299,74.0,0.0,30.0,6.0,0.0
20300,85.0,30.0,30.0,4.0,0.0
20301,65.0,0.0,60.0,3.0,0.0
20302,65.0,0.0,60.0,7.0,0.0
20303,73.0,0.0,30.0,6.0,0.0
20304,56.0,0.0,60.0,10.0,0.0
20305,73.0,0.0,60.0,2.0,0.0
20306,61.0,0.0,60.0,10.0,0.0
20307,80.0,0.0,60.0,1.0,0.0
20308,53.0,0.0,60.0,10.0,0.0
20309,53.0,0.0,60.0,5.0,0.0
20310,86.0,0.0,30.0,6.0,0.0
20311,83.0,0.0,30.0,4.0,0.0
20312,85.0,30.0,30.0,6.0,0.0
20313,53.0,30.0,60.0,7.0,0.0
20314,85.0,0.0,60.0,0.0,0.0
20315,81.0,0.0,30.0,4.0,0.0
20316,65.0,0.0,60.0,5.0,0.0
20317,85.0,0.0,60.0,8.0,0.0
20318,80.0,0.0,30.0,4.0,0.0
20319,83.0,0.0,30.0,6.0,0.0
20320,83.0,30.0,30.0,0.0,0.0
20321,83.0,0.0,30.0,4.0,0.0
20322,83.0,0.0,30.0,8.0,0.0
20323,66.0,0.0,60.0,3.0,0.0
20324,57.0,0.0,60.0,10.0,0.0
20325,78.0,0.0,60.0,1.0,0.0
20326,83.0,0.0,30.0,6.0,0.0
20327,54.0,30.0,60.0,10.0,0.0
20328,61.0,0.0,60.0,10.0,0.0
20329,66.0,0.0,60.0,5.0,0.0
20330,73.0,0.0,60.0,2.0,0.0
20331,54.0,0.0,60.0,7.0,0.0
20332,81.0,0.0,30.0,6.0,0.0
20333,81.0,0.0,30.0,8.0,0.0
20334,81.0,0.0,30.0,0.0,0.0
20335,81.0,0.0,30.0,4.0,0.0
20336,62.0,0.0,60.0,5.0,0.0
20337,62.0,30.0,60.0,3.0,0.0
20338,50.0,0.0,60.0,7.0,0.0
20339,50.0,0.0,60.0,10.0,0.0
20340,80.0,0.0,30.0,4.0,0.0
20341,69.0,0.0,60.0,1.0,0.0
20342,80.0,0.0,30.0,6.0,0.0
20343,80.0,30.0,30.0,8.0,0.0
20344,80.0,0.0,30.0,0.0,0.0
20345,74.0,0.0,60.0,2.0,0.0
20346,78.0,0.0,30.0,8.0,0.0
20347,78.0,0.0,30.0,4.0,0.0
20348,78.0,0.0,30.0,0.0,0.0
20349,78.0,0.0,30.0,6.0,0.0
20350,59.0,0.0,60.0,5.0,0.0
20351,47.0,0.0,60.0,7.0,0.0
20352,74.0,0.0,60.0,2.0,0.0
20353,81.0,0.0,30.0,8.0,0.0
20354,47.0,0.0,60.0,10.0,0.0
20355,59.0,0.0,60.0,3.0,0.0
20356,81.0,0.0,30.0,0.0,0.0
20357,71.0,0.0,60.0,1.0,0.0
20358,81.0,0.0,30.0,6.0,0.0
20359,81.0,30.0,30.0,4.0,0.0
20360,80.0,30.0,30.0,8.0,0.0
20361,80.0,0.0,30.0,0.0,0.0
20362,80.0,0.0,30.0,4.0,0.0
20363,80.0,0.0,30.0,6.0,0.0
20364,49.0,0.0,60.0,7.0,0.0
20365,61.0,0.0,60.0,3.0,0.0
20366,49.0,0.0,60.0,10.0,0.0
20367,78.0,30.0,30.0,0.0,0.0
20368,78.0,0.0,30.0,6.0,0.0
20369,73.0,0.0,60.0,2.0,0.0
20370,61.0,20.0,60.0,5.0,0.0
20371,78.0,0.0,30.0,4.0,0.0
20372,78.0,0.0,30.0,8.0,0.0
20373,68.0,0.0,60.0,1.0,0.0
20374,77.0,0.0,30.0,0.0,0.0
20375,77.0,0.0,30.0,6.0,0.0
20376,77.0,0.0,30.0,8.0,0.0
20377,77.0,0.0,30.0,4.0,0.0
20378,73.0,0.0,60.0,2.0,0.0
20379,54.0,0.0,30.0,7.0,0.0
20380,54.0,0.0,60.0,3.0,0.0
20381,69.0,0.0,60.0,1.0,0.0
20382,78.0,59.0,1020.0,0.0,0.0
20383,78.0,10.0,20.0,4.0,0.0
20384,78.0,0.0,20.0,6.0,0.0
20385,54.0,0.0,30.0,5.0,0.0
20386,78.0,0.0,20.0,8.0,0.0
20387,54.0,10.0,30.0,10.0,0.0
20388,80.0,0.0,20.0,4.0,0.0
20389,80.0,20.0,20.0,8.0,0.0
20390,80.0,0.0,20.0,6.0,0.0
20391,61.0,0.0,30.0,5.0,0.0
20392,61.0,15.0,30.0,10.0,0.0
20393,61.0,0.0,30.0,7.0,0.0
20394,78.0,0.0,20.0,6.0,0.0
20395,78.0,0.0,20.0,4.0,0.0
20396,78.0,0.0,20.0,8.0,0.0
20397,80.0,15.0,15.0,6.0,0.0
20398,80.0,0.0,15.0,8.0,0.0
20399,59.0,0.0,30.0,10.0,0.0
20400,59.0,0.0,30.0,7.0,0.0
20401,59.0,0.0,30.0,5.0,0.0
20402,80.0,0.0,15.0,4.0,0.0
20403,78.0,15.0,15.0,6.0,0.0
20404,78.0,0.0,15.0,8.0,0.0
20405,78.0,0.0,15.0,4.0,0.0
20406,57.0,0.0,30.0,5.0,0.0
20407,57.0,0.0,30.0,10.0,0.0
20408,80.0,15.0,15.0,4.0,0.0
20409,57.0,0.0,30.0,7.0,0.0
20410,80.0,0.0,15.0,6.0,0.0
20411,80.0,0.0,15.0,8.0,0.0
20412,78.0,15.0,15.0,6.0,0.0
20413,78.0,0.0,15.0,4.0,0.0
20414,78.0,0.0,15.0,8.0,0.0
20415,80.0,15.0,15.0,4.0,0.0
20416,62.0,15.0,30.0,5.0,0.0
20417,80.0,0.0,15.0,6.0,0.0
20418,59.0,0.0,60.0,3.0,0.0
20419,80.0,0.0,15.0,8.0,0.0
20420,62.0,0.0,30.0,7.0,0.0
20421,62.0,0.0,30.0,10.0,0.0
20422,62.0,0.0,60.0,1.0,0.0
20423,71.0,0.0,60.0,2.0,0.0
20424,78.0,0.0,15.0,8.0,0.0
20425,78.0,0.0,15.0,6.0,0.0
20426,78.0,0.0,15.0,4.0,0.0
20427,80.0,0.0,15.0,6.0,0.0
20428,80.0,0.0,15.0,8.0,0.0
20429,59.0,0.0,30.0,10.0,0.0
20430,80.0,15.0,15.0,4.0,0.0
20431,59.0,0.0,30.0,7.0,0.0
20432,59.0,0.0,30.0,5.0,0.0
20433,78.0,15.0,15.0,4.0,0.0
20434,78.0,0.0,15.0,6.0,0.0
20435,78.0,0.0,15.0,8.0,0.0
20436,57.0,0.0,30.0,10.0,0.0
20437,80.0,0.0,15.0,8.0,0.0
20438,57.0,0.0,30.0,7.0,0.0
20439,80.0,0.0,15.0,6.0,0.0
20440,80.0,15.0,15.0,4.0,0.0
20441,57.0,15.0,30.0,5.0,0.0
20442,78.0,0.0,15.0,6.0,0.0
20443,78.0,0.0,15.0,8.0,0.0
20444,78.0,0.0,15.0,4.0,0.0
20445,80.0,0.0,15.0,4.0,0.0
20446,80.0,0.0,15.0,6.0,0.0
20447,80.0,15.0,15.0,8.0,0.0
20448,56.0,0.0,30.0,10.0,0.0
20449,56.0,15.0,30.0,7.0,0.0
20450,56.0,0.0,30.0,5.0,0.0
20451,78.0,0.0,15.0,6.0,0.0
20452,78.0,0.0,15.0,4.0,0.0
20453,78.0,0.0,15.0,8.0,0.0
20454,80.0,0.0,15.0,6.0,0.0
20455,61.0,0.0,30.0,7.0,0.0
20456,57.0,0.0,60.0,3.0,0.0
20457,80.0,15.0,15.0,4.0,0.0
20458,73.0,0.0,60.0,2.0,0.0
20459,61.0,0.0,30.0,5.0,0.0
20460,80.0,0.0,15.0,8.0,0.0
20461,66.0,0.0,60.0,1.0,0.0
20462,61.0,15.0,30.0,10.0,0.0
20463,78.0,0.0,15.0,4.0,0.0
20464,78.0,0.0,15.0,6.0,0.0
20465,78.0,0.0,15.0,8.0,0.0
20466,57.0,0.0,30.0,5.0,0.0
20467,80.0,0.0,15.0,6.0,0.0
20468,57.0,0.0,30.0,7.0,0.0
20469,80.0,0.0,15.0,8.0,0.0
20470,80.0,15.0,15.0,4.0,0.0
20471,57.0,0.0,30.0,10.0,0.0
20472,78.0,0.0,15.0,4.0,0.0
20473,78.0,15.0,15.0,6.0,0.0
20474,78.0,0.0,15.0,8.0,0.0
20475,56.0,0.0,30.0,7.0,0.0
20476,56.0,15.0,30.0,10.0,0.0
20477,80.0,15.0,15.0,4.0,0.0
20478,80.0,0.0,15.0,8.0,0.0
20479,80.0,0.0,15.0,6.0,0.0
20480,56.0,0.0,30.0,5.0,0.0
20481,78.0,0.0,15.0,6.0,0.0
20482,78.0,0.0,15.0,4.0,0.0
20483,78.0,0.0,15.0,8.0,0.0
20484,54.0,0.0,30.0,7.0,0.0
20485,80.0,0.0,15.0,4.0,0.0
20486,80.0,0.0,15.0,8.0,0.0
20487,54.0,0.0,30.0,10.0,0.0
20488,80.0,15.0,15.0,6.0,0.0
20489,54.0,0.0,30.0,5.0,0.0
20490,78.0,0.0,15.0,4.0,0.0
20491,78.0,0.0,15.0,8.0,0.0
20492,78.0,15.0,15.0,6.0,0.0
20493,80.0,0.0,15.0,6.0,0.0
20494,59.0,0.0,30.0,5.0,0.0
20495,59.0,0.0,30.0,7.0,0.0
20496,59.0,0.0,30.0,10.0,0.0
20497,80.0,0.0,15.0,4.0,0.0
20498,56.0,0.0,60.0,3.0,0.0
20499,74.0,0.0,60.0,2.0,0.0
20500,68.0,0.0,60.0,1.0,0.0
20501,80.0,15.0,15.0,8.0,0.0
20502,78.0,0.0,15.0,4.0,0.0
20503,78.0,0.0,15.0,8.0,0.0
20504,78.0,15.0,15.0,6.0,0.0
20505,80.0,0.0,15.0,8.0,0.0
20506,57.0,0.0,30.0,7.0,0.0
20507,57.0,15.0,30.0,5.0,0.0
20508,57.0,0.0,30.0,10.0,0.0
20509,80.0,15.0,15.0,6.0,0.0
20510,80.0,0.0,15.0,4.0,0.0
20511,78.0,0.0,15.0,8.0,0.0
20512,78.0,0.0,15.0,4.0,0.0
20513,78.0,0.0,15.0,6.0,0.0
20514,80.0,15.0,15.0,8.0,0.0
20515,80.0,0.0,15.0,6.0,0.0
20516,80.0,0.0,15.0,4.0,0.0
20517,56.0,0.0,30.0,7.0,0.0
20518,56.0,0.0,30.0,10.0,0.0
20519,56.0,0.0,30.0,5.0,0.0
20520,78.0,0.0,15.0,4.0,0.0
20521,78.0,0.0,15.0,6.0,0.0
20522,78.0,15.0,15.0,8.0,0.0
20523,80.0,15.0,15.0,6.0,0.0
20524,54.0,0.0,30.0,5.0,0.0
20525,80.0,0.0,15.0,8.0,0.0
20526,54.0,0.0,30.0,10.0,0.0
20527,80.0,0.0,15.0,4.0,0.0
20528,54.0,0.0,30.0,7.0,0.0
20529,78.0,15.0,15.0,4.0,0.0
20530,78.0,0.0,15.0,8.0,0.0
20531,78.0,0.0,15.0,6.0,0.0
20532,73.0,0.0,60.0,1.0,0.0
20533,61.0,0.0,30.0,5.0,0.0
20534,80.0,0.0,15.0,8.0,0.0
20535,61.0,0.0,30.0,10.0,0.0
20536,80.0,15.0,15.0,6.0,0.0
20537,61.0,0.0,30.0,7.0,0.0
20538,80.0,0.0,15.0,4.0,0.0
20539,69.0,0.0,60.0,2.0,0.0
20540,54.0,0.0,60.0,3.0,0.0
20541,78.0,0.0,15.0,4.0,0.0
20542,78.0,0.0,15.0,6.0,0.0
20543,78.0,15.0,15.0,8.0,0.0
20544,57.0,0.0,30.0,10.0,0.0
20545,80.0,15.0,15.0,6.0,0.0
20546,57.0,15.0,30.0,5.0,0.0
20547,80.0,0.0,15.0,8.0,0.0
20548,80.0,0.0,15.0,4.0,0.0
20549,57.0,0.0,30.0,7.0,0.0
20550,78.0,0.0,15.0,4.0,0.0
20551,78.0,0.0,15.0,6.0,0.0
20552,78.0,0.0,15.0,8.0,0.0
20553,80.0,0.0,15.0,8.0,0.0
20554,56.0,0.0,30.0,7.0,0.0
20555,56.0,0.0,30.0,10.0,0.0
20556,80.0,15.0,15.0,4.0,0.0
20557,56.0,0.0,30.0,5.0,0.0
20558,80.0,0.0,15.0,6.0,0.0
20559,78.0,0.0,15.0,4.0,0.0
20560,78.0,15.0,15.0,8.0,0.0
20561,78.0,0.0,15.0,6.0,0.0
20562,80.0,0.0,15.0,8.0,0.0
20563,80.0,0.0,15.0,6.0,0.0
20564,54.0,0.0,30.0,7.0,0.0
20565,54.0,0.0,30.0,10.0,0.0
20566,80.0,15.0,15.0,4.0,0.0
20567,54.0,0.0,30.0,5.0,0.0
20568,78.0,0.0,15.0,4.0,0.0
20569,78.0,0.0,15.0,8.0,0.0
20570,78.0,15.0,15.0,6.0,0.0
20571,62.0,0.0,30.0,5.0,0.0
20572,71.0,0.0,60.0,1.0,0.0
20573,80.0,0.0,15.0,4.0,0.0
20574,80.0,0.0,15.0,8.0,0.0
20575,80.0,15.0,15.0,6.0,0.0
20576,68.0,15.0,60.0,2.0,0.0
20577,62.0,0.0,30.0,7.0,0.0
20578,47.0,0.0,60.0,3.0,0.0
20579,62.0,15.0,30.0,10.0,0.0
20580,78.0,0.0,15.0,4.0,0.0
20581,78.0,0.0,15.0,6.0,0.0
20582,78.0,0.0,15.0,8.0,0.0
20583,80.0,15.0,15.0,4.0,0.0
20584,80.0,0.0,15.0,6.0,0.0
20585,80.0,0.0,15.0,8.0,0.0
20586,59.0,0.0,30.0,5.0,0.0
20587,59.0,0.0,30.0,7.0,0.0
20588,59.0,0.0,30.0,10.0,0.0
20589,78.0,0.0,15.0,6.0,0.0
20590,78.0,0.0,15.0,4.0,0.0
20591,78.0,0.0,15.0,8.0,0.0
20592,80.0,0.0,15.0,4.0,0.0
20593,80.0,0.0,15.0,6.0,0.0
20594,57.0,0.0,30.0,7.0,0.0
20595,80.0,15.0,15.0,8.0,0.0
20596,57.0,0.0,30.0,5.0,0.0
20597,57.0,0.0,30.0,10.0,0.0
20598,78.0,15.0,15.0,6.0,0.0
20599,78.0,0.0,15.0,8.0,0.0
20600,78.0,0.0,15.0,4.0,0.0
20601,56.0,0.0,30.0,5.0,0.0
20602,80.0,15.0,15.0,4.0,0.0
20603,56.0,0.0,30.0,10.0,0.0
20604,80.0,0.0,15.0,6.0,0.0
20605,80.0,0.0,15.0,8.0,0.0
20606,56.0,0.0,30.0,7.0,0.0
20607,78.0,15.0,15.0,6.0,0.0
20608,78.0,0.0,15.0,8.0,0.0
20609,78.0,0.0,15.0,4.0,0.0
20610,61.0,0.0,30.0,7.0,0.0
20611,80.0,15.0,15.0,4.0,0.0
20612,61.0,0.0,30.0,10.0,0.0
20613,80.0,0.0,15.0,6.0,0.0
20614,45.0,0.0,60.0,3.0,0.0
20615,73.0,0.0,60.0,1.0,0.0
20616,80.0,0.0,15.0,8.0,0.0
20617,61.0,0.0,30.0,5.0,0.0
20618,69.0,0.0,60.0,2.0,0.0
20619,78.0,0.0,15.0,4.0,0.0
20620,78.0,15.0,15.0,6.0,0.0
20621,78.0,0.0,15.0,8.0,0.0
20622,57.0,0.0,30.0,10.0,0.0
20623,57.0,0.0,30.0,5.0,0.0
20624,80.0,0.0,15.0,4.0,0.0
20625,80.0,0.0,15.0,6.0,0.0
20626,57.0,0.0,30.0,7.0,0.0
20627,80.0,15.0,15.0,8.0,0.0
20628,78.0,0.0,15.0,6.0,0.0
20629,78.0,0.0,15.0,8.0,0.0
20630,78.0,15.0,15.0,4.0,0.0
20631,80.0,0.0,15.0,8.0,0.0
20632,80.0,15.0,15.0,4.0,0.0
20633,80.0,0.0,15.0,6.0,0.0
20634,56.0,15.0,30.0,10.0,0.0
20635,56.0,0.0,30.0,5.0,0.0
20636,56.0,0.0,30.0,7.0,0.0
20637,78.0,0.0,15.0,4.0,0.0
20638,78.0,0.0,15.0,8.0,0.0
20639,78.0,0.0,15.0,6.0,0.0
20640,80.0,0.0,15.0,4.0,0.0
20641,54.0,0.0,30.0,7.0,0.0
20642,54.0,15.0,30.0,5.0,0.0
20643,54.0,0.0,30.0,10.0,0.0
20644,80.0,15.0,15.0,6.0,0.0
20645,80.0,0.0,15.0,8.0,0.0
20646,78.0,0.0,15.0,4.0,0.0
20647,78.0,0.0,15.0,6.0,0.0
20648,78.0,0.0,15.0,8.0,0.0
20649,80.0,15.0,15.0,4.0,0.0
20650,74.0,0.0,60.0,1.0,0.0
20651,44.0,0.0,60.0,3.0,0.0
20652,59.0,0.0,30.0,7.0,0.0
20653,71.0,15.0,60.0,2.0,0.0
20654,80.0,0.0,15.0,8.0,0.0
20655,59.0,0.0,30.0,5.0,0.0
20656,59.0,0.0,30.0,10.0,0.0
20657,80.0,0.0,15.0,6.0,0.0
20658,78.0,15.0,15.0,8.0,0.0
20659,78.0,0.0,15.0,4.0,0.0
20660,78.0,0.0,15.0,6.0,0.0
20661,57.0,0.0,30.0,10.0,0.0
20662,57.0,0.0,30.0,7.0,0.0
20663,57.0,0.0,30.0,5.0,0.0
20664,80.0,0.0,15.0,8.0,0.0
20665,80.0,15.0,15.0,4.0,0.0
20666,80.0,0.0,15.0,6.0,0.0
20667,78.0,0.0,15.0,6.0,0.0
20668,78.0,0.0,15.0,8.0,0.0
20669,78.0,0.0,15.0,4.0,0.0
20670,80.0,0.0,15.0,6.0,0.0
20671,56.0,0.0,30.0,10.0,0.0
20672,56.0,0.0,30.0,5.0,0.0
20673,80.0,15.0,15.0,8.0,0.0
20674,56.0,0.0,30.0,7.0,0.0
20675,80.0,0.0,15.0,4.0,0.0
20676,78.0,0.0,15.0,8.0,0.0
20677,78.0,15.0,15.0,6.0,0.0
20678,78.0,0.0,15.0,4.0,0.0
20679,80.0,15.0,15.0,6.0,0.0
20680,80.0,0.0,15.0,4.0,0.0
20681,80.0,0.0,15.0,8.0,0.0
20682,59.0,15.0,30.0,10.0,0.0
20683,59.0,0.0,30.0,7.0,0.0
20684,59.0,0.0,30.0,5.0,0.0
20685,78.0,0.0,15.0,6.0,0.0
20686,78.0,0.0,15.0,4.0,0.0
20687,78.0,0.0,15.0,8.0,0.0
20688,66.0,0.0,60.0,2.0,0.0
20689,80.0,0.0,15.0,8.0,0.0
20690,57.0,0.0,30.0,7.0,0.0
20691,57.0,0.0,30.0,5.0,0.0
20692,73.0,0.0,60.0,1.0,0.0
20693,80.0,0.0,15.0,6.0,0.0
20694,45.0,0.0,60.0,3.0,0.0
20695,57.0,15.0,30.0,10.0,0.0
20696,80.0,15.0,15.0,4.0,0.0
20697,78.0,0.0,15.0,6.0,0.0
20698,78.0,0.0,15.0,4.0,0.0
20699,78.0,0.0,15.0,8.0,0.0
20700,54.0,0.0,30.0,10.0,0.0
20701,54.0,0.0,30.0,5.0,0.0
20702,80.0,0.0,15.0,6.0,0.0
20703,54.0,0.0,30.0,7.0,0.0
20704,80.0,0.0,15.0,4.0,0.0
20705,80.0,15.0,15.0,8.0,0.0
20706,78.0,0.0,15.0,4.0,0.0
20707,78.0,1.0,15.0,6.0,0.0
20708,78.0,0.0,15.0,8.0,0.0
20709,74.0,0.0,60.0,6.0,0.0
20710,71.0,0.0,60.0,6.0,0.0
20711,80.0,0.0,60.0,6.0,0.0
20712,47.0,60.0,60.0,3.0,0.0
20713,71.0,0.0,60.0,2.0,0.0
20714,59.0,0.0,60.0,7.0,0.0
20715,71.0,0.0,60.0,8.0,0.0
20716,74.0,0.0,60.0,8.0,0.0
20717,80.0,0.0,60.0,0.0,0.0
20718,80.0,0.0,60.0,4.0,0.0
20719,71.0,0.0,60.0,4.0,0.0
20720,59.0,0.0,60.0,10.0,0.0
20721,74.0,0.0,60.0,1.0,0.0
20722,74.0,0.0,60.0,4.0,0.0
20723,59.0,0.0,60.0,5.0,0.0
20724,80.0,0.0,60.0,8.0,0.0
20725,61.0,0.0,60.0,10.0,0.0
20726,69.0,0.0,60.0,6.0,0.0
20727,73.0,60.0,60.0,6.0,0.0
20728,69.0,0.0,60.0,4.0,0.0
20729,73.0,0.0,60.0,4.0,0.0
20730,61.0,0.0,60.0,5.0,0.0
20731,61.0,0.0,60.0,7.0,0.0
20732,69.0,0.0,60.0,8.0,0.0
20733,73.0,0.0,60.0,8.0,0.0
20734,73.0,0.0,60.0,0.0,0.0
20735,73.0,0.0,60.0,1.0,0.0
20736,69.0,0.0,60.0,2.0,0.0
20737,49.0,0.0,60.0,3.0,0.0
20738,49.0,0.0,60.0,10.0,0.0
20739,49.0,0.0,60.0,5.0,0.0
20740,71.0,0.0,60.0,4.0,0.0
20741,73.0,0.0,60.0,6.0,0.0
20742,77.0,0.0,60.0,4.0,0.0
20743,77.0,240.0,60.0,0.0,0.0
20744,49.0,0.0,60.0,7.0,0.0
20745,68.0,0.0,60.0,2.0,0.0
20746,68.0,0.0,60.0,4.0,0.0
20747,77.0,0.0,60.0,6.0,0.0
20748,73.0,0.0,60.0,8.0,0.0
20749,77.0,0.0,60.0,8.0,0.0
20750,71.0,0.0,60.0,8.0,0.0
20751,68.0,0.0,60.0,8.0,0.0
20752,73.0,0.0,60.0,1.0,0.0
20753,68.0,0.0,60.0,6.0,0.0
20754,71.0,0.0,60.0,6.0,0.0
20755,49.0,0.0,60.0,3.0,0.0
20756,73.0,0.0,60.0,4.0,0.0
20757,69.0,0.0,240.0,4.0,0.0
20758,78.0,0.0,240.0,4.0,0.0
20759,73.0,0.0,240.0,1.0,0.0
20760,42.0,0.0,240.0,10.0,0.0
20761,54.0,0.0,240.0,10.0,0.0
20762,66.0,0.0,240.0,8.0,0.0
20763,69.0,0.0,240.0,8.0,0.0
20764,73.0,0.0,240.0,8.0,0.0
20765,78.0,0.0,240.0,8.0,0.0
20766,54.0,0.0,240.0,5.0,0.0
20767,42.0,0.0,240.0,5.0,0.0
20768,78.0,0.0,240.0,0.0,0.0
20769,66.0,0.0,240.0,4.0,0.0
20770,73.0,0.0,240.0,4.0,0.0
20771,42.0,0.0,240.0,3.0,0.0
20772,78.0,0.0,240.0,6.0,0.0
20773,73.0,0.0,240.0,6.0,0.0
20774,54.0,0.0,240.0,7.0,0.0
20775,42.0,0.0,240.0,7.0,0.0
20776,69.0,0.0,240.0,6.0,0.0
20777,69.0,0.0,240.0,2.0,0.0
20778,66.0,0.0,240.0,6.0,0.0
