,note,step,duration,channel,velocity
0,52.0,120.0,480.0,0.0,64.0
1,76.0,120.0,120.0,0.0,64.0
2,75.0,120.0,120.0,0.0,64.0
3,76.0,0.0,120.0,0.0,64.0
4,80.0,120.0,120.0,0.0,64.0
5,76.0,120.0,120.0,0.0,64.0
6,75.0,120.0,120.0,0.0,64.0
7,76.0,120.0,120.0,0.0,64.0
8,71.0,120.0,120.0,0.0,64.0
9,76.0,120.0,120.0,0.0,64.0
10,68.0,120.0,120.0,0.0,64.0
11,71.0,240.0,120.0,0.0,64.0
12,64.0,240.0,240.0,0.0,64.0
13,68.0,0.0,240.0,0.0,64.0
14,83.0,0.0,240.0,0.0,64.0
15,80.0,0.0,240.0,0.0,64.0
16,64.0,240.0,15.0,0.0,64.0
17,52.0,240.0,240.0,0.0,64.0
18,83.0,0.0,240.0,0.0,64.0
19,64.0,0.0,240.0,0.0,64.0
20,68.0,240.0,240.0,0.0,64.0
21,85.0,0.0,240.0,0.0,64.0
22,52.0,0.0,240.0,0.0,64.0
23,69.0,120.0,240.0,0.0,64.0
24,64.0,0.0,240.0,0.0,64.0
25,68.0,0.0,120.0,0.0,64.0
26,83.0,120.0,120.0,0.0,64.0
27,66.0,120.0,120.0,0.0,64.0
28,81.0,0.0,120.0,0.0,64.0
29,52.0,0.0,480.0,0.0,64.0
30,68.0,120.0,120.0,0.0,64.0
31,83.0,0.0,480.0,0.0,64.0
32,64.0,120.0,120.0,0.0,64.0
33,63.0,120.0,120.0,0.0,64.0
34,64.0,120.0,120.0,0.0,64.0
35,68.0,120.0,120.0,0.0,64.0
36,64.0,120.0,120.0,0.0,64.0
37,63.0,120.0,120.0,0.0,64.0
38,64.0,120.0,120.0,0.0,64.0
39,59.0,120.0,120.0,0.0,64.0
40,64.0,120.0,120.0,0.0,64.0
41,56.0,120.0,120.0,0.0,64.0
42,59.0,240.0,120.0,0.0,64.0
43,80.0,0.0,240.0,0.0,64.0
44,52.0,240.0,15.0,0.0,64.0
45,71.0,240.0,240.0,0.0,64.0
46,40.0,240.0,240.0,0.0,64.0
47,68.0,0.0,240.0,0.0,64.0
48,76.0,0.0,240.0,0.0,64.0
49,71.0,0.0,240.0,0.0,64.0
50,52.0,0.0,240.0,0.0,64.0
51,80.0,240.0,240.0,0.0,64.0
52,40.0,0.0,240.0,0.0,64.0
53,73.0,0.0,240.0,0.0,64.0
54,81.0,120.0,240.0,0.0,64.0
55,52.0,0.0,240.0,0.0,64.0
56,71.0,0.0,120.0,0.0,64.0
57,80.0,120.0,120.0,0.0,64.0
58,78.0,120.0,120.0,0.0,64.0
59,69.0,0.0,120.0,0.0,64.0
60,71.0,120.0,120.0,0.0,64.0
61,40.0,0.0,480.0,0.0,64.0
62,80.0,0.0,240.0,0.0,64.0
63,68.0,120.0,120.0,0.0,64.0
64,83.0,120.0,240.0,0.0,64.0
65,64.0,120.0,120.0,0.0,64.0
66,68.0,0.0,120.0,0.0,64.0
67,73.0,120.0,120.0,0.0,64.0
68,52.0,0.0,480.0,0.0,64.0
69,76.0,0.0,240.0,0.0,64.0
70,68.0,120.0,120.0,0.0,64.0
71,80.0,120.0,240.0,0.0,64.0
72,64.0,120.0,120.0,0.0,64.0
73,68.0,0.0,120.0,0.0,64.0
74,73.0,120.0,120.0,0.0,64.0
75,76.0,120.0,120.0,0.0,64.0
76,40.0,0.0,240.0,0.0,64.0
77,78.0,120.0,120.0,0.0,64.0
78,80.0,120.0,120.0,0.0,64.0
79,81.0,120.0,240.0,0.0,64.0
80,42.0,120.0,480.0,0.0,64.0
81,69.0,0.0,120.0,0.0,64.0
82,85.0,0.0,240.0,0.0,64.0
83,66.0,120.0,120.0,0.0,64.0
84,69.0,0.0,120.0,0.0,64.0
85,75.0,120.0,120.0,0.0,64.0
86,78.0,0.0,240.0,0.0,64.0
87,54.0,0.0,480.0,0.0,64.0
88,69.0,120.0,120.0,0.0,64.0
89,81.0,120.0,240.0,0.0,64.0
90,66.0,120.0,120.0,0.0,64.0
91,69.0,0.0,120.0,0.0,64.0
92,75.0,120.0,120.0,0.0,64.0
93,78.0,120.0,120.0,0.0,64.0
94,80.0,120.0,120.0,0.0,64.0
95,81.0,120.0,120.0,0.0,64.0
96,44.0,0.0,480.0,0.0,64.0
97,83.0,0.0,240.0,0.0,64.0
98,71.0,120.0,120.0,0.0,64.0
99,88.0,0.0,120.0,0.0,64.0
100,68.0,120.0,120.0,0.0,64.0
101,83.0,120.0,120.0,0.0,64.0
102,71.0,0.0,120.0,0.0,64.0
103,76.0,120.0,120.0,0.0,64.0
104,56.0,0.0,480.0,0.0,64.0
105,80.0,0.0,240.0,0.0,64.0
106,71.0,120.0,120.0,0.0,64.0
107,83.0,0.0,120.0,0.0,64.0
108,68.0,120.0,120.0,0.0,64.0
109,71.0,0.0,120.0,0.0,64.0
110,80.0,120.0,15.0,0.0,64.0
111,76.0,120.0,120.0,0.0,64.0
112,80.0,120.0,120.0,0.0,64.0
113,81.0,120.0,120.0,0.0,64.0
114,83.0,120.0,120.0,0.0,64.0
115,45.0,0.0,480.0,0.0,64.0
116,85.0,120.0,120.0,0.0,64.0
117,83.0,120.0,120.0,0.0,64.0
118,78.0,120.0,120.0,0.0,64.0
119,85.0,0.0,120.0,0.0,64.0
120,76.0,0.0,120.0,0.0,64.0
121,86.0,120.0,120.0,0.0,64.0
122,85.0,120.0,120.0,0.0,64.0
123,78.0,120.0,240.0,0.0,64.0
124,57.0,0.0,480.0,0.0,64.0
125,83.0,0.0,120.0,0.0,64.0
126,73.0,120.0,240.0,0.0,64.0
127,81.0,120.0,120.0,0.0,64.0
128,80.0,0.0,120.0,0.0,64.0
129,78.0,120.0,120.0,0.0,64.0
130,81.0,120.0,720.0,0.0,64.0
131,76.0,120.0,120.0,0.0,64.0
132,75.0,120.0,120.0,0.0,64.0
133,73.0,120.0,120.0,0.0,64.0
134,75.0,120.0,120.0,0.0,64.0
135,59.0,120.0,480.0,0.0,64.0
136,76.0,0.0,120.0,0.0,64.0
137,78.0,0.0,240.0,0.0,64.0
138,75.0,120.0,120.0,0.0,64.0
139,71.0,0.0,120.0,0.0,64.0
140,75.0,120.0,240.0,0.0,64.0
141,78.0,120.0,120.0,0.0,64.0
142,47.0,120.0,4080.0,0.0,64.0
143,80.0,0.0,120.0,0.0,64.0
144,78.0,120.0,120.0,0.0,64.0
145,75.0,120.0,120.0,0.0,64.0
146,71.0,0.0,240.0,0.0,64.0
147,81.0,120.0,120.0,0.0,64.0
148,83.0,120.0,120.0,0.0,64.0
149,75.0,120.0,240.0,0.0,64.0
150,81.0,120.0,120.0,0.0,64.0
151,78.0,0.0,120.0,0.0,64.0
152,79.0,0.0,240.0,0.0,64.0
153,76.0,120.0,120.0,0.0,64.0
154,78.0,120.0,120.0,0.0,64.0
155,76.0,0.0,240.0,0.0,64.0
156,79.0,120.0,120.0,0.0,64.0
157,81.0,120.0,120.0,0.0,64.0
158,79.0,120.0,120.0,0.0,64.0
159,83.0,0.0,240.0,0.0,64.0
160,78.0,120.0,120.0,0.0,64.0
161,79.0,0.0,240.0,0.0,64.0
162,76.0,120.0,120.0,0.0,64.0
163,74.0,120.0,120.0,0.0,64.0
164,73.0,120.0,120.0,0.0,64.0
165,88.0,120.0,600.0,0.0,64.0
166,71.0,120.0,120.0,0.0,64.0
167,70.0,120.0,120.0,0.0,64.0
168,68.0,120.0,120.0,0.0,64.0
169,70.0,0.0,240.0,0.0,64.0
170,86.0,120.0,120.0,0.0,64.0
171,64.0,0.0,240.0,0.0,64.0
172,85.0,120.0,120.0,0.0,64.0
173,83.0,120.0,120.0,0.0,64.0
174,82.0,120.0,120.0,0.0,64.0
175,73.0,0.0,240.0,0.0,64.0
176,85.0,120.0,120.0,0.0,64.0
177,70.0,0.0,240.0,0.0,64.0
178,79.0,120.0,120.0,0.0,64.0
179,78.0,120.0,120.0,0.0,64.0
180,79.0,120.0,120.0,0.0,64.0
181,76.0,120.0,120.0,0.0,64.0
182,83.0,120.0,120.0,0.0,64.0
183,82.0,120.0,120.0,0.0,64.0
184,83.0,0.0,120.0,0.0,64.0
185,78.0,0.0,120.0,0.0,64.0
186,75.0,0.0,120.0,0.0,64.0
187,76.0,120.0,120.0,0.0,64.0
188,54.0,0.0,240.0,0.0,64.0
189,73.0,0.0,120.0,0.0,64.0
190,75.0,0.0,120.0,0.0,64.0
191,78.0,120.0,120.0,0.0,64.0
192,71.0,120.0,120.0,0.0,64.0
193,56.0,120.0,240.0,0.0,64.0
194,87.0,0.0,1080.0,0.0,64.0
195,80.0,0.0,120.0,0.0,64.0
196,78.0,120.0,120.0,0.0,64.0
197,58.0,0.0,240.0,0.0,64.0
198,76.0,120.0,120.0,0.0,64.0
199,59.0,0.0,240.0,0.0,64.0
200,75.0,120.0,120.0,0.0,64.0
201,73.0,120.0,120.0,0.0,64.0
202,51.0,0.0,240.0,0.0,64.0
203,71.0,120.0,120.0,0.0,64.0
204,70.0,120.0,120.0,0.0,64.0
205,68.0,120.0,120.0,0.0,64.0
206,52.0,0.0,240.0,0.0,64.0
207,70.0,120.0,120.0,0.0,64.0
208,76.0,0.0,120.0,0.0,64.0
209,75.0,0.0,120.0,0.0,64.0
210,56.0,0.0,240.0,0.0,64.0
211,66.0,120.0,120.0,0.0,64.0
212,76.0,0.0,120.0,0.0,64.0
213,68.0,120.0,120.0,0.0,64.0
214,85.0,120.0,1080.0,0.0,64.0
215,64.0,120.0,120.0,0.0,64.0
216,58.0,120.0,240.0,0.0,64.0
217,78.0,0.0,120.0,0.0,64.0
218,59.0,120.0,240.0,0.0,64.0
219,76.0,120.0,120.0,0.0,64.0
220,75.0,0.0,120.0,0.0,64.0
221,73.0,120.0,120.0,0.0,64.0
222,61.0,120.0,240.0,0.0,64.0
223,71.0,0.0,120.0,0.0,64.0
224,70.0,120.0,120.0,0.0,64.0
225,52.0,120.0,240.0,0.0,64.0
226,68.0,0.0,120.0,0.0,64.0
227,66.0,0.0,120.0,0.0,64.0
228,54.0,120.0,240.0,0.0,64.0
229,75.0,0.0,120.0,0.0,64.0
230,68.0,0.0,120.0,0.0,64.0
231,64.0,0.0,120.0,0.0,64.0
232,73.0,120.0,120.0,0.0,64.0
233,58.0,120.0,240.0,0.0,64.0
234,75.0,0.0,120.0,0.0,64.0
235,66.0,0.0,120.0,0.0,64.0
236,63.0,120.0,120.0,0.0,64.0
237,83.0,120.0,1080.0,0.0,64.0
238,59.0,0.0,240.0,0.0,64.0
239,76.0,120.0,120.0,0.0,64.0
240,61.0,120.0,240.0,0.0,64.0
241,75.0,120.0,120.0,0.0,64.0
242,73.0,0.0,120.0,0.0,64.0
243,71.0,120.0,120.0,0.0,64.0
244,63.0,120.0,240.0,0.0,64.0
245,70.0,0.0,120.0,0.0,64.0
246,54.0,0.0,240.0,0.0,64.0
247,68.0,120.0,120.0,0.0,64.0
248,66.0,120.0,120.0,0.0,64.0
249,64.0,0.0,240.0,0.0,64.0
250,56.0,0.0,240.0,0.0,64.0
251,82.0,120.0,120.0,0.0,64.0
252,68.0,0.0,480.0,0.0,64.0
253,59.0,0.0,240.0,0.0,64.0
254,80.0,120.0,120.0,0.0,64.0
255,78.0,120.0,120.0,0.0,64.0
256,61.0,120.0,240.0,0.0,64.0
257,76.0,120.0,120.0,0.0,64.0
258,75.0,0.0,120.0,0.0,64.0
259,63.0,120.0,240.0,0.0,64.0
260,73.0,120.0,120.0,0.0,64.0
261,71.0,0.0,120.0,0.0,64.0
262,64.0,0.0,240.0,0.0,64.0
263,70.0,120.0,120.0,0.0,64.0
264,68.0,0.0,120.0,0.0,64.0
265,66.0,120.0,120.0,0.0,64.0
266,76.0,120.0,360.0,0.0,64.0
267,56.0,0.0,240.0,0.0,64.0
268,64.0,120.0,120.0,0.0,64.0
269,58.0,120.0,240.0,0.0,64.0
270,66.0,0.0,240.0,0.0,64.0
271,71.0,0.0,120.0,0.0,64.0
272,54.0,240.0,240.0,0.0,64.0
273,76.0,0.0,240.0,0.0,64.0
274,73.0,120.0,120.0,0.0,64.0
275,70.0,0.0,120.0,0.0,64.0
276,75.0,0.0,240.0,0.0,64.0
277,71.0,120.0,240.0,0.0,64.0
278,59.0,0.0,240.0,0.0,64.0
279,52.0,120.0,240.0,0.0,64.0
280,80.0,120.0,120.0,0.0,64.0
281,73.0,0.0,240.0,0.0,64.0
282,78.0,0.0,120.0,0.0,64.0
283,76.0,120.0,120.0,0.0,64.0
284,66.0,120.0,240.0,0.0,64.0
285,54.0,0.0,240.0,0.0,64.0
286,75.0,0.0,120.0,0.0,64.0
287,73.0,120.0,120.0,0.0,64.0
288,42.0,0.0,240.0,0.0,64.0
289,70.0,0.0,240.0,0.0,64.0
290,71.0,240.0,15.0,0.0,64.0
291,47.0,0.0,480.0,0.0,64.0
292,71.0,120.0,120.0,0.0,64.0
293,70.0,120.0,120.0,0.0,64.0
294,71.0,0.0,120.0,0.0,64.0
295,75.0,120.0,120.0,0.0,64.0
296,71.0,120.0,120.0,0.0,64.0
297,70.0,120.0,120.0,0.0,64.0
298,71.0,120.0,120.0,0.0,64.0
299,66.0,120.0,120.0,0.0,64.0
300,71.0,120.0,120.0,0.0,64.0
301,63.0,120.0,120.0,0.0,64.0
302,66.0,240.0,120.0,0.0,64.0
303,59.0,240.0,15.0,0.0,64.0
304,78.0,240.0,240.0,0.0,64.0
305,87.0,0.0,240.0,0.0,64.0
306,47.0,0.0,240.0,0.0,64.0
307,83.0,240.0,240.0,0.0,64.0
308,75.0,0.0,240.0,0.0,64.0
309,59.0,240.0,240.0,0.0,64.0
310,87.0,0.0,240.0,0.0,64.0
311,78.0,0.0,240.0,0.0,64.0
312,88.0,120.0,240.0,0.0,64.0
313,80.0,0.0,240.0,0.0,64.0
314,47.0,0.0,240.0,0.0,64.0
315,78.0,0.0,120.0,0.0,64.0
316,87.0,120.0,120.0,0.0,64.0
317,59.0,120.0,240.0,0.0,64.0
318,76.0,0.0,120.0,0.0,64.0
319,85.0,0.0,120.0,0.0,64.0
320,78.0,0.0,480.0,0.0,64.0
321,47.0,0.0,480.0,0.0,64.0
322,87.0,120.0,120.0,0.0,64.0
323,83.0,120.0,120.0,0.0,64.0
324,82.0,120.0,120.0,0.0,64.0
325,83.0,120.0,120.0,0.0,64.0
326,87.0,120.0,120.0,0.0,64.0
327,83.0,120.0,120.0,0.0,64.0
328,82.0,120.0,120.0,0.0,64.0
329,83.0,120.0,120.0,0.0,64.0
330,78.0,120.0,120.0,0.0,64.0
331,83.0,120.0,120.0,0.0,64.0
332,75.0,120.0,120.0,0.0,64.0
333,78.0,240.0,120.0,0.0,64.0
334,71.0,240.0,240.0,0.0,64.0
335,63.0,0.0,240.0,0.0,64.0
336,78.0,0.0,240.0,0.0,64.0
337,47.0,0.0,240.0,0.0,64.0
338,75.0,240.0,240.0,0.0,64.0
339,59.0,240.0,15.0,0.0,64.0
340,59.0,0.0,15.0,0.0,64.0
341,63.0,0.0,240.0,0.0,64.0
342,78.0,0.0,240.0,0.0,64.0
343,80.0,120.0,240.0,0.0,64.0
344,47.0,0.0,240.0,0.0,64.0
345,64.0,0.0,240.0,0.0,64.0
346,63.0,0.0,120.0,0.0,64.0
347,59.0,0.0,240.0,0.0,64.0
348,78.0,120.0,120.0,0.0,64.0
349,61.0,120.0,120.0,0.0,64.0
350,76.0,0.0,120.0,0.0,64.0
351,78.0,120.0,120.0,0.0,64.0
352,47.0,0.0,480.0,0.0,64.0
353,63.0,0.0,240.0,0.0,64.0
354,75.0,120.0,120.0,0.0,64.0
355,71.0,120.0,120.0,0.0,64.0
356,66.0,120.0,240.0,0.0,64.0
357,75.0,0.0,120.0,0.0,64.0
358,80.0,120.0,120.0,0.0,64.0
359,59.0,0.0,240.0,0.0,64.0
360,75.0,120.0,120.0,0.0,64.0
361,71.0,120.0,120.0,0.0,64.0
362,63.0,0.0,240.0,0.0,64.0
363,75.0,0.0,120.0,0.0,64.0
364,83.0,120.0,600.0,0.0,64.0
365,56.0,120.0,120.0,0.0,64.0
366,59.0,120.0,120.0,0.0,64.0
367,61.0,120.0,120.0,0.0,64.0
368,47.0,120.0,240.0,0.0,64.0
369,63.0,0.0,120.0,0.0,64.0
370,64.0,0.0,240.0,0.0,64.0
371,49.0,0.0,480.0,0.0,64.0
372,76.0,120.0,120.0,0.0,64.0
373,68.0,120.0,240.0,0.0,64.0
374,73.0,120.0,120.0,0.0,64.0
375,76.0,0.0,120.0,0.0,64.0
376,82.0,120.0,120.0,0.0,64.0
377,61.0,0.0,240.0,0.0,64.0
378,76.0,120.0,120.0,0.0,64.0
379,73.0,120.0,120.0,0.0,64.0
380,64.0,120.0,240.0,0.0,64.0
381,76.0,0.0,120.0,0.0,64.0
382,58.0,120.0,120.0,0.0,64.0
383,85.0,120.0,600.0,0.0,64.0
384,61.0,120.0,120.0,0.0,64.0
385,49.0,120.0,240.0,0.0,64.0
386,63.0,120.0,120.0,0.0,64.0
387,64.0,0.0,120.0,0.0,64.0
388,66.0,0.0,240.0,0.0,64.0
389,51.0,0.0,480.0,0.0,64.0
390,78.0,120.0,120.0,0.0,64.0
391,71.0,0.0,120.0,0.0,64.0
392,75.0,120.0,120.0,0.0,64.0
393,78.0,120.0,120.0,0.0,64.0
394,66.0,0.0,120.0,0.0,64.0
395,63.0,0.0,240.0,0.0,64.0
396,83.0,120.0,120.0,0.0,64.0
397,78.0,120.0,120.0,0.0,64.0
398,66.0,120.0,120.0,0.0,64.0
399,75.0,0.0,120.0,0.0,64.0
400,63.0,0.0,120.0,0.0,64.0
401,78.0,120.0,120.0,0.0,64.0
402,59.0,120.0,120.0,0.0,64.0
403,87.0,120.0,720.0,0.0,64.0
404,63.0,120.0,120.0,0.0,64.0
405,51.0,0.0,240.0,0.0,64.0
406,64.0,120.0,120.0,0.0,64.0
407,66.0,120.0,120.0,0.0,64.0
408,52.0,0.0,480.0,0.0,64.0
409,68.0,120.0,120.0,0.0,64.0
410,66.0,0.0,120.0,0.0,64.0
411,68.0,120.0,120.0,0.0,64.0
412,85.0,0.0,120.0,0.0,64.0
413,84.0,0.0,120.0,0.0,64.0
414,69.0,120.0,120.0,0.0,64.0
415,68.0,120.0,120.0,0.0,64.0
416,85.0,120.0,240.0,0.0,64.0
417,66.0,0.0,120.0,0.0,64.0
418,64.0,120.0,120.0,0.0,64.0
419,80.0,120.0,240.0,0.0,64.0
420,63.0,0.0,120.0,0.0,64.0
421,61.0,120.0,120.0,0.0,64.0
422,88.0,120.0,720.0,0.0,64.0
423,59.0,120.0,120.0,0.0,64.0
424,58.0,120.0,120.0,0.0,64.0
425,61.0,120.0,240.0,0.0,64.0
426,56.0,0.0,120.0,0.0,64.0
427,66.0,0.0,480.0,0.0,64.0
428,58.0,120.0,120.0,0.0,64.0
429,59.0,0.0,120.0,0.0,64.0
430,85.0,120.0,240.0,0.0,64.0
431,58.0,120.0,120.0,0.0,64.0
432,54.0,0.0,120.0,0.0,64.0
433,61.0,120.0,120.0,0.0,64.0
434,82.0,120.0,240.0,0.0,64.0
435,54.0,0.0,4080.0,0.0,64.0
436,63.0,0.0,120.0,0.0,64.0
437,61.0,120.0,120.0,0.0,64.0
438,85.0,120.0,240.0,0.0,64.0
439,58.0,0.0,120.0,0.0,64.0
440,64.0,120.0,120.0,0.0,64.0
441,78.0,120.0,240.0,0.0,64.0
442,66.0,0.0,120.0,0.0,64.0
443,64.0,120.0,120.0,0.0,64.0
444,82.0,0.0,240.0,0.0,64.0
445,61.0,120.0,120.0,0.0,64.0
446,62.0,0.0,240.0,0.0,64.0
447,83.0,120.0,120.0,0.0,64.0
448,85.0,120.0,120.0,0.0,64.0
449,86.0,120.0,120.0,0.0,64.0
450,59.0,120.0,240.0,0.0,64.0
451,88.0,0.0,120.0,0.0,64.0
452,66.0,0.0,240.0,0.0,64.0
453,86.0,120.0,120.0,0.0,64.0
454,85.0,120.0,120.0,0.0,64.0
455,83.0,120.0,120.0,0.0,64.0
456,62.0,120.0,240.0,0.0,64.0
457,81.0,0.0,120.0,0.0,64.0
458,80.0,120.0,120.0,0.0,64.0
459,71.0,120.0,600.0,0.0,64.0
460,78.0,120.0,120.0,0.0,64.0
461,77.0,120.0,120.0,0.0,64.0
462,75.0,120.0,120.0,0.0,64.0
463,77.0,120.0,240.0,0.0,64.0
464,69.0,0.0,120.0,0.0,64.0
465,68.0,120.0,120.0,0.0,64.0
466,71.0,0.0,240.0,0.0,64.0
467,66.0,120.0,120.0,0.0,64.0
468,80.0,0.0,240.0,0.0,64.0
469,65.0,120.0,120.0,0.0,64.0
470,68.0,120.0,120.0,0.0,64.0
471,77.0,120.0,240.0,0.0,64.0
472,62.0,120.0,120.0,0.0,64.0
473,61.0,0.0,120.0,0.0,64.0
474,62.0,120.0,120.0,0.0,64.0
475,83.0,120.0,600.0,0.0,64.0
476,59.0,120.0,120.0,0.0,64.0
477,66.0,120.0,120.0,0.0,64.0
478,65.0,120.0,120.0,0.0,64.0
479,66.0,120.0,600.0,0.0,64.0
480,82.0,120.0,120.0,0.0,64.0
481,58.0,120.0,240.0,0.0,64.0
482,80.0,120.0,120.0,0.0,64.0
483,78.0,0.0,120.0,0.0,64.0
484,87.0,120.0,600.0,0.0,64.0
485,59.0,120.0,240.0,0.0,64.0
486,75.0,0.0,120.0,0.0,64.0
487,61.0,120.0,240.0,0.0,64.0
488,73.0,120.0,120.0,0.0,64.0
489,71.0,0.0,120.0,0.0,64.0
490,63.0,120.0,240.0,0.0,64.0
491,78.0,120.0,600.0,0.0,64.0
492,88.0,0.0,120.0,0.0,64.0
493,87.0,120.0,120.0,0.0,64.0
494,54.0,0.0,240.0,0.0,64.0
495,85.0,120.0,120.0,0.0,64.0
496,56.0,0.0,240.0,0.0,64.0
497,83.0,120.0,720.0,0.0,64.0
498,75.0,120.0,120.0,0.0,64.0
499,80.0,120.0,120.0,0.0,64.0
500,59.0,0.0,240.0,0.0,64.0
501,78.0,120.0,120.0,0.0,64.0
502,76.0,120.0,120.0,0.0,64.0
503,61.0,0.0,240.0,0.0,64.0
504,75.0,0.0,120.0,0.0,64.0
505,73.0,0.0,120.0,0.0,64.0
506,82.0,120.0,120.0,0.0,64.0
507,63.0,120.0,240.0,0.0,64.0
508,71.0,0.0,120.0,0.0,64.0
509,80.0,0.0,120.0,0.0,64.0
510,78.0,120.0,120.0,0.0,64.0
511,64.0,0.0,240.0,0.0,64.0
512,70.0,120.0,240.0,0.0,64.0
513,76.0,0.0,120.0,0.0,64.0
514,75.0,120.0,120.0,0.0,64.0
515,58.0,120.0,240.0,0.0,64.0
516,76.0,120.0,360.0,0.0,64.0
517,73.0,0.0,120.0,0.0,64.0
518,59.0,120.0,240.0,0.0,64.0
519,75.0,0.0,120.0,0.0,64.0
520,73.0,120.0,120.0,0.0,64.0
521,51.0,0.0,240.0,0.0,64.0
522,71.0,120.0,120.0,0.0,64.0
523,52.0,120.0,240.0,0.0,64.0
524,80.0,0.0,120.0,0.0,64.0
525,78.0,120.0,120.0,0.0,64.0
526,54.0,0.0,240.0,0.0,64.0
527,76.0,120.0,120.0,0.0,64.0
528,83.0,120.0,600.0,0.0,64.0
529,56.0,120.0,240.0,0.0,64.0
530,81.0,0.0,120.0,0.0,64.0
531,47.0,120.0,240.0,0.0,64.0
532,80.0,120.0,120.0,0.0,64.0
533,78.0,0.0,120.0,0.0,64.0
534,76.0,0.0,720.0,0.0,64.0
535,49.0,120.0,240.0,0.0,64.0
536,80.0,0.0,120.0,0.0,64.0
537,85.0,120.0,120.0,0.0,64.0
538,52.0,120.0,240.0,0.0,64.0
539,83.0,0.0,120.0,0.0,64.0
540,81.0,120.0,120.0,0.0,64.0
541,54.0,120.0,240.0,0.0,64.0
542,80.0,0.0,120.0,0.0,64.0
543,75.0,120.0,120.0,0.0,64.0
544,78.0,0.0,120.0,0.0,64.0
545,56.0,120.0,240.0,0.0,64.0
546,76.0,0.0,120.0,0.0,64.0
547,73.0,0.0,120.0,0.0,64.0
548,71.0,120.0,120.0,0.0,64.0
549,57.0,120.0,240.0,0.0,64.0
550,75.0,0.0,240.0,0.0,64.0
551,69.0,0.0,120.0,0.0,64.0
552,68.0,120.0,120.0,0.0,64.0
553,51.0,0.0,240.0,0.0,64.0
554,81.0,120.0,360.0,0.0,64.0
555,66.0,120.0,120.0,0.0,64.0
556,52.0,0.0,240.0,0.0,64.0
557,64.0,0.0,240.0,0.0,64.0
558,80.0,120.0,120.0,0.0,64.0
559,71.0,120.0,240.0,0.0,64.0
560,52.0,0.0,240.0,0.0,64.0
561,78.0,120.0,120.0,0.0,64.0
562,80.0,0.0,120.0,0.0,64.0
563,40.0,0.0,240.0,0.0,64.0
564,83.0,120.0,120.0,0.0,64.0
565,68.0,0.0,240.0,0.0,64.0
566,80.0,120.0,120.0,0.0,64.0
567,52.0,0.0,240.0,0.0,64.0
568,71.0,0.0,240.0,0.0,64.0
569,78.0,120.0,120.0,0.0,64.0
570,80.0,120.0,120.0,0.0,64.0
571,76.0,120.0,120.0,0.0,64.0
572,40.0,0.0,240.0,0.0,64.0
573,80.0,120.0,120.0,0.0,64.0
574,52.0,120.0,240.0,0.0,64.0
575,73.0,120.0,120.0,0.0,64.0
576,76.0,0.0,120.0,0.0,64.0
577,42.0,0.0,240.0,0.0,64.0
578,69.0,0.0,120.0,0.0,64.0
579,54.0,0.0,240.0,0.0,64.0
580,85.0,120.0,240.0,0.0,64.0
581,68.0,120.0,120.0,0.0,64.0
582,69.0,0.0,120.0,0.0,64.0
583,42.0,0.0,240.0,0.0,64.0
584,73.0,120.0,120.0,0.0,64.0
585,81.0,120.0,240.0,0.0,64.0
586,69.0,0.0,120.0,0.0,64.0
587,54.0,0.0,240.0,0.0,64.0
588,85.0,120.0,240.0,0.0,64.0
589,68.0,120.0,120.0,0.0,64.0
590,69.0,0.0,120.0,0.0,64.0
591,86.0,120.0,600.0,0.0,64.0
592,66.0,120.0,120.0,0.0,64.0
593,42.0,0.0,240.0,0.0,64.0
594,69.0,120.0,120.0,0.0,64.0
595,54.0,120.0,240.0,0.0,64.0
596,62.0,120.0,120.0,0.0,64.0
597,66.0,0.0,120.0,0.0,64.0
598,44.0,120.0,240.0,0.0,64.0
599,59.0,0.0,240.0,0.0,64.0
600,83.0,0.0,120.0,0.0,64.0
601,56.0,0.0,240.0,0.0,64.0
602,74.0,0.0,240.0,0.0,64.0
603,81.0,120.0,120.0,0.0,64.0
604,83.0,120.0,120.0,0.0,64.0
605,44.0,0.0,240.0,0.0,64.0
606,71.0,120.0,240.0,0.0,64.0
607,86.0,120.0,120.0,0.0,64.0
608,83.0,0.0,120.0,0.0,64.0
609,56.0,0.0,240.0,0.0,64.0
610,81.0,120.0,120.0,0.0,64.0
611,74.0,120.0,240.0,0.0,64.0
612,83.0,0.0,120.0,0.0,64.0
613,44.0,0.0,240.0,0.0,64.0
614,80.0,120.0,120.0,0.0,64.0
615,83.0,120.0,120.0,0.0,64.0
616,76.0,120.0,120.0,0.0,64.0
617,56.0,0.0,240.0,0.0,64.0
618,80.0,120.0,120.0,0.0,64.0
619,45.0,0.0,6000.0,0.0,64.0
620,73.0,120.0,120.0,0.0,64.0
621,85.0,120.0,120.0,0.0,64.0
622,69.0,120.0,240.0,0.0,64.0
623,83.0,120.0,120.0,0.0,64.0
624,85.0,0.0,120.0,0.0,64.0
625,88.0,120.0,120.0,0.0,64.0
626,73.0,120.0,240.0,0.0,64.0
627,85.0,0.0,120.0,0.0,64.0
628,83.0,120.0,120.0,0.0,64.0
629,76.0,0.0,240.0,0.0,64.0
630,85.0,120.0,120.0,0.0,64.0
631,81.0,120.0,120.0,0.0,64.0
632,79.0,120.0,240.0,0.0,64.0
633,85.0,0.0,120.0,0.0,64.0
634,88.0,120.0,360.0,0.0,64.0
635,78.0,120.0,120.0,0.0,64.0
636,76.0,120.0,120.0,0.0,64.0
637,78.0,0.0,240.0,0.0,64.0
638,86.0,120.0,120.0,0.0,64.0
639,85.0,120.0,120.0,0.0,64.0
640,74.0,120.0,240.0,0.0,64.0
641,86.0,0.0,120.0,0.0,64.0
642,69.0,120.0,240.0,0.0,64.0
643,88.0,120.0,120.0,0.0,64.0
644,86.0,0.0,120.0,0.0,64.0
645,74.0,0.0,240.0,0.0,64.0
646,85.0,120.0,120.0,0.0,64.0
647,86.0,120.0,120.0,0.0,64.0
648,78.0,120.0,240.0,0.0,64.0
649,81.0,120.0,120.0,0.0,64.0
650,85.0,0.0,120.0,0.0,64.0
651,86.0,120.0,360.0,0.0,64.0
652,76.0,120.0,120.0,0.0,64.0
653,74.0,120.0,120.0,0.0,64.0
654,76.0,0.0,240.0,0.0,64.0
655,85.0,120.0,120.0,0.0,64.0
656,73.0,0.0,240.0,0.0,64.0
657,83.0,120.0,120.0,0.0,64.0
658,85.0,120.0,120.0,0.0,64.0
659,69.0,120.0,240.0,0.0,64.0
660,86.0,120.0,120.0,0.0,64.0
661,85.0,0.0,120.0,0.0,64.0
662,83.0,120.0,120.0,0.0,64.0
663,73.0,0.0,240.0,0.0,64.0
664,85.0,120.0,120.0,0.0,64.0
665,81.0,120.0,120.0,0.0,64.0
666,76.0,120.0,240.0,0.0,64.0
667,83.0,0.0,120.0,0.0,64.0
668,85.0,120.0,360.0,0.0,64.0
669,74.0,120.0,120.0,0.0,64.0
670,73.0,120.0,120.0,0.0,64.0
671,74.0,120.0,240.0,0.0,64.0
672,83.0,0.0,120.0,0.0,64.0
673,71.0,0.0,240.0,0.0,64.0
674,81.0,120.0,120.0,0.0,64.0
675,83.0,120.0,120.0,0.0,64.0
676,86.0,120.0,120.0,0.0,64.0
677,68.0,0.0,240.0,0.0,64.0
678,83.0,120.0,120.0,0.0,64.0
679,71.0,0.0,240.0,0.0,64.0
680,81.0,120.0,120.0,0.0,64.0
681,83.0,120.0,120.0,0.0,64.0
682,80.0,120.0,120.0,0.0,64.0
683,74.0,120.0,240.0,0.0,64.0
684,81.0,0.0,120.0,0.0,64.0
685,83.0,0.0,480.0,0.0,64.0
686,73.0,120.0,120.0,0.0,64.0
687,71.0,120.0,120.0,0.0,64.0
688,73.0,120.0,120.0,0.0,64.0
689,69.0,120.0,120.0,0.0,64.0
690,57.0,0.0,240.0,0.0,64.0
691,68.0,120.0,120.0,0.0,64.0
692,76.0,0.0,240.0,0.0,64.0
693,69.0,120.0,120.0,0.0,64.0
694,81.0,0.0,240.0,0.0,64.0
695,54.0,0.0,240.0,0.0,64.0
696,73.0,120.0,120.0,0.0,64.0
697,69.0,120.0,120.0,0.0,64.0
698,57.0,120.0,240.0,0.0,64.0
699,68.0,120.0,120.0,0.0,64.0
700,85.0,0.0,480.0,0.0,64.0
701,69.0,0.0,120.0,0.0,64.0
702,66.0,120.0,120.0,0.0,64.0
703,51.0,120.0,240.0,0.0,64.0
704,69.0,0.0,120.0,0.0,64.0
705,63.0,120.0,120.0,0.0,64.0
706,78.0,120.0,480.0,0.0,64.0
707,54.0,120.0,240.0,0.0,64.0
708,66.0,0.0,120.0,0.0,64.0
709,59.0,120.0,120.0,0.0,64.0
710,44.0,0.0,240.0,0.0,64.0
711,68.0,0.0,120.0,0.0,64.0
712,56.0,0.0,240.0,0.0,64.0
713,75.0,0.0,240.0,0.0,64.0
714,66.0,120.0,120.0,0.0,64.0
715,68.0,120.0,120.0,0.0,64.0
716,71.0,120.0,120.0,0.0,64.0
717,52.0,120.0,240.0,0.0,64.0
718,80.0,0.0,240.0,0.0,64.0
719,68.0,0.0,120.0,0.0,64.0
720,83.0,0.0,480.0,0.0,64.0
721,66.0,120.0,120.0,0.0,64.0
722,56.0,0.0,240.0,0.0,64.0
723,68.0,120.0,120.0,0.0,64.0
724,64.0,120.0,120.0,0.0,64.0
725,49.0,0.0,240.0,0.0,64.0
726,68.0,120.0,120.0,0.0,64.0
727,52.0,120.0,240.0,0.0,64.0
728,61.0,120.0,120.0,0.0,64.0
729,76.0,120.0,480.0,0.0,64.0
730,64.0,0.0,120.0,0.0,64.0
731,42.0,0.0,240.0,0.0,64.0
732,57.0,120.0,120.0,0.0,64.0
733,66.0,0.0,120.0,0.0,64.0
734,64.0,120.0,120.0,0.0,64.0
735,73.0,120.0,240.0,0.0,64.0
736,54.0,0.0,240.0,0.0,64.0
737,66.0,0.0,120.0,0.0,64.0
738,69.0,120.0,120.0,0.0,64.0
739,51.0,0.0,240.0,0.0,64.0
740,78.0,120.0,240.0,0.0,64.0
741,66.0,0.0,120.0,0.0,64.0
742,64.0,120.0,120.0,0.0,64.0
743,81.0,0.0,480.0,0.0,64.0
744,54.0,120.0,240.0,0.0,64.0
745,66.0,0.0,120.0,0.0,64.0
746,63.0,120.0,120.0,0.0,64.0
747,47.0,0.0,240.0,0.0,64.0
748,66.0,120.0,120.0,0.0,64.0
749,51.0,0.0,240.0,0.0,64.0
750,75.0,0.0,240.0,0.0,64.0
751,59.0,120.0,120.0,0.0,64.0
752,63.0,120.0,120.0,0.0,64.0
753,40.0,0.0,6000.0,0.0,64.0
754,56.0,120.0,120.0,0.0,64.0
755,68.0,120.0,120.0,0.0,64.0
756,66.0,120.0,120.0,0.0,64.0
757,76.0,120.0,240.0,0.0,64.0
758,68.0,0.0,120.0,0.0,64.0
759,71.0,120.0,120.0,0.0,64.0
760,80.0,0.0,240.0,0.0,64.0
761,68.0,120.0,120.0,0.0,64.0
762,66.0,120.0,120.0,0.0,64.0
763,83.0,0.0,240.0,0.0,64.0
764,68.0,120.0,120.0,0.0,64.0
765,86.0,120.0,240.0,0.0,64.0
766,64.0,120.0,120.0,0.0,64.0
767,68.0,0.0,120.0,0.0,64.0
768,71.0,120.0,360.0,0.0,64.0
769,85.0,120.0,120.0,0.0,64.0
770,83.0,120.0,120.0,0.0,64.0
771,85.0,120.0,240.0,0.0,64.0
772,69.0,0.0,120.0,0.0,64.0
773,68.0,120.0,120.0,0.0,64.0
774,81.0,0.0,240.0,0.0,64.0
775,69.0,120.0,120.0,0.0,64.0
776,71.0,120.0,120.0,0.0,64.0
777,76.0,0.0,240.0,0.0,64.0
778,69.0,120.0,120.0,0.0,64.0
779,81.0,0.0,240.0,0.0,64.0
780,68.0,120.0,120.0,0.0,64.0
781,69.0,120.0,120.0,0.0,64.0
782,85.0,0.0,240.0,0.0,64.0
783,64.0,120.0,120.0,0.0,64.0
784,68.0,120.0,120.0,0.0,64.0
785,83.0,120.0,120.0,0.0,64.0
786,69.0,120.0,360.0,0.0,64.0
787,81.0,120.0,120.0,0.0,64.0
788,83.0,120.0,240.0,0.0,64.0
789,68.0,0.0,120.0,0.0,64.0
790,66.0,120.0,120.0,0.0,64.0
791,80.0,0.0,240.0,0.0,64.0
792,68.0,120.0,120.0,0.0,64.0
793,69.0,120.0,120.0,0.0,64.0
794,76.0,0.0,240.0,0.0,64.0
795,68.0,120.0,120.0,0.0,64.0
796,66.0,120.0,120.0,0.0,64.0
797,80.0,120.0,240.0,0.0,64.0
798,68.0,0.0,120.0,0.0,64.0
799,64.0,120.0,120.0,0.0,64.0
800,83.0,120.0,240.0,0.0,64.0
801,66.0,0.0,120.0,0.0,64.0
802,81.0,120.0,120.0,0.0,64.0
803,68.0,120.0,360.0,0.0,64.0
804,80.0,120.0,120.0,0.0,64.0
805,81.0,120.0,240.0,0.0,64.0
806,66.0,0.0,120.0,0.0,64.0
807,64.0,120.0,120.0,0.0,64.0
808,78.0,0.0,240.0,0.0,64.0
809,66.0,120.0,120.0,0.0,64.0
810,69.0,120.0,120.0,0.0,64.0
811,75.0,120.0,240.0,0.0,64.0
812,66.0,0.0,120.0,0.0,64.0
813,64.0,120.0,120.0,0.0,64.0
814,78.0,120.0,240.0,0.0,64.0
815,66.0,0.0,120.0,0.0,64.0
816,63.0,120.0,240.0,0.0,64.0
817,81.0,120.0,120.0,0.0,64.0
818,80.0,0.0,120.0,0.0,64.0
819,78.0,120.0,120.0,0.0,64.0
820,75.0,120.0,240.0,0.0,64.0
821,80.0,0.0,120.0,0.0,64.0
822,81.0,120.0,120.0,0.0,64.0
823,76.0,0.0,120.0,0.0,64.0
824,80.0,120.0,120.0,0.0,64.0
825,71.0,0.0,120.0,0.0,64.0
826,47.0,120.0,240.0,0.0,64.0
827,78.0,120.0,120.0,0.0,64.0
828,69.0,0.0,120.0,0.0,64.0
829,71.0,0.0,120.0,0.0,64.0
830,80.0,0.0,15.0,0.0,64.0
831,49.0,0.0,240.0,0.0,64.0
832,76.0,120.0,120.0,0.0,64.0
833,85.0,120.0,120.0,0.0,64.0
834,51.0,120.0,240.0,0.0,64.0
835,83.0,120.0,120.0,0.0,64.0
836,81.0,0.0,120.0,0.0,64.0
837,52.0,120.0,240.0,0.0,64.0
838,80.0,120.0,120.0,0.0,64.0
839,78.0,0.0,120.0,0.0,64.0
840,76.0,120.0,120.0,0.0,64.0
841,44.0,0.0,240.0,0.0,64.0
842,74.0,120.0,120.0,0.0,64.0
843,45.0,0.0,240.0,0.0,64.0
844,73.0,0.0,120.0,0.0,64.0
845,74.0,0.0,120.0,0.0,64.0
846,69.0,120.0,120.0,0.0,64.0
847,49.0,120.0,240.0,0.0,64.0
848,68.0,0.0,120.0,0.0,64.0
849,71.0,120.0,120.0,0.0,64.0
850,69.0,0.0,120.0,0.0,64.0
851,73.0,0.0,120.0,0.0,64.0
852,51.0,0.0,240.0,0.0,64.0
853,69.0,120.0,120.0,0.0,64.0
854,83.0,120.0,120.0,0.0,64.0
855,52.0,120.0,240.0,0.0,64.0
856,81.0,120.0,120.0,0.0,64.0
857,80.0,0.0,120.0,0.0,64.0
858,78.0,120.0,120.0,0.0,64.0
859,54.0,0.0,240.0,0.0,64.0
860,76.0,120.0,120.0,0.0,64.0
861,45.0,0.0,240.0,0.0,64.0
862,75.0,120.0,120.0,0.0,64.0
863,73.0,120.0,120.0,0.0,64.0
864,47.0,120.0,240.0,0.0,64.0
865,71.0,120.0,120.0,0.0,64.0
866,68.0,0.0,120.0,0.0,64.0
867,73.0,0.0,120.0,0.0,64.0
868,66.0,0.0,120.0,0.0,64.0
869,51.0,120.0,240.0,0.0,64.0
870,69.0,120.0,120.0,0.0,64.0
871,71.0,0.0,120.0,0.0,64.0
872,68.0,0.0,15.0,0.0,64.0
873,52.0,0.0,240.0,0.0,64.0
874,81.0,120.0,120.0,0.0,64.0
875,54.0,120.0,240.0,0.0,64.0
876,80.0,120.0,120.0,0.0,64.0
877,78.0,0.0,120.0,0.0,64.0
878,76.0,120.0,120.0,0.0,64.0
879,56.0,0.0,240.0,0.0,64.0
880,75.0,120.0,120.0,0.0,64.0
881,73.0,120.0,120.0,0.0,64.0
882,47.0,0.0,240.0,0.0,64.0
883,71.0,120.0,120.0,0.0,64.0
884,49.0,0.0,240.0,0.0,64.0
885,69.0,0.0,240.0,0.0,64.0
886,75.0,120.0,120.0,0.0,64.0
887,52.0,120.0,240.0,0.0,64.0
888,73.0,120.0,120.0,0.0,64.0
889,71.0,0.0,120.0,0.0,64.0
890,69.0,120.0,120.0,0.0,64.0
891,54.0,0.0,240.0,0.0,64.0
892,68.0,0.0,120.0,0.0,64.0
893,56.0,0.0,240.0,0.0,64.0
894,66.0,120.0,120.0,0.0,64.0
895,78.0,120.0,480.0,0.0,64.0
896,64.0,120.0,120.0,0.0,64.0
897,57.0,0.0,240.0,0.0,64.0
898,63.0,120.0,120.0,0.0,64.0
899,61.0,0.0,120.0,0.0,64.0
900,81.0,120.0,360.0,0.0,64.0
901,49.0,0.0,240.0,0.0,64.0
902,59.0,120.0,120.0,0.0,64.0
903,57.0,120.0,120.0,0.0,64.0
904,51.0,120.0,240.0,0.0,64.0
905,59.0,0.0,240.0,0.0,64.0
906,76.0,0.0,120.0,0.0,64.0
907,78.0,120.0,120.0,0.0,64.0
908,47.0,0.0,240.0,0.0,64.0
909,69.0,240.0,240.0,0.0,64.0
910,75.0,0.0,120.0,0.0,64.0
911,76.0,0.0,240.0,0.0,64.0
912,52.0,0.0,240.0,0.0,64.0
913,68.0,120.0,240.0,0.0,64.0
914,78.0,0.0,240.0,0.0,64.0
915,57.0,120.0,240.0,0.0,64.0
916,73.0,120.0,120.0,0.0,64.0
917,71.0,0.0,15.0,0.0,64.0
918,69.0,120.0,120.0,0.0,64.0
919,59.0,120.0,240.0,0.0,64.0
920,68.0,0.0,120.0,0.0,64.0
921,66.0,120.0,120.0,0.0,64.0
922,75.0,120.0,240.0,0.0,64.0
923,47.0,0.0,240.0,0.0,64.0
924,64.0,0.0,120.0,0.0,64.0
925,52.0,0.0,240.0,0.0,64.0
926,76.0,120.0,120.0,0.0,64.0
927,64.0,0.0,480.0,0.0,64.0
928,71.0,120.0,120.0,0.0,64.0
929,73.0,120.0,120.0,0.0,64.0
930,75.0,120.0,120.0,0.0,64.0
931,76.0,120.0,120.0,0.0,64.0
932,56.0,120.0,240.0,0.0,64.0
933,75.0,0.0,120.0,0.0,64.0
934,76.0,120.0,120.0,0.0,64.0
935,80.0,120.0,120.0,0.0,64.0
936,78.0,120.0,120.0,0.0,64.0
937,57.0,120.0,240.0,0.0,64.0
938,76.0,0.0,120.0,0.0,64.0
939,75.0,120.0,120.0,0.0,64.0
940,73.0,120.0,120.0,0.0,64.0
941,51.0,0.0,240.0,0.0,64.0
942,71.0,120.0,120.0,0.0,64.0
943,73.0,120.0,120.0,0.0,64.0
944,75.0,120.0,120.0,0.0,64.0
945,76.0,120.0,120.0,0.0,64.0
946,47.0,120.0,240.0,0.0,64.0
947,78.0,120.0,120.0,0.0,64.0
948,81.0,0.0,120.0,0.0,64.0
949,80.0,120.0,120.0,0.0,64.0
950,78.0,120.0,120.0,0.0,64.0
951,83.0,120.0,120.0,0.0,64.0
952,51.0,120.0,240.0,0.0,64.0
953,81.0,0.0,120.0,0.0,64.0
954,80.0,120.0,120.0,0.0,64.0
955,78.0,240.0,120.0,0.0,64.0
956,80.0,120.0,240.0,0.0,64.0
957,52.0,0.0,240.0,0.0,64.0
958,64.0,0.0,120.0,0.0,64.0
959,68.0,120.0,120.0,0.0,64.0
960,83.0,120.0,240.0,0.0,64.0
961,70.0,0.0,120.0,0.0,64.0
962,71.0,120.0,120.0,0.0,64.0
963,51.0,0.0,240.0,0.0,64.0
964,78.0,0.0,240.0,0.0,64.0
965,70.0,120.0,120.0,0.0,64.0
966,83.0,120.0,240.0,0.0,64.0
967,71.0,120.0,120.0,0.0,64.0
968,75.0,0.0,120.0,0.0,64.0
969,52.0,120.0,240.0,0.0,64.0
970,76.0,0.0,240.0,0.0,64.0
971,73.0,120.0,120.0,0.0,64.0
972,71.0,0.0,120.0,0.0,64.0
973,70.0,120.0,120.0,0.0,64.0
974,88.0,120.0,360.0,0.0,64.0
975,68.0,120.0,120.0,0.0,64.0
976,66.0,0.0,120.0,0.0,64.0
977,46.0,0.0,240.0,0.0,64.0
978,68.0,0.0,120.0,0.0,64.0
979,87.0,120.0,120.0,0.0,64.0
980,70.0,0.0,120.0,0.0,64.0
981,85.0,120.0,120.0,0.0,64.0
982,71.0,0.0,120.0,0.0,64.0
983,83.0,120.0,120.0,0.0,64.0
984,42.0,0.0,240.0,0.0,64.0
985,73.0,0.0,120.0,0.0,64.0
986,82.0,120.0,120.0,0.0,64.0
987,76.0,120.0,120.0,0.0,64.0
988,80.0,0.0,120.0,0.0,64.0
989,75.0,120.0,120.0,0.0,64.0
990,78.0,0.0,120.0,0.0,64.0
991,76.0,0.0,120.0,0.0,64.0
992,73.0,120.0,120.0,0.0,64.0
993,54.0,0.0,240.0,0.0,64.0
994,75.0,120.0,120.0,0.0,64.0
995,78.0,0.0,120.0,0.0,64.0
996,76.0,120.0,120.0,0.0,64.0
997,73.0,0.0,120.0,0.0,64.0
998,71.0,120.0,120.0,0.0,64.0
999,75.0,0.0,120.0,0.0,64.0
1000,73.0,120.0,120.0,0.0,64.0
1001,70.0,0.0,120.0,0.0,64.0
1002,47.0,120.0,240.0,0.0,64.0
1003,75.0,120.0,120.0,0.0,64.0
1004,71.0,0.0,120.0,0.0,64.0
1005,69.0,120.0,120.0,0.0,64.0
1006,59.0,0.0,480.0,0.0,64.0
1007,68.0,0.0,120.0,0.0,64.0
1008,66.0,120.0,120.0,0.0,64.0
1009,64.0,120.0,120.0,0.0,64.0
1010,57.0,0.0,240.0,0.0,64.0
1011,63.0,120.0,120.0,0.0,64.0
1012,71.0,120.0,240.0,0.0,64.0
1013,61.0,0.0,120.0,0.0,64.0
1014,76.0,120.0,120.0,0.0,64.0
1015,56.0,0.0,240.0,0.0,64.0
1016,59.0,120.0,960.0,0.0,64.0
1017,75.0,120.0,120.0,0.0,64.0
1018,54.0,120.0,240.0,0.0,64.0
1019,76.0,120.0,120.0,0.0,64.0
1020,78.0,0.0,120.0,0.0,64.0
1021,80.0,120.0,120.0,0.0,64.0
1022,52.0,0.0,240.0,0.0,64.0
1023,76.0,120.0,120.0,0.0,64.0
1024,64.0,0.0,480.0,0.0,64.0
1025,75.0,120.0,120.0,0.0,64.0
1026,73.0,0.0,120.0,0.0,64.0
1027,71.0,120.0,120.0,0.0,64.0
1028,69.0,120.0,120.0,0.0,64.0
1029,62.0,120.0,240.0,0.0,64.0
1030,68.0,120.0,120.0,0.0,64.0
1031,64.0,0.0,240.0,0.0,64.0
1032,66.0,0.0,120.0,0.0,64.0
1033,64.0,0.0,960.0,0.0,64.0
1034,61.0,0.0,240.0,0.0,64.0
1035,69.0,120.0,120.0,0.0,64.0
1036,68.0,120.0,120.0,0.0,64.0
1037,69.0,120.0,120.0,0.0,64.0
1038,59.0,120.0,240.0,0.0,64.0
1039,71.0,0.0,120.0,0.0,64.0
1040,57.0,0.0,240.0,0.0,64.0
1041,73.0,120.0,120.0,0.0,64.0
1042,73.0,120.0,120.0,0.0,64.0
1043,71.0,120.0,120.0,0.0,64.0
1044,61.0,120.0,480.0,0.0,64.0
1045,69.0,120.0,120.0,0.0,64.0
1046,68.0,120.0,120.0,0.0,64.0
1047,66.0,0.0,120.0,0.0,64.0
1048,65.0,120.0,120.0,0.0,64.0
1049,59.0,0.0,240.0,0.0,64.0
1050,73.0,0.0,240.0,0.0,64.0
1051,63.0,120.0,120.0,0.0,64.0
1052,61.0,120.0,960.0,0.0,64.0
1053,57.0,120.0,240.0,0.0,64.0
1054,78.0,120.0,120.0,0.0,64.0
1055,77.0,0.0,120.0,0.0,64.0
1056,78.0,120.0,120.0,0.0,64.0
1057,56.0,120.0,240.0,0.0,64.0
1058,80.0,0.0,120.0,0.0,64.0
1059,54.0,0.0,240.0,0.0,64.0
1060,81.0,120.0,120.0,0.0,64.0
1061,78.0,120.0,120.0,0.0,64.0
1062,76.0,120.0,120.0,0.0,64.0
1063,74.0,0.0,120.0,0.0,64.0
1064,73.0,120.0,120.0,0.0,64.0
1065,71.0,0.0,120.0,0.0,64.0
1066,69.0,120.0,120.0,0.0,64.0
1067,66.0,120.0,15.0,0.0,64.0
1068,64.0,0.0,240.0,0.0,64.0
1069,68.0,0.0,120.0,0.0,64.0
1070,63.0,0.0,240.0,0.0,64.0
1071,72.0,120.0,120.0,0.0,64.0
1072,66.0,120.0,600.0,0.0,64.0
1073,70.0,120.0,120.0,0.0,64.0
1074,72.0,120.0,120.0,0.0,64.0
1075,61.0,0.0,240.0,0.0,64.0
1076,73.0,120.0,120.0,0.0,64.0
1077,60.0,120.0,240.0,0.0,64.0
1078,75.0,0.0,120.0,0.0,64.0
1079,68.0,0.0,480.0,0.0,64.0
1080,66.0,120.0,120.0,0.0,64.0
1081,75.0,120.0,120.0,0.0,64.0
1082,61.0,120.0,240.0,0.0,64.0
1083,64.0,120.0,120.0,0.0,64.0
1084,73.0,0.0,15.0,0.0,64.0
1085,64.0,120.0,120.0,0.0,64.0
1086,73.0,120.0,120.0,0.0,64.0
1087,63.0,120.0,120.0,0.0,64.0
1088,57.0,0.0,240.0,0.0,64.0
1089,73.0,0.0,120.0,0.0,64.0
1090,61.0,120.0,120.0,0.0,64.0
1091,66.0,0.0,240.0,0.0,64.0
1092,73.0,120.0,120.0,0.0,64.0
1093,56.0,0.0,240.0,0.0,64.0
1094,72.0,120.0,120.0,0.0,64.0
1095,68.0,120.0,120.0,0.0,64.0
1096,70.0,120.0,120.0,0.0,64.0
1097,72.0,120.0,120.0,0.0,64.0
1098,57.0,0.0,240.0,0.0,64.0
1099,73.0,120.0,120.0,0.0,64.0
1100,72.0,120.0,120.0,0.0,64.0
1101,73.0,120.0,120.0,0.0,64.0
1102,76.0,120.0,120.0,0.0,64.0
1103,75.0,120.0,120.0,0.0,64.0
1104,58.0,120.0,240.0,0.0,64.0
1105,73.0,0.0,120.0,0.0,64.0
1106,72.0,120.0,120.0,0.0,64.0
1107,70.0,120.0,120.0,0.0,64.0
1108,59.0,0.0,240.0,0.0,64.0
1109,68.0,120.0,120.0,0.0,64.0
1110,70.0,120.0,120.0,0.0,64.0
1111,71.0,120.0,120.0,0.0,64.0
1112,73.0,120.0,120.0,0.0,64.0
1113,60.0,0.0,240.0,0.0,64.0
1114,75.0,120.0,120.0,0.0,64.0
1115,78.0,120.0,120.0,0.0,64.0
1116,76.0,120.0,120.0,0.0,64.0
1117,75.0,120.0,120.0,0.0,64.0
1118,80.0,120.0,120.0,0.0,64.0
1119,56.0,120.0,240.0,0.0,64.0
1120,78.0,0.0,120.0,0.0,64.0
1121,76.0,120.0,120.0,0.0,64.0
1122,75.0,120.0,120.0,0.0,64.0
1123,61.0,120.0,240.0,0.0,64.0
1124,64.0,0.0,120.0,0.0,64.0
1125,66.0,120.0,120.0,0.0,64.0
1126,68.0,120.0,120.0,0.0,64.0
1127,49.0,0.0,240.0,0.0,64.0
1128,69.0,120.0,120.0,0.0,64.0
1129,68.0,120.0,120.0,0.0,64.0
1130,69.0,120.0,120.0,0.0,64.0
1131,73.0,120.0,120.0,0.0,64.0
1132,52.0,0.0,240.0,0.0,64.0
1133,71.0,120.0,120.0,0.0,64.0
1134,69.0,120.0,120.0,0.0,64.0
1135,68.0,120.0,120.0,0.0,64.0
1136,66.0,120.0,120.0,0.0,64.0
1137,56.0,0.0,240.0,0.0,64.0
1138,64.0,120.0,120.0,0.0,64.0
1139,66.0,120.0,120.0,0.0,64.0
1140,68.0,120.0,120.0,0.0,64.0
1141,69.0,120.0,120.0,0.0,64.0
1142,71.0,120.0,120.0,0.0,64.0
1143,52.0,120.0,240.0,0.0,64.0
1144,74.0,0.0,120.0,0.0,64.0
1145,73.0,120.0,120.0,0.0,64.0
1146,71.0,120.0,120.0,0.0,64.0
1147,56.0,0.0,240.0,0.0,64.0
1148,76.0,120.0,120.0,0.0,64.0
1149,74.0,120.0,120.0,0.0,64.0
1150,73.0,120.0,120.0,0.0,64.0
1151,71.0,120.0,120.0,0.0,64.0
1152,57.0,120.0,240.0,0.0,64.0
1153,73.0,0.0,120.0,0.0,64.0
1154,75.0,120.0,120.0,0.0,64.0
1155,77.0,120.0,120.0,0.0,64.0
1156,50.0,120.0,240.0,0.0,64.0
1157,78.0,120.0,120.0,0.0,64.0
1158,77.0,0.0,120.0,0.0,64.0
1159,78.0,120.0,120.0,0.0,64.0
1160,81.0,120.0,120.0,0.0,64.0
1161,51.0,120.0,240.0,0.0,64.0
1162,80.0,120.0,120.0,0.0,64.0
1163,78.0,0.0,120.0,0.0,64.0
1164,77.0,120.0,120.0,0.0,64.0
1165,75.0,120.0,120.0,0.0,64.0
1166,52.0,0.0,240.0,0.0,64.0
1167,73.0,120.0,120.0,0.0,64.0
1168,75.0,120.0,120.0,0.0,64.0
1169,76.0,120.0,120.0,0.0,64.0
1170,78.0,120.0,120.0,0.0,64.0
1171,80.0,120.0,120.0,0.0,64.0
1172,53.0,120.0,240.0,0.0,64.0
1173,83.0,0.0,120.0,0.0,64.0
1174,81.0,120.0,120.0,0.0,64.0
1175,80.0,120.0,120.0,0.0,64.0
1176,85.0,120.0,120.0,0.0,64.0
1177,49.0,120.0,240.0,0.0,64.0
1178,83.0,0.0,120.0,0.0,64.0
1179,81.0,120.0,120.0,0.0,64.0
1180,80.0,120.0,120.0,0.0,64.0
1181,54.0,0.0,240.0,0.0,64.0
1182,81.0,120.0,120.0,0.0,64.0
1183,80.0,120.0,120.0,0.0,64.0
1184,61.0,0.0,120.0,0.0,64.0
1185,78.0,0.0,120.0,0.0,64.0
1186,63.0,120.0,120.0,0.0,64.0
1187,80.0,0.0,120.0,0.0,64.0
1188,65.0,120.0,120.0,0.0,64.0
1189,42.0,120.0,240.0,0.0,64.0
1190,81.0,120.0,120.0,0.0,64.0
1191,66.0,0.0,120.0,0.0,64.0
1192,80.0,0.0,120.0,0.0,64.0
1193,65.0,0.0,120.0,0.0,64.0
1194,66.0,0.0,120.0,0.0,64.0
1195,81.0,120.0,120.0,0.0,64.0
1196,69.0,120.0,120.0,0.0,64.0
1197,85.0,0.0,120.0,0.0,64.0
1198,68.0,0.0,120.0,0.0,64.0
1199,83.0,120.0,120.0,0.0,64.0
1200,54.0,0.0,960.0,0.0,64.0
1201,81.0,120.0,120.0,0.0,64.0
1202,66.0,0.0,120.0,0.0,64.0
1203,65.0,0.0,120.0,0.0,64.0
1204,80.0,120.0,120.0,0.0,64.0
1205,63.0,120.0,120.0,0.0,64.0
1206,78.0,0.0,120.0,0.0,64.0
1207,80.0,0.0,240.0,0.0,64.0
1208,61.0,120.0,120.0,0.0,64.0
1209,63.0,120.0,120.0,0.0,64.0
1210,65.0,120.0,120.0,0.0,64.0
1211,73.0,0.0,240.0,0.0,64.0
1212,66.0,120.0,120.0,0.0,64.0
1213,68.0,120.0,120.0,0.0,64.0
1214,53.0,0.0,240.0,0.0,64.0
1215,71.0,120.0,120.0,0.0,64.0
1216,49.0,120.0,240.0,0.0,64.0
1217,69.0,120.0,120.0,0.0,64.0
1218,68.0,0.0,120.0,0.0,64.0
1219,73.0,120.0,120.0,0.0,64.0
1220,51.0,120.0,240.0,0.0,64.0
1221,71.0,0.0,120.0,0.0,64.0
1222,69.0,120.0,120.0,0.0,64.0
1223,53.0,0.0,240.0,0.0,64.0
1224,68.0,240.0,120.0,0.0,64.0
1225,54.0,120.0,480.0,0.0,64.0
1226,78.0,120.0,120.0,0.0,64.0
1227,77.0,120.0,120.0,0.0,64.0
1228,78.0,0.0,120.0,0.0,64.0
1229,81.0,120.0,120.0,0.0,64.0
1230,78.0,120.0,120.0,0.0,64.0
1231,56.0,120.0,240.0,0.0,64.0
1232,77.0,120.0,120.0,0.0,64.0
1233,78.0,0.0,120.0,0.0,64.0
1234,73.0,120.0,120.0,0.0,64.0
1235,57.0,0.0,240.0,0.0,64.0
1236,78.0,120.0,120.0,0.0,64.0
1237,69.0,120.0,120.0,0.0,64.0
1238,54.0,120.0,240.0,0.0,64.0
1239,73.0,0.0,120.0,0.0,64.0
1240,66.0,0.0,240.0,0.0,64.0
1241,62.0,120.0,240.0,0.0,64.0
1242,68.0,0.0,120.0,0.0,64.0
1243,66.0,120.0,120.0,0.0,64.0
1244,68.0,120.0,120.0,0.0,64.0
1245,69.0,120.0,120.0,0.0,64.0
1246,50.0,0.0,240.0,0.0,64.0
1247,73.0,120.0,120.0,0.0,64.0
1248,71.0,120.0,120.0,0.0,64.0
1249,69.0,120.0,120.0,0.0,64.0
1250,54.0,0.0,240.0,0.0,64.0
1251,74.0,120.0,120.0,0.0,64.0
1252,73.0,120.0,120.0,0.0,64.0
1253,71.0,120.0,120.0,0.0,64.0
1254,69.0,240.0,120.0,0.0,64.0
1255,56.0,120.0,480.0,0.0,64.0
1256,76.0,120.0,120.0,0.0,64.0
1257,75.0,120.0,120.0,0.0,64.0
1258,76.0,0.0,120.0,0.0,64.0
1259,80.0,120.0,120.0,0.0,64.0
1260,76.0,120.0,120.0,0.0,64.0
1261,54.0,120.0,240.0,0.0,64.0
1262,75.0,120.0,120.0,0.0,64.0
1263,76.0,0.0,120.0,0.0,64.0
1264,56.0,0.0,240.0,0.0,64.0
1265,71.0,120.0,120.0,0.0,64.0
1266,76.0,120.0,120.0,0.0,64.0
1267,52.0,120.0,240.0,0.0,64.0
1268,68.0,120.0,120.0,0.0,64.0
1269,71.0,0.0,120.0,0.0,64.0
1270,64.0,120.0,240.0,0.0,64.0
1271,61.0,0.0,240.0,0.0,64.0
1272,69.0,0.0,120.0,0.0,64.0
1273,68.0,120.0,120.0,0.0,64.0
1274,69.0,120.0,120.0,0.0,64.0
1275,71.0,120.0,120.0,0.0,64.0
1276,62.0,0.0,240.0,0.0,64.0
1277,74.0,120.0,120.0,0.0,64.0
1278,73.0,120.0,120.0,0.0,64.0
1279,71.0,120.0,120.0,0.0,64.0
1280,56.0,120.0,240.0,0.0,64.0
1281,76.0,120.0,120.0,0.0,64.0
1282,74.0,0.0,120.0,0.0,64.0
1283,73.0,120.0,120.0,0.0,64.0
1284,71.0,240.0,120.0,0.0,64.0
1285,73.0,0.0,480.0,0.0,64.0
1286,57.0,120.0,480.0,0.0,64.0
1287,81.0,120.0,120.0,0.0,64.0
1288,80.0,120.0,120.0,0.0,64.0
1289,81.0,0.0,120.0,0.0,64.0
1290,85.0,120.0,120.0,0.0,64.0
1291,45.0,120.0,480.0,0.0,64.0
1292,81.0,120.0,120.0,0.0,64.0
1293,80.0,120.0,120.0,0.0,64.0
1294,81.0,0.0,120.0,0.0,64.0
1295,76.0,120.0,120.0,0.0,64.0
1296,81.0,120.0,120.0,0.0,64.0
1297,73.0,120.0,120.0,0.0,64.0
1298,76.0,240.0,120.0,0.0,64.0
1299,69.0,240.0,240.0,0.0,64.0
1300,64.0,240.0,240.0,0.0,64.0
1301,57.0,0.0,240.0,0.0,64.0
1302,85.0,0.0,240.0,0.0,64.0
1303,81.0,240.0,240.0,0.0,64.0
1304,61.0,0.0,240.0,0.0,64.0
1305,45.0,0.0,240.0,0.0,64.0
1306,64.0,0.0,240.0,0.0,64.0
1307,85.0,240.0,240.0,0.0,64.0
1308,57.0,0.0,240.0,0.0,64.0
1309,66.0,0.0,240.0,0.0,64.0
1310,45.0,120.0,240.0,0.0,64.0
1311,86.0,0.0,240.0,0.0,64.0
1312,85.0,0.0,120.0,0.0,64.0
1313,64.0,120.0,120.0,0.0,64.0
1314,57.0,0.0,240.0,0.0,64.0
1315,83.0,0.0,120.0,0.0,64.0
1316,62.0,120.0,120.0,0.0,64.0
1317,85.0,120.0,480.0,0.0,64.0
1318,45.0,0.0,480.0,0.0,64.0
1319,64.0,120.0,120.0,0.0,64.0
1320,69.0,120.0,120.0,0.0,64.0
1321,68.0,120.0,120.0,0.0,64.0
1322,69.0,0.0,120.0,0.0,64.0
1323,73.0,120.0,120.0,0.0,64.0
1324,69.0,120.0,120.0,0.0,64.0
1325,68.0,120.0,120.0,0.0,64.0
1326,69.0,120.0,120.0,0.0,64.0
1327,64.0,120.0,120.0,0.0,64.0
1328,69.0,120.0,120.0,0.0,64.0
1329,61.0,120.0,120.0,0.0,64.0
1330,64.0,240.0,120.0,0.0,64.0
1331,57.0,240.0,240.0,0.0,64.0
1332,57.0,0.0,240.0,0.0,64.0
1333,76.0,0.0,240.0,0.0,64.0
1334,69.0,0.0,240.0,0.0,64.0
1335,73.0,240.0,15.0,0.0,64.0
1336,45.0,0.0,240.0,0.0,64.0
1337,73.0,240.0,15.0,0.0,64.0
1338,57.0,0.0,240.0,0.0,64.0
1339,76.0,0.0,240.0,0.0,64.0
1340,78.0,0.0,240.0,0.0,64.0
1341,45.0,0.0,240.0,0.0,64.0
1342,74.0,120.0,240.0,0.0,64.0
1343,73.0,120.0,120.0,0.0,64.0
1344,76.0,0.0,120.0,0.0,64.0
1345,57.0,0.0,240.0,0.0,64.0
1346,74.0,0.0,120.0,0.0,64.0
1347,71.0,120.0,120.0,0.0,64.0
1348,76.0,120.0,240.0,0.0,64.0
1349,45.0,0.0,240.0,0.0,64.0
1350,73.0,120.0,120.0,0.0,64.0
1351,64.0,0.0,120.0,0.0,64.0
1352,66.0,120.0,120.0,0.0,64.0
1353,69.0,0.0,120.0,0.0,64.0
1354,68.0,0.0,120.0,0.0,64.0
1355,71.0,120.0,120.0,0.0,64.0
1356,69.0,120.0,120.0,0.0,64.0
1357,44.0,0.0,240.0,0.0,64.0
1358,73.0,120.0,240.0,0.0,64.0
1359,68.0,0.0,120.0,0.0,64.0
1360,69.0,120.0,120.0,0.0,64.0
1361,64.0,120.0,240.0,0.0,64.0
1362,73.0,0.0,120.0,0.0,64.0
1363,42.0,0.0,240.0,0.0,64.0
1364,71.0,120.0,120.0,0.0,64.0
1365,69.0,120.0,120.0,0.0,64.0
1366,68.0,0.0,15.0,0.0,64.0
1367,75.0,120.0,240.0,0.0,64.0
1368,66.0,0.0,120.0,0.0,64.0
1369,68.0,120.0,240.0,0.0,64.0
1370,76.0,120.0,120.0,0.0,64.0
1371,40.0,0.0,240.0,0.0,64.0
1372,71.0,0.0,120.0,0.0,64.0
1373,73.0,0.0,120.0,0.0,64.0
1374,64.0,120.0,120.0,0.0,64.0
1375,66.0,120.0,120.0,0.0,64.0
1376,75.0,0.0,120.0,0.0,64.0
1377,68.0,0.0,240.0,0.0,64.0
1378,76.0,120.0,120.0,0.0,64.0
1379,51.0,120.0,240.0,0.0,64.0
1380,75.0,0.0,120.0,0.0,64.0
1381,76.0,120.0,120.0,0.0,64.0
1382,59.0,0.0,240.0,0.0,64.0
1383,80.0,120.0,120.0,0.0,64.0
1384,49.0,0.0,240.0,0.0,64.0
1385,78.0,120.0,120.0,0.0,64.0
1386,61.0,0.0,240.0,0.0,64.0
1387,76.0,120.0,120.0,0.0,64.0
1388,75.0,120.0,120.0,0.0,64.0
1389,70.0,120.0,240.0,0.0,64.0
1390,73.0,0.0,120.0,0.0,64.0
1391,75.0,120.0,240.0,0.0,64.0
1392,71.0,120.0,120.0,0.0,64.0
1393,47.0,0.0,240.0,0.0,64.0
1394,66.0,0.0,120.0,0.0,64.0
1395,68.0,0.0,120.0,0.0,64.0
1396,71.0,120.0,120.0,0.0,64.0
1397,69.0,120.0,120.0,0.0,64.0
1398,73.0,0.0,120.0,0.0,64.0
1399,45.0,120.0,240.0,0.0,64.0
1400,71.0,120.0,120.0,0.0,64.0
1401,75.0,0.0,240.0,0.0,64.0
1402,69.0,0.0,120.0,0.0,64.0
1403,66.0,0.0,240.0,0.0,64.0
1404,71.0,120.0,120.0,0.0,64.0
1405,74.0,120.0,120.0,0.0,64.0
1406,68.0,0.0,240.0,0.0,64.0
1407,73.0,120.0,120.0,0.0,64.0
1408,44.0,0.0,240.0,0.0,64.0
1409,71.0,120.0,120.0,0.0,64.0
1410,77.0,0.0,240.0,0.0,64.0
1411,69.0,120.0,120.0,0.0,64.0
1412,68.0,120.0,120.0,0.0,64.0
1413,42.0,120.0,240.0,0.0,64.0
1414,78.0,120.0,120.0,0.0,64.0
1415,69.0,0.0,240.0,0.0,64.0
1416,73.0,0.0,120.0,0.0,64.0
1417,66.0,120.0,120.0,0.0,64.0
1418,75.0,0.0,120.0,0.0,64.0
1419,76.0,120.0,120.0,0.0,64.0
1420,68.0,0.0,120.0,0.0,64.0
1421,52.0,120.0,240.0,0.0,64.0
1422,70.0,0.0,240.0,0.0,64.0
1423,78.0,120.0,120.0,0.0,64.0
1424,76.0,0.0,120.0,0.0,64.0
1425,78.0,120.0,120.0,0.0,64.0
1426,61.0,0.0,240.0,0.0,64.0
1427,81.0,120.0,120.0,0.0,64.0
1428,80.0,120.0,120.0,0.0,64.0
1429,51.0,0.0,240.0,0.0,64.0
1430,63.0,0.0,240.0,0.0,64.0
1431,78.0,120.0,120.0,0.0,64.0
1432,72.0,0.0,240.0,0.0,64.0
1433,76.0,120.0,120.0,0.0,64.0
1434,75.0,240.0,120.0,0.0,64.0
1435,49.0,0.0,480.0,0.0,64.0
1436,73.0,120.0,120.0,0.0,64.0
1437,72.0,120.0,120.0,0.0,64.0
1438,73.0,120.0,120.0,0.0,64.0
1439,76.0,0.0,15.0,0.0,64.0
1440,73.0,120.0,120.0,0.0,64.0
1441,72.0,120.0,120.0,0.0,64.0
1442,73.0,120.0,120.0,0.0,64.0
1443,68.0,120.0,120.0,0.0,64.0
1444,73.0,120.0,120.0,0.0,64.0
1445,64.0,120.0,120.0,0.0,64.0
1446,68.0,240.0,120.0,0.0,64.0
1447,80.0,0.0,240.0,0.0,64.0
1448,61.0,240.0,15.0,0.0,64.0
1449,73.0,0.0,240.0,0.0,64.0
1450,76.0,0.0,15.0,0.0,64.0
1451,49.0,0.0,240.0,0.0,64.0
1452,61.0,240.0,240.0,0.0,64.0
1453,76.0,240.0,15.0,0.0,64.0
1454,80.0,0.0,240.0,0.0,64.0
1455,81.0,0.0,240.0,0.0,64.0
1456,78.0,120.0,240.0,0.0,64.0
1457,49.0,0.0,240.0,0.0,64.0
1458,61.0,0.0,240.0,0.0,64.0
1459,80.0,0.0,120.0,0.0,64.0
1460,76.0,120.0,120.0,0.0,64.0
1461,78.0,120.0,120.0,0.0,64.0
1462,75.0,0.0,120.0,0.0,64.0
1463,49.0,0.0,480.0,0.0,64.0
1464,76.0,0.0,480.0,0.0,64.0
1465,80.0,120.0,120.0,0.0,64.0
1466,85.0,120.0,120.0,0.0,64.0
1467,84.0,120.0,120.0,0.0,64.0
1468,85.0,120.0,120.0,0.0,64.0
1469,88.0,120.0,120.0,0.0,64.0
1470,85.0,120.0,120.0,0.0,64.0
1471,84.0,120.0,120.0,0.0,64.0
1472,85.0,120.0,120.0,0.0,64.0
1473,80.0,120.0,120.0,0.0,64.0
1474,85.0,120.0,120.0,0.0,64.0
1475,76.0,120.0,120.0,0.0,64.0
1476,80.0,240.0,120.0,0.0,64.0
1477,73.0,240.0,240.0,0.0,64.0
1478,68.0,0.0,240.0,0.0,64.0
1479,76.0,240.0,240.0,0.0,64.0
1480,61.0,0.0,240.0,0.0,64.0
1481,64.0,0.0,240.0,0.0,64.0
1482,49.0,0.0,240.0,0.0,64.0
1483,73.0,240.0,240.0,0.0,64.0
1484,61.0,0.0,240.0,0.0,64.0
1485,68.0,0.0,240.0,0.0,64.0
1486,76.0,240.0,240.0,0.0,64.0
1487,69.0,120.0,240.0,0.0,64.0
1488,78.0,0.0,240.0,0.0,64.0
1489,49.0,0.0,240.0,0.0,64.0
1490,76.0,0.0,120.0,0.0,64.0
1491,68.0,120.0,120.0,0.0,64.0
1492,61.0,0.0,240.0,0.0,64.0
1493,75.0,120.0,120.0,0.0,64.0
1494,66.0,0.0,120.0,0.0,64.0
1495,49.0,120.0,240.0,0.0,64.0
1496,76.0,120.0,480.0,0.0,64.0
1497,68.0,120.0,120.0,0.0,64.0
1498,56.0,0.0,120.0,0.0,64.0
1499,58.0,120.0,120.0,0.0,64.0
1500,60.0,0.0,120.0,0.0,64.0
1501,52.0,120.0,240.0,0.0,64.0
1502,61.0,120.0,120.0,0.0,64.0
1503,60.0,0.0,120.0,0.0,64.0
1504,61.0,120.0,120.0,0.0,64.0
1505,64.0,120.0,120.0,0.0,64.0
1506,54.0,0.0,240.0,0.0,64.0
1507,63.0,120.0,120.0,0.0,64.0
1508,61.0,120.0,120.0,0.0,64.0
1509,60.0,120.0,120.0,0.0,64.0
1510,58.0,120.0,120.0,0.0,64.0
1511,56.0,120.0,120.0,0.0,64.0
1512,48.0,0.0,240.0,0.0,64.0
1513,58.0,120.0,120.0,0.0,64.0
1514,60.0,120.0,120.0,0.0,64.0
1515,61.0,120.0,120.0,0.0,64.0
1516,63.0,120.0,120.0,0.0,64.0
1517,44.0,120.0,240.0,0.0,64.0
1518,66.0,0.0,120.0,0.0,64.0
1519,64.0,120.0,120.0,0.0,64.0
1520,63.0,120.0,120.0,0.0,64.0
1521,47.0,0.0,960.0,0.0,64.0
1522,68.0,120.0,120.0,0.0,64.0
1523,66.0,120.0,120.0,0.0,64.0
1524,65.0,120.0,120.0,0.0,64.0
1525,63.0,240.0,120.0,0.0,64.0
1526,65.0,120.0,240.0,0.0,64.0
1527,73.0,0.0,120.0,0.0,64.0
1528,75.0,120.0,120.0,0.0,64.0
1529,68.0,120.0,240.0,0.0,64.0
1530,77.0,0.0,120.0,0.0,64.0
1531,78.0,120.0,120.0,0.0,64.0
1532,45.0,0.0,240.0,0.0,64.0
1533,61.0,120.0,240.0,0.0,64.0
1534,77.0,0.0,120.0,0.0,64.0
1535,78.0,120.0,120.0,0.0,64.0
1536,66.0,120.0,240.0,0.0,64.0
1537,81.0,0.0,120.0,0.0,64.0
1538,80.0,120.0,120.0,0.0,64.0
1539,59.0,0.0,240.0,0.0,64.0
1540,47.0,120.0,240.0,0.0,64.0
1541,78.0,0.0,120.0,0.0,64.0
1542,77.0,120.0,120.0,0.0,64.0
1543,71.0,120.0,360.0,0.0,64.0
1544,75.0,120.0,120.0,0.0,64.0
1545,49.0,0.0,240.0,0.0,64.0
1546,73.0,0.0,120.0,0.0,64.0
1547,75.0,0.0,120.0,0.0,64.0
1548,69.0,120.0,120.0,0.0,64.0
1549,77.0,120.0,120.0,0.0,64.0
1550,61.0,0.0,240.0,0.0,64.0
1551,68.0,0.0,120.0,0.0,64.0
1552,66.0,120.0,120.0,0.0,64.0
1553,78.0,0.0,120.0,0.0,64.0
1554,80.0,0.0,120.0,0.0,64.0
1555,65.0,120.0,120.0,0.0,64.0
1556,49.0,0.0,240.0,0.0,64.0
1557,83.0,0.0,120.0,0.0,64.0
1558,63.0,120.0,120.0,0.0,64.0
1559,61.0,120.0,120.0,0.0,64.0
1560,81.0,0.0,120.0,0.0,64.0
1561,80.0,0.0,120.0,0.0,64.0
1562,59.0,120.0,120.0,0.0,64.0
1563,85.0,0.0,120.0,0.0,64.0
1564,49.0,0.0,240.0,0.0,64.0
1565,57.0,120.0,120.0,0.0,64.0
1566,83.0,0.0,120.0,0.0,64.0
1567,56.0,120.0,120.0,0.0,64.0
1568,61.0,120.0,240.0,0.0,64.0
1569,81.0,0.0,120.0,0.0,64.0
1570,54.0,120.0,120.0,0.0,64.0
1571,53.0,0.0,120.0,0.0,64.0
1572,80.0,0.0,120.0,0.0,64.0
1573,42.0,120.0,240.0,0.0,64.0
1574,81.0,120.0,120.0,0.0,64.0
1575,78.0,0.0,120.0,0.0,64.0
1576,77.0,120.0,120.0,0.0,64.0
1577,54.0,0.0,240.0,0.0,64.0
1578,75.0,120.0,120.0,0.0,64.0
1579,73.0,120.0,120.0,0.0,64.0
1580,71.0,120.0,120.0,0.0,64.0
1581,69.0,120.0,120.0,0.0,64.0
1582,52.0,120.0,240.0,0.0,64.0
1583,68.0,0.0,120.0,0.0,64.0
1584,66.0,0.0,15.0,0.0,64.0
1585,71.0,120.0,120.0,0.0,64.0
1586,51.0,0.0,240.0,0.0,64.0
1587,70.0,120.0,120.0,0.0,64.0
1588,71.0,120.0,120.0,0.0,64.0
1589,49.0,0.0,240.0,0.0,64.0
1590,73.0,120.0,120.0,0.0,64.0
1591,47.0,0.0,240.0,0.0,64.0
1592,75.0,120.0,120.0,0.0,64.0
1593,71.0,120.0,120.0,0.0,64.0
1594,59.0,0.0,480.0,0.0,64.0
1595,70.0,120.0,120.0,0.0,64.0
1596,68.0,120.0,120.0,0.0,64.0
1597,66.0,120.0,120.0,0.0,64.0
1598,64.0,120.0,120.0,0.0,64.0
1599,63.0,120.0,120.0,0.0,64.0
1600,71.0,0.0,240.0,0.0,64.0
1601,57.0,0.0,240.0,0.0,64.0
1602,61.0,120.0,120.0,0.0,64.0
1603,76.0,120.0,120.0,0.0,64.0
1604,56.0,120.0,240.0,0.0,64.0
1605,59.0,120.0,960.0,0.0,64.0
1606,75.0,0.0,120.0,0.0,64.0
1607,76.0,120.0,120.0,0.0,64.0
1608,54.0,0.0,240.0,0.0,64.0
1609,78.0,120.0,120.0,0.0,64.0
1610,52.0,120.0,240.0,0.0,64.0
1611,80.0,120.0,120.0,0.0,64.0
1612,80.0,0.0,120.0,0.0,64.0
1613,78.0,120.0,120.0,0.0,64.0
1614,56.0,120.0,480.0,0.0,64.0
1615,76.0,0.0,120.0,0.0,64.0
1616,75.0,120.0,120.0,0.0,64.0
1617,73.0,0.0,120.0,0.0,64.0
1618,72.0,120.0,120.0,0.0,64.0
1619,54.0,0.0,240.0,0.0,64.0
1620,70.0,0.0,120.0,0.0,64.0
1621,68.0,120.0,15.0,0.0,64.0
1622,73.0,120.0,120.0,0.0,64.0
1623,52.0,0.0,240.0,0.0,64.0
1624,72.0,120.0,120.0,0.0,64.0
1625,51.0,120.0,240.0,0.0,64.0
1626,73.0,120.0,120.0,0.0,64.0
1627,75.0,0.0,120.0,0.0,64.0
1628,76.0,120.0,120.0,0.0,64.0
1629,49.0,120.0,240.0,0.0,64.0
1630,73.0,0.0,120.0,0.0,64.0
1631,71.0,120.0,120.0,0.0,64.0
1632,61.0,0.0,480.0,0.0,64.0
1633,69.0,0.0,120.0,0.0,64.0
1634,68.0,120.0,120.0,0.0,64.0
1635,66.0,120.0,120.0,0.0,64.0
1636,59.0,0.0,240.0,0.0,64.0
1637,64.0,120.0,120.0,0.0,64.0
1638,73.0,0.0,240.0,0.0,64.0
1639,63.0,120.0,120.0,0.0,64.0
1640,79.0,120.0,120.0,0.0,64.0
1641,58.0,0.0,240.0,0.0,64.0
1642,61.0,120.0,600.0,0.0,64.0
1643,77.0,120.0,120.0,0.0,64.0
1644,56.0,120.0,240.0,0.0,64.0
1645,79.0,120.0,120.0,0.0,64.0
1646,80.0,0.0,120.0,0.0,64.0
1647,82.0,0.0,240.0,0.0,64.0
1648,55.0,0.0,240.0,0.0,64.0
1649,70.0,120.0,120.0,0.0,64.0
1650,75.0,120.0,480.0,0.0,64.0
1651,61.0,120.0,120.0,0.0,64.0
1652,70.0,120.0,120.0,0.0,64.0
1653,56.0,0.0,240.0,0.0,64.0
1654,59.0,120.0,120.0,0.0,64.0
1655,68.0,0.0,120.0,0.0,64.0
1656,59.0,120.0,120.0,0.0,64.0
1657,80.0,120.0,480.0,0.0,64.0
1658,68.0,120.0,120.0,0.0,64.0
1659,52.0,0.0,240.0,0.0,64.0
1660,58.0,120.0,120.0,0.0,64.0
1661,68.0,0.0,120.0,0.0,64.0
1662,56.0,120.0,120.0,0.0,64.0
1663,73.0,120.0,240.0,0.0,64.0
1664,68.0,0.0,120.0,0.0,64.0
1665,67.0,120.0,120.0,0.0,64.0
1666,51.0,120.0,240.0,0.0,64.0
1667,63.0,0.0,120.0,0.0,64.0
1668,65.0,120.0,120.0,0.0,64.0
1669,67.0,120.0,120.0,0.0,64.0
1670,68.0,120.0,120.0,0.0,64.0
1671,52.0,0.0,240.0,0.0,64.0
1672,67.0,120.0,120.0,0.0,64.0
1673,68.0,120.0,120.0,0.0,64.0
1674,71.0,120.0,120.0,0.0,64.0
1675,53.0,0.0,240.0,0.0,64.0
1676,70.0,120.0,120.0,0.0,64.0
1677,68.0,120.0,120.0,0.0,64.0
1678,67.0,120.0,120.0,0.0,64.0
1679,65.0,120.0,120.0,0.0,64.0
1680,63.0,120.0,120.0,0.0,64.0
1681,54.0,0.0,240.0,0.0,64.0
1682,65.0,120.0,120.0,0.0,64.0
1683,66.0,120.0,120.0,0.0,64.0
1684,68.0,120.0,120.0,0.0,64.0
1685,55.0,120.0,240.0,0.0,64.0
1686,70.0,120.0,120.0,0.0,64.0
1687,73.0,0.0,120.0,0.0,64.0
1688,71.0,120.0,120.0,0.0,64.0
1689,70.0,120.0,120.0,0.0,64.0
1690,75.0,120.0,120.0,0.0,64.0
1691,51.0,120.0,240.0,0.0,64.0
1692,73.0,0.0,120.0,0.0,64.0
1693,71.0,120.0,120.0,0.0,64.0
1694,70.0,120.0,120.0,0.0,64.0
1695,56.0,0.0,240.0,0.0,64.0
1696,71.0,120.0,120.0,0.0,64.0
1697,73.0,120.0,120.0,0.0,64.0
1698,75.0,120.0,120.0,0.0,64.0
1699,44.0,120.0,240.0,0.0,64.0
1700,76.0,120.0,120.0,0.0,64.0
1701,75.0,0.0,120.0,0.0,64.0
1702,76.0,120.0,120.0,0.0,64.0
1703,80.0,120.0,120.0,0.0,64.0
1704,78.0,120.0,120.0,0.0,64.0
1705,47.0,120.0,240.0,0.0,64.0
1706,76.0,0.0,120.0,0.0,64.0
1707,75.0,120.0,120.0,0.0,64.0
1708,73.0,120.0,120.0,0.0,64.0
1709,51.0,0.0,240.0,0.0,64.0
1710,71.0,120.0,120.0,0.0,64.0
1711,73.0,120.0,120.0,0.0,64.0
1712,75.0,120.0,120.0,0.0,64.0
1713,76.0,120.0,120.0,0.0,64.0
1714,78.0,120.0,120.0,0.0,64.0
1715,47.0,0.0,240.0,0.0,64.0
1716,81.0,120.0,120.0,0.0,64.0
1717,80.0,120.0,120.0,0.0,64.0
1718,78.0,120.0,120.0,0.0,64.0
1719,83.0,120.0,120.0,0.0,64.0
1720,51.0,0.0,240.0,0.0,64.0
1721,81.0,120.0,120.0,0.0,64.0
1722,80.0,120.0,120.0,0.0,64.0
1723,78.0,120.0,120.0,0.0,64.0
1724,52.0,120.0,240.0,0.0,64.0
1725,68.0,0.0,120.0,0.0,64.0
1726,70.0,120.0,120.0,0.0,64.0
1727,72.0,120.0,120.0,0.0,64.0
1728,57.0,0.0,240.0,0.0,64.0
1729,73.0,120.0,120.0,0.0,64.0
1730,72.0,120.0,120.0,0.0,64.0
1731,73.0,120.0,120.0,0.0,64.0
1732,76.0,120.0,120.0,0.0,64.0
1733,58.0,0.0,240.0,0.0,64.0
1734,75.0,120.0,120.0,0.0,64.0
1735,73.0,120.0,120.0,0.0,64.0
1736,72.0,120.0,120.0,0.0,64.0
1737,70.0,120.0,120.0,0.0,64.0
1738,59.0,0.0,240.0,0.0,64.0
1739,68.0,120.0,120.0,0.0,64.0
1740,70.0,120.0,120.0,0.0,64.0
1741,72.0,120.0,120.0,0.0,64.0
1742,73.0,120.0,120.0,0.0,64.0
1743,75.0,120.0,120.0,0.0,64.0
1744,60.0,0.0,240.0,0.0,64.0
1745,78.0,120.0,120.0,0.0,64.0
1746,76.0,120.0,120.0,0.0,64.0
1747,75.0,120.0,120.0,0.0,64.0
1748,80.0,120.0,120.0,0.0,64.0
1749,56.0,120.0,240.0,0.0,64.0
1750,78.0,0.0,120.0,0.0,64.0
1751,76.0,120.0,120.0,0.0,64.0
1752,75.0,120.0,120.0,0.0,64.0
1753,61.0,0.0,240.0,0.0,64.0
1754,76.0,120.0,120.0,0.0,64.0
1755,68.0,0.0,120.0,0.0,64.0
1756,75.0,120.0,120.0,0.0,64.0
1757,70.0,0.0,120.0,0.0,64.0
1758,73.0,120.0,120.0,0.0,64.0
1759,72.0,0.0,120.0,0.0,64.0
1760,75.0,120.0,120.0,0.0,64.0
1761,76.0,0.0,120.0,0.0,64.0
1762,73.0,120.0,120.0,0.0,64.0
1763,49.0,120.0,240.0,0.0,64.0
1764,72.0,0.0,120.0,0.0,64.0
1765,75.0,0.0,120.0,0.0,64.0
1766,76.0,0.0,120.0,0.0,64.0
1767,73.0,120.0,120.0,0.0,64.0
1768,80.0,0.0,120.0,0.0,64.0
1769,76.0,120.0,120.0,0.0,64.0
1770,61.0,120.0,960.0,0.0,64.0
1771,75.0,0.0,120.0,0.0,64.0
1772,78.0,120.0,120.0,0.0,64.0
1773,73.0,0.0,120.0,0.0,64.0
1774,76.0,120.0,120.0,0.0,64.0
1775,72.0,0.0,120.0,0.0,64.0
1776,75.0,120.0,120.0,0.0,64.0
1777,73.0,0.0,120.0,0.0,64.0
1778,70.0,120.0,120.0,0.0,64.0
1779,68.0,120.0,120.0,0.0,64.0
1780,75.0,0.0,240.0,0.0,64.0
1781,70.0,120.0,120.0,0.0,64.0
1782,68.0,0.0,240.0,0.0,64.0
1783,72.0,120.0,120.0,0.0,64.0
1784,73.0,0.0,120.0,0.0,64.0
1785,75.0,120.0,120.0,0.0,64.0
1786,60.0,0.0,240.0,0.0,64.0
1787,78.0,120.0,120.0,0.0,64.0
1788,76.0,120.0,120.0,0.0,64.0
1789,56.0,0.0,240.0,0.0,64.0
1790,75.0,120.0,120.0,0.0,64.0
1791,80.0,120.0,120.0,0.0,64.0
1792,58.0,0.0,240.0,0.0,64.0
1793,78.0,120.0,120.0,0.0,64.0
1794,60.0,0.0,240.0,0.0,64.0
1795,76.0,120.0,120.0,0.0,64.0
1796,75.0,240.0,120.0,0.0,64.0
1797,61.0,120.0,480.0,0.0,64.0
1798,73.0,120.0,120.0,0.0,64.0
1799,72.0,120.0,120.0,0.0,64.0
1800,73.0,0.0,120.0,0.0,64.0
1801,76.0,120.0,120.0,0.0,64.0
1802,73.0,120.0,120.0,0.0,64.0
1803,51.0,0.0,240.0,0.0,64.0
1804,72.0,120.0,120.0,0.0,64.0
1805,73.0,120.0,120.0,0.0,64.0
1806,52.0,0.0,240.0,0.0,64.0
1807,68.0,120.0,120.0,0.0,64.0
1808,73.0,120.0,120.0,0.0,64.0
1809,49.0,120.0,240.0,0.0,64.0
1810,64.0,120.0,120.0,0.0,64.0
1811,68.0,0.0,120.0,0.0,64.0
1812,61.0,0.0,240.0,0.0,64.0
1813,57.0,0.0,240.0,0.0,64.0
1814,75.0,120.0,120.0,0.0,64.0
1815,73.0,120.0,120.0,0.0,64.0
1816,75.0,120.0,120.0,0.0,64.0
1817,76.0,120.0,120.0,0.0,64.0
1818,45.0,0.0,240.0,0.0,64.0
1819,80.0,120.0,120.0,0.0,64.0
1820,78.0,120.0,120.0,0.0,64.0
1821,76.0,120.0,120.0,0.0,64.0
1822,49.0,0.0,240.0,0.0,64.0
1823,81.0,120.0,120.0,0.0,64.0
1824,80.0,120.0,120.0,0.0,64.0
1825,78.0,120.0,120.0,0.0,64.0
1826,76.0,240.0,120.0,0.0,64.0
1827,51.0,0.0,480.0,0.0,64.0
1828,78.0,120.0,1560.0,0.0,64.0
1829,71.0,120.0,120.0,0.0,64.0
1830,70.0,120.0,120.0,0.0,64.0
1831,71.0,120.0,120.0,0.0,64.0
1832,75.0,120.0,120.0,0.0,64.0
1833,71.0,120.0,120.0,0.0,64.0
1834,70.0,120.0,120.0,0.0,64.0
1835,49.0,0.0,240.0,0.0,64.0
1836,71.0,120.0,120.0,0.0,64.0
1837,66.0,120.0,120.0,0.0,64.0
1838,51.0,0.0,240.0,0.0,64.0
1839,71.0,120.0,120.0,0.0,64.0
1840,63.0,120.0,120.0,0.0,64.0
1841,47.0,0.0,240.0,0.0,64.0
1842,66.0,120.0,120.0,0.0,64.0
1843,59.0,120.0,240.0,0.0,64.0
1844,56.0,0.0,240.0,0.0,64.0
1845,76.0,0.0,120.0,0.0,64.0
1846,75.0,120.0,120.0,0.0,64.0
1847,76.0,120.0,120.0,0.0,64.0
1848,57.0,0.0,240.0,0.0,64.0
1849,78.0,120.0,120.0,0.0,64.0
1850,81.0,120.0,120.0,0.0,64.0
1851,80.0,120.0,120.0,0.0,64.0
1852,78.0,120.0,120.0,0.0,64.0
1853,51.0,0.0,240.0,0.0,64.0
1854,83.0,120.0,120.0,0.0,64.0
1855,81.0,120.0,120.0,0.0,64.0
1856,80.0,120.0,120.0,0.0,64.0
1857,78.0,120.0,120.0,0.0,64.0
1858,52.0,0.0,480.0,0.0,64.0
1859,80.0,120.0,120.0,0.0,64.0
1860,76.0,120.0,120.0,0.0,64.0
1861,75.0,120.0,120.0,0.0,64.0
1862,76.0,120.0,120.0,0.0,64.0
1863,80.0,120.0,120.0,0.0,64.0
1864,76.0,120.0,120.0,0.0,64.0
1865,75.0,120.0,120.0,0.0,64.0
1866,76.0,120.0,120.0,0.0,64.0
1867,71.0,120.0,120.0,0.0,64.0
1868,76.0,120.0,120.0,0.0,64.0
1869,68.0,120.0,120.0,0.0,64.0
1870,71.0,240.0,120.0,0.0,64.0
1871,68.0,0.0,240.0,0.0,64.0
1872,64.0,240.0,15.0,0.0,64.0
1873,83.0,240.0,240.0,0.0,64.0
1874,64.0,0.0,15.0,0.0,64.0
1875,52.0,0.0,240.0,0.0,64.0
1876,80.0,240.0,240.0,0.0,64.0
1877,68.0,240.0,240.0,0.0,64.0
1878,64.0,0.0,240.0,0.0,64.0
1879,83.0,0.0,240.0,0.0,64.0
1880,52.0,0.0,240.0,0.0,64.0
1881,85.0,0.0,240.0,0.0,64.0
1882,69.0,120.0,240.0,0.0,64.0
1883,68.0,0.0,120.0,0.0,64.0
1884,64.0,0.0,240.0,0.0,64.0
1885,83.0,120.0,120.0,0.0,64.0
1886,66.0,120.0,120.0,0.0,64.0
1887,81.0,0.0,120.0,0.0,64.0
1888,83.0,120.0,480.0,0.0,64.0
1889,52.0,0.0,480.0,0.0,64.0
1890,68.0,120.0,120.0,0.0,64.0
1891,64.0,120.0,120.0,0.0,64.0
1892,63.0,120.0,120.0,0.0,64.0
1893,64.0,0.0,120.0,0.0,64.0
1894,68.0,120.0,120.0,0.0,64.0
1895,64.0,120.0,120.0,0.0,64.0
1896,63.0,120.0,120.0,0.0,64.0
1897,64.0,120.0,120.0,0.0,64.0
1898,59.0,120.0,120.0,0.0,64.0
1899,64.0,120.0,120.0,0.0,64.0
1900,56.0,120.0,120.0,0.0,64.0
1901,59.0,240.0,120.0,0.0,64.0
1902,52.0,240.0,240.0,0.0,64.0
1903,71.0,240.0,240.0,0.0,64.0
1904,80.0,0.0,240.0,0.0,64.0
1905,52.0,0.0,240.0,0.0,64.0
1906,76.0,240.0,240.0,0.0,64.0
1907,68.0,0.0,240.0,0.0,64.0
1908,40.0,0.0,240.0,0.0,64.0
1909,71.0,240.0,240.0,0.0,64.0
1910,52.0,0.0,240.0,0.0,64.0
1911,80.0,0.0,240.0,0.0,64.0
1912,81.0,0.0,240.0,0.0,64.0
1913,40.0,120.0,240.0,0.0,64.0
1914,73.0,0.0,240.0,0.0,64.0
1915,80.0,0.0,120.0,0.0,64.0
1916,52.0,0.0,240.0,0.0,64.0
1917,71.0,120.0,120.0,0.0,64.0
1918,78.0,0.0,120.0,0.0,64.0
1919,69.0,120.0,120.0,0.0,64.0
1920,71.0,120.0,120.0,0.0,64.0
1921,80.0,120.0,240.0,0.0,64.0
1922,40.0,0.0,480.0,0.0,64.0
1923,68.0,0.0,120.0,0.0,64.0
1924,83.0,0.0,240.0,0.0,64.0
1925,64.0,120.0,120.0,0.0,64.0
1926,68.0,120.0,120.0,0.0,64.0
1927,52.0,120.0,480.0,0.0,64.0
1928,73.0,120.0,120.0,0.0,64.0
1929,76.0,0.0,240.0,0.0,64.0
1930,68.0,120.0,120.0,0.0,64.0
1931,80.0,0.0,240.0,0.0,64.0
1932,64.0,120.0,120.0,0.0,64.0
1933,68.0,0.0,120.0,0.0,64.0
1934,73.0,120.0,120.0,0.0,64.0
1935,76.0,120.0,120.0,0.0,64.0
1936,78.0,120.0,120.0,0.0,64.0
1937,40.0,120.0,240.0,0.0,64.0
1938,80.0,0.0,120.0,0.0,64.0
1939,81.0,0.0,240.0,0.0,64.0
1940,42.0,120.0,480.0,0.0,64.0
1941,69.0,120.0,120.0,0.0,64.0
1942,85.0,0.0,240.0,0.0,64.0
1943,66.0,120.0,120.0,0.0,64.0
1944,69.0,0.0,120.0,0.0,64.0
1945,54.0,0.0,480.0,0.0,64.0
1946,78.0,120.0,240.0,0.0,64.0
1947,75.0,120.0,120.0,0.0,64.0
1948,69.0,0.0,120.0,0.0,64.0
1949,66.0,120.0,120.0,0.0,64.0
1950,81.0,0.0,240.0,0.0,64.0
1951,69.0,120.0,120.0,0.0,64.0
1952,75.0,120.0,120.0,0.0,64.0
1953,78.0,120.0,120.0,0.0,64.0
1954,42.0,120.0,240.0,0.0,64.0
1955,80.0,120.0,120.0,0.0,64.0
1956,81.0,0.0,120.0,0.0,64.0
1957,44.0,0.0,480.0,0.0,64.0
1958,83.0,120.0,240.0,0.0,64.0
1959,71.0,0.0,120.0,0.0,64.0
1960,88.0,120.0,120.0,0.0,64.0
1961,68.0,0.0,120.0,0.0,64.0
1962,71.0,120.0,120.0,0.0,64.0
1963,83.0,0.0,120.0,0.0,64.0
1964,56.0,0.0,480.0,0.0,64.0
1965,80.0,0.0,240.0,0.0,64.0
1966,76.0,120.0,120.0,0.0,64.0
1967,71.0,120.0,120.0,0.0,64.0
1968,83.0,120.0,120.0,0.0,64.0
1969,68.0,0.0,120.0,0.0,64.0
1970,71.0,0.0,120.0,0.0,64.0
1971,80.0,120.0,15.0,0.0,64.0
1972,76.0,120.0,120.0,0.0,64.0
1973,80.0,120.0,120.0,0.0,64.0
1974,81.0,120.0,120.0,0.0,64.0
1975,44.0,120.0,240.0,0.0,64.0
1976,83.0,0.0,120.0,0.0,64.0
1977,85.0,120.0,120.0,0.0,64.0
1978,45.0,120.0,480.0,0.0,64.0
1979,83.0,120.0,120.0,0.0,64.0
1980,78.0,0.0,120.0,0.0,64.0
1981,85.0,120.0,120.0,0.0,64.0
1982,76.0,0.0,120.0,0.0,64.0
1983,86.0,0.0,120.0,0.0,64.0
1984,78.0,0.0,240.0,0.0,64.0
1985,85.0,120.0,120.0,0.0,64.0
1986,57.0,0.0,480.0,0.0,64.0
1987,83.0,120.0,120.0,0.0,64.0
1988,73.0,0.0,240.0,0.0,64.0
1989,81.0,120.0,120.0,0.0,64.0
1990,80.0,120.0,120.0,0.0,64.0
1991,81.0,120.0,720.0,0.0,64.0
1992,78.0,120.0,120.0,0.0,64.0
1993,76.0,120.0,120.0,0.0,64.0
1994,54.0,0.0,240.0,0.0,64.0
1995,75.0,120.0,120.0,0.0,64.0
1996,73.0,120.0,120.0,0.0,64.0
1997,59.0,0.0,480.0,0.0,64.0
1998,75.0,120.0,120.0,0.0,64.0
1999,76.0,0.0,120.0,0.0,64.0
2000,75.0,120.0,120.0,0.0,64.0
2001,78.0,0.0,240.0,0.0,64.0
2002,71.0,120.0,120.0,0.0,64.0
2003,47.0,0.0,4080.0,0.0,64.0
2004,75.0,120.0,240.0,0.0,64.0
2005,78.0,120.0,120.0,0.0,64.0
2006,80.0,0.0,120.0,0.0,64.0
2007,78.0,120.0,120.0,0.0,64.0
2008,75.0,0.0,120.0,0.0,64.0
2009,81.0,120.0,120.0,0.0,64.0
2010,71.0,120.0,240.0,0.0,64.0
2011,83.0,0.0,120.0,0.0,64.0
2012,75.0,0.0,240.0,0.0,64.0
2013,81.0,120.0,120.0,0.0,64.0
2014,78.0,120.0,120.0,0.0,64.0
2015,76.0,120.0,120.0,0.0,64.0
2016,79.0,0.0,240.0,0.0,64.0
2017,78.0,120.0,120.0,0.0,64.0
2018,76.0,120.0,240.0,0.0,64.0
2019,79.0,120.0,120.0,0.0,64.0
2020,81.0,0.0,120.0,0.0,64.0
2021,83.0,0.0,240.0,0.0,64.0
2022,79.0,120.0,120.0,0.0,64.0
2023,78.0,120.0,120.0,0.0,64.0
2024,76.0,120.0,120.0,0.0,64.0
2025,79.0,120.0,240.0,0.0,64.0
2026,74.0,0.0,120.0,0.0,64.0
2027,73.0,120.0,120.0,0.0,64.0
2028,88.0,120.0,600.0,0.0,64.0
2029,71.0,120.0,120.0,0.0,64.0
2030,70.0,120.0,120.0,0.0,64.0
2031,68.0,120.0,120.0,0.0,64.0
2032,70.0,0.0,240.0,0.0,64.0
2033,86.0,120.0,120.0,0.0,64.0
2034,85.0,120.0,120.0,0.0,64.0
2035,64.0,0.0,240.0,0.0,64.0
2036,83.0,120.0,120.0,0.0,64.0
2037,82.0,120.0,120.0,0.0,64.0
2038,73.0,120.0,240.0,0.0,64.0
2039,85.0,0.0,120.0,0.0,64.0
2040,79.0,120.0,120.0,0.0,64.0
2041,70.0,120.0,240.0,0.0,64.0
2042,78.0,0.0,120.0,0.0,64.0
2043,79.0,120.0,120.0,0.0,64.0
2044,76.0,120.0,120.0,0.0,64.0
2045,83.0,120.0,120.0,0.0,64.0
2046,82.0,120.0,120.0,0.0,64.0
2047,83.0,0.0,120.0,0.0,64.0
2048,78.0,120.0,120.0,0.0,64.0
2049,75.0,0.0,120.0,0.0,64.0
2050,73.0,120.0,120.0,0.0,64.0
2051,52.0,0.0,240.0,0.0,64.0
2052,76.0,0.0,120.0,0.0,64.0
2053,78.0,0.0,120.0,0.0,64.0
2054,75.0,120.0,120.0,0.0,64.0
2055,71.0,120.0,120.0,0.0,64.0
2056,87.0,0.0,1080.0,0.0,64.0
2057,56.0,0.0,240.0,0.0,64.0
2058,80.0,120.0,120.0,0.0,64.0
2059,58.0,120.0,240.0,0.0,64.0
2060,78.0,120.0,120.0,0.0,64.0
2061,76.0,0.0,120.0,0.0,64.0
2062,75.0,120.0,120.0,0.0,64.0
2063,59.0,0.0,240.0,0.0,64.0
2064,73.0,120.0,120.0,0.0,64.0
2065,51.0,120.0,240.0,0.0,64.0
2066,71.0,120.0,120.0,0.0,64.0
2067,70.0,0.0,120.0,0.0,64.0
2068,68.0,120.0,120.0,0.0,64.0
2069,52.0,120.0,240.0,0.0,64.0
2070,76.0,0.0,120.0,0.0,64.0
2071,70.0,0.0,120.0,0.0,64.0
2072,66.0,0.0,120.0,0.0,64.0
2073,56.0,0.0,240.0,0.0,64.0
2074,75.0,120.0,120.0,0.0,64.0
2075,68.0,120.0,120.0,0.0,64.0
2076,76.0,0.0,120.0,0.0,64.0
2077,85.0,0.0,1080.0,0.0,64.0
2078,58.0,120.0,240.0,0.0,64.0
2079,64.0,120.0,120.0,0.0,64.0
2080,78.0,0.0,120.0,0.0,64.0
2081,76.0,120.0,120.0,0.0,64.0
2082,59.0,120.0,240.0,0.0,64.0
2083,75.0,0.0,120.0,0.0,64.0
2084,73.0,120.0,120.0,0.0,64.0
2085,61.0,120.0,240.0,0.0,64.0
2086,71.0,0.0,120.0,0.0,64.0
2087,52.0,120.0,240.0,0.0,64.0
2088,70.0,120.0,120.0,0.0,64.0
2089,68.0,0.0,120.0,0.0,64.0
2090,66.0,120.0,120.0,0.0,64.0
2091,54.0,0.0,240.0,0.0,64.0
2092,75.0,0.0,120.0,0.0,64.0
2093,68.0,120.0,120.0,0.0,64.0
2094,58.0,0.0,240.0,0.0,64.0
2095,73.0,0.0,120.0,0.0,64.0
2096,64.0,120.0,120.0,0.0,64.0
2097,75.0,0.0,120.0,0.0,64.0
2098,66.0,120.0,120.0,0.0,64.0
2099,83.0,120.0,1080.0,0.0,64.0
2100,63.0,120.0,120.0,0.0,64.0
2101,59.0,120.0,240.0,0.0,64.0
2102,76.0,0.0,120.0,0.0,64.0
2103,75.0,120.0,120.0,0.0,64.0
2104,61.0,120.0,240.0,0.0,64.0
2105,73.0,0.0,120.0,0.0,64.0
2106,71.0,120.0,120.0,0.0,64.0
2107,63.0,0.0,240.0,0.0,64.0
2108,70.0,120.0,120.0,0.0,64.0
2109,54.0,0.0,240.0,0.0,64.0
2110,68.0,120.0,120.0,0.0,64.0
2111,66.0,120.0,120.0,0.0,64.0
2112,56.0,120.0,240.0,0.0,64.0
2113,64.0,0.0,240.0,0.0,64.0
2114,82.0,0.0,120.0,0.0,64.0
2115,68.0,0.0,480.0,0.0,64.0
2116,80.0,120.0,120.0,0.0,64.0
2117,59.0,0.0,240.0,0.0,64.0
2118,78.0,120.0,120.0,0.0,64.0
2119,61.0,0.0,240.0,0.0,64.0
2120,76.0,120.0,120.0,0.0,64.0
2121,75.0,120.0,120.0,0.0,64.0
2122,63.0,120.0,240.0,0.0,64.0
2123,73.0,120.0,120.0,0.0,64.0
2124,71.0,0.0,120.0,0.0,64.0
2125,70.0,120.0,120.0,0.0,64.0
2126,64.0,120.0,240.0,0.0,64.0
2127,68.0,0.0,120.0,0.0,64.0
2128,66.0,120.0,120.0,0.0,64.0
2129,56.0,120.0,240.0,0.0,64.0
2130,76.0,120.0,360.0,0.0,64.0
2131,64.0,0.0,120.0,0.0,64.0
2132,58.0,120.0,240.0,0.0,64.0
2133,66.0,0.0,240.0,0.0,64.0
2134,71.0,0.0,120.0,0.0,64.0
2135,76.0,240.0,240.0,0.0,64.0
2136,54.0,0.0,240.0,0.0,64.0
2137,73.0,120.0,120.0,0.0,64.0
2138,70.0,0.0,120.0,0.0,64.0
2139,71.0,0.0,240.0,0.0,64.0
2140,75.0,0.0,240.0,0.0,64.0
2141,59.0,120.0,240.0,0.0,64.0
2142,80.0,120.0,120.0,0.0,64.0
2143,73.0,120.0,240.0,0.0,64.0
2144,52.0,0.0,240.0,0.0,64.0
2145,78.0,0.0,120.0,0.0,64.0
2146,66.0,0.0,240.0,0.0,64.0
2147,54.0,120.0,240.0,0.0,64.0
2148,76.0,120.0,120.0,0.0,64.0
2149,75.0,0.0,120.0,0.0,64.0
2150,70.0,0.0,240.0,0.0,64.0
2151,73.0,120.0,120.0,0.0,64.0
2152,42.0,0.0,240.0,0.0,64.0
2153,71.0,240.0,120.0,0.0,64.0
2154,47.0,0.0,480.0,0.0,64.0
2155,71.0,120.0,120.0,0.0,64.0
2156,70.0,120.0,120.0,0.0,64.0
2157,71.0,0.0,120.0,0.0,64.0
2158,75.0,120.0,120.0,0.0,64.0
2159,71.0,120.0,120.0,0.0,64.0
2160,70.0,120.0,120.0,0.0,64.0
2161,71.0,120.0,120.0,0.0,64.0
2162,66.0,120.0,120.0,0.0,64.0
2163,71.0,120.0,120.0,0.0,64.0
2164,63.0,120.0,120.0,0.0,64.0
2165,66.0,240.0,120.0,0.0,64.0
2166,59.0,240.0,15.0,0.0,64.0
2167,78.0,0.0,240.0,0.0,64.0
2168,87.0,0.0,240.0,0.0,64.0
2169,83.0,0.0,240.0,0.0,64.0
2170,47.0,0.0,240.0,0.0,64.0
2171,75.0,240.0,240.0,0.0,64.0
2172,87.0,240.0,240.0,0.0,64.0
2173,78.0,0.0,240.0,0.0,64.0
2174,59.0,0.0,240.0,0.0,64.0
2175,80.0,0.0,240.0,0.0,64.0
2176,88.0,0.0,240.0,0.0,64.0
2177,47.0,120.0,240.0,0.0,64.0
2178,87.0,120.0,120.0,0.0,64.0
2179,59.0,0.0,240.0,0.0,64.0
2180,78.0,0.0,120.0,0.0,64.0
2181,76.0,0.0,120.0,0.0,64.0
2182,85.0,120.0,120.0,0.0,64.0
2183,78.0,120.0,480.0,0.0,64.0
2184,47.0,0.0,480.0,0.0,64.0
2185,87.0,120.0,120.0,0.0,64.0
2186,83.0,120.0,120.0,0.0,64.0
2187,82.0,120.0,120.0,0.0,64.0
2188,83.0,0.0,120.0,0.0,64.0
2189,87.0,120.0,120.0,0.0,64.0
2190,83.0,120.0,120.0,0.0,64.0
2191,82.0,120.0,120.0,0.0,64.0
2192,83.0,120.0,120.0,0.0,64.0
2193,78.0,120.0,120.0,0.0,64.0
2194,83.0,120.0,120.0,0.0,64.0
2195,75.0,120.0,120.0,0.0,64.0
2196,78.0,240.0,120.0,0.0,64.0
2197,71.0,240.0,240.0,0.0,64.0
2198,59.0,240.0,240.0,0.0,64.0
2199,63.0,0.0,240.0,0.0,64.0
2200,78.0,0.0,240.0,0.0,64.0
2201,75.0,0.0,240.0,0.0,64.0
2202,47.0,0.0,240.0,0.0,64.0
2203,59.0,240.0,15.0,0.0,64.0
2204,63.0,0.0,240.0,0.0,64.0
2205,78.0,240.0,240.0,0.0,64.0
2206,80.0,0.0,240.0,0.0,64.0
2207,64.0,0.0,240.0,0.0,64.0
2208,47.0,120.0,240.0,0.0,64.0
2209,78.0,0.0,120.0,0.0,64.0
2210,59.0,0.0,240.0,0.0,64.0
2211,63.0,120.0,120.0,0.0,64.0
2212,76.0,0.0,120.0,0.0,64.0
2213,61.0,120.0,120.0,0.0,64.0
2214,63.0,120.0,240.0,0.0,64.0
2215,47.0,0.0,480.0,0.0,64.0
2216,78.0,120.0,120.0,0.0,64.0
2217,75.0,0.0,120.0,0.0,64.0
2218,71.0,120.0,120.0,0.0,64.0
2219,66.0,0.0,240.0,0.0,64.0
2220,75.0,120.0,120.0,0.0,64.0
2221,59.0,0.0,240.0,0.0,64.0
2222,80.0,120.0,120.0,0.0,64.0
2223,75.0,120.0,120.0,0.0,64.0
2224,71.0,120.0,120.0,0.0,64.0
2225,63.0,120.0,240.0,0.0,64.0
2226,75.0,0.0,120.0,0.0,64.0
2227,56.0,120.0,120.0,0.0,64.0
2228,83.0,120.0,600.0,0.0,64.0
2229,59.0,120.0,120.0,0.0,64.0
2230,47.0,0.0,240.0,0.0,64.0
2231,61.0,120.0,120.0,0.0,64.0
2232,63.0,120.0,120.0,0.0,64.0
2233,64.0,0.0,240.0,0.0,64.0
2234,49.0,0.0,480.0,0.0,64.0
2235,76.0,120.0,120.0,0.0,64.0
2236,73.0,120.0,120.0,0.0,64.0
2237,68.0,0.0,240.0,0.0,64.0
2238,76.0,120.0,120.0,0.0,64.0
2239,82.0,120.0,120.0,0.0,64.0
2240,61.0,120.0,240.0,0.0,64.0
2241,76.0,0.0,120.0,0.0,64.0
2242,64.0,120.0,240.0,0.0,64.0
2243,73.0,120.0,120.0,0.0,64.0
2244,76.0,0.0,120.0,0.0,64.0
2245,58.0,120.0,120.0,0.0,64.0
2246,85.0,120.0,600.0,0.0,64.0
2247,61.0,120.0,120.0,0.0,64.0
2248,49.0,0.0,240.0,0.0,64.0
2249,63.0,120.0,120.0,0.0,64.0
2250,64.0,120.0,120.0,0.0,64.0
2251,51.0,120.0,480.0,0.0,64.0
2252,66.0,120.0,240.0,0.0,64.0
2253,78.0,0.0,120.0,0.0,64.0
2254,75.0,0.0,120.0,0.0,64.0
2255,71.0,120.0,120.0,0.0,64.0
2256,66.0,0.0,120.0,0.0,64.0
2257,78.0,0.0,120.0,0.0,64.0
2258,83.0,120.0,120.0,0.0,64.0
2259,63.0,0.0,240.0,0.0,64.0
2260,78.0,120.0,120.0,0.0,64.0
2261,75.0,0.0,120.0,0.0,64.0
2262,66.0,120.0,120.0,0.0,64.0
2263,63.0,0.0,120.0,0.0,64.0
2264,78.0,0.0,120.0,0.0,64.0
2265,59.0,120.0,120.0,0.0,64.0
2266,87.0,0.0,720.0,0.0,64.0
2267,63.0,120.0,120.0,0.0,64.0
2268,51.0,120.0,240.0,0.0,64.0
2269,64.0,120.0,120.0,0.0,64.0
2270,66.0,0.0,120.0,0.0,64.0
2271,52.0,0.0,480.0,0.0,64.0
2272,68.0,120.0,120.0,0.0,64.0
2273,66.0,120.0,120.0,0.0,64.0
2274,85.0,0.0,120.0,0.0,64.0
2275,68.0,120.0,120.0,0.0,64.0
2276,84.0,120.0,120.0,0.0,64.0
2277,69.0,0.0,120.0,0.0,64.0
2278,85.0,120.0,240.0,0.0,64.0
2279,68.0,120.0,120.0,0.0,64.0
2280,66.0,0.0,120.0,0.0,64.0
2281,64.0,120.0,120.0,0.0,64.0
2282,80.0,0.0,240.0,0.0,64.0
2283,63.0,120.0,120.0,0.0,64.0
2284,61.0,120.0,120.0,0.0,64.0
2285,88.0,120.0,720.0,0.0,64.0
2286,59.0,120.0,120.0,0.0,64.0
2287,58.0,120.0,120.0,0.0,64.0
2288,61.0,120.0,240.0,0.0,64.0
2289,56.0,0.0,120.0,0.0,64.0
2290,66.0,120.0,480.0,0.0,64.0
2291,58.0,120.0,120.0,0.0,64.0
2292,59.0,0.0,120.0,0.0,64.0
2293,85.0,0.0,240.0,0.0,64.0
2294,58.0,120.0,120.0,0.0,64.0
2295,54.0,0.0,15.0,0.0,64.0
2296,82.0,120.0,240.0,0.0,64.0
2297,61.0,120.0,120.0,0.0,64.0
2298,63.0,0.0,120.0,0.0,64.0
2299,61.0,120.0,120.0,0.0,64.0
2300,85.0,120.0,240.0,0.0,64.0
2301,58.0,0.0,120.0,0.0,64.0
2302,64.0,120.0,120.0,0.0,64.0
2303,78.0,0.0,240.0,0.0,64.0
2304,66.0,120.0,120.0,0.0,64.0
2305,64.0,120.0,120.0,0.0,64.0
2306,82.0,120.0,240.0,0.0,64.0
2307,61.0,0.0,120.0,0.0,64.0
2308,62.0,0.0,240.0,0.0,64.0
2309,83.0,120.0,120.0,0.0,64.0
2310,85.0,120.0,120.0,0.0,64.0
2311,59.0,0.0,240.0,0.0,64.0
2312,86.0,120.0,120.0,0.0,64.0
2313,88.0,120.0,120.0,0.0,64.0
2314,66.0,0.0,240.0,0.0,64.0
2315,86.0,120.0,120.0,0.0,64.0
2316,85.0,120.0,120.0,0.0,64.0
2317,62.0,120.0,240.0,0.0,64.0
2318,83.0,120.0,120.0,0.0,64.0
2319,81.0,0.0,120.0,0.0,64.0
2320,71.0,120.0,600.0,0.0,64.0
2321,80.0,120.0,120.0,0.0,64.0
2322,78.0,120.0,120.0,0.0,64.0
2323,77.0,120.0,120.0,0.0,64.0
2324,75.0,120.0,120.0,0.0,64.0
2325,77.0,0.0,240.0,0.0,64.0
2326,69.0,120.0,120.0,0.0,64.0
2327,71.0,120.0,240.0,0.0,64.0
2328,68.0,120.0,120.0,0.0,64.0
2329,66.0,0.0,120.0,0.0,64.0
2330,65.0,120.0,120.0,0.0,64.0
2331,80.0,120.0,240.0,0.0,64.0
2332,68.0,0.0,120.0,0.0,64.0
2333,62.0,120.0,120.0,0.0,64.0
2334,77.0,120.0,240.0,0.0,64.0
2335,61.0,0.0,120.0,0.0,64.0
2336,62.0,120.0,120.0,0.0,64.0
2337,83.0,120.0,600.0,0.0,64.0
2338,59.0,120.0,120.0,0.0,64.0
2339,66.0,120.0,120.0,0.0,64.0
2340,64.0,120.0,120.0,0.0,64.0
2341,66.0,120.0,600.0,0.0,64.0
2342,82.0,120.0,120.0,0.0,64.0
2343,58.0,120.0,240.0,0.0,64.0
2344,80.0,120.0,120.0,0.0,64.0
2345,78.0,0.0,120.0,0.0,64.0
2346,87.0,120.0,600.0,0.0,64.0
2347,59.0,120.0,240.0,0.0,64.0
2348,75.0,0.0,120.0,0.0,64.0
2349,73.0,120.0,120.0,0.0,64.0
2350,61.0,120.0,240.0,0.0,64.0
2351,71.0,0.0,120.0,0.0,64.0
2352,78.0,120.0,600.0,0.0,64.0
2353,63.0,120.0,240.0,0.0,64.0
2354,88.0,0.0,120.0,0.0,64.0
2355,54.0,120.0,240.0,0.0,64.0
2356,87.0,120.0,120.0,0.0,64.0
2357,85.0,0.0,120.0,0.0,64.0
2358,56.0,0.0,240.0,0.0,64.0
2359,83.0,120.0,720.0,0.0,64.0
2360,75.0,120.0,120.0,0.0,64.0
2361,59.0,120.0,240.0,0.0,64.0
2362,80.0,120.0,120.0,0.0,64.0
2363,78.0,0.0,120.0,0.0,64.0
2364,61.0,0.0,240.0,0.0,64.0
2365,76.0,120.0,120.0,0.0,64.0
2366,75.0,0.0,120.0,0.0,64.0
2367,63.0,0.0,240.0,0.0,64.0
2368,73.0,120.0,120.0,0.0,64.0
2369,82.0,0.0,120.0,0.0,64.0
2370,80.0,0.0,120.0,0.0,64.0
2371,71.0,120.0,120.0,0.0,64.0
2372,70.0,0.0,240.0,0.0,64.0
2373,64.0,0.0,240.0,0.0,64.0
2374,78.0,120.0,120.0,0.0,64.0
2375,76.0,120.0,15.0,0.0,64.0
2376,58.0,0.0,240.0,0.0,64.0
2377,75.0,120.0,120.0,0.0,64.0
2378,73.0,120.0,120.0,0.0,64.0
2379,59.0,120.0,240.0,0.0,64.0
2380,75.0,0.0,120.0,0.0,64.0
2381,73.0,120.0,120.0,0.0,64.0
2382,51.0,0.0,240.0,0.0,64.0
2383,71.0,120.0,120.0,0.0,64.0
2384,52.0,120.0,240.0,0.0,64.0
2385,80.0,0.0,120.0,0.0,64.0
2386,78.0,120.0,120.0,0.0,64.0
2387,54.0,0.0,240.0,0.0,64.0
2388,76.0,120.0,120.0,0.0,64.0
2389,83.0,120.0,600.0,0.0,64.0
2390,56.0,0.0,240.0,0.0,64.0
2391,81.0,120.0,120.0,0.0,64.0
2392,47.0,120.0,240.0,0.0,64.0
2393,80.0,120.0,120.0,0.0,64.0
2394,78.0,0.0,120.0,0.0,64.0
2395,76.0,120.0,720.0,0.0,64.0
2396,49.0,0.0,240.0,0.0,64.0
2397,80.0,120.0,120.0,0.0,64.0
2398,52.0,120.0,240.0,0.0,64.0
2399,85.0,120.0,120.0,0.0,64.0
2400,83.0,0.0,120.0,0.0,64.0
2401,81.0,120.0,120.0,0.0,64.0
2402,54.0,0.0,240.0,0.0,64.0
2403,80.0,0.0,120.0,0.0,64.0
2404,78.0,0.0,120.0,0.0,64.0
2405,56.0,0.0,240.0,0.0,64.0
2406,75.0,120.0,120.0,0.0,64.0
2407,76.0,0.0,120.0,0.0,64.0
2408,73.0,120.0,120.0,0.0,64.0
2409,71.0,120.0,120.0,0.0,64.0
2410,75.0,120.0,240.0,0.0,64.0
2411,57.0,0.0,240.0,0.0,64.0
2412,69.0,0.0,120.0,0.0,64.0
2413,68.0,120.0,120.0,0.0,64.0
2414,51.0,120.0,240.0,0.0,64.0
2415,81.0,120.0,360.0,0.0,64.0
2416,66.0,0.0,120.0,0.0,64.0
2417,64.0,0.0,240.0,0.0,64.0
2418,52.0,0.0,240.0,0.0,64.0
2419,80.0,120.0,120.0,0.0,64.0
2420,78.0,120.0,120.0,0.0,64.0
2421,52.0,0.0,240.0,0.0,64.0
2422,71.0,0.0,240.0,0.0,64.0
2423,80.0,120.0,120.0,0.0,64.0
2424,40.0,0.0,240.0,0.0,64.0
2425,68.0,120.0,240.0,0.0,64.0
2426,83.0,120.0,120.0,0.0,64.0
2427,80.0,0.0,120.0,0.0,64.0
2428,78.0,120.0,120.0,0.0,64.0
2429,52.0,0.0,240.0,0.0,64.0
2430,71.0,120.0,240.0,0.0,64.0
2431,80.0,0.0,120.0,0.0,64.0
2432,76.0,120.0,120.0,0.0,64.0
2433,40.0,0.0,240.0,0.0,64.0
2434,80.0,120.0,120.0,0.0,64.0
2435,73.0,120.0,120.0,0.0,64.0
2436,52.0,0.0,240.0,0.0,64.0
2437,76.0,120.0,120.0,0.0,64.0
2438,42.0,120.0,240.0,0.0,64.0
2439,69.0,0.0,120.0,0.0,64.0
2440,85.0,120.0,240.0,0.0,64.0
2441,54.0,0.0,240.0,0.0,64.0
2442,68.0,120.0,120.0,0.0,64.0
2443,69.0,0.0,120.0,0.0,64.0
2444,42.0,120.0,240.0,0.0,64.0
2445,73.0,120.0,120.0,0.0,64.0
2446,81.0,0.0,240.0,0.0,64.0
2447,69.0,0.0,120.0,0.0,64.0
2448,54.0,0.0,240.0,0.0,64.0
2449,85.0,120.0,240.0,0.0,64.0
2450,68.0,120.0,120.0,0.0,64.0
2451,69.0,0.0,120.0,0.0,64.0
2452,66.0,120.0,120.0,0.0,64.0
2453,42.0,0.0,240.0,0.0,64.0
2454,86.0,120.0,600.0,0.0,64.0
2455,69.0,120.0,120.0,0.0,64.0
2456,62.0,120.0,120.0,0.0,64.0
2457,54.0,120.0,240.0,0.0,64.0
2458,66.0,0.0,120.0,0.0,64.0
2459,44.0,120.0,240.0,0.0,64.0
2460,59.0,0.0,240.0,0.0,64.0
2461,83.0,0.0,120.0,0.0,64.0
2462,74.0,0.0,240.0,0.0,64.0
2463,81.0,120.0,120.0,0.0,64.0
2464,56.0,0.0,240.0,0.0,64.0
2465,83.0,120.0,120.0,0.0,64.0
2466,71.0,120.0,240.0,0.0,64.0
2467,44.0,0.0,240.0,0.0,64.0
2468,86.0,120.0,120.0,0.0,64.0
2469,83.0,0.0,120.0,0.0,64.0
2470,56.0,0.0,240.0,0.0,64.0
2471,81.0,120.0,120.0,0.0,64.0
2472,74.0,0.0,240.0,0.0,64.0
2473,83.0,120.0,120.0,0.0,64.0
2474,80.0,120.0,120.0,0.0,64.0
2475,44.0,0.0,240.0,0.0,64.0
2476,83.0,120.0,120.0,0.0,64.0
2477,76.0,120.0,120.0,0.0,64.0
2478,56.0,0.0,240.0,0.0,64.0
2479,80.0,120.0,120.0,0.0,64.0
2480,45.0,120.0,6000.0,0.0,64.0
2481,73.0,120.0,120.0,0.0,64.0
2482,85.0,120.0,120.0,0.0,64.0
2483,83.0,120.0,120.0,0.0,64.0
2484,69.0,0.0,240.0,0.0,64.0
2485,85.0,120.0,120.0,0.0,64.0
2486,73.0,120.0,240.0,0.0,64.0
2487,88.0,120.0,120.0,0.0,64.0
2488,85.0,0.0,120.0,0.0,64.0
2489,83.0,120.0,120.0,0.0,64.0
2490,76.0,0.0,240.0,0.0,64.0
2491,85.0,120.0,120.0,0.0,64.0
2492,81.0,120.0,120.0,0.0,64.0
2493,79.0,120.0,240.0,0.0,64.0
2494,85.0,0.0,120.0,0.0,64.0
2495,78.0,120.0,120.0,0.0,64.0
2496,88.0,120.0,360.0,0.0,64.0
2497,76.0,120.0,120.0,0.0,64.0
2498,78.0,0.0,240.0,0.0,64.0
2499,86.0,120.0,120.0,0.0,64.0
2500,74.0,120.0,240.0,0.0,64.0
2501,85.0,120.0,120.0,0.0,64.0
2502,86.0,0.0,120.0,0.0,64.0
2503,88.0,120.0,120.0,0.0,64.0
2504,69.0,0.0,240.0,0.0,64.0
2505,86.0,120.0,120.0,0.0,64.0
2506,74.0,0.0,240.0,0.0,64.0
2507,85.0,120.0,120.0,0.0,64.0
2508,86.0,120.0,120.0,0.0,64.0
2509,78.0,120.0,240.0,0.0,64.0
2510,81.0,120.0,120.0,0.0,64.0
2511,85.0,0.0,120.0,0.0,64.0
2512,86.0,120.0,360.0,0.0,64.0
2513,76.0,120.0,120.0,0.0,64.0
2514,74.0,120.0,120.0,0.0,64.0
2515,76.0,0.0,240.0,0.0,64.0
2516,85.0,120.0,120.0,0.0,64.0
2517,73.0,120.0,240.0,0.0,64.0
2518,83.0,120.0,120.0,0.0,64.0
2519,85.0,0.0,120.0,0.0,64.0
2520,69.0,0.0,240.0,0.0,64.0
2521,86.0,120.0,120.0,0.0,64.0
2522,85.0,120.0,120.0,0.0,64.0
2523,73.0,0.0,240.0,0.0,64.0
2524,83.0,120.0,120.0,0.0,64.0
2525,85.0,120.0,120.0,0.0,64.0
2526,76.0,120.0,240.0,0.0,64.0
2527,81.0,120.0,120.0,0.0,64.0
2528,83.0,0.0,120.0,0.0,64.0
2529,74.0,120.0,120.0,0.0,64.0
2530,85.0,120.0,360.0,0.0,64.0
2531,73.0,120.0,120.0,0.0,64.0
2532,74.0,0.0,240.0,0.0,64.0
2533,83.0,120.0,120.0,0.0,64.0
2534,81.0,120.0,120.0,0.0,64.0
2535,71.0,120.0,240.0,0.0,64.0
2536,83.0,0.0,120.0,0.0,64.0
2537,86.0,120.0,120.0,0.0,64.0
2538,68.0,120.0,240.0,0.0,64.0
2539,83.0,0.0,120.0,0.0,64.0
2540,81.0,120.0,120.0,0.0,64.0
2541,71.0,120.0,240.0,0.0,64.0
2542,83.0,0.0,120.0,0.0,64.0
2543,74.0,120.0,240.0,0.0,64.0
2544,80.0,120.0,120.0,0.0,64.0
2545,81.0,0.0,120.0,0.0,64.0
2546,73.0,120.0,120.0,0.0,64.0
2547,83.0,0.0,480.0,0.0,64.0
2548,71.0,120.0,120.0,0.0,64.0
2549,73.0,120.0,120.0,0.0,64.0
2550,69.0,0.0,120.0,0.0,64.0
2551,76.0,0.0,240.0,0.0,64.0
2552,68.0,120.0,120.0,0.0,64.0
2553,57.0,0.0,240.0,0.0,64.0
2554,69.0,120.0,120.0,0.0,64.0
2555,81.0,0.0,240.0,0.0,64.0
2556,54.0,120.0,240.0,0.0,64.0
2557,73.0,120.0,120.0,0.0,64.0
2558,69.0,0.0,120.0,0.0,64.0
2559,68.0,120.0,120.0,0.0,64.0
2560,85.0,120.0,480.0,0.0,64.0
2561,57.0,120.0,240.0,0.0,64.0
2562,69.0,0.0,120.0,0.0,64.0
2563,66.0,120.0,120.0,0.0,64.0
2564,51.0,0.0,240.0,0.0,64.0
2565,69.0,0.0,120.0,0.0,64.0
2566,63.0,120.0,120.0,0.0,64.0
2567,78.0,0.0,480.0,0.0,64.0
2568,54.0,120.0,240.0,0.0,64.0
2569,66.0,0.0,120.0,0.0,64.0
2570,59.0,120.0,120.0,0.0,64.0
2571,44.0,120.0,240.0,0.0,64.0
2572,68.0,0.0,120.0,0.0,64.0
2573,75.0,0.0,240.0,0.0,64.0
2574,66.0,120.0,120.0,0.0,64.0
2575,56.0,0.0,240.0,0.0,64.0
2576,68.0,120.0,120.0,0.0,64.0
2577,80.0,0.0,240.0,0.0,64.0
2578,71.0,120.0,120.0,0.0,64.0
2579,52.0,0.0,240.0,0.0,64.0
2580,68.0,120.0,120.0,0.0,64.0
2581,56.0,0.0,240.0,0.0,64.0
2582,66.0,120.0,120.0,0.0,64.0
2583,83.0,120.0,480.0,0.0,64.0
2584,68.0,120.0,120.0,0.0,64.0
2585,49.0,0.0,240.0,0.0,64.0
2586,64.0,120.0,120.0,0.0,64.0
2587,68.0,0.0,120.0,0.0,64.0
2588,76.0,0.0,480.0,0.0,64.0
2589,52.0,120.0,240.0,0.0,64.0
2590,61.0,120.0,120.0,0.0,64.0
2591,64.0,0.0,120.0,0.0,64.0
2592,57.0,120.0,120.0,0.0,64.0
2593,42.0,120.0,240.0,0.0,64.0
2594,66.0,0.0,120.0,0.0,64.0
2595,73.0,120.0,240.0,0.0,64.0
2596,64.0,120.0,120.0,0.0,64.0
2597,54.0,0.0,240.0,0.0,64.0
2598,66.0,0.0,120.0,0.0,64.0
2599,69.0,120.0,120.0,0.0,64.0
2600,78.0,0.0,240.0,0.0,64.0
2601,51.0,120.0,240.0,0.0,64.0
2602,66.0,0.0,120.0,0.0,64.0
2603,64.0,120.0,120.0,0.0,64.0
2604,81.0,0.0,480.0,0.0,64.0
2605,54.0,120.0,240.0,0.0,64.0
2606,66.0,0.0,120.0,0.0,64.0
2607,63.0,120.0,120.0,0.0,64.0
2608,47.0,0.0,240.0,0.0,64.0
2609,66.0,120.0,120.0,0.0,64.0
2610,51.0,0.0,240.0,0.0,64.0
2611,75.0,120.0,240.0,0.0,64.0
2612,59.0,120.0,120.0,0.0,64.0
2613,63.0,0.0,120.0,0.0,64.0
2614,56.0,120.0,120.0,0.0,64.0
2615,40.0,0.0,6000.0,0.0,64.0
2616,68.0,120.0,120.0,0.0,64.0
2617,66.0,120.0,120.0,0.0,64.0
2618,76.0,120.0,240.0,0.0,64.0
2619,68.0,0.0,120.0,0.0,64.0
2620,71.0,120.0,120.0,0.0,64.0
2621,80.0,0.0,240.0,0.0,64.0
2622,68.0,120.0,120.0,0.0,64.0
2623,66.0,120.0,120.0,0.0,64.0
2624,83.0,120.0,240.0,0.0,64.0
2625,68.0,0.0,120.0,0.0,64.0
2626,86.0,0.0,240.0,0.0,64.0
2627,64.0,120.0,120.0,0.0,64.0
2628,68.0,120.0,120.0,0.0,64.0
2629,85.0,120.0,120.0,0.0,64.0
2630,71.0,120.0,360.0,0.0,64.0
2631,83.0,120.0,120.0,0.0,64.0
2632,85.0,0.0,240.0,0.0,64.0
2633,69.0,120.0,120.0,0.0,64.0
2634,68.0,120.0,120.0,0.0,64.0
2635,81.0,120.0,240.0,0.0,64.0
2636,69.0,0.0,120.0,0.0,64.0
2637,71.0,120.0,120.0,0.0,64.0
2638,76.0,0.0,240.0,0.0,64.0
2639,69.0,120.0,120.0,0.0,64.0
2640,68.0,120.0,120.0,0.0,64.0
2641,81.0,120.0,240.0,0.0,64.0
2642,69.0,0.0,120.0,0.0,64.0
2643,64.0,120.0,120.0,0.0,64.0
2644,85.0,0.0,240.0,0.0,64.0
2645,68.0,120.0,120.0,0.0,64.0
2646,83.0,120.0,120.0,0.0,64.0
2647,69.0,120.0,360.0,0.0,64.0
2648,81.0,120.0,120.0,0.0,64.0
2649,83.0,0.0,240.0,0.0,64.0
2650,68.0,120.0,120.0,0.0,64.0
2651,80.0,0.0,240.0,0.0,64.0
2652,66.0,120.0,120.0,0.0,64.0
2653,68.0,120.0,120.0,0.0,64.0
2654,69.0,120.0,120.0,0.0,64.0
2655,76.0,0.0,240.0,0.0,64.0
2656,68.0,120.0,120.0,0.0,64.0
2657,80.0,0.0,240.0,0.0,64.0
2658,66.0,120.0,120.0,0.0,64.0
2659,68.0,120.0,120.0,0.0,64.0
2660,64.0,120.0,120.0,0.0,64.0
2661,83.0,120.0,240.0,0.0,64.0
2662,66.0,0.0,120.0,0.0,64.0
2663,68.0,120.0,360.0,0.0,64.0
2664,81.0,120.0,120.0,0.0,64.0
2665,80.0,120.0,120.0,0.0,64.0
2666,81.0,120.0,240.0,0.0,64.0
2667,66.0,0.0,120.0,0.0,64.0
2668,78.0,120.0,240.0,0.0,64.0
2669,64.0,120.0,120.0,0.0,64.0
2670,66.0,0.0,120.0,0.0,64.0
2671,75.0,0.0,240.0,0.0,64.0
2672,69.0,120.0,120.0,0.0,64.0
2673,66.0,120.0,120.0,0.0,64.0
2674,64.0,120.0,120.0,0.0,64.0
2675,78.0,0.0,240.0,0.0,64.0
2676,66.0,120.0,120.0,0.0,64.0
2677,81.0,120.0,120.0,0.0,64.0
2678,63.0,0.0,240.0,0.0,64.0
2679,80.0,120.0,120.0,0.0,64.0
2680,78.0,120.0,120.0,0.0,64.0
2681,75.0,0.0,240.0,0.0,64.0
2682,80.0,120.0,120.0,0.0,64.0
2683,76.0,120.0,120.0,0.0,64.0
2684,81.0,0.0,120.0,0.0,64.0
2685,71.0,0.0,120.0,0.0,64.0
2686,80.0,120.0,120.0,0.0,64.0
2687,47.0,120.0,240.0,0.0,64.0
2688,69.0,120.0,120.0,0.0,64.0
2689,78.0,0.0,120.0,0.0,64.0
2690,80.0,0.0,120.0,0.0,64.0
2691,71.0,0.0,120.0,0.0,64.0
2692,76.0,120.0,120.0,0.0,64.0
2693,49.0,120.0,240.0,0.0,64.0
2694,85.0,0.0,120.0,0.0,64.0
2695,51.0,120.0,240.0,0.0,64.0
2696,83.0,120.0,120.0,0.0,64.0
2697,81.0,0.0,120.0,0.0,64.0
2698,80.0,120.0,120.0,0.0,64.0
2699,52.0,0.0,240.0,0.0,64.0
2700,78.0,120.0,120.0,0.0,64.0
2701,44.0,120.0,240.0,0.0,64.0
2702,76.0,120.0,120.0,0.0,64.0
2703,74.0,0.0,120.0,0.0,64.0
2704,45.0,0.0,240.0,0.0,64.0
2705,73.0,120.0,120.0,0.0,64.0
2706,69.0,0.0,120.0,0.0,64.0
2707,74.0,120.0,120.0,0.0,64.0
2708,49.0,120.0,240.0,0.0,64.0
2709,68.0,120.0,120.0,0.0,64.0
2710,71.0,0.0,120.0,0.0,64.0
2711,69.0,0.0,120.0,0.0,64.0
2712,73.0,0.0,120.0,0.0,64.0
2713,69.0,120.0,120.0,0.0,64.0
2714,51.0,120.0,240.0,0.0,64.0
2715,83.0,0.0,120.0,0.0,64.0
2716,81.0,120.0,120.0,0.0,64.0
2717,52.0,0.0,240.0,0.0,64.0
2718,80.0,120.0,120.0,0.0,64.0
2719,78.0,120.0,120.0,0.0,64.0
2720,54.0,120.0,240.0,0.0,64.0
2721,76.0,0.0,120.0,0.0,64.0
2722,45.0,120.0,240.0,0.0,64.0
2723,75.0,120.0,120.0,0.0,64.0
2724,73.0,0.0,120.0,0.0,64.0
2725,71.0,0.0,120.0,0.0,64.0
2726,47.0,0.0,240.0,0.0,64.0
2727,73.0,0.0,120.0,0.0,64.0
2728,68.0,120.0,120.0,0.0,64.0
2729,51.0,0.0,240.0,0.0,64.0
2730,66.0,120.0,120.0,0.0,64.0
2731,69.0,0.0,120.0,0.0,64.0
2732,71.0,0.0,120.0,0.0,64.0
2733,68.0,120.0,15.0,0.0,64.0
2734,52.0,120.0,240.0,0.0,64.0
2735,81.0,0.0,120.0,0.0,64.0
2736,54.0,0.0,240.0,0.0,64.0
2737,80.0,120.0,120.0,0.0,64.0
2738,78.0,120.0,120.0,0.0,64.0
2739,76.0,120.0,120.0,0.0,64.0
2740,56.0,120.0,240.0,0.0,64.0
2741,75.0,0.0,120.0,0.0,64.0
2742,47.0,0.0,240.0,0.0,64.0
2743,73.0,120.0,120.0,0.0,64.0
2744,71.0,120.0,120.0,0.0,64.0
2745,49.0,0.0,240.0,0.0,64.0
2746,69.0,0.0,240.0,0.0,64.0
2747,75.0,120.0,120.0,0.0,64.0
2748,52.0,120.0,240.0,0.0,64.0
2749,73.0,120.0,120.0,0.0,64.0
2750,71.0,0.0,120.0,0.0,64.0
2751,69.0,120.0,120.0,0.0,64.0
2752,54.0,120.0,240.0,0.0,64.0
2753,68.0,0.0,120.0,0.0,64.0
2754,56.0,0.0,240.0,0.0,64.0
2755,78.0,0.0,480.0,0.0,64.0
2756,66.0,120.0,120.0,0.0,64.0
2757,64.0,120.0,120.0,0.0,64.0
2758,57.0,120.0,240.0,0.0,64.0
2759,63.0,120.0,120.0,0.0,64.0
2760,61.0,0.0,120.0,0.0,64.0
2761,81.0,120.0,360.0,0.0,64.0
2762,49.0,120.0,240.0,0.0,64.0
2763,59.0,120.0,120.0,0.0,64.0
2764,57.0,0.0,120.0,0.0,64.0
2765,51.0,0.0,240.0,0.0,64.0
2766,59.0,0.0,240.0,0.0,64.0
2767,76.0,120.0,120.0,0.0,64.0
2768,78.0,120.0,120.0,0.0,64.0
2769,47.0,0.0,240.0,0.0,64.0
2770,69.0,240.0,240.0,0.0,64.0
2771,75.0,0.0,120.0,0.0,64.0
2772,76.0,120.0,240.0,0.0,64.0
2773,68.0,0.0,240.0,0.0,64.0
2774,52.0,0.0,240.0,0.0,64.0
2775,73.0,120.0,120.0,0.0,64.0
2776,78.0,0.0,240.0,0.0,64.0
2777,57.0,0.0,240.0,0.0,64.0
2778,69.0,120.0,120.0,0.0,64.0
2779,59.0,0.0,240.0,0.0,64.0
2780,71.0,120.0,15.0,0.0,64.0
2781,68.0,120.0,120.0,0.0,64.0
2782,75.0,0.0,240.0,0.0,64.0
2783,47.0,0.0,240.0,0.0,64.0
2784,66.0,120.0,120.0,0.0,64.0
2785,64.0,480.0,15.0,0.0,64.0
2786,76.0,0.0,480.0,0.0,64.0
2787,52.0,0.0,480.0,0.0,64.0
2788,73.0,60.0,120.0,0.0,64.0
2789,49.0,0.0,480.0,0.0,64.0
2790,76.0,60.0,60.0,0.0,64.0
2791,80.0,240.0,60.0,0.0,64.0
2792,81.0,240.0,240.0,0.0,64.0
2793,61.0,240.0,240.0,0.0,64.0
2794,73.0,240.0,240.0,0.0,64.0
2795,63.0,240.0,480.0,0.0,64.0
2796,72.0,0.0,240.0,0.0,64.0
2797,51.0,120.0,240.0,0.0,64.0
2798,73.0,60.0,120.0,0.0,64.0
2799,52.0,0.0,480.0,0.0,64.0
2800,76.0,60.0,60.0,0.0,64.0
2801,80.0,120.0,60.0,0.0,64.0
2802,85.0,120.0,15.0,0.0,64.0
2803,54.0,120.0,240.0,0.0,64.0
2804,85.0,120.0,15.0,0.0,64.0
2805,85.0,120.0,15.0,0.0,64.0
2806,56.0,120.0,240.0,0.0,64.0
2807,83.0,60.0,60.0,0.0,64.0
2808,81.0,0.0,60.0,0.0,64.0
2809,54.0,120.0,240.0,0.0,64.0
2810,83.0,120.0,120.0,0.0,64.0
2811,74.0,0.0,120.0,0.0,64.0
2812,73.0,120.0,120.0,0.0,64.0
2813,53.0,120.0,240.0,0.0,64.0
2814,83.0,60.0,240.0,0.0,64.0
2815,54.0,120.0,240.0,0.0,64.0
2816,81.0,60.0,60.0,0.0,64.0
2817,80.0,0.0,60.0,0.0,64.0
2818,52.0,0.0,240.0,0.0,64.0
2819,81.0,120.0,120.0,0.0,64.0
2820,73.0,120.0,120.0,0.0,64.0
2821,51.0,0.0,240.0,0.0,64.0
2822,72.0,120.0,120.0,0.0,64.0
2823,81.0,60.0,120.0,0.0,64.0
2824,52.0,60.0,240.0,0.0,64.0
2825,80.0,60.0,60.0,0.0,64.0
2826,78.0,60.0,60.0,0.0,64.0
2827,81.0,60.0,60.0,0.0,64.0
2828,80.0,0.0,60.0,0.0,64.0
2829,54.0,0.0,240.0,0.0,64.0
2830,78.0,60.0,60.0,0.0,64.0
2831,76.0,60.0,60.0,0.0,64.0
2832,75.0,60.0,60.0,0.0,64.0
2833,73.0,60.0,60.0,0.0,64.0
2834,56.0,60.0,240.0,0.0,64.0
2835,72.0,60.0,60.0,0.0,64.0
2836,78.0,60.0,60.0,0.0,64.0
2837,76.0,60.0,60.0,0.0,64.0
2838,75.0,0.0,60.0,0.0,64.0
2839,76.0,60.0,60.0,0.0,64.0
2840,49.0,120.0,240.0,0.0,64.0
2841,75.0,120.0,60.0,0.0,64.0
2842,73.0,120.0,240.0,0.0,64.0
2843,61.0,120.0,240.0,0.0,64.0
2844,75.0,0.0,120.0,0.0,64.0
2845,59.0,0.0,240.0,0.0,64.0
2846,76.0,120.0,120.0,0.0,64.0
2847,77.0,120.0,120.0,0.0,64.0
2848,78.0,120.0,120.0,0.0,64.0
2849,58.0,60.0,240.0,0.0,64.0
2850,79.0,60.0,180.0,0.0,64.0
2851,63.0,60.0,240.0,0.0,64.0
2852,80.0,60.0,60.0,0.0,64.0
2853,82.0,60.0,60.0,0.0,64.0
2854,83.0,0.0,60.0,0.0,64.0
2855,85.0,60.0,60.0,0.0,64.0
2856,51.0,0.0,240.0,0.0,64.0
2857,83.0,60.0,60.0,0.0,64.0
2858,82.0,60.0,60.0,0.0,64.0
2859,85.0,120.0,60.0,0.0,64.0
2860,56.0,0.0,480.0,0.0,64.0
2861,68.0,60.0,120.0,0.0,64.0
2862,83.0,60.0,300.0,0.0,64.0
2863,71.0,60.0,60.0,0.0,64.0
2864,75.0,60.0,60.0,0.0,64.0
2865,76.0,0.0,240.0,0.0,64.0
2866,82.0,60.0,60.0,0.0,64.0
2867,80.0,60.0,60.0,0.0,64.0
2868,82.0,120.0,60.0,0.0,64.0
2869,83.0,120.0,120.0,0.0,64.0
2870,44.0,0.0,240.0,0.0,64.0
2871,84.0,240.0,120.0,0.0,64.0
2872,68.0,60.0,240.0,0.0,64.0
2873,85.0,60.0,300.0,0.0,64.0
2874,46.0,0.0,480.0,0.0,64.0
2875,67.0,120.0,240.0,0.0,64.0
2876,83.0,60.0,60.0,0.0,64.0
2877,82.0,60.0,60.0,0.0,64.0
2878,83.0,0.0,60.0,0.0,64.0
2879,85.0,120.0,120.0,0.0,64.0
2880,58.0,120.0,240.0,0.0,64.0
2881,86.0,0.0,120.0,0.0,64.0
2882,68.0,60.0,120.0,0.0,64.0
2883,59.0,60.0,480.0,0.0,64.0
2884,87.0,60.0,300.0,0.0,64.0
2885,71.0,60.0,60.0,0.0,64.0
2886,75.0,60.0,60.0,0.0,64.0
2887,85.0,0.0,60.0,0.0,64.0
2888,88.0,60.0,60.0,0.0,64.0
2889,80.0,60.0,15.0,0.0,64.0
2890,87.0,0.0,60.0,0.0,64.0
2891,61.0,120.0,240.0,0.0,64.0
2892,85.0,60.0,60.0,0.0,64.0
2893,80.0,0.0,15.0,0.0,64.0
2894,83.0,0.0,60.0,0.0,64.0
2895,80.0,60.0,15.0,0.0,64.0
2896,82.0,60.0,60.0,0.0,64.0
2897,80.0,0.0,60.0,0.0,64.0
2898,83.0,60.0,120.0,0.0,64.0
2899,63.0,0.0,240.0,0.0,64.0
2900,82.0,0.0,120.0,0.0,64.0
2901,78.0,60.0,60.0,0.0,64.0
2902,76.0,120.0,60.0,0.0,64.0
2903,61.0,120.0,240.0,0.0,64.0
2904,78.0,120.0,120.0,0.0,64.0
2905,69.0,0.0,120.0,0.0,64.0
2906,87.0,0.0,240.0,0.0,64.0
2907,60.0,120.0,240.0,0.0,64.0
2908,68.0,120.0,120.0,0.0,64.0
2909,78.0,60.0,240.0,0.0,64.0
2910,61.0,0.0,240.0,0.0,64.0
2911,80.0,0.0,240.0,0.0,64.0
2912,76.0,60.0,60.0,0.0,64.0
2913,75.0,120.0,60.0,0.0,64.0
2914,76.0,120.0,120.0,0.0,64.0
2915,59.0,120.0,240.0,0.0,64.0
2916,68.0,0.0,120.0,0.0,64.0
2917,58.0,0.0,240.0,0.0,64.0
2918,85.0,0.0,360.0,0.0,64.0
2919,67.0,120.0,120.0,0.0,64.0
2920,76.0,60.0,120.0,0.0,64.0
2921,59.0,0.0,240.0,0.0,64.0
2922,75.0,60.0,60.0,0.0,64.0
2923,73.0,60.0,60.0,0.0,64.0
2924,83.0,0.0,120.0,0.0,64.0
2925,76.0,60.0,60.0,0.0,64.0
2926,75.0,60.0,60.0,0.0,64.0
2927,73.0,60.0,60.0,0.0,64.0
2928,61.0,60.0,240.0,0.0,64.0
2929,82.0,0.0,60.0,0.0,64.0
2930,83.0,60.0,60.0,0.0,64.0
2931,71.0,0.0,60.0,0.0,64.0
2932,70.0,60.0,60.0,0.0,64.0
2933,85.0,60.0,240.0,0.0,64.0
2934,68.0,0.0,60.0,0.0,64.0
2935,67.0,60.0,60.0,0.0,64.0
2936,63.0,0.0,240.0,0.0,64.0
2937,73.0,0.0,60.0,0.0,64.0
2938,71.0,60.0,60.0,0.0,64.0
2939,79.0,60.0,120.0,0.0,64.0
2940,70.0,0.0,60.0,0.0,64.0
2941,80.0,0.0,60.0,0.0,64.0
2942,71.0,60.0,60.0,0.0,64.0
2943,56.0,120.0,240.0,0.0,64.0
2944,70.0,60.0,60.0,0.0,64.0
2945,82.0,0.0,60.0,0.0,64.0
2946,83.0,60.0,60.0,0.0,64.0
2947,68.0,120.0,240.0,0.0,64.0
2948,85.0,0.0,60.0,0.0,64.0
2949,86.0,0.0,240.0,0.0,64.0
2950,59.0,120.0,240.0,0.0,64.0
2951,66.0,0.0,120.0,0.0,64.0
2952,65.0,120.0,120.0,0.0,64.0
2953,61.0,0.0,240.0,0.0,64.0
2954,77.0,60.0,120.0,0.0,64.0
2955,71.0,0.0,120.0,0.0,64.0
2956,54.0,120.0,240.0,0.0,64.0
2957,69.0,60.0,60.0,0.0,64.0
2958,78.0,0.0,60.0,0.0,64.0
2959,80.0,60.0,60.0,0.0,64.0
2960,68.0,0.0,60.0,0.0,64.0
2961,81.0,60.0,60.0,0.0,64.0
2962,66.0,120.0,240.0,0.0,64.0
2963,83.0,0.0,60.0,0.0,64.0
2964,84.0,120.0,240.0,0.0,64.0
2965,57.0,0.0,240.0,0.0,64.0
2966,64.0,0.0,120.0,0.0,64.0
2967,59.0,60.0,240.0,0.0,64.0
2968,63.0,120.0,120.0,0.0,64.0
2969,75.0,0.0,120.0,0.0,64.0
2970,69.0,0.0,120.0,0.0,64.0
2971,68.0,60.0,60.0,0.0,64.0
2972,76.0,0.0,120.0,0.0,64.0
2973,52.0,0.0,240.0,0.0,64.0
2974,66.0,60.0,60.0,0.0,64.0
2975,64.0,60.0,240.0,0.0,64.0
2976,80.0,60.0,60.0,0.0,64.0
2977,83.0,120.0,60.0,0.0,64.0
2978,88.0,120.0,240.0,0.0,64.0
2979,51.0,0.0,240.0,0.0,64.0
2980,66.0,60.0,60.0,0.0,64.0
2981,68.0,0.0,60.0,0.0,64.0
2982,49.0,60.0,240.0,0.0,64.0
2983,69.0,60.0,120.0,0.0,64.0
2984,76.0,0.0,60.0,0.0,64.0
2985,78.0,60.0,60.0,0.0,64.0
2986,70.0,0.0,120.0,0.0,64.0
2987,80.0,0.0,60.0,0.0,64.0
2988,78.0,60.0,60.0,0.0,64.0
2989,71.0,60.0,120.0,0.0,64.0
2990,51.0,0.0,240.0,0.0,64.0
2991,76.0,0.0,60.0,0.0,64.0
2992,75.0,60.0,60.0,0.0,64.0
2993,72.0,60.0,180.0,0.0,64.0
2994,78.0,60.0,60.0,0.0,64.0
2995,56.0,0.0,240.0,0.0,64.0
2996,87.0,60.0,540.0,0.0,64.0
2997,73.0,60.0,60.0,0.0,64.0
2998,75.0,60.0,60.0,0.0,64.0
2999,76.0,60.0,60.0,0.0,64.0
3000,78.0,60.0,60.0,0.0,64.0
3001,44.0,60.0,240.0,0.0,64.0
3002,76.0,60.0,60.0,0.0,64.0
3003,75.0,60.0,60.0,0.0,64.0
3004,78.0,0.0,60.0,0.0,64.0
3005,76.0,0.0,240.0,0.0,64.0
3006,49.0,120.0,240.0,0.0,64.0
3007,80.0,60.0,60.0,0.0,64.0
3008,78.0,60.0,60.0,0.0,64.0
3009,80.0,0.0,60.0,0.0,64.0
3010,51.0,60.0,240.0,0.0,64.0
3011,85.0,120.0,120.0,0.0,64.0
3012,83.0,60.0,180.0,0.0,64.0
3013,53.0,60.0,240.0,0.0,64.0
3014,81.0,60.0,60.0,0.0,64.0
3015,80.0,60.0,60.0,0.0,64.0
3016,83.0,0.0,60.0,0.0,64.0
3017,81.0,120.0,240.0,0.0,64.0
3018,54.0,60.0,480.0,0.0,64.0
3019,73.0,60.0,60.0,0.0,64.0
3020,71.0,60.0,60.0,0.0,64.0
3021,73.0,0.0,60.0,0.0,64.0
3022,78.0,120.0,120.0,0.0,64.0
3023,76.0,60.0,180.0,0.0,64.0
3024,85.0,60.0,300.0,0.0,64.0
3025,74.0,60.0,60.0,0.0,64.0
3026,73.0,60.0,60.0,0.0,64.0
3027,76.0,60.0,60.0,0.0,64.0
3028,42.0,120.0,240.0,0.0,64.0
3029,74.0,0.0,240.0,0.0,64.0
3030,78.0,60.0,60.0,0.0,64.0
3031,77.0,60.0,60.0,0.0,64.0
3032,78.0,0.0,60.0,0.0,64.0
3033,83.0,180.0,120.0,0.0,64.0
3034,81.0,60.0,180.0,0.0,64.0
3035,54.0,0.0,480.0,0.0,64.0
3036,73.0,60.0,240.0,0.0,64.0
3037,80.0,60.0,60.0,0.0,64.0
3038,78.0,60.0,60.0,0.0,64.0
3039,81.0,0.0,60.0,0.0,64.0
3040,72.0,0.0,240.0,0.0,64.0
3041,75.0,60.0,60.0,0.0,64.0
3042,81.0,60.0,60.0,0.0,64.0
3043,80.0,60.0,60.0,0.0,64.0
3044,75.0,60.0,60.0,0.0,64.0
3045,76.0,60.0,60.0,0.0,64.0
3046,73.0,0.0,240.0,0.0,64.0
3047,52.0,60.0,240.0,0.0,64.0
3048,81.0,60.0,60.0,0.0,64.0
3049,80.0,60.0,60.0,0.0,64.0
3050,76.0,0.0,60.0,0.0,64.0
3051,75.0,0.0,240.0,0.0,64.0
3052,78.0,60.0,60.0,0.0,64.0
3053,48.0,60.0,240.0,0.0,64.0
3054,81.0,60.0,60.0,0.0,64.0
3055,80.0,60.0,60.0,0.0,64.0
3056,78.0,0.0,60.0,0.0,64.0
3057,76.0,60.0,60.0,0.0,64.0
3058,68.0,60.0,300.0,0.0,64.0
3059,49.0,60.0,240.0,0.0,64.0
3060,75.0,60.0,60.0,0.0,64.0
3061,73.0,60.0,60.0,0.0,64.0
3062,75.0,0.0,60.0,0.0,64.0
3063,47.0,120.0,240.0,0.0,64.0
3064,76.0,0.0,120.0,0.0,64.0
3065,66.0,60.0,60.0,0.0,64.0
3066,77.0,0.0,120.0,0.0,64.0
3067,68.0,60.0,60.0,0.0,64.0
3068,73.0,0.0,60.0,0.0,64.0
3069,61.0,0.0,540.0,0.0,64.0
3070,78.0,120.0,120.0,0.0,64.0
3071,45.0,60.0,240.0,0.0,64.0
3072,79.0,0.0,120.0,0.0,64.0
3073,52.0,60.0,120.0,0.0,64.0
3074,80.0,60.0,60.0,0.0,64.0
3075,78.0,0.0,60.0,0.0,64.0
3076,80.0,60.0,60.0,0.0,64.0
3077,54.0,30.0,120.0,0.0,64.0
3078,81.0,0.0,60.0,0.0,64.0
3079,75.0,30.0,30.0,0.0,64.0
3080,56.0,30.0,240.0,0.0,64.0
3081,76.0,60.0,30.0,0.0,64.0
3082,60.0,60.0,60.0,0.0,64.0
3083,75.0,60.0,300.0,0.0,64.0
3084,58.0,60.0,60.0,0.0,64.0
3085,44.0,60.0,240.0,0.0,64.0
3086,60.0,0.0,15.0,0.0,64.0
3087,61.0,60.0,30.0,0.0,64.0
3088,60.0,60.0,120.0,0.0,64.0
3089,73.0,0.0,15.0,0.0,64.0
3090,61.0,0.0,15.0,0.0,64.0
3091,49.0,0.0,480.0,0.0,64.0
3092,75.0,60.0,60.0,0.0,64.0
3093,76.0,60.0,60.0,0.0,64.0
3094,73.0,0.0,60.0,0.0,64.0
3095,72.0,60.0,60.0,0.0,64.0
3096,63.0,60.0,120.0,0.0,64.0
3097,73.0,0.0,15.0,0.0,64.0
3098,78.0,60.0,60.0,0.0,64.0
3099,73.0,0.0,60.0,0.0,64.0
3100,72.0,60.0,60.0,0.0,64.0
3101,64.0,60.0,120.0,0.0,64.0
3102,80.0,60.0,60.0,0.0,64.0
3103,73.0,0.0,15.0,0.0,64.0
3104,73.0,0.0,60.0,0.0,64.0
3105,66.0,60.0,120.0,0.0,64.0
3106,72.0,60.0,60.0,0.0,64.0
3107,73.0,0.0,15.0,0.0,64.0
3108,81.0,60.0,60.0,0.0,64.0
3109,73.0,0.0,60.0,0.0,64.0
3110,64.0,0.0,120.0,0.0,64.0
3111,72.0,60.0,60.0,0.0,64.0
3112,80.0,60.0,60.0,0.0,64.0
3113,73.0,60.0,15.0,0.0,64.0
3114,73.0,0.0,60.0,0.0,64.0
3115,72.0,60.0,60.0,0.0,64.0
3116,63.0,0.0,120.0,0.0,64.0
3117,78.0,60.0,60.0,0.0,64.0
3118,73.0,60.0,15.0,0.0,64.0
3119,75.0,0.0,60.0,0.0,64.0
3120,76.0,60.0,120.0,0.0,64.0
3121,61.0,60.0,60.0,0.0,64.0
3122,49.0,0.0,240.0,0.0,64.0
3123,63.0,0.0,60.0,0.0,64.0
3124,85.0,60.0,120.0,0.0,64.0
3125,64.0,60.0,60.0,0.0,64.0
3126,61.0,0.0,60.0,0.0,64.0
3127,75.0,60.0,120.0,0.0,64.0
3128,60.0,60.0,60.0,0.0,64.0
3129,61.0,0.0,60.0,0.0,64.0
3130,66.0,60.0,60.0,0.0,64.0
3131,85.0,60.0,120.0,0.0,64.0
3132,61.0,0.0,60.0,0.0,64.0
3133,76.0,60.0,120.0,0.0,64.0
3134,60.0,60.0,60.0,0.0,64.0
3135,61.0,0.0,60.0,0.0,64.0
3136,68.0,60.0,60.0,0.0,64.0
3137,85.0,0.0,120.0,0.0,64.0
3138,61.0,60.0,60.0,0.0,64.0
3139,78.0,60.0,120.0,0.0,64.0
3140,60.0,60.0,60.0,0.0,64.0
3141,61.0,0.0,60.0,0.0,64.0
3142,85.0,60.0,120.0,0.0,64.0
3143,69.0,60.0,60.0,0.0,64.0
3144,61.0,0.0,60.0,0.0,64.0
3145,76.0,60.0,120.0,0.0,64.0
3146,60.0,60.0,60.0,0.0,64.0
3147,61.0,0.0,60.0,0.0,64.0
3148,68.0,60.0,60.0,0.0,64.0
3149,85.0,0.0,120.0,0.0,64.0
3150,61.0,60.0,60.0,0.0,64.0
3151,75.0,60.0,120.0,0.0,64.0
3152,60.0,60.0,60.0,0.0,64.0
3153,61.0,0.0,60.0,0.0,64.0
3154,66.0,60.0,60.0,0.0,64.0
3155,85.0,60.0,120.0,0.0,64.0
3156,63.0,0.0,60.0,0.0,64.0
3157,64.0,60.0,60.0,0.0,64.0
3158,49.0,0.0,240.0,0.0,64.0
3159,73.0,60.0,120.0,0.0,64.0
3160,61.0,0.0,60.0,0.0,64.0
3161,63.0,60.0,60.0,0.0,64.0
3162,80.0,60.0,180.0,0.0,64.0
3163,64.0,60.0,60.0,0.0,64.0
3164,66.0,0.0,60.0,0.0,64.0
3165,51.0,0.0,240.0,0.0,64.0
3166,68.0,0.0,60.0,0.0,64.0
3167,78.0,60.0,60.0,0.0,64.0
3168,70.0,60.0,60.0,0.0,64.0
3169,76.0,0.0,60.0,0.0,64.0
3170,75.0,60.0,60.0,0.0,64.0
3171,72.0,0.0,60.0,0.0,64.0
3172,52.0,60.0,240.0,0.0,64.0
3173,73.0,60.0,60.0,0.0,64.0
3174,71.0,60.0,60.0,0.0,64.0
3175,70.0,60.0,60.0,0.0,64.0
3176,68.0,0.0,60.0,0.0,64.0
3177,54.0,0.0,240.0,0.0,64.0
3178,71.0,60.0,60.0,0.0,64.0
3179,70.0,60.0,60.0,0.0,64.0
3180,68.0,60.0,60.0,0.0,64.0
3181,76.0,60.0,240.0,0.0,64.0
3182,42.0,0.0,240.0,0.0,64.0
3183,70.0,0.0,15.0,0.0,64.0
3184,73.0,60.0,60.0,0.0,64.0
3185,66.0,60.0,60.0,0.0,64.0
3186,70.0,0.0,60.0,0.0,64.0
3187,61.0,60.0,60.0,0.0,64.0
3188,64.0,60.0,60.0,0.0,64.0
3189,63.0,60.0,60.0,0.0,64.0
3190,61.0,60.0,60.0,0.0,64.0
3191,63.0,60.0,60.0,0.0,64.0
3192,47.0,0.0,240.0,0.0,64.0
3193,59.0,60.0,60.0,0.0,64.0
3194,78.0,60.0,180.0,0.0,64.0
3195,61.0,60.0,60.0,0.0,64.0
3196,63.0,60.0,60.0,0.0,64.0
3197,64.0,0.0,60.0,0.0,64.0
3198,49.0,0.0,240.0,0.0,64.0
3199,66.0,60.0,60.0,0.0,64.0
3200,76.0,0.0,60.0,0.0,64.0
3201,68.0,0.0,60.0,0.0,64.0
3202,75.0,60.0,60.0,0.0,64.0
3203,69.0,0.0,60.0,0.0,64.0
3204,73.0,60.0,60.0,0.0,64.0
3205,51.0,0.0,240.0,0.0,64.0
3206,71.0,60.0,60.0,0.0,64.0
3207,69.0,60.0,60.0,0.0,64.0
3208,68.0,60.0,60.0,0.0,64.0
3209,66.0,60.0,60.0,0.0,64.0
3210,52.0,0.0,240.0,0.0,64.0
3211,69.0,60.0,60.0,0.0,64.0
3212,68.0,60.0,60.0,0.0,64.0
3213,66.0,60.0,60.0,0.0,64.0
3214,40.0,0.0,240.0,0.0,64.0
3215,74.0,0.0,240.0,0.0,64.0
3216,68.0,0.0,15.0,0.0,64.0
3217,71.0,60.0,60.0,0.0,64.0
3218,64.0,60.0,60.0,0.0,64.0
3219,68.0,60.0,60.0,0.0,64.0
3220,59.0,60.0,60.0,0.0,64.0
3221,62.0,60.0,60.0,0.0,64.0
3222,61.0,60.0,60.0,0.0,64.0
3223,59.0,120.0,60.0,0.0,64.0
3224,45.0,0.0,240.0,0.0,64.0
3225,61.0,120.0,240.0,0.0,64.0
3226,73.0,60.0,60.0,0.0,64.0
3227,71.0,60.0,60.0,0.0,64.0
3228,73.0,0.0,60.0,0.0,64.0
3229,78.0,0.0,120.0,0.0,64.0
3230,57.0,60.0,60.0,0.0,64.0
3231,56.0,60.0,60.0,0.0,64.0
3232,76.0,60.0,180.0,0.0,64.0
3233,57.0,60.0,60.0,0.0,64.0
3234,46.0,0.0,240.0,0.0,64.0
3235,61.0,60.0,120.0,0.0,64.0
3236,75.0,0.0,60.0,0.0,64.0
3237,73.0,60.0,60.0,0.0,64.0
3238,66.0,60.0,180.0,0.0,64.0
3239,76.0,60.0,60.0,0.0,64.0
3240,47.0,0.0,240.0,0.0,64.0
3241,75.0,0.0,240.0,0.0,64.0
3242,63.0,60.0,60.0,0.0,64.0
3243,61.0,60.0,60.0,0.0,64.0
3244,63.0,120.0,60.0,0.0,64.0
3245,68.0,60.0,120.0,0.0,64.0
3246,71.0,0.0,60.0,0.0,64.0
3247,70.0,60.0,60.0,0.0,64.0
3248,66.0,60.0,180.0,0.0,64.0
3249,71.0,60.0,60.0,0.0,64.0
3250,48.0,0.0,240.0,0.0,64.0
3251,75.0,60.0,120.0,0.0,64.0
3252,64.0,0.0,60.0,0.0,64.0
3253,63.0,60.0,60.0,0.0,64.0
3254,80.0,60.0,180.0,0.0,64.0
3255,66.0,60.0,60.0,0.0,64.0
3256,49.0,0.0,240.0,0.0,64.0
3257,64.0,120.0,240.0,0.0,64.0
3258,76.0,60.0,60.0,0.0,64.0
3259,75.0,60.0,60.0,0.0,64.0
3260,76.0,0.0,60.0,0.0,64.0
3261,81.0,0.0,120.0,0.0,64.0
3262,61.0,60.0,60.0,0.0,64.0
3263,80.0,60.0,180.0,0.0,64.0
3264,59.0,60.0,60.0,0.0,64.0
3265,61.0,60.0,15.0,0.0,64.0
3266,64.0,60.0,120.0,0.0,64.0
3267,78.0,0.0,60.0,0.0,64.0
3268,76.0,60.0,60.0,0.0,64.0
3269,69.0,60.0,180.0,0.0,64.0
3270,80.0,0.0,60.0,0.0,64.0
3271,78.0,120.0,240.0,0.0,64.0
3272,63.0,0.0,240.0,0.0,64.0
3273,66.0,60.0,60.0,0.0,64.0
3274,64.0,60.0,60.0,0.0,64.0
3275,66.0,0.0,60.0,0.0,64.0
3276,75.0,60.0,60.0,0.0,64.0
3277,73.0,0.0,15.0,0.0,64.0
3278,69.0,60.0,180.0,0.0,64.0
3279,75.0,60.0,60.0,0.0,64.0
3280,51.0,0.0,240.0,0.0,64.0
3281,78.0,0.0,120.0,0.0,64.0
3282,68.0,60.0,60.0,0.0,64.0
3283,83.0,60.0,240.0,0.0,64.0
3284,66.0,60.0,60.0,0.0,64.0
3285,69.0,60.0,60.0,0.0,64.0
3286,68.0,60.0,60.0,0.0,64.0
3287,52.0,0.0,240.0,0.0,64.0
3288,66.0,0.0,60.0,0.0,64.0
3289,88.0,0.0,120.0,0.0,64.0
3290,68.0,60.0,60.0,0.0,64.0
3291,64.0,60.0,60.0,0.0,64.0
3292,78.0,60.0,120.0,0.0,64.0
3293,63.0,60.0,60.0,0.0,64.0
3294,64.0,0.0,60.0,0.0,64.0
3295,88.0,0.0,120.0,0.0,64.0
3296,69.0,60.0,60.0,0.0,64.0
3297,64.0,60.0,60.0,0.0,64.0
3298,63.0,60.0,60.0,0.0,64.0
3299,80.0,0.0,120.0,0.0,64.0
3300,64.0,60.0,60.0,0.0,64.0
3301,71.0,60.0,60.0,0.0,64.0
3302,88.0,60.0,120.0,0.0,64.0
3303,64.0,0.0,60.0,0.0,64.0
3304,63.0,60.0,60.0,0.0,64.0
3305,81.0,60.0,120.0,0.0,64.0
3306,64.0,0.0,60.0,0.0,64.0
3307,73.0,60.0,60.0,0.0,64.0
3308,88.0,0.0,120.0,0.0,64.0
3309,64.0,60.0,60.0,0.0,64.0
3310,63.0,60.0,60.0,0.0,64.0
3311,80.0,0.0,120.0,0.0,64.0
3312,64.0,60.0,60.0,0.0,64.0
3313,71.0,60.0,60.0,0.0,64.0
3314,88.0,60.0,120.0,0.0,64.0
3315,64.0,0.0,60.0,0.0,64.0
3316,63.0,60.0,60.0,0.0,64.0
3317,78.0,60.0,120.0,0.0,64.0
3318,64.0,0.0,60.0,0.0,64.0
3319,88.0,0.0,120.0,0.0,64.0
3320,69.0,60.0,60.0,0.0,64.0
3321,66.0,60.0,60.0,0.0,64.0
3322,40.0,0.0,480.0,0.0,64.0
3323,68.0,0.0,120.0,0.0,64.0
3324,76.0,60.0,60.0,0.0,64.0
3325,78.0,60.0,60.0,0.0,64.0
3326,80.0,60.0,60.0,0.0,64.0
3327,76.0,0.0,60.0,0.0,64.0
3328,66.0,0.0,120.0,0.0,64.0
3329,75.0,60.0,60.0,0.0,64.0
3330,76.0,60.0,15.0,0.0,64.0
3331,81.0,60.0,60.0,0.0,64.0
3332,76.0,0.0,60.0,0.0,64.0
3333,68.0,60.0,120.0,0.0,64.0
3334,75.0,60.0,60.0,0.0,64.0
3335,76.0,0.0,15.0,0.0,64.0
3336,83.0,60.0,60.0,0.0,64.0
3337,76.0,0.0,60.0,0.0,64.0
3338,69.0,0.0,120.0,0.0,64.0
3339,75.0,60.0,60.0,0.0,64.0
3340,76.0,60.0,15.0,0.0,64.0
3341,85.0,60.0,60.0,0.0,64.0
3342,76.0,0.0,60.0,0.0,64.0
3343,75.0,60.0,60.0,0.0,64.0
3344,68.0,60.0,120.0,0.0,64.0
3345,83.0,60.0,60.0,0.0,64.0
3346,76.0,0.0,15.0,0.0,64.0
3347,76.0,0.0,60.0,0.0,64.0
3348,66.0,0.0,120.0,0.0,64.0
3349,75.0,60.0,60.0,0.0,64.0
3350,76.0,60.0,15.0,0.0,64.0
3351,81.0,60.0,60.0,0.0,64.0
3352,78.0,0.0,60.0,0.0,64.0
3353,80.0,60.0,300.0,0.0,64.0
3354,64.0,60.0,120.0,0.0,64.0
3355,52.0,0.0,480.0,0.0,64.0
3356,68.0,60.0,60.0,0.0,64.0
3357,71.0,60.0,60.0,0.0,64.0
3358,73.0,60.0,240.0,0.0,64.0
3359,78.0,60.0,60.0,0.0,64.0
3360,76.0,60.0,60.0,0.0,64.0
3361,78.0,0.0,60.0,0.0,64.0
3362,80.0,60.0,60.0,0.0,64.0
3363,40.0,240.0,240.0,0.0,64.0
3364,81.0,60.0,60.0,0.0,64.0
3365,83.0,60.0,60.0,0.0,64.0
3366,85.0,0.0,60.0,0.0,64.0
3367,81.0,60.0,300.0,0.0,64.0
3368,42.0,0.0,480.0,0.0,64.0
3369,64.0,60.0,240.0,0.0,64.0
3370,63.0,0.0,240.0,0.0,64.0
3371,80.0,60.0,60.0,0.0,64.0
3372,78.0,60.0,60.0,0.0,64.0
3373,80.0,60.0,60.0,0.0,64.0
3374,81.0,60.0,60.0,0.0,64.0
3375,54.0,120.0,240.0,0.0,64.0
3376,83.0,60.0,60.0,0.0,64.0
3377,85.0,60.0,60.0,0.0,64.0
3378,87.0,0.0,60.0,0.0,64.0
3379,64.0,60.0,120.0,0.0,64.0
3380,83.0,60.0,300.0,0.0,64.0
3381,56.0,0.0,480.0,0.0,64.0
3382,68.0,60.0,60.0,0.0,64.0
3383,71.0,60.0,60.0,0.0,64.0
3384,81.0,60.0,60.0,0.0,64.0
3385,76.0,0.0,15.0,0.0,64.0
3386,85.0,60.0,60.0,0.0,64.0
3387,83.0,0.0,60.0,0.0,64.0
3388,57.0,120.0,240.0,0.0,64.0
3389,76.0,60.0,15.0,0.0,64.0
3390,81.0,60.0,60.0,0.0,64.0
3391,80.0,60.0,60.0,0.0,64.0
3392,76.0,0.0,15.0,0.0,64.0
3393,78.0,60.0,60.0,0.0,64.0
3394,76.0,0.0,60.0,0.0,64.0
3395,80.0,60.0,120.0,0.0,64.0
3396,59.0,0.0,240.0,0.0,64.0
3397,78.0,120.0,120.0,0.0,64.0
3398,75.0,60.0,60.0,0.0,64.0
3399,73.0,0.0,60.0,0.0,64.0
3400,75.0,120.0,120.0,0.0,64.0
3401,57.0,120.0,240.0,0.0,64.0
3402,66.0,0.0,120.0,0.0,64.0
3403,83.0,0.0,240.0,0.0,64.0
3404,64.0,120.0,120.0,0.0,64.0
3405,56.0,120.0,240.0,0.0,64.0
3406,74.0,60.0,240.0,0.0,64.0
3407,76.0,0.0,240.0,0.0,64.0
3408,57.0,120.0,240.0,0.0,64.0
3409,73.0,60.0,60.0,0.0,64.0
3410,71.0,0.0,60.0,0.0,64.0
3411,73.0,120.0,120.0,0.0,64.0
3412,56.0,0.0,240.0,0.0,64.0
3413,64.0,120.0,120.0,0.0,64.0
3414,63.0,120.0,120.0,0.0,64.0
3415,81.0,0.0,360.0,0.0,64.0
3416,54.0,0.0,240.0,0.0,64.0
3417,73.0,60.0,120.0,0.0,64.0
3418,71.0,60.0,60.0,0.0,64.0
3419,56.0,0.0,240.0,0.0,64.0
3420,69.0,60.0,60.0,0.0,64.0
3421,80.0,0.0,120.0,0.0,64.0
3422,73.0,60.0,60.0,0.0,64.0
3423,71.0,60.0,60.0,0.0,64.0
3424,78.0,0.0,60.0,0.0,64.0
3425,57.0,60.0,240.0,0.0,64.0
3426,69.0,60.0,60.0,0.0,64.0
3427,68.0,60.0,60.0,0.0,64.0
3428,80.0,0.0,60.0,0.0,64.0
3429,66.0,60.0,60.0,0.0,64.0
3430,81.0,60.0,240.0,0.0,64.0
3431,64.0,0.0,60.0,0.0,64.0
3432,59.0,0.0,240.0,0.0,64.0
3433,63.0,60.0,60.0,0.0,64.0
3434,69.0,0.0,60.0,0.0,64.0
3435,68.0,60.0,60.0,0.0,64.0
3436,75.0,60.0,120.0,0.0,64.0
3437,66.0,0.0,60.0,0.0,64.0
3438,76.0,0.0,240.0,0.0,64.0
3439,52.0,120.0,240.0,0.0,64.0
3440,68.0,60.0,60.0,0.0,64.0
3441,66.0,120.0,60.0,0.0,64.0
3442,64.0,120.0,120.0,0.0,64.0
3443,66.0,0.0,120.0,0.0,64.0
3444,67.0,120.0,120.0,0.0,64.0
3445,62.0,0.0,240.0,0.0,64.0
3446,68.0,120.0,120.0,0.0,64.0
3447,69.0,120.0,120.0,0.0,64.0
3448,61.0,60.0,240.0,0.0,64.0
3449,70.0,60.0,180.0,0.0,64.0
3450,66.0,0.0,240.0,0.0,64.0
3451,71.0,60.0,60.0,0.0,64.0
3452,73.0,60.0,60.0,0.0,64.0
3453,75.0,60.0,60.0,0.0,64.0
3454,54.0,0.0,240.0,0.0,64.0
3455,76.0,60.0,60.0,0.0,64.0
3456,75.0,60.0,60.0,0.0,64.0
3457,73.0,60.0,60.0,0.0,64.0
3458,76.0,120.0,60.0,0.0,64.0
3459,71.0,60.0,120.0,0.0,64.0
3460,59.0,0.0,480.0,0.0,64.0
3461,75.0,60.0,60.0,0.0,64.0
3462,78.0,60.0,60.0,0.0,64.0
3463,80.0,0.0,240.0,0.0,64.0
3464,73.0,60.0,60.0,0.0,64.0
3465,71.0,60.0,60.0,0.0,64.0
3466,73.0,60.0,60.0,0.0,64.0
3467,75.0,60.0,60.0,0.0,64.0
3468,47.0,0.0,240.0,0.0,64.0
3469,76.0,60.0,60.0,0.0,64.0
3470,78.0,60.0,60.0,0.0,64.0
3471,80.0,240.0,60.0,0.0,64.0
3472,49.0,60.0,480.0,0.0,64.0
3473,76.0,60.0,300.0,0.0,64.0
3474,71.0,60.0,240.0,0.0,64.0
3475,70.0,0.0,240.0,0.0,64.0
3476,75.0,60.0,60.0,0.0,64.0
3477,73.0,60.0,60.0,0.0,64.0
3478,75.0,0.0,60.0,0.0,64.0
3479,61.0,120.0,240.0,0.0,64.0
3480,76.0,60.0,60.0,0.0,64.0
3481,78.0,60.0,60.0,0.0,64.0
3482,80.0,60.0,60.0,0.0,64.0
3483,82.0,0.0,60.0,0.0,64.0
3484,71.0,60.0,120.0,0.0,64.0
3485,63.0,0.0,240.0,0.0,64.0
3486,75.0,60.0,60.0,0.0,64.0
3487,51.0,60.0,240.0,0.0,64.0
3488,78.0,0.0,15.0,0.0,64.0
3489,76.0,0.0,60.0,0.0,64.0
3490,83.0,60.0,15.0,0.0,64.0
3491,80.0,60.0,60.0,0.0,64.0
3492,78.0,0.0,60.0,0.0,64.0
3493,83.0,0.0,15.0,0.0,64.0
3494,76.0,60.0,60.0,0.0,64.0
3495,52.0,0.0,240.0,0.0,64.0
3496,75.0,0.0,60.0,0.0,64.0
3497,73.0,60.0,60.0,0.0,64.0
3498,83.0,60.0,15.0,0.0,64.0
3499,71.0,120.0,60.0,0.0,64.0
3500,75.0,0.0,120.0,0.0,64.0
3501,54.0,0.0,240.0,0.0,64.0
3502,73.0,120.0,120.0,0.0,64.0
3503,82.0,60.0,60.0,0.0,64.0
3504,80.0,0.0,60.0,0.0,64.0
3505,52.0,120.0,240.0,0.0,64.0
3506,82.0,120.0,120.0,0.0,64.0
3507,73.0,0.0,120.0,0.0,64.0
3508,71.0,120.0,120.0,0.0,64.0
3509,78.0,0.0,240.0,0.0,64.0
3510,51.0,120.0,240.0,0.0,64.0
3511,81.0,60.0,240.0,0.0,64.0
3512,52.0,0.0,240.0,0.0,64.0
3513,71.0,120.0,240.0,0.0,64.0
3514,80.0,60.0,60.0,0.0,64.0
3515,78.0,0.0,60.0,0.0,64.0
3516,80.0,120.0,120.0,0.0,64.0
3517,51.0,120.0,240.0,0.0,64.0
3518,71.0,0.0,120.0,0.0,64.0
3519,70.0,120.0,120.0,0.0,64.0
3520,49.0,0.0,240.0,0.0,64.0
3521,80.0,60.0,120.0,0.0,64.0
3522,78.0,60.0,60.0,0.0,64.0
3523,51.0,0.0,240.0,0.0,64.0
3524,76.0,0.0,60.0,0.0,64.0
3525,80.0,60.0,60.0,0.0,64.0
3526,75.0,0.0,120.0,0.0,64.0
3527,78.0,60.0,60.0,0.0,64.0
3528,73.0,60.0,60.0,0.0,64.0
3529,76.0,0.0,60.0,0.0,64.0
3530,52.0,0.0,240.0,0.0,64.0
3531,75.0,0.0,60.0,0.0,64.0
3532,73.0,60.0,60.0,0.0,64.0
3533,71.0,60.0,60.0,0.0,64.0
3534,70.0,60.0,60.0,0.0,64.0
3535,54.0,60.0,240.0,0.0,64.0
3536,76.0,0.0,60.0,0.0,64.0
3537,70.0,0.0,120.0,0.0,64.0
3538,75.0,60.0,60.0,0.0,64.0
3539,73.0,0.0,60.0,0.0,64.0
3540,75.0,60.0,60.0,0.0,64.0
3541,47.0,0.0,240.0,0.0,64.0
3542,73.0,120.0,60.0,0.0,64.0
3543,71.0,120.0,120.0,0.0,64.0
3544,59.0,120.0,240.0,0.0,64.0
3545,73.0,0.0,120.0,0.0,64.0
3546,57.0,0.0,240.0,0.0,64.0
3547,74.0,120.0,120.0,0.0,64.0
3548,75.0,120.0,120.0,0.0,64.0
3549,56.0,60.0,240.0,0.0,64.0
3550,76.0,120.0,120.0,0.0,64.0
3551,77.0,60.0,180.0,0.0,64.0
3552,61.0,60.0,240.0,0.0,64.0
3553,78.0,60.0,60.0,0.0,64.0
3554,80.0,60.0,60.0,0.0,64.0
3555,81.0,0.0,60.0,0.0,64.0
3556,83.0,60.0,60.0,0.0,64.0
3557,49.0,60.0,240.0,0.0,64.0
3558,81.0,60.0,60.0,0.0,64.0
3559,80.0,60.0,60.0,0.0,64.0
3560,83.0,0.0,60.0,0.0,64.0
3561,81.0,60.0,60.0,0.0,64.0
3562,54.0,60.0,240.0,0.0,64.0
3563,66.0,60.0,60.0,0.0,64.0
3564,68.0,60.0,60.0,0.0,64.0
3565,69.0,0.0,60.0,0.0,64.0
3566,56.0,0.0,240.0,0.0,64.0
3567,71.0,60.0,15.0,0.0,64.0
3568,73.0,0.0,15.0,0.0,64.0
3569,69.0,0.0,60.0,0.0,64.0
3570,75.0,60.0,60.0,0.0,64.0
3571,68.0,60.0,60.0,0.0,64.0
3572,77.0,0.0,60.0,0.0,64.0
3573,78.0,60.0,300.0,0.0,64.0
3574,57.0,0.0,240.0,0.0,64.0
3575,66.0,60.0,60.0,0.0,64.0
3576,64.0,60.0,60.0,0.0,64.0
3577,62.0,60.0,60.0,0.0,64.0
3578,61.0,60.0,60.0,0.0,64.0
3579,59.0,0.0,240.0,0.0,64.0
3580,62.0,60.0,240.0,0.0,64.0
3581,76.0,60.0,60.0,0.0,64.0
3582,74.0,60.0,60.0,0.0,64.0
3583,73.0,0.0,60.0,0.0,64.0
3584,74.0,60.0,60.0,0.0,64.0
3585,47.0,0.0,240.0,0.0,64.0
3586,69.0,60.0,240.0,0.0,64.0
3587,78.0,60.0,60.0,0.0,64.0
3588,71.0,60.0,60.0,0.0,64.0
3589,74.0,0.0,60.0,0.0,64.0
3590,66.0,60.0,60.0,0.0,64.0
3591,69.0,60.0,60.0,0.0,64.0
3592,68.0,60.0,60.0,0.0,64.0
3593,66.0,60.0,60.0,0.0,64.0
3594,68.0,60.0,60.0,0.0,64.0
3595,52.0,0.0,240.0,0.0,64.0
3596,64.0,60.0,60.0,0.0,64.0
3597,66.0,60.0,60.0,0.0,64.0
3598,68.0,60.0,60.0,0.0,64.0
3599,54.0,0.0,240.0,0.0,64.0
3600,71.0,60.0,15.0,0.0,64.0
3601,69.0,0.0,15.0,0.0,64.0
3602,68.0,0.0,60.0,0.0,64.0
3603,73.0,60.0,60.0,0.0,64.0
3604,75.0,60.0,60.0,0.0,64.0
3605,66.0,0.0,60.0,0.0,64.0
3606,64.0,60.0,60.0,0.0,64.0
3607,76.0,60.0,300.0,0.0,64.0
3608,56.0,60.0,240.0,0.0,64.0
3609,62.0,60.0,60.0,0.0,64.0
3610,61.0,60.0,60.0,0.0,64.0
3611,59.0,0.0,60.0,0.0,64.0
3612,57.0,0.0,240.0,0.0,64.0
3613,61.0,0.0,240.0,0.0,64.0
3614,74.0,60.0,60.0,0.0,64.0
3615,73.0,60.0,60.0,0.0,64.0
3616,71.0,60.0,60.0,0.0,64.0
3617,73.0,60.0,60.0,0.0,64.0
3618,45.0,0.0,240.0,0.0,64.0
3619,67.0,0.0,240.0,0.0,64.0
3620,76.0,60.0,60.0,0.0,64.0
3621,69.0,60.0,60.0,0.0,64.0
3622,73.0,60.0,60.0,0.0,64.0
3623,64.0,60.0,60.0,0.0,64.0
3624,67.0,60.0,60.0,0.0,64.0
3625,66.0,60.0,60.0,0.0,64.0
3626,64.0,120.0,60.0,0.0,64.0
3627,50.0,120.0,240.0,0.0,64.0
3628,66.0,60.0,60.0,0.0,64.0
3629,64.0,60.0,60.0,0.0,64.0
3630,66.0,0.0,60.0,0.0,64.0
3631,71.0,60.0,120.0,0.0,64.0
3632,74.0,0.0,60.0,0.0,64.0
3633,69.0,60.0,180.0,0.0,64.0
3634,73.0,60.0,60.0,0.0,64.0
3635,74.0,60.0,60.0,0.0,64.0
3636,51.0,60.0,240.0,0.0,64.0
3637,78.0,60.0,120.0,0.0,64.0
3638,68.0,0.0,60.0,0.0,64.0
3639,83.0,60.0,180.0,0.0,64.0
3640,66.0,60.0,60.0,0.0,64.0
3641,69.0,0.0,60.0,0.0,64.0
3642,68.0,120.0,240.0,0.0,64.0
3643,52.0,0.0,240.0,0.0,64.0
3644,80.0,60.0,60.0,0.0,64.0
3645,78.0,60.0,60.0,0.0,64.0
3646,80.0,0.0,60.0,0.0,64.0
3647,85.0,0.0,120.0,0.0,64.0
3648,64.0,60.0,60.0,0.0,64.0
3649,83.0,60.0,180.0,0.0,64.0
3650,63.0,60.0,60.0,0.0,64.0
3651,64.0,60.0,60.0,0.0,64.0
3652,68.0,0.0,120.0,0.0,64.0
3653,53.0,0.0,240.0,0.0,64.0
3654,81.0,60.0,60.0,0.0,64.0
3655,80.0,60.0,60.0,0.0,64.0
3656,73.0,60.0,180.0,0.0,64.0
3657,83.0,60.0,60.0,0.0,64.0
3658,81.0,60.0,780.0,0.0,64.0
3659,54.0,0.0,240.0,0.0,64.0
3660,69.0,60.0,60.0,0.0,64.0
3661,68.0,60.0,60.0,0.0,64.0
3662,69.0,120.0,60.0,0.0,64.0
3663,74.0,180.0,120.0,0.0,64.0
3664,73.0,60.0,180.0,0.0,64.0
3665,52.0,0.0,240.0,0.0,64.0
3666,71.0,60.0,60.0,0.0,64.0
3667,69.0,60.0,60.0,0.0,64.0
3668,73.0,60.0,60.0,0.0,64.0
3669,50.0,0.0,240.0,0.0,64.0
3670,71.0,60.0,780.0,0.0,64.0
3671,78.0,60.0,60.0,0.0,64.0
3672,77.0,60.0,60.0,0.0,64.0
3673,78.0,120.0,60.0,0.0,64.0
3674,83.0,180.0,120.0,0.0,64.0
3675,81.0,60.0,180.0,0.0,64.0
3676,62.0,60.0,240.0,0.0,64.0
3677,80.0,60.0,60.0,0.0,64.0
3678,78.0,60.0,60.0,0.0,64.0
3679,80.0,0.0,60.0,0.0,64.0
3680,61.0,0.0,480.0,0.0,64.0
3681,77.0,60.0,120.0,0.0,64.0
3682,73.0,0.0,60.0,0.0,64.0
3683,85.0,60.0,120.0,0.0,64.0
3684,71.0,60.0,60.0,0.0,64.0
3685,68.0,0.0,60.0,0.0,64.0
3686,69.0,60.0,60.0,0.0,64.0
3687,78.0,0.0,120.0,0.0,64.0
3688,73.0,60.0,60.0,0.0,64.0
3689,85.0,60.0,120.0,0.0,64.0
3690,71.0,60.0,60.0,0.0,64.0
3691,66.0,0.0,60.0,0.0,64.0
3692,80.0,60.0,120.0,0.0,64.0
3693,65.0,60.0,60.0,0.0,64.0
3694,68.0,0.0,60.0,0.0,64.0
3695,85.0,0.0,120.0,0.0,64.0
3696,65.0,60.0,60.0,0.0,64.0
3697,61.0,60.0,60.0,0.0,64.0
3698,66.0,60.0,60.0,0.0,64.0
3699,81.0,0.0,120.0,0.0,64.0
3700,68.0,60.0,60.0,0.0,64.0
3701,85.0,0.0,120.0,0.0,64.0
3702,66.0,60.0,60.0,0.0,64.0
3703,61.0,60.0,60.0,0.0,64.0
3704,68.0,60.0,60.0,0.0,64.0
3705,83.0,0.0,120.0,0.0,64.0
3706,69.0,60.0,60.0,0.0,64.0
3707,85.0,60.0,120.0,0.0,64.0
3708,68.0,60.0,60.0,0.0,64.0
3709,61.0,0.0,60.0,0.0,64.0
3710,81.0,60.0,120.0,0.0,64.0
3711,66.0,60.0,60.0,0.0,64.0
3712,68.0,0.0,60.0,0.0,64.0
3713,66.0,60.0,60.0,0.0,64.0
3714,85.0,60.0,120.0,0.0,64.0
3715,61.0,0.0,60.0,0.0,64.0
3716,65.0,0.0,120.0,0.0,64.0
3717,80.0,60.0,60.0,0.0,64.0
3718,49.0,0.0,480.0,0.0,64.0
3719,85.0,60.0,60.0,0.0,64.0
3720,73.0,0.0,120.0,0.0,64.0
3721,83.0,60.0,60.0,0.0,64.0
3722,80.0,60.0,60.0,0.0,64.0
3723,66.0,60.0,120.0,0.0,64.0
3724,81.0,60.0,60.0,0.0,64.0
3725,85.0,0.0,60.0,0.0,64.0
3726,81.0,60.0,60.0,0.0,64.0
3727,73.0,60.0,120.0,0.0,64.0
3728,78.0,0.0,60.0,0.0,64.0
3729,77.0,60.0,60.0,0.0,64.0
3730,68.0,0.0,120.0,0.0,64.0
3731,80.0,60.0,60.0,0.0,64.0
3732,77.0,60.0,60.0,0.0,64.0
3733,73.0,0.0,60.0,0.0,64.0
3734,78.0,60.0,60.0,0.0,64.0
3735,69.0,60.0,120.0,0.0,64.0
3736,80.0,0.0,60.0,0.0,64.0
3737,78.0,60.0,60.0,0.0,64.0
3738,73.0,0.0,60.0,0.0,64.0
3739,71.0,0.0,120.0,0.0,64.0
3740,80.0,60.0,60.0,0.0,64.0
3741,81.0,60.0,60.0,0.0,64.0
3742,80.0,60.0,60.0,0.0,64.0
3743,73.0,0.0,60.0,0.0,64.0
3744,78.0,60.0,60.0,0.0,64.0
3745,69.0,0.0,120.0,0.0,64.0
3746,80.0,60.0,60.0,0.0,64.0
3747,78.0,60.0,60.0,0.0,64.0
3748,73.0,0.0,60.0,0.0,64.0
3749,77.0,60.0,60.0,0.0,64.0
3750,68.0,60.0,180.0,0.0,64.0
3751,61.0,0.0,240.0,0.0,64.0
3752,75.0,60.0,60.0,0.0,64.0
3753,73.0,60.0,420.0,0.0,64.0
3754,69.0,60.0,60.0,0.0,64.0
3755,68.0,60.0,60.0,0.0,64.0
3756,59.0,0.0,240.0,0.0,64.0
3757,66.0,60.0,60.0,0.0,64.0
3758,65.0,60.0,60.0,0.0,64.0
3759,63.0,60.0,60.0,0.0,64.0
3760,61.0,0.0,240.0,0.0,64.0
3761,57.0,0.0,240.0,0.0,64.0
3762,71.0,60.0,60.0,0.0,64.0
3763,73.0,60.0,60.0,0.0,64.0
3764,75.0,120.0,60.0,0.0,64.0
3765,56.0,60.0,240.0,0.0,64.0
3766,76.0,120.0,120.0,0.0,64.0
3767,77.0,60.0,180.0,0.0,64.0
3768,68.0,60.0,540.0,0.0,64.0
3769,61.0,60.0,240.0,0.0,64.0
3770,78.0,60.0,60.0,0.0,64.0
3771,80.0,60.0,60.0,0.0,64.0
3772,81.0,0.0,60.0,0.0,64.0
3773,83.0,60.0,60.0,0.0,64.0
3774,49.0,0.0,240.0,0.0,64.0
3775,81.0,60.0,60.0,0.0,64.0
3776,80.0,60.0,60.0,0.0,64.0
3777,83.0,60.0,60.0,0.0,64.0
3778,54.0,0.0,240.0,0.0,64.0
3779,81.0,120.0,240.0,0.0,64.0
3780,61.0,60.0,60.0,0.0,64.0
3781,59.0,60.0,60.0,0.0,64.0
3782,61.0,0.0,60.0,0.0,64.0
3783,66.0,120.0,120.0,0.0,64.0
3784,56.0,60.0,240.0,0.0,64.0
3785,64.0,60.0,180.0,0.0,64.0
3786,85.0,60.0,300.0,0.0,64.0
3787,58.0,0.0,240.0,0.0,64.0
3788,62.0,60.0,60.0,0.0,64.0
3789,61.0,60.0,60.0,0.0,64.0
3790,64.0,60.0,60.0,0.0,64.0
3791,59.0,60.0,480.0,0.0,64.0
3792,62.0,0.0,240.0,0.0,64.0
3793,78.0,60.0,60.0,0.0,64.0
3794,77.0,60.0,60.0,0.0,64.0
3795,78.0,120.0,60.0,0.0,64.0
3796,83.0,120.0,120.0,0.0,64.0
3797,81.0,60.0,180.0,0.0,64.0
3798,66.0,60.0,300.0,0.0,64.0
3799,79.0,60.0,60.0,0.0,64.0
3800,78.0,60.0,60.0,0.0,64.0
3801,81.0,60.0,60.0,0.0,64.0
3802,79.0,0.0,240.0,0.0,64.0
3803,47.0,0.0,240.0,0.0,64.0
3804,59.0,60.0,60.0,0.0,64.0
3805,58.0,60.0,60.0,0.0,64.0
3806,59.0,120.0,60.0,0.0,64.0
3807,64.0,180.0,120.0,0.0,64.0
3808,62.0,60.0,180.0,0.0,64.0
3809,78.0,60.0,240.0,0.0,64.0
3810,61.0,60.0,60.0,0.0,64.0
3811,59.0,60.0,60.0,0.0,64.0
3812,62.0,0.0,60.0,0.0,64.0
3813,77.0,30.0,240.0,0.0,64.0
3814,56.0,60.0,60.0,0.0,64.0
3815,62.0,60.0,60.0,0.0,64.0
3816,61.0,60.0,60.0,0.0,64.0
3817,56.0,0.0,60.0,0.0,64.0
3818,57.0,0.0,60.0,0.0,64.0
3819,78.0,30.0,30.0,0.0,64.0
3820,80.0,60.0,30.0,0.0,64.0
3821,78.0,60.0,180.0,0.0,64.0
3822,62.0,60.0,60.0,0.0,64.0
3823,61.0,60.0,60.0,0.0,64.0
3824,57.0,0.0,60.0,0.0,64.0
3825,53.0,0.0,240.0,0.0,64.0
3826,59.0,60.0,60.0,0.0,64.0
3827,80.0,0.0,240.0,0.0,64.0
3828,62.0,60.0,60.0,0.0,64.0
3829,61.0,60.0,60.0,0.0,64.0
3830,59.0,60.0,60.0,0.0,64.0
3831,73.0,60.0,300.0,0.0,64.0
3832,57.0,60.0,60.0,0.0,64.0
3833,56.0,60.0,60.0,0.0,64.0
3834,54.0,60.0,60.0,0.0,64.0
3835,56.0,0.0,60.0,0.0,64.0
3836,57.0,60.0,120.0,0.0,64.0
3837,52.0,0.0,240.0,0.0,64.0
3838,71.0,0.0,60.0,0.0,64.0
3839,58.0,120.0,120.0,0.0,64.0
3840,73.0,60.0,60.0,0.0,64.0
3841,78.0,0.0,60.0,0.0,64.0
3842,59.0,120.0,120.0,0.0,64.0
3843,66.0,60.0,540.0,0.0,64.0
3844,50.0,60.0,240.0,0.0,64.0
3845,60.0,0.0,120.0,0.0,64.0
3846,61.0,60.0,60.0,0.0,64.0
3847,45.0,0.0,120.0,0.0,64.0
3848,59.0,60.0,60.0,0.0,64.0
3849,47.0,30.0,120.0,0.0,64.0
3850,61.0,60.0,60.0,0.0,64.0
3851,62.0,0.0,60.0,0.0,64.0
3852,49.0,120.0,480.0,0.0,64.0
3853,56.0,30.0,30.0,0.0,64.0
3854,54.0,0.0,30.0,0.0,64.0
3855,56.0,60.0,300.0,0.0,64.0
3856,65.0,60.0,60.0,0.0,64.0
3857,63.0,60.0,60.0,0.0,64.0
3858,65.0,30.0,15.0,0.0,64.0
3859,66.0,60.0,30.0,0.0,64.0
3860,65.0,60.0,120.0,0.0,64.0
3861,54.0,0.0,15.0,0.0,64.0
3862,42.0,60.0,240.0,0.0,64.0
3863,66.0,0.0,15.0,0.0,64.0
3864,81.0,60.0,180.0,0.0,64.0
3865,54.0,0.0,15.0,0.0,64.0
3866,80.0,60.0,60.0,0.0,64.0
3867,78.0,60.0,60.0,0.0,64.0
3868,76.0,60.0,60.0,0.0,64.0
3869,75.0,60.0,60.0,0.0,64.0
3870,69.0,120.0,240.0,0.0,64.0
3871,73.0,60.0,60.0,0.0,64.0
3872,75.0,60.0,60.0,0.0,64.0
3873,78.0,0.0,60.0,0.0,64.0
3874,72.0,60.0,240.0,0.0,64.0
3875,63.0,120.0,120.0,0.0,64.0
3876,68.0,60.0,180.0,0.0,64.0
3877,52.0,0.0,720.0,0.0,64.0
3878,73.0,0.0,120.0,0.0,64.0
3879,66.0,60.0,60.0,0.0,64.0
3880,64.0,60.0,60.0,0.0,64.0
3881,75.0,60.0,120.0,0.0,64.0
3882,63.0,0.0,60.0,0.0,64.0
3883,76.0,60.0,120.0,0.0,64.0
3884,61.0,60.0,60.0,0.0,64.0
3885,60.0,0.0,60.0,0.0,64.0
3886,61.0,60.0,60.0,0.0,64.0
3887,73.0,0.0,120.0,0.0,64.0
3888,64.0,60.0,60.0,0.0,64.0
3889,78.0,60.0,780.0,0.0,64.0
3890,58.0,60.0,60.0,0.0,64.0
3891,61.0,60.0,60.0,0.0,64.0
3892,60.0,60.0,60.0,0.0,64.0
3893,58.0,60.0,60.0,0.0,64.0
3894,60.0,60.0,60.0,0.0,64.0
3895,51.0,60.0,240.0,0.0,64.0
3896,61.0,60.0,60.0,0.0,64.0
3897,63.0,60.0,60.0,0.0,64.0
3898,64.0,0.0,60.0,0.0,64.0
3899,66.0,60.0,60.0,0.0,64.0
3900,49.0,0.0,240.0,0.0,64.0
3901,68.0,60.0,60.0,0.0,64.0
3902,69.0,60.0,60.0,0.0,64.0
3903,66.0,60.0,60.0,0.0,64.0
3904,48.0,60.0,240.0,0.0,64.0
3905,68.0,60.0,1020.0,0.0,64.0
3906,85.0,60.0,60.0,0.0,64.0
3907,87.0,60.0,60.0,0.0,64.0
3908,88.0,0.0,60.0,0.0,64.0
3909,87.0,60.0,60.0,0.0,64.0
3910,44.0,60.0,240.0,0.0,64.0
3911,85.0,60.0,60.0,0.0,64.0
3912,84.0,60.0,60.0,0.0,64.0
3913,82.0,0.0,60.0,0.0,64.0
3914,80.0,60.0,60.0,0.0,64.0
3915,48.0,60.0,240.0,0.0,64.0
3916,78.0,60.0,60.0,0.0,64.0
3917,76.0,60.0,60.0,0.0,64.0
3918,75.0,0.0,60.0,0.0,64.0
3919,49.0,120.0,480.0,0.0,64.0
3920,76.0,60.0,60.0,0.0,64.0
3921,73.0,60.0,60.0,0.0,64.0
3922,76.0,60.0,60.0,0.0,64.0
3923,80.0,60.0,60.0,0.0,64.0
3924,81.0,0.0,240.0,0.0,64.0
3925,60.0,60.0,60.0,0.0,64.0
3926,61.0,60.0,60.0,0.0,64.0
3927,63.0,0.0,60.0,0.0,64.0
3928,61.0,0.0,240.0,0.0,64.0
3929,64.0,120.0,120.0,0.0,64.0
3930,65.0,240.0,120.0,0.0,64.0
3931,66.0,60.0,300.0,0.0,64.0
3932,73.0,60.0,240.0,0.0,64.0
3933,72.0,120.0,240.0,0.0,64.0
3934,64.0,60.0,60.0,0.0,64.0
3935,63.0,60.0,60.0,0.0,64.0
3936,64.0,0.0,60.0,0.0,64.0
3937,51.0,120.0,240.0,0.0,64.0
3938,66.0,120.0,120.0,0.0,64.0
3939,67.0,0.0,120.0,0.0,64.0
3940,52.0,60.0,480.0,0.0,64.0
3941,68.0,60.0,300.0,0.0,64.0
3942,73.0,60.0,120.0,0.0,64.0
3943,76.0,60.0,60.0,0.0,64.0
3944,80.0,60.0,60.0,0.0,64.0
3945,66.0,60.0,60.0,0.0,64.0
3946,85.0,0.0,15.0,0.0,64.0
3947,69.0,60.0,60.0,0.0,64.0
3948,68.0,0.0,60.0,0.0,64.0
3949,66.0,60.0,60.0,0.0,64.0
3950,54.0,120.0,240.0,0.0,64.0
3951,85.0,0.0,15.0,0.0,64.0
3952,64.0,0.0,60.0,0.0,64.0
3953,63.0,60.0,60.0,0.0,64.0
3954,85.0,60.0,15.0,0.0,64.0
3955,61.0,0.0,60.0,0.0,64.0
3956,56.0,0.0,240.0,0.0,64.0
3957,64.0,60.0,120.0,0.0,64.0
3958,83.0,60.0,60.0,0.0,64.0
3959,63.0,120.0,120.0,0.0,64.0
3960,81.0,0.0,60.0,0.0,64.0
3961,83.0,120.0,120.0,0.0,64.0
3962,54.0,120.0,240.0,0.0,64.0
3963,74.0,0.0,120.0,0.0,64.0
3964,73.0,120.0,120.0,0.0,64.0
3965,68.0,120.0,240.0,0.0,64.0
3966,53.0,0.0,240.0,0.0,64.0
3967,83.0,60.0,240.0,0.0,64.0
3968,54.0,0.0,240.0,0.0,64.0
3969,61.0,120.0,240.0,0.0,64.0
3970,81.0,60.0,60.0,0.0,64.0
3971,80.0,0.0,60.0,0.0,64.0
3972,81.0,120.0,120.0,0.0,64.0
3973,52.0,0.0,240.0,0.0,64.0
3974,73.0,120.0,120.0,0.0,64.0
3975,66.0,60.0,360.0,0.0,64.0
3976,72.0,120.0,120.0,0.0,64.0
3977,51.0,60.0,240.0,0.0,64.0
3978,81.0,0.0,120.0,0.0,64.0
3979,80.0,60.0,60.0,0.0,64.0
3980,52.0,60.0,240.0,0.0,64.0
3981,78.0,0.0,60.0,0.0,64.0
3982,81.0,60.0,60.0,0.0,64.0
3983,64.0,0.0,120.0,0.0,64.0
3984,80.0,0.0,60.0,0.0,64.0
3985,63.0,60.0,60.0,0.0,64.0
3986,78.0,0.0,60.0,0.0,64.0
3987,54.0,60.0,240.0,0.0,64.0
3988,76.0,60.0,60.0,0.0,64.0
3989,64.0,0.0,60.0,0.0,64.0
3990,66.0,0.0,240.0,0.0,64.0
3991,75.0,60.0,60.0,0.0,64.0
3992,73.0,0.0,60.0,0.0,64.0
3993,56.0,0.0,240.0,0.0,64.0
3994,72.0,60.0,60.0,0.0,64.0
3995,78.0,60.0,60.0,0.0,64.0
3996,60.0,0.0,120.0,0.0,64.0
3997,76.0,60.0,60.0,0.0,64.0
3998,75.0,60.0,60.0,0.0,64.0
3999,76.0,60.0,60.0,0.0,64.0
4000,49.0,120.0,240.0,0.0,64.0
4001,75.0,120.0,60.0,0.0,64.0
4002,73.0,120.0,240.0,0.0,64.0
4003,61.0,0.0,15.0,0.0,64.0
4004,75.0,0.0,120.0,0.0,64.0
4005,76.0,120.0,120.0,0.0,64.0
4006,59.0,120.0,240.0,0.0,64.0
4007,77.0,0.0,120.0,0.0,64.0
4008,78.0,120.0,120.0,0.0,64.0
4009,58.0,60.0,240.0,0.0,64.0
4010,79.0,60.0,180.0,0.0,64.0
4011,63.0,0.0,240.0,0.0,64.0
4012,80.0,60.0,60.0,0.0,64.0
4013,82.0,60.0,60.0,0.0,64.0
4014,83.0,60.0,60.0,0.0,64.0
4015,51.0,120.0,240.0,0.0,64.0
4016,85.0,60.0,60.0,0.0,64.0
4017,83.0,60.0,60.0,0.0,64.0
4018,82.0,60.0,60.0,0.0,64.0
4019,85.0,0.0,60.0,0.0,64.0
4020,83.0,60.0,300.0,0.0,64.0
4021,68.0,60.0,120.0,0.0,64.0
4022,56.0,0.0,480.0,0.0,64.0
4023,71.0,60.0,60.0,0.0,64.0
4024,75.0,60.0,60.0,0.0,64.0
4025,76.0,120.0,240.0,0.0,64.0
4026,82.0,60.0,60.0,0.0,64.0
4027,80.0,60.0,60.0,0.0,64.0
4028,82.0,0.0,60.0,0.0,64.0
4029,83.0,120.0,120.0,0.0,64.0
4030,44.0,240.0,240.0,0.0,64.0
4031,84.0,0.0,120.0,0.0,64.0
4032,85.0,60.0,300.0,0.0,64.0
4033,68.0,60.0,240.0,0.0,64.0
4034,46.0,0.0,480.0,0.0,64.0
4035,67.0,120.0,240.0,0.0,64.0
4036,83.0,60.0,60.0,0.0,64.0
4037,82.0,60.0,60.0,0.0,64.0
4038,83.0,0.0,60.0,0.0,64.0
4039,85.0,120.0,120.0,0.0,64.0
4040,58.0,0.0,240.0,0.0,64.0
4041,86.0,120.0,120.0,0.0,64.0
4042,59.0,0.0,480.0,0.0,64.0
4043,68.0,60.0,120.0,0.0,64.0
4044,87.0,60.0,300.0,0.0,64.0
4045,71.0,60.0,60.0,0.0,64.0
4046,75.0,60.0,60.0,0.0,64.0
4047,85.0,0.0,60.0,0.0,64.0
4048,80.0,60.0,15.0,0.0,64.0
4049,88.0,60.0,60.0,0.0,64.0
4050,87.0,0.0,60.0,0.0,64.0
4051,85.0,60.0,60.0,0.0,64.0
4052,80.0,60.0,15.0,0.0,64.0
4053,61.0,0.0,240.0,0.0,64.0
4054,83.0,0.0,60.0,0.0,64.0
4055,82.0,60.0,60.0,0.0,64.0
4056,80.0,60.0,15.0,0.0,64.0
4057,80.0,120.0,60.0,0.0,64.0
4058,63.0,120.0,240.0,0.0,64.0
4059,83.0,0.0,120.0,0.0,64.0
4060,78.0,60.0,60.0,0.0,64.0
4061,82.0,0.0,120.0,0.0,64.0
4062,76.0,0.0,60.0,0.0,64.0
4063,61.0,0.0,240.0,0.0,64.0
4064,78.0,120.0,120.0,0.0,64.0
4065,69.0,120.0,120.0,0.0,64.0
4066,68.0,120.0,120.0,0.0,64.0
4067,87.0,120.0,240.0,0.0,64.0
4068,60.0,0.0,240.0,0.0,64.0
4069,78.0,60.0,240.0,0.0,64.0
4070,61.0,120.0,240.0,0.0,64.0
4071,80.0,0.0,240.0,0.0,64.0
4072,76.0,60.0,60.0,0.0,64.0
4073,75.0,0.0,60.0,0.0,64.0
4074,76.0,120.0,120.0,0.0,64.0
4075,59.0,120.0,240.0,0.0,64.0
4076,68.0,0.0,120.0,0.0,64.0
4077,58.0,60.0,240.0,0.0,64.0
4078,67.0,120.0,120.0,0.0,64.0
4079,85.0,60.0,360.0,0.0,64.0
4080,76.0,0.0,120.0,0.0,64.0
4081,59.0,0.0,240.0,0.0,64.0
4082,75.0,60.0,60.0,0.0,64.0
4083,73.0,0.0,60.0,0.0,64.0
4084,76.0,60.0,60.0,0.0,64.0
4085,83.0,0.0,120.0,0.0,64.0
4086,75.0,60.0,60.0,0.0,64.0
4087,73.0,0.0,60.0,0.0,64.0
4088,82.0,60.0,60.0,0.0,64.0
4089,61.0,0.0,240.0,0.0,64.0
4090,83.0,0.0,60.0,0.0,64.0
4091,71.0,60.0,60.0,0.0,64.0
4092,85.0,0.0,240.0,0.0,64.0
4093,70.0,60.0,60.0,0.0,64.0
4094,68.0,60.0,60.0,0.0,64.0
4095,63.0,0.0,240.0,0.0,64.0
4096,67.0,60.0,60.0,0.0,64.0
4097,73.0,60.0,60.0,0.0,64.0
4098,79.0,60.0,120.0,0.0,64.0
4099,71.0,60.0,60.0,0.0,64.0
4100,70.0,0.0,60.0,0.0,64.0
4101,56.0,0.0,240.0,0.0,64.0
4102,80.0,60.0,60.0,0.0,64.0
4103,71.0,0.0,60.0,0.0,64.0
4104,70.0,60.0,60.0,0.0,64.0
4105,82.0,0.0,60.0,0.0,64.0
4106,68.0,120.0,240.0,0.0,64.0
4107,83.0,60.0,60.0,0.0,64.0
4108,85.0,120.0,60.0,0.0,64.0
4109,59.0,0.0,240.0,0.0,64.0
4110,86.0,0.0,240.0,0.0,64.0
4111,66.0,120.0,120.0,0.0,64.0
4112,61.0,0.0,240.0,0.0,64.0
4113,65.0,120.0,120.0,0.0,64.0
4114,77.0,0.0,120.0,0.0,64.0
4115,71.0,60.0,120.0,0.0,64.0
4116,54.0,120.0,240.0,0.0,64.0
4117,69.0,60.0,60.0,0.0,64.0
4118,78.0,0.0,60.0,0.0,64.0
4119,80.0,0.0,60.0,0.0,64.0
4120,68.0,60.0,60.0,0.0,64.0
4121,66.0,120.0,240.0,0.0,64.0
4122,81.0,60.0,60.0,0.0,64.0
4123,83.0,0.0,60.0,0.0,64.0
4124,84.0,0.0,240.0,0.0,64.0
4125,57.0,120.0,240.0,0.0,64.0
4126,64.0,0.0,120.0,0.0,64.0
4127,63.0,120.0,120.0,0.0,64.0
4128,59.0,0.0,240.0,0.0,64.0
4129,69.0,0.0,120.0,0.0,64.0
4130,75.0,60.0,120.0,0.0,64.0
4131,68.0,60.0,60.0,0.0,64.0
4132,52.0,0.0,240.0,0.0,64.0
4133,76.0,0.0,120.0,0.0,64.0
4134,66.0,60.0,60.0,0.0,64.0
4135,80.0,60.0,60.0,0.0,64.0
4136,64.0,60.0,240.0,0.0,64.0
4137,83.0,120.0,60.0,0.0,64.0
4138,51.0,0.0,240.0,0.0,64.0
4139,88.0,120.0,240.0,0.0,64.0
4140,66.0,60.0,60.0,0.0,64.0
4141,68.0,0.0,60.0,0.0,64.0
4142,49.0,0.0,240.0,0.0,64.0
4143,69.0,60.0,120.0,0.0,64.0
4144,76.0,0.0,60.0,0.0,64.0
4145,78.0,60.0,60.0,0.0,64.0
4146,70.0,60.0,120.0,0.0,64.0
4147,80.0,0.0,60.0,0.0,64.0
4148,78.0,60.0,60.0,0.0,64.0
4149,51.0,60.0,240.0,0.0,64.0
4150,71.0,0.0,120.0,0.0,64.0
4151,76.0,60.0,60.0,0.0,64.0
4152,72.0,60.0,180.0,0.0,64.0
4153,75.0,60.0,60.0,0.0,64.0
4154,78.0,0.0,60.0,0.0,64.0
4155,87.0,60.0,540.0,0.0,64.0
4156,56.0,0.0,240.0,0.0,64.0
4157,73.0,60.0,60.0,0.0,64.0
4158,75.0,60.0,60.0,0.0,64.0
4159,76.0,60.0,60.0,0.0,64.0
4160,78.0,60.0,60.0,0.0,64.0
4161,44.0,0.0,240.0,0.0,64.0
4162,76.0,60.0,60.0,0.0,64.0
4163,75.0,60.0,60.0,0.0,64.0
4164,78.0,60.0,60.0,0.0,64.0
4165,76.0,0.0,240.0,0.0,64.0
4166,49.0,120.0,240.0,0.0,64.0
4167,80.0,60.0,60.0,0.0,64.0
4168,78.0,60.0,60.0,0.0,64.0
4169,80.0,0.0,60.0,0.0,64.0
4170,51.0,60.0,240.0,0.0,64.0
4171,85.0,120.0,120.0,0.0,64.0
4172,83.0,60.0,180.0,0.0,64.0
4173,53.0,60.0,240.0,0.0,64.0
4174,81.0,60.0,60.0,0.0,64.0
4175,80.0,60.0,60.0,0.0,64.0
4176,83.0,0.0,60.0,0.0,64.0
4177,54.0,60.0,480.0,0.0,64.0
4178,81.0,120.0,240.0,0.0,64.0
4179,73.0,60.0,60.0,0.0,64.0
4180,71.0,60.0,60.0,0.0,64.0
4181,73.0,0.0,60.0,0.0,64.0
4182,78.0,120.0,120.0,0.0,64.0
4183,76.0,60.0,180.0,0.0,64.0
4184,85.0,60.0,300.0,0.0,64.0
4185,74.0,60.0,60.0,0.0,64.0
4186,73.0,60.0,60.0,0.0,64.0
4187,76.0,60.0,60.0,0.0,64.0
4188,42.0,0.0,240.0,0.0,64.0
4189,74.0,0.0,240.0,0.0,64.0
4190,78.0,60.0,60.0,0.0,64.0
4191,77.0,60.0,60.0,0.0,64.0
4192,78.0,120.0,60.0,0.0,64.0
4193,83.0,180.0,120.0,0.0,64.0
4194,81.0,60.0,180.0,0.0,64.0
4195,54.0,60.0,480.0,0.0,64.0
4196,73.0,0.0,240.0,0.0,64.0
4197,80.0,60.0,60.0,0.0,64.0
4198,78.0,60.0,60.0,0.0,64.0
4199,81.0,60.0,60.0,0.0,64.0
4200,72.0,0.0,240.0,0.0,64.0
4201,75.0,60.0,60.0,0.0,64.0
4202,81.0,60.0,60.0,0.0,64.0
4203,80.0,60.0,60.0,0.0,64.0
4204,75.0,0.0,60.0,0.0,64.0
4205,73.0,0.0,240.0,0.0,64.0
4206,52.0,60.0,240.0,0.0,64.0
4207,76.0,60.0,60.0,0.0,64.0
4208,81.0,60.0,60.0,0.0,64.0
4209,80.0,60.0,60.0,0.0,64.0
4210,76.0,0.0,60.0,0.0,64.0
4211,75.0,0.0,240.0,0.0,64.0
4212,48.0,60.0,240.0,0.0,64.0
4213,78.0,60.0,60.0,0.0,64.0
4214,81.0,60.0,60.0,0.0,64.0
4215,80.0,60.0,60.0,0.0,64.0
4216,78.0,0.0,60.0,0.0,64.0
4217,68.0,60.0,300.0,0.0,64.0
4218,76.0,60.0,60.0,0.0,64.0
4219,49.0,0.0,240.0,0.0,64.0
4220,75.0,60.0,60.0,0.0,64.0
4221,73.0,60.0,60.0,0.0,64.0
4222,75.0,60.0,60.0,0.0,64.0
4223,76.0,0.0,120.0,0.0,64.0
4224,47.0,0.0,240.0,0.0,64.0
4225,66.0,60.0,60.0,0.0,64.0
4226,68.0,60.0,60.0,0.0,64.0
4227,77.0,120.0,120.0,0.0,64.0
4228,73.0,0.0,60.0,0.0,64.0
4229,78.0,120.0,120.0,0.0,64.0
4230,45.0,0.0,240.0,0.0,64.0
4231,61.0,0.0,540.0,0.0,64.0
4232,79.0,60.0,120.0,0.0,64.0
4233,80.0,60.0,60.0,0.0,64.0
4234,52.0,60.0,120.0,0.0,64.0
4235,78.0,0.0,60.0,0.0,64.0
4236,54.0,30.0,120.0,0.0,64.0
4237,80.0,60.0,60.0,0.0,64.0
4238,81.0,0.0,60.0,0.0,64.0
4239,56.0,30.0,240.0,0.0,64.0
4240,75.0,30.0,30.0,0.0,64.0
4241,76.0,60.0,30.0,0.0,64.0
4242,60.0,60.0,60.0,0.0,64.0
4243,75.0,60.0,300.0,0.0,64.0
4244,58.0,60.0,60.0,0.0,64.0
4245,60.0,0.0,15.0,0.0,64.0
4246,44.0,0.0,240.0,0.0,64.0
4247,61.0,60.0,30.0,0.0,64.0
4248,60.0,60.0,120.0,0.0,64.0
4249,61.0,0.0,15.0,0.0,64.0
4250,73.0,120.0,15.0,0.0,64.0
4251,49.0,120.0,480.0,0.0,64.0
4252,81.0,120.0,240.0,0.0,64.0
4253,64.0,0.0,240.0,0.0,64.0
4254,79.0,120.0,240.0,0.0,64.0
4255,47.0,60.0,240.0,0.0,64.0
4256,63.0,0.0,240.0,0.0,64.0
4257,80.0,60.0,180.0,0.0,64.0
4258,45.0,240.0,720.0,0.0,64.0
4259,64.0,60.0,120.0,0.0,64.0
4260,78.0,0.0,60.0,0.0,64.0
4261,76.0,60.0,60.0,0.0,64.0
4262,61.0,120.0,120.0,0.0,64.0
4263,75.0,0.0,60.0,0.0,64.0
4264,78.0,120.0,120.0,0.0,64.0
4265,68.0,30.0,240.0,0.0,64.0
4266,76.0,60.0,180.0,0.0,64.0
4267,67.0,30.0,30.0,0.0,64.0
4268,68.0,0.0,30.0,0.0,64.0
4269,75.0,60.0,60.0,0.0,64.0
4270,76.0,60.0,60.0,0.0,64.0
4271,67.0,0.0,15.0,0.0,64.0
4272,73.0,0.0,15.0,0.0,64.0
4273,44.0,0.0,1440.0,0.0,64.0
4274,68.0,1915.0,1200.0,0.0,64.0
4275,72.0,0.0,1200.0,0.0,64.0
4276,52.0,0.0,480.0,0.0,64.0
4277,83.0,240.0,240.0,0.0,64.0
4278,64.0,0.0,720.0,0.0,64.0
4279,80.0,240.0,240.0,0.0,64.0
4280,85.0,240.0,240.0,0.0,64.0
4281,81.0,120.0,240.0,0.0,64.0
4282,63.0,120.0,120.0,0.0,64.0
4283,78.0,0.0,240.0,0.0,64.0
4284,61.0,240.0,120.0,0.0,64.0
4285,83.0,120.0,600.0,0.0,64.0
4286,63.0,240.0,240.0,0.0,64.0
4287,59.0,120.0,240.0,0.0,64.0
4288,61.0,0.0,480.0,0.0,64.0
4289,76.0,120.0,120.0,0.0,64.0
4290,78.0,120.0,120.0,0.0,64.0
4291,80.0,240.0,120.0,0.0,64.0
4292,81.0,240.0,240.0,0.0,64.0
4293,73.0,240.0,240.0,0.0,64.0
4294,66.0,0.0,240.0,0.0,64.0
4295,63.0,240.0,240.0,0.0,64.0
4296,71.0,0.0,240.0,0.0,64.0
4297,59.0,0.0,240.0,0.0,64.0
4298,81.0,30.0,240.0,0.0,64.0
4299,64.0,0.0,240.0,0.0,64.0
4300,80.0,30.0,30.0,0.0,64.0
4301,81.0,60.0,30.0,0.0,64.0
4302,80.0,120.0,60.0,0.0,64.0
4303,78.0,120.0,120.0,0.0,64.0
4304,52.0,0.0,240.0,0.0,64.0
4305,80.0,120.0,120.0,0.0,64.0
4306,81.0,240.0,120.0,0.0,64.0
4307,78.0,120.0,240.0,0.0,64.0
4308,59.0,0.0,1200.0,0.0,64.0
4309,76.0,120.0,240.0,0.0,64.0
4310,80.0,120.0,120.0,0.0,64.0
4311,82.0,0.0,120.0,0.0,64.0
4312,75.0,120.0,240.0,0.0,64.0
4313,83.0,120.0,120.0,0.0,64.0
4314,85.0,0.0,120.0,0.0,64.0
4315,87.0,120.0,120.0,0.0,64.0
4316,80.0,120.0,240.0,0.0,64.0
4317,83.0,0.0,120.0,0.0,64.0
4318,85.0,120.0,120.0,0.0,64.0
4319,76.0,0.0,240.0,0.0,64.0
4320,83.0,120.0,120.0,0.0,64.0
4321,85.0,120.0,120.0,0.0,64.0
4322,73.0,0.0,240.0,0.0,64.0
4323,58.0,0.0,120.0,0.0,64.0
4324,56.0,120.0,120.0,0.0,64.0
4325,87.0,0.0,120.0,0.0,64.0
4326,85.0,120.0,120.0,0.0,64.0
4327,78.0,120.0,600.0,0.0,64.0
4328,58.0,0.0,240.0,0.0,64.0
4329,88.0,120.0,120.0,0.0,64.0
4330,54.0,0.0,240.0,0.0,64.0
4331,87.0,120.0,120.0,0.0,64.0
4332,85.0,120.0,120.0,0.0,64.0
4333,56.0,120.0,480.0,0.0,64.0
4334,83.0,120.0,600.0,0.0,64.0
4335,71.0,120.0,120.0,0.0,64.0
4336,73.0,120.0,120.0,0.0,64.0
4337,75.0,0.0,120.0,0.0,64.0
4338,76.0,0.0,240.0,0.0,64.0
4339,80.0,120.0,120.0,0.0,64.0
4340,68.0,0.0,240.0,0.0,64.0
4341,78.0,120.0,120.0,0.0,64.0
4342,61.0,120.0,240.0,0.0,64.0
4343,76.0,0.0,120.0,0.0,64.0
4344,85.0,120.0,120.0,0.0,64.0
4345,58.0,120.0,240.0,0.0,64.0
4346,66.0,0.0,240.0,0.0,64.0
4347,83.0,0.0,120.0,0.0,64.0
4348,82.0,120.0,120.0,0.0,64.0
4349,76.0,0.0,240.0,0.0,64.0
4350,54.0,0.0,240.0,0.0,64.0
4351,80.0,30.0,120.0,0.0,64.0
4352,75.0,30.0,30.0,0.0,64.0
4353,59.0,120.0,240.0,0.0,64.0
4354,78.0,0.0,240.0,0.0,64.0
4355,76.0,60.0,30.0,0.0,64.0
4356,75.0,120.0,60.0,0.0,64.0
4357,73.0,0.0,120.0,0.0,64.0
4358,75.0,120.0,120.0,0.0,64.0
4359,83.0,120.0,360.0,0.0,64.0
4360,47.0,0.0,240.0,0.0,64.0
4361,76.0,120.0,120.0,0.0,64.0
4362,73.0,120.0,240.0,0.0,64.0
4363,54.0,0.0,1200.0,0.0,64.0
4364,82.0,0.0,120.0,0.0,64.0
4365,83.0,120.0,120.0,0.0,64.0
4366,75.0,0.0,120.0,0.0,64.0
4367,80.0,0.0,120.0,0.0,64.0
4368,76.0,120.0,120.0,0.0,64.0
4369,82.0,120.0,240.0,0.0,64.0
4370,78.0,120.0,120.0,0.0,64.0
4371,80.0,0.0,120.0,0.0,64.0
4372,82.0,120.0,120.0,0.0,64.0
4373,87.0,120.0,240.0,0.0,64.0
4374,78.0,0.0,120.0,0.0,64.0
4375,80.0,120.0,120.0,0.0,64.0
4376,83.0,120.0,240.0,0.0,64.0
4377,78.0,0.0,120.0,0.0,64.0
4378,52.0,120.0,120.0,0.0,64.0
4379,80.0,0.0,120.0,0.0,64.0
4380,51.0,0.0,120.0,0.0,64.0
4381,82.0,120.0,120.0,0.0,64.0
4382,80.0,120.0,120.0,0.0,64.0
4383,52.0,0.0,240.0,0.0,64.0
4384,85.0,120.0,600.0,0.0,64.0
4385,83.0,120.0,120.0,0.0,64.0
4386,82.0,120.0,120.0,0.0,64.0
4387,49.0,120.0,240.0,0.0,64.0
4388,80.0,0.0,120.0,0.0,64.0
4389,51.0,0.0,480.0,0.0,64.0
4390,78.0,120.0,120.0,0.0,64.0
4391,80.0,120.0,120.0,0.0,64.0
4392,82.0,120.0,120.0,0.0,64.0
4393,83.0,0.0,960.0,0.0,64.0
4394,75.0,120.0,120.0,0.0,64.0
4395,56.0,120.0,240.0,0.0,64.0
4396,73.0,120.0,120.0,0.0,64.0
4397,71.0,0.0,120.0,0.0,64.0
4398,80.0,120.0,120.0,0.0,64.0
4399,52.0,120.0,240.0,0.0,64.0
4400,78.0,0.0,120.0,0.0,64.0
4401,76.0,120.0,120.0,0.0,64.0
4402,49.0,0.0,240.0,0.0,64.0
4403,75.0,30.0,120.0,0.0,64.0
4404,54.0,0.0,240.0,0.0,64.0
4405,82.0,30.0,30.0,0.0,64.0
4406,73.0,120.0,240.0,0.0,64.0
4407,83.0,180.0,30.0,0.0,64.0
4408,82.0,60.0,300.0,0.0,64.0
4409,42.0,0.0,240.0,0.0,64.0
4410,78.0,120.0,240.0,0.0,64.0
4411,80.0,60.0,60.0,0.0,64.0
4412,82.0,0.0,60.0,0.0,64.0
4413,83.0,0.0,480.0,0.0,64.0
4414,75.0,120.0,120.0,0.0,64.0
4415,47.0,240.0,480.0,0.0,64.0
4416,71.0,120.0,120.0,0.0,64.0
4417,75.0,120.0,120.0,0.0,64.0
4418,78.0,0.0,120.0,0.0,64.0
4419,83.0,120.0,120.0,0.0,64.0
4420,51.0,120.0,240.0,0.0,64.0
4421,78.0,120.0,120.0,0.0,64.0
4422,81.0,0.0,120.0,0.0,64.0
4423,80.0,120.0,120.0,0.0,64.0
4424,52.0,120.0,240.0,0.0,64.0
4425,83.0,0.0,120.0,0.0,64.0
4426,75.0,120.0,120.0,0.0,64.0
4427,54.0,120.0,240.0,0.0,64.0
4428,78.0,0.0,120.0,0.0,64.0
4429,76.0,120.0,120.0,0.0,64.0
4430,56.0,120.0,240.0,0.0,64.0
4431,80.0,0.0,120.0,0.0,64.0
4432,57.0,0.0,240.0,0.0,64.0
4433,78.0,120.0,120.0,0.0,64.0
4434,76.0,120.0,120.0,0.0,64.0
4435,75.0,120.0,120.0,0.0,64.0
4436,59.0,120.0,240.0,0.0,64.0
4437,71.0,0.0,120.0,0.0,64.0
4438,75.0,120.0,120.0,0.0,64.0
4439,61.0,0.0,240.0,0.0,64.0
4440,78.0,0.0,120.0,0.0,64.0
4441,83.0,240.0,15.0,0.0,64.0
4442,63.0,120.0,240.0,0.0,64.0
4443,83.0,0.0,120.0,0.0,64.0
4444,59.0,0.0,240.0,0.0,64.0
4445,78.0,120.0,120.0,0.0,64.0
4446,81.0,120.0,120.0,0.0,64.0
4447,64.0,0.0,240.0,0.0,64.0
4448,80.0,120.0,120.0,0.0,64.0
4449,83.0,120.0,120.0,0.0,64.0
4450,59.0,120.0,240.0,0.0,64.0
4451,75.0,120.0,120.0,0.0,64.0
4452,78.0,0.0,120.0,0.0,64.0
4453,76.0,120.0,120.0,0.0,64.0
4454,56.0,120.0,240.0,0.0,64.0
4455,80.0,0.0,120.0,0.0,64.0
4456,78.0,120.0,120.0,0.0,64.0
4457,52.0,120.0,240.0,0.0,64.0
4458,76.0,0.0,120.0,0.0,64.0
4459,75.0,120.0,120.0,0.0,64.0
4460,59.0,0.0,480.0,0.0,64.0
4461,71.0,120.0,120.0,0.0,64.0
4462,75.0,120.0,120.0,0.0,64.0
4463,78.0,240.0,120.0,0.0,64.0
4464,83.0,120.0,600.0,0.0,64.0
4465,80.0,120.0,120.0,0.0,64.0
4466,75.0,120.0,120.0,0.0,64.0
4467,56.0,0.0,240.0,0.0,64.0
4468,78.0,120.0,120.0,0.0,64.0
4469,61.0,0.0,240.0,0.0,64.0
4470,76.0,0.0,240.0,0.0,64.0
4471,81.0,120.0,120.0,0.0,64.0
4472,85.0,0.0,240.0,0.0,64.0
4473,80.0,120.0,120.0,0.0,64.0
4474,52.0,240.0,240.0,0.0,64.0
4475,83.0,0.0,120.0,0.0,64.0
4476,81.0,120.0,600.0,0.0,64.0
4477,54.0,120.0,240.0,0.0,64.0
4478,78.0,0.0,120.0,0.0,64.0
4479,73.0,120.0,120.0,0.0,64.0
4480,57.0,120.0,240.0,0.0,64.0
4481,76.0,0.0,120.0,0.0,64.0
4482,59.0,0.0,240.0,0.0,64.0
4483,75.0,0.0,240.0,0.0,64.0
4484,71.0,120.0,120.0,0.0,64.0
4485,47.0,240.0,240.0,0.0,64.0
4486,83.0,0.0,240.0,0.0,64.0
4487,75.0,120.0,120.0,0.0,64.0
4488,78.0,0.0,120.0,0.0,64.0
4489,80.0,120.0,600.0,0.0,64.0
4490,52.0,120.0,240.0,0.0,64.0
4491,76.0,0.0,120.0,0.0,64.0
4492,56.0,0.0,240.0,0.0,64.0
4493,71.0,120.0,120.0,0.0,64.0
4494,74.0,120.0,120.0,0.0,64.0
4495,57.0,0.0,1200.0,0.0,64.0
4496,73.0,0.0,240.0,0.0,64.0
4497,78.0,120.0,120.0,0.0,64.0
4498,76.0,0.0,120.0,0.0,64.0
4499,85.0,120.0,120.0,0.0,64.0
4500,80.0,0.0,120.0,0.0,64.0
4501,83.0,120.0,120.0,0.0,64.0
4502,81.0,120.0,120.0,0.0,64.0
4503,80.0,120.0,120.0,0.0,64.0
4504,78.0,120.0,120.0,0.0,64.0
4505,76.0,120.0,120.0,0.0,64.0
4506,76.0,0.0,120.0,0.0,64.0
4507,59.0,0.0,240.0,0.0,64.0
4508,75.0,120.0,15.0,0.0,64.0
4509,71.0,240.0,240.0,0.0,64.0
4510,78.0,0.0,120.0,0.0,64.0
4511,56.0,120.0,240.0,0.0,64.0
4512,83.0,0.0,120.0,0.0,64.0
4513,80.0,120.0,120.0,0.0,64.0
4514,61.0,0.0,240.0,0.0,64.0
4515,76.0,120.0,120.0,0.0,64.0
4516,57.0,0.0,240.0,0.0,64.0
4517,78.0,120.0,120.0,0.0,64.0
4518,76.0,0.0,120.0,0.0,64.0
4519,75.0,0.0,120.0,0.0,64.0
4520,54.0,120.0,240.0,0.0,64.0
4521,78.0,120.0,120.0,0.0,64.0
4522,73.0,0.0,120.0,0.0,64.0
4523,80.0,0.0,120.0,0.0,64.0
4524,78.0,120.0,120.0,0.0,64.0
4525,59.0,0.0,480.0,0.0,64.0
4526,83.0,120.0,120.0,0.0,64.0
4527,78.0,120.0,120.0,0.0,64.0
4528,75.0,120.0,120.0,0.0,64.0
4529,76.0,120.0,120.0,0.0,64.0
4530,75.0,120.0,120.0,0.0,64.0
4531,56.0,0.0,240.0,0.0,64.0
4532,76.0,120.0,120.0,0.0,64.0
4533,78.0,120.0,120.0,0.0,64.0
4534,52.0,120.0,240.0,0.0,64.0
4535,76.0,120.0,120.0,0.0,64.0
4536,80.0,0.0,120.0,0.0,64.0
4537,76.0,120.0,120.0,0.0,64.0
4538,57.0,0.0,240.0,0.0,64.0
4539,73.0,120.0,120.0,0.0,64.0
4540,75.0,120.0,120.0,0.0,64.0
4541,54.0,0.0,240.0,0.0,64.0
4542,73.0,0.0,120.0,0.0,64.0
4543,51.0,0.0,240.0,0.0,64.0
4544,75.0,0.0,120.0,0.0,64.0
4545,71.0,120.0,120.0,0.0,64.0
4546,76.0,0.0,120.0,0.0,64.0
4547,69.0,120.0,120.0,0.0,64.0
4548,75.0,120.0,120.0,0.0,64.0
4549,56.0,0.0,480.0,0.0,64.0
4550,80.0,120.0,120.0,0.0,64.0
4551,75.0,120.0,120.0,0.0,64.0
4552,71.0,120.0,120.0,0.0,64.0
4553,73.0,120.0,120.0,0.0,64.0
4554,71.0,120.0,120.0,0.0,64.0
4555,73.0,120.0,120.0,0.0,64.0
4556,52.0,0.0,240.0,0.0,64.0
4557,75.0,0.0,120.0,0.0,64.0
4558,73.0,120.0,120.0,0.0,64.0
4559,49.0,120.0,240.0,0.0,64.0
4560,76.0,0.0,120.0,0.0,64.0
4561,73.0,120.0,120.0,0.0,64.0
4562,54.0,0.0,240.0,0.0,64.0
4563,69.0,120.0,120.0,0.0,64.0
4564,71.0,0.0,600.0,0.0,64.0
4565,51.0,120.0,240.0,0.0,64.0
4566,66.0,0.0,120.0,0.0,64.0
4567,47.0,0.0,240.0,0.0,64.0
4568,68.0,120.0,120.0,0.0,64.0
4569,69.0,120.0,120.0,0.0,64.0
4570,52.0,120.0,960.0,0.0,64.0
4571,68.0,120.0,120.0,0.0,64.0
4572,71.0,120.0,120.0,0.0,64.0
4573,80.0,0.0,120.0,0.0,64.0
4574,68.0,0.0,120.0,0.0,64.0
4575,76.0,120.0,120.0,0.0,64.0
4576,64.0,120.0,120.0,0.0,64.0
4577,73.0,0.0,120.0,0.0,64.0
4578,66.0,120.0,120.0,0.0,64.0
4579,69.0,120.0,240.0,0.0,64.0
4580,64.0,0.0,120.0,0.0,64.0
4581,66.0,120.0,120.0,0.0,64.0
4582,73.0,0.0,480.0,0.0,64.0
4583,68.0,0.0,120.0,0.0,64.0
4584,66.0,120.0,120.0,0.0,64.0
4585,51.0,240.0,480.0,0.0,64.0
4586,69.0,120.0,120.0,0.0,64.0
4587,71.0,0.0,120.0,0.0,64.0
4588,66.0,120.0,120.0,0.0,64.0
4589,69.0,0.0,120.0,0.0,64.0
4590,63.0,0.0,120.0,0.0,64.0
4591,52.0,0.0,240.0,0.0,64.0
4592,71.0,120.0,240.0,0.0,64.0
4593,68.0,0.0,240.0,0.0,64.0
4594,76.0,120.0,240.0,0.0,64.0
4595,69.0,120.0,120.0,0.0,64.0
4596,49.0,0.0,240.0,0.0,64.0
4597,68.0,0.0,120.0,0.0,64.0
4598,45.0,0.0,240.0,0.0,64.0
4599,69.0,120.0,120.0,0.0,64.0
4600,68.0,0.0,120.0,0.0,64.0
4601,47.0,120.0,240.0,0.0,64.0
4602,66.0,120.0,15.0,0.0,64.0
4603,75.0,0.0,240.0,0.0,64.0
4604,68.0,0.0,120.0,0.0,64.0
4605,64.0,120.0,120.0,0.0,64.0
4606,52.0,0.0,240.0,0.0,64.0
4607,66.0,120.0,120.0,0.0,64.0
4608,64.0,120.0,120.0,0.0,64.0
4609,66.0,120.0,120.0,0.0,64.0
4610,68.0,120.0,120.0,0.0,64.0
4611,49.0,120.0,240.0,0.0,64.0
4612,69.0,0.0,120.0,0.0,64.0
4613,68.0,120.0,120.0,0.0,64.0
4614,69.0,120.0,120.0,0.0,64.0
4615,66.0,120.0,120.0,0.0,64.0
4616,45.0,0.0,240.0,0.0,64.0
4617,68.0,120.0,120.0,0.0,64.0
4618,66.0,120.0,120.0,0.0,64.0
4619,68.0,120.0,120.0,0.0,64.0
4620,47.0,0.0,240.0,0.0,64.0
4621,69.0,120.0,120.0,0.0,64.0
4622,71.0,120.0,120.0,0.0,64.0
4623,69.0,120.0,120.0,0.0,64.0
4624,71.0,120.0,120.0,0.0,64.0
4625,64.0,120.0,120.0,0.0,64.0
4626,40.0,0.0,240.0,0.0,64.0
4627,68.0,0.0,240.0,0.0,64.0
4628,66.0,120.0,120.0,0.0,64.0
4629,76.0,120.0,240.0,0.0,64.0
4630,64.0,120.0,120.0,0.0,64.0
4631,66.0,0.0,120.0,0.0,64.0
4632,68.0,120.0,120.0,0.0,64.0
4633,64.0,0.0,240.0,0.0,64.0
4634,69.0,120.0,120.0,0.0,64.0
4635,76.0,120.0,240.0,0.0,64.0
4636,68.0,120.0,120.0,0.0,64.0
4637,69.0,0.0,120.0,0.0,64.0
4638,66.0,120.0,120.0,0.0,64.0
4639,69.0,0.0,240.0,0.0,64.0
4640,68.0,120.0,120.0,0.0,64.0
4641,76.0,0.0,240.0,0.0,64.0
4642,66.0,120.0,120.0,0.0,64.0
4643,68.0,120.0,120.0,0.0,64.0
4644,66.0,0.0,240.0,0.0,64.0
4645,69.0,120.0,120.0,0.0,64.0
4646,71.0,120.0,120.0,0.0,64.0
4647,75.0,120.0,240.0,0.0,64.0
4648,69.0,120.0,120.0,0.0,64.0
4649,71.0,0.0,120.0,0.0,64.0
4650,52.0,120.0,120.0,0.0,64.0
4651,68.0,0.0,240.0,0.0,64.0
4652,54.0,0.0,120.0,0.0,64.0
4653,52.0,120.0,120.0,0.0,64.0
4654,76.0,120.0,15.0,0.0,64.0
4655,54.0,0.0,120.0,0.0,64.0
4656,56.0,120.0,120.0,0.0,64.0
4657,83.0,0.0,240.0,0.0,64.0
4658,64.0,0.0,240.0,0.0,64.0
4659,57.0,120.0,120.0,0.0,64.0
4660,76.0,120.0,240.0,0.0,64.0
4661,56.0,120.0,120.0,0.0,64.0
4662,57.0,0.0,120.0,0.0,64.0
4663,69.0,0.0,240.0,0.0,64.0
4664,54.0,120.0,120.0,0.0,64.0
4665,85.0,120.0,240.0,0.0,64.0
4666,56.0,0.0,120.0,0.0,64.0
4667,76.0,120.0,240.0,0.0,64.0
4668,54.0,120.0,120.0,0.0,64.0
4669,56.0,0.0,120.0,0.0,64.0
4670,57.0,120.0,120.0,0.0,64.0
4671,66.0,0.0,240.0,0.0,64.0
4672,87.0,120.0,240.0,0.0,64.0
4673,59.0,0.0,120.0,0.0,64.0
4674,57.0,120.0,120.0,0.0,64.0
4675,75.0,0.0,240.0,0.0,64.0
4676,59.0,240.0,120.0,0.0,64.0
4677,76.0,120.0,240.0,0.0,64.0
4678,56.0,0.0,240.0,0.0,64.0
4679,88.0,120.0,120.0,0.0,64.0
4680,64.0,120.0,240.0,0.0,64.0
4681,71.0,0.0,240.0,0.0,64.0
4682,87.0,0.0,120.0,0.0,64.0
4683,85.0,120.0,120.0,0.0,64.0
4684,76.0,0.0,960.0,0.0,64.0
4685,52.0,0.0,240.0,0.0,64.0
4686,83.0,120.0,120.0,0.0,64.0
4687,64.0,0.0,240.0,0.0,64.0
4688,81.0,120.0,120.0,0.0,64.0
4689,80.0,120.0,120.0,0.0,64.0
4690,57.0,0.0,240.0,0.0,64.0
4691,78.0,120.0,120.0,0.0,64.0
4692,80.0,120.0,120.0,0.0,64.0
4693,78.0,120.0,120.0,0.0,64.0
4694,64.0,0.0,240.0,0.0,64.0
4695,80.0,120.0,120.0,0.0,64.0
4696,75.0,0.0,960.0,0.0,64.0
4697,54.0,120.0,240.0,0.0,64.0
4698,81.0,120.0,120.0,0.0,64.0
4699,83.0,0.0,120.0,0.0,64.0
4700,63.0,120.0,240.0,0.0,64.0
4701,81.0,120.0,120.0,0.0,64.0
4702,83.0,0.0,120.0,0.0,64.0
4703,76.0,120.0,120.0,0.0,64.0
4704,56.0,120.0,240.0,0.0,64.0
4705,78.0,0.0,120.0,0.0,64.0
4706,76.0,120.0,120.0,0.0,64.0
4707,63.0,0.0,240.0,0.0,64.0
4708,78.0,120.0,120.0,0.0,64.0
4709,52.0,120.0,240.0,0.0,64.0
4710,73.0,120.0,960.0,0.0,64.0
4711,80.0,120.0,120.0,0.0,64.0
4712,81.0,0.0,120.0,0.0,64.0
4713,63.0,0.0,240.0,0.0,64.0
4714,80.0,120.0,120.0,0.0,64.0
4715,81.0,120.0,120.0,0.0,64.0
4716,54.0,120.0,240.0,0.0,64.0
4717,75.0,120.0,120.0,0.0,64.0
4718,76.0,0.0,120.0,0.0,64.0
4719,75.0,120.0,120.0,0.0,64.0
4720,61.0,0.0,240.0,0.0,64.0
4721,76.0,0.0,120.0,0.0,64.0
4722,78.0,120.0,120.0,0.0,64.0
4723,72.0,120.0,240.0,0.0,64.0
4724,51.0,0.0,240.0,0.0,64.0
4725,80.0,0.0,120.0,0.0,64.0
4726,78.0,120.0,120.0,0.0,64.0
4727,60.0,120.0,240.0,0.0,64.0
4728,68.0,0.0,240.0,0.0,64.0
4729,80.0,0.0,120.0,0.0,64.0
4730,49.0,0.0,240.0,0.0,64.0
4731,73.0,120.0,120.0,0.0,64.0
4732,76.0,120.0,240.0,0.0,64.0
4733,75.0,0.0,120.0,0.0,64.0
4734,73.0,120.0,120.0,0.0,64.0
4735,80.0,0.0,240.0,0.0,64.0
4736,75.0,120.0,120.0,0.0,64.0
4737,73.0,0.0,240.0,0.0,64.0
4738,76.0,120.0,120.0,0.0,64.0
4739,45.0,0.0,240.0,0.0,64.0
4740,78.0,120.0,120.0,0.0,64.0
4741,76.0,120.0,120.0,0.0,64.0
4742,85.0,0.0,240.0,0.0,64.0
4743,78.0,120.0,120.0,0.0,64.0
4744,75.0,120.0,120.0,0.0,64.0
4745,81.0,120.0,240.0,0.0,64.0
4746,42.0,0.0,240.0,0.0,64.0
4747,76.0,0.0,120.0,0.0,64.0
4748,75.0,120.0,120.0,0.0,64.0
4749,85.0,120.0,240.0,0.0,64.0
4750,76.0,0.0,120.0,0.0,64.0
4751,44.0,120.0,240.0,0.0,64.0
4752,75.0,0.0,240.0,0.0,64.0
4753,78.0,120.0,120.0,0.0,64.0
4754,80.0,0.0,120.0,0.0,64.0
4755,84.0,0.0,240.0,0.0,64.0
4756,78.0,120.0,120.0,0.0,64.0
4757,80.0,120.0,120.0,0.0,64.0
4758,49.0,120.0,240.0,0.0,64.0
4759,73.0,0.0,120.0,0.0,64.0
4760,76.0,120.0,120.0,0.0,64.0
4761,75.0,0.0,120.0,0.0,64.0
4762,78.0,0.0,120.0,0.0,64.0
4763,73.0,0.0,120.0,0.0,64.0
4764,76.0,120.0,120.0,0.0,64.0
4765,56.0,120.0,240.0,0.0,64.0
4766,75.0,0.0,120.0,0.0,64.0
4767,78.0,0.0,120.0,0.0,64.0
4768,80.0,0.0,120.0,0.0,64.0
4769,61.0,0.0,960.0,0.0,64.0
4770,76.0,120.0,120.0,0.0,64.0
4771,78.0,120.0,120.0,0.0,64.0
4772,81.0,0.0,120.0,0.0,64.0
4773,76.0,120.0,120.0,0.0,64.0
4774,80.0,0.0,120.0,0.0,64.0
4775,78.0,0.0,120.0,0.0,64.0
4776,81.0,120.0,120.0,0.0,64.0
4777,75.0,0.0,120.0,0.0,64.0
4778,78.0,120.0,120.0,0.0,64.0
4779,76.0,120.0,120.0,0.0,64.0
4780,80.0,0.0,120.0,0.0,64.0
4781,78.0,120.0,120.0,0.0,64.0
4782,75.0,0.0,120.0,0.0,64.0
4783,76.0,0.0,120.0,0.0,64.0
4784,60.0,0.0,480.0,0.0,64.0
4785,78.0,120.0,120.0,0.0,64.0
4786,80.0,120.0,120.0,0.0,64.0
4787,78.0,120.0,120.0,0.0,64.0
4788,80.0,120.0,120.0,0.0,64.0
4789,61.0,0.0,480.0,0.0,64.0
4790,76.0,120.0,120.0,0.0,64.0
4791,75.0,0.0,120.0,0.0,64.0
4792,76.0,120.0,120.0,0.0,64.0
4793,80.0,0.0,120.0,0.0,64.0
4794,85.0,120.0,720.0,0.0,64.0
4795,76.0,0.0,240.0,0.0,64.0
4796,54.0,120.0,120.0,0.0,64.0
4797,52.0,120.0,120.0,0.0,64.0
4798,81.0,240.0,240.0,0.0,64.0
4799,54.0,0.0,120.0,0.0,64.0
4800,51.0,120.0,480.0,0.0,64.0
4801,78.0,0.0,240.0,0.0,64.0
4802,75.0,0.0,240.0,0.0,64.0
4803,83.0,120.0,120.0,0.0,64.0
4804,81.0,0.0,120.0,0.0,64.0
4805,83.0,120.0,120.0,0.0,64.0
4806,80.0,120.0,120.0,0.0,64.0
4807,73.0,120.0,120.0,0.0,64.0
4808,53.0,0.0,240.0,0.0,64.0
4809,83.0,120.0,120.0,0.0,64.0
4810,54.0,0.0,480.0,0.0,64.0
4811,81.0,120.0,600.0,0.0,64.0
4812,73.0,120.0,120.0,0.0,64.0
4813,75.0,120.0,120.0,0.0,64.0
4814,76.0,120.0,120.0,0.0,64.0
4815,78.0,0.0,120.0,0.0,64.0
4816,75.0,120.0,120.0,0.0,64.0
4817,66.0,0.0,480.0,0.0,64.0
4818,69.0,120.0,240.0,0.0,64.0
4819,78.0,0.0,120.0,0.0,64.0
4820,68.0,120.0,240.0,0.0,64.0
4821,72.0,120.0,120.0,0.0,64.0
4822,73.0,0.0,120.0,0.0,64.0
4823,75.0,120.0,120.0,0.0,64.0
4824,78.0,0.0,240.0,0.0,64.0
4825,60.0,30.0,240.0,0.0,64.0
4826,72.0,0.0,120.0,0.0,64.0
4827,68.0,120.0,240.0,0.0,64.0
4828,61.0,0.0,240.0,0.0,64.0
4829,76.0,30.0,30.0,0.0,64.0
4830,78.0,60.0,30.0,0.0,64.0
4831,76.0,120.0,60.0,0.0,64.0
4832,75.0,0.0,120.0,0.0,64.0
4833,55.0,120.0,240.0,0.0,64.0
4834,76.0,120.0,120.0,0.0,64.0
4835,85.0,120.0,360.0,0.0,64.0
4836,78.0,0.0,120.0,0.0,64.0
4837,75.0,120.0,240.0,0.0,64.0
4838,56.0,0.0,1200.0,0.0,64.0
4839,83.0,0.0,120.0,0.0,64.0
4840,85.0,0.0,120.0,0.0,64.0
4841,77.0,120.0,120.0,0.0,64.0
4842,82.0,120.0,120.0,0.0,64.0
4843,79.0,0.0,120.0,0.0,64.0
4844,83.0,0.0,240.0,0.0,64.0
4845,80.0,120.0,120.0,0.0,64.0
4846,82.0,120.0,120.0,0.0,64.0
4847,88.0,120.0,240.0,0.0,64.0
4848,83.0,120.0,120.0,0.0,64.0
4849,80.0,0.0,120.0,0.0,64.0
4850,82.0,120.0,120.0,0.0,64.0
4851,85.0,120.0,240.0,0.0,64.0
4852,80.0,0.0,120.0,0.0,64.0
4853,54.0,0.0,120.0,0.0,64.0
4854,82.0,120.0,120.0,0.0,64.0
4855,52.0,0.0,120.0,0.0,64.0
4856,83.0,120.0,120.0,0.0,64.0
4857,82.0,0.0,15.0,0.0,64.0
4858,54.0,120.0,240.0,0.0,64.0
4859,87.0,120.0,600.0,0.0,64.0
4860,85.0,0.0,120.0,0.0,64.0
4861,51.0,0.0,240.0,0.0,64.0
4862,83.0,120.0,120.0,0.0,64.0
4863,82.0,120.0,120.0,0.0,64.0
4864,52.0,120.0,480.0,0.0,64.0
4865,80.0,120.0,120.0,0.0,64.0
4866,82.0,120.0,120.0,0.0,64.0
4867,83.0,0.0,120.0,0.0,64.0
4868,85.0,120.0,240.0,0.0,64.0
4869,76.0,0.0,120.0,0.0,64.0
4870,58.0,0.0,240.0,0.0,64.0
4871,76.0,0.0,240.0,0.0,64.0
4872,75.0,120.0,120.0,0.0,64.0
4873,73.0,120.0,120.0,0.0,64.0
4874,55.0,0.0,240.0,0.0,64.0
4875,75.0,120.0,240.0,0.0,64.0
4876,82.0,120.0,120.0,0.0,64.0
4877,80.0,0.0,120.0,0.0,64.0
4878,85.0,0.0,240.0,0.0,64.0
4879,79.0,120.0,120.0,0.0,64.0
4880,51.0,120.0,240.0,0.0,64.0
4881,77.0,0.0,120.0,0.0,64.0
4882,83.0,120.0,120.0,0.0,64.0
4883,75.0,0.0,240.0,0.0,64.0
4884,56.0,120.0,240.0,0.0,64.0
4885,82.0,0.0,120.0,0.0,64.0
4886,83.0,120.0,120.0,0.0,64.0
4887,80.0,120.0,360.0,0.0,64.0
4888,44.0,0.0,240.0,0.0,64.0
4889,85.0,120.0,120.0,0.0,64.0
4890,82.0,0.0,480.0,0.0,64.0
4891,51.0,0.0,240.0,0.0,64.0
4892,79.0,120.0,120.0,0.0,64.0
4893,77.0,120.0,120.0,0.0,64.0
4894,63.0,0.0,240.0,0.0,64.0
4895,79.0,240.0,120.0,0.0,64.0
4896,80.0,0.0,960.0,0.0,64.0
4897,59.0,0.0,240.0,0.0,64.0
4898,87.0,120.0,120.0,0.0,64.0
4899,64.0,120.0,240.0,0.0,64.0
4900,85.0,120.0,120.0,0.0,64.0
4901,83.0,0.0,120.0,0.0,64.0
4902,82.0,120.0,120.0,0.0,64.0
4903,61.0,120.0,240.0,0.0,64.0
4904,83.0,0.0,120.0,0.0,64.0
4905,82.0,120.0,120.0,0.0,64.0
4906,58.0,0.0,240.0,0.0,64.0
4907,83.0,120.0,120.0,0.0,64.0
4908,78.0,240.0,960.0,0.0,64.0
4909,85.0,120.0,120.0,0.0,64.0
4910,63.0,0.0,480.0,0.0,64.0
4911,87.0,120.0,120.0,0.0,64.0
4912,85.0,120.0,120.0,0.0,64.0
4913,87.0,120.0,120.0,0.0,64.0
4914,85.0,120.0,120.0,0.0,64.0
4915,84.0,120.0,120.0,0.0,64.0
4916,56.0,0.0,240.0,0.0,64.0
4917,82.0,120.0,120.0,0.0,64.0
4918,80.0,0.0,120.0,0.0,64.0
4919,85.0,0.0,960.0,0.0,64.0
4920,52.0,120.0,240.0,0.0,64.0
4921,80.0,0.0,120.0,0.0,64.0
4922,78.0,120.0,120.0,0.0,64.0
4923,57.0,0.0,240.0,0.0,64.0
4924,76.0,120.0,120.0,0.0,64.0
4925,54.0,120.0,240.0,0.0,64.0
4926,75.0,120.0,120.0,0.0,64.0
4927,76.0,0.0,120.0,0.0,64.0
4928,51.0,0.0,240.0,0.0,64.0
4929,75.0,120.0,120.0,0.0,64.0
4930,76.0,120.0,120.0,0.0,64.0
4931,78.0,120.0,120.0,0.0,64.0
4932,83.0,240.0,960.0,0.0,64.0
4933,56.0,120.0,480.0,0.0,64.0
4934,80.0,120.0,120.0,0.0,64.0
4935,78.0,120.0,120.0,0.0,64.0
4936,80.0,0.0,120.0,0.0,64.0
4937,78.0,120.0,120.0,0.0,64.0
4938,77.0,120.0,120.0,0.0,64.0
4939,61.0,0.0,240.0,0.0,64.0
4940,75.0,120.0,120.0,0.0,64.0
4941,73.0,0.0,120.0,0.0,64.0
4942,78.0,0.0,960.0,0.0,64.0
4943,57.0,0.0,240.0,0.0,64.0
4944,85.0,120.0,120.0,0.0,64.0
4945,62.0,120.0,240.0,0.0,64.0
4946,83.0,120.0,120.0,0.0,64.0
4947,81.0,0.0,120.0,0.0,64.0
4948,80.0,120.0,120.0,0.0,64.0
4949,59.0,0.0,240.0,0.0,64.0
4950,81.0,120.0,120.0,0.0,64.0
4951,56.0,120.0,240.0,0.0,64.0
4952,80.0,120.0,120.0,0.0,64.0
4953,81.0,0.0,120.0,0.0,64.0
4954,83.0,120.0,120.0,0.0,64.0
4955,76.0,0.0,960.0,0.0,64.0
4956,61.0,120.0,480.0,0.0,64.0
4957,85.0,120.0,120.0,0.0,64.0
4958,83.0,120.0,120.0,0.0,64.0
4959,85.0,0.0,120.0,0.0,64.0
4960,83.0,120.0,120.0,0.0,64.0
4961,82.0,120.0,120.0,0.0,64.0
4962,54.0,240.0,240.0,0.0,64.0
4963,80.0,120.0,120.0,0.0,64.0
4964,78.0,0.0,120.0,0.0,64.0
4965,83.0,120.0,960.0,0.0,64.0
4966,51.0,0.0,240.0,0.0,64.0
4967,78.0,120.0,120.0,0.0,64.0
4968,56.0,120.0,240.0,0.0,64.0
4969,76.0,120.0,120.0,0.0,64.0
4970,75.0,0.0,120.0,0.0,64.0
4971,52.0,0.0,240.0,0.0,64.0
4972,73.0,120.0,120.0,0.0,64.0
4973,75.0,120.0,120.0,0.0,64.0
4974,49.0,0.0,240.0,0.0,64.0
4975,73.0,120.0,120.0,0.0,64.0
4976,75.0,0.0,120.0,0.0,64.0
4977,54.0,0.0,480.0,0.0,64.0
4978,76.0,120.0,120.0,0.0,64.0
4979,82.0,0.0,480.0,0.0,64.0
4980,78.0,120.0,120.0,0.0,64.0
4981,76.0,120.0,120.0,0.0,64.0
4982,78.0,240.0,120.0,0.0,64.0
4983,83.0,240.0,240.0,0.0,64.0
4984,47.0,0.0,480.0,0.0,64.0
4985,75.0,0.0,480.0,0.0,64.0
4986,78.0,240.0,240.0,0.0,64.0
4987,75.0,240.0,240.0,0.0,64.0
4988,80.0,0.0,240.0,0.0,64.0
4989,71.0,240.0,240.0,0.0,64.0
4990,76.0,0.0,240.0,0.0,64.0
4991,68.0,240.0,240.0,0.0,64.0
4992,73.0,0.0,240.0,0.0,64.0
4993,70.0,240.0,240.0,0.0,64.0
4994,78.0,120.0,600.0,0.0,64.0
4995,66.0,0.0,240.0,0.0,64.0
4996,54.0,120.0,240.0,0.0,64.0
4997,51.0,0.0,240.0,0.0,64.0
4998,71.0,120.0,120.0,0.0,64.0
4999,56.0,120.0,240.0,0.0,64.0
5000,73.0,120.0,120.0,0.0,64.0
5001,75.0,0.0,120.0,0.0,64.0
5002,52.0,120.0,240.0,0.0,64.0
5003,76.0,0.0,120.0,0.0,64.0
5004,49.0,0.0,240.0,0.0,64.0
5005,78.0,120.0,120.0,0.0,64.0
5006,80.0,120.0,120.0,0.0,64.0
5007,54.0,0.0,240.0,0.0,64.0
5008,70.0,120.0,15.0,0.0,64.0
5009,73.0,0.0,120.0,0.0,64.0
5010,75.0,120.0,120.0,0.0,64.0
5011,46.0,0.0,240.0,0.0,64.0
5012,71.0,0.0,120.0,0.0,64.0
5013,73.0,120.0,120.0,0.0,64.0
5014,76.0,0.0,120.0,0.0,64.0
5015,47.0,0.0,240.0,0.0,64.0
5016,66.0,120.0,120.0,0.0,64.0
5017,75.0,0.0,120.0,0.0,64.0
5018,73.0,120.0,120.0,0.0,64.0
5019,70.0,0.0,120.0,0.0,64.0
5020,40.0,0.0,240.0,0.0,64.0
5021,75.0,0.0,120.0,0.0,64.0
5022,71.0,120.0,120.0,0.0,64.0
5023,76.0,0.0,120.0,0.0,64.0
5024,42.0,0.0,480.0,0.0,64.0
5025,73.0,120.0,15.0,0.0,64.0
5026,66.0,120.0,120.0,0.0,64.0
5027,70.0,120.0,120.0,0.0,64.0
5028,73.0,240.0,120.0,0.0,64.0
5029,78.0,120.0,120.0,0.0,64.0
5030,73.0,120.0,120.0,0.0,64.0
5031,46.0,120.0,240.0,0.0,64.0
5032,76.0,0.0,120.0,0.0,64.0
5033,47.0,0.0,240.0,0.0,64.0
5034,75.0,120.0,120.0,0.0,64.0
5035,78.0,120.0,120.0,0.0,64.0
5036,70.0,120.0,120.0,0.0,64.0
5037,49.0,0.0,240.0,0.0,64.0
5038,73.0,120.0,120.0,0.0,64.0
5039,71.0,120.0,120.0,0.0,64.0
5040,51.0,120.0,240.0,0.0,64.0
5041,75.0,0.0,120.0,0.0,64.0
5042,52.0,120.0,240.0,0.0,64.0
5043,73.0,120.0,120.0,0.0,64.0
5044,71.0,0.0,120.0,0.0,64.0
5045,70.0,120.0,120.0,0.0,64.0
5046,54.0,0.0,240.0,0.0,64.0
5047,66.0,120.0,120.0,0.0,64.0
5048,56.0,0.0,240.0,0.0,64.0
5049,70.0,120.0,120.0,0.0,64.0
5050,73.0,0.0,120.0,0.0,64.0
5051,78.0,240.0,15.0,0.0,64.0
5052,58.0,0.0,240.0,0.0,64.0
5053,78.0,120.0,120.0,0.0,64.0
5054,73.0,120.0,120.0,0.0,64.0
5055,54.0,120.0,240.0,0.0,64.0
5056,76.0,0.0,120.0,0.0,64.0
5057,75.0,120.0,120.0,0.0,64.0
5058,59.0,0.0,240.0,0.0,64.0
5059,78.0,120.0,120.0,0.0,64.0
5060,54.0,0.0,240.0,0.0,64.0
5061,70.0,120.0,120.0,0.0,64.0
5062,73.0,120.0,120.0,0.0,64.0
5063,71.0,120.0,120.0,0.0,64.0
5064,51.0,120.0,240.0,0.0,64.0
5065,75.0,0.0,120.0,0.0,64.0
5066,73.0,120.0,120.0,0.0,64.0
5067,47.0,0.0,240.0,0.0,64.0
5068,71.0,120.0,120.0,0.0,64.0
5069,54.0,240.0,480.0,0.0,64.0
5070,70.0,120.0,120.0,0.0,64.0
5071,66.0,120.0,120.0,0.0,64.0
5072,70.0,120.0,120.0,0.0,64.0
5073,73.0,0.0,120.0,0.0,64.0
5074,78.0,120.0,600.0,0.0,64.0
5075,75.0,120.0,120.0,0.0,64.0
5076,70.0,120.0,120.0,0.0,64.0
5077,51.0,0.0,240.0,0.0,64.0
5078,73.0,120.0,120.0,0.0,64.0
5079,56.0,120.0,240.0,0.0,64.0
5080,71.0,0.0,240.0,0.0,64.0
5081,76.0,0.0,120.0,0.0,64.0
5082,47.0,0.0,240.0,0.0,64.0
5083,75.0,120.0,120.0,0.0,64.0
5084,80.0,240.0,240.0,0.0,64.0
5085,78.0,0.0,120.0,0.0,64.0
5086,76.0,120.0,600.0,0.0,64.0
5087,49.0,0.0,240.0,0.0,64.0
5088,73.0,120.0,120.0,0.0,64.0
5089,68.0,120.0,120.0,0.0,64.0
5090,52.0,0.0,240.0,0.0,64.0
5091,71.0,120.0,120.0,0.0,64.0
5092,54.0,0.0,240.0,0.0,64.0
5093,70.0,120.0,240.0,0.0,64.0
5094,66.0,0.0,120.0,0.0,64.0
5095,78.0,0.0,240.0,0.0,64.0
5096,42.0,240.0,240.0,0.0,64.0
5097,70.0,120.0,120.0,0.0,64.0
5098,73.0,0.0,120.0,0.0,64.0
5099,75.0,120.0,600.0,0.0,64.0
5100,47.0,120.0,240.0,0.0,64.0
5101,71.0,0.0,120.0,0.0,64.0
5102,51.0,0.0,240.0,0.0,64.0
5103,66.0,120.0,120.0,0.0,64.0
5104,69.0,120.0,120.0,0.0,64.0
5105,52.0,120.0,1200.0,0.0,64.0
5106,68.0,120.0,240.0,0.0,64.0
5107,73.0,0.0,120.0,0.0,64.0
5108,71.0,120.0,120.0,0.0,64.0
5109,80.0,0.0,120.0,0.0,64.0
5110,75.0,0.0,120.0,0.0,64.0
5111,78.0,120.0,120.0,0.0,64.0
5112,76.0,120.0,120.0,0.0,64.0
5113,75.0,120.0,120.0,0.0,64.0
5114,73.0,120.0,120.0,0.0,64.0
5115,71.0,120.0,120.0,0.0,64.0
5116,70.0,0.0,240.0,0.0,64.0
5117,71.0,0.0,120.0,0.0,64.0
5118,66.0,0.0,240.0,0.0,64.0
5119,70.0,120.0,120.0,0.0,64.0
5120,54.0,240.0,240.0,0.0,64.0
5121,73.0,0.0,120.0,0.0,64.0
5122,71.0,30.0,960.0,0.0,64.0
5123,51.0,0.0,240.0,0.0,64.0
5124,66.0,120.0,120.0,0.0,64.0
5125,64.0,120.0,120.0,0.0,64.0
5126,56.0,0.0,240.0,0.0,64.0
5127,63.0,120.0,120.0,0.0,64.0
5128,68.0,120.0,120.0,0.0,64.0
5129,52.0,120.0,240.0,0.0,64.0
5130,66.0,0.0,120.0,0.0,64.0
5131,64.0,120.0,120.0,0.0,64.0
5132,49.0,0.0,240.0,0.0,64.0
5133,63.0,0.0,120.0,0.0,64.0
5134,70.0,30.0,30.0,0.0,64.0
5135,61.0,120.0,120.0,0.0,64.0
5136,54.0,120.0,240.0,0.0,64.0
5137,71.0,60.0,30.0,0.0,64.0
5138,70.0,0.0,420.0,0.0,64.0
5139,63.0,0.0,120.0,0.0,64.0
5140,42.0,240.0,240.0,0.0,64.0
5141,64.0,120.0,120.0,0.0,64.0
5142,61.0,0.0,120.0,0.0,64.0
5143,71.0,240.0,240.0,0.0,64.0
5144,63.0,0.0,480.0,0.0,64.0
5145,47.0,240.0,480.0,0.0,64.0
5146,78.0,0.0,240.0,0.0,64.0
5147,59.0,0.0,720.0,0.0,64.0
5148,75.0,240.0,240.0,0.0,64.0
5149,80.0,240.0,240.0,0.0,64.0
5150,77.0,120.0,240.0,0.0,64.0
5151,57.0,120.0,120.0,0.0,64.0
5152,73.0,0.0,240.0,0.0,64.0
5153,56.0,240.0,120.0,0.0,64.0
5154,57.0,240.0,240.0,0.0,64.0
5155,78.0,120.0,600.0,0.0,64.0
5156,62.0,120.0,240.0,0.0,64.0
5157,59.0,120.0,240.0,0.0,64.0
5158,83.0,0.0,120.0,0.0,64.0
5159,56.0,0.0,240.0,0.0,64.0
5160,85.0,120.0,120.0,0.0,64.0
5161,86.0,120.0,120.0,0.0,64.0
5162,77.0,120.0,120.0,0.0,64.0
5163,61.0,120.0,240.0,0.0,64.0
5164,86.0,0.0,120.0,0.0,64.0
5165,85.0,120.0,120.0,0.0,64.0
5166,49.0,120.0,240.0,0.0,64.0
5167,83.0,0.0,120.0,0.0,64.0
5168,81.0,120.0,120.0,0.0,64.0
5169,54.0,0.0,1200.0,0.0,64.0
5170,83.0,120.0,120.0,0.0,64.0
5171,81.0,120.0,120.0,0.0,64.0
5172,73.0,120.0,240.0,0.0,64.0
5173,80.0,0.0,120.0,0.0,64.0
5174,78.0,120.0,120.0,0.0,64.0
5175,69.0,0.0,240.0,0.0,64.0
5176,80.0,120.0,120.0,0.0,64.0
5177,74.0,0.0,240.0,0.0,64.0
5178,81.0,120.0,120.0,0.0,64.0
5179,78.0,120.0,120.0,0.0,64.0
5180,72.0,120.0,240.0,0.0,64.0
5181,80.0,120.0,120.0,0.0,64.0
5182,81.0,0.0,120.0,0.0,64.0
5183,80.0,120.0,120.0,0.0,64.0
5184,68.0,120.0,240.0,0.0,64.0
5185,52.0,0.0,240.0,0.0,64.0
5186,78.0,0.0,120.0,0.0,64.0
5187,57.0,0.0,240.0,0.0,64.0
5188,76.0,120.0,120.0,0.0,64.0
5189,73.0,120.0,600.0,0.0,64.0
5190,78.0,120.0,120.0,0.0,64.0
5191,49.0,120.0,240.0,0.0,64.0
5192,80.0,120.0,120.0,0.0,64.0
5193,76.0,0.0,120.0,0.0,64.0
5194,51.0,0.0,240.0,0.0,64.0
5195,78.0,0.0,120.0,0.0,64.0
5196,75.0,120.0,240.0,0.0,64.0
5197,54.0,0.0,240.0,0.0,64.0
5198,80.0,120.0,120.0,0.0,64.0
5199,81.0,0.0,120.0,0.0,64.0
5200,87.0,0.0,720.0,0.0,64.0
5201,56.0,120.0,240.0,0.0,64.0
5202,72.0,120.0,120.0,0.0,64.0
5203,81.0,0.0,120.0,0.0,64.0
5204,44.0,0.0,240.0,0.0,64.0
5205,80.0,120.0,120.0,0.0,64.0
5206,78.0,120.0,120.0,0.0,64.0
5207,76.0,120.0,120.0,0.0,64.0
5208,49.0,0.0,240.0,0.0,64.0
5209,78.0,120.0,120.0,0.0,64.0
5210,56.0,120.0,240.0,0.0,64.0
5211,85.0,0.0,120.0,0.0,64.0
5212,76.0,120.0,120.0,0.0,64.0
5213,84.0,0.0,120.0,0.0,64.0
5214,75.0,0.0,120.0,0.0,64.0
5215,85.0,120.0,720.0,0.0,64.0
5216,52.0,0.0,240.0,0.0,64.0
5217,73.0,120.0,120.0,0.0,64.0
5218,75.0,120.0,120.0,0.0,64.0
5219,57.0,0.0,240.0,0.0,64.0
5220,76.0,120.0,120.0,0.0,64.0
5221,73.0,120.0,120.0,0.0,64.0
5222,55.0,0.0,240.0,0.0,64.0
5223,75.0,120.0,120.0,0.0,64.0
5224,76.0,0.0,120.0,0.0,64.0
5225,51.0,120.0,240.0,0.0,64.0
5226,83.0,0.0,120.0,0.0,64.0
5227,75.0,120.0,120.0,0.0,64.0
5228,82.0,0.0,120.0,0.0,64.0
5229,73.0,0.0,120.0,0.0,64.0
5230,83.0,0.0,120.0,0.0,64.0
5231,56.0,0.0,960.0,0.0,64.0
5232,71.0,120.0,120.0,0.0,64.0
5233,82.0,120.0,120.0,0.0,64.0
5234,73.0,0.0,120.0,0.0,64.0
5235,75.0,0.0,120.0,0.0,64.0
5236,80.0,120.0,120.0,0.0,64.0
5237,71.0,0.0,120.0,0.0,64.0
5238,78.0,120.0,120.0,0.0,64.0
5239,76.0,120.0,120.0,0.0,64.0
5240,73.0,0.0,240.0,0.0,64.0
5241,75.0,120.0,120.0,0.0,64.0
5242,73.0,120.0,120.0,0.0,64.0
5243,70.0,0.0,240.0,0.0,64.0
5244,71.0,120.0,120.0,0.0,64.0
5245,82.0,0.0,720.0,0.0,64.0
5246,55.0,120.0,240.0,0.0,64.0
5247,70.0,120.0,120.0,0.0,64.0
5248,68.0,0.0,120.0,0.0,64.0
5249,67.0,120.0,120.0,0.0,64.0
5250,63.0,240.0,240.0,0.0,64.0
5251,65.0,0.0,120.0,0.0,64.0
5252,59.0,120.0,240.0,0.0,64.0
5253,63.0,0.0,240.0,0.0,64.0
5254,80.0,120.0,120.0,0.0,64.0
5255,64.0,0.0,240.0,0.0,64.0
5256,79.0,240.0,120.0,0.0,64.0
5257,80.0,120.0,720.0,0.0,64.0
5258,61.0,240.0,240.0,0.0,64.0
5259,58.0,240.0,240.0,0.0,64.0
5260,63.0,120.0,1440.0,0.0,64.0
5261,82.0,0.0,240.0,0.0,64.0
5262,78.0,120.0,120.0,0.0,64.0
5263,77.0,120.0,120.0,0.0,64.0
5264,78.0,120.0,120.0,0.0,64.0
5265,76.0,0.0,120.0,0.0,64.0
5266,75.0,120.0,120.0,0.0,64.0
5267,83.0,120.0,240.0,0.0,64.0
5268,73.0,0.0,120.0,0.0,64.0
5269,80.0,120.0,240.0,0.0,64.0
5270,71.0,120.0,120.0,0.0,64.0
5271,70.0,0.0,120.0,0.0,64.0
5272,68.0,120.0,120.0,0.0,64.0
5273,77.0,0.0,240.0,0.0,64.0
5274,66.0,0.0,120.0,0.0,64.0
5275,64.0,120.0,120.0,0.0,64.0
5276,82.0,0.0,240.0,0.0,64.0
5277,63.0,120.0,120.0,0.0,64.0
5278,61.0,120.0,120.0,0.0,64.0
5279,85.0,120.0,240.0,0.0,64.0
5280,59.0,0.0,120.0,0.0,64.0
5281,79.0,0.0,240.0,0.0,64.0
5282,58.0,0.0,120.0,0.0,64.0
5283,59.0,120.0,120.0,0.0,64.0
5284,75.0,0.0,240.0,0.0,64.0
5285,56.0,0.0,120.0,0.0,64.0
5286,80.0,0.0,720.0,0.0,64.0
5287,64.0,120.0,120.0,0.0,64.0
5288,71.0,120.0,240.0,0.0,64.0
5289,59.0,0.0,120.0,0.0,64.0
5290,76.0,0.0,240.0,0.0,64.0
5291,61.0,120.0,120.0,0.0,64.0
5292,56.0,120.0,120.0,0.0,64.0
5293,73.0,120.0,240.0,0.0,64.0
5294,58.0,120.0,120.0,0.0,64.0
5295,56.0,0.0,120.0,0.0,64.0
5296,78.0,120.0,120.0,0.0,64.0
5297,58.0,0.0,120.0,0.0,64.0
5298,70.0,0.0,240.0,0.0,64.0
5299,56.0,0.0,120.0,0.0,64.0
5300,76.0,120.0,120.0,0.0,64.0
5301,57.0,120.0,120.0,0.0,64.0
5302,75.0,120.0,240.0,0.0,64.0
5303,56.0,0.0,120.0,0.0,64.0
5304,57.0,120.0,120.0,0.0,64.0
5305,78.0,0.0,240.0,0.0,64.0
5306,54.0,120.0,120.0,0.0,64.0
5307,72.0,0.0,240.0,0.0,64.0
5308,75.0,0.0,120.0,0.0,64.0
5309,72.0,120.0,120.0,0.0,64.0
5310,56.0,120.0,15.0,0.0,64.0
5311,68.0,120.0,240.0,0.0,64.0
5312,75.0,0.0,120.0,0.0,64.0
5313,52.0,120.0,240.0,0.0,64.0
5314,76.0,120.0,120.0,0.0,64.0
5315,80.0,0.0,120.0,0.0,64.0
5316,73.0,120.0,120.0,0.0,64.0
5317,57.0,0.0,240.0,0.0,64.0
5318,76.0,120.0,120.0,0.0,64.0
5319,81.0,120.0,120.0,0.0,64.0
5320,54.0,0.0,240.0,0.0,64.0
5321,78.0,0.0,120.0,0.0,64.0
5322,51.0,0.0,240.0,0.0,64.0
5323,80.0,0.0,120.0,0.0,64.0
5324,71.0,120.0,120.0,0.0,64.0
5325,81.0,0.0,120.0,0.0,64.0
5326,69.0,120.0,120.0,0.0,64.0
5327,80.0,120.0,120.0,0.0,64.0
5328,71.0,120.0,600.0,0.0,64.0
5329,56.0,0.0,240.0,0.0,64.0
5330,78.0,120.0,120.0,0.0,64.0
5331,77.0,120.0,120.0,0.0,64.0
5332,59.0,0.0,240.0,0.0,64.0
5333,75.0,120.0,120.0,0.0,64.0
5334,53.0,120.0,240.0,0.0,64.0
5335,73.0,0.0,240.0,0.0,64.0
5336,68.0,0.0,120.0,0.0,64.0
5337,49.0,0.0,240.0,0.0,64.0
5338,65.0,120.0,120.0,0.0,64.0
5339,85.0,0.0,240.0,0.0,64.0
5340,68.0,120.0,120.0,0.0,64.0
5341,54.0,0.0,720.0,0.0,64.0
5342,81.0,0.0,240.0,0.0,64.0
5343,69.0,120.0,120.0,0.0,64.0
5344,73.0,120.0,120.0,0.0,64.0
5345,66.0,120.0,120.0,0.0,64.0
5346,86.0,120.0,240.0,0.0,64.0
5347,69.0,0.0,120.0,0.0,64.0
5348,83.0,120.0,240.0,0.0,64.0
5349,74.0,120.0,120.0,0.0,64.0
5350,71.0,0.0,120.0,0.0,64.0
5351,73.0,0.0,120.0,0.0,64.0
5352,80.0,120.0,240.0,0.0,64.0
5353,52.0,120.0,120.0,0.0,64.0
5354,74.0,0.0,120.0,0.0,64.0
5355,50.0,0.0,120.0,0.0,64.0
5356,68.0,120.0,120.0,0.0,64.0
5357,52.0,0.0,240.0,0.0,64.0
5358,85.0,120.0,600.0,0.0,64.0
5359,71.0,120.0,120.0,0.0,64.0
5360,49.0,0.0,240.0,0.0,64.0
5361,69.0,120.0,120.0,0.0,64.0
5362,68.0,120.0,120.0,0.0,64.0
5363,66.0,0.0,480.0,0.0,64.0
5364,50.0,240.0,480.0,0.0,64.0
5365,78.0,120.0,120.0,0.0,64.0
5366,80.0,120.0,120.0,0.0,64.0
5367,81.0,0.0,120.0,0.0,64.0
5368,83.0,0.0,240.0,0.0,64.0
5369,56.0,120.0,120.0,0.0,64.0
5370,74.0,0.0,240.0,0.0,64.0
5371,54.0,120.0,120.0,0.0,64.0
5372,56.0,120.0,120.0,0.0,64.0
5373,53.0,120.0,120.0,0.0,64.0
5374,73.0,120.0,240.0,0.0,64.0
5375,56.0,0.0,120.0,0.0,64.0
5376,49.0,120.0,120.0,0.0,64.0
5377,83.0,0.0,240.0,0.0,64.0
5378,53.0,30.0,120.0,0.0,64.0
5379,81.0,30.0,30.0,0.0,64.0
5380,42.0,0.0,240.0,0.0,64.0
5381,83.0,60.0,30.0,0.0,64.0
5382,81.0,120.0,60.0,0.0,64.0
5383,80.0,120.0,120.0,0.0,64.0
5384,81.0,120.0,120.0,0.0,64.0
5385,54.0,0.0,480.0,0.0,64.0
5386,83.0,120.0,120.0,0.0,64.0
5387,80.0,120.0,120.0,0.0,64.0
5388,78.0,120.0,120.0,0.0,64.0
5389,73.0,0.0,240.0,0.0,64.0
5390,53.0,120.0,240.0,0.0,64.0
5391,80.0,120.0,120.0,0.0,64.0
5392,81.0,0.0,120.0,0.0,64.0
5393,80.0,120.0,120.0,0.0,64.0
5394,54.0,120.0,240.0,0.0,64.0
5395,69.0,0.0,240.0,0.0,64.0
5396,78.0,0.0,120.0,0.0,64.0
5397,74.0,0.0,240.0,0.0,64.0
5398,77.0,120.0,120.0,0.0,64.0
5399,59.0,0.0,240.0,0.0,64.0
5400,78.0,120.0,120.0,0.0,64.0
5401,56.0,0.0,240.0,0.0,64.0
5402,86.0,120.0,120.0,0.0,64.0
5403,71.0,0.0,240.0,0.0,64.0
5404,77.0,120.0,120.0,0.0,64.0
5405,68.0,120.0,240.0,0.0,64.0
5406,62.0,0.0,240.0,0.0,64.0
5407,78.0,120.0,120.0,0.0,64.0
5408,80.0,0.0,120.0,0.0,64.0
5409,78.0,120.0,120.0,0.0,64.0
5410,61.0,0.0,240.0,0.0,64.0
5411,73.0,120.0,600.0,0.0,64.0
5412,77.0,120.0,120.0,0.0,64.0
5413,75.0,120.0,120.0,0.0,64.0
5414,59.0,0.0,240.0,0.0,64.0
5415,77.0,120.0,120.0,0.0,64.0
5416,57.0,0.0,240.0,0.0,64.0
5417,78.0,0.0,120.0,0.0,64.0
5418,76.0,0.0,120.0,0.0,64.0
5419,66.0,120.0,120.0,0.0,64.0
5420,74.0,0.0,120.0,0.0,64.0
5421,54.0,0.0,240.0,0.0,64.0
5422,68.0,120.0,120.0,0.0,64.0
5423,69.0,120.0,120.0,0.0,64.0
5424,73.0,0.0,120.0,0.0,64.0
5425,74.0,120.0,120.0,0.0,64.0
5426,71.0,120.0,240.0,0.0,64.0
5427,78.0,0.0,120.0,0.0,64.0
5428,62.0,120.0,240.0,0.0,64.0
5429,83.0,120.0,120.0,0.0,64.0
5430,80.0,0.0,120.0,0.0,64.0
5431,78.0,120.0,120.0,0.0,64.0
5432,61.0,0.0,240.0,0.0,64.0
5433,77.0,120.0,120.0,0.0,64.0
5434,75.0,120.0,120.0,0.0,64.0
5435,71.0,0.0,240.0,0.0,64.0
5436,73.0,30.0,120.0,0.0,64.0
5437,69.0,30.0,30.0,0.0,64.0
5438,85.0,120.0,240.0,0.0,64.0
5439,71.0,60.0,30.0,0.0,64.0
5440,69.0,120.0,60.0,0.0,64.0
5441,68.0,0.0,120.0,0.0,64.0
5442,69.0,120.0,120.0,0.0,64.0
5443,78.0,120.0,360.0,0.0,64.0
5444,71.0,120.0,120.0,0.0,64.0
5445,68.0,0.0,480.0,0.0,64.0
5446,77.0,120.0,120.0,0.0,64.0
5447,75.0,120.0,120.0,0.0,64.0
5448,61.0,120.0,240.0,0.0,64.0
5449,77.0,0.0,120.0,0.0,64.0
5450,78.0,120.0,120.0,0.0,64.0
5451,57.0,0.0,240.0,0.0,64.0
5452,73.0,0.0,120.0,0.0,64.0
5453,62.0,0.0,240.0,0.0,64.0
5454,69.0,120.0,120.0,0.0,64.0
5455,78.0,0.0,480.0,0.0,64.0
5456,66.0,120.0,120.0,0.0,64.0
5457,59.0,120.0,240.0,0.0,64.0
5458,68.0,120.0,120.0,0.0,64.0
5459,66.0,0.0,120.0,0.0,64.0
5460,76.0,0.0,120.0,0.0,64.0
5461,56.0,120.0,240.0,0.0,64.0
5462,68.0,120.0,120.0,0.0,64.0
5463,75.0,0.0,120.0,0.0,64.0
5464,69.0,0.0,120.0,0.0,64.0
5465,68.0,120.0,120.0,0.0,64.0
5466,61.0,0.0,480.0,0.0,64.0
5467,76.0,0.0,960.0,0.0,64.0
5468,73.0,120.0,120.0,0.0,64.0
5469,68.0,120.0,120.0,0.0,64.0
5470,64.0,120.0,120.0,0.0,64.0
5471,66.0,120.0,120.0,0.0,64.0
5472,64.0,120.0,120.0,0.0,64.0
5473,57.0,120.0,240.0,0.0,64.0
5474,66.0,120.0,120.0,0.0,64.0
5475,68.0,0.0,120.0,0.0,64.0
5476,74.0,120.0,720.0,0.0,64.0
5477,66.0,120.0,120.0,0.0,64.0
5478,54.0,0.0,240.0,0.0,64.0
5479,69.0,120.0,120.0,0.0,64.0
5480,66.0,120.0,120.0,0.0,64.0
5481,59.0,0.0,240.0,0.0,64.0
5482,62.0,120.0,120.0,0.0,64.0
5483,56.0,0.0,240.0,0.0,64.0
5484,64.0,120.0,120.0,0.0,64.0
5485,62.0,0.0,120.0,0.0,64.0
5486,52.0,0.0,240.0,0.0,64.0
5487,73.0,0.0,120.0,0.0,64.0
5488,64.0,120.0,120.0,0.0,64.0
5489,66.0,0.0,120.0,0.0,64.0
5490,71.0,120.0,120.0,0.0,64.0
5491,57.0,120.0,480.0,0.0,64.0
5492,73.0,0.0,960.0,0.0,64.0
5493,64.0,120.0,120.0,0.0,64.0
5494,69.0,120.0,120.0,0.0,64.0
5495,64.0,120.0,120.0,0.0,64.0
5496,61.0,0.0,120.0,0.0,64.0
5497,62.0,120.0,120.0,0.0,64.0
5498,61.0,120.0,120.0,0.0,64.0
5499,62.0,120.0,120.0,0.0,64.0
5500,54.0,0.0,240.0,0.0,64.0
5501,64.0,120.0,120.0,0.0,64.0
5502,56.0,0.0,240.0,0.0,64.0
5503,62.0,120.0,120.0,0.0,64.0
5504,71.0,120.0,600.0,0.0,64.0
5505,66.0,120.0,120.0,0.0,64.0
5506,64.0,120.0,120.0,0.0,64.0
5507,59.0,0.0,240.0,0.0,64.0
5508,62.0,120.0,120.0,0.0,64.0
5509,61.0,120.0,600.0,0.0,64.0
5510,53.0,0.0,240.0,0.0,64.0
5511,68.0,120.0,120.0,0.0,64.0
5512,69.0,120.0,120.0,0.0,64.0
5513,49.0,120.0,240.0,0.0,64.0
5514,71.0,0.0,120.0,0.0,64.0
5515,54.0,120.0,960.0,0.0,64.0
5516,69.0,0.0,15.0,0.0,64.0
5517,73.0,120.0,120.0,0.0,64.0
5518,66.0,120.0,120.0,0.0,64.0
5519,69.0,0.0,120.0,0.0,64.0
5520,62.0,0.0,120.0,0.0,64.0
5521,66.0,120.0,120.0,0.0,64.0
5522,71.0,0.0,240.0,0.0,64.0
5523,68.0,120.0,120.0,0.0,64.0
5524,66.0,120.0,120.0,0.0,64.0
5525,62.0,120.0,480.0,0.0,64.0
5526,68.0,120.0,120.0,0.0,64.0
5527,69.0,0.0,120.0,0.0,64.0
5528,53.0,0.0,480.0,0.0,64.0
5529,68.0,120.0,120.0,0.0,64.0
5530,71.0,0.0,120.0,0.0,64.0
5531,68.0,0.0,120.0,0.0,64.0
5532,61.0,120.0,120.0,0.0,64.0
5533,65.0,0.0,120.0,0.0,64.0
5534,59.0,240.0,120.0,0.0,64.0
5535,54.0,0.0,240.0,0.0,64.0
5536,73.0,120.0,240.0,0.0,64.0
5537,57.0,0.0,240.0,0.0,64.0
5538,50.0,0.0,240.0,0.0,64.0
5539,66.0,0.0,240.0,0.0,64.0
5540,71.0,120.0,120.0,0.0,64.0
5541,69.0,120.0,120.0,0.0,64.0
5542,47.0,0.0,240.0,0.0,64.0
5543,56.0,120.0,240.0,0.0,64.0
5544,71.0,120.0,120.0,0.0,64.0
5545,69.0,0.0,120.0,0.0,64.0
5546,49.0,0.0,240.0,0.0,64.0
5547,65.0,120.0,240.0,0.0,64.0
5548,68.0,120.0,120.0,0.0,64.0
5549,71.0,0.0,120.0,0.0,64.0
5550,69.0,120.0,120.0,0.0,64.0
5551,42.0,120.0,240.0,0.0,64.0
5552,66.0,0.0,120.0,0.0,64.0
5553,69.0,120.0,120.0,0.0,64.0
5554,54.0,240.0,240.0,0.0,64.0
5555,73.0,0.0,120.0,0.0,64.0
5556,78.0,120.0,600.0,0.0,64.0
5557,61.0,120.0,120.0,0.0,64.0
5558,57.0,0.0,15.0,0.0,64.0
5559,54.0,0.0,120.0,0.0,64.0
5560,62.0,0.0,120.0,0.0,64.0
5561,59.0,0.0,120.0,0.0,64.0
5562,74.0,120.0,120.0,0.0,64.0
5563,78.0,0.0,120.0,0.0,64.0
5564,62.0,120.0,120.0,0.0,64.0
5565,59.0,120.0,240.0,0.0,64.0
5566,66.0,0.0,120.0,0.0,64.0
5567,83.0,0.0,120.0,0.0,64.0
5568,62.0,0.0,240.0,0.0,64.0
5569,71.0,120.0,120.0,0.0,64.0
5570,78.0,120.0,120.0,0.0,64.0
5571,59.0,0.0,240.0,0.0,64.0
5572,74.0,120.0,120.0,0.0,64.0
5573,71.0,120.0,120.0,0.0,64.0
5574,80.0,120.0,120.0,0.0,64.0
5575,64.0,0.0,120.0,0.0,64.0
5576,52.0,0.0,240.0,0.0,64.0
5577,68.0,120.0,15.0,0.0,64.0
5578,71.0,120.0,15.0,0.0,64.0
5579,76.0,120.0,120.0,0.0,64.0
5580,56.0,0.0,240.0,0.0,64.0
5581,64.0,120.0,120.0,0.0,64.0
5582,76.0,120.0,600.0,0.0,64.0
5583,71.0,120.0,120.0,0.0,64.0
5584,52.0,120.0,240.0,0.0,64.0
5585,68.0,120.0,120.0,0.0,64.0
5586,64.0,0.0,120.0,0.0,64.0
5587,73.0,0.0,15.0,0.0,64.0
5588,57.0,120.0,15.0,0.0,64.0
5589,76.0,0.0,120.0,0.0,64.0
5590,61.0,120.0,120.0,0.0,64.0
5591,81.0,0.0,120.0,0.0,64.0
5592,64.0,0.0,120.0,0.0,64.0
5593,61.0,120.0,240.0,0.0,64.0
5594,69.0,120.0,120.0,0.0,64.0
5595,76.0,0.0,120.0,0.0,64.0
5596,73.0,120.0,120.0,0.0,64.0
5597,57.0,0.0,240.0,0.0,64.0
5598,69.0,120.0,120.0,0.0,64.0
5599,78.0,0.0,120.0,0.0,64.0
5600,66.0,120.0,120.0,0.0,64.0
5601,74.0,0.0,120.0,0.0,64.0
5602,78.0,0.0,120.0,0.0,64.0
5603,69.0,120.0,120.0,0.0,64.0
5604,50.0,120.0,240.0,0.0,64.0
5605,81.0,0.0,120.0,0.0,64.0
5606,74.0,0.0,120.0,0.0,64.0
5607,62.0,120.0,120.0,0.0,64.0
5608,54.0,120.0,240.0,0.0,64.0
5609,86.0,120.0,600.0,0.0,64.0
5610,69.0,0.0,120.0,0.0,64.0
5611,50.0,0.0,240.0,0.0,64.0
5612,66.0,120.0,120.0,0.0,64.0
5613,62.0,120.0,120.0,0.0,64.0
5614,56.0,120.0,240.0,0.0,64.0
5615,71.0,120.0,600.0,0.0,64.0
5616,83.0,0.0,120.0,0.0,64.0
5617,80.0,120.0,120.0,0.0,64.0
5618,52.0,0.0,240.0,0.0,64.0
5619,76.0,120.0,120.0,0.0,64.0
5620,57.0,0.0,240.0,0.0,64.0
5621,85.0,120.0,360.0,0.0,64.0
5622,64.0,120.0,120.0,0.0,64.0
5623,61.0,0.0,240.0,0.0,64.0
5624,69.0,0.0,360.0,0.0,64.0
5625,81.0,120.0,120.0,0.0,64.0
5626,74.0,120.0,120.0,0.0,64.0
5627,54.0,0.0,240.0,0.0,64.0
5628,62.0,0.0,120.0,0.0,64.0
5629,78.0,120.0,120.0,0.0,64.0
5630,61.0,120.0,120.0,0.0,64.0
5631,76.0,0.0,120.0,0.0,64.0
5632,56.0,0.0,240.0,0.0,64.0
5633,74.0,120.0,120.0,0.0,64.0
5634,59.0,0.0,120.0,0.0,64.0
5635,57.0,120.0,120.0,0.0,64.0
5636,73.0,0.0,240.0,0.0,64.0
5637,66.0,120.0,120.0,0.0,64.0
5638,68.0,120.0,120.0,0.0,64.0
5639,78.0,0.0,240.0,0.0,64.0
5640,69.0,120.0,120.0,0.0,64.0
5641,74.0,120.0,240.0,0.0,64.0
5642,71.0,120.0,120.0,0.0,64.0
5643,69.0,0.0,120.0,0.0,64.0
5644,56.0,0.0,120.0,0.0,64.0
5645,71.0,120.0,120.0,0.0,64.0
5646,54.0,120.0,120.0,0.0,64.0
5647,73.0,0.0,120.0,0.0,64.0
5648,71.0,0.0,15.0,0.0,64.0
5649,56.0,120.0,240.0,0.0,64.0
5650,76.0,120.0,600.0,0.0,64.0
5651,74.0,0.0,120.0,0.0,64.0
5652,73.0,120.0,120.0,0.0,64.0
5653,52.0,120.0,240.0,0.0,64.0
5654,71.0,0.0,120.0,0.0,64.0
5655,54.0,120.0,480.0,0.0,64.0
5656,69.0,120.0,120.0,0.0,64.0
5657,71.0,120.0,120.0,0.0,64.0
5658,73.0,0.0,120.0,0.0,64.0
5659,74.0,120.0,240.0,0.0,64.0
5660,66.0,0.0,120.0,0.0,64.0
5661,59.0,0.0,240.0,0.0,64.0
5662,64.0,120.0,120.0,0.0,64.0
5663,66.0,0.0,240.0,0.0,64.0
5664,62.0,120.0,120.0,0.0,64.0
5665,64.0,120.0,240.0,0.0,64.0
5666,71.0,120.0,120.0,0.0,64.0
5667,56.0,0.0,240.0,0.0,64.0
5668,69.0,0.0,120.0,0.0,64.0
5669,74.0,0.0,240.0,0.0,64.0
5670,52.0,0.0,240.0,0.0,64.0
5671,68.0,120.0,120.0,0.0,64.0
5672,66.0,120.0,120.0,0.0,64.0
5673,57.0,0.0,240.0,0.0,64.0
5674,64.0,0.0,240.0,0.0,64.0
5675,73.0,120.0,120.0,0.0,64.0
5676,71.0,120.0,120.0,0.0,64.0
5677,45.0,0.0,240.0,0.0,64.0
5678,69.0,120.0,360.0,0.0,64.0
5679,73.0,120.0,120.0,0.0,64.0
5680,74.0,120.0,120.0,0.0,64.0
5681,52.0,120.0,1200.0,0.0,64.0
5682,71.0,120.0,240.0,0.0,64.0
5683,68.0,0.0,120.0,0.0,64.0
5684,69.0,120.0,120.0,0.0,64.0
5685,73.0,0.0,120.0,0.0,64.0
5686,74.0,120.0,120.0,0.0,64.0
5687,66.0,0.0,120.0,0.0,64.0
5688,68.0,0.0,240.0,0.0,64.0
5689,76.0,120.0,120.0,0.0,64.0
5690,78.0,120.0,120.0,0.0,64.0
5691,73.0,0.0,240.0,0.0,64.0
5692,80.0,120.0,120.0,0.0,64.0
5693,76.0,120.0,120.0,0.0,64.0
5694,69.0,0.0,240.0,0.0,64.0
5695,78.0,120.0,120.0,0.0,64.0
5696,76.0,0.0,120.0,0.0,64.0
5697,78.0,0.0,120.0,0.0,64.0
5698,66.0,0.0,240.0,0.0,64.0
5699,62.0,120.0,120.0,0.0,64.0
5700,80.0,120.0,120.0,0.0,64.0
5701,61.0,0.0,120.0,0.0,64.0
5702,71.0,120.0,600.0,0.0,64.0
5703,62.0,0.0,240.0,0.0,64.0
5704,78.0,120.0,120.0,0.0,64.0
5705,81.0,120.0,120.0,0.0,64.0
5706,59.0,120.0,240.0,0.0,64.0
5707,80.0,120.0,120.0,0.0,64.0
5708,78.0,0.0,120.0,0.0,64.0
5709,76.0,120.0,600.0,0.0,64.0
5710,61.0,120.0,480.0,0.0,64.0
5711,64.0,120.0,120.0,0.0,64.0
5712,66.0,120.0,120.0,0.0,64.0
5713,68.0,0.0,120.0,0.0,64.0
5714,73.0,120.0,120.0,0.0,64.0
5715,66.0,120.0,240.0,0.0,64.0
5716,71.0,120.0,120.0,0.0,64.0
5717,69.0,0.0,120.0,0.0,64.0
5718,78.0,120.0,120.0,0.0,64.0
5719,62.0,120.0,240.0,0.0,64.0
5720,76.0,0.0,120.0,0.0,64.0
5721,74.0,120.0,120.0,0.0,64.0
5722,59.0,0.0,240.0,0.0,64.0
5723,73.0,0.0,120.0,0.0,64.0
5724,71.0,120.0,120.0,0.0,64.0
5725,68.0,30.0,30.0,0.0,64.0
5726,64.0,0.0,240.0,0.0,64.0
5727,69.0,60.0,30.0,0.0,64.0
5728,68.0,60.0,300.0,0.0,64.0
5729,76.0,120.0,120.0,0.0,64.0
5730,52.0,0.0,240.0,0.0,64.0
5731,74.0,0.0,120.0,0.0,64.0
5732,76.0,0.0,120.0,0.0,64.0
5733,66.0,60.0,60.0,0.0,64.0
5734,68.0,120.0,60.0,0.0,64.0
5735,57.0,0.0,240.0,0.0,64.0
5736,73.0,0.0,240.0,0.0,64.0
5737,69.0,120.0,120.0,0.0,64.0
5738,71.0,120.0,120.0,0.0,64.0
5739,81.0,0.0,240.0,0.0,64.0
5740,69.0,120.0,120.0,0.0,64.0
5741,71.0,120.0,120.0,0.0,64.0
5742,73.0,120.0,120.0,0.0,64.0
5743,69.0,120.0,240.0,0.0,64.0
5744,54.0,0.0,240.0,0.0,64.0
5745,74.0,0.0,120.0,0.0,64.0
5746,73.0,120.0,120.0,0.0,64.0
5747,81.0,0.0,240.0,0.0,64.0
5748,59.0,120.0,240.0,0.0,64.0
5749,74.0,120.0,15.0,0.0,64.0
5750,71.0,120.0,120.0,0.0,64.0
5751,73.0,0.0,120.0,0.0,64.0
5752,81.0,0.0,240.0,0.0,64.0
5753,71.0,120.0,120.0,0.0,64.0
5754,73.0,120.0,120.0,0.0,64.0
5755,74.0,120.0,120.0,0.0,64.0
5756,52.0,0.0,240.0,0.0,64.0
5757,71.0,0.0,240.0,0.0,64.0
5758,76.0,120.0,120.0,0.0,64.0
5759,80.0,0.0,240.0,0.0,64.0
5760,74.0,120.0,120.0,0.0,64.0
5761,76.0,120.0,120.0,0.0,64.0
5762,73.0,0.0,240.0,0.0,64.0
5763,57.0,0.0,240.0,0.0,64.0
5764,81.0,120.0,120.0,0.0,64.0
5765,83.0,120.0,120.0,0.0,64.0
5766,69.0,0.0,240.0,0.0,64.0
5767,81.0,120.0,120.0,0.0,64.0
5768,83.0,120.0,120.0,0.0,64.0
5769,57.0,120.0,240.0,0.0,64.0
5770,85.0,120.0,120.0,0.0,64.0
5771,86.0,0.0,120.0,0.0,64.0
5772,69.0,0.0,240.0,0.0,64.0
5773,85.0,120.0,120.0,0.0,64.0
5774,86.0,120.0,120.0,0.0,64.0
5775,62.0,0.0,240.0,0.0,64.0
5776,83.0,120.0,120.0,0.0,64.0
5777,85.0,120.0,120.0,0.0,64.0
5778,69.0,120.0,240.0,0.0,64.0
5779,83.0,120.0,120.0,0.0,64.0
5780,85.0,0.0,120.0,0.0,64.0
5781,86.0,120.0,120.0,0.0,64.0
5782,59.0,0.0,240.0,0.0,64.0
5783,88.0,120.0,120.0,0.0,64.0
5784,68.0,120.0,240.0,0.0,64.0
5785,86.0,120.0,120.0,0.0,64.0
5786,88.0,0.0,120.0,0.0,64.0
5787,85.0,0.0,240.0,0.0,64.0
5788,69.0,0.0,240.0,0.0,64.0
5789,57.0,120.0,120.0,0.0,64.0
5790,59.0,120.0,120.0,0.0,64.0
5791,57.0,120.0,120.0,0.0,64.0
5792,81.0,0.0,240.0,0.0,64.0
5793,59.0,120.0,120.0,0.0,64.0
5794,69.0,0.0,240.0,0.0,64.0
5795,61.0,120.0,120.0,0.0,64.0
5796,76.0,120.0,240.0,0.0,64.0
5797,62.0,0.0,120.0,0.0,64.0
5798,61.0,120.0,120.0,0.0,64.0
5799,81.0,0.0,240.0,0.0,64.0
5800,62.0,120.0,120.0,0.0,64.0
5801,59.0,120.0,120.0,0.0,64.0
5802,78.0,0.0,240.0,0.0,64.0
5803,74.0,120.0,240.0,0.0,64.0
5804,61.0,0.0,120.0,0.0,64.0
5805,59.0,120.0,120.0,0.0,64.0
5806,81.0,120.0,240.0,0.0,64.0
5807,61.0,0.0,120.0,0.0,64.0
5808,62.0,120.0,120.0,0.0,64.0
5809,71.0,0.0,240.0,0.0,64.0
5810,80.0,0.0,240.0,0.0,64.0
5811,64.0,120.0,120.0,0.0,64.0
5812,62.0,120.0,120.0,0.0,64.0
5813,80.0,0.0,240.0,0.0,64.0
5814,64.0,240.0,120.0,0.0,64.0
5815,81.0,0.0,240.0,0.0,64.0
5816,61.0,120.0,240.0,0.0,64.0
5817,76.0,120.0,240.0,0.0,64.0
5818,57.0,0.0,240.0,0.0,64.0
5819,81.0,120.0,120.0,0.0,64.0
5820,80.0,0.0,120.0,0.0,64.0
5821,78.0,120.0,120.0,0.0,64.0
5822,59.0,0.0,240.0,0.0,64.0
5823,81.0,0.0,960.0,0.0,64.0
5824,76.0,120.0,120.0,0.0,64.0
5825,74.0,120.0,120.0,0.0,64.0
5826,61.0,0.0,240.0,0.0,64.0
5827,73.0,120.0,120.0,0.0,64.0
5828,71.0,120.0,120.0,0.0,64.0
5829,62.0,0.0,240.0,0.0,64.0
5830,73.0,120.0,120.0,0.0,64.0
5831,54.0,120.0,240.0,0.0,64.0
5832,71.0,120.0,120.0,0.0,64.0
5833,73.0,0.0,120.0,0.0,64.0
5834,74.0,120.0,120.0,0.0,64.0
5835,80.0,120.0,960.0,0.0,64.0
5836,59.0,0.0,240.0,0.0,64.0
5837,76.0,120.0,120.0,0.0,64.0
5838,74.0,120.0,120.0,0.0,64.0
5839,56.0,0.0,240.0,0.0,64.0
5840,76.0,120.0,120.0,0.0,64.0
5841,61.0,0.0,240.0,0.0,64.0
5842,69.0,120.0,120.0,0.0,64.0
5843,71.0,120.0,120.0,0.0,64.0
5844,52.0,0.0,240.0,0.0,64.0
5845,69.0,120.0,120.0,0.0,64.0
5846,71.0,0.0,120.0,0.0,64.0
5847,73.0,120.0,120.0,0.0,64.0
5848,78.0,0.0,960.0,0.0,64.0
5849,57.0,0.0,240.0,0.0,64.0
5850,74.0,120.0,120.0,0.0,64.0
5851,73.0,120.0,120.0,0.0,64.0
5852,54.0,0.0,240.0,0.0,64.0
5853,74.0,120.0,120.0,0.0,64.0
5854,59.0,0.0,240.0,0.0,64.0
5855,68.0,120.0,120.0,0.0,64.0
5856,69.0,120.0,120.0,0.0,64.0
5857,68.0,120.0,120.0,0.0,64.0
5858,51.0,120.0,240.0,0.0,64.0
5859,69.0,0.0,120.0,0.0,64.0
5860,56.0,0.0,240.0,0.0,64.0
5861,77.0,120.0,240.0,0.0,64.0
5862,71.0,120.0,120.0,0.0,64.0
5863,73.0,0.0,120.0,0.0,64.0
5864,85.0,0.0,240.0,0.0,64.0
5865,71.0,120.0,120.0,0.0,64.0
5866,53.0,0.0,240.0,0.0,64.0
5867,73.0,120.0,120.0,0.0,64.0
5868,54.0,0.0,240.0,0.0,64.0
5869,78.0,120.0,120.0,0.0,64.0
5870,69.0,120.0,240.0,0.0,64.0
5871,80.0,0.0,120.0,0.0,64.0
5872,78.0,120.0,120.0,0.0,64.0
5873,73.0,0.0,240.0,0.0,64.0
5874,80.0,120.0,120.0,0.0,64.0
5875,50.0,120.0,240.0,0.0,64.0
5876,66.0,0.0,240.0,0.0,64.0
5877,81.0,120.0,120.0,0.0,64.0
5878,83.0,0.0,120.0,0.0,64.0
5879,81.0,120.0,120.0,0.0,64.0
5880,78.0,120.0,240.0,0.0,64.0
5881,83.0,0.0,120.0,0.0,64.0
5882,47.0,120.0,240.0,0.0,64.0
5883,80.0,120.0,120.0,0.0,64.0
5884,74.0,0.0,240.0,0.0,64.0
5885,81.0,0.0,120.0,0.0,64.0
5886,78.0,0.0,240.0,0.0,64.0
5887,80.0,120.0,120.0,0.0,64.0
5888,81.0,120.0,120.0,0.0,64.0
5889,68.0,0.0,240.0,0.0,64.0
5890,83.0,120.0,120.0,0.0,64.0
5891,49.0,120.0,240.0,0.0,64.0
5892,85.0,0.0,120.0,0.0,64.0
5893,83.0,120.0,120.0,0.0,64.0
5894,77.0,120.0,240.0,0.0,64.0
5895,85.0,0.0,120.0,0.0,64.0
5896,66.0,0.0,120.0,0.0,64.0
5897,81.0,120.0,120.0,0.0,64.0
5898,42.0,120.0,240.0,0.0,64.0
5899,68.0,0.0,120.0,0.0,64.0
5900,83.0,0.0,120.0,0.0,64.0
5901,66.0,120.0,120.0,0.0,64.0
5902,49.0,0.0,240.0,0.0,64.0
5903,81.0,0.0,120.0,0.0,64.0
5904,68.0,120.0,120.0,0.0,64.0
5905,83.0,0.0,120.0,0.0,64.0
5906,69.0,0.0,120.0,0.0,64.0
5907,85.0,120.0,120.0,0.0,64.0
5908,54.0,120.0,960.0,0.0,64.0
5909,71.0,120.0,120.0,0.0,64.0
5910,86.0,0.0,120.0,0.0,64.0
5911,69.0,0.0,120.0,0.0,64.0
5912,85.0,120.0,120.0,0.0,64.0
5913,86.0,0.0,120.0,0.0,64.0
5914,71.0,120.0,120.0,0.0,64.0
5915,83.0,0.0,120.0,0.0,64.0
5916,68.0,120.0,120.0,0.0,64.0
5917,85.0,0.0,120.0,0.0,64.0
5918,69.0,120.0,120.0,0.0,64.0
5919,83.0,0.0,120.0,0.0,64.0
5920,68.0,120.0,120.0,0.0,64.0
5921,81.0,0.0,120.0,0.0,64.0
5922,69.0,0.0,120.0,0.0,64.0
5923,53.0,120.0,480.0,0.0,64.0
5924,71.0,120.0,120.0,0.0,64.0
5925,80.0,0.0,720.0,0.0,64.0
5926,73.0,120.0,120.0,0.0,64.0
5927,71.0,120.0,120.0,0.0,64.0
5928,73.0,0.0,120.0,0.0,64.0
5929,69.0,120.0,120.0,0.0,64.0
5930,54.0,0.0,480.0,0.0,64.0
5931,68.0,120.0,120.0,0.0,64.0
5932,69.0,120.0,120.0,0.0,64.0
5933,85.0,0.0,240.0,0.0,64.0
5934,73.0,240.0,120.0,0.0,64.0
5935,81.0,0.0,240.0,0.0,64.0
5936,78.0,0.0,720.0,0.0,64.0
5937,59.0,120.0,120.0,0.0,64.0
5938,57.0,120.0,120.0,0.0,64.0
5939,86.0,240.0,240.0,0.0,64.0
5940,59.0,0.0,120.0,0.0,64.0
5941,56.0,120.0,480.0,0.0,64.0
5942,85.0,120.0,240.0,0.0,64.0
5943,80.0,0.0,240.0,0.0,64.0
5944,76.0,120.0,120.0,0.0,64.0
5945,74.0,0.0,120.0,0.0,64.0
5946,76.0,120.0,120.0,0.0,64.0
5947,85.0,120.0,600.0,0.0,64.0
5948,73.0,120.0,120.0,0.0,64.0
5949,58.0,0.0,240.0,0.0,64.0
5950,66.0,120.0,120.0,0.0,64.0
5951,76.0,120.0,120.0,0.0,64.0
5952,74.0,120.0,600.0,0.0,64.0
5953,59.0,0.0,480.0,0.0,64.0
5954,78.0,120.0,120.0,0.0,64.0
5955,80.0,120.0,120.0,0.0,64.0
5956,81.0,120.0,120.0,0.0,64.0
5957,83.0,0.0,240.0,0.0,64.0
5958,71.0,120.0,120.0,0.0,64.0
5959,59.0,0.0,480.0,0.0,64.0
5960,74.0,0.0,240.0,0.0,64.0
5961,68.0,120.0,120.0,0.0,64.0
5962,71.0,120.0,120.0,0.0,64.0
5963,73.0,0.0,240.0,0.0,64.0
5964,65.0,120.0,120.0,0.0,64.0
5965,66.0,120.0,120.0,0.0,64.0
5966,68.0,120.0,120.0,0.0,64.0
5967,53.0,0.0,240.0,0.0,64.0
5968,83.0,0.0,240.0,0.0,64.0
5969,65.0,30.0,120.0,0.0,64.0
5970,81.0,30.0,30.0,0.0,64.0
5971,54.0,0.0,240.0,0.0,64.0
5972,61.0,120.0,240.0,0.0,64.0
5973,83.0,60.0,30.0,0.0,64.0
5974,81.0,120.0,60.0,0.0,64.0
5975,80.0,0.0,120.0,0.0,64.0
5976,48.0,120.0,240.0,0.0,64.0
5977,78.0,120.0,360.0,0.0,64.0
5978,81.0,120.0,120.0,0.0,64.0
5979,83.0,0.0,120.0,0.0,64.0
5980,49.0,120.0,1200.0,0.0,64.0
5981,80.0,120.0,240.0,0.0,64.0
5982,76.0,0.0,120.0,0.0,64.0
5983,78.0,120.0,120.0,0.0,64.0
5984,82.0,0.0,120.0,0.0,64.0
5985,84.0,120.0,120.0,0.0,64.0
5986,75.0,0.0,120.0,0.0,64.0
5987,76.0,120.0,240.0,0.0,64.0
5988,85.0,120.0,120.0,0.0,64.0
5989,87.0,0.0,120.0,0.0,64.0
5990,88.0,120.0,120.0,0.0,64.0
5991,81.0,120.0,240.0,0.0,64.0
5992,85.0,0.0,120.0,0.0,64.0
5993,87.0,120.0,120.0,0.0,64.0
5994,78.0,0.0,240.0,0.0,64.0
5995,85.0,0.0,120.0,0.0,64.0
5996,87.0,0.0,120.0,0.0,64.0
5997,75.0,0.0,240.0,0.0,64.0
5998,59.0,120.0,120.0,0.0,64.0
5999,88.0,120.0,120.0,0.0,64.0
6000,57.0,0.0,120.0,0.0,64.0
6001,87.0,120.0,120.0,0.0,64.0
6002,59.0,120.0,240.0,0.0,64.0
6003,80.0,0.0,120.0,0.0,64.0
6004,56.0,0.0,240.0,0.0,64.0
6005,82.0,120.0,120.0,0.0,64.0
6006,84.0,120.0,120.0,0.0,64.0
6007,85.0,120.0,600.0,0.0,64.0
6008,57.0,0.0,480.0,0.0,64.0
6009,73.0,120.0,120.0,0.0,64.0
6010,75.0,120.0,120.0,0.0,64.0
6011,76.0,120.0,120.0,0.0,64.0
6012,78.0,0.0,240.0,0.0,64.0
6013,81.0,120.0,120.0,0.0,64.0
6014,69.0,0.0,240.0,0.0,64.0
6015,63.0,120.0,240.0,0.0,64.0
6016,80.0,120.0,120.0,0.0,64.0
6017,78.0,0.0,120.0,0.0,64.0
6018,60.0,0.0,240.0,0.0,64.0
6019,68.0,0.0,240.0,0.0,64.0
6020,87.0,120.0,120.0,0.0,64.0
6021,85.0,120.0,120.0,0.0,64.0
6022,56.0,0.0,240.0,0.0,64.0
6023,78.0,30.0,240.0,0.0,64.0
6024,84.0,120.0,120.0,0.0,64.0
6025,82.0,0.0,120.0,0.0,64.0
6026,80.0,0.0,240.0,0.0,64.0
6027,61.0,0.0,240.0,0.0,64.0
6028,76.0,30.0,30.0,0.0,64.0
6029,78.0,60.0,30.0,0.0,64.0
6030,76.0,120.0,60.0,0.0,64.0
6031,75.0,120.0,120.0,0.0,64.0
6032,85.0,120.0,360.0,0.0,64.0
6033,76.0,120.0,120.0,0.0,64.0
6034,49.0,0.0,240.0,0.0,64.0
6035,78.0,120.0,120.0,0.0,64.0
6036,44.0,120.0,240.0,0.0,64.0
6037,75.0,0.0,480.0,0.0,64.0
6038,84.0,0.0,120.0,0.0,64.0
6039,82.0,120.0,120.0,0.0,64.0
6040,56.0,0.0,240.0,0.0,64.0
6041,84.0,240.0,120.0,0.0,64.0
6042,52.0,0.0,240.0,0.0,64.0
6043,85.0,120.0,960.0,0.0,64.0
6044,80.0,120.0,120.0,0.0,64.0
6045,57.0,0.0,240.0,0.0,64.0
6046,78.0,120.0,120.0,0.0,64.0
6047,76.0,120.0,120.0,0.0,64.0
6048,54.0,0.0,240.0,0.0,64.0
6049,75.0,120.0,120.0,0.0,64.0
6050,76.0,120.0,120.0,0.0,64.0
6051,51.0,0.0,240.0,0.0,64.0
6052,75.0,120.0,120.0,0.0,64.0
6053,76.0,0.0,120.0,0.0,64.0
6054,83.0,240.0,960.0,0.0,64.0
6055,78.0,120.0,120.0,0.0,64.0
6056,56.0,0.0,480.0,0.0,64.0
6057,80.0,120.0,120.0,0.0,64.0
6058,78.0,120.0,120.0,0.0,64.0
6059,80.0,120.0,120.0,0.0,64.0
6060,78.0,120.0,120.0,0.0,64.0
6061,77.0,120.0,120.0,0.0,64.0
6062,61.0,0.0,240.0,0.0,64.0
6063,75.0,120.0,120.0,0.0,64.0
6064,73.0,0.0,120.0,0.0,64.0
6065,57.0,0.0,240.0,0.0,64.0
6066,78.0,0.0,960.0,0.0,64.0
6067,85.0,120.0,120.0,0.0,64.0
6068,83.0,120.0,120.0,0.0,64.0
6069,62.0,120.0,240.0,0.0,64.0
6070,81.0,0.0,120.0,0.0,64.0
6071,59.0,0.0,240.0,0.0,64.0
6072,80.0,120.0,120.0,0.0,64.0
6073,81.0,120.0,120.0,0.0,64.0
6074,80.0,120.0,120.0,0.0,64.0
6075,56.0,0.0,240.0,0.0,64.0
6076,81.0,120.0,120.0,0.0,64.0
6077,83.0,120.0,120.0,0.0,64.0
6078,76.0,0.0,960.0,0.0,64.0
6079,61.0,120.0,480.0,0.0,64.0
6080,85.0,120.0,120.0,0.0,64.0
6081,83.0,120.0,120.0,0.0,64.0
6082,85.0,0.0,120.0,0.0,64.0
6083,83.0,120.0,120.0,0.0,64.0
6084,82.0,120.0,120.0,0.0,64.0
6085,80.0,120.0,120.0,0.0,64.0
6086,54.0,0.0,240.0,0.0,64.0
6087,78.0,240.0,120.0,0.0,64.0
6088,51.0,0.0,240.0,0.0,64.0
6089,83.0,0.0,960.0,0.0,64.0
6090,78.0,120.0,120.0,0.0,64.0
6091,76.0,120.0,120.0,0.0,64.0
6092,56.0,0.0,240.0,0.0,64.0
6093,75.0,120.0,120.0,0.0,64.0
6094,73.0,120.0,120.0,0.0,64.0
6095,52.0,120.0,240.0,0.0,64.0
6096,75.0,0.0,120.0,0.0,64.0
6097,73.0,120.0,120.0,0.0,64.0
6098,49.0,120.0,240.0,0.0,64.0
6099,75.0,0.0,120.0,0.0,64.0
6100,76.0,120.0,120.0,0.0,64.0
6101,54.0,120.0,480.0,0.0,64.0
6102,81.0,240.0,960.0,0.0,64.0
6103,78.0,120.0,120.0,0.0,64.0
6104,76.0,120.0,120.0,0.0,64.0
6105,78.0,0.0,120.0,0.0,64.0
6106,76.0,120.0,120.0,0.0,64.0
6107,75.0,120.0,120.0,0.0,64.0
6108,59.0,0.0,240.0,0.0,64.0
6109,73.0,120.0,120.0,0.0,64.0
6110,71.0,0.0,120.0,0.0,64.0
6111,76.0,120.0,960.0,0.0,64.0
6112,56.0,0.0,240.0,0.0,64.0
6113,83.0,120.0,120.0,0.0,64.0
6114,61.0,120.0,240.0,0.0,64.0
6115,81.0,120.0,120.0,0.0,64.0
6116,80.0,0.0,120.0,0.0,64.0
6117,78.0,120.0,120.0,0.0,64.0
6118,57.0,120.0,240.0,0.0,64.0
6119,80.0,0.0,120.0,0.0,64.0
6120,78.0,120.0,120.0,0.0,64.0
6121,54.0,0.0,240.0,0.0,64.0
6122,80.0,0.0,120.0,0.0,64.0
6123,59.0,0.0,240.0,0.0,64.0
6124,81.0,120.0,120.0,0.0,64.0
6125,75.0,240.0,480.0,0.0,64.0
6126,83.0,120.0,120.0,0.0,64.0
6127,47.0,0.0,240.0,0.0,64.0
6128,81.0,120.0,120.0,0.0,64.0
6129,83.0,0.0,120.0,0.0,64.0
6130,52.0,240.0,480.0,0.0,64.0
6131,76.0,240.0,240.0,0.0,64.0
6132,80.0,0.0,480.0,0.0,64.0
6133,71.0,0.0,240.0,0.0,64.0
6134,68.0,240.0,240.0,0.0,64.0
6135,73.0,0.0,240.0,0.0,64.0
6136,76.0,240.0,240.0,0.0,64.0
6137,69.0,240.0,240.0,0.0,64.0
6138,73.0,0.0,240.0,0.0,64.0
6139,78.0,240.0,240.0,0.0,64.0
6140,66.0,0.0,240.0,0.0,64.0
6141,75.0,240.0,240.0,0.0,64.0
6142,59.0,120.0,240.0,0.0,64.0
6143,71.0,0.0,240.0,0.0,64.0
6144,76.0,120.0,600.0,0.0,64.0
6145,56.0,120.0,240.0,0.0,64.0
6146,64.0,0.0,120.0,0.0,64.0
6147,66.0,120.0,120.0,0.0,64.0
6148,61.0,0.0,240.0,0.0,64.0
6149,68.0,120.0,120.0,0.0,64.0
6150,69.0,120.0,600.0,0.0,64.0
6151,57.0,0.0,240.0,0.0,64.0
6152,81.0,120.0,120.0,0.0,64.0
6153,54.0,120.0,240.0,0.0,64.0
6154,83.0,120.0,120.0,0.0,64.0
6155,85.0,0.0,120.0,0.0,64.0
6156,59.0,0.0,240.0,0.0,64.0
6157,75.0,0.0,120.0,0.0,64.0
6158,63.0,120.0,120.0,0.0,64.0
6159,78.0,0.0,120.0,0.0,64.0
6160,51.0,120.0,240.0,0.0,64.0
6161,80.0,120.0,120.0,0.0,64.0
6162,64.0,0.0,120.0,0.0,64.0
6163,66.0,0.0,120.0,0.0,64.0
6164,81.0,0.0,120.0,0.0,64.0
6165,68.0,0.0,120.0,0.0,64.0
6166,52.0,120.0,240.0,0.0,64.0
6167,71.0,120.0,120.0,0.0,64.0
6168,75.0,0.0,120.0,0.0,64.0
6169,66.0,0.0,120.0,0.0,64.0
6170,68.0,120.0,120.0,0.0,64.0
6171,46.0,0.0,240.0,0.0,64.0
6172,76.0,0.0,120.0,0.0,64.0
6173,69.0,120.0,120.0,0.0,64.0
6174,78.0,0.0,120.0,0.0,64.0
6175,47.0,0.0,480.0,0.0,64.0
6176,66.0,120.0,120.0,0.0,64.0
6177,75.0,0.0,480.0,0.0,64.0
6178,59.0,120.0,120.0,0.0,64.0
6179,63.0,120.0,120.0,0.0,64.0
6180,66.0,240.0,120.0,0.0,64.0
6181,83.0,120.0,120.0,0.0,64.0
6182,78.0,120.0,120.0,0.0,64.0
6183,51.0,0.0,240.0,0.0,64.0
6184,81.0,120.0,120.0,0.0,64.0
6185,80.0,120.0,120.0,0.0,64.0
6186,52.0,120.0,240.0,0.0,64.0
6187,83.0,0.0,120.0,0.0,64.0
6188,75.0,120.0,120.0,0.0,64.0
6189,54.0,120.0,240.0,0.0,64.0
6190,78.0,0.0,120.0,0.0,64.0
6191,56.0,0.0,240.0,0.0,64.0
6192,76.0,120.0,120.0,0.0,64.0
6193,80.0,120.0,120.0,0.0,64.0
6194,57.0,0.0,240.0,0.0,64.0
6195,78.0,120.0,120.0,0.0,64.0
6196,76.0,120.0,120.0,0.0,64.0
6197,59.0,0.0,240.0,0.0,64.0
6198,75.0,120.0,120.0,0.0,64.0
6199,71.0,120.0,120.0,0.0,64.0
6200,75.0,120.0,120.0,0.0,64.0
6201,61.0,0.0,240.0,0.0,64.0
6202,78.0,0.0,120.0,0.0,64.0
6203,83.0,240.0,1920.0,0.0,64.0
6204,63.0,120.0,240.0,0.0,64.0
6205,71.0,0.0,120.0,0.0,64.0
6206,66.0,120.0,120.0,0.0,64.0
6207,59.0,0.0,240.0,0.0,64.0
6208,69.0,120.0,120.0,0.0,64.0
6209,64.0,120.0,240.0,0.0,64.0
6210,68.0,120.0,120.0,0.0,64.0
6211,71.0,0.0,120.0,0.0,64.0
6212,59.0,120.0,240.0,0.0,64.0
6213,63.0,120.0,120.0,0.0,64.0
6214,66.0,0.0,120.0,0.0,64.0
6215,64.0,120.0,120.0,0.0,64.0
6216,56.0,120.0,240.0,0.0,64.0
6217,68.0,0.0,120.0,0.0,64.0
6218,66.0,120.0,120.0,0.0,64.0
6219,52.0,120.0,240.0,0.0,64.0
6220,64.0,0.0,120.0,0.0,64.0
6221,63.0,120.0,120.0,0.0,64.0
6222,59.0,120.0,120.0,0.0,64.0
6223,63.0,120.0,120.0,0.0,64.0
6224,66.0,0.0,120.0,0.0,64.0
6225,71.0,120.0,600.0,0.0,64.0
6226,80.0,120.0,120.0,0.0,64.0
6227,56.0,120.0,240.0,0.0,64.0
6228,75.0,120.0,120.0,0.0,64.0
6229,78.0,0.0,120.0,0.0,64.0
6230,61.0,120.0,240.0,0.0,64.0
6231,76.0,0.0,240.0,0.0,64.0
6232,69.0,0.0,120.0,0.0,64.0
6233,85.0,0.0,240.0,0.0,64.0
6234,52.0,240.0,240.0,0.0,64.0
6235,68.0,120.0,120.0,0.0,64.0
6236,71.0,0.0,120.0,0.0,64.0
6237,54.0,0.0,240.0,0.0,64.0
6238,69.0,120.0,600.0,0.0,64.0
6239,78.0,120.0,120.0,0.0,64.0
6240,73.0,120.0,120.0,0.0,64.0
6241,57.0,120.0,240.0,0.0,64.0
6242,76.0,0.0,120.0,0.0,64.0
6243,75.0,120.0,240.0,0.0,64.0
6244,59.0,0.0,120.0,0.0,64.0
6245,63.0,120.0,120.0,0.0,64.0
6246,51.0,240.0,240.0,0.0,64.0
6247,83.0,0.0,240.0,0.0,64.0
6248,66.0,0.0,120.0,0.0,64.0
6249,68.0,120.0,600.0,0.0,64.0
6250,52.0,0.0,240.0,0.0,64.0
6251,76.0,120.0,120.0,0.0,64.0
6252,56.0,0.0,240.0,0.0,64.0
6253,71.0,120.0,120.0,0.0,64.0
6254,74.0,120.0,120.0,0.0,64.0
6255,57.0,0.0,1200.0,0.0,64.0
6256,73.0,0.0,240.0,0.0,64.0
6257,66.0,120.0,120.0,0.0,64.0
6258,85.0,120.0,120.0,0.0,64.0
6259,64.0,0.0,120.0,0.0,64.0
6260,68.0,120.0,120.0,0.0,64.0
6261,83.0,0.0,120.0,0.0,64.0
6262,81.0,120.0,120.0,0.0,64.0
6263,66.0,120.0,600.0,0.0,64.0
6264,80.0,120.0,120.0,0.0,64.0
6265,78.0,120.0,120.0,0.0,64.0
6266,76.0,120.0,120.0,0.0,64.0
6267,75.0,0.0,240.0,0.0,64.0
6268,76.0,120.0,120.0,0.0,64.0
6269,71.0,0.0,240.0,0.0,64.0
6270,75.0,120.0,120.0,0.0,64.0
6271,59.0,0.0,240.0,0.0,64.0
6272,73.0,120.0,120.0,0.0,64.0
6273,76.0,0.0,960.0,0.0,64.0
6274,56.0,0.0,240.0,0.0,64.0
6275,71.0,120.0,120.0,0.0,64.0
6276,69.0,120.0,120.0,0.0,64.0
6277,68.0,120.0,120.0,0.0,64.0
6278,61.0,0.0,240.0,0.0,64.0
6279,69.0,120.0,120.0,0.0,64.0
6280,68.0,120.0,120.0,0.0,64.0
6281,57.0,120.0,240.0,0.0,64.0
6282,66.0,0.0,120.0,0.0,64.0
6283,73.0,120.0,120.0,0.0,64.0
6284,54.0,120.0,240.0,0.0,64.0
6285,71.0,0.0,120.0,0.0,64.0
6286,69.0,120.0,120.0,0.0,64.0
6287,75.0,0.0,480.0,0.0,64.0
6288,59.0,0.0,240.0,0.0,64.0
6289,68.0,120.0,120.0,0.0,64.0
6290,66.0,120.0,120.0,0.0,64.0
6291,47.0,960.0,240.0,0.0,64.0
6292,69.0,0.0,120.0,0.0,64.0
6293,76.0,0.0,960.0,0.0,64.0
6294,52.0,0.0,960.0,0.0,64.0
6295,68.0,0.0,960.0,0.0,64.0
6296,40.0,0.0,960.0,0.0,64.0
