,note,step,duration,channel,velocity
0,56.0,512.0,1020.0,5.0,0.0
1,63.0,0.0,1020.0,5.0,0.0
2,56.0,256.0,270.0,6.0,0.0
3,58.0,256.0,270.0,6.0,0.0
4,59.0,256.0,270.0,6.0,0.0
5,53.0,256.0,270.0,6.0,0.0
6,63.0,256.0,780.0,5.0,0.0
7,56.0,256.0,270.0,6.0,0.0
8,59.0,256.0,780.0,6.0,0.0
9,64.0,256.0,270.0,5.0,0.0
10,61.0,256.0,1020.0,5.0,0.0
11,59.0,256.0,270.0,6.0,0.0
12,58.0,256.0,270.0,6.0,0.0
13,56.0,0.0,270.0,6.0,0.0
14,55.0,256.0,270.0,6.0,0.0
15,58.0,256.0,270.0,6.0,0.0
16,61.0,256.0,780.0,6.0,0.0
17,63.0,256.0,15.0,5.0,0.0
18,56.0,0.0,780.0,5.0,0.0
19,61.0,256.0,270.0,6.0,0.0
20,59.0,256.0,270.0,6.0,0.0
21,58.0,0.0,270.0,5.0,0.0
22,58.0,256.0,270.0,6.0,0.0
23,59.0,256.0,1020.0,5.0,0.0
24,56.0,256.0,270.0,6.0,0.0
25,63.0,0.0,1020.0,4.0,0.0
26,51.0,256.0,270.0,6.0,0.0
27,56.0,256.0,270.0,6.0,0.0
28,54.0,0.0,270.0,6.0,0.0
29,52.0,256.0,270.0,6.0,0.0
30,59.0,256.0,1020.0,5.0,0.0
31,49.0,256.0,270.0,6.0,0.0
32,51.0,256.0,270.0,6.0,0.0
33,52.0,0.0,270.0,6.0,0.0
34,68.0,0.0,15.0,4.0,0.0
35,58.0,0.0,2040.0,5.0,0.0
36,46.0,256.0,270.0,6.0,0.0
37,49.0,256.0,270.0,6.0,0.0
38,70.0,256.0,270.0,4.0,0.0
39,67.0,256.0,1020.0,4.0,0.0
40,52.0,256.0,15.0,6.0,0.0
41,51.0,256.0,270.0,6.0,0.0
42,49.0,0.0,270.0,6.0,0.0
43,68.0,0.0,1020.0,4.0,0.0
44,48.0,256.0,270.0,6.0,0.0
45,56.0,256.0,780.0,5.0,0.0
46,51.0,256.0,270.0,6.0,0.0
47,56.0,256.0,780.0,6.0,0.0
48,58.0,256.0,270.0,5.0,0.0
49,60.0,0.0,780.0,5.0,0.0
50,63.0,256.0,780.0,4.0,0.0
51,56.0,256.0,270.0,6.0,0.0
52,54.0,0.0,270.0,6.0,0.0
53,65.0,0.0,270.0,4.0,0.0
54,62.0,256.0,270.0,5.0,0.0
55,53.0,0.0,270.0,6.0,0.0
56,51.0,256.0,270.0,6.0,0.0
57,63.0,256.0,780.0,5.0,0.0
58,46.0,256.0,270.0,6.0,0.0
59,51.0,0.0,270.0,6.0,0.0
60,49.0,0.0,270.0,6.0,0.0
61,58.0,256.0,270.0,5.0,0.0
62,66.0,0.0,15.0,4.0,0.0
63,63.0,0.0,780.0,5.0,0.0
64,47.0,256.0,270.0,6.0,0.0
65,42.0,256.0,270.0,6.0,0.0
66,44.0,256.0,270.0,6.0,0.0
67,61.0,0.0,270.0,5.0,0.0
68,46.0,256.0,270.0,6.0,0.0
69,44.0,256.0,270.0,6.0,0.0
70,59.0,256.0,780.0,5.0,0.0
71,65.0,0.0,2040.0,4.0,0.0
72,47.0,256.0,270.0,6.0,0.0
73,51.0,0.0,1020.0,6.0,0.0
74,58.0,256.0,270.0,5.0,0.0
75,56.0,256.0,270.0,5.0,0.0
76,59.0,256.0,270.0,5.0,0.0
77,49.0,256.0,780.0,6.0,0.0
78,58.0,256.0,270.0,5.0,0.0
79,56.0,256.0,270.0,5.0,0.0
80,55.0,0.0,1020.0,5.0,0.0
81,63.0,256.0,2040.0,4.0,0.0
82,52.0,256.0,270.0,6.0,0.0
83,51.0,256.0,270.0,6.0,0.0
84,49.0,256.0,270.0,6.0,0.0
85,47.0,256.0,270.0,6.0,0.0
86,55.0,256.0,270.0,5.0,0.0
87,49.0,0.0,270.0,6.0,0.0
88,47.0,256.0,270.0,6.0,0.0
89,56.0,0.0,270.0,5.0,0.0
90,46.0,0.0,270.0,6.0,0.0
91,58.0,0.0,270.0,5.0,0.0
92,59.0,256.0,270.0,5.0,0.0
93,44.0,0.0,270.0,6.0,0.0
94,44.0,0.0,1020.0,7.0,0.0
95,58.0,0.0,270.0,5.0,0.0
96,67.0,256.0,270.0,4.0,0.0
97,59.0,256.0,270.0,5.0,0.0
98,68.0,0.0,270.0,4.0,0.0
99,70.0,0.0,270.0,4.0,0.0
100,61.0,256.0,270.0,5.0,0.0
101,63.0,0.0,270.0,5.0,0.0
102,71.0,256.0,270.0,4.0,0.0
103,59.0,256.0,270.0,5.0,0.0
104,68.0,0.0,270.0,4.0,0.0
105,70.0,256.0,270.0,4.0,0.0
106,61.0,0.0,270.0,5.0,0.0
107,71.0,0.0,270.0,4.0,0.0
108,63.0,256.0,270.0,5.0,0.0
109,65.0,256.0,270.0,4.0,0.0
110,56.0,256.0,780.0,5.0,0.0
111,51.0,0.0,15.0,7.0,0.0
112,68.0,256.0,270.0,4.0,0.0
113,71.0,0.0,780.0,4.0,0.0
114,66.0,0.0,270.0,5.0,0.0
115,64.0,256.0,270.0,5.0,0.0
116,49.0,0.0,1020.0,7.0,0.0
117,63.0,0.0,270.0,5.0,0.0
118,71.0,256.0,270.0,4.0,0.0
119,61.0,0.0,270.0,5.0,0.0
120,70.0,256.0,270.0,4.0,0.0
121,59.0,0.0,270.0,5.0,0.0
122,68.0,256.0,270.0,4.0,0.0
123,58.0,256.0,270.0,5.0,0.0
124,51.0,256.0,1020.0,7.0,0.0
125,67.0,0.0,270.0,4.0,0.0
126,51.0,0.0,270.0,5.0,0.0
127,70.0,256.0,270.0,4.0,0.0
128,53.0,256.0,270.0,5.0,0.0
129,55.0,0.0,270.0,5.0,0.0
130,56.0,0.0,270.0,5.0,0.0
131,44.0,0.0,1020.0,7.0,0.0
132,73.0,256.0,15.0,4.0,0.0
133,58.0,0.0,270.0,5.0,0.0
134,59.0,256.0,270.0,5.0,0.0
135,71.0,0.0,270.0,4.0,0.0
136,70.0,256.0,270.0,4.0,0.0
137,61.0,0.0,270.0,5.0,0.0
138,63.0,256.0,780.0,5.0,0.0
139,68.0,256.0,270.0,4.0,0.0
140,71.0,256.0,270.0,4.0,0.0
141,75.0,0.0,780.0,4.0,0.0
142,61.0,0.0,270.0,5.0,0.0
143,59.0,256.0,270.0,5.0,0.0
144,47.0,256.0,15.0,7.0,0.0
145,63.0,0.0,270.0,5.0,0.0
146,71.0,256.0,270.0,4.0,0.0
147,76.0,256.0,270.0,4.0,0.0
148,68.0,256.0,780.0,5.0,0.0
149,75.0,256.0,270.0,4.0,0.0
150,46.0,0.0,2040.0,7.0,0.0
151,73.0,256.0,1290.0,4.0,0.0
152,65.0,256.0,270.0,5.0,0.0
153,70.0,256.0,270.0,5.0,0.0
154,68.0,256.0,270.0,5.0,0.0
155,67.0,256.0,1020.0,5.0,0.0
156,70.0,256.0,270.0,4.0,0.0
157,75.0,256.0,270.0,4.0,0.0
158,73.0,0.0,270.0,4.0,0.0
159,71.0,0.0,780.0,4.0,0.0
160,68.0,256.0,270.0,5.0,0.0
161,44.0,0.0,4110.0,7.0,0.0
162,56.0,256.0,270.0,5.0,0.0
163,68.0,256.0,270.0,5.0,0.0
164,70.0,256.0,270.0,4.0,0.0
165,66.0,0.0,270.0,5.0,0.0
166,68.0,256.0,780.0,4.0,0.0
167,64.0,256.0,270.0,5.0,0.0
168,56.0,256.0,270.0,5.0,0.0
169,64.0,0.0,270.0,5.0,0.0
170,66.0,0.0,270.0,4.0,0.0
171,63.0,256.0,270.0,5.0,0.0
172,64.0,256.0,780.0,4.0,0.0
173,61.0,256.0,270.0,5.0,0.0
174,68.0,0.0,1020.0,2.0,0.0
175,56.0,256.0,270.0,5.0,0.0
176,61.0,256.0,780.0,5.0,0.0
177,66.0,256.0,270.0,4.0,0.0
178,63.0,0.0,510.0,4.0,0.0
179,75.0,256.0,1020.0,2.0,0.0
180,56.0,256.0,270.0,5.0,0.0
181,58.0,256.0,270.0,5.0,0.0
182,68.0,0.0,510.0,4.0,0.0
183,59.0,0.0,270.0,5.0,0.0
184,53.0,256.0,270.0,5.0,0.0
185,71.0,256.0,510.0,4.0,0.0
186,75.0,256.0,780.0,2.0,0.0
187,56.0,0.0,270.0,5.0,0.0
188,59.0,256.0,780.0,5.0,0.0
189,68.0,256.0,510.0,4.0,0.0
190,76.0,0.0,270.0,2.0,0.0
191,73.0,0.0,1020.0,2.0,0.0
192,65.0,256.0,510.0,4.0,0.0
193,59.0,0.0,270.0,5.0,0.0
194,58.0,0.0,270.0,5.0,0.0
195,67.0,256.0,270.0,4.0,0.0
196,56.0,256.0,270.0,5.0,0.0
197,68.0,0.0,270.0,4.0,0.0
198,70.0,0.0,270.0,4.0,0.0
199,55.0,256.0,270.0,5.0,0.0
200,75.0,256.0,1020.0,2.0,0.0
201,73.0,0.0,270.0,4.0,0.0
202,58.0,256.0,270.0,5.0,0.0
203,67.0,256.0,270.0,4.0,0.0
204,63.0,0.0,510.0,4.0,0.0
205,68.0,0.0,780.0,2.0,0.0
206,61.0,256.0,15.0,5.0,0.0
207,64.0,256.0,270.0,4.0,0.0
208,59.0,256.0,270.0,5.0,0.0
209,58.0,0.0,270.0,5.0,0.0
210,70.0,256.0,270.0,2.0,0.0
211,56.0,256.0,270.0,5.0,0.0
212,44.0,256.0,270.0,6.0,0.0
213,56.0,256.0,270.0,6.0,0.0
214,63.0,0.0,15.0,4.0,0.0
215,54.0,0.0,270.0,6.0,0.0
216,52.0,256.0,270.0,6.0,0.0
217,68.0,0.0,780.0,4.0,0.0
218,71.0,256.0,15.0,2.0,0.0
219,44.0,256.0,270.0,6.0,0.0
220,52.0,256.0,270.0,6.0,0.0
221,51.0,256.0,270.0,6.0,0.0
222,66.0,0.0,270.0,4.0,0.0
223,64.0,0.0,1530.0,4.0,0.0
224,49.0,256.0,270.0,6.0,0.0
225,71.0,0.0,15.0,2.0,0.0
226,52.0,256.0,270.0,6.0,0.0
227,73.0,256.0,270.0,2.0,0.0
228,56.0,256.0,780.0,6.0,0.0
229,71.0,256.0,270.0,2.0,0.0
230,70.0,0.0,270.0,2.0,0.0
231,54.0,256.0,270.0,6.0,0.0
232,71.0,0.0,270.0,2.0,0.0
233,52.0,0.0,270.0,6.0,0.0
234,68.0,256.0,270.0,2.0,0.0
235,68.0,256.0,1800.0,4.0,0.0
236,70.0,0.0,270.0,2.0,0.0
237,51.0,256.0,270.0,6.0,0.0
238,70.0,0.0,2040.0,2.0,0.0
239,50.0,256.0,270.0,6.0,0.0
240,53.0,256.0,270.0,6.0,0.0
241,58.0,256.0,270.0,6.0,0.0
242,50.0,256.0,270.0,6.0,0.0
243,51.0,256.0,780.0,6.0,0.0
244,65.0,256.0,270.0,4.0,0.0
245,67.0,0.0,510.0,4.0,0.0
246,51.0,256.0,270.0,6.0,0.0
247,61.0,0.0,270.0,5.0,0.0
248,68.0,0.0,270.0,2.0,0.0
249,68.0,256.0,270.0,4.0,0.0
250,60.0,256.0,780.0,5.0,0.0
251,44.0,0.0,780.0,6.0,0.0
252,63.0,256.0,270.0,2.0,0.0
253,68.0,256.0,780.0,2.0,0.0
254,46.0,0.0,270.0,6.0,0.0
255,61.0,256.0,270.0,5.0,0.0
256,48.0,256.0,780.0,6.0,0.0
257,63.0,256.0,1290.0,5.0,0.0
258,66.0,256.0,270.0,2.0,0.0
259,64.0,0.0,270.0,2.0,0.0
260,63.0,0.0,270.0,2.0,0.0
261,44.0,256.0,270.0,6.0,0.0
262,64.0,256.0,780.0,2.0,0.0
263,49.0,0.0,780.0,6.0,0.0
264,56.0,256.0,270.0,5.0,0.0
265,61.0,256.0,780.0,5.0,0.0
266,66.0,256.0,270.0,2.0,0.0
267,51.0,0.0,270.0,6.0,0.0
268,68.0,256.0,510.0,2.0,0.0
269,52.0,0.0,780.0,6.0,0.0
270,64.0,256.0,780.0,5.0,0.0
271,73.0,0.0,510.0,2.0,0.0
272,73.0,256.0,270.0,4.0,0.0
273,67.0,0.0,270.0,4.0,0.0
274,49.0,0.0,270.0,6.0,0.0
275,63.0,0.0,270.0,5.0,0.0
276,72.0,256.0,270.0,2.0,0.0
277,68.0,256.0,780.0,4.0,0.0
278,56.0,256.0,2310.0,6.0,0.0
279,66.0,0.0,270.0,5.0,0.0
280,75.0,256.0,270.0,2.0,0.0
281,64.0,0.0,270.0,5.0,0.0
282,78.0,0.0,510.0,2.0,0.0
283,63.0,0.0,270.0,5.0,0.0
284,72.0,256.0,270.0,4.0,0.0
285,76.0,0.0,270.0,2.0,0.0
286,73.0,256.0,2550.0,4.0,0.0
287,61.0,256.0,270.0,5.0,0.0
288,80.0,0.0,270.0,2.0,0.0
289,64.0,256.0,270.0,5.0,0.0
290,85.0,0.0,270.0,2.0,0.0
291,63.0,256.0,270.0,5.0,0.0
292,61.0,0.0,270.0,5.0,0.0
293,79.0,256.0,270.0,2.0,0.0
294,80.0,256.0,2310.0,2.0,0.0
295,63.0,256.0,510.0,5.0,0.0
296,56.0,0.0,3840.0,6.0,0.0
297,68.0,256.0,270.0,5.0,0.0
298,67.0,256.0,270.0,5.0,0.0
299,68.0,256.0,270.0,5.0,0.0
300,63.0,512.0,2820.0,5.0,0.0
301,72.0,256.0,270.0,4.0,0.0
302,70.0,256.0,270.0,4.0,0.0
303,72.0,0.0,2040.0,4.0,0.0
304,75.0,256.0,270.0,2.0,0.0
305,80.0,256.0,270.0,2.0,0.0
306,79.0,256.0,270.0,2.0,0.0
307,80.0,256.0,270.0,2.0,0.0
308,80.0,0.0,1020.0,3.0,0.0
309,75.0,0.0,780.0,3.0,0.0
310,75.0,512.0,270.0,2.0,0.0
311,68.0,0.0,510.0,2.0,0.0
312,68.0,256.0,270.0,3.0,0.0
313,66.0,256.0,270.0,3.0,0.0
314,64.0,0.0,270.0,3.0,0.0
315,59.0,512.0,15.0,5.0,0.0
316,63.0,0.0,780.0,3.0,0.0
317,56.0,256.0,270.0,6.0,0.0
318,54.0,256.0,270.0,6.0,0.0
319,52.0,0.0,270.0,6.0,0.0
320,64.0,0.0,270.0,3.0,0.0
321,66.0,0.0,1530.0,3.0,0.0
322,51.0,256.0,270.0,6.0,0.0
323,59.0,256.0,15.0,5.0,0.0
324,54.0,256.0,270.0,6.0,0.0
325,47.0,256.0,780.0,6.0,0.0
326,57.0,256.0,270.0,5.0,0.0
327,56.0,256.0,780.0,5.0,0.0
328,52.0,256.0,270.0,6.0,0.0
329,64.0,512.0,510.0,3.0,0.0
330,40.0,0.0,510.0,6.0,0.0
331,58.0,0.0,270.0,5.0,0.0
332,59.0,256.0,1020.0,5.0,0.0
333,63.0,256.0,780.0,3.0,0.0
334,40.0,256.0,270.0,6.0,0.0
335,56.0,256.0,780.0,6.0,0.0
336,71.0,256.0,1020.0,3.0,0.0
337,61.0,256.0,1020.0,5.0,0.0
338,46.0,256.0,270.0,6.0,0.0
339,54.0,256.0,780.0,6.0,0.0
340,70.0,256.0,1020.0,3.0,0.0
341,63.0,0.0,1020.0,5.0,0.0
342,47.0,256.0,270.0,6.0,0.0
343,59.0,256.0,780.0,6.0,0.0
344,68.0,256.0,270.0,3.0,0.0
345,61.0,0.0,1020.0,5.0,0.0
346,76.0,256.0,780.0,3.0,0.0
347,49.0,256.0,270.0,6.0,0.0
348,58.0,256.0,780.0,6.0,0.0
349,67.0,256.0,270.0,3.0,0.0
350,75.0,256.0,780.0,3.0,0.0
351,59.0,0.0,1020.0,5.0,0.0
352,51.0,256.0,270.0,6.0,0.0
353,56.0,256.0,780.0,6.0,0.0
354,65.0,256.0,270.0,3.0,0.0
355,73.0,256.0,780.0,3.0,0.0
356,58.0,256.0,1020.0,5.0,0.0
357,53.0,256.0,270.0,6.0,0.0
358,55.0,0.0,510.0,6.0,0.0
359,63.0,0.0,270.0,3.0,0.0
360,56.0,256.0,270.0,5.0,0.0
361,71.0,256.0,1290.0,3.0,0.0
362,68.0,256.0,270.0,5.0,0.0
363,66.0,256.0,270.0,5.0,0.0
364,64.0,256.0,270.0,5.0,0.0
365,63.0,0.0,1020.0,5.0,0.0
366,56.0,0.0,15.0,6.0,0.0
367,71.0,0.0,270.0,3.0,0.0
368,54.0,0.0,270.0,6.0,0.0
369,70.0,256.0,270.0,3.0,0.0
370,68.0,0.0,270.0,3.0,0.0
371,53.0,512.0,270.0,6.0,0.0
372,51.0,512.0,1020.0,6.0,0.0
373,63.0,256.0,270.0,5.0,0.0
374,61.0,256.0,270.0,5.0,0.0
375,59.0,0.0,270.0,5.0,0.0
376,66.0,0.0,15.0,3.0,0.0
377,58.0,256.0,780.0,5.0,0.0
378,51.0,256.0,270.0,6.0,0.0
379,49.0,0.0,270.0,6.0,0.0
380,47.0,0.0,270.0,6.0,0.0
381,59.0,0.0,270.0,5.0,0.0
382,46.0,256.0,270.0,6.0,0.0
383,61.0,0.0,1530.0,5.0,0.0
384,66.0,256.0,15.0,3.0,0.0
385,49.0,256.0,270.0,6.0,0.0
386,54.0,256.0,780.0,6.0,0.0
387,64.0,256.0,270.0,3.0,0.0
388,63.0,256.0,780.0,3.0,0.0
389,47.0,256.0,270.0,6.0,0.0
390,59.0,0.0,510.0,6.0,0.0
391,59.0,512.0,510.0,5.0,0.0
392,65.0,0.0,270.0,3.0,0.0
393,66.0,256.0,1020.0,3.0,0.0
394,58.0,256.0,780.0,5.0,0.0
395,51.0,256.0,270.0,6.0,0.0
396,63.0,256.0,780.0,6.0,0.0
397,66.0,256.0,1020.0,5.0,0.0
398,68.0,256.0,1020.0,3.0,0.0
399,53.0,256.0,270.0,6.0,0.0
400,61.0,256.0,780.0,6.0,0.0
401,65.0,256.0,1020.0,5.0,0.0
402,70.0,256.0,1020.0,3.0,0.0
403,54.0,256.0,270.0,6.0,0.0
404,66.0,256.0,780.0,6.0,0.0
405,63.0,0.0,270.0,5.0,0.0
406,68.0,0.0,1020.0,3.0,0.0
407,71.0,256.0,780.0,5.0,0.0
408,56.0,256.0,270.0,6.0,0.0
409,65.0,256.0,780.0,6.0,0.0
410,62.0,256.0,270.0,5.0,0.0
411,70.0,256.0,780.0,5.0,0.0
412,66.0,0.0,1020.0,3.0,0.0
413,58.0,256.0,270.0,6.0,0.0
414,63.0,256.0,780.0,6.0,0.0
415,60.0,256.0,270.0,5.0,0.0
416,65.0,0.0,1020.0,3.0,0.0
417,68.0,256.0,780.0,5.0,0.0
418,60.0,256.0,270.0,6.0,0.0
419,62.0,0.0,510.0,6.0,0.0
420,58.0,256.0,270.0,5.0,0.0
421,63.0,0.0,510.0,6.0,0.0
422,63.0,256.0,270.0,3.0,0.0
423,66.0,256.0,1290.0,5.0,0.0
424,75.0,256.0,270.0,3.0,0.0
425,51.0,0.0,780.0,6.0,0.0
426,73.0,256.0,270.0,3.0,0.0
427,71.0,256.0,270.0,3.0,0.0
428,70.0,0.0,1020.0,3.0,0.0
429,52.0,0.0,270.0,6.0,0.0
430,68.0,256.0,270.0,5.0,0.0
431,51.0,0.0,270.0,6.0,0.0
432,66.0,256.0,270.0,5.0,0.0
433,49.0,256.0,270.0,6.0,0.0
434,64.0,0.0,270.0,5.0,0.0
435,63.0,0.0,270.0,5.0,0.0
436,71.0,256.0,270.0,3.0,0.0
437,47.0,0.0,270.0,6.0,0.0
438,80.0,256.0,270.0,3.0,0.0
439,78.0,256.0,270.0,3.0,0.0
440,76.0,512.0,270.0,3.0,0.0
441,47.0,0.0,15.0,7.0,0.0
442,75.0,256.0,780.0,3.0,0.0
443,68.0,256.0,270.0,5.0,0.0
444,66.0,0.0,270.0,5.0,0.0
445,64.0,0.0,270.0,5.0,0.0
446,76.0,0.0,270.0,3.0,0.0
447,78.0,256.0,780.0,3.0,0.0
448,63.0,256.0,270.0,5.0,0.0
449,47.0,0.0,1020.0,7.0,0.0
450,66.0,256.0,270.0,5.0,0.0
451,59.0,256.0,780.0,5.0,0.0
452,68.0,256.0,270.0,3.0,0.0
453,44.0,0.0,1020.0,7.0,0.0
454,76.0,256.0,780.0,3.0,0.0
455,64.0,256.0,270.0,5.0,0.0
456,52.0,512.0,510.0,5.0,0.0
457,70.0,0.0,270.0,3.0,0.0
458,75.0,256.0,780.0,3.0,0.0
459,47.0,256.0,1020.0,7.0,0.0
460,52.0,256.0,270.0,5.0,0.0
461,68.0,256.0,780.0,5.0,0.0
462,71.0,0.0,270.0,3.0,0.0
463,76.0,256.0,780.0,3.0,0.0
464,49.0,0.0,1020.0,7.0,0.0
465,58.0,256.0,270.0,5.0,0.0
466,66.0,256.0,780.0,5.0,0.0
467,73.0,256.0,270.0,3.0,0.0
468,51.0,256.0,1020.0,7.0,0.0
469,78.0,256.0,780.0,3.0,0.0
470,59.0,256.0,270.0,5.0,0.0
471,71.0,256.0,780.0,5.0,0.0
472,75.0,0.0,270.0,3.0,0.0
473,49.0,0.0,1020.0,7.0,0.0
474,76.0,256.0,780.0,3.0,0.0
475,61.0,256.0,270.0,5.0,0.0
476,70.0,256.0,780.0,5.0,0.0
477,67.0,256.0,270.0,3.0,0.0
478,47.0,256.0,1020.0,7.0,0.0
479,75.0,256.0,780.0,3.0,0.0
480,63.0,256.0,270.0,5.0,0.0
481,68.0,256.0,780.0,5.0,0.0
482,65.0,0.0,270.0,3.0,0.0
483,73.0,256.0,780.0,3.0,0.0
484,46.0,512.0,1020.0,7.0,0.0
485,65.0,256.0,270.0,5.0,0.0
486,67.0,0.0,510.0,5.0,0.0
487,63.0,0.0,270.0,3.0,0.0
488,44.0,0.0,2040.0,7.0,0.0
489,71.0,256.0,1020.0,3.0,0.0
490,68.0,256.0,270.0,5.0,0.0
491,66.0,256.0,270.0,5.0,0.0
492,64.0,0.0,270.0,5.0,0.0
493,63.0,256.0,270.0,5.0,0.0
494,61.0,0.0,270.0,5.0,0.0
495,70.0,256.0,270.0,3.0,0.0
496,59.0,256.0,270.0,5.0,0.0
497,68.0,0.0,270.0,3.0,0.0
498,67.0,256.0,270.0,3.0,0.0
499,58.0,0.0,270.0,5.0,0.0
500,56.0,512.0,1020.0,5.0,0.0
501,68.0,256.0,270.0,3.0,0.0
502,68.0,256.0,270.0,3.0,0.0
503,66.0,256.0,270.0,3.0,0.0
504,64.0,0.0,270.0,3.0,0.0
505,71.0,0.0,15.0,2.0,0.0
506,63.0,256.0,780.0,3.0,0.0
507,56.0,256.0,270.0,6.0,0.0
508,54.0,0.0,270.0,6.0,0.0
509,52.0,0.0,270.0,6.0,0.0
510,64.0,0.0,270.0,3.0,0.0
511,66.0,0.0,1530.0,3.0,0.0
512,71.0,256.0,15.0,2.0,0.0
513,51.0,256.0,270.0,6.0,0.0
514,54.0,256.0,270.0,6.0,0.0
515,47.0,256.0,780.0,6.0,0.0
516,69.0,256.0,270.0,2.0,0.0
517,68.0,256.0,780.0,2.0,0.0
518,52.0,256.0,270.0,6.0,0.0
519,40.0,0.0,510.0,6.0,0.0
520,64.0,0.0,510.0,3.0,0.0
521,70.0,512.0,270.0,2.0,0.0
522,63.0,256.0,780.0,3.0,0.0
523,71.0,0.0,1020.0,2.0,0.0
524,44.0,256.0,270.0,6.0,0.0
525,56.0,256.0,780.0,6.0,0.0
526,59.0,256.0,270.0,3.0,0.0
527,64.0,256.0,780.0,3.0,0.0
528,73.0,0.0,1020.0,2.0,0.0
529,46.0,256.0,270.0,6.0,0.0
530,54.0,256.0,780.0,6.0,0.0
531,61.0,256.0,270.0,3.0,0.0
532,75.0,0.0,1020.0,2.0,0.0
533,66.0,256.0,780.0,3.0,0.0
534,47.0,256.0,270.0,6.0,0.0
535,59.0,256.0,780.0,6.0,0.0
536,68.0,256.0,270.0,3.0,0.0
537,64.0,256.0,780.0,3.0,0.0
538,73.0,256.0,1020.0,2.0,0.0
539,49.0,256.0,270.0,6.0,0.0
540,58.0,256.0,780.0,6.0,0.0
541,66.0,0.0,270.0,3.0,0.0
542,63.0,256.0,780.0,3.0,0.0
543,71.0,256.0,1020.0,2.0,0.0
544,51.0,256.0,270.0,6.0,0.0
545,56.0,256.0,780.0,6.0,0.0
546,64.0,0.0,270.0,3.0,0.0
547,61.0,256.0,780.0,3.0,0.0
548,70.0,0.0,1020.0,2.0,0.0
549,53.0,256.0,270.0,6.0,0.0
550,55.0,256.0,510.0,6.0,0.0
551,63.0,0.0,270.0,3.0,0.0
552,60.0,256.0,510.0,3.0,0.0
553,68.0,256.0,3330.0,2.0,0.0
554,56.0,256.0,270.0,6.0,0.0
555,52.0,0.0,270.0,6.0,0.0
556,61.0,0.0,510.0,3.0,0.0
557,51.0,256.0,270.0,6.0,0.0
558,49.0,512.0,270.0,6.0,0.0
559,48.0,256.0,1020.0,6.0,0.0
560,63.0,256.0,1290.0,3.0,0.0
561,57.0,256.0,270.0,5.0,0.0
562,56.0,256.0,270.0,5.0,0.0
563,54.0,0.0,270.0,5.0,0.0
564,49.0,0.0,2040.0,6.0,0.0
565,53.0,0.0,1020.0,5.0,0.0
566,63.0,256.0,270.0,3.0,0.0
567,61.0,256.0,270.0,3.0,0.0
568,60.0,256.0,270.0,3.0,0.0
569,70.0,256.0,270.0,2.0,0.0
570,68.0,256.0,270.0,2.0,0.0
571,67.0,256.0,270.0,2.0,0.0
572,68.0,512.0,2040.0,2.0,0.0
573,61.0,256.0,15.0,3.0,0.0
574,52.0,0.0,15.0,5.0,0.0
575,59.0,256.0,270.0,3.0,0.0
576,51.0,0.0,270.0,5.0,0.0
577,49.0,0.0,270.0,5.0,0.0
578,58.0,256.0,270.0,3.0,0.0
579,51.0,0.0,1020.0,5.0,0.0
580,44.0,512.0,510.0,5.0,0.0
581,59.0,0.0,1020.0,3.0,0.0
582,44.0,256.0,15.0,6.0,0.0
583,56.0,0.0,510.0,5.0,0.0
584,71.0,256.0,270.0,2.0,0.0
585,70.0,256.0,270.0,2.0,0.0
586,69.0,0.0,270.0,2.0,0.0
587,68.0,256.0,270.0,2.0,0.0
588,59.0,256.0,15.0,3.0,0.0
589,67.0,256.0,270.0,2.0,0.0
590,66.0,256.0,270.0,2.0,0.0
591,64.0,512.0,270.0,2.0,0.0
592,59.0,0.0,15.0,3.0,0.0
593,63.0,256.0,510.0,2.0,0.0
594,56.0,0.0,270.0,5.0,0.0
595,55.0,256.0,270.0,5.0,0.0
596,64.0,0.0,270.0,2.0,0.0
597,66.0,0.0,270.0,2.0,0.0
598,54.0,256.0,270.0,5.0,0.0
599,56.0,0.0,1020.0,3.0,0.0
600,53.0,256.0,270.0,5.0,0.0
601,68.0,0.0,270.0,2.0,0.0
602,70.0,0.0,270.0,2.0,0.0
603,52.0,256.0,270.0,5.0,0.0
604,51.0,0.0,270.0,5.0,0.0
605,71.0,256.0,270.0,2.0,0.0
606,49.0,256.0,270.0,5.0,0.0
607,73.0,0.0,270.0,2.0,0.0
608,59.0,256.0,1020.0,3.0,0.0
609,47.0,0.0,270.0,5.0,0.0
610,75.0,256.0,270.0,2.0,0.0
611,83.0,0.0,270.0,2.0,0.0
612,54.0,256.0,270.0,5.0,0.0
613,55.0,256.0,270.0,5.0,0.0
614,82.0,0.0,270.0,2.0,0.0
615,80.0,0.0,270.0,2.0,0.0
616,56.0,0.0,270.0,5.0,0.0
617,78.0,0.0,270.0,2.0,0.0
618,57.0,256.0,270.0,5.0,0.0
619,61.0,256.0,1020.0,3.0,0.0
620,76.0,0.0,270.0,2.0,0.0
621,58.0,256.0,270.0,5.0,0.0
622,59.0,256.0,270.0,5.0,0.0
623,75.0,0.0,270.0,2.0,0.0
624,61.0,0.0,510.0,5.0,0.0
625,73.0,0.0,270.0,2.0,0.0
626,71.0,128.0,270.0,2.0,0.0
627,63.0,256.0,1020.0,3.0,0.0
628,59.0,128.0,120.0,5.0,0.0
629,68.0,0.0,270.0,2.0,0.0
630,58.0,256.0,120.0,5.0,0.0
631,67.0,256.0,270.0,2.0,0.0
632,59.0,128.0,780.0,5.0,0.0
633,66.0,0.0,270.0,2.0,0.0
634,61.0,0.0,1020.0,3.0,0.0
635,65.0,0.0,270.0,2.0,0.0
636,64.0,0.0,270.0,2.0,0.0
637,58.0,128.0,120.0,5.0,0.0
638,56.0,256.0,120.0,5.0,0.0
639,63.0,256.0,270.0,2.0,0.0
640,58.0,0.0,510.0,5.0,0.0
641,61.0,512.0,270.0,2.0,0.0
642,59.0,0.0,1020.0,3.0,0.0
643,63.0,256.0,1020.0,2.0,0.0
644,59.0,256.0,270.0,5.0,0.0
645,58.0,256.0,270.0,5.0,0.0
646,57.0,0.0,270.0,5.0,0.0
647,56.0,256.0,270.0,5.0,0.0
648,55.0,256.0,270.0,5.0,0.0
649,54.0,256.0,270.0,5.0,0.0
650,52.0,512.0,270.0,5.0,0.0
651,51.0,256.0,510.0,5.0,0.0
652,75.0,0.0,270.0,2.0,0.0
653,53.0,0.0,270.0,5.0,0.0
654,74.0,256.0,270.0,2.0,0.0
655,55.0,0.0,270.0,5.0,0.0
656,73.0,256.0,270.0,2.0,0.0
657,56.0,0.0,510.0,5.0,0.0
658,72.0,256.0,270.0,2.0,0.0
659,71.0,256.0,270.0,2.0,0.0
660,50.0,0.0,510.0,5.0,0.0
661,70.0,256.0,270.0,2.0,0.0
662,68.0,256.0,270.0,2.0,0.0
663,51.0,256.0,270.0,5.0,0.0
664,66.0,0.0,1020.0,2.0,0.0
665,54.0,256.0,270.0,5.0,0.0
666,53.0,256.0,270.0,5.0,0.0
667,52.0,256.0,270.0,5.0,0.0
668,51.0,256.0,270.0,5.0,0.0
669,66.0,512.0,1020.0,2.0,0.0
670,50.0,256.0,270.0,5.0,0.0
671,49.0,256.0,270.0,5.0,0.0
672,47.0,0.0,270.0,5.0,0.0
673,46.0,256.0,510.0,5.0,0.0
674,66.0,0.0,1020.0,2.0,0.0
675,63.0,0.0,270.0,3.0,0.0
676,62.0,0.0,270.0,3.0,0.0
677,47.0,256.0,270.0,5.0,0.0
678,49.0,256.0,270.0,5.0,0.0
679,61.0,0.0,270.0,3.0,0.0
680,60.0,0.0,270.0,3.0,0.0
681,51.0,256.0,270.0,5.0,0.0
682,63.0,256.0,1020.0,2.0,0.0
683,59.0,256.0,270.0,3.0,0.0
684,53.0,0.0,270.0,5.0,0.0
685,58.0,256.0,270.0,3.0,0.0
686,54.0,0.0,270.0,5.0,0.0
687,56.0,0.0,270.0,5.0,0.0
688,56.0,0.0,270.0,3.0,0.0
689,58.0,256.0,270.0,5.0,0.0
690,54.0,0.0,270.0,3.0,0.0
691,66.0,256.0,1020.0,2.0,0.0
692,61.0,0.0,270.0,3.0,0.0
693,54.0,256.0,270.0,5.0,0.0
694,62.0,256.0,270.0,3.0,0.0
695,53.0,0.0,270.0,5.0,0.0
696,51.0,0.0,270.0,5.0,0.0
697,63.0,0.0,270.0,3.0,0.0
698,64.0,256.0,270.0,3.0,0.0
699,49.0,0.0,270.0,5.0,0.0
700,68.0,256.0,1020.0,2.0,0.0
701,47.0,0.0,270.0,5.0,0.0
702,65.0,256.0,270.0,3.0,0.0
703,66.0,0.0,270.0,3.0,0.0
704,46.0,256.0,270.0,5.0,0.0
705,68.0,0.0,510.0,3.0,0.0
706,44.0,0.0,270.0,5.0,0.0
707,70.0,0.0,1020.0,2.0,0.0
708,42.0,128.0,270.0,5.0,0.0
709,63.0,0.0,270.0,5.0,0.0
710,66.0,128.0,120.0,3.0,0.0
711,65.0,256.0,120.0,3.0,0.0
712,66.0,128.0,780.0,3.0,0.0
713,62.0,256.0,270.0,5.0,0.0
714,61.0,256.0,270.0,5.0,0.0
715,68.0,0.0,1020.0,2.0,0.0
716,60.0,0.0,270.0,5.0,0.0
717,59.0,256.0,270.0,5.0,0.0
718,65.0,128.0,120.0,3.0,0.0
719,63.0,0.0,120.0,3.0,0.0
720,58.0,256.0,270.0,5.0,0.0
721,65.0,0.0,510.0,3.0,0.0
722,56.0,256.0,270.0,5.0,0.0
723,58.0,256.0,270.0,5.0,0.0
724,66.0,256.0,1020.0,2.0,0.0
725,66.0,0.0,270.0,3.0,0.0
726,54.0,256.0,270.0,5.0,0.0
727,56.0,0.0,270.0,5.0,0.0
728,65.0,256.0,270.0,3.0,0.0
729,64.0,0.0,270.0,3.0,0.0
730,58.0,0.0,270.0,5.0,0.0
731,63.0,256.0,270.0,3.0,0.0
732,59.0,0.0,510.0,5.0,0.0
733,62.0,256.0,270.0,3.0,0.0
734,53.0,256.0,510.0,5.0,0.0
735,61.0,256.0,270.0,3.0,0.0
736,59.0,0.0,270.0,3.0,0.0
737,58.0,256.0,270.0,3.0,0.0
738,54.0,0.0,270.0,5.0,0.0
739,56.0,0.0,270.0,5.0,0.0
740,56.0,256.0,270.0,3.0,0.0
741,55.0,0.0,270.0,5.0,0.0
742,58.0,256.0,270.0,3.0,0.0
743,60.0,256.0,270.0,3.0,0.0
744,54.0,0.0,270.0,5.0,0.0
745,53.0,256.0,270.0,5.0,0.0
746,61.0,256.0,510.0,3.0,0.0
747,52.0,0.0,270.0,5.0,0.0
748,55.0,256.0,510.0,3.0,0.0
749,51.0,256.0,270.0,5.0,0.0
750,49.0,0.0,270.0,5.0,0.0
751,47.0,256.0,510.0,5.0,0.0
752,56.0,256.0,270.0,3.0,0.0
753,47.0,0.0,1020.0,7.0,0.0
754,71.0,0.0,270.0,3.0,0.0
755,70.0,256.0,270.0,3.0,0.0
756,49.0,0.0,270.0,5.0,0.0
757,69.0,256.0,270.0,3.0,0.0
758,51.0,0.0,270.0,5.0,0.0
759,68.0,256.0,270.0,3.0,0.0
760,52.0,0.0,270.0,5.0,0.0
761,54.0,0.0,270.0,5.0,0.0
762,67.0,256.0,270.0,3.0,0.0
763,66.0,256.0,270.0,3.0,0.0
764,56.0,0.0,270.0,5.0,0.0
765,64.0,0.0,270.0,3.0,0.0
766,58.0,0.0,270.0,5.0,0.0
767,59.0,256.0,270.0,5.0,0.0
768,47.0,256.0,15.0,7.0,0.0
769,63.0,256.0,510.0,3.0,0.0
770,56.0,0.0,270.0,5.0,0.0
771,64.0,0.0,270.0,3.0,0.0
772,55.0,256.0,270.0,5.0,0.0
773,66.0,256.0,270.0,3.0,0.0
774,54.0,0.0,270.0,5.0,0.0
775,44.0,0.0,1020.0,7.0,0.0
776,53.0,0.0,270.0,5.0,0.0
777,68.0,256.0,270.0,3.0,0.0
778,70.0,256.0,270.0,3.0,0.0
779,52.0,0.0,270.0,5.0,0.0
780,71.0,256.0,270.0,3.0,0.0
781,51.0,0.0,270.0,5.0,0.0
782,49.0,0.0,270.0,5.0,0.0
783,73.0,256.0,270.0,3.0,0.0
784,47.0,256.0,270.0,5.0,0.0
785,47.0,256.0,1020.0,7.0,0.0
786,75.0,0.0,270.0,3.0,0.0
787,83.0,256.0,270.0,3.0,0.0
788,54.0,0.0,270.0,5.0,0.0
789,82.0,256.0,270.0,3.0,0.0
790,55.0,0.0,270.0,5.0,0.0
791,80.0,0.0,270.0,3.0,0.0
792,56.0,0.0,270.0,5.0,0.0
793,78.0,0.0,270.0,3.0,0.0
794,57.0,256.0,270.0,5.0,0.0
795,49.0,0.0,1020.0,7.0,0.0
796,58.0,0.0,270.0,5.0,0.0
797,76.0,256.0,270.0,3.0,0.0
798,59.0,256.0,270.0,5.0,0.0
799,75.0,0.0,270.0,3.0,0.0
800,61.0,128.0,510.0,5.0,0.0
801,73.0,256.0,270.0,3.0,0.0
802,71.0,0.0,270.0,3.0,0.0
803,51.0,256.0,1020.0,7.0,0.0
804,59.0,128.0,120.0,5.0,0.0
805,68.0,256.0,270.0,3.0,0.0
806,58.0,0.0,120.0,5.0,0.0
807,67.0,256.0,270.0,3.0,0.0
808,59.0,0.0,780.0,5.0,0.0
809,66.0,0.0,270.0,3.0,0.0
810,65.0,128.0,270.0,3.0,0.0
811,49.0,0.0,1020.0,7.0,0.0
812,58.0,128.0,120.0,5.0,0.0
813,64.0,256.0,270.0,3.0,0.0
814,56.0,0.0,120.0,5.0,0.0
815,58.0,0.0,510.0,5.0,0.0
816,63.0,256.0,270.0,3.0,0.0
817,61.0,512.0,270.0,3.0,0.0
818,71.0,0.0,1020.0,2.0,0.0
819,47.0,0.0,13320.0,7.0,0.0
820,63.0,256.0,510.0,3.0,0.0
821,59.0,0.0,270.0,5.0,0.0
822,61.0,0.0,270.0,3.0,0.0
823,58.0,256.0,270.0,5.0,0.0
824,63.0,256.0,270.0,3.0,0.0
825,57.0,0.0,270.0,5.0,0.0
826,56.0,256.0,270.0,5.0,0.0
827,64.0,0.0,270.0,3.0,0.0
828,71.0,0.0,1020.0,2.0,0.0
829,66.0,256.0,270.0,3.0,0.0
830,55.0,0.0,270.0,5.0,0.0
831,54.0,256.0,270.0,5.0,0.0
832,68.0,0.0,270.0,3.0,0.0
833,52.0,0.0,270.0,5.0,0.0
834,70.0,256.0,270.0,3.0,0.0
835,51.0,256.0,510.0,5.0,0.0
836,71.0,256.0,270.0,3.0,0.0
837,71.0,256.0,1020.0,2.0,0.0
838,68.0,0.0,270.0,3.0,0.0
839,52.0,0.0,270.0,5.0,0.0
840,67.0,256.0,270.0,3.0,0.0
841,66.0,0.0,270.0,3.0,0.0
842,54.0,0.0,270.0,5.0,0.0
843,65.0,256.0,270.0,3.0,0.0
844,68.0,0.0,1020.0,2.0,0.0
845,56.0,0.0,270.0,5.0,0.0
846,64.0,256.0,270.0,3.0,0.0
847,58.0,0.0,270.0,5.0,0.0
848,63.0,0.0,270.0,3.0,0.0
849,59.0,256.0,270.0,5.0,0.0
850,61.0,256.0,270.0,5.0,0.0
851,61.0,0.0,270.0,3.0,0.0
852,71.0,0.0,1020.0,2.0,0.0
853,63.0,256.0,270.0,5.0,0.0
854,59.0,0.0,270.0,3.0,0.0
855,66.0,256.0,270.0,3.0,0.0
856,59.0,0.0,270.0,5.0,0.0
857,58.0,0.0,270.0,5.0,0.0
858,67.0,256.0,270.0,3.0,0.0
859,56.0,0.0,270.0,5.0,0.0
860,68.0,256.0,270.0,3.0,0.0
861,73.0,0.0,1020.0,2.0,0.0
862,69.0,0.0,270.0,3.0,0.0
863,54.0,256.0,270.0,5.0,0.0
864,70.0,0.0,270.0,3.0,0.0
865,52.0,256.0,270.0,5.0,0.0
866,51.0,256.0,270.0,5.0,0.0
867,71.0,0.0,270.0,3.0,0.0
868,73.0,128.0,510.0,3.0,0.0
869,49.0,256.0,270.0,5.0,0.0
870,75.0,256.0,1020.0,2.0,0.0
871,47.0,0.0,270.0,5.0,0.0
872,68.0,0.0,270.0,5.0,0.0
873,71.0,128.0,120.0,3.0,0.0
874,70.0,256.0,120.0,3.0,0.0
875,71.0,0.0,780.0,3.0,0.0
876,67.0,256.0,270.0,5.0,0.0
877,66.0,0.0,270.0,5.0,0.0
878,65.0,128.0,270.0,5.0,0.0
879,73.0,0.0,1020.0,2.0,0.0
880,64.0,256.0,270.0,5.0,0.0
881,70.0,128.0,120.0,3.0,0.0
882,68.0,0.0,120.0,3.0,0.0
883,70.0,256.0,510.0,3.0,0.0
884,63.0,256.0,270.0,5.0,0.0
885,61.0,0.0,270.0,5.0,0.0
886,63.0,256.0,270.0,5.0,0.0
887,71.0,0.0,270.0,2.0,0.0
888,71.0,0.0,510.0,3.0,0.0
889,83.0,256.0,270.0,2.0,0.0
890,59.0,0.0,270.0,5.0,0.0
891,61.0,0.0,270.0,5.0,0.0
892,82.0,256.0,270.0,2.0,0.0
893,63.0,0.0,270.0,5.0,0.0
894,81.0,256.0,270.0,2.0,0.0
895,64.0,256.0,270.0,5.0,0.0
896,80.0,0.0,270.0,2.0,0.0
897,79.0,0.0,270.0,2.0,0.0
898,66.0,256.0,270.0,5.0,0.0
899,78.0,256.0,270.0,2.0,0.0
900,68.0,0.0,270.0,5.0,0.0
901,76.0,0.0,270.0,2.0,0.0
902,70.0,256.0,270.0,5.0,0.0
903,71.0,0.0,1020.0,5.0,0.0
904,75.0,256.0,270.0,2.0,0.0
905,51.0,0.0,270.0,6.0,0.0
906,54.0,0.0,270.0,6.0,0.0
907,79.0,256.0,270.0,2.0,0.0
908,71.0,0.0,270.0,3.0,0.0
909,79.0,0.0,270.0,2.0,0.0
910,52.0,256.0,270.0,6.0,0.0
911,55.0,0.0,270.0,6.0,0.0
912,70.0,0.0,270.0,3.0,0.0
913,78.0,0.0,270.0,2.0,0.0
914,69.0,0.0,270.0,3.0,0.0
915,54.0,0.0,270.0,6.0,0.0
916,57.0,256.0,270.0,6.0,0.0
917,68.0,0.0,270.0,3.0,0.0
918,77.0,256.0,270.0,2.0,0.0
919,56.0,0.0,270.0,6.0,0.0
920,59.0,0.0,270.0,6.0,0.0
921,61.0,256.0,270.0,6.0,0.0
922,76.0,0.0,270.0,2.0,0.0
923,67.0,0.0,270.0,3.0,0.0
924,58.0,0.0,270.0,6.0,0.0
925,75.0,0.0,270.0,2.0,0.0
926,66.0,0.0,270.0,3.0,0.0
927,59.0,0.0,270.0,6.0,0.0
928,63.0,256.0,270.0,6.0,0.0
929,64.0,0.0,270.0,3.0,0.0
930,61.0,0.0,270.0,6.0,0.0
931,73.0,1024.0,270.0,2.0,0.0
932,64.0,0.0,270.0,6.0,0.0
933,63.0,0.0,1020.0,6.0,0.0
934,71.0,0.0,1020.0,2.0,0.0
935,63.0,0.0,1020.0,3.0,0.0
936,66.0,256.0,1020.0,6.0,0.0
937,68.0,256.0,1020.0,6.0,0.0
938,71.0,128.0,120.0,5.0,0.0
939,73.0,128.0,120.0,5.0,0.0
940,75.0,512.0,120.0,5.0,0.0
941,76.0,256.0,780.0,5.0,0.0
942,83.0,0.0,270.0,3.0,0.0
943,82.0,256.0,780.0,3.0,0.0
944,66.0,256.0,510.0,6.0,0.0
945,75.0,0.0,270.0,5.0,0.0
946,73.0,256.0,780.0,5.0,0.0
947,64.0,0.0,510.0,6.0,0.0
948,80.0,256.0,270.0,3.0,0.0
949,63.0,0.0,510.0,6.0,0.0
950,78.0,256.0,780.0,3.0,0.0
951,71.0,256.0,270.0,5.0,0.0
952,61.0,128.0,510.0,6.0,0.0
953,70.0,128.0,630.0,5.0,0.0
954,76.0,0.0,270.0,3.0,0.0
955,75.0,128.0,630.0,3.0,0.0
956,59.0,256.0,1020.0,6.0,0.0
957,63.0,128.0,120.0,5.0,0.0
958,65.0,128.0,120.0,5.0,0.0
959,67.0,128.0,120.0,5.0,0.0
960,68.0,0.0,780.0,5.0,0.0
961,71.0,128.0,120.0,3.0,0.0
962,73.0,128.0,120.0,3.0,0.0
963,75.0,0.0,120.0,3.0,0.0
964,76.0,256.0,270.0,3.0,0.0
965,61.0,0.0,1020.0,6.0,0.0
966,71.0,256.0,270.0,5.0,0.0
967,75.0,0.0,270.0,3.0,0.0
968,73.0,0.0,1020.0,3.0,0.0
969,70.0,256.0,270.0,5.0,0.0
970,68.0,256.0,270.0,5.0,0.0
971,63.0,0.0,1020.0,6.0,0.0
972,66.0,256.0,270.0,5.0,0.0
973,70.0,256.0,270.0,5.0,0.0
974,71.0,256.0,1020.0,3.0,0.0
975,68.0,256.0,270.0,5.0,0.0
976,66.0,256.0,270.0,5.0,0.0
977,61.0,256.0,1020.0,6.0,0.0
978,65.0,256.0,270.0,5.0,0.0
979,68.0,0.0,270.0,5.0,0.0
980,66.0,256.0,270.0,5.0,0.0
981,70.0,256.0,1020.0,3.0,0.0
982,64.0,0.0,270.0,5.0,0.0
983,63.0,256.0,270.0,5.0,0.0
984,59.0,0.0,1020.0,6.0,0.0
985,66.0,0.0,270.0,5.0,0.0
986,68.0,0.0,1020.0,3.0,0.0
987,64.0,256.0,270.0,5.0,0.0
988,63.0,256.0,270.0,5.0,0.0
989,58.0,256.0,1020.0,6.0,0.0
990,61.0,256.0,270.0,5.0,0.0
991,64.0,256.0,270.0,5.0,0.0
992,67.0,0.0,510.0,3.0,0.0
993,63.0,256.0,270.0,5.0,0.0
994,61.0,0.0,270.0,5.0,0.0
995,59.0,256.0,270.0,5.0,0.0
996,56.0,0.0,1020.0,6.0,0.0
997,68.0,512.0,1020.0,3.0,0.0
998,61.0,256.0,270.0,5.0,0.0
999,59.0,256.0,270.0,5.0,0.0
1000,58.0,0.0,270.0,5.0,0.0
1001,56.0,256.0,1020.0,5.0,0.0
1002,59.0,0.0,270.0,6.0,0.0
1003,68.0,256.0,270.0,3.0,0.0
1004,70.0,256.0,270.0,3.0,0.0
1005,58.0,0.0,270.0,6.0,0.0
1006,56.0,0.0,270.0,6.0,0.0
1007,71.0,0.0,270.0,3.0,0.0
1008,54.0,256.0,270.0,6.0,0.0
1009,73.0,128.0,1020.0,3.0,0.0
1010,52.0,256.0,270.0,6.0,0.0
1011,51.0,256.0,270.0,6.0,0.0
1012,49.0,0.0,270.0,6.0,0.0
1013,75.0,256.0,1020.0,3.0,0.0
1014,47.0,128.0,120.0,6.0,0.0
1015,54.0,128.0,120.0,6.0,0.0
1016,56.0,128.0,120.0,6.0,0.0
1017,58.0,512.0,120.0,6.0,0.0
1018,59.0,256.0,780.0,6.0,0.0
1019,66.0,0.0,270.0,5.0,0.0
1020,65.0,256.0,780.0,5.0,0.0
1021,73.0,256.0,510.0,3.0,0.0
1022,58.0,0.0,270.0,6.0,0.0
1023,56.0,256.0,780.0,6.0,0.0
1024,71.0,0.0,510.0,3.0,0.0
1025,63.0,256.0,270.0,5.0,0.0
1026,70.0,256.0,510.0,3.0,0.0
1027,61.0,256.0,780.0,5.0,0.0
1028,54.0,0.0,270.0,6.0,0.0
1029,53.0,128.0,630.0,6.0,0.0
1030,68.0,0.0,510.0,3.0,0.0
1031,59.0,128.0,270.0,5.0,0.0
1032,66.0,256.0,1020.0,3.0,0.0
1033,58.0,128.0,630.0,5.0,0.0
1034,46.0,128.0,120.0,6.0,0.0
1035,48.0,128.0,120.0,6.0,0.0
1036,50.0,128.0,120.0,6.0,0.0
1037,51.0,0.0,780.0,6.0,0.0
1038,66.0,128.0,120.0,5.0,0.0
1039,68.0,128.0,120.0,5.0,0.0
1040,70.0,0.0,120.0,5.0,0.0
1041,71.0,256.0,270.0,5.0,0.0
1042,68.0,256.0,1020.0,3.0,0.0
1043,70.0,256.0,270.0,5.0,0.0
1044,54.0,0.0,270.0,6.0,0.0
1045,53.0,256.0,270.0,6.0,0.0
1046,68.0,256.0,1020.0,5.0,0.0
1047,51.0,0.0,270.0,6.0,0.0
1048,49.0,256.0,270.0,6.0,0.0
1049,70.0,256.0,1020.0,3.0,0.0
1050,52.0,0.0,270.0,6.0,0.0
1051,66.0,0.0,1020.0,5.0,0.0
1052,51.0,256.0,270.0,6.0,0.0
1053,49.0,0.0,270.0,6.0,0.0
1054,48.0,256.0,270.0,6.0,0.0
1055,68.0,256.0,1020.0,3.0,0.0
1056,51.0,256.0,270.0,6.0,0.0
1057,65.0,0.0,1020.0,5.0,0.0
1058,49.0,256.0,270.0,6.0,0.0
1059,47.0,0.0,270.0,6.0,0.0
1060,46.0,256.0,270.0,6.0,0.0
1061,66.0,0.0,1020.0,3.0,0.0
1062,49.0,256.0,270.0,6.0,0.0
1063,63.0,0.0,1020.0,5.0,0.0
1064,47.0,256.0,270.0,6.0,0.0
1065,46.0,256.0,270.0,6.0,0.0
1066,65.0,0.0,1020.0,3.0,0.0
1067,44.0,256.0,270.0,6.0,0.0
1068,47.0,256.0,270.0,6.0,0.0
1069,46.0,256.0,270.0,6.0,0.0
1070,62.0,256.0,510.0,5.0,0.0
1071,44.0,0.0,270.0,6.0,0.0
1072,63.0,0.0,270.0,5.0,0.0
1073,42.0,256.0,270.0,6.0,0.0
1074,63.0,0.0,1020.0,3.0,0.0
1075,56.0,256.0,270.0,6.0,0.0
1076,59.0,0.0,270.0,5.0,0.0
1077,54.0,0.0,270.0,6.0,0.0
1078,58.0,256.0,270.0,5.0,0.0
1079,53.0,0.0,270.0,6.0,0.0
1080,56.0,256.0,270.0,5.0,0.0
1081,54.0,256.0,270.0,5.0,0.0
1082,51.0,0.0,510.0,6.0,0.0
1083,66.0,0.0,270.0,3.0,0.0
1084,63.0,256.0,270.0,5.0,0.0
1085,64.0,0.0,270.0,3.0,0.0
1086,52.0,0.0,510.0,6.0,0.0
1087,61.0,256.0,270.0,5.0,0.0
1088,63.0,0.0,270.0,3.0,0.0
1089,59.0,256.0,270.0,5.0,0.0
1090,54.0,0.0,510.0,6.0,0.0
1091,54.0,128.0,1020.0,7.0,0.0
1092,58.0,128.0,510.0,5.0,0.0
1093,61.0,128.0,270.0,3.0,0.0
1094,63.0,128.0,120.0,3.0,0.0
1095,64.0,0.0,120.0,3.0,0.0
1096,66.0,128.0,120.0,3.0,0.0
1097,66.0,128.0,120.0,5.0,0.0
1098,68.0,128.0,120.0,5.0,0.0
1099,70.0,0.0,120.0,5.0,0.0
1100,71.0,128.0,120.0,5.0,0.0
1101,56.0,0.0,1020.0,7.0,0.0
1102,71.0,128.0,120.0,3.0,0.0
1103,73.0,128.0,120.0,3.0,0.0
1104,75.0,512.0,120.0,3.0,0.0
1105,76.0,256.0,780.0,3.0,0.0
1106,71.0,256.0,270.0,5.0,0.0
1107,54.0,256.0,510.0,7.0,0.0
1108,70.0,256.0,780.0,5.0,0.0
1109,75.0,0.0,270.0,3.0,0.0
1110,52.0,0.0,510.0,7.0,0.0
1111,73.0,256.0,780.0,3.0,0.0
1112,68.0,256.0,270.0,5.0,0.0
1113,66.0,256.0,780.0,5.0,0.0
1114,51.0,256.0,510.0,7.0,0.0
1115,71.0,0.0,270.0,3.0,0.0
1116,70.0,128.0,630.0,3.0,0.0
1117,49.0,0.0,510.0,7.0,0.0
1118,64.0,128.0,270.0,5.0,0.0
1119,47.0,256.0,1020.0,7.0,0.0
1120,63.0,128.0,630.0,5.0,0.0
1121,63.0,128.0,120.0,3.0,0.0
1122,65.0,128.0,120.0,3.0,0.0
1123,67.0,128.0,120.0,3.0,0.0
1124,68.0,256.0,780.0,3.0,0.0
1125,59.0,128.0,120.0,5.0,0.0
1126,61.0,128.0,120.0,5.0,0.0
1127,63.0,0.0,120.0,5.0,0.0
1128,64.0,0.0,270.0,5.0,0.0
1129,49.0,0.0,1020.0,7.0,0.0
1130,63.0,0.0,270.0,5.0,0.0
1131,71.0,256.0,270.0,3.0,0.0
1132,61.0,256.0,1020.0,5.0,0.0
1133,70.0,256.0,270.0,3.0,0.0
1134,68.0,256.0,270.0,3.0,0.0
1135,67.0,256.0,270.0,3.0,0.0
1136,51.0,256.0,1020.0,7.0,0.0
1137,70.0,0.0,270.0,3.0,0.0
1138,59.0,0.0,1020.0,5.0,0.0
1139,68.0,256.0,270.0,3.0,0.0
1140,66.0,0.0,270.0,3.0,0.0
1141,65.0,256.0,270.0,3.0,0.0
1142,49.0,256.0,1020.0,7.0,0.0
1143,68.0,256.0,270.0,3.0,0.0
1144,66.0,256.0,270.0,3.0,0.0
1145,58.0,256.0,1020.0,5.0,0.0
1146,64.0,0.0,270.0,3.0,0.0
1147,47.0,0.0,1020.0,7.0,0.0
1148,63.0,256.0,270.0,3.0,0.0
1149,66.0,0.0,270.0,3.0,0.0
1150,64.0,256.0,270.0,3.0,0.0
1151,56.0,0.0,1020.0,5.0,0.0
1152,63.0,256.0,270.0,3.0,0.0
1153,61.0,256.0,270.0,3.0,0.0
1154,46.0,256.0,1020.0,7.0,0.0
1155,64.0,256.0,270.0,3.0,0.0
1156,63.0,256.0,270.0,3.0,0.0
1157,55.0,0.0,510.0,5.0,0.0
1158,61.0,0.0,270.0,3.0,0.0
1159,44.0,256.0,510.0,7.0,0.0
1160,59.0,256.0,270.0,3.0,0.0
1161,56.0,0.0,510.0,5.0,0.0
1162,61.0,0.0,270.0,3.0,0.0
1163,59.0,256.0,270.0,3.0,0.0
1164,46.0,0.0,510.0,7.0,0.0
1165,58.0,256.0,270.0,3.0,0.0
1166,47.0,256.0,510.0,7.0,0.0
1167,56.0,256.0,270.0,3.0,0.0
1168,71.0,0.0,270.0,3.0,0.0
1169,63.0,0.0,270.0,5.0,0.0
1170,70.0,0.0,270.0,3.0,0.0
1171,49.0,0.0,510.0,7.0,0.0
1172,61.0,256.0,270.0,5.0,0.0
1173,68.0,128.0,270.0,3.0,0.0
1174,59.0,0.0,270.0,5.0,0.0
1175,66.0,128.0,120.0,5.0,0.0
1176,58.0,0.0,510.0,6.0,0.0
1177,78.0,0.0,1020.0,2.0,0.0
1178,51.0,128.0,1020.0,7.0,0.0
1179,76.0,128.0,120.0,5.0,0.0
1180,75.0,128.0,120.0,5.0,0.0
1181,73.0,128.0,120.0,5.0,0.0
1182,59.0,128.0,120.0,6.0,0.0
1183,71.0,0.0,630.0,5.0,0.0
1184,69.0,128.0,120.0,6.0,0.0
1185,68.0,128.0,120.0,6.0,0.0
1186,66.0,0.0,120.0,6.0,0.0
1187,52.0,256.0,1020.0,7.0,0.0
1188,64.0,128.0,120.0,6.0,0.0
1189,80.0,0.0,1020.0,2.0,0.0
1190,71.0,128.0,120.0,5.0,0.0
1191,68.0,0.0,120.0,6.0,0.0
1192,70.0,128.0,120.0,6.0,0.0
1193,73.0,0.0,120.0,5.0,0.0
1194,71.0,0.0,120.0,6.0,0.0
1195,75.0,256.0,120.0,5.0,0.0
1196,76.0,256.0,780.0,5.0,0.0
1197,73.0,256.0,270.0,6.0,0.0
1198,71.0,0.0,270.0,6.0,0.0
1199,70.0,256.0,780.0,6.0,0.0
1200,78.0,256.0,510.0,2.0,0.0
1201,54.0,0.0,2040.0,7.0,0.0
1202,75.0,0.0,270.0,5.0,0.0
1203,73.0,256.0,780.0,5.0,0.0
1204,76.0,0.0,510.0,2.0,0.0
1205,68.0,256.0,270.0,6.0,0.0
1206,75.0,256.0,510.0,2.0,0.0
1207,66.0,256.0,780.0,6.0,0.0
1208,71.0,0.0,270.0,5.0,0.0
1209,70.0,128.0,630.0,5.0,0.0
1210,73.0,0.0,510.0,2.0,0.0
1211,64.0,128.0,270.0,6.0,0.0
1212,56.0,0.0,510.0,7.0,0.0
1213,63.0,128.0,630.0,6.0,0.0
1214,71.0,0.0,1020.0,2.0,0.0
1215,63.0,128.0,120.0,5.0,0.0
1216,65.0,128.0,120.0,5.0,0.0
1217,67.0,128.0,120.0,5.0,0.0
1218,54.0,256.0,510.0,7.0,0.0
1219,68.0,256.0,780.0,5.0,0.0
1220,59.0,128.0,120.0,6.0,0.0
1221,61.0,128.0,120.0,6.0,0.0
1222,63.0,0.0,120.0,6.0,0.0
1223,52.0,0.0,1020.0,7.0,0.0
1224,73.0,0.0,1020.0,2.0,0.0
1225,64.0,0.0,270.0,6.0,0.0
1226,63.0,256.0,270.0,6.0,0.0
1227,71.0,0.0,270.0,5.0,0.0
1228,70.0,256.0,270.0,5.0,0.0
1229,61.0,256.0,1020.0,6.0,0.0
1230,68.0,256.0,270.0,5.0,0.0
1231,75.0,0.0,1020.0,2.0,0.0
1232,67.0,256.0,270.0,5.0,0.0
1233,51.0,0.0,4110.0,7.0,0.0
1234,70.0,0.0,270.0,5.0,0.0
1235,59.0,0.0,1020.0,6.0,0.0
1236,68.0,256.0,270.0,5.0,0.0
1237,66.0,256.0,270.0,5.0,0.0
1238,65.0,256.0,270.0,5.0,0.0
1239,73.0,256.0,1020.0,2.0,0.0
1240,68.0,256.0,270.0,5.0,0.0
1241,58.0,0.0,1020.0,6.0,0.0
1242,66.0,256.0,270.0,5.0,0.0
1243,64.0,0.0,270.0,5.0,0.0
1244,71.0,0.0,1020.0,2.0,0.0
1245,63.0,256.0,270.0,5.0,0.0
1246,66.0,256.0,270.0,5.0,0.0
1247,64.0,256.0,270.0,5.0,0.0
1248,56.0,0.0,1020.0,6.0,0.0
1249,63.0,256.0,270.0,5.0,0.0
1250,70.0,128.0,1020.0,2.0,0.0
1251,61.0,256.0,270.0,5.0,0.0
1252,64.0,256.0,270.0,5.0,0.0
1253,63.0,256.0,270.0,5.0,0.0
1254,54.0,128.0,630.0,6.0,0.0
1255,61.0,0.0,270.0,5.0,0.0
1256,44.0,0.0,14340.0,7.0,0.0
1257,60.0,256.0,1290.0,5.0,0.0
1258,68.0,128.0,2190.0,2.0,0.0
1259,51.0,128.0,120.0,6.0,0.0
1260,52.0,128.0,120.0,6.0,0.0
1261,54.0,256.0,120.0,6.0,0.0
1262,56.0,256.0,270.0,6.0,0.0
1263,54.0,256.0,270.0,6.0,0.0
1264,53.0,0.0,510.0,6.0,0.0
1265,56.0,512.0,270.0,5.0,0.0
1266,52.0,128.0,510.0,6.0,0.0
1267,61.0,0.0,1020.0,5.0,0.0
1268,77.0,0.0,510.0,1.0,0.0
1269,56.0,0.0,510.0,6.0,0.0
1270,51.0,0.0,1020.0,7.0,0.0
1271,63.0,128.0,120.0,2.0,0.0
1272,64.0,128.0,120.0,2.0,0.0
1273,66.0,256.0,120.0,2.0,0.0
1274,60.0,0.0,510.0,5.0,0.0
1275,76.0,512.0,510.0,1.0,0.0
1276,68.0,256.0,270.0,2.0,0.0
1277,66.0,0.0,270.0,2.0,0.0
1278,49.0,256.0,1020.0,7.0,0.0
1279,61.0,0.0,1020.0,5.0,0.0
1280,65.0,512.0,510.0,4.0,0.0
1281,68.0,0.0,270.0,2.0,0.0
1282,73.0,256.0,1020.0,2.0,0.0
1283,64.0,0.0,510.0,4.0,0.0
1284,68.0,0.0,2040.0,4.0,0.0
1285,56.0,0.0,10230.0,7.0,0.0
1286,63.0,0.0,1020.0,5.0,0.0
1287,75.0,128.0,120.0,0.0,0.0
1288,76.0,128.0,120.0,0.0,0.0
1289,78.0,0.0,120.0,0.0,0.0
1290,80.0,256.0,270.0,0.0,0.0
1291,72.0,0.0,510.0,2.0,0.0
1292,78.0,512.0,270.0,0.0,0.0
1293,73.0,256.0,1800.0,2.0,0.0
1294,61.0,128.0,1140.0,5.0,0.0
1295,80.0,256.0,270.0,0.0,0.0
1296,85.0,256.0,270.0,0.0,0.0
1297,79.0,128.0,270.0,0.0,0.0
1298,80.0,256.0,3840.0,0.0,0.0
1299,76.0,0.0,780.0,1.0,0.0
1300,63.0,128.0,120.0,5.0,0.0
1301,64.0,128.0,120.0,5.0,0.0
1302,66.0,256.0,120.0,5.0,0.0
1303,68.0,0.0,270.0,5.0,0.0
1304,63.0,0.0,270.0,5.0,0.0
1305,78.0,256.0,270.0,1.0,0.0
1306,72.0,0.0,270.0,2.0,0.0
1307,76.0,128.0,1410.0,1.0,0.0
1308,64.0,256.0,270.0,5.0,0.0
1309,73.0,128.0,1140.0,2.0,0.0
1310,60.0,512.0,270.0,5.0,0.0
1311,61.0,4096.0,2550.0,5.0,0.0
1312,55.0,128.0,270.0,6.0,0.0
1313,56.0,0.0,6150.0,6.0,0.0
1314,72.0,128.0,120.0,2.0,0.0
1315,73.0,256.0,510.0,2.0,0.0
1316,75.0,256.0,120.0,1.0,0.0
1317,76.0,0.0,1530.0,1.0,0.0
1318,72.0,512.0,270.0,2.0,0.0
1319,73.0,0.0,1020.0,2.0,0.0
1320,67.0,256.0,270.0,4.0,0.0
1321,68.0,0.0,4620.0,4.0,0.0
1322,79.0,0.0,270.0,0.0,0.0
1323,75.0,0.0,4110.0,1.0,0.0
1324,72.0,0.0,4110.0,2.0,0.0
1325,80.0,0.0,4110.0,0.0,0.0
1326,63.0,0.0,4110.0,5.0,0.0
