,note,step,duration,channel,velocity
0,57.0,512.0,1020.0,4.0,0.0
1,73.0,512.0,510.0,0.0,0.0
2,69.0,1024.0,510.0,0.0,0.0
3,76.0,512.0,1020.0,0.0,0.0
4,61.0,0.0,510.0,4.0,0.0
5,61.0,0.0,510.0,3.0,0.0
6,76.0,512.0,510.0,1.0,0.0
7,69.0,0.0,510.0,2.0,0.0
8,76.0,0.0,510.0,0.0,0.0
9,57.0,0.0,510.0,4.0,0.0
10,57.0,0.0,510.0,3.0,0.0
11,64.0,0.0,510.0,2.0,0.0
12,73.0,0.0,510.0,1.0,0.0
13,81.0,1024.0,510.0,0.0,0.0
14,71.0,0.0,1020.0,1.0,0.0
15,64.0,0.0,1020.0,3.0,0.0
16,64.0,0.0,1020.0,4.0,0.0
17,80.0,512.0,1020.0,0.0,0.0
18,61.0,0.0,510.0,4.0,0.0
19,73.0,0.0,510.0,1.0,0.0
20,64.0,0.0,15.0,2.0,0.0
21,61.0,512.0,510.0,3.0,0.0
22,81.0,0.0,510.0,0.0,0.0
23,57.0,0.0,510.0,4.0,0.0
24,76.0,0.0,510.0,1.0,0.0
25,85.0,0.0,510.0,0.0,0.0
26,57.0,0.0,510.0,3.0,0.0
27,61.0,256.0,510.0,2.0,0.0
28,66.0,256.0,270.0,2.0,0.0
29,78.0,0.0,510.0,0.0,0.0
30,62.0,0.0,510.0,3.0,0.0
31,64.0,256.0,270.0,2.0,0.0
32,62.0,0.0,15.0,4.0,0.0
33,78.0,256.0,510.0,0.0,0.0
34,69.0,0.0,15.0,1.0,0.0
35,62.0,0.0,510.0,3.0,0.0
36,62.0,256.0,270.0,2.0,0.0
37,61.0,0.0,270.0,2.0,0.0
38,59.0,0.0,510.0,2.0,0.0
39,62.0,0.0,1530.0,3.0,0.0
40,83.0,0.0,270.0,0.0,0.0
41,62.0,0.0,15.0,4.0,0.0
42,74.0,256.0,270.0,1.0,0.0
43,73.0,256.0,270.0,1.0,0.0
44,81.0,0.0,270.0,0.0,0.0
45,66.0,0.0,510.0,2.0,0.0
46,71.0,256.0,270.0,1.0,0.0
47,80.0,0.0,270.0,0.0,0.0
48,78.0,0.0,270.0,0.0,0.0
49,69.0,256.0,270.0,1.0,0.0
50,71.0,256.0,270.0,2.0,0.0
51,69.0,0.0,270.0,2.0,0.0
52,64.0,0.0,270.0,3.0,0.0
53,64.0,256.0,270.0,4.0,0.0
54,68.0,0.0,15.0,1.0,0.0
55,68.0,0.0,270.0,2.0,0.0
56,76.0,0.0,15.0,0.0,0.0
57,62.0,512.0,270.0,3.0,0.0
58,62.0,0.0,270.0,4.0,0.0
59,66.0,0.0,270.0,2.0,0.0
60,81.0,0.0,510.0,0.0,0.0
61,64.0,0.0,510.0,2.0,0.0
62,61.0,0.0,510.0,4.0,0.0
63,81.0,0.0,510.0,5.0,0.0
64,61.0,0.0,510.0,3.0,0.0
65,85.0,0.0,510.0,0.0,0.0
66,59.0,256.0,270.0,4.0,0.0
67,59.0,0.0,270.0,3.0,0.0
68,69.0,0.0,15.0,1.0,0.0
69,85.0,0.0,510.0,5.0,0.0
70,64.0,0.0,15.0,7.0,0.0
71,62.0,0.0,270.0,2.0,0.0
72,69.0,0.0,15.0,6.0,0.0
73,61.0,0.0,270.0,2.0,0.0
74,57.0,0.0,270.0,3.0,0.0
75,57.0,0.0,270.0,4.0,0.0
76,69.0,0.0,15.0,1.0,0.0
77,62.0,0.0,510.0,3.0,0.0
78,66.0,0.0,510.0,2.0,0.0
79,66.0,0.0,510.0,7.0,0.0
80,78.0,256.0,510.0,0.0,0.0
81,62.0,0.0,510.0,4.0,0.0
82,78.0,0.0,510.0,5.0,0.0
83,69.0,512.0,15.0,6.0,0.0
84,62.0,0.0,510.0,7.0,0.0
85,61.0,256.0,270.0,3.0,0.0
86,62.0,0.0,510.0,2.0,0.0
87,83.0,0.0,510.0,5.0,0.0
88,61.0,0.0,270.0,4.0,0.0
89,74.0,0.0,510.0,6.0,0.0
90,83.0,512.0,510.0,0.0,0.0
91,74.0,0.0,510.0,1.0,0.0
92,59.0,0.0,270.0,4.0,0.0
93,59.0,0.0,270.0,3.0,0.0
94,64.0,0.0,780.0,2.0,0.0
95,80.0,0.0,780.0,5.0,0.0
96,71.0,256.0,780.0,1.0,0.0
97,71.0,0.0,780.0,6.0,0.0
98,64.0,0.0,510.0,7.0,0.0
99,64.0,256.0,510.0,3.0,0.0
100,64.0,0.0,510.0,4.0,0.0
101,80.0,0.0,780.0,0.0,0.0
102,52.0,0.0,510.0,4.0,0.0
103,52.0,0.0,510.0,3.0,0.0
104,64.0,0.0,270.0,2.0,0.0
105,57.0,768.0,1020.0,3.0,0.0
106,64.0,0.0,15.0,7.0,0.0
107,81.0,0.0,15.0,0.0,0.0
108,64.0,0.0,510.0,2.0,0.0
109,73.0,0.0,15.0,6.0,0.0
110,73.0,0.0,15.0,1.0,0.0
111,81.0,0.0,15.0,5.0,0.0
112,57.0,0.0,1020.0,4.0,0.0
113,73.0,0.0,510.0,0.0,0.0
114,64.0,0.0,510.0,2.0,0.0
115,78.0,0.0,1530.0,0.0,0.0
116,69.0,256.0,1530.0,2.0,0.0
117,54.0,0.0,510.0,4.0,0.0
118,54.0,512.0,510.0,3.0,0.0
119,69.0,256.0,270.0,1.0,0.0
120,71.0,0.0,270.0,1.0,0.0
121,61.0,256.0,1530.0,4.0,0.0
122,73.0,0.0,1530.0,1.0,0.0
123,61.0,0.0,1530.0,3.0,0.0
124,76.0,0.0,270.0,0.0,0.0
125,68.0,256.0,270.0,2.0,0.0
126,75.0,0.0,270.0,0.0,0.0
127,66.0,512.0,270.0,2.0,0.0
128,76.0,0.0,510.0,0.0,0.0
129,68.0,0.0,510.0,2.0,0.0
130,66.0,0.0,510.0,1.0,0.0
131,73.0,512.0,510.0,2.0,0.0
132,59.0,0.0,270.0,3.0,0.0
133,81.0,0.0,510.0,0.0,0.0
134,59.0,256.0,270.0,4.0,0.0
135,57.0,0.0,270.0,3.0,0.0
136,57.0,0.0,270.0,4.0,0.0
137,75.0,0.0,510.0,0.0,0.0
138,71.0,256.0,510.0,1.0,0.0
139,59.0,0.0,510.0,3.0,0.0
140,66.0,0.0,510.0,2.0,0.0
141,59.0,0.0,510.0,4.0,0.0
142,71.0,0.0,510.0,0.0,0.0
143,66.0,512.0,510.0,1.0,0.0
144,63.0,0.0,510.0,2.0,0.0
145,59.0,0.0,270.0,3.0,0.0
146,59.0,256.0,270.0,4.0,0.0
147,57.0,0.0,270.0,3.0,0.0
148,57.0,0.0,270.0,4.0,0.0
149,68.0,0.0,510.0,7.0,0.0
150,68.0,0.0,510.0,2.0,0.0
151,56.0,0.0,510.0,4.0,0.0
152,56.0,0.0,510.0,3.0,0.0
153,71.0,0.0,510.0,1.0,0.0
154,83.0,0.0,510.0,5.0,0.0
155,71.0,0.0,510.0,6.0,0.0
156,83.0,256.0,510.0,0.0,0.0
157,73.0,0.0,510.0,1.0,0.0
158,66.0,256.0,270.0,7.0,0.0
159,66.0,0.0,270.0,2.0,0.0
160,81.0,0.0,270.0,5.0,0.0
161,57.0,512.0,510.0,4.0,0.0
162,57.0,0.0,510.0,3.0,0.0
163,73.0,0.0,510.0,6.0,0.0
164,81.0,0.0,270.0,0.0,0.0
165,85.0,0.0,270.0,0.0,0.0
166,85.0,0.0,270.0,5.0,0.0
167,64.0,0.0,270.0,7.0,0.0
168,64.0,0.0,270.0,2.0,0.0
169,59.0,256.0,510.0,3.0,0.0
170,63.0,0.0,510.0,7.0,0.0
171,78.0,0.0,510.0,0.0,0.0
172,59.0,0.0,510.0,4.0,0.0
173,63.0,0.0,510.0,2.0,0.0
174,78.0,0.0,510.0,5.0,0.0
175,71.0,0.0,15.0,6.0,0.0
176,80.0,0.0,270.0,0.0,0.0
177,64.0,0.0,270.0,2.0,0.0
178,64.0,256.0,270.0,7.0,0.0
179,52.0,512.0,510.0,4.0,0.0
180,80.0,0.0,270.0,5.0,0.0
181,71.0,0.0,15.0,1.0,0.0
182,52.0,0.0,510.0,3.0,0.0
183,81.0,0.0,270.0,5.0,0.0
184,66.0,0.0,270.0,2.0,0.0
185,66.0,0.0,270.0,7.0,0.0
186,81.0,0.0,270.0,0.0,0.0
187,64.0,0.0,510.0,7.0,0.0
188,59.0,0.0,510.0,3.0,0.0
189,80.0,0.0,510.0,0.0,0.0
190,71.0,0.0,15.0,1.0,0.0
191,80.0,0.0,510.0,5.0,0.0
192,59.0,256.0,510.0,4.0,0.0
193,64.0,0.0,510.0,2.0,0.0
194,71.0,0.0,15.0,6.0,0.0
195,78.0,0.0,270.0,0.0,0.0
196,78.0,0.0,270.0,5.0,0.0
197,63.0,0.0,270.0,2.0,0.0
198,71.0,0.0,15.0,1.0,0.0
199,47.0,0.0,510.0,4.0,0.0
200,63.0,256.0,270.0,7.0,0.0
201,47.0,0.0,510.0,3.0,0.0
202,64.0,0.0,270.0,2.0,0.0
203,76.0,0.0,270.0,5.0,0.0
204,76.0,0.0,270.0,0.0,0.0
205,71.0,0.0,1020.0,6.0,0.0
206,52.0,0.0,1020.0,4.0,0.0
207,76.0,0.0,1020.0,0.0,0.0
208,76.0,0.0,15.0,5.0,0.0
209,64.0,1024.0,15.0,7.0,0.0
210,52.0,0.0,1020.0,3.0,0.0
211,68.0,0.0,1020.0,1.0,0.0
212,64.0,512.0,1020.0,2.0,0.0
213,80.0,0.0,510.0,5.0,0.0
214,71.0,0.0,510.0,6.0,0.0
215,64.0,256.0,510.0,4.0,0.0
216,64.0,0.0,510.0,7.0,0.0
217,69.0,256.0,270.0,6.0,0.0
218,61.0,0.0,510.0,7.0,0.0
219,57.0,0.0,510.0,4.0,0.0
220,78.0,0.0,270.0,5.0,0.0
221,76.0,0.0,270.0,5.0,0.0
222,73.0,0.0,270.0,6.0,0.0
223,75.0,0.0,510.0,5.0,0.0
224,66.0,256.0,510.0,6.0,0.0
225,59.0,0.0,510.0,4.0,0.0
226,76.0,0.0,270.0,5.0,0.0
227,52.0,0.0,510.0,4.0,0.0
228,59.0,0.0,15.0,7.0,0.0
229,68.0,256.0,270.0,6.0,0.0
230,78.0,0.0,270.0,5.0,0.0
231,69.0,0.0,270.0,6.0,0.0
232,75.0,0.0,780.0,5.0,0.0
233,59.0,512.0,15.0,7.0,0.0
234,66.0,0.0,780.0,6.0,0.0
235,59.0,256.0,510.0,4.0,0.0
236,59.0,0.0,15.0,7.0,0.0
237,47.0,0.0,510.0,4.0,0.0
238,76.0,0.0,270.0,5.0,0.0
239,52.0,0.0,1020.0,4.0,0.0
240,59.0,0.0,15.0,7.0,0.0
241,68.0,1024.0,15.0,6.0,0.0
242,76.0,0.0,1020.0,5.0,0.0
243,76.0,0.0,1020.0,5.0,0.0
244,76.0,0.0,15.0,0.0,0.0
245,76.0,0.0,15.0,4.0,0.0
246,76.0,1024.0,15.0,5.0,0.0
247,81.0,512.0,510.0,0.0,0.0
248,81.0,0.0,510.0,4.0,0.0
249,81.0,0.0,510.0,5.0,0.0
250,80.0,512.0,510.0,4.0,0.0
251,83.0,0.0,510.0,5.0,0.0
252,80.0,0.0,510.0,0.0,0.0
253,81.0,0.0,510.0,5.0,0.0
254,69.0,0.0,1020.0,6.0,0.0
255,81.0,512.0,1020.0,0.0,0.0
256,69.0,0.0,1020.0,1.0,0.0
257,69.0,0.0,1020.0,4.0,0.0
258,81.0,0.0,1020.0,4.0,0.0
259,83.0,0.0,510.0,5.0,0.0
260,81.0,0.0,510.0,5.0,0.0
261,69.0,0.0,1020.0,6.0,0.0
262,69.0,0.0,1020.0,4.0,0.0
263,69.0,512.0,1020.0,1.0,0.0
264,83.0,0.0,510.0,5.0,0.0
265,76.0,0.0,510.0,4.0,0.0
266,80.0,0.0,510.0,4.0,0.0
267,80.0,512.0,510.0,0.0,0.0
268,76.0,0.0,510.0,1.0,0.0
269,76.0,0.0,510.0,6.0,0.0
270,80.0,0.0,510.0,5.0,0.0
271,78.0,0.0,510.0,6.0,0.0
272,81.0,0.0,510.0,0.0,0.0
273,81.0,0.0,510.0,5.0,0.0
274,75.0,0.0,510.0,4.0,0.0
275,81.0,0.0,510.0,4.0,0.0
276,75.0,0.0,510.0,1.0,0.0
277,76.0,0.0,1020.0,1.0,0.0
278,80.0,512.0,510.0,0.0,0.0
279,76.0,512.0,1020.0,4.0,0.0
280,80.0,0.0,510.0,4.0,0.0
281,76.0,0.0,510.0,6.0,0.0
282,80.0,0.0,510.0,5.0,0.0
283,81.0,0.0,510.0,5.0,0.0
284,81.0,0.0,510.0,0.0,0.0
285,81.0,0.0,510.0,4.0,0.0
286,78.0,0.0,510.0,6.0,0.0
287,76.0,0.0,510.0,6.0,0.0
288,80.0,512.0,510.0,0.0,0.0
289,80.0,0.0,510.0,5.0,0.0
290,80.0,0.0,510.0,4.0,0.0
291,81.0,0.0,510.0,4.0,0.0
292,81.0,512.0,510.0,0.0,0.0
293,81.0,0.0,510.0,5.0,0.0
294,78.0,0.0,510.0,6.0,0.0
295,83.0,512.0,1020.0,0.0,0.0
296,74.0,512.0,510.0,6.0,0.0
297,83.0,0.0,510.0,5.0,0.0
298,74.0,0.0,510.0,1.0,0.0
299,83.0,0.0,1020.0,4.0,0.0
300,74.0,0.0,510.0,4.0,0.0
301,85.0,0.0,510.0,5.0,0.0
302,76.0,0.0,510.0,1.0,0.0
303,76.0,0.0,510.0,6.0,0.0
304,76.0,0.0,510.0,4.0,0.0
305,74.0,0.0,510.0,6.0,0.0
306,78.0,0.0,510.0,4.0,0.0
307,74.0,512.0,510.0,1.0,0.0
308,78.0,0.0,510.0,0.0,0.0
309,83.0,0.0,510.0,5.0,0.0
310,74.0,0.0,510.0,4.0,0.0
311,80.0,0.0,510.0,0.0,0.0
312,76.0,0.0,510.0,4.0,0.0
313,80.0,512.0,510.0,4.0,0.0
314,76.0,0.0,510.0,1.0,0.0
315,85.0,0.0,510.0,5.0,0.0
316,76.0,0.0,510.0,6.0,0.0
317,78.0,0.0,510.0,4.0,0.0
318,74.0,0.0,510.0,1.0,0.0
319,83.0,0.0,510.0,5.0,0.0
320,78.0,512.0,510.0,0.0,0.0
321,74.0,0.0,510.0,4.0,0.0
322,74.0,0.0,510.0,6.0,0.0
323,85.0,0.0,510.0,5.0,0.0
324,80.0,0.0,510.0,4.0,0.0
325,76.0,0.0,510.0,4.0,0.0
326,80.0,0.0,510.0,0.0,0.0
327,76.0,0.0,510.0,1.0,0.0
328,76.0,512.0,510.0,6.0,0.0
329,81.0,0.0,510.0,0.0,0.0
330,81.0,0.0,510.0,4.0,0.0
331,78.0,0.0,1020.0,4.0,0.0
332,78.0,0.0,1020.0,1.0,0.0
333,81.0,0.0,510.0,5.0,0.0
334,78.0,0.0,1020.0,6.0,0.0
335,83.0,0.0,510.0,4.0,0.0
336,83.0,0.0,510.0,0.0,0.0
337,83.0,0.0,510.0,5.0,0.0
338,73.0,0.0,510.0,6.0,0.0
339,73.0,0.0,510.0,1.0,0.0
340,81.0,0.0,510.0,0.0,0.0
341,81.0,0.0,510.0,5.0,0.0
342,73.0,0.0,510.0,4.0,0.0
343,81.0,0.0,510.0,4.0,0.0
344,83.0,0.0,510.0,0.0,0.0
345,74.0,0.0,510.0,1.0,0.0
346,83.0,0.0,510.0,4.0,0.0
347,83.0,0.0,510.0,5.0,0.0
348,74.0,512.0,510.0,4.0,0.0
349,74.0,0.0,510.0,6.0,0.0
350,73.0,0.0,510.0,1.0,0.0
351,73.0,0.0,510.0,6.0,0.0
352,81.0,0.0,510.0,5.0,0.0
353,81.0,0.0,510.0,4.0,0.0
354,73.0,0.0,510.0,4.0,0.0
355,81.0,512.0,510.0,0.0,0.0
356,83.0,0.0,510.0,5.0,0.0
357,74.0,512.0,510.0,1.0,0.0
358,74.0,0.0,510.0,4.0,0.0
359,83.0,0.0,510.0,4.0,0.0
360,83.0,0.0,510.0,0.0,0.0
361,74.0,0.0,510.0,6.0,0.0
362,76.0,0.0,510.0,6.0,0.0
363,80.0,0.0,1020.0,4.0,0.0
364,76.0,0.0,1020.0,4.0,0.0
365,80.0,0.0,1020.0,0.0,0.0
366,80.0,0.0,510.0,5.0,0.0
367,76.0,0.0,510.0,1.0,0.0
368,78.0,0.0,510.0,6.0,0.0
369,78.0,512.0,510.0,1.0,0.0
370,81.0,0.0,510.0,5.0,0.0
371,76.0,0.0,1020.0,0.0,0.0
372,76.0,0.0,510.0,6.0,0.0
373,80.0,0.0,510.0,5.0,0.0
374,76.0,512.0,510.0,1.0,0.0
375,81.0,0.0,510.0,5.0,0.0
376,78.0,0.0,510.0,6.0,0.0
377,78.0,0.0,510.0,1.0,0.0
378,74.0,0.0,510.0,6.0,0.0
379,64.0,0.0,15.0,7.0,0.0
380,64.0,0.0,15.0,4.0,0.0
381,80.0,0.0,1020.0,0.0,0.0
382,74.0,512.0,510.0,1.0,0.0
383,64.0,0.0,15.0,2.0,0.0
384,78.0,0.0,510.0,5.0,0.0
385,76.0,0.0,510.0,6.0,0.0
386,76.0,0.0,510.0,1.0,0.0
387,80.0,0.0,510.0,5.0,0.0
388,73.0,0.0,1020.0,1.0,0.0
389,73.0,512.0,510.0,6.0,0.0
390,81.0,0.0,1020.0,5.0,0.0
391,69.0,0.0,510.0,7.0,0.0
392,69.0,0.0,510.0,4.0,0.0
393,76.0,0.0,1020.0,0.0,0.0
394,69.0,0.0,510.0,2.0,0.0
395,68.0,0.0,510.0,2.0,0.0
396,71.0,512.0,510.0,7.0,0.0
397,68.0,0.0,510.0,4.0,0.0
398,74.0,0.0,510.0,6.0,0.0
399,73.0,512.0,1020.0,0.0,0.0
400,69.0,0.0,1020.0,1.0,0.0
401,69.0,0.0,1020.0,4.0,0.0
402,69.0,0.0,1020.0,2.0,0.0
403,73.0,512.0,510.0,6.0,0.0
404,57.0,0.0,1020.0,4.0,0.0
405,76.0,0.0,1020.0,5.0,0.0
406,69.0,0.0,510.0,7.0,0.0
407,74.0,0.0,510.0,6.0,0.0
408,71.0,0.0,510.0,7.0,0.0
409,73.0,512.0,510.0,6.0,0.0
410,57.0,0.0,1020.0,4.0,0.0
411,57.0,0.0,15.0,3.0,0.0
412,73.0,0.0,1020.0,1.0,0.0
413,69.0,0.0,510.0,7.0,0.0
414,81.0,0.0,1020.0,5.0,0.0
415,71.0,512.0,510.0,7.0,0.0
416,74.0,0.0,510.0,6.0,0.0
417,71.0,0.0,510.0,6.0,0.0
418,68.0,512.0,510.0,7.0,0.0
419,68.0,0.0,510.0,2.0,0.0
420,64.0,0.0,510.0,3.0,0.0
421,71.0,512.0,1020.0,1.0,0.0
422,83.0,0.0,1020.0,5.0,0.0
423,64.0,0.0,510.0,4.0,0.0
424,73.0,0.0,510.0,6.0,0.0
425,69.0,0.0,510.0,7.0,0.0
426,69.0,0.0,510.0,2.0,0.0
427,63.0,0.0,510.0,4.0,0.0
428,63.0,0.0,510.0,3.0,0.0
429,71.0,0.0,510.0,6.0,0.0
430,68.0,512.0,510.0,2.0,0.0
431,64.0,512.0,1020.0,3.0,0.0
432,76.0,0.0,1020.0,5.0,0.0
433,64.0,0.0,1020.0,4.0,0.0
434,68.0,0.0,1020.0,1.0,0.0
435,68.0,0.0,510.0,7.0,0.0
436,71.0,0.0,1020.0,0.0,0.0
437,69.0,0.0,510.0,7.0,0.0
438,73.0,0.0,510.0,6.0,0.0
439,69.0,0.0,510.0,2.0,0.0
440,71.0,512.0,510.0,6.0,0.0
441,68.0,0.0,510.0,7.0,0.0
442,68.0,0.0,510.0,2.0,0.0
443,71.0,0.0,1020.0,0.0,0.0
444,69.0,0.0,510.0,7.0,0.0
445,69.0,512.0,510.0,2.0,0.0
446,73.0,0.0,510.0,6.0,0.0
447,74.0,0.0,1020.0,6.0,0.0
448,62.0,512.0,510.0,3.0,0.0
449,71.0,0.0,510.0,7.0,0.0
450,62.0,0.0,510.0,4.0,0.0
451,78.0,0.0,510.0,0.0,0.0
452,71.0,0.0,1020.0,2.0,0.0
453,64.0,0.0,510.0,4.0,0.0
454,73.0,512.0,510.0,7.0,0.0
455,76.0,0.0,510.0,0.0,0.0
456,64.0,0.0,510.0,3.0,0.0
457,71.0,0.0,1020.0,6.0,0.0
458,78.0,0.0,1020.0,5.0,0.0
459,62.0,0.0,510.0,4.0,0.0
460,71.0,0.0,510.0,7.0,0.0
461,62.0,0.0,510.0,3.0,0.0
462,66.0,512.0,510.0,2.0,0.0
463,78.0,0.0,1020.0,0.0,0.0
464,64.0,512.0,510.0,4.0,0.0
465,64.0,0.0,510.0,3.0,0.0
466,68.0,0.0,510.0,2.0,0.0
467,73.0,0.0,510.0,7.0,0.0
468,62.0,512.0,510.0,4.0,0.0
469,74.0,0.0,1020.0,1.0,0.0
470,74.0,0.0,1020.0,6.0,0.0
471,62.0,0.0,510.0,3.0,0.0
472,78.0,0.0,1020.0,5.0,0.0
473,66.0,0.0,510.0,2.0,0.0
474,71.0,0.0,510.0,7.0,0.0
475,68.0,0.0,510.0,2.0,0.0
476,73.0,0.0,510.0,7.0,0.0
477,64.0,0.0,510.0,4.0,0.0
478,64.0,512.0,510.0,3.0,0.0
479,85.0,0.0,510.0,5.0,0.0
480,69.0,512.0,510.0,7.0,0.0
481,73.0,0.0,510.0,0.0,0.0
482,66.0,0.0,1020.0,4.0,0.0
483,73.0,0.0,1020.0,6.0,0.0
484,66.0,0.0,1020.0,3.0,0.0
485,69.0,0.0,510.0,2.0,0.0
486,73.0,0.0,1020.0,1.0,0.0
487,83.0,0.0,510.0,5.0,0.0
488,74.0,0.0,510.0,0.0,0.0
489,71.0,512.0,510.0,7.0,0.0
490,71.0,0.0,510.0,2.0,0.0
491,76.0,0.0,1020.0,0.0,0.0
492,61.0,0.0,510.0,3.0,0.0
493,69.0,512.0,1020.0,1.0,0.0
494,85.0,0.0,1020.0,5.0,0.0
495,69.0,0.0,510.0,2.0,0.0
496,69.0,0.0,1020.0,6.0,0.0
497,69.0,0.0,510.0,7.0,0.0
498,61.0,512.0,510.0,4.0,0.0
499,71.0,0.0,510.0,7.0,0.0
500,71.0,0.0,510.0,2.0,0.0
501,62.0,0.0,510.0,4.0,0.0
502,62.0,0.0,510.0,3.0,0.0
503,61.0,512.0,510.0,4.0,0.0
504,69.0,0.0,510.0,2.0,0.0
505,61.0,0.0,510.0,3.0,0.0
506,69.0,0.0,510.0,7.0,0.0
507,73.0,0.0,1020.0,1.0,0.0
508,73.0,512.0,1020.0,6.0,0.0
509,71.0,0.0,510.0,2.0,0.0
510,62.0,0.0,510.0,4.0,0.0
511,62.0,0.0,510.0,3.0,0.0
512,71.0,0.0,510.0,7.0,0.0
513,64.0,0.0,510.0,3.0,0.0
514,64.0,512.0,510.0,4.0,0.0
515,76.0,0.0,15.0,0.0,0.0
516,68.0,0.0,1020.0,2.0,0.0
517,71.0,0.0,1020.0,1.0,0.0
518,68.0,0.0,510.0,7.0,0.0
519,71.0,0.0,1020.0,6.0,0.0
520,69.0,0.0,510.0,7.0,0.0
521,66.0,0.0,510.0,3.0,0.0
522,66.0,0.0,510.0,4.0,0.0
523,68.0,0.0,1020.0,1.0,0.0
524,68.0,0.0,1020.0,6.0,0.0
525,64.0,512.0,1020.0,2.0,0.0
526,64.0,512.0,510.0,4.0,0.0
527,68.0,0.0,510.0,7.0,0.0
528,71.0,0.0,1020.0,0.0,0.0
529,64.0,0.0,510.0,3.0,0.0
530,69.0,0.0,510.0,7.0,0.0
531,66.0,0.0,510.0,3.0,0.0
532,66.0,0.0,510.0,4.0,0.0
533,71.0,0.0,1020.0,6.0,0.0
534,76.0,0.0,15.0,5.0,0.0
535,68.0,0.0,1020.0,2.0,0.0
536,76.0,0.0,15.0,5.0,0.0
537,62.0,0.0,510.0,3.0,0.0
538,71.0,0.0,1020.0,1.0,0.0
539,68.0,512.0,510.0,7.0,0.0
540,62.0,0.0,510.0,4.0,0.0
541,64.0,512.0,510.0,3.0,0.0
542,64.0,0.0,510.0,4.0,0.0
543,69.0,0.0,510.0,7.0,0.0
544,71.0,0.0,1020.0,7.0,0.0
545,81.0,0.0,510.0,5.0,0.0
546,61.0,0.0,1020.0,3.0,0.0
547,76.0,0.0,1020.0,1.0,0.0
548,73.0,512.0,510.0,6.0,0.0
549,61.0,0.0,1020.0,4.0,0.0
550,69.0,0.0,1020.0,2.0,0.0
551,83.0,0.0,510.0,5.0,0.0
552,74.0,0.0,510.0,6.0,0.0
553,64.0,0.0,1020.0,2.0,0.0
554,57.0,0.0,1020.0,4.0,0.0
555,57.0,0.0,1020.0,3.0,0.0
556,73.0,512.0,510.0,6.0,0.0
557,73.0,0.0,1020.0,1.0,0.0
558,69.0,512.0,1020.0,0.0,0.0
559,81.0,0.0,510.0,5.0,0.0
560,83.0,0.0,510.0,5.0,0.0
561,74.0,0.0,510.0,6.0,0.0
562,61.0,0.0,1020.0,4.0,0.0
563,61.0,0.0,1020.0,3.0,0.0
564,64.0,0.0,15.0,7.0,0.0
565,73.0,0.0,510.0,6.0,0.0
566,81.0,0.0,510.0,5.0,0.0
567,69.0,0.0,1020.0,0.0,0.0
568,74.0,0.0,510.0,6.0,0.0
569,83.0,0.0,510.0,5.0,0.0
570,71.0,0.0,1020.0,6.0,0.0
571,64.0,512.0,1020.0,4.0,0.0
572,64.0,0.0,1020.0,3.0,0.0
573,76.0,0.0,510.0,0.0,0.0
574,80.0,0.0,510.0,5.0,0.0
575,68.0,0.0,510.0,7.0,0.0
576,64.0,0.0,510.0,2.0,0.0
577,66.0,0.0,510.0,7.0,0.0
578,75.0,0.0,510.0,0.0,0.0
579,66.0,0.0,510.0,2.0,0.0
580,81.0,0.0,510.0,5.0,0.0
581,76.0,0.0,1020.0,0.0,0.0
582,64.0,0.0,510.0,2.0,0.0
583,52.0,512.0,1020.0,4.0,0.0
584,68.0,0.0,1020.0,6.0,0.0
585,52.0,0.0,1020.0,3.0,0.0
586,64.0,0.0,510.0,7.0,0.0
587,80.0,0.0,510.0,5.0,0.0
588,66.0,0.0,510.0,7.0,0.0
589,66.0,0.0,510.0,2.0,0.0
590,81.0,0.0,510.0,5.0,0.0
591,64.0,0.0,15.0,1.0,0.0
592,68.0,512.0,510.0,7.0,0.0
593,80.0,0.0,510.0,5.0,0.0
594,71.0,512.0,1020.0,6.0,0.0
595,64.0,0.0,1020.0,4.0,0.0
596,68.0,0.0,510.0,2.0,0.0
597,81.0,0.0,510.0,5.0,0.0
598,64.0,0.0,510.0,7.0,0.0
599,64.0,0.0,510.0,2.0,0.0
600,66.0,0.0,510.0,2.0,0.0
601,66.0,0.0,510.0,7.0,0.0
602,59.0,512.0,1020.0,4.0,0.0
603,83.0,0.0,1020.0,5.0,0.0
604,71.0,0.0,510.0,1.0,0.0
605,74.0,512.0,510.0,0.0,0.0
606,74.0,0.0,1020.0,6.0,0.0
607,64.0,0.0,510.0,2.0,0.0
608,69.0,0.0,510.0,1.0,0.0
609,76.0,0.0,510.0,0.0,0.0
610,64.0,0.0,510.0,7.0,0.0
611,78.0,0.0,510.0,5.0,0.0
612,47.0,0.0,1020.0,4.0,0.0
613,74.0,512.0,510.0,0.0,0.0
614,66.0,512.0,1020.0,2.0,0.0
615,71.0,0.0,1020.0,1.0,0.0
616,66.0,0.0,1020.0,7.0,0.0
617,66.0,0.0,1020.0,6.0,0.0
618,80.0,0.0,510.0,5.0,0.0
619,76.0,0.0,510.0,0.0,0.0
620,74.0,0.0,510.0,0.0,0.0
621,59.0,0.0,1020.0,3.0,0.0
622,59.0,0.0,1020.0,4.0,0.0
623,62.0,0.0,1020.0,2.0,0.0
624,62.0,0.0,1020.0,7.0,0.0
625,78.0,0.0,510.0,5.0,0.0
626,71.0,0.0,1020.0,6.0,0.0
627,76.0,0.0,510.0,0.0,0.0
628,80.0,0.0,510.0,5.0,0.0
629,61.0,0.0,1020.0,7.0,0.0
630,54.0,0.0,1020.0,3.0,0.0
631,54.0,0.0,1020.0,4.0,0.0
632,69.0,512.0,510.0,1.0,0.0
633,61.0,0.0,1020.0,2.0,0.0
634,69.0,512.0,1020.0,6.0,0.0
635,81.0,0.0,1020.0,5.0,0.0
636,78.0,0.0,1020.0,0.0,0.0
637,71.0,0.0,510.0,1.0,0.0
638,66.0,0.0,1020.0,6.0,0.0
639,57.0,0.0,1020.0,7.0,0.0
640,42.0,0.0,1020.0,4.0,0.0
641,73.0,512.0,510.0,0.0,0.0
642,42.0,0.0,1020.0,3.0,0.0
643,57.0,0.0,1020.0,2.0,0.0
644,69.0,0.0,510.0,1.0,0.0
645,73.0,0.0,1020.0,5.0,0.0
646,71.0,0.0,510.0,1.0,0.0
647,74.0,512.0,510.0,0.0,0.0
648,66.0,0.0,1020.0,4.0,0.0
649,69.0,0.0,510.0,1.0,0.0
650,66.0,0.0,1020.0,7.0,0.0
651,78.0,0.0,1020.0,5.0,0.0
652,73.0,512.0,510.0,0.0,0.0
653,66.0,0.0,510.0,2.0,0.0
654,74.0,0.0,510.0,0.0,0.0
655,71.0,0.0,510.0,1.0,0.0
656,66.0,0.0,510.0,2.0,0.0
657,69.0,512.0,15.0,6.0,0.0
658,61.0,0.0,510.0,4.0,0.0
659,61.0,0.0,510.0,2.0,0.0
660,76.0,0.0,1020.0,0.0,0.0
661,76.0,0.0,510.0,5.0,0.0
662,61.0,512.0,510.0,7.0,0.0
663,73.0,0.0,1020.0,1.0,0.0
664,62.0,0.0,510.0,2.0,0.0
665,62.0,0.0,510.0,4.0,0.0
666,78.0,0.0,510.0,5.0,0.0
667,62.0,0.0,510.0,7.0,0.0
668,80.0,0.0,510.0,5.0,0.0
669,64.0,0.0,1020.0,2.0,0.0
670,64.0,0.0,1020.0,6.0,0.0
671,68.0,512.0,510.0,1.0,0.0
672,64.0,0.0,1020.0,7.0,0.0
673,64.0,512.0,1020.0,4.0,0.0
674,71.0,0.0,510.0,0.0,0.0
675,73.0,0.0,510.0,0.0,0.0
676,69.0,0.0,510.0,1.0,0.0
677,78.0,0.0,510.0,5.0,0.0
678,68.0,0.0,510.0,1.0,0.0
679,64.0,0.0,1020.0,2.0,0.0
680,71.0,0.0,510.0,0.0,0.0
681,68.0,0.0,1020.0,6.0,0.0
682,64.0,0.0,1020.0,7.0,0.0
683,76.0,0.0,510.0,5.0,0.0
684,64.0,0.0,1020.0,4.0,0.0
685,69.0,512.0,510.0,1.0,0.0
686,73.0,0.0,510.0,0.0,0.0
687,78.0,0.0,510.0,5.0,0.0
688,74.0,0.0,1020.0,0.0,0.0
689,59.0,512.0,510.0,2.0,0.0
690,66.0,0.0,1020.0,6.0,0.0
691,59.0,0.0,510.0,7.0,0.0
692,59.0,0.0,510.0,4.0,0.0
693,71.0,0.0,1020.0,1.0,0.0
694,74.0,0.0,510.0,5.0,0.0
695,61.0,0.0,510.0,4.0,0.0
696,61.0,0.0,510.0,2.0,0.0
697,76.0,0.0,510.0,5.0,0.0
698,61.0,512.0,510.0,7.0,0.0
699,69.0,0.0,510.0,0.0,0.0
700,62.0,0.0,1020.0,4.0,0.0
701,62.0,0.0,1020.0,2.0,0.0
702,62.0,512.0,1020.0,6.0,0.0
703,66.0,0.0,510.0,1.0,0.0
704,78.0,0.0,510.0,5.0,0.0
705,62.0,0.0,1020.0,7.0,0.0
706,68.0,0.0,510.0,1.0,0.0
707,71.0,0.0,510.0,0.0,0.0
708,76.0,0.0,510.0,5.0,0.0
709,66.0,0.0,510.0,6.0,0.0
710,66.0,0.0,510.0,1.0,0.0
711,62.0,512.0,1020.0,4.0,0.0
712,62.0,0.0,1020.0,7.0,0.0
713,74.0,0.0,510.0,5.0,0.0
714,62.0,0.0,1020.0,2.0,0.0
715,69.0,0.0,510.0,0.0,0.0
716,68.0,0.0,510.0,1.0,0.0
717,71.0,0.0,510.0,0.0,0.0
718,68.0,0.0,510.0,6.0,0.0
719,78.0,0.0,510.0,5.0,0.0
720,69.0,512.0,510.0,1.0,0.0
721,69.0,0.0,510.0,6.0,0.0
722,61.0,0.0,510.0,4.0,0.0
723,73.0,0.0,1020.0,0.0,0.0
724,61.0,0.0,510.0,7.0,0.0
725,61.0,0.0,510.0,2.0,0.0
726,62.0,0.0,510.0,4.0,0.0
727,62.0,0.0,510.0,2.0,0.0
728,71.0,0.0,510.0,6.0,0.0
729,68.0,512.0,510.0,1.0,0.0
730,62.0,0.0,510.0,7.0,0.0
731,76.0,0.0,15.0,5.0,0.0
732,61.0,0.0,510.0,4.0,0.0
733,61.0,0.0,510.0,7.0,0.0
734,76.0,0.0,1020.0,5.0,0.0
735,69.0,0.0,510.0,1.0,0.0
736,69.0,0.0,510.0,6.0,0.0
737,61.0,512.0,510.0,2.0,0.0
738,69.0,0.0,1020.0,0.0,0.0
739,62.0,0.0,510.0,7.0,0.0
740,62.0,0.0,510.0,4.0,0.0
741,71.0,512.0,510.0,1.0,0.0
742,68.0,0.0,510.0,6.0,0.0
743,62.0,0.0,510.0,2.0,0.0
744,81.0,0.0,1020.0,0.0,0.0
745,61.0,0.0,510.0,4.0,0.0
746,69.0,0.0,510.0,6.0,0.0
747,81.0,0.0,1020.0,5.0,0.0
748,73.0,0.0,1020.0,1.0,0.0
749,61.0,0.0,510.0,2.0,0.0
750,61.0,512.0,510.0,7.0,0.0
751,62.0,512.0,510.0,2.0,0.0
752,66.0,0.0,510.0,6.0,0.0
753,62.0,0.0,510.0,7.0,0.0
754,62.0,0.0,510.0,4.0,0.0
755,80.0,512.0,1020.0,0.0,0.0
756,71.0,512.0,510.0,6.0,0.0
757,71.0,0.0,1020.0,1.0,0.0
758,64.0,0.0,1020.0,2.0,0.0
759,64.0,0.0,1020.0,7.0,0.0
760,64.0,0.0,1020.0,4.0,0.0
761,80.0,0.0,1020.0,5.0,0.0
762,73.0,0.0,510.0,6.0,0.0
763,59.0,0.0,1020.0,2.0,0.0
764,68.0,0.0,1020.0,1.0,0.0
765,76.0,512.0,1020.0,0.0,0.0
766,71.0,512.0,510.0,6.0,0.0
767,62.0,0.0,510.0,7.0,0.0
768,76.0,0.0,1020.0,5.0,0.0
769,73.0,0.0,510.0,6.0,0.0
770,64.0,0.0,510.0,7.0,0.0
771,62.0,0.0,510.0,7.0,0.0
772,64.0,0.0,1020.0,2.0,0.0
773,80.0,0.0,1020.0,0.0,0.0
774,52.0,0.0,15.0,3.0,0.0
775,52.0,0.0,15.0,4.0,0.0
776,80.0,0.0,1020.0,5.0,0.0
777,76.0,0.0,1020.0,1.0,0.0
778,71.0,512.0,510.0,6.0,0.0
779,64.0,0.0,510.0,7.0,0.0
780,73.0,0.0,510.0,6.0,0.0
781,57.0,0.0,510.0,4.0,0.0
782,61.0,0.0,510.0,7.0,0.0
783,81.0,0.0,1020.0,5.0,0.0
784,76.0,0.0,1020.0,1.0,0.0
785,61.0,0.0,1020.0,2.0,0.0
786,81.0,0.0,1020.0,0.0,0.0
787,69.0,0.0,510.0,6.0,0.0
788,57.0,512.0,510.0,3.0,0.0
789,71.0,512.0,510.0,6.0,0.0
790,56.0,0.0,510.0,3.0,0.0
791,62.0,0.0,510.0,7.0,0.0
792,56.0,0.0,510.0,4.0,0.0
793,57.0,0.0,1020.0,3.0,0.0
794,57.0,0.0,1020.0,4.0,0.0
795,76.0,0.0,1020.0,0.0,0.0
796,61.0,512.0,510.0,7.0,0.0
797,57.0,0.0,1020.0,2.0,0.0
798,69.0,0.0,510.0,6.0,0.0
799,76.0,0.0,1020.0,5.0,0.0
800,73.0,0.0,1020.0,1.0,0.0
801,71.0,0.0,510.0,6.0,0.0
802,59.0,0.0,510.0,7.0,0.0
803,73.0,0.0,510.0,6.0,0.0
804,81.0,0.0,1020.0,5.0,0.0
805,57.0,512.0,510.0,7.0,0.0
806,69.0,0.0,510.0,6.0,0.0
807,61.0,512.0,510.0,7.0,0.0
808,59.0,512.0,510.0,7.0,0.0
809,56.0,0.0,510.0,4.0,0.0
810,76.0,0.0,1020.0,6.0,0.0
811,56.0,0.0,510.0,3.0,0.0
812,83.0,0.0,1020.0,5.0,0.0
813,61.0,512.0,510.0,7.0,0.0
814,57.0,0.0,510.0,3.0,0.0
815,57.0,0.0,510.0,4.0,0.0
816,71.0,0.0,1020.0,6.0,0.0
817,59.0,512.0,510.0,7.0,0.0
818,56.0,0.0,510.0,4.0,0.0
819,56.0,0.0,510.0,3.0,0.0
820,76.0,0.0,1020.0,5.0,0.0
821,57.0,0.0,510.0,3.0,0.0
822,57.0,0.0,510.0,4.0,0.0
823,61.0,0.0,510.0,7.0,0.0
824,59.0,0.0,510.0,7.0,0.0
825,64.0,0.0,15.0,2.0,0.0
826,71.0,0.0,15.0,1.0,0.0
827,56.0,0.0,510.0,3.0,0.0
828,80.0,512.0,15.0,0.0,0.0
829,88.0,0.0,1020.0,5.0,0.0
830,56.0,512.0,510.0,4.0,0.0
831,61.0,0.0,510.0,7.0,0.0
832,57.0,0.0,510.0,3.0,0.0
833,57.0,0.0,510.0,4.0,0.0
834,71.0,0.0,15.0,6.0,0.0
835,71.0,0.0,15.0,1.0,0.0
836,59.0,512.0,1020.0,2.0,0.0
837,59.0,0.0,1020.0,4.0,0.0
838,59.0,0.0,1020.0,3.0,0.0
839,78.0,0.0,1020.0,0.0,0.0
840,62.0,512.0,510.0,7.0,0.0
841,86.0,0.0,510.0,5.0,0.0
842,64.0,0.0,510.0,7.0,0.0
843,85.0,0.0,510.0,5.0,0.0
844,62.0,0.0,1020.0,2.0,0.0
845,86.0,0.0,510.0,5.0,0.0
846,69.0,0.0,510.0,6.0,0.0
847,54.0,0.0,510.0,3.0,0.0
848,69.0,0.0,1020.0,1.0,0.0
849,78.0,0.0,1020.0,0.0,0.0
850,54.0,0.0,510.0,4.0,0.0
851,66.0,0.0,510.0,7.0,0.0
852,71.0,0.0,510.0,6.0,0.0
853,56.0,0.0,510.0,4.0,0.0
854,88.0,0.0,510.0,5.0,0.0
855,64.0,0.0,510.0,7.0,0.0
856,56.0,0.0,510.0,3.0,0.0
857,66.0,0.0,510.0,7.0,0.0
858,54.0,512.0,510.0,4.0,0.0
859,54.0,0.0,510.0,3.0,0.0
860,69.0,0.0,510.0,6.0,0.0
861,86.0,0.0,510.0,5.0,0.0
862,56.0,0.0,510.0,3.0,0.0
863,71.0,512.0,510.0,6.0,0.0
864,62.0,0.0,510.0,7.0,0.0
865,88.0,0.0,510.0,5.0,0.0
866,56.0,0.0,510.0,4.0,0.0
867,69.0,0.0,1020.0,1.0,0.0
868,64.0,0.0,1020.0,2.0,0.0
869,69.0,0.0,1020.0,7.0,0.0
870,85.0,0.0,510.0,5.0,0.0
871,57.0,0.0,1020.0,4.0,0.0
872,57.0,512.0,1020.0,3.0,0.0
873,76.0,0.0,1020.0,0.0,0.0
874,73.0,512.0,510.0,6.0,0.0
875,86.0,0.0,510.0,5.0,0.0
876,71.0,0.0,510.0,6.0,0.0
877,85.0,0.0,510.0,5.0,0.0
878,66.0,0.0,1020.0,2.0,0.0
879,69.0,0.0,1020.0,1.0,0.0
880,61.0,0.0,1020.0,7.0,0.0
881,81.0,0.0,1020.0,0.0,0.0
882,54.0,0.0,1020.0,4.0,0.0
883,54.0,0.0,1020.0,3.0,0.0
884,69.0,0.0,510.0,6.0,0.0
885,68.0,0.0,510.0,6.0,0.0
886,83.0,0.0,510.0,5.0,0.0
887,59.0,0.0,1020.0,3.0,0.0
888,71.0,0.0,1020.0,1.0,0.0
889,66.0,512.0,510.0,6.0,0.0
890,63.0,0.0,1020.0,7.0,0.0
891,66.0,0.0,1020.0,2.0,0.0
892,59.0,0.0,1020.0,4.0,0.0
893,81.0,0.0,510.0,5.0,0.0
894,78.0,0.0,1020.0,0.0,0.0
895,83.0,0.0,510.0,5.0,0.0
896,68.0,0.0,510.0,6.0,0.0
897,64.0,0.0,1020.0,7.0,0.0
898,64.0,0.0,1020.0,2.0,0.0
899,71.0,0.0,1020.0,1.0,0.0
900,80.0,0.0,1020.0,0.0,0.0
901,68.0,0.0,1020.0,1.0,0.0
902,80.0,0.0,15.0,5.0,0.0
903,76.0,1024.0,1020.0,5.0,0.0
904,64.0,0.0,1020.0,2.0,0.0
905,59.0,0.0,1020.0,7.0,0.0
906,52.0,0.0,15.0,3.0,0.0
907,52.0,0.0,15.0,4.0,0.0
908,76.0,0.0,1020.0,0.0,0.0
909,64.0,1024.0,15.0,6.0,0.0
910,76.0,0.0,1020.0,0.0,0.0
911,81.0,512.0,1020.0,5.0,0.0
912,85.0,0.0,1020.0,5.0,0.0
913,80.0,512.0,510.0,5.0,0.0
914,83.0,0.0,510.0,5.0,0.0
915,85.0,0.0,510.0,5.0,0.0
916,81.0,512.0,510.0,5.0,0.0
917,64.0,0.0,1020.0,7.0,0.0
918,80.0,0.0,510.0,5.0,0.0
919,86.0,0.0,510.0,5.0,0.0
920,83.0,512.0,15.0,5.0,0.0
921,69.0,0.0,1020.0,7.0,0.0
922,85.0,0.0,510.0,5.0,0.0
923,81.0,512.0,510.0,5.0,0.0
924,86.0,0.0,510.0,5.0,0.0
925,85.0,512.0,510.0,5.0,0.0
926,68.0,0.0,510.0,7.0,0.0
927,88.0,0.0,1020.0,5.0,0.0
928,83.0,512.0,510.0,5.0,0.0
929,69.0,512.0,510.0,7.0,0.0
930,85.0,0.0,510.0,5.0,0.0
931,76.0,0.0,1020.0,5.0,0.0
932,68.0,0.0,510.0,7.0,0.0
933,56.0,0.0,1020.0,4.0,0.0
934,71.0,512.0,1020.0,6.0,0.0
935,83.0,512.0,510.0,5.0,0.0
936,69.0,0.0,510.0,7.0,0.0
937,85.0,0.0,510.0,5.0,0.0
938,66.0,512.0,510.0,7.0,0.0
939,81.0,0.0,510.0,5.0,0.0
940,52.0,512.0,1020.0,4.0,0.0
941,76.0,0.0,1020.0,6.0,0.0
942,68.0,0.0,510.0,7.0,0.0
943,83.0,0.0,510.0,5.0,0.0
944,85.0,0.0,510.0,5.0,0.0
945,73.0,0.0,510.0,6.0,0.0
946,69.0,512.0,510.0,7.0,0.0
947,57.0,0.0,510.0,4.0,0.0
948,74.0,0.0,510.0,6.0,0.0
949,56.0,512.0,510.0,4.0,0.0
950,83.0,0.0,510.0,5.0,0.0
951,71.0,0.0,510.0,7.0,0.0
952,81.0,0.0,510.0,5.0,0.0
953,73.0,512.0,510.0,7.0,0.0
954,76.0,0.0,1020.0,5.0,0.0
955,73.0,0.0,510.0,6.0,0.0
956,57.0,0.0,510.0,4.0,0.0
957,85.0,0.0,510.0,5.0,0.0
958,76.0,0.0,510.0,6.0,0.0
959,68.0,512.0,510.0,7.0,0.0
960,59.0,0.0,510.0,4.0,0.0
961,83.0,0.0,510.0,5.0,0.0
962,74.0,512.0,510.0,6.0,0.0
963,61.0,0.0,510.0,4.0,0.0
964,69.0,0.0,510.0,7.0,0.0
965,62.0,0.0,510.0,4.0,0.0
966,66.0,512.0,510.0,7.0,0.0
967,81.0,0.0,510.0,5.0,0.0
968,73.0,0.0,510.0,6.0,0.0
969,80.0,0.0,1020.0,5.0,0.0
970,71.0,0.0,1020.0,7.0,0.0
971,64.0,512.0,510.0,4.0,0.0
972,71.0,0.0,1020.0,6.0,0.0
973,66.0,0.0,510.0,4.0,0.0
974,64.0,512.0,510.0,4.0,0.0
975,68.0,512.0,1020.0,6.0,0.0
976,59.0,0.0,1020.0,7.0,0.0
977,76.0,0.0,1020.0,5.0,0.0
978,76.0,512.0,15.0,0.0,0.0
979,62.0,0.0,510.0,4.0,0.0
980,81.0,0.0,1020.0,0.0,0.0
981,73.0,0.0,1020.0,6.0,0.0
982,61.0,0.0,1020.0,3.0,0.0
983,64.0,512.0,1020.0,7.0,0.0
984,61.0,512.0,510.0,4.0,0.0
985,64.0,0.0,1020.0,2.0,0.0
986,81.0,0.0,1020.0,5.0,0.0
987,73.0,0.0,1020.0,1.0,0.0
988,57.0,0.0,510.0,4.0,0.0
989,62.0,512.0,1020.0,3.0,0.0
990,62.0,0.0,1020.0,7.0,0.0
991,78.0,0.0,1020.0,5.0,0.0
992,62.0,0.0,1020.0,2.0,0.0
993,78.0,0.0,1020.0,0.0,0.0
994,69.0,0.0,1020.0,1.0,0.0
995,69.0,0.0,1020.0,6.0,0.0
996,62.0,512.0,510.0,4.0,0.0
997,61.0,0.0,510.0,4.0,0.0
998,62.0,512.0,510.0,4.0,0.0
999,83.0,0.0,1020.0,0.0,0.0
1000,66.0,0.0,1020.0,7.0,0.0
1001,74.0,0.0,1020.0,1.0,0.0
1002,66.0,512.0,1020.0,2.0,0.0
1003,83.0,0.0,1020.0,5.0,0.0
1004,59.0,0.0,1020.0,3.0,0.0
1005,74.0,0.0,1020.0,6.0,0.0
1006,59.0,0.0,510.0,4.0,0.0
1007,64.0,512.0,510.0,4.0,0.0
1008,64.0,0.0,1020.0,7.0,0.0
1009,80.0,0.0,1020.0,5.0,0.0
1010,71.0,0.0,1020.0,6.0,0.0
1011,80.0,0.0,1020.0,0.0,0.0
1012,64.0,0.0,1020.0,3.0,0.0
1013,71.0,0.0,1020.0,1.0,0.0
1014,52.0,0.0,510.0,4.0,0.0
1015,73.0,256.0,1020.0,1.0,0.0
1016,64.0,0.0,1020.0,7.0,0.0
1017,64.0,0.0,15.0,2.0,0.0
1018,57.0,0.0,1020.0,3.0,0.0
1019,73.0,0.0,1020.0,6.0,0.0
1020,81.0,0.0,1020.0,0.0,0.0
1021,57.0,0.0,1020.0,4.0,0.0
1022,81.0,0.0,270.0,5.0,0.0
1023,80.0,0.0,270.0,5.0,0.0
1024,81.0,0.0,270.0,5.0,0.0
1025,80.0,0.0,270.0,5.0,0.0
1026,81.0,0.0,270.0,5.0,0.0
1027,45.0,0.0,1020.0,4.0,0.0
1028,80.0,0.0,270.0,5.0,0.0
1029,57.0,0.0,510.0,7.0,0.0
1030,61.0,0.0,510.0,6.0,0.0
1031,81.0,0.0,270.0,5.0,0.0
1032,80.0,0.0,270.0,5.0,0.0
1033,62.0,256.0,510.0,6.0,0.0
1034,59.0,0.0,510.0,7.0,0.0
1035,81.0,0.0,270.0,5.0,0.0
1036,80.0,0.0,270.0,5.0,0.0
1037,81.0,0.0,270.0,5.0,0.0
1038,64.0,0.0,510.0,6.0,0.0
1039,61.0,512.0,510.0,7.0,0.0
1040,80.0,0.0,270.0,5.0,0.0
1041,66.0,512.0,510.0,6.0,0.0
1042,81.0,0.0,7170.0,5.0,0.0
1043,62.0,0.0,510.0,7.0,0.0
1044,64.0,512.0,510.0,6.0,0.0
1045,61.0,0.0,510.0,7.0,0.0
1046,66.0,512.0,510.0,6.0,0.0
1047,62.0,0.0,510.0,7.0,0.0
1048,64.0,512.0,510.0,7.0,0.0
1049,68.0,0.0,510.0,6.0,0.0
1050,69.0,0.0,510.0,6.0,0.0
1051,66.0,512.0,510.0,7.0,0.0
1052,68.0,0.0,510.0,7.0,0.0
1053,71.0,512.0,510.0,6.0,0.0
1054,73.0,0.0,510.0,6.0,0.0
1055,69.0,512.0,510.0,7.0,0.0
1056,74.0,512.0,510.0,6.0,0.0
1057,71.0,0.0,510.0,7.0,0.0
1058,69.0,0.0,510.0,7.0,0.0
1059,73.0,512.0,510.0,6.0,0.0
1060,68.0,512.0,510.0,7.0,0.0
1061,71.0,0.0,510.0,6.0,0.0
1062,69.0,0.0,510.0,6.0,0.0
1063,66.0,512.0,510.0,7.0,0.0
1064,73.0,512.0,510.0,6.0,0.0
1065,64.0,0.0,510.0,7.0,0.0
1066,71.0,0.0,1020.0,6.0,0.0
1067,62.0,512.0,510.0,7.0,0.0
1068,61.0,0.0,510.0,7.0,0.0
1069,83.0,0.0,1020.0,5.0,0.0
1070,62.0,512.0,510.0,7.0,0.0
1071,71.0,0.0,510.0,6.0,0.0
1072,59.0,0.0,510.0,7.0,0.0
1073,73.0,0.0,510.0,6.0,0.0
1074,64.0,0.0,510.0,7.0,0.0
1075,80.0,0.0,1020.0,5.0,0.0
1076,74.0,512.0,510.0,6.0,0.0
1077,76.0,0.0,510.0,6.0,0.0
1078,52.0,1024.0,510.0,7.0,0.0
1079,81.0,0.0,1020.0,5.0,0.0
1080,57.0,0.0,1020.0,7.0,0.0
1081,81.0,0.0,15.0,5.0,0.0
1082,57.0,0.0,1020.0,4.0,0.0
1083,73.0,0.0,1020.0,1.0,0.0
1084,57.0,0.0,1020.0,3.0,0.0
1085,81.0,0.0,1020.0,0.0,0.0
1086,64.0,0.0,1020.0,2.0,0.0
1087,73.0,1024.0,15.0,6.0,0.0
1088,64.0,0.0,1020.0,7.0,0.0
1089,81.0,0.0,1020.0,0.0,0.0
1090,54.0,512.0,1020.0,3.0,0.0
1091,73.0,0.0,1020.0,1.0,0.0
1092,81.0,0.0,1020.0,5.0,0.0
1093,54.0,0.0,1020.0,4.0,0.0
1094,66.0,0.0,1020.0,7.0,0.0
1095,73.0,1024.0,15.0,6.0,0.0
1096,75.0,0.0,1020.0,6.0,0.0
1097,48.0,0.0,1020.0,3.0,0.0
1098,75.0,0.0,1020.0,1.0,0.0
1099,81.0,0.0,510.0,0.0,0.0
1100,81.0,0.0,510.0,5.0,0.0
1101,48.0,0.0,1020.0,4.0,0.0
1102,66.0,0.0,15.0,2.0,0.0
1103,66.0,0.0,510.0,7.0,0.0
1104,68.0,0.0,510.0,2.0,0.0
1105,80.0,0.0,510.0,0.0,0.0
1106,80.0,0.0,510.0,5.0,0.0
1107,74.0,0.0,1020.0,6.0,0.0
1108,47.0,0.0,2040.0,4.0,0.0
1109,74.0,0.0,1020.0,1.0,0.0
1110,80.0,0.0,510.0,0.0,0.0
1111,68.0,0.0,15.0,7.0,0.0
1112,80.0,512.0,15.0,5.0,0.0
1113,68.0,512.0,510.0,2.0,0.0
1114,69.0,1024.0,510.0,7.0,0.0
1115,78.0,0.0,510.0,5.0,0.0
1116,78.0,0.0,510.0,0.0,0.0
1117,69.0,0.0,510.0,2.0,0.0
1118,77.0,0.0,1020.0,5.0,0.0
1119,73.0,0.0,1020.0,6.0,0.0
1120,47.0,0.0,15.0,3.0,0.0
1121,73.0,0.0,1020.0,1.0,0.0
1122,68.0,512.0,1020.0,2.0,0.0
1123,68.0,0.0,1020.0,7.0,0.0
1124,77.0,0.0,1020.0,0.0,0.0
1125,45.0,1024.0,1020.0,3.0,0.0
1126,85.0,0.0,510.0,5.0,0.0
1127,73.0,0.0,1020.0,6.0,0.0
1128,45.0,0.0,1020.0,4.0,0.0
1129,69.0,0.0,1020.0,7.0,0.0
1130,73.0,0.0,1020.0,1.0,0.0
1131,69.0,0.0,1020.0,2.0,0.0
1132,73.0,0.0,510.0,5.0,0.0
1133,73.0,0.0,1020.0,1.0,0.0
1134,69.0,0.0,1020.0,2.0,0.0
1135,78.0,0.0,1530.0,5.0,0.0
1136,50.0,0.0,1530.0,4.0,0.0
1137,69.0,512.0,1020.0,7.0,0.0
1138,73.0,0.0,1020.0,6.0,0.0
1139,78.0,0.0,15.0,0.0,0.0
1140,68.0,0.0,510.0,2.0,0.0
1141,71.0,0.0,1020.0,6.0,0.0
1142,71.0,0.0,1020.0,1.0,0.0
1143,68.0,0.0,510.0,7.0,0.0
1144,66.0,0.0,510.0,2.0,0.0
1145,80.0,0.0,510.0,0.0,0.0
1146,66.0,1024.0,510.0,7.0,0.0
1147,50.0,0.0,510.0,4.0,0.0
1148,50.0,0.0,15.0,3.0,0.0
1149,80.0,0.0,510.0,5.0,0.0
1150,49.0,0.0,1020.0,3.0,0.0
1151,77.0,0.0,1020.0,5.0,0.0
1152,68.0,0.0,1020.0,2.0,0.0
1153,73.0,0.0,1020.0,6.0,0.0
1154,49.0,512.0,1020.0,4.0,0.0
1155,73.0,0.0,1020.0,1.0,0.0
1156,68.0,0.0,1020.0,7.0,0.0
1157,77.0,0.0,1020.0,0.0,0.0
1158,85.0,0.0,510.0,0.0,0.0
1159,85.0,0.0,510.0,5.0,0.0
1160,80.0,1024.0,510.0,0.0,0.0
1161,80.0,0.0,510.0,5.0,0.0
1162,81.0,0.0,1020.0,5.0,0.0
1163,81.0,0.0,1020.0,0.0,0.0
1164,82.0,0.0,1020.0,0.0,0.0
1165,66.0,0.0,510.0,2.0,0.0
1166,66.0,0.0,510.0,3.0,0.0
1167,66.0,0.0,510.0,7.0,0.0
1168,82.0,0.0,1020.0,5.0,0.0
1169,66.0,0.0,510.0,4.0,0.0
1170,73.0,0.0,15.0,1.0,0.0
1171,64.0,0.0,510.0,2.0,0.0
1172,73.0,512.0,15.0,6.0,0.0
1173,61.0,0.0,510.0,3.0,0.0
1174,61.0,0.0,510.0,4.0,0.0
1175,64.0,0.0,510.0,7.0,0.0
1176,62.0,0.0,1020.0,4.0,0.0
1177,83.0,0.0,1020.0,0.0,0.0
1178,71.0,0.0,510.0,6.0,0.0
1179,62.0,0.0,1020.0,3.0,0.0
1180,66.0,512.0,15.0,7.0,0.0
1181,71.0,0.0,510.0,6.0,0.0
1182,66.0,0.0,15.0,7.0,0.0
1183,83.0,0.0,510.0,0.0,0.0
1184,83.0,0.0,15.0,5.0,0.0
1185,71.0,0.0,510.0,6.0,0.0
1186,66.0,512.0,15.0,2.0,0.0
1187,63.0,0.0,1020.0,3.0,0.0
1188,63.0,0.0,1020.0,4.0,0.0
1189,71.0,0.0,15.0,1.0,0.0
1190,78.0,0.0,510.0,0.0,0.0
1191,66.0,0.0,510.0,7.0,0.0
1192,71.0,0.0,510.0,6.0,0.0
1193,78.0,0.0,510.0,5.0,0.0
1194,64.0,0.0,1020.0,2.0,0.0
1195,71.0,0.0,15.0,1.0,0.0
1196,64.0,0.0,1020.0,4.0,0.0
1197,79.0,0.0,1020.0,0.0,0.0
1198,64.0,0.0,1020.0,3.0,0.0
1199,79.0,0.0,1020.0,5.0,0.0
1200,71.0,0.0,15.0,6.0,0.0
1201,64.0,512.0,15.0,7.0,0.0
1202,71.0,0.0,510.0,6.0,0.0
1203,64.0,0.0,510.0,2.0,0.0
1204,80.0,0.0,1020.0,5.0,0.0
1205,80.0,0.0,1020.0,0.0,0.0
1206,64.0,0.0,510.0,7.0,0.0
1207,71.0,0.0,510.0,1.0,0.0
1208,64.0,512.0,510.0,4.0,0.0
1209,64.0,0.0,510.0,3.0,0.0
1210,59.0,512.0,510.0,3.0,0.0
1211,62.0,0.0,510.0,7.0,0.0
1212,74.0,0.0,510.0,1.0,0.0
1213,74.0,0.0,510.0,6.0,0.0
1214,59.0,0.0,510.0,4.0,0.0
1215,62.0,0.0,510.0,2.0,0.0
1216,73.0,0.0,1020.0,1.0,0.0
1217,64.0,0.0,510.0,7.0,0.0
1218,61.0,128.0,510.0,4.0,0.0
1219,81.0,0.0,1020.0,0.0,0.0
1220,64.0,0.0,510.0,2.0,0.0
1221,73.0,0.0,510.0,6.0,0.0
1222,61.0,0.0,510.0,3.0,0.0
1223,56.0,0.0,510.0,4.0,0.0
1224,65.0,0.0,510.0,7.0,0.0
1225,56.0,0.0,510.0,3.0,0.0
1226,65.0,128.0,120.0,2.0,0.0
1227,63.0,256.0,120.0,2.0,0.0
1228,65.0,0.0,270.0,2.0,0.0
1229,57.0,0.0,270.0,4.0,0.0
1230,66.0,0.0,510.0,7.0,0.0
1231,81.0,0.0,510.0,0.0,0.0
1232,73.0,0.0,510.0,1.0,0.0
1233,73.0,0.0,15.0,6.0,0.0
1234,57.0,256.0,270.0,3.0,0.0
1235,81.0,0.0,15.0,5.0,0.0
1236,53.0,256.0,270.0,4.0,0.0
1237,53.0,0.0,270.0,3.0,0.0
1238,81.0,0.0,15.0,5.0,0.0
1239,66.0,0.0,510.0,7.0,0.0
1240,76.0,0.0,510.0,1.0,0.0
1241,81.0,0.0,15.0,5.0,0.0
1242,76.0,0.0,510.0,6.0,0.0
1243,54.0,0.0,510.0,3.0,0.0
1244,81.0,0.0,510.0,0.0,0.0
1245,54.0,256.0,270.0,4.0,0.0
1246,42.0,0.0,270.0,4.0,0.0
1247,66.0,0.0,510.0,7.0,0.0
1248,66.0,0.0,15.0,2.0,0.0
1249,74.0,0.0,510.0,6.0,0.0
1250,81.0,0.0,15.0,5.0,0.0
1251,59.0,0.0,1020.0,3.0,0.0
1252,74.0,0.0,1020.0,1.0,0.0
1253,81.0,512.0,510.0,0.0,0.0
1254,79.0,0.0,510.0,5.0,0.0
1255,66.0,512.0,510.0,7.0,0.0
1256,47.0,0.0,15.0,4.0,0.0
1257,74.0,0.0,15.0,6.0,0.0
1258,79.0,0.0,15.0,5.0,0.0
1259,74.0,512.0,510.0,1.0,0.0
1260,79.0,0.0,15.0,0.0,0.0
1261,71.0,0.0,510.0,2.0,0.0
1262,71.0,0.0,510.0,7.0,0.0
1263,69.0,512.0,510.0,2.0,0.0
1264,83.0,0.0,510.0,0.0,0.0
1265,59.0,0.0,15.0,3.0,0.0
1266,74.0,0.0,510.0,6.0,0.0
1267,83.0,0.0,510.0,5.0,0.0
1268,69.0,0.0,510.0,7.0,0.0
1269,74.0,0.0,510.0,1.0,0.0
1270,73.0,0.0,510.0,6.0,0.0
1271,59.0,0.0,15.0,3.0,0.0
1272,77.0,0.0,510.0,5.0,0.0
1273,68.0,0.0,1020.0,2.0,0.0
1274,77.0,0.0,1020.0,0.0,0.0
1275,68.0,0.0,15.0,7.0,0.0
1276,74.0,0.0,270.0,5.0,0.0
1277,73.0,0.0,270.0,5.0,0.0
1278,73.0,0.0,15.0,1.0,0.0
1279,45.0,0.0,510.0,4.0,0.0
1280,78.0,0.0,1020.0,0.0,0.0
1281,73.0,512.0,15.0,6.0,0.0
1282,69.0,512.0,510.0,7.0,0.0
1283,57.0,0.0,510.0,3.0,0.0
1284,69.0,0.0,510.0,2.0,0.0
1285,71.0,0.0,510.0,2.0,0.0
1286,71.0,512.0,510.0,6.0,0.0
1287,71.0,0.0,510.0,1.0,0.0
1288,50.0,0.0,510.0,4.0,0.0
1289,62.0,0.0,510.0,3.0,0.0
1290,66.0,0.0,510.0,7.0,0.0
1291,61.0,0.0,1020.0,3.0,0.0
1292,68.0,512.0,510.0,7.0,0.0
1293,78.0,0.0,1530.0,0.0,0.0
1294,49.0,0.0,2040.0,4.0,0.0
1295,78.0,0.0,15.0,5.0,0.0
1296,68.0,0.0,1530.0,2.0,0.0
1297,73.0,0.0,15.0,6.0,0.0
1298,68.0,0.0,510.0,7.0,0.0
1299,49.0,512.0,1020.0,3.0,0.0
1300,73.0,512.0,15.0,6.0,0.0
1301,68.0,0.0,15.0,7.0,0.0
1302,69.0,0.0,510.0,2.0,0.0
1303,73.0,0.0,15.0,6.0,0.0
1304,73.0,0.0,15.0,1.0,0.0
1305,77.0,0.0,510.0,0.0,0.0
1306,77.0,0.0,510.0,5.0,0.0
1307,42.0,0.0,1020.0,4.0,0.0
1308,73.0,0.0,15.0,1.0,0.0
1309,54.0,0.0,1020.0,4.0,0.0
1310,78.0,0.0,1020.0,0.0,0.0
1311,78.0,0.0,510.0,5.0,0.0
1312,54.0,0.0,1020.0,3.0,0.0
1313,69.0,256.0,1020.0,2.0,0.0
1314,66.0,256.0,15.0,7.0,0.0
1315,85.0,0.0,270.0,5.0,0.0
1316,69.0,0.0,15.0,6.0,0.0
1317,83.0,0.0,270.0,5.0,0.0
1318,66.0,0.0,15.0,7.0,0.0
1319,81.0,0.0,270.0,5.0,0.0
1320,69.0,0.0,510.0,6.0,0.0
1321,80.0,0.0,270.0,5.0,0.0
1322,66.0,0.0,510.0,7.0,0.0
1323,69.0,512.0,510.0,6.0,0.0
1324,78.0,0.0,270.0,5.0,0.0
1325,77.0,0.0,270.0,5.0,0.0
1326,78.0,0.0,1530.0,5.0,0.0
1327,71.0,512.0,510.0,7.0,0.0
1328,50.0,0.0,2040.0,4.0,0.0
1329,66.0,0.0,15.0,6.0,0.0
1330,69.0,512.0,510.0,7.0,0.0
1331,68.0,0.0,510.0,7.0,0.0
1332,66.0,0.0,510.0,6.0,0.0
1333,71.0,0.0,15.0,0.0,0.0
1334,74.0,0.0,15.0,1.0,0.0
1335,69.0,256.0,270.0,7.0,0.0
1336,50.0,0.0,15.0,3.0,0.0
1337,54.0,256.0,15.0,2.0,0.0
1338,80.0,0.0,510.0,5.0,0.0
1339,66.0,0.0,510.0,6.0,0.0
1340,71.0,0.0,270.0,7.0,0.0
1341,68.0,0.0,2040.0,6.0,0.0
1342,68.0,0.0,2040.0,7.0,0.0
1343,77.0,0.0,2040.0,5.0,0.0
1344,61.0,0.0,2040.0,2.0,0.0
1345,49.0,0.0,2040.0,3.0,0.0
1346,73.0,0.0,2040.0,0.0,0.0
1347,68.0,0.0,2040.0,1.0,0.0
1348,49.0,0.0,2040.0,4.0,0.0
