,note,step,duration,channel,velocity
0,64.0,512.0,510.0,0.0,0.0
1,68.0,512.0,510.0,0.0,0.0
2,52.0,512.0,1020.0,2.0,0.0
3,73.0,512.0,1020.0,0.0,0.0
4,56.0,0.0,1020.0,2.0,0.0
5,59.0,512.0,510.0,1.0,0.0
6,71.0,256.0,1020.0,0.0,0.0
7,61.0,512.0,2040.0,2.0,0.0
8,64.0,0.0,510.0,1.0,0.0
9,70.0,256.0,270.0,0.0,0.0
10,68.0,128.0,510.0,1.0,0.0
11,68.0,0.0,270.0,0.0,0.0
12,70.0,128.0,120.0,0.0,0.0
13,66.0,256.0,780.0,1.0,0.0
14,71.0,128.0,120.0,0.0,0.0
15,73.0,128.0,120.0,0.0,0.0
16,75.0,256.0,120.0,0.0,0.0
17,76.0,256.0,1020.0,0.0,0.0
18,64.0,0.0,270.0,1.0,0.0
19,66.0,0.0,1530.0,1.0,0.0
20,59.0,512.0,2040.0,2.0,0.0
21,75.0,256.0,270.0,0.0,0.0
22,73.0,256.0,270.0,0.0,0.0
23,75.0,256.0,270.0,0.0,0.0
24,71.0,256.0,270.0,0.0,0.0
25,64.0,256.0,270.0,1.0,0.0
26,68.0,0.0,1020.0,0.0,0.0
27,63.0,0.0,270.0,1.0,0.0
28,58.0,256.0,510.0,2.0,0.0
29,61.0,256.0,1530.0,1.0,0.0
30,66.0,256.0,270.0,0.0,0.0
31,56.0,0.0,510.0,2.0,0.0
32,64.0,256.0,270.0,0.0,0.0
33,58.0,256.0,270.0,2.0,0.0
34,66.0,0.0,510.0,0.0,0.0
35,59.0,0.0,270.0,2.0,0.0
36,61.0,256.0,270.0,2.0,0.0
37,63.0,512.0,270.0,2.0,0.0
38,64.0,256.0,2040.0,2.0,0.0
39,66.0,256.0,270.0,0.0,0.0
40,68.0,256.0,270.0,0.0,0.0
41,70.0,256.0,270.0,0.0,0.0
42,71.0,256.0,270.0,0.0,0.0
43,66.0,256.0,270.0,0.0,0.0
44,71.0,128.0,780.0,0.0,0.0
45,66.0,256.0,270.0,1.0,0.0
46,68.0,0.0,270.0,1.0,0.0
47,66.0,0.0,510.0,1.0,0.0
48,63.0,0.0,510.0,2.0,0.0
49,73.0,128.0,120.0,0.0,0.0
50,71.0,256.0,120.0,0.0,0.0
51,64.0,256.0,510.0,1.0,0.0
52,69.0,256.0,270.0,0.0,0.0
53,61.0,0.0,510.0,2.0,0.0
54,68.0,0.0,270.0,0.0,0.0
55,63.0,256.0,510.0,2.0,0.0
56,71.0,0.0,510.0,1.0,0.0
57,66.0,256.0,270.0,0.0,0.0
58,64.0,0.0,270.0,0.0,0.0
59,63.0,256.0,270.0,1.0,0.0
60,59.0,0.0,510.0,2.0,0.0
61,66.0,0.0,270.0,0.0,0.0
62,68.0,0.0,270.0,0.0,0.0
63,61.0,256.0,270.0,1.0,0.0
64,63.0,256.0,510.0,1.0,0.0
65,56.0,256.0,2040.0,2.0,0.0
66,66.0,256.0,270.0,0.0,0.0
67,69.0,0.0,270.0,0.0,0.0
68,68.0,256.0,270.0,0.0,0.0
69,59.0,0.0,1020.0,1.0,0.0
70,66.0,256.0,270.0,0.0,0.0
71,64.0,256.0,270.0,0.0,0.0
72,64.0,0.0,2040.0,3.0,0.0
73,68.0,256.0,270.0,0.0,0.0
74,61.0,0.0,270.0,1.0,0.0
75,70.0,256.0,270.0,0.0,0.0
76,63.0,0.0,270.0,1.0,0.0
77,71.0,0.0,270.0,0.0,0.0
78,73.0,256.0,270.0,0.0,0.0
79,56.0,0.0,510.0,1.0,0.0
80,54.0,0.0,510.0,2.0,0.0
81,68.0,256.0,270.0,0.0,0.0
82,52.0,0.0,510.0,2.0,0.0
83,58.0,256.0,270.0,1.0,0.0
84,73.0,256.0,780.0,0.0,0.0
85,59.0,256.0,270.0,1.0,0.0
86,54.0,0.0,1020.0,2.0,0.0
87,63.0,0.0,2040.0,3.0,0.0
88,58.0,256.0,510.0,1.0,0.0
89,66.0,0.0,270.0,0.0,0.0
90,68.0,256.0,270.0,0.0,0.0
91,59.0,0.0,270.0,1.0,0.0
92,61.0,0.0,270.0,1.0,0.0
93,70.0,256.0,270.0,0.0,0.0
94,71.0,256.0,270.0,0.0,0.0
95,63.0,0.0,510.0,1.0,0.0
96,66.0,256.0,270.0,0.0,0.0
97,61.0,256.0,270.0,1.0,0.0
98,71.0,128.0,780.0,0.0,0.0
99,59.0,256.0,270.0,1.0,0.0
100,61.0,256.0,2040.0,3.0,0.0
101,64.0,0.0,2040.0,1.0,0.0
102,69.0,128.0,120.0,0.0,0.0
103,68.0,256.0,120.0,0.0,0.0
104,54.0,0.0,510.0,2.0,0.0
105,69.0,256.0,270.0,0.0,0.0
106,66.0,256.0,270.0,0.0,0.0
107,71.0,256.0,270.0,0.0,0.0
108,56.0,512.0,510.0,2.0,0.0
109,66.0,0.0,270.0,0.0,0.0
110,58.0,0.0,510.0,2.0,0.0
111,73.0,256.0,780.0,0.0,0.0
112,59.0,0.0,510.0,2.0,0.0
113,63.0,0.0,510.0,1.0,0.0
114,63.0,128.0,2040.0,3.0,0.0
115,71.0,256.0,270.0,0.0,0.0
116,54.0,0.0,510.0,2.0,0.0
117,73.0,256.0,270.0,0.0,0.0
118,70.0,256.0,270.0,0.0,0.0
119,59.0,0.0,1530.0,2.0,0.0
120,71.0,256.0,270.0,0.0,0.0
121,66.0,256.0,270.0,0.0,0.0
122,66.0,0.0,270.0,1.0,0.0
123,69.0,256.0,270.0,0.0,0.0
124,64.0,0.0,270.0,1.0,0.0
125,68.0,0.0,270.0,0.0,0.0
126,63.0,0.0,510.0,1.0,0.0
127,69.0,128.0,120.0,0.0,0.0
128,59.0,0.0,2040.0,3.0,0.0
129,68.0,256.0,120.0,0.0,0.0
130,66.0,256.0,270.0,0.0,0.0
131,66.0,256.0,510.0,1.0,0.0
132,75.0,256.0,780.0,0.0,0.0
133,61.0,256.0,270.0,2.0,0.0
134,59.0,0.0,270.0,2.0,0.0
135,57.0,0.0,510.0,2.0,0.0
136,59.0,256.0,510.0,1.0,0.0
137,71.0,0.0,270.0,0.0,0.0
138,76.0,256.0,270.0,0.0,0.0
139,56.0,0.0,510.0,2.0,0.0
140,68.0,256.0,270.0,0.0,0.0
141,69.0,256.0,270.0,0.0,0.0
142,61.0,256.0,2040.0,3.0,0.0
143,54.0,256.0,510.0,2.0,0.0
144,71.0,0.0,270.0,0.0,0.0
145,73.0,256.0,270.0,0.0,0.0
146,56.0,0.0,510.0,1.0,0.0
147,52.0,256.0,510.0,2.0,0.0
148,71.0,0.0,270.0,0.0,0.0
149,54.0,0.0,510.0,2.0,0.0
150,57.0,256.0,1530.0,1.0,0.0
151,69.0,256.0,270.0,0.0,0.0
152,68.0,256.0,270.0,0.0,0.0
153,66.0,256.0,270.0,0.0,0.0
154,56.0,0.0,510.0,2.0,0.0
155,64.0,0.0,270.0,0.0,0.0
156,66.0,256.0,270.0,0.0,0.0
157,54.0,0.0,510.0,2.0,0.0
158,63.0,0.0,2040.0,3.0,0.0
159,64.0,0.0,270.0,0.0,0.0
160,63.0,256.0,270.0,0.0,0.0
161,57.0,0.0,510.0,2.0,0.0
162,59.0,0.0,270.0,1.0,0.0
163,64.0,0.0,270.0,0.0,0.0
164,61.0,256.0,270.0,1.0,0.0
165,56.0,0.0,510.0,2.0,0.0
166,66.0,256.0,270.0,0.0,0.0
167,59.0,0.0,510.0,1.0,0.0
168,68.0,256.0,270.0,0.0,0.0
169,69.0,256.0,270.0,0.0,0.0
170,54.0,256.0,510.0,2.0,0.0
171,57.0,0.0,510.0,1.0,0.0
172,66.0,0.0,270.0,0.0,0.0
173,52.0,256.0,510.0,2.0,0.0
174,64.0,256.0,2040.0,3.0,0.0
175,68.0,256.0,270.0,0.0,0.0
176,59.0,0.0,1020.0,1.0,0.0
177,69.0,0.0,270.0,0.0,0.0
178,56.0,0.0,510.0,2.0,0.0
179,71.0,256.0,270.0,0.0,0.0
180,69.0,256.0,270.0,0.0,0.0
181,58.0,0.0,510.0,2.0,0.0
182,68.0,256.0,270.0,0.0,0.0
183,66.0,256.0,270.0,0.0,0.0
184,64.0,256.0,270.0,0.0,0.0
185,59.0,0.0,510.0,2.0,0.0
186,63.0,0.0,270.0,0.0,0.0
187,61.0,256.0,510.0,2.0,0.0
188,64.0,256.0,270.0,0.0,0.0
189,63.0,0.0,270.0,0.0,0.0
190,56.0,256.0,510.0,2.0,0.0
191,61.0,256.0,270.0,0.0,0.0
192,63.0,0.0,270.0,0.0,0.0
193,64.0,256.0,270.0,0.0,0.0
194,61.0,0.0,1530.0,2.0,0.0
195,68.0,256.0,270.0,0.0,0.0
196,66.0,256.0,270.0,0.0,0.0
197,64.0,256.0,270.0,0.0,0.0
198,63.0,256.0,270.0,0.0,0.0
199,64.0,512.0,270.0,0.0,0.0
200,58.0,0.0,510.0,1.0,0.0
201,54.0,256.0,510.0,2.0,0.0
202,66.0,256.0,780.0,0.0,0.0
203,59.0,0.0,510.0,1.0,0.0
204,56.0,256.0,510.0,2.0,0.0
205,64.0,0.0,270.0,0.0,0.0
206,66.0,0.0,1020.0,1.0,0.0
207,58.0,0.0,510.0,2.0,0.0
208,63.0,256.0,270.0,0.0,0.0
209,61.0,128.0,270.0,0.0,0.0
210,59.0,0.0,510.0,2.0,0.0
211,63.0,128.0,120.0,0.0,0.0
212,61.0,128.0,120.0,0.0,0.0
213,59.0,128.0,120.0,0.0,0.0
214,61.0,256.0,120.0,0.0,0.0
215,54.0,256.0,510.0,2.0,0.0
216,63.0,256.0,780.0,0.0,0.0
217,58.0,128.0,270.0,1.0,0.0
218,59.0,128.0,120.0,1.0,0.0
219,61.0,0.0,120.0,1.0,0.0
220,59.0,0.0,1530.0,2.0,0.0
221,59.0,256.0,510.0,1.0,0.0
222,59.0,0.0,270.0,0.0,0.0
223,61.0,256.0,270.0,0.0,0.0
224,68.0,256.0,510.0,1.0,0.0
225,63.0,0.0,270.0,0.0,0.0
226,61.0,0.0,780.0,1.0,0.0
227,64.0,256.0,270.0,0.0,0.0
228,63.0,256.0,270.0,0.0,0.0
229,58.0,256.0,270.0,2.0,0.0
230,64.0,256.0,780.0,0.0,0.0
231,59.0,256.0,270.0,1.0,0.0
232,56.0,0.0,270.0,2.0,0.0
233,58.0,256.0,510.0,2.0,0.0
234,61.0,0.0,510.0,1.0,0.0
235,61.0,0.0,270.0,0.0,0.0
236,66.0,256.0,270.0,0.0,0.0
237,58.0,0.0,510.0,1.0,0.0
238,54.0,256.0,510.0,2.0,0.0
239,64.0,0.0,270.0,0.0,0.0
240,59.0,0.0,510.0,2.0,0.0
241,59.0,0.0,270.0,1.0,0.0
242,63.0,256.0,270.0,0.0,0.0
243,64.0,256.0,270.0,0.0,0.0
244,61.0,0.0,270.0,1.0,0.0
245,63.0,0.0,510.0,1.0,0.0
246,54.0,256.0,510.0,2.0,0.0
247,66.0,256.0,270.0,0.0,0.0
248,68.0,0.0,270.0,0.0,0.0
249,61.0,512.0,1530.0,2.0,0.0
250,70.0,256.0,270.0,0.0,0.0
251,72.0,0.0,270.0,0.0,0.0
252,66.0,256.0,270.0,1.0,0.0
253,64.0,0.0,270.0,1.0,0.0
254,73.0,256.0,270.0,0.0,0.0
255,75.0,128.0,270.0,0.0,0.0
256,63.0,0.0,270.0,1.0,0.0
257,76.0,128.0,120.0,0.0,0.0
258,61.0,0.0,510.0,1.0,0.0
259,78.0,128.0,120.0,0.0,0.0
260,76.0,128.0,120.0,0.0,0.0
261,75.0,0.0,120.0,0.0,0.0
262,76.0,128.0,780.0,0.0,0.0
263,68.0,0.0,510.0,1.0,0.0
264,59.0,256.0,510.0,2.0,0.0
265,70.0,256.0,510.0,1.0,0.0
266,61.0,0.0,510.0,2.0,0.0
267,75.0,128.0,120.0,0.0,0.0
268,73.0,0.0,120.0,0.0,0.0
269,58.0,0.0,510.0,2.0,0.0
270,78.0,256.0,270.0,0.0,0.0
271,61.0,128.0,510.0,1.0,0.0
272,76.0,0.0,270.0,0.0,0.0
273,59.0,0.0,510.0,2.0,0.0
274,75.0,128.0,120.0,0.0,0.0
275,59.0,256.0,2040.0,1.0,0.0
276,76.0,128.0,120.0,0.0,0.0
277,75.0,128.0,120.0,0.0,0.0
278,73.0,256.0,120.0,0.0,0.0
279,54.0,256.0,510.0,2.0,0.0
280,75.0,256.0,15.0,0.0,0.0
281,57.0,256.0,510.0,2.0,0.0
282,78.0,256.0,510.0,0.0,0.0
283,56.0,0.0,510.0,2.0,0.0
284,77.0,0.0,270.0,0.0,0.0
285,78.0,256.0,1290.0,0.0,0.0
286,57.0,256.0,270.0,2.0,0.0
287,61.0,256.0,510.0,1.0,0.0
288,56.0,0.0,270.0,2.0,0.0
289,66.0,256.0,270.0,1.0,0.0
290,54.0,256.0,510.0,2.0,0.0
291,68.0,0.0,270.0,1.0,0.0
292,63.0,0.0,1530.0,2.0,0.0
293,70.0,0.0,270.0,1.0,0.0
294,76.0,0.0,270.0,0.0,0.0
295,66.0,256.0,270.0,1.0,0.0
296,75.0,256.0,270.0,0.0,0.0
297,71.0,0.0,510.0,1.0,0.0
298,73.0,256.0,270.0,0.0,0.0
299,66.0,256.0,510.0,1.0,0.0
300,71.0,128.0,270.0,0.0,0.0
301,69.0,128.0,120.0,0.0,0.0
302,68.0,0.0,120.0,0.0,0.0
303,59.0,256.0,510.0,2.0,0.0
304,69.0,256.0,780.0,0.0,0.0
305,64.0,256.0,270.0,1.0,0.0
306,63.0,0.0,270.0,1.0,0.0
307,64.0,0.0,510.0,2.0,0.0
308,64.0,0.0,510.0,1.0,0.0
309,68.0,256.0,270.0,0.0,0.0
310,56.0,256.0,510.0,2.0,0.0
311,66.0,256.0,270.0,0.0,0.0
312,59.0,0.0,510.0,1.0,0.0
313,64.0,0.0,270.0,0.0,0.0
314,57.0,256.0,510.0,2.0,0.0
315,61.0,0.0,510.0,1.0,0.0
316,66.0,256.0,270.0,0.0,0.0
317,69.0,0.0,270.0,0.0,0.0
318,63.0,0.0,510.0,1.0,0.0
319,68.0,256.0,270.0,0.0,0.0
320,59.0,256.0,510.0,2.0,0.0
321,66.0,0.0,270.0,0.0,0.0
322,64.0,256.0,780.0,1.0,0.0
323,64.0,256.0,270.0,0.0,0.0
324,61.0,256.0,510.0,2.0,0.0
325,66.0,0.0,270.0,0.0,0.0
326,59.0,0.0,510.0,2.0,0.0
327,68.0,256.0,780.0,0.0,0.0
328,62.0,256.0,270.0,1.0,0.0
329,57.0,256.0,510.0,2.0,0.0
330,61.0,0.0,510.0,1.0,0.0
331,61.0,0.0,270.0,0.0,0.0
332,59.0,0.0,510.0,1.0,0.0
333,63.0,256.0,270.0,0.0,0.0
334,56.0,0.0,510.0,2.0,0.0
335,64.0,256.0,270.0,0.0,0.0
336,57.0,256.0,510.0,1.0,0.0
337,54.0,0.0,510.0,2.0,0.0
338,66.0,256.0,270.0,0.0,0.0
339,68.0,0.0,270.0,0.0,0.0
340,52.0,0.0,510.0,2.0,0.0
341,61.0,0.0,510.0,1.0,0.0
342,69.0,256.0,270.0,0.0,0.0
343,61.0,256.0,270.0,0.0,0.0
344,57.0,0.0,510.0,1.0,0.0
345,63.0,256.0,270.0,0.0,0.0
346,54.0,256.0,510.0,2.0,0.0
347,71.0,256.0,510.0,0.0,0.0
348,52.0,256.0,510.0,2.0,0.0
349,54.0,0.0,510.0,1.0,0.0
350,69.0,128.0,510.0,0.0,0.0
351,59.0,0.0,1290.0,1.0,0.0
352,51.0,128.0,510.0,2.0,0.0
353,71.0,128.0,120.0,0.0,0.0
354,69.0,0.0,120.0,0.0,0.0
355,68.0,128.0,120.0,0.0,0.0
356,52.0,256.0,510.0,2.0,0.0
357,66.0,128.0,120.0,0.0,0.0
358,64.0,128.0,120.0,0.0,0.0
359,63.0,0.0,120.0,0.0,0.0
360,61.0,256.0,270.0,0.0,0.0
361,54.0,256.0,510.0,2.0,0.0
362,66.0,256.0,510.0,0.0,0.0
363,57.0,0.0,270.0,1.0,0.0
364,56.0,0.0,510.0,2.0,0.0
365,59.0,256.0,510.0,1.0,0.0
366,64.0,128.0,510.0,0.0,0.0
367,61.0,256.0,1290.0,1.0,0.0
368,57.0,128.0,510.0,2.0,0.0
369,69.0,128.0,120.0,0.0,0.0
370,71.0,0.0,120.0,0.0,0.0
371,69.0,128.0,120.0,0.0,0.0
372,54.0,256.0,510.0,2.0,0.0
373,68.0,128.0,120.0,0.0,0.0
374,66.0,128.0,120.0,0.0,0.0
375,64.0,0.0,120.0,0.0,0.0
376,56.0,256.0,510.0,2.0,0.0
377,63.0,0.0,270.0,0.0,0.0
378,64.0,256.0,510.0,0.0,0.0
379,59.0,0.0,270.0,1.0,0.0
380,61.0,0.0,510.0,1.0,0.0
381,57.0,256.0,510.0,2.0,0.0
382,66.0,256.0,510.0,0.0,0.0
383,63.0,0.0,510.0,1.0,0.0
384,59.0,256.0,510.0,2.0,0.0
385,63.0,0.0,270.0,0.0,0.0
386,59.0,256.0,270.0,0.0,0.0
387,66.0,0.0,510.0,1.0,0.0
388,57.0,256.0,510.0,2.0,0.0
389,63.0,0.0,270.0,0.0,0.0
390,52.0,256.0,270.0,0.0,0.0
391,59.0,0.0,510.0,1.0,0.0
392,56.0,0.0,510.0,2.0,0.0
393,59.0,256.0,270.0,0.0,0.0
394,61.0,256.0,270.0,0.0,0.0
395,54.0,0.0,510.0,2.0,0.0
396,57.0,256.0,510.0,1.0,0.0
397,63.0,0.0,270.0,0.0,0.0
398,64.0,256.0,270.0,0.0,0.0
399,52.0,0.0,510.0,2.0,0.0
400,56.0,256.0,510.0,1.0,0.0
401,66.0,0.0,270.0,0.0,0.0
402,51.0,256.0,510.0,2.0,0.0
403,59.0,0.0,1020.0,1.0,0.0
404,68.0,256.0,270.0,0.0,0.0
405,69.0,0.0,270.0,0.0,0.0
406,64.0,0.0,15.0,3.0,0.0
407,68.0,256.0,270.0,0.0,0.0
408,52.0,256.0,510.0,2.0,0.0
409,66.0,0.0,270.0,0.0,0.0
410,56.0,0.0,510.0,1.0,0.0
411,64.0,256.0,270.0,0.0,0.0
412,51.0,256.0,510.0,2.0,0.0
413,66.0,0.0,270.0,0.0,0.0
414,61.0,0.0,510.0,1.0,0.0
415,68.0,256.0,270.0,0.0,0.0
416,49.0,0.0,510.0,2.0,0.0
417,69.0,256.0,270.0,0.0,0.0
418,51.0,0.0,510.0,2.0,0.0
419,59.0,256.0,270.0,1.0,0.0
420,71.0,0.0,270.0,0.0,0.0
421,57.0,0.0,270.0,1.0,0.0
422,73.0,256.0,270.0,0.0,0.0
423,56.0,0.0,510.0,1.0,0.0
424,52.0,256.0,510.0,2.0,0.0
425,71.0,256.0,270.0,0.0,0.0
426,69.0,0.0,270.0,0.0,0.0
427,68.0,256.0,270.0,0.0,0.0
428,56.0,0.0,510.0,2.0,0.0
429,64.0,0.0,510.0,1.0,0.0
430,70.0,256.0,270.0,0.0,0.0
431,54.0,256.0,510.0,2.0,0.0
432,63.0,0.0,510.0,1.0,0.0
433,71.0,256.0,270.0,0.0,0.0
434,73.0,0.0,270.0,0.0,0.0
435,75.0,256.0,270.0,0.0,0.0
436,52.0,0.0,510.0,2.0,0.0
437,61.0,0.0,510.0,1.0,0.0
438,76.0,256.0,270.0,0.0,0.0
439,59.0,512.0,510.0,1.0,0.0
440,59.0,0.0,15.0,3.0,0.0
441,51.0,0.0,510.0,2.0,0.0
442,78.0,128.0,270.0,0.0,0.0
443,76.0,128.0,120.0,0.0,0.0
444,75.0,0.0,120.0,0.0,0.0
445,52.0,256.0,510.0,2.0,0.0
446,73.0,128.0,780.0,0.0,0.0
447,54.0,512.0,1530.0,2.0,0.0
448,75.0,128.0,120.0,0.0,0.0
449,76.0,256.0,120.0,0.0,0.0
450,57.0,256.0,510.0,3.0,0.0
451,75.0,128.0,270.0,0.0,0.0
452,76.0,128.0,120.0,0.0,0.0
453,78.0,0.0,120.0,0.0,0.0
454,72.0,128.0,270.0,0.0,0.0
455,56.0,0.0,1530.0,3.0,0.0
456,73.0,128.0,120.0,0.0,0.0
457,75.0,0.0,120.0,0.0,0.0
458,73.0,0.0,510.0,0.0,0.0
459,56.0,512.0,510.0,1.0,0.0
460,52.0,0.0,510.0,2.0,0.0
461,51.0,256.0,510.0,2.0,0.0
462,54.0,0.0,510.0,1.0,0.0
463,71.0,0.0,270.0,0.0,0.0
464,57.0,0.0,510.0,3.0,0.0
465,52.0,256.0,510.0,1.0,0.0
466,69.0,256.0,270.0,0.0,0.0
467,49.0,0.0,510.0,2.0,0.0
468,68.0,0.0,270.0,0.0,0.0
469,66.0,256.0,270.0,0.0,0.0
470,51.0,0.0,270.0,2.0,0.0
471,59.0,256.0,2040.0,3.0,0.0
472,54.0,256.0,1020.0,1.0,0.0
473,49.0,0.0,270.0,2.0,0.0
474,64.0,256.0,270.0,0.0,0.0
475,63.0,256.0,270.0,0.0,0.0
476,47.0,0.0,270.0,2.0,0.0
477,49.0,0.0,270.0,2.0,0.0
478,64.0,0.0,270.0,0.0,0.0
479,66.0,256.0,270.0,0.0,0.0
480,51.0,0.0,1530.0,2.0,0.0
481,68.0,256.0,270.0,0.0,0.0
482,69.0,256.0,270.0,0.0,0.0
483,59.0,0.0,510.0,1.0,0.0
484,71.0,0.0,270.0,0.0,0.0
485,57.0,0.0,2040.0,3.0,0.0
486,54.0,256.0,1020.0,1.0,0.0
487,73.0,256.0,270.0,0.0,0.0
488,71.0,256.0,270.0,0.0,0.0
489,47.0,0.0,510.0,2.0,0.0
490,73.0,256.0,270.0,0.0,0.0
491,75.0,0.0,270.0,0.0,0.0
492,49.0,0.0,510.0,2.0,0.0
493,76.0,128.0,270.0,0.0,0.0
494,75.0,128.0,120.0,0.0,0.0
495,73.0,256.0,120.0,0.0,0.0
496,78.0,256.0,270.0,0.0,0.0
497,51.0,0.0,510.0,2.0,0.0
498,59.0,256.0,1290.0,1.0,0.0
499,78.0,128.0,270.0,0.0,0.0
500,52.0,0.0,510.0,2.0,0.0
501,71.0,128.0,120.0,0.0,0.0
502,56.0,0.0,2040.0,3.0,0.0
503,73.0,128.0,120.0,0.0,0.0
504,71.0,128.0,120.0,0.0,0.0
505,70.0,256.0,120.0,0.0,0.0
506,51.0,0.0,510.0,2.0,0.0
507,71.0,0.0,780.0,0.0,0.0
508,57.0,256.0,270.0,1.0,0.0
509,52.0,256.0,1530.0,2.0,0.0
510,56.0,256.0,270.0,1.0,0.0
511,69.0,0.0,270.0,0.0,0.0
512,57.0,256.0,270.0,1.0,0.0
513,68.0,256.0,270.0,0.0,0.0
514,59.0,0.0,1020.0,1.0,0.0
515,66.0,128.0,270.0,0.0,0.0
516,68.0,128.0,120.0,0.0,0.0
517,66.0,128.0,120.0,0.0,0.0
518,64.0,128.0,120.0,0.0,0.0
519,63.0,0.0,120.0,0.0,0.0
520,49.0,256.0,510.0,2.0,0.0
521,64.0,256.0,780.0,0.0,0.0
522,58.0,256.0,270.0,1.0,0.0
523,56.0,0.0,270.0,1.0,0.0
524,58.0,0.0,1020.0,1.0,0.0
525,54.0,256.0,510.0,2.0,0.0
526,61.0,0.0,270.0,0.0,0.0
527,63.0,256.0,270.0,0.0,0.0
528,52.0,0.0,510.0,2.0,0.0
529,64.0,256.0,270.0,0.0,0.0
530,66.0,256.0,270.0,0.0,0.0
531,51.0,0.0,510.0,2.0,0.0
532,59.0,0.0,270.0,0.0,0.0
533,54.0,256.0,270.0,1.0,0.0
534,71.0,256.0,780.0,0.0,0.0
535,56.0,256.0,270.0,1.0,0.0
536,52.0,0.0,510.0,2.0,0.0
537,59.0,256.0,270.0,1.0,0.0
538,54.0,256.0,510.0,2.0,0.0
539,63.0,0.0,270.0,1.0,0.0
540,70.0,0.0,270.0,0.0,0.0
541,61.0,0.0,270.0,1.0,0.0
542,73.0,256.0,270.0,0.0,0.0
543,56.0,256.0,510.0,2.0,0.0
544,66.0,0.0,270.0,1.0,0.0
545,72.0,0.0,270.0,0.0,0.0
546,64.0,0.0,510.0,1.0,0.0
547,73.0,256.0,270.0,0.0,0.0
548,58.0,0.0,510.0,2.0,0.0
549,61.0,256.0,270.0,0.0,0.0
550,63.0,128.0,270.0,1.0,0.0
551,60.0,128.0,510.0,2.0,0.0
552,68.0,128.0,630.0,0.0,0.0
553,64.0,128.0,120.0,1.0,0.0
554,66.0,0.0,120.0,1.0,0.0
555,64.0,0.0,510.0,1.0,0.0
556,61.0,256.0,510.0,2.0,0.0
557,76.0,128.0,120.0,0.0,0.0
558,75.0,128.0,120.0,0.0,0.0
559,73.0,0.0,120.0,0.0,0.0
560,66.0,256.0,510.0,1.0,0.0
561,71.0,256.0,270.0,0.0,0.0
562,63.0,0.0,510.0,2.0,0.0
563,69.0,0.0,270.0,0.0,0.0
564,68.0,128.0,1140.0,0.0,0.0
565,64.0,0.0,510.0,1.0,0.0
566,64.0,256.0,270.0,2.0,0.0
567,66.0,256.0,270.0,2.0,0.0
568,64.0,256.0,270.0,2.0,0.0
569,63.0,128.0,270.0,2.0,0.0
570,64.0,0.0,1530.0,2.0,0.0
571,73.0,128.0,120.0,0.0,0.0
572,71.0,128.0,120.0,0.0,0.0
573,69.0,256.0,120.0,0.0,0.0
574,71.0,0.0,270.0,1.0,0.0
575,68.0,256.0,270.0,0.0,0.0
576,69.0,0.0,270.0,1.0,0.0
577,66.0,256.0,270.0,0.0,0.0
578,68.0,128.0,1020.0,1.0,0.0
579,64.0,256.0,270.0,0.0,0.0
580,68.0,256.0,270.0,0.0,0.0
581,63.0,0.0,270.0,2.0,0.0
582,71.0,256.0,270.0,0.0,0.0
583,61.0,0.0,270.0,2.0,0.0
584,76.0,0.0,270.0,0.0,0.0
585,75.0,128.0,120.0,0.0,0.0
586,70.0,128.0,510.0,1.0,0.0
587,66.0,0.0,510.0,2.0,0.0
588,73.0,256.0,120.0,0.0,0.0
589,71.0,0.0,270.0,0.0,0.0
590,64.0,0.0,510.0,2.0,0.0
591,73.0,128.0,120.0,0.0,0.0
592,71.0,256.0,120.0,0.0,0.0
593,70.0,256.0,270.0,0.0,0.0
594,63.0,256.0,270.0,2.0,0.0
595,71.0,128.0,1140.0,0.0,0.0
596,64.0,0.0,270.0,2.0,0.0
597,68.0,256.0,270.0,1.0,0.0
598,63.0,256.0,270.0,2.0,0.0
599,66.0,0.0,270.0,1.0,0.0
600,64.0,0.0,270.0,1.0,0.0
601,61.0,128.0,270.0,2.0,0.0
602,66.0,0.0,510.0,1.0,0.0
603,66.0,128.0,120.0,0.0,0.0
604,68.0,128.0,120.0,0.0,0.0
605,70.0,0.0,120.0,0.0,0.0
606,71.0,128.0,120.0,0.0,0.0
607,63.0,128.0,15.0,2.0,0.0
608,73.0,128.0,120.0,0.0,0.0
609,75.0,128.0,120.0,0.0,0.0
610,76.0,128.0,120.0,0.0,0.0
611,78.0,128.0,120.0,0.0,0.0
612,77.0,128.0,120.0,0.0,0.0
613,78.0,128.0,120.0,0.0,0.0
614,80.0,0.0,120.0,0.0,0.0
615,66.0,0.0,1020.0,2.0,0.0
616,81.0,128.0,120.0,0.0,0.0
617,80.0,128.0,120.0,0.0,0.0
618,69.0,0.0,270.0,1.0,0.0
619,78.0,128.0,120.0,0.0,0.0
620,81.0,256.0,120.0,0.0,0.0
621,80.0,256.0,270.0,0.0,0.0
622,71.0,0.0,270.0,1.0,0.0
623,74.0,256.0,270.0,1.0,0.0
624,71.0,128.0,510.0,0.0,0.0
625,65.0,0.0,510.0,2.0,0.0
626,73.0,0.0,780.0,1.0,0.0
627,69.0,128.0,120.0,0.0,0.0
628,68.0,256.0,120.0,0.0,0.0
629,66.0,0.0,2550.0,2.0,0.0
630,69.0,256.0,270.0,0.0,0.0
631,71.0,0.0,270.0,1.0,0.0
632,74.0,256.0,270.0,0.0,0.0
633,69.0,0.0,270.0,1.0,0.0
634,73.0,256.0,270.0,0.0,0.0
635,71.0,0.0,270.0,0.0,0.0
636,68.0,256.0,270.0,1.0,0.0
637,69.0,0.0,270.0,0.0,0.0
638,66.0,256.0,270.0,1.0,0.0
639,68.0,256.0,270.0,0.0,0.0
640,68.0,0.0,270.0,1.0,0.0
641,69.0,0.0,1020.0,1.0,0.0
642,66.0,256.0,270.0,0.0,0.0
643,64.0,256.0,270.0,0.0,0.0
644,63.0,256.0,270.0,0.0,0.0
645,66.0,256.0,270.0,0.0,0.0
646,64.0,0.0,510.0,2.0,0.0
647,69.0,256.0,270.0,0.0,0.0
648,73.0,256.0,510.0,1.0,0.0
649,73.0,256.0,510.0,0.0,0.0
650,63.0,256.0,510.0,2.0,0.0
651,66.0,0.0,510.0,1.0,0.0
652,71.0,256.0,510.0,0.0,0.0
653,64.0,128.0,510.0,1.0,0.0
654,61.0,0.0,510.0,2.0,0.0
655,69.0,128.0,390.0,0.0,0.0
656,59.0,256.0,510.0,2.0,0.0
657,66.0,0.0,510.0,1.0,0.0
658,78.0,128.0,120.0,0.0,0.0
659,76.0,128.0,120.0,0.0,0.0
660,75.0,0.0,120.0,0.0,0.0
661,76.0,256.0,270.0,0.0,0.0
662,59.0,256.0,510.0,1.0,0.0
663,57.0,0.0,270.0,2.0,0.0
664,56.0,0.0,270.0,2.0,0.0
665,71.0,0.0,270.0,0.0,0.0
666,57.0,512.0,1530.0,2.0,0.0
667,73.0,256.0,270.0,0.0,0.0
668,78.0,256.0,270.0,0.0,0.0
669,80.0,256.0,270.0,0.0,0.0
670,61.0,0.0,510.0,1.0,0.0
671,81.0,256.0,270.0,0.0,0.0
672,75.0,256.0,270.0,0.0,0.0
673,59.0,0.0,510.0,1.0,0.0
674,73.0,0.0,270.0,0.0,0.0
675,64.0,384.0,510.0,1.0,0.0
676,56.0,0.0,510.0,2.0,0.0
677,71.0,0.0,510.0,0.0,0.0
678,54.0,256.0,510.0,2.0,0.0
679,57.0,0.0,510.0,1.0,0.0
680,76.0,128.0,120.0,0.0,0.0
681,75.0,0.0,120.0,0.0,0.0
682,76.0,256.0,270.0,0.0,0.0
683,61.0,256.0,1020.0,1.0,0.0
684,52.0,0.0,510.0,2.0,0.0
685,73.0,256.0,270.0,0.0,0.0
686,69.0,256.0,270.0,0.0,0.0
687,54.0,0.0,510.0,2.0,0.0
688,68.0,0.0,270.0,0.0,0.0
689,57.0,256.0,510.0,2.0,0.0
690,63.0,0.0,510.0,1.0,0.0
691,66.0,256.0,270.0,0.0,0.0
692,73.0,256.0,510.0,0.0,0.0
693,56.0,256.0,510.0,2.0,0.0
694,64.0,0.0,510.0,1.0,0.0
695,71.0,256.0,510.0,0.0,0.0
696,54.0,0.0,510.0,2.0,0.0
697,63.0,128.0,510.0,1.0,0.0
698,69.0,0.0,270.0,0.0,0.0
699,52.0,0.0,510.0,2.0,0.0
700,71.0,128.0,120.0,0.0,0.0
701,56.0,128.0,2040.0,3.0,0.0
702,69.0,256.0,120.0,0.0,0.0
703,59.0,256.0,510.0,1.0,0.0
704,68.0,128.0,270.0,0.0,0.0
705,69.0,128.0,120.0,0.0,0.0
706,54.0,0.0,510.0,2.0,0.0
707,68.0,0.0,120.0,0.0,0.0
708,66.0,256.0,270.0,0.0,0.0
709,57.0,0.0,270.0,1.0,0.0
710,56.0,0.0,1530.0,2.0,0.0
711,64.0,128.0,270.0,0.0,0.0
712,59.0,0.0,1020.0,1.0,0.0
713,66.0,128.0,120.0,0.0,0.0
714,68.0,128.0,120.0,0.0,0.0
715,69.0,128.0,120.0,0.0,0.0
716,71.0,128.0,120.0,0.0,0.0
717,73.0,128.0,120.0,0.0,0.0
718,75.0,0.0,120.0,0.0,0.0
719,57.0,0.0,510.0,1.0,0.0
720,76.0,128.0,120.0,0.0,0.0
721,75.0,256.0,120.0,0.0,0.0
722,73.0,512.0,270.0,0.0,0.0
723,52.0,256.0,510.0,1.0,0.0
724,49.0,0.0,510.0,2.0,0.0
725,81.0,256.0,780.0,0.0,0.0
726,51.0,256.0,510.0,2.0,0.0
727,54.0,0.0,510.0,1.0,0.0
728,80.0,0.0,270.0,0.0,0.0
729,78.0,256.0,270.0,0.0,0.0
730,52.0,0.0,510.0,2.0,0.0
731,56.0,0.0,510.0,1.0,0.0
732,76.0,0.0,270.0,0.0,0.0
733,57.0,0.0,510.0,1.0,0.0
734,61.0,128.0,15.0,3.0,0.0
735,75.0,128.0,120.0,0.0,0.0
736,54.0,128.0,510.0,2.0,0.0
737,78.0,256.0,120.0,0.0,0.0
738,76.0,128.0,390.0,0.0,0.0
739,56.0,128.0,510.0,2.0,0.0
740,80.0,256.0,120.0,0.0,0.0
741,78.0,128.0,390.0,0.0,0.0
742,57.0,256.0,510.0,2.0,0.0
743,81.0,256.0,120.0,0.0,0.0
744,80.0,256.0,510.0,0.0,0.0
745,49.0,0.0,510.0,2.0,0.0
746,52.0,0.0,510.0,1.0,0.0
747,81.0,256.0,270.0,0.0,0.0
748,51.0,0.0,510.0,2.0,0.0
749,54.0,0.0,510.0,1.0,0.0
750,59.0,0.0,1020.0,3.0,0.0
751,69.0,256.0,270.0,0.0,0.0
752,68.0,256.0,270.0,0.0,0.0
753,63.0,0.0,510.0,1.0,0.0
754,59.0,256.0,1020.0,2.0,0.0
755,68.0,256.0,270.0,0.0,0.0
756,66.0,256.0,270.0,0.0,0.0
757,64.0,256.0,270.0,0.0,0.0
758,61.0,0.0,1020.0,3.0,0.0
759,61.0,0.0,1020.0,1.0,0.0
760,80.0,128.0,510.0,0.0,0.0
761,57.0,0.0,1020.0,2.0,0.0
762,78.0,128.0,120.0,0.0,0.0
763,76.0,128.0,120.0,0.0,0.0
764,63.0,0.0,2040.0,3.0,0.0
765,59.0,0.0,2310.0,1.0,0.0
766,78.0,128.0,120.0,0.0,0.0
767,76.0,128.0,120.0,0.0,0.0
768,75.0,128.0,120.0,0.0,0.0
769,73.0,256.0,120.0,0.0,0.0
770,59.0,256.0,270.0,2.0,0.0
771,71.0,256.0,780.0,0.0,0.0
772,57.0,256.0,270.0,2.0,0.0
773,56.0,0.0,270.0,2.0,0.0
774,54.0,256.0,270.0,2.0,0.0
775,81.0,0.0,270.0,0.0,0.0
776,80.0,256.0,270.0,0.0,0.0
777,52.0,0.0,270.0,2.0,0.0
778,78.0,0.0,270.0,0.0,0.0
779,51.0,256.0,270.0,2.0,0.0
780,64.0,0.0,1020.0,3.0,0.0
781,80.0,128.0,270.0,0.0,0.0
782,49.0,0.0,510.0,2.0,0.0
783,82.0,128.0,120.0,0.0,0.0
784,52.0,0.0,270.0,1.0,0.0
785,83.0,256.0,120.0,0.0,0.0
786,82.0,128.0,270.0,0.0,0.0
787,54.0,512.0,510.0,1.0,0.0
788,54.0,128.0,1020.0,2.0,0.0
789,83.0,128.0,120.0,0.0,0.0
790,85.0,0.0,120.0,0.0,0.0
791,83.0,128.0,630.0,0.0,0.0
792,56.0,256.0,1530.0,1.0,0.0
793,63.0,0.0,1020.0,3.0,0.0
794,52.0,0.0,1020.0,2.0,0.0
795,81.0,128.0,120.0,0.0,0.0
796,80.0,128.0,120.0,0.0,0.0
797,78.0,256.0,120.0,0.0,0.0
798,80.0,256.0,270.0,0.0,0.0
799,61.0,128.0,2040.0,3.0,0.0
800,73.0,0.0,270.0,0.0,0.0
801,78.0,256.0,270.0,0.0,0.0
802,61.0,0.0,780.0,1.0,0.0
803,57.0,0.0,270.0,2.0,0.0
804,59.0,256.0,270.0,2.0,0.0
805,77.0,0.0,270.0,0.0,0.0
806,57.0,256.0,270.0,2.0,0.0
807,78.0,0.0,270.0,0.0,0.0
808,59.0,0.0,270.0,1.0,0.0
809,80.0,0.0,270.0,0.0,0.0
810,56.0,256.0,270.0,2.0,0.0
811,81.0,128.0,630.0,0.0,0.0
812,57.0,0.0,270.0,1.0,0.0
813,54.0,256.0,270.0,2.0,0.0
814,52.0,0.0,270.0,2.0,0.0
815,56.0,0.0,270.0,1.0,0.0
816,51.0,0.0,510.0,2.0,0.0
817,54.0,128.0,510.0,1.0,0.0
818,59.0,512.0,2040.0,3.0,0.0
819,80.0,128.0,120.0,0.0,0.0
820,78.0,128.0,120.0,0.0,0.0
821,81.0,0.0,120.0,0.0,0.0
822,80.0,128.0,120.0,0.0,0.0
823,52.0,0.0,1020.0,2.0,0.0
824,59.0,128.0,510.0,1.0,0.0
825,78.0,128.0,120.0,0.0,0.0
826,76.0,128.0,120.0,0.0,0.0
827,75.0,0.0,120.0,0.0,0.0
828,73.0,128.0,120.0,0.0,0.0
829,56.0,0.0,270.0,1.0,0.0
830,76.0,128.0,120.0,0.0,0.0
831,75.0,128.0,120.0,0.0,0.0
832,59.0,0.0,270.0,1.0,0.0
833,73.0,128.0,120.0,0.0,0.0
834,63.0,128.0,270.0,1.0,0.0
835,71.0,128.0,120.0,0.0,0.0
836,54.0,0.0,1020.0,2.0,0.0
837,69.0,0.0,120.0,0.0,0.0
838,68.0,128.0,120.0,0.0,0.0
839,64.0,0.0,270.0,1.0,0.0
840,69.0,0.0,15.0,0.0,0.0
841,63.0,512.0,510.0,1.0,0.0
842,51.0,512.0,510.0,2.0,0.0
843,54.0,0.0,510.0,1.0,0.0
844,59.0,0.0,510.0,1.0,0.0
845,47.0,0.0,510.0,2.0,0.0
846,51.0,512.0,510.0,2.0,0.0
847,68.0,256.0,270.0,0.0,0.0
848,69.0,0.0,270.0,0.0,0.0
849,40.0,512.0,510.0,2.0,0.0
850,68.0,128.0,1140.0,0.0,0.0
851,47.0,0.0,510.0,2.0,0.0
852,51.0,128.0,510.0,1.0,0.0
853,49.0,128.0,510.0,2.0,0.0
854,52.0,0.0,510.0,1.0,0.0
855,64.0,128.0,120.0,0.0,0.0
856,63.0,128.0,120.0,0.0,0.0
857,61.0,0.0,120.0,0.0,0.0
858,59.0,128.0,120.0,0.0,0.0
859,51.0,0.0,510.0,2.0,0.0
860,54.0,256.0,510.0,1.0,0.0
861,57.0,128.0,120.0,0.0,0.0
862,56.0,128.0,120.0,0.0,0.0
863,54.0,0.0,120.0,0.0,0.0
864,52.0,0.0,510.0,2.0,0.0
865,56.0,256.0,270.0,1.0,0.0
866,52.0,0.0,1020.0,0.0,0.0
867,61.0,256.0,270.0,1.0,0.0
868,54.0,512.0,510.0,2.0,0.0
869,59.0,256.0,270.0,1.0,0.0
870,57.0,0.0,270.0,1.0,0.0
871,59.0,0.0,510.0,1.0,0.0
872,56.0,0.0,510.0,2.0,0.0
873,76.0,256.0,270.0,0.0,0.0
874,66.0,0.0,510.0,1.0,0.0
875,57.0,256.0,510.0,2.0,0.0
876,75.0,256.0,270.0,0.0,0.0
877,73.0,0.0,270.0,0.0,0.0
878,59.0,0.0,510.0,1.0,0.0
879,75.0,256.0,270.0,0.0,0.0
880,56.0,256.0,510.0,2.0,0.0
881,71.0,0.0,270.0,0.0,0.0
882,54.0,0.0,510.0,2.0,0.0
883,57.0,256.0,780.0,1.0,0.0
884,73.0,256.0,270.0,0.0,0.0
885,75.0,256.0,270.0,0.0,0.0
886,76.0,0.0,510.0,0.0,0.0
887,52.0,0.0,510.0,2.0,0.0
888,56.0,256.0,270.0,1.0,0.0
889,54.0,0.0,510.0,2.0,0.0
890,81.0,128.0,120.0,0.0,0.0
891,83.0,128.0,120.0,0.0,0.0
892,85.0,128.0,120.0,0.0,0.0
893,56.0,0.0,510.0,2.0,0.0
894,83.0,128.0,120.0,0.0,0.0
895,86.0,128.0,120.0,0.0,0.0
896,85.0,128.0,120.0,0.0,0.0
897,83.0,128.0,120.0,0.0,0.0
898,57.0,128.0,510.0,2.0,0.0
899,85.0,128.0,120.0,0.0,0.0
900,78.0,128.0,120.0,0.0,0.0
901,76.0,128.0,120.0,0.0,0.0
902,75.0,0.0,120.0,0.0,0.0
903,59.0,0.0,510.0,2.0,0.0
904,76.0,128.0,120.0,0.0,0.0
905,75.0,128.0,120.0,0.0,0.0
906,73.0,128.0,120.0,0.0,0.0
907,68.0,0.0,270.0,1.0,0.0
908,71.0,128.0,120.0,0.0,0.0
909,66.0,128.0,270.0,1.0,0.0
910,70.0,128.0,120.0,0.0,0.0
911,61.0,0.0,510.0,2.0,0.0
912,73.0,0.0,120.0,0.0,0.0
913,75.0,128.0,120.0,0.0,0.0
914,64.0,128.0,270.0,1.0,0.0
915,76.0,0.0,120.0,0.0,0.0
916,66.0,0.0,270.0,1.0,0.0
917,75.0,128.0,120.0,0.0,0.0
918,59.0,256.0,510.0,2.0,0.0
919,73.0,256.0,120.0,0.0,0.0
920,71.0,128.0,900.0,0.0,0.0
921,63.0,0.0,270.0,1.0,0.0
922,64.0,256.0,270.0,1.0,0.0
923,57.0,128.0,510.0,2.0,0.0
924,66.0,0.0,270.0,1.0,0.0
925,68.0,0.0,510.0,1.0,0.0
926,56.0,256.0,510.0,2.0,0.0
927,71.0,256.0,120.0,0.0,0.0
928,76.0,256.0,510.0,0.0,0.0
929,66.0,256.0,1020.0,1.0,0.0
930,58.0,128.0,510.0,2.0,0.0
931,76.0,128.0,390.0,0.0,0.0
932,59.0,0.0,510.0,2.0,0.0
933,75.0,256.0,120.0,0.0,0.0
934,80.0,256.0,510.0,0.0,0.0
935,61.0,0.0,510.0,2.0,0.0
936,64.0,128.0,510.0,1.0,0.0
937,80.0,128.0,390.0,0.0,0.0
938,63.0,0.0,510.0,2.0,0.0
939,69.0,256.0,510.0,1.0,0.0
940,78.0,256.0,120.0,0.0,0.0
941,68.0,0.0,510.0,1.0,0.0
942,64.0,128.0,510.0,2.0,0.0
943,83.0,256.0,15.0,0.0,0.0
944,73.0,0.0,1530.0,1.0,0.0
945,66.0,0.0,510.0,2.0,0.0
946,81.0,128.0,120.0,0.0,0.0
947,80.0,128.0,120.0,0.0,0.0
948,78.0,256.0,120.0,0.0,0.0
949,64.0,256.0,270.0,2.0,0.0
950,80.0,0.0,270.0,0.0,0.0
951,84.0,128.0,270.0,0.0,0.0
952,63.0,0.0,270.0,2.0,0.0
953,61.0,0.0,1530.0,2.0,0.0
954,85.0,128.0,120.0,0.0,0.0
955,80.0,128.0,120.0,0.0,0.0
956,78.0,128.0,120.0,0.0,0.0
957,76.0,128.0,120.0,0.0,0.0
958,78.0,0.0,270.0,0.0,0.0
959,72.0,128.0,120.0,1.0,0.0
960,69.0,128.0,120.0,1.0,0.0
961,87.0,0.0,270.0,0.0,0.0
962,68.0,128.0,120.0,1.0,0.0
963,66.0,256.0,120.0,1.0,0.0
964,88.0,256.0,270.0,0.0,0.0
965,68.0,0.0,1020.0,1.0,0.0
966,73.0,128.0,15.0,0.0,0.0
967,63.0,0.0,270.0,2.0,0.0
968,72.0,256.0,120.0,0.0,0.0
969,64.0,0.0,270.0,2.0,0.0
970,73.0,512.0,270.0,0.0,0.0
971,78.0,128.0,1290.0,0.0,0.0
972,63.0,256.0,510.0,2.0,0.0
973,71.0,0.0,270.0,1.0,0.0
974,64.0,0.0,270.0,2.0,0.0
975,73.0,256.0,270.0,1.0,0.0
976,75.0,0.0,270.0,1.0,0.0
977,66.0,256.0,270.0,2.0,0.0
978,68.0,256.0,1290.0,1.0,0.0
979,60.0,0.0,510.0,2.0,0.0
980,76.0,128.0,120.0,0.0,0.0
981,75.0,128.0,120.0,0.0,0.0
982,73.0,128.0,120.0,0.0,0.0
983,61.0,128.0,270.0,2.0,0.0
984,72.0,0.0,120.0,0.0,0.0
985,70.0,128.0,120.0,0.0,0.0
986,63.0,0.0,270.0,2.0,0.0
987,68.0,256.0,120.0,0.0,0.0
988,61.0,256.0,1020.0,2.0,0.0
989,76.0,256.0,1290.0,0.0,0.0
990,64.0,256.0,270.0,1.0,0.0
991,66.0,256.0,270.0,1.0,0.0
992,68.0,0.0,270.0,1.0,0.0
993,61.0,0.0,1020.0,1.0,0.0
994,64.0,256.0,270.0,0.0,0.0
995,68.0,256.0,270.0,0.0,0.0
996,59.0,256.0,510.0,2.0,0.0
997,73.0,256.0,510.0,0.0,0.0
998,57.0,256.0,510.0,2.0,0.0
999,71.0,128.0,510.0,0.0,0.0
1000,56.0,0.0,510.0,2.0,0.0
1001,65.0,0.0,510.0,1.0,0.0
1002,69.0,128.0,120.0,0.0,0.0
1003,68.0,256.0,120.0,0.0,0.0
1004,54.0,0.0,510.0,2.0,0.0
1005,69.0,128.0,270.0,0.0,0.0
1006,66.0,256.0,510.0,1.0,0.0
1007,66.0,128.0,120.0,0.0,0.0
1008,69.0,0.0,120.0,0.0,0.0
1009,52.0,256.0,510.0,2.0,0.0
1010,73.0,256.0,270.0,0.0,0.0
1011,57.0,0.0,1020.0,1.0,0.0
1012,78.0,256.0,510.0,0.0,0.0
1013,51.0,256.0,510.0,2.0,0.0
1014,76.0,128.0,510.0,0.0,0.0
1015,56.0,128.0,510.0,1.0,0.0
1016,52.0,0.0,510.0,2.0,0.0
1017,75.0,128.0,120.0,0.0,0.0
1018,73.0,0.0,120.0,0.0,0.0
1019,54.0,0.0,510.0,2.0,0.0
1020,75.0,128.0,120.0,0.0,0.0
1021,57.0,128.0,510.0,1.0,0.0
1022,71.0,128.0,120.0,0.0,0.0
1023,73.0,128.0,120.0,0.0,0.0
1024,75.0,0.0,120.0,0.0,0.0
1025,76.0,128.0,120.0,0.0,0.0
1026,56.0,0.0,510.0,2.0,0.0
1027,59.0,256.0,510.0,1.0,0.0
1028,78.0,256.0,120.0,0.0,0.0
1029,80.0,256.0,510.0,0.0,0.0
1030,57.0,256.0,510.0,2.0,0.0
1031,61.0,0.0,510.0,1.0,0.0
1032,78.0,128.0,510.0,0.0,0.0
1033,68.0,128.0,1020.0,1.0,0.0
1034,59.0,128.0,510.0,2.0,0.0
1035,76.0,128.0,120.0,0.0,0.0
1036,75.0,0.0,120.0,0.0,0.0
1037,61.0,0.0,510.0,2.0,0.0
1038,76.0,128.0,120.0,0.0,0.0
1039,75.0,128.0,120.0,0.0,0.0
1040,76.0,128.0,120.0,0.0,0.0
1041,78.0,0.0,120.0,0.0,0.0
1042,80.0,128.0,120.0,0.0,0.0
1043,59.0,256.0,510.0,2.0,0.0
1044,63.0,0.0,510.0,1.0,0.0
1045,81.0,256.0,120.0,0.0,0.0
1046,83.0,256.0,510.0,0.0,0.0
1047,61.0,0.0,510.0,2.0,0.0
1048,64.0,256.0,510.0,1.0,0.0
1049,81.0,128.0,510.0,0.0,0.0
1050,71.0,0.0,780.0,1.0,0.0
1051,63.0,0.0,510.0,2.0,0.0
1052,80.0,128.0,120.0,0.0,0.0
1053,78.0,128.0,120.0,0.0,0.0
1054,64.0,256.0,510.0,2.0,0.0
1055,64.0,0.0,2040.0,3.0,0.0
1056,80.0,128.0,120.0,0.0,0.0
1057,81.0,128.0,120.0,0.0,0.0
1058,80.0,128.0,120.0,0.0,0.0
1059,68.0,0.0,270.0,1.0,0.0
1060,78.0,0.0,120.0,0.0,0.0
1061,80.0,256.0,270.0,0.0,0.0
1062,73.0,256.0,780.0,1.0,0.0
1063,63.0,0.0,270.0,2.0,0.0
1064,82.0,0.0,270.0,0.0,0.0
1065,61.0,256.0,270.0,2.0,0.0
1066,66.0,0.0,510.0,2.0,0.0
1067,82.0,256.0,780.0,0.0,0.0
1068,71.0,256.0,270.0,1.0,0.0
1069,73.0,256.0,510.0,1.0,0.0
1070,66.0,0.0,510.0,2.0,0.0
1071,83.0,0.0,270.0,0.0,0.0
1072,83.0,128.0,1140.0,0.0,0.0
1073,71.0,0.0,510.0,1.0,0.0
1074,63.0,128.0,2040.0,3.0,0.0
1075,59.0,256.0,270.0,2.0,0.0
1076,61.0,256.0,270.0,2.0,0.0
1077,66.0,0.0,510.0,1.0,0.0
1078,59.0,256.0,270.0,2.0,0.0
1079,58.0,128.0,270.0,2.0,0.0
1080,63.0,0.0,510.0,1.0,0.0
1081,59.0,0.0,1530.0,2.0,0.0
1082,81.0,128.0,120.0,0.0,0.0
1083,80.0,128.0,120.0,0.0,0.0
1084,78.0,128.0,120.0,0.0,0.0
1085,68.0,128.0,1020.0,1.0,0.0
1086,80.0,128.0,120.0,0.0,0.0
1087,83.0,128.0,120.0,0.0,0.0
1088,80.0,128.0,120.0,0.0,0.0
1089,75.0,0.0,120.0,0.0,0.0
1090,76.0,128.0,120.0,0.0,0.0
1091,61.0,0.0,2040.0,3.0,0.0
1092,73.0,128.0,120.0,0.0,0.0
1093,75.0,128.0,120.0,0.0,0.0
1094,76.0,0.0,120.0,0.0,0.0
1095,66.0,0.0,510.0,1.0,0.0
1096,78.0,128.0,120.0,0.0,0.0
1097,57.0,0.0,510.0,2.0,0.0
1098,73.0,128.0,120.0,0.0,0.0
1099,78.0,128.0,120.0,0.0,0.0
1100,80.0,512.0,120.0,0.0,0.0
1101,56.0,256.0,510.0,2.0,0.0
1102,64.0,0.0,510.0,1.0,0.0
1103,81.0,128.0,1650.0,0.0,0.0
1104,63.0,256.0,270.0,1.0,0.0
1105,54.0,256.0,510.0,2.0,0.0
1106,64.0,0.0,270.0,1.0,0.0
1107,59.0,128.0,2040.0,3.0,0.0
1108,56.0,256.0,270.0,2.0,0.0
1109,63.0,128.0,510.0,1.0,0.0
1110,54.0,0.0,270.0,2.0,0.0
1111,52.0,0.0,270.0,2.0,0.0
1112,54.0,128.0,510.0,1.0,0.0
1113,83.0,128.0,120.0,0.0,0.0
1114,81.0,128.0,120.0,0.0,0.0
1115,51.0,0.0,270.0,2.0,0.0
1116,78.0,0.0,120.0,0.0,0.0
1117,52.0,0.0,1530.0,2.0,0.0
1118,80.0,128.0,120.0,0.0,0.0
1119,52.0,0.0,510.0,1.0,0.0
1120,81.0,128.0,120.0,0.0,0.0
1121,80.0,128.0,120.0,0.0,0.0
1122,76.0,128.0,120.0,0.0,0.0
1123,57.0,0.0,510.0,1.0,0.0
1124,78.0,128.0,120.0,0.0,0.0
1125,80.0,128.0,120.0,0.0,0.0
1126,78.0,128.0,120.0,0.0,0.0
1127,75.0,0.0,120.0,0.0,0.0
1128,76.0,128.0,120.0,0.0,0.0
1129,56.0,512.0,510.0,1.0,0.0
1130,61.0,0.0,1530.0,3.0,0.0
1131,71.0,128.0,120.0,0.0,0.0
1132,76.0,128.0,120.0,0.0,0.0
1133,78.0,0.0,120.0,0.0,0.0
1134,80.0,256.0,780.0,0.0,0.0
1135,52.0,0.0,510.0,1.0,0.0
1136,49.0,256.0,510.0,2.0,0.0
1137,51.0,0.0,510.0,2.0,0.0
1138,54.0,0.0,510.0,1.0,0.0
1139,52.0,0.0,510.0,2.0,0.0
1140,59.0,256.0,510.0,3.0,0.0
1141,78.0,256.0,15.0,0.0,0.0
1142,56.0,0.0,510.0,1.0,0.0
1143,76.0,0.0,270.0,0.0,0.0
1144,54.0,0.0,510.0,2.0,0.0
1145,57.0,0.0,510.0,1.0,0.0
1146,57.0,0.0,1530.0,3.0,0.0
1147,76.0,256.0,270.0,0.0,0.0
1148,75.0,256.0,15.0,0.0,0.0
1149,54.0,0.0,510.0,1.0,0.0
1150,47.0,0.0,510.0,2.0,0.0
1151,73.0,256.0,270.0,0.0,0.0
1152,59.0,256.0,1530.0,2.0,0.0
1153,75.0,256.0,270.0,0.0,0.0
1154,56.0,128.0,510.0,3.0,0.0
1155,77.0,256.0,15.0,0.0,0.0
1156,62.0,0.0,1020.0,1.0,0.0
1157,78.0,128.0,390.0,0.0,0.0
1158,54.0,0.0,2040.0,3.0,0.0
1159,80.0,128.0,120.0,0.0,0.0
1160,78.0,128.0,120.0,0.0,0.0
1161,77.0,0.0,120.0,0.0,0.0
1162,78.0,256.0,270.0,0.0,0.0
1163,61.0,0.0,510.0,1.0,0.0
1164,58.0,128.0,510.0,2.0,0.0
1165,80.0,0.0,270.0,0.0,0.0
1166,64.0,0.0,510.0,1.0,0.0
1167,61.0,0.0,510.0,2.0,0.0
1168,81.0,128.0,120.0,0.0,0.0
1169,80.0,256.0,120.0,0.0,0.0
1170,78.0,512.0,270.0,0.0,0.0
1171,63.0,0.0,510.0,1.0,0.0
1172,60.0,128.0,510.0,2.0,0.0
1173,80.0,128.0,630.0,0.0,0.0
1174,64.0,128.0,510.0,1.0,0.0
1175,52.0,0.0,12300.0,3.0,0.0
1176,61.0,0.0,510.0,2.0,0.0
1177,81.0,128.0,120.0,0.0,0.0
1178,80.0,128.0,120.0,0.0,0.0
1179,78.0,0.0,120.0,0.0,0.0
1180,80.0,128.0,120.0,0.0,0.0
1181,49.0,128.0,510.0,2.0,0.0
1182,76.0,128.0,120.0,0.0,0.0
1183,80.0,128.0,120.0,0.0,0.0
1184,81.0,0.0,120.0,0.0,0.0
1185,56.0,128.0,1290.0,2.0,0.0
1186,83.0,128.0,120.0,0.0,0.0
1187,85.0,128.0,120.0,0.0,0.0
1188,83.0,128.0,120.0,0.0,0.0
1189,81.0,256.0,120.0,0.0,0.0
1190,83.0,128.0,630.0,0.0,0.0
1191,59.0,128.0,120.0,1.0,0.0
1192,61.0,128.0,120.0,1.0,0.0
1193,63.0,128.0,120.0,1.0,0.0
1194,64.0,0.0,270.0,1.0,0.0
1195,85.0,0.0,120.0,0.0,0.0
1196,83.0,128.0,120.0,0.0,0.0
1197,68.0,256.0,270.0,1.0,0.0
1198,64.0,0.0,270.0,2.0,0.0
1199,81.0,0.0,120.0,0.0,0.0
1200,83.0,128.0,630.0,0.0,0.0
1201,63.0,0.0,270.0,2.0,0.0
1202,66.0,256.0,270.0,1.0,0.0
1203,69.0,128.0,270.0,1.0,0.0
1204,61.0,0.0,270.0,2.0,0.0
1205,59.0,0.0,510.0,2.0,0.0
1206,68.0,0.0,270.0,1.0,0.0
1207,85.0,128.0,120.0,0.0,0.0
1208,83.0,128.0,120.0,0.0,0.0
1209,64.0,256.0,270.0,1.0,0.0
1210,81.0,0.0,120.0,0.0,0.0
1211,57.0,128.0,510.0,2.0,0.0
1212,66.0,256.0,270.0,1.0,0.0
1213,83.0,128.0,630.0,0.0,0.0
1214,63.0,0.0,270.0,1.0,0.0
1215,56.0,256.0,2310.0,2.0,0.0
1216,64.0,128.0,270.0,1.0,0.0
1217,85.0,0.0,120.0,0.0,0.0
1218,83.0,128.0,120.0,0.0,0.0
1219,61.0,0.0,270.0,1.0,0.0
1220,81.0,128.0,120.0,0.0,0.0
1221,62.0,128.0,780.0,1.0,0.0
1222,83.0,128.0,120.0,0.0,0.0
1223,81.0,128.0,120.0,0.0,0.0
1224,80.0,128.0,120.0,0.0,0.0
1225,78.0,128.0,120.0,0.0,0.0
1226,80.0,128.0,120.0,0.0,0.0
1227,81.0,0.0,120.0,0.0,0.0
1228,59.0,0.0,270.0,1.0,0.0
1229,80.0,128.0,120.0,0.0,0.0
1230,78.0,128.0,120.0,0.0,0.0
1231,80.0,128.0,120.0,0.0,0.0
1232,60.0,256.0,510.0,1.0,0.0
1233,78.0,128.0,120.0,0.0,0.0
1234,76.0,128.0,120.0,0.0,0.0
1235,75.0,0.0,120.0,0.0,0.0
1236,76.0,128.0,1290.0,0.0,0.0
1237,59.0,0.0,270.0,1.0,0.0
1238,61.0,0.0,270.0,2.0,0.0
1239,64.0,256.0,270.0,1.0,0.0
1240,59.0,0.0,270.0,2.0,0.0
1241,63.0,256.0,270.0,1.0,0.0
1242,61.0,0.0,270.0,1.0,0.0
1243,57.0,256.0,270.0,2.0,0.0
1244,59.0,0.0,510.0,1.0,0.0
1245,56.0,0.0,510.0,2.0,0.0
1246,78.0,128.0,120.0,0.0,0.0
1247,80.0,128.0,120.0,0.0,0.0
1248,54.0,0.0,510.0,2.0,0.0
1249,57.0,0.0,510.0,1.0,0.0
1250,81.0,128.0,120.0,0.0,0.0
1251,83.0,128.0,120.0,0.0,0.0
1252,85.0,128.0,120.0,0.0,0.0
1253,87.0,4096.0,120.0,0.0,0.0
1254,88.0,0.0,4110.0,0.0,0.0
1255,59.0,0.0,4110.0,1.0,0.0
1256,56.0,0.0,4110.0,2.0,0.0
1257,52.0,0.0,4110.0,2.0,0.0
