,note,step,duration,channel,velocity
0,62.0,120.0,120.0,1.0,0.0
1,58.0,120.0,120.0,1.0,0.0
2,55.0,120.0,120.0,1.0,0.0
3,63.0,100.0,120.0,1.0,0.0
4,62.0,140.0,90.0,1.0,0.0
5,67.0,100.0,120.0,1.0,0.0
6,66.0,140.0,90.0,1.0,0.0
7,60.0,100.0,120.0,1.0,0.0
8,59.0,140.0,90.0,1.0,0.0
9,68.0,100.0,120.0,1.0,0.0
10,67.0,140.0,90.0,1.0,0.0
11,62.0,100.0,120.0,1.0,0.0
12,61.0,140.0,90.0,1.0,0.0
13,70.0,100.0,120.0,1.0,0.0
14,69.0,140.0,90.0,1.0,0.0
15,68.0,120.0,120.0,1.0,0.0
16,69.0,120.0,120.0,1.0,0.0
17,65.0,120.0,120.0,1.0,0.0
18,62.0,15.0,120.0,1.0,0.0
19,65.0,15.0,15.0,1.0,0.0
20,64.0,15.0,15.0,1.0,0.0
21,65.0,15.0,15.0,1.0,0.0
22,64.0,15.0,15.0,1.0,0.0
23,65.0,15.0,15.0,1.0,0.0
24,64.0,15.0,15.0,1.0,0.0
25,65.0,15.0,15.0,1.0,0.0
26,64.0,15.0,15.0,1.0,0.0
27,65.0,15.0,15.0,1.0,0.0
28,64.0,15.0,15.0,1.0,0.0
29,65.0,15.0,15.0,1.0,0.0
30,64.0,15.0,15.0,1.0,0.0
31,65.0,15.0,15.0,1.0,0.0
32,64.0,15.0,15.0,1.0,0.0
33,65.0,15.0,15.0,1.0,0.0
34,64.0,15.0,15.0,1.0,0.0
35,65.0,15.0,15.0,1.0,0.0
36,64.0,15.0,15.0,1.0,0.0
37,65.0,15.0,15.0,1.0,0.0
38,64.0,15.0,15.0,1.0,0.0
39,65.0,15.0,15.0,1.0,0.0
40,64.0,15.0,15.0,1.0,0.0
41,65.0,15.0,15.0,1.0,0.0
42,64.0,15.0,15.0,1.0,0.0
43,65.0,15.0,15.0,1.0,0.0
44,64.0,15.0,15.0,1.0,0.0
45,65.0,15.0,15.0,1.0,0.0
46,64.0,15.0,15.0,1.0,0.0
47,65.0,15.0,15.0,1.0,0.0
48,64.0,15.0,15.0,1.0,0.0
49,65.0,15.0,15.0,1.0,0.0
50,64.0,180.0,15.0,1.0,0.0
51,62.0,60.0,180.0,1.0,0.0
52,55.0,60.0,120.0,2.0,0.0
53,61.0,0.0,60.0,1.0,0.0
54,62.0,60.0,60.0,1.0,0.0
55,53.0,60.0,120.0,2.0,0.0
56,64.0,0.0,60.0,1.0,0.0
57,65.0,60.0,60.0,1.0,0.0
58,50.0,60.0,120.0,2.0,0.0
59,69.0,0.0,60.0,1.0,0.0
60,58.0,60.0,120.0,2.0,0.0
61,67.0,60.0,60.0,1.0,0.0
62,64.0,0.0,60.0,1.0,0.0
63,65.0,40.0,60.0,1.0,0.0
64,55.0,20.0,90.0,2.0,0.0
65,68.0,120.0,60.0,1.0,0.0
66,60.0,100.0,120.0,2.0,0.0
67,74.0,120.0,240.0,1.0,0.0
68,59.0,20.0,90.0,2.0,0.0
69,72.0,120.0,240.0,1.0,0.0
70,53.0,100.0,120.0,2.0,0.0
71,52.0,20.0,90.0,2.0,0.0
72,61.0,100.0,120.0,2.0,0.0
73,70.0,120.0,240.0,1.0,0.0
74,60.0,20.0,90.0,2.0,0.0
75,69.0,120.0,240.0,1.0,0.0
76,55.0,100.0,120.0,2.0,0.0
77,54.0,20.0,90.0,2.0,0.0
78,63.0,100.0,120.0,2.0,0.0
79,67.0,120.0,360.0,1.0,0.0
80,62.0,140.0,90.0,2.0,0.0
81,61.0,0.0,120.0,2.0,0.0
82,62.0,120.0,120.0,2.0,0.0
83,66.0,0.0,120.0,1.0,0.0
84,67.0,60.0,300.0,1.0,0.0
85,58.0,120.0,120.0,2.0,0.0
86,55.0,60.0,120.0,2.0,0.0
87,57.0,60.0,480.0,2.0,0.0
88,69.0,60.0,60.0,1.0,0.0
89,70.0,60.0,60.0,1.0,0.0
90,72.0,60.0,60.0,1.0,0.0
91,74.0,60.0,60.0,1.0,0.0
92,75.0,60.0,60.0,1.0,0.0
93,67.0,60.0,60.0,1.0,0.0
94,66.0,0.0,60.0,1.0,0.0
95,70.0,120.0,600.0,1.0,0.0
96,55.0,60.0,60.0,2.0,0.0
97,62.0,60.0,60.0,2.0,0.0
98,64.0,60.0,60.0,2.0,0.0
99,66.0,60.0,60.0,2.0,0.0
100,67.0,60.0,60.0,2.0,0.0
101,69.0,60.0,60.0,2.0,0.0
102,62.0,60.0,60.0,2.0,0.0
103,61.0,120.0,60.0,2.0,0.0
104,65.0,120.0,600.0,2.0,0.0
105,68.0,120.0,120.0,1.0,0.0
106,67.0,120.0,120.0,1.0,0.0
107,71.0,120.0,120.0,1.0,0.0
108,72.0,120.0,600.0,1.0,0.0
109,63.0,120.0,120.0,2.0,0.0
110,62.0,120.0,120.0,2.0,0.0
111,66.0,120.0,120.0,2.0,0.0
112,67.0,60.0,600.0,2.0,0.0
113,70.0,120.0,120.0,1.0,0.0
114,69.0,120.0,120.0,1.0,0.0
115,73.0,120.0,120.0,1.0,0.0
116,74.0,60.0,180.0,1.0,0.0
117,50.0,0.0,120.0,3.0,0.0
118,66.0,60.0,120.0,2.0,0.0
119,75.0,0.0,60.0,1.0,0.0
120,46.0,60.0,120.0,3.0,0.0
121,74.0,60.0,60.0,1.0,0.0
122,67.0,60.0,240.0,2.0,0.0
123,72.0,0.0,60.0,1.0,0.0
124,70.0,60.0,60.0,1.0,0.0
125,43.0,0.0,120.0,3.0,0.0
126,67.0,0.0,60.0,1.0,0.0
127,69.0,60.0,60.0,1.0,0.0
128,51.0,60.0,120.0,3.0,0.0
129,72.0,0.0,60.0,1.0,0.0
130,70.0,40.0,60.0,1.0,0.0
131,50.0,20.0,90.0,3.0,0.0
132,67.0,120.0,60.0,1.0,0.0
133,69.0,120.0,240.0,2.0,0.0
134,55.0,100.0,120.0,3.0,0.0
135,62.0,0.0,120.0,1.0,0.0
136,74.0,40.0,300.0,1.0,0.0
137,54.0,20.0,90.0,3.0,0.0
138,67.0,0.0,240.0,2.0,0.0
139,48.0,60.0,120.0,3.0,0.0
140,47.0,20.0,90.0,3.0,0.0
141,75.0,60.0,60.0,1.0,0.0
142,74.0,60.0,60.0,1.0,0.0
143,56.0,0.0,120.0,3.0,0.0
144,65.0,0.0,240.0,2.0,0.0
145,72.0,60.0,60.0,1.0,0.0
146,71.0,40.0,60.0,1.0,0.0
147,55.0,20.0,90.0,3.0,0.0
148,69.0,60.0,60.0,1.0,0.0
149,64.0,0.0,240.0,2.0,0.0
150,50.0,120.0,120.0,3.0,0.0
151,67.0,30.0,60.0,1.0,0.0
152,69.0,30.0,30.0,1.0,0.0
153,70.0,0.0,30.0,1.0,0.0
154,69.0,60.0,180.0,1.0,0.0
155,49.0,60.0,120.0,3.0,0.0
156,62.0,120.0,360.0,2.0,0.0
157,58.0,0.0,120.0,3.0,0.0
158,67.0,60.0,60.0,1.0,0.0
159,57.0,0.0,120.0,3.0,0.0
160,65.0,60.0,60.0,1.0,0.0
161,70.0,120.0,60.0,1.0,0.0
162,56.0,0.0,120.0,3.0,0.0
163,64.0,120.0,240.0,1.0,0.0
164,61.0,0.0,120.0,2.0,0.0
165,57.0,0.0,120.0,3.0,0.0
166,53.0,120.0,120.0,3.0,0.0
167,62.0,60.0,300.0,2.0,0.0
168,65.0,0.0,240.0,1.0,0.0
169,50.0,60.0,120.0,3.0,0.0
170,52.0,0.0,480.0,3.0,0.0
171,67.0,0.0,720.0,1.0,0.0
172,64.0,60.0,60.0,2.0,0.0
173,65.0,60.0,60.0,2.0,0.0
174,67.0,60.0,60.0,2.0,0.0
175,69.0,60.0,60.0,2.0,0.0
176,70.0,60.0,60.0,2.0,0.0
177,62.0,60.0,60.0,2.0,0.0
178,61.0,60.0,60.0,2.0,0.0
179,50.0,60.0,60.0,3.0,0.0
180,62.0,0.0,720.0,2.0,0.0
181,50.0,60.0,60.0,3.0,0.0
182,51.0,60.0,60.0,3.0,0.0
183,53.0,60.0,60.0,3.0,0.0
184,65.0,0.0,240.0,1.0,0.0
185,55.0,60.0,60.0,3.0,0.0
186,56.0,60.0,60.0,3.0,0.0
187,48.0,60.0,60.0,3.0,0.0
188,47.0,60.0,60.0,3.0,0.0
189,64.0,0.0,480.0,1.0,0.0
190,48.0,60.0,60.0,3.0,0.0
191,50.0,60.0,60.0,3.0,0.0
192,51.0,60.0,60.0,3.0,0.0
193,48.0,60.0,60.0,3.0,0.0
194,60.0,60.0,420.0,2.0,0.0
195,54.0,60.0,60.0,3.0,0.0
196,55.0,60.0,60.0,3.0,0.0
197,46.0,60.0,60.0,3.0,0.0
198,45.0,120.0,60.0,3.0,0.0
199,62.0,0.0,480.0,1.0,0.0
200,46.0,60.0,120.0,3.0,0.0
201,43.0,60.0,120.0,3.0,0.0
202,67.0,0.0,120.0,0.0,0.0
203,58.0,0.0,60.0,2.0,0.0
204,57.0,60.0,60.0,2.0,0.0
205,65.0,60.0,120.0,0.0,0.0
206,50.0,0.0,480.0,3.0,0.0
207,55.0,0.0,60.0,2.0,0.0
208,53.0,60.0,60.0,2.0,0.0
209,62.0,0.0,120.0,0.0,0.0
210,50.0,60.0,60.0,2.0,0.0
211,70.0,0.0,120.0,0.0,0.0
212,61.0,0.0,120.0,1.0,0.0
213,52.0,60.0,60.0,2.0,0.0
214,55.0,60.0,60.0,2.0,0.0
215,59.0,0.0,120.0,1.0,0.0
216,67.0,120.0,120.0,0.0,0.0
217,53.0,60.0,60.0,2.0,0.0
218,50.0,0.0,60.0,2.0,0.0
219,56.0,0.0,120.0,2.0,0.0
220,72.0,60.0,120.0,0.0,0.0
221,50.0,0.0,240.0,3.0,0.0
222,71.0,0.0,120.0,0.0,0.0
223,55.0,60.0,60.0,2.0,0.0
224,53.0,120.0,60.0,2.0,0.0
225,65.0,120.0,120.0,0.0,0.0
226,71.0,0.0,120.0,1.0,0.0
227,48.0,0.0,240.0,3.0,0.0
228,55.0,0.0,480.0,2.0,0.0
229,72.0,0.0,120.0,1.0,0.0
230,64.0,120.0,120.0,0.0,0.0
231,73.0,120.0,120.0,0.0,0.0
232,46.0,0.0,240.0,3.0,0.0
233,72.0,120.0,120.0,0.0,0.0
234,45.0,0.0,240.0,3.0,0.0
235,48.0,0.0,240.0,2.0,0.0
236,67.0,120.0,120.0,0.0,0.0
237,72.0,60.0,120.0,1.0,0.0
238,66.0,0.0,120.0,0.0,0.0
239,55.0,0.0,120.0,2.0,0.0
240,43.0,0.0,360.0,3.0,0.0
241,70.0,60.0,60.0,1.0,0.0
242,75.0,60.0,120.0,0.0,0.0
243,69.0,0.0,60.0,1.0,0.0
244,53.0,0.0,120.0,2.0,0.0
245,74.0,120.0,120.0,0.0,0.0
246,70.0,60.0,60.0,1.0,0.0
247,67.0,0.0,60.0,1.0,0.0
248,69.0,120.0,240.0,1.0,0.0
249,73.0,0.0,120.0,0.0,0.0
250,52.0,120.0,120.0,2.0,0.0
251,42.0,0.0,120.0,3.0,0.0
252,50.0,0.0,120.0,2.0,0.0
253,74.0,0.0,120.0,0.0,0.0
254,43.0,60.0,300.0,3.0,0.0
255,70.0,0.0,120.0,0.0,0.0
256,62.0,0.0,120.0,2.0,0.0
257,67.0,120.0,120.0,1.0,0.0
258,62.0,60.0,120.0,1.0,0.0
259,67.0,0.0,120.0,0.0,0.0
260,58.0,0.0,120.0,2.0,0.0
261,69.0,70.0,540.0,0.0,0.0
262,63.0,0.0,600.0,1.0,0.0
263,60.0,0.0,480.0,2.0,0.0
264,45.0,60.0,60.0,3.0,0.0
265,46.0,60.0,60.0,3.0,0.0
266,48.0,60.0,60.0,3.0,0.0
267,50.0,60.0,60.0,3.0,0.0
268,51.0,60.0,60.0,3.0,0.0
269,43.0,60.0,60.0,3.0,0.0
270,42.0,50.0,60.0,3.0,0.0
271,46.0,60.0,540.0,3.0,0.0
272,69.0,60.0,60.0,0.0,0.0
273,57.0,0.0,360.0,1.0,0.0
274,70.0,60.0,60.0,0.0,0.0
275,72.0,60.0,60.0,0.0,0.0
276,74.0,60.0,60.0,0.0,0.0
277,54.0,0.0,120.0,2.0,0.0
278,75.0,60.0,60.0,0.0,0.0
279,50.0,60.0,120.0,2.0,0.0
280,67.0,60.0,60.0,0.0,0.0
281,66.0,0.0,60.0,0.0,0.0
282,62.0,60.0,240.0,1.0,0.0
283,67.0,60.0,540.0,0.0,0.0
284,58.0,60.0,480.0,2.0,0.0
285,42.0,60.0,60.0,3.0,0.0
286,43.0,60.0,60.0,3.0,0.0
287,45.0,0.0,60.0,3.0,0.0
288,64.0,0.0,480.0,1.0,0.0
289,46.0,60.0,60.0,3.0,0.0
290,48.0,60.0,60.0,3.0,0.0
291,38.0,60.0,60.0,3.0,0.0
292,37.0,0.0,60.0,3.0,0.0
293,57.0,0.0,480.0,2.0,0.0
294,38.0,60.0,240.0,3.0,0.0
295,61.0,60.0,60.0,0.0,0.0
296,62.0,60.0,60.0,0.0,0.0
297,64.0,0.0,60.0,0.0,0.0
298,65.0,60.0,60.0,0.0,0.0
299,50.0,0.0,120.0,3.0,0.0
300,62.0,0.0,120.0,1.0,0.0
301,67.0,60.0,60.0,0.0,0.0
302,53.0,0.0,120.0,3.0,0.0
303,69.0,60.0,60.0,0.0,0.0
304,62.0,60.0,60.0,0.0,0.0
305,70.0,60.0,60.0,0.0,0.0
306,55.0,0.0,120.0,3.0,0.0
307,72.0,60.0,60.0,0.0,0.0
308,55.0,60.0,60.0,2.0,0.0
309,74.0,60.0,240.0,0.0,0.0
310,46.0,60.0,120.0,3.0,0.0
311,53.0,0.0,60.0,2.0,0.0
312,48.0,0.0,120.0,3.0,0.0
313,52.0,60.0,60.0,2.0,0.0
314,53.0,0.0,60.0,2.0,0.0
315,55.0,0.0,240.0,2.0,0.0
316,72.0,60.0,60.0,0.0,0.0
317,52.0,60.0,120.0,3.0,0.0
318,70.0,0.0,60.0,0.0,0.0
319,69.0,60.0,60.0,0.0,0.0
320,53.0,60.0,120.0,3.0,0.0
321,70.0,0.0,60.0,0.0,0.0
322,45.0,0.0,120.0,3.0,0.0
323,72.0,0.0,240.0,0.0,0.0
324,53.0,60.0,60.0,2.0,0.0
325,52.0,60.0,60.0,2.0,0.0
326,46.0,60.0,120.0,3.0,0.0
327,50.0,60.0,60.0,2.0,0.0
328,52.0,0.0,60.0,2.0,0.0
329,70.0,60.0,60.0,0.0,0.0
330,53.0,60.0,240.0,2.0,0.0
331,50.0,60.0,120.0,3.0,0.0
332,69.0,0.0,60.0,0.0,0.0
333,52.0,0.0,120.0,3.0,0.0
334,67.0,60.0,60.0,0.0,0.0
335,69.0,0.0,60.0,0.0,0.0
336,52.0,60.0,60.0,2.0,0.0
337,70.0,60.0,240.0,0.0,0.0
338,43.0,0.0,120.0,3.0,0.0
339,50.0,60.0,60.0,2.0,0.0
340,45.0,0.0,120.0,3.0,0.0
341,49.0,60.0,60.0,2.0,0.0
342,50.0,0.0,60.0,2.0,0.0
343,49.0,120.0,120.0,3.0,0.0
344,69.0,60.0,60.0,0.0,0.0
345,52.0,0.0,120.0,2.0,0.0
346,67.0,0.0,60.0,0.0,0.0
347,65.0,120.0,240.0,0.0,0.0
348,50.0,120.0,120.0,3.0,0.0
349,67.0,0.0,60.0,1.0,0.0
350,69.0,0.0,240.0,1.0,0.0
351,41.0,0.0,120.0,3.0,0.0
352,43.0,60.0,120.0,3.0,0.0
353,62.0,0.0,120.0,2.0,0.0
354,58.0,60.0,120.0,2.0,0.0
355,74.0,0.0,240.0,0.0,0.0
356,46.0,0.0,120.0,3.0,0.0
357,67.0,60.0,60.0,1.0,0.0
358,65.0,0.0,60.0,1.0,0.0
359,48.0,0.0,120.0,3.0,0.0
360,63.0,60.0,60.0,1.0,0.0
361,55.0,0.0,120.0,2.0,0.0
362,65.0,60.0,60.0,1.0,0.0
363,39.0,60.0,120.0,3.0,0.0
364,67.0,0.0,240.0,1.0,0.0
365,72.0,60.0,60.0,0.0,0.0
366,70.0,0.0,60.0,0.0,0.0
367,69.0,60.0,60.0,0.0,0.0
368,41.0,60.0,120.0,3.0,0.0
369,70.0,0.0,60.0,0.0,0.0
370,45.0,0.0,120.0,3.0,0.0
371,65.0,60.0,60.0,1.0,0.0
372,72.0,0.0,240.0,0.0,0.0
373,63.0,60.0,60.0,1.0,0.0
374,46.0,0.0,120.0,3.0,0.0
375,62.0,60.0,60.0,1.0,0.0
376,63.0,60.0,60.0,1.0,0.0
377,70.0,60.0,60.0,0.0,0.0
378,65.0,0.0,240.0,1.0,0.0
379,38.0,60.0,120.0,3.0,0.0
380,69.0,0.0,60.0,0.0,0.0
381,39.0,60.0,120.0,3.0,0.0
382,67.0,60.0,60.0,0.0,0.0
383,69.0,0.0,60.0,0.0,0.0
384,63.0,60.0,60.0,1.0,0.0
385,70.0,0.0,240.0,0.0,0.0
386,43.0,60.0,120.0,3.0,0.0
387,62.0,0.0,60.0,1.0,0.0
388,60.0,60.0,60.0,1.0,0.0
389,45.0,60.0,120.0,3.0,0.0
390,62.0,0.0,60.0,1.0,0.0
391,69.0,60.0,60.0,0.0,0.0
392,36.0,60.0,120.0,3.0,0.0
393,63.0,0.0,240.0,1.0,0.0
394,67.0,0.0,60.0,0.0,0.0
395,66.0,60.0,60.0,0.0,0.0
396,38.0,0.0,120.0,3.0,0.0
397,67.0,60.0,60.0,0.0,0.0
398,62.0,60.0,60.0,1.0,0.0
399,42.0,0.0,120.0,3.0,0.0
400,69.0,60.0,240.0,0.0,0.0
401,60.0,120.0,60.0,1.0,0.0
402,43.0,60.0,300.0,3.0,0.0
403,58.0,0.0,240.0,1.0,0.0
404,62.0,60.0,120.0,1.0,0.0
405,67.0,60.0,60.0,0.0,0.0
406,66.0,0.0,60.0,0.0,0.0
407,58.0,60.0,120.0,1.0,0.0
408,67.0,60.0,300.0,0.0,0.0
409,45.0,0.0,60.0,3.0,0.0
410,46.0,60.0,60.0,3.0,0.0
411,55.0,0.0,120.0,1.0,0.0
412,50.0,60.0,60.0,3.0,0.0
413,63.0,0.0,120.0,1.0,0.0
414,48.0,0.0,60.0,3.0,0.0
415,45.0,60.0,60.0,3.0,0.0
416,66.0,0.0,60.0,0.0,0.0
417,62.0,0.0,120.0,1.0,0.0
418,67.0,0.0,60.0,0.0,0.0
419,46.0,60.0,60.0,3.0,0.0
420,70.0,0.0,60.0,0.0,0.0
421,50.0,60.0,60.0,3.0,0.0
422,69.0,60.0,240.0,0.0,0.0
423,67.0,60.0,120.0,1.0,0.0
424,51.0,60.0,60.0,3.0,0.0
425,48.0,0.0,60.0,3.0,0.0
426,66.0,0.0,120.0,1.0,0.0
427,50.0,60.0,60.0,3.0,0.0
428,54.0,0.0,60.0,3.0,0.0
429,55.0,60.0,60.0,3.0,0.0
430,67.0,0.0,240.0,0.0,0.0
431,60.0,60.0,120.0,1.0,0.0
432,51.0,0.0,60.0,3.0,0.0
433,50.0,60.0,60.0,3.0,0.0
434,59.0,120.0,120.0,1.0,0.0
435,48.0,0.0,60.0,3.0,0.0
436,47.0,60.0,180.0,3.0,0.0
437,65.0,60.0,240.0,0.0,0.0
438,68.0,60.0,120.0,1.0,0.0
439,67.0,0.0,120.0,1.0,0.0
440,45.0,0.0,60.0,3.0,0.0
441,46.0,60.0,60.0,3.0,0.0
442,64.0,0.0,240.0,0.0,0.0
443,62.0,0.0,120.0,1.0,0.0
444,48.0,60.0,60.0,3.0,0.0
445,46.0,60.0,60.0,3.0,0.0
446,61.0,60.0,120.0,1.0,0.0
447,45.0,0.0,60.0,3.0,0.0
448,43.0,60.0,60.0,3.0,0.0
449,70.0,60.0,120.0,1.0,0.0
450,62.0,0.0,360.0,0.0,0.0
451,41.0,0.0,60.0,3.0,0.0
452,40.0,60.0,60.0,3.0,0.0
453,69.0,0.0,120.0,1.0,0.0
454,38.0,60.0,60.0,3.0,0.0
455,40.0,60.0,60.0,3.0,0.0
456,68.0,60.0,120.0,1.0,0.0
457,43.0,0.0,60.0,3.0,0.0
458,41.0,60.0,60.0,3.0,0.0
459,69.0,60.0,120.0,1.0,0.0
460,61.0,0.0,120.0,0.0,0.0
461,40.0,0.0,60.0,3.0,0.0
462,38.0,60.0,60.0,3.0,0.0
463,65.0,0.0,120.0,1.0,0.0
464,41.0,60.0,60.0,3.0,0.0
465,62.0,0.0,15.0,0.0,0.0
466,46.0,60.0,60.0,3.0,0.0
467,45.0,60.0,60.0,3.0,0.0
468,43.0,0.0,120.0,3.0,0.0
469,64.0,0.0,480.0,1.0,0.0
470,64.0,60.0,60.0,0.0,0.0
471,40.0,60.0,120.0,3.0,0.0
472,65.0,60.0,60.0,0.0,0.0
473,67.0,0.0,60.0,0.0,0.0
474,69.0,60.0,60.0,0.0,0.0
475,45.0,0.0,120.0,3.0,0.0
476,70.0,60.0,60.0,0.0,0.0
477,62.0,60.0,60.0,0.0,0.0
478,33.0,60.0,120.0,3.0,0.0
479,61.0,0.0,60.0,0.0,0.0
480,65.0,0.0,600.0,1.0,0.0
481,62.0,0.0,240.0,0.0,0.0
482,50.0,60.0,60.0,3.0,0.0
483,51.0,60.0,60.0,3.0,0.0
484,53.0,60.0,60.0,3.0,0.0
485,55.0,60.0,60.0,3.0,0.0
486,56.0,60.0,60.0,3.0,0.0
487,74.0,120.0,360.0,0.0,0.0
488,58.0,60.0,60.0,3.0,0.0
489,48.0,60.0,60.0,3.0,0.0
490,47.0,120.0,60.0,3.0,0.0
491,51.0,60.0,540.0,3.0,0.0
492,68.0,0.0,120.0,1.0,0.0
493,72.0,120.0,120.0,0.0,0.0
494,67.0,0.0,120.0,1.0,0.0
495,71.0,120.0,120.0,0.0,0.0
496,74.0,60.0,120.0,0.0,0.0
497,71.0,0.0,120.0,1.0,0.0
498,75.0,120.0,600.0,0.0,0.0
499,72.0,0.0,600.0,1.0,0.0
500,43.0,60.0,60.0,3.0,0.0
501,45.0,60.0,60.0,3.0,0.0
502,46.0,60.0,60.0,3.0,0.0
503,48.0,60.0,60.0,3.0,0.0
504,50.0,60.0,60.0,3.0,0.0
505,43.0,60.0,60.0,3.0,0.0
506,42.0,120.0,60.0,3.0,0.0
507,43.0,0.0,600.0,3.0,0.0
508,74.0,0.0,120.0,0.0,0.0
509,70.0,120.0,120.0,1.0,0.0
510,73.0,120.0,120.0,0.0,0.0
511,69.0,0.0,120.0,1.0,0.0
512,76.0,120.0,120.0,0.0,0.0
513,73.0,0.0,120.0,1.0,0.0
514,74.0,0.0,240.0,1.0,0.0
515,69.0,60.0,120.0,0.0,0.0
516,70.0,60.0,60.0,0.0,0.0
517,42.0,0.0,120.0,3.0,0.0
518,72.0,60.0,60.0,0.0,0.0
519,70.0,60.0,60.0,0.0,0.0
520,43.0,0.0,120.0,3.0,0.0
521,72.0,60.0,60.0,0.0,0.0
522,46.0,60.0,120.0,3.0,0.0
523,74.0,60.0,240.0,0.0,0.0
524,67.0,60.0,60.0,1.0,0.0
525,65.0,0.0,60.0,1.0,0.0
526,63.0,60.0,60.0,1.0,0.0
527,48.0,0.0,120.0,3.0,0.0
528,65.0,0.0,60.0,1.0,0.0
529,39.0,60.0,120.0,3.0,0.0
530,67.0,0.0,240.0,1.0,0.0
531,72.0,60.0,60.0,0.0,0.0
532,70.0,0.0,60.0,0.0,0.0
533,69.0,60.0,60.0,0.0,0.0
534,41.0,60.0,120.0,3.0,0.0
535,70.0,0.0,60.0,0.0,0.0
536,65.0,60.0,60.0,1.0,0.0
537,72.0,0.0,240.0,0.0,0.0
538,45.0,60.0,120.0,3.0,0.0
539,63.0,0.0,60.0,1.0,0.0
540,62.0,60.0,60.0,1.0,0.0
541,46.0,60.0,120.0,3.0,0.0
542,63.0,0.0,60.0,1.0,0.0
543,65.0,60.0,240.0,1.0,0.0
544,70.0,60.0,60.0,0.0,0.0
545,38.0,60.0,120.0,3.0,0.0
546,69.0,0.0,60.0,0.0,0.0
547,67.0,60.0,60.0,0.0,0.0
548,39.0,0.0,120.0,3.0,0.0
549,69.0,0.0,60.0,0.0,0.0
550,43.0,0.0,120.0,3.0,0.0
551,70.0,0.0,240.0,0.0,0.0
552,63.0,60.0,60.0,1.0,0.0
553,62.0,60.0,60.0,1.0,0.0
554,45.0,0.0,120.0,3.0,0.0
555,60.0,60.0,60.0,1.0,0.0
556,62.0,60.0,60.0,1.0,0.0
557,69.0,60.0,60.0,0.0,0.0
558,36.0,60.0,120.0,3.0,0.0
559,63.0,0.0,240.0,1.0,0.0
560,67.0,0.0,60.0,0.0,0.0
561,38.0,0.0,120.0,3.0,0.0
562,66.0,60.0,60.0,0.0,0.0
563,67.0,60.0,60.0,0.0,0.0
564,69.0,0.0,240.0,0.0,0.0
565,42.0,0.0,120.0,3.0,0.0
566,62.0,60.0,60.0,1.0,0.0
567,60.0,60.0,60.0,1.0,0.0
568,58.0,60.0,60.0,1.0,0.0
569,43.0,120.0,120.0,3.0,0.0
570,60.0,0.0,60.0,1.0,0.0
571,55.0,0.0,120.0,2.0,0.0
572,67.0,120.0,120.0,0.0,0.0
573,46.0,0.0,120.0,3.0,0.0
574,62.0,60.0,240.0,1.0,0.0
575,51.0,0.0,120.0,2.0,0.0
576,48.0,0.0,120.0,3.0,0.0
577,60.0,60.0,60.0,1.0,0.0
578,51.0,0.0,120.0,3.0,0.0
579,79.0,0.0,240.0,0.0,0.0
580,48.0,0.0,120.0,2.0,0.0
581,58.0,60.0,60.0,1.0,0.0
582,53.0,60.0,120.0,3.0,0.0
583,56.0,60.0,60.0,1.0,0.0
584,58.0,0.0,60.0,1.0,0.0
585,77.0,60.0,60.0,0.0,0.0
586,60.0,0.0,240.0,1.0,0.0
587,56.0,0.0,120.0,3.0,0.0
588,75.0,60.0,60.0,0.0,0.0
589,74.0,60.0,60.0,0.0,0.0
590,58.0,60.0,120.0,3.0,0.0
591,75.0,0.0,60.0,0.0,0.0
592,50.0,0.0,120.0,3.0,0.0
593,77.0,0.0,240.0,0.0,0.0
594,58.0,60.0,60.0,1.0,0.0
595,56.0,60.0,60.0,1.0,0.0
596,55.0,60.0,60.0,1.0,0.0
597,51.0,60.0,120.0,3.0,0.0
598,56.0,0.0,60.0,1.0,0.0
599,58.0,60.0,240.0,1.0,0.0
600,55.0,0.0,120.0,3.0,0.0
601,75.0,60.0,60.0,0.0,0.0
602,74.0,60.0,60.0,0.0,0.0
603,56.0,0.0,120.0,3.0,0.0
604,72.0,60.0,60.0,0.0,0.0
605,74.0,0.0,60.0,0.0,0.0
606,56.0,60.0,60.0,1.0,0.0
607,48.0,0.0,120.0,3.0,0.0
608,75.0,0.0,240.0,0.0,0.0
609,55.0,60.0,60.0,1.0,0.0
610,50.0,0.0,120.0,3.0,0.0
611,53.0,60.0,60.0,1.0,0.0
612,55.0,60.0,60.0,1.0,0.0
613,56.0,0.0,240.0,1.0,0.0
614,74.0,60.0,60.0,0.0,0.0
615,53.0,60.0,120.0,3.0,0.0
616,72.0,0.0,60.0,0.0,0.0
617,71.0,60.0,60.0,0.0,0.0
618,55.0,0.0,120.0,3.0,0.0
619,72.0,60.0,60.0,0.0,0.0
620,74.0,60.0,240.0,0.0,0.0
621,55.0,60.0,60.0,1.0,0.0
622,47.0,0.0,120.0,3.0,0.0
623,53.0,120.0,60.0,1.0,0.0
624,48.0,0.0,240.0,3.0,0.0
625,51.0,60.0,240.0,1.0,0.0
626,72.0,60.0,60.0,0.0,0.0
627,55.0,0.0,120.0,2.0,0.0
628,71.0,0.0,60.0,0.0,0.0
629,51.0,60.0,120.0,2.0,0.0
630,72.0,60.0,60.0,0.0,0.0
631,74.0,0.0,60.0,0.0,0.0
632,48.0,60.0,120.0,2.0,0.0
633,60.0,60.0,60.0,1.0,0.0
634,75.0,0.0,60.0,0.0,0.0
635,59.0,0.0,60.0,1.0,0.0
636,79.0,0.0,60.0,0.0,0.0
637,77.0,60.0,120.0,0.0,0.0
638,56.0,0.0,120.0,2.0,0.0
639,59.0,60.0,60.0,1.0,0.0
640,60.0,0.0,60.0,1.0,0.0
641,62.0,60.0,60.0,1.0,0.0
642,75.0,0.0,120.0,0.0,0.0
643,55.0,60.0,120.0,2.0,0.0
644,63.0,0.0,60.0,1.0,0.0
645,60.0,60.0,120.0,2.0,0.0
646,74.0,60.0,240.0,0.0,0.0
647,65.0,60.0,60.0,1.0,0.0
648,63.0,0.0,60.0,1.0,0.0
649,65.0,60.0,60.0,1.0,0.0
650,59.0,0.0,120.0,2.0,0.0
651,67.0,0.0,60.0,1.0,0.0
652,68.0,60.0,60.0,1.0,0.0
653,72.0,0.0,240.0,0.0,0.0
654,53.0,120.0,120.0,2.0,0.0
655,65.0,0.0,60.0,1.0,0.0
656,52.0,60.0,120.0,2.0,0.0
657,67.0,60.0,180.0,1.0,0.0
658,70.0,0.0,240.0,0.0,0.0
659,61.0,60.0,120.0,2.0,0.0
660,65.0,0.0,60.0,1.0,0.0
661,60.0,0.0,120.0,2.0,0.0
662,64.0,60.0,60.0,1.0,0.0
663,62.0,60.0,60.0,1.0,0.0
664,55.0,60.0,120.0,2.0,0.0
665,60.0,60.0,60.0,1.0,0.0
666,69.0,0.0,240.0,0.0,0.0
667,63.0,0.0,60.0,1.0,0.0
668,62.0,60.0,60.0,1.0,0.0
669,54.0,120.0,120.0,2.0,0.0
670,66.0,0.0,60.0,1.0,0.0
671,63.0,60.0,120.0,2.0,0.0
672,69.0,0.0,60.0,0.0,0.0
673,62.0,0.0,120.0,2.0,0.0
674,70.0,60.0,60.0,0.0,0.0
675,72.0,60.0,60.0,0.0,0.0
676,70.0,60.0,60.0,0.0,0.0
677,61.0,0.0,120.0,2.0,0.0
678,69.0,0.0,180.0,0.0,0.0
679,62.0,0.0,120.0,2.0,0.0
680,67.0,60.0,15.0,1.0,0.0
681,66.0,120.0,60.0,1.0,0.0
682,67.0,60.0,300.0,0.0,0.0
683,58.0,0.0,120.0,2.0,0.0
684,65.0,60.0,60.0,1.0,0.0
685,55.0,0.0,120.0,2.0,0.0
686,63.0,60.0,60.0,1.0,0.0
687,62.0,60.0,60.0,1.0,0.0
688,60.0,0.0,480.0,1.0,0.0
689,57.0,120.0,480.0,2.0,0.0
690,69.0,60.0,60.0,0.0,0.0
691,70.0,60.0,60.0,0.0,0.0
692,72.0,60.0,60.0,0.0,0.0
693,74.0,60.0,60.0,0.0,0.0
694,75.0,60.0,60.0,0.0,0.0
695,67.0,60.0,60.0,0.0,0.0
696,66.0,0.0,60.0,0.0,0.0
697,55.0,0.0,480.0,2.0,0.0
698,70.0,120.0,480.0,0.0,0.0
699,62.0,60.0,60.0,1.0,0.0
700,64.0,60.0,60.0,1.0,0.0
701,66.0,60.0,60.0,1.0,0.0
702,67.0,60.0,60.0,1.0,0.0
703,69.0,60.0,60.0,1.0,0.0
704,62.0,60.0,60.0,1.0,0.0
705,61.0,0.0,60.0,1.0,0.0
706,65.0,0.0,480.0,1.0,0.0
707,69.0,0.0,360.0,0.0,0.0
708,57.0,60.0,60.0,2.0,0.0
709,59.0,60.0,60.0,2.0,0.0
710,61.0,60.0,60.0,2.0,0.0
711,62.0,60.0,60.0,2.0,0.0
712,64.0,60.0,60.0,2.0,0.0
713,71.0,0.0,120.0,0.0,0.0
714,57.0,60.0,60.0,2.0,0.0
715,56.0,60.0,60.0,2.0,0.0
716,73.0,0.0,240.0,0.0,0.0
717,64.0,0.0,120.0,1.0,0.0
718,57.0,60.0,60.0,2.0,0.0
719,55.0,60.0,60.0,2.0,0.0
720,69.0,0.0,120.0,1.0,0.0
721,53.0,60.0,60.0,2.0,0.0
722,52.0,60.0,60.0,2.0,0.0
723,65.0,0.0,120.0,1.0,0.0
724,50.0,60.0,60.0,2.0,0.0
725,52.0,60.0,60.0,2.0,0.0
726,74.0,0.0,180.0,0.0,0.0
727,53.0,60.0,60.0,2.0,0.0
728,62.0,0.0,120.0,1.0,0.0
729,57.0,60.0,60.0,2.0,0.0
730,55.0,60.0,60.0,2.0,0.0
731,70.0,60.0,120.0,1.0,0.0
732,73.0,0.0,60.0,0.0,0.0
733,52.0,0.0,60.0,2.0,0.0
734,53.0,0.0,60.0,2.0,0.0
735,74.0,60.0,60.0,0.0,0.0
736,69.0,0.0,120.0,1.0,0.0
737,77.0,0.0,60.0,0.0,0.0
738,57.0,60.0,60.0,2.0,0.0
739,74.0,60.0,120.0,1.0,0.0
740,76.0,0.0,240.0,0.0,0.0
741,58.0,60.0,60.0,2.0,0.0
742,55.0,0.0,60.0,2.0,0.0
743,57.0,60.0,60.0,2.0,0.0
744,73.0,60.0,120.0,1.0,0.0
745,61.0,0.0,60.0,2.0,0.0
746,62.0,60.0,60.0,2.0,0.0
747,67.0,0.0,120.0,1.0,0.0
748,60.0,60.0,60.0,2.0,0.0
749,66.0,0.0,120.0,1.0,0.0
750,74.0,0.0,120.0,0.0,0.0
751,58.0,60.0,60.0,2.0,0.0
752,57.0,60.0,60.0,2.0,0.0
753,55.0,60.0,60.0,2.0,0.0
754,70.0,0.0,120.0,0.0,0.0
755,57.0,60.0,60.0,2.0,0.0
756,58.0,60.0,60.0,2.0,0.0
757,67.0,0.0,180.0,1.0,0.0
758,62.0,60.0,60.0,2.0,0.0
759,60.0,60.0,60.0,2.0,0.0
760,75.0,0.0,120.0,0.0,0.0
761,57.0,60.0,60.0,2.0,0.0
762,65.0,0.0,60.0,1.0,0.0
763,58.0,60.0,60.0,2.0,0.0
764,74.0,0.0,120.0,0.0,0.0
765,67.0,0.0,60.0,1.0,0.0
766,70.0,0.0,60.0,1.0,0.0
767,62.0,60.0,60.0,2.0,0.0
768,79.0,0.0,120.0,0.0,0.0
769,69.0,0.0,360.0,1.0,0.0
770,63.0,60.0,60.0,2.0,0.0
771,60.0,60.0,60.0,2.0,0.0
772,78.0,0.0,120.0,0.0,0.0
773,62.0,60.0,60.0,2.0,0.0
774,66.0,60.0,60.0,2.0,0.0
775,67.0,60.0,60.0,2.0,0.0
776,72.0,60.0,120.0,0.0,0.0
777,65.0,0.0,60.0,2.0,0.0
778,63.0,60.0,60.0,2.0,0.0
779,71.0,0.0,120.0,0.0,0.0
780,67.0,60.0,120.0,1.0,0.0
781,62.0,0.0,60.0,2.0,0.0
782,72.0,0.0,120.0,1.0,0.0
783,75.0,60.0,300.0,0.0,0.0
784,60.0,60.0,60.0,2.0,0.0
785,58.0,60.0,60.0,2.0,0.0
786,66.0,60.0,120.0,1.0,0.0
787,60.0,60.0,60.0,2.0,0.0
788,57.0,0.0,60.0,2.0,0.0
789,58.0,0.0,600.0,2.0,0.0
790,67.0,60.0,540.0,1.0,0.0
791,74.0,60.0,60.0,0.0,0.0
792,76.0,60.0,60.0,0.0,0.0
793,78.0,60.0,60.0,0.0,0.0
794,79.0,60.0,60.0,0.0,0.0
795,75.0,60.0,60.0,0.0,0.0
796,74.0,60.0,60.0,0.0,0.0
797,73.0,60.0,60.0,0.0,0.0
798,74.0,0.0,240.0,0.0,0.0
799,66.0,60.0,60.0,1.0,0.0
800,57.0,60.0,120.0,2.0,0.0
801,67.0,60.0,60.0,1.0,0.0
802,69.0,0.0,60.0,1.0,0.0
803,73.0,60.0,300.0,0.0,0.0
804,55.0,0.0,120.0,2.0,0.0
805,70.0,60.0,60.0,1.0,0.0
806,72.0,60.0,60.0,1.0,0.0
807,58.0,0.0,120.0,2.0,0.0
808,65.0,60.0,60.0,1.0,0.0
809,64.0,60.0,60.0,1.0,0.0
810,56.0,0.0,600.0,2.0,0.0
811,65.0,0.0,600.0,1.0,0.0
812,72.0,60.0,60.0,0.0,0.0
813,74.0,60.0,60.0,0.0,0.0
814,76.0,60.0,60.0,0.0,0.0
815,77.0,60.0,60.0,0.0,0.0
816,79.0,60.0,60.0,0.0,0.0
817,72.0,60.0,60.0,0.0,0.0
818,71.0,60.0,60.0,0.0,0.0
819,72.0,60.0,60.0,0.0,0.0
820,62.0,120.0,60.0,0.0,0.0
821,63.0,0.0,120.0,1.0,0.0
822,48.0,0.0,120.0,3.0,0.0
823,55.0,0.0,120.0,2.0,0.0
824,65.0,60.0,60.0,0.0,0.0
825,62.0,60.0,240.0,1.0,0.0
826,67.0,60.0,60.0,0.0,0.0
827,46.0,0.0,120.0,3.0,0.0
828,69.0,60.0,60.0,0.0,0.0
829,43.0,0.0,120.0,3.0,0.0
830,55.0,0.0,180.0,2.0,0.0
831,70.0,60.0,60.0,0.0,0.0
832,74.0,0.0,60.0,0.0,0.0
833,51.0,60.0,120.0,3.0,0.0
834,72.0,60.0,60.0,0.0,0.0
835,54.0,0.0,60.0,2.0,0.0
836,69.0,0.0,60.0,0.0,0.0
837,50.0,60.0,120.0,3.0,0.0
838,55.0,60.0,60.0,2.0,0.0
839,70.0,0.0,60.0,0.0,0.0
840,58.0,0.0,60.0,2.0,0.0
841,74.0,0.0,60.0,0.0,0.0
842,57.0,0.0,240.0,2.0,0.0
843,75.0,60.0,60.0,0.0,0.0
844,55.0,0.0,120.0,3.0,0.0
845,72.0,60.0,60.0,0.0,0.0
846,54.0,0.0,120.0,3.0,0.0
847,74.0,60.0,60.0,0.0,0.0
848,78.0,120.0,60.0,0.0,0.0
849,48.0,0.0,120.0,3.0,0.0
850,50.0,0.0,240.0,2.0,0.0
851,79.0,60.0,240.0,0.0,0.0
852,74.0,60.0,60.0,1.0,0.0
853,77.0,60.0,60.0,1.0,0.0
854,47.0,0.0,120.0,3.0,0.0
855,75.0,0.0,60.0,1.0,0.0
856,74.0,60.0,60.0,1.0,0.0
857,77.0,0.0,240.0,0.0,0.0
858,56.0,0.0,120.0,3.0,0.0
859,72.0,60.0,60.0,1.0,0.0
860,55.0,0.0,120.0,3.0,0.0
861,71.0,60.0,60.0,1.0,0.0
862,69.0,60.0,60.0,1.0,0.0
863,67.0,60.0,60.0,1.0,0.0
864,50.0,60.0,120.0,3.0,0.0
865,76.0,60.0,240.0,0.0,0.0
866,70.0,0.0,60.0,1.0,0.0
867,69.0,60.0,60.0,1.0,0.0
868,49.0,0.0,120.0,3.0,0.0
869,67.0,0.0,60.0,1.0,0.0
870,74.0,60.0,300.0,0.0,0.0
871,58.0,0.0,120.0,3.0,0.0
872,65.0,60.0,60.0,1.0,0.0
873,64.0,60.0,60.0,1.0,0.0
874,65.0,60.0,60.0,1.0,0.0
875,57.0,0.0,120.0,3.0,0.0
876,62.0,60.0,60.0,1.0,0.0
877,64.0,120.0,240.0,1.0,0.0
878,56.0,0.0,120.0,3.0,0.0
879,73.0,60.0,60.0,0.0,0.0
880,57.0,0.0,120.0,3.0,0.0
881,74.0,60.0,60.0,0.0,0.0
882,73.0,0.0,60.0,0.0,0.0
883,53.0,60.0,120.0,3.0,0.0
884,74.0,60.0,300.0,0.0,0.0
885,72.0,0.0,60.0,1.0,0.0
886,70.0,60.0,60.0,1.0,0.0
887,50.0,0.0,120.0,3.0,0.0
888,69.0,60.0,60.0,1.0,0.0
889,52.0,0.0,480.0,3.0,0.0
890,67.0,0.0,60.0,1.0,0.0
891,65.0,60.0,60.0,1.0,0.0
892,67.0,0.0,60.0,0.0,0.0
893,64.0,60.0,60.0,1.0,0.0
894,69.0,0.0,60.0,0.0,0.0
895,65.0,60.0,60.0,1.0,0.0
896,67.0,0.0,360.0,1.0,0.0
897,70.0,60.0,60.0,0.0,0.0
898,72.0,60.0,60.0,0.0,0.0
899,62.0,60.0,60.0,0.0,0.0
900,61.0,60.0,60.0,0.0,0.0
901,50.0,60.0,60.0,3.0,0.0
902,62.0,0.0,120.0,0.0,0.0
903,48.0,60.0,60.0,3.0,0.0
904,74.0,0.0,120.0,0.0,0.0
905,66.0,60.0,120.0,1.0,0.0
906,46.0,60.0,60.0,3.0,0.0
907,45.0,0.0,60.0,3.0,0.0
908,70.0,60.0,120.0,0.0,0.0
909,43.0,60.0,60.0,3.0,0.0
910,45.0,0.0,60.0,3.0,0.0
911,46.0,60.0,60.0,3.0,0.0
912,67.0,0.0,180.0,1.0,0.0
913,50.0,60.0,60.0,3.0,0.0
914,75.0,60.0,120.0,0.0,0.0
915,48.0,60.0,60.0,3.0,0.0
916,45.0,0.0,60.0,3.0,0.0
917,66.0,0.0,60.0,1.0,0.0
918,67.0,60.0,60.0,1.0,0.0
919,46.0,0.0,60.0,3.0,0.0
920,74.0,60.0,120.0,0.0,0.0
921,70.0,0.0,60.0,1.0,0.0
922,50.0,0.0,60.0,3.0,0.0
923,51.0,60.0,60.0,3.0,0.0
924,69.0,0.0,240.0,1.0,0.0
925,79.0,0.0,120.0,0.0,0.0
926,48.0,60.0,60.0,3.0,0.0
927,50.0,60.0,60.0,3.0,0.0
928,78.0,60.0,120.0,0.0,0.0
929,54.0,0.0,60.0,3.0,0.0
930,72.0,60.0,120.0,0.0,0.0
931,55.0,60.0,60.0,3.0,0.0
932,53.0,0.0,60.0,3.0,0.0
933,51.0,60.0,60.0,3.0,0.0
934,71.0,0.0,120.0,0.0,0.0
935,67.0,60.0,120.0,1.0,0.0
936,50.0,0.0,60.0,3.0,0.0
937,63.0,0.0,120.0,1.0,0.0
938,48.0,60.0,60.0,3.0,0.0
939,50.0,60.0,60.0,3.0,0.0
940,60.0,60.0,120.0,1.0,0.0
941,51.0,60.0,60.0,3.0,0.0
942,72.0,0.0,180.0,0.0,0.0
943,55.0,0.0,60.0,3.0,0.0
944,53.0,60.0,60.0,3.0,0.0
945,68.0,0.0,120.0,1.0,0.0
946,50.0,0.0,60.0,3.0,0.0
947,71.0,60.0,60.0,0.0,0.0
948,72.0,60.0,60.0,0.0,0.0
949,51.0,0.0,60.0,3.0,0.0
950,67.0,0.0,120.0,1.0,0.0
951,75.0,0.0,60.0,0.0,0.0
952,55.0,60.0,60.0,3.0,0.0
953,72.0,60.0,120.0,1.0,0.0
954,56.0,60.0,60.0,3.0,0.0
955,74.0,60.0,240.0,0.0,0.0
956,53.0,0.0,60.0,3.0,0.0
957,71.0,0.0,120.0,1.0,0.0
958,55.0,60.0,60.0,3.0,0.0
959,59.0,0.0,60.0,3.0,0.0
960,72.0,60.0,60.0,0.0,0.0
961,60.0,0.0,120.0,3.0,0.0
962,65.0,60.0,120.0,1.0,0.0
963,70.0,0.0,60.0,0.0,0.0
964,48.0,120.0,120.0,3.0,0.0
965,64.0,0.0,120.0,1.0,0.0
966,69.0,60.0,60.0,0.0,0.0
967,67.0,0.0,60.0,0.0,0.0
968,65.0,60.0,360.0,1.0,0.0
969,45.0,0.0,120.0,3.0,0.0
970,67.0,60.0,60.0,0.0,0.0
971,69.0,60.0,60.0,0.0,0.0
972,41.0,0.0,120.0,3.0,0.0
973,72.0,60.0,60.0,0.0,0.0
974,70.0,60.0,60.0,0.0,0.0
975,50.0,0.0,120.0,3.0,0.0
976,67.0,0.0,60.0,0.0,0.0
977,48.0,0.0,120.0,3.0,0.0
978,64.0,60.0,120.0,1.0,0.0
979,69.0,60.0,60.0,0.0,0.0
980,72.0,0.0,60.0,0.0,0.0
981,74.0,60.0,60.0,0.0,0.0
982,69.0,0.0,120.0,1.0,0.0
983,53.0,60.0,120.0,3.0,0.0
984,70.0,0.0,60.0,0.0,0.0
985,67.0,0.0,120.0,1.0,0.0
986,72.0,60.0,60.0,0.0,0.0
987,52.0,60.0,120.0,3.0,0.0
988,76.0,0.0,60.0,0.0,0.0
989,46.0,0.0,120.0,3.0,0.0
990,72.0,60.0,120.0,1.0,0.0
991,77.0,60.0,60.0,0.0,0.0
992,75.0,0.0,60.0,0.0,0.0
993,45.0,60.0,120.0,3.0,0.0
994,53.0,0.0,120.0,2.0,0.0
995,74.0,60.0,60.0,0.0,0.0
996,72.0,0.0,60.0,0.0,0.0
997,50.0,60.0,120.0,2.0,0.0
998,70.0,60.0,60.0,0.0,0.0
999,46.0,0.0,960.0,3.0,0.0
1000,69.0,0.0,60.0,0.0,0.0
1001,62.0,60.0,120.0,1.0,0.0
1002,46.0,0.0,120.0,2.0,0.0
1003,67.0,60.0,60.0,0.0,0.0
1004,65.0,0.0,60.0,0.0,0.0
1005,63.0,60.0,60.0,0.0,0.0
1006,58.0,0.0,240.0,1.0,0.0
1007,55.0,60.0,120.0,2.0,0.0
1008,60.0,0.0,60.0,0.0,0.0
1009,53.0,60.0,120.0,2.0,0.0
1010,62.0,60.0,60.0,0.0,0.0
1011,65.0,0.0,60.0,0.0,0.0
1012,67.0,60.0,60.0,0.0,0.0
1013,58.0,60.0,120.0,2.0,0.0
1014,63.0,0.0,60.0,0.0,0.0
1015,65.0,60.0,60.0,0.0,0.0
1016,57.0,0.0,120.0,2.0,0.0
1017,63.0,60.0,120.0,1.0,0.0
1018,69.0,0.0,60.0,0.0,0.0
1019,51.0,0.0,120.0,2.0,0.0
1020,65.0,120.0,120.0,1.0,0.0
1021,70.0,60.0,60.0,0.0,0.0
1022,72.0,0.0,60.0,0.0,0.0
1023,70.0,0.0,120.0,1.0,0.0
1024,50.0,0.0,120.0,2.0,0.0
1025,72.0,60.0,60.0,0.0,0.0
1026,68.0,0.0,240.0,1.0,0.0
1027,59.0,60.0,120.0,2.0,0.0
1028,74.0,60.0,60.0,0.0,0.0
1029,75.0,0.0,60.0,0.0,0.0
1030,77.0,60.0,60.0,0.0,0.0
1031,58.0,60.0,120.0,2.0,0.0
1032,74.0,0.0,60.0,0.0,0.0
1033,70.0,60.0,60.0,0.0,0.0
1034,67.0,60.0,240.0,1.0,0.0
1035,53.0,0.0,120.0,2.0,0.0
1036,73.0,60.0,60.0,0.0,0.0
1037,52.0,0.0,120.0,2.0,0.0
1038,72.0,60.0,60.0,0.0,0.0
1039,70.0,0.0,60.0,0.0,0.0
1040,61.0,0.0,120.0,2.0,0.0
1041,68.0,60.0,60.0,0.0,0.0
1042,67.0,60.0,60.0,0.0,0.0
1043,60.0,60.0,120.0,2.0,0.0
1044,68.0,60.0,60.0,0.0,0.0
1045,70.0,0.0,60.0,0.0,0.0
1046,68.0,60.0,60.0,0.0,0.0
1047,59.0,60.0,120.0,2.0,0.0
1048,67.0,0.0,180.0,0.0,0.0
1049,65.0,0.0,15.0,1.0,0.0
1050,60.0,120.0,120.0,2.0,0.0
1051,64.0,0.0,60.0,1.0,0.0
1052,65.0,0.0,360.0,0.0,0.0
1053,57.0,60.0,120.0,2.0,0.0
1054,63.0,0.0,60.0,1.0,0.0
1055,53.0,60.0,120.0,2.0,0.0
1056,62.0,60.0,60.0,1.0,0.0
1057,60.0,0.0,60.0,1.0,0.0
1058,58.0,60.0,60.0,1.0,0.0
1059,55.0,0.0,600.0,2.0,0.0
1060,57.0,60.0,60.0,1.0,0.0
1061,70.0,60.0,60.0,0.0,0.0
1062,55.0,0.0,60.0,1.0,0.0
1063,57.0,60.0,60.0,1.0,0.0
1064,72.0,0.0,60.0,0.0,0.0
1065,58.0,60.0,240.0,1.0,0.0
1066,74.0,60.0,60.0,0.0,0.0
1067,75.0,60.0,60.0,0.0,0.0
1068,65.0,60.0,60.0,0.0,0.0
1069,64.0,0.0,60.0,0.0,0.0
1070,57.0,60.0,240.0,1.0,0.0
1071,72.0,60.0,60.0,0.0,0.0
1072,74.0,60.0,60.0,0.0,0.0
1073,63.0,60.0,60.0,0.0,0.0
1074,53.0,0.0,240.0,2.0,0.0
1075,62.0,0.0,60.0,0.0,0.0
1076,55.0,0.0,240.0,1.0,0.0
1077,70.0,60.0,60.0,0.0,0.0
1078,72.0,60.0,60.0,0.0,0.0
1079,51.0,0.0,240.0,2.0,0.0
1080,62.0,60.0,60.0,0.0,0.0
1081,60.0,60.0,60.0,0.0,0.0
1082,69.0,60.0,60.0,0.0,0.0
1083,53.0,0.0,480.0,1.0,0.0
1084,67.0,60.0,60.0,0.0,0.0
1085,46.0,60.0,120.0,3.0,0.0
1086,50.0,0.0,120.0,2.0,0.0
1087,69.0,60.0,60.0,0.0,0.0
1088,70.0,0.0,60.0,0.0,0.0
1089,48.0,60.0,120.0,2.0,0.0
1090,45.0,0.0,120.0,3.0,0.0
1091,72.0,60.0,60.0,0.0,0.0
1092,74.0,0.0,60.0,0.0,0.0
1093,41.0,0.0,120.0,3.0,0.0
1094,45.0,0.0,120.0,2.0,0.0
1095,75.0,60.0,60.0,0.0,0.0
1096,72.0,120.0,60.0,0.0,0.0
1097,77.0,0.0,480.0,0.0,0.0
1098,50.0,0.0,120.0,3.0,0.0
1099,75.0,60.0,60.0,1.0,0.0
1100,46.0,0.0,120.0,3.0,0.0
1101,74.0,60.0,60.0,1.0,0.0
1102,72.0,60.0,60.0,1.0,0.0
1103,51.0,0.0,120.0,3.0,0.0
1104,70.0,60.0,60.0,1.0,0.0
1105,68.0,60.0,60.0,1.0,0.0
1106,50.0,60.0,120.0,3.0,0.0
1107,67.0,60.0,60.0,1.0,0.0
1108,68.0,0.0,60.0,1.0,0.0
1109,75.0,0.0,240.0,0.0,0.0
1110,70.0,60.0,60.0,1.0,0.0
1111,44.0,60.0,120.0,3.0,0.0
1112,72.0,0.0,60.0,1.0,0.0
1113,70.0,60.0,60.0,1.0,0.0
1114,43.0,60.0,120.0,3.0,0.0
1115,68.0,0.0,60.0,1.0,0.0
1116,67.0,60.0,60.0,1.0,0.0
1117,73.0,0.0,240.0,0.0,0.0
1118,53.0,60.0,120.0,3.0,0.0
1119,69.0,0.0,60.0,1.0,0.0
1120,70.0,60.0,60.0,1.0,0.0
1121,52.0,0.0,120.0,3.0,0.0
1122,67.0,60.0,60.0,1.0,0.0
1123,63.0,60.0,60.0,1.0,0.0
1124,46.0,0.0,120.0,3.0,0.0
1125,72.0,0.0,240.0,0.0,0.0
1126,66.0,60.0,60.0,1.0,0.0
1127,45.0,0.0,120.0,3.0,0.0
1128,65.0,60.0,60.0,1.0,0.0
1129,63.0,60.0,60.0,1.0,0.0
1130,70.0,60.0,300.0,0.0,0.0
1131,54.0,60.0,120.0,3.0,0.0
1132,61.0,60.0,60.0,1.0,0.0
1133,60.0,0.0,60.0,1.0,0.0
1134,53.0,0.0,120.0,3.0,0.0
1135,61.0,60.0,60.0,1.0,0.0
1136,58.0,60.0,60.0,1.0,0.0
1137,52.0,0.0,120.0,3.0,0.0
1138,60.0,120.0,240.0,1.0,0.0
1139,69.0,60.0,60.0,0.0,0.0
1140,53.0,0.0,120.0,3.0,0.0
1141,70.0,60.0,60.0,0.0,0.0
1142,69.0,0.0,60.0,0.0,0.0
1143,70.0,60.0,300.0,0.0,0.0
1144,50.0,60.0,120.0,3.0,0.0
1145,68.0,0.0,60.0,1.0,0.0
1146,46.0,60.0,120.0,3.0,0.0
1147,67.0,60.0,60.0,1.0,0.0
1148,65.0,0.0,60.0,1.0,0.0
1149,63.0,0.0,60.0,1.0,0.0
1150,48.0,0.0,480.0,3.0,0.0
1151,62.0,60.0,60.0,1.0,0.0
1152,72.0,0.0,60.0,0.0,0.0
1153,60.0,60.0,60.0,1.0,0.0
1154,74.0,0.0,60.0,0.0,0.0
1155,58.0,0.0,60.0,1.0,0.0
1156,75.0,60.0,60.0,0.0,0.0
1157,77.0,0.0,60.0,0.0,0.0
1158,57.0,60.0,60.0,1.0,0.0
1159,55.0,60.0,60.0,1.0,0.0
1160,79.0,0.0,60.0,0.0,0.0
1161,70.0,0.0,60.0,0.0,0.0
1162,53.0,60.0,60.0,1.0,0.0
1163,69.0,0.0,60.0,0.0,0.0
1164,51.0,60.0,60.0,1.0,0.0
1165,46.0,60.0,240.0,3.0,0.0
1166,70.0,0.0,720.0,0.0,0.0
1167,50.0,60.0,60.0,1.0,0.0
1168,53.0,60.0,60.0,1.0,0.0
1169,55.0,60.0,60.0,1.0,0.0
1170,57.0,0.0,60.0,1.0,0.0
1171,58.0,60.0,60.0,1.0,0.0
1172,60.0,60.0,60.0,1.0,0.0
1173,53.0,60.0,60.0,1.0,0.0
1174,43.0,0.0,120.0,3.0,0.0
1175,52.0,120.0,60.0,1.0,0.0
1176,41.0,0.0,240.0,3.0,0.0
1177,53.0,60.0,480.0,1.0,0.0
1178,60.0,60.0,60.0,2.0,0.0
1179,62.0,60.0,60.0,2.0,0.0
1180,63.0,60.0,60.0,2.0,0.0
1181,69.0,60.0,120.0,0.0,0.0
1182,65.0,60.0,60.0,2.0,0.0
1183,67.0,0.0,60.0,2.0,0.0
1184,60.0,60.0,60.0,2.0,0.0
1185,74.0,60.0,180.0,0.0,0.0
1186,50.0,0.0,120.0,3.0,0.0
1187,59.0,0.0,60.0,2.0,0.0
1188,63.0,60.0,600.0,1.0,0.0
1189,48.0,0.0,240.0,3.0,0.0
1190,55.0,60.0,120.0,2.0,0.0
1191,67.0,0.0,60.0,0.0,0.0
1192,69.0,0.0,60.0,0.0,0.0
1193,54.0,60.0,60.0,2.0,0.0
1194,55.0,0.0,60.0,2.0,0.0
1195,70.0,60.0,60.0,0.0,0.0
1196,57.0,0.0,120.0,2.0,0.0
1197,72.0,60.0,60.0,0.0,0.0
1198,74.0,60.0,60.0,0.0,0.0
1199,48.0,60.0,120.0,2.0,0.0
1200,45.0,0.0,120.0,3.0,0.0
1201,67.0,60.0,60.0,0.0,0.0
1202,66.0,0.0,60.0,0.0,0.0
1203,70.0,0.0,240.0,0.0,0.0
1204,55.0,0.0,120.0,2.0,0.0
1205,43.0,60.0,60.0,3.0,0.0
1206,38.0,0.0,60.0,3.0,0.0
1207,62.0,0.0,120.0,1.0,0.0
1208,40.0,60.0,60.0,3.0,0.0
1209,41.0,60.0,60.0,3.0,0.0
1210,43.0,60.0,60.0,3.0,0.0
1211,69.0,60.0,120.0,0.0,0.0
1212,61.0,0.0,120.0,1.0,0.0
1213,45.0,0.0,60.0,3.0,0.0
1214,38.0,60.0,60.0,3.0,0.0
1215,67.0,0.0,120.0,0.0,0.0
1216,64.0,60.0,180.0,1.0,0.0
1217,37.0,60.0,60.0,3.0,0.0
1218,69.0,0.0,480.0,0.0,0.0
1219,41.0,60.0,720.0,3.0,0.0
1220,45.0,60.0,60.0,2.0,0.0
1221,61.0,0.0,60.0,1.0,0.0
1222,47.0,0.0,60.0,2.0,0.0
1223,62.0,60.0,60.0,1.0,0.0
1224,64.0,0.0,60.0,1.0,0.0
1225,49.0,60.0,60.0,2.0,0.0
1226,65.0,0.0,60.0,1.0,0.0
1227,50.0,60.0,60.0,2.0,0.0
1228,52.0,0.0,60.0,2.0,0.0
1229,67.0,60.0,60.0,1.0,0.0
1230,53.0,0.0,60.0,2.0,0.0
1231,58.0,60.0,60.0,1.0,0.0
1232,49.0,0.0,60.0,2.0,0.0
1233,57.0,120.0,60.0,1.0,0.0
1234,59.0,0.0,240.0,1.0,0.0
1235,50.0,0.0,240.0,2.0,0.0
1236,62.0,60.0,60.0,0.0,0.0
1237,64.0,60.0,60.0,0.0,0.0
1238,65.0,0.0,60.0,0.0,0.0
1239,67.0,60.0,60.0,0.0,0.0
1240,52.0,0.0,240.0,2.0,0.0
1241,61.0,0.0,120.0,1.0,0.0
1242,40.0,0.0,240.0,3.0,0.0
1243,69.0,60.0,60.0,0.0,0.0
1244,64.0,60.0,180.0,1.0,0.0
1245,62.0,60.0,60.0,0.0,0.0
1246,61.0,60.0,60.0,0.0,0.0
1247,38.0,60.0,120.0,3.0,0.0
1248,65.0,60.0,240.0,0.0,0.0
1249,64.0,0.0,60.0,1.0,0.0
1250,62.0,60.0,60.0,1.0,0.0
1251,57.0,0.0,120.0,2.0,0.0
1252,61.0,0.0,60.0,1.0,0.0
1253,62.0,60.0,60.0,1.0,0.0
1254,53.0,0.0,120.0,2.0,0.0
1255,64.0,60.0,60.0,1.0,0.0
1256,50.0,0.0,120.0,2.0,0.0
1257,65.0,60.0,60.0,1.0,0.0
1258,69.0,60.0,60.0,1.0,0.0
1259,67.0,60.0,60.0,1.0,0.0
1260,58.0,0.0,120.0,2.0,0.0
1261,64.0,60.0,60.0,1.0,0.0
1262,57.0,60.0,120.0,2.0,0.0
1263,65.0,60.0,60.0,1.0,0.0
1264,69.0,0.0,60.0,1.0,0.0
1265,76.0,60.0,240.0,0.0,0.0
1266,67.0,60.0,60.0,1.0,0.0
1267,62.0,0.0,120.0,2.0,0.0
1268,70.0,60.0,60.0,1.0,0.0
1269,69.0,60.0,60.0,1.0,0.0
1270,61.0,0.0,120.0,2.0,0.0
1271,67.0,0.0,60.0,1.0,0.0
1272,55.0,60.0,120.0,2.0,0.0
1273,69.0,60.0,60.0,1.0,0.0
1274,74.0,60.0,240.0,0.0,0.0
1275,70.0,0.0,60.0,1.0,0.0
1276,72.0,60.0,60.0,1.0,0.0
1277,54.0,0.0,120.0,2.0,0.0
1278,70.0,0.0,60.0,1.0,0.0
1279,69.0,60.0,60.0,1.0,0.0
1280,63.0,60.0,120.0,2.0,0.0
1281,72.0,0.0,240.0,0.0,0.0
1282,67.0,0.0,60.0,1.0,0.0
1283,62.0,0.0,120.0,2.0,0.0
1284,66.0,60.0,60.0,1.0,0.0
1285,64.0,60.0,60.0,1.0,0.0
1286,71.0,0.0,240.0,0.0,0.0
1287,62.0,60.0,60.0,1.0,0.0
1288,57.0,60.0,120.0,2.0,0.0
1289,65.0,0.0,60.0,1.0,0.0
1290,56.0,0.0,120.0,2.0,0.0
1291,64.0,60.0,60.0,1.0,0.0
1292,68.0,120.0,60.0,1.0,0.0
1293,69.0,120.0,360.0,0.0,0.0
1294,65.0,60.0,120.0,2.0,0.0
1295,71.0,0.0,60.0,1.0,0.0
1296,72.0,60.0,60.0,1.0,0.0
1297,64.0,60.0,120.0,2.0,0.0
1298,74.0,0.0,60.0,1.0,0.0
1299,63.0,0.0,120.0,2.0,0.0
1300,72.0,60.0,60.0,1.0,0.0
1301,71.0,0.0,60.0,1.0,0.0
1302,64.0,60.0,120.0,2.0,0.0
1303,68.0,0.0,120.0,0.0,0.0
1304,65.0,0.0,60.0,1.0,0.0
1305,64.0,60.0,60.0,1.0,0.0
1306,60.0,60.0,120.0,2.0,0.0
1307,69.0,60.0,300.0,0.0,0.0
1308,67.0,0.0,60.0,1.0,0.0
1309,65.0,60.0,60.0,1.0,0.0
1310,57.0,0.0,120.0,2.0,0.0
1311,64.0,60.0,60.0,1.0,0.0
1312,59.0,60.0,540.0,2.0,0.0
1313,62.0,60.0,480.0,1.0,0.0
1314,71.0,60.0,60.0,0.0,0.0
1315,72.0,60.0,60.0,0.0,0.0
1316,74.0,60.0,60.0,0.0,0.0
1317,76.0,60.0,60.0,0.0,0.0
1318,77.0,60.0,60.0,0.0,0.0
1319,69.0,60.0,60.0,0.0,0.0
1320,68.0,0.0,60.0,0.0,0.0
1321,64.0,60.0,540.0,1.0,0.0
1322,72.0,10.0,540.0,0.0,0.0
1323,52.0,60.0,60.0,2.0,0.0
1324,54.0,60.0,60.0,2.0,0.0
1325,56.0,60.0,60.0,2.0,0.0
1326,57.0,60.0,60.0,2.0,0.0
1327,59.0,60.0,60.0,2.0,0.0
1328,50.0,60.0,60.0,2.0,0.0
1329,48.0,50.0,60.0,2.0,0.0
1330,50.0,0.0,240.0,2.0,0.0
1331,72.0,0.0,60.0,0.0,0.0
1332,57.0,60.0,60.0,1.0,0.0
1333,74.0,60.0,60.0,0.0,0.0
1334,59.0,0.0,60.0,1.0,0.0
1335,60.0,60.0,60.0,1.0,0.0
1336,76.0,0.0,60.0,0.0,0.0
1337,77.0,0.0,60.0,0.0,0.0
1338,62.0,60.0,60.0,1.0,0.0
1339,64.0,60.0,60.0,1.0,0.0
1340,79.0,0.0,60.0,0.0,0.0
1341,65.0,60.0,60.0,1.0,0.0
1342,71.0,0.0,60.0,0.0,0.0
1343,69.0,60.0,60.0,0.0,0.0
1344,67.0,0.0,60.0,1.0,0.0
1345,65.0,60.0,60.0,1.0,0.0
1346,71.0,60.0,240.0,0.0,0.0
1347,62.0,60.0,60.0,1.0,0.0
1348,43.0,0.0,120.0,3.0,0.0
1349,64.0,60.0,60.0,1.0,0.0
1350,65.0,0.0,60.0,1.0,0.0
1351,67.0,60.0,60.0,1.0,0.0
1352,40.0,0.0,120.0,3.0,0.0
1353,69.0,60.0,60.0,1.0,0.0
1354,36.0,0.0,120.0,3.0,0.0
1355,71.0,60.0,60.0,1.0,0.0
1356,72.0,60.0,60.0,1.0,0.0
1357,45.0,0.0,120.0,3.0,0.0
1358,74.0,60.0,60.0,1.0,0.0
1359,71.0,60.0,60.0,1.0,0.0
1360,43.0,120.0,120.0,3.0,0.0
1361,72.0,60.0,60.0,1.0,0.0
1362,76.0,0.0,60.0,1.0,0.0
1363,74.0,60.0,240.0,0.0,0.0
1364,48.0,60.0,120.0,3.0,0.0
1365,69.0,0.0,60.0,1.0,0.0
1366,47.0,0.0,120.0,3.0,0.0
1367,67.0,60.0,60.0,1.0,0.0
1368,65.0,0.0,60.0,1.0,0.0
1369,67.0,60.0,60.0,1.0,0.0
1370,41.0,0.0,120.0,3.0,0.0
1371,72.0,0.0,240.0,0.0,0.0
1372,69.0,60.0,60.0,1.0,0.0
1373,70.0,60.0,60.0,1.0,0.0
1374,40.0,60.0,120.0,3.0,0.0
1375,69.0,0.0,60.0,1.0,0.0
1376,67.0,60.0,60.0,1.0,0.0
1377,70.0,0.0,240.0,0.0,0.0
1378,49.0,60.0,120.0,3.0,0.0
1379,65.0,0.0,60.0,1.0,0.0
1380,64.0,60.0,60.0,1.0,0.0
1381,48.0,0.0,120.0,3.0,0.0
1382,62.0,60.0,60.0,1.0,0.0
1383,69.0,0.0,240.0,0.0,0.0
1384,43.0,60.0,120.0,3.0,0.0
1385,60.0,60.0,60.0,1.0,0.0
1386,63.0,0.0,60.0,1.0,0.0
1387,62.0,60.0,60.0,1.0,0.0
1388,42.0,0.0,120.0,3.0,0.0
1389,60.0,60.0,60.0,1.0,0.0
1390,67.0,60.0,300.0,0.0,0.0
1391,58.0,60.0,60.0,1.0,0.0
1392,51.0,0.0,120.0,3.0,0.0
1393,57.0,60.0,60.0,1.0,0.0
1394,50.0,60.0,120.0,3.0,0.0
1395,58.0,60.0,60.0,1.0,0.0
1396,55.0,0.0,60.0,1.0,0.0
1397,49.0,60.0,120.0,3.0,0.0
1398,57.0,120.0,240.0,1.0,0.0
1399,66.0,0.0,60.0,0.0,0.0
1400,67.0,60.0,60.0,0.0,0.0
1401,50.0,0.0,120.0,3.0,0.0
1402,66.0,0.0,60.0,0.0,0.0
1403,67.0,60.0,300.0,0.0,0.0
1404,46.0,0.0,120.0,3.0,0.0
1405,65.0,60.0,60.0,1.0,0.0
1406,43.0,60.0,120.0,3.0,0.0
1407,63.0,60.0,60.0,1.0,0.0
1408,62.0,0.0,60.0,1.0,0.0
1409,60.0,0.0,240.0,1.0,0.0
1410,45.0,60.0,480.0,3.0,0.0
1411,69.0,60.0,60.0,0.0,0.0
1412,70.0,60.0,60.0,0.0,0.0
1413,72.0,60.0,60.0,0.0,0.0
1414,74.0,60.0,60.0,0.0,0.0
1415,75.0,60.0,60.0,0.0,0.0
1416,67.0,60.0,60.0,0.0,0.0
1417,66.0,0.0,60.0,0.0,0.0
1418,70.0,60.0,300.0,0.0,0.0
1419,43.0,60.0,120.0,3.0,0.0
1420,69.0,60.0,15.0,1.0,0.0
1421,62.0,60.0,120.0,2.0,0.0
1422,67.0,60.0,60.0,1.0,0.0
1423,66.0,0.0,60.0,1.0,0.0
1424,58.0,60.0,120.0,2.0,0.0
1425,67.0,60.0,240.0,1.0,0.0
1426,69.0,0.0,60.0,0.0,0.0
1427,55.0,0.0,120.0,2.0,0.0
1428,70.0,60.0,60.0,0.0,0.0
1429,69.0,0.0,60.0,0.0,0.0
1430,72.0,60.0,60.0,0.0,0.0
1431,63.0,60.0,120.0,2.0,0.0
1432,69.0,0.0,120.0,1.0,0.0
1433,70.0,0.0,60.0,0.0,0.0
1434,74.0,60.0,60.0,0.0,0.0
1435,70.0,120.0,120.0,1.0,0.0
1436,62.0,0.0,120.0,2.0,0.0
1437,72.0,0.0,60.0,0.0,0.0
1438,75.0,60.0,420.0,0.0,0.0
1439,67.0,0.0,120.0,2.0,0.0
1440,72.0,60.0,60.0,1.0,0.0
1441,70.0,60.0,60.0,1.0,0.0
1442,66.0,0.0,120.0,2.0,0.0
1443,69.0,60.0,60.0,1.0,0.0
1444,60.0,0.0,120.0,2.0,0.0
1445,67.0,60.0,60.0,1.0,0.0
1446,66.0,60.0,60.0,1.0,0.0
1447,67.0,0.0,120.0,1.0,0.0
1448,59.0,0.0,120.0,2.0,0.0
1449,74.0,120.0,60.0,0.0,0.0
1450,77.0,60.0,420.0,0.0,0.0
1451,68.0,0.0,120.0,2.0,0.0
1452,74.0,60.0,60.0,1.0,0.0
1453,67.0,0.0,120.0,2.0,0.0
1454,72.0,60.0,60.0,1.0,0.0
1455,71.0,60.0,60.0,1.0,0.0
1456,69.0,60.0,60.0,1.0,0.0
1457,62.0,60.0,120.0,2.0,0.0
1458,68.0,0.0,60.0,1.0,0.0
1459,61.0,0.0,120.0,2.0,0.0
1460,69.0,120.0,120.0,1.0,0.0
1461,76.0,0.0,60.0,0.0,0.0
1462,70.0,60.0,120.0,2.0,0.0
1463,79.0,0.0,120.0,0.0,0.0
1464,76.0,60.0,120.0,1.0,0.0
1465,69.0,0.0,120.0,2.0,0.0
1466,77.0,60.0,120.0,0.0,0.0
1467,68.0,60.0,120.0,2.0,0.0
1468,76.0,60.0,300.0,0.0,0.0
1469,74.0,60.0,15.0,1.0,0.0
1470,73.0,60.0,60.0,1.0,0.0
1471,69.0,0.0,120.0,2.0,0.0
1472,76.0,60.0,60.0,1.0,0.0
1473,69.0,60.0,180.0,1.0,0.0
1474,65.0,0.0,120.0,2.0,0.0
1475,73.0,60.0,60.0,0.0,0.0
1476,62.0,0.0,120.0,2.0,0.0
1477,70.0,60.0,60.0,1.0,0.0
1478,67.0,0.0,480.0,1.0,0.0
1479,64.0,60.0,540.0,2.0,0.0
1480,74.0,60.0,15.0,0.0,0.0
1481,76.0,60.0,60.0,0.0,0.0
1482,77.0,60.0,60.0,0.0,0.0
1483,79.0,60.0,60.0,0.0,0.0
1484,76.0,60.0,60.0,0.0,0.0
1485,74.0,60.0,60.0,0.0,0.0
1486,73.0,60.0,60.0,0.0,0.0
1487,69.0,60.0,540.0,1.0,0.0
1488,77.0,60.0,1020.0,0.0,0.0
1489,57.0,60.0,60.0,2.0,0.0
1490,59.0,60.0,60.0,2.0,0.0
1491,61.0,60.0,60.0,2.0,0.0
1492,62.0,60.0,60.0,2.0,0.0
1493,64.0,60.0,60.0,2.0,0.0
1494,55.0,60.0,60.0,2.0,0.0
1495,53.0,60.0,60.0,2.0,0.0
1496,55.0,0.0,960.0,2.0,0.0
1497,62.0,60.0,60.0,1.0,0.0
1498,63.0,60.0,60.0,1.0,0.0
1499,65.0,60.0,60.0,1.0,0.0
1500,67.0,60.0,60.0,1.0,0.0
1501,68.0,60.0,60.0,1.0,0.0
1502,60.0,60.0,60.0,1.0,0.0
1503,59.0,60.0,60.0,1.0,0.0
1504,60.0,70.0,540.0,1.0,0.0
1505,74.0,60.0,60.0,0.0,0.0
1506,75.0,60.0,60.0,0.0,0.0
1507,77.0,60.0,60.0,0.0,0.0
1508,79.0,60.0,60.0,0.0,0.0
1509,80.0,60.0,60.0,0.0,0.0
1510,74.0,60.0,60.0,0.0,0.0
1511,72.0,50.0,60.0,0.0,0.0
1512,54.0,0.0,120.0,2.0,0.0
1513,74.0,70.0,300.0,0.0,0.0
1514,60.0,60.0,60.0,1.0,0.0
1515,50.0,50.0,120.0,2.0,0.0
1516,58.0,60.0,60.0,1.0,0.0
1517,57.0,0.0,60.0,1.0,0.0
1518,58.0,60.0,120.0,1.0,0.0
1519,55.0,0.0,120.0,2.0,0.0
1520,74.0,0.0,60.0,0.0,0.0
1521,58.0,60.0,120.0,2.0,0.0
1522,70.0,60.0,60.0,0.0,0.0
1523,67.0,0.0,60.0,0.0,0.0
1524,75.0,60.0,60.0,0.0,0.0
1525,60.0,60.0,120.0,2.0,0.0
1526,77.0,0.0,60.0,0.0,0.0
1527,79.0,0.0,240.0,0.0,0.0
1528,63.0,0.0,120.0,2.0,0.0
1529,72.0,60.0,60.0,1.0,0.0
1530,70.0,60.0,60.0,1.0,0.0
1531,69.0,60.0,60.0,1.0,0.0
1532,65.0,0.0,120.0,2.0,0.0
1533,70.0,60.0,60.0,1.0,0.0
1534,77.0,60.0,60.0,0.0,0.0
1535,72.0,0.0,240.0,1.0,0.0
1536,57.0,0.0,120.0,2.0,0.0
1537,75.0,60.0,60.0,0.0,0.0
1538,58.0,0.0,120.0,2.0,0.0
1539,74.0,60.0,60.0,0.0,0.0
1540,75.0,60.0,60.0,0.0,0.0
1541,77.0,0.0,240.0,0.0,0.0
1542,62.0,0.0,120.0,2.0,0.0
1543,70.0,60.0,60.0,1.0,0.0
1544,69.0,60.0,60.0,1.0,0.0
1545,63.0,0.0,120.0,2.0,0.0
1546,67.0,60.0,60.0,1.0,0.0
1547,69.0,60.0,60.0,1.0,0.0
1548,75.0,60.0,60.0,0.0,0.0
1549,55.0,0.0,120.0,2.0,0.0
1550,70.0,0.0,240.0,1.0,0.0
1551,74.0,60.0,60.0,0.0,0.0
1552,57.0,0.0,120.0,2.0,0.0
1553,72.0,60.0,60.0,0.0,0.0
1554,74.0,60.0,60.0,0.0,0.0
1555,69.0,60.0,60.0,1.0,0.0
1556,75.0,0.0,240.0,0.0,0.0
1557,60.0,0.0,120.0,2.0,0.0
1558,67.0,60.0,60.0,1.0,0.0
1559,62.0,60.0,120.0,2.0,0.0
1560,66.0,60.0,60.0,1.0,0.0
1561,67.0,0.0,60.0,1.0,0.0
1562,74.0,60.0,60.0,0.0,0.0
1563,69.0,0.0,360.0,1.0,0.0
1564,54.0,0.0,120.0,2.0,0.0
1565,72.0,60.0,60.0,0.0,0.0
1566,70.0,60.0,300.0,0.0,0.0
1567,55.0,60.0,60.0,2.0,0.0
1568,50.0,60.0,60.0,2.0,0.0
1569,51.0,60.0,60.0,2.0,0.0
1570,53.0,60.0,60.0,2.0,0.0
1571,67.0,0.0,120.0,1.0,0.0
1572,55.0,0.0,60.0,2.0,0.0
1573,72.0,60.0,60.0,0.0,0.0
1574,56.0,0.0,60.0,2.0,0.0
1575,74.0,0.0,240.0,0.0,0.0
1576,48.0,60.0,60.0,2.0,0.0
1577,65.0,60.0,120.0,1.0,0.0
1578,47.0,0.0,60.0,2.0,0.0
1579,48.0,0.0,120.0,2.0,0.0
1580,63.0,60.0,60.0,1.0,0.0
1581,65.0,60.0,60.0,1.0,0.0
1582,67.0,60.0,240.0,1.0,0.0
1583,51.0,0.0,120.0,2.0,0.0
1584,72.0,60.0,60.0,0.0,0.0
1585,70.0,60.0,60.0,0.0,0.0
1586,53.0,0.0,120.0,2.0,0.0
1587,69.0,60.0,60.0,0.0,0.0
1588,70.0,0.0,60.0,0.0,0.0
1589,72.0,60.0,240.0,0.0,0.0
1590,65.0,60.0,60.0,1.0,0.0
1591,57.0,0.0,120.0,2.0,0.0
1592,63.0,60.0,60.0,1.0,0.0
1593,62.0,60.0,60.0,1.0,0.0
1594,58.0,0.0,120.0,2.0,0.0
1595,63.0,0.0,60.0,1.0,0.0
1596,50.0,60.0,120.0,2.0,0.0
1597,70.0,60.0,60.0,0.0,0.0
1598,65.0,0.0,240.0,1.0,0.0
1599,69.0,0.0,60.0,0.0,0.0
1600,51.0,0.0,120.0,2.0,0.0
1601,67.0,60.0,60.0,0.0,0.0
1602,69.0,60.0,60.0,0.0,0.0
1603,63.0,60.0,60.0,1.0,0.0
1604,70.0,0.0,240.0,0.0,0.0
1605,55.0,60.0,120.0,2.0,0.0
1606,62.0,0.0,60.0,1.0,0.0
1607,57.0,0.0,120.0,2.0,0.0
1608,60.0,60.0,60.0,1.0,0.0
1609,62.0,60.0,60.0,1.0,0.0
1610,63.0,60.0,240.0,1.0,0.0
1611,48.0,0.0,120.0,2.0,0.0
1612,69.0,60.0,60.0,0.0,0.0
1613,67.0,60.0,60.0,0.0,0.0
1614,50.0,0.0,120.0,2.0,0.0
1615,66.0,60.0,60.0,0.0,0.0
1616,67.0,0.0,60.0,0.0,0.0
1617,62.0,60.0,60.0,1.0,0.0
1618,69.0,60.0,180.0,0.0,0.0
1619,54.0,60.0,120.0,2.0,0.0
1620,60.0,0.0,60.0,1.0,0.0
1621,58.0,0.0,240.0,1.0,0.0
1622,55.0,60.0,120.0,2.0,0.0
1623,62.0,0.0,60.0,0.0,0.0
1624,64.0,60.0,60.0,0.0,0.0
1625,50.0,0.0,120.0,2.0,0.0
1626,66.0,120.0,60.0,0.0,0.0
1627,46.0,0.0,120.0,2.0,0.0
1628,67.0,0.0,360.0,1.0,0.0
1629,69.0,60.0,60.0,0.0,0.0
1630,70.0,60.0,60.0,0.0,0.0
1631,43.0,60.0,120.0,2.0,0.0
1632,74.0,0.0,60.0,0.0,0.0
1633,51.0,0.0,120.0,2.0,0.0
1634,72.0,60.0,60.0,0.0,0.0
1635,69.0,60.0,60.0,0.0,0.0
1636,66.0,0.0,120.0,1.0,0.0
1637,50.0,0.0,120.0,2.0,0.0
1638,70.0,60.0,60.0,0.0,0.0
1639,74.0,60.0,60.0,0.0,0.0
1640,70.0,0.0,120.0,1.0,0.0
1641,75.0,60.0,60.0,0.0,0.0
1642,55.0,0.0,120.0,2.0,0.0
1643,72.0,60.0,60.0,0.0,0.0
1644,54.0,60.0,120.0,2.0,0.0
1645,74.0,60.0,60.0,0.0,0.0
1646,69.0,0.0,120.0,1.0,0.0
1647,78.0,0.0,60.0,0.0,0.0
1648,74.0,0.0,120.0,1.0,0.0
1649,79.0,60.0,60.0,0.0,0.0
1650,48.0,0.0,120.0,2.0,0.0
1651,77.0,60.0,60.0,0.0,0.0
1652,47.0,60.0,120.0,2.0,0.0
1653,43.0,0.0,120.0,3.0,0.0
1654,75.0,60.0,60.0,0.0,0.0
1655,74.0,0.0,60.0,0.0,0.0
1656,72.0,60.0,60.0,0.0,0.0
1657,48.0,60.0,480.0,2.0,0.0
1658,39.0,0.0,120.0,3.0,0.0
1659,70.0,60.0,60.0,0.0,0.0
1660,36.0,0.0,120.0,3.0,0.0
1661,68.0,60.0,60.0,0.0,0.0
1662,67.0,60.0,60.0,0.0,0.0
1663,65.0,60.0,60.0,0.0,0.0
1664,44.0,60.0,120.0,3.0,0.0
1665,62.0,0.0,60.0,0.0,0.0
1666,43.0,0.0,120.0,3.0,0.0
1667,63.0,60.0,60.0,0.0,0.0
1668,67.0,0.0,60.0,0.0,0.0
1669,48.0,120.0,120.0,3.0,0.0
1670,50.0,0.0,240.0,2.0,0.0
1671,68.0,60.0,60.0,0.0,0.0
1672,65.0,0.0,60.0,0.0,0.0
1673,67.0,60.0,180.0,1.0,0.0
1674,47.0,0.0,120.0,3.0,0.0
1675,71.0,60.0,60.0,0.0,0.0
1676,48.0,0.0,240.0,2.0,0.0
1677,72.0,0.0,240.0,0.0,0.0
1678,41.0,0.0,120.0,3.0,0.0
1679,69.0,60.0,60.0,1.0,0.0
1680,40.0,0.0,120.0,3.0,0.0
1681,67.0,60.0,60.0,1.0,0.0
1682,65.0,120.0,60.0,1.0,0.0
1683,49.0,0.0,120.0,3.0,0.0
1684,70.0,120.0,240.0,0.0,0.0
1685,64.0,0.0,240.0,1.0,0.0
1686,55.0,60.0,60.0,2.0,0.0
1687,57.0,60.0,60.0,2.0,0.0
1688,48.0,0.0,120.0,3.0,0.0
1689,58.0,0.0,60.0,2.0,0.0
1690,60.0,60.0,180.0,2.0,0.0
1691,43.0,60.0,120.0,3.0,0.0
1692,69.0,60.0,240.0,0.0,0.0
1693,63.0,0.0,120.0,1.0,0.0
1694,42.0,0.0,120.0,3.0,0.0
1695,62.0,0.0,120.0,1.0,0.0
1696,60.0,0.0,60.0,2.0,0.0
1697,67.0,60.0,300.0,0.0,0.0
1698,58.0,60.0,60.0,2.0,0.0
1699,51.0,0.0,120.0,3.0,0.0
1700,60.0,0.0,60.0,1.0,0.0
1701,57.0,60.0,60.0,2.0,0.0
1702,50.0,0.0,120.0,3.0,0.0
1703,55.0,0.0,60.0,2.0,0.0
1704,58.0,60.0,60.0,1.0,0.0
1705,53.0,0.0,60.0,2.0,0.0
1706,60.0,60.0,60.0,1.0,0.0
1707,48.0,0.0,120.0,3.0,0.0
1708,57.0,0.0,240.0,1.0,0.0
1709,52.0,60.0,120.0,2.0,0.0
1710,66.0,0.0,60.0,0.0,0.0
1711,67.0,60.0,60.0,0.0,0.0
1712,50.0,60.0,180.0,2.0,0.0
1713,66.0,60.0,60.0,0.0,0.0
1714,67.0,60.0,300.0,0.0,0.0
1715,46.0,60.0,120.0,3.0,0.0
1716,53.0,0.0,60.0,2.0,0.0
1717,62.0,0.0,60.0,1.0,0.0
1718,51.0,60.0,60.0,2.0,0.0
1719,60.0,0.0,60.0,1.0,0.0
1720,43.0,0.0,120.0,3.0,0.0
1721,50.0,60.0,60.0,2.0,0.0
1722,58.0,0.0,60.0,1.0,0.0
1723,45.0,0.0,480.0,3.0,0.0
1724,57.0,60.0,480.0,1.0,0.0
1725,48.0,0.0,480.0,2.0,0.0
1726,69.0,60.0,60.0,0.0,0.0
1727,70.0,60.0,60.0,0.0,0.0
1728,72.0,60.0,60.0,0.0,0.0
1729,74.0,60.0,60.0,0.0,0.0
1730,75.0,60.0,60.0,0.0,0.0
1731,67.0,60.0,60.0,0.0,0.0
1732,66.0,0.0,60.0,0.0,0.0
1733,55.0,0.0,240.0,1.0,0.0
1734,46.0,60.0,240.0,3.0,0.0
1735,67.0,60.0,60.0,0.0,0.0
1736,50.0,0.0,240.0,2.0,0.0
1737,70.0,60.0,60.0,0.0,0.0
1738,72.0,60.0,60.0,0.0,0.0
1739,74.0,0.0,60.0,0.0,0.0
1740,75.0,60.0,60.0,0.0,0.0
1741,77.0,60.0,60.0,0.0,0.0
1742,68.0,60.0,60.0,0.0,0.0
1743,62.0,60.0,120.0,1.0,0.0
1744,53.0,0.0,120.0,2.0,0.0
1745,47.0,0.0,120.0,3.0,0.0
1746,67.0,0.0,60.0,0.0,0.0
1747,48.0,0.0,240.0,3.0,0.0
1748,51.0,0.0,240.0,2.0,0.0
1749,60.0,60.0,240.0,1.0,0.0
1750,68.0,60.0,60.0,0.0,0.0
1751,72.0,60.0,60.0,0.0,0.0
1752,74.0,60.0,60.0,0.0,0.0
1753,75.0,0.0,60.0,0.0,0.0
1754,78.0,60.0,60.0,0.0,0.0
1755,79.0,60.0,60.0,0.0,0.0
1756,70.0,60.0,60.0,0.0,0.0
1757,49.0,0.0,120.0,3.0,0.0
1758,55.0,60.0,120.0,2.0,0.0
1759,69.0,0.0,60.0,0.0,0.0
1760,70.0,60.0,480.0,0.0,0.0
1761,50.0,60.0,1020.0,3.0,0.0
1762,54.0,60.0,60.0,2.0,0.0
1763,50.0,60.0,60.0,2.0,0.0
1764,52.0,60.0,60.0,2.0,0.0
1765,62.0,60.0,120.0,1.0,0.0
1766,54.0,0.0,60.0,2.0,0.0
1767,58.0,0.0,120.0,1.0,0.0
1768,55.0,60.0,60.0,2.0,0.0
1769,57.0,60.0,60.0,2.0,0.0
1770,55.0,0.0,120.0,1.0,0.0
1771,58.0,60.0,60.0,2.0,0.0
1772,55.0,60.0,120.0,2.0,0.0
1773,63.0,0.0,120.0,1.0,0.0
1774,69.0,0.0,720.0,0.0,0.0
1775,55.0,60.0,60.0,2.0,0.0
1776,62.0,0.0,120.0,1.0,0.0
1777,54.0,60.0,60.0,2.0,0.0
1778,55.0,60.0,60.0,2.0,0.0
1779,57.0,60.0,60.0,2.0,0.0
1780,67.0,0.0,120.0,1.0,0.0
1781,58.0,60.0,60.0,2.0,0.0
1782,66.0,60.0,120.0,1.0,0.0
1783,60.0,60.0,60.0,2.0,0.0
1784,57.0,0.0,60.0,2.0,0.0
1785,60.0,0.0,120.0,1.0,0.0
1786,62.0,60.0,240.0,2.0,0.0
1787,42.0,60.0,60.0,3.0,0.0
1788,59.0,0.0,120.0,1.0,0.0
1789,43.0,60.0,60.0,3.0,0.0
1790,45.0,0.0,60.0,3.0,0.0
1791,68.0,0.0,60.0,0.0,0.0
1792,47.0,60.0,60.0,3.0,0.0
1793,48.0,0.0,60.0,3.0,0.0
1794,66.0,60.0,60.0,0.0,0.0
1795,64.0,0.0,120.0,1.0,0.0
1796,38.0,60.0,60.0,3.0,0.0
1797,67.0,60.0,360.0,0.0,0.0
1798,58.0,0.0,120.0,2.0,0.0
1799,37.0,120.0,60.0,3.0,0.0
1800,62.0,60.0,120.0,1.0,0.0
1801,38.0,960.0,480.0,3.0,0.0
1802,57.0,0.0,480.0,2.0,0.0
1803,43.0,0.0,60.0,3.0,0.0
1804,45.0,60.0,60.0,3.0,0.0
1805,61.0,0.0,120.0,1.0,0.0
1806,46.0,0.0,60.0,3.0,0.0
1807,48.0,60.0,60.0,3.0,0.0
1808,62.0,60.0,180.0,1.0,0.0
1809,66.0,0.0,240.0,0.0,0.0
1810,45.0,60.0,60.0,3.0,0.0
1811,50.0,0.0,1080.0,3.0,0.0
1812,60.0,0.0,60.0,1.0,0.0
1813,59.0,0.0,960.0,1.0,0.0
1814,55.0,0.0,960.0,2.0,0.0
1815,67.0,0.0,960.0,0.0,0.0
1816,43.0,0.0,960.0,3.0,0.0
